<REAPER_PROJECT 0.1 "4.22/x64"
  RIPPLE 0
  GROUPOVERRIDE 0 0 0
  AUTOXFADE 1
  ENVATTACH 1
  MIXERUIFLAGS 11 48
  PEAKGAIN 1.00000000000000
  FEEDBACK 0
  PANLAW 1.00000000000000
  PROJOFFS 0.00000000000000 0
  MAXPROJLEN 0 600.00000000000000
  GRID 3199 8 1.00000000000000 8 1.00000000000000 0
  TIMEMODE 1 0 -1
  PANMODE 3
  CURSOR 0.00000000000000
  ZOOM 9.23437204641940 0 0
  VZOOMEX 6
  USE_REC_CFG 0
  RECMODE 1
  SMPTESYNC 0 23.976024 100 40 1000 300 0 0.000000 1
  LOOP 1
  LOOPGRAN 0 4.00000000000000
  RECORD_PATH "" ""
  <RECORD_CFG
    ZXZhdxAD
  >
  <APPLYFX_CFG
  >
  RENDER_FILE ""
  RENDER_PATTERN ""
  RENDER_FMT 0 2 0
  RENDER_1X 0
  RENDER_RANGE 1 0.00000000000000 0.00000000000000
  RENDER_RESAMPLE 3 0 1
  RENDER_ADDTOPROJ 0
  RENDER_STEMS 0
  RENDER_DITHER 0
  TIMELOCKMODE 0
  ITEMMIX 0
  DEFPITCHMODE 393216
  TAKELANE 1
  SAMPLERATE 44100 0 0
  <RENDER_CFG
  >
  LOCK 1
  <METRONOME 6 2.000000
    VOL 0.250000 0.125000
    FREQ 800 1600 1
    BEATLEN 4
    SAMPLES "" ""
  >
  GLOBAL_AUTO -1
  TEMPO 120.00000000000000 4 4
  PLAYRATE 1.00000000000000 0 0.25000 4.00000
  SELECTION 121.61086800000000 0.00000000000000
  SELECTION2 121.61086800000000 0.00000000000000
  MASTERAUTOMODE 0
  MASTERTRACKHEIGHT 0
  MASTERPEAKCOL 16576
  MASTERMUTESOLO 0
  MASTERTRACKVIEW 0 0.666700 0.500000 0.500000 -1 -1 -1
  MASTERHWOUT 0 0 1.00000000000000 0.00000000000000 0 0 0 -1.00000000000000
  MASTER_NCH 2 2
  MASTER_VOLUME 1.00000000000000 0.00000000000000 -1.00000000000000 -1.00000000000000 1.00000000000000
  MASTER_PANMODE -1
  MASTER_FX 1
  MASTER_SEL 0
  <MASTERPLAYSPEEDENV
    ACT 0
    VIS 0 1 1.000000
    LANEHEIGHT 0 0
    ARM 0
    DEFSHAPE 0 -1 -1
  >
  <TEMPOENVEX
    ACT 1
    VIS 1 0 1.000000
    LANEHEIGHT 0 0
    ARM 0
    DEFSHAPE 1 -1 -1
    PT 0.000000000000 112.4899462111 1
  >
  <PROJBAY
  >
  <TRACK '{19587510-FCBA-4179-9120-9B17235EA0F4}'
    NAME "PART DRUMS"
    PEAKCOL 16576
    BEAT -1
    AUTOMODE 0
    VOLPAN 1.00000000000000 0.00000000000000 -1.00000000000000 -1.00000000000000 1.00000000000000
    MUTESOLO 0 0 0
    IPHASE 0
    ISBUS 1 1
    BUSCOMP 0 0
    SHOWINMIX 1 0.666700 0.500000 1 0.500000 -1 -1 -1
    FREEMODE 0
    SEL 0
    REC 0 0 0 0 0 0 0
    VU 2
    TRACKHEIGHT 0 0
    INQ 0 0 0 0.5000000000 100 0 0 100
    NCHAN 2
    FX 1
    TRACKID {19587510-FCBA-4179-9120-9B17235EA0F4}
    PERF 0
    MIDIOUT -1
    <MIDINOTENAMES
      0 127 "CYMBAL SWELLS"
      0 126 "DRUM ROLL"
      0 125 "---"
      0 124 "DRUM FILL"
      0 123 "DRUM FILL"
      0 122 "DRUM FILL"
      0 121 "DRUM FILL"
      0 120 "DRUM FILL (use all 5)"
      0 118 "----"
      0 116 "OVERDRIVE"
      0 114 "----"
      0 112 "TOM GEMS PAD 4"
      0 111 "TOM GEMS PAD 3"
      0 110 "TOM GEMS PAD 2"
      0 103 "Solo Marker"
      0 102 "----"
      0 100 "EXPERT Green"
      0 99 "EXPERT Blue"
      0 98 "EXPERT Yellow"
      0 97 "EXPERT Red"
      0 96 "EXPERT Kick"
      0 92 "----"
      0 88 "HARD Green"
      0 87 "HARD Blue"
      0 86 "HARD Yellow"
      0 85 "HARD Red"
      0 84 "HARD Kick"
      0 80 "----"
      0 76 "MEDIUM Green"
      0 75 "MEDIUM Blue"
      0 74 "MEDIUM Yellow"
      0 73 "MEDIUM Red"
      0 72 "MEDIUM Kick"
      0 68 "----"
      0 64 "EASY Green"
      0 63 "EASY Blue"
      0 62 "EASY Yellow"
      0 61 "EASY Red"
      0 60 "EASY Kick"
      0 56 "----"
      0 52 "-- DRUM ANIMATION --"
      0 51 "FLOOR TOM RH"
      0 50 "FLOOR TOM LH"
      0 49 "TOM2 RH"
      0 48 "TOM2 LH"
      0 47 "TOM1 RH"
      0 46 "TOM1 LH"
      0 45 "SOFT CRASH 2 LH"
      0 44 "CRASH 2 LH"
      0 43 "RIDE LH"
      0 42 "RIDE CYM RH"
      0 41 "CRASH2 CHOKE"
      0 40 "CRASH1 CHOKE"
      0 39 "CRASH2 SOFT RH"
      0 38 "CRASH2 HARD RH"
      0 37 "CRASH1 SOFT RH"
      0 36 "CRASH1 HARD RH"
      0 35 "CRASH1 SOFT LH"
      0 34 "CRASH1 HARD LH"
      0 32 "PERCUSSION RH"
      0 31 "HI-HAT RH"
      0 30 "HI-HAT LH"
      0 29 "SOFT SNARE RH"
      0 28 "SOFT SNARE LH"
      0 27 "SNARE RH"
      0 26 "SNARE LH"
      0 25 "HI-HAT OPEN"
      0 24 "KICK RF"
    >
    MAINSEND 1 0
    <FXCHAIN
      WNDRECT 0 43 891 559
      SHOW 0
      LASTSEL 0
      DOCKED 0
      BYPASS 0 0
      <VST "VSTi: RBN Preview (RBN)" "rbprev_vst64.dll" 0 ""
        dnBicu5e7f4AAAAAAgAAAAEAAAAAAAAAAgAAAAAAAAAEAAAAAQAAAA==
        AAAQAAMBqgAAABAAAAA=
      >
      FLOATPOS 0 0 0 0
      FXID {297B26BD-04DD-436E-A527-14B72F127AF0}
      WAK 0
    >
    <ITEM
      POSITION 0.00000000000000
      SNAPOFFS 0.00000000000000
      LENGTH 121.61000000000000
      LOOP 0
      ALLTAKES 0
      SEL 0
      FADEIN 1 0.000000 0.000000 1 0
      FADEOUT 1 0.000000 0.000000 1 0
      MUTE 0
      IGUID {54D1350D-A62F-47F9-BA13-D0DFA87774FA}
      IID 1
      NAME "PART DRUMS"
      VOLPAN 1.000000 0.000000 1.000000 -1.000000
      SOFFS 0.00000000000000 0.00000000000000
      PLAYRATE 1.00000000000000 1 0.00000000000000 -1
      CHANMODE 0
      GUID {BC1F4890-36A1-4525-92AC-A3C0A15F4C82}
      <SOURCE MIDI
        HASDATA 1 480 QN
        POOLEDEVTS {E1A99D33-240F-4E7F-BB8C-2CF25715EC53}
        <X 0 0
          /wNQQVJUIERSVU1T
        >
        E 0 90 19 60
        <X 120 0
          /wFbbWl4IDAgZHJ1bXMxXQ==
        >
        <X 120 0
          /wFbbWl4IDEgZHJ1bXMxXQ==
        >
        <X 120 0
          /wFbbWl4IDIgZHJ1bXMxXQ==
        >
        <X 120 0
          /wFbbWl4IDMgZHJ1bXMxXQ==
        >
        E 360 80 19 00
        E 120 90 19 60
        E 480 80 19 00
        <X 2400 0
          /wFbcGxheV0=
        >
        E 0 90 18 60
        E 0 90 1f 60
        E 0 90 3e 60
        E 0 90 48 60
        E 0 90 4a 60
        E 0 90 54 60
        E 0 90 56 60
        E 0 90 60 60
        E 0 90 62 60
        E 120 80 18 00
        E 0 80 1f 00
        E 0 80 3e 00
        E 0 80 48 00
        E 0 80 4a 00
        E 0 80 54 00
        E 0 80 56 00
        E 0 80 60 00
        E 0 80 62 00
        E 120 90 1f 60
        E 0 90 56 60
        E 0 90 62 60
        E 120 80 1f 00
        E 0 80 56 00
        E 0 80 62 00
        E 120 90 1f 60
        E 0 90 3e 60
        E 0 90 4a 60
        E 0 90 56 60
        E 0 90 62 60
        E 120 80 1f 00
        E 0 80 3e 00
        E 0 80 4a 00
        E 0 80 56 00
        E 0 80 62 00
        E 120 90 18 60
        E 0 90 1f 60
        E 0 90 54 60
        E 0 90 56 60
        E 0 90 60 60
        E 0 90 62 60
        E 120 80 18 00
        E 0 80 1f 00
        E 0 80 54 00
        E 0 80 56 00
        E 0 80 60 00
        E 0 80 62 00
        E 360 90 1f 60
        E 0 90 3e 60
        E 0 90 4a 60
        E 0 90 56 60
        E 0 90 62 60
        E 120 80 1f 00
        E 0 80 3e 00
        E 0 80 4a 00
        E 0 80 56 00
        E 0 80 62 00
        E 360 90 1f 60
        E 0 90 56 60
        E 0 90 62 60
        E 120 80 1f 00
        E 0 80 56 00
        E 0 80 62 00
        E 120 90 18 60
        E 0 90 1f 60
        E 0 90 3e 60
        E 0 90 48 60
        E 0 90 4a 60
        E 0 90 54 60
        E 0 90 56 60
        E 0 90 60 60
        E 0 90 62 60
        E 120 80 18 00
        E 0 80 1f 00
        E 0 80 3e 00
        E 0 80 48 00
        E 0 80 4a 00
        E 0 80 54 00
        E 0 80 56 00
        E 0 80 60 00
        E 0 80 62 00
        E 120 90 1f 60
        E 0 90 56 60
        E 0 90 62 60
        E 120 80 1f 00
        E 0 80 56 00
        E 0 80 62 00
        E 120 90 1f 60
        E 0 90 3e 60
        E 0 90 4a 60
        E 0 90 56 60
        E 0 90 62 60
        E 120 80 1f 00
        E 0 80 3e 00
        E 0 80 4a 00
        E 0 80 56 00
        E 0 80 62 00
        E 120 90 18 60
        E 0 90 1f 60
        E 0 90 54 60
        E 0 90 56 60
        E 0 90 60 60
        E 0 90 62 60
        E 120 80 18 00
        E 0 80 1f 00
        E 0 80 54 00
        E 0 80 56 00
        E 0 80 60 00
        E 0 80 62 00
        E 360 90 1f 60
        E 0 90 3e 60
        E 0 90 4a 60
        E 0 90 56 60
        E 0 90 62 60
        E 120 80 1f 00
        E 0 80 3e 00
        E 0 80 4a 00
        E 0 80 56 00
        E 0 80 62 00
        E 360 90 1f 60
        E 0 90 56 60
        E 0 90 62 60
        E 120 80 1f 00
        E 0 80 56 00
        E 0 80 62 00
        E 120 90 18 60
        E 0 90 1f 60
        E 0 90 3e 60
        E 0 90 48 60
        E 0 90 4a 60
        E 0 90 54 60
        E 0 90 56 60
        E 0 90 60 60
        E 0 90 62 60
        E 0 90 74 60
        E 120 80 18 00
        E 0 80 1f 00
        E 0 80 3e 00
        E 0 80 48 00
        E 0 80 4a 00
        E 0 80 54 00
        E 0 80 56 00
        E 0 80 60 00
        E 0 80 62 00
        E 120 90 1f 60
        E 0 90 56 60
        E 0 90 62 60
        E 120 80 1f 00
        E 0 80 56 00
        E 0 80 62 00
        E 120 90 1f 60
        E 0 90 3e 60
        E 0 90 4a 60
        E 0 90 56 60
        E 0 90 62 60
        E 120 80 1f 00
        E 0 80 3e 00
        E 0 80 4a 00
        E 0 80 56 00
        E 0 80 62 00
        E 120 90 18 60
        E 0 90 1f 60
        E 0 90 54 60
        E 0 90 56 60
        E 0 90 60 60
        E 0 90 62 60
        E 120 80 18 00
        E 0 80 1f 00
        E 0 80 54 00
        E 0 80 56 00
        E 0 80 60 00
        E 0 80 62 00
        E 360 90 18 60
        E 0 90 1f 60
        E 0 90 3e 60
        E 0 90 48 60
        E 0 90 4a 60
        E 0 90 54 60
        E 0 90 56 60
        E 0 90 60 60
        E 0 90 62 60
        E 120 80 18 00
        E 0 80 1f 00
        E 0 80 3e 00
        E 0 80 48 00
        E 0 80 4a 00
        E 0 80 54 00
        E 0 80 56 00
        E 0 80 60 00
        E 0 80 62 00
        E 360 90 18 60
        E 0 90 1f 60
        E 0 90 3e 60
        E 0 90 48 60
        E 0 90 4a 60
        E 0 90 54 60
        E 0 90 56 60
        E 0 90 60 60
        E 0 90 62 60
        E 120 80 18 00
        E 0 80 1f 00
        E 0 80 3e 00
        E 0 80 48 00
        E 0 80 4a 00
        E 0 80 54 00
        E 0 80 56 00
        E 0 80 60 00
        E 0 80 62 00
        E 360 90 1f 60
        E 0 90 56 60
        E 0 90 62 60
        E 120 80 1f 00
        E 0 80 56 00
        E 0 80 62 00
        E 120 90 1f 60
        E 0 90 3e 60
        E 0 90 4a 60
        E 0 90 56 60
        E 0 90 62 60
        E 120 80 1f 00
        E 0 80 3e 00
        E 0 80 4a 00
        E 0 80 56 00
        E 0 80 62 00
        E 360 90 1b 60
        E 0 90 3d 60
        E 0 90 49 60
        E 0 90 55 60
        E 0 90 61 60
        E 120 80 1b 00
        E 0 80 3d 00
        E 0 80 49 00
        E 0 80 55 00
        E 0 80 61 00
        E 0 90 1a 60
        E 0 90 61 60
        E 120 80 1a 00
        E 0 80 61 00
        E 0 90 18 60
        E 0 90 54 60
        E 0 90 60 60
        E 120 80 18 00
        E 0 80 54 00
        E 0 80 60 00
        E 120 90 1a 60
        E 0 90 3d 60
        E 0 90 49 60
        E 0 90 55 60
        E 0 90 61 60
        E 120 80 1a 00
        E 0 80 3d 00
        E 0 80 49 00
        E 0 80 55 00
        E 0 80 61 00
        E 120 90 18 60
        E 0 90 54 60
        E 0 90 60 60
        E 120 80 18 00
        E 0 80 54 00
        E 0 80 60 00
        E 120 90 18 60
        E 0 90 3c 60
        E 0 90 48 60
        E 0 90 54 60
        E 0 90 60 60
        E 120 80 74 00
        E 0 80 18 00
        E 0 80 3c 00
        E 0 80 48 00
        E 0 80 54 00
        E 0 80 60 00
        E 120 90 1f 60
        E 0 90 56 60
        E 0 90 62 60
        E 120 80 1f 00
        E 0 80 56 00
        E 0 80 62 00
        E 120 90 1a 60
        E 0 90 3d 60
        E 0 90 49 60
        E 0 90 55 60
        E 0 90 61 60
        E 120 80 1a 00
        E 0 80 3d 00
        E 0 80 49 00
        E 0 80 55 00
        E 0 80 61 00
        E 120 90 1f 60
        E 0 90 56 60
        E 0 90 62 60
        E 120 80 1f 00
        E 0 80 56 00
        E 0 80 62 00
        E 0 90 18 60
        E 0 90 60 60
        E 120 80 18 00
        E 0 80 60 00
        E 0 90 18 60
        E 0 90 3c 60
        E 0 90 48 60
        E 0 90 54 60
        E 0 90 60 60
        E 120 80 18 00
        E 0 80 3c 00
        E 0 80 48 00
        E 0 80 54 00
        E 0 80 60 00
        E 120 90 18 60
        E 0 90 1f 60
        E 0 90 54 60
        E 0 90 56 60
        E 0 90 60 60
        E 0 90 62 60
        E 120 80 18 00
        E 0 80 1f 00
        E 0 80 54 00
        E 0 80 56 00
        E 0 80 60 00
        E 0 80 62 00
        E 120 90 1a 60
        E 0 90 3d 60
        E 0 90 49 60
        E 0 90 55 60
        E 0 90 61 60
        E 120 80 1a 00
        E 0 80 3d 00
        E 0 80 49 00
        E 0 80 55 00
        E 0 80 61 00
        E 120 90 1f 60
        E 0 90 56 60
        E 0 90 62 60
        E 120 80 1f 00
        E 0 80 56 00
        E 0 80 62 00
        E 0 90 1f 60
        E 0 90 62 60
        E 120 80 1f 00
        E 0 80 62 00
        E 0 90 18 60
        E 0 90 3c 60
        E 0 90 48 60
        E 0 90 54 60
        E 0 90 60 60
        E 120 80 18 00
        E 0 80 3c 00
        E 0 80 48 00
        E 0 80 54 00
        E 0 80 60 00
        E 120 90 1f 60
        E 0 90 56 60
        E 0 90 62 60
        E 120 80 1f 00
        E 0 80 56 00
        E 0 80 62 00
        E 120 90 1a 60
        E 0 90 3d 60
        E 0 90 49 60
        E 0 90 55 60
        E 0 90 61 60
        E 120 80 1a 00
        E 0 80 3d 00
        E 0 80 49 00
        E 0 80 55 00
        E 0 80 61 00
        E 120 90 1f 60
        E 0 90 56 60
        E 0 90 62 60
        E 120 80 1f 00
        E 0 80 56 00
        E 0 80 62 00
        E 0 90 18 60
        E 0 90 60 60
        E 120 80 18 00
        E 0 80 60 00
        E 0 90 18 60
        E 0 90 3c 60
        E 0 90 48 60
        E 0 90 54 60
        E 0 90 60 60
        E 120 80 18 00
        E 0 80 3c 00
        E 0 80 48 00
        E 0 80 54 00
        E 0 80 60 00
        E 120 90 18 60
        E 0 90 1f 60
        E 0 90 54 60
        E 0 90 56 60
        E 0 90 60 60
        E 0 90 62 60
        E 120 80 18 00
        E 0 80 1f 00
        E 0 80 54 00
        E 0 80 56 00
        E 0 80 60 00
        E 0 80 62 00
        E 120 90 1a 60
        E 0 90 3d 60
        E 0 90 49 60
        E 0 90 55 60
        E 0 90 61 60
        E 120 80 1a 00
        E 0 80 3d 00
        E 0 80 49 00
        E 0 80 55 00
        E 0 80 61 00
        E 120 90 1f 60
        E 0 90 56 60
        E 0 90 62 60
        E 120 80 1f 00
        E 0 80 56 00
        E 0 80 62 00
        E 0 90 1f 60
        E 0 90 62 60
        E 120 80 1f 00
        E 0 80 62 00
        E 0 90 18 60
        E 0 90 3c 60
        E 0 90 48 60
        E 0 90 54 60
        E 0 90 60 60
        E 120 80 18 00
        E 0 80 3c 00
        E 0 80 48 00
        E 0 80 54 00
        E 0 80 60 00
        E 120 90 1f 60
        E 0 90 56 60
        E 0 90 62 60
        E 120 80 1f 00
        E 0 80 56 00
        E 0 80 62 00
        E 120 90 1a 60
        E 0 90 3d 60
        E 0 90 49 60
        E 0 90 55 60
        E 0 90 61 60
        E 120 80 1a 00
        E 0 80 3d 00
        E 0 80 49 00
        E 0 80 55 00
        E 0 80 61 00
        E 120 90 1f 60
        E 0 90 56 60
        E 0 90 62 60
        E 120 80 1f 00
        E 0 80 56 00
        E 0 80 62 00
        E 0 90 18 60
        E 0 90 60 60
        E 120 80 18 00
        E 0 80 60 00
        E 0 90 18 60
        E 0 90 3c 60
        E 0 90 48 60
        E 0 90 54 60
        E 0 90 60 60
        E 120 80 18 00
        E 0 80 3c 00
        E 0 80 48 00
        E 0 80 54 00
        E 0 80 60 00
        E 120 90 18 60
        E 0 90 1f 60
        E 0 90 54 60
        E 0 90 56 60
        E 0 90 60 60
        E 0 90 62 60
        E 120 80 18 00
        E 0 80 1f 00
        E 0 80 54 00
        E 0 80 56 00
        E 0 80 60 00
        E 0 80 62 00
        E 120 90 1a 60
        E 0 90 3d 60
        E 0 90 49 60
        E 0 90 55 60
        E 0 90 61 60
        E 120 80 1a 00
        E 0 80 3d 00
        E 0 80 49 00
        E 0 80 55 00
        E 0 80 61 00
        E 120 90 1f 60
        E 0 90 56 60
        E 0 90 62 60
        E 120 80 1f 00
        E 0 80 56 00
        E 0 80 62 00
        E 0 90 1f 60
        E 0 90 62 60
        E 120 80 1f 00
        E 0 80 62 00
        E 0 90 18 60
        E 0 90 3c 60
        E 0 90 48 60
        E 0 90 54 60
        E 0 90 60 60
        E 0 90 78 60
        E 0 90 79 60
        E 0 90 7a 60
        E 0 90 7b 60
        E 0 90 7c 60
        E 120 80 18 00
        E 0 80 3c 00
        E 0 80 48 00
        E 0 80 54 00
        E 0 80 60 00
        E 120 90 1f 60
        E 0 90 56 60
        E 0 90 62 60
        E 120 80 1f 00
        E 0 80 56 00
        E 0 80 62 00
        E 120 90 1a 60
        E 0 90 3d 60
        E 0 90 49 60
        E 0 90 55 60
        E 0 90 61 60
        E 120 80 1a 00
        E 0 80 3d 00
        E 0 80 49 00
        E 0 80 55 00
        E 0 80 61 00
        E 120 90 1f 60
        E 0 90 56 60
        E 0 90 62 60
        E 120 80 1f 00
        E 0 80 56 00
        E 0 80 62 00
        E 0 90 18 60
        E 0 90 60 60
        E 120 80 18 00
        E 0 80 60 00
        E 0 90 18 60
        E 0 90 3c 60
        E 0 90 48 60
        E 0 90 54 60
        E 0 90 60 60
        E 120 80 18 00
        E 0 80 3c 00
        E 0 80 48 00
        E 0 80 54 00
        E 0 80 60 00
        E 120 90 18 60
        E 0 90 1f 60
        E 0 90 54 60
        E 0 90 56 60
        E 0 90 60 60
        E 0 90 62 60
        E 120 80 18 00
        E 0 80 1f 00
        E 0 80 54 00
        E 0 80 56 00
        E 0 80 60 00
        E 0 80 62 00
        E 120 90 1a 60
        E 0 90 3d 60
        E 0 90 49 60
        E 0 90 55 60
        E 0 90 61 60
        E 120 80 1a 00
        E 0 80 3d 00
        E 0 80 49 00
        E 0 80 55 00
        E 0 80 61 00
        E 120 90 1f 60
        E 0 90 56 60
        E 0 90 62 60
        E 120 80 1f 00
        E 0 80 56 00
        E 0 80 62 00
        E 0 90 1f 60
        E 0 90 62 60
        E 120 80 78 00
        E 0 80 79 00
        E 0 80 7a 00
        E 0 80 7b 00
        E 0 80 7c 00
        E 0 80 1f 00
        E 0 80 62 00
        E 0 90 18 60
        E 0 90 3c 60
        E 0 90 48 60
        E 0 90 54 60
        E 0 90 60 60
        E 120 80 18 00
        E 0 80 3c 00
        E 0 80 48 00
        E 0 80 54 00
        E 0 80 60 00
        E 120 90 1f 60
        E 0 90 56 60
        E 0 90 62 60
        E 120 80 1f 00
        E 0 80 56 00
        E 0 80 62 00
        E 120 90 1a 60
        E 0 90 3d 60
        E 0 90 49 60
        E 0 90 55 60
        E 0 90 61 60
        E 120 80 1a 00
        E 0 80 3d 00
        E 0 80 49 00
        E 0 80 55 00
        E 0 80 61 00
        E 120 90 1f 60
        E 0 90 56 60
        E 0 90 62 60
        E 120 80 1f 00
        E 0 80 56 00
        E 0 80 62 00
        E 0 90 18 60
        E 0 90 60 60
        E 120 80 18 00
        E 0 80 60 00
        E 0 90 18 60
        E 0 90 3c 60
        E 0 90 48 60
        E 0 90 54 60
        E 0 90 60 60
        E 120 80 18 00
        E 0 80 3c 00
        E 0 80 48 00
        E 0 80 54 00
        E 0 80 60 00
        E 120 90 18 60
        E 0 90 1f 60
        E 0 90 54 60
        E 0 90 56 60
        E 0 90 60 60
        E 0 90 62 60
        E 120 80 18 00
        E 0 80 1f 00
        E 0 80 54 00
        E 0 80 56 00
        E 0 80 60 00
        E 0 80 62 00
        E 120 90 1a 60
        E 0 90 3d 60
        E 0 90 49 60
        E 0 90 55 60
        E 0 90 61 60
        E 120 80 1a 00
        E 0 80 3d 00
        E 0 80 49 00
        E 0 80 55 00
        E 0 80 61 00
        E 120 90 1f 60
        E 0 90 56 60
        E 0 90 62 60
        E 120 80 1f 00
        E 0 80 56 00
        E 0 80 62 00
        E 0 90 1f 60
        E 0 90 62 60
        E 120 80 1f 00
        E 0 80 62 00
        E 0 90 18 60
        E 0 90 3c 60
        E 0 90 48 60
        E 0 90 54 60
        E 0 90 60 60
        E 120 80 18 00
        E 0 80 3c 00
        E 0 80 48 00
        E 0 80 54 00
        E 0 80 60 00
        E 120 90 1f 60
        E 0 90 56 60
        E 0 90 62 60
        E 120 80 1f 00
        E 0 80 56 00
        E 0 80 62 00
        E 120 90 1a 60
        E 0 90 3d 60
        E 0 90 49 60
        E 0 90 55 60
        E 0 90 61 60
        E 120 80 1a 00
        E 0 80 3d 00
        E 0 80 49 00
        E 0 80 55 00
        E 0 80 61 00
        E 120 90 1f 60
        E 0 90 56 60
        E 0 90 62 60
        E 120 80 1f 00
        E 0 80 56 00
        E 0 80 62 00
        E 0 90 18 60
        E 0 90 60 60
        E 120 80 18 00
        E 0 80 60 00
        E 0 90 18 60
        E 0 90 3c 60
        E 0 90 48 60
        E 0 90 54 60
        E 0 90 60 60
        E 120 80 18 00
        E 0 80 3c 00
        E 0 80 48 00
        E 0 80 54 00
        E 0 80 60 00
        E 120 90 18 60
        E 0 90 1f 60
        E 0 90 54 60
        E 0 90 56 60
        E 0 90 60 60
        E 0 90 62 60
        E 120 80 18 00
        E 0 80 1f 00
        E 0 80 54 00
        E 0 80 56 00
        E 0 80 60 00
        E 0 80 62 00
        E 120 90 1a 60
        E 0 90 3d 60
        E 0 90 49 60
        E 0 90 55 60
        E 0 90 61 60
        E 120 80 1a 00
        E 0 80 3d 00
        E 0 80 49 00
        E 0 80 55 00
        E 0 80 61 00
        E 120 90 1f 60
        E 0 90 56 60
        E 0 90 62 60
        E 120 80 1f 00
        E 0 80 56 00
        E 0 80 62 00
        E 0 90 1f 60
        E 0 90 62 60
        E 120 80 1f 00
        E 0 80 62 00
        E 0 90 18 60
        E 0 90 3c 60
        E 0 90 48 60
        E 0 90 54 60
        E 0 90 60 60
        E 120 80 18 00
        E 0 80 3c 00
        E 0 80 48 00
        E 0 80 54 00
        E 0 80 60 00
        E 120 90 1f 60
        E 0 90 56 60
        E 0 90 62 60
        E 120 80 1f 00
        E 0 80 56 00
        E 0 80 62 00
        E 120 90 1a 60
        E 0 90 3d 60
        E 0 90 49 60
        E 0 90 55 60
        E 0 90 61 60
        E 120 80 1a 00
        E 0 80 3d 00
        E 0 80 49 00
        E 0 80 55 00
        E 0 80 61 00
        E 120 90 1f 60
        E 0 90 56 60
        E 0 90 62 60
        E 120 80 1f 00
        E 0 80 56 00
        E 0 80 62 00
        E 0 90 18 60
        E 0 90 60 60
        E 120 80 18 00
        E 0 80 60 00
        E 0 90 18 60
        E 0 90 3c 60
        E 0 90 48 60
        E 0 90 54 60
        E 0 90 60 60
        E 120 80 18 00
        E 0 80 3c 00
        E 0 80 48 00
        E 0 80 54 00
        E 0 80 60 00
        E 120 90 18 60
        E 0 90 1f 60
        E 0 90 54 60
        E 0 90 56 60
        E 0 90 60 60
        E 0 90 62 60
        E 120 80 18 00
        E 0 80 1f 00
        E 0 80 54 00
        E 0 80 56 00
        E 0 80 60 00
        E 0 80 62 00
        E 120 90 1a 60
        E 0 90 3d 60
        E 0 90 49 60
        E 0 90 55 60
        E 0 90 61 60
        E 120 80 1a 00
        E 0 80 3d 00
        E 0 80 49 00
        E 0 80 55 00
        E 0 80 61 00
        E 120 90 1f 60
        E 0 90 56 60
        E 0 90 62 60
        E 120 80 1f 00
        E 0 80 56 00
        E 0 80 62 00
        E 0 90 1f 60
        E 0 90 62 60
        E 120 80 1f 00
        E 0 80 62 00
        E 0 90 18 60
        E 0 90 3c 60
        E 0 90 48 60
        E 0 90 54 60
        E 0 90 60 60
        E 0 90 78 60
        E 0 90 79 60
        E 0 90 7a 60
        E 0 90 7b 60
        E 0 90 7c 60
        E 120 80 18 00
        E 0 80 3c 00
        E 0 80 48 00
        E 0 80 54 00
        E 0 80 60 00
        E 120 90 1f 60
        E 0 90 56 60
        E 0 90 62 60
        E 120 80 1f 00
        E 0 80 56 00
        E 0 80 62 00
        E 120 90 1a 60
        E 0 90 3d 60
        E 0 90 49 60
        E 0 90 55 60
        E 0 90 61 60
        E 120 80 1a 00
        E 0 80 3d 00
        E 0 80 49 00
        E 0 80 55 00
        E 0 80 61 00
        E 120 90 1f 60
        E 0 90 56 60
        E 0 90 62 60
        E 120 80 1f 00
        E 0 80 56 00
        E 0 80 62 00
        E 0 90 18 60
        E 0 90 60 60
        E 120 80 18 00
        E 0 80 60 00
        E 0 90 18 60
        E 0 90 3c 60
        E 0 90 48 60
        E 0 90 54 60
        E 0 90 60 60
        E 120 80 18 00
        E 0 80 3c 00
        E 0 80 48 00
        E 0 80 54 00
        E 0 80 60 00
        E 120 90 18 60
        E 0 90 1f 60
        E 0 90 54 60
        E 0 90 56 60
        E 0 90 60 60
        E 0 90 62 60
        E 120 80 18 00
        E 0 80 1f 00
        E 0 80 54 00
        E 0 80 56 00
        E 0 80 60 00
        E 0 80 62 00
        E 120 90 1a 60
        E 0 90 3d 60
        E 0 90 49 60
        E 0 90 55 60
        E 0 90 61 60
        E 120 80 1a 00
        E 0 80 3d 00
        E 0 80 49 00
        E 0 80 55 00
        E 0 80 61 00
        E 120 90 1f 60
        E 0 90 56 60
        E 0 90 62 60
        E 120 80 1f 00
        E 0 80 56 00
        E 0 80 62 00
        E 0 90 1f 60
        E 0 90 62 60
        E 120 80 78 00
        E 0 80 79 00
        E 0 80 7a 00
        E 0 80 7b 00
        E 0 80 7c 00
        E 0 80 1f 00
        E 0 80 62 00
        E 0 90 18 60
        E 0 90 1f 60
        E 0 90 3e 60
        E 0 90 48 60
        E 0 90 4a 60
        E 0 90 54 60
        E 0 90 56 60
        E 0 90 60 60
        E 0 90 62 60
        E 120 80 18 00
        E 0 80 1f 00
        E 0 80 3e 00
        E 0 80 48 00
        E 0 80 4a 00
        E 0 80 54 00
        E 0 80 56 00
        E 0 80 60 00
        E 0 80 62 00
        E 120 90 1f 60
        E 0 90 56 60
        E 0 90 62 60
        E 120 80 1f 00
        E 0 80 56 00
        E 0 80 62 00
        E 120 90 1a 60
        E 0 90 1f 60
        E 0 90 3d 60
        E 0 90 3e 60
        E 0 90 49 60
        E 0 90 4a 60
        E 0 90 55 60
        E 0 90 56 60
        E 0 90 61 60
        E 0 90 62 60
        E 120 80 1a 00
        E 0 80 1f 00
        E 0 80 3d 00
        E 0 80 3e 00
        E 0 80 49 00
        E 0 80 4a 00
        E 0 80 55 00
        E 0 80 56 00
        E 0 80 61 00
        E 0 80 62 00
        E 120 90 18 60
        E 0 90 1f 60
        E 0 90 54 60
        E 0 90 56 60
        E 0 90 60 60
        E 0 90 62 60
        E 120 80 18 00
        E 0 80 1f 00
        E 0 80 54 00
        E 0 80 56 00
        E 0 80 60 00
        E 0 80 62 00
        E 120 90 18 60
        E 0 90 1f 60
        E 0 90 3e 60
        E 0 90 48 60
        E 0 90 4a 60
        E 0 90 54 60
        E 0 90 56 60
        E 0 90 60 60
        E 0 90 62 60
        E 120 80 18 00
        E 0 80 1f 00
        E 0 80 3e 00
        E 0 80 48 00
        E 0 80 4a 00
        E 0 80 54 00
        E 0 80 56 00
        E 0 80 60 00
        E 0 80 62 00
        E 120 90 1f 60
        E 0 90 56 60
        E 0 90 62 60
        E 120 80 1f 00
        E 0 80 56 00
        E 0 80 62 00
        E 120 90 1a 60
        E 0 90 1f 60
        E 0 90 3d 60
        E 0 90 3e 60
        E 0 90 49 60
        E 0 90 4a 60
        E 0 90 55 60
        E 0 90 56 60
        E 0 90 61 60
        E 0 90 62 60
        E 120 80 1a 00
        E 0 80 1f 00
        E 0 80 3d 00
        E 0 80 3e 00
        E 0 80 49 00
        E 0 80 4a 00
        E 0 80 55 00
        E 0 80 56 00
        E 0 80 61 00
        E 0 80 62 00
        E 120 90 1f 60
        E 0 90 56 60
        E 0 90 62 60
        E 120 80 1f 00
        E 0 80 56 00
        E 0 80 62 00
        E 120 90 18 60
        E 0 90 1f 60
        E 0 90 3e 60
        E 0 90 48 60
        E 0 90 4a 60
        E 0 90 54 60
        E 0 90 56 60
        E 0 90 60 60
        E 0 90 62 60
        E 120 80 18 00
        E 0 80 1f 00
        E 0 80 3e 00
        E 0 80 48 00
        E 0 80 4a 00
        E 0 80 54 00
        E 0 80 56 00
        E 0 80 60 00
        E 0 80 62 00
        E 120 90 1f 60
        E 0 90 56 60
        E 0 90 62 60
        E 120 80 1f 00
        E 0 80 56 00
        E 0 80 62 00
        E 120 90 1a 60
        E 0 90 1f 60
        E 0 90 3d 60
        E 0 90 3e 60
        E 0 90 49 60
        E 0 90 4a 60
        E 0 90 55 60
        E 0 90 56 60
        E 0 90 61 60
        E 0 90 62 60
        E 120 80 1a 00
        E 0 80 1f 00
        E 0 80 3d 00
        E 0 80 3e 00
        E 0 80 49 00
        E 0 80 4a 00
        E 0 80 55 00
        E 0 80 56 00
        E 0 80 61 00
        E 0 80 62 00
        E 120 90 18 60
        E 0 90 1f 60
        E 0 90 54 60
        E 0 90 56 60
        E 0 90 60 60
        E 0 90 62 60
        E 120 80 18 00
        E 0 80 1f 00
        E 0 80 54 00
        E 0 80 56 00
        E 0 80 60 00
        E 0 80 62 00
        E 120 90 18 60
        E 0 90 1f 60
        E 0 90 3e 60
        E 0 90 48 60
        E 0 90 4a 60
        E 0 90 54 60
        E 0 90 56 60
        E 0 90 60 60
        E 0 90 62 60
        E 120 80 18 00
        E 0 80 1f 00
        E 0 80 3e 00
        E 0 80 48 00
        E 0 80 4a 00
        E 0 80 54 00
        E 0 80 56 00
        E 0 80 60 00
        E 0 80 62 00
        E 120 90 1f 60
        E 0 90 56 60
        E 0 90 62 60
        E 120 80 1f 00
        E 0 80 56 00
        E 0 80 62 00
        E 120 90 1a 60
        E 0 90 1f 60
        E 0 90 3d 60
        E 0 90 3e 60
        E 0 90 49 60
        E 0 90 4a 60
        E 0 90 55 60
        E 0 90 56 60
        E 0 90 61 60
        E 0 90 62 60
        E 120 80 1a 00
        E 0 80 1f 00
        E 0 80 3d 00
        E 0 80 3e 00
        E 0 80 49 00
        E 0 80 4a 00
        E 0 80 55 00
        E 0 80 56 00
        E 0 80 61 00
        E 0 80 62 00
        E 120 90 1f 60
        E 0 90 56 60
        E 0 90 62 60
        E 120 80 1f 00
        E 0 80 56 00
        E 0 80 62 00
        E 120 90 18 60
        E 0 90 1f 60
        E 0 90 3e 60
        E 0 90 48 60
        E 0 90 4a 60
        E 0 90 54 60
        E 0 90 56 60
        E 0 90 60 60
        E 0 90 62 60
        E 120 80 18 00
        E 0 80 1f 00
        E 0 80 3e 00
        E 0 80 48 00
        E 0 80 4a 00
        E 0 80 54 00
        E 0 80 56 00
        E 0 80 60 00
        E 0 80 62 00
        E 120 90 1f 60
        E 0 90 56 60
        E 0 90 62 60
        E 120 80 1f 00
        E 0 80 56 00
        E 0 80 62 00
        E 120 90 1a 60
        E 0 90 1f 60
        E 0 90 3d 60
        E 0 90 3e 60
        E 0 90 49 60
        E 0 90 4a 60
        E 0 90 55 60
        E 0 90 56 60
        E 0 90 61 60
        E 0 90 62 60
        E 120 80 1a 00
        E 0 80 1f 00
        E 0 80 3d 00
        E 0 80 3e 00
        E 0 80 49 00
        E 0 80 4a 00
        E 0 80 55 00
        E 0 80 56 00
        E 0 80 61 00
        E 0 80 62 00
        E 120 90 18 60
        E 0 90 1f 60
        E 0 90 54 60
        E 0 90 56 60
        E 0 90 60 60
        E 0 90 62 60
        E 120 80 18 00
        E 0 80 1f 00
        E 0 80 54 00
        E 0 80 56 00
        E 0 80 60 00
        E 0 80 62 00
        E 120 90 18 60
        E 0 90 1f 60
        E 0 90 3e 60
        E 0 90 48 60
        E 0 90 4a 60
        E 0 90 54 60
        E 0 90 56 60
        E 0 90 60 60
        E 0 90 62 60
        E 120 80 18 00
        E 0 80 1f 00
        E 0 80 3e 00
        E 0 80 48 00
        E 0 80 4a 00
        E 0 80 54 00
        E 0 80 56 00
        E 0 80 60 00
        E 0 80 62 00
        E 120 90 1f 60
        E 0 90 56 60
        E 0 90 62 60
        E 120 80 1f 00
        E 0 80 56 00
        E 0 80 62 00
        E 120 90 1a 60
        E 0 90 1f 60
        E 0 90 3d 60
        E 0 90 3e 60
        E 0 90 49 60
        E 0 90 4a 60
        E 0 90 55 60
        E 0 90 56 60
        E 0 90 61 60
        E 0 90 62 60
        E 120 80 1a 00
        E 0 80 1f 00
        E 0 80 3d 00
        E 0 80 3e 00
        E 0 80 49 00
        E 0 80 4a 00
        E 0 80 55 00
        E 0 80 56 00
        E 0 80 61 00
        E 0 80 62 00
        E 120 90 1f 60
        E 0 90 56 60
        E 0 90 62 60
        E 120 80 1f 00
        E 0 80 56 00
        E 0 80 62 00
        E 120 90 18 60
        E 0 90 1f 60
        E 0 90 3e 60
        E 0 90 48 60
        E 0 90 4a 60
        E 0 90 54 60
        E 0 90 56 60
        E 0 90 60 60
        E 0 90 62 60
        E 0 90 78 60
        E 0 90 79 60
        E 0 90 7a 60
        E 0 90 7b 60
        E 0 90 7c 60
        E 120 80 18 00
        E 0 80 1f 00
        E 0 80 3e 00
        E 0 80 48 00
        E 0 80 4a 00
        E 0 80 54 00
        E 0 80 56 00
        E 0 80 60 00
        E 0 80 62 00
        E 120 90 1f 60
        E 0 90 56 60
        E 0 90 62 60
        E 120 80 1f 00
        E 0 80 56 00
        E 0 80 62 00
        E 120 90 1a 60
        E 0 90 1f 60
        E 0 90 3d 60
        E 0 90 3e 60
        E 0 90 49 60
        E 0 90 4a 60
        E 0 90 55 60
        E 0 90 56 60
        E 0 90 61 60
        E 0 90 62 60
        E 120 80 1a 00
        E 0 80 1f 00
        E 0 80 3d 00
        E 0 80 3e 00
        E 0 80 49 00
        E 0 80 4a 00
        E 0 80 55 00
        E 0 80 56 00
        E 0 80 61 00
        E 0 80 62 00
        E 120 90 18 60
        E 0 90 1f 60
        E 0 90 54 60
        E 0 90 56 60
        E 0 90 60 60
        E 0 90 62 60
        E 120 80 18 00
        E 0 80 1f 00
        E 0 80 54 00
        E 0 80 56 00
        E 0 80 60 00
        E 0 80 62 00
        E 120 90 1b 60
        E 0 90 3d 60
        E 0 90 49 60
        E 0 90 55 60
        E 0 90 61 60
        E 120 80 1b 00
        E 0 80 3d 00
        E 0 80 49 00
        E 0 80 55 00
        E 0 80 61 00
        E 0 90 1a 60
        E 0 90 61 60
        E 120 80 1a 00
        E 0 80 61 00
        E 0 90 1b 60
        E 0 90 55 60
        E 0 90 61 60
        E 120 80 1b 00
        E 0 80 55 00
        E 0 80 61 00
        E 120 90 1a 60
        E 0 90 3d 60
        E 0 90 49 60
        E 0 90 55 60
        E 0 90 61 60
        E 120 80 1a 00
        E 0 80 3d 00
        E 0 80 49 00
        E 0 80 55 00
        E 0 80 61 00
        E 120 90 1a 60
        E 0 90 55 60
        E 0 90 61 60
        E 120 80 1a 00
        E 0 80 55 00
        E 0 80 61 00
        E 120 80 78 00
        E 0 80 79 00
        E 0 80 7a 00
        E 0 80 7b 00
        E 0 80 7c 00
        E 0 90 18 60
        E 0 90 1f 60
        E 0 90 3e 60
        E 0 90 48 60
        E 0 90 4a 60
        E 0 90 54 60
        E 0 90 56 60
        E 0 90 60 60
        E 0 90 62 60
        E 120 80 18 00
        E 0 80 1f 00
        E 0 80 3e 00
        E 0 80 48 00
        E 0 80 4a 00
        E 0 80 54 00
        E 0 80 56 00
        E 0 80 60 00
        E 0 80 62 00
        E 120 90 1f 60
        E 0 90 56 60
        E 0 90 62 60
        E 120 80 1f 00
        E 0 80 56 00
        E 0 80 62 00
        E 120 90 1a 60
        E 0 90 1f 60
        E 0 90 3d 60
        E 0 90 3e 60
        E 0 90 49 60
        E 0 90 4a 60
        E 0 90 55 60
        E 0 90 56 60
        E 0 90 61 60
        E 0 90 62 60
        E 120 80 1a 00
        E 0 80 1f 00
        E 0 80 3d 00
        E 0 80 3e 00
        E 0 80 49 00
        E 0 80 4a 00
        E 0 80 55 00
        E 0 80 56 00
        E 0 80 61 00
        E 0 80 62 00
        E 120 90 18 60
        E 0 90 1f 60
        E 0 90 54 60
        E 0 90 56 60
        E 0 90 60 60
        E 0 90 62 60
        E 120 80 18 00
        E 0 80 1f 00
        E 0 80 54 00
        E 0 80 56 00
        E 0 80 60 00
        E 0 80 62 00
        E 360 90 1a 60
        E 0 90 1f 60
        E 0 90 55 60
        E 0 90 56 60
        E 0 90 61 60
        E 0 90 62 60
        E 120 80 1a 00
        E 0 80 1f 00
        E 0 80 55 00
        E 0 80 56 00
        E 0 80 61 00
        E 0 80 62 00
        E 120 90 1a 60
        E 0 90 1f 60
        E 0 90 3d 60
        E 0 90 3e 60
        E 0 90 49 60
        E 0 90 4a 60
        E 0 90 55 60
        E 0 90 56 60
        E 0 90 61 60
        E 0 90 62 60
        E 120 80 1a 00
        E 0 80 1f 00
        E 0 80 3d 00
        E 0 80 3e 00
        E 0 80 49 00
        E 0 80 4a 00
        E 0 80 55 00
        E 0 80 56 00
        E 0 80 61 00
        E 0 80 62 00
        E 360 90 18 60
        E 0 90 1f 60
        E 0 90 3e 60
        E 0 90 48 60
        E 0 90 4a 60
        E 0 90 54 60
        E 0 90 56 60
        E 0 90 60 60
        E 0 90 62 60
        E 120 80 18 00
        E 0 80 1f 00
        E 0 80 3e 00
        E 0 80 48 00
        E 0 80 4a 00
        E 0 80 54 00
        E 0 80 56 00
        E 0 80 60 00
        E 0 80 62 00
        E 120 90 1f 60
        E 0 90 56 60
        E 0 90 62 60
        E 120 80 1f 00
        E 0 80 56 00
        E 0 80 62 00
        E 120 90 1a 60
        E 0 90 1f 60
        E 0 90 3d 60
        E 0 90 3e 60
        E 0 90 49 60
        E 0 90 4a 60
        E 0 90 55 60
        E 0 90 56 60
        E 0 90 61 60
        E 0 90 62 60
        E 120 80 1a 00
        E 0 80 1f 00
        E 0 80 3d 00
        E 0 80 3e 00
        E 0 80 49 00
        E 0 80 4a 00
        E 0 80 55 00
        E 0 80 56 00
        E 0 80 61 00
        E 0 80 62 00
        E 120 90 18 60
        E 0 90 1f 60
        E 0 90 54 60
        E 0 90 56 60
        E 0 90 60 60
        E 0 90 62 60
        E 120 80 18 00
        E 0 80 1f 00
        E 0 80 54 00
        E 0 80 56 00
        E 0 80 60 00
        E 0 80 62 00
        E 360 90 1a 60
        E 0 90 1f 60
        E 0 90 55 60
        E 0 90 56 60
        E 0 90 61 60
        E 0 90 62 60
        E 120 80 1a 00
        E 0 80 1f 00
        E 0 80 55 00
        E 0 80 56 00
        E 0 80 61 00
        E 0 80 62 00
        E 120 90 1a 60
        E 0 90 1f 60
        E 0 90 3d 60
        E 0 90 3e 60
        E 0 90 49 60
        E 0 90 4a 60
        E 0 90 55 60
        E 0 90 56 60
        E 0 90 61 60
        E 0 90 62 60
        E 120 80 1a 00
        E 0 80 1f 00
        E 0 80 3d 00
        E 0 80 3e 00
        E 0 80 49 00
        E 0 80 4a 00
        E 0 80 55 00
        E 0 80 56 00
        E 0 80 61 00
        E 0 80 62 00
        E 360 90 18 60
        E 0 90 1f 60
        E 0 90 3e 60
        E 0 90 48 60
        E 0 90 4a 60
        E 0 90 54 60
        E 0 90 56 60
        E 0 90 60 60
        E 0 90 62 60
        E 0 90 74 60
        E 120 80 18 00
        E 0 80 1f 00
        E 0 80 3e 00
        E 0 80 48 00
        E 0 80 4a 00
        E 0 80 54 00
        E 0 80 56 00
        E 0 80 60 00
        E 0 80 62 00
        E 120 90 1f 60
        E 0 90 56 60
        E 0 90 62 60
        E 120 80 1f 00
        E 0 80 56 00
        E 0 80 62 00
        E 120 90 1a 60
        E 0 90 1f 60
        E 0 90 3d 60
        E 0 90 3e 60
        E 0 90 49 60
        E 0 90 4a 60
        E 0 90 55 60
        E 0 90 56 60
        E 0 90 61 60
        E 0 90 62 60
        E 120 80 1a 00
        E 0 80 1f 00
        E 0 80 3d 00
        E 0 80 3e 00
        E 0 80 49 00
        E 0 80 4a 00
        E 0 80 55 00
        E 0 80 56 00
        E 0 80 61 00
        E 0 80 62 00
        E 120 90 18 60
        E 0 90 1f 60
        E 0 90 54 60
        E 0 90 56 60
        E 0 90 60 60
        E 0 90 62 60
        E 120 80 18 00
        E 0 80 1f 00
        E 0 80 54 00
        E 0 80 56 00
        E 0 80 60 00
        E 0 80 62 00
        E 120 90 18 60
        E 0 90 1f 60
        E 0 90 3e 60
        E 0 90 48 60
        E 0 90 4a 60
        E 0 90 54 60
        E 0 90 56 60
        E 0 90 60 60
        E 0 90 62 60
        E 120 80 18 00
        E 0 80 1f 00
        E 0 80 3e 00
        E 0 80 48 00
        E 0 80 4a 00
        E 0 80 54 00
        E 0 80 56 00
        E 0 80 60 00
        E 0 80 62 00
        E 120 90 1f 60
        E 0 90 56 60
        E 0 90 62 60
        E 120 80 1f 00
        E 0 80 56 00
        E 0 80 62 00
        E 120 90 1a 60
        E 0 90 1f 60
        E 0 90 3d 60
        E 0 90 3e 60
        E 0 90 49 60
        E 0 90 4a 60
        E 0 90 55 60
        E 0 90 56 60
        E 0 90 61 60
        E 0 90 62 60
        E 120 80 1a 00
        E 0 80 1f 00
        E 0 80 3d 00
        E 0 80 3e 00
        E 0 80 49 00
        E 0 80 4a 00
        E 0 80 55 00
        E 0 80 56 00
        E 0 80 61 00
        E 0 80 62 00
        E 120 90 1f 60
        E 0 90 56 60
        E 0 90 62 60
        E 120 80 1f 00
        E 0 80 56 00
        E 0 80 62 00
        E 120 90 18 60
        E 0 90 1f 60
        E 0 90 3e 60
        E 0 90 48 60
        E 0 90 4a 60
        E 0 90 54 60
        E 0 90 56 60
        E 0 90 60 60
        E 0 90 62 60
        E 120 80 18 00
        E 0 80 1f 00
        E 0 80 3e 00
        E 0 80 48 00
        E 0 80 4a 00
        E 0 80 54 00
        E 0 80 56 00
        E 0 80 60 00
        E 0 80 62 00
        E 120 90 1f 60
        E 0 90 56 60
        E 0 90 62 60
        E 120 80 1f 00
        E 0 80 56 00
        E 0 80 62 00
        E 120 90 1a 60
        E 0 90 1f 60
        E 0 90 3d 60
        E 0 90 3e 60
        E 0 90 49 60
        E 0 90 4a 60
        E 0 90 55 60
        E 0 90 56 60
        E 0 90 61 60
        E 0 90 62 60
        E 120 80 1a 00
        E 0 80 1f 00
        E 0 80 3d 00
        E 0 80 3e 00
        E 0 80 49 00
        E 0 80 4a 00
        E 0 80 55 00
        E 0 80 56 00
        E 0 80 61 00
        E 0 80 62 00
        E 120 90 18 60
        E 0 90 1f 60
        E 0 90 54 60
        E 0 90 56 60
        E 0 90 60 60
        E 0 90 62 60
        E 120 80 18 00
        E 0 80 1f 00
        E 0 80 54 00
        E 0 80 56 00
        E 0 80 60 00
        E 0 80 62 00
        E 120 90 18 60
        E 0 90 1f 60
        E 0 90 3e 60
        E 0 90 48 60
        E 0 90 4a 60
        E 0 90 54 60
        E 0 90 56 60
        E 0 90 60 60
        E 0 90 62 60
        E 120 80 18 00
        E 0 80 1f 00
        E 0 80 3e 00
        E 0 80 48 00
        E 0 80 4a 00
        E 0 80 54 00
        E 0 80 56 00
        E 0 80 60 00
        E 0 80 62 00
        E 120 90 1a 60
        E 0 90 55 60
        E 0 90 61 60
        E 120 80 1a 00
        E 0 80 55 00
        E 0 80 61 00
        E 120 90 1a 60
        E 0 90 3d 60
        E 0 90 49 60
        E 0 90 55 60
        E 0 90 61 60
        E 120 80 1a 00
        E 0 80 3d 00
        E 0 80 49 00
        E 0 80 55 00
        E 0 80 61 00
        E 120 90 1f 60
        E 0 90 56 60
        E 0 90 62 60
        E 120 80 1f 00
        E 0 80 56 00
        E 0 80 62 00
        E 120 90 18 60
        E 0 90 1f 60
        E 0 90 3e 60
        E 0 90 48 60
        E 0 90 4a 60
        E 0 90 54 60
        E 0 90 56 60
        E 0 90 60 60
        E 0 90 62 60
        E 120 80 74 00
        E 0 80 18 00
        E 0 80 1f 00
        E 0 80 3e 00
        E 0 80 48 00
        E 0 80 4a 00
        E 0 80 54 00
        E 0 80 56 00
        E 0 80 60 00
        E 0 80 62 00
        E 120 90 1f 60
        E 0 90 56 60
        E 0 90 62 60
        E 120 80 1f 00
        E 0 80 56 00
        E 0 80 62 00
        E 120 90 1a 60
        E 0 90 1f 60
        E 0 90 3d 60
        E 0 90 3e 60
        E 0 90 49 60
        E 0 90 4a 60
        E 0 90 55 60
        E 0 90 56 60
        E 0 90 61 60
        E 0 90 62 60
        E 120 80 1a 00
        E 0 80 1f 00
        E 0 80 3d 00
        E 0 80 3e 00
        E 0 80 49 00
        E 0 80 4a 00
        E 0 80 55 00
        E 0 80 56 00
        E 0 80 61 00
        E 0 80 62 00
        E 120 90 18 60
        E 0 90 1f 60
        E 0 90 54 60
        E 0 90 56 60
        E 0 90 60 60
        E 0 90 62 60
        E 120 80 18 00
        E 0 80 1f 00
        E 0 80 54 00
        E 0 80 56 00
        E 0 80 60 00
        E 0 80 62 00
        E 120 90 18 60
        E 0 90 1f 60
        E 0 90 3e 60
        E 0 90 48 60
        E 0 90 4a 60
        E 0 90 54 60
        E 0 90 56 60
        E 0 90 60 60
        E 0 90 62 60
        E 120 80 18 00
        E 0 80 1f 00
        E 0 80 3e 00
        E 0 80 48 00
        E 0 80 4a 00
        E 0 80 54 00
        E 0 80 56 00
        E 0 80 60 00
        E 0 80 62 00
        E 120 90 1f 60
        E 0 90 56 60
        E 0 90 62 60
        E 120 80 1f 00
        E 0 80 56 00
        E 0 80 62 00
        E 120 90 1a 60
        E 0 90 1f 60
        E 0 90 3d 60
        E 0 90 3e 60
        E 0 90 49 60
        E 0 90 4a 60
        E 0 90 55 60
        E 0 90 56 60
        E 0 90 61 60
        E 0 90 62 60
        E 120 80 1a 00
        E 0 80 1f 00
        E 0 80 3d 00
        E 0 80 3e 00
        E 0 80 49 00
        E 0 80 4a 00
        E 0 80 55 00
        E 0 80 56 00
        E 0 80 61 00
        E 0 80 62 00
        E 120 90 1f 60
        E 0 90 56 60
        E 0 90 62 60
        E 120 80 1f 00
        E 0 80 56 00
        E 0 80 62 00
        E 120 90 18 60
        E 0 90 1f 60
        E 0 90 3e 60
        E 0 90 48 60
        E 0 90 4a 60
        E 0 90 54 60
        E 0 90 56 60
        E 0 90 60 60
        E 0 90 62 60
        E 0 90 78 60
        E 0 90 79 60
        E 0 90 7a 60
        E 0 90 7b 60
        E 0 90 7c 60
        E 120 80 18 00
        E 0 80 1f 00
        E 0 80 3e 00
        E 0 80 48 00
        E 0 80 4a 00
        E 0 80 54 00
        E 0 80 56 00
        E 0 80 60 00
        E 0 80 62 00
        E 120 90 1f 60
        E 0 90 56 60
        E 0 90 62 60
        E 120 80 1f 00
        E 0 80 56 00
        E 0 80 62 00
        E 120 90 1a 60
        E 0 90 1f 60
        E 0 90 3d 60
        E 0 90 3e 60
        E 0 90 49 60
        E 0 90 4a 60
        E 0 90 55 60
        E 0 90 56 60
        E 0 90 61 60
        E 0 90 62 60
        E 120 80 1a 00
        E 0 80 1f 00
        E 0 80 3d 00
        E 0 80 3e 00
        E 0 80 49 00
        E 0 80 4a 00
        E 0 80 55 00
        E 0 80 56 00
        E 0 80 61 00
        E 0 80 62 00
        E 120 90 18 60
        E 0 90 1f 60
        E 0 90 54 60
        E 0 90 56 60
        E 0 90 60 60
        E 0 90 62 60
        E 120 80 18 00
        E 0 80 1f 00
        E 0 80 54 00
        E 0 80 56 00
        E 0 80 60 00
        E 0 80 62 00
        E 120 90 18 60
        E 0 90 1f 60
        E 0 90 3e 60
        E 0 90 48 60
        E 0 90 4a 60
        E 0 90 54 60
        E 0 90 56 60
        E 0 90 60 60
        E 0 90 62 60
        E 120 80 18 00
        E 0 80 1f 00
        E 0 80 3e 00
        E 0 80 48 00
        E 0 80 4a 00
        E 0 80 54 00
        E 0 80 56 00
        E 0 80 60 00
        E 0 80 62 00
        E 120 90 1f 60
        E 0 90 56 60
        E 0 90 62 60
        E 120 80 1f 00
        E 0 80 56 00
        E 0 80 62 00
        E 120 90 1a 60
        E 0 90 1f 60
        E 0 90 3d 60
        E 0 90 3e 60
        E 0 90 49 60
        E 0 90 4a 60
        E 0 90 55 60
        E 0 90 56 60
        E 0 90 61 60
        E 0 90 62 60
        E 120 80 1a 00
        E 0 80 1f 00
        E 0 80 3d 00
        E 0 80 3e 00
        E 0 80 49 00
        E 0 80 4a 00
        E 0 80 55 00
        E 0 80 56 00
        E 0 80 61 00
        E 0 80 62 00
        E 120 90 1f 60
        E 0 90 56 60
        E 0 90 62 60
        E 120 80 1f 00
        E 0 80 56 00
        E 0 80 62 00
        E 120 80 78 00
        E 0 80 79 00
        E 0 80 7a 00
        E 0 80 7b 00
        E 0 80 7c 00
        E 0 90 18 60
        E 0 90 1f 60
        E 0 90 3e 60
        E 0 90 48 60
        E 0 90 4a 60
        E 0 90 54 60
        E 0 90 56 60
        E 0 90 60 60
        E 0 90 62 60
        E 120 80 18 00
        E 0 80 1f 00
        E 0 80 3e 00
        E 0 80 48 00
        E 0 80 4a 00
        E 0 80 54 00
        E 0 80 56 00
        E 0 80 60 00
        E 0 80 62 00
        E 120 90 1f 60
        E 0 90 56 60
        E 0 90 62 60
        E 120 80 1f 00
        E 0 80 56 00
        E 0 80 62 00
        E 120 90 1a 60
        E 0 90 1f 60
        E 0 90 3d 60
        E 0 90 3e 60
        E 0 90 49 60
        E 0 90 4a 60
        E 0 90 55 60
        E 0 90 56 60
        E 0 90 61 60
        E 0 90 62 60
        E 120 80 1a 00
        E 0 80 1f 00
        E 0 80 3d 00
        E 0 80 3e 00
        E 0 80 49 00
        E 0 80 4a 00
        E 0 80 55 00
        E 0 80 56 00
        E 0 80 61 00
        E 0 80 62 00
        E 120 90 18 60
        E 0 90 1f 60
        E 0 90 54 60
        E 0 90 56 60
        E 0 90 60 60
        E 0 90 62 60
        E 120 80 18 00
        E 0 80 1f 00
        E 0 80 54 00
        E 0 80 56 00
        E 0 80 60 00
        E 0 80 62 00
        E 120 90 18 60
        E 0 90 1f 60
        E 0 90 3e 60
        E 0 90 48 60
        E 0 90 4a 60
        E 0 90 54 60
        E 0 90 56 60
        E 0 90 60 60
        E 0 90 62 60
        E 120 80 18 00
        E 0 80 1f 00
        E 0 80 3e 00
        E 0 80 48 00
        E 0 80 4a 00
        E 0 80 54 00
        E 0 80 56 00
        E 0 80 60 00
        E 0 80 62 00
        E 120 90 1f 60
        E 0 90 56 60
        E 0 90 62 60
        E 120 80 1f 00
        E 0 80 56 00
        E 0 80 62 00
        E 120 90 1a 60
        E 0 90 1f 60
        E 0 90 3d 60
        E 0 90 3e 60
        E 0 90 49 60
        E 0 90 4a 60
        E 0 90 55 60
        E 0 90 56 60
        E 0 90 61 60
        E 0 90 62 60
        E 120 80 1a 00
        E 0 80 1f 00
        E 0 80 3d 00
        E 0 80 3e 00
        E 0 80 49 00
        E 0 80 4a 00
        E 0 80 55 00
        E 0 80 56 00
        E 0 80 61 00
        E 0 80 62 00
        E 120 90 1f 60
        E 0 90 56 60
        E 0 90 62 60
        E 120 80 1f 00
        E 0 80 56 00
        E 0 80 62 00
        E 120 90 18 60
        E 0 90 1f 60
        E 0 90 3e 60
        E 0 90 48 60
        E 0 90 4a 60
        E 0 90 54 60
        E 0 90 56 60
        E 0 90 60 60
        E 0 90 62 60
        E 120 80 18 00
        E 0 80 1f 00
        E 0 80 3e 00
        E 0 80 48 00
        E 0 80 4a 00
        E 0 80 54 00
        E 0 80 56 00
        E 0 80 60 00
        E 0 80 62 00
        E 120 90 1f 60
        E 0 90 56 60
        E 0 90 62 60
        E 120 80 1f 00
        E 0 80 56 00
        E 0 80 62 00
        E 120 90 1a 60
        E 0 90 1f 60
        E 0 90 3d 60
        E 0 90 3e 60
        E 0 90 49 60
        E 0 90 4a 60
        E 0 90 55 60
        E 0 90 56 60
        E 0 90 61 60
        E 0 90 62 60
        E 120 80 1a 00
        E 0 80 1f 00
        E 0 80 3d 00
        E 0 80 3e 00
        E 0 80 49 00
        E 0 80 4a 00
        E 0 80 55 00
        E 0 80 56 00
        E 0 80 61 00
        E 0 80 62 00
        E 120 90 18 60
        E 0 90 1f 60
        E 0 90 54 60
        E 0 90 56 60
        E 0 90 60 60
        E 0 90 62 60
        E 120 80 18 00
        E 0 80 1f 00
        E 0 80 54 00
        E 0 80 56 00
        E 0 80 60 00
        E 0 80 62 00
        E 120 90 18 60
        E 0 90 1f 60
        E 0 90 3e 60
        E 0 90 48 60
        E 0 90 4a 60
        E 0 90 54 60
        E 0 90 56 60
        E 0 90 60 60
        E 0 90 62 60
        E 120 80 18 00
        E 0 80 1f 00
        E 0 80 3e 00
        E 0 80 48 00
        E 0 80 4a 00
        E 0 80 54 00
        E 0 80 56 00
        E 0 80 60 00
        E 0 80 62 00
        E 120 90 1f 60
        E 0 90 56 60
        E 0 90 62 60
        E 120 80 1f 00
        E 0 80 56 00
        E 0 80 62 00
        E 120 90 1a 60
        E 0 90 1f 60
        E 0 90 3d 60
        E 0 90 3e 60
        E 0 90 49 60
        E 0 90 4a 60
        E 0 90 55 60
        E 0 90 56 60
        E 0 90 61 60
        E 0 90 62 60
        E 120 80 1a 00
        E 0 80 1f 00
        E 0 80 3d 00
        E 0 80 3e 00
        E 0 80 49 00
        E 0 80 4a 00
        E 0 80 55 00
        E 0 80 56 00
        E 0 80 61 00
        E 0 80 62 00
        E 120 90 1f 60
        E 0 90 56 60
        E 0 90 62 60
        E 120 80 1f 00
        E 0 80 56 00
        E 0 80 62 00
        E 120 90 18 60
        E 0 90 1f 60
        E 0 90 3e 60
        E 0 90 48 60
        E 0 90 4a 60
        E 0 90 54 60
        E 0 90 56 60
        E 0 90 60 60
        E 0 90 62 60
        E 0 90 78 60
        E 0 90 79 60
        E 0 90 7a 60
        E 0 90 7b 60
        E 0 90 7c 60
        E 120 80 18 00
        E 0 80 1f 00
        E 0 80 3e 00
        E 0 80 48 00
        E 0 80 4a 00
        E 0 80 54 00
        E 0 80 56 00
        E 0 80 60 00
        E 0 80 62 00
        E 120 90 1f 60
        E 0 90 56 60
        E 0 90 62 60
        E 120 80 1f 00
        E 0 80 56 00
        E 0 80 62 00
        E 120 90 1a 60
        E 0 90 1f 60
        E 0 90 3d 60
        E 0 90 3e 60
        E 0 90 49 60
        E 0 90 4a 60
        E 0 90 55 60
        E 0 90 56 60
        E 0 90 61 60
        E 0 90 62 60
        E 120 80 1a 00
        E 0 80 1f 00
        E 0 80 3d 00
        E 0 80 3e 00
        E 0 80 49 00
        E 0 80 4a 00
        E 0 80 55 00
        E 0 80 56 00
        E 0 80 61 00
        E 0 80 62 00
        E 120 90 18 60
        E 0 90 1f 60
        E 0 90 54 60
        E 0 90 56 60
        E 0 90 60 60
        E 0 90 62 60
        E 120 80 18 00
        E 0 80 1f 00
        E 0 80 54 00
        E 0 80 56 00
        E 0 80 60 00
        E 0 80 62 00
        E 120 90 18 60
        E 0 90 1f 60
        E 0 90 3e 60
        E 0 90 48 60
        E 0 90 4a 60
        E 0 90 54 60
        E 0 90 56 60
        E 0 90 60 60
        E 0 90 62 60
        E 120 80 18 00
        E 0 80 1f 00
        E 0 80 3e 00
        E 0 80 48 00
        E 0 80 4a 00
        E 0 80 54 00
        E 0 80 56 00
        E 0 80 60 00
        E 0 80 62 00
        E 120 90 1f 60
        E 0 90 56 60
        E 0 90 62 60
        E 120 80 1f 00
        E 0 80 56 00
        E 0 80 62 00
        E 120 90 1b 60
        E 0 90 3d 60
        E 0 90 49 60
        E 0 90 55 60
        E 0 90 61 60
        E 120 80 1b 00
        E 0 80 3d 00
        E 0 80 49 00
        E 0 80 55 00
        E 0 80 61 00
        E 0 90 1a 60
        E 0 90 61 60
        E 120 80 1a 00
        E 0 80 61 00
        E 0 90 1b 60
        E 0 90 55 60
        E 0 90 61 60
        E 120 80 1b 00
        E 0 80 55 00
        E 0 80 61 00
        E 120 80 78 00
        E 0 80 79 00
        E 0 80 7a 00
        E 0 80 7b 00
        E 0 80 7c 00
        E 0 90 18 60
        E 0 90 3c 60
        E 0 90 48 60
        E 0 90 54 60
        E 0 90 60 60
        E 120 80 18 00
        E 0 80 3c 00
        E 0 80 48 00
        E 0 80 54 00
        E 0 80 60 00
        E 120 90 1f 60
        E 0 90 56 60
        E 0 90 62 60
        E 120 80 1f 00
        E 0 80 56 00
        E 0 80 62 00
        E 120 90 1a 60
        E 0 90 3d 60
        E 0 90 49 60
        E 0 90 55 60
        E 0 90 61 60
        E 120 80 1a 00
        E 0 80 3d 00
        E 0 80 49 00
        E 0 80 55 00
        E 0 80 61 00
        E 120 90 1f 60
        E 0 90 56 60
        E 0 90 62 60
        E 120 80 1f 00
        E 0 80 56 00
        E 0 80 62 00
        E 0 90 18 60
        E 0 90 60 60
        E 120 80 18 00
        E 0 80 60 00
        E 0 90 18 60
        E 0 90 3c 60
        E 0 90 48 60
        E 0 90 54 60
        E 0 90 60 60
        E 120 80 18 00
        E 0 80 3c 00
        E 0 80 48 00
        E 0 80 54 00
        E 0 80 60 00
        E 120 90 18 60
        E 0 90 1f 60
        E 0 90 54 60
        E 0 90 56 60
        E 0 90 60 60
        E 0 90 62 60
        E 120 80 18 00
        E 0 80 1f 00
        E 0 80 54 00
        E 0 80 56 00
        E 0 80 60 00
        E 0 80 62 00
        E 120 90 1a 60
        E 0 90 3d 60
        E 0 90 49 60
        E 0 90 55 60
        E 0 90 61 60
        E 120 80 1a 00
        E 0 80 3d 00
        E 0 80 49 00
        E 0 80 55 00
        E 0 80 61 00
        E 120 90 1f 60
        E 0 90 56 60
        E 0 90 62 60
        E 120 80 1f 00
        E 0 80 56 00
        E 0 80 62 00
        E 0 90 1f 60
        E 0 90 62 60
        E 120 80 1f 00
        E 0 80 62 00
        E 0 90 18 60
        E 0 90 3c 60
        E 0 90 48 60
        E 0 90 54 60
        E 0 90 60 60
        E 120 80 18 00
        E 0 80 3c 00
        E 0 80 48 00
        E 0 80 54 00
        E 0 80 60 00
        E 120 90 1f 60
        E 0 90 56 60
        E 0 90 62 60
        E 120 80 1f 00
        E 0 80 56 00
        E 0 80 62 00
        E 120 90 1a 60
        E 0 90 3d 60
        E 0 90 49 60
        E 0 90 55 60
        E 0 90 61 60
        E 120 80 1a 00
        E 0 80 3d 00
        E 0 80 49 00
        E 0 80 55 00
        E 0 80 61 00
        E 120 90 1f 60
        E 0 90 56 60
        E 0 90 62 60
        E 120 80 1f 00
        E 0 80 56 00
        E 0 80 62 00
        E 0 90 18 60
        E 0 90 60 60
        E 120 80 18 00
        E 0 80 60 00
        E 0 90 18 60
        E 0 90 3c 60
        E 0 90 48 60
        E 0 90 54 60
        E 0 90 60 60
        E 120 80 18 00
        E 0 80 3c 00
        E 0 80 48 00
        E 0 80 54 00
        E 0 80 60 00
        E 120 90 18 60
        E 0 90 1f 60
        E 0 90 54 60
        E 0 90 56 60
        E 0 90 60 60
        E 0 90 62 60
        E 120 80 18 00
        E 0 80 1f 00
        E 0 80 54 00
        E 0 80 56 00
        E 0 80 60 00
        E 0 80 62 00
        E 120 90 1a 60
        E 0 90 3d 60
        E 0 90 49 60
        E 0 90 55 60
        E 0 90 61 60
        E 120 80 1a 00
        E 0 80 3d 00
        E 0 80 49 00
        E 0 80 55 00
        E 0 80 61 00
        E 120 90 1f 60
        E 0 90 56 60
        E 0 90 62 60
        E 120 80 1f 00
        E 0 80 56 00
        E 0 80 62 00
        E 0 90 1f 60
        E 0 90 62 60
        E 120 80 1f 00
        E 0 80 62 00
        E 0 90 18 60
        E 0 90 3c 60
        E 0 90 48 60
        E 0 90 54 60
        E 0 90 60 60
        E 120 80 18 00
        E 0 80 3c 00
        E 0 80 48 00
        E 0 80 54 00
        E 0 80 60 00
        E 120 90 1f 60
        E 0 90 56 60
        E 0 90 62 60
        E 120 80 1f 00
        E 0 80 56 00
        E 0 80 62 00
        E 120 90 1a 60
        E 0 90 3d 60
        E 0 90 49 60
        E 0 90 55 60
        E 0 90 61 60
        E 120 80 1a 00
        E 0 80 3d 00
        E 0 80 49 00
        E 0 80 55 00
        E 0 80 61 00
        E 120 90 1f 60
        E 0 90 56 60
        E 0 90 62 60
        E 120 80 1f 00
        E 0 80 56 00
        E 0 80 62 00
        E 0 90 18 60
        E 0 90 60 60
        E 120 80 18 00
        E 0 80 60 00
        E 0 90 18 60
        E 0 90 3c 60
        E 0 90 48 60
        E 0 90 54 60
        E 0 90 60 60
        E 120 80 18 00
        E 0 80 3c 00
        E 0 80 48 00
        E 0 80 54 00
        E 0 80 60 00
        E 120 90 18 60
        E 0 90 1f 60
        E 0 90 54 60
        E 0 90 56 60
        E 0 90 60 60
        E 0 90 62 60
        E 120 80 18 00
        E 0 80 1f 00
        E 0 80 54 00
        E 0 80 56 00
        E 0 80 60 00
        E 0 80 62 00
        E 120 90 1a 60
        E 0 90 3d 60
        E 0 90 49 60
        E 0 90 55 60
        E 0 90 61 60
        E 120 80 1a 00
        E 0 80 3d 00
        E 0 80 49 00
        E 0 80 55 00
        E 0 80 61 00
        E 120 90 1f 60
        E 0 90 56 60
        E 0 90 62 60
        E 120 80 1f 00
        E 0 80 56 00
        E 0 80 62 00
        E 0 90 1f 60
        E 0 90 62 60
        E 120 80 1f 00
        E 0 80 62 00
        E 0 90 18 60
        E 0 90 3c 60
        E 0 90 48 60
        E 0 90 54 60
        E 0 90 60 60
        E 0 90 78 60
        E 0 90 79 60
        E 0 90 7a 60
        E 0 90 7b 60
        E 0 90 7c 60
        E 120 80 18 00
        E 0 80 3c 00
        E 0 80 48 00
        E 0 80 54 00
        E 0 80 60 00
        E 120 90 1f 60
        E 0 90 56 60
        E 0 90 62 60
        E 120 80 1f 00
        E 0 80 56 00
        E 0 80 62 00
        E 120 90 1a 60
        E 0 90 3d 60
        E 0 90 49 60
        E 0 90 55 60
        E 0 90 61 60
        E 120 80 1a 00
        E 0 80 3d 00
        E 0 80 49 00
        E 0 80 55 00
        E 0 80 61 00
        E 120 90 1f 60
        E 0 90 56 60
        E 0 90 62 60
        E 120 80 1f 00
        E 0 80 56 00
        E 0 80 62 00
        E 0 90 18 60
        E 0 90 60 60
        E 120 80 18 00
        E 0 80 60 00
        E 0 90 18 60
        E 0 90 3c 60
        E 0 90 48 60
        E 0 90 54 60
        E 0 90 60 60
        E 120 80 18 00
        E 0 80 3c 00
        E 0 80 48 00
        E 0 80 54 00
        E 0 80 60 00
        E 120 90 18 60
        E 0 90 1f 60
        E 0 90 54 60
        E 0 90 56 60
        E 0 90 60 60
        E 0 90 62 60
        E 120 80 18 00
        E 0 80 1f 00
        E 0 80 54 00
        E 0 80 56 00
        E 0 80 60 00
        E 0 80 62 00
        E 120 90 1a 60
        E 0 90 3d 60
        E 0 90 49 60
        E 0 90 55 60
        E 0 90 61 60
        E 120 80 1a 00
        E 0 80 3d 00
        E 0 80 49 00
        E 0 80 55 00
        E 0 80 61 00
        E 120 90 1f 60
        E 0 90 56 60
        E 0 90 62 60
        E 120 80 1f 00
        E 0 80 56 00
        E 0 80 62 00
        E 0 90 1f 60
        E 0 90 62 60
        E 120 80 78 00
        E 0 80 79 00
        E 0 80 7a 00
        E 0 80 7b 00
        E 0 80 7c 00
        E 0 80 1f 00
        E 0 80 62 00
        E 0 90 18 60
        E 0 90 3c 60
        E 0 90 48 60
        E 0 90 54 60
        E 0 90 60 60
        E 120 80 18 00
        E 0 80 3c 00
        E 0 80 48 00
        E 0 80 54 00
        E 0 80 60 00
        E 120 90 1f 60
        E 0 90 56 60
        E 0 90 62 60
        E 120 80 1f 00
        E 0 80 56 00
        E 0 80 62 00
        E 120 90 1a 60
        E 0 90 3d 60
        E 0 90 49 60
        E 0 90 55 60
        E 0 90 61 60
        E 120 80 1a 00
        E 0 80 3d 00
        E 0 80 49 00
        E 0 80 55 00
        E 0 80 61 00
        E 120 90 1f 60
        E 0 90 56 60
        E 0 90 62 60
        E 120 80 1f 00
        E 0 80 56 00
        E 0 80 62 00
        E 0 90 18 60
        E 0 90 60 60
        E 120 80 18 00
        E 0 80 60 00
        E 0 90 18 60
        E 0 90 3c 60
        E 0 90 48 60
        E 0 90 54 60
        E 0 90 60 60
        E 120 80 18 00
        E 0 80 3c 00
        E 0 80 48 00
        E 0 80 54 00
        E 0 80 60 00
        E 120 90 18 60
        E 0 90 1f 60
        E 0 90 54 60
        E 0 90 56 60
        E 0 90 60 60
        E 0 90 62 60
        E 120 80 18 00
        E 0 80 1f 00
        E 0 80 54 00
        E 0 80 56 00
        E 0 80 60 00
        E 0 80 62 00
        E 120 90 1a 60
        E 0 90 3d 60
        E 0 90 49 60
        E 0 90 55 60
        E 0 90 61 60
        E 120 80 1a 00
        E 0 80 3d 00
        E 0 80 49 00
        E 0 80 55 00
        E 0 80 61 00
        E 120 90 1f 60
        E 0 90 56 60
        E 0 90 62 60
        E 120 80 1f 00
        E 0 80 56 00
        E 0 80 62 00
        E 0 90 1f 60
        E 0 90 62 60
        E 120 80 1f 00
        E 0 80 62 00
        E 0 90 18 60
        E 0 90 3c 60
        E 0 90 48 60
        E 0 90 54 60
        E 0 90 60 60
        E 120 80 18 00
        E 0 80 3c 00
        E 0 80 48 00
        E 0 80 54 00
        E 0 80 60 00
        E 120 90 1f 60
        E 0 90 56 60
        E 0 90 62 60
        E 120 80 1f 00
        E 0 80 56 00
        E 0 80 62 00
        E 120 90 1a 60
        E 0 90 3d 60
        E 0 90 49 60
        E 0 90 55 60
        E 0 90 61 60
        E 120 80 1a 00
        E 0 80 3d 00
        E 0 80 49 00
        E 0 80 55 00
        E 0 80 61 00
        E 120 90 1f 60
        E 0 90 56 60
        E 0 90 62 60
        E 120 80 1f 00
        E 0 80 56 00
        E 0 80 62 00
        E 0 90 18 60
        E 0 90 60 60
        E 120 80 18 00
        E 0 80 60 00
        E 0 90 18 60
        E 0 90 3c 60
        E 0 90 48 60
        E 0 90 54 60
        E 0 90 60 60
        E 120 80 18 00
        E 0 80 3c 00
        E 0 80 48 00
        E 0 80 54 00
        E 0 80 60 00
        E 120 90 18 60
        E 0 90 1f 60
        E 0 90 54 60
        E 0 90 56 60
        E 0 90 60 60
        E 0 90 62 60
        E 120 80 18 00
        E 0 80 1f 00
        E 0 80 54 00
        E 0 80 56 00
        E 0 80 60 00
        E 0 80 62 00
        E 120 90 1a 60
        E 0 90 3d 60
        E 0 90 49 60
        E 0 90 55 60
        E 0 90 61 60
        E 120 80 1a 00
        E 0 80 3d 00
        E 0 80 49 00
        E 0 80 55 00
        E 0 80 61 00
        E 120 90 1f 60
        E 0 90 56 60
        E 0 90 62 60
        E 120 80 1f 00
        E 0 80 56 00
        E 0 80 62 00
        E 0 90 1f 60
        E 0 90 62 60
        E 120 80 1f 00
        E 0 80 62 00
        E 0 90 18 60
        E 0 90 3c 60
        E 0 90 48 60
        E 0 90 54 60
        E 0 90 60 60
        E 0 90 74 60
        E 120 80 18 00
        E 0 80 3c 00
        E 0 80 48 00
        E 0 80 54 00
        E 0 80 60 00
        E 120 90 1f 60
        E 0 90 56 60
        E 0 90 62 60
        E 120 80 1f 00
        E 0 80 56 00
        E 0 80 62 00
        E 120 90 1a 60
        E 0 90 3d 60
        E 0 90 49 60
        E 0 90 55 60
        E 0 90 61 60
        E 120 80 1a 00
        E 0 80 3d 00
        E 0 80 49 00
        E 0 80 55 00
        E 0 80 61 00
        E 120 90 1f 60
        E 0 90 56 60
        E 0 90 62 60
        E 120 80 1f 00
        E 0 80 56 00
        E 0 80 62 00
        E 0 90 18 60
        E 0 90 60 60
        E 120 80 18 00
        E 0 80 60 00
        E 0 90 18 60
        E 0 90 3c 60
        E 0 90 48 60
        E 0 90 54 60
        E 0 90 60 60
        E 120 80 18 00
        E 0 80 3c 00
        E 0 80 48 00
        E 0 80 54 00
        E 0 80 60 00
        E 120 90 18 60
        E 0 90 1f 60
        E 0 90 54 60
        E 0 90 56 60
        E 0 90 60 60
        E 0 90 62 60
        E 120 80 18 00
        E 0 80 1f 00
        E 0 80 54 00
        E 0 80 56 00
        E 0 80 60 00
        E 0 80 62 00
        E 120 90 1a 60
        E 0 90 3d 60
        E 0 90 49 60
        E 0 90 55 60
        E 0 90 61 60
        E 120 80 1a 00
        E 0 80 3d 00
        E 0 80 49 00
        E 0 80 55 00
        E 0 80 61 00
        E 120 90 1f 60
        E 0 90 56 60
        E 0 90 62 60
        E 120 80 1f 00
        E 0 80 56 00
        E 0 80 62 00
        E 0 90 1f 60
        E 0 90 62 60
        E 120 80 1f 00
        E 0 80 62 00
        E 0 90 18 60
        E 0 90 3c 60
        E 0 90 48 60
        E 0 90 54 60
        E 0 90 60 60
        E 120 80 74 00
        E 0 80 18 00
        E 0 80 3c 00
        E 0 80 48 00
        E 0 80 54 00
        E 0 80 60 00
        E 120 90 1f 60
        E 0 90 56 60
        E 0 90 62 60
        E 120 80 1f 00
        E 0 80 56 00
        E 0 80 62 00
        E 120 90 1a 60
        E 0 90 3d 60
        E 0 90 49 60
        E 0 90 55 60
        E 0 90 61 60
        E 120 80 1a 00
        E 0 80 3d 00
        E 0 80 49 00
        E 0 80 55 00
        E 0 80 61 00
        E 120 90 1f 60
        E 0 90 56 60
        E 0 90 62 60
        E 120 80 1f 00
        E 0 80 56 00
        E 0 80 62 00
        E 0 90 18 60
        E 0 90 60 60
        E 120 80 18 00
        E 0 80 60 00
        E 0 90 18 60
        E 0 90 3c 60
        E 0 90 48 60
        E 0 90 54 60
        E 0 90 60 60
        E 120 80 18 00
        E 0 80 3c 00
        E 0 80 48 00
        E 0 80 54 00
        E 0 80 60 00
        E 120 90 18 60
        E 0 90 1f 60
        E 0 90 54 60
        E 0 90 56 60
        E 0 90 60 60
        E 0 90 62 60
        E 120 80 18 00
        E 0 80 1f 00
        E 0 80 54 00
        E 0 80 56 00
        E 0 80 60 00
        E 0 80 62 00
        E 120 90 1a 60
        E 0 90 3d 60
        E 0 90 49 60
        E 0 90 55 60
        E 0 90 61 60
        E 120 80 1a 00
        E 0 80 3d 00
        E 0 80 49 00
        E 0 80 55 00
        E 0 80 61 00
        E 120 90 1f 60
        E 0 90 56 60
        E 0 90 62 60
        E 120 80 1f 00
        E 0 80 56 00
        E 0 80 62 00
        E 0 90 1f 60
        E 0 90 62 60
        E 120 80 1f 00
        E 0 80 62 00
        E 0 90 18 60
        E 0 90 1f 60
        E 0 90 3e 60
        E 0 90 48 60
        E 0 90 4a 60
        E 0 90 54 60
        E 0 90 56 60
        E 0 90 60 60
        E 0 90 62 60
        E 120 80 18 00
        E 0 80 1f 00
        E 0 80 3e 00
        E 0 80 48 00
        E 0 80 4a 00
        E 0 80 54 00
        E 0 80 56 00
        E 0 80 60 00
        E 0 80 62 00
        E 120 90 1f 60
        E 0 90 56 60
        E 0 90 62 60
        E 120 80 1f 00
        E 0 80 56 00
        E 0 80 62 00
        E 120 90 1a 60
        E 0 90 1f 60
        E 0 90 3d 60
        E 0 90 3e 60
        E 0 90 49 60
        E 0 90 4a 60
        E 0 90 55 60
        E 0 90 56 60
        E 0 90 61 60
        E 0 90 62 60
        E 120 80 1a 00
        E 0 80 1f 00
        E 0 80 3d 00
        E 0 80 3e 00
        E 0 80 49 00
        E 0 80 4a 00
        E 0 80 55 00
        E 0 80 56 00
        E 0 80 61 00
        E 0 80 62 00
        E 120 90 18 60
        E 0 90 1f 60
        E 0 90 54 60
        E 0 90 56 60
        E 0 90 60 60
        E 0 90 62 60
        E 120 80 18 00
        E 0 80 1f 00
        E 0 80 54 00
        E 0 80 56 00
        E 0 80 60 00
        E 0 80 62 00
        E 120 90 18 60
        E 0 90 1f 60
        E 0 90 3e 60
        E 0 90 48 60
        E 0 90 4a 60
        E 0 90 54 60
        E 0 90 56 60
        E 0 90 60 60
        E 0 90 62 60
        E 120 80 18 00
        E 0 80 1f 00
        E 0 80 3e 00
        E 0 80 48 00
        E 0 80 4a 00
        E 0 80 54 00
        E 0 80 56 00
        E 0 80 60 00
        E 0 80 62 00
        E 120 90 1f 60
        E 0 90 56 60
        E 0 90 62 60
        E 120 80 1f 00
        E 0 80 56 00
        E 0 80 62 00
        E 120 90 1a 60
        E 0 90 1f 60
        E 0 90 3d 60
        E 0 90 3e 60
        E 0 90 49 60
        E 0 90 4a 60
        E 0 90 55 60
        E 0 90 56 60
        E 0 90 61 60
        E 0 90 62 60
        E 120 80 1a 00
        E 0 80 1f 00
        E 0 80 3d 00
        E 0 80 3e 00
        E 0 80 49 00
        E 0 80 4a 00
        E 0 80 55 00
        E 0 80 56 00
        E 0 80 61 00
        E 0 80 62 00
        E 120 90 1f 60
        E 0 90 56 60
        E 0 90 62 60
        E 120 80 1f 00
        E 0 80 56 00
        E 0 80 62 00
        E 120 90 18 60
        E 0 90 1f 60
        E 0 90 3e 60
        E 0 90 48 60
        E 0 90 4a 60
        E 0 90 54 60
        E 0 90 56 60
        E 0 90 60 60
        E 0 90 62 60
        E 120 80 18 00
        E 0 80 1f 00
        E 0 80 3e 00
        E 0 80 48 00
        E 0 80 4a 00
        E 0 80 54 00
        E 0 80 56 00
        E 0 80 60 00
        E 0 80 62 00
        E 120 90 1f 60
        E 0 90 56 60
        E 0 90 62 60
        E 120 80 1f 00
        E 0 80 56 00
        E 0 80 62 00
        E 120 90 1a 60
        E 0 90 1f 60
        E 0 90 3d 60
        E 0 90 3e 60
        E 0 90 49 60
        E 0 90 4a 60
        E 0 90 55 60
        E 0 90 56 60
        E 0 90 61 60
        E 0 90 62 60
        E 120 80 1a 00
        E 0 80 1f 00
        E 0 80 3d 00
        E 0 80 3e 00
        E 0 80 49 00
        E 0 80 4a 00
        E 0 80 55 00
        E 0 80 56 00
        E 0 80 61 00
        E 0 80 62 00
        E 120 90 18 60
        E 0 90 1f 60
        E 0 90 54 60
        E 0 90 56 60
        E 0 90 60 60
        E 0 90 62 60
        E 120 80 18 00
        E 0 80 1f 00
        E 0 80 54 00
        E 0 80 56 00
        E 0 80 60 00
        E 0 80 62 00
        E 120 90 18 60
        E 0 90 1f 60
        E 0 90 3e 60
        E 0 90 48 60
        E 0 90 4a 60
        E 0 90 54 60
        E 0 90 56 60
        E 0 90 60 60
        E 0 90 62 60
        E 120 80 18 00
        E 0 80 1f 00
        E 0 80 3e 00
        E 0 80 48 00
        E 0 80 4a 00
        E 0 80 54 00
        E 0 80 56 00
        E 0 80 60 00
        E 0 80 62 00
        E 120 90 1f 60
        E 0 90 56 60
        E 0 90 62 60
        E 120 80 1f 00
        E 0 80 56 00
        E 0 80 62 00
        E 120 90 1a 60
        E 0 90 1f 60
        E 0 90 3d 60
        E 0 90 3e 60
        E 0 90 49 60
        E 0 90 4a 60
        E 0 90 55 60
        E 0 90 56 60
        E 0 90 61 60
        E 0 90 62 60
        E 120 80 1a 00
        E 0 80 1f 00
        E 0 80 3d 00
        E 0 80 3e 00
        E 0 80 49 00
        E 0 80 4a 00
        E 0 80 55 00
        E 0 80 56 00
        E 0 80 61 00
        E 0 80 62 00
        E 120 90 1f 60
        E 0 90 56 60
        E 0 90 62 60
        E 120 80 1f 00
        E 0 80 56 00
        E 0 80 62 00
        E 120 90 18 60
        E 0 90 1f 60
        E 0 90 3e 60
        E 0 90 48 60
        E 0 90 4a 60
        E 0 90 54 60
        E 0 90 56 60
        E 0 90 60 60
        E 0 90 62 60
        E 120 80 18 00
        E 0 80 1f 00
        E 0 80 3e 00
        E 0 80 48 00
        E 0 80 4a 00
        E 0 80 54 00
        E 0 80 56 00
        E 0 80 60 00
        E 0 80 62 00
        E 120 90 1f 60
        E 0 90 56 60
        E 0 90 62 60
        E 120 80 1f 00
        E 0 80 56 00
        E 0 80 62 00
        E 120 90 1a 60
        E 0 90 1f 60
        E 0 90 3d 60
        E 0 90 3e 60
        E 0 90 49 60
        E 0 90 4a 60
        E 0 90 55 60
        E 0 90 56 60
        E 0 90 61 60
        E 0 90 62 60
        E 120 80 1a 00
        E 0 80 1f 00
        E 0 80 3d 00
        E 0 80 3e 00
        E 0 80 49 00
        E 0 80 4a 00
        E 0 80 55 00
        E 0 80 56 00
        E 0 80 61 00
        E 0 80 62 00
        E 120 90 18 60
        E 0 90 1f 60
        E 0 90 54 60
        E 0 90 56 60
        E 0 90 60 60
        E 0 90 62 60
        E 120 80 18 00
        E 0 80 1f 00
        E 0 80 54 00
        E 0 80 56 00
        E 0 80 60 00
        E 0 80 62 00
        E 120 90 18 60
        E 0 90 1f 60
        E 0 90 3e 60
        E 0 90 48 60
        E 0 90 4a 60
        E 0 90 54 60
        E 0 90 56 60
        E 0 90 60 60
        E 0 90 62 60
        E 120 80 18 00
        E 0 80 1f 00
        E 0 80 3e 00
        E 0 80 48 00
        E 0 80 4a 00
        E 0 80 54 00
        E 0 80 56 00
        E 0 80 60 00
        E 0 80 62 00
        E 120 90 1f 60
        E 0 90 56 60
        E 0 90 62 60
        E 120 80 1f 00
        E 0 80 56 00
        E 0 80 62 00
        E 120 90 1a 60
        E 0 90 1f 60
        E 0 90 3d 60
        E 0 90 3e 60
        E 0 90 49 60
        E 0 90 4a 60
        E 0 90 55 60
        E 0 90 56 60
        E 0 90 61 60
        E 0 90 62 60
        E 120 80 1a 00
        E 0 80 1f 00
        E 0 80 3d 00
        E 0 80 3e 00
        E 0 80 49 00
        E 0 80 4a 00
        E 0 80 55 00
        E 0 80 56 00
        E 0 80 61 00
        E 0 80 62 00
        E 120 90 1f 60
        E 0 90 56 60
        E 0 90 62 60
        E 120 80 1f 00
        E 0 80 56 00
        E 0 80 62 00
        E 120 90 18 60
        E 0 90 1f 60
        E 0 90 3e 60
        E 0 90 48 60
        E 0 90 4a 60
        E 0 90 54 60
        E 0 90 56 60
        E 0 90 60 60
        E 0 90 62 60
        E 0 90 78 60
        E 0 90 79 60
        E 0 90 7a 60
        E 0 90 7b 60
        E 0 90 7c 60
        E 120 80 18 00
        E 0 80 1f 00
        E 0 80 3e 00
        E 0 80 48 00
        E 0 80 4a 00
        E 0 80 54 00
        E 0 80 56 00
        E 0 80 60 00
        E 0 80 62 00
        E 120 90 1f 60
        E 0 90 56 60
        E 0 90 62 60
        E 120 80 1f 00
        E 0 80 56 00
        E 0 80 62 00
        E 120 90 1a 60
        E 0 90 1f 60
        E 0 90 3d 60
        E 0 90 3e 60
        E 0 90 49 60
        E 0 90 4a 60
        E 0 90 55 60
        E 0 90 56 60
        E 0 90 61 60
        E 0 90 62 60
        E 120 80 1a 00
        E 0 80 1f 00
        E 0 80 3d 00
        E 0 80 3e 00
        E 0 80 49 00
        E 0 80 4a 00
        E 0 80 55 00
        E 0 80 56 00
        E 0 80 61 00
        E 0 80 62 00
        E 120 90 18 60
        E 0 90 1f 60
        E 0 90 54 60
        E 0 90 56 60
        E 0 90 60 60
        E 0 90 62 60
        E 120 80 18 00
        E 0 80 1f 00
        E 0 80 54 00
        E 0 80 56 00
        E 0 80 60 00
        E 0 80 62 00
        E 120 90 1b 60
        E 0 90 3d 60
        E 0 90 49 60
        E 0 90 55 60
        E 0 90 61 60
        E 120 80 1b 00
        E 0 80 3d 00
        E 0 80 49 00
        E 0 80 55 00
        E 0 80 61 00
        E 0 90 1a 60
        E 0 90 61 60
        E 120 80 1a 00
        E 0 80 61 00
        E 0 90 1b 60
        E 0 90 55 60
        E 0 90 61 60
        E 120 80 1b 00
        E 0 80 55 00
        E 0 80 61 00
        E 120 90 1a 60
        E 0 90 3d 60
        E 0 90 49 60
        E 0 90 55 60
        E 0 90 61 60
        E 120 80 1a 00
        E 0 80 3d 00
        E 0 80 49 00
        E 0 80 55 00
        E 0 80 61 00
        E 120 90 1a 60
        E 0 90 55 60
        E 0 90 61 60
        E 120 80 1a 00
        E 0 80 55 00
        E 0 80 61 00
        E 120 80 78 00
        E 0 80 79 00
        E 0 80 7a 00
        E 0 80 7b 00
        E 0 80 7c 00
        E 0 90 18 60
        E 0 90 1f 60
        E 0 90 3e 60
        E 0 90 48 60
        E 0 90 4a 60
        E 0 90 54 60
        E 0 90 56 60
        E 0 90 60 60
        E 0 90 62 60
        E 0 90 74 60
        E 120 80 18 00
        E 0 80 1f 00
        E 0 80 3e 00
        E 0 80 48 00
        E 0 80 4a 00
        E 0 80 54 00
        E 0 80 56 00
        E 0 80 60 00
        E 0 80 62 00
        E 120 90 1f 60
        E 0 90 56 60
        E 0 90 62 60
        E 120 80 1f 00
        E 0 80 56 00
        E 0 80 62 00
        E 120 90 1a 60
        E 0 90 1f 60
        E 0 90 3d 60
        E 0 90 3e 60
        E 0 90 49 60
        E 0 90 4a 60
        E 0 90 55 60
        E 0 90 56 60
        E 0 90 61 60
        E 0 90 62 60
        E 120 80 1a 00
        E 0 80 1f 00
        E 0 80 3d 00
        E 0 80 3e 00
        E 0 80 49 00
        E 0 80 4a 00
        E 0 80 55 00
        E 0 80 56 00
        E 0 80 61 00
        E 0 80 62 00
        E 120 90 18 60
        E 0 90 1f 60
        E 0 90 54 60
        E 0 90 56 60
        E 0 90 60 60
        E 0 90 62 60
        E 120 80 18 00
        E 0 80 1f 00
        E 0 80 54 00
        E 0 80 56 00
        E 0 80 60 00
        E 0 80 62 00
        E 360 90 1a 60
        E 0 90 1f 60
        E 0 90 55 60
        E 0 90 56 60
        E 0 90 61 60
        E 0 90 62 60
        E 120 80 1a 00
        E 0 80 1f 00
        E 0 80 55 00
        E 0 80 56 00
        E 0 80 61 00
        E 0 80 62 00
        E 120 90 1a 60
        E 0 90 1f 60
        E 0 90 3d 60
        E 0 90 3e 60
        E 0 90 49 60
        E 0 90 4a 60
        E 0 90 55 60
        E 0 90 56 60
        E 0 90 61 60
        E 0 90 62 60
        E 120 80 1a 00
        E 0 80 1f 00
        E 0 80 3d 00
        E 0 80 3e 00
        E 0 80 49 00
        E 0 80 4a 00
        E 0 80 55 00
        E 0 80 56 00
        E 0 80 61 00
        E 0 80 62 00
        E 360 90 18 60
        E 0 90 1f 60
        E 0 90 3e 60
        E 0 90 48 60
        E 0 90 4a 60
        E 0 90 54 60
        E 0 90 56 60
        E 0 90 60 60
        E 0 90 62 60
        E 120 80 18 00
        E 0 80 1f 00
        E 0 80 3e 00
        E 0 80 48 00
        E 0 80 4a 00
        E 0 80 54 00
        E 0 80 56 00
        E 0 80 60 00
        E 0 80 62 00
        E 120 90 1f 60
        E 0 90 56 60
        E 0 90 62 60
        E 120 80 1f 00
        E 0 80 56 00
        E 0 80 62 00
        E 120 90 1a 60
        E 0 90 1f 60
        E 0 90 3d 60
        E 0 90 3e 60
        E 0 90 49 60
        E 0 90 4a 60
        E 0 90 55 60
        E 0 90 56 60
        E 0 90 61 60
        E 0 90 62 60
        E 120 80 1a 00
        E 0 80 1f 00
        E 0 80 3d 00
        E 0 80 3e 00
        E 0 80 49 00
        E 0 80 4a 00
        E 0 80 55 00
        E 0 80 56 00
        E 0 80 61 00
        E 0 80 62 00
        E 120 90 18 60
        E 0 90 1f 60
        E 0 90 54 60
        E 0 90 56 60
        E 0 90 60 60
        E 0 90 62 60
        E 120 80 18 00
        E 0 80 1f 00
        E 0 80 54 00
        E 0 80 56 00
        E 0 80 60 00
        E 0 80 62 00
        E 360 90 1a 60
        E 0 90 1f 60
        E 0 90 55 60
        E 0 90 56 60
        E 0 90 61 60
        E 0 90 62 60
        E 120 80 1a 00
        E 0 80 1f 00
        E 0 80 55 00
        E 0 80 56 00
        E 0 80 61 00
        E 0 80 62 00
        E 120 90 1a 60
        E 0 90 1f 60
        E 0 90 3d 60
        E 0 90 3e 60
        E 0 90 49 60
        E 0 90 4a 60
        E 0 90 55 60
        E 0 90 56 60
        E 0 90 61 60
        E 0 90 62 60
        E 120 80 1a 00
        E 0 80 1f 00
        E 0 80 3d 00
        E 0 80 3e 00
        E 0 80 49 00
        E 0 80 4a 00
        E 0 80 55 00
        E 0 80 56 00
        E 0 80 61 00
        E 0 80 62 00
        E 360 90 18 60
        E 0 90 1f 60
        E 0 90 3e 60
        E 0 90 48 60
        E 0 90 4a 60
        E 0 90 54 60
        E 0 90 56 60
        E 0 90 60 60
        E 0 90 62 60
        E 120 80 74 00
        E 0 80 18 00
        E 0 80 1f 00
        E 0 80 3e 00
        E 0 80 48 00
        E 0 80 4a 00
        E 0 80 54 00
        E 0 80 56 00
        E 0 80 60 00
        E 0 80 62 00
        E 120 90 1f 60
        E 0 90 56 60
        E 0 90 62 60
        E 120 80 1f 00
        E 0 80 56 00
        E 0 80 62 00
        E 120 90 1a 60
        E 0 90 1f 60
        E 0 90 3d 60
        E 0 90 3e 60
        E 0 90 49 60
        E 0 90 4a 60
        E 0 90 55 60
        E 0 90 56 60
        E 0 90 61 60
        E 0 90 62 60
        E 120 80 1a 00
        E 0 80 1f 00
        E 0 80 3d 00
        E 0 80 3e 00
        E 0 80 49 00
        E 0 80 4a 00
        E 0 80 55 00
        E 0 80 56 00
        E 0 80 61 00
        E 0 80 62 00
        E 120 90 18 60
        E 0 90 1f 60
        E 0 90 54 60
        E 0 90 56 60
        E 0 90 60 60
        E 0 90 62 60
        E 120 80 18 00
        E 0 80 1f 00
        E 0 80 54 00
        E 0 80 56 00
        E 0 80 60 00
        E 0 80 62 00
        E 120 90 18 60
        E 0 90 1f 60
        E 0 90 3e 60
        E 0 90 48 60
        E 0 90 4a 60
        E 0 90 54 60
        E 0 90 56 60
        E 0 90 60 60
        E 0 90 62 60
        E 120 80 18 00
        E 0 80 1f 00
        E 0 80 3e 00
        E 0 80 48 00
        E 0 80 4a 00
        E 0 80 54 00
        E 0 80 56 00
        E 0 80 60 00
        E 0 80 62 00
        E 120 90 1f 60
        E 0 90 56 60
        E 0 90 62 60
        E 120 80 1f 00
        E 0 80 56 00
        E 0 80 62 00
        E 120 90 1a 60
        E 0 90 1f 60
        E 0 90 3d 60
        E 0 90 3e 60
        E 0 90 49 60
        E 0 90 4a 60
        E 0 90 55 60
        E 0 90 56 60
        E 0 90 61 60
        E 0 90 62 60
        E 120 80 1a 00
        E 0 80 1f 00
        E 0 80 3d 00
        E 0 80 3e 00
        E 0 80 49 00
        E 0 80 4a 00
        E 0 80 55 00
        E 0 80 56 00
        E 0 80 61 00
        E 0 80 62 00
        E 120 90 1f 60
        E 0 90 56 60
        E 0 90 62 60
        E 120 80 1f 00
        E 0 80 56 00
        E 0 80 62 00
        E 120 90 18 60
        E 0 90 1f 60
        E 0 90 3e 60
        E 0 90 48 60
        E 0 90 4a 60
        E 0 90 54 60
        E 0 90 56 60
        E 0 90 60 60
        E 0 90 62 60
        E 0 90 78 60
        E 0 90 79 60
        E 0 90 7a 60
        E 0 90 7b 60
        E 0 90 7c 60
        E 120 80 18 00
        E 0 80 1f 00
        E 0 80 3e 00
        E 0 80 48 00
        E 0 80 4a 00
        E 0 80 54 00
        E 0 80 56 00
        E 0 80 60 00
        E 0 80 62 00
        E 120 90 1f 60
        E 0 90 56 60
        E 0 90 62 60
        E 120 80 1f 00
        E 0 80 56 00
        E 0 80 62 00
        E 120 90 1a 60
        E 0 90 1f 60
        E 0 90 3d 60
        E 0 90 3e 60
        E 0 90 49 60
        E 0 90 4a 60
        E 0 90 55 60
        E 0 90 56 60
        E 0 90 61 60
        E 0 90 62 60
        E 120 80 1a 00
        E 0 80 1f 00
        E 0 80 3d 00
        E 0 80 3e 00
        E 0 80 49 00
        E 0 80 4a 00
        E 0 80 55 00
        E 0 80 56 00
        E 0 80 61 00
        E 0 80 62 00
        E 120 90 18 60
        E 0 90 1f 60
        E 0 90 54 60
        E 0 90 56 60
        E 0 90 60 60
        E 0 90 62 60
        E 120 80 18 00
        E 0 80 1f 00
        E 0 80 54 00
        E 0 80 56 00
        E 0 80 60 00
        E 0 80 62 00
        E 120 90 18 60
        E 0 90 1f 60
        E 0 90 3e 60
        E 0 90 48 60
        E 0 90 4a 60
        E 0 90 54 60
        E 0 90 56 60
        E 0 90 60 60
        E 0 90 62 60
        E 120 80 18 00
        E 0 80 1f 00
        E 0 80 3e 00
        E 0 80 48 00
        E 0 80 4a 00
        E 0 80 54 00
        E 0 80 56 00
        E 0 80 60 00
        E 0 80 62 00
        E 120 90 1a 60
        E 0 90 55 60
        E 0 90 61 60
        E 120 80 1a 00
        E 0 80 55 00
        E 0 80 61 00
        E 120 90 1a 60
        E 0 90 3d 60
        E 0 90 49 60
        E 0 90 55 60
        E 0 90 61 60
        E 120 80 1a 00
        E 0 80 3d 00
        E 0 80 49 00
        E 0 80 55 00
        E 0 80 61 00
        E 120 90 1f 60
        E 0 90 56 60
        E 0 90 62 60
        E 120 80 1f 00
        E 0 80 56 00
        E 0 80 62 00
        E 120 80 78 00
        E 0 80 79 00
        E 0 80 7a 00
        E 0 80 7b 00
        E 0 80 7c 00
        E 0 90 18 60
        E 0 90 1f 60
        E 0 90 3e 60
        E 0 90 48 60
        E 0 90 4a 60
        E 0 90 54 60
        E 0 90 56 60
        E 0 90 60 60
        E 0 90 62 60
        E 120 80 18 00
        E 0 80 1f 00
        E 0 80 3e 00
        E 0 80 48 00
        E 0 80 4a 00
        E 0 80 54 00
        E 0 80 56 00
        E 0 80 60 00
        E 0 80 62 00
        E 120 90 1f 60
        E 0 90 56 60
        E 0 90 62 60
        E 120 80 1f 00
        E 0 80 56 00
        E 0 80 62 00
        E 120 90 1a 60
        E 0 90 1f 60
        E 0 90 3d 60
        E 0 90 3e 60
        E 0 90 49 60
        E 0 90 4a 60
        E 0 90 55 60
        E 0 90 56 60
        E 0 90 61 60
        E 0 90 62 60
        E 120 80 1a 00
        E 0 80 1f 00
        E 0 80 3d 00
        E 0 80 3e 00
        E 0 80 49 00
        E 0 80 4a 00
        E 0 80 55 00
        E 0 80 56 00
        E 0 80 61 00
        E 0 80 62 00
        E 120 90 18 60
        E 0 90 1f 60
        E 0 90 54 60
        E 0 90 56 60
        E 0 90 60 60
        E 0 90 62 60
        E 120 80 18 00
        E 0 80 1f 00
        E 0 80 54 00
        E 0 80 56 00
        E 0 80 60 00
        E 0 80 62 00
        E 120 90 18 60
        E 0 90 1f 60
        E 0 90 3e 60
        E 0 90 48 60
        E 0 90 4a 60
        E 0 90 54 60
        E 0 90 56 60
        E 0 90 60 60
        E 0 90 62 60
        E 120 80 18 00
        E 0 80 1f 00
        E 0 80 3e 00
        E 0 80 48 00
        E 0 80 4a 00
        E 0 80 54 00
        E 0 80 56 00
        E 0 80 60 00
        E 0 80 62 00
        E 120 90 1f 60
        E 0 90 56 60
        E 0 90 62 60
        E 120 80 1f 00
        E 0 80 56 00
        E 0 80 62 00
        E 120 90 1a 60
        E 0 90 1f 60
        E 0 90 3d 60
        E 0 90 3e 60
        E 0 90 49 60
        E 0 90 4a 60
        E 0 90 55 60
        E 0 90 56 60
        E 0 90 61 60
        E 0 90 62 60
        E 120 80 1a 00
        E 0 80 1f 00
        E 0 80 3d 00
        E 0 80 3e 00
        E 0 80 49 00
        E 0 80 4a 00
        E 0 80 55 00
        E 0 80 56 00
        E 0 80 61 00
        E 0 80 62 00
        E 120 90 1f 60
        E 0 90 56 60
        E 0 90 62 60
        E 120 80 1f 00
        E 0 80 56 00
        E 0 80 62 00
        E 120 90 18 60
        E 0 90 1f 60
        E 0 90 3e 60
        E 0 90 48 60
        E 0 90 4a 60
        E 0 90 54 60
        E 0 90 56 60
        E 0 90 60 60
        E 0 90 62 60
        E 120 80 18 00
        E 0 80 1f 00
        E 0 80 3e 00
        E 0 80 48 00
        E 0 80 4a 00
        E 0 80 54 00
        E 0 80 56 00
        E 0 80 60 00
        E 0 80 62 00
        E 120 90 1f 60
        E 0 90 56 60
        E 0 90 62 60
        E 120 80 1f 00
        E 0 80 56 00
        E 0 80 62 00
        E 120 90 1a 60
        E 0 90 1f 60
        E 0 90 3d 60
        E 0 90 3e 60
        E 0 90 49 60
        E 0 90 4a 60
        E 0 90 55 60
        E 0 90 56 60
        E 0 90 61 60
        E 0 90 62 60
        E 120 80 1a 00
        E 0 80 1f 00
        E 0 80 3d 00
        E 0 80 3e 00
        E 0 80 49 00
        E 0 80 4a 00
        E 0 80 55 00
        E 0 80 56 00
        E 0 80 61 00
        E 0 80 62 00
        E 120 90 18 60
        E 0 90 1f 60
        E 0 90 54 60
        E 0 90 56 60
        E 0 90 60 60
        E 0 90 62 60
        E 120 80 18 00
        E 0 80 1f 00
        E 0 80 54 00
        E 0 80 56 00
        E 0 80 60 00
        E 0 80 62 00
        E 120 90 18 60
        E 0 90 1f 60
        E 0 90 3e 60
        E 0 90 48 60
        E 0 90 4a 60
        E 0 90 54 60
        E 0 90 56 60
        E 0 90 60 60
        E 0 90 62 60
        E 120 80 18 00
        E 0 80 1f 00
        E 0 80 3e 00
        E 0 80 48 00
        E 0 80 4a 00
        E 0 80 54 00
        E 0 80 56 00
        E 0 80 60 00
        E 0 80 62 00
        E 120 90 1f 60
        E 0 90 56 60
        E 0 90 62 60
        E 120 80 1f 00
        E 0 80 56 00
        E 0 80 62 00
        E 120 90 1a 60
        E 0 90 1f 60
        E 0 90 3d 60
        E 0 90 3e 60
        E 0 90 49 60
        E 0 90 4a 60
        E 0 90 55 60
        E 0 90 56 60
        E 0 90 61 60
        E 0 90 62 60
        E 120 80 1a 00
        E 0 80 1f 00
        E 0 80 3d 00
        E 0 80 3e 00
        E 0 80 49 00
        E 0 80 4a 00
        E 0 80 55 00
        E 0 80 56 00
        E 0 80 61 00
        E 0 80 62 00
        E 120 90 1f 60
        E 0 90 56 60
        E 0 90 62 60
        E 120 80 1f 00
        E 0 80 56 00
        E 0 80 62 00
        E 120 90 18 60
        E 0 90 1f 60
        E 0 90 3e 60
        E 0 90 48 60
        E 0 90 4a 60
        E 0 90 54 60
        E 0 90 56 60
        E 0 90 60 60
        E 0 90 62 60
        E 120 80 18 00
        E 0 80 1f 00
        E 0 80 3e 00
        E 0 80 48 00
        E 0 80 4a 00
        E 0 80 54 00
        E 0 80 56 00
        E 0 80 60 00
        E 0 80 62 00
        E 120 90 1f 60
        E 0 90 56 60
        E 0 90 62 60
        E 120 80 1f 00
        E 0 80 56 00
        E 0 80 62 00
        E 120 90 1a 60
        E 0 90 1f 60
        E 0 90 3d 60
        E 0 90 3e 60
        E 0 90 49 60
        E 0 90 4a 60
        E 0 90 55 60
        E 0 90 56 60
        E 0 90 61 60
        E 0 90 62 60
        E 120 80 1a 00
        E 0 80 1f 00
        E 0 80 3d 00
        E 0 80 3e 00
        E 0 80 49 00
        E 0 80 4a 00
        E 0 80 55 00
        E 0 80 56 00
        E 0 80 61 00
        E 0 80 62 00
        E 120 90 18 60
        E 0 90 1f 60
        E 0 90 54 60
        E 0 90 56 60
        E 0 90 60 60
        E 0 90 62 60
        E 120 80 18 00
        E 0 80 1f 00
        E 0 80 54 00
        E 0 80 56 00
        E 0 80 60 00
        E 0 80 62 00
        E 120 90 18 60
        E 0 90 1f 60
        E 0 90 3e 60
        E 0 90 48 60
        E 0 90 4a 60
        E 0 90 54 60
        E 0 90 56 60
        E 0 90 60 60
        E 0 90 62 60
        E 120 80 18 00
        E 0 80 1f 00
        E 0 80 3e 00
        E 0 80 48 00
        E 0 80 4a 00
        E 0 80 54 00
        E 0 80 56 00
        E 0 80 60 00
        E 0 80 62 00
        E 120 90 1f 60
        E 0 90 56 60
        E 0 90 62 60
        E 120 80 1f 00
        E 0 80 56 00
        E 0 80 62 00
        E 120 90 1a 60
        E 0 90 1f 60
        E 0 90 3d 60
        E 0 90 3e 60
        E 0 90 49 60
        E 0 90 4a 60
        E 0 90 55 60
        E 0 90 56 60
        E 0 90 61 60
        E 0 90 62 60
        E 120 80 1a 00
        E 0 80 1f 00
        E 0 80 3d 00
        E 0 80 3e 00
        E 0 80 49 00
        E 0 80 4a 00
        E 0 80 55 00
        E 0 80 56 00
        E 0 80 61 00
        E 0 80 62 00
        E 120 90 1f 60
        E 0 90 56 60
        E 0 90 62 60
        E 120 80 1f 00
        E 0 80 56 00
        E 0 80 62 00
        E 120 90 18 60
        E 0 90 1f 60
        E 0 90 3e 60
        E 0 90 48 60
        E 0 90 4a 60
        E 0 90 54 60
        E 0 90 56 60
        E 0 90 60 60
        E 0 90 62 60
        E 120 80 18 00
        E 0 80 1f 00
        E 0 80 3e 00
        E 0 80 48 00
        E 0 80 4a 00
        E 0 80 54 00
        E 0 80 56 00
        E 0 80 60 00
        E 0 80 62 00
        E 120 90 1f 60
        E 0 90 56 60
        E 0 90 62 60
        E 120 80 1f 00
        E 0 80 56 00
        E 0 80 62 00
        E 120 90 1a 60
        E 0 90 1f 60
        E 0 90 3d 60
        E 0 90 3e 60
        E 0 90 49 60
        E 0 90 4a 60
        E 0 90 55 60
        E 0 90 56 60
        E 0 90 61 60
        E 0 90 62 60
        E 120 80 1a 00
        E 0 80 1f 00
        E 0 80 3d 00
        E 0 80 3e 00
        E 0 80 49 00
        E 0 80 4a 00
        E 0 80 55 00
        E 0 80 56 00
        E 0 80 61 00
        E 0 80 62 00
        E 120 90 18 60
        E 0 90 1f 60
        E 0 90 54 60
        E 0 90 56 60
        E 0 90 60 60
        E 0 90 62 60
        E 120 80 18 00
        E 0 80 1f 00
        E 0 80 54 00
        E 0 80 56 00
        E 0 80 60 00
        E 0 80 62 00
        E 120 90 18 60
        E 0 90 1f 60
        E 0 90 3e 60
        E 0 90 48 60
        E 0 90 4a 60
        E 0 90 54 60
        E 0 90 56 60
        E 0 90 60 60
        E 0 90 62 60
        E 120 80 18 00
        E 0 80 1f 00
        E 0 80 3e 00
        E 0 80 48 00
        E 0 80 4a 00
        E 0 80 54 00
        E 0 80 56 00
        E 0 80 60 00
        E 0 80 62 00
        E 120 90 1f 60
        E 0 90 56 60
        E 0 90 62 60
        E 120 80 1f 00
        E 0 80 56 00
        E 0 80 62 00
        E 120 90 1a 60
        E 0 90 1f 60
        E 0 90 3d 60
        E 0 90 3e 60
        E 0 90 49 60
        E 0 90 4a 60
        E 0 90 55 60
        E 0 90 56 60
        E 0 90 61 60
        E 0 90 62 60
        E 120 80 1a 00
        E 0 80 1f 00
        E 0 80 3d 00
        E 0 80 3e 00
        E 0 80 49 00
        E 0 80 4a 00
        E 0 80 55 00
        E 0 80 56 00
        E 0 80 61 00
        E 0 80 62 00
        E 120 90 1f 60
        E 0 90 56 60
        E 0 90 62 60
        E 120 80 1f 00
        E 0 80 56 00
        E 0 80 62 00
        E 120 90 18 60
        E 0 90 1f 60
        E 0 90 3e 60
        E 0 90 48 60
        E 0 90 4a 60
        E 0 90 54 60
        E 0 90 56 60
        E 0 90 60 60
        E 0 90 62 60
        E 0 90 78 60
        E 0 90 79 60
        E 0 90 7a 60
        E 0 90 7b 60
        E 0 90 7c 60
        E 120 80 18 00
        E 0 80 1f 00
        E 0 80 3e 00
        E 0 80 48 00
        E 0 80 4a 00
        E 0 80 54 00
        E 0 80 56 00
        E 0 80 60 00
        E 0 80 62 00
        E 120 90 1f 60
        E 0 90 56 60
        E 0 90 62 60
        E 120 80 1f 00
        E 0 80 56 00
        E 0 80 62 00
        E 120 90 1a 60
        E 0 90 1f 60
        E 0 90 3d 60
        E 0 90 3e 60
        E 0 90 49 60
        E 0 90 4a 60
        E 0 90 55 60
        E 0 90 56 60
        E 0 90 61 60
        E 0 90 62 60
        E 120 80 1a 00
        E 0 80 1f 00
        E 0 80 3d 00
        E 0 80 3e 00
        E 0 80 49 00
        E 0 80 4a 00
        E 0 80 55 00
        E 0 80 56 00
        E 0 80 61 00
        E 0 80 62 00
        E 120 90 18 60
        E 0 90 1f 60
        E 0 90 54 60
        E 0 90 56 60
        E 0 90 60 60
        E 0 90 62 60
        E 120 80 18 00
        E 0 80 1f 00
        E 0 80 54 00
        E 0 80 56 00
        E 0 80 60 00
        E 0 80 62 00
        E 120 90 18 60
        E 0 90 1f 60
        E 0 90 3e 60
        E 0 90 48 60
        E 0 90 4a 60
        E 0 90 54 60
        E 0 90 56 60
        E 0 90 60 60
        E 0 90 62 60
        E 120 80 18 00
        E 0 80 1f 00
        E 0 80 3e 00
        E 0 80 48 00
        E 0 80 4a 00
        E 0 80 54 00
        E 0 80 56 00
        E 0 80 60 00
        E 0 80 62 00
        E 120 90 1f 60
        E 0 90 56 60
        E 0 90 62 60
        E 120 80 1f 00
        E 0 80 56 00
        E 0 80 62 00
        E 120 90 1b 60
        E 0 90 3d 60
        E 0 90 49 60
        E 0 90 55 60
        E 0 90 61 60
        E 120 80 1b 00
        E 0 80 3d 00
        E 0 80 49 00
        E 0 80 55 00
        E 0 80 61 00
        E 0 90 1a 60
        E 0 90 61 60
        E 120 80 1a 00
        E 0 80 61 00
        E 0 90 1b 60
        E 0 90 55 60
        E 0 90 61 60
        E 120 80 1b 00
        E 0 80 55 00
        E 0 80 61 00
        E 120 80 78 00
        E 0 80 79 00
        E 0 80 7a 00
        E 0 80 7b 00
        E 0 80 7c 00
        E 0 90 18 60
        E 0 90 1f 60
        E 0 90 3e 60
        E 0 90 48 60
        E 0 90 4a 60
        E 0 90 54 60
        E 0 90 56 60
        E 0 90 60 60
        E 0 90 62 60
        E 120 80 18 00
        E 0 80 1f 00
        E 0 80 3e 00
        E 0 80 48 00
        E 0 80 4a 00
        E 0 80 54 00
        E 0 80 56 00
        E 0 80 60 00
        E 0 80 62 00
        E 120 90 1f 60
        E 0 90 56 60
        E 0 90 62 60
        E 120 80 1f 00
        E 0 80 56 00
        E 0 80 62 00
        E 120 90 1f 60
        E 0 90 3e 60
        E 0 90 4a 60
        E 0 90 56 60
        E 0 90 62 60
        E 120 80 1f 00
        E 0 80 3e 00
        E 0 80 4a 00
        E 0 80 56 00
        E 0 80 62 00
        E 120 90 18 60
        E 0 90 1f 60
        E 0 90 54 60
        E 0 90 56 60
        E 0 90 60 60
        E 0 90 62 60
        E 120 80 18 00
        E 0 80 1f 00
        E 0 80 54 00
        E 0 80 56 00
        E 0 80 60 00
        E 0 80 62 00
        E 360 90 1f 60
        E 0 90 3e 60
        E 0 90 4a 60
        E 0 90 56 60
        E 0 90 62 60
        E 120 80 1f 00
        E 0 80 3e 00
        E 0 80 4a 00
        E 0 80 56 00
        E 0 80 62 00
        E 360 90 1f 60
        E 0 90 56 60
        E 0 90 62 60
        E 120 80 1f 00
        E 0 80 56 00
        E 0 80 62 00
        E 120 90 18 60
        E 0 90 1f 60
        E 0 90 3e 60
        E 0 90 48 60
        E 0 90 4a 60
        E 0 90 54 60
        E 0 90 56 60
        E 0 90 60 60
        E 0 90 62 60
        E 120 80 18 00
        E 0 80 1f 00
        E 0 80 3e 00
        E 0 80 48 00
        E 0 80 4a 00
        E 0 80 54 00
        E 0 80 56 00
        E 0 80 60 00
        E 0 80 62 00
        E 120 90 1f 60
        E 0 90 56 60
        E 0 90 62 60
        E 120 80 1f 00
        E 0 80 56 00
        E 0 80 62 00
        E 120 90 1f 60
        E 0 90 3e 60
        E 0 90 4a 60
        E 0 90 56 60
        E 0 90 62 60
        E 120 80 1f 00
        E 0 80 3e 00
        E 0 80 4a 00
        E 0 80 56 00
        E 0 80 62 00
        E 120 90 18 60
        E 0 90 1f 60
        E 0 90 54 60
        E 0 90 56 60
        E 0 90 60 60
        E 0 90 62 60
        E 120 80 18 00
        E 0 80 1f 00
        E 0 80 54 00
        E 0 80 56 00
        E 0 80 60 00
        E 0 80 62 00
        E 360 90 1f 60
        E 0 90 3e 60
        E 0 90 4a 60
        E 0 90 56 60
        E 0 90 62 60
        E 120 80 1f 00
        E 0 80 3e 00
        E 0 80 4a 00
        E 0 80 56 00
        E 0 80 62 00
        E 360 90 1f 60
        E 0 90 56 60
        E 0 90 62 60
        E 120 80 1f 00
        E 0 80 56 00
        E 0 80 62 00
        E 120 90 18 60
        E 0 90 1f 60
        E 0 90 3e 60
        E 0 90 48 60
        E 0 90 4a 60
        E 0 90 54 60
        E 0 90 56 60
        E 0 90 60 60
        E 0 90 62 60
        E 120 80 18 00
        E 0 80 1f 00
        E 0 80 3e 00
        E 0 80 48 00
        E 0 80 4a 00
        E 0 80 54 00
        E 0 80 56 00
        E 0 80 60 00
        E 0 80 62 00
        E 120 90 1f 60
        E 0 90 56 60
        E 0 90 62 60
        E 120 80 1f 00
        E 0 80 56 00
        E 0 80 62 00
        E 120 90 1f 60
        E 0 90 3e 60
        E 0 90 4a 60
        E 0 90 56 60
        E 0 90 62 60
        E 120 80 1f 00
        E 0 80 3e 00
        E 0 80 4a 00
        E 0 80 56 00
        E 0 80 62 00
        E 120 90 18 60
        E 0 90 1f 60
        E 0 90 54 60
        E 0 90 56 60
        E 0 90 60 60
        E 0 90 62 60
        E 120 80 18 00
        E 0 80 1f 00
        E 0 80 54 00
        E 0 80 56 00
        E 0 80 60 00
        E 0 80 62 00
        E 360 90 1f 60
        E 0 90 3e 60
        E 0 90 4a 60
        E 0 90 56 60
        E 0 90 62 60
        E 120 80 1f 00
        E 0 80 3e 00
        E 0 80 4a 00
        E 0 80 56 00
        E 0 80 62 00
        E 360 90 1f 60
        E 0 90 56 60
        E 0 90 62 60
        E 120 80 1f 00
        E 0 80 56 00
        E 0 80 62 00
        E 120 90 18 60
        E 0 90 1f 60
        E 0 90 3e 60
        E 0 90 48 60
        E 0 90 4a 60
        E 0 90 54 60
        E 0 90 56 60
        E 0 90 60 60
        E 0 90 62 60
        E 120 80 18 00
        E 0 80 1f 00
        E 0 80 3e 00
        E 0 80 48 00
        E 0 80 4a 00
        E 0 80 54 00
        E 0 80 56 00
        E 0 80 60 00
        E 0 80 62 00
        E 120 90 1f 60
        E 0 90 56 60
        E 0 90 62 60
        E 120 80 1f 00
        E 0 80 56 00
        E 0 80 62 00
        E 120 90 1f 60
        E 0 90 3e 60
        E 0 90 4a 60
        E 0 90 56 60
        E 0 90 62 60
        E 120 80 1f 00
        E 0 80 3e 00
        E 0 80 4a 00
        E 0 80 56 00
        E 0 80 62 00
        E 120 90 18 60
        E 0 90 1f 60
        E 0 90 54 60
        E 0 90 56 60
        E 0 90 60 60
        E 0 90 62 60
        E 120 80 18 00
        E 0 80 1f 00
        E 0 80 54 00
        E 0 80 56 00
        E 0 80 60 00
        E 0 80 62 00
        E 360 90 1f 60
        E 0 90 3e 60
        E 0 90 4a 60
        E 0 90 56 60
        E 0 90 62 60
        E 120 80 1f 00
        E 0 80 3e 00
        E 0 80 4a 00
        E 0 80 56 00
        E 0 80 62 00
        E 360 90 1f 60
        E 0 90 56 60
        E 0 90 62 60
        E 120 80 1f 00
        E 0 80 56 00
        E 0 80 62 00
        E 120 90 18 60
        E 0 90 1f 60
        E 0 90 3e 60
        E 0 90 48 60
        E 0 90 4a 60
        E 0 90 54 60
        E 0 90 56 60
        E 0 90 60 60
        E 0 90 62 60
        E 120 80 18 00
        E 0 80 1f 00
        E 0 80 3e 00
        E 0 80 48 00
        E 0 80 4a 00
        E 0 80 54 00
        E 0 80 56 00
        E 0 80 60 00
        E 0 80 62 00
        E 120 90 1f 60
        E 0 90 56 60
        E 0 90 62 60
        E 120 80 1f 00
        E 0 80 56 00
        E 0 80 62 00
        E 120 90 1f 60
        E 0 90 3e 60
        E 0 90 4a 60
        E 0 90 56 60
        E 0 90 62 60
        E 120 80 1f 00
        E 0 80 3e 00
        E 0 80 4a 00
        E 0 80 56 00
        E 0 80 62 00
        E 120 90 18 60
        E 0 90 1f 60
        E 0 90 54 60
        E 0 90 56 60
        E 0 90 60 60
        E 0 90 62 60
        E 120 80 18 00
        E 0 80 1f 00
        E 0 80 54 00
        E 0 80 56 00
        E 0 80 60 00
        E 0 80 62 00
        E 360 90 1f 60
        E 0 90 3e 60
        E 0 90 4a 60
        E 0 90 56 60
        E 0 90 62 60
        E 120 80 1f 00
        E 0 80 3e 00
        E 0 80 4a 00
        E 0 80 56 00
        E 0 80 62 00
        E 360 90 1f 60
        E 0 90 56 60
        E 0 90 62 60
        E 120 80 1f 00
        E 0 80 56 00
        E 0 80 62 00
        E 120 90 18 60
        E 0 90 1f 60
        E 0 90 3e 60
        E 0 90 48 60
        E 0 90 4a 60
        E 0 90 54 60
        E 0 90 56 60
        E 0 90 60 60
        E 0 90 62 60
        E 120 80 18 00
        E 0 80 1f 00
        E 0 80 3e 00
        E 0 80 48 00
        E 0 80 4a 00
        E 0 80 54 00
        E 0 80 56 00
        E 0 80 60 00
        E 0 80 62 00
        E 120 90 1f 60
        E 0 90 56 60
        E 0 90 62 60
        E 120 80 1f 00
        E 0 80 56 00
        E 0 80 62 00
        E 120 90 1f 60
        E 0 90 3e 60
        E 0 90 4a 60
        E 0 90 56 60
        E 0 90 62 60
        E 120 80 1f 00
        E 0 80 3e 00
        E 0 80 4a 00
        E 0 80 56 00
        E 0 80 62 00
        E 120 90 18 60
        E 0 90 1f 60
        E 0 90 54 60
        E 0 90 56 60
        E 0 90 60 60
        E 0 90 62 60
        E 120 80 18 00
        E 0 80 1f 00
        E 0 80 54 00
        E 0 80 56 00
        E 0 80 60 00
        E 0 80 62 00
        E 360 90 1f 60
        E 0 90 3e 60
        E 0 90 4a 60
        E 0 90 56 60
        E 0 90 62 60
        E 120 80 1f 00
        E 0 80 3e 00
        E 0 80 4a 00
        E 0 80 56 00
        E 0 80 62 00
        E 360 90 1f 60
        E 0 90 56 60
        E 0 90 62 60
        E 120 80 1f 00
        E 0 80 56 00
        E 0 80 62 00
        E 120 90 18 60
        E 0 90 1f 60
        E 0 90 3e 60
        E 0 90 48 60
        E 0 90 4a 60
        E 0 90 54 60
        E 0 90 56 60
        E 0 90 60 60
        E 0 90 62 60
        E 120 80 18 00
        E 0 80 1f 00
        E 0 80 3e 00
        E 0 80 48 00
        E 0 80 4a 00
        E 0 80 54 00
        E 0 80 56 00
        E 0 80 60 00
        E 0 80 62 00
        E 120 90 1f 60
        E 0 90 56 60
        E 0 90 62 60
        E 120 80 1f 00
        E 0 80 56 00
        E 0 80 62 00
        E 120 90 1f 60
        E 0 90 3e 60
        E 0 90 4a 60
        E 0 90 56 60
        E 0 90 62 60
        E 120 80 1f 00
        E 0 80 3e 00
        E 0 80 4a 00
        E 0 80 56 00
        E 0 80 62 00
        E 120 90 18 60
        E 0 90 1f 60
        E 0 90 54 60
        E 0 90 56 60
        E 0 90 60 60
        E 0 90 62 60
        E 120 80 18 00
        E 0 80 1f 00
        E 0 80 54 00
        E 0 80 56 00
        E 0 80 60 00
        E 0 80 62 00
        E 360 90 18 60
        E 0 90 1f 60
        E 0 90 3e 60
        E 0 90 48 60
        E 0 90 4a 60
        E 0 90 54 60
        E 0 90 56 60
        E 0 90 60 60
        E 0 90 62 60
        E 120 80 18 00
        E 0 80 1f 00
        E 0 80 3e 00
        E 0 80 48 00
        E 0 80 4a 00
        E 0 80 54 00
        E 0 80 56 00
        E 0 80 60 00
        E 0 80 62 00
        E 360 90 18 60
        E 0 90 1f 60
        E 0 90 3e 60
        E 0 90 48 60
        E 0 90 4a 60
        E 0 90 54 60
        E 0 90 56 60
        E 0 90 60 60
        E 0 90 62 60
        E 120 80 18 00
        E 0 80 1f 00
        E 0 80 3e 00
        E 0 80 48 00
        E 0 80 4a 00
        E 0 80 54 00
        E 0 80 56 00
        E 0 80 60 00
        E 0 80 62 00
        <X 480 0
          /wFbaWRsZV9yZWFsdGltZV0=
        >
        E 3479 b0 7b 00
        GUID {70616404-9A98-489A-A4DA-49DE6729A5FE}
        IGNTEMPO 0 120.00000000 4 4
        SRCCOLOR 3
        VELLANE 132 128 60
        COLORMAP "C:\Program Files\REAPER (x64)\Data\color_maps\rockband_guitarbass.png"
        CFGEDITVIEW -7114.087266 9.234372 0 12 0 0 0
        CFGEDIT 1 1 0 1 1 0 1 1 1 1 1 0.25000000 -8 -8 1544 872 0 2 1 1 0.00000000 0 1 0 0 0.500000 0 0 1.000000 64
        KEYSNAP 0 6 "102030050700" 0 "Pentatonic"
        EVTFILTER 0 -1 -1 -1 -1 0 1 0 0 -1.00000000 -1.00000000
      >
    >
  >
  <TRACK '{A084BA80-9A97-485F-A5F7-97FA8D1FFC67}'
    NAME "kick"
    PEAKCOL 16576
    BEAT -1
    AUTOMODE 0
    VOLPAN 1.00000000000000 0.00000000000000 -1.00000000000000 -1.00000000000000 1.00000000000000
    MUTESOLO 0 0 0
    IPHASE 0
    ISBUS 0 0
    BUSCOMP 0 0
    SHOWINMIX 1 0.666700 0.500000 1 0.500000 -1 -1 -1
    FREEMODE 0
    SEL 0
    REC 0 0 0 0 0 0 0
    VU 2
    TRACKHEIGHT 0 0
    INQ 0 0 0 0.5000000000 100 0 0 100
    NCHAN 2
    FX 1
    TRACKID {A084BA80-9A97-485F-A5F7-97FA8D1FFC67}
    PERF 0
    MIDIOUT -1
    MAINSEND 1 0
    <ITEM
      POSITION 0.00000000000000
      SNAPOFFS 0.00000000000000
      LENGTH 121.61000000000000
      LOOP 0
      ALLTAKES 0
      SEL 0
      FADEIN 1 0.000000 0.000000 1 0
      FADEOUT 1 0.000000 0.000000 1 0
      MUTE 0
      IGUID {E33C6126-F527-4C98-B012-324F8B4CC0F2}
      IID 20
      NAME "kick.wav"
      VOLPAN 1.000000 0.000000 1.000000 -1.000000
      SOFFS 0.00000000000000
      PLAYRATE 1.00000000000000 1 0.00000000000000 -1
      CHANMODE 0
      GUID {804674A0-118C-4C02-93C9-392A13D37388}
      <SOURCE WAVE
        FILE "C:\Users\Ruggery\Documents\Visual Studio Code\Projects\ruggy-customs-projects\songs\pollyanna\wav\kick.wav"
      >
    >
  >
  <TRACK '{C14472D6-BCC8-4B4D-9694-52E14ED832E8}'
    NAME "snare"
    PEAKCOL 16576
    BEAT -1
    AUTOMODE 0
    VOLPAN 1.00000000000000 0.00000000000000 -1.00000000000000 -1.00000000000000 1.00000000000000
    MUTESOLO 0 0 0
    IPHASE 0
    ISBUS 0 0
    BUSCOMP 0 0
    SHOWINMIX 1 0.666700 0.500000 1 0.500000 -1 -1 -1
    FREEMODE 0
    SEL 0
    REC 0 0 0 0 0 0 0
    VU 2
    TRACKHEIGHT 0 0
    INQ 0 0 0 0.5000000000 100 0 0 100
    NCHAN 2
    FX 1
    TRACKID {C14472D6-BCC8-4B4D-9694-52E14ED832E8}
    PERF 0
    MIDIOUT -1
    MAINSEND 1 0
    <ITEM
      POSITION 0.00000000000000
      SNAPOFFS 0.00000000000000
      LENGTH 121.61000000000000
      LOOP 0
      ALLTAKES 0
      SEL 0
      FADEIN 1 0.000000 0.000000 1 0
      FADEOUT 1 0.000000 0.000000 1 0
      MUTE 0
      IGUID {3A645775-C2BB-4512-9294-2810ED4A1238}
      IID 22
      NAME "snare.wav"
      VOLPAN 1.000000 0.000000 1.000000 -1.000000
      SOFFS 0.00000000000000
      PLAYRATE 1.00000000000000 1 0.00000000000000 -1
      CHANMODE 0
      GUID {B9177458-5671-4B5B-BF28-23CB122CAA56}
      <SOURCE WAVE
        FILE "C:\Users\Ruggery\Documents\Visual Studio Code\Projects\ruggy-customs-projects\songs\pollyanna\wav\snare.wav"
      >
    >
  >
  <TRACK '{2504D9CB-0341-41C1-8BAF-822832A8C61A}'
    NAME "kit"
    PEAKCOL 16576
    BEAT -1
    AUTOMODE 0
    VOLPAN 1.00000000000000 0.00000000000000 -1.00000000000000 -1.00000000000000 1.00000000000000
    MUTESOLO 0 0 0
    IPHASE 0
    ISBUS 2 -1
    BUSCOMP 0 0
    SHOWINMIX 1 0.666700 0.500000 1 0.500000 -1 -1 -1
    FREEMODE 0
    SEL 0
    REC 0 0 0 0 0 0 0
    VU 2
    TRACKHEIGHT 0 0
    INQ 0 0 0 0.5000000000 100 0 0 100
    NCHAN 2
    FX 1
    TRACKID {2504D9CB-0341-41C1-8BAF-822832A8C61A}
    PERF 0
    MIDIOUT -1
    MAINSEND 1 0
    <ITEM
      POSITION 0.00000000000000
      SNAPOFFS 0.00000000000000
      LENGTH 121.61000000000000
      LOOP 0
      ALLTAKES 0
      SEL 0
      FADEIN 1 0.000000 0.000000 1 0
      FADEOUT 1 0.000000 0.000000 1 0
      MUTE 0
      IGUID {EFA1A8A2-0B6F-43F6-9062-6B5CE17475EC}
      IID 21
      NAME "kit.wav"
      VOLPAN 1.000000 0.000000 1.000000 -1.000000
      SOFFS 0.00000000000000
      PLAYRATE 1.00000000000000 1 0.00000000000000 -1
      CHANMODE 0
      GUID {CB8E478B-17D4-4105-B388-4364D933D3D3}
      <SOURCE WAVE
        FILE "C:\Users\Ruggery\Documents\Visual Studio Code\Projects\ruggy-customs-projects\songs\pollyanna\wav\kit.wav"
      >
    >
  >
  <TRACK '{C6EB3C02-9BB9-4475-B512-5F97264E8C6E}'
    NAME "PART BASS"
    PEAKCOL 16576
    BEAT -1
    AUTOMODE 0
    VOLPAN 1.00000000000000 0.00000000000000 -1.00000000000000 -1.00000000000000 1.00000000000000
    MUTESOLO 0 0 0
    IPHASE 0
    ISBUS 1 1
    BUSCOMP 0 0
    SHOWINMIX 1 0.666700 0.500000 1 0.500000 -1 -1 -1
    FREEMODE 0
    SEL 0
    REC 0 0 0 0 0 0 0
    VU 2
    TRACKHEIGHT 0 0
    INQ 0 0 0 0.5000000000 100 0 0 100
    NCHAN 2
    FX 1
    TRACKID {C6EB3C02-9BB9-4475-B512-5F97264E8C6E}
    PERF 0
    MIDIOUT -1
    <MIDINOTENAMES
      0 127 "TRILL MARKER"
      0 126 "TREMOLO MARKER"
      0 125 "---"
      0 124 "BRE"
      0 123 "BRE"
      0 122 "BRE"
      0 121 "BRE"
      0 120 "BRE (use all 5)"
      0 119 "----"
      0 116 "OVERDRIVE"
      0 115 "----"
      0 103 "Solo Marker"
      0 102 "Force HOPO Off"
      0 101 "Force HOPO On"
      0 100 "EXPERT Orange"
      0 99 "EXPERT Blue"
      0 98 "EXPERT Yellow"
      0 97 "EXPERT Red"
      0 96 "EXPERT Green"
      0 95 "----"
      0 90 "Force HOPO Off"
      0 89 "Force HOPO On"
      0 88 "HARD Orange"
      0 87 "HARD Blue"
      0 86 "HARD Yellow"
      0 85 "HARD Red"
      0 84 "HARD Green"
      0 77 "----"
      0 76 "MEDIUM Orange"
      0 75 "MEDIUM Blue"
      0 74 "MEDIUM Yellow"
      0 73 "MEDIUM Red"
      0 72 "MEDIUM Green"
      0 65 "----"
      0 64 "EASY Orange"
      0 63 "EASY Blue"
      0 62 "EASY Yellow"
      0 61 "EASY Red"
      0 60 "EASY Green"
      0 59 "Fret 12"
      0 57 "Fret 11"
      0 56 "Fret 10"
      0 55 "Fret 9"
      0 53 "Fret 8"
      0 52 "Fret 7"
      0 50 "Fret 6"
      0 49 "Fret 5"
      0 47 "Fret 4"
      0 45 "Fret 3"
      0 43 "Fret 2"
      0 40 "Fret 1"
    >
    MAINSEND 1 0
    <FXCHAIN
      WNDRECT 0 43 891 559
      SHOW 0
      LASTSEL 0
      DOCKED 0
      BYPASS 0 0
      <VST "VSTi: RBN Preview (RBN)" "rbprev_vst64.dll" 0 ""
        dnBicu5e7f4AAAAAAgAAAAEAAAAAAAAAAgAAAAAAAAAEAAAAAQAAAA==
        AAAQAAMAqgAAABAAAAA=
      >
      FLOATPOS 0 0 0 0
      FXID {ADAE04F8-DC21-48D8-8EE4-05D0C592D3D9}
      WAK 0
    >
    <ITEM
      POSITION 0.00000000000000
      SNAPOFFS 0.00000000000000
      LENGTH 121.61000000000000
      LOOP 0
      ALLTAKES 0
      SEL 0
      FADEIN 1 0.000000 0.000000 1 0
      FADEOUT 1 0.000000 0.000000 1 0
      MUTE 0
      IGUID {238CA880-8A4C-4932-B48A-C100E21AA0F4}
      IID 2
      NAME "PART BASS"
      VOLPAN 1.000000 0.000000 1.000000 -1.000000
      SOFFS 0.00000000000000 0.00000000000000
      PLAYRATE 1.00000000000000 1 0.00000000000000 -1
      CHANMODE 0
      GUID {73DAFBC4-0A7B-4894-A0DF-79164BBE7540}
      <SOURCE MIDI
        HASDATA 1 480 QN
        POOLEDEVTS {71CEC059-D3E1-410F-A131-41C94A5E3494}
        <X 0 0
          /wNQQVJUIEJBU1M=
        >
        <X 3840 0
          /wFbcGxheV0=
        >
        E 0 90 31 60
        E 0 90 3e 60
        E 0 90 4b 60
        E 0 90 57 60
        E 0 90 63 60
        E 120 80 3e 00
        E 0 80 4b 00
        E 480 80 57 00
        E 0 80 63 00
        E 120 90 4b 60
        E 0 90 58 60
        E 0 90 64 60
        E 720 80 4b 00
        E 240 80 58 00
        E 0 80 64 00
        E 240 90 3c 60
        E 0 90 49 60
        E 0 90 55 60
        E 0 90 61 60
        E 120 80 3c 00
        E 0 80 49 00
        E 480 80 55 00
        E 0 80 61 00
        E 120 90 4b 60
        E 0 90 57 60
        E 0 90 63 60
        E 720 80 4b 00
        E 240 80 57 00
        E 0 80 63 00
        E 240 90 3e 60
        E 0 90 4b 60
        E 0 90 57 60
        E 0 90 63 60
        E 0 90 74 60
        E 120 80 3e 00
        E 0 80 4b 00
        E 480 80 57 00
        E 0 80 63 00
        E 120 90 4b 60
        E 0 90 58 60
        E 0 90 64 60
        E 480 80 4b 00
        E 360 80 58 00
        E 0 80 64 00
        E 120 90 3c 60
        E 0 90 49 60
        E 0 90 55 60
        E 0 90 61 60
        E 1680 80 3c 00
        E 0 80 49 00
        E 240 80 55 00
        E 0 80 61 00
        E 120 80 31 00
        E 120 90 2b 60
        E 0 90 3e 60
        E 0 90 4b 60
        E 0 90 58 60
        E 0 90 64 60
        E 120 80 74 00
        E 0 80 3e 00
        E 0 80 4b 00
        E 0 80 58 00
        E 0 80 64 00
        E 600 90 58 60
        E 0 90 64 60
        E 120 80 58 00
        E 0 80 64 00
        E 120 90 3e 60
        E 0 90 4b 60
        E 0 90 57 60
        E 0 90 63 60
        E 120 80 3e 00
        E 0 80 4b 00
        E 0 80 57 00
        E 0 80 63 00
        E 600 90 57 60
        E 0 90 63 60
        E 120 80 57 00
        E 0 80 63 00
        E 120 90 3d 60
        E 0 90 4a 60
        E 0 90 56 60
        E 0 90 62 60
        E 120 80 3d 00
        E 0 80 4a 00
        E 0 80 56 00
        E 0 80 62 00
        E 600 90 56 60
        E 0 90 62 60
        E 120 80 56 00
        E 0 80 62 00
        E 120 90 3c 60
        E 0 90 49 60
        E 0 90 55 60
        E 0 90 61 60
        E 120 80 3c 00
        E 0 80 49 00
        E 0 80 55 00
        E 0 80 61 00
        E 600 90 55 60
        E 0 90 61 60
        E 120 80 2b 00
        E 0 80 55 00
        E 0 80 61 00
        E 120 90 2d 60
        E 0 90 3e 60
        E 0 90 4b 60
        E 0 90 57 60
        E 0 90 63 60
        E 120 80 3e 00
        E 0 80 4b 00
        E 0 80 57 00
        E 0 80 63 00
        E 600 90 57 60
        E 0 90 63 60
        E 120 80 57 00
        E 0 80 63 00
        E 120 90 3d 60
        E 0 90 4a 60
        E 0 90 56 60
        E 0 90 62 60
        E 120 80 3d 00
        E 0 80 4a 00
        E 0 80 56 00
        E 0 80 62 00
        E 600 90 56 60
        E 0 90 62 60
        E 120 80 56 00
        E 0 80 62 00
        E 120 90 3c 60
        E 0 90 49 60
        E 0 90 55 60
        E 0 90 61 60
        E 120 80 3c 00
        E 0 80 49 00
        E 0 80 55 00
        E 0 80 61 00
        E 600 90 55 60
        E 0 90 61 60
        E 120 80 55 00
        E 0 80 61 00
        E 120 90 3d 60
        E 0 90 4a 60
        E 0 90 56 60
        E 0 90 62 60
        E 120 80 3d 00
        E 0 80 4a 00
        E 0 80 56 00
        E 0 80 62 00
        E 600 90 56 60
        E 0 90 62 60
        E 120 80 2d 00
        E 0 80 56 00
        E 0 80 62 00
        E 120 90 2b 60
        E 0 90 3e 60
        E 0 90 4b 60
        E 0 90 58 60
        E 0 90 64 60
        E 120 80 3e 00
        E 0 80 4b 00
        E 0 80 58 00
        E 0 80 64 00
        E 600 90 58 60
        E 0 90 64 60
        E 120 80 58 00
        E 0 80 64 00
        E 120 90 3e 60
        E 0 90 4b 60
        E 0 90 57 60
        E 0 90 63 60
        E 120 80 3e 00
        E 0 80 4b 00
        E 0 80 57 00
        E 0 80 63 00
        E 600 90 57 60
        E 0 90 63 60
        E 120 80 57 00
        E 0 80 63 00
        E 120 90 3d 60
        E 0 90 4a 60
        E 0 90 56 60
        E 0 90 62 60
        E 120 80 3d 00
        E 0 80 4a 00
        E 0 80 56 00
        E 0 80 62 00
        E 600 90 56 60
        E 0 90 62 60
        E 120 80 56 00
        E 0 80 62 00
        E 120 90 3c 60
        E 0 90 49 60
        E 0 90 55 60
        E 0 90 61 60
        E 120 80 3c 00
        E 0 80 49 00
        E 0 80 55 00
        E 0 80 61 00
        E 600 90 55 60
        E 0 90 61 60
        E 120 80 2b 00
        E 0 80 55 00
        E 0 80 61 00
        E 120 90 2d 60
        E 0 90 3e 60
        E 0 90 4b 60
        E 0 90 57 60
        E 0 90 63 60
        E 120 80 3e 00
        E 0 80 4b 00
        E 0 80 57 00
        E 0 80 63 00
        E 600 90 57 60
        E 0 90 63 60
        E 120 80 57 00
        E 0 80 63 00
        E 120 90 3d 60
        E 0 90 4a 60
        E 0 90 56 60
        E 0 90 62 60
        E 120 80 3d 00
        E 0 80 4a 00
        E 0 80 56 00
        E 0 80 62 00
        E 600 90 56 60
        E 0 90 62 60
        E 120 80 56 00
        E 0 80 62 00
        E 120 90 3c 60
        E 0 90 49 60
        E 0 90 55 60
        E 0 90 61 60
        E 120 80 3c 00
        E 0 80 49 00
        E 0 80 55 00
        E 0 80 61 00
        E 600 90 55 60
        E 0 90 61 60
        E 120 80 55 00
        E 0 80 61 00
        E 120 90 3d 60
        E 0 90 4a 60
        E 0 90 56 60
        E 0 90 62 60
        E 120 80 3d 00
        E 0 80 4a 00
        E 0 80 56 00
        E 0 80 62 00
        E 600 90 56 60
        E 0 90 62 60
        E 120 80 2d 00
        E 0 80 56 00
        E 0 80 62 00
        E 120 90 28 60
        E 0 90 3e 60
        E 0 90 4b 60
        E 0 90 58 60
        E 0 90 64 60
        E 0 90 74 60
        E 120 80 3e 00
        E 0 80 4b 00
        E 0 80 58 00
        E 0 80 64 00
        E 120 90 4b 60
        E 0 90 58 60
        E 0 90 64 60
        E 120 80 4b 00
        E 0 80 58 00
        E 0 80 64 00
        E 120 90 3e 60
        E 0 90 4b 60
        E 0 90 58 60
        E 0 90 64 60
        E 120 80 3e 00
        E 0 80 4b 00
        E 0 80 58 00
        E 0 80 64 00
        E 120 90 58 60
        E 0 90 64 60
        E 120 80 58 00
        E 0 80 64 00
        E 120 90 3e 60
        E 0 90 4b 60
        E 0 90 57 60
        E 0 90 63 60
        E 120 80 3e 00
        E 0 80 4b 00
        E 0 80 57 00
        E 0 80 63 00
        E 120 90 4b 60
        E 0 90 57 60
        E 0 90 63 60
        E 120 80 4b 00
        E 0 80 57 00
        E 0 80 63 00
        E 120 90 4b 60
        E 0 90 57 60
        E 0 90 63 60
        E 120 80 4b 00
        E 0 80 57 00
        E 0 80 63 00
        E 120 90 57 60
        E 0 90 63 60
        E 120 80 57 00
        E 0 80 63 00
        E 120 90 3d 60
        E 0 90 4a 60
        E 0 90 56 60
        E 0 90 62 60
        E 120 80 3d 00
        E 0 80 4a 00
        E 0 80 56 00
        E 0 80 62 00
        E 120 90 4a 60
        E 0 90 56 60
        E 0 90 62 60
        E 120 80 4a 00
        E 0 80 56 00
        E 0 80 62 00
        E 120 90 4a 60
        E 0 90 56 60
        E 0 90 62 60
        E 120 80 4a 00
        E 0 80 56 00
        E 0 80 62 00
        E 120 90 56 60
        E 0 90 62 60
        E 120 80 28 00
        E 0 80 56 00
        E 0 80 62 00
        E 120 90 31 60
        E 0 90 3c 60
        E 0 90 49 60
        E 0 90 55 60
        E 0 90 61 60
        E 120 80 3c 00
        E 0 80 49 00
        E 0 80 55 00
        E 0 80 61 00
        E 120 90 49 60
        E 0 90 55 60
        E 0 90 61 60
        E 120 80 49 00
        E 0 80 55 00
        E 0 80 61 00
        E 120 90 49 60
        E 0 90 55 60
        E 0 90 61 60
        E 120 80 49 00
        E 0 80 55 00
        E 0 80 61 00
        E 120 90 55 60
        E 0 90 61 60
        E 120 80 55 00
        E 0 80 61 00
        E 120 80 74 00
        E 0 90 3e 60
        E 0 90 4b 60
        E 0 90 57 60
        E 0 90 63 60
        E 120 80 3e 00
        E 0 80 4b 00
        E 0 80 57 00
        E 0 80 63 00
        E 120 90 4b 60
        E 0 90 57 60
        E 0 90 63 60
        E 120 80 4b 00
        E 0 80 57 00
        E 0 80 63 00
        E 120 90 3e 60
        E 0 90 4b 60
        E 0 90 57 60
        E 0 90 63 60
        E 120 80 3e 00
        E 0 80 4b 00
        E 0 80 57 00
        E 0 80 63 00
        E 120 90 57 60
        E 0 90 63 60
        E 120 80 57 00
        E 0 80 63 00
        E 120 90 3e 60
        E 0 90 4b 60
        E 0 90 58 60
        E 0 90 64 60
        E 120 80 3e 00
        E 0 80 4b 00
        E 0 80 58 00
        E 0 80 64 00
        E 120 90 4b 60
        E 0 90 58 60
        E 0 90 64 60
        E 120 80 4b 00
        E 0 80 58 00
        E 0 80 64 00
        E 120 90 4b 60
        E 0 90 58 60
        E 0 90 64 60
        E 120 80 4b 00
        E 0 80 58 00
        E 0 80 64 00
        E 120 90 58 60
        E 0 90 64 60
        E 120 80 58 00
        E 0 80 64 00
        E 120 90 3c 60
        E 0 90 48 60
        E 0 90 54 60
        E 0 90 60 60
        E 1440 80 3c 00
        E 0 80 48 00
        E 360 80 31 00
        E 0 80 54 00
        E 0 80 60 00
        E 120 90 2f 60
        E 0 90 3c 60
        E 0 90 49 60
        E 0 90 55 60
        E 0 90 61 60
        E 120 80 3c 00
        E 0 80 49 00
        E 0 80 55 00
        E 0 80 61 00
        E 600 90 49 60
        E 0 90 55 60
        E 0 90 61 60
        E 120 80 49 00
        E 0 80 55 00
        E 0 80 61 00
        E 1080 90 3d 60
        E 0 90 4a 60
        E 0 90 56 60
        E 0 90 62 60
        E 120 80 3d 00
        E 0 80 4a 00
        E 0 80 56 00
        E 0 80 62 00
        E 600 90 4a 60
        E 0 90 56 60
        E 0 90 62 60
        E 120 80 4a 00
        E 0 80 56 00
        E 0 80 62 00
        E 1080 90 3c 60
        E 0 90 49 60
        E 0 90 55 60
        E 0 90 61 60
        E 120 80 3c 00
        E 0 80 49 00
        E 0 80 55 00
        E 0 80 61 00
        E 600 90 55 60
        E 0 90 61 60
        E 120 80 55 00
        E 0 80 61 00
        E 120 90 3e 60
        E 0 90 4b 60
        E 0 90 57 60
        E 0 90 63 60
        E 120 80 3e 00
        E 0 80 4b 00
        E 0 80 57 00
        E 0 80 63 00
        E 600 90 57 60
        E 0 90 63 60
        E 120 80 57 00
        E 0 80 63 00
        E 120 90 3e 60
        E 0 90 4b 60
        E 0 90 58 60
        E 0 90 64 60
        E 120 80 3e 00
        E 0 80 4b 00
        E 0 80 58 00
        E 0 80 64 00
        E 600 90 4b 60
        E 0 90 58 60
        E 0 90 64 60
        E 120 80 4b 00
        E 0 80 58 00
        E 0 80 64 00
        E 120 90 3e 60
        E 0 90 4b 60
        E 0 90 58 60
        E 0 90 64 60
        E 120 80 3e 00
        E 0 80 4b 00
        E 0 80 58 00
        E 0 80 64 00
        E 600 90 58 60
        E 0 90 64 60
        E 120 80 2f 00
        E 0 80 58 00
        E 0 80 64 00
        E 120 90 2b 60
        E 0 90 3d 60
        E 0 90 4a 60
        E 0 90 56 60
        E 0 90 62 60
        E 120 80 3d 00
        E 0 80 4a 00
        E 0 80 56 00
        E 0 80 62 00
        E 120 90 4a 60
        E 0 90 56 60
        E 0 90 62 60
        E 120 80 4a 00
        E 0 80 56 00
        E 0 80 62 00
        E 120 90 4a 60
        E 0 90 56 60
        E 0 90 62 60
        E 120 80 4a 00
        E 0 80 56 00
        E 0 80 62 00
        E 120 90 56 60
        E 0 90 62 60
        E 120 80 56 00
        E 0 80 62 00
        E 120 90 3c 60
        E 0 90 49 60
        E 0 90 55 60
        E 0 90 61 60
        E 120 80 3c 00
        E 0 80 49 00
        E 0 80 55 00
        E 0 80 61 00
        E 120 90 49 60
        E 0 90 55 60
        E 0 90 61 60
        E 120 80 49 00
        E 0 80 55 00
        E 0 80 61 00
        E 120 90 49 60
        E 0 90 55 60
        E 0 90 61 60
        E 120 80 49 00
        E 0 80 55 00
        E 0 80 61 00
        E 120 90 55 60
        E 0 90 61 60
        E 120 80 55 00
        E 0 80 61 00
        E 120 90 3c 60
        E 0 90 48 60
        E 0 90 54 60
        E 0 90 60 60
        E 120 80 3c 00
        E 0 80 48 00
        E 0 80 54 00
        E 0 80 60 00
        E 120 90 48 60
        E 0 90 54 60
        E 0 90 60 60
        E 120 80 48 00
        E 0 80 54 00
        E 0 80 60 00
        E 120 90 48 60
        E 0 90 54 60
        E 0 90 60 60
        E 120 80 48 00
        E 0 80 54 00
        E 0 80 60 00
        E 120 90 54 60
        E 0 90 60 60
        E 120 80 54 00
        E 0 80 60 00
        E 120 90 3c 60
        E 0 90 49 60
        E 0 90 55 60
        E 0 90 61 60
        E 120 80 3c 00
        E 0 80 49 00
        E 0 80 55 00
        E 0 80 61 00
        E 120 90 49 60
        E 0 90 55 60
        E 0 90 61 60
        E 120 80 49 00
        E 0 80 55 00
        E 0 80 61 00
        E 120 90 49 60
        E 0 90 55 60
        E 0 90 61 60
        E 120 80 49 00
        E 0 80 55 00
        E 0 80 61 00
        E 120 90 55 60
        E 0 90 61 60
        E 120 80 55 00
        E 0 80 61 00
        E 120 90 3d 60
        E 0 90 4a 60
        E 0 90 56 60
        E 0 90 62 60
        E 120 80 3d 00
        E 0 80 4a 00
        E 0 80 56 00
        E 0 80 62 00
        E 120 90 4a 60
        E 0 90 56 60
        E 0 90 62 60
        E 120 80 4a 00
        E 0 80 56 00
        E 0 80 62 00
        E 120 90 4a 60
        E 0 90 56 60
        E 0 90 62 60
        E 120 80 4a 00
        E 0 80 56 00
        E 0 80 62 00
        E 120 90 56 60
        E 0 90 62 60
        E 120 80 56 00
        E 0 80 62 00
        E 120 90 3c 60
        E 0 90 49 60
        E 0 90 55 60
        E 0 90 61 60
        E 120 80 3c 00
        E 0 80 49 00
        E 0 80 55 00
        E 0 80 61 00
        E 120 90 49 60
        E 0 90 55 60
        E 0 90 61 60
        E 120 80 49 00
        E 0 80 55 00
        E 0 80 61 00
        E 120 90 49 60
        E 0 90 55 60
        E 0 90 61 60
        E 120 80 49 00
        E 0 80 55 00
        E 0 80 61 00
        E 120 90 55 60
        E 0 90 61 60
        E 120 80 55 00
        E 0 80 61 00
        E 120 90 3c 60
        E 0 90 48 60
        E 0 90 54 60
        E 0 90 60 60
        E 120 80 3c 00
        E 0 80 48 00
        E 0 80 54 00
        E 0 80 60 00
        E 120 90 48 60
        E 0 90 54 60
        E 0 90 60 60
        E 120 80 48 00
        E 0 80 54 00
        E 0 80 60 00
        E 120 90 48 60
        E 0 90 54 60
        E 0 90 60 60
        E 120 80 48 00
        E 0 80 54 00
        E 0 80 60 00
        E 120 90 54 60
        E 0 90 60 60
        E 120 80 54 00
        E 0 80 60 00
        E 120 90 3d 60
        E 0 90 4a 60
        E 0 90 56 60
        E 0 90 62 60
        E 120 80 3d 00
        E 0 80 4a 00
        E 0 80 56 00
        E 0 80 62 00
        E 120 90 4a 60
        E 0 90 56 60
        E 0 90 62 60
        E 120 80 4a 00
        E 0 80 56 00
        E 0 80 62 00
        E 120 90 4a 60
        E 0 90 56 60
        E 0 90 62 60
        E 120 80 4a 00
        E 0 80 56 00
        E 0 80 62 00
        E 120 90 56 60
        E 0 90 62 60
        E 120 80 56 00
        E 0 80 62 00
        E 120 90 3c 60
        E 0 90 48 60
        E 0 90 54 60
        E 0 90 60 60
        E 1440 80 3c 00
        E 0 80 48 00
        E 360 80 54 00
        E 0 80 60 00
        E 120 90 3e 60
        E 0 90 4b 60
        E 0 90 58 60
        E 0 90 64 60
        E 0 90 74 60
        E 120 80 3e 00
        E 0 80 4b 00
        E 0 80 58 00
        E 0 80 64 00
        E 600 90 58 60
        E 0 90 64 60
        E 120 80 58 00
        E 0 80 64 00
        E 120 90 3e 60
        E 0 90 4b 60
        E 0 90 57 60
        E 0 90 63 60
        E 120 80 3e 00
        E 0 80 4b 00
        E 0 80 57 00
        E 0 80 63 00
        E 600 90 57 60
        E 0 90 63 60
        E 120 80 57 00
        E 0 80 63 00
        E 120 90 3d 60
        E 0 90 4a 60
        E 0 90 56 60
        E 0 90 62 60
        E 120 80 3d 00
        E 0 80 4a 00
        E 0 80 56 00
        E 0 80 62 00
        E 600 90 56 60
        E 0 90 62 60
        E 120 80 56 00
        E 0 80 62 00
        E 120 90 3c 60
        E 0 90 49 60
        E 0 90 55 60
        E 0 90 61 60
        E 120 80 3c 00
        E 0 80 49 00
        E 0 80 55 00
        E 0 80 61 00
        E 600 90 55 60
        E 0 90 61 60
        E 120 80 2b 00
        E 0 80 55 00
        E 0 80 61 00
        E 120 90 2d 60
        E 0 90 3e 60
        E 0 90 4b 60
        E 0 90 57 60
        E 0 90 63 60
        E 120 80 74 00
        E 0 80 3e 00
        E 0 80 4b 00
        E 0 80 57 00
        E 0 80 63 00
        E 600 90 57 60
        E 0 90 63 60
        E 120 80 57 00
        E 0 80 63 00
        E 120 90 3d 60
        E 0 90 4a 60
        E 0 90 56 60
        E 0 90 62 60
        E 120 80 3d 00
        E 0 80 4a 00
        E 0 80 56 00
        E 0 80 62 00
        E 600 90 56 60
        E 0 90 62 60
        E 120 80 56 00
        E 0 80 62 00
        E 120 90 3c 60
        E 0 90 49 60
        E 0 90 55 60
        E 0 90 61 60
        E 120 80 3c 00
        E 0 80 49 00
        E 0 80 55 00
        E 0 80 61 00
        E 600 90 55 60
        E 0 90 61 60
        E 120 80 55 00
        E 0 80 61 00
        E 120 90 3d 60
        E 0 90 4a 60
        E 0 90 56 60
        E 0 90 62 60
        E 120 80 3d 00
        E 0 80 4a 00
        E 0 80 56 00
        E 0 80 62 00
        E 600 90 56 60
        E 0 90 62 60
        E 120 80 2d 00
        E 0 80 56 00
        E 0 80 62 00
        E 120 90 2b 60
        E 0 90 3e 60
        E 0 90 4b 60
        E 0 90 58 60
        E 0 90 64 60
        E 120 80 3e 00
        E 0 80 4b 00
        E 0 80 58 00
        E 0 80 64 00
        E 600 90 58 60
        E 0 90 64 60
        E 120 80 58 00
        E 0 80 64 00
        E 120 90 3e 60
        E 0 90 4b 60
        E 0 90 57 60
        E 0 90 63 60
        E 120 80 3e 00
        E 0 80 4b 00
        E 0 80 57 00
        E 0 80 63 00
        E 600 90 57 60
        E 0 90 63 60
        E 120 80 57 00
        E 0 80 63 00
        E 120 90 3d 60
        E 0 90 4a 60
        E 0 90 56 60
        E 0 90 62 60
        E 120 80 3d 00
        E 0 80 4a 00
        E 0 80 56 00
        E 0 80 62 00
        E 600 90 56 60
        E 0 90 62 60
        E 120 80 56 00
        E 0 80 62 00
        E 120 90 3c 60
        E 0 90 49 60
        E 0 90 55 60
        E 0 90 61 60
        E 120 80 3c 00
        E 0 80 49 00
        E 0 80 55 00
        E 0 80 61 00
        E 600 90 55 60
        E 0 90 61 60
        E 120 80 2b 00
        E 0 80 55 00
        E 0 80 61 00
        E 120 90 2d 60
        E 0 90 3e 60
        E 0 90 4b 60
        E 0 90 57 60
        E 0 90 63 60
        E 120 80 3e 00
        E 0 80 4b 00
        E 0 80 57 00
        E 0 80 63 00
        E 600 90 57 60
        E 0 90 63 60
        E 120 80 57 00
        E 0 80 63 00
        E 120 90 3d 60
        E 0 90 4a 60
        E 0 90 56 60
        E 0 90 62 60
        E 120 80 3d 00
        E 0 80 4a 00
        E 0 80 56 00
        E 0 80 62 00
        E 600 90 56 60
        E 0 90 62 60
        E 120 80 56 00
        E 0 80 62 00
        E 120 90 3c 60
        E 0 90 49 60
        E 0 90 55 60
        E 0 90 61 60
        E 120 80 3c 00
        E 0 80 49 00
        E 0 80 55 00
        E 0 80 61 00
        E 600 90 55 60
        E 0 90 61 60
        E 120 80 55 00
        E 0 80 61 00
        E 120 90 3d 60
        E 0 90 4a 60
        E 0 90 56 60
        E 0 90 62 60
        E 120 80 3d 00
        E 0 80 4a 00
        E 0 80 56 00
        E 0 80 62 00
        E 600 90 56 60
        E 0 90 62 60
        E 120 80 2d 00
        E 0 80 56 00
        E 0 80 62 00
        E 120 90 28 60
        E 0 90 3e 60
        E 0 90 4b 60
        E 0 90 58 60
        E 0 90 64 60
        E 120 80 3e 00
        E 0 80 4b 00
        E 0 80 58 00
        E 0 80 64 00
        E 120 90 4b 60
        E 0 90 58 60
        E 0 90 64 60
        E 120 80 4b 00
        E 0 80 58 00
        E 0 80 64 00
        E 120 90 3e 60
        E 0 90 4b 60
        E 0 90 58 60
        E 0 90 64 60
        E 120 80 3e 00
        E 0 80 4b 00
        E 0 80 58 00
        E 0 80 64 00
        E 120 90 58 60
        E 0 90 64 60
        E 120 80 58 00
        E 0 80 64 00
        E 120 90 3e 60
        E 0 90 4b 60
        E 0 90 57 60
        E 0 90 63 60
        E 120 80 3e 00
        E 0 80 4b 00
        E 0 80 57 00
        E 0 80 63 00
        E 120 90 4b 60
        E 0 90 57 60
        E 0 90 63 60
        E 120 80 4b 00
        E 0 80 57 00
        E 0 80 63 00
        E 120 90 4b 60
        E 0 90 57 60
        E 0 90 63 60
        E 120 80 4b 00
        E 0 80 57 00
        E 0 80 63 00
        E 120 90 57 60
        E 0 90 63 60
        E 120 80 57 00
        E 0 80 63 00
        E 120 90 3d 60
        E 0 90 4a 60
        E 0 90 56 60
        E 0 90 62 60
        E 120 80 3d 00
        E 0 80 4a 00
        E 0 80 56 00
        E 0 80 62 00
        E 120 90 4a 60
        E 0 90 56 60
        E 0 90 62 60
        E 120 80 4a 00
        E 0 80 56 00
        E 0 80 62 00
        E 120 90 4a 60
        E 0 90 56 60
        E 0 90 62 60
        E 120 80 4a 00
        E 0 80 56 00
        E 0 80 62 00
        E 120 90 56 60
        E 0 90 62 60
        E 120 80 28 00
        E 0 80 56 00
        E 0 80 62 00
        E 120 90 31 60
        E 0 90 3c 60
        E 0 90 49 60
        E 0 90 55 60
        E 0 90 61 60
        E 120 80 3c 00
        E 0 80 49 00
        E 0 80 55 00
        E 0 80 61 00
        E 120 90 49 60
        E 0 90 55 60
        E 0 90 61 60
        E 120 80 49 00
        E 0 80 55 00
        E 0 80 61 00
        E 120 90 49 60
        E 0 90 55 60
        E 0 90 61 60
        E 120 80 49 00
        E 0 80 55 00
        E 0 80 61 00
        E 120 90 55 60
        E 0 90 61 60
        E 120 80 55 00
        E 0 80 61 00
        E 120 90 3e 60
        E 0 90 4b 60
        E 0 90 57 60
        E 0 90 63 60
        E 120 80 3e 00
        E 0 80 4b 00
        E 0 80 57 00
        E 0 80 63 00
        E 120 90 4b 60
        E 0 90 57 60
        E 0 90 63 60
        E 120 80 4b 00
        E 0 80 57 00
        E 0 80 63 00
        E 120 90 3e 60
        E 0 90 4b 60
        E 0 90 57 60
        E 0 90 63 60
        E 120 80 3e 00
        E 0 80 4b 00
        E 0 80 57 00
        E 0 80 63 00
        E 120 90 57 60
        E 0 90 63 60
        E 120 80 57 00
        E 0 80 63 00
        E 120 90 3e 60
        E 0 90 4b 60
        E 0 90 58 60
        E 0 90 64 60
        E 120 80 3e 00
        E 0 80 4b 00
        E 0 80 58 00
        E 0 80 64 00
        E 120 90 4b 60
        E 0 90 58 60
        E 0 90 64 60
        E 120 80 4b 00
        E 0 80 58 00
        E 0 80 64 00
        E 120 90 4b 60
        E 0 90 58 60
        E 0 90 64 60
        E 120 80 4b 00
        E 0 80 58 00
        E 0 80 64 00
        E 120 90 58 60
        E 0 90 64 60
        E 120 80 58 00
        E 0 80 64 00
        E 120 90 3c 60
        E 0 90 48 60
        E 0 90 54 60
        E 0 90 60 60
        E 1440 80 3c 00
        E 0 80 48 00
        E 360 80 31 00
        E 0 80 54 00
        E 0 80 60 00
        E 120 90 2f 60
        E 0 90 3c 60
        E 0 90 49 60
        E 0 90 55 60
        E 0 90 61 60
        E 0 90 74 60
        E 120 80 3c 00
        E 0 80 49 00
        E 0 80 55 00
        E 0 80 61 00
        E 600 90 49 60
        E 0 90 55 60
        E 0 90 61 60
        E 120 80 49 00
        E 0 80 55 00
        E 0 80 61 00
        E 1080 90 3d 60
        E 0 90 4a 60
        E 0 90 56 60
        E 0 90 62 60
        E 120 80 3d 00
        E 0 80 4a 00
        E 0 80 56 00
        E 0 80 62 00
        E 600 90 4a 60
        E 0 90 56 60
        E 0 90 62 60
        E 120 80 4a 00
        E 0 80 56 00
        E 0 80 62 00
        E 1080 90 3c 60
        E 0 90 49 60
        E 0 90 55 60
        E 0 90 61 60
        E 120 80 74 00
        E 0 80 3c 00
        E 0 80 49 00
        E 0 80 55 00
        E 0 80 61 00
        E 600 90 55 60
        E 0 90 61 60
        E 120 80 55 00
        E 0 80 61 00
        E 120 90 3e 60
        E 0 90 4b 60
        E 0 90 57 60
        E 0 90 63 60
        E 120 80 3e 00
        E 0 80 4b 00
        E 0 80 57 00
        E 0 80 63 00
        E 600 90 57 60
        E 0 90 63 60
        E 120 80 57 00
        E 0 80 63 00
        E 120 90 3e 60
        E 0 90 4b 60
        E 0 90 58 60
        E 0 90 64 60
        E 120 80 3e 00
        E 0 80 4b 00
        E 0 80 58 00
        E 0 80 64 00
        E 600 90 4b 60
        E 0 90 58 60
        E 0 90 64 60
        E 120 80 4b 00
        E 0 80 58 00
        E 0 80 64 00
        E 120 90 3e 60
        E 0 90 4b 60
        E 0 90 58 60
        E 0 90 64 60
        E 120 80 3e 00
        E 0 80 4b 00
        E 0 80 58 00
        E 0 80 64 00
        E 600 90 58 60
        E 0 90 64 60
        E 120 80 2f 00
        E 0 80 58 00
        E 0 80 64 00
        E 120 90 2b 60
        E 0 90 3d 60
        E 0 90 4a 60
        E 0 90 56 60
        E 0 90 62 60
        E 120 80 3d 00
        E 0 80 4a 00
        E 0 80 56 00
        E 0 80 62 00
        E 120 90 4a 60
        E 0 90 56 60
        E 0 90 62 60
        E 120 80 4a 00
        E 0 80 56 00
        E 0 80 62 00
        E 120 90 4a 60
        E 0 90 56 60
        E 0 90 62 60
        E 120 80 4a 00
        E 0 80 56 00
        E 0 80 62 00
        E 120 90 56 60
        E 0 90 62 60
        E 120 80 56 00
        E 0 80 62 00
        E 120 90 3c 60
        E 0 90 49 60
        E 0 90 55 60
        E 0 90 61 60
        E 120 80 3c 00
        E 0 80 49 00
        E 0 80 55 00
        E 0 80 61 00
        E 120 90 49 60
        E 0 90 55 60
        E 0 90 61 60
        E 120 80 49 00
        E 0 80 55 00
        E 0 80 61 00
        E 120 90 49 60
        E 0 90 55 60
        E 0 90 61 60
        E 120 80 49 00
        E 0 80 55 00
        E 0 80 61 00
        E 120 90 55 60
        E 0 90 61 60
        E 120 80 55 00
        E 0 80 61 00
        E 120 90 3c 60
        E 0 90 48 60
        E 0 90 54 60
        E 0 90 60 60
        E 120 80 3c 00
        E 0 80 48 00
        E 0 80 54 00
        E 0 80 60 00
        E 120 90 48 60
        E 0 90 54 60
        E 0 90 60 60
        E 120 80 48 00
        E 0 80 54 00
        E 0 80 60 00
        E 120 90 48 60
        E 0 90 54 60
        E 0 90 60 60
        E 120 80 48 00
        E 0 80 54 00
        E 0 80 60 00
        E 120 90 54 60
        E 0 90 60 60
        E 120 80 54 00
        E 0 80 60 00
        E 120 90 3c 60
        E 0 90 49 60
        E 0 90 55 60
        E 0 90 61 60
        E 120 80 3c 00
        E 0 80 49 00
        E 0 80 55 00
        E 0 80 61 00
        E 120 90 49 60
        E 0 90 55 60
        E 0 90 61 60
        E 120 80 49 00
        E 0 80 55 00
        E 0 80 61 00
        E 120 90 49 60
        E 0 90 55 60
        E 0 90 61 60
        E 120 80 49 00
        E 0 80 55 00
        E 0 80 61 00
        E 120 90 55 60
        E 0 90 61 60
        E 120 80 55 00
        E 0 80 61 00
        E 120 90 3d 60
        E 0 90 4a 60
        E 0 90 56 60
        E 0 90 62 60
        E 120 80 3d 00
        E 0 80 4a 00
        E 0 80 56 00
        E 0 80 62 00
        E 120 90 4a 60
        E 0 90 56 60
        E 0 90 62 60
        E 120 80 4a 00
        E 0 80 56 00
        E 0 80 62 00
        E 120 90 4a 60
        E 0 90 56 60
        E 0 90 62 60
        E 120 80 4a 00
        E 0 80 56 00
        E 0 80 62 00
        E 120 90 56 60
        E 0 90 62 60
        E 120 80 56 00
        E 0 80 62 00
        E 120 90 3c 60
        E 0 90 49 60
        E 0 90 55 60
        E 0 90 61 60
        E 120 80 3c 00
        E 0 80 49 00
        E 0 80 55 00
        E 0 80 61 00
        E 120 90 49 60
        E 0 90 55 60
        E 0 90 61 60
        E 120 80 49 00
        E 0 80 55 00
        E 0 80 61 00
        E 120 90 49 60
        E 0 90 55 60
        E 0 90 61 60
        E 120 80 49 00
        E 0 80 55 00
        E 0 80 61 00
        E 120 90 55 60
        E 0 90 61 60
        E 120 80 55 00
        E 0 80 61 00
        E 120 90 3c 60
        E 0 90 48 60
        E 0 90 54 60
        E 0 90 60 60
        E 120 80 3c 00
        E 0 80 48 00
        E 0 80 54 00
        E 0 80 60 00
        E 120 90 48 60
        E 0 90 54 60
        E 0 90 60 60
        E 120 80 48 00
        E 0 80 54 00
        E 0 80 60 00
        E 120 90 48 60
        E 0 90 54 60
        E 0 90 60 60
        E 120 80 48 00
        E 0 80 54 00
        E 0 80 60 00
        E 120 90 54 60
        E 0 90 60 60
        E 120 80 54 00
        E 0 80 60 00
        E 120 90 3d 60
        E 0 90 4a 60
        E 0 90 56 60
        E 0 90 62 60
        E 120 80 3d 00
        E 0 80 4a 00
        E 0 80 56 00
        E 0 80 62 00
        E 120 90 4a 60
        E 0 90 56 60
        E 0 90 62 60
        E 120 80 4a 00
        E 0 80 56 00
        E 0 80 62 00
        E 120 90 4a 60
        E 0 90 56 60
        E 0 90 62 60
        E 120 80 4a 00
        E 0 80 56 00
        E 0 80 62 00
        E 120 90 56 60
        E 0 90 62 60
        E 120 80 56 00
        E 0 80 62 00
        E 120 90 3c 60
        E 0 90 48 60
        E 0 90 54 60
        E 0 90 60 60
        E 1440 80 3c 00
        E 0 80 48 00
        E 360 80 2b 00
        E 0 80 54 00
        E 0 80 60 00
        E 120 90 31 60
        E 0 90 3e 60
        E 0 90 4b 60
        E 0 90 57 60
        E 0 90 63 60
        E 120 80 3e 00
        E 0 80 4b 00
        E 480 80 57 00
        E 0 80 63 00
        E 120 90 4b 60
        E 0 90 58 60
        E 0 90 64 60
        E 720 80 4b 00
        E 240 80 58 00
        E 0 80 64 00
        E 240 90 3c 60
        E 0 90 49 60
        E 0 90 55 60
        E 0 90 61 60
        E 120 80 3c 00
        E 0 80 49 00
        E 480 80 55 00
        E 0 80 61 00
        E 120 90 4b 60
        E 0 90 57 60
        E 0 90 63 60
        E 720 80 4b 00
        E 240 80 57 00
        E 0 80 63 00
        E 240 90 3e 60
        E 0 90 4b 60
        E 0 90 57 60
        E 0 90 63 60
        E 120 80 3e 00
        E 0 80 4b 00
        E 480 80 57 00
        E 0 80 63 00
        E 120 90 4b 60
        E 0 90 58 60
        E 0 90 64 60
        E 480 80 4b 00
        E 360 80 58 00
        E 0 80 64 00
        E 120 90 3c 60
        E 0 90 49 60
        E 0 90 55 60
        E 0 90 61 60
        E 1680 80 3c 00
        E 0 80 49 00
        E 240 80 55 00
        E 0 80 61 00
        E 240 90 3e 60
        E 0 90 4b 60
        E 0 90 57 60
        E 0 90 63 60
        E 120 80 3e 00
        E 0 80 4b 00
        E 480 80 57 00
        E 0 80 63 00
        E 120 90 4b 60
        E 0 90 58 60
        E 0 90 64 60
        E 720 80 4b 00
        E 240 80 58 00
        E 0 80 64 00
        E 240 90 3c 60
        E 0 90 49 60
        E 0 90 55 60
        E 0 90 61 60
        E 120 80 3c 00
        E 0 80 49 00
        E 480 80 55 00
        E 0 80 61 00
        E 120 90 4b 60
        E 0 90 57 60
        E 0 90 63 60
        E 720 80 4b 00
        E 240 80 57 00
        E 0 80 63 00
        E 240 90 3e 60
        E 0 90 4b 60
        E 0 90 57 60
        E 0 90 63 60
        E 120 80 3e 00
        E 0 80 4b 00
        E 480 80 57 00
        E 0 80 63 00
        E 120 90 4b 60
        E 0 90 58 60
        E 0 90 64 60
        E 480 80 4b 00
        E 360 80 58 00
        E 0 80 64 00
        E 120 90 3c 60
        E 0 90 49 60
        E 0 90 55 60
        E 0 90 61 60
        E 1920 80 3c 00
        E 0 80 49 00
        E 0 80 55 00
        E 0 80 61 00
        E 240 80 31 00
        <X 240 0
          /wFbaWRsZV9yZWFsdGltZV0=
        >
        E 1679 b0 7b 00
        GUID {F46F4B27-DBE6-4F0B-9332-DFCD5506E71E}
        IGNTEMPO 0 120.00000000 4 4
        SRCCOLOR 4
        VELLANE 132 128 60
        COLORMAP "C:\Program Files\REAPER (x64)\Data\color_maps\rockband_guitarbass.png"
        CFGEDITVIEW -7114.087266 9.234372 0 12 0 0 0
        CFGEDIT 1 1 0 1 1 0 1 1 1 1 1 0.25000000 -8 -8 1544 872 0 2 1 1 0.00000000 0 1 0 0 0.500000 0 0 1.000000 64
        KEYSNAP 0 6 "102030050700" 0 "Pentatonic"
        EVTFILTER 0 -1 -1 -1 -1 0 1 0 0 -1.00000000 -1.00000000
      >
    >
  >
  <TRACK '{A7D60168-53ED-41E1-BB69-4E2DB48C3531}'
    NAME "bass"
    PEAKCOL 16576
    BEAT -1
    AUTOMODE 0
    VOLPAN 1.00000000000000 0.00000000000000 -1.00000000000000 -1.00000000000000 1.00000000000000
    MUTESOLO 0 0 0
    IPHASE 0
    ISBUS 2 -1
    BUSCOMP 0 0
    SHOWINMIX 1 0.666700 0.500000 1 0.500000 -1 -1 -1
    FREEMODE 0
    SEL 0
    REC 0 0 0 0 0 0 0
    VU 2
    TRACKHEIGHT 0 0
    INQ 0 0 0 0.5000000000 100 0 0 100
    NCHAN 2
    FX 1
    TRACKID {A7D60168-53ED-41E1-BB69-4E2DB48C3531}
    PERF 0
    MIDIOUT -1
    MAINSEND 1 0
    <ITEM
      POSITION 0.00000000000000
      SNAPOFFS 0.00000000000000
      LENGTH 121.61000000000000
      LOOP 0
      ALLTAKES 0
      SEL 0
      FADEIN 1 0.000000 0.000000 1 0
      FADEOUT 1 0.000000 0.000000 1 0
      MUTE 0
      IGUID {8F103DDC-CECE-4DD2-B240-AD6D763BCDB5}
      IID 17
      NAME "bass.wav"
      VOLPAN 1.000000 0.000000 1.000000 -1.000000
      SOFFS 0.00000000000000
      PLAYRATE 1.00000000000000 1 0.00000000000000 -1
      CHANMODE 0
      GUID {C077DD84-F8F4-450C-9635-87B2A1BF8C84}
      <SOURCE WAVE
        FILE "C:\Users\Ruggery\Documents\Visual Studio Code\Projects\ruggy-customs-projects\songs\pollyanna\wav\bass.wav"
      >
    >
  >
  <TRACK '{37842308-1088-4B00-AAF1-E428BFB7C553}'
    NAME "PART GUITAR"
    PEAKCOL 16576
    BEAT -1
    AUTOMODE 0
    VOLPAN 1.00000000000000 0.00000000000000 -1.00000000000000 -1.00000000000000 1.00000000000000
    MUTESOLO 0 0 0
    IPHASE 0
    ISBUS 1 1
    BUSCOMP 0 0
    SHOWINMIX 1 0.666700 0.500000 1 0.500000 -1 -1 -1
    FREEMODE 0
    SEL 0
    REC 0 0 0 0 0 0 0
    VU 2
    TRACKHEIGHT 0 0
    INQ 0 0 0 0.5000000000 100 0 0 100
    NCHAN 2
    FX 1
    TRACKID {37842308-1088-4B00-AAF1-E428BFB7C553}
    PERF 0
    MIDIOUT -1
    <MIDINOTENAMES
      0 127 "TRILL MARKER"
      0 126 "TREMOLO MARKER"
      0 125 "---"
      0 124 "BRE"
      0 123 "BRE"
      0 122 "BRE"
      0 121 "BRE"
      0 120 "BRE (use all 5)"
      0 119 "----"
      0 116 "OVERDRIVE"
      0 115 "----"
      0 103 "Solo Marker"
      0 102 "Force HOPO Off"
      0 101 "Force HOPO On"
      0 100 "EXPERT Orange"
      0 99 "EXPERT Blue"
      0 98 "EXPERT Yellow"
      0 97 "EXPERT Red"
      0 96 "EXPERT Green"
      0 95 "----"
      0 90 "Force HOPO Off"
      0 89 "Force HOPO On"
      0 88 "HARD Orange"
      0 87 "HARD Blue"
      0 86 "HARD Yellow"
      0 85 "HARD Red"
      0 84 "HARD Green"
      0 77 "----"
      0 76 "MEDIUM Orange"
      0 75 "MEDIUM Blue"
      0 74 "MEDIUM Yellow"
      0 73 "MEDIUM Red"
      0 72 "MEDIUM Green"
      0 65 "----"
      0 64 "EASY Orange"
      0 63 "EASY Blue"
      0 62 "EASY Yellow"
      0 61 "EASY Red"
      0 60 "EASY Green"
      0 59 "Fret 12"
      0 57 "Fret 11"
      0 56 "Fret 10"
      0 55 "Fret 9"
      0 53 "Fret 8"
      0 52 "Fret 7"
      0 50 "Fret 6"
      0 49 "Fret 5"
      0 47 "Fret 4"
      0 45 "Fret 3"
      0 43 "Fret 2"
      0 40 "Fret 1"
    >
    MAINSEND 1 0
    <FXCHAIN
      WNDRECT 0 43 891 559
      SHOW 0
      LASTSEL 0
      DOCKED 0
      BYPASS 0 0
      <VST "VSTi: RBN Preview (RBN)" "rbprev_vst64.dll" 0 ""
        dnBicu5e7f4AAAAAAgAAAAEAAAAAAAAAAgAAAAAAAAAEAAAAAQAAAA==
        AAAQAAMAqgAAABAAAAA=
      >
      FLOATPOS 0 0 0 0
      FXID {CA11F0EF-4F0B-42D4-B47A-D9AC90A92CEB}
      WAK 0
    >
    <ITEM
      POSITION 0.00000000000000
      SNAPOFFS 0.00000000000000
      LENGTH 121.61000000000000
      LOOP 0
      ALLTAKES 0
      SEL 0
      FADEIN 1 0.000000 0.000000 1 0
      FADEOUT 1 0.000000 0.000000 1 0
      MUTE 0
      IGUID {AD699164-93A9-4771-A4AF-7458D45B4076}
      IID 3
      NAME "PART GUITAR"
      VOLPAN 1.000000 0.000000 1.000000 -1.000000
      SOFFS 0.00000000000000 0.00000000000000
      PLAYRATE 1.00000000000000 1 0.00000000000000 -1
      CHANMODE 0
      GUID {00E6F9ED-576F-4188-8EAC-9CD5DF01BF3D}
      <SOURCE MIDI
        HASDATA 1 480 QN
        POOLEDEVTS {8A86CEFE-F0C1-4653-B1C4-5BC1EBA6E6EA}
        <X 0 0
          /wNQQVJUIEdVSVRBUg==
        >
        <X 3840 0
          /wFbcGxheV0=
        >
        E 0 90 2b 60
        E 0 90 3c 60
        E 0 90 49 60
        E 0 90 55 60
        E 0 90 61 60
        E 120 80 3c 00
        E 0 80 49 00
        E 0 80 55 00
        E 0 80 61 00
        E 120 90 57 60
        E 0 90 63 60
        E 120 80 57 00
        E 0 80 63 00
        E 120 90 4b 60
        E 0 90 58 60
        E 0 90 64 60
        E 120 80 4b 00
        E 0 80 58 00
        E 0 80 64 00
        E 120 90 56 60
        E 0 90 62 60
        E 360 80 56 00
        E 0 80 62 00
        E 120 90 3e 60
        E 0 90 4b 60
        E 0 90 57 60
        E 0 90 63 60
        E 120 80 3e 00
        E 0 80 4b 00
        E 240 80 57 00
        E 0 80 63 00
        E 120 90 4b 60
        E 0 90 57 60
        E 0 90 63 60
        E 120 80 4b 00
        E 0 80 57 00
        E 0 80 63 00
        E 120 90 3e 60
        E 0 90 4b 60
        E 0 90 57 60
        E 0 90 63 60
        E 120 80 3e 00
        E 0 80 4b 00
        E 0 80 57 00
        E 0 80 63 00
        E 120 90 4b 60
        E 0 90 57 60
        E 0 90 63 60
        E 120 80 4b 00
        E 240 80 57 00
        E 0 80 63 00
        E 120 90 49 60
        E 0 90 55 60
        E 0 90 61 60
        E 720 80 49 00
        E 240 80 55 00
        E 0 80 61 00
        E 240 90 3c 60
        E 0 90 49 60
        E 0 90 55 60
        E 0 90 61 60
        E 0 90 74 60
        E 120 80 3c 00
        E 0 80 49 00
        E 0 80 55 00
        E 0 80 61 00
        E 120 90 57 60
        E 0 90 63 60
        E 120 80 57 00
        E 0 80 63 00
        E 120 90 4b 60
        E 0 90 58 60
        E 0 90 64 60
        E 120 80 4b 00
        E 0 80 58 00
        E 0 80 64 00
        E 120 90 56 60
        E 0 90 62 60
        E 360 80 56 00
        E 0 80 62 00
        E 120 90 3e 60
        E 0 90 4b 60
        E 0 90 57 60
        E 0 90 63 60
        E 120 80 3e 00
        E 0 80 4b 00
        E 240 80 57 00
        E 0 80 63 00
        E 120 90 4b 60
        E 0 90 57 60
        E 0 90 63 60
        E 1920 80 4b 00
        E 0 80 57 00
        E 0 80 63 00
        E 360 80 74 00
        E 120 90 56 60
        E 0 90 62 60
        E 120 80 56 00
        E 0 80 62 00
        E 0 90 62 60
        E 120 80 62 00
        E 0 90 3e 60
        E 0 90 4b 60
        E 0 90 57 60
        E 0 90 63 60
        E 120 80 3e 00
        E 0 80 4b 00
        E 0 80 57 00
        E 0 80 63 00
        E 0 90 63 60
        E 120 80 63 00
        E 0 90 58 60
        E 0 90 64 60
        E 120 80 58 00
        E 0 80 64 00
        E 0 90 64 60
        E 120 80 64 00
        E 240 90 55 60
        E 0 90 61 60
        E 120 80 55 00
        E 0 80 61 00
        E 0 90 61 60
        E 120 80 61 00
        E 0 90 3e 60
        E 0 90 4b 60
        E 0 90 57 60
        E 0 90 63 60
        E 120 80 3e 00
        E 0 80 4b 00
        E 0 80 57 00
        E 0 80 63 00
        E 0 90 63 60
        E 120 80 63 00
        E 0 90 58 60
        E 0 90 64 60
        E 120 80 58 00
        E 0 80 64 00
        E 0 90 64 60
        E 120 80 64 00
        E 120 80 2b 00
        E 120 90 2f 60
        E 0 90 55 60
        E 0 90 61 60
        E 120 80 55 00
        E 0 80 61 00
        E 0 90 61 60
        E 120 80 61 00
        E 0 90 3d 60
        E 0 90 4a 60
        E 0 90 56 60
        E 0 90 62 60
        E 120 80 3d 00
        E 0 80 4a 00
        E 0 80 56 00
        E 0 80 62 00
        E 0 90 62 60
        E 120 80 62 00
        E 0 90 58 60
        E 0 90 64 60
        E 120 80 58 00
        E 0 80 64 00
        E 0 90 64 60
        E 120 80 64 00
        E 120 80 2f 00
        E 120 90 2b 60
        E 0 90 55 60
        E 0 90 61 60
        E 120 80 55 00
        E 0 80 61 00
        E 0 90 61 60
        E 120 80 61 00
        E 0 90 3d 60
        E 0 90 4a 60
        E 0 90 56 60
        E 0 90 62 60
        E 120 80 3d 00
        E 0 80 4a 00
        E 0 80 56 00
        E 0 80 62 00
        E 0 90 62 60
        E 120 80 62 00
        E 0 90 57 60
        E 0 90 63 60
        E 120 80 2b 00
        E 0 80 57 00
        E 0 80 63 00
        E 0 90 63 60
        E 120 80 63 00
        E 0 90 2d 60
        E 0 90 3d 60
        E 0 90 4a 60
        E 0 90 56 60
        E 0 90 62 60
        E 120 80 3d 00
        E 0 80 4a 00
        E 0 80 56 00
        E 0 80 62 00
        E 0 90 62 60
        E 120 80 62 00
        E 0 90 57 60
        E 0 90 63 60
        E 120 80 57 00
        E 0 80 63 00
        E 0 90 63 60
        E 120 80 63 00
        E 0 90 4b 60
        E 0 90 58 60
        E 0 90 64 60
        E 120 80 4b 00
        E 0 80 58 00
        E 0 80 64 00
        E 0 90 64 60
        E 120 80 64 00
        E 0 90 56 60
        E 0 90 62 60
        E 120 80 2d 00
        E 0 80 56 00
        E 0 80 62 00
        E 0 90 62 60
        E 120 80 62 00
        E 0 90 2b 60
        E 0 90 3c 60
        E 0 90 49 60
        E 0 90 55 60
        E 0 90 61 60
        E 120 80 3c 00
        E 0 80 49 00
        E 0 80 55 00
        E 0 80 61 00
        E 0 90 61 60
        E 120 80 61 00
        E 0 90 57 60
        E 0 90 63 60
        E 120 80 57 00
        E 0 80 63 00
        E 0 90 63 60
        E 120 80 63 00
        E 0 90 4b 60
        E 0 90 58 60
        E 0 90 64 60
        E 120 80 4b 00
        E 0 80 58 00
        E 0 80 64 00
        E 0 90 64 60
        E 120 80 64 00
        E 0 90 55 60
        E 0 90 61 60
        E 120 80 2b 00
        E 0 80 55 00
        E 0 80 61 00
        E 0 90 61 60
        E 120 80 61 00
        E 0 90 28 60
        E 0 90 3c 60
        E 0 90 48 60
        E 0 90 54 60
        E 0 90 60 60
        E 120 80 3c 00
        E 0 80 48 00
        E 0 80 54 00
        E 0 80 60 00
        E 0 90 60 60
        E 120 80 60 00
        E 0 90 56 60
        E 0 90 62 60
        E 120 80 56 00
        E 0 80 62 00
        E 0 90 62 60
        E 120 80 62 00
        E 0 90 4b 60
        E 0 90 57 60
        E 0 90 63 60
        E 120 80 4b 00
        E 0 80 57 00
        E 0 80 63 00
        E 0 90 63 60
        E 120 80 63 00
        E 0 90 56 60
        E 0 90 62 60
        E 120 80 28 00
        E 0 80 56 00
        E 0 80 62 00
        E 0 90 62 60
        E 120 80 62 00
        E 0 90 2b 60
        E 0 90 3c 60
        E 0 90 49 60
        E 0 90 55 60
        E 0 90 61 60
        E 120 80 3c 00
        E 0 80 49 00
        E 0 80 55 00
        E 0 80 61 00
        E 0 90 61 60
        E 120 80 61 00
        E 0 90 56 60
        E 0 90 62 60
        E 120 80 56 00
        E 0 80 62 00
        E 0 90 62 60
        E 120 80 62 00
        E 0 90 48 60
        E 0 90 54 60
        E 0 90 60 60
        E 120 80 48 00
        E 0 80 54 00
        E 0 80 60 00
        E 0 90 60 60
        E 120 80 60 00
        E 0 90 56 60
        E 0 90 62 60
        E 120 80 56 00
        E 0 80 62 00
        E 0 90 62 60
        E 120 80 62 00
        E 240 90 56 60
        E 0 90 62 60
        E 120 80 56 00
        E 0 80 62 00
        E 0 90 62 60
        E 120 80 62 00
        E 0 90 3e 60
        E 0 90 4b 60
        E 0 90 57 60
        E 0 90 63 60
        E 120 80 3e 00
        E 0 80 4b 00
        E 0 80 57 00
        E 0 80 63 00
        E 0 90 63 60
        E 120 80 63 00
        E 0 90 58 60
        E 0 90 64 60
        E 120 80 58 00
        E 0 80 64 00
        E 0 90 64 60
        E 120 80 64 00
        E 240 90 55 60
        E 0 90 61 60
        E 120 80 55 00
        E 0 80 61 00
        E 0 90 61 60
        E 120 80 61 00
        E 0 90 3e 60
        E 0 90 4b 60
        E 0 90 57 60
        E 0 90 63 60
        E 120 80 3e 00
        E 0 80 4b 00
        E 0 80 57 00
        E 0 80 63 00
        E 0 90 63 60
        E 120 80 63 00
        E 0 90 58 60
        E 0 90 64 60
        E 120 80 58 00
        E 0 80 64 00
        E 0 90 64 60
        E 120 80 64 00
        E 120 80 2b 00
        E 120 90 2f 60
        E 0 90 55 60
        E 0 90 61 60
        E 120 80 55 00
        E 0 80 61 00
        E 0 90 61 60
        E 120 80 61 00
        E 0 90 3d 60
        E 0 90 4a 60
        E 0 90 56 60
        E 0 90 62 60
        E 120 80 3d 00
        E 0 80 4a 00
        E 0 80 56 00
        E 0 80 62 00
        E 0 90 62 60
        E 120 80 62 00
        E 0 90 58 60
        E 0 90 64 60
        E 120 80 58 00
        E 0 80 64 00
        E 0 90 64 60
        E 120 80 64 00
        E 120 80 2f 00
        E 120 90 2b 60
        E 0 90 55 60
        E 0 90 61 60
        E 120 80 55 00
        E 0 80 61 00
        E 0 90 61 60
        E 120 80 61 00
        E 0 90 4a 60
        E 0 90 56 60
        E 0 90 62 60
        E 120 80 4a 00
        E 0 80 56 00
        E 0 80 62 00
        E 0 90 62 60
        E 120 80 62 00
        E 0 90 57 60
        E 0 90 63 60
        E 120 80 2b 00
        E 0 80 57 00
        E 0 80 63 00
        E 0 90 63 60
        E 120 80 63 00
        E 0 90 2d 60
        E 0 90 3d 60
        E 0 90 4a 60
        E 0 90 56 60
        E 0 90 62 60
        E 120 80 3d 00
        E 0 80 4a 00
        E 0 80 56 00
        E 0 80 62 00
        E 0 90 62 60
        E 120 80 62 00
        E 0 90 57 60
        E 0 90 63 60
        E 120 80 57 00
        E 0 80 63 00
        E 0 90 63 60
        E 120 80 63 00
        E 0 90 4b 60
        E 0 90 58 60
        E 0 90 64 60
        E 120 80 4b 00
        E 0 80 58 00
        E 0 80 64 00
        E 0 90 64 60
        E 120 80 64 00
        E 0 90 56 60
        E 0 90 62 60
        E 120 80 2d 00
        E 0 80 56 00
        E 0 80 62 00
        E 0 90 62 60
        E 120 80 62 00
        E 0 90 2b 60
        E 0 90 3c 60
        E 0 90 49 60
        E 0 90 55 60
        E 0 90 61 60
        E 120 80 3c 00
        E 0 80 49 00
        E 0 80 55 00
        E 0 80 61 00
        E 0 90 61 60
        E 120 80 61 00
        E 0 90 57 60
        E 0 90 63 60
        E 120 80 57 00
        E 0 80 63 00
        E 0 90 63 60
        E 120 80 63 00
        E 0 90 4b 60
        E 0 90 58 60
        E 0 90 64 60
        E 120 80 4b 00
        E 0 80 58 00
        E 0 80 64 00
        E 0 90 64 60
        E 120 80 64 00
        E 0 90 55 60
        E 0 90 61 60
        E 120 80 2b 00
        E 0 80 55 00
        E 0 80 61 00
        E 0 90 61 60
        E 120 80 61 00
        E 0 90 28 60
        E 0 90 3c 60
        E 0 90 48 60
        E 0 90 54 60
        E 0 90 60 60
        E 120 80 3c 00
        E 0 80 48 00
        E 0 80 54 00
        E 0 80 60 00
        E 0 90 60 60
        E 120 80 60 00
        E 0 90 56 60
        E 0 90 62 60
        E 120 80 56 00
        E 0 80 62 00
        E 0 90 62 60
        E 120 80 62 00
        E 0 90 4b 60
        E 0 90 57 60
        E 0 90 63 60
        E 120 80 4b 00
        E 0 80 57 00
        E 0 80 63 00
        E 0 90 63 60
        E 120 80 63 00
        E 0 90 56 60
        E 0 90 62 60
        E 120 80 28 00
        E 0 80 56 00
        E 0 80 62 00
        E 0 90 62 60
        E 120 80 62 00
        E 0 90 2b 60
        E 0 90 3c 60
        E 0 90 49 60
        E 0 90 55 60
        E 0 90 61 60
        E 120 80 3c 00
        E 0 80 49 00
        E 0 80 55 00
        E 0 80 61 00
        E 0 90 61 60
        E 120 80 61 00
        E 0 90 56 60
        E 0 90 62 60
        E 120 80 56 00
        E 0 80 62 00
        E 0 90 62 60
        E 120 80 62 00
        E 0 90 48 60
        E 0 90 54 60
        E 0 90 60 60
        E 120 80 48 00
        E 0 80 54 00
        E 0 80 60 00
        E 0 90 60 60
        E 120 80 60 00
        E 0 90 56 60
        E 0 90 62 60
        E 120 80 56 00
        E 0 80 62 00
        E 0 90 62 60
        E 120 80 62 00
        E 120 80 2b 00
        E 120 90 2f 60
        E 0 90 56 60
        E 0 90 62 60
        E 120 80 56 00
        E 0 80 62 00
        E 0 90 62 60
        E 120 80 62 00
        E 0 90 3e 60
        E 0 90 4b 60
        E 0 90 57 60
        E 0 90 63 60
        E 120 80 3e 00
        E 0 80 4b 00
        E 0 80 57 00
        E 0 80 63 00
        E 0 90 63 60
        E 120 80 63 00
        E 0 90 58 60
        E 0 90 64 60
        E 120 80 58 00
        E 0 80 64 00
        E 0 90 64 60
        E 120 80 64 00
        E 240 90 55 60
        E 0 90 61 60
        E 120 80 55 00
        E 0 80 61 00
        E 0 90 61 60
        E 120 80 61 00
        E 0 90 3e 60
        E 0 90 4b 60
        E 0 90 57 60
        E 0 90 63 60
        E 120 80 3e 00
        E 0 80 4b 00
        E 0 80 57 00
        E 0 80 63 00
        E 0 90 63 60
        E 120 80 63 00
        E 0 90 58 60
        E 0 90 64 60
        E 120 80 58 00
        E 0 80 64 00
        E 0 90 64 60
        E 120 80 64 00
        E 240 90 54 60
        E 0 90 60 60
        E 120 80 54 00
        E 0 80 60 00
        E 0 90 60 60
        E 120 80 60 00
        E 0 90 3e 60
        E 0 90 4b 60
        E 0 90 57 60
        E 0 90 63 60
        E 120 80 3e 00
        E 0 80 4b 00
        E 0 80 57 00
        E 0 80 63 00
        E 0 90 63 60
        E 120 80 63 00
        E 0 90 58 60
        E 0 90 64 60
        E 120 80 58 00
        E 0 80 64 00
        E 0 90 64 60
        E 120 80 64 00
        E 120 80 2f 00
        E 120 90 2b 60
        E 0 90 54 60
        E 0 90 60 60
        E 120 80 54 00
        E 0 80 60 00
        E 0 90 60 60
        E 120 80 60 00
        E 0 90 49 60
        E 0 90 55 60
        E 0 90 61 60
        E 120 80 49 00
        E 0 80 55 00
        E 0 80 61 00
        E 0 90 61 60
        E 120 80 61 00
        E 0 90 56 60
        E 0 90 62 60
        E 120 80 56 00
        E 0 80 62 00
        E 0 90 62 60
        E 120 80 62 00
        E 0 90 3e 60
        E 0 90 4b 60
        E 0 90 58 60
        E 0 90 64 60
        E 0 90 74 60
        E 120 80 3e 00
        E 0 80 4b 00
        E 0 80 58 00
        E 0 80 64 00
        E 120 90 57 60
        E 0 90 63 60
        E 120 80 57 00
        E 0 80 63 00
        E 120 90 4a 60
        E 0 90 56 60
        E 0 90 62 60
        E 120 80 4a 00
        E 0 80 56 00
        E 0 80 62 00
        E 120 90 57 60
        E 0 90 63 60
        E 120 80 57 00
        E 0 80 63 00
        E 120 90 3e 60
        E 0 90 4b 60
        E 0 90 57 60
        E 0 90 63 60
        E 120 80 3e 00
        E 0 80 4b 00
        E 0 80 57 00
        E 0 80 63 00
        E 120 90 57 60
        E 0 90 63 60
        E 120 80 57 00
        E 0 80 63 00
        E 120 90 4a 60
        E 0 90 56 60
        E 0 90 62 60
        E 120 80 4a 00
        E 0 80 56 00
        E 0 80 62 00
        E 120 90 57 60
        E 0 90 63 60
        E 120 80 57 00
        E 0 80 63 00
        E 120 90 3c 60
        E 0 90 49 60
        E 0 90 55 60
        E 0 90 61 60
        E 1440 80 3c 00
        E 0 80 49 00
        E 360 80 2b 00
        E 0 80 55 00
        E 0 80 61 00
        E 120 80 74 00
        E 0 90 2f 60
        E 0 90 3e 60
        E 0 90 4b 60
        E 0 90 57 60
        E 0 90 63 60
        E 120 80 3e 00
        E 0 80 4b 00
        E 0 80 57 00
        E 0 80 63 00
        E 0 90 63 60
        E 120 80 63 00
        E 0 90 55 60
        E 0 90 61 60
        E 120 80 55 00
        E 0 80 61 00
        E 0 90 61 60
        E 120 80 61 00
        E 0 90 4a 60
        E 0 90 56 60
        E 0 90 62 60
        E 120 80 4a 00
        E 0 80 56 00
        E 0 80 62 00
        E 0 90 62 60
        E 120 80 62 00
        E 0 90 57 60
        E 0 90 63 60
        E 120 80 57 00
        E 0 80 63 00
        E 0 90 63 60
        E 480 80 63 00
        E 120 90 49 60
        E 0 90 55 60
        E 0 90 61 60
        E 120 80 49 00
        E 0 80 55 00
        E 0 80 61 00
        E 0 90 61 60
        E 120 80 61 00
        E 120 80 2f 00
        E 120 90 31 60
        E 0 90 3e 60
        E 0 90 4b 60
        E 0 90 58 60
        E 0 90 64 60
        E 120 80 3e 00
        E 0 80 4b 00
        E 0 80 58 00
        E 0 80 64 00
        E 0 90 64 60
        E 120 80 64 00
        E 0 90 56 60
        E 0 90 62 60
        E 120 80 56 00
        E 0 80 62 00
        E 0 90 62 60
        E 120 80 62 00
        E 0 90 3e 60
        E 0 90 4b 60
        E 0 90 57 60
        E 0 90 63 60
        E 120 80 3e 00
        E 0 80 4b 00
        E 0 80 57 00
        E 0 80 63 00
        E 0 90 63 60
        E 120 80 63 00
        E 0 90 58 60
        E 0 90 64 60
        E 120 80 58 00
        E 0 80 64 00
        E 0 90 64 60
        E 480 80 64 00
        E 120 90 4a 60
        E 0 90 56 60
        E 0 90 62 60
        E 120 80 4a 00
        E 0 80 56 00
        E 0 80 62 00
        E 0 90 62 60
        E 120 80 62 00
        E 120 80 31 00
        E 120 90 2f 60
        E 0 90 3e 60
        E 0 90 4b 60
        E 0 90 57 60
        E 0 90 63 60
        E 120 80 3e 00
        E 0 80 4b 00
        E 0 80 57 00
        E 0 80 63 00
        E 0 90 63 60
        E 120 80 63 00
        E 0 90 54 60
        E 0 90 60 60
        E 120 80 54 00
        E 0 80 60 00
        E 0 90 60 60
        E 120 80 60 00
        E 0 90 49 60
        E 0 90 55 60
        E 0 90 61 60
        E 120 80 2f 00
        E 0 80 49 00
        E 0 80 55 00
        E 0 80 61 00
        E 0 90 61 60
        E 120 80 61 00
        E 0 90 2b 60
        E 0 90 56 60
        E 0 90 62 60
        E 120 80 56 00
        E 0 80 62 00
        E 0 90 62 60
        E 120 80 62 00
        E 0 90 3e 60
        E 0 90 4b 60
        E 0 90 57 60
        E 0 90 63 60
        E 120 80 3e 00
        E 0 80 4b 00
        E 0 80 57 00
        E 0 80 63 00
        E 0 90 63 60
        E 120 80 63 00
        E 0 90 54 60
        E 0 90 60 60
        E 120 80 54 00
        E 0 80 60 00
        E 0 90 60 60
        E 120 80 60 00
        E 0 90 49 60
        E 0 90 55 60
        E 0 90 61 60
        E 120 80 49 00
        E 0 80 55 00
        E 0 80 61 00
        E 0 90 61 60
        E 120 80 61 00
        E 0 90 57 60
        E 0 90 63 60
        E 120 80 57 00
        E 0 80 63 00
        E 0 90 63 60
        E 120 80 63 00
        E 0 90 3d 60
        E 0 90 4a 60
        E 0 90 56 60
        E 0 90 62 60
        E 120 80 3d 00
        E 0 80 4a 00
        E 0 80 56 00
        E 0 80 62 00
        E 0 90 62 60
        E 120 80 62 00
        E 0 90 54 60
        E 0 90 60 60
        E 120 80 54 00
        E 0 80 60 00
        E 0 90 60 60
        E 120 80 60 00
        E 0 90 49 60
        E 0 90 55 60
        E 0 90 61 60
        E 120 80 49 00
        E 0 80 55 00
        E 0 80 61 00
        E 0 90 61 60
        E 120 80 61 00
        E 0 90 56 60
        E 0 90 62 60
        E 120 80 56 00
        E 0 80 62 00
        E 0 90 62 60
        E 120 80 62 00
        E 0 90 3e 60
        E 0 90 4b 60
        E 0 90 57 60
        E 0 90 63 60
        E 120 80 3e 00
        E 0 80 4b 00
        E 0 80 57 00
        E 0 80 63 00
        E 0 90 63 60
        E 120 80 63 00
        E 0 90 55 60
        E 0 90 61 60
        E 120 80 55 00
        E 0 80 61 00
        E 0 90 61 60
        E 120 80 61 00
        E 0 90 4a 60
        E 0 90 56 60
        E 0 90 62 60
        E 120 80 4a 00
        E 0 80 56 00
        E 0 80 62 00
        E 0 90 62 60
        E 120 80 62 00
        E 0 90 57 60
        E 0 90 63 60
        E 120 80 2b 00
        E 0 80 57 00
        E 0 80 63 00
        E 120 90 34 60
        E 0 90 3e 60
        E 0 90 4b 60
        E 0 90 58 60
        E 0 90 64 60
        E 120 80 3e 00
        E 0 80 4b 00
        E 0 80 58 00
        E 0 80 64 00
        E 0 90 64 60
        E 120 80 64 00
        E 0 90 57 60
        E 0 90 63 60
        E 120 80 57 00
        E 0 80 63 00
        E 0 90 63 60
        E 120 80 63 00
        E 0 90 49 60
        E 0 90 55 60
        E 0 90 61 60
        E 120 80 49 00
        E 0 80 55 00
        E 0 80 61 00
        E 0 90 61 60
        E 120 80 61 00
        E 0 90 57 60
        E 0 90 63 60
        E 120 80 34 00
        E 0 80 57 00
        E 0 80 63 00
        E 0 90 63 60
        E 120 80 63 00
        E 0 90 31 60
        E 0 90 3d 60
        E 0 90 4a 60
        E 0 90 56 60
        E 0 90 62 60
        E 120 80 3d 00
        E 0 80 4a 00
        E 0 80 56 00
        E 0 80 62 00
        E 0 90 62 60
        E 120 80 62 00
        E 0 90 55 60
        E 0 90 61 60
        E 120 80 55 00
        E 0 80 61 00
        E 0 90 61 60
        E 120 80 61 00
        E 0 90 48 60
        E 0 90 54 60
        E 0 90 60 60
        E 120 80 48 00
        E 0 80 54 00
        E 0 80 60 00
        E 0 90 60 60
        E 120 80 60 00
        E 120 80 31 00
        E 120 90 2d 60
        E 0 90 3e 60
        E 0 90 4b 60
        E 0 90 57 60
        E 0 90 63 60
        E 120 80 3e 00
        E 0 80 4b 00
        E 0 80 57 00
        E 0 80 63 00
        E 0 90 63 60
        E 120 80 63 00
        E 0 90 56 60
        E 0 90 62 60
        E 120 80 56 00
        E 0 80 62 00
        E 0 90 62 60
        E 120 80 62 00
        E 0 90 48 60
        E 0 90 54 60
        E 0 90 60 60
        E 120 80 48 00
        E 0 80 54 00
        E 0 80 60 00
        E 0 90 60 60
        E 120 80 60 00
        E 0 90 56 60
        E 0 90 62 60
        E 120 80 2d 00
        E 0 80 56 00
        E 0 80 62 00
        E 0 90 62 60
        E 120 80 62 00
        E 0 90 31 60
        E 0 90 3e 60
        E 0 90 4b 60
        E 0 90 58 60
        E 0 90 64 60
        E 120 80 3e 00
        E 0 80 4b 00
        E 0 80 58 00
        E 0 80 64 00
        E 0 90 64 60
        E 120 80 64 00
        E 0 90 57 60
        E 0 90 63 60
        E 120 80 57 00
        E 0 80 63 00
        E 0 90 63 60
        E 120 80 63 00
        E 0 90 4a 60
        E 0 90 56 60
        E 0 90 62 60
        E 120 80 4a 00
        E 0 80 56 00
        E 0 80 62 00
        E 0 90 62 60
        E 120 80 62 00
        E 120 80 31 00
        E 120 90 34 60
        E 0 90 3e 60
        E 0 90 4b 60
        E 0 90 58 60
        E 0 90 64 60
        E 120 80 3e 00
        E 0 80 4b 00
        E 0 80 58 00
        E 0 80 64 00
        E 0 90 64 60
        E 120 80 64 00
        E 0 90 57 60
        E 0 90 63 60
        E 120 80 57 00
        E 0 80 63 00
        E 0 90 63 60
        E 120 80 63 00
        E 0 90 49 60
        E 0 90 55 60
        E 0 90 61 60
        E 120 80 49 00
        E 0 80 55 00
        E 0 80 61 00
        E 0 90 61 60
        E 120 80 61 00
        E 0 90 57 60
        E 0 90 63 60
        E 120 80 34 00
        E 0 80 57 00
        E 0 80 63 00
        E 0 90 63 60
        E 120 80 63 00
        E 0 90 31 60
        E 0 90 3d 60
        E 0 90 4a 60
        E 0 90 56 60
        E 0 90 62 60
        E 120 80 3d 00
        E 0 80 4a 00
        E 0 80 56 00
        E 0 80 62 00
        E 0 90 62 60
        E 120 80 62 00
        E 0 90 55 60
        E 0 90 61 60
        E 120 80 55 00
        E 0 80 61 00
        E 0 90 61 60
        E 120 80 61 00
        E 0 90 48 60
        E 0 90 54 60
        E 0 90 60 60
        E 120 80 48 00
        E 0 80 54 00
        E 0 80 60 00
        E 0 90 60 60
        E 120 80 60 00
        E 120 80 31 00
        E 120 90 34 60
        E 0 90 3e 60
        E 0 90 4b 60
        E 0 90 57 60
        E 0 90 63 60
        E 120 80 3e 00
        E 0 80 4b 00
        E 0 80 57 00
        E 0 80 63 00
        E 120 90 4b 60
        E 0 90 57 60
        E 0 90 63 60
        E 120 80 4b 00
        E 0 80 57 00
        E 0 80 63 00
        E 120 90 3e 60
        E 0 90 4b 60
        E 0 90 57 60
        E 0 90 63 60
        E 120 80 3e 00
        E 0 80 4b 00
        E 0 80 57 00
        E 0 80 63 00
        E 120 90 57 60
        E 0 90 63 60
        E 120 80 57 00
        E 0 80 63 00
        E 120 90 3e 60
        E 0 90 4b 60
        E 0 90 58 60
        E 0 90 64 60
        E 120 80 3e 00
        E 0 80 4b 00
        E 0 80 58 00
        E 0 80 64 00
        E 120 90 56 60
        E 0 90 62 60
        E 360 80 56 00
        E 0 80 62 00
        E 120 90 49 60
        E 0 90 55 60
        E 0 90 61 60
        E 1920 80 49 00
        E 0 80 55 00
        E 0 80 61 00
        E 360 80 34 00
        E 120 90 2b 60
        E 0 90 56 60
        E 0 90 62 60
        E 120 80 56 00
        E 0 80 62 00
        E 0 90 62 60
        E 120 80 62 00
        E 0 90 3e 60
        E 0 90 4b 60
        E 0 90 57 60
        E 0 90 63 60
        E 120 80 3e 00
        E 0 80 4b 00
        E 0 80 57 00
        E 0 80 63 00
        E 0 90 63 60
        E 120 80 63 00
        E 0 90 58 60
        E 0 90 64 60
        E 120 80 58 00
        E 0 80 64 00
        E 0 90 64 60
        E 120 80 64 00
        E 240 90 55 60
        E 0 90 61 60
        E 120 80 55 00
        E 0 80 61 00
        E 0 90 61 60
        E 120 80 61 00
        E 0 90 3e 60
        E 0 90 4b 60
        E 0 90 57 60
        E 0 90 63 60
        E 120 80 3e 00
        E 0 80 4b 00
        E 0 80 57 00
        E 0 80 63 00
        E 0 90 63 60
        E 120 80 63 00
        E 0 90 58 60
        E 0 90 64 60
        E 120 80 58 00
        E 0 80 64 00
        E 0 90 64 60
        E 120 80 64 00
        E 120 80 2b 00
        E 120 90 2f 60
        E 0 90 55 60
        E 0 90 61 60
        E 120 80 55 00
        E 0 80 61 00
        E 0 90 61 60
        E 120 80 61 00
        E 0 90 3d 60
        E 0 90 4a 60
        E 0 90 56 60
        E 0 90 62 60
        E 120 80 3d 00
        E 0 80 4a 00
        E 0 80 56 00
        E 0 80 62 00
        E 0 90 62 60
        E 120 80 62 00
        E 0 90 58 60
        E 0 90 64 60
        E 120 80 58 00
        E 0 80 64 00
        E 0 90 64 60
        E 120 80 64 00
        E 120 80 2f 00
        E 120 90 2b 60
        E 0 90 55 60
        E 0 90 61 60
        E 120 80 55 00
        E 0 80 61 00
        E 0 90 61 60
        E 120 80 61 00
        E 0 90 3d 60
        E 0 90 4a 60
        E 0 90 56 60
        E 0 90 62 60
        E 120 80 3d 00
        E 0 80 4a 00
        E 0 80 56 00
        E 0 80 62 00
        E 0 90 62 60
        E 120 80 62 00
        E 0 90 57 60
        E 0 90 63 60
        E 120 80 2b 00
        E 0 80 57 00
        E 0 80 63 00
        E 0 90 63 60
        E 120 80 63 00
        E 0 90 2d 60
        E 0 90 3d 60
        E 0 90 4a 60
        E 0 90 56 60
        E 0 90 62 60
        E 120 80 3d 00
        E 0 80 4a 00
        E 0 80 56 00
        E 0 80 62 00
        E 0 90 62 60
        E 120 80 62 00
        E 0 90 57 60
        E 0 90 63 60
        E 120 80 57 00
        E 0 80 63 00
        E 0 90 63 60
        E 120 80 63 00
        E 0 90 4b 60
        E 0 90 58 60
        E 0 90 64 60
        E 120 80 4b 00
        E 0 80 58 00
        E 0 80 64 00
        E 0 90 64 60
        E 120 80 64 00
        E 0 90 56 60
        E 0 90 62 60
        E 120 80 2d 00
        E 0 80 56 00
        E 0 80 62 00
        E 0 90 62 60
        E 120 80 62 00
        E 0 90 2b 60
        E 0 90 3c 60
        E 0 90 49 60
        E 0 90 55 60
        E 0 90 61 60
        E 120 80 3c 00
        E 0 80 49 00
        E 0 80 55 00
        E 0 80 61 00
        E 0 90 61 60
        E 120 80 61 00
        E 0 90 57 60
        E 0 90 63 60
        E 120 80 57 00
        E 0 80 63 00
        E 0 90 63 60
        E 120 80 63 00
        E 0 90 4b 60
        E 0 90 58 60
        E 0 90 64 60
        E 120 80 4b 00
        E 0 80 58 00
        E 0 80 64 00
        E 0 90 64 60
        E 120 80 64 00
        E 0 90 55 60
        E 0 90 61 60
        E 120 80 2b 00
        E 0 80 55 00
        E 0 80 61 00
        E 0 90 61 60
        E 120 80 61 00
        E 0 90 28 60
        E 0 90 3c 60
        E 0 90 48 60
        E 0 90 54 60
        E 0 90 60 60
        E 0 90 74 60
        E 120 80 3c 00
        E 0 80 48 00
        E 0 80 54 00
        E 0 80 60 00
        E 0 90 60 60
        E 120 80 60 00
        E 0 90 56 60
        E 0 90 62 60
        E 120 80 56 00
        E 0 80 62 00
        E 0 90 62 60
        E 120 80 62 00
        E 0 90 4b 60
        E 0 90 57 60
        E 0 90 63 60
        E 120 80 4b 00
        E 0 80 57 00
        E 0 80 63 00
        E 0 90 63 60
        E 120 80 63 00
        E 0 90 56 60
        E 0 90 62 60
        E 120 80 28 00
        E 0 80 56 00
        E 0 80 62 00
        E 0 90 62 60
        E 120 80 62 00
        E 0 90 2b 60
        E 0 90 3c 60
        E 0 90 49 60
        E 0 90 55 60
        E 0 90 61 60
        E 120 80 3c 00
        E 0 80 49 00
        E 0 80 55 00
        E 0 80 61 00
        E 0 90 61 60
        E 120 80 61 00
        E 0 90 56 60
        E 0 90 62 60
        E 120 80 56 00
        E 0 80 62 00
        E 0 90 62 60
        E 120 80 62 00
        E 0 90 48 60
        E 0 90 54 60
        E 0 90 60 60
        E 120 80 48 00
        E 0 80 54 00
        E 0 80 60 00
        E 0 90 60 60
        E 120 80 60 00
        E 0 90 56 60
        E 0 90 62 60
        E 120 80 56 00
        E 0 80 62 00
        E 0 90 62 60
        E 120 80 74 00
        E 0 80 62 00
        E 120 80 2b 00
        E 120 90 56 60
        E 0 90 62 60
        E 120 80 56 00
        E 0 80 62 00
        E 0 90 62 60
        E 120 80 62 00
        E 0 90 3e 60
        E 0 90 4b 60
        E 0 90 57 60
        E 0 90 63 60
        E 120 80 3e 00
        E 0 80 4b 00
        E 0 80 57 00
        E 0 80 63 00
        E 0 90 63 60
        E 120 80 63 00
        E 0 90 58 60
        E 0 90 64 60
        E 120 80 58 00
        E 0 80 64 00
        E 0 90 64 60
        E 120 80 64 00
        E 240 90 55 60
        E 0 90 61 60
        E 120 80 55 00
        E 0 80 61 00
        E 0 90 61 60
        E 120 80 61 00
        E 0 90 3e 60
        E 0 90 4b 60
        E 0 90 57 60
        E 0 90 63 60
        E 120 80 3e 00
        E 0 80 4b 00
        E 0 80 57 00
        E 0 80 63 00
        E 0 90 63 60
        E 120 80 63 00
        E 0 90 58 60
        E 0 90 64 60
        E 120 80 58 00
        E 0 80 64 00
        E 0 90 64 60
        E 120 80 64 00
        E 240 90 2f 60
        E 0 90 55 60
        E 0 90 61 60
        E 120 80 55 00
        E 0 80 61 00
        E 0 90 61 60
        E 120 80 61 00
        E 0 90 3d 60
        E 0 90 4a 60
        E 0 90 56 60
        E 0 90 62 60
        E 120 80 3d 00
        E 0 80 4a 00
        E 0 80 56 00
        E 0 80 62 00
        E 0 90 62 60
        E 120 80 62 00
        E 0 90 58 60
        E 0 90 64 60
        E 120 80 58 00
        E 0 80 64 00
        E 0 90 64 60
        E 120 80 64 00
        E 120 80 2f 00
        E 120 90 2b 60
        E 0 90 55 60
        E 0 90 61 60
        E 120 80 55 00
        E 0 80 61 00
        E 0 90 61 60
        E 120 80 61 00
        E 0 90 3d 60
        E 0 90 4a 60
        E 0 90 56 60
        E 0 90 62 60
        E 120 80 3d 00
        E 0 80 4a 00
        E 0 80 56 00
        E 0 80 62 00
        E 0 90 62 60
        E 120 80 62 00
        E 0 90 57 60
        E 0 90 63 60
        E 120 80 2b 00
        E 0 80 57 00
        E 0 80 63 00
        E 0 90 63 60
        E 120 80 63 00
        E 0 90 2d 60
        E 0 90 3d 60
        E 0 90 4a 60
        E 0 90 56 60
        E 0 90 62 60
        E 120 80 3d 00
        E 0 80 4a 00
        E 0 80 56 00
        E 0 80 62 00
        E 0 90 62 60
        E 120 80 62 00
        E 0 90 57 60
        E 0 90 63 60
        E 120 80 57 00
        E 0 80 63 00
        E 0 90 63 60
        E 120 80 63 00
        E 0 90 4b 60
        E 0 90 58 60
        E 0 90 64 60
        E 120 80 4b 00
        E 0 80 58 00
        E 0 80 64 00
        E 0 90 64 60
        E 120 80 64 00
        E 0 90 56 60
        E 0 90 62 60
        E 120 80 2d 00
        E 0 80 56 00
        E 0 80 62 00
        E 0 90 62 60
        E 120 80 62 00
        E 0 90 2b 60
        E 0 90 3c 60
        E 0 90 49 60
        E 0 90 55 60
        E 0 90 61 60
        E 120 80 3c 00
        E 0 80 49 00
        E 0 80 55 00
        E 0 80 61 00
        E 0 90 61 60
        E 120 80 61 00
        E 0 90 57 60
        E 0 90 63 60
        E 120 80 57 00
        E 0 80 63 00
        E 0 90 63 60
        E 120 80 63 00
        E 0 90 4b 60
        E 0 90 58 60
        E 0 90 64 60
        E 120 80 4b 00
        E 0 80 58 00
        E 0 80 64 00
        E 0 90 64 60
        E 120 80 64 00
        E 0 90 55 60
        E 0 90 61 60
        E 120 80 2b 00
        E 0 80 55 00
        E 0 80 61 00
        E 0 90 61 60
        E 120 80 61 00
        E 0 90 28 60
        E 0 90 3c 60
        E 0 90 48 60
        E 0 90 54 60
        E 0 90 60 60
        E 120 80 3c 00
        E 0 80 48 00
        E 0 80 54 00
        E 0 80 60 00
        E 0 90 60 60
        E 120 80 60 00
        E 0 90 56 60
        E 0 90 62 60
        E 120 80 56 00
        E 0 80 62 00
        E 0 90 62 60
        E 120 80 62 00
        E 0 90 4b 60
        E 0 90 57 60
        E 0 90 63 60
        E 120 80 4b 00
        E 0 80 57 00
        E 0 80 63 00
        E 0 90 63 60
        E 120 80 63 00
        E 0 90 56 60
        E 0 90 62 60
        E 120 80 28 00
        E 0 80 56 00
        E 0 80 62 00
        E 0 90 62 60
        E 120 80 62 00
        E 0 90 2b 60
        E 0 90 3c 60
        E 0 90 49 60
        E 0 90 55 60
        E 0 90 61 60
        E 120 80 3c 00
        E 0 80 49 00
        E 0 80 55 00
        E 0 80 61 00
        E 0 90 61 60
        E 120 80 61 00
        E 0 90 56 60
        E 0 90 62 60
        E 120 80 56 00
        E 0 80 62 00
        E 0 90 62 60
        E 120 80 62 00
        E 0 90 48 60
        E 0 90 54 60
        E 0 90 60 60
        E 120 80 48 00
        E 0 80 54 00
        E 0 80 60 00
        E 0 90 60 60
        E 120 80 60 00
        E 0 90 56 60
        E 0 90 62 60
        E 120 80 56 00
        E 0 80 62 00
        E 0 90 62 60
        E 120 80 62 00
        E 120 80 2b 00
        E 120 90 2f 60
        E 0 90 56 60
        E 0 90 62 60
        E 120 80 56 00
        E 0 80 62 00
        E 0 90 62 60
        E 120 80 62 00
        E 0 90 3e 60
        E 0 90 4b 60
        E 0 90 57 60
        E 0 90 63 60
        E 120 80 3e 00
        E 0 80 4b 00
        E 0 80 57 00
        E 0 80 63 00
        E 0 90 63 60
        E 120 80 63 00
        E 0 90 58 60
        E 0 90 64 60
        E 120 80 58 00
        E 0 80 64 00
        E 0 90 64 60
        E 120 80 64 00
        E 240 90 55 60
        E 0 90 61 60
        E 120 80 55 00
        E 0 80 61 00
        E 0 90 61 60
        E 120 80 61 00
        E 0 90 3e 60
        E 0 90 4b 60
        E 0 90 57 60
        E 0 90 63 60
        E 120 80 3e 00
        E 0 80 4b 00
        E 0 80 57 00
        E 0 80 63 00
        E 0 90 63 60
        E 120 80 63 00
        E 0 90 58 60
        E 0 90 64 60
        E 120 80 58 00
        E 0 80 64 00
        E 0 90 64 60
        E 120 80 64 00
        E 240 90 54 60
        E 0 90 60 60
        E 120 80 54 00
        E 0 80 60 00
        E 0 90 60 60
        E 120 80 60 00
        E 0 90 3e 60
        E 0 90 4b 60
        E 0 90 57 60
        E 0 90 63 60
        E 120 80 3e 00
        E 0 80 4b 00
        E 0 80 57 00
        E 0 80 63 00
        E 0 90 63 60
        E 120 80 63 00
        E 0 90 58 60
        E 0 90 64 60
        E 120 80 58 00
        E 0 80 64 00
        E 0 90 64 60
        E 120 80 64 00
        E 120 80 2f 00
        E 120 90 2b 60
        E 0 90 54 60
        E 0 90 60 60
        E 120 80 54 00
        E 0 80 60 00
        E 0 90 60 60
        E 120 80 60 00
        E 0 90 49 60
        E 0 90 55 60
        E 0 90 61 60
        E 120 80 49 00
        E 0 80 55 00
        E 0 80 61 00
        E 0 90 61 60
        E 120 80 61 00
        E 0 90 56 60
        E 0 90 62 60
        E 120 80 56 00
        E 0 80 62 00
        E 0 90 62 60
        E 120 80 62 00
        E 0 90 3e 60
        E 0 90 4b 60
        E 0 90 58 60
        E 0 90 64 60
        E 120 80 3e 00
        E 0 80 4b 00
        E 0 80 58 00
        E 0 80 64 00
        E 120 90 57 60
        E 0 90 63 60
        E 120 80 57 00
        E 0 80 63 00
        E 120 90 4a 60
        E 0 90 56 60
        E 0 90 62 60
        E 120 80 4a 00
        E 0 80 56 00
        E 0 80 62 00
        E 120 90 57 60
        E 0 90 63 60
        E 120 80 57 00
        E 0 80 63 00
        E 120 90 3e 60
        E 0 90 4b 60
        E 0 90 57 60
        E 0 90 63 60
        E 120 80 3e 00
        E 0 80 4b 00
        E 0 80 57 00
        E 0 80 63 00
        E 120 90 57 60
        E 0 90 63 60
        E 120 80 57 00
        E 0 80 63 00
        E 120 90 4a 60
        E 0 90 56 60
        E 0 90 62 60
        E 120 80 4a 00
        E 0 80 56 00
        E 0 80 62 00
        E 120 90 57 60
        E 0 90 63 60
        E 120 80 57 00
        E 0 80 63 00
        E 120 90 3c 60
        E 0 90 49 60
        E 0 90 55 60
        E 0 90 61 60
        E 1440 80 3c 00
        E 0 80 49 00
        E 360 80 2b 00
        E 0 80 55 00
        E 0 80 61 00
        E 120 90 2f 60
        E 0 90 3e 60
        E 0 90 4b 60
        E 0 90 57 60
        E 0 90 63 60
        E 0 90 74 60
        E 120 80 3e 00
        E 0 80 4b 00
        E 0 80 57 00
        E 0 80 63 00
        E 0 90 63 60
        E 120 80 63 00
        E 0 90 55 60
        E 0 90 61 60
        E 120 80 55 00
        E 0 80 61 00
        E 0 90 61 60
        E 120 80 61 00
        E 0 90 4a 60
        E 0 90 56 60
        E 0 90 62 60
        E 120 80 4a 00
        E 0 80 56 00
        E 0 80 62 00
        E 0 90 62 60
        E 120 80 62 00
        E 0 90 57 60
        E 0 90 63 60
        E 120 80 57 00
        E 0 80 63 00
        E 0 90 63 60
        E 480 80 63 00
        E 120 90 49 60
        E 0 90 55 60
        E 0 90 61 60
        E 120 80 49 00
        E 0 80 55 00
        E 0 80 61 00
        E 0 90 61 60
        E 120 80 61 00
        E 120 80 2f 00
        E 120 90 31 60
        E 0 90 3e 60
        E 0 90 4b 60
        E 0 90 58 60
        E 0 90 64 60
        E 120 80 3e 00
        E 0 80 4b 00
        E 0 80 58 00
        E 0 80 64 00
        E 0 90 64 60
        E 120 80 64 00
        E 0 90 56 60
        E 0 90 62 60
        E 120 80 56 00
        E 0 80 62 00
        E 0 90 62 60
        E 120 80 62 00
        E 0 90 3e 60
        E 0 90 4b 60
        E 0 90 57 60
        E 0 90 63 60
        E 120 80 3e 00
        E 0 80 4b 00
        E 0 80 57 00
        E 0 80 63 00
        E 0 90 63 60
        E 120 80 63 00
        E 0 90 58 60
        E 0 90 64 60
        E 120 80 58 00
        E 0 80 64 00
        E 0 90 64 60
        E 480 80 64 00
        E 120 90 4a 60
        E 0 90 56 60
        E 0 90 62 60
        E 120 80 4a 00
        E 0 80 56 00
        E 0 80 62 00
        E 0 90 62 60
        E 120 80 62 00
        E 120 80 31 00
        E 120 90 2f 60
        E 0 90 3e 60
        E 0 90 4b 60
        E 0 90 57 60
        E 0 90 63 60
        E 120 80 74 00
        E 0 80 3e 00
        E 0 80 4b 00
        E 0 80 57 00
        E 0 80 63 00
        E 0 90 63 60
        E 120 80 63 00
        E 0 90 54 60
        E 0 90 60 60
        E 120 80 54 00
        E 0 80 60 00
        E 0 90 60 60
        E 120 80 60 00
        E 0 90 49 60
        E 0 90 55 60
        E 0 90 61 60
        E 120 80 2f 00
        E 0 80 49 00
        E 0 80 55 00
        E 0 80 61 00
        E 0 90 61 60
        E 120 80 61 00
        E 0 90 2b 60
        E 0 90 56 60
        E 0 90 62 60
        E 120 80 56 00
        E 0 80 62 00
        E 0 90 62 60
        E 120 80 62 00
        E 0 90 3e 60
        E 0 90 4b 60
        E 0 90 57 60
        E 0 90 63 60
        E 120 80 3e 00
        E 0 80 4b 00
        E 0 80 57 00
        E 0 80 63 00
        E 0 90 63 60
        E 120 80 63 00
        E 0 90 54 60
        E 0 90 60 60
        E 120 80 54 00
        E 0 80 60 00
        E 0 90 60 60
        E 120 80 60 00
        E 0 90 49 60
        E 0 90 55 60
        E 0 90 61 60
        E 120 80 49 00
        E 0 80 55 00
        E 0 80 61 00
        E 0 90 61 60
        E 120 80 61 00
        E 0 90 57 60
        E 0 90 63 60
        E 120 80 57 00
        E 0 80 63 00
        E 0 90 63 60
        E 120 80 63 00
        E 0 90 3d 60
        E 0 90 4a 60
        E 0 90 56 60
        E 0 90 62 60
        E 120 80 3d 00
        E 0 80 4a 00
        E 0 80 56 00
        E 0 80 62 00
        E 0 90 62 60
        E 120 80 62 00
        E 0 90 54 60
        E 0 90 60 60
        E 120 80 54 00
        E 0 80 60 00
        E 0 90 60 60
        E 120 80 60 00
        E 0 90 49 60
        E 0 90 55 60
        E 0 90 61 60
        E 120 80 49 00
        E 0 80 55 00
        E 0 80 61 00
        E 0 90 61 60
        E 120 80 61 00
        E 0 90 56 60
        E 0 90 62 60
        E 120 80 56 00
        E 0 80 62 00
        E 0 90 62 60
        E 120 80 62 00
        E 0 90 3e 60
        E 0 90 4b 60
        E 0 90 57 60
        E 0 90 63 60
        E 120 80 3e 00
        E 0 80 4b 00
        E 0 80 57 00
        E 0 80 63 00
        E 0 90 63 60
        E 120 80 63 00
        E 0 90 55 60
        E 0 90 61 60
        E 120 80 55 00
        E 0 80 61 00
        E 0 90 61 60
        E 120 80 61 00
        E 0 90 4a 60
        E 0 90 56 60
        E 0 90 62 60
        E 120 80 4a 00
        E 0 80 56 00
        E 0 80 62 00
        E 0 90 62 60
        E 120 80 62 00
        E 0 90 57 60
        E 0 90 63 60
        E 120 80 2b 00
        E 0 80 57 00
        E 0 80 63 00
        E 120 90 34 60
        E 0 90 3e 60
        E 0 90 4b 60
        E 0 90 58 60
        E 0 90 64 60
        E 120 80 3e 00
        E 0 80 4b 00
        E 0 80 58 00
        E 0 80 64 00
        E 0 90 64 60
        E 120 80 64 00
        E 0 90 57 60
        E 0 90 63 60
        E 120 80 57 00
        E 0 80 63 00
        E 0 90 63 60
        E 120 80 63 00
        E 0 90 49 60
        E 0 90 55 60
        E 0 90 61 60
        E 120 80 49 00
        E 0 80 55 00
        E 0 80 61 00
        E 0 90 61 60
        E 120 80 61 00
        E 0 90 57 60
        E 0 90 63 60
        E 120 80 34 00
        E 0 80 57 00
        E 0 80 63 00
        E 0 90 63 60
        E 120 80 63 00
        E 0 90 31 60
        E 0 90 3d 60
        E 0 90 4a 60
        E 0 90 56 60
        E 0 90 62 60
        E 120 80 3d 00
        E 0 80 4a 00
        E 0 80 56 00
        E 0 80 62 00
        E 0 90 62 60
        E 120 80 62 00
        E 0 90 55 60
        E 0 90 61 60
        E 120 80 55 00
        E 0 80 61 00
        E 0 90 61 60
        E 120 80 61 00
        E 0 90 48 60
        E 0 90 54 60
        E 0 90 60 60
        E 120 80 48 00
        E 0 80 54 00
        E 0 80 60 00
        E 0 90 60 60
        E 120 80 60 00
        E 120 80 31 00
        E 120 90 2d 60
        E 0 90 3e 60
        E 0 90 4b 60
        E 0 90 57 60
        E 0 90 63 60
        E 120 80 3e 00
        E 0 80 4b 00
        E 0 80 57 00
        E 0 80 63 00
        E 0 90 63 60
        E 120 80 63 00
        E 0 90 56 60
        E 0 90 62 60
        E 120 80 56 00
        E 0 80 62 00
        E 0 90 62 60
        E 120 80 62 00
        E 0 90 48 60
        E 0 90 54 60
        E 0 90 60 60
        E 120 80 48 00
        E 0 80 54 00
        E 0 80 60 00
        E 0 90 60 60
        E 120 80 60 00
        E 0 90 56 60
        E 0 90 62 60
        E 120 80 2d 00
        E 0 80 56 00
        E 0 80 62 00
        E 0 90 62 60
        E 120 80 62 00
        E 0 90 31 60
        E 0 90 3e 60
        E 0 90 4b 60
        E 0 90 58 60
        E 0 90 64 60
        E 120 80 3e 00
        E 0 80 4b 00
        E 0 80 58 00
        E 0 80 64 00
        E 0 90 64 60
        E 120 80 64 00
        E 0 90 57 60
        E 0 90 63 60
        E 120 80 57 00
        E 0 80 63 00
        E 0 90 63 60
        E 120 80 63 00
        E 0 90 4a 60
        E 0 90 56 60
        E 0 90 62 60
        E 120 80 4a 00
        E 0 80 56 00
        E 0 80 62 00
        E 0 90 62 60
        E 120 80 62 00
        E 120 80 31 00
        E 120 90 34 60
        E 0 90 3e 60
        E 0 90 4b 60
        E 0 90 58 60
        E 0 90 64 60
        E 120 80 3e 00
        E 0 80 4b 00
        E 0 80 58 00
        E 0 80 64 00
        E 0 90 64 60
        E 120 80 64 00
        E 0 90 57 60
        E 0 90 63 60
        E 120 80 57 00
        E 0 80 63 00
        E 0 90 63 60
        E 120 80 63 00
        E 0 90 49 60
        E 0 90 55 60
        E 0 90 61 60
        E 120 80 49 00
        E 0 80 55 00
        E 0 80 61 00
        E 0 90 61 60
        E 120 80 61 00
        E 0 90 57 60
        E 0 90 63 60
        E 120 80 34 00
        E 0 80 57 00
        E 0 80 63 00
        E 0 90 63 60
        E 120 80 63 00
        E 0 90 31 60
        E 0 90 3d 60
        E 0 90 4a 60
        E 0 90 56 60
        E 0 90 62 60
        E 120 80 3d 00
        E 0 80 4a 00
        E 0 80 56 00
        E 0 80 62 00
        E 0 90 62 60
        E 120 80 62 00
        E 0 90 55 60
        E 0 90 61 60
        E 120 80 55 00
        E 0 80 61 00
        E 0 90 61 60
        E 120 80 61 00
        E 0 90 48 60
        E 0 90 54 60
        E 0 90 60 60
        E 120 80 48 00
        E 0 80 54 00
        E 0 80 60 00
        E 0 90 60 60
        E 120 80 60 00
        E 120 80 31 00
        E 120 90 34 60
        E 0 90 3e 60
        E 0 90 4b 60
        E 0 90 57 60
        E 0 90 63 60
        E 120 80 3e 00
        E 0 80 4b 00
        E 0 80 57 00
        E 0 80 63 00
        E 120 90 4b 60
        E 0 90 57 60
        E 0 90 63 60
        E 120 80 4b 00
        E 0 80 57 00
        E 0 80 63 00
        E 120 90 3e 60
        E 0 90 4b 60
        E 0 90 57 60
        E 0 90 63 60
        E 120 80 3e 00
        E 0 80 4b 00
        E 0 80 57 00
        E 0 80 63 00
        E 120 90 57 60
        E 0 90 63 60
        E 120 80 57 00
        E 0 80 63 00
        E 120 90 3e 60
        E 0 90 4b 60
        E 0 90 58 60
        E 0 90 64 60
        E 120 80 3e 00
        E 0 80 4b 00
        E 0 80 58 00
        E 0 80 64 00
        E 120 90 56 60
        E 0 90 62 60
        E 360 80 56 00
        E 0 80 62 00
        E 120 90 49 60
        E 0 90 55 60
        E 0 90 61 60
        E 1680 80 49 00
        E 240 80 55 00
        E 0 80 61 00
        E 120 80 34 00
        E 120 90 2b 60
        E 0 90 3c 60
        E 0 90 49 60
        E 0 90 55 60
        E 0 90 61 60
        E 120 80 3c 00
        E 0 80 49 00
        E 0 80 55 00
        E 0 80 61 00
        E 120 90 57 60
        E 0 90 63 60
        E 120 80 57 00
        E 0 80 63 00
        E 120 90 4b 60
        E 0 90 58 60
        E 0 90 64 60
        E 120 80 4b 00
        E 0 80 58 00
        E 0 80 64 00
        E 120 90 56 60
        E 0 90 62 60
        E 360 80 56 00
        E 0 80 62 00
        E 120 90 3e 60
        E 0 90 4b 60
        E 0 90 57 60
        E 0 90 63 60
        E 120 80 3e 00
        E 0 80 4b 00
        E 240 80 57 00
        E 0 80 63 00
        E 120 90 4b 60
        E 0 90 57 60
        E 0 90 63 60
        E 120 80 4b 00
        E 0 80 57 00
        E 0 80 63 00
        E 120 90 3e 60
        E 0 90 4b 60
        E 0 90 57 60
        E 0 90 63 60
        E 120 80 3e 00
        E 0 80 4b 00
        E 0 80 57 00
        E 0 80 63 00
        E 120 90 4b 60
        E 0 90 57 60
        E 0 90 63 60
        E 120 80 4b 00
        E 240 80 57 00
        E 0 80 63 00
        E 120 90 49 60
        E 0 90 55 60
        E 0 90 61 60
        E 720 80 49 00
        E 240 80 55 00
        E 0 80 61 00
        E 240 90 3c 60
        E 0 90 49 60
        E 0 90 55 60
        E 0 90 61 60
        E 120 80 3c 00
        E 0 80 49 00
        E 0 80 55 00
        E 0 80 61 00
        E 120 90 57 60
        E 0 90 63 60
        E 120 80 57 00
        E 0 80 63 00
        E 120 90 4b 60
        E 0 90 58 60
        E 0 90 64 60
        E 120 80 4b 00
        E 0 80 58 00
        E 0 80 64 00
        E 120 90 56 60
        E 0 90 62 60
        E 360 80 56 00
        E 0 80 62 00
        E 120 90 3e 60
        E 0 90 4b 60
        E 0 90 57 60
        E 0 90 63 60
        E 120 80 3e 00
        E 0 80 4b 00
        E 240 80 57 00
        E 0 80 63 00
        E 120 90 4b 60
        E 0 90 57 60
        E 0 90 63 60
        E 1680 80 4b 00
        E 240 80 57 00
        E 0 80 63 00
        E 120 80 2b 00
        E 120 90 3c 60
        E 0 90 49 60
        E 0 90 55 60
        E 0 90 61 60
        E 120 80 3c 00
        E 0 80 49 00
        E 0 80 55 00
        E 0 80 61 00
        E 120 90 57 60
        E 0 90 63 60
        E 120 80 57 00
        E 0 80 63 00
        E 120 90 4b 60
        E 0 90 58 60
        E 0 90 64 60
        E 120 80 4b 00
        E 0 80 58 00
        E 0 80 64 00
        E 120 90 56 60
        E 0 90 62 60
        E 360 80 56 00
        E 0 80 62 00
        E 120 90 3e 60
        E 0 90 4b 60
        E 0 90 57 60
        E 0 90 63 60
        E 120 80 3e 00
        E 0 80 4b 00
        E 240 80 57 00
        E 0 80 63 00
        E 120 90 4b 60
        E 0 90 57 60
        E 0 90 63 60
        E 120 80 4b 00
        E 0 80 57 00
        E 0 80 63 00
        E 120 90 3e 60
        E 0 90 4b 60
        E 0 90 57 60
        E 0 90 63 60
        E 120 80 3e 00
        E 0 80 4b 00
        E 0 80 57 00
        E 0 80 63 00
        E 120 90 4b 60
        E 0 90 57 60
        E 0 90 63 60
        E 120 80 4b 00
        E 240 80 57 00
        E 0 80 63 00
        E 120 90 49 60
        E 0 90 55 60
        E 0 90 61 60
        E 720 80 49 00
        E 240 80 55 00
        E 0 80 61 00
        E 240 90 3c 60
        E 0 90 49 60
        E 0 90 55 60
        E 0 90 61 60
        E 120 80 3c 00
        E 0 80 49 00
        E 0 80 55 00
        E 0 80 61 00
        E 120 90 57 60
        E 0 90 63 60
        E 120 80 57 00
        E 0 80 63 00
        E 120 90 4b 60
        E 0 90 58 60
        E 0 90 64 60
        E 120 80 4b 00
        E 0 80 58 00
        E 0 80 64 00
        E 120 90 56 60
        E 0 90 62 60
        E 360 80 56 00
        E 0 80 62 00
        E 120 90 3e 60
        E 0 90 4b 60
        E 0 90 57 60
        E 0 90 63 60
        E 120 80 3e 00
        E 0 80 4b 00
        E 240 80 57 00
        E 0 80 63 00
        E 120 90 4b 60
        E 0 90 57 60
        E 0 90 63 60
        E 1920 80 4b 00
        E 0 80 57 00
        E 0 80 63 00
        <X 480 0
          /wFbaWRsZV9yZWFsdGltZV0=
        >
        E 1679 b0 7b 00
        GUID {32B2A249-C1C4-45F6-803F-FB64C73CF9D0}
        IGNTEMPO 0 120.00000000 4 4
        SRCCOLOR 5
        VELLANE 132 128 60
        COLORMAP "C:\Program Files\REAPER (x64)\Data\color_maps\rockband_guitarbass.png"
        CFGEDITVIEW -7114.087266 9.234372 0 12 0 0 0
        CFGEDIT 1 1 0 1 1 0 1 1 1 1 1 0.25000000 -8 -8 1544 872 0 2 1 1 0.00000000 0 1 0 0 0.500000 0 0 1.000000 64
        KEYSNAP 0 6 "102030050700" 0 "Pentatonic"
        EVTFILTER 0 -1 -1 -1 -1 0 1 0 0 -1.00000000 -1.00000000
      >
    >
  >
  <TRACK '{9997122B-ACCC-4346-947F-0BC6D14FA3DE}'
    NAME "guitar"
    PEAKCOL 16576
    BEAT -1
    AUTOMODE 0
    VOLPAN 1.00000000000000 -0.20000000000000 -1.00000000000000 -1.00000000000000 1.00000000000000
    MUTESOLO 0 0 0
    IPHASE 0
    ISBUS 2 -1
    BUSCOMP 0 0
    SHOWINMIX 1 0.666700 0.500000 1 0.500000 -1 -1 -1
    FREEMODE 0
    SEL 0
    REC 0 0 0 0 0 0 0
    VU 2
    TRACKHEIGHT 0 0
    INQ 0 0 0 0.5000000000 100 0 0 100
    NCHAN 2
    FX 1
    TRACKID {9997122B-ACCC-4346-947F-0BC6D14FA3DE}
    PERF 0
    MIDIOUT -1
    MAINSEND 1 0
    <ITEM
      POSITION 0.00000000000000
      SNAPOFFS 0.00000000000000
      LENGTH 121.61000000000000
      LOOP 0
      ALLTAKES 0
      SEL 0
      FADEIN 1 0.000000 0.000000 1 0
      FADEOUT 1 0.000000 0.000000 1 0
      MUTE 0
      IGUID {D002CA0A-571E-49E4-B625-590A88501D18}
      IID 18
      NAME "guitar.wav"
      VOLPAN 1.000000 0.000000 1.000000 -1.000000
      SOFFS 0.00000000000000
      PLAYRATE 1.00000000000000 1 0.00000000000000 -1
      CHANMODE 0
      GUID {7EC33897-3272-45D7-AA6F-0D87C6865B4D}
      <SOURCE WAVE
        FILE "C:\Users\Ruggery\Documents\Visual Studio Code\Projects\ruggy-customs-projects\songs\pollyanna\wav\guitar.wav"
      >
    >
  >
  <TRACK '{C2751334-01A4-48C2-868A-AAD61FCFCD6D}'
    NAME "PART KEYS"
    PEAKCOL 16576
    BEAT -1
    AUTOMODE 0
    VOLPAN 1.00000000000000 0.00000000000000 -1.00000000000000 -1.00000000000000 1.00000000000000
    MUTESOLO 0 0 0
    IPHASE 0
    ISBUS 1 1
    BUSCOMP 0 0
    SHOWINMIX 1 0.666700 0.500000 1 0.500000 -1 -1 -1
    FREEMODE 0
    SEL 0
    REC 0 0 0 0 0 0 0
    VU 2
    TRACKHEIGHT 0 0
    INQ 0 0 0 0.5000000000 100 0 0 100
    NCHAN 2
    FX 1
    TRACKID {C2751334-01A4-48C2-868A-AAD61FCFCD6D}
    PERF 0
    MIDIOUT -1
    <MIDINOTENAMES
      0 127 "TRILL MARKER"
      0 125 "---"
      0 124 "BRE"
      0 123 "BRE"
      0 122 "BRE"
      0 121 "BRE"
      0 120 "BRE (use all 5)"
      0 119 "----"
      0 116 "OVERDRIVE"
      0 115 "----"
      0 103 "Solo Marker"
      0 102 "Force HOPO Off"
      0 101 "Force HOPO On"
      0 100 "EXPERT Orange"
      0 99 "EXPERT Blue"
      0 98 "EXPERT Yellow"
      0 97 "EXPERT Red"
      0 96 "EXPERT Green"
      0 95 "----"
      0 90 "Force HOPO Off"
      0 89 "Force HOPO On"
      0 88 "HARD Orange"
      0 87 "HARD Blue"
      0 86 "HARD Yellow"
      0 85 "HARD Red"
      0 84 "HARD Green"
      0 77 "----"
      0 76 "MEDIUM Orange"
      0 75 "MEDIUM Blue"
      0 74 "MEDIUM Yellow"
      0 73 "MEDIUM Red"
      0 72 "MEDIUM Green"
      0 65 "----"
      0 64 "EASY Orange"
      0 63 "EASY Blue"
      0 62 "EASY Yellow"
      0 61 "EASY Red"
      0 60 "EASY Green"
    >
    MAINSEND 1 0
    <FXCHAIN
      WNDRECT 0 43 891 559
      SHOW 0
      LASTSEL 0
      DOCKED 0
      BYPASS 0 0
      <VST "VSTi: RBN Preview (RBN)" "rbprev_vst64.dll" 0 ""
        dnBicu5e7f4AAAAAAgAAAAEAAAAAAAAAAgAAAAAAAAAEAAAAAQAAAA==
        AAAQAAMAqgAAABAAAAA=
      >
      FLOATPOS 0 0 0 0
      FXID {C4045025-66F8-4708-B168-45A3FF31B052}
      WAK 0
    >
    <ITEM
      POSITION 0.00000000000000
      SNAPOFFS 0.00000000000000
      LENGTH 121.61000000000000
      LOOP 0
      ALLTAKES 0
      SEL 0
      FADEIN 1 0.000000 0.000000 1 0
      FADEOUT 1 0.000000 0.000000 1 0
      MUTE 0
      IGUID {45961780-E6DE-4CB6-9C2D-952900F98F2B}
      IID 4
      NAME "PART KEYS"
      VOLPAN 1.000000 0.000000 1.000000 -1.000000
      SOFFS 0.00000000000000 0.00000000000000
      PLAYRATE 1.00000000000000 1 0.00000000000000 -1
      CHANMODE 0
      GUID {2BDBA9B2-8FB2-40FE-9D19-B4F435B2493E}
      <SOURCE MIDI
        HASDATA 1 480 QN
        POOLEDEVTS {AF0A2EAC-828C-423A-86BC-913E68882B9B}
        <X 0 0
          /wNQQVJUIEtFWVM=
        >
        <X 3840 0
          /wFbcGxheV0=
        >
        E 0 90 3c 60
        E 0 90 48 60
        E 0 90 54 60
        E 0 90 60 60
        E 120 80 3c 00
        E 0 80 48 00
        E 0 80 54 00
        E 0 80 60 00
        E 120 90 56 60
        E 0 90 62 60
        E 120 80 56 00
        E 0 80 62 00
        E 120 90 4b 60
        E 0 90 58 60
        E 0 90 64 60
        E 120 80 4b 00
        E 0 80 58 00
        E 0 80 64 00
        E 120 90 57 60
        E 0 90 63 60
        E 360 80 57 00
        E 0 80 63 00
        E 120 90 3e 60
        E 0 90 4b 60
        E 0 90 58 60
        E 0 90 64 60
        E 120 80 3e 00
        E 0 80 4b 00
        E 240 80 58 00
        E 0 80 64 00
        E 120 90 4b 60
        E 0 90 58 60
        E 0 90 64 60
        E 120 80 4b 00
        E 0 80 58 00
        E 0 80 64 00
        E 120 90 3e 60
        E 0 90 4b 60
        E 0 90 58 60
        E 0 90 64 60
        E 120 80 3e 00
        E 0 80 4b 00
        E 0 80 58 00
        E 0 80 64 00
        E 120 90 55 60
        E 0 90 61 60
        E 360 80 55 00
        E 0 80 61 00
        E 120 90 4a 60
        E 0 90 56 60
        E 0 90 62 60
        E 720 80 4a 00
        E 240 80 56 00
        E 0 80 62 00
        E 240 90 3c 60
        E 0 90 48 60
        E 0 90 54 60
        E 0 90 60 60
        E 0 90 74 60
        E 120 80 3c 00
        E 0 80 48 00
        E 0 80 54 00
        E 0 80 60 00
        E 120 90 56 60
        E 0 90 62 60
        E 120 80 56 00
        E 0 80 62 00
        E 120 90 4b 60
        E 0 90 58 60
        E 0 90 64 60
        E 120 80 4b 00
        E 0 80 58 00
        E 0 80 64 00
        E 120 90 57 60
        E 0 90 63 60
        E 360 80 57 00
        E 0 80 63 00
        E 120 90 3e 60
        E 0 90 4b 60
        E 0 90 58 60
        E 0 90 64 60
        E 120 80 3e 00
        E 0 80 4b 00
        E 240 80 58 00
        E 0 80 64 00
        E 120 90 4b 60
        E 0 90 58 60
        E 0 90 64 60
        E 1680 80 4b 00
        E 240 80 58 00
        E 0 80 64 00
        E 240 90 3c 60
        E 0 90 48 60
        E 0 90 54 60
        E 0 90 60 60
        E 120 80 74 00
        E 0 80 3c 00
        E 0 80 48 00
        E 0 80 54 00
        E 0 80 60 00
        E 120 90 54 60
        E 0 90 60 60
        E 120 80 54 00
        E 0 80 60 00
        E 120 90 49 60
        E 0 90 55 60
        E 0 90 61 60
        E 120 80 49 00
        E 0 80 55 00
        E 0 80 61 00
        E 120 90 55 60
        E 0 90 61 60
        E 120 80 55 00
        E 0 80 61 00
        E 120 90 3e 60
        E 0 90 4b 60
        E 0 90 58 60
        E 0 90 64 60
        E 120 80 3e 00
        E 0 80 4b 00
        E 240 80 58 00
        E 0 80 64 00
        E 120 90 4a 60
        E 0 90 56 60
        E 0 90 62 60
        E 120 80 4a 00
        E 0 80 56 00
        E 0 80 62 00
        E 120 90 57 60
        E 0 90 63 60
        E 1920 80 57 00
        E 0 80 63 00
        E 240 90 3d 60
        E 0 90 4a 60
        E 0 90 56 60
        E 0 90 62 60
        E 120 80 3d 00
        E 0 80 4a 00
        E 0 80 56 00
        E 0 80 62 00
        E 120 90 56 60
        E 0 90 62 60
        E 120 80 56 00
        E 0 80 62 00
        E 120 90 4b 60
        E 0 90 57 60
        E 0 90 63 60
        E 120 80 4b 00
        E 0 80 57 00
        E 0 80 63 00
        E 120 90 57 60
        E 0 90 63 60
        E 120 80 57 00
        E 0 80 63 00
        E 120 90 3e 60
        E 0 90 4b 60
        E 0 90 58 60
        E 0 90 64 60
        E 120 80 3e 00
        E 0 80 4b 00
        E 240 80 58 00
        E 0 80 64 00
        E 120 90 3e 60
        E 0 90 4b 60
        E 0 90 57 60
        E 0 90 63 60
        E 120 80 3e 00
        E 0 80 4b 00
        E 0 80 57 00
        E 0 80 63 00
        E 120 90 56 60
        E 0 90 62 60
        E 840 80 56 00
        E 0 80 62 00
        E 120 90 49 60
        E 0 90 55 60
        E 0 90 61 60
        E 120 80 49 00
        E 0 80 55 00
        E 0 80 61 00
        E 120 90 3d 60
        E 0 90 49 60
        E 0 90 55 60
        E 0 90 61 60
        E 480 80 3d 00
        E 0 80 49 00
        E 360 80 55 00
        E 0 80 61 00
        E 120 90 3c 60
        E 0 90 48 60
        E 0 90 54 60
        E 0 90 60 60
        E 120 80 3c 00
        E 0 80 48 00
        E 0 80 54 00
        E 0 80 60 00
        E 120 90 54 60
        E 0 90 60 60
        E 120 80 54 00
        E 0 80 60 00
        E 120 90 49 60
        E 0 90 55 60
        E 0 90 61 60
        E 120 80 49 00
        E 0 80 55 00
        E 0 80 61 00
        E 120 90 55 60
        E 0 90 61 60
        E 120 80 55 00
        E 0 80 61 00
        E 120 90 3e 60
        E 0 90 4b 60
        E 0 90 58 60
        E 0 90 64 60
        E 120 80 3e 00
        E 0 80 4b 00
        E 240 80 58 00
        E 0 80 64 00
        E 120 90 4a 60
        E 0 90 56 60
        E 0 90 62 60
        E 120 80 4a 00
        E 0 80 56 00
        E 0 80 62 00
        E 120 90 57 60
        E 0 90 63 60
        E 1920 80 57 00
        E 0 80 63 00
        E 240 90 3d 60
        E 0 90 4a 60
        E 0 90 56 60
        E 0 90 62 60
        E 120 80 3d 00
        E 0 80 4a 00
        E 0 80 56 00
        E 0 80 62 00
        E 119 90 56 60
        E 0 90 62 60
        E 120 80 56 00
        E 0 80 62 00
        E 121 90 4b 60
        E 0 90 57 60
        E 0 90 63 60
        E 120 80 4b 00
        E 0 80 57 00
        E 0 80 63 00
        E 120 90 57 60
        E 0 90 63 60
        E 120 80 57 00
        E 0 80 63 00
        E 120 90 3e 60
        E 0 90 4b 60
        E 0 90 58 60
        E 0 90 64 60
        E 120 80 3e 00
        E 0 80 4b 00
        E 240 80 58 00
        E 0 80 64 00
        E 120 90 3e 60
        E 0 90 4b 60
        E 0 90 57 60
        E 0 90 63 60
        E 120 80 3e 00
        E 0 80 4b 00
        E 0 80 57 00
        E 0 80 63 00
        E 120 90 56 60
        E 0 90 62 60
        E 840 80 56 00
        E 0 80 62 00
        E 120 90 49 60
        E 0 90 55 60
        E 0 90 61 60
        E 120 80 49 00
        E 0 80 55 00
        E 0 80 61 00
        E 120 90 3d 60
        E 0 90 49 60
        E 0 90 55 60
        E 0 90 61 60
        E 480 80 3d 00
        E 0 80 49 00
        E 360 80 55 00
        E 0 80 61 00
        E 120 90 3d 60
        E 0 90 4a 60
        E 0 90 56 60
        E 0 90 62 60
        E 120 80 3d 00
        E 0 80 4a 00
        E 0 80 56 00
        E 0 80 62 00
        E 120 90 55 60
        E 0 90 61 60
        E 120 80 55 00
        E 0 80 61 00
        E 120 90 48 60
        E 0 90 54 60
        E 0 90 60 60
        E 120 80 48 00
        E 0 80 54 00
        E 0 80 60 00
        E 120 90 55 60
        E 0 90 61 60
        E 120 80 55 00
        E 0 80 61 00
        E 120 90 3d 60
        E 0 90 4a 60
        E 0 90 56 60
        E 0 90 62 60
        E 120 80 3d 00
        E 0 80 4a 00
        E 240 80 56 00
        E 0 80 62 00
        E 120 90 4b 60
        E 0 90 58 60
        E 0 90 64 60
        E 120 80 4b 00
        E 240 80 58 00
        E 0 80 64 00
        E 120 90 3d 60
        E 0 90 49 60
        E 0 90 55 60
        E 0 90 61 60
        E 120 80 3d 00
        E 0 80 49 00
        E 240 80 55 00
        E 0 80 61 00
        E 120 90 4a 60
        E 0 90 56 60
        E 0 90 62 60
        E 120 80 4a 00
        E 240 80 56 00
        E 0 80 62 00
        E 120 90 3e 60
        E 0 90 4b 60
        E 0 90 58 60
        E 0 90 64 60
        E 480 80 3e 00
        E 0 80 4b 00
        E 360 80 58 00
        E 0 80 64 00
        E 120 90 3e 60
        E 0 90 4b 60
        E 0 90 57 60
        E 0 90 63 60
        E 120 80 3e 00
        E 0 80 4b 00
        E 0 80 57 00
        E 0 80 63 00
        E 120 90 56 60
        E 0 90 62 60
        E 120 80 56 00
        E 0 80 62 00
        E 120 90 49 60
        E 0 90 55 60
        E 0 90 61 60
        E 120 80 49 00
        E 0 80 55 00
        E 0 80 61 00
        E 120 90 56 60
        E 0 90 62 60
        E 120 80 56 00
        E 0 80 62 00
        E 120 90 3e 60
        E 0 90 4b 60
        E 0 90 57 60
        E 0 90 63 60
        E 120 80 3e 00
        E 0 80 4b 00
        E 0 80 57 00
        E 0 80 63 00
        E 120 90 56 60
        E 0 90 62 60
        E 120 80 56 00
        E 0 80 62 00
        E 120 90 49 60
        E 0 90 55 60
        E 0 90 61 60
        E 120 80 49 00
        E 0 80 55 00
        E 0 80 61 00
        E 120 90 56 60
        E 0 90 62 60
        E 120 80 56 00
        E 0 80 62 00
        E 120 90 3e 60
        E 0 90 4b 60
        E 0 90 57 60
        E 0 90 63 60
        E 1440 80 3e 00
        E 0 80 4b 00
        E 360 80 57 00
        E 0 80 63 00
        E 120 90 3e 60
        E 0 90 4b 60
        E 0 90 57 60
        E 0 90 63 60
        E 0 90 74 60
        E 120 80 3e 00
        E 0 80 4b 00
        E 0 80 57 00
        E 0 80 63 00
        E 120 90 4b 60
        E 0 90 57 60
        E 0 90 63 60
        E 120 80 4b 00
        E 0 80 57 00
        E 0 80 63 00
        E 120 90 3e 60
        E 0 90 4b 60
        E 0 90 57 60
        E 0 90 63 60
        E 120 80 3e 00
        E 0 80 4b 00
        E 0 80 57 00
        E 0 80 63 00
        E 360 90 3e 60
        E 0 90 4b 60
        E 0 90 57 60
        E 0 90 63 60
        E 120 80 3e 00
        E 0 80 4b 00
        E 0 80 57 00
        E 0 80 63 00
        E 120 90 56 60
        E 0 90 62 60
        E 120 80 56 00
        E 0 80 62 00
        E 120 90 49 60
        E 0 90 55 60
        E 0 90 61 60
        E 120 80 49 00
        E 0 80 55 00
        E 0 80 61 00
        E 120 90 54 60
        E 0 90 60 60
        E 1920 80 74 00
        E 0 80 54 00
        E 0 80 60 00
        E 240 90 3e 60
        E 0 90 4b 60
        E 0 90 57 60
        E 0 90 63 60
        E 120 80 3e 00
        E 0 80 4b 00
        E 0 80 57 00
        E 0 80 63 00
        E 120 90 4b 60
        E 0 90 57 60
        E 0 90 63 60
        E 120 80 4b 00
        E 0 80 57 00
        E 0 80 63 00
        E 120 90 3e 60
        E 0 90 4b 60
        E 0 90 57 60
        E 0 90 63 60
        E 120 80 3e 00
        E 0 80 4b 00
        E 0 80 57 00
        E 0 80 63 00
        E 360 90 3e 60
        E 0 90 4b 60
        E 0 90 58 60
        E 0 90 64 60
        E 120 80 3e 00
        E 0 80 4b 00
        E 0 80 58 00
        E 0 80 64 00
        E 120 90 57 60
        E 0 90 63 60
        E 120 80 57 00
        E 0 80 63 00
        E 120 90 4a 60
        E 0 90 56 60
        E 0 90 62 60
        E 120 80 4a 00
        E 0 80 56 00
        E 0 80 62 00
        E 120 90 57 60
        E 0 90 63 60
        E 1440 80 57 00
        E 0 80 63 00
        E 240 90 49 60
        E 0 90 55 60
        E 0 90 61 60
        E 120 80 49 00
        E 0 80 55 00
        E 0 80 61 00
        E 120 90 56 60
        E 0 90 62 60
        E 120 80 56 00
        E 0 80 62 00
        E 120 90 3e 60
        E 0 90 4b 60
        E 0 90 57 60
        E 0 90 63 60
        E 120 80 3e 00
        E 0 80 4b 00
        E 0 80 57 00
        E 0 80 63 00
        E 120 90 56 60
        E 0 90 62 60
        E 120 80 56 00
        E 0 80 62 00
        E 120 90 49 60
        E 0 90 55 60
        E 0 90 61 60
        E 120 80 49 00
        E 0 80 55 00
        E 0 80 61 00
        E 120 90 56 60
        E 0 90 62 60
        E 120 80 56 00
        E 0 80 62 00
        E 120 90 3e 60
        E 0 90 4b 60
        E 0 90 57 60
        E 0 90 63 60
        E 120 80 3e 00
        E 0 80 4b 00
        E 0 80 57 00
        E 0 80 63 00
        E 120 90 56 60
        E 0 90 62 60
        E 120 80 56 00
        E 0 80 62 00
        E 120 90 49 60
        E 0 90 55 60
        E 0 90 61 60
        E 120 80 49 00
        E 0 80 55 00
        E 0 80 61 00
        E 120 90 56 60
        E 0 90 62 60
        E 120 80 56 00
        E 0 80 62 00
        E 120 90 3e 60
        E 0 90 4b 60
        E 0 90 57 60
        E 0 90 63 60
        E 120 80 3e 00
        E 0 80 4b 00
        E 0 80 57 00
        E 0 80 63 00
        E 120 90 56 60
        E 0 90 62 60
        E 120 80 56 00
        E 0 80 62 00
        E 120 90 49 60
        E 0 90 55 60
        E 0 90 61 60
        E 120 80 49 00
        E 0 80 55 00
        E 0 80 61 00
        E 120 90 56 60
        E 0 90 62 60
        E 120 80 56 00
        E 0 80 62 00
        E 120 90 3e 60
        E 0 90 4b 60
        E 0 90 57 60
        E 0 90 63 60
        E 120 80 3e 00
        E 0 80 4b 00
        E 0 80 57 00
        E 0 80 63 00
        E 360 90 48 60
        E 0 90 54 60
        E 0 90 60 60
        E 120 80 48 00
        E 0 80 54 00
        E 0 80 60 00
        E 120 90 54 60
        E 0 90 60 60
        E 120 80 54 00
        E 0 80 60 00
        E 120 90 3e 60
        E 0 90 4b 60
        E 0 90 57 60
        E 0 90 63 60
        E 120 80 3e 00
        E 0 80 4b 00
        E 0 80 57 00
        E 0 80 63 00
        E 120 90 56 60
        E 0 90 62 60
        E 120 80 56 00
        E 0 80 62 00
        E 120 90 49 60
        E 0 90 55 60
        E 0 90 61 60
        E 120 80 49 00
        E 0 80 55 00
        E 0 80 61 00
        E 120 90 56 60
        E 0 90 62 60
        E 120 80 56 00
        E 0 80 62 00
        E 120 90 3e 60
        E 0 90 4b 60
        E 0 90 57 60
        E 0 90 63 60
        E 120 80 3e 00
        E 0 80 4b 00
        E 0 80 57 00
        E 0 80 63 00
        E 120 90 56 60
        E 0 90 62 60
        E 120 80 56 00
        E 0 80 62 00
        E 120 90 49 60
        E 0 90 55 60
        E 0 90 61 60
        E 120 80 49 00
        E 0 80 55 00
        E 0 80 61 00
        E 120 90 56 60
        E 0 90 62 60
        E 120 80 56 00
        E 0 80 62 00
        E 120 90 3e 60
        E 0 90 4b 60
        E 0 90 57 60
        E 0 90 63 60
        E 120 80 3e 00
        E 0 80 4b 00
        E 0 80 57 00
        E 0 80 63 00
        E 120 90 4b 60
        E 0 90 57 60
        E 0 90 63 60
        E 120 80 4b 00
        E 0 80 57 00
        E 0 80 63 00
        E 120 90 3e 60
        E 0 90 4b 60
        E 0 90 57 60
        E 0 90 63 60
        E 120 80 3e 00
        E 0 80 4b 00
        E 0 80 57 00
        E 0 80 63 00
        E 120 90 57 60
        E 0 90 63 60
        E 120 80 57 00
        E 0 80 63 00
        E 120 90 3e 60
        E 0 90 4b 60
        E 0 90 58 60
        E 0 90 64 60
        E 120 80 3e 00
        E 0 80 4b 00
        E 0 80 58 00
        E 0 80 64 00
        E 120 90 57 60
        E 0 90 63 60
        E 360 80 57 00
        E 0 80 63 00
        E 120 90 4b 60
        E 0 90 57 60
        E 0 90 63 60
        E 1680 80 4b 00
        E 240 80 57 00
        E 0 80 63 00
        E 240 90 3c 60
        E 0 90 48 60
        E 0 90 54 60
        E 0 90 60 60
        E 120 80 3c 00
        E 0 80 48 00
        E 0 80 54 00
        E 0 80 60 00
        E 120 90 54 60
        E 0 90 60 60
        E 120 80 54 00
        E 0 80 60 00
        E 120 90 49 60
        E 0 90 55 60
        E 0 90 61 60
        E 120 80 49 00
        E 0 80 55 00
        E 0 80 61 00
        E 120 90 55 60
        E 0 90 61 60
        E 120 80 55 00
        E 0 80 61 00
        E 120 90 3e 60
        E 0 90 4b 60
        E 0 90 58 60
        E 0 90 64 60
        E 120 80 3e 00
        E 0 80 4b 00
        E 240 80 58 00
        E 0 80 64 00
        E 120 90 4a 60
        E 0 90 56 60
        E 0 90 62 60
        E 120 80 4a 00
        E 0 80 56 00
        E 0 80 62 00
        E 120 90 57 60
        E 0 90 63 60
        E 1920 80 57 00
        E 0 80 63 00
        E 240 90 3d 60
        E 0 90 4a 60
        E 0 90 56 60
        E 0 90 62 60
        E 120 80 3d 00
        E 0 80 4a 00
        E 0 80 56 00
        E 0 80 62 00
        E 120 90 56 60
        E 0 90 62 60
        E 120 80 56 00
        E 0 80 62 00
        E 120 90 4b 60
        E 0 90 57 60
        E 0 90 63 60
        E 120 80 4b 00
        E 0 80 57 00
        E 0 80 63 00
        E 120 90 57 60
        E 0 90 63 60
        E 120 80 57 00
        E 0 80 63 00
        E 120 90 3e 60
        E 0 90 4b 60
        E 0 90 58 60
        E 0 90 64 60
        E 120 80 3e 00
        E 0 80 4b 00
        E 240 80 58 00
        E 0 80 64 00
        E 120 90 3e 60
        E 0 90 4b 60
        E 0 90 57 60
        E 0 90 63 60
        E 120 80 3e 00
        E 0 80 4b 00
        E 0 80 57 00
        E 0 80 63 00
        E 120 90 56 60
        E 0 90 62 60
        E 840 80 56 00
        E 0 80 62 00
        E 120 90 49 60
        E 0 90 55 60
        E 0 90 61 60
        E 120 80 49 00
        E 0 80 55 00
        E 0 80 61 00
        E 120 90 3d 60
        E 0 90 49 60
        E 0 90 55 60
        E 0 90 61 60
        E 480 80 3d 00
        E 0 80 49 00
        E 360 80 55 00
        E 0 80 61 00
        E 120 90 3c 60
        E 0 90 48 60
        E 0 90 54 60
        E 0 90 60 60
        E 0 90 74 60
        E 120 80 3c 00
        E 0 80 48 00
        E 0 80 54 00
        E 0 80 60 00
        E 120 90 54 60
        E 0 90 60 60
        E 120 80 54 00
        E 0 80 60 00
        E 120 90 49 60
        E 0 90 55 60
        E 0 90 61 60
        E 120 80 49 00
        E 0 80 55 00
        E 0 80 61 00
        E 120 90 55 60
        E 0 90 61 60
        E 120 80 55 00
        E 0 80 61 00
        E 120 90 3e 60
        E 0 90 4b 60
        E 0 90 58 60
        E 0 90 64 60
        E 120 80 3e 00
        E 0 80 4b 00
        E 240 80 58 00
        E 0 80 64 00
        E 120 90 4a 60
        E 0 90 56 60
        E 0 90 62 60
        E 120 80 4a 00
        E 0 80 56 00
        E 0 80 62 00
        E 120 90 57 60
        E 0 90 63 60
        E 1920 80 57 00
        E 0 80 63 00
        E 240 80 74 00
        E 0 90 3d 60
        E 0 90 4a 60
        E 0 90 56 60
        E 0 90 62 60
        E 120 80 3d 00
        E 0 80 4a 00
        E 0 80 56 00
        E 0 80 62 00
        E 120 90 56 60
        E 0 90 62 60
        E 120 80 56 00
        E 0 80 62 00
        E 120 90 4b 60
        E 0 90 57 60
        E 0 90 63 60
        E 120 80 4b 00
        E 0 80 57 00
        E 0 80 63 00
        E 120 90 57 60
        E 0 90 63 60
        E 120 80 57 00
        E 0 80 63 00
        E 120 90 3e 60
        E 0 90 4b 60
        E 0 90 58 60
        E 0 90 64 60
        E 120 80 3e 00
        E 0 80 4b 00
        E 240 80 58 00
        E 0 80 64 00
        E 120 90 3e 60
        E 0 90 4b 60
        E 0 90 57 60
        E 0 90 63 60
        E 120 80 3e 00
        E 0 80 4b 00
        E 0 80 57 00
        E 0 80 63 00
        E 120 90 56 60
        E 0 90 62 60
        E 840 80 56 00
        E 0 80 62 00
        E 120 90 49 60
        E 0 90 55 60
        E 0 90 61 60
        E 120 80 49 00
        E 0 80 55 00
        E 0 80 61 00
        E 120 90 3d 60
        E 0 90 49 60
        E 0 90 55 60
        E 0 90 61 60
        E 480 80 3d 00
        E 0 80 49 00
        E 360 80 55 00
        E 0 80 61 00
        E 120 90 3d 60
        E 0 90 4a 60
        E 0 90 56 60
        E 0 90 62 60
        E 120 80 3d 00
        E 0 80 4a 00
        E 0 80 56 00
        E 0 80 62 00
        E 120 90 55 60
        E 0 90 61 60
        E 120 80 55 00
        E 0 80 61 00
        E 120 90 48 60
        E 0 90 54 60
        E 0 90 60 60
        E 120 80 48 00
        E 0 80 54 00
        E 0 80 60 00
        E 120 90 55 60
        E 0 90 61 60
        E 120 80 55 00
        E 0 80 61 00
        E 120 90 3d 60
        E 0 90 4a 60
        E 0 90 56 60
        E 0 90 62 60
        E 120 80 3d 00
        E 0 80 4a 00
        E 240 80 56 00
        E 0 80 62 00
        E 120 90 4b 60
        E 0 90 58 60
        E 0 90 64 60
        E 120 80 4b 00
        E 240 80 58 00
        E 0 80 64 00
        E 120 90 3d 60
        E 0 90 49 60
        E 0 90 55 60
        E 0 90 61 60
        E 120 80 3d 00
        E 0 80 49 00
        E 240 80 55 00
        E 0 80 61 00
        E 120 90 4a 60
        E 0 90 56 60
        E 0 90 62 60
        E 120 80 4a 00
        E 240 80 56 00
        E 0 80 62 00
        E 120 90 3e 60
        E 0 90 4b 60
        E 0 90 58 60
        E 0 90 64 60
        E 480 80 3e 00
        E 0 80 4b 00
        E 360 80 58 00
        E 0 80 64 00
        E 120 90 3e 60
        E 0 90 4b 60
        E 0 90 57 60
        E 0 90 63 60
        E 120 80 3e 00
        E 0 80 4b 00
        E 0 80 57 00
        E 0 80 63 00
        E 120 90 56 60
        E 0 90 62 60
        E 120 80 56 00
        E 0 80 62 00
        E 120 90 49 60
        E 0 90 55 60
        E 0 90 61 60
        E 120 80 49 00
        E 0 80 55 00
        E 0 80 61 00
        E 120 90 56 60
        E 0 90 62 60
        E 120 80 56 00
        E 0 80 62 00
        E 120 90 3e 60
        E 0 90 4b 60
        E 0 90 57 60
        E 0 90 63 60
        E 120 80 3e 00
        E 0 80 4b 00
        E 0 80 57 00
        E 0 80 63 00
        E 120 90 56 60
        E 0 90 62 60
        E 120 80 56 00
        E 0 80 62 00
        E 120 90 49 60
        E 0 90 55 60
        E 0 90 61 60
        E 120 80 49 00
        E 0 80 55 00
        E 0 80 61 00
        E 120 90 56 60
        E 0 90 62 60
        E 120 80 56 00
        E 0 80 62 00
        E 120 90 3e 60
        E 0 90 4b 60
        E 0 90 57 60
        E 0 90 63 60
        E 1440 80 3e 00
        E 0 80 4b 00
        E 360 80 57 00
        E 0 80 63 00
        E 120 90 3e 60
        E 0 90 4b 60
        E 0 90 57 60
        E 0 90 63 60
        E 0 90 74 60
        E 120 80 3e 00
        E 0 80 4b 00
        E 0 80 57 00
        E 0 80 63 00
        E 120 90 4b 60
        E 0 90 57 60
        E 0 90 63 60
        E 120 80 4b 00
        E 0 80 57 00
        E 0 80 63 00
        E 120 90 3e 60
        E 0 90 4b 60
        E 0 90 57 60
        E 0 90 63 60
        E 120 80 3e 00
        E 0 80 4b 00
        E 0 80 57 00
        E 0 80 63 00
        E 360 90 3e 60
        E 0 90 4b 60
        E 0 90 57 60
        E 0 90 63 60
        E 120 80 3e 00
        E 0 80 4b 00
        E 0 80 57 00
        E 0 80 63 00
        E 120 90 56 60
        E 0 90 62 60
        E 120 80 56 00
        E 0 80 62 00
        E 120 90 49 60
        E 0 90 55 60
        E 0 90 61 60
        E 120 80 49 00
        E 0 80 55 00
        E 0 80 61 00
        E 120 90 54 60
        E 0 90 60 60
        E 1920 80 54 00
        E 0 80 60 00
        E 240 90 3e 60
        E 0 90 4b 60
        E 0 90 57 60
        E 0 90 63 60
        E 120 80 74 00
        E 0 80 3e 00
        E 0 80 4b 00
        E 0 80 57 00
        E 0 80 63 00
        E 120 90 4b 60
        E 0 90 57 60
        E 0 90 63 60
        E 120 80 4b 00
        E 0 80 57 00
        E 0 80 63 00
        E 120 90 3e 60
        E 0 90 4b 60
        E 0 90 57 60
        E 0 90 63 60
        E 120 80 3e 00
        E 0 80 4b 00
        E 0 80 57 00
        E 0 80 63 00
        E 360 90 3e 60
        E 0 90 4b 60
        E 0 90 58 60
        E 0 90 64 60
        E 120 80 3e 00
        E 0 80 4b 00
        E 0 80 58 00
        E 0 80 64 00
        E 120 90 57 60
        E 0 90 63 60
        E 120 80 57 00
        E 0 80 63 00
        E 120 90 4a 60
        E 0 90 56 60
        E 0 90 62 60
        E 120 80 4a 00
        E 0 80 56 00
        E 0 80 62 00
        E 120 90 57 60
        E 0 90 63 60
        E 1440 80 57 00
        E 0 80 63 00
        E 240 90 49 60
        E 0 90 55 60
        E 0 90 61 60
        E 120 80 49 00
        E 0 80 55 00
        E 0 80 61 00
        E 120 90 56 60
        E 0 90 62 60
        E 120 80 56 00
        E 0 80 62 00
        E 120 90 3e 60
        E 0 90 4b 60
        E 0 90 57 60
        E 0 90 63 60
        E 120 80 3e 00
        E 0 80 4b 00
        E 0 80 57 00
        E 0 80 63 00
        E 120 90 56 60
        E 0 90 62 60
        E 120 80 56 00
        E 0 80 62 00
        E 120 90 49 60
        E 0 90 55 60
        E 0 90 61 60
        E 120 80 49 00
        E 0 80 55 00
        E 0 80 61 00
        E 120 90 56 60
        E 0 90 62 60
        E 120 80 56 00
        E 0 80 62 00
        E 120 90 3e 60
        E 0 90 4b 60
        E 0 90 57 60
        E 0 90 63 60
        E 120 80 3e 00
        E 0 80 4b 00
        E 0 80 57 00
        E 0 80 63 00
        E 120 90 56 60
        E 0 90 62 60
        E 120 80 56 00
        E 0 80 62 00
        E 120 90 49 60
        E 0 90 55 60
        E 0 90 61 60
        E 120 80 49 00
        E 0 80 55 00
        E 0 80 61 00
        E 120 90 56 60
        E 0 90 62 60
        E 120 80 56 00
        E 0 80 62 00
        E 120 90 3e 60
        E 0 90 4b 60
        E 0 90 57 60
        E 0 90 63 60
        E 120 80 3e 00
        E 0 80 4b 00
        E 0 80 57 00
        E 0 80 63 00
        E 120 90 56 60
        E 0 90 62 60
        E 120 80 56 00
        E 0 80 62 00
        E 120 90 49 60
        E 0 90 55 60
        E 0 90 61 60
        E 120 80 49 00
        E 0 80 55 00
        E 0 80 61 00
        E 120 90 56 60
        E 0 90 62 60
        E 120 80 56 00
        E 0 80 62 00
        E 120 90 3e 60
        E 0 90 4b 60
        E 0 90 57 60
        E 0 90 63 60
        E 120 80 3e 00
        E 0 80 4b 00
        E 0 80 57 00
        E 0 80 63 00
        E 360 90 48 60
        E 0 90 54 60
        E 0 90 60 60
        E 120 80 48 00
        E 0 80 54 00
        E 0 80 60 00
        E 120 90 54 60
        E 0 90 60 60
        E 120 80 54 00
        E 0 80 60 00
        E 120 90 3e 60
        E 0 90 4b 60
        E 0 90 57 60
        E 0 90 63 60
        E 120 80 3e 00
        E 0 80 4b 00
        E 0 80 57 00
        E 0 80 63 00
        E 120 90 56 60
        E 0 90 62 60
        E 120 80 56 00
        E 0 80 62 00
        E 120 90 49 60
        E 0 90 55 60
        E 0 90 61 60
        E 120 80 49 00
        E 0 80 55 00
        E 0 80 61 00
        E 120 90 56 60
        E 0 90 62 60
        E 120 80 56 00
        E 0 80 62 00
        E 120 90 3e 60
        E 0 90 4b 60
        E 0 90 57 60
        E 0 90 63 60
        E 120 80 3e 00
        E 0 80 4b 00
        E 0 80 57 00
        E 0 80 63 00
        E 120 90 56 60
        E 0 90 62 60
        E 120 80 56 00
        E 0 80 62 00
        E 120 90 49 60
        E 0 90 55 60
        E 0 90 61 60
        E 120 80 49 00
        E 0 80 55 00
        E 0 80 61 00
        E 120 90 56 60
        E 0 90 62 60
        E 120 80 56 00
        E 0 80 62 00
        E 120 90 3e 60
        E 0 90 4b 60
        E 0 90 57 60
        E 0 90 63 60
        E 120 80 3e 00
        E 0 80 4b 00
        E 0 80 57 00
        E 0 80 63 00
        E 120 90 4b 60
        E 0 90 57 60
        E 0 90 63 60
        E 120 80 4b 00
        E 0 80 57 00
        E 0 80 63 00
        E 120 90 3e 60
        E 0 90 4b 60
        E 0 90 57 60
        E 0 90 63 60
        E 120 80 3e 00
        E 0 80 4b 00
        E 0 80 57 00
        E 0 80 63 00
        E 120 90 57 60
        E 0 90 63 60
        E 120 80 57 00
        E 0 80 63 00
        E 120 90 3e 60
        E 0 90 4b 60
        E 0 90 58 60
        E 0 90 64 60
        E 120 80 3e 00
        E 0 80 4b 00
        E 0 80 58 00
        E 0 80 64 00
        E 120 90 57 60
        E 0 90 63 60
        E 360 80 57 00
        E 0 80 63 00
        E 120 90 4b 60
        E 0 90 57 60
        E 0 90 63 60
        E 1680 80 4b 00
        E 240 80 57 00
        E 0 80 63 00
        E 240 90 3c 60
        E 0 90 48 60
        E 0 90 54 60
        E 0 90 60 60
        E 120 80 3c 00
        E 0 80 48 00
        E 0 80 54 00
        E 0 80 60 00
        E 120 90 56 60
        E 0 90 62 60
        E 120 80 56 00
        E 0 80 62 00
        E 120 90 4b 60
        E 0 90 58 60
        E 0 90 64 60
        E 120 80 4b 00
        E 0 80 58 00
        E 0 80 64 00
        E 120 90 57 60
        E 0 90 63 60
        E 360 80 57 00
        E 0 80 63 00
        E 120 90 3e 60
        E 0 90 4b 60
        E 0 90 58 60
        E 0 90 64 60
        E 120 80 3e 00
        E 0 80 4b 00
        E 240 80 58 00
        E 0 80 64 00
        E 120 90 4b 60
        E 0 90 58 60
        E 0 90 64 60
        E 120 80 4b 00
        E 0 80 58 00
        E 0 80 64 00
        E 120 90 3e 60
        E 0 90 4b 60
        E 0 90 58 60
        E 0 90 64 60
        E 120 80 3e 00
        E 0 80 4b 00
        E 0 80 58 00
        E 0 80 64 00
        E 120 90 55 60
        E 0 90 61 60
        E 360 80 55 00
        E 0 80 61 00
        E 120 90 4a 60
        E 0 90 56 60
        E 0 90 62 60
        E 720 80 4a 00
        E 240 80 56 00
        E 0 80 62 00
        E 240 90 3c 60
        E 0 90 48 60
        E 0 90 54 60
        E 0 90 60 60
        E 120 80 3c 00
        E 0 80 48 00
        E 0 80 54 00
        E 0 80 60 00
        E 120 90 56 60
        E 0 90 62 60
        E 120 80 56 00
        E 0 80 62 00
        E 120 90 4b 60
        E 0 90 58 60
        E 0 90 64 60
        E 120 80 4b 00
        E 0 80 58 00
        E 0 80 64 00
        E 120 90 57 60
        E 0 90 63 60
        E 360 80 57 00
        E 0 80 63 00
        E 120 90 3e 60
        E 0 90 4b 60
        E 0 90 58 60
        E 0 90 64 60
        E 120 80 3e 00
        E 0 80 4b 00
        E 240 80 58 00
        E 0 80 64 00
        E 120 90 4b 60
        E 0 90 58 60
        E 0 90 64 60
        E 1680 80 4b 00
        E 240 80 58 00
        E 0 80 64 00
        E 240 90 3c 60
        E 0 90 48 60
        E 0 90 54 60
        E 0 90 60 60
        E 120 80 3c 00
        E 0 80 48 00
        E 0 80 54 00
        E 0 80 60 00
        E 120 90 56 60
        E 0 90 62 60
        E 120 80 56 00
        E 0 80 62 00
        E 120 90 4b 60
        E 0 90 58 60
        E 0 90 64 60
        E 120 80 4b 00
        E 0 80 58 00
        E 0 80 64 00
        E 120 90 57 60
        E 0 90 63 60
        E 360 80 57 00
        E 0 80 63 00
        E 120 90 3e 60
        E 0 90 4b 60
        E 0 90 58 60
        E 0 90 64 60
        E 120 80 3e 00
        E 0 80 4b 00
        E 240 80 58 00
        E 0 80 64 00
        E 120 90 4b 60
        E 0 90 58 60
        E 0 90 64 60
        E 120 80 4b 00
        E 0 80 58 00
        E 0 80 64 00
        E 120 90 3e 60
        E 0 90 4b 60
        E 0 90 58 60
        E 0 90 64 60
        E 120 80 3e 00
        E 0 80 4b 00
        E 0 80 58 00
        E 0 80 64 00
        E 120 90 55 60
        E 0 90 61 60
        E 360 80 55 00
        E 0 80 61 00
        E 120 90 4a 60
        E 0 90 56 60
        E 0 90 62 60
        E 720 80 4a 00
        E 240 80 56 00
        E 0 80 62 00
        E 240 90 3c 60
        E 0 90 48 60
        E 0 90 54 60
        E 0 90 60 60
        E 120 80 3c 00
        E 0 80 48 00
        E 0 80 54 00
        E 0 80 60 00
        E 120 90 56 60
        E 0 90 62 60
        E 120 80 56 00
        E 0 80 62 00
        E 120 90 4b 60
        E 0 90 58 60
        E 0 90 64 60
        E 120 80 4b 00
        E 0 80 58 00
        E 0 80 64 00
        E 120 90 57 60
        E 0 90 63 60
        E 360 80 57 00
        E 0 80 63 00
        E 120 90 3e 60
        E 0 90 4b 60
        E 0 90 58 60
        E 0 90 64 60
        E 120 80 3e 00
        E 0 80 4b 00
        E 240 80 58 00
        E 0 80 64 00
        E 120 90 4b 60
        E 0 90 58 60
        E 0 90 64 60
        E 1920 80 4b 00
        E 0 80 58 00
        E 0 80 64 00
        <X 480 0
          /wFbaWRsZV9yZWFsdGltZV0=
        >
        E 1679 b0 7b 00
        GUID {9153D919-816E-4E65-BE96-F87403DDB47C}
        IGNTEMPO 0 120.00000000 4 4
        SRCCOLOR 6
        VELLANE 132 128 60
        COLORMAP "C:\Program Files\REAPER (x64)\Data\color_maps\rockband_guitarbass.png"
        CFGEDITVIEW -7114.087266 9.234372 0 14 0 0 0
        CFGEDIT 1 1 0 1 1 0 1 1 1 1 1 0.25000000 -8 -8 1544 872 0 2 1 1 0.00000000 0 1 0 0 0.500000 0 0 1.000000 64
        KEYSNAP 0 6 "102030050700" 0 "Pentatonic"
        EVTFILTER 0 -1 -1 -1 -1 0 1 0 0 -1.00000000 -1.00000000
      >
    >
  >
  <TRACK '{32DD8EEE-03E5-45B8-8052-339F2FFC169A}'
    NAME "PART REAL_KEYS_X"
    PEAKCOL 16576
    BEAT -1
    AUTOMODE 0
    VOLPAN 1.00000000000000 0.00000000000000 -1.00000000000000 -1.00000000000000 1.00000000000000
    MUTESOLO 0 0 0
    IPHASE 0
    ISBUS 0 0
    BUSCOMP 0 0
    SHOWINMIX 1 0.666700 0.500000 1 0.500000 -1 -1 -1
    FREEMODE 0
    SEL 0
    REC 0 0 0 0 0 0 0
    VU 2
    TRACKHEIGHT 0 0
    INQ 0 0 0 0.5000000000 100 0 0 100
    NCHAN 2
    FX 0
    TRACKID {32DD8EEE-03E5-45B8-8052-339F2FFC169A}
    PERF 0
    MIDIOUT -1
    <MIDINOTENAMES
      0 127 "TRILL MARKER"
      0 126 "GLISSANDO MARKER"
      0 125 "---"
      0 116 "OVERDRIVE"
      0 115 "SOLO"
      0 114 "---"
      0 72 "Highest playable note B#3"
      0 71 "B3"
      0 70 "A#3"
      0 69 "A3"
      0 68 "G#3"
      0 67 "G3"
      0 66 "F#3"
      0 65 "F3"
      0 64 "E3"
      0 63 "D#3"
      0 62 "D3"
      0 61 "C#3"
      0 60 "C3"
      0 59 "B2"
      0 58 "A#2"
      0 57 "A2"
      0 56 "G#2"
      0 55 "G2"
      0 54 "F#2"
      0 53 "F2"
      0 52 "E2"
      0 51 "D#2"
      0 50 "D2"
      0 49 "C#2"
      0 48 "Lowest playable note C2"
      0 10 "---"
      0 9 "Range A2-C4"
      0 8 "Range"
      0 7 "Range"
      0 6 "Range"
      0 5 "Range F2-A3"
      0 4 "Range"
      0 3 "Range"
      0 2 "Range"
      0 1 "Range"
      0 0 "Range C2-E3"
    >
    MAINSEND 1 0
    <FXCHAIN
      WNDRECT 0 43 655 467
      SHOW 0
      LASTSEL 1
      DOCKED 0
      BYPASS 0 0
      <JS "MIDI/midi_note_filter" ""
        48.000000 72.000000 - - - - - - - - - - - - - - - - - - - - - - - - - - - - - - - - - - - - - - - - - - - - - - - - - - - - - - - - - - - - - - 
      >
      FLOATPOS 0 0 0 0
      FXID {E06D9757-B9D7-458A-8269-A224472A3929}
      WAK 0
      BYPASS 0 0
      <VST "VSTi: ReaSynth (Cockos)" "reasynth.dll" 0 ""
        eXNlcu9e7f4AAAAAAgAAAAEAAAAAAAAAAgAAAAAAAAA4AAAAAAAAAA==
        AAAQAO++rd4N8K3eppvEOxe30ToAAIA/AAAAAAAAAADMm4A+6WeIPQ==
        AAAAAAAAAD8AAIA/AACAPwAAAD8AABAAAAA=
      >
      FLOATPOS 0 0 0 0
      FXID {1A151EE6-42D3-428E-AAE3-3C069A13E997}
      WAK 0
    >
    <ITEM
      POSITION 0.00000000000000
      SNAPOFFS 0.00000000000000
      LENGTH 121.61000000000000
      LOOP 0
      ALLTAKES 0
      SEL 0
      FADEIN 1 0.000000 0.000000 1 0
      FADEOUT 1 0.000000 0.000000 1 0
      MUTE 0
      IGUID {AE31BED2-BFF8-463F-9337-76A60CC12ADE}
      IID 5
      NAME "PART REAL_KEYS_X"
      VOLPAN 1.000000 0.000000 1.000000 -1.000000
      SOFFS 0.00000000000000 0.00000000000000
      PLAYRATE 1.00000000000000 1 0.00000000000000 -1
      CHANMODE 0
      GUID {9E5EF6F3-C035-436A-8766-B8E83A7B481D}
      <SOURCE MIDI
        HASDATA 1 480 QN
        POOLEDEVTS {B7419593-1FD6-4153-97C8-92C3021DCA7C}
        <X 0 0
          /wNQQVJUIFJFQUxfS0VZU19Y
        >
        E 0 90 00 60
        E 120 80 00 00
        <X 3720 0
          /wFbYmVnaW5fa2V5IHNvbmdfdHJhaW5lcl9rZXlfMV0=
        >
        E 0 90 37 60
        E 120 80 37 00
        E 120 90 3b 60
        E 120 80 3b 00
        E 120 90 3e 60
        E 120 80 3e 00
        E 120 90 3d 60
        E 360 80 3d 00
        E 120 90 3e 60
        E 360 80 3e 00
        E 120 90 3e 60
        E 120 80 3e 00
        <X 120 0
          /wFba2V5X25vcm0gc29uZ190cmFpbmVyX2tleV8xXQ==
        >
        E 0 90 3e 60
        E 120 80 3e 00
        E 120 90 39 60
        E 360 80 39 00
        E 120 90 3b 60
        E 960 80 3b 00
        E 240 90 37 60
        E 0 90 74 60
        E 120 80 37 00
        E 120 90 3b 60
        E 120 80 3b 00
        E 120 90 3e 60
        E 120 80 3e 00
        E 120 90 3d 60
        E 360 80 3d 00
        E 120 90 3e 60
        E 360 80 3e 00
        E 120 90 3e 60
        E 1920 80 3e 00
        <X 240 0
          /wFbZW5kX2tleSBzb25nX3RyYWluZXJfa2V5XzFd
        >
        <X 0 0
          /wFbYmVnaW5fa2V5IHNvbmdfdHJhaW5lcl9rZXlfMl0=
        >
        E 0 90 05 60
        E 0 90 36 60
        E 120 80 74 00
        E 0 80 05 00
        E 0 80 36 00
        E 120 90 36 60
        E 120 80 36 00
        E 120 90 39 60
        E 120 80 39 00
        E 120 90 39 60
        E 120 80 39 00
        E 120 90 40 60
        E 360 80 40 00
        E 120 90 3d 60
        E 120 80 3d 00
        E 120 90 3e 60
        <X 240 0
          /wFba2V5X25vcm0gc29uZ190cmFpbmVyX2tleV8yXQ==
        >
        E 1680 80 3e 00
        E 240 90 3b 60
        E 120 80 3b 00
        E 120 90 3b 60
        E 120 80 3b 00
        E 120 90 3e 60
        E 120 80 3e 00
        E 120 90 3e 60
        E 120 80 3e 00
        E 120 90 42 60
        E 360 80 42 00
        E 120 90 3e 60
        E 120 80 3e 00
        E 120 90 39 60
        E 840 80 39 00
        E 120 90 37 60
        E 120 80 37 00
        E 120 90 37 60
        E 840 80 37 00
        <X 120 0
          /wFbZW5kX2tleSBzb25nX3RyYWluZXJfa2V5XzJd
        >
        E 0 90 36 60
        E 120 80 36 00
        E 120 90 36 60
        E 120 80 36 00
        E 120 90 39 60
        E 120 80 39 00
        E 120 90 39 60
        E 120 80 39 00
        E 120 90 40 60
        E 360 80 40 00
        E 120 90 3d 60
        E 120 80 3d 00
        E 120 90 3e 60
        E 1920 80 3e 00
        E 240 90 3b 60
        E 120 80 3b 00
        E 119 90 3b 60
        E 120 80 3b 00
        E 121 90 3e 60
        E 120 80 3e 00
        E 120 90 3e 60
        E 120 80 3e 00
        E 120 90 42 60
        E 360 80 42 00
        E 120 90 3e 60
        E 120 80 3e 00
        E 120 90 39 60
        E 240 90 00 60
        E 120 80 00 00
        E 480 80 39 00
        E 120 90 37 60
        E 120 80 37 00
        E 120 90 37 60
        E 840 80 37 00
        <X 120 0
          /wFbYmVnaW5fa2V5IHNvbmdfdHJhaW5lcl9rZXlfM10=
        >
        E 0 90 36 60
        E 120 80 36 00
        E 120 90 34 60
        E 120 80 34 00
        E 120 90 32 60
        E 120 80 32 00
        E 120 90 34 60
        E 120 80 34 00
        E 120 90 36 60
        E 360 80 36 00
        E 120 90 3b 60
        E 360 80 3b 00
        <X 120 0
          /wFba2V5X25vcm0gc29uZ190cmFpbmVyX2tleV8zXQ==
        >
        E 0 90 32 60
        E 360 80 32 00
        E 120 90 36 60
        E 360 80 36 00
        E 120 90 3b 60
        E 840 80 3b 00
        E 120 90 3e 60
        E 120 80 3e 00
        E 120 90 3d 60
        E 120 80 3d 00
        E 120 90 3b 60
        E 120 80 3b 00
        E 120 90 3d 60
        E 120 80 3d 00
        E 120 90 3e 60
        E 120 80 3e 00
        E 120 90 3d 60
        E 120 80 3d 00
        E 120 90 3b 60
        E 120 80 3b 00
        E 120 90 3d 60
        E 120 80 3d 00
        E 120 90 3e 60
        E 1800 80 3e 00
        <X 120 0
          /wFbZW5kX2tleSBzb25nX3RyYWluZXJfa2V5XzNd
        >
        <X 0 0
          /wFbYmVnaW5fa2V5IHNvbmdfdHJhaW5lcl9rZXlfNF0=
        >
        E 0 90 39 60
        E 0 90 74 60
        E 120 80 39 00
        E 120 90 39 60
        E 120 80 39 00
        E 120 90 39 60
        E 120 80 39 00
        E 360 90 39 60
        E 120 80 39 00
        E 120 90 36 60
        E 120 80 36 00
        E 120 90 34 60
        E 120 80 34 00
        E 120 90 32 60
        E 1920 80 74 00
        E 0 80 32 00
        <X 240 0
          /wFba2V5X25vcm0gc29uZ190cmFpbmVyX2tleV80XQ==
        >
        E 0 90 39 60
        E 120 80 39 00
        E 120 90 39 60
        E 120 80 39 00
        E 120 90 39 60
        E 120 80 39 00
        E 360 90 05 60
        E 0 90 40 60
        E 120 80 05 00
        E 0 80 40 00
        E 120 90 3e 60
        E 120 80 3e 00
        E 120 90 3d 60
        E 120 80 3d 00
        E 120 90 3e 60
        E 1440 80 3e 00
        E 240 90 3b 60
        E 120 80 3b 00
        E 120 90 3d 60
        E 120 80 3d 00
        E 120 90 3e 60
        E 120 80 3e 00
        E 120 90 3d 60
        E 120 80 3d 00
        E 120 90 3b 60
        E 120 80 3b 00
        E 120 90 3d 60
        E 120 80 3d 00
        E 120 90 3e 60
        E 120 80 3e 00
        E 120 90 3d 60
        E 120 80 3d 00
        E 120 90 3b 60
        E 120 80 3b 00
        E 120 90 3d 60
        E 120 80 3d 00
        E 120 90 3e 60
        E 120 80 3e 00
        E 120 90 3d 60
        E 120 80 3d 00
        E 120 90 3b 60
        E 120 80 3b 00
        E 120 90 3d 60
        E 120 80 3d 00
        E 120 90 3e 60
        E 120 80 3e 00
        E 360 90 39 60
        E 120 80 39 00
        E 120 90 39 60
        E 120 80 39 00
        E 120 90 3e 60
        E 120 80 3e 00
        E 120 90 3d 60
        E 120 80 3d 00
        E 120 90 3b 60
        E 120 80 3b 00
        E 120 90 3d 60
        E 120 80 3d 00
        E 120 90 3e 60
        E 120 80 3e 00
        E 120 90 3d 60
        E 120 80 3d 00
        E 120 90 3b 60
        E 120 80 3b 00
        E 120 90 3d 60
        E 120 80 3d 00
        E 120 90 3e 60
        E 120 80 3e 00
        E 120 90 3e 60
        E 120 80 3e 00
        E 120 90 3e 60
        E 120 80 3e 00
        E 120 90 3e 60
        E 120 80 3e 00
        E 120 90 42 60
        E 120 80 42 00
        E 120 90 3e 60
        E 360 80 3e 00
        E 120 90 3e 60
        E 1920 80 3e 00
        <X 240 0
          /wFbZW5kX2tleSBzb25nX3RyYWluZXJfa2V5XzRd
        >
        E 0 90 36 60
        E 120 80 36 00
        E 120 90 36 60
        E 120 80 36 00
        E 120 90 39 60
        E 120 80 39 00
        E 120 90 39 60
        E 120 80 39 00
        E 120 90 40 60
        E 360 80 40 00
        E 120 90 3d 60
        E 120 80 3d 00
        E 120 90 3e 60
        E 1920 80 3e 00
        E 240 90 3b 60
        E 120 80 3b 00
        E 120 90 3b 60
        E 120 80 3b 00
        E 120 90 3e 60
        E 120 80 3e 00
        E 120 90 3e 60
        E 120 80 3e 00
        E 120 90 42 60
        E 360 80 42 00
        E 120 90 3e 60
        E 120 80 3e 00
        E 120 90 39 60
        E 840 80 39 00
        E 120 90 37 60
        E 120 80 37 00
        E 120 90 37 60
        E 840 80 37 00
        E 120 90 36 60
        E 0 90 74 60
        E 120 80 36 00
        E 120 90 36 60
        E 120 80 36 00
        E 120 90 39 60
        E 120 80 39 00
        E 120 90 39 60
        E 120 80 39 00
        E 120 90 40 60
        E 360 80 40 00
        E 120 90 3d 60
        E 120 80 3d 00
        E 120 90 3e 60
        E 1920 80 3e 00
        E 240 80 74 00
        E 0 90 3b 60
        E 120 80 3b 00
        E 120 90 3b 60
        E 120 80 3b 00
        E 120 90 3e 60
        E 120 80 3e 00
        E 120 90 3e 60
        E 120 80 3e 00
        E 120 90 42 60
        E 360 80 42 00
        E 120 90 3e 60
        E 120 80 3e 00
        E 120 90 39 60
        E 240 90 00 60
        E 120 80 00 00
        E 480 80 39 00
        E 120 90 37 60
        E 120 80 37 00
        E 120 90 37 60
        E 840 80 37 00
        E 120 90 36 60
        E 120 80 36 00
        E 120 90 34 60
        E 120 80 34 00
        E 120 90 32 60
        E 120 80 32 00
        E 120 90 34 60
        E 120 80 34 00
        E 120 90 36 60
        E 360 80 36 00
        E 120 90 3b 60
        E 360 80 3b 00
        E 120 90 32 60
        E 360 80 32 00
        E 120 90 36 60
        E 360 80 36 00
        E 120 90 3b 60
        E 840 80 3b 00
        E 120 90 3e 60
        E 120 80 3e 00
        E 120 90 3d 60
        E 120 80 3d 00
        E 120 90 3b 60
        E 120 80 3b 00
        E 120 90 3d 60
        E 120 80 3d 00
        E 120 90 3e 60
        E 120 80 3e 00
        E 120 90 3d 60
        E 120 80 3d 00
        E 120 90 3b 60
        E 120 80 3b 00
        E 120 90 3d 60
        E 120 80 3d 00
        E 120 90 3e 60
        E 1800 80 3e 00
        E 120 90 39 60
        E 0 90 74 60
        E 120 80 39 00
        E 120 90 39 60
        E 120 80 39 00
        E 120 90 39 60
        E 120 80 39 00
        E 360 90 39 60
        E 120 80 39 00
        E 120 90 36 60
        E 120 80 36 00
        E 120 90 34 60
        E 120 80 34 00
        E 120 90 32 60
        E 1920 80 32 00
        E 240 90 39 60
        E 120 80 74 00
        E 0 80 39 00
        E 120 90 39 60
        E 120 80 39 00
        E 120 90 39 60
        E 120 80 39 00
        E 360 90 05 60
        E 0 90 40 60
        E 120 80 05 00
        E 0 80 40 00
        E 120 90 3e 60
        E 120 80 3e 00
        E 120 90 3d 60
        E 120 80 3d 00
        E 120 90 3e 60
        E 1440 80 3e 00
        E 240 90 3b 60
        E 120 80 3b 00
        E 120 90 3d 60
        E 120 80 3d 00
        E 120 90 3e 60
        E 120 80 3e 00
        E 120 90 3d 60
        E 120 80 3d 00
        E 120 90 3b 60
        E 120 80 3b 00
        E 120 90 3d 60
        E 120 80 3d 00
        E 120 90 3e 60
        E 120 80 3e 00
        E 120 90 3d 60
        E 120 80 3d 00
        E 120 90 3b 60
        E 120 80 3b 00
        E 120 90 3d 60
        E 120 80 3d 00
        E 120 90 3e 60
        E 120 80 3e 00
        E 120 90 3d 60
        E 120 80 3d 00
        E 120 90 3b 60
        E 120 80 3b 00
        E 120 90 3d 60
        E 120 80 3d 00
        E 120 90 3e 60
        E 120 80 3e 00
        E 360 90 39 60
        E 120 80 39 00
        E 120 90 39 60
        E 120 80 39 00
        E 120 90 3e 60
        E 120 80 3e 00
        E 120 90 3d 60
        E 120 80 3d 00
        E 120 90 3b 60
        E 120 80 3b 00
        E 120 90 3d 60
        E 120 80 3d 00
        E 120 90 3e 60
        E 120 80 3e 00
        E 120 90 3d 60
        E 120 80 3d 00
        E 120 90 3b 60
        E 120 80 3b 00
        E 120 90 3d 60
        E 120 80 3d 00
        E 120 90 3e 60
        E 120 80 3e 00
        E 120 90 3e 60
        E 120 80 3e 00
        E 120 90 3e 60
        E 120 80 3e 00
        E 120 90 3e 60
        E 120 80 3e 00
        E 120 90 42 60
        E 120 80 42 00
        E 120 90 3e 60
        E 360 80 3e 00
        E 120 90 3e 60
        E 1920 80 3e 00
        E 240 90 00 60
        E 0 90 37 60
        E 120 80 00 00
        E 0 80 37 00
        E 120 90 3b 60
        E 120 80 3b 00
        E 120 90 3e 60
        E 120 80 3e 00
        E 120 90 3d 60
        E 360 80 3d 00
        E 120 90 3e 60
        E 360 80 3e 00
        E 120 90 3e 60
        E 120 80 3e 00
        E 120 90 3e 60
        E 120 80 3e 00
        E 120 90 39 60
        E 360 80 39 00
        E 120 90 3b 60
        E 960 80 3b 00
        E 240 90 37 60
        E 120 80 37 00
        E 120 90 3b 60
        E 120 80 3b 00
        E 120 90 3e 60
        E 120 80 3e 00
        E 120 90 3d 60
        E 360 80 3d 00
        E 120 90 3e 60
        E 360 80 3e 00
        E 120 90 3e 60
        E 1920 80 3e 00
        E 240 90 37 60
        E 120 80 37 00
        E 120 90 3b 60
        E 120 80 3b 00
        E 120 90 3e 60
        E 120 80 3e 00
        E 120 90 3d 60
        E 360 80 3d 00
        E 120 90 3e 60
        E 360 80 3e 00
        E 120 90 3e 60
        E 120 80 3e 00
        E 120 90 3e 60
        E 120 80 3e 00
        E 120 90 39 60
        E 360 80 39 00
        E 120 90 3b 60
        E 960 80 3b 00
        E 240 90 37 60
        E 120 80 37 00
        E 120 90 3b 60
        E 120 80 3b 00
        E 120 90 3e 60
        E 120 80 3e 00
        E 120 90 3d 60
        E 360 80 3d 00
        E 120 90 3e 60
        E 360 80 3e 00
        E 120 90 3e 60
        E 1920 80 3e 00
        E 2159 b0 7b 00
        GUID {EA08759D-A1E8-408F-BFD3-660BE0E0BE7B}
        IGNTEMPO 0 120.00000000 4 4
        SRCCOLOR 7
        VELLANE 132 128 60
        COLORMAP "C:\Program Files\REAPER (x64)\Data\color_maps\rockband_guitarbass.png"
        CFGEDITVIEW -7114.087266 9.234372 0 13 0 0 0
        CFGEDIT 1 1 0 1 1 0 1 1 1 1 1 0.25000000 -8 -8 1544 872 0 2 1 1 0.00000000 0 1 0 0 0.500000 0 0 1.000000 64
        KEYSNAP 0 6 "102030050700" 0 "Pentatonic"
        EVTFILTER 0 -1 -1 -1 -1 0 1 0 0 -1.00000000 -1.00000000
      >
    >
  >
  <TRACK '{EEE8CF7F-5775-4E4B-A00D-91D0F29BF534}'
    NAME "PART REAL_KEYS_H"
    PEAKCOL 16576
    BEAT -1
    AUTOMODE 0
    VOLPAN 1.00000000000000 0.00000000000000 -1.00000000000000 -1.00000000000000 1.00000000000000
    MUTESOLO 0 0 0
    IPHASE 0
    ISBUS 0 0
    BUSCOMP 0 0
    SHOWINMIX 1 0.666700 0.500000 1 0.500000 -1 -1 -1
    FREEMODE 0
    SEL 0
    REC 0 0 0 0 0 0 0
    VU 2
    TRACKHEIGHT 0 0
    INQ 0 0 0 0.5000000000 100 0 0 100
    NCHAN 2
    FX 1
    TRACKID {EEE8CF7F-5775-4E4B-A00D-91D0F29BF534}
    PERF 0
    MIDIOUT -1
    <MIDINOTENAMES
      0 72 "Highest playable note B#3"
      0 71 "B3"
      0 70 "A#3"
      0 69 "A3"
      0 68 "G#3"
      0 67 "G3"
      0 66 "F#3"
      0 65 "F3"
      0 64 "E3"
      0 63 "D#3"
      0 62 "D3"
      0 61 "C#3"
      0 60 "C3"
      0 59 "B2"
      0 58 "A#2"
      0 57 "A2"
      0 56 "G#2"
      0 55 "G2"
      0 54 "F#2"
      0 53 "F2"
      0 52 "E2"
      0 51 "D#2"
      0 50 "D2"
      0 49 "C#2"
      0 48 "Lowest playable note C2"
      0 10 "---"
      0 9 "Range A2-C4"
      0 8 "Range"
      0 7 "Range"
      0 6 "Range"
      0 5 "Range F2-A3"
      0 4 "Range"
      0 3 "Range"
      0 2 "Range"
      0 1 "Range"
      0 0 "Range C2-E3"
    >
    MAINSEND 1 0
    <FXCHAIN
      SHOW 0
      LASTSEL 0
      DOCKED 0
    >
    <ITEM
      POSITION 0.00000000000000
      SNAPOFFS 0.00000000000000
      LENGTH 121.61000000000000
      LOOP 0
      ALLTAKES 0
      SEL 0
      FADEIN 1 0.000000 0.000000 1 0
      FADEOUT 1 0.000000 0.000000 1 0
      MUTE 0
      IGUID {D3119C42-B670-452B-BF0B-23F101452908}
      IID 6
      NAME "PART REAL_KEYS_H"
      VOLPAN 1.000000 0.000000 1.000000 -1.000000
      SOFFS 0.00000000000000 0.00000000000000
      PLAYRATE 1.00000000000000 1 0.00000000000000 -1
      CHANMODE 0
      GUID {E1F467EF-F88B-45EA-91F9-D2EAA9758134}
      <SOURCE MIDI
        HASDATA 1 480 QN
        POOLEDEVTS {93EFFCDE-DF52-415E-99E9-A2120E428B6D}
        <X 0 0
          /wNQQVJUIFJFQUxfS0VZU19I
        >
        E 0 90 00 60
        E 120 80 00 00
        E 3720 90 37 60
        E 120 80 37 00
        E 120 90 3b 60
        E 120 80 3b 00
        E 120 90 3e 60
        E 120 80 3e 00
        E 120 90 3d 60
        E 360 80 3d 00
        E 120 90 3e 60
        E 360 80 3e 00
        E 120 90 3e 60
        E 120 80 3e 00
        E 120 90 3e 60
        E 120 80 3e 00
        E 120 90 39 60
        E 360 80 39 00
        E 120 90 3b 60
        E 960 80 3b 00
        E 240 90 37 60
        E 120 80 37 00
        E 120 90 3b 60
        E 120 80 3b 00
        E 120 90 3e 60
        E 120 80 3e 00
        E 120 90 3d 60
        E 360 80 3d 00
        E 120 90 3e 60
        E 360 80 3e 00
        E 120 90 3e 60
        E 1920 80 3e 00
        E 240 90 05 60
        E 0 90 36 60
        E 120 80 05 00
        E 0 80 36 00
        E 120 90 36 60
        E 120 80 36 00
        E 120 90 39 60
        E 120 80 39 00
        E 120 90 39 60
        E 120 80 39 00
        E 120 90 40 60
        E 360 80 40 00
        E 120 90 3d 60
        E 120 80 3d 00
        E 120 90 3e 60
        E 1920 80 3e 00
        E 240 90 3b 60
        E 120 80 3b 00
        E 120 90 3b 60
        E 120 80 3b 00
        E 120 90 3e 60
        E 120 80 3e 00
        E 120 90 3e 60
        E 120 80 3e 00
        E 120 90 42 60
        E 360 80 42 00
        E 120 90 3e 60
        E 120 80 3e 00
        E 120 90 39 60
        E 840 80 39 00
        E 120 90 37 60
        E 120 80 37 00
        E 120 90 37 60
        E 840 80 37 00
        E 120 90 36 60
        E 120 80 36 00
        E 120 90 36 60
        E 120 80 36 00
        E 120 90 39 60
        E 120 80 39 00
        E 120 90 39 60
        E 120 80 39 00
        E 120 90 40 60
        E 360 80 40 00
        E 120 90 3d 60
        E 120 80 3d 00
        E 120 90 3e 60
        E 1920 80 3e 00
        E 240 90 3b 60
        E 120 80 3b 00
        E 119 90 3b 60
        E 120 80 3b 00
        E 121 90 3e 60
        E 120 80 3e 00
        E 120 90 3e 60
        E 120 80 3e 00
        E 120 90 42 60
        E 360 80 42 00
        E 120 90 3e 60
        E 120 80 3e 00
        E 120 90 39 60
        E 240 90 00 60
        E 120 80 00 00
        E 480 80 39 00
        E 120 90 37 60
        E 120 80 37 00
        E 120 90 37 60
        E 840 80 37 00
        E 120 90 36 60
        E 120 80 36 00
        E 120 90 34 60
        E 120 80 34 00
        E 120 90 32 60
        E 120 80 32 00
        E 120 90 34 60
        E 120 80 34 00
        E 120 90 36 60
        E 360 80 36 00
        E 120 90 3b 60
        E 360 80 3b 00
        E 120 90 32 60
        E 360 80 32 00
        E 120 90 36 60
        E 360 80 36 00
        E 120 90 3b 60
        E 840 80 3b 00
        E 120 90 3e 60
        E 120 80 3e 00
        E 120 90 3d 60
        E 120 80 3d 00
        E 120 90 3b 60
        E 120 80 3b 00
        E 120 90 3d 60
        E 120 80 3d 00
        E 120 90 3e 60
        E 120 80 3e 00
        E 120 90 3d 60
        E 120 80 3d 00
        E 120 90 3b 60
        E 120 80 3b 00
        E 120 90 3d 60
        E 120 80 3d 00
        E 120 90 3e 60
        E 1800 80 3e 00
        E 120 90 39 60
        E 120 80 39 00
        E 120 90 39 60
        E 120 80 39 00
        E 120 90 39 60
        E 120 80 39 00
        E 360 90 39 60
        E 120 80 39 00
        E 120 90 36 60
        E 120 80 36 00
        E 120 90 34 60
        E 120 80 34 00
        E 120 90 32 60
        E 1920 80 32 00
        E 240 90 39 60
        E 120 80 39 00
        E 120 90 39 60
        E 120 80 39 00
        E 120 90 39 60
        E 120 80 39 00
        E 360 90 05 60
        E 0 90 40 60
        E 120 80 05 00
        E 0 80 40 00
        E 120 90 3e 60
        E 120 80 3e 00
        E 120 90 3d 60
        E 120 80 3d 00
        E 120 90 3e 60
        E 1440 80 3e 00
        E 240 90 3b 60
        E 120 80 3b 00
        E 120 90 3d 60
        E 120 80 3d 00
        E 120 90 3e 60
        E 120 80 3e 00
        E 120 90 3d 60
        E 120 80 3d 00
        E 120 90 3b 60
        E 120 80 3b 00
        E 120 90 3d 60
        E 120 80 3d 00
        E 120 90 3e 60
        E 120 80 3e 00
        E 120 90 3d 60
        E 120 80 3d 00
        E 120 90 3b 60
        E 120 80 3b 00
        E 120 90 3d 60
        E 120 80 3d 00
        E 120 90 3e 60
        E 120 80 3e 00
        E 120 90 3d 60
        E 120 80 3d 00
        E 120 90 3b 60
        E 120 80 3b 00
        E 120 90 3d 60
        E 120 80 3d 00
        E 120 90 3e 60
        E 120 80 3e 00
        E 360 90 39 60
        E 120 80 39 00
        E 120 90 39 60
        E 120 80 39 00
        E 120 90 3e 60
        E 120 80 3e 00
        E 120 90 3d 60
        E 120 80 3d 00
        E 120 90 3b 60
        E 120 80 3b 00
        E 120 90 3d 60
        E 120 80 3d 00
        E 120 90 3e 60
        E 120 80 3e 00
        E 120 90 3d 60
        E 120 80 3d 00
        E 120 90 3b 60
        E 120 80 3b 00
        E 120 90 3d 60
        E 120 80 3d 00
        E 120 90 3e 60
        E 120 80 3e 00
        E 120 90 3e 60
        E 120 80 3e 00
        E 120 90 3e 60
        E 120 80 3e 00
        E 120 90 3e 60
        E 120 80 3e 00
        E 120 90 42 60
        E 120 80 42 00
        E 120 90 3e 60
        E 360 80 3e 00
        E 120 90 3e 60
        E 1920 80 3e 00
        E 240 90 36 60
        E 120 80 36 00
        E 120 90 36 60
        E 120 80 36 00
        E 120 90 39 60
        E 120 80 39 00
        E 120 90 39 60
        E 120 80 39 00
        E 120 90 40 60
        E 360 80 40 00
        E 120 90 3d 60
        E 120 80 3d 00
        E 120 90 3e 60
        E 1920 80 3e 00
        E 240 90 3b 60
        E 120 80 3b 00
        E 120 90 3b 60
        E 120 80 3b 00
        E 120 90 3e 60
        E 120 80 3e 00
        E 120 90 3e 60
        E 120 80 3e 00
        E 120 90 42 60
        E 360 80 42 00
        E 120 90 3e 60
        E 120 80 3e 00
        E 120 90 39 60
        E 840 80 39 00
        E 120 90 37 60
        E 120 80 37 00
        E 120 90 37 60
        E 840 80 37 00
        E 120 90 36 60
        E 120 80 36 00
        E 120 90 36 60
        E 120 80 36 00
        E 120 90 39 60
        E 120 80 39 00
        E 120 90 39 60
        E 120 80 39 00
        E 120 90 40 60
        E 360 80 40 00
        E 120 90 3d 60
        E 120 80 3d 00
        E 120 90 3e 60
        E 1920 80 3e 00
        E 240 90 3b 60
        E 120 80 3b 00
        E 120 90 3b 60
        E 120 80 3b 00
        E 120 90 3e 60
        E 120 80 3e 00
        E 120 90 3e 60
        E 120 80 3e 00
        E 120 90 42 60
        E 360 80 42 00
        E 120 90 3e 60
        E 120 80 3e 00
        E 120 90 39 60
        E 240 90 00 60
        E 120 80 00 00
        E 480 80 39 00
        E 120 90 37 60
        E 120 80 37 00
        E 120 90 37 60
        E 840 80 37 00
        E 120 90 36 60
        E 120 80 36 00
        E 120 90 34 60
        E 120 80 34 00
        E 120 90 32 60
        E 120 80 32 00
        E 120 90 34 60
        E 120 80 34 00
        E 120 90 36 60
        E 360 80 36 00
        E 120 90 3b 60
        E 360 80 3b 00
        E 120 90 32 60
        E 360 80 32 00
        E 120 90 36 60
        E 360 80 36 00
        E 120 90 3b 60
        E 840 80 3b 00
        E 120 90 3e 60
        E 120 80 3e 00
        E 120 90 3d 60
        E 120 80 3d 00
        E 120 90 3b 60
        E 120 80 3b 00
        E 120 90 3d 60
        E 120 80 3d 00
        E 120 90 3e 60
        E 120 80 3e 00
        E 120 90 3d 60
        E 120 80 3d 00
        E 120 90 3b 60
        E 120 80 3b 00
        E 120 90 3d 60
        E 120 80 3d 00
        E 120 90 3e 60
        E 1800 80 3e 00
        E 120 90 39 60
        E 120 80 39 00
        E 120 90 39 60
        E 120 80 39 00
        E 120 90 39 60
        E 120 80 39 00
        E 360 90 39 60
        E 120 80 39 00
        E 120 90 36 60
        E 120 80 36 00
        E 120 90 34 60
        E 120 80 34 00
        E 120 90 32 60
        E 1920 80 32 00
        E 240 90 39 60
        E 120 80 39 00
        E 120 90 39 60
        E 120 80 39 00
        E 120 90 39 60
        E 120 80 39 00
        E 360 90 05 60
        E 0 90 40 60
        E 120 80 05 00
        E 0 80 40 00
        E 120 90 3e 60
        E 120 80 3e 00
        E 120 90 3d 60
        E 120 80 3d 00
        E 120 90 3e 60
        E 1440 80 3e 00
        E 240 90 3b 60
        E 120 80 3b 00
        E 120 90 3d 60
        E 120 80 3d 00
        E 120 90 3e 60
        E 120 80 3e 00
        E 120 90 3d 60
        E 120 80 3d 00
        E 120 90 3b 60
        E 120 80 3b 00
        E 120 90 3d 60
        E 120 80 3d 00
        E 120 90 3e 60
        E 120 80 3e 00
        E 120 90 3d 60
        E 120 80 3d 00
        E 120 90 3b 60
        E 120 80 3b 00
        E 120 90 3d 60
        E 120 80 3d 00
        E 120 90 3e 60
        E 120 80 3e 00
        E 120 90 3d 60
        E 120 80 3d 00
        E 120 90 3b 60
        E 120 80 3b 00
        E 120 90 3d 60
        E 120 80 3d 00
        E 120 90 3e 60
        E 120 80 3e 00
        E 360 90 39 60
        E 120 80 39 00
        E 120 90 39 60
        E 120 80 39 00
        E 120 90 3e 60
        E 120 80 3e 00
        E 120 90 3d 60
        E 120 80 3d 00
        E 120 90 3b 60
        E 120 80 3b 00
        E 120 90 3d 60
        E 120 80 3d 00
        E 120 90 3e 60
        E 120 80 3e 00
        E 120 90 3d 60
        E 120 80 3d 00
        E 120 90 3b 60
        E 120 80 3b 00
        E 120 90 3d 60
        E 120 80 3d 00
        E 120 90 3e 60
        E 120 80 3e 00
        E 120 90 3e 60
        E 120 80 3e 00
        E 120 90 3e 60
        E 120 80 3e 00
        E 120 90 3e 60
        E 120 80 3e 00
        E 120 90 42 60
        E 120 80 42 00
        E 120 90 3e 60
        E 360 80 3e 00
        E 120 90 3e 60
        E 1920 80 3e 00
        E 240 90 00 60
        E 0 90 37 60
        E 120 80 00 00
        E 0 80 37 00
        E 120 90 3b 60
        E 120 80 3b 00
        E 120 90 3e 60
        E 120 80 3e 00
        E 120 90 3d 60
        E 360 80 3d 00
        E 120 90 3e 60
        E 360 80 3e 00
        E 120 90 3e 60
        E 120 80 3e 00
        E 120 90 3e 60
        E 120 80 3e 00
        E 120 90 39 60
        E 360 80 39 00
        E 120 90 3b 60
        E 960 80 3b 00
        E 240 90 37 60
        E 120 80 37 00
        E 120 90 3b 60
        E 120 80 3b 00
        E 120 90 3e 60
        E 120 80 3e 00
        E 120 90 3d 60
        E 360 80 3d 00
        E 120 90 3e 60
        E 360 80 3e 00
        E 120 90 3e 60
        E 1920 80 3e 00
        E 240 90 37 60
        E 120 80 37 00
        E 120 90 3b 60
        E 120 80 3b 00
        E 120 90 3e 60
        E 120 80 3e 00
        E 120 90 3d 60
        E 360 80 3d 00
        E 120 90 3e 60
        E 360 80 3e 00
        E 120 90 3e 60
        E 120 80 3e 00
        E 120 90 3e 60
        E 120 80 3e 00
        E 120 90 39 60
        E 360 80 39 00
        E 120 90 3b 60
        E 960 80 3b 00
        E 240 90 37 60
        E 120 80 37 00
        E 120 90 3b 60
        E 120 80 3b 00
        E 120 90 3e 60
        E 120 80 3e 00
        E 120 90 3d 60
        E 360 80 3d 00
        E 120 90 3e 60
        E 360 80 3e 00
        E 120 90 3e 60
        E 1920 80 3e 00
        E 2159 b0 7b 00
        GUID {3AC92F03-0349-4006-BDB5-F22B802C517B}
        IGNTEMPO 0 120.00000000 4 4
        SRCCOLOR 8
        VELLANE 132 128 60
        COLORMAP "C:\Program Files\REAPER (x64)\Data\color_maps\rockband_guitarbass.png"
        CFGEDITVIEW -7114.087266 9.234372 6 15 0 0 0
        CFGEDIT 1 1 0 1 1 0 1 1 1 1 1 0.25000000 -8 -8 1544 872 0 2 1 1 0.00000000 0 1 0 0 0.500000 0 0 1.000000 64
        KEYSNAP 0 6 "102030050700" 0 "Pentatonic"
        EVTFILTER 0 -1 -1 -1 -1 0 1 0 0 -1.00000000 -1.00000000
      >
    >
  >
  <TRACK '{B96557B6-8775-4703-B278-1848E218EE6E}'
    NAME "PART REAL_KEYS_M"
    PEAKCOL 16576
    BEAT -1
    AUTOMODE 0
    VOLPAN 1.00000000000000 0.00000000000000 -1.00000000000000 -1.00000000000000 1.00000000000000
    MUTESOLO 0 0 0
    IPHASE 0
    ISBUS 0 0
    BUSCOMP 0 0
    SHOWINMIX 1 0.666700 0.500000 1 0.500000 -1 -1 -1
    FREEMODE 0
    SEL 0
    REC 0 0 0 0 0 0 0
    VU 2
    TRACKHEIGHT 0 0
    INQ 0 0 0 0.5000000000 100 0 0 100
    NCHAN 2
    FX 1
    TRACKID {B96557B6-8775-4703-B278-1848E218EE6E}
    PERF 0
    MIDIOUT -1
    <MIDINOTENAMES
      0 72 "Highest playable note B#3"
      0 71 "B3"
      0 70 "A#3"
      0 69 "A3"
      0 68 "G#3"
      0 67 "G3"
      0 66 "F#3"
      0 65 "F3"
      0 64 "E3"
      0 63 "D#3"
      0 62 "D3"
      0 61 "C#3"
      0 60 "C3"
      0 59 "B2"
      0 58 "A#2"
      0 57 "A2"
      0 56 "G#2"
      0 55 "G2"
      0 54 "F#2"
      0 53 "F2"
      0 52 "E2"
      0 51 "D#2"
      0 50 "D2"
      0 49 "C#2"
      0 48 "Lowest playable note C2"
      0 10 "---"
      0 9 "Range A2-C4"
      0 8 "Range"
      0 7 "Range"
      0 6 "Range"
      0 5 "Range F2-A3"
      0 4 "Range"
      0 3 "Range"
      0 2 "Range"
      0 1 "Range"
      0 0 "Range C2-E3"
    >
    MAINSEND 1 0
    <FXCHAIN
      SHOW 0
      LASTSEL 0
      DOCKED 0
    >
    <ITEM
      POSITION 0.00000000000000
      SNAPOFFS 0.00000000000000
      LENGTH 121.61000000000000
      LOOP 0
      ALLTAKES 0
      SEL 0
      FADEIN 1 0.000000 0.000000 1 0
      FADEOUT 1 0.000000 0.000000 1 0
      MUTE 0
      IGUID {11938F2B-244A-4470-9C9C-CEA47DD90076}
      IID 7
      NAME "PART REAL_KEYS_M"
      VOLPAN 1.000000 0.000000 1.000000 -1.000000
      SOFFS 0.00000000000000 0.00000000000000
      PLAYRATE 1.00000000000000 1 0.00000000000000 -1
      CHANMODE 0
      GUID {600D8C1E-E22A-4F43-9562-878F9EA00276}
      <SOURCE MIDI
        HASDATA 1 480 QN
        POOLEDEVTS {2168C716-70E9-4286-A7C6-CDC7F11C0255}
        <X 0 0
          /wNQQVJUIFJFQUxfS0VZU19N
        >
        E 0 90 02 60
        E 120 80 02 00
        E 3720 90 37 60
        E 120 80 37 00
        E 360 90 3e 60
        E 120 80 3e 00
        E 600 90 3e 60
        E 360 80 3e 00
        E 120 90 3e 60
        E 120 80 3e 00
        E 120 90 3e 60
        E 120 80 3e 00
        E 600 90 3b 60
        E 960 80 3b 00
        E 240 90 37 60
        E 120 80 37 00
        E 360 90 3e 60
        E 120 80 3e 00
        E 600 90 3e 60
        E 360 80 3e 00
        E 120 90 3e 60
        E 1920 80 3e 00
        E 240 90 36 60
        E 120 80 36 00
        E 360 90 39 60
        E 120 80 39 00
        E 360 90 40 60
        E 360 80 40 00
        E 120 90 3d 60
        E 120 80 3d 00
        E 2280 90 3b 60
        E 120 80 3b 00
        E 360 90 3e 60
        E 120 80 3e 00
        E 360 90 42 60
        E 360 80 42 00
        E 120 90 3e 60
        E 120 80 3e 00
        E 1080 90 37 60
        E 120 80 37 00
        E 120 90 37 60
        E 840 80 37 00
        E 120 90 36 60
        E 120 80 36 00
        E 360 90 39 60
        E 120 80 39 00
        E 360 90 40 60
        E 360 80 40 00
        E 120 90 3d 60
        E 120 80 3d 00
        E 2280 90 3b 60
        E 120 80 3b 00
        E 360 90 3e 60
        E 120 80 3e 00
        E 360 90 42 60
        E 360 80 42 00
        E 120 90 3e 60
        E 120 80 3e 00
        E 1080 90 37 60
        E 120 80 37 00
        E 120 90 37 60
        E 840 80 37 00
        E 120 90 36 60
        E 120 80 36 00
        E 360 90 32 60
        E 120 80 32 00
        E 360 90 36 60
        E 360 80 36 00
        E 120 90 3b 60
        E 360 80 3b 00
        E 120 90 32 60
        E 360 80 32 00
        E 120 90 36 60
        E 360 80 36 00
        E 120 90 3b 60
        E 840 80 3b 00
        E 120 90 3e 60
        E 120 80 3e 00
        E 360 90 3b 60
        E 120 80 3b 00
        E 360 90 3e 60
        E 120 80 3e 00
        E 360 90 3b 60
        E 120 80 3b 00
        E 360 90 3e 60
        E 1800 80 3e 00
        E 120 90 39 60
        E 120 80 39 00
        E 120 90 39 60
        E 120 80 39 00
        E 120 90 39 60
        E 120 80 39 00
        E 360 90 39 60
        E 120 80 39 00
        E 360 90 34 60
        E 120 80 34 00
        E 2280 90 39 60
        E 120 80 39 00
        E 120 90 39 60
        E 120 80 39 00
        E 120 90 39 60
        E 120 80 39 00
        E 360 90 40 60
        E 120 80 40 00
        E 360 90 3d 60
        E 120 80 3d 00
        E 1800 90 3b 60
        E 120 80 3b 00
        E 360 90 3e 60
        E 120 80 3e 00
        E 360 90 3b 60
        E 120 80 3b 00
        E 360 90 3e 60
        E 120 80 3e 00
        E 360 90 3b 60
        E 120 80 3b 00
        E 360 90 3e 60
        E 120 80 3e 00
        E 360 90 3b 60
        E 120 80 3b 00
        E 360 90 3e 60
        E 120 80 3e 00
        E 360 90 39 60
        E 120 80 39 00
        E 360 90 3e 60
        E 120 80 3e 00
        E 360 90 3b 60
        E 120 80 3b 00
        E 360 90 3e 60
        E 120 80 3e 00
        E 360 90 3b 60
        E 120 80 3b 00
        E 360 90 3e 60
        E 120 80 3e 00
        E 120 90 3e 60
        E 120 80 3e 00
        E 120 90 3e 60
        E 120 80 3e 00
        E 360 90 42 60
        E 120 80 42 00
        E 600 90 3e 60
        E 1920 80 3e 00
        E 240 90 36 60
        E 120 80 36 00
        E 360 90 39 60
        E 120 80 39 00
        E 360 90 40 60
        E 360 80 40 00
        E 120 90 3d 60
        E 120 80 3d 00
        E 2280 90 3b 60
        E 120 80 3b 00
        E 360 90 3e 60
        E 120 80 3e 00
        E 360 90 42 60
        E 360 80 42 00
        E 120 90 3e 60
        E 120 80 3e 00
        E 1080 90 37 60
        E 120 80 37 00
        E 120 90 37 60
        E 840 80 37 00
        E 120 90 36 60
        E 120 80 36 00
        E 360 90 39 60
        E 120 80 39 00
        E 360 90 40 60
        E 360 80 40 00
        E 120 90 3d 60
        E 120 80 3d 00
        E 2280 90 3b 60
        E 120 80 3b 00
        E 360 90 3e 60
        E 120 80 3e 00
        E 360 90 42 60
        E 360 80 42 00
        E 120 90 3e 60
        E 120 80 3e 00
        E 1080 90 37 60
        E 120 80 37 00
        E 120 90 37 60
        E 840 80 37 00
        E 120 90 36 60
        E 120 80 36 00
        E 360 90 32 60
        E 120 80 32 00
        E 360 90 36 60
        E 360 80 36 00
        E 120 90 3b 60
        E 360 80 3b 00
        E 120 90 32 60
        E 360 80 32 00
        E 120 90 36 60
        E 360 80 36 00
        E 120 90 3b 60
        E 840 80 3b 00
        E 120 90 3e 60
        E 120 80 3e 00
        E 360 90 3b 60
        E 120 80 3b 00
        E 360 90 3e 60
        E 120 80 3e 00
        E 360 90 3b 60
        E 120 80 3b 00
        E 360 90 3e 60
        E 1800 80 3e 00
        E 120 90 39 60
        E 120 80 39 00
        E 120 90 39 60
        E 120 80 39 00
        E 120 90 39 60
        E 120 80 39 00
        E 360 90 39 60
        E 120 80 39 00
        E 360 90 34 60
        E 120 80 34 00
        E 2280 90 39 60
        E 120 80 39 00
        E 120 90 39 60
        E 120 80 39 00
        E 120 90 39 60
        E 120 80 39 00
        E 360 90 40 60
        E 120 80 40 00
        E 360 90 3d 60
        E 120 80 3d 00
        E 1800 90 3b 60
        E 120 80 3b 00
        E 360 90 3e 60
        E 120 80 3e 00
        E 360 90 3b 60
        E 120 80 3b 00
        E 360 90 3e 60
        E 120 80 3e 00
        E 360 90 3b 60
        E 120 80 3b 00
        E 360 90 3e 60
        E 120 80 3e 00
        E 360 90 3b 60
        E 120 80 3b 00
        E 360 90 3e 60
        E 120 80 3e 00
        E 360 90 39 60
        E 120 80 39 00
        E 360 90 3e 60
        E 120 80 3e 00
        E 360 90 3b 60
        E 120 80 3b 00
        E 360 90 3e 60
        E 120 80 3e 00
        E 360 90 3b 60
        E 120 80 3b 00
        E 360 90 3e 60
        E 120 80 3e 00
        E 120 90 3e 60
        E 120 80 3e 00
        E 120 90 3e 60
        E 120 80 3e 00
        E 360 90 42 60
        E 120 80 42 00
        E 600 90 3e 60
        E 1920 80 3e 00
        E 240 90 37 60
        E 120 80 37 00
        E 360 90 3e 60
        E 120 80 3e 00
        E 600 90 3e 60
        E 360 80 3e 00
        E 120 90 3e 60
        E 120 80 3e 00
        E 120 90 3e 60
        E 120 80 3e 00
        E 600 90 3b 60
        E 960 80 3b 00
        E 240 90 37 60
        E 120 80 37 00
        E 360 90 3e 60
        E 120 80 3e 00
        E 600 90 3e 60
        E 360 80 3e 00
        E 120 90 3e 60
        E 1920 80 3e 00
        E 240 90 37 60
        E 120 80 37 00
        E 360 90 3e 60
        E 120 80 3e 00
        E 600 90 3e 60
        E 360 80 3e 00
        E 120 90 3e 60
        E 120 80 3e 00
        E 120 90 3e 60
        E 120 80 3e 00
        E 600 90 3b 60
        E 960 80 3b 00
        E 240 90 37 60
        E 120 80 37 00
        E 360 90 3e 60
        E 120 80 3e 00
        E 600 90 3e 60
        E 360 80 3e 00
        E 120 90 3e 60
        E 1920 80 3e 00
        E 2159 b0 7b 00
        GUID {D549C83B-E22B-422D-8D7B-604DFFAA24CB}
        IGNTEMPO 0 120.00000000 4 4
        SRCCOLOR 9
        VELLANE 132 128 60
        COLORMAP "C:\Program Files\REAPER (x64)\Data\color_maps\rockband_guitarbass.png"
        CFGEDITVIEW -7114.087266 9.234372 6 15 0 0 0
        CFGEDIT 1 1 0 1 1 0 1 1 1 1 1 0.25000000 -8 -8 1544 872 0 2 1 1 0.00000000 0 1 0 0 0.500000 0 0 1.000000 64
        KEYSNAP 0 6 "102030050700" 0 "Pentatonic"
        EVTFILTER 0 -1 -1 -1 -1 0 1 0 0 -1.00000000 -1.00000000
      >
    >
  >
  <TRACK '{9EEB6BC2-1E5B-4944-A06E-FD0606159020}'
    NAME "PART REAL_KEYS_E"
    PEAKCOL 16576
    BEAT -1
    AUTOMODE 0
    VOLPAN 1.00000000000000 0.00000000000000 -1.00000000000000 -1.00000000000000 1.00000000000000
    MUTESOLO 0 0 0
    IPHASE 0
    ISBUS 0 0
    BUSCOMP 0 0
    SHOWINMIX 1 0.666700 0.500000 1 0.500000 -1 -1 -1
    FREEMODE 0
    SEL 0
    REC 0 0 0 0 0 0 0
    VU 2
    TRACKHEIGHT 0 0
    INQ 0 0 0 0.5000000000 100 0 0 100
    NCHAN 2
    FX 1
    TRACKID {9EEB6BC2-1E5B-4944-A06E-FD0606159020}
    PERF 0
    MIDIOUT -1
    <MIDINOTENAMES
      0 72 "Highest playable note B#3"
      0 71 "B3"
      0 70 "A#3"
      0 69 "A3"
      0 68 "G#3"
      0 67 "G3"
      0 66 "F#3"
      0 65 "F3"
      0 64 "E3"
      0 63 "D#3"
      0 62 "D3"
      0 61 "C#3"
      0 60 "C3"
      0 59 "B2"
      0 58 "A#2"
      0 57 "A2"
      0 56 "G#2"
      0 55 "G2"
      0 54 "F#2"
      0 53 "F2"
      0 52 "E2"
      0 51 "D#2"
      0 50 "D2"
      0 49 "C#2"
      0 48 "Lowest playable note C2"
      0 10 "---"
      0 9 "Range A2-C4"
      0 8 "Range"
      0 7 "Range"
      0 6 "Range"
      0 5 "Range F2-A3"
      0 4 "Range"
      0 3 "Range"
      0 2 "Range"
      0 1 "Range"
      0 0 "Range C2-E3"
    >
    MAINSEND 1 0
    <FXCHAIN
      SHOW 0
      LASTSEL 0
      DOCKED 0
    >
    <ITEM
      POSITION 0.00000000000000
      SNAPOFFS 0.00000000000000
      LENGTH 121.61000000000000
      LOOP 0
      ALLTAKES 0
      SEL 0
      FADEIN 1 0.000000 0.000000 1 0
      FADEOUT 1 0.000000 0.000000 1 0
      MUTE 0
      IGUID {D1700CFD-C6DC-4A81-B957-49C0FDDB50CC}
      IID 8
      NAME "PART REAL_KEYS_E"
      VOLPAN 1.000000 0.000000 1.000000 -1.000000
      SOFFS 0.00000000000000 0.00000000000000
      PLAYRATE 1.00000000000000 1 0.00000000000000 -1
      CHANMODE 0
      GUID {315F5F46-09A4-4508-8CA5-9EA6744C2957}
      <SOURCE MIDI
        HASDATA 1 480 QN
        POOLEDEVTS {92CBB518-7960-4FD3-8145-237D02387DD0}
        <X 0 0
          /wNQQVJUIFJFQUxfS0VZU19F
        >
        E 0 90 02 60
        E 120 80 02 00
        E 3720 90 37 60
        E 120 80 37 00
        E 1080 90 3e 60
        E 360 80 3e 00
        E 360 90 3e 60
        E 120 80 3e 00
        E 1800 90 37 60
        E 120 80 37 00
        E 1080 90 3e 60
        E 360 80 3e 00
        E 2280 90 36 60
        E 120 80 36 00
        E 840 90 40 60
        E 360 80 40 00
        E 2520 90 3b 60
        E 120 80 3b 00
        E 840 90 42 60
        E 360 80 42 00
        E 120 90 3e 60
        E 120 80 3e 00
        E 1320 90 37 60
        E 840 80 37 00
        E 120 90 36 60
        E 120 80 36 00
        E 840 90 40 60
        E 360 80 40 00
        E 2520 90 3b 60
        E 120 80 3b 00
        E 840 90 42 60
        E 360 80 42 00
        E 120 90 3e 60
        E 120 80 3e 00
        E 1320 90 37 60
        E 840 80 37 00
        E 120 90 36 60
        E 120 80 36 00
        E 840 90 36 60
        E 360 80 36 00
        E 600 90 32 60
        E 360 80 32 00
        E 600 90 3b 60
        E 840 80 3b 00
        E 120 90 3e 60
        E 120 80 3e 00
        E 840 90 3e 60
        E 120 80 3e 00
        E 840 90 3e 60
        E 1800 80 3e 00
        E 120 90 39 60
        E 120 80 39 00
        E 360 90 39 60
        E 120 80 39 00
        E 360 90 39 60
        E 120 80 39 00
        E 2760 90 39 60
        E 120 80 39 00
        E 360 90 39 60
        E 120 80 39 00
        E 360 90 40 60
        E 120 80 40 00
        E 2760 90 3e 60
        E 120 80 3e 00
        E 840 90 3e 60
        E 120 80 3e 00
        E 840 90 3e 60
        E 120 80 3e 00
        E 840 90 3e 60
        E 120 80 3e 00
        E 840 90 3e 60
        E 120 80 3e 00
        E 840 90 3e 60
        E 120 80 3e 00
        E 840 90 3e 60
        E 120 80 3e 00
        E 360 90 3e 60
        E 120 80 3e 00
        E 360 90 42 60
        E 120 80 42 00
        E 2760 90 36 60
        E 120 80 36 00
        E 840 90 40 60
        E 360 80 40 00
        E 2520 90 3b 60
        E 120 80 3b 00
        E 840 90 42 60
        E 360 80 42 00
        E 120 90 3e 60
        E 120 80 3e 00
        E 1320 90 37 60
        E 840 80 37 00
        E 120 90 36 60
        E 120 80 36 00
        E 840 90 40 60
        E 360 80 40 00
        E 2520 90 3b 60
        E 120 80 3b 00
        E 840 90 42 60
        E 360 80 42 00
        E 120 90 3e 60
        E 120 80 3e 00
        E 1320 90 37 60
        E 840 80 37 00
        E 120 90 36 60
        E 120 80 36 00
        E 840 90 36 60
        E 360 80 36 00
        E 600 90 32 60
        E 360 80 32 00
        E 600 90 3b 60
        E 840 80 3b 00
        E 120 90 3e 60
        E 120 80 3e 00
        E 840 90 3e 60
        E 120 80 3e 00
        E 840 90 3e 60
        E 1800 80 3e 00
        E 120 90 39 60
        E 120 80 39 00
        E 360 90 39 60
        E 120 80 39 00
        E 360 90 39 60
        E 120 80 39 00
        E 2760 90 39 60
        E 120 80 39 00
        E 360 90 39 60
        E 120 80 39 00
        E 360 90 40 60
        E 120 80 40 00
        E 2760 90 3e 60
        E 120 80 3e 00
        E 840 90 3e 60
        E 120 80 3e 00
        E 840 90 3e 60
        E 120 80 3e 00
        E 840 90 3e 60
        E 120 80 3e 00
        E 840 90 3e 60
        E 120 80 3e 00
        E 840 90 3e 60
        E 120 80 3e 00
        E 840 90 3e 60
        E 120 80 3e 00
        E 360 90 3e 60
        E 120 80 3e 00
        E 360 90 42 60
        E 120 80 42 00
        E 2760 90 37 60
        E 120 80 37 00
        E 1080 90 3e 60
        E 360 80 3e 00
        E 360 90 3e 60
        E 120 80 3e 00
        E 1800 90 37 60
        E 120 80 37 00
        E 1080 90 3e 60
        E 360 80 3e 00
        E 2280 90 37 60
        E 120 80 37 00
        E 1080 90 3e 60
        E 360 80 3e 00
        E 360 90 3e 60
        E 120 80 3e 00
        E 1800 90 37 60
        E 120 80 37 00
        E 1080 90 3e 60
        E 360 80 3e 00
        E 4199 b0 7b 00
        GUID {04790D62-0ADD-40EE-AD98-76E78906738F}
        IGNTEMPO 0 120.00000000 4 4
        SRCCOLOR 10
        VELLANE 132 128 60
        COLORMAP "C:\Program Files\REAPER (x64)\Data\color_maps\rockband_guitarbass.png"
        CFGEDITVIEW -7114.087266 9.234372 6 15 0 0 0
        CFGEDIT 1 1 0 1 1 0 1 1 1 1 1 0.25000000 -8 -8 1544 872 0 2 1 1 0.00000000 0 1 0 0 0.500000 0 0 1.000000 64
        KEYSNAP 0 6 "102030050700" 0 "Pentatonic"
        EVTFILTER 0 -1 -1 -1 -1 0 1 0 0 -1.00000000 -1.00000000
      >
    >
  >
  <TRACK '{8F877E90-65F3-4387-9DF7-1F9B2EFA7E5F}'
    NAME "PART KEYS_ANIM_RH"
    PEAKCOL 16576
    BEAT -1
    AUTOMODE 0
    VOLPAN 1.00000000000000 0.00000000000000 -1.00000000000000 -1.00000000000000 1.00000000000000
    MUTESOLO 0 0 0
    IPHASE 0
    ISBUS 0 0
    BUSCOMP 0 0
    SHOWINMIX 1 0.666700 0.500000 1 0.500000 -1 -1 -1
    FREEMODE 0
    SEL 0
    REC 0 0 0 0 0 0 0
    VU 2
    TRACKHEIGHT 0 0
    INQ 0 0 0 0.5000000000 100 0 0 100
    NCHAN 2
    FX 1
    TRACKID {8F877E90-65F3-4387-9DF7-1F9B2EFA7E5F}
    PERF 0
    MIDIOUT -1
    <MIDINOTENAMES
      0 72 "Highest playable note B#3"
      0 71 "B3"
      0 70 "A#3"
      0 69 "A3"
      0 68 "G#3"
      0 67 "G3"
      0 66 "F#3"
      0 65 "F3"
      0 64 "E3"
      0 63 "D#3"
      0 62 "D3"
      0 61 "C#3"
      0 60 "C3"
      0 59 "B2"
      0 58 "A#2"
      0 57 "A2"
      0 56 "G#2"
      0 55 "G2"
      0 54 "F#2"
      0 53 "F2"
      0 52 "E2"
      0 51 "D#2"
      0 50 "D2"
      0 49 "C#2"
      0 48 "Lowest playable note C2"
    >
    MAINSEND 1 0
    <FXCHAIN
      SHOW 0
      LASTSEL 0
      DOCKED 0
    >
    <ITEM
      POSITION 0.00000000000000
      SNAPOFFS 0.00000000000000
      LENGTH 121.61000000000000
      LOOP 0
      ALLTAKES 0
      SEL 0
      FADEIN 1 0.000000 0.000000 1 0
      FADEOUT 1 0.000000 0.000000 1 0
      MUTE 0
      IGUID {36438D6C-493B-415F-A2A9-0F866A08A608}
      IID 9
      NAME "PART KEYS_ANIM_RH"
      VOLPAN 1.000000 0.000000 1.000000 -1.000000
      SOFFS 0.00000000000000 0.00000000000000
      PLAYRATE 1.00000000000000 1 0.00000000000000 -1
      CHANMODE 0
      GUID {44EAF023-C5CF-4B52-8A49-2EADF50B5F95}
      <SOURCE MIDI
        HASDATA 1 480 QN
        POOLEDEVTS {2FBF3D76-3139-4CE1-AA07-8AC221741565}
        <X 0 0
          /wNQQVJUIEtFWVNfQU5JTV9SSA==
        >
        E 3840 90 37 60
        E 120 80 37 00
        E 120 90 3b 60
        E 120 80 3b 00
        E 120 90 3e 60
        E 120 80 3e 00
        E 120 90 3d 60
        E 360 80 3d 00
        E 120 90 3e 60
        E 360 80 3e 00
        E 120 90 3e 60
        E 120 80 3e 00
        E 120 90 3e 60
        E 120 80 3e 00
        E 120 90 39 60
        E 360 80 39 00
        E 120 90 3b 60
        E 960 80 3b 00
        E 240 90 37 60
        E 120 80 37 00
        E 120 90 3b 60
        E 120 80 3b 00
        E 120 90 3e 60
        E 120 80 3e 00
        E 120 90 3d 60
        E 360 80 3d 00
        E 120 90 3e 60
        E 360 80 3e 00
        E 120 90 3e 60
        E 1920 80 3e 00
        E 240 90 36 60
        E 120 80 36 00
        E 120 90 36 60
        E 120 80 36 00
        E 120 90 39 60
        E 120 80 39 00
        E 120 90 39 60
        E 120 80 39 00
        E 120 90 40 60
        E 360 80 40 00
        E 120 90 3d 60
        E 120 80 3d 00
        E 120 90 3e 60
        E 1920 80 3e 00
        E 240 90 3b 60
        E 120 80 3b 00
        E 120 90 3b 60
        E 120 80 3b 00
        E 120 90 3e 60
        E 120 80 3e 00
        E 120 90 3e 60
        E 120 80 3e 00
        E 120 90 42 60
        E 360 80 42 00
        E 120 90 3e 60
        E 120 80 3e 00
        E 120 90 39 60
        E 840 80 39 00
        E 120 90 37 60
        E 120 80 37 00
        E 120 90 37 60
        E 840 80 37 00
        E 120 90 36 60
        E 120 80 36 00
        E 120 90 36 60
        E 120 80 36 00
        E 120 90 39 60
        E 120 80 39 00
        E 120 90 39 60
        E 120 80 39 00
        E 120 90 40 60
        E 360 80 40 00
        E 120 90 3d 60
        E 120 80 3d 00
        E 120 90 3e 60
        E 1920 80 3e 00
        E 240 90 3b 60
        E 120 80 3b 00
        E 119 90 3b 60
        E 120 80 3b 00
        E 121 90 3e 60
        E 120 80 3e 00
        E 120 90 3e 60
        E 120 80 3e 00
        E 120 90 42 60
        E 360 80 42 00
        E 120 90 3e 60
        E 120 80 3e 00
        E 120 90 39 60
        E 840 80 39 00
        E 120 90 37 60
        E 120 80 37 00
        E 120 90 37 60
        E 840 80 37 00
        E 120 90 36 60
        E 120 80 36 00
        E 120 90 34 60
        E 120 80 34 00
        E 120 90 32 60
        E 120 80 32 00
        E 120 90 34 60
        E 120 80 34 00
        E 120 90 36 60
        E 360 80 36 00
        E 120 90 3b 60
        E 360 80 3b 00
        E 120 90 32 60
        E 360 80 32 00
        E 120 90 36 60
        E 360 80 36 00
        E 120 90 3b 60
        E 840 80 3b 00
        E 120 90 3e 60
        E 120 80 3e 00
        E 120 90 3d 60
        E 120 80 3d 00
        E 120 90 3b 60
        E 120 80 3b 00
        E 120 90 3d 60
        E 120 80 3d 00
        E 120 90 3e 60
        E 120 80 3e 00
        E 120 90 3d 60
        E 120 80 3d 00
        E 120 90 3b 60
        E 120 80 3b 00
        E 120 90 3d 60
        E 120 80 3d 00
        E 120 90 3e 60
        E 1800 80 3e 00
        E 120 90 39 60
        E 120 80 39 00
        E 120 90 39 60
        E 120 80 39 00
        E 120 90 39 60
        E 120 80 39 00
        E 360 90 39 60
        E 120 80 39 00
        E 120 90 36 60
        E 120 80 36 00
        E 120 90 34 60
        E 120 80 34 00
        E 120 90 32 60
        E 1920 80 32 00
        E 240 90 39 60
        E 120 80 39 00
        E 120 90 39 60
        E 120 80 39 00
        E 120 90 39 60
        E 120 80 39 00
        E 360 90 40 60
        E 120 80 40 00
        E 120 90 3e 60
        E 120 80 3e 00
        E 120 90 3d 60
        E 120 80 3d 00
        E 120 90 3e 60
        E 1440 80 3e 00
        E 240 90 3b 60
        E 120 80 3b 00
        E 120 90 3d 60
        E 120 80 3d 00
        E 120 90 3e 60
        E 120 80 3e 00
        E 120 90 3d 60
        E 120 80 3d 00
        E 120 90 3b 60
        E 120 80 3b 00
        E 120 90 3d 60
        E 120 80 3d 00
        E 120 90 3e 60
        E 120 80 3e 00
        E 120 90 3d 60
        E 120 80 3d 00
        E 120 90 3b 60
        E 120 80 3b 00
        E 120 90 3d 60
        E 120 80 3d 00
        E 120 90 3e 60
        E 120 80 3e 00
        E 120 90 3d 60
        E 120 80 3d 00
        E 120 90 3b 60
        E 120 80 3b 00
        E 120 90 3d 60
        E 120 80 3d 00
        E 120 90 3e 60
        E 120 80 3e 00
        E 360 90 39 60
        E 120 80 39 00
        E 120 90 39 60
        E 120 80 39 00
        E 120 90 3e 60
        E 120 80 3e 00
        E 120 90 3d 60
        E 120 80 3d 00
        E 120 90 3b 60
        E 120 80 3b 00
        E 120 90 3d 60
        E 120 80 3d 00
        E 120 90 3e 60
        E 120 80 3e 00
        E 120 90 3d 60
        E 120 80 3d 00
        E 120 90 3b 60
        E 120 80 3b 00
        E 120 90 3d 60
        E 120 80 3d 00
        E 120 90 3e 60
        E 120 80 3e 00
        E 120 90 3e 60
        E 120 80 3e 00
        E 120 90 3e 60
        E 120 80 3e 00
        E 120 90 3e 60
        E 120 80 3e 00
        E 120 90 42 60
        E 120 80 42 00
        E 120 90 3e 60
        E 360 80 3e 00
        E 120 90 3e 60
        E 1920 80 3e 00
        E 240 90 36 60
        E 120 80 36 00
        E 120 90 36 60
        E 120 80 36 00
        E 120 90 39 60
        E 120 80 39 00
        E 120 90 39 60
        E 120 80 39 00
        E 120 90 40 60
        E 360 80 40 00
        E 120 90 3d 60
        E 120 80 3d 00
        E 120 90 3e 60
        E 1920 80 3e 00
        E 240 90 3b 60
        E 120 80 3b 00
        E 120 90 3b 60
        E 120 80 3b 00
        E 120 90 3e 60
        E 120 80 3e 00
        E 120 90 3e 60
        E 120 80 3e 00
        E 120 90 42 60
        E 360 80 42 00
        E 120 90 3e 60
        E 120 80 3e 00
        E 120 90 39 60
        E 840 80 39 00
        E 120 90 37 60
        E 120 80 37 00
        E 120 90 37 60
        E 840 80 37 00
        E 120 90 36 60
        E 120 80 36 00
        E 120 90 36 60
        E 120 80 36 00
        E 120 90 39 60
        E 120 80 39 00
        E 120 90 39 60
        E 120 80 39 00
        E 120 90 40 60
        E 360 80 40 00
        E 120 90 3d 60
        E 120 80 3d 00
        E 120 90 3e 60
        E 1920 80 3e 00
        E 240 90 3b 60
        E 120 80 3b 00
        E 120 90 3b 60
        E 120 80 3b 00
        E 120 90 3e 60
        E 120 80 3e 00
        E 120 90 3e 60
        E 120 80 3e 00
        E 120 90 42 60
        E 360 80 42 00
        E 120 90 3e 60
        E 120 80 3e 00
        E 120 90 39 60
        E 840 80 39 00
        E 120 90 37 60
        E 120 80 37 00
        E 120 90 37 60
        E 840 80 37 00
        E 120 90 36 60
        E 120 80 36 00
        E 120 90 34 60
        E 120 80 34 00
        E 120 90 32 60
        E 120 80 32 00
        E 120 90 34 60
        E 120 80 34 00
        E 120 90 36 60
        E 360 80 36 00
        E 120 90 3b 60
        E 360 80 3b 00
        E 120 90 32 60
        E 360 80 32 00
        E 120 90 36 60
        E 360 80 36 00
        E 120 90 3b 60
        E 840 80 3b 00
        E 120 90 3e 60
        E 120 80 3e 00
        E 120 90 3d 60
        E 120 80 3d 00
        E 120 90 3b 60
        E 120 80 3b 00
        E 120 90 3d 60
        E 120 80 3d 00
        E 120 90 3e 60
        E 120 80 3e 00
        E 120 90 3d 60
        E 120 80 3d 00
        E 120 90 3b 60
        E 120 80 3b 00
        E 120 90 3d 60
        E 120 80 3d 00
        E 120 90 3e 60
        E 1800 80 3e 00
        E 120 90 39 60
        E 120 80 39 00
        E 120 90 39 60
        E 120 80 39 00
        E 120 90 39 60
        E 120 80 39 00
        E 360 90 39 60
        E 120 80 39 00
        E 120 90 36 60
        E 120 80 36 00
        E 120 90 34 60
        E 120 80 34 00
        E 120 90 32 60
        E 1920 80 32 00
        E 240 90 39 60
        E 120 80 39 00
        E 120 90 39 60
        E 120 80 39 00
        E 120 90 39 60
        E 120 80 39 00
        E 360 90 40 60
        E 120 80 40 00
        E 120 90 3e 60
        E 120 80 3e 00
        E 120 90 3d 60
        E 120 80 3d 00
        E 120 90 3e 60
        E 1440 80 3e 00
        E 240 90 3b 60
        E 120 80 3b 00
        E 120 90 3d 60
        E 120 80 3d 00
        E 120 90 3e 60
        E 120 80 3e 00
        E 120 90 3d 60
        E 120 80 3d 00
        E 120 90 3b 60
        E 120 80 3b 00
        E 120 90 3d 60
        E 120 80 3d 00
        E 120 90 3e 60
        E 120 80 3e 00
        E 120 90 3d 60
        E 120 80 3d 00
        E 120 90 3b 60
        E 120 80 3b 00
        E 120 90 3d 60
        E 120 80 3d 00
        E 120 90 3e 60
        E 120 80 3e 00
        E 120 90 3d 60
        E 120 80 3d 00
        E 120 90 3b 60
        E 120 80 3b 00
        E 120 90 3d 60
        E 120 80 3d 00
        E 120 90 3e 60
        E 120 80 3e 00
        E 360 90 39 60
        E 120 80 39 00
        E 120 90 39 60
        E 120 80 39 00
        E 120 90 3e 60
        E 120 80 3e 00
        E 120 90 3d 60
        E 120 80 3d 00
        E 120 90 3b 60
        E 120 80 3b 00
        E 120 90 3d 60
        E 120 80 3d 00
        E 120 90 3e 60
        E 120 80 3e 00
        E 120 90 3d 60
        E 120 80 3d 00
        E 120 90 3b 60
        E 120 80 3b 00
        E 120 90 3d 60
        E 120 80 3d 00
        E 120 90 3e 60
        E 120 80 3e 00
        E 120 90 3e 60
        E 120 80 3e 00
        E 120 90 3e 60
        E 120 80 3e 00
        E 120 90 3e 60
        E 120 80 3e 00
        E 120 90 42 60
        E 120 80 42 00
        E 120 90 3e 60
        E 360 80 3e 00
        E 120 90 3e 60
        E 1920 80 3e 00
        E 240 90 37 60
        E 120 80 37 00
        E 120 90 3b 60
        E 120 80 3b 00
        E 120 90 3e 60
        E 120 80 3e 00
        E 120 90 3d 60
        E 360 80 3d 00
        E 120 90 3e 60
        E 360 80 3e 00
        E 120 90 3e 60
        E 120 80 3e 00
        E 120 90 3e 60
        E 120 80 3e 00
        E 120 90 39 60
        E 360 80 39 00
        E 120 90 3b 60
        E 960 80 3b 00
        E 240 90 37 60
        E 120 80 37 00
        E 120 90 3b 60
        E 120 80 3b 00
        E 120 90 3e 60
        E 120 80 3e 00
        E 120 90 3d 60
        E 360 80 3d 00
        E 120 90 3e 60
        E 360 80 3e 00
        E 120 90 3e 60
        E 1920 80 3e 00
        E 240 90 37 60
        E 120 80 37 00
        E 120 90 3b 60
        E 120 80 3b 00
        E 120 90 3e 60
        E 120 80 3e 00
        E 120 90 3d 60
        E 360 80 3d 00
        E 120 90 3e 60
        E 360 80 3e 00
        E 120 90 3e 60
        E 120 80 3e 00
        E 120 90 3e 60
        E 120 80 3e 00
        E 120 90 39 60
        E 360 80 39 00
        E 120 90 3b 60
        E 960 80 3b 00
        E 240 90 37 60
        E 120 80 37 00
        E 120 90 3b 60
        E 120 80 3b 00
        E 120 90 3e 60
        E 120 80 3e 00
        E 120 90 3d 60
        E 360 80 3d 00
        E 120 90 3e 60
        E 360 80 3e 00
        E 120 90 3e 60
        E 1920 80 3e 00
        E 2159 b0 7b 00
        GUID {D36E68B5-250B-4A5B-B9ED-54FDA194936C}
        IGNTEMPO 0 120.00000000 4 4
        SRCCOLOR 11
        VELLANE 132 128 60
        COLORMAP "C:\Program Files\REAPER (x64)\Data\color_maps\rockband_guitarbass.png"
        CFGEDITVIEW -7114.087266 9.234372 6 22 0 0 0
        CFGEDIT 1 1 0 1 1 0 1 1 1 1 1 0.25000000 -8 -8 1544 872 0 2 1 1 0.00000000 0 1 0 0 0.500000 0 0 1.000000 64
        KEYSNAP 0 6 "102030050700" 0 "Pentatonic"
        EVTFILTER 0 -1 -1 -1 -1 0 1 0 0 -1.00000000 -1.00000000
      >
    >
  >
  <TRACK '{C7888A7E-B274-43BB-9683-6285CDCF09DD}'
    NAME "keys"
    PEAKCOL 16576
    BEAT -1
    AUTOMODE 0
    VOLPAN 1.00000000000000 0.20000000000000 -1.00000000000000 -1.00000000000000 1.00000000000000
    MUTESOLO 0 0 0
    IPHASE 0
    ISBUS 2 -1
    BUSCOMP 0 0
    SHOWINMIX 1 0.666700 0.500000 1 0.500000 -1 -1 -1
    FREEMODE 0
    SEL 0
    REC 0 0 0 0 0 0 0
    VU 2
    TRACKHEIGHT 0 0
    INQ 0 0 0 0.5000000000 100 0 0 100
    NCHAN 2
    FX 1
    TRACKID {C7888A7E-B274-43BB-9683-6285CDCF09DD}
    PERF 0
    MIDIOUT -1
    MAINSEND 1 0
    <ITEM
      POSITION 0.00000000000000
      SNAPOFFS 0.00000000000000
      LENGTH 121.61000000000000
      LOOP 0
      ALLTAKES 0
      SEL 0
      FADEIN 1 0.000000 0.000000 1 0
      FADEOUT 1 0.000000 0.000000 1 0
      MUTE 0
      IGUID {202F0C14-4EC7-41E8-91AB-F9B5EF5D7435}
      IID 19
      NAME "keys.wav"
      VOLPAN 1.000000 0.000000 1.000000 -1.000000
      SOFFS 0.00000000000000
      PLAYRATE 1.00000000000000 1 0.00000000000000 -1
      CHANMODE 0
      GUID {1612CF70-9500-49E1-8611-2A39BFF4D07B}
      <SOURCE WAVE
        FILE "C:\Users\Ruggery\Documents\Visual Studio Code\Projects\ruggy-customs-projects\songs\pollyanna\wav\keys.wav"
      >
    >
  >
  <TRACK '{27F697AB-5819-49EF-982B-811179FE3470}'
    NAME "PART REAL_BASS"
    PEAKCOL 16576
    BEAT -1
    AUTOMODE 0
    VOLPAN 1.00000000000000 0.00000000000000 -1.00000000000000 -1.00000000000000 1.00000000000000
    MUTESOLO 0 0 0
    IPHASE 0
    ISBUS 0 0
    BUSCOMP 0 0
    SHOWINMIX 1 0.666700 0.500000 1 0.500000 -1 -1 -1
    FREEMODE 0
    SEL 0
    REC 0 0 0 0 0 0 0
    VU 2
    TRACKHEIGHT 0 0
    INQ 0 0 0 0.5000000000 100 0 0 100
    NCHAN 2
    FX 0
    TRACKID {27F697AB-5819-49EF-982B-811179FE3470}
    PERF 0
    MIDIOUT -1
    <MIDINOTENAMES
      0 127 "Trill Marker"
      0 126 "Tremolo Marker"
      0 125 "BRE"
      0 124 "BRE"
      0 123 "BRE"
      0 122 "BRE"
      0 121 "BRE"
      0 120 "BRE (use all 6)"
      0 119 "-----------"
      0 116 "OVERDRIVE"
      0 115 "Solo Marker"
      0 109 "-----------"
      0 108 "Fret Hand Position"
      0 107 "Force Chord Numbering"
      0 106 "Loose Strumming"
      0 105 "Strum Direction"
      0 104 "Arpeggio Marker"
      0 103 "Slide Marker"
      0 102 "Force HOPO"
      0 101 "EXPERT e String"
      0 100 "EXPERT B String"
      0 99 "EXPERT G String"
      0 98 "EXPERT D String"
      0 97 "EXPERT A String"
      0 96 "EXPERT E String"
      0 95 "-----------"
      0 82 "Loose Strumming"
      0 81 "Strum Direction"
      0 80 "Arpeggio Marker"
      0 79 "Slide Marker"
      0 78 "Force HOPO"
      0 77 "HARD e String"
      0 76 "HARD B String"
      0 75 "HARD G String"
      0 74 "HARD D String"
      0 73 "HARD A String"
      0 72 "HARD E String"
      0 71 "-----------"
      0 58 "Loose Strumming"
      0 56 "Arpeggio Marker"
      0 55 "Slide Marker"
      0 53 "MEDIUM e String"
      0 52 "MEDIUM B String"
      0 51 "MEDIUM G String"
      0 50 "MEDIUM D String"
      0 49 "MEDIUM A String"
      0 48 "MEDIUM E String"
      0 47 "-----------"
      0 32 "Arpeggio Marker"
      0 31 "Slide Marker"
      0 29 "EASY e String"
      0 28 "EASY B String"
      0 27 "EASY G String"
      0 26 "EASY D String"
      0 25 "EASY A String"
      0 24 "EASY E String"
      0 21 "-----------"
      0 18 "Flat/Sharp Swap"
      0 17 "Hide Chord Names"
      0 16 "Slash Chord"
      0 15 "D#"
      0 14 "D"
      0 13 "C#"
      0 12 "C"
      0 11 "B"
      0 10 "A#"
      0 9 "A"
      0 8 "G#"
      0 7 "G"
      0 6 "F#"
      0 5 "F"
      0 4 "E"
    >
    MAINSEND 1 0
    <FXCHAIN
      WNDRECT 0 43 729 467
      SHOW 0
      LASTSEL 0
      DOCKED 0
      BYPASS 0 0
      <JS "c3/progtr" ""
        0.000000 3.000000 0.000000 0.000000 0.000000 0.000000 0.000000 -2.000000 0.000000 1.000000 - - - - - - - - - - - - - - - - - - - - - - - - - - - - - - - - - - - - - - - - - - - - - - - - - - - - - - 
      >
      FLOATPOS 0 0 0 0
      FXID {66288459-B060-499C-BAEA-1C087B072869}
      WAK 0
      BYPASS 1 0
      <JS "MIDI/midi_transpose" ""
        -12.000000 1.000000 0.000000 127.000000 - - - - - - - - - - - - - - - - - - - - - - - - - - - - - - - - - - - - - - - - - - - - - - - - - - - - - - - - - - - - 
      >
      FLOATPOS 0 0 0 0
      FXID {0032D2CA-B822-4F78-A01B-F946CCFF5DFB}
      WAK 0
      BYPASS 0 0
      <VST "VSTi: ReaSynth (Cockos)" "reasynth.dll" 0 ""
        eXNlcu9e7f4AAAAAAgAAAAEAAAAAAAAAAgAAAAAAAAA4AAAAAAAAAA==
        AAAQAO++rd4N8K3eppvEO+gJMjwAAAAAAAAAAAAAgD8AAIA/4jAEPA==
        AAAAAAAAAD+01hM+j8L1PQAAAD8AABAAAAA=
      >
      FLOATPOS 0 0 0 0
      FXID {88F0E6EC-2237-44A5-AF76-9E4EA8F852C6}
      WAK 0
    >
    <ITEM
      POSITION 0.00000000000000
      SNAPOFFS 0.00000000000000
      LENGTH 121.61000000000000
      LOOP 0
      ALLTAKES 0
      SEL 0
      FADEIN 1 0.000000 0.000000 1 0
      FADEOUT 1 0.000000 0.000000 1 0
      MUTE 0
      IGUID {F6F88C3F-460D-4053-B68C-54D10C221F21}
      IID 11
      NAME "PART REAL_BASS"
      VOLPAN 1.000000 0.000000 1.000000 -1.000000
      SOFFS 0.00000000000000 0.00000000000000
      PLAYRATE 1.00000000000000 1 0.00000000000000 -1
      CHANMODE 0
      GUID {159268DF-CDEF-4465-80B4-0612C52DAE3D}
      <SOURCE MIDI
        HASDATA 1 480 QN
        POOLEDEVTS {A2DD9E66-9176-4E9E-80CB-8A127A17863C}
        <X 0 0
          /wNQQVJUIFJFQUxfQkFTUw==
        >
        <X 3840 0
          /wFbYmVnaW5fcGIgc29uZ190cmFpbmVyX3BiXzFd
        >
        E 0 90 1a 69
        E 0 90 32 69
        E 0 90 4a 69
        E 0 90 62 69
        E 0 90 6c 69
        E 120 80 1a 00
        E 0 80 32 00
        E 0 80 6c 00
        E 480 80 4a 00
        E 0 80 62 00
        E 120 90 32 6b
        E 0 90 4a 6b
        E 0 90 62 6b
        E 720 80 32 00
        E 240 80 4a 00
        E 0 80 62 00
        <X 240 0
          /wFbcGJfbm9ybSBzb25nX3RyYWluZXJfcGJfMV0=
        >
        E 0 90 19 69
        E 0 90 31 69
        E 0 90 49 69
        E 0 90 61 69
        E 120 80 19 00
        E 0 80 31 00
        E 480 80 49 00
        E 0 80 61 00
        E 120 90 32 69
        E 0 90 4a 69
        E 0 90 62 69
        E 720 80 32 00
        E 240 80 4a 00
        E 0 80 62 00
        E 240 90 1a 69
        E 0 90 32 69
        E 0 90 4a 69
        E 0 90 62 69
        E 0 90 74 60
        E 120 80 1a 00
        E 0 80 32 00
        E 480 80 4a 00
        E 0 80 62 00
        E 120 90 32 6b
        E 0 90 4a 6b
        E 0 90 62 6b
        E 480 80 32 00
        E 360 80 4a 00
        E 0 80 62 00
        E 120 90 19 69
        E 0 90 31 69
        E 0 90 49 69
        E 0 90 61 69
        E 1680 80 19 00
        E 0 80 31 00
        E 240 80 49 00
        E 0 80 61 00
        <X 240 0
          /wFbZW5kX3BiIHNvbmdfdHJhaW5lcl9wYl8xXQ==
        >
        <X 0 0
          /wFbYmVnaW5fcGIgc29uZ190cmFpbmVyX3BiXzJd
        >
        E 0 90 19 69
        E 0 90 31 69
        E 0 90 49 69
        E 0 90 61 69
        E 0 90 6c 66
        E 120 80 74 00
        E 0 80 19 00
        E 0 80 31 00
        E 0 80 49 00
        E 0 80 61 00
        E 0 80 6c 00
        E 600 90 49 69
        E 0 90 61 69
        E 120 80 49 00
        E 0 80 61 00
        E 120 90 19 68
        E 0 90 31 68
        E 0 90 49 68
        E 0 90 61 68
        E 120 80 19 00
        E 0 80 31 00
        E 0 80 49 00
        E 0 80 61 00
        E 600 90 49 68
        E 0 90 61 68
        E 120 80 49 00
        E 0 80 61 00
        <X 120 0
          /wFbcGJfbm9ybSBzb25nX3RyYWluZXJfcGJfMl0=
        >
        E 0 90 19 66
        E 0 90 31 66
        E 0 90 49 66
        E 0 90 61 66
        E 120 80 19 00
        E 0 80 31 00
        E 0 80 49 00
        E 0 80 61 00
        E 600 90 49 66
        E 0 90 61 66
        E 120 80 49 00
        E 0 80 61 00
        E 120 90 19 64
        E 0 90 31 64
        E 0 90 49 64
        E 0 90 61 64
        E 120 80 19 00
        E 0 80 31 00
        E 0 80 49 00
        E 0 80 61 00
        E 600 90 49 64
        E 0 90 61 64
        E 120 80 49 00
        E 0 80 61 00
        E 120 90 18 69
        E 0 90 30 69
        E 0 90 48 69
        E 0 90 60 69
        E 0 90 6c 67
        E 120 80 18 00
        E 0 80 30 00
        E 0 80 48 00
        E 0 80 60 00
        E 0 80 6c 00
        E 600 90 48 69
        E 0 90 60 69
        E 120 80 48 00
        E 0 80 60 00
        E 120 90 18 68
        E 0 90 30 68
        E 0 90 48 68
        E 0 90 60 68
        E 120 80 18 00
        E 0 80 30 00
        E 0 80 48 00
        E 0 80 60 00
        E 600 90 48 68
        E 0 90 60 68
        E 120 80 48 00
        E 0 80 60 00
        E 120 90 18 67
        E 0 90 30 67
        E 0 90 48 67
        E 0 90 60 67
        E 120 80 18 00
        E 0 80 30 00
        E 0 80 48 00
        E 0 80 60 00
        E 600 90 48 67
        E 0 90 60 67
        E 120 80 48 00
        E 0 80 60 00
        E 120 90 19 64
        E 0 90 31 64
        E 0 90 49 64
        E 0 90 61 64
        E 120 80 19 00
        E 0 80 31 00
        E 0 80 49 00
        E 0 80 61 00
        E 600 90 49 64
        E 0 90 61 64
        E 120 80 49 00
        E 0 80 61 00
        <X 120 0
          /wFbZW5kX3BiIHNvbmdfdHJhaW5lcl9wYl8yXQ==
        >
        E 0 90 19 69
        E 0 90 31 69
        E 0 90 49 69
        E 0 90 61 69
        E 0 90 6c 66
        E 120 80 19 00
        E 0 80 31 00
        E 0 80 49 00
        E 0 80 61 00
        E 0 80 6c 00
        E 600 90 49 69
        E 0 90 61 69
        E 120 80 49 00
        E 0 80 61 00
        E 120 90 19 68
        E 0 90 31 68
        E 0 90 49 68
        E 0 90 61 68
        E 120 80 19 00
        E 0 80 31 00
        E 0 80 49 00
        E 0 80 61 00
        E 600 90 49 68
        E 0 90 61 68
        E 120 80 49 00
        E 0 80 61 00
        E 120 90 19 66
        E 0 90 31 66
        E 0 90 49 66
        E 0 90 61 66
        E 120 80 19 00
        E 0 80 31 00
        E 0 80 49 00
        E 0 80 61 00
        E 600 90 49 66
        E 0 90 61 66
        E 120 80 49 00
        E 0 80 61 00
        E 120 90 19 64
        E 0 90 31 64
        E 0 90 49 64
        E 0 90 61 64
        E 120 80 19 00
        E 0 80 31 00
        E 0 80 49 00
        E 0 80 61 00
        E 600 90 49 64
        E 0 90 61 64
        E 120 80 49 00
        E 0 80 61 00
        E 120 90 18 69
        E 0 90 30 69
        E 0 90 48 69
        E 0 90 60 69
        E 0 90 6c 67
        E 120 80 18 00
        E 0 80 30 00
        E 0 80 48 00
        E 0 80 60 00
        E 0 80 6c 00
        E 600 90 48 69
        E 0 90 60 69
        E 120 80 48 00
        E 0 80 60 00
        E 120 90 18 68
        E 0 90 30 68
        E 0 90 48 68
        E 0 90 60 68
        E 120 80 18 00
        E 0 80 30 00
        E 0 80 48 00
        E 0 80 60 00
        E 600 90 48 68
        E 0 90 60 68
        E 120 80 48 00
        E 0 80 60 00
        E 120 90 18 67
        E 0 90 30 67
        E 0 90 48 67
        E 0 90 60 67
        E 120 80 18 00
        E 0 80 30 00
        E 0 80 48 00
        E 0 80 60 00
        E 600 90 48 67
        E 0 90 60 67
        E 120 80 48 00
        E 0 80 60 00
        E 120 90 19 64
        E 0 90 31 64
        E 0 90 49 64
        E 0 90 61 64
        E 120 80 19 00
        E 0 80 31 00
        E 0 80 49 00
        E 0 80 61 00
        E 600 90 49 64
        E 0 90 61 64
        E 120 80 49 00
        E 0 80 61 00
        <X 120 0
          /wFbYmVnaW5fcGIgc29uZ190cmFpbmVyX3BiXzNd
        >
        E 0 90 19 66
        E 0 90 31 66
        E 0 90 49 66
        E 0 90 61 66
        E 0 90 6c 65
        E 0 90 74 60
        E 120 80 19 00
        E 0 80 31 00
        E 0 80 49 00
        E 0 80 61 00
        E 0 80 6c 00
        E 120 90 31 66
        E 0 90 49 66
        E 0 90 61 66
        E 120 80 31 00
        E 0 80 49 00
        E 0 80 61 00
        E 120 90 19 66
        E 0 90 31 66
        E 0 90 49 66
        E 0 90 61 66
        E 120 80 19 00
        E 0 80 31 00
        E 0 80 49 00
        E 0 80 61 00
        E 120 90 49 66
        E 0 90 61 66
        E 120 80 49 00
        E 0 80 61 00
        E 120 90 19 65
        E 0 90 31 65
        E 0 90 49 65
        E 0 90 61 65
        E 120 80 19 00
        E 0 80 31 00
        E 0 80 49 00
        E 0 80 61 00
        E 120 90 31 65
        E 0 90 49 65
        E 0 90 61 65
        E 120 80 31 00
        E 0 80 49 00
        E 0 80 61 00
        E 120 90 31 65
        E 0 90 49 65
        E 0 90 61 65
        E 120 80 31 00
        E 0 80 49 00
        E 0 80 61 00
        E 120 90 49 65
        E 0 90 61 65
        E 120 80 49 00
        E 0 80 61 00
        <X 120 0
          /wFbcGJfbm9ybSBzb25nX3RyYWluZXJfcGJfM10=
        >
        E 0 90 19 64
        E 0 90 31 64
        E 0 90 49 64
        E 0 90 61 64
        E 120 80 19 00
        E 0 80 31 00
        E 0 80 49 00
        E 0 80 61 00
        E 120 90 31 64
        E 0 90 49 64
        E 0 90 61 64
        E 120 80 31 00
        E 0 80 49 00
        E 0 80 61 00
        E 120 90 31 64
        E 0 90 49 64
        E 0 90 61 64
        E 120 80 31 00
        E 0 80 49 00
        E 0 80 61 00
        E 120 90 49 64
        E 0 90 61 64
        E 120 80 49 00
        E 0 80 61 00
        E 120 90 18 6a
        E 0 90 30 6a
        E 0 90 48 6a
        E 0 90 60 6a
        E 0 90 6c 69
        E 120 80 18 00
        E 0 80 30 00
        E 0 80 48 00
        E 0 80 60 00
        E 0 80 6c 00
        E 120 90 30 6a
        E 0 90 48 6a
        E 0 90 60 6a
        E 120 80 30 00
        E 0 80 48 00
        E 0 80 60 00
        E 120 90 30 6a
        E 0 90 48 6a
        E 0 90 60 6a
        E 120 80 30 00
        E 0 80 48 00
        E 0 80 60 00
        E 120 90 48 6a
        E 0 90 60 6a
        E 120 80 48 00
        E 0 80 60 00
        E 120 80 74 00
        E 0 90 18 69
        E 0 90 30 69
        E 0 90 48 69
        E 0 90 60 69
        E 120 80 18 00
        E 0 80 30 00
        E 0 80 48 00
        E 0 80 60 00
        E 120 90 30 69
        E 0 90 48 69
        E 0 90 60 69
        E 120 80 30 00
        E 0 80 48 00
        E 0 80 60 00
        E 120 90 18 69
        E 0 90 30 69
        E 0 90 48 69
        E 0 90 60 69
        E 120 80 18 00
        E 0 80 30 00
        E 0 80 48 00
        E 0 80 60 00
        E 120 90 48 69
        E 0 90 60 69
        E 120 80 48 00
        E 0 80 60 00
        E 120 90 18 6b
        E 0 90 30 6b
        E 0 90 48 6b
        E 0 90 60 6b
        E 120 80 18 00
        E 0 80 30 00
        E 0 80 48 00
        E 0 80 60 00
        E 120 90 30 6b
        E 0 90 48 6b
        E 0 90 60 6b
        E 120 80 30 00
        E 0 80 48 00
        E 0 80 60 00
        E 120 90 30 6b
        E 0 90 48 6b
        E 0 90 60 6b
        E 120 80 30 00
        E 0 80 48 00
        E 0 80 60 00
        E 120 90 48 6b
        E 0 90 60 6b
        E 120 80 48 00
        E 0 80 60 00
        E 120 90 18 64
        E 0 90 30 64
        E 0 90 48 64
        E 0 90 60 64
        E 1440 80 18 00
        E 0 80 30 00
        E 360 80 48 00
        E 0 80 60 00
        <X 120 0
          /wFbZW5kX3BiIHNvbmdfdHJhaW5lcl9wYl8zXQ==
        >
        <X 0 0
          /wFbYmVnaW5fcGIgc29uZ190cmFpbmVyX3BiXzRd
        >
        E 0 90 18 68
        E 0 90 30 68
        E 0 90 48 68
        E 0 90 60 68
        E 0 90 6c 68
        E 120 80 18 00
        E 0 80 30 00
        E 0 80 48 00
        E 0 80 60 00
        E 0 80 6c 00
        E 600 90 30 68
        E 0 90 48 68
        E 0 90 60 68
        E 120 80 30 00
        E 0 80 48 00
        E 0 80 60 00
        E 1080 90 18 69
        E 0 90 30 69
        E 0 90 48 69
        E 0 90 60 69
        E 120 80 18 00
        E 0 80 30 00
        E 0 80 48 00
        E 0 80 60 00
        E 600 90 30 69
        E 0 90 48 69
        E 0 90 60 69
        E 120 80 30 00
        E 0 80 48 00
        E 0 80 60 00
        <X 1080 0
          /wFbcGJfbm9ybSBzb25nX3RyYWluZXJfcGJfNF0=
        >
        E 0 90 18 68
        E 0 90 30 68
        E 0 90 48 68
        E 0 90 60 68
        E 120 80 18 00
        E 0 80 30 00
        E 0 80 48 00
        E 0 80 60 00
        E 600 90 48 68
        E 0 90 60 68
        E 120 80 48 00
        E 0 80 60 00
        E 120 90 19 64
        E 0 90 31 64
        E 0 90 49 64
        E 0 90 61 64
        E 120 80 19 00
        E 0 80 31 00
        E 0 80 49 00
        E 0 80 61 00
        E 600 90 49 64
        E 0 90 61 64
        E 120 80 49 00
        E 0 80 61 00
        E 120 90 1a 64
        E 0 90 32 64
        E 0 90 4a 64
        E 0 90 62 64
        E 120 80 1a 00
        E 0 80 32 00
        E 0 80 4a 00
        E 0 80 62 00
        E 600 90 32 64
        E 0 90 4a 64
        E 0 90 62 64
        E 120 80 32 00
        E 0 80 4a 00
        E 0 80 62 00
        E 120 90 1a 64
        E 0 90 32 64
        E 0 90 4a 64
        E 0 90 62 64
        E 120 80 1a 00
        E 0 80 32 00
        E 0 80 4a 00
        E 0 80 62 00
        E 600 90 4a 64
        E 0 90 62 64
        E 120 80 4a 00
        E 0 80 62 00
        E 120 90 18 69
        E 0 90 30 69
        E 0 90 48 69
        E 0 90 60 69
        E 0 90 6c 66
        E 120 80 18 00
        E 0 80 30 00
        E 0 80 48 00
        E 0 80 60 00
        E 0 80 6c 00
        E 120 90 30 69
        E 0 90 48 69
        E 0 90 60 69
        E 120 80 30 00
        E 0 80 48 00
        E 0 80 60 00
        E 120 90 30 69
        E 0 90 48 69
        E 0 90 60 69
        E 120 80 30 00
        E 0 80 48 00
        E 0 80 60 00
        E 120 90 48 69
        E 0 90 60 69
        E 120 80 48 00
        E 0 80 60 00
        E 120 90 18 68
        E 0 90 30 68
        E 0 90 48 68
        E 0 90 60 68
        E 120 80 18 00
        E 0 80 30 00
        E 0 80 48 00
        E 0 80 60 00
        E 120 90 30 68
        E 0 90 48 68
        E 0 90 60 68
        E 120 80 30 00
        E 0 80 48 00
        E 0 80 60 00
        E 120 90 30 68
        E 0 90 48 68
        E 0 90 60 68
        E 120 80 30 00
        E 0 80 48 00
        E 0 80 60 00
        E 120 90 48 68
        E 0 90 60 68
        E 120 80 48 00
        E 0 80 60 00
        E 120 90 18 66
        E 0 90 30 66
        E 0 90 48 66
        E 0 90 60 66
        E 120 80 18 00
        E 0 80 30 00
        E 0 80 48 00
        E 0 80 60 00
        E 120 90 30 66
        E 0 90 48 66
        E 0 90 60 66
        E 120 80 30 00
        E 0 80 48 00
        E 0 80 60 00
        E 120 90 30 66
        E 0 90 48 66
        E 0 90 60 66
        E 120 80 30 00
        E 0 80 48 00
        E 0 80 60 00
        E 120 90 48 66
        E 0 90 60 66
        E 120 80 48 00
        E 0 80 60 00
        E 120 90 18 68
        E 0 90 30 68
        E 0 90 48 68
        E 0 90 60 68
        E 120 80 18 00
        E 0 80 30 00
        E 0 80 48 00
        E 0 80 60 00
        E 120 90 30 68
        E 0 90 48 68
        E 0 90 60 68
        E 120 80 30 00
        E 0 80 48 00
        E 0 80 60 00
        E 120 90 30 68
        E 0 90 48 68
        E 0 90 60 68
        E 120 80 30 00
        E 0 80 48 00
        E 0 80 60 00
        E 120 90 48 68
        E 0 90 60 68
        E 120 80 48 00
        E 0 80 60 00
        E 120 90 18 69
        E 0 90 30 69
        E 0 90 48 69
        E 0 90 60 69
        E 120 80 18 00
        E 0 80 30 00
        E 0 80 48 00
        E 0 80 60 00
        E 120 90 30 69
        E 0 90 48 69
        E 0 90 60 69
        E 120 80 30 00
        E 0 80 48 00
        E 0 80 60 00
        E 120 90 30 69
        E 0 90 48 69
        E 0 90 60 69
        E 120 80 30 00
        E 0 80 48 00
        E 0 80 60 00
        E 120 90 48 69
        E 0 90 60 69
        E 120 80 48 00
        E 0 80 60 00
        E 120 90 18 68
        E 0 90 30 68
        E 0 90 48 68
        E 0 90 60 68
        E 120 80 18 00
        E 0 80 30 00
        E 0 80 48 00
        E 0 80 60 00
        E 120 90 30 68
        E 0 90 48 68
        E 0 90 60 68
        E 120 80 30 00
        E 0 80 48 00
        E 0 80 60 00
        E 120 90 30 68
        E 0 90 48 68
        E 0 90 60 68
        E 120 80 30 00
        E 0 80 48 00
        E 0 80 60 00
        E 120 90 48 68
        E 0 90 60 68
        E 120 80 48 00
        E 0 80 60 00
        E 120 90 18 66
        E 0 90 30 66
        E 0 90 48 66
        E 0 90 60 66
        E 120 80 18 00
        E 0 80 30 00
        E 0 80 48 00
        E 0 80 60 00
        E 120 90 30 66
        E 0 90 48 66
        E 0 90 60 66
        E 120 80 30 00
        E 0 80 48 00
        E 0 80 60 00
        E 120 90 30 66
        E 0 90 48 66
        E 0 90 60 66
        E 120 80 30 00
        E 0 80 48 00
        E 0 80 60 00
        E 120 90 48 66
        E 0 90 60 66
        E 120 80 48 00
        E 0 80 60 00
        E 120 90 19 64
        E 0 90 31 64
        E 0 90 49 64
        E 0 90 61 64
        E 120 80 19 00
        E 0 80 31 00
        E 0 80 49 00
        E 0 80 61 00
        E 120 90 31 64
        E 0 90 49 64
        E 0 90 61 64
        E 120 80 31 00
        E 0 80 49 00
        E 0 80 61 00
        E 120 90 31 64
        E 0 90 49 64
        E 0 90 61 64
        E 120 80 31 00
        E 0 80 49 00
        E 0 80 61 00
        E 120 90 49 64
        E 0 90 61 64
        E 120 80 49 00
        E 0 80 61 00
        E 120 90 18 64
        E 0 90 30 64
        E 0 90 48 64
        E 0 90 60 64
        E 1440 80 18 00
        E 0 80 30 00
        E 360 80 48 00
        E 0 80 60 00
        <X 120 0
          /wFbZW5kX3BiIHNvbmdfdHJhaW5lcl9wYl80XQ==
        >
        E 0 90 19 69
        E 0 90 31 69
        E 0 90 49 69
        E 0 90 61 69
        E 0 90 74 60
        E 120 80 19 00
        E 0 80 31 00
        E 0 80 49 00
        E 0 80 61 00
        E 600 90 49 69
        E 0 90 61 69
        E 120 80 49 00
        E 0 80 61 00
        E 120 90 19 68
        E 0 90 31 68
        E 0 90 49 68
        E 0 90 61 68
        E 120 80 19 00
        E 0 80 31 00
        E 0 80 49 00
        E 0 80 61 00
        E 600 90 49 68
        E 0 90 61 68
        E 120 80 49 00
        E 0 80 61 00
        E 120 90 19 66
        E 0 90 31 66
        E 0 90 49 66
        E 0 90 61 66
        E 120 80 19 00
        E 0 80 31 00
        E 0 80 49 00
        E 0 80 61 00
        E 600 90 49 66
        E 0 90 61 66
        E 120 80 49 00
        E 0 80 61 00
        E 120 90 19 64
        E 0 90 31 64
        E 0 90 49 64
        E 0 90 61 64
        E 120 80 19 00
        E 0 80 31 00
        E 0 80 49 00
        E 0 80 61 00
        E 600 90 49 64
        E 0 90 61 64
        E 120 80 49 00
        E 0 80 61 00
        E 120 90 18 69
        E 0 90 30 69
        E 0 90 48 69
        E 0 90 60 69
        E 0 90 6c 67
        E 120 80 74 00
        E 0 80 18 00
        E 0 80 30 00
        E 0 80 48 00
        E 0 80 60 00
        E 0 80 6c 00
        E 600 90 48 69
        E 0 90 60 69
        E 120 80 48 00
        E 0 80 60 00
        E 120 90 18 68
        E 0 90 30 68
        E 0 90 48 68
        E 0 90 60 68
        E 120 80 18 00
        E 0 80 30 00
        E 0 80 48 00
        E 0 80 60 00
        E 600 90 48 68
        E 0 90 60 68
        E 120 80 48 00
        E 0 80 60 00
        E 120 90 18 67
        E 0 90 30 67
        E 0 90 48 67
        E 0 90 60 67
        E 120 80 18 00
        E 0 80 30 00
        E 0 80 48 00
        E 0 80 60 00
        E 600 90 48 67
        E 0 90 60 67
        E 120 80 48 00
        E 0 80 60 00
        E 120 90 19 64
        E 0 90 31 64
        E 0 90 49 64
        E 0 90 61 64
        E 120 80 19 00
        E 0 80 31 00
        E 0 80 49 00
        E 0 80 61 00
        E 600 90 49 64
        E 0 90 61 64
        E 120 80 49 00
        E 0 80 61 00
        E 120 90 19 69
        E 0 90 31 69
        E 0 90 49 69
        E 0 90 61 69
        E 0 90 6c 66
        E 120 80 19 00
        E 0 80 31 00
        E 0 80 49 00
        E 0 80 61 00
        E 0 80 6c 00
        E 600 90 49 69
        E 0 90 61 69
        E 120 80 49 00
        E 0 80 61 00
        E 120 90 19 68
        E 0 90 31 68
        E 0 90 49 68
        E 0 90 61 68
        E 120 80 19 00
        E 0 80 31 00
        E 0 80 49 00
        E 0 80 61 00
        E 600 90 49 68
        E 0 90 61 68
        E 120 80 49 00
        E 0 80 61 00
        E 120 90 19 66
        E 0 90 31 66
        E 0 90 49 66
        E 0 90 61 66
        E 120 80 19 00
        E 0 80 31 00
        E 0 80 49 00
        E 0 80 61 00
        E 600 90 49 66
        E 0 90 61 66
        E 120 80 49 00
        E 0 80 61 00
        E 120 90 19 64
        E 0 90 31 64
        E 0 90 49 64
        E 0 90 61 64
        E 120 80 19 00
        E 0 80 31 00
        E 0 80 49 00
        E 0 80 61 00
        E 600 90 49 64
        E 0 90 61 64
        E 120 80 49 00
        E 0 80 61 00
        E 120 90 18 69
        E 0 90 30 69
        E 0 90 48 69
        E 0 90 60 69
        E 0 90 6c 67
        E 120 80 18 00
        E 0 80 30 00
        E 0 80 48 00
        E 0 80 60 00
        E 0 80 6c 00
        E 600 90 48 69
        E 0 90 60 69
        E 120 80 48 00
        E 0 80 60 00
        E 120 90 18 68
        E 0 90 30 68
        E 0 90 48 68
        E 0 90 60 68
        E 120 80 18 00
        E 0 80 30 00
        E 0 80 48 00
        E 0 80 60 00
        E 600 90 48 68
        E 0 90 60 68
        E 120 80 48 00
        E 0 80 60 00
        E 120 90 18 67
        E 0 90 30 67
        E 0 90 48 67
        E 0 90 60 67
        E 120 80 18 00
        E 0 80 30 00
        E 0 80 48 00
        E 0 80 60 00
        E 600 90 48 67
        E 0 90 60 67
        E 120 80 48 00
        E 0 80 60 00
        E 120 90 19 64
        E 0 90 31 64
        E 0 90 49 64
        E 0 90 61 64
        E 120 80 19 00
        E 0 80 31 00
        E 0 80 49 00
        E 0 80 61 00
        E 600 90 49 64
        E 0 90 61 64
        E 120 80 49 00
        E 0 80 61 00
        E 120 90 19 66
        E 0 90 31 66
        E 0 90 49 66
        E 0 90 61 66
        E 0 90 6c 65
        E 120 80 19 00
        E 0 80 31 00
        E 0 80 49 00
        E 0 80 61 00
        E 0 80 6c 00
        E 120 90 31 66
        E 0 90 49 66
        E 0 90 61 66
        E 120 80 31 00
        E 0 80 49 00
        E 0 80 61 00
        E 120 90 19 66
        E 0 90 31 66
        E 0 90 49 66
        E 0 90 61 66
        E 120 80 19 00
        E 0 80 31 00
        E 0 80 49 00
        E 0 80 61 00
        E 120 90 49 66
        E 0 90 61 66
        E 120 80 49 00
        E 0 80 61 00
        E 120 90 19 65
        E 0 90 31 65
        E 0 90 49 65
        E 0 90 61 65
        E 120 80 19 00
        E 0 80 31 00
        E 0 80 49 00
        E 0 80 61 00
        E 120 90 31 65
        E 0 90 49 65
        E 0 90 61 65
        E 120 80 31 00
        E 0 80 49 00
        E 0 80 61 00
        E 120 90 31 65
        E 0 90 49 65
        E 0 90 61 65
        E 120 80 31 00
        E 0 80 49 00
        E 0 80 61 00
        E 120 90 49 65
        E 0 90 61 65
        E 120 80 49 00
        E 0 80 61 00
        E 120 90 19 64
        E 0 90 31 64
        E 0 90 49 64
        E 0 90 61 64
        E 120 80 19 00
        E 0 80 31 00
        E 0 80 49 00
        E 0 80 61 00
        E 120 90 31 64
        E 0 90 49 64
        E 0 90 61 64
        E 120 80 31 00
        E 0 80 49 00
        E 0 80 61 00
        E 120 90 31 64
        E 0 90 49 64
        E 0 90 61 64
        E 120 80 31 00
        E 0 80 49 00
        E 0 80 61 00
        E 120 90 49 64
        E 0 90 61 64
        E 120 80 49 00
        E 0 80 61 00
        E 120 90 18 6a
        E 0 90 30 6a
        E 0 90 48 6a
        E 0 90 60 6a
        E 0 90 6c 69
        E 120 80 18 00
        E 0 80 30 00
        E 0 80 48 00
        E 0 80 60 00
        E 0 80 6c 00
        E 120 90 30 6a
        E 0 90 48 6a
        E 0 90 60 6a
        E 120 80 30 00
        E 0 80 48 00
        E 0 80 60 00
        E 120 90 30 6a
        E 0 90 48 6a
        E 0 90 60 6a
        E 120 80 30 00
        E 0 80 48 00
        E 0 80 60 00
        E 120 90 48 6a
        E 0 90 60 6a
        E 120 80 48 00
        E 0 80 60 00
        E 120 90 18 69
        E 0 90 30 69
        E 0 90 48 69
        E 0 90 60 69
        E 120 80 18 00
        E 0 80 30 00
        E 0 80 48 00
        E 0 80 60 00
        E 120 90 30 69
        E 0 90 48 69
        E 0 90 60 69
        E 120 80 30 00
        E 0 80 48 00
        E 0 80 60 00
        E 120 90 18 69
        E 0 90 30 69
        E 0 90 48 69
        E 0 90 60 69
        E 120 80 18 00
        E 0 80 30 00
        E 0 80 48 00
        E 0 80 60 00
        E 120 90 48 69
        E 0 90 60 69
        E 120 80 48 00
        E 0 80 60 00
        E 120 90 18 6b
        E 0 90 30 6b
        E 0 90 48 6b
        E 0 90 60 6b
        E 120 80 18 00
        E 0 80 30 00
        E 0 80 48 00
        E 0 80 60 00
        E 120 90 30 6b
        E 0 90 48 6b
        E 0 90 60 6b
        E 120 80 30 00
        E 0 80 48 00
        E 0 80 60 00
        E 120 90 30 6b
        E 0 90 48 6b
        E 0 90 60 6b
        E 120 80 30 00
        E 0 80 48 00
        E 0 80 60 00
        E 120 90 48 6b
        E 0 90 60 6b
        E 120 80 48 00
        E 0 80 60 00
        E 120 90 18 64
        E 0 90 30 64
        E 0 90 48 64
        E 0 90 60 64
        E 1440 80 18 00
        E 0 80 30 00
        E 360 80 48 00
        E 0 80 60 00
        E 120 90 18 68
        E 0 90 30 68
        E 0 90 48 68
        E 0 90 60 68
        E 0 90 6c 68
        E 0 90 74 60
        E 120 80 18 00
        E 0 80 30 00
        E 0 80 48 00
        E 0 80 60 00
        E 0 80 6c 00
        E 600 90 30 68
        E 0 90 48 68
        E 0 90 60 68
        E 120 80 30 00
        E 0 80 48 00
        E 0 80 60 00
        E 1080 90 18 69
        E 0 90 30 69
        E 0 90 48 69
        E 0 90 60 69
        E 120 80 18 00
        E 0 80 30 00
        E 0 80 48 00
        E 0 80 60 00
        E 600 90 30 69
        E 0 90 48 69
        E 0 90 60 69
        E 120 80 30 00
        E 0 80 48 00
        E 0 80 60 00
        E 1080 90 18 68
        E 0 90 30 68
        E 0 90 48 68
        E 0 90 60 68
        E 120 80 74 00
        E 0 80 18 00
        E 0 80 30 00
        E 0 80 48 00
        E 0 80 60 00
        E 600 90 48 68
        E 0 90 60 68
        E 120 80 48 00
        E 0 80 60 00
        E 120 90 19 64
        E 0 90 31 64
        E 0 90 49 64
        E 0 90 61 64
        E 120 80 19 00
        E 0 80 31 00
        E 0 80 49 00
        E 0 80 61 00
        E 600 90 49 64
        E 0 90 61 64
        E 120 80 49 00
        E 0 80 61 00
        E 120 90 1a 64
        E 0 90 32 64
        E 0 90 4a 64
        E 0 90 62 64
        E 120 80 1a 00
        E 0 80 32 00
        E 0 80 4a 00
        E 0 80 62 00
        E 600 90 32 64
        E 0 90 4a 64
        E 0 90 62 64
        E 120 80 32 00
        E 0 80 4a 00
        E 0 80 62 00
        E 120 90 1a 64
        E 0 90 32 64
        E 0 90 4a 64
        E 0 90 62 64
        E 120 80 1a 00
        E 0 80 32 00
        E 0 80 4a 00
        E 0 80 62 00
        E 600 90 4a 64
        E 0 90 62 64
        E 120 80 4a 00
        E 0 80 62 00
        E 120 90 18 69
        E 0 90 30 69
        E 0 90 48 69
        E 0 90 60 69
        E 0 90 6c 66
        E 120 80 18 00
        E 0 80 30 00
        E 0 80 48 00
        E 0 80 60 00
        E 0 80 6c 00
        E 120 90 30 69
        E 0 90 48 69
        E 0 90 60 69
        E 120 80 30 00
        E 0 80 48 00
        E 0 80 60 00
        E 120 90 30 69
        E 0 90 48 69
        E 0 90 60 69
        E 120 80 30 00
        E 0 80 48 00
        E 0 80 60 00
        E 120 90 48 69
        E 0 90 60 69
        E 120 80 48 00
        E 0 80 60 00
        E 120 90 18 68
        E 0 90 30 68
        E 0 90 48 68
        E 0 90 60 68
        E 120 80 18 00
        E 0 80 30 00
        E 0 80 48 00
        E 0 80 60 00
        E 120 90 30 68
        E 0 90 48 68
        E 0 90 60 68
        E 120 80 30 00
        E 0 80 48 00
        E 0 80 60 00
        E 120 90 30 68
        E 0 90 48 68
        E 0 90 60 68
        E 120 80 30 00
        E 0 80 48 00
        E 0 80 60 00
        E 120 90 48 68
        E 0 90 60 68
        E 120 80 48 00
        E 0 80 60 00
        E 120 90 18 66
        E 0 90 30 66
        E 0 90 48 66
        E 0 90 60 66
        E 120 80 18 00
        E 0 80 30 00
        E 0 80 48 00
        E 0 80 60 00
        E 120 90 30 66
        E 0 90 48 66
        E 0 90 60 66
        E 120 80 30 00
        E 0 80 48 00
        E 0 80 60 00
        E 120 90 30 66
        E 0 90 48 66
        E 0 90 60 66
        E 120 80 30 00
        E 0 80 48 00
        E 0 80 60 00
        E 120 90 48 66
        E 0 90 60 66
        E 120 80 48 00
        E 0 80 60 00
        E 120 90 18 68
        E 0 90 30 68
        E 0 90 48 68
        E 0 90 60 68
        E 120 80 18 00
        E 0 80 30 00
        E 0 80 48 00
        E 0 80 60 00
        E 120 90 30 68
        E 0 90 48 68
        E 0 90 60 68
        E 120 80 30 00
        E 0 80 48 00
        E 0 80 60 00
        E 120 90 30 68
        E 0 90 48 68
        E 0 90 60 68
        E 120 80 30 00
        E 0 80 48 00
        E 0 80 60 00
        E 120 90 48 68
        E 0 90 60 68
        E 120 80 48 00
        E 0 80 60 00
        E 120 90 18 69
        E 0 90 30 69
        E 0 90 48 69
        E 0 90 60 69
        E 120 80 18 00
        E 0 80 30 00
        E 0 80 48 00
        E 0 80 60 00
        E 120 90 30 69
        E 0 90 48 69
        E 0 90 60 69
        E 120 80 30 00
        E 0 80 48 00
        E 0 80 60 00
        E 120 90 30 69
        E 0 90 48 69
        E 0 90 60 69
        E 120 80 30 00
        E 0 80 48 00
        E 0 80 60 00
        E 120 90 48 69
        E 0 90 60 69
        E 120 80 48 00
        E 0 80 60 00
        E 120 90 18 68
        E 0 90 30 68
        E 0 90 48 68
        E 0 90 60 68
        E 120 80 18 00
        E 0 80 30 00
        E 0 80 48 00
        E 0 80 60 00
        E 120 90 30 68
        E 0 90 48 68
        E 0 90 60 68
        E 120 80 30 00
        E 0 80 48 00
        E 0 80 60 00
        E 120 90 30 68
        E 0 90 48 68
        E 0 90 60 68
        E 120 80 30 00
        E 0 80 48 00
        E 0 80 60 00
        E 120 90 48 68
        E 0 90 60 68
        E 120 80 48 00
        E 0 80 60 00
        E 120 90 18 66
        E 0 90 30 66
        E 0 90 48 66
        E 0 90 60 66
        E 120 80 18 00
        E 0 80 30 00
        E 0 80 48 00
        E 0 80 60 00
        E 120 90 30 66
        E 0 90 48 66
        E 0 90 60 66
        E 120 80 30 00
        E 0 80 48 00
        E 0 80 60 00
        E 120 90 30 66
        E 0 90 48 66
        E 0 90 60 66
        E 120 80 30 00
        E 0 80 48 00
        E 0 80 60 00
        E 120 90 48 66
        E 0 90 60 66
        E 120 80 48 00
        E 0 80 60 00
        E 120 90 19 64
        E 0 90 31 64
        E 0 90 49 64
        E 0 90 61 64
        E 120 80 19 00
        E 0 80 31 00
        E 0 80 49 00
        E 0 80 61 00
        E 120 90 31 64
        E 0 90 49 64
        E 0 90 61 64
        E 120 80 31 00
        E 0 80 49 00
        E 0 80 61 00
        E 120 90 31 64
        E 0 90 49 64
        E 0 90 61 64
        E 120 80 31 00
        E 0 80 49 00
        E 0 80 61 00
        E 120 90 49 64
        E 0 90 61 64
        E 120 80 49 00
        E 0 80 61 00
        E 120 90 18 64
        E 0 90 30 64
        E 0 90 48 64
        E 0 90 60 64
        E 1440 80 18 00
        E 0 80 30 00
        E 360 80 48 00
        E 0 80 60 00
        E 120 90 1a 69
        E 0 90 32 69
        E 0 90 4a 69
        E 0 90 62 69
        E 0 90 6c 69
        E 120 80 1a 00
        E 0 80 32 00
        E 0 80 6c 00
        E 480 80 4a 00
        E 0 80 62 00
        E 120 90 32 6b
        E 0 90 4a 6b
        E 0 90 62 6b
        E 720 80 32 00
        E 240 80 4a 00
        E 0 80 62 00
        E 240 90 19 69
        E 0 90 31 69
        E 0 90 49 69
        E 0 90 61 69
        E 120 80 19 00
        E 0 80 31 00
        E 480 80 49 00
        E 0 80 61 00
        E 120 90 32 69
        E 0 90 4a 69
        E 0 90 62 69
        E 720 80 32 00
        E 240 80 4a 00
        E 0 80 62 00
        E 240 90 1a 69
        E 0 90 32 69
        E 0 90 4a 69
        E 0 90 62 69
        E 120 80 1a 00
        E 0 80 32 00
        E 480 80 4a 00
        E 0 80 62 00
        E 120 90 32 6b
        E 0 90 4a 6b
        E 0 90 62 6b
        E 480 80 32 00
        E 360 80 4a 00
        E 0 80 62 00
        E 120 90 19 69
        E 0 90 31 69
        E 0 90 49 69
        E 0 90 61 69
        E 1680 80 19 00
        E 0 80 31 00
        E 240 80 49 00
        E 0 80 61 00
        E 240 90 1a 69
        E 0 90 32 69
        E 0 90 4a 69
        E 0 90 62 69
        E 120 80 1a 00
        E 0 80 32 00
        E 480 80 4a 00
        E 0 80 62 00
        E 120 90 32 6b
        E 0 90 4a 6b
        E 0 90 62 6b
        E 720 80 32 00
        E 240 80 4a 00
        E 0 80 62 00
        E 240 90 19 69
        E 0 90 31 69
        E 0 90 49 69
        E 0 90 61 69
        E 120 80 19 00
        E 0 80 31 00
        E 480 80 49 00
        E 0 80 61 00
        E 120 90 32 69
        E 0 90 4a 69
        E 0 90 62 69
        E 720 80 32 00
        E 240 80 4a 00
        E 0 80 62 00
        E 240 90 1a 69
        E 0 90 32 69
        E 0 90 4a 69
        E 0 90 62 69
        E 120 80 1a 00
        E 0 80 32 00
        E 480 80 4a 00
        E 0 80 62 00
        E 120 90 32 6b
        E 0 90 4a 6b
        E 0 90 62 6b
        E 480 80 32 00
        E 360 80 4a 00
        E 0 80 62 00
        E 120 90 19 69
        E 0 90 31 69
        E 0 90 49 69
        E 0 90 61 69
        E 1920 80 19 00
        E 0 80 31 00
        E 0 80 49 00
        E 0 80 61 00
        E 2159 b0 7b 00
        GUID {0755379B-E82C-40D2-9849-D67BCCB227AE}
        IGNTEMPO 0 120.00000000 4 4
        SRCCOLOR 13
        VELLANE 132 128 60
        COLORMAP "C:\Program Files\REAPER (x64)\Data\color_maps\rockband_guitarbass.png"
        CFGEDITVIEW 53635.345074 71.811895 10 12 0 0 0
        CFGEDIT 1 1 0 1 1 0 1 1 1 1 1 0.25000000 -8 -8 1544 872 0 2 1 1 0.00000000 0 1 0 0 0.500000 0 0 1.000000 64
        KEYSNAP 0 6 "102030050700" 0 "Pentatonic"
        EVTFILTER 0 -1 -1 -1 -1 0 1 0 0 -1.00000000 -1.00000000
      >
    >
  >
  <TRACK '{8D03A020-ED1A-4CEC-9778-C4A6EB37534C}'
    NAME "PART REAL_GUITAR"
    PEAKCOL 16576
    BEAT -1
    AUTOMODE 0
    VOLPAN 1.00000000000000 0.00000000000000 -1.00000000000000 -1.00000000000000 1.00000000000000
    MUTESOLO 0 0 0
    IPHASE 0
    ISBUS 0 0
    BUSCOMP 0 0
    SHOWINMIX 1 0.666700 0.500000 1 0.500000 -1 -1 -1
    FREEMODE 0
    SEL 0
    REC 0 0 0 0 0 0 0
    VU 2
    TRACKHEIGHT 0 0
    INQ 0 0 0 0.5000000000 100 0 0 100
    NCHAN 2
    FX 0
    TRACKID {8D03A020-ED1A-4CEC-9778-C4A6EB37534C}
    PERF 0
    MIDIOUT -1
    <MIDINOTENAMES
      0 127 "Trill Marker"
      0 126 "Tremolo Marker"
      0 125 "BRE"
      0 124 "BRE"
      0 123 "BRE"
      0 122 "BRE"
      0 121 "BRE"
      0 120 "BRE (use all 6)"
      0 119 "-----------"
      0 116 "OVERDRIVE"
      0 115 "Solo Marker"
      0 109 "-----------"
      0 108 "Fret Hand Position"
      0 107 "Force Chord Numbering"
      0 106 "Loose Strumming"
      0 105 "Strum Direction"
      0 104 "Arpeggio Marker"
      0 103 "Slide Marker"
      0 102 "Force HOPO"
      0 101 "EXPERT e String"
      0 100 "EXPERT B String"
      0 99 "EXPERT G String"
      0 98 "EXPERT D String"
      0 97 "EXPERT A String"
      0 96 "EXPERT E String"
      0 95 "-----------"
      0 82 "Loose Strumming"
      0 81 "Strum Direction"
      0 80 "Arpeggio Marker"
      0 79 "Slide Marker"
      0 78 "Force HOPO"
      0 77 "HARD e String"
      0 76 "HARD B String"
      0 75 "HARD G String"
      0 74 "HARD D String"
      0 73 "HARD A String"
      0 72 "HARD E String"
      0 71 "-----------"
      0 58 "Loose Strumming"
      0 56 "Arpeggio Marker"
      0 55 "Slide Marker"
      0 53 "MEDIUM e String"
      0 52 "MEDIUM B String"
      0 51 "MEDIUM G String"
      0 50 "MEDIUM D String"
      0 49 "MEDIUM A String"
      0 48 "MEDIUM E String"
      0 47 "-----------"
      0 32 "Arpeggio Marker"
      0 31 "Slide Marker"
      0 29 "EASY e String"
      0 28 "EASY B String"
      0 27 "EASY G String"
      0 26 "EASY D String"
      0 25 "EASY A String"
      0 24 "EASY E String"
      0 21 "-----------"
      0 18 "Flat/Sharp Swap"
      0 17 "Hide Chord Names"
      0 16 "Slash Chord"
      0 15 "D#"
      0 14 "D"
      0 13 "C#"
      0 12 "C"
      0 11 "B"
      0 10 "A#"
      0 9 "A"
      0 8 "G#"
      0 7 "G"
      0 6 "F#"
      0 5 "F"
      0 4 "E"
    >
    MAINSEND 1 0
    <FXCHAIN
      WNDRECT 0 43 655 467
      SHOW 0
      LASTSEL 1
      DOCKED 0
      BYPASS 0 0
      <JS "c3/progtr" ""
        0.000000 3.000000 0.000000 0.000000 0.000000 0.000000 0.000000 0.000000 0.000000 1.000000 - - - - - - - - - - - - - - - - - - - - - - - - - - - - - - - - - - - - - - - - - - - - - - - - - - - - - - 
      >
      FLOATPOS 0 0 0 0
      FXID {F9CB0451-9D96-4765-B617-53A9E01CF08F}
      WAK 0
      BYPASS 0 0
      <VST "VSTi: ReaSynth (Cockos)" "reasynth.dll" 0 ""
        eXNlcu9e7f4AAAAAAgAAAAEAAAAAAAAAAgAAAAAAAAA4AAAAAAAAAA==
        AAAQAO++rd4N8K3eppvEO+gJMjyHFlk/AAAAAAAAAADMm4A+4jAEPA==
        AAAAAAAAAD+01hM+j8L1PQAAAD8AABAAAAA=
      >
      FLOATPOS 0 0 0 0
      FXID {1039136C-72B6-4F65-BE61-69470E003962}
      WAK 0
    >
    <ITEM
      POSITION 0.00000000000000
      SNAPOFFS 0.00000000000000
      LENGTH 121.61000000000000
      LOOP 0
      ALLTAKES 0
      SEL 0
      FADEIN 1 0.000000 0.000000 1 0
      FADEOUT 1 0.000000 0.000000 1 0
      MUTE 0
      IGUID {6D17453D-BA72-4FBF-AB98-12E339D85F4E}
      IID 12
      NAME "PART REAL_GUITAR"
      VOLPAN 1.000000 0.000000 1.000000 -1.000000
      SOFFS 0.00000000000000 0.00000000000000
      PLAYRATE 1.00000000000000 1 0.00000000000000 -1
      CHANMODE 0
      GUID {E160B39C-CA18-4AED-91FF-0E153E5CC14B}
      <SOURCE MIDI
        HASDATA 1 480 QN
        POOLEDEVTS {4DB1D7BD-EDAB-4F85-86CF-BBF0322E31CF}
        <X 0 0
          /wNQQVJUIFJFQUxfR1VJVEFS
        >
        <X 3840 0
          /wFbYmVnaW5fcGcgc29uZ190cmFpbmVyX3BnXzFd
        >
        E 0 90 1a 64
        E 0 90 32 64
        E 0 90 4a 64
        E 0 90 62 64
        E 0 90 6c 66
        E 120 80 1a 00
        E 0 80 32 00
        E 0 80 4a 00
        E 0 80 62 00
        E 0 80 6c 00
        E 120 90 4b 64
        E 0 90 63 64
        E 120 80 4b 00
        E 0 80 63 00
        E 120 90 34 64
        E 0 90 4c 64
        E 0 90 64 64
        E 120 80 34 00
        E 0 80 4c 00
        E 0 80 64 00
        E 120 90 4a 66
        E 0 90 62 66
        E 360 80 4a 00
        E 0 80 62 00
        E 120 90 1a 68
        E 0 90 32 68
        E 0 90 4a 68
        E 0 90 62 68
        E 120 80 1a 00
        E 0 80 32 00
        E 240 80 4a 00
        E 0 80 62 00
        E 120 90 32 68
        E 0 90 4a 68
        E 0 90 62 68
        E 120 80 32 00
        E 0 80 4a 00
        E 0 80 62 00
        <X 120 0
          /wFbcGdfbm9ybSBzb25nX3RyYWluZXJfcGdfMV0=
        >
        E 0 90 1a 68
        E 0 90 32 68
        E 0 90 4a 68
        E 0 90 62 68
        E 120 80 1a 00
        E 0 80 32 00
        E 0 80 4a 00
        E 0 80 62 00
        E 120 90 32 68
        E 0 90 4a 68
        E 0 90 62 68
        E 120 80 32 00
        E 240 80 4a 00
        E 0 80 62 00
        E 120 90 32 64
        E 0 90 4a 64
        E 0 90 62 64
        E 720 80 32 00
        E 240 80 4a 00
        E 0 80 62 00
        E 240 90 1a 64
        E 0 90 32 64
        E 0 90 4a 64
        E 0 90 62 64
        E 0 90 74 60
        E 120 80 1a 00
        E 0 80 32 00
        E 0 80 4a 00
        E 0 80 62 00
        E 120 90 4b 64
        E 0 90 63 64
        E 120 80 4b 00
        E 0 80 63 00
        E 120 90 34 64
        E 0 90 4c 64
        E 0 90 64 64
        E 120 80 34 00
        E 0 80 4c 00
        E 0 80 64 00
        E 120 90 4a 66
        E 0 90 62 66
        E 360 80 4a 00
        E 0 80 62 00
        E 120 90 1a 68
        E 0 90 32 68
        E 0 90 4a 68
        E 0 90 62 68
        E 120 80 1a 00
        E 0 80 32 00
        E 240 80 4a 00
        E 0 80 62 00
        E 120 90 32 68
        E 0 90 4a 68
        E 0 90 62 68
        E 1920 80 32 00
        E 0 80 4a 00
        E 0 80 62 00
        <X 240 0
          /wFbZW5kX3BnIHNvbmdfdHJhaW5lcl9wZ18xXQ==
        >
        <X 0 0
          /wFbYmVnaW5fcGcgc29uZ190cmFpbmVyX3BnXzJd
        >
        E 120 80 74 00
        E 120 90 4a 68
        E 0 90 62 68
        E 120 80 4a 00
        E 0 80 62 00
        E 0 90 62 68
        E 120 80 62 00
        E 0 90 1b 66
        E 0 90 33 66
        E 0 90 4b 66
        E 0 90 63 66
        E 120 80 1b 00
        E 0 80 33 00
        E 0 80 4b 00
        E 0 80 63 00
        E 0 90 63 66
        E 120 80 63 00
        E 0 90 4c 67
        E 0 90 64 67
        E 120 80 4c 00
        E 0 80 64 00
        E 0 90 64 67
        E 120 80 64 00
        E 240 90 4a 66
        E 0 90 62 66
        E 120 80 4a 00
        E 0 80 62 00
        E 0 90 62 66
        E 120 80 62 00
        E 0 90 1b 66
        E 0 90 33 66
        E 0 90 4b 66
        E 0 90 63 66
        E 120 80 1b 00
        E 0 80 33 00
        E 0 80 4b 00
        E 0 80 63 00
        E 0 90 63 66
        E 120 80 63 00
        E 0 90 4c 66
        E 0 90 64 66
        E 120 80 4c 00
        E 0 80 64 00
        E 0 90 64 66
        <X 120 0
          /wFbcGdfbm9ybSBzb25nX3RyYWluZXJfcGdfMl0=
        >
        E 0 80 64 00
        E 240 90 49 69
        E 0 90 61 69
        E 0 90 6c 68
        E 120 80 49 00
        E 0 80 61 00
        E 0 80 6c 00
        E 0 90 61 69
        E 120 80 61 00
        E 0 90 1a 68
        E 0 90 32 68
        E 0 90 4a 68
        E 0 90 62 68
        E 120 80 1a 00
        E 0 80 32 00
        E 0 80 4a 00
        E 0 80 62 00
        E 0 90 62 68
        E 120 80 62 00
        E 0 90 4b 68
        E 0 90 63 68
        E 120 80 4b 00
        E 0 80 63 00
        E 0 90 63 68
        E 120 80 63 00
        E 240 90 49 69
        E 0 90 61 69
        E 0 90 6c 66
        E 120 80 49 00
        E 0 80 61 00
        E 0 80 6c 00
        E 0 90 61 69
        E 120 80 61 00
        E 0 90 1a 68
        E 0 90 32 68
        E 0 90 4a 68
        E 0 90 62 68
        E 120 80 1a 00
        E 0 80 32 00
        E 0 80 4a 00
        E 0 80 62 00
        E 0 90 62 68
        E 120 80 62 00
        E 0 90 4b 66
        E 0 90 63 66
        E 120 80 4b 00
        E 0 80 63 00
        E 0 90 63 66
        E 120 80 63 00
        E 0 90 1a 69
        E 0 90 32 69
        E 0 90 4a 69
        E 0 90 62 69
        E 0 90 6c 67
        E 120 80 1a 00
        E 0 80 32 00
        E 0 80 4a 00
        E 0 80 62 00
        E 0 80 6c 00
        E 0 90 62 69
        E 120 80 62 00
        E 0 90 4b 68
        E 0 90 63 68
        E 120 80 4b 00
        E 0 80 63 00
        E 0 90 63 68
        E 120 80 63 00
        E 0 90 34 67
        E 0 90 4c 67
        E 0 90 64 67
        E 120 80 34 00
        E 0 80 4c 00
        E 0 80 64 00
        E 0 90 64 67
        E 120 80 64 00
        E 0 90 4a 69
        E 0 90 62 69
        E 120 80 4a 00
        E 0 80 62 00
        E 0 90 62 69
        E 120 80 62 00
        E 0 90 1a 68
        E 0 90 32 68
        E 0 90 4a 68
        E 0 90 62 68
        E 0 90 6c 66
        E 120 80 1a 00
        E 0 80 32 00
        E 0 80 4a 00
        E 0 80 62 00
        E 0 80 6c 00
        E 0 90 62 68
        E 120 80 62 00
        E 0 90 4b 66
        E 0 90 63 66
        E 120 80 4b 00
        E 0 80 63 00
        E 0 90 63 66
        E 120 80 63 00
        E 0 90 34 67
        E 0 90 4c 67
        E 0 90 64 67
        E 120 80 34 00
        E 0 80 4c 00
        E 0 80 64 00
        E 0 90 64 67
        E 120 80 64 00
        E 0 90 4a 68
        E 0 90 62 68
        E 120 80 4a 00
        E 0 80 62 00
        E 0 90 62 68
        E 120 80 62 00
        E 0 90 1a 67
        E 0 90 32 67
        E 0 90 4a 67
        E 0 90 62 67
        E 0 90 6c 65
        E 120 80 1a 00
        E 0 80 32 00
        E 0 80 4a 00
        E 0 80 62 00
        E 0 80 6c 00
        E 0 90 62 67
        E 120 80 62 00
        E 0 90 4b 66
        E 0 90 63 66
        E 120 80 4b 00
        E 0 80 63 00
        E 0 90 63 66
        E 120 80 63 00
        E 0 90 34 65
        E 0 90 4c 65
        E 0 90 64 65
        E 120 80 34 00
        E 0 80 4c 00
        E 0 80 64 00
        E 0 90 64 65
        E 120 80 64 00
        E 0 90 4b 66
        E 0 90 63 66
        E 120 80 4b 00
        E 0 80 63 00
        E 0 90 63 66
        E 120 80 63 00
        E 0 90 1a 66
        E 0 90 32 66
        E 0 90 4a 66
        E 0 90 62 66
        E 0 90 6c 66
        E 120 80 1a 00
        E 0 80 32 00
        E 0 80 4a 00
        E 0 80 62 00
        E 0 80 6c 00
        E 0 90 62 66
        E 120 80 62 00
        E 0 90 4b 66
        E 0 90 63 66
        E 120 80 4b 00
        E 0 80 63 00
        E 0 90 63 66
        E 120 80 63 00
        E 0 90 31 68
        E 0 90 49 68
        E 0 90 61 68
        E 120 80 31 00
        E 0 80 49 00
        E 0 80 61 00
        E 0 90 61 68
        E 120 80 61 00
        E 0 90 4b 66
        E 0 90 63 66
        E 120 80 4b 00
        E 0 80 63 00
        E 0 90 63 66
        <X 120 0
          /wFbZW5kX3BnIHNvbmdfdHJhaW5lcl9wZ18yXQ==
        >
        E 0 80 63 00
        E 240 90 4a 68
        E 0 90 62 68
        E 120 80 4a 00
        E 0 80 62 00
        E 0 90 62 68
        E 120 80 62 00
        E 0 90 1b 66
        E 0 90 33 66
        E 0 90 4b 66
        E 0 90 63 66
        E 120 80 1b 00
        E 0 80 33 00
        E 0 80 4b 00
        E 0 80 63 00
        E 0 90 63 66
        E 120 80 63 00
        E 0 90 4c 67
        E 0 90 64 67
        E 120 80 4c 00
        E 0 80 64 00
        E 0 90 64 67
        E 120 80 64 00
        E 240 90 4a 66
        E 0 90 62 66
        E 120 80 4a 00
        E 0 80 62 00
        E 0 90 62 66
        E 120 80 62 00
        E 0 90 1b 66
        E 0 90 33 66
        E 0 90 4b 66
        E 0 90 63 66
        E 120 80 1b 00
        E 0 80 33 00
        E 0 80 4b 00
        E 0 80 63 00
        E 0 90 63 66
        E 120 80 63 00
        E 0 90 4c 66
        E 0 90 64 66
        E 120 80 4c 00
        E 0 80 64 00
        E 0 90 64 66
        E 120 80 64 00
        E 240 90 49 69
        E 0 90 61 69
        E 0 90 6c 68
        E 120 80 49 00
        E 0 80 61 00
        E 0 80 6c 00
        E 0 90 61 69
        E 120 80 61 00
        E 0 90 1a 68
        E 0 90 32 68
        E 0 90 4a 68
        E 0 90 62 68
        E 120 80 1a 00
        E 0 80 32 00
        E 0 80 4a 00
        E 0 80 62 00
        E 0 90 62 68
        E 120 80 62 00
        E 0 90 4b 68
        E 0 90 63 68
        E 120 80 4b 00
        E 0 80 63 00
        E 0 90 63 68
        E 120 80 63 00
        E 240 90 49 69
        E 0 90 61 69
        E 0 90 6c 66
        E 120 80 49 00
        E 0 80 61 00
        E 0 80 6c 00
        E 0 90 61 69
        E 120 80 61 00
        E 0 90 32 68
        E 0 90 4a 68
        E 0 90 62 68
        E 120 80 32 00
        E 0 80 4a 00
        E 0 80 62 00
        E 0 90 62 68
        E 120 80 62 00
        E 0 90 4b 66
        E 0 90 63 66
        E 120 80 4b 00
        E 0 80 63 00
        E 0 90 63 66
        E 120 80 63 00
        E 0 90 1a 69
        E 0 90 32 69
        E 0 90 4a 69
        E 0 90 62 69
        E 0 90 6c 67
        E 120 80 1a 00
        E 0 80 32 00
        E 0 80 4a 00
        E 0 80 62 00
        E 0 80 6c 00
        E 0 90 62 69
        E 120 80 62 00
        E 0 90 4b 68
        E 0 90 63 68
        E 120 80 4b 00
        E 0 80 63 00
        E 0 90 63 68
        E 120 80 63 00
        E 0 90 34 67
        E 0 90 4c 67
        E 0 90 64 67
        E 120 80 34 00
        E 0 80 4c 00
        E 0 80 64 00
        E 0 90 64 67
        E 120 80 64 00
        E 0 90 4a 69
        E 0 90 62 69
        E 120 80 4a 00
        E 0 80 62 00
        E 0 90 62 69
        E 120 80 62 00
        E 0 90 1a 68
        E 0 90 32 68
        E 0 90 4a 68
        E 0 90 62 68
        E 0 90 6c 66
        E 120 80 1a 00
        E 0 80 32 00
        E 0 80 4a 00
        E 0 80 62 00
        E 0 80 6c 00
        E 0 90 62 68
        E 120 80 62 00
        E 0 90 4b 66
        E 0 90 63 66
        E 120 80 4b 00
        E 0 80 63 00
        E 0 90 63 66
        E 120 80 63 00
        E 0 90 34 67
        E 0 90 4c 67
        E 0 90 64 67
        E 120 80 34 00
        E 0 80 4c 00
        E 0 80 64 00
        E 0 90 64 67
        E 120 80 64 00
        E 0 90 4a 68
        E 0 90 62 68
        E 120 80 4a 00
        E 0 80 62 00
        E 0 90 62 68
        E 120 80 62 00
        E 0 90 1a 67
        E 0 90 32 67
        E 0 90 4a 67
        E 0 90 62 67
        E 0 90 6c 65
        E 120 80 1a 00
        E 0 80 32 00
        E 0 80 4a 00
        E 0 80 62 00
        E 0 80 6c 00
        E 0 90 62 67
        E 120 80 62 00
        E 0 90 4b 66
        E 0 90 63 66
        E 120 80 4b 00
        E 0 80 63 00
        E 0 90 63 66
        E 120 80 63 00
        E 0 90 34 65
        E 0 90 4c 65
        E 0 90 64 65
        E 120 80 34 00
        E 0 80 4c 00
        E 0 80 64 00
        E 0 90 64 65
        E 120 80 64 00
        E 0 90 4b 66
        E 0 90 63 66
        E 120 80 4b 00
        E 0 80 63 00
        E 0 90 63 66
        E 120 80 63 00
        E 0 90 1a 66
        E 0 90 32 66
        E 0 90 4a 66
        E 0 90 62 66
        E 0 90 6c 66
        E 120 80 1a 00
        E 0 80 32 00
        E 0 80 4a 00
        E 0 80 62 00
        E 0 80 6c 00
        E 0 90 62 66
        E 120 80 62 00
        E 0 90 4b 66
        E 0 90 63 66
        E 120 80 4b 00
        E 0 80 63 00
        E 0 90 63 66
        E 120 80 63 00
        E 0 90 31 68
        E 0 90 49 68
        E 0 90 61 68
        E 120 80 31 00
        E 0 80 49 00
        E 0 80 61 00
        E 0 90 61 68
        E 120 80 61 00
        E 0 90 4b 66
        E 0 90 63 66
        E 120 80 4b 00
        E 0 80 63 00
        E 0 90 63 66
        <X 120 0
          /wFbYmVnaW5fcGcgc29uZ190cmFpbmVyX3BnXzNd
        >
        E 0 80 63 00
        E 240 90 48 6b
        E 0 90 60 6b
        E 0 90 6c 68
        E 120 80 48 00
        E 0 80 60 00
        E 0 80 6c 00
        E 0 90 60 6b
        E 120 80 60 00
        E 0 90 19 69
        E 0 90 31 69
        E 0 90 49 69
        E 0 90 61 69
        E 120 80 19 00
        E 0 80 31 00
        E 0 80 49 00
        E 0 80 61 00
        E 0 90 61 69
        E 120 80 61 00
        E 0 90 4a 68
        E 0 90 62 68
        E 120 80 4a 00
        E 0 80 62 00
        E 0 90 62 68
        E 120 80 62 00
        E 240 90 48 6a
        E 0 90 60 6a
        E 120 80 48 00
        E 0 80 60 00
        E 0 90 60 6a
        E 120 80 60 00
        E 0 90 19 69
        E 0 90 31 69
        E 0 90 49 69
        E 0 90 61 69
        E 120 80 19 00
        E 0 80 31 00
        E 0 80 49 00
        E 0 80 61 00
        E 0 90 61 69
        E 120 80 61 00
        E 0 90 4a 68
        E 0 90 62 68
        E 120 80 4a 00
        E 0 80 62 00
        E 0 90 62 68
        <X 120 0
          /wFbcGdfbm9ybSBzb25nX3RyYWluZXJfcGdfM10=
        >
        E 0 80 62 00
        E 240 90 48 69
        E 0 90 60 69
        E 120 80 48 00
        E 0 80 60 00
        E 0 90 60 69
        E 120 80 60 00
        E 0 90 19 69
        E 0 90 31 69
        E 0 90 49 69
        E 0 90 61 69
        E 120 80 19 00
        E 0 80 31 00
        E 0 80 49 00
        E 0 80 61 00
        E 0 90 61 69
        E 120 80 61 00
        E 0 90 4a 68
        E 0 90 62 68
        E 120 80 4a 00
        E 0 80 62 00
        E 0 90 62 68
        E 120 80 62 00
        E 240 90 48 68
        E 0 90 60 68
        E 0 90 6c 66
        E 120 80 48 00
        E 0 80 60 00
        E 0 80 6c 00
        E 0 90 60 68
        E 120 80 60 00
        E 0 90 31 66
        E 0 90 49 66
        E 0 90 61 66
        E 120 80 31 00
        E 0 80 49 00
        E 0 80 61 00
        E 0 90 61 66
        E 120 80 61 00
        E 0 90 4a 64
        E 0 90 62 64
        E 120 80 4a 00
        E 0 80 62 00
        E 0 90 62 64
        E 120 80 62 00
        E 0 90 1c 64
        E 0 90 34 64
        E 0 90 4c 64
        E 0 90 64 64
        E 0 90 74 60
        E 120 80 1c 00
        E 0 80 34 00
        E 0 80 4c 00
        E 0 80 64 00
        E 120 90 4b 66
        E 0 90 63 66
        E 120 80 4b 00
        E 0 80 63 00
        E 120 90 33 64
        E 0 90 4b 64
        E 0 90 63 64
        E 120 80 33 00
        E 0 80 4b 00
        E 0 80 63 00
        E 120 90 4b 66
        E 0 90 63 66
        E 120 80 4b 00
        E 0 80 63 00
        E 120 90 1b 66
        E 0 90 33 66
        E 0 90 4b 66
        E 0 90 63 66
        E 120 80 1b 00
        E 0 80 33 00
        E 0 80 4b 00
        E 0 80 63 00
        E 120 90 4b 66
        E 0 90 63 66
        E 120 80 4b 00
        E 0 80 63 00
        E 120 90 33 64
        E 0 90 4b 64
        E 0 90 63 64
        E 120 80 33 00
        E 0 80 4b 00
        E 0 80 63 00
        E 120 90 4b 66
        E 0 90 63 66
        E 120 80 4b 00
        E 0 80 63 00
        E 120 90 1a 68
        E 0 90 32 68
        E 0 90 4a 68
        E 0 90 62 68
        E 1440 80 1a 00
        E 0 80 32 00
        E 360 80 4a 00
        E 0 80 62 00
        <X 120 0
          /wFbZW5kX3BnIHNvbmdfdHJhaW5lcl9wZ18zXQ==
        >
        <X 0 0
          /wFbYmVnaW5fcGcgc29uZ190cmFpbmVyX3BnXzRd
        >
        E 0 80 74 00
        E 0 90 1b 6a
        E 0 90 33 6a
        E 0 90 4b 6a
        E 0 90 63 6a
        E 0 90 6c 68
        E 120 80 1b 00
        E 0 80 33 00
        E 0 80 4b 00
        E 0 80 63 00
        E 0 80 6c 00
        E 0 90 63 6a
        E 120 80 63 00
        E 0 90 49 68
        E 0 90 61 68
        E 120 80 49 00
        E 0 80 61 00
        E 0 90 61 68
        E 120 80 61 00
        E 0 90 32 68
        E 0 90 4a 68
        E 0 90 62 68
        E 120 80 32 00
        E 0 80 4a 00
        E 0 80 62 00
        E 0 90 62 68
        E 120 80 62 00
        E 0 90 4b 6a
        E 0 90 63 6a
        E 120 80 4b 00
        E 0 80 63 00
        E 0 90 63 6a
        E 480 80 63 00
        E 120 90 31 68
        E 0 90 49 68
        E 0 90 61 68
        E 120 80 31 00
        E 0 80 49 00
        E 0 80 61 00
        E 0 90 61 68
        E 120 80 61 00
        <X 240 0
          /wFbcGdfbm9ybSBzb25nX3RyYWluZXJfcGdfNF0=
        >
        E 0 90 1b 6b
        E 0 90 33 6b
        E 0 90 4b 6b
        E 0 90 63 6b
        E 0 90 6c 69
        E 120 80 1b 00
        E 0 80 33 00
        E 0 80 4b 00
        E 0 80 63 00
        E 0 80 6c 00
        E 0 90 63 6b
        E 120 80 63 00
        E 0 90 49 69
        E 0 90 61 69
        E 120 80 49 00
        E 0 80 61 00
        E 0 90 61 69
        E 120 80 61 00
        E 0 90 1a 69
        E 0 90 32 69
        E 0 90 4a 69
        E 0 90 62 69
        E 120 80 1a 00
        E 0 80 32 00
        E 0 80 4a 00
        E 0 80 62 00
        E 0 90 62 69
        E 120 80 62 00
        E 0 90 4b 6b
        E 0 90 63 6b
        E 120 80 4b 00
        E 0 80 63 00
        E 0 90 63 6b
        E 480 80 63 00
        E 120 90 31 69
        E 0 90 49 69
        E 0 90 61 69
        E 120 80 31 00
        E 0 80 49 00
        E 0 80 61 00
        E 0 90 61 69
        E 120 80 61 00
        E 240 90 1b 6a
        E 0 90 33 6a
        E 0 90 4b 6a
        E 0 90 63 6a
        E 0 90 6c 68
        E 120 80 1b 00
        E 0 80 33 00
        E 0 80 4b 00
        E 0 80 63 00
        E 0 80 6c 00
        E 0 90 63 6a
        E 120 80 63 00
        E 0 90 49 68
        E 0 90 61 68
        E 120 80 49 00
        E 0 80 61 00
        E 0 90 61 68
        E 120 80 61 00
        E 0 90 32 68
        E 0 90 4a 68
        E 0 90 62 68
        E 120 80 32 00
        E 0 80 4a 00
        E 0 80 62 00
        E 0 90 62 68
        E 120 80 62 00
        E 0 90 4b 66
        E 0 90 63 66
        E 0 90 6c 66
        E 120 80 4b 00
        E 0 80 63 00
        E 0 80 6c 00
        E 0 90 63 66
        E 120 80 63 00
        E 0 90 1c 66
        E 0 90 34 66
        E 0 90 4c 66
        E 0 90 64 66
        E 120 80 1c 00
        E 0 80 34 00
        E 0 80 4c 00
        E 0 80 64 00
        E 0 90 64 66
        E 120 80 64 00
        E 0 90 49 64
        E 0 90 61 64
        E 120 80 49 00
        E 0 80 61 00
        E 0 90 61 64
        E 120 80 61 00
        E 0 90 32 66
        E 0 90 4a 66
        E 0 90 62 66
        E 120 80 32 00
        E 0 80 4a 00
        E 0 80 62 00
        E 0 90 62 66
        E 120 80 62 00
        E 0 90 4b 66
        E 0 90 63 66
        E 120 80 4b 00
        E 0 80 63 00
        E 0 90 63 66
        E 120 80 63 00
        E 0 90 1a 68
        E 0 90 32 68
        E 0 90 4a 68
        E 0 90 62 68
        E 120 80 1a 00
        E 0 80 32 00
        E 0 80 4a 00
        E 0 80 62 00
        E 0 90 62 68
        E 120 80 62 00
        E 0 90 49 64
        E 0 90 61 64
        E 120 80 49 00
        E 0 80 61 00
        E 0 90 61 64
        E 120 80 61 00
        E 0 90 32 64
        E 0 90 4a 64
        E 0 90 62 64
        E 120 80 32 00
        E 0 80 4a 00
        E 0 80 62 00
        E 0 90 62 64
        E 120 80 62 00
        E 0 90 4a 68
        E 0 90 62 68
        E 120 80 4a 00
        E 0 80 62 00
        E 0 90 62 68
        E 120 80 62 00
        E 0 90 1b 66
        E 0 90 33 66
        E 0 90 4b 66
        E 0 90 63 66
        E 120 80 1b 00
        E 0 80 33 00
        E 0 80 4b 00
        E 0 80 63 00
        E 0 90 63 66
        E 120 80 63 00
        E 0 90 4a 64
        E 0 90 62 64
        E 120 80 4a 00
        E 0 80 62 00
        E 0 90 62 64
        E 120 80 62 00
        E 0 90 32 68
        E 0 90 4a 68
        E 0 90 62 68
        E 120 80 32 00
        E 0 80 4a 00
        E 0 80 62 00
        E 0 90 62 68
        E 120 80 62 00
        E 0 90 4b 66
        E 0 90 63 66
        E 120 80 4b 00
        E 0 80 63 00
        <X 120 0
          /wFbYmVnaW5fcGcgc29uZ190cmFpbmVyX3BnXzVd
        >
        <X 0 0
          /wFbZW5kX3BnIHNvbmdfdHJhaW5lcl9wZ180XQ==
        >
        E 0 90 1d 6b
        E 0 90 35 6b
        E 0 90 4d 6b
        E 0 90 65 6b
        E 0 90 6c 6b
        E 120 80 1d 00
        E 0 80 35 00
        E 0 80 4d 00
        E 0 80 65 00
        E 0 80 6c 00
        E 0 90 65 6b
        E 120 80 65 00
        E 0 90 4c 6c
        E 0 90 64 6c
        E 120 80 4c 00
        E 0 80 64 00
        E 0 90 64 6c
        E 120 80 64 00
        E 0 90 33 6b
        E 0 90 4b 6b
        E 0 90 63 6b
        E 120 80 33 00
        E 0 80 4b 00
        E 0 80 63 00
        E 0 90 63 6b
        E 120 80 63 00
        E 0 90 4c 6c
        E 0 90 64 6c
        E 120 80 4c 00
        E 0 80 64 00
        E 0 90 64 6c
        E 120 80 64 00
        E 0 90 1d 69
        E 0 90 35 69
        E 0 90 4d 69
        E 0 90 65 69
        E 0 90 6c 69
        E 120 80 1d 00
        E 0 80 35 00
        E 0 80 4d 00
        E 0 80 65 00
        E 0 80 6c 00
        E 0 90 65 69
        E 120 80 65 00
        E 0 90 4c 6b
        E 0 90 64 6b
        E 120 80 4c 00
        E 0 80 64 00
        E 0 90 64 6b
        E 120 80 64 00
        E 0 90 33 6b
        E 0 90 4b 6b
        E 0 90 63 6b
        E 120 80 33 00
        E 0 80 4b 00
        E 0 80 63 00
        E 0 90 63 6b
        E 120 80 63 00
        E 240 90 1d 67
        E 0 90 35 67
        E 0 90 4d 67
        E 0 90 65 67
        E 0 90 6c 67
        E 120 80 1d 00
        E 0 80 35 00
        E 0 80 4d 00
        E 0 80 65 00
        E 0 80 6c 00
        E 0 90 65 67
        E 120 80 65 00
        E 0 90 4c 67
        E 0 90 64 67
        E 120 80 4c 00
        E 0 80 64 00
        E 0 90 64 67
        E 120 80 64 00
        E 0 90 33 68
        E 0 90 4b 68
        E 0 90 63 68
        E 120 80 33 00
        E 0 80 4b 00
        E 0 80 63 00
        E 0 90 63 68
        E 120 80 63 00
        E 0 90 4c 67
        E 0 90 64 67
        E 120 80 4c 00
        E 0 80 64 00
        E 0 90 64 67
        <X 120 0
          /wFbcGdfbm9ybSBzb25nX3RyYWluZXJfcGdfNV0=
        >
        E 0 80 64 00
        E 0 90 1d 69
        E 0 90 35 69
        E 0 90 4d 69
        E 0 90 65 69
        E 0 90 6c 69
        E 120 80 1d 00
        E 0 80 35 00
        E 0 80 4d 00
        E 0 80 65 00
        E 0 80 6c 00
        E 0 90 65 69
        E 120 80 65 00
        E 0 90 4c 6b
        E 0 90 64 6b
        E 120 80 4c 00
        E 0 80 64 00
        E 0 90 64 6b
        E 120 80 64 00
        E 0 90 33 6b
        E 0 90 4b 6b
        E 0 90 63 6b
        E 120 80 33 00
        E 0 80 4b 00
        E 0 80 63 00
        E 0 90 63 6b
        E 120 80 63 00
        E 240 90 1d 6b
        E 0 90 35 6b
        E 0 90 4d 6b
        E 0 90 65 6b
        E 0 90 6c 6b
        E 120 80 1d 00
        E 0 80 35 00
        E 0 80 4d 00
        E 0 80 65 00
        E 0 80 6c 00
        E 0 90 65 6b
        E 120 80 65 00
        E 0 90 4c 6c
        E 0 90 64 6c
        E 120 80 4c 00
        E 0 80 64 00
        E 0 90 64 6c
        E 120 80 64 00
        E 0 90 33 6b
        E 0 90 4b 6b
        E 0 90 63 6b
        E 120 80 33 00
        E 0 80 4b 00
        E 0 80 63 00
        E 0 90 63 6b
        E 120 80 63 00
        E 0 90 4c 6c
        E 0 90 64 6c
        E 120 80 4c 00
        E 0 80 64 00
        E 0 90 64 6c
        E 120 80 64 00
        E 0 90 1d 69
        E 0 90 35 69
        E 0 90 4d 69
        E 0 90 65 69
        E 0 90 6c 69
        E 120 80 1d 00
        E 0 80 35 00
        E 0 80 4d 00
        E 0 80 65 00
        E 0 80 6c 00
        E 0 90 65 69
        E 120 80 65 00
        E 0 90 4c 6b
        E 0 90 64 6b
        E 120 80 4c 00
        E 0 80 64 00
        E 0 90 64 6b
        E 120 80 64 00
        E 0 90 33 6b
        E 0 90 4b 6b
        E 0 90 63 6b
        E 120 80 33 00
        E 0 80 4b 00
        E 0 80 63 00
        E 0 90 63 6b
        E 120 80 63 00
        E 240 90 1d 6b
        E 0 90 35 6b
        E 0 90 4d 6b
        E 0 90 65 6b
        E 0 90 6c 6b
        E 120 80 1d 00
        E 0 80 35 00
        E 0 80 4d 00
        E 0 80 65 00
        E 0 80 6c 00
        E 120 90 35 6b
        E 0 90 4d 6b
        E 0 90 65 6b
        E 120 80 35 00
        E 0 80 4d 00
        E 0 80 65 00
        E 120 90 1d 6b
        E 0 90 35 6b
        E 0 90 4d 6b
        E 0 90 65 6b
        E 120 80 1d 00
        E 0 80 35 00
        E 0 80 4d 00
        E 0 80 65 00
        E 120 90 4d 6b
        E 0 90 65 6b
        E 120 80 4d 00
        E 0 80 65 00
        E 120 90 1d 6e
        E 0 90 35 6e
        E 0 90 4d 6e
        E 0 90 65 6e
        E 120 80 1d 00
        E 0 80 35 00
        E 0 80 4d 00
        E 0 80 65 00
        E 120 90 4c 6c
        E 0 90 64 6c
        E 360 80 4c 00
        E 0 80 64 00
        E 120 90 34 6b
        E 0 90 4c 6b
        E 0 90 64 6b
        E 1920 80 34 00
        E 0 80 4c 00
        E 0 80 64 00
        <X 240 0
          /wFbZW5kX3BnIHNvbmdfdHJhaW5lcl9wZ181XQ==
        >
        E 240 90 4a 68
        E 0 90 62 68
        E 0 90 6c 66
        E 120 80 4a 00
        E 0 80 62 00
        E 0 80 6c 00
        E 0 90 62 68
        E 120 80 62 00
        E 0 90 1b 66
        E 0 90 33 66
        E 0 90 4b 66
        E 0 90 63 66
        E 120 80 1b 00
        E 0 80 33 00
        E 0 80 4b 00
        E 0 80 63 00
        E 0 90 63 66
        E 120 80 63 00
        E 0 90 4c 67
        E 0 90 64 67
        E 120 80 4c 00
        E 0 80 64 00
        E 0 90 64 67
        E 120 80 64 00
        E 240 90 4a 66
        E 0 90 62 66
        E 120 80 4a 00
        E 0 80 62 00
        E 0 90 62 66
        E 120 80 62 00
        E 0 90 1b 66
        E 0 90 33 66
        E 0 90 4b 66
        E 0 90 63 66
        E 120 80 1b 00
        E 0 80 33 00
        E 0 80 4b 00
        E 0 80 63 00
        E 0 90 63 66
        E 120 80 63 00
        E 0 90 4c 66
        E 0 90 64 66
        E 120 80 4c 00
        E 0 80 64 00
        E 0 90 64 66
        E 120 80 64 00
        E 240 90 49 69
        E 0 90 61 69
        E 0 90 6c 68
        E 120 80 49 00
        E 0 80 61 00
        E 0 80 6c 00
        E 0 90 61 69
        E 120 80 61 00
        E 0 90 1a 68
        E 0 90 32 68
        E 0 90 4a 68
        E 0 90 62 68
        E 120 80 1a 00
        E 0 80 32 00
        E 0 80 4a 00
        E 0 80 62 00
        E 0 90 62 68
        E 120 80 62 00
        E 0 90 4b 68
        E 0 90 63 68
        E 120 80 4b 00
        E 0 80 63 00
        E 0 90 63 68
        E 120 80 63 00
        E 240 90 49 69
        E 0 90 61 69
        E 0 90 6c 66
        E 120 80 49 00
        E 0 80 61 00
        E 0 80 6c 00
        E 0 90 61 69
        E 120 80 61 00
        E 0 90 1a 68
        E 0 90 32 68
        E 0 90 4a 68
        E 0 90 62 68
        E 120 80 1a 00
        E 0 80 32 00
        E 0 80 4a 00
        E 0 80 62 00
        E 0 90 62 68
        E 120 80 62 00
        E 0 90 4b 66
        E 0 90 63 66
        E 120 80 4b 00
        E 0 80 63 00
        E 0 90 63 66
        E 120 80 63 00
        E 0 90 1a 69
        E 0 90 32 69
        E 0 90 4a 69
        E 0 90 62 69
        E 0 90 6c 67
        E 120 80 1a 00
        E 0 80 32 00
        E 0 80 4a 00
        E 0 80 62 00
        E 0 80 6c 00
        E 0 90 62 69
        E 120 80 62 00
        E 0 90 4b 68
        E 0 90 63 68
        E 120 80 4b 00
        E 0 80 63 00
        E 0 90 63 68
        E 120 80 63 00
        E 0 90 34 67
        E 0 90 4c 67
        E 0 90 64 67
        E 120 80 34 00
        E 0 80 4c 00
        E 0 80 64 00
        E 0 90 64 67
        E 120 80 64 00
        E 0 90 4a 69
        E 0 90 62 69
        E 120 80 4a 00
        E 0 80 62 00
        E 0 90 62 69
        E 120 80 62 00
        E 0 90 1a 68
        E 0 90 32 68
        E 0 90 4a 68
        E 0 90 62 68
        E 0 90 6c 66
        E 120 80 1a 00
        E 0 80 32 00
        E 0 80 4a 00
        E 0 80 62 00
        E 0 80 6c 00
        E 0 90 62 68
        E 120 80 62 00
        E 0 90 4b 66
        E 0 90 63 66
        E 120 80 4b 00
        E 0 80 63 00
        E 0 90 63 66
        E 120 80 63 00
        E 0 90 34 67
        E 0 90 4c 67
        E 0 90 64 67
        E 120 80 34 00
        E 0 80 4c 00
        E 0 80 64 00
        E 0 90 64 67
        E 120 80 64 00
        E 0 90 4a 68
        E 0 90 62 68
        E 120 80 4a 00
        E 0 80 62 00
        E 0 90 62 68
        E 120 80 62 00
        E 0 90 1a 67
        E 0 90 32 67
        E 0 90 4a 67
        E 0 90 62 67
        E 0 90 6c 65
        E 0 90 74 60
        E 120 80 1a 00
        E 0 80 32 00
        E 0 80 4a 00
        E 0 80 62 00
        E 0 80 6c 00
        E 0 90 62 67
        E 120 80 62 00
        E 0 90 4b 66
        E 0 90 63 66
        E 120 80 4b 00
        E 0 80 63 00
        E 0 90 63 66
        E 120 80 63 00
        E 0 90 34 65
        E 0 90 4c 65
        E 0 90 64 65
        E 120 80 34 00
        E 0 80 4c 00
        E 0 80 64 00
        E 0 90 64 65
        E 120 80 64 00
        E 0 90 4b 66
        E 0 90 63 66
        E 120 80 4b 00
        E 0 80 63 00
        E 0 90 63 66
        E 120 80 63 00
        E 0 90 1a 66
        E 0 90 32 66
        E 0 90 4a 66
        E 0 90 62 66
        E 0 90 6c 66
        E 120 80 1a 00
        E 0 80 32 00
        E 0 80 4a 00
        E 0 80 62 00
        E 0 80 6c 00
        E 0 90 62 66
        E 120 80 62 00
        E 0 90 4b 66
        E 0 90 63 66
        E 120 80 4b 00
        E 0 80 63 00
        E 0 90 63 66
        E 120 80 63 00
        E 0 90 31 68
        E 0 90 49 68
        E 0 90 61 68
        E 120 80 31 00
        E 0 80 49 00
        E 0 80 61 00
        E 0 90 61 68
        E 120 80 61 00
        E 0 90 4b 66
        E 0 90 63 66
        E 120 80 4b 00
        E 0 80 63 00
        E 0 90 63 66
        E 120 80 74 00
        E 0 80 63 00
        E 240 90 4a 68
        E 0 90 62 68
        E 120 80 4a 00
        E 0 80 62 00
        E 0 90 62 68
        E 120 80 62 00
        E 0 90 1b 66
        E 0 90 33 66
        E 0 90 4b 66
        E 0 90 63 66
        E 120 80 1b 00
        E 0 80 33 00
        E 0 80 4b 00
        E 0 80 63 00
        E 0 90 63 66
        E 120 80 63 00
        E 0 90 4c 67
        E 0 90 64 67
        E 120 80 4c 00
        E 0 80 64 00
        E 0 90 64 67
        E 120 80 64 00
        E 240 90 4a 66
        E 0 90 62 66
        E 120 80 4a 00
        E 0 80 62 00
        E 0 90 62 66
        E 120 80 62 00
        E 0 90 1b 66
        E 0 90 33 66
        E 0 90 4b 66
        E 0 90 63 66
        E 120 80 1b 00
        E 0 80 33 00
        E 0 80 4b 00
        E 0 80 63 00
        E 0 90 63 66
        E 120 80 63 00
        E 0 90 4c 66
        E 0 90 64 66
        E 120 80 4c 00
        E 0 80 64 00
        E 0 90 64 66
        E 120 80 64 00
        E 240 90 49 69
        E 0 90 61 69
        E 0 90 6c 68
        E 120 80 49 00
        E 0 80 61 00
        E 0 80 6c 00
        E 0 90 61 69
        E 120 80 61 00
        E 0 90 1a 68
        E 0 90 32 68
        E 0 90 4a 68
        E 0 90 62 68
        E 120 80 1a 00
        E 0 80 32 00
        E 0 80 4a 00
        E 0 80 62 00
        E 0 90 62 68
        E 120 80 62 00
        E 0 90 4b 68
        E 0 90 63 68
        E 120 80 4b 00
        E 0 80 63 00
        E 0 90 63 68
        E 120 80 63 00
        E 240 90 49 69
        E 0 90 61 69
        E 0 90 6c 66
        E 120 80 49 00
        E 0 80 61 00
        E 0 80 6c 00
        E 0 90 61 69
        E 120 80 61 00
        E 0 90 1a 68
        E 0 90 32 68
        E 0 90 4a 68
        E 0 90 62 68
        E 120 80 1a 00
        E 0 80 32 00
        E 0 80 4a 00
        E 0 80 62 00
        E 0 90 62 68
        E 120 80 62 00
        E 0 90 4b 66
        E 0 90 63 66
        E 120 80 4b 00
        E 0 80 63 00
        E 0 90 63 66
        E 120 80 63 00
        E 0 90 1a 69
        E 0 90 32 69
        E 0 90 4a 69
        E 0 90 62 69
        E 0 90 6c 67
        E 120 80 1a 00
        E 0 80 32 00
        E 0 80 4a 00
        E 0 80 62 00
        E 0 80 6c 00
        E 0 90 62 69
        E 120 80 62 00
        E 0 90 4b 68
        E 0 90 63 68
        E 120 80 4b 00
        E 0 80 63 00
        E 0 90 63 68
        E 120 80 63 00
        E 0 90 34 67
        E 0 90 4c 67
        E 0 90 64 67
        E 120 80 34 00
        E 0 80 4c 00
        E 0 80 64 00
        E 0 90 64 67
        E 120 80 64 00
        E 0 90 4a 69
        E 0 90 62 69
        E 120 80 4a 00
        E 0 80 62 00
        E 0 90 62 69
        E 120 80 62 00
        E 0 90 1a 68
        E 0 90 32 68
        E 0 90 4a 68
        E 0 90 62 68
        E 0 90 6c 66
        E 120 80 1a 00
        E 0 80 32 00
        E 0 80 4a 00
        E 0 80 62 00
        E 0 80 6c 00
        E 0 90 62 68
        E 120 80 62 00
        E 0 90 4b 66
        E 0 90 63 66
        E 120 80 4b 00
        E 0 80 63 00
        E 0 90 63 66
        E 120 80 63 00
        E 0 90 34 67
        E 0 90 4c 67
        E 0 90 64 67
        E 120 80 34 00
        E 0 80 4c 00
        E 0 80 64 00
        E 0 90 64 67
        E 120 80 64 00
        E 0 90 4a 68
        E 0 90 62 68
        E 120 80 4a 00
        E 0 80 62 00
        E 0 90 62 68
        E 120 80 62 00
        E 0 90 1a 67
        E 0 90 32 67
        E 0 90 4a 67
        E 0 90 62 67
        E 0 90 6c 65
        E 120 80 1a 00
        E 0 80 32 00
        E 0 80 4a 00
        E 0 80 62 00
        E 0 80 6c 00
        E 0 90 62 67
        E 120 80 62 00
        E 0 90 4b 66
        E 0 90 63 66
        E 120 80 4b 00
        E 0 80 63 00
        E 0 90 63 66
        E 120 80 63 00
        E 0 90 34 65
        E 0 90 4c 65
        E 0 90 64 65
        E 120 80 34 00
        E 0 80 4c 00
        E 0 80 64 00
        E 0 90 64 65
        E 120 80 64 00
        E 0 90 4b 66
        E 0 90 63 66
        E 120 80 4b 00
        E 0 80 63 00
        E 0 90 63 66
        E 120 80 63 00
        E 0 90 1a 66
        E 0 90 32 66
        E 0 90 4a 66
        E 0 90 62 66
        E 0 90 6c 66
        E 120 80 1a 00
        E 0 80 32 00
        E 0 80 4a 00
        E 0 80 62 00
        E 0 80 6c 00
        E 0 90 62 66
        E 120 80 62 00
        E 0 90 4b 66
        E 0 90 63 66
        E 120 80 4b 00
        E 0 80 63 00
        E 0 90 63 66
        E 120 80 63 00
        E 0 90 31 68
        E 0 90 49 68
        E 0 90 61 68
        E 120 80 31 00
        E 0 80 49 00
        E 0 80 61 00
        E 0 90 61 68
        E 120 80 61 00
        E 0 90 4b 66
        E 0 90 63 66
        E 120 80 4b 00
        E 0 80 63 00
        E 0 90 63 66
        E 120 80 63 00
        E 240 90 48 6b
        E 0 90 60 6b
        E 0 90 6c 68
        E 120 80 48 00
        E 0 80 60 00
        E 0 80 6c 00
        E 0 90 60 6b
        E 120 80 60 00
        E 0 90 19 69
        E 0 90 31 69
        E 0 90 49 69
        E 0 90 61 69
        E 120 80 19 00
        E 0 80 31 00
        E 0 80 49 00
        E 0 80 61 00
        E 0 90 61 69
        E 120 80 61 00
        E 0 90 4a 68
        E 0 90 62 68
        E 120 80 4a 00
        E 0 80 62 00
        E 0 90 62 68
        E 120 80 62 00
        E 240 90 48 6a
        E 0 90 60 6a
        E 120 80 48 00
        E 0 80 60 00
        E 0 90 60 6a
        E 120 80 60 00
        E 0 90 19 69
        E 0 90 31 69
        E 0 90 49 69
        E 0 90 61 69
        E 120 80 19 00
        E 0 80 31 00
        E 0 80 49 00
        E 0 80 61 00
        E 0 90 61 69
        E 120 80 61 00
        E 0 90 4a 68
        E 0 90 62 68
        E 120 80 4a 00
        E 0 80 62 00
        E 0 90 62 68
        E 120 80 62 00
        E 240 90 48 69
        E 0 90 60 69
        E 120 80 48 00
        E 0 80 60 00
        E 0 90 60 69
        E 120 80 60 00
        E 0 90 19 69
        E 0 90 31 69
        E 0 90 49 69
        E 0 90 61 69
        E 120 80 19 00
        E 0 80 31 00
        E 0 80 49 00
        E 0 80 61 00
        E 0 90 61 69
        E 120 80 61 00
        E 0 90 4a 68
        E 0 90 62 68
        E 120 80 4a 00
        E 0 80 62 00
        E 0 90 62 68
        E 120 80 62 00
        E 240 90 48 68
        E 0 90 60 68
        E 0 90 6c 66
        E 120 80 48 00
        E 0 80 60 00
        E 0 80 6c 00
        E 0 90 60 68
        E 120 80 60 00
        E 0 90 31 66
        E 0 90 49 66
        E 0 90 61 66
        E 120 80 31 00
        E 0 80 49 00
        E 0 80 61 00
        E 0 90 61 66
        E 120 80 61 00
        E 0 90 4a 64
        E 0 90 62 64
        E 120 80 4a 00
        E 0 80 62 00
        E 0 90 62 64
        E 120 80 62 00
        E 0 90 1c 64
        E 0 90 34 64
        E 0 90 4c 64
        E 0 90 64 64
        E 120 80 1c 00
        E 0 80 34 00
        E 0 80 4c 00
        E 0 80 64 00
        E 120 90 4b 66
        E 0 90 63 66
        E 120 80 4b 00
        E 0 80 63 00
        E 120 90 33 64
        E 0 90 4b 64
        E 0 90 63 64
        E 120 80 33 00
        E 0 80 4b 00
        E 0 80 63 00
        E 120 90 4b 66
        E 0 90 63 66
        E 120 80 4b 00
        E 0 80 63 00
        E 120 90 1b 66
        E 0 90 33 66
        E 0 90 4b 66
        E 0 90 63 66
        E 120 80 1b 00
        E 0 80 33 00
        E 0 80 4b 00
        E 0 80 63 00
        E 120 90 4b 66
        E 0 90 63 66
        E 120 80 4b 00
        E 0 80 63 00
        E 120 90 33 64
        E 0 90 4b 64
        E 0 90 63 64
        E 120 80 33 00
        E 0 80 4b 00
        E 0 80 63 00
        E 120 90 4b 66
        E 0 90 63 66
        E 120 80 4b 00
        E 0 80 63 00
        E 120 90 1a 68
        E 0 90 32 68
        E 0 90 4a 68
        E 0 90 62 68
        E 1440 80 1a 00
        E 0 80 32 00
        E 360 80 4a 00
        E 0 80 62 00
        E 120 90 1b 6a
        E 0 90 33 6a
        E 0 90 4b 6a
        E 0 90 63 6a
        E 0 90 6c 68
        E 0 90 74 60
        E 120 80 1b 00
        E 0 80 33 00
        E 0 80 4b 00
        E 0 80 63 00
        E 0 80 6c 00
        E 0 90 63 6a
        E 120 80 63 00
        E 0 90 49 68
        E 0 90 61 68
        E 120 80 49 00
        E 0 80 61 00
        E 0 90 61 68
        E 120 80 61 00
        E 0 90 32 68
        E 0 90 4a 68
        E 0 90 62 68
        E 120 80 32 00
        E 0 80 4a 00
        E 0 80 62 00
        E 0 90 62 68
        E 120 80 62 00
        E 0 90 4b 6a
        E 0 90 63 6a
        E 120 80 4b 00
        E 0 80 63 00
        E 0 90 63 6a
        E 480 80 63 00
        E 120 90 31 68
        E 0 90 49 68
        E 0 90 61 68
        E 120 80 31 00
        E 0 80 49 00
        E 0 80 61 00
        E 0 90 61 68
        E 120 80 61 00
        E 240 90 1b 6b
        E 0 90 33 6b
        E 0 90 4b 6b
        E 0 90 63 6b
        E 0 90 6c 69
        E 120 80 1b 00
        E 0 80 33 00
        E 0 80 4b 00
        E 0 80 63 00
        E 0 80 6c 00
        E 0 90 63 6b
        E 120 80 63 00
        E 0 90 49 69
        E 0 90 61 69
        E 120 80 49 00
        E 0 80 61 00
        E 0 90 61 69
        E 120 80 61 00
        E 0 90 1a 69
        E 0 90 32 69
        E 0 90 4a 69
        E 0 90 62 69
        E 120 80 1a 00
        E 0 80 32 00
        E 0 80 4a 00
        E 0 80 62 00
        E 0 90 62 69
        E 120 80 62 00
        E 0 90 4b 6b
        E 0 90 63 6b
        E 120 80 4b 00
        E 0 80 63 00
        E 0 90 63 6b
        E 480 80 63 00
        E 120 90 31 69
        E 0 90 49 69
        E 0 90 61 69
        E 120 80 31 00
        E 0 80 49 00
        E 0 80 61 00
        E 0 90 61 69
        E 120 80 61 00
        E 240 90 1b 6a
        E 0 90 33 6a
        E 0 90 4b 6a
        E 0 90 63 6a
        E 0 90 6c 68
        E 120 80 74 00
        E 0 80 1b 00
        E 0 80 33 00
        E 0 80 4b 00
        E 0 80 63 00
        E 0 80 6c 00
        E 0 90 63 6a
        E 120 80 63 00
        E 0 90 49 68
        E 0 90 61 68
        E 120 80 49 00
        E 0 80 61 00
        E 0 90 61 68
        E 120 80 61 00
        E 0 90 32 68
        E 0 90 4a 68
        E 0 90 62 68
        E 120 80 32 00
        E 0 80 4a 00
        E 0 80 62 00
        E 0 90 62 68
        E 120 80 62 00
        E 0 90 4b 66
        E 0 90 63 66
        E 0 90 6c 66
        E 120 80 4b 00
        E 0 80 63 00
        E 0 80 6c 00
        E 0 90 63 66
        E 120 80 63 00
        E 0 90 1c 66
        E 0 90 34 66
        E 0 90 4c 66
        E 0 90 64 66
        E 120 80 1c 00
        E 0 80 34 00
        E 0 80 4c 00
        E 0 80 64 00
        E 0 90 64 66
        E 120 80 64 00
        E 0 90 49 64
        E 0 90 61 64
        E 120 80 49 00
        E 0 80 61 00
        E 0 90 61 64
        E 120 80 61 00
        E 0 90 32 66
        E 0 90 4a 66
        E 0 90 62 66
        E 120 80 32 00
        E 0 80 4a 00
        E 0 80 62 00
        E 0 90 62 66
        E 120 80 62 00
        E 0 90 4b 66
        E 0 90 63 66
        E 120 80 4b 00
        E 0 80 63 00
        E 0 90 63 66
        E 120 80 63 00
        E 0 90 1a 68
        E 0 90 32 68
        E 0 90 4a 68
        E 0 90 62 68
        E 120 80 1a 00
        E 0 80 32 00
        E 0 80 4a 00
        E 0 80 62 00
        E 0 90 62 68
        E 120 80 62 00
        E 0 90 49 64
        E 0 90 61 64
        E 120 80 49 00
        E 0 80 61 00
        E 0 90 61 64
        E 120 80 61 00
        E 0 90 32 64
        E 0 90 4a 64
        E 0 90 62 64
        E 120 80 32 00
        E 0 80 4a 00
        E 0 80 62 00
        E 0 90 62 64
        E 120 80 62 00
        E 0 90 4a 68
        E 0 90 62 68
        E 120 80 4a 00
        E 0 80 62 00
        E 0 90 62 68
        E 120 80 62 00
        E 0 90 1b 66
        E 0 90 33 66
        E 0 90 4b 66
        E 0 90 63 66
        E 120 80 1b 00
        E 0 80 33 00
        E 0 80 4b 00
        E 0 80 63 00
        E 0 90 63 66
        E 120 80 63 00
        E 0 90 4a 64
        E 0 90 62 64
        E 120 80 4a 00
        E 0 80 62 00
        E 0 90 62 64
        E 120 80 62 00
        E 0 90 32 68
        E 0 90 4a 68
        E 0 90 62 68
        E 120 80 32 00
        E 0 80 4a 00
        E 0 80 62 00
        E 0 90 62 68
        E 120 80 62 00
        E 0 90 4b 66
        E 0 90 63 66
        E 120 80 4b 00
        E 0 80 63 00
        E 120 90 1d 6b
        E 0 90 35 6b
        E 0 90 4d 6b
        E 0 90 65 6b
        E 0 90 6c 6b
        E 120 80 1d 00
        E 0 80 35 00
        E 0 80 4d 00
        E 0 80 65 00
        E 0 80 6c 00
        E 0 90 65 6b
        E 120 80 65 00
        E 0 90 4c 6c
        E 0 90 64 6c
        E 120 80 4c 00
        E 0 80 64 00
        E 0 90 64 6c
        E 120 80 64 00
        E 0 90 33 6b
        E 0 90 4b 6b
        E 0 90 63 6b
        E 120 80 33 00
        E 0 80 4b 00
        E 0 80 63 00
        E 0 90 63 6b
        E 120 80 63 00
        E 0 90 4c 6c
        E 0 90 64 6c
        E 120 80 4c 00
        E 0 80 64 00
        E 0 90 64 6c
        E 120 80 64 00
        E 0 90 1d 69
        E 0 90 35 69
        E 0 90 4d 69
        E 0 90 65 69
        E 0 90 6c 69
        E 120 80 1d 00
        E 0 80 35 00
        E 0 80 4d 00
        E 0 80 65 00
        E 0 80 6c 00
        E 0 90 65 69
        E 120 80 65 00
        E 0 90 4c 6b
        E 0 90 64 6b
        E 120 80 4c 00
        E 0 80 64 00
        E 0 90 64 6b
        E 120 80 64 00
        E 0 90 33 6b
        E 0 90 4b 6b
        E 0 90 63 6b
        E 120 80 33 00
        E 0 80 4b 00
        E 0 80 63 00
        E 0 90 63 6b
        E 120 80 63 00
        E 240 90 1d 67
        E 0 90 35 67
        E 0 90 4d 67
        E 0 90 65 67
        E 0 90 6c 67
        E 120 80 1d 00
        E 0 80 35 00
        E 0 80 4d 00
        E 0 80 65 00
        E 0 80 6c 00
        E 0 90 65 67
        E 120 80 65 00
        E 0 90 4c 67
        E 0 90 64 67
        E 120 80 4c 00
        E 0 80 64 00
        E 0 90 64 67
        E 120 80 64 00
        E 0 90 33 68
        E 0 90 4b 68
        E 0 90 63 68
        E 120 80 33 00
        E 0 80 4b 00
        E 0 80 63 00
        E 0 90 63 68
        E 120 80 63 00
        E 0 90 4c 67
        E 0 90 64 67
        E 120 80 4c 00
        E 0 80 64 00
        E 0 90 64 67
        E 120 80 64 00
        E 0 90 1d 69
        E 0 90 35 69
        E 0 90 4d 69
        E 0 90 65 69
        E 0 90 6c 69
        E 120 80 1d 00
        E 0 80 35 00
        E 0 80 4d 00
        E 0 80 65 00
        E 0 80 6c 00
        E 0 90 65 69
        E 120 80 65 00
        E 0 90 4c 6b
        E 0 90 64 6b
        E 120 80 4c 00
        E 0 80 64 00
        E 0 90 64 6b
        E 120 80 64 00
        E 0 90 33 6b
        E 0 90 4b 6b
        E 0 90 63 6b
        E 120 80 33 00
        E 0 80 4b 00
        E 0 80 63 00
        E 0 90 63 6b
        E 120 80 63 00
        E 240 90 1d 6b
        E 0 90 35 6b
        E 0 90 4d 6b
        E 0 90 65 6b
        E 0 90 6c 6b
        E 120 80 1d 00
        E 0 80 35 00
        E 0 80 4d 00
        E 0 80 65 00
        E 0 80 6c 00
        E 0 90 65 6b
        E 120 80 65 00
        E 0 90 4c 6c
        E 0 90 64 6c
        E 120 80 4c 00
        E 0 80 64 00
        E 0 90 64 6c
        E 120 80 64 00
        E 0 90 33 6b
        E 0 90 4b 6b
        E 0 90 63 6b
        E 120 80 33 00
        E 0 80 4b 00
        E 0 80 63 00
        E 0 90 63 6b
        E 120 80 63 00
        E 0 90 4c 6c
        E 0 90 64 6c
        E 120 80 4c 00
        E 0 80 64 00
        E 0 90 64 6c
        E 120 80 64 00
        E 0 90 1d 69
        E 0 90 35 69
        E 0 90 4d 69
        E 0 90 65 69
        E 0 90 6c 69
        E 120 80 1d 00
        E 0 80 35 00
        E 0 80 4d 00
        E 0 80 65 00
        E 0 80 6c 00
        E 0 90 65 69
        E 120 80 65 00
        E 0 90 4c 6b
        E 0 90 64 6b
        E 120 80 4c 00
        E 0 80 64 00
        E 0 90 64 6b
        E 120 80 64 00
        E 0 90 33 6b
        E 0 90 4b 6b
        E 0 90 63 6b
        E 120 80 33 00
        E 0 80 4b 00
        E 0 80 63 00
        E 0 90 63 6b
        E 120 80 63 00
        E 240 90 1d 6b
        E 0 90 35 6b
        E 0 90 4d 6b
        E 0 90 65 6b
        E 0 90 6c 6b
        E 120 80 1d 00
        E 0 80 35 00
        E 0 80 4d 00
        E 0 80 65 00
        E 0 80 6c 00
        E 120 90 35 6b
        E 0 90 4d 6b
        E 0 90 65 6b
        E 120 80 35 00
        E 0 80 4d 00
        E 0 80 65 00
        E 120 90 1d 6b
        E 0 90 35 6b
        E 0 90 4d 6b
        E 0 90 65 6b
        E 120 80 1d 00
        E 0 80 35 00
        E 0 80 4d 00
        E 0 80 65 00
        E 120 90 4d 6b
        E 0 90 65 6b
        E 120 80 4d 00
        E 0 80 65 00
        E 120 90 1d 6e
        E 0 90 35 6e
        E 0 90 4d 6e
        E 0 90 65 6e
        E 120 80 1d 00
        E 0 80 35 00
        E 0 80 4d 00
        E 0 80 65 00
        E 120 90 4c 6c
        E 0 90 64 6c
        E 360 80 4c 00
        E 0 80 64 00
        E 120 90 34 6b
        E 0 90 4c 6b
        E 0 90 64 6b
        E 1680 80 34 00
        E 240 80 4c 00
        E 0 80 64 00
        E 240 90 1a 64
        E 0 90 32 64
        E 0 90 4a 64
        E 0 90 62 64
        E 0 90 6c 66
        E 120 80 1a 00
        E 0 80 32 00
        E 0 80 4a 00
        E 0 80 62 00
        E 0 80 6c 00
        E 120 90 4b 64
        E 0 90 63 64
        E 120 80 4b 00
        E 0 80 63 00
        E 120 90 34 64
        E 0 90 4c 64
        E 0 90 64 64
        E 120 80 34 00
        E 0 80 4c 00
        E 0 80 64 00
        E 120 90 4a 66
        E 0 90 62 66
        E 360 80 4a 00
        E 0 80 62 00
        E 120 90 1a 68
        E 0 90 32 68
        E 0 90 4a 68
        E 0 90 62 68
        E 120 80 1a 00
        E 0 80 32 00
        E 240 80 4a 00
        E 0 80 62 00
        E 120 90 32 68
        E 0 90 4a 68
        E 0 90 62 68
        E 120 80 32 00
        E 0 80 4a 00
        E 0 80 62 00
        E 120 90 1a 68
        E 0 90 32 68
        E 0 90 4a 68
        E 0 90 62 68
        E 120 80 1a 00
        E 0 80 32 00
        E 0 80 4a 00
        E 0 80 62 00
        E 120 90 32 68
        E 0 90 4a 68
        E 0 90 62 68
        E 120 80 32 00
        E 240 80 4a 00
        E 0 80 62 00
        E 120 90 32 64
        E 0 90 4a 64
        E 0 90 62 64
        E 720 80 32 00
        E 240 80 4a 00
        E 0 80 62 00
        E 240 90 1a 64
        E 0 90 32 64
        E 0 90 4a 64
        E 0 90 62 64
        E 120 80 1a 00
        E 0 80 32 00
        E 0 80 4a 00
        E 0 80 62 00
        E 120 90 4b 64
        E 0 90 63 64
        E 120 80 4b 00
        E 0 80 63 00
        E 120 90 34 64
        E 0 90 4c 64
        E 0 90 64 64
        E 120 80 34 00
        E 0 80 4c 00
        E 0 80 64 00
        E 120 90 4a 66
        E 0 90 62 66
        E 360 80 4a 00
        E 0 80 62 00
        E 120 90 1a 68
        E 0 90 32 68
        E 0 90 4a 68
        E 0 90 62 68
        E 120 80 1a 00
        E 0 80 32 00
        E 240 80 4a 00
        E 0 80 62 00
        E 120 90 32 68
        E 0 90 4a 68
        E 0 90 62 68
        E 1680 80 32 00
        E 240 80 4a 00
        E 0 80 62 00
        E 240 90 1a 64
        E 0 90 32 64
        E 0 90 4a 64
        E 0 90 62 64
        E 120 80 1a 00
        E 0 80 32 00
        E 0 80 4a 00
        E 0 80 62 00
        E 120 90 4b 64
        E 0 90 63 64
        E 120 80 4b 00
        E 0 80 63 00
        E 120 90 34 64
        E 0 90 4c 64
        E 0 90 64 64
        E 120 80 34 00
        E 0 80 4c 00
        E 0 80 64 00
        E 120 90 4a 66
        E 0 90 62 66
        E 360 80 4a 00
        E 0 80 62 00
        E 120 90 1a 68
        E 0 90 32 68
        E 0 90 4a 68
        E 0 90 62 68
        E 120 80 1a 00
        E 0 80 32 00
        E 240 80 4a 00
        E 0 80 62 00
        E 120 90 32 68
        E 0 90 4a 68
        E 0 90 62 68
        E 120 80 32 00
        E 0 80 4a 00
        E 0 80 62 00
        E 120 90 1a 68
        E 0 90 32 68
        E 0 90 4a 68
        E 0 90 62 68
        E 120 80 1a 00
        E 0 80 32 00
        E 0 80 4a 00
        E 0 80 62 00
        E 120 90 32 68
        E 0 90 4a 68
        E 0 90 62 68
        E 120 80 32 00
        E 240 80 4a 00
        E 0 80 62 00
        E 120 90 32 64
        E 0 90 4a 64
        E 0 90 62 64
        E 720 80 32 00
        E 240 80 4a 00
        E 0 80 62 00
        E 240 90 1a 64
        E 0 90 32 64
        E 0 90 4a 64
        E 0 90 62 64
        E 120 80 1a 00
        E 0 80 32 00
        E 0 80 4a 00
        E 0 80 62 00
        E 120 90 4b 64
        E 0 90 63 64
        E 120 80 4b 00
        E 0 80 63 00
        E 120 90 34 64
        E 0 90 4c 64
        E 0 90 64 64
        E 120 80 34 00
        E 0 80 4c 00
        E 0 80 64 00
        E 120 90 4a 66
        E 0 90 62 66
        E 360 80 4a 00
        E 0 80 62 00
        E 120 90 1a 68
        E 0 90 32 68
        E 0 90 4a 68
        E 0 90 62 68
        E 120 80 1a 00
        E 0 80 32 00
        E 240 80 4a 00
        E 0 80 62 00
        E 120 90 32 68
        E 0 90 4a 68
        E 0 90 62 68
        E 1920 80 32 00
        E 0 80 4a 00
        E 0 80 62 00
        E 2159 b0 7b 00
        GUID {4BC4B05A-503F-4C93-9D6F-D09F9AF3DA3D}
        IGNTEMPO 0 120.00000000 4 4
        SRCCOLOR 14
        VELLANE 132 128 60
        COLORMAP "C:\Program Files\REAPER (x64)\Data\color_maps\rockband_guitarbass.png"
        CFGEDITVIEW -7114.087266 9.234372 7 12 0 0 0
        CFGEDIT 1 1 0 1 1 0 1 1 1 1 1 0.25000000 -8 -8 1544 872 0 2 1 1 0.00000000 0 1 0 0 0.500000 0 0 1.000000 64
        KEYSNAP 0 6 "102030050700" 0 "Pentatonic"
        EVTFILTER 0 -1 -1 -1 -1 0 1 0 0 -1.00000000 -1.00000000
      >
    >
  >
  <TRACK '{41725B0C-68B6-40A3-8D80-73202BF66192}'
    NAME "EVENTS"
    PEAKCOL 16576
    BEAT -1
    AUTOMODE 0
    VOLPAN 1.00000000000000 0.00000000000000 -1.00000000000000 -1.00000000000000 1.00000000000000
    MUTESOLO 0 0 0
    IPHASE 0
    ISBUS 0 0
    BUSCOMP 0 0
    SHOWINMIX 1 0.666700 0.500000 1 0.500000 -1 -1 -1
    FREEMODE 0
    SEL 0
    REC 0 0 0 0 0 0 0
    VU 2
    TRACKHEIGHT 0 0
    INQ 0 0 0 0.5000000000 100 0 0 100
    NCHAN 2
    FX 1
    TRACKID {41725B0C-68B6-40A3-8D80-73202BF66192}
    PERF 0
    MIDIOUT -1
    <MIDINOTENAMES
      0 26 "Hi-Hat"
      0 25 "Snare"
      0 24 "Kick"
    >
    MAINSEND 1 0
    <FXCHAIN
      SHOW 0
      LASTSEL 0
      DOCKED 0
    >
    <ITEM
      POSITION 0.00000000000000
      SNAPOFFS 0.00000000000000
      LENGTH 121.61000000000000
      LOOP 0
      ALLTAKES 0
      SEL 0
      FADEIN 1 0.000000 0.000000 1 0
      FADEOUT 1 0.000000 0.000000 1 0
      MUTE 0
      IGUID {BFC63E4A-6355-46A9-99C6-78B2872EDF70}
      IID 14
      NAME "EVENTS"
      VOLPAN 1.000000 0.000000 1.000000 -1.000000
      SOFFS 0.00000000000000 0.00000000000000
      PLAYRATE 1.00000000000000 1 0.00000000000000 -1
      CHANMODE 0
      GUID {747963DE-3727-4515-8E0E-5385811332EB}
      <SOURCE MIDI
        HASDATA 1 480 QN
        POOLEDEVTS {66C0C7B1-5673-4046-BDAC-1E49AB622956}
        <X 0 0
          /wNFVkVOVFM=
        >
        E 0 90 1a 60
        E 120 80 1a 00
        E 840 90 1a 60
        E 120 80 1a 00
        E 840 90 1a 60
        E 120 80 1a 00
        E 360 90 1a 60
        E 120 80 1a 00
        E 360 90 1a 60
        E 120 80 1a 00
        E 360 90 1a 60
        E 120 80 1a 00
        <X 360 0
          /wFbcHJjX2ludHJvXQ==
        >
        E 0 90 18 60
        E 0 90 1a 60
        E 120 80 18 00
        E 0 80 1a 00
        E 120 90 1a 60
        E 120 80 1a 00
        E 120 90 1a 60
        E 120 80 1a 00
        E 120 90 18 60
        E 0 90 1a 60
        E 120 80 18 00
        E 0 80 1a 00
        <X 120 0
          /wFbY3Jvd2Rfbm9ybWFsXQ==
        >
        <X 0 0
          /wFbbXVzaWNfc3RhcnRd
        >
        E 240 90 1a 60
        E 120 80 1a 00
        E 360 90 1a 60
        E 120 80 1a 00
        E 120 90 18 60
        E 0 90 1a 60
        E 120 80 18 00
        E 0 80 1a 00
        E 120 90 1a 60
        E 120 80 1a 00
        E 120 90 1a 60
        E 120 80 1a 00
        E 120 90 18 60
        E 0 90 1a 60
        E 120 80 18 00
        E 0 80 1a 00
        E 360 90 1a 60
        E 120 80 1a 00
        E 360 90 1a 60
        E 120 80 1a 00
        E 120 90 18 60
        E 0 90 1a 60
        E 120 80 18 00
        E 0 80 1a 00
        E 120 90 1a 60
        E 120 80 1a 00
        E 120 90 1a 60
        E 120 80 1a 00
        E 120 90 18 60
        E 0 90 1a 60
        E 120 80 18 00
        E 0 80 1a 00
        E 360 90 18 60
        E 0 90 1a 60
        E 120 80 18 00
        E 0 80 1a 00
        E 360 90 18 60
        E 0 90 1a 60
        E 120 80 18 00
        E 0 80 1a 00
        E 360 90 1a 60
        E 120 80 1a 00
        E 120 90 1a 60
        E 120 80 1a 00
        E 360 90 19 60
        E 120 80 19 00
        E 0 90 19 60
        E 120 80 19 00
        E 0 90 18 60
        E 120 80 18 00
        E 120 90 19 60
        E 120 80 19 00
        E 120 90 18 60
        E 120 80 18 00
        <X 120 0
          /wFbcHJjX2ExXQ==
        >
        E 0 90 18 60
        E 120 80 18 00
        E 120 90 1a 60
        E 120 80 1a 00
        E 120 90 19 60
        E 120 80 19 00
        E 120 90 1a 60
        E 120 80 1a 00
        E 0 90 18 60
        E 120 80 18 00
        E 0 90 18 60
        E 120 80 18 00
        E 120 90 18 60
        E 0 90 1a 60
        E 120 80 18 00
        E 0 80 1a 00
        E 120 90 19 60
        E 120 80 19 00
        E 120 90 1a 60
        E 120 80 1a 00
        E 0 90 1a 60
        E 120 80 1a 00
        E 0 90 18 60
        E 120 80 18 00
        E 120 90 1a 60
        E 120 80 1a 00
        E 120 90 19 60
        E 120 80 19 00
        E 120 90 1a 60
        E 120 80 1a 00
        E 0 90 18 60
        E 120 80 18 00
        E 0 90 18 60
        E 120 80 18 00
        E 120 90 18 60
        E 0 90 1a 60
        E 120 80 18 00
        E 0 80 1a 00
        E 120 90 19 60
        E 120 80 19 00
        E 120 90 1a 60
        E 120 80 1a 00
        E 0 90 1a 60
        E 120 80 1a 00
        E 0 90 18 60
        E 120 80 18 00
        E 120 90 1a 60
        E 120 80 1a 00
        E 120 90 19 60
        E 120 80 19 00
        E 120 90 1a 60
        E 120 80 1a 00
        E 0 90 18 60
        E 120 80 18 00
        E 0 90 18 60
        E 120 80 18 00
        E 120 90 18 60
        E 0 90 1a 60
        E 120 80 18 00
        E 0 80 1a 00
        E 120 90 19 60
        E 120 80 19 00
        E 120 90 1a 60
        E 120 80 1a 00
        E 0 90 1a 60
        E 120 80 1a 00
        E 0 90 18 60
        E 120 80 18 00
        E 120 90 1a 60
        E 120 80 1a 00
        E 120 90 19 60
        E 120 80 19 00
        E 120 90 1a 60
        E 120 80 1a 00
        E 0 90 18 60
        E 120 80 18 00
        E 0 90 18 60
        E 120 80 18 00
        E 120 90 18 60
        E 0 90 1a 60
        E 120 80 18 00
        E 0 80 1a 00
        E 120 90 19 60
        E 120 80 19 00
        E 120 90 1a 60
        E 120 80 1a 00
        E 0 90 1a 60
        E 120 80 1a 00
        E 0 90 18 60
        E 120 80 18 00
        E 120 90 1a 60
        E 120 80 1a 00
        E 120 90 19 60
        E 120 80 19 00
        E 120 90 1a 60
        E 120 80 1a 00
        E 0 90 18 60
        E 120 80 18 00
        E 0 90 18 60
        E 120 80 18 00
        E 120 90 18 60
        E 0 90 1a 60
        E 120 80 18 00
        E 0 80 1a 00
        E 120 90 19 60
        E 120 80 19 00
        E 120 90 1a 60
        E 120 80 1a 00
        E 0 90 1a 60
        E 120 80 1a 00
        E 0 90 18 60
        E 120 80 18 00
        E 120 90 1a 60
        E 120 80 1a 00
        E 120 90 19 60
        E 120 80 19 00
        E 120 90 1a 60
        E 120 80 1a 00
        E 0 90 18 60
        E 120 80 18 00
        E 0 90 18 60
        E 120 80 18 00
        E 120 90 18 60
        E 0 90 1a 60
        E 120 80 18 00
        E 0 80 1a 00
        E 120 90 19 60
        E 120 80 19 00
        E 120 90 1a 60
        E 120 80 1a 00
        E 0 90 1a 60
        E 120 80 1a 00
        E 0 90 18 60
        E 120 80 18 00
        E 120 90 1a 60
        E 120 80 1a 00
        E 120 90 19 60
        E 120 80 19 00
        E 120 90 1a 60
        E 120 80 1a 00
        E 0 90 18 60
        E 120 80 18 00
        E 0 90 18 60
        E 120 80 18 00
        E 120 90 18 60
        E 0 90 1a 60
        E 120 80 18 00
        E 0 80 1a 00
        E 120 90 19 60
        E 120 80 19 00
        E 120 90 1a 60
        E 120 80 1a 00
        E 0 90 1a 60
        E 120 80 1a 00
        E 0 90 18 60
        E 120 80 18 00
        E 120 90 1a 60
        E 120 80 1a 00
        E 120 90 19 60
        E 120 80 19 00
        E 120 90 1a 60
        E 120 80 1a 00
        E 0 90 18 60
        E 120 80 18 00
        E 0 90 18 60
        E 120 80 18 00
        E 120 90 18 60
        E 0 90 1a 60
        E 120 80 18 00
        E 0 80 1a 00
        E 120 90 19 60
        E 120 80 19 00
        E 120 90 1a 60
        E 120 80 1a 00
        E 0 90 1a 60
        <X 120 0
          /wFbcHJjX2IxXQ==
        >
        E 0 80 1a 00
        E 0 90 18 60
        E 0 90 1a 60
        E 120 80 18 00
        E 0 80 1a 00
        E 120 90 1a 60
        E 120 80 1a 00
        E 120 90 19 60
        E 0 90 1a 60
        E 120 80 19 00
        E 0 80 1a 00
        E 120 90 18 60
        E 0 90 1a 60
        E 120 80 18 00
        E 0 80 1a 00
        E 120 90 18 60
        E 0 90 1a 60
        E 120 80 18 00
        E 0 80 1a 00
        E 120 90 1a 60
        E 120 80 1a 00
        E 120 90 19 60
        E 0 90 1a 60
        E 120 80 19 00
        E 0 80 1a 00
        E 120 90 1a 60
        E 120 80 1a 00
        E 120 90 18 60
        E 0 90 1a 60
        E 120 80 18 00
        E 0 80 1a 00
        E 120 90 1a 60
        E 120 80 1a 00
        E 120 90 19 60
        E 0 90 1a 60
        E 120 80 19 00
        E 0 80 1a 00
        E 120 90 18 60
        E 0 90 1a 60
        E 120 80 18 00
        E 0 80 1a 00
        E 120 90 18 60
        E 0 90 1a 60
        E 120 80 18 00
        E 0 80 1a 00
        E 120 90 1a 60
        E 120 80 1a 00
        E 120 90 19 60
        E 0 90 1a 60
        E 120 80 19 00
        E 0 80 1a 00
        E 120 90 1a 60
        E 120 80 1a 00
        E 120 90 18 60
        E 0 90 1a 60
        E 120 80 18 00
        E 0 80 1a 00
        E 120 90 1a 60
        E 120 80 1a 00
        E 120 90 19 60
        E 0 90 1a 60
        E 120 80 19 00
        E 0 80 1a 00
        E 120 90 18 60
        E 0 90 1a 60
        E 120 80 18 00
        E 0 80 1a 00
        E 120 90 18 60
        E 0 90 1a 60
        E 120 80 18 00
        E 0 80 1a 00
        E 120 90 1a 60
        E 120 80 1a 00
        E 120 90 19 60
        E 0 90 1a 60
        E 120 80 19 00
        E 0 80 1a 00
        E 120 90 1a 60
        E 120 80 1a 00
        E 120 90 18 60
        E 0 90 1a 60
        E 120 80 18 00
        E 0 80 1a 00
        E 120 90 1a 60
        E 120 80 1a 00
        E 120 90 19 60
        E 0 90 1a 60
        E 120 80 19 00
        E 0 80 1a 00
        E 120 90 18 60
        E 0 90 1a 60
        E 120 80 18 00
        E 0 80 1a 00
        E 120 90 19 60
        E 120 80 19 00
        E 0 90 19 60
        E 120 80 19 00
        E 0 90 19 60
        E 120 80 19 00
        E 120 90 19 60
        E 120 80 19 00
        E 120 90 19 60
        E 120 80 19 00
        <X 120 0
          /wFbcHJjX2MxXQ==
        >
        E 0 90 18 60
        E 0 90 1a 60
        E 120 80 18 00
        E 0 80 1a 00
        E 120 90 1a 60
        E 120 80 1a 00
        E 120 90 19 60
        E 0 90 1a 60
        E 120 80 19 00
        E 0 80 1a 00
        E 120 90 18 60
        E 0 90 1a 60
        E 120 80 18 00
        E 0 80 1a 00
        E 360 90 19 60
        E 0 90 1a 60
        E 120 80 19 00
        E 0 80 1a 00
        E 120 90 19 60
        E 0 90 1a 60
        E 120 80 19 00
        E 0 80 1a 00
        E 360 90 18 60
        E 0 90 1a 60
        E 120 80 18 00
        E 0 80 1a 00
        E 120 90 1a 60
        E 120 80 1a 00
        E 120 90 19 60
        E 0 90 1a 60
        E 120 80 19 00
        E 0 80 1a 00
        E 120 90 18 60
        E 0 90 1a 60
        E 120 80 18 00
        E 0 80 1a 00
        E 360 90 19 60
        E 0 90 1a 60
        E 120 80 19 00
        E 0 80 1a 00
        E 120 90 19 60
        E 0 90 1a 60
        E 120 80 19 00
        E 0 80 1a 00
        E 360 90 18 60
        E 0 90 1a 60
        E 120 80 18 00
        E 0 80 1a 00
        E 120 90 1a 60
        E 120 80 1a 00
        E 120 90 19 60
        E 0 90 1a 60
        E 120 80 19 00
        E 0 80 1a 00
        E 120 90 18 60
        E 0 90 1a 60
        E 120 80 18 00
        E 0 80 1a 00
        E 120 90 18 60
        E 0 90 1a 60
        E 120 80 18 00
        E 0 80 1a 00
        E 120 90 1a 60
        E 120 80 1a 00
        E 120 90 19 60
        E 0 90 1a 60
        E 120 80 19 00
        E 0 80 1a 00
        E 120 90 1a 60
        E 120 80 1a 00
        E 120 90 18 60
        E 0 90 1a 60
        E 120 80 18 00
        E 0 80 1a 00
        E 120 90 1a 60
        E 120 80 1a 00
        E 120 90 19 60
        E 0 90 1a 60
        E 120 80 19 00
        E 0 80 1a 00
        E 120 90 18 60
        E 0 90 1a 60
        E 120 80 18 00
        E 0 80 1a 00
        E 120 90 18 60
        E 0 90 1a 60
        E 120 80 18 00
        E 0 80 1a 00
        E 120 90 19 60
        E 120 80 19 00
        E 120 90 19 60
        E 120 80 19 00
        E 120 90 1a 60
        E 120 80 1a 00
        E 120 90 18 60
        E 0 90 1a 60
        E 120 80 18 00
        E 0 80 1a 00
        E 120 90 1a 60
        E 120 80 1a 00
        E 120 90 19 60
        E 0 90 1a 60
        E 120 80 19 00
        E 0 80 1a 00
        E 120 90 18 60
        E 0 90 1a 60
        E 120 80 18 00
        E 0 80 1a 00
        E 120 90 18 60
        E 0 90 1a 60
        E 120 80 18 00
        E 0 80 1a 00
        E 120 90 1a 60
        E 120 80 1a 00
        E 120 90 19 60
        E 0 90 1a 60
        E 120 80 19 00
        E 0 80 1a 00
        E 120 90 1a 60
        E 120 80 1a 00
        E 120 90 18 60
        E 0 90 1a 60
        E 120 80 18 00
        E 0 80 1a 00
        E 120 90 1a 60
        E 120 80 1a 00
        E 120 90 19 60
        E 0 90 1a 60
        E 120 80 19 00
        E 0 80 1a 00
        E 120 90 18 60
        E 0 90 1a 60
        E 120 80 18 00
        E 0 80 1a 00
        E 120 90 18 60
        E 0 90 1a 60
        E 120 80 18 00
        E 0 80 1a 00
        E 120 90 1a 60
        E 120 80 1a 00
        E 120 90 19 60
        E 0 90 1a 60
        E 120 80 19 00
        E 0 80 1a 00
        E 120 90 1a 60
        E 120 80 1a 00
        E 120 90 18 60
        E 0 90 1a 60
        E 120 80 18 00
        E 0 80 1a 00
        E 120 90 1a 60
        E 120 80 1a 00
        E 120 90 19 60
        E 0 90 1a 60
        E 120 80 19 00
        E 0 80 1a 00
        E 120 90 18 60
        E 0 90 1a 60
        E 120 80 18 00
        E 0 80 1a 00
        E 120 90 18 60
        E 0 90 1a 60
        E 120 80 18 00
        E 0 80 1a 00
        E 120 90 1a 60
        E 120 80 1a 00
        E 120 90 19 60
        E 0 90 1a 60
        E 120 80 19 00
        E 0 80 1a 00
        E 120 90 1a 60
        E 120 80 1a 00
        E 120 90 18 60
        E 0 90 1a 60
        E 120 80 18 00
        E 0 80 1a 00
        E 120 90 1a 60
        E 120 80 1a 00
        E 120 90 19 60
        E 0 90 1a 60
        E 120 80 19 00
        E 0 80 1a 00
        E 120 90 18 60
        E 0 90 1a 60
        E 120 80 18 00
        E 0 80 1a 00
        E 120 90 18 60
        E 0 90 1a 60
        E 120 80 18 00
        E 0 80 1a 00
        E 120 90 1a 60
        E 120 80 1a 00
        E 120 90 19 60
        E 0 90 1a 60
        E 120 80 19 00
        E 0 80 1a 00
        E 120 90 1a 60
        E 120 80 1a 00
        E 120 90 18 60
        E 0 90 1a 60
        E 120 80 18 00
        E 0 80 1a 00
        E 120 90 1a 60
        E 120 80 1a 00
        E 120 90 19 60
        E 0 90 1a 60
        E 120 80 19 00
        E 0 80 1a 00
        E 120 90 18 60
        E 0 90 1a 60
        E 120 80 18 00
        E 0 80 1a 00
        E 120 90 18 60
        E 0 90 1a 60
        E 120 80 18 00
        E 0 80 1a 00
        E 120 90 1a 60
        E 120 80 1a 00
        E 120 90 19 60
        E 120 80 19 00
        E 0 90 19 60
        E 120 80 19 00
        E 0 90 19 60
        E 120 80 19 00
        <X 120 0
          /wFbcHJjX2EyXQ==
        >
        E 0 90 18 60
        E 120 80 18 00
        E 120 90 1a 60
        E 120 80 1a 00
        E 120 90 19 60
        E 120 80 19 00
        E 120 90 1a 60
        E 120 80 1a 00
        E 0 90 18 60
        E 120 80 18 00
        E 0 90 18 60
        E 120 80 18 00
        E 120 90 18 60
        E 0 90 1a 60
        E 120 80 18 00
        E 0 80 1a 00
        E 120 90 19 60
        E 120 80 19 00
        E 120 90 1a 60
        E 120 80 1a 00
        E 0 90 1a 60
        E 120 80 1a 00
        E 0 90 18 60
        E 120 80 18 00
        E 120 90 1a 60
        E 120 80 1a 00
        E 120 90 19 60
        E 120 80 19 00
        E 120 90 1a 60
        E 120 80 1a 00
        E 0 90 18 60
        E 120 80 18 00
        E 0 90 18 60
        E 120 80 18 00
        E 120 90 18 60
        E 0 90 1a 60
        E 120 80 18 00
        E 0 80 1a 00
        E 120 90 19 60
        E 120 80 19 00
        E 120 90 1a 60
        E 120 80 1a 00
        E 0 90 1a 60
        E 120 80 1a 00
        E 0 90 18 60
        E 120 80 18 00
        E 120 90 1a 60
        E 120 80 1a 00
        E 120 90 19 60
        E 120 80 19 00
        E 120 90 1a 60
        E 120 80 1a 00
        E 0 90 18 60
        E 120 80 18 00
        E 0 90 18 60
        E 120 80 18 00
        E 120 90 18 60
        E 0 90 1a 60
        E 120 80 18 00
        E 0 80 1a 00
        E 120 90 19 60
        E 120 80 19 00
        E 120 90 1a 60
        E 120 80 1a 00
        E 0 90 1a 60
        E 120 80 1a 00
        E 0 90 18 60
        E 120 80 18 00
        E 120 90 1a 60
        E 120 80 1a 00
        E 120 90 19 60
        E 120 80 19 00
        E 120 90 1a 60
        E 120 80 1a 00
        E 0 90 18 60
        E 120 80 18 00
        E 0 90 18 60
        E 120 80 18 00
        E 120 90 18 60
        E 0 90 1a 60
        E 120 80 18 00
        E 0 80 1a 00
        E 120 90 19 60
        E 120 80 19 00
        E 120 90 1a 60
        E 120 80 1a 00
        E 0 90 1a 60
        E 120 80 1a 00
        E 0 90 18 60
        E 120 80 18 00
        E 120 90 1a 60
        E 120 80 1a 00
        E 120 90 19 60
        E 120 80 19 00
        E 120 90 1a 60
        E 120 80 1a 00
        E 0 90 18 60
        E 120 80 18 00
        E 0 90 18 60
        E 120 80 18 00
        E 120 90 18 60
        E 0 90 1a 60
        E 120 80 18 00
        E 0 80 1a 00
        E 120 90 19 60
        E 120 80 19 00
        E 120 90 1a 60
        E 120 80 1a 00
        E 0 90 1a 60
        E 120 80 1a 00
        E 0 90 18 60
        E 120 80 18 00
        E 120 90 1a 60
        E 120 80 1a 00
        E 120 90 19 60
        E 120 80 19 00
        E 120 90 1a 60
        E 120 80 1a 00
        E 0 90 18 60
        E 120 80 18 00
        E 0 90 18 60
        E 120 80 18 00
        E 120 90 18 60
        E 0 90 1a 60
        E 120 80 18 00
        E 0 80 1a 00
        E 120 90 19 60
        E 120 80 19 00
        E 120 90 1a 60
        E 120 80 1a 00
        E 0 90 1a 60
        E 120 80 1a 00
        E 0 90 18 60
        E 120 80 18 00
        E 120 90 1a 60
        E 120 80 1a 00
        E 120 90 19 60
        E 120 80 19 00
        E 120 90 1a 60
        E 120 80 1a 00
        E 0 90 18 60
        E 120 80 18 00
        E 0 90 18 60
        E 120 80 18 00
        E 120 90 18 60
        E 0 90 1a 60
        E 120 80 18 00
        E 0 80 1a 00
        E 120 90 19 60
        E 120 80 19 00
        E 120 90 1a 60
        E 120 80 1a 00
        E 0 90 1a 60
        E 120 80 1a 00
        E 0 90 18 60
        E 120 80 18 00
        E 120 90 1a 60
        E 120 80 1a 00
        E 120 90 19 60
        E 120 80 19 00
        E 120 90 1a 60
        E 120 80 1a 00
        E 0 90 18 60
        E 120 80 18 00
        E 0 90 18 60
        E 120 80 18 00
        E 120 90 18 60
        E 0 90 1a 60
        E 120 80 18 00
        E 0 80 1a 00
        E 120 90 19 60
        E 120 80 19 00
        E 120 90 1a 60
        E 120 80 1a 00
        E 0 90 1a 60
        <X 120 0
          /wFbcHJjX2IyXQ==
        >
        E 0 80 1a 00
        E 0 90 18 60
        E 0 90 1a 60
        E 120 80 18 00
        E 0 80 1a 00
        E 120 90 1a 60
        E 120 80 1a 00
        E 120 90 19 60
        E 0 90 1a 60
        E 120 80 19 00
        E 0 80 1a 00
        E 120 90 18 60
        E 0 90 1a 60
        E 120 80 18 00
        E 0 80 1a 00
        E 120 90 18 60
        E 0 90 1a 60
        E 120 80 18 00
        E 0 80 1a 00
        E 120 90 1a 60
        E 120 80 1a 00
        E 120 90 19 60
        E 0 90 1a 60
        E 120 80 19 00
        E 0 80 1a 00
        E 120 90 1a 60
        E 120 80 1a 00
        E 120 90 18 60
        E 0 90 1a 60
        E 120 80 18 00
        E 0 80 1a 00
        E 120 90 1a 60
        E 120 80 1a 00
        E 120 90 19 60
        E 0 90 1a 60
        E 120 80 19 00
        E 0 80 1a 00
        E 120 90 18 60
        E 0 90 1a 60
        E 120 80 18 00
        E 0 80 1a 00
        E 120 90 18 60
        E 0 90 1a 60
        E 120 80 18 00
        E 0 80 1a 00
        E 120 90 1a 60
        E 120 80 1a 00
        E 120 90 19 60
        E 0 90 1a 60
        E 120 80 19 00
        E 0 80 1a 00
        E 120 90 1a 60
        E 120 80 1a 00
        E 120 90 18 60
        E 0 90 1a 60
        E 120 80 18 00
        E 0 80 1a 00
        E 120 90 1a 60
        E 120 80 1a 00
        E 120 90 19 60
        E 0 90 1a 60
        E 120 80 19 00
        E 0 80 1a 00
        E 120 90 18 60
        E 0 90 1a 60
        E 120 80 18 00
        E 0 80 1a 00
        E 120 90 18 60
        E 0 90 1a 60
        E 120 80 18 00
        E 0 80 1a 00
        E 120 90 1a 60
        E 120 80 1a 00
        E 120 90 19 60
        E 0 90 1a 60
        E 120 80 19 00
        E 0 80 1a 00
        E 120 90 1a 60
        E 120 80 1a 00
        E 120 90 18 60
        E 0 90 1a 60
        E 120 80 18 00
        E 0 80 1a 00
        E 120 90 1a 60
        E 120 80 1a 00
        E 120 90 19 60
        E 0 90 1a 60
        E 120 80 19 00
        E 0 80 1a 00
        E 120 90 18 60
        E 0 90 1a 60
        E 120 80 18 00
        E 0 80 1a 00
        E 120 90 19 60
        E 120 80 19 00
        E 0 90 19 60
        E 120 80 19 00
        E 0 90 19 60
        E 120 80 19 00
        E 120 90 19 60
        E 120 80 19 00
        E 120 90 19 60
        E 120 80 19 00
        <X 120 0
          /wFbcHJjX2MyXQ==
        >
        E 0 90 18 60
        E 0 90 1a 60
        E 120 80 18 00
        E 0 80 1a 00
        E 120 90 1a 60
        E 120 80 1a 00
        E 120 90 19 60
        E 0 90 1a 60
        E 120 80 19 00
        E 0 80 1a 00
        E 120 90 18 60
        E 0 90 1a 60
        E 120 80 18 00
        E 0 80 1a 00
        E 360 90 19 60
        E 0 90 1a 60
        E 120 80 19 00
        E 0 80 1a 00
        E 120 90 19 60
        E 0 90 1a 60
        E 120 80 19 00
        E 0 80 1a 00
        E 360 90 18 60
        E 0 90 1a 60
        E 120 80 18 00
        E 0 80 1a 00
        E 120 90 1a 60
        E 120 80 1a 00
        E 120 90 19 60
        E 0 90 1a 60
        E 120 80 19 00
        E 0 80 1a 00
        E 120 90 18 60
        E 0 90 1a 60
        E 120 80 18 00
        E 0 80 1a 00
        E 360 90 19 60
        E 0 90 1a 60
        E 120 80 19 00
        E 0 80 1a 00
        E 120 90 19 60
        E 0 90 1a 60
        E 120 80 19 00
        E 0 80 1a 00
        E 360 90 18 60
        E 0 90 1a 60
        E 120 80 18 00
        E 0 80 1a 00
        E 120 90 1a 60
        E 120 80 1a 00
        E 120 90 19 60
        E 0 90 1a 60
        E 120 80 19 00
        E 0 80 1a 00
        E 120 90 18 60
        E 0 90 1a 60
        E 120 80 18 00
        E 0 80 1a 00
        E 120 90 18 60
        E 0 90 1a 60
        E 120 80 18 00
        E 0 80 1a 00
        E 120 90 1a 60
        E 120 80 1a 00
        E 120 90 19 60
        E 0 90 1a 60
        E 120 80 19 00
        E 0 80 1a 00
        E 120 90 1a 60
        E 120 80 1a 00
        E 120 90 18 60
        E 0 90 1a 60
        E 120 80 18 00
        E 0 80 1a 00
        E 120 90 1a 60
        E 120 80 1a 00
        E 120 90 19 60
        E 0 90 1a 60
        E 120 80 19 00
        E 0 80 1a 00
        E 120 90 18 60
        E 0 90 1a 60
        E 120 80 18 00
        E 0 80 1a 00
        E 120 90 18 60
        E 0 90 1a 60
        E 120 80 18 00
        E 0 80 1a 00
        E 120 90 19 60
        E 120 80 19 00
        E 120 90 19 60
        E 120 80 19 00
        E 120 90 1a 60
        E 120 80 1a 00
        E 120 90 18 60
        E 0 90 1a 60
        E 120 80 18 00
        E 0 80 1a 00
        E 120 90 1a 60
        E 120 80 1a 00
        E 120 90 19 60
        E 0 90 1a 60
        E 120 80 19 00
        E 0 80 1a 00
        E 120 90 18 60
        E 0 90 1a 60
        E 120 80 18 00
        E 0 80 1a 00
        E 120 90 18 60
        E 0 90 1a 60
        E 120 80 18 00
        E 0 80 1a 00
        E 120 90 1a 60
        E 120 80 1a 00
        E 120 90 19 60
        E 0 90 1a 60
        E 120 80 19 00
        E 0 80 1a 00
        E 120 90 1a 60
        E 120 80 1a 00
        E 120 90 18 60
        E 0 90 1a 60
        E 120 80 18 00
        E 0 80 1a 00
        E 120 90 1a 60
        E 120 80 1a 00
        E 120 90 19 60
        E 0 90 1a 60
        E 120 80 19 00
        E 0 80 1a 00
        E 120 90 18 60
        E 0 90 1a 60
        E 120 80 18 00
        E 0 80 1a 00
        E 120 90 18 60
        E 0 90 1a 60
        E 120 80 18 00
        E 0 80 1a 00
        E 120 90 1a 60
        E 120 80 1a 00
        E 120 90 19 60
        E 0 90 1a 60
        E 120 80 19 00
        E 0 80 1a 00
        E 120 90 1a 60
        E 120 80 1a 00
        E 120 90 18 60
        E 0 90 1a 60
        E 120 80 18 00
        E 0 80 1a 00
        E 120 90 1a 60
        E 120 80 1a 00
        E 120 90 19 60
        E 0 90 1a 60
        E 120 80 19 00
        E 0 80 1a 00
        E 120 90 18 60
        E 0 90 1a 60
        E 120 80 18 00
        E 0 80 1a 00
        E 120 90 18 60
        E 0 90 1a 60
        E 120 80 18 00
        E 0 80 1a 00
        E 120 90 1a 60
        E 120 80 1a 00
        E 120 90 19 60
        E 0 90 1a 60
        E 120 80 19 00
        E 0 80 1a 00
        E 120 90 1a 60
        E 120 80 1a 00
        E 120 90 18 60
        E 0 90 1a 60
        E 120 80 18 00
        E 0 80 1a 00
        E 120 90 1a 60
        E 120 80 1a 00
        E 120 90 19 60
        E 0 90 1a 60
        E 120 80 19 00
        E 0 80 1a 00
        E 120 90 18 60
        E 0 90 1a 60
        E 120 80 18 00
        E 0 80 1a 00
        E 120 90 18 60
        E 0 90 1a 60
        E 120 80 18 00
        E 0 80 1a 00
        E 120 90 1a 60
        E 120 80 1a 00
        E 120 90 19 60
        E 0 90 1a 60
        E 120 80 19 00
        E 0 80 1a 00
        E 120 90 1a 60
        E 120 80 1a 00
        E 120 90 18 60
        E 0 90 1a 60
        E 120 80 18 00
        E 0 80 1a 00
        E 120 90 1a 60
        E 120 80 1a 00
        E 120 90 19 60
        E 0 90 1a 60
        E 120 80 19 00
        E 0 80 1a 00
        E 120 90 18 60
        E 0 90 1a 60
        E 120 80 18 00
        E 0 80 1a 00
        E 120 90 18 60
        E 0 90 1a 60
        E 120 80 18 00
        E 0 80 1a 00
        E 120 90 1a 60
        E 120 80 1a 00
        E 120 90 19 60
        E 120 80 19 00
        E 0 90 19 60
        E 120 80 19 00
        E 0 90 19 60
        E 120 80 19 00
        <X 120 0
          /wFbcHJjX291dHJvXQ==
        >
        E 0 90 18 60
        E 0 90 1a 60
        E 120 80 18 00
        E 0 80 1a 00
        E 120 90 1a 60
        E 120 80 1a 00
        E 120 90 1a 60
        E 120 80 1a 00
        E 120 90 18 60
        E 0 90 1a 60
        E 120 80 18 00
        E 0 80 1a 00
        E 360 90 1a 60
        E 120 80 1a 00
        E 360 90 1a 60
        E 120 80 1a 00
        E 120 90 18 60
        E 0 90 1a 60
        E 120 80 18 00
        E 0 80 1a 00
        E 120 90 1a 60
        E 120 80 1a 00
        E 120 90 1a 60
        E 120 80 1a 00
        E 120 90 18 60
        E 0 90 1a 60
        E 120 80 18 00
        E 0 80 1a 00
        E 360 90 1a 60
        E 120 80 1a 00
        E 360 90 1a 60
        E 120 80 1a 00
        E 120 90 18 60
        E 0 90 1a 60
        E 120 80 18 00
        E 0 80 1a 00
        E 120 90 1a 60
        E 120 80 1a 00
        E 120 90 1a 60
        E 120 80 1a 00
        E 120 90 18 60
        E 0 90 1a 60
        E 120 80 18 00
        E 0 80 1a 00
        E 360 90 1a 60
        E 120 80 1a 00
        E 360 90 1a 60
        E 120 80 1a 00
        E 120 90 18 60
        E 0 90 1a 60
        E 120 80 18 00
        E 0 80 1a 00
        E 120 90 1a 60
        E 120 80 1a 00
        E 120 90 1a 60
        E 120 80 1a 00
        E 120 90 18 60
        E 0 90 1a 60
        E 120 80 18 00
        E 0 80 1a 00
        E 360 90 1a 60
        E 120 80 1a 00
        E 360 90 1a 60
        E 120 80 1a 00
        E 120 90 18 60
        E 0 90 1a 60
        E 120 80 18 00
        E 0 80 1a 00
        E 120 90 1a 60
        E 120 80 1a 00
        E 120 90 1a 60
        E 120 80 1a 00
        E 120 90 18 60
        E 0 90 1a 60
        E 120 80 18 00
        E 0 80 1a 00
        E 360 90 1a 60
        E 120 80 1a 00
        E 360 90 1a 60
        E 120 80 1a 00
        E 120 90 18 60
        E 0 90 1a 60
        E 120 80 18 00
        E 0 80 1a 00
        E 120 90 1a 60
        E 120 80 1a 00
        E 120 90 1a 60
        E 120 80 1a 00
        E 120 90 18 60
        E 0 90 1a 60
        E 120 80 18 00
        E 0 80 1a 00
        E 360 90 1a 60
        E 120 80 1a 00
        E 360 90 1a 60
        E 120 80 1a 00
        E 120 90 18 60
        E 0 90 1a 60
        E 120 80 18 00
        E 0 80 1a 00
        E 120 90 1a 60
        E 120 80 1a 00
        E 120 90 1a 60
        E 120 80 1a 00
        E 120 90 18 60
        E 0 90 1a 60
        E 120 80 18 00
        E 0 80 1a 00
        E 360 90 18 60
        E 0 90 1a 60
        E 120 80 18 00
        E 0 80 1a 00
        E 360 90 18 60
        E 0 90 1a 60
        E 120 80 18 00
        E 0 80 1a 00
        <X 1080 0
          /wFbbXVzaWNfZW5kXQ==
        >
        <X 0 0
          /wFbY3Jvd2RfcmVhbHRpbWVd
        >
        <X 2875 0
          /wFbZW5kXQ==
        >
        E 5 b0 7b 00
        GUID {8D954ED5-ABF6-4F84-B31D-F30A3877388A}
        IGNTEMPO 0 120.00000000 4 4
        SRCCOLOR 16
        VELLANE 132 128 60
        COLORMAP "C:\Program Files\REAPER (x64)\Data\color_maps\rockband_guitarbass.png"
        CFGEDITVIEW -7114.087266 9.234372 0 48 0 0 0
        CFGEDIT 1 1 0 1 1 0 1 1 1 1 1 0.25000000 -8 -8 1544 872 0 2 1 1 0.00000000 0 1 0 0 0.500000 0 0 1.000000 64
        KEYSNAP 0 6 "102030050700" 0 "Pentatonic"
        EVTFILTER 0 -1 -1 -1 -1 0 1 0 0 -1.00000000 -1.00000000
      >
    >
  >
  <TRACK '{6F75B28B-9D5C-4A16-98F6-4224AB48108D}'
    NAME "BEAT"
    PEAKCOL 16576
    BEAT -1
    AUTOMODE 0
    VOLPAN 1.00000000000000 0.00000000000000 -1.00000000000000 -1.00000000000000 1.00000000000000
    MUTESOLO 0 0 0
    IPHASE 0
    ISBUS 0 0
    BUSCOMP 0 0
    SHOWINMIX 1 0.666700 0.500000 1 0.500000 -1 -1 -1
    FREEMODE 0
    SEL 0
    REC 0 0 0 0 0 0 0
    VU 2
    TRACKHEIGHT 0 0
    INQ 0 0 0 0.5000000000 100 0 0 100
    NCHAN 2
    FX 1
    TRACKID {6F75B28B-9D5C-4A16-98F6-4224AB48108D}
    PERF 0
    MIDIOUT -1
    <MIDINOTENAMES
      0 13 "Up Beats"
      0 12 "Downbeat"
    >
    MAINSEND 1 0
    <FXCHAIN
      SHOW 0
      LASTSEL 0
      DOCKED 0
    >
    <ITEM
      POSITION 0.00000000000000
      SNAPOFFS 0.00000000000000
      LENGTH 121.61000000000000
      LOOP 0
      ALLTAKES 0
      SEL 0
      FADEIN 1 0.000000 0.000000 1 0
      FADEOUT 1 0.000000 0.000000 1 0
      MUTE 0
      IGUID {8CD0D582-1F1B-4E72-87D9-6447C1A313B7}
      IID 15
      NAME "BEAT"
      VOLPAN 1.000000 0.000000 1.000000 -1.000000
      SOFFS 0.00000000000000 0.00000000000000
      PLAYRATE 1.00000000000000 1 0.00000000000000 -1
      CHANMODE 0
      GUID {E8FC1EEC-3C34-42BB-80E2-753BC0C51F62}
      <SOURCE MIDI
        HASDATA 1 480 QN
        POOLEDEVTS {9729571B-F2F8-4B99-B08D-294933ECB1F0}
        <X 0 0
          /wNCRUFU
        >
        E 0 96 0c 64
        E 120 86 0c 00
        E 360 96 0d 64
        E 120 86 0d 00
        E 360 96 0d 64
        E 120 86 0d 00
        E 360 96 0d 64
        E 120 86 0d 00
        E 360 96 0c 64
        E 120 86 0c 00
        E 360 96 0d 64
        E 120 86 0d 00
        E 360 96 0d 64
        E 120 86 0d 00
        E 360 96 0d 64
        E 120 86 0d 00
        E 360 96 0c 64
        E 120 86 0c 00
        E 360 96 0d 64
        E 120 86 0d 00
        E 360 96 0d 64
        E 120 86 0d 00
        E 360 96 0d 64
        E 120 86 0d 00
        E 360 96 0c 64
        E 120 86 0c 00
        E 360 96 0d 64
        E 120 86 0d 00
        E 360 96 0d 64
        E 120 86 0d 00
        E 360 96 0d 64
        E 120 86 0d 00
        E 360 96 0c 64
        E 120 86 0c 00
        E 360 96 0d 64
        E 120 86 0d 00
        E 360 96 0d 64
        E 120 86 0d 00
        E 360 96 0d 64
        E 120 86 0d 00
        E 360 96 0c 64
        E 120 86 0c 00
        E 360 96 0d 64
        E 120 86 0d 00
        E 360 96 0d 64
        E 120 86 0d 00
        E 360 96 0d 64
        E 120 86 0d 00
        E 360 96 0c 64
        E 120 86 0c 00
        E 360 96 0d 64
        E 120 86 0d 00
        E 360 96 0d 64
        E 120 86 0d 00
        E 360 96 0d 64
        E 120 86 0d 00
        E 360 96 0c 64
        E 120 86 0c 00
        E 360 96 0d 64
        E 120 86 0d 00
        E 360 96 0d 64
        E 120 86 0d 00
        E 360 96 0d 64
        E 120 86 0d 00
        E 360 96 0c 64
        E 120 86 0c 00
        E 360 96 0d 64
        E 120 86 0d 00
        E 360 96 0d 64
        E 120 86 0d 00
        E 360 96 0d 64
        E 120 86 0d 00
        E 360 96 0c 64
        E 120 86 0c 00
        E 360 96 0d 64
        E 120 86 0d 00
        E 360 96 0d 64
        E 120 86 0d 00
        E 360 96 0d 64
        E 120 86 0d 00
        E 360 96 0c 64
        E 120 86 0c 00
        E 360 96 0d 64
        E 120 86 0d 00
        E 360 96 0d 64
        E 120 86 0d 00
        E 360 96 0d 64
        E 120 86 0d 00
        E 360 96 0c 64
        E 120 86 0c 00
        E 360 96 0d 64
        E 120 86 0d 00
        E 360 96 0d 64
        E 120 86 0d 00
        E 360 96 0d 64
        E 120 86 0d 00
        E 360 96 0c 64
        E 120 86 0c 00
        E 360 96 0d 64
        E 120 86 0d 00
        E 360 96 0d 64
        E 120 86 0d 00
        E 360 96 0d 64
        E 120 86 0d 00
        E 360 96 0c 64
        E 120 86 0c 00
        E 360 96 0d 64
        E 120 86 0d 00
        E 360 96 0d 64
        E 120 86 0d 00
        E 360 96 0d 64
        E 120 86 0d 00
        E 360 96 0c 64
        E 120 86 0c 00
        E 360 96 0d 64
        E 120 86 0d 00
        E 360 96 0d 64
        E 120 86 0d 00
        E 360 96 0d 64
        E 120 86 0d 00
        E 360 96 0c 64
        E 120 86 0c 00
        E 360 96 0d 64
        E 120 86 0d 00
        E 360 96 0d 64
        E 120 86 0d 00
        E 360 96 0d 64
        E 120 86 0d 00
        E 360 96 0c 64
        E 120 86 0c 00
        E 360 96 0d 64
        E 120 86 0d 00
        E 360 96 0d 64
        E 120 86 0d 00
        E 360 96 0d 64
        E 120 86 0d 00
        E 360 96 0c 64
        E 120 86 0c 00
        E 360 96 0d 64
        E 120 86 0d 00
        E 360 96 0d 64
        E 120 86 0d 00
        E 360 96 0d 64
        E 120 86 0d 00
        E 360 96 0c 64
        E 120 86 0c 00
        E 360 96 0d 64
        E 120 86 0d 00
        E 360 96 0d 64
        E 120 86 0d 00
        E 360 96 0d 64
        E 120 86 0d 00
        E 360 96 0c 64
        E 120 86 0c 00
        E 360 96 0d 64
        E 120 86 0d 00
        E 360 96 0d 64
        E 120 86 0d 00
        E 360 96 0d 64
        E 120 86 0d 00
        E 360 96 0c 64
        E 120 86 0c 00
        E 360 96 0d 64
        E 120 86 0d 00
        E 360 96 0d 64
        E 120 86 0d 00
        E 360 96 0d 64
        E 120 86 0d 00
        E 360 96 0c 64
        E 120 86 0c 00
        E 360 96 0d 64
        E 120 86 0d 00
        E 360 96 0d 64
        E 120 86 0d 00
        E 360 96 0d 64
        E 120 86 0d 00
        E 360 96 0c 64
        E 120 86 0c 00
        E 360 96 0d 64
        E 120 86 0d 00
        E 360 96 0d 64
        E 120 86 0d 00
        E 360 96 0d 64
        E 120 86 0d 00
        E 360 96 0c 64
        E 120 86 0c 00
        E 360 96 0d 64
        E 120 86 0d 00
        E 360 96 0d 64
        E 120 86 0d 00
        E 360 96 0d 64
        E 120 86 0d 00
        E 360 96 0c 64
        E 120 86 0c 00
        E 360 96 0d 64
        E 120 86 0d 00
        E 360 96 0d 64
        E 120 86 0d 00
        E 360 96 0d 64
        E 120 86 0d 00
        E 360 96 0c 64
        E 120 86 0c 00
        E 360 96 0d 64
        E 120 86 0d 00
        E 360 96 0d 64
        E 120 86 0d 00
        E 360 96 0d 64
        E 120 86 0d 00
        E 360 96 0c 64
        E 120 86 0c 00
        E 360 96 0d 64
        E 120 86 0d 00
        E 360 96 0d 64
        E 120 86 0d 00
        E 360 96 0d 64
        E 120 86 0d 00
        E 360 96 0c 64
        E 120 86 0c 00
        E 360 96 0d 64
        E 120 86 0d 00
        E 360 96 0d 64
        E 120 86 0d 00
        E 360 96 0d 64
        E 120 86 0d 00
        E 360 96 0c 64
        E 120 86 0c 00
        E 360 96 0d 64
        E 120 86 0d 00
        E 360 96 0d 64
        E 120 86 0d 00
        E 360 96 0d 64
        E 120 86 0d 00
        E 360 96 0c 64
        E 120 86 0c 00
        E 360 96 0d 64
        E 120 86 0d 00
        E 360 96 0d 64
        E 120 86 0d 00
        E 360 96 0d 64
        E 120 86 0d 00
        E 360 96 0c 64
        E 120 86 0c 00
        E 360 96 0d 64
        E 120 86 0d 00
        E 360 96 0d 64
        E 120 86 0d 00
        E 360 96 0d 64
        E 120 86 0d 00
        E 360 96 0c 64
        E 120 86 0c 00
        E 360 96 0d 64
        E 120 86 0d 00
        E 360 96 0d 64
        E 120 86 0d 00
        E 360 96 0d 64
        E 120 86 0d 00
        E 360 96 0c 64
        E 120 86 0c 00
        E 360 96 0d 64
        E 120 86 0d 00
        E 360 96 0d 64
        E 120 86 0d 00
        E 360 96 0d 64
        E 120 86 0d 00
        E 360 96 0c 64
        E 120 86 0c 00
        E 360 96 0d 64
        E 120 86 0d 00
        E 360 96 0d 64
        E 120 86 0d 00
        E 360 96 0d 64
        E 120 86 0d 00
        E 360 96 0c 64
        E 120 86 0c 00
        E 360 96 0d 64
        E 120 86 0d 00
        E 360 96 0d 64
        E 120 86 0d 00
        E 360 96 0d 64
        E 120 86 0d 00
        E 360 96 0c 64
        E 120 86 0c 00
        E 360 96 0d 64
        E 120 86 0d 00
        E 360 96 0d 64
        E 120 86 0d 00
        E 360 96 0d 64
        E 120 86 0d 00
        E 360 96 0c 64
        E 120 86 0c 00
        E 360 96 0d 64
        E 120 86 0d 00
        E 360 96 0d 64
        E 120 86 0d 00
        E 360 96 0d 64
        E 120 86 0d 00
        E 360 96 0c 64
        E 120 86 0c 00
        E 360 96 0d 64
        E 120 86 0d 00
        E 360 96 0d 64
        E 120 86 0d 00
        E 360 96 0d 64
        E 120 86 0d 00
        E 360 96 0c 64
        E 120 86 0c 00
        E 360 96 0d 64
        E 120 86 0d 00
        E 360 96 0d 64
        E 120 86 0d 00
        E 360 96 0d 64
        E 120 86 0d 00
        E 360 96 0c 64
        E 120 86 0c 00
        E 360 96 0d 64
        E 120 86 0d 00
        E 360 96 0d 64
        E 120 86 0d 00
        E 360 96 0d 64
        E 120 86 0d 00
        E 360 96 0c 64
        E 120 86 0c 00
        E 360 96 0d 64
        E 120 86 0d 00
        E 360 96 0d 64
        E 120 86 0d 00
        E 360 96 0d 64
        E 120 86 0d 00
        E 360 96 0c 64
        E 120 86 0c 00
        E 360 96 0d 64
        E 120 86 0d 00
        E 360 96 0d 64
        E 120 86 0d 00
        E 360 96 0d 64
        E 120 86 0d 00
        E 360 96 0c 64
        E 120 86 0c 00
        E 360 96 0d 64
        E 120 86 0d 00
        E 360 96 0d 64
        E 120 86 0d 00
        E 360 96 0d 64
        E 120 86 0d 00
        E 360 96 0c 64
        E 120 86 0c 00
        E 360 96 0d 64
        E 120 86 0d 00
        E 360 96 0d 64
        E 120 86 0d 00
        E 360 96 0d 64
        E 120 86 0d 00
        E 360 96 0c 64
        E 120 86 0c 00
        E 360 96 0d 64
        E 120 86 0d 00
        E 360 96 0d 64
        E 120 86 0d 00
        E 360 96 0d 64
        E 120 86 0d 00
        E 360 96 0c 64
        E 120 86 0c 00
        E 360 96 0d 64
        E 120 86 0d 00
        E 360 96 0d 64
        E 120 86 0d 00
        E 360 96 0d 64
        E 120 86 0d 00
        E 360 96 0c 64
        E 120 86 0c 00
        E 360 96 0d 64
        E 120 86 0d 00
        E 360 96 0d 64
        E 120 86 0d 00
        E 360 96 0d 64
        E 120 86 0d 00
        E 360 96 0c 64
        E 120 86 0c 00
        E 360 96 0d 64
        E 120 86 0d 00
        E 360 96 0d 64
        E 120 86 0d 00
        E 360 96 0d 64
        E 120 86 0d 00
        E 360 96 0c 64
        E 120 86 0c 00
        E 360 96 0d 64
        E 120 86 0d 00
        E 360 96 0d 64
        E 120 86 0d 00
        E 360 96 0d 64
        E 120 86 0d 00
        E 360 96 0c 64
        E 120 86 0c 00
        E 360 96 0d 64
        E 120 86 0d 00
        E 360 96 0d 64
        E 120 86 0d 00
        E 360 96 0d 64
        E 120 86 0d 00
        E 360 96 0c 64
        E 120 86 0c 00
        E 360 96 0d 64
        E 120 86 0d 00
        E 360 96 0d 64
        E 120 86 0d 00
        E 360 96 0d 64
        E 120 86 0d 00
        E 360 96 0c 64
        E 120 86 0c 00
        E 360 96 0d 64
        E 120 86 0d 00
        E 360 96 0d 64
        E 120 86 0d 00
        E 360 96 0d 64
        E 120 86 0d 00
        E 360 96 0c 64
        E 120 86 0c 00
        E 360 96 0d 64
        E 120 86 0d 00
        E 360 96 0d 64
        E 120 86 0d 00
        E 360 96 0d 64
        E 120 86 0d 00
        E 360 96 0c 64
        E 120 86 0c 00
        E 360 96 0d 64
        E 120 86 0d 00
        E 360 96 0d 64
        E 120 86 0d 00
        E 360 96 0d 64
        E 120 86 0d 00
        E 360 96 0c 64
        E 120 86 0c 00
        E 360 96 0d 64
        E 120 86 0d 00
        E 360 96 0d 64
        E 120 86 0d 00
        E 360 96 0d 64
        E 120 86 0d 00
        E 360 96 0c 64
        E 120 86 0c 00
        E 360 96 0d 64
        E 120 86 0d 00
        E 360 96 0d 64
        E 120 86 0d 00
        E 360 96 0d 64
        E 120 86 0d 00
        E 360 96 0c 64
        E 120 86 0c 00
        E 360 96 0d 64
        E 120 86 0d 00
        E 360 96 0d 64
        E 120 86 0d 00
        E 360 96 0d 64
        E 120 86 0d 00
        E 360 b0 7b 00
        GUID {62D9F2CB-F055-44E8-B1A4-8731FA76BD8B}
        IGNTEMPO 0 120.00000000 4 4
        SRCCOLOR 17
        VELLANE 132 128 60
        COLORMAP "C:\Program Files\REAPER (x64)\Data\color_maps\rockband_guitarbass.png"
        CFGEDITVIEW -7114.087266 9.234372 0 48 0 0 0
        CFGEDIT 1 1 0 1 1 0 1 1 1 1 1 0.25000000 -8 -8 1544 872 0 2 1 1 0.00000000 0 1 0 0 0.500000 0 0 1.000000 64
        KEYSNAP 0 6 "102030050700" 0 "Pentatonic"
        EVTFILTER 0 -1 -1 -1 -1 0 1 0 0 -1.00000000 -1.00000000
      >
    >
  >
  <TRACK '{88DF569B-423D-4629-BBCD-392C74ABEB14}'
    NAME "backing"
    PEAKCOL 16576
    BEAT -1
    AUTOMODE 0
    VOLPAN 1.00000000000000 0.00000000000000 -1.00000000000000 -1.00000000000000 1.00000000000000
    MUTESOLO 0 0 0
    IPHASE 0
    ISBUS 0 0
    BUSCOMP 0 0
    SHOWINMIX 1 0.666700 0.500000 1 0.500000 -1 -1 -1
    FREEMODE 0
    SEL 0
    REC 0 0 0 0 0 0 0
    VU 2
    TRACKHEIGHT 0 0
    INQ 0 0 0 0.5000000000 100 0 0 100
    NCHAN 2
    FX 1
    TRACKID {88DF569B-423D-4629-BBCD-392C74ABEB14}
    PERF 0
    MIDIOUT -1
    MAINSEND 1 0
    <ITEM
      POSITION 0.00000000000000
      SNAPOFFS 0.00000000000000
      LENGTH 121.61000000000000
      LOOP 0
      ALLTAKES 0
      SEL 0
      FADEIN 1 0.000000 0.000000 1 0
      FADEOUT 1 0.000000 0.000000 1 0
      MUTE 0
      IGUID {2D693B6D-1984-4442-A917-D2EBAB887AFF}
      IID 16
      NAME "backing.wav"
      VOLPAN 1.000000 0.000000 1.000000 -1.000000
      SOFFS 0.00000000000000
      PLAYRATE 1.00000000000000 1 0.00000000000000 -1
      CHANMODE 0
      GUID {B5473BEA-BC5D-4E21-B5BD-F48E05DFEA66}
      <SOURCE WAVE
        FILE "C:\Users\Ruggery\Documents\Visual Studio Code\Projects\ruggy-customs-projects\songs\pollyanna\wav\backing.wav"
      >
    >
  >
  <EXTENSIONS
  >
>
