<REAPER_PROJECT 0.1 "4.22/x64"
  RIPPLE 0
  GROUPOVERRIDE 0 0 0
  AUTOXFADE 1
  ENVATTACH 1
  MIXERUIFLAGS 11 48
  PEAKGAIN 1.00000000000000
  FEEDBACK 0
  PANLAW 1.00000000000000
  PROJOFFS 0.00000000000000 0
  MAXPROJLEN 0 600.00000000000000
  GRID 3199 8 1.00000000000000 8 1.00000000000000 0
  TIMEMODE 1 0 -1
  PANMODE 3
  CURSOR 0.00000000000000
  ZOOM 14.74988319116366 0 0
  VZOOMEX 6
  USE_REC_CFG 0
  RECMODE 1
  SMPTESYNC 0 23.976024 100 40 1000 300 0 0.000000 1
  LOOP 0
  LOOPGRAN 0 4.00000000000000
  RECORD_PATH "" ""
  <RECORD_CFG
    ZXZhdxgA
  >
  <APPLYFX_CFG
  >
  RENDER_FILE ""
  RENDER_PATTERN ""
  RENDER_FMT 0 2 0
  RENDER_1X 0
  RENDER_RANGE 1 0.00000000000000 0.00000000000000
  RENDER_RESAMPLE 3 0 1
  RENDER_ADDTOPROJ 0
  RENDER_STEMS 0
  RENDER_DITHER 0
  TIMELOCKMODE 0
  ITEMMIX 0
  DEFPITCHMODE 393216
  TAKELANE 1
  SAMPLERATE 44100 0 0
  <RENDER_CFG
  >
  LOCK 1
  <METRONOME 6 2.000000
    VOL 0.250000 0.125000
    FREQ 800 1600 1
    BEATLEN 4
    SAMPLES "" ""
  >
  GLOBAL_AUTO -1
  TEMPO 120.00000000000000 4 4
  PLAYRATE 1.00000000000000 0 0.25000 4.00000
  SELECTION 85.23950399999964 0.00000000000000
  SELECTION2 85.23950399999964 0.00000000000000
  MASTERAUTOMODE 0
  MASTERTRACKHEIGHT 0
  MASTERPEAKCOL 16576
  MASTERMUTESOLO 0
  MASTERTRACKVIEW 1 0.666700 0.500000 0.500000 -1 -1 -1
  MASTERHWOUT 0 0 1.00000000000000 0.00000000000000 0 0 0 -1.00000000000000
  MASTER_NCH 2 2
  MASTER_VOLUME 1.00000000000000 0.00000000000000 -1.00000000000000 -1.00000000000000 1.00000000000000
  MASTER_PANMODE -1
  MASTER_FX 1
  MASTER_SEL 0
  <MASTERPLAYSPEEDENV
    ACT 0
    VIS 0 1 1.000000
    LANEHEIGHT 0 0
    ARM 0
    DEFSHAPE 0 -1 -1
  >
  <TEMPOENVEX
    ACT 1
    VIS 1 0 1.000000
    LANEHEIGHT 0 0
    ARM 0
    DEFSHAPE 1 -1 -1
    PT 0.000000000000 118.2550287951 1
  >
  <PROJBAY
  >
  <TRACK '{F28F2335-2F22-447D-BE88-D8DF1559218B}'
    NAME "PART DRUMS"
    PEAKCOL 16576
    BEAT -1
    AUTOMODE 0
    VOLPAN 1.00000000000000 0.00000000000000 -1.00000000000000 -1.00000000000000 1.00000000000000
    MUTESOLO 0 0 0
    IPHASE 0
    ISBUS 1 1
    BUSCOMP 0 0
    SHOWINMIX 1 0.666700 0.500000 1 0.500000 -1 -1 -1
    FREEMODE 0
    SEL 0
    REC 0 0 0 0 0 0 0
    VU 2
    TRACKHEIGHT 0 0
    INQ 0 0 0 0.5000000000 100 0 0 100
    NCHAN 2
    FX 1
    TRACKID {F28F2335-2F22-447D-BE88-D8DF1559218B}
    PERF 0
    MIDIOUT -1
    <MIDINOTENAMES
      0 127 "Cymbal Swells"
      0 126 "Drum Roll"
      0 125 "---"
      0 124 "DRUM FILL"
      0 123 "DRUM FILL"
      0 122 "DRUM FILL"
      0 121 "DRUM FILL"
      0 120 "DRUM FILL (use all 5)"
      0 118 "----"
      0 116 "OVERDRIVE"
      0 114 "----"
      0 112 "TOM GEMS PAD 4"
      0 111 "TOM GEMS PAD 3"
      0 110 "TOM GEMS PAD 2"
      0 103 "Solo Marker"
      0 102 "----"
      0 100 "EXPERT Green"
      0 99 "EXPERT Blue"
      0 98 "EXPERT Yellow"
      0 97 "EXPERT Red"
      0 96 "EXPERT Kick"
      0 92 "----"
      0 88 "HARD Green"
      0 87 "HARD Blue"
      0 86 "HARD Yellow"
      0 85 "HARD Red"
      0 84 "HARD Kick"
      0 80 "----"
      0 76 "MEDIUM Green"
      0 75 "MEDIUM Blue"
      0 74 "MEDIUM Yellow"
      0 73 "MEDIUM Red"
      0 72 "MEDIUM Kick"
      0 68 "----"
      0 64 "EASY Green"
      0 63 "EASY Blue"
      0 62 "EASY Yellow"
      0 61 "EASY Red"
      0 60 "EASY Kick"
      0 56 "----"
      0 52 "-- DRUM ANIMATION --"
      0 51 "FLOOR TOM RH"
      0 50 "FLOOR TOM LH"
      0 49 "TOM2 RH"
      0 48 "TOM2 LH"
      0 47 "TOM1 RH"
      0 46 "TOM1 LH"
      0 45 "SOFT CRASH 2 LH"
      0 44 "CRASH 2 LH"
      0 43 "RIDE LH"
      0 42 "RIDE CYM RH"
      0 41 "CRASH2 CHOKE"
      0 40 "CRASH1 CHOKE"
      0 39 "CRASH2 SOFT RH"
      0 38 "CRASH2 HARD RH"
      0 37 "CRASH1 SOFT RH"
      0 36 "CRASH1 HARD RH"
      0 35 "CRASH1 SOFT LH"
      0 34 "CRASH1 HARD LH"
      0 32 "PERCUSSION RH"
      0 31 "HI-HAT RH"
      0 30 "HI-HAT LH"
      0 29 "SOFT SNARE RH"
      0 28 "SOFT SNARE LH"
      0 27 "SNARE RH"
      0 26 "SNARE LH"
      0 25 "HI-HAT OPEN"
      0 24 "KICK RF"
    >
    MAINSEND 1 0
    <FXCHAIN
      WNDRECT 0 43 878 559
      SHOW 0
      LASTSEL 0
      DOCKED 0
      BYPASS 0 0
      <VST "VSTi: RBN Preview (RBN)" "rbprev_vst64.dll" 0 ""
        dnBicu5e7f4AAAAAAgAAAAEAAAAAAAAAAgAAAAAAAAAEAAAAAQAAAA==
        AAAQAAMBqgAAABAAAAA=
      >
      FLOATPOS 0 0 0 0
      FXID {B706A263-EDC8-40DC-8ED8-682187588FA7}
      WAK 0
    >
    <ITEM
      POSITION 0.00000000000000
      SNAPOFFS 0.00000000000000
      LENGTH 85.23952380952380
      LOOP 0
      ALLTAKES 0
      SEL 0
      FADEIN 1 0.000000 0.000000 1 0
      FADEOUT 1 0.000000 0.000000 1 0
      MUTE 0
      IGUID {FF278205-6795-4367-B817-D6DD0EA6D5C2}
      IID 6
      NAME "PART DRUMS"
      VOLPAN 1.000000 0.000000 1.000000 -1.000000
      SOFFS 0.00000000000000 0.00000000000000
      PLAYRATE 1.00000000000000 1 0.00000000000000 -1
      CHANMODE 0
      GUID {BFFC66F5-6BA9-4A54-ABB4-4A31F7AFA82D}
      <SOURCE MIDI
        HASDATA 1 480 QN
        POOLEDEVTS {A5222084-13A6-4592-86BD-D8560BF689B0}
        <X 0 0
          /wNQQVJUIERSVU1T
        >
        E 0 90 19 60
        <X 120 0
          /wFbbWl4IDAgZHJ1bXMwXQ==
        >
        <X 120 0
          /wFbbWl4IDEgZHJ1bXMwXQ==
        >
        <X 120 0
          /wFbbWl4IDIgZHJ1bXMwXQ==
        >
        <X 120 0
          /wFbbWl4IDMgZHJ1bXMwXQ==
        >
        E 480 80 19 00
        E 960 90 19 60
        E 960 80 19 00
        <X 720 0
          /wFbbWl4IDMgZHJ1bXMwZF0=
        >
        <X 0 0
          /wFbcGxheV0=
        >
        E 240 90 18 60
        E 0 90 24 60
        E 0 90 40 60
        E 0 90 48 60
        E 0 90 4c 60
        E 0 90 54 60
        E 0 90 58 60
        E 0 90 60 60
        E 0 90 64 60
        E 120 80 18 00
        E 0 80 24 00
        E 0 80 40 00
        E 0 80 48 00
        E 0 80 4c 00
        E 0 80 54 00
        E 0 80 58 00
        E 0 80 60 00
        E 0 80 64 00
        E 0 90 1e 60
        E 0 90 61 60
        E 120 80 1e 00
        E 0 80 61 00
        E 0 90 1f 60
        E 0 90 56 60
        E 0 90 61 60
        E 120 80 1f 00
        E 0 80 56 00
        E 0 80 61 00
        E 0 90 1e 60
        E 0 90 61 60
        E 120 80 1e 00
        E 0 80 61 00
        E 0 90 18 60
        E 0 90 1f 60
        E 0 90 3e 60
        E 0 90 48 60
        E 0 90 4a 60
        E 0 90 54 60
        E 0 90 56 60
        E 0 90 60 60
        E 0 90 61 60
        E 120 80 18 00
        E 0 80 1f 00
        E 0 80 3e 00
        E 0 80 48 00
        E 0 80 4a 00
        E 0 80 54 00
        E 0 80 56 00
        E 0 80 60 00
        E 0 80 61 00
        E 0 90 1e 60
        E 0 90 61 60
        E 120 80 1e 00
        E 0 80 61 00
        E 0 90 1f 60
        E 0 90 56 60
        E 0 90 61 60
        E 120 80 1f 00
        E 0 80 56 00
        E 0 80 61 00
        E 0 90 1e 60
        E 0 90 61 60
        E 120 80 1e 00
        E 0 80 61 00
        E 0 90 18 60
        E 0 90 1f 60
        E 0 90 3e 60
        E 0 90 48 60
        E 0 90 4a 60
        E 0 90 54 60
        E 0 90 56 60
        E 0 90 60 60
        E 0 90 61 60
        E 120 80 18 00
        E 0 80 1f 00
        E 0 80 3e 00
        E 0 80 48 00
        E 0 80 4a 00
        E 0 80 54 00
        E 0 80 56 00
        E 0 80 60 00
        E 0 80 61 00
        E 0 90 1e 60
        E 0 90 61 60
        E 120 80 1e 00
        E 0 80 61 00
        E 0 90 1f 60
        E 0 90 56 60
        E 0 90 61 60
        E 120 80 1f 00
        E 0 80 56 00
        E 0 80 61 00
        E 0 90 1e 60
        E 0 90 61 60
        E 120 80 1e 00
        E 0 80 61 00
        E 0 90 18 60
        E 0 90 1f 60
        E 0 90 3e 60
        E 0 90 48 60
        E 0 90 4a 60
        E 0 90 54 60
        E 0 90 56 60
        E 0 90 60 60
        E 0 90 61 60
        E 120 80 18 00
        E 0 80 1f 00
        E 0 80 3e 00
        E 0 80 48 00
        E 0 80 4a 00
        E 0 80 54 00
        E 0 80 56 00
        E 0 80 60 00
        E 0 80 61 00
        E 0 90 1e 60
        E 0 90 61 60
        E 120 80 1e 00
        E 0 80 61 00
        E 0 90 1f 60
        E 0 90 56 60
        E 0 90 61 60
        E 120 80 1f 00
        E 0 80 56 00
        E 0 80 61 00
        E 0 90 1e 60
        E 0 90 61 60
        E 120 80 1e 00
        E 0 80 61 00
        E 0 90 18 60
        E 0 90 1f 60
        E 0 90 3e 60
        E 0 90 48 60
        E 0 90 4a 60
        E 0 90 54 60
        E 0 90 56 60
        E 0 90 60 60
        E 0 90 61 60
        E 120 80 18 00
        E 0 80 1f 00
        E 0 80 3e 00
        E 0 80 48 00
        E 0 80 4a 00
        E 0 80 54 00
        E 0 80 56 00
        E 0 80 60 00
        E 0 80 61 00
        E 0 90 1e 60
        E 0 90 61 60
        E 120 80 1e 00
        E 0 80 61 00
        E 0 90 1f 60
        E 0 90 56 60
        E 0 90 61 60
        E 120 80 1f 00
        E 0 80 56 00
        E 0 80 61 00
        E 0 90 1e 60
        E 0 90 61 60
        E 120 80 1e 00
        E 0 80 61 00
        E 0 90 18 60
        E 0 90 1f 60
        E 0 90 3e 60
        E 0 90 48 60
        E 0 90 4a 60
        E 0 90 54 60
        E 0 90 56 60
        E 0 90 60 60
        E 0 90 61 60
        E 120 80 18 00
        E 0 80 1f 00
        E 0 80 3e 00
        E 0 80 48 00
        E 0 80 4a 00
        E 0 80 54 00
        E 0 80 56 00
        E 0 80 60 00
        E 0 80 61 00
        E 0 90 1e 60
        E 0 90 61 60
        E 120 80 1e 00
        E 0 80 61 00
        E 0 90 1f 60
        E 0 90 56 60
        E 0 90 61 60
        E 120 80 1f 00
        E 0 80 56 00
        E 0 80 61 00
        E 0 90 1e 60
        E 0 90 61 60
        E 120 80 1e 00
        E 0 80 61 00
        E 0 90 18 60
        E 0 90 1f 60
        E 0 90 3e 60
        E 0 90 48 60
        E 0 90 4a 60
        E 0 90 54 60
        E 0 90 56 60
        E 0 90 60 60
        E 0 90 61 60
        E 120 80 18 00
        E 0 80 1f 00
        E 0 80 3e 00
        E 0 80 48 00
        E 0 80 4a 00
        E 0 80 54 00
        E 0 80 56 00
        E 0 80 60 00
        E 0 80 61 00
        E 0 90 1e 60
        E 0 90 61 60
        E 120 80 1e 00
        E 0 80 61 00
        E 0 90 1f 60
        E 0 90 56 60
        E 0 90 61 60
        E 120 80 1f 00
        E 0 80 56 00
        E 0 80 61 00
        E 0 90 1e 60
        E 0 90 61 60
        E 120 80 1e 00
        E 0 80 61 00
        E 0 90 18 60
        E 0 90 1f 60
        E 0 90 3e 60
        E 0 90 48 60
        E 0 90 4a 60
        E 0 90 54 60
        E 0 90 56 60
        E 0 90 60 60
        E 0 90 61 60
        E 120 80 18 00
        E 0 80 1f 00
        E 0 80 3e 00
        E 0 80 48 00
        E 0 80 4a 00
        E 0 80 54 00
        E 0 80 56 00
        E 0 80 60 00
        E 0 80 61 00
        E 0 90 1e 60
        E 0 90 61 60
        E 120 80 1e 00
        E 0 80 61 00
        E 0 90 1f 60
        E 0 90 56 60
        E 0 90 61 60
        E 120 80 1f 00
        E 0 80 56 00
        E 0 80 61 00
        E 0 90 1e 60
        E 0 90 61 60
        E 120 80 1e 00
        E 0 80 61 00
        E 0 90 18 60
        E 0 90 1f 60
        E 0 90 3e 60
        E 0 90 48 60
        E 0 90 4a 60
        E 0 90 54 60
        E 0 90 56 60
        E 0 90 60 60
        E 0 90 61 60
        E 120 80 18 00
        E 0 80 1f 00
        E 0 80 3e 00
        E 0 80 48 00
        E 0 80 4a 00
        E 0 80 54 00
        E 0 80 56 00
        E 0 80 60 00
        E 0 80 61 00
        E 0 90 1e 60
        E 0 90 61 60
        E 120 80 1e 00
        E 0 80 61 00
        E 0 90 1f 60
        E 0 90 56 60
        E 0 90 61 60
        E 120 80 1f 00
        E 0 80 56 00
        E 0 80 61 00
        E 0 90 1e 60
        E 0 90 61 60
        E 120 80 1e 00
        E 0 80 61 00
        E 0 90 18 60
        E 0 90 1f 60
        E 0 90 3e 60
        E 0 90 48 60
        E 0 90 4a 60
        E 0 90 54 60
        E 0 90 56 60
        E 0 90 60 60
        E 0 90 61 60
        E 120 80 18 00
        E 0 80 1f 00
        E 0 80 3e 00
        E 0 80 48 00
        E 0 80 4a 00
        E 0 80 54 00
        E 0 80 56 00
        E 0 80 60 00
        E 0 80 61 00
        E 0 90 1e 60
        E 0 90 61 60
        E 120 80 1e 00
        E 0 80 61 00
        E 0 90 1f 60
        E 0 90 56 60
        E 0 90 61 60
        E 120 80 1f 00
        E 0 80 56 00
        E 0 80 61 00
        E 0 90 1e 60
        E 0 90 61 60
        E 120 80 1e 00
        E 0 80 61 00
        E 0 90 18 60
        E 0 90 1f 60
        E 0 90 3e 60
        E 0 90 48 60
        E 0 90 4a 60
        E 0 90 54 60
        E 0 90 56 60
        E 0 90 60 60
        E 0 90 61 60
        E 120 80 18 00
        E 0 80 1f 00
        E 0 80 3e 00
        E 0 80 48 00
        E 0 80 4a 00
        E 0 80 54 00
        E 0 80 56 00
        E 0 80 60 00
        E 0 80 61 00
        E 0 90 1e 60
        E 0 90 61 60
        E 120 80 1e 00
        E 0 80 61 00
        E 0 90 1f 60
        E 0 90 56 60
        E 0 90 61 60
        E 120 80 1f 00
        E 0 80 56 00
        E 0 80 61 00
        E 0 90 1e 60
        E 0 90 61 60
        E 120 80 1e 00
        E 0 80 61 00
        E 0 90 18 60
        E 0 90 1f 60
        E 0 90 3e 60
        E 0 90 48 60
        E 0 90 4a 60
        E 0 90 54 60
        E 0 90 56 60
        E 0 90 60 60
        E 0 90 61 60
        E 120 80 18 00
        E 0 80 1f 00
        E 0 80 3e 00
        E 0 80 48 00
        E 0 80 4a 00
        E 0 80 54 00
        E 0 80 56 00
        E 0 80 60 00
        E 0 80 61 00
        E 0 90 1e 60
        E 0 90 61 60
        E 120 80 1e 00
        E 0 80 61 00
        E 0 90 1f 60
        E 0 90 56 60
        E 0 90 61 60
        E 120 80 1f 00
        E 0 80 56 00
        E 0 80 61 00
        E 0 90 1e 60
        E 0 90 61 60
        E 120 80 1e 00
        E 0 80 61 00
        E 0 90 18 60
        E 0 90 1f 60
        E 0 90 3e 60
        E 0 90 48 60
        E 0 90 4a 60
        E 0 90 54 60
        E 0 90 56 60
        E 0 90 60 60
        E 0 90 61 60
        E 120 80 18 00
        E 0 80 1f 00
        E 0 80 3e 00
        E 0 80 48 00
        E 0 80 4a 00
        E 0 80 54 00
        E 0 80 56 00
        E 0 80 60 00
        E 0 80 61 00
        E 0 90 1e 60
        E 0 90 61 60
        E 120 80 1e 00
        E 0 80 61 00
        E 0 90 1f 60
        E 0 90 56 60
        E 0 90 61 60
        E 120 80 1f 00
        E 0 80 56 00
        E 0 80 61 00
        E 0 90 1e 60
        E 0 90 61 60
        E 120 80 1e 00
        E 0 80 61 00
        E 0 90 18 60
        E 0 90 1f 60
        E 0 90 3e 60
        E 0 90 48 60
        E 0 90 4a 60
        E 0 90 54 60
        E 0 90 56 60
        E 0 90 60 60
        E 0 90 61 60
        E 120 80 18 00
        E 0 80 1f 00
        E 0 80 3e 00
        E 0 80 48 00
        E 0 80 4a 00
        E 0 80 54 00
        E 0 80 56 00
        E 0 80 60 00
        E 0 80 61 00
        E 0 90 1e 60
        E 0 90 61 60
        E 120 80 1e 00
        E 0 80 61 00
        E 0 90 1f 60
        E 0 90 56 60
        E 0 90 61 60
        E 120 80 1f 00
        E 0 80 56 00
        E 0 80 61 00
        E 0 90 1e 60
        E 0 90 61 60
        E 120 80 1e 00
        E 0 80 61 00
        E 0 90 18 60
        E 0 90 1f 60
        E 0 90 3e 60
        E 0 90 48 60
        E 0 90 4a 60
        E 0 90 54 60
        E 0 90 56 60
        E 0 90 60 60
        E 0 90 61 60
        E 120 80 18 00
        E 0 80 1f 00
        E 0 80 3e 00
        E 0 80 48 00
        E 0 80 4a 00
        E 0 80 54 00
        E 0 80 56 00
        E 0 80 60 00
        E 0 80 61 00
        E 0 90 1e 60
        E 0 90 61 60
        E 120 80 1e 00
        E 0 80 61 00
        E 0 90 1f 60
        E 0 90 56 60
        E 0 90 61 60
        E 120 80 1f 00
        E 0 80 56 00
        E 0 80 61 00
        E 0 90 1e 60
        E 0 90 61 60
        E 120 80 1e 00
        E 0 80 61 00
        E 0 90 18 60
        E 0 90 1f 60
        E 0 90 3e 60
        E 0 90 48 60
        E 0 90 4a 60
        E 0 90 54 60
        E 0 90 56 60
        E 0 90 60 60
        E 0 90 61 60
        E 120 80 18 00
        E 0 80 1f 00
        E 0 80 3e 00
        E 0 80 48 00
        E 0 80 4a 00
        E 0 80 54 00
        E 0 80 56 00
        E 0 80 60 00
        E 0 80 61 00
        E 0 90 1e 60
        E 0 90 61 60
        E 120 80 1e 00
        E 0 80 61 00
        E 0 90 1f 60
        E 0 90 56 60
        E 0 90 61 60
        E 120 80 1f 00
        E 0 80 56 00
        E 0 80 61 00
        E 0 90 1e 60
        E 0 90 61 60
        E 120 80 1e 00
        E 0 80 61 00
        E 0 90 18 60
        E 0 90 1f 60
        E 0 90 3e 60
        E 0 90 48 60
        E 0 90 4a 60
        E 0 90 54 60
        E 0 90 56 60
        E 0 90 60 60
        E 0 90 61 60
        E 0 90 74 60
        E 120 80 18 00
        E 0 80 1f 00
        E 0 80 3e 00
        E 0 80 48 00
        E 0 80 4a 00
        E 0 80 54 00
        E 0 80 56 00
        E 0 80 60 00
        E 0 80 61 00
        E 0 90 1e 60
        E 0 90 61 60
        E 120 80 1e 00
        E 0 80 61 00
        E 0 90 1f 60
        E 0 90 56 60
        E 0 90 61 60
        E 120 80 1f 00
        E 0 80 56 00
        E 0 80 61 00
        E 0 90 1e 60
        E 0 90 61 60
        E 120 80 1e 00
        E 0 80 61 00
        E 0 90 18 60
        E 0 90 1f 60
        E 0 90 3e 60
        E 0 90 48 60
        E 0 90 4a 60
        E 0 90 54 60
        E 0 90 56 60
        E 0 90 60 60
        E 0 90 61 60
        E 120 80 18 00
        E 0 80 1f 00
        E 0 80 3e 00
        E 0 80 48 00
        E 0 80 4a 00
        E 0 80 54 00
        E 0 80 56 00
        E 0 80 60 00
        E 0 80 61 00
        E 0 90 1e 60
        E 0 90 61 60
        E 120 80 1e 00
        E 0 80 61 00
        E 0 90 1f 60
        E 0 90 56 60
        E 0 90 61 60
        E 120 80 1f 00
        E 0 80 56 00
        E 0 80 61 00
        E 0 90 1e 60
        E 0 90 61 60
        E 120 80 1e 00
        E 0 80 61 00
        E 0 90 18 60
        E 0 90 1f 60
        E 0 90 3e 60
        E 0 90 48 60
        E 0 90 4a 60
        E 0 90 54 60
        E 0 90 56 60
        E 0 90 60 60
        E 0 90 61 60
        E 120 80 18 00
        E 0 80 1f 00
        E 0 80 3e 00
        E 0 80 48 00
        E 0 80 4a 00
        E 0 80 54 00
        E 0 80 56 00
        E 0 80 60 00
        E 0 80 61 00
        E 0 90 1e 60
        E 0 90 61 60
        E 120 80 1e 00
        E 0 80 61 00
        E 0 90 1f 60
        E 0 90 56 60
        E 0 90 61 60
        E 120 80 1f 00
        E 0 80 56 00
        E 0 80 61 00
        E 0 90 1e 60
        E 0 90 61 60
        E 120 80 1e 00
        E 0 80 61 00
        E 0 90 18 60
        E 0 90 1f 60
        E 0 90 3e 60
        E 0 90 48 60
        E 0 90 4a 60
        E 0 90 54 60
        E 0 90 56 60
        E 0 90 60 60
        E 0 90 61 60
        E 120 80 18 00
        E 0 80 1f 00
        E 0 80 3e 00
        E 0 80 48 00
        E 0 80 4a 00
        E 0 80 54 00
        E 0 80 56 00
        E 0 80 60 00
        E 0 80 61 00
        E 0 90 1e 60
        E 0 90 61 60
        E 120 80 1e 00
        E 0 80 61 00
        E 0 90 1f 60
        E 0 90 56 60
        E 0 90 61 60
        E 120 80 1f 00
        E 0 80 56 00
        E 0 80 61 00
        E 0 90 1e 60
        E 0 90 61 60
        E 120 80 1e 00
        E 0 80 61 00
        E 0 90 18 60
        E 0 90 1f 60
        E 0 90 3e 60
        E 0 90 48 60
        E 0 90 4a 60
        E 0 90 54 60
        E 0 90 56 60
        E 0 90 60 60
        E 0 90 61 60
        E 120 80 18 00
        E 0 80 1f 00
        E 0 80 3e 00
        E 0 80 48 00
        E 0 80 4a 00
        E 0 80 54 00
        E 0 80 56 00
        E 0 80 60 00
        E 0 80 61 00
        E 0 90 1e 60
        E 0 90 61 60
        E 120 80 1e 00
        E 0 80 61 00
        E 0 90 1f 60
        E 0 90 56 60
        E 0 90 61 60
        E 120 80 1f 00
        E 0 80 56 00
        E 0 80 61 00
        E 0 90 1e 60
        E 0 90 61 60
        E 120 80 1e 00
        E 0 80 61 00
        E 0 90 18 60
        E 0 90 1f 60
        E 0 90 3e 60
        E 0 90 48 60
        E 0 90 4a 60
        E 0 90 54 60
        E 0 90 56 60
        E 0 90 60 60
        E 0 90 61 60
        E 120 80 18 00
        E 0 80 1f 00
        E 0 80 3e 00
        E 0 80 48 00
        E 0 80 4a 00
        E 0 80 54 00
        E 0 80 56 00
        E 0 80 60 00
        E 0 80 61 00
        E 0 90 1e 60
        E 0 90 61 60
        E 120 80 1e 00
        E 0 80 61 00
        E 0 90 1f 60
        E 0 90 56 60
        E 0 90 61 60
        E 120 80 1f 00
        E 0 80 56 00
        E 0 80 61 00
        E 0 90 1e 60
        E 0 90 61 60
        E 120 80 1e 00
        E 0 80 61 00
        E 0 90 18 60
        E 0 90 1f 60
        E 0 90 3e 60
        E 0 90 48 60
        E 0 90 4a 60
        E 0 90 54 60
        E 0 90 56 60
        E 0 90 60 60
        E 0 90 61 60
        E 120 80 18 00
        E 0 80 1f 00
        E 0 80 3e 00
        E 0 80 48 00
        E 0 80 4a 00
        E 0 80 54 00
        E 0 80 56 00
        E 0 80 60 00
        E 0 80 61 00
        E 0 90 1e 60
        E 0 90 61 60
        E 120 80 1e 00
        E 0 80 61 00
        E 0 90 1f 60
        E 0 90 56 60
        E 0 90 61 60
        E 120 80 1f 00
        E 0 80 56 00
        E 0 80 61 00
        E 0 90 1e 60
        E 0 90 61 60
        E 120 80 1e 00
        E 0 80 61 00
        E 0 90 18 60
        E 0 90 1f 60
        E 0 90 3e 60
        E 0 90 48 60
        E 0 90 4a 60
        E 0 90 54 60
        E 0 90 56 60
        E 0 90 60 60
        E 0 90 61 60
        E 120 80 18 00
        E 0 80 1f 00
        E 0 80 3e 00
        E 0 80 48 00
        E 0 80 4a 00
        E 0 80 54 00
        E 0 80 56 00
        E 0 80 60 00
        E 0 80 61 00
        E 0 90 1e 60
        E 0 90 61 60
        E 120 80 1e 00
        E 0 80 61 00
        E 0 90 1f 60
        E 0 90 56 60
        E 0 90 61 60
        E 120 80 1f 00
        E 0 80 56 00
        E 0 80 61 00
        E 0 90 1e 60
        E 0 90 61 60
        E 120 80 74 00
        E 0 80 1e 00
        E 0 80 61 00
        E 0 90 18 60
        E 0 90 1f 60
        E 0 90 3e 60
        E 0 90 48 60
        E 0 90 4a 60
        E 0 90 54 60
        E 0 90 56 60
        E 0 90 60 60
        E 0 90 61 60
        E 120 80 18 00
        E 0 80 1f 00
        E 0 80 3e 00
        E 0 80 48 00
        E 0 80 4a 00
        E 0 80 54 00
        E 0 80 56 00
        E 0 80 60 00
        E 0 80 61 00
        E 0 90 1e 60
        E 0 90 61 60
        E 120 80 1e 00
        E 0 80 61 00
        E 0 90 1f 60
        E 0 90 56 60
        E 0 90 61 60
        E 120 80 1f 00
        E 0 80 56 00
        E 0 80 61 00
        E 0 90 1e 60
        E 0 90 61 60
        E 120 80 1e 00
        E 0 80 61 00
        E 0 90 18 60
        E 0 90 1f 60
        E 0 90 3e 60
        E 0 90 48 60
        E 0 90 4a 60
        E 0 90 54 60
        E 0 90 56 60
        E 0 90 60 60
        E 0 90 61 60
        E 120 80 18 00
        E 0 80 1f 00
        E 0 80 3e 00
        E 0 80 48 00
        E 0 80 4a 00
        E 0 80 54 00
        E 0 80 56 00
        E 0 80 60 00
        E 0 80 61 00
        E 0 90 1e 60
        E 0 90 61 60
        E 120 80 1e 00
        E 0 80 61 00
        E 0 90 1f 60
        E 0 90 56 60
        E 0 90 61 60
        E 120 80 1f 00
        E 0 80 56 00
        E 0 80 61 00
        E 0 90 1e 60
        E 0 90 61 60
        E 120 80 1e 00
        E 0 80 61 00
        E 0 90 18 60
        E 0 90 1f 60
        E 0 90 3e 60
        E 0 90 48 60
        E 0 90 4a 60
        E 0 90 54 60
        E 0 90 56 60
        E 0 90 60 60
        E 0 90 61 60
        E 120 80 18 00
        E 0 80 1f 00
        E 0 80 3e 00
        E 0 80 48 00
        E 0 80 4a 00
        E 0 80 54 00
        E 0 80 56 00
        E 0 80 60 00
        E 0 80 61 00
        E 0 90 1e 60
        E 0 90 61 60
        E 120 80 1e 00
        E 0 80 61 00
        E 0 90 1f 60
        E 0 90 56 60
        E 0 90 61 60
        E 120 80 1f 00
        E 0 80 56 00
        E 0 80 61 00
        E 0 90 1e 60
        E 0 90 61 60
        E 120 80 1e 00
        E 0 80 61 00
        E 0 90 18 60
        E 0 90 1f 60
        E 0 90 3e 60
        E 0 90 48 60
        E 0 90 4a 60
        E 0 90 54 60
        E 0 90 56 60
        E 0 90 60 60
        E 0 90 61 60
        E 120 80 18 00
        E 0 80 1f 00
        E 0 80 3e 00
        E 0 80 48 00
        E 0 80 4a 00
        E 0 80 54 00
        E 0 80 56 00
        E 0 80 60 00
        E 0 80 61 00
        E 0 90 1e 60
        E 0 90 61 60
        E 120 80 1e 00
        E 0 80 61 00
        E 0 90 1f 60
        E 0 90 56 60
        E 0 90 61 60
        E 120 80 1f 00
        E 0 80 56 00
        E 0 80 61 00
        E 0 90 1e 60
        E 0 90 61 60
        E 120 80 1e 00
        E 0 80 61 00
        E 0 90 18 60
        E 0 90 1f 60
        E 0 90 3e 60
        E 0 90 48 60
        E 0 90 4a 60
        E 0 90 54 60
        E 0 90 56 60
        E 0 90 60 60
        E 0 90 61 60
        E 0 90 78 60
        E 0 90 79 60
        E 0 90 7a 60
        E 0 90 7b 60
        E 0 90 7c 60
        E 120 80 18 00
        E 0 80 1f 00
        E 0 80 3e 00
        E 0 80 48 00
        E 0 80 4a 00
        E 0 80 54 00
        E 0 80 56 00
        E 0 80 60 00
        E 0 80 61 00
        E 0 90 1e 60
        E 0 90 61 60
        E 120 80 1e 00
        E 0 80 61 00
        E 0 90 1f 60
        E 0 90 56 60
        E 0 90 61 60
        E 120 80 1f 00
        E 0 80 56 00
        E 0 80 61 00
        E 0 90 1e 60
        E 0 90 61 60
        E 120 80 1e 00
        E 0 80 61 00
        E 0 90 18 60
        E 0 90 1f 60
        E 0 90 3e 60
        E 0 90 48 60
        E 0 90 4a 60
        E 0 90 54 60
        E 0 90 56 60
        E 0 90 60 60
        E 0 90 61 60
        E 120 80 18 00
        E 0 80 1f 00
        E 0 80 3e 00
        E 0 80 48 00
        E 0 80 4a 00
        E 0 80 54 00
        E 0 80 56 00
        E 0 80 60 00
        E 0 80 61 00
        E 0 90 1e 60
        E 0 90 61 60
        E 120 80 1e 00
        E 0 80 61 00
        E 0 90 1f 60
        E 0 90 56 60
        E 0 90 61 60
        E 120 80 1f 00
        E 0 80 56 00
        E 0 80 61 00
        E 0 90 1e 60
        E 0 90 61 60
        E 120 80 1e 00
        E 0 80 61 00
        E 0 90 18 60
        E 0 90 1f 60
        E 0 90 3e 60
        E 0 90 48 60
        E 0 90 4a 60
        E 0 90 54 60
        E 0 90 56 60
        E 0 90 60 60
        E 0 90 61 60
        E 120 80 18 00
        E 0 80 1f 00
        E 0 80 3e 00
        E 0 80 48 00
        E 0 80 4a 00
        E 0 80 54 00
        E 0 80 56 00
        E 0 80 60 00
        E 0 80 61 00
        E 0 90 1e 60
        E 0 90 61 60
        E 120 80 1e 00
        E 0 80 61 00
        E 0 90 1f 60
        E 0 90 56 60
        E 0 90 61 60
        E 120 80 1f 00
        E 0 80 56 00
        E 0 80 61 00
        E 0 90 1e 60
        E 0 90 61 60
        E 120 80 1e 00
        E 0 80 61 00
        E 0 90 18 60
        E 0 90 1f 60
        E 0 90 3e 60
        E 0 90 48 60
        E 0 90 4a 60
        E 0 90 54 60
        E 0 90 56 60
        E 0 90 60 60
        E 0 90 61 60
        E 120 80 18 00
        E 0 80 1f 00
        E 0 80 3e 00
        E 0 80 48 00
        E 0 80 4a 00
        E 0 80 54 00
        E 0 80 56 00
        E 0 80 60 00
        E 0 80 61 00
        E 0 90 1e 60
        E 0 90 61 60
        E 120 80 1e 00
        E 0 80 61 00
        E 0 90 1f 60
        E 0 90 56 60
        E 0 90 61 60
        E 120 80 1f 00
        E 0 80 56 00
        E 0 80 61 00
        E 0 90 1e 60
        E 0 90 61 60
        E 120 80 78 00
        E 0 80 79 00
        E 0 80 7a 00
        E 0 80 7b 00
        E 0 80 7c 00
        E 0 80 1e 00
        E 0 80 61 00
        E 0 90 18 60
        E 0 90 24 60
        E 0 90 40 60
        E 0 90 48 60
        E 0 90 4c 60
        E 0 90 54 60
        E 0 90 58 60
        E 0 90 60 60
        E 0 90 64 60
        E 120 80 18 00
        E 0 80 24 00
        E 0 80 40 00
        E 0 80 48 00
        E 0 80 4c 00
        E 0 80 54 00
        E 0 80 58 00
        E 0 80 60 00
        E 0 80 64 00
        E 0 90 1e 60
        E 0 90 61 60
        E 120 80 1e 00
        E 0 80 61 00
        E 0 90 1f 60
        E 0 90 56 60
        E 0 90 61 60
        E 120 80 1f 00
        E 0 80 56 00
        E 0 80 61 00
        E 0 90 1e 60
        E 0 90 61 60
        E 120 80 1e 00
        E 0 80 61 00
        E 0 90 18 60
        E 0 90 1b 60
        E 0 90 3d 60
        E 0 90 3e 60
        E 0 90 49 60
        E 0 90 4a 60
        E 0 90 54 60
        E 0 90 55 60
        E 0 90 60 60
        E 0 90 62 60
        E 120 80 18 00
        E 0 80 1b 00
        E 0 80 3d 00
        E 0 80 3e 00
        E 0 80 49 00
        E 0 80 4a 00
        E 0 80 54 00
        E 0 80 55 00
        E 0 80 60 00
        E 0 80 62 00
        E 0 90 1e 60
        E 0 90 61 60
        E 120 80 1e 00
        E 0 80 61 00
        E 0 90 1f 60
        E 0 90 56 60
        E 0 90 61 60
        E 120 80 1f 00
        E 0 80 56 00
        E 0 80 61 00
        E 0 90 1e 60
        E 0 90 61 60
        E 120 80 1e 00
        E 0 80 61 00
        E 0 90 18 60
        E 0 90 1f 60
        E 0 90 3e 60
        E 0 90 48 60
        E 0 90 4a 60
        E 0 90 54 60
        E 0 90 56 60
        E 0 90 60 60
        E 0 90 61 60
        E 120 80 18 00
        E 0 80 1f 00
        E 0 80 3e 00
        E 0 80 48 00
        E 0 80 4a 00
        E 0 80 54 00
        E 0 80 56 00
        E 0 80 60 00
        E 0 80 61 00
        E 0 90 1e 60
        E 0 90 61 60
        E 120 80 1e 00
        E 0 80 61 00
        E 0 90 1f 60
        E 0 90 56 60
        E 0 90 61 60
        E 120 80 1f 00
        E 0 80 56 00
        E 0 80 61 00
        E 0 90 1e 60
        E 0 90 61 60
        E 120 80 1e 00
        E 0 80 61 00
        E 0 90 18 60
        E 0 90 1b 60
        E 0 90 3d 60
        E 0 90 3e 60
        E 0 90 49 60
        E 0 90 4a 60
        E 0 90 54 60
        E 0 90 55 60
        E 0 90 60 60
        E 0 90 62 60
        E 120 80 18 00
        E 0 80 1b 00
        E 0 80 3d 00
        E 0 80 3e 00
        E 0 80 49 00
        E 0 80 4a 00
        E 0 80 54 00
        E 0 80 55 00
        E 0 80 60 00
        E 0 80 62 00
        E 0 90 1e 60
        E 0 90 61 60
        E 120 80 1e 00
        E 0 80 61 00
        E 0 90 1f 60
        E 0 90 56 60
        E 0 90 61 60
        E 120 80 1f 00
        E 0 80 56 00
        E 0 80 61 00
        E 0 90 1e 60
        E 0 90 61 60
        E 120 80 1e 00
        E 0 80 61 00
        E 0 90 18 60
        E 0 90 1f 60
        E 0 90 3e 60
        E 0 90 48 60
        E 0 90 4a 60
        E 0 90 54 60
        E 0 90 56 60
        E 0 90 60 60
        E 0 90 61 60
        E 120 80 18 00
        E 0 80 1f 00
        E 0 80 3e 00
        E 0 80 48 00
        E 0 80 4a 00
        E 0 80 54 00
        E 0 80 56 00
        E 0 80 60 00
        E 0 80 61 00
        E 0 90 1e 60
        E 0 90 61 60
        E 120 80 1e 00
        E 0 80 61 00
        E 0 90 1f 60
        E 0 90 56 60
        E 0 90 61 60
        E 120 80 1f 00
        E 0 80 56 00
        E 0 80 61 00
        E 0 90 1e 60
        E 0 90 61 60
        E 120 80 1e 00
        E 0 80 61 00
        E 0 90 18 60
        E 0 90 1b 60
        E 0 90 3d 60
        E 0 90 3e 60
        E 0 90 49 60
        E 0 90 4a 60
        E 0 90 54 60
        E 0 90 55 60
        E 0 90 60 60
        E 0 90 62 60
        E 120 80 18 00
        E 0 80 1b 00
        E 0 80 3d 00
        E 0 80 3e 00
        E 0 80 49 00
        E 0 80 4a 00
        E 0 80 54 00
        E 0 80 55 00
        E 0 80 60 00
        E 0 80 62 00
        E 0 90 1e 60
        E 0 90 61 60
        E 120 80 1e 00
        E 0 80 61 00
        E 0 90 1f 60
        E 0 90 56 60
        E 0 90 61 60
        E 120 80 1f 00
        E 0 80 56 00
        E 0 80 61 00
        E 0 90 1e 60
        E 0 90 61 60
        E 120 80 1e 00
        E 0 80 61 00
        E 0 90 18 60
        E 0 90 1f 60
        E 0 90 3e 60
        E 0 90 48 60
        E 0 90 4a 60
        E 0 90 54 60
        E 0 90 56 60
        E 0 90 60 60
        E 0 90 61 60
        E 120 80 18 00
        E 0 80 1f 00
        E 0 80 3e 00
        E 0 80 48 00
        E 0 80 4a 00
        E 0 80 54 00
        E 0 80 56 00
        E 0 80 60 00
        E 0 80 61 00
        E 0 90 1e 60
        E 0 90 61 60
        E 120 80 1e 00
        E 0 80 61 00
        E 0 90 1b 60
        E 0 90 55 60
        E 0 90 62 60
        E 120 80 1b 00
        E 0 80 55 00
        E 0 80 62 00
        E 0 90 1a 60
        E 0 90 62 60
        E 120 80 1a 00
        E 0 80 62 00
        E 0 90 18 60
        E 0 90 1b 60
        E 0 90 3d 60
        E 0 90 3e 60
        E 0 90 49 60
        E 0 90 4a 60
        E 0 90 54 60
        E 0 90 55 60
        E 0 90 60 60
        E 0 90 62 60
        E 120 80 18 00
        E 0 80 1b 00
        E 0 80 3d 00
        E 0 80 3e 00
        E 0 80 49 00
        E 0 80 4a 00
        E 0 80 54 00
        E 0 80 55 00
        E 0 80 60 00
        E 0 80 62 00
        E 0 90 1a 60
        E 0 90 62 60
        E 120 80 1a 00
        E 0 80 62 00
        E 0 90 1b 60
        E 0 90 55 60
        E 0 90 62 60
        E 120 80 1b 00
        E 0 80 55 00
        E 0 80 62 00
        E 0 90 1a 60
        E 0 90 62 60
        E 120 80 1a 00
        E 0 80 62 00
        E 0 90 18 60
        E 0 90 1f 60
        E 0 90 3e 60
        E 0 90 48 60
        E 0 90 4a 60
        E 0 90 54 60
        E 0 90 56 60
        E 0 90 60 60
        E 0 90 61 60
        E 120 80 18 00
        E 0 80 1f 00
        E 0 80 3e 00
        E 0 80 48 00
        E 0 80 4a 00
        E 0 80 54 00
        E 0 80 56 00
        E 0 80 60 00
        E 0 80 61 00
        E 0 90 1e 60
        E 0 90 61 60
        E 120 80 1e 00
        E 0 80 61 00
        E 0 90 1f 60
        E 0 90 56 60
        E 0 90 61 60
        E 120 80 1f 00
        E 0 80 56 00
        E 0 80 61 00
        E 0 90 1e 60
        E 0 90 61 60
        E 120 80 1e 00
        E 0 80 61 00
        E 0 90 18 60
        E 0 90 1b 60
        E 0 90 3d 60
        E 0 90 3e 60
        E 0 90 49 60
        E 0 90 4a 60
        E 0 90 54 60
        E 0 90 55 60
        E 0 90 60 60
        E 0 90 62 60
        E 120 80 18 00
        E 0 80 1b 00
        E 0 80 3d 00
        E 0 80 3e 00
        E 0 80 49 00
        E 0 80 4a 00
        E 0 80 54 00
        E 0 80 55 00
        E 0 80 60 00
        E 0 80 62 00
        E 0 90 1e 60
        E 0 90 61 60
        E 120 80 1e 00
        E 0 80 61 00
        E 0 90 1f 60
        E 0 90 56 60
        E 0 90 61 60
        E 120 80 1f 00
        E 0 80 56 00
        E 0 80 61 00
        E 0 90 1e 60
        E 0 90 61 60
        E 120 80 1e 00
        E 0 80 61 00
        E 0 90 18 60
        E 0 90 1f 60
        E 0 90 3e 60
        E 0 90 48 60
        E 0 90 4a 60
        E 0 90 54 60
        E 0 90 56 60
        E 0 90 60 60
        E 0 90 61 60
        E 120 80 18 00
        E 0 80 1f 00
        E 0 80 3e 00
        E 0 80 48 00
        E 0 80 4a 00
        E 0 80 54 00
        E 0 80 56 00
        E 0 80 60 00
        E 0 80 61 00
        E 0 90 1e 60
        E 0 90 61 60
        E 120 80 1e 00
        E 0 80 61 00
        E 0 90 1f 60
        E 0 90 56 60
        E 0 90 61 60
        E 120 80 1f 00
        E 0 80 56 00
        E 0 80 61 00
        E 0 90 1e 60
        E 0 90 61 60
        E 120 80 1e 00
        E 0 80 61 00
        E 0 90 18 60
        E 0 90 1b 60
        E 0 90 3d 60
        E 0 90 3e 60
        E 0 90 49 60
        E 0 90 4a 60
        E 0 90 54 60
        E 0 90 55 60
        E 0 90 60 60
        E 0 90 62 60
        E 120 80 18 00
        E 0 80 1b 00
        E 0 80 3d 00
        E 0 80 3e 00
        E 0 80 49 00
        E 0 80 4a 00
        E 0 80 54 00
        E 0 80 55 00
        E 0 80 60 00
        E 0 80 62 00
        E 0 90 1e 60
        E 0 90 61 60
        E 120 80 1e 00
        E 0 80 61 00
        E 0 90 1f 60
        E 0 90 56 60
        E 0 90 61 60
        E 120 80 1f 00
        E 0 80 56 00
        E 0 80 61 00
        E 0 90 1e 60
        E 0 90 61 60
        E 120 80 1e 00
        E 0 80 61 00
        E 0 90 18 60
        E 0 90 1f 60
        E 0 90 3e 60
        E 0 90 48 60
        E 0 90 4a 60
        E 0 90 54 60
        E 0 90 56 60
        E 0 90 60 60
        E 0 90 61 60
        E 0 90 74 60
        E 120 80 18 00
        E 0 80 1f 00
        E 0 80 3e 00
        E 0 80 48 00
        E 0 80 4a 00
        E 0 80 54 00
        E 0 80 56 00
        E 0 80 60 00
        E 0 80 61 00
        E 0 90 1e 60
        E 0 90 61 60
        E 120 80 1e 00
        E 0 80 61 00
        E 0 90 1f 60
        E 0 90 56 60
        E 0 90 61 60
        E 120 80 1f 00
        E 0 80 56 00
        E 0 80 61 00
        E 0 90 1e 60
        E 0 90 61 60
        E 120 80 1e 00
        E 0 80 61 00
        E 0 90 18 60
        E 0 90 1b 60
        E 0 90 3d 60
        E 0 90 3e 60
        E 0 90 49 60
        E 0 90 4a 60
        E 0 90 54 60
        E 0 90 55 60
        E 0 90 60 60
        E 0 90 62 60
        E 120 80 18 00
        E 0 80 1b 00
        E 0 80 3d 00
        E 0 80 3e 00
        E 0 80 49 00
        E 0 80 4a 00
        E 0 80 54 00
        E 0 80 55 00
        E 0 80 60 00
        E 0 80 62 00
        E 0 90 1e 60
        E 0 90 61 60
        E 120 80 1e 00
        E 0 80 61 00
        E 0 90 1f 60
        E 0 90 56 60
        E 0 90 61 60
        E 120 80 1f 00
        E 0 80 56 00
        E 0 80 61 00
        E 0 90 1e 60
        E 0 90 61 60
        E 120 80 1e 00
        E 0 80 61 00
        E 0 90 18 60
        E 0 90 1f 60
        E 0 90 3e 60
        E 0 90 48 60
        E 0 90 4a 60
        E 0 90 54 60
        E 0 90 56 60
        E 0 90 60 60
        E 0 90 61 60
        E 120 80 18 00
        E 0 80 1f 00
        E 0 80 3e 00
        E 0 80 48 00
        E 0 80 4a 00
        E 0 80 54 00
        E 0 80 56 00
        E 0 80 60 00
        E 0 80 61 00
        E 0 90 1e 60
        E 0 90 61 60
        E 120 80 1e 00
        E 0 80 61 00
        E 0 90 1b 60
        E 0 90 55 60
        E 0 90 56 60
        E 0 90 62 60
        E 120 80 1b 00
        E 0 80 55 00
        E 0 80 56 00
        E 0 80 62 00
        E 0 90 1a 60
        E 0 90 62 60
        E 120 80 1a 00
        E 0 80 62 00
        E 0 90 18 60
        E 0 90 2f 60
        E 0 90 3f 60
        E 0 90 4b 60
        E 0 90 54 60
        E 0 90 57 60
        E 0 90 60 60
        E 0 90 63 60
        E 0 90 6f 60
        E 120 80 18 00
        E 0 80 2f 00
        E 0 80 3f 00
        E 0 80 4b 00
        E 0 80 54 00
        E 0 80 57 00
        E 0 80 60 00
        E 0 80 63 00
        E 0 90 2e 60
        E 0 90 63 60
        E 120 80 6f 00
        E 0 80 2e 00
        E 0 80 63 00
        E 0 90 31 60
        E 0 90 58 60
        E 0 90 64 60
        E 0 90 70 60
        E 120 80 31 00
        E 0 80 58 00
        E 0 80 64 00
        E 0 90 30 60
        E 0 90 64 60
        E 120 80 74 00
        E 0 80 70 00
        E 0 80 30 00
        E 0 80 64 00
        E 0 90 18 60
        E 0 90 1f 60
        E 0 90 3e 60
        E 0 90 48 60
        E 0 90 4a 60
        E 0 90 54 60
        E 0 90 56 60
        E 0 90 60 60
        E 0 90 61 60
        E 120 80 18 00
        E 0 80 1f 00
        E 0 80 3e 00
        E 0 80 48 00
        E 0 80 4a 00
        E 0 80 54 00
        E 0 80 56 00
        E 0 80 60 00
        E 0 80 61 00
        E 0 90 1e 60
        E 0 90 61 60
        E 120 80 1e 00
        E 0 80 61 00
        E 0 90 1f 60
        E 0 90 56 60
        E 0 90 61 60
        E 120 80 1f 00
        E 0 80 56 00
        E 0 80 61 00
        E 0 90 1e 60
        E 0 90 61 60
        E 120 80 1e 00
        E 0 80 61 00
        E 0 90 18 60
        E 0 90 1b 60
        E 0 90 3d 60
        E 0 90 3e 60
        E 0 90 49 60
        E 0 90 4a 60
        E 0 90 54 60
        E 0 90 55 60
        E 0 90 60 60
        E 0 90 62 60
        E 120 80 18 00
        E 0 80 1b 00
        E 0 80 3d 00
        E 0 80 3e 00
        E 0 80 49 00
        E 0 80 4a 00
        E 0 80 54 00
        E 0 80 55 00
        E 0 80 60 00
        E 0 80 62 00
        E 0 90 1e 60
        E 0 90 61 60
        E 120 80 1e 00
        E 0 80 61 00
        E 0 90 1f 60
        E 0 90 56 60
        E 0 90 61 60
        E 120 80 1f 00
        E 0 80 56 00
        E 0 80 61 00
        E 0 90 1e 60
        E 0 90 61 60
        E 120 80 1e 00
        E 0 80 61 00
        E 0 90 18 60
        E 0 90 1f 60
        E 0 90 3e 60
        E 0 90 48 60
        E 0 90 4a 60
        E 0 90 54 60
        E 0 90 56 60
        E 0 90 60 60
        E 0 90 61 60
        E 120 80 18 00
        E 0 80 1f 00
        E 0 80 3e 00
        E 0 80 48 00
        E 0 80 4a 00
        E 0 80 54 00
        E 0 80 56 00
        E 0 80 60 00
        E 0 80 61 00
        E 0 90 1e 60
        E 0 90 61 60
        E 120 80 1e 00
        E 0 80 61 00
        E 0 90 1f 60
        E 0 90 56 60
        E 0 90 61 60
        E 120 80 1f 00
        E 0 80 56 00
        E 0 80 61 00
        E 0 90 1e 60
        E 0 90 61 60
        E 120 80 1e 00
        E 0 80 61 00
        E 0 90 18 60
        E 0 90 1b 60
        E 0 90 3d 60
        E 0 90 3e 60
        E 0 90 49 60
        E 0 90 4a 60
        E 0 90 54 60
        E 0 90 55 60
        E 0 90 60 60
        E 0 90 62 60
        E 120 80 18 00
        E 0 80 1b 00
        E 0 80 3d 00
        E 0 80 3e 00
        E 0 80 49 00
        E 0 80 4a 00
        E 0 80 54 00
        E 0 80 55 00
        E 0 80 60 00
        E 0 80 62 00
        E 0 90 1e 60
        E 0 90 61 60
        E 120 80 1e 00
        E 0 80 61 00
        E 0 90 1f 60
        E 0 90 56 60
        E 0 90 61 60
        E 120 80 1f 00
        E 0 80 56 00
        E 0 80 61 00
        E 0 90 1e 60
        E 0 90 61 60
        E 120 80 1e 00
        E 0 80 61 00
        E 0 90 18 60
        E 0 90 1f 60
        E 0 90 3e 60
        E 0 90 48 60
        E 0 90 4a 60
        E 0 90 54 60
        E 0 90 56 60
        E 0 90 60 60
        E 0 90 61 60
        E 120 80 18 00
        E 0 80 1f 00
        E 0 80 3e 00
        E 0 80 48 00
        E 0 80 4a 00
        E 0 80 54 00
        E 0 80 56 00
        E 0 80 60 00
        E 0 80 61 00
        E 0 90 1e 60
        E 0 90 61 60
        E 120 80 1e 00
        E 0 80 61 00
        E 0 90 1f 60
        E 0 90 56 60
        E 0 90 61 60
        E 120 80 1f 00
        E 0 80 56 00
        E 0 80 61 00
        E 0 90 1e 60
        E 0 90 61 60
        E 120 80 1e 00
        E 0 80 61 00
        E 0 90 18 60
        E 0 90 1b 60
        E 0 90 3d 60
        E 0 90 3e 60
        E 0 90 49 60
        E 0 90 4a 60
        E 0 90 54 60
        E 0 90 55 60
        E 0 90 60 60
        E 0 90 62 60
        E 120 80 18 00
        E 0 80 1b 00
        E 0 80 3d 00
        E 0 80 3e 00
        E 0 80 49 00
        E 0 80 4a 00
        E 0 80 54 00
        E 0 80 55 00
        E 0 80 60 00
        E 0 80 62 00
        E 0 90 1e 60
        E 0 90 61 60
        E 120 80 1e 00
        E 0 80 61 00
        E 0 90 1f 60
        E 0 90 56 60
        E 0 90 61 60
        E 120 80 1f 00
        E 0 80 56 00
        E 0 80 61 00
        E 0 90 1e 60
        E 0 90 61 60
        E 120 80 1e 00
        E 0 80 61 00
        E 0 90 18 60
        E 0 90 1f 60
        E 0 90 3e 60
        E 0 90 48 60
        E 0 90 4a 60
        E 0 90 54 60
        E 0 90 56 60
        E 0 90 60 60
        E 0 90 61 60
        E 120 80 18 00
        E 0 80 1f 00
        E 0 80 3e 00
        E 0 80 48 00
        E 0 80 4a 00
        E 0 80 54 00
        E 0 80 56 00
        E 0 80 60 00
        E 0 80 61 00
        E 0 90 1e 60
        E 0 90 61 60
        E 120 80 1e 00
        E 0 80 61 00
        E 0 90 1b 60
        E 0 90 55 60
        E 0 90 62 60
        E 120 80 1b 00
        E 0 80 55 00
        E 0 80 62 00
        E 0 90 1a 60
        E 0 90 62 60
        E 120 80 1a 00
        E 0 80 62 00
        E 0 90 18 60
        E 0 90 1b 60
        E 0 90 3d 60
        E 0 90 3e 60
        E 0 90 49 60
        E 0 90 4a 60
        E 0 90 54 60
        E 0 90 55 60
        E 0 90 60 60
        E 0 90 62 60
        E 120 80 18 00
        E 0 80 1b 00
        E 0 80 3d 00
        E 0 80 3e 00
        E 0 80 49 00
        E 0 80 4a 00
        E 0 80 54 00
        E 0 80 55 00
        E 0 80 60 00
        E 0 80 62 00
        E 0 90 1a 60
        E 0 90 62 60
        E 120 80 1a 00
        E 0 80 62 00
        E 0 90 1b 60
        E 0 90 55 60
        E 0 90 62 60
        E 120 80 1b 00
        E 0 80 55 00
        E 0 80 62 00
        E 0 90 1a 60
        E 0 90 62 60
        E 120 80 1a 00
        E 0 80 62 00
        E 0 90 18 60
        E 0 90 1f 60
        E 0 90 3e 60
        E 0 90 48 60
        E 0 90 4a 60
        E 0 90 54 60
        E 0 90 56 60
        E 0 90 60 60
        E 0 90 61 60
        E 120 80 18 00
        E 0 80 1f 00
        E 0 80 3e 00
        E 0 80 48 00
        E 0 80 4a 00
        E 0 80 54 00
        E 0 80 56 00
        E 0 80 60 00
        E 0 80 61 00
        E 0 90 1e 60
        E 0 90 61 60
        E 120 80 1e 00
        E 0 80 61 00
        E 0 90 1f 60
        E 0 90 56 60
        E 0 90 61 60
        E 120 80 1f 00
        E 0 80 56 00
        E 0 80 61 00
        E 0 90 1e 60
        E 0 90 61 60
        E 120 80 1e 00
        E 0 80 61 00
        E 0 90 18 60
        E 0 90 1b 60
        E 0 90 3d 60
        E 0 90 3e 60
        E 0 90 49 60
        E 0 90 4a 60
        E 0 90 54 60
        E 0 90 55 60
        E 0 90 60 60
        E 0 90 62 60
        E 120 80 18 00
        E 0 80 1b 00
        E 0 80 3d 00
        E 0 80 3e 00
        E 0 80 49 00
        E 0 80 4a 00
        E 0 80 54 00
        E 0 80 55 00
        E 0 80 60 00
        E 0 80 62 00
        E 0 90 1e 60
        E 0 90 61 60
        E 120 80 1e 00
        E 0 80 61 00
        E 0 90 1f 60
        E 0 90 56 60
        E 0 90 61 60
        E 120 80 1f 00
        E 0 80 56 00
        E 0 80 61 00
        E 0 90 1e 60
        E 0 90 61 60
        E 120 80 1e 00
        E 0 80 61 00
        E 0 90 18 60
        E 0 90 1f 60
        E 0 90 3e 60
        E 0 90 48 60
        E 0 90 4a 60
        E 0 90 54 60
        E 0 90 56 60
        E 0 90 60 60
        E 0 90 61 60
        E 120 80 18 00
        E 0 80 1f 00
        E 0 80 3e 00
        E 0 80 48 00
        E 0 80 4a 00
        E 0 80 54 00
        E 0 80 56 00
        E 0 80 60 00
        E 0 80 61 00
        E 0 90 1e 60
        E 0 90 61 60
        E 120 80 1e 00
        E 0 80 61 00
        E 0 90 1f 60
        E 0 90 56 60
        E 0 90 61 60
        E 120 80 1f 00
        E 0 80 56 00
        E 0 80 61 00
        E 0 90 1e 60
        E 0 90 61 60
        E 120 80 1e 00
        E 0 80 61 00
        E 0 90 18 60
        E 0 90 1b 60
        E 0 90 3d 60
        E 0 90 3e 60
        E 0 90 49 60
        E 0 90 4a 60
        E 0 90 54 60
        E 0 90 55 60
        E 0 90 60 60
        E 0 90 62 60
        E 120 80 18 00
        E 0 80 1b 00
        E 0 80 3d 00
        E 0 80 3e 00
        E 0 80 49 00
        E 0 80 4a 00
        E 0 80 54 00
        E 0 80 55 00
        E 0 80 60 00
        E 0 80 62 00
        E 0 90 1e 60
        E 0 90 61 60
        E 120 80 1e 00
        E 0 80 61 00
        E 0 90 1f 60
        E 0 90 56 60
        E 0 90 61 60
        E 120 80 1f 00
        E 0 80 56 00
        E 0 80 61 00
        E 0 90 1e 60
        E 0 90 61 60
        E 120 80 1e 00
        E 0 80 61 00
        E 0 90 18 60
        E 0 90 1f 60
        E 0 90 3e 60
        E 0 90 48 60
        E 0 90 4a 60
        E 0 90 54 60
        E 0 90 56 60
        E 0 90 60 60
        E 0 90 61 60
        E 0 90 78 60
        E 0 90 79 60
        E 0 90 7a 60
        E 0 90 7b 60
        E 0 90 7c 60
        E 120 80 18 00
        E 0 80 1f 00
        E 0 80 3e 00
        E 0 80 48 00
        E 0 80 4a 00
        E 0 80 54 00
        E 0 80 56 00
        E 0 80 60 00
        E 0 80 61 00
        E 0 90 1e 60
        E 0 90 61 60
        E 120 80 1e 00
        E 0 80 61 00
        E 0 90 1f 60
        E 0 90 56 60
        E 0 90 61 60
        E 120 80 1f 00
        E 0 80 56 00
        E 0 80 61 00
        E 0 90 1e 60
        E 0 90 61 60
        E 120 80 1e 00
        E 0 80 61 00
        E 0 90 18 60
        E 0 90 1b 60
        E 0 90 3d 60
        E 0 90 3e 60
        E 0 90 49 60
        E 0 90 4a 60
        E 0 90 54 60
        E 0 90 55 60
        E 0 90 60 60
        E 0 90 62 60
        E 120 80 18 00
        E 0 80 1b 00
        E 0 80 3d 00
        E 0 80 3e 00
        E 0 80 49 00
        E 0 80 4a 00
        E 0 80 54 00
        E 0 80 55 00
        E 0 80 60 00
        E 0 80 62 00
        E 0 90 1e 60
        E 0 90 61 60
        E 120 80 1e 00
        E 0 80 61 00
        E 0 90 1f 60
        E 0 90 56 60
        E 0 90 61 60
        E 120 80 1f 00
        E 0 80 56 00
        E 0 80 61 00
        E 0 90 1e 60
        E 0 90 61 60
        E 120 80 1e 00
        E 0 80 61 00
        E 0 90 18 60
        E 0 90 1f 60
        E 0 90 3e 60
        E 0 90 48 60
        E 0 90 4a 60
        E 0 90 54 60
        E 0 90 56 60
        E 0 90 60 60
        E 0 90 61 60
        E 120 80 18 00
        E 0 80 1f 00
        E 0 80 3e 00
        E 0 80 48 00
        E 0 80 4a 00
        E 0 80 54 00
        E 0 80 56 00
        E 0 80 60 00
        E 0 80 61 00
        E 0 90 1e 60
        E 0 90 61 60
        E 120 80 1e 00
        E 0 80 61 00
        E 0 90 1b 60
        E 0 90 55 60
        E 0 90 62 60
        E 120 80 1b 00
        E 0 80 55 00
        E 0 80 62 00
        E 0 90 1a 60
        E 0 90 62 60
        E 120 80 1a 00
        E 0 80 62 00
        E 0 90 18 60
        E 0 90 2f 60
        E 0 90 3f 60
        E 0 90 4b 60
        E 0 90 54 60
        E 0 90 57 60
        E 0 90 60 60
        E 0 90 63 60
        E 0 90 6f 60
        E 120 80 18 00
        E 0 80 2f 00
        E 0 80 3f 00
        E 0 80 4b 00
        E 0 80 54 00
        E 0 80 57 00
        E 0 80 60 00
        E 0 80 63 00
        E 0 90 2e 60
        E 0 90 63 60
        E 120 80 6f 00
        E 0 80 2e 00
        E 0 80 63 00
        E 0 90 31 60
        E 0 90 58 60
        E 0 90 64 60
        E 0 90 70 60
        E 120 80 31 00
        E 0 80 58 00
        E 0 80 64 00
        E 0 90 30 60
        E 0 90 64 60
        <X 120 0
          /wFbbWl4IDMgZHJ1bXMwXQ==
        >
        <X 0 0
          /wFbaW50ZW5zZV0=
        >
        E 0 80 78 00
        E 0 80 79 00
        E 0 80 7a 00
        E 0 80 7b 00
        E 0 80 7c 00
        E 0 80 70 00
        E 0 80 30 00
        E 0 80 64 00
        E 0 90 18 60
        E 0 90 24 60
        E 0 90 40 60
        E 0 90 48 60
        E 0 90 4c 60
        E 0 90 54 60
        E 0 90 58 60
        E 0 90 60 60
        E 0 90 64 60
        E 120 80 18 00
        E 0 80 24 00
        E 0 80 40 00
        E 0 80 48 00
        E 0 80 4c 00
        E 0 80 54 00
        E 0 80 58 00
        E 0 80 60 00
        E 0 80 64 00
        E 120 90 19 60
        E 0 90 2a 60
        E 0 90 57 60
        E 0 90 63 60
        E 120 80 2a 00
        E 0 80 57 00
        E 0 80 63 00
        E 120 80 19 00
        E 0 90 18 60
        E 0 90 2a 60
        E 0 90 3f 60
        E 0 90 48 60
        E 0 90 4b 60
        E 0 90 54 60
        E 0 90 57 60
        E 0 90 60 60
        E 0 90 63 60
        E 120 80 18 00
        E 0 80 2a 00
        E 0 80 3f 00
        E 0 80 48 00
        E 0 80 4b 00
        E 0 80 54 00
        E 0 80 57 00
        E 0 80 60 00
        E 0 80 63 00
        E 120 90 19 60
        E 0 90 2a 60
        E 0 90 57 60
        E 0 90 63 60
        E 120 80 2a 00
        E 0 80 57 00
        E 0 80 63 00
        E 120 80 19 00
        E 0 90 18 60
        E 0 90 2a 60
        E 0 90 3f 60
        E 0 90 48 60
        E 0 90 4b 60
        E 0 90 54 60
        E 0 90 57 60
        E 0 90 60 60
        E 0 90 63 60
        E 120 80 18 00
        E 0 80 2a 00
        E 0 80 3f 00
        E 0 80 48 00
        E 0 80 4b 00
        E 0 80 54 00
        E 0 80 57 00
        E 0 80 60 00
        E 0 80 63 00
        E 120 90 19 60
        E 0 90 2a 60
        E 0 90 57 60
        E 0 90 63 60
        E 120 80 2a 00
        E 0 80 57 00
        E 0 80 63 00
        E 120 80 19 00
        E 0 90 18 60
        E 0 90 1a 60
        E 0 90 2a 60
        E 0 90 3d 60
        E 0 90 3f 60
        E 0 90 49 60
        E 0 90 4b 60
        E 0 90 54 60
        E 0 90 55 60
        E 0 90 57 60
        E 0 90 60 60
        E 0 90 61 60
        E 0 90 63 60
        E 120 80 18 00
        E 0 80 1a 00
        E 0 80 2a 00
        E 0 80 3d 00
        E 0 80 3f 00
        E 0 80 49 00
        E 0 80 4b 00
        E 0 80 54 00
        E 0 80 55 00
        E 0 80 57 00
        E 0 80 60 00
        E 0 80 61 00
        E 0 80 63 00
        E 0 90 18 60
        E 0 90 60 60
        E 120 80 18 00
        E 0 80 60 00
        E 0 90 19 60
        E 0 90 2a 60
        E 0 90 57 60
        E 0 90 63 60
        E 120 80 2a 00
        E 0 80 57 00
        E 0 80 63 00
        E 120 80 19 00
        E 0 90 18 60
        E 0 90 2a 60
        E 0 90 3f 60
        E 0 90 48 60
        E 0 90 4b 60
        E 0 90 54 60
        E 0 90 57 60
        E 0 90 60 60
        E 0 90 63 60
        E 120 80 18 00
        E 0 80 2a 00
        E 0 80 3f 00
        E 0 80 48 00
        E 0 80 4b 00
        E 0 80 54 00
        E 0 80 57 00
        E 0 80 60 00
        E 0 80 63 00
        E 120 90 19 60
        E 0 90 2a 60
        E 0 90 57 60
        E 0 90 63 60
        E 120 80 2a 00
        E 0 80 57 00
        E 0 80 63 00
        E 120 80 19 00
        E 0 90 18 60
        E 0 90 2a 60
        E 0 90 3f 60
        E 0 90 48 60
        E 0 90 4b 60
        E 0 90 54 60
        E 0 90 57 60
        E 0 90 60 60
        E 0 90 63 60
        E 120 80 18 00
        E 0 80 2a 00
        E 0 80 3f 00
        E 0 80 48 00
        E 0 80 4b 00
        E 0 80 54 00
        E 0 80 57 00
        E 0 80 60 00
        E 0 80 63 00
        E 120 90 19 60
        E 0 90 2a 60
        E 0 90 57 60
        E 0 90 63 60
        E 120 80 2a 00
        E 0 80 57 00
        E 0 80 63 00
        E 120 80 19 00
        E 0 90 18 60
        E 0 90 2a 60
        E 0 90 3f 60
        E 0 90 48 60
        E 0 90 4b 60
        E 0 90 54 60
        E 0 90 57 60
        E 0 90 60 60
        E 0 90 63 60
        E 120 80 18 00
        E 0 80 2a 00
        E 0 80 3f 00
        E 0 80 48 00
        E 0 80 4b 00
        E 0 80 54 00
        E 0 80 57 00
        E 0 80 60 00
        E 0 80 63 00
        E 120 90 19 60
        E 0 90 2a 60
        E 0 90 57 60
        E 0 90 63 60
        E 120 80 2a 00
        E 0 80 57 00
        E 0 80 63 00
        E 120 80 19 00
        E 0 90 18 60
        E 0 90 1a 60
        E 0 90 2a 60
        E 0 90 3d 60
        E 0 90 3f 60
        E 0 90 49 60
        E 0 90 4b 60
        E 0 90 54 60
        E 0 90 55 60
        E 0 90 57 60
        E 0 90 60 60
        E 0 90 61 60
        E 0 90 63 60
        E 120 80 18 00
        E 0 80 1a 00
        E 0 80 2a 00
        E 0 80 3d 00
        E 0 80 3f 00
        E 0 80 49 00
        E 0 80 4b 00
        E 0 80 54 00
        E 0 80 55 00
        E 0 80 57 00
        E 0 80 60 00
        E 0 80 61 00
        E 0 80 63 00
        E 0 90 18 60
        E 0 90 60 60
        E 120 80 18 00
        E 0 80 60 00
        E 0 90 19 60
        E 0 90 2a 60
        E 0 90 57 60
        E 0 90 63 60
        E 120 80 2a 00
        E 0 80 57 00
        E 0 80 63 00
        E 120 80 19 00
        E 0 90 18 60
        E 0 90 2a 60
        E 0 90 3f 60
        E 0 90 48 60
        E 0 90 4b 60
        E 0 90 54 60
        E 0 90 57 60
        E 0 90 60 60
        E 0 90 63 60
        E 120 80 18 00
        E 0 80 2a 00
        E 0 80 3f 00
        E 0 80 48 00
        E 0 80 4b 00
        E 0 80 54 00
        E 0 80 57 00
        E 0 80 60 00
        E 0 80 63 00
        E 120 90 19 60
        E 0 90 2a 60
        E 0 90 57 60
        E 0 90 63 60
        E 120 80 2a 00
        E 0 80 57 00
        E 0 80 63 00
        E 120 80 19 00
        E 0 90 18 60
        E 0 90 2a 60
        E 0 90 3f 60
        E 0 90 48 60
        E 0 90 4b 60
        E 0 90 54 60
        E 0 90 57 60
        E 0 90 60 60
        E 0 90 63 60
        E 120 80 18 00
        E 0 80 2a 00
        E 0 80 3f 00
        E 0 80 48 00
        E 0 80 4b 00
        E 0 80 54 00
        E 0 80 57 00
        E 0 80 60 00
        E 0 80 63 00
        E 120 90 19 60
        E 0 90 2a 60
        E 0 90 57 60
        E 0 90 63 60
        E 120 80 2a 00
        E 0 80 57 00
        E 0 80 63 00
        E 120 80 19 00
        E 0 90 18 60
        E 0 90 2a 60
        E 0 90 3f 60
        E 0 90 48 60
        E 0 90 4b 60
        E 0 90 54 60
        E 0 90 57 60
        E 0 90 60 60
        E 0 90 63 60
        E 120 80 18 00
        E 0 80 2a 00
        E 0 80 3f 00
        E 0 80 48 00
        E 0 80 4b 00
        E 0 80 54 00
        E 0 80 57 00
        E 0 80 60 00
        E 0 80 63 00
        E 120 90 19 60
        E 0 90 2a 60
        E 0 90 57 60
        E 0 90 63 60
        E 120 80 2a 00
        E 0 80 57 00
        E 0 80 63 00
        E 120 80 19 00
        E 0 90 18 60
        E 0 90 1a 60
        E 0 90 2a 60
        E 0 90 3d 60
        E 0 90 3f 60
        E 0 90 49 60
        E 0 90 4b 60
        E 0 90 54 60
        E 0 90 55 60
        E 0 90 57 60
        E 0 90 60 60
        E 0 90 61 60
        E 0 90 63 60
        E 120 80 18 00
        E 0 80 1a 00
        E 0 80 2a 00
        E 0 80 3d 00
        E 0 80 3f 00
        E 0 80 49 00
        E 0 80 4b 00
        E 0 80 54 00
        E 0 80 55 00
        E 0 80 57 00
        E 0 80 60 00
        E 0 80 61 00
        E 0 80 63 00
        E 0 90 18 60
        E 0 90 60 60
        E 120 80 18 00
        E 0 80 60 00
        E 0 90 19 60
        E 0 90 2a 60
        E 0 90 57 60
        E 0 90 63 60
        E 120 80 2a 00
        E 0 80 57 00
        E 0 80 63 00
        E 120 80 19 00
        E 0 90 18 60
        E 0 90 2a 60
        E 0 90 3f 60
        E 0 90 48 60
        E 0 90 4b 60
        E 0 90 54 60
        E 0 90 57 60
        E 0 90 60 60
        E 0 90 63 60
        E 0 90 78 60
        E 0 90 79 60
        E 0 90 7a 60
        E 0 90 7b 60
        E 0 90 7c 60
        E 120 80 18 00
        E 0 80 2a 00
        E 0 80 3f 00
        E 0 80 48 00
        E 0 80 4b 00
        E 0 80 54 00
        E 0 80 57 00
        E 0 80 60 00
        E 0 80 63 00
        E 120 90 19 60
        E 0 90 2a 60
        E 0 90 57 60
        E 0 90 63 60
        E 120 80 2a 00
        E 0 80 57 00
        E 0 80 63 00
        E 120 80 19 00
        E 0 90 18 60
        E 0 90 2a 60
        E 0 90 3f 60
        E 0 90 48 60
        E 0 90 4b 60
        E 0 90 54 60
        E 0 90 57 60
        E 0 90 60 60
        E 0 90 63 60
        E 120 80 18 00
        E 0 80 2a 00
        E 0 80 3f 00
        E 0 80 48 00
        E 0 80 4b 00
        E 0 80 54 00
        E 0 80 57 00
        E 0 80 60 00
        E 0 80 63 00
        E 120 90 19 60
        E 0 90 2a 60
        E 0 90 57 60
        E 0 90 63 60
        E 120 80 2a 00
        E 0 80 57 00
        E 0 80 63 00
        E 120 80 19 00
        E 0 90 18 60
        E 0 90 2a 60
        E 0 90 3f 60
        E 0 90 48 60
        E 0 90 4b 60
        E 0 90 54 60
        E 0 90 57 60
        E 0 90 60 60
        E 0 90 63 60
        E 120 80 18 00
        E 0 80 2a 00
        E 0 80 3f 00
        E 0 80 48 00
        E 0 80 4b 00
        E 0 80 54 00
        E 0 80 57 00
        E 0 80 60 00
        E 0 80 63 00
        E 120 90 18 60
        E 0 90 19 60
        E 0 90 2a 60
        E 0 90 54 60
        E 0 90 57 60
        E 0 90 60 60
        E 0 90 63 60
        E 120 80 18 00
        E 0 80 2a 00
        E 0 80 54 00
        E 0 80 57 00
        E 0 80 60 00
        E 0 80 63 00
        E 0 90 18 60
        E 0 90 60 60
        E 120 80 19 00
        E 0 80 18 00
        E 0 80 60 00
        E 0 90 1a 60
        E 0 90 2a 60
        E 0 90 3d 60
        E 0 90 3f 60
        E 0 90 49 60
        E 0 90 4b 60
        E 0 90 55 60
        E 0 90 57 60
        E 0 90 61 60
        E 0 90 63 60
        E 120 80 1a 00
        E 0 80 2a 00
        E 0 80 3d 00
        E 0 80 3f 00
        E 0 80 49 00
        E 0 80 4b 00
        E 0 80 55 00
        E 0 80 57 00
        E 0 80 61 00
        E 0 80 63 00
        E 0 90 18 60
        E 0 90 60 60
        E 120 80 18 00
        E 0 80 60 00
        E 0 90 19 60
        E 0 90 2a 60
        E 0 90 57 60
        E 0 90 63 60
        E 120 80 2a 00
        E 0 80 57 00
        E 0 80 63 00
        E 120 80 78 00
        E 0 80 79 00
        E 0 80 7a 00
        E 0 80 7b 00
        E 0 80 7c 00
        E 0 80 19 00
        E 0 90 18 60
        E 0 90 24 60
        E 0 90 40 60
        E 0 90 48 60
        E 0 90 4c 60
        E 0 90 54 60
        E 0 90 58 60
        E 0 90 60 60
        E 0 90 64 60
        E 120 80 18 00
        E 0 80 24 00
        E 0 80 40 00
        E 0 80 48 00
        E 0 80 4c 00
        E 0 80 54 00
        E 0 80 58 00
        E 0 80 60 00
        E 0 80 64 00
        E 120 90 19 60
        E 0 90 2a 60
        E 0 90 57 60
        E 0 90 63 60
        E 120 80 2a 00
        E 0 80 57 00
        E 0 80 63 00
        E 120 80 19 00
        E 0 90 18 60
        E 0 90 2a 60
        E 0 90 3f 60
        E 0 90 48 60
        E 0 90 4b 60
        E 0 90 54 60
        E 0 90 57 60
        E 0 90 60 60
        E 0 90 63 60
        E 120 80 18 00
        E 0 80 2a 00
        E 0 80 3f 00
        E 0 80 48 00
        E 0 80 4b 00
        E 0 80 54 00
        E 0 80 57 00
        E 0 80 60 00
        E 0 80 63 00
        E 120 90 19 60
        E 0 90 2a 60
        E 0 90 57 60
        E 0 90 63 60
        E 120 80 2a 00
        E 0 80 57 00
        E 0 80 63 00
        E 120 80 19 00
        E 0 90 18 60
        E 0 90 2a 60
        E 0 90 3f 60
        E 0 90 48 60
        E 0 90 4b 60
        E 0 90 54 60
        E 0 90 57 60
        E 0 90 60 60
        E 0 90 63 60
        E 120 80 18 00
        E 0 80 2a 00
        E 0 80 3f 00
        E 0 80 48 00
        E 0 80 4b 00
        E 0 80 54 00
        E 0 80 57 00
        E 0 80 60 00
        E 0 80 63 00
        E 120 90 19 60
        E 0 90 2a 60
        E 0 90 57 60
        E 0 90 63 60
        E 120 80 2a 00
        E 0 80 57 00
        E 0 80 63 00
        E 120 80 19 00
        E 0 90 18 60
        E 0 90 1a 60
        E 0 90 2a 60
        E 0 90 3d 60
        E 0 90 3f 60
        E 0 90 49 60
        E 0 90 4b 60
        E 0 90 54 60
        E 0 90 55 60
        E 0 90 57 60
        E 0 90 60 60
        E 0 90 61 60
        E 0 90 63 60
        E 120 80 18 00
        E 0 80 1a 00
        E 0 80 2a 00
        E 0 80 3d 00
        E 0 80 3f 00
        E 0 80 49 00
        E 0 80 4b 00
        E 0 80 54 00
        E 0 80 55 00
        E 0 80 57 00
        E 0 80 60 00
        E 0 80 61 00
        E 0 80 63 00
        E 0 90 18 60
        E 0 90 60 60
        E 120 80 18 00
        E 0 80 60 00
        E 0 90 19 60
        E 0 90 2a 60
        E 0 90 57 60
        E 0 90 63 60
        E 120 80 2a 00
        E 0 80 57 00
        E 0 80 63 00
        E 120 80 19 00
        E 0 90 18 60
        E 0 90 2a 60
        E 0 90 3f 60
        E 0 90 48 60
        E 0 90 4b 60
        E 0 90 54 60
        E 0 90 57 60
        E 0 90 60 60
        E 0 90 63 60
        E 0 90 74 60
        E 120 80 18 00
        E 0 80 2a 00
        E 0 80 3f 00
        E 0 80 48 00
        E 0 80 4b 00
        E 0 80 54 00
        E 0 80 57 00
        E 0 80 60 00
        E 0 80 63 00
        E 0 90 2a 60
        E 0 90 63 60
        E 120 80 2a 00
        E 0 80 63 00
        E 0 90 19 60
        E 0 90 2a 60
        E 0 90 57 60
        E 0 90 63 60
        E 120 80 2a 00
        E 0 80 57 00
        E 0 80 63 00
        E 120 80 19 00
        E 0 90 18 60
        E 0 90 2a 60
        E 0 90 3f 60
        E 0 90 48 60
        E 0 90 4b 60
        E 0 90 54 60
        E 0 90 57 60
        E 0 90 60 60
        E 0 90 63 60
        E 120 80 18 00
        E 0 80 2a 00
        E 0 80 3f 00
        E 0 80 48 00
        E 0 80 4b 00
        E 0 80 54 00
        E 0 80 57 00
        E 0 80 60 00
        E 0 80 63 00
        E 120 90 19 60
        E 0 90 2a 60
        E 0 90 57 60
        E 0 90 63 60
        E 120 80 2a 00
        E 0 80 57 00
        E 0 80 63 00
        E 0 90 2a 60
        E 0 90 63 60
        E 120 80 19 00
        E 0 80 2a 00
        E 0 80 63 00
        E 0 90 18 60
        E 0 90 2a 60
        E 0 90 3f 60
        E 0 90 48 60
        E 0 90 4b 60
        E 0 90 54 60
        E 0 90 57 60
        E 0 90 60 60
        E 0 90 63 60
        E 120 80 18 00
        E 0 80 2a 00
        E 0 80 3f 00
        E 0 80 48 00
        E 0 80 4b 00
        E 0 80 54 00
        E 0 80 57 00
        E 0 80 60 00
        E 0 80 63 00
        E 120 90 19 60
        E 0 90 2a 60
        E 0 90 57 60
        E 0 90 63 60
        E 120 80 2a 00
        E 0 80 57 00
        E 0 80 63 00
        E 120 80 19 00
        E 0 90 18 60
        E 0 90 1a 60
        E 0 90 2a 60
        E 0 90 3d 60
        E 0 90 3f 60
        E 0 90 49 60
        E 0 90 4b 60
        E 0 90 54 60
        E 0 90 55 60
        E 0 90 57 60
        E 0 90 60 60
        E 0 90 61 60
        E 0 90 63 60
        E 120 80 18 00
        E 0 80 1a 00
        E 0 80 2a 00
        E 0 80 3d 00
        E 0 80 3f 00
        E 0 80 49 00
        E 0 80 4b 00
        E 0 80 54 00
        E 0 80 55 00
        E 0 80 57 00
        E 0 80 60 00
        E 0 80 61 00
        E 0 80 63 00
        E 0 90 18 60
        E 0 90 60 60
        E 120 80 18 00
        E 0 80 60 00
        E 0 90 19 60
        E 0 90 2a 60
        E 0 90 57 60
        E 0 90 63 60
        E 120 80 2a 00
        E 0 80 57 00
        E 0 80 63 00
        E 120 80 74 00
        E 0 80 19 00
        E 0 90 18 60
        E 0 90 2a 60
        E 0 90 3f 60
        E 0 90 48 60
        E 0 90 4b 60
        E 0 90 54 60
        E 0 90 57 60
        E 0 90 60 60
        E 0 90 63 60
        E 120 80 18 00
        E 0 80 2a 00
        E 0 80 3f 00
        E 0 80 48 00
        E 0 80 4b 00
        E 0 80 54 00
        E 0 80 57 00
        E 0 80 60 00
        E 0 80 63 00
        E 120 90 19 60
        E 0 90 2a 60
        E 0 90 57 60
        E 0 90 63 60
        E 120 80 2a 00
        E 0 80 57 00
        E 0 80 63 00
        E 120 80 19 00
        E 0 90 18 60
        E 0 90 2a 60
        E 0 90 3f 60
        E 0 90 48 60
        E 0 90 4b 60
        E 0 90 54 60
        E 0 90 57 60
        E 0 90 60 60
        E 0 90 63 60
        E 120 80 18 00
        E 0 80 2a 00
        E 0 80 3f 00
        E 0 80 48 00
        E 0 80 4b 00
        E 0 80 54 00
        E 0 80 57 00
        E 0 80 60 00
        E 0 80 63 00
        E 120 90 19 60
        E 0 90 2a 60
        E 0 90 57 60
        E 0 90 63 60
        E 120 80 2a 00
        E 0 80 57 00
        E 0 80 63 00
        E 120 80 19 00
        E 0 90 18 60
        E 0 90 2a 60
        E 0 90 3f 60
        E 0 90 48 60
        E 0 90 4b 60
        E 0 90 54 60
        E 0 90 57 60
        E 0 90 60 60
        E 0 90 63 60
        E 120 80 18 00
        E 0 80 2a 00
        E 0 80 3f 00
        E 0 80 48 00
        E 0 80 4b 00
        E 0 80 54 00
        E 0 80 57 00
        E 0 80 60 00
        E 0 80 63 00
        E 120 90 19 60
        E 0 90 2a 60
        E 0 90 57 60
        E 0 90 63 60
        E 120 80 2a 00
        E 0 80 57 00
        E 0 80 63 00
        E 120 80 19 00
        E 0 90 18 60
        E 0 90 1a 60
        E 0 90 2a 60
        E 0 90 3d 60
        E 0 90 3f 60
        E 0 90 49 60
        E 0 90 4b 60
        E 0 90 54 60
        E 0 90 55 60
        E 0 90 57 60
        E 0 90 60 60
        E 0 90 61 60
        E 0 90 63 60
        E 120 80 18 00
        E 0 80 1a 00
        E 0 80 2a 00
        E 0 80 3d 00
        E 0 80 3f 00
        E 0 80 49 00
        E 0 80 4b 00
        E 0 80 54 00
        E 0 80 55 00
        E 0 80 57 00
        E 0 80 60 00
        E 0 80 61 00
        E 0 80 63 00
        E 0 90 18 60
        E 0 90 60 60
        E 120 80 18 00
        E 0 80 60 00
        E 0 90 19 60
        E 0 90 2a 60
        E 0 90 57 60
        E 0 90 63 60
        E 120 80 2a 00
        E 0 80 57 00
        E 0 80 63 00
        E 120 80 19 00
        E 0 90 18 60
        E 0 90 24 60
        E 0 90 40 60
        E 0 90 48 60
        E 0 90 4c 60
        E 0 90 54 60
        E 0 90 58 60
        E 0 90 60 60
        E 0 90 64 60
        E 0 90 78 60
        E 0 90 79 60
        E 0 90 7a 60
        E 0 90 7b 60
        E 0 90 7c 60
        E 120 80 18 00
        E 0 80 24 00
        E 0 80 40 00
        E 0 80 48 00
        E 0 80 4c 00
        E 0 80 54 00
        E 0 80 58 00
        E 0 80 60 00
        E 0 80 64 00
        E 120 90 19 60
        E 240 80 19 00
        E 0 90 18 60
        E 0 90 24 60
        E 0 90 40 60
        E 0 90 48 60
        E 0 90 4c 60
        E 0 90 54 60
        E 0 90 58 60
        E 0 90 60 60
        E 0 90 64 60
        E 120 80 18 00
        E 0 80 24 00
        E 0 80 40 00
        E 0 80 48 00
        E 0 80 4c 00
        E 0 80 54 00
        E 0 80 58 00
        E 0 80 60 00
        E 0 80 64 00
        E 120 90 19 60
        E 240 80 19 00
        E 0 90 18 60
        E 0 90 24 60
        E 0 90 40 60
        E 0 90 48 60
        E 0 90 4c 60
        E 0 90 54 60
        E 0 90 58 60
        E 0 90 60 60
        E 0 90 64 60
        E 120 80 18 00
        E 0 80 24 00
        E 0 80 40 00
        E 0 80 48 00
        E 0 80 4c 00
        E 0 80 54 00
        E 0 80 58 00
        E 0 80 60 00
        E 0 80 64 00
        E 120 90 18 60
        E 0 90 19 60
        E 0 90 54 60
        E 0 90 60 60
        E 120 80 18 00
        E 0 80 54 00
        E 0 80 60 00
        E 0 90 18 60
        E 0 90 60 60
        E 120 80 19 00
        E 0 80 18 00
        E 0 80 60 00
        E 0 90 1a 60
        E 0 90 24 60
        E 0 90 3d 60
        E 0 90 40 60
        E 0 90 49 60
        E 0 90 4c 60
        E 0 90 55 60
        E 0 90 58 60
        E 0 90 61 60
        E 0 90 64 60
        E 120 80 1a 00
        E 0 80 24 00
        E 0 80 3d 00
        E 0 80 40 00
        E 0 80 49 00
        E 0 80 4c 00
        E 0 80 55 00
        E 0 80 58 00
        E 0 80 61 00
        E 0 80 64 00
        E 0 90 18 60
        E 0 90 1a 60
        E 0 90 60 60
        E 0 90 61 60
        E 120 80 18 00
        E 0 80 1a 00
        E 0 80 60 00
        E 0 80 61 00
        E 0 90 19 60
        E 0 90 1b 60
        E 0 90 55 60
        E 0 90 61 60
        E 120 80 1b 00
        E 0 80 55 00
        E 0 80 61 00
        E 0 90 1a 60
        E 0 90 61 60
        E 120 80 78 00
        E 0 80 79 00
        E 0 80 7a 00
        E 0 80 7b 00
        E 0 80 7c 00
        E 0 80 19 00
        E 0 80 1a 00
        E 0 80 61 00
        E 0 90 18 60
        E 0 90 24 60
        E 0 90 40 60
        E 0 90 48 60
        E 0 90 4c 60
        E 0 90 54 60
        E 0 90 58 60
        E 0 90 60 60
        E 0 90 64 60
        E 120 80 18 00
        E 0 80 24 00
        E 0 80 40 00
        E 0 80 48 00
        E 0 80 4c 00
        E 0 80 54 00
        E 0 80 58 00
        E 0 80 60 00
        E 0 80 64 00
        E 120 90 19 60
        E 0 90 2a 60
        E 0 90 57 60
        E 0 90 63 60
        E 120 80 2a 00
        E 0 80 57 00
        E 0 80 63 00
        E 120 80 19 00
        E 0 90 18 60
        E 0 90 1a 60
        E 0 90 2a 60
        E 0 90 3d 60
        E 0 90 3f 60
        E 0 90 49 60
        E 0 90 4b 60
        E 0 90 54 60
        E 0 90 55 60
        E 0 90 57 60
        E 0 90 60 60
        E 0 90 61 60
        E 0 90 63 60
        E 120 80 18 00
        E 0 80 1a 00
        E 0 80 2a 00
        E 0 80 3d 00
        E 0 80 3f 00
        E 0 80 49 00
        E 0 80 4b 00
        E 0 80 54 00
        E 0 80 55 00
        E 0 80 57 00
        E 0 80 60 00
        E 0 80 61 00
        E 0 80 63 00
        E 120 90 19 60
        E 0 90 2a 60
        E 0 90 57 60
        E 0 90 63 60
        E 120 80 2a 00
        E 0 80 57 00
        E 0 80 63 00
        E 120 80 19 00
        E 0 90 18 60
        E 0 90 2a 60
        E 0 90 3f 60
        E 0 90 48 60
        E 0 90 4b 60
        E 0 90 54 60
        E 0 90 57 60
        E 0 90 60 60
        E 0 90 63 60
        E 120 80 18 00
        E 0 80 2a 00
        E 0 80 3f 00
        E 0 80 48 00
        E 0 80 4b 00
        E 0 80 54 00
        E 0 80 57 00
        E 0 80 60 00
        E 0 80 63 00
        E 120 90 19 60
        E 0 90 2a 60
        E 0 90 57 60
        E 0 90 63 60
        E 120 80 2a 00
        E 0 80 57 00
        E 0 80 63 00
        E 120 80 19 00
        E 0 90 18 60
        E 0 90 1a 60
        E 0 90 2a 60
        E 0 90 3d 60
        E 0 90 3f 60
        E 0 90 49 60
        E 0 90 4b 60
        E 0 90 54 60
        E 0 90 55 60
        E 0 90 57 60
        E 0 90 60 60
        E 0 90 61 60
        E 0 90 63 60
        E 120 80 18 00
        E 0 80 1a 00
        E 0 80 2a 00
        E 0 80 3d 00
        E 0 80 3f 00
        E 0 80 49 00
        E 0 80 4b 00
        E 0 80 54 00
        E 0 80 55 00
        E 0 80 57 00
        E 0 80 60 00
        E 0 80 61 00
        E 0 80 63 00
        E 0 90 18 60
        E 0 90 60 60
        E 120 80 18 00
        E 0 80 60 00
        E 0 90 19 60
        E 0 90 2a 60
        E 0 90 57 60
        E 0 90 63 60
        E 120 80 2a 00
        E 0 80 57 00
        E 0 80 63 00
        E 120 80 19 00
        E 0 90 18 60
        E 0 90 2a 60
        E 0 90 3f 60
        E 0 90 48 60
        E 0 90 4b 60
        E 0 90 54 60
        E 0 90 57 60
        E 0 90 60 60
        E 0 90 63 60
        E 120 80 18 00
        E 0 80 2a 00
        E 0 80 3f 00
        E 0 80 48 00
        E 0 80 4b 00
        E 0 80 54 00
        E 0 80 57 00
        E 0 80 60 00
        E 0 80 63 00
        E 120 90 19 60
        E 0 90 2a 60
        E 0 90 57 60
        E 0 90 63 60
        E 120 80 2a 00
        E 0 80 57 00
        E 0 80 63 00
        E 120 80 19 00
        E 0 90 18 60
        E 0 90 1a 60
        E 0 90 26 60
        E 0 90 3d 60
        E 0 90 40 60
        E 0 90 49 60
        E 0 90 4c 60
        E 0 90 54 60
        E 0 90 55 60
        E 0 90 58 60
        E 0 90 60 60
        E 0 90 61 60
        E 0 90 64 60
        E 120 80 18 00
        E 0 80 1a 00
        E 0 80 26 00
        E 0 80 3d 00
        E 0 80 40 00
        E 0 80 49 00
        E 0 80 4c 00
        E 0 80 54 00
        E 0 80 55 00
        E 0 80 58 00
        E 0 80 60 00
        E 0 80 61 00
        E 0 80 64 00
        E 120 90 19 60
        E 0 90 2a 60
        E 0 90 57 60
        E 0 90 63 60
        E 120 80 2a 00
        E 0 80 57 00
        E 0 80 63 00
        E 120 80 19 00
        E 0 90 18 60
        E 0 90 2a 60
        E 0 90 3f 60
        E 0 90 48 60
        E 0 90 4b 60
        E 0 90 54 60
        E 0 90 57 60
        E 0 90 60 60
        E 0 90 63 60
        E 120 80 18 00
        E 0 80 2a 00
        E 0 80 3f 00
        E 0 80 48 00
        E 0 80 4b 00
        E 0 80 54 00
        E 0 80 57 00
        E 0 80 60 00
        E 0 80 63 00
        E 120 90 19 60
        E 0 90 2a 60
        E 0 90 57 60
        E 0 90 63 60
        E 120 80 2a 00
        E 0 80 57 00
        E 0 80 63 00
        E 120 80 19 00
        E 0 90 18 60
        E 0 90 1a 60
        E 0 90 26 60
        E 0 90 3d 60
        E 0 90 40 60
        E 0 90 49 60
        E 0 90 4c 60
        E 0 90 54 60
        E 0 90 55 60
        E 0 90 58 60
        E 0 90 60 60
        E 0 90 61 60
        E 0 90 64 60
        E 120 80 18 00
        E 0 80 1a 00
        E 0 80 26 00
        E 0 80 3d 00
        E 0 80 40 00
        E 0 80 49 00
        E 0 80 4c 00
        E 0 80 54 00
        E 0 80 55 00
        E 0 80 58 00
        E 0 80 60 00
        E 0 80 61 00
        E 0 80 64 00
        E 0 90 18 60
        E 0 90 60 60
        E 120 80 18 00
        E 0 80 60 00
        E 0 90 19 60
        E 0 90 2a 60
        E 0 90 57 60
        E 0 90 63 60
        E 120 80 2a 00
        E 0 80 57 00
        E 0 80 63 00
        E 120 80 19 00
        E 0 90 18 60
        E 0 90 2a 60
        E 0 90 3f 60
        E 0 90 48 60
        E 0 90 4b 60
        E 0 90 54 60
        E 0 90 57 60
        E 0 90 60 60
        E 0 90 63 60
        E 120 80 18 00
        E 0 80 2a 00
        E 0 80 3f 00
        E 0 80 48 00
        E 0 80 4b 00
        E 0 80 54 00
        E 0 80 57 00
        E 0 80 60 00
        E 0 80 63 00
        E 120 90 19 60
        E 0 90 2a 60
        E 0 90 57 60
        E 0 90 63 60
        E 120 80 2a 00
        E 0 80 57 00
        E 0 80 63 00
        E 120 80 19 00
        E 0 90 18 60
        E 0 90 1a 60
        E 0 90 26 60
        E 0 90 3d 60
        E 0 90 40 60
        E 0 90 49 60
        E 0 90 4c 60
        E 0 90 54 60
        E 0 90 55 60
        E 0 90 58 60
        E 0 90 60 60
        E 0 90 61 60
        E 0 90 64 60
        E 120 80 18 00
        E 0 80 1a 00
        E 0 80 26 00
        E 0 80 3d 00
        E 0 80 40 00
        E 0 80 49 00
        E 0 80 4c 00
        E 0 80 54 00
        E 0 80 55 00
        E 0 80 58 00
        E 0 80 60 00
        E 0 80 61 00
        E 0 80 64 00
        E 120 90 19 60
        E 0 90 2a 60
        E 0 90 57 60
        E 0 90 63 60
        E 120 80 2a 00
        E 0 80 57 00
        E 0 80 63 00
        E 120 80 19 00
        E 0 90 18 60
        E 0 90 2a 60
        E 0 90 3f 60
        E 0 90 48 60
        E 0 90 4b 60
        E 0 90 54 60
        E 0 90 57 60
        E 0 90 60 60
        E 0 90 63 60
        E 120 80 18 00
        E 0 80 2a 00
        E 0 80 3f 00
        E 0 80 48 00
        E 0 80 4b 00
        E 0 80 54 00
        E 0 80 57 00
        E 0 80 60 00
        E 0 80 63 00
        E 120 90 19 60
        E 0 90 2a 60
        E 0 90 57 60
        E 0 90 63 60
        E 120 80 2a 00
        E 0 80 57 00
        E 0 80 63 00
        E 120 80 19 00
        E 0 90 18 60
        E 0 90 1a 60
        E 0 90 26 60
        E 0 90 3d 60
        E 0 90 40 60
        E 0 90 49 60
        E 0 90 4c 60
        E 0 90 54 60
        E 0 90 55 60
        E 0 90 58 60
        E 0 90 60 60
        E 0 90 61 60
        E 0 90 64 60
        E 120 80 18 00
        E 0 80 1a 00
        E 0 80 26 00
        E 0 80 3d 00
        E 0 80 40 00
        E 0 80 49 00
        E 0 80 4c 00
        E 0 80 54 00
        E 0 80 55 00
        E 0 80 58 00
        E 0 80 60 00
        E 0 80 61 00
        E 0 80 64 00
        E 0 90 18 60
        E 0 90 60 60
        E 120 80 18 00
        E 0 80 60 00
        E 0 90 19 60
        E 0 90 2a 60
        E 0 90 57 60
        E 0 90 63 60
        E 120 80 2a 00
        E 0 80 57 00
        E 0 80 63 00
        E 120 80 19 00
        E 0 90 18 60
        E 0 90 2a 60
        E 0 90 3f 60
        E 0 90 48 60
        E 0 90 4b 60
        E 0 90 54 60
        E 0 90 57 60
        E 0 90 60 60
        E 0 90 63 60
        E 0 90 78 60
        E 0 90 79 60
        E 0 90 7a 60
        E 0 90 7b 60
        E 0 90 7c 60
        E 120 80 18 00
        E 0 80 2a 00
        E 0 80 3f 00
        E 0 80 48 00
        E 0 80 4b 00
        E 0 80 54 00
        E 0 80 57 00
        E 0 80 60 00
        E 0 80 63 00
        E 120 90 19 60
        E 0 90 2a 60
        E 0 90 57 60
        E 0 90 63 60
        E 120 80 2a 00
        E 0 80 57 00
        E 0 80 63 00
        E 120 80 19 00
        E 0 90 18 60
        E 0 90 1a 60
        E 0 90 26 60
        E 0 90 3d 60
        E 0 90 40 60
        E 0 90 49 60
        E 0 90 4c 60
        E 0 90 54 60
        E 0 90 55 60
        E 0 90 58 60
        E 0 90 60 60
        E 0 90 61 60
        E 0 90 64 60
        E 120 80 18 00
        E 0 80 1a 00
        E 0 80 26 00
        E 0 80 3d 00
        E 0 80 40 00
        E 0 80 49 00
        E 0 80 4c 00
        E 0 80 54 00
        E 0 80 55 00
        E 0 80 58 00
        E 0 80 60 00
        E 0 80 61 00
        E 0 80 64 00
        E 120 90 19 60
        E 0 90 2a 60
        E 0 90 57 60
        E 0 90 63 60
        E 120 80 2a 00
        E 0 80 57 00
        E 0 80 63 00
        E 120 80 19 00
        E 0 90 18 60
        E 0 90 2a 60
        E 0 90 3f 60
        E 0 90 48 60
        E 0 90 4b 60
        E 0 90 54 60
        E 0 90 57 60
        E 0 90 60 60
        E 0 90 63 60
        E 120 80 18 00
        E 0 80 2a 00
        E 0 80 3f 00
        E 0 80 48 00
        E 0 80 4b 00
        E 0 80 54 00
        E 0 80 57 00
        E 0 80 60 00
        E 0 80 63 00
        E 120 90 18 60
        E 0 90 19 60
        E 0 90 2a 60
        E 0 90 54 60
        E 0 90 57 60
        E 0 90 60 60
        E 0 90 63 60
        E 120 80 18 00
        E 0 80 2a 00
        E 0 80 54 00
        E 0 80 57 00
        E 0 80 60 00
        E 0 80 63 00
        E 0 90 18 60
        E 0 90 60 60
        E 120 80 19 00
        E 0 80 18 00
        E 0 80 60 00
        E 0 90 1a 60
        E 0 90 26 60
        E 0 90 3d 60
        E 0 90 40 60
        E 0 90 49 60
        E 0 90 4c 60
        E 0 90 55 60
        E 0 90 58 60
        E 0 90 61 60
        E 0 90 64 60
        E 120 80 1a 00
        E 0 80 26 00
        E 0 80 3d 00
        E 0 80 40 00
        E 0 80 49 00
        E 0 80 4c 00
        E 0 80 55 00
        E 0 80 58 00
        E 0 80 61 00
        E 0 80 64 00
        E 0 90 18 60
        E 0 90 60 60
        E 120 80 18 00
        E 0 80 60 00
        E 0 90 19 60
        E 0 90 2a 60
        E 0 90 57 60
        E 0 90 63 60
        E 120 80 2a 00
        E 0 80 57 00
        E 0 80 63 00
        E 120 80 78 00
        E 0 80 79 00
        E 0 80 7a 00
        E 0 80 7b 00
        E 0 80 7c 00
        E 0 80 19 00
        E 0 90 18 60
        E 0 90 24 60
        E 0 90 40 60
        E 0 90 48 60
        E 0 90 4c 60
        E 0 90 54 60
        E 0 90 58 60
        E 0 90 60 60
        E 0 90 64 60
        E 120 80 18 00
        E 0 80 24 00
        E 0 80 40 00
        E 0 80 48 00
        E 0 80 4c 00
        E 0 80 54 00
        E 0 80 58 00
        E 0 80 60 00
        E 0 80 64 00
        E 120 90 19 60
        E 0 90 2a 60
        E 0 90 57 60
        E 0 90 63 60
        E 120 80 2a 00
        E 0 80 57 00
        E 0 80 63 00
        E 120 80 19 00
        E 0 90 18 60
        E 0 90 1a 60
        E 0 90 26 60
        E 0 90 3d 60
        E 0 90 40 60
        E 0 90 49 60
        E 0 90 4c 60
        E 0 90 54 60
        E 0 90 55 60
        E 0 90 58 60
        E 0 90 60 60
        E 0 90 61 60
        E 0 90 64 60
        E 120 80 18 00
        E 0 80 1a 00
        E 0 80 26 00
        E 0 80 3d 00
        E 0 80 40 00
        E 0 80 49 00
        E 0 80 4c 00
        E 0 80 54 00
        E 0 80 55 00
        E 0 80 58 00
        E 0 80 60 00
        E 0 80 61 00
        E 0 80 64 00
        E 120 90 19 60
        E 0 90 2a 60
        E 0 90 57 60
        E 0 90 63 60
        E 120 80 2a 00
        E 0 80 57 00
        E 0 80 63 00
        E 120 80 19 00
        E 0 90 18 60
        E 0 90 2a 60
        E 0 90 3f 60
        E 0 90 48 60
        E 0 90 4b 60
        E 0 90 54 60
        E 0 90 57 60
        E 0 90 60 60
        E 0 90 63 60
        E 120 80 18 00
        E 0 80 2a 00
        E 0 80 3f 00
        E 0 80 48 00
        E 0 80 4b 00
        E 0 80 54 00
        E 0 80 57 00
        E 0 80 60 00
        E 0 80 63 00
        E 120 90 19 60
        E 0 90 2a 60
        E 0 90 57 60
        E 0 90 63 60
        E 120 80 2a 00
        E 0 80 57 00
        E 0 80 63 00
        E 120 80 19 00
        E 0 90 18 60
        E 0 90 1a 60
        E 0 90 26 60
        E 0 90 3d 60
        E 0 90 40 60
        E 0 90 49 60
        E 0 90 4c 60
        E 0 90 54 60
        E 0 90 55 60
        E 0 90 58 60
        E 0 90 60 60
        E 0 90 61 60
        E 0 90 64 60
        E 120 80 18 00
        E 0 80 1a 00
        E 0 80 26 00
        E 0 80 3d 00
        E 0 80 40 00
        E 0 80 49 00
        E 0 80 4c 00
        E 0 80 54 00
        E 0 80 55 00
        E 0 80 58 00
        E 0 80 60 00
        E 0 80 61 00
        E 0 80 64 00
        E 0 90 18 60
        E 0 90 60 60
        E 120 80 18 00
        E 0 80 60 00
        E 0 90 19 60
        E 0 90 2a 60
        E 0 90 57 60
        E 0 90 63 60
        E 120 80 2a 00
        E 0 80 57 00
        E 0 80 63 00
        E 120 80 19 00
        E 0 90 18 60
        E 0 90 2a 60
        E 0 90 3f 60
        E 0 90 48 60
        E 0 90 4b 60
        E 0 90 54 60
        E 0 90 57 60
        E 0 90 60 60
        E 0 90 63 60
        E 120 80 18 00
        E 0 80 2a 00
        E 0 80 3f 00
        E 0 80 48 00
        E 0 80 4b 00
        E 0 80 54 00
        E 0 80 57 00
        E 0 80 60 00
        E 0 80 63 00
        E 0 90 2a 60
        E 0 90 63 60
        E 120 80 2a 00
        E 0 80 63 00
        E 0 90 19 60
        E 0 90 2a 60
        E 0 90 57 60
        E 0 90 63 60
        E 120 80 2a 00
        E 0 80 57 00
        E 0 80 63 00
        E 120 80 19 00
        E 0 90 18 60
        E 0 90 1a 60
        E 0 90 26 60
        E 0 90 3d 60
        E 0 90 40 60
        E 0 90 49 60
        E 0 90 4c 60
        E 0 90 54 60
        E 0 90 55 60
        E 0 90 58 60
        E 0 90 60 60
        E 0 90 61 60
        E 0 90 64 60
        E 120 80 18 00
        E 0 80 1a 00
        E 0 80 26 00
        E 0 80 3d 00
        E 0 80 40 00
        E 0 80 49 00
        E 0 80 4c 00
        E 0 80 54 00
        E 0 80 55 00
        E 0 80 58 00
        E 0 80 60 00
        E 0 80 61 00
        E 0 80 64 00
        E 120 90 19 60
        E 0 90 2a 60
        E 0 90 57 60
        E 0 90 63 60
        E 120 80 2a 00
        E 0 80 57 00
        E 0 80 63 00
        E 0 90 2a 60
        E 0 90 63 60
        E 120 80 19 00
        E 0 80 2a 00
        E 0 80 63 00
        E 0 90 18 60
        E 0 90 2a 60
        E 0 90 3f 60
        E 0 90 48 60
        E 0 90 4b 60
        E 0 90 54 60
        E 0 90 57 60
        E 0 90 60 60
        E 0 90 63 60
        E 120 80 18 00
        E 0 80 2a 00
        E 0 80 3f 00
        E 0 80 48 00
        E 0 80 4b 00
        E 0 80 54 00
        E 0 80 57 00
        E 0 80 60 00
        E 0 80 63 00
        E 120 90 19 60
        E 0 90 2a 60
        E 0 90 57 60
        E 0 90 63 60
        E 120 80 2a 00
        E 0 80 57 00
        E 0 80 63 00
        E 120 80 19 00
        E 0 90 18 60
        E 0 90 1a 60
        E 0 90 26 60
        E 0 90 3d 60
        E 0 90 40 60
        E 0 90 49 60
        E 0 90 4c 60
        E 0 90 54 60
        E 0 90 55 60
        E 0 90 58 60
        E 0 90 60 60
        E 0 90 61 60
        E 0 90 64 60
        E 120 80 18 00
        E 0 80 1a 00
        E 0 80 26 00
        E 0 80 3d 00
        E 0 80 40 00
        E 0 80 49 00
        E 0 80 4c 00
        E 0 80 54 00
        E 0 80 55 00
        E 0 80 58 00
        E 0 80 60 00
        E 0 80 61 00
        E 0 80 64 00
        E 0 90 18 60
        E 0 90 60 60
        E 120 80 18 00
        E 0 80 60 00
        E 0 90 19 60
        E 0 90 2a 60
        E 0 90 57 60
        E 0 90 63 60
        E 120 80 2a 00
        E 0 80 57 00
        E 0 80 63 00
        E 120 80 19 00
        E 0 90 18 60
        E 0 90 2a 60
        E 0 90 3f 60
        E 0 90 48 60
        E 0 90 4b 60
        E 0 90 54 60
        E 0 90 57 60
        E 0 90 60 60
        E 0 90 63 60
        E 120 80 18 00
        E 0 80 2a 00
        E 0 80 3f 00
        E 0 80 48 00
        E 0 80 4b 00
        E 0 80 54 00
        E 0 80 57 00
        E 0 80 60 00
        E 0 80 63 00
        E 120 90 19 60
        E 0 90 2a 60
        E 0 90 57 60
        E 0 90 63 60
        E 120 80 2a 00
        E 0 80 57 00
        E 0 80 63 00
        E 120 80 19 00
        E 0 90 18 60
        E 0 90 1a 60
        E 0 90 26 60
        E 0 90 3d 60
        E 0 90 40 60
        E 0 90 49 60
        E 0 90 4c 60
        E 0 90 54 60
        E 0 90 55 60
        E 0 90 58 60
        E 0 90 60 60
        E 0 90 61 60
        E 0 90 64 60
        E 120 80 18 00
        E 0 80 1a 00
        E 0 80 26 00
        E 0 80 3d 00
        E 0 80 40 00
        E 0 80 49 00
        E 0 80 4c 00
        E 0 80 54 00
        E 0 80 55 00
        E 0 80 58 00
        E 0 80 60 00
        E 0 80 61 00
        E 0 80 64 00
        E 120 90 19 60
        E 0 90 2a 60
        E 0 90 57 60
        E 0 90 63 60
        E 120 80 2a 00
        E 0 80 57 00
        E 0 80 63 00
        E 120 80 19 00
        E 0 90 18 60
        E 0 90 2a 60
        E 0 90 3f 60
        E 0 90 48 60
        E 0 90 4b 60
        E 0 90 54 60
        E 0 90 57 60
        E 0 90 60 60
        E 0 90 63 60
        E 120 80 18 00
        E 0 80 2a 00
        E 0 80 3f 00
        E 0 80 48 00
        E 0 80 4b 00
        E 0 80 54 00
        E 0 80 57 00
        E 0 80 60 00
        E 0 80 63 00
        E 120 90 19 60
        E 0 90 2a 60
        E 0 90 57 60
        E 0 90 63 60
        E 120 80 2a 00
        E 0 80 57 00
        E 0 80 63 00
        E 120 80 19 00
        E 0 90 18 60
        E 0 90 1a 60
        E 0 90 26 60
        E 0 90 3d 60
        E 0 90 40 60
        E 0 90 49 60
        E 0 90 4c 60
        E 0 90 54 60
        E 0 90 55 60
        E 0 90 58 60
        E 0 90 60 60
        E 0 90 61 60
        E 0 90 64 60
        E 120 80 18 00
        E 0 80 1a 00
        E 0 80 26 00
        E 0 80 3d 00
        E 0 80 40 00
        E 0 80 49 00
        E 0 80 4c 00
        E 0 80 54 00
        E 0 80 55 00
        E 0 80 58 00
        E 0 80 60 00
        E 0 80 61 00
        E 0 80 64 00
        E 0 90 18 60
        E 0 90 60 60
        E 120 80 18 00
        E 0 80 60 00
        E 0 90 19 60
        E 0 90 2a 60
        E 0 90 57 60
        E 0 90 63 60
        E 120 80 2a 00
        E 0 80 57 00
        E 0 80 63 00
        E 120 80 19 00
        E 0 90 18 60
        E 0 90 24 60
        E 0 90 40 60
        E 0 90 48 60
        E 0 90 4c 60
        E 0 90 54 60
        E 0 90 58 60
        E 0 90 60 60
        E 0 90 64 60
        E 120 80 18 00
        E 0 80 24 00
        E 0 80 40 00
        E 0 80 48 00
        E 0 80 4c 00
        E 0 80 54 00
        E 0 80 58 00
        E 0 80 60 00
        E 0 80 64 00
        E 120 90 19 60
        E 240 80 19 00
        E 0 90 18 60
        E 0 90 1a 60
        E 0 90 24 60
        E 0 90 3d 60
        E 0 90 40 60
        E 0 90 49 60
        E 0 90 4c 60
        E 0 90 54 60
        E 0 90 55 60
        E 0 90 58 60
        E 0 90 60 60
        E 0 90 61 60
        E 0 90 64 60
        E 120 80 18 00
        E 0 80 1a 00
        E 0 80 24 00
        E 0 80 3d 00
        E 0 80 40 00
        E 0 80 49 00
        E 0 80 4c 00
        E 0 80 54 00
        E 0 80 55 00
        E 0 80 58 00
        E 0 80 60 00
        E 0 80 61 00
        E 0 80 64 00
        E 120 90 19 60
        E 240 80 19 00
        E 0 90 18 60
        E 0 90 24 60
        E 0 90 40 60
        E 0 90 48 60
        E 0 90 4c 60
        E 0 90 54 60
        E 0 90 58 60
        E 0 90 60 60
        E 0 90 64 60
        E 120 80 18 00
        E 0 80 24 00
        E 0 80 40 00
        E 0 80 48 00
        E 0 80 4c 00
        E 0 80 54 00
        E 0 80 58 00
        E 0 80 60 00
        E 0 80 64 00
        E 120 90 18 60
        E 0 90 19 60
        E 0 90 54 60
        E 0 90 60 60
        E 120 80 18 00
        E 0 80 54 00
        E 0 80 60 00
        E 0 90 18 60
        E 0 90 60 60
        E 120 80 18 00
        E 0 80 60 00
        E 0 90 1a 60
        E 0 90 24 60
        E 0 90 3d 60
        E 0 90 40 60
        E 0 90 49 60
        E 0 90 4c 60
        E 0 90 55 60
        E 0 90 58 60
        E 0 90 61 60
        E 0 90 64 60
        E 120 80 1a 00
        E 0 80 24 00
        E 0 80 3d 00
        E 0 80 40 00
        E 0 80 49 00
        E 0 80 4c 00
        E 0 80 55 00
        E 0 80 58 00
        E 0 80 61 00
        E 0 80 64 00
        E 0 90 18 60
        E 0 90 1a 60
        E 0 90 60 60
        E 0 90 61 60
        E 120 80 18 00
        E 0 80 1a 00
        E 0 80 60 00
        E 0 80 61 00
        E 0 90 1b 60
        E 0 90 55 60
        E 0 90 61 60
        E 120 80 1b 00
        E 0 80 55 00
        E 0 80 61 00
        E 0 90 1a 60
        E 0 90 61 60
        E 120 80 1a 00
        E 0 80 61 00
        E 0 90 18 60
        E 0 90 1f 60
        E 0 90 3e 60
        E 0 90 48 60
        E 0 90 4a 60
        E 0 90 54 60
        E 0 90 56 60
        E 0 90 60 60
        E 0 90 62 60
        E 120 80 18 00
        E 0 80 1f 00
        E 0 80 3e 00
        E 0 80 48 00
        E 0 80 4a 00
        E 0 80 54 00
        E 0 80 56 00
        E 0 80 60 00
        E 0 80 62 00
        <X 120 0
          /wFbaWRsZV9yZWFsdGltZV0=
        >
        E 1680 80 19 00
        E 13440 b0 7b 00
        GUID {33570409-E6C3-46F7-BE95-ACB326750BE9}
        IGNTEMPO 0 120.00000000 4 4
        SRCCOLOR 5
        VELLANE 132 71 60
        COLORMAP "C:\Program Files (x86)\REAPER\Data\color_maps\rockband_drums.png"
        CFGEDITVIEW -4032.000937 14.749880 0 12 0 0 0
        CFGEDIT 1 1 0 1 1 0 1 1 1 1 1 0.25000000 -4 0 1025 558 0 2 1 2 0.00000000 0 1 1 0 0.500000 0 0 1.000000 64
        KEYSNAP 0 0 "102034050607" 0 "Major"
        EVTFILTER 0 -1 -1 -1 -1 0 1 0 0 -1.00000000 -1.00000000
      >
    >
  >
  <TRACK '{D3D40AC4-80A3-4680-89D1-55BED2E0CB9A}'
    NAME "drums"
    PEAKCOL 16576
    BEAT -1
    AUTOMODE 0
    VOLPAN 1.00000000000000 0.00000000000000 -1.00000000000000 -1.00000000000000 1.00000000000000
    MUTESOLO 0 0 0
    IPHASE 0
    ISBUS 2 -1
    BUSCOMP 0 0
    SHOWINMIX 1 0.666700 0.500000 1 0.500000 -1 -1 -1
    FREEMODE 0
    SEL 0
    REC 0 0 0 0 0 0 0
    VU 2
    TRACKHEIGHT 0 0
    INQ 0 0 0 0.5000000000 100 0 0 100
    NCHAN 2
    FX 1
    TRACKID {D3D40AC4-80A3-4680-89D1-55BED2E0CB9A}
    PERF 0
    MIDIOUT -1
    MAINSEND 1 0
    <ITEM
      POSITION 0.00000000000000
      SNAPOFFS 0.00000000000000
      LENGTH 85.23952380952380
      LOOP 0
      ALLTAKES 0
      SEL 1
      FADEIN 1 0.000000 0.000000 1 0
      FADEOUT 1 0.000000 0.000000 1 0
      MUTE 0
      IGUID {9E3AA58D-8FC2-4854-9BEE-A57D717CC41B}
      IID 77
      NAME "drums.wav"
      VOLPAN 1.000000 0.000000 1.000000 -1.000000
      SOFFS 0.00000000000000
      PLAYRATE 1.00000000000000 1 0.00000000000000 -1
      CHANMODE 0
      GUID {8AF778BC-3818-484B-8058-AA7C0607247B}
      <SOURCE WAVE
        FILE "wav\drums.wav"
      >
    >
  >
  <TRACK '{13649506-CF05-4DC1-8334-5AC037CCFBF4}'
    NAME "PART BASS"
    PEAKCOL 16576
    BEAT -1
    AUTOMODE 0
    VOLPAN 1.00000000000000 0.00000000000000 -1.00000000000000 -1.00000000000000 1.00000000000000
    MUTESOLO 0 0 0
    IPHASE 0
    ISBUS 1 1
    BUSCOMP 0 0
    SHOWINMIX 1 0.666700 0.500000 1 0.500000 -1 -1 -1
    FREEMODE 0
    SEL 0
    REC 0 0 0 0 0 0 0
    VU 2
    TRACKHEIGHT 0 0
    INQ 0 0 0 0.5000000000 100 0 0 100
    NCHAN 2
    FX 1
    TRACKID {13649506-CF05-4DC1-8334-5AC037CCFBF4}
    PERF 0
    MIDIOUT -1
    <MIDINOTENAMES
      0 127 "Trill Marker"
      0 126 "Tremolo Marker"
      0 125 "---"
      0 124 "BRE"
      0 123 "BRE"
      0 122 "BRE"
      0 121 "BRE"
      0 120 "BRE (use all 5)"
      0 119 "----"
      0 116 "OVERDRIVE"
      0 111 "----"
      0 103 "Solo Marker"
      0 102 "Force HOPO Off"
      0 101 "Force HOPO On"
      0 100 "EXPERT Orange"
      0 99 "EXPERT Blue"
      0 98 "EXPERT Yellow"
      0 97 "EXPERT Red"
      0 96 "EXPERT Green"
      0 91 "----"
      0 90 "Force HOPO Off"
      0 89 "Force HOPO On"
      0 88 "HARD Orange"
      0 87 "HARD Blue"
      0 86 "HARD Yellow"
      0 85 "HARD Red"
      0 84 "HARD Green"
      0 80 "----"
      0 76 "MEDIUM Orange"
      0 75 "MEDIUM Blue"
      0 74 "MEDIUM Yellow"
      0 73 "MEDIUM Red"
      0 72 "MEDIUM Green"
      0 68 "----"
      0 64 "EASY Orange"
      0 63 "EASY Blue"
      0 62 "EASY Yellow"
      0 61 "EASY Red"
      0 60 "EASY Green"
      0 59 "Left Hand Highest (Fret 12)"
      0 58 "-"
      0 57 "Fret 11"
      0 56 "Fret 10"
      0 55 "Fret 9"
      0 54 "-"
      0 53 "Fret 8"
      0 52 "Fret 7"
      0 51 "-"
      0 50 "Fret 6"
      0 49 "Fret 5"
      0 48 "-"
      0 47 "Fret 4"
      0 46 "-"
      0 45 "Fret 3"
      0 44 "-"
      0 43 "Fret 2"
      0 42 "-"
      0 41 "-"
      0 40 "Left Hand Lowest (Fret 1)"
    >
    MAINSEND 1 0
    <FXCHAIN
      WNDRECT 0 43 878 559
      SHOW 0
      LASTSEL 0
      DOCKED 0
      BYPASS 0 0
      <VST "VSTi: RBN Preview (RBN)" "rbprev_vst64.dll" 0 ""
        dnBicu5e7f4AAAAAAgAAAAEAAAAAAAAAAgAAAAAAAAAEAAAAAQAAAA==
        AAAQAAMAqgAAABAAAAA=
      >
      FLOATPOS 0 0 0 0
      FXID {EE9561ED-C395-4018-9350-6573C1223219}
      WAK 0
    >
    <ITEM
      POSITION 0.00000000000000
      SNAPOFFS 0.00000000000000
      LENGTH 85.23950400000001
      LOOP 0
      ALLTAKES 0
      SEL 0
      FADEIN 1 0.000000 0.000000 1 0
      FADEOUT 1 0.000000 0.000000 1 0
      MUTE 0
      IGUID {BEADA2D5-D086-4111-A19D-3063B0C21A88}
      IID 7
      NAME "PART BASS"
      VOLPAN 1.000000 0.000000 1.000000 -1.000000
      SOFFS 0.00000000000000 0.00000000000000
      PLAYRATE 1.00000000000000 1 0.00000000000000 -1
      CHANMODE 0
      GUID {5407D4E7-78FF-40EE-B2CE-4353A48D0DCA}
      <SOURCE MIDI
        HASDATA 1 480 QN
        POOLEDEVTS {1C119E93-5BB8-4F22-89E3-1F542922EFF3}
        <X 0 0
          /wNQQVJUIEJBU1M=
        >
        <X 3840 0
          /wFbcGxheV0=
        >
        E 0 90 2b 60
        E 0 90 3c 60
        E 0 90 48 60
        E 0 90 54 60
        E 0 90 60 60
        E 120 80 3c 00
        E 0 80 48 00
        E 0 80 54 00
        E 240 80 60 00
        E 120 90 3c 60
        E 0 90 48 60
        E 0 90 54 60
        E 0 90 60 60
        E 120 80 3c 00
        E 0 80 48 00
        E 0 80 54 00
        E 240 80 60 00
        E 120 90 3c 60
        E 0 90 48 60
        E 0 90 54 60
        E 0 90 60 60
        E 120 80 3c 00
        E 0 80 48 00
        E 0 80 54 00
        E 240 80 60 00
        E 120 90 48 60
        E 0 90 54 60
        E 0 90 60 60
        E 120 80 48 00
        E 0 80 54 00
        E 240 80 60 00
        E 120 90 3d 60
        E 0 90 4a 60
        E 0 90 56 60
        E 0 90 62 60
        E 120 80 3d 00
        E 0 80 4a 00
        E 0 80 56 00
        E 240 80 62 00
        E 120 90 3d 60
        E 0 90 4a 60
        E 0 90 56 60
        E 0 90 62 60
        E 120 80 3d 00
        E 0 80 4a 00
        E 0 80 56 00
        E 240 80 62 00
        E 120 90 3d 60
        E 0 90 4a 60
        E 0 90 56 60
        E 0 90 62 60
        E 120 80 3d 00
        E 0 80 4a 00
        E 0 80 56 00
        E 240 80 62 00
        E 120 90 4a 60
        E 0 90 56 60
        E 0 90 62 60
        E 120 80 4a 00
        E 0 80 56 00
        E 240 80 62 00
        E 120 90 3c 60
        E 0 90 48 60
        E 0 90 54 60
        E 0 90 60 60
        E 120 80 3c 00
        E 0 80 48 00
        E 0 80 54 00
        E 240 80 60 00
        E 120 90 3c 60
        E 0 90 48 60
        E 0 90 54 60
        E 0 90 60 60
        E 120 80 3c 00
        E 0 80 48 00
        E 0 80 54 00
        E 240 80 60 00
        E 120 90 3c 60
        E 0 90 48 60
        E 0 90 54 60
        E 0 90 60 60
        E 120 80 3c 00
        E 0 80 48 00
        E 0 80 54 00
        E 240 80 60 00
        E 120 90 48 60
        E 0 90 54 60
        E 0 90 60 60
        E 120 80 48 00
        E 0 80 54 00
        E 240 80 60 00
        E 120 90 3e 60
        E 0 90 4b 60
        E 0 90 57 60
        E 0 90 63 60
        E 120 80 3e 00
        E 0 80 4b 00
        E 0 80 57 00
        E 240 80 63 00
        E 120 90 4b 60
        E 0 90 57 60
        E 0 90 63 60
        E 120 80 4b 00
        E 0 80 57 00
        E 240 80 63 00
        E 120 90 3c 60
        E 0 90 48 60
        E 0 90 54 60
        E 0 90 60 60
        E 120 80 3c 00
        E 0 80 48 00
        E 0 80 54 00
        E 240 80 60 00
        E 120 90 48 60
        E 0 90 54 60
        E 0 90 60 60
        E 120 80 48 00
        E 0 80 54 00
        E 240 80 60 00
        E 120 90 3d 60
        E 0 90 49 60
        E 0 90 55 60
        E 0 90 61 60
        E 0 90 74 60
        E 120 80 3d 00
        E 0 80 49 00
        E 0 80 55 00
        E 240 80 61 00
        E 120 90 3d 60
        E 0 90 49 60
        E 0 90 55 60
        E 0 90 61 60
        E 120 80 3d 00
        E 0 80 49 00
        E 0 80 55 00
        E 240 80 61 00
        E 120 90 3d 60
        E 0 90 49 60
        E 0 90 55 60
        E 0 90 61 60
        E 120 80 3d 00
        E 0 80 49 00
        E 0 80 55 00
        E 240 80 61 00
        E 120 90 3d 60
        E 0 90 49 60
        E 0 90 55 60
        E 0 90 61 60
        E 120 80 3d 00
        E 0 80 49 00
        E 0 80 55 00
        E 240 80 61 00
        E 120 90 3d 60
        E 0 90 4a 60
        E 0 90 56 60
        E 0 90 62 60
        E 120 80 3d 00
        E 0 80 4a 00
        E 0 80 56 00
        E 240 80 62 00
        E 120 90 3d 60
        E 0 90 4a 60
        E 0 90 56 60
        E 0 90 62 60
        E 120 80 3d 00
        E 0 80 4a 00
        E 0 80 56 00
        E 240 80 62 00
        E 120 90 3d 60
        E 0 90 4a 60
        E 0 90 56 60
        E 0 90 62 60
        E 120 80 3d 00
        E 0 80 4a 00
        E 0 80 56 00
        E 240 80 62 00
        E 120 90 4a 60
        E 0 90 56 60
        E 0 90 62 60
        E 120 80 4a 00
        E 0 80 56 00
        E 240 80 62 00
        E 120 80 74 00
        E 0 90 3c 60
        E 0 90 48 60
        E 0 90 54 60
        E 0 90 60 60
        E 120 80 3c 00
        E 0 80 48 00
        E 0 80 54 00
        E 240 80 60 00
        E 120 90 3c 60
        E 0 90 48 60
        E 0 90 54 60
        E 0 90 60 60
        E 120 80 3c 00
        E 0 80 48 00
        E 0 80 54 00
        E 240 80 60 00
        E 120 90 3c 60
        E 0 90 48 60
        E 0 90 54 60
        E 0 90 60 60
        E 120 80 3c 00
        E 0 80 48 00
        E 0 80 54 00
        E 240 80 60 00
        E 120 90 48 60
        E 0 90 54 60
        E 0 90 60 60
        E 120 80 48 00
        E 0 80 54 00
        E 240 80 2b 00
        E 0 80 60 00
        E 120 90 28 60
        E 0 90 3e 60
        E 0 90 4b 60
        E 0 90 57 60
        E 0 90 63 60
        E 120 80 3e 00
        E 0 80 4b 00
        E 0 80 57 00
        E 240 80 63 00
        E 120 90 3e 60
        E 0 90 4b 60
        E 0 90 57 60
        E 0 90 63 60
        E 120 80 3e 00
        E 0 80 4b 00
        E 0 80 57 00
        E 240 80 63 00
        E 120 90 3e 60
        E 0 90 4b 60
        E 0 90 57 60
        E 0 90 63 60
        E 120 80 3e 00
        E 0 80 4b 00
        E 0 80 57 00
        E 240 80 63 00
        E 120 90 4b 60
        E 0 90 57 60
        E 0 90 63 60
        E 120 80 4b 00
        E 0 80 57 00
        E 240 80 28 00
        E 0 80 63 00
        E 120 90 2b 60
        E 0 90 40 60
        E 0 90 4c 60
        E 0 90 58 60
        E 0 90 64 60
        E 120 80 40 00
        E 0 80 4c 00
        E 0 80 58 00
        E 240 80 64 00
        E 120 90 40 60
        E 0 90 4c 60
        E 0 90 58 60
        E 0 90 64 60
        E 120 80 40 00
        E 0 80 4c 00
        E 0 80 58 00
        E 0 80 64 00
        E 120 90 54 60
        E 0 90 60 60
        E 120 80 54 00
        E 240 80 60 00
        E 120 90 48 60
        E 0 90 54 60
        E 0 90 60 60
        E 120 80 48 00
        E 0 80 54 00
        E 0 80 60 00
        E 120 90 48 60
        E 0 90 54 60
        E 0 90 60 60
        E 120 80 48 00
        E 0 80 54 00
        E 0 80 60 00
        E 120 90 54 60
        E 0 90 60 60
        E 120 80 54 00
        E 0 80 60 00
        E 120 90 3d 60
        E 0 90 4a 60
        E 0 90 56 60
        E 0 90 62 60
        E 120 80 3d 00
        E 0 80 4a 00
        E 0 80 56 00
        E 240 80 62 00
        E 120 90 3d 60
        E 0 90 4a 60
        E 0 90 56 60
        E 0 90 62 60
        E 120 80 3d 00
        E 0 80 4a 00
        E 0 80 56 00
        E 240 80 62 00
        E 120 90 3d 60
        E 0 90 4a 60
        E 0 90 56 60
        E 0 90 62 60
        E 120 80 3d 00
        E 0 80 4a 00
        E 0 80 56 00
        E 240 80 62 00
        E 120 90 4a 60
        E 0 90 56 60
        E 0 90 62 60
        E 120 80 4a 00
        E 0 80 56 00
        E 240 80 62 00
        E 120 90 3c 60
        E 0 90 48 60
        E 0 90 54 60
        E 0 90 60 60
        E 120 80 3c 00
        E 0 80 48 00
        E 0 80 54 00
        E 240 80 60 00
        E 120 90 3c 60
        E 0 90 48 60
        E 0 90 54 60
        E 0 90 60 60
        E 120 80 3c 00
        E 0 80 48 00
        E 0 80 54 00
        E 240 80 60 00
        E 120 90 3c 60
        E 0 90 48 60
        E 0 90 54 60
        E 0 90 60 60
        E 120 80 3c 00
        E 0 80 48 00
        E 0 80 54 00
        E 240 80 60 00
        E 120 90 48 60
        E 0 90 54 60
        E 0 90 60 60
        E 120 80 48 00
        E 0 80 54 00
        E 240 80 60 00
        E 120 90 3e 60
        E 0 90 4b 60
        E 0 90 57 60
        E 0 90 63 60
        E 120 80 3e 00
        E 0 80 4b 00
        E 0 80 57 00
        E 240 80 63 00
        E 120 90 4b 60
        E 0 90 57 60
        E 0 90 63 60
        E 120 80 4b 00
        E 0 80 57 00
        E 240 80 63 00
        E 120 90 3c 60
        E 0 90 48 60
        E 0 90 54 60
        E 0 90 60 60
        E 120 80 3c 00
        E 0 80 48 00
        E 0 80 54 00
        E 240 80 60 00
        E 120 90 48 60
        E 0 90 54 60
        E 0 90 60 60
        E 120 80 48 00
        E 0 80 54 00
        E 240 80 60 00
        E 120 90 3d 60
        E 0 90 49 60
        E 0 90 55 60
        E 0 90 61 60
        E 120 80 3d 00
        E 0 80 49 00
        E 0 80 55 00
        E 240 80 61 00
        E 120 90 3d 60
        E 0 90 49 60
        E 0 90 55 60
        E 0 90 61 60
        E 120 80 3d 00
        E 0 80 49 00
        E 0 80 55 00
        E 240 80 61 00
        E 120 90 3d 60
        E 0 90 49 60
        E 0 90 55 60
        E 0 90 61 60
        E 120 80 3d 00
        E 0 80 49 00
        E 0 80 55 00
        E 240 80 61 00
        E 120 90 3d 60
        E 0 90 49 60
        E 0 90 55 60
        E 0 90 61 60
        E 120 80 3d 00
        E 0 80 49 00
        E 0 80 55 00
        E 240 80 61 00
        E 120 90 3d 60
        E 0 90 4a 60
        E 0 90 56 60
        E 0 90 62 60
        E 120 80 3d 00
        E 0 80 4a 00
        E 0 80 56 00
        E 240 80 62 00
        E 120 90 3d 60
        E 0 90 4a 60
        E 0 90 56 60
        E 0 90 62 60
        E 120 80 3d 00
        E 0 80 4a 00
        E 0 80 56 00
        E 240 80 62 00
        E 120 90 3d 60
        E 0 90 4a 60
        E 0 90 56 60
        E 0 90 62 60
        E 120 80 3d 00
        E 0 80 4a 00
        E 0 80 56 00
        E 240 80 62 00
        E 120 90 4a 60
        E 0 90 56 60
        E 0 90 62 60
        E 120 80 4a 00
        E 0 80 56 00
        E 240 80 62 00
        E 120 90 3c 60
        E 0 90 48 60
        E 0 90 54 60
        E 0 90 60 60
        E 0 90 74 60
        E 120 80 3c 00
        E 0 80 48 00
        E 0 80 54 00
        E 240 80 60 00
        E 120 90 3c 60
        E 0 90 48 60
        E 0 90 54 60
        E 0 90 60 60
        E 120 80 3c 00
        E 0 80 48 00
        E 0 80 54 00
        E 240 80 60 00
        E 120 90 3c 60
        E 0 90 48 60
        E 0 90 54 60
        E 0 90 60 60
        E 120 80 3c 00
        E 0 80 48 00
        E 0 80 54 00
        E 240 80 60 00
        E 120 90 48 60
        E 0 90 54 60
        E 0 90 60 60
        E 120 80 48 00
        E 0 80 54 00
        E 240 80 2b 00
        E 0 80 60 00
        E 120 80 74 00
        E 0 90 28 60
        E 0 90 40 60
        E 0 90 4c 60
        E 0 90 58 60
        E 0 90 64 60
        E 120 80 40 00
        E 0 80 4c 00
        E 0 80 58 00
        E 240 80 64 00
        E 120 90 40 60
        E 0 90 4c 60
        E 0 90 58 60
        E 0 90 64 60
        E 120 80 40 00
        E 0 80 4c 00
        E 0 80 58 00
        E 240 80 64 00
        E 120 90 40 60
        E 0 90 4c 60
        E 0 90 58 60
        E 0 90 64 60
        E 120 80 40 00
        E 0 80 4c 00
        E 0 80 58 00
        E 240 80 64 00
        E 120 90 4c 60
        E 0 90 58 60
        E 0 90 64 60
        E 120 80 4c 00
        E 0 80 58 00
        E 240 80 28 00
        E 0 80 64 00
        <X 120 0
          /wFbaW50ZW5zZV0=
        >
        E 0 90 2b 60
        E 0 90 3e 60
        E 0 90 4b 60
        E 0 90 57 60
        E 0 90 63 60
        E 120 80 3e 00
        E 0 80 4b 00
        E 0 80 57 00
        E 240 80 63 00
        E 120 90 3e 60
        E 0 90 4b 60
        E 0 90 57 60
        E 0 90 63 60
        E 120 80 3e 00
        E 0 80 4b 00
        E 0 80 57 00
        E 240 80 63 00
        E 120 90 3e 60
        E 0 90 4b 60
        E 0 90 57 60
        E 0 90 63 60
        E 120 80 3e 00
        E 0 80 4b 00
        E 0 80 57 00
        E 240 80 63 00
        E 120 90 3e 60
        E 0 90 4b 60
        E 0 90 57 60
        E 0 90 63 60
        E 120 80 3e 00
        E 0 80 4b 00
        E 0 80 57 00
        E 240 80 63 00
        E 120 90 3e 60
        E 0 90 4b 60
        E 0 90 57 60
        E 0 90 63 60
        E 120 80 3e 00
        E 0 80 4b 00
        E 0 80 57 00
        E 240 80 63 00
        E 120 90 3e 60
        E 0 90 4b 60
        E 0 90 57 60
        E 0 90 63 60
        E 120 80 3e 00
        E 0 80 4b 00
        E 0 80 57 00
        E 0 80 63 00
        E 120 90 55 60
        E 0 90 61 60
        E 120 80 55 00
        E 240 80 61 00
        E 120 90 49 60
        E 0 90 55 60
        E 0 90 61 60
        E 120 80 49 00
        E 0 80 55 00
        E 0 80 61 00
        E 120 90 3d 60
        E 0 90 49 60
        E 0 90 55 60
        E 0 90 61 60
        E 120 80 3d 00
        E 0 80 49 00
        E 0 80 55 00
        E 0 80 61 00
        E 120 90 55 60
        E 0 90 61 60
        E 120 80 55 00
        E 0 80 61 00
        E 120 90 3d 60
        E 0 90 4a 60
        E 0 90 56 60
        E 0 90 62 60
        E 120 80 3d 00
        E 0 80 4a 00
        E 0 80 56 00
        E 240 80 62 00
        E 120 90 3d 60
        E 0 90 4a 60
        E 0 90 56 60
        E 0 90 62 60
        E 120 80 3d 00
        E 0 80 4a 00
        E 0 80 56 00
        E 240 80 62 00
        E 120 90 3d 60
        E 0 90 4a 60
        E 0 90 56 60
        E 0 90 62 60
        E 120 80 3d 00
        E 0 80 4a 00
        E 0 80 56 00
        E 240 80 62 00
        E 120 90 3d 60
        E 0 90 4a 60
        E 0 90 56 60
        E 0 90 62 60
        E 120 80 3d 00
        E 0 80 4a 00
        E 0 80 56 00
        E 240 80 62 00
        E 120 90 3d 60
        E 0 90 49 60
        E 0 90 55 60
        E 0 90 61 60
        E 0 90 74 60
        E 120 80 3d 00
        E 0 80 49 00
        E 0 80 55 00
        E 0 80 61 00
        E 120 90 49 60
        E 0 90 55 60
        E 0 90 61 60
        E 120 80 49 00
        E 0 80 55 00
        E 0 80 61 00
        E 120 90 3d 60
        E 0 90 49 60
        E 0 90 55 60
        E 0 90 61 60
        E 120 80 3d 00
        E 0 80 49 00
        E 0 80 55 00
        E 0 80 61 00
        E 120 90 54 60
        E 0 90 60 60
        E 120 80 54 00
        E 240 80 60 00
        E 120 90 54 60
        E 0 90 60 60
        E 120 80 54 00
        E 0 80 60 00
        E 120 90 4a 60
        E 0 90 56 60
        E 0 90 62 60
        E 120 80 4a 00
        E 0 80 56 00
        E 0 80 62 00
        E 120 90 56 60
        E 0 90 62 60
        E 120 80 56 00
        E 0 80 62 00
        E 120 80 74 00
        E 0 90 3e 60
        E 0 90 4b 60
        E 0 90 57 60
        E 0 90 63 60
        E 120 80 3e 00
        E 0 80 4b 00
        E 0 80 57 00
        E 240 80 63 00
        E 120 90 3e 60
        E 0 90 4b 60
        E 0 90 57 60
        E 0 90 63 60
        E 120 80 3e 00
        E 0 80 4b 00
        E 0 80 57 00
        E 240 80 63 00
        E 120 90 3e 60
        E 0 90 4b 60
        E 0 90 57 60
        E 0 90 63 60
        E 120 80 3e 00
        E 0 80 4b 00
        E 0 80 57 00
        E 240 80 63 00
        E 120 90 3e 60
        E 0 90 4b 60
        E 0 90 57 60
        E 0 90 63 60
        E 120 80 3e 00
        E 0 80 4b 00
        E 0 80 57 00
        E 240 80 63 00
        E 120 90 3e 60
        E 0 90 4b 60
        E 0 90 57 60
        E 0 90 63 60
        E 120 80 3e 00
        E 0 80 4b 00
        E 0 80 57 00
        E 240 80 63 00
        E 120 90 3e 60
        E 0 90 4b 60
        E 0 90 57 60
        E 0 90 63 60
        E 120 80 3e 00
        E 0 80 4b 00
        E 0 80 57 00
        E 0 80 63 00
        E 120 90 55 60
        E 0 90 61 60
        E 120 80 55 00
        E 240 80 61 00
        E 120 90 49 60
        E 0 90 55 60
        E 0 90 61 60
        E 120 80 49 00
        E 0 80 55 00
        E 0 80 61 00
        E 120 90 49 60
        E 0 90 55 60
        E 0 90 61 60
        E 120 80 49 00
        E 0 80 55 00
        E 0 80 61 00
        E 120 90 55 60
        E 0 90 61 60
        E 120 80 55 00
        E 0 80 61 00
        E 120 90 3c 60
        E 0 90 48 60
        E 0 90 54 60
        E 0 90 60 60
        E 120 80 3c 00
        E 0 80 48 00
        E 0 80 54 00
        E 0 80 60 00
        E 120 90 48 60
        E 0 90 54 60
        E 0 90 60 60
        E 120 80 48 00
        E 0 80 54 00
        E 0 80 60 00
        E 120 90 3c 60
        E 0 90 48 60
        E 0 90 54 60
        E 0 90 60 60
        E 120 80 3c 00
        E 0 80 48 00
        E 0 80 54 00
        E 0 80 60 00
        E 120 90 48 60
        E 0 90 54 60
        E 0 90 60 60
        E 120 80 48 00
        E 0 80 54 00
        E 0 80 60 00
        E 120 90 3c 60
        E 0 90 48 60
        E 0 90 54 60
        E 0 90 60 60
        E 120 80 3c 00
        E 0 80 48 00
        E 0 80 54 00
        E 0 80 60 00
        E 120 90 48 60
        E 0 90 54 60
        E 0 90 60 60
        E 120 80 48 00
        E 0 80 54 00
        E 0 80 60 00
        E 120 90 48 60
        E 0 90 54 60
        E 0 90 60 60
        E 120 80 48 00
        E 0 80 54 00
        E 0 80 60 00
        E 120 90 54 60
        E 0 90 60 60
        E 120 80 54 00
        E 0 80 60 00
        E 120 90 3d 60
        E 0 90 4a 60
        E 0 90 56 60
        E 0 90 62 60
        E 120 80 3d 00
        E 0 80 4a 00
        E 0 80 56 00
        E 0 80 62 00
        E 120 90 4a 60
        E 0 90 56 60
        E 0 90 62 60
        E 120 80 4a 00
        E 0 80 56 00
        E 0 80 62 00
        E 120 90 4a 60
        E 0 90 56 60
        E 0 90 62 60
        E 120 80 4a 00
        E 0 80 56 00
        E 0 80 62 00
        E 120 90 57 60
        E 0 90 63 60
        E 120 80 57 00
        E 0 80 63 00
        E 120 90 3e 60
        E 0 90 4b 60
        E 0 90 57 60
        E 0 90 63 60
        E 120 80 3e 00
        E 0 80 4b 00
        E 0 80 57 00
        E 0 80 63 00
        E 120 90 57 60
        E 0 90 63 60
        E 120 80 57 00
        E 0 80 63 00
        E 120 90 4c 60
        E 0 90 58 60
        E 0 90 64 60
        E 120 80 4c 00
        E 0 80 58 00
        E 0 80 64 00
        E 120 90 58 60
        E 0 90 64 60
        E 120 80 58 00
        E 0 80 64 00
        E 120 90 3e 60
        E 0 90 4b 60
        E 0 90 57 60
        E 0 90 63 60
        E 120 80 3e 00
        E 0 80 4b 00
        E 0 80 57 00
        E 240 80 63 00
        E 120 90 3e 60
        E 0 90 4b 60
        E 0 90 57 60
        E 0 90 63 60
        E 120 80 3e 00
        E 0 80 4b 00
        E 0 80 57 00
        E 240 80 63 00
        E 120 90 3e 60
        E 0 90 4b 60
        E 0 90 57 60
        E 0 90 63 60
        E 120 80 3e 00
        E 0 80 4b 00
        E 0 80 57 00
        E 240 80 63 00
        E 120 90 3e 60
        E 0 90 4b 60
        E 0 90 57 60
        E 0 90 63 60
        E 120 80 3e 00
        E 0 80 4b 00
        E 0 80 57 00
        E 240 80 63 00
        E 120 90 3e 60
        E 0 90 4b 60
        E 0 90 57 60
        E 0 90 63 60
        E 120 80 3e 00
        E 0 80 4b 00
        E 0 80 57 00
        E 240 80 63 00
        E 120 90 3e 60
        E 0 90 4b 60
        E 0 90 57 60
        E 0 90 63 60
        E 120 80 3e 00
        E 0 80 4b 00
        E 0 80 57 00
        E 0 80 63 00
        E 120 90 55 60
        E 0 90 61 60
        E 120 80 55 00
        E 240 80 61 00
        E 120 90 49 60
        E 0 90 55 60
        E 0 90 61 60
        E 120 80 49 00
        E 0 80 55 00
        E 0 80 61 00
        E 120 90 3d 60
        E 0 90 49 60
        E 0 90 55 60
        E 0 90 61 60
        E 120 80 3d 00
        E 0 80 49 00
        E 0 80 55 00
        E 0 80 61 00
        E 120 90 55 60
        E 0 90 61 60
        E 120 80 55 00
        E 0 80 61 00
        E 120 90 3d 60
        E 0 90 4a 60
        E 0 90 56 60
        E 0 90 62 60
        E 120 80 3d 00
        E 0 80 4a 00
        E 0 80 56 00
        E 240 80 62 00
        E 120 90 3d 60
        E 0 90 4a 60
        E 0 90 56 60
        E 0 90 62 60
        E 120 80 3d 00
        E 0 80 4a 00
        E 0 80 56 00
        E 240 80 62 00
        E 120 90 3d 60
        E 0 90 4a 60
        E 0 90 56 60
        E 0 90 62 60
        E 120 80 3d 00
        E 0 80 4a 00
        E 0 80 56 00
        E 240 80 62 00
        E 120 90 3d 60
        E 0 90 4a 60
        E 0 90 56 60
        E 0 90 62 60
        E 120 80 3d 00
        E 0 80 4a 00
        E 0 80 56 00
        E 240 80 62 00
        E 120 90 3d 60
        E 0 90 49 60
        E 0 90 55 60
        E 0 90 61 60
        E 120 80 3d 00
        E 0 80 49 00
        E 0 80 55 00
        E 0 80 61 00
        E 120 90 49 60
        E 0 90 55 60
        E 0 90 61 60
        E 120 80 49 00
        E 0 80 55 00
        E 0 80 61 00
        E 120 90 3d 60
        E 0 90 49 60
        E 0 90 55 60
        E 0 90 61 60
        E 120 80 3d 00
        E 0 80 49 00
        E 0 80 55 00
        E 0 80 61 00
        E 120 90 54 60
        E 0 90 60 60
        E 120 80 54 00
        E 240 80 60 00
        E 120 90 54 60
        E 0 90 60 60
        E 120 80 54 00
        E 0 80 60 00
        E 120 90 4a 60
        E 0 90 56 60
        E 0 90 62 60
        E 120 80 4a 00
        E 0 80 56 00
        E 0 80 62 00
        E 120 90 56 60
        E 0 90 62 60
        E 120 80 56 00
        E 0 80 62 00
        E 120 90 3e 60
        E 0 90 4b 60
        E 0 90 57 60
        E 0 90 63 60
        E 120 80 3e 00
        E 0 80 4b 00
        E 0 80 57 00
        E 240 80 63 00
        E 120 90 3e 60
        E 0 90 4b 60
        E 0 90 57 60
        E 0 90 63 60
        E 120 80 3e 00
        E 0 80 4b 00
        E 0 80 57 00
        E 240 80 63 00
        E 120 90 3e 60
        E 0 90 4b 60
        E 0 90 57 60
        E 0 90 63 60
        E 120 80 3e 00
        E 0 80 4b 00
        E 0 80 57 00
        E 240 80 63 00
        E 120 90 3e 60
        E 0 90 4b 60
        E 0 90 57 60
        E 0 90 63 60
        E 120 80 3e 00
        E 0 80 4b 00
        E 0 80 57 00
        E 240 80 63 00
        E 120 90 3e 60
        E 0 90 4b 60
        E 0 90 57 60
        E 0 90 63 60
        E 120 80 3e 00
        E 0 80 4b 00
        E 0 80 57 00
        E 240 80 63 00
        E 120 90 3e 60
        E 0 90 4b 60
        E 0 90 57 60
        E 0 90 63 60
        E 120 80 3e 00
        E 0 80 4b 00
        E 0 80 57 00
        E 0 80 63 00
        E 120 90 55 60
        E 0 90 61 60
        E 120 80 55 00
        E 240 80 61 00
        E 120 90 49 60
        E 0 90 55 60
        E 0 90 61 60
        E 120 80 49 00
        E 0 80 55 00
        E 0 80 61 00
        E 120 90 49 60
        E 0 90 55 60
        E 0 90 61 60
        E 120 80 49 00
        E 0 80 55 00
        E 0 80 61 00
        E 120 90 55 60
        E 0 90 61 60
        E 120 80 55 00
        E 0 80 61 00
        E 120 90 3c 60
        E 0 90 48 60
        E 0 90 54 60
        E 0 90 60 60
        E 120 80 3c 00
        E 0 80 48 00
        E 0 80 54 00
        E 0 80 60 00
        E 120 90 48 60
        E 0 90 54 60
        E 0 90 60 60
        E 120 80 48 00
        E 0 80 54 00
        E 0 80 60 00
        E 120 90 3c 60
        E 0 90 48 60
        E 0 90 54 60
        E 0 90 60 60
        E 120 80 3c 00
        E 0 80 48 00
        E 0 80 54 00
        E 0 80 60 00
        E 120 90 48 60
        E 0 90 54 60
        E 0 90 60 60
        E 120 80 48 00
        E 0 80 54 00
        E 0 80 60 00
        E 120 90 3c 60
        E 0 90 48 60
        E 0 90 54 60
        E 0 90 60 60
        E 120 80 3c 00
        E 0 80 48 00
        E 0 80 54 00
        E 0 80 60 00
        E 120 90 48 60
        E 0 90 54 60
        E 0 90 60 60
        E 120 80 48 00
        E 0 80 54 00
        E 0 80 60 00
        E 120 90 48 60
        E 0 90 54 60
        E 0 90 60 60
        E 120 80 48 00
        E 0 80 54 00
        E 0 80 60 00
        E 120 90 54 60
        E 0 90 60 60
        E 120 80 54 00
        E 0 80 60 00
        E 120 90 3d 60
        E 0 90 4a 60
        E 0 90 56 60
        E 0 90 62 60
        E 120 80 3d 00
        E 0 80 4a 00
        E 0 80 56 00
        E 0 80 62 00
        E 120 90 4a 60
        E 0 90 56 60
        E 0 90 62 60
        E 120 80 4a 00
        E 0 80 56 00
        E 0 80 62 00
        E 120 90 4a 60
        E 0 90 56 60
        E 0 90 62 60
        E 120 80 4a 00
        E 0 80 56 00
        E 0 80 62 00
        E 120 90 57 60
        E 0 90 63 60
        E 120 80 57 00
        E 0 80 63 00
        E 120 90 3e 60
        E 0 90 4b 60
        E 0 90 57 60
        E 0 90 63 60
        E 120 80 3e 00
        E 0 80 4b 00
        E 0 80 57 00
        E 0 80 63 00
        E 120 90 57 60
        E 0 90 63 60
        E 120 80 57 00
        E 0 80 63 00
        E 120 90 4c 60
        E 0 90 58 60
        E 0 90 64 60
        E 120 80 4c 00
        E 0 80 58 00
        E 0 80 64 00
        E 120 90 58 60
        E 0 90 64 60
        E 120 80 58 00
        E 0 80 64 00
        E 120 90 3c 60
        E 0 90 48 60
        E 0 90 54 60
        E 0 90 60 60
        E 9600 80 2b 00 -1
        E 0 80 3c 00 -1
        E 0 80 48 00 -1
        E 0 80 54 00 -1
        E 0 80 60 00 -1
        <X 240 0
          /wFbaWRsZV9yZWFsdGltZV0=
        >
        E 5520 b0 7b 00
        GUID {9AEBD83F-B002-42D9-91CA-A272567AD2A0}
        IGNTEMPO 0 120.00000000 4 4
        SRCCOLOR 6
        VELLANE 132 71 60
        COLORMAP "C:\Program Files (x86)\REAPER\Data\color_maps\rockband_guitarbass.png"
        CFGEDITVIEW 60486.474815 100.396531 0 14 0 0 0
        CFGEDIT 1 1 0 1 1 0 1 1 1 1 1 0.25000000 -4 0 1025 558 0 2 1 2 0.00000000 0 1 1 0 0.500000 0 0 1.000000 64
        KEYSNAP 0 0 "102034050607" 0 "Major"
        EVTFILTER 0 144 -1 -1 -1 0 0 0 1 0.06666667 -1.00000000
      >
    >
  >
  <TRACK '{9A3AA00D-E4C3-43A8-B1AD-7F58A655452B}'
    NAME "PART REAL_BASS"
    PEAKCOL 16576
    BEAT -1
    AUTOMODE 0
    VOLPAN 1.00000000000000 0.00000000000000 -1.00000000000000 -1.00000000000000 1.00000000000000
    MUTESOLO 0 0 0
    IPHASE 0
    ISBUS 0 0
    BUSCOMP 0 0
    SHOWINMIX 1 0.666700 0.500000 1 0.500000 -1 -1 -1
    FREEMODE 0
    SEL 0
    REC 0 0 0 0 0 0 0
    VU 2
    TRACKHEIGHT 0 0
    INQ 0 0 0 0.5000000000 100 0 0 100
    NCHAN 2
    FX 0
    TRACKID {9A3AA00D-E4C3-43A8-B1AD-7F58A655452B}
    PERF 0
    MIDIOUT -1
    <MIDINOTENAMES
      0 127 "Trill Marker"
      0 126 "Tremolo Marker"
      0 125 "BRE"
      0 124 "BRE"
      0 123 "BRE"
      0 122 "BRE"
      0 121 "BRE"
      0 120 "BRE (use all 6)"
      0 119 "-----------"
      0 116 "OVERDRIVE"
      0 115 "Solo Marker"
      0 109 "-----------"
      0 108 "Left Hand Position"
      0 107 "Force Chord Numbering"
      0 106 "Loose Strumming"
      0 105 "Strum Direction"
      0 104 "Arpeggio Marker"
      0 103 "Slide Marker"
      0 102 "Force HOPO"
      0 101 "EXPERT e String"
      0 100 "EXPERT B String"
      0 99 "EXPERT G String"
      0 98 "EXPERT D String"
      0 97 "EXPERT A String"
      0 96 "EXPERT E String"
      0 95 "-----------"
      0 82 "Loose Strumming"
      0 81 "Strum Direction"
      0 80 "Arpeggio Marker"
      0 79 "Slide Marker"
      0 78 "Force HOPO"
      0 77 "HARD e String"
      0 76 "HARD B String"
      0 75 "HARD G String"
      0 74 "HARD D String"
      0 73 "HARD A String"
      0 72 "HARD E String"
      0 71 "-----------"
      0 58 "Loose Strumming"
      0 56 "Arpeggio Marker"
      0 55 "Slide Marker"
      0 53 "MEDIUM e String"
      0 52 "MEDIUM B String"
      0 51 "MEDIUM G String"
      0 50 "MEDIUM D String"
      0 49 "MEDIUM A String"
      0 48 "MEDIUM E String"
      0 47 "-----------"
      0 32 "Arpeggio Marker"
      0 31 "Slide Marker"
      0 29 "EASY e String"
      0 28 "EASY B String"
      0 27 "EASY G String"
      0 26 "EASY D String"
      0 25 "EASY A String"
      0 24 "EASY E String"
      0 21 "-----------"
      0 18 "Flat/Sharp Swap"
      0 17 "Hide Chord Names"
      0 16 "Slash Chord"
      0 15 "D#"
      0 14 "D"
      0 13 "C#"
      0 12 "C"
      0 11 "B"
      0 10 "A#"
      0 9 "A"
      0 8 "G#"
      0 7 "G"
      0 6 "F#"
      0 5 "F"
      0 4 "E"
    >
    MAINSEND 1 0
    <FXCHAIN
      WNDRECT 0 38 716 467
      SHOW 0
      LASTSEL 1
      DOCKED 0
      BYPASS 0 0
      <JS "c3/progtr" ""
        0.000000 3.000000 0.000000 0.000000 0.000000 0.000000 0.000000 0.000000 0.000000 1.000000 - - - - - - - - - - - - - - - - - - - - - - - - - - - - - - - - - - - - - - - - - - - - - - - - - - - - - - 
      >
      FLOATPOS 0 0 0 0
      FXID {04A886AE-46A7-4F7A-A596-1B3DD140CB02}
      WAK 0
      BYPASS 0 0
      <VST "VSTi: ReaSynth (Cockos)" "reasynth.dll" 0 ""
        eXNlcu9e7f4AAAAAAgAAAAEAAAAAAAAAAgAAAAAAAAA4AAAAAAAAAA==
        AAAQAO++rd4N8K3eppvEOwIGJD4AAAAAAAAAAAAAgD8AAIA/4jAEPA==
        AAAAAAAAAD+01hM+j8L1PQAAAD8AABAAAAA=
      >
      FLOATPOS 0 0 0 0
      FXID {8C9E1A77-694F-4129-A9EF-87D1EEE06591}
      WAK 0
    >
    <ITEM
      POSITION 0.00000000000000
      SNAPOFFS 0.00000000000000
      LENGTH 85.23950400000001
      LOOP 0
      ALLTAKES 0
      SEL 0
      FADEIN 1 0.000000 0.000000 1 0
      FADEOUT 1 0.000000 0.000000 1 0
      MUTE 0
      IGUID {4BEE5507-DEA7-4CF6-8C5E-47B27D9E13BE}
      IID 8
      NAME "PART REAL_BASS"
      VOLPAN 1.000000 0.000000 1.000000 -1.000000
      SOFFS 0.00000000000000 0.00000000000000
      PLAYRATE 1.00000000000000 1 0.00000000000000 -1
      CHANMODE 0
      GUID {F0B70F5C-C34E-47E8-AADD-E9065337EC57}
      <SOURCE MIDI
        HASDATA 1 480 QN
        POOLEDEVTS {6BCFD53D-A4A6-4237-8467-B1143154AA71}
        <X 0 0
          /wNQQVJUIFJFQUxfQkFTUw==
        >
        <X 3840 0
          /wFbYmVnaW5fcGIgc29uZ190cmFpbmVyX3BiXzFd
        >
        E 0 90 18 64
        E 0 90 30 64
        E 0 90 48 64
        E 0 90 60 64
        E 0 90 6c 66
        E 120 80 18 00
        E 0 80 30 00
        E 0 80 48 00
        E 0 80 6c 00
        E 240 80 60 00
        E 120 90 30 64
        E 0 90 48 64
        E 0 90 60 64
        E 120 80 30 00
        E 0 80 48 00
        E 240 80 60 00
        E 120 90 18 64
        E 0 90 30 64
        E 0 90 48 64
        E 0 90 60 64
        E 120 80 18 00
        E 0 80 30 00
        E 0 80 48 00
        E 240 80 60 00
        E 120 90 30 64
        E 0 90 48 64
        E 0 90 60 64
        E 120 80 30 00
        E 0 80 48 00
        E 240 80 60 00
        E 120 90 18 68
        E 0 90 30 68
        E 0 90 48 68
        E 0 90 60 68
        E 120 80 18 00
        E 0 80 30 00
        E 0 80 48 00
        E 240 80 60 00
        E 120 90 30 68
        E 0 90 48 68
        E 0 90 60 68
        E 120 80 30 00
        E 0 80 48 00
        E 240 80 60 00
        E 120 90 18 68
        E 0 90 30 68
        E 0 90 48 68
        E 0 90 60 68
        E 120 80 18 00
        E 0 80 30 00
        E 0 80 48 00
        E 240 80 60 00
        E 120 90 30 68
        E 0 90 48 68
        E 0 90 60 68
        E 120 80 30 00
        E 0 80 48 00
        E 240 80 60 00
        <X 120 0
          /wFbcGJfbm9ybSBzb25nX3RyYWluZXJfcGJfMV0=
        >
        E 0 90 18 64
        E 0 90 30 64
        E 0 90 48 64
        E 0 90 60 64
        E 120 80 18 00
        E 0 80 30 00
        E 0 80 48 00
        E 240 80 60 00
        E 120 90 30 64
        E 0 90 48 64
        E 0 90 60 64
        E 120 80 30 00
        E 0 80 48 00
        E 240 80 60 00
        E 120 90 18 64
        E 0 90 30 64
        E 0 90 48 64
        E 0 90 60 64
        E 120 80 18 00
        E 0 80 30 00
        E 0 80 48 00
        E 240 80 60 00
        E 120 90 30 64
        E 0 90 48 64
        E 0 90 60 64
        E 120 80 30 00
        E 0 80 48 00
        E 240 80 60 00
        E 120 90 19 66
        E 0 90 31 66
        E 0 90 49 66
        E 0 90 61 66
        E 120 80 19 00
        E 0 80 31 00
        E 0 80 49 00
        E 240 80 61 00
        E 120 90 31 66
        E 0 90 49 66
        E 0 90 61 66
        E 120 80 31 00
        E 0 80 49 00
        E 240 80 61 00
        E 120 90 18 68
        E 0 90 30 68
        E 0 90 48 68
        E 0 90 60 68
        E 120 80 18 00
        E 0 80 30 00
        E 0 80 48 00
        E 240 80 60 00
        E 120 90 30 68
        E 0 90 48 68
        E 0 90 60 68
        E 120 80 30 00
        E 0 80 48 00
        E 240 80 60 00
        E 120 90 19 64
        E 0 90 31 64
        E 0 90 49 64
        E 0 90 61 64
        E 0 90 74 64
        E 120 80 19 00
        E 0 80 31 00
        E 0 80 49 00
        E 240 80 61 00
        E 120 90 31 64
        E 0 90 49 64
        E 0 90 61 64
        E 120 80 31 00
        E 0 80 49 00
        E 240 80 61 00
        E 120 90 19 64
        E 0 90 31 64
        E 0 90 49 64
        E 0 90 61 64
        E 120 80 19 00
        E 0 80 31 00
        E 0 80 49 00
        E 240 80 61 00
        E 120 90 31 64
        E 0 90 49 64
        E 0 90 61 64
        E 120 80 31 00
        E 0 80 49 00
        E 240 80 61 00
        E 120 90 19 66
        E 0 90 31 66
        E 0 90 49 66
        E 0 90 61 66
        E 120 80 19 00
        E 0 80 31 00
        E 0 80 49 00
        E 240 80 61 00
        E 120 90 31 66
        E 0 90 49 66
        E 0 90 61 66
        E 120 80 31 00
        E 0 80 49 00
        E 240 80 61 00
        E 120 90 19 66
        E 0 90 31 66
        E 0 90 49 66
        E 0 90 61 66
        E 120 80 19 00
        E 0 80 31 00
        E 0 80 49 00
        E 240 80 61 00
        E 120 90 31 66
        E 0 90 49 66
        E 0 90 61 66
        E 120 80 31 00
        E 0 80 49 00
        E 240 80 61 00
        E 120 80 74 00
        E 0 90 18 64
        E 0 90 30 64
        E 0 90 48 64
        E 0 90 60 64
        E 120 80 18 00
        E 0 80 30 00
        E 0 80 48 00
        E 240 80 60 00
        E 120 90 30 64
        E 0 90 48 64
        E 0 90 60 64
        E 120 80 30 00
        E 0 80 48 00
        E 240 80 60 00
        E 120 90 18 64
        E 0 90 30 64
        E 0 90 48 64
        E 0 90 60 64
        E 120 80 18 00
        E 0 80 30 00
        E 0 80 48 00
        E 240 80 60 00
        E 120 90 30 64
        E 0 90 48 64
        E 0 90 60 64
        E 120 80 30 00
        E 0 80 48 00
        E 240 80 60 00
        E 120 90 1a 65
        E 0 90 32 65
        E 0 90 4a 65
        E 0 90 62 65
        E 0 90 6c 65
        E 120 80 1a 00
        E 0 80 32 00
        E 0 80 4a 00
        E 0 80 6c 00
        E 240 80 62 00
        E 120 90 32 65
        E 0 90 4a 65
        E 0 90 62 65
        E 120 80 32 00
        E 0 80 4a 00
        E 240 80 62 00
        E 120 90 1a 65
        E 0 90 32 65
        E 0 90 4a 65
        E 0 90 62 65
        E 120 80 1a 00
        E 0 80 32 00
        E 0 80 4a 00
        E 240 80 62 00
        E 120 90 32 65
        E 0 90 4a 65
        E 0 90 62 65
        E 120 80 32 00
        E 0 80 4a 00
        E 240 80 62 00
        <X 120 0
          /wFbZW5kX3BiIHNvbmdfdHJhaW5lcl9wYl8xXQ==
        >
        E 0 90 1a 66
        E 0 90 4a 66
        E 0 90 62 66
        E 0 90 6c 66
        E 120 80 1a 00
        E 0 80 4a 00
        E 0 80 6c 00
        E 240 80 62 00
        E 120 90 4a 66
        E 0 90 62 66
        E 120 80 4a 00
        E 0 80 62 00
        E 120 90 48 64
        E 0 90 60 64
        E 120 80 48 00
        E 120 90 18 64
        E 120 80 60 00
        E 0 80 18 00
        E 120 90 30 64
        E 0 90 48 64
        E 0 90 60 64
        E 120 80 30 00
        E 0 80 48 00
        E 0 80 60 00
        E 120 90 30 64
        E 0 90 48 64
        E 0 90 60 64
        E 120 80 30 00
        E 0 80 48 00
        E 0 80 60 00
        E 120 90 48 64
        E 0 90 60 64
        E 120 80 48 00
        E 0 80 60 00
        E 120 90 18 68
        E 0 90 30 68
        E 0 90 48 68
        E 0 90 60 68
        E 120 80 18 00
        E 0 80 30 00
        E 0 80 48 00
        E 240 80 60 00
        E 120 90 30 68
        E 0 90 48 68
        E 0 90 60 68
        E 120 80 30 00
        E 0 80 48 00
        E 240 80 60 00
        E 120 90 18 68
        E 0 90 30 68
        E 0 90 48 68
        E 0 90 60 68
        E 120 80 18 00
        E 0 80 30 00
        E 0 80 48 00
        E 240 80 60 00
        E 120 90 30 68
        E 0 90 48 68
        E 0 90 60 68
        E 120 80 30 00
        E 0 80 48 00
        E 240 80 60 00
        E 120 90 18 64
        E 0 90 30 64
        E 0 90 48 64
        E 0 90 60 64
        E 120 80 18 00
        E 0 80 30 00
        E 0 80 48 00
        E 240 80 60 00
        E 120 90 30 64
        E 0 90 48 64
        E 0 90 60 64
        E 120 80 30 00
        E 0 80 48 00
        E 240 80 60 00
        E 120 90 18 64
        E 0 90 30 64
        E 0 90 48 64
        E 0 90 60 64
        E 120 80 18 00
        E 0 80 30 00
        E 0 80 48 00
        E 240 80 60 00
        E 120 90 30 64
        E 0 90 48 64
        E 0 90 60 64
        E 120 80 30 00
        E 0 80 48 00
        E 240 80 60 00
        E 120 90 19 66
        E 0 90 31 66
        E 0 90 49 66
        E 0 90 61 66
        E 120 80 19 00
        E 0 80 31 00
        E 0 80 49 00
        E 240 80 61 00
        E 120 90 31 66
        E 0 90 49 66
        E 0 90 61 66
        E 120 80 31 00
        E 0 80 49 00
        E 240 80 61 00
        E 120 90 18 68
        E 0 90 30 68
        E 0 90 48 68
        E 0 90 60 68
        E 120 80 18 00
        E 0 80 30 00
        E 0 80 48 00
        E 240 80 60 00
        E 120 90 30 68
        E 0 90 48 68
        E 0 90 60 68
        E 120 80 30 00
        E 0 80 48 00
        E 240 80 60 00
        E 120 90 19 64
        E 0 90 31 64
        E 0 90 49 64
        E 0 90 61 64
        E 120 80 19 00
        E 0 80 31 00
        E 0 80 49 00
        E 240 80 61 00
        E 120 90 31 64
        E 0 90 49 64
        E 0 90 61 64
        E 120 80 31 00
        E 0 80 49 00
        E 240 80 61 00
        E 120 90 19 64
        E 0 90 31 64
        E 0 90 49 64
        E 0 90 61 64
        E 120 80 19 00
        E 0 80 31 00
        E 0 80 49 00
        E 240 80 61 00
        E 120 90 31 64
        E 0 90 49 64
        E 0 90 61 64
        E 120 80 31 00
        E 0 80 49 00
        E 240 80 61 00
        E 120 90 19 66
        E 0 90 31 66
        E 0 90 49 66
        E 0 90 61 66
        E 120 80 19 00
        E 0 80 31 00
        E 0 80 49 00
        E 240 80 61 00
        E 120 90 31 66
        E 0 90 49 66
        E 0 90 61 66
        E 120 80 31 00
        E 0 80 49 00
        E 240 80 61 00
        E 120 90 19 66
        E 0 90 31 66
        E 0 90 49 66
        E 0 90 61 66
        E 120 80 19 00
        E 0 80 31 00
        E 0 80 49 00
        E 240 80 61 00
        E 120 90 31 66
        E 0 90 49 66
        E 0 90 61 66
        E 120 80 31 00
        E 0 80 49 00
        E 240 80 61 00
        E 120 90 18 64
        E 0 90 30 64
        E 0 90 48 64
        E 0 90 60 64
        E 0 90 74 64
        E 120 80 18 00
        E 0 80 30 00
        E 0 80 48 00
        E 240 80 60 00
        E 120 90 30 64
        E 0 90 48 64
        E 0 90 60 64
        E 120 80 30 00
        E 0 80 48 00
        E 240 80 60 00
        E 120 90 18 64
        E 0 90 30 64
        E 0 90 48 64
        E 0 90 60 64
        E 120 80 18 00
        E 0 80 30 00
        E 0 80 48 00
        E 240 80 60 00
        E 120 90 30 64
        E 0 90 48 64
        E 0 90 60 64
        E 120 80 30 00
        E 0 80 48 00
        E 240 80 60 00
        E 120 80 74 00
        E 0 90 1a 65
        E 0 90 4a 65
        E 0 90 62 65
        E 0 90 6c 65
        E 120 80 1a 00
        E 0 80 4a 00
        E 0 80 6c 00
        E 240 80 62 00
        E 120 90 4a 65
        E 0 90 62 65
        E 120 80 4a 00
        E 240 80 62 00
        E 120 90 1a 65
        E 0 90 4a 65
        E 0 90 62 65
        E 120 80 1a 00
        E 0 80 4a 00
        E 240 80 62 00
        E 120 90 4a 65
        E 0 90 62 65
        E 120 80 4a 00
        E 240 80 62 00
        <X 120 0
          /wFbYmVnaW5fcGIgc29uZ190cmFpbmVyX3BiXzJd
        >
        E 0 90 19 68
        E 0 90 31 68
        E 0 90 49 68
        E 0 90 61 68
        E 0 90 6c 66
        E 120 80 19 00
        E 0 80 31 00
        E 0 80 49 00
        E 0 80 6c 00
        E 240 80 61 00
        E 120 90 31 68
        E 0 90 49 68
        E 0 90 61 68
        E 120 80 31 00
        E 0 80 49 00
        E 240 80 61 00
        E 120 90 19 68
        E 0 90 31 68
        E 0 90 49 68
        E 0 90 61 68
        E 120 80 19 00
        E 0 80 31 00
        E 0 80 49 00
        E 240 80 61 00
        E 120 90 31 68
        E 0 90 49 68
        E 0 90 61 68
        E 120 80 31 00
        E 0 80 49 00
        E 240 80 61 00
        E 120 90 19 68
        E 0 90 31 68
        E 0 90 49 68
        E 0 90 61 68
        E 120 80 19 00
        E 0 80 31 00
        E 0 80 49 00
        E 240 80 61 00
        E 120 90 31 68
        E 0 90 49 68
        E 0 90 61 68
        E 120 80 31 00
        E 0 80 49 00
        E 0 80 61 00
        E 120 90 19 66
        E 0 90 49 66
        E 0 90 61 66
        E 120 80 19 00
        E 0 80 49 00
        E 240 80 61 00
        E 120 90 31 66
        E 0 90 49 66
        E 0 90 61 66
        E 120 80 31 00
        E 0 80 49 00
        E 0 80 61 00
        E 120 90 31 66
        E 0 90 49 66
        E 0 90 61 66
        E 120 80 31 00
        E 0 80 49 00
        E 0 80 61 00
        E 120 90 49 66
        E 0 90 61 66
        E 120 80 49 00
        E 0 80 61 00
        <X 120 0
          /wFbcGJfbm9ybSBzb25nX3RyYWluZXJfcGJfMl0=
        >
        E 0 90 18 68
        E 0 90 30 68
        E 0 90 48 68
        E 0 90 60 68
        E 120 80 18 00
        E 0 80 30 00
        E 0 80 48 00
        E 240 80 60 00
        E 120 90 30 68
        E 0 90 48 68
        E 0 90 60 68
        E 120 80 30 00
        E 0 80 48 00
        E 240 80 60 00
        E 120 90 18 68
        E 0 90 30 68
        E 0 90 48 68
        E 0 90 60 68
        E 120 80 18 00
        E 0 80 30 00
        E 0 80 48 00
        E 240 80 60 00
        E 120 90 30 68
        E 0 90 48 68
        E 0 90 60 68
        E 120 80 30 00
        E 0 80 48 00
        E 240 80 60 00
        E 120 90 18 66
        E 0 90 30 66
        E 0 90 48 66
        E 0 90 60 66
        E 0 90 74 64
        E 120 80 18 00
        E 0 80 30 00
        E 0 80 48 00
        E 0 80 60 00
        E 120 90 30 66
        E 0 90 48 66
        E 0 90 60 66
        E 120 80 30 00
        E 0 80 48 00
        E 0 80 60 00
        E 120 90 30 66
        E 0 90 48 66
        E 0 90 60 66
        E 120 80 30 00
        E 0 80 48 00
        E 0 80 60 00
        E 120 90 18 64
        E 0 90 48 64
        E 0 90 60 64
        E 120 80 18 00
        E 0 80 48 00
        E 240 80 60 00
        E 120 90 48 64
        E 0 90 60 64
        E 120 80 48 00
        E 0 80 60 00
        E 120 90 31 66
        E 0 90 49 66
        E 0 90 61 66
        E 120 80 31 00
        E 0 80 49 00
        E 0 80 61 00
        E 120 90 49 66
        E 0 90 61 66
        E 120 80 49 00
        E 0 80 61 00
        E 120 80 74 00
        E 0 90 19 68
        E 0 90 31 68
        E 0 90 49 68
        E 0 90 61 68
        E 120 80 19 00
        E 0 80 31 00
        E 0 80 49 00
        E 240 80 61 00
        E 120 90 31 68
        E 0 90 49 68
        E 0 90 61 68
        E 120 80 31 00
        E 0 80 49 00
        E 240 80 61 00
        E 120 90 19 68
        E 0 90 31 68
        E 0 90 49 68
        E 0 90 61 68
        E 120 80 19 00
        E 0 80 31 00
        E 0 80 49 00
        E 240 80 61 00
        E 120 90 31 68
        E 0 90 49 68
        E 0 90 61 68
        E 120 80 31 00
        E 0 80 49 00
        E 240 80 61 00
        E 120 90 19 68
        E 0 90 31 68
        E 0 90 49 68
        E 0 90 61 68
        E 120 80 19 00
        E 0 80 31 00
        E 0 80 49 00
        E 240 80 61 00
        E 120 90 31 68
        E 0 90 49 68
        E 0 90 61 68
        E 120 80 31 00
        E 0 80 49 00
        E 0 80 61 00
        E 120 90 19 66
        E 0 90 49 66
        E 0 90 61 66
        E 120 80 19 00
        E 0 80 49 00
        E 240 80 61 00
        E 120 90 31 66
        E 0 90 49 66
        E 0 90 61 66
        E 120 80 31 00
        E 0 80 49 00
        E 0 80 61 00
        E 120 90 31 66
        E 0 90 49 66
        E 0 90 61 66
        E 120 80 31 00
        E 0 80 49 00
        E 0 80 61 00
        E 120 90 49 66
        E 0 90 61 66
        E 120 80 49 00
        E 0 80 61 00
        E 120 90 18 66
        E 0 90 30 66
        E 0 90 48 66
        E 0 90 60 66
        E 120 80 18 00
        E 0 80 30 00
        E 0 80 48 00
        E 0 80 60 00
        E 120 90 30 66
        E 0 90 48 66
        E 0 90 60 66
        E 120 80 30 00
        E 0 80 48 00
        E 0 80 60 00
        E 120 90 30 66
        E 0 90 48 66
        E 0 90 60 66
        E 120 80 30 00
        E 0 80 48 00
        E 0 80 60 00
        E 120 90 30 66
        E 0 90 48 66
        E 0 90 60 66
        E 120 80 30 00
        E 0 80 48 00
        E 0 80 60 00
        E 120 90 18 66
        E 0 90 30 66
        E 0 90 48 66
        E 0 90 60 66
        E 120 80 18 00
        E 0 80 30 00
        E 0 80 48 00
        E 0 80 60 00
        E 120 90 30 66
        E 0 90 48 66
        E 0 90 60 66
        E 120 80 30 00
        E 0 80 48 00
        E 0 80 60 00
        E 120 90 30 66
        E 0 90 48 66
        E 0 90 60 66
        E 120 80 30 00
        E 0 80 48 00
        E 0 80 60 00
        E 120 90 48 66
        E 0 90 60 66
        E 120 80 48 00
        E 0 80 60 00
        E 120 90 18 68
        E 0 90 30 68
        E 0 90 48 68
        E 0 90 60 68
        E 120 80 18 00
        E 0 80 30 00
        E 0 80 48 00
        E 0 80 60 00
        E 120 90 30 68
        E 0 90 48 68
        E 0 90 60 68
        E 120 80 30 00
        E 0 80 48 00
        E 0 80 60 00
        E 120 90 30 68
        E 0 90 48 68
        E 0 90 60 68
        E 120 80 30 00
        E 0 80 48 00
        E 0 80 60 00
        E 120 90 49 64
        E 0 90 61 64
        E 120 80 49 00
        E 0 80 61 00
        E 120 90 19 64
        E 0 90 31 64
        E 0 90 49 64
        E 0 90 61 64
        E 120 80 19 00
        E 0 80 31 00
        E 0 80 49 00
        E 0 80 61 00
        E 120 90 49 64
        E 0 90 61 64
        E 120 80 49 00
        E 0 80 61 00
        E 120 90 49 66
        E 0 90 61 66
        E 120 80 49 00
        E 0 80 61 00
        E 120 90 49 66
        E 0 90 61 66
        E 120 80 49 00
        E 0 80 61 00
        <X 120 0
          /wFbZW5kX3BiIHNvbmdfdHJhaW5lcl9wYl8yXQ==
        >
        E 0 90 19 68
        E 0 90 31 68
        E 0 90 49 68
        E 0 90 61 68
        E 120 80 19 00
        E 0 80 31 00
        E 0 80 49 00
        E 240 80 61 00
        E 120 90 31 68
        E 0 90 49 68
        E 0 90 61 68
        E 120 80 31 00
        E 0 80 49 00
        E 240 80 61 00
        E 120 90 19 68
        E 0 90 31 68
        E 0 90 49 68
        E 0 90 61 68
        E 120 80 19 00
        E 0 80 31 00
        E 0 80 49 00
        E 240 80 61 00
        E 120 90 31 68
        E 0 90 49 68
        E 0 90 61 68
        E 120 80 31 00
        E 0 80 49 00
        E 240 80 61 00
        E 120 90 19 68
        E 0 90 31 68
        E 0 90 49 68
        E 0 90 61 68
        E 120 80 19 00
        E 0 80 31 00
        E 0 80 49 00
        E 240 80 61 00
        E 120 90 31 68
        E 0 90 49 68
        E 0 90 61 68
        E 120 80 31 00
        E 0 80 49 00
        E 0 80 61 00
        E 120 90 19 66
        E 0 90 49 66
        E 0 90 61 66
        E 120 80 19 00
        E 0 80 49 00
        E 240 80 61 00
        E 120 90 31 66
        E 0 90 49 66
        E 0 90 61 66
        E 120 80 31 00
        E 0 80 49 00
        E 0 80 61 00
        E 120 90 31 66
        E 0 90 49 66
        E 0 90 61 66
        E 120 80 31 00
        E 0 80 49 00
        E 0 80 61 00
        E 120 90 49 66
        E 0 90 61 66
        E 120 80 49 00
        E 0 80 61 00
        E 120 90 18 68
        E 0 90 30 68
        E 0 90 48 68
        E 0 90 60 68
        E 120 80 18 00
        E 0 80 30 00
        E 0 80 48 00
        E 240 80 60 00
        E 120 90 30 68
        E 0 90 48 68
        E 0 90 60 68
        E 120 80 30 00
        E 0 80 48 00
        E 240 80 60 00
        E 120 90 18 68
        E 0 90 30 68
        E 0 90 48 68
        E 0 90 60 68
        E 120 80 18 00
        E 0 80 30 00
        E 0 80 48 00
        E 240 80 60 00
        E 120 90 30 68
        E 0 90 48 68
        E 0 90 60 68
        E 120 80 30 00
        E 0 80 48 00
        E 240 80 60 00
        E 120 90 18 66
        E 0 90 30 66
        E 0 90 48 66
        E 0 90 60 66
        E 120 80 18 00
        E 0 80 30 00
        E 0 80 48 00
        E 0 80 60 00
        E 120 90 30 66
        E 0 90 48 66
        E 0 90 60 66
        E 120 80 30 00
        E 0 80 48 00
        E 0 80 60 00
        E 120 90 30 66
        E 0 90 48 66
        E 0 90 60 66
        E 120 80 30 00
        E 0 80 48 00
        E 0 80 60 00
        E 120 90 18 64
        E 0 90 48 64
        E 0 90 60 64
        E 120 80 18 00
        E 0 80 48 00
        E 240 80 60 00
        E 120 90 48 64
        E 0 90 60 64
        E 120 80 48 00
        E 0 80 60 00
        E 120 90 31 66
        E 0 90 49 66
        E 0 90 61 66
        E 120 80 31 00
        E 0 80 49 00
        E 0 80 61 00
        E 120 90 49 66
        E 0 90 61 66
        E 120 80 49 00
        E 0 80 61 00
        E 120 90 19 68
        E 0 90 31 68
        E 0 90 49 68
        E 0 90 61 68
        E 120 80 19 00
        E 0 80 31 00
        E 0 80 49 00
        E 240 80 61 00
        E 120 90 31 68
        E 0 90 49 68
        E 0 90 61 68
        E 120 80 31 00
        E 0 80 49 00
        E 240 80 61 00
        E 120 90 19 68
        E 0 90 31 68
        E 0 90 49 68
        E 0 90 61 68
        E 120 80 19 00
        E 0 80 31 00
        E 0 80 49 00
        E 240 80 61 00
        E 120 90 31 68
        E 0 90 49 68
        E 0 90 61 68
        E 120 80 31 00
        E 0 80 49 00
        E 240 80 61 00
        E 120 90 19 68
        E 0 90 31 68
        E 0 90 49 68
        E 0 90 61 68
        E 120 80 19 00
        E 0 80 31 00
        E 0 80 49 00
        E 240 80 61 00
        E 120 90 31 68
        E 0 90 49 68
        E 0 90 61 68
        E 120 80 31 00
        E 0 80 49 00
        E 0 80 61 00
        E 120 90 19 66
        E 0 90 49 66
        E 0 90 61 66
        E 120 80 19 00
        E 0 80 49 00
        E 240 80 61 00
        E 120 90 31 66
        E 0 90 49 66
        E 0 90 61 66
        E 120 80 31 00
        E 0 80 49 00
        E 0 80 61 00
        E 120 90 31 66
        E 0 90 49 66
        E 0 90 61 66
        E 120 80 31 00
        E 0 80 49 00
        E 0 80 61 00
        E 120 90 49 66
        E 0 90 61 66
        E 120 80 49 00
        E 0 80 61 00
        E 120 90 18 66
        E 0 90 30 66
        E 0 90 48 66
        E 0 90 60 66
        E 120 80 18 00
        E 0 80 30 00
        E 0 80 48 00
        E 0 80 60 00
        E 120 90 30 66
        E 0 90 48 66
        E 0 90 60 66
        E 120 80 30 00
        E 0 80 48 00
        E 0 80 60 00
        E 120 90 30 66
        E 0 90 48 66
        E 0 90 60 66
        E 120 80 30 00
        E 0 80 48 00
        E 0 80 60 00
        E 120 90 30 66
        E 0 90 48 66
        E 0 90 60 66
        E 120 80 30 00
        E 0 80 48 00
        E 0 80 60 00
        E 120 90 18 66
        E 0 90 30 66
        E 0 90 48 66
        E 0 90 60 66
        E 120 80 18 00
        E 0 80 30 00
        E 0 80 48 00
        E 0 80 60 00
        E 120 90 30 66
        E 0 90 48 66
        E 0 90 60 66
        E 120 80 30 00
        E 0 80 48 00
        E 0 80 60 00
        E 120 90 30 66
        E 0 90 48 66
        E 0 90 60 66
        E 120 80 30 00
        E 0 80 48 00
        E 0 80 60 00
        E 120 90 48 66
        E 0 90 60 66
        E 120 80 48 00
        E 0 80 60 00
        E 120 90 18 68
        E 0 90 30 68
        E 0 90 48 68
        E 0 90 60 68
        E 120 80 18 00
        E 0 80 30 00
        E 0 80 48 00
        E 0 80 60 00
        E 120 90 30 68
        E 0 90 48 68
        E 0 90 60 68
        E 120 80 30 00
        E 0 80 48 00
        E 0 80 60 00
        E 120 90 30 68
        E 0 90 48 68
        E 0 90 60 68
        E 120 80 30 00
        E 0 80 48 00
        E 0 80 60 00
        E 120 90 49 64
        E 0 90 61 64
        E 120 80 49 00
        E 0 80 61 00
        E 120 90 19 64
        E 0 90 31 64
        E 0 90 49 64
        E 0 90 61 64
        E 120 80 19 00
        E 0 80 31 00
        E 0 80 49 00
        E 0 80 61 00
        E 120 90 49 64
        E 0 90 61 64
        E 120 80 49 00
        E 0 80 61 00
        E 120 90 49 66
        E 0 90 61 66
        E 120 80 49 00
        E 0 80 61 00
        E 120 90 49 66
        E 0 90 61 66
        E 120 80 49 00
        E 0 80 61 00
        E 120 90 18 64
        E 0 90 30 64
        E 0 90 48 64
        E 0 90 60 64
        E 9599 80 18 00
        E 0 80 30 00
        E 0 80 48 00
        E 0 80 60 00
        E 5761 b0 7b 00
        GUID {87D0762F-A6C5-46DB-914C-3C4EA118F24A}
        IGNTEMPO 0 120.00000000 4 4
        SRCCOLOR 7
        VELLANE 132 71 60
        COLORMAP "C:\Program Files\REAPER\Data\color_maps\rockband_guitarbass.png"
        TEXTSTRINGFILE "C:\Program Files\REAPER\Data\Text_Strings\Text Events List - Pro Trainers.txt"
        CFGEDITVIEW -4032.000000 14.749883 11 12 0 0 0
        CFGEDIT 1 1 0 1 1 0 1 1 1 1 1 0.25000000 -4 0 1025 558 0 2 1 1 0.00000000 0 1 1 0 0.500000 0 0 1.000000 64
        KEYSNAP 0 0 "102034050607" 0 "Major"
        EVTFILTER 0 144 -1 -1 -1 0 0 0 1 0.06666667 -1.00000000
      >
    >
  >
  <TRACK '{E498B27E-F473-4F11-9739-8C2263ECBF60}'
    NAME "bass"
    PEAKCOL 16576
    BEAT -1
    AUTOMODE 0
    VOLPAN 1.00000000000000 0.00000000000000 -1.00000000000000 -1.00000000000000 1.00000000000000
    MUTESOLO 0 0 0
    IPHASE 0
    ISBUS 2 -1
    BUSCOMP 0 0
    SHOWINMIX 1 0.666700 0.500000 1 0.500000 -1 -1 -1
    FREEMODE 0
    SEL 0
    REC 0 0 0 0 0 0 0
    VU 2
    TRACKHEIGHT 0 0
    INQ 0 0 0 0.5000000000 100 0 0 100
    NCHAN 2
    FX 1
    TRACKID {E498B27E-F473-4F11-9739-8C2263ECBF60}
    PERF 0
    MIDIOUT -1
    MAINSEND 1 0
    <ITEM
      POSITION 0.00000000000000
      SNAPOFFS 0.00000000000000
      LENGTH 85.23952380952380
      LOOP 0
      ALLTAKES 0
      SEL 0
      FADEIN 1 0.000000 0.000000 1 0
      FADEOUT 1 0.000000 0.000000 1 0
      MUTE 0
      IGUID {51FA3637-7287-49F5-901D-9CDD18A0A8EC}
      IID 76
      NAME "bass.wav"
      VOLPAN 1.000000 0.000000 1.000000 -1.000000
      SOFFS 0.00000000000000
      PLAYRATE 1.00000000000000 1 0.00000000000000 -1
      CHANMODE 0
      GUID {3F32BC29-49F9-47AF-BE69-9199300E2A1B}
      <SOURCE WAVE
        FILE "wav\bass.wav"
      >
    >
  >
  <TRACK '{46239905-6F7D-431B-8A4C-0729BD529B26}'
    NAME "PART GUITAR"
    PEAKCOL 16576
    BEAT -1
    AUTOMODE 0
    VOLPAN 1.00000000000000 0.00000000000000 -1.00000000000000 -1.00000000000000 1.00000000000000
    MUTESOLO 0 0 0
    IPHASE 0
    ISBUS 1 1
    BUSCOMP 0 0
    SHOWINMIX 1 0.666700 0.500000 1 0.500000 -1 -1 -1
    FREEMODE 0
    SEL 0
    REC 0 0 0 0 0 0 0
    VU 2
    TRACKHEIGHT 0 0
    INQ 0 0 0 0.5000000000 100 0 0 100
    NCHAN 2
    FX 1
    TRACKID {46239905-6F7D-431B-8A4C-0729BD529B26}
    PERF 0
    MIDIOUT -1
    <MIDINOTENAMES
      0 127 "Trill Marker"
      0 126 "Tremolo Marker"
      0 125 "---"
      0 124 "BRE"
      0 123 "BRE"
      0 122 "BRE"
      0 121 "BRE"
      0 120 "BRE (use all 5)"
      0 119 "----"
      0 116 "OVERDRIVE"
      0 111 "----"
      0 103 "Solo Marker"
      0 102 "Force HOPO Off"
      0 101 "Force HOPO On"
      0 100 "EXPERT Orange"
      0 99 "EXPERT Blue"
      0 98 "EXPERT Yellow"
      0 97 "EXPERT Red"
      0 96 "EXPERT Green"
      0 91 "----"
      0 90 "Force HOPO Off"
      0 89 "Force HOPO On"
      0 88 "HARD Orange"
      0 87 "HARD Blue"
      0 86 "HARD Yellow"
      0 85 "HARD Red"
      0 84 "HARD Green"
      0 80 "----"
      0 76 "MEDIUM Orange"
      0 75 "MEDIUM Blue"
      0 74 "MEDIUM Yellow"
      0 73 "MEDIUM Red"
      0 72 "MEDIUM Green"
      0 68 "----"
      0 64 "EASY Orange"
      0 63 "EASY Blue"
      0 62 "EASY Yellow"
      0 61 "EASY Red"
      0 60 "EASY Green"
      0 59 "Left Hand Highest (Fret 12)"
      0 58 "-"
      0 57 "Fret 11"
      0 56 "Fret 10"
      0 55 "Fret 9"
      0 54 "-"
      0 53 "Fret 8"
      0 52 "Fret 7"
      0 51 "-"
      0 50 "Fret 6"
      0 49 "Fret 5"
      0 48 "-"
      0 47 "Fret 4"
      0 46 "-"
      0 45 "Fret 3"
      0 44 "-"
      0 43 "Fret 2"
      0 42 "-"
      0 41 "-"
      0 40 "Left Hand Lowest (Fret 1)"
    >
    MAINSEND 1 0
    <FXCHAIN
      SHOW 0
      LASTSEL 0
      DOCKED 0
    >
    <ITEM
      POSITION 0.00000000000000
      SNAPOFFS 0.00000000000000
      LENGTH 85.23950400000001
      LOOP 0
      ALLTAKES 0
      SEL 0
      FADEIN 1 0.000000 0.000000 1 0
      FADEOUT 1 0.000000 0.000000 1 0
      MUTE 0
      IGUID {8F87EF52-A304-46DF-A571-52A48B202B15}
      IID 9
      NAME "PART GUITAR"
      VOLPAN 1.000000 0.000000 1.000000 -1.000000
      SOFFS 0.00000000000000 0.00000000000000
      PLAYRATE 1.00000000000000 1 0.00000000000000 -1
      CHANMODE 0
      GUID {3868358D-5ADD-4903-8FFB-E0FD820DDB3C}
      <SOURCE MIDI
        HASDATA 1 480 QN
        POOLEDEVTS {0F695782-4403-476B-B804-3564AFEE55EF}
        <X 0 0
          /wNQQVJUIEdVSVRBUg==
        >
        <X 3600 0
          /wFbbWFwIEhhbmRNYXBfQWxsQ2hvcmRzXQ==
        >
        <X 0 0
          /wFbcGxheV0=
        >
        E 240 90 2b 60
        E 0 90 3d 60
        E 0 90 48 60
        E 0 90 4a 60
        E 0 90 54 60
        E 0 90 56 60
        E 0 90 60 60
        E 0 90 62 60
        E 120 80 3d 00
        E 0 80 48 00
        E 0 80 4a 00
        E 0 80 54 00
        E 0 80 56 00
        E 240 80 60 00
        E 0 80 62 00
        E 120 90 3d 60
        E 0 90 48 60
        E 0 90 4a 60
        E 0 90 54 60
        E 0 90 56 60
        E 0 90 60 60
        E 0 90 62 60
        E 120 80 3d 00
        E 0 80 48 00
        E 0 80 4a 00
        E 0 80 54 00
        E 0 80 56 00
        E 240 80 60 00
        E 0 80 62 00
        E 120 90 3d 60
        E 0 90 48 60
        E 0 90 4a 60
        E 0 90 54 60
        E 0 90 56 60
        E 0 90 60 60
        E 0 90 62 60
        E 120 80 3d 00
        E 0 80 48 00
        E 0 80 4a 00
        E 0 80 54 00
        E 0 80 56 00
        E 240 80 60 00
        E 0 80 62 00
        E 120 90 48 60
        E 0 90 4a 60
        E 0 90 54 60
        E 0 90 56 60
        E 0 90 60 60
        E 0 90 62 60
        E 120 80 48 00
        E 0 80 4a 00
        E 0 80 54 00
        E 0 80 56 00
        E 240 80 60 00
        E 0 80 62 00
        E 1 80 2b 00
        E 119 90 2f 60
        E 0 90 3e 60
        E 0 90 49 60
        E 0 90 4a 60
        E 0 90 55 60
        E 0 90 57 60
        E 0 90 61 60
        E 0 90 63 60
        E 120 80 3e 00
        E 0 80 49 00
        E 0 80 4a 00
        E 0 80 55 00
        E 0 80 57 00
        E 240 80 61 00
        E 0 80 63 00
        E 120 90 3e 60
        E 0 90 49 60
        E 0 90 4a 60
        E 0 90 55 60
        E 0 90 57 60
        E 0 90 61 60
        E 0 90 63 60
        E 120 80 3e 00
        E 0 80 49 00
        E 0 80 4a 00
        E 0 80 55 00
        E 0 80 57 00
        E 240 80 61 00
        E 0 80 63 00
        E 120 90 3e 60
        E 0 90 49 60
        E 0 90 4a 60
        E 0 90 55 60
        E 0 90 57 60
        E 0 90 61 60
        E 0 90 63 60
        E 120 80 3e 00
        E 0 80 49 00
        E 0 80 4a 00
        E 0 80 55 00
        E 0 80 57 00
        E 240 80 61 00
        E 0 80 63 00
        E 120 90 49 60
        E 0 90 4a 60
        E 0 90 55 60
        E 0 90 57 60
        E 0 90 61 60
        E 0 90 63 60
        E 120 80 49 00
        E 0 80 4a 00
        E 0 80 55 00
        E 0 80 57 00
        E 240 80 61 00
        E 0 80 63 00
        E 1 80 2f 00
        E 119 90 2b 60
        E 0 90 3d 60
        E 0 90 48 60
        E 0 90 4a 60
        E 0 90 54 60
        E 0 90 56 60
        E 0 90 60 60
        E 0 90 62 60
        E 120 80 3d 00
        E 0 80 48 00
        E 0 80 4a 00
        E 0 80 54 00
        E 0 80 56 00
        E 240 80 60 00
        E 0 80 62 00
        E 120 90 3d 60
        E 0 90 48 60
        E 0 90 4a 60
        E 0 90 54 60
        E 0 90 56 60
        E 0 90 60 60
        E 0 90 62 60
        E 120 80 3d 00
        E 0 80 48 00
        E 0 80 4a 00
        E 0 80 54 00
        E 0 80 56 00
        E 240 80 60 00
        E 0 80 62 00
        E 120 90 3d 60
        E 0 90 48 60
        E 0 90 4a 60
        E 0 90 54 60
        E 0 90 56 60
        E 0 90 60 60
        E 0 90 62 60
        E 120 80 3d 00
        E 0 80 48 00
        E 0 80 4a 00
        E 0 80 54 00
        E 0 80 56 00
        E 240 80 60 00
        E 0 80 62 00
        E 120 90 48 60
        E 0 90 4a 60
        E 0 90 54 60
        E 0 90 56 60
        E 0 90 60 60
        E 0 90 62 60
        E 120 80 48 00
        E 0 80 4a 00
        E 0 80 54 00
        E 0 80 56 00
        E 240 80 60 00
        E 0 80 62 00
        E 120 90 40 60
        E 0 90 4a 60
        E 0 90 4b 60
        E 0 90 55 60
        E 0 90 58 60
        E 0 90 61 60
        E 0 90 64 60
        E 120 80 40 00
        E 0 80 4a 00
        E 0 80 4b 00
        E 0 80 55 00
        E 0 80 58 00
        E 240 80 61 00
        E 0 80 64 00
        E 120 90 4a 60
        E 0 90 4b 60
        E 0 90 55 60
        E 0 90 58 60
        E 0 90 61 60
        E 0 90 64 60
        E 120 80 4a 00
        E 0 80 4b 00
        E 0 80 55 00
        E 0 80 58 00
        E 240 80 61 00
        E 0 80 64 00
        E 1 80 2b 00
        E 119 90 2f 60
        E 0 90 3e 60
        E 0 90 49 60
        E 0 90 4a 60
        E 0 90 55 60
        E 0 90 57 60
        E 0 90 61 60
        E 0 90 63 60
        E 120 80 3e 00
        E 0 80 49 00
        E 0 80 4a 00
        E 0 80 55 00
        E 0 80 57 00
        E 240 80 61 00
        E 0 80 63 00
        E 120 90 49 60
        E 0 90 4a 60
        E 0 90 55 60
        E 0 90 57 60
        E 0 90 61 60
        E 0 90 63 60
        E 120 80 49 00
        E 0 80 4a 00
        E 0 80 55 00
        E 0 80 57 00
        E 240 80 61 00
        E 0 80 63 00
        E 1 80 2f 00
        E 119 90 2b 60
        E 0 90 3f 60
        E 0 90 49 60
        E 0 90 4b 60
        E 0 90 56 60
        E 0 90 57 60
        E 0 90 62 60
        E 0 90 63 60
        E 0 90 74 60
        E 120 80 3f 00
        E 0 80 49 00
        E 0 80 4b 00
        E 0 80 56 00
        E 0 80 57 00
        E 240 80 62 00
        E 0 80 63 00
        E 120 90 3f 60
        E 0 90 49 60
        E 0 90 4b 60
        E 0 90 56 60
        E 0 90 57 60
        E 0 90 62 60
        E 0 90 63 60
        E 120 80 3f 00
        E 0 80 49 00
        E 0 80 4b 00
        E 0 80 56 00
        E 0 80 57 00
        E 240 80 62 00
        E 0 80 63 00
        E 120 90 3f 60
        E 0 90 49 60
        E 0 90 4b 60
        E 0 90 56 60
        E 0 90 57 60
        E 0 90 62 60
        E 0 90 63 60
        E 120 80 3f 00
        E 0 80 49 00
        E 0 80 4b 00
        E 0 80 56 00
        E 0 80 57 00
        E 240 80 62 00
        E 0 80 63 00
        E 120 90 49 60
        E 0 90 4b 60
        E 0 90 56 60
        E 0 90 57 60
        E 0 90 62 60
        E 0 90 63 60
        E 120 80 49 00
        E 0 80 4b 00
        E 0 80 56 00
        E 0 80 57 00
        E 240 80 62 00
        E 0 80 63 00
        E 120 90 40 60
        E 0 90 4a 60
        E 0 90 4b 60
        E 0 90 56 60
        E 0 90 58 60
        E 0 90 62 60
        E 0 90 64 60
        E 120 80 40 00
        E 0 80 4a 00
        E 0 80 4b 00
        E 0 80 56 00
        E 0 80 58 00
        E 240 80 62 00
        E 0 80 64 00
        E 120 90 40 60
        E 0 90 4a 60
        E 0 90 4b 60
        E 0 90 56 60
        E 0 90 58 60
        E 0 90 62 60
        E 0 90 64 60
        E 120 80 40 00
        E 0 80 4a 00
        E 0 80 4b 00
        E 0 80 56 00
        E 0 80 58 00
        E 240 80 62 00
        E 0 80 64 00
        E 120 90 40 60
        E 0 90 4a 60
        E 0 90 4b 60
        E 0 90 56 60
        E 0 90 58 60
        E 0 90 62 60
        E 0 90 64 60
        E 120 80 40 00
        E 0 80 4a 00
        E 0 80 4b 00
        E 0 80 56 00
        E 0 80 58 00
        E 240 80 62 00
        E 0 80 64 00
        E 120 90 4a 60
        E 0 90 4b 60
        E 0 90 56 60
        E 0 90 58 60
        E 0 90 62 60
        E 0 90 64 60
        E 120 80 4a 00
        E 0 80 4b 00
        E 0 80 56 00
        E 0 80 58 00
        E 240 80 62 00
        E 0 80 64 00
        E 120 80 74 00
        E 0 90 3d 60
        E 0 90 48 60
        E 0 90 4a 60
        E 0 90 54 60
        E 0 90 56 60
        E 0 90 60 60
        E 0 90 62 60
        E 120 80 3d 00
        E 0 80 48 00
        E 0 80 4a 00
        E 0 80 54 00
        E 0 80 56 00
        E 240 80 60 00
        E 0 80 62 00
        E 120 90 3d 60
        E 0 90 48 60
        E 0 90 4a 60
        E 0 90 54 60
        E 0 90 56 60
        E 0 90 60 60
        E 0 90 62 60
        E 120 80 3d 00
        E 0 80 48 00
        E 0 80 4a 00
        E 0 80 54 00
        E 0 80 56 00
        E 240 80 60 00
        E 0 80 62 00
        E 120 90 3d 60
        E 0 90 48 60
        E 0 90 4a 60
        E 0 90 54 60
        E 0 90 56 60
        E 0 90 60 60
        E 0 90 62 60
        E 120 80 3d 00
        E 0 80 48 00
        E 0 80 4a 00
        E 0 80 54 00
        E 0 80 56 00
        E 240 80 60 00
        E 0 80 62 00
        E 120 90 48 60
        E 0 90 4a 60
        E 0 90 54 60
        E 0 90 56 60
        E 0 90 60 60
        E 0 90 62 60
        E 120 80 48 00
        E 0 80 4a 00
        E 0 80 54 00
        E 0 80 56 00
        E 240 80 60 00
        E 0 80 62 00
        E 1 80 2b 00
        E 119 90 32 60
        E 0 90 3c 60
        E 0 90 48 60
        E 0 90 49 60
        E 0 90 54 60
        E 0 90 55 60
        E 0 90 60 60
        E 0 90 61 60
        E 120 80 3c 00
        E 0 80 48 00
        E 0 80 49 00
        E 0 80 54 00
        E 0 80 55 00
        E 240 80 60 00
        E 0 80 61 00
        E 120 90 3c 60
        E 0 90 48 60
        E 0 90 49 60
        E 0 90 54 60
        E 0 90 55 60
        E 0 90 60 60
        E 0 90 61 60
        E 120 80 3c 00
        E 0 80 48 00
        E 0 80 49 00
        E 0 80 54 00
        E 0 80 55 00
        E 240 80 60 00
        E 0 80 61 00
        E 120 90 3c 60
        E 0 90 48 60
        E 0 90 49 60
        E 0 90 54 60
        E 0 90 55 60
        E 0 90 60 60
        E 0 90 61 60
        E 120 80 3c 00
        E 0 80 48 00
        E 0 80 49 00
        E 0 80 54 00
        E 0 80 55 00
        E 240 80 60 00
        E 0 80 61 00
        E 120 90 48 60
        E 0 90 49 60
        E 0 90 54 60
        E 0 90 55 60
        E 0 90 60 60
        E 0 90 61 60
        E 120 80 48 00
        E 0 80 49 00
        E 0 80 54 00
        E 0 80 55 00
        E 240 80 60 00
        E 0 80 61 00
        E 1 80 32 00
        E 119 90 2b 60
        E 0 90 3d 60
        E 0 90 48 60
        E 0 90 4a 60
        E 0 90 54 60
        E 0 90 56 60
        E 0 90 60 60
        E 0 90 62 60
        E 120 80 3d 00
        E 0 80 48 00
        E 0 80 4a 00
        E 0 80 54 00
        E 0 80 56 00
        E 240 80 60 00
        E 0 80 62 00
        E 120 90 3d 60
        E 0 90 48 60
        E 0 90 4a 60
        E 0 90 54 60
        E 0 90 56 60
        E 0 90 60 60
        E 0 90 62 60
        E 120 80 3d 00
        E 0 80 48 00
        E 0 80 4a 00
        E 0 80 54 00
        E 0 80 56 00
        E 240 80 60 00
        E 0 80 62 00
        E 120 90 3d 60
        E 0 90 48 60
        E 0 90 4a 60
        E 0 90 54 60
        E 0 90 56 60
        E 0 90 60 60
        E 0 90 62 60
        E 120 80 3d 00
        E 0 80 48 00
        E 0 80 4a 00
        E 0 80 54 00
        E 0 80 56 00
        E 240 80 60 00
        E 0 80 62 00
        E 120 90 48 60
        E 0 90 4a 60
        E 0 90 54 60
        E 0 90 56 60
        E 0 90 60 60
        E 0 90 62 60
        E 120 80 48 00
        E 0 80 4a 00
        E 0 80 54 00
        E 0 80 56 00
        E 240 80 60 00
        E 0 80 62 00
        E 1 80 2b 00
        E 119 90 2f 60
        E 0 90 3e 60
        E 0 90 49 60
        E 0 90 4a 60
        E 0 90 55 60
        E 0 90 57 60
        E 0 90 61 60
        E 0 90 63 60
        E 120 80 3e 00
        E 0 80 49 00
        E 0 80 4a 00
        E 0 80 55 00
        E 0 80 57 00
        E 240 80 61 00
        E 0 80 63 00
        E 120 90 3e 60
        E 0 90 49 60
        E 0 90 4a 60
        E 0 90 55 60
        E 0 90 57 60
        E 0 90 61 60
        E 0 90 63 60
        E 120 80 3e 00
        E 0 80 49 00
        E 0 80 4a 00
        E 0 80 55 00
        E 0 80 57 00
        E 240 80 61 00
        E 0 80 63 00
        E 120 90 3e 60
        E 0 90 49 60
        E 0 90 4a 60
        E 0 90 55 60
        E 0 90 57 60
        E 0 90 61 60
        E 0 90 63 60
        E 120 80 3e 00
        E 0 80 49 00
        E 0 80 4a 00
        E 0 80 55 00
        E 0 80 57 00
        E 240 80 61 00
        E 0 80 63 00
        E 120 90 49 60
        E 0 90 4a 60
        E 0 90 55 60
        E 0 90 57 60
        E 0 90 61 60
        E 0 90 63 60
        E 120 80 49 00
        E 0 80 4a 00
        E 0 80 55 00
        E 0 80 57 00
        E 240 80 61 00
        E 0 80 63 00
        E 1 80 2f 00
        E 119 90 2b 60
        E 0 90 3d 60
        E 0 90 48 60
        E 0 90 4a 60
        E 0 90 54 60
        E 0 90 56 60
        E 0 90 60 60
        E 0 90 62 60
        E 120 80 3d 00
        E 0 80 48 00
        E 0 80 4a 00
        E 0 80 54 00
        E 0 80 56 00
        E 240 80 60 00
        E 0 80 62 00
        E 120 90 3d 60
        E 0 90 48 60
        E 0 90 4a 60
        E 0 90 54 60
        E 0 90 56 60
        E 0 90 60 60
        E 0 90 62 60
        E 120 80 3d 00
        E 0 80 48 00
        E 0 80 4a 00
        E 0 80 54 00
        E 0 80 56 00
        E 240 80 60 00
        E 0 80 62 00
        E 120 90 3d 60
        E 0 90 48 60
        E 0 90 4a 60
        E 0 90 54 60
        E 0 90 56 60
        E 0 90 60 60
        E 0 90 62 60
        E 120 80 3d 00
        E 0 80 48 00
        E 0 80 4a 00
        E 0 80 54 00
        E 0 80 56 00
        E 240 80 60 00
        E 0 80 62 00
        E 120 90 48 60
        E 0 90 4a 60
        E 0 90 54 60
        E 0 90 56 60
        E 0 90 60 60
        E 0 90 62 60
        E 120 80 48 00
        E 0 80 4a 00
        E 0 80 54 00
        E 0 80 56 00
        E 240 80 60 00
        E 0 80 62 00
        E 120 90 40 60
        E 0 90 4a 60
        E 0 90 4b 60
        E 0 90 55 60
        E 0 90 58 60
        E 0 90 61 60
        E 0 90 64 60
        E 120 80 40 00
        E 0 80 4a 00
        E 0 80 4b 00
        E 0 80 55 00
        E 0 80 58 00
        E 240 80 61 00
        E 0 80 64 00
        E 120 90 4a 60
        E 0 90 4b 60
        E 0 90 55 60
        E 0 90 58 60
        E 0 90 61 60
        E 0 90 64 60
        E 120 80 4a 00
        E 0 80 4b 00
        E 0 80 55 00
        E 0 80 58 00
        E 240 80 61 00
        E 0 80 64 00
        E 1 80 2b 00
        E 119 90 2f 60
        E 0 90 3e 60
        E 0 90 49 60
        E 0 90 4a 60
        E 0 90 55 60
        E 0 90 57 60
        E 0 90 61 60
        E 0 90 63 60
        E 120 80 3e 00
        E 0 80 49 00
        E 0 80 4a 00
        E 0 80 55 00
        E 0 80 57 00
        E 240 80 61 00
        E 0 80 63 00
        E 120 90 49 60
        E 0 90 4a 60
        E 0 90 55 60
        E 0 90 57 60
        E 0 90 61 60
        E 0 90 63 60
        E 120 80 49 00
        E 0 80 4a 00
        E 0 80 55 00
        E 0 80 57 00
        E 240 80 61 00
        E 0 80 63 00
        E 1 80 2f 00
        E 119 90 2b 60
        E 0 90 3f 60
        E 0 90 49 60
        E 0 90 4b 60
        E 0 90 56 60
        E 0 90 57 60
        E 0 90 62 60
        E 0 90 63 60
        E 0 90 74 60
        E 120 80 3f 00
        E 0 80 49 00
        E 0 80 4b 00
        E 0 80 56 00
        E 0 80 57 00
        E 240 80 62 00
        E 0 80 63 00
        E 120 90 3f 60
        E 0 90 49 60
        E 0 90 4b 60
        E 0 90 56 60
        E 0 90 57 60
        E 0 90 62 60
        E 0 90 63 60
        E 120 80 3f 00
        E 0 80 49 00
        E 0 80 4b 00
        E 0 80 56 00
        E 0 80 57 00
        E 240 80 62 00
        E 0 80 63 00
        E 120 90 3f 60
        E 0 90 49 60
        E 0 90 4b 60
        E 0 90 56 60
        E 0 90 57 60
        E 0 90 62 60
        E 0 90 63 60
        E 120 80 3f 00
        E 0 80 49 00
        E 0 80 4b 00
        E 0 80 56 00
        E 0 80 57 00
        E 240 80 62 00
        E 0 80 63 00
        E 120 90 49 60
        E 0 90 4b 60
        E 0 90 56 60
        E 0 90 57 60
        E 0 90 62 60
        E 0 90 63 60
        E 120 80 49 00
        E 0 80 4b 00
        E 0 80 56 00
        E 0 80 57 00
        E 240 80 62 00
        E 0 80 63 00
        E 120 80 74 00
        E 0 90 40 60
        E 0 90 4a 60
        E 0 90 4b 60
        E 0 90 56 60
        E 0 90 58 60
        E 0 90 62 60
        E 0 90 64 60
        E 120 80 40 00
        E 0 80 4a 00
        E 0 80 4b 00
        E 0 80 56 00
        E 0 80 58 00
        E 240 80 62 00
        E 0 80 64 00
        E 120 90 40 60
        E 0 90 4a 60
        E 0 90 4b 60
        E 0 90 56 60
        E 0 90 58 60
        E 0 90 62 60
        E 0 90 64 60
        E 120 80 40 00
        E 0 80 4a 00
        E 0 80 4b 00
        E 0 80 56 00
        E 0 80 58 00
        E 240 80 62 00
        E 0 80 64 00
        E 120 90 40 60
        E 0 90 4a 60
        E 0 90 4b 60
        E 0 90 56 60
        E 0 90 58 60
        E 0 90 62 60
        E 0 90 64 60
        E 120 80 40 00
        E 0 80 4a 00
        E 0 80 4b 00
        E 0 80 56 00
        E 0 80 58 00
        E 240 80 62 00
        E 0 80 64 00
        E 120 90 4a 60
        E 0 90 4b 60
        E 0 90 56 60
        E 0 90 58 60
        E 0 90 62 60
        E 0 90 64 60
        E 120 80 4a 00
        E 0 80 4b 00
        E 0 80 56 00
        E 0 80 58 00
        E 240 80 62 00
        E 0 80 64 00
        E 120 90 3d 60
        E 0 90 48 60
        E 0 90 4a 60
        E 0 90 54 60
        E 0 90 56 60
        E 0 90 60 60
        E 0 90 62 60
        E 120 80 3d 00
        E 0 80 48 00
        E 0 80 4a 00
        E 0 80 54 00
        E 0 80 56 00
        E 240 80 60 00
        E 0 80 62 00
        E 120 90 3d 60
        E 0 90 48 60
        E 0 90 4a 60
        E 0 90 54 60
        E 0 90 56 60
        E 0 90 60 60
        E 0 90 62 60
        E 120 80 3d 00
        E 0 80 48 00
        E 0 80 4a 00
        E 0 80 54 00
        E 0 80 56 00
        E 240 80 60 00
        E 0 80 62 00
        E 120 90 3d 60
        E 0 90 48 60
        E 0 90 4a 60
        E 0 90 54 60
        E 0 90 56 60
        E 0 90 60 60
        E 0 90 62 60
        E 120 80 3d 00
        E 0 80 48 00
        E 0 80 4a 00
        E 0 80 54 00
        E 0 80 56 00
        E 240 80 60 00
        E 0 80 62 00
        E 120 90 48 60
        E 0 90 4a 60
        E 0 90 54 60
        E 0 90 56 60
        E 0 90 60 60
        E 0 90 62 60
        E 120 80 48 00
        E 0 80 4a 00
        E 0 80 54 00
        E 0 80 56 00
        E 240 80 2b 00
        E 0 80 60 00
        E 0 80 62 00
        E 119 90 32 60
        E 1 90 3c 60
        E 0 90 48 60
        E 0 90 49 60
        E 0 90 54 60
        E 0 90 55 60
        E 0 90 60 60
        E 0 90 61 60
        E 120 80 3c 00
        E 0 80 48 00
        E 0 80 49 00
        E 0 80 54 00
        E 0 80 55 00
        E 240 80 60 00
        E 0 80 61 00
        E 120 90 3c 60
        E 0 90 48 60
        E 0 90 49 60
        E 0 90 54 60
        E 0 90 55 60
        E 0 90 60 60
        E 0 90 61 60
        E 120 80 3c 00
        E 0 80 48 00
        E 0 80 49 00
        E 0 80 54 00
        E 0 80 55 00
        E 240 80 60 00
        E 0 80 61 00
        E 120 90 3c 60
        E 0 90 48 60
        E 0 90 49 60
        E 0 90 54 60
        E 0 90 55 60
        E 0 90 60 60
        E 0 90 61 60
        E 120 80 3c 00
        E 0 80 48 00
        E 0 80 49 00
        E 0 80 54 00
        E 0 80 55 00
        E 240 80 60 00
        E 0 80 61 00
        E 120 90 48 60
        E 0 90 49 60
        E 0 90 54 60
        E 0 90 55 60
        E 0 90 60 60
        E 0 90 61 60
        E 120 80 48 00
        E 0 80 49 00
        E 0 80 54 00
        E 0 80 55 00
        E 240 80 60 00
        E 0 80 61 00
        E 1 80 32 00
        <X 119 0
          /wFbaW50ZW5zZV0=
        >
        E 0 90 2f 60
        E 0 90 40 60
        E 0 90 4a 60
        E 0 90 4b 60
        E 0 90 56 60
        E 0 90 58 60
        E 0 90 62 60
        E 0 90 64 60
        E 120 80 40 00
        E 0 80 4a 00
        E 0 80 4b 00
        E 0 80 56 00
        E 0 80 58 00
        E 240 80 62 00
        E 0 80 64 00
        E 120 90 40 60
        E 0 90 4a 60
        E 0 90 4b 60
        E 0 90 56 60
        E 0 90 58 60
        E 0 90 62 60
        E 0 90 64 60
        E 120 80 40 00
        E 0 80 4a 00
        E 0 80 4b 00
        E 0 80 56 00
        E 0 80 58 00
        E 240 80 62 00
        E 0 80 64 00
        E 120 90 40 60
        E 0 90 4a 60
        E 0 90 4b 60
        E 0 90 56 60
        E 0 90 58 60
        E 0 90 62 60
        E 0 90 64 60
        E 120 80 40 00
        E 0 80 4a 00
        E 0 80 4b 00
        E 0 80 56 00
        E 0 80 58 00
        E 240 80 62 00
        E 0 80 64 00
        E 120 90 40 60
        E 0 90 4a 60
        E 0 90 4b 60
        E 0 90 56 60
        E 0 90 58 60
        E 0 90 62 60
        E 0 90 64 60
        E 120 80 40 00
        E 0 80 4a 00
        E 0 80 4b 00
        E 0 80 56 00
        E 0 80 58 00
        E 240 80 62 00
        E 0 80 64 00
        E 120 90 40 60
        E 0 90 4a 60
        E 0 90 4b 60
        E 0 90 56 60
        E 0 90 58 60
        E 0 90 62 60
        E 0 90 64 60
        E 120 80 40 00
        E 0 80 4a 00
        E 0 80 4b 00
        E 0 80 56 00
        E 0 80 58 00
        E 240 80 62 00
        E 0 80 64 00
        E 120 90 4a 60
        E 0 90 4b 60
        E 0 90 56 60
        E 0 90 58 60
        E 0 90 62 60
        E 0 90 64 60
        E 120 80 4a 00
        E 0 80 4b 00
        E 0 80 56 00
        E 0 80 58 00
        E 240 80 62 00
        E 0 80 64 00
        E 1 80 2f 00
        E 119 90 2b 60
        E 0 90 3f 60
        E 0 90 49 60
        E 0 90 4b 60
        E 0 90 56 60
        E 0 90 57 60
        E 0 90 62 60
        E 0 90 63 60
        E 120 80 3f 00
        E 0 80 49 00
        E 0 80 4b 00
        E 0 80 56 00
        E 0 80 57 00
        E 240 80 62 00
        E 0 80 63 00
        E 120 90 49 60
        E 0 90 4b 60
        E 0 90 56 60
        E 0 90 57 60
        E 0 90 62 60
        E 0 90 63 60
        E 120 80 49 00
        E 0 80 4b 00
        E 0 80 56 00
        E 0 80 57 00
        E 240 80 62 00
        E 0 80 63 00
        E 1 80 2b 00
        E 119 90 2f 60
        E 0 90 40 60
        E 0 90 4a 60
        E 0 90 4b 60
        E 0 90 55 60
        E 0 90 58 60
        E 0 90 61 60
        E 0 90 64 60
        E 120 80 40 00
        E 0 80 4a 00
        E 0 80 4b 00
        E 0 80 55 00
        E 0 80 58 00
        E 240 80 61 00
        E 0 80 64 00
        E 120 90 40 60
        E 0 90 4a 60
        E 0 90 4b 60
        E 0 90 55 60
        E 0 90 58 60
        E 0 90 61 60
        E 0 90 64 60
        E 120 80 40 00
        E 0 80 4a 00
        E 0 80 4b 00
        E 0 80 55 00
        E 0 80 58 00
        E 240 80 61 00
        E 0 80 64 00
        E 120 90 40 60
        E 0 90 4a 60
        E 0 90 4b 60
        E 0 90 55 60
        E 0 90 58 60
        E 0 90 61 60
        E 0 90 64 60
        E 120 80 40 00
        E 0 80 4a 00
        E 0 80 4b 00
        E 0 80 55 00
        E 0 80 58 00
        E 240 80 61 00
        E 0 80 64 00
        E 120 90 4a 60
        E 0 90 4b 60
        E 0 90 55 60
        E 0 90 58 60
        E 0 90 61 60
        E 0 90 64 60
        E 120 80 4a 00
        E 0 80 4b 00
        E 0 80 55 00
        E 0 80 58 00
        E 240 80 61 00
        E 0 80 64 00
        E 1 80 2f 00
        E 119 90 2b 60
        E 0 90 3d 60
        E 0 90 48 60
        E 0 90 4a 60
        E 0 90 54 60
        E 0 90 56 60
        E 0 90 60 60
        E 0 90 62 60
        E 120 80 3d 00
        E 0 80 48 00
        E 0 80 4a 00
        E 0 80 54 00
        E 0 80 56 00
        E 240 80 60 00
        E 0 80 62 00
        E 120 90 48 60
        E 0 90 4a 60
        E 0 90 54 60
        E 0 90 56 60
        E 0 90 60 60
        E 0 90 62 60
        E 120 80 48 00
        E 0 80 4a 00
        E 0 80 54 00
        E 0 80 56 00
        E 240 80 60 00
        E 0 80 62 00
        E 120 90 3c 60
        E 0 90 48 60
        E 0 90 49 60
        E 0 90 54 60
        E 0 90 55 60
        E 0 90 60 60
        E 0 90 61 60
        E 120 80 3c 00
        E 0 80 48 00
        E 0 80 49 00
        E 0 80 54 00
        E 0 80 55 00
        E 240 80 60 00
        E 0 80 61 00
        E 120 90 49 60
        E 0 90 4b 60
        E 0 90 56 60
        E 0 90 57 60
        E 0 90 62 60
        E 0 90 63 60
        E 120 80 49 00
        E 0 80 4b 00
        E 0 80 56 00
        E 0 80 57 00
        E 240 80 62 00
        E 0 80 63 00
        E 1 80 2b 00
        E 119 90 2f 60
        E 0 90 40 60
        E 0 90 4a 60
        E 0 90 4b 60
        E 0 90 56 60
        E 0 90 58 60
        E 0 90 62 60
        E 0 90 64 60
        E 0 90 74 60
        E 120 80 40 00
        E 0 80 4a 00
        E 0 80 4b 00
        E 0 80 56 00
        E 0 80 58 00
        E 240 80 62 00
        E 0 80 64 00
        E 120 90 40 60
        E 0 90 4a 60
        E 0 90 4b 60
        E 0 90 56 60
        E 0 90 58 60
        E 0 90 62 60
        E 0 90 64 60
        E 120 80 40 00
        E 0 80 4a 00
        E 0 80 4b 00
        E 0 80 56 00
        E 0 80 58 00
        E 240 80 62 00
        E 0 80 64 00
        E 120 90 40 60
        E 0 90 4a 60
        E 0 90 4b 60
        E 0 90 56 60
        E 0 90 58 60
        E 0 90 62 60
        E 0 90 64 60
        E 120 80 40 00
        E 0 80 4a 00
        E 0 80 4b 00
        E 0 80 56 00
        E 0 80 58 00
        E 240 80 62 00
        E 0 80 64 00
        E 120 90 40 60
        E 0 90 4a 60
        E 0 90 4b 60
        E 0 90 56 60
        E 0 90 58 60
        E 0 90 62 60
        E 0 90 64 60
        E 120 80 40 00
        E 0 80 4a 00
        E 0 80 4b 00
        E 0 80 56 00
        E 0 80 58 00
        E 240 80 62 00
        E 0 80 64 00
        E 120 80 74 00
        E 0 90 40 60
        E 0 90 4a 60
        E 0 90 4b 60
        E 0 90 56 60
        E 0 90 58 60
        E 0 90 62 60
        E 0 90 64 60
        E 120 80 40 00
        E 0 80 4a 00
        E 0 80 4b 00
        E 0 80 56 00
        E 0 80 58 00
        E 240 80 62 00
        E 0 80 64 00
        E 120 90 4a 60
        E 0 90 4b 60
        E 0 90 56 60
        E 0 90 58 60
        E 0 90 62 60
        E 0 90 64 60
        E 120 80 4a 00
        E 0 80 4b 00
        E 0 80 56 00
        E 0 80 58 00
        E 240 80 62 00
        E 0 80 64 00
        E 1 80 2f 00
        E 119 90 2b 60
        E 0 90 3f 60
        E 0 90 49 60
        E 0 90 4b 60
        E 0 90 56 60
        E 0 90 57 60
        E 0 90 62 60
        E 0 90 63 60
        E 120 80 3f 00
        E 0 80 49 00
        E 0 80 4b 00
        E 0 80 56 00
        E 0 80 57 00
        E 240 80 62 00
        E 0 80 63 00
        E 120 90 49 60
        E 0 90 4b 60
        E 0 90 56 60
        E 0 90 57 60
        E 0 90 62 60
        E 0 90 63 60
        E 120 80 49 00
        E 0 80 4b 00
        E 0 80 56 00
        E 0 80 57 00
        E 240 80 62 00
        E 0 80 63 00
        E 1 80 2b 00
        E 119 90 2f 60
        E 0 90 3e 60
        E 0 90 49 60
        E 0 90 4a 60
        E 0 90 54 60
        E 0 90 57 60
        E 0 90 60 60
        E 0 90 63 60
        E 120 80 3e 00
        E 0 80 49 00
        E 0 80 4a 00
        E 0 80 54 00
        E 0 80 57 00
        E 240 80 60 00
        E 0 80 63 00
        E 120 90 3e 60
        E 0 90 49 60
        E 0 90 4a 60
        E 0 90 54 60
        E 0 90 57 60
        E 0 90 60 60
        E 0 90 63 60
        E 120 80 3e 00
        E 0 80 49 00
        E 0 80 4a 00
        E 0 80 54 00
        E 0 80 57 00
        E 240 80 60 00
        E 0 80 63 00
        E 120 90 3e 60
        E 0 90 49 60
        E 0 90 4a 60
        E 0 90 54 60
        E 0 90 57 60
        E 0 90 60 60
        E 0 90 63 60
        E 120 80 3e 00
        E 0 80 49 00
        E 0 80 4a 00
        E 0 80 54 00
        E 0 80 57 00
        E 240 80 60 00
        E 0 80 63 00
        E 120 90 3e 60
        E 0 90 49 60
        E 0 90 4a 60
        E 0 90 54 60
        E 0 90 57 60
        E 0 90 60 60
        E 0 90 63 60
        E 120 80 3e 00
        E 0 80 49 00
        E 0 80 4a 00
        E 0 80 54 00
        E 0 80 57 00
        E 240 80 60 00
        E 0 80 63 00
        E 1 80 2f 00
        E 119 90 32 60
        E 0 90 3e 60
        E 0 90 49 60
        E 0 90 4a 60
        E 0 90 55 60
        E 0 90 57 60
        E 0 90 61 60
        E 0 90 63 60
        E 120 80 3e 00
        E 0 80 49 00
        E 0 80 4a 00
        E 0 80 55 00
        E 0 80 57 00
        E 240 80 61 00
        E 0 80 63 00
        E 120 90 49 60
        E 0 90 4a 60
        E 0 90 55 60
        E 0 90 57 60
        E 0 90 61 60
        E 0 90 63 60
        E 120 80 49 00
        E 0 80 4a 00
        E 0 80 55 00
        E 0 80 57 00
        E 240 80 61 00
        E 0 80 63 00
        E 1 80 32 00
        E 119 90 34 60
        E 0 90 40 60
        E 0 90 4a 60
        E 0 90 4b 60
        E 0 90 56 60
        E 0 90 58 60
        E 0 90 62 60
        E 0 90 64 60
        E 120 80 40 00
        E 0 80 4a 00
        E 0 80 4b 00
        E 0 80 56 00
        E 0 80 58 00
        E 240 80 62 00
        E 0 80 64 00
        E 1 80 34 00
        E 119 90 37 60
        E 0 90 40 60
        E 0 90 4b 60
        E 0 90 4c 60
        E 0 90 57 60
        E 0 90 58 60
        E 0 90 63 60
        E 0 90 64 60
        E 120 80 40 00
        E 0 80 4b 00
        E 0 80 4c 00
        E 0 80 57 00
        E 0 80 58 00
        E 240 80 63 00
        E 0 80 64 00
        E 1 80 37 00
        E 119 90 2f 60
        E 0 90 40 60
        E 0 90 4a 60
        E 0 90 4b 60
        E 0 90 56 60
        E 0 90 58 60
        E 0 90 62 60
        E 0 90 64 60
        E 120 80 40 00
        E 0 80 4a 00
        E 0 80 4b 00
        E 0 80 56 00
        E 0 80 58 00
        E 240 80 62 00
        E 0 80 64 00
        E 120 90 40 60
        E 0 90 4a 60
        E 0 90 4b 60
        E 0 90 56 60
        E 0 90 58 60
        E 0 90 62 60
        E 0 90 64 60
        E 120 80 40 00
        E 0 80 4a 00
        E 0 80 4b 00
        E 0 80 56 00
        E 0 80 58 00
        E 240 80 62 00
        E 0 80 64 00
        E 120 90 40 60
        E 0 90 4a 60
        E 0 90 4b 60
        E 0 90 56 60
        E 0 90 58 60
        E 0 90 62 60
        E 0 90 64 60
        E 120 80 40 00
        E 0 80 4a 00
        E 0 80 4b 00
        E 0 80 56 00
        E 0 80 58 00
        E 240 80 62 00
        E 0 80 64 00
        E 120 90 40 60
        E 0 90 4a 60
        E 0 90 4b 60
        E 0 90 56 60
        E 0 90 58 60
        E 0 90 62 60
        E 0 90 64 60
        E 120 80 40 00
        E 0 80 4a 00
        E 0 80 4b 00
        E 0 80 56 00
        E 0 80 58 00
        E 240 80 62 00
        E 0 80 64 00
        E 120 90 40 60
        E 0 90 4a 60
        E 0 90 4b 60
        E 0 90 56 60
        E 0 90 58 60
        E 0 90 62 60
        E 0 90 64 60
        E 120 80 40 00
        E 0 80 4a 00
        E 0 80 4b 00
        E 0 80 56 00
        E 0 80 58 00
        E 240 80 62 00
        E 0 80 64 00
        E 120 90 4a 60
        E 0 90 4b 60
        E 0 90 56 60
        E 0 90 58 60
        E 0 90 62 60
        E 0 90 64 60
        E 120 80 4a 00
        E 0 80 4b 00
        E 0 80 56 00
        E 0 80 58 00
        E 240 80 62 00
        E 0 80 64 00
        E 1 80 2f 00
        E 119 90 2b 60
        E 0 90 3f 60
        E 0 90 49 60
        E 0 90 4b 60
        E 0 90 56 60
        E 0 90 57 60
        E 0 90 62 60
        E 0 90 63 60
        E 120 80 3f 00
        E 0 80 49 00
        E 0 80 4b 00
        E 0 80 56 00
        E 0 80 57 00
        E 240 80 62 00
        E 0 80 63 00
        E 120 90 49 60
        E 0 90 4b 60
        E 0 90 56 60
        E 0 90 57 60
        E 0 90 62 60
        E 0 90 63 60
        E 120 80 49 00
        E 0 80 4b 00
        E 0 80 56 00
        E 0 80 57 00
        E 240 80 62 00
        E 0 80 63 00
        E 1 80 2b 00
        E 119 90 2f 60
        E 0 90 40 60
        E 0 90 4a 60
        E 0 90 4b 60
        E 0 90 55 60
        E 0 90 58 60
        E 0 90 61 60
        E 0 90 64 60
        E 120 80 40 00
        E 0 80 4a 00
        E 0 80 4b 00
        E 0 80 55 00
        E 0 80 58 00
        E 240 80 61 00
        E 0 80 64 00
        E 120 90 40 60
        E 0 90 4a 60
        E 0 90 4b 60
        E 0 90 55 60
        E 0 90 58 60
        E 0 90 61 60
        E 0 90 64 60
        E 120 80 40 00
        E 0 80 4a 00
        E 0 80 4b 00
        E 0 80 55 00
        E 0 80 58 00
        E 240 80 61 00
        E 0 80 64 00
        E 120 90 40 60
        E 0 90 4a 60
        E 0 90 4b 60
        E 0 90 55 60
        E 0 90 58 60
        E 0 90 61 60
        E 0 90 64 60
        E 120 80 40 00
        E 0 80 4a 00
        E 0 80 4b 00
        E 0 80 55 00
        E 0 80 58 00
        E 240 80 61 00
        E 0 80 64 00
        E 120 90 4a 60
        E 0 90 4b 60
        E 0 90 55 60
        E 0 90 58 60
        E 0 90 61 60
        E 0 90 64 60
        E 120 80 4a 00
        E 0 80 4b 00
        E 0 80 55 00
        E 0 80 58 00
        E 240 80 61 00
        E 0 80 64 00
        E 1 80 2f 00
        E 119 90 2b 60
        E 0 90 3d 60
        E 0 90 48 60
        E 0 90 4a 60
        E 0 90 54 60
        E 0 90 56 60
        E 0 90 60 60
        E 0 90 62 60
        E 120 80 3d 00
        E 0 80 48 00
        E 0 80 4a 00
        E 0 80 54 00
        E 0 80 56 00
        E 240 80 60 00
        E 0 80 62 00
        E 120 90 48 60
        E 0 90 4a 60
        E 0 90 54 60
        E 0 90 56 60
        E 0 90 60 60
        E 0 90 62 60
        E 120 80 48 00
        E 0 80 4a 00
        E 0 80 54 00
        E 0 80 56 00
        E 240 80 60 00
        E 0 80 62 00
        E 120 90 3c 60
        E 0 90 48 60
        E 0 90 49 60
        E 0 90 54 60
        E 0 90 55 60
        E 0 90 60 60
        E 0 90 61 60
        E 120 80 3c 00
        E 0 80 48 00
        E 0 80 49 00
        E 0 80 54 00
        E 0 80 55 00
        E 240 80 60 00
        E 0 80 61 00
        E 120 90 49 60
        E 0 90 4b 60
        E 0 90 56 60
        E 0 90 57 60
        E 0 90 62 60
        E 0 90 63 60
        E 120 80 49 00
        E 0 80 4b 00
        E 0 80 56 00
        E 0 80 57 00
        E 240 80 62 00
        E 0 80 63 00
        E 1 80 2b 00
        E 119 90 2f 60
        E 0 90 40 60
        E 0 90 4a 60
        E 0 90 4b 60
        E 0 90 56 60
        E 0 90 58 60
        E 0 90 62 60
        E 0 90 64 60
        E 120 80 40 00
        E 0 80 4a 00
        E 0 80 4b 00
        E 0 80 56 00
        E 0 80 58 00
        E 240 80 62 00
        E 0 80 64 00
        E 120 90 40 60
        E 0 90 4a 60
        E 0 90 4b 60
        E 0 90 56 60
        E 0 90 58 60
        E 0 90 62 60
        E 0 90 64 60
        E 120 80 40 00
        E 0 80 4a 00
        E 0 80 4b 00
        E 0 80 56 00
        E 0 80 58 00
        E 240 80 62 00
        E 0 80 64 00
        E 120 90 40 60
        E 0 90 4a 60
        E 0 90 4b 60
        E 0 90 56 60
        E 0 90 58 60
        E 0 90 62 60
        E 0 90 64 60
        E 120 80 40 00
        E 0 80 4a 00
        E 0 80 4b 00
        E 0 80 56 00
        E 0 80 58 00
        E 240 80 62 00
        E 0 80 64 00
        E 120 90 40 60
        E 0 90 4a 60
        E 0 90 4b 60
        E 0 90 56 60
        E 0 90 58 60
        E 0 90 62 60
        E 0 90 64 60
        E 120 80 40 00
        E 0 80 4a 00
        E 0 80 4b 00
        E 0 80 56 00
        E 0 80 58 00
        E 240 80 62 00
        E 0 80 64 00
        E 120 90 40 60
        E 0 90 4a 60
        E 0 90 4b 60
        E 0 90 56 60
        E 0 90 58 60
        E 0 90 62 60
        E 0 90 64 60
        E 120 80 40 00
        E 0 80 4a 00
        E 0 80 4b 00
        E 0 80 56 00
        E 0 80 58 00
        E 240 80 62 00
        E 0 80 64 00
        E 120 90 4a 60
        E 0 90 4b 60
        E 0 90 56 60
        E 0 90 58 60
        E 0 90 62 60
        E 0 90 64 60
        E 120 80 4a 00
        E 0 80 4b 00
        E 0 80 56 00
        E 0 80 58 00
        E 240 80 62 00
        E 0 80 64 00
        E 1 80 2f 00
        E 119 90 2b 60
        E 0 90 3f 60
        E 0 90 49 60
        E 0 90 4b 60
        E 0 90 56 60
        E 0 90 57 60
        E 0 90 62 60
        E 0 90 63 60
        E 120 80 3f 00
        E 0 80 49 00
        E 0 80 4b 00
        E 0 80 56 00
        E 0 80 57 00
        E 240 80 62 00
        E 0 80 63 00
        E 120 90 49 60
        E 0 90 4b 60
        E 0 90 56 60
        E 0 90 57 60
        E 0 90 62 60
        E 0 90 63 60
        E 120 80 49 00
        E 0 80 4b 00
        E 0 80 56 00
        E 0 80 57 00
        E 240 80 62 00
        E 0 80 63 00
        E 1 80 2b 00
        E 119 90 2f 60
        E 0 90 3e 60
        E 0 90 49 60
        E 0 90 4a 60
        E 0 90 54 60
        E 0 90 57 60
        E 0 90 60 60
        E 0 90 63 60
        E 120 80 3e 00
        E 0 80 49 00
        E 0 80 4a 00
        E 0 80 54 00
        E 0 80 57 00
        E 240 80 60 00
        E 0 80 63 00
        E 120 90 3e 60
        E 0 90 49 60
        E 0 90 4a 60
        E 0 90 54 60
        E 0 90 57 60
        E 0 90 60 60
        E 0 90 63 60
        E 120 80 3e 00
        E 0 80 49 00
        E 0 80 4a 00
        E 0 80 54 00
        E 0 80 57 00
        E 240 80 60 00
        E 0 80 63 00
        E 120 90 3e 60
        E 0 90 49 60
        E 0 90 4a 60
        E 0 90 54 60
        E 0 90 57 60
        E 0 90 60 60
        E 0 90 63 60
        E 120 80 3e 00
        E 0 80 49 00
        E 0 80 4a 00
        E 0 80 54 00
        E 0 80 57 00
        E 240 80 60 00
        E 0 80 63 00
        E 120 90 3e 60
        E 0 90 49 60
        E 0 90 4a 60
        E 0 90 54 60
        E 0 90 57 60
        E 0 90 60 60
        E 0 90 63 60
        E 120 80 3e 00
        E 0 80 49 00
        E 0 80 4a 00
        E 0 80 54 00
        E 0 80 57 00
        E 240 80 60 00
        E 0 80 63 00
        E 1 80 2f 00
        E 119 90 32 60
        E 0 90 3e 60
        E 0 90 49 60
        E 0 90 4a 60
        E 0 90 55 60
        E 0 90 57 60
        E 0 90 61 60
        E 0 90 63 60
        E 120 80 3e 00
        E 0 80 49 00
        E 0 80 4a 00
        E 0 80 55 00
        E 0 80 57 00
        E 240 80 61 00
        E 0 80 63 00
        E 120 90 49 60
        E 0 90 4a 60
        E 0 90 55 60
        E 0 90 57 60
        E 0 90 61 60
        E 0 90 63 60
        E 120 80 49 00
        E 0 80 4a 00
        E 0 80 55 00
        E 0 80 57 00
        E 240 80 61 00
        E 0 80 63 00
        E 1 80 32 00
        E 119 90 34 60
        E 0 90 40 60
        E 0 90 4a 60
        E 0 90 4b 60
        E 0 90 56 60
        E 0 90 58 60
        E 0 90 62 60
        E 0 90 64 60
        E 120 80 40 00
        E 0 80 4a 00
        E 0 80 4b 00
        E 0 80 56 00
        E 0 80 58 00
        E 240 80 62 00
        E 0 80 64 00
        E 1 80 34 00
        E 119 90 37 60
        E 0 90 4b 60
        E 0 90 4c 60
        E 0 90 57 60
        E 0 90 58 60
        E 0 90 63 60
        E 0 90 64 60
        E 120 80 4b 00
        E 0 80 4c 00
        E 0 80 57 00
        E 0 80 58 00
        E 240 80 63 00
        E 0 80 64 00
        E 1 80 37 00
        E 119 90 2b 60
        E 0 90 3d 60
        E 0 90 48 60
        E 0 90 4a 60
        E 0 90 54 60
        E 0 90 56 60
        E 0 90 60 60
        E 0 90 62 60
        E 11520 80 2b 00
        E 0 80 3d 00 -1
        E 0 80 48 00 -1
        E 0 80 4a 00 -1
        E 0 80 54 00 -1
        E 0 80 56 00 -1
        E 0 80 60 00 -1
        E 0 80 62 00 -1
        <X 240 0
          /wFbaWRsZV9yZWFsdGltZV0=
        >
        E 3600 b0 7b 00
        GUID {AACB7857-1027-4CC4-8855-D80212650B9B}
        IGNTEMPO 0 120.00000000 4 4
        SRCCOLOR 8
        VELLANE 132 71 60
        COLORMAP "C:\Program Files (x86)\REAPER\Data\color_maps\rockband_guitarbass.png"
        CFGEDITVIEW -4032.000000 18.845295 0 14 0 0 0
        CFGEDIT 1 1 0 1 1 0 1 1 1 1 1 0.25000000 -4 0 1025 558 0 2 1 2 0.00000000 0 1 1 0 0.500000 0 0 1.000000 64
        KEYSNAP 0 0 "102034050607" 0 "Major"
        EVTFILTER 0 144 -1 100 112 0 0 1 0 0.06666667 -1.00000000
      >
    >
  >
  <TRACK '{C5C83FD4-D682-4D13-BE5A-6131C6DCF477}'
    NAME "PART REAL_GUITAR"
    PEAKCOL 16576
    BEAT -1
    AUTOMODE 0
    VOLPAN 1.00000000000000 0.00000000000000 -1.00000000000000 -1.00000000000000 1.00000000000000
    MUTESOLO 0 0 0
    IPHASE 0
    ISBUS 0 0
    BUSCOMP 0 0
    SHOWINMIX 1 0.666700 0.500000 1 0.500000 -1 -1 -1
    FREEMODE 0
    SEL 0
    REC 0 0 0 0 0 0 0
    VU 2
    TRACKHEIGHT 0 0
    INQ 0 0 0 0.5000000000 100 0 0 100
    NCHAN 2
    FX 0
    TRACKID {C5C83FD4-D682-4D13-BE5A-6131C6DCF477}
    PERF 0
    MIDIOUT -1
    <MIDINOTENAMES
      0 127 "Trill Marker"
      0 126 "Tremolo Marker"
      0 125 "BRE"
      0 124 "BRE"
      0 123 "BRE"
      0 122 "BRE"
      0 121 "BRE"
      0 120 "BRE (use all 6)"
      0 119 "-----------"
      0 116 "OVERDRIVE"
      0 115 "Solo Marker"
      0 109 "-----------"
      0 108 "Left Hand Position"
      0 107 "Force Chord Numbering"
      0 106 "Loose Strumming"
      0 105 "Strum Direction"
      0 104 "Arpeggio Marker"
      0 103 "Slide Marker"
      0 102 "Force HOPO"
      0 101 "EXPERT e String"
      0 100 "EXPERT B String"
      0 99 "EXPERT G String"
      0 98 "EXPERT D String"
      0 97 "EXPERT A String"
      0 96 "EXPERT E String"
      0 95 "-----------"
      0 82 "Loose Strumming"
      0 81 "Strum Direction"
      0 80 "Arpeggio Marker"
      0 79 "Slide Marker"
      0 78 "Force HOPO"
      0 77 "HARD e String"
      0 76 "HARD B String"
      0 75 "HARD G String"
      0 74 "HARD D String"
      0 73 "HARD A String"
      0 72 "HARD E String"
      0 71 "-----------"
      0 58 "Loose Strumming"
      0 56 "Arpeggio Marker"
      0 55 "Slide Marker"
      0 53 "MEDIUM e String"
      0 52 "MEDIUM B String"
      0 51 "MEDIUM G String"
      0 50 "MEDIUM D String"
      0 49 "MEDIUM A String"
      0 48 "MEDIUM E String"
      0 47 "-----------"
      0 32 "Arpeggio Marker"
      0 31 "Slide Marker"
      0 29 "EASY e String"
      0 28 "EASY B String"
      0 27 "EASY G String"
      0 26 "EASY D String"
      0 25 "EASY A String"
      0 24 "EASY E String"
      0 21 "-----------"
      0 18 "Flat/Sharp Swap"
      0 17 "Hide Chord Names"
      0 16 "Slash Chord"
      0 15 "D#"
      0 14 "D"
      0 13 "C#"
      0 12 "C"
      0 11 "B"
      0 10 "A#"
      0 9 "A"
      0 8 "G#"
      0 7 "G"
      0 6 "F#"
      0 5 "F"
      0 4 "E"
    >
    MAINSEND 1 0
    <FXCHAIN
      WNDRECT 0 38 708 451
      SHOW 0
      LASTSEL 2
      DOCKED 0
      BYPASS 0 0
      <JS "c3/progtr" ""
        0.000000 3.000000 0.000000 0.000000 0.000000 0.000000 0.000000 0.000000 0.000000 1.000000 - - - - - - - - - - - - - - - - - - - - - - - - - - - - - - - - - - - - - - - - - - - - - - - - - - - - - - 
      >
      FLOATPOS 0 0 0 0
      FXID {7CAF71CE-89C5-4207-A317-CCEC42931371}
      WAK 0
      BYPASS 0 0
      <JS "MIDI/midi_transpose" ""
        -1.000000 1.000000 0.000000 127.000000 - - - - - - - - - - - - - - - - - - - - - - - - - - - - - - - - - - - - - - - - - - - - - - - - - - - - - - - - - - - - 
      >
      FLOATPOS 0 0 0 0
      FXID {AB1DAB08-66E0-4BC6-AF62-F95FAE4D7C83}
      WAK 0
      BYPASS 0 0
      <VST "VSTi: ReaSynth (Cockos)" "reasynth.dll" 0 ""
        eXNlcu9e7f4AAAAAAgAAAAEAAAAAAAAAAgAAAAAAAAA4AAAAAAAAAA==
        AAAQAO++rd4N8K3eppvEO6r0nz6HFlk/AAAAAAAAAADMm4A+4jAEPA==
        AAAAAAAAAD+01hM+j8L1PQAAAD8AABAAAAA=
      >
      FLOATPOS 0 0 0 0
      FXID {72DCDA80-4B7B-45F6-BDCF-7D64E835CAF4}
      WAK 0
    >
    <ITEM
      POSITION 0.00000000000000
      SNAPOFFS 0.00000000000000
      LENGTH 85.23950400000001
      LOOP 0
      ALLTAKES 0
      SEL 0
      FADEIN 1 0.000000 0.000000 1 0
      FADEOUT 1 0.000000 0.000000 1 0
      MUTE 0
      IGUID {6FD3E12B-105B-4865-BAD4-C546F71A2853}
      IID 10
      NAME "PART REAL_GUITAR"
      VOLPAN 1.000000 0.000000 1.000000 -1.000000
      SOFFS 0.00000000000000 0.00000000000000
      PLAYRATE 1.00000000000000 1 0.00000000000000 -1
      CHANMODE 0
      GUID {56F0CCB8-3635-413A-8CE4-438DF9045632}
      <SOURCE MIDI
        HASDATA 1 480 QN
        POOLEDEVTS {AC5C7B5E-E241-44DF-AB60-CB089606D728}
        <X 0 0
          /wNQQVJUIFJFQUxfR1VJVEFS
        >
        <X 3840 0
          /wFbYmVnaW5fcGcgc29uZ190cmFpbmVyX3BnXzFd
        >
        E 0 90 04 64
        E 0 90 18 64
        E 0 90 30 64
        E 0 90 31 66
        E 0 90 48 64
        E 0 90 49 66
        E 0 90 4a 66
        E 0 90 60 64
        E 0 90 61 66
        E 0 90 62 66
        E 0 90 6c 66
        E 120 80 04 00
        E 0 80 18 00
        E 0 80 30 00
        E 0 80 31 00
        E 0 80 48 00
        E 0 80 49 00
        E 0 80 4a 00
        E 0 80 6c 00
        E 240 80 60 00
        E 0 80 61 00
        E 0 80 62 00
        E 120 90 18 64
        E 0 90 30 64
        E 0 90 31 66
        E 0 90 48 64
        E 0 90 49 66
        E 0 90 4a 66
        E 0 90 60 64
        E 0 90 61 66
        E 0 90 62 66
        E 120 80 18 00
        E 0 80 30 00
        E 0 80 31 00
        E 0 80 48 00
        E 0 80 49 00
        E 0 80 4a 00
        E 240 80 60 00
        E 0 80 61 00
        E 0 80 62 00
        E 120 90 18 64
        E 0 90 30 64
        E 0 90 31 66
        E 0 90 48 64
        E 0 90 49 66
        E 0 90 4a 66
        E 0 90 60 64
        E 0 90 61 66
        E 0 90 62 66
        E 120 80 18 00
        E 0 80 30 00
        E 0 80 31 00
        E 0 80 48 00
        E 0 80 49 00
        E 0 80 4a 00
        E 240 80 60 00
        E 0 80 61 00
        E 0 80 62 00
        E 120 90 30 64
        E 0 90 31 66
        E 0 90 48 64
        E 0 90 49 66
        E 0 90 4a 66
        E 0 90 60 64
        E 0 90 61 66
        E 0 90 62 66
        E 120 80 30 00
        E 0 80 31 00
        E 0 80 48 00
        E 0 80 49 00
        E 0 80 4a 00
        E 240 80 60 00
        E 0 80 61 00
        E 0 80 62 00
        E 120 90 08 64
        E 0 90 18 68
        E 0 90 30 68
        E 0 90 31 6a
        E 0 90 48 68
        E 0 90 49 6a
        E 0 90 4a 6a
        E 0 90 60 68
        E 0 90 61 6a
        E 0 90 62 6a
        E 0 90 6c 68
        E 120 80 08 00
        E 0 80 18 00
        E 0 80 30 00
        E 0 80 31 00
        E 0 80 48 00
        E 0 80 49 00
        E 0 80 4a 00
        E 0 80 6c 00
        E 240 80 60 00
        E 0 80 61 00
        E 0 80 62 00
        E 120 90 18 68
        E 0 90 30 68
        E 0 90 31 6a
        E 0 90 48 68
        E 0 90 49 6a
        E 0 90 4a 6a
        E 0 90 60 68
        E 0 90 61 6a
        E 0 90 62 6a
        E 120 80 18 00
        E 0 80 30 00
        E 0 80 31 00
        E 0 80 48 00
        E 0 80 49 00
        E 0 80 4a 00
        E 240 80 60 00
        E 0 80 61 00
        E 0 80 62 00
        E 120 90 18 68
        E 0 90 30 68
        E 0 90 31 6a
        E 0 90 48 68
        E 0 90 49 6a
        E 0 90 4a 6a
        E 0 90 60 68
        E 0 90 61 6a
        E 0 90 62 6a
        E 120 80 18 00
        E 0 80 30 00
        E 0 80 31 00
        E 0 80 48 00
        E 0 80 49 00
        E 0 80 4a 00
        E 240 80 60 00
        E 0 80 61 00
        E 0 80 62 00
        E 120 90 30 68
        E 0 90 31 6a
        E 0 90 48 68
        E 0 90 49 6a
        E 0 90 4a 6a
        E 0 90 60 68
        E 0 90 61 6a
        E 0 90 62 6a
        E 120 80 30 00
        E 0 80 31 00
        E 0 80 48 00
        E 0 80 49 00
        E 0 80 4a 00
        E 240 80 60 00
        E 0 80 61 00
        E 0 80 62 00
        <X 120 0
          /wFbcGdfbm9ybSBzb25nX3RyYWluZXJfcGdfMV0=
        >
        E 0 90 04 64
        E 0 90 18 64
        E 0 90 30 64
        E 0 90 31 66
        E 0 90 48 64
        E 0 90 49 66
        E 0 90 4a 66
        E 0 90 60 64
        E 0 90 61 66
        E 0 90 62 66
        E 0 90 6c 66
        E 120 80 04 00
        E 0 80 18 00
        E 0 80 30 00
        E 0 80 31 00
        E 0 80 48 00
        E 0 80 49 00
        E 0 80 4a 00
        E 0 80 6c 00
        E 240 80 60 00
        E 0 80 61 00
        E 0 80 62 00
        E 120 90 18 64
        E 0 90 30 64
        E 0 90 31 66
        E 0 90 48 64
        E 0 90 49 66
        E 0 90 4a 66
        E 0 90 60 64
        E 0 90 61 66
        E 0 90 62 66
        E 120 80 18 00
        E 0 80 30 00
        E 0 80 31 00
        E 0 80 48 00
        E 0 80 49 00
        E 0 80 4a 00
        E 240 80 60 00
        E 0 80 61 00
        E 0 80 62 00
        E 120 90 18 64
        E 0 90 30 64
        E 0 90 31 66
        E 0 90 48 64
        E 0 90 49 66
        E 0 90 4a 66
        E 0 90 60 64
        E 0 90 61 66
        E 0 90 62 66
        E 120 80 18 00
        E 0 80 30 00
        E 0 80 31 00
        E 0 80 48 00
        E 0 80 49 00
        E 0 80 4a 00
        E 240 80 60 00
        E 0 80 61 00
        E 0 80 62 00
        E 120 90 30 64
        E 0 90 31 66
        E 0 90 48 64
        E 0 90 49 66
        E 0 90 4a 66
        E 0 90 60 64
        E 0 90 61 66
        E 0 90 62 66
        E 120 80 30 00
        E 0 80 31 00
        E 0 80 48 00
        E 0 80 49 00
        E 0 80 4a 00
        E 240 80 60 00
        E 0 80 61 00
        E 0 80 62 00
        E 120 90 0b 64
        E 0 90 19 66
        E 0 90 31 66
        E 0 90 32 68
        E 0 90 49 66
        E 0 90 4a 68
        E 0 90 4b 68
        E 0 90 61 66
        E 0 90 62 68
        E 0 90 63 68
        E 120 80 0b 00
        E 0 80 19 00
        E 0 80 31 00
        E 0 80 32 00
        E 0 80 49 00
        E 0 80 4a 00
        E 0 80 4b 00
        E 240 80 61 00
        E 0 80 62 00
        E 0 80 63 00
        E 120 90 31 66
        E 0 90 32 68
        E 0 90 49 66
        E 0 90 4a 68
        E 0 90 4b 68
        E 0 90 61 66
        E 0 90 62 68
        E 0 90 63 68
        E 120 80 31 00
        E 0 80 32 00
        E 0 80 49 00
        E 0 80 4a 00
        E 0 80 4b 00
        E 240 80 61 00
        E 0 80 62 00
        E 0 80 63 00
        E 120 90 08 64
        E 0 90 18 68
        E 0 90 30 68
        E 0 90 31 6a
        E 0 90 48 68
        E 0 90 49 6a
        E 0 90 4a 6a
        E 0 90 60 68
        E 0 90 61 6a
        E 0 90 62 6a
        E 0 90 6c 68
        E 120 80 08 00
        E 0 80 18 00
        E 0 80 30 00
        E 0 80 31 00
        E 0 80 48 00
        E 0 80 49 00
        E 0 80 4a 00
        E 0 80 6c 00
        E 240 80 60 00
        E 0 80 61 00
        E 0 80 62 00
        E 120 90 30 68
        E 0 90 31 6a
        E 0 90 48 68
        E 0 90 49 6a
        E 0 90 4a 6a
        E 0 90 60 68
        E 0 90 61 6a
        E 0 90 62 6a
        E 120 80 30 00
        E 0 80 31 00
        E 0 80 48 00
        E 0 80 49 00
        E 0 80 4a 00
        E 240 80 60 00
        E 0 80 61 00
        E 0 80 62 00
        E 120 90 09 64
        E 0 90 19 64
        E 0 90 31 64
        E 0 90 32 66
        E 0 90 49 64
        E 0 90 4a 66
        E 0 90 4b 66
        E 0 90 61 64
        E 0 90 62 66
        E 0 90 63 66
        E 0 90 6c 66
        E 0 90 74 64
        E 120 80 09 00
        E 0 80 19 00
        E 0 80 31 00
        E 0 80 32 00
        E 0 80 49 00
        E 0 80 4a 00
        E 0 80 4b 00
        E 0 80 6c 00
        E 240 80 61 00
        E 0 80 62 00
        E 0 80 63 00
        E 120 90 19 64
        E 0 90 31 64
        E 0 90 32 66
        E 0 90 49 64
        E 0 90 4a 66
        E 0 90 4b 66
        E 0 90 61 64
        E 0 90 62 66
        E 0 90 63 66
        E 120 80 19 00
        E 0 80 31 00
        E 0 80 32 00
        E 0 80 49 00
        E 0 80 4a 00
        E 0 80 4b 00
        E 240 80 61 00
        E 0 80 62 00
        E 0 80 63 00
        E 120 90 19 64
        E 0 90 31 64
        E 0 90 32 66
        E 0 90 49 64
        E 0 90 4a 66
        E 0 90 4b 66
        E 0 90 61 64
        E 0 90 62 66
        E 0 90 63 66
        E 120 80 19 00
        E 0 80 31 00
        E 0 80 32 00
        E 0 80 49 00
        E 0 80 4a 00
        E 0 80 4b 00
        E 240 80 61 00
        E 0 80 62 00
        E 0 80 63 00
        E 120 90 31 64
        E 0 90 32 66
        E 0 90 49 64
        E 0 90 4a 66
        E 0 90 4b 66
        E 0 90 61 64
        E 0 90 62 66
        E 0 90 63 66
        E 120 80 31 00
        E 0 80 32 00
        E 0 80 49 00
        E 0 80 4a 00
        E 0 80 4b 00
        E 240 80 61 00
        E 0 80 62 00
        E 0 80 63 00
        E 120 90 0b 64
        E 0 90 19 66
        E 0 90 31 66
        E 0 90 32 68
        E 0 90 49 66
        E 0 90 4a 68
        E 0 90 4b 68
        E 0 90 61 66
        E 0 90 62 68
        E 0 90 63 68
        E 120 80 0b 00
        E 0 80 19 00
        E 0 80 31 00
        E 0 80 32 00
        E 0 80 49 00
        E 0 80 4a 00
        E 0 80 4b 00
        E 240 80 61 00
        E 0 80 62 00
        E 0 80 63 00
        E 120 90 19 66
        E 0 90 31 66
        E 0 90 32 68
        E 0 90 49 66
        E 0 90 4a 68
        E 0 90 4b 68
        E 0 90 61 66
        E 0 90 62 68
        E 0 90 63 68
        E 120 80 19 00
        E 0 80 31 00
        E 0 80 32 00
        E 0 80 49 00
        E 0 80 4a 00
        E 0 80 4b 00
        E 240 80 61 00
        E 0 80 62 00
        E 0 80 63 00
        E 120 90 19 66
        E 0 90 31 66
        E 0 90 32 68
        E 0 90 49 66
        E 0 90 4a 68
        E 0 90 4b 68
        E 0 90 61 66
        E 0 90 62 68
        E 0 90 63 68
        E 120 80 19 00
        E 0 80 31 00
        E 0 80 32 00
        E 0 80 49 00
        E 0 80 4a 00
        E 0 80 4b 00
        E 240 80 61 00
        E 0 80 62 00
        E 0 80 63 00
        E 120 90 31 66
        E 0 90 32 68
        E 0 90 49 66
        E 0 90 4a 68
        E 0 90 4b 68
        E 0 90 61 66
        E 0 90 62 68
        E 0 90 63 68
        E 120 80 31 00
        E 0 80 32 00
        E 0 80 49 00
        E 0 80 4a 00
        E 0 80 4b 00
        E 240 80 61 00
        E 0 80 62 00
        E 0 80 63 00
        E 120 80 74 00
        E 0 90 04 64
        E 0 90 18 64
        E 0 90 30 64
        E 0 90 31 66
        E 0 90 48 64
        E 0 90 49 66
        E 0 90 4a 66
        E 0 90 60 64
        E 0 90 61 66
        E 0 90 62 66
        E 120 80 04 00
        E 0 80 18 00
        E 0 80 30 00
        E 0 80 31 00
        E 0 80 48 00
        E 0 80 49 00
        E 0 80 4a 00
        E 240 80 60 00
        E 0 80 61 00
        E 0 80 62 00
        E 120 90 18 64
        E 0 90 30 64
        E 0 90 31 66
        E 0 90 48 64
        E 0 90 49 66
        E 0 90 4a 66
        E 0 90 60 64
        E 0 90 61 66
        E 0 90 62 66
        E 120 80 18 00
        E 0 80 30 00
        E 0 80 31 00
        E 0 80 48 00
        E 0 80 49 00
        E 0 80 4a 00
        E 240 80 60 00
        E 0 80 61 00
        E 0 80 62 00
        E 120 90 18 64
        E 0 90 30 64
        E 0 90 31 66
        E 0 90 48 64
        E 0 90 49 66
        E 0 90 4a 66
        E 0 90 60 64
        E 0 90 61 66
        E 0 90 62 66
        E 120 80 18 00
        E 0 80 30 00
        E 0 80 31 00
        E 0 80 48 00
        E 0 80 49 00
        E 0 80 4a 00
        E 240 80 60 00
        E 0 80 61 00
        E 0 80 62 00
        E 120 90 30 64
        E 0 90 31 66
        E 0 90 48 64
        E 0 90 49 66
        E 0 90 4a 66
        E 0 90 60 64
        E 0 90 61 66
        E 0 90 62 66
        E 120 80 30 00
        E 0 80 31 00
        E 0 80 48 00
        E 0 80 49 00
        E 0 80 4a 00
        E 240 80 60 00
        E 0 80 61 00
        E 0 80 62 00
        E 120 90 0f 64
        E 0 90 19 6a
        E 0 90 31 6a
        E 0 90 32 6c
        E 0 90 49 6a
        E 0 90 4a 6c
        E 0 90 4b 6c
        E 0 90 61 6a
        E 0 90 62 6c
        E 0 90 63 6c
        E 0 90 6c 6a
        E 120 80 0f 00
        E 0 80 19 00
        E 0 80 31 00
        E 0 80 32 00
        E 0 80 49 00
        E 0 80 4a 00
        E 0 80 4b 00
        E 0 80 6c 00
        E 240 80 61 00
        E 0 80 62 00
        E 0 80 63 00
        E 120 90 19 6a
        E 0 90 31 6a
        E 0 90 32 6c
        E 0 90 49 6a
        E 0 90 4a 6c
        E 0 90 4b 6c
        E 0 90 61 6a
        E 0 90 62 6c
        E 0 90 63 6c
        E 120 80 19 00
        E 0 80 31 00
        E 0 80 32 00
        E 0 80 49 00
        E 0 80 4a 00
        E 0 80 4b 00
        E 240 80 61 00
        E 0 80 62 00
        E 0 80 63 00
        E 120 90 19 6a
        E 0 90 31 6a
        E 0 90 32 6c
        E 0 90 49 6a
        E 0 90 4a 6c
        E 0 90 4b 6c
        E 0 90 61 6a
        E 0 90 62 6c
        E 0 90 63 6c
        E 120 80 19 00
        E 0 80 31 00
        E 0 80 32 00
        E 0 80 49 00
        E 0 80 4a 00
        E 0 80 4b 00
        E 240 80 61 00
        E 0 80 62 00
        E 0 80 63 00
        E 120 90 31 6a
        E 0 90 32 6c
        E 0 90 49 6a
        E 0 90 4a 6c
        E 0 90 4b 6c
        E 0 90 61 6a
        E 0 90 62 6c
        E 0 90 63 6c
        E 120 80 31 00
        E 0 80 32 00
        E 0 80 49 00
        E 0 80 4a 00
        E 0 80 4b 00
        E 240 80 61 00
        E 0 80 62 00
        E 0 80 63 00
        <X 120 0
          /wFbZW5kX3BnIHNvbmdfdHJhaW5lcl9wZ18xXQ==
        >
        E 0 90 04 64
        E 0 90 18 64
        E 0 90 30 64
        E 0 90 31 66
        E 0 90 48 64
        E 0 90 49 66
        E 0 90 4a 66
        E 0 90 60 64
        E 0 90 61 66
        E 0 90 62 66
        E 0 90 6c 66
        E 120 80 04 00
        E 0 80 18 00
        E 0 80 30 00
        E 0 80 31 00
        E 0 80 48 00
        E 0 80 49 00
        E 0 80 4a 00
        E 0 80 6c 00
        E 240 80 60 00
        E 0 80 61 00
        E 0 80 62 00
        E 120 90 18 64
        E 0 90 30 64
        E 0 90 31 66
        E 0 90 48 64
        E 0 90 49 66
        E 0 90 4a 66
        E 0 90 60 64
        E 0 90 61 66
        E 0 90 62 66
        E 120 80 18 00
        E 0 80 30 00
        E 0 80 31 00
        E 0 80 48 00
        E 0 80 49 00
        E 0 80 4a 00
        E 240 80 60 00
        E 0 80 61 00
        E 0 80 62 00
        E 120 90 18 64
        E 0 90 30 64
        E 0 90 31 66
        E 0 90 48 64
        E 0 90 49 66
        E 0 90 4a 66
        E 0 90 60 64
        E 0 90 61 66
        E 0 90 62 66
        E 120 80 18 00
        E 0 80 30 00
        E 0 80 31 00
        E 0 80 48 00
        E 0 80 49 00
        E 0 80 4a 00
        E 240 80 60 00
        E 0 80 61 00
        E 0 80 62 00
        E 120 90 30 64
        E 0 90 31 66
        E 0 90 48 64
        E 0 90 49 66
        E 0 90 4a 66
        E 0 90 60 64
        E 0 90 61 66
        E 0 90 62 66
        E 120 80 30 00
        E 0 80 31 00
        E 0 80 48 00
        E 0 80 49 00
        E 0 80 4a 00
        E 240 80 60 00
        E 0 80 61 00
        E 0 80 62 00
        E 120 90 08 64
        E 0 90 18 68
        E 0 90 30 68
        E 0 90 31 6a
        E 0 90 48 68
        E 0 90 49 6a
        E 0 90 4a 6a
        E 0 90 60 68
        E 0 90 61 6a
        E 0 90 62 6a
        E 0 90 6c 68
        E 120 80 08 00
        E 0 80 18 00
        E 0 80 30 00
        E 0 80 31 00
        E 0 80 48 00
        E 0 80 49 00
        E 0 80 4a 00
        E 0 80 6c 00
        E 240 80 60 00
        E 0 80 61 00
        E 0 80 62 00
        E 120 90 18 68
        E 0 90 30 68
        E 0 90 31 6a
        E 0 90 48 68
        E 0 90 49 6a
        E 0 90 4a 6a
        E 0 90 60 68
        E 0 90 61 6a
        E 0 90 62 6a
        E 120 80 18 00
        E 0 80 30 00
        E 0 80 31 00
        E 0 80 48 00
        E 0 80 49 00
        E 0 80 4a 00
        E 240 80 60 00
        E 0 80 61 00
        E 0 80 62 00
        E 120 90 18 68
        E 0 90 30 68
        E 0 90 31 6a
        E 0 90 48 68
        E 0 90 49 6a
        E 0 90 4a 6a
        E 0 90 60 68
        E 0 90 61 6a
        E 0 90 62 6a
        E 120 80 18 00
        E 0 80 30 00
        E 0 80 31 00
        E 0 80 48 00
        E 0 80 49 00
        E 0 80 4a 00
        E 240 80 60 00
        E 0 80 61 00
        E 0 80 62 00
        E 120 90 30 68
        E 0 90 31 6a
        E 0 90 48 68
        E 0 90 49 6a
        E 0 90 4a 6a
        E 0 90 60 68
        E 0 90 61 6a
        E 0 90 62 6a
        E 120 80 30 00
        E 0 80 31 00
        E 0 80 48 00
        E 0 80 49 00
        E 0 80 4a 00
        E 240 80 60 00
        E 0 80 61 00
        E 0 80 62 00
        E 120 90 04 64
        E 0 90 18 64
        E 0 90 30 64
        E 0 90 31 66
        E 0 90 48 64
        E 0 90 49 66
        E 0 90 4a 66
        E 0 90 60 64
        E 0 90 61 66
        E 0 90 62 66
        E 0 90 6c 66
        E 120 80 04 00
        E 0 80 18 00
        E 0 80 30 00
        E 0 80 31 00
        E 0 80 48 00
        E 0 80 49 00
        E 0 80 4a 00
        E 0 80 6c 00 -1
        E 240 80 60 00
        E 0 80 61 00
        E 0 80 62 00
        E 120 90 18 64
        E 0 90 30 64
        E 0 90 31 66
        E 0 90 48 64
        E 0 90 49 66
        E 0 90 4a 66
        E 0 90 60 64 -1
        E 0 90 61 66 -1
        E 0 90 62 66 -1
        E 120 80 18 00
        E 0 80 30 00
        E 0 80 31 00
        E 0 80 48 00
        E 0 80 49 00
        E 0 80 4a 00
        E 240 80 60 00
        E 0 80 61 00
        E 0 80 62 00
        E 120 90 18 64
        E 0 90 30 64
        E 0 90 31 66
        E 0 90 48 64
        E 0 90 49 66
        E 0 90 4a 66
        E 0 90 60 64
        E 0 90 61 66
        E 0 90 62 66
        E 120 80 18 00
        E 0 80 30 00
        E 0 80 31 00
        E 0 80 48 00
        E 0 80 49 00
        E 0 80 4a 00
        E 240 80 60 00
        E 0 80 61 00
        E 0 80 62 00
        E 120 90 30 64
        E 0 90 31 66
        E 0 90 48 64
        E 0 90 49 66
        E 0 90 4a 66
        E 0 90 60 64
        E 0 90 61 66
        E 0 90 62 66
        E 120 80 30 00
        E 0 80 31 00
        E 0 80 48 00
        E 0 80 49 00
        E 0 80 4a 00
        E 240 80 60 00
        E 0 80 61 00
        E 0 80 62 00
        E 120 90 0b 64
        E 0 90 19 66
        E 0 90 31 66
        E 0 90 32 68
        E 0 90 49 66
        E 0 90 4a 68
        E 0 90 4b 68
        E 0 90 61 66
        E 0 90 62 68
        E 0 90 63 68
        E 120 80 0b 00
        E 0 80 19 00
        E 0 80 31 00
        E 0 80 32 00
        E 0 80 49 00
        E 0 80 4a 00
        E 0 80 4b 00
        E 240 80 61 00
        E 0 80 62 00
        E 0 80 63 00
        E 120 90 31 66
        E 0 90 32 68
        E 0 90 49 66
        E 0 90 4a 68
        E 0 90 4b 68
        E 0 90 61 66
        E 0 90 62 68
        E 0 90 63 68
        E 120 80 31 00
        E 0 80 32 00
        E 0 80 49 00
        E 0 80 4a 00
        E 0 80 4b 00
        E 240 80 61 00
        E 0 80 62 00
        E 0 80 63 00
        E 120 90 08 64
        E 0 90 18 68
        E 0 90 30 68
        E 0 90 31 6a
        E 0 90 48 68
        E 0 90 49 6a
        E 0 90 4a 6a
        E 0 90 60 68
        E 0 90 61 6a
        E 0 90 62 6a
        E 0 90 6c 68
        E 120 80 08 00
        E 0 80 18 00
        E 0 80 30 00
        E 0 80 31 00
        E 0 80 48 00
        E 0 80 49 00
        E 0 80 4a 00
        E 0 80 6c 00
        E 240 80 60 00
        E 0 80 61 00
        E 0 80 62 00
        E 120 90 30 68
        E 0 90 31 6a
        E 0 90 48 68
        E 0 90 49 6a
        E 0 90 4a 6a
        E 0 90 60 68
        E 0 90 61 6a
        E 0 90 62 6a
        E 120 80 30 00
        E 0 80 31 00
        E 0 80 48 00
        E 0 80 49 00
        E 0 80 4a 00
        E 240 80 60 00
        E 0 80 61 00
        E 0 80 62 00
        E 120 90 09 64
        E 0 90 19 64
        E 0 90 31 64
        E 0 90 32 66
        E 0 90 49 64
        E 0 90 4a 66
        E 0 90 4b 66
        E 0 90 61 64
        E 0 90 62 66
        E 0 90 63 66
        E 0 90 6c 66
        E 0 90 74 64
        E 120 80 09 00
        E 0 80 19 00
        E 0 80 31 00
        E 0 80 32 00
        E 0 80 49 00
        E 0 80 4a 00
        E 0 80 4b 00
        E 0 80 6c 00
        E 240 80 61 00
        E 0 80 62 00
        E 0 80 63 00
        E 120 90 19 64
        E 0 90 31 64
        E 0 90 32 66
        E 0 90 49 64
        E 0 90 4a 66
        E 0 90 4b 66
        E 0 90 61 64
        E 0 90 62 66
        E 0 90 63 66
        E 120 80 19 00
        E 0 80 31 00
        E 0 80 32 00
        E 0 80 49 00
        E 0 80 4a 00
        E 0 80 4b 00
        E 240 80 61 00
        E 0 80 62 00
        E 0 80 63 00
        E 120 90 19 64
        E 0 90 31 64
        E 0 90 32 66
        E 0 90 49 64
        E 0 90 4a 66
        E 0 90 4b 66
        E 0 90 61 64
        E 0 90 62 66
        E 0 90 63 66
        E 120 80 19 00
        E 0 80 31 00
        E 0 80 32 00
        E 0 80 49 00
        E 0 80 4a 00
        E 0 80 4b 00
        E 240 80 61 00
        E 0 80 62 00
        E 0 80 63 00
        E 120 90 31 64
        E 0 90 32 66
        E 0 90 49 64
        E 0 90 4a 66
        E 0 90 4b 66
        E 0 90 61 64
        E 0 90 62 66
        E 0 90 63 66
        E 120 80 31 00
        E 0 80 32 00
        E 0 80 49 00
        E 0 80 4a 00
        E 0 80 4b 00
        E 240 80 61 00
        E 0 80 62 00
        E 0 80 63 00
        E 120 80 74 00
        E 0 90 0b 64
        E 0 90 19 66
        E 0 90 31 66
        E 0 90 32 68
        E 0 90 49 66
        E 0 90 4a 68
        E 0 90 4b 68
        E 0 90 61 66
        E 0 90 62 68
        E 0 90 63 68
        E 120 80 0b 00
        E 0 80 19 00
        E 0 80 31 00
        E 0 80 32 00
        E 0 80 49 00
        E 0 80 4a 00
        E 0 80 4b 00
        E 240 80 61 00
        E 0 80 62 00
        E 0 80 63 00
        E 120 90 19 66
        E 0 90 31 66
        E 0 90 32 68
        E 0 90 49 66
        E 0 90 4a 68
        E 0 90 4b 68
        E 0 90 61 66
        E 0 90 62 68
        E 0 90 63 68
        E 120 80 19 00
        E 0 80 31 00
        E 0 80 32 00
        E 0 80 49 00
        E 0 80 4a 00
        E 0 80 4b 00
        E 240 80 61 00
        E 0 80 62 00
        E 0 80 63 00
        E 120 90 19 66
        E 0 90 31 66
        E 0 90 32 68
        E 0 90 49 66
        E 0 90 4a 68
        E 0 90 4b 68
        E 0 90 61 66
        E 0 90 62 68
        E 0 90 63 68
        E 120 80 19 00
        E 0 80 31 00
        E 0 80 32 00
        E 0 80 49 00
        E 0 80 4a 00
        E 0 80 4b 00
        E 240 80 61 00
        E 0 80 62 00
        E 0 80 63 00
        E 120 90 31 66
        E 0 90 32 68
        E 0 90 49 66
        E 0 90 4a 68
        E 0 90 4b 68
        E 0 90 61 66
        E 0 90 62 68
        E 0 90 63 68
        E 120 80 31 00
        E 0 80 32 00
        E 0 80 49 00
        E 0 80 4a 00
        E 0 80 4b 00
        E 240 80 61 00 -1
        E 0 80 62 00 -1
        E 0 80 63 00 -1
        E 120 90 04 64
        E 0 90 18 64
        E 0 90 30 64
        E 0 90 31 66
        E 0 90 48 64
        E 0 90 49 66
        E 0 90 4a 66
        E 0 90 60 64
        E 0 90 61 66
        E 0 90 62 66
        E 120 80 04 00
        E 0 80 18 00
        E 0 80 30 00
        E 0 80 31 00
        E 0 80 48 00
        E 0 80 49 00
        E 0 80 4a 00
        E 240 80 60 00
        E 0 80 61 00
        E 0 80 62 00
        E 120 90 18 64
        E 0 90 30 64
        E 0 90 31 66
        E 0 90 48 64
        E 0 90 49 66
        E 0 90 4a 66
        E 0 90 60 64
        E 0 90 61 66
        E 0 90 62 66
        E 120 80 18 00
        E 0 80 30 00
        E 0 80 31 00
        E 0 80 48 00
        E 0 80 49 00
        E 0 80 4a 00
        E 240 80 60 00
        E 0 80 61 00
        E 0 80 62 00
        E 120 90 18 64
        E 0 90 30 64
        E 0 90 31 66
        E 0 90 48 64
        E 0 90 49 66
        E 0 90 4a 66
        E 0 90 60 64 -1
        E 0 90 61 66 -1
        E 0 90 62 66 -1
        E 120 80 18 00
        E 0 80 30 00
        E 0 80 31 00
        E 0 80 48 00
        E 0 80 49 00
        E 0 80 4a 00
        E 240 80 60 00
        E 0 80 61 00
        E 0 80 62 00
        E 120 90 30 64
        E 0 90 31 66
        E 0 90 48 64
        E 0 90 49 66
        E 0 90 4a 66
        E 0 90 60 64
        E 0 90 61 66
        E 0 90 62 66
        E 120 80 30 00
        E 0 80 31 00
        E 0 80 48 00
        E 0 80 49 00
        E 0 80 4a 00
        E 240 80 60 00
        E 0 80 61 00
        E 0 80 62 00
        E 120 90 0f 64
        E 0 90 19 6a
        E 0 90 31 6a
        E 0 90 32 6c
        E 0 90 49 6a
        E 0 90 4a 6c
        E 0 90 4b 6c
        E 0 90 61 6a
        E 0 90 62 6c
        E 0 90 63 6c
        E 0 90 6c 6a
        E 120 80 0f 00
        E 0 80 19 00
        E 0 80 31 00
        E 0 80 32 00
        E 0 80 49 00
        E 0 80 4a 00
        E 0 80 4b 00
        E 0 80 6c 00
        E 240 80 61 00
        E 0 80 62 00
        E 0 80 63 00
        E 120 90 19 6a
        E 0 90 31 6a
        E 0 90 32 6c
        E 0 90 49 6a
        E 0 90 4a 6c
        E 0 90 4b 6c
        E 0 90 61 6a
        E 0 90 62 6c
        E 0 90 63 6c
        E 120 80 19 00
        E 0 80 31 00
        E 0 80 32 00
        E 0 80 49 00
        E 0 80 4a 00
        E 0 80 4b 00
        E 240 80 61 00
        E 0 80 62 00
        E 0 80 63 00
        E 120 90 19 6a
        E 0 90 31 6a
        E 0 90 32 6c
        E 0 90 49 6a
        E 0 90 4a 6c
        E 0 90 4b 6c
        E 0 90 61 6a
        E 0 90 62 6c
        E 0 90 63 6c
        E 120 80 19 00
        E 0 80 31 00
        E 0 80 32 00
        E 0 80 49 00
        E 0 80 4a 00
        E 0 80 4b 00
        E 240 80 61 00
        E 0 80 62 00
        E 0 80 63 00
        E 120 90 31 6a
        E 0 90 32 6c
        E 0 90 49 6a
        E 0 90 4a 6c
        E 0 90 4b 6c
        E 0 90 61 6a
        E 0 90 62 6c
        E 0 90 63 6c
        E 120 80 31 00
        E 0 80 32 00
        E 0 80 49 00
        E 0 80 4a 00
        E 0 80 4b 00
        E 240 80 61 00
        E 0 80 62 00
        E 0 80 63 00
        <X 120 0
          /wFbYmVnaW5fcGcgc29uZ190cmFpbmVyX3BnXzJd
        >
        E 0 90 0d 64
        E 0 90 19 68
        E 0 90 31 68
        E 0 90 32 6a
        E 0 90 49 68
        E 0 90 4a 6a
        E 0 90 4b 6a
        E 0 90 61 68
        E 0 90 62 6a
        E 0 90 63 6a
        E 0 90 6c 68
        E 120 80 0d 00
        E 0 80 19 00
        E 0 80 31 00
        E 0 80 32 00
        E 0 80 49 00
        E 0 80 4a 00
        E 0 80 4b 00
        E 0 80 6c 00
        E 240 80 61 00
        E 0 80 62 00
        E 0 80 63 00
        E 120 90 19 68
        E 0 90 31 68
        E 0 90 32 6a
        E 0 90 49 68
        E 0 90 4a 6a
        E 0 90 4b 6a
        E 0 90 61 68
        E 0 90 62 6a
        E 0 90 63 6a
        E 120 80 19 00
        E 0 80 31 00
        E 0 80 32 00
        E 0 80 49 00
        E 0 80 4a 00
        E 0 80 4b 00
        E 240 80 61 00
        E 0 80 62 00
        E 0 80 63 00
        E 120 90 19 68
        E 0 90 31 68
        E 0 90 32 6a
        E 0 90 49 68
        E 0 90 4a 6a
        E 0 90 4b 6a
        E 0 90 61 68
        E 0 90 62 6a
        E 0 90 63 6a
        E 120 80 19 00
        E 0 80 31 00
        E 0 80 32 00
        E 0 80 49 00
        E 0 80 4a 00
        E 0 80 4b 00
        E 240 80 61 00
        E 0 80 62 00
        E 0 80 63 00
        E 120 90 31 68
        E 0 90 32 6a
        E 0 90 49 68
        E 0 90 4a 6a
        E 0 90 4b 6a
        E 0 90 61 68
        E 0 90 62 6a
        E 0 90 63 6a
        E 120 80 31 00
        E 0 80 32 00
        E 0 80 49 00
        E 0 80 4a 00
        E 0 80 4b 00
        E 240 80 61 00
        E 0 80 62 00
        E 0 80 63 00
        E 120 90 19 68
        E 0 90 31 68
        E 0 90 32 6a
        E 0 90 49 68
        E 0 90 4a 6a
        E 0 90 4b 6a
        E 0 90 61 68
        E 0 90 62 6a
        E 0 90 63 6a
        E 120 80 19 00
        E 0 80 31 00
        E 0 80 32 00
        E 0 80 49 00
        E 0 80 4a 00
        E 0 80 4b 00
        E 240 80 61 00
        E 0 80 62 00
        E 0 80 63 00
        E 120 90 31 68
        E 0 90 32 6a
        E 0 90 49 68
        E 0 90 4a 6a
        E 0 90 4b 6a
        E 0 90 61 68
        E 0 90 62 6a
        E 0 90 63 6a
        E 120 80 31 00
        E 0 80 32 00
        E 0 80 49 00
        E 0 80 4a 00
        E 0 80 4b 00
        E 240 80 61 00
        E 0 80 62 00
        E 0 80 63 00
        E 120 90 0b 64
        E 0 90 19 66
        E 0 90 31 66
        E 0 90 32 68
        E 0 90 49 66
        E 0 90 4a 68
        E 0 90 4b 68
        E 0 90 61 66
        E 0 90 62 68
        E 0 90 63 68
        E 0 90 6c 66
        E 120 80 0b 00
        E 0 80 19 00
        E 0 80 31 00
        E 0 80 32 00
        E 0 80 49 00
        E 0 80 4a 00
        E 0 80 4b 00
        E 0 80 6c 00
        E 240 80 61 00
        E 0 80 62 00
        E 0 80 63 00
        E 120 90 31 66
        E 0 90 32 68
        E 0 90 49 66
        E 0 90 4a 68
        E 0 90 4b 68
        E 0 90 61 66
        E 0 90 62 68
        E 0 90 63 68
        E 120 80 31 00
        E 0 80 32 00
        E 0 80 49 00
        E 0 80 4a 00
        E 0 80 4b 00
        E 240 80 61 00
        E 0 80 62 00
        E 0 80 63 00
        <X 120 0
          /wFbcGdfbm9ybSBzb25nX3RyYWluZXJfcGdfMl0=
        >
        E 0 90 08 64
        E 0 90 18 68
        E 0 90 30 68
        E 0 90 31 6a
        E 0 90 48 68
        E 0 90 49 6a
        E 0 90 4a 6a
        E 0 90 60 68
        E 0 90 61 6a
        E 0 90 62 6a
        E 0 90 6c 68
        E 120 80 08 00
        E 0 80 18 00
        E 0 80 30 00
        E 0 80 31 00
        E 0 80 48 00
        E 0 80 49 00
        E 0 80 4a 00
        E 0 80 6c 00
        E 240 80 60 00
        E 0 80 61 00
        E 0 80 62 00
        E 120 90 18 68
        E 0 90 30 68
        E 0 90 31 6a
        E 0 90 48 68
        E 0 90 49 6a
        E 0 90 4a 6a
        E 0 90 60 68
        E 0 90 61 6a
        E 0 90 62 6a
        E 120 80 18 00
        E 0 80 30 00
        E 0 80 31 00
        E 0 80 48 00
        E 0 80 49 00
        E 0 80 4a 00
        E 240 80 60 00
        E 0 80 61 00
        E 0 80 62 00
        E 120 90 18 68
        E 0 90 30 68
        E 0 90 31 6a
        E 0 90 48 68
        E 0 90 49 6a
        E 0 90 4a 6a
        E 0 90 60 68
        E 0 90 61 6a
        E 0 90 62 6a
        E 120 80 18 00
        E 0 80 30 00
        E 0 80 31 00
        E 0 80 48 00
        E 0 80 49 00
        E 0 80 4a 00
        E 240 80 60 00
        E 0 80 61 00
        E 0 80 62 00
        E 120 90 30 68
        E 0 90 31 6a
        E 0 90 48 68
        E 0 90 49 6a
        E 0 90 4a 6a
        E 0 90 60 68
        E 0 90 61 6a
        E 0 90 62 6a
        E 120 80 30 00
        E 0 80 31 00
        E 0 80 48 00
        E 0 80 49 00
        E 0 80 4a 00
        E 240 80 60 00
        E 0 80 61 00
        E 0 80 62 00
        E 120 90 06 64
        E 0 90 18 66
        E 0 90 30 66
        E 0 90 31 68
        E 0 90 48 66
        E 0 90 49 68
        E 0 90 4a 68
        E 0 90 60 66
        E 0 90 61 68
        E 0 90 62 68
        E 0 90 6c 66
        E 120 80 06 00
        E 0 80 18 00
        E 0 80 30 00
        E 0 80 31 00
        E 0 80 48 00
        E 0 80 49 00
        E 0 80 4a 00
        E 0 80 6c 00
        E 240 80 60 00
        E 0 80 61 00
        E 0 80 62 00
        E 120 90 30 66
        E 0 90 31 68
        E 0 90 48 66
        E 0 90 49 68
        E 0 90 4a 68
        E 0 90 60 66
        E 0 90 61 68
        E 0 90 62 68
        E 120 80 30 00
        E 0 80 31 00
        E 0 80 48 00
        E 0 80 49 00
        E 0 80 4a 00
        E 240 80 60 00
        E 0 80 61 00
        E 0 80 62 00
        E 120 90 04 64
        E 0 90 18 64
        E 0 90 30 64
        E 0 90 31 66
        E 0 90 48 64
        E 0 90 49 66
        E 0 90 4a 66
        E 0 90 60 64
        E 0 90 61 66
        E 0 90 62 66
        E 120 80 04 00
        E 0 80 18 00
        E 0 80 30 00
        E 0 80 31 00
        E 0 80 48 00
        E 0 80 49 00
        E 0 80 4a 00
        E 240 80 60 00
        E 0 80 61 00
        E 0 80 62 00
        E 120 90 0b 64
        E 0 90 31 66
        E 0 90 32 68
        E 0 90 49 66
        E 0 90 4a 68
        E 0 90 4b 68
        E 0 90 61 66
        E 0 90 62 68
        E 0 90 63 68
        E 120 80 0b 00
        E 0 80 31 00
        E 0 80 32 00
        E 0 80 49 00
        E 0 80 4a 00
        E 0 80 4b 00
        E 240 80 61 00
        E 0 80 62 00
        E 0 80 63 00
        E 120 90 0d 64
        E 0 90 19 68
        E 0 90 31 68
        E 0 90 32 6a
        E 0 90 49 68
        E 0 90 4a 6a
        E 0 90 4b 6a
        E 0 90 61 68
        E 0 90 62 6a
        E 0 90 63 6a
        E 0 90 6c 68
        E 0 90 74 64
        E 120 80 0d 00
        E 0 80 19 00
        E 0 80 31 00
        E 0 80 32 00
        E 0 80 49 00
        E 0 80 4a 00
        E 0 80 4b 00
        E 0 80 6c 00
        E 240 80 61 00
        E 0 80 62 00
        E 0 80 63 00
        E 120 90 19 68
        E 0 90 31 68
        E 0 90 32 6a
        E 0 90 49 68
        E 0 90 4a 6a
        E 0 90 4b 6a
        E 0 90 61 68
        E 0 90 62 6a
        E 0 90 63 6a
        E 120 80 19 00
        E 0 80 31 00
        E 0 80 32 00
        E 0 80 49 00
        E 0 80 4a 00
        E 0 80 4b 00
        E 240 80 61 00
        E 0 80 62 00
        E 0 80 63 00
        E 120 90 19 68
        E 0 90 31 68
        E 0 90 32 6a
        E 0 90 49 68
        E 0 90 4a 6a
        E 0 90 4b 6a
        E 0 90 61 68
        E 0 90 62 6a
        E 0 90 63 6a
        E 120 80 19 00
        E 0 80 31 00
        E 0 80 32 00
        E 0 80 49 00
        E 0 80 4a 00
        E 0 80 4b 00
        E 240 80 61 00
        E 0 80 62 00
        E 0 80 63 00
        E 120 90 19 68
        E 0 90 31 68
        E 0 90 32 6a
        E 0 90 49 68
        E 0 90 4a 6a
        E 0 90 4b 6a
        E 0 90 61 68
        E 0 90 62 6a
        E 0 90 63 6a
        E 120 80 19 00
        E 0 80 31 00
        E 0 80 32 00
        E 0 80 49 00
        E 0 80 4a 00
        E 0 80 4b 00
        E 240 80 61 00
        E 0 80 62 00
        E 0 80 63 00
        E 120 80 74 00
        E 0 90 19 68
        E 0 90 31 68
        E 0 90 32 6a
        E 0 90 49 68
        E 0 90 4a 6a
        E 0 90 4b 6a
        E 0 90 61 68
        E 0 90 62 6a
        E 0 90 63 6a
        E 120 80 19 00
        E 0 80 31 00
        E 0 80 32 00
        E 0 80 49 00
        E 0 80 4a 00
        E 0 80 4b 00
        E 240 80 61 00
        E 0 80 62 00
        E 0 80 63 00
        E 120 90 31 68
        E 0 90 32 6a
        E 0 90 49 68
        E 0 90 4a 6a
        E 0 90 4b 6a
        E 0 90 61 68
        E 0 90 62 6a
        E 0 90 63 6a
        E 120 80 31 00
        E 0 80 32 00
        E 0 80 49 00
        E 0 80 4a 00
        E 0 80 4b 00
        E 240 80 61 00
        E 0 80 62 00
        E 0 80 63 00
        E 120 90 0b 64
        E 0 90 19 66
        E 0 90 31 66
        E 0 90 32 68
        E 0 90 49 66
        E 0 90 4a 68
        E 0 90 4b 68
        E 0 90 61 66
        E 0 90 62 68
        E 0 90 63 68
        E 0 90 6c 66
        E 120 80 0b 00
        E 0 80 19 00
        E 0 80 31 00
        E 0 80 32 00
        E 0 80 49 00
        E 0 80 4a 00
        E 0 80 4b 00
        E 0 80 6c 00
        E 240 80 61 00
        E 0 80 62 00
        E 0 80 63 00
        E 120 90 31 66
        E 0 90 32 68
        E 0 90 49 66
        E 0 90 4a 68
        E 0 90 4b 68
        E 0 90 61 66
        E 0 90 62 68
        E 0 90 63 68
        E 120 80 31 00
        E 0 80 32 00
        E 0 80 49 00
        E 0 80 4a 00
        E 0 80 4b 00
        E 240 80 61 00
        E 0 80 62 00
        E 0 80 63 00
        E 120 90 06 64
        E 0 90 1a 68
        E 0 90 32 68
        E 0 90 33 6a
        E 0 90 4a 68
        E 0 90 4b 6a
        E 0 90 4c 6b
        E 0 90 62 68
        E 0 90 63 6a
        E 0 90 64 6b
        E 0 90 6c 68
        E 120 80 06 00
        E 0 80 1a 00
        E 0 80 32 00
        E 0 80 33 00
        E 0 80 4a 00
        E 0 80 4b 00
        E 0 80 4c 00
        E 0 80 6c 00
        E 240 80 62 00
        E 0 80 63 00
        E 0 80 64 00
        E 120 90 1a 68
        E 0 90 32 68
        E 0 90 33 6a
        E 0 90 4a 68
        E 0 90 4b 6a
        E 0 90 4c 6b
        E 0 90 62 68
        E 0 90 63 6a
        E 0 90 64 6b
        E 120 80 1a 00
        E 0 80 32 00
        E 0 80 33 00
        E 0 80 4a 00
        E 0 80 4b 00
        E 0 80 4c 00
        E 240 80 62 00
        E 0 80 63 00
        E 0 80 64 00
        E 120 90 1a 68
        E 0 90 32 68
        E 0 90 33 6a
        E 0 90 4a 68
        E 0 90 4b 6a
        E 0 90 4c 6b
        E 0 90 62 68
        E 0 90 63 6a
        E 0 90 64 6b
        E 120 80 1a 00
        E 0 80 32 00
        E 0 80 33 00
        E 0 80 4a 00
        E 0 80 4b 00
        E 0 80 4c 00
        E 240 80 62 00
        E 0 80 63 00
        E 0 80 64 00
        E 120 90 1a 68
        E 0 90 32 68
        E 0 90 33 6a
        E 0 90 4a 68
        E 0 90 4b 6a
        E 0 90 4c 6b
        E 0 90 62 68
        E 0 90 63 6a
        E 0 90 64 6b
        E 120 80 1a 00
        E 0 80 32 00
        E 0 80 33 00
        E 0 80 4a 00
        E 0 80 4b 00
        E 0 80 4c 00
        E 240 80 62 00
        E 0 80 63 00
        E 0 80 64 00
        E 120 90 08 64
        E 0 90 1a 6a
        E 0 90 32 6a
        E 0 90 33 6c
        E 0 90 4a 6a
        E 0 90 4b 6c
        E 0 90 4c 6d
        E 0 90 62 6a
        E 0 90 63 6c
        E 0 90 64 6d
        E 0 90 6c 6a
        E 120 80 08 00
        E 0 80 1a 00
        E 0 80 32 00
        E 0 80 33 00
        E 0 80 4a 00
        E 0 80 4b 00
        E 0 80 4c 00
        E 0 80 6c 00
        E 240 80 62 00
        E 0 80 63 00
        E 0 80 64 00
        E 120 90 32 6a
        E 0 90 33 6c
        E 0 90 4a 6a
        E 0 90 4b 6c
        E 0 90 4c 6d
        E 0 90 62 6a
        E 0 90 63 6c
        E 0 90 64 6d
        E 120 80 32 00
        E 0 80 33 00
        E 0 80 4a 00
        E 0 80 4b 00
        E 0 80 4c 00
        E 240 80 62 00
        E 0 80 63 00
        E 0 80 64 00
        E 120 90 09 64
        E 0 90 1a 6b
        E 0 90 32 6b
        E 0 90 33 6d
        E 0 90 4a 6b
        E 0 90 4b 6d
        E 0 90 4c 6e
        E 0 90 62 6b
        E 0 90 63 6d
        E 0 90 64 6e
        E 0 90 6c 6b
        E 120 80 09 00
        E 0 80 1a 00
        E 0 80 32 00
        E 0 80 33 00
        E 0 80 4a 00
        E 0 80 4b 00
        E 0 80 4c 00
        E 0 80 6c 00
        E 240 80 62 00
        E 0 80 63 00
        E 0 80 64 00
        E 120 90 0b 64
        E 0 90 32 6d
        E 0 90 33 6f
        E 0 90 4a 6d
        E 0 90 4b 6f
        E 0 90 4c 70
        E 0 90 62 6d
        E 0 90 63 6f
        E 0 90 64 70
        E 0 90 6c 6d
        E 120 80 0b 00
        E 0 80 32 00
        E 0 80 33 00
        E 0 80 4a 00
        E 0 80 4b 00
        E 0 80 4c 00
        E 0 80 6c 00
        E 240 80 62 00
        E 0 80 63 00
        E 0 80 64 00
        <X 120 0
          /wFbZW5kX3BnIHNvbmdfdHJhaW5lcl9wZ18yXQ==
        >
        E 0 90 0d 64
        E 0 90 19 68
        E 0 90 31 68
        E 0 90 32 6a
        E 0 90 49 68
        E 0 90 4a 6a
        E 0 90 4b 6a
        E 0 90 61 68
        E 0 90 62 6a
        E 0 90 63 6a
        E 0 90 6c 68
        E 120 80 0d 00
        E 0 80 19 00
        E 0 80 31 00
        E 0 80 32 00
        E 0 80 49 00
        E 0 80 4a 00
        E 0 80 4b 00
        E 0 80 6c 00
        E 240 80 61 00
        E 0 80 62 00
        E 0 80 63 00
        E 120 90 19 68
        E 0 90 31 68
        E 0 90 32 6a
        E 0 90 49 68
        E 0 90 4a 6a
        E 0 90 4b 6a
        E 0 90 61 68
        E 0 90 62 6a
        E 0 90 63 6a
        E 120 80 19 00
        E 0 80 31 00
        E 0 80 32 00
        E 0 80 49 00
        E 0 80 4a 00
        E 0 80 4b 00
        E 240 80 61 00
        E 0 80 62 00
        E 0 80 63 00
        E 120 90 19 68
        E 0 90 31 68
        E 0 90 32 6a
        E 0 90 49 68
        E 0 90 4a 6a
        E 0 90 4b 6a
        E 0 90 61 68
        E 0 90 62 6a
        E 0 90 63 6a
        E 120 80 19 00
        E 0 80 31 00
        E 0 80 32 00
        E 0 80 49 00
        E 0 80 4a 00
        E 0 80 4b 00
        E 240 80 61 00
        E 0 80 62 00
        E 0 80 63 00
        E 120 90 31 68
        E 0 90 32 6a
        E 0 90 49 68
        E 0 90 4a 6a
        E 0 90 4b 6a
        E 0 90 61 68
        E 0 90 62 6a
        E 0 90 63 6a
        E 120 80 31 00
        E 0 80 32 00
        E 0 80 49 00
        E 0 80 4a 00
        E 0 80 4b 00
        E 240 80 61 00
        E 0 80 62 00
        E 0 80 63 00
        E 120 90 19 68
        E 0 90 31 68
        E 0 90 32 6a
        E 0 90 49 68
        E 0 90 4a 6a
        E 0 90 4b 6a
        E 0 90 61 68
        E 0 90 62 6a
        E 0 90 63 6a
        E 120 80 19 00
        E 0 80 31 00
        E 0 80 32 00
        E 0 80 49 00
        E 0 80 4a 00
        E 0 80 4b 00
        E 240 80 61 00
        E 0 80 62 00
        E 0 80 63 00
        E 120 90 31 68
        E 0 90 32 6a
        E 0 90 49 68
        E 0 90 4a 6a
        E 0 90 4b 6a
        E 0 90 61 68
        E 0 90 62 6a
        E 0 90 63 6a
        E 120 80 31 00
        E 0 80 32 00
        E 0 80 49 00
        E 0 80 4a 00
        E 0 80 4b 00
        E 240 80 61 00
        E 0 80 62 00
        E 0 80 63 00
        E 120 90 0b 64
        E 0 90 19 66
        E 0 90 31 66
        E 0 90 32 68
        E 0 90 49 66
        E 0 90 4a 68
        E 0 90 4b 68
        E 0 90 61 66
        E 0 90 62 68
        E 0 90 63 68
        E 0 90 6c 66
        E 120 80 0b 00
        E 0 80 19 00
        E 0 80 31 00
        E 0 80 32 00
        E 0 80 49 00
        E 0 80 4a 00
        E 0 80 4b 00
        E 0 80 6c 00
        E 240 80 61 00
        E 0 80 62 00
        E 0 80 63 00
        E 120 90 31 66
        E 0 90 32 68
        E 0 90 49 66
        E 0 90 4a 68
        E 0 90 4b 68
        E 0 90 61 66
        E 0 90 62 68
        E 0 90 63 68
        E 120 80 31 00
        E 0 80 32 00
        E 0 80 49 00
        E 0 80 4a 00
        E 0 80 4b 00
        E 240 80 61 00
        E 0 80 62 00
        E 0 80 63 00
        E 120 90 08 64
        E 0 90 18 68
        E 0 90 30 68
        E 0 90 31 6a
        E 0 90 48 68
        E 0 90 49 6a
        E 0 90 4a 6a
        E 0 90 60 68
        E 0 90 61 6a
        E 0 90 62 6a
        E 0 90 6c 68
        E 120 80 08 00
        E 0 80 18 00
        E 0 80 30 00
        E 0 80 31 00
        E 0 80 48 00
        E 0 80 49 00
        E 0 80 4a 00
        E 0 80 6c 00
        E 240 80 60 00
        E 0 80 61 00
        E 0 80 62 00
        E 120 90 18 68
        E 0 90 30 68
        E 0 90 31 6a
        E 0 90 48 68
        E 0 90 49 6a
        E 0 90 4a 6a
        E 0 90 60 68
        E 0 90 61 6a
        E 0 90 62 6a
        E 120 80 18 00
        E 0 80 30 00
        E 0 80 31 00
        E 0 80 48 00
        E 0 80 49 00
        E 0 80 4a 00
        E 240 80 60 00
        E 0 80 61 00
        E 0 80 62 00
        E 120 90 18 68
        E 0 90 30 68
        E 0 90 31 6a
        E 0 90 48 68
        E 0 90 49 6a
        E 0 90 4a 6a
        E 0 90 60 68
        E 0 90 61 6a
        E 0 90 62 6a
        E 120 80 18 00
        E 0 80 30 00
        E 0 80 31 00
        E 0 80 48 00
        E 0 80 49 00
        E 0 80 4a 00
        E 240 80 60 00
        E 0 80 61 00
        E 0 80 62 00
        E 120 90 30 68
        E 0 90 31 6a
        E 0 90 48 68
        E 0 90 49 6a
        E 0 90 4a 6a
        E 0 90 60 68
        E 0 90 61 6a
        E 0 90 62 6a
        E 120 80 30 00
        E 0 80 31 00
        E 0 80 48 00
        E 0 80 49 00
        E 0 80 4a 00
        E 240 80 60 00
        E 0 80 61 00
        E 0 80 62 00
        E 120 90 06 64
        E 0 90 18 66
        E 0 90 30 66
        E 0 90 31 68
        E 0 90 48 66
        E 0 90 49 68
        E 0 90 4a 68
        E 0 90 60 66
        E 0 90 61 68
        E 0 90 62 68
        E 0 90 6c 66
        E 120 80 06 00
        E 0 80 18 00
        E 0 80 30 00
        E 0 80 31 00
        E 0 80 48 00
        E 0 80 49 00
        E 0 80 4a 00
        E 0 80 6c 00
        E 240 80 60 00
        E 0 80 61 00
        E 0 80 62 00
        E 120 90 30 66
        E 0 90 31 68
        E 0 90 48 66
        E 0 90 49 68
        E 0 90 4a 68
        E 0 90 60 66
        E 0 90 61 68
        E 0 90 62 68
        E 120 80 30 00
        E 0 80 31 00
        E 0 80 48 00
        E 0 80 49 00
        E 0 80 4a 00
        E 240 80 60 00
        E 0 80 61 00
        E 0 80 62 00
        E 120 90 04 64
        E 0 90 18 64
        E 0 90 30 64
        E 0 90 31 66
        E 0 90 48 64
        E 0 90 49 66
        E 0 90 4a 66
        E 0 90 60 64
        E 0 90 61 66
        E 0 90 62 66
        E 120 80 04 00
        E 0 80 18 00
        E 0 80 30 00
        E 0 80 31 00
        E 0 80 48 00
        E 0 80 49 00
        E 0 80 4a 00
        E 240 80 60 00
        E 0 80 61 00
        E 0 80 62 00
        E 120 90 0b 64
        E 0 90 31 66
        E 0 90 32 68
        E 0 90 49 66
        E 0 90 4a 68
        E 0 90 4b 68
        E 0 90 61 66
        E 0 90 62 68
        E 0 90 63 68
        E 120 80 0b 00
        E 0 80 31 00
        E 0 80 32 00
        E 0 80 49 00
        E 0 80 4a 00
        E 0 80 4b 00
        E 240 80 61 00
        E 0 80 62 00
        E 0 80 63 00
        E 120 90 0d 64
        E 0 90 19 68
        E 0 90 31 68
        E 0 90 32 6a
        E 0 90 49 68
        E 0 90 4a 6a
        E 0 90 4b 6a
        E 0 90 61 68
        E 0 90 62 6a
        E 0 90 63 6a
        E 0 90 6c 68
        E 120 80 0d 00
        E 0 80 19 00
        E 0 80 31 00
        E 0 80 32 00
        E 0 80 49 00
        E 0 80 4a 00
        E 0 80 4b 00
        E 0 80 6c 00
        E 240 80 61 00
        E 0 80 62 00
        E 0 80 63 00
        E 120 90 19 68
        E 0 90 31 68
        E 0 90 32 6a
        E 0 90 49 68
        E 0 90 4a 6a
        E 0 90 4b 6a
        E 0 90 61 68
        E 0 90 62 6a
        E 0 90 63 6a
        E 120 80 19 00
        E 0 80 31 00
        E 0 80 32 00
        E 0 80 49 00
        E 0 80 4a 00
        E 0 80 4b 00
        E 240 80 61 00
        E 0 80 62 00
        E 0 80 63 00
        E 120 90 19 68
        E 0 90 31 68
        E 0 90 32 6a
        E 0 90 49 68
        E 0 90 4a 6a
        E 0 90 4b 6a
        E 0 90 61 68
        E 0 90 62 6a
        E 0 90 63 6a
        E 120 80 19 00
        E 0 80 31 00
        E 0 80 32 00
        E 0 80 49 00
        E 0 80 4a 00
        E 0 80 4b 00
        E 240 80 61 00
        E 0 80 62 00
        E 0 80 63 00
        E 120 90 19 68
        E 0 90 31 68
        E 0 90 32 6a
        E 0 90 49 68
        E 0 90 4a 6a
        E 0 90 4b 6a
        E 0 90 61 68
        E 0 90 62 6a
        E 0 90 63 6a
        E 120 80 19 00
        E 0 80 31 00
        E 0 80 32 00
        E 0 80 49 00
        E 0 80 4a 00
        E 0 80 4b 00
        E 240 80 61 00
        E 0 80 62 00
        E 0 80 63 00
        E 120 90 19 68
        E 0 90 31 68
        E 0 90 32 6a
        E 0 90 49 68
        E 0 90 4a 6a
        E 0 90 4b 6a
        E 0 90 61 68
        E 0 90 62 6a
        E 0 90 63 6a
        E 120 80 19 00
        E 0 80 31 00
        E 0 80 32 00
        E 0 80 49 00
        E 0 80 4a 00
        E 0 80 4b 00
        E 240 80 61 00
        E 0 80 62 00
        E 0 80 63 00
        E 120 90 31 68
        E 0 90 32 6a
        E 0 90 49 68
        E 0 90 4a 6a
        E 0 90 4b 6a
        E 0 90 61 68
        E 0 90 62 6a
        E 0 90 63 6a
        E 120 80 31 00
        E 0 80 32 00
        E 0 80 49 00
        E 0 80 4a 00
        E 0 80 4b 00
        E 240 80 61 00
        E 0 80 62 00
        E 0 80 63 00
        E 120 90 0b 64
        E 0 90 19 66
        E 0 90 31 66
        E 0 90 32 68
        E 0 90 49 66
        E 0 90 4a 68
        E 0 90 4b 68
        E 0 90 61 66
        E 0 90 62 68
        E 0 90 63 68
        E 0 90 6c 66
        E 120 80 0b 00
        E 0 80 19 00
        E 0 80 31 00
        E 0 80 32 00
        E 0 80 49 00
        E 0 80 4a 00
        E 0 80 4b 00
        E 0 80 6c 00
        E 240 80 61 00
        E 0 80 62 00
        E 0 80 63 00
        E 120 90 31 66
        E 0 90 32 68
        E 0 90 49 66
        E 0 90 4a 68
        E 0 90 4b 68
        E 0 90 61 66
        E 0 90 62 68
        E 0 90 63 68
        E 120 80 31 00
        E 0 80 32 00
        E 0 80 49 00
        E 0 80 4a 00
        E 0 80 4b 00
        E 240 80 61 00
        E 0 80 62 00
        E 0 80 63 00
        E 120 90 06 64
        E 0 90 1a 68
        E 0 90 32 68
        E 0 90 33 6a
        E 0 90 4a 68
        E 0 90 4b 6a
        E 0 90 4c 6b
        E 0 90 62 68
        E 0 90 63 6a
        E 0 90 64 6b
        E 0 90 6c 68
        E 120 80 06 00
        E 0 80 1a 00
        E 0 80 32 00
        E 0 80 33 00
        E 0 80 4a 00
        E 0 80 4b 00
        E 0 80 4c 00
        E 0 80 6c 00
        E 240 80 62 00
        E 0 80 63 00
        E 0 80 64 00
        E 120 90 1a 68
        E 0 90 32 68
        E 0 90 33 6a
        E 0 90 4a 68
        E 0 90 4b 6a
        E 0 90 4c 6b
        E 0 90 62 68
        E 0 90 63 6a
        E 0 90 64 6b
        E 120 80 1a 00
        E 0 80 32 00
        E 0 80 33 00
        E 0 80 4a 00
        E 0 80 4b 00
        E 0 80 4c 00
        E 240 80 62 00
        E 0 80 63 00
        E 0 80 64 00
        E 120 90 1a 68
        E 0 90 32 68
        E 0 90 33 6a
        E 0 90 4a 68
        E 0 90 4b 6a
        E 0 90 4c 6b
        E 0 90 62 68
        E 0 90 63 6a
        E 0 90 64 6b
        E 120 80 1a 00
        E 0 80 32 00
        E 0 80 33 00
        E 0 80 4a 00
        E 0 80 4b 00
        E 0 80 4c 00
        E 240 80 62 00
        E 0 80 63 00
        E 0 80 64 00
        E 120 90 1a 68
        E 0 90 32 68
        E 0 90 33 6a
        E 0 90 4a 68
        E 0 90 4b 6a
        E 0 90 4c 6b
        E 0 90 62 68
        E 0 90 63 6a
        E 0 90 64 6b
        E 120 80 1a 00
        E 0 80 32 00
        E 0 80 33 00
        E 0 80 4a 00
        E 0 80 4b 00
        E 0 80 4c 00
        E 240 80 62 00
        E 0 80 63 00
        E 0 80 64 00
        E 120 90 08 64
        E 0 90 1a 6a
        E 0 90 32 6a
        E 0 90 33 6c
        E 0 90 4a 6a
        E 0 90 4b 6c
        E 0 90 4c 6d
        E 0 90 62 6a
        E 0 90 63 6c
        E 0 90 64 6d
        E 0 90 6c 6a
        E 120 80 08 00
        E 0 80 1a 00
        E 0 80 32 00
        E 0 80 33 00
        E 0 80 4a 00
        E 0 80 4b 00
        E 0 80 4c 00
        E 0 80 6c 00
        E 240 80 62 00
        E 0 80 63 00
        E 0 80 64 00
        E 120 90 32 6a
        E 0 90 33 6c
        E 0 90 4a 6a
        E 0 90 4b 6c
        E 0 90 4c 6d
        E 0 90 62 6a
        E 0 90 63 6c
        E 0 90 64 6d
        E 120 80 32 00
        E 0 80 33 00
        E 0 80 4a 00
        E 0 80 4b 00
        E 0 80 4c 00
        E 240 80 62 00
        E 0 80 63 00
        E 0 80 64 00
        E 120 90 09 64
        E 0 90 1a 6b
        E 0 90 32 6b
        E 0 90 33 6d
        E 0 90 4a 6b
        E 0 90 4b 6d
        E 0 90 4c 6e
        E 0 90 62 6b
        E 0 90 63 6d
        E 0 90 64 6e
        E 0 90 6c 6b
        E 120 80 09 00
        E 0 80 1a 00
        E 0 80 32 00
        E 0 80 33 00
        E 0 80 4a 00
        E 0 80 4b 00
        E 0 80 4c 00
        E 0 80 6c 00
        E 240 80 62 00
        E 0 80 63 00
        E 0 80 64 00
        E 120 90 0b 64
        E 0 90 32 6d
        E 0 90 33 6f
        E 0 90 4a 6d
        E 0 90 4b 6f
        E 0 90 4c 70
        E 0 90 62 6d
        E 0 90 63 6f
        E 0 90 64 70
        E 0 90 6c 6d
        E 120 80 0b 00
        E 0 80 32 00
        E 0 80 33 00
        E 0 80 4a 00
        E 0 80 4b 00
        E 0 80 4c 00
        E 0 80 6c 00
        E 240 80 62 00
        E 0 80 63 00
        E 0 80 64 00
        E 120 90 04 64
        E 0 90 18 64
        E 0 90 30 64
        E 0 90 31 66
        E 0 90 48 64
        E 0 90 49 66
        E 0 90 4a 66
        E 0 90 60 64
        E 0 90 61 66
        E 0 90 62 66
        E 0 90 6c 66
        E 120 80 04 00
        E 0 80 6c 00
        E 11400 80 18 00 -1
        E 0 80 30 00 -1
        E 0 80 31 00 -1
        E 0 80 48 00 -1
        E 0 80 49 00 -1
        E 0 80 4a 00 -1
        E 0 80 60 00 -1
        E 0 80 61 00 -1
        E 0 80 62 00 -1
        E 3840 b0 7b 00
        GUID {2F9A512A-584F-4A2B-802E-31B248B12510}
        IGNTEMPO 0 120.00000000 4 4
        SRCCOLOR 9
        VELLANE 132 71 60
        COLORMAP "C:\Program Files\REAPER\Data\color_maps\rockband_guitarbass.png"
        CFGEDITVIEW 7456.171079 73.971137 2 12 0 0 0
        CFGEDIT 1 1 0 1 1 0 1 1 1 1 1 0.25000000 -4 0 1025 558 0 2 1 1 0.00000000 0 1 1 0 0.500000 0 0 1.000000 64
        KEYSNAP 0 0 "102034050607" 0 "Major"
        EVTFILTER 0 144 -1 -1 -1 0 0 0 1 0.06666667 -1.00000000
      >
    >
  >
  <TRACK '{3D35779A-6695-4F59-B392-BBEE295776B6}'
    NAME "guitar"
    PEAKCOL 16576
    BEAT -1
    AUTOMODE 0
    VOLPAN 1.00000000000000 0.00000000000000 -1.00000000000000 -1.00000000000000 1.00000000000000
    MUTESOLO 0 0 0
    IPHASE 0
    ISBUS 2 -1
    BUSCOMP 0 0
    SHOWINMIX 1 0.666700 0.500000 1 0.500000 -1 -1 -1
    FREEMODE 0
    SEL 0
    REC 0 0 0 0 0 0 0
    VU 2
    TRACKHEIGHT 0 0
    INQ 0 0 0 0.5000000000 100 0 0 100
    NCHAN 2
    FX 1
    TRACKID {3D35779A-6695-4F59-B392-BBEE295776B6}
    PERF 0
    MIDIOUT -1
    MAINSEND 1 0
    <ITEM
      POSITION 0.00000000000000
      SNAPOFFS 0.00000000000000
      LENGTH 85.23952380952380
      LOOP 0
      ALLTAKES 0
      SEL 0
      FADEIN 1 0.000000 0.000000 1 0
      FADEOUT 1 0.000000 0.000000 1 0
      MUTE 0
      IGUID {86067E08-CAFA-4D9A-89C0-0919330FAC0F}
      IID 75
      NAME "guitar.wav"
      VOLPAN 1.000000 0.000000 1.000000 -1.000000
      SOFFS 0.00000000000000
      PLAYRATE 1.00000000000000 1 0.00000000000000 -1
      CHANMODE 0
      GUID {D9DAA60E-FFF5-4DF6-83AD-C77F36DFC1F4}
      <SOURCE WAVE
        FILE "wav\guitar.wav"
      >
    >
  >
  <TRACK '{B5BEBB59-1ADC-4814-B7B1-087FD634351A}'
    NAME "PART KEYS"
    PEAKCOL 16576
    BEAT -1
    AUTOMODE 0
    VOLPAN 1.00000000000000 0.00000000000000 -1.00000000000000 -1.00000000000000 1.00000000000000
    MUTESOLO 0 0 0
    IPHASE 0
    ISBUS 1 1
    BUSCOMP 0 0
    SHOWINMIX 1 0.666700 0.500000 1 0.500000 -1 -1 -1
    FREEMODE 0
    SEL 0
    REC 0 0 0 0 0 0 0
    VU 2
    TRACKHEIGHT 0 0
    INQ 0 0 0 0.5000000000 100 0 0 100
    NCHAN 2
    FX 1
    TRACKID {B5BEBB59-1ADC-4814-B7B1-087FD634351A}
    PERF 0
    MIDIOUT -1
    <MIDINOTENAMES
      0 127 "Trill Marker"
      0 125 "---"
      0 124 "BRE"
      0 123 "BRE"
      0 122 "BRE"
      0 121 "BRE"
      0 120 "BRE (use all 5)"
      0 119 "----"
      0 116 "OVERDRIVE"
      0 115 "----"
      0 103 "Solo Marker"
      0 102 "Force HOPO Off"
      0 101 "Force HOPO On"
      0 100 "EXPERT Orange"
      0 99 "EXPERT Blue"
      0 98 "EXPERT Yellow"
      0 97 "EXPERT Red"
      0 96 "EXPERT Green"
      0 95 "----"
      0 90 "Force HOPO Off"
      0 89 "Force HOPO On"
      0 88 "HARD Orange"
      0 87 "HARD Blue"
      0 86 "HARD Yellow"
      0 85 "HARD Red"
      0 84 "HARD Green"
      0 83 "----"
      0 76 "MEDIUM Orange"
      0 75 "MEDIUM Blue"
      0 74 "MEDIUM Yellow"
      0 73 "MEDIUM Red"
      0 72 "MEDIUM Green"
      0 71 "----"
      0 64 "EASY Orange"
      0 63 "EASY Blue"
      0 62 "EASY Yellow"
      0 61 "EASY Red"
      0 60 "EASY Green"
    >
    MAINSEND 1 0
    <FXCHAIN
      SHOW 0
      LASTSEL 0
      DOCKED 0
    >
    <ITEM
      POSITION 0.00000000000000
      SNAPOFFS 0.00000000000000
      LENGTH 85.23950400000001
      LOOP 0
      ALLTAKES 0
      SEL 0
      FADEIN 1 0.000000 0.000000 1 0
      FADEOUT 1 0.000000 0.000000 1 0
      MUTE 0
      IGUID {C7711E9E-2AFB-4F42-B370-DE06AFAE0A90}
      IID 11
      NAME "PART KEYS"
      VOLPAN 1.000000 0.000000 1.000000 -1.000000
      SOFFS 0.00000000000000 0.00000000000000
      PLAYRATE 1.00000000000000 1 0.00000000000000 -1
      CHANMODE 0
      GUID {10D21690-615C-40A5-9EFA-29DA446BEA1F}
      <SOURCE MIDI
        HASDATA 1 480 QN
        POOLEDEVTS {5E34D0D6-EC04-4A80-840C-D71AC783AFCF}
        <X 0 0
          /wNQQVJUIEtFWVM=
        >
        <X 3600 0
          /wFbcGxheV0=
        >
        E 240 90 3c 60
        E 0 90 49 60
        E 0 90 55 60
        E 0 90 61 60
        E 120 80 3c 00
        E 0 80 49 00
        E 0 80 55 00
        E 0 80 61 00
        E 0 90 62 60
        E 120 80 62 00
        E 0 90 57 60
        E 0 90 63 60
        E 120 80 57 00
        E 0 80 63 00
        E 0 90 62 60
        E 120 80 62 00
        E 0 90 4b 60
        E 0 90 57 60
        E 0 90 63 60
        E 120 80 4b 00
        E 0 80 57 00
        E 0 80 63 00
        E 0 90 64 60
        E 120 80 64 00
        E 0 90 55 60
        E 0 90 61 60
        E 120 80 55 00
        E 0 80 61 00
        E 0 90 62 60
        E 120 80 62 00
        E 0 90 3e 60
        E 0 90 4b 60
        E 0 90 57 60
        E 0 90 63 60
        E 120 80 3e 00
        E 0 80 4b 00
        E 0 80 57 00
        E 0 80 63 00
        E 0 90 62 60
        E 120 80 62 00
        E 0 90 57 60
        E 0 90 63 60
        E 120 80 57 00
        E 0 80 63 00
        E 0 90 64 60
        E 120 80 64 00
        E 0 90 49 60
        E 0 90 55 60
        E 0 90 61 60
        E 120 80 49 00
        E 0 80 55 00
        E 0 80 61 00
        E 0 90 62 60
        E 120 80 62 00
        E 0 90 57 60
        E 0 90 63 60
        E 120 80 57 00
        E 0 80 63 00
        E 0 90 62 60
        E 120 80 62 00
        E 0 90 3c 60
        E 0 90 49 60
        E 0 90 55 60
        E 0 90 61 60
        E 120 80 3c 00
        E 0 80 49 00
        E 0 80 55 00
        E 0 80 61 00
        E 0 90 62 60
        E 120 80 62 00
        E 0 90 57 60
        E 0 90 63 60
        E 120 80 57 00
        E 0 80 63 00
        E 0 90 62 60
        E 120 80 62 00
        E 0 90 4b 60
        E 0 90 57 60
        E 0 90 63 60
        E 120 80 4b 00
        E 0 80 57 00
        E 0 80 63 00
        E 0 90 64 60
        E 120 80 64 00
        E 0 90 55 60
        E 0 90 61 60
        E 120 80 55 00
        E 0 80 61 00
        E 0 90 62 60
        E 120 80 62 00
        E 0 90 3e 60
        E 0 90 4b 60
        E 0 90 57 60
        E 0 90 63 60
        E 120 80 3e 00
        E 0 80 4b 00
        E 0 80 57 00
        E 0 80 63 00
        E 0 90 62 60
        E 120 80 62 00
        E 0 90 57 60
        E 0 90 63 60
        E 120 80 57 00
        E 0 80 63 00
        E 0 90 64 60
        E 120 80 64 00
        E 0 90 49 60
        E 0 90 55 60
        E 0 90 61 60
        E 120 80 49 00
        E 0 80 55 00
        E 0 80 61 00
        E 0 90 62 60
        E 120 80 62 00
        E 0 90 57 60
        E 0 90 63 60
        E 120 80 57 00
        E 0 80 63 00
        E 0 90 62 60
        E 120 80 62 00
        E 0 90 3c 60
        E 0 90 48 60
        E 0 90 54 60
        E 0 90 60 60
        E 120 80 3c 00
        E 0 80 48 00
        E 0 80 54 00
        E 0 80 60 00
        E 0 90 61 60
        E 120 80 61 00
        E 0 90 56 60
        E 0 90 62 60
        E 120 80 56 00
        E 0 80 62 00
        E 0 90 61 60
        E 120 80 61 00
        E 0 90 4a 60
        E 0 90 56 60
        E 0 90 62 60
        E 120 80 4a 00
        E 0 80 56 00
        E 0 80 62 00
        E 0 90 63 60
        E 120 80 63 00
        E 0 90 54 60
        E 0 90 60 60
        E 120 80 54 00
        E 0 80 60 00
        E 0 90 61 60
        E 120 80 61 00
        E 0 90 3d 60
        E 0 90 4a 60
        E 0 90 56 60
        E 0 90 62 60
        E 120 80 3d 00
        E 0 80 4a 00
        E 0 80 56 00
        E 0 80 62 00
        E 0 90 61 60
        E 120 80 61 00
        E 0 90 56 60
        E 0 90 62 60
        E 120 80 56 00
        E 0 80 62 00
        E 0 90 63 60
        E 120 80 63 00
        E 0 90 48 60
        E 0 90 54 60
        E 0 90 60 60
        E 120 80 48 00
        E 0 80 54 00
        E 0 80 60 00
        E 0 90 61 60
        E 120 80 61 00
        E 0 90 56 60
        E 0 90 62 60
        E 120 80 56 00
        E 0 80 62 00
        E 0 90 61 60
        E 120 80 61 00
        E 0 90 3c 60
        E 0 90 48 60
        E 0 90 54 60
        E 0 90 60 60
        E 120 80 3c 00
        E 0 80 48 00
        E 0 80 54 00
        E 0 80 60 00
        E 0 90 61 60
        E 120 80 61 00
        E 0 90 56 60
        E 0 90 62 60
        E 120 80 56 00
        E 0 80 62 00
        E 0 90 61 60
        E 120 80 61 00
        E 0 90 4a 60
        E 0 90 56 60
        E 0 90 62 60
        E 120 80 4a 00
        E 0 80 56 00
        E 0 80 62 00
        E 0 90 63 60
        E 120 80 63 00
        E 0 90 54 60
        E 0 90 60 60
        E 120 80 54 00
        E 0 80 60 00
        E 0 90 61 60
        E 120 80 61 00
        E 0 90 3d 60
        E 0 90 4a 60
        E 0 90 56 60
        E 0 90 62 60
        E 120 80 3d 00
        E 0 80 4a 00
        E 0 80 56 00
        E 0 80 62 00
        E 0 90 61 60
        E 120 80 61 00
        E 0 90 56 60
        E 0 90 62 60
        E 120 80 56 00
        E 0 80 62 00
        E 0 90 63 60
        E 120 80 63 00
        E 0 90 48 60
        E 0 90 54 60
        E 0 90 60 60
        E 120 80 48 00
        E 0 80 54 00
        E 0 80 60 00
        E 0 90 61 60
        E 120 80 61 00
        E 0 90 56 60
        E 0 90 62 60
        E 120 80 56 00
        E 0 80 62 00
        E 0 90 61 60
        E 120 80 61 00
        E 0 90 3c 60
        E 0 90 48 60
        E 0 90 54 60
        E 0 90 60 60
        E 0 90 74 60
        E 120 80 3c 00
        E 0 80 48 00
        E 0 80 54 00
        E 0 80 60 00
        E 0 90 61 60
        E 120 80 61 00
        E 0 90 56 60
        E 0 90 62 60
        E 120 80 56 00
        E 0 80 62 00
        E 0 90 61 60
        E 120 80 61 00
        E 0 90 4a 60
        E 0 90 56 60
        E 0 90 62 60
        E 120 80 4a 00
        E 0 80 56 00
        E 0 80 62 00
        E 0 90 64 60
        E 120 80 64 00
        E 0 90 54 60
        E 0 90 60 60
        E 120 80 54 00
        E 0 80 60 00
        E 0 90 61 60
        E 120 80 61 00
        E 0 90 3d 60
        E 0 90 4a 60
        E 0 90 56 60
        E 0 90 62 60
        E 120 80 3d 00
        E 0 80 4a 00
        E 0 80 56 00
        E 0 80 62 00
        E 0 90 61 60
        E 120 80 61 00
        E 0 90 56 60
        E 0 90 62 60
        E 120 80 56 00
        E 0 80 62 00
        E 0 90 64 60
        E 120 80 64 00
        E 0 90 48 60
        E 0 90 54 60
        E 0 90 60 60
        E 120 80 48 00
        E 0 80 54 00
        E 0 80 60 00
        E 0 90 61 60
        E 120 80 61 00
        E 0 90 56 60
        E 0 90 62 60
        E 120 80 56 00
        E 0 80 62 00
        E 0 90 61 60
        E 120 80 61 00
        E 0 90 3c 60
        E 0 90 48 60
        E 0 90 54 60
        E 0 90 60 60
        E 120 80 3c 00
        E 0 80 48 00
        E 0 80 54 00
        E 0 80 60 00
        E 0 90 62 60
        E 120 80 62 00
        E 0 90 57 60
        E 0 90 63 60
        E 120 80 57 00
        E 0 80 63 00
        E 0 90 62 60
        E 120 80 62 00
        E 0 90 4b 60
        E 0 90 57 60
        E 0 90 63 60
        E 120 80 4b 00
        E 0 80 57 00
        E 0 80 63 00
        E 0 90 64 60
        E 120 80 64 00
        E 0 90 54 60
        E 0 90 60 60
        E 120 80 54 00
        E 0 80 60 00
        E 0 90 62 60
        E 120 80 62 00
        E 0 90 3e 60
        E 0 90 4b 60
        E 0 90 57 60
        E 0 90 63 60
        E 120 80 3e 00
        E 0 80 4b 00
        E 0 80 57 00
        E 0 80 63 00
        E 0 90 62 60
        E 120 80 62 00
        E 0 90 57 60
        E 0 90 63 60
        E 120 80 57 00
        E 0 80 63 00
        E 0 90 64 60
        E 120 80 64 00
        E 0 90 48 60
        E 0 90 54 60
        E 0 90 60 60
        E 120 80 48 00
        E 0 80 54 00
        E 0 80 60 00
        E 0 90 62 60
        E 120 80 62 00
        E 0 90 57 60
        E 0 90 63 60
        E 120 80 57 00
        E 0 80 63 00
        E 0 90 62 60
        E 120 80 74 00
        E 0 80 62 00
        E 0 90 3c 60
        E 0 90 49 60
        E 0 90 55 60
        E 0 90 61 60
        E 120 80 3c 00
        E 0 80 49 00
        E 0 80 55 00
        E 0 80 61 00
        E 0 90 62 60
        E 120 80 62 00
        E 0 90 57 60
        E 0 90 63 60
        E 120 80 57 00
        E 0 80 63 00
        E 0 90 62 60
        E 120 80 62 00
        E 0 90 4b 60
        E 0 90 57 60
        E 0 90 63 60
        E 120 80 4b 00
        E 0 80 57 00
        E 0 80 63 00
        E 0 90 64 60
        E 120 80 64 00
        E 0 90 55 60
        E 0 90 61 60
        E 120 80 55 00
        E 0 80 61 00
        E 0 90 62 60
        E 120 80 62 00
        E 0 90 3e 60
        E 0 90 4b 60
        E 0 90 57 60
        E 0 90 63 60
        E 120 80 3e 00
        E 0 80 4b 00
        E 0 80 57 00
        E 0 80 63 00
        E 0 90 62 60
        E 120 80 62 00
        E 0 90 57 60
        E 0 90 63 60
        E 120 80 57 00
        E 0 80 63 00
        E 0 90 64 60
        E 120 80 64 00
        E 0 90 49 60
        E 0 90 55 60
        E 0 90 61 60
        E 120 80 49 00
        E 0 80 55 00
        E 0 80 61 00
        E 0 90 62 60
        E 120 80 62 00
        E 0 90 57 60
        E 0 90 63 60
        E 120 80 57 00
        E 0 80 63 00
        E 0 90 62 60
        E 120 80 62 00
        E 0 90 3c 60
        E 0 90 48 60
        E 0 90 54 60
        E 0 90 60 60
        E 120 80 3c 00
        E 0 80 48 00
        E 0 80 54 00
        E 0 80 60 00
        E 0 90 62 60
        E 120 80 62 00
        E 0 90 57 60
        E 0 90 63 60
        E 120 80 57 00
        E 0 80 63 00
        E 0 90 62 60
        E 120 80 62 00
        E 0 90 4b 60
        E 0 90 57 60
        E 0 90 63 60
        E 120 80 4b 00
        E 0 80 57 00
        E 0 80 63 00
        E 0 90 64 60
        E 120 80 64 00
        E 0 90 54 60
        E 0 90 60 60
        E 120 80 54 00
        E 0 80 60 00
        E 0 90 62 60
        E 120 80 62 00
        E 0 90 3e 60
        E 0 90 4b 60
        E 0 90 57 60
        E 0 90 63 60
        E 120 80 3e 00
        E 0 80 4b 00
        E 0 80 57 00
        E 0 80 63 00
        E 0 90 62 60
        E 120 80 62 00
        E 0 90 57 60
        E 0 90 63 60
        E 120 80 57 00
        E 0 80 63 00
        E 0 90 64 60
        E 120 80 64 00
        E 0 90 48 60
        E 0 90 54 60
        E 0 90 60 60
        E 120 80 48 00
        E 0 80 54 00
        E 0 80 60 00
        E 0 90 62 60
        E 120 80 62 00
        E 0 90 57 60
        E 0 90 63 60
        E 120 80 57 00
        E 0 80 63 00
        E 0 90 62 60
        E 120 80 62 00
        E 0 90 3c 60
        E 0 90 49 60
        E 0 90 55 60
        E 0 90 61 60
        E 120 80 3c 00
        E 0 80 49 00
        E 0 80 55 00
        E 0 80 61 00
        E 0 90 62 60
        E 120 80 62 00
        E 0 90 57 60
        E 0 90 63 60
        E 120 80 57 00
        E 0 80 63 00
        E 0 90 62 60
        E 120 80 62 00
        E 0 90 4b 60
        E 0 90 57 60
        E 0 90 63 60
        E 120 80 4b 00
        E 0 80 57 00
        E 0 80 63 00
        E 0 90 64 60
        E 120 80 64 00
        E 0 90 55 60
        E 0 90 61 60
        E 120 80 55 00
        E 0 80 61 00
        E 0 90 62 60
        E 120 80 62 00
        E 0 90 3e 60
        E 0 90 4b 60
        E 0 90 57 60
        E 0 90 63 60
        E 120 80 3e 00
        E 0 80 4b 00
        E 0 80 57 00
        E 0 80 63 00
        E 0 90 62 60
        E 120 80 62 00
        E 0 90 57 60
        E 0 90 63 60
        E 120 80 57 00
        E 0 80 63 00
        E 0 90 64 60
        E 120 80 64 00
        E 0 90 49 60
        E 0 90 55 60
        E 0 90 61 60
        E 120 80 49 00
        E 0 80 55 00
        E 0 80 61 00
        E 0 90 62 60
        E 120 80 62 00
        E 0 90 57 60
        E 0 90 63 60
        E 120 80 57 00
        E 0 80 63 00
        E 0 90 62 60
        E 120 80 62 00
        E 0 90 3c 60
        E 0 90 49 60
        E 0 90 55 60
        E 0 90 61 60
        E 120 80 3c 00
        E 0 80 49 00
        E 0 80 55 00
        E 0 80 61 00
        E 0 90 62 60
        E 120 80 62 00
        E 0 90 57 60
        E 0 90 63 60
        E 120 80 57 00
        E 0 80 63 00
        E 0 90 62 60
        E 120 80 62 00
        E 0 90 4b 60
        E 0 90 57 60
        E 0 90 63 60
        E 120 80 4b 00
        E 0 80 57 00
        E 0 80 63 00
        E 0 90 64 60
        E 120 80 64 00
        E 0 90 55 60
        E 0 90 61 60
        E 120 80 55 00
        E 0 80 61 00
        E 0 90 62 60
        E 120 80 62 00
        E 0 90 3e 60
        E 0 90 4b 60
        E 0 90 57 60
        E 0 90 63 60
        E 120 80 3e 00
        E 0 80 4b 00
        E 0 80 57 00
        E 0 80 63 00
        E 0 90 62 60
        E 120 80 62 00
        E 0 90 57 60
        E 0 90 63 60
        E 120 80 57 00
        E 0 80 63 00
        E 0 90 64 60
        E 120 80 64 00
        E 0 90 49 60
        E 0 90 55 60
        E 0 90 61 60
        E 120 80 49 00
        E 0 80 55 00
        E 0 80 61 00
        E 0 90 62 60
        E 120 80 62 00
        E 0 90 57 60
        E 0 90 63 60
        E 120 80 57 00
        E 0 80 63 00
        E 0 90 62 60
        E 120 80 62 00
        E 0 90 3c 60
        E 0 90 48 60
        E 0 90 54 60
        E 0 90 60 60
        E 120 80 3c 00
        E 0 80 48 00
        E 0 80 54 00
        E 0 80 60 00
        E 0 90 61 60
        E 120 80 61 00
        E 0 90 56 60
        E 0 90 62 60
        E 120 80 56 00
        E 0 80 62 00
        E 0 90 61 60
        E 120 80 61 00
        E 0 90 4a 60
        E 0 90 56 60
        E 0 90 62 60
        E 120 80 4a 00
        E 0 80 56 00
        E 0 80 62 00
        E 0 90 63 60
        E 120 80 63 00
        E 0 90 54 60
        E 0 90 60 60
        E 120 80 54 00
        E 0 80 60 00
        E 0 90 61 60
        E 120 80 61 00
        E 0 90 3d 60
        E 0 90 4a 60
        E 0 90 56 60
        E 0 90 62 60
        E 120 80 3d 00
        E 0 80 4a 00
        E 0 80 56 00
        E 0 80 62 00
        E 0 90 61 60
        E 120 80 61 00
        E 0 90 56 60
        E 0 90 62 60
        E 120 80 56 00
        E 0 80 62 00
        E 0 90 63 60
        E 120 80 63 00
        E 0 90 48 60
        E 0 90 54 60
        E 0 90 60 60
        E 120 80 48 00
        E 0 80 54 00
        E 0 80 60 00
        E 0 90 61 60
        E 120 80 61 00
        E 0 90 56 60
        E 0 90 62 60
        E 120 80 56 00
        E 0 80 62 00
        E 0 90 61 60
        E 120 80 61 00
        E 0 90 3c 60
        E 0 90 48 60
        E 0 90 54 60
        E 0 90 60 60
        E 120 80 3c 00
        E 0 80 48 00
        E 0 80 54 00
        E 0 80 60 00
        E 0 90 61 60
        E 120 80 61 00
        E 0 90 56 60
        E 0 90 62 60
        E 120 80 56 00
        E 0 80 62 00
        E 0 90 61 60
        E 120 80 61 00
        E 0 90 4a 60
        E 0 90 56 60
        E 0 90 62 60
        E 120 80 4a 00
        E 0 80 56 00
        E 0 80 62 00
        E 0 90 63 60
        E 120 80 63 00
        E 0 90 54 60
        E 0 90 60 60
        E 120 80 54 00
        E 0 80 60 00
        E 0 90 61 60
        E 120 80 61 00
        E 0 90 3d 60
        E 0 90 4a 60
        E 0 90 56 60
        E 0 90 62 60
        E 120 80 3d 00
        E 0 80 4a 00
        E 0 80 56 00
        E 0 80 62 00
        E 0 90 61 60
        E 120 80 61 00
        E 0 90 56 60
        E 0 90 62 60
        E 120 80 56 00
        E 0 80 62 00
        E 0 90 63 60
        E 120 80 63 00
        E 0 90 48 60
        E 0 90 54 60
        E 0 90 60 60
        E 120 80 48 00
        E 0 80 54 00
        E 0 80 60 00
        E 0 90 61 60
        E 120 80 61 00
        E 0 90 56 60
        E 0 90 62 60
        E 120 80 56 00
        E 0 80 62 00
        E 0 90 61 60
        E 120 80 61 00
        E 0 90 3c 60
        E 0 90 48 60
        E 0 90 54 60
        E 0 90 60 60
        E 120 80 3c 00
        E 0 80 48 00
        E 0 80 54 00
        E 0 80 60 00
        E 0 90 61 60
        E 120 80 61 00
        E 0 90 56 60
        E 0 90 62 60
        E 120 80 56 00
        E 0 80 62 00
        E 0 90 61 60
        E 120 80 61 00
        E 0 90 4a 60
        E 0 90 56 60
        E 0 90 62 60
        E 120 80 4a 00
        E 0 80 56 00
        E 0 80 62 00
        E 0 90 64 60
        E 120 80 64 00
        E 0 90 54 60
        E 0 90 60 60
        E 120 80 54 00
        E 0 80 60 00
        E 0 90 61 60
        E 120 80 61 00
        E 0 90 3d 60
        E 0 90 4a 60
        E 0 90 56 60
        E 0 90 62 60
        E 120 80 3d 00
        E 0 80 4a 00
        E 0 80 56 00
        E 0 80 62 00
        E 0 90 61 60
        E 120 80 61 00
        E 0 90 56 60
        E 0 90 62 60
        E 120 80 56 00
        E 0 80 62 00
        E 0 90 64 60
        E 120 80 64 00
        E 0 90 48 60
        E 0 90 54 60
        E 0 90 60 60
        E 120 80 48 00
        E 0 80 54 00
        E 0 80 60 00
        E 0 90 61 60
        E 120 80 61 00
        E 0 90 56 60
        E 0 90 62 60
        E 120 80 56 00
        E 0 80 62 00
        E 0 90 61 60
        E 120 80 61 00
        E 0 90 3c 60
        E 0 90 48 60
        E 0 90 54 60
        E 0 90 60 60
        E 0 90 74 60
        E 120 80 3c 00
        E 0 80 48 00
        E 0 80 54 00
        E 0 80 60 00
        E 0 90 62 60
        E 120 80 62 00
        E 0 90 57 60
        E 0 90 63 60
        E 120 80 57 00
        E 0 80 63 00
        E 0 90 62 60
        E 120 80 62 00
        E 0 90 4b 60
        E 0 90 57 60
        E 0 90 63 60
        E 120 80 4b 00
        E 0 80 57 00
        E 0 80 63 00
        E 0 90 64 60
        E 120 80 64 00
        E 0 90 54 60
        E 0 90 60 60
        E 120 80 54 00
        E 0 80 60 00
        E 0 90 62 60
        E 120 80 62 00
        E 0 90 3e 60
        E 0 90 4b 60
        E 0 90 57 60
        E 0 90 63 60
        E 120 80 3e 00
        E 0 80 4b 00
        E 0 80 57 00
        E 0 80 63 00
        E 0 90 62 60
        E 120 80 62 00
        E 0 90 57 60
        E 0 90 63 60
        E 120 80 57 00
        E 0 80 63 00
        E 0 90 64 60
        E 120 80 64 00
        E 0 90 48 60
        E 0 90 54 60
        E 0 90 60 60
        E 120 80 48 00
        E 0 80 54 00
        E 0 80 60 00
        E 0 90 62 60
        E 120 80 62 00
        E 0 90 57 60
        E 0 90 63 60
        E 120 80 57 00
        E 0 80 63 00
        E 0 90 62 60
        E 120 80 74 00
        E 0 80 62 00
        E 0 90 3c 60
        E 0 90 49 60
        E 0 90 55 60
        E 0 90 61 60
        E 120 80 3c 00
        E 0 80 49 00
        E 0 80 55 00
        E 0 80 61 00
        E 0 90 62 60
        E 120 80 62 00
        E 0 90 57 60
        E 0 90 63 60
        E 120 80 57 00
        E 0 80 63 00
        E 0 90 62 60
        E 120 80 62 00
        E 0 90 4b 60
        E 0 90 57 60
        E 0 90 63 60
        E 120 80 4b 00
        E 0 80 57 00
        E 0 80 63 00
        E 0 90 64 60
        E 120 80 64 00
        E 0 90 55 60
        E 0 90 61 60
        E 120 80 55 00
        E 0 80 61 00
        E 0 90 62 60
        E 120 80 62 00
        E 0 90 3e 60
        E 0 90 4b 60
        E 0 90 57 60
        E 0 90 63 60
        E 120 80 3e 00
        E 0 80 4b 00
        E 0 80 57 00
        E 0 80 63 00
        E 0 90 62 60
        E 120 80 62 00
        E 0 90 57 60
        E 0 90 63 60
        E 120 80 57 00
        E 0 80 63 00
        E 0 90 64 60
        E 120 80 64 00
        E 0 90 49 60
        E 0 90 55 60
        E 0 90 61 60
        E 120 80 49 00
        E 0 80 55 00
        E 0 80 61 00
        E 0 90 62 60
        E 120 80 62 00
        E 0 90 57 60
        E 0 90 63 60
        E 120 80 57 00
        E 0 80 63 00
        E 0 90 62 60
        E 120 80 62 00
        E 0 90 3c 60
        E 0 90 48 60
        E 0 90 54 60
        E 0 90 60 60
        E 120 80 3c 00
        E 0 80 48 00
        E 0 80 54 00
        E 0 80 60 00
        E 0 90 62 60
        E 120 80 62 00
        E 0 90 57 60
        E 0 90 63 60
        E 120 80 57 00
        E 0 80 63 00
        E 0 90 62 60
        E 120 80 62 00
        E 0 90 4b 60
        E 0 90 57 60
        E 0 90 63 60
        E 120 80 4b 00
        E 0 80 57 00
        E 0 80 63 00
        E 0 90 64 60
        E 120 80 64 00
        E 0 90 54 60
        E 0 90 60 60
        E 120 80 54 00
        E 0 80 60 00
        E 0 90 62 60
        E 120 80 62 00
        E 0 90 3e 60
        E 0 90 4b 60
        E 0 90 57 60
        E 0 90 63 60
        E 120 80 3e 00
        E 0 80 4b 00
        E 0 80 57 00
        E 0 80 63 00
        E 0 90 62 60
        E 120 80 62 00
        E 0 90 57 60
        E 0 90 63 60
        E 120 80 57 00
        E 0 80 63 00
        E 0 90 64 60
        E 120 80 64 00
        E 0 90 48 60
        E 0 90 54 60
        E 0 90 60 60
        E 120 80 48 00
        E 0 80 54 00
        E 0 80 60 00
        E 0 90 62 60
        E 120 80 62 00
        E 0 90 57 60
        E 0 90 63 60
        E 120 80 57 00
        E 0 80 63 00
        E 0 90 62 60
        <X 120 0
          /wFbaW50ZW5zZV0=
        >
        E 0 80 62 00
        E 0 90 3c 60
        E 0 90 49 60
        E 0 90 55 60
        E 0 90 61 60
        E 120 80 3c 00
        E 0 80 49 00
        E 0 80 55 00
        E 0 80 61 00
        E 360 90 4a 60
        E 0 90 56 60
        E 0 90 62 60
        E 120 80 4a 00
        E 0 80 56 00
        E 0 80 62 00
        E 360 90 3e 60
        E 0 90 4b 60
        E 0 90 57 60
        E 0 90 63 60
        E 120 80 3e 00
        E 0 80 4b 00
        E 0 80 57 00
        E 0 80 63 00
        E 360 90 4c 60
        E 0 90 58 60
        E 0 90 64 60
        E 120 80 4c 00
        E 0 80 58 00
        E 0 80 64 00
        E 120 90 55 60
        E 0 90 61 60
        E 120 80 55 00
        E 0 80 61 00
        E 360 90 55 60
        E 0 90 61 60
        E 120 80 55 00
        E 0 80 61 00
        E 120 90 4a 60
        E 0 90 56 60
        E 0 90 62 60
        E 120 80 4a 00
        E 0 80 56 00
        E 0 80 62 00
        E 360 90 3e 60
        E 0 90 4b 60
        E 0 90 57 60
        E 0 90 63 60
        E 120 80 3e 00
        E 0 80 4b 00
        E 0 80 57 00
        E 0 80 63 00
        E 360 90 4a 60
        E 0 90 56 60
        E 0 90 62 60
        E 120 80 4a 00
        E 0 80 56 00
        E 0 80 62 00
        E 360 90 3c 60
        E 0 90 49 60
        E 0 90 55 60
        E 0 90 61 60
        E 120 80 3c 00
        E 0 80 49 00
        E 240 80 55 00
        E 0 80 61 00
        E 120 90 3c 60
        E 0 90 48 60
        E 0 90 54 60
        E 0 90 60 60
        E 120 80 3c 00
        E 0 80 48 00
        E 0 80 54 00
        E 0 80 60 00
        E 120 90 55 60
        E 0 90 61 60
        E 360 80 55 00
        E 0 80 61 00
        E 120 90 54 60
        E 0 90 60 60
        E 120 80 54 00
        E 0 80 60 00
        E 120 90 3c 60
        E 0 90 49 60
        E 0 90 55 60
        E 0 90 61 60
        E 120 80 3c 00
        E 0 80 49 00
        E 0 80 55 00
        E 0 80 61 00
        E 120 90 56 60
        E 0 90 62 60
        E 120 80 56 00
        E 0 80 62 00
        E 120 90 3c 60
        E 0 90 49 60
        E 0 90 55 60
        E 0 90 61 60
        E 120 80 3c 00
        E 0 80 49 00
        E 240 80 55 00
        E 0 80 61 00
        E 120 90 3c 60
        E 0 90 48 60
        E 0 90 54 60
        E 0 90 60 60
        E 120 80 3c 00
        E 0 80 48 00
        E 0 80 54 00
        E 0 80 60 00
        E 120 90 55 60
        E 0 90 61 60
        E 360 80 55 00
        E 0 80 61 00
        E 120 90 54 60
        E 0 90 60 60
        E 120 80 54 00
        E 0 80 60 00
        E 120 90 4a 60
        E 0 90 56 60
        E 0 90 62 60
        E 120 80 4a 00
        E 0 80 56 00
        E 0 80 62 00
        E 120 90 57 60
        E 0 90 63 60
        E 120 80 57 00
        E 0 80 63 00
        E 120 90 3c 60
        E 0 90 49 60
        E 0 90 55 60
        E 0 90 61 60
        E 120 80 3c 00
        E 0 80 49 00
        E 0 80 55 00
        E 0 80 61 00
        E 360 90 4a 60
        E 0 90 56 60
        E 0 90 62 60
        E 120 80 4a 00
        E 0 80 56 00
        E 0 80 62 00
        E 360 90 3e 60
        E 0 90 4b 60
        E 0 90 57 60
        E 0 90 63 60
        E 120 80 3e 00
        E 0 80 4b 00
        E 0 80 57 00
        E 0 80 63 00
        E 360 90 4c 60
        E 0 90 58 60
        E 0 90 64 60
        E 120 80 4c 00
        E 0 80 58 00
        E 0 80 64 00
        E 120 90 55 60
        E 0 90 61 60
        E 120 80 55 00
        E 0 80 61 00
        E 360 90 55 60
        E 0 90 61 60
        E 120 80 55 00
        E 0 80 61 00
        E 120 90 4a 60
        E 0 90 56 60
        E 0 90 62 60
        E 120 80 4a 00
        E 0 80 56 00
        E 0 80 62 00
        E 360 90 3e 60
        E 0 90 4b 60
        E 0 90 57 60
        E 0 90 63 60
        E 120 80 3e 00
        E 0 80 4b 00
        E 0 80 57 00
        E 0 80 63 00
        E 360 90 4a 60
        E 0 90 56 60
        E 0 90 62 60
        E 120 80 4a 00
        E 0 80 56 00
        E 0 80 62 00
        E 360 90 3c 60
        E 0 90 49 60
        E 0 90 55 60
        E 0 90 61 60
        E 0 90 74 60
        E 1440 80 3c 00
        E 0 80 49 00
        E 360 80 55 00
        E 0 80 61 00
        E 120 90 3d 60
        E 0 90 4a 60
        E 0 90 56 60
        E 0 90 62 60
        E 120 80 3d 00
        E 0 80 4a 00
        E 480 80 56 00
        E 0 80 62 00
        E 120 90 4b 60
        E 0 90 57 60
        E 0 90 63 60
        E 120 80 4b 00
        E 480 80 57 00
        E 0 80 63 00
        E 120 90 4c 60
        E 0 90 58 60
        E 0 90 64 60
        E 120 80 4c 00
        E 240 80 58 00
        E 0 80 64 00
        E 120 80 74 00
        E 0 90 3c 60
        E 0 90 49 60
        E 0 90 55 60
        E 0 90 61 60
        E 120 80 3c 00
        E 0 80 49 00
        E 0 80 55 00
        E 0 80 61 00
        E 360 90 4a 60
        E 0 90 56 60
        E 0 90 62 60
        E 120 80 4a 00
        E 0 80 56 00
        E 0 80 62 00
        E 360 90 3e 60
        E 0 90 4b 60
        E 0 90 57 60
        E 0 90 63 60
        E 120 80 3e 00
        E 0 80 4b 00
        E 0 80 57 00
        E 0 80 63 00
        E 360 90 4c 60
        E 0 90 58 60
        E 0 90 64 60
        E 120 80 4c 00
        E 0 80 58 00
        E 0 80 64 00
        E 120 90 55 60
        E 0 90 61 60
        E 120 80 55 00
        E 0 80 61 00
        E 360 90 55 60
        E 0 90 61 60
        E 120 80 55 00
        E 0 80 61 00
        E 120 90 4a 60
        E 0 90 56 60
        E 0 90 62 60
        E 120 80 4a 00
        E 0 80 56 00
        E 0 80 62 00
        E 360 90 3e 60
        E 0 90 4b 60
        E 0 90 57 60
        E 0 90 63 60
        E 120 80 3e 00
        E 0 80 4b 00
        E 0 80 57 00
        E 0 80 63 00
        E 360 90 49 60
        E 0 90 55 60
        E 0 90 61 60
        E 120 80 49 00
        E 0 80 55 00
        E 0 80 61 00
        E 360 90 3c 60
        E 0 90 49 60
        E 0 90 55 60
        E 0 90 61 60
        E 120 80 3c 00
        E 0 80 49 00
        E 0 80 55 00
        E 0 80 61 00
        E 360 90 4a 60
        E 0 90 56 60
        E 0 90 62 60
        E 120 80 4a 00
        E 0 80 56 00
        E 0 80 62 00
        E 360 90 3e 60
        E 0 90 4b 60
        E 0 90 57 60
        E 0 90 63 60
        E 120 80 3e 00
        E 0 80 4b 00
        E 0 80 57 00
        E 0 80 63 00
        E 360 90 4c 60
        E 0 90 58 60
        E 0 90 64 60
        E 120 80 4c 00
        E 0 80 58 00
        E 0 80 64 00
        E 120 90 54 60
        E 0 90 60 60
        E 120 80 54 00
        E 0 80 60 00
        E 360 90 54 60
        E 0 90 60 60
        E 120 80 54 00
        E 0 80 60 00
        E 120 90 49 60
        E 0 90 55 60
        E 0 90 61 60
        E 120 80 49 00
        E 0 80 55 00
        E 0 80 61 00
        E 120 90 54 60
        E 0 90 60 60
        E 120 80 54 00
        E 0 80 60 00
        E 120 90 3d 60
        E 0 90 4a 60
        E 0 90 56 60
        E 0 90 62 60
        E 120 80 3d 00
        E 0 80 4a 00
        E 0 80 56 00
        E 0 80 62 00
        E 120 90 55 60
        E 0 90 61 60
        E 120 80 55 00
        E 0 80 61 00
        E 120 90 4c 60
        E 0 90 58 60
        E 0 90 64 60
        E 120 80 4c 00
        E 0 80 58 00
        E 0 80 64 00
        E 120 90 57 60
        E 0 90 63 60
        E 120 80 57 00
        E 0 80 63 00
        E 120 90 40 60
        E 0 90 4c 60
        E 0 90 58 60
        E 0 90 64 60
        E 120 80 40 00
        E 0 80 4c 00
        E 480 80 58 00
        E 0 80 64 00
        E 120 90 4a 60
        E 0 90 56 60
        E 0 90 62 60
        E 120 80 4a 00
        E 480 80 56 00
        E 0 80 62 00
        E 120 90 3e 60
        E 0 90 4b 60
        E 0 90 57 60
        E 0 90 63 60
        E 120 80 3e 00
        E 0 80 4b 00
        E 480 80 57 00
        E 0 80 63 00
        E 120 90 4a 60
        E 0 90 56 60
        E 0 90 62 60
        E 120 80 4a 00
        E 480 80 56 00
        E 0 80 62 00
        E 120 90 3c 60
        E 0 90 49 60
        E 0 90 55 60
        E 0 90 61 60
        E 120 80 3c 00
        E 0 80 49 00
        E 240 80 55 00
        E 0 80 61 00
        E 120 90 48 60
        E 0 90 54 60
        E 0 90 60 60
        E 120 80 48 00
        E 0 80 54 00
        E 0 80 60 00
        E 120 90 55 60
        E 0 90 61 60
        E 120 80 55 00
        E 0 80 61 00
        E 120 90 3d 60
        E 0 90 4a 60
        E 0 90 56 60
        E 0 90 62 60
        E 1440 80 3d 00
        E 0 80 4a 00
        E 360 80 56 00
        E 0 80 62 00
        E 120 90 3d 60
        E 0 90 4a 60
        E 0 90 56 60
        E 0 90 62 60
        E 120 80 3d 00
        E 0 80 4a 00
        E 240 80 56 00
        E 0 80 62 00
        E 120 90 48 60
        E 0 90 54 60
        E 0 90 60 60
        E 120 80 48 00
        E 0 80 54 00
        E 0 80 60 00
        E 120 90 57 60
        E 0 90 63 60
        E 360 80 57 00
        E 0 80 63 00
        E 120 90 55 60
        E 0 90 61 60
        E 120 80 55 00
        E 0 80 61 00
        E 120 90 4b 60
        E 0 90 57 60
        E 0 90 63 60
        E 120 80 4b 00
        E 0 80 57 00
        E 0 80 63 00
        E 120 90 58 60
        E 0 90 64 60
        E 120 80 58 00
        E 0 80 64 00
        E 120 90 3c 60
        E 0 90 49 60
        E 0 90 55 60
        E 0 90 61 60
        E 3840 80 3c 00 -1
        E 0 80 49 00 -1
        E 0 80 55 00 -1
        E 0 80 61 00 -1
        <X 240 0
          /wFbaWRsZV9yZWFsdGltZV0=
        >
        E 11280 b0 7b 00
        GUID {A43E6B29-7DC6-43C4-9BF3-FAA84048464C}
        IGNTEMPO 0 120.00000000 4 4
        SRCCOLOR 10
        VELLANE 132 71 60
        COLORMAP "C:\Program Files (x86)\REAPER\Data\color_maps\rockband_guitarbass.png"
        CFGEDITVIEW -3815.226693 18.845291 0 12 0 0 0
        CFGEDIT 1 1 0 1 1 0 1 1 1 1 1 0.25000000 -4 0 1025 558 0 2 1 2 0.00000000 0 1 1 0 0.500000 0 0 1.000000 64
        KEYSNAP 0 0 "102034050607" 0 "Major"
        EVTFILTER 0 -1 -1 -1 -1 0 1 0 0 -1.00000000 -1.00000000
      >
    >
  >
  <TRACK '{B3659A60-A41A-41EB-B4FF-432C87568AC0}'
    NAME "PART REAL_KEYS_X"
    PEAKCOL 16576
    BEAT -1
    AUTOMODE 0
    VOLPAN 1.00000000000000 0.00000000000000 -1.00000000000000 -1.00000000000000 1.00000000000000
    MUTESOLO 0 0 0
    IPHASE 0
    ISBUS 0 0
    BUSCOMP 0 0
    SHOWINMIX 1 0.666700 0.500000 1 0.500000 -1 -1 -1
    FREEMODE 0
    SEL 0
    REC 0 0 0 0 0 0 0
    VU 2
    TRACKHEIGHT 0 0
    INQ 0 0 0 0.5000000000 100 0 0 100
    NCHAN 2
    FX 0
    TRACKID {B3659A60-A41A-41EB-B4FF-432C87568AC0}
    PERF 0
    MIDIOUT -1
    <MIDINOTENAMES
      0 127 "Trill Marker"
      0 126 "Glissando Marker"
      0 125 "---"
      0 120 "BRE"
      0 116 "OVERDRIVE"
      0 115 "Solo Marker"
      0 114 "---"
      0 72 "C4"
      0 71 "B3"
      0 70 "A#3"
      0 69 "A3"
      0 68 "G#3"
      0 67 "G3"
      0 66 "F#3"
      0 65 "F3"
      0 64 "E3"
      0 63 "D#3"
      0 62 "D3"
      0 61 "C#3"
      0 60 "C3"
      0 59 "B2"
      0 58 "A#2"
      0 57 "A2"
      0 56 "G#2"
      0 55 "G2"
      0 54 "F#2"
      0 53 "F2"
      0 52 "E2"
      0 51 "D#2"
      0 50 "D2"
      0 49 "C#2"
      0 48 "C2"
      0 10 "---"
      0 9 "Range A2-C4"
      0 7 "G2-B3"
      0 5 "Range F2-A3"
      0 4 "E2-G3"
      0 2 "D2-F3"
      0 0 "Range C2-E3"
    >
    MAINSEND 1 0
    <FXCHAIN
      WNDRECT 0 38 647 451
      SHOW 0
      LASTSEL 1
      DOCKED 0
      BYPASS 0 0
      <JS "MIDI/midi_note_filter" ""
        48.000000 72.000000 - - - - - - - - - - - - - - - - - - - - - - - - - - - - - - - - - - - - - - - - - - - - - - - - - - - - - - - - - - - - - - 
      >
      FLOATPOS 0 0 0 0
      FXID {BDB45128-3AFE-4E49-9A33-6CBCCBF22C40}
      WAK 0
      BYPASS 0 0
      <VST "VSTi: ReaSynth (Cockos)" "reasynth.dll" 0 ""
        eXNlcu9e7f4AAAAAAgAAAAEAAAAAAAAAAgAAAAAAAAA4AAAAAAAAAA==
        AAAQAO++rd4N8K3eppvEO1Mpoj0AAIA/AAAAAAAAAAAJ64Y+nOG/Ow==
        AAAAAAAAAD8AAAAAAACAPwAAAD8AABAAAAA=
      >
      FLOATPOS 0 0 0 0
      FXID {52224EBE-A6D7-4B5D-B012-564D4E46FBD4}
      WAK 0
    >
    <ITEM
      POSITION 0.00000000000000
      SNAPOFFS 0.00000000000000
      LENGTH 85.23950400000001
      LOOP 0
      ALLTAKES 0
      SEL 0
      FADEIN 1 0.000000 0.000000 1 0
      FADEOUT 1 0.000000 0.000000 1 0
      MUTE 0
      IGUID {3D49302B-5D7B-4C2E-835D-BDE86D5F49C5}
      IID 12
      NAME "PART REAL_KEYS_X"
      VOLPAN 1.000000 0.000000 1.000000 -1.000000
      SOFFS 0.00000000000000 0.00000000000000
      PLAYRATE 1.00000000000000 1 0.00000000000000 -1
      CHANMODE 0
      GUID {E6FC3E02-B17F-4BC6-A4A7-45DEF10549D1}
      <SOURCE MIDI
        HASDATA 1 480 QN
        POOLEDEVTS {72509FF2-09E6-4EFA-AB35-A0349232B7D7}
        <X 0 0
          /wNQQVJUIFJFQUxfS0VZU19Y
        >
        E 0 90 09 60
        E 120 80 09 00
        <X 3720 0
          /wFbYmVnaW5fa2V5IHNvbmdfdHJhaW5lcl9rZXlfMV0=
        >
        E 0 90 40 60
        E 120 80 40 00
        E 0 90 44 60
        E 120 80 44 00
        E 0 90 47 60
        E 120 80 47 00
        E 0 90 40 60
        E 120 80 40 00
        E 0 90 44 60
        E 120 80 44 00
        E 0 90 47 60
        E 120 80 47 00
        E 0 90 40 60
        E 120 80 40 00
        E 0 90 44 60
        E 120 80 44 00
        E 0 90 47 60
        E 120 80 47 00
        E 0 90 40 60
        E 120 80 40 00
        E 0 90 44 60
        E 120 80 44 00
        E 0 90 47 60
        E 120 80 47 00
        E 0 90 40 60
        E 120 80 40 00
        E 0 90 44 60
        E 120 80 44 00
        E 0 90 47 60
        E 120 80 47 00
        E 0 90 40 60
        E 120 80 40 00
        E 0 90 40 60
        E 120 80 40 00
        E 0 90 44 60
        E 120 80 44 00
        E 0 90 47 60
        E 120 80 47 00
        E 0 90 40 60
        E 120 80 40 00
        E 0 90 44 60
        E 120 80 44 00
        E 0 90 47 60
        E 120 80 47 00
        E 0 90 40 60
        E 120 80 40 00
        E 0 90 44 60
        E 120 80 44 00
        E 0 90 47 60
        E 120 80 47 00
        E 0 90 40 60
        E 120 80 40 00
        E 0 90 44 60
        E 120 80 44 00
        E 0 90 47 60
        E 120 80 47 00
        E 0 90 40 60
        E 120 80 40 00
        E 0 90 44 60
        E 120 80 44 00
        E 0 90 47 60
        E 120 80 47 00
        E 0 90 40 60
        <X 120 0
          /wFba2V5X25vcm0gc29uZ190cmFpbmVyX2tleV8xXQ==
        >
        E 0 80 40 00
        E 0 90 3d 60
        E 120 80 3d 00
        E 0 90 40 60
        E 120 80 40 00
        E 0 90 44 60
        E 120 80 44 00
        E 0 90 3d 60
        E 120 80 3d 00
        E 0 90 40 60
        E 120 80 40 00
        E 0 90 44 60
        E 120 80 44 00
        E 0 90 3d 60
        E 120 80 3d 00
        E 0 90 40 60
        E 120 80 40 00
        E 0 90 44 60
        E 120 80 44 00
        E 0 90 3d 60
        E 120 80 3d 00
        E 0 90 40 60
        E 120 80 40 00
        E 0 90 44 60
        E 120 80 44 00
        E 0 90 3d 60
        E 120 80 3d 00
        E 0 90 40 60
        E 120 80 40 00
        E 0 90 44 60
        E 120 80 44 00
        E 0 90 3d 60
        E 120 80 3d 00
        E 0 90 3d 60
        E 120 80 3d 00
        E 0 90 40 60
        E 120 80 40 00
        E 0 90 44 60
        E 120 80 44 00
        E 0 90 3d 60
        E 120 80 3d 00
        E 0 90 40 60
        E 120 80 40 00
        E 0 90 44 60
        E 120 80 44 00
        E 0 90 3d 60
        E 120 80 3d 00
        E 0 90 40 60
        E 120 80 40 00
        E 0 90 44 60
        E 120 80 44 00
        E 0 90 3d 60
        E 120 80 3d 00
        E 0 90 40 60
        E 120 80 40 00
        E 0 90 44 60
        E 120 80 44 00
        E 0 90 3d 60
        E 120 80 3d 00
        E 0 90 40 60
        E 120 80 40 00
        E 0 90 44 60
        E 120 80 44 00
        E 0 90 3d 60
        E 120 80 3d 00
        E 0 90 39 60
        E 0 90 74 60
        E 120 80 39 00
        E 0 90 3d 60
        E 120 80 3d 00
        E 0 90 40 60
        E 120 80 40 00
        E 0 90 39 60
        E 120 80 39 00
        E 0 90 3d 60
        E 120 80 3d 00
        E 0 90 40 60
        E 120 80 40 00
        E 0 90 39 60
        E 120 80 39 00
        E 0 90 3d 60
        E 120 80 3d 00
        E 0 90 40 60
        E 120 80 40 00
        E 0 90 39 60
        E 120 80 39 00
        E 0 90 3d 60
        E 120 80 3d 00
        E 0 90 40 60
        E 120 80 40 00
        E 0 90 39 60
        E 120 80 39 00
        E 0 90 3d 60
        E 120 80 3d 00
        E 0 90 40 60
        E 120 80 40 00
        E 0 90 39 60
        E 120 80 39 00
        E 0 90 3b 60
        E 120 80 3b 00
        E 0 90 3f 60
        E 120 80 3f 00
        E 0 90 42 60
        E 120 80 42 00
        E 0 90 3b 60
        E 120 80 3b 00
        E 0 90 3f 60
        E 120 80 3f 00
        E 0 90 42 60
        E 120 80 42 00
        E 0 90 3b 60
        E 120 80 3b 00
        E 0 90 3f 60
        E 120 80 3f 00
        E 0 90 42 60
        E 120 80 42 00
        E 0 90 3b 60
        E 120 80 3b 00
        E 0 90 3f 60
        E 120 80 3f 00
        E 0 90 42 60
        E 120 80 42 00
        E 0 90 3b 60
        E 120 80 3b 00
        E 0 90 3f 60
        E 120 80 3f 00
        E 0 90 42 60
        E 120 80 42 00
        E 0 90 3b 60
        E 120 80 74 00
        E 0 80 3b 00
        E 0 90 40 60
        E 120 80 40 00
        E 0 90 44 60
        E 120 80 44 00
        E 0 90 47 60
        E 120 80 47 00
        E 0 90 40 60
        E 120 80 40 00
        E 0 90 44 60
        E 120 80 44 00
        E 0 90 47 60
        E 120 80 47 00
        E 0 90 40 60
        E 120 80 40 00
        E 0 90 44 60
        E 120 80 44 00
        E 0 90 47 60
        E 120 80 47 00
        E 0 90 40 60
        E 120 80 40 00
        E 0 90 44 60
        E 120 80 44 00
        E 0 90 47 60
        E 120 80 47 00
        E 0 90 40 60
        E 120 80 40 00
        E 0 90 44 60
        E 120 80 44 00
        E 0 90 47 60
        E 120 80 47 00
        E 0 90 40 60
        E 120 80 40 00
        E 0 90 3f 60
        E 120 80 3f 00
        E 0 90 44 60
        E 120 80 44 00
        E 0 90 47 60
        E 120 80 47 00
        E 0 90 40 60
        E 120 80 40 00
        E 0 90 44 60
        E 120 80 44 00
        E 0 90 47 60
        E 120 80 47 00
        E 0 90 3f 60
        E 120 80 3f 00
        E 0 90 44 60
        E 120 80 44 00
        E 0 90 47 60
        E 120 80 47 00
        E 0 90 40 60
        E 120 80 40 00
        E 0 90 44 60
        E 120 80 44 00
        E 0 90 47 60
        E 120 80 47 00
        E 0 90 3f 60
        E 120 80 3f 00
        E 0 90 44 60
        E 120 80 44 00
        E 0 90 47 60
        E 120 80 47 00
        E 0 90 40 60
        <X 120 0
          /wFbZW5kX2tleSBzb25nX3RyYWluZXJfa2V5XzFd
        >
        E 0 80 40 00
        E 0 90 40 60
        E 120 80 40 00
        E 0 90 44 60
        E 120 80 44 00
        E 0 90 47 60
        E 120 80 47 00
        E 0 90 40 60
        E 120 80 40 00
        E 0 90 44 60
        E 120 80 44 00
        E 0 90 47 60
        E 120 80 47 00
        E 0 90 40 60
        E 120 80 40 00
        E 0 90 44 60
        E 120 80 44 00
        E 0 90 47 60
        E 120 80 47 00
        E 0 90 40 60
        E 120 80 40 00
        E 0 90 44 60
        E 120 80 44 00
        E 0 90 47 60
        E 120 80 47 00
        E 0 90 40 60
        E 120 80 40 00
        E 0 90 44 60
        E 120 80 44 00
        E 0 90 47 60
        E 120 80 47 00
        E 0 90 40 60
        E 120 80 40 00
        E 0 90 40 60
        E 120 80 40 00
        E 0 90 44 60
        E 120 80 44 00
        E 0 90 47 60
        E 120 80 47 00
        E 0 90 40 60
        E 120 80 40 00
        E 0 90 44 60
        E 120 80 44 00
        E 0 90 47 60
        E 120 80 47 00
        E 0 90 40 60
        E 120 80 40 00
        E 0 90 44 60
        E 120 80 44 00
        E 0 90 47 60
        E 120 80 47 00
        E 0 90 40 60
        E 120 80 40 00
        E 0 90 44 60
        E 120 80 44 00
        E 0 90 47 60
        E 120 80 47 00
        E 0 90 40 60
        E 120 80 40 00
        E 0 90 44 60
        E 120 80 44 00
        E 0 90 47 60
        E 120 80 47 00
        E 0 90 40 60
        E 120 80 40 00
        E 0 90 3d 60
        E 120 80 3d 00
        E 0 90 40 60
        E 120 80 40 00
        E 0 90 44 60
        E 120 80 44 00
        E 0 90 3d 60
        E 120 80 3d 00
        E 0 90 40 60
        E 120 80 40 00
        E 0 90 44 60
        E 120 80 44 00
        E 0 90 3d 60
        E 120 80 3d 00
        E 0 90 40 60
        E 120 80 40 00
        E 0 90 44 60
        E 120 80 44 00
        E 0 90 3d 60
        E 120 80 3d 00
        E 0 90 40 60
        E 120 80 40 00
        E 0 90 44 60
        E 120 80 44 00
        E 0 90 3d 60
        E 120 80 3d 00
        E 0 90 40 60
        E 120 80 40 00
        E 0 90 44 60
        E 120 80 44 00
        E 0 90 3d 60
        E 120 80 3d 00
        E 0 90 3d 60
        E 120 80 3d 00
        E 0 90 40 60
        E 120 80 40 00
        E 0 90 44 60
        E 120 80 44 00
        E 0 90 3d 60
        E 120 80 3d 00
        E 0 90 40 60
        E 120 80 40 00
        E 0 90 44 60
        E 120 80 44 00
        E 0 90 3d 60
        E 120 80 3d 00
        E 0 90 40 60
        E 120 80 40 00
        E 0 90 44 60
        E 120 80 44 00
        E 0 90 3d 60
        E 120 80 3d 00
        E 0 90 40 60
        E 120 80 40 00
        E 0 90 44 60
        E 120 80 44 00
        E 0 90 3d 60
        E 120 80 3d 00
        E 0 90 40 60
        E 120 80 40 00
        E 0 90 44 60
        E 120 80 44 00
        E 0 90 3d 60
        E 120 80 3d 00
        E 0 90 39 60
        E 120 80 39 00
        E 0 90 3d 60
        E 120 80 3d 00
        E 0 90 40 60
        E 120 80 40 00
        E 0 90 39 60
        E 120 80 39 00
        E 0 90 3d 60
        E 120 80 3d 00
        E 0 90 40 60
        E 120 80 40 00
        E 0 90 39 60
        E 120 80 39 00
        E 0 90 3d 60
        E 120 80 3d 00
        E 0 90 40 60
        E 120 80 40 00
        E 0 90 39 60
        E 120 80 39 00
        E 0 90 3d 60
        E 120 80 3d 00
        E 0 90 40 60
        E 120 80 40 00
        E 0 90 39 60
        E 120 80 39 00
        E 0 90 3d 60
        E 120 80 3d 00
        E 0 90 40 60
        E 120 80 40 00
        E 0 90 39 60
        E 120 80 39 00
        E 0 90 3b 60
        E 0 90 74 60
        E 120 80 3b 00
        E 0 90 3f 60
        E 120 80 3f 00
        E 0 90 42 60
        E 120 80 42 00
        E 0 90 3b 60
        E 120 80 3b 00
        E 0 90 3f 60
        E 120 80 3f 00
        E 0 90 42 60
        E 120 80 42 00
        E 0 90 3b 60
        E 120 80 3b 00
        E 0 90 3f 60
        E 120 80 3f 00
        E 0 90 42 60
        E 120 80 42 00
        E 0 90 3b 60
        E 120 80 3b 00
        E 0 90 3f 60
        E 120 80 3f 00
        E 0 90 42 60
        E 120 80 42 00
        E 0 90 3b 60
        E 120 80 3b 00
        E 0 90 3f 60
        E 120 80 3f 00
        E 0 90 42 60
        E 120 80 42 00
        E 0 90 3b 60
        E 120 80 74 00
        E 0 80 3b 00
        E 0 90 40 60
        E 120 80 40 00
        E 0 90 44 60
        E 120 80 44 00
        E 0 90 47 60
        E 120 80 47 00
        E 0 90 40 60
        E 120 80 40 00
        E 0 90 44 60
        E 120 80 44 00
        E 0 90 47 60
        E 120 80 47 00
        E 0 90 40 60
        E 120 80 40 00
        E 0 90 44 60
        E 120 80 44 00
        E 0 90 47 60
        E 120 80 47 00
        E 0 90 40 60
        E 120 80 40 00
        E 0 90 44 60
        E 120 80 44 00
        E 0 90 47 60
        E 120 80 47 00
        E 0 90 40 60
        E 120 80 40 00
        E 0 90 44 60
        E 120 80 44 00
        E 0 90 47 60
        E 120 80 47 00
        E 0 90 40 60
        E 120 80 40 00
        E 0 90 3f 60
        E 120 80 3f 00
        E 0 90 44 60
        E 120 80 44 00
        E 0 90 47 60
        E 120 80 47 00
        E 0 90 40 60
        E 120 80 40 00
        E 0 90 44 60
        E 120 80 44 00
        E 0 90 47 60
        E 120 80 47 00
        E 0 90 3f 60
        E 120 80 3f 00
        E 0 90 44 60
        E 120 80 44 00
        E 0 90 47 60
        E 120 80 47 00
        E 0 90 40 60
        E 120 80 40 00
        E 0 90 44 60
        E 120 80 44 00
        E 0 90 47 60
        E 120 80 47 00
        E 0 90 3f 60
        E 120 80 3f 00
        E 0 90 44 60
        E 120 80 44 00
        E 0 90 47 60
        E 120 80 47 00
        E 0 90 40 60
        <X 120 0
          /wFbYmVnaW5fa2V5IHNvbmdfdHJhaW5lcl9rZXlfMl0=
        >
        E 0 80 40 00
        E 0 90 40 60
        E 120 80 40 00
        E 360 90 42 60
        E 120 80 42 00
        E 360 90 44 60
        E 120 80 44 00
        E 360 90 47 60
        E 120 80 47 00
        E 120 90 40 60
        E 120 80 40 00
        E 360 90 40 60
        E 120 80 40 00
        E 120 90 42 60
        E 120 80 42 00
        E 360 90 44 60
        E 120 80 44 00
        E 360 90 40 60
        E 120 80 40 00
        E 360 90 3d 60
        E 360 80 3d 00
        E 120 90 3b 60
        E 120 80 3b 00
        E 120 90 3d 60
        E 360 80 3d 00
        E 120 90 3b 60
        E 120 80 3b 00
        E 120 90 40 60
        E 120 80 40 00
        E 120 90 42 60
        E 120 80 42 00
        E 120 90 3d 60
        E 360 80 3d 00
        E 120 90 3b 60
        E 120 80 3b 00
        E 120 90 3d 60
        E 360 80 3d 00
        E 120 90 3b 60
        E 120 80 3b 00
        E 120 90 42 60
        E 120 80 42 00
        E 120 90 44 60
        E 120 80 44 00
        E 120 90 40 60
        E 120 80 40 00
        E 360 90 42 60
        E 120 80 42 00
        E 360 90 44 60
        E 120 80 44 00
        E 360 90 47 60
        E 120 80 47 00
        E 120 90 40 60
        E 120 80 40 00
        E 360 90 40 60
        E 120 80 40 00
        E 120 90 42 60
        E 120 80 42 00
        E 360 90 44 60
        E 120 80 44 00
        E 360 90 40 60
        E 120 80 40 00
        E 360 90 42 60
        E 0 90 74 60
        E 1800 80 42 00
        E 120 90 44 60
        E 600 80 44 00
        E 120 90 45 60
        E 600 80 45 00
        <X 120 0
          /wFbYmVnaW5fa2V5IHNvbmdfdHJhaW5lcl9rZXlfM10=
        >
        <X 0 0
          /wFbZW5kX2tleSBzb25nX3RyYWluZXJfa2V5XzJd
        >
        E 0 90 47 60
        E 360 80 47 00
        E 120 80 74 00
        E 0 90 40 60
        E 120 80 40 00
        E 360 90 42 60
        E 120 80 42 00
        E 360 90 44 60
        E 120 80 44 00
        E 360 90 47 60
        E 120 80 47 00
        E 120 90 40 60
        E 120 80 40 00
        E 360 90 40 60
        E 120 80 40 00
        E 120 90 42 60
        E 120 80 42 00
        E 360 90 44 60
        E 120 80 44 00
        E 360 90 40 60
        E 120 80 40 00
        E 360 90 40 60
        E 120 80 40 00
        E 360 90 42 60
        E 120 80 42 00
        E 360 90 44 60
        E 120 80 44 00
        E 360 90 47 60
        E 120 80 47 00
        E 120 90 3d 60
        E 120 80 3d 00
        E 360 90 3b 60
        E 120 80 3b 00
        E 120 90 3d 60
        E 120 80 3d 00
        E 120 90 3b 60
        E 120 80 3b 00
        E 120 90 42 60
        E 120 80 42 00
        E 120 90 40 60
        E 120 80 40 00
        E 120 90 07 60
        E 0 90 3d 60
        E 120 80 07 00
        E 0 80 3d 00
        E 120 90 3b 60
        E 120 80 3b 00
        E 120 90 3d 60
        E 600 80 3d 00
        E 120 90 40 60
        E 600 80 40 00
        E 120 90 42 60
        E 600 80 42 00
        E 120 90 40 60
        E 600 80 40 00
        E 120 90 40 60
        E 360 80 40 00
        E 120 90 3d 60
        E 120 80 3d 00
        E 120 90 40 60
        E 120 80 40 00
        E 120 90 42 60
        E 1800 80 42 00
        E 120 90 44 60
        E 360 80 44 00
        E 120 90 38 60
        E 120 80 38 00
        E 120 90 45 60
        E 360 80 45 00
        E 120 90 39 60
        E 120 80 39 00
        E 120 90 45 60
        E 120 80 45 00
        E 120 90 47 60
        E 120 80 47 00
        E 120 90 40 60
        E 3839 80 40 00
        <X 1 0
          /wFbZW5kX2tleSBzb25nX3RyYWluZXJfa2V5XzNd
        >
        E 11520 b0 7b 00
        GUID {9A6E3102-8F6F-4600-99A4-BF6090A7FD5F}
        IGNTEMPO 0 120.00000000 4 4
        SRCCOLOR 11
        VELLANE 132 71 60
        COLORMAP "C:\Program Files (x86)\REAPER\Data\color_maps\rockband_vox-other.png"
        TEXTSTRINGFILE "C:\Program Files\REAPER\Data\Text_Strings\Text Events List - Pro Trainers.txt"
        CFGEDITVIEW 51233.998869 73.971137 0 21 0 0 0
        CFGEDIT 1 1 0 1 1 0 1 1 1 1 1 0.25000000 -4 0 1025 558 0 2 1 2 0.00000000 0 1 1 0 0.500000 0 0 1.000000 64
        KEYSNAP 0 0 "102034050607" 0 "Major"
        EVTFILTER 0 -1 -1 -1 -1 0 1 0 0 -1.00000000 -1.00000000
      >
    >
  >
  <TRACK '{7E916504-DD2E-4653-A3D6-A67A2B415ECF}'
    NAME "PART REAL_KEYS_H"
    PEAKCOL 16576
    BEAT -1
    AUTOMODE 0
    VOLPAN 1.00000000000000 0.00000000000000 -1.00000000000000 -1.00000000000000 1.00000000000000
    MUTESOLO 0 0 0
    IPHASE 0
    ISBUS 0 0
    BUSCOMP 0 0
    SHOWINMIX 1 0.666700 0.500000 1 0.500000 -1 -1 -1
    FREEMODE 0
    SEL 0
    REC 0 0 0 0 0 0 0
    VU 2
    TRACKHEIGHT 0 0
    INQ 0 0 0 0.5000000000 100 0 0 100
    NCHAN 2
    FX 1
    TRACKID {7E916504-DD2E-4653-A3D6-A67A2B415ECF}
    PERF 0
    MIDIOUT -1
    <MIDINOTENAMES
      0 72 "C4"
      0 71 "B3"
      0 70 "A#3"
      0 69 "A3"
      0 68 "G#3"
      0 67 "G3"
      0 66 "F#3"
      0 65 "F3"
      0 64 "E3"
      0 63 "D#3"
      0 62 "D3"
      0 61 "C#3"
      0 60 "C3"
      0 59 "B2"
      0 58 "A#2"
      0 57 "A2"
      0 56 "G#2"
      0 55 "G2"
      0 54 "F#2"
      0 53 "F2"
      0 52 "E2"
      0 51 "D#2"
      0 50 "D2"
      0 49 "C#2"
      0 48 "C2"
      0 10 "---"
      0 9 "Range A2-C4"
      0 7 "G2-B3"
      0 5 "Range F2-A3"
      0 4 "E2-G3"
      0 2 "D2-F3"
      0 0 "Range C2-E3"
    >
    MAINSEND 1 0
    <FXCHAIN
      SHOW 0
      LASTSEL 0
      DOCKED 0
    >
    <ITEM
      POSITION 0.00000000000000
      SNAPOFFS 0.00000000000000
      LENGTH 85.23950400000001
      LOOP 0
      ALLTAKES 0
      SEL 0
      FADEIN 1 0.000000 0.000000 1 0
      FADEOUT 1 0.000000 0.000000 1 0
      MUTE 0
      IGUID {B1A4CBFD-FE82-497E-913F-15B59482B880}
      IID 13
      NAME "PART REAL_KEYS_H"
      VOLPAN 1.000000 0.000000 1.000000 -1.000000
      SOFFS 0.00000000000000 0.00000000000000
      PLAYRATE 1.00000000000000 1 0.00000000000000 -1
      CHANMODE 0
      GUID {8BC850B1-9A51-46AA-9C31-A9A7AE73481A}
      <SOURCE MIDI
        HASDATA 1 480 QN
        POOLEDEVTS {1EDAB47D-A70E-4BF2-9089-16DB17C6EDA4}
        <X 0 0
          /wNQQVJUIFJFQUxfS0VZU19I
        >
        E 0 90 09 60
        E 120 80 09 00
        E 3720 90 40 60
        E 120 80 40 00
        E 120 90 47 60
        E 120 80 47 00
        E 120 90 44 60
        E 120 80 44 00
        E 120 90 40 60
        E 120 80 40 00
        E 120 90 47 60
        E 120 80 47 00
        E 120 90 44 60
        E 120 80 44 00
        E 120 90 40 60
        E 120 80 40 00
        E 120 90 47 60
        E 120 80 47 00
        E 120 90 40 60
        E 120 80 40 00
        E 120 90 47 60
        E 120 80 47 00
        E 120 90 44 60
        E 120 80 44 00
        E 120 90 40 60
        E 120 80 40 00
        E 120 90 47 60
        E 120 80 47 00
        E 120 90 44 60
        E 120 80 44 00
        E 120 90 40 60
        E 120 80 40 00
        E 120 90 47 60
        E 120 80 47 00
        E 120 90 3d 60
        E 120 80 3d 00
        E 120 90 44 60
        E 120 80 44 00
        E 120 90 40 60
        E 120 80 40 00
        E 120 90 3d 60
        E 120 80 3d 00
        E 120 90 44 60
        E 120 80 44 00
        E 120 90 40 60
        E 120 80 40 00
        E 120 90 3d 60
        E 120 80 3d 00
        E 120 90 44 60
        E 120 80 44 00
        E 120 90 3d 60
        E 120 80 3d 00
        E 120 90 44 60
        E 120 80 44 00
        E 120 90 40 60
        E 120 80 40 00
        E 120 90 3d 60
        E 120 80 3d 00
        E 120 90 44 60
        E 120 80 44 00
        E 120 90 40 60
        E 120 80 40 00
        E 120 90 3d 60
        E 120 80 3d 00
        E 120 90 44 60
        E 120 80 44 00
        E 120 90 39 60
        E 120 80 39 00
        E 120 90 40 60
        E 120 80 40 00
        E 120 90 3d 60
        E 120 80 3d 00
        E 120 90 39 60
        E 120 80 39 00
        E 120 90 40 60
        E 120 80 40 00
        E 120 90 3d 60
        E 120 80 3d 00
        E 120 90 39 60
        E 120 80 39 00
        E 120 90 40 60
        E 120 80 40 00
        E 120 90 3b 60
        E 120 80 3b 00
        E 120 90 42 60
        E 120 80 42 00
        E 120 90 3f 60
        E 120 80 3f 00
        E 120 90 3b 60
        E 120 80 3b 00
        E 120 90 42 60
        E 120 80 42 00
        E 120 90 3f 60
        E 120 80 3f 00
        E 120 90 3b 60
        E 120 80 3b 00
        E 120 90 42 60
        E 120 80 42 00
        E 120 90 40 60
        E 120 80 40 00
        E 120 90 47 60
        E 120 80 47 00
        E 120 90 44 60
        E 120 80 44 00
        E 120 90 40 60
        E 120 80 40 00
        E 120 90 47 60
        E 120 80 47 00
        E 120 90 44 60
        E 120 80 44 00
        E 120 90 40 60
        E 120 80 40 00
        E 120 90 47 60
        E 120 80 47 00
        E 120 90 3f 60
        E 120 80 3f 00
        E 120 90 47 60
        E 120 80 47 00
        E 120 90 44 60
        E 120 80 44 00
        E 120 90 3f 60
        E 120 80 3f 00
        E 120 90 47 60
        E 120 80 47 00
        E 120 90 44 60
        E 120 80 44 00
        E 120 90 3f 60
        E 120 80 3f 00
        E 120 90 47 60
        E 120 80 47 00
        E 120 90 40 60
        E 120 80 40 00
        E 120 90 47 60
        E 120 80 47 00
        E 120 90 44 60
        E 120 80 44 00
        E 120 90 40 60
        E 120 80 40 00
        E 120 90 47 60
        E 120 80 47 00
        E 120 90 44 60
        E 120 80 44 00
        E 120 90 40 60
        E 120 80 40 00
        E 120 90 47 60
        E 120 80 47 00
        E 120 90 40 60
        E 120 80 40 00
        E 120 90 47 60
        E 120 80 47 00
        E 120 90 44 60
        E 120 80 44 00
        E 120 90 40 60
        E 120 80 40 00
        E 120 90 47 60
        E 120 80 47 00
        E 120 90 44 60
        E 120 80 44 00
        E 120 90 40 60
        E 120 80 40 00
        E 120 90 47 60
        E 120 80 47 00
        E 120 90 3d 60
        E 120 80 3d 00
        E 120 90 44 60
        E 120 80 44 00
        E 120 90 40 60
        E 120 80 40 00
        E 120 90 3d 60
        E 120 80 3d 00
        E 120 90 44 60
        E 120 80 44 00
        E 120 90 40 60
        E 120 80 40 00
        E 120 90 3d 60
        E 120 80 3d 00
        E 120 90 44 60
        E 120 80 44 00
        E 120 90 3d 60
        E 120 80 3d 00
        E 120 90 44 60
        E 120 80 44 00
        E 120 90 40 60
        E 120 80 40 00
        E 120 90 3d 60
        E 120 80 3d 00
        E 120 90 44 60
        E 120 80 44 00
        E 120 90 40 60
        E 120 80 40 00
        E 120 90 3d 60
        E 120 80 3d 00
        E 120 90 44 60
        E 120 80 44 00
        E 120 90 39 60
        E 120 80 39 00
        E 120 90 40 60
        E 120 80 40 00
        E 120 90 3d 60
        E 120 80 3d 00
        E 120 90 39 60
        E 120 80 39 00
        E 120 90 40 60
        E 120 80 40 00
        E 120 90 3d 60
        E 120 80 3d 00
        E 120 90 39 60
        E 120 80 39 00
        E 120 90 40 60
        E 120 80 40 00
        E 120 90 3b 60
        E 120 80 3b 00
        E 120 90 42 60
        E 120 80 42 00
        E 120 90 3f 60
        E 120 80 3f 00
        E 120 90 3b 60
        E 120 80 3b 00
        E 120 90 42 60
        E 120 80 42 00
        E 120 90 3f 60
        E 120 80 3f 00
        E 120 90 3b 60
        E 120 80 3b 00
        E 120 90 42 60
        E 120 80 42 00
        E 120 90 40 60
        E 120 80 40 00
        E 120 90 47 60
        E 120 80 47 00
        E 120 90 44 60
        E 120 80 44 00
        E 120 90 40 60
        E 120 80 40 00
        E 120 90 47 60
        E 120 80 47 00
        E 120 90 44 60
        E 120 80 44 00
        E 120 90 40 60
        E 120 80 40 00
        E 120 90 47 60
        E 120 80 47 00
        E 120 90 3f 60
        E 120 80 3f 00
        E 120 90 47 60
        E 120 80 47 00
        E 120 90 44 60
        E 120 80 44 00
        E 120 90 3f 60
        E 120 80 3f 00
        E 120 90 47 60
        E 120 80 47 00
        E 120 90 44 60
        E 120 80 44 00
        E 120 90 3f 60
        E 120 80 3f 00
        E 120 90 47 60
        E 120 80 47 00
        E 120 90 40 60
        E 120 80 40 00
        E 360 90 42 60
        E 120 80 42 00
        E 360 90 44 60
        E 120 80 44 00
        E 360 90 47 60
        E 120 80 47 00
        E 120 90 40 60
        E 120 80 40 00
        E 360 90 40 60
        E 120 80 40 00
        E 120 90 42 60
        E 120 80 42 00
        E 360 90 44 60
        E 120 80 44 00
        E 360 90 40 60
        E 120 80 40 00
        E 360 90 3d 60
        E 360 80 3d 00
        E 120 90 3b 60
        E 120 80 3b 00
        E 120 90 3d 60
        E 360 80 3d 00
        E 120 90 3b 60
        E 120 80 3b 00
        E 120 90 40 60
        E 120 80 40 00
        E 120 90 42 60
        E 120 80 42 00
        E 120 90 3d 60
        E 360 80 3d 00
        E 120 90 3b 60
        E 120 80 3b 00
        E 120 90 3d 60
        E 360 80 3d 00
        E 120 90 3b 60
        E 120 80 3b 00
        E 120 90 42 60
        E 120 80 42 00
        E 120 90 44 60
        E 120 80 44 00
        E 120 90 40 60
        E 120 80 40 00
        E 360 90 42 60
        E 120 80 42 00
        E 360 90 44 60
        E 120 80 44 00
        E 360 90 47 60
        E 120 80 47 00
        E 120 90 40 60
        E 120 80 40 00
        E 360 90 40 60
        E 120 80 40 00
        E 120 90 42 60
        E 120 80 42 00
        E 360 90 44 60
        E 120 80 44 00
        E 360 90 40 60
        E 120 80 40 00
        E 360 90 42 60
        E 1800 80 42 00
        E 120 90 44 60
        E 600 80 44 00
        E 120 90 45 60
        E 600 80 45 00
        E 120 90 47 60
        E 360 80 47 00
        E 120 90 40 60
        E 120 80 40 00
        E 360 90 42 60
        E 120 80 42 00
        E 360 90 44 60
        E 120 80 44 00
        E 360 90 47 60
        E 120 80 47 00
        E 120 90 40 60
        E 120 80 40 00
        E 360 90 40 60
        E 120 80 40 00
        E 120 90 42 60
        E 120 80 42 00
        E 360 90 44 60
        E 120 80 44 00
        E 360 90 40 60
        E 120 80 40 00
        E 360 90 40 60
        E 120 80 40 00
        E 360 90 42 60
        E 120 80 42 00
        E 360 90 44 60
        E 120 80 44 00
        E 360 90 47 60
        E 120 80 47 00
        E 120 90 3d 60
        E 120 80 3d 00
        E 360 90 3b 60
        E 120 80 3b 00
        E 120 90 3d 60
        E 120 80 3d 00
        E 120 90 3b 60
        E 120 80 3b 00
        E 120 90 42 60
        E 120 80 42 00
        E 120 90 40 60
        E 120 80 40 00
        E 120 90 07 60
        E 0 90 3d 60
        E 120 80 07 00
        E 0 80 3d 00
        E 120 90 3b 60
        E 120 80 3b 00
        E 120 90 3d 60
        E 600 80 3d 00
        E 120 90 40 60
        E 600 80 40 00
        E 120 90 42 60
        E 600 80 42 00
        E 120 90 40 60
        E 600 80 40 00
        E 120 90 40 60
        E 360 80 40 00
        E 120 90 3d 60
        E 120 80 3d 00
        E 120 90 40 60
        E 120 80 40 00
        E 120 90 42 60
        E 1800 80 42 00
        E 120 90 44 60
        E 360 80 44 00
        E 120 90 38 60
        E 120 80 38 00
        E 120 90 45 60
        E 360 80 45 00
        E 120 90 39 60
        E 120 80 39 00
        E 120 90 45 60
        E 120 80 45 00
        E 120 90 47 60
        E 120 80 47 00
        E 120 90 40 60
        E 3840 80 40 00
        E 11520 b0 7b 00
        GUID {2F9C6FDA-C5EE-4131-BB3A-AD829302EF98}
        IGNTEMPO 0 120.00000000 4 4
        SRCCOLOR 12
        VELLANE 132 71 60
        COLORMAP "C:\Program Files\REAPER\Data\color_maps\rockband_guitarbass.png"
        CFGEDITVIEW -4032.000000 18.845295 54 12 0 0 0
        CFGEDIT 1 1 0 1 1 0 1 1 1 1 1 0.25000000 -4 0 1025 558 0 0 1 2 0.00000000 0 1 1 0 0.500000 0 0 1.000000 64
        KEYSNAP 0 0 "102034050607" 0 "Major"
        EVTFILTER 0 -1 -1 -1 -1 0 1 0 0 -1.00000000 -1.00000000
      >
    >
  >
  <TRACK '{300289B0-2B23-4834-9765-69A9769048F3}'
    NAME "PART REAL_KEYS_M"
    PEAKCOL 16576
    BEAT -1
    AUTOMODE 0
    VOLPAN 1.00000000000000 0.00000000000000 -1.00000000000000 -1.00000000000000 1.00000000000000
    MUTESOLO 0 0 0
    IPHASE 0
    ISBUS 0 0
    BUSCOMP 0 0
    SHOWINMIX 1 0.666700 0.500000 1 0.500000 -1 -1 -1
    FREEMODE 0
    SEL 0
    REC 0 0 0 0 0 0 0
    VU 2
    TRACKHEIGHT 0 0
    INQ 0 0 0 0.5000000000 100 0 0 100
    NCHAN 2
    FX 1
    TRACKID {300289B0-2B23-4834-9765-69A9769048F3}
    PERF 0
    MIDIOUT -1
    <MIDINOTENAMES
      0 72 "C4"
      0 71 "B3"
      0 70 "A#3"
      0 69 "A3"
      0 68 "G#3"
      0 67 "G3"
      0 66 "F#3"
      0 65 "F3"
      0 64 "E3"
      0 63 "D#3"
      0 62 "D3"
      0 61 "C#3"
      0 60 "C3"
      0 59 "B2"
      0 58 "A#2"
      0 57 "A2"
      0 56 "G#2"
      0 55 "G2"
      0 54 "F#2"
      0 53 "F2"
      0 52 "E2"
      0 51 "D#2"
      0 50 "D2"
      0 49 "C#2"
      0 48 "C2"
      0 10 "---"
      0 9 "Range A2-C4"
      0 7 "G2-B3"
      0 5 "Range F2-A3"
      0 4 "E2-G3"
      0 2 "D2-F3"
      0 0 "Range C2-E3"
    >
    MAINSEND 1 0
    <FXCHAIN
      SHOW 0
      LASTSEL 0
      DOCKED 0
    >
    <ITEM
      POSITION 0.00000000000000
      SNAPOFFS 0.00000000000000
      LENGTH 85.23950400000001
      LOOP 0
      ALLTAKES 0
      SEL 0
      FADEIN 1 0.000000 0.000000 1 0
      FADEOUT 1 0.000000 0.000000 1 0
      MUTE 0
      IGUID {7AF18E24-BDC2-4DAD-9070-33DD6F50FCAD}
      IID 14
      NAME "PART REAL_KEYS_M"
      VOLPAN 1.000000 0.000000 1.000000 -1.000000
      SOFFS 0.00000000000000 0.00000000000000
      PLAYRATE 1.00000000000000 1 0.00000000000000 -1
      CHANMODE 0
      GUID {D5DA2DC9-E7DC-4870-AE62-9DB42E1656B3}
      <SOURCE MIDI
        HASDATA 1 480 QN
        POOLEDEVTS {68AC7A95-43F0-473A-85B8-82C79163FCFF}
        <X 0 0
          /wNQQVJUIFJFQUxfS0VZU19N
        >
        E 0 90 09 60
        E 120 80 09 00
        E 3720 90 40 60
        E 120 80 40 00
        E 360 90 44 60
        E 120 80 44 00
        E 360 90 47 60
        E 120 80 47 00
        E 360 90 40 60
        E 120 80 40 00
        E 360 90 40 60
        E 120 80 40 00
        E 360 90 44 60
        E 120 80 44 00
        E 360 90 47 60
        E 120 80 47 00
        E 360 90 40 60
        E 120 80 40 00
        E 360 90 3d 60
        E 120 80 3d 00
        E 360 90 40 60
        E 120 80 40 00
        E 360 90 44 60
        E 120 80 44 00
        E 360 90 3d 60
        E 120 80 3d 00
        E 360 90 3d 60
        E 120 80 3d 00
        E 360 90 40 60
        E 120 80 40 00
        E 360 90 44 60
        E 120 80 44 00
        E 360 90 3d 60
        E 120 80 3d 00
        E 360 90 39 60
        E 120 80 39 00
        E 360 90 3d 60
        E 120 80 3d 00
        E 360 90 40 60
        E 120 80 40 00
        E 360 90 39 60
        E 120 80 39 00
        E 360 90 3b 60
        E 120 80 3b 00
        E 360 90 3f 60
        E 120 80 3f 00
        E 360 90 42 60
        E 120 80 42 00
        E 360 90 3b 60
        E 120 80 3b 00
        E 360 90 40 60
        E 120 80 40 00
        E 360 90 44 60
        E 120 80 44 00
        E 360 90 47 60
        E 120 80 47 00
        E 360 90 40 60
        E 120 80 40 00
        E 360 90 3f 60
        E 120 80 3f 00
        E 360 90 44 60
        E 120 80 44 00
        E 360 90 47 60
        E 120 80 47 00
        E 360 90 3f 60
        E 120 80 3f 00
        E 360 90 40 60
        E 120 80 40 00
        E 360 90 44 60
        E 120 80 44 00
        E 360 90 47 60
        E 120 80 47 00
        E 360 90 40 60
        E 120 80 40 00
        E 360 90 40 60
        E 120 80 40 00
        E 360 90 44 60
        E 120 80 44 00
        E 360 90 47 60
        E 120 80 47 00
        E 360 90 40 60
        E 120 80 40 00
        E 360 90 3d 60
        E 120 80 3d 00
        E 360 90 40 60
        E 120 80 40 00
        E 360 90 44 60
        E 120 80 44 00
        E 360 90 3d 60
        E 120 80 3d 00
        E 360 90 3d 60
        E 120 80 3d 00
        E 360 90 40 60
        E 120 80 40 00
        E 360 90 44 60
        E 120 80 44 00
        E 360 90 3d 60
        E 120 80 3d 00
        E 360 90 39 60
        E 120 80 39 00
        E 360 90 3d 60
        E 120 80 3d 00
        E 360 90 40 60
        E 120 80 40 00
        E 360 90 39 60
        E 120 80 39 00
        E 360 90 3b 60
        E 120 80 3b 00
        E 360 90 3f 60
        E 120 80 3f 00
        E 360 90 42 60
        E 120 80 42 00
        E 360 90 3b 60
        E 120 80 3b 00
        E 360 90 40 60
        E 120 80 40 00
        E 360 90 44 60
        E 120 80 44 00
        E 360 90 47 60
        E 120 80 47 00
        E 360 90 40 60
        E 120 80 40 00
        E 360 90 3f 60
        E 120 80 3f 00
        E 360 90 44 60
        E 120 80 44 00
        E 360 90 47 60
        E 120 80 47 00
        E 360 90 3f 60
        E 120 80 3f 00
        E 360 90 40 60
        E 120 80 40 00
        E 360 90 42 60
        E 120 80 42 00
        E 360 90 44 60
        E 120 80 44 00
        E 360 90 47 60
        E 120 80 47 00
        E 840 90 42 60
        E 120 80 42 00
        E 360 90 44 60
        E 120 80 44 00
        E 360 90 40 60
        E 120 80 40 00
        E 360 90 3d 60
        E 360 80 3d 00
        E 120 90 3b 60
        E 120 80 3b 00
        E 840 90 40 60
        E 120 80 40 00
        E 360 90 3d 60
        E 360 80 3d 00
        E 120 90 3b 60
        E 120 80 3b 00
        E 840 90 42 60
        E 120 80 42 00
        E 360 90 40 60
        E 120 80 40 00
        E 360 90 42 60
        E 120 80 42 00
        E 360 90 44 60
        E 120 80 44 00
        E 360 90 47 60
        E 120 80 47 00
        E 840 90 42 60
        E 120 80 42 00
        E 360 90 44 60
        E 120 80 44 00
        E 360 90 40 60
        E 120 80 40 00
        E 360 90 42 60
        E 1800 80 42 00
        E 120 90 44 60
        E 600 80 44 00
        E 120 90 45 60
        E 600 80 45 00
        E 120 90 47 60
        E 360 80 47 00
        E 120 90 40 60
        E 120 80 40 00
        E 360 90 42 60
        E 120 80 42 00
        E 360 90 44 60
        E 120 80 44 00
        E 360 90 47 60
        E 120 80 47 00
        E 840 90 42 60
        E 120 80 42 00
        E 360 90 44 60
        E 120 80 44 00
        E 360 90 40 60
        E 120 80 40 00
        E 360 90 40 60
        E 120 80 40 00
        E 360 90 42 60
        E 120 80 42 00
        E 360 90 44 60
        E 120 80 44 00
        E 360 90 47 60
        E 120 80 47 00
        E 840 90 3d 60
        E 120 80 3d 00
        E 360 90 42 60
        E 120 80 42 00
        E 360 90 3d 60
        E 120 80 3d 00
        E 360 90 3d 60
        E 600 80 3d 00
        E 120 90 40 60
        E 600 80 40 00
        E 120 90 42 60
        E 600 80 42 00
        E 120 90 40 60
        E 600 80 40 00
        E 120 90 40 60
        E 360 80 40 00
        E 120 90 3d 60
        E 120 80 3d 00
        E 360 90 42 60
        E 1800 80 42 00
        E 120 90 44 60
        E 360 80 44 00
        E 1080 90 45 60
        E 120 80 45 00
        E 360 90 40 60
        E 3840 80 40 00
        E 11520 b0 7b 00
        GUID {57D5B94B-9825-4E32-8420-61A689B0C319}
        IGNTEMPO 0 120.00000000 4 4
        SRCCOLOR 13
        VELLANE 132 71 60
        COLORMAP "C:\Program Files\REAPER\Data\color_maps\rockband_guitarbass.png"
        CFGEDITVIEW 51233.998869 73.971137 0 26 0 0 0
        CFGEDIT 1 1 0 1 1 0 1 1 1 1 1 0.25000000 -4 0 1025 558 0 2 1 2 0.00000000 0 1 1 0 0.500000 0 0 1.000000 64
        KEYSNAP 0 0 "102034050607" 0 "Major"
        EVTFILTER 0 -1 -1 -1 -1 0 1 0 0 -1.00000000 -1.00000000
      >
    >
  >
  <TRACK '{8DB7577F-5109-4F86-B9DB-36FB6E57E56D}'
    NAME "PART REAL_KEYS_E"
    PEAKCOL 16576
    BEAT -1
    AUTOMODE 0
    VOLPAN 1.00000000000000 0.00000000000000 -1.00000000000000 -1.00000000000000 1.00000000000000
    MUTESOLO 0 0 0
    IPHASE 0
    ISBUS 0 0
    BUSCOMP 0 0
    SHOWINMIX 1 0.666700 0.500000 1 0.500000 -1 -1 -1
    FREEMODE 0
    SEL 0
    REC 0 0 0 0 0 0 0
    VU 2
    TRACKHEIGHT 0 0
    INQ 0 0 0 0.5000000000 100 0 0 100
    NCHAN 2
    FX 1
    TRACKID {8DB7577F-5109-4F86-B9DB-36FB6E57E56D}
    PERF 0
    MIDIOUT -1
    MAINSEND 1 0
    <ITEM
      POSITION 0.00000000000000
      SNAPOFFS 0.00000000000000
      LENGTH 85.23950400000001
      LOOP 0
      ALLTAKES 0
      SEL 0
      FADEIN 1 0.000000 0.000000 1 0
      FADEOUT 1 0.000000 0.000000 1 0
      MUTE 0
      IGUID {3D412370-6375-40D0-A13E-75673259A0CA}
      IID 15
      NAME "PART REAL_KEYS_E"
      VOLPAN 1.000000 0.000000 1.000000 -1.000000
      SOFFS 0.00000000000000 0.00000000000000
      PLAYRATE 1.00000000000000 1 0.00000000000000 -1
      CHANMODE 0
      GUID {78ED4E19-F785-446E-9EFD-5A122869E357}
      <SOURCE MIDI
        HASDATA 1 480 QN
        POOLEDEVTS {D0665C9A-2610-4028-9246-5FFE96BD033D}
        <X 0 0
          /wNQQVJUIFJFQUxfS0VZU19F
        >
        E 0 90 09 60
        E 120 80 09 00
        E 3720 90 40 60
        E 120 80 40 00
        E 840 90 47 60
        E 120 80 47 00
        E 840 90 40 60
        E 120 80 40 00
        E 840 90 47 60
        E 120 80 47 00
        E 840 90 3d 60
        E 120 80 3d 00
        E 840 90 44 60
        E 120 80 44 00
        E 840 90 3d 60
        E 120 80 3d 00
        E 840 90 44 60
        E 120 80 44 00
        E 840 90 39 60
        E 120 80 39 00
        E 840 90 40 60
        E 120 80 40 00
        E 840 90 3b 60
        E 120 80 3b 00
        E 840 90 42 60
        E 120 80 42 00
        E 840 90 40 60
        E 120 80 40 00
        E 840 90 47 60
        E 120 80 47 00
        E 840 90 3f 60
        E 120 80 3f 00
        E 840 90 47 60
        E 120 80 47 00
        E 840 90 40 60
        E 120 80 40 00
        E 840 90 47 60
        E 120 80 47 00
        E 840 90 40 60
        E 120 80 40 00
        E 840 90 47 60
        E 120 80 47 00
        E 840 90 3d 60
        E 120 80 3d 00
        E 840 90 44 60
        E 120 80 44 00
        E 840 90 3d 60
        E 120 80 3d 00
        E 840 90 44 60
        E 120 80 44 00
        E 840 90 39 60
        E 120 80 39 00
        E 840 90 40 60
        E 120 80 40 00
        E 840 90 3b 60
        E 120 80 3b 00
        E 840 90 42 60
        E 120 80 42 00
        E 840 90 40 60
        E 120 80 40 00
        E 840 90 47 60
        E 120 80 47 00
        E 840 90 3f 60
        E 120 80 3f 00
        E 840 90 47 60
        E 120 80 47 00
        E 840 90 40 60
        E 120 80 40 00
        E 840 90 44 60
        E 120 80 44 00
        E 1800 90 44 60
        E 120 80 44 00
        E 840 90 3d 60
        E 360 80 3d 00
        E 120 90 3b 60
        E 120 80 3b 00
        E 840 90 40 60
        E 120 80 40 00
        E 360 90 3d 60
        E 360 80 3d 00
        E 120 90 3b 60
        E 120 80 3b 00
        E 1320 90 40 60
        E 120 80 40 00
        E 840 90 44 60
        E 120 80 44 00
        E 1800 90 44 60
        E 120 80 44 00
        E 840 90 42 60
        E 1800 80 42 00
        E 120 90 44 60
        E 600 80 44 00
        E 1320 90 40 60
        E 120 80 40 00
        E 840 90 44 60
        E 120 80 44 00
        E 1800 90 44 60
        E 120 80 44 00
        E 840 90 40 60
        E 120 80 40 00
        E 840 90 44 60
        E 120 80 44 00
        E 1800 90 42 60
        E 120 80 42 00
        E 840 90 3d 60
        E 600 80 3d 00
        E 840 90 42 60
        E 600 80 42 00
        E 840 90 40 60
        E 360 80 40 00
        E 600 90 42 60
        E 1800 80 42 00
        E 120 90 44 60
        E 360 80 44 00
        E 1560 90 40 60
        E 3840 80 40 00
        E 11520 b0 7b 00
        GUID {3CA80B91-6607-408D-A5AD-2C931B7A2259}
        IGNTEMPO 0 120.00000000 4 4
        SRCCOLOR 14
        VELLANE 132 71 60
        COLORMAP "C:\Program Files\REAPER\Data\color_maps\rockband_guitarbass.png"
        CFGEDITVIEW 51233.998869 73.971137 25 12 0 0 0
        CFGEDIT 1 1 0 1 1 0 1 1 1 1 1 0.25000000 -4 0 1025 558 0 0 1 2 0.00000000 0 1 1 0 0.500000 0 0 1.000000 64
        KEYSNAP 0 0 "102034050607" 0 "Major"
        EVTFILTER 0 -1 -1 -1 -1 0 1 0 0 -1.00000000 -1.00000000
      >
    >
  >
  <TRACK '{3AF090EF-A088-42EE-8C5D-590EED908FF2}'
    NAME "PART KEYS_ANIM_RH"
    PEAKCOL 16576
    BEAT -1
    AUTOMODE 0
    VOLPAN 1.00000000000000 0.00000000000000 -1.00000000000000 -1.00000000000000 1.00000000000000
    MUTESOLO 0 0 0
    IPHASE 0
    ISBUS 0 0
    BUSCOMP 0 0
    SHOWINMIX 1 0.666700 0.500000 1 0.500000 -1 -1 -1
    FREEMODE 0
    SEL 0
    REC 0 0 0 0 0 0 0
    VU 2
    TRACKHEIGHT 0 0
    INQ 0 0 0 0.5000000000 100 0 0 100
    NCHAN 2
    FX 1
    TRACKID {3AF090EF-A088-42EE-8C5D-590EED908FF2}
    PERF 0
    MIDIOUT -1
    <MIDINOTENAMES
      0 72 "C4"
      0 71 "B3"
      0 70 "A#3"
      0 69 "A3"
      0 68 "G#3"
      0 67 "G3"
      0 66 "F#3"
      0 65 "F3"
      0 64 "E3"
      0 63 "D#3"
      0 62 "D3"
      0 61 "C#3"
      0 60 "C3"
      0 59 "B2"
      0 58 "A#2"
      0 57 "A2"
      0 56 "G#2"
      0 55 "G2"
      0 54 "F#2"
      0 53 "F2"
      0 52 "E2"
      0 51 "D#2"
      0 50 "D2"
      0 49 "C#2"
      0 48 "C2"
    >
    MAINSEND 1 0
    <FXCHAIN
      SHOW 0
      LASTSEL 0
      DOCKED 0
    >
    <ITEM
      POSITION 0.00000000000000
      SNAPOFFS 0.00000000000000
      LENGTH 85.23950399999964
      LOOP 0
      ALLTAKES 0
      SEL 0
      FADEIN 1 0.000000 0.000000 1 0
      FADEOUT 1 0.000000 0.000000 1 0
      MUTE 0
      IGUID {B1DE6EE3-E51B-4EB0-8B61-A87031FD3F26}
      IID 12
      NAME "PART KEYS_ANIM_RH"
      VOLPAN 1.000000 0.000000 1.000000 -1.000000
      SOFFS 0.00000000000000 0.00000000000000
      PLAYRATE 1.00000000000000 1 0.00000000000000 -1
      CHANMODE 0
      GUID {913B9FBA-C2B8-4649-AF9C-44D11CC5E7A1}
      <SOURCE MIDI
        HASDATA 1 480 QN
        POOLEDEVTS {954152D0-C4E4-47BB-A889-AD78708E1D42}
        <X 0 0
          /wNQQVJUIEtFWVNfQU5JTV9SSA==
        >
        E 3840 90 40 60
        E 120 80 40 00
        E 0 90 44 60
        E 120 80 44 00
        E 0 90 47 60
        E 120 80 47 00
        E 0 90 40 60
        E 120 80 40 00
        E 0 90 44 60
        E 120 80 44 00
        E 0 90 47 60
        E 120 80 47 00
        E 0 90 40 60
        E 120 80 40 00
        E 0 90 44 60
        E 120 80 44 00
        E 0 90 47 60
        E 120 80 47 00
        E 0 90 40 60
        E 120 80 40 00
        E 0 90 44 60
        E 120 80 44 00
        E 0 90 47 60
        E 120 80 47 00
        E 0 90 40 60
        E 120 80 40 00
        E 0 90 44 60
        E 120 80 44 00
        E 0 90 47 60
        E 120 80 47 00
        E 0 90 40 60
        E 120 80 40 00
        E 0 90 40 60
        E 120 80 40 00
        E 0 90 44 60
        E 120 80 44 00
        E 0 90 47 60
        E 120 80 47 00
        E 0 90 40 60
        E 120 80 40 00
        E 0 90 44 60
        E 120 80 44 00
        E 0 90 47 60
        E 120 80 47 00
        E 0 90 40 60
        E 120 80 40 00
        E 0 90 44 60
        E 120 80 44 00
        E 0 90 47 60
        E 120 80 47 00
        E 0 90 40 60
        E 120 80 40 00
        E 0 90 44 60
        E 120 80 44 00
        E 0 90 47 60
        E 120 80 47 00
        E 0 90 40 60
        E 120 80 40 00
        E 0 90 44 60
        E 120 80 44 00
        E 0 90 47 60
        E 120 80 47 00
        E 0 90 40 60
        E 120 80 40 00
        E 0 90 3d 60
        E 120 80 3d 00
        E 0 90 40 60
        E 120 80 40 00
        E 0 90 44 60
        E 120 80 44 00
        E 0 90 3d 60
        E 120 80 3d 00
        E 0 90 40 60
        E 120 80 40 00
        E 0 90 44 60
        E 120 80 44 00
        E 0 90 3d 60
        E 120 80 3d 00
        E 0 90 40 60
        E 120 80 40 00
        E 0 90 44 60
        E 120 80 44 00
        E 0 90 3d 60
        E 120 80 3d 00
        E 0 90 40 60
        E 120 80 40 00
        E 0 90 44 60
        E 120 80 44 00
        E 0 90 3d 60
        E 120 80 3d 00
        E 0 90 40 60
        E 120 80 40 00
        E 0 90 44 60
        E 120 80 44 00
        E 0 90 3d 60
        E 120 80 3d 00
        E 0 90 3d 60
        E 120 80 3d 00
        E 0 90 40 60
        E 120 80 40 00
        E 0 90 44 60
        E 120 80 44 00
        E 0 90 3d 60
        E 120 80 3d 00
        E 0 90 40 60
        E 120 80 40 00
        E 0 90 44 60
        E 120 80 44 00
        E 0 90 3d 60
        E 120 80 3d 00
        E 0 90 40 60
        E 120 80 40 00
        E 0 90 44 60
        E 120 80 44 00
        E 0 90 3d 60
        E 120 80 3d 00
        E 0 90 40 60
        E 120 80 40 00
        E 0 90 44 60
        E 120 80 44 00
        E 0 90 3d 60
        E 120 80 3d 00
        E 0 90 40 60
        E 120 80 40 00
        E 0 90 44 60
        E 120 80 44 00
        E 0 90 3d 60
        E 120 80 3d 00
        E 0 90 39 60
        E 120 80 39 00
        E 0 90 3d 60
        E 120 80 3d 00
        E 0 90 40 60
        E 120 80 40 00
        E 0 90 39 60
        E 120 80 39 00
        E 0 90 3d 60
        E 120 80 3d 00
        E 0 90 40 60
        E 120 80 40 00
        E 0 90 39 60
        E 120 80 39 00
        E 0 90 3d 60
        E 120 80 3d 00
        E 0 90 40 60
        E 120 80 40 00
        E 0 90 39 60
        E 120 80 39 00
        E 0 90 3d 60
        E 120 80 3d 00
        E 0 90 40 60
        E 120 80 40 00
        E 0 90 39 60
        E 120 80 39 00
        E 0 90 3d 60
        E 120 80 3d 00
        E 0 90 40 60
        E 120 80 40 00
        E 0 90 39 60
        E 120 80 39 00
        E 0 90 3b 60
        E 120 80 3b 00
        E 0 90 3f 60
        E 120 80 3f 00
        E 0 90 42 60
        E 120 80 42 00
        E 0 90 3b 60
        E 120 80 3b 00
        E 0 90 3f 60
        E 120 80 3f 00
        E 0 90 42 60
        E 120 80 42 00
        E 0 90 3b 60
        E 120 80 3b 00
        E 0 90 3f 60
        E 120 80 3f 00
        E 0 90 42 60
        E 120 80 42 00
        E 0 90 3b 60
        E 120 80 3b 00
        E 0 90 3f 60
        E 120 80 3f 00
        E 0 90 42 60
        E 120 80 42 00
        E 0 90 3b 60
        E 120 80 3b 00
        E 0 90 3f 60
        E 120 80 3f 00
        E 0 90 42 60
        E 120 80 42 00
        E 0 90 3b 60
        E 120 80 3b 00
        E 0 90 40 60
        E 120 80 40 00
        E 0 90 44 60
        E 120 80 44 00
        E 0 90 47 60
        E 120 80 47 00
        E 0 90 40 60
        E 120 80 40 00
        E 0 90 44 60
        E 120 80 44 00
        E 0 90 47 60
        E 120 80 47 00
        E 0 90 40 60
        E 120 80 40 00
        E 0 90 44 60
        E 120 80 44 00
        E 0 90 47 60
        E 120 80 47 00
        E 0 90 40 60
        E 120 80 40 00
        E 0 90 44 60
        E 120 80 44 00
        E 0 90 47 60
        E 120 80 47 00
        E 0 90 40 60
        E 120 80 40 00
        E 0 90 44 60
        E 120 80 44 00
        E 0 90 47 60
        E 120 80 47 00
        E 0 90 40 60
        E 120 80 40 00
        E 0 90 3f 60
        E 120 80 3f 00
        E 0 90 44 60
        E 120 80 44 00
        E 0 90 47 60
        E 120 80 47 00
        E 0 90 40 60
        E 120 80 40 00
        E 0 90 44 60
        E 120 80 44 00
        E 0 90 47 60
        E 120 80 47 00
        E 0 90 3f 60
        E 120 80 3f 00
        E 0 90 44 60
        E 120 80 44 00
        E 0 90 47 60
        E 120 80 47 00
        E 0 90 40 60
        E 120 80 40 00
        E 0 90 44 60
        E 120 80 44 00
        E 0 90 47 60
        E 120 80 47 00
        E 0 90 3f 60
        E 120 80 3f 00
        E 0 90 44 60
        E 120 80 44 00
        E 0 90 47 60
        E 120 80 47 00
        E 0 90 40 60
        E 120 80 40 00
        E 0 90 40 60
        E 120 80 40 00
        E 0 90 44 60
        E 120 80 44 00
        E 0 90 47 60
        E 120 80 47 00
        E 0 90 40 60
        E 120 80 40 00
        E 0 90 44 60
        E 120 80 44 00
        E 0 90 47 60
        E 120 80 47 00
        E 0 90 40 60
        E 120 80 40 00
        E 0 90 44 60
        E 120 80 44 00
        E 0 90 47 60
        E 120 80 47 00
        E 0 90 40 60
        E 120 80 40 00
        E 0 90 44 60
        E 120 80 44 00
        E 0 90 47 60
        E 120 80 47 00
        E 0 90 40 60
        E 120 80 40 00
        E 0 90 44 60
        E 120 80 44 00
        E 0 90 47 60
        E 120 80 47 00
        E 0 90 40 60
        E 120 80 40 00
        E 0 90 40 60
        E 120 80 40 00
        E 0 90 44 60
        E 120 80 44 00
        E 0 90 47 60
        E 120 80 47 00
        E 0 90 40 60
        E 120 80 40 00
        E 0 90 44 60
        E 120 80 44 00
        E 0 90 47 60
        E 120 80 47 00
        E 0 90 40 60
        E 120 80 40 00
        E 0 90 44 60
        E 120 80 44 00
        E 0 90 47 60
        E 120 80 47 00
        E 0 90 40 60
        E 120 80 40 00
        E 0 90 44 60
        E 120 80 44 00
        E 0 90 47 60
        E 120 80 47 00
        E 0 90 40 60
        E 120 80 40 00
        E 0 90 44 60
        E 120 80 44 00
        E 0 90 47 60
        E 120 80 47 00
        E 0 90 40 60
        E 120 80 40 00
        E 0 90 3d 60
        E 120 80 3d 00
        E 0 90 40 60
        E 120 80 40 00
        E 0 90 44 60
        E 120 80 44 00
        E 0 90 3d 60
        E 120 80 3d 00
        E 0 90 40 60
        E 120 80 40 00
        E 0 90 44 60
        E 120 80 44 00
        E 0 90 3d 60
        E 120 80 3d 00
        E 0 90 40 60
        E 120 80 40 00
        E 0 90 44 60
        E 120 80 44 00
        E 0 90 3d 60
        E 120 80 3d 00
        E 0 90 40 60
        E 120 80 40 00
        E 0 90 44 60
        E 120 80 44 00
        E 0 90 3d 60
        E 120 80 3d 00
        E 0 90 40 60
        E 120 80 40 00
        E 0 90 44 60
        E 120 80 44 00
        E 0 90 3d 60
        E 120 80 3d 00
        E 0 90 3d 60
        E 120 80 3d 00
        E 0 90 40 60
        E 120 80 40 00
        E 0 90 44 60
        E 120 80 44 00
        E 0 90 3d 60
        E 120 80 3d 00
        E 0 90 40 60
        E 120 80 40 00
        E 0 90 44 60
        E 120 80 44 00
        E 0 90 3d 60
        E 120 80 3d 00
        E 0 90 40 60
        E 120 80 40 00
        E 0 90 44 60
        E 120 80 44 00
        E 0 90 3d 60
        E 120 80 3d 00
        E 0 90 40 60
        E 120 80 40 00
        E 0 90 44 60
        E 120 80 44 00
        E 0 90 3d 60
        E 120 80 3d 00
        E 0 90 40 60
        E 120 80 40 00
        E 0 90 44 60
        E 120 80 44 00
        E 0 90 3d 60
        E 120 80 3d 00
        E 0 90 39 60
        E 120 80 39 00
        E 0 90 3d 60
        E 120 80 3d 00
        E 0 90 40 60
        E 120 80 40 00
        E 0 90 39 60
        E 120 80 39 00
        E 0 90 3d 60
        E 120 80 3d 00
        E 0 90 40 60
        E 120 80 40 00
        E 0 90 39 60
        E 120 80 39 00
        E 0 90 3d 60
        E 120 80 3d 00
        E 0 90 40 60
        E 120 80 40 00
        E 0 90 39 60
        E 120 80 39 00
        E 0 90 3d 60
        E 120 80 3d 00
        E 0 90 40 60
        E 120 80 40 00
        E 0 90 39 60
        E 120 80 39 00
        E 0 90 3d 60
        E 120 80 3d 00
        E 0 90 40 60
        E 120 80 40 00
        E 0 90 39 60
        E 120 80 39 00
        E 0 90 3b 60
        E 120 80 3b 00
        E 0 90 3f 60
        E 120 80 3f 00
        E 0 90 42 60
        E 120 80 42 00
        E 0 90 3b 60
        E 120 80 3b 00
        E 0 90 3f 60
        E 120 80 3f 00
        E 0 90 42 60
        E 120 80 42 00
        E 0 90 3b 60
        E 120 80 3b 00
        E 0 90 3f 60
        E 120 80 3f 00
        E 0 90 42 60
        E 120 80 42 00
        E 0 90 3b 60
        E 120 80 3b 00
        E 0 90 3f 60
        E 120 80 3f 00
        E 0 90 42 60
        E 120 80 42 00
        E 0 90 3b 60
        E 120 80 3b 00
        E 0 90 3f 60
        E 120 80 3f 00
        E 0 90 42 60
        E 120 80 42 00
        E 0 90 3b 60
        E 120 80 3b 00
        E 0 90 40 60
        E 120 80 40 00
        E 0 90 44 60
        E 120 80 44 00
        E 0 90 47 60
        E 120 80 47 00
        E 0 90 40 60
        E 120 80 40 00
        E 0 90 44 60
        E 120 80 44 00
        E 0 90 47 60
        E 120 80 47 00
        E 0 90 40 60
        E 120 80 40 00
        E 0 90 44 60
        E 120 80 44 00
        E 0 90 47 60
        E 120 80 47 00
        E 0 90 40 60
        E 120 80 40 00
        E 0 90 44 60
        E 120 80 44 00
        E 0 90 47 60
        E 120 80 47 00
        E 0 90 40 60
        E 120 80 40 00
        E 0 90 44 60
        E 120 80 44 00
        E 0 90 47 60
        E 120 80 47 00
        E 0 90 40 60
        E 120 80 40 00
        E 0 90 3f 60
        E 120 80 3f 00
        E 0 90 44 60
        E 120 80 44 00
        E 0 90 47 60
        E 120 80 47 00
        E 0 90 40 60
        E 120 80 40 00
        E 0 90 44 60
        E 120 80 44 00
        E 0 90 47 60
        E 120 80 47 00
        E 0 90 3f 60
        E 120 80 3f 00
        E 0 90 44 60
        E 120 80 44 00
        E 0 90 47 60
        E 120 80 47 00
        E 0 90 40 60
        E 120 80 40 00
        E 0 90 44 60
        E 120 80 44 00
        E 0 90 47 60
        E 120 80 47 00
        E 0 90 3f 60
        E 120 80 3f 00
        E 0 90 44 60
        E 120 80 44 00
        E 0 90 47 60
        E 120 80 47 00
        E 0 90 40 60
        E 120 80 40 00
        E 0 90 40 60
        E 120 80 40 00
        E 360 90 42 60
        E 120 80 42 00
        E 360 90 44 60
        E 120 80 44 00
        E 360 90 47 60
        E 120 80 47 00
        E 120 90 40 60
        E 120 80 40 00
        E 360 90 40 60
        E 120 80 40 00
        E 120 90 42 60
        E 120 80 42 00
        E 360 90 44 60
        E 120 80 44 00
        E 360 90 40 60
        E 120 80 40 00
        E 360 90 3d 60
        E 360 80 3d 00
        E 120 90 3b 60
        E 120 80 3b 00
        E 120 90 3d 60
        E 360 80 3d 00
        E 120 90 3b 60
        E 120 80 3b 00
        E 120 90 40 60
        E 120 80 40 00
        E 120 90 42 60
        E 120 80 42 00
        E 120 90 3d 60
        E 360 80 3d 00
        E 120 90 3b 60
        E 120 80 3b 00
        E 120 90 3d 60
        E 360 80 3d 00
        E 120 90 3b 60
        E 120 80 3b 00
        E 120 90 42 60
        E 120 80 42 00
        E 120 90 44 60
        E 120 80 44 00
        E 120 90 40 60
        E 120 80 40 00
        E 360 90 42 60
        E 120 80 42 00
        E 360 90 44 60
        E 120 80 44 00
        E 360 90 47 60
        E 120 80 47 00
        E 120 90 40 60
        E 120 80 40 00
        E 360 90 40 60
        E 120 80 40 00
        E 120 90 42 60
        E 120 80 42 00
        E 360 90 44 60
        E 120 80 44 00
        E 360 90 40 60
        E 120 80 40 00
        E 360 90 42 60
        E 1800 80 42 00
        E 120 90 44 60
        E 600 80 44 00
        E 120 90 45 60
        E 600 80 45 00
        E 120 90 47 60
        E 360 80 47 00
        E 120 90 40 60
        E 120 80 40 00
        E 360 90 42 60
        E 120 80 42 00
        E 360 90 44 60
        E 120 80 44 00
        E 360 90 47 60
        E 120 80 47 00
        E 120 90 40 60
        E 120 80 40 00
        E 360 90 40 60
        E 120 80 40 00
        E 120 90 42 60
        E 120 80 42 00
        E 360 90 44 60
        E 120 80 44 00
        E 360 90 40 60
        E 120 80 40 00
        E 360 90 40 60
        E 120 80 40 00
        E 360 90 42 60
        E 120 80 42 00
        E 360 90 44 60
        E 120 80 44 00
        E 360 90 47 60
        E 120 80 47 00
        E 120 90 3d 60
        E 120 80 3d 00
        E 360 90 3b 60
        E 120 80 3b 00
        E 120 90 3d 60
        E 120 80 3d 00
        E 120 90 3b 60
        E 120 80 3b 00
        E 120 90 42 60
        E 120 80 42 00
        E 120 90 40 60
        E 120 80 40 00
        E 120 90 3d 60
        E 120 80 3d 00
        E 120 90 3b 60
        E 120 80 3b 00
        E 120 90 3d 60
        E 600 80 3d 00
        E 120 90 40 60
        E 600 80 40 00
        E 120 90 42 60
        E 600 80 42 00
        E 120 90 40 60
        E 600 80 40 00
        E 120 90 40 60
        E 360 80 40 00
        E 120 90 3d 60
        E 120 80 3d 00
        E 120 90 40 60
        E 120 80 40 00
        E 120 90 42 60
        E 1800 80 42 00
        E 120 90 44 60
        E 360 80 44 00
        E 120 90 38 60
        E 120 80 38 00
        E 120 90 45 60
        E 360 80 45 00
        E 120 90 39 60
        E 120 80 39 00
        E 120 90 45 60
        E 120 80 45 00
        E 120 90 47 60
        E 120 80 47 00
        E 120 90 40 60
        E 3839 80 40 00
        E 11521 b0 7b 00
        GUID {DED79F20-551B-4439-A733-1B0ECE0D0955}
        IGNTEMPO 0 120.00000000 4 4
        SRCCOLOR 19
        VELLANE 132 71 60
        COLORMAP "C:\Program Files (x86)\REAPER\Data\color_maps\rockband_vox-other.png"
        TEXTSTRINGFILE "C:\Program Files\REAPER\Data\Text_Strings\Text Events List - Pro Trainers.txt"
        CFGEDITVIEW -3748.414220 18.171657 0 30 0 0 0
        CFGEDIT 1 1 0 1 1 0 1 1 1 1 1 0.25000000 -4 0 1025 558 0 2 1 2 0.00000000 0 1 1 0 0.500000 0 0 1.000000 64
        KEYSNAP 0 0 "102034050607" 0 "Major"
        EVTFILTER 0 -1 -1 -1 -1 0 1 0 0 -1.00000000 -1.00000000
      >
    >
  >
  <TRACK '{F6A4AB18-3F78-4DE7-A33F-4ACDF3C80C99}'
    NAME "PART KEYS_ANIM_LH"
    PEAKCOL 16576
    BEAT -1
    AUTOMODE 0
    VOLPAN 1.00000000000000 0.00000000000000 -1.00000000000000 -1.00000000000000 1.00000000000000
    MUTESOLO 0 0 0
    IPHASE 0
    ISBUS 0 0
    BUSCOMP 0 0
    SHOWINMIX 1 0.666700 0.500000 1 0.500000 -1 -1 -1
    FREEMODE 0
    SEL 0
    REC 0 0 0 0 0 0 0
    VU 2
    TRACKHEIGHT 0 0
    INQ 0 0 0 0.5000000000 100 0 0 100
    NCHAN 2
    FX 1
    TRACKID {F6A4AB18-3F78-4DE7-A33F-4ACDF3C80C99}
    PERF 0
    MIDIOUT -1
    MAINSEND 1 0
    <ITEM
      POSITION 0.00000000000000
      SNAPOFFS 0.00000000000000
      LENGTH 85.23950400000001
      LOOP 0
      ALLTAKES 0
      SEL 0
      FADEIN 1 0.000000 0.000000 1 0
      FADEOUT 1 0.000000 0.000000 1 0
      MUTE 0
      IGUID {6C406751-0AC5-4D9D-B729-7FDCBA4DE654}
      IID 17
      NAME "PART KEYS_ANIM_LH"
      VOLPAN 1.000000 0.000000 1.000000 -1.000000
      SOFFS 0.00000000000000 0.00000000000000
      PLAYRATE 1.00000000000000 1 0.00000000000000 -1
      CHANMODE 0
      GUID {AAFFC855-6EBA-4224-88B4-DA738EB18B18}
      <SOURCE MIDI
        HASDATA 1 480 QN
        POOLEDEVTS {316BF92D-53CC-4E77-AE22-340A1184D9B7}
        <X 0 0
          /wNQQVJUIEtFWVNfQU5JTV9MSA==
        >
        E 80640 b0 7b 00
        GUID {1BE6E163-CD1A-4097-9026-C30146BAD473}
        IGNTEMPO 0 120.00000000 4 4
        SRCCOLOR 16
        VELLANE 132 71 60
        COLORMAP "C:\Program Files\REAPER\Data\color_maps\rockband_guitarbass.png"
      >
    >
  >
  <TRACK '{30A4B581-BA5F-4804-80E0-C94A0229A5E1}'
    NAME "keys"
    PEAKCOL 16576
    BEAT -1
    AUTOMODE 0
    VOLPAN 1.00000000000000 0.00000000000000 -1.00000000000000 -1.00000000000000 1.00000000000000
    MUTESOLO 0 0 0
    IPHASE 0
    ISBUS 2 -1
    BUSCOMP 0 0
    SHOWINMIX 1 0.666700 0.500000 1 0.500000 -1 -1 -1
    FREEMODE 0
    SEL 1
    REC 0 0 0 0 0 0 0
    VU 2
    TRACKHEIGHT 0 0
    INQ 0 0 0 0.5000000000 100 0 0 100
    NCHAN 2
    FX 1
    TRACKID {30A4B581-BA5F-4804-80E0-C94A0229A5E1}
    PERF 0
    MIDIOUT -1
    MAINSEND 1 0
    <ITEM
      POSITION 0.00000000000000
      SNAPOFFS 0.00000000000000
      LENGTH 85.23952380952380
      LOOP 0
      ALLTAKES 0
      SEL 0
      FADEIN 1 0.000000 0.000000 1 0
      FADEOUT 1 0.000000 0.000000 1 0
      MUTE 0
      IGUID {6464E00B-F194-47E4-B1B7-F55E2F6CC2D1}
      IID 74
      NAME "keys.wav"
      VOLPAN 1.000000 0.000000 1.000000 -1.000000
      SOFFS 0.00000000000000
      PLAYRATE 1.00000000000000 1 0.00000000000000 -1
      CHANMODE 0
      GUID {A8064D75-D0AE-4252-A757-69A55C7CFD6F}
      <SOURCE WAVE
        FILE "wav\keys.wav"
      >
    >
  >
  <TRACK '{51CF6EF4-49F1-4778-83BD-C53E04CD63C9}'
    NAME "EVENTS"
    PEAKCOL 16576
    BEAT -1
    AUTOMODE 0
    VOLPAN 1.00000000000000 0.00000000000000 -1.00000000000000 -1.00000000000000 1.00000000000000
    MUTESOLO 0 0 0
    IPHASE 0
    ISBUS 0 0
    BUSCOMP 0 0
    SHOWINMIX 1 0.666700 0.500000 1 0.500000 -1 -1 -1
    FREEMODE 0
    SEL 0
    REC 0 0 0 0 0 0 0
    VU 2
    TRACKHEIGHT 0 0
    INQ 0 0 0 0.5000000000 100 0 0 100
    NCHAN 2
    FX 1
    TRACKID {51CF6EF4-49F1-4778-83BD-C53E04CD63C9}
    PERF 0
    MIDIOUT -1
    MAINSEND 1 0
    <ITEM
      POSITION 0.00000000000000
      SNAPOFFS 0.00000000000000
      LENGTH 85.23950400000001
      LOOP 0
      ALLTAKES 0
      SEL 0
      FADEIN 1 0.000000 0.000000 1 0
      FADEOUT 1 0.000000 0.000000 1 0
      MUTE 0
      IGUID {C8E21298-0758-4FD9-B55A-2D7090C86702}
      IID 18
      NAME "EVENTS"
      VOLPAN 1.000000 0.000000 1.000000 -1.000000
      SOFFS 0.00000000000000 0.00000000000000
      PLAYRATE 1.00000000000000 1 0.00000000000000 -1
      CHANMODE 0
      GUID {36521B04-EFCE-40E4-8ABC-40CCA6F6A24F}
      <SOURCE MIDI
        HASDATA 1 480 QN
        POOLEDEVTS {4C15B82E-4C46-4E8C-BB06-0913C5E37174}
        <X 0 0
          /wNFVkVOVFM=
        >
        E 0 90 1a 60
        E 120 80 1a 00
        E 840 90 1a 60
        E 120 80 1a 00
        E 840 90 1a 60
        E 120 80 1a 00
        E 360 90 1a 60
        E 120 80 1a 00
        E 360 90 1a 60
        E 120 80 1a 00
        E 360 90 1a 60
        E 120 80 1a 00
        <X 360 0
          /wFbcHJjX2ludHJvX2Fd
        >
        E 0 90 18 60
        E 0 90 1a 60
        E 120 80 18 00
        E 0 80 1a 00
        E 120 90 1a 60
        E 120 80 1a 00
        E 120 90 18 60
        E 0 90 1a 60
        E 120 80 18 00
        E 0 80 1a 00
        <X 120 0
          /wFbY3Jvd2Rfbm9jbGFwXQ==
        >
        <X 0 0
          /wFbY3Jvd2Rfbm9ybWFsXQ==
        >
        <X 0 0
          /wFbbXVzaWNfc3RhcnRd
        >
        E 0 90 1a 60
        E 120 80 1a 00
        E 120 90 18 60
        E 0 90 1a 60
        E 120 80 18 00
        E 0 80 1a 00
        E 120 90 1a 60
        E 120 80 1a 00
        E 120 90 18 60
        E 0 90 1a 60
        E 120 80 18 00
        E 0 80 1a 00
        E 120 90 1a 60
        E 120 80 1a 00
        E 120 90 18 60
        E 0 90 1a 60
        E 120 80 18 00
        E 0 80 1a 00
        E 120 90 1a 60
        E 120 80 1a 00
        E 120 90 18 60
        E 0 90 1a 60
        E 120 80 18 00
        E 0 80 1a 00
        E 120 90 1a 60
        E 120 80 1a 00
        E 120 90 18 60
        E 0 90 1a 60
        E 120 80 18 00
        E 0 80 1a 00
        E 120 90 1a 60
        E 120 80 1a 00
        E 120 90 18 60
        E 0 90 1a 60
        E 120 80 18 00
        E 0 80 1a 00
        E 120 90 1a 60
        E 120 80 1a 00
        E 120 90 18 60
        E 0 90 1a 60
        E 120 80 18 00
        E 0 80 1a 00
        E 120 90 1a 60
        E 120 80 1a 00
        E 120 90 18 60
        E 0 90 1a 60
        E 120 80 18 00
        E 0 80 1a 00
        E 120 90 1a 60
        E 120 80 1a 00
        E 120 90 18 60
        E 0 90 1a 60
        E 120 80 18 00
        E 0 80 1a 00
        E 120 90 1a 60
        E 120 80 1a 00
        E 120 90 18 60
        E 0 90 1a 60
        E 120 80 18 00
        E 0 80 1a 00
        E 120 90 1a 60
        E 120 80 1a 00
        E 120 90 18 60
        E 0 90 1a 60
        E 120 80 18 00
        E 0 80 1a 00
        E 120 90 1a 60
        E 120 80 1a 00
        E 120 90 18 60
        E 0 90 1a 60
        E 120 80 18 00
        E 0 80 1a 00
        E 120 90 1a 60
        E 120 80 1a 00
        E 120 90 18 60
        E 0 90 1a 60
        E 120 80 18 00
        E 0 80 1a 00
        E 120 90 1a 60
        E 120 80 1a 00
        E 120 90 18 60
        E 0 90 1a 60
        E 120 80 18 00
        E 0 80 1a 00
        E 120 90 1a 60
        E 120 80 1a 00
        E 120 90 18 60
        E 0 90 1a 60
        E 120 80 18 00
        E 0 80 1a 00
        E 120 90 1a 60
        E 120 80 1a 00
        E 120 90 18 60
        E 0 90 1a 60
        E 120 80 18 00
        E 0 80 1a 00
        E 120 90 1a 60
        E 120 80 1a 00
        E 120 90 18 60
        E 0 90 1a 60
        E 120 80 18 00
        E 0 80 1a 00
        E 120 90 1a 60
        E 120 80 1a 00
        E 120 90 18 60
        E 0 90 1a 60
        E 120 80 18 00
        E 0 80 1a 00
        E 120 90 1a 60
        E 120 80 1a 00
        E 120 90 18 60
        E 0 90 1a 60
        E 120 80 18 00
        E 0 80 1a 00
        E 120 90 1a 60
        E 120 80 1a 00
        E 120 90 18 60
        E 0 90 1a 60
        E 120 80 18 00
        E 0 80 1a 00
        E 120 90 1a 60
        E 120 80 1a 00
        E 120 90 18 60
        E 0 90 1a 60
        E 120 80 18 00
        E 0 80 1a 00
        E 120 90 1a 60
        E 120 80 1a 00
        E 120 90 18 60
        E 0 90 1a 60
        E 120 80 18 00
        E 0 80 1a 00
        E 120 90 1a 60
        E 120 80 1a 00
        E 120 90 18 60
        E 0 90 1a 60
        E 120 80 18 00
        E 0 80 1a 00
        E 120 90 1a 60
        E 120 80 1a 00
        E 120 90 18 60
        E 0 90 1a 60
        E 120 80 18 00
        E 0 80 1a 00
        E 120 90 1a 60
        E 120 80 1a 00
        E 120 90 18 60
        E 0 90 1a 60
        E 120 80 18 00
        E 0 80 1a 00
        E 120 90 1a 60
        E 120 80 1a 00
        E 120 90 18 60
        E 0 90 1a 60
        E 120 80 18 00
        E 0 80 1a 00
        E 120 90 1a 60
        E 120 80 1a 00
        E 120 90 18 60
        E 0 90 1a 60
        E 120 80 18 00
        E 0 80 1a 00
        E 120 90 1a 60
        E 120 80 1a 00
        E 120 90 18 60
        E 0 90 1a 60
        E 120 80 18 00
        E 0 80 1a 00
        E 120 90 1a 60
        E 120 80 1a 00
        E 120 90 18 60
        E 0 90 1a 60
        E 120 80 18 00
        E 0 80 1a 00
        E 120 90 1a 60
        E 120 80 1a 00
        E 120 90 18 60
        E 0 90 1a 60
        E 120 80 18 00
        E 0 80 1a 00
        E 120 90 1a 60
        E 120 80 1a 00
        <X 120 0
          /wFbcHJjX2ludHJvX2Jd
        >
        E 0 90 18 60
        E 0 90 1a 60
        E 120 80 18 00
        E 0 80 1a 00
        E 120 90 1a 60
        E 120 80 1a 00
        E 120 90 18 60
        E 0 90 19 60
        E 0 90 1a 60
        E 120 80 18 00
        E 0 80 19 00
        E 0 80 1a 00
        E 120 90 1a 60
        E 120 80 1a 00
        E 120 90 18 60
        E 0 90 1a 60
        E 120 80 18 00
        E 0 80 1a 00
        E 120 90 1a 60
        E 120 80 1a 00
        E 120 90 18 60
        E 0 90 19 60
        E 0 90 1a 60
        E 120 80 18 00
        E 0 80 19 00
        E 0 80 1a 00
        E 120 90 1a 60
        E 120 80 1a 00
        E 120 90 18 60
        E 0 90 1a 60
        E 120 80 18 00
        E 0 80 1a 00
        E 120 90 1a 60
        E 120 80 1a 00
        E 120 90 18 60
        E 0 90 19 60
        E 0 90 1a 60
        E 120 80 18 00
        E 0 80 19 00
        E 0 80 1a 00
        E 120 90 1a 60
        E 120 80 1a 00
        E 120 90 18 60
        E 0 90 1a 60
        E 120 80 18 00
        E 0 80 1a 00
        E 120 90 1a 60
        E 120 80 1a 00
        E 120 90 18 60
        E 0 90 19 60
        E 0 90 1a 60
        E 120 80 18 00
        E 0 80 19 00
        E 0 80 1a 00
        E 120 90 1a 60
        E 120 80 1a 00
        E 120 90 18 60
        E 0 90 1a 60
        E 120 80 18 00
        E 0 80 1a 00
        E 120 90 1a 60
        E 120 80 1a 00
        E 120 90 18 60
        E 0 90 19 60
        E 0 90 1a 60
        E 120 80 18 00
        E 0 80 19 00
        E 0 80 1a 00
        E 120 90 1a 60
        E 120 80 1a 00
        E 120 90 18 60
        E 0 90 1a 60
        E 120 80 18 00
        E 0 80 1a 00
        E 120 90 1a 60
        E 120 80 1a 00
        E 120 90 18 60
        E 0 90 19 60
        E 0 90 1a 60
        E 120 80 18 00
        E 0 80 19 00
        E 0 80 1a 00
        E 120 90 1a 60
        E 120 80 1a 00
        E 120 90 18 60
        E 0 90 1a 60
        E 120 80 18 00
        E 0 80 1a 00
        E 120 90 1a 60
        E 120 80 1a 00
        E 120 90 18 60
        E 0 90 19 60
        E 0 90 1a 60
        E 120 80 18 00
        E 0 80 19 00
        E 0 80 1a 00
        E 120 90 1a 60
        E 120 80 1a 00
        E 120 90 18 60
        E 0 90 1a 60
        E 120 80 18 00
        E 0 80 1a 00
        E 120 90 1a 60
        E 120 80 1a 00
        E 120 90 18 60
        E 0 90 19 60
        E 0 90 1a 60
        E 120 80 18 00
        E 0 80 19 00
        E 0 80 1a 00
        E 120 90 1a 60
        E 120 80 1a 00
        E 120 90 18 60
        E 0 90 1a 60
        E 120 80 18 00
        E 0 80 1a 00
        E 120 90 1a 60
        E 120 80 1a 00
        E 120 90 18 60
        E 0 90 19 60
        E 0 90 1a 60
        E 120 80 18 00
        E 0 80 19 00
        E 0 80 1a 00
        E 120 90 1a 60
        E 120 80 1a 00
        E 120 90 18 60
        E 0 90 1a 60
        E 120 80 18 00
        E 0 80 1a 00
        E 120 90 1a 60
        E 120 80 1a 00
        E 120 90 18 60
        E 0 90 19 60
        E 0 90 1a 60
        E 120 80 18 00
        E 0 80 19 00
        E 0 80 1a 00
        E 120 90 1a 60
        E 120 80 1a 00
        E 120 90 18 60
        E 0 90 1a 60
        E 120 80 18 00
        E 0 80 1a 00
        E 120 90 1a 60
        E 120 80 1a 00
        E 120 90 18 60
        E 0 90 19 60
        E 0 90 1a 60
        E 120 80 18 00
        E 0 80 19 00
        E 0 80 1a 00
        E 120 90 1a 60
        E 120 80 1a 00
        E 120 90 18 60
        E 0 90 1a 60
        E 120 80 18 00
        E 0 80 1a 00
        E 120 90 1a 60
        E 120 80 1a 00
        E 120 90 18 60
        E 0 90 19 60
        E 0 90 1a 60
        E 120 80 18 00
        E 0 80 19 00
        E 0 80 1a 00
        E 120 90 1a 60
        E 120 80 1a 00
        E 120 90 18 60
        E 0 90 1a 60
        E 120 80 18 00
        E 0 80 1a 00
        E 120 90 1a 60
        E 120 80 1a 00
        E 120 90 18 60
        E 0 90 19 60
        E 0 90 1a 60
        E 120 80 18 00
        E 0 80 19 00
        E 0 80 1a 00
        E 120 90 1a 60
        E 120 80 1a 00
        E 120 90 18 60
        E 0 90 1a 60
        E 120 80 18 00
        E 0 80 1a 00
        E 120 90 1a 60
        E 120 80 1a 00
        E 120 90 18 60
        E 0 90 19 60
        E 0 90 1a 60
        E 120 80 18 00
        E 0 80 19 00
        E 0 80 1a 00
        E 120 90 1a 60
        E 120 80 1a 00
        E 120 90 18 60
        E 0 90 1a 60
        E 120 80 18 00
        E 0 80 1a 00
        E 120 90 1a 60
        E 120 80 1a 00
        E 120 90 18 60
        E 0 90 19 60
        E 0 90 1a 60
        E 120 80 18 00
        E 0 80 19 00
        E 0 80 1a 00
        E 120 90 1a 60
        E 120 80 1a 00
        E 120 90 18 60
        E 0 90 1a 60
        E 120 80 18 00
        E 0 80 1a 00
        E 120 90 1a 60
        E 120 80 1a 00
        E 120 90 18 60
        E 0 90 19 60
        E 0 90 1a 60
        E 120 80 18 00
        E 0 80 19 00
        E 0 80 1a 00
        E 120 90 1a 60
        E 120 80 1a 00
        <X 120 0
          /wFbY3Jvd2RfaW50ZW5zZV0=
        >
        <X 0 0
          /wFbcHJjX291dHJvX2Fd
        >
        <X 0 0
          /wFbY3Jvd2RfY2xhcF0=
        >
        E 0 90 18 60
        E 0 90 1a 60
        E 120 80 18 00
        E 0 80 1a 00
        E 120 90 1a 60
        E 120 80 1a 00
        E 120 90 18 60
        E 0 90 1a 60
        E 120 80 18 00
        E 0 80 1a 00
        E 120 90 1a 60
        E 120 80 1a 00
        E 120 90 18 60
        E 0 90 1a 60
        E 120 80 18 00
        E 0 80 1a 00
        E 120 90 1a 60
        E 120 80 1a 00
        E 120 90 18 60
        E 0 90 19 60
        E 0 90 1a 60
        E 120 80 18 00
        E 0 80 19 00
        E 0 80 1a 00
        E 120 90 1a 60
        E 120 80 1a 00
        E 120 90 18 60
        E 0 90 1a 60
        E 120 80 18 00
        E 0 80 1a 00
        E 120 90 1a 60
        E 120 80 1a 00
        E 120 90 18 60
        E 0 90 1a 60
        E 120 80 18 00
        E 0 80 1a 00
        E 120 90 1a 60
        E 120 80 1a 00
        E 120 90 18 60
        E 0 90 1a 60
        E 120 80 18 00
        E 0 80 1a 00
        E 120 90 1a 60
        E 120 80 1a 00
        E 120 90 18 60
        E 0 90 19 60
        E 0 90 1a 60
        E 120 80 18 00
        E 0 80 19 00
        E 0 80 1a 00
        E 120 90 1a 60
        E 120 80 1a 00
        E 120 90 18 60
        E 0 90 1a 60
        E 120 80 18 00
        E 0 80 1a 00
        E 120 90 1a 60
        E 120 80 1a 00
        E 120 90 18 60
        E 0 90 1a 60
        E 120 80 18 00
        E 0 80 1a 00
        E 120 90 1a 60
        E 120 80 1a 00
        E 120 90 18 60
        E 0 90 1a 60
        E 120 80 18 00
        E 0 80 1a 00
        E 120 90 1a 60
        E 120 80 1a 00
        E 120 90 18 60
        E 0 90 19 60
        E 0 90 1a 60
        E 120 80 18 00
        E 0 80 19 00
        E 0 80 1a 00
        E 120 90 1a 60
        E 120 80 1a 00
        E 120 90 18 60
        E 0 90 1a 60
        E 120 80 18 00
        E 0 80 1a 00
        E 120 90 1a 60
        E 120 80 1a 00
        E 120 90 18 60
        E 0 90 1a 60
        E 120 80 18 00
        E 0 80 1a 00
        E 120 90 1a 60
        E 120 80 1a 00
        E 120 90 18 60
        E 0 90 1a 60
        E 120 80 18 00
        E 0 80 1a 00
        E 120 90 1a 60
        E 120 80 1a 00
        E 120 90 18 60
        E 0 90 19 60
        E 0 90 1a 60
        E 120 80 18 00
        E 0 80 19 00
        E 0 80 1a 00
        E 120 90 1a 60
        E 120 80 1a 00
        E 120 90 18 60
        E 0 90 1a 60
        E 120 80 18 00
        E 0 80 1a 00
        E 120 90 1a 60
        E 120 80 1a 00
        E 120 90 18 60
        E 0 90 1a 60
        E 120 80 18 00
        E 0 80 1a 00
        E 120 90 1a 60
        E 120 80 1a 00
        E 120 90 18 60
        E 0 90 1a 60
        E 120 80 18 00
        E 0 80 1a 00
        E 120 90 1a 60
        E 120 80 1a 00
        E 120 90 18 60
        E 0 90 19 60
        E 0 90 1a 60
        E 120 80 18 00
        E 0 80 19 00
        E 0 80 1a 00
        E 120 90 1a 60
        E 120 80 1a 00
        E 120 90 18 60
        E 0 90 1a 60
        E 120 80 18 00
        E 0 80 1a 00
        E 120 90 1a 60
        E 120 80 1a 00
        E 120 90 18 60
        E 0 90 1a 60
        E 120 80 18 00
        E 0 80 1a 00
        E 120 90 1a 60
        E 120 80 1a 00
        E 120 90 18 60
        E 0 90 1a 60
        E 120 80 18 00
        E 0 80 1a 00
        E 120 90 1a 60
        E 120 80 1a 00
        E 120 90 18 60
        E 0 90 19 60
        E 0 90 1a 60
        E 120 80 18 00
        E 0 80 19 00
        E 0 80 1a 00
        E 120 90 1a 60
        E 120 80 1a 00
        E 120 90 18 60
        E 0 90 1a 60
        E 120 80 18 00
        E 0 80 1a 00
        E 120 90 1a 60
        E 120 80 1a 00
        E 120 90 18 60
        E 0 90 1a 60
        E 120 80 18 00
        E 0 80 1a 00
        E 120 90 1a 60
        E 120 80 1a 00
        E 120 90 18 60
        E 0 90 1a 60
        E 120 80 18 00
        E 0 80 1a 00
        E 120 90 1a 60
        E 120 80 1a 00
        E 120 90 18 60
        E 0 90 19 60
        E 0 90 1a 60
        E 120 80 18 00
        E 0 80 19 00
        E 0 80 1a 00
        E 120 90 1a 60
        E 120 80 1a 00
        E 120 90 18 60
        E 0 90 1a 60
        E 120 80 18 00
        E 0 80 1a 00
        E 120 90 1a 60
        E 120 80 1a 00
        E 120 90 18 60
        E 0 90 1a 60
        E 120 80 18 00
        E 0 80 1a 00
        E 120 90 1a 60
        E 120 80 1a 00
        E 120 90 18 60
        E 0 90 1a 60
        E 120 80 18 00
        E 0 80 1a 00
        E 120 90 1a 60
        E 120 80 1a 00
        E 120 90 18 60
        E 0 90 19 60
        E 0 90 1a 60
        E 120 80 18 00
        E 0 80 19 00
        E 0 80 1a 00
        E 120 90 1a 60
        E 120 80 1a 00
        <X 120 0
          /wFbcHJjX291dHJvX2Jd
        >
        E 0 90 18 60
        E 0 90 1a 60
        E 120 80 18 00
        E 0 80 1a 00
        E 120 90 1a 60
        E 120 80 1a 00
        E 120 90 18 60
        E 0 90 19 60
        E 0 90 1a 60
        E 120 80 18 00
        E 0 80 19 00
        E 0 80 1a 00
        E 120 90 1a 60
        E 120 80 1a 00
        E 120 90 18 60
        E 0 90 1a 60
        E 120 80 18 00
        E 0 80 1a 00
        E 120 90 1a 60
        E 120 80 1a 00
        E 120 90 18 60
        E 0 90 19 60
        E 0 90 1a 60
        E 120 80 18 00
        E 0 80 19 00
        E 0 80 1a 00
        E 120 90 1a 60
        E 120 80 1a 00
        E 120 90 18 60
        E 0 90 1a 60
        E 120 80 18 00
        E 0 80 1a 00
        E 120 90 1a 60
        E 120 80 1a 00
        E 120 90 18 60
        E 0 90 19 60
        E 0 90 1a 60
        E 120 80 18 00
        E 0 80 19 00
        E 0 80 1a 00
        E 120 90 1a 60
        E 120 80 1a 00
        E 120 90 18 60
        E 0 90 1a 60
        E 120 80 18 00
        E 0 80 1a 00
        E 120 90 1a 60
        E 120 80 1a 00
        E 120 90 18 60
        E 0 90 19 60
        E 0 90 1a 60
        E 120 80 18 00
        E 0 80 19 00
        E 0 80 1a 00
        E 120 90 1a 60
        E 120 80 1a 00
        E 120 90 18 60
        E 0 90 1a 60
        E 120 80 18 00
        E 0 80 1a 00
        E 120 90 1a 60
        E 120 80 1a 00
        E 120 90 18 60
        E 0 90 19 60
        E 0 90 1a 60
        E 120 80 18 00
        E 0 80 19 00
        E 0 80 1a 00
        E 120 90 1a 60
        E 120 80 1a 00
        E 120 90 18 60
        E 0 90 1a 60
        E 120 80 18 00
        E 0 80 1a 00
        E 120 90 1a 60
        E 120 80 1a 00
        E 120 90 18 60
        E 0 90 19 60
        E 0 90 1a 60
        E 120 80 18 00
        E 0 80 19 00
        E 0 80 1a 00
        E 120 90 1a 60
        E 120 80 1a 00
        E 120 90 18 60
        E 0 90 1a 60
        E 120 80 18 00
        E 0 80 1a 00
        E 120 90 1a 60
        E 120 80 1a 00
        E 120 90 18 60
        E 0 90 19 60
        E 0 90 1a 60
        E 120 80 18 00
        E 0 80 19 00
        E 0 80 1a 00
        E 120 90 1a 60
        E 120 80 1a 00
        E 120 90 18 60
        E 0 90 1a 60
        E 120 80 18 00
        E 0 80 1a 00
        E 120 90 1a 60
        E 120 80 1a 00
        E 120 90 18 60
        E 0 90 19 60
        E 0 90 1a 60
        E 120 80 18 00
        E 0 80 19 00
        E 0 80 1a 00
        E 120 90 1a 60
        E 120 80 1a 00
        E 120 90 18 60
        E 0 90 1a 60
        E 120 80 18 00
        E 0 80 1a 00
        E 120 90 1a 60
        E 120 80 1a 00
        E 120 90 18 60
        E 0 90 19 60
        E 0 90 1a 60
        E 120 80 18 00
        E 0 80 19 00
        E 0 80 1a 00
        E 120 90 1a 60
        E 120 80 1a 00
        E 120 90 18 60
        E 0 90 1a 60
        E 120 80 18 00
        E 0 80 1a 00
        E 120 90 1a 60
        E 120 80 1a 00
        E 120 90 18 60
        E 0 90 19 60
        E 0 90 1a 60
        E 120 80 18 00
        E 0 80 19 00
        E 0 80 1a 00
        E 120 90 1a 60
        E 120 80 1a 00
        E 120 90 18 60
        E 0 90 1a 60
        E 120 80 18 00
        E 0 80 1a 00
        E 120 90 1a 60
        E 120 80 1a 00
        E 120 90 18 60
        E 0 90 19 60
        E 0 90 1a 60
        E 120 80 18 00
        E 0 80 19 00
        E 0 80 1a 00
        E 120 90 1a 60
        E 120 80 1a 00
        E 120 90 18 60
        E 0 90 1a 60
        E 120 80 18 00
        E 0 80 1a 00
        E 120 90 1a 60
        E 120 80 1a 00
        E 120 90 18 60
        E 0 90 19 60
        E 0 90 1a 60
        E 120 80 18 00
        E 0 80 19 00
        E 0 80 1a 00
        E 120 90 1a 60
        E 120 80 1a 00
        E 120 90 18 60
        E 0 90 1a 60
        E 120 80 18 00
        E 0 80 1a 00
        E 120 90 1a 60
        E 120 80 1a 00
        E 120 90 18 60
        E 0 90 19 60
        E 0 90 1a 60
        E 120 80 18 00
        E 0 80 19 00
        E 0 80 1a 00
        E 120 90 1a 60
        E 120 80 1a 00
        E 120 90 18 60
        E 0 90 1a 60
        E 120 80 18 00
        E 0 80 1a 00
        E 120 90 1a 60
        E 120 80 1a 00
        E 120 90 18 60
        E 0 90 19 60
        E 0 90 1a 60
        E 120 80 18 00
        E 0 80 19 00
        E 0 80 1a 00
        E 120 90 1a 60
        E 120 80 1a 00
        E 120 90 18 60
        E 0 90 1a 60
        E 120 80 18 00
        E 0 80 1a 00
        E 120 90 1a 60
        E 120 80 1a 00
        E 120 90 18 60
        E 0 90 19 60
        E 0 90 1a 60
        E 120 80 18 00
        E 0 80 19 00
        E 0 80 1a 00
        E 120 90 1a 60
        E 120 80 1a 00
        E 120 90 18 60
        E 0 90 1a 60
        E 120 80 18 00
        E 0 80 1a 00
        E 120 90 1a 60
        E 120 80 1a 00
        E 120 90 18 60
        E 0 90 19 60
        E 0 90 1a 60
        E 120 80 18 00
        E 0 80 19 00
        E 0 80 1a 00
        E 120 90 1a 60
        E 120 80 1a 00
        <X 120 0
          /wFbY3Jvd2Rfbm9jbGFwXQ==
        >
        E 0 90 18 60
        E 0 90 1a 60
        E 120 80 18 00
        E 0 80 1a 00
        E 360 90 1a 60
        E 120 80 1a 00
        E 360 90 1a 60
        E 120 80 1a 00
        E 360 90 1a 60
        E 120 80 1a 00
        <X 120 0
          /wFbY3Jvd2RfcmVhbHRpbWVd
        >
        <X 0 0
          /wFbbXVzaWNfZW5kXQ==
        >
        E 240 90 1a 60
        E 120 80 1a 00
        E 360 90 1a 60
        E 120 80 1a 00
        E 360 90 1a 60
        E 120 80 1a 00
        E 360 90 1a 60
        E 120 80 1a 00
        E 360 90 1a 60
        E 120 80 1a 00
        E 360 90 1a 60
        E 120 80 1a 00
        E 360 90 1a 60
        E 120 80 1a 00
        E 360 90 1a 60
        E 120 80 1a 00
        E 360 90 1a 60
        E 120 80 1a 00
        E 360 90 1a 60
        E 120 80 1a 00
        E 360 90 1a 60
        E 120 80 1a 00
        E 360 90 1a 60
        E 120 80 1a 00
        E 360 90 1a 60
        E 120 80 1a 00
        E 360 90 1a 60
        E 120 80 1a 00
        E 360 90 1a 60
        E 120 80 1a 00
        E 360 90 1a 60
        E 120 80 1a 00
        E 360 90 1a 60
        E 120 80 1a 00
        E 360 90 1a 60
        E 120 80 1a 00
        E 360 90 1a 60
        E 120 80 1a 00
        E 360 90 1a 60
        E 120 80 1a 00
        E 360 90 1a 60
        E 120 80 1a 00
        E 360 90 1a 60
        E 120 80 1a 00
        E 360 90 1a 60
        E 120 80 1a 00
        E 360 90 1a 60
        E 120 80 1a 00
        E 360 90 1a 60
        E 120 80 1a 00
        E 360 90 1a 60
        E 120 80 1a 00
        E 360 90 1a 60
        E 120 80 1a 00
        E 360 90 1a 60
        E 120 80 1a 00
        <X 355 0
          /wFbZW5kXQ==
        >
        E 5 b0 7b 00
        GUID {CA59232B-F715-4246-BB09-FB9E24B5D8CB}
        IGNTEMPO 0 120.00000000 4 4
        SRCCOLOR 17
        VELLANE 132 71 60
        COLORMAP "C:\Program Files\REAPER\Data\color_maps\rockband_guitarbass.png"
        CFGEDITVIEW 32954.808352 18.171657 101 12 0 0 0
        CFGEDIT 1 1 0 1 1 0 1 1 1 1 1 0.25000000 -4 0 1025 558 0 0 1 2 0.00000000 0 1 0 0 0.500000 0 0 1.000000 64
        KEYSNAP 0 0 "102034050607" 0 "Major"
        EVTFILTER 0 -1 -1 -1 -1 0 1 0 0 -1.00000000 -1.00000000
      >
    >
  >
  <TRACK '{6F14A68E-198F-4678-8859-A7F8D19E6534}'
    NAME "BEAT"
    PEAKCOL 16576
    BEAT -1
    AUTOMODE 0
    VOLPAN 1.00000000000000 0.00000000000000 -1.00000000000000 -1.00000000000000 1.00000000000000
    MUTESOLO 0 0 0
    IPHASE 0
    ISBUS 0 0
    BUSCOMP 0 0
    SHOWINMIX 1 0.666700 0.500000 1 0.500000 -1 -1 -1
    FREEMODE 0
    SEL 0
    REC 0 0 0 0 0 0 0
    VU 2
    TRACKHEIGHT 0 0
    INQ 0 0 0 0.5000000000 100 0 0 100
    NCHAN 2
    FX 1
    TRACKID {6F14A68E-198F-4678-8859-A7F8D19E6534}
    PERF 0
    MIDIOUT -1
    MAINSEND 1 0
    <ITEM
      POSITION 0.00000000000000
      SNAPOFFS 0.00000000000000
      LENGTH 85.23950400000001
      LOOP 0
      ALLTAKES 0
      SEL 0
      FADEIN 1 0.000000 0.000000 1 0
      FADEOUT 1 0.000000 0.000000 1 0
      MUTE 0
      IGUID {666A120B-515D-4EFF-A094-89720092FB30}
      IID 19
      NAME "BEAT"
      VOLPAN 1.000000 0.000000 1.000000 -1.000000
      SOFFS 0.00000000000000 0.00000000000000
      PLAYRATE 1.00000000000000 1 0.00000000000000 -1
      CHANMODE 0
      GUID {4197FC97-EC46-4F89-88C4-7F0692FB628F}
      <SOURCE MIDI
        HASDATA 1 480 QN
        POOLEDEVTS {59D68012-B20A-472E-A34B-2693D325C1C7}
        <X 0 0
          /wNCRUFU
        >
        E 0 96 0c 64
        E 120 86 0c 00
        E 360 96 0d 64
        E 120 86 0d 00
        E 360 96 0d 64
        E 120 86 0d 00
        E 360 96 0d 64
        E 120 86 0d 00
        E 360 96 0c 64
        E 120 86 0c 00
        E 360 96 0d 64
        E 120 86 0d 00
        E 360 96 0d 64
        E 120 86 0d 00
        E 360 96 0d 64
        E 120 86 0d 00
        E 360 96 0c 64
        E 120 86 0c 00
        E 360 96 0d 64
        E 120 86 0d 00
        E 360 96 0d 64
        E 120 86 0d 00
        E 360 96 0d 64
        E 120 86 0d 00
        E 360 96 0c 64
        E 120 86 0c 00
        E 360 96 0d 64
        E 120 86 0d 00
        E 360 96 0d 64
        E 120 86 0d 00
        E 360 96 0d 64
        E 120 86 0d 00
        E 360 96 0c 64
        E 120 86 0c 00
        E 360 96 0d 64
        E 120 86 0d 00
        E 360 96 0d 64
        E 120 86 0d 00
        E 360 96 0d 64
        E 120 86 0d 00
        E 360 96 0c 64
        E 120 86 0c 00
        E 360 96 0d 64
        E 120 86 0d 00
        E 360 96 0d 64
        E 120 86 0d 00
        E 360 96 0d 64
        E 120 86 0d 00
        E 360 96 0c 64
        E 120 86 0c 00
        E 360 96 0d 64
        E 120 86 0d 00
        E 360 96 0d 64
        E 120 86 0d 00
        E 360 96 0d 64
        E 120 86 0d 00
        E 360 96 0c 64
        E 120 86 0c 00
        E 360 96 0d 64
        E 120 86 0d 00
        E 360 96 0d 64
        E 120 86 0d 00
        E 360 96 0d 64
        E 120 86 0d 00
        E 360 96 0c 64
        E 120 86 0c 00
        E 360 96 0d 64
        E 120 86 0d 00
        E 360 96 0d 64
        E 120 86 0d 00
        E 360 96 0d 64
        E 120 86 0d 00
        E 360 96 0c 64
        E 120 86 0c 00
        E 360 96 0d 64
        E 120 86 0d 00
        E 360 96 0d 64
        E 120 86 0d 00
        E 360 96 0d 64
        E 120 86 0d 00
        E 360 96 0c 64
        E 120 86 0c 00
        E 360 96 0d 64
        E 120 86 0d 00
        E 360 96 0d 64
        E 120 86 0d 00
        E 360 96 0d 64
        E 120 86 0d 00
        E 360 96 0c 64
        E 120 86 0c 00
        E 360 96 0d 64
        E 120 86 0d 00
        E 360 96 0d 64
        E 120 86 0d 00
        E 360 96 0d 64
        E 120 86 0d 00
        E 360 96 0c 64
        E 120 86 0c 00
        E 360 96 0d 64
        E 120 86 0d 00
        E 360 96 0d 64
        E 120 86 0d 00
        E 360 96 0d 64
        E 120 86 0d 00
        E 360 96 0c 64
        E 120 86 0c 00
        E 360 96 0d 64
        E 120 86 0d 00
        E 360 96 0d 64
        E 120 86 0d 00
        E 360 96 0d 64
        E 120 86 0d 00
        E 360 96 0c 64
        E 120 86 0c 00
        E 360 96 0d 64
        E 120 86 0d 00
        E 360 96 0d 64
        E 120 86 0d 00
        E 360 96 0d 64
        E 120 86 0d 00
        E 360 96 0c 64
        E 120 86 0c 00
        E 360 96 0d 64
        E 120 86 0d 00
        E 360 96 0d 64
        E 120 86 0d 00
        E 360 96 0d 64
        E 120 86 0d 00
        E 360 96 0c 64
        E 120 86 0c 00
        E 360 96 0d 64
        E 120 86 0d 00
        E 360 96 0d 64
        E 120 86 0d 00
        E 360 96 0d 64
        E 120 86 0d 00
        E 360 96 0c 64
        E 120 86 0c 00
        E 360 96 0d 64
        E 120 86 0d 00
        E 360 96 0d 64
        E 120 86 0d 00
        E 360 96 0d 64
        E 120 86 0d 00
        E 360 96 0c 64
        E 120 86 0c 00
        E 360 96 0d 64
        E 120 86 0d 00
        E 360 96 0d 64
        E 120 86 0d 00
        E 360 96 0d 64
        E 120 86 0d 00
        E 360 96 0c 64
        E 120 86 0c 00
        E 360 96 0d 64
        E 120 86 0d 00
        E 360 96 0d 64
        E 120 86 0d 00
        E 360 96 0d 64
        E 120 86 0d 00
        E 360 96 0c 64
        E 120 86 0c 00
        E 360 96 0d 64
        E 120 86 0d 00
        E 360 96 0d 64
        E 120 86 0d 00
        E 360 96 0d 64
        E 120 86 0d 00
        E 360 96 0c 64
        E 120 86 0c 00
        E 360 96 0d 64
        E 120 86 0d 00
        E 360 96 0d 64
        E 120 86 0d 00
        E 360 96 0d 64
        E 120 86 0d 00
        E 360 96 0c 64
        E 120 86 0c 00
        E 360 96 0d 64
        E 120 86 0d 00
        E 360 96 0d 64
        E 120 86 0d 00
        E 360 96 0d 64
        E 120 86 0d 00
        E 360 96 0c 64
        E 120 86 0c 00
        E 360 96 0d 64
        E 120 86 0d 00
        E 360 96 0d 64
        E 120 86 0d 00
        E 360 96 0d 64
        E 120 86 0d 00
        E 360 96 0c 64
        E 120 86 0c 00
        E 360 96 0d 64
        E 120 86 0d 00
        E 360 96 0d 64
        E 120 86 0d 00
        E 360 96 0d 64
        E 120 86 0d 00
        E 360 96 0c 64
        E 120 86 0c 00
        E 360 96 0d 64
        E 120 86 0d 00
        E 360 96 0d 64
        E 120 86 0d 00
        E 360 96 0d 64
        E 120 86 0d 00
        E 360 96 0c 64
        E 120 86 0c 00
        E 360 96 0d 64
        E 120 86 0d 00
        E 360 96 0d 64
        E 120 86 0d 00
        E 360 96 0d 64
        E 120 86 0d 00
        E 360 96 0c 64
        E 120 86 0c 00
        E 360 96 0d 64
        E 120 86 0d 00
        E 360 96 0d 64
        E 120 86 0d 00
        E 360 96 0d 64
        E 120 86 0d 00
        E 360 96 0c 64
        E 120 86 0c 00
        E 360 96 0d 64
        E 120 86 0d 00
        E 360 96 0d 64
        E 120 86 0d 00
        E 360 96 0d 64
        E 120 86 0d 00
        E 360 96 0c 64
        E 120 86 0c 00
        E 360 96 0d 64
        E 120 86 0d 00
        E 360 96 0d 64
        E 120 86 0d 00
        E 360 96 0d 64
        E 120 86 0d 00
        E 360 96 0c 64
        E 120 86 0c 00
        E 360 96 0d 64
        E 120 86 0d 00
        E 360 96 0d 64
        E 120 86 0d 00
        E 360 96 0d 64
        E 120 86 0d 00
        E 360 96 0c 64
        E 120 86 0c 00
        E 360 96 0d 64
        E 120 86 0d 00
        E 360 96 0d 64
        E 120 86 0d 00
        E 360 96 0d 64
        E 120 86 0d 00
        E 360 96 0c 64
        E 120 86 0c 00
        E 360 96 0d 64
        E 120 86 0d 00
        E 360 96 0d 64
        E 120 86 0d 00
        E 360 96 0d 64
        E 120 86 0d 00
        E 360 96 0c 64
        E 120 86 0c 00
        E 360 96 0d 64
        E 120 86 0d 00
        E 360 96 0d 64
        E 120 86 0d 00
        E 360 96 0d 64
        E 120 86 0d 00
        E 360 96 0c 64
        E 120 86 0c 00
        E 360 96 0d 64
        E 120 86 0d 00
        E 360 96 0d 64
        E 120 86 0d 00
        E 360 96 0d 64
        E 120 86 0d 00
        E 360 96 0c 64
        E 120 86 0c 00
        E 360 96 0d 64
        E 120 86 0d 00
        E 360 96 0d 64
        E 120 86 0d 00
        E 360 96 0d 64
        E 120 86 0d 00
        E 360 96 0c 64
        E 120 86 0c 00
        E 360 96 0d 64
        E 120 86 0d 00
        E 360 96 0d 64
        E 120 86 0d 00
        E 360 96 0d 64
        E 120 86 0d 00
        E 360 96 0c 64
        E 120 86 0c 00
        E 360 96 0d 64
        E 120 86 0d 00
        E 360 96 0d 64
        E 120 86 0d 00
        E 360 96 0d 64
        E 120 86 0d 00
        E 360 96 0c 64
        E 120 86 0c 00
        E 360 96 0d 64
        E 120 86 0d 00
        E 360 96 0d 64
        E 120 86 0d 00
        E 360 96 0d 64
        E 120 86 0d 00
        E 360 96 0c 64
        E 120 86 0c 00
        E 360 96 0d 64
        E 120 86 0d 00
        E 360 96 0d 64
        E 120 86 0d 00
        E 360 96 0d 64
        E 120 86 0d 00
        E 360 96 0c 64
        E 120 86 0c 00
        E 360 96 0d 64
        E 120 86 0d 00
        E 360 96 0d 64
        E 120 86 0d 00
        E 360 96 0d 64
        E 120 86 0d 00
        E 360 96 0c 64
        E 120 86 0c 00
        E 360 96 0d 64
        E 120 86 0d 00
        E 360 96 0d 64
        E 120 86 0d 00
        E 360 96 0d 64
        E 120 86 0d 00
        E 360 b0 7b 00
        GUID {E6F0AE35-1D95-4D9F-9B51-DDCC89C21F4B}
        IGNTEMPO 0 120.00000000 4 4
        SRCCOLOR 18
        VELLANE 132 71 60
        COLORMAP "C:\Program Files\REAPER\Data\color_maps\rockband_guitarbass.png"
      >
    >
  >
  <TRACK '{AE6C2329-10F4-4EB5-9981-A7815E32F558}'
    NAME "backing"
    PEAKCOL 16576
    BEAT -1
    AUTOMODE 0
    VOLPAN 1.00000000000000 0.00000000000000 -1.00000000000000 -1.00000000000000 1.00000000000000
    MUTESOLO 0 0 0
    IPHASE 0
    ISBUS 0 0
    BUSCOMP 0 0
    SHOWINMIX 1 0.666700 0.500000 1 0.500000 -1 -1 -1
    FREEMODE 0
    SEL 0
    REC 0 0 0 0 0 0 0
    VU 2
    TRACKHEIGHT 0 0
    INQ 0 0 0 0.5000000000 100 0 0 100
    NCHAN 2
    FX 1
    TRACKID {AE6C2329-10F4-4EB5-9981-A7815E32F558}
    PERF 0
    MIDIOUT -1
    MAINSEND 1 0
    <ITEM
      POSITION 0.00000000000000
      SNAPOFFS 0.00000000000000
      LENGTH 85.23952380952380
      LOOP 0
      ALLTAKES 0
      SEL 0
      FADEIN 1 0.000000 0.000000 1 0
      FADEOUT 1 0.000000 0.000000 1 0
      MUTE 0
      IGUID {EF1D6017-919C-4E4C-81E3-C059E7272240}
      IID 73
      NAME "backing.wav"
      VOLPAN 1.000000 0.000000 1.000000 -1.000000
      SOFFS 0.00000000000000
      PLAYRATE 1.00000000000000 1 0.00000000000000 -1
      CHANMODE 0
      GUID {7C1898B9-E85E-4065-9D23-D33578B8C0E0}
      <SOURCE WAVE
        FILE "wav\backing.wav"
      >
    >
  >
  <EXTENSIONS
  >
>
