<REAPER_PROJECT 0.1 "4.22/x64"
  RIPPLE 0
  GROUPOVERRIDE 0 0 0
  AUTOXFADE 1
  ENVATTACH 1
  MIXERUIFLAGS 11 48
  PEAKGAIN 1.00000000000000
  FEEDBACK 0
  PANLAW 1.00000000000000
  PROJOFFS 0.00000000000000 0
  MAXPROJLEN 0 600.00000000000000
  GRID 3199 8 1.00000000000000 8 1.00000000000000 0
  TIMEMODE 1 0 -1
  PANMODE 3
  CURSOR 17.33525947327481
  ZOOM 10.39699279835391 0 0
  VZOOMEX 6
  USE_REC_CFG 0
  RECMODE 1
  SMPTESYNC 0 23.976024 100 40 1000 300 0 0.000000 1
  LOOP 1
  LOOPGRAN 0 4.00000000000000
  RECORD_PATH "" ""
  <RECORD_CFG
    ZXZhdxAD
  >
  <APPLYFX_CFG
  >
  RENDER_FILE "C:\Users\Ruggery\Desktop\backing.wav"
  RENDER_FMT 0 1 44100
  RENDER_1X 0
  RENDER_RANGE 2 0.00000000000000 0.00000000000000
  RENDER_RESAMPLE 3 0 1
  RENDER_ADDTOPROJ 0
  RENDER_STEMS 0
  RENDER_DITHER 0
  TIMELOCKMODE 0
  ITEMMIX 0
  DEFPITCHMODE 393216
  TAKELANE 1
  SAMPLERATE 44100 0 0
  <RENDER_CFG
    ZXZhdxAD
  >
  LOCK 1
  <METRONOME 6 2.000000
    VOL 0.250000 0.125000
    FREQ 800 1600 1
    BEATLEN 4
    SAMPLES "" ""
  >
  GLOBAL_AUTO -1
  TEMPO 179.97999999999999 4 4
  PLAYRATE 1.00000000000000 0 0.25000 4.00000
  SELECTION 108.01200133348151 0.00000000000000
  SELECTION2 108.01200133348151 0.00000000000000
  MASTERAUTOMODE 0
  MASTERTRACKHEIGHT 0
  MASTERPEAKCOL 16576
  MASTERMUTESOLO 0
  MASTERTRACKVIEW 0 0.666700 0.500000 0.500000 -1 -1 -1
  MASTERHWOUT 0 0 1.00000000000000 0.00000000000000 0 0 0 -1.00000000000000
  MASTER_NCH 2 2
  MASTER_VOLUME 1.00000000000000 0.00000000000000 -1.00000000000000 -1.00000000000000 1.00000000000000
  MASTER_PANMODE -1
  MASTER_FX 1
  MASTER_SEL 0
  <MASTERPLAYSPEEDENV
    ACT 0
    VIS 0 1 1.000000
    LANEHEIGHT 0 0
    ARM 0
    DEFSHAPE 0 -1 -1
  >
  <TEMPOENVEX
    ACT 1
    VIS 1 0 1.000000
    LANEHEIGHT 0 0
    ARM 0
    DEFSHAPE 1 -1 -1
    PT 0.000000000000 179.9800000000 1
  >
  <PROJBAY
  >
  <TRACK '{F03D94A7-C466-43F0-805F-01CF25701D98}'
    NAME "PART DRUMS"
    PEAKCOL 16576
    BEAT -1
    AUTOMODE 0
    VOLPAN 1.00000000000000 0.00000000000000 -1.00000000000000 -1.00000000000000 1.00000000000000
    MUTESOLO 0 0 0
    IPHASE 0
    ISBUS 1 1
    BUSCOMP 0 0
    SHOWINMIX 1 0.666700 0.500000 1 0.500000 -1 -1 -1
    FREEMODE 0
    SEL 0
    REC 0 0 0 0 0 0 0
    VU 2
    TRACKHEIGHT 0 0
    INQ 0 0 0 0.5000000000 100 0 0 100
    NCHAN 2
    FX 1
    TRACKID {F03D94A7-C466-43F0-805F-01CF25701D98}
    PERF 0
    MIDIOUT -1
    <MIDINOTENAMES
      0 127 "CYMBAL SWELLS"
      0 126 "DRUM ROLL"
      0 125 "---"
      0 124 "DRUM FILL"
      0 123 "DRUM FILL"
      0 122 "DRUM FILL"
      0 121 "DRUM FILL"
      0 120 "DRUM FILL (use all 5)"
      0 118 "----"
      0 116 "OVERDRIVE"
      0 114 "----"
      0 112 "TOM GEMS PAD 4"
      0 111 "TOM GEMS PAD 3"
      0 110 "TOM GEMS PAD 2"
      0 103 "Solo Marker"
      0 102 "----"
      0 100 "EXPERT Green"
      0 99 "EXPERT Blue"
      0 98 "EXPERT Yellow"
      0 97 "EXPERT Red"
      0 96 "EXPERT Kick"
      0 92 "----"
      0 88 "HARD Green"
      0 87 "HARD Blue"
      0 86 "HARD Yellow"
      0 85 "HARD Red"
      0 84 "HARD Kick"
      0 80 "----"
      0 76 "MEDIUM Green"
      0 75 "MEDIUM Blue"
      0 74 "MEDIUM Yellow"
      0 73 "MEDIUM Red"
      0 72 "MEDIUM Kick"
      0 68 "----"
      0 64 "EASY Green"
      0 63 "EASY Blue"
      0 62 "EASY Yellow"
      0 61 "EASY Red"
      0 60 "EASY Kick"
      0 56 "----"
      0 52 "-- DRUM ANIMATION --"
      0 51 "FLOOR TOM RH"
      0 50 "FLOOR TOM LH"
      0 49 "TOM2 RH"
      0 48 "TOM2 LH"
      0 47 "TOM1 RH"
      0 46 "TOM1 LH"
      0 45 "SOFT CRASH 2 LH"
      0 44 "CRASH 2 LH"
      0 43 "RIDE LH"
      0 42 "RIDE CYM RH"
      0 41 "CRASH2 CHOKE"
      0 40 "CRASH1 CHOKE"
      0 39 "CRASH2 SOFT RH"
      0 38 "CRASH2 HARD RH"
      0 37 "CRASH1 SOFT RH"
      0 36 "CRASH1 HARD RH"
      0 35 "CRASH1 SOFT LH"
      0 34 "CRASH1 HARD LH"
      0 32 "PERCUSSION RH"
      0 31 "HI-HAT RH"
      0 30 "HI-HAT LH"
      0 29 "SOFT SNARE RH"
      0 28 "SOFT SNARE LH"
      0 27 "SNARE RH"
      0 26 "SNARE LH"
      0 25 "HI-HAT OPEN"
      0 24 "KICK RF"
    >
    MAINSEND 1 0
    <FXCHAIN
      WNDRECT 383 167 891 559
      SHOW 0
      LASTSEL 0
      DOCKED 0
      BYPASS 0 0
      <VST "VSTi: RBN Preview (RBN)" "rbprev_vst64.dll" 0 ""
        dnBicu5e7f4AAAAAAgAAAAEAAAAAAAAAAgAAAAAAAAAEAAAAAQAAAA==
        AAAQAAMBqgAAABAAAAA=
      >
      FLOATPOS 0 0 0 0
      FXID {DEA37858-E7AB-43FA-9716-911D0CF4A1D4}
      WAK 0
    >
    <ITEM
      POSITION 0.00000000000000
      SNAPOFFS 0.00000000000000
      LENGTH 108.01200133348151
      LOOP 0
      ALLTAKES 0
      SEL 0
      FADEIN 1 0.000000 0.000000 1 0
      FADEOUT 1 0.000000 0.000000 1 0
      MUTE 0
      IGUID {0C5468FF-F13B-4902-A42F-C71FF86BC6F7}
      IID 7
      NAME "PART DRUMS"
      VOLPAN 1.000000 0.000000 1.000000 -1.000000
      SOFFS 0.00000000000000 0.00000000000000
      PLAYRATE 1.00000000000000 1 0.00000000000000 -1
      CHANMODE 0
      GUID {D9CB241D-D3C1-4216-884C-9E789280E9BD}
      <SOURCE MIDI
        HASDATA 1 480 QN
        POOLEDEVTS {5058115A-0F1C-4B44-B7FB-0105195F6DE7}
        <X 0 0
          /wNQQVJUIERSVU1T
        >
        E 0 90 19 60
        <X 240 0
          /wFbbWl4IDEgZHJ1bXM0XQ==
        >
        <X 0 0
          /wFbbWl4IDAgZHJ1bXM0XQ==
        >
        <X 120 0
          /wFbbWl4IDIgZHJ1bXM0XQ==
        >
        <X 120 0
          /wFbbWl4IDMgZHJ1bXM0XQ==
        >
        E 1440 80 19 00
        <X 1920 0
          /wFbcGxheV0=
        >
        <X 960 0
          /wFbbWl4IDMgZHJ1bXM0ZF0=
        >
        E 0 90 18 60
        E 0 90 3c 60
        E 0 90 48 60
        E 0 90 54 60
        E 0 90 60 60
        E 120 80 18 00
        E 0 80 3c 00
        E 0 80 48 00
        E 0 80 54 00
        E 0 80 60 00
        E 120 90 1a 60
        E 0 90 1f 60
        E 0 90 55 60
        E 0 90 56 60
        E 0 90 62 60
        E 120 80 1a 00
        E 0 80 1f 00
        E 0 80 55 00
        E 0 80 56 00
        E 0 80 62 00
        E 120 90 1a 60
        E 0 90 1f 60
        E 0 90 3d 60
        E 0 90 49 60
        E 0 90 55 60
        E 0 90 56 60
        E 0 90 62 60
        E 120 80 1a 00
        E 0 80 1f 00
        E 0 80 3d 00
        E 0 80 49 00
        E 0 80 55 00
        E 0 80 56 00
        E 0 80 62 00
        E 120 90 1a 60
        E 0 90 1f 60
        E 0 90 55 60
        E 0 90 56 60
        E 0 90 62 60
        E 120 80 1a 00
        E 0 80 1f 00
        E 0 80 55 00
        E 0 80 56 00
        E 0 80 62 00
        E 120 90 18 60
        E 0 90 1f 60
        E 0 90 3c 60
        E 0 90 48 60
        E 0 90 4a 60
        E 0 90 54 60
        E 0 90 56 60
        E 0 90 60 60
        E 0 90 61 60
        E 120 80 18 00
        E 0 80 1f 00
        E 0 80 3c 00
        E 0 80 48 00
        E 0 80 4a 00
        E 0 80 54 00
        E 0 80 56 00
        E 0 80 60 00
        E 0 80 61 00
        E 120 90 18 60
        E 0 90 1f 60
        E 0 90 54 60
        E 0 90 56 60
        E 0 90 60 60
        E 0 90 61 60
        E 120 80 18 00
        E 0 80 1f 00
        E 0 80 54 00
        E 0 80 56 00
        E 0 80 60 00
        E 0 80 61 00
        E 0 90 1e 60
        E 0 90 61 60
        E 120 80 1e 00
        E 0 80 61 00
        E 0 90 1b 60
        E 0 90 3d 60
        E 0 90 49 60
        E 0 90 4a 60
        E 0 90 55 60
        E 0 90 56 60
        E 0 90 62 60
        E 120 80 1b 00
        E 0 80 3d 00
        E 0 80 49 00
        E 0 80 4a 00
        E 0 80 55 00
        E 0 80 56 00
        E 0 80 62 00
        E 120 90 1f 60
        E 0 90 56 60
        E 0 90 61 60
        E 120 80 1f 00
        E 0 80 56 00
        E 0 80 61 00
        E 0 90 1e 60
        E 0 90 61 60
        E 120 80 1e 00
        E 0 80 61 00
        E 0 90 18 60
        E 0 90 1f 60
        E 0 90 48 60
        E 0 90 4a 60
        E 0 90 54 60
        E 0 90 56 60
        E 0 90 60 60
        E 0 90 61 60
        E 120 80 18 00
        E 0 80 1f 00
        E 0 80 48 00
        E 0 80 4a 00
        E 0 80 54 00
        E 0 80 56 00
        E 0 80 60 00
        E 0 80 61 00
        E 120 90 18 60
        E 0 90 1f 60
        E 0 90 54 60
        E 0 90 56 60
        E 0 90 60 60
        E 0 90 61 60
        E 120 80 18 00
        E 0 80 1f 00
        E 0 80 54 00
        E 0 80 56 00
        E 0 80 60 00
        E 0 80 61 00
        E 0 90 1e 60
        E 0 90 61 60
        E 120 80 1e 00
        E 0 80 61 00
        E 0 90 1b 60
        E 0 90 3d 60
        E 0 90 49 60
        E 0 90 4a 60
        E 0 90 55 60
        E 0 90 56 60
        E 0 90 62 60
        E 120 80 1b 00
        E 0 80 3d 00
        E 0 80 49 00
        E 0 80 4a 00
        E 0 80 55 00
        E 0 80 56 00
        E 0 80 62 00
        E 120 90 1f 60
        E 0 90 56 60
        E 0 90 61 60
        E 120 80 1f 00
        E 0 80 56 00
        E 0 80 61 00
        E 0 90 1e 60
        E 0 90 61 60
        E 120 80 1e 00
        E 0 80 61 00
        E 0 90 18 60
        E 0 90 1f 60
        E 0 90 48 60
        E 0 90 4a 60
        E 0 90 54 60
        E 0 90 56 60
        E 0 90 60 60
        E 0 90 61 60
        E 120 80 18 00
        E 0 80 1f 00
        E 0 80 48 00
        E 0 80 4a 00
        E 0 80 54 00
        E 0 80 56 00
        E 0 80 60 00
        E 0 80 61 00
        E 120 90 18 60
        E 0 90 1f 60
        E 0 90 54 60
        E 0 90 56 60
        E 0 90 60 60
        E 0 90 61 60
        E 120 80 18 00
        E 0 80 1f 00
        E 0 80 54 00
        E 0 80 56 00
        E 0 80 60 00
        E 0 80 61 00
        E 0 90 1e 60
        E 0 90 61 60
        E 120 80 1e 00
        E 0 80 61 00
        E 0 90 1b 60
        E 0 90 3d 60
        E 0 90 49 60
        E 0 90 4a 60
        E 0 90 55 60
        E 0 90 56 60
        E 0 90 62 60
        E 120 80 1b 00
        E 0 80 3d 00
        E 0 80 49 00
        E 0 80 4a 00
        E 0 80 55 00
        E 0 80 56 00
        E 0 80 62 00
        E 120 90 1f 60
        E 0 90 56 60
        E 0 90 61 60
        E 120 80 1f 00
        E 0 80 56 00
        E 0 80 61 00
        E 0 90 1e 60
        E 0 90 61 60
        E 120 80 1e 00
        E 0 80 61 00
        E 0 90 18 60
        E 0 90 1f 60
        E 0 90 48 60
        E 0 90 4a 60
        E 0 90 54 60
        E 0 90 56 60
        E 0 90 60 60
        E 0 90 61 60
        E 120 80 18 00
        E 0 80 1f 00
        E 0 80 48 00
        E 0 80 4a 00
        E 0 80 54 00
        E 0 80 56 00
        E 0 80 60 00
        E 0 80 61 00
        E 120 90 18 60
        E 0 90 1f 60
        E 0 90 54 60
        E 0 90 56 60
        E 0 90 60 60
        E 0 90 61 60
        E 120 80 18 00
        E 0 80 1f 00
        E 0 80 54 00
        E 0 80 56 00
        E 0 80 60 00
        E 0 80 61 00
        E 0 90 1e 60
        E 0 90 61 60
        E 120 80 1e 00
        E 0 80 61 00
        E 0 90 1b 60
        E 0 90 3d 60
        E 0 90 49 60
        E 0 90 4a 60
        E 0 90 55 60
        E 0 90 56 60
        E 0 90 62 60
        E 120 80 1b 00
        E 0 80 3d 00
        E 0 80 49 00
        E 0 80 4a 00
        E 0 80 55 00
        E 0 80 56 00
        E 0 80 62 00
        E 120 90 1f 60
        E 0 90 56 60
        E 0 90 61 60
        E 120 80 1f 00
        E 0 80 56 00
        E 0 80 61 00
        E 0 90 1e 60
        E 0 90 61 60
        E 120 80 1e 00
        E 0 80 61 00
        E 0 90 18 60
        E 0 90 1f 60
        E 0 90 3c 60
        E 0 90 48 60
        E 0 90 4a 60
        E 0 90 54 60
        E 0 90 56 60
        E 0 90 60 60
        E 0 90 61 60
        E 120 80 18 00
        E 0 80 1f 00
        E 0 80 3c 00
        E 0 80 48 00
        E 0 80 4a 00
        E 0 80 54 00
        E 0 80 56 00
        E 0 80 60 00
        E 0 80 61 00
        E 120 90 18 60
        E 0 90 1f 60
        E 0 90 54 60
        E 0 90 56 60
        E 0 90 60 60
        E 0 90 61 60
        E 120 80 18 00
        E 0 80 1f 00
        E 0 80 54 00
        E 0 80 56 00
        E 0 80 60 00
        E 0 80 61 00
        E 0 90 1e 60
        E 0 90 61 60
        E 120 80 1e 00
        E 0 80 61 00
        E 0 90 1b 60
        E 0 90 3d 60
        E 0 90 49 60
        E 0 90 4a 60
        E 0 90 55 60
        E 0 90 56 60
        E 0 90 62 60
        E 120 80 1b 00
        E 0 80 3d 00
        E 0 80 49 00
        E 0 80 4a 00
        E 0 80 55 00
        E 0 80 56 00
        E 0 80 62 00
        E 120 90 1f 60
        E 0 90 56 60
        E 0 90 61 60
        E 120 80 1f 00
        E 0 80 56 00
        E 0 80 61 00
        E 0 90 1e 60
        E 0 90 61 60
        E 120 80 1e 00
        E 0 80 61 00
        E 0 90 18 60
        E 0 90 1f 60
        E 0 90 48 60
        E 0 90 4a 60
        E 0 90 54 60
        E 0 90 56 60
        E 0 90 60 60
        E 0 90 61 60
        E 120 80 18 00
        E 0 80 1f 00
        E 0 80 48 00
        E 0 80 4a 00
        E 0 80 54 00
        E 0 80 56 00
        E 0 80 60 00
        E 0 80 61 00
        E 120 90 18 60
        E 0 90 1f 60
        E 0 90 54 60
        E 0 90 56 60
        E 0 90 60 60
        E 0 90 61 60
        E 120 80 18 00
        E 0 80 1f 00
        E 0 80 54 00
        E 0 80 56 00
        E 0 80 60 00
        E 0 80 61 00
        E 0 90 1e 60
        E 0 90 61 60
        E 120 80 1e 00
        E 0 80 61 00
        E 0 90 1b 60
        E 0 90 49 60
        E 0 90 4a 60
        E 0 90 55 60
        E 0 90 56 60
        E 0 90 62 60
        E 120 80 1b 00
        E 0 80 49 00
        E 0 80 4a 00
        E 0 80 55 00
        E 0 80 56 00
        E 0 80 62 00
        E 120 90 1f 60
        E 0 90 56 60
        E 0 90 61 60
        E 120 80 1f 00
        E 0 80 56 00
        E 0 80 61 00
        E 0 90 1e 60
        E 0 90 61 60
        E 120 80 1e 00
        E 0 80 61 00
        E 0 90 1a 60
        E 0 90 24 60
        E 0 90 3d 60
        E 0 90 40 60
        E 0 90 49 60
        E 0 90 4c 60
        E 0 90 55 60
        E 0 90 58 60
        E 0 90 62 60
        E 0 90 64 60
        E 0 90 74 60
        E 120 80 1a 00
        E 0 80 24 00
        E 0 80 3d 00
        E 0 80 40 00
        E 0 80 49 00
        E 0 80 4c 00
        E 0 80 55 00
        E 0 80 58 00
        E 0 80 62 00
        E 0 80 64 00
        E 120 90 18 60
        E 0 90 54 60
        E 0 90 60 60
        E 120 80 18 00
        E 0 80 54 00
        E 0 80 60 00
        E 120 90 1a 60
        E 0 90 24 60
        E 0 90 49 60
        E 0 90 4c 60
        E 0 90 55 60
        E 0 90 58 60
        E 0 90 62 60
        E 0 90 64 60
        E 120 80 1a 00
        E 0 80 24 00
        E 0 80 49 00
        E 0 80 4c 00
        E 0 80 55 00
        E 0 80 58 00
        E 0 80 62 00
        E 0 80 64 00
        E 120 90 18 60
        E 0 90 54 60
        E 0 90 60 60
        E 120 80 18 00
        E 0 80 54 00
        E 0 80 60 00
        E 120 90 1a 60
        E 0 90 24 60
        E 0 90 3d 60
        E 0 90 40 60
        E 0 90 49 60
        E 0 90 4c 60
        E 0 90 55 60
        E 0 90 58 60
        E 0 90 62 60
        E 0 90 64 60
        E 120 80 1a 00
        E 0 80 24 00
        E 0 80 3d 00
        E 0 80 40 00
        E 0 80 49 00
        E 0 80 4c 00
        E 0 80 55 00
        E 0 80 58 00
        E 0 80 62 00
        E 0 80 64 00
        E 120 90 1a 60
        E 0 90 24 60
        E 0 90 55 60
        E 0 90 58 60
        E 0 90 62 60
        E 0 90 64 60
        E 120 80 1a 00
        E 0 80 24 00
        E 0 80 55 00
        E 0 80 58 00
        E 0 80 62 00
        E 0 80 64 00
        E 120 90 1a 60
        E 0 90 24 60
        E 0 90 49 60
        E 0 90 4c 60
        E 0 90 55 60
        E 0 90 58 60
        E 0 90 62 60
        E 0 90 64 60
        E 120 80 1a 00
        E 0 80 24 00
        E 0 80 49 00
        E 0 80 4c 00
        E 0 80 55 00
        E 0 80 58 00
        E 0 80 62 00
        E 0 80 64 00
        E 120 90 1a 60
        E 0 90 24 60
        E 0 90 55 60
        E 0 90 58 60
        E 0 90 62 60
        E 0 90 64 60
        E 120 80 1a 00
        E 0 80 24 00
        E 0 80 55 00
        E 0 80 58 00
        E 0 80 62 00
        E 0 80 64 00
        E 120 80 74 00
        E 0 90 18 60
        E 0 90 1f 60
        E 0 90 3c 60
        E 0 90 48 60
        E 0 90 4a 60
        E 0 90 54 60
        E 0 90 56 60
        E 0 90 60 60
        E 0 90 61 60
        E 120 80 18 00
        E 0 80 1f 00
        E 0 80 3c 00
        E 0 80 48 00
        E 0 80 4a 00
        E 0 80 54 00
        E 0 80 56 00
        E 0 80 60 00
        E 0 80 61 00
        E 120 90 18 60
        E 0 90 1f 60
        E 0 90 54 60
        E 0 90 56 60
        E 0 90 60 60
        E 0 90 61 60
        E 120 80 18 00
        E 0 80 1f 00
        E 0 80 54 00
        E 0 80 56 00
        E 0 80 60 00
        E 0 80 61 00
        E 0 90 1e 60
        E 0 90 61 60
        E 120 80 1e 00
        E 0 80 61 00
        E 0 90 1b 60
        E 0 90 3d 60
        E 0 90 49 60
        E 0 90 4a 60
        E 0 90 55 60
        E 0 90 56 60
        E 0 90 62 60
        E 120 80 1b 00
        E 0 80 3d 00
        E 0 80 49 00
        E 0 80 4a 00
        E 0 80 55 00
        E 0 80 56 00
        E 0 80 62 00
        E 120 90 1f 60
        E 0 90 56 60
        E 0 90 61 60
        E 120 80 1f 00
        E 0 80 56 00
        E 0 80 61 00
        E 0 90 1e 60
        E 0 90 61 60
        E 120 80 1e 00
        E 0 80 61 00
        E 0 90 18 60
        E 0 90 1f 60
        E 0 90 48 60
        E 0 90 4a 60
        E 0 90 54 60
        E 0 90 56 60
        E 0 90 60 60
        E 0 90 61 60
        E 120 80 18 00
        E 0 80 1f 00
        E 0 80 48 00
        E 0 80 4a 00
        E 0 80 54 00
        E 0 80 56 00
        E 0 80 60 00
        E 0 80 61 00
        E 120 90 18 60
        E 0 90 1f 60
        E 0 90 54 60
        E 0 90 56 60
        E 0 90 60 60
        E 0 90 61 60
        E 120 80 18 00
        E 0 80 1f 00
        E 0 80 54 00
        E 0 80 56 00
        E 0 80 60 00
        E 0 80 61 00
        E 0 90 1e 60
        E 0 90 61 60
        E 120 80 1e 00
        E 0 80 61 00
        E 0 90 1b 60
        E 0 90 3d 60
        E 0 90 49 60
        E 0 90 4a 60
        E 0 90 55 60
        E 0 90 56 60
        E 0 90 62 60
        E 120 80 1b 00
        E 0 80 3d 00
        E 0 80 49 00
        E 0 80 4a 00
        E 0 80 55 00
        E 0 80 56 00
        E 0 80 62 00
        E 120 90 1f 60
        E 0 90 56 60
        E 0 90 61 60
        E 120 80 1f 00
        E 0 80 56 00
        E 0 80 61 00
        E 0 90 1e 60
        E 0 90 61 60
        E 120 80 1e 00
        E 0 80 61 00
        E 0 90 18 60
        E 0 90 1f 60
        E 0 90 48 60
        E 0 90 4a 60
        E 0 90 54 60
        E 0 90 56 60
        E 0 90 60 60
        E 0 90 61 60
        E 120 80 18 00
        E 0 80 1f 00
        E 0 80 48 00
        E 0 80 4a 00
        E 0 80 54 00
        E 0 80 56 00
        E 0 80 60 00
        E 0 80 61 00
        E 120 90 18 60
        E 0 90 1f 60
        E 0 90 54 60
        E 0 90 56 60
        E 0 90 60 60
        E 0 90 61 60
        E 120 80 18 00
        E 0 80 1f 00
        E 0 80 54 00
        E 0 80 56 00
        E 0 80 60 00
        E 0 80 61 00
        E 0 90 1e 60
        E 0 90 61 60
        E 120 80 1e 00
        E 0 80 61 00
        E 0 90 1b 60
        E 0 90 3d 60
        E 0 90 49 60
        E 0 90 4a 60
        E 0 90 55 60
        E 0 90 56 60
        E 0 90 62 60
        E 120 80 1b 00
        E 0 80 3d 00
        E 0 80 49 00
        E 0 80 4a 00
        E 0 80 55 00
        E 0 80 56 00
        E 0 80 62 00
        E 120 90 1f 60
        E 0 90 56 60
        E 0 90 61 60
        E 120 80 1f 00
        E 0 80 56 00
        E 0 80 61 00
        E 0 90 1e 60
        E 0 90 61 60
        E 120 80 1e 00
        E 0 80 61 00
        E 0 90 18 60
        E 0 90 1f 60
        E 0 90 48 60
        E 0 90 4a 60
        E 0 90 54 60
        E 0 90 56 60
        E 0 90 60 60
        E 0 90 61 60
        E 120 80 18 00
        E 0 80 1f 00
        E 0 80 48 00
        E 0 80 4a 00
        E 0 80 54 00
        E 0 80 56 00
        E 0 80 60 00
        E 0 80 61 00
        E 120 90 18 60
        E 0 90 1f 60
        E 0 90 54 60
        E 0 90 56 60
        E 0 90 60 60
        E 0 90 61 60
        E 120 80 18 00
        E 0 80 1f 00
        E 0 80 54 00
        E 0 80 56 00
        E 0 80 60 00
        E 0 80 61 00
        E 0 90 1e 60
        E 0 90 61 60
        E 120 80 1e 00
        E 0 80 61 00
        E 0 90 1b 60
        E 0 90 3d 60
        E 0 90 49 60
        E 0 90 4a 60
        E 0 90 55 60
        E 0 90 56 60
        E 0 90 62 60
        E 120 80 1b 00
        E 0 80 3d 00
        E 0 80 49 00
        E 0 80 4a 00
        E 0 80 55 00
        E 0 80 56 00
        E 0 80 62 00
        E 120 90 1f 60
        E 0 90 56 60
        E 0 90 61 60
        E 120 80 1f 00
        E 0 80 56 00
        E 0 80 61 00
        E 0 90 1e 60
        E 0 90 61 60
        E 120 80 1e 00
        E 0 80 61 00
        E 0 90 18 60
        E 0 90 1f 60
        E 0 90 3c 60
        E 0 90 48 60
        E 0 90 4a 60
        E 0 90 54 60
        E 0 90 56 60
        E 0 90 60 60
        E 0 90 61 60
        E 120 80 18 00
        E 0 80 1f 00
        E 0 80 3c 00
        E 0 80 48 00
        E 0 80 4a 00
        E 0 80 54 00
        E 0 80 56 00
        E 0 80 60 00
        E 0 80 61 00
        E 120 90 18 60
        E 0 90 1f 60
        E 0 90 54 60
        E 0 90 56 60
        E 0 90 60 60
        E 0 90 61 60
        E 120 80 18 00
        E 0 80 1f 00
        E 0 80 54 00
        E 0 80 56 00
        E 0 80 60 00
        E 0 80 61 00
        E 0 90 1e 60
        E 0 90 61 60
        E 120 80 1e 00
        E 0 80 61 00
        E 0 90 1b 60
        E 0 90 3d 60
        E 0 90 49 60
        E 0 90 4a 60
        E 0 90 55 60
        E 0 90 56 60
        E 0 90 62 60
        E 120 80 1b 00
        E 0 80 3d 00
        E 0 80 49 00
        E 0 80 4a 00
        E 0 80 55 00
        E 0 80 56 00
        E 0 80 62 00
        E 120 90 1f 60
        E 0 90 56 60
        E 0 90 61 60
        E 120 80 1f 00
        E 0 80 56 00
        E 0 80 61 00
        E 0 90 1e 60
        E 0 90 61 60
        E 120 80 1e 00
        E 0 80 61 00
        E 0 90 18 60
        E 0 90 1f 60
        E 0 90 48 60
        E 0 90 4a 60
        E 0 90 54 60
        E 0 90 56 60
        E 0 90 60 60
        E 0 90 61 60
        E 120 80 18 00
        E 0 80 1f 00
        E 0 80 48 00
        E 0 80 4a 00
        E 0 80 54 00
        E 0 80 56 00
        E 0 80 60 00
        E 0 80 61 00
        E 120 90 18 60
        E 0 90 1f 60
        E 0 90 54 60
        E 0 90 56 60
        E 0 90 60 60
        E 0 90 61 60
        E 120 80 18 00
        E 0 80 1f 00
        E 0 80 54 00
        E 0 80 56 00
        E 0 80 60 00
        E 0 80 61 00
        E 0 90 1e 60
        E 0 90 61 60
        E 120 80 1e 00
        E 0 80 61 00
        E 0 90 1b 60
        E 0 90 3d 60
        E 0 90 49 60
        E 0 90 4a 60
        E 0 90 55 60
        E 0 90 56 60
        E 0 90 62 60
        E 120 80 1b 00
        E 0 80 3d 00
        E 0 80 49 00
        E 0 80 4a 00
        E 0 80 55 00
        E 0 80 56 00
        E 0 80 62 00
        E 120 90 1f 60
        E 0 90 56 60
        E 0 90 61 60
        E 120 80 1f 00
        E 0 80 56 00
        E 0 80 61 00
        E 0 90 1e 60
        E 0 90 61 60
        E 120 80 1e 00
        E 0 80 61 00
        E 0 90 18 60
        E 0 90 1f 60
        E 0 90 48 60
        E 0 90 4a 60
        E 0 90 54 60
        E 0 90 56 60
        E 0 90 60 60
        E 0 90 61 60
        E 0 90 78 60
        E 0 90 79 60
        E 0 90 7a 60
        E 0 90 7b 60
        E 0 90 7c 60
        E 120 80 18 00
        E 0 80 1f 00
        E 0 80 48 00
        E 0 80 4a 00
        E 0 80 54 00
        E 0 80 56 00
        E 0 80 60 00
        E 0 80 61 00
        E 120 90 18 60
        E 0 90 1f 60
        E 0 90 54 60
        E 0 90 56 60
        E 0 90 60 60
        E 0 90 61 60
        E 120 80 18 00
        E 0 80 1f 00
        E 0 80 54 00
        E 0 80 56 00
        E 0 80 60 00
        E 0 80 61 00
        E 0 90 1e 60
        E 0 90 61 60
        E 120 80 1e 00
        E 0 80 61 00
        E 0 90 1b 60
        E 0 90 3d 60
        E 0 90 49 60
        E 0 90 4a 60
        E 0 90 55 60
        E 0 90 56 60
        E 0 90 62 60
        E 120 80 1b 00
        E 0 80 3d 00
        E 0 80 49 00
        E 0 80 4a 00
        E 0 80 55 00
        E 0 80 56 00
        E 0 80 62 00
        E 120 90 1f 60
        E 0 90 56 60
        E 0 90 61 60
        E 120 80 1f 00
        E 0 80 56 00
        E 0 80 61 00
        E 0 90 1e 60
        E 0 90 61 60
        E 120 80 1e 00
        E 0 80 61 00
        E 0 90 18 60
        E 0 90 48 60
        E 0 90 54 60
        E 0 90 60 60
        E 120 80 18 00
        E 0 80 48 00
        E 0 80 54 00
        E 0 80 60 00
        E 120 90 1a 60
        E 0 90 1f 60
        E 0 90 55 60
        E 0 90 56 60
        E 0 90 61 60
        E 0 90 62 60
        E 120 80 1a 00
        E 0 80 1f 00
        E 0 80 55 00
        E 0 80 56 00
        E 0 80 61 00
        E 0 80 62 00
        E 120 90 1a 60
        E 0 90 1f 60
        E 0 90 3d 60
        E 0 90 49 60
        E 0 90 55 60
        E 0 90 56 60
        E 0 90 61 60
        E 0 90 62 60
        E 120 80 1a 00
        E 0 80 1f 00
        E 0 80 3d 00
        E 0 80 49 00
        E 0 80 55 00
        E 0 80 56 00
        E 0 80 61 00
        E 0 80 62 00
        E 120 90 1a 60
        E 0 90 1f 60
        E 0 90 55 60
        E 0 90 56 60
        E 0 90 61 60
        E 0 90 62 60
        E 120 80 1a 00
        E 0 80 1f 00
        E 0 80 55 00
        E 0 80 56 00
        E 0 80 61 00
        E 0 80 62 00
        E 120 80 78 00
        E 0 80 79 00
        E 0 80 7a 00
        E 0 80 7b 00
        E 0 80 7c 00
        E 0 90 18 60
        E 0 90 1f 60
        E 0 90 3c 60
        E 0 90 48 60
        E 0 90 4a 60
        E 0 90 54 60
        E 0 90 56 60
        E 0 90 60 60
        E 0 90 61 60
        E 120 80 18 00
        E 0 80 1f 00
        E 0 80 3c 00
        E 0 80 48 00
        E 0 80 4a 00
        E 0 80 54 00
        E 0 80 56 00
        E 0 80 60 00
        E 0 80 61 00
        E 120 90 18 60
        E 0 90 1f 60
        E 0 90 54 60
        E 0 90 56 60
        E 0 90 60 60
        E 0 90 61 60
        E 120 80 18 00
        E 0 80 1f 00
        E 0 80 54 00
        E 0 80 56 00
        E 0 80 60 00
        E 0 80 61 00
        E 0 90 1e 60
        E 0 90 61 60
        E 120 80 1e 00
        E 0 80 61 00
        E 0 90 1b 60
        E 0 90 3d 60
        E 0 90 49 60
        E 0 90 4a 60
        E 0 90 55 60
        E 0 90 56 60
        E 0 90 62 60
        E 120 80 1b 00
        E 0 80 3d 00
        E 0 80 49 00
        E 0 80 4a 00
        E 0 80 55 00
        E 0 80 56 00
        E 0 80 62 00
        E 120 90 1f 60
        E 0 90 56 60
        E 0 90 61 60
        E 120 80 1f 00
        E 0 80 56 00
        E 0 80 61 00
        E 0 90 1e 60
        E 0 90 61 60
        E 120 80 1e 00
        E 0 80 61 00
        E 0 90 18 60
        E 0 90 1f 60
        E 0 90 48 60
        E 0 90 4a 60
        E 0 90 54 60
        E 0 90 56 60
        E 0 90 60 60
        E 0 90 61 60
        E 120 80 18 00
        E 0 80 1f 00
        E 0 80 48 00
        E 0 80 4a 00
        E 0 80 54 00
        E 0 80 56 00
        E 0 80 60 00
        E 0 80 61 00
        E 120 90 18 60
        E 0 90 1f 60
        E 0 90 54 60
        E 0 90 56 60
        E 0 90 60 60
        E 0 90 61 60
        E 120 80 18 00
        E 0 80 1f 00
        E 0 80 54 00
        E 0 80 56 00
        E 0 80 60 00
        E 0 80 61 00
        E 0 90 1e 60
        E 0 90 61 60
        E 120 80 1e 00
        E 0 80 61 00
        E 0 90 1b 60
        E 0 90 3d 60
        E 0 90 49 60
        E 0 90 4a 60
        E 0 90 55 60
        E 0 90 56 60
        E 0 90 62 60
        E 120 80 1b 00
        E 0 80 3d 00
        E 0 80 49 00
        E 0 80 4a 00
        E 0 80 55 00
        E 0 80 56 00
        E 0 80 62 00
        E 120 90 1f 60
        E 0 90 56 60
        E 0 90 61 60
        E 120 80 1f 00
        E 0 80 56 00
        E 0 80 61 00
        E 0 90 1e 60
        E 0 90 61 60
        E 120 80 1e 00
        E 0 80 61 00
        E 0 90 18 60
        E 0 90 1f 60
        E 0 90 48 60
        E 0 90 4a 60
        E 0 90 54 60
        E 0 90 56 60
        E 0 90 60 60
        E 0 90 61 60
        E 120 80 18 00
        E 0 80 1f 00
        E 0 80 48 00
        E 0 80 4a 00
        E 0 80 54 00
        E 0 80 56 00
        E 0 80 60 00
        E 0 80 61 00
        E 120 90 18 60
        E 0 90 1f 60
        E 0 90 54 60
        E 0 90 56 60
        E 0 90 60 60
        E 0 90 61 60
        E 120 80 18 00
        E 0 80 1f 00
        E 0 80 54 00
        E 0 80 56 00
        E 0 80 60 00
        E 0 80 61 00
        E 0 90 1e 60
        E 0 90 61 60
        E 120 80 1e 00
        E 0 80 61 00
        E 0 90 1b 60
        E 0 90 3d 60
        E 0 90 49 60
        E 0 90 4a 60
        E 0 90 55 60
        E 0 90 56 60
        E 0 90 62 60
        E 120 80 1b 00
        E 0 80 3d 00
        E 0 80 49 00
        E 0 80 4a 00
        E 0 80 55 00
        E 0 80 56 00
        E 0 80 62 00
        E 120 90 1f 60
        E 0 90 56 60
        E 0 90 61 60
        E 120 80 1f 00
        E 0 80 56 00
        E 0 80 61 00
        E 0 90 1e 60
        E 0 90 61 60
        E 120 80 1e 00
        E 0 80 61 00
        E 0 90 18 60
        E 0 90 1f 60
        E 0 90 48 60
        E 0 90 4a 60
        E 0 90 54 60
        E 0 90 56 60
        E 0 90 60 60
        E 0 90 61 60
        E 120 80 18 00
        E 0 80 1f 00
        E 0 80 48 00
        E 0 80 4a 00
        E 0 80 54 00
        E 0 80 56 00
        E 0 80 60 00
        E 0 80 61 00
        E 120 90 18 60
        E 0 90 1f 60
        E 0 90 54 60
        E 0 90 56 60
        E 0 90 60 60
        E 0 90 61 60
        E 120 80 18 00
        E 0 80 1f 00
        E 0 80 54 00
        E 0 80 56 00
        E 0 80 60 00
        E 0 80 61 00
        E 0 90 1e 60
        E 0 90 61 60
        E 120 80 1e 00
        E 0 80 61 00
        E 0 90 1b 60
        E 0 90 3d 60
        E 0 90 49 60
        E 0 90 4a 60
        E 0 90 55 60
        E 0 90 56 60
        E 0 90 62 60
        E 120 80 1b 00
        E 0 80 3d 00
        E 0 80 49 00
        E 0 80 4a 00
        E 0 80 55 00
        E 0 80 56 00
        E 0 80 62 00
        E 120 90 1f 60
        E 0 90 56 60
        E 0 90 61 60
        E 120 80 1f 00
        E 0 80 56 00
        E 0 80 61 00
        E 0 90 1e 60
        E 0 90 61 60
        E 120 80 1e 00
        E 0 80 61 00
        E 0 90 18 60
        E 0 90 1f 60
        E 0 90 3c 60
        E 0 90 48 60
        E 0 90 4a 60
        E 0 90 54 60
        E 0 90 56 60
        E 0 90 60 60
        E 0 90 61 60
        E 120 80 18 00
        E 0 80 1f 00
        E 0 80 3c 00
        E 0 80 48 00
        E 0 80 4a 00
        E 0 80 54 00
        E 0 80 56 00
        E 0 80 60 00
        E 0 80 61 00
        E 120 90 18 60
        E 0 90 1f 60
        E 0 90 54 60
        E 0 90 56 60
        E 0 90 60 60
        E 0 90 61 60
        E 120 80 18 00
        E 0 80 1f 00
        E 0 80 54 00
        E 0 80 56 00
        E 0 80 60 00
        E 0 80 61 00
        E 0 90 1e 60
        E 0 90 61 60
        E 120 80 1e 00
        E 0 80 61 00
        E 0 90 1b 60
        E 0 90 3d 60
        E 0 90 49 60
        E 0 90 4a 60
        E 0 90 55 60
        E 0 90 56 60
        E 0 90 62 60
        E 120 80 1b 00
        E 0 80 3d 00
        E 0 80 49 00
        E 0 80 4a 00
        E 0 80 55 00
        E 0 80 56 00
        E 0 80 62 00
        E 120 90 1f 60
        E 0 90 56 60
        E 0 90 61 60
        E 120 80 1f 00
        E 0 80 56 00
        E 0 80 61 00
        E 0 90 1e 60
        E 0 90 61 60
        E 120 80 1e 00
        E 0 80 61 00
        E 0 90 18 60
        E 0 90 1f 60
        E 0 90 48 60
        E 0 90 4a 60
        E 0 90 54 60
        E 0 90 56 60
        E 0 90 60 60
        E 0 90 61 60
        E 120 80 18 00
        E 0 80 1f 00
        E 0 80 48 00
        E 0 80 4a 00
        E 0 80 54 00
        E 0 80 56 00
        E 0 80 60 00
        E 0 80 61 00
        E 120 90 18 60
        E 0 90 1f 60
        E 0 90 54 60
        E 0 90 56 60
        E 0 90 60 60
        E 0 90 61 60
        E 120 80 18 00
        E 0 80 1f 00
        E 0 80 54 00
        E 0 80 56 00
        E 0 80 60 00
        E 0 80 61 00
        E 0 90 1e 60
        E 0 90 61 60
        E 120 80 1e 00
        E 0 80 61 00
        E 0 90 1b 60
        E 0 90 3d 60
        E 0 90 49 60
        E 0 90 4a 60
        E 0 90 55 60
        E 0 90 56 60
        E 0 90 62 60
        E 120 80 1b 00
        E 0 80 3d 00
        E 0 80 49 00
        E 0 80 4a 00
        E 0 80 55 00
        E 0 80 56 00
        E 0 80 62 00
        E 120 90 1f 60
        E 0 90 56 60
        E 0 90 61 60
        E 120 80 1f 00
        E 0 80 56 00
        E 0 80 61 00
        E 0 90 1e 60
        E 0 90 61 60
        E 120 80 1e 00
        E 0 80 61 00
        E 0 90 18 60
        E 0 90 1f 60
        E 0 90 48 60
        E 0 90 4a 60
        E 0 90 54 60
        E 0 90 56 60
        E 0 90 60 60
        E 0 90 61 60
        E 0 90 78 60
        E 0 90 79 60
        E 0 90 7a 60
        E 0 90 7b 60
        E 0 90 7c 60
        E 120 80 18 00
        E 0 80 1f 00
        E 0 80 48 00
        E 0 80 4a 00
        E 0 80 54 00
        E 0 80 56 00
        E 0 80 60 00
        E 0 80 61 00
        E 120 90 18 60
        E 0 90 1f 60
        E 0 90 54 60
        E 0 90 56 60
        E 0 90 60 60
        E 0 90 61 60
        E 120 80 18 00
        E 0 80 1f 00
        E 0 80 54 00
        E 0 80 56 00
        E 0 80 60 00
        E 0 80 61 00
        E 0 90 1e 60
        E 0 90 61 60
        E 120 80 1e 00
        E 0 80 61 00
        E 0 90 1b 60
        E 0 90 3d 60
        E 0 90 49 60
        E 0 90 4a 60
        E 0 90 55 60
        E 0 90 56 60
        E 0 90 62 60
        E 120 80 1b 00
        E 0 80 3d 00
        E 0 80 49 00
        E 0 80 4a 00
        E 0 80 55 00
        E 0 80 56 00
        E 0 80 62 00
        E 120 90 1f 60
        E 0 90 56 60
        E 0 90 61 60
        E 120 80 1f 00
        E 0 80 56 00
        E 0 80 61 00
        E 0 90 1e 60
        E 0 90 61 60
        E 120 80 1e 00
        E 0 80 61 00
        E 0 90 18 60
        E 0 90 48 60
        E 0 90 54 60
        E 0 90 60 60
        E 120 80 18 00
        E 0 80 48 00
        E 0 80 54 00
        E 0 80 60 00
        E 120 90 1a 60
        E 0 90 1f 60
        E 0 90 55 60
        E 0 90 56 60
        E 0 90 61 60
        E 0 90 62 60
        E 120 80 1a 00
        E 0 80 1f 00
        E 0 80 55 00
        E 0 80 56 00
        E 0 80 61 00
        E 0 80 62 00
        E 120 90 1a 60
        E 0 90 1f 60
        E 0 90 3d 60
        E 0 90 49 60
        E 0 90 55 60
        E 0 90 56 60
        E 0 90 61 60
        E 0 90 62 60
        E 120 80 1a 00
        E 0 80 1f 00
        E 0 80 3d 00
        E 0 80 49 00
        E 0 80 55 00
        E 0 80 56 00
        E 0 80 61 00
        E 0 80 62 00
        E 120 90 1a 60
        E 0 90 1f 60
        E 0 90 55 60
        E 0 90 56 60
        E 0 90 61 60
        E 0 90 62 60
        E 120 80 1a 00
        E 0 80 1f 00
        E 0 80 55 00
        E 0 80 56 00
        E 0 80 61 00
        E 0 80 62 00
        E 120 80 78 00
        E 0 80 79 00
        E 0 80 7a 00
        E 0 80 7b 00
        E 0 80 7c 00
        E 0 90 18 60
        E 0 90 1f 60
        E 0 90 3c 60
        E 0 90 48 60
        E 0 90 4a 60
        E 0 90 54 60
        E 0 90 56 60
        E 0 90 60 60
        E 0 90 61 60
        E 120 80 18 00
        E 0 80 1f 00
        E 0 80 3c 00
        E 0 80 48 00
        E 0 80 4a 00
        E 0 80 54 00
        E 0 80 56 00
        E 0 80 60 00
        E 0 80 61 00
        E 120 90 18 60
        E 0 90 1f 60
        E 0 90 54 60
        E 0 90 56 60
        E 0 90 60 60
        E 0 90 61 60
        E 120 80 18 00
        E 0 80 1f 00
        E 0 80 54 00
        E 0 80 56 00
        E 0 80 60 00
        E 0 80 61 00
        E 0 90 1e 60
        E 0 90 61 60
        E 120 80 1e 00
        E 0 80 61 00
        E 0 90 1b 60
        E 0 90 3d 60
        E 0 90 49 60
        E 0 90 4a 60
        E 0 90 55 60
        E 0 90 56 60
        E 0 90 62 60
        E 120 80 1b 00
        E 0 80 3d 00
        E 0 80 49 00
        E 0 80 4a 00
        E 0 80 55 00
        E 0 80 56 00
        E 0 80 62 00
        E 120 90 1f 60
        E 0 90 56 60
        E 0 90 61 60
        E 120 80 1f 00
        E 0 80 56 00
        E 0 80 61 00
        E 0 90 1e 60
        E 0 90 61 60
        E 120 80 1e 00
        E 0 80 61 00
        E 0 90 18 60
        E 0 90 1f 60
        E 0 90 48 60
        E 0 90 4a 60
        E 0 90 54 60
        E 0 90 56 60
        E 0 90 60 60
        E 0 90 61 60
        E 120 80 18 00
        E 0 80 1f 00
        E 0 80 48 00
        E 0 80 4a 00
        E 0 80 54 00
        E 0 80 56 00
        E 0 80 60 00
        E 0 80 61 00
        E 120 90 18 60
        E 0 90 1f 60
        E 0 90 54 60
        E 0 90 56 60
        E 0 90 60 60
        E 0 90 61 60
        E 120 80 18 00
        E 0 80 1f 00
        E 0 80 54 00
        E 0 80 56 00
        E 0 80 60 00
        E 0 80 61 00
        E 0 90 1e 60
        E 0 90 61 60
        E 120 80 1e 00
        E 0 80 61 00
        E 0 90 1b 60
        E 0 90 3d 60
        E 0 90 49 60
        E 0 90 4a 60
        E 0 90 55 60
        E 0 90 56 60
        E 0 90 62 60
        E 120 80 1b 00
        E 0 80 3d 00
        E 0 80 49 00
        E 0 80 4a 00
        E 0 80 55 00
        E 0 80 56 00
        E 0 80 62 00
        E 120 90 1f 60
        E 0 90 56 60
        E 0 90 61 60
        E 120 80 1f 00
        E 0 80 56 00
        E 0 80 61 00
        E 0 90 1e 60
        E 0 90 61 60
        E 120 80 1e 00
        E 0 80 61 00
        E 0 90 18 60
        E 0 90 1f 60
        E 0 90 48 60
        E 0 90 4a 60
        E 0 90 54 60
        E 0 90 56 60
        E 0 90 60 60
        E 0 90 61 60
        E 120 80 18 00
        E 0 80 1f 00
        E 0 80 48 00
        E 0 80 4a 00
        E 0 80 54 00
        E 0 80 56 00
        E 0 80 60 00
        E 0 80 61 00
        E 120 90 18 60
        E 0 90 1f 60
        E 0 90 54 60
        E 0 90 56 60
        E 0 90 60 60
        E 0 90 61 60
        E 120 80 18 00
        E 0 80 1f 00
        E 0 80 54 00
        E 0 80 56 00
        E 0 80 60 00
        E 0 80 61 00
        E 0 90 1e 60
        E 0 90 61 60
        E 120 80 1e 00
        E 0 80 61 00
        E 0 90 1b 60
        E 0 90 3d 60
        E 0 90 49 60
        E 0 90 4a 60
        E 0 90 55 60
        E 0 90 56 60
        E 0 90 62 60
        E 120 80 1b 00
        E 0 80 3d 00
        E 0 80 49 00
        E 0 80 4a 00
        E 0 80 55 00
        E 0 80 56 00
        E 0 80 62 00
        E 120 90 1f 60
        E 0 90 56 60
        E 0 90 61 60
        E 120 80 1f 00
        E 0 80 56 00
        E 0 80 61 00
        E 0 90 1e 60
        E 0 90 61 60
        E 120 80 1e 00
        E 0 80 61 00
        E 0 90 18 60
        E 0 90 1f 60
        E 0 90 48 60
        E 0 90 4a 60
        E 0 90 54 60
        E 0 90 56 60
        E 0 90 60 60
        E 0 90 61 60
        E 120 80 18 00
        E 0 80 1f 00
        E 0 80 48 00
        E 0 80 4a 00
        E 0 80 54 00
        E 0 80 56 00
        E 0 80 60 00
        E 0 80 61 00
        E 120 90 18 60
        E 0 90 1f 60
        E 0 90 54 60
        E 0 90 56 60
        E 0 90 60 60
        E 0 90 61 60
        E 120 80 18 00
        E 0 80 1f 00
        E 0 80 54 00
        E 0 80 56 00
        E 0 80 60 00
        E 0 80 61 00
        E 0 90 1e 60
        E 0 90 61 60
        E 120 80 1e 00
        E 0 80 61 00
        E 0 90 1b 60
        E 0 90 3d 60
        E 0 90 49 60
        E 0 90 4a 60
        E 0 90 55 60
        E 0 90 56 60
        E 0 90 62 60
        E 120 80 1b 00
        E 0 80 3d 00
        E 0 80 49 00
        E 0 80 4a 00
        E 0 80 55 00
        E 0 80 56 00
        E 0 80 62 00
        E 120 90 1f 60
        E 0 90 56 60
        E 0 90 61 60
        E 120 80 1f 00
        E 0 80 56 00
        E 0 80 61 00
        E 0 90 1e 60
        E 0 90 61 60
        E 120 80 1e 00
        E 0 80 61 00
        E 0 90 18 60
        E 0 90 1f 60
        E 0 90 48 60
        E 0 90 4a 60
        E 0 90 54 60
        E 0 90 56 60
        E 0 90 60 60
        E 0 90 61 60
        E 120 80 18 00
        E 0 80 1f 00
        E 0 80 48 00
        E 0 80 4a 00
        E 0 80 54 00
        E 0 80 56 00
        E 0 80 60 00
        E 0 80 61 00
        E 120 90 18 60
        E 0 90 1f 60
        E 0 90 54 60
        E 0 90 56 60
        E 0 90 60 60
        E 0 90 61 60
        E 120 80 18 00
        E 0 80 1f 00
        E 0 80 54 00
        E 0 80 56 00
        E 0 80 60 00
        E 0 80 61 00
        E 0 90 1e 60
        E 0 90 61 60
        E 120 80 1e 00
        E 0 80 61 00
        E 0 90 1b 60
        E 0 90 3d 60
        E 0 90 49 60
        E 0 90 4a 60
        E 0 90 55 60
        E 0 90 56 60
        E 0 90 62 60
        E 120 80 1b 00
        E 0 80 3d 00
        E 0 80 49 00
        E 0 80 4a 00
        E 0 80 55 00
        E 0 80 56 00
        E 0 80 62 00
        E 120 90 1f 60
        E 0 90 56 60
        E 0 90 61 60
        E 120 80 1f 00
        E 0 80 56 00
        E 0 80 61 00
        E 0 90 1e 60
        E 0 90 61 60
        E 120 80 1e 00
        E 0 80 61 00
        E 0 90 18 60
        E 0 90 1f 60
        E 0 90 48 60
        E 0 90 4a 60
        E 0 90 54 60
        E 0 90 56 60
        E 0 90 60 60
        E 0 90 61 60
        E 120 80 18 00
        E 0 80 1f 00
        E 0 80 48 00
        E 0 80 4a 00
        E 0 80 54 00
        E 0 80 56 00
        E 0 80 60 00
        E 0 80 61 00
        E 120 90 18 60
        E 0 90 1f 60
        E 0 90 54 60
        E 0 90 56 60
        E 0 90 60 60
        E 0 90 61 60
        E 120 80 18 00
        E 0 80 1f 00
        E 0 80 54 00
        E 0 80 56 00
        E 0 80 60 00
        E 0 80 61 00
        E 0 90 1e 60
        E 0 90 61 60
        E 120 80 1e 00
        E 0 80 61 00
        E 0 90 1b 60
        E 0 90 3d 60
        E 0 90 49 60
        E 0 90 4a 60
        E 0 90 55 60
        E 0 90 56 60
        E 0 90 62 60
        E 120 80 1b 00
        E 0 80 3d 00
        E 0 80 49 00
        E 0 80 4a 00
        E 0 80 55 00
        E 0 80 56 00
        E 0 80 62 00
        E 120 90 1f 60
        E 0 90 56 60
        E 0 90 61 60
        E 120 80 1f 00
        E 0 80 56 00
        E 0 80 61 00
        E 0 90 1e 60
        E 0 90 61 60
        E 120 80 1e 00
        E 0 80 61 00
        E 0 90 18 60
        E 0 90 1f 60
        E 0 90 48 60
        E 0 90 4a 60
        E 0 90 54 60
        E 0 90 56 60
        E 0 90 60 60
        E 0 90 61 60
        E 0 90 78 60
        E 0 90 79 60
        E 0 90 7a 60
        E 0 90 7b 60
        E 0 90 7c 60
        E 120 80 18 00
        E 0 80 1f 00
        E 0 80 48 00
        E 0 80 4a 00
        E 0 80 54 00
        E 0 80 56 00
        E 0 80 60 00
        E 0 80 61 00
        E 120 90 18 60
        E 0 90 1f 60
        E 0 90 54 60
        E 0 90 56 60
        E 0 90 60 60
        E 0 90 61 60
        E 120 80 18 00
        E 0 80 1f 00
        E 0 80 54 00
        E 0 80 56 00
        E 0 80 60 00
        E 0 80 61 00
        E 0 90 1e 60
        E 0 90 61 60
        E 120 80 1e 00
        E 0 80 61 00
        E 0 90 1b 60
        E 0 90 3d 60
        E 0 90 49 60
        E 0 90 4a 60
        E 0 90 55 60
        E 0 90 56 60
        E 0 90 62 60
        E 120 80 1b 00
        E 0 80 3d 00
        E 0 80 49 00
        E 0 80 4a 00
        E 0 80 55 00
        E 0 80 56 00
        E 0 80 62 00
        E 120 90 1f 60
        E 0 90 56 60
        E 0 90 61 60
        E 120 80 1f 00
        E 0 80 56 00
        E 0 80 61 00
        E 0 90 1e 60
        E 0 90 61 60
        E 120 80 1e 00
        E 0 80 61 00
        E 0 90 18 60
        E 0 90 48 60
        E 0 90 54 60
        E 0 90 60 60
        E 120 80 18 00
        E 0 80 48 00
        E 0 80 54 00
        E 0 80 60 00
        E 120 90 1a 60
        E 0 90 1f 60
        E 0 90 55 60
        E 0 90 56 60
        E 0 90 61 60
        E 0 90 62 60
        E 120 80 1a 00
        E 0 80 1f 00
        E 0 80 55 00
        E 0 80 56 00
        E 0 80 61 00
        E 0 80 62 00
        E 120 90 1a 60
        E 0 90 1f 60
        E 0 90 3d 60
        E 0 90 49 60
        E 0 90 55 60
        E 0 90 56 60
        E 0 90 61 60
        E 0 90 62 60
        E 120 80 1a 00
        E 0 80 1f 00
        E 0 80 3d 00
        E 0 80 49 00
        E 0 80 55 00
        E 0 80 56 00
        E 0 80 61 00
        E 0 80 62 00
        E 120 90 1a 60
        E 0 90 1f 60
        E 0 90 55 60
        E 0 90 56 60
        E 0 90 61 60
        E 0 90 62 60
        E 120 80 1a 00
        E 0 80 1f 00
        E 0 80 55 00
        E 0 80 56 00
        E 0 80 61 00
        E 0 80 62 00
        E 120 80 78 00
        E 0 80 79 00
        E 0 80 7a 00
        E 0 80 7b 00
        E 0 80 7c 00
        E 0 90 18 60
        E 0 90 1f 60
        E 0 90 3c 60
        E 0 90 48 60
        E 0 90 4a 60
        E 0 90 54 60
        E 0 90 56 60
        E 0 90 60 60
        E 0 90 61 60
        E 120 80 18 00
        E 0 80 1f 00
        E 0 80 3c 00
        E 0 80 48 00
        E 0 80 4a 00
        E 0 80 54 00
        E 0 80 56 00
        E 0 80 60 00
        E 0 80 61 00
        E 120 90 18 60
        E 0 90 1f 60
        E 0 90 54 60
        E 0 90 56 60
        E 0 90 60 60
        E 0 90 61 60
        E 120 80 18 00
        E 0 80 1f 00
        E 0 80 54 00
        E 0 80 56 00
        E 0 80 60 00
        E 0 80 61 00
        E 0 90 1e 60
        E 0 90 61 60
        E 120 80 1e 00
        E 0 80 61 00
        E 0 90 1b 60
        E 0 90 3d 60
        E 0 90 49 60
        E 0 90 4a 60
        E 0 90 55 60
        E 0 90 56 60
        E 0 90 62 60
        E 120 80 1b 00
        E 0 80 3d 00
        E 0 80 49 00
        E 0 80 4a 00
        E 0 80 55 00
        E 0 80 56 00
        E 0 80 62 00
        E 120 90 1f 60
        E 0 90 56 60
        E 0 90 61 60
        E 120 80 1f 00
        E 0 80 56 00
        E 0 80 61 00
        E 0 90 1e 60
        E 0 90 61 60
        E 120 80 1e 00
        E 0 80 61 00
        E 0 90 18 60
        E 0 90 1f 60
        E 0 90 48 60
        E 0 90 4a 60
        E 0 90 54 60
        E 0 90 56 60
        E 0 90 60 60
        E 0 90 61 60
        E 120 80 18 00
        E 0 80 1f 00
        E 0 80 48 00
        E 0 80 4a 00
        E 0 80 54 00
        E 0 80 56 00
        E 0 80 60 00
        E 0 80 61 00
        E 120 90 18 60
        E 0 90 1f 60
        E 0 90 54 60
        E 0 90 56 60
        E 0 90 60 60
        E 0 90 61 60
        E 120 80 18 00
        E 0 80 1f 00
        E 0 80 54 00
        E 0 80 56 00
        E 0 80 60 00
        E 0 80 61 00
        E 0 90 1e 60
        E 0 90 61 60
        E 120 80 1e 00
        E 0 80 61 00
        E 0 90 1b 60
        E 0 90 3d 60
        E 0 90 49 60
        E 0 90 4a 60
        E 0 90 55 60
        E 0 90 56 60
        E 0 90 62 60
        E 120 80 1b 00
        E 0 80 3d 00
        E 0 80 49 00
        E 0 80 4a 00
        E 0 80 55 00
        E 0 80 56 00
        E 0 80 62 00
        E 120 90 1f 60
        E 0 90 56 60
        E 0 90 61 60
        E 120 80 1f 00
        E 0 80 56 00
        E 0 80 61 00
        E 0 90 1e 60
        E 0 90 61 60
        E 120 80 1e 00
        E 0 80 61 00
        E 0 90 18 60
        E 0 90 1f 60
        E 0 90 48 60
        E 0 90 4a 60
        E 0 90 54 60
        E 0 90 56 60
        E 0 90 60 60
        E 0 90 61 60
        E 120 80 18 00
        E 0 80 1f 00
        E 0 80 48 00
        E 0 80 4a 00
        E 0 80 54 00
        E 0 80 56 00
        E 0 80 60 00
        E 0 80 61 00
        E 120 90 18 60
        E 0 90 1f 60
        E 0 90 54 60
        E 0 90 56 60
        E 0 90 60 60
        E 0 90 61 60
        E 120 80 18 00
        E 0 80 1f 00
        E 0 80 54 00
        E 0 80 56 00
        E 0 80 60 00
        E 0 80 61 00
        E 0 90 1e 60
        E 0 90 61 60
        E 120 80 1e 00
        E 0 80 61 00
        E 0 90 1b 60
        E 0 90 3d 60
        E 0 90 49 60
        E 0 90 4a 60
        E 0 90 55 60
        E 0 90 56 60
        E 0 90 62 60
        E 120 80 1b 00
        E 0 80 3d 00
        E 0 80 49 00
        E 0 80 4a 00
        E 0 80 55 00
        E 0 80 56 00
        E 0 80 62 00
        E 120 90 1f 60
        E 0 90 56 60
        E 0 90 61 60
        E 120 80 1f 00
        E 0 80 56 00
        E 0 80 61 00
        E 0 90 1e 60
        E 0 90 61 60
        E 120 80 1e 00
        E 0 80 61 00
        E 0 90 18 60
        E 0 90 1f 60
        E 0 90 48 60
        E 0 90 4a 60
        E 0 90 54 60
        E 0 90 56 60
        E 0 90 60 60
        E 0 90 61 60
        E 120 80 18 00
        E 0 80 1f 00
        E 0 80 48 00
        E 0 80 4a 00
        E 0 80 54 00
        E 0 80 56 00
        E 0 80 60 00
        E 0 80 61 00
        E 120 90 18 60
        E 0 90 1f 60
        E 0 90 54 60
        E 0 90 56 60
        E 0 90 60 60
        E 0 90 61 60
        E 120 80 18 00
        E 0 80 1f 00
        E 0 80 54 00
        E 0 80 56 00
        E 0 80 60 00
        E 0 80 61 00
        E 0 90 1e 60
        E 0 90 61 60
        E 120 80 1e 00
        E 0 80 61 00
        E 0 90 1b 60
        E 0 90 3d 60
        E 0 90 49 60
        E 0 90 4a 60
        E 0 90 55 60
        E 0 90 56 60
        E 0 90 62 60
        E 120 80 1b 00
        E 0 80 3d 00
        E 0 80 49 00
        E 0 80 4a 00
        E 0 80 55 00
        E 0 80 56 00
        E 0 80 62 00
        E 120 90 1f 60
        E 0 90 56 60
        E 0 90 61 60
        E 120 80 1f 00
        E 0 80 56 00
        E 0 80 61 00
        E 0 90 1e 60
        E 0 90 61 60
        E 120 80 1e 00
        E 0 80 61 00
        E 0 90 18 60
        E 0 90 1f 60
        E 0 90 48 60
        E 0 90 4a 60
        E 0 90 54 60
        E 0 90 56 60
        E 0 90 60 60
        E 0 90 61 60
        E 120 80 18 00
        E 0 80 1f 00
        E 0 80 48 00
        E 0 80 4a 00
        E 0 80 54 00
        E 0 80 56 00
        E 0 80 60 00
        E 0 80 61 00
        E 120 90 18 60
        E 0 90 1f 60
        E 0 90 54 60
        E 0 90 56 60
        E 0 90 60 60
        E 0 90 61 60
        E 120 80 18 00
        E 0 80 1f 00
        E 0 80 54 00
        E 0 80 56 00
        E 0 80 60 00
        E 0 80 61 00
        E 0 90 1e 60
        E 0 90 61 60
        E 120 80 1e 00
        E 0 80 61 00
        E 0 90 1b 60
        E 0 90 3d 60
        E 0 90 49 60
        E 0 90 4a 60
        E 0 90 55 60
        E 0 90 56 60
        E 0 90 62 60
        E 120 80 1b 00
        E 0 80 3d 00
        E 0 80 49 00
        E 0 80 4a 00
        E 0 80 55 00
        E 0 80 56 00
        E 0 80 62 00
        E 120 90 1f 60
        E 0 90 56 60
        E 0 90 61 60
        E 120 80 1f 00
        E 0 80 56 00
        E 0 80 61 00
        E 0 90 1e 60
        E 0 90 61 60
        E 120 80 1e 00
        E 0 80 61 00
        E 0 90 18 60
        E 0 90 1f 60
        E 0 90 48 60
        E 0 90 4a 60
        E 0 90 54 60
        E 0 90 56 60
        E 0 90 60 60
        E 0 90 61 60
        E 120 80 18 00
        E 0 80 1f 00
        E 0 80 48 00
        E 0 80 4a 00
        E 0 80 54 00
        E 0 80 56 00
        E 0 80 60 00
        E 0 80 61 00
        E 120 90 18 60
        E 0 90 1f 60
        E 0 90 54 60
        E 0 90 56 60
        E 0 90 60 60
        E 0 90 61 60
        E 120 80 18 00
        E 0 80 1f 00
        E 0 80 54 00
        E 0 80 56 00
        E 0 80 60 00
        E 0 80 61 00
        E 0 90 1e 60
        E 0 90 61 60
        E 120 80 1e 00
        E 0 80 61 00
        E 0 90 1b 60
        E 0 90 3d 60
        E 0 90 49 60
        E 0 90 4a 60
        E 0 90 55 60
        E 0 90 56 60
        E 0 90 62 60
        E 120 80 1b 00
        E 0 80 3d 00
        E 0 80 49 00
        E 0 80 4a 00
        E 0 80 55 00
        E 0 80 56 00
        E 0 80 62 00
        E 120 90 1f 60
        E 0 90 56 60
        E 0 90 61 60
        E 120 80 1f 00
        E 0 80 56 00
        E 0 80 61 00
        E 0 90 1e 60
        E 0 90 61 60
        E 120 80 1e 00
        E 0 80 61 00
        E 0 90 18 60
        E 0 90 1f 60
        E 0 90 48 60
        E 0 90 4a 60
        E 0 90 54 60
        E 0 90 56 60
        E 0 90 60 60
        E 0 90 61 60
        E 0 90 78 60
        E 0 90 79 60
        E 0 90 7a 60
        E 0 90 7b 60
        E 0 90 7c 60
        E 120 80 18 00
        E 0 80 1f 00
        E 0 80 48 00
        E 0 80 4a 00
        E 0 80 54 00
        E 0 80 56 00
        E 0 80 60 00
        E 0 80 61 00
        E 120 90 18 60
        E 0 90 1f 60
        E 0 90 54 60
        E 0 90 56 60
        E 0 90 60 60
        E 0 90 61 60
        E 120 80 18 00
        E 0 80 1f 00
        E 0 80 54 00
        E 0 80 56 00
        E 0 80 60 00
        E 0 80 61 00
        E 0 90 1e 60
        E 0 90 61 60
        E 120 80 1e 00
        E 0 80 61 00
        E 0 90 1b 60
        E 0 90 3d 60
        E 0 90 49 60
        E 0 90 4a 60
        E 0 90 55 60
        E 0 90 56 60
        E 0 90 62 60
        E 120 80 1b 00
        E 0 80 3d 00
        E 0 80 49 00
        E 0 80 4a 00
        E 0 80 55 00
        E 0 80 56 00
        E 0 80 62 00
        E 120 90 1f 60
        E 0 90 56 60
        E 0 90 61 60
        E 120 80 1f 00
        E 0 80 56 00
        E 0 80 61 00
        E 0 90 1e 60
        E 0 90 61 60
        E 120 80 1e 00
        E 0 80 61 00
        E 0 90 18 60
        E 0 90 48 60
        E 0 90 54 60
        E 0 90 60 60
        E 120 80 18 00
        E 0 80 48 00
        E 0 80 54 00
        E 0 80 60 00
        E 120 90 1a 60
        E 0 90 1f 60
        E 0 90 55 60
        E 0 90 56 60
        E 0 90 61 60
        E 0 90 62 60
        E 120 80 1a 00
        E 0 80 1f 00
        E 0 80 55 00
        E 0 80 56 00
        E 0 80 61 00
        E 0 80 62 00
        E 120 90 1a 60
        E 0 90 1f 60
        E 0 90 3d 60
        E 0 90 49 60
        E 0 90 55 60
        E 0 90 56 60
        E 0 90 61 60
        E 0 90 62 60
        E 120 80 1a 00
        E 0 80 1f 00
        E 0 80 3d 00
        E 0 80 49 00
        E 0 80 55 00
        E 0 80 56 00
        E 0 80 61 00
        E 0 80 62 00
        E 120 90 1a 60
        E 0 90 1f 60
        E 0 90 55 60
        E 0 90 56 60
        E 0 90 61 60
        E 0 90 62 60
        E 120 80 1a 00
        E 0 80 1f 00
        E 0 80 55 00
        E 0 80 56 00
        E 0 80 61 00
        E 0 80 62 00
        E 120 80 78 00
        E 0 80 79 00
        E 0 80 7a 00
        E 0 80 7b 00
        E 0 80 7c 00
        E 0 90 18 60
        E 0 90 1f 60
        E 0 90 3c 60
        E 0 90 48 60
        E 0 90 4a 60
        E 0 90 54 60
        E 0 90 56 60
        E 0 90 60 60
        E 0 90 61 60
        E 120 80 18 00
        E 0 80 1f 00
        E 0 80 3c 00
        E 0 80 48 00
        E 0 80 4a 00
        E 0 80 54 00
        E 0 80 56 00
        E 0 80 60 00
        E 0 80 61 00
        E 120 90 18 60
        E 0 90 1f 60
        E 0 90 54 60
        E 0 90 56 60
        E 0 90 60 60
        E 0 90 61 60
        E 120 80 18 00
        E 0 80 1f 00
        E 0 80 54 00
        E 0 80 56 00
        E 0 80 60 00
        E 0 80 61 00
        E 0 90 1e 60
        E 0 90 61 60
        E 120 80 1e 00
        E 0 80 61 00
        E 0 90 1b 60
        E 0 90 3d 60
        E 0 90 49 60
        E 0 90 4a 60
        E 0 90 55 60
        E 0 90 56 60
        E 0 90 62 60
        E 120 80 1b 00
        E 0 80 3d 00
        E 0 80 49 00
        E 0 80 4a 00
        E 0 80 55 00
        E 0 80 56 00
        E 0 80 62 00
        E 120 90 1f 60
        E 0 90 56 60
        E 0 90 61 60
        E 120 80 1f 00
        E 0 80 56 00
        E 0 80 61 00
        E 0 90 1e 60
        E 0 90 61 60
        E 120 80 1e 00
        E 0 80 61 00
        E 0 90 18 60
        E 0 90 1f 60
        E 0 90 48 60
        E 0 90 4a 60
        E 0 90 54 60
        E 0 90 56 60
        E 0 90 60 60
        E 0 90 61 60
        E 120 80 18 00
        E 0 80 1f 00
        E 0 80 48 00
        E 0 80 4a 00
        E 0 80 54 00
        E 0 80 56 00
        E 0 80 60 00
        E 0 80 61 00
        E 120 90 18 60
        E 0 90 1f 60
        E 0 90 54 60
        E 0 90 56 60
        E 0 90 60 60
        E 0 90 61 60
        E 120 80 18 00
        E 0 80 1f 00
        E 0 80 54 00
        E 0 80 56 00
        E 0 80 60 00
        E 0 80 61 00
        E 0 90 1e 60
        E 0 90 61 60
        E 120 80 1e 00
        E 0 80 61 00
        E 0 90 1b 60
        E 0 90 3d 60
        E 0 90 49 60
        E 0 90 4a 60
        E 0 90 55 60
        E 0 90 56 60
        E 0 90 62 60
        E 120 80 1b 00
        E 0 80 3d 00
        E 0 80 49 00
        E 0 80 4a 00
        E 0 80 55 00
        E 0 80 56 00
        E 0 80 62 00
        E 120 90 1f 60
        E 0 90 56 60
        E 0 90 61 60
        E 120 80 1f 00
        E 0 80 56 00
        E 0 80 61 00
        E 0 90 1e 60
        E 0 90 61 60
        E 120 80 1e 00
        E 0 80 61 00
        E 0 90 18 60
        E 0 90 1f 60
        E 0 90 48 60
        E 0 90 4a 60
        E 0 90 54 60
        E 0 90 56 60
        E 0 90 60 60
        E 0 90 61 60
        E 120 80 18 00
        E 0 80 1f 00
        E 0 80 48 00
        E 0 80 4a 00
        E 0 80 54 00
        E 0 80 56 00
        E 0 80 60 00
        E 0 80 61 00
        E 120 90 18 60
        E 0 90 1f 60
        E 0 90 54 60
        E 0 90 56 60
        E 0 90 60 60
        E 0 90 61 60
        E 120 80 18 00
        E 0 80 1f 00
        E 0 80 54 00
        E 0 80 56 00
        E 0 80 60 00
        E 0 80 61 00
        E 0 90 1e 60
        E 0 90 61 60
        E 120 80 1e 00
        E 0 80 61 00
        E 0 90 1b 60
        E 0 90 3d 60
        E 0 90 49 60
        E 0 90 4a 60
        E 0 90 55 60
        E 0 90 56 60
        E 0 90 62 60
        E 120 80 1b 00
        E 0 80 3d 00
        E 0 80 49 00
        E 0 80 4a 00
        E 0 80 55 00
        E 0 80 56 00
        E 0 80 62 00
        E 120 90 1f 60
        E 0 90 56 60
        E 0 90 61 60
        E 120 80 1f 00
        E 0 80 56 00
        E 0 80 61 00
        E 0 90 1e 60
        E 0 90 61 60
        E 120 80 1e 00
        E 0 80 61 00
        E 0 90 18 60
        E 0 90 1f 60
        E 0 90 48 60
        E 0 90 4a 60
        E 0 90 54 60
        E 0 90 56 60
        E 0 90 60 60
        E 0 90 61 60
        E 120 80 18 00
        E 0 80 1f 00
        E 0 80 48 00
        E 0 80 4a 00
        E 0 80 54 00
        E 0 80 56 00
        E 0 80 60 00
        E 0 80 61 00
        E 120 90 18 60
        E 0 90 1f 60
        E 0 90 54 60
        E 0 90 56 60
        E 0 90 60 60
        E 0 90 61 60
        E 120 80 18 00
        E 0 80 1f 00
        E 0 80 54 00
        E 0 80 56 00
        E 0 80 60 00
        E 0 80 61 00
        E 0 90 1e 60
        E 0 90 61 60
        E 120 80 1e 00
        E 0 80 61 00
        E 0 90 1b 60
        E 0 90 3d 60
        E 0 90 49 60
        E 0 90 4a 60
        E 0 90 55 60
        E 0 90 56 60
        E 0 90 62 60
        E 120 80 1b 00
        E 0 80 3d 00
        E 0 80 49 00
        E 0 80 4a 00
        E 0 80 55 00
        E 0 80 56 00
        E 0 80 62 00
        E 120 90 1f 60
        E 0 90 56 60
        E 0 90 61 60
        E 120 80 1f 00
        E 0 80 56 00
        E 0 80 61 00
        E 0 90 1e 60
        E 0 90 61 60
        E 120 80 1e 00
        E 0 80 61 00
        E 0 90 18 60
        E 0 90 1f 60
        E 0 90 48 60
        E 0 90 4a 60
        E 0 90 54 60
        E 0 90 56 60
        E 0 90 60 60
        E 0 90 61 60
        E 120 80 18 00
        E 0 80 1f 00
        E 0 80 48 00
        E 0 80 4a 00
        E 0 80 54 00
        E 0 80 56 00
        E 0 80 60 00
        E 0 80 61 00
        E 120 90 18 60
        E 0 90 1f 60
        E 0 90 54 60
        E 0 90 56 60
        E 0 90 60 60
        E 0 90 61 60
        E 120 80 18 00
        E 0 80 1f 00
        E 0 80 54 00
        E 0 80 56 00
        E 0 80 60 00
        E 0 80 61 00
        E 0 90 1e 60
        E 0 90 61 60
        E 120 80 1e 00
        E 0 80 61 00
        E 0 90 1b 60
        E 0 90 3d 60
        E 0 90 49 60
        E 0 90 4a 60
        E 0 90 55 60
        E 0 90 56 60
        E 0 90 62 60
        E 120 80 1b 00
        E 0 80 3d 00
        E 0 80 49 00
        E 0 80 4a 00
        E 0 80 55 00
        E 0 80 56 00
        E 0 80 62 00
        E 120 90 1f 60
        E 0 90 56 60
        E 0 90 61 60
        E 120 80 1f 00
        E 0 80 56 00
        E 0 80 61 00
        E 0 90 1e 60
        E 0 90 61 60
        E 120 80 1e 00
        E 0 80 61 00
        E 0 90 18 60
        E 0 90 1f 60
        E 0 90 48 60
        E 0 90 4a 60
        E 0 90 54 60
        E 0 90 56 60
        E 0 90 60 60
        E 0 90 61 60
        E 120 80 18 00
        E 0 80 1f 00
        E 0 80 48 00
        E 0 80 4a 00
        E 0 80 54 00
        E 0 80 56 00
        E 0 80 60 00
        E 0 80 61 00
        E 120 90 18 60
        E 0 90 1f 60
        E 0 90 54 60
        E 0 90 56 60
        E 0 90 60 60
        E 0 90 61 60
        E 120 80 18 00
        E 0 80 1f 00
        E 0 80 54 00
        E 0 80 56 00
        E 0 80 60 00
        E 0 80 61 00
        E 0 90 1e 60
        E 0 90 61 60
        E 120 80 1e 00
        E 0 80 61 00
        E 0 90 1b 60
        E 0 90 3d 60
        E 0 90 49 60
        E 0 90 4a 60
        E 0 90 55 60
        E 0 90 56 60
        E 0 90 62 60
        E 120 80 1b 00
        E 0 80 3d 00
        E 0 80 49 00
        E 0 80 4a 00
        E 0 80 55 00
        E 0 80 56 00
        E 0 80 62 00
        E 120 90 1f 60
        E 0 90 56 60
        E 0 90 61 60
        E 120 80 1f 00
        E 0 80 56 00
        E 0 80 61 00
        E 0 90 1e 60
        E 0 90 61 60
        E 120 80 1e 00
        E 0 80 61 00
        E 0 90 18 60
        E 0 90 1f 60
        E 0 90 48 60
        E 0 90 4a 60
        E 0 90 54 60
        E 0 90 56 60
        E 0 90 60 60
        E 0 90 61 60
        E 0 90 78 60
        E 0 90 79 60
        E 0 90 7a 60
        E 0 90 7b 60
        E 0 90 7c 60
        E 120 80 18 00
        E 0 80 1f 00
        E 0 80 48 00
        E 0 80 4a 00
        E 0 80 54 00
        E 0 80 56 00
        E 0 80 60 00
        E 0 80 61 00
        E 120 90 18 60
        E 0 90 1f 60
        E 0 90 54 60
        E 0 90 56 60
        E 0 90 60 60
        E 0 90 61 60
        E 120 80 18 00
        E 0 80 1f 00
        E 0 80 54 00
        E 0 80 56 00
        E 0 80 60 00
        E 0 80 61 00
        E 0 90 1e 60
        E 0 90 61 60
        E 120 80 1e 00
        E 0 80 61 00
        E 0 90 1b 60
        E 0 90 3d 60
        E 0 90 49 60
        E 0 90 4a 60
        E 0 90 55 60
        E 0 90 56 60
        E 0 90 62 60
        E 120 80 1b 00
        E 0 80 3d 00
        E 0 80 49 00
        E 0 80 4a 00
        E 0 80 55 00
        E 0 80 56 00
        E 0 80 62 00
        E 120 90 1f 60
        E 0 90 56 60
        E 0 90 61 60
        E 120 80 1f 00
        E 0 80 56 00
        E 0 80 61 00
        E 0 90 1e 60
        E 0 90 61 60
        E 120 80 1e 00
        E 0 80 61 00
        E 0 90 18 60
        E 0 90 48 60
        E 0 90 54 60
        E 0 90 60 60
        E 120 80 18 00
        E 0 80 48 00
        E 0 80 54 00
        E 0 80 60 00
        E 120 90 1a 60
        E 0 90 1f 60
        E 0 90 55 60
        E 0 90 56 60
        E 0 90 61 60
        E 0 90 62 60
        E 120 80 1a 00
        E 0 80 1f 00
        E 0 80 55 00
        E 0 80 56 00
        E 0 80 61 00
        E 0 80 62 00
        E 120 90 1a 60
        E 0 90 1f 60
        E 0 90 3d 60
        E 0 90 49 60
        E 0 90 55 60
        E 0 90 56 60
        E 0 90 61 60
        E 0 90 62 60
        E 120 80 1a 00
        E 0 80 1f 00
        E 0 80 3d 00
        E 0 80 49 00
        E 0 80 55 00
        E 0 80 56 00
        E 0 80 61 00
        E 0 80 62 00
        E 120 90 1a 60
        E 0 90 1f 60
        E 0 90 55 60
        E 0 90 56 60
        E 0 90 61 60
        E 0 90 62 60
        E 120 80 1a 00
        E 0 80 1f 00
        E 0 80 55 00
        E 0 80 56 00
        E 0 80 61 00
        E 0 80 62 00
        E 120 80 78 00
        E 0 80 79 00
        E 0 80 7a 00
        E 0 80 7b 00
        E 0 80 7c 00
        E 0 90 18 60
        E 0 90 1f 60
        E 0 90 3c 60
        E 0 90 48 60
        E 0 90 4a 60
        E 0 90 54 60
        E 0 90 56 60
        E 0 90 60 60
        E 0 90 61 60
        E 120 80 18 00
        E 0 80 1f 00
        E 0 80 3c 00
        E 0 80 48 00
        E 0 80 4a 00
        E 0 80 54 00
        E 0 80 56 00
        E 0 80 60 00
        E 0 80 61 00
        E 120 90 18 60
        E 0 90 1f 60
        E 0 90 54 60
        E 0 90 56 60
        E 0 90 60 60
        E 0 90 61 60
        E 120 80 18 00
        E 0 80 1f 00
        E 0 80 54 00
        E 0 80 56 00
        E 0 80 60 00
        E 0 80 61 00
        E 0 90 1e 60
        E 0 90 61 60
        E 120 80 1e 00
        E 0 80 61 00
        E 0 90 1b 60
        E 0 90 3d 60
        E 0 90 49 60
        E 0 90 4a 60
        E 0 90 55 60
        E 0 90 56 60
        E 0 90 62 60
        E 120 80 1b 00
        E 0 80 3d 00
        E 0 80 49 00
        E 0 80 4a 00
        E 0 80 55 00
        E 0 80 56 00
        E 0 80 62 00
        E 120 90 1f 60
        E 0 90 56 60
        E 0 90 61 60
        E 120 80 1f 00
        E 0 80 56 00
        E 0 80 61 00
        E 0 90 1e 60
        E 0 90 61 60
        E 120 80 1e 00
        E 0 80 61 00
        E 0 90 18 60
        E 0 90 1f 60
        E 0 90 48 60
        E 0 90 4a 60
        E 0 90 54 60
        E 0 90 56 60
        E 0 90 60 60
        E 0 90 61 60
        E 120 80 18 00
        E 0 80 1f 00
        E 0 80 48 00
        E 0 80 4a 00
        E 0 80 54 00
        E 0 80 56 00
        E 0 80 60 00
        E 0 80 61 00
        E 120 90 18 60
        E 0 90 1f 60
        E 0 90 54 60
        E 0 90 56 60
        E 0 90 60 60
        E 0 90 61 60
        E 120 80 18 00
        E 0 80 1f 00
        E 0 80 54 00
        E 0 80 56 00
        E 0 80 60 00
        E 0 80 61 00
        E 0 90 1e 60
        E 0 90 61 60
        E 120 80 1e 00
        E 0 80 61 00
        E 0 90 1b 60
        E 0 90 3d 60
        E 0 90 49 60
        E 0 90 4a 60
        E 0 90 55 60
        E 0 90 56 60
        E 0 90 62 60
        E 120 80 1b 00
        E 0 80 3d 00
        E 0 80 49 00
        E 0 80 4a 00
        E 0 80 55 00
        E 0 80 56 00
        E 0 80 62 00
        E 120 90 1f 60
        E 0 90 56 60
        E 0 90 61 60
        E 120 80 1f 00
        E 0 80 56 00
        E 0 80 61 00
        E 0 90 1e 60
        E 0 90 61 60
        E 120 80 1e 00
        E 0 80 61 00
        E 0 90 18 60
        E 0 90 1f 60
        E 0 90 48 60
        E 0 90 4a 60
        E 0 90 54 60
        E 0 90 56 60
        E 0 90 60 60
        E 0 90 61 60
        E 0 90 74 60
        E 120 80 18 00
        E 0 80 1f 00
        E 0 80 48 00
        E 0 80 4a 00
        E 0 80 54 00
        E 0 80 56 00
        E 0 80 60 00
        E 0 80 61 00
        E 120 90 18 60
        E 0 90 1f 60
        E 0 90 54 60
        E 0 90 56 60
        E 0 90 60 60
        E 0 90 61 60
        E 120 80 18 00
        E 0 80 1f 00
        E 0 80 54 00
        E 0 80 56 00
        E 0 80 60 00
        E 0 80 61 00
        E 0 90 1e 60
        E 0 90 61 60
        E 120 80 1e 00
        E 0 80 61 00
        E 0 90 1b 60
        E 0 90 3d 60
        E 0 90 49 60
        E 0 90 4a 60
        E 0 90 55 60
        E 0 90 56 60
        E 0 90 62 60
        E 120 80 1b 00
        E 0 80 3d 00
        E 0 80 49 00
        E 0 80 4a 00
        E 0 80 55 00
        E 0 80 56 00
        E 0 80 62 00
        E 120 90 1f 60
        E 0 90 56 60
        E 0 90 61 60
        E 120 80 1f 00
        E 0 80 56 00
        E 0 80 61 00
        E 0 90 1e 60
        E 0 90 61 60
        E 120 80 1e 00
        E 0 80 61 00
        E 0 90 18 60
        E 0 90 1f 60
        E 0 90 48 60
        E 0 90 4a 60
        E 0 90 54 60
        E 0 90 56 60
        E 0 90 60 60
        E 0 90 61 60
        E 120 80 18 00
        E 0 80 1f 00
        E 0 80 48 00
        E 0 80 4a 00
        E 0 80 54 00
        E 0 80 56 00
        E 0 80 60 00
        E 0 80 61 00
        E 120 90 18 60
        E 0 90 1f 60
        E 0 90 54 60
        E 0 90 56 60
        E 0 90 60 60
        E 0 90 61 60
        E 120 80 18 00
        E 0 80 1f 00
        E 0 80 54 00
        E 0 80 56 00
        E 0 80 60 00
        E 0 80 61 00
        E 0 90 1e 60
        E 0 90 61 60
        E 120 80 1e 00
        E 0 80 61 00
        E 0 90 1b 60
        E 0 90 3d 60
        E 0 90 49 60
        E 0 90 4a 60
        E 0 90 55 60
        E 0 90 56 60
        E 0 90 62 60
        E 120 80 1b 00
        E 0 80 3d 00
        E 0 80 49 00
        E 0 80 4a 00
        E 0 80 55 00
        E 0 80 56 00
        E 0 80 62 00
        E 120 90 1f 60
        E 0 90 56 60
        E 0 90 61 60
        E 120 80 1f 00
        E 0 80 56 00
        E 0 80 61 00
        E 0 90 1e 60
        E 0 90 61 60
        E 120 80 74 00
        E 0 80 1e 00
        E 0 80 61 00
        E 0 90 18 60
        E 0 90 1f 60
        E 0 90 3c 60
        E 0 90 48 60
        E 0 90 4a 60
        E 0 90 54 60
        E 0 90 56 60
        E 0 90 60 60
        E 0 90 61 60
        E 120 80 18 00
        E 0 80 1f 00
        E 0 80 3c 00
        E 0 80 48 00
        E 0 80 4a 00
        E 0 80 54 00
        E 0 80 56 00
        E 0 80 60 00
        E 0 80 61 00
        E 120 90 18 60
        E 0 90 1f 60
        E 0 90 54 60
        E 0 90 56 60
        E 0 90 60 60
        E 0 90 61 60
        E 120 80 18 00
        E 0 80 1f 00
        E 0 80 54 00
        E 0 80 56 00
        E 0 80 60 00
        E 0 80 61 00
        E 0 90 1e 60
        E 0 90 61 60
        E 120 80 1e 00
        E 0 80 61 00
        E 0 90 1b 60
        E 0 90 3d 60
        E 0 90 49 60
        E 0 90 4a 60
        E 0 90 55 60
        E 0 90 56 60
        E 0 90 62 60
        E 120 80 1b 00
        E 0 80 3d 00
        E 0 80 49 00
        E 0 80 4a 00
        E 0 80 55 00
        E 0 80 56 00
        E 0 80 62 00
        E 120 90 1f 60
        E 0 90 56 60
        E 0 90 61 60
        E 120 80 1f 00
        E 0 80 56 00
        E 0 80 61 00
        E 0 90 1e 60
        E 0 90 61 60
        E 120 80 1e 00
        E 0 80 61 00
        E 0 90 18 60
        E 0 90 1f 60
        E 0 90 48 60
        E 0 90 4a 60
        E 0 90 54 60
        E 0 90 56 60
        E 0 90 60 60
        E 0 90 61 60
        E 120 80 18 00
        E 0 80 1f 00
        E 0 80 48 00
        E 0 80 4a 00
        E 0 80 54 00
        E 0 80 56 00
        E 0 80 60 00
        E 0 80 61 00
        E 120 90 18 60
        E 0 90 1f 60
        E 0 90 54 60
        E 0 90 56 60
        E 0 90 60 60
        E 0 90 61 60
        E 120 80 18 00
        E 0 80 1f 00
        E 0 80 54 00
        E 0 80 56 00
        E 0 80 60 00
        E 0 80 61 00
        E 0 90 1e 60
        E 0 90 61 60
        E 120 80 1e 00
        E 0 80 61 00
        E 0 90 1b 60
        E 0 90 49 60
        E 0 90 4a 60
        E 0 90 55 60
        E 0 90 56 60
        E 0 90 62 60
        E 120 80 1b 00
        E 0 80 49 00
        E 0 80 4a 00
        E 0 80 55 00
        E 0 80 56 00
        E 0 80 62 00
        E 120 90 1f 60
        E 0 90 56 60
        E 0 90 61 60
        E 120 80 1f 00
        E 0 80 56 00
        E 0 80 61 00
        E 0 90 1e 60
        E 0 90 61 60
        E 120 80 1e 00
        E 0 80 61 00
        E 0 90 1a 60
        E 0 90 24 60
        E 0 90 3d 60
        E 0 90 40 60
        E 0 90 49 60
        E 0 90 4c 60
        E 0 90 55 60
        E 0 90 58 60
        E 0 90 62 60
        E 0 90 64 60
        E 0 90 78 60
        E 0 90 79 60
        E 0 90 7a 60
        E 0 90 7b 60
        E 0 90 7c 60
        E 120 80 1a 00
        E 0 80 24 00
        E 0 80 3d 00
        E 0 80 40 00
        E 0 80 49 00
        E 0 80 4c 00
        E 0 80 55 00
        E 0 80 58 00
        E 0 80 62 00
        E 0 80 64 00
        E 120 90 18 60
        E 0 90 54 60
        E 0 90 60 60
        E 120 80 18 00
        E 0 80 54 00
        E 0 80 60 00
        E 120 90 1a 60
        E 0 90 24 60
        E 0 90 49 60
        E 0 90 4c 60
        E 0 90 55 60
        E 0 90 58 60
        E 0 90 62 60
        E 0 90 64 60
        E 120 80 1a 00
        E 0 80 24 00
        E 0 80 49 00
        E 0 80 4c 00
        E 0 80 55 00
        E 0 80 58 00
        E 0 80 62 00
        E 0 80 64 00
        E 120 90 18 60
        E 0 90 54 60
        E 0 90 60 60
        E 120 80 18 00
        E 0 80 54 00
        E 0 80 60 00
        E 120 90 1a 60
        E 0 90 24 60
        E 0 90 3d 60
        E 0 90 40 60
        E 0 90 49 60
        E 0 90 4c 60
        E 0 90 55 60
        E 0 90 58 60
        E 0 90 62 60
        E 0 90 64 60
        E 120 80 1a 00
        E 0 80 24 00
        E 0 80 3d 00
        E 0 80 40 00
        E 0 80 49 00
        E 0 80 4c 00
        E 0 80 55 00
        E 0 80 58 00
        E 0 80 62 00
        E 0 80 64 00
        E 120 90 1a 60
        E 0 90 24 60
        E 0 90 55 60
        E 0 90 58 60
        E 0 90 62 60
        E 0 90 64 60
        E 120 80 1a 00
        E 0 80 24 00
        E 0 80 55 00
        E 0 80 58 00
        E 0 80 62 00
        E 0 80 64 00
        E 120 90 1a 60
        E 0 90 24 60
        E 0 90 49 60
        E 0 90 4c 60
        E 0 90 55 60
        E 0 90 58 60
        E 0 90 62 60
        E 0 90 64 60
        E 120 80 1a 00
        E 0 80 24 00
        E 0 80 49 00
        E 0 80 4c 00
        E 0 80 55 00
        E 0 80 58 00
        E 0 80 62 00
        E 0 80 64 00
        E 120 90 1a 60
        E 0 90 24 60
        E 0 90 55 60
        E 0 90 58 60
        E 0 90 62 60
        E 0 90 64 60
        E 120 80 1a 00
        E 0 80 24 00
        E 0 80 55 00
        E 0 80 58 00
        E 0 80 62 00
        E 0 80 64 00
        E 120 80 78 00
        E 0 80 79 00
        E 0 80 7a 00
        E 0 80 7b 00
        E 0 80 7c 00
        E 0 90 18 60
        E 0 90 1f 60
        E 0 90 3c 60
        E 0 90 48 60
        E 0 90 4a 60
        E 0 90 54 60
        E 0 90 56 60
        E 0 90 60 60
        E 0 90 61 60
        E 120 80 18 00
        E 0 80 1f 00
        E 0 80 3c 00
        E 0 80 48 00
        E 0 80 4a 00
        E 0 80 54 00
        E 0 80 56 00
        E 0 80 60 00
        E 0 80 61 00
        E 120 90 18 60
        E 0 90 1f 60
        E 0 90 54 60
        E 0 90 56 60
        E 0 90 60 60
        E 0 90 61 60
        E 120 80 18 00
        E 0 80 1f 00
        E 0 80 54 00
        E 0 80 56 00
        E 0 80 60 00
        E 0 80 61 00
        E 0 90 1e 60
        E 0 90 61 60
        E 120 80 1e 00
        E 0 80 61 00
        E 0 90 1b 60
        E 0 90 3d 60
        E 0 90 49 60
        E 0 90 4a 60
        E 0 90 55 60
        E 0 90 56 60
        E 0 90 62 60
        E 120 80 1b 00
        E 0 80 3d 00
        E 0 80 49 00
        E 0 80 4a 00
        E 0 80 55 00
        E 0 80 56 00
        E 0 80 62 00
        E 120 90 1f 60
        E 0 90 56 60
        E 0 90 61 60
        E 120 80 1f 00
        E 0 80 56 00
        E 0 80 61 00
        E 0 90 1e 60
        E 0 90 61 60
        E 120 80 1e 00
        E 0 80 61 00
        E 0 90 18 60
        E 0 90 1f 60
        E 0 90 48 60
        E 0 90 4a 60
        E 0 90 54 60
        E 0 90 56 60
        E 0 90 60 60
        E 0 90 61 60
        E 120 80 18 00
        E 0 80 1f 00
        E 0 80 48 00
        E 0 80 4a 00
        E 0 80 54 00
        E 0 80 56 00
        E 0 80 60 00
        E 0 80 61 00
        E 120 90 18 60
        E 0 90 1f 60
        E 0 90 54 60
        E 0 90 56 60
        E 0 90 60 60
        E 0 90 61 60
        E 120 80 18 00
        E 0 80 1f 00
        E 0 80 54 00
        E 0 80 56 00
        E 0 80 60 00
        E 0 80 61 00
        E 0 90 1e 60
        E 0 90 61 60
        E 120 80 1e 00
        E 0 80 61 00
        E 0 90 1b 60
        E 0 90 3d 60
        E 0 90 49 60
        E 0 90 4a 60
        E 0 90 55 60
        E 0 90 56 60
        E 0 90 62 60
        E 120 80 1b 00
        E 0 80 3d 00
        E 0 80 49 00
        E 0 80 4a 00
        E 0 80 55 00
        E 0 80 56 00
        E 0 80 62 00
        E 120 90 1f 60
        E 0 90 56 60
        E 0 90 61 60
        E 120 80 1f 00
        E 0 80 56 00
        E 0 80 61 00
        E 0 90 1e 60
        E 0 90 61 60
        E 120 80 1e 00
        E 0 80 61 00
        E 0 90 18 60
        E 0 90 1f 60
        E 0 90 48 60
        E 0 90 4a 60
        E 0 90 54 60
        E 0 90 56 60
        E 0 90 60 60
        E 0 90 61 60
        E 120 80 18 00
        E 0 80 1f 00
        E 0 80 48 00
        E 0 80 4a 00
        E 0 80 54 00
        E 0 80 56 00
        E 0 80 60 00
        E 0 80 61 00
        E 120 90 18 60
        E 0 90 1f 60
        E 0 90 54 60
        E 0 90 56 60
        E 0 90 60 60
        E 0 90 61 60
        E 120 80 18 00
        E 0 80 1f 00
        E 0 80 54 00
        E 0 80 56 00
        E 0 80 60 00
        E 0 80 61 00
        E 0 90 1e 60
        E 0 90 61 60
        E 120 80 1e 00
        E 0 80 61 00
        E 0 90 1b 60
        E 0 90 3d 60
        E 0 90 49 60
        E 0 90 4a 60
        E 0 90 55 60
        E 0 90 56 60
        E 0 90 62 60
        E 120 80 1b 00
        E 0 80 3d 00
        E 0 80 49 00
        E 0 80 4a 00
        E 0 80 55 00
        E 0 80 56 00
        E 0 80 62 00
        E 120 90 1f 60
        E 0 90 56 60
        E 0 90 61 60
        E 120 80 1f 00
        E 0 80 56 00
        E 0 80 61 00
        E 0 90 1e 60
        E 0 90 61 60
        E 120 80 1e 00
        E 0 80 61 00
        E 0 90 18 60
        E 0 90 1f 60
        E 0 90 48 60
        E 0 90 4a 60
        E 0 90 54 60
        E 0 90 56 60
        E 0 90 60 60
        E 0 90 61 60
        E 120 80 18 00
        E 0 80 1f 00
        E 0 80 48 00
        E 0 80 4a 00
        E 0 80 54 00
        E 0 80 56 00
        E 0 80 60 00
        E 0 80 61 00
        E 120 90 18 60
        E 0 90 1f 60
        E 0 90 54 60
        E 0 90 56 60
        E 0 90 60 60
        E 0 90 61 60
        E 120 80 18 00
        E 0 80 1f 00
        E 0 80 54 00
        E 0 80 56 00
        E 0 80 60 00
        E 0 80 61 00
        E 0 90 1e 60
        E 0 90 61 60
        E 120 80 1e 00
        E 0 80 61 00
        E 0 90 1b 60
        E 0 90 3d 60
        E 0 90 49 60
        E 0 90 4a 60
        E 0 90 55 60
        E 0 90 56 60
        E 0 90 62 60
        E 120 80 1b 00
        E 0 80 3d 00
        E 0 80 49 00
        E 0 80 4a 00
        E 0 80 55 00
        E 0 80 56 00
        E 0 80 62 00
        E 120 90 1f 60
        E 0 90 56 60
        E 0 90 61 60
        E 120 80 1f 00
        E 0 80 56 00
        E 0 80 61 00
        E 0 90 1e 60
        E 0 90 61 60
        E 120 80 1e 00
        E 0 80 61 00
        E 0 90 18 60
        E 0 90 1f 60
        E 0 90 3c 60
        E 0 90 48 60
        E 0 90 4a 60
        E 0 90 54 60
        E 0 90 56 60
        E 0 90 60 60
        E 0 90 61 60
        E 120 80 18 00
        E 0 80 1f 00
        E 0 80 3c 00
        E 0 80 48 00
        E 0 80 4a 00
        E 0 80 54 00
        E 0 80 56 00
        E 0 80 60 00
        E 0 80 61 00
        E 120 90 18 60
        E 0 90 1f 60
        E 0 90 54 60
        E 0 90 56 60
        E 0 90 60 60
        E 0 90 61 60
        E 120 80 18 00
        E 0 80 1f 00
        E 0 80 54 00
        E 0 80 56 00
        E 0 80 60 00
        E 0 80 61 00
        E 0 90 1e 60
        E 0 90 61 60
        E 120 80 1e 00
        E 0 80 61 00
        E 0 90 1b 60
        E 0 90 3d 60
        E 0 90 49 60
        E 0 90 4a 60
        E 0 90 55 60
        E 0 90 56 60
        E 0 90 62 60
        E 120 80 1b 00
        E 0 80 3d 00
        E 0 80 49 00
        E 0 80 4a 00
        E 0 80 55 00
        E 0 80 56 00
        E 0 80 62 00
        E 120 90 1f 60
        E 0 90 56 60
        E 0 90 61 60
        E 120 80 1f 00
        E 0 80 56 00
        E 0 80 61 00
        E 0 90 1e 60
        E 0 90 61 60
        E 120 80 1e 00
        E 0 80 61 00
        E 0 90 18 60
        E 0 90 1f 60
        E 0 90 48 60
        E 0 90 4a 60
        E 0 90 54 60
        E 0 90 56 60
        E 0 90 60 60
        E 0 90 61 60
        E 120 80 18 00
        E 0 80 1f 00
        E 0 80 48 00
        E 0 80 4a 00
        E 0 80 54 00
        E 0 80 56 00
        E 0 80 60 00
        E 0 80 61 00
        E 120 90 18 60
        E 0 90 1f 60
        E 0 90 54 60
        E 0 90 56 60
        E 0 90 60 60
        E 0 90 61 60
        E 120 80 18 00
        E 0 80 1f 00
        E 0 80 54 00
        E 0 80 56 00
        E 0 80 60 00
        E 0 80 61 00
        E 0 90 1e 60
        E 0 90 61 60
        E 120 80 1e 00
        E 0 80 61 00
        E 0 90 1b 60
        E 0 90 3d 60
        E 0 90 49 60
        E 0 90 4a 60
        E 0 90 55 60
        E 0 90 56 60
        E 0 90 62 60
        E 120 80 1b 00
        E 0 80 3d 00
        E 0 80 49 00
        E 0 80 4a 00
        E 0 80 55 00
        E 0 80 56 00
        E 0 80 62 00
        E 120 90 1f 60
        E 0 90 56 60
        E 0 90 61 60
        E 120 80 1f 00
        E 0 80 56 00
        E 0 80 61 00
        E 0 90 1e 60
        E 0 90 61 60
        E 120 80 1e 00
        E 0 80 61 00
        E 0 90 18 60
        E 0 90 1f 60
        E 0 90 48 60
        E 0 90 4a 60
        E 0 90 54 60
        E 0 90 56 60
        E 0 90 60 60
        E 0 90 61 60
        E 0 90 78 60
        E 0 90 79 60
        E 0 90 7a 60
        E 0 90 7b 60
        E 0 90 7c 60
        E 120 80 18 00
        E 0 80 1f 00
        E 0 80 48 00
        E 0 80 4a 00
        E 0 80 54 00
        E 0 80 56 00
        E 0 80 60 00
        E 0 80 61 00
        E 120 90 18 60
        E 0 90 1f 60
        E 0 90 54 60
        E 0 90 56 60
        E 0 90 60 60
        E 0 90 61 60
        E 120 80 18 00
        E 0 80 1f 00
        E 0 80 54 00
        E 0 80 56 00
        E 0 80 60 00
        E 0 80 61 00
        E 0 90 1e 60
        E 0 90 61 60
        E 120 80 1e 00
        E 0 80 61 00
        E 0 90 1b 60
        E 0 90 3d 60
        E 0 90 49 60
        E 0 90 4a 60
        E 0 90 55 60
        E 0 90 56 60
        E 0 90 62 60
        E 120 80 1b 00
        E 0 80 3d 00
        E 0 80 49 00
        E 0 80 4a 00
        E 0 80 55 00
        E 0 80 56 00
        E 0 80 62 00
        E 120 90 1f 60
        E 0 90 56 60
        E 0 90 61 60
        E 120 80 1f 00
        E 0 80 56 00
        E 0 80 61 00
        E 0 90 1e 60
        E 0 90 61 60
        E 120 80 1e 00
        E 0 80 61 00
        E 0 90 18 60
        E 0 90 48 60
        E 0 90 54 60
        E 0 90 60 60
        E 120 80 18 00
        E 0 80 48 00
        E 0 80 54 00
        E 0 80 60 00
        E 120 90 1a 60
        E 0 90 1f 60
        E 0 90 55 60
        E 0 90 56 60
        E 0 90 61 60
        E 0 90 62 60
        E 120 80 1a 00
        E 0 80 1f 00
        E 0 80 55 00
        E 0 80 56 00
        E 0 80 61 00
        E 0 80 62 00
        E 120 90 1a 60
        E 0 90 1f 60
        E 0 90 3d 60
        E 0 90 49 60
        E 0 90 55 60
        E 0 90 56 60
        E 0 90 61 60
        E 0 90 62 60
        E 120 80 1a 00
        E 0 80 1f 00
        E 0 80 3d 00
        E 0 80 49 00
        E 0 80 55 00
        E 0 80 56 00
        E 0 80 61 00
        E 0 80 62 00
        E 120 90 1a 60
        E 0 90 1f 60
        E 0 90 55 60
        E 0 90 56 60
        E 0 90 61 60
        E 0 90 62 60
        E 120 80 1a 00
        E 0 80 1f 00
        E 0 80 55 00
        E 0 80 56 00
        E 0 80 61 00
        E 0 80 62 00
        E 120 80 78 00
        E 0 80 79 00
        E 0 80 7a 00
        E 0 80 7b 00
        E 0 80 7c 00
        E 0 90 18 60
        E 0 90 1f 60
        E 0 90 3c 60
        E 0 90 48 60
        E 0 90 4a 60
        E 0 90 54 60
        E 0 90 56 60
        E 0 90 60 60
        E 0 90 61 60
        E 120 80 18 00
        E 0 80 1f 00
        E 0 80 3c 00
        E 0 80 48 00
        E 0 80 4a 00
        E 0 80 54 00
        E 0 80 56 00
        E 0 80 60 00
        E 0 80 61 00
        E 120 90 18 60
        E 0 90 1f 60
        E 0 90 54 60
        E 0 90 56 60
        E 0 90 60 60
        E 0 90 61 60
        E 120 80 18 00
        E 0 80 1f 00
        E 0 80 54 00
        E 0 80 56 00
        E 0 80 60 00
        E 0 80 61 00
        E 0 90 1e 60
        E 0 90 61 60
        E 120 80 1e 00
        E 0 80 61 00
        E 0 90 1b 60
        E 0 90 3d 60
        E 0 90 49 60
        E 0 90 4a 60
        E 0 90 55 60
        E 0 90 56 60
        E 0 90 62 60
        E 120 80 1b 00
        E 0 80 3d 00
        E 0 80 49 00
        E 0 80 4a 00
        E 0 80 55 00
        E 0 80 56 00
        E 0 80 62 00
        E 120 90 1f 60
        E 0 90 56 60
        E 0 90 61 60
        E 120 80 1f 00
        E 0 80 56 00
        E 0 80 61 00
        E 0 90 1e 60
        E 0 90 61 60
        E 120 80 1e 00
        E 0 80 61 00
        E 0 90 18 60
        E 0 90 1f 60
        E 0 90 48 60
        E 0 90 4a 60
        E 0 90 54 60
        E 0 90 56 60
        E 0 90 60 60
        E 0 90 61 60
        E 120 80 18 00
        E 0 80 1f 00
        E 0 80 48 00
        E 0 80 4a 00
        E 0 80 54 00
        E 0 80 56 00
        E 0 80 60 00
        E 0 80 61 00
        E 120 90 18 60
        E 0 90 1f 60
        E 0 90 54 60
        E 0 90 56 60
        E 0 90 60 60
        E 0 90 61 60
        E 120 80 18 00
        E 0 80 1f 00
        E 0 80 54 00
        E 0 80 56 00
        E 0 80 60 00
        E 0 80 61 00
        E 0 90 1e 60
        E 0 90 61 60
        E 120 80 1e 00
        E 0 80 61 00
        E 0 90 1b 60
        E 0 90 3d 60
        E 0 90 49 60
        E 0 90 4a 60
        E 0 90 55 60
        E 0 90 56 60
        E 0 90 62 60
        E 120 80 1b 00
        E 0 80 3d 00
        E 0 80 49 00
        E 0 80 4a 00
        E 0 80 55 00
        E 0 80 56 00
        E 0 80 62 00
        E 120 90 1f 60
        E 0 90 56 60
        E 0 90 61 60
        E 120 80 1f 00
        E 0 80 56 00
        E 0 80 61 00
        E 0 90 1e 60
        E 0 90 61 60
        E 120 80 1e 00
        E 0 80 61 00
        E 0 90 18 60
        E 0 90 1f 60
        E 0 90 48 60
        E 0 90 4a 60
        E 0 90 54 60
        E 0 90 56 60
        E 0 90 60 60
        E 0 90 61 60
        E 120 80 18 00
        E 0 80 1f 00
        E 0 80 48 00
        E 0 80 4a 00
        E 0 80 54 00
        E 0 80 56 00
        E 0 80 60 00
        E 0 80 61 00
        E 120 90 18 60
        E 0 90 1f 60
        E 0 90 54 60
        E 0 90 56 60
        E 0 90 60 60
        E 0 90 61 60
        E 120 80 18 00
        E 0 80 1f 00
        E 0 80 54 00
        E 0 80 56 00
        E 0 80 60 00
        E 0 80 61 00
        E 0 90 1e 60
        E 0 90 61 60
        E 120 80 1e 00
        E 0 80 61 00
        E 0 90 1b 60
        E 0 90 3d 60
        E 0 90 49 60
        E 0 90 4a 60
        E 0 90 55 60
        E 0 90 56 60
        E 0 90 62 60
        E 120 80 1b 00
        E 0 80 3d 00
        E 0 80 49 00
        E 0 80 4a 00
        E 0 80 55 00
        E 0 80 56 00
        E 0 80 62 00
        E 120 90 1f 60
        E 0 90 56 60
        E 0 90 61 60
        E 120 80 1f 00
        E 0 80 56 00
        E 0 80 61 00
        E 0 90 1e 60
        E 0 90 61 60
        E 120 80 1e 00
        E 0 80 61 00
        E 0 90 18 60
        E 0 90 1f 60
        E 0 90 48 60
        E 0 90 4a 60
        E 0 90 54 60
        E 0 90 56 60
        E 0 90 60 60
        E 0 90 61 60
        E 120 80 18 00
        E 0 80 1f 00
        E 0 80 48 00
        E 0 80 4a 00
        E 0 80 54 00
        E 0 80 56 00
        E 0 80 60 00
        E 0 80 61 00
        E 120 90 18 60
        E 0 90 1f 60
        E 0 90 54 60
        E 0 90 56 60
        E 0 90 60 60
        E 0 90 61 60
        E 120 80 18 00
        E 0 80 1f 00
        E 0 80 54 00
        E 0 80 56 00
        E 0 80 60 00
        E 0 80 61 00
        E 0 90 1e 60
        E 0 90 61 60
        E 120 80 1e 00
        E 0 80 61 00
        E 0 90 1b 60
        E 0 90 3d 60
        E 0 90 49 60
        E 0 90 4a 60
        E 0 90 55 60
        E 0 90 56 60
        E 0 90 62 60
        E 120 80 1b 00
        E 0 80 3d 00
        E 0 80 49 00
        E 0 80 4a 00
        E 0 80 55 00
        E 0 80 56 00
        E 0 80 62 00
        E 120 90 1f 60
        E 0 90 56 60
        E 0 90 61 60
        E 120 80 1f 00
        E 0 80 56 00
        E 0 80 61 00
        E 0 90 1e 60
        E 0 90 61 60
        E 120 80 1e 00
        E 0 80 61 00
        E 0 90 18 60
        E 0 90 1f 60
        E 0 90 3c 60
        E 0 90 48 60
        E 0 90 4a 60
        E 0 90 54 60
        E 0 90 56 60
        E 0 90 60 60
        E 0 90 61 60
        E 120 80 18 00
        E 0 80 1f 00
        E 0 80 3c 00
        E 0 80 48 00
        E 0 80 4a 00
        E 0 80 54 00
        E 0 80 56 00
        E 0 80 60 00
        E 0 80 61 00
        E 120 90 18 60
        E 0 90 1f 60
        E 0 90 54 60
        E 0 90 56 60
        E 0 90 60 60
        E 0 90 61 60
        E 120 80 18 00
        E 0 80 1f 00
        E 0 80 54 00
        E 0 80 56 00
        E 0 80 60 00
        E 0 80 61 00
        E 0 90 1e 60
        E 0 90 61 60
        E 120 80 1e 00
        E 0 80 61 00
        E 0 90 1b 60
        E 0 90 3d 60
        E 0 90 49 60
        E 0 90 4a 60
        E 0 90 55 60
        E 0 90 56 60
        E 0 90 62 60
        E 120 80 1b 00
        E 0 80 3d 00
        E 0 80 49 00
        E 0 80 4a 00
        E 0 80 55 00
        E 0 80 56 00
        E 0 80 62 00
        E 120 90 1f 60
        E 0 90 56 60
        E 0 90 61 60
        E 120 80 1f 00
        E 0 80 56 00
        E 0 80 61 00
        E 0 90 1e 60
        E 0 90 61 60
        E 120 80 1e 00
        E 0 80 61 00
        E 0 90 18 60
        E 0 90 1f 60
        E 0 90 48 60
        E 0 90 4a 60
        E 0 90 54 60
        E 0 90 56 60
        E 0 90 60 60
        E 0 90 61 60
        E 120 80 18 00
        E 0 80 1f 00
        E 0 80 48 00
        E 0 80 4a 00
        E 0 80 54 00
        E 0 80 56 00
        E 0 80 60 00
        E 0 80 61 00
        E 120 90 18 60
        E 0 90 1f 60
        E 0 90 54 60
        E 0 90 56 60
        E 0 90 60 60
        E 0 90 61 60
        E 120 80 18 00
        E 0 80 1f 00
        E 0 80 54 00
        E 0 80 56 00
        E 0 80 60 00
        E 0 80 61 00
        E 0 90 1e 60
        E 0 90 61 60
        E 120 80 1e 00
        E 0 80 61 00
        E 0 90 1b 60
        E 0 90 3d 60
        E 0 90 49 60
        E 0 90 4a 60
        E 0 90 55 60
        E 0 90 56 60
        E 0 90 62 60
        E 120 80 1b 00
        E 0 80 3d 00
        E 0 80 49 00
        E 0 80 4a 00
        E 0 80 55 00
        E 0 80 56 00
        E 0 80 62 00
        E 120 90 1f 60
        E 0 90 56 60
        E 0 90 61 60
        E 120 80 1f 00
        E 0 80 56 00
        E 0 80 61 00
        E 0 90 1e 60
        E 0 90 61 60
        E 120 80 1e 00
        E 0 80 61 00
        E 0 90 18 60
        E 0 90 1f 60
        E 0 90 48 60
        E 0 90 4a 60
        E 0 90 54 60
        E 0 90 56 60
        E 0 90 60 60
        E 0 90 61 60
        E 0 90 78 60
        E 0 90 79 60
        E 0 90 7a 60
        E 0 90 7b 60
        E 0 90 7c 60
        E 120 80 18 00
        E 0 80 1f 00
        E 0 80 48 00
        E 0 80 4a 00
        E 0 80 54 00
        E 0 80 56 00
        E 0 80 60 00
        E 0 80 61 00
        E 120 90 18 60
        E 0 90 1f 60
        E 0 90 54 60
        E 0 90 56 60
        E 0 90 60 60
        E 0 90 61 60
        E 120 80 18 00
        E 0 80 1f 00
        E 0 80 54 00
        E 0 80 56 00
        E 0 80 60 00
        E 0 80 61 00
        E 0 90 1e 60
        E 0 90 61 60
        E 120 80 1e 00
        E 0 80 61 00
        E 0 90 1b 60
        E 0 90 3d 60
        E 0 90 49 60
        E 0 90 4a 60
        E 0 90 55 60
        E 0 90 56 60
        E 0 90 62 60
        E 120 80 1b 00
        E 0 80 3d 00
        E 0 80 49 00
        E 0 80 4a 00
        E 0 80 55 00
        E 0 80 56 00
        E 0 80 62 00
        E 120 90 1f 60
        E 0 90 56 60
        E 0 90 61 60
        E 120 80 1f 00
        E 0 80 56 00
        E 0 80 61 00
        E 0 90 1e 60
        E 0 90 61 60
        E 120 80 1e 00
        E 0 80 61 00
        E 0 90 18 60
        E 0 90 48 60
        E 0 90 54 60
        E 0 90 60 60
        E 120 80 18 00
        E 0 80 48 00
        E 0 80 54 00
        E 0 80 60 00
        E 120 90 1a 60
        E 0 90 1f 60
        E 0 90 55 60
        E 0 90 56 60
        E 0 90 61 60
        E 0 90 62 60
        E 120 80 1a 00
        E 0 80 1f 00
        E 0 80 55 00
        E 0 80 56 00
        E 0 80 61 00
        E 0 80 62 00
        E 120 90 1a 60
        E 0 90 1f 60
        E 0 90 3d 60
        E 0 90 49 60
        E 0 90 55 60
        E 0 90 56 60
        E 0 90 61 60
        E 0 90 62 60
        E 120 80 1a 00
        E 0 80 1f 00
        E 0 80 3d 00
        E 0 80 49 00
        E 0 80 55 00
        E 0 80 56 00
        E 0 80 61 00
        E 0 80 62 00
        E 120 90 1a 60
        E 0 90 1f 60
        E 0 90 55 60
        E 0 90 56 60
        E 0 90 61 60
        E 0 90 62 60
        E 120 80 1a 00
        E 0 80 1f 00
        E 0 80 55 00
        E 0 80 56 00
        E 0 80 61 00
        E 0 80 62 00
        E 120 80 78 00
        E 0 80 79 00
        E 0 80 7a 00
        E 0 80 7b 00
        E 0 80 7c 00
        E 0 90 18 60
        E 0 90 1f 60
        E 0 90 3c 60
        E 0 90 48 60
        E 0 90 4a 60
        E 0 90 54 60
        E 0 90 56 60
        E 0 90 60 60
        E 0 90 61 60
        E 120 80 18 00
        E 0 80 1f 00
        E 0 80 3c 00
        E 0 80 48 00
        E 0 80 4a 00
        E 0 80 54 00
        E 0 80 56 00
        E 0 80 60 00
        E 0 80 61 00
        E 120 90 18 60
        E 0 90 1f 60
        E 0 90 54 60
        E 0 90 56 60
        E 0 90 60 60
        E 0 90 61 60
        E 120 80 18 00
        E 0 80 1f 00
        E 0 80 54 00
        E 0 80 56 00
        E 0 80 60 00
        E 0 80 61 00
        E 0 90 1e 60
        E 0 90 61 60
        E 120 80 1e 00
        E 0 80 61 00
        E 0 90 1b 60
        E 0 90 3d 60
        E 0 90 49 60
        E 0 90 4a 60
        E 0 90 55 60
        E 0 90 56 60
        E 0 90 62 60
        E 120 80 1b 00
        E 0 80 3d 00
        E 0 80 49 00
        E 0 80 4a 00
        E 0 80 55 00
        E 0 80 56 00
        E 0 80 62 00
        E 120 90 1f 60
        E 0 90 56 60
        E 0 90 61 60
        E 120 80 1f 00
        E 0 80 56 00
        E 0 80 61 00
        E 0 90 1e 60
        E 0 90 61 60
        E 120 80 1e 00
        E 0 80 61 00
        E 0 90 18 60
        E 0 90 1f 60
        E 0 90 48 60
        E 0 90 4a 60
        E 0 90 54 60
        E 0 90 56 60
        E 0 90 60 60
        E 0 90 61 60
        E 120 80 18 00
        E 0 80 1f 00
        E 0 80 48 00
        E 0 80 4a 00
        E 0 80 54 00
        E 0 80 56 00
        E 0 80 60 00
        E 0 80 61 00
        E 120 90 18 60
        E 0 90 1f 60
        E 0 90 54 60
        E 0 90 56 60
        E 0 90 60 60
        E 0 90 61 60
        E 120 80 18 00
        E 0 80 1f 00
        E 0 80 54 00
        E 0 80 56 00
        E 0 80 60 00
        E 0 80 61 00
        E 0 90 1e 60
        E 0 90 61 60
        E 120 80 1e 00
        E 0 80 61 00
        E 0 90 1b 60
        E 0 90 3d 60
        E 0 90 49 60
        E 0 90 4a 60
        E 0 90 55 60
        E 0 90 56 60
        E 0 90 62 60
        E 120 80 1b 00
        E 0 80 3d 00
        E 0 80 49 00
        E 0 80 4a 00
        E 0 80 55 00
        E 0 80 56 00
        E 0 80 62 00
        E 120 90 1f 60
        E 0 90 56 60
        E 0 90 61 60
        E 120 80 1f 00
        E 0 80 56 00
        E 0 80 61 00
        E 0 90 1e 60
        E 0 90 61 60
        E 120 80 1e 00
        E 0 80 61 00
        E 0 90 18 60
        E 0 90 1f 60
        E 0 90 48 60
        E 0 90 4a 60
        E 0 90 54 60
        E 0 90 56 60
        E 0 90 60 60
        E 0 90 61 60
        E 120 80 18 00
        E 0 80 1f 00
        E 0 80 48 00
        E 0 80 4a 00
        E 0 80 54 00
        E 0 80 56 00
        E 0 80 60 00
        E 0 80 61 00
        E 120 90 18 60
        E 0 90 1f 60
        E 0 90 54 60
        E 0 90 56 60
        E 0 90 60 60
        E 0 90 61 60
        E 120 80 18 00
        E 0 80 1f 00
        E 0 80 54 00
        E 0 80 56 00
        E 0 80 60 00
        E 0 80 61 00
        E 0 90 1e 60
        E 0 90 61 60
        E 120 80 1e 00
        E 0 80 61 00
        E 0 90 1b 60
        E 0 90 3d 60
        E 0 90 49 60
        E 0 90 4a 60
        E 0 90 55 60
        E 0 90 56 60
        E 0 90 62 60
        E 120 80 1b 00
        E 0 80 3d 00
        E 0 80 49 00
        E 0 80 4a 00
        E 0 80 55 00
        E 0 80 56 00
        E 0 80 62 00
        E 120 90 1f 60
        E 0 90 56 60
        E 0 90 61 60
        E 120 80 1f 00
        E 0 80 56 00
        E 0 80 61 00
        E 0 90 1e 60
        E 0 90 61 60
        E 120 80 1e 00
        E 0 80 61 00
        E 0 90 18 60
        E 0 90 1f 60
        E 0 90 48 60
        E 0 90 4a 60
        E 0 90 54 60
        E 0 90 56 60
        E 0 90 60 60
        E 0 90 61 60
        E 120 80 18 00
        E 0 80 1f 00
        E 0 80 48 00
        E 0 80 4a 00
        E 0 80 54 00
        E 0 80 56 00
        E 0 80 60 00
        E 0 80 61 00
        E 120 90 18 60
        E 0 90 1f 60
        E 0 90 54 60
        E 0 90 56 60
        E 0 90 60 60
        E 0 90 61 60
        E 120 80 18 00
        E 0 80 1f 00
        E 0 80 54 00
        E 0 80 56 00
        E 0 80 60 00
        E 0 80 61 00
        E 0 90 1e 60
        E 0 90 61 60
        E 120 80 1e 00
        E 0 80 61 00
        E 0 90 1b 60
        E 0 90 3d 60
        E 0 90 49 60
        E 0 90 4a 60
        E 0 90 55 60
        E 0 90 56 60
        E 0 90 62 60
        E 120 80 1b 00
        E 0 80 3d 00
        E 0 80 49 00
        E 0 80 4a 00
        E 0 80 55 00
        E 0 80 56 00
        E 0 80 62 00
        E 120 90 1f 60
        E 0 90 56 60
        E 0 90 61 60
        E 120 80 1f 00
        E 0 80 56 00
        E 0 80 61 00
        E 0 90 1e 60
        E 0 90 61 60
        E 120 80 1e 00
        E 0 80 61 00
        E 0 90 18 60
        E 0 90 1f 60
        E 0 90 48 60
        E 0 90 4a 60
        E 0 90 54 60
        E 0 90 56 60
        E 0 90 60 60
        E 0 90 61 60
        E 120 80 18 00
        E 0 80 1f 00
        E 0 80 48 00
        E 0 80 4a 00
        E 0 80 54 00
        E 0 80 56 00
        E 0 80 60 00
        E 0 80 61 00
        E 120 90 18 60
        E 0 90 1f 60
        E 0 90 54 60
        E 0 90 56 60
        E 0 90 60 60
        E 0 90 61 60
        E 120 80 18 00
        E 0 80 1f 00
        E 0 80 54 00
        E 0 80 56 00
        E 0 80 60 00
        E 0 80 61 00
        E 0 90 1e 60
        E 0 90 61 60
        E 120 80 1e 00
        E 0 80 61 00
        E 0 90 1b 60
        E 0 90 3d 60
        E 0 90 49 60
        E 0 90 4a 60
        E 0 90 55 60
        E 0 90 56 60
        E 0 90 62 60
        E 120 80 1b 00
        E 0 80 3d 00
        E 0 80 49 00
        E 0 80 4a 00
        E 0 80 55 00
        E 0 80 56 00
        E 0 80 62 00
        E 120 90 1f 60
        E 0 90 56 60
        E 0 90 61 60
        E 120 80 1f 00
        E 0 80 56 00
        E 0 80 61 00
        E 0 90 1e 60
        E 0 90 61 60
        E 120 80 1e 00
        E 0 80 61 00
        E 0 90 18 60
        E 0 90 1f 60
        E 0 90 48 60
        E 0 90 4a 60
        E 0 90 54 60
        E 0 90 56 60
        E 0 90 60 60
        E 0 90 61 60
        E 120 80 18 00
        E 0 80 1f 00
        E 0 80 48 00
        E 0 80 4a 00
        E 0 80 54 00
        E 0 80 56 00
        E 0 80 60 00
        E 0 80 61 00
        E 120 90 18 60
        E 0 90 1f 60
        E 0 90 54 60
        E 0 90 56 60
        E 0 90 60 60
        E 0 90 61 60
        E 120 80 18 00
        E 0 80 1f 00
        E 0 80 54 00
        E 0 80 56 00
        E 0 80 60 00
        E 0 80 61 00
        E 0 90 1e 60
        E 0 90 61 60
        E 120 80 1e 00
        E 0 80 61 00
        E 0 90 1b 60
        E 0 90 3d 60
        E 0 90 49 60
        E 0 90 4a 60
        E 0 90 55 60
        E 0 90 56 60
        E 0 90 62 60
        E 120 80 1b 00
        E 0 80 3d 00
        E 0 80 49 00
        E 0 80 4a 00
        E 0 80 55 00
        E 0 80 56 00
        E 0 80 62 00
        E 120 90 1f 60
        E 0 90 56 60
        E 0 90 61 60
        E 120 80 1f 00
        E 0 80 56 00
        E 0 80 61 00
        E 0 90 1e 60
        E 0 90 61 60
        E 120 80 1e 00
        E 0 80 61 00
        E 0 90 18 60
        E 0 90 1f 60
        E 0 90 48 60
        E 0 90 4a 60
        E 0 90 54 60
        E 0 90 56 60
        E 0 90 60 60
        E 0 90 61 60
        E 0 90 78 60
        E 0 90 79 60
        E 0 90 7a 60
        E 0 90 7b 60
        E 0 90 7c 60
        E 120 80 18 00
        E 0 80 1f 00
        E 0 80 48 00
        E 0 80 4a 00
        E 0 80 54 00
        E 0 80 56 00
        E 0 80 60 00
        E 0 80 61 00
        E 120 90 18 60
        E 0 90 1f 60
        E 0 90 54 60
        E 0 90 56 60
        E 0 90 60 60
        E 0 90 61 60
        E 120 80 18 00
        E 0 80 1f 00
        E 0 80 54 00
        E 0 80 56 00
        E 0 80 60 00
        E 0 80 61 00
        E 0 90 1e 60
        E 0 90 61 60
        E 120 80 1e 00
        E 0 80 61 00
        E 0 90 1b 60
        E 0 90 3d 60
        E 0 90 49 60
        E 0 90 4a 60
        E 0 90 55 60
        E 0 90 56 60
        E 0 90 62 60
        E 120 80 1b 00
        E 0 80 3d 00
        E 0 80 49 00
        E 0 80 4a 00
        E 0 80 55 00
        E 0 80 56 00
        E 0 80 62 00
        E 120 90 1f 60
        E 0 90 56 60
        E 0 90 61 60
        E 120 80 1f 00
        E 0 80 56 00
        E 0 80 61 00
        E 0 90 1e 60
        E 0 90 61 60
        E 120 80 1e 00
        E 0 80 61 00
        E 0 90 18 60
        E 0 90 48 60
        E 0 90 54 60
        E 0 90 60 60
        E 120 80 18 00
        E 0 80 48 00
        E 0 80 54 00
        E 0 80 60 00
        E 120 90 1a 60
        E 0 90 1f 60
        E 0 90 55 60
        E 0 90 56 60
        E 0 90 61 60
        E 0 90 62 60
        E 120 80 1a 00
        E 0 80 1f 00
        E 0 80 55 00
        E 0 80 56 00
        E 0 80 61 00
        E 0 80 62 00
        E 120 90 1a 60
        E 0 90 1f 60
        E 0 90 3d 60
        E 0 90 49 60
        E 0 90 55 60
        E 0 90 56 60
        E 0 90 61 60
        E 0 90 62 60
        E 120 80 1a 00
        E 0 80 1f 00
        E 0 80 3d 00
        E 0 80 49 00
        E 0 80 55 00
        E 0 80 56 00
        E 0 80 61 00
        E 0 80 62 00
        E 120 90 1a 60
        E 0 90 1f 60
        E 0 90 55 60
        E 0 90 56 60
        E 0 90 61 60
        E 0 90 62 60
        E 120 80 1a 00
        E 0 80 1f 00
        E 0 80 55 00
        E 0 80 56 00
        E 0 80 61 00
        E 0 80 62 00
        E 120 80 78 00
        E 0 80 79 00
        E 0 80 7a 00
        E 0 80 7b 00
        E 0 80 7c 00
        E 0 90 18 60
        E 0 90 1f 60
        E 0 90 3c 60
        E 0 90 48 60
        E 0 90 4a 60
        E 0 90 54 60
        E 0 90 56 60
        E 0 90 60 60
        E 0 90 61 60
        E 120 80 18 00
        E 0 80 1f 00
        E 0 80 3c 00
        E 0 80 48 00
        E 0 80 4a 00
        E 0 80 54 00
        E 0 80 56 00
        E 0 80 60 00
        E 0 80 61 00
        E 120 90 18 60
        E 0 90 1f 60
        E 0 90 54 60
        E 0 90 56 60
        E 0 90 60 60
        E 0 90 61 60
        E 120 80 18 00
        E 0 80 1f 00
        E 0 80 54 00
        E 0 80 56 00
        E 0 80 60 00
        E 0 80 61 00
        E 0 90 1e 60
        E 0 90 61 60
        E 120 80 1e 00
        E 0 80 61 00
        E 0 90 1b 60
        E 0 90 3d 60
        E 0 90 49 60
        E 0 90 4a 60
        E 0 90 55 60
        E 0 90 56 60
        E 0 90 62 60
        E 120 80 1b 00
        E 0 80 3d 00
        E 0 80 49 00
        E 0 80 4a 00
        E 0 80 55 00
        E 0 80 56 00
        E 0 80 62 00
        E 120 90 1f 60
        E 0 90 56 60
        E 0 90 61 60
        E 120 80 1f 00
        E 0 80 56 00
        E 0 80 61 00
        E 0 90 1e 60
        E 0 90 61 60
        E 120 80 1e 00
        E 0 80 61 00
        E 0 90 18 60
        E 0 90 1f 60
        E 0 90 48 60
        E 0 90 4a 60
        E 0 90 54 60
        E 0 90 56 60
        E 0 90 60 60
        E 0 90 61 60
        E 120 80 18 00
        E 0 80 1f 00
        E 0 80 48 00
        E 0 80 4a 00
        E 0 80 54 00
        E 0 80 56 00
        E 0 80 60 00
        E 0 80 61 00
        E 120 90 18 60
        E 0 90 1f 60
        E 0 90 54 60
        E 0 90 56 60
        E 0 90 60 60
        E 0 90 61 60
        E 120 80 18 00
        E 0 80 1f 00
        E 0 80 54 00
        E 0 80 56 00
        E 0 80 60 00
        E 0 80 61 00
        E 0 90 1e 60
        E 0 90 61 60
        E 120 80 1e 00
        E 0 80 61 00
        E 0 90 1b 60
        E 0 90 3d 60
        E 0 90 49 60
        E 0 90 4a 60
        E 0 90 55 60
        E 0 90 56 60
        E 0 90 62 60
        E 120 80 1b 00
        E 0 80 3d 00
        E 0 80 49 00
        E 0 80 4a 00
        E 0 80 55 00
        E 0 80 56 00
        E 0 80 62 00
        E 120 90 1f 60
        E 0 90 56 60
        E 0 90 61 60
        E 120 80 1f 00
        E 0 80 56 00
        E 0 80 61 00
        E 0 90 1e 60
        E 0 90 61 60
        E 120 80 1e 00
        E 0 80 61 00
        E 0 90 18 60
        E 0 90 1f 60
        E 0 90 48 60
        E 0 90 4a 60
        E 0 90 54 60
        E 0 90 56 60
        E 0 90 60 60
        E 0 90 61 60
        E 120 80 18 00
        E 0 80 1f 00
        E 0 80 48 00
        E 0 80 4a 00
        E 0 80 54 00
        E 0 80 56 00
        E 0 80 60 00
        E 0 80 61 00
        E 120 90 18 60
        E 0 90 1f 60
        E 0 90 54 60
        E 0 90 56 60
        E 0 90 60 60
        E 0 90 61 60
        E 120 80 18 00
        E 0 80 1f 00
        E 0 80 54 00
        E 0 80 56 00
        E 0 80 60 00
        E 0 80 61 00
        E 0 90 1e 60
        E 0 90 61 60
        E 120 80 1e 00
        E 0 80 61 00
        E 0 90 1b 60
        E 0 90 3d 60
        E 0 90 49 60
        E 0 90 4a 60
        E 0 90 55 60
        E 0 90 56 60
        E 0 90 62 60
        E 120 80 1b 00
        E 0 80 3d 00
        E 0 80 49 00
        E 0 80 4a 00
        E 0 80 55 00
        E 0 80 56 00
        E 0 80 62 00
        E 120 90 1f 60
        E 0 90 56 60
        E 0 90 61 60
        E 120 80 1f 00
        E 0 80 56 00
        E 0 80 61 00
        E 0 90 1e 60
        E 0 90 61 60
        E 120 80 1e 00
        E 0 80 61 00
        E 0 90 18 60
        E 0 90 1f 60
        E 0 90 48 60
        E 0 90 4a 60
        E 0 90 54 60
        E 0 90 56 60
        E 0 90 60 60
        E 0 90 61 60
        E 120 80 18 00
        E 0 80 1f 00
        E 0 80 48 00
        E 0 80 4a 00
        E 0 80 54 00
        E 0 80 56 00
        E 0 80 60 00
        E 0 80 61 00
        E 120 90 18 60
        E 0 90 1f 60
        E 0 90 54 60
        E 0 90 56 60
        E 0 90 60 60
        E 0 90 61 60
        E 120 80 18 00
        E 0 80 1f 00
        E 0 80 54 00
        E 0 80 56 00
        E 0 80 60 00
        E 0 80 61 00
        E 0 90 1e 60
        E 0 90 61 60
        E 120 80 1e 00
        E 0 80 61 00
        E 0 90 1b 60
        E 0 90 3d 60
        E 0 90 49 60
        E 0 90 4a 60
        E 0 90 55 60
        E 0 90 56 60
        E 0 90 62 60
        E 120 80 1b 00
        E 0 80 3d 00
        E 0 80 49 00
        E 0 80 4a 00
        E 0 80 55 00
        E 0 80 56 00
        E 0 80 62 00
        E 120 90 1f 60
        E 0 90 56 60
        E 0 90 61 60
        E 120 80 1f 00
        E 0 80 56 00
        E 0 80 61 00
        E 0 90 1e 60
        E 0 90 61 60
        E 120 80 1e 00
        E 0 80 61 00
        E 0 90 18 60
        E 0 90 1f 60
        E 0 90 48 60
        E 0 90 4a 60
        E 0 90 54 60
        E 0 90 56 60
        E 0 90 60 60
        E 0 90 61 60
        E 120 80 18 00
        E 0 80 1f 00
        E 0 80 48 00
        E 0 80 4a 00
        E 0 80 54 00
        E 0 80 56 00
        E 0 80 60 00
        E 0 80 61 00
        E 120 90 18 60
        E 0 90 1f 60
        E 0 90 54 60
        E 0 90 56 60
        E 0 90 60 60
        E 0 90 61 60
        E 120 80 18 00
        E 0 80 1f 00
        E 0 80 54 00
        E 0 80 56 00
        E 0 80 60 00
        E 0 80 61 00
        E 0 90 1e 60
        E 0 90 61 60
        E 120 80 1e 00
        E 0 80 61 00
        E 0 90 1b 60
        E 0 90 3d 60
        E 0 90 49 60
        E 0 90 4a 60
        E 0 90 55 60
        E 0 90 56 60
        E 0 90 62 60
        E 120 80 1b 00
        E 0 80 3d 00
        E 0 80 49 00
        E 0 80 4a 00
        E 0 80 55 00
        E 0 80 56 00
        E 0 80 62 00
        E 120 90 1f 60
        E 0 90 56 60
        E 0 90 61 60
        E 120 80 1f 00
        E 0 80 56 00
        E 0 80 61 00
        E 0 90 1e 60
        E 0 90 61 60
        E 120 80 1e 00
        E 0 80 61 00
        E 0 90 18 60
        E 0 90 1f 60
        E 0 90 48 60
        E 0 90 4a 60
        E 0 90 54 60
        E 0 90 56 60
        E 0 90 60 60
        E 0 90 61 60
        E 120 80 18 00
        E 0 80 1f 00
        E 0 80 48 00
        E 0 80 4a 00
        E 0 80 54 00
        E 0 80 56 00
        E 0 80 60 00
        E 0 80 61 00
        E 120 90 18 60
        E 0 90 1f 60
        E 0 90 54 60
        E 0 90 56 60
        E 0 90 60 60
        E 0 90 61 60
        E 120 80 18 00
        E 0 80 1f 00
        E 0 80 54 00
        E 0 80 56 00
        E 0 80 60 00
        E 0 80 61 00
        E 0 90 1e 60
        E 0 90 61 60
        E 120 80 1e 00
        E 0 80 61 00
        E 0 90 1b 60
        E 0 90 3d 60
        E 0 90 49 60
        E 0 90 4a 60
        E 0 90 55 60
        E 0 90 56 60
        E 0 90 62 60
        E 120 80 1b 00
        E 0 80 3d 00
        E 0 80 49 00
        E 0 80 4a 00
        E 0 80 55 00
        E 0 80 56 00
        E 0 80 62 00
        E 120 90 1f 60
        E 0 90 56 60
        E 0 90 61 60
        E 120 80 1f 00
        E 0 80 56 00
        E 0 80 61 00
        E 0 90 1e 60
        E 0 90 61 60
        E 120 80 1e 00
        E 0 80 61 00
        E 0 90 18 60
        E 0 90 1f 60
        E 0 90 48 60
        E 0 90 4a 60
        E 0 90 54 60
        E 0 90 56 60
        E 0 90 60 60
        E 0 90 61 60
        E 0 90 78 60
        E 0 90 79 60
        E 0 90 7a 60
        E 0 90 7b 60
        E 0 90 7c 60
        E 120 80 18 00
        E 0 80 1f 00
        E 0 80 48 00
        E 0 80 4a 00
        E 0 80 54 00
        E 0 80 56 00
        E 0 80 60 00
        E 0 80 61 00
        E 120 90 18 60
        E 0 90 1f 60
        E 0 90 54 60
        E 0 90 56 60
        E 0 90 60 60
        E 0 90 61 60
        E 120 80 18 00
        E 0 80 1f 00
        E 0 80 54 00
        E 0 80 56 00
        E 0 80 60 00
        E 0 80 61 00
        E 0 90 1e 60
        E 0 90 61 60
        E 120 80 1e 00
        E 0 80 61 00
        E 0 90 1b 60
        E 0 90 3d 60
        E 0 90 49 60
        E 0 90 4a 60
        E 0 90 55 60
        E 0 90 56 60
        E 0 90 62 60
        E 120 80 1b 00
        E 0 80 3d 00
        E 0 80 49 00
        E 0 80 4a 00
        E 0 80 55 00
        E 0 80 56 00
        E 0 80 62 00
        E 120 90 1f 60
        E 0 90 56 60
        E 0 90 61 60
        E 120 80 1f 00
        E 0 80 56 00
        E 0 80 61 00
        E 0 90 1e 60
        E 0 90 61 60
        E 120 80 1e 00
        E 0 80 61 00
        E 0 90 18 60
        E 0 90 48 60
        E 0 90 54 60
        E 0 90 60 60
        E 120 80 18 00
        E 0 80 48 00
        E 0 80 54 00
        E 0 80 60 00
        E 120 90 1a 60
        E 0 90 1f 60
        E 0 90 55 60
        E 0 90 56 60
        E 0 90 61 60
        E 0 90 62 60
        E 120 80 1a 00
        E 0 80 1f 00
        E 0 80 55 00
        E 0 80 56 00
        E 0 80 61 00
        E 0 80 62 00
        E 120 90 1a 60
        E 0 90 1f 60
        E 0 90 3d 60
        E 0 90 49 60
        E 0 90 55 60
        E 0 90 56 60
        E 0 90 61 60
        E 0 90 62 60
        E 120 80 1a 00
        E 0 80 1f 00
        E 0 80 3d 00
        E 0 80 49 00
        E 0 80 55 00
        E 0 80 56 00
        E 0 80 61 00
        E 0 80 62 00
        E 120 90 1a 60
        E 0 90 1f 60
        E 0 90 55 60
        E 0 90 56 60
        E 0 90 61 60
        E 0 90 62 60
        E 120 80 1a 00
        E 0 80 1f 00
        E 0 80 55 00
        E 0 80 56 00
        E 0 80 61 00
        E 0 80 62 00
        E 120 80 78 00
        E 0 80 79 00
        E 0 80 7a 00
        E 0 80 7b 00
        E 0 80 7c 00
        E 0 90 18 60
        E 0 90 1f 60
        E 0 90 3c 60
        E 0 90 48 60
        E 0 90 4a 60
        E 0 90 54 60
        E 0 90 56 60
        E 0 90 60 60
        E 0 90 61 60
        E 120 80 18 00
        E 0 80 1f 00
        E 0 80 3c 00
        E 0 80 48 00
        E 0 80 4a 00
        E 0 80 54 00
        E 0 80 56 00
        E 0 80 60 00
        E 0 80 61 00
        E 120 90 18 60
        E 0 90 1f 60
        E 0 90 54 60
        E 0 90 56 60
        E 0 90 60 60
        E 0 90 61 60
        E 120 80 18 00
        E 0 80 1f 00
        E 0 80 54 00
        E 0 80 56 00
        E 0 80 60 00
        E 0 80 61 00
        E 0 90 1e 60
        E 0 90 61 60
        E 120 80 1e 00
        E 0 80 61 00
        E 0 90 1b 60
        E 0 90 3d 60
        E 0 90 49 60
        E 0 90 4a 60
        E 0 90 55 60
        E 0 90 56 60
        E 0 90 62 60
        E 120 80 1b 00
        E 0 80 3d 00
        E 0 80 49 00
        E 0 80 4a 00
        E 0 80 55 00
        E 0 80 56 00
        E 0 80 62 00
        E 120 90 1f 60
        E 0 90 56 60
        E 0 90 61 60
        E 120 80 1f 00
        E 0 80 56 00
        E 0 80 61 00
        E 0 90 1e 60
        E 0 90 61 60
        E 120 80 1e 00
        E 0 80 61 00
        E 0 90 18 60
        E 0 90 1f 60
        E 0 90 48 60
        E 0 90 4a 60
        E 0 90 54 60
        E 0 90 56 60
        E 0 90 60 60
        E 0 90 61 60
        E 120 80 18 00
        E 0 80 1f 00
        E 0 80 48 00
        E 0 80 4a 00
        E 0 80 54 00
        E 0 80 56 00
        E 0 80 60 00
        E 0 80 61 00
        E 120 90 18 60
        E 0 90 1f 60
        E 0 90 54 60
        E 0 90 56 60
        E 0 90 60 60
        E 0 90 61 60
        E 120 80 18 00
        E 0 80 1f 00
        E 0 80 54 00
        E 0 80 56 00
        E 0 80 60 00
        E 0 80 61 00
        E 0 90 1e 60
        E 0 90 61 60
        E 120 80 1e 00
        E 0 80 61 00
        E 0 90 1b 60
        E 0 90 3d 60
        E 0 90 49 60
        E 0 90 4a 60
        E 0 90 55 60
        E 0 90 56 60
        E 0 90 62 60
        E 120 80 1b 00
        E 0 80 3d 00
        E 0 80 49 00
        E 0 80 4a 00
        E 0 80 55 00
        E 0 80 56 00
        E 0 80 62 00
        E 120 90 1f 60
        E 0 90 56 60
        E 0 90 61 60
        E 120 80 1f 00
        E 0 80 56 00
        E 0 80 61 00
        E 0 90 1e 60
        E 0 90 61 60
        E 120 80 1e 00
        E 0 80 61 00
        E 0 90 18 60
        E 0 90 1f 60
        E 0 90 48 60
        E 0 90 4a 60
        E 0 90 54 60
        E 0 90 56 60
        E 0 90 60 60
        E 0 90 61 60
        E 120 80 18 00
        E 0 80 1f 00
        E 0 80 48 00
        E 0 80 4a 00
        E 0 80 54 00
        E 0 80 56 00
        E 0 80 60 00
        E 0 80 61 00
        E 120 90 18 60
        E 0 90 1f 60
        E 0 90 54 60
        E 0 90 56 60
        E 0 90 60 60
        E 0 90 61 60
        E 120 80 18 00
        E 0 80 1f 00
        E 0 80 54 00
        E 0 80 56 00
        E 0 80 60 00
        E 0 80 61 00
        E 0 90 1e 60
        E 0 90 61 60
        E 120 80 1e 00
        E 0 80 61 00
        E 0 90 1b 60
        E 0 90 3d 60
        E 0 90 49 60
        E 0 90 4a 60
        E 0 90 55 60
        E 0 90 56 60
        E 0 90 62 60
        E 120 80 1b 00
        E 0 80 3d 00
        E 0 80 49 00
        E 0 80 4a 00
        E 0 80 55 00
        E 0 80 56 00
        E 0 80 62 00
        E 120 90 1f 60
        E 0 90 56 60
        E 0 90 61 60
        E 120 80 1f 00
        E 0 80 56 00
        E 0 80 61 00
        E 0 90 1e 60
        E 0 90 61 60
        E 120 80 1e 00
        E 0 80 61 00
        E 0 90 18 60
        E 0 90 1f 60
        E 0 90 48 60
        E 0 90 4a 60
        E 0 90 54 60
        E 0 90 56 60
        E 0 90 60 60
        E 0 90 61 60
        E 120 80 18 00
        E 0 80 1f 00
        E 0 80 48 00
        E 0 80 4a 00
        E 0 80 54 00
        E 0 80 56 00
        E 0 80 60 00
        E 0 80 61 00
        E 120 90 18 60
        E 0 90 1f 60
        E 0 90 54 60
        E 0 90 56 60
        E 0 90 60 60
        E 0 90 61 60
        E 120 80 18 00
        E 0 80 1f 00
        E 0 80 54 00
        E 0 80 56 00
        E 0 80 60 00
        E 0 80 61 00
        E 0 90 1e 60
        E 0 90 61 60
        E 120 80 1e 00
        E 0 80 61 00
        E 0 90 1b 60
        E 0 90 3d 60
        E 0 90 49 60
        E 0 90 4a 60
        E 0 90 55 60
        E 0 90 56 60
        E 0 90 62 60
        E 120 80 1b 00
        E 0 80 3d 00
        E 0 80 49 00
        E 0 80 4a 00
        E 0 80 55 00
        E 0 80 56 00
        E 0 80 62 00
        E 120 90 1f 60
        E 0 90 56 60
        E 0 90 61 60
        E 120 80 1f 00
        E 0 80 56 00
        E 0 80 61 00
        E 0 90 1e 60
        E 0 90 61 60
        E 120 80 1e 00
        E 0 80 61 00
        E 0 90 18 60
        E 0 90 1f 60
        E 0 90 48 60
        E 0 90 4a 60
        E 0 90 54 60
        E 0 90 56 60
        E 0 90 60 60
        E 0 90 61 60
        E 120 80 18 00
        E 0 80 1f 00
        E 0 80 48 00
        E 0 80 4a 00
        E 0 80 54 00
        E 0 80 56 00
        E 0 80 60 00
        E 0 80 61 00
        E 120 90 18 60
        E 0 90 1f 60
        E 0 90 54 60
        E 0 90 56 60
        E 0 90 60 60
        E 0 90 61 60
        E 120 80 18 00
        E 0 80 1f 00
        E 0 80 54 00
        E 0 80 56 00
        E 0 80 60 00
        E 0 80 61 00
        E 0 90 1e 60
        E 0 90 61 60
        E 120 80 1e 00
        E 0 80 61 00
        E 0 90 1b 60
        E 0 90 3d 60
        E 0 90 49 60
        E 0 90 4a 60
        E 0 90 55 60
        E 0 90 56 60
        E 0 90 62 60
        E 120 80 1b 00
        E 0 80 3d 00
        E 0 80 49 00
        E 0 80 4a 00
        E 0 80 55 00
        E 0 80 56 00
        E 0 80 62 00
        E 120 90 1f 60
        E 0 90 56 60
        E 0 90 61 60
        E 120 80 1f 00
        E 0 80 56 00
        E 0 80 61 00
        E 0 90 1e 60
        E 0 90 61 60
        E 120 80 1e 00
        E 0 80 61 00
        E 0 90 18 60
        E 0 90 1f 60
        E 0 90 48 60
        E 0 90 4a 60
        E 0 90 54 60
        E 0 90 56 60
        E 0 90 60 60
        E 0 90 61 60
        E 120 80 18 00
        E 0 80 1f 00
        E 0 80 48 00
        E 0 80 4a 00
        E 0 80 54 00
        E 0 80 56 00
        E 0 80 60 00
        E 0 80 61 00
        E 120 90 18 60
        E 0 90 1f 60
        E 0 90 54 60
        E 0 90 56 60
        E 0 90 60 60
        E 0 90 61 60
        E 120 80 18 00
        E 0 80 1f 00
        E 0 80 54 00
        E 0 80 56 00
        E 0 80 60 00
        E 0 80 61 00
        E 0 90 1e 60
        E 0 90 61 60
        E 120 80 1e 00
        E 0 80 61 00
        E 0 90 1b 60
        E 0 90 3d 60
        E 0 90 49 60
        E 0 90 4a 60
        E 0 90 55 60
        E 0 90 56 60
        E 0 90 62 60
        E 120 80 1b 00
        E 0 80 3d 00
        E 0 80 49 00
        E 0 80 4a 00
        E 0 80 55 00
        E 0 80 56 00
        E 0 80 62 00
        E 120 90 1f 60
        E 0 90 56 60
        E 0 90 61 60
        E 120 80 1f 00
        E 0 80 56 00
        E 0 80 61 00
        E 0 90 1e 60
        E 0 90 61 60
        E 120 80 1e 00
        E 0 80 61 00
        E 0 90 18 60
        E 0 90 1f 60
        E 0 90 48 60
        E 0 90 4a 60
        E 0 90 54 60
        E 0 90 56 60
        E 0 90 60 60
        E 0 90 61 60
        E 0 90 78 60
        E 0 90 79 60
        E 0 90 7a 60
        E 0 90 7b 60
        E 0 90 7c 60
        E 120 80 18 00
        E 0 80 1f 00
        E 0 80 48 00
        E 0 80 4a 00
        E 0 80 54 00
        E 0 80 56 00
        E 0 80 60 00
        E 0 80 61 00
        E 120 90 18 60
        E 0 90 1f 60
        E 0 90 54 60
        E 0 90 56 60
        E 0 90 60 60
        E 0 90 61 60
        E 120 80 18 00
        E 0 80 1f 00
        E 0 80 54 00
        E 0 80 56 00
        E 0 80 60 00
        E 0 80 61 00
        E 0 90 1e 60
        E 0 90 61 60
        E 120 80 1e 00
        E 0 80 61 00
        E 0 90 1b 60
        E 0 90 3d 60
        E 0 90 49 60
        E 0 90 4a 60
        E 0 90 55 60
        E 0 90 56 60
        E 0 90 62 60
        E 120 80 1b 00
        E 0 80 3d 00
        E 0 80 49 00
        E 0 80 4a 00
        E 0 80 55 00
        E 0 80 56 00
        E 0 80 62 00
        E 120 90 1f 60
        E 0 90 56 60
        E 0 90 61 60
        E 120 80 1f 00
        E 0 80 56 00
        E 0 80 61 00
        E 0 90 1e 60
        E 0 90 61 60
        E 120 80 1e 00
        E 0 80 61 00
        E 0 90 18 60
        E 0 90 48 60
        E 0 90 54 60
        E 0 90 60 60
        E 120 80 18 00
        E 0 80 48 00
        E 0 80 54 00
        E 0 80 60 00
        E 120 90 1a 60
        E 0 90 1f 60
        E 0 90 55 60
        E 0 90 56 60
        E 0 90 61 60
        E 0 90 62 60
        E 120 80 1a 00
        E 0 80 1f 00
        E 0 80 55 00
        E 0 80 56 00
        E 0 80 61 00
        E 0 80 62 00
        E 120 90 1a 60
        E 0 90 1f 60
        E 0 90 3d 60
        E 0 90 49 60
        E 0 90 55 60
        E 0 90 56 60
        E 0 90 61 60
        E 0 90 62 60
        E 120 80 1a 00
        E 0 80 1f 00
        E 0 80 3d 00
        E 0 80 49 00
        E 0 80 55 00
        E 0 80 56 00
        E 0 80 61 00
        E 0 80 62 00
        E 120 90 1a 60
        E 0 90 1f 60
        E 0 90 55 60
        E 0 90 56 60
        E 0 90 61 60
        E 0 90 62 60
        E 120 80 1a 00
        E 0 80 1f 00
        E 0 80 55 00
        E 0 80 56 00
        E 0 80 61 00
        E 0 80 62 00
        E 120 80 78 00
        E 0 80 79 00
        E 0 80 7a 00
        E 0 80 7b 00
        E 0 80 7c 00
        E 0 90 18 60
        E 0 90 1f 60
        E 0 90 3c 60
        E 0 90 48 60
        E 0 90 4a 60
        E 0 90 54 60
        E 0 90 56 60
        E 0 90 60 60
        E 0 90 61 60
        E 120 80 18 00
        E 0 80 1f 00
        E 0 80 3c 00
        E 0 80 48 00
        E 0 80 4a 00
        E 0 80 54 00
        E 0 80 56 00
        E 0 80 60 00
        E 0 80 61 00
        E 120 90 18 60
        E 0 90 1f 60
        E 0 90 54 60
        E 0 90 56 60
        E 0 90 60 60
        E 0 90 61 60
        E 120 80 18 00
        E 0 80 1f 00
        E 0 80 54 00
        E 0 80 56 00
        E 0 80 60 00
        E 0 80 61 00
        E 0 90 1e 60
        E 0 90 61 60
        E 120 80 1e 00
        E 0 80 61 00
        E 0 90 1b 60
        E 0 90 3d 60
        E 0 90 49 60
        E 0 90 4a 60
        E 0 90 55 60
        E 0 90 56 60
        E 0 90 62 60
        E 120 80 1b 00
        E 0 80 3d 00
        E 0 80 49 00
        E 0 80 4a 00
        E 0 80 55 00
        E 0 80 56 00
        E 0 80 62 00
        E 120 90 1f 60
        E 0 90 56 60
        E 0 90 61 60
        E 120 80 1f 00
        E 0 80 56 00
        E 0 80 61 00
        E 0 90 1e 60
        E 0 90 61 60
        E 120 80 1e 00
        E 0 80 61 00
        E 0 90 18 60
        E 0 90 1f 60
        E 0 90 48 60
        E 0 90 4a 60
        E 0 90 54 60
        E 0 90 56 60
        E 0 90 60 60
        E 0 90 61 60
        E 120 80 18 00
        E 0 80 1f 00
        E 0 80 48 00
        E 0 80 4a 00
        E 0 80 54 00
        E 0 80 56 00
        E 0 80 60 00
        E 0 80 61 00
        E 120 90 18 60
        E 0 90 1f 60
        E 0 90 54 60
        E 0 90 56 60
        E 0 90 60 60
        E 0 90 61 60
        E 120 80 18 00
        E 0 80 1f 00
        E 0 80 54 00
        E 0 80 56 00
        E 0 80 60 00
        E 0 80 61 00
        E 0 90 1e 60
        E 0 90 61 60
        E 120 80 1e 00
        E 0 80 61 00
        E 0 90 1b 60
        E 0 90 3d 60
        E 0 90 49 60
        E 0 90 4a 60
        E 0 90 55 60
        E 0 90 56 60
        E 0 90 62 60
        E 120 80 1b 00
        E 0 80 3d 00
        E 0 80 49 00
        E 0 80 4a 00
        E 0 80 55 00
        E 0 80 56 00
        E 0 80 62 00
        E 120 90 1f 60
        E 0 90 56 60
        E 0 90 61 60
        E 120 80 1f 00
        E 0 80 56 00
        E 0 80 61 00
        E 0 90 1e 60
        E 0 90 61 60
        E 120 80 1e 00
        E 0 80 61 00
        E 0 90 18 60
        E 0 90 1f 60
        E 0 90 48 60
        E 0 90 4a 60
        E 0 90 54 60
        E 0 90 56 60
        E 0 90 60 60
        E 0 90 61 60
        E 120 80 18 00
        E 0 80 1f 00
        E 0 80 48 00
        E 0 80 4a 00
        E 0 80 54 00
        E 0 80 56 00
        E 0 80 60 00
        E 0 80 61 00
        E 120 90 18 60
        E 0 90 1f 60
        E 0 90 54 60
        E 0 90 56 60
        E 0 90 60 60
        E 0 90 61 60
        E 120 80 18 00
        E 0 80 1f 00
        E 0 80 54 00
        E 0 80 56 00
        E 0 80 60 00
        E 0 80 61 00
        E 0 90 1e 60
        E 0 90 61 60
        E 120 80 1e 00
        E 0 80 61 00
        E 0 90 1b 60
        E 0 90 3d 60
        E 0 90 49 60
        E 0 90 4a 60
        E 0 90 55 60
        E 0 90 56 60
        E 0 90 62 60
        E 120 80 1b 00
        E 0 80 3d 00
        E 0 80 49 00
        E 0 80 4a 00
        E 0 80 55 00
        E 0 80 56 00
        E 0 80 62 00
        E 120 90 1f 60
        E 0 90 56 60
        E 0 90 61 60
        E 120 80 1f 00
        E 0 80 56 00
        E 0 80 61 00
        E 0 90 1e 60
        E 0 90 61 60
        E 120 80 1e 00
        E 0 80 61 00
        E 0 90 18 60
        E 0 90 1f 60
        E 0 90 48 60
        E 0 90 4a 60
        E 0 90 54 60
        E 0 90 56 60
        E 0 90 60 60
        E 0 90 61 60
        E 120 80 18 00
        E 0 80 1f 00
        E 0 80 48 00
        E 0 80 4a 00
        E 0 80 54 00
        E 0 80 56 00
        E 0 80 60 00
        E 0 80 61 00
        E 120 90 18 60
        E 0 90 1f 60
        E 0 90 54 60
        E 0 90 56 60
        E 0 90 60 60
        E 0 90 61 60
        E 120 80 18 00
        E 0 80 1f 00
        E 0 80 54 00
        E 0 80 56 00
        E 0 80 60 00
        E 0 80 61 00
        E 0 90 1e 60
        E 0 90 61 60
        E 120 80 1e 00
        E 0 80 61 00
        E 0 90 1b 60
        E 0 90 3d 60
        E 0 90 49 60
        E 0 90 4a 60
        E 0 90 55 60
        E 0 90 56 60
        E 0 90 62 60
        E 120 80 1b 00
        E 0 80 3d 00
        E 0 80 49 00
        E 0 80 4a 00
        E 0 80 55 00
        E 0 80 56 00
        E 0 80 62 00
        E 120 90 1f 60
        E 0 90 56 60
        E 0 90 61 60
        E 120 80 1f 00
        E 0 80 56 00
        E 0 80 61 00
        E 0 90 1e 60
        E 0 90 61 60
        E 120 80 1e 00
        E 0 80 61 00
        E 0 90 18 60
        E 0 90 1f 60
        E 0 90 3c 60
        E 0 90 48 60
        E 0 90 4a 60
        E 0 90 54 60
        E 0 90 56 60
        E 0 90 60 60
        E 0 90 61 60
        E 0 90 74 60
        E 120 80 18 00
        E 0 80 1f 00
        E 0 80 3c 00
        E 0 80 48 00
        E 0 80 4a 00
        E 0 80 54 00
        E 0 80 56 00
        E 0 80 60 00
        E 0 80 61 00
        E 120 90 18 60
        E 0 90 1f 60
        E 0 90 54 60
        E 0 90 56 60
        E 0 90 60 60
        E 0 90 61 60
        E 120 80 18 00
        E 0 80 1f 00
        E 0 80 54 00
        E 0 80 56 00
        E 0 80 60 00
        E 0 80 61 00
        E 0 90 1e 60
        E 0 90 61 60
        E 120 80 1e 00
        E 0 80 61 00
        E 0 90 1b 60
        E 0 90 3d 60
        E 0 90 49 60
        E 0 90 4a 60
        E 0 90 55 60
        E 0 90 56 60
        E 0 90 62 60
        E 120 80 1b 00
        E 0 80 3d 00
        E 0 80 49 00
        E 0 80 4a 00
        E 0 80 55 00
        E 0 80 56 00
        E 0 80 62 00
        E 120 90 1f 60
        E 0 90 56 60
        E 0 90 61 60
        E 120 80 1f 00
        E 0 80 56 00
        E 0 80 61 00
        E 0 90 1e 60
        E 0 90 61 60
        E 120 80 1e 00
        E 0 80 61 00
        E 0 90 18 60
        E 0 90 1f 60
        E 0 90 48 60
        E 0 90 4a 60
        E 0 90 54 60
        E 0 90 56 60
        E 0 90 60 60
        E 0 90 61 60
        E 120 80 18 00
        E 0 80 1f 00
        E 0 80 48 00
        E 0 80 4a 00
        E 0 80 54 00
        E 0 80 56 00
        E 0 80 60 00
        E 0 80 61 00
        E 120 90 18 60
        E 0 90 1f 60
        E 0 90 54 60
        E 0 90 56 60
        E 0 90 60 60
        E 0 90 61 60
        E 120 80 18 00
        E 0 80 1f 00
        E 0 80 54 00
        E 0 80 56 00
        E 0 80 60 00
        E 0 80 61 00
        E 0 90 1e 60
        E 0 90 61 60
        E 120 80 1e 00
        E 0 80 61 00
        E 0 90 1b 60
        E 0 90 49 60
        E 0 90 4a 60
        E 0 90 55 60
        E 0 90 56 60
        E 0 90 62 60
        E 120 80 1b 00
        E 0 80 49 00
        E 0 80 4a 00
        E 0 80 55 00
        E 0 80 56 00
        E 0 80 62 00
        E 120 90 1f 60
        E 0 90 56 60
        E 0 90 61 60
        E 120 80 1f 00
        E 0 80 56 00
        E 0 80 61 00
        E 0 90 1e 60
        E 0 90 61 60
        E 120 80 1e 00
        E 0 80 61 00
        E 0 90 1a 60
        E 0 90 24 60
        E 0 90 3d 60
        E 0 90 40 60
        E 0 90 49 60
        E 0 90 4c 60
        E 0 90 55 60
        E 0 90 58 60
        E 0 90 62 60
        E 0 90 64 60
        E 120 80 1a 00
        E 0 80 24 00
        E 0 80 3d 00
        E 0 80 40 00
        E 0 80 49 00
        E 0 80 4c 00
        E 0 80 55 00
        E 0 80 58 00
        E 0 80 62 00
        E 0 80 64 00
        E 120 90 18 60
        E 0 90 54 60
        E 0 90 60 60
        E 120 80 18 00
        E 0 80 54 00
        E 0 80 60 00
        E 120 90 1a 60
        E 0 90 24 60
        E 0 90 49 60
        E 0 90 4c 60
        E 0 90 55 60
        E 0 90 58 60
        E 0 90 62 60
        E 0 90 64 60
        E 120 80 1a 00
        E 0 80 24 00
        E 0 80 49 00
        E 0 80 4c 00
        E 0 80 55 00
        E 0 80 58 00
        E 0 80 62 00
        E 0 80 64 00
        E 120 90 18 60
        E 0 90 54 60
        E 0 90 60 60
        E 120 80 18 00
        E 0 80 54 00
        E 0 80 60 00
        E 120 90 1a 60
        E 0 90 24 60
        E 0 90 3d 60
        E 0 90 40 60
        E 0 90 49 60
        E 0 90 4c 60
        E 0 90 55 60
        E 0 90 58 60
        E 0 90 62 60
        E 0 90 64 60
        E 120 80 1a 00
        E 0 80 24 00
        E 0 80 3d 00
        E 0 80 40 00
        E 0 80 49 00
        E 0 80 4c 00
        E 0 80 55 00
        E 0 80 58 00
        E 0 80 62 00
        E 0 80 64 00
        E 120 90 1a 60
        E 0 90 24 60
        E 0 90 55 60
        E 0 90 58 60
        E 0 90 62 60
        E 0 90 64 60
        E 120 80 1a 00
        E 0 80 24 00
        E 0 80 55 00
        E 0 80 58 00
        E 0 80 62 00
        E 0 80 64 00
        E 120 90 1a 60
        E 0 90 24 60
        E 0 90 49 60
        E 0 90 4c 60
        E 0 90 55 60
        E 0 90 58 60
        E 0 90 62 60
        E 0 90 64 60
        E 120 80 1a 00
        E 0 80 24 00
        E 0 80 49 00
        E 0 80 4c 00
        E 0 80 55 00
        E 0 80 58 00
        E 0 80 62 00
        E 0 80 64 00
        E 120 90 1a 60
        E 0 90 24 60
        E 0 90 55 60
        E 0 90 58 60
        E 0 90 62 60
        E 0 90 64 60
        E 120 80 1a 00
        E 0 80 24 00
        E 0 80 55 00
        E 0 80 58 00
        E 0 80 62 00
        E 0 80 64 00
        E 120 80 74 00
        E 0 90 18 60
        E 0 90 1f 60
        E 0 90 3c 60
        E 0 90 48 60
        E 0 90 4a 60
        E 0 90 54 60
        E 0 90 56 60
        E 0 90 60 60
        E 0 90 61 60
        E 120 80 18 00
        E 0 80 1f 00
        E 0 80 3c 00
        E 0 80 48 00
        E 0 80 4a 00
        E 0 80 54 00
        E 0 80 56 00
        E 0 80 60 00
        E 0 80 61 00
        E 120 90 18 60
        E 0 90 1f 60
        E 0 90 54 60
        E 0 90 56 60
        E 0 90 60 60
        E 0 90 61 60
        E 120 80 18 00
        E 0 80 1f 00
        E 0 80 54 00
        E 0 80 56 00
        E 0 80 60 00
        E 0 80 61 00
        E 0 90 1e 60
        E 0 90 61 60
        E 120 80 1e 00
        E 0 80 61 00
        E 0 90 1b 60
        E 0 90 3d 60
        E 0 90 49 60
        E 0 90 4a 60
        E 0 90 55 60
        E 0 90 56 60
        E 0 90 62 60
        E 120 80 1b 00
        E 0 80 3d 00
        E 0 80 49 00
        E 0 80 4a 00
        E 0 80 55 00
        E 0 80 56 00
        E 0 80 62 00
        E 120 90 1f 60
        E 0 90 56 60
        E 0 90 61 60
        E 120 80 1f 00
        E 0 80 56 00
        E 0 80 61 00
        E 0 90 1e 60
        E 0 90 61 60
        E 120 80 1e 00
        E 0 80 61 00
        E 0 90 18 60
        E 0 90 1f 60
        E 0 90 48 60
        E 0 90 4a 60
        E 0 90 54 60
        E 0 90 56 60
        E 0 90 60 60
        E 0 90 61 60
        E 120 80 18 00
        E 0 80 1f 00
        E 0 80 48 00
        E 0 80 4a 00
        E 0 80 54 00
        E 0 80 56 00
        E 0 80 60 00
        E 0 80 61 00
        E 120 90 18 60
        E 0 90 1f 60
        E 0 90 54 60
        E 0 90 56 60
        E 0 90 60 60
        E 0 90 61 60
        E 120 80 18 00
        E 0 80 1f 00
        E 0 80 54 00
        E 0 80 56 00
        E 0 80 60 00
        E 0 80 61 00
        E 0 90 1e 60
        E 0 90 61 60
        E 120 80 1e 00
        E 0 80 61 00
        E 0 90 1b 60
        E 0 90 3d 60
        E 0 90 49 60
        E 0 90 4a 60
        E 0 90 55 60
        E 0 90 56 60
        E 0 90 62 60
        E 120 80 1b 00
        E 0 80 3d 00
        E 0 80 49 00
        E 0 80 4a 00
        E 0 80 55 00
        E 0 80 56 00
        E 0 80 62 00
        E 120 90 1f 60
        E 0 90 56 60
        E 0 90 61 60
        E 120 80 1f 00
        E 0 80 56 00
        E 0 80 61 00
        E 0 90 1e 60
        E 0 90 61 60
        E 120 80 1e 00
        E 0 80 61 00
        E 0 90 18 60
        E 0 90 1f 60
        E 0 90 48 60
        E 0 90 4a 60
        E 0 90 54 60
        E 0 90 56 60
        E 0 90 60 60
        E 0 90 61 60
        E 120 80 18 00
        E 0 80 1f 00
        E 0 80 48 00
        E 0 80 4a 00
        E 0 80 54 00
        E 0 80 56 00
        E 0 80 60 00
        E 0 80 61 00
        E 120 90 18 60
        E 0 90 1f 60
        E 0 90 54 60
        E 0 90 56 60
        E 0 90 60 60
        E 0 90 61 60
        E 120 80 18 00
        E 0 80 1f 00
        E 0 80 54 00
        E 0 80 56 00
        E 0 80 60 00
        E 0 80 61 00
        E 0 90 1e 60
        E 0 90 61 60
        E 120 80 1e 00
        E 0 80 61 00
        E 0 90 1b 60
        E 0 90 3d 60
        E 0 90 49 60
        E 0 90 4a 60
        E 0 90 55 60
        E 0 90 56 60
        E 0 90 62 60
        E 120 80 1b 00
        E 0 80 3d 00
        E 0 80 49 00
        E 0 80 4a 00
        E 0 80 55 00
        E 0 80 56 00
        E 0 80 62 00
        E 120 90 1f 60
        E 0 90 56 60
        E 0 90 61 60
        E 120 80 1f 00
        E 0 80 56 00
        E 0 80 61 00
        E 0 90 1e 60
        E 0 90 61 60
        E 120 80 1e 00
        E 0 80 61 00
        E 0 90 18 60
        E 0 90 1f 60
        E 0 90 48 60
        E 0 90 4a 60
        E 0 90 54 60
        E 0 90 56 60
        E 0 90 60 60
        E 0 90 61 60
        E 120 80 18 00
        E 0 80 1f 00
        E 0 80 48 00
        E 0 80 4a 00
        E 0 80 54 00
        E 0 80 56 00
        E 0 80 60 00
        E 0 80 61 00
        E 120 90 18 60
        E 0 90 1f 60
        E 0 90 54 60
        E 0 90 56 60
        E 0 90 60 60
        E 0 90 61 60
        E 120 80 18 00
        E 0 80 1f 00
        E 0 80 54 00
        E 0 80 56 00
        E 0 80 60 00
        E 0 80 61 00
        E 0 90 1e 60
        E 0 90 61 60
        E 120 80 1e 00
        E 0 80 61 00
        E 0 90 1b 60
        E 0 90 3d 60
        E 0 90 49 60
        E 0 90 4a 60
        E 0 90 55 60
        E 0 90 56 60
        E 0 90 62 60
        E 120 80 1b 00
        E 0 80 3d 00
        E 0 80 49 00
        E 0 80 4a 00
        E 0 80 55 00
        E 0 80 56 00
        E 0 80 62 00
        E 120 90 1f 60
        E 0 90 56 60
        E 0 90 61 60
        E 120 80 1f 00
        E 0 80 56 00
        E 0 80 61 00
        E 0 90 1e 60
        E 0 90 61 60
        E 120 80 1e 00
        E 0 80 61 00
        E 0 90 18 60
        E 0 90 1f 60
        E 0 90 3c 60
        E 0 90 48 60
        E 0 90 4a 60
        E 0 90 54 60
        E 0 90 56 60
        E 0 90 60 60
        E 0 90 61 60
        E 120 80 18 00
        E 0 80 1f 00
        E 0 80 3c 00
        E 0 80 48 00
        E 0 80 4a 00
        E 0 80 54 00
        E 0 80 56 00
        E 0 80 60 00
        E 0 80 61 00
        E 120 90 18 60
        E 0 90 1f 60
        E 0 90 54 60
        E 0 90 56 60
        E 0 90 60 60
        E 0 90 61 60
        E 120 80 18 00
        E 0 80 1f 00
        E 0 80 54 00
        E 0 80 56 00
        E 0 80 60 00
        E 0 80 61 00
        E 0 90 1e 60
        E 0 90 61 60
        E 120 80 1e 00
        E 0 80 61 00
        E 0 90 1b 60
        E 0 90 3d 60
        E 0 90 49 60
        E 0 90 4a 60
        E 0 90 55 60
        E 0 90 56 60
        E 0 90 62 60
        E 120 80 1b 00
        E 0 80 3d 00
        E 0 80 49 00
        E 0 80 4a 00
        E 0 80 55 00
        E 0 80 56 00
        E 0 80 62 00
        E 120 90 1f 60
        E 0 90 56 60
        E 0 90 61 60
        E 120 80 1f 00
        E 0 80 56 00
        E 0 80 61 00
        E 0 90 1e 60
        E 0 90 61 60
        E 120 80 1e 00
        E 0 80 61 00
        E 0 90 18 60
        E 0 90 1f 60
        E 0 90 48 60
        E 0 90 4a 60
        E 0 90 54 60
        E 0 90 56 60
        E 0 90 60 60
        E 0 90 61 60
        E 120 80 18 00
        E 0 80 1f 00
        E 0 80 48 00
        E 0 80 4a 00
        E 0 80 54 00
        E 0 80 56 00
        E 0 80 60 00
        E 0 80 61 00
        E 120 90 18 60
        E 0 90 1f 60
        E 0 90 54 60
        E 0 90 56 60
        E 0 90 60 60
        E 0 90 61 60
        E 120 80 18 00
        E 0 80 1f 00
        E 0 80 54 00
        E 0 80 56 00
        E 0 80 60 00
        E 0 80 61 00
        E 0 90 1e 60
        E 0 90 61 60
        E 120 80 1e 00
        E 0 80 61 00
        E 0 90 1b 60
        E 0 90 3d 60
        E 0 90 49 60
        E 0 90 4a 60
        E 0 90 55 60
        E 0 90 56 60
        E 0 90 62 60
        E 120 80 1b 00
        E 0 80 3d 00
        E 0 80 49 00
        E 0 80 4a 00
        E 0 80 55 00
        E 0 80 56 00
        E 0 80 62 00
        E 120 90 1f 60
        E 0 90 56 60
        E 0 90 61 60
        E 120 80 1f 00
        E 0 80 56 00
        E 0 80 61 00
        E 0 90 1e 60
        E 0 90 61 60
        E 120 80 1e 00
        E 0 80 61 00
        E 0 90 18 60
        E 0 90 1f 60
        E 0 90 48 60
        E 0 90 4a 60
        E 0 90 54 60
        E 0 90 56 60
        E 0 90 60 60
        E 0 90 61 60
        E 0 90 78 60
        E 0 90 79 60
        E 0 90 7a 60
        E 0 90 7b 60
        E 0 90 7c 60
        E 120 80 18 00
        E 0 80 1f 00
        E 0 80 48 00
        E 0 80 4a 00
        E 0 80 54 00
        E 0 80 56 00
        E 0 80 60 00
        E 0 80 61 00
        E 120 90 18 60
        E 0 90 1f 60
        E 0 90 54 60
        E 0 90 56 60
        E 0 90 60 60
        E 0 90 61 60
        E 120 80 18 00
        E 0 80 1f 00
        E 0 80 54 00
        E 0 80 56 00
        E 0 80 60 00
        E 0 80 61 00
        E 0 90 1e 60
        E 0 90 61 60
        E 120 80 1e 00
        E 0 80 61 00
        E 0 90 1b 60
        E 0 90 3d 60
        E 0 90 49 60
        E 0 90 4a 60
        E 0 90 55 60
        E 0 90 56 60
        E 0 90 62 60
        E 120 80 1b 00
        E 0 80 3d 00
        E 0 80 49 00
        E 0 80 4a 00
        E 0 80 55 00
        E 0 80 56 00
        E 0 80 62 00
        E 120 90 1f 60
        E 0 90 56 60
        E 0 90 61 60
        E 120 80 1f 00
        E 0 80 56 00
        E 0 80 61 00
        E 0 90 1e 60
        E 0 90 61 60
        E 120 80 1e 00
        E 0 80 61 00
        E 0 90 18 60
        E 0 90 48 60
        E 0 90 54 60
        E 0 90 60 60
        E 120 80 18 00
        E 0 80 48 00
        E 0 80 54 00
        E 0 80 60 00
        E 120 90 1a 60
        E 0 90 1f 60
        E 0 90 55 60
        E 0 90 56 60
        E 0 90 61 60
        E 0 90 62 60
        E 120 80 1a 00
        E 0 80 1f 00
        E 0 80 55 00
        E 0 80 56 00
        E 0 80 61 00
        E 0 80 62 00
        E 120 90 1a 60
        E 0 90 1f 60
        E 0 90 3d 60
        E 0 90 49 60
        E 0 90 55 60
        E 0 90 56 60
        E 0 90 61 60
        E 0 90 62 60
        E 120 80 1a 00
        E 0 80 1f 00
        E 0 80 3d 00
        E 0 80 49 00
        E 0 80 55 00
        E 0 80 56 00
        E 0 80 61 00
        E 0 80 62 00
        E 120 90 1a 60
        E 0 90 1f 60
        E 0 90 55 60
        E 0 90 56 60
        E 0 90 61 60
        E 0 90 62 60
        E 120 80 1a 00
        E 0 80 1f 00
        E 0 80 55 00
        E 0 80 56 00
        E 0 80 61 00
        E 0 80 62 00
        E 120 80 78 00
        E 0 80 79 00
        E 0 80 7a 00
        E 0 80 7b 00
        E 0 80 7c 00
        E 0 90 18 60
        E 0 90 1f 60
        E 0 90 3c 60
        E 0 90 48 60
        E 0 90 4a 60
        E 0 90 54 60
        E 0 90 56 60
        E 0 90 60 60
        E 0 90 61 60
        E 120 80 18 00
        E 0 80 1f 00
        E 0 80 3c 00
        E 0 80 48 00
        E 0 80 4a 00
        E 0 80 54 00
        E 0 80 56 00
        E 0 80 60 00
        E 0 80 61 00
        E 120 90 18 60
        E 0 90 1f 60
        E 0 90 54 60
        E 0 90 56 60
        E 0 90 60 60
        E 0 90 61 60
        E 120 80 18 00
        E 0 80 1f 00
        E 0 80 54 00
        E 0 80 56 00
        E 0 80 60 00
        E 0 80 61 00
        E 0 90 1e 60
        E 0 90 61 60
        E 120 80 1e 00
        E 0 80 61 00
        E 0 90 1b 60
        E 0 90 3d 60
        E 0 90 49 60
        E 0 90 4a 60
        E 0 90 55 60
        E 0 90 56 60
        E 0 90 62 60
        E 120 80 1b 00
        E 0 80 3d 00
        E 0 80 49 00
        E 0 80 4a 00
        E 0 80 55 00
        E 0 80 56 00
        E 0 80 62 00
        E 120 90 1f 60
        E 0 90 56 60
        E 0 90 61 60
        E 120 80 1f 00
        E 0 80 56 00
        E 0 80 61 00
        E 0 90 1e 60
        E 0 90 61 60
        E 120 80 1e 00
        E 0 80 61 00
        E 0 90 18 60
        E 0 90 1f 60
        E 0 90 48 60
        E 0 90 4a 60
        E 0 90 54 60
        E 0 90 56 60
        E 0 90 60 60
        E 0 90 61 60
        E 120 80 18 00
        E 0 80 1f 00
        E 0 80 48 00
        E 0 80 4a 00
        E 0 80 54 00
        E 0 80 56 00
        E 0 80 60 00
        E 0 80 61 00
        E 120 90 18 60
        E 0 90 1f 60
        E 0 90 54 60
        E 0 90 56 60
        E 0 90 60 60
        E 0 90 61 60
        E 120 80 18 00
        E 0 80 1f 00
        E 0 80 54 00
        E 0 80 56 00
        E 0 80 60 00
        E 0 80 61 00
        E 0 90 1e 60
        E 0 90 61 60
        E 120 80 1e 00
        E 0 80 61 00
        E 0 90 1b 60
        E 0 90 3d 60
        E 0 90 49 60
        E 0 90 4a 60
        E 0 90 55 60
        E 0 90 56 60
        E 0 90 62 60
        E 120 80 1b 00
        E 0 80 3d 00
        E 0 80 49 00
        E 0 80 4a 00
        E 0 80 55 00
        E 0 80 56 00
        E 0 80 62 00
        E 120 90 1f 60
        E 0 90 56 60
        E 0 90 61 60
        E 120 80 1f 00
        E 0 80 56 00
        E 0 80 61 00
        E 0 90 1e 60
        E 0 90 61 60
        E 120 80 1e 00
        E 0 80 61 00
        E 0 90 18 60
        E 0 90 1f 60
        E 0 90 48 60
        E 0 90 4a 60
        E 0 90 54 60
        E 0 90 56 60
        E 0 90 60 60
        E 0 90 61 60
        E 120 80 18 00
        E 0 80 1f 00
        E 0 80 48 00
        E 0 80 4a 00
        E 0 80 54 00
        E 0 80 56 00
        E 0 80 60 00
        E 0 80 61 00
        E 120 90 18 60
        E 0 90 1f 60
        E 0 90 54 60
        E 0 90 56 60
        E 0 90 60 60
        E 0 90 61 60
        E 120 80 18 00
        E 0 80 1f 00
        E 0 80 54 00
        E 0 80 56 00
        E 0 80 60 00
        E 0 80 61 00
        E 0 90 1e 60
        E 0 90 61 60
        E 120 80 1e 00
        E 0 80 61 00
        E 0 90 1b 60
        E 0 90 3d 60
        E 0 90 49 60
        E 0 90 4a 60
        E 0 90 55 60
        E 0 90 56 60
        E 0 90 62 60
        E 120 80 1b 00
        E 0 80 3d 00
        E 0 80 49 00
        E 0 80 4a 00
        E 0 80 55 00
        E 0 80 56 00
        E 0 80 62 00
        E 120 90 1f 60
        E 0 90 56 60
        E 0 90 61 60
        E 120 80 1f 00
        E 0 80 56 00
        E 0 80 61 00
        E 0 90 1e 60
        E 0 90 61 60
        E 120 80 1e 00
        E 0 80 61 00
        E 0 90 18 60
        E 0 90 1f 60
        E 0 90 48 60
        E 0 90 4a 60
        E 0 90 54 60
        E 0 90 56 60
        E 0 90 60 60
        E 0 90 61 60
        E 120 80 18 00
        E 0 80 1f 00
        E 0 80 48 00
        E 0 80 4a 00
        E 0 80 54 00
        E 0 80 56 00
        E 0 80 60 00
        E 0 80 61 00
        E 120 90 18 60
        E 0 90 1f 60
        E 0 90 54 60
        E 0 90 56 60
        E 0 90 60 60
        E 0 90 61 60
        E 120 80 18 00
        E 0 80 1f 00
        E 0 80 54 00
        E 0 80 56 00
        E 0 80 60 00
        E 0 80 61 00
        E 0 90 1e 60
        E 0 90 61 60
        E 120 80 1e 00
        E 0 80 61 00
        E 0 90 1b 60
        E 0 90 3d 60
        E 0 90 49 60
        E 0 90 4a 60
        E 0 90 55 60
        E 0 90 56 60
        E 0 90 62 60
        E 120 80 1b 00
        E 0 80 3d 00
        E 0 80 49 00
        E 0 80 4a 00
        E 0 80 55 00
        E 0 80 56 00
        E 0 80 62 00
        E 120 90 1f 60
        E 0 90 56 60
        E 0 90 61 60
        E 120 80 1f 00
        E 0 80 56 00
        E 0 80 61 00
        E 0 90 1e 60
        E 0 90 61 60
        E 120 80 1e 00
        E 0 80 61 00
        E 0 90 18 60
        E 0 90 1f 60
        E 0 90 3c 60
        E 0 90 48 60
        E 0 90 4a 60
        E 0 90 54 60
        E 0 90 56 60
        E 0 90 60 60
        E 0 90 61 60
        E 120 80 18 00
        E 0 80 1f 00
        E 0 80 3c 00
        E 0 80 48 00
        E 0 80 4a 00
        E 0 80 54 00
        E 0 80 56 00
        E 0 80 60 00
        E 0 80 61 00
        E 120 90 18 60
        E 0 90 1f 60
        E 0 90 54 60
        E 0 90 56 60
        E 0 90 60 60
        E 0 90 61 60
        E 120 80 18 00
        E 0 80 1f 00
        E 0 80 54 00
        E 0 80 56 00
        E 0 80 60 00
        E 0 80 61 00
        E 0 90 1e 60
        E 0 90 61 60
        E 120 80 1e 00
        E 0 80 61 00
        E 0 90 1b 60
        E 0 90 3d 60
        E 0 90 49 60
        E 0 90 4a 60
        E 0 90 55 60
        E 0 90 56 60
        E 0 90 62 60
        E 120 80 1b 00
        E 0 80 3d 00
        E 0 80 49 00
        E 0 80 4a 00
        E 0 80 55 00
        E 0 80 56 00
        E 0 80 62 00
        E 120 90 1f 60
        E 0 90 56 60
        E 0 90 61 60
        E 120 80 1f 00
        E 0 80 56 00
        E 0 80 61 00
        E 0 90 1e 60
        E 0 90 61 60
        E 120 80 1e 00
        E 0 80 61 00
        E 0 90 18 60
        E 0 90 1f 60
        E 0 90 48 60
        E 0 90 4a 60
        E 0 90 54 60
        E 0 90 56 60
        E 0 90 60 60
        E 0 90 61 60
        E 120 80 18 00
        E 0 80 1f 00
        E 0 80 48 00
        E 0 80 4a 00
        E 0 80 54 00
        E 0 80 56 00
        E 0 80 60 00
        E 0 80 61 00
        E 120 90 18 60
        E 0 90 1f 60
        E 0 90 54 60
        E 0 90 56 60
        E 0 90 60 60
        E 0 90 61 60
        E 120 80 18 00
        E 0 80 1f 00
        E 0 80 54 00
        E 0 80 56 00
        E 0 80 60 00
        E 0 80 61 00
        E 0 90 1e 60
        E 0 90 61 60
        E 120 80 1e 00
        E 0 80 61 00
        E 0 90 1b 60
        E 0 90 3d 60
        E 0 90 49 60
        E 0 90 4a 60
        E 0 90 55 60
        E 0 90 56 60
        E 0 90 62 60
        E 120 80 1b 00
        E 0 80 3d 00
        E 0 80 49 00
        E 0 80 4a 00
        E 0 80 55 00
        E 0 80 56 00
        E 0 80 62 00
        E 120 90 1f 60
        E 0 90 56 60
        E 0 90 61 60
        E 120 80 1f 00
        E 0 80 56 00
        E 0 80 61 00
        E 0 90 1e 60
        E 0 90 61 60
        E 120 80 1e 00
        E 0 80 61 00
        E 0 90 18 60
        E 0 90 1f 60
        E 0 90 48 60
        E 0 90 4a 60
        E 0 90 54 60
        E 0 90 56 60
        E 0 90 60 60
        E 0 90 61 60
        E 0 90 78 60
        E 0 90 79 60
        E 0 90 7a 60
        E 0 90 7b 60
        E 0 90 7c 60
        E 120 80 18 00
        E 0 80 1f 00
        E 0 80 48 00
        E 0 80 4a 00
        E 0 80 54 00
        E 0 80 56 00
        E 0 80 60 00
        E 0 80 61 00
        E 120 90 18 60
        E 0 90 1f 60
        E 0 90 54 60
        E 0 90 56 60
        E 0 90 60 60
        E 0 90 61 60
        E 120 80 18 00
        E 0 80 1f 00
        E 0 80 54 00
        E 0 80 56 00
        E 0 80 60 00
        E 0 80 61 00
        E 0 90 1e 60
        E 0 90 61 60
        E 120 80 1e 00
        E 0 80 61 00
        E 0 90 1b 60
        E 0 90 3d 60
        E 0 90 49 60
        E 0 90 4a 60
        E 0 90 55 60
        E 0 90 56 60
        E 0 90 62 60
        E 120 80 1b 00
        E 0 80 3d 00
        E 0 80 49 00
        E 0 80 4a 00
        E 0 80 55 00
        E 0 80 56 00
        E 0 80 62 00
        E 120 90 1f 60
        E 0 90 56 60
        E 0 90 61 60
        E 120 80 1f 00
        E 0 80 56 00
        E 0 80 61 00
        E 0 90 1e 60
        E 0 90 61 60
        E 120 80 1e 00
        E 0 80 61 00
        E 0 90 18 60
        E 0 90 48 60
        E 0 90 54 60
        E 0 90 60 60
        E 120 80 18 00
        E 0 80 48 00
        E 0 80 54 00
        E 0 80 60 00
        E 120 90 1a 60
        E 0 90 1f 60
        E 0 90 55 60
        E 0 90 56 60
        E 0 90 61 60
        E 0 90 62 60
        E 120 80 1a 00
        E 0 80 1f 00
        E 0 80 55 00
        E 0 80 56 00
        E 0 80 61 00
        E 0 80 62 00
        E 120 90 1a 60
        E 0 90 1f 60
        E 0 90 3d 60
        E 0 90 49 60
        E 0 90 55 60
        E 0 90 56 60
        E 0 90 61 60
        E 0 90 62 60
        E 120 80 1a 00
        E 0 80 1f 00
        E 0 80 3d 00
        E 0 80 49 00
        E 0 80 55 00
        E 0 80 56 00
        E 0 80 61 00
        E 0 80 62 00
        E 120 90 1a 60
        E 0 90 1f 60
        E 0 90 55 60
        E 0 90 56 60
        E 0 90 61 60
        E 0 90 62 60
        E 120 80 1a 00
        E 0 80 1f 00
        E 0 80 55 00
        E 0 80 56 00
        E 0 80 61 00
        E 0 80 62 00
        E 120 80 78 00
        E 0 80 79 00
        E 0 80 7a 00
        E 0 80 7b 00
        E 0 80 7c 00
        E 0 90 18 60
        E 0 90 1f 60
        E 0 90 3c 60
        E 0 90 48 60
        E 0 90 4a 60
        E 0 90 54 60
        E 0 90 56 60
        E 0 90 60 60
        E 0 90 61 60
        E 120 80 18 00
        E 0 80 1f 00
        E 0 80 3c 00
        E 0 80 48 00
        E 0 80 4a 00
        E 0 80 54 00
        E 0 80 56 00
        E 0 80 60 00
        E 0 80 61 00
        E 120 90 18 60
        E 0 90 1f 60
        E 0 90 54 60
        E 0 90 56 60
        E 0 90 60 60
        E 0 90 61 60
        E 120 80 18 00
        E 0 80 1f 00
        E 0 80 54 00
        E 0 80 56 00
        E 0 80 60 00
        E 0 80 61 00
        E 0 90 1e 60
        E 0 90 61 60
        E 120 80 1e 00
        E 0 80 61 00
        E 0 90 1b 60
        E 0 90 3d 60
        E 0 90 49 60
        E 0 90 4a 60
        E 0 90 55 60
        E 0 90 56 60
        E 0 90 62 60
        E 120 80 1b 00
        E 0 80 3d 00
        E 0 80 49 00
        E 0 80 4a 00
        E 0 80 55 00
        E 0 80 56 00
        E 0 80 62 00
        E 120 90 1f 60
        E 0 90 56 60
        E 0 90 61 60
        E 120 80 1f 00
        E 0 80 56 00
        E 0 80 61 00
        E 0 90 1e 60
        E 0 90 61 60
        E 120 80 1e 00
        E 0 80 61 00
        E 0 90 18 60
        E 0 90 1f 60
        E 0 90 48 60
        E 0 90 4a 60
        E 0 90 54 60
        E 0 90 56 60
        E 0 90 60 60
        E 0 90 61 60
        E 120 80 18 00
        E 0 80 1f 00
        E 0 80 48 00
        E 0 80 4a 00
        E 0 80 54 00
        E 0 80 56 00
        E 0 80 60 00
        E 0 80 61 00
        E 120 90 18 60
        E 0 90 1f 60
        E 0 90 54 60
        E 0 90 56 60
        E 0 90 60 60
        E 0 90 61 60
        E 120 80 18 00
        E 0 80 1f 00
        E 0 80 54 00
        E 0 80 56 00
        E 0 80 60 00
        E 0 80 61 00
        E 0 90 1e 60
        E 0 90 61 60
        E 120 80 1e 00
        E 0 80 61 00
        E 0 90 1b 60
        E 0 90 3d 60
        E 0 90 49 60
        E 0 90 4a 60
        E 0 90 55 60
        E 0 90 56 60
        E 0 90 62 60
        E 120 80 1b 00
        E 0 80 3d 00
        E 0 80 49 00
        E 0 80 4a 00
        E 0 80 55 00
        E 0 80 56 00
        E 0 80 62 00
        E 120 90 1f 60
        E 0 90 56 60
        E 0 90 61 60
        E 120 80 1f 00
        E 0 80 56 00
        E 0 80 61 00
        E 0 90 1e 60
        E 0 90 61 60
        E 120 80 1e 00
        E 0 80 61 00
        E 0 90 18 60
        E 0 90 1f 60
        E 0 90 48 60
        E 0 90 4a 60
        E 0 90 54 60
        E 0 90 56 60
        E 0 90 60 60
        E 0 90 61 60
        E 120 80 18 00
        E 0 80 1f 00
        E 0 80 48 00
        E 0 80 4a 00
        E 0 80 54 00
        E 0 80 56 00
        E 0 80 60 00
        E 0 80 61 00
        E 120 90 18 60
        E 0 90 1f 60
        E 0 90 54 60
        E 0 90 56 60
        E 0 90 60 60
        E 0 90 61 60
        E 120 80 18 00
        E 0 80 1f 00
        E 0 80 54 00
        E 0 80 56 00
        E 0 80 60 00
        E 0 80 61 00
        E 0 90 1e 60
        E 0 90 61 60
        E 120 80 1e 00
        E 0 80 61 00
        E 0 90 1b 60
        E 0 90 3d 60
        E 0 90 49 60
        E 0 90 4a 60
        E 0 90 55 60
        E 0 90 56 60
        E 0 90 62 60
        E 120 80 1b 00
        E 0 80 3d 00
        E 0 80 49 00
        E 0 80 4a 00
        E 0 80 55 00
        E 0 80 56 00
        E 0 80 62 00
        E 120 90 1f 60
        E 0 90 56 60
        E 0 90 61 60
        E 120 80 1f 00
        E 0 80 56 00
        E 0 80 61 00
        E 0 90 1e 60
        E 0 90 61 60
        E 120 80 1e 00
        E 0 80 61 00
        E 0 90 18 60
        E 0 90 1f 60
        E 0 90 48 60
        E 0 90 4a 60
        E 0 90 54 60
        E 0 90 56 60
        E 0 90 60 60
        E 0 90 61 60
        E 120 80 18 00
        E 0 80 1f 00
        E 0 80 48 00
        E 0 80 4a 00
        E 0 80 54 00
        E 0 80 56 00
        E 0 80 60 00
        E 0 80 61 00
        E 120 90 18 60
        E 0 90 1f 60
        E 0 90 54 60
        E 0 90 56 60
        E 0 90 60 60
        E 0 90 61 60
        E 120 80 18 00
        E 0 80 1f 00
        E 0 80 54 00
        E 0 80 56 00
        E 0 80 60 00
        E 0 80 61 00
        E 0 90 1e 60
        E 0 90 61 60
        E 120 80 1e 00
        E 0 80 61 00
        E 0 90 1b 60
        E 0 90 3d 60
        E 0 90 49 60
        E 0 90 4a 60
        E 0 90 55 60
        E 0 90 56 60
        E 0 90 62 60
        E 120 80 1b 00
        E 0 80 3d 00
        E 0 80 49 00
        E 0 80 4a 00
        E 0 80 55 00
        E 0 80 56 00
        E 0 80 62 00
        E 120 90 1f 60
        E 0 90 56 60
        E 0 90 61 60
        E 120 80 1f 00
        E 0 80 56 00
        E 0 80 61 00
        E 0 90 1e 60
        E 0 90 61 60
        E 120 80 1e 00
        E 0 80 61 00
        E 0 90 18 60
        E 0 90 1f 60
        E 0 90 48 60
        E 0 90 4a 60
        E 0 90 54 60
        E 0 90 56 60
        E 0 90 60 60
        E 0 90 61 60
        E 120 80 18 00
        E 0 80 1f 00
        E 0 80 48 00
        E 0 80 4a 00
        E 0 80 54 00
        E 0 80 56 00
        E 0 80 60 00
        E 0 80 61 00
        E 120 90 18 60
        E 0 90 1f 60
        E 0 90 54 60
        E 0 90 56 60
        E 0 90 60 60
        E 0 90 61 60
        E 120 80 18 00
        E 0 80 1f 00
        E 0 80 54 00
        E 0 80 56 00
        E 0 80 60 00
        E 0 80 61 00
        E 0 90 1e 60
        E 0 90 61 60
        E 120 80 1e 00
        E 0 80 61 00
        E 0 90 1b 60
        E 0 90 3d 60
        E 0 90 49 60
        E 0 90 4a 60
        E 0 90 55 60
        E 0 90 56 60
        E 0 90 62 60
        E 120 80 1b 00
        E 0 80 3d 00
        E 0 80 49 00
        E 0 80 4a 00
        E 0 80 55 00
        E 0 80 56 00
        E 0 80 62 00
        E 120 90 1f 60
        E 0 90 56 60
        E 0 90 61 60
        E 120 80 1f 00
        E 0 80 56 00
        E 0 80 61 00
        E 0 90 1e 60
        E 0 90 61 60
        E 120 80 1e 00
        E 0 80 61 00
        E 0 90 18 60
        E 0 90 1f 60
        E 0 90 48 60
        E 0 90 4a 60
        E 0 90 54 60
        E 0 90 56 60
        E 0 90 60 60
        E 0 90 61 60
        E 120 80 18 00
        E 0 80 1f 00
        E 0 80 48 00
        E 0 80 4a 00
        E 0 80 54 00
        E 0 80 56 00
        E 0 80 60 00
        E 0 80 61 00
        E 120 90 18 60
        E 0 90 1f 60
        E 0 90 54 60
        E 0 90 56 60
        E 0 90 60 60
        E 0 90 61 60
        E 120 80 18 00
        E 0 80 1f 00
        E 0 80 54 00
        E 0 80 56 00
        E 0 80 60 00
        E 0 80 61 00
        E 0 90 1e 60
        E 0 90 61 60
        E 120 80 1e 00
        E 0 80 61 00
        E 0 90 1b 60
        E 0 90 3d 60
        E 0 90 49 60
        E 0 90 4a 60
        E 0 90 55 60
        E 0 90 56 60
        E 0 90 62 60
        E 120 80 1b 00
        E 0 80 3d 00
        E 0 80 49 00
        E 0 80 4a 00
        E 0 80 55 00
        E 0 80 56 00
        E 0 80 62 00
        E 120 90 1f 60
        E 0 90 56 60
        E 0 90 61 60
        E 120 80 1f 00
        E 0 80 56 00
        E 0 80 61 00
        E 0 90 1e 60
        E 0 90 61 60
        E 120 80 1e 00
        E 0 80 61 00
        E 0 90 18 60
        E 0 90 1f 60
        E 0 90 48 60
        E 0 90 4a 60
        E 0 90 54 60
        E 0 90 56 60
        E 0 90 60 60
        E 0 90 61 60
        E 0 90 78 60
        E 0 90 79 60
        E 0 90 7a 60
        E 0 90 7b 60
        E 0 90 7c 60
        E 120 80 18 00
        E 0 80 1f 00
        E 0 80 48 00
        E 0 80 4a 00
        E 0 80 54 00
        E 0 80 56 00
        E 0 80 60 00
        E 0 80 61 00
        E 120 90 18 60
        E 0 90 1f 60
        E 0 90 54 60
        E 0 90 56 60
        E 0 90 60 60
        E 0 90 61 60
        E 120 80 18 00
        E 0 80 1f 00
        E 0 80 54 00
        E 0 80 56 00
        E 0 80 60 00
        E 0 80 61 00
        E 0 90 1e 60
        E 0 90 61 60
        E 120 80 1e 00
        E 0 80 61 00
        E 0 90 1b 60
        E 0 90 3d 60
        E 0 90 49 60
        E 0 90 4a 60
        E 0 90 55 60
        E 0 90 56 60
        E 0 90 62 60
        E 120 80 1b 00
        E 0 80 3d 00
        E 0 80 49 00
        E 0 80 4a 00
        E 0 80 55 00
        E 0 80 56 00
        E 0 80 62 00
        E 120 90 1f 60
        E 0 90 56 60
        E 0 90 61 60
        E 120 80 1f 00
        E 0 80 56 00
        E 0 80 61 00
        E 0 90 1e 60
        E 0 90 61 60
        E 120 80 1e 00
        E 0 80 61 00
        E 0 90 18 60
        E 0 90 48 60
        E 0 90 54 60
        E 0 90 60 60
        E 120 80 18 00
        E 0 80 48 00
        E 0 80 54 00
        E 0 80 60 00
        E 120 90 1a 60
        E 0 90 1f 60
        E 0 90 55 60
        E 0 90 56 60
        E 0 90 61 60
        E 0 90 62 60
        E 120 80 1a 00
        E 0 80 1f 00
        E 0 80 55 00
        E 0 80 56 00
        E 0 80 61 00
        E 0 80 62 00
        E 120 90 1a 60
        E 0 90 1f 60
        E 0 90 3d 60
        E 0 90 49 60
        E 0 90 55 60
        E 0 90 56 60
        E 0 90 61 60
        E 0 90 62 60
        E 120 80 1a 00
        E 0 80 1f 00
        E 0 80 3d 00
        E 0 80 49 00
        E 0 80 55 00
        E 0 80 56 00
        E 0 80 61 00
        E 0 80 62 00
        E 120 90 1a 60
        E 0 90 1f 60
        E 0 90 55 60
        E 0 90 56 60
        E 0 90 61 60
        E 0 90 62 60
        E 120 80 1a 00
        E 0 80 1f 00
        E 0 80 55 00
        E 0 80 56 00
        E 0 80 61 00
        E 0 80 62 00
        E 120 80 78 00
        E 0 80 79 00
        E 0 80 7a 00
        E 0 80 7b 00
        E 0 80 7c 00
        E 0 90 18 60
        E 0 90 1f 60
        E 0 90 3c 60
        E 0 90 48 60
        E 0 90 4a 60
        E 0 90 54 60
        E 0 90 56 60
        E 0 90 60 60
        E 0 90 61 60
        E 120 80 18 00
        E 0 80 1f 00
        E 0 80 3c 00
        E 0 80 48 00
        E 0 80 4a 00
        E 0 80 54 00
        E 0 80 56 00
        E 0 80 60 00
        E 0 80 61 00
        E 120 90 18 60
        E 0 90 1f 60
        E 0 90 54 60
        E 0 90 56 60
        E 0 90 60 60
        E 0 90 61 60
        E 120 80 18 00
        E 0 80 1f 00
        E 0 80 54 00
        E 0 80 56 00
        E 0 80 60 00
        E 0 80 61 00
        E 0 90 1e 60
        E 0 90 61 60
        E 120 80 1e 00
        E 0 80 61 00
        E 0 90 1b 60
        E 0 90 3d 60
        E 0 90 49 60
        E 0 90 4a 60
        E 0 90 55 60
        E 0 90 56 60
        E 0 90 62 60
        E 120 80 1b 00
        E 0 80 3d 00
        E 0 80 49 00
        E 0 80 4a 00
        E 0 80 55 00
        E 0 80 56 00
        E 0 80 62 00
        E 120 90 1f 60
        E 0 90 56 60
        E 0 90 61 60
        E 120 80 1f 00
        E 0 80 56 00
        E 0 80 61 00
        E 0 90 1e 60
        E 0 90 61 60
        E 120 80 1e 00
        E 0 80 61 00
        E 0 90 18 60
        E 0 90 1f 60
        E 0 90 48 60
        E 0 90 4a 60
        E 0 90 54 60
        E 0 90 56 60
        E 0 90 60 60
        E 0 90 61 60
        E 120 80 18 00
        E 0 80 1f 00
        E 0 80 48 00
        E 0 80 4a 00
        E 0 80 54 00
        E 0 80 56 00
        E 0 80 60 00
        E 0 80 61 00
        E 120 90 18 60
        E 0 90 1f 60
        E 0 90 54 60
        E 0 90 56 60
        E 0 90 60 60
        E 0 90 61 60
        E 120 80 18 00
        E 0 80 1f 00
        E 0 80 54 00
        E 0 80 56 00
        E 0 80 60 00
        E 0 80 61 00
        E 0 90 1e 60
        E 0 90 61 60
        E 120 80 1e 00
        E 0 80 61 00
        E 0 90 1b 60
        E 0 90 3d 60
        E 0 90 49 60
        E 0 90 4a 60
        E 0 90 55 60
        E 0 90 56 60
        E 0 90 62 60
        E 120 80 1b 00
        E 0 80 3d 00
        E 0 80 49 00
        E 0 80 4a 00
        E 0 80 55 00
        E 0 80 56 00
        E 0 80 62 00
        E 120 90 1f 60
        E 0 90 56 60
        E 0 90 61 60
        E 120 80 1f 00
        E 0 80 56 00
        E 0 80 61 00
        E 0 90 1e 60
        E 0 90 61 60
        E 120 80 1e 00
        E 0 80 61 00
        E 0 90 18 60
        E 0 90 1f 60
        E 0 90 48 60
        E 0 90 4a 60
        E 0 90 54 60
        E 0 90 56 60
        E 0 90 60 60
        E 0 90 61 60
        E 120 80 18 00
        E 0 80 1f 00
        E 0 80 48 00
        E 0 80 4a 00
        E 0 80 54 00
        E 0 80 56 00
        E 0 80 60 00
        E 0 80 61 00
        E 120 90 18 60
        E 0 90 1f 60
        E 0 90 54 60
        E 0 90 56 60
        E 0 90 60 60
        E 0 90 61 60
        E 120 80 18 00
        E 0 80 1f 00
        E 0 80 54 00
        E 0 80 56 00
        E 0 80 60 00
        E 0 80 61 00
        E 0 90 1e 60
        E 0 90 61 60
        E 120 80 1e 00
        E 0 80 61 00
        E 0 90 1b 60
        E 0 90 3d 60
        E 0 90 49 60
        E 0 90 4a 60
        E 0 90 55 60
        E 0 90 56 60
        E 0 90 62 60
        E 120 80 1b 00
        E 0 80 3d 00
        E 0 80 49 00
        E 0 80 4a 00
        E 0 80 55 00
        E 0 80 56 00
        E 0 80 62 00
        E 120 90 1f 60
        E 0 90 56 60
        E 0 90 61 60
        E 120 80 1f 00
        E 0 80 56 00
        E 0 80 61 00
        E 0 90 1e 60
        E 0 90 61 60
        E 120 80 1e 00
        E 0 80 61 00
        E 0 90 18 60
        E 0 90 1f 60
        E 0 90 48 60
        E 0 90 4a 60
        E 0 90 54 60
        E 0 90 56 60
        E 0 90 60 60
        E 0 90 61 60
        E 120 80 18 00
        E 0 80 1f 00
        E 0 80 48 00
        E 0 80 4a 00
        E 0 80 54 00
        E 0 80 56 00
        E 0 80 60 00
        E 0 80 61 00
        E 120 90 18 60
        E 0 90 1f 60
        E 0 90 54 60
        E 0 90 56 60
        E 0 90 60 60
        E 0 90 61 60
        E 120 80 18 00
        E 0 80 1f 00
        E 0 80 54 00
        E 0 80 56 00
        E 0 80 60 00
        E 0 80 61 00
        E 0 90 1e 60
        E 0 90 61 60
        E 120 80 1e 00
        E 0 80 61 00
        E 0 90 1b 60
        E 0 90 3d 60
        E 0 90 49 60
        E 0 90 4a 60
        E 0 90 55 60
        E 0 90 56 60
        E 0 90 62 60
        E 120 80 1b 00
        E 0 80 3d 00
        E 0 80 49 00
        E 0 80 4a 00
        E 0 80 55 00
        E 0 80 56 00
        E 0 80 62 00
        E 120 90 1f 60
        E 0 90 56 60
        E 0 90 61 60
        E 120 80 1f 00
        E 0 80 56 00
        E 0 80 61 00
        E 0 90 1e 60
        E 0 90 61 60
        E 120 80 1e 00
        E 0 80 61 00
        E 0 90 18 60
        E 0 90 1f 60
        E 0 90 48 60
        E 0 90 4a 60
        E 0 90 54 60
        E 0 90 56 60
        E 0 90 60 60
        E 0 90 61 60
        E 120 80 18 00
        E 0 80 1f 00
        E 0 80 48 00
        E 0 80 4a 00
        E 0 80 54 00
        E 0 80 56 00
        E 0 80 60 00
        E 0 80 61 00
        E 120 90 18 60
        E 0 90 1f 60
        E 0 90 54 60
        E 0 90 56 60
        E 0 90 60 60
        E 0 90 61 60
        E 120 80 18 00
        E 0 80 1f 00
        E 0 80 54 00
        E 0 80 56 00
        E 0 80 60 00
        E 0 80 61 00
        E 0 90 1e 60
        E 0 90 61 60
        E 120 80 1e 00
        E 0 80 61 00
        E 0 90 1b 60
        E 0 90 3d 60
        E 0 90 49 60
        E 0 90 4a 60
        E 0 90 55 60
        E 0 90 56 60
        E 0 90 62 60
        E 120 80 1b 00
        E 0 80 3d 00
        E 0 80 49 00
        E 0 80 4a 00
        E 0 80 55 00
        E 0 80 56 00
        E 0 80 62 00
        E 120 90 1f 60
        E 0 90 56 60
        E 0 90 61 60
        E 120 80 1f 00
        E 0 80 56 00
        E 0 80 61 00
        E 0 90 1e 60
        E 0 90 61 60
        E 120 80 1e 00
        E 0 80 61 00
        E 0 90 18 60
        E 0 90 1f 60
        E 0 90 48 60
        E 0 90 4a 60
        E 0 90 54 60
        E 0 90 56 60
        E 0 90 60 60
        E 0 90 61 60
        E 120 80 18 00
        E 0 80 1f 00
        E 0 80 48 00
        E 0 80 4a 00
        E 0 80 54 00
        E 0 80 56 00
        E 0 80 60 00
        E 0 80 61 00
        E 120 90 18 60
        E 0 90 1f 60
        E 0 90 54 60
        E 0 90 56 60
        E 0 90 60 60
        E 0 90 61 60
        E 120 80 18 00
        E 0 80 1f 00
        E 0 80 54 00
        E 0 80 56 00
        E 0 80 60 00
        E 0 80 61 00
        E 0 90 1e 60
        E 0 90 61 60
        E 120 80 1e 00
        E 0 80 61 00
        E 0 90 1b 60
        E 0 90 3d 60
        E 0 90 49 60
        E 0 90 4a 60
        E 0 90 55 60
        E 0 90 56 60
        E 0 90 62 60
        E 120 80 1b 00
        E 0 80 3d 00
        E 0 80 49 00
        E 0 80 4a 00
        E 0 80 55 00
        E 0 80 56 00
        E 0 80 62 00
        E 120 90 1f 60
        E 0 90 56 60
        E 0 90 61 60
        E 120 80 1f 00
        E 0 80 56 00
        E 0 80 61 00
        E 0 90 1e 60
        E 0 90 61 60
        E 120 80 1e 00
        E 0 80 61 00
        E 0 90 18 60
        E 0 90 1f 60
        E 0 90 48 60
        E 0 90 4a 60
        E 0 90 54 60
        E 0 90 56 60
        E 0 90 60 60
        E 0 90 61 60
        E 0 90 78 60
        E 0 90 79 60
        E 0 90 7a 60
        E 0 90 7b 60
        E 0 90 7c 60
        E 120 80 18 00
        E 0 80 1f 00
        E 0 80 48 00
        E 0 80 4a 00
        E 0 80 54 00
        E 0 80 56 00
        E 0 80 60 00
        E 0 80 61 00
        E 120 90 18 60
        E 0 90 1f 60
        E 0 90 54 60
        E 0 90 56 60
        E 0 90 60 60
        E 0 90 61 60
        E 120 80 18 00
        E 0 80 1f 00
        E 0 80 54 00
        E 0 80 56 00
        E 0 80 60 00
        E 0 80 61 00
        E 0 90 1e 60
        E 0 90 61 60
        E 120 80 1e 00
        E 0 80 61 00
        E 0 90 1b 60
        E 0 90 3d 60
        E 0 90 49 60
        E 0 90 4a 60
        E 0 90 55 60
        E 0 90 56 60
        E 0 90 62 60
        E 120 80 1b 00
        E 0 80 3d 00
        E 0 80 49 00
        E 0 80 4a 00
        E 0 80 55 00
        E 0 80 56 00
        E 0 80 62 00
        E 120 90 1f 60
        E 0 90 56 60
        E 0 90 61 60
        E 120 80 1f 00
        E 0 80 56 00
        E 0 80 61 00
        E 0 90 1e 60
        E 0 90 61 60
        E 120 80 1e 00
        E 0 80 61 00
        E 0 90 18 60
        E 0 90 48 60
        E 0 90 54 60
        E 0 90 60 60
        E 120 80 18 00
        E 0 80 48 00
        E 0 80 54 00
        E 0 80 60 00
        E 120 90 1a 60
        E 0 90 1f 60
        E 0 90 55 60
        E 0 90 56 60
        E 0 90 61 60
        E 0 90 62 60
        E 120 80 1a 00
        E 0 80 1f 00
        E 0 80 55 00
        E 0 80 56 00
        E 0 80 61 00
        E 0 80 62 00
        E 120 90 1a 60
        E 0 90 1f 60
        E 0 90 3d 60
        E 0 90 49 60
        E 0 90 55 60
        E 0 90 56 60
        E 0 90 61 60
        E 0 90 62 60
        E 120 80 1a 00
        E 0 80 1f 00
        E 0 80 3d 00
        E 0 80 49 00
        E 0 80 55 00
        E 0 80 56 00
        E 0 80 61 00
        E 0 80 62 00
        E 120 90 1a 60
        E 0 90 1f 60
        E 0 90 55 60
        E 0 90 56 60
        E 0 90 61 60
        E 0 90 62 60
        E 120 80 1a 00
        E 0 80 1f 00
        E 0 80 55 00
        E 0 80 56 00
        E 0 80 61 00
        E 0 80 62 00
        E 120 80 78 00
        E 0 80 79 00
        E 0 80 7a 00
        E 0 80 7b 00
        E 0 80 7c 00
        E 0 90 18 60
        E 0 90 1f 60
        E 0 90 3c 60
        E 0 90 48 60
        E 0 90 4a 60
        E 0 90 54 60
        E 0 90 56 60
        E 0 90 60 60
        E 0 90 61 60
        E 120 80 18 00
        E 0 80 1f 00
        E 0 80 3c 00
        E 0 80 48 00
        E 0 80 4a 00
        E 0 80 54 00
        E 0 80 56 00
        E 0 80 60 00
        E 0 80 61 00
        E 120 90 18 60
        E 0 90 1f 60
        E 0 90 54 60
        E 0 90 56 60
        E 0 90 60 60
        E 0 90 61 60
        E 120 80 18 00
        E 0 80 1f 00
        E 0 80 54 00
        E 0 80 56 00
        E 0 80 60 00
        E 0 80 61 00
        E 0 90 1e 60
        E 0 90 61 60
        E 120 80 1e 00
        E 0 80 61 00
        E 0 90 1b 60
        E 0 90 3d 60
        E 0 90 49 60
        E 0 90 4a 60
        E 0 90 55 60
        E 0 90 56 60
        E 0 90 62 60
        E 120 80 1b 00
        E 0 80 3d 00
        E 0 80 49 00
        E 0 80 4a 00
        E 0 80 55 00
        E 0 80 56 00
        E 0 80 62 00
        E 120 90 1f 60
        E 0 90 56 60
        E 0 90 61 60
        E 120 80 1f 00
        E 0 80 56 00
        E 0 80 61 00
        E 0 90 1e 60
        E 0 90 61 60
        E 120 80 1e 00
        E 0 80 61 00
        E 0 90 18 60
        E 0 90 1f 60
        E 0 90 48 60
        E 0 90 4a 60
        E 0 90 54 60
        E 0 90 56 60
        E 0 90 60 60
        E 0 90 61 60
        E 120 80 18 00
        E 0 80 1f 00
        E 0 80 48 00
        E 0 80 4a 00
        E 0 80 54 00
        E 0 80 56 00
        E 0 80 60 00
        E 0 80 61 00
        E 120 90 18 60
        E 0 90 1f 60
        E 0 90 54 60
        E 0 90 56 60
        E 0 90 60 60
        E 0 90 61 60
        E 120 80 18 00
        E 0 80 1f 00
        E 0 80 54 00
        E 0 80 56 00
        E 0 80 60 00
        E 0 80 61 00
        E 0 90 1e 60
        E 0 90 61 60
        E 120 80 1e 00
        E 0 80 61 00
        E 0 90 1b 60
        E 0 90 3d 60
        E 0 90 49 60
        E 0 90 4a 60
        E 0 90 55 60
        E 0 90 56 60
        E 0 90 62 60
        E 120 80 1b 00
        E 0 80 3d 00
        E 0 80 49 00
        E 0 80 4a 00
        E 0 80 55 00
        E 0 80 56 00
        E 0 80 62 00
        E 120 90 1f 60
        E 0 90 56 60
        E 0 90 61 60
        E 120 80 1f 00
        E 0 80 56 00
        E 0 80 61 00
        E 0 90 1e 60
        E 0 90 61 60
        E 120 80 1e 00
        E 0 80 61 00
        E 0 90 18 60
        E 0 90 1f 60
        E 0 90 48 60
        E 0 90 4a 60
        E 0 90 54 60
        E 0 90 56 60
        E 0 90 60 60
        E 0 90 61 60
        E 120 80 18 00
        E 0 80 1f 00
        E 0 80 48 00
        E 0 80 4a 00
        E 0 80 54 00
        E 0 80 56 00
        E 0 80 60 00
        E 0 80 61 00
        E 120 90 18 60
        E 0 90 1f 60
        E 0 90 54 60
        E 0 90 56 60
        E 0 90 60 60
        E 0 90 61 60
        E 120 80 18 00
        E 0 80 1f 00
        E 0 80 54 00
        E 0 80 56 00
        E 0 80 60 00
        E 0 80 61 00
        E 0 90 1e 60
        E 0 90 61 60
        E 120 80 1e 00
        E 0 80 61 00
        E 0 90 1b 60
        E 0 90 3d 60
        E 0 90 49 60
        E 0 90 4a 60
        E 0 90 55 60
        E 0 90 56 60
        E 0 90 62 60
        E 120 80 1b 00
        E 0 80 3d 00
        E 0 80 49 00
        E 0 80 4a 00
        E 0 80 55 00
        E 0 80 56 00
        E 0 80 62 00
        E 120 90 1f 60
        E 0 90 56 60
        E 0 90 61 60
        E 120 80 1f 00
        E 0 80 56 00
        E 0 80 61 00
        E 0 90 1e 60
        E 0 90 61 60
        E 120 80 1e 00
        E 0 80 61 00
        E 0 90 18 60
        E 0 90 1f 60
        E 0 90 48 60
        E 0 90 4a 60
        E 0 90 54 60
        E 0 90 56 60
        E 0 90 60 60
        E 0 90 61 60
        E 120 80 18 00
        E 0 80 1f 00
        E 0 80 48 00
        E 0 80 4a 00
        E 0 80 54 00
        E 0 80 56 00
        E 0 80 60 00
        E 0 80 61 00
        E 120 90 18 60
        E 0 90 1f 60
        E 0 90 54 60
        E 0 90 56 60
        E 0 90 60 60
        E 0 90 61 60
        E 120 80 18 00
        E 0 80 1f 00
        E 0 80 54 00
        E 0 80 56 00
        E 0 80 60 00
        E 0 80 61 00
        E 0 90 1e 60
        E 0 90 61 60
        E 120 80 1e 00
        E 0 80 61 00
        E 0 90 1b 60
        E 0 90 3d 60
        E 0 90 49 60
        E 0 90 4a 60
        E 0 90 55 60
        E 0 90 56 60
        E 0 90 62 60
        E 120 80 1b 00
        E 0 80 3d 00
        E 0 80 49 00
        E 0 80 4a 00
        E 0 80 55 00
        E 0 80 56 00
        E 0 80 62 00
        E 120 90 1f 60
        E 0 90 56 60
        E 0 90 61 60
        E 120 80 1f 00
        E 0 80 56 00
        E 0 80 61 00
        E 0 90 1e 60
        E 0 90 61 60
        E 120 80 1e 00
        E 0 80 61 00
        E 0 90 18 60
        E 0 90 1f 60
        E 0 90 48 60
        E 0 90 4a 60
        E 0 90 54 60
        E 0 90 56 60
        E 0 90 60 60
        E 0 90 61 60
        E 120 80 18 00
        E 0 80 1f 00
        E 0 80 48 00
        E 0 80 4a 00
        E 0 80 54 00
        E 0 80 56 00
        E 0 80 60 00
        E 0 80 61 00
        E 120 90 18 60
        E 0 90 1f 60
        E 0 90 54 60
        E 0 90 56 60
        E 0 90 60 60
        E 0 90 61 60
        E 120 80 18 00
        E 0 80 1f 00
        E 0 80 54 00
        E 0 80 56 00
        E 0 80 60 00
        E 0 80 61 00
        E 0 90 1e 60
        E 0 90 61 60
        E 120 80 1e 00
        E 0 80 61 00
        E 0 90 1b 60
        E 0 90 3d 60
        E 0 90 49 60
        E 0 90 4a 60
        E 0 90 55 60
        E 0 90 56 60
        E 0 90 62 60
        E 120 80 1b 00
        E 0 80 3d 00
        E 0 80 49 00
        E 0 80 4a 00
        E 0 80 55 00
        E 0 80 56 00
        E 0 80 62 00
        E 120 90 1f 60
        E 0 90 56 60
        E 0 90 61 60
        E 120 80 1f 00
        E 0 80 56 00
        E 0 80 61 00
        E 0 90 1e 60
        E 0 90 61 60
        E 120 80 1e 00
        E 0 80 61 00
        E 0 90 18 60
        E 0 90 1f 60
        E 0 90 48 60
        E 0 90 4a 60
        E 0 90 54 60
        E 0 90 56 60
        E 0 90 60 60
        E 0 90 61 60
        E 120 80 18 00
        E 0 80 1f 00
        E 0 80 48 00
        E 0 80 4a 00
        E 0 80 54 00
        E 0 80 56 00
        E 0 80 60 00
        E 0 80 61 00
        E 120 90 18 60
        E 0 90 1f 60
        E 0 90 54 60
        E 0 90 56 60
        E 0 90 60 60
        E 0 90 61 60
        E 120 80 18 00
        E 0 80 1f 00
        E 0 80 54 00
        E 0 80 56 00
        E 0 80 60 00
        E 0 80 61 00
        E 0 90 1e 60
        E 0 90 61 60
        E 120 80 1e 00
        E 0 80 61 00
        E 0 90 1b 60
        E 0 90 3d 60
        E 0 90 49 60
        E 0 90 4a 60
        E 0 90 55 60
        E 0 90 56 60
        E 0 90 62 60
        E 120 80 1b 00
        E 0 80 3d 00
        E 0 80 49 00
        E 0 80 4a 00
        E 0 80 55 00
        E 0 80 56 00
        E 0 80 62 00
        E 120 90 1f 60
        E 0 90 56 60
        E 0 90 61 60
        E 120 80 1f 00
        E 0 80 56 00
        E 0 80 61 00
        E 0 90 1e 60
        E 0 90 61 60
        E 120 80 1e 00
        E 0 80 61 00
        E 0 90 18 60
        E 0 90 1f 60
        E 0 90 48 60
        E 0 90 4a 60
        E 0 90 54 60
        E 0 90 56 60
        E 0 90 60 60
        E 0 90 61 60
        E 0 90 78 60
        E 0 90 79 60
        E 0 90 7a 60
        E 0 90 7b 60
        E 0 90 7c 60
        E 120 80 18 00
        E 0 80 1f 00
        E 0 80 48 00
        E 0 80 4a 00
        E 0 80 54 00
        E 0 80 56 00
        E 0 80 60 00
        E 0 80 61 00
        E 120 90 18 60
        E 0 90 1f 60
        E 0 90 54 60
        E 0 90 56 60
        E 0 90 60 60
        E 0 90 61 60
        E 120 80 18 00
        E 0 80 1f 00
        E 0 80 54 00
        E 0 80 56 00
        E 0 80 60 00
        E 0 80 61 00
        E 0 90 1e 60
        E 0 90 61 60
        E 120 80 1e 00
        E 0 80 61 00
        E 0 90 1b 60
        E 0 90 3d 60
        E 0 90 49 60
        E 0 90 4a 60
        E 0 90 55 60
        E 0 90 56 60
        E 0 90 62 60
        E 120 80 1b 00
        E 0 80 3d 00
        E 0 80 49 00
        E 0 80 4a 00
        E 0 80 55 00
        E 0 80 56 00
        E 0 80 62 00
        E 120 90 1f 60
        E 0 90 56 60
        E 0 90 61 60
        E 120 80 1f 00
        E 0 80 56 00
        E 0 80 61 00
        E 0 90 1e 60
        E 0 90 61 60
        E 120 80 1e 00
        E 0 80 61 00
        E 0 90 18 60
        E 0 90 48 60
        E 0 90 54 60
        E 0 90 60 60
        E 120 80 18 00
        E 0 80 48 00
        E 0 80 54 00
        E 0 80 60 00
        E 120 90 1a 60
        E 0 90 1f 60
        E 0 90 55 60
        E 0 90 56 60
        E 0 90 61 60
        E 0 90 62 60
        E 120 80 1a 00
        E 0 80 1f 00
        E 0 80 55 00
        E 0 80 56 00
        E 0 80 61 00
        E 0 80 62 00
        E 120 90 1a 60
        E 0 90 1f 60
        E 0 90 3d 60
        E 0 90 49 60
        E 0 90 55 60
        E 0 90 56 60
        E 0 90 61 60
        E 0 90 62 60
        E 120 80 1a 00
        E 0 80 1f 00
        E 0 80 3d 00
        E 0 80 49 00
        E 0 80 55 00
        E 0 80 56 00
        E 0 80 61 00
        E 0 80 62 00
        E 120 90 1a 60
        E 0 90 1f 60
        E 0 90 55 60
        E 0 90 56 60
        E 0 90 61 60
        E 0 90 62 60
        E 120 80 1a 00
        E 0 80 1f 00
        E 0 80 55 00
        E 0 80 56 00
        E 0 80 61 00
        E 0 80 62 00
        E 120 80 78 00
        E 0 80 79 00
        E 0 80 7a 00
        E 0 80 7b 00
        E 0 80 7c 00
        E 0 90 18 60
        E 0 90 1f 60
        E 0 90 3c 60
        E 0 90 48 60
        E 0 90 4a 60
        E 0 90 54 60
        E 0 90 56 60
        E 0 90 60 60
        E 0 90 61 60
        E 120 80 18 00
        E 0 80 1f 00
        E 0 80 3c 00
        E 0 80 48 00
        E 0 80 4a 00
        E 0 80 54 00
        E 0 80 56 00
        E 0 80 60 00
        E 0 80 61 00
        E 120 90 18 60
        E 0 90 1f 60
        E 0 90 54 60
        E 0 90 56 60
        E 0 90 60 60
        E 0 90 61 60
        E 120 80 18 00
        E 0 80 1f 00
        E 0 80 54 00
        E 0 80 56 00
        E 0 80 60 00
        E 0 80 61 00
        E 0 90 1e 60
        E 0 90 61 60
        E 120 80 1e 00
        E 0 80 61 00
        E 0 90 1b 60
        E 0 90 3d 60
        E 0 90 49 60
        E 0 90 4a 60
        E 0 90 55 60
        E 0 90 56 60
        E 0 90 62 60
        E 120 80 1b 00
        E 0 80 3d 00
        E 0 80 49 00
        E 0 80 4a 00
        E 0 80 55 00
        E 0 80 56 00
        E 0 80 62 00
        E 120 90 1f 60
        E 0 90 56 60
        E 0 90 61 60
        E 120 80 1f 00
        E 0 80 56 00
        E 0 80 61 00
        E 0 90 1e 60
        E 0 90 61 60
        E 120 80 1e 00
        E 0 80 61 00
        E 0 90 18 60
        E 0 90 1f 60
        E 0 90 48 60
        E 0 90 4a 60
        E 0 90 54 60
        E 0 90 56 60
        E 0 90 60 60
        E 0 90 61 60
        E 120 80 18 00
        E 0 80 1f 00
        E 0 80 48 00
        E 0 80 4a 00
        E 0 80 54 00
        E 0 80 56 00
        E 0 80 60 00
        E 0 80 61 00
        E 120 90 18 60
        E 0 90 1f 60
        E 0 90 54 60
        E 0 90 56 60
        E 0 90 60 60
        E 0 90 61 60
        E 120 80 18 00
        E 0 80 1f 00
        E 0 80 54 00
        E 0 80 56 00
        E 0 80 60 00
        E 0 80 61 00
        E 0 90 1e 60
        E 0 90 61 60
        E 120 80 1e 00
        E 0 80 61 00
        E 0 90 1b 60
        E 0 90 3d 60
        E 0 90 49 60
        E 0 90 4a 60
        E 0 90 55 60
        E 0 90 56 60
        E 0 90 62 60
        E 120 80 1b 00
        E 0 80 3d 00
        E 0 80 49 00
        E 0 80 4a 00
        E 0 80 55 00
        E 0 80 56 00
        E 0 80 62 00
        E 120 90 1f 60
        E 0 90 56 60
        E 0 90 61 60
        E 120 80 1f 00
        E 0 80 56 00
        E 0 80 61 00
        E 0 90 1e 60
        E 0 90 61 60
        E 120 80 1e 00
        E 0 80 61 00
        E 0 90 18 60
        E 0 90 1f 60
        E 0 90 48 60
        E 0 90 4a 60
        E 0 90 54 60
        E 0 90 56 60
        E 0 90 60 60
        E 0 90 61 60
        E 120 80 18 00
        E 0 80 1f 00
        E 0 80 48 00
        E 0 80 4a 00
        E 0 80 54 00
        E 0 80 56 00
        E 0 80 60 00
        E 0 80 61 00
        E 120 90 18 60
        E 0 90 1f 60
        E 0 90 54 60
        E 0 90 56 60
        E 0 90 60 60
        E 0 90 61 60
        E 120 80 18 00
        E 0 80 1f 00
        E 0 80 54 00
        E 0 80 56 00
        E 0 80 60 00
        E 0 80 61 00
        E 0 90 1e 60
        E 0 90 61 60
        E 120 80 1e 00
        E 0 80 61 00
        E 0 90 1b 60
        E 0 90 3d 60
        E 0 90 49 60
        E 0 90 4a 60
        E 0 90 55 60
        E 0 90 56 60
        E 0 90 62 60
        E 120 80 1b 00
        E 0 80 3d 00
        E 0 80 49 00
        E 0 80 4a 00
        E 0 80 55 00
        E 0 80 56 00
        E 0 80 62 00
        E 120 90 1f 60
        E 0 90 56 60
        E 0 90 61 60
        E 120 80 1f 00
        E 0 80 56 00
        E 0 80 61 00
        E 0 90 1e 60
        E 0 90 61 60
        E 120 80 1e 00
        E 0 80 61 00
        E 0 90 18 60
        E 0 90 1f 60
        E 0 90 48 60
        E 0 90 4a 60
        E 0 90 54 60
        E 0 90 56 60
        E 0 90 60 60
        E 0 90 61 60
        E 120 80 18 00
        E 0 80 1f 00
        E 0 80 48 00
        E 0 80 4a 00
        E 0 80 54 00
        E 0 80 56 00
        E 0 80 60 00
        E 0 80 61 00
        E 120 90 18 60
        E 0 90 1f 60
        E 0 90 54 60
        E 0 90 56 60
        E 0 90 60 60
        E 0 90 61 60
        E 120 80 18 00
        E 0 80 1f 00
        E 0 80 54 00
        E 0 80 56 00
        E 0 80 60 00
        E 0 80 61 00
        E 0 90 1e 60
        E 0 90 61 60
        E 120 80 1e 00
        E 0 80 61 00
        E 0 90 1b 60
        E 0 90 3d 60
        E 0 90 49 60
        E 0 90 4a 60
        E 0 90 55 60
        E 0 90 56 60
        E 0 90 62 60
        E 120 80 1b 00
        E 0 80 3d 00
        E 0 80 49 00
        E 0 80 4a 00
        E 0 80 55 00
        E 0 80 56 00
        E 0 80 62 00
        E 120 90 1f 60
        E 0 90 56 60
        E 0 90 61 60
        E 120 80 1f 00
        E 0 80 56 00
        E 0 80 61 00
        E 0 90 1e 60
        E 0 90 61 60
        E 120 80 1e 00
        E 0 80 61 00
        E 0 90 18 60
        E 0 90 1f 60
        E 0 90 3c 60
        E 0 90 48 60
        E 0 90 4a 60
        E 0 90 54 60
        E 0 90 56 60
        E 0 90 60 60
        E 0 90 61 60
        E 120 80 18 00
        E 0 80 1f 00
        E 0 80 3c 00
        E 0 80 48 00
        E 0 80 4a 00
        E 0 80 54 00
        E 0 80 56 00
        E 0 80 60 00
        E 0 80 61 00
        E 120 90 18 60
        E 0 90 1f 60
        E 0 90 54 60
        E 0 90 56 60
        E 0 90 60 60
        E 0 90 61 60
        E 120 80 18 00
        E 0 80 1f 00
        E 0 80 54 00
        E 0 80 56 00
        E 0 80 60 00
        E 0 80 61 00
        E 0 90 1e 60
        E 0 90 61 60
        E 120 80 1e 00
        E 0 80 61 00
        E 0 90 1b 60
        E 0 90 3d 60
        E 0 90 49 60
        E 0 90 4a 60
        E 0 90 55 60
        E 0 90 56 60
        E 0 90 62 60
        E 120 80 1b 00
        E 0 80 3d 00
        E 0 80 49 00
        E 0 80 4a 00
        E 0 80 55 00
        E 0 80 56 00
        E 0 80 62 00
        E 120 90 1f 60
        E 0 90 56 60
        E 0 90 61 60
        E 120 80 1f 00
        E 0 80 56 00
        E 0 80 61 00
        E 0 90 1e 60
        E 0 90 61 60
        E 120 80 1e 00
        E 0 80 61 00
        E 0 90 18 60
        E 0 90 1f 60
        E 0 90 48 60
        E 0 90 4a 60
        E 0 90 54 60
        E 0 90 56 60
        E 0 90 60 60
        E 0 90 61 60
        E 120 80 18 00
        E 0 80 1f 00
        E 0 80 48 00
        E 0 80 4a 00
        E 0 80 54 00
        E 0 80 56 00
        E 0 80 60 00
        E 0 80 61 00
        E 120 90 18 60
        E 0 90 1f 60
        E 0 90 54 60
        E 0 90 56 60
        E 0 90 60 60
        E 0 90 61 60
        E 120 80 18 00
        E 0 80 1f 00
        E 0 80 54 00
        E 0 80 56 00
        E 0 80 60 00
        E 0 80 61 00
        E 0 90 1e 60
        E 0 90 61 60
        E 120 80 1e 00
        E 0 80 61 00
        E 0 90 1b 60
        E 0 90 49 60
        E 0 90 4a 60
        E 0 90 55 60
        E 0 90 56 60
        E 0 90 62 60
        E 120 80 1b 00
        E 0 80 49 00
        E 0 80 4a 00
        E 0 80 55 00
        E 0 80 56 00
        E 0 80 62 00
        E 120 90 1f 60
        E 0 90 56 60
        E 0 90 61 60
        E 120 80 1f 00
        E 0 80 56 00
        E 0 80 61 00
        E 0 90 1e 60
        E 0 90 61 60
        E 120 80 1e 00
        E 0 80 61 00
        E 0 90 18 60
        E 0 90 1a 60
        E 0 90 24 60
        E 0 90 3d 60
        E 0 90 40 60
        E 0 90 49 60
        E 0 90 4c 60
        E 0 90 54 60
        E 0 90 55 60
        E 0 90 58 60
        E 0 90 60 60
        E 0 90 62 60
        E 0 90 64 60
        E 120 80 18 00
        E 0 80 1a 00
        E 0 80 24 00
        E 0 80 3d 00
        E 0 80 40 00
        E 0 80 49 00
        E 0 80 4c 00
        E 0 80 54 00
        E 0 80 55 00
        E 0 80 58 00
        E 0 80 60 00
        E 0 80 62 00
        E 0 80 64 00
        E 120 90 18 60
        E 0 90 60 60
        E 120 80 18 00
        E 0 80 60 00
        E 120 90 18 60
        E 0 90 1a 60
        E 0 90 24 60
        E 0 90 49 60
        E 0 90 4c 60
        E 0 90 54 60
        E 0 90 55 60
        E 0 90 58 60
        E 0 90 60 60
        E 0 90 62 60
        E 0 90 64 60
        E 120 80 18 00
        E 0 80 1a 00
        E 0 80 24 00
        E 0 80 49 00
        E 0 80 4c 00
        E 0 80 54 00
        E 0 80 55 00
        E 0 80 58 00
        E 0 80 60 00
        E 0 80 62 00
        E 0 80 64 00
        E 120 90 18 60
        E 0 90 60 60
        E 120 80 18 00
        E 0 80 60 00
        E 120 90 18 60
        E 0 90 1a 60
        E 0 90 24 60
        E 0 90 3d 60
        E 0 90 40 60
        E 0 90 49 60
        E 0 90 4c 60
        E 0 90 54 60
        E 0 90 55 60
        E 0 90 58 60
        E 0 90 60 60
        E 0 90 62 60
        E 0 90 64 60
        E 120 80 18 00
        E 0 80 1a 00
        E 0 80 24 00
        E 0 80 3d 00
        E 0 80 40 00
        E 0 80 49 00
        E 0 80 4c 00
        E 0 80 54 00
        E 0 80 55 00
        E 0 80 58 00
        E 0 80 60 00
        E 0 80 62 00
        E 0 80 64 00
        E 120 90 18 60
        E 0 90 1a 60
        E 0 90 24 60
        E 0 90 55 60
        E 0 90 58 60
        E 0 90 60 60
        E 0 90 62 60
        E 0 90 64 60
        E 120 80 18 00
        E 0 80 1a 00
        E 0 80 24 00
        E 0 80 55 00
        E 0 80 58 00
        E 0 80 60 00
        E 0 80 62 00
        E 0 80 64 00
        E 120 90 18 60
        E 0 90 1a 60
        E 0 90 24 60
        E 0 90 49 60
        E 0 90 4c 60
        E 0 90 54 60
        E 0 90 55 60
        E 0 90 58 60
        E 0 90 60 60
        E 0 90 62 60
        E 0 90 64 60
        E 120 80 18 00
        E 0 80 1a 00
        E 0 80 24 00
        E 0 80 49 00
        E 0 80 4c 00
        E 0 80 54 00
        E 0 80 55 00
        E 0 80 58 00
        E 0 80 60 00
        E 0 80 62 00
        E 0 80 64 00
        E 120 90 18 60
        E 0 90 1a 60
        E 0 90 24 60
        E 0 90 55 60
        E 0 90 58 60
        E 0 90 60 60
        E 0 90 62 60
        E 0 90 64 60
        E 120 80 18 00
        E 0 80 1a 00
        E 0 80 24 00
        E 0 80 55 00
        E 0 80 58 00
        E 0 80 60 00
        E 0 80 62 00
        E 0 80 64 00
        E 120 90 18 60
        E 0 90 26 60
        E 0 90 3c 60
        E 0 90 3f 60
        E 0 90 48 60
        E 0 90 4b 60
        E 0 90 54 60
        E 0 90 57 60
        E 0 90 60 60
        E 0 90 63 60
        E 120 80 18 00
        E 0 80 26 00
        E 0 80 3c 00
        E 0 80 3f 00
        E 0 80 48 00
        E 0 80 4b 00
        E 0 80 54 00
        E 0 80 57 00
        E 0 80 60 00
        E 0 80 63 00
        <X 480 0
          /wFbaWRsZV9yZWFsdGltZV0=
        >
        E 3240 b0 7b 00
        GUID {1EB05AE2-A6EC-4C42-8E32-E4649E037FA5}
        IGNTEMPO 0 120.00000000 4 4
        SRCCOLOR 0
        VELLANE 132 128 60
        COLORMAP "C:\Program Files\REAPER (x64)\Data\color_maps\rockband_guitarbass.png"
        CFGEDITVIEW -10109.492431 10.396993 0 14 0 0 0
        CFGEDIT 1 1 0 1 1 0 1 1 1 1 1 0.25000000 -8 -8 1544 872 0 2 1 1 0.00000000 0 1 0 0 0.500000 0 0 1.000000 64
        KEYSNAP 0 6 "102030050700" 0 "Pentatonic"
        EVTFILTER 0 -1 -1 -1 -1 0 1 0 0 -1.00000000 -1.00000000
      >
    >
  >
  <TRACK '{10160033-AF70-41AD-91D5-19753CDAF234}'
    NAME "kit"
    PEAKCOL 16576
    BEAT -1
    AUTOMODE 0
    VOLPAN 1.00000000000000 0.00000000000000 -1.00000000000000 -1.00000000000000 1.00000000000000
    MUTESOLO 0 0 0
    IPHASE 0
    ISBUS 0 0
    BUSCOMP 0 0
    SHOWINMIX 1 0.666700 0.500000 1 0.500000 -1 -1 -1
    FREEMODE 0
    SEL 0
    REC 0 0 0 0 0 0 0
    VU 2
    TRACKHEIGHT 0 0
    INQ 0 0 0 0.5000000000 100 0 0 100
    NCHAN 2
    FX 1
    TRACKID {10160033-AF70-41AD-91D5-19753CDAF234}
    PERF 0
    MIDIOUT -1
    MAINSEND 1 0
    <ITEM
      POSITION 0.00000000000000
      SNAPOFFS 0.00000000000000
      LENGTH 108.01199546485260
      LOOP 0
      ALLTAKES 0
      SEL 0
      FADEIN 1 0.000000 0.000000 1 0
      FADEOUT 1 0.000000 0.000000 1 0
      MUTE 0
      IGUID {896BD1BF-B31B-49E8-9E8A-A5DCA228019B}
      IID 8
      NAME "kit.wav"
      VOLPAN 1.000000 0.000000 1.000000 -1.000000
      SOFFS 0.00000000000000
      PLAYRATE 1.00000000000000 1 0.00000000000000 -1
      CHANMODE 0
      GUID {0CC8522B-4805-4F62-B6D7-6705D88F6FEF}
      <SOURCE WAVE
        FILE "wav\kit.wav"
      >
    >
  >
  <TRACK '{44C6EB40-248A-4F01-A4EA-268D1B896DB5}'
    NAME "kick"
    PEAKCOL 16576
    BEAT -1
    AUTOMODE 0
    VOLPAN 1.00000000000000 0.00000000000000 -1.00000000000000 -1.00000000000000 1.00000000000000
    MUTESOLO 0 0 0
    IPHASE 0
    ISBUS 2 -1
    BUSCOMP 0 0
    SHOWINMIX 1 0.666700 0.500000 1 0.500000 -1 -1 -1
    FREEMODE 0
    SEL 0
    REC 0 0 0 0 0 0 0
    VU 2
    TRACKHEIGHT 0 0
    INQ 0 0 0 0.5000000000 100 0 0 100
    NCHAN 2
    FX 1
    TRACKID {44C6EB40-248A-4F01-A4EA-268D1B896DB5}
    PERF 0
    MIDIOUT -1
    MAINSEND 1 0
    <ITEM
      POSITION 0.00000000000000
      SNAPOFFS 0.00000000000000
      LENGTH 108.01199546485260
      LOOP 0
      ALLTAKES 0
      SEL 0
      FADEIN 1 0.000000 0.000000 1 0
      FADEOUT 1 0.000000 0.000000 1 0
      MUTE 0
      IGUID {7E1C41A5-27DB-4A68-B807-51E4E0EFB567}
      IID 9
      NAME "kick.wav"
      VOLPAN 1.000000 0.000000 1.000000 -1.000000
      SOFFS 0.00000000000000
      PLAYRATE 1.00000000000000 1 0.00000000000000 -1
      CHANMODE 0
      GUID {760F0560-B9D6-41B9-8CB2-6E64B0110788}
      <SOURCE WAVE
        FILE "wav\kick.wav"
      >
    >
  >
  <TRACK '{8ADD49D1-042D-43D5-9C98-3D47EB5DF966}'
    NAME "PART BASS"
    PEAKCOL 16576
    BEAT -1
    AUTOMODE 0
    VOLPAN 1.00000000000000 0.00000000000000 -1.00000000000000 -1.00000000000000 1.00000000000000
    MUTESOLO 0 0 0
    IPHASE 0
    ISBUS 1 1
    BUSCOMP 0 0
    SHOWINMIX 1 0.666700 0.500000 1 0.500000 -1 -1 -1
    FREEMODE 0
    SEL 0
    REC 0 0 0 0 0 0 0
    VU 2
    TRACKHEIGHT 0 0
    INQ 0 0 0 0.5000000000 100 0 0 100
    NCHAN 2
    FX 1
    TRACKID {8ADD49D1-042D-43D5-9C98-3D47EB5DF966}
    PERF 0
    MIDIOUT -1
    <MIDINOTENAMES
      0 127 "TRILL MARKER"
      0 126 "TREMOLO MARKER"
      0 125 "---"
      0 124 "BRE"
      0 123 "BRE"
      0 122 "BRE"
      0 121 "BRE"
      0 120 "BRE (use all 5)"
      0 119 "----"
      0 116 "OVERDRIVE"
      0 115 "----"
      0 103 "Solo Marker"
      0 102 "Force HOPO Off"
      0 101 "Force HOPO On"
      0 100 "EXPERT Orange"
      0 99 "EXPERT Blue"
      0 98 "EXPERT Yellow"
      0 97 "EXPERT Red"
      0 96 "EXPERT Green"
      0 95 "----"
      0 90 "Force HOPO Off"
      0 89 "Force HOPO On"
      0 88 "HARD Orange"
      0 87 "HARD Blue"
      0 86 "HARD Yellow"
      0 85 "HARD Red"
      0 84 "HARD Green"
      0 77 "----"
      0 76 "MEDIUM Orange"
      0 75 "MEDIUM Blue"
      0 74 "MEDIUM Yellow"
      0 73 "MEDIUM Red"
      0 72 "MEDIUM Green"
      0 65 "----"
      0 64 "EASY Orange"
      0 63 "EASY Blue"
      0 62 "EASY Yellow"
      0 61 "EASY Red"
      0 60 "EASY Green"
      0 59 "Fret 12"
      0 57 "Fret 11"
      0 56 "Fret 10"
      0 55 "Fret 9"
      0 53 "Fret 8"
      0 52 "Fret 7"
      0 50 "Fret 6"
      0 49 "Fret 5"
      0 47 "Fret 4"
      0 45 "Fret 3"
      0 43 "Fret 2"
      0 40 "Fret 1"
    >
    MAINSEND 1 0
    <FXCHAIN
      WNDRECT 114 306 891 559
      SHOW 0
      LASTSEL 0
      DOCKED 0
      BYPASS 0 0
      <VST "VSTi: RBN Preview (RBN)" "rbprev_vst64.dll" 0 ""
        dnBicu5e7f4AAAAAAgAAAAEAAAAAAAAAAgAAAAAAAAAEAAAAAQAAAA==
        AAAQAAMA+gAAABAAAAA=
      >
      FLOATPOS 0 0 0 0
      FXID {8DC9C466-2309-479A-9BAD-BA7F4B9172C0}
      WAK 0
    >
    <ITEM
      POSITION 0.00000000000000
      SNAPOFFS 0.00000000000000
      LENGTH 108.01200133348151
      LOOP 0
      ALLTAKES 0
      SEL 0
      FADEIN 1 0.000000 0.000000 1 0
      FADEOUT 1 0.000000 0.000000 1 0
      MUTE 0
      IGUID {083DC301-ED15-4D54-AEDA-6AF04AC24C62}
      IID 13
      NAME "PART BASS"
      VOLPAN 1.000000 0.000000 1.000000 -1.000000
      SOFFS 0.00000000000000 0.00000000000000
      PLAYRATE 1.00000000000000 1 0.00000000000000 -1
      CHANMODE 0
      GUID {0469FE1B-BFAC-477C-A9ED-9D179CCC33EF}
      <SOURCE MIDI
        HASDATA 1 480 QN
        POOLEDEVTS {AF53E7D6-90CF-4896-A62F-41A761FF4C54}
        <X 0 0
          /wNQQVJUIEJBU1M=
        >
        <X 3840 0
          /wFbaWRsZV0=
        >
        <X 1920 0
          /wFbcGxheV0=
        >
        E 0 90 28 60
        E 0 90 3e 60
        E 0 90 4b 60
        E 0 90 58 60
        E 0 90 64 60
        E 120 80 3e 00
        E 0 80 4b 00
        E 0 80 58 00
        E 0 80 64 00
        E 120 90 64 60
        E 120 80 64 00
        E 120 90 58 60
        E 0 90 64 60
        E 120 80 58 00
        E 0 80 64 00
        E 120 90 64 60
        E 120 80 64 00
        E 120 90 4b 60
        E 0 90 58 60
        E 0 90 64 60
        E 120 80 4b 00
        E 0 80 58 00
        E 0 80 64 00
        E 120 90 64 60
        E 120 80 64 00
        E 120 90 58 60
        E 0 90 64 60
        E 120 80 58 00
        E 0 80 64 00
        E 120 90 64 60
        E 120 80 64 00
        E 120 90 3e 60
        E 0 90 4b 60
        E 0 90 58 60
        E 0 90 64 60
        E 120 80 3e 00
        E 0 80 4b 00
        E 0 80 58 00
        E 0 80 64 00
        E 120 90 64 60
        E 120 80 64 00
        E 120 90 58 60
        E 0 90 64 60
        E 120 80 58 00
        E 0 80 64 00
        E 120 90 64 60
        E 120 80 64 00
        E 120 90 4b 60
        E 0 90 58 60
        E 0 90 64 60
        E 120 80 4b 00
        E 0 80 58 00
        E 0 80 64 00
        E 120 90 64 60
        E 120 80 64 00
        E 120 90 58 60
        E 0 90 64 60
        E 120 80 58 00
        E 0 80 64 00
        E 120 90 64 60
        E 120 80 64 00
        E 120 90 3e 60
        E 0 90 4b 60
        E 0 90 58 60
        E 0 90 64 60
        E 120 80 3e 00
        E 0 80 4b 00
        E 0 80 58 00
        E 0 80 64 00
        E 120 90 64 60
        E 120 80 64 00
        E 120 90 58 60
        E 0 90 64 60
        E 120 80 58 00
        E 0 80 64 00
        E 120 90 64 60
        E 120 80 64 00
        E 120 90 4b 60
        E 0 90 58 60
        E 0 90 64 60
        E 120 80 4b 00
        E 0 80 58 00
        E 0 80 64 00
        E 120 90 64 60
        E 120 80 64 00
        E 120 90 58 60
        E 0 90 64 60
        E 120 80 58 00
        E 0 80 64 00
        E 120 90 64 60
        E 120 80 64 00
        E 120 90 3e 60
        E 0 90 4b 60
        E 0 90 57 60
        E 0 90 63 60
        E 0 90 74 60
        E 120 80 3e 00
        E 0 80 4b 00
        E 0 80 57 00
        E 0 80 63 00
        E 120 90 63 60
        E 120 80 63 00
        E 120 90 57 60
        E 0 90 63 60
        E 120 80 57 00
        E 0 80 63 00
        E 120 90 63 60
        E 120 80 63 00
        E 120 90 49 60
        E 0 90 55 60
        E 0 90 61 60
        E 120 80 49 00
        E 0 80 55 00
        E 0 80 61 00
        E 120 90 61 60
        E 120 80 61 00
        E 120 90 57 60
        E 0 90 63 60
        E 120 80 57 00
        E 0 80 63 00
        E 120 90 63 60
        E 120 80 63 00
        E 120 80 74 00
        E 0 90 3e 60
        E 0 90 4b 60
        E 0 90 58 60
        E 0 90 64 60
        E 120 80 3e 00
        E 0 80 4b 00
        E 0 80 58 00
        E 0 80 64 00
        E 120 90 64 60
        E 120 80 64 00
        E 120 90 58 60
        E 0 90 64 60
        E 120 80 58 00
        E 0 80 64 00
        E 120 90 64 60
        E 120 80 64 00
        E 120 90 4b 60
        E 0 90 58 60
        E 0 90 64 60
        E 120 80 4b 00
        E 0 80 58 00
        E 0 80 64 00
        E 120 90 64 60
        E 120 80 64 00
        E 120 90 58 60
        E 0 90 64 60
        E 120 80 58 00
        E 0 80 64 00
        E 120 90 64 60
        E 120 80 64 00
        E 120 90 3e 60
        E 0 90 4b 60
        E 0 90 58 60
        E 0 90 64 60
        E 120 80 3e 00
        E 0 80 4b 00
        E 0 80 58 00
        E 0 80 64 00
        E 120 90 64 60
        E 120 80 64 00
        E 120 90 58 60
        E 0 90 64 60
        E 120 80 58 00
        E 0 80 64 00
        E 120 90 64 60
        E 120 80 64 00
        E 120 90 4b 60
        E 0 90 58 60
        E 0 90 64 60
        E 120 80 4b 00
        E 0 80 58 00
        E 0 80 64 00
        E 120 90 64 60
        E 120 80 64 00
        E 120 90 58 60
        E 0 90 64 60
        E 120 80 58 00
        E 0 80 64 00
        E 120 90 64 60
        E 120 80 64 00
        E 120 90 3e 60
        E 0 90 4b 60
        E 0 90 57 60
        E 0 90 63 60
        E 120 80 3e 00
        E 0 80 4b 00
        E 0 80 57 00
        E 0 80 63 00
        E 120 90 63 60
        E 120 80 63 00
        E 120 90 57 60
        E 0 90 63 60
        E 120 80 57 00
        E 0 80 63 00
        E 120 90 63 60
        E 120 80 63 00
        E 120 90 4b 60
        E 0 90 57 60
        E 0 90 63 60
        E 120 80 4b 00
        E 0 80 57 00
        E 0 80 63 00
        E 120 90 63 60
        E 120 80 63 00
        E 120 90 57 60
        E 0 90 63 60
        E 120 80 57 00
        E 0 80 63 00
        E 120 90 63 60
        E 120 80 63 00
        E 120 90 3e 60
        E 0 90 4b 60
        E 0 90 57 60
        E 0 90 63 60
        E 120 80 3e 00
        E 0 80 4b 00
        E 0 80 57 00
        E 0 80 63 00
        E 120 90 63 60
        E 120 80 63 00
        E 120 90 57 60
        E 0 90 63 60
        E 120 80 57 00
        E 0 80 63 00
        E 120 90 63 60
        E 120 80 63 00
        E 120 90 4b 60
        E 0 90 57 60
        E 0 90 63 60
        E 120 80 4b 00
        E 0 80 57 00
        E 0 80 63 00
        E 120 90 63 60
        E 120 80 63 00
        E 120 90 57 60
        E 0 90 63 60
        E 120 80 57 00
        E 0 80 63 00
        E 120 90 63 60
        E 120 80 63 00
        E 120 90 3d 60
        E 0 90 4a 60
        E 0 90 56 60
        E 0 90 62 60
        E 120 80 3d 00
        E 0 80 4a 00
        E 0 80 56 00
        E 0 80 62 00
        E 120 90 62 60
        E 120 80 62 00
        E 120 90 56 60
        E 0 90 62 60
        E 120 80 56 00
        E 0 80 62 00
        E 120 90 62 60
        E 120 80 62 00
        E 120 90 4a 60
        E 0 90 56 60
        E 0 90 62 60
        E 120 80 4a 00
        E 0 80 56 00
        E 0 80 62 00
        E 120 90 62 60
        E 120 80 62 00
        E 120 90 56 60
        E 0 90 62 60
        E 120 80 56 00
        E 0 80 62 00
        E 120 90 62 60
        E 120 80 62 00
        E 120 90 3d 60
        E 0 90 4a 60
        E 0 90 56 60
        E 0 90 62 60
        E 120 80 3d 00
        E 0 80 4a 00
        E 0 80 56 00
        E 0 80 62 00
        E 120 90 62 60
        E 120 80 62 00
        E 120 90 56 60
        E 0 90 62 60
        E 120 80 56 00
        E 0 80 62 00
        E 120 90 62 60
        E 120 80 62 00
        E 120 90 4a 60
        E 0 90 56 60
        E 0 90 62 60
        E 120 80 4a 00
        E 0 80 56 00
        E 0 80 62 00
        E 120 90 62 60
        E 120 80 62 00
        E 120 90 56 60
        E 0 90 62 60
        E 120 80 56 00
        E 0 80 62 00
        E 120 90 62 60
        E 120 80 62 00
        E 120 90 3c 60
        E 0 90 49 60
        E 0 90 55 60
        E 0 90 61 60
        E 120 80 3c 00
        E 0 80 49 00
        E 0 80 55 00
        E 0 80 61 00
        E 120 90 61 60
        E 120 80 61 00
        E 120 90 55 60
        E 0 90 61 60
        E 120 80 55 00
        E 0 80 61 00
        E 120 90 61 60
        E 120 80 61 00
        E 120 90 49 60
        E 0 90 55 60
        E 0 90 61 60
        E 120 80 49 00
        E 0 80 55 00
        E 0 80 61 00
        E 120 90 61 60
        E 120 80 61 00
        E 120 90 55 60
        E 0 90 61 60
        E 120 80 55 00
        E 0 80 61 00
        E 120 90 61 60
        E 120 80 61 00
        E 120 90 3c 60
        E 0 90 49 60
        E 0 90 55 60
        E 0 90 61 60
        E 120 80 3c 00
        E 0 80 49 00
        E 0 80 55 00
        E 0 80 61 00
        E 120 90 61 60
        E 120 80 61 00
        E 120 90 55 60
        E 0 90 61 60
        E 120 80 55 00
        E 0 80 61 00
        E 120 90 61 60
        E 120 80 61 00
        E 120 90 49 60
        E 0 90 55 60
        E 0 90 61 60
        E 120 80 49 00
        E 0 80 55 00
        E 0 80 61 00
        E 120 90 61 60
        E 120 80 61 00
        E 120 90 55 60
        E 0 90 61 60
        E 120 80 55 00
        E 0 80 61 00
        E 120 90 61 60
        E 120 80 61 00
        E 120 90 3e 60
        E 0 90 4b 60
        E 0 90 58 60
        E 0 90 64 60
        E 120 80 3e 00
        E 0 80 4b 00
        E 0 80 58 00
        E 0 80 64 00
        E 120 90 64 60
        E 120 80 64 00
        E 120 90 58 60
        E 0 90 64 60
        E 120 80 58 00
        E 0 80 64 00
        E 120 90 64 60
        E 120 80 64 00
        E 120 90 4b 60
        E 0 90 58 60
        E 0 90 64 60
        E 120 80 4b 00
        E 0 80 58 00
        E 0 80 64 00
        E 120 90 64 60
        E 120 80 64 00
        E 120 90 58 60
        E 0 90 64 60
        E 120 80 58 00
        E 0 80 64 00
        E 120 90 64 60
        E 120 80 64 00
        E 120 90 3e 60
        E 0 90 4b 60
        E 0 90 58 60
        E 0 90 64 60
        E 120 80 3e 00
        E 0 80 4b 00
        E 0 80 58 00
        E 0 80 64 00
        E 120 90 64 60
        E 120 80 64 00
        E 120 90 58 60
        E 0 90 64 60
        E 120 80 58 00
        E 0 80 64 00
        E 120 90 64 60
        E 120 80 64 00
        E 120 90 4b 60
        E 0 90 58 60
        E 0 90 64 60
        E 120 80 4b 00
        E 0 80 58 00
        E 0 80 64 00
        E 120 90 64 60
        E 120 80 64 00
        E 120 90 58 60
        E 0 90 64 60
        E 120 80 58 00
        E 0 80 64 00
        E 120 90 64 60
        E 120 80 64 00
        E 120 90 3e 60
        E 0 90 4b 60
        E 0 90 57 60
        E 0 90 63 60
        E 120 80 3e 00
        E 0 80 4b 00
        E 0 80 57 00
        E 0 80 63 00
        E 120 90 63 60
        E 120 80 63 00
        E 120 90 57 60
        E 0 90 63 60
        E 120 80 57 00
        E 0 80 63 00
        E 120 90 63 60
        E 120 80 63 00
        E 120 90 4b 60
        E 0 90 57 60
        E 0 90 63 60
        E 120 80 4b 00
        E 0 80 57 00
        E 0 80 63 00
        E 120 90 63 60
        E 120 80 63 00
        E 120 90 57 60
        E 0 90 63 60
        E 120 80 57 00
        E 0 80 63 00
        E 120 90 63 60
        E 120 80 63 00
        E 120 90 3e 60
        E 0 90 4b 60
        E 0 90 57 60
        E 0 90 63 60
        E 120 80 3e 00
        E 0 80 4b 00
        E 0 80 57 00
        E 0 80 63 00
        E 120 90 63 60
        E 120 80 63 00
        E 120 90 57 60
        E 0 90 63 60
        E 120 80 57 00
        E 0 80 63 00
        E 120 90 63 60
        E 120 80 63 00
        E 120 90 4b 60
        E 0 90 57 60
        E 0 90 63 60
        E 120 80 4b 00
        E 0 80 57 00
        E 0 80 63 00
        E 120 90 63 60
        E 120 80 63 00
        E 120 90 57 60
        E 0 90 63 60
        E 120 80 57 00
        E 0 80 63 00
        E 120 90 63 60
        E 120 80 63 00
        E 120 90 3d 60
        E 0 90 4a 60
        E 0 90 56 60
        E 0 90 62 60
        E 0 90 74 60
        E 120 80 3d 00
        E 0 80 4a 00
        E 0 80 56 00
        E 0 80 62 00
        E 120 90 62 60
        E 120 80 62 00
        E 120 90 56 60
        E 0 90 62 60
        E 120 80 56 00
        E 0 80 62 00
        E 120 90 62 60
        E 120 80 62 00
        E 120 90 4a 60
        E 0 90 56 60
        E 0 90 62 60
        E 120 80 4a 00
        E 0 80 56 00
        E 0 80 62 00
        E 120 90 62 60
        E 120 80 62 00
        E 120 90 56 60
        E 0 90 62 60
        E 120 80 56 00
        E 0 80 62 00
        E 120 90 62 60
        E 120 80 62 00
        E 120 90 3d 60
        E 0 90 4a 60
        E 0 90 56 60
        E 0 90 62 60
        E 120 80 3d 00
        E 0 80 4a 00
        E 0 80 56 00
        E 0 80 62 00
        E 120 90 62 60
        E 120 80 62 00
        E 120 90 56 60
        E 0 90 62 60
        E 120 80 56 00
        E 0 80 62 00
        E 120 90 62 60
        E 120 80 62 00
        E 120 90 4a 60
        E 0 90 56 60
        E 0 90 62 60
        E 120 80 4a 00
        E 0 80 56 00
        E 0 80 62 00
        E 120 90 62 60
        E 120 80 62 00
        E 120 90 56 60
        E 0 90 62 60
        E 120 80 56 00
        E 0 80 62 00
        E 120 90 62 60
        E 120 80 62 00
        E 120 90 3c 60
        E 0 90 49 60
        E 0 90 55 60
        E 0 90 61 60
        E 120 80 74 00
        E 0 80 3c 00
        E 0 80 49 00
        E 0 80 55 00
        E 0 80 61 00
        E 120 90 61 60
        E 120 80 61 00
        E 120 90 55 60
        E 0 90 61 60
        E 120 80 55 00
        E 0 80 61 00
        E 120 90 61 60
        E 120 80 61 00
        E 120 90 49 60
        E 0 90 55 60
        E 0 90 61 60
        E 120 80 49 00
        E 0 80 55 00
        E 0 80 61 00
        E 120 90 61 60
        E 120 80 61 00
        E 120 90 55 60
        E 0 90 61 60
        E 120 80 55 00
        E 0 80 61 00
        E 120 90 61 60
        E 120 80 61 00
        E 120 90 3c 60
        E 0 90 49 60
        E 0 90 55 60
        E 0 90 61 60
        E 120 80 3c 00
        E 0 80 49 00
        E 0 80 55 00
        E 0 80 61 00
        E 120 90 61 60
        E 120 80 61 00
        E 120 90 55 60
        E 0 90 61 60
        E 120 80 55 00
        E 0 80 61 00
        E 120 90 61 60
        E 120 80 61 00
        E 120 90 49 60
        E 0 90 55 60
        E 0 90 61 60
        E 120 80 49 00
        E 0 80 55 00
        E 0 80 61 00
        E 120 90 61 60
        E 120 80 61 00
        E 120 90 55 60
        E 0 90 61 60
        E 120 80 55 00
        E 0 80 61 00
        E 120 90 61 60
        E 120 80 61 00
        E 120 90 3d 60
        E 0 90 4a 60
        E 0 90 56 60
        E 0 90 62 60
        E 120 80 3d 00
        E 0 80 4a 00
        E 0 80 56 00
        E 0 80 62 00
        E 120 90 62 60
        E 120 80 62 00
        E 120 90 56 60
        E 0 90 62 60
        E 120 80 56 00
        E 0 80 62 00
        E 120 90 62 60
        E 120 80 62 00
        E 120 90 4a 60
        E 0 90 56 60
        E 0 90 62 60
        E 120 80 4a 00
        E 0 80 56 00
        E 0 80 62 00
        E 120 90 62 60
        E 120 80 62 00
        E 120 90 56 60
        E 0 90 62 60
        E 120 80 56 00
        E 0 80 62 00
        E 120 90 62 60
        E 120 80 62 00
        E 120 90 3c 60
        E 0 90 49 60
        E 0 90 55 60
        E 0 90 61 60
        E 120 80 3c 00
        E 0 80 49 00
        E 0 80 55 00
        E 0 80 61 00
        E 120 90 61 60
        E 120 80 61 00
        E 120 90 55 60
        E 0 90 61 60
        E 120 80 55 00
        E 0 80 61 00
        E 120 90 61 60
        E 120 80 61 00
        E 120 90 49 60
        E 0 90 55 60
        E 0 90 61 60
        E 120 80 49 00
        E 0 80 55 00
        E 0 80 61 00
        E 120 90 61 60
        E 120 80 61 00
        E 120 90 55 60
        E 0 90 61 60
        E 120 80 55 00
        E 0 80 61 00
        E 120 90 61 60
        E 120 80 61 00
        E 120 90 3d 60
        E 0 90 4a 60
        E 0 90 56 60
        E 0 90 62 60
        E 120 80 3d 00
        E 0 80 4a 00
        E 0 80 56 00
        E 0 80 62 00
        E 120 90 62 60
        E 120 80 62 00
        E 120 90 56 60
        E 0 90 62 60
        E 120 80 56 00
        E 0 80 62 00
        E 120 90 62 60
        E 120 80 62 00
        E 120 90 4a 60
        E 0 90 56 60
        E 0 90 62 60
        E 120 80 4a 00
        E 0 80 56 00
        E 0 80 62 00
        E 120 90 62 60
        E 120 80 62 00
        E 120 90 56 60
        E 0 90 62 60
        E 120 80 56 00
        E 0 80 62 00
        E 120 90 62 60
        E 120 80 62 00
        E 120 90 3c 60
        E 0 90 49 60
        E 0 90 55 60
        E 0 90 61 60
        E 120 80 3c 00
        E 0 80 49 00
        E 0 80 55 00
        E 0 80 61 00
        E 120 90 61 60
        E 120 80 61 00
        E 120 90 55 60
        E 0 90 61 60
        E 120 80 55 00
        E 0 80 61 00
        E 120 90 61 60
        E 120 80 61 00
        E 120 90 49 60
        E 0 90 55 60
        E 0 90 61 60
        E 120 80 49 00
        E 0 80 55 00
        E 0 80 61 00
        E 120 90 61 60
        E 120 80 61 00
        E 120 90 55 60
        E 0 90 61 60
        E 120 80 55 00
        E 0 80 61 00
        E 120 90 61 60
        E 120 80 61 00
        E 120 90 3e 60
        E 0 90 4b 60
        E 0 90 58 60
        E 0 90 64 60
        E 120 80 3e 00
        E 0 80 4b 00
        E 0 80 58 00
        E 0 80 64 00
        E 120 90 64 60
        E 120 80 64 00
        E 120 90 58 60
        E 0 90 64 60
        E 120 80 58 00
        E 0 80 64 00
        E 120 90 64 60
        E 120 80 64 00
        E 120 90 4b 60
        E 0 90 58 60
        E 0 90 64 60
        E 120 80 4b 00
        E 0 80 58 00
        E 0 80 64 00
        E 120 90 64 60
        E 120 80 64 00
        E 120 90 58 60
        E 0 90 64 60
        E 120 80 58 00
        E 0 80 64 00
        E 120 90 64 60
        E 120 80 64 00
        E 120 90 3e 60
        E 0 90 4b 60
        E 0 90 58 60
        E 0 90 64 60
        E 120 80 3e 00
        E 0 80 4b 00
        E 0 80 58 00
        E 0 80 64 00
        E 120 90 64 60
        E 120 80 64 00
        E 120 90 58 60
        E 0 90 64 60
        E 120 80 58 00
        E 0 80 64 00
        E 120 90 64 60
        E 120 80 64 00
        E 120 90 4b 60
        E 0 90 58 60
        E 0 90 64 60
        E 120 80 4b 00
        E 0 80 58 00
        E 0 80 64 00
        E 120 90 64 60
        E 120 80 64 00
        E 120 90 58 60
        E 0 90 64 60
        E 120 80 58 00
        E 0 80 64 00
        E 120 90 64 60
        E 120 80 64 00
        E 120 90 3e 60
        E 0 90 4b 60
        E 0 90 58 60
        E 0 90 64 60
        E 120 80 3e 00
        E 0 80 4b 00
        E 0 80 58 00
        E 0 80 64 00
        E 120 90 64 60
        E 120 80 64 00
        E 120 90 58 60
        E 0 90 64 60
        E 120 80 58 00
        E 0 80 64 00
        E 120 90 64 60
        E 120 80 64 00
        E 120 90 4b 60
        E 0 90 58 60
        E 0 90 64 60
        E 120 80 4b 00
        E 0 80 58 00
        E 0 80 64 00
        E 120 90 64 60
        E 120 80 64 00
        E 120 90 58 60
        E 0 90 64 60
        E 120 80 58 00
        E 0 80 64 00
        E 120 90 64 60
        E 120 80 64 00
        E 120 90 3e 60
        E 0 90 4b 60
        E 0 90 57 60
        E 0 90 63 60
        E 120 80 3e 00
        E 0 80 4b 00
        E 0 80 57 00
        E 0 80 63 00
        E 120 90 63 60
        E 120 80 63 00
        E 120 90 57 60
        E 0 90 63 60
        E 120 80 57 00
        E 0 80 63 00
        E 120 90 63 60
        E 120 80 63 00
        E 120 90 49 60
        E 0 90 55 60
        E 0 90 61 60
        E 120 80 49 00
        E 0 80 55 00
        E 0 80 61 00
        E 120 90 61 60
        E 120 80 61 00
        E 120 90 57 60
        E 0 90 63 60
        E 120 80 57 00
        E 0 80 63 00
        E 120 90 63 60
        E 120 80 63 00
        E 120 90 3e 60
        E 0 90 4b 60
        E 0 90 58 60
        E 0 90 64 60
        E 120 80 3e 00
        E 0 80 4b 00
        E 0 80 58 00
        E 0 80 64 00
        E 120 90 64 60
        E 120 80 64 00
        E 120 90 58 60
        E 0 90 64 60
        E 120 80 58 00
        E 0 80 64 00
        E 120 90 64 60
        E 120 80 64 00
        E 120 90 4b 60
        E 0 90 58 60
        E 0 90 64 60
        E 120 80 4b 00
        E 0 80 58 00
        E 0 80 64 00
        E 120 90 64 60
        E 120 80 64 00
        E 120 90 58 60
        E 0 90 64 60
        E 120 80 58 00
        E 0 80 64 00
        E 120 90 64 60
        E 120 80 64 00
        E 120 90 3e 60
        E 0 90 4b 60
        E 0 90 58 60
        E 0 90 64 60
        E 120 80 3e 00
        E 0 80 4b 00
        E 0 80 58 00
        E 0 80 64 00
        E 120 90 64 60
        E 120 80 64 00
        E 120 90 58 60
        E 0 90 64 60
        E 120 80 58 00
        E 0 80 64 00
        E 120 90 64 60
        E 120 80 64 00
        E 120 90 4b 60
        E 0 90 58 60
        E 0 90 64 60
        E 120 80 4b 00
        E 0 80 58 00
        E 0 80 64 00
        E 120 90 64 60
        E 120 80 64 00
        E 120 90 58 60
        E 0 90 64 60
        E 120 80 58 00
        E 0 80 64 00
        E 120 90 64 60
        E 120 80 64 00
        E 120 90 3e 60
        E 0 90 4b 60
        E 0 90 57 60
        E 0 90 63 60
        E 0 90 74 60
        E 120 80 3e 00
        E 0 80 4b 00
        E 0 80 57 00
        E 0 80 63 00
        E 120 90 63 60
        E 120 80 63 00
        E 120 90 57 60
        E 0 90 63 60
        E 120 80 57 00
        E 0 80 63 00
        E 120 90 63 60
        E 120 80 63 00
        E 120 90 4b 60
        E 0 90 57 60
        E 0 90 63 60
        E 120 80 4b 00
        E 0 80 57 00
        E 0 80 63 00
        E 120 90 63 60
        E 120 80 63 00
        E 120 90 57 60
        E 0 90 63 60
        E 120 80 57 00
        E 0 80 63 00
        E 120 90 63 60
        E 120 80 63 00
        E 120 90 3e 60
        E 0 90 4b 60
        E 0 90 57 60
        E 0 90 63 60
        E 120 80 3e 00
        E 0 80 4b 00
        E 0 80 57 00
        E 0 80 63 00
        E 120 90 63 60
        E 120 80 63 00
        E 120 90 57 60
        E 0 90 63 60
        E 120 80 57 00
        E 0 80 63 00
        E 120 90 63 60
        E 120 80 63 00
        E 120 90 4b 60
        E 0 90 57 60
        E 0 90 63 60
        E 120 80 4b 00
        E 0 80 57 00
        E 0 80 63 00
        E 120 90 63 60
        E 120 80 63 00
        E 120 90 57 60
        E 0 90 63 60
        E 120 80 57 00
        E 0 80 63 00
        E 120 90 63 60
        E 120 80 63 00
        E 120 80 74 00
        E 0 90 3d 60
        E 0 90 4a 60
        E 0 90 56 60
        E 0 90 62 60
        E 120 80 3d 00
        E 0 80 4a 00
        E 0 80 56 00
        E 0 80 62 00
        E 120 90 62 60
        E 120 80 62 00
        E 120 90 56 60
        E 0 90 62 60
        E 120 80 56 00
        E 0 80 62 00
        E 120 90 62 60
        E 120 80 62 00
        E 120 90 4a 60
        E 0 90 56 60
        E 0 90 62 60
        E 120 80 4a 00
        E 0 80 56 00
        E 0 80 62 00
        E 120 90 62 60
        E 120 80 62 00
        E 120 90 56 60
        E 0 90 62 60
        E 120 80 56 00
        E 0 80 62 00
        E 120 90 62 60
        E 120 80 62 00
        E 120 90 3d 60
        E 0 90 4a 60
        E 0 90 56 60
        E 0 90 62 60
        E 120 80 3d 00
        E 0 80 4a 00
        E 0 80 56 00
        E 0 80 62 00
        E 120 90 62 60
        E 120 80 62 00
        E 120 90 56 60
        E 0 90 62 60
        E 120 80 56 00
        E 0 80 62 00
        E 120 90 62 60
        E 120 80 62 00
        E 120 90 4a 60
        E 0 90 56 60
        E 0 90 62 60
        E 120 80 4a 00
        E 0 80 56 00
        E 0 80 62 00
        E 120 90 62 60
        E 120 80 62 00
        E 120 90 56 60
        E 0 90 62 60
        E 120 80 56 00
        E 0 80 62 00
        E 120 90 62 60
        E 120 80 62 00
        E 120 90 3c 60
        E 0 90 49 60
        E 0 90 55 60
        E 0 90 61 60
        E 120 80 3c 00
        E 0 80 49 00
        E 0 80 55 00
        E 0 80 61 00
        E 120 90 61 60
        E 120 80 61 00
        E 120 90 55 60
        E 0 90 61 60
        E 120 80 55 00
        E 0 80 61 00
        E 120 90 61 60
        E 120 80 61 00
        E 120 90 49 60
        E 0 90 55 60
        E 0 90 61 60
        E 120 80 49 00
        E 0 80 55 00
        E 0 80 61 00
        E 120 90 61 60
        E 120 80 61 00
        E 120 90 55 60
        E 0 90 61 60
        E 120 80 55 00
        E 0 80 61 00
        E 120 90 61 60
        E 120 80 61 00
        E 120 90 3c 60
        E 0 90 49 60
        E 0 90 55 60
        E 0 90 61 60
        E 120 80 3c 00
        E 0 80 49 00
        E 0 80 55 00
        E 0 80 61 00
        E 120 90 61 60
        E 120 80 61 00
        E 120 90 55 60
        E 0 90 61 60
        E 120 80 55 00
        E 0 80 61 00
        E 120 90 61 60
        E 120 80 61 00
        E 120 90 49 60
        E 0 90 55 60
        E 0 90 61 60
        E 120 80 49 00
        E 0 80 55 00
        E 0 80 61 00
        E 120 90 61 60
        E 120 80 61 00
        E 120 90 55 60
        E 0 90 61 60
        E 120 80 55 00
        E 0 80 61 00
        E 120 90 61 60
        E 120 80 61 00
        E 120 90 3e 60
        E 0 90 4b 60
        E 0 90 58 60
        E 0 90 64 60
        E 120 80 3e 00
        E 0 80 4b 00
        E 0 80 58 00
        E 0 80 64 00
        E 120 90 64 60
        E 120 80 64 00
        E 120 90 58 60
        E 0 90 64 60
        E 120 80 58 00
        E 0 80 64 00
        E 120 90 64 60
        E 120 80 64 00
        E 120 90 4b 60
        E 0 90 58 60
        E 0 90 64 60
        E 120 80 4b 00
        E 0 80 58 00
        E 0 80 64 00
        E 120 90 64 60
        E 120 80 64 00
        E 120 90 58 60
        E 0 90 64 60
        E 120 80 58 00
        E 0 80 64 00
        E 120 90 64 60
        E 120 80 64 00
        E 120 90 3e 60
        E 0 90 4b 60
        E 0 90 58 60
        E 0 90 64 60
        E 120 80 3e 00
        E 0 80 4b 00
        E 0 80 58 00
        E 0 80 64 00
        E 120 90 64 60
        E 120 80 64 00
        E 120 90 58 60
        E 0 90 64 60
        E 120 80 58 00
        E 0 80 64 00
        E 120 90 64 60
        E 120 80 64 00
        E 120 90 4b 60
        E 0 90 58 60
        E 0 90 64 60
        E 120 80 4b 00
        E 0 80 58 00
        E 0 80 64 00
        E 120 90 64 60
        E 120 80 64 00
        E 120 90 58 60
        E 0 90 64 60
        E 120 80 58 00
        E 0 80 64 00
        E 120 90 64 60
        E 120 80 64 00
        E 120 90 3e 60
        E 0 90 4b 60
        E 0 90 57 60
        E 0 90 63 60
        E 120 80 3e 00
        E 0 80 4b 00
        E 0 80 57 00
        E 0 80 63 00
        E 120 90 63 60
        E 120 80 63 00
        E 120 90 57 60
        E 0 90 63 60
        E 120 80 57 00
        E 0 80 63 00
        E 120 90 63 60
        E 120 80 63 00
        E 120 90 4b 60
        E 0 90 57 60
        E 0 90 63 60
        E 120 80 4b 00
        E 0 80 57 00
        E 0 80 63 00
        E 120 90 63 60
        E 120 80 63 00
        E 120 90 57 60
        E 0 90 63 60
        E 120 80 57 00
        E 0 80 63 00
        E 120 90 63 60
        E 120 80 63 00
        E 120 90 3e 60
        E 0 90 4b 60
        E 0 90 57 60
        E 0 90 63 60
        E 120 80 3e 00
        E 0 80 4b 00
        E 0 80 57 00
        E 0 80 63 00
        E 120 90 63 60
        E 120 80 63 00
        E 120 90 57 60
        E 0 90 63 60
        E 120 80 57 00
        E 0 80 63 00
        E 120 90 63 60
        E 120 80 63 00
        E 120 90 4b 60
        E 0 90 57 60
        E 0 90 63 60
        E 120 80 4b 00
        E 0 80 57 00
        E 0 80 63 00
        E 120 90 63 60
        E 120 80 63 00
        E 120 90 57 60
        E 0 90 63 60
        E 120 80 57 00
        E 0 80 63 00
        E 120 90 63 60
        E 120 80 63 00
        E 120 90 3d 60
        E 0 90 4a 60
        E 0 90 56 60
        E 0 90 62 60
        E 120 80 3d 00
        E 0 80 4a 00
        E 0 80 56 00
        E 0 80 62 00
        E 120 90 62 60
        E 120 80 62 00
        E 120 90 56 60
        E 0 90 62 60
        E 120 80 56 00
        E 0 80 62 00
        E 120 90 62 60
        E 120 80 62 00
        E 120 90 4a 60
        E 0 90 56 60
        E 0 90 62 60
        E 120 80 4a 00
        E 0 80 56 00
        E 0 80 62 00
        E 120 90 62 60
        E 120 80 62 00
        E 120 90 56 60
        E 0 90 62 60
        E 120 80 56 00
        E 0 80 62 00
        E 120 90 62 60
        E 120 80 62 00
        E 120 90 3d 60
        E 0 90 4a 60
        E 0 90 56 60
        E 0 90 62 60
        E 120 80 3d 00
        E 0 80 4a 00
        E 0 80 56 00
        E 0 80 62 00
        E 120 90 62 60
        E 120 80 62 00
        E 120 90 56 60
        E 0 90 62 60
        E 120 80 56 00
        E 0 80 62 00
        E 120 90 62 60
        E 120 80 62 00
        E 120 90 4a 60
        E 0 90 56 60
        E 0 90 62 60
        E 120 80 4a 00
        E 0 80 56 00
        E 0 80 62 00
        E 120 90 62 60
        E 120 80 62 00
        E 120 90 56 60
        E 0 90 62 60
        E 120 80 56 00
        E 0 80 62 00
        E 120 90 62 60
        E 120 80 62 00
        E 120 90 3c 60
        E 0 90 49 60
        E 0 90 55 60
        E 0 90 61 60
        E 120 80 3c 00
        E 0 80 49 00
        E 0 80 55 00
        E 0 80 61 00
        E 120 90 61 60
        E 120 80 61 00
        E 120 90 55 60
        E 0 90 61 60
        E 120 80 55 00
        E 0 80 61 00
        E 120 90 61 60
        E 120 80 61 00
        E 120 90 49 60
        E 0 90 55 60
        E 0 90 61 60
        E 120 80 49 00
        E 0 80 55 00
        E 0 80 61 00
        E 120 90 61 60
        E 120 80 61 00
        E 120 90 55 60
        E 0 90 61 60
        E 120 80 55 00
        E 0 80 61 00
        E 120 90 61 60
        E 120 80 61 00
        E 120 90 3c 60
        E 0 90 49 60
        E 0 90 55 60
        E 0 90 61 60
        E 120 80 3c 00
        E 0 80 49 00
        E 0 80 55 00
        E 0 80 61 00
        E 120 90 61 60
        E 120 80 61 00
        E 120 90 55 60
        E 0 90 61 60
        E 120 80 55 00
        E 0 80 61 00
        E 120 90 61 60
        E 120 80 61 00
        E 120 90 49 60
        E 0 90 55 60
        E 0 90 61 60
        E 120 80 49 00
        E 0 80 55 00
        E 0 80 61 00
        E 120 90 61 60
        E 120 80 61 00
        E 120 90 55 60
        E 0 90 61 60
        E 120 80 55 00
        E 0 80 61 00
        E 120 90 61 60
        E 120 80 61 00
        E 120 90 3d 60
        E 0 90 4a 60
        E 0 90 56 60
        E 0 90 62 60
        E 120 80 3d 00
        E 0 80 4a 00
        E 0 80 56 00
        E 0 80 62 00
        E 120 90 62 60
        E 120 80 62 00
        E 120 90 56 60
        E 0 90 62 60
        E 120 80 56 00
        E 0 80 62 00
        E 120 90 62 60
        E 120 80 62 00
        E 120 90 4a 60
        E 0 90 56 60
        E 0 90 62 60
        E 120 80 4a 00
        E 0 80 56 00
        E 0 80 62 00
        E 120 90 62 60
        E 120 80 62 00
        E 120 90 56 60
        E 0 90 62 60
        E 120 80 56 00
        E 0 80 62 00
        E 120 90 62 60
        E 120 80 62 00
        E 120 90 3c 60
        E 0 90 49 60
        E 0 90 55 60
        E 0 90 61 60
        E 120 80 3c 00
        E 0 80 49 00
        E 0 80 55 00
        E 0 80 61 00
        E 120 90 61 60
        E 120 80 61 00
        E 120 90 55 60
        E 0 90 61 60
        E 120 80 55 00
        E 0 80 61 00
        E 120 90 61 60
        E 120 80 61 00
        E 120 90 49 60
        E 0 90 55 60
        E 0 90 61 60
        E 120 80 49 00
        E 0 80 55 00
        E 0 80 61 00
        E 120 90 61 60
        E 120 80 61 00
        E 120 90 55 60
        E 0 90 61 60
        E 120 80 55 00
        E 0 80 61 00
        E 120 90 61 60
        E 120 80 61 00
        E 120 90 3d 60
        E 0 90 4a 60
        E 0 90 56 60
        E 0 90 62 60
        E 120 80 3d 00
        E 0 80 4a 00
        E 0 80 56 00
        E 0 80 62 00
        E 120 90 62 60
        E 120 80 62 00
        E 120 90 56 60
        E 0 90 62 60
        E 120 80 56 00
        E 0 80 62 00
        E 120 90 62 60
        E 120 80 62 00
        E 120 90 4a 60
        E 0 90 56 60
        E 0 90 62 60
        E 120 80 4a 00
        E 0 80 56 00
        E 0 80 62 00
        E 120 90 62 60
        E 120 80 62 00
        E 120 90 56 60
        E 0 90 62 60
        E 120 80 56 00
        E 0 80 62 00
        E 120 90 62 60
        E 120 80 62 00
        E 120 90 3c 60
        E 0 90 49 60
        E 0 90 55 60
        E 0 90 61 60
        E 120 80 3c 00
        E 0 80 49 00
        E 0 80 55 00
        E 0 80 61 00
        E 120 90 61 60
        E 120 80 61 00
        E 120 90 55 60
        E 0 90 61 60
        E 120 80 55 00
        E 0 80 61 00
        E 120 90 61 60
        E 120 80 61 00
        E 120 90 49 60
        E 0 90 55 60
        E 0 90 61 60
        E 120 80 49 00
        E 0 80 55 00
        E 0 80 61 00
        E 120 90 61 60
        E 120 80 61 00
        E 120 90 55 60
        E 0 90 61 60
        E 120 80 55 00
        E 0 80 61 00
        E 120 90 61 60
        E 120 80 61 00
        E 120 90 3e 60
        E 0 90 4b 60
        E 0 90 58 60
        E 0 90 64 60
        E 120 80 3e 00
        E 0 80 4b 00
        E 0 80 58 00
        E 0 80 64 00
        E 120 90 64 60
        E 120 80 64 00
        E 120 90 58 60
        E 0 90 64 60
        E 120 80 58 00
        E 0 80 64 00
        E 120 90 64 60
        E 120 80 64 00
        E 120 90 4b 60
        E 0 90 58 60
        E 0 90 64 60
        E 120 80 4b 00
        E 0 80 58 00
        E 0 80 64 00
        E 120 90 64 60
        E 120 80 64 00
        E 120 90 58 60
        E 0 90 64 60
        E 120 80 58 00
        E 0 80 64 00
        E 120 90 64 60
        E 120 80 64 00
        E 120 90 3e 60
        E 0 90 4b 60
        E 0 90 58 60
        E 0 90 64 60
        E 120 80 3e 00
        E 0 80 4b 00
        E 0 80 58 00
        E 0 80 64 00
        E 120 90 64 60
        E 120 80 64 00
        E 120 90 58 60
        E 0 90 64 60
        E 120 80 58 00
        E 0 80 64 00
        E 120 90 64 60
        E 120 80 64 00
        E 120 90 4b 60
        E 0 90 58 60
        E 0 90 64 60
        E 120 80 4b 00
        E 0 80 58 00
        E 0 80 64 00
        E 120 90 64 60
        E 120 80 64 00
        E 120 90 58 60
        E 0 90 64 60
        E 120 80 58 00
        E 0 80 64 00
        E 120 90 64 60
        E 120 80 64 00
        E 120 90 3e 60
        E 0 90 4b 60
        E 0 90 58 60
        E 0 90 64 60
        E 120 80 3e 00
        E 0 80 4b 00
        E 0 80 58 00
        E 0 80 64 00
        E 120 90 64 60
        E 120 80 64 00
        E 120 90 58 60
        E 0 90 64 60
        E 120 80 58 00
        E 0 80 64 00
        E 120 90 64 60
        E 120 80 64 00
        E 120 90 4b 60
        E 0 90 58 60
        E 0 90 64 60
        E 120 80 4b 00
        E 0 80 58 00
        E 0 80 64 00
        E 120 90 64 60
        E 120 80 64 00
        E 120 90 58 60
        E 0 90 64 60
        E 120 80 58 00
        E 0 80 64 00
        E 120 90 64 60
        E 120 80 64 00
        E 120 90 3e 60
        E 0 90 4b 60
        E 0 90 57 60
        E 0 90 63 60
        E 120 80 3e 00
        E 0 80 4b 00
        E 0 80 57 00
        E 0 80 63 00
        E 120 90 63 60
        E 120 80 63 00
        E 120 90 57 60
        E 0 90 63 60
        E 120 80 57 00
        E 0 80 63 00
        E 120 90 63 60
        E 120 80 63 00
        E 120 90 49 60
        E 0 90 55 60
        E 0 90 61 60
        E 120 80 49 00
        E 0 80 55 00
        E 0 80 61 00
        E 120 90 61 60
        E 120 80 61 00
        E 120 90 57 60
        E 0 90 63 60
        E 120 80 57 00
        E 0 80 63 00
        E 120 90 63 60
        E 120 80 63 00
        E 120 90 3e 60
        E 0 90 4b 60
        E 0 90 58 60
        E 0 90 64 60
        e 0 90 74 60
        E 120 80 3e 00
        E 0 80 4b 00
        E 0 80 58 00
        E 0 80 64 00
        E 120 90 64 60
        E 120 80 64 00
        E 120 90 58 60
        E 0 90 64 60
        E 120 80 58 00
        E 0 80 64 00
        E 120 90 64 60
        E 120 80 64 00
        E 120 90 4b 60
        E 0 90 58 60
        E 0 90 64 60
        E 120 80 4b 00
        E 0 80 58 00
        E 0 80 64 00
        E 120 90 64 60
        E 120 80 64 00
        E 120 90 58 60
        E 0 90 64 60
        E 120 80 58 00
        E 0 80 64 00
        E 120 90 64 60
        E 120 80 64 00
        E 120 90 3e 60
        E 0 90 4b 60
        E 0 90 58 60
        E 0 90 64 60
        E 120 80 3e 00
        E 0 80 4b 00
        E 0 80 58 00
        E 0 80 64 00
        E 120 90 64 60
        E 120 80 64 00
        E 120 90 58 60
        E 0 90 64 60
        E 120 80 58 00
        E 0 80 64 00
        E 120 90 64 60
        E 120 80 64 00
        E 120 90 4b 60
        E 0 90 58 60
        E 0 90 64 60
        E 120 80 4b 00
        E 0 80 58 00
        E 0 80 64 00
        E 120 90 64 60
        E 120 80 64 00
        E 120 90 58 60
        E 0 90 64 60
        E 120 80 58 00
        E 0 80 64 00
        E 120 90 64 60
        E 120 80 64 00
        E 120 90 3e 60
        E 0 90 4b 60
        E 0 90 57 60
        E 0 90 63 60
        E 120 80 3e 00
        E 0 80 4b 00
        E 0 80 57 00
        E 0 80 63 00
        e 0 80 74 00
        E 120 90 63 60
        E 120 80 63 00
        E 120 90 57 60
        E 0 90 63 60
        E 120 80 57 00
        E 0 80 63 00
        E 120 90 63 60
        E 120 80 63 00
        E 120 90 4b 60
        E 0 90 57 60
        E 0 90 63 60
        E 120 80 4b 00
        E 0 80 57 00
        E 0 80 63 00
        E 120 90 63 60
        E 120 80 63 00
        E 120 90 57 60
        E 0 90 63 60
        E 120 80 57 00
        E 0 80 63 00
        E 120 90 63 60
        E 120 80 63 00
        E 120 90 3e 60
        E 0 90 4b 60
        E 0 90 57 60
        E 0 90 63 60
        E 120 80 3e 00
        E 0 80 4b 00
        E 0 80 57 00
        E 0 80 63 00
        E 120 90 63 60
        E 120 80 63 00
        E 120 90 57 60
        E 0 90 63 60
        E 120 80 57 00
        E 0 80 63 00
        E 120 90 63 60
        E 120 80 63 00
        E 120 90 4b 60
        E 0 90 57 60
        E 0 90 63 60
        E 120 80 4b 00
        E 0 80 57 00
        E 0 80 63 00
        E 120 90 63 60
        E 120 80 63 00
        E 120 90 57 60
        E 0 90 63 60
        E 120 80 57 00
        E 0 80 63 00
        E 120 90 63 60
        E 120 80 63 00
        E 120 90 3d 60
        E 0 90 4a 60
        E 0 90 56 60
        E 0 90 62 60
        E 120 80 3d 00
        E 0 80 4a 00
        E 0 80 56 00
        E 0 80 62 00
        E 120 90 62 60
        E 120 80 62 00
        E 120 90 56 60
        E 0 90 62 60
        E 120 80 56 00
        E 0 80 62 00
        E 120 90 62 60
        E 120 80 62 00
        E 120 90 4a 60
        E 0 90 56 60
        E 0 90 62 60
        E 120 80 4a 00
        E 0 80 56 00
        E 0 80 62 00
        E 120 90 62 60
        E 120 80 62 00
        E 120 90 56 60
        E 0 90 62 60
        E 120 80 56 00
        E 0 80 62 00
        E 120 90 62 60
        E 120 80 62 00
        E 120 90 3d 60
        E 0 90 4a 60
        E 0 90 56 60
        E 0 90 62 60
        E 120 80 3d 00
        E 0 80 4a 00
        E 0 80 56 00
        E 0 80 62 00
        E 120 90 62 60
        E 120 80 62 00
        E 120 90 56 60
        E 0 90 62 60
        E 120 80 56 00
        E 0 80 62 00
        E 120 90 62 60
        E 120 80 62 00
        E 120 90 4a 60
        E 0 90 56 60
        E 0 90 62 60
        E 120 80 4a 00
        E 0 80 56 00
        E 0 80 62 00
        E 120 90 62 60
        E 120 80 62 00
        E 120 90 56 60
        E 0 90 62 60
        E 120 80 56 00
        E 0 80 62 00
        E 120 90 62 60
        E 120 80 62 00
        E 120 90 3c 60
        E 0 90 49 60
        E 0 90 55 60
        E 0 90 61 60
        E 120 80 3c 00
        E 0 80 49 00
        E 0 80 55 00
        E 0 80 61 00
        E 120 90 61 60
        E 120 80 61 00
        E 120 90 55 60
        E 0 90 61 60
        E 120 80 55 00
        E 0 80 61 00
        E 120 90 61 60
        E 120 80 61 00
        E 120 90 49 60
        E 0 90 55 60
        E 0 90 61 60
        E 120 80 49 00
        E 0 80 55 00
        E 0 80 61 00
        E 120 90 61 60
        E 120 80 61 00
        E 120 90 55 60
        E 0 90 61 60
        E 120 80 55 00
        E 0 80 61 00
        E 120 90 61 60
        E 120 80 61 00
        E 120 90 3c 60
        E 0 90 49 60
        E 0 90 55 60
        E 0 90 61 60
        E 120 80 3c 00
        E 0 80 49 00
        E 0 80 55 00
        E 0 80 61 00
        E 120 90 61 60
        E 120 80 61 00
        E 120 90 55 60
        E 0 90 61 60
        E 120 80 55 00
        E 0 80 61 00
        E 120 90 61 60
        E 120 80 61 00
        E 120 90 49 60
        E 0 90 55 60
        E 0 90 61 60
        E 120 80 49 00
        E 0 80 55 00
        E 0 80 61 00
        E 120 90 61 60
        E 120 80 61 00
        E 120 90 55 60
        E 0 90 61 60
        E 120 80 55 00
        E 0 80 61 00
        E 120 90 61 60
        E 120 80 61 00
        E 120 90 3e 60
        E 0 90 4b 60
        E 0 90 58 60
        E 0 90 64 60
        E 120 80 3e 00
        E 0 80 4b 00
        E 0 80 58 00
        E 0 80 64 00
        E 120 90 64 60
        E 120 80 64 00
        E 120 90 58 60
        E 0 90 64 60
        E 120 80 58 00
        E 0 80 64 00
        E 120 90 64 60
        E 120 80 64 00
        E 120 90 4b 60
        E 0 90 58 60
        E 0 90 64 60
        E 120 80 4b 00
        E 0 80 58 00
        E 0 80 64 00
        E 120 90 64 60
        E 120 80 64 00
        E 120 90 58 60
        E 0 90 64 60
        E 120 80 58 00
        E 0 80 64 00
        E 120 90 64 60
        E 120 80 64 00
        E 120 90 3e 60
        E 0 90 4b 60
        E 0 90 58 60
        E 0 90 64 60
        E 120 80 3e 00
        E 0 80 4b 00
        E 0 80 58 00
        E 0 80 64 00
        E 120 90 64 60
        E 120 80 64 00
        E 120 90 58 60
        E 0 90 64 60
        E 120 80 58 00
        E 0 80 64 00
        E 120 90 64 60
        E 120 80 64 00
        E 120 90 4b 60
        E 0 90 58 60
        E 0 90 64 60
        E 120 80 4b 00
        E 0 80 58 00
        E 0 80 64 00
        E 120 90 64 60
        E 120 80 64 00
        E 120 90 58 60
        E 0 90 64 60
        E 120 80 58 00
        E 0 80 64 00
        E 120 90 64 60
        E 120 80 64 00
        E 120 90 3e 60
        E 0 90 4b 60
        E 0 90 57 60
        E 0 90 63 60
        E 120 80 3e 00
        E 0 80 4b 00
        E 0 80 57 00
        E 0 80 63 00
        E 120 90 63 60
        E 120 80 63 00
        E 120 90 57 60
        E 0 90 63 60
        E 120 80 57 00
        E 0 80 63 00
        E 120 90 63 60
        E 120 80 63 00
        E 120 90 4b 60
        E 0 90 57 60
        E 0 90 63 60
        E 120 80 4b 00
        E 0 80 57 00
        E 0 80 63 00
        E 120 90 63 60
        E 120 80 63 00
        E 120 90 57 60
        E 0 90 63 60
        E 120 80 57 00
        E 0 80 63 00
        E 120 90 63 60
        E 120 80 63 00
        E 120 90 3e 60
        E 0 90 4b 60
        E 0 90 57 60
        E 0 90 63 60
        E 120 80 3e 00
        E 0 80 4b 00
        E 0 80 57 00
        E 0 80 63 00
        E 120 90 63 60
        E 120 80 63 00
        E 120 90 57 60
        E 0 90 63 60
        E 120 80 57 00
        E 0 80 63 00
        E 120 90 63 60
        E 120 80 63 00
        E 120 90 4b 60
        E 0 90 57 60
        E 0 90 63 60
        E 120 80 4b 00
        E 0 80 57 00
        E 0 80 63 00
        E 120 90 63 60
        E 120 80 63 00
        E 120 90 57 60
        E 0 90 63 60
        E 120 80 57 00
        E 0 80 63 00
        E 120 90 63 60
        E 120 80 63 00
        E 120 90 3d 60
        E 0 90 4a 60
        E 0 90 56 60
        E 0 90 62 60
        E 120 80 3d 00
        E 0 80 4a 00
        E 0 80 56 00
        E 0 80 62 00
        E 120 90 62 60
        E 120 80 62 00
        E 120 90 56 60
        E 0 90 62 60
        E 120 80 56 00
        E 0 80 62 00
        E 120 90 62 60
        E 120 80 62 00
        E 120 90 4a 60
        E 0 90 56 60
        E 0 90 62 60
        E 120 80 4a 00
        E 0 80 56 00
        E 0 80 62 00
        E 120 90 62 60
        E 120 80 62 00
        E 120 90 56 60
        E 0 90 62 60
        E 120 80 56 00
        E 0 80 62 00
        E 120 90 62 60
        E 120 80 62 00
        E 120 90 3d 60
        E 0 90 4a 60
        E 0 90 56 60
        E 0 90 62 60
        E 120 80 3d 00
        E 0 80 4a 00
        E 0 80 56 00
        E 0 80 62 00
        E 120 90 62 60
        E 120 80 62 00
        E 120 90 56 60
        E 0 90 62 60
        E 120 80 56 00
        E 0 80 62 00
        E 120 90 62 60
        E 120 80 62 00
        E 120 90 4a 60
        E 0 90 56 60
        E 0 90 62 60
        E 120 80 4a 00
        E 0 80 56 00
        E 0 80 62 00
        E 120 90 62 60
        E 120 80 62 00
        E 120 90 56 60
        E 0 90 62 60
        E 120 80 56 00
        E 0 80 62 00
        E 120 90 62 60
        E 120 80 62 00
        E 120 90 3c 60
        E 0 90 49 60
        E 0 90 55 60
        E 0 90 61 60
        E 120 80 3c 00
        E 0 80 49 00
        E 0 80 55 00
        E 0 80 61 00
        E 120 90 61 60
        E 120 80 61 00
        E 120 90 55 60
        E 0 90 61 60
        E 120 80 55 00
        E 0 80 61 00
        E 120 90 61 60
        E 120 80 61 00
        E 120 90 49 60
        E 0 90 55 60
        E 0 90 61 60
        E 120 80 49 00
        E 0 80 55 00
        E 0 80 61 00
        E 120 90 61 60
        E 120 80 61 00
        E 120 90 55 60
        E 0 90 61 60
        E 120 80 55 00
        E 0 80 61 00
        E 120 90 61 60
        E 120 80 61 00
        E 120 90 3c 60
        E 0 90 49 60
        E 0 90 55 60
        E 0 90 61 60
        E 120 80 3c 00
        E 0 80 49 00
        E 0 80 55 00
        E 0 80 61 00
        E 120 90 61 60
        E 120 80 61 00
        E 120 90 55 60
        E 0 90 61 60
        E 120 80 55 00
        E 0 80 61 00
        E 120 90 61 60
        E 120 80 61 00
        E 120 90 49 60
        E 0 90 55 60
        E 0 90 61 60
        E 120 80 49 00
        E 0 80 55 00
        E 0 80 61 00
        E 120 90 61 60
        E 120 80 61 00
        E 120 90 55 60
        E 0 90 61 60
        E 120 80 55 00
        E 0 80 61 00
        E 120 90 61 60
        E 120 80 61 00
        E 120 90 3d 60
        E 0 90 4a 60
        E 0 90 56 60
        E 0 90 62 60
        E 120 80 3d 00
        E 0 80 4a 00
        E 0 80 56 00
        E 0 80 62 00
        E 120 90 62 60
        E 120 80 62 00
        E 120 90 56 60
        E 0 90 62 60
        E 120 80 56 00
        E 0 80 62 00
        E 120 90 62 60
        E 120 80 62 00
        E 120 90 4a 60
        E 0 90 56 60
        E 0 90 62 60
        E 120 80 4a 00
        E 0 80 56 00
        E 0 80 62 00
        E 120 90 62 60
        E 120 80 62 00
        E 120 90 56 60
        E 0 90 62 60
        E 120 80 56 00
        E 0 80 62 00
        E 120 90 62 60
        E 120 80 62 00
        E 120 90 3c 60
        E 0 90 49 60
        E 0 90 55 60
        E 0 90 61 60
        E 120 80 3c 00
        E 0 80 49 00
        E 0 80 55 00
        E 0 80 61 00
        E 120 90 61 60
        E 120 80 61 00
        E 120 90 55 60
        E 0 90 61 60
        E 120 80 55 00
        E 0 80 61 00
        E 120 90 61 60
        E 120 80 61 00
        E 120 90 49 60
        E 0 90 55 60
        E 0 90 61 60
        E 120 80 49 00
        E 0 80 55 00
        E 0 80 61 00
        E 120 90 61 60
        E 120 80 61 00
        E 120 90 55 60
        E 0 90 61 60
        E 120 80 55 00
        E 0 80 61 00
        E 120 90 61 60
        E 120 80 61 00
        E 120 90 3d 60
        E 0 90 4a 60
        E 0 90 56 60
        E 0 90 62 60
        E 120 80 3d 00
        E 0 80 4a 00
        E 0 80 56 00
        E 0 80 62 00
        E 120 90 62 60
        E 120 80 62 00
        E 120 90 56 60
        E 0 90 62 60
        E 120 80 56 00
        E 0 80 62 00
        E 120 90 62 60
        E 120 80 62 00
        E 120 90 4a 60
        E 0 90 56 60
        E 0 90 62 60
        E 120 80 4a 00
        E 0 80 56 00
        E 0 80 62 00
        E 120 90 62 60
        E 120 80 62 00
        E 120 90 56 60
        E 0 90 62 60
        E 120 80 56 00
        E 0 80 62 00
        E 120 90 62 60
        E 120 80 62 00
        E 120 90 3c 60
        E 0 90 49 60
        E 0 90 55 60
        E 0 90 61 60
        E 120 80 3c 00
        E 0 80 49 00
        E 0 80 55 00
        E 0 80 61 00
        E 120 90 61 60
        E 120 80 61 00
        E 120 90 55 60
        E 0 90 61 60
        E 120 80 55 00
        E 0 80 61 00
        E 120 90 61 60
        E 120 80 61 00
        E 120 90 49 60
        E 0 90 55 60
        E 0 90 61 60
        E 120 80 49 00
        E 0 80 55 00
        E 0 80 61 00
        E 120 90 61 60
        E 120 80 61 00
        E 120 90 55 60
        E 0 90 61 60
        E 120 80 55 00
        E 0 80 61 00
        E 120 90 61 60
        E 120 80 61 00
        E 120 90 3e 60
        E 0 90 4b 60
        E 0 90 58 60
        E 0 90 64 60
        E 120 80 3e 00
        E 0 80 4b 00
        E 0 80 58 00
        E 0 80 64 00
        E 120 90 64 60
        E 120 80 64 00
        E 120 90 58 60
        E 0 90 64 60
        E 120 80 58 00
        E 0 80 64 00
        E 120 90 64 60
        E 120 80 64 00
        E 120 90 4b 60
        E 0 90 58 60
        E 0 90 64 60
        E 120 80 4b 00
        E 0 80 58 00
        E 0 80 64 00
        E 120 90 64 60
        E 120 80 64 00
        E 120 90 58 60
        E 0 90 64 60
        E 120 80 58 00
        E 0 80 64 00
        E 120 90 64 60
        E 120 80 64 00
        E 120 90 3e 60
        E 0 90 4b 60
        E 0 90 58 60
        E 0 90 64 60
        E 120 80 3e 00
        E 0 80 4b 00
        E 0 80 58 00
        E 0 80 64 00
        E 120 90 64 60
        E 120 80 64 00
        E 120 90 58 60
        E 0 90 64 60
        E 120 80 58 00
        E 0 80 64 00
        E 120 90 64 60
        E 120 80 64 00
        E 120 90 4b 60
        E 0 90 58 60
        E 0 90 64 60
        E 120 80 4b 00
        E 0 80 58 00
        E 0 80 64 00
        E 120 90 64 60
        E 120 80 64 00
        E 120 90 58 60
        E 0 90 64 60
        E 120 80 58 00
        E 0 80 64 00
        E 120 90 64 60
        E 120 80 64 00
        E 120 90 3e 60
        E 0 90 4b 60
        E 0 90 58 60
        E 0 90 64 60
        E 120 80 3e 00
        E 0 80 4b 00
        E 0 80 58 00
        E 0 80 64 00
        E 120 90 64 60
        E 120 80 64 00
        E 120 90 58 60
        E 0 90 64 60
        E 120 80 58 00
        E 0 80 64 00
        E 120 90 64 60
        E 120 80 64 00
        E 120 90 4b 60
        E 0 90 58 60
        E 0 90 64 60
        E 120 80 4b 00
        E 0 80 58 00
        E 0 80 64 00
        E 120 90 64 60
        E 120 80 64 00
        E 120 90 58 60
        E 0 90 64 60
        E 120 80 58 00
        E 0 80 64 00
        E 120 90 64 60
        E 120 80 64 00
        E 120 90 3e 60
        E 0 90 4b 60
        E 0 90 57 60
        E 0 90 63 60
        E 120 80 3e 00
        E 0 80 4b 00
        E 0 80 57 00
        E 0 80 63 00
        E 120 90 63 60
        E 120 80 63 00
        E 120 90 57 60
        E 0 90 63 60
        E 120 80 57 00
        E 0 80 63 00
        E 120 90 63 60
        E 120 80 63 00
        E 120 90 49 60
        E 0 90 55 60
        E 0 90 61 60
        E 120 80 49 00
        E 0 80 55 00
        E 0 80 61 00
        E 120 90 61 60
        E 120 80 61 00
        E 120 90 57 60
        E 0 90 63 60
        E 120 80 57 00
        E 0 80 63 00
        E 120 90 63 60
        E 120 80 63 00
        E 120 90 3e 60
        E 0 90 4b 60
        E 0 90 58 60
        E 0 90 64 60
        E 480 80 28 00
        E 0 80 3e 00
        E 0 80 4b 00
        E 0 80 58 00
        E 0 80 64 00
        <X 480 0
          /wFbaWRsZV9yZWFsdGltZV0=
        >
        E 2880 b0 7b 00
        GUID {72872B4A-9A93-453C-A5A2-B43795A96881}
        IGNTEMPO 0 120.00000000 4 4
        SRCCOLOR 7
        VELLANE 132 128 60
        COLORMAP "C:\Program Files\REAPER (x64)\Data\color_maps\rockband_guitarbass.png"
        CFGEDITVIEW -10109.492431 10.396993 0 14 0 0 0
        CFGEDIT 1 1 0 1 1 0 1 1 1 1 1 0.25000000 -8 -8 1544 872 0 2 1 1 0.00000000 0 1 0 0 0.500000 0 0 1.000000 64
        KEYSNAP 0 6 "102030050700" 0 "Pentatonic"
        EVTFILTER 0 -1 -1 -1 -1 0 1 0 0 -1.00000000 -1.00000000
      >
    >
  >
  <TRACK '{47F582AB-DF78-4E18-9283-E32936F668CB}'
    NAME "bass"
    PEAKCOL 16576
    BEAT -1
    AUTOMODE 0
    VOLPAN 1.00000000000000 0.00000000000000 -1.00000000000000 -1.00000000000000 1.00000000000000
    MUTESOLO 0 0 0
    IPHASE 0
    ISBUS 2 -1
    BUSCOMP 0 0
    SHOWINMIX 1 0.666700 0.500000 1 0.500000 -1 -1 -1
    FREEMODE 0
    SEL 0
    REC 0 0 0 0 0 0 0
    VU 2
    TRACKHEIGHT 0 0
    INQ 0 0 0 0.5000000000 100 0 0 100
    NCHAN 2
    FX 1
    TRACKID {47F582AB-DF78-4E18-9283-E32936F668CB}
    PERF 0
    MIDIOUT -1
    MAINSEND 1 0
    <ITEM
      POSITION 0.00000000000000
      SNAPOFFS 0.00000000000000
      LENGTH 108.01200133348151
      LOOP 0
      ALLTAKES 0
      SEL 0
      FADEIN 1 0.000000 0.000000 1 0
      FADEOUT 1 0.000000 0.000000 1 0
      MUTE 0
      IGUID {8BE00141-1423-4AA1-8540-1E7DBEC90630}
      IID 12
      NAME "bass.wav"
      VOLPAN 1.000000 0.000000 1.000000 -1.000000
      SOFFS 0.00000000000000
      PLAYRATE 1.00000000000000 1 0.00000000000000 -1
      CHANMODE 0
      GUID {185B7D49-C3E8-4747-AAC7-E4176B10E6A0}
      <SOURCE WAVE
        FILE "wav\bass.wav"
      >
    >
  >
  <TRACK '{2DA44BE5-BB4B-4D3E-AEF7-72D28C793B49}'
    NAME "PART GUITAR"
    PEAKCOL 16576
    BEAT -1
    AUTOMODE 0
    VOLPAN 1.00000000000000 0.00000000000000 -1.00000000000000 -1.00000000000000 1.00000000000000
    MUTESOLO 0 0 0
    IPHASE 0
    ISBUS 1 1
    BUSCOMP 0 0
    SHOWINMIX 1 0.666700 0.500000 1 0.500000 -1 -1 -1
    FREEMODE 0
    SEL 1
    REC 0 0 0 0 0 0 0
    VU 2
    TRACKHEIGHT 0 0
    INQ 0 0 0 0.5000000000 100 0 0 100
    NCHAN 2
    FX 1
    TRACKID {2DA44BE5-BB4B-4D3E-AEF7-72D28C793B49}
    PERF 0
    MIDIOUT -1
    <MIDINOTENAMES
      0 127 "TRILL MARKER"
      0 126 "TREMOLO MARKER"
      0 125 "---"
      0 124 "BRE"
      0 123 "BRE"
      0 122 "BRE"
      0 121 "BRE"
      0 120 "BRE (use all 5)"
      0 119 "----"
      0 116 "OVERDRIVE"
      0 115 "----"
      0 103 "Solo Marker"
      0 102 "Force HOPO Off"
      0 101 "Force HOPO On"
      0 100 "EXPERT Orange"
      0 99 "EXPERT Blue"
      0 98 "EXPERT Yellow"
      0 97 "EXPERT Red"
      0 96 "EXPERT Green"
      0 95 "----"
      0 90 "Force HOPO Off"
      0 89 "Force HOPO On"
      0 88 "HARD Orange"
      0 87 "HARD Blue"
      0 86 "HARD Yellow"
      0 85 "HARD Red"
      0 84 "HARD Green"
      0 77 "----"
      0 76 "MEDIUM Orange"
      0 75 "MEDIUM Blue"
      0 74 "MEDIUM Yellow"
      0 73 "MEDIUM Red"
      0 72 "MEDIUM Green"
      0 65 "----"
      0 64 "EASY Orange"
      0 63 "EASY Blue"
      0 62 "EASY Yellow"
      0 61 "EASY Red"
      0 60 "EASY Green"
      0 59 "Fret 12"
      0 57 "Fret 11"
      0 56 "Fret 10"
      0 55 "Fret 9"
      0 53 "Fret 8"
      0 52 "Fret 7"
      0 50 "Fret 6"
      0 49 "Fret 5"
      0 47 "Fret 4"
      0 45 "Fret 3"
      0 43 "Fret 2"
      0 40 "Fret 1"
    >
    MAINSEND 1 0
    <FXCHAIN
      WNDRECT 302 206 891 559
      SHOW 0
      LASTSEL 0
      DOCKED 0
      BYPASS 0 0
      <VST "VSTi: RBN Preview (RBN)" "rbprev_vst64.dll" 0 ""
        dnBicu5e7f4AAAAAAgAAAAEAAAAAAAAAAgAAAAAAAAAEAAAAAQAAAA==
        AAAQAAMA+gAAABAAAAA=
      >
      FLOATPOS 0 0 0 0
      FXID {1C0F177D-94D6-4C6C-BBF8-1A73F1BD9BD7}
      WAK 0
    >
    <ITEM
      POSITION 0.00000000000000
      SNAPOFFS 0.00000000000000
      LENGTH 108.01200133348151
      LOOP 0
      ALLTAKES 0
      SEL 1
      FADEIN 1 0.000000 0.000000 1 0
      FADEOUT 1 0.000000 0.000000 1 0
      MUTE 0
      IGUID {2DC9EB95-0A59-4142-A852-6E99134AD02B}
      IID 14
      NAME "PART GUITAR"
      VOLPAN 1.000000 0.000000 1.000000 -1.000000
      SOFFS 0.00000000000000 0.00000000000000
      PLAYRATE 1.00000000000000 1 0.00000000000000 -1
      CHANMODE 0
      GUID {23D7A6DC-83FD-4F3B-B66F-83F07EA0B9D5}
      <SOURCE MIDI
        HASDATA 1 480 QN
        POOLEDEVTS {FB856E22-9C48-4EF6-BF3D-A162F0FFC6A7}
        <X 0 0
          /wNQQVJUIEdVSVRBUg==
        >
        <X 3840 0
          /wFbaWRsZV0=
        >
        <X 9600 0
          /wFbcGxheV0=
        >
        E 0 90 2d 60
        E 0 90 3d 60
        E 0 90 49 60
        E 0 90 55 60
        E 0 90 61 60
        E 0 90 74 60
        E 120 80 3d 00
        E 0 80 49 00
        E 0 80 55 00
        E 0 80 61 00
        E 120 90 61 60
        E 120 80 2d 00
        E 0 80 61 00
        E 120 90 28 60
        E 0 90 56 60
        E 0 90 62 60
        E 120 80 56 00
        E 0 80 62 00
        E 120 90 63 60
        E 120 80 63 00
        E 120 90 4a 60
        E 0 90 56 60
        E 0 90 62 60
        E 120 80 4a 00
        E 0 80 56 00
        E 0 80 62 00
        E 120 90 64 60
        E 120 80 28 00
        E 0 80 64 00
        E 120 90 2d 60
        E 0 90 55 60
        E 0 90 61 60
        E 120 80 55 00
        E 0 80 61 00
        E 120 90 61 60
        E 120 80 61 00
        E 120 90 3d 60
        E 0 90 49 60
        E 0 90 55 60
        E 0 90 61 60
        E 120 80 3d 00
        E 0 80 49 00
        E 0 80 55 00
        E 0 80 61 00
        E 120 90 61 60
        E 120 80 2d 00
        E 0 80 61 00
        E 120 90 28 60
        E 0 90 56 60
        E 0 90 62 60
        E 120 80 56 00
        E 0 80 62 00
        E 120 90 63 60
        E 120 80 63 00
        E 120 90 4a 60
        E 0 90 56 60
        E 0 90 62 60
        E 120 80 4a 00
        E 0 80 56 00
        E 0 80 62 00
        E 120 90 64 60
        E 120 80 28 00
        E 0 80 64 00
        E 120 90 2d 60
        E 0 90 55 60
        E 0 90 61 60
        E 120 80 55 00
        E 0 80 61 00
        E 120 90 61 60
        E 120 80 2d 00
        E 0 80 61 00
        E 120 80 74 00
        E 0 90 2d 60
        E 0 90 3c 60
        E 0 90 48 60
        E 0 90 54 60
        E 0 90 60 60
        E 120 80 3c 00
        E 0 80 48 00
        E 0 80 54 00
        E 0 80 60 00
        E 120 90 60 60
        E 120 80 2d 00
        E 0 80 60 00
        E 120 90 28 60
        E 0 90 56 60
        E 0 90 62 60
        E 120 80 56 00
        E 0 80 62 00
        E 120 90 63 60
        E 120 80 63 00
        E 120 90 4a 60
        E 0 90 56 60
        E 0 90 62 60
        E 120 80 4a 00
        E 0 80 56 00
        E 0 80 62 00
        E 120 90 64 60
        E 120 80 28 00
        E 0 80 64 00
        E 120 90 2d 60
        E 0 90 54 60
        E 0 90 60 60
        E 120 80 54 00
        E 0 80 60 00
        E 120 90 60 60
        E 120 80 60 00
        E 120 90 3c 60
        E 0 90 48 60
        E 0 90 54 60
        E 0 90 60 60
        E 120 80 3c 00
        E 0 80 48 00
        E 0 80 54 00
        E 0 80 60 00
        E 120 90 60 60
        E 120 80 2d 00
        E 0 80 60 00
        E 120 90 28 60
        E 0 90 56 60
        E 0 90 62 60
        E 120 80 56 00
        E 0 80 62 00
        E 120 90 63 60
        E 120 80 63 00
        E 120 90 4a 60
        E 0 90 56 60
        E 0 90 62 60
        E 120 80 4a 00
        E 0 80 56 00
        E 0 80 62 00
        E 120 90 64 60
        E 120 80 28 00
        E 0 80 64 00
        E 120 90 2d 60
        E 0 90 54 60
        E 0 90 60 60
        E 120 80 54 00
        E 0 80 60 00
        E 120 90 60 60
        E 120 80 2d 00
        E 0 80 60 00
        E 120 90 28 60
        E 0 90 3d 60
        E 0 90 49 60
        E 0 90 55 60
        E 0 90 61 60
        E 120 80 3d 00
        E 0 80 49 00
        E 0 80 55 00
        E 0 80 61 00
        E 120 90 61 60
        E 120 80 61 00
        E 120 90 56 60
        E 0 90 62 60
        E 120 80 56 00
        E 0 80 62 00
        E 120 90 63 60
        E 120 80 63 00
        E 120 90 4a 60
        E 0 90 56 60
        E 0 90 62 60
        E 120 80 4a 00
        E 0 80 56 00
        E 0 80 62 00
        E 120 90 64 60
        E 120 80 64 00
        E 120 90 55 60
        E 0 90 61 60
        E 120 80 55 00
        E 0 80 61 00
        E 120 90 61 60
        E 120 80 61 00
        E 120 90 3d 60
        E 0 90 49 60
        E 0 90 55 60
        E 0 90 61 60
        E 120 80 3d 00
        E 0 80 49 00
        E 0 80 55 00
        E 0 80 61 00
        E 120 90 61 60
        E 120 80 61 00
        E 120 90 56 60
        E 0 90 62 60
        E 120 80 56 00
        E 0 80 62 00
        E 120 90 63 60
        E 120 80 63 00
        E 120 90 4a 60
        E 0 90 56 60
        E 0 90 62 60
        E 120 80 4a 00
        E 0 80 56 00
        E 0 80 62 00
        E 120 90 64 60
        E 120 80 64 00
        E 120 90 55 60
        E 0 90 61 60
        E 120 80 55 00
        E 0 80 61 00
        E 120 90 61 60
        E 120 80 61 00
        E 120 90 3c 60
        E 0 90 48 60
        E 0 90 54 60
        E 0 90 60 60
        E 120 80 3c 00
        E 0 80 48 00
        E 0 80 54 00
        E 0 80 60 00
        E 120 90 60 60
        E 120 80 60 00
        E 120 90 56 60
        E 0 90 62 60
        E 120 80 56 00
        E 0 80 62 00
        E 120 90 63 60
        E 120 80 63 00
        E 120 90 4a 60
        E 0 90 56 60
        E 0 90 62 60
        E 120 80 4a 00
        E 0 80 56 00
        E 0 80 62 00
        E 120 90 64 60
        E 120 80 64 00
        E 120 90 54 60
        E 0 90 60 60
        E 120 80 54 00
        E 0 80 60 00
        E 120 90 60 60
        E 120 80 60 00
        E 120 90 3c 60
        E 0 90 48 60
        E 0 90 54 60
        E 0 90 60 60
        E 120 80 3c 00
        E 0 80 48 00
        E 0 80 54 00
        E 0 80 60 00
        E 120 90 60 60
        E 120 80 60 00
        E 120 90 56 60
        E 0 90 62 60
        E 120 80 56 00
        E 0 80 62 00
        E 120 90 63 60
        E 120 80 63 00
        E 120 90 4a 60
        E 0 90 56 60
        E 0 90 62 60
        E 120 80 4a 00
        E 0 80 56 00
        E 0 80 62 00
        E 120 90 64 60
        E 120 80 64 00
        E 120 90 54 60
        E 0 90 60 60
        E 120 80 54 00
        E 0 80 60 00
        E 120 90 60 60
        E 120 80 28 00
        E 0 80 60 00
        E 120 90 2d 60
        E 0 90 3d 60
        E 0 90 49 60
        E 0 90 55 60
        E 0 90 61 60
        E 120 80 3d 00
        E 0 80 49 00
        E 0 80 55 00
        E 0 80 61 00
        E 120 90 61 60
        E 120 80 2d 00
        E 0 80 61 00
        E 120 90 28 60
        E 0 90 56 60
        E 0 90 62 60
        E 120 80 56 00
        E 0 80 62 00
        E 120 90 63 60
        E 120 80 63 00
        E 120 90 4a 60
        E 0 90 56 60
        E 0 90 62 60
        E 120 80 4a 00
        E 0 80 56 00
        E 0 80 62 00
        E 120 90 64 60
        E 120 80 28 00
        E 0 80 64 00
        E 120 90 2d 60
        E 0 90 55 60
        E 0 90 61 60
        E 120 80 55 00
        E 0 80 61 00
        E 120 90 61 60
        E 120 80 61 00
        E 120 90 3d 60
        E 0 90 49 60
        E 0 90 55 60
        E 0 90 61 60
        E 120 80 3d 00
        E 0 80 49 00
        E 0 80 55 00
        E 0 80 61 00
        E 120 90 61 60
        E 120 80 2d 00
        E 0 80 61 00
        E 120 90 28 60
        E 0 90 56 60
        E 0 90 62 60
        E 120 80 56 00
        E 0 80 62 00
        E 120 90 63 60
        E 120 80 63 00
        E 120 90 4a 60
        E 0 90 56 60
        E 0 90 62 60
        E 120 80 4a 00
        E 0 80 56 00
        E 0 80 62 00
        E 120 90 64 60
        E 120 80 28 00
        E 0 80 64 00
        E 120 90 2d 60
        E 0 90 55 60
        E 0 90 61 60
        E 120 80 55 00
        E 0 80 61 00
        E 120 90 61 60
        E 120 80 2d 00
        E 0 80 61 00
        E 120 90 2d 60
        E 0 90 3c 60
        E 0 90 48 60
        E 0 90 54 60
        E 0 90 60 60
        E 0 90 74 60
        E 120 80 3c 00
        E 0 80 48 00
        E 0 80 54 00
        E 0 80 60 00
        E 120 90 60 60
        E 120 80 2d 00
        E 0 80 60 00
        E 120 90 28 60
        E 0 90 56 60
        E 0 90 62 60
        E 120 80 56 00
        E 0 80 62 00
        E 120 90 63 60
        E 120 80 63 00
        E 120 90 4a 60
        E 0 90 56 60
        E 0 90 62 60
        E 120 80 4a 00
        E 0 80 56 00
        E 0 80 62 00
        E 120 90 64 60
        E 120 80 28 00
        E 0 80 64 00
        E 120 90 2d 60
        E 0 90 54 60
        E 0 90 60 60
        E 120 80 54 00
        E 0 80 60 00
        E 120 90 60 60
        E 120 80 60 00
        E 120 90 3c 60
        E 0 90 48 60
        E 0 90 54 60
        E 0 90 60 60
        E 120 80 3c 00
        E 0 80 48 00
        E 0 80 54 00
        E 0 80 60 00
        E 120 90 60 60
        E 120 80 2d 00
        E 0 80 60 00
        E 120 90 28 60
        E 0 90 56 60
        E 0 90 62 60
        E 120 80 56 00
        E 0 80 62 00
        E 120 90 63 60
        E 120 80 63 00
        E 120 90 4a 60
        E 0 90 56 60
        E 0 90 62 60
        E 120 80 4a 00
        E 0 80 56 00
        E 0 80 62 00
        E 120 90 64 60
        E 120 80 28 00
        E 0 80 64 00
        E 120 90 2d 60
        E 0 90 54 60
        E 0 90 60 60
        E 120 80 54 00
        E 0 80 60 00
        E 120 90 60 60
        E 120 80 2d 00
        E 0 80 60 00
        E 120 80 74 00
        E 0 90 28 60
        E 0 90 3d 60
        E 0 90 49 60
        E 0 90 55 60
        E 0 90 61 60
        E 120 80 3d 00
        E 0 80 49 00
        E 0 80 55 00
        E 0 80 61 00
        E 120 90 61 60
        E 120 80 61 00
        E 120 90 56 60
        E 0 90 62 60
        E 120 80 56 00
        E 0 80 62 00
        E 120 90 63 60
        E 120 80 63 00
        E 120 90 4a 60
        E 0 90 56 60
        E 0 90 62 60
        E 120 80 4a 00
        E 0 80 56 00
        E 0 80 62 00
        E 120 90 64 60
        E 120 80 64 00
        E 120 90 55 60
        E 0 90 61 60
        E 120 80 55 00
        E 0 80 61 00
        E 120 90 61 60
        E 120 80 61 00
        E 120 90 3d 60
        E 0 90 49 60
        E 0 90 55 60
        E 0 90 61 60
        E 120 80 3d 00
        E 0 80 49 00
        E 0 80 55 00
        E 0 80 61 00
        E 120 90 61 60
        E 120 80 61 00
        E 120 90 56 60
        E 0 90 62 60
        E 120 80 56 00
        E 0 80 62 00
        E 120 90 63 60
        E 120 80 63 00
        E 120 90 4a 60
        E 0 90 56 60
        E 0 90 62 60
        E 120 80 4a 00
        E 0 80 56 00
        E 0 80 62 00
        E 120 90 64 60
        E 120 80 64 00
        E 120 90 55 60
        E 0 90 61 60
        E 120 80 55 00
        E 0 80 61 00
        E 120 90 61 60
        E 120 80 61 00
        E 120 90 3c 60
        E 0 90 48 60
        E 0 90 54 60
        E 0 90 60 60
        E 120 80 3c 00
        E 0 80 48 00
        E 0 80 54 00
        E 0 80 60 00
        E 120 90 60 60
        E 120 80 60 00
        E 120 90 56 60
        E 0 90 62 60
        E 120 80 56 00
        E 0 80 62 00
        E 120 90 63 60
        E 120 80 63 00
        E 120 90 4a 60
        E 0 90 56 60
        E 0 90 62 60
        E 120 80 4a 00
        E 0 80 56 00
        E 0 80 62 00
        E 120 90 64 60
        E 120 80 64 00
        E 120 90 54 60
        E 0 90 60 60
        E 120 80 54 00
        E 0 80 60 00
        E 120 90 60 60
        E 120 80 60 00
        E 120 90 3c 60
        E 0 90 48 60
        E 0 90 54 60
        E 0 90 60 60
        E 120 80 3c 00
        E 0 80 48 00
        E 0 80 54 00
        E 0 80 60 00
        E 120 90 60 60
        E 120 80 60 00
        E 120 90 56 60
        E 0 90 62 60
        E 120 80 56 00
        E 0 80 62 00
        E 120 90 63 60
        E 120 80 63 00
        E 120 90 4a 60
        E 0 90 56 60
        E 0 90 62 60
        E 120 80 4a 00
        E 0 80 56 00
        E 0 80 62 00
        E 120 90 64 60
        E 120 80 64 00
        E 120 90 54 60
        E 0 90 60 60
        E 120 80 54 00
        E 0 80 60 00
        E 120 90 60 60
        E 120 80 28 00
        E 0 80 60 00
        E 120 90 2b 60
        E 0 90 3d 60
        E 0 90 49 60
        E 0 90 55 60
        E 0 90 61 60
        E 120 80 3d 00
        E 0 80 49 00
        E 0 80 55 00
        E 0 80 61 00
        E 120 90 60 60
        E 120 80 60 00
        E 120 90 55 60
        E 0 90 61 60
        E 120 80 55 00
        E 0 80 61 00
        E 120 90 60 60
        E 120 80 60 00
        E 120 90 49 60
        E 0 90 55 60
        E 0 90 61 60
        E 120 80 49 00
        E 0 80 55 00
        E 0 80 61 00
        E 120 90 60 60
        E 120 80 60 00
        E 120 90 55 60
        E 0 90 61 60
        E 120 80 55 00
        E 0 80 61 00
        E 120 90 62 60
        E 120 80 2b 00
        E 0 80 62 00
        E 120 90 28 60
        E 0 90 3e 60
        E 0 90 4b 60
        E 0 90 57 60
        E 0 90 63 60
        E 120 80 3e 00
        E 0 80 4b 00
        E 0 80 57 00
        E 0 80 63 00
        E 120 90 64 60
        E 120 80 64 00
        E 120 90 57 60
        E 0 90 63 60
        E 120 80 57 00
        E 0 80 63 00
        E 120 90 62 60
        E 120 80 62 00
        E 120 90 49 60
        E 0 90 55 60
        E 0 90 61 60
        E 120 80 49 00
        E 0 80 55 00
        E 0 80 61 00
        E 120 90 62 60
        E 120 80 62 00
        E 120 90 57 60
        E 0 90 63 60
        E 120 80 57 00
        E 0 80 63 00
        E 120 90 64 60
        E 120 80 28 00
        E 0 80 64 00
        E 120 90 2b 60
        E 0 90 3d 60
        E 0 90 49 60
        E 0 90 55 60
        E 0 90 61 60
        E 120 80 3d 00
        E 0 80 49 00
        E 0 80 55 00
        E 0 80 61 00
        E 120 90 60 60
        E 120 80 60 00
        E 120 90 55 60
        E 0 90 61 60
        E 120 80 55 00
        E 0 80 61 00
        E 120 90 60 60
        E 120 80 60 00
        E 120 90 49 60
        E 0 90 55 60
        E 0 90 61 60
        E 120 80 49 00
        E 0 80 55 00
        E 0 80 61 00
        E 120 90 60 60
        E 120 80 60 00
        E 120 90 55 60
        E 0 90 61 60
        E 120 80 55 00
        E 0 80 61 00
        E 120 90 62 60
        E 120 80 2b 00
        E 0 80 62 00
        E 120 90 28 60
        E 0 90 3e 60
        E 0 90 4b 60
        E 0 90 57 60
        E 0 90 63 60
        E 120 80 3e 00
        E 0 80 4b 00
        E 0 80 57 00
        E 0 80 63 00
        E 120 90 64 60
        E 120 80 64 00
        E 120 90 57 60
        E 0 90 63 60
        E 120 80 57 00
        E 0 80 63 00
        E 120 90 62 60
        E 120 80 62 00
        E 120 90 49 60
        E 0 90 55 60
        E 0 90 61 60
        E 120 80 49 00
        E 0 80 55 00
        E 0 80 61 00
        E 120 90 62 60
        E 120 80 62 00
        E 120 90 57 60
        E 0 90 63 60
        E 120 80 57 00
        E 0 80 63 00
        E 120 90 64 60
        E 120 80 64 00
        <X 480 0
          /wFbaWRsZV0=
        >
        <X 6840 0
          /wFbcGxheV0=
        >
        E 360 80 28 00
        E 120 90 2d 60
        E 0 90 3d 60
        E 0 90 49 60
        E 0 90 55 60
        E 0 90 61 60
        E 120 80 3d 00
        E 0 80 49 00
        E 0 80 55 00
        E 0 80 61 00
        E 120 90 61 60
        E 120 80 2d 00
        E 0 80 61 00
        E 120 90 28 60
        E 0 90 56 60
        E 0 90 62 60
        E 120 80 56 00
        E 0 80 62 00
        E 120 90 63 60
        E 120 80 63 00
        E 120 90 4a 60
        E 0 90 56 60
        E 0 90 62 60
        E 120 80 4a 00
        E 0 80 56 00
        E 0 80 62 00
        E 120 90 64 60
        E 120 80 28 00
        E 0 80 64 00
        E 120 90 2d 60
        E 0 90 55 60
        E 0 90 61 60
        E 120 80 55 00
        E 0 80 61 00
        E 120 90 61 60
        E 120 80 61 00
        E 120 90 3d 60
        E 0 90 49 60
        E 0 90 55 60
        E 0 90 61 60
        E 120 80 3d 00
        E 0 80 49 00
        E 0 80 55 00
        E 0 80 61 00
        E 120 90 61 60
        E 120 80 2d 00
        E 0 80 61 00
        E 120 90 28 60
        E 0 90 56 60
        E 0 90 62 60
        E 120 80 56 00
        E 0 80 62 00
        E 120 90 63 60
        E 120 80 63 00
        E 120 90 4a 60
        E 0 90 56 60
        E 0 90 62 60
        E 120 80 4a 00
        E 0 80 56 00
        E 0 80 62 00
        E 120 90 64 60
        E 120 80 28 00
        E 0 80 64 00
        E 120 90 2d 60
        E 0 90 55 60
        E 0 90 61 60
        E 120 80 55 00
        E 0 80 61 00
        E 120 90 61 60
        E 120 80 2d 00
        E 0 80 61 00
        E 120 90 2d 60
        E 0 90 3c 60
        E 0 90 48 60
        E 0 90 54 60
        E 0 90 60 60
        E 120 80 3c 00
        E 0 80 48 00
        E 0 80 54 00
        E 0 80 60 00
        E 120 90 60 60
        E 120 80 2d 00
        E 0 80 60 00
        E 120 90 28 60
        E 0 90 56 60
        E 0 90 62 60
        E 120 80 56 00
        E 0 80 62 00
        E 120 90 63 60
        E 120 80 63 00
        E 120 90 4a 60
        E 0 90 56 60
        E 0 90 62 60
        E 120 80 4a 00
        E 0 80 56 00
        E 0 80 62 00
        E 120 90 64 60
        E 120 80 28 00
        E 0 80 64 00
        E 120 90 2d 60
        E 0 90 54 60
        E 0 90 60 60
        E 120 80 54 00
        E 0 80 60 00
        E 120 90 60 60
        E 120 80 60 00
        E 120 90 3c 60
        E 0 90 48 60
        E 0 90 54 60
        E 0 90 60 60
        E 120 80 3c 00
        E 0 80 48 00
        E 0 80 54 00
        E 0 80 60 00
        E 120 90 60 60
        E 120 80 2d 00
        E 0 80 60 00
        E 120 90 28 60
        E 0 90 56 60
        E 0 90 62 60
        E 120 80 56 00
        E 0 80 62 00
        E 120 90 63 60
        E 120 80 63 00
        E 120 90 4a 60
        E 0 90 56 60
        E 0 90 62 60
        E 120 80 4a 00
        E 0 80 56 00
        E 0 80 62 00
        E 120 90 64 60
        E 120 80 28 00
        E 0 80 64 00
        E 120 90 2d 60
        E 0 90 54 60
        E 0 90 60 60
        E 120 80 54 00
        E 0 80 60 00
        E 120 90 60 60
        E 120 80 2d 00
        E 0 80 60 00
        E 120 90 28 60
        E 0 90 3d 60
        E 0 90 49 60
        E 0 90 55 60
        E 0 90 61 60
        E 0 90 74 60
        E 120 80 3d 00
        E 0 80 49 00
        E 0 80 55 00
        E 0 80 61 00
        E 120 90 61 60
        E 120 80 61 00
        E 120 90 56 60
        E 0 90 62 60
        E 120 80 56 00
        E 0 80 62 00
        E 120 90 63 60
        E 120 80 63 00
        E 120 90 4a 60
        E 0 90 56 60
        E 0 90 62 60
        E 120 80 4a 00
        E 0 80 56 00
        E 0 80 62 00
        E 120 90 64 60
        E 120 80 64 00
        E 120 90 55 60
        E 0 90 61 60
        E 120 80 55 00
        E 0 80 61 00
        E 120 90 61 60
        E 120 80 61 00
        E 120 90 3d 60
        E 0 90 49 60
        E 0 90 55 60
        E 0 90 61 60
        E 120 80 3d 00
        E 0 80 49 00
        E 0 80 55 00
        E 0 80 61 00
        E 120 90 61 60
        E 120 80 61 00
        E 120 90 56 60
        E 0 90 62 60
        E 120 80 56 00
        E 0 80 62 00
        E 120 90 63 60
        E 120 80 63 00
        E 120 90 4a 60
        E 0 90 56 60
        E 0 90 62 60
        E 120 80 4a 00
        E 0 80 56 00
        E 0 80 62 00
        E 120 90 64 60
        E 120 80 64 00
        E 120 90 55 60
        E 0 90 61 60
        E 120 80 55 00
        E 0 80 61 00
        E 120 90 61 60
        E 120 80 61 00
        E 120 80 74 00
        E 0 90 3c 60
        E 0 90 48 60
        E 0 90 54 60
        E 0 90 60 60
        E 120 80 3c 00
        E 0 80 48 00
        E 0 80 54 00
        E 0 80 60 00
        E 120 90 60 60
        E 120 80 60 00
        E 120 90 56 60
        E 0 90 62 60
        E 120 80 56 00
        E 0 80 62 00
        E 120 90 63 60
        E 120 80 63 00
        E 120 90 4a 60
        E 0 90 56 60
        E 0 90 62 60
        E 120 80 4a 00
        E 0 80 56 00
        E 0 80 62 00
        E 120 90 64 60
        E 120 80 64 00
        E 120 90 54 60
        E 0 90 60 60
        E 120 80 54 00
        E 0 80 60 00
        E 120 90 60 60
        E 120 80 60 00
        E 120 90 3c 60
        E 0 90 48 60
        E 0 90 54 60
        E 0 90 60 60
        E 120 80 3c 00
        E 0 80 48 00
        E 0 80 54 00
        E 0 80 60 00
        E 120 90 60 60
        E 120 80 60 00
        E 120 90 56 60
        E 0 90 62 60
        E 120 80 56 00
        E 0 80 62 00
        E 120 90 63 60
        E 120 80 63 00
        E 120 90 4a 60
        E 0 90 56 60
        E 0 90 62 60
        E 120 80 4a 00
        E 0 80 56 00
        E 0 80 62 00
        E 120 90 64 60
        E 120 80 64 00
        E 120 90 54 60
        E 0 90 60 60
        E 120 80 54 00
        E 0 80 60 00
        E 120 90 60 60
        E 120 80 28 00
        E 0 80 60 00
        E 120 90 2d 60
        E 0 90 3d 60
        E 0 90 49 60
        E 0 90 55 60
        E 0 90 61 60
        E 120 80 3d 00
        E 0 80 49 00
        E 0 80 55 00
        E 0 80 61 00
        E 120 90 61 60
        E 120 80 2d 00
        E 0 80 61 00
        E 120 90 28 60
        E 0 90 56 60
        E 0 90 62 60
        E 120 80 56 00
        E 0 80 62 00
        E 120 90 63 60
        E 120 80 63 00
        E 120 90 4a 60
        E 0 90 56 60
        E 0 90 62 60
        E 120 80 4a 00
        E 0 80 56 00
        E 0 80 62 00
        E 120 90 64 60
        E 120 80 28 00
        E 0 80 64 00
        E 120 90 2d 60
        E 0 90 55 60
        E 0 90 61 60
        E 120 80 55 00
        E 0 80 61 00
        E 120 90 61 60
        E 120 80 61 00
        E 120 90 3d 60
        E 0 90 49 60
        E 0 90 55 60
        E 0 90 61 60
        E 120 80 3d 00
        E 0 80 49 00
        E 0 80 55 00
        E 0 80 61 00
        E 120 90 61 60
        E 120 80 2d 00
        E 0 80 61 00
        E 120 90 28 60
        E 0 90 56 60
        E 0 90 62 60
        E 120 80 56 00
        E 0 80 62 00
        E 120 90 63 60
        E 120 80 63 00
        E 120 90 4a 60
        E 0 90 56 60
        E 0 90 62 60
        E 120 80 4a 00
        E 0 80 56 00
        E 0 80 62 00
        E 120 90 64 60
        E 120 80 28 00
        E 0 80 64 00
        E 120 90 2d 60
        E 0 90 55 60
        E 0 90 61 60
        E 120 80 55 00
        E 0 80 61 00
        E 120 90 61 60
        E 120 80 2d 00
        E 0 80 61 00
        E 120 90 2d 60
        E 0 90 3c 60
        E 0 90 48 60
        E 0 90 54 60
        E 0 90 60 60
        E 120 80 3c 00
        E 0 80 48 00
        E 0 80 54 00
        E 0 80 60 00
        E 120 90 60 60
        E 120 80 2d 00
        E 0 80 60 00
        E 120 90 28 60
        E 0 90 56 60
        E 0 90 62 60
        E 120 80 56 00
        E 0 80 62 00
        E 120 90 63 60
        E 120 80 63 00
        E 120 90 4a 60
        E 0 90 56 60
        E 0 90 62 60
        E 120 80 4a 00
        E 0 80 56 00
        E 0 80 62 00
        E 120 90 64 60
        E 120 80 28 00
        E 0 80 64 00
        E 120 90 2d 60
        E 0 90 54 60
        E 0 90 60 60
        E 120 80 54 00
        E 0 80 60 00
        E 120 90 60 60
        E 120 80 60 00
        E 120 90 3c 60
        E 0 90 48 60
        E 0 90 54 60
        E 0 90 60 60
        E 120 80 3c 00
        E 0 80 48 00
        E 0 80 54 00
        E 0 80 60 00
        E 120 90 60 60
        E 120 80 2d 00
        E 0 80 60 00
        E 120 90 28 60
        E 0 90 56 60
        E 0 90 62 60
        E 120 80 56 00
        E 0 80 62 00
        E 120 90 63 60
        E 120 80 63 00
        E 120 90 4a 60
        E 0 90 56 60
        E 0 90 62 60
        E 120 80 4a 00
        E 0 80 56 00
        E 0 80 62 00
        E 120 90 64 60
        E 120 80 28 00
        E 0 80 64 00
        E 120 90 2d 60
        E 0 90 54 60
        E 0 90 60 60
        E 120 80 54 00
        E 0 80 60 00
        E 120 90 60 60
        E 120 80 2d 00
        E 0 80 60 00
        E 120 90 28 60
        E 0 90 3d 60
        E 0 90 49 60
        E 0 90 55 60
        E 0 90 61 60
        E 120 80 3d 00
        E 0 80 49 00
        E 0 80 55 00
        E 0 80 61 00
        E 120 90 61 60
        E 120 80 61 00
        E 120 90 56 60
        E 0 90 62 60
        E 120 80 56 00
        E 0 80 62 00
        E 120 90 63 60
        E 120 80 63 00
        E 120 90 4a 60
        E 0 90 56 60
        E 0 90 62 60
        E 120 80 4a 00
        E 0 80 56 00
        E 0 80 62 00
        E 120 90 64 60
        E 120 80 64 00
        E 120 90 55 60
        E 0 90 61 60
        E 120 80 55 00
        E 0 80 61 00
        E 120 90 61 60
        E 120 80 61 00
        E 120 90 3d 60
        E 0 90 49 60
        E 0 90 55 60
        E 0 90 61 60
        E 120 80 3d 00
        E 0 80 49 00
        E 0 80 55 00
        E 0 80 61 00
        E 120 90 61 60
        E 120 80 61 00
        E 120 90 56 60
        E 0 90 62 60
        E 120 80 56 00
        E 0 80 62 00
        E 120 90 63 60
        E 120 80 63 00
        E 120 90 4a 60
        E 0 90 56 60
        E 0 90 62 60
        E 120 80 4a 00
        E 0 80 56 00
        E 0 80 62 00
        E 120 90 64 60
        E 120 80 64 00
        E 120 90 55 60
        E 0 90 61 60
        E 120 80 55 00
        E 0 80 61 00
        E 120 90 61 60
        E 120 80 61 00
        E 120 90 3c 60
        E 0 90 48 60
        E 0 90 54 60
        E 0 90 60 60
        E 120 80 3c 00
        E 0 80 48 00
        E 0 80 54 00
        E 0 80 60 00
        E 120 90 60 60
        E 120 80 60 00
        E 120 90 56 60
        E 0 90 62 60
        E 120 80 56 00
        E 0 80 62 00
        E 120 90 63 60
        E 120 80 63 00
        E 120 90 4a 60
        E 0 90 56 60
        E 0 90 62 60
        E 120 80 4a 00
        E 0 80 56 00
        E 0 80 62 00
        E 120 90 64 60
        E 120 80 64 00
        E 120 90 54 60
        E 0 90 60 60
        E 120 80 54 00
        E 0 80 60 00
        E 120 90 60 60
        E 120 80 60 00
        E 120 90 3c 60
        E 0 90 48 60
        E 0 90 54 60
        E 0 90 60 60
        E 120 80 3c 00
        E 0 80 48 00
        E 0 80 54 00
        E 0 80 60 00
        E 120 90 60 60
        E 120 80 60 00
        E 120 90 56 60
        E 0 90 62 60
        E 120 80 56 00
        E 0 80 62 00
        E 120 90 63 60
        E 120 80 63 00
        E 120 90 4a 60
        E 0 90 56 60
        E 0 90 62 60
        E 120 80 4a 00
        E 0 80 56 00
        E 0 80 62 00
        E 120 90 64 60
        E 120 80 64 00
        E 120 90 54 60
        E 0 90 60 60
        E 120 80 54 00
        E 0 80 60 00
        E 120 90 60 60
        E 120 80 28 00
        E 0 80 60 00
        E 120 90 2b 60
        E 0 90 3d 60
        E 0 90 49 60
        E 0 90 55 60
        E 0 90 61 60
        E 120 80 3d 00
        E 0 80 49 00
        E 0 80 55 00
        E 0 80 61 00
        E 120 90 60 60
        E 120 80 60 00
        E 120 90 55 60
        E 0 90 61 60
        E 120 80 55 00
        E 0 80 61 00
        E 120 90 60 60
        E 120 80 60 00
        E 120 90 49 60
        E 0 90 55 60
        E 0 90 61 60
        E 120 80 49 00
        E 0 80 55 00
        E 0 80 61 00
        E 120 90 60 60
        E 120 80 60 00
        E 120 90 55 60
        E 0 90 61 60
        E 120 80 55 00
        E 0 80 61 00
        E 120 90 62 60
        E 120 80 2b 00
        E 0 80 62 00
        E 120 90 28 60
        E 0 90 3e 60
        E 0 90 4b 60
        E 0 90 57 60
        E 0 90 63 60
        E 120 80 3e 00
        E 0 80 4b 00
        E 0 80 57 00
        E 0 80 63 00
        E 120 90 64 60
        E 120 80 64 00
        E 120 90 57 60
        E 0 90 63 60
        E 120 80 57 00
        E 0 80 63 00
        E 120 90 62 60
        E 120 80 62 00
        E 120 90 49 60
        E 0 90 55 60
        E 0 90 61 60
        E 120 80 49 00
        E 0 80 55 00
        E 0 80 61 00
        E 120 90 62 60
        E 120 80 62 00
        E 120 90 57 60
        E 0 90 63 60
        E 120 80 57 00
        E 0 80 63 00
        E 120 90 64 60
        E 120 80 28 00
        E 0 80 64 00
        E 120 90 2b 60
        E 0 90 3d 60
        E 0 90 49 60
        E 0 90 55 60
        E 0 90 61 60
        E 120 80 3d 00
        E 0 80 49 00
        E 0 80 55 00
        E 0 80 61 00
        E 120 90 60 60
        E 120 80 60 00
        E 120 90 55 60
        E 0 90 61 60
        E 120 80 55 00
        E 0 80 61 00
        E 120 90 60 60
        E 120 80 60 00
        E 120 90 49 60
        E 0 90 55 60
        E 0 90 61 60
        E 120 80 49 00
        E 0 80 55 00
        E 0 80 61 00
        E 120 90 60 60
        E 120 80 60 00
        E 120 90 55 60
        E 0 90 61 60
        E 120 80 55 00
        E 0 80 61 00
        E 120 90 62 60
        E 120 80 2b 00
        E 0 80 62 00
        E 120 90 28 60
        E 0 90 3e 60
        E 0 90 4b 60
        E 0 90 57 60
        E 0 90 63 60
        E 120 80 3e 00
        E 0 80 4b 00
        E 0 80 57 00
        E 0 80 63 00
        E 120 90 64 60
        E 120 80 64 00
        E 120 90 57 60
        E 0 90 63 60
        E 120 80 57 00
        E 0 80 63 00
        E 120 90 62 60
        E 120 80 62 00
        E 120 90 49 60
        E 0 90 55 60
        E 0 90 61 60
        E 120 80 49 00
        E 0 80 55 00
        E 0 80 61 00
        E 120 90 62 60
        E 120 80 62 00
        E 120 90 57 60
        E 0 90 63 60
        E 120 80 57 00
        E 0 80 63 00
        E 120 90 64 60
        E 120 80 64 00
        <X 480 0
          /wFbaWRsZV0=
        >
        <X 6840 0
          /wFbcGxheV0=
        >
        E 360 80 28 00
        E 120 90 2d 60
        E 0 90 3d 60
        E 0 90 49 60
        E 0 90 55 60
        E 0 90 61 60
        E 120 80 3d 00
        E 0 80 49 00
        E 0 80 55 00
        E 0 80 61 00
        E 120 90 61 60
        E 120 80 2d 00
        E 0 80 61 00
        E 120 90 28 60
        E 0 90 56 60
        E 0 90 62 60
        E 120 80 56 00
        E 0 80 62 00
        E 120 90 63 60
        E 120 80 63 00
        E 120 90 4a 60
        E 0 90 56 60
        E 0 90 62 60
        E 120 80 4a 00
        E 0 80 56 00
        E 0 80 62 00
        E 120 90 64 60
        E 120 80 28 00
        E 0 80 64 00
        E 120 90 2d 60
        E 0 90 55 60
        E 0 90 61 60
        E 120 80 55 00
        E 0 80 61 00
        E 120 90 61 60
        E 120 80 61 00
        E 120 90 3d 60
        E 0 90 49 60
        E 0 90 55 60
        E 0 90 61 60
        E 120 80 3d 00
        E 0 80 49 00
        E 0 80 55 00
        E 0 80 61 00
        E 120 90 61 60
        E 120 80 2d 00
        E 0 80 61 00
        E 120 90 28 60
        E 0 90 56 60
        E 0 90 62 60
        E 120 80 56 00
        E 0 80 62 00
        E 120 90 63 60
        E 120 80 63 00
        E 120 90 4a 60
        E 0 90 56 60
        E 0 90 62 60
        E 120 80 4a 00
        E 0 80 56 00
        E 0 80 62 00
        E 120 90 64 60
        E 120 80 28 00
        E 0 80 64 00
        E 120 90 2d 60
        E 0 90 55 60
        E 0 90 61 60
        E 120 80 55 00
        E 0 80 61 00
        E 120 90 61 60
        E 120 80 2d 00
        E 0 80 61 00
        E 120 90 2d 60
        E 0 90 3c 60
        E 0 90 48 60
        E 0 90 54 60
        E 0 90 60 60
        E 120 80 3c 00
        E 0 80 48 00
        E 0 80 54 00
        E 0 80 60 00
        E 120 90 60 60
        E 120 80 2d 00
        E 0 80 60 00
        E 120 90 28 60
        E 0 90 56 60
        E 0 90 62 60
        E 120 80 56 00
        E 0 80 62 00
        E 120 90 63 60
        E 120 80 63 00
        E 120 90 4a 60
        E 0 90 56 60
        E 0 90 62 60
        E 120 80 4a 00
        E 0 80 56 00
        E 0 80 62 00
        E 120 90 64 60
        E 120 80 28 00
        E 0 80 64 00
        E 120 90 2d 60
        E 0 90 54 60
        E 0 90 60 60
        E 120 80 54 00
        E 0 80 60 00
        E 120 90 60 60
        E 120 80 60 00
        E 120 90 3c 60
        E 0 90 48 60
        E 0 90 54 60
        E 0 90 60 60
        E 120 80 3c 00
        E 0 80 48 00
        E 0 80 54 00
        E 0 80 60 00
        E 120 90 60 60
        E 120 80 2d 00
        E 0 80 60 00
        E 120 90 28 60
        E 0 90 56 60
        E 0 90 62 60
        E 120 80 56 00
        E 0 80 62 00
        E 120 90 63 60
        E 120 80 63 00
        E 120 90 4a 60
        E 0 90 56 60
        E 0 90 62 60
        E 120 80 4a 00
        E 0 80 56 00
        E 0 80 62 00
        E 120 90 64 60
        E 120 80 28 00
        E 0 80 64 00
        E 120 90 2d 60
        E 0 90 54 60
        E 0 90 60 60
        E 120 80 54 00
        E 0 80 60 00
        E 120 90 60 60
        E 120 80 2d 00
        E 0 80 60 00
        E 120 90 28 60
        E 0 90 3d 60
        E 0 90 49 60
        E 0 90 55 60
        E 0 90 61 60
        E 0 90 74 60
        E 120 80 3d 00
        E 0 80 49 00
        E 0 80 55 00
        E 0 80 61 00
        E 120 90 61 60
        E 120 80 61 00
        E 120 90 56 60
        E 0 90 62 60
        E 120 80 56 00
        E 0 80 62 00
        E 120 90 63 60
        E 120 80 63 00
        E 120 90 4a 60
        E 0 90 56 60
        E 0 90 62 60
        E 120 80 4a 00
        E 0 80 56 00
        E 0 80 62 00
        E 120 90 64 60
        E 120 80 64 00
        E 120 90 55 60
        E 0 90 61 60
        E 120 80 55 00
        E 0 80 61 00
        E 120 90 61 60
        E 120 80 61 00
        E 120 90 3d 60
        E 0 90 49 60
        E 0 90 55 60
        E 0 90 61 60
        E 120 80 3d 00
        E 0 80 49 00
        E 0 80 55 00
        E 0 80 61 00
        E 120 90 61 60
        E 120 80 61 00
        E 120 90 56 60
        E 0 90 62 60
        E 120 80 56 00
        E 0 80 62 00
        E 120 90 63 60
        E 120 80 63 00
        E 120 90 4a 60
        E 0 90 56 60
        E 0 90 62 60
        E 120 80 4a 00
        E 0 80 56 00
        E 0 80 62 00
        E 120 90 64 60
        E 120 80 64 00
        E 120 90 55 60
        E 0 90 61 60
        E 120 80 55 00
        E 0 80 61 00
        E 120 90 61 60
        E 120 80 61 00
        E 120 80 74 00
        E 0 90 3c 60
        E 0 90 48 60
        E 0 90 54 60
        E 0 90 60 60
        E 120 80 3c 00
        E 0 80 48 00
        E 0 80 54 00
        E 0 80 60 00
        E 120 90 60 60
        E 120 80 60 00
        E 120 90 56 60
        E 0 90 62 60
        E 120 80 56 00
        E 0 80 62 00
        E 120 90 63 60
        E 120 80 63 00
        E 120 90 4a 60
        E 0 90 56 60
        E 0 90 62 60
        E 120 80 4a 00
        E 0 80 56 00
        E 0 80 62 00
        E 120 90 64 60
        E 120 80 64 00
        E 120 90 54 60
        E 0 90 60 60
        E 120 80 54 00
        E 0 80 60 00
        E 120 90 60 60
        E 120 80 60 00
        E 120 90 3c 60
        E 0 90 48 60
        E 0 90 54 60
        E 0 90 60 60
        E 120 80 3c 00
        E 0 80 48 00
        E 0 80 54 00
        E 0 80 60 00
        E 120 90 60 60
        E 120 80 60 00
        E 120 90 56 60
        E 0 90 62 60
        E 120 80 56 00
        E 0 80 62 00
        E 120 90 63 60
        E 120 80 63 00
        E 120 90 4a 60
        E 0 90 56 60
        E 0 90 62 60
        E 120 80 4a 00
        E 0 80 56 00
        E 0 80 62 00
        E 120 90 64 60
        E 120 80 64 00
        E 120 90 54 60
        E 0 90 60 60
        E 120 80 54 00
        E 0 80 60 00
        E 120 90 60 60
        E 120 80 28 00
        E 0 80 60 00
        E 120 90 2d 60
        E 0 90 3d 60
        E 0 90 49 60
        E 0 90 55 60
        E 0 90 61 60
        E 120 80 3d 00
        E 0 80 49 00
        E 0 80 55 00
        E 0 80 61 00
        E 120 90 61 60
        E 120 80 2d 00
        E 0 80 61 00
        E 120 90 28 60
        E 0 90 56 60
        E 0 90 62 60
        E 120 80 56 00
        E 0 80 62 00
        E 120 90 63 60
        E 120 80 63 00
        E 120 90 4a 60
        E 0 90 56 60
        E 0 90 62 60
        E 120 80 4a 00
        E 0 80 56 00
        E 0 80 62 00
        E 120 90 64 60
        E 120 80 28 00
        E 0 80 64 00
        E 120 90 2d 60
        E 0 90 55 60
        E 0 90 61 60
        E 120 80 55 00
        E 0 80 61 00
        E 120 90 61 60
        E 120 80 61 00
        E 120 90 3d 60
        E 0 90 49 60
        E 0 90 55 60
        E 0 90 61 60
        E 120 80 3d 00
        E 0 80 49 00
        E 0 80 55 00
        E 0 80 61 00
        E 120 90 61 60
        E 120 80 2d 00
        E 0 80 61 00
        E 120 90 28 60
        E 0 90 56 60
        E 0 90 62 60
        E 120 80 56 00
        E 0 80 62 00
        E 120 90 63 60
        E 120 80 63 00
        E 120 90 4a 60
        E 0 90 56 60
        E 0 90 62 60
        E 120 80 4a 00
        E 0 80 56 00
        E 0 80 62 00
        E 120 90 64 60
        E 120 80 28 00
        E 0 80 64 00
        E 120 90 2d 60
        E 0 90 55 60
        E 0 90 61 60
        E 120 80 55 00
        E 0 80 61 00
        E 120 90 61 60
        E 120 80 2d 00
        E 0 80 61 00
        E 120 90 2d 60
        E 0 90 3c 60
        E 0 90 48 60
        E 0 90 54 60
        E 0 90 60 60
        E 120 80 3c 00
        E 0 80 48 00
        E 0 80 54 00
        E 0 80 60 00
        E 120 90 60 60
        E 120 80 2d 00
        E 0 80 60 00
        E 120 90 28 60
        E 0 90 56 60
        E 0 90 62 60
        E 120 80 56 00
        E 0 80 62 00
        E 120 90 63 60
        E 120 80 63 00
        E 120 90 4a 60
        E 0 90 56 60
        E 0 90 62 60
        E 120 80 4a 00
        E 0 80 56 00
        E 0 80 62 00
        E 120 90 64 60
        E 120 80 28 00
        E 0 80 64 00
        E 120 90 2d 60
        E 0 90 54 60
        E 0 90 60 60
        E 120 80 54 00
        E 0 80 60 00
        E 120 90 60 60
        E 120 80 60 00
        E 120 90 3c 60
        E 0 90 48 60
        E 0 90 54 60
        E 0 90 60 60
        E 120 80 3c 00
        E 0 80 48 00
        E 0 80 54 00
        E 0 80 60 00
        E 120 90 60 60
        E 120 80 2d 00
        E 0 80 60 00
        E 120 90 28 60
        E 0 90 56 60
        E 0 90 62 60
        E 120 80 56 00
        E 0 80 62 00
        E 120 90 63 60
        E 120 80 63 00
        E 120 90 4a 60
        E 0 90 56 60
        E 0 90 62 60
        E 120 80 4a 00
        E 0 80 56 00
        E 0 80 62 00
        E 120 90 64 60
        E 120 80 28 00
        E 0 80 64 00
        E 120 90 2d 60
        E 0 90 54 60
        E 0 90 60 60
        E 120 80 54 00
        E 0 80 60 00
        E 120 90 60 60
        E 120 80 2d 00
        E 0 80 60 00
        E 120 90 28 60
        E 0 90 3d 60
        E 0 90 49 60
        E 0 90 55 60
        E 0 90 61 60
        E 120 80 3d 00
        E 0 80 49 00
        E 0 80 55 00
        E 0 80 61 00
        E 120 90 61 60
        E 120 80 61 00
        E 120 90 56 60
        E 0 90 62 60
        E 120 80 56 00
        E 0 80 62 00
        E 120 90 63 60
        E 120 80 63 00
        E 120 90 4a 60
        E 0 90 56 60
        E 0 90 62 60
        E 120 80 4a 00
        E 0 80 56 00
        E 0 80 62 00
        E 120 90 64 60
        E 120 80 64 00
        E 120 90 55 60
        E 0 90 61 60
        E 120 80 55 00
        E 0 80 61 00
        E 120 90 61 60
        E 120 80 61 00
        E 120 90 3d 60
        E 0 90 49 60
        E 0 90 55 60
        E 0 90 61 60
        E 120 80 3d 00
        E 0 80 49 00
        E 0 80 55 00
        E 0 80 61 00
        E 120 90 61 60
        E 120 80 61 00
        E 120 90 56 60
        E 0 90 62 60
        E 120 80 56 00
        E 0 80 62 00
        E 120 90 63 60
        E 120 80 63 00
        E 120 90 4a 60
        E 0 90 56 60
        E 0 90 62 60
        E 120 80 4a 00
        E 0 80 56 00
        E 0 80 62 00
        E 120 90 64 60
        E 120 80 64 00
        E 120 90 55 60
        E 0 90 61 60
        E 120 80 55 00
        E 0 80 61 00
        E 120 90 61 60
        E 120 80 61 00
        E 120 90 3c 60
        E 0 90 48 60
        E 0 90 54 60
        E 0 90 60 60
        E 120 80 3c 00
        E 0 80 48 00
        E 0 80 54 00
        E 0 80 60 00
        E 120 90 60 60
        E 120 80 60 00
        E 120 90 56 60
        E 0 90 62 60
        E 120 80 56 00
        E 0 80 62 00
        E 120 90 63 60
        E 120 80 63 00
        E 120 90 4a 60
        E 0 90 56 60
        E 0 90 62 60
        E 120 80 4a 00
        E 0 80 56 00
        E 0 80 62 00
        E 120 90 64 60
        E 120 80 64 00
        E 120 90 54 60
        E 0 90 60 60
        E 120 80 54 00
        E 0 80 60 00
        E 120 90 60 60
        E 120 80 60 00
        E 120 90 3c 60
        E 0 90 48 60
        E 0 90 54 60
        E 0 90 60 60
        E 120 80 3c 00
        E 0 80 48 00
        E 0 80 54 00
        E 0 80 60 00
        E 120 90 60 60
        E 120 80 60 00
        E 120 90 56 60
        E 0 90 62 60
        E 120 80 56 00
        E 0 80 62 00
        E 120 90 63 60
        E 120 80 63 00
        E 120 90 4a 60
        E 0 90 56 60
        E 0 90 62 60
        E 120 80 4a 00
        E 0 80 56 00
        E 0 80 62 00
        E 120 90 64 60
        E 120 80 64 00
        E 120 90 54 60
        E 0 90 60 60
        E 120 80 54 00
        E 0 80 60 00
        E 120 90 60 60
        E 120 80 28 00
        E 0 80 60 00
        E 120 90 2b 60
        E 0 90 3d 60
        E 0 90 49 60
        E 0 90 55 60
        E 0 90 61 60
        E 120 80 3d 00
        E 0 80 49 00
        E 0 80 55 00
        E 0 80 61 00
        E 120 90 60 60
        E 120 80 60 00
        E 120 90 55 60
        E 0 90 61 60
        E 120 80 55 00
        E 0 80 61 00
        E 120 90 60 60
        E 120 80 60 00
        E 120 90 49 60
        E 0 90 55 60
        E 0 90 61 60
        E 120 80 49 00
        E 0 80 55 00
        E 0 80 61 00
        E 120 90 60 60
        E 120 80 60 00
        E 120 90 55 60
        E 0 90 61 60
        E 120 80 55 00
        E 0 80 61 00
        E 120 90 62 60
        E 120 80 2b 00
        E 0 80 62 00
        E 120 90 28 60
        E 0 90 3e 60
        E 0 90 4b 60
        E 0 90 57 60
        E 0 90 63 60
        E 120 80 3e 00
        E 0 80 4b 00
        E 0 80 57 00
        E 0 80 63 00
        E 120 90 64 60
        E 120 80 64 00
        E 120 90 57 60
        E 0 90 63 60
        E 120 80 57 00
        E 0 80 63 00
        E 120 90 62 60
        E 120 80 62 00
        E 120 90 49 60
        E 0 90 55 60
        E 0 90 61 60
        E 120 80 49 00
        E 0 80 55 00
        E 0 80 61 00
        E 120 90 62 60
        E 120 80 62 00
        E 120 90 57 60
        E 0 90 63 60
        E 120 80 57 00
        E 0 80 63 00
        E 120 90 64 60
        E 120 80 28 00
        E 0 80 64 00
        E 120 90 2b 60
        E 0 90 3d 60
        E 0 90 49 60
        E 0 90 55 60
        E 0 90 61 60
        E 120 80 3d 00
        E 0 80 49 00
        E 0 80 55 00
        E 0 80 61 00
        E 120 90 60 60
        E 120 80 60 00
        E 120 90 55 60
        E 0 90 61 60
        E 120 80 55 00
        E 0 80 61 00
        E 120 90 60 60
        E 120 80 60 00
        E 120 90 49 60
        E 0 90 55 60
        E 0 90 61 60
        E 120 80 49 00
        E 0 80 55 00
        E 0 80 61 00
        E 120 90 60 60
        E 120 80 60 00
        E 120 90 55 60
        E 0 90 61 60
        E 120 80 55 00
        E 0 80 61 00
        E 120 90 62 60
        E 120 80 2b 00
        E 0 80 62 00
        E 120 90 28 60
        E 0 90 3e 60
        E 0 90 4b 60
        E 0 90 57 60
        E 0 90 63 60
        E 120 80 28 00
        E 0 80 3e 00
        E 0 80 4b 00
        E 0 80 57 00
        E 0 80 63 00
        E 120 90 64 60
        E 120 80 64 00
        E 120 90 57 60
        E 0 90 63 60
        E 120 80 57 00
        E 0 80 63 00
        E 120 90 62 60
        E 120 80 62 00
        E 120 90 49 60
        E 0 90 55 60
        E 0 90 61 60
        E 120 80 49 00
        E 0 80 55 00
        E 0 80 61 00
        E 120 90 62 60
        E 120 80 62 00
        E 120 90 57 60
        E 0 90 63 60
        E 120 80 57 00
        E 0 80 63 00
        E 120 90 64 60
        E 120 80 64 00
        <X 480 0
          /wFbaWRsZV9yZWFsdGltZV0=
        >
        E 11160 b0 7b 00
        GUID {2587790E-D3C0-4C72-A89C-FE7830D3CC30}
        IGNTEMPO 0 120.00000000 4 4
        SRCCOLOR 8
        VELLANE 132 128 60
        COLORMAP "C:\Program Files\REAPER (x64)\Data\color_maps\rockband_guitarbass.png"
        CFGEDITVIEW -10109.492431 10.396993 0 14 0 0 0
        CFGEDIT 1 1 0 1 1 0 1 1 1 1 1 0.25000000 -8 -8 1544 872 0 2 1 1 0.00000000 0 1 0 0 0.500000 0 0 1.000000 64
        KEYSNAP 0 6 "102030050700" 0 "Pentatonic"
        EVTFILTER 0 -1 -1 -1 -1 0 1 0 0 -1.00000000 -1.00000000
      >
    >
  >
  <TRACK '{1A8F0638-A867-4CF7-B2E3-AFDB25FAFDEF}'
    NAME "guitar"
    PEAKCOL 16576
    BEAT -1
    AUTOMODE 0
    VOLPAN 1.00000000000000 0.00000000000000 -1.00000000000000 -1.00000000000000 1.00000000000000
    MUTESOLO 0 0 0
    IPHASE 0
    ISBUS 2 -1
    BUSCOMP 0 0
    SHOWINMIX 1 0.666700 0.500000 1 0.500000 -1 -1 -1
    FREEMODE 0
    SEL 0
    REC 0 0 0 0 0 0 0
    VU 2
    TRACKHEIGHT 0 0
    INQ 0 0 0 0.5000000000 100 0 0 100
    NCHAN 2
    FX 1
    TRACKID {1A8F0638-A867-4CF7-B2E3-AFDB25FAFDEF}
    PERF 0
    MIDIOUT -1
    MAINSEND 1 0
    <ITEM
      POSITION 0.00000000000000
      SNAPOFFS 0.00000000000000
      LENGTH 108.01200133348151
      LOOP 0
      ALLTAKES 0
      SEL 0
      FADEIN 1 0.000000 0.000000 1 0
      FADEOUT 1 0.000000 0.000000 1 0
      MUTE 0
      IGUID {AF839839-7C8B-40A1-8822-B4D9CAFDFF37}
      IID 15
      NAME "guitar.wav"
      VOLPAN 1.000000 0.000000 1.000000 -1.000000
      SOFFS 0.00000000000000
      PLAYRATE 1.00000000000000 1 0.00000000000000 -1
      CHANMODE 0
      GUID {ED542D2D-1B19-4548-8F73-712AF209D6C9}
      <SOURCE WAVE
        FILE "wav\guitar.wav"
      >
    >
  >
  <TRACK '{2BF8BE50-959E-4BFA-A0E9-E3FF71E22C17}'
    NAME "PART KEYS"
    PEAKCOL 16576
    BEAT -1
    AUTOMODE 0
    VOLPAN 1.00000000000000 0.00000000000000 -1.00000000000000 -1.00000000000000 1.00000000000000
    MUTESOLO 0 0 0
    IPHASE 0
    ISBUS 1 1
    BUSCOMP 0 0
    SHOWINMIX 1 0.666700 0.500000 1 0.500000 -1 -1 -1
    FREEMODE 0
    SEL 0
    REC 0 0 0 0 0 0 0
    VU 2
    TRACKHEIGHT 0 0
    INQ 0 0 0 0.5000000000 100 0 0 100
    NCHAN 2
    FX 1
    TRACKID {2BF8BE50-959E-4BFA-A0E9-E3FF71E22C17}
    PERF 0
    MIDIOUT -1
    <MIDINOTENAMES
      0 127 "TRILL MARKER"
      0 125 "---"
      0 124 "BRE"
      0 123 "BRE"
      0 122 "BRE"
      0 121 "BRE"
      0 120 "BRE (use all 5)"
      0 119 "----"
      0 116 "OVERDRIVE"
      0 115 "----"
      0 103 "Solo Marker"
      0 102 "Force HOPO Off"
      0 101 "Force HOPO On"
      0 100 "EXPERT Orange"
      0 99 "EXPERT Blue"
      0 98 "EXPERT Yellow"
      0 97 "EXPERT Red"
      0 96 "EXPERT Green"
      0 95 "----"
      0 90 "Force HOPO Off"
      0 89 "Force HOPO On"
      0 88 "HARD Orange"
      0 87 "HARD Blue"
      0 86 "HARD Yellow"
      0 85 "HARD Red"
      0 84 "HARD Green"
      0 77 "----"
      0 76 "MEDIUM Orange"
      0 75 "MEDIUM Blue"
      0 74 "MEDIUM Yellow"
      0 73 "MEDIUM Red"
      0 72 "MEDIUM Green"
      0 65 "----"
      0 64 "EASY Orange"
      0 63 "EASY Blue"
      0 62 "EASY Yellow"
      0 61 "EASY Red"
      0 60 "EASY Green"
    >
    MAINSEND 1 0
    <FXCHAIN
      WNDRECT 0 43 891 559
      SHOW 0
      LASTSEL 0
      DOCKED 0
      BYPASS 0 0
      <VST "VSTi: RBN Preview (RBN)" "rbprev_vst64.dll" 0 ""
        dnBicu5e7f4AAAAAAgAAAAEAAAAAAAAAAgAAAAAAAAAEAAAAAQAAAA==
        AAAQAAMA+gAAABAAAAA=
      >
      FLOATPOS 0 0 0 0
      FXID {FB86C7E5-7803-4E93-B760-F6D1A763573F}
      WAK 0
    >
    <ITEM
      POSITION 0.00000000000000
      SNAPOFFS 0.00000000000000
      LENGTH 108.01200133348151
      LOOP 0
      ALLTAKES 0
      SEL 0
      FADEIN 1 0.000000 0.000000 1 0
      FADEOUT 1 0.000000 0.000000 1 0
      MUTE 0
      IGUID {34239EF1-621B-464D-8077-4D08681A6508}
      IID 19
      NAME "PART KEYS"
      VOLPAN 1.000000 0.000000 1.000000 -1.000000
      SOFFS 0.00000000000000 0.00000000000000
      PLAYRATE 1.00000000000000 1 0.00000000000000 -1
      CHANMODE 0
      GUID {1EB13429-C215-4AE7-A593-0970ACC613A3}
      <SOURCE MIDI
        HASDATA 1 480 QN
        POOLEDEVTS {D65BF2DA-A353-495F-B0ED-2E9F1980C71E}
        <X 0 0
          /wNQQVJUIEtFWVM=
        >
        <X 3840 0
          /wFbaWRsZV0=
        >
        <X 1920 0
          /wFbcGxheV0=
        >
        E 240 90 61 60
        E 120 80 61 00
        E 120 90 56 60
        E 0 90 62 60
        E 120 80 56 00
        E 0 80 62 00
        E 120 90 61 60
        E 120 80 61 00
        E 120 90 3e 60
        E 0 90 4b 60
        E 0 90 57 60
        E 0 90 63 60
        E 120 80 3e 00
        E 0 80 4b 00
        E 0 80 57 00
        E 0 80 63 00
        E 120 90 61 60
        E 120 80 61 00
        E 120 90 58 60
        E 0 90 64 60
        E 120 80 58 00
        E 0 80 64 00
        E 120 90 61 60
        E 120 80 61 00
        E 360 90 61 60
        E 120 80 61 00
        E 120 90 56 60
        E 0 90 62 60
        E 120 80 56 00
        E 0 80 62 00
        E 120 90 61 60
        E 120 80 61 00
        E 120 90 3e 60
        E 0 90 4b 60
        E 0 90 57 60
        E 0 90 63 60
        E 120 80 3e 00
        E 0 80 4b 00
        E 0 80 57 00
        E 0 80 63 00
        E 120 90 61 60
        E 120 80 61 00
        E 120 90 58 60
        E 0 90 64 60
        E 120 80 58 00
        E 0 80 64 00
        E 120 90 61 60
        E 120 80 61 00
        E 360 90 61 60
        E 120 80 61 00
        E 120 90 56 60
        E 0 90 62 60
        E 120 80 56 00
        E 0 80 62 00
        E 120 90 61 60
        E 120 80 61 00
        E 120 90 3e 60
        E 0 90 4b 60
        E 0 90 57 60
        E 0 90 63 60
        E 120 80 3e 00
        E 0 80 4b 00
        E 0 80 57 00
        E 0 80 63 00
        E 120 90 61 60
        E 120 80 61 00
        E 120 90 58 60
        E 0 90 64 60
        E 120 80 58 00
        E 0 80 64 00
        E 120 90 61 60
        E 120 80 61 00
        E 120 90 74 60
        E 240 90 63 60
        E 120 80 63 00
        E 120 90 56 60
        E 0 90 62 60
        E 120 80 56 00
        E 0 80 62 00
        E 120 90 61 60
        E 120 80 61 00
        E 120 90 3d 60
        E 0 90 48 60
        E 0 90 54 60
        E 0 90 60 60
        E 120 80 3d 00
        E 0 80 48 00
        E 0 80 54 00
        E 0 80 60 00
        E 120 90 64 60
        E 120 80 64 00
        E 120 90 57 60
        E 0 90 63 60
        E 120 80 57 00
        E 0 80 63 00
        E 120 90 62 60
        E 120 80 62 00
        E 120 80 74 00
        E 0 90 3c 60
        E 0 90 48 60
        E 0 90 54 60
        E 0 90 60 60
        E 120 80 3c 00
        E 0 80 48 00
        E 0 80 54 00
        E 0 80 60 00
        E 240 90 60 60
        E 120 80 60 00
        E 240 90 60 60
        E 120 80 60 00
        E 120 90 48 60
        E 0 90 54 60
        E 0 90 60 60
        E 120 80 48 00
        E 0 80 54 00
        E 0 80 60 00
        E 360 90 57 60
        E 0 90 63 60
        E 120 80 57 00
        E 0 80 63 00
        E 360 90 3e 60
        E 0 90 4b 60
        E 0 90 58 60
        E 0 90 64 60
        E 120 80 3e 00
        E 0 80 4b 00
        E 0 80 58 00
        E 0 80 64 00
        E 240 90 64 60
        E 120 80 64 00
        E 240 90 64 60
        E 120 80 64 00
        E 120 90 4b 60
        E 0 90 58 60
        E 0 90 64 60
        E 120 80 4b 00
        E 0 80 58 00
        E 0 80 64 00
        E 360 90 57 60
        E 0 90 63 60
        E 120 80 57 00
        E 0 80 63 00
        E 360 90 3e 60
        E 0 90 4a 60
        E 0 90 56 60
        E 0 90 62 60
        E 120 80 3e 00
        E 0 80 4a 00
        E 0 80 56 00
        E 0 80 62 00
        E 240 90 62 60
        E 120 80 62 00
        E 240 90 62 60
        E 120 80 62 00
        E 120 90 4a 60
        E 0 90 56 60
        E 0 90 62 60
        E 120 80 4a 00
        E 0 80 56 00
        E 0 80 62 00
        E 360 90 55 60
        E 0 90 61 60
        E 120 80 55 00
        E 0 80 61 00
        E 360 90 3e 60
        E 0 90 4b 60
        E 0 90 58 60
        E 0 90 64 60
        E 120 80 3e 00
        E 0 80 4b 00
        E 0 80 58 00
        E 0 80 64 00
        E 240 90 64 60
        E 120 80 64 00
        E 240 90 64 60
        E 120 80 64 00
        E 120 90 4b 60
        E 0 90 58 60
        E 0 90 64 60
        E 120 80 4b 00
        E 0 80 58 00
        E 0 80 64 00
        E 360 90 57 60
        E 0 90 63 60
        E 120 80 57 00
        E 0 80 63 00
        E 120 90 62 60
        E 120 80 62 00
        E 120 90 3d 60
        E 0 90 49 60
        E 0 90 55 60
        E 0 90 61 60
        E 120 80 3d 00
        E 0 80 49 00
        E 0 80 55 00
        E 0 80 61 00
        E 240 90 61 60
        E 120 80 61 00
        E 240 90 61 60
        E 120 80 61 00
        E 120 90 49 60
        E 0 90 55 60
        E 0 90 61 60
        E 120 80 49 00
        E 0 80 55 00
        E 0 80 61 00
        E 360 90 54 60
        E 0 90 60 60
        E 120 80 54 00
        E 0 80 60 00
        E 360 90 3d 60
        E 0 90 49 60
        E 0 90 55 60
        E 0 90 61 60
        E 120 80 3d 00
        E 0 80 49 00
        E 0 80 55 00
        E 0 80 61 00
        E 240 90 61 60
        E 120 80 61 00
        E 240 90 54 60
        E 0 90 60 60
        E 120 80 54 00
        E 0 80 60 00
        E 240 90 60 60
        E 120 80 60 00
        E 240 90 55 60
        E 0 90 61 60
        E 120 80 55 00
        E 0 80 61 00
        E 360 90 3e 60
        E 0 90 4b 60
        E 0 90 58 60
        E 0 90 64 60
        E 120 80 3e 00
        E 0 80 4b 00
        E 0 80 58 00
        E 0 80 64 00
        E 240 90 64 60
        E 120 80 64 00
        E 240 90 57 60
        E 0 90 63 60
        E 120 80 57 00
        E 0 80 63 00
        E 240 90 63 60
        E 120 80 63 00
        E 240 90 56 60
        E 0 90 62 60
        E 120 80 56 00
        E 0 80 62 00
        E 360 90 3e 60
        E 0 90 4b 60
        E 0 90 57 60
        E 0 90 63 60
        E 120 80 3e 00
        E 0 80 4b 00
        E 0 80 57 00
        E 0 80 63 00
        E 240 90 63 60
        E 120 80 63 00
        E 240 90 56 60
        E 0 90 62 60
        E 120 80 56 00
        E 0 80 62 00
        E 240 90 62 60
        E 120 80 62 00
        E 240 90 55 60
        E 0 90 61 60
        E 120 80 55 00
        E 0 80 61 00
        E 360 90 3c 60
        E 0 90 48 60
        E 0 90 54 60
        E 0 90 60 60
        E 120 80 3c 00
        E 0 80 48 00
        E 0 80 54 00
        E 0 80 60 00
        E 240 90 60 60
        E 120 80 60 00
        E 240 90 60 60
        E 120 80 60 00
        E 120 90 48 60
        E 0 90 54 60
        E 0 90 60 60
        E 120 80 48 00
        E 0 80 54 00
        E 0 80 60 00
        E 360 90 57 60
        E 0 90 63 60
        E 120 80 57 00
        E 0 80 63 00
        E 360 90 3e 60
        E 0 90 4b 60
        E 0 90 58 60
        E 0 90 64 60
        E 120 80 3e 00
        E 0 80 4b 00
        E 0 80 58 00
        E 0 80 64 00
        E 240 90 64 60
        E 120 80 64 00
        E 240 90 64 60
        E 120 80 64 00
        E 120 90 4b 60
        E 0 90 58 60
        E 0 90 64 60
        E 120 80 4b 00
        E 0 80 58 00
        E 0 80 64 00
        E 360 90 57 60
        E 0 90 63 60
        E 120 80 57 00
        E 0 80 63 00
        E 360 90 3e 60
        E 0 90 4a 60
        E 0 90 56 60
        E 0 90 62 60
        E 120 80 3e 00
        E 0 80 4a 00
        E 0 80 56 00
        E 0 80 62 00
        E 240 90 62 60
        E 120 80 62 00
        E 240 90 62 60
        E 120 80 62 00
        E 120 90 4a 60
        E 0 90 56 60
        E 0 90 62 60
        E 120 80 4a 00
        E 0 80 56 00
        E 0 80 62 00
        E 360 90 55 60
        E 0 90 61 60
        E 120 80 55 00
        E 0 80 61 00
        E 360 90 3e 60
        E 0 90 4b 60
        E 0 90 58 60
        E 0 90 64 60
        E 120 80 3e 00
        E 0 80 4b 00
        E 0 80 58 00
        E 0 80 64 00
        E 240 90 64 60
        E 120 80 64 00
        E 240 90 64 60
        E 120 80 64 00
        E 120 90 4b 60
        E 0 90 58 60
        E 0 90 64 60
        E 120 80 4b 00
        E 0 80 58 00
        E 0 80 64 00
        E 360 90 57 60
        E 0 90 63 60
        E 120 80 57 00
        E 0 80 63 00
        E 120 90 62 60
        E 120 80 62 00
        E 120 90 3d 60
        E 0 90 49 60
        E 0 90 55 60
        E 0 90 61 60
        E 120 80 3d 00
        E 0 80 49 00
        E 0 80 55 00
        E 0 80 61 00
        E 240 90 61 60
        E 120 80 61 00
        E 240 90 61 60
        E 120 80 61 00
        E 120 90 49 60
        E 0 90 55 60
        E 0 90 61 60
        E 120 80 49 00
        E 0 80 55 00
        E 0 80 61 00
        E 360 90 54 60
        E 0 90 60 60
        E 120 80 54 00
        E 0 80 60 00
        E 360 90 3d 60
        E 0 90 49 60
        E 0 90 55 60
        E 0 90 61 60
        E 120 80 3d 00
        E 0 80 49 00
        E 0 80 55 00
        E 0 80 61 00
        E 240 90 61 60
        E 120 80 61 00
        E 240 90 54 60
        E 0 90 60 60
        E 120 80 54 00
        E 0 80 60 00
        E 240 90 60 60
        E 120 80 60 00
        E 240 90 55 60
        E 0 90 61 60
        E 120 80 55 00
        E 0 80 61 00
        E 360 90 3e 60
        E 0 90 4b 60
        E 0 90 58 60
        E 0 90 64 60
        E 120 80 3e 00
        E 0 80 4b 00
        E 0 80 58 00
        E 0 80 64 00
        E 240 90 64 60
        E 120 80 64 00
        E 240 90 57 60
        E 0 90 63 60
        E 120 80 57 00
        E 0 80 63 00
        E 240 90 63 60
        E 120 80 63 00
        E 240 90 56 60
        E 0 90 62 60
        E 120 80 56 00
        E 0 80 62 00
        E 360 90 3e 60
        E 0 90 4b 60
        E 0 90 57 60
        E 0 90 63 60
        E 120 80 3e 00
        E 0 80 4b 00
        E 0 80 57 00
        E 0 80 63 00
        E 240 90 63 60
        E 120 80 63 00
        E 240 90 56 60
        E 0 90 62 60
        E 120 80 56 00
        E 0 80 62 00
        E 240 90 62 60
        E 120 80 62 00
        E 240 90 55 60
        E 0 90 61 60
        E 120 80 55 00
        E 0 80 61 00
        E 360 90 3c 60
        E 0 90 48 60
        E 0 90 54 60
        E 0 90 60 60
        E 0 90 74 60
        E 1200 80 3c 00
        E 0 80 48 00
        E 0 80 54 00
        E 120 80 60 00
        E 120 90 55 60
        E 0 90 61 60
        E 120 80 55 00
        E 0 80 61 00
        E 360 90 3e 60
        E 0 90 4a 60
        E 0 90 56 60
        E 0 90 62 60
        E 1200 80 3e 00
        E 0 80 4a 00
        E 0 80 56 00
        E 120 80 62 00
        E 120 90 55 60
        E 0 90 61 60
        E 120 80 55 00
        E 0 80 61 00
        E 360 90 3e 60
        E 0 90 4b 60
        E 0 90 57 60
        E 0 90 63 60
        E 1200 80 3e 00
        E 0 80 4b 00
        E 0 80 57 00
        E 120 80 63 00
        E 120 90 58 60
        E 0 90 64 60
        E 120 80 58 00
        E 0 80 64 00
        E 360 90 3d 60
        E 0 90 49 60
        E 0 90 55 60
        E 0 90 61 60
        E 120 80 3d 00
        E 0 80 49 00
        E 0 80 55 00
        E 0 80 61 00
        E 120 90 62 60
        E 120 80 62 00
        E 120 90 57 60
        E 0 90 63 60
        E 120 80 57 00
        E 0 80 63 00
        E 120 90 62 60
        E 120 80 62 00
        E 120 90 4b 60
        E 0 90 58 60
        E 0 90 64 60
        E 120 80 4b 00
        E 0 80 58 00
        E 0 80 64 00
        E 120 90 63 60
        E 120 80 63 00
        E 120 90 56 60
        E 0 90 62 60
        E 120 80 56 00
        E 0 80 62 00
        E 120 90 61 60
        E 120 80 61 00
        E 120 80 74 00
        E 240 90 61 60
        E 120 80 61 00
        E 120 90 56 60
        E 0 90 62 60
        E 120 80 56 00
        E 0 80 62 00
        E 120 90 61 60
        E 120 80 61 00
        E 120 90 3e 60
        E 0 90 4b 60
        E 0 90 57 60
        E 0 90 63 60
        E 120 80 3e 00
        E 0 80 4b 00
        E 0 80 57 00
        E 0 80 63 00
        E 120 90 61 60
        E 120 80 61 00
        E 120 90 58 60
        E 0 90 64 60
        E 120 80 58 00
        E 0 80 64 00
        E 120 90 61 60
        E 120 80 61 00
        E 360 90 61 60
        E 120 80 61 00
        E 120 90 56 60
        E 0 90 62 60
        E 120 80 56 00
        E 0 80 62 00
        E 120 90 61 60
        E 120 80 61 00
        E 120 90 3e 60
        E 0 90 4b 60
        E 0 90 57 60
        E 0 90 63 60
        E 120 80 3e 00
        E 0 80 4b 00
        E 0 80 57 00
        E 0 80 63 00
        E 120 90 61 60
        E 120 80 61 00
        E 120 90 58 60
        E 0 90 64 60
        E 120 80 58 00
        E 0 80 64 00
        E 120 90 61 60
        E 120 80 61 00
        E 360 90 61 60
        E 120 80 61 00
        E 120 90 56 60
        E 0 90 62 60
        E 120 80 56 00
        E 0 80 62 00
        E 120 90 61 60
        E 120 80 61 00
        E 120 90 3e 60
        E 0 90 4b 60
        E 0 90 57 60
        E 0 90 63 60
        E 120 80 3e 00
        E 0 80 4b 00
        E 0 80 57 00
        E 0 80 63 00
        E 120 90 61 60
        E 120 80 61 00
        E 120 90 58 60
        E 0 90 64 60
        E 120 80 58 00
        E 0 80 64 00
        E 120 90 61 60
        E 120 80 61 00
        E 360 90 63 60
        E 120 80 63 00
        E 120 90 56 60
        E 0 90 62 60
        E 120 80 56 00
        E 0 80 62 00
        E 120 90 61 60
        E 120 80 61 00
        E 120 90 48 60
        E 0 90 54 60
        E 0 90 60 60
        E 120 80 48 00
        E 0 80 54 00
        E 0 80 60 00
        E 120 90 64 60
        E 120 80 64 00
        E 120 90 57 60
        E 0 90 63 60
        E 120 80 57 00
        E 0 80 63 00
        E 120 90 62 60
        E 120 80 62 00
        E 120 90 3c 60
        E 0 90 48 60
        E 0 90 54 60
        E 0 90 60 60
        E 120 80 3c 00
        E 0 80 48 00
        E 0 80 54 00
        E 0 80 60 00
        E 240 90 60 60
        E 120 80 60 00
        E 240 90 60 60
        E 120 80 60 00
        E 120 90 48 60
        E 0 90 54 60
        E 0 90 60 60
        E 120 80 48 00
        E 0 80 54 00
        E 0 80 60 00
        E 360 90 57 60
        E 0 90 63 60
        E 120 80 57 00
        E 0 80 63 00
        E 360 90 3e 60
        E 0 90 4b 60
        E 0 90 58 60
        E 0 90 64 60
        E 120 80 3e 00
        E 0 80 4b 00
        E 0 80 58 00
        E 0 80 64 00
        E 240 90 64 60
        E 120 80 64 00
        E 240 90 64 60
        E 120 80 64 00
        E 120 90 4b 60
        E 0 90 58 60
        E 0 90 64 60
        E 120 80 4b 00
        E 0 80 58 00
        E 0 80 64 00
        E 360 90 57 60
        E 0 90 63 60
        E 120 80 57 00
        E 0 80 63 00
        E 360 90 3e 60
        E 0 90 4a 60
        E 0 90 56 60
        E 0 90 62 60
        E 120 80 3e 00
        E 0 80 4a 00
        E 0 80 56 00
        E 0 80 62 00
        E 240 90 62 60
        E 120 80 62 00
        E 240 90 62 60
        E 120 80 62 00
        E 120 90 4a 60
        E 0 90 56 60
        E 0 90 62 60
        E 120 80 4a 00
        E 0 80 56 00
        E 0 80 62 00
        E 360 90 55 60
        E 0 90 61 60
        E 120 80 55 00
        E 0 80 61 00
        E 360 90 3e 60
        E 0 90 4b 60
        E 0 90 58 60
        E 0 90 64 60
        E 120 80 3e 00
        E 0 80 4b 00
        E 0 80 58 00
        E 0 80 64 00
        E 240 90 64 60
        E 120 80 64 00
        E 240 90 64 60
        E 120 80 64 00
        E 120 90 4b 60
        E 0 90 58 60
        E 0 90 64 60
        E 120 80 4b 00
        E 0 80 58 00
        E 0 80 64 00
        E 360 90 57 60
        E 0 90 63 60
        E 120 80 57 00
        E 0 80 63 00
        E 120 90 62 60
        E 120 80 62 00
        E 120 90 3d 60
        E 0 90 49 60
        E 0 90 55 60
        E 0 90 61 60
        E 120 80 3d 00
        E 0 80 49 00
        E 0 80 55 00
        E 0 80 61 00
        E 240 90 61 60
        E 120 80 61 00
        E 240 90 61 60
        E 120 80 61 00
        E 120 90 49 60
        E 0 90 55 60
        E 0 90 61 60
        E 120 80 49 00
        E 0 80 55 00
        E 0 80 61 00
        E 360 90 54 60
        E 0 90 60 60
        E 120 80 54 00
        E 0 80 60 00
        E 360 90 3d 60
        E 0 90 49 60
        E 0 90 55 60
        E 0 90 61 60
        E 120 80 3d 00
        E 0 80 49 00
        E 0 80 55 00
        E 0 80 61 00
        E 240 90 61 60
        E 120 80 61 00
        E 240 90 54 60
        E 0 90 60 60
        E 120 80 54 00
        E 0 80 60 00
        E 240 90 60 60
        E 120 80 60 00
        E 240 90 55 60
        E 0 90 61 60
        E 120 80 55 00
        E 0 80 61 00
        E 360 90 3e 60
        E 0 90 4b 60
        E 0 90 58 60
        E 0 90 64 60
        E 0 90 74 60
        E 120 80 3e 00
        E 0 80 4b 00
        E 0 80 58 00
        E 0 80 64 00
        E 240 90 64 60
        E 120 80 64 00
        E 240 90 57 60
        E 0 90 63 60
        E 120 80 57 00
        E 0 80 63 00
        E 240 90 63 60
        E 120 80 63 00
        E 240 90 56 60
        E 0 90 62 60
        E 120 80 56 00
        E 0 80 62 00
        E 360 90 3e 60
        E 0 90 4b 60
        E 0 90 57 60
        E 0 90 63 60
        E 120 80 3e 00
        E 0 80 4b 00
        E 0 80 57 00
        E 0 80 63 00
        E 240 90 63 60
        E 120 80 63 00
        E 240 90 56 60
        E 0 90 62 60
        E 120 80 56 00
        E 0 80 62 00
        E 240 90 62 60
        E 120 80 62 00
        E 240 90 55 60
        E 0 90 61 60
        E 120 80 55 00
        E 0 80 61 00
        E 360 90 3c 60
        E 0 90 48 60
        E 0 90 54 60
        E 0 90 60 60
        E 120 80 74 00
        E 0 80 3c 00
        E 0 80 48 00
        E 0 80 54 00
        E 0 80 60 00
        E 240 90 60 60
        E 120 80 60 00
        E 240 90 60 60
        E 120 80 60 00
        E 120 90 48 60
        E 0 90 54 60
        E 0 90 60 60
        E 120 80 48 00
        E 0 80 54 00
        E 0 80 60 00
        E 360 90 57 60
        E 0 90 63 60
        E 120 80 57 00
        E 0 80 63 00
        E 360 90 3e 60
        E 0 90 4b 60
        E 0 90 58 60
        E 0 90 64 60
        E 120 80 3e 00
        E 0 80 4b 00
        E 0 80 58 00
        E 0 80 64 00
        E 240 90 64 60
        E 120 80 64 00
        E 240 90 64 60
        E 120 80 64 00
        E 120 90 4b 60
        E 0 90 58 60
        E 0 90 64 60
        E 120 80 4b 00
        E 0 80 58 00
        E 0 80 64 00
        E 360 90 57 60
        E 0 90 63 60
        E 120 80 57 00
        E 0 80 63 00
        E 360 90 3e 60
        E 0 90 4a 60
        E 0 90 56 60
        E 0 90 62 60
        E 120 80 3e 00
        E 0 80 4a 00
        E 0 80 56 00
        E 0 80 62 00
        E 240 90 62 60
        E 120 80 62 00
        E 240 90 62 60
        E 120 80 62 00
        E 120 90 4a 60
        E 0 90 56 60
        E 0 90 62 60
        E 120 80 4a 00
        E 0 80 56 00
        E 0 80 62 00
        E 360 90 55 60
        E 0 90 61 60
        E 120 80 55 00
        E 0 80 61 00
        E 360 90 3e 60
        E 0 90 4b 60
        E 0 90 58 60
        E 0 90 64 60
        E 120 80 3e 00
        E 0 80 4b 00
        E 0 80 58 00
        E 0 80 64 00
        E 240 90 64 60
        E 120 80 64 00
        E 240 90 64 60
        E 120 80 64 00
        E 120 90 4b 60
        E 0 90 58 60
        E 0 90 64 60
        E 120 80 4b 00
        E 0 80 58 00
        E 0 80 64 00
        E 360 90 57 60
        E 0 90 63 60
        E 120 80 57 00
        E 0 80 63 00
        E 120 90 62 60
        E 120 80 62 00
        E 120 90 3d 60
        E 0 90 49 60
        E 0 90 55 60
        E 0 90 61 60
        E 120 80 3d 00
        E 0 80 49 00
        E 0 80 55 00
        E 0 80 61 00
        E 240 90 61 60
        E 120 80 61 00
        E 240 90 61 60
        E 120 80 61 00
        E 120 90 49 60
        E 0 90 55 60
        E 0 90 61 60
        E 120 80 49 00
        E 0 80 55 00
        E 0 80 61 00
        E 360 90 54 60
        E 0 90 60 60
        E 120 80 54 00
        E 0 80 60 00
        E 360 90 3d 60
        E 0 90 49 60
        E 0 90 55 60
        E 0 90 61 60
        E 120 80 3d 00
        E 0 80 49 00
        E 0 80 55 00
        E 0 80 61 00
        E 240 90 61 60
        E 120 80 61 00
        E 240 90 54 60
        E 0 90 60 60
        E 120 80 54 00
        E 0 80 60 00
        E 240 90 60 60
        E 120 80 60 00
        E 240 90 55 60
        E 0 90 61 60
        E 120 80 55 00
        E 0 80 61 00
        E 360 90 3e 60
        E 0 90 4b 60
        E 0 90 58 60
        E 0 90 64 60
        E 120 80 3e 00
        E 0 80 4b 00
        E 0 80 58 00
        E 0 80 64 00
        E 240 90 64 60
        E 120 80 64 00
        E 240 90 57 60
        E 0 90 63 60
        E 120 80 57 00
        E 0 80 63 00
        E 240 90 63 60
        E 120 80 63 00
        E 240 90 56 60
        E 0 90 62 60
        E 120 80 56 00
        E 0 80 62 00
        E 360 90 3e 60
        E 0 90 4b 60
        E 0 90 57 60
        E 0 90 63 60
        E 120 80 3e 00
        E 0 80 4b 00
        E 0 80 57 00
        E 0 80 63 00
        E 240 90 63 60
        E 120 80 63 00
        E 240 90 56 60
        E 0 90 62 60
        E 120 80 56 00
        E 0 80 62 00
        E 240 90 62 60
        E 120 80 62 00
        E 240 90 55 60
        E 0 90 61 60
        E 120 80 55 00
        E 0 80 61 00
        E 360 90 3c 60
        E 0 90 48 60
        E 0 90 54 60
        E 0 90 60 60
        E 1200 80 3c 00
        E 0 80 48 00
        E 0 80 54 00
        E 120 80 60 00
        E 120 90 55 60
        E 0 90 61 60
        E 120 80 55 00
        E 0 80 61 00
        E 360 90 3e 60
        E 0 90 4a 60
        E 0 90 56 60
        E 0 90 62 60
        E 1200 80 3e 00
        E 0 80 4a 00
        E 0 80 56 00
        E 120 80 62 00
        E 120 90 55 60
        E 0 90 61 60
        E 120 80 55 00
        E 0 80 61 00
        E 360 90 3e 60
        E 0 90 4b 60
        E 0 90 57 60
        E 0 90 63 60
        E 1200 80 3e 00
        E 0 80 4b 00
        E 0 80 57 00
        E 120 80 63 00
        E 120 90 58 60
        E 0 90 64 60
        E 120 80 58 00
        E 0 80 64 00
        E 360 90 3d 60
        E 0 90 49 60
        E 0 90 55 60
        E 0 90 61 60
        E 120 80 3d 00
        E 0 80 49 00
        E 0 80 55 00
        E 0 80 61 00
        E 120 90 62 60
        E 120 80 62 00
        E 120 90 57 60
        E 0 90 63 60
        E 120 80 57 00
        E 0 80 63 00
        E 120 90 62 60
        E 120 80 62 00
        E 120 90 4b 60
        E 0 90 58 60
        E 0 90 64 60
        E 120 80 4b 00
        E 0 80 58 00
        E 0 80 64 00
        E 120 90 63 60
        E 120 80 63 00
        E 120 90 56 60
        E 0 90 62 60
        E 120 80 56 00
        E 0 80 62 00
        E 120 90 61 60
        E 120 80 61 00
        E 360 90 61 60
        E 120 80 61 00
        E 120 90 56 60
        E 0 90 62 60
        E 120 80 56 00
        E 0 80 62 00
        E 120 90 61 60
        E 120 80 61 00
        E 120 90 3e 60
        E 0 90 4b 60
        E 0 90 57 60
        E 0 90 63 60
        E 120 80 3e 00
        E 0 80 4b 00
        E 0 80 57 00
        E 0 80 63 00
        E 120 90 61 60
        E 120 80 61 00
        E 120 90 58 60
        E 0 90 64 60
        E 120 80 58 00
        E 0 80 64 00
        E 120 90 61 60
        E 120 80 61 00
        E 360 90 61 60
        E 120 80 61 00
        E 120 90 56 60
        E 0 90 62 60
        E 120 80 56 00
        E 0 80 62 00
        E 120 90 61 60
        E 120 80 61 00
        E 120 90 3e 60
        E 0 90 4b 60
        E 0 90 57 60
        E 0 90 63 60
        E 120 80 3e 00
        E 0 80 4b 00
        E 0 80 57 00
        E 0 80 63 00
        E 120 90 61 60
        E 120 80 61 00
        E 120 90 58 60
        E 0 90 64 60
        E 120 80 58 00
        E 0 80 64 00
        E 120 90 61 60
        E 120 80 61 00
        E 360 90 61 60
        E 120 80 61 00
        E 120 90 56 60
        E 0 90 62 60
        E 120 80 56 00
        E 0 80 62 00
        E 120 90 61 60
        E 120 80 61 00
        E 120 90 3e 60
        E 0 90 4b 60
        E 0 90 57 60
        E 0 90 63 60
        E 120 80 3e 00
        E 0 80 4b 00
        E 0 80 57 00
        E 0 80 63 00
        E 120 90 61 60
        E 120 80 61 00
        E 120 90 58 60
        E 0 90 64 60
        E 120 80 58 00
        E 0 80 64 00
        E 120 90 61 60
        E 120 80 61 00
        E 360 90 63 60
        E 120 80 63 00
        E 120 90 56 60
        E 0 90 62 60
        E 120 80 56 00
        E 0 80 62 00
        E 120 90 61 60
        E 120 80 61 00
        E 120 90 48 60
        E 0 90 54 60
        E 0 90 60 60
        E 120 80 48 00
        E 0 80 54 00
        E 0 80 60 00
        E 120 90 64 60
        E 120 80 64 00
        E 120 90 57 60
        E 0 90 63 60
        E 120 80 57 00
        E 0 80 63 00
        E 120 90 62 60
        E 120 80 62 00
        E 120 90 3c 60
        E 0 90 48 60
        E 0 90 54 60
        E 0 90 60 60
        E 120 80 3c 00
        E 0 80 48 00
        E 0 80 54 00
        E 0 80 60 00
        E 240 90 60 60
        E 120 80 60 00
        E 240 90 60 60
        E 120 80 60 00
        E 120 90 48 60
        E 0 90 54 60
        E 0 90 60 60
        E 120 80 48 00
        E 0 80 54 00
        E 0 80 60 00
        E 360 90 57 60
        E 0 90 63 60
        E 120 80 57 00
        E 0 80 63 00
        E 360 90 3e 60
        E 0 90 4b 60
        E 0 90 58 60
        E 0 90 64 60
        E 120 80 3e 00
        E 0 80 4b 00
        E 0 80 58 00
        E 0 80 64 00
        E 240 90 64 60
        E 120 80 64 00
        E 240 90 64 60
        E 120 80 64 00
        E 120 90 4b 60
        E 0 90 58 60
        E 0 90 64 60
        E 120 80 4b 00
        E 0 80 58 00
        E 0 80 64 00
        E 360 90 57 60
        E 0 90 63 60
        E 120 80 57 00
        E 0 80 63 00
        E 360 90 3e 60
        E 0 90 4a 60
        E 0 90 56 60
        E 0 90 62 60
        E 120 80 3e 00
        E 0 80 4a 00
        E 0 80 56 00
        E 0 80 62 00
        E 240 90 62 60
        E 120 80 62 00
        E 240 90 62 60
        E 120 80 62 00
        E 120 90 4a 60
        E 0 90 56 60
        E 0 90 62 60
        E 120 80 4a 00
        E 0 80 56 00
        E 0 80 62 00
        E 360 90 55 60
        E 0 90 61 60
        E 0 90 74 60
        E 120 80 55 00
        E 0 80 61 00
        E 360 90 3e 60
        E 0 90 4b 60
        E 0 90 58 60
        E 0 90 64 60
        E 120 80 3e 00
        E 0 80 4b 00
        E 0 80 58 00
        E 0 80 64 00
        E 240 90 64 60
        E 120 80 64 00
        E 240 90 64 60
        E 120 80 64 00
        E 120 90 4b 60
        E 0 90 58 60
        E 0 90 64 60
        E 120 80 4b 00
        E 0 80 58 00
        E 0 80 64 00
        E 360 90 57 60
        E 0 90 63 60
        E 120 80 57 00
        E 0 80 63 00
        E 120 90 62 60
        E 120 80 62 00
        E 120 80 74 00
        E 0 90 3d 60
        E 0 90 49 60
        E 0 90 55 60
        E 0 90 61 60
        E 120 80 3d 00
        E 0 80 49 00
        E 0 80 55 00
        E 0 80 61 00
        E 240 90 61 60
        E 120 80 61 00
        E 240 90 61 60
        E 120 80 61 00
        E 120 90 49 60
        E 0 90 55 60
        E 0 90 61 60
        E 120 80 49 00
        E 0 80 55 00
        E 0 80 61 00
        E 360 90 54 60
        E 0 90 60 60
        E 120 80 54 00
        E 0 80 60 00
        E 360 90 3d 60
        E 0 90 49 60
        E 0 90 55 60
        E 0 90 61 60
        E 120 80 3d 00
        E 0 80 49 00
        E 0 80 55 00
        E 0 80 61 00
        E 240 90 61 60
        E 120 80 61 00
        E 240 90 54 60
        E 0 90 60 60
        E 120 80 54 00
        E 0 80 60 00
        E 240 90 60 60
        E 120 80 60 00
        E 240 90 55 60
        E 0 90 61 60
        E 120 80 55 00
        E 0 80 61 00
        E 360 90 3e 60
        E 0 90 4b 60
        E 0 90 58 60
        E 0 90 64 60
        E 120 80 3e 00
        E 0 80 4b 00
        E 0 80 58 00
        E 0 80 64 00
        E 240 90 64 60
        E 120 80 64 00
        E 240 90 57 60
        E 0 90 63 60
        E 120 80 57 00
        E 0 80 63 00
        E 240 90 63 60
        E 120 80 63 00
        E 240 90 56 60
        E 0 90 62 60
        E 120 80 56 00
        E 0 80 62 00
        E 360 90 3e 60
        E 0 90 4b 60
        E 0 90 57 60
        E 0 90 63 60
        E 120 80 3e 00
        E 0 80 4b 00
        E 0 80 57 00
        E 0 80 63 00
        E 240 90 63 60
        E 120 80 63 00
        E 240 90 56 60
        E 0 90 62 60
        E 120 80 56 00
        E 0 80 62 00
        E 240 90 62 60
        E 120 80 62 00
        E 240 90 55 60
        E 0 90 61 60
        E 120 80 55 00
        E 0 80 61 00
        E 360 90 3c 60
        E 0 90 48 60
        E 0 90 54 60
        E 0 90 60 60
        E 120 80 3c 00
        E 0 80 48 00
        E 0 80 54 00
        E 0 80 60 00
        E 240 90 60 60
        E 120 80 60 00
        E 240 90 60 60
        E 120 80 60 00
        E 120 90 48 60
        E 0 90 54 60
        E 0 90 60 60
        E 120 80 48 00
        E 0 80 54 00
        E 0 80 60 00
        E 360 90 57 60
        E 0 90 63 60
        E 120 80 57 00
        E 0 80 63 00
        E 360 90 3e 60
        E 0 90 4b 60
        E 0 90 58 60
        E 0 90 64 60
        E 120 80 3e 00
        E 0 80 4b 00
        E 0 80 58 00
        E 0 80 64 00
        E 240 90 64 60
        E 120 80 64 00
        E 240 90 64 60
        E 120 80 64 00
        E 120 90 4b 60
        E 0 90 58 60
        E 0 90 64 60
        E 120 80 4b 00
        E 0 80 58 00
        E 0 80 64 00
        E 360 90 57 60
        E 0 90 63 60
        E 120 80 57 00
        E 0 80 63 00
        E 360 90 3e 60
        E 0 90 4a 60
        E 0 90 56 60
        E 0 90 62 60
        E 120 80 3e 00
        E 0 80 4a 00
        E 0 80 56 00
        E 0 80 62 00
        E 240 90 62 60
        E 120 80 62 00
        E 240 90 62 60
        E 120 80 62 00
        E 120 90 4a 60
        E 0 90 56 60
        E 0 90 62 60
        E 120 80 4a 00
        E 0 80 56 00
        E 0 80 62 00
        E 360 90 55 60
        E 0 90 61 60
        E 120 80 55 00
        E 0 80 61 00
        E 360 90 3e 60
        E 0 90 4b 60
        E 0 90 58 60
        E 0 90 64 60
        E 120 80 3e 00
        E 0 80 4b 00
        E 0 80 58 00
        E 0 80 64 00
        E 240 90 64 60
        E 120 80 64 00
        E 240 90 64 60
        E 120 80 64 00
        E 120 90 4b 60
        E 0 90 58 60
        E 0 90 64 60
        E 120 80 4b 00
        E 0 80 58 00
        E 0 80 64 00
        E 360 90 57 60
        E 0 90 63 60
        E 120 80 57 00
        E 0 80 63 00
        E 120 90 62 60
        E 120 80 62 00
        E 120 90 3d 60
        E 0 90 49 60
        E 0 90 55 60
        E 0 90 61 60
        E 120 80 3d 00
        E 0 80 49 00
        E 0 80 55 00
        E 0 80 61 00
        E 240 90 61 60
        E 120 80 61 00
        E 240 90 61 60
        E 120 80 61 00
        E 120 90 49 60
        E 0 90 55 60
        E 0 90 61 60
        E 120 80 49 00
        E 0 80 55 00
        E 0 80 61 00
        E 360 90 54 60
        E 0 90 60 60
        E 120 80 54 00
        E 0 80 60 00
        E 360 90 3d 60
        E 0 90 49 60
        E 0 90 55 60
        E 0 90 61 60
        E 120 80 3d 00
        E 0 80 49 00
        E 0 80 55 00
        E 0 80 61 00
        E 240 90 61 60
        E 120 80 61 00
        E 240 90 54 60
        E 0 90 60 60
        E 120 80 54 00
        E 0 80 60 00
        E 240 90 60 60
        E 120 80 60 00
        E 240 90 55 60
        E 0 90 61 60
        E 120 80 55 00
        E 0 80 61 00
        E 360 90 3e 60
        E 0 90 4b 60
        E 0 90 58 60
        E 0 90 64 60
        E 120 80 3e 00
        E 0 80 4b 00
        E 0 80 58 00
        E 0 80 64 00
        E 240 90 64 60
        E 120 80 64 00
        E 240 90 57 60
        E 0 90 63 60
        E 120 80 57 00
        E 0 80 63 00
        E 240 90 63 60
        E 120 80 63 00
        E 240 90 56 60
        E 0 90 62 60
        E 120 80 56 00
        E 0 80 62 00
        E 360 90 3e 60
        E 0 90 4b 60
        E 0 90 57 60
        E 0 90 63 60
        E 120 80 3e 00
        E 0 80 4b 00
        E 0 80 57 00
        E 0 80 63 00
        E 240 90 63 60
        E 120 80 63 00
        E 240 90 56 60
        E 0 90 62 60
        E 120 80 56 00
        E 0 80 62 00
        E 240 90 62 60
        E 120 80 62 00
        E 240 90 55 60
        E 0 90 61 60
        E 120 80 55 00
        E 0 80 61 00
        E 360 90 3c 60
        E 0 90 48 60
        E 0 90 54 60
        E 0 90 60 60
        E 1200 80 3c 00
        E 0 80 48 00
        E 0 80 54 00
        E 120 80 60 00
        E 120 90 55 60
        E 0 90 61 60
        E 120 80 55 00
        E 0 80 61 00
        E 360 90 3e 60
        E 0 90 4a 60
        E 0 90 56 60
        E 0 90 62 60
        E 1200 80 3e 00
        E 0 80 4a 00
        E 0 80 56 00
        E 120 80 62 00
        E 120 90 55 60
        E 0 90 61 60
        E 120 80 55 00
        E 0 80 61 00
        E 360 90 3e 60
        E 0 90 4b 60
        E 0 90 57 60
        E 0 90 63 60
        E 1200 80 3e 00
        E 0 80 4b 00
        E 0 80 57 00
        E 120 80 63 00
        E 120 90 58 60
        E 0 90 64 60
        E 120 80 58 00
        E 0 80 64 00
        E 360 90 3d 60
        E 0 90 49 60
        E 0 90 55 60
        E 0 90 61 60
        E 120 80 3d 00
        E 0 80 49 00
        E 0 80 55 00
        E 0 80 61 00
        E 120 90 62 60
        E 120 80 62 00
        E 120 90 57 60
        E 0 90 63 60
        E 120 80 57 00
        E 0 80 63 00
        E 120 90 62 60
        E 120 80 62 00
        E 120 90 4b 60
        E 0 90 58 60
        E 0 90 64 60
        E 120 80 4b 00
        E 0 80 58 00
        E 0 80 64 00
        E 120 90 63 60
        E 120 80 63 00
        E 120 90 56 60
        E 0 90 62 60
        E 120 80 56 00
        E 0 80 62 00
        E 120 90 61 60
        E 120 80 61 00
        E 360 90 61 60
        E 120 80 61 00
        E 120 90 56 60
        E 0 90 62 60
        E 120 80 56 00
        E 0 80 62 00
        E 120 90 61 60
        E 120 80 61 00
        E 120 90 3e 60
        E 0 90 4b 60
        E 0 90 57 60
        E 0 90 63 60
        E 120 80 3e 00
        E 0 80 4b 00
        E 0 80 57 00
        E 0 80 63 00
        E 120 90 61 60
        E 120 80 61 00
        E 120 90 58 60
        E 0 90 64 60
        E 120 80 58 00
        E 0 80 64 00
        E 120 90 61 60
        E 120 80 61 00
        E 360 90 61 60
        E 120 80 61 00
        E 120 90 56 60
        E 0 90 62 60
        E 120 80 56 00
        E 0 80 62 00
        E 120 90 61 60
        E 120 80 61 00
        E 120 90 3e 60
        E 0 90 4b 60
        E 0 90 57 60
        E 0 90 63 60
        E 120 80 3e 00
        E 0 80 4b 00
        E 0 80 57 00
        E 0 80 63 00
        E 120 90 61 60
        E 120 80 61 00
        E 120 90 58 60
        E 0 90 64 60
        E 120 80 58 00
        E 0 80 64 00
        E 120 90 61 60
        E 120 80 61 00
        E 360 90 61 60
        E 120 80 61 00
        E 120 90 56 60
        E 0 90 62 60
        E 120 80 56 00
        E 0 80 62 00
        E 120 90 61 60
        E 120 80 61 00
        E 120 90 3e 60
        E 0 90 4b 60
        E 0 90 57 60
        E 0 90 63 60
        E 120 80 3e 00
        E 0 80 4b 00
        E 0 80 57 00
        E 0 80 63 00
        E 120 90 61 60
        E 120 80 61 00
        E 120 90 58 60
        E 0 90 64 60
        E 120 80 58 00
        E 0 80 64 00
        E 120 90 61 60
        E 120 80 61 00
        E 360 90 63 60
        E 120 80 63 00
        E 120 90 56 60
        E 0 90 62 60
        E 120 80 56 00
        E 0 80 62 00
        E 120 90 61 60
        E 120 80 61 00
        E 120 90 3c 60
        E 0 90 48 60
        E 0 90 54 60
        E 0 90 60 60
        E 120 80 3c 00
        E 0 80 48 00
        E 0 80 54 00
        E 0 80 60 00
        E 120 90 64 60
        E 120 80 64 00
        E 120 90 57 60
        E 0 90 63 60
        E 120 80 57 00
        E 0 80 63 00
        E 120 90 62 60
        E 120 80 62 00
        <X 480 0
          /wFbaWRsZV9yZWFsdGltZV0=
        >
        E 3480 b0 7b 00
        GUID {A30256FF-CFE2-44D3-8C03-82A6ED5820B2}
        IGNTEMPO 0 120.00000000 4 4
        SRCCOLOR 11
        VELLANE 132 128 60
        COLORMAP "C:\Program Files\REAPER (x64)\Data\color_maps\rockband_guitarbass.png"
        CFGEDITVIEW 2597.679956 160.186692 0 14 0 0 0
        CFGEDIT 1 1 0 1 1 0 1 1 1 1 1 0.25000000 -8 -8 1544 872 0 2 1 1 0.00000000 0 1 0 0 0.500000 0 0 1.000000 64
        KEYSNAP 0 6 "102030050700" 0 "Pentatonic"
        EVTFILTER 0 -1 -1 -1 -1 0 1 0 0 -1.00000000 -1.00000000
      >
    >
  >
  <TRACK '{C3C13AC1-D485-4608-A68C-0F8596636843}'
    NAME "PART REAL_KEYS_X"
    PEAKCOL 16576
    BEAT -1
    AUTOMODE 0
    VOLPAN 1.00000000000000 0.00000000000000 -1.00000000000000 -1.00000000000000 1.00000000000000
    MUTESOLO 0 0 0
    IPHASE 0
    ISBUS 0 0
    BUSCOMP 0 0
    SHOWINMIX 1 0.666700 0.500000 1 0.500000 -1 -1 -1
    FREEMODE 0
    SEL 0
    REC 0 0 0 0 0 0 0
    VU 2
    TRACKHEIGHT 0 0
    INQ 0 0 0 0.5000000000 100 0 0 100
    NCHAN 2
    FX 0
    TRACKID {C3C13AC1-D485-4608-A68C-0F8596636843}
    PERF 0
    MIDIOUT -1
    <MIDINOTENAMES
      0 127 "TRILL MARKER"
      0 126 "GLISSANDO MARKER"
      0 125 "---"
      0 116 "OVERDRIVE"
      0 115 "SOLO"
      0 114 "---"
      0 72 "Highest playable note B#3"
      0 71 "B3"
      0 70 "A#3"
      0 69 "A3"
      0 68 "G#3"
      0 67 "G3"
      0 66 "F#3"
      0 65 "F3"
      0 64 "E3"
      0 63 "D#3"
      0 62 "D3"
      0 61 "C#3"
      0 60 "C3"
      0 59 "B2"
      0 58 "A#2"
      0 57 "A2"
      0 56 "G#2"
      0 55 "G2"
      0 54 "F#2"
      0 53 "F2"
      0 52 "E2"
      0 51 "D#2"
      0 50 "D2"
      0 49 "C#2"
      0 48 "Lowest playable note C2"
      0 10 "---"
      0 9 "Range A2-C4"
      0 8 "Range"
      0 7 "Range"
      0 6 "Range"
      0 5 "Range F2-A3"
      0 4 "Range"
      0 3 "Range"
      0 2 "Range"
      0 1 "Range"
      0 0 "Range C2-E3"
    >
    MAINSEND 1 0
    <FXCHAIN
      WNDRECT 0 43 655 467
      SHOW 0
      LASTSEL 1
      DOCKED 0
      BYPASS 0 0
      <JS "MIDI/midi_note_filter" ""
        48.000000 72.000000 - - - - - - - - - - - - - - - - - - - - - - - - - - - - - - - - - - - - - - - - - - - - - - - - - - - - - - - - - - - - - - 
      >
      FLOATPOS 0 0 0 0
      FXID {D1901D72-8F4D-4A8E-A9CF-BC66DC3E5953}
      WAK 0
      BYPASS 0 0
      <VST "VSTi: ReaSynth (Cockos)" "reasynth.dll" 0 ""
        eXNlcu9e7f4AAAAAAgAAAAEAAAAAAAAAAgAAAAAAAAA4AAAAAAAAAA==
        AAAQAO++rd4N8K3eppvEOxe30ToAAIA/AAAAAAAAAADMm4A+6WeIPQ==
        AAAAAAAAAD8AAIA/AACAPwAAAD8AABAAAAA=
      >
      FLOATPOS 0 0 0 0
      FXID {4D0A6F07-F594-4BFF-9447-613494089B65}
      WAK 0
    >
    <ITEM
      POSITION 0.00000000000000
      SNAPOFFS 0.00000000000000
      LENGTH 108.01200133348151
      LOOP 0
      ALLTAKES 0
      SEL 0
      FADEIN 1 0.000000 0.000000 1 0
      FADEOUT 1 0.000000 0.000000 1 0
      MUTE 0
      IGUID {710475DA-004A-4730-B8E9-B456994EB5D4}
      IID 13
      NAME "PART REAL_KEYS_X"
      VOLPAN 1.000000 0.000000 1.000000 -1.000000
      SOFFS 0.00000000000000 0.00000000000000
      PLAYRATE 1.00000000000000 1 0.00000000000000 -1
      CHANMODE 0
      GUID {F08E9EFA-2AF6-43B5-A376-20D1E44F33B8}
      <SOURCE MIDI
        HASDATA 1 480 QN
        POOLEDEVTS {865DC8D1-E1C5-4DBC-AC7C-A74326C708AC}
        <X 0 0
          /wNQQVJUIFJFQUxfS0VZU19Y
        >
        E 0 90 05 60
        E 120 80 05 00
        <X 5640 0
          /wFbYmVnaW5fa2V5IHNvbmdfdHJhaW5lcl9rZXlfMV0=
        >
        E 240 90 39 60
        E 120 80 39 00
        E 120 90 3c 60
        E 120 80 3c 00
        E 120 90 39 60
        E 120 80 39 00
        E 120 90 3e 60
        E 120 80 3e 00
        E 120 90 39 60
        E 120 80 39 00
        E 120 90 40 60
        E 120 80 40 00
        E 120 90 39 60
        E 120 80 39 00
        <X 120 0
          /wFba2V5X25vcm0gc29uZ190cmFpbmVyX2tleV8xXQ==
        >
        E 240 90 39 60
        E 120 80 39 00
        E 120 90 3c 60
        E 120 80 3c 00
        E 120 90 39 60
        E 120 80 39 00
        E 120 90 3e 60
        E 120 80 3e 00
        E 120 90 39 60
        E 120 80 39 00
        E 120 90 40 60
        E 120 80 40 00
        E 120 90 39 60
        E 120 80 39 00
        E 360 90 39 60
        E 120 80 39 00
        E 120 90 3c 60
        E 120 80 3c 00
        E 120 90 39 60
        E 120 80 39 00
        E 120 90 3e 60
        E 120 80 3e 00
        E 120 90 39 60
        E 120 80 39 00
        E 120 90 40 60
        E 120 80 40 00
        E 120 90 39 60
        E 120 80 39 00
        E 120 90 74 60
        E 240 90 3e 60
        E 120 80 3e 00
        E 120 90 3c 60
        E 120 80 3c 00
        E 120 90 3b 60
        E 120 80 3b 00
        E 120 90 37 60
        E 120 80 37 00
        E 120 90 40 60
        E 120 80 40 00
        E 120 90 3e 60
        E 120 80 3e 00
        E 120 90 3c 60
        E 120 80 3c 00
        <X 120 0
          /wFbZW5kX2tleSBzb25nX3RyYWluZXJfa2V5XzFd
        >
        <X 0 0
          /wFbYmVnaW5fa2V5IHNvbmdfdHJhaW5lcl9rZXlfMl0=
        >
        E 0 90 39 60
        E 0 80 74 00
        E 120 80 39 00
        E 240 90 39 60
        E 120 80 39 00
        E 240 90 39 60
        E 120 80 39 00
        E 120 90 39 60
        E 120 80 39 00
        E 360 90 40 60
        E 120 80 40 00
        E 360 90 43 60
        E 120 80 43 00
        E 240 90 43 60
        E 120 80 43 00
        E 240 90 43 60
        E 120 80 43 00
        E 120 90 43 60
        E 120 80 43 00
        E 360 90 41 60
        E 120 80 41 00
        <X 360 0
          /wFba2V5X25vcm0gc29uZ190cmFpbmVyX2tleV8yXQ==
        >
        E 0 90 40 60
        E 120 80 40 00
        E 240 90 40 60
        E 120 80 40 00
        E 240 90 40 60
        E 120 80 40 00
        E 120 90 40 60
        E 120 80 40 00
        E 360 90 37 60
        E 120 80 37 00
        E 360 90 3e 60
        E 120 80 3e 00
        E 240 90 3e 60
        E 120 80 3e 00
        E 240 90 3e 60
        E 120 80 3e 00
        E 120 90 3e 60
        E 120 80 3e 00
        E 360 90 3c 60
        E 120 80 3c 00
        E 120 90 3b 60
        E 120 80 3b 00
        E 120 90 39 60
        E 120 80 39 00
        E 240 90 39 60
        E 120 80 39 00
        E 240 90 39 60
        E 120 80 39 00
        E 120 90 39 60
        E 120 80 39 00
        E 360 90 3b 60
        E 120 80 3b 00
        E 360 90 3c 60
        E 120 80 3c 00
        E 240 90 3c 60
        E 120 80 3c 00
        E 240 90 3b 60
        E 120 80 3b 00
        E 240 90 3b 60
        E 120 80 3b 00
        E 240 90 3c 60
        E 120 80 3c 00
        E 360 90 40 60
        E 120 80 40 00
        E 240 90 40 60
        E 120 80 40 00
        E 240 90 3e 60
        E 120 80 3e 00
        E 240 90 3e 60
        E 120 80 3e 00
        E 240 90 3c 60
        E 120 80 3c 00
        E 360 90 3e 60
        E 120 80 3e 00
        E 240 90 3e 60
        E 120 80 3e 00
        E 240 90 3c 60
        E 120 80 3c 00
        E 240 90 3c 60
        E 120 80 3c 00
        E 240 90 3b 60
        E 120 80 3b 00
        <X 360 0
          /wFbZW5kX2tleSBzb25nX3RyYWluZXJfa2V5XzJd
        >
        E 0 90 39 60
        E 120 80 39 00
        E 240 90 39 60
        E 120 80 39 00
        E 240 90 39 60
        E 120 80 39 00
        E 120 90 39 60
        E 120 80 39 00
        E 360 90 40 60
        E 120 80 40 00
        E 360 90 43 60
        E 120 80 43 00
        E 240 90 43 60
        E 120 80 43 00
        E 240 90 43 60
        E 120 80 43 00
        E 120 90 43 60
        E 120 80 43 00
        E 360 90 41 60
        E 120 80 41 00
        E 360 90 40 60
        E 120 80 40 00
        E 240 90 40 60
        E 120 80 40 00
        E 240 90 40 60
        E 120 80 40 00
        E 120 90 40 60
        E 120 80 40 00
        E 360 90 37 60
        E 120 80 37 00
        E 360 90 3e 60
        E 120 80 3e 00
        E 240 90 3e 60
        E 120 80 3e 00
        E 240 90 3e 60
        E 120 80 3e 00
        E 120 90 3e 60
        E 120 80 3e 00
        E 360 90 3c 60
        E 120 80 3c 00
        E 120 90 3b 60
        E 120 80 3b 00
        E 120 90 39 60
        E 120 80 39 00
        E 240 90 39 60
        E 120 80 39 00
        E 240 90 39 60
        E 120 80 39 00
        E 120 90 39 60
        E 120 80 39 00
        E 360 90 3b 60
        E 120 80 3b 00
        E 360 90 3c 60
        E 120 80 3c 00
        E 240 90 3c 60
        E 120 80 3c 00
        E 240 90 3b 60
        E 120 80 3b 00
        E 240 90 3b 60
        E 120 80 3b 00
        E 240 90 3c 60
        E 120 80 3c 00
        E 360 90 40 60
        E 120 80 40 00
        E 240 90 40 60
        E 120 80 40 00
        E 240 90 3e 60
        E 120 80 3e 00
        E 240 90 3e 60
        E 120 80 3e 00
        E 240 90 3c 60
        E 120 80 3c 00
        E 360 90 3e 60
        E 120 80 3e 00
        E 240 90 3e 60
        E 120 80 3e 00
        E 240 90 3c 60
        E 120 80 3c 00
        E 240 90 3c 60
        E 120 80 3c 00
        E 240 90 3b 60
        E 120 80 3b 00
        <X 360 0
          /wFbYmVnaW5fa2V5IHNvbmdfdHJhaW5lcl9rZXlfM10=
        >
        E 0 90 35 60
        E 0 90 74 60
        E 1320 80 35 00
        E 120 90 37 60
        E 120 80 37 00
        <X 360 0
          /wFba2V5X25vcm0gc29uZ190cmFpbmVyX2tleV8zXQ==
        >
        E 0 90 3b 60
        E 1320 80 3b 00
        E 120 90 3c 60
        E 120 80 3c 00
        E 360 90 40 60
        E 1320 80 40 00
        E 120 90 41 60
        E 120 80 41 00
        E 360 90 3b 60
        E 120 80 3b 00
        E 120 90 3c 60
        E 120 80 3c 00
        E 120 90 3e 60
        E 120 80 3e 00
        E 120 90 3c 60
        E 120 80 3c 00
        E 120 90 40 60
        E 120 80 40 00
        E 120 90 3e 60
        E 120 80 3e 00
        E 120 90 3c 60
        E 120 80 3c 00
        E 120 90 3b 60
        E 120 80 3b 00
        <X 120 0
          /wFbZW5kX2tleSBzb25nX3RyYWluZXJfa2V5XzNd
        >
        E 0 80 74 00
        E 240 90 39 60
        E 120 80 39 00
        E 120 90 3c 60
        E 120 80 3c 00
        E 120 90 39 60
        E 120 80 39 00
        E 120 90 3e 60
        E 120 80 3e 00
        E 120 90 39 60
        E 120 80 39 00
        E 120 90 40 60
        E 120 80 40 00
        E 120 90 39 60
        E 120 80 39 00
        E 360 90 39 60
        E 120 80 39 00
        E 120 90 3c 60
        E 120 80 3c 00
        E 120 90 39 60
        E 120 80 39 00
        E 120 90 3e 60
        E 120 80 3e 00
        E 120 90 39 60
        E 120 80 39 00
        E 120 90 40 60
        E 120 80 40 00
        E 120 90 39 60
        E 120 80 39 00
        E 360 90 39 60
        E 120 80 39 00
        E 120 90 3c 60
        E 120 80 3c 00
        E 120 90 39 60
        E 120 80 39 00
        E 120 90 3e 60
        E 120 80 3e 00
        E 120 90 39 60
        E 120 80 39 00
        E 120 90 40 60
        E 120 80 40 00
        E 120 90 39 60
        E 120 80 39 00
        E 360 90 3e 60
        E 120 80 3e 00
        E 120 90 3c 60
        E 120 80 3c 00
        E 120 90 3b 60
        E 120 80 3b 00
        E 120 90 37 60
        E 120 80 37 00
        E 120 90 40 60
        E 120 80 40 00
        E 120 90 3e 60
        E 120 80 3e 00
        E 120 90 3c 60
        E 120 80 3c 00
        E 120 90 39 60
        E 120 80 39 00
        E 240 90 39 60
        E 120 80 39 00
        E 240 90 39 60
        E 120 80 39 00
        E 120 90 39 60
        E 120 80 39 00
        E 360 90 40 60
        E 120 80 40 00
        E 360 90 43 60
        E 120 80 43 00
        E 240 90 43 60
        E 120 80 43 00
        E 240 90 43 60
        E 120 80 43 00
        E 120 90 43 60
        E 120 80 43 00
        E 360 90 41 60
        E 120 80 41 00
        E 360 90 40 60
        E 120 80 40 00
        E 240 90 40 60
        E 120 80 40 00
        E 240 90 40 60
        E 120 80 40 00
        E 120 90 40 60
        E 120 80 40 00
        E 360 90 37 60
        E 120 80 37 00
        E 360 90 3e 60
        E 120 80 3e 00
        E 240 90 3e 60
        E 120 80 3e 00
        E 240 90 3e 60
        E 120 80 3e 00
        E 120 90 3e 60
        E 120 80 3e 00
        E 360 90 3c 60
        E 120 80 3c 00
        E 120 90 3b 60
        E 120 80 3b 00
        E 120 90 39 60
        E 120 80 39 00
        E 240 90 39 60
        E 120 80 39 00
        E 240 90 39 60
        E 120 80 39 00
        E 120 90 39 60
        E 120 80 39 00
        E 360 90 3b 60
        E 120 80 3b 00
        E 360 90 3c 60
        E 120 80 3c 00
        E 240 90 3c 60
        E 120 80 3c 00
        E 240 90 3b 60
        E 120 80 3b 00
        E 240 90 3b 60
        E 120 80 3b 00
        E 240 90 3c 60
        E 120 80 3c 00
        E 360 90 40 60
        E 0 90 74 60
        E 120 80 40 00
        E 240 90 40 60
        E 120 80 40 00
        E 240 90 3e 60
        E 120 80 3e 00
        E 240 90 3e 60
        E 120 80 3e 00
        E 240 90 3c 60
        E 120 80 3c 00
        E 360 90 3e 60
        E 120 80 3e 00
        E 240 90 3e 60
        E 120 80 3e 00
        E 240 90 3c 60
        E 120 80 3c 00
        E 240 90 3c 60
        E 120 80 3c 00
        E 240 90 3b 60
        E 120 80 3b 00
        E 360 90 39 60
        E 120 80 39 00
        E 0 80 74 00
        E 240 90 39 60
        E 120 80 39 00
        E 240 90 39 60
        E 120 80 39 00
        E 120 90 39 60
        E 120 80 39 00
        E 360 90 40 60
        E 120 80 40 00
        E 360 90 43 60
        E 120 80 43 00
        E 240 90 43 60
        E 120 80 43 00
        E 240 90 43 60
        E 120 80 43 00
        E 120 90 43 60
        E 120 80 43 00
        E 360 90 41 60
        E 120 80 41 00
        E 360 90 40 60
        E 120 80 40 00
        E 240 90 40 60
        E 120 80 40 00
        E 240 90 40 60
        E 120 80 40 00
        E 120 90 40 60
        E 120 80 40 00
        E 360 90 37 60
        E 120 80 37 00
        E 360 90 3e 60
        E 120 80 3e 00
        E 240 90 3e 60
        E 120 80 3e 00
        E 240 90 3e 60
        E 120 80 3e 00
        E 120 90 3e 60
        E 120 80 3e 00
        E 360 90 3c 60
        E 120 80 3c 00
        E 120 90 3b 60
        E 120 80 3b 00
        E 120 90 39 60
        E 120 80 39 00
        E 240 90 39 60
        E 120 80 39 00
        E 240 90 39 60
        E 120 80 39 00
        E 120 90 39 60
        E 120 80 39 00
        E 360 90 3b 60
        E 120 80 3b 00
        E 360 90 3c 60
        E 120 80 3c 00
        E 240 90 3c 60
        E 120 80 3c 00
        E 240 90 3b 60
        E 120 80 3b 00
        E 240 90 3b 60
        E 120 80 3b 00
        E 240 90 3c 60
        E 120 80 3c 00
        E 360 90 40 60
        E 120 80 40 00
        E 240 90 40 60
        E 120 80 40 00
        E 240 90 3e 60
        E 120 80 3e 00
        E 240 90 3e 60
        E 120 80 3e 00
        E 240 90 3c 60
        E 120 80 3c 00
        E 360 90 3e 60
        E 120 80 3e 00
        E 240 90 3e 60
        E 120 80 3e 00
        E 240 90 3c 60
        E 120 80 3c 00
        E 240 90 3c 60
        E 120 80 3c 00
        E 240 90 3b 60
        E 120 80 3b 00
        E 360 90 35 60
        E 1320 80 35 00
        E 120 90 37 60
        E 120 80 37 00
        E 360 90 3b 60
        E 1320 80 3b 00
        E 120 90 3c 60
        E 120 80 3c 00
        E 360 90 40 60
        E 1320 80 40 00
        E 120 90 41 60
        E 120 80 41 00
        E 360 90 3b 60
        E 120 80 3b 00
        E 120 90 3c 60
        E 120 80 3c 00
        E 120 90 3e 60
        E 120 80 3e 00
        E 120 90 3c 60
        E 120 80 3c 00
        E 120 90 40 60
        E 120 80 40 00
        E 120 90 3e 60
        E 120 80 3e 00
        E 120 90 3c 60
        E 120 80 3c 00
        E 120 90 3b 60
        E 120 80 3b 00
        E 360 90 39 60
        E 120 80 39 00
        E 120 90 3c 60
        E 120 80 3c 00
        E 120 90 39 60
        E 120 80 39 00
        E 120 90 3e 60
        E 120 80 3e 00
        E 120 90 39 60
        E 120 80 39 00
        E 120 90 40 60
        E 120 80 40 00
        E 120 90 39 60
        E 120 80 39 00
        E 360 90 39 60
        E 120 80 39 00
        E 120 90 3c 60
        E 120 80 3c 00
        E 120 90 39 60
        E 120 80 39 00
        E 120 90 3e 60
        E 120 80 3e 00
        E 120 90 39 60
        E 120 80 39 00
        E 120 90 40 60
        E 120 80 40 00
        E 120 90 39 60
        E 120 80 39 00
        E 360 90 39 60
        E 120 80 39 00
        E 120 90 3c 60
        E 120 80 3c 00
        E 120 90 39 60
        E 120 80 39 00
        E 120 90 3e 60
        E 120 80 3e 00
        E 120 90 39 60
        E 120 80 39 00
        E 120 90 40 60
        E 120 80 40 00
        E 120 90 39 60
        E 120 80 39 00
        E 360 90 3e 60
        E 120 80 3e 00
        E 120 90 3c 60
        E 120 80 3c 00
        E 120 90 3b 60
        E 120 80 3b 00
        E 120 90 37 60
        E 120 80 37 00
        E 120 90 40 60
        E 120 80 40 00
        E 120 90 3e 60
        E 120 80 3e 00
        E 120 90 3c 60
        E 120 80 3c 00
        E 120 90 39 60
        E 120 80 39 00
        E 240 90 39 60
        E 120 80 39 00
        E 240 90 39 60
        E 120 80 39 00
        E 120 90 39 60
        E 120 80 39 00
        E 360 90 40 60
        E 120 80 40 00
        E 360 90 43 60
        E 120 80 43 00
        E 240 90 43 60
        E 120 80 43 00
        E 240 90 43 60
        E 120 80 43 00
        E 120 90 43 60
        E 120 80 43 00
        E 360 90 41 60
        E 120 80 41 00
        E 360 90 40 60
        E 120 80 40 00
        E 240 90 40 60
        E 120 80 40 00
        E 240 90 40 60
        E 120 80 40 00
        E 120 90 40 60
        E 120 80 40 00
        E 360 90 37 60
        E 0 90 74 60
        E 120 80 37 00
        E 360 90 3e 60
        E 120 80 3e 00
        E 240 90 3e 60
        E 120 80 3e 00
        E 240 90 3e 60
        E 120 80 3e 00
        E 120 90 3e 60
        E 120 80 3e 00
        E 360 90 3c 60
        E 120 80 3c 00
        E 120 90 3b 60
        E 120 80 3b 00
        E 120 90 39 60
        E 0 80 74 00
        E 120 80 39 00
        E 240 90 39 60
        E 120 80 39 00
        E 240 90 39 60
        E 120 80 39 00
        E 120 90 39 60
        E 120 80 39 00
        E 360 90 3b 60
        E 120 80 3b 00
        E 360 90 3c 60
        E 120 80 3c 00
        E 240 90 3c 60
        E 120 80 3c 00
        E 240 90 3b 60
        E 120 80 3b 00
        E 240 90 3b 60
        E 120 80 3b 00
        E 240 90 3c 60
        E 120 80 3c 00
        E 360 90 40 60
        E 120 80 40 00
        E 240 90 40 60
        E 120 80 40 00
        E 240 90 3e 60
        E 120 80 3e 00
        E 240 90 3e 60
        E 120 80 3e 00
        E 240 90 3c 60
        E 120 80 3c 00
        E 360 90 3e 60
        E 120 80 3e 00
        E 240 90 3e 60
        E 120 80 3e 00
        E 240 90 3c 60
        E 120 80 3c 00
        E 240 90 3c 60
        E 120 80 3c 00
        E 240 90 3b 60
        E 120 80 3b 00
        E 360 90 39 60
        E 120 80 39 00
        E 240 90 39 60
        E 120 80 39 00
        E 240 90 39 60
        E 120 80 39 00
        E 120 90 39 60
        E 120 80 39 00
        E 360 90 40 60
        E 120 80 40 00
        E 360 90 43 60
        E 120 80 43 00
        E 240 90 43 60
        E 120 80 43 00
        E 240 90 43 60
        E 120 80 43 00
        E 120 90 43 60
        E 120 80 43 00
        E 360 90 41 60
        E 120 80 41 00
        E 360 90 40 60
        E 120 80 40 00
        E 240 90 40 60
        E 120 80 40 00
        E 240 90 40 60
        E 120 80 40 00
        E 120 90 40 60
        E 120 80 40 00
        E 360 90 37 60
        E 120 80 37 00
        E 360 90 3e 60
        E 120 80 3e 00
        E 240 90 3e 60
        E 120 80 3e 00
        E 240 90 3e 60
        E 120 80 3e 00
        E 120 90 3e 60
        E 120 80 3e 00
        E 360 90 3c 60
        E 120 80 3c 00
        E 120 90 3b 60
        E 120 80 3b 00
        E 120 90 39 60
        E 120 80 39 00
        E 240 90 39 60
        E 120 80 39 00
        E 240 90 39 60
        E 120 80 39 00
        E 120 90 39 60
        E 120 80 39 00
        E 360 90 3b 60
        E 120 80 3b 00
        E 360 90 3c 60
        E 120 80 3c 00
        E 240 90 3c 60
        E 120 80 3c 00
        E 240 90 3b 60
        E 120 80 3b 00
        E 240 90 3b 60
        E 120 80 3b 00
        E 240 90 3c 60
        E 120 80 3c 00
        E 360 90 40 60
        E 120 80 40 00
        E 240 90 40 60
        E 120 80 40 00
        E 240 90 3e 60
        E 120 80 3e 00
        E 240 90 3e 60
        E 120 80 3e 00
        E 240 90 3c 60
        E 120 80 3c 00
        E 360 90 3e 60
        E 120 80 3e 00
        E 240 90 3e 60
        E 120 80 3e 00
        E 240 90 3c 60
        E 120 80 3c 00
        E 240 90 3c 60
        E 120 80 3c 00
        E 240 90 3b 60
        E 120 80 3b 00
        E 360 90 35 60
        E 1320 80 35 00
        E 120 90 37 60
        E 120 80 37 00
        E 360 90 3b 60
        E 1320 80 3b 00
        E 120 90 3c 60
        E 120 80 3c 00
        E 360 90 40 60
        E 1320 80 40 00
        E 120 90 41 60
        E 120 80 41 00
        E 360 90 3b 60
        E 120 80 3b 00
        E 120 90 3c 60
        E 120 80 3c 00
        E 120 90 3e 60
        E 120 80 3e 00
        E 120 90 3c 60
        E 120 80 3c 00
        E 120 90 40 60
        E 120 80 40 00
        E 120 90 3e 60
        E 120 80 3e 00
        E 120 90 3c 60
        E 120 80 3c 00
        E 120 90 3b 60
        E 120 80 3b 00
        E 360 90 39 60
        E 120 80 39 00
        E 120 90 3c 60
        E 120 80 3c 00
        E 120 90 39 60
        E 120 80 39 00
        E 120 90 3e 60
        E 120 80 3e 00
        E 120 90 39 60
        E 120 80 39 00
        E 120 90 40 60
        E 120 80 40 00
        E 120 90 39 60
        E 120 80 39 00
        E 360 90 39 60
        E 120 80 39 00
        E 120 90 3c 60
        E 120 80 3c 00
        E 120 90 39 60
        E 120 80 39 00
        E 120 90 3e 60
        E 120 80 3e 00
        E 120 90 39 60
        E 120 80 39 00
        E 120 90 40 60
        E 120 80 40 00
        E 120 90 39 60
        E 120 80 39 00
        E 360 90 39 60
        E 120 80 39 00
        E 120 90 3c 60
        E 120 80 3c 00
        E 120 90 39 60
        E 120 80 39 00
        E 120 90 3e 60
        E 120 80 3e 00
        E 120 90 39 60
        E 120 80 39 00
        E 120 90 40 60
        E 120 80 40 00
        E 120 90 39 60
        E 120 80 39 00
        E 360 90 3e 60
        E 120 80 3e 00
        E 120 90 3c 60
        E 120 80 3c 00
        E 120 90 3b 60
        E 120 80 3b 00
        E 120 90 37 60
        E 120 80 37 00
        E 120 90 40 60
        E 120 80 40 00
        E 120 90 3e 60
        E 120 80 3e 00
        E 120 90 3c 60
        E 120 80 3c 00
        E 3960 b0 7b 00
        GUID {BCC3A686-714B-4EDC-9932-8CD3A1CDC05E}
        IGNTEMPO 0 120.00000000 4 4
        SRCCOLOR 3
        VELLANE 132 128 60
        COLORMAP "C:\Program Files\REAPER (x64)\Data\color_maps\rockband_guitarbass.png"
        TEXTSTRINGFILE "C:\Program Files\REAPER (x64)\Data\Text_Strings\Text Events List - PRO Trainers.txt"
        CFGEDITVIEW -7792.867679 11.640121 0 13 0 0 0
        CFGEDIT 1 1 0 1 1 0 1 1 1 1 1 0.25000000 -8 -8 1544 872 0 2 1 1 0.00000000 0 1 0 0 0.500000 0 0 1.000000 64
        KEYSNAP 0 6 "102030050700" 0 "Pentatonic"
        EVTFILTER 0 -1 -1 -1 -1 0 1 0 0 -1.00000000 -1.00000000
      >
    >
  >
  <TRACK '{5C3A4772-355E-43B1-8142-41E329A9585E}'
    NAME "PART REAL_KEYS_H"
    PEAKCOL 16576
    BEAT -1
    AUTOMODE 0
    VOLPAN 1.00000000000000 0.00000000000000 -1.00000000000000 -1.00000000000000 1.00000000000000
    MUTESOLO 0 0 0
    IPHASE 0
    ISBUS 0 0
    BUSCOMP 0 0
    SHOWINMIX 1 0.666700 0.500000 1 0.500000 -1 -1 -1
    FREEMODE 0
    SEL 0
    REC 0 0 0 0 0 0 0
    VU 2
    TRACKHEIGHT 0 0
    INQ 0 0 0 0.5000000000 100 0 0 100
    NCHAN 2
    FX 0
    TRACKID {5C3A4772-355E-43B1-8142-41E329A9585E}
    PERF 0
    MIDIOUT -1
    <MIDINOTENAMES
      0 72 "Highest playable note B#3"
      0 71 "B3"
      0 70 "A#3"
      0 69 "A3"
      0 68 "G#3"
      0 67 "G3"
      0 66 "F#3"
      0 65 "F3"
      0 64 "E3"
      0 63 "D#3"
      0 62 "D3"
      0 61 "C#3"
      0 60 "C3"
      0 59 "B2"
      0 58 "A#2"
      0 57 "A2"
      0 56 "G#2"
      0 55 "G2"
      0 54 "F#2"
      0 53 "F2"
      0 52 "E2"
      0 51 "D#2"
      0 50 "D2"
      0 49 "C#2"
      0 48 "Lowest playable note C2"
      0 10 "---"
      0 9 "Range A2-C4"
      0 8 "Range"
      0 7 "Range"
      0 6 "Range"
      0 5 "Range F2-A3"
      0 4 "Range"
      0 3 "Range"
      0 2 "Range"
      0 1 "Range"
      0 0 "Range C2-E3"
    >
    MAINSEND 1 0
    <FXCHAIN
      WNDRECT 0 43 729 467
      SHOW 0
      LASTSEL 0
      DOCKED 0
    >
    <ITEM
      POSITION 0.00000000000000
      SNAPOFFS 0.00000000000000
      LENGTH 108.01200133348151
      LOOP 0
      ALLTAKES 0
      SEL 0
      FADEIN 1 0.000000 0.000000 1 0
      FADEOUT 1 0.000000 0.000000 1 0
      MUTE 0
      IGUID {710475DA-004A-4730-B8E9-B456994EB5D4}
      IID 13
      NAME "PART REAL_KEYS_H"
      VOLPAN 1.000000 0.000000 1.000000 -1.000000
      SOFFS 0.00000000000000 0.00000000000000
      PLAYRATE 1.00000000000000 1 0.00000000000000 -1
      CHANMODE 0
      GUID {F08E9EFA-2AF6-43B5-A376-20D1E44F33B8}
      <SOURCE MIDI
        HASDATA 1 480 QN
        POOLEDEVTS {69A01820-EF7B-4321-A859-A1ABBF8CA469}
        <X 0 0
          /wNQQVJUIFJFQUxfS0VZU19I
        >
        e 0 90 05 60
        e 120 80 05 00
        E 6120 90 3c 60
        E 120 80 3c 00
        E 360 90 3e 60
        E 120 80 3e 00
        E 360 90 40 60
        E 120 80 40 00
        E 840 90 3c 60
        E 120 80 3c 00
        E 360 90 3e 60
        E 120 80 3e 00
        E 360 90 40 60
        E 120 80 40 00
        E 840 90 3c 60
        E 120 80 3c 00
        E 360 90 3e 60
        E 120 80 3e 00
        E 360 90 40 60
        E 120 80 40 00
        E 840 90 3c 60
        E 120 80 3c 00
        E 360 90 37 60
        E 120 80 37 00
        E 360 90 3e 60
        E 120 80 3e 00
        E 360 90 39 60
        E 120 80 39 00
        E 840 90 39 60
        E 120 80 39 00
        E 360 90 40 60
        E 120 80 40 00
        E 360 90 43 60
        E 120 80 43 00
        E 840 90 43 60
        E 120 80 43 00
        E 360 90 41 60
        E 120 80 41 00
        E 360 90 40 60
        E 120 80 40 00
        E 840 90 40 60
        E 120 80 40 00
        E 360 90 37 60
        E 120 80 37 00
        E 360 90 3e 60
        E 120 80 3e 00
        E 840 90 3e 60
        E 120 80 3e 00
        E 360 90 3c 60
        E 120 80 3c 00
        E 360 90 39 60
        E 120 80 39 00
        E 840 90 39 60
        E 120 80 39 00
        E 360 90 3b 60
        E 120 80 3b 00
        E 360 90 3c 60
        E 120 80 3c 00
        E 600 90 3b 60
        E 120 80 3b 00
        E 600 90 3c 60
        E 120 80 3c 00
        E 360 90 40 60
        E 120 80 40 00
        E 600 90 3e 60
        E 120 80 3e 00
        E 600 90 3c 60
        E 120 80 3c 00
        E 360 90 3e 60
        E 120 80 3e 00
        E 600 90 3c 60
        E 120 80 3c 00
        E 600 90 3b 60
        E 120 80 3b 00
        E 360 90 39 60
        E 120 80 39 00
        E 840 90 39 60
        E 120 80 39 00
        E 360 90 40 60
        E 120 80 40 00
        E 360 90 43 60
        E 120 80 43 00
        E 840 90 43 60
        E 120 80 43 00
        E 360 90 41 60
        E 120 80 41 00
        E 360 90 40 60
        E 120 80 40 00
        E 840 90 40 60
        E 120 80 40 00
        E 360 90 37 60
        E 120 80 37 00
        E 360 90 3e 60
        E 120 80 3e 00
        E 840 90 3e 60
        E 120 80 3e 00
        E 360 90 3c 60
        E 120 80 3c 00
        E 360 90 39 60
        E 120 80 39 00
        E 840 90 39 60
        E 120 80 39 00
        E 360 90 3b 60
        E 120 80 3b 00
        E 360 90 3c 60
        E 120 80 3c 00
        E 600 90 3b 60
        E 120 80 3b 00
        E 600 90 3c 60
        E 120 80 3c 00
        E 360 90 40 60
        E 120 80 40 00
        E 600 90 3e 60
        E 120 80 3e 00
        E 600 90 3c 60
        E 120 80 3c 00
        E 360 90 3e 60
        E 120 80 3e 00
        E 600 90 3c 60
        E 120 80 3c 00
        E 600 90 3b 60
        E 120 80 3b 00
        E 360 90 35 60
        E 1320 80 35 00
        E 120 90 37 60
        E 120 80 37 00
        E 360 90 3b 60
        E 1320 80 3b 00
        E 120 90 3c 60
        E 120 80 3c 00
        E 360 90 40 60
        E 1320 80 40 00
        E 120 90 41 60
        E 120 80 41 00
        E 360 90 3b 60
        E 120 80 3b 00
        E 360 90 3e 60
        E 120 80 3e 00
        E 360 90 40 60
        E 120 80 40 00
        E 360 90 3c 60
        E 120 80 3c 00
        E 840 90 3c 60
        E 120 80 3c 00
        E 360 90 3e 60
        E 120 80 3e 00
        E 360 90 40 60
        E 120 80 40 00
        E 840 90 3c 60
        E 120 80 3c 00
        E 360 90 3e 60
        E 120 80 3e 00
        E 360 90 40 60
        E 120 80 40 00
        E 840 90 3c 60
        E 120 80 3c 00
        E 360 90 3e 60
        E 120 80 3e 00
        E 360 90 40 60
        E 120 80 40 00
        E 840 90 3c 60
        E 120 80 3c 00
        E 360 90 37 60
        E 120 80 37 00
        E 360 90 3e 60
        E 120 80 3e 00
        E 360 90 39 60
        E 120 80 39 00
        E 840 90 39 60
        E 120 80 39 00
        E 360 90 40 60
        E 120 80 40 00
        E 360 90 43 60
        E 120 80 43 00
        E 840 90 43 60
        E 120 80 43 00
        E 360 90 41 60
        E 120 80 41 00
        E 360 90 40 60
        E 120 80 40 00
        E 840 90 40 60
        E 120 80 40 00
        E 360 90 37 60
        E 120 80 37 00
        E 360 90 3e 60
        E 120 80 3e 00
        E 840 90 3e 60
        E 120 80 3e 00
        E 360 90 3c 60
        E 120 80 3c 00
        E 360 90 39 60
        E 120 80 39 00
        E 840 90 39 60
        E 120 80 39 00
        E 360 90 3b 60
        E 120 80 3b 00
        E 360 90 3c 60
        E 120 80 3c 00
        E 600 90 3b 60
        E 120 80 3b 00
        E 600 90 3c 60
        E 120 80 3c 00
        E 360 90 40 60
        E 120 80 40 00
        E 600 90 3e 60
        E 120 80 3e 00
        E 600 90 3c 60
        E 120 80 3c 00
        E 360 90 3e 60
        E 120 80 3e 00
        E 600 90 3c 60
        E 120 80 3c 00
        E 600 90 3b 60
        E 120 80 3b 00
        E 360 90 39 60
        E 120 80 39 00
        E 840 90 39 60
        E 120 80 39 00
        E 360 90 40 60
        E 120 80 40 00
        E 360 90 43 60
        E 120 80 43 00
        E 840 90 43 60
        E 120 80 43 00
        E 360 90 41 60
        E 120 80 41 00
        E 360 90 40 60
        E 120 80 40 00
        E 840 90 40 60
        E 120 80 40 00
        E 360 90 37 60
        E 120 80 37 00
        E 360 90 3e 60
        E 120 80 3e 00
        E 840 90 3e 60
        E 120 80 3e 00
        E 360 90 3c 60
        E 120 80 3c 00
        E 360 90 39 60
        E 120 80 39 00
        E 840 90 39 60
        E 120 80 39 00
        E 360 90 3b 60
        E 120 80 3b 00
        E 360 90 3c 60
        E 120 80 3c 00
        E 600 90 3b 60
        E 120 80 3b 00
        E 600 90 3c 60
        E 120 80 3c 00
        E 360 90 40 60
        E 120 80 40 00
        E 600 90 3e 60
        E 120 80 3e 00
        E 600 90 3c 60
        E 120 80 3c 00
        E 360 90 3e 60
        E 120 80 3e 00
        E 600 90 3c 60
        E 120 80 3c 00
        E 600 90 3b 60
        E 120 80 3b 00
        E 360 90 35 60
        E 1320 80 35 00
        E 120 90 37 60
        E 120 80 37 00
        E 360 90 3b 60
        E 1320 80 3b 00
        E 120 90 3c 60
        E 120 80 3c 00
        E 360 90 40 60
        E 1320 80 40 00
        E 120 90 41 60
        E 120 80 41 00
        E 360 90 3b 60
        E 120 80 3b 00
        E 360 90 3e 60
        E 120 80 3e 00
        E 360 90 40 60
        E 120 80 40 00
        E 360 90 3c 60
        E 120 80 3c 00
        E 840 90 3c 60
        E 120 80 3c 00
        E 360 90 3e 60
        E 120 80 3e 00
        E 360 90 40 60
        E 120 80 40 00
        E 840 90 3c 60
        E 120 80 3c 00
        E 360 90 3e 60
        E 120 80 3e 00
        E 360 90 40 60
        E 120 80 40 00
        E 840 90 3c 60
        E 120 80 3c 00
        E 360 90 3e 60
        E 120 80 3e 00
        E 360 90 40 60
        E 120 80 40 00
        E 840 90 3c 60
        E 120 80 3c 00
        E 360 90 37 60
        E 120 80 37 00
        E 360 90 3e 60
        E 120 80 3e 00
        E 360 90 39 60
        E 120 80 39 00
        E 840 90 39 60
        E 120 80 39 00
        E 360 90 40 60
        E 120 80 40 00
        E 360 90 43 60
        E 120 80 43 00
        E 840 90 43 60
        E 120 80 43 00
        E 360 90 41 60
        E 120 80 41 00
        E 360 90 40 60
        E 120 80 40 00
        E 840 90 40 60
        E 120 80 40 00
        E 360 90 37 60
        E 120 80 37 00
        E 360 90 3e 60
        E 120 80 3e 00
        E 840 90 3e 60
        E 120 80 3e 00
        E 360 90 3c 60
        E 120 80 3c 00
        E 360 90 39 60
        E 120 80 39 00
        E 840 90 39 60
        E 120 80 39 00
        E 360 90 3b 60
        E 120 80 3b 00
        E 360 90 3c 60
        E 120 80 3c 00
        E 600 90 3b 60
        E 120 80 3b 00
        E 600 90 3c 60
        E 120 80 3c 00
        E 360 90 40 60
        E 120 80 40 00
        E 600 90 3e 60
        E 120 80 3e 00
        E 600 90 3c 60
        E 120 80 3c 00
        E 360 90 3e 60
        E 120 80 3e 00
        E 600 90 3c 60
        E 120 80 3c 00
        E 600 90 3b 60
        E 120 80 3b 00
        E 360 90 39 60
        E 120 80 39 00
        E 840 90 39 60
        E 120 80 39 00
        E 360 90 40 60
        E 120 80 40 00
        E 360 90 43 60
        E 120 80 43 00
        E 840 90 43 60
        E 120 80 43 00
        E 360 90 41 60
        E 120 80 41 00
        E 360 90 40 60
        E 120 80 40 00
        E 840 90 40 60
        E 120 80 40 00
        E 360 90 37 60
        E 120 80 37 00
        E 360 90 3e 60
        E 120 80 3e 00
        E 840 90 3e 60
        E 120 80 3e 00
        E 360 90 3c 60
        E 120 80 3c 00
        E 360 90 39 60
        E 120 80 39 00
        E 840 90 39 60
        E 120 80 39 00
        E 360 90 3b 60
        E 120 80 3b 00
        E 360 90 3c 60
        E 120 80 3c 00
        E 600 90 3b 60
        E 120 80 3b 00
        E 600 90 3c 60
        E 120 80 3c 00
        E 360 90 40 60
        E 120 80 40 00
        E 600 90 3e 60
        E 120 80 3e 00
        E 600 90 3c 60
        E 120 80 3c 00
        E 360 90 3e 60
        E 120 80 3e 00
        E 600 90 3c 60
        E 120 80 3c 00
        E 600 90 3b 60
        E 120 80 3b 00
        E 360 90 35 60
        E 1320 80 35 00
        E 120 90 37 60
        E 120 80 37 00
        E 360 90 3b 60
        E 1320 80 3b 00
        E 120 90 3c 60
        E 120 80 3c 00
        E 360 90 40 60
        E 1320 80 40 00
        E 120 90 41 60
        E 120 80 41 00
        E 360 90 3b 60
        E 120 80 3b 00
        E 360 90 3e 60
        E 120 80 3e 00
        E 360 90 40 60
        E 120 80 40 00
        E 360 90 3c 60
        E 120 80 3c 00
        E 840 90 3c 60
        E 120 80 3c 00
        E 360 90 3e 60
        E 120 80 3e 00
        E 360 90 40 60
        E 120 80 40 00
        E 840 90 3c 60
        E 120 80 3c 00
        E 360 90 3e 60
        E 120 80 3e 00
        E 360 90 40 60
        E 120 80 40 00
        E 840 90 3c 60
        E 120 80 3c 00
        E 360 90 3e 60
        E 120 80 3e 00
        E 360 90 40 60
        E 120 80 40 00
        E 840 90 3c 60
        E 120 80 3c 00
        E 360 90 37 60
        E 120 80 37 00
        E 360 90 3e 60
        E 120 80 3e 00
        E 4200 b0 7b 00
        GUID {BCC3A686-714B-4EDC-9932-8CD3A1CDC05E}
        IGNTEMPO 0 120.00000000 4 4
        SRCCOLOR 3
        VELLANE 132 128 60
        COLORMAP "C:\Program Files\REAPER (x64)\Data\color_maps\rockband_guitarbass.png"
        CFGEDITVIEW -382.302889 274.934674 0 15 0 0 0
        CFGEDIT 1 1 0 1 1 0 1 1 1 1 1 0.25000000 -8 -8 1544 872 0 2 1 1 0.00000000 0 1 0 0 0.500000 0 0 1.000000 64
        KEYSNAP 0 6 "102030050700" 0 "Pentatonic"
        EVTFILTER 0 -1 -1 -1 -1 0 1 0 0 -1.00000000 -1.00000000
      >
    >
  >
  <TRACK '{BF9A4DF7-0D52-4C03-BD19-84A02CF58B9C}'
    NAME "PART REAL_KEYS_M"
    PEAKCOL 16576
    BEAT -1
    AUTOMODE 0
    VOLPAN 1.00000000000000 0.00000000000000 -1.00000000000000 -1.00000000000000 1.00000000000000
    MUTESOLO 0 0 0
    IPHASE 0
    ISBUS 0 0
    BUSCOMP 0 0
    SHOWINMIX 1 0.666700 0.500000 1 0.500000 -1 -1 -1
    FREEMODE 0
    SEL 0
    REC 0 0 0 0 0 0 0
    VU 2
    TRACKHEIGHT 0 0
    INQ 0 0 0 0.5000000000 100 0 0 100
    NCHAN 2
    FX 0
    TRACKID {BF9A4DF7-0D52-4C03-BD19-84A02CF58B9C}
    PERF 0
    MIDIOUT -1
    <MIDINOTENAMES
      0 72 "Highest playable note B#3"
      0 71 "B3"
      0 70 "A#3"
      0 69 "A3"
      0 68 "G#3"
      0 67 "G3"
      0 66 "F#3"
      0 65 "F3"
      0 64 "E3"
      0 63 "D#3"
      0 62 "D3"
      0 61 "C#3"
      0 60 "C3"
      0 59 "B2"
      0 58 "A#2"
      0 57 "A2"
      0 56 "G#2"
      0 55 "G2"
      0 54 "F#2"
      0 53 "F2"
      0 52 "E2"
      0 51 "D#2"
      0 50 "D2"
      0 49 "C#2"
      0 48 "Lowest playable note C2"
      0 10 "---"
      0 9 "Range A2-C4"
      0 8 "Range"
      0 7 "Range"
      0 6 "Range"
      0 5 "Range F2-A3"
      0 4 "Range"
      0 3 "Range"
      0 2 "Range"
      0 1 "Range"
      0 0 "Range C2-E3"
    >
    MAINSEND 1 0
    <FXCHAIN
      WNDRECT 0 43 655 467
      SHOW 0
      LASTSEL 1
      DOCKED 0
      BYPASS 0 0
      <JS "MIDI/midi_note_filter" ""
        48.000000 72.000000 - - - - - - - - - - - - - - - - - - - - - - - - - - - - - - - - - - - - - - - - - - - - - - - - - - - - - - - - - - - - - - 
      >
      FLOATPOS 0 0 0 0
      FXID {D1901D72-8F4D-4A8E-A9CF-BC66DC3E5953}
      WAK 0
      BYPASS 0 0
      <VST "VSTi: ReaSynth (Cockos)" "reasynth.dll" 0 ""
        eXNlcu9e7f4AAAAAAgAAAAEAAAAAAAAAAgAAAAAAAAA4AAAAAAAAAA==
        AAAQAO++rd4N8K3eppvEOxe30ToAAIA/AAAAAAAAAADMm4A+6WeIPQ==
        AAAAAAAAAD8AAIA/AACAPwAAAD8AABAAAAA=
      >
      FLOATPOS 0 0 0 0
      FXID {4D0A6F07-F594-4BFF-9447-613494089B65}
      WAK 0
    >
    <ITEM
      POSITION 0.00000000000000
      SNAPOFFS 0.00000000000000
      LENGTH 108.01200133348151
      LOOP 0
      ALLTAKES 0
      SEL 0
      FADEIN 1 0.000000 0.000000 1 0
      FADEOUT 1 0.000000 0.000000 1 0
      MUTE 0
      IGUID {710475DA-004A-4730-B8E9-B456994EB5D4}
      IID 13
      NAME "PART REAL_KEYS_M"
      VOLPAN 1.000000 0.000000 1.000000 -1.000000
      SOFFS 0.00000000000000 0.00000000000000
      PLAYRATE 1.00000000000000 1 0.00000000000000 -1
      CHANMODE 0
      GUID {F08E9EFA-2AF6-43B5-A376-20D1E44F33B8}
      <SOURCE MIDI
        HASDATA 1 480 QN
        POOLEDEVTS {F6FCFCBB-3934-48F5-9852-E6F9E32DA89E}
        <X 0 0
          /wNQQVJUIFJFQUxfS0VZU19N
        >
        E 0 90 05 60
        E 120 80 05 00
        E 6600 90 3e 60
        E 120 80 3e 00
        E 1800 90 3e 60
        E 120 80 3e 00
        E 1800 90 3e 60
        E 120 80 3e 00
        E 1800 90 37 60
        E 120 80 37 00
        E 840 90 39 60
        E 120 80 39 00
        E 840 90 39 60
        E 120 80 39 00
        E 840 90 43 60
        E 120 80 43 00
        E 840 90 43 60
        E 120 80 43 00
        E 840 90 40 60
        E 120 80 40 00
        E 840 90 40 60
        E 120 80 40 00
        E 840 90 3e 60
        E 120 80 3e 00
        E 840 90 3e 60
        E 120 80 3e 00
        E 840 90 39 60
        E 120 80 39 00
        E 840 90 39 60
        E 120 80 39 00
        E 840 90 3c 60
        E 120 80 3c 00
        E 1800 90 40 60
        E 120 80 40 00
        E 1800 90 3e 60
        E 120 80 3e 00
        E 1800 90 39 60
        E 120 80 39 00
        E 840 90 39 60
        E 120 80 39 00
        E 840 90 43 60
        E 120 80 43 00
        E 840 90 43 60
        E 120 80 43 00
        E 840 90 40 60
        E 120 80 40 00
        E 840 90 40 60
        E 120 80 40 00
        E 840 90 3e 60
        E 120 80 3e 00
        E 840 90 3e 60
        E 120 80 3e 00
        E 840 90 39 60
        E 120 80 39 00
        E 840 90 39 60
        E 120 80 39 00
        E 840 90 3c 60
        E 120 80 3c 00
        E 1800 90 40 60
        E 120 80 40 00
        E 1800 90 3e 60
        E 120 80 3e 00
        E 1800 90 35 60
        E 1320 80 35 00
        E 600 90 3b 60
        E 1320 80 3b 00
        E 600 90 40 60
        E 1320 80 40 00
        E 600 90 3b 60
        E 120 80 3b 00
        E 840 90 40 60
        E 120 80 40 00
        E 1800 90 3e 60
        E 120 80 3e 00
        E 1800 90 3e 60
        E 120 80 3e 00
        E 1800 90 3e 60
        E 120 80 3e 00
        E 1800 90 37 60
        E 120 80 37 00
        E 840 90 39 60
        E 120 80 39 00
        E 840 90 39 60
        E 120 80 39 00
        E 840 90 43 60
        E 120 80 43 00
        E 840 90 43 60
        E 120 80 43 00
        E 840 90 40 60
        E 120 80 40 00
        E 840 90 40 60
        E 120 80 40 00
        E 840 90 3e 60
        E 120 80 3e 00
        E 840 90 3e 60
        E 120 80 3e 00
        E 840 90 39 60
        E 120 80 39 00
        E 840 90 39 60
        E 120 80 39 00
        E 840 90 3c 60
        E 120 80 3c 00
        E 1800 90 40 60
        E 120 80 40 00
        E 1800 90 3e 60
        E 120 80 3e 00
        E 1800 90 39 60
        E 120 80 39 00
        E 840 90 39 60
        E 120 80 39 00
        E 840 90 43 60
        E 120 80 43 00
        E 840 90 43 60
        E 120 80 43 00
        E 840 90 40 60
        E 120 80 40 00
        E 840 90 40 60
        E 120 80 40 00
        E 840 90 3e 60
        E 120 80 3e 00
        E 840 90 3e 60
        E 120 80 3e 00
        E 840 90 39 60
        E 120 80 39 00
        E 840 90 39 60
        E 120 80 39 00
        E 840 90 3c 60
        E 120 80 3c 00
        E 1800 90 40 60
        E 120 80 40 00
        E 1800 90 3e 60
        E 120 80 3e 00
        E 1800 90 35 60
        E 1320 80 35 00
        E 600 90 3b 60
        E 1320 80 3b 00
        E 600 90 40 60
        E 1320 80 40 00
        E 600 90 3b 60
        E 120 80 3b 00
        E 840 90 40 60
        E 120 80 40 00
        E 1800 90 3e 60
        E 120 80 3e 00
        E 1800 90 3e 60
        E 120 80 3e 00
        E 1800 90 3e 60
        E 120 80 3e 00
        E 1800 90 37 60
        E 120 80 37 00
        E 840 90 39 60
        E 120 80 39 00
        E 840 90 39 60
        E 120 80 39 00
        E 840 90 43 60
        E 120 80 43 00
        E 840 90 43 60
        E 120 80 43 00
        E 840 90 40 60
        E 120 80 40 00
        E 840 90 40 60
        E 120 80 40 00
        E 840 90 3e 60
        E 120 80 3e 00
        E 840 90 3e 60
        E 120 80 3e 00
        E 840 90 39 60
        E 120 80 39 00
        E 840 90 39 60
        E 120 80 39 00
        E 840 90 3c 60
        E 120 80 3c 00
        E 1800 90 40 60
        E 120 80 40 00
        E 1800 90 3e 60
        E 120 80 3e 00
        E 1800 90 39 60
        E 120 80 39 00
        E 840 90 39 60
        E 120 80 39 00
        E 840 90 43 60
        E 120 80 43 00
        E 840 90 43 60
        E 120 80 43 00
        E 840 90 40 60
        E 120 80 40 00
        E 840 90 40 60
        E 120 80 40 00
        E 840 90 3e 60
        E 120 80 3e 00
        E 840 90 3e 60
        E 120 80 3e 00
        E 840 90 39 60
        E 120 80 39 00
        E 840 90 39 60
        E 120 80 39 00
        E 840 90 3c 60
        E 120 80 3c 00
        E 1800 90 40 60
        E 120 80 40 00
        E 1800 90 3e 60
        E 120 80 3e 00
        E 1800 90 35 60
        E 1320 80 35 00
        E 600 90 3b 60
        E 1320 80 3b 00
        E 600 90 40 60
        E 1320 80 40 00
        E 600 90 3b 60
        E 120 80 3b 00
        E 840 90 40 60
        E 120 80 40 00
        E 1800 90 3e 60
        E 120 80 3e 00
        E 1800 90 3e 60
        E 120 80 3e 00
        E 1800 90 3e 60
        E 120 80 3e 00
        E 1800 90 37 60
        E 120 80 37 00
        E 4680 b0 7b 00
        GUID {BCC3A686-714B-4EDC-9932-8CD3A1CDC05E}
        IGNTEMPO 0 120.00000000 4 4
        SRCCOLOR 3
        VELLANE 132 128 60
        COLORMAP "C:\Program Files\REAPER (x64)\Data\color_maps\rockband_guitarbass.png"
        CFGEDITVIEW 2597.679956 160.186692 0 15 0 0 0
        CFGEDIT 1 1 0 1 1 0 1 1 1 1 1 0.25000000 -8 -8 1544 872 0 2 1 1 0.00000000 0 1 0 0 0.500000 0 0 1.000000 64
        KEYSNAP 0 6 "102030050700" 0 "Pentatonic"
        EVTFILTER 0 -1 -1 -1 -1 0 1 0 0 -1.00000000 -1.00000000
      >
    >
  >
  <TRACK '{9314B9C5-EF27-4DE7-AE7C-E340C03CF3A7}'
    NAME "PART REAL_KEYS_E"
    PEAKCOL 16576
    BEAT -1
    AUTOMODE 0
    VOLPAN 1.00000000000000 0.00000000000000 -1.00000000000000 -1.00000000000000 1.00000000000000
    MUTESOLO 0 0 0
    IPHASE 0
    ISBUS 0 0
    BUSCOMP 0 0
    SHOWINMIX 1 0.666700 0.500000 1 0.500000 -1 -1 -1
    FREEMODE 0
    SEL 0
    REC 0 0 0 0 0 0 0
    VU 2
    TRACKHEIGHT 0 0
    INQ 0 0 0 0.5000000000 100 0 0 100
    NCHAN 2
    FX 0
    TRACKID {9314B9C5-EF27-4DE7-AE7C-E340C03CF3A7}
    PERF 0
    MIDIOUT -1
    <MIDINOTENAMES
      0 72 "Highest playable note B#3"
      0 71 "B3"
      0 70 "A#3"
      0 69 "A3"
      0 68 "G#3"
      0 67 "G3"
      0 66 "F#3"
      0 65 "F3"
      0 64 "E3"
      0 63 "D#3"
      0 62 "D3"
      0 61 "C#3"
      0 60 "C3"
      0 59 "B2"
      0 58 "A#2"
      0 57 "A2"
      0 56 "G#2"
      0 55 "G2"
      0 54 "F#2"
      0 53 "F2"
      0 52 "E2"
      0 51 "D#2"
      0 50 "D2"
      0 49 "C#2"
      0 48 "Lowest playable note C2"
      0 10 "---"
      0 9 "Range A2-C4"
      0 8 "Range"
      0 7 "Range"
      0 6 "Range"
      0 5 "Range F2-A3"
      0 4 "Range"
      0 3 "Range"
      0 2 "Range"
      0 1 "Range"
      0 0 "Range C2-E3"
    >
    MAINSEND 1 0
    <FXCHAIN
      WNDRECT 0 43 655 467
      SHOW 0
      LASTSEL 1
      DOCKED 0
      BYPASS 0 0
      <JS "MIDI/midi_note_filter" ""
        48.000000 72.000000 - - - - - - - - - - - - - - - - - - - - - - - - - - - - - - - - - - - - - - - - - - - - - - - - - - - - - - - - - - - - - - 
      >
      FLOATPOS 0 0 0 0
      FXID {D1901D72-8F4D-4A8E-A9CF-BC66DC3E5953}
      WAK 0
      BYPASS 0 0
      <VST "VSTi: ReaSynth (Cockos)" "reasynth.dll" 0 ""
        eXNlcu9e7f4AAAAAAgAAAAEAAAAAAAAAAgAAAAAAAAA4AAAAAAAAAA==
        AAAQAO++rd4N8K3eppvEOxe30ToAAIA/AAAAAAAAAADMm4A+6WeIPQ==
        AAAAAAAAAD8AAIA/AACAPwAAAD8AABAAAAA=
      >
      FLOATPOS 0 0 0 0
      FXID {4D0A6F07-F594-4BFF-9447-613494089B65}
      WAK 0
    >
    <ITEM
      POSITION 0.00000000000000
      SNAPOFFS 0.00000000000000
      LENGTH 108.01200133348151
      LOOP 0
      ALLTAKES 0
      SEL 0
      FADEIN 1 0.000000 0.000000 1 0
      FADEOUT 1 0.000000 0.000000 1 0
      MUTE 0
      IGUID {710475DA-004A-4730-B8E9-B456994EB5D4}
      IID 13
      NAME "PART REAL_KEYS_E"
      VOLPAN 1.000000 0.000000 1.000000 -1.000000
      SOFFS 0.00000000000000 0.00000000000000
      PLAYRATE 1.00000000000000 1 0.00000000000000 -1
      CHANMODE 0
      GUID {F08E9EFA-2AF6-43B5-A376-20D1E44F33B8}
      <SOURCE MIDI
        HASDATA 1 480 QN
        POOLEDEVTS {8F274AC6-1501-4E79-9F06-A2DFE631BD95}
        <X 0 0
          /wNQQVJUIFJFQUxfS0VZU19F
        >
        E 0 90 05 60
        E 120 80 05 00
        E 6600 90 3e 60
        E 120 80 3e 00
        E 1800 90 3e 60
        E 120 80 3e 00
        E 1800 90 3e 60
        E 120 80 3e 00
        e 1800 90 37 60
        e 120 80 37 00
        E 840 90 39 60
        E 120 80 39 00
        E 1800 90 43 60
        E 120 80 43 00
        E 1800 90 40 60
        E 120 80 40 00
        E 1800 90 3e 60
        E 120 80 3e 00
        E 1800 90 39 60
        E 120 80 39 00
        E 1800 90 3c 60
        E 120 80 3c 00
        E 1800 90 40 60
        E 120 80 40 00
        E 1800 90 3e 60
        E 120 80 3e 00
        E 1800 90 39 60
        E 120 80 39 00
        E 1800 90 43 60
        E 120 80 43 00
        E 1800 90 40 60
        E 120 80 40 00
        E 1800 90 3e 60
        E 120 80 3e 00
        E 1800 90 39 60
        E 120 80 39 00
        E 1800 90 3c 60
        E 120 80 3c 00
        E 1800 90 40 60
        E 120 80 40 00
        E 1800 90 3e 60
        E 120 80 3e 00
        E 1800 90 35 60
        E 1320 80 35 00
        E 600 90 3b 60
        E 1320 80 3b 00
        E 600 90 40 60
        E 1320 80 40 00
        E 600 90 3b 60
        E 120 80 3b 00
        E 2760 90 3e 60
        E 120 80 3e 00
        E 1800 90 3e 60
        E 120 80 3e 00
        E 1800 90 3e 60
        E 120 80 3e 00
        E 2760 90 39 60
        E 120 80 39 00
        E 1800 90 43 60
        E 120 80 43 00
        E 1800 90 40 60
        E 120 80 40 00
        E 1800 90 3e 60
        E 120 80 3e 00
        E 1800 90 39 60
        E 120 80 39 00
        E 1800 90 3c 60
        E 120 80 3c 00
        E 1800 90 40 60
        E 120 80 40 00
        E 1800 90 3e 60
        E 120 80 3e 00
        E 1800 90 39 60
        E 120 80 39 00
        E 1800 90 43 60
        E 120 80 43 00
        E 1800 90 40 60
        E 120 80 40 00
        E 1800 90 3e 60
        E 120 80 3e 00
        E 1800 90 39 60
        E 120 80 39 00
        E 1800 90 3c 60
        E 120 80 3c 00
        E 1800 90 40 60
        E 120 80 40 00
        E 1800 90 3e 60
        E 120 80 3e 00
        E 1800 90 35 60
        E 1320 80 35 00
        E 600 90 3b 60
        E 1320 80 3b 00
        E 600 90 40 60
        E 1320 80 40 00
        E 600 90 3b 60
        E 120 80 3b 00
        E 2760 90 3e 60
        E 120 80 3e 00
        E 1800 90 3e 60
        E 120 80 3e 00
        E 1800 90 3e 60
        E 120 80 3e 00
        E 2760 90 39 60
        E 120 80 39 00
        E 1800 90 43 60
        E 120 80 43 00
        E 1800 90 40 60
        E 120 80 40 00
        E 1800 90 3e 60
        E 120 80 3e 00
        E 1800 90 39 60
        E 120 80 39 00
        E 1800 90 3c 60
        E 120 80 3c 00
        E 1800 90 40 60
        E 120 80 40 00
        E 1800 90 3e 60
        E 120 80 3e 00
        E 1800 90 39 60
        E 120 80 39 00
        E 1800 90 43 60
        E 120 80 43 00
        E 1800 90 40 60
        E 120 80 40 00
        E 1800 90 3e 60
        E 120 80 3e 00
        E 1800 90 39 60
        E 120 80 39 00
        E 1800 90 3c 60
        E 120 80 3c 00
        E 1800 90 40 60
        E 120 80 40 00
        E 1800 90 3e 60
        E 120 80 3e 00
        E 1800 90 35 60
        E 1320 80 35 00
        E 600 90 3b 60
        E 1320 80 3b 00
        E 600 90 40 60
        E 1320 80 40 00
        E 600 90 3b 60
        E 120 80 3b 00
        E 2760 90 3e 60
        E 120 80 3e 00
        E 1800 90 3e 60
        E 120 80 3e 00
        E 1800 90 3e 60
        E 120 80 3e 00
        E 1800 90 37 60
        E 120 80 37 00
        E 4680 b0 7b 00
        GUID {BCC3A686-714B-4EDC-9932-8CD3A1CDC05E}
        IGNTEMPO 0 120.00000000 4 4
        SRCCOLOR 3
        VELLANE 132 128 60
        COLORMAP "C:\Program Files\REAPER (x64)\Data\color_maps\rockband_guitarbass.png"
        CFGEDITVIEW 2597.679956 160.186692 0 15 0 0 0
        CFGEDIT 1 1 0 1 1 0 1 1 1 1 1 0.25000000 -8 -8 1544 872 0 2 1 1 0.00000000 0 1 0 0 0.500000 0 0 1.000000 64
        KEYSNAP 0 6 "102030050700" 0 "Pentatonic"
        EVTFILTER 0 -1 -1 -1 -1 0 1 0 0 -1.00000000 -1.00000000
      >
    >
  >
  <TRACK '{647BE0EA-ACEC-44B4-A6BC-89F783BAE89A}'
    NAME "PART KEYS_ANIM_RH"
    PEAKCOL 16576
    BEAT -1
    AUTOMODE 0
    VOLPAN 1.00000000000000 0.00000000000000 -1.00000000000000 -1.00000000000000 1.00000000000000
    MUTESOLO 0 0 0
    IPHASE 0
    ISBUS 0 0
    BUSCOMP 0 0
    SHOWINMIX 1 0.666700 0.500000 1 0.500000 -1 -1 -1
    FREEMODE 0
    SEL 0
    REC 0 0 0 0 0 0 0
    VU 2
    TRACKHEIGHT 0 0
    INQ 0 0 0 0.5000000000 100 0 0 100
    NCHAN 2
    FX 0
    TRACKID {647BE0EA-ACEC-44B4-A6BC-89F783BAE89A}
    PERF 0
    MIDIOUT -1
    <MIDINOTENAMES
      0 72 "Highest playable note B#3"
      0 71 "B3"
      0 70 "A#3"
      0 69 "A3"
      0 68 "G#3"
      0 67 "G3"
      0 66 "F#3"
      0 65 "F3"
      0 64 "E3"
      0 63 "D#3"
      0 62 "D3"
      0 61 "C#3"
      0 60 "C3"
      0 59 "B2"
      0 58 "A#2"
      0 57 "A2"
      0 56 "G#2"
      0 55 "G2"
      0 54 "F#2"
      0 53 "F2"
      0 52 "E2"
      0 51 "D#2"
      0 50 "D2"
      0 49 "C#2"
      0 48 "Lowest playable note C2"
    >
    MAINSEND 1 0
    <FXCHAIN
      WNDRECT 0 43 729 467
      SHOW 0
      LASTSEL 0
      DOCKED 0
    >
    <ITEM
      POSITION 0.00000000000000
      SNAPOFFS 0.00000000000000
      LENGTH 108.01200133348151
      LOOP 0
      ALLTAKES 0
      SEL 0
      FADEIN 1 0.000000 0.000000 1 0
      FADEOUT 1 0.000000 0.000000 1 0
      MUTE 0
      IGUID {710475DA-004A-4730-B8E9-B456994EB5D4}
      IID 13
      NAME "PART KEYS_ANIM_RH"
      VOLPAN 1.000000 0.000000 1.000000 -1.000000
      SOFFS 0.00000000000000 0.00000000000000
      PLAYRATE 1.00000000000000 1 0.00000000000000 -1
      CHANMODE 0
      GUID {F08E9EFA-2AF6-43B5-A376-20D1E44F33B8}
      <SOURCE MIDI
        HASDATA 1 480 QN
        POOLEDEVTS {AB9E21B4-FA69-4F21-BFB5-5630976B60AC}
        <X 0 0
          /wNQQVJUIEtFWVNfQU5JTV9SSA==
        >
        E 6000 90 39 60
        E 120 80 39 00
        E 120 90 3c 60
        E 120 80 3c 00
        E 120 90 39 60
        E 120 80 39 00
        E 120 90 3e 60
        E 120 80 3e 00
        E 120 90 39 60
        E 120 80 39 00
        E 120 90 40 60
        E 120 80 40 00
        E 120 90 39 60
        E 120 80 39 00
        E 360 90 39 60
        E 120 80 39 00
        E 120 90 3c 60
        E 120 80 3c 00
        E 120 90 39 60
        E 120 80 39 00
        E 120 90 3e 60
        E 120 80 3e 00
        E 120 90 39 60
        E 120 80 39 00
        E 120 90 40 60
        E 120 80 40 00
        E 120 90 39 60
        E 120 80 39 00
        E 360 90 39 60
        E 120 80 39 00
        E 120 90 3c 60
        E 120 80 3c 00
        E 120 90 39 60
        E 120 80 39 00
        E 120 90 3e 60
        E 120 80 3e 00
        E 120 90 39 60
        E 120 80 39 00
        E 120 90 40 60
        E 120 80 40 00
        E 120 90 39 60
        E 120 80 39 00
        E 360 90 3e 60
        E 120 80 3e 00
        E 120 90 3c 60
        E 120 80 3c 00
        E 120 90 3b 60
        E 120 80 3b 00
        E 120 90 37 60
        E 120 80 37 00
        E 120 90 40 60
        E 120 80 40 00
        E 120 90 3e 60
        E 120 80 3e 00
        E 120 90 3c 60
        E 120 80 3c 00
        E 120 90 39 60
        E 120 80 39 00
        E 240 90 39 60
        E 120 80 39 00
        E 240 90 39 60
        E 120 80 39 00
        E 120 90 39 60
        E 120 80 39 00
        E 360 90 40 60
        E 120 80 40 00
        E 360 90 43 60
        E 120 80 43 00
        E 240 90 43 60
        E 120 80 43 00
        E 240 90 43 60
        E 120 80 43 00
        E 120 90 43 60
        E 120 80 43 00
        E 360 90 41 60
        E 120 80 41 00
        E 360 90 40 60
        E 120 80 40 00
        E 240 90 40 60
        E 120 80 40 00
        E 240 90 40 60
        E 120 80 40 00
        E 120 90 40 60
        E 120 80 40 00
        E 360 90 37 60
        E 120 80 37 00
        E 360 90 3e 60
        E 120 80 3e 00
        E 240 90 3e 60
        E 120 80 3e 00
        E 240 90 3e 60
        E 120 80 3e 00
        E 120 90 3e 60
        E 120 80 3e 00
        E 360 90 3c 60
        E 120 80 3c 00
        E 120 90 3b 60
        E 120 80 3b 00
        E 120 90 39 60
        E 120 80 39 00
        E 240 90 39 60
        E 120 80 39 00
        E 240 90 39 60
        E 120 80 39 00
        E 120 90 39 60
        E 120 80 39 00
        E 360 90 3b 60
        E 120 80 3b 00
        E 360 90 3c 60
        E 120 80 3c 00
        E 240 90 3c 60
        E 120 80 3c 00
        E 240 90 3b 60
        E 120 80 3b 00
        E 240 90 3b 60
        E 120 80 3b 00
        E 240 90 3c 60
        E 120 80 3c 00
        E 360 90 40 60
        E 120 80 40 00
        E 240 90 40 60
        E 120 80 40 00
        E 240 90 3e 60
        E 120 80 3e 00
        E 240 90 3e 60
        E 120 80 3e 00
        E 240 90 3c 60
        E 120 80 3c 00
        E 360 90 3e 60
        E 120 80 3e 00
        E 240 90 3e 60
        E 120 80 3e 00
        E 240 90 3c 60
        E 120 80 3c 00
        E 240 90 3c 60
        E 120 80 3c 00
        E 240 90 3b 60
        E 120 80 3b 00
        E 360 90 39 60
        E 120 80 39 00
        E 240 90 39 60
        E 120 80 39 00
        E 240 90 39 60
        E 120 80 39 00
        E 120 90 39 60
        E 120 80 39 00
        E 360 90 40 60
        E 120 80 40 00
        E 360 90 43 60
        E 120 80 43 00
        E 240 90 43 60
        E 120 80 43 00
        E 240 90 43 60
        E 120 80 43 00
        E 120 90 43 60
        E 120 80 43 00
        E 360 90 41 60
        E 120 80 41 00
        E 360 90 40 60
        E 120 80 40 00
        E 240 90 40 60
        E 120 80 40 00
        E 240 90 40 60
        E 120 80 40 00
        E 120 90 40 60
        E 120 80 40 00
        E 360 90 37 60
        E 120 80 37 00
        E 360 90 3e 60
        E 120 80 3e 00
        E 240 90 3e 60
        E 120 80 3e 00
        E 240 90 3e 60
        E 120 80 3e 00
        E 120 90 3e 60
        E 120 80 3e 00
        E 360 90 3c 60
        E 120 80 3c 00
        E 120 90 3b 60
        E 120 80 3b 00
        E 120 90 39 60
        E 120 80 39 00
        E 240 90 39 60
        E 120 80 39 00
        E 240 90 39 60
        E 120 80 39 00
        E 120 90 39 60
        E 120 80 39 00
        E 360 90 3b 60
        E 120 80 3b 00
        E 360 90 3c 60
        E 120 80 3c 00
        E 240 90 3c 60 -1
        E 120 80 3c 00 -1
        E 240 90 3b 60
        E 120 80 3b 00
        E 240 90 3b 60 -1
        E 120 80 3b 00 -1
        E 240 90 3c 60
        E 120 80 3c 00
        E 360 90 40 60
        E 120 80 40 00
        E 240 90 40 60
        E 120 80 40 00
        E 240 90 3e 60
        E 120 80 3e 00
        E 240 90 3e 60
        E 120 80 3e 00
        E 240 90 3c 60
        E 120 80 3c 00
        E 360 90 3e 60
        E 120 80 3e 00
        E 240 90 3e 60
        E 120 80 3e 00
        E 240 90 3c 60
        E 120 80 3c 00
        E 240 90 3c 60
        E 120 80 3c 00
        E 240 90 3b 60
        E 120 80 3b 00
        E 360 90 35 60
        E 1320 80 35 00
        E 120 90 37 60
        E 120 80 37 00
        E 360 90 3b 60
        E 1320 80 3b 00
        E 120 90 3c 60
        E 120 80 3c 00
        E 360 90 40 60
        E 1320 80 40 00
        E 120 90 41 60
        E 120 80 41 00
        E 360 90 3b 60
        E 120 80 3b 00
        E 120 90 3c 60
        E 120 80 3c 00
        E 120 90 3e 60
        E 120 80 3e 00
        E 120 90 3c 60
        E 120 80 3c 00
        E 120 90 40 60
        E 120 80 40 00
        E 120 90 3e 60
        E 120 80 3e 00
        E 120 90 3c 60
        E 120 80 3c 00
        E 120 90 3b 60
        E 120 80 3b 00
        E 360 90 39 60
        E 120 80 39 00
        E 120 90 3c 60
        E 120 80 3c 00
        E 120 90 39 60
        E 120 80 39 00
        E 120 90 3e 60
        E 120 80 3e 00
        E 120 90 39 60
        E 120 80 39 00
        E 120 90 40 60
        E 120 80 40 00
        E 120 90 39 60
        E 120 80 39 00
        E 360 90 39 60
        E 120 80 39 00
        E 120 90 3c 60
        E 120 80 3c 00
        E 120 90 39 60
        E 120 80 39 00
        E 120 90 3e 60
        E 120 80 3e 00
        E 120 90 39 60
        E 120 80 39 00
        E 120 90 40 60
        E 120 80 40 00
        E 120 90 39 60
        E 120 80 39 00
        E 360 90 39 60
        E 120 80 39 00
        E 120 90 3c 60
        E 120 80 3c 00
        E 120 90 39 60
        E 120 80 39 00
        E 120 90 3e 60
        E 120 80 3e 00
        E 120 90 39 60
        E 120 80 39 00
        E 120 90 40 60
        E 120 80 40 00
        E 120 90 39 60
        E 120 80 39 00
        E 360 90 3e 60
        E 120 80 3e 00
        E 120 90 3c 60
        E 120 80 3c 00
        E 120 90 3b 60
        E 120 80 3b 00
        E 120 90 37 60
        E 120 80 37 00
        E 120 90 40 60
        E 120 80 40 00
        E 120 90 3e 60
        E 120 80 3e 00
        E 120 90 3c 60
        E 120 80 3c 00
        E 120 90 39 60
        E 120 80 39 00
        E 240 90 39 60
        E 120 80 39 00
        E 240 90 39 60
        E 120 80 39 00
        E 120 90 39 60
        E 120 80 39 00
        E 360 90 40 60
        E 120 80 40 00
        E 360 90 43 60
        E 120 80 43 00
        E 240 90 43 60
        E 120 80 43 00
        E 240 90 43 60
        E 120 80 43 00
        E 120 90 43 60
        E 120 80 43 00
        E 360 90 41 60
        E 120 80 41 00
        E 360 90 40 60
        E 120 80 40 00
        E 240 90 40 60
        E 120 80 40 00
        E 240 90 40 60
        E 120 80 40 00
        E 120 90 40 60
        E 120 80 40 00
        E 360 90 37 60
        E 120 80 37 00
        E 360 90 3e 60
        E 120 80 3e 00
        E 240 90 3e 60
        E 120 80 3e 00
        E 240 90 3e 60
        E 120 80 3e 00
        E 120 90 3e 60
        E 120 80 3e 00
        E 360 90 3c 60
        E 120 80 3c 00
        E 120 90 3b 60
        E 120 80 3b 00
        E 120 90 39 60
        E 120 80 39 00
        E 240 90 39 60
        E 120 80 39 00
        E 240 90 39 60
        E 120 80 39 00
        E 120 90 39 60
        E 120 80 39 00
        E 360 90 3b 60
        E 120 80 3b 00
        E 360 90 3c 60
        E 120 80 3c 00
        E 240 90 3c 60
        E 120 80 3c 00
        E 240 90 3b 60
        E 120 80 3b 00
        E 240 90 3b 60
        E 120 80 3b 00
        E 240 90 3c 60
        E 120 80 3c 00
        E 360 90 40 60
        E 120 80 40 00
        E 240 90 40 60
        E 120 80 40 00
        E 240 90 3e 60
        E 120 80 3e 00
        E 240 90 3e 60
        E 120 80 3e 00
        E 240 90 3c 60
        E 120 80 3c 00
        E 360 90 3e 60
        E 120 80 3e 00
        E 240 90 3e 60
        E 120 80 3e 00
        E 240 90 3c 60
        E 120 80 3c 00
        E 240 90 3c 60
        E 120 80 3c 00
        E 240 90 3b 60
        E 120 80 3b 00
        E 360 90 39 60
        E 120 80 39 00
        E 240 90 39 60
        E 120 80 39 00
        E 240 90 39 60
        E 120 80 39 00
        E 120 90 39 60
        E 120 80 39 00
        E 360 90 40 60
        E 120 80 40 00
        E 360 90 43 60
        E 120 80 43 00
        E 240 90 43 60
        E 120 80 43 00
        E 240 90 43 60
        E 120 80 43 00
        E 120 90 43 60
        E 120 80 43 00
        E 360 90 41 60
        E 120 80 41 00
        E 360 90 40 60
        E 120 80 40 00
        E 240 90 40 60
        E 120 80 40 00
        E 240 90 40 60
        E 120 80 40 00
        E 120 90 40 60
        E 120 80 40 00
        E 360 90 37 60
        E 120 80 37 00
        E 360 90 3e 60
        E 120 80 3e 00
        E 240 90 3e 60
        E 120 80 3e 00
        E 240 90 3e 60
        E 120 80 3e 00
        E 120 90 3e 60
        E 120 80 3e 00
        E 360 90 3c 60
        E 120 80 3c 00
        E 120 90 3b 60
        E 120 80 3b 00
        E 120 90 39 60
        E 120 80 39 00
        E 240 90 39 60
        E 120 80 39 00
        E 240 90 39 60
        E 120 80 39 00
        E 120 90 39 60
        E 120 80 39 00
        E 360 90 3b 60
        E 120 80 3b 00
        E 360 90 3c 60
        E 120 80 3c 00
        E 240 90 3c 60
        E 120 80 3c 00
        E 240 90 3b 60
        E 120 80 3b 00
        E 240 90 3b 60
        E 120 80 3b 00
        E 240 90 3c 60
        E 120 80 3c 00
        E 360 90 40 60
        E 120 80 40 00
        E 240 90 40 60
        E 120 80 40 00
        E 240 90 3e 60
        E 120 80 3e 00
        E 240 90 3e 60
        E 120 80 3e 00
        E 240 90 3c 60
        E 120 80 3c 00
        E 360 90 3e 60
        E 120 80 3e 00
        E 240 90 3e 60
        E 120 80 3e 00
        E 240 90 3c 60
        E 120 80 3c 00
        E 240 90 3c 60
        E 120 80 3c 00
        E 240 90 3b 60
        E 120 80 3b 00
        E 360 90 35 60
        E 1320 80 35 00
        E 120 90 37 60
        E 120 80 37 00
        E 360 90 3b 60
        E 1320 80 3b 00
        E 120 90 3c 60
        E 120 80 3c 00
        E 360 90 40 60
        E 1320 80 40 00
        E 120 90 41 60
        E 120 80 41 00
        E 360 90 3b 60
        E 120 80 3b 00
        E 120 90 3c 60
        E 120 80 3c 00
        E 120 90 3e 60
        E 120 80 3e 00
        E 120 90 3c 60
        E 120 80 3c 00
        E 120 90 40 60
        E 120 80 40 00
        E 120 90 3e 60
        E 120 80 3e 00
        E 120 90 3c 60
        E 120 80 3c 00
        E 120 90 3b 60
        E 120 80 3b 00
        E 360 90 39 60
        E 120 80 39 00
        E 120 90 3c 60
        E 120 80 3c 00
        E 120 90 39 60
        E 120 80 39 00
        E 120 90 3e 60
        E 120 80 3e 00
        E 120 90 39 60
        E 120 80 39 00
        E 120 90 40 60
        E 120 80 40 00
        E 120 90 39 60
        E 120 80 39 00
        E 360 90 39 60
        E 120 80 39 00
        E 120 90 3c 60
        E 120 80 3c 00
        E 120 90 39 60
        E 120 80 39 00
        E 120 90 3e 60
        E 120 80 3e 00
        E 120 90 39 60
        E 120 80 39 00
        E 120 90 40 60
        E 120 80 40 00
        E 120 90 39 60
        E 120 80 39 00
        E 360 90 39 60
        E 120 80 39 00
        E 120 90 3c 60
        E 120 80 3c 00
        E 120 90 39 60
        E 120 80 39 00
        E 120 90 3e 60
        E 120 80 3e 00
        E 120 90 39 60
        E 120 80 39 00
        E 120 90 40 60
        E 120 80 40 00
        E 120 90 39 60
        E 120 80 39 00
        E 360 90 3e 60
        E 120 80 3e 00
        E 120 90 3c 60
        E 120 80 3c 00
        E 120 90 3b 60
        E 120 80 3b 00
        E 120 90 37 60
        E 120 80 37 00
        E 120 90 40 60
        E 120 80 40 00
        E 120 90 3e 60
        E 120 80 3e 00
        E 120 90 3c 60
        E 120 80 3c 00
        E 120 90 39 60
        E 120 80 39 00
        E 240 90 39 60
        E 120 80 39 00
        E 240 90 39 60
        E 120 80 39 00
        E 120 90 39 60
        E 120 80 39 00
        E 360 90 40 60
        E 120 80 40 00
        E 360 90 43 60
        E 120 80 43 00
        E 240 90 43 60
        E 120 80 43 00
        E 240 90 43 60
        E 120 80 43 00
        E 120 90 43 60
        E 120 80 43 00
        E 360 90 41 60
        E 120 80 41 00
        E 360 90 40 60
        E 120 80 40 00
        E 240 90 40 60
        E 120 80 40 00
        E 240 90 40 60
        E 120 80 40 00
        E 120 90 40 60
        E 120 80 40 00
        E 360 90 37 60
        E 120 80 37 00
        E 360 90 3e 60
        E 120 80 3e 00
        E 240 90 3e 60
        E 120 80 3e 00
        E 240 90 3e 60
        E 120 80 3e 00
        E 120 90 3e 60
        E 120 80 3e 00
        E 360 90 3c 60
        E 120 80 3c 00
        E 120 90 3b 60
        E 120 80 3b 00
        E 120 90 39 60
        E 120 80 39 00
        E 240 90 39 60
        E 120 80 39 00
        E 240 90 39 60
        E 120 80 39 00
        E 120 90 39 60
        E 120 80 39 00
        E 360 90 3b 60
        E 120 80 3b 00
        E 360 90 3c 60
        E 120 80 3c 00
        E 240 90 3c 60
        E 120 80 3c 00
        E 240 90 3b 60
        E 120 80 3b 00
        E 240 90 3b 60
        E 120 80 3b 00
        E 240 90 3c 60
        E 120 80 3c 00
        E 360 90 40 60
        E 120 80 40 00
        E 240 90 40 60
        E 120 80 40 00
        E 240 90 3e 60
        E 120 80 3e 00
        E 240 90 3e 60
        E 120 80 3e 00
        E 240 90 3c 60
        E 120 80 3c 00
        E 360 90 3e 60
        E 120 80 3e 00
        E 240 90 3e 60
        E 120 80 3e 00
        E 240 90 3c 60
        E 120 80 3c 00
        E 240 90 3c 60
        E 120 80 3c 00
        E 240 90 3b 60
        E 120 80 3b 00
        E 360 90 39 60
        E 120 80 39 00
        E 240 90 39 60
        E 120 80 39 00
        E 240 90 39 60
        E 120 80 39 00
        E 120 90 39 60
        E 120 80 39 00
        E 360 90 40 60
        E 120 80 40 00
        E 360 90 43 60
        E 120 80 43 00
        E 240 90 43 60
        E 120 80 43 00
        E 240 90 43 60
        E 120 80 43 00
        E 120 90 43 60
        E 120 80 43 00
        E 360 90 41 60
        E 120 80 41 00
        E 360 90 40 60
        E 120 80 40 00
        E 240 90 40 60
        E 120 80 40 00
        E 240 90 40 60
        E 120 80 40 00
        E 120 90 40 60
        E 120 80 40 00
        E 360 90 37 60
        E 120 80 37 00
        E 360 90 3e 60
        E 120 80 3e 00
        E 240 90 3e 60
        E 120 80 3e 00
        E 240 90 3e 60
        E 120 80 3e 00
        E 120 90 3e 60
        E 120 80 3e 00
        E 360 90 3c 60
        E 120 80 3c 00
        E 120 90 3b 60
        E 120 80 3b 00
        E 120 90 39 60
        E 120 80 39 00
        E 240 90 39 60
        E 120 80 39 00
        E 240 90 39 60
        E 120 80 39 00
        E 120 90 39 60
        E 120 80 39 00
        E 360 90 3b 60
        E 120 80 3b 00
        E 360 90 3c 60
        E 120 80 3c 00
        E 240 90 3c 60
        E 120 80 3c 00
        E 240 90 3b 60
        E 120 80 3b 00
        E 240 90 3b 60
        E 120 80 3b 00
        E 240 90 3c 60
        E 120 80 3c 00
        E 360 90 40 60
        E 120 80 40 00
        E 240 90 40 60
        E 120 80 40 00
        E 240 90 3e 60
        E 120 80 3e 00
        E 240 90 3e 60
        E 120 80 3e 00
        E 240 90 3c 60
        E 120 80 3c 00
        E 360 90 3e 60
        E 120 80 3e 00
        E 240 90 3e 60
        E 120 80 3e 00
        E 240 90 3c 60
        E 120 80 3c 00
        E 240 90 3c 60
        E 120 80 3c 00
        E 240 90 3b 60
        E 120 80 3b 00
        E 360 90 35 60
        E 1320 80 35 00
        E 120 90 37 60
        E 120 80 37 00
        E 360 90 3b 60
        E 1320 80 3b 00
        E 120 90 3c 60
        E 120 80 3c 00
        E 360 90 40 60
        E 1320 80 40 00
        E 120 90 41 60
        E 120 80 41 00
        E 360 90 3b 60
        E 120 80 3b 00
        E 120 90 3c 60
        E 120 80 3c 00
        E 120 90 3e 60
        E 120 80 3e 00
        E 120 90 3c 60
        E 120 80 3c 00
        E 120 90 40 60
        E 120 80 40 00
        E 120 90 3e 60
        E 120 80 3e 00
        E 120 90 3c 60
        E 120 80 3c 00
        E 120 90 3b 60
        E 120 80 3b 00
        E 360 90 39 60
        E 120 80 39 00
        E 120 90 3c 60
        E 120 80 3c 00
        E 120 90 39 60
        E 120 80 39 00
        E 120 90 3e 60
        E 120 80 3e 00
        E 120 90 39 60
        E 120 80 39 00
        E 120 90 40 60
        E 120 80 40 00
        E 120 90 39 60
        E 120 80 39 00
        E 360 90 39 60
        E 120 80 39 00
        E 120 90 3c 60
        E 120 80 3c 00
        E 120 90 39 60
        E 120 80 39 00
        E 120 90 3e 60
        E 120 80 3e 00
        E 120 90 39 60
        E 120 80 39 00
        E 120 90 40 60
        E 120 80 40 00
        E 120 90 39 60
        E 120 80 39 00
        E 360 90 39 60
        E 120 80 39 00
        E 120 90 3c 60
        E 120 80 3c 00
        E 120 90 39 60
        E 120 80 39 00
        E 120 90 3e 60
        E 120 80 3e 00
        E 120 90 39 60
        E 120 80 39 00
        E 120 90 40 60
        E 120 80 40 00
        E 120 90 39 60
        E 120 80 39 00
        E 360 90 3e 60
        E 120 80 3e 00
        E 120 90 3c 60
        E 120 80 3c 00
        E 120 90 3b 60
        E 120 80 3b 00
        E 120 90 37 60
        E 120 80 37 00
        E 120 90 40 60
        E 120 80 40 00
        E 120 90 3e 60
        E 120 80 3e 00
        E 120 90 3c 60
        E 120 80 3c 00
        E 3960 b0 7b 00
        GUID {BCC3A686-714B-4EDC-9932-8CD3A1CDC05E}
        IGNTEMPO 0 120.00000000 4 4
        SRCCOLOR 3
        VELLANE 132 128 60
        COLORMAP "C:\Program Files\REAPER (x64)\Data\color_maps\rockband_guitarbass.png"
        CFGEDITVIEW -10359.109528 10.146463 0 21 0 0 0
        CFGEDIT 1 1 0 1 1 0 1 1 1 1 1 0.25000000 -8 -8 1544 872 0 2 1 1 0.00000000 0 1 0 0 0.500000 0 0 1.000000 64
        KEYSNAP 0 6 "102030050700" 0 "Pentatonic"
        EVTFILTER 0 -1 -1 -1 -1 0 1 0 0 -1.00000000 -1.00000000
      >
    >
  >
  <TRACK '{21BAF51E-AAEC-44AA-A057-94EB76A838EC}'
    NAME "keys"
    PEAKCOL 16576
    BEAT -1
    AUTOMODE 0
    VOLPAN 1.00000000000000 0.00000000000000 -1.00000000000000 -1.00000000000000 1.00000000000000
    MUTESOLO 0 0 0
    IPHASE 0
    ISBUS 2 -1
    BUSCOMP 0 0
    SHOWINMIX 1 0.666700 0.500000 1 0.500000 -1 -1 -1
    FREEMODE 0
    SEL 0
    REC 0 0 0 0 0 0 0
    VU 2
    TRACKHEIGHT 0 0
    INQ 0 0 0 0.5000000000 100 0 0 100
    NCHAN 2
    FX 1
    TRACKID {21BAF51E-AAEC-44AA-A057-94EB76A838EC}
    PERF 0
    MIDIOUT -1
    MAINSEND 1 0
    <ITEM
      POSITION 0.00000000000000
      SNAPOFFS 0.00000000000000
      LENGTH 108.01200133348151
      LOOP 0
      ALLTAKES 0
      SEL 0
      FADEIN 1 0.000000 0.000000 1 0
      FADEOUT 1 0.000000 0.000000 1 0
      MUTE 0
      IGUID {46CE4C65-9C83-4B72-A863-3D6183024A24}
      IID 18
      NAME "keys.wav"
      VOLPAN 1.000000 0.000000 1.000000 -1.000000
      SOFFS 0.00000000000000
      PLAYRATE 1.00000000000000 1 0.00000000000000 -1
      CHANMODE 0
      GUID {3584F4B7-0D1B-4F11-AC03-74B3A4CD59F1}
      <SOURCE WAVE
        FILE "wav\keys.wav"
      >
    >
  >
  <TRACK '{882F00AF-0D7E-4FB3-AABA-83DC1AD10F47}'
    NAME "PART REAL_BASS"
    PEAKCOL 16576
    BEAT -1
    AUTOMODE 0
    VOLPAN 1.00000000000000 0.00000000000000 -1.00000000000000 -1.00000000000000 1.00000000000000
    MUTESOLO 0 0 0
    IPHASE 0
    ISBUS 0 0
    BUSCOMP 0 0
    SHOWINMIX 1 0.666700 0.500000 1 0.500000 -1 -1 -1
    FREEMODE 0
    SEL 0
    REC 0 0 0 0 0 0 0
    VU 2
    TRACKHEIGHT 0 0
    INQ 0 0 0 0.5000000000 100 0 0 100
    NCHAN 2
    FX 0
    TRACKID {882F00AF-0D7E-4FB3-AABA-83DC1AD10F47}
    PERF 0
    MIDIOUT -1
    <MIDINOTENAMES
      0 127 "Trill Marker"
      0 126 "Tremolo Marker"
      0 125 "BRE"
      0 124 "BRE"
      0 123 "BRE"
      0 122 "BRE"
      0 121 "BRE"
      0 120 "BRE (use all 6)"
      0 119 "-----------"
      0 116 "OVERDRIVE"
      0 115 "Solo Marker"
      0 109 "-----------"
      0 108 "Fret Hand Position"
      0 107 "Force Chord Numbering"
      0 106 "Loose Strumming"
      0 105 "Strum Direction"
      0 104 "Arpeggio Marker"
      0 103 "Slide Marker"
      0 102 "Force HOPO"
      0 101 "EXPERT e String"
      0 100 "EXPERT B String"
      0 99 "EXPERT G String"
      0 98 "EXPERT D String"
      0 97 "EXPERT A String"
      0 96 "EXPERT E String"
      0 95 "-----------"
      0 82 "Loose Strumming"
      0 81 "Strum Direction"
      0 80 "Arpeggio Marker"
      0 79 "Slide Marker"
      0 78 "Force HOPO"
      0 77 "HARD e String"
      0 76 "HARD B String"
      0 75 "HARD G String"
      0 74 "HARD D String"
      0 73 "HARD A String"
      0 72 "HARD E String"
      0 71 "-----------"
      0 58 "Loose Strumming"
      0 56 "Arpeggio Marker"
      0 55 "Slide Marker"
      0 53 "MEDIUM e String"
      0 52 "MEDIUM B String"
      0 51 "MEDIUM G String"
      0 50 "MEDIUM D String"
      0 49 "MEDIUM A String"
      0 48 "MEDIUM E String"
      0 47 "-----------"
      0 32 "Arpeggio Marker"
      0 31 "Slide Marker"
      0 29 "EASY e String"
      0 28 "EASY B String"
      0 27 "EASY G String"
      0 26 "EASY D String"
      0 25 "EASY A String"
      0 24 "EASY E String"
      0 21 "-----------"
      0 18 "Flat/Sharp Swap"
      0 17 "Hide Chord Names"
      0 16 "Slash Chord"
      0 15 "D#"
      0 14 "D"
      0 13 "C#"
      0 12 "C"
      0 11 "B"
      0 10 "A#"
      0 9 "A"
      0 8 "G#"
      0 7 "G"
      0 6 "F#"
      0 5 "F"
      0 4 "E"
    >
    MAINSEND 1 0
    <FXCHAIN
      WNDRECT 0 43 655 467
      SHOW 0
      LASTSEL 2
      DOCKED 0
      BYPASS 0 0
      <JS "c3/progtr" ""
        0.000000 3.000000 0.000000 0.000000 0.000000 0.000000 0.000000 0.000000 0.000000 1.000000 - - - - - - - - - - - - - - - - - - - - - - - - - - - - - - - - - - - - - - - - - - - - - - - - - - - - - - 
      >
      FLOATPOS 0 0 0 0
      FXID {24E520DA-450C-4337-A494-234418CDECF6}
      WAK 0
      BYPASS 0 0
      <JS "MIDI/midi_transpose" ""
        -12.000000 1.000000 0.000000 127.000000 - - - - - - - - - - - - - - - - - - - - - - - - - - - - - - - - - - - - - - - - - - - - - - - - - - - - - - - - - - - - 
      >
      FLOATPOS 0 0 0 0
      FXID {FA6949A9-9CDC-4627-A07C-A28D7A350A30}
      WAK 0
      BYPASS 0 0
      <VST "VSTi: ReaSynth (Cockos)" "reasynth.dll" 0 ""
        eXNlcu9e7f4AAAAAAgAAAAEAAAAAAAAAAgAAAAAAAAA4AAAAAAAAAA==
        AAAQAO++rd4N8K3eppvEO+gJMjwAAAAAAAAAAAAAgD8AAIA/4jAEPA==
        AAAAAAAAAD+01hM+j8L1PQAAAD8AABAAAAA=
      >
      FLOATPOS 0 0 0 0
      FXID {4EE644A9-5C7A-470D-84BE-F02FA5D3883B}
      WAK 0
    >
    <ITEM
      POSITION 0.00000000000000
      SNAPOFFS 0.00000000000000
      LENGTH 108.01200133348151
      LOOP 0
      ALLTAKES 0
      SEL 0
      FADEIN 1 0.000000 0.000000 1 0
      FADEOUT 1 0.000000 0.000000 1 0
      MUTE 0
      IGUID {53969E3B-99BE-4459-9841-8F7AA1D0EFC0}
      IID 8
      NAME "PART REAL_BASS"
      VOLPAN 1.000000 0.000000 1.000000 -1.000000
      SOFFS 0.00000000000000 0.00000000000000
      PLAYRATE 1.00000000000000 1 0.00000000000000 -1
      CHANMODE 0
      GUID {45E51260-A747-4F81-B907-997D6B5C58CC}
      <SOURCE MIDI
        HASDATA 1 480 QN
        POOLEDEVTS {51C343AB-3614-4C30-B34D-AB9DB62E95AA}
        <X 0 0
          /wNQQVJUIFJFQUxfQkFTUw==
        >
        <X 5760 0
          /wFbYmVnaW5fcGIgc29uZ190cmFpbmVyX3BiXzFd
        >
        E 0 90 1b 66
        E 0 90 33 66
        E 0 90 4b 66
        E 0 90 63 66
        E 0 90 6c 66
        E 120 80 1b 00
        E 0 80 33 00
        E 0 80 4b 00
        E 0 80 63 00
        E 0 80 6c 00
        E 120 90 63 66
        E 120 80 63 00
        E 120 90 4b 66
        E 0 90 63 66
        E 120 80 4b 00
        E 0 80 63 00
        E 120 90 63 66
        E 120 80 63 00
        E 120 90 33 66
        E 0 90 4b 66
        E 0 90 63 66
        E 120 80 33 00
        E 0 80 4b 00
        E 0 80 63 00
        E 120 90 63 66
        E 120 80 63 00
        E 120 90 4b 66
        E 0 90 63 66
        E 120 80 4b 00
        E 0 80 63 00
        E 120 90 63 66
        E 120 80 63 00
        <X 120 0
          /wFbcGJfbm9ybSBzb25nX3RyYWluZXJfcGJfMV0=
        >
        E 0 90 1b 66
        E 0 90 33 66
        E 0 90 4b 66
        E 0 90 63 66
        E 120 80 1b 00
        E 0 80 33 00
        E 0 80 4b 00
        E 0 80 63 00
        E 120 90 63 66
        E 120 80 63 00
        E 120 90 4b 66
        E 0 90 63 66
        E 120 80 4b 00
        E 0 80 63 00
        E 120 90 63 66
        E 120 80 63 00
        E 120 90 33 66
        E 0 90 4b 66
        E 0 90 63 66
        E 120 80 33 00
        E 0 80 4b 00
        E 0 80 63 00
        E 120 90 63 66
        E 120 80 63 00
        E 120 90 4b 66
        E 0 90 63 66
        E 120 80 4b 00
        E 0 80 63 00
        E 120 90 63 66
        E 120 80 63 00
        E 120 90 1b 66
        E 0 90 33 66
        E 0 90 4b 66
        E 0 90 63 66
        E 120 80 1b 00
        E 0 80 33 00
        E 0 80 4b 00
        E 0 80 63 00
        E 120 90 63 66
        E 120 80 63 00
        E 120 90 4b 66
        E 0 90 63 66
        E 120 80 4b 00
        E 0 80 63 00
        E 120 90 63 66
        E 120 80 63 00
        E 120 90 33 66
        E 0 90 4b 66
        E 0 90 63 66
        E 120 80 33 00
        E 0 80 4b 00
        E 0 80 63 00
        E 120 90 63 66
        E 120 80 63 00
        E 120 90 4b 66
        E 0 90 63 66
        E 120 80 4b 00
        E 0 80 63 00
        E 120 90 63 66
        E 120 80 63 00
        E 120 90 1a 69
        E 0 90 32 69
        E 0 90 4a 69
        E 0 90 62 69
        E 0 90 74 60
        E 120 80 1a 00
        E 0 80 32 00
        E 0 80 4a 00
        E 0 80 62 00
        E 120 90 62 69
        E 120 80 62 00
        E 120 90 4a 69
        E 0 90 62 69
        E 120 80 4a 00
        E 0 80 62 00
        E 120 90 62 69
        E 120 80 62 00
        E 120 90 32 66
        E 0 90 4a 66
        E 0 90 62 66
        E 120 80 32 00
        E 0 80 4a 00
        E 0 80 62 00
        E 120 90 62 66
        E 120 80 62 00
        E 120 90 4a 67
        E 0 90 62 67
        E 120 80 4a 00
        E 0 80 62 00
        E 120 90 62 67
        E 120 80 62 00
        <X 120 0
          /wFbYmVnaW5fcGIgc29uZ190cmFpbmVyX3BiXzJd
        >
        <X 0 0
          /wFbZW5kX3BiIHNvbmdfdHJhaW5lcl9wYl8xXQ==
        >
        E 0 80 74 00
        E 0 90 1b 66
        E 0 90 33 66
        E 0 90 4b 66
        E 0 90 63 66
        E 120 80 1b 00
        E 0 80 33 00
        E 0 80 4b 00
        E 0 80 63 00
        E 120 90 63 66
        E 120 80 63 00
        E 120 90 4b 66
        E 0 90 63 66
        E 120 80 4b 00
        E 0 80 63 00
        E 120 90 63 66
        E 120 80 63 00
        E 120 90 33 66
        E 0 90 4b 66
        E 0 90 63 66
        E 120 80 33 00
        E 0 80 4b 00
        E 0 80 63 00
        E 120 90 63 66
        E 120 80 63 00
        E 120 90 4b 66
        E 0 90 63 66
        E 120 80 4b 00
        E 0 80 63 00
        E 120 90 63 66
        E 120 80 63 00
        E 120 90 1b 66
        E 0 90 33 66
        E 0 90 4b 66
        E 0 90 63 66
        E 120 80 1b 00
        E 0 80 33 00
        E 0 80 4b 00
        E 0 80 63 00
        E 120 90 63 66
        E 120 80 63 00
        E 120 90 4b 66
        E 0 90 63 66
        E 120 80 4b 00
        E 0 80 63 00
        E 120 90 63 66
        E 120 80 63 00
        E 120 90 33 66
        E 0 90 4b 66
        E 0 90 63 66
        E 120 80 33 00
        E 0 80 4b 00
        E 0 80 63 00
        E 120 90 63 66
        E 120 80 63 00
        E 120 90 4b 66
        E 0 90 63 66
        E 120 80 4b 00
        E 0 80 63 00
        E 120 90 63 66
        E 120 80 63 00
        <X 120 0
          /wFbcGJfbm9ybSBzb25nX3RyYWluZXJfcGJfMl0=
        >
        E 0 90 1a 69
        E 0 90 32 69
        E 0 90 4a 69
        E 0 90 62 69
        E 120 80 1a 00
        E 0 80 32 00
        E 0 80 4a 00
        E 0 80 62 00
        E 120 90 62 69
        E 120 80 62 00
        E 120 90 4a 69
        E 0 90 62 69
        E 120 80 4a 00
        E 0 80 62 00
        E 120 90 62 69
        E 120 80 62 00
        E 120 90 32 69
        E 0 90 4a 69
        E 0 90 62 69
        E 120 80 32 00
        E 0 80 4a 00
        E 0 80 62 00
        E 120 90 62 69
        E 120 80 62 00
        E 120 90 4a 69
        E 0 90 62 69
        E 120 80 4a 00
        E 0 80 62 00
        E 120 90 62 69
        E 120 80 62 00
        E 120 90 1a 69
        E 0 90 32 69
        E 0 90 4a 69
        E 0 90 62 69
        E 120 80 1a 00
        E 0 80 32 00
        E 0 80 4a 00
        E 0 80 62 00
        E 120 90 62 69
        E 120 80 62 00
        E 120 90 4a 69
        E 0 90 62 69
        E 120 80 4a 00
        E 0 80 62 00
        E 120 90 62 69
        E 120 80 62 00
        E 120 90 32 69
        E 0 90 4a 69
        E 0 90 62 69
        E 120 80 32 00
        E 0 80 4a 00
        E 0 80 62 00
        E 120 90 62 69
        E 120 80 62 00
        E 120 90 4a 69
        E 0 90 62 69
        E 120 80 4a 00
        E 0 80 62 00
        E 120 90 62 69
        E 120 80 62 00
        E 120 90 1a 67
        E 0 90 32 67
        E 0 90 4a 67
        E 0 90 62 67
        E 120 80 1a 00
        E 0 80 32 00
        E 0 80 4a 00
        E 0 80 62 00
        E 120 90 62 67
        E 120 80 62 00
        E 120 90 4a 67
        E 0 90 62 67
        E 120 80 4a 00
        E 0 80 62 00
        E 120 90 62 67
        E 120 80 62 00
        E 120 90 32 67
        E 0 90 4a 67
        E 0 90 62 67
        E 120 80 32 00
        E 0 80 4a 00
        E 0 80 62 00
        E 120 90 62 67
        E 120 80 62 00
        E 120 90 4a 67
        E 0 90 62 67
        E 120 80 4a 00
        E 0 80 62 00
        E 120 90 62 67
        E 120 80 62 00
        E 120 90 1a 67
        E 0 90 32 67
        E 0 90 4a 67
        E 0 90 62 67
        E 120 80 1a 00
        E 0 80 32 00
        E 0 80 4a 00
        E 0 80 62 00
        E 120 90 62 67
        E 120 80 62 00
        E 120 90 4a 67
        E 0 90 62 67
        E 120 80 4a 00
        E 0 80 62 00
        E 120 90 62 67
        E 120 80 62 00
        E 120 90 32 67
        E 0 90 4a 67
        E 0 90 62 67
        E 120 80 32 00
        E 0 80 4a 00
        E 0 80 62 00
        E 120 90 62 67
        E 120 80 62 00
        E 120 90 4a 67
        E 0 90 62 67
        E 120 80 4a 00
        E 0 80 62 00
        E 120 90 62 67
        E 120 80 62 00
        E 120 90 1a 66
        E 0 90 32 66
        E 0 90 4a 66
        E 0 90 62 66
        E 120 80 1a 00
        E 0 80 32 00
        E 0 80 4a 00
        E 0 80 62 00
        E 120 90 62 66
        E 120 80 62 00
        E 120 90 4a 66
        E 0 90 62 66
        E 120 80 4a 00
        E 0 80 62 00
        E 120 90 62 66
        E 120 80 62 00
        E 120 90 32 66
        E 0 90 4a 66
        E 0 90 62 66
        E 120 80 32 00
        E 0 80 4a 00
        E 0 80 62 00
        E 120 90 62 66
        E 120 80 62 00
        E 120 90 4a 66
        E 0 90 62 66
        E 120 80 4a 00
        E 0 80 62 00
        E 120 90 62 66
        E 120 80 62 00
        E 120 90 1a 66
        E 0 90 32 66
        E 0 90 4a 66
        E 0 90 62 66
        E 120 80 1a 00
        E 0 80 32 00
        E 0 80 4a 00
        E 0 80 62 00
        E 120 90 62 66
        E 120 80 62 00
        E 120 90 4a 66
        E 0 90 62 66
        E 120 80 4a 00
        E 0 80 62 00
        E 120 90 62 66
        E 120 80 62 00
        E 120 90 32 66
        E 0 90 4a 66
        E 0 90 62 66
        E 120 80 32 00
        E 0 80 4a 00
        E 0 80 62 00
        E 120 90 62 66
        E 120 80 62 00
        E 120 90 4a 66
        E 0 90 62 66
        E 120 80 4a 00
        E 0 80 62 00
        E 120 90 62 66
        E 120 80 62 00
        <X 120 0
          /wFbZW5kX3BiIHNvbmdfdHJhaW5lcl9wYl8yXQ==
        >
        E 0 90 1b 66
        E 0 90 33 66
        E 0 90 4b 66
        E 0 90 63 66
        E 120 80 1b 00
        E 0 80 33 00
        E 0 80 4b 00
        E 0 80 63 00
        E 120 90 63 66
        E 120 80 63 00
        E 120 90 4b 66
        E 0 90 63 66
        E 120 80 4b 00
        E 0 80 63 00
        E 120 90 63 66
        E 120 80 63 00
        E 120 90 33 66
        E 0 90 4b 66
        E 0 90 63 66
        E 120 80 33 00
        E 0 80 4b 00
        E 0 80 63 00
        E 120 90 63 66
        E 120 80 63 00
        E 120 90 4b 66
        E 0 90 63 66
        E 120 80 4b 00
        E 0 80 63 00
        E 120 90 63 66
        E 120 80 63 00
        E 120 90 1b 66
        E 0 90 33 66
        E 0 90 4b 66
        E 0 90 63 66
        E 120 80 1b 00
        E 0 80 33 00
        E 0 80 4b 00
        E 0 80 63 00
        E 120 90 63 66
        E 120 80 63 00
        E 120 90 4b 66
        E 0 90 63 66
        E 120 80 4b 00
        E 0 80 63 00
        E 120 90 63 66
        E 120 80 63 00
        E 120 90 33 66
        E 0 90 4b 66
        E 0 90 63 66
        E 120 80 33 00
        E 0 80 4b 00
        E 0 80 63 00
        E 120 90 63 66
        E 120 80 63 00
        E 120 90 4b 66
        E 0 90 63 66
        E 120 80 4b 00
        E 0 80 63 00
        E 120 90 63 66
        E 120 80 63 00
        E 120 90 1a 69
        E 0 90 32 69
        E 0 90 4a 69
        E 0 90 62 69
        E 120 80 1a 00
        E 0 80 32 00
        E 0 80 4a 00
        E 0 80 62 00
        E 120 90 62 69
        E 120 80 62 00
        E 120 90 4a 69
        E 0 90 62 69
        E 120 80 4a 00
        E 0 80 62 00
        E 120 90 62 69
        E 120 80 62 00
        E 120 90 32 69
        E 0 90 4a 69
        E 0 90 62 69
        E 120 80 32 00
        E 0 80 4a 00
        E 0 80 62 00
        E 120 90 62 69
        E 120 80 62 00
        E 120 90 4a 69
        E 0 90 62 69
        E 120 80 4a 00
        E 0 80 62 00
        E 120 90 62 69
        E 120 80 62 00
        E 120 90 1a 69
        E 0 90 32 69
        E 0 90 4a 69
        E 0 90 62 69
        E 120 80 1a 00
        E 0 80 32 00
        E 0 80 4a 00
        E 0 80 62 00
        E 120 90 62 69
        E 120 80 62 00
        E 120 90 4a 69
        E 0 90 62 69
        E 120 80 4a 00
        E 0 80 62 00
        E 120 90 62 69
        E 120 80 62 00
        E 120 90 32 69
        E 0 90 4a 69
        E 0 90 62 69
        E 120 80 32 00
        E 0 80 4a 00
        E 0 80 62 00
        E 120 90 62 69
        E 120 80 62 00
        E 120 90 4a 69
        E 0 90 62 69
        E 120 80 4a 00
        E 0 80 62 00
        E 120 90 62 69
        E 120 80 62 00
        E 120 90 1a 67
        E 0 90 32 67
        E 0 90 4a 67
        E 0 90 62 67
        E 0 90 74 60
        E 120 80 1a 00
        E 0 80 32 00
        E 0 80 4a 00
        E 0 80 62 00
        E 120 90 62 67
        E 120 80 62 00
        E 120 90 4a 67
        E 0 90 62 67
        E 120 80 4a 00
        E 0 80 62 00
        E 120 90 62 67
        E 120 80 62 00
        E 120 90 32 67
        E 0 90 4a 67
        E 0 90 62 67
        E 120 80 32 00
        E 0 80 4a 00
        E 0 80 62 00
        E 120 90 62 67
        E 120 80 62 00
        E 120 90 4a 67
        E 0 90 62 67
        E 120 80 4a 00
        E 0 80 62 00
        E 120 90 62 67
        E 120 80 62 00
        E 120 90 1a 67
        E 0 90 32 67
        E 0 90 4a 67
        E 0 90 62 67
        E 120 80 1a 00
        E 0 80 32 00
        E 0 80 4a 00
        E 0 80 62 00
        E 120 90 62 67
        E 120 80 62 00
        E 120 90 4a 67
        E 0 90 62 67
        E 120 80 4a 00
        E 0 80 62 00
        E 120 90 62 67
        E 120 80 62 00
        E 120 90 32 67
        E 0 90 4a 67
        E 0 90 62 67
        E 120 80 32 00
        E 0 80 4a 00
        E 0 80 62 00
        E 120 90 62 67
        E 120 80 62 00
        E 120 90 4a 67
        E 0 90 62 67
        E 120 80 4a 00
        E 0 80 62 00
        E 120 90 62 67
        E 120 80 62 00
        E 120 90 1a 66
        E 0 90 32 66
        E 0 90 4a 66
        E 0 90 62 66
        E 120 80 74 00
        E 0 80 1a 00
        E 0 80 32 00
        E 0 80 4a 00
        E 0 80 62 00
        E 120 90 62 66
        E 120 80 62 00
        E 120 90 4a 66
        E 0 90 62 66
        E 120 80 4a 00
        E 0 80 62 00
        E 120 90 62 66
        E 120 80 62 00
        E 120 90 32 66
        E 0 90 4a 66
        E 0 90 62 66
        E 120 80 32 00
        E 0 80 4a 00
        E 0 80 62 00
        E 120 90 62 66
        E 120 80 62 00
        E 120 90 4a 66
        E 0 90 62 66
        E 120 80 4a 00
        E 0 80 62 00
        E 120 90 62 66
        E 120 80 62 00
        E 120 90 1a 66
        E 0 90 32 66
        E 0 90 4a 66
        E 0 90 62 66
        E 120 80 1a 00
        E 0 80 32 00
        E 0 80 4a 00
        E 0 80 62 00
        E 120 90 62 66
        E 120 80 62 00
        E 120 90 4a 66
        E 0 90 62 66
        E 120 80 4a 00
        E 0 80 62 00
        E 120 90 62 66
        E 120 80 62 00
        E 120 90 32 66
        E 0 90 4a 66
        E 0 90 62 66
        E 120 80 32 00
        E 0 80 4a 00
        E 0 80 62 00
        E 120 90 62 66
        E 120 80 62 00
        E 120 90 4a 66
        E 0 90 62 66
        E 120 80 4a 00
        E 0 80 62 00
        E 120 90 62 66
        E 120 80 62 00
        <X 120 0
          /wFbYmVnaW5fcGIgc29uZ190cmFpbmVyX3BiXzNd
        >
        E 0 90 1a 67
        E 0 90 32 67
        E 0 90 4a 67
        E 0 90 62 67
        E 120 80 1a 00
        E 0 80 32 00
        E 0 80 4a 00
        E 0 80 62 00
        E 120 90 62 67
        E 120 80 62 00
        E 120 90 4a 67
        E 0 90 62 67
        E 120 80 4a 00
        E 0 80 62 00
        E 120 90 62 67
        E 120 80 62 00
        E 120 90 32 67
        E 0 90 4a 67
        E 0 90 62 67
        E 120 80 32 00
        E 0 80 4a 00
        E 0 80 62 00
        E 120 90 62 67
        E 120 80 62 00
        E 120 90 4a 67
        E 0 90 62 67
        E 120 80 4a 00
        E 0 80 62 00
        E 120 90 62 67
        E 120 80 62 00
        <X 120 0
          /wFbcGJfbm9ybSBzb25nX3RyYWluZXJfcGJfM10=
        >
        E 0 90 1a 66
        E 0 90 32 66
        E 0 90 4a 66
        E 0 90 62 66
        E 120 80 1a 00
        E 0 80 32 00
        E 0 80 4a 00
        E 0 80 62 00
        E 120 90 62 66
        E 120 80 62 00
        E 120 90 4a 66
        E 0 90 62 66
        E 120 80 4a 00
        E 0 80 62 00
        E 120 90 62 66
        E 120 80 62 00
        E 120 90 32 66
        E 0 90 4a 66
        E 0 90 62 66
        E 120 80 32 00
        E 0 80 4a 00
        E 0 80 62 00
        E 120 90 62 66
        E 120 80 62 00
        E 120 90 4a 66
        E 0 90 62 66
        E 120 80 4a 00
        E 0 80 62 00
        E 120 90 62 66
        E 120 80 62 00
        E 120 90 1a 67
        E 0 90 32 67
        E 0 90 4a 67
        E 0 90 62 67
        E 120 80 1a 00
        E 0 80 32 00
        E 0 80 4a 00
        E 0 80 62 00
        E 120 90 62 67
        E 120 80 62 00
        E 120 90 4a 67
        E 0 90 62 67
        E 120 80 4a 00
        E 0 80 62 00
        E 120 90 62 67
        E 120 80 62 00
        E 120 90 32 67
        E 0 90 4a 67
        E 0 90 62 67
        E 120 80 32 00
        E 0 80 4a 00
        E 0 80 62 00
        E 120 90 62 67
        E 120 80 62 00
        E 120 90 4a 67
        E 0 90 62 67
        E 120 80 4a 00
        E 0 80 62 00
        E 120 90 62 67
        E 120 80 62 00
        E 120 90 1a 66
        E 0 90 32 66
        E 0 90 4a 66
        E 0 90 62 66
        E 120 80 1a 00
        E 0 80 32 00
        E 0 80 4a 00
        E 0 80 62 00
        E 120 90 62 66
        E 120 80 62 00
        E 120 90 4a 66
        E 0 90 62 66
        E 120 80 4a 00
        E 0 80 62 00
        E 120 90 62 66
        E 120 80 62 00
        E 120 90 32 66
        E 0 90 4a 66
        E 0 90 62 66
        E 120 80 32 00
        E 0 80 4a 00
        E 0 80 62 00
        E 120 90 62 66
        E 120 80 62 00
        E 120 90 4a 66
        E 0 90 62 66
        E 120 80 4a 00
        E 0 80 62 00
        E 120 90 62 66
        E 120 80 62 00
        <X 120 0
          /wFbZW5kX3BiIHNvbmdfdHJhaW5lcl9wYl8zXQ==
        >
        E 0 90 1b 66
        E 0 90 33 66
        E 0 90 4b 66
        E 0 90 63 66
        E 120 80 1b 00
        E 0 80 33 00
        E 0 80 4b 00
        E 0 80 63 00
        E 120 90 63 66
        E 120 80 63 00
        E 120 90 4b 66
        E 0 90 63 66
        E 120 80 4b 00
        E 0 80 63 00
        E 120 90 63 66
        E 120 80 63 00
        E 120 90 33 66
        E 0 90 4b 66
        E 0 90 63 66
        E 120 80 33 00
        E 0 80 4b 00
        E 0 80 63 00
        E 120 90 63 66
        E 120 80 63 00
        E 120 90 4b 66
        E 0 90 63 66
        E 120 80 4b 00
        E 0 80 63 00
        E 120 90 63 66
        E 120 80 63 00
        E 120 90 1b 66
        E 0 90 33 66
        E 0 90 4b 66
        E 0 90 63 66
        E 120 80 1b 00
        E 0 80 33 00
        E 0 80 4b 00
        E 0 80 63 00
        E 120 90 63 66
        E 120 80 63 00
        E 120 90 4b 66
        E 0 90 63 66
        E 120 80 4b 00
        E 0 80 63 00
        E 120 90 63 66
        E 120 80 63 00
        E 120 90 33 66
        E 0 90 4b 66
        E 0 90 63 66
        E 120 80 33 00
        E 0 80 4b 00
        E 0 80 63 00
        E 120 90 63 66
        E 120 80 63 00
        E 120 90 4b 66
        E 0 90 63 66
        E 120 80 4b 00
        E 0 80 63 00
        E 120 90 63 66
        E 120 80 63 00
        E 120 90 1b 66
        E 0 90 33 66
        E 0 90 4b 66
        E 0 90 63 66
        E 120 80 1b 00
        E 0 80 33 00
        E 0 80 4b 00
        E 0 80 63 00
        E 120 90 63 66
        E 120 80 63 00
        E 120 90 4b 66
        E 0 90 63 66
        E 120 80 4b 00
        E 0 80 63 00
        E 120 90 63 66
        E 120 80 63 00
        E 120 90 33 66
        E 0 90 4b 66
        E 0 90 63 66
        E 120 80 33 00
        E 0 80 4b 00
        E 0 80 63 00
        E 120 90 63 66
        E 120 80 63 00
        E 120 90 4b 66
        E 0 90 63 66
        E 120 80 4b 00
        E 0 80 63 00
        E 120 90 63 66
        E 120 80 63 00
        E 120 90 1a 69
        E 0 90 32 69
        E 0 90 4a 69
        E 0 90 62 69
        E 120 80 1a 00
        E 0 80 32 00
        E 0 80 4a 00
        E 0 80 62 00
        E 120 90 62 69
        E 120 80 62 00
        E 120 90 4a 69
        E 0 90 62 69
        E 120 80 4a 00
        E 0 80 62 00
        E 120 90 62 69
        E 120 80 62 00
        E 120 90 32 66
        E 0 90 4a 66
        E 0 90 62 66
        E 120 80 32 00
        E 0 80 4a 00
        E 0 80 62 00
        E 120 90 62 66
        E 120 80 62 00
        E 120 90 4a 67
        E 0 90 62 67
        E 120 80 4a 00
        E 0 80 62 00
        E 120 90 62 67
        E 120 80 62 00
        E 120 90 1b 66
        E 0 90 33 66
        E 0 90 4b 66
        E 0 90 63 66
        E 120 80 1b 00
        E 0 80 33 00
        E 0 80 4b 00
        E 0 80 63 00
        E 120 90 63 66
        E 120 80 63 00
        E 120 90 4b 66
        E 0 90 63 66
        E 120 80 4b 00
        E 0 80 63 00
        E 120 90 63 66
        E 120 80 63 00
        E 120 90 33 66
        E 0 90 4b 66
        E 0 90 63 66
        E 120 80 33 00
        E 0 80 4b 00
        E 0 80 63 00
        E 120 90 63 66
        E 120 80 63 00
        E 120 90 4b 66
        E 0 90 63 66
        E 120 80 4b 00
        E 0 80 63 00
        E 120 90 63 66
        E 120 80 63 00
        E 120 90 1b 66
        E 0 90 33 66
        E 0 90 4b 66
        E 0 90 63 66
        E 120 80 1b 00
        E 0 80 33 00
        E 0 80 4b 00
        E 0 80 63 00
        E 120 90 63 66
        E 120 80 63 00
        E 120 90 4b 66
        E 0 90 63 66
        E 120 80 4b 00
        E 0 80 63 00
        E 120 90 63 66
        E 120 80 63 00
        E 120 90 33 66
        E 0 90 4b 66
        E 0 90 63 66
        E 120 80 33 00
        E 0 80 4b 00
        E 0 80 63 00
        E 120 90 63 66
        E 120 80 63 00
        E 120 90 4b 66
        E 0 90 63 66
        E 120 80 4b 00
        E 0 80 63 00
        E 120 90 63 66
        E 120 80 63 00
        E 120 90 1a 69
        E 0 90 32 69
        E 0 90 4a 69
        E 0 90 62 69
        E 0 90 74 60
        E 120 80 1a 00
        E 0 80 32 00
        E 0 80 4a 00
        E 0 80 62 00
        E 120 90 62 69
        E 120 80 62 00
        E 120 90 4a 69
        E 0 90 62 69
        E 120 80 4a 00
        E 0 80 62 00
        E 120 90 62 69
        E 120 80 62 00
        E 120 90 32 69
        E 0 90 4a 69
        E 0 90 62 69
        E 120 80 32 00
        E 0 80 4a 00
        E 0 80 62 00
        E 120 90 62 69
        E 120 80 62 00
        E 120 90 4a 69
        E 0 90 62 69
        E 120 80 4a 00
        E 0 80 62 00
        E 120 90 62 69
        E 120 80 62 00
        E 120 90 1a 69
        E 0 90 32 69
        E 0 90 4a 69
        E 0 90 62 69
        E 120 80 1a 00
        E 0 80 32 00
        E 0 80 4a 00
        E 0 80 62 00
        E 120 90 62 69
        E 120 80 62 00
        E 120 90 4a 69
        E 0 90 62 69
        E 120 80 4a 00
        E 0 80 62 00
        E 120 90 62 69
        E 120 80 62 00
        E 120 90 32 69
        E 0 90 4a 69
        E 0 90 62 69
        E 120 80 32 00
        E 0 80 4a 00
        E 0 80 62 00
        E 120 90 62 69
        E 120 80 62 00
        E 120 90 4a 69
        E 0 90 62 69
        E 120 80 4a 00
        E 0 80 62 00
        E 120 90 62 69
        E 120 80 62 00
        E 120 80 74 00
        E 0 90 1a 67
        E 0 90 32 67
        E 0 90 4a 67
        E 0 90 62 67
        E 120 80 1a 00
        E 0 80 32 00
        E 0 80 4a 00
        E 0 80 62 00
        E 120 90 62 67
        E 120 80 62 00
        E 120 90 4a 67
        E 0 90 62 67
        E 120 80 4a 00
        E 0 80 62 00
        E 120 90 62 67
        E 120 80 62 00
        E 120 90 32 67
        E 0 90 4a 67
        E 0 90 62 67
        E 120 80 32 00
        E 0 80 4a 00
        E 0 80 62 00
        E 120 90 62 67
        E 120 80 62 00
        E 120 90 4a 67
        E 0 90 62 67
        E 120 80 4a 00
        E 0 80 62 00
        E 120 90 62 67
        E 120 80 62 00
        E 120 90 1a 67
        E 0 90 32 67
        E 0 90 4a 67
        E 0 90 62 67
        E 120 80 1a 00
        E 0 80 32 00
        E 0 80 4a 00
        E 0 80 62 00
        E 120 90 62 67
        E 120 80 62 00
        E 120 90 4a 67
        E 0 90 62 67
        E 120 80 4a 00
        E 0 80 62 00
        E 120 90 62 67
        E 120 80 62 00
        E 120 90 32 67
        E 0 90 4a 67
        E 0 90 62 67
        E 120 80 32 00
        E 0 80 4a 00
        E 0 80 62 00
        E 120 90 62 67
        E 120 80 62 00
        E 120 90 4a 67
        E 0 90 62 67
        E 120 80 4a 00
        E 0 80 62 00
        E 120 90 62 67
        E 120 80 62 00
        E 120 90 1a 66
        E 0 90 32 66
        E 0 90 4a 66
        E 0 90 62 66
        E 120 80 1a 00
        E 0 80 32 00
        E 0 80 4a 00
        E 0 80 62 00
        E 120 90 62 66
        E 120 80 62 00
        E 120 90 4a 66
        E 0 90 62 66
        E 120 80 4a 00
        E 0 80 62 00
        E 120 90 62 66
        E 120 80 62 00
        E 120 90 32 66
        E 0 90 4a 66
        E 0 90 62 66
        E 120 80 32 00
        E 0 80 4a 00
        E 0 80 62 00
        E 120 90 62 66
        E 120 80 62 00
        E 120 90 4a 66
        E 0 90 62 66
        E 120 80 4a 00
        E 0 80 62 00
        E 120 90 62 66
        E 120 80 62 00
        E 120 90 1a 66
        E 0 90 32 66
        E 0 90 4a 66
        E 0 90 62 66
        E 120 80 1a 00
        E 0 80 32 00
        E 0 80 4a 00
        E 0 80 62 00
        E 120 90 62 66
        E 120 80 62 00
        E 120 90 4a 66
        E 0 90 62 66
        E 120 80 4a 00
        E 0 80 62 00
        E 120 90 62 66
        E 120 80 62 00
        E 120 90 32 66
        E 0 90 4a 66
        E 0 90 62 66
        E 120 80 32 00
        E 0 80 4a 00
        E 0 80 62 00
        E 120 90 62 66
        E 120 80 62 00
        E 120 90 4a 66
        E 0 90 62 66
        E 120 80 4a 00
        E 0 80 62 00
        E 120 90 62 66
        E 120 80 62 00
        E 120 90 1b 66
        E 0 90 33 66
        E 0 90 4b 66
        E 0 90 63 66
        E 120 80 1b 00
        E 0 80 33 00
        E 0 80 4b 00
        E 0 80 63 00
        E 120 90 63 66
        E 120 80 63 00
        E 120 90 4b 66
        E 0 90 63 66
        E 120 80 4b 00
        E 0 80 63 00
        E 120 90 63 66
        E 120 80 63 00
        E 120 90 33 66
        E 0 90 4b 66
        E 0 90 63 66
        E 120 80 33 00
        E 0 80 4b 00
        E 0 80 63 00
        E 120 90 63 66
        E 120 80 63 00
        E 120 90 4b 66
        E 0 90 63 66
        E 120 80 4b 00
        E 0 80 63 00
        E 120 90 63 66
        E 120 80 63 00
        E 120 90 1b 66
        E 0 90 33 66
        E 0 90 4b 66
        E 0 90 63 66
        E 120 80 1b 00
        E 0 80 33 00
        E 0 80 4b 00
        E 0 80 63 00
        E 120 90 63 66
        E 120 80 63 00
        E 120 90 4b 66
        E 0 90 63 66
        E 120 80 4b 00
        E 0 80 63 00
        E 120 90 63 66
        E 120 80 63 00
        E 120 90 33 66
        E 0 90 4b 66
        E 0 90 63 66
        E 120 80 33 00
        E 0 80 4b 00
        E 0 80 63 00
        E 120 90 63 66
        E 120 80 63 00
        E 120 90 4b 66
        E 0 90 63 66
        E 120 80 4b 00
        E 0 80 63 00
        E 120 90 63 66
        E 120 80 63 00
        E 120 90 1a 69
        E 0 90 32 69
        E 0 90 4a 69
        E 0 90 62 69
        E 120 80 1a 00
        E 0 80 32 00
        E 0 80 4a 00
        E 0 80 62 00
        E 120 90 62 69
        E 120 80 62 00
        E 120 90 4a 69
        E 0 90 62 69
        E 120 80 4a 00
        E 0 80 62 00
        E 120 90 62 69
        E 120 80 62 00
        E 120 90 32 69
        E 0 90 4a 69
        E 0 90 62 69
        E 120 80 32 00
        E 0 80 4a 00
        E 0 80 62 00
        E 120 90 62 69
        E 120 80 62 00
        E 120 90 4a 69
        E 0 90 62 69
        E 120 80 4a 00
        E 0 80 62 00
        E 120 90 62 69
        E 120 80 62 00
        E 120 90 1a 69
        E 0 90 32 69
        E 0 90 4a 69
        E 0 90 62 69
        E 120 80 1a 00
        E 0 80 32 00
        E 0 80 4a 00
        E 0 80 62 00
        E 120 90 62 69
        E 120 80 62 00
        E 120 90 4a 69
        E 0 90 62 69
        E 120 80 4a 00
        E 0 80 62 00
        E 120 90 62 69
        E 120 80 62 00
        E 120 90 32 69
        E 0 90 4a 69
        E 0 90 62 69
        E 120 80 32 00
        E 0 80 4a 00
        E 0 80 62 00
        E 120 90 62 69
        E 120 80 62 00
        E 120 90 4a 69
        E 0 90 62 69
        E 120 80 4a 00
        E 0 80 62 00
        E 120 90 62 69
        E 120 80 62 00
        E 120 90 1a 67
        E 0 90 32 67
        E 0 90 4a 67
        E 0 90 62 67
        E 120 80 1a 00
        E 0 80 32 00
        E 0 80 4a 00
        E 0 80 62 00
        E 120 90 62 67
        E 120 80 62 00
        E 120 90 4a 67
        E 0 90 62 67
        E 120 80 4a 00
        E 0 80 62 00
        E 120 90 62 67
        E 120 80 62 00
        E 120 90 32 67
        E 0 90 4a 67
        E 0 90 62 67
        E 120 80 32 00
        E 0 80 4a 00
        E 0 80 62 00
        E 120 90 62 67
        E 120 80 62 00
        E 120 90 4a 67
        E 0 90 62 67
        E 120 80 4a 00
        E 0 80 62 00
        E 120 90 62 67
        E 120 80 62 00
        E 120 90 1a 67
        E 0 90 32 67
        E 0 90 4a 67
        E 0 90 62 67
        E 120 80 1a 00
        E 0 80 32 00
        E 0 80 4a 00
        E 0 80 62 00
        E 120 90 62 67
        E 120 80 62 00
        E 120 90 4a 67
        E 0 90 62 67
        E 120 80 4a 00
        E 0 80 62 00
        E 120 90 62 67
        E 120 80 62 00
        E 120 90 32 67
        E 0 90 4a 67
        E 0 90 62 67
        E 120 80 32 00
        E 0 80 4a 00
        E 0 80 62 00
        E 120 90 62 67
        E 120 80 62 00
        E 120 90 4a 67
        E 0 90 62 67
        E 120 80 4a 00
        E 0 80 62 00
        E 120 90 62 67
        E 120 80 62 00
        E 120 90 1a 66
        E 0 90 32 66
        E 0 90 4a 66
        E 0 90 62 66
        E 120 80 1a 00
        E 0 80 32 00
        E 0 80 4a 00
        E 0 80 62 00
        E 120 90 62 66
        E 120 80 62 00
        E 120 90 4a 66
        E 0 90 62 66
        E 120 80 4a 00
        E 0 80 62 00
        E 120 90 62 66
        E 120 80 62 00
        E 120 90 32 66
        E 0 90 4a 66
        E 0 90 62 66
        E 120 80 32 00
        E 0 80 4a 00
        E 0 80 62 00
        E 120 90 62 66
        E 120 80 62 00
        E 120 90 4a 66
        E 0 90 62 66
        E 120 80 4a 00
        E 0 80 62 00
        E 120 90 62 66
        E 120 80 62 00
        E 120 90 1a 66
        E 0 90 32 66
        E 0 90 4a 66
        E 0 90 62 66
        E 120 80 1a 00
        E 0 80 32 00
        E 0 80 4a 00
        E 0 80 62 00
        E 120 90 62 66
        E 120 80 62 00
        E 120 90 4a 66
        E 0 90 62 66
        E 120 80 4a 00
        E 0 80 62 00
        E 120 90 62 66
        E 120 80 62 00
        E 120 90 32 66
        E 0 90 4a 66
        E 0 90 62 66
        E 120 80 32 00
        E 0 80 4a 00
        E 0 80 62 00
        E 120 90 62 66
        E 120 80 62 00
        E 120 90 4a 66
        E 0 90 62 66
        E 120 80 4a 00
        E 0 80 62 00
        E 120 90 62 66
        E 120 80 62 00
        E 120 90 1a 67
        E 0 90 32 67
        E 0 90 4a 67
        E 0 90 62 67
        E 120 80 1a 00
        E 0 80 32 00
        E 0 80 4a 00
        E 0 80 62 00
        E 120 90 62 67
        E 120 80 62 00
        E 120 90 4a 67
        E 0 90 62 67
        E 120 80 4a 00
        E 0 80 62 00
        E 120 90 62 67
        E 120 80 62 00
        E 120 90 32 67
        E 0 90 4a 67
        E 0 90 62 67
        E 120 80 32 00
        E 0 80 4a 00
        E 0 80 62 00
        E 120 90 62 67
        E 120 80 62 00
        E 120 90 4a 67
        E 0 90 62 67
        E 120 80 4a 00
        E 0 80 62 00
        E 120 90 62 67
        E 120 80 62 00
        E 120 90 1a 66
        E 0 90 32 66
        E 0 90 4a 66
        E 0 90 62 66
        E 120 80 1a 00
        E 0 80 32 00
        E 0 80 4a 00
        E 0 80 62 00
        E 120 90 62 66
        E 120 80 62 00
        E 120 90 4a 66
        E 0 90 62 66
        E 120 80 4a 00
        E 0 80 62 00
        E 120 90 62 66
        E 120 80 62 00
        E 120 90 32 66
        E 0 90 4a 66
        E 0 90 62 66
        E 120 80 32 00
        E 0 80 4a 00
        E 0 80 62 00
        E 120 90 62 66
        E 120 80 62 00
        E 120 90 4a 66
        E 0 90 62 66
        E 120 80 4a 00
        E 0 80 62 00
        E 120 90 62 66
        E 120 80 62 00
        E 120 90 1a 67
        E 0 90 32 67
        E 0 90 4a 67
        E 0 90 62 67
        E 120 80 1a 00
        E 0 80 32 00
        E 0 80 4a 00
        E 0 80 62 00
        E 120 90 62 67
        E 120 80 62 00
        E 120 90 4a 67
        E 0 90 62 67
        E 120 80 4a 00
        E 0 80 62 00
        E 120 90 62 67
        E 120 80 62 00
        E 120 90 32 67
        E 0 90 4a 67
        E 0 90 62 67
        E 120 80 32 00
        E 0 80 4a 00
        E 0 80 62 00
        E 120 90 62 67
        E 120 80 62 00
        E 120 90 4a 67
        E 0 90 62 67
        E 120 80 4a 00
        E 0 80 62 00
        E 120 90 62 67
        E 120 80 62 00
        E 120 90 1a 66
        E 0 90 32 66
        E 0 90 4a 66
        E 0 90 62 66
        E 120 80 1a 00
        E 0 80 32 00
        E 0 80 4a 00
        E 0 80 62 00
        E 120 90 62 66
        E 120 80 62 00
        E 120 90 4a 66
        E 0 90 62 66
        E 120 80 4a 00
        E 0 80 62 00
        E 120 90 62 66
        E 120 80 62 00
        E 120 90 32 66
        E 0 90 4a 66
        E 0 90 62 66
        E 120 80 32 00
        E 0 80 4a 00
        E 0 80 62 00
        E 120 90 62 66
        E 120 80 62 00
        E 120 90 4a 66
        E 0 90 62 66
        E 120 80 4a 00
        E 0 80 62 00
        E 120 90 62 66
        E 120 80 62 00
        E 120 90 1b 66
        E 0 90 33 66
        E 0 90 4b 66
        E 0 90 63 66
        E 120 80 1b 00
        E 0 80 33 00
        E 0 80 4b 00
        E 0 80 63 00
        E 120 90 63 66
        E 120 80 63 00
        E 120 90 4b 66
        E 0 90 63 66
        E 120 80 4b 00
        E 0 80 63 00
        E 120 90 63 66
        E 120 80 63 00
        E 120 90 33 66
        E 0 90 4b 66
        E 0 90 63 66
        E 120 80 33 00
        E 0 80 4b 00
        E 0 80 63 00
        E 120 90 63 66
        E 120 80 63 00
        E 120 90 4b 66
        E 0 90 63 66
        E 120 80 4b 00
        E 0 80 63 00
        E 120 90 63 66
        E 120 80 63 00
        E 120 90 1b 66
        E 0 90 33 66
        E 0 90 4b 66
        E 0 90 63 66
        E 120 80 1b 00
        E 0 80 33 00
        E 0 80 4b 00
        E 0 80 63 00
        E 120 90 63 66
        E 120 80 63 00
        E 120 90 4b 66
        E 0 90 63 66
        E 120 80 4b 00
        E 0 80 63 00
        E 120 90 63 66
        E 120 80 63 00
        E 120 90 33 66
        E 0 90 4b 66
        E 0 90 63 66
        E 120 80 33 00
        E 0 80 4b 00
        E 0 80 63 00
        E 120 90 63 66
        E 120 80 63 00
        E 120 90 4b 66
        E 0 90 63 66
        E 120 80 4b 00
        E 0 80 63 00
        E 120 90 63 66
        E 120 80 63 00
        E 120 90 1b 66
        E 0 90 33 66
        E 0 90 4b 66
        E 0 90 63 66
        E 120 80 1b 00
        E 0 80 33 00
        E 0 80 4b 00
        E 0 80 63 00
        E 120 90 63 66
        E 120 80 63 00
        E 120 90 4b 66
        E 0 90 63 66
        E 120 80 4b 00
        E 0 80 63 00
        E 120 90 63 66
        E 120 80 63 00
        E 120 90 33 66
        E 0 90 4b 66
        E 0 90 63 66
        E 120 80 33 00
        E 0 80 4b 00
        E 0 80 63 00
        E 120 90 63 66
        E 120 80 63 00
        E 120 90 4b 66
        E 0 90 63 66
        E 120 80 4b 00
        E 0 80 63 00
        E 120 90 63 66
        E 120 80 63 00
        E 120 90 1a 69
        E 0 90 32 69
        E 0 90 4a 69
        E 0 90 62 69
        E 120 80 1a 00
        E 0 80 32 00
        E 0 80 4a 00
        E 0 80 62 00
        E 120 90 62 69
        E 120 80 62 00
        E 120 90 4a 69
        E 0 90 62 69
        E 120 80 4a 00
        E 0 80 62 00
        E 120 90 62 69
        E 120 80 62 00
        E 120 90 32 66
        E 0 90 4a 66
        E 0 90 62 66
        E 120 80 32 00
        E 0 80 4a 00
        E 0 80 62 00
        E 120 90 62 66
        E 120 80 62 00
        E 120 90 4a 67
        E 0 90 62 67
        E 120 80 4a 00
        E 0 80 62 00
        E 120 90 62 67
        E 120 80 62 00
        E 120 90 1b 66
        E 0 90 33 66
        E 0 90 4b 66
        E 0 90 63 66
        E 0 90 74 60
        E 120 80 1b 00
        E 0 80 33 00
        E 0 80 4b 00
        E 0 80 63 00
        E 120 90 63 66
        E 120 80 63 00
        E 120 90 4b 66
        E 0 90 63 66
        E 120 80 4b 00
        E 0 80 63 00
        E 120 90 63 66
        E 120 80 63 00
        E 120 90 33 66
        E 0 90 4b 66
        E 0 90 63 66
        E 120 80 33 00
        E 0 80 4b 00
        E 0 80 63 00
        E 120 90 63 66
        E 120 80 63 00
        E 120 90 4b 66
        E 0 90 63 66
        E 120 80 4b 00
        E 0 80 63 00
        E 120 90 63 66
        E 120 80 63 00
        E 120 90 1b 66
        E 0 90 33 66
        E 0 90 4b 66
        E 0 90 63 66
        E 120 80 1b 00
        E 0 80 33 00
        E 0 80 4b 00
        E 0 80 63 00
        E 120 90 63 66
        E 120 80 63 00
        E 120 90 4b 66
        E 0 90 63 66
        E 120 80 4b 00
        E 0 80 63 00
        E 120 90 63 66
        E 120 80 63 00
        E 120 90 33 66
        E 0 90 4b 66
        E 0 90 63 66
        E 120 80 33 00
        E 0 80 4b 00
        E 0 80 63 00
        E 120 90 63 66
        E 120 80 63 00
        E 120 90 4b 66
        E 0 90 63 66
        E 120 80 4b 00
        E 0 80 63 00
        E 120 90 63 66
        E 120 80 63 00
        E 120 90 1a 69
        E 0 90 32 69
        E 0 90 4a 69
        E 0 90 62 69
        E 120 80 74 00
        E 0 80 1a 00
        E 0 80 32 00
        E 0 80 4a 00
        E 0 80 62 00
        E 120 90 62 69
        E 120 80 62 00
        E 120 90 4a 69
        E 0 90 62 69
        E 120 80 4a 00
        E 0 80 62 00
        E 120 90 62 69
        E 120 80 62 00
        E 120 90 32 69
        E 0 90 4a 69
        E 0 90 62 69
        E 120 80 32 00
        E 0 80 4a 00
        E 0 80 62 00
        E 120 90 62 69
        E 120 80 62 00
        E 120 90 4a 69
        E 0 90 62 69
        E 120 80 4a 00
        E 0 80 62 00
        E 120 90 62 69
        E 120 80 62 00
        E 120 90 1a 69
        E 0 90 32 69
        E 0 90 4a 69
        E 0 90 62 69
        E 120 80 1a 00
        E 0 80 32 00
        E 0 80 4a 00
        E 0 80 62 00
        E 120 90 62 69
        E 120 80 62 00
        E 120 90 4a 69
        E 0 90 62 69
        E 120 80 4a 00
        E 0 80 62 00
        E 120 90 62 69
        E 120 80 62 00
        E 120 90 32 69
        E 0 90 4a 69
        E 0 90 62 69
        E 120 80 32 00
        E 0 80 4a 00
        E 0 80 62 00
        E 120 90 62 69
        E 120 80 62 00
        E 120 90 4a 69
        E 0 90 62 69
        E 120 80 4a 00
        E 0 80 62 00
        E 120 90 62 69
        E 120 80 62 00
        E 120 90 1a 67
        E 0 90 32 67
        E 0 90 4a 67
        E 0 90 62 67
        E 120 80 1a 00
        E 0 80 32 00
        E 0 80 4a 00
        E 0 80 62 00
        E 120 90 62 67
        E 120 80 62 00
        E 120 90 4a 67
        E 0 90 62 67
        E 120 80 4a 00
        E 0 80 62 00
        E 120 90 62 67
        E 120 80 62 00
        E 120 90 32 67
        E 0 90 4a 67
        E 0 90 62 67
        E 120 80 32 00
        E 0 80 4a 00
        E 0 80 62 00
        E 120 90 62 67
        E 120 80 62 00
        E 120 90 4a 67
        E 0 90 62 67
        E 120 80 4a 00
        E 0 80 62 00
        E 120 90 62 67
        E 120 80 62 00
        E 120 90 1a 67
        E 0 90 32 67
        E 0 90 4a 67
        E 0 90 62 67
        E 120 80 1a 00
        E 0 80 32 00
        E 0 80 4a 00
        E 0 80 62 00
        E 120 90 62 67
        E 120 80 62 00
        E 120 90 4a 67
        E 0 90 62 67
        E 120 80 4a 00
        E 0 80 62 00
        E 120 90 62 67
        E 120 80 62 00
        E 120 90 32 67
        E 0 90 4a 67
        E 0 90 62 67
        E 120 80 32 00
        E 0 80 4a 00
        E 0 80 62 00
        E 120 90 62 67
        E 120 80 62 00
        E 120 90 4a 67
        E 0 90 62 67
        E 120 80 4a 00
        E 0 80 62 00
        E 120 90 62 67
        E 120 80 62 00
        E 120 90 1a 66
        E 0 90 32 66
        E 0 90 4a 66
        E 0 90 62 66
        E 120 80 1a 00
        E 0 80 32 00
        E 0 80 4a 00
        E 0 80 62 00
        E 120 90 62 66
        E 120 80 62 00
        E 120 90 4a 66
        E 0 90 62 66
        E 120 80 4a 00
        E 0 80 62 00
        E 120 90 62 66
        E 120 80 62 00
        E 120 90 32 66
        E 0 90 4a 66
        E 0 90 62 66
        E 120 80 32 00
        E 0 80 4a 00
        E 0 80 62 00
        E 120 90 62 66
        E 120 80 62 00
        E 120 90 4a 66
        E 0 90 62 66
        E 120 80 4a 00
        E 0 80 62 00
        E 120 90 62 66
        E 120 80 62 00
        E 120 90 1a 66
        E 0 90 32 66
        E 0 90 4a 66
        E 0 90 62 66
        E 120 80 1a 00
        E 0 80 32 00
        E 0 80 4a 00
        E 0 80 62 00
        E 120 90 62 66
        E 120 80 62 00
        E 120 90 4a 66
        E 0 90 62 66
        E 120 80 4a 00
        E 0 80 62 00
        E 120 90 62 66
        E 120 80 62 00
        E 120 90 32 66
        E 0 90 4a 66
        E 0 90 62 66
        E 120 80 32 00
        E 0 80 4a 00
        E 0 80 62 00
        E 120 90 62 66
        E 120 80 62 00
        E 120 90 4a 66
        E 0 90 62 66
        E 120 80 4a 00
        E 0 80 62 00
        E 120 90 62 66
        E 120 80 62 00
        E 120 90 1b 66
        E 0 90 33 66
        E 0 90 4b 66
        E 0 90 63 66
        E 120 80 1b 00
        E 0 80 33 00
        E 0 80 4b 00
        E 0 80 63 00
        E 120 90 63 66
        E 120 80 63 00
        E 120 90 4b 66
        E 0 90 63 66
        E 120 80 4b 00
        E 0 80 63 00
        E 120 90 63 66
        E 120 80 63 00
        E 120 90 33 66
        E 0 90 4b 66
        E 0 90 63 66
        E 120 80 33 00
        E 0 80 4b 00
        E 0 80 63 00
        E 120 90 63 66
        E 120 80 63 00
        E 120 90 4b 66
        E 0 90 63 66
        E 120 80 4b 00
        E 0 80 63 00
        E 120 90 63 66
        E 120 80 63 00
        E 120 90 1b 66
        E 0 90 33 66
        E 0 90 4b 66
        E 0 90 63 66
        E 120 80 1b 00
        E 0 80 33 00
        E 0 80 4b 00
        E 0 80 63 00
        E 120 90 63 66
        E 120 80 63 00
        E 120 90 4b 66
        E 0 90 63 66
        E 120 80 4b 00
        E 0 80 63 00
        E 120 90 63 66
        E 120 80 63 00
        E 120 90 33 66
        E 0 90 4b 66
        E 0 90 63 66
        E 120 80 33 00
        E 0 80 4b 00
        E 0 80 63 00
        E 120 90 63 66
        E 120 80 63 00
        E 120 90 4b 66
        E 0 90 63 66
        E 120 80 4b 00
        E 0 80 63 00
        E 120 90 63 66
        E 120 80 63 00
        E 120 90 1a 69
        E 0 90 32 69
        E 0 90 4a 69
        E 0 90 62 69
        E 120 80 1a 00
        E 0 80 32 00
        E 0 80 4a 00
        E 0 80 62 00
        E 120 90 62 69
        E 120 80 62 00
        E 120 90 4a 69
        E 0 90 62 69
        E 120 80 4a 00
        E 0 80 62 00
        E 120 90 62 69
        E 120 80 62 00
        E 120 90 32 69
        E 0 90 4a 69
        E 0 90 62 69
        E 120 80 32 00
        E 0 80 4a 00
        E 0 80 62 00
        E 120 90 62 69
        E 120 80 62 00
        E 120 90 4a 69
        E 0 90 62 69
        E 120 80 4a 00
        E 0 80 62 00
        E 120 90 62 69
        E 120 80 62 00
        E 120 90 1a 69
        E 0 90 32 69
        E 0 90 4a 69
        E 0 90 62 69
        E 120 80 1a 00
        E 0 80 32 00
        E 0 80 4a 00
        E 0 80 62 00
        E 120 90 62 69
        E 120 80 62 00
        E 120 90 4a 69
        E 0 90 62 69
        E 120 80 4a 00
        E 0 80 62 00
        E 120 90 62 69
        E 120 80 62 00
        E 120 90 32 69
        E 0 90 4a 69
        E 0 90 62 69
        E 120 80 32 00
        E 0 80 4a 00
        E 0 80 62 00
        E 120 90 62 69
        E 120 80 62 00
        E 120 90 4a 69
        E 0 90 62 69
        E 120 80 4a 00
        E 0 80 62 00
        E 120 90 62 69
        E 120 80 62 00
        E 120 90 1a 67
        E 0 90 32 67
        E 0 90 4a 67
        E 0 90 62 67
        E 120 80 1a 00
        E 0 80 32 00
        E 0 80 4a 00
        E 0 80 62 00
        E 120 90 62 67
        E 120 80 62 00
        E 120 90 4a 67
        E 0 90 62 67
        E 120 80 4a 00
        E 0 80 62 00
        E 120 90 62 67
        E 120 80 62 00
        E 120 90 32 67
        E 0 90 4a 67
        E 0 90 62 67
        E 120 80 32 00
        E 0 80 4a 00
        E 0 80 62 00
        E 120 90 62 67
        E 120 80 62 00
        E 120 90 4a 67
        E 0 90 62 67
        E 120 80 4a 00
        E 0 80 62 00
        E 120 90 62 67
        E 120 80 62 00
        E 120 90 1a 67
        E 0 90 32 67
        E 0 90 4a 67
        E 0 90 62 67
        E 120 80 1a 00
        E 0 80 32 00
        E 0 80 4a 00
        E 0 80 62 00
        E 120 90 62 67
        E 120 80 62 00
        E 120 90 4a 67
        E 0 90 62 67
        E 120 80 4a 00
        E 0 80 62 00
        E 120 90 62 67
        E 120 80 62 00
        E 120 90 32 67
        E 0 90 4a 67
        E 0 90 62 67
        E 120 80 32 00
        E 0 80 4a 00
        E 0 80 62 00
        E 120 90 62 67
        E 120 80 62 00
        E 120 90 4a 67
        E 0 90 62 67
        E 120 80 4a 00
        E 0 80 62 00
        E 120 90 62 67
        E 120 80 62 00
        E 120 90 1a 66
        E 0 90 32 66
        E 0 90 4a 66
        E 0 90 62 66
        E 120 80 1a 00
        E 0 80 32 00
        E 0 80 4a 00
        E 0 80 62 00
        E 120 90 62 66
        E 120 80 62 00
        E 120 90 4a 66
        E 0 90 62 66
        E 120 80 4a 00
        E 0 80 62 00
        E 120 90 62 66
        E 120 80 62 00
        E 120 90 32 66
        E 0 90 4a 66
        E 0 90 62 66
        E 120 80 32 00
        E 0 80 4a 00
        E 0 80 62 00
        E 120 90 62 66
        E 120 80 62 00
        E 120 90 4a 66
        E 0 90 62 66
        E 120 80 4a 00
        E 0 80 62 00
        E 120 90 62 66
        E 120 80 62 00
        E 120 90 1a 66
        E 0 90 32 66
        E 0 90 4a 66
        E 0 90 62 66
        E 120 80 1a 00
        E 0 80 32 00
        E 0 80 4a 00
        E 0 80 62 00
        E 120 90 62 66
        E 120 80 62 00
        E 120 90 4a 66
        E 0 90 62 66
        E 120 80 4a 00
        E 0 80 62 00
        E 120 90 62 66
        E 120 80 62 00
        E 120 90 32 66
        E 0 90 4a 66
        E 0 90 62 66
        E 120 80 32 00
        E 0 80 4a 00
        E 0 80 62 00
        E 120 90 62 66
        E 120 80 62 00
        E 120 90 4a 66
        E 0 90 62 66
        E 120 80 4a 00
        E 0 80 62 00
        E 120 90 62 66
        E 120 80 62 00
        E 120 90 1a 67
        E 0 90 32 67
        E 0 90 4a 67
        E 0 90 62 67
        E 120 80 1a 00
        E 0 80 32 00
        E 0 80 4a 00
        E 0 80 62 00
        E 120 90 62 67
        E 120 80 62 00
        E 120 90 4a 67
        E 0 90 62 67
        E 120 80 4a 00
        E 0 80 62 00
        E 120 90 62 67
        E 120 80 62 00
        E 120 90 32 67
        E 0 90 4a 67
        E 0 90 62 67
        E 120 80 32 00
        E 0 80 4a 00
        E 0 80 62 00
        E 120 90 62 67
        E 120 80 62 00
        E 120 90 4a 67
        E 0 90 62 67
        E 120 80 4a 00
        E 0 80 62 00
        E 120 90 62 67
        E 120 80 62 00
        E 120 90 1a 66
        E 0 90 32 66
        E 0 90 4a 66
        E 0 90 62 66
        E 120 80 1a 00
        E 0 80 32 00
        E 0 80 4a 00
        E 0 80 62 00
        E 120 90 62 66
        E 120 80 62 00
        E 120 90 4a 66
        E 0 90 62 66
        E 120 80 4a 00
        E 0 80 62 00
        E 120 90 62 66
        E 120 80 62 00
        E 120 90 32 66
        E 0 90 4a 66
        E 0 90 62 66
        E 120 80 32 00
        E 0 80 4a 00
        E 0 80 62 00
        E 120 90 62 66
        E 120 80 62 00
        E 120 90 4a 66
        E 0 90 62 66
        E 120 80 4a 00
        E 0 80 62 00
        E 120 90 62 66
        E 120 80 62 00
        E 120 90 1a 67
        E 0 90 32 67
        E 0 90 4a 67
        E 0 90 62 67
        E 120 80 1a 00
        E 0 80 32 00
        E 0 80 4a 00
        E 0 80 62 00
        E 120 90 62 67
        E 120 80 62 00
        E 120 90 4a 67
        E 0 90 62 67
        E 120 80 4a 00
        E 0 80 62 00
        E 120 90 62 67
        E 120 80 62 00
        E 120 90 32 67
        E 0 90 4a 67
        E 0 90 62 67
        E 120 80 32 00
        E 0 80 4a 00
        E 0 80 62 00
        E 120 90 62 67
        E 120 80 62 00
        E 120 90 4a 67
        E 0 90 62 67
        E 120 80 4a 00
        E 0 80 62 00
        E 120 90 62 67
        E 120 80 62 00
        E 120 90 1a 66
        E 0 90 32 66
        E 0 90 4a 66
        E 0 90 62 66
        E 120 80 1a 00
        E 0 80 32 00
        E 0 80 4a 00
        E 0 80 62 00
        E 120 90 62 66
        E 120 80 62 00
        E 120 90 4a 66
        E 0 90 62 66
        E 120 80 4a 00
        E 0 80 62 00
        E 120 90 62 66
        E 120 80 62 00
        E 120 90 32 66
        E 0 90 4a 66
        E 0 90 62 66
        E 120 80 32 00
        E 0 80 4a 00
        E 0 80 62 00
        E 120 90 62 66
        E 120 80 62 00
        E 120 90 4a 66
        E 0 90 62 66
        E 120 80 4a 00
        E 0 80 62 00
        E 120 90 62 66
        E 120 80 62 00
        E 120 90 1b 66
        E 0 90 33 66
        E 0 90 4b 66
        E 0 90 63 66
        E 120 80 1b 00
        E 0 80 33 00
        E 0 80 4b 00
        E 0 80 63 00
        E 120 90 63 66
        E 120 80 63 00
        E 120 90 4b 66
        E 0 90 63 66
        E 120 80 4b 00
        E 0 80 63 00
        E 120 90 63 66
        E 120 80 63 00
        E 120 90 33 66
        E 0 90 4b 66
        E 0 90 63 66
        E 120 80 33 00
        E 0 80 4b 00
        E 0 80 63 00
        E 120 90 63 66
        E 120 80 63 00
        E 120 90 4b 66
        E 0 90 63 66
        E 120 80 4b 00
        E 0 80 63 00
        E 120 90 63 66
        E 120 80 63 00
        E 120 90 1b 66
        E 0 90 33 66
        E 0 90 4b 66
        E 0 90 63 66
        E 120 80 1b 00
        E 0 80 33 00
        E 0 80 4b 00
        E 0 80 63 00
        E 120 90 63 66
        E 120 80 63 00
        E 120 90 4b 66
        E 0 90 63 66
        E 120 80 4b 00
        E 0 80 63 00
        E 120 90 63 66
        E 120 80 63 00
        E 120 90 33 66
        E 0 90 4b 66
        E 0 90 63 66
        E 120 80 33 00
        E 0 80 4b 00
        E 0 80 63 00
        E 120 90 63 66
        E 120 80 63 00
        E 120 90 4b 66
        E 0 90 63 66
        E 120 80 4b 00
        E 0 80 63 00
        E 120 90 63 66
        E 120 80 63 00
        E 120 90 1b 66
        E 0 90 33 66
        E 0 90 4b 66
        E 0 90 63 66
        E 120 80 1b 00
        E 0 80 33 00
        E 0 80 4b 00
        E 0 80 63 00
        E 120 90 63 66
        E 120 80 63 00
        E 120 90 4b 66
        E 0 90 63 66
        E 120 80 4b 00
        E 0 80 63 00
        E 120 90 63 66
        E 120 80 63 00
        E 120 90 33 66
        E 0 90 4b 66
        E 0 90 63 66
        E 120 80 33 00
        E 0 80 4b 00
        E 0 80 63 00
        E 120 90 63 66
        E 120 80 63 00
        E 120 90 4b 66
        E 0 90 63 66
        E 120 80 4b 00
        E 0 80 63 00
        E 120 90 63 66
        E 120 80 63 00
        E 120 90 1a 69
        E 0 90 32 69
        E 0 90 4a 69
        E 0 90 62 69
        E 120 80 1a 00
        E 0 80 32 00
        E 0 80 4a 00
        E 0 80 62 00
        E 120 90 62 69
        E 120 80 62 00
        E 120 90 4a 69
        E 0 90 62 69
        E 120 80 4a 00
        E 0 80 62 00
        E 120 90 62 69
        E 120 80 62 00
        E 120 90 32 66
        E 0 90 4a 66
        E 0 90 62 66
        E 120 80 32 00
        E 0 80 4a 00
        E 0 80 62 00
        E 120 90 62 66
        E 120 80 62 00
        E 120 90 4a 67
        E 0 90 62 67
        E 120 80 4a 00
        E 0 80 62 00
        E 120 90 62 67
        E 120 80 62 00
        E 120 90 1b 66
        E 0 90 33 66
        E 0 90 4b 66
        E 0 90 63 66
        E 480 80 1b 00
        E 0 80 33 00
        E 0 80 4b 00
        E 0 80 63 00
        E 3360 b0 7b 00
        GUID {FAA8C7EB-E7A8-4C23-84F7-6BEC3D0CB6D1}
        IGNTEMPO 0 120.00000000 4 4
        SRCCOLOR 1
        VELLANE 132 128 60
        COLORMAP "C:\Program Files\REAPER (x64)\Data\color_maps\rockband_guitarbass.png"
        TEXTSTRINGFILE "C:\Program Files\REAPER (x64)\Data\Text_Strings\Text Events List - PRO Trainers.txt"
        CFGEDITVIEW -7792.867679 11.640121 16 12 0 0 0
        CFGEDIT 1 1 0 1 1 0 1 1 1 1 1 0.25000000 -8 -8 1544 872 0 2 1 1 0.00000000 0 1 0 0 0.500000 0 0 1.000000 64
        KEYSNAP 0 6 "102030050700" 0 "Pentatonic"
        EVTFILTER 0 -1 -1 -1 -1 0 1 0 0 -1.00000000 -1.00000000
      >
    >
  >
  <TRACK '{10034C78-2C2B-4FE1-A00F-1D3E25746E35}'
    NAME "PART REAL_GUITAR"
    PEAKCOL 16576
    BEAT -1
    AUTOMODE 0
    VOLPAN 1.00000000000000 0.00000000000000 -1.00000000000000 -1.00000000000000 1.00000000000000
    MUTESOLO 0 0 0
    IPHASE 0
    ISBUS 0 0
    BUSCOMP 0 0
    SHOWINMIX 1 0.666700 0.500000 1 0.500000 -1 -1 -1
    FREEMODE 0
    SEL 0
    REC 0 0 0 0 0 0 0
    VU 2
    TRACKHEIGHT 0 0
    INQ 0 0 0 0.5000000000 100 0 0 100
    NCHAN 2
    FX 0
    TRACKID {10034C78-2C2B-4FE1-A00F-1D3E25746E35}
    PERF 0
    MIDIOUT -1
    <MIDINOTENAMES
      0 127 "Trill Marker"
      0 126 "Tremolo Marker"
      0 125 "BRE"
      0 124 "BRE"
      0 123 "BRE"
      0 122 "BRE"
      0 121 "BRE"
      0 120 "BRE (use all 6)"
      0 119 "-----------"
      0 116 "OVERDRIVE"
      0 115 "Solo Marker"
      0 109 "-----------"
      0 108 "Fret Hand Position"
      0 107 "Force Chord Numbering"
      0 106 "Loose Strumming"
      0 105 "Strum Direction"
      0 104 "Arpeggio Marker"
      0 103 "Slide Marker"
      0 102 "Force HOPO"
      0 101 "EXPERT e String"
      0 100 "EXPERT B String"
      0 99 "EXPERT G String"
      0 98 "EXPERT D String"
      0 97 "EXPERT A String"
      0 96 "EXPERT E String"
      0 95 "-----------"
      0 82 "Loose Strumming"
      0 81 "Strum Direction"
      0 80 "Arpeggio Marker"
      0 79 "Slide Marker"
      0 78 "Force HOPO"
      0 77 "HARD e String"
      0 76 "HARD B String"
      0 75 "HARD G String"
      0 74 "HARD D String"
      0 73 "HARD A String"
      0 72 "HARD E String"
      0 71 "-----------"
      0 58 "Loose Strumming"
      0 56 "Arpeggio Marker"
      0 55 "Slide Marker"
      0 53 "MEDIUM e String"
      0 52 "MEDIUM B String"
      0 51 "MEDIUM G String"
      0 50 "MEDIUM D String"
      0 49 "MEDIUM A String"
      0 48 "MEDIUM E String"
      0 47 "-----------"
      0 32 "Arpeggio Marker"
      0 31 "Slide Marker"
      0 29 "EASY e String"
      0 28 "EASY B String"
      0 27 "EASY G String"
      0 26 "EASY D String"
      0 25 "EASY A String"
      0 24 "EASY E String"
      0 21 "-----------"
      0 18 "Flat/Sharp Swap"
      0 17 "Hide Chord Names"
      0 16 "Slash Chord"
      0 15 "D#"
      0 14 "D"
      0 13 "C#"
      0 12 "C"
      0 11 "B"
      0 10 "A#"
      0 9 "A"
      0 8 "G#"
      0 7 "G"
      0 6 "F#"
      0 5 "F"
      0 4 "E"
    >
    MAINSEND 1 0
    <FXCHAIN
      WNDRECT 0 43 655 467
      SHOW 0
      LASTSEL 1
      DOCKED 0
      BYPASS 0 0
      <JS "c3/progtr" ""
        0.000000 3.000000 0.000000 0.000000 0.000000 0.000000 0.000000 0.000000 0.000000 1.000000 - - - - - - - - - - - - - - - - - - - - - - - - - - - - - - - - - - - - - - - - - - - - - - - - - - - - - - 
      >
      FLOATPOS 0 0 0 0
      FXID {8B6BE4F1-5281-4979-918C-B376E00EC2FF}
      WAK 0
      BYPASS 0 0
      <VST "VSTi: ReaSynth (Cockos)" "reasynth.dll" 0 ""
        eXNlcu9e7f4AAAAAAgAAAAEAAAAAAAAAAgAAAAAAAAA4AAAAAAAAAA==
        AAAQAO++rd4N8K3eppvEO+gJMjyHFlk/AAAAAAAAAADMm4A+4jAEPA==
        AAAAAAAAAD+01hM+j8L1PQAAAD8AABAAAAA=
      >
      FLOATPOS 0 0 0 0
      FXID {D04BB605-74B3-4848-86C2-47B7C5C3C874}
      WAK 0
    >
    <ITEM
      POSITION 0.00000000000000
      SNAPOFFS 0.00000000000000
      LENGTH 108.01200133348151
      LOOP 0
      ALLTAKES 0
      SEL 0
      FADEIN 1 0.000000 0.000000 1 0
      FADEOUT 1 0.000000 0.000000 1 0
      MUTE 0
      IGUID {95164784-B2FC-4519-9411-AF86F3CE6BE9}
      IID 9
      NAME "PART REAL_GUITAR"
      VOLPAN 1.000000 0.000000 1.000000 -1.000000
      SOFFS 0.00000000000000 0.00000000000000
      PLAYRATE 1.00000000000000 1 0.00000000000000 -1
      CHANMODE 0
      GUID {804C4248-3405-49EB-8475-54B9B23A5142}
      <SOURCE MIDI
        HASDATA 1 480 QN
        POOLEDEVTS {1F25CD52-D2D1-4E68-A3C0-B47DC0597ACA}
        <X 0 0
          /wNQQVJUIFJFQUxfR1VJVEFS
        >
        <X 13440 0
          /wFbYmVnaW5fcGcgc29uZ190cmFpbmVyX3BnXzFd
        >
        E 0 90 18 69
        E 0 90 30 69
        E 0 90 48 69
        E 0 90 60 69
        E 0 90 6c 67
        E 0 90 74 60
        E 120 80 18 00
        E 0 80 30 00
        E 0 80 48 00
        E 0 80 60 00
        E 0 80 6c 00
        E 120 90 60 69
        E 120 80 60 00
        E 120 90 4c 64
        E 0 90 64 64
        E 0 90 6c 65
        E 120 80 4c 00
        E 0 80 64 00
        E 0 80 6c 00
        E 120 90 64 65
        E 120 80 64 00
        E 120 90 34 64
        E 0 90 4c 64
        E 0 90 64 64
        E 120 80 34 00
        E 0 80 4c 00
        E 0 80 64 00
        E 120 90 64 67
        E 120 80 64 00
        E 120 90 48 69
        E 0 90 60 69
        E 0 90 6c 67
        E 120 80 48 00
        E 0 80 60 00
        E 0 80 6c 00
        E 120 90 60 69
        E 120 80 60 00
        E 120 90 18 69
        E 0 90 30 69
        E 0 90 48 69
        E 0 90 60 69
        E 120 80 18 00
        E 0 80 30 00
        E 0 80 48 00
        E 0 80 60 00
        E 119 90 60 69
        E 120 80 60 00
        E 121 90 4c 64
        E 0 90 64 64
        E 0 90 6c 65
        E 120 80 4c 00
        E 0 80 64 00
        E 0 80 6c 00
        E 120 90 64 65
        E 120 80 64 00
        E 120 90 34 64
        E 0 90 4c 64
        E 0 90 64 64
        E 120 80 34 00
        E 0 80 4c 00
        E 0 80 64 00
        E 120 90 64 67
        E 120 80 64 00
        E 120 90 48 69
        E 0 90 60 69
        E 0 90 6c 67
        E 120 80 48 00
        E 0 80 60 00
        E 0 80 6c 00
        E 120 90 60 69
        E 120 80 60 00
        <X 120 0
          /wFbcGdfbm9ybSBzb25nX3RyYWluZXJfcGdfMV0=
        >
        E 0 90 18 67
        E 0 90 30 67
        E 0 90 48 67
        E 0 90 60 67
        E 0 90 6c 67
        E 0 80 74 00
        E 120 80 18 00
        E 0 80 30 00
        E 0 80 48 00
        E 0 80 60 00
        E 0 80 6c 00
        E 120 90 60 67
        E 120 80 60 00
        E 120 90 4c 64
        E 0 90 64 64
        E 0 90 6c 65
        E 120 80 4c 00
        E 0 80 64 00
        E 0 80 6c 00
        E 120 90 64 65
        E 120 80 64 00
        E 120 90 34 64
        E 0 90 4c 64
        E 0 90 64 64
        E 120 80 34 00
        E 0 80 4c 00
        E 0 80 64 00
        E 120 90 64 67
        E 120 80 64 00
        E 120 90 48 67
        E 0 90 60 67
        E 0 90 6c 67
        E 120 80 48 00
        E 0 80 60 00
        E 0 80 6c 00
        E 120 90 60 67
        E 120 80 60 00
        E 120 90 18 67
        E 0 90 30 67
        E 0 90 48 67
        E 0 90 60 67
        E 120 80 18 00
        E 0 80 30 00
        E 0 80 48 00
        E 0 80 60 00
        E 119 90 60 67
        E 120 80 60 00
        E 121 90 4c 64
        E 0 90 64 64
        E 0 90 6c 65
        E 120 80 4c 00
        E 0 80 64 00
        E 0 80 6c 00
        E 120 90 64 65
        E 120 80 64 00
        E 120 90 34 64
        E 0 90 4c 64
        E 0 90 64 64
        E 120 80 34 00
        E 0 80 4c 00
        E 0 80 64 00
        E 120 90 64 67
        E 120 80 64 00
        E 120 90 48 67
        E 0 90 60 67
        E 0 90 6c 67
        E 120 80 48 00
        E 0 80 60 00
        E 0 80 6c 00
        E 120 90 60 67
        E 120 80 60 00
        E 120 90 18 65
        E 0 90 30 65
        E 0 90 48 65
        E 0 90 60 65
        E 0 90 6c 65
        E 120 80 18 00
        E 0 80 30 00
        E 0 80 48 00
        E 0 80 60 00
        E 0 80 6c 00
        E 120 90 60 65
        E 120 80 60 00
        E 120 90 4c 64
        E 0 90 64 64
        E 120 80 4c 00
        E 0 80 64 00
        E 120 90 64 65
        E 120 80 64 00
        E 120 90 34 64
        E 0 90 4c 64
        E 0 90 64 64
        E 120 80 34 00
        E 0 80 4c 00
        E 0 80 64 00
        E 120 90 64 67
        E 120 80 64 00
        E 120 90 48 65
        E 0 90 60 65
        E 120 80 48 00
        E 0 80 60 00
        E 120 90 60 65
        E 120 80 60 00
        E 120 90 18 65
        E 0 90 30 65
        E 0 90 48 65
        E 0 90 60 65
        E 120 80 18 00
        E 0 80 30 00
        E 0 80 48 00
        E 0 80 60 00
        E 119 90 60 65
        E 120 80 60 00
        E 121 90 4c 64
        E 0 90 64 64
        E 120 80 4c 00
        E 0 80 64 00
        E 120 90 64 65
        E 120 80 64 00
        E 120 90 34 64
        E 0 90 4c 64
        E 0 90 64 64
        E 120 80 34 00
        E 0 80 4c 00
        E 0 80 64 00
        E 120 90 64 67
        E 120 80 64 00
        E 120 90 48 65
        E 0 90 60 65
        E 120 80 48 00
        E 0 80 60 00
        E 120 90 60 65
        E 120 80 60 00
        E 120 90 18 64
        E 0 90 30 64
        E 0 90 48 64
        E 0 90 60 64
        E 120 80 18 00
        E 0 80 30 00
        E 0 80 48 00
        E 0 80 60 00
        E 120 90 60 64
        E 120 80 60 00
        E 120 90 4c 64
        E 0 90 64 64
        E 120 80 4c 00
        E 0 80 64 00
        E 120 90 64 65
        E 120 80 64 00
        E 120 90 34 64
        E 0 90 4c 64
        E 0 90 64 64
        E 120 80 34 00
        E 0 80 4c 00
        E 0 80 64 00
        E 120 90 64 67
        E 120 80 64 00
        E 120 90 48 64
        E 0 90 60 64
        E 120 80 48 00
        E 0 80 60 00
        E 120 90 60 64
        E 120 80 60 00
        E 120 90 18 64
        E 0 90 30 64
        E 0 90 48 64
        E 0 90 60 64
        E 120 80 18 00
        E 0 80 30 00
        E 0 80 48 00
        E 0 80 60 00
        E 119 90 60 64
        E 120 80 60 00
        E 121 90 4c 64
        E 0 90 64 64
        E 120 80 4c 00
        E 0 80 64 00
        E 120 90 64 65
        E 120 80 64 00
        E 120 90 34 64
        E 0 90 4c 64
        E 0 90 64 64
        E 120 80 34 00
        E 0 80 4c 00
        E 0 80 64 00
        E 120 90 64 67
        E 120 80 64 00
        E 120 90 48 64
        E 0 90 60 64
        E 120 80 48 00
        E 0 80 60 00
        E 120 90 60 64
        E 120 80 60 00
        <X 120 0
          /wFbZW5kX3BnIHNvbmdfdHJhaW5lcl9wZ18xXQ==
        >
        E 0 90 18 69
        E 0 90 30 69
        E 0 90 48 69
        E 0 90 60 69
        E 0 90 6c 67
        E 120 80 18 00
        E 0 80 30 00
        E 0 80 48 00
        E 0 80 60 00
        E 0 80 6c 00
        E 120 90 60 69
        E 120 80 60 00
        E 120 90 4c 64
        E 0 90 64 64
        E 0 90 6c 65
        E 120 80 4c 00
        E 0 80 64 00
        E 0 80 6c 00
        E 120 90 64 65
        E 120 80 64 00
        E 120 90 34 64
        E 0 90 4c 64
        E 0 90 64 64
        E 120 80 34 00
        E 0 80 4c 00
        E 0 80 64 00
        E 120 90 64 67
        E 120 80 64 00
        E 120 90 48 69
        E 0 90 60 69
        E 0 90 6c 67
        E 120 80 48 00
        E 0 80 60 00
        E 0 80 6c 00
        E 120 90 60 69
        E 120 80 60 00
        E 120 90 18 69
        E 0 90 30 69
        E 0 90 48 69
        E 0 90 60 69
        E 120 80 18 00
        E 0 80 30 00
        E 0 80 48 00
        E 0 80 60 00
        E 120 90 60 69
        E 120 80 60 00
        E 120 90 4c 64
        E 0 90 64 64
        E 0 90 6c 65
        E 120 80 4c 00
        E 0 80 64 00
        E 0 80 6c 00
        E 120 90 64 65
        E 120 80 64 00
        E 120 90 34 64
        E 0 90 4c 64
        E 0 90 64 64
        E 120 80 34 00
        E 0 80 4c 00
        E 0 80 64 00
        E 120 90 64 67
        E 120 80 64 00
        E 120 90 48 69
        E 0 90 60 69
        E 0 90 6c 67
        E 120 80 48 00
        E 0 80 60 00
        E 0 80 6c 00
        E 120 90 60 69
        E 120 80 60 00
        E 120 90 18 67
        E 0 90 30 67
        E 0 90 48 67
        E 0 90 60 67
        E 0 90 6c 67
        E 0 90 74 60
        E 120 80 18 00
        E 0 80 30 00
        E 0 80 48 00
        E 0 80 60 00
        E 0 80 6c 00
        E 120 90 60 67
        E 120 80 60 00
        E 120 90 4c 64
        E 0 90 64 64
        E 0 90 6c 65
        E 120 80 4c 00
        E 0 80 64 00
        E 0 80 6c 00
        E 120 90 64 65
        E 120 80 64 00
        E 120 90 34 64
        E 0 90 4c 64
        E 0 90 64 64
        E 120 80 34 00
        E 0 80 4c 00
        E 0 80 64 00
        E 120 90 64 67
        E 120 80 64 00
        E 120 90 48 67
        E 0 90 60 67
        E 0 90 6c 67
        E 120 80 48 00
        E 0 80 60 00
        E 0 80 6c 00
        E 120 90 60 67
        E 120 80 60 00
        E 120 90 18 67
        E 0 90 30 67
        E 0 90 48 67
        E 0 90 60 67
        E 120 80 18 00
        E 0 80 30 00
        E 0 80 48 00
        E 0 80 60 00
        E 120 90 60 67
        E 120 80 60 00
        E 120 90 4c 64
        E 0 90 64 64
        E 0 90 6c 65
        E 120 80 4c 00
        E 0 80 64 00
        E 0 80 6c 00
        E 120 90 64 65
        E 120 80 64 00
        E 120 90 34 64
        E 0 90 4c 64
        E 0 90 64 64
        E 120 80 34 00
        E 0 80 4c 00
        E 0 80 64 00
        E 120 90 64 67
        E 120 80 64 00
        E 120 90 48 67
        E 0 90 60 67
        E 0 90 6c 67
        E 120 80 48 00
        E 0 80 60 00
        E 0 80 6c 00
        E 120 90 60 67
        E 120 80 60 00
        E 120 90 18 65
        E 0 90 30 65
        E 0 90 48 65
        E 0 90 60 65
        E 0 90 6c 65
        E 0 80 74 00
        E 120 80 18 00
        E 0 80 30 00
        E 0 80 48 00
        E 0 80 60 00
        E 0 80 6c 00
        E 120 90 60 65
        E 120 80 60 00
        E 120 90 4c 64
        E 0 90 64 64
        E 120 80 4c 00
        E 0 80 64 00
        E 120 90 64 65
        E 120 80 64 00
        E 120 90 34 64
        E 0 90 4c 64
        E 0 90 64 64
        E 120 80 34 00
        E 0 80 4c 00
        E 0 80 64 00
        E 120 90 64 67
        E 120 80 64 00
        E 120 90 48 65
        E 0 90 60 65
        E 120 80 48 00
        E 0 80 60 00
        E 120 90 60 65
        E 120 80 60 00
        E 120 90 18 65
        E 0 90 30 65
        E 0 90 48 65
        E 0 90 60 65
        E 120 80 18 00
        E 0 80 30 00
        E 0 80 48 00
        E 0 80 60 00
        E 120 90 60 65
        E 120 80 60 00
        E 120 90 4c 64
        E 0 90 64 64
        E 120 80 4c 00
        E 0 80 64 00
        E 120 90 64 65
        E 120 80 64 00
        E 120 90 34 64
        E 0 90 4c 64
        E 0 90 64 64
        E 120 80 34 00
        E 0 80 4c 00
        E 0 80 64 00
        E 120 90 64 67
        E 120 80 64 00
        E 120 90 48 65
        E 0 90 60 65
        E 120 80 48 00
        E 0 80 60 00
        E 120 90 60 65
        E 120 80 60 00
        E 120 90 18 64
        E 0 90 30 64
        E 0 90 48 64
        E 0 90 60 64
        E 120 80 18 00
        E 0 80 30 00
        E 0 80 48 00
        E 0 80 60 00
        E 120 90 60 64
        E 120 80 60 00
        E 120 90 4c 64
        E 0 90 64 64
        E 120 80 4c 00
        E 0 80 64 00
        E 120 90 64 65
        E 120 80 64 00
        E 120 90 34 64
        E 0 90 4c 64
        E 0 90 64 64
        E 120 80 34 00
        E 0 80 4c 00
        E 0 80 64 00
        E 120 90 64 67
        E 120 80 64 00
        E 120 90 48 64
        E 0 90 60 64
        E 120 80 48 00
        E 0 80 60 00
        E 120 90 60 64
        E 120 80 60 00
        E 120 90 18 64
        E 0 90 30 64
        E 0 90 48 64
        E 0 90 60 64
        E 120 80 18 00
        E 0 80 30 00
        E 0 80 48 00
        E 0 80 60 00
        E 120 90 60 64
        E 120 80 60 00
        E 120 90 4c 64
        E 0 90 64 64
        E 120 80 4c 00
        E 0 80 64 00
        E 120 90 64 65
        E 120 80 64 00
        E 120 90 34 64
        E 0 90 4c 64
        E 0 90 64 64
        E 120 80 34 00
        E 0 80 4c 00
        E 0 80 64 00
        E 120 90 64 67
        E 120 80 64 00
        E 120 90 48 64
        E 0 90 60 64
        E 120 80 48 00
        E 0 80 60 00
        E 120 90 60 64
        E 120 80 60 00
        <X 120 0
          /wFbYmVnaW5fcGcgc29uZ190cmFpbmVyX3BnXzJd
        >
        E 0 90 1a 67
        E 0 90 32 67
        E 0 90 4a 67
        E 0 90 62 67
        E 0 90 6c 66
        E 120 80 1a 00
        E 0 80 32 00
        E 0 80 4a 00
        E 0 80 62 00
        E 0 80 6c 00
        E 120 90 62 66
        E 120 80 62 00
        E 120 90 4a 67
        E 0 90 62 67
        E 120 80 4a 00
        E 0 80 62 00
        E 120 90 62 66
        E 120 80 62 00
        E 120 90 32 67
        E 0 90 4a 67
        E 0 90 62 67
        E 120 80 32 00
        E 0 80 4a 00
        E 0 80 62 00
        E 120 90 62 66
        E 120 80 62 00
        E 120 90 4a 67
        E 0 90 62 67
        E 120 80 4a 00
        E 0 80 62 00
        E 120 90 63 64
        E 120 80 63 00
        <X 120 0
          /wFbcGdfbm9ybSBzb25nX3RyYWluZXJfcGdfMl0=
        >
        E 0 90 1c 64
        E 0 90 34 64
        E 0 90 4c 64
        E 0 90 64 64
        E 0 90 6c 65
        E 120 80 1c 00
        E 0 80 34 00
        E 0 80 4c 00
        E 0 80 64 00
        E 0 80 6c 00
        E 120 90 64 65
        E 120 80 64 00
        E 120 90 4c 64
        E 0 90 64 64
        E 120 80 4c 00
        E 0 80 64 00
        E 120 90 63 66
        E 120 80 63 00
        E 120 90 34 64
        E 0 90 4c 64
        E 0 90 64 64
        E 120 80 34 00
        E 0 80 4c 00
        E 0 80 64 00
        E 120 90 64 65
        E 120 80 64 00
        E 120 90 4c 67
        E 0 90 64 67
        E 120 80 4c 00
        E 0 80 64 00
        E 120 90 65 64
        E 120 80 65 00
        E 120 90 1a 67
        E 0 90 32 67
        E 0 90 4a 67
        E 0 90 62 67
        E 0 90 6c 66
        E 120 80 1a 00
        E 0 80 32 00
        E 0 80 4a 00
        E 0 80 62 00
        E 0 80 6c 00
        E 120 90 62 66
        E 120 80 62 00
        E 120 90 4a 67
        E 0 90 62 67
        E 120 80 4a 00
        E 0 80 62 00
        E 120 90 62 66
        E 120 80 62 00
        E 120 90 32 67
        E 0 90 4a 67
        E 0 90 62 67
        E 120 80 32 00
        E 0 80 4a 00
        E 0 80 62 00
        E 120 90 62 66
        E 120 80 62 00
        E 120 90 4a 67
        E 0 90 62 67
        E 120 80 4a 00
        E 0 80 62 00
        E 120 90 63 64
        E 120 80 63 00
        E 120 90 1c 64
        E 0 90 34 64
        E 0 90 4c 64
        E 0 90 64 64
        E 0 90 6c 65
        E 120 80 1c 00
        E 0 80 34 00
        E 0 80 4c 00
        E 0 80 64 00
        E 0 80 6c 00
        E 120 90 64 65
        E 120 80 64 00
        E 120 90 4c 64
        E 0 90 64 64
        E 120 80 4c 00
        E 0 80 64 00
        E 119 90 63 66
        E 120 80 63 00
        E 121 90 34 64
        E 0 90 4c 64
        E 0 90 64 64
        E 120 80 34 00
        E 0 80 4c 00
        E 0 80 64 00
        E 120 90 64 65
        E 120 80 64 00
        E 120 90 4c 67
        E 0 90 64 67
        E 120 80 4c 00
        E 0 80 64 00
        E 120 90 65 64
        E 120 80 65 00
        <X 120 0
          /wFbZW5kX3BnIHNvbmdfdHJhaW5lcl9wZ18yXQ==
        >
        E 7680 90 18 69
        E 0 90 30 69
        E 0 90 48 69
        E 0 90 60 69
        E 0 90 6c 67
        E 120 80 18 00
        E 0 80 30 00
        E 0 80 48 00
        E 0 80 60 00
        E 0 80 6c 00
        E 120 90 60 69
        E 120 80 60 00
        E 120 90 4c 64
        E 0 90 64 64
        E 0 90 6c 65
        E 120 80 4c 00
        E 0 80 64 00
        E 0 80 6c 00
        E 120 90 64 65
        E 120 80 64 00
        E 120 90 34 64
        E 0 90 4c 64
        E 0 90 64 64
        E 120 80 34 00
        E 0 80 4c 00
        E 0 80 64 00
        E 120 90 64 67
        E 120 80 64 00
        E 120 90 48 69
        E 0 90 60 69
        E 0 90 6c 67
        E 120 80 48 00
        E 0 80 60 00
        E 0 80 6c 00
        E 120 90 60 69
        E 120 80 60 00
        E 120 90 18 69
        E 0 90 30 69
        E 0 90 48 69
        E 0 90 60 69
        E 120 80 18 00
        E 0 80 30 00
        E 0 80 48 00
        E 0 80 60 00
        E 119 90 60 69
        E 120 80 60 00
        E 121 90 4c 64
        E 0 90 64 64
        E 0 90 6c 65
        E 120 80 4c 00
        E 0 80 64 00
        E 0 80 6c 00
        E 120 90 64 65
        E 120 80 64 00
        E 120 90 34 64
        E 0 90 4c 64
        E 0 90 64 64
        E 120 80 34 00
        E 0 80 4c 00
        E 0 80 64 00
        E 120 90 64 67
        E 120 80 64 00
        E 120 90 48 69
        E 0 90 60 69
        E 0 90 6c 67
        E 120 80 48 00
        E 0 80 60 00
        E 0 80 6c 00
        E 120 90 60 69
        E 120 80 60 00
        E 120 90 18 67
        E 0 90 30 67
        E 0 90 48 67
        E 0 90 60 67
        E 0 90 6c 67
        E 120 80 18 00
        E 0 80 30 00
        E 0 80 48 00
        E 0 80 60 00
        E 0 80 6c 00
        E 120 90 60 67
        E 120 80 60 00
        E 120 90 4c 64
        E 0 90 64 64
        E 0 90 6c 65
        E 120 80 4c 00
        E 0 80 64 00
        E 0 80 6c 00
        E 120 90 64 65
        E 120 80 64 00
        E 120 90 34 64
        E 0 90 4c 64
        E 0 90 64 64
        E 120 80 34 00
        E 0 80 4c 00
        E 0 80 64 00
        E 120 90 64 67
        E 120 80 64 00
        E 120 90 48 67
        E 0 90 60 67
        E 0 90 6c 67
        E 120 80 48 00
        E 0 80 60 00
        E 0 80 6c 00
        E 120 90 60 67
        E 120 80 60 00
        E 120 90 18 67
        E 0 90 30 67
        E 0 90 48 67
        E 0 90 60 67
        E 120 80 18 00
        E 0 80 30 00
        E 0 80 48 00
        E 0 80 60 00
        E 119 90 60 67
        E 120 80 60 00
        E 121 90 4c 64
        E 0 90 64 64
        E 0 90 6c 65
        E 120 80 4c 00
        E 0 80 64 00
        E 0 80 6c 00
        E 120 90 64 65
        E 120 80 64 00
        E 120 90 34 64
        E 0 90 4c 64
        E 0 90 64 64
        E 120 80 34 00
        E 0 80 4c 00
        E 0 80 64 00
        E 120 90 64 67
        E 120 80 64 00
        E 120 90 48 67
        E 0 90 60 67
        E 0 90 6c 67
        E 120 80 48 00
        E 0 80 60 00
        E 0 80 6c 00
        E 120 90 60 67
        E 120 80 60 00
        E 120 90 18 65
        E 0 90 30 65
        E 0 90 48 65
        E 0 90 60 65
        E 0 90 6c 65
        E 0 90 74 60
        E 120 80 18 00
        E 0 80 30 00
        E 0 80 48 00
        E 0 80 60 00
        E 0 80 6c 00
        E 120 90 60 65
        E 120 80 60 00
        E 120 90 4c 64
        E 0 90 64 64
        E 120 80 4c 00
        E 0 80 64 00
        E 120 90 64 65
        E 120 80 64 00
        E 120 90 34 64
        E 0 90 4c 64
        E 0 90 64 64
        E 120 80 34 00
        E 0 80 4c 00
        E 0 80 64 00
        E 120 90 64 67
        E 120 80 64 00
        E 120 90 48 65
        E 0 90 60 65
        E 120 80 48 00
        E 0 80 60 00
        E 120 90 60 65
        E 120 80 60 00
        E 120 90 18 65
        E 0 90 30 65
        E 0 90 48 65
        E 0 90 60 65
        E 120 80 18 00
        E 0 80 30 00
        E 0 80 48 00
        E 0 80 60 00
        E 119 90 60 65
        E 120 80 60 00
        E 121 90 4c 64
        E 0 90 64 64
        E 120 80 4c 00
        E 0 80 64 00
        E 120 90 64 65
        E 120 80 64 00
        E 120 90 34 64
        E 0 90 4c 64
        E 0 90 64 64
        E 120 80 34 00
        E 0 80 4c 00
        E 0 80 64 00
        E 120 90 64 67
        E 120 80 64 00
        E 120 90 48 65
        E 0 90 60 65
        E 120 80 48 00
        E 0 80 60 00
        E 120 90 60 65
        E 120 80 60 00
        E 120 90 18 64
        E 0 90 30 64
        E 0 90 48 64
        E 0 90 60 64
        E 0 80 74 00
        E 120 80 18 00
        E 0 80 30 00
        E 0 80 48 00
        E 0 80 60 00
        E 120 90 60 64
        E 120 80 60 00
        E 120 90 4c 64
        E 0 90 64 64
        E 120 80 4c 00
        E 0 80 64 00
        E 120 90 64 65
        E 120 80 64 00
        E 120 90 34 64
        E 0 90 4c 64
        E 0 90 64 64
        E 120 80 34 00
        E 0 80 4c 00
        E 0 80 64 00
        E 120 90 64 67
        E 120 80 64 00
        E 120 90 48 64
        E 0 90 60 64
        E 120 80 48 00
        E 0 80 60 00
        E 120 90 60 64
        E 120 80 60 00
        E 120 90 18 64
        E 0 90 30 64
        E 0 90 48 64
        E 0 90 60 64
        E 120 80 18 00
        E 0 80 30 00
        E 0 80 48 00
        E 0 80 60 00
        E 119 90 60 64
        E 120 80 60 00
        E 121 90 4c 64
        E 0 90 64 64
        E 120 80 4c 00
        E 0 80 64 00
        E 120 90 64 65
        E 120 80 64 00
        E 120 90 34 64
        E 0 90 4c 64
        E 0 90 64 64
        E 120 80 34 00
        E 0 80 4c 00
        E 0 80 64 00
        E 120 90 64 67
        E 120 80 64 00
        E 120 90 48 64
        E 0 90 60 64
        E 120 80 48 00
        E 0 80 60 00
        E 120 90 60 64
        E 120 80 60 00
        E 120 90 18 69
        E 0 90 30 69
        E 0 90 48 69
        E 0 90 60 69
        E 0 90 6c 67
        E 120 80 18 00
        E 0 80 30 00
        E 0 80 48 00
        E 0 80 60 00
        E 0 80 6c 00
        E 120 90 60 69
        E 120 80 60 00
        E 120 90 4c 64
        E 0 90 64 64
        E 0 90 6c 65
        E 120 80 4c 00
        E 0 80 64 00
        E 0 80 6c 00
        E 120 90 64 65
        E 120 80 64 00
        E 120 90 34 64
        E 0 90 4c 64
        E 0 90 64 64
        E 120 80 34 00
        E 0 80 4c 00
        E 0 80 64 00
        E 120 90 64 67
        E 120 80 64 00
        E 120 90 48 69
        E 0 90 60 69
        E 0 90 6c 67
        E 120 80 48 00
        E 0 80 60 00
        E 0 80 6c 00
        E 120 90 60 69
        E 120 80 60 00
        E 120 90 18 69
        E 0 90 30 69
        E 0 90 48 69
        E 0 90 60 69
        E 120 80 18 00
        E 0 80 30 00
        E 0 80 48 00
        E 0 80 60 00
        E 120 90 60 69
        E 120 80 60 00
        E 120 90 4c 64
        E 0 90 64 64
        E 0 90 6c 65
        E 120 80 4c 00
        E 0 80 64 00
        E 0 80 6c 00
        E 120 90 64 65
        E 120 80 64 00
        E 120 90 34 64
        E 0 90 4c 64
        E 0 90 64 64
        E 120 80 34 00
        E 0 80 4c 00
        E 0 80 64 00
        E 120 90 64 67
        E 120 80 64 00
        E 120 90 48 69
        E 0 90 60 69
        E 0 90 6c 67
        E 120 80 48 00
        E 0 80 60 00
        E 0 80 6c 00
        E 120 90 60 69
        E 120 80 60 00
        E 120 90 18 67
        E 0 90 30 67
        E 0 90 48 67
        E 0 90 60 67
        E 0 90 6c 67
        E 120 80 18 00
        E 0 80 30 00
        E 0 80 48 00
        E 0 80 60 00
        E 0 80 6c 00
        E 120 90 60 67
        E 120 80 60 00
        E 120 90 4c 64
        E 0 90 64 64
        E 0 90 6c 65
        E 120 80 4c 00
        E 0 80 64 00
        E 0 80 6c 00
        E 120 90 64 65
        E 120 80 64 00
        E 120 90 34 64
        E 0 90 4c 64
        E 0 90 64 64
        E 120 80 34 00
        E 0 80 4c 00
        E 0 80 64 00
        E 120 90 64 67
        E 120 80 64 00
        E 120 90 48 67
        E 0 90 60 67
        E 0 90 6c 67
        E 120 80 48 00
        E 0 80 60 00
        E 0 80 6c 00
        E 120 90 60 67
        E 120 80 60 00
        E 120 90 18 67
        E 0 90 30 67
        E 0 90 48 67
        E 0 90 60 67
        E 120 80 18 00
        E 0 80 30 00
        E 0 80 48 00
        E 0 80 60 00
        E 120 90 60 67
        E 120 80 60 00
        E 120 90 4c 64
        E 0 90 64 64
        E 0 90 6c 65
        E 120 80 4c 00
        E 0 80 64 00
        E 0 80 6c 00
        E 120 90 64 65
        E 120 80 64 00
        E 120 90 34 64
        E 0 90 4c 64
        E 0 90 64 64
        E 120 80 34 00
        E 0 80 4c 00
        E 0 80 64 00
        E 120 90 64 67
        E 120 80 64 00
        E 120 90 48 67
        E 0 90 60 67
        E 0 90 6c 67
        E 120 80 48 00
        E 0 80 60 00
        E 0 80 6c 00
        E 120 90 60 67
        E 120 80 60 00
        E 120 90 18 65
        E 0 90 30 65
        E 0 90 48 65
        E 0 90 60 65
        E 0 90 6c 65
        E 120 80 18 00
        E 0 80 30 00
        E 0 80 48 00
        E 0 80 60 00
        E 0 80 6c 00
        E 120 90 60 65
        E 120 80 60 00
        E 120 90 4c 64
        E 0 90 64 64
        E 120 80 4c 00
        E 0 80 64 00
        E 120 90 64 65
        E 120 80 64 00
        E 120 90 34 64
        E 0 90 4c 64
        E 0 90 64 64
        E 120 80 34 00
        E 0 80 4c 00
        E 0 80 64 00
        E 120 90 64 67
        E 120 80 64 00
        E 120 90 48 65
        E 0 90 60 65
        E 120 80 48 00
        E 0 80 60 00
        E 120 90 60 65
        E 120 80 60 00
        E 120 90 18 65
        E 0 90 30 65
        E 0 90 48 65
        E 0 90 60 65
        E 120 80 18 00
        E 0 80 30 00
        E 0 80 48 00
        E 0 80 60 00
        E 120 90 60 65
        E 120 80 60 00
        E 120 90 4c 64
        E 0 90 64 64
        E 120 80 4c 00
        E 0 80 64 00
        E 120 90 64 65
        E 120 80 64 00
        E 120 90 34 64
        E 0 90 4c 64
        E 0 90 64 64
        E 120 80 34 00
        E 0 80 4c 00
        E 0 80 64 00
        E 120 90 64 67
        E 120 80 64 00
        E 120 90 48 65
        E 0 90 60 65
        E 120 80 48 00
        E 0 80 60 00
        E 120 90 60 65
        E 120 80 60 00
        E 120 90 18 64
        E 0 90 30 64
        E 0 90 48 64
        E 0 90 60 64
        E 120 80 18 00
        E 0 80 30 00
        E 0 80 48 00
        E 0 80 60 00
        E 120 90 60 64
        E 120 80 60 00
        E 120 90 4c 64
        E 0 90 64 64
        E 120 80 4c 00
        E 0 80 64 00
        E 120 90 64 65
        E 120 80 64 00
        E 120 90 34 64
        E 0 90 4c 64
        E 0 90 64 64
        E 120 80 34 00
        E 0 80 4c 00
        E 0 80 64 00
        E 120 90 64 67
        E 120 80 64 00
        E 120 90 48 64
        E 0 90 60 64
        E 120 80 48 00
        E 0 80 60 00
        E 120 90 60 64
        E 120 80 60 00
        E 120 90 18 64
        E 0 90 30 64
        E 0 90 48 64
        E 0 90 60 64
        E 120 80 18 00
        E 0 80 30 00
        E 0 80 48 00
        E 0 80 60 00
        E 120 90 60 64
        E 120 80 60 00
        E 120 90 4c 64
        E 0 90 64 64
        E 120 80 4c 00
        E 0 80 64 00
        E 120 90 64 65
        E 120 80 64 00
        E 120 90 34 64
        E 0 90 4c 64
        E 0 90 64 64
        E 120 80 34 00
        E 0 80 4c 00
        E 0 80 64 00
        E 120 90 64 67
        E 120 80 64 00
        E 120 90 48 64
        E 0 90 60 64
        E 120 80 48 00
        E 0 80 60 00
        E 120 90 60 64
        E 120 80 60 00
        E 120 90 1a 67
        E 0 90 32 67
        E 0 90 4a 67
        E 0 90 62 67
        E 0 90 6c 66
        E 120 80 1a 00
        E 0 80 32 00
        E 0 80 4a 00
        E 0 80 62 00
        E 0 80 6c 00
        E 120 90 62 66
        E 120 80 62 00
        E 120 90 4a 67
        E 0 90 62 67
        E 120 80 4a 00
        E 0 80 62 00
        E 120 90 62 66
        E 120 80 62 00
        E 120 90 32 67
        E 0 90 4a 67
        E 0 90 62 67
        E 120 80 32 00
        E 0 80 4a 00
        E 0 80 62 00
        E 120 90 62 66
        E 120 80 62 00
        E 120 90 4a 67
        E 0 90 62 67
        E 120 80 4a 00
        E 0 80 62 00
        E 120 90 63 64
        E 120 80 63 00
        E 120 90 1c 64
        E 0 90 34 64
        E 0 90 4c 64
        E 0 90 64 64
        E 0 90 6c 65
        E 120 80 1c 00
        E 0 80 34 00
        E 0 80 4c 00
        E 0 80 64 00
        E 0 80 6c 00
        E 120 90 64 65
        E 120 80 64 00
        E 120 90 4c 64
        E 0 90 64 64
        E 120 80 4c 00
        E 0 80 64 00
        E 120 90 63 66
        E 120 80 63 00
        E 120 90 34 64
        E 0 90 4c 64
        E 0 90 64 64
        E 120 80 34 00
        E 0 80 4c 00
        E 0 80 64 00
        E 120 90 64 65
        E 120 80 64 00
        E 120 90 4c 67
        E 0 90 64 67
        E 120 80 4c 00
        E 0 80 64 00
        E 120 90 65 64
        E 120 80 65 00
        E 120 90 1a 67
        E 0 90 32 67
        E 0 90 4a 67
        E 0 90 62 67
        E 0 90 6c 66
        E 120 80 1a 00
        E 0 80 32 00
        E 0 80 4a 00
        E 0 80 62 00
        E 0 80 6c 00
        E 120 90 62 66
        E 120 80 62 00
        E 120 90 4a 67
        E 0 90 62 67
        E 120 80 4a 00
        E 0 80 62 00
        E 120 90 62 66
        E 120 80 62 00
        E 120 90 32 67
        E 0 90 4a 67
        E 0 90 62 67
        E 120 80 32 00
        E 0 80 4a 00
        E 0 80 62 00
        E 120 90 62 66
        E 120 80 62 00
        E 120 90 4a 67
        E 0 90 62 67
        E 120 80 4a 00
        E 0 80 62 00
        E 120 90 63 64
        E 120 80 63 00
        E 120 90 1c 64
        E 0 90 34 64
        E 0 90 4c 64
        E 0 90 64 64
        E 0 90 6c 65
        E 120 80 1c 00
        E 0 80 34 00
        E 0 80 4c 00
        E 0 80 64 00
        E 0 80 6c 00
        E 120 90 64 65
        E 120 80 64 00
        E 120 90 4c 64
        E 0 90 64 64
        E 120 80 4c 00
        E 0 80 64 00
        E 119 90 63 66
        E 120 80 63 00
        E 121 90 34 64
        E 0 90 4c 64
        E 0 90 64 64
        E 120 80 34 00
        E 0 80 4c 00
        E 0 80 64 00
        E 120 90 64 65
        E 120 80 64 00
        E 120 90 4c 67
        E 0 90 64 67
        E 120 80 4c 00
        E 0 80 64 00
        E 120 90 65 64
        E 120 80 65 00
        E 7800 90 18 69
        E 0 90 30 69
        E 0 90 48 69
        E 0 90 60 69
        E 0 90 6c 67
        E 120 80 18 00
        E 0 80 30 00
        E 0 80 48 00
        E 0 80 60 00
        E 0 80 6c 00
        E 120 90 60 69
        E 120 80 60 00
        E 120 90 4c 64
        E 0 90 64 64
        E 0 90 6c 65
        E 120 80 4c 00
        E 0 80 64 00
        E 0 80 6c 00
        E 120 90 64 65
        E 120 80 64 00
        E 120 90 34 64
        E 0 90 4c 64
        E 0 90 64 64
        E 120 80 34 00
        E 0 80 4c 00
        E 0 80 64 00
        E 120 90 64 67
        E 120 80 64 00
        E 120 90 48 69
        E 0 90 60 69
        E 0 90 6c 67
        E 120 80 48 00
        E 0 80 60 00
        E 0 80 6c 00
        E 120 90 60 69
        E 120 80 60 00
        E 120 90 18 69
        E 0 90 30 69
        E 0 90 48 69
        E 0 90 60 69
        E 120 80 18 00
        E 0 80 30 00
        E 0 80 48 00
        E 0 80 60 00
        E 120 90 60 69
        E 120 80 60 00
        E 120 90 4c 64
        E 0 90 64 64
        E 0 90 6c 65
        E 120 80 4c 00
        E 0 80 64 00
        E 0 80 6c 00
        E 120 90 64 65
        E 120 80 64 00
        E 120 90 34 64
        E 0 90 4c 64
        E 0 90 64 64
        E 120 80 34 00
        E 0 80 4c 00
        E 0 80 64 00
        E 120 90 64 67
        E 120 80 64 00
        E 120 90 48 69
        E 0 90 60 69
        E 0 90 6c 67
        E 120 80 48 00
        E 0 80 60 00
        E 0 80 6c 00
        E 120 90 60 69
        E 120 80 60 00
        E 120 90 18 67
        E 0 90 30 67
        E 0 90 48 67
        E 0 90 60 67
        E 0 90 6c 67
        E 120 80 18 00
        E 0 80 30 00
        E 0 80 48 00
        E 0 80 60 00
        E 0 80 6c 00
        E 120 90 60 67
        E 120 80 60 00
        E 120 90 4c 64
        E 0 90 64 64
        E 0 90 6c 65
        E 120 80 4c 00
        E 0 80 64 00
        E 0 80 6c 00
        E 120 90 64 65
        E 120 80 64 00
        E 120 90 34 64
        E 0 90 4c 64
        E 0 90 64 64
        E 120 80 34 00
        E 0 80 4c 00
        E 0 80 64 00
        E 120 90 64 67
        E 120 80 64 00
        E 120 90 48 67
        E 0 90 60 67
        E 0 90 6c 67
        E 120 80 48 00
        E 0 80 60 00
        E 0 80 6c 00
        E 120 90 60 67
        E 120 80 60 00
        E 120 90 18 67
        E 0 90 30 67
        E 0 90 48 67
        E 0 90 60 67
        E 120 80 18 00
        E 0 80 30 00
        E 0 80 48 00
        E 0 80 60 00
        E 120 90 60 67
        E 120 80 60 00
        E 120 90 4c 64
        E 0 90 64 64
        E 0 90 6c 65
        E 120 80 4c 00
        E 0 80 64 00
        E 0 80 6c 00
        E 120 90 64 65
        E 120 80 64 00
        E 120 90 34 64
        E 0 90 4c 64
        E 0 90 64 64
        E 120 80 34 00
        E 0 80 4c 00
        E 0 80 64 00
        E 120 90 64 67
        E 120 80 64 00
        E 120 90 48 67
        E 0 90 60 67
        E 0 90 6c 67
        E 120 80 48 00
        E 0 80 60 00
        E 0 80 6c 00
        E 120 90 60 67
        E 120 80 60 00
        E 120 90 18 65
        E 0 90 30 65
        E 0 90 48 65
        E 0 90 60 65
        E 0 90 6c 65
        E 0 90 74 60
        E 120 80 18 00
        E 0 80 30 00
        E 0 80 48 00
        E 0 80 60 00
        E 0 80 6c 00
        E 120 90 60 65
        E 120 80 60 00
        E 120 90 4c 64
        E 0 90 64 64
        E 120 80 4c 00
        E 0 80 64 00
        E 120 90 64 65
        E 120 80 64 00
        E 120 90 34 64
        E 0 90 4c 64
        E 0 90 64 64
        E 120 80 34 00
        E 0 80 4c 00
        E 0 80 64 00
        E 120 90 64 67
        E 120 80 64 00
        E 120 90 48 65
        E 0 90 60 65
        E 120 80 48 00
        E 0 80 60 00
        E 120 90 60 65
        E 120 80 60 00
        E 120 90 18 65
        E 0 90 30 65
        E 0 90 48 65
        E 0 90 60 65
        E 120 80 18 00
        E 0 80 30 00
        E 0 80 48 00
        E 0 80 60 00
        E 120 90 60 65
        E 120 80 60 00
        E 120 90 4c 64
        E 0 90 64 64
        E 120 80 4c 00
        E 0 80 64 00
        E 120 90 64 65
        E 120 80 64 00
        E 120 90 34 64
        E 0 90 4c 64
        E 0 90 64 64
        E 120 80 34 00
        E 0 80 4c 00
        E 0 80 64 00
        E 120 90 64 67
        E 120 80 64 00
        E 120 90 48 65
        E 0 90 60 65
        E 120 80 48 00
        E 0 80 60 00
        E 120 90 60 65
        E 120 80 60 00
        E 120 90 18 64
        E 0 90 30 64
        E 0 90 48 64
        E 0 90 60 64
        E 0 80 74 00
        E 120 80 18 00
        E 0 80 30 00
        E 0 80 48 00
        E 0 80 60 00
        E 120 90 60 64
        E 120 80 60 00
        E 120 90 4c 64
        E 0 90 64 64
        E 120 80 4c 00
        E 0 80 64 00
        E 120 90 64 65
        E 120 80 64 00
        E 120 90 34 64
        E 0 90 4c 64
        E 0 90 64 64
        E 120 80 34 00
        E 0 80 4c 00
        E 0 80 64 00
        E 120 90 64 67
        E 120 80 64 00
        E 120 90 48 64
        E 0 90 60 64
        E 120 80 48 00
        E 0 80 60 00
        E 120 90 60 64
        E 120 80 60 00
        E 120 90 18 64
        E 0 90 30 64
        E 0 90 48 64
        E 0 90 60 64
        E 120 80 18 00
        E 0 80 30 00
        E 0 80 48 00
        E 0 80 60 00
        E 120 90 60 64
        E 120 80 60 00
        E 120 90 4c 64
        E 0 90 64 64
        E 120 80 4c 00
        E 0 80 64 00
        E 120 90 64 65
        E 120 80 64 00
        E 120 90 34 64
        E 0 90 4c 64
        E 0 90 64 64
        E 120 80 34 00
        E 0 80 4c 00
        E 0 80 64 00
        E 120 90 64 67
        E 120 80 64 00
        E 120 90 48 64
        E 0 90 60 64
        E 120 80 48 00
        E 0 80 60 00
        E 120 90 60 64
        E 120 80 60 00
        E 120 90 18 69
        E 0 90 30 69
        E 0 90 48 69
        E 0 90 60 69
        E 0 90 6c 67
        E 120 80 18 00
        E 0 80 30 00
        E 0 80 48 00
        E 0 80 60 00
        E 0 80 6c 00
        E 120 90 60 69
        E 120 80 60 00
        E 120 90 4c 64
        E 0 90 64 64
        E 0 90 6c 65
        E 120 80 4c 00
        E 0 80 64 00
        E 0 80 6c 00
        E 120 90 64 65
        E 120 80 64 00
        E 120 90 34 64
        E 0 90 4c 64
        E 0 90 64 64
        E 120 80 34 00
        E 0 80 4c 00
        E 0 80 64 00
        E 120 90 64 67
        E 120 80 64 00
        E 120 90 48 69
        E 0 90 60 69
        E 0 90 6c 67
        E 120 80 48 00
        E 0 80 60 00
        E 0 80 6c 00
        E 120 90 60 69
        E 120 80 60 00
        E 120 90 18 69
        E 0 90 30 69
        E 0 90 48 69
        E 0 90 60 69
        E 120 80 18 00
        E 0 80 30 00
        E 0 80 48 00
        E 0 80 60 00
        E 120 90 60 69
        E 120 80 60 00
        E 120 90 4c 64
        E 0 90 64 64
        E 0 90 6c 65
        E 120 80 4c 00
        E 0 80 64 00
        E 0 80 6c 00
        E 120 90 64 65
        E 120 80 64 00
        E 120 90 34 64
        E 0 90 4c 64
        E 0 90 64 64
        E 120 80 34 00
        E 0 80 4c 00
        E 0 80 64 00
        E 120 90 64 67
        E 120 80 64 00
        E 120 90 48 69
        E 0 90 60 69
        E 0 90 6c 67
        E 120 80 48 00
        E 0 80 60 00
        E 0 80 6c 00
        E 120 90 60 69
        E 120 80 60 00
        E 120 90 18 67
        E 0 90 30 67
        E 0 90 48 67
        E 0 90 60 67
        E 0 90 6c 67
        E 120 80 18 00
        E 0 80 30 00
        E 0 80 48 00
        E 0 80 60 00
        E 0 80 6c 00
        E 120 90 60 67
        E 120 80 60 00
        E 120 90 4c 64
        E 0 90 64 64
        E 0 90 6c 65
        E 120 80 4c 00
        E 0 80 64 00
        E 0 80 6c 00
        E 120 90 64 65
        E 120 80 64 00
        E 120 90 34 64
        E 0 90 4c 64
        E 0 90 64 64
        E 120 80 34 00
        E 0 80 4c 00
        E 0 80 64 00
        E 120 90 64 67
        E 120 80 64 00
        E 120 90 48 67
        E 0 90 60 67
        E 0 90 6c 67
        E 120 80 48 00
        E 0 80 60 00
        E 0 80 6c 00
        E 120 90 60 67
        E 120 80 60 00
        E 120 90 18 67
        E 0 90 30 67
        E 0 90 48 67
        E 0 90 60 67
        E 120 80 18 00
        E 0 80 30 00
        E 0 80 48 00
        E 0 80 60 00
        E 120 90 60 67
        E 120 80 60 00
        E 120 90 4c 64
        E 0 90 64 64
        E 0 90 6c 65
        E 120 80 4c 00
        E 0 80 64 00
        E 0 80 6c 00
        E 120 90 64 65
        E 120 80 64 00
        E 120 90 34 64
        E 0 90 4c 64
        E 0 90 64 64
        E 120 80 34 00
        E 0 80 4c 00
        E 0 80 64 00
        E 120 90 64 67
        E 120 80 64 00
        E 120 90 48 67
        E 0 90 60 67
        E 0 90 6c 67
        E 120 80 48 00
        E 0 80 60 00
        E 0 80 6c 00
        E 120 90 60 67
        E 120 80 60 00
        E 120 90 18 65
        E 0 90 30 65
        E 0 90 48 65
        E 0 90 60 65
        E 0 90 6c 65
        E 120 80 18 00
        E 0 80 30 00
        E 0 80 48 00
        E 0 80 60 00
        E 0 80 6c 00
        E 120 90 60 65
        E 120 80 60 00
        E 120 90 4c 64
        E 0 90 64 64
        E 120 80 4c 00
        E 0 80 64 00
        E 120 90 64 65
        E 120 80 64 00
        E 120 90 34 64
        E 0 90 4c 64
        E 0 90 64 64
        E 120 80 34 00
        E 0 80 4c 00
        E 0 80 64 00
        E 120 90 64 67
        E 120 80 64 00
        E 120 90 48 65
        E 0 90 60 65
        E 120 80 48 00
        E 0 80 60 00
        E 120 90 60 65
        E 120 80 60 00
        E 120 90 18 65
        E 0 90 30 65
        E 0 90 48 65
        E 0 90 60 65
        E 120 80 18 00
        E 0 80 30 00
        E 0 80 48 00
        E 0 80 60 00
        E 120 90 60 65
        E 120 80 60 00
        E 120 90 4c 64
        E 0 90 64 64
        E 120 80 4c 00
        E 0 80 64 00
        E 120 90 64 65
        E 120 80 64 00
        E 120 90 34 64
        E 0 90 4c 64
        E 0 90 64 64
        E 120 80 34 00
        E 0 80 4c 00
        E 0 80 64 00
        E 120 90 64 67
        E 120 80 64 00
        E 120 90 48 65
        E 0 90 60 65
        E 120 80 48 00
        E 0 80 60 00
        E 120 90 60 65
        E 120 80 60 00
        E 120 90 18 64
        E 0 90 30 64
        E 0 90 48 64
        E 0 90 60 64
        E 120 80 18 00
        E 0 80 30 00
        E 0 80 48 00
        E 0 80 60 00
        E 120 90 60 64
        E 120 80 60 00
        E 120 90 4c 64
        E 0 90 64 64
        E 120 80 4c 00
        E 0 80 64 00
        E 120 90 64 65
        E 120 80 64 00
        E 120 90 34 64
        E 0 90 4c 64
        E 0 90 64 64
        E 120 80 34 00
        E 0 80 4c 00
        E 0 80 64 00
        E 120 90 64 67
        E 120 80 64 00
        E 120 90 48 64
        E 0 90 60 64
        E 120 80 48 00
        E 0 80 60 00
        E 120 90 60 64
        E 120 80 60 00
        E 120 90 18 64
        E 0 90 30 64
        E 0 90 48 64
        E 0 90 60 64
        E 120 80 18 00
        E 0 80 30 00
        E 0 80 48 00
        E 0 80 60 00
        E 120 90 60 64
        E 120 80 60 00
        E 120 90 4c 64
        E 0 90 64 64
        E 120 80 4c 00
        E 0 80 64 00
        E 120 90 64 65
        E 120 80 64 00
        E 120 90 34 64
        E 0 90 4c 64
        E 0 90 64 64
        E 120 80 34 00
        E 0 80 4c 00
        E 0 80 64 00
        E 120 90 64 67
        E 120 80 64 00
        E 120 90 48 64
        E 0 90 60 64
        E 120 80 48 00
        E 0 80 60 00
        E 120 90 60 64
        E 120 80 60 00
        E 120 90 1a 67
        E 0 90 32 67
        E 0 90 4a 67
        E 0 90 62 67
        E 0 90 6c 66
        E 120 80 1a 00
        E 0 80 32 00
        E 0 80 4a 00
        E 0 80 62 00
        E 0 80 6c 00
        E 120 90 62 66
        E 120 80 62 00
        E 120 90 4a 67
        E 0 90 62 67
        E 120 80 4a 00
        E 0 80 62 00
        E 120 90 62 66
        E 120 80 62 00
        E 120 90 32 67
        E 0 90 4a 67
        E 0 90 62 67
        E 120 80 32 00
        E 0 80 4a 00
        E 0 80 62 00
        E 120 90 62 66
        E 120 80 62 00
        E 120 90 4a 67
        E 0 90 62 67
        E 120 80 4a 00
        E 0 80 62 00
        E 120 90 63 64
        E 120 80 63 00
        E 120 90 1c 64
        E 0 90 34 64
        E 0 90 4c 64
        E 0 90 64 64
        E 0 90 6c 65
        E 120 80 1c 00
        E 0 80 34 00
        E 0 80 4c 00
        E 0 80 64 00
        E 0 80 6c 00
        E 120 90 64 65
        E 120 80 64 00
        E 120 90 4c 64
        E 0 90 64 64
        E 120 80 4c 00
        E 0 80 64 00
        E 120 90 63 66
        E 120 80 63 00
        E 120 90 34 64
        E 0 90 4c 64
        E 0 90 64 64
        E 120 80 34 00
        E 0 80 4c 00
        E 0 80 64 00
        E 120 90 64 65
        E 120 80 64 00
        E 120 90 4c 67
        E 0 90 64 67
        E 120 80 4c 00
        E 0 80 64 00
        E 120 90 65 64
        E 120 80 65 00
        E 120 90 1a 67
        E 0 90 32 67
        E 0 90 4a 67
        E 0 90 62 67
        E 0 90 6c 66
        E 120 80 1a 00
        E 0 80 32 00
        E 0 80 4a 00
        E 0 80 62 00
        E 0 80 6c 00
        E 120 90 62 66
        E 120 80 62 00
        E 120 90 4a 67
        E 0 90 62 67
        E 120 80 4a 00
        E 0 80 62 00
        E 120 90 62 66
        E 120 80 62 00
        E 120 90 32 67
        E 0 90 4a 67
        E 0 90 62 67
        E 120 80 32 00
        E 0 80 4a 00
        E 0 80 62 00
        E 120 90 62 66
        E 120 80 62 00
        E 120 90 4a 67
        E 0 90 62 67
        E 120 80 4a 00
        E 0 80 62 00
        E 120 90 63 64
        E 120 80 63 00
        E 120 90 1c 64
        E 0 90 34 64
        E 0 90 4c 64
        E 0 90 64 64
        E 0 90 6c 65
        E 120 80 1c 00
        E 0 80 34 00
        E 0 80 4c 00
        E 0 80 64 00
        E 0 80 6c 00
        E 120 90 64 65
        E 120 80 64 00
        E 120 90 4c 64
        E 0 90 64 64
        E 120 80 4c 00
        E 0 80 64 00
        E 120 90 63 66
        E 120 80 63 00
        E 120 90 34 64
        E 0 90 4c 64
        E 0 90 64 64
        E 120 80 34 00
        E 0 80 4c 00
        E 0 80 64 00
        E 120 90 64 65
        E 120 80 64 00
        E 120 90 4c 67
        E 0 90 64 67
        E 120 80 4c 00
        E 0 80 64 00
        E 120 90 65 64
        E 120 80 65 00
        E 11640 b0 7b 00
        GUID {1C74DECB-883F-4C17-B2E4-BD943B28E1C4}
        IGNTEMPO 0 120.00000000 4 4
        SRCCOLOR 2
        VELLANE 132 128 60
        COLORMAP "C:\Program Files\REAPER (x64)\Data\color_maps\rockband_guitarbass.png"
        TEXTSTRINGFILE "C:\Program Files\REAPER (x64)\Data\Text_Strings\Text Events List - PRO Trainers.txt"
        CFGEDITVIEW -7776.000000 11.640121 22 12 0 0 0
        CFGEDIT 1 1 0 1 1 0 1 1 1 1 1 0.25000000 -8 -8 1544 872 0 2 1 1 0.00000000 0 1 0 0 0.500000 0 0 1.000000 64
        KEYSNAP 0 6 "102030050700" 0 "Pentatonic"
        EVTFILTER 0 -1 -1 -1 -1 0 1 0 0 -1.00000000 -1.00000000
      >
    >
  >
  <TRACK '{C89BDA3B-DD6C-4FB3-980C-3B1A5CF5D0C0}'
    NAME "EVENTS"
    PEAKCOL 16576
    BEAT -1
    AUTOMODE 0
    VOLPAN 1.00000000000000 0.00000000000000 -1.00000000000000 -1.00000000000000 1.00000000000000
    MUTESOLO 0 0 0
    IPHASE 0
    ISBUS 0 0
    BUSCOMP 0 0
    SHOWINMIX 1 0.666700 0.500000 1 0.500000 -1 -1 -1
    FREEMODE 0
    SEL 0
    REC 0 0 0 0 0 0 0
    VU 2
    TRACKHEIGHT 0 0
    INQ 0 0 0 0.5000000000 100 0 0 100
    NCHAN 2
    FX 1
    TRACKID {C89BDA3B-DD6C-4FB3-980C-3B1A5CF5D0C0}
    PERF 0
    MIDIOUT -1
    <MIDINOTENAMES
      0 26 "Hi-Hat"
      0 25 "Snare"
      0 24 "Kick"
    >
    MAINSEND 1 0
    <FXCHAIN
      SHOW 0
      LASTSEL 0
      DOCKED 0
    >
    <ITEM
      POSITION 0.00000000000000
      SNAPOFFS 0.00000000000000
      LENGTH 108.01200133348151
      LOOP 0
      ALLTAKES 0
      SEL 0
      FADEIN 1 0.000000 0.000000 1 0
      FADEOUT 1 0.000000 0.000000 1 0
      MUTE 0
      IGUID {A77F4279-32E7-497B-B392-B3F916BB4126}
      IID 29
      NAME "EVENTS"
      VOLPAN 1.000000 0.000000 1.000000 -1.000000
      SOFFS 0.00000000000000 0.00000000000000
      PLAYRATE 1.00000000000000 1 0.00000000000000 -1
      CHANMODE 0
      GUID {9B520E75-2C6A-4C41-9051-7D96ACDCA22F}
      <SOURCE MIDI
        HASDATA 1 480 QN
        POOLEDEVTS {CB401DB1-5932-4D0C-AD85-FE26D7EDBC35}
        <X 0 0
          /wNFVkVOVFM=
        >
        E 1920 90 1a 60
        E 120 80 1a 00
        E 840 90 1a 60
        E 120 80 1a 00
        E 840 90 1a 60
        E 120 80 1a 00
        E 360 90 1a 60
        E 120 80 1a 00
        <X 360 0
          /wFbcHJjX2Nob3J1c18xXQ==
        >
        E 0 90 18 60
        E 120 80 18 00
        E 120 90 19 60
        E 120 80 19 00
        E 120 90 19 60
        E 120 80 19 00
        E 120 90 19 60
        E 120 80 19 00
        E 120 90 18 60
        E 0 90 1a 60
        E 120 80 18 00
        E 0 80 1a 00
        E 120 90 18 60
        E 0 90 1a 60
        E 120 80 18 00
        E 0 80 1a 00
        E 0 90 1a 60
        E 120 80 1a 00
        E 0 90 19 60
        E 120 80 19 00
        E 120 90 1a 60
        E 120 80 1a 00
        E 0 90 1a 60
        E 120 80 1a 00
        E 0 90 18 60
        E 0 90 1a 60
        E 120 80 18 00
        E 0 80 1a 00
        E 120 90 18 60
        E 0 90 1a 60
        E 120 80 18 00
        E 0 80 1a 00
        E 0 90 1a 60
        <X 120 0
          /wFbbXVzaWNfc3RhcnRd
        >
        E 0 80 1a 00
        E 0 90 19 60
        E 120 80 19 00
        E 120 90 1a 60
        E 120 80 1a 00
        E 0 90 1a 60
        E 120 80 1a 00
        E 0 90 18 60
        E 0 90 1a 60
        E 120 80 18 00
        E 0 80 1a 00
        E 120 90 18 60
        E 0 90 1a 60
        E 120 80 18 00
        E 0 80 1a 00
        E 0 90 1a 60
        E 120 80 1a 00
        E 0 90 19 60
        E 120 80 19 00
        E 120 90 1a 60
        E 120 80 1a 00
        E 0 90 1a 60
        E 120 80 1a 00
        E 0 90 18 60
        E 0 90 1a 60
        E 120 80 18 00
        E 0 80 1a 00
        E 120 90 18 60
        E 0 90 1a 60
        E 120 80 18 00
        E 0 80 1a 00
        E 0 90 1a 60
        E 120 80 1a 00
        E 0 90 19 60
        E 120 80 19 00
        E 120 90 1a 60
        E 120 80 1a 00
        E 0 90 1a 60
        E 120 80 1a 00
        E 0 90 18 60
        E 0 90 1a 60
        E 120 80 18 00
        E 0 80 1a 00
        E 120 90 18 60
        E 0 90 1a 60
        E 120 80 18 00
        E 0 80 1a 00
        E 0 90 1a 60
        E 120 80 1a 00
        E 0 90 19 60
        E 120 80 19 00
        E 120 90 1a 60
        E 120 80 1a 00
        E 0 90 1a 60
        E 120 80 1a 00
        E 0 90 18 60
        E 0 90 1a 60
        E 120 80 18 00
        E 0 80 1a 00
        E 120 90 18 60
        E 0 90 1a 60
        E 120 80 18 00
        E 0 80 1a 00
        E 0 90 1a 60
        E 120 80 1a 00
        E 0 90 19 60
        E 120 80 19 00
        E 120 90 1a 60
        E 120 80 1a 00
        E 0 90 1a 60
        E 120 80 1a 00
        E 0 90 19 60
        E 120 80 19 00
        E 120 90 18 60
        E 120 80 18 00
        E 120 90 19 60
        E 120 80 19 00
        E 120 90 18 60
        E 120 80 18 00
        E 120 90 19 60
        E 120 80 19 00
        E 120 90 19 60
        E 120 80 19 00
        E 120 90 19 60
        E 120 80 19 00
        E 120 90 19 60
        E 120 80 19 00
        <X 120 0
          /wFbcHJjX3ZlcnNlXzFd
        >
        E 0 90 18 60
        E 0 90 1a 60
        E 120 80 18 00
        E 0 80 1a 00
        E 120 90 18 60
        E 0 90 1a 60
        E 120 80 18 00
        E 0 80 1a 00
        E 0 90 1a 60
        E 120 80 1a 00
        E 0 90 19 60
        E 120 80 19 00
        E 120 90 1a 60
        E 120 80 1a 00
        E 0 90 1a 60
        E 120 80 1a 00
        E 0 90 18 60
        E 0 90 1a 60
        E 120 80 18 00
        E 0 80 1a 00
        E 120 90 18 60
        E 0 90 1a 60
        E 120 80 18 00
        E 0 80 1a 00
        E 0 90 1a 60
        E 120 80 1a 00
        E 0 90 19 60
        E 120 80 19 00
        E 120 90 1a 60
        E 120 80 1a 00
        E 0 90 1a 60
        E 120 80 1a 00
        E 0 90 18 60
        E 0 90 1a 60
        E 120 80 18 00
        E 0 80 1a 00
        E 120 90 18 60
        E 0 90 1a 60
        E 120 80 18 00
        E 0 80 1a 00
        E 0 90 1a 60
        E 120 80 1a 00
        E 0 90 19 60
        E 120 80 19 00
        E 120 90 1a 60
        E 120 80 1a 00
        E 0 90 1a 60
        E 120 80 1a 00
        E 0 90 18 60
        E 0 90 1a 60
        E 120 80 18 00
        E 0 80 1a 00
        E 120 90 18 60
        E 0 90 1a 60
        E 120 80 18 00
        E 0 80 1a 00
        E 0 90 1a 60
        E 120 80 1a 00
        E 0 90 19 60
        E 120 80 19 00
        E 120 90 1a 60
        E 120 80 1a 00
        E 0 90 1a 60
        E 120 80 1a 00
        E 0 90 18 60
        E 0 90 1a 60
        E 120 80 18 00
        E 0 80 1a 00
        E 120 90 18 60
        E 0 90 1a 60
        E 120 80 18 00
        E 0 80 1a 00
        E 0 90 1a 60
        E 120 80 1a 00
        E 0 90 19 60
        E 120 80 19 00
        E 120 90 1a 60
        E 120 80 1a 00
        E 0 90 1a 60
        E 120 80 1a 00
        E 0 90 18 60
        E 0 90 1a 60
        E 120 80 18 00
        E 0 80 1a 00
        E 120 90 18 60
        E 0 90 1a 60
        E 120 80 18 00
        E 0 80 1a 00
        E 0 90 1a 60
        E 120 80 1a 00
        E 0 90 19 60
        E 120 80 19 00
        E 120 90 1a 60
        E 120 80 1a 00
        E 0 90 1a 60
        E 120 80 1a 00
        E 0 90 18 60
        E 0 90 1a 60
        E 120 80 18 00
        E 0 80 1a 00
        E 120 90 18 60
        E 0 90 1a 60
        E 120 80 18 00
        E 0 80 1a 00
        E 0 90 1a 60
        E 120 80 1a 00
        E 0 90 19 60
        E 120 80 19 00
        E 120 90 1a 60
        E 120 80 1a 00
        E 0 90 1a 60
        E 120 80 1a 00
        E 0 90 18 60
        E 0 90 1a 60
        E 120 80 18 00
        E 0 80 1a 00
        E 120 90 19 60
        E 120 80 19 00
        E 120 90 19 60
        E 120 80 19 00
        E 120 90 19 60
        E 120 80 19 00
        E 120 90 18 60
        E 0 90 1a 60
        E 120 80 18 00
        E 0 80 1a 00
        E 120 90 18 60
        E 0 90 1a 60
        E 120 80 18 00
        E 0 80 1a 00
        E 0 90 1a 60
        E 120 80 1a 00
        E 0 90 19 60
        E 120 80 19 00
        E 120 90 1a 60
        E 120 80 1a 00
        E 0 90 1a 60
        E 120 80 1a 00
        E 0 90 18 60
        E 0 90 1a 60
        E 120 80 18 00
        E 0 80 1a 00
        E 120 90 18 60
        E 0 90 1a 60
        E 120 80 18 00
        E 0 80 1a 00
        E 0 90 1a 60
        E 120 80 1a 00
        E 0 90 19 60
        E 120 80 19 00
        E 120 90 1a 60
        E 120 80 1a 00
        E 0 90 1a 60
        E 120 80 1a 00
        E 0 90 18 60
        E 0 90 1a 60
        E 120 80 18 00
        E 0 80 1a 00
        E 120 90 18 60
        E 0 90 1a 60
        E 120 80 18 00
        E 0 80 1a 00
        E 0 90 1a 60
        E 120 80 1a 00
        E 0 90 19 60
        E 120 80 19 00
        E 120 90 1a 60
        E 120 80 1a 00
        E 0 90 1a 60
        E 120 80 1a 00
        E 0 90 18 60
        E 0 90 1a 60
        E 120 80 18 00
        E 0 80 1a 00
        E 120 90 18 60
        E 0 90 1a 60
        E 120 80 18 00
        E 0 80 1a 00
        E 0 90 1a 60
        E 120 80 1a 00
        E 0 90 19 60
        E 120 80 19 00
        E 120 90 1a 60
        E 120 80 1a 00
        E 0 90 1a 60
        E 120 80 1a 00
        E 0 90 18 60
        E 0 90 1a 60
        E 120 80 18 00
        E 0 80 1a 00
        E 120 90 18 60
        E 0 90 1a 60
        E 120 80 18 00
        E 0 80 1a 00
        E 0 90 1a 60
        E 120 80 1a 00
        E 0 90 19 60
        E 120 80 19 00
        E 120 90 1a 60
        E 120 80 1a 00
        E 0 90 1a 60
        E 120 80 1a 00
        E 0 90 18 60
        E 0 90 1a 60
        E 120 80 18 00
        E 0 80 1a 00
        E 120 90 18 60
        E 0 90 1a 60
        E 120 80 18 00
        E 0 80 1a 00
        E 0 90 1a 60
        E 120 80 1a 00
        E 0 90 19 60
        E 120 80 19 00
        E 120 90 1a 60
        E 120 80 1a 00
        E 0 90 1a 60
        E 120 80 1a 00
        E 0 90 18 60
        E 0 90 1a 60
        E 120 80 18 00
        E 0 80 1a 00
        E 120 90 18 60
        E 0 90 1a 60
        E 120 80 18 00
        E 0 80 1a 00
        E 0 90 1a 60
        E 120 80 1a 00
        E 0 90 19 60
        E 120 80 19 00
        E 120 90 1a 60
        E 120 80 1a 00
        E 0 90 1a 60
        E 120 80 1a 00
        E 0 90 18 60
        E 0 90 1a 60
        E 120 80 18 00
        E 0 80 1a 00
        E 120 90 19 60
        E 120 80 19 00
        E 120 90 19 60
        E 120 80 19 00
        E 120 90 19 60
        E 120 80 19 00
        E 120 90 18 60
        E 0 90 1a 60
        E 120 80 18 00
        E 0 80 1a 00
        E 120 90 18 60
        E 0 90 1a 60
        E 120 80 18 00
        E 0 80 1a 00
        E 0 90 1a 60
        E 120 80 1a 00
        E 0 90 19 60
        E 120 80 19 00
        E 120 90 1a 60
        E 120 80 1a 00
        E 0 90 1a 60
        E 120 80 1a 00
        E 0 90 18 60
        E 0 90 1a 60
        E 120 80 18 00
        E 0 80 1a 00
        E 120 90 18 60
        E 0 90 1a 60
        E 120 80 18 00
        E 0 80 1a 00
        E 0 90 1a 60
        E 120 80 1a 00
        E 0 90 19 60
        E 120 80 19 00
        E 120 90 1a 60
        E 120 80 1a 00
        E 0 90 1a 60
        E 120 80 1a 00
        E 0 90 18 60
        E 0 90 1a 60
        E 120 80 18 00
        E 0 80 1a 00
        E 120 90 18 60
        E 0 90 1a 60
        E 120 80 18 00
        E 0 80 1a 00
        E 0 90 1a 60
        E 120 80 1a 00
        E 0 90 19 60
        E 120 80 19 00
        E 120 90 1a 60
        E 120 80 1a 00
        E 0 90 1a 60
        E 120 80 1a 00
        E 0 90 18 60
        E 0 90 1a 60
        E 120 80 18 00
        E 0 80 1a 00
        E 120 90 18 60
        E 0 90 1a 60
        E 120 80 18 00
        E 0 80 1a 00
        E 0 90 1a 60
        E 120 80 1a 00
        E 0 90 19 60
        E 120 80 19 00
        E 120 90 1a 60
        E 120 80 1a 00
        E 0 90 1a 60
        E 120 80 1a 00
        E 0 90 18 60
        E 0 90 1a 60
        E 120 80 18 00
        E 0 80 1a 00
        E 120 90 18 60
        E 0 90 1a 60
        E 120 80 18 00
        E 0 80 1a 00
        E 0 90 1a 60
        E 120 80 1a 00
        E 0 90 19 60
        E 120 80 19 00
        E 120 90 1a 60
        E 120 80 1a 00
        E 0 90 1a 60
        E 120 80 1a 00
        E 0 90 18 60
        E 0 90 1a 60
        E 120 80 18 00
        E 0 80 1a 00
        E 120 90 18 60
        E 0 90 1a 60
        E 120 80 18 00
        E 0 80 1a 00
        E 0 90 1a 60
        E 120 80 1a 00
        E 0 90 19 60
        E 120 80 19 00
        E 120 90 1a 60
        E 120 80 1a 00
        E 0 90 1a 60
        E 120 80 1a 00
        E 0 90 18 60
        E 0 90 1a 60
        E 120 80 18 00
        E 0 80 1a 00
        E 120 90 18 60
        E 0 90 1a 60
        E 120 80 18 00
        E 0 80 1a 00
        E 0 90 1a 60
        E 120 80 1a 00
        E 0 90 19 60
        E 120 80 19 00
        E 120 90 1a 60
        E 120 80 1a 00
        E 0 90 1a 60
        E 120 80 1a 00
        E 0 90 18 60
        E 0 90 1a 60
        E 120 80 18 00
        E 0 80 1a 00
        E 120 90 19 60
        E 120 80 19 00
        E 120 90 19 60
        E 120 80 19 00
        E 120 90 19 60
        E 120 80 19 00
        E 120 90 18 60
        E 0 90 1a 60
        E 120 80 18 00
        E 0 80 1a 00
        E 120 90 18 60
        E 0 90 1a 60
        E 120 80 18 00
        E 0 80 1a 00
        E 0 90 1a 60
        E 120 80 1a 00
        E 0 90 19 60
        E 120 80 19 00
        E 120 90 1a 60
        E 120 80 1a 00
        E 0 90 1a 60
        E 120 80 1a 00
        E 0 90 18 60
        E 0 90 1a 60
        E 120 80 18 00
        E 0 80 1a 00
        E 120 90 18 60
        E 0 90 1a 60
        E 120 80 18 00
        E 0 80 1a 00
        E 0 90 1a 60
        E 120 80 1a 00
        E 0 90 19 60
        E 120 80 19 00
        E 120 90 1a 60
        E 120 80 1a 00
        E 0 90 1a 60
        E 120 80 1a 00
        E 0 90 18 60
        E 0 90 1a 60
        E 120 80 18 00
        E 0 80 1a 00
        E 120 90 18 60
        E 0 90 1a 60
        E 120 80 18 00
        E 0 80 1a 00
        E 0 90 1a 60
        E 120 80 1a 00
        E 0 90 19 60
        E 120 80 19 00
        E 120 90 1a 60
        E 120 80 1a 00
        E 0 90 1a 60
        E 120 80 1a 00
        E 0 90 18 60
        E 0 90 1a 60
        E 120 80 18 00
        E 0 80 1a 00
        E 120 90 18 60
        E 0 90 1a 60
        E 120 80 18 00
        E 0 80 1a 00
        E 0 90 1a 60
        E 120 80 1a 00
        E 0 90 19 60
        E 120 80 19 00
        E 120 90 1a 60
        E 120 80 1a 00
        E 0 90 1a 60
        E 120 80 1a 00
        E 0 90 18 60
        E 0 90 1a 60
        E 120 80 18 00
        E 0 80 1a 00
        E 120 90 18 60
        E 0 90 1a 60
        E 120 80 18 00
        E 0 80 1a 00
        E 0 90 1a 60
        E 120 80 1a 00
        E 0 90 19 60
        E 120 80 19 00
        E 120 90 1a 60
        E 120 80 1a 00
        E 0 90 1a 60
        E 120 80 1a 00
        E 0 90 18 60
        E 0 90 1a 60
        E 120 80 18 00
        E 0 80 1a 00
        E 120 90 18 60
        E 0 90 1a 60
        E 120 80 18 00
        E 0 80 1a 00
        E 0 90 1a 60
        E 120 80 1a 00
        E 0 90 19 60
        E 120 80 19 00
        E 120 90 1a 60
        E 120 80 1a 00
        E 0 90 1a 60
        E 120 80 1a 00
        E 0 90 18 60
        E 0 90 1a 60
        E 120 80 18 00
        E 0 80 1a 00
        E 120 90 18 60
        E 0 90 1a 60
        E 120 80 18 00
        E 0 80 1a 00
        E 0 90 1a 60
        E 120 80 1a 00
        E 0 90 19 60
        E 120 80 19 00
        E 120 90 1a 60
        E 120 80 1a 00
        E 0 90 1a 60
        E 120 80 1a 00
        E 0 90 18 60
        E 0 90 1a 60
        E 120 80 18 00
        E 0 80 1a 00
        E 120 90 19 60
        E 120 80 19 00
        E 120 90 19 60
        E 120 80 19 00
        E 120 90 19 60
        E 120 80 19 00
        <X 120 0
          /wFbcHJjX3ByZWNob3J1c18xXQ==
        >
        E 0 90 18 60
        E 0 90 1a 60
        E 120 80 18 00
        E 0 80 1a 00
        E 120 90 18 60
        E 0 90 1a 60
        E 120 80 18 00
        E 0 80 1a 00
        E 0 90 1a 60
        E 120 80 1a 00
        E 0 90 19 60
        E 120 80 19 00
        E 120 90 1a 60
        E 120 80 1a 00
        E 0 90 1a 60
        E 120 80 1a 00
        E 0 90 18 60
        E 0 90 1a 60
        E 120 80 18 00
        E 0 80 1a 00
        E 120 90 18 60
        E 0 90 1a 60
        E 120 80 18 00
        E 0 80 1a 00
        E 0 90 1a 60
        E 120 80 1a 00
        E 0 90 19 60
        E 120 80 19 00
        E 120 90 1a 60
        E 120 80 1a 00
        E 0 90 1a 60
        E 120 80 1a 00
        E 0 90 18 60
        E 0 90 1a 60
        E 120 80 18 00
        E 0 80 1a 00
        E 120 90 18 60
        E 0 90 1a 60
        E 120 80 18 00
        E 0 80 1a 00
        E 0 90 1a 60
        E 120 80 1a 00
        E 0 90 19 60
        E 120 80 19 00
        E 120 90 1a 60
        E 120 80 1a 00
        E 0 90 1a 60
        E 120 80 1a 00
        E 0 90 18 60
        E 0 90 1a 60
        E 120 80 18 00
        E 0 80 1a 00
        E 120 90 18 60
        E 0 90 1a 60
        E 120 80 18 00
        E 0 80 1a 00
        E 0 90 1a 60
        E 120 80 1a 00
        E 0 90 19 60
        E 120 80 19 00
        E 120 90 1a 60
        E 120 80 1a 00
        E 0 90 1a 60
        E 120 80 1a 00
        E 0 90 18 60
        E 0 90 1a 60
        E 120 80 18 00
        E 0 80 1a 00
        E 120 90 18 60
        E 0 90 1a 60
        E 120 80 18 00
        E 0 80 1a 00
        E 0 90 1a 60
        E 120 80 1a 00
        E 0 90 19 60
        E 120 80 19 00
        E 120 90 1a 60
        E 120 80 1a 00
        E 0 90 1a 60
        E 120 80 1a 00
        E 0 90 18 60
        E 0 90 1a 60
        E 120 80 18 00
        E 0 80 1a 00
        E 120 90 18 60
        E 0 90 1a 60
        E 120 80 18 00
        E 0 80 1a 00
        E 0 90 1a 60
        E 120 80 1a 00
        E 0 90 19 60
        E 120 80 19 00
        E 120 90 1a 60
        E 120 80 1a 00
        E 0 90 1a 60
        E 120 80 1a 00
        E 0 90 18 60
        E 0 90 1a 60
        E 120 80 18 00
        E 0 80 1a 00
        E 120 90 18 60
        E 0 90 1a 60
        E 120 80 18 00
        E 0 80 1a 00
        E 0 90 1a 60
        E 120 80 1a 00
        E 0 90 19 60
        E 120 80 19 00
        E 120 90 1a 60
        E 120 80 1a 00
        E 0 90 1a 60
        E 120 80 1a 00
        E 0 90 18 60
        E 0 90 1a 60
        E 120 80 18 00
        E 0 80 1a 00
        E 120 90 19 60
        E 120 80 19 00
        E 120 90 19 60
        E 120 80 19 00
        E 120 90 19 60
        E 120 80 19 00
        <X 120 0
          /wFbcHJjX2Nob3J1c18yXQ==
        >
        E 0 90 18 60
        E 0 90 1a 60
        E 120 80 18 00
        E 0 80 1a 00
        E 120 90 18 60
        E 0 90 1a 60
        E 120 80 18 00
        E 0 80 1a 00
        E 0 90 1a 60
        E 120 80 1a 00
        E 0 90 19 60
        E 120 80 19 00
        E 120 90 1a 60
        E 120 80 1a 00
        E 0 90 1a 60
        E 120 80 1a 00
        E 0 90 18 60
        E 0 90 1a 60
        E 120 80 18 00
        E 0 80 1a 00
        E 120 90 18 60
        E 0 90 1a 60
        E 120 80 18 00
        E 0 80 1a 00
        E 0 90 1a 60
        E 120 80 1a 00
        E 0 90 19 60
        E 120 80 19 00
        E 120 90 1a 60
        E 120 80 1a 00
        E 0 90 1a 60
        E 120 80 1a 00
        E 0 90 18 60
        E 0 90 1a 60
        E 120 80 18 00
        E 0 80 1a 00
        E 120 90 18 60
        E 0 90 1a 60
        E 120 80 18 00
        E 0 80 1a 00
        E 0 90 1a 60
        E 120 80 1a 00
        E 0 90 19 60
        E 120 80 19 00
        E 120 90 1a 60
        E 120 80 1a 00
        E 0 90 1a 60
        E 120 80 1a 00
        E 0 90 18 60
        E 0 90 1a 60
        E 120 80 18 00
        E 0 80 1a 00
        E 120 90 18 60
        E 0 90 1a 60
        E 120 80 18 00
        E 0 80 1a 00
        E 0 90 1a 60
        E 120 80 1a 00
        E 0 90 19 60
        E 120 80 19 00
        E 120 90 1a 60
        E 120 80 1a 00
        E 0 90 1a 60
        E 120 80 1a 00
        E 0 90 18 60
        E 0 90 1a 60
        E 120 80 18 00
        E 0 80 1a 00
        E 120 90 18 60
        E 0 90 1a 60
        E 120 80 18 00
        E 0 80 1a 00
        E 0 90 1a 60
        E 120 80 1a 00
        E 0 90 19 60
        E 120 80 19 00
        E 120 90 1a 60
        E 120 80 1a 00
        E 0 90 1a 60
        E 120 80 1a 00
        E 0 90 18 60
        E 0 90 1a 60
        E 120 80 18 00
        E 0 80 1a 00
        E 120 90 18 60
        E 0 90 1a 60
        E 120 80 18 00
        E 0 80 1a 00
        E 0 90 1a 60
        E 120 80 1a 00
        E 0 90 19 60
        E 120 80 19 00
        E 120 90 1a 60
        E 120 80 1a 00
        E 0 90 1a 60
        E 120 80 1a 00
        E 0 90 19 60
        E 120 80 19 00
        E 120 90 18 60
        E 120 80 18 00
        E 120 90 19 60
        E 120 80 19 00
        E 120 90 18 60
        E 120 80 18 00
        E 120 90 19 60
        E 120 80 19 00
        E 120 90 19 60
        E 120 80 19 00
        E 120 90 19 60
        E 120 80 19 00
        E 120 90 19 60
        E 120 80 19 00
        <X 120 0
          /wFbcHJjX3ZlcnNlXzJd
        >
        E 0 90 18 60
        E 0 90 1a 60
        E 120 80 18 00
        E 0 80 1a 00
        E 120 90 18 60
        E 0 90 1a 60
        E 120 80 18 00
        E 0 80 1a 00
        E 0 90 1a 60
        E 120 80 1a 00
        E 0 90 19 60
        E 120 80 19 00
        E 120 90 1a 60
        E 120 80 1a 00
        E 0 90 1a 60
        E 120 80 1a 00
        E 0 90 18 60
        E 0 90 1a 60
        E 120 80 18 00
        E 0 80 1a 00
        E 120 90 18 60
        E 0 90 1a 60
        E 120 80 18 00
        E 0 80 1a 00
        E 0 90 1a 60
        E 120 80 1a 00
        E 0 90 19 60
        E 120 80 19 00
        E 120 90 1a 60
        E 120 80 1a 00
        E 0 90 1a 60
        E 120 80 1a 00
        E 0 90 18 60
        E 0 90 1a 60
        E 120 80 18 00
        E 0 80 1a 00
        E 120 90 18 60
        E 0 90 1a 60
        E 120 80 18 00
        E 0 80 1a 00
        E 0 90 1a 60
        E 120 80 1a 00
        E 0 90 19 60
        E 120 80 19 00
        E 120 90 1a 60
        E 120 80 1a 00
        E 0 90 1a 60
        E 120 80 1a 00
        E 0 90 18 60
        E 0 90 1a 60
        E 120 80 18 00
        E 0 80 1a 00
        E 120 90 18 60
        E 0 90 1a 60
        E 120 80 18 00
        E 0 80 1a 00
        E 0 90 1a 60
        E 120 80 1a 00
        E 0 90 19 60
        E 120 80 19 00
        E 120 90 1a 60
        E 120 80 1a 00
        E 0 90 1a 60
        E 120 80 1a 00
        E 0 90 18 60
        E 0 90 1a 60
        E 120 80 18 00
        E 0 80 1a 00
        E 120 90 18 60
        E 0 90 1a 60
        E 120 80 18 00
        E 0 80 1a 00
        E 0 90 1a 60
        E 120 80 1a 00
        E 0 90 19 60
        E 120 80 19 00
        E 120 90 1a 60
        E 120 80 1a 00
        E 0 90 1a 60
        E 120 80 1a 00
        E 0 90 18 60
        E 0 90 1a 60
        E 120 80 18 00
        E 0 80 1a 00
        E 120 90 18 60
        E 0 90 1a 60
        E 120 80 18 00
        E 0 80 1a 00
        E 0 90 1a 60
        E 120 80 1a 00
        E 0 90 19 60
        E 120 80 19 00
        E 120 90 1a 60
        E 120 80 1a 00
        E 0 90 1a 60
        E 120 80 1a 00
        E 0 90 18 60
        E 0 90 1a 60
        E 120 80 18 00
        E 0 80 1a 00
        E 120 90 18 60
        E 0 90 1a 60
        E 120 80 18 00
        E 0 80 1a 00
        E 0 90 1a 60
        E 120 80 1a 00
        E 0 90 19 60
        E 120 80 19 00
        E 120 90 1a 60
        E 120 80 1a 00
        E 0 90 1a 60
        E 120 80 1a 00
        E 0 90 18 60
        E 0 90 1a 60
        E 120 80 18 00
        E 0 80 1a 00
        E 120 90 19 60
        E 120 80 19 00
        E 120 90 19 60
        E 120 80 19 00
        E 120 90 19 60
        E 120 80 19 00
        E 120 90 18 60
        E 0 90 1a 60
        E 120 80 18 00
        E 0 80 1a 00
        E 120 90 18 60
        E 0 90 1a 60
        E 120 80 18 00
        E 0 80 1a 00
        E 0 90 1a 60
        E 120 80 1a 00
        E 0 90 19 60
        E 120 80 19 00
        E 120 90 1a 60
        E 120 80 1a 00
        E 0 90 1a 60
        E 120 80 1a 00
        E 0 90 18 60
        E 0 90 1a 60
        E 120 80 18 00
        E 0 80 1a 00
        E 120 90 18 60
        E 0 90 1a 60
        E 120 80 18 00
        E 0 80 1a 00
        E 0 90 1a 60
        E 120 80 1a 00
        E 0 90 19 60
        E 120 80 19 00
        E 120 90 1a 60
        E 120 80 1a 00
        E 0 90 1a 60
        E 120 80 1a 00
        E 0 90 18 60
        E 0 90 1a 60
        E 120 80 18 00
        E 0 80 1a 00
        E 120 90 18 60
        E 0 90 1a 60
        E 120 80 18 00
        E 0 80 1a 00
        E 0 90 1a 60
        E 120 80 1a 00
        E 0 90 19 60
        E 120 80 19 00
        E 120 90 1a 60
        E 120 80 1a 00
        E 0 90 1a 60
        E 120 80 1a 00
        E 0 90 18 60
        E 0 90 1a 60
        E 120 80 18 00
        E 0 80 1a 00
        E 120 90 18 60
        E 0 90 1a 60
        E 120 80 18 00
        E 0 80 1a 00
        E 0 90 1a 60
        E 120 80 1a 00
        E 0 90 19 60
        E 120 80 19 00
        E 120 90 1a 60
        E 120 80 1a 00
        E 0 90 1a 60
        E 120 80 1a 00
        E 0 90 18 60
        E 0 90 1a 60
        E 120 80 18 00
        E 0 80 1a 00
        E 120 90 18 60
        E 0 90 1a 60
        E 120 80 18 00
        E 0 80 1a 00
        E 0 90 1a 60
        E 120 80 1a 00
        E 0 90 19 60
        E 120 80 19 00
        E 120 90 1a 60
        E 120 80 1a 00
        E 0 90 1a 60
        E 120 80 1a 00
        E 0 90 18 60
        E 0 90 1a 60
        E 120 80 18 00
        E 0 80 1a 00
        E 120 90 18 60
        E 0 90 1a 60
        E 120 80 18 00
        E 0 80 1a 00
        E 0 90 1a 60
        E 120 80 1a 00
        E 0 90 19 60
        E 120 80 19 00
        E 120 90 1a 60
        E 120 80 1a 00
        E 0 90 1a 60
        E 120 80 1a 00
        E 0 90 18 60
        E 0 90 1a 60
        E 120 80 18 00
        E 0 80 1a 00
        E 120 90 18 60
        E 0 90 1a 60
        E 120 80 18 00
        E 0 80 1a 00
        E 0 90 1a 60
        E 120 80 1a 00
        E 0 90 19 60
        E 120 80 19 00
        E 120 90 1a 60
        E 120 80 1a 00
        E 0 90 1a 60
        E 120 80 1a 00
        E 0 90 18 60
        E 0 90 1a 60
        E 120 80 18 00
        E 0 80 1a 00
        E 120 90 19 60
        E 120 80 19 00
        E 120 90 19 60
        E 120 80 19 00
        E 120 90 19 60
        E 120 80 19 00
        E 120 90 18 60
        E 0 90 1a 60
        E 120 80 18 00
        E 0 80 1a 00
        E 120 90 18 60
        E 0 90 1a 60
        E 120 80 18 00
        E 0 80 1a 00
        E 0 90 1a 60
        E 120 80 1a 00
        E 0 90 19 60
        E 120 80 19 00
        E 120 90 1a 60
        E 120 80 1a 00
        E 0 90 1a 60
        E 120 80 1a 00
        E 0 90 18 60
        E 0 90 1a 60
        E 120 80 18 00
        E 0 80 1a 00
        E 120 90 18 60
        E 0 90 1a 60
        E 120 80 18 00
        E 0 80 1a 00
        E 0 90 1a 60
        E 120 80 1a 00
        E 0 90 19 60
        E 120 80 19 00
        E 120 90 1a 60
        E 120 80 1a 00
        E 0 90 1a 60
        E 120 80 1a 00
        E 0 90 18 60
        E 0 90 1a 60
        E 120 80 18 00
        E 0 80 1a 00
        E 120 90 18 60
        E 0 90 1a 60
        E 120 80 18 00
        E 0 80 1a 00
        E 0 90 1a 60
        E 120 80 1a 00
        E 0 90 19 60
        E 120 80 19 00
        E 120 90 1a 60
        E 120 80 1a 00
        E 0 90 1a 60
        E 120 80 1a 00
        E 0 90 18 60
        E 0 90 1a 60
        E 120 80 18 00
        E 0 80 1a 00
        E 120 90 18 60
        E 0 90 1a 60
        E 120 80 18 00
        E 0 80 1a 00
        E 0 90 1a 60
        E 120 80 1a 00
        E 0 90 19 60
        E 120 80 19 00
        E 120 90 1a 60
        E 120 80 1a 00
        E 0 90 1a 60
        E 120 80 1a 00
        E 0 90 18 60
        E 0 90 1a 60
        E 120 80 18 00
        E 0 80 1a 00
        E 120 90 18 60
        E 0 90 1a 60
        E 120 80 18 00
        E 0 80 1a 00
        E 0 90 1a 60
        E 120 80 1a 00
        E 0 90 19 60
        E 120 80 19 00
        E 120 90 1a 60
        E 120 80 1a 00
        E 0 90 1a 60
        E 120 80 1a 00
        E 0 90 18 60
        E 0 90 1a 60
        E 120 80 18 00
        E 0 80 1a 00
        E 120 90 18 60
        E 0 90 1a 60
        E 120 80 18 00
        E 0 80 1a 00
        E 0 90 1a 60
        E 120 80 1a 00
        E 0 90 19 60
        E 120 80 19 00
        E 120 90 1a 60
        E 120 80 1a 00
        E 0 90 1a 60
        E 120 80 1a 00
        E 0 90 18 60
        E 0 90 1a 60
        E 120 80 18 00
        E 0 80 1a 00
        E 120 90 18 60
        E 0 90 1a 60
        E 120 80 18 00
        E 0 80 1a 00
        E 0 90 1a 60
        E 120 80 1a 00
        E 0 90 19 60
        E 120 80 19 00
        E 120 90 1a 60
        E 120 80 1a 00
        E 0 90 1a 60
        E 120 80 1a 00
        E 0 90 18 60
        E 0 90 1a 60
        E 120 80 18 00
        E 0 80 1a 00
        E 120 90 19 60
        E 120 80 19 00
        E 120 90 19 60
        E 120 80 19 00
        E 120 90 19 60
        E 120 80 19 00
        E 120 90 18 60
        E 0 90 1a 60
        E 120 80 18 00
        E 0 80 1a 00
        E 120 90 18 60
        E 0 90 1a 60
        E 120 80 18 00
        E 0 80 1a 00
        E 0 90 1a 60
        E 120 80 1a 00
        E 0 90 19 60
        E 120 80 19 00
        E 120 90 1a 60
        E 120 80 1a 00
        E 0 90 1a 60
        E 120 80 1a 00
        E 0 90 18 60
        E 0 90 1a 60
        E 120 80 18 00
        E 0 80 1a 00
        E 120 90 18 60
        E 0 90 1a 60
        E 120 80 18 00
        E 0 80 1a 00
        E 0 90 1a 60
        E 120 80 1a 00
        E 0 90 19 60
        E 120 80 19 00
        E 120 90 1a 60
        E 120 80 1a 00
        E 0 90 1a 60
        E 120 80 1a 00
        E 0 90 18 60
        E 0 90 1a 60
        E 120 80 18 00
        E 0 80 1a 00
        E 120 90 18 60
        E 0 90 1a 60
        E 120 80 18 00
        E 0 80 1a 00
        E 0 90 1a 60
        E 120 80 1a 00
        E 0 90 19 60
        E 120 80 19 00
        E 120 90 1a 60
        E 120 80 1a 00
        E 0 90 1a 60
        E 120 80 1a 00
        E 0 90 18 60
        E 0 90 1a 60
        E 120 80 18 00
        E 0 80 1a 00
        E 120 90 18 60
        E 0 90 1a 60
        E 120 80 18 00
        E 0 80 1a 00
        E 0 90 1a 60
        E 120 80 1a 00
        E 0 90 19 60
        E 120 80 19 00
        E 120 90 1a 60
        E 120 80 1a 00
        E 0 90 1a 60
        E 120 80 1a 00
        E 0 90 18 60
        E 0 90 1a 60
        E 120 80 18 00
        E 0 80 1a 00
        E 120 90 18 60
        E 0 90 1a 60
        E 120 80 18 00
        E 0 80 1a 00
        E 0 90 1a 60
        E 120 80 1a 00
        E 0 90 19 60
        E 120 80 19 00
        E 120 90 1a 60
        E 120 80 1a 00
        E 0 90 1a 60
        E 120 80 1a 00
        E 0 90 18 60
        E 0 90 1a 60
        E 120 80 18 00
        E 0 80 1a 00
        E 120 90 18 60
        E 0 90 1a 60
        E 120 80 18 00
        E 0 80 1a 00
        E 0 90 1a 60
        E 120 80 1a 00
        E 0 90 19 60
        E 120 80 19 00
        E 120 90 1a 60
        E 120 80 1a 00
        E 0 90 1a 60
        E 120 80 1a 00
        E 0 90 18 60
        E 0 90 1a 60
        E 120 80 18 00
        E 0 80 1a 00
        E 120 90 18 60
        E 0 90 1a 60
        E 120 80 18 00
        E 0 80 1a 00
        E 0 90 1a 60
        E 120 80 1a 00
        E 0 90 19 60
        E 120 80 19 00
        E 120 90 1a 60
        E 120 80 1a 00
        E 0 90 1a 60
        E 120 80 1a 00
        E 0 90 18 60
        E 0 90 1a 60
        E 120 80 18 00
        E 0 80 1a 00
        E 120 90 19 60
        E 120 80 19 00
        E 120 90 19 60
        E 120 80 19 00
        E 120 90 19 60
        E 120 80 19 00
        <X 120 0
          /wFbcHJjX3ByZWNob3J1c18yXQ==
        >
        E 0 90 18 60
        E 0 90 1a 60
        E 120 80 18 00
        E 0 80 1a 00
        E 120 90 18 60
        E 0 90 1a 60
        E 120 80 18 00
        E 0 80 1a 00
        E 0 90 1a 60
        E 120 80 1a 00
        E 0 90 19 60
        E 120 80 19 00
        E 120 90 1a 60
        E 120 80 1a 00
        E 0 90 1a 60
        E 120 80 1a 00
        E 0 90 18 60
        E 0 90 1a 60
        E 120 80 18 00
        E 0 80 1a 00
        E 120 90 18 60
        E 0 90 1a 60
        E 120 80 18 00
        E 0 80 1a 00
        E 0 90 1a 60
        E 120 80 1a 00
        E 0 90 19 60
        E 120 80 19 00
        E 120 90 1a 60
        E 120 80 1a 00
        E 0 90 1a 60
        E 120 80 1a 00
        E 0 90 18 60
        E 0 90 1a 60
        E 120 80 18 00
        E 0 80 1a 00
        E 120 90 18 60
        E 0 90 1a 60
        E 120 80 18 00
        E 0 80 1a 00
        E 0 90 1a 60
        E 120 80 1a 00
        E 0 90 19 60
        E 120 80 19 00
        E 120 90 1a 60
        E 120 80 1a 00
        E 0 90 1a 60
        E 120 80 1a 00
        E 0 90 18 60
        E 0 90 1a 60
        E 120 80 18 00
        E 0 80 1a 00
        E 120 90 18 60
        E 0 90 1a 60
        E 120 80 18 00
        E 0 80 1a 00
        E 0 90 1a 60
        E 120 80 1a 00
        E 0 90 19 60
        E 120 80 19 00
        E 120 90 1a 60
        E 120 80 1a 00
        E 0 90 1a 60
        E 120 80 1a 00
        E 0 90 18 60
        E 0 90 1a 60
        E 120 80 18 00
        E 0 80 1a 00
        E 120 90 18 60
        E 0 90 1a 60
        E 120 80 18 00
        E 0 80 1a 00
        E 0 90 1a 60
        E 120 80 1a 00
        E 0 90 19 60
        E 120 80 19 00
        E 120 90 1a 60
        E 120 80 1a 00
        E 0 90 1a 60
        E 120 80 1a 00
        E 0 90 18 60
        E 0 90 1a 60
        E 120 80 18 00
        E 0 80 1a 00
        E 120 90 18 60
        E 0 90 1a 60
        E 120 80 18 00
        E 0 80 1a 00
        E 0 90 1a 60
        E 120 80 1a 00
        E 0 90 19 60
        E 120 80 19 00
        E 120 90 1a 60
        E 120 80 1a 00
        E 0 90 1a 60
        E 120 80 1a 00
        E 0 90 18 60
        E 0 90 1a 60
        E 120 80 18 00
        E 0 80 1a 00
        E 120 90 18 60
        E 0 90 1a 60
        E 120 80 18 00
        E 0 80 1a 00
        E 0 90 1a 60
        E 120 80 1a 00
        E 0 90 19 60
        E 120 80 19 00
        E 120 90 1a 60
        E 120 80 1a 00
        E 0 90 1a 60
        E 120 80 1a 00
        E 0 90 18 60
        E 0 90 1a 60
        E 120 80 18 00
        E 0 80 1a 00
        E 120 90 19 60
        E 120 80 19 00
        E 120 90 19 60
        E 120 80 19 00
        E 120 90 19 60
        E 120 80 19 00
        <X 120 0
          /wFbcHJjX2Nob3J1c18zXQ==
        >
        E 0 90 18 60
        E 0 90 1a 60
        E 120 80 18 00
        E 0 80 1a 00
        E 120 90 18 60
        E 0 90 1a 60
        E 120 80 18 00
        E 0 80 1a 00
        E 0 90 1a 60
        E 120 80 1a 00
        E 0 90 19 60
        E 120 80 19 00
        E 120 90 1a 60
        E 120 80 1a 00
        E 0 90 1a 60
        E 120 80 1a 00
        E 0 90 18 60
        E 0 90 1a 60
        E 120 80 18 00
        E 0 80 1a 00
        E 120 90 18 60
        E 0 90 1a 60
        E 120 80 18 00
        E 0 80 1a 00
        E 0 90 1a 60
        E 120 80 1a 00
        E 0 90 19 60
        E 120 80 19 00
        E 120 90 1a 60
        E 120 80 1a 00
        E 0 90 1a 60
        E 120 80 1a 00
        E 0 90 18 60
        E 0 90 1a 60
        E 120 80 18 00
        E 0 80 1a 00
        E 120 90 18 60
        E 0 90 1a 60
        E 120 80 18 00
        E 0 80 1a 00
        E 0 90 1a 60
        E 120 80 1a 00
        E 0 90 19 60
        E 120 80 19 00
        E 120 90 1a 60
        E 120 80 1a 00
        E 0 90 1a 60
        E 120 80 1a 00
        E 0 90 18 60
        E 0 90 1a 60
        E 120 80 18 00
        E 0 80 1a 00
        E 120 90 18 60
        E 0 90 1a 60
        E 120 80 18 00
        E 0 80 1a 00
        E 0 90 1a 60
        E 120 80 1a 00
        E 0 90 19 60
        E 120 80 19 00
        E 120 90 1a 60
        E 120 80 1a 00
        E 0 90 1a 60
        E 120 80 1a 00
        E 0 90 18 60
        E 0 90 1a 60
        E 120 80 18 00
        E 0 80 1a 00
        E 120 90 18 60
        E 0 90 1a 60
        E 120 80 18 00
        E 0 80 1a 00
        E 0 90 1a 60
        E 120 80 1a 00
        E 0 90 19 60
        E 120 80 19 00
        E 120 90 1a 60
        E 120 80 1a 00
        E 0 90 1a 60
        E 120 80 1a 00
        E 0 90 18 60
        E 0 90 1a 60
        E 120 80 18 00
        E 0 80 1a 00
        E 120 90 18 60
        E 0 90 1a 60
        E 120 80 18 00
        E 0 80 1a 00
        E 0 90 1a 60
        E 120 80 1a 00
        E 0 90 19 60
        E 120 80 19 00
        E 120 90 1a 60
        E 120 80 1a 00
        E 0 90 1a 60
        E 120 80 1a 00
        E 0 90 19 60
        E 120 80 19 00
        E 120 90 18 60
        E 120 80 18 00
        E 120 90 19 60
        E 120 80 19 00
        E 120 90 18 60
        E 120 80 18 00
        E 120 90 19 60
        E 120 80 19 00
        E 120 90 19 60
        E 120 80 19 00
        E 120 90 19 60
        E 120 80 19 00
        E 120 90 19 60
        E 120 80 19 00
        <X 120 0
          /wFbcHJjX3ZlcnNlXzNd
        >
        E 0 90 18 60
        E 0 90 1a 60
        E 120 80 18 00
        E 0 80 1a 00
        E 120 90 18 60
        E 0 90 1a 60
        E 120 80 18 00
        E 0 80 1a 00
        E 0 90 1a 60
        E 120 80 1a 00
        E 0 90 19 60
        E 120 80 19 00
        E 120 90 1a 60
        E 120 80 1a 00
        E 0 90 1a 60
        E 120 80 1a 00
        E 0 90 18 60
        E 0 90 1a 60
        E 120 80 18 00
        E 0 80 1a 00
        E 120 90 18 60
        E 0 90 1a 60
        E 120 80 18 00
        E 0 80 1a 00
        E 0 90 1a 60
        E 120 80 1a 00
        E 0 90 19 60
        E 120 80 19 00
        E 120 90 1a 60
        E 120 80 1a 00
        E 0 90 1a 60
        E 120 80 1a 00
        E 0 90 18 60
        E 0 90 1a 60
        E 120 80 18 00
        E 0 80 1a 00
        E 120 90 18 60
        E 0 90 1a 60
        E 120 80 18 00
        E 0 80 1a 00
        E 0 90 1a 60
        E 120 80 1a 00
        E 0 90 19 60
        E 120 80 19 00
        E 120 90 1a 60
        E 120 80 1a 00
        E 0 90 1a 60
        E 120 80 1a 00
        E 0 90 18 60
        E 0 90 1a 60
        E 120 80 18 00
        E 0 80 1a 00
        E 120 90 18 60
        E 0 90 1a 60
        E 120 80 18 00
        E 0 80 1a 00
        E 0 90 1a 60
        E 120 80 1a 00
        E 0 90 19 60
        E 120 80 19 00
        E 120 90 1a 60
        E 120 80 1a 00
        E 0 90 1a 60
        E 120 80 1a 00
        E 0 90 18 60
        E 0 90 1a 60
        E 120 80 18 00
        E 0 80 1a 00
        E 120 90 18 60
        E 0 90 1a 60
        E 120 80 18 00
        E 0 80 1a 00
        E 0 90 1a 60
        E 120 80 1a 00
        E 0 90 19 60
        E 120 80 19 00
        E 120 90 1a 60
        E 120 80 1a 00
        E 0 90 1a 60
        E 120 80 1a 00
        E 0 90 18 60
        E 0 90 1a 60
        E 120 80 18 00
        E 0 80 1a 00
        E 120 90 18 60
        E 0 90 1a 60
        E 120 80 18 00
        E 0 80 1a 00
        E 0 90 1a 60
        E 120 80 1a 00
        E 0 90 19 60
        E 120 80 19 00
        E 120 90 1a 60
        E 120 80 1a 00
        E 0 90 1a 60
        E 120 80 1a 00
        E 0 90 18 60
        E 0 90 1a 60
        E 120 80 18 00
        E 0 80 1a 00
        E 120 90 18 60
        E 0 90 1a 60
        E 120 80 18 00
        E 0 80 1a 00
        E 0 90 1a 60
        E 120 80 1a 00
        E 0 90 19 60
        E 120 80 19 00
        E 120 90 1a 60
        E 120 80 1a 00
        E 0 90 1a 60
        E 120 80 1a 00
        E 0 90 18 60
        E 0 90 1a 60
        E 120 80 18 00
        E 0 80 1a 00
        E 120 90 19 60
        E 120 80 19 00
        E 120 90 19 60
        E 120 80 19 00
        E 120 90 19 60
        E 120 80 19 00
        E 120 90 18 60
        E 0 90 1a 60
        E 120 80 18 00
        E 0 80 1a 00
        E 120 90 18 60
        E 0 90 1a 60
        E 120 80 18 00
        E 0 80 1a 00
        E 0 90 1a 60
        E 120 80 1a 00
        E 0 90 19 60
        E 120 80 19 00
        E 120 90 1a 60
        E 120 80 1a 00
        E 0 90 1a 60
        E 120 80 1a 00
        E 0 90 18 60
        E 0 90 1a 60
        E 120 80 18 00
        E 0 80 1a 00
        E 120 90 18 60
        E 0 90 1a 60
        E 120 80 18 00
        E 0 80 1a 00
        E 0 90 1a 60
        E 120 80 1a 00
        E 0 90 19 60
        E 120 80 19 00
        E 120 90 1a 60
        E 120 80 1a 00
        E 0 90 1a 60
        E 120 80 1a 00
        E 0 90 18 60
        E 0 90 1a 60
        E 120 80 18 00
        E 0 80 1a 00
        E 120 90 18 60
        E 0 90 1a 60
        E 120 80 18 00
        E 0 80 1a 00
        E 0 90 1a 60
        E 120 80 1a 00
        E 0 90 19 60
        E 120 80 19 00
        E 120 90 1a 60
        E 120 80 1a 00
        E 0 90 1a 60
        E 120 80 1a 00
        E 0 90 18 60
        E 0 90 1a 60
        E 120 80 18 00
        E 0 80 1a 00
        E 120 90 18 60
        E 0 90 1a 60
        E 120 80 18 00
        E 0 80 1a 00
        E 0 90 1a 60
        E 120 80 1a 00
        E 0 90 19 60
        E 120 80 19 00
        E 120 90 1a 60
        E 120 80 1a 00
        E 0 90 1a 60
        E 120 80 1a 00
        E 0 90 18 60
        E 0 90 1a 60
        E 120 80 18 00
        E 0 80 1a 00
        E 120 90 18 60
        E 0 90 1a 60
        E 120 80 18 00
        E 0 80 1a 00
        E 0 90 1a 60
        E 120 80 1a 00
        E 0 90 19 60
        E 120 80 19 00
        E 120 90 1a 60
        E 120 80 1a 00
        E 0 90 1a 60
        E 120 80 1a 00
        E 0 90 18 60
        E 0 90 1a 60
        E 120 80 18 00
        E 0 80 1a 00
        E 120 90 18 60
        E 0 90 1a 60
        E 120 80 18 00
        E 0 80 1a 00
        E 0 90 1a 60
        E 120 80 1a 00
        E 0 90 19 60
        E 120 80 19 00
        E 120 90 1a 60
        E 120 80 1a 00
        E 0 90 1a 60
        E 120 80 1a 00
        E 0 90 18 60
        E 0 90 1a 60
        E 120 80 18 00
        E 0 80 1a 00
        E 120 90 18 60
        E 0 90 1a 60
        E 120 80 18 00
        E 0 80 1a 00
        E 0 90 1a 60
        E 120 80 1a 00
        E 0 90 19 60
        E 120 80 19 00
        E 120 90 1a 60
        E 120 80 1a 00
        E 0 90 1a 60
        E 120 80 1a 00
        E 0 90 18 60
        E 0 90 1a 60
        E 120 80 18 00
        E 0 80 1a 00
        E 120 90 19 60
        E 120 80 19 00
        E 120 90 19 60
        E 120 80 19 00
        E 120 90 19 60
        E 120 80 19 00
        E 120 90 18 60
        E 0 90 1a 60
        E 120 80 18 00
        E 0 80 1a 00
        E 120 90 18 60
        E 0 90 1a 60
        E 120 80 18 00
        E 0 80 1a 00
        E 0 90 1a 60
        E 120 80 1a 00
        E 0 90 19 60
        E 120 80 19 00
        E 120 90 1a 60
        E 120 80 1a 00
        E 0 90 1a 60
        E 120 80 1a 00
        E 0 90 18 60
        E 0 90 1a 60
        E 120 80 18 00
        E 0 80 1a 00
        E 120 90 18 60
        E 0 90 1a 60
        E 120 80 18 00
        E 0 80 1a 00
        E 0 90 1a 60
        E 120 80 1a 00
        E 0 90 19 60
        E 120 80 19 00
        E 120 90 1a 60
        E 120 80 1a 00
        E 0 90 1a 60
        E 120 80 1a 00
        E 0 90 18 60
        E 0 90 1a 60
        E 120 80 18 00
        E 0 80 1a 00
        E 120 90 18 60
        E 0 90 1a 60
        E 120 80 18 00
        E 0 80 1a 00
        E 0 90 1a 60
        E 120 80 1a 00
        E 0 90 19 60
        E 120 80 19 00
        E 120 90 1a 60
        E 120 80 1a 00
        E 0 90 1a 60
        E 120 80 1a 00
        E 0 90 18 60
        E 0 90 1a 60
        E 120 80 18 00
        E 0 80 1a 00
        E 120 90 18 60
        E 0 90 1a 60
        E 120 80 18 00
        E 0 80 1a 00
        E 0 90 1a 60
        E 120 80 1a 00
        E 0 90 19 60
        E 120 80 19 00
        E 120 90 1a 60
        E 120 80 1a 00
        E 0 90 1a 60
        E 120 80 1a 00
        E 0 90 18 60
        E 0 90 1a 60
        E 120 80 18 00
        E 0 80 1a 00
        E 120 90 18 60
        E 0 90 1a 60
        E 120 80 18 00
        E 0 80 1a 00
        E 0 90 1a 60
        E 120 80 1a 00
        E 0 90 19 60
        E 120 80 19 00
        E 120 90 1a 60
        E 120 80 1a 00
        E 0 90 1a 60
        E 120 80 1a 00
        E 0 90 18 60
        E 0 90 1a 60
        E 120 80 18 00
        E 0 80 1a 00
        E 120 90 18 60
        E 0 90 1a 60
        E 120 80 18 00
        E 0 80 1a 00
        E 0 90 1a 60
        E 120 80 1a 00
        E 0 90 19 60
        E 120 80 19 00
        E 120 90 1a 60
        E 120 80 1a 00
        E 0 90 1a 60
        E 120 80 1a 00
        E 0 90 18 60
        E 0 90 1a 60
        E 120 80 18 00
        E 0 80 1a 00
        E 120 90 18 60
        E 0 90 1a 60
        E 120 80 18 00
        E 0 80 1a 00
        E 0 90 1a 60
        E 120 80 1a 00
        E 0 90 19 60
        E 120 80 19 00
        E 120 90 1a 60
        E 120 80 1a 00
        E 0 90 1a 60
        E 120 80 1a 00
        E 0 90 18 60
        E 0 90 1a 60
        E 120 80 18 00
        E 0 80 1a 00
        E 120 90 19 60
        E 120 80 19 00
        E 120 90 19 60
        E 120 80 19 00
        E 120 90 19 60
        E 120 80 19 00
        E 120 90 18 60
        E 0 90 1a 60
        E 120 80 18 00
        E 0 80 1a 00
        E 120 90 18 60
        E 0 90 1a 60
        E 120 80 18 00
        E 0 80 1a 00
        E 0 90 1a 60
        E 120 80 1a 00
        E 0 90 19 60
        E 120 80 19 00
        E 120 90 1a 60
        E 120 80 1a 00
        E 0 90 1a 60
        E 120 80 1a 00
        E 0 90 18 60
        E 0 90 1a 60
        E 120 80 18 00
        E 0 80 1a 00
        E 120 90 18 60
        E 0 90 1a 60
        E 120 80 18 00
        E 0 80 1a 00
        E 0 90 1a 60
        E 120 80 1a 00
        E 0 90 19 60
        E 120 80 19 00
        E 120 90 1a 60
        E 120 80 1a 00
        E 0 90 1a 60
        E 120 80 1a 00
        E 0 90 18 60
        E 0 90 1a 60
        E 120 80 18 00
        E 0 80 1a 00
        E 120 90 18 60
        E 0 90 1a 60
        E 120 80 18 00
        E 0 80 1a 00
        E 0 90 1a 60
        E 120 80 1a 00
        E 0 90 19 60
        E 120 80 19 00
        E 120 90 1a 60
        E 120 80 1a 00
        E 0 90 1a 60
        E 120 80 1a 00
        E 0 90 18 60
        E 0 90 1a 60
        E 120 80 18 00
        E 0 80 1a 00
        E 120 90 18 60
        E 0 90 1a 60
        E 120 80 18 00
        E 0 80 1a 00
        E 0 90 1a 60
        E 120 80 1a 00
        E 0 90 19 60
        E 120 80 19 00
        E 120 90 1a 60
        E 120 80 1a 00
        E 0 90 1a 60
        E 120 80 1a 00
        E 0 90 18 60
        E 0 90 1a 60
        E 120 80 18 00
        E 0 80 1a 00
        E 120 90 18 60
        E 0 90 1a 60
        E 120 80 18 00
        E 0 80 1a 00
        E 0 90 1a 60
        E 120 80 1a 00
        E 0 90 19 60
        E 120 80 19 00
        E 120 90 1a 60
        E 120 80 1a 00
        E 0 90 1a 60
        E 120 80 1a 00
        E 0 90 18 60
        E 0 90 1a 60
        E 120 80 18 00
        E 0 80 1a 00
        E 120 90 18 60
        E 0 90 1a 60
        E 120 80 18 00
        E 0 80 1a 00
        E 0 90 1a 60
        E 120 80 1a 00
        E 0 90 19 60
        E 120 80 19 00
        E 120 90 1a 60
        E 120 80 1a 00
        E 0 90 1a 60
        E 120 80 1a 00
        E 0 90 18 60
        E 0 90 1a 60
        E 120 80 18 00
        E 0 80 1a 00
        E 120 90 18 60
        E 0 90 1a 60
        E 120 80 18 00
        E 0 80 1a 00
        E 0 90 1a 60
        E 120 80 1a 00
        E 0 90 19 60
        E 120 80 19 00
        E 120 90 1a 60
        E 120 80 1a 00
        E 0 90 1a 60
        E 120 80 1a 00
        E 0 90 18 60
        E 0 90 1a 60
        E 120 80 18 00
        E 0 80 1a 00
        E 120 90 19 60
        E 120 80 19 00
        E 120 90 19 60
        E 120 80 19 00
        E 120 90 19 60
        E 120 80 19 00
        <X 120 0
          /wFbcHJjX3ByZWNob3J1c18zXQ==
        >
        E 0 90 18 60
        E 0 90 1a 60
        E 120 80 18 00
        E 0 80 1a 00
        E 120 90 18 60
        E 0 90 1a 60
        E 120 80 18 00
        E 0 80 1a 00
        E 0 90 1a 60
        E 120 80 1a 00
        E 0 90 19 60
        E 120 80 19 00
        E 120 90 1a 60
        E 120 80 1a 00
        E 0 90 1a 60
        E 120 80 1a 00
        E 0 90 18 60
        E 0 90 1a 60
        E 120 80 18 00
        E 0 80 1a 00
        E 120 90 18 60
        E 0 90 1a 60
        E 120 80 18 00
        E 0 80 1a 00
        E 0 90 1a 60
        E 120 80 1a 00
        E 0 90 19 60
        E 120 80 19 00
        E 120 90 1a 60
        E 120 80 1a 00
        E 0 90 1a 60
        E 120 80 1a 00
        E 0 90 18 60
        E 0 90 1a 60
        E 120 80 18 00
        E 0 80 1a 00
        E 120 90 18 60
        E 0 90 1a 60
        E 120 80 18 00
        E 0 80 1a 00
        E 0 90 1a 60
        E 120 80 1a 00
        E 0 90 19 60
        E 120 80 19 00
        E 120 90 1a 60
        E 120 80 1a 00
        E 0 90 1a 60
        E 120 80 1a 00
        E 0 90 18 60
        E 0 90 1a 60
        E 120 80 18 00
        E 0 80 1a 00
        E 120 90 18 60
        E 0 90 1a 60
        E 120 80 18 00
        E 0 80 1a 00
        E 0 90 1a 60
        E 120 80 1a 00
        E 0 90 19 60
        E 120 80 19 00
        E 120 90 1a 60
        E 120 80 1a 00
        E 0 90 1a 60
        E 120 80 1a 00
        E 0 90 18 60
        E 0 90 1a 60
        E 120 80 18 00
        E 0 80 1a 00
        E 120 90 18 60
        E 0 90 1a 60
        E 120 80 18 00
        E 0 80 1a 00
        E 0 90 1a 60
        E 120 80 1a 00
        E 0 90 19 60
        E 120 80 19 00
        E 120 90 1a 60
        E 120 80 1a 00
        E 0 90 1a 60
        E 120 80 1a 00
        E 0 90 18 60
        E 0 90 1a 60
        E 120 80 18 00
        E 0 80 1a 00
        E 120 90 18 60
        E 0 90 1a 60
        E 120 80 18 00
        E 0 80 1a 00
        E 0 90 1a 60
        E 120 80 1a 00
        E 0 90 19 60
        E 120 80 19 00
        E 120 90 1a 60
        E 120 80 1a 00
        E 0 90 1a 60
        E 120 80 1a 00
        E 0 90 18 60
        E 0 90 1a 60
        E 120 80 18 00
        E 0 80 1a 00
        E 120 90 18 60
        E 0 90 1a 60
        E 120 80 18 00
        E 0 80 1a 00
        E 0 90 1a 60
        E 120 80 1a 00
        E 0 90 19 60
        E 120 80 19 00
        E 120 90 1a 60
        E 120 80 1a 00
        E 0 90 1a 60
        E 120 80 1a 00
        E 0 90 18 60
        E 0 90 1a 60
        E 120 80 18 00
        E 0 80 1a 00
        E 120 90 19 60
        E 120 80 19 00
        E 120 90 19 60
        E 120 80 19 00
        E 120 90 19 60
        E 120 80 19 00
        <X 120 0
          /wFbcHJjX291dHJvXQ==
        >
        E 0 90 18 60
        E 0 90 1a 60
        E 120 80 18 00
        E 0 80 1a 00
        E 120 90 18 60
        E 0 90 1a 60
        E 120 80 18 00
        E 0 80 1a 00
        E 0 90 1a 60
        E 120 80 1a 00
        E 0 90 19 60
        E 120 80 19 00
        E 120 90 1a 60
        E 120 80 1a 00
        E 0 90 1a 60
        E 120 80 1a 00
        E 0 90 18 60
        E 0 90 1a 60
        E 120 80 18 00
        E 0 80 1a 00
        E 120 90 18 60
        E 0 90 1a 60
        E 120 80 18 00
        E 0 80 1a 00
        E 0 90 1a 60
        E 120 80 1a 00
        E 0 90 19 60
        E 120 80 19 00
        E 120 90 1a 60
        E 120 80 1a 00
        E 0 90 1a 60
        E 120 80 1a 00
        E 0 90 18 60
        E 0 90 1a 60
        E 120 80 18 00
        E 0 80 1a 00
        E 120 90 18 60
        E 0 90 1a 60
        E 120 80 18 00
        E 0 80 1a 00
        E 0 90 1a 60
        E 120 80 1a 00
        E 0 90 19 60
        E 120 80 19 00
        E 120 90 1a 60
        E 120 80 1a 00
        E 0 90 1a 60
        E 120 80 1a 00
        E 0 90 18 60
        E 0 90 1a 60
        E 120 80 18 00
        E 0 80 1a 00
        E 120 90 18 60
        E 0 90 1a 60
        E 120 80 18 00
        E 0 80 1a 00
        E 0 90 1a 60
        E 120 80 1a 00
        E 0 90 19 60
        E 120 80 19 00
        E 120 90 1a 60
        E 120 80 1a 00
        E 0 90 1a 60
        E 120 80 1a 00
        E 0 90 18 60
        E 0 90 1a 60
        E 120 80 18 00
        E 0 80 1a 00
        E 120 90 18 60
        E 0 90 1a 60
        E 120 80 18 00
        E 0 80 1a 00
        E 0 90 1a 60
        E 120 80 1a 00
        E 0 90 19 60
        E 120 80 19 00
        E 120 90 1a 60
        E 120 80 1a 00
        E 0 90 1a 60
        E 120 80 1a 00
        E 0 90 18 60
        E 0 90 1a 60
        E 120 80 18 00
        E 0 80 1a 00
        E 120 90 18 60
        E 0 90 1a 60
        E 120 80 18 00
        E 0 80 1a 00
        E 0 90 1a 60
        E 120 80 1a 00
        E 0 90 19 60
        E 120 80 19 00
        E 120 90 1a 60
        E 120 80 1a 00
        E 0 90 1a 60
        E 120 80 1a 00
        E 0 90 19 60
        E 120 80 19 00
        E 120 90 18 60
        E 120 80 18 00
        E 120 90 19 60
        E 120 80 19 00
        E 120 90 18 60
        E 120 80 18 00
        E 120 90 19 60
        E 120 80 19 00
        E 120 90 19 60
        E 120 80 19 00
        E 120 90 19 60
        E 120 80 19 00
        E 120 90 19 60
        E 120 80 19 00
        E 120 90 18 60
        E 120 80 18 00
        <X 840 0
          /wFbbXVzaWNfZW5kXQ==
        >
        <X 2875 0
          /wFbZW5kXQ==
        >
        E 5 b0 7b 00
        GUID {93CC712E-0399-44D1-B667-AF8A4462E168}
        IGNTEMPO 0 120.00000000 4 4
        SRCCOLOR 19
        VELLANE 132 128 60
        COLORMAP "C:\Program Files\REAPER (x64)\Data\color_maps\rockband_guitarbass.png"
        TEXTSTRINGFILE "C:\Program Files\REAPER (x64)\Data\Text_Strings\Text Events List - Events.txt"
        CFGEDITVIEW 144795.053063 127.412294 0 48 0 0 0
        CFGEDIT 1 1 0 1 1 0 1 1 1 1 1 0.25000000 -8 -8 1544 872 0 2 1 1 0.00000000 0 1 0 0 0.500000 0 0 1.000000 64
        KEYSNAP 0 6 "102030050700" 0 "Pentatonic"
        EVTFILTER 0 -1 -1 -1 -1 0 1 0 0 -1.00000000 -1.00000000
      >
    >
  >
  <TRACK '{8F27F1C1-AC5E-428D-BB4A-116F79A4828E}'
    NAME "BEAT"
    PEAKCOL 16576
    BEAT -1
    AUTOMODE 0
    VOLPAN 1.00000000000000 0.00000000000000 -1.00000000000000 -1.00000000000000 1.00000000000000
    MUTESOLO 0 0 0
    IPHASE 0
    ISBUS 0 0
    BUSCOMP 0 0
    SHOWINMIX 1 0.666700 0.500000 1 0.500000 -1 -1 -1
    FREEMODE 0
    SEL 0
    REC 0 0 0 0 0 0 0
    VU 2
    TRACKHEIGHT 0 0
    INQ 0 0 0 0.5000000000 100 0 0 100
    NCHAN 2
    FX 1
    TRACKID {8F27F1C1-AC5E-428D-BB4A-116F79A4828E}
    PERF 0
    MIDIOUT -1
    <MIDINOTENAMES
      0 13 "Up Beats"
      0 12 "Downbeat"
    >
    MAINSEND 1 0
    <FXCHAIN
      SHOW 0
      LASTSEL 0
      DOCKED 0
    >
    <ITEM
      POSITION 0.00000000000000
      SNAPOFFS 0.00000000000000
      LENGTH 108.01200133348151
      LOOP 0
      ALLTAKES 0
      SEL 0
      FADEIN 1 0.000000 0.000000 1 0
      FADEOUT 1 0.000000 0.000000 1 0
      MUTE 0
      IGUID {F3E55656-F1FF-4EE6-9BB4-6E0213FDEEA6}
      IID 29
      NAME "BEAT"
      VOLPAN 1.000000 0.000000 1.000000 -1.000000
      SOFFS 0.00000000000000 0.00000000000000
      PLAYRATE 1.00000000000000 1 0.00000000000000 -1
      CHANMODE 0
      GUID {762AF598-CA12-4688-869A-D684C80E82B7}
      <SOURCE MIDI
        HASDATA 1 480 QN
        POOLEDEVTS {A6000253-007F-469B-ABA7-D07170BB947E}
        <X 0 0
          /wNCRUFU
        >
        e 0 96 0c 64
        e 120 86 0c 00
        e 360 96 0d 64
        e 120 86 0d 00
        e 360 96 0d 64
        e 120 86 0d 00
        e 360 96 0d 64
        e 120 86 0d 00
        e 360 96 0c 64
        e 120 86 0c 00
        e 360 96 0d 64
        e 120 86 0d 00
        e 360 96 0d 64
        e 120 86 0d 00
        e 360 96 0d 64
        e 120 86 0d 00
        e 360 96 0c 64
        e 120 86 0c 00
        e 360 96 0d 64
        e 120 86 0d 00
        e 360 96 0d 64
        e 120 86 0d 00
        e 360 96 0d 64
        e 120 86 0d 00
        e 360 96 0c 64
        e 120 86 0c 00
        e 360 96 0d 64
        e 120 86 0d 00
        e 360 96 0d 64
        e 120 86 0d 00
        e 360 96 0d 64
        e 120 86 0d 00
        e 360 96 0c 64
        e 120 86 0c 00
        e 360 96 0d 64
        e 120 86 0d 00
        e 360 96 0d 64
        e 120 86 0d 00
        e 360 96 0d 64
        e 120 86 0d 00
        e 360 96 0c 64
        e 120 86 0c 00
        e 360 96 0d 64
        e 120 86 0d 00
        e 360 96 0d 64
        e 120 86 0d 00
        e 360 96 0d 64
        e 120 86 0d 00
        e 360 96 0c 64
        e 120 86 0c 00
        e 360 96 0d 64
        e 120 86 0d 00
        e 360 96 0d 64
        e 120 86 0d 00
        e 360 96 0d 64
        e 120 86 0d 00
        e 360 96 0c 64
        e 120 86 0c 00
        e 360 96 0d 64
        e 120 86 0d 00
        e 360 96 0d 64
        e 120 86 0d 00
        e 360 96 0d 64
        e 120 86 0d 00
        e 360 96 0c 64
        e 120 86 0c 00
        e 360 96 0d 64
        e 120 86 0d 00
        e 360 96 0d 64
        e 120 86 0d 00
        e 360 96 0d 64
        e 120 86 0d 00
        e 360 96 0c 64
        e 120 86 0c 00
        e 360 96 0d 64
        e 120 86 0d 00
        e 360 96 0d 64
        e 120 86 0d 00
        e 360 96 0d 64
        e 120 86 0d 00
        e 360 96 0c 64
        e 120 86 0c 00
        e 360 96 0d 64
        e 120 86 0d 00
        e 360 96 0d 64
        e 120 86 0d 00
        e 360 96 0d 64
        e 120 86 0d 00
        e 360 96 0c 64
        e 120 86 0c 00
        e 360 96 0d 64
        e 120 86 0d 00
        e 360 96 0d 64
        e 120 86 0d 00
        e 360 96 0d 64
        e 120 86 0d 00
        e 360 96 0c 64
        e 120 86 0c 00
        e 360 96 0d 64
        e 120 86 0d 00
        e 360 96 0d 64
        e 120 86 0d 00
        e 360 96 0d 64
        e 120 86 0d 00
        e 360 96 0c 64
        e 120 86 0c 00
        e 360 96 0d 64
        e 120 86 0d 00
        e 360 96 0d 64
        e 120 86 0d 00
        e 360 96 0d 64
        e 120 86 0d 00
        e 360 96 0c 64
        e 120 86 0c 00
        e 360 96 0d 64
        e 120 86 0d 00
        e 360 96 0d 64
        e 120 86 0d 00
        e 360 96 0d 64
        e 120 86 0d 00
        e 360 96 0c 64
        e 120 86 0c 00
        e 360 96 0d 64
        e 120 86 0d 00
        e 360 96 0d 64
        e 120 86 0d 00
        e 360 96 0d 64
        e 120 86 0d 00
        e 360 96 0c 64
        e 120 86 0c 00
        e 360 96 0d 64
        e 120 86 0d 00
        e 360 96 0d 64
        e 120 86 0d 00
        e 360 96 0d 64
        e 120 86 0d 00
        e 360 96 0c 64
        e 120 86 0c 00
        e 360 96 0d 64
        e 120 86 0d 00
        e 360 96 0d 64
        e 120 86 0d 00
        e 360 96 0d 64
        e 120 86 0d 00
        e 360 96 0c 64
        e 120 86 0c 00
        e 360 96 0d 64
        e 120 86 0d 00
        e 360 96 0d 64
        e 120 86 0d 00
        e 360 96 0d 64
        e 120 86 0d 00
        e 360 96 0c 64
        e 120 86 0c 00
        e 360 96 0d 64
        e 120 86 0d 00
        e 360 96 0d 64
        e 120 86 0d 00
        e 360 96 0d 64
        e 120 86 0d 00
        e 360 96 0c 64
        e 120 86 0c 00
        e 360 96 0d 64
        e 120 86 0d 00
        e 360 96 0d 64
        e 120 86 0d 00
        e 360 96 0d 64
        e 120 86 0d 00
        e 360 96 0c 64
        e 120 86 0c 00
        e 360 96 0d 64
        e 120 86 0d 00
        e 360 96 0d 64
        e 120 86 0d 00
        e 360 96 0d 64
        e 120 86 0d 00
        e 360 96 0c 64
        e 120 86 0c 00
        e 360 96 0d 64
        e 120 86 0d 00
        e 360 96 0d 64
        e 120 86 0d 00
        e 360 96 0d 64
        e 120 86 0d 00
        e 360 96 0c 64
        e 120 86 0c 00
        e 360 96 0d 64
        e 120 86 0d 00
        e 360 96 0d 64
        e 120 86 0d 00
        e 360 96 0d 64
        e 120 86 0d 00
        e 360 96 0c 64
        e 120 86 0c 00
        e 360 96 0d 64
        e 120 86 0d 00
        e 360 96 0d 64
        e 120 86 0d 00
        e 360 96 0d 64
        e 120 86 0d 00
        e 360 96 0c 64
        e 120 86 0c 00
        e 360 96 0d 64
        e 120 86 0d 00
        e 360 96 0d 64
        e 120 86 0d 00
        e 360 96 0d 64
        e 120 86 0d 00
        e 360 96 0c 64
        e 120 86 0c 00
        e 360 96 0d 64
        e 120 86 0d 00
        e 360 96 0d 64
        e 120 86 0d 00
        e 360 96 0d 64
        e 120 86 0d 00
        e 360 96 0c 64
        e 120 86 0c 00
        e 360 96 0d 64
        e 120 86 0d 00
        e 360 96 0d 64
        e 120 86 0d 00
        e 360 96 0d 64
        e 120 86 0d 00
        e 360 96 0c 64
        e 120 86 0c 00
        e 360 96 0d 64
        e 120 86 0d 00
        e 360 96 0d 64
        e 120 86 0d 00
        e 360 96 0d 64
        e 120 86 0d 00
        e 360 96 0c 64
        e 120 86 0c 00
        e 360 96 0d 64
        e 120 86 0d 00
        e 360 96 0d 64
        e 120 86 0d 00
        e 360 96 0d 64
        e 120 86 0d 00
        e 360 96 0c 64
        e 120 86 0c 00
        e 360 96 0d 64
        e 120 86 0d 00
        e 360 96 0d 64
        e 120 86 0d 00
        e 360 96 0d 64
        e 120 86 0d 00
        e 360 96 0c 64
        e 120 86 0c 00
        e 360 96 0d 64
        e 120 86 0d 00
        e 360 96 0d 64
        e 120 86 0d 00
        e 360 96 0d 64
        e 120 86 0d 00
        e 360 96 0c 64
        e 120 86 0c 00
        e 360 96 0d 64
        e 120 86 0d 00
        e 360 96 0d 64
        e 120 86 0d 00
        e 360 96 0d 64
        e 120 86 0d 00
        e 360 96 0c 64
        e 120 86 0c 00
        e 360 96 0d 64
        e 120 86 0d 00
        e 360 96 0d 64
        e 120 86 0d 00
        e 360 96 0d 64
        e 120 86 0d 00
        e 360 96 0c 64
        e 120 86 0c 00
        e 360 96 0d 64
        e 120 86 0d 00
        e 360 96 0d 64
        e 120 86 0d 00
        e 360 96 0d 64
        e 120 86 0d 00
        e 360 96 0c 64
        e 120 86 0c 00
        e 360 96 0d 64
        e 120 86 0d 00
        e 360 96 0d 64
        e 120 86 0d 00
        e 360 96 0d 64
        e 120 86 0d 00
        e 360 96 0c 64
        e 120 86 0c 00
        e 360 96 0d 64
        e 120 86 0d 00
        e 360 96 0d 64
        e 120 86 0d 00
        e 360 96 0d 64
        e 120 86 0d 00
        e 360 96 0c 64
        e 120 86 0c 00
        e 360 96 0d 64
        e 120 86 0d 00
        e 360 96 0d 64
        e 120 86 0d 00
        e 360 96 0d 64
        e 120 86 0d 00
        e 360 96 0c 64
        e 120 86 0c 00
        e 360 96 0d 64
        e 120 86 0d 00
        e 360 96 0d 64
        e 120 86 0d 00
        e 360 96 0d 64
        e 120 86 0d 00
        e 360 96 0c 64
        e 120 86 0c 00
        e 360 96 0d 64
        e 120 86 0d 00
        e 360 96 0d 64
        e 120 86 0d 00
        e 360 96 0d 64
        e 120 86 0d 00
        e 360 96 0c 64
        e 120 86 0c 00
        e 360 96 0d 64
        e 120 86 0d 00
        e 360 96 0d 64
        e 120 86 0d 00
        e 360 96 0d 64
        e 120 86 0d 00
        e 360 96 0c 64
        e 120 86 0c 00
        e 360 96 0d 64
        e 120 86 0d 00
        e 360 96 0d 64
        e 120 86 0d 00
        e 360 96 0d 64
        e 120 86 0d 00
        e 360 96 0c 64
        e 120 86 0c 00
        e 360 96 0d 64
        e 120 86 0d 00
        e 360 96 0d 64
        e 120 86 0d 00
        e 360 96 0d 64
        e 120 86 0d 00
        e 360 96 0c 64
        e 120 86 0c 00
        e 360 96 0d 64
        e 120 86 0d 00
        e 360 96 0d 64
        e 120 86 0d 00
        e 360 96 0d 64
        e 120 86 0d 00
        e 360 96 0c 64
        e 120 86 0c 00
        e 360 96 0d 64
        e 120 86 0d 00
        e 360 96 0d 64
        e 120 86 0d 00
        e 360 96 0d 64
        e 120 86 0d 00
        e 360 96 0c 64
        e 120 86 0c 00
        e 360 96 0d 64
        e 120 86 0d 00
        e 360 96 0d 64
        e 120 86 0d 00
        e 360 96 0d 64
        e 120 86 0d 00
        e 360 96 0c 64
        e 120 86 0c 00
        e 360 96 0d 64
        e 120 86 0d 00
        e 360 96 0d 64
        e 120 86 0d 00
        e 360 96 0d 64
        e 120 86 0d 00
        e 360 96 0c 64
        e 120 86 0c 00
        e 360 96 0d 64
        e 120 86 0d 00
        e 360 96 0d 64
        e 120 86 0d 00
        e 360 96 0d 64
        e 120 86 0d 00
        e 360 96 0c 64
        e 120 86 0c 00
        e 360 96 0d 64
        e 120 86 0d 00
        e 360 96 0d 64
        e 120 86 0d 00
        e 360 96 0d 64
        e 120 86 0d 00
        e 360 96 0c 64
        e 120 86 0c 00
        e 360 96 0d 64
        e 120 86 0d 00
        e 360 96 0d 64
        e 120 86 0d 00
        e 360 96 0d 64
        e 120 86 0d 00
        e 360 96 0c 64
        e 120 86 0c 00
        e 360 96 0d 64
        e 120 86 0d 00
        e 360 96 0d 64
        e 120 86 0d 00
        e 360 96 0d 64
        e 120 86 0d 00
        e 360 96 0c 64
        e 120 86 0c 00
        e 360 96 0d 64
        e 120 86 0d 00
        e 360 96 0d 64
        e 120 86 0d 00
        e 360 96 0d 64
        e 120 86 0d 00
        e 360 96 0c 64
        e 120 86 0c 00
        e 360 96 0d 64
        e 120 86 0d 00
        e 360 96 0d 64
        e 120 86 0d 00
        e 360 96 0d 64
        e 120 86 0d 00
        e 360 96 0c 64
        e 120 86 0c 00
        e 360 96 0d 64
        e 120 86 0d 00
        e 360 96 0d 64
        e 120 86 0d 00
        e 360 96 0d 64
        e 120 86 0d 00
        e 360 96 0c 64
        e 120 86 0c 00
        e 360 96 0d 64
        e 120 86 0d 00
        e 360 96 0d 64
        e 120 86 0d 00
        e 360 96 0d 64
        e 120 86 0d 00
        e 360 96 0c 64
        e 120 86 0c 00
        e 360 96 0d 64
        e 120 86 0d 00
        e 360 96 0d 64
        e 120 86 0d 00
        e 360 96 0d 64
        e 120 86 0d 00
        e 360 96 0c 64
        e 120 86 0c 00
        e 360 96 0d 64
        e 120 86 0d 00
        e 360 96 0d 64
        e 120 86 0d 00
        e 360 96 0d 64
        e 120 86 0d 00
        e 360 96 0c 64
        e 120 86 0c 00
        e 360 96 0d 64
        e 120 86 0d 00
        e 360 96 0d 64
        e 120 86 0d 00
        e 360 96 0d 64
        e 120 86 0d 00
        e 360 96 0c 64
        e 120 86 0c 00
        e 360 96 0d 64
        e 120 86 0d 00
        e 360 96 0d 64
        e 120 86 0d 00
        e 360 96 0d 64
        e 120 86 0d 00
        e 360 96 0c 64
        e 120 86 0c 00
        e 360 96 0d 64
        e 120 86 0d 00
        e 360 96 0d 64
        e 120 86 0d 00
        e 360 96 0d 64
        e 120 86 0d 00
        e 360 96 0c 64
        e 120 86 0c 00
        e 360 96 0d 64
        e 120 86 0d 00
        e 360 96 0d 64
        e 120 86 0d 00
        e 360 96 0d 64
        e 120 86 0d 00
        e 360 96 0c 64
        e 120 86 0c 00
        e 360 96 0d 64
        e 120 86 0d 00
        e 360 96 0d 64
        e 120 86 0d 00
        e 360 96 0d 64
        e 120 86 0d 00
        e 360 96 0c 64
        e 120 86 0c 00
        e 360 96 0d 64
        e 120 86 0d 00
        e 360 96 0d 64
        e 120 86 0d 00
        e 360 96 0d 64
        e 120 86 0d 00
        e 360 96 0c 64
        e 120 86 0c 00
        e 360 96 0d 64
        e 120 86 0d 00
        e 360 96 0d 64
        e 120 86 0d 00
        e 360 96 0d 64
        e 120 86 0d 00
        e 360 96 0c 64
        e 120 86 0c 00
        e 360 96 0d 64
        e 120 86 0d 00
        e 360 96 0d 64
        e 120 86 0d 00
        e 360 96 0d 64
        e 120 86 0d 00
        e 360 96 0c 64
        e 120 86 0c 00
        e 360 96 0d 64
        e 120 86 0d 00
        e 360 96 0d 64
        e 120 86 0d 00
        e 360 96 0d 64
        e 120 86 0d 00
        e 360 96 0c 64
        e 120 86 0c 00
        e 360 96 0d 64
        e 120 86 0d 00
        e 360 96 0d 64
        e 120 86 0d 00
        e 360 96 0d 64
        e 120 86 0d 00
        e 360 96 0c 64
        e 120 86 0c 00
        e 360 96 0d 64
        e 120 86 0d 00
        e 360 96 0d 64
        e 120 86 0d 00
        e 360 96 0d 64
        e 120 86 0d 00
        e 360 96 0c 64
        e 120 86 0c 00
        e 360 96 0d 64
        e 120 86 0d 00
        e 360 96 0d 64
        e 120 86 0d 00
        e 360 96 0d 64
        e 120 86 0d 00
        e 360 96 0c 64
        e 120 86 0c 00
        e 360 96 0d 64
        e 120 86 0d 00
        e 360 96 0d 64
        e 120 86 0d 00
        e 360 96 0d 64
        e 120 86 0d 00
        e 360 96 0c 64
        e 120 86 0c 00
        e 360 96 0d 64
        e 120 86 0d 00
        e 360 96 0d 64
        e 120 86 0d 00
        e 360 96 0d 64
        e 120 86 0d 00
        e 360 96 0c 64
        e 120 86 0c 00
        e 360 96 0d 64
        e 120 86 0d 00
        e 360 96 0d 64
        e 120 86 0d 00
        e 360 96 0d 64
        e 120 86 0d 00
        e 360 96 0c 64
        e 120 86 0c 00
        e 360 96 0d 64
        e 120 86 0d 00
        e 360 96 0d 64
        e 120 86 0d 00
        e 360 96 0d 64
        e 120 86 0d 00
        e 360 96 0c 64
        e 120 86 0c 00
        e 360 96 0d 64
        e 120 86 0d 00
        e 360 96 0d 64
        e 120 86 0d 00
        e 360 96 0d 64
        e 120 86 0d 00
        e 360 96 0c 64
        e 120 86 0c 00
        e 360 96 0d 64
        e 120 86 0d 00
        e 360 96 0d 64
        e 120 86 0d 00
        e 360 96 0d 64
        e 120 86 0d 00
        e 360 96 0c 64
        e 120 86 0c 00
        e 360 96 0d 64
        e 120 86 0d 00
        e 360 96 0d 64
        e 120 86 0d 00
        e 360 96 0d 64
        e 120 86 0d 00
        e 360 96 0c 64
        e 120 86 0c 00
        e 360 96 0d 64
        e 120 86 0d 00
        e 360 96 0d 64
        e 120 86 0d 00
        e 360 96 0d 64
        e 120 86 0d 00
        e 360 96 0c 64
        e 120 86 0c 00
        e 360 96 0d 64
        e 120 86 0d 00
        e 360 96 0d 64
        e 120 86 0d 00
        e 360 96 0d 64
        e 120 86 0d 00
        e 360 96 0c 64
        e 120 86 0c 00
        e 360 96 0d 64
        e 120 86 0d 00
        e 360 96 0d 64
        e 120 86 0d 00
        e 360 96 0d 64
        e 120 86 0d 00
        e 360 96 0c 64
        e 120 86 0c 00
        e 360 96 0d 64
        e 120 86 0d 00
        e 360 96 0d 64
        e 120 86 0d 00
        e 360 96 0d 64
        e 120 86 0d 00
        e 360 96 0c 64
        e 120 86 0c 00
        e 360 96 0d 64
        e 120 86 0d 00
        e 360 96 0d 64
        e 120 86 0d 00
        e 360 96 0d 64
        e 120 86 0d 00
        E 360 b0 7b 00
        GUID {68E0FE82-82ED-42BA-91E7-9E7D905F6AB0}
        IGNTEMPO 0 120.00000000 4 4
        SRCCOLOR 20
        VELLANE 132 128 60
        COLORMAP "C:\Program Files\REAPER (x64)\Data\color_maps\rockband_guitarbass.png"
        CFGEDITVIEW -10109.492431 10.396993 0 48 0 0 0
        CFGEDIT 1 1 0 1 1 0 1 1 1 1 1 0.25000000 -8 -8 1544 872 0 2 1 1 0.00000000 0 1 0 0 0.500000 0 0 1.000000 64
        KEYSNAP 0 6 "102030050700" 0 "Pentatonic"
        EVTFILTER 0 -1 -1 -1 -1 0 1 0 0 -1.00000000 -1.00000000
      >
    >
  >
  <TRACK '{54A170E7-5D65-4366-9AB0-147C06C5791E}'
    NAME "backing"
    PEAKCOL 16576
    BEAT -1
    AUTOMODE 0
    VOLPAN 1.00000000000000 0.00000000000000 -1.00000000000000 -1.00000000000000 1.00000000000000
    MUTESOLO 0 0 0
    IPHASE 0
    ISBUS 0 0
    BUSCOMP 0 0
    SHOWINMIX 1 0.666700 0.500000 1 0.500000 -1 -1 -1
    FREEMODE 0
    SEL 0
    REC 0 0 0 0 0 0 0
    VU 2
    TRACKHEIGHT 0 0
    INQ 0 0 0 0.5000000000 100 0 0 100
    NCHAN 2
    FX 1
    TRACKID {54A170E7-5D65-4366-9AB0-147C06C5791E}
    PERF 0
    MIDIOUT -1
    MAINSEND 1 0
    <ITEM
      POSITION 0.00000000000000
      SNAPOFFS 0.00000000000000
      LENGTH 108.01200133348151
      LOOP 0
      ALLTAKES 0
      SEL 0
      FADEIN 1 0.000000 0.000000 1 0
      FADEOUT 1 0.000000 0.000000 1 0
      MUTE 0
      IGUID {F344FDA0-9F0A-4FC6-9F9B-6BF4EA279643}
      IID 24
      NAME "backing.wav"
      VOLPAN 1.000000 0.000000 1.000000 -1.000000
      SOFFS 0.00000000000000
      PLAYRATE 1.00000000000000 1 0.00000000000000 -1
      CHANMODE 0
      GUID {C4122D95-9690-4C91-A9AC-FAFF6CFFCACC}
      <SOURCE WAVE
        FILE "wav\backing.wav"
      >
    >
  >
  <EXTENSIONS
  >
>
