<REAPER_PROJECT 0.1 "4.22/x64"
  RIPPLE 0
  GROUPOVERRIDE 0 0 0
  AUTOXFADE 1
  ENVATTACH 1
  MIXERUIFLAGS 11 48
  PEAKGAIN 1.00000000000000
  FEEDBACK 0
  PANLAW 1.00000000000000
  PROJOFFS 0.00000000000000 0
  MAXPROJLEN 0 600.00000000000000
  GRID 3199 8 1.00000000000000 8 1.00000000000000 0
  TIMEMODE 1 0 -1
  PANMODE 3
  CURSOR 0.00000000000000
  ZOOM 12.95554826730109 0 0
  VZOOMEX 6
  USE_REC_CFG 0
  RECMODE 1
  SMPTESYNC 0 23.976024 100 40 1000 300 0 0.000000 1
  LOOP 1
  LOOPGRAN 0 4.00000000000000
  RECORD_PATH "" ""
  <RECORD_CFG
    ZXZhdxAD
  >
  <APPLYFX_CFG
  >
  RENDER_FILE ""
  RENDER_PATTERN ""
  RENDER_FMT 0 2 0
  RENDER_1X 0
  RENDER_RANGE 1 0.00000000000000 0.00000000000000
  RENDER_RESAMPLE 3 0 1
  RENDER_ADDTOPROJ 0
  RENDER_STEMS 0
  RENDER_DITHER 0
  TIMELOCKMODE 0
  ITEMMIX 0
  DEFPITCHMODE 393216
  TAKELANE 1
  SAMPLERATE 44100 0 0
  <RENDER_CFG
  >
  LOCK 1
  <METRONOME 6 2.000000
    VOL 0.250000 0.125000
    FREQ 800 1600 1
    BEATLEN 4
    SAMPLES "" ""
  >
  GLOBAL_AUTO -1
  TEMPO 120.00000000000000 4 4
  PLAYRATE 1.00000000000000 0 0.25000 4.00000
  SELECTION 96.00000000000000 0.00000000000000
  SELECTION2 96.00000000000000 0.00000000000000
  MASTERAUTOMODE 0
  MASTERTRACKHEIGHT 0
  MASTERPEAKCOL 16576
  MASTERMUTESOLO 0
  MASTERTRACKVIEW 0 0.666700 0.500000 0.500000 -1 -1 -1
  MASTERHWOUT 0 0 1.00000000000000 0.00000000000000 0 0 0 -1.00000000000000
  MASTER_NCH 2 2
  MASTER_VOLUME 0.01997929956493 0.00000000000000 -1.00000000000000 -1.00000000000000 1.00000000000000
  MASTER_PANMODE -1
  MASTER_FX 1
  MASTER_SEL 0
  <MASTERPLAYSPEEDENV
    ACT 0
    VIS 0 1 1.000000
    LANEHEIGHT 0 0
    ARM 0
    DEFSHAPE 0 -1 -1
  >
  <TEMPOENVEX
    ACT 1
    VIS 1 0 1.000000
    LANEHEIGHT 0 0
    ARM 0
    DEFSHAPE 1 -1 -1
    PT 0.000000000000 150.0000000000 1
  >
  <PROJBAY
  >
  <TRACK '{A285C96E-77BD-4475-B159-8302BE96EE47}'
    NAME "PART DRUMS"
    PEAKCOL 16576
    BEAT -1
    AUTOMODE 0
    VOLPAN 1.00000000000000 0.00000000000000 -1.00000000000000 -1.00000000000000 1.00000000000000
    MUTESOLO 0 0 0
    IPHASE 0
    ISBUS 1 1
    BUSCOMP 0 0
    SHOWINMIX 1 0.666700 0.500000 1 0.500000 -1 -1 -1
    FREEMODE 0
    SEL 0
    REC 0 0 0 0 0 0 0
    VU 2
    TRACKHEIGHT 0 0
    INQ 0 0 0 0.5000000000 100 0 0 100
    NCHAN 2
    FX 1
    TRACKID {A285C96E-77BD-4475-B159-8302BE96EE47}
    PERF 0
    MIDIOUT -1
    <MIDINOTENAMES
      0 127 "CYMBAL SWELLS"
      0 126 "DRUM ROLL"
      0 125 "---"
      0 124 "DRUM FILL"
      0 123 "DRUM FILL"
      0 122 "DRUM FILL"
      0 121 "DRUM FILL"
      0 120 "DRUM FILL (use all 5)"
      0 118 "----"
      0 116 "OVERDRIVE"
      0 114 "----"
      0 112 "TOM GEMS PAD 4"
      0 111 "TOM GEMS PAD 3"
      0 110 "TOM GEMS PAD 2"
      0 103 "Solo Marker"
      0 102 "----"
      0 100 "EXPERT Green"
      0 99 "EXPERT Blue"
      0 98 "EXPERT Yellow"
      0 97 "EXPERT Red"
      0 96 "EXPERT Kick"
      0 92 "----"
      0 88 "HARD Green"
      0 87 "HARD Blue"
      0 86 "HARD Yellow"
      0 85 "HARD Red"
      0 84 "HARD Kick"
      0 80 "----"
      0 76 "MEDIUM Green"
      0 75 "MEDIUM Blue"
      0 74 "MEDIUM Yellow"
      0 73 "MEDIUM Red"
      0 72 "MEDIUM Kick"
      0 68 "----"
      0 64 "EASY Green"
      0 63 "EASY Blue"
      0 62 "EASY Yellow"
      0 61 "EASY Red"
      0 60 "EASY Kick"
      0 56 "----"
      0 52 "-- DRUM ANIMATION --"
      0 51 "FLOOR TOM RH"
      0 50 "FLOOR TOM LH"
      0 49 "TOM2 RH"
      0 48 "TOM2 LH"
      0 47 "TOM1 RH"
      0 46 "TOM1 LH"
      0 45 "SOFT CRASH 2 LH"
      0 44 "CRASH 2 LH"
      0 43 "RIDE LH"
      0 42 "RIDE CYM RH"
      0 41 "CRASH2 CHOKE"
      0 40 "CRASH1 CHOKE"
      0 39 "CRASH2 SOFT RH"
      0 38 "CRASH2 HARD RH"
      0 37 "CRASH1 SOFT RH"
      0 36 "CRASH1 HARD RH"
      0 35 "CRASH1 SOFT LH"
      0 34 "CRASH1 HARD LH"
      0 32 "PERCUSSION RH"
      0 31 "HI-HAT RH"
      0 30 "HI-HAT LH"
      0 29 "SOFT SNARE RH"
      0 28 "SOFT SNARE LH"
      0 27 "SNARE RH"
      0 26 "SNARE LH"
      0 25 "HI-HAT OPEN"
      0 24 "KICK RF"
    >
    MAINSEND 1 0
    <FXCHAIN
      WNDRECT 0 43 891 559
      SHOW 0
      LASTSEL 0
      DOCKED 0
      BYPASS 0 0
      <VST "VSTi: RBN Preview (RBN)" "rbprev_vst64.dll" 0 ""
        dnBicu5e7f4AAAAAAgAAAAEAAAAAAAAAAgAAAAAAAAAEAAAAAQAAAA==
        AAAQAAMBqgAAABAAAAA=
      >
      FLOATPOS 0 0 0 0
      FXID {5F50FBF8-DCD4-49AC-A3E2-FA2FAF80AAA6}
      WAK 0
    >
    <ITEM
      POSITION 0.00000000000000
      SNAPOFFS 0.00000000000000
      LENGTH 96.00000000000000
      LOOP 0
      ALLTAKES 0
      SEL 0
      FADEIN 1 0.000000 0.000000 1 0
      FADEOUT 1 0.000000 0.000000 1 0
      MUTE 0
      IGUID {7E67BF4A-ED50-4314-832A-63D5D294EC5E}
      IID 1
      NAME "PART DRUMS"
      VOLPAN 1.000000 0.000000 1.000000 -1.000000
      SOFFS 0.00000000000000 0.00000000000000
      PLAYRATE 1.00000000000000 1 0.00000000000000 -1
      CHANMODE 0
      GUID {18C910B9-9119-48BC-AAE8-625E18B8667A}
      <SOURCE MIDI
        HASDATA 1 480 QN
        POOLEDEVTS {3BFB45DA-AA08-4B5E-9B3E-11EDC3018A5A}
        <X 0 0
          /wNQQVJUIERSVU1T
        >
        <X 240 0
          /wFbbWl4IDEgZHJ1bXMwXQ==
        >
        <X 0 0
          /wFbbWl4IDAgZHJ1bXMwXQ==
        >
        <X 120 0
          /wFbbWl4IDIgZHJ1bXMwXQ==
        >
        <X 120 0
          /wFbbWl4IDMgZHJ1bXMwXQ==
        >
        <X 3360 0
          /wFbcGxheV0=
        >
        E 0 90 1a 60
        E 0 90 3d 60
        E 0 90 49 60
        E 0 90 55 60
        E 0 90 61 60
        E 0 90 74 60
        E 120 80 1a 00
        E 0 80 3d 00
        E 0 80 49 00
        E 0 80 55 00
        E 0 80 61 00
        E 840 90 1a 60
        E 0 90 3d 60
        E 0 90 49 60
        E 0 90 55 60
        E 0 90 61 60
        E 120 80 1a 00
        E 0 80 3d 00
        E 0 80 49 00
        E 0 80 55 00
        E 0 80 61 00
        E 840 90 1a 60
        E 0 90 3d 60
        E 0 90 49 60
        E 0 90 55 60
        E 0 90 61 60
        E 120 80 1a 00
        E 0 80 3d 00
        E 0 80 49 00
        E 0 80 55 00
        E 0 80 61 00
        E 840 90 1a 60
        E 0 90 3d 60
        E 0 90 49 60
        E 0 90 55 60
        E 0 90 61 60
        E 120 80 1a 00
        E 0 80 3d 00
        E 0 80 49 00
        E 0 80 55 00
        E 0 80 61 00
        E 840 80 74 00
        E 0 90 1f 60
        E 0 90 3e 60
        E 0 90 4a 60
        E 0 90 56 60
        E 0 90 62 60
        E 120 80 1f 00
        E 0 80 3e 00
        E 0 80 4a 00
        E 0 80 56 00
        E 0 80 62 00
        E 120 90 1a 60
        E 0 90 55 60
        E 0 90 61 60
        E 120 80 1a 00
        E 0 80 55 00
        E 0 80 61 00
        E 120 90 1f 60
        E 0 90 4a 60
        E 0 90 56 60
        E 0 90 62 60
        E 120 80 1f 00
        E 0 80 4a 00
        E 0 80 56 00
        E 0 80 62 00
        E 120 90 1a 60
        E 0 90 55 60
        E 0 90 61 60
        E 120 80 1a 00
        E 0 80 55 00
        E 0 80 61 00
        E 120 90 1f 60
        E 0 90 3e 60
        E 0 90 4a 60
        E 0 90 56 60
        E 0 90 62 60
        E 120 80 1f 00
        E 0 80 3e 00
        E 0 80 4a 00
        E 0 80 56 00
        E 0 80 62 00
        E 120 90 1a 60
        E 0 90 55 60
        E 0 90 61 60
        E 120 80 1a 00
        E 0 80 55 00
        E 0 80 61 00
        E 120 90 1f 60
        E 0 90 4a 60
        E 0 90 56 60
        E 0 90 62 60
        E 120 80 1f 00
        E 0 80 4a 00
        E 0 80 56 00
        E 0 80 62 00
        E 120 90 1a 60
        E 0 90 55 60
        E 0 90 61 60
        E 120 80 1a 00
        E 0 80 55 00
        E 0 80 61 00
        E 120 90 1f 60
        E 0 90 3e 60
        E 0 90 4a 60
        E 0 90 56 60
        E 0 90 62 60
        E 120 80 1f 00
        E 0 80 3e 00
        E 0 80 4a 00
        E 0 80 56 00
        E 0 80 62 00
        E 120 90 1a 60
        E 0 90 55 60
        E 0 90 61 60
        E 120 80 1a 00
        E 0 80 55 00
        E 0 80 61 00
        E 120 90 1f 60
        E 0 90 4a 60
        E 0 90 56 60
        E 0 90 62 60
        E 120 80 1f 00
        E 0 80 4a 00
        E 0 80 56 00
        E 0 80 62 00
        E 120 90 1a 60
        E 0 90 55 60
        E 0 90 61 60
        E 120 80 1a 00
        E 0 80 55 00
        E 0 80 61 00
        E 120 90 1f 60
        E 0 90 3e 60
        E 0 90 4a 60
        E 0 90 56 60
        E 0 90 62 60
        E 120 80 1f 00
        E 0 80 3e 00
        E 0 80 4a 00
        E 0 80 56 00
        E 0 80 62 00
        E 120 90 1a 60
        E 0 90 55 60
        E 0 90 61 60
        E 120 80 1a 00
        E 0 80 55 00
        E 0 80 61 00
        E 120 90 1f 60
        E 0 90 4a 60
        E 0 90 56 60
        E 0 90 62 60
        E 120 80 1f 00
        E 0 80 4a 00
        E 0 80 56 00
        E 0 80 62 00
        E 120 90 1a 60
        E 0 90 55 60
        E 0 90 61 60
        E 120 80 1a 00
        E 0 80 55 00
        E 0 80 61 00
        E 120 90 1f 60
        E 0 90 3e 60
        E 0 90 4a 60
        E 0 90 56 60
        E 0 90 62 60
        E 120 80 1f 00
        E 0 80 3e 00
        E 0 80 4a 00
        E 0 80 56 00
        E 0 80 62 00
        E 120 90 1a 60
        E 0 90 55 60
        E 0 90 61 60
        E 120 80 1a 00
        E 0 80 55 00
        E 0 80 61 00
        E 120 90 1f 60
        E 0 90 4a 60
        E 0 90 56 60
        E 0 90 62 60
        E 120 80 1f 00
        E 0 80 4a 00
        E 0 80 56 00
        E 0 80 62 00
        E 120 90 1a 60
        E 0 90 55 60
        E 0 90 61 60
        E 120 80 1a 00
        E 0 80 55 00
        E 0 80 61 00
        E 120 90 1f 60
        E 0 90 3e 60
        E 0 90 4a 60
        E 0 90 56 60
        E 0 90 62 60
        E 120 80 1f 00
        E 0 80 3e 00
        E 0 80 4a 00
        E 0 80 56 00
        E 0 80 62 00
        E 120 90 1a 60
        E 0 90 55 60
        E 0 90 61 60
        E 120 80 1a 00
        E 0 80 55 00
        E 0 80 61 00
        E 120 90 1f 60
        E 0 90 4a 60
        E 0 90 56 60
        E 0 90 62 60
        E 120 80 1f 00
        E 0 80 4a 00
        E 0 80 56 00
        E 0 80 62 00
        E 120 90 1a 60
        E 0 90 55 60
        E 0 90 61 60
        E 120 80 1a 00
        E 0 80 55 00
        E 0 80 61 00
        E 120 90 1f 60
        E 0 90 3e 60
        E 0 90 4a 60
        E 0 90 56 60
        E 0 90 62 60
        E 0 90 78 60
        E 0 90 79 60
        E 0 90 7a 60
        E 0 90 7b 60
        E 0 90 7c 60
        E 120 80 1f 00
        E 0 80 3e 00
        E 0 80 4a 00
        E 0 80 56 00
        E 0 80 62 00
        E 120 90 1a 60
        E 0 90 55 60
        E 0 90 61 60
        E 120 80 1a 00
        E 0 80 55 00
        E 0 80 61 00
        E 120 90 1f 60
        E 0 90 4a 60
        E 0 90 56 60
        E 0 90 62 60
        E 120 80 1f 00
        E 0 80 4a 00
        E 0 80 56 00
        E 0 80 62 00
        E 120 90 1a 60
        E 0 90 55 60
        E 0 90 61 60
        E 120 80 1a 00
        E 0 80 55 00
        E 0 80 61 00
        E 120 90 1b 60
        E 0 90 3d 60
        E 0 90 49 60
        E 0 90 55 60
        E 0 90 61 60
        E 80 80 1b 00
        E 0 80 3d 00
        E 0 80 49 00
        E 0 80 55 00
        E 0 80 61 00
        E 0 90 1a 60
        E 0 90 61 60
        E 80 80 1a 00
        E 0 80 61 00
        E 0 90 1b 60
        E 0 90 61 60
        E 80 80 1b 00
        E 0 80 61 00
        E 0 90 1a 60
        E 0 90 55 60
        E 0 90 61 60
        E 80 80 1a 00
        E 0 80 55 00
        E 0 80 61 00
        E 80 90 1b 60
        E 0 90 61 60
        E 80 80 1b 00
        E 0 80 61 00
        E 0 90 1a 60
        E 0 90 49 60
        E 0 90 55 60
        E 0 90 61 60
        E 80 80 1a 00
        E 0 80 49 00
        E 0 80 55 00
        E 0 80 61 00
        E 80 90 1b 60
        E 0 90 61 60
        E 80 80 1b 00
        E 0 80 61 00
        E 0 90 1a 60
        E 0 90 55 60
        E 0 90 61 60
        E 80 80 1a 00
        E 0 80 55 00
        E 0 80 61 00
        E 80 90 1a 60
        E 0 90 61 60
        E 80 80 78 00
        E 0 80 79 00
        E 0 80 7a 00
        E 0 80 7b 00
        E 0 80 7c 00
        E 0 80 1a 00
        E 0 80 61 00
        E 0 90 1f 60
        E 0 90 3e 60
        E 0 90 4a 60
        E 0 90 56 60
        E 0 90 62 60
        E 120 80 1f 00
        E 0 80 3e 00
        E 0 80 4a 00
        E 0 80 56 00
        E 0 80 62 00
        E 120 90 1a 60
        E 0 90 55 60
        E 0 90 61 60
        E 120 80 1a 00
        E 0 80 55 00
        E 0 80 61 00
        E 120 90 1f 60
        E 0 90 4a 60
        E 0 90 56 60
        E 0 90 62 60
        E 120 80 1f 00
        E 0 80 4a 00
        E 0 80 56 00
        E 0 80 62 00
        E 120 90 1a 60
        E 0 90 55 60
        E 0 90 61 60
        E 120 80 1a 00
        E 0 80 55 00
        E 0 80 61 00
        E 120 90 1f 60
        E 0 90 3e 60
        E 0 90 4a 60
        E 0 90 56 60
        E 0 90 62 60
        E 120 80 1f 00
        E 0 80 3e 00
        E 0 80 4a 00
        E 0 80 56 00
        E 0 80 62 00
        E 120 90 1a 60
        E 0 90 55 60
        E 0 90 61 60
        E 120 80 1a 00
        E 0 80 55 00
        E 0 80 61 00
        E 120 90 1f 60
        E 0 90 4a 60
        E 0 90 56 60
        E 0 90 62 60
        E 120 80 1f 00
        E 0 80 4a 00
        E 0 80 56 00
        E 0 80 62 00
        E 120 90 1a 60
        E 0 90 55 60
        E 0 90 61 60
        E 120 80 1a 00
        E 0 80 55 00
        E 0 80 61 00
        E 120 90 1f 60
        E 0 90 3e 60
        E 0 90 4a 60
        E 0 90 56 60
        E 0 90 62 60
        E 120 80 1f 00
        E 0 80 3e 00
        E 0 80 4a 00
        E 0 80 56 00
        E 0 80 62 00
        E 120 90 1a 60
        E 0 90 55 60
        E 0 90 61 60
        E 120 80 1a 00
        E 0 80 55 00
        E 0 80 61 00
        E 120 90 1f 60
        E 0 90 4a 60
        E 0 90 56 60
        E 0 90 62 60
        E 120 80 1f 00
        E 0 80 4a 00
        E 0 80 56 00
        E 0 80 62 00
        E 120 90 1a 60
        E 0 90 55 60
        E 0 90 61 60
        E 120 80 1a 00
        E 0 80 55 00
        E 0 80 61 00
        E 120 90 1f 60
        E 0 90 3e 60
        E 0 90 4a 60
        E 0 90 56 60
        E 0 90 62 60
        E 120 80 1f 00
        E 0 80 3e 00
        E 0 80 4a 00
        E 0 80 56 00
        E 0 80 62 00
        E 120 90 1a 60
        E 0 90 55 60
        E 0 90 61 60
        E 120 80 1a 00
        E 0 80 55 00
        E 0 80 61 00
        E 120 90 1f 60
        E 0 90 4a 60
        E 0 90 56 60
        E 0 90 62 60
        E 120 80 1f 00
        E 0 80 4a 00
        E 0 80 56 00
        E 0 80 62 00
        E 120 90 1a 60
        E 0 90 55 60
        E 0 90 61 60
        E 120 80 1a 00
        E 0 80 55 00
        E 0 80 61 00
        E 120 90 1f 60
        E 0 90 3e 60
        E 0 90 4a 60
        E 0 90 56 60
        E 0 90 62 60
        E 120 80 1f 00
        E 0 80 3e 00
        E 0 80 4a 00
        E 0 80 56 00
        E 0 80 62 00
        E 120 90 1a 60
        E 0 90 55 60
        E 0 90 61 60
        E 120 80 1a 00
        E 0 80 55 00
        E 0 80 61 00
        E 120 90 1f 60
        E 0 90 4a 60
        E 0 90 56 60
        E 0 90 62 60
        E 120 80 1f 00
        E 0 80 4a 00
        E 0 80 56 00
        E 0 80 62 00
        E 120 90 1a 60
        E 0 90 55 60
        E 0 90 61 60
        E 120 80 1a 00
        E 0 80 55 00
        E 0 80 61 00
        E 120 90 1f 60
        E 0 90 3e 60
        E 0 90 4a 60
        E 0 90 56 60
        E 0 90 62 60
        E 120 80 1f 00
        E 0 80 3e 00
        E 0 80 4a 00
        E 0 80 56 00
        E 0 80 62 00
        E 120 90 1a 60
        E 0 90 55 60
        E 0 90 61 60
        E 120 80 1a 00
        E 0 80 55 00
        E 0 80 61 00
        E 120 90 1f 60
        E 0 90 4a 60
        E 0 90 56 60
        E 0 90 62 60
        E 120 80 1f 00
        E 0 80 4a 00
        E 0 80 56 00
        E 0 80 62 00
        E 120 90 1a 60
        E 0 90 55 60
        E 0 90 61 60
        E 120 80 1a 00
        E 0 80 55 00
        E 0 80 61 00
        E 120 90 1f 60
        E 0 90 3e 60
        E 0 90 4a 60
        E 0 90 56 60
        E 0 90 62 60
        E 120 80 1f 00
        E 0 80 3e 00
        E 0 80 4a 00
        E 0 80 56 00
        E 0 80 62 00
        E 120 90 1a 60
        E 0 90 55 60
        E 0 90 61 60
        E 120 80 1a 00
        E 0 80 55 00
        E 0 80 61 00
        E 120 90 1f 60
        E 0 90 4a 60
        E 0 90 56 60
        E 0 90 62 60
        E 120 80 1f 00
        E 0 80 4a 00
        E 0 80 56 00
        E 0 80 62 00
        E 120 90 1a 60
        E 0 90 55 60
        E 0 90 61 60
        E 120 80 1a 00
        E 0 80 55 00
        E 0 80 61 00
        E 120 90 1b 60
        E 0 90 3d 60
        E 0 90 49 60
        E 0 90 55 60
        E 0 90 61 60
        E 0 90 74 60
        E 80 80 1b 00
        E 0 80 3d 00
        E 0 80 49 00
        E 0 80 55 00
        E 0 80 61 00
        E 0 90 1a 60
        E 0 90 61 60
        E 80 80 1a 00
        E 0 80 61 00
        E 0 90 1b 60
        E 0 90 61 60
        E 80 80 1b 00
        E 0 80 61 00
        E 0 90 1a 60
        E 0 90 55 60
        E 0 90 61 60
        E 80 80 1a 00
        E 0 80 55 00
        E 0 80 61 00
        E 80 90 1b 60
        E 0 90 61 60
        E 80 80 1b 00
        E 0 80 61 00
        E 0 90 1a 60
        E 0 90 49 60
        E 0 90 55 60
        E 0 90 61 60
        E 80 80 1a 00
        E 0 80 49 00
        E 0 80 55 00
        E 0 80 61 00
        E 80 90 1b 60
        E 0 90 61 60
        E 80 80 1b 00
        E 0 80 61 00
        E 0 90 1a 60
        E 0 90 55 60
        E 0 90 61 60
        E 80 80 1a 00
        E 0 80 55 00
        E 0 80 61 00
        E 80 90 1a 60
        E 0 90 61 60
        E 80 80 1a 00
        E 0 80 61 00
        E 0 90 1f 60
        E 0 90 3e 60
        E 0 90 4a 60
        E 0 90 56 60
        E 0 90 62 60
        E 120 80 74 00
        E 0 80 1f 00
        E 0 80 3e 00
        E 0 80 4a 00
        E 0 80 56 00
        E 0 80 62 00
        E 120 90 1a 60
        E 0 90 55 60
        E 0 90 61 60
        E 120 80 1a 00
        E 0 80 55 00
        E 0 80 61 00
        E 120 90 1f 60
        E 0 90 4a 60
        E 0 90 56 60
        E 0 90 62 60
        E 120 80 1f 00
        E 0 80 4a 00
        E 0 80 56 00
        E 0 80 62 00
        E 120 90 1a 60
        E 0 90 55 60
        E 0 90 61 60
        E 120 80 1a 00
        E 0 80 55 00
        E 0 80 61 00
        E 120 90 1f 60
        E 0 90 3e 60
        E 0 90 4a 60
        E 0 90 56 60
        E 0 90 62 60
        E 120 80 1f 00
        E 0 80 3e 00
        E 0 80 4a 00
        E 0 80 56 00
        E 0 80 62 00
        E 120 90 1a 60
        E 0 90 55 60
        E 0 90 61 60
        E 120 80 1a 00
        E 0 80 55 00
        E 0 80 61 00
        E 120 90 1f 60
        E 0 90 4a 60
        E 0 90 56 60
        E 0 90 62 60
        E 120 80 1f 00
        E 0 80 4a 00
        E 0 80 56 00
        E 0 80 62 00
        E 120 90 1a 60
        E 0 90 55 60
        E 0 90 61 60
        E 120 80 1a 00
        E 0 80 55 00
        E 0 80 61 00
        E 120 90 1f 60
        E 0 90 3e 60
        E 0 90 4a 60
        E 0 90 56 60
        E 0 90 62 60
        E 120 80 1f 00
        E 0 80 3e 00
        E 0 80 4a 00
        E 0 80 56 00
        E 0 80 62 00
        E 120 90 1a 60
        E 0 90 55 60
        E 0 90 61 60
        E 120 80 1a 00
        E 0 80 55 00
        E 0 80 61 00
        E 120 90 1f 60
        E 0 90 4a 60
        E 0 90 56 60
        E 0 90 62 60
        E 120 80 1f 00
        E 0 80 4a 00
        E 0 80 56 00
        E 0 80 62 00
        E 120 90 1a 60
        E 0 90 55 60
        E 0 90 61 60
        E 120 80 1a 00
        E 0 80 55 00
        E 0 80 61 00
        E 120 90 1f 60
        E 0 90 3e 60
        E 0 90 4a 60
        E 0 90 56 60
        E 0 90 62 60
        E 120 80 1f 00
        E 0 80 3e 00
        E 0 80 4a 00
        E 0 80 56 00
        E 0 80 62 00
        E 120 90 1a 60
        E 0 90 55 60
        E 0 90 61 60
        E 120 80 1a 00
        E 0 80 55 00
        E 0 80 61 00
        E 120 90 1f 60
        E 0 90 4a 60
        E 0 90 56 60
        E 0 90 62 60
        E 120 80 1f 00
        E 0 80 4a 00
        E 0 80 56 00
        E 0 80 62 00
        E 120 90 1a 60
        E 0 90 55 60
        E 0 90 61 60
        E 120 80 1a 00
        E 0 80 55 00
        E 0 80 61 00
        E 120 90 1f 60
        E 0 90 3e 60
        E 0 90 4a 60
        E 0 90 56 60
        E 0 90 62 60
        E 120 80 1f 00
        E 0 80 3e 00
        E 0 80 4a 00
        E 0 80 56 00
        E 0 80 62 00
        E 120 90 1a 60
        E 0 90 55 60
        E 0 90 61 60
        E 120 80 1a 00
        E 0 80 55 00
        E 0 80 61 00
        E 120 90 1f 60
        E 0 90 4a 60
        E 0 90 56 60
        E 0 90 62 60
        E 120 80 1f 00
        E 0 80 4a 00
        E 0 80 56 00
        E 0 80 62 00
        E 120 90 1a 60
        E 0 90 55 60
        E 0 90 61 60
        E 120 80 1a 00
        E 0 80 55 00
        E 0 80 61 00
        E 120 90 1f 60
        E 0 90 3e 60
        E 0 90 4a 60
        E 0 90 56 60
        E 0 90 62 60
        E 120 80 1f 00
        E 0 80 3e 00
        E 0 80 4a 00
        E 0 80 56 00
        E 0 80 62 00
        E 120 90 1a 60
        E 0 90 55 60
        E 0 90 61 60
        E 120 80 1a 00
        E 0 80 55 00
        E 0 80 61 00
        E 120 90 1f 60
        E 0 90 4a 60
        E 0 90 56 60
        E 0 90 62 60
        E 120 80 1f 00
        E 0 80 4a 00
        E 0 80 56 00
        E 0 80 62 00
        E 120 90 1a 60
        E 0 90 55 60
        E 0 90 61 60
        E 120 80 1a 00
        E 0 80 55 00
        E 0 80 61 00
        E 120 90 1f 60
        E 0 90 3e 60
        E 0 90 4a 60
        E 0 90 56 60
        E 0 90 62 60
        E 0 90 78 60
        E 0 90 79 60
        E 0 90 7a 60
        E 0 90 7b 60
        E 0 90 7c 60
        E 120 80 1f 00
        E 0 80 3e 00
        E 0 80 4a 00
        E 0 80 56 00
        E 0 80 62 00
        E 120 90 1a 60
        E 0 90 55 60
        E 0 90 61 60
        E 120 80 1a 00
        E 0 80 55 00
        E 0 80 61 00
        E 120 90 1a 60
        E 0 90 49 60
        E 0 90 55 60
        E 0 90 61 60
        E 120 80 1a 00
        E 0 80 49 00
        E 0 80 55 00
        E 0 80 61 00
        E 120 90 1a 60
        E 0 90 55 60
        E 0 90 61 60
        E 120 80 1a 00
        E 0 80 55 00
        E 0 80 61 00
        E 120 90 1f 60
        E 0 90 3e 60
        E 0 90 4a 60
        E 0 90 56 60
        E 0 90 62 60
        E 120 80 1f 00
        E 0 80 3e 00
        E 0 80 4a 00
        E 0 80 56 00
        E 0 80 62 00
        E 120 90 1f 60
        E 0 90 56 60
        E 0 90 62 60
        E 120 80 1f 00
        E 0 80 56 00
        E 0 80 62 00
        E 360 90 19 60
        E 0 90 1f 60
        E 0 90 57 60
        E 0 90 63 60
        E 120 80 1f 00
        E 0 80 57 00
        E 0 80 63 00
        E 120 80 78 00
        E 0 80 79 00
        E 0 80 7a 00
        E 0 80 7b 00
        E 0 80 7c 00
        E 0 80 19 00
        E 0 90 1f 60
        E 0 90 3e 60
        E 0 90 4a 60
        E 0 90 56 60
        E 0 90 62 60
        E 120 80 1f 00
        E 0 80 3e 00
        E 0 80 4a 00
        E 0 80 56 00
        E 0 80 62 00
        E 120 90 1a 60
        E 0 90 55 60
        E 0 90 61 60
        E 120 80 1a 00
        E 0 80 55 00
        E 0 80 61 00
        E 120 90 1f 60
        E 0 90 4a 60
        E 0 90 56 60
        E 0 90 62 60
        E 120 80 1f 00
        E 0 80 4a 00
        E 0 80 56 00
        E 0 80 62 00
        E 120 90 1a 60
        E 0 90 55 60
        E 0 90 61 60
        E 120 80 1a 00
        E 0 80 55 00
        E 0 80 61 00
        E 120 90 1f 60
        E 0 90 3e 60
        E 0 90 4a 60
        E 0 90 56 60
        E 0 90 62 60
        E 120 80 1f 00
        E 0 80 3e 00
        E 0 80 4a 00
        E 0 80 56 00
        E 0 80 62 00
        E 120 90 1a 60
        E 0 90 55 60
        E 0 90 61 60
        E 120 80 1a 00
        E 0 80 55 00
        E 0 80 61 00
        E 120 90 1f 60
        E 0 90 4a 60
        E 0 90 56 60
        E 0 90 62 60
        E 120 80 1f 00
        E 0 80 4a 00
        E 0 80 56 00
        E 0 80 62 00
        E 120 90 1a 60
        E 0 90 55 60
        E 0 90 61 60
        E 120 80 1a 00
        E 0 80 55 00
        E 0 80 61 00
        E 120 90 1f 60
        E 0 90 3e 60
        E 0 90 4a 60
        E 0 90 56 60
        E 0 90 62 60
        E 120 80 1f 00
        E 0 80 3e 00
        E 0 80 4a 00
        E 0 80 56 00
        E 0 80 62 00
        E 120 90 1a 60
        E 0 90 55 60
        E 0 90 61 60
        E 120 80 1a 00
        E 0 80 55 00
        E 0 80 61 00
        E 120 90 1f 60
        E 0 90 4a 60
        E 0 90 56 60
        E 0 90 62 60
        E 120 80 1f 00
        E 0 80 4a 00
        E 0 80 56 00
        E 0 80 62 00
        E 120 90 1a 60
        E 0 90 55 60
        E 0 90 61 60
        E 120 80 1a 00
        E 0 80 55 00
        E 0 80 61 00
        E 120 90 1f 60
        E 0 90 3e 60
        E 0 90 4a 60
        E 0 90 56 60
        E 0 90 62 60
        E 120 80 1f 00
        E 0 80 3e 00
        E 0 80 4a 00
        E 0 80 56 00
        E 0 80 62 00
        E 120 90 1a 60
        E 0 90 55 60
        E 0 90 61 60
        E 120 80 1a 00
        E 0 80 55 00
        E 0 80 61 00
        E 120 90 1f 60
        E 0 90 4a 60
        E 0 90 56 60
        E 0 90 62 60
        E 120 80 1f 00
        E 0 80 4a 00
        E 0 80 56 00
        E 0 80 62 00
        E 120 90 1a 60
        E 0 90 55 60
        E 0 90 61 60
        E 120 80 1a 00
        E 0 80 55 00
        E 0 80 61 00
        E 120 90 1f 60
        E 0 90 3e 60
        E 0 90 4a 60
        E 0 90 56 60
        E 0 90 62 60
        E 120 80 1f 00
        E 0 80 3e 00
        E 0 80 4a 00
        E 0 80 56 00
        E 0 80 62 00
        E 120 90 1a 60
        E 0 90 55 60
        E 0 90 61 60
        E 120 80 1a 00
        E 0 80 55 00
        E 0 80 61 00
        E 120 90 1f 60
        E 0 90 4a 60
        E 0 90 56 60
        E 0 90 62 60
        E 120 80 1f 00
        E 0 80 4a 00
        E 0 80 56 00
        E 0 80 62 00
        E 120 90 1a 60
        E 0 90 55 60
        E 0 90 61 60
        E 120 80 1a 00
        E 0 80 55 00
        E 0 80 61 00
        E 120 90 1f 60
        E 0 90 3e 60
        E 0 90 4a 60
        E 0 90 56 60
        E 0 90 62 60
        E 120 80 1f 00
        E 0 80 3e 00
        E 0 80 4a 00
        E 0 80 56 00
        E 0 80 62 00
        E 120 90 1a 60
        E 0 90 55 60
        E 0 90 61 60
        E 120 80 1a 00
        E 0 80 55 00
        E 0 80 61 00
        E 120 90 1f 60
        E 0 90 4a 60
        E 0 90 56 60
        E 0 90 62 60
        E 120 80 1f 00
        E 0 80 4a 00
        E 0 80 56 00
        E 0 80 62 00
        E 120 90 1a 60
        E 0 90 55 60
        E 0 90 61 60
        E 120 80 1a 00
        E 0 80 55 00
        E 0 80 61 00
        E 120 90 1f 60
        E 0 90 3e 60
        E 0 90 4a 60
        E 0 90 56 60
        E 0 90 62 60
        E 0 90 74 60
        E 120 80 1f 00
        E 0 80 3e 00
        E 0 80 4a 00
        E 0 80 56 00
        E 0 80 62 00
        E 120 90 1a 60
        E 0 90 55 60
        E 0 90 61 60
        E 120 80 1a 00
        E 0 80 55 00
        E 0 80 61 00
        E 120 90 1a 60
        E 0 90 49 60
        E 0 90 55 60
        E 0 90 61 60
        E 120 80 1a 00
        E 0 80 49 00
        E 0 80 55 00
        E 0 80 61 00
        E 120 90 1a 60
        E 0 90 55 60
        E 0 90 61 60
        E 120 80 1a 00
        E 0 80 55 00
        E 0 80 61 00
        E 120 90 1f 60
        E 0 90 3e 60
        E 0 90 4a 60
        E 0 90 56 60
        E 0 90 62 60
        E 120 80 1f 00
        E 0 80 3e 00
        E 0 80 4a 00
        E 0 80 56 00
        E 0 80 62 00
        E 120 90 1f 60
        E 0 90 56 60
        E 0 90 62 60
        E 120 80 1f 00
        E 0 80 56 00
        E 0 80 62 00
        E 120 80 74 00
        E 240 90 19 60
        E 0 90 1f 60
        E 0 90 57 60
        E 0 90 63 60
        E 120 80 1f 00
        E 0 80 57 00
        E 0 80 63 00
        E 120 80 19 00
        E 0 90 1f 60
        E 0 90 3e 60
        E 0 90 4a 60
        E 0 90 56 60
        E 0 90 62 60
        E 120 80 1f 00
        E 0 80 3e 00
        E 0 80 4a 00
        E 0 80 56 00
        E 0 80 62 00
        E 120 90 1a 60
        E 0 90 55 60
        E 0 90 61 60
        E 120 80 1a 00
        E 0 80 55 00
        E 0 80 61 00
        E 120 90 1f 60
        E 0 90 4a 60
        E 0 90 56 60
        E 0 90 62 60
        E 120 80 1f 00
        E 0 80 4a 00
        E 0 80 56 00
        E 0 80 62 00
        E 120 90 1a 60
        E 0 90 55 60
        E 0 90 61 60
        E 120 80 1a 00
        E 0 80 55 00
        E 0 80 61 00
        E 120 90 1f 60
        E 0 90 3e 60
        E 0 90 4a 60
        E 0 90 56 60
        E 0 90 62 60
        E 120 80 1f 00
        E 0 80 3e 00
        E 0 80 4a 00
        E 0 80 56 00
        E 0 80 62 00
        E 120 90 1a 60
        E 0 90 55 60
        E 0 90 61 60
        E 120 80 1a 00
        E 0 80 55 00
        E 0 80 61 00
        E 120 90 1f 60
        E 0 90 4a 60
        E 0 90 56 60
        E 0 90 62 60
        E 120 80 1f 00
        E 0 80 4a 00
        E 0 80 56 00
        E 0 80 62 00
        E 120 90 1a 60
        E 0 90 55 60
        E 0 90 61 60
        E 120 80 1a 00
        E 0 80 55 00
        E 0 80 61 00
        E 120 90 1f 60
        E 0 90 3e 60
        E 0 90 4a 60
        E 0 90 56 60
        E 0 90 62 60
        E 120 80 1f 00
        E 0 80 3e 00
        E 0 80 4a 00
        E 0 80 56 00
        E 0 80 62 00
        E 120 90 1a 60
        E 0 90 55 60
        E 0 90 61 60
        E 120 80 1a 00
        E 0 80 55 00
        E 0 80 61 00
        E 120 90 1f 60
        E 0 90 4a 60
        E 0 90 56 60
        E 0 90 62 60
        E 120 80 1f 00
        E 0 80 4a 00
        E 0 80 56 00
        E 0 80 62 00
        E 120 90 1a 60
        E 0 90 55 60
        E 0 90 61 60
        E 120 80 1a 00
        E 0 80 55 00
        E 0 80 61 00
        E 120 90 1f 60
        E 0 90 3e 60
        E 0 90 4a 60
        E 0 90 56 60
        E 0 90 62 60
        E 120 80 1f 00
        E 0 80 3e 00
        E 0 80 4a 00
        E 0 80 56 00
        E 0 80 62 00
        E 120 90 1a 60
        E 0 90 55 60
        E 0 90 61 60
        E 120 80 1a 00
        E 0 80 55 00
        E 0 80 61 00
        E 120 90 1f 60
        E 0 90 4a 60
        E 0 90 56 60
        E 0 90 62 60
        E 120 80 1f 00
        E 0 80 4a 00
        E 0 80 56 00
        E 0 80 62 00
        E 120 90 1a 60
        E 0 90 55 60
        E 0 90 61 60
        E 120 80 1a 00
        E 0 80 55 00
        E 0 80 61 00
        E 120 90 1f 60
        E 0 90 3e 60
        E 0 90 4a 60
        E 0 90 56 60
        E 0 90 62 60
        E 120 80 1f 00
        E 0 80 3e 00
        E 0 80 4a 00
        E 0 80 56 00
        E 0 80 62 00
        E 120 90 1a 60
        E 0 90 55 60
        E 0 90 61 60
        E 120 80 1a 00
        E 0 80 55 00
        E 0 80 61 00
        E 120 90 1f 60
        E 0 90 4a 60
        E 0 90 56 60
        E 0 90 62 60
        E 120 80 1f 00
        E 0 80 4a 00
        E 0 80 56 00
        E 0 80 62 00
        E 120 90 1a 60
        E 0 90 55 60
        E 0 90 61 60
        E 120 80 1a 00
        E 0 80 55 00
        E 0 80 61 00
        E 120 90 1f 60
        E 0 90 3e 60
        E 0 90 4a 60
        E 0 90 56 60
        E 0 90 62 60
        E 120 80 1f 00
        E 0 80 3e 00
        E 0 80 4a 00
        E 0 80 56 00
        E 0 80 62 00
        E 120 90 1a 60
        E 0 90 55 60
        E 0 90 61 60
        E 120 80 1a 00
        E 0 80 55 00
        E 0 80 61 00
        E 120 90 1f 60
        E 0 90 4a 60
        E 0 90 56 60
        E 0 90 62 60
        E 120 80 1f 00
        E 0 80 4a 00
        E 0 80 56 00
        E 0 80 62 00
        E 120 90 1a 60
        E 0 90 55 60
        E 0 90 61 60
        E 120 80 1a 00
        E 0 80 55 00
        E 0 80 61 00
        E 120 90 1f 60
        E 0 90 3e 60
        E 0 90 4a 60
        E 0 90 56 60
        E 0 90 62 60
        E 0 90 78 60
        E 0 90 79 60
        E 0 90 7a 60
        E 0 90 7b 60
        E 0 90 7c 60
        E 120 80 1f 00
        E 0 80 3e 00
        E 0 80 4a 00
        E 0 80 56 00
        E 0 80 62 00
        E 120 90 1a 60
        E 0 90 55 60
        E 0 90 61 60
        E 120 80 1a 00
        E 0 80 55 00
        E 0 80 61 00
        E 120 90 1f 60
        E 0 90 4a 60
        E 0 90 56 60
        E 0 90 62 60
        E 120 80 1f 00
        E 0 80 4a 00
        E 0 80 56 00
        E 0 80 62 00
        E 120 90 1a 60
        E 0 90 55 60
        E 0 90 61 60
        E 120 80 1a 00
        E 0 80 55 00
        E 0 80 61 00
        E 120 90 1b 60
        E 0 90 3d 60
        E 0 90 49 60
        E 0 90 55 60
        E 0 90 61 60
        E 80 80 1b 00
        E 0 80 3d 00
        E 0 80 49 00
        E 0 80 55 00
        E 0 80 61 00
        E 0 90 1a 60
        E 0 90 61 60
        E 80 80 1a 00
        E 0 80 61 00
        E 0 90 1b 60
        E 0 90 61 60
        E 80 80 1b 00
        E 0 80 61 00
        E 0 90 1a 60
        E 0 90 55 60
        E 0 90 61 60
        E 80 80 1a 00
        E 0 80 55 00
        E 0 80 61 00
        E 80 90 1b 60
        E 0 90 61 60
        E 80 80 1b 00
        E 0 80 61 00
        E 0 90 1a 60
        E 0 90 49 60
        E 0 90 55 60
        E 0 90 61 60
        E 80 80 1a 00
        E 0 80 49 00
        E 0 80 55 00
        E 0 80 61 00
        E 80 90 1b 60
        E 0 90 61 60
        E 80 80 1b 00
        E 0 80 61 00
        E 0 90 1a 60
        E 0 90 55 60
        E 0 90 61 60
        E 80 80 1a 00
        E 0 80 55 00
        E 0 80 61 00
        E 80 90 1a 60
        E 0 90 61 60
        E 80 80 78 00
        E 0 80 79 00
        E 0 80 7a 00
        E 0 80 7b 00
        E 0 80 7c 00
        E 0 80 1a 00
        E 0 80 61 00
        E 0 90 1f 60
        E 0 90 3e 60
        E 0 90 4a 60
        E 0 90 56 60
        E 0 90 62 60
        E 120 80 1f 00
        E 0 80 3e 00
        E 0 80 4a 00
        E 0 80 56 00
        E 0 80 62 00
        E 120 90 1a 60
        E 0 90 55 60
        E 0 90 61 60
        E 120 80 1a 00
        E 0 80 55 00
        E 0 80 61 00
        E 120 90 1f 60
        E 0 90 4a 60
        E 0 90 56 60
        E 0 90 62 60
        E 120 80 1f 00
        E 0 80 4a 00
        E 0 80 56 00
        E 0 80 62 00
        E 120 90 1a 60
        E 0 90 55 60
        E 0 90 61 60
        E 120 80 1a 00
        E 0 80 55 00
        E 0 80 61 00
        E 120 90 1f 60
        E 0 90 3e 60
        E 0 90 4a 60
        E 0 90 56 60
        E 0 90 62 60
        E 120 80 1f 00
        E 0 80 3e 00
        E 0 80 4a 00
        E 0 80 56 00
        E 0 80 62 00
        E 120 90 1a 60
        E 0 90 55 60
        E 0 90 61 60
        E 120 80 1a 00
        E 0 80 55 00
        E 0 80 61 00
        E 120 90 1f 60
        E 0 90 4a 60
        E 0 90 56 60
        E 0 90 62 60
        E 120 80 1f 00
        E 0 80 4a 00
        E 0 80 56 00
        E 0 80 62 00
        E 120 90 1a 60
        E 0 90 55 60
        E 0 90 61 60
        E 120 80 1a 00
        E 0 80 55 00
        E 0 80 61 00
        E 120 90 1f 60
        E 0 90 3e 60
        E 0 90 4a 60
        E 0 90 56 60
        E 0 90 62 60
        E 120 80 1f 00
        E 0 80 3e 00
        E 0 80 4a 00
        E 0 80 56 00
        E 0 80 62 00
        E 120 90 1a 60
        E 0 90 55 60
        E 0 90 61 60
        E 120 80 1a 00
        E 0 80 55 00
        E 0 80 61 00
        E 120 90 1f 60
        E 0 90 4a 60
        E 0 90 56 60
        E 0 90 62 60
        E 120 80 1f 00
        E 0 80 4a 00
        E 0 80 56 00
        E 0 80 62 00
        E 120 90 1a 60
        E 0 90 55 60
        E 0 90 61 60
        E 120 80 1a 00
        E 0 80 55 00
        E 0 80 61 00
        E 120 90 1f 60
        E 0 90 3e 60
        E 0 90 4a 60
        E 0 90 56 60
        E 0 90 62 60
        E 120 80 1f 00
        E 0 80 3e 00
        E 0 80 4a 00
        E 0 80 56 00
        E 0 80 62 00
        E 120 90 1a 60
        E 0 90 55 60
        E 0 90 61 60
        E 120 80 1a 00
        E 0 80 55 00
        E 0 80 61 00
        E 120 90 1f 60
        E 0 90 4a 60
        E 0 90 56 60
        E 0 90 62 60
        E 120 80 1f 00
        E 0 80 4a 00
        E 0 80 56 00
        E 0 80 62 00
        E 120 90 1a 60
        E 0 90 55 60
        E 0 90 61 60
        E 120 80 1a 00
        E 0 80 55 00
        E 0 80 61 00
        E 120 90 1f 60
        E 0 90 3e 60
        E 0 90 4a 60
        E 0 90 56 60
        E 0 90 62 60
        E 120 80 1f 00
        E 0 80 3e 00
        E 0 80 4a 00
        E 0 80 56 00
        E 0 80 62 00
        E 120 90 1a 60
        E 0 90 55 60
        E 0 90 61 60
        E 120 80 1a 00
        E 0 80 55 00
        E 0 80 61 00
        E 120 90 1f 60
        E 0 90 4a 60
        E 0 90 56 60
        E 0 90 62 60
        E 120 80 1f 00
        E 0 80 4a 00
        E 0 80 56 00
        E 0 80 62 00
        E 120 90 1a 60
        E 0 90 55 60
        E 0 90 61 60
        E 120 80 1a 00
        E 0 80 55 00
        E 0 80 61 00
        E 120 90 1f 60
        E 0 90 3e 60
        E 0 90 4a 60
        E 0 90 56 60
        E 0 90 62 60
        E 120 80 1f 00
        E 0 80 3e 00
        E 0 80 4a 00
        E 0 80 56 00
        E 0 80 62 00
        E 120 90 1a 60
        E 0 90 55 60
        E 0 90 61 60
        E 120 80 1a 00
        E 0 80 55 00
        E 0 80 61 00
        E 120 90 1f 60
        E 0 90 4a 60
        E 0 90 56 60
        E 0 90 62 60
        E 120 80 1f 00
        E 0 80 4a 00
        E 0 80 56 00
        E 0 80 62 00
        E 120 90 1a 60
        E 0 90 55 60
        E 0 90 61 60
        E 120 80 1a 00
        E 0 80 55 00
        E 0 80 61 00
        E 120 90 1f 60
        E 0 90 3e 60
        E 0 90 4a 60
        E 0 90 56 60
        E 0 90 62 60
        E 0 90 78 60
        E 0 90 79 60
        E 0 90 7a 60
        E 0 90 7b 60
        E 0 90 7c 60
        E 120 80 1f 00
        E 0 80 3e 00
        E 0 80 4a 00
        E 0 80 56 00
        E 0 80 62 00
        E 120 90 1a 60
        E 0 90 55 60
        E 0 90 61 60
        E 120 80 1a 00
        E 0 80 55 00
        E 0 80 61 00
        E 120 90 1f 60
        E 0 90 4a 60
        E 0 90 56 60
        E 0 90 62 60
        E 120 80 1f 00
        E 0 80 4a 00
        E 0 80 56 00
        E 0 80 62 00
        E 120 90 1a 60
        E 0 90 55 60
        E 0 90 61 60
        E 120 80 1a 00
        E 0 80 55 00
        E 0 80 61 00
        E 120 90 1b 60
        E 0 90 3d 60
        E 0 90 49 60
        E 0 90 55 60
        E 0 90 61 60
        E 80 80 1b 00
        E 0 80 3d 00
        E 0 80 49 00
        E 0 80 55 00
        E 0 80 61 00
        E 0 90 1a 60
        E 0 90 61 60
        E 80 80 1a 00
        E 0 80 61 00
        E 0 90 1b 60
        E 0 90 61 60
        E 80 80 1b 00
        E 0 80 61 00
        E 0 90 1a 60
        E 0 90 55 60
        E 0 90 61 60
        E 80 80 1a 00
        E 0 80 55 00
        E 0 80 61 00
        E 80 90 1b 60
        E 0 90 61 60
        E 80 80 1b 00
        E 0 80 61 00
        E 0 90 1a 60
        E 0 90 49 60
        E 0 90 55 60
        E 0 90 61 60
        E 80 80 1a 00
        E 0 80 49 00
        E 0 80 55 00
        E 0 80 61 00
        E 80 90 1b 60
        E 0 90 61 60
        E 80 80 1b 00
        E 0 80 61 00
        E 0 90 1a 60
        E 0 90 55 60
        E 0 90 61 60
        E 80 80 1a 00
        E 0 80 55 00
        E 0 80 61 00
        E 80 90 1a 60
        E 0 90 61 60
        E 80 80 78 00
        E 0 80 79 00
        E 0 80 7a 00
        E 0 80 7b 00
        E 0 80 7c 00
        E 0 80 1a 00
        E 0 80 61 00
        E 0 90 1f 60
        E 0 90 3e 60
        E 0 90 4a 60
        E 0 90 56 60
        E 0 90 62 60
        E 120 80 1f 00
        E 0 80 3e 00
        E 0 80 4a 00
        E 0 80 56 00
        E 0 80 62 00
        E 120 90 1a 60
        E 0 90 55 60
        E 0 90 61 60
        E 120 80 1a 00
        E 0 80 55 00
        E 0 80 61 00
        E 120 90 1f 60
        E 0 90 4a 60
        E 0 90 56 60
        E 0 90 62 60
        E 120 80 1f 00
        E 0 80 4a 00
        E 0 80 56 00
        E 0 80 62 00
        E 120 90 1a 60
        E 0 90 55 60
        E 0 90 61 60
        E 120 80 1a 00
        E 0 80 55 00
        E 0 80 61 00
        E 120 90 1f 60
        E 0 90 3e 60
        E 0 90 4a 60
        E 0 90 56 60
        E 0 90 62 60
        E 120 80 1f 00
        E 0 80 3e 00
        E 0 80 4a 00
        E 0 80 56 00
        E 0 80 62 00
        E 120 90 1a 60
        E 0 90 55 60
        E 0 90 61 60
        E 120 80 1a 00
        E 0 80 55 00
        E 0 80 61 00
        E 120 90 1f 60
        E 0 90 4a 60
        E 0 90 56 60
        E 0 90 62 60
        E 120 80 1f 00
        E 0 80 4a 00
        E 0 80 56 00
        E 0 80 62 00
        E 120 90 1a 60
        E 0 90 55 60
        E 0 90 61 60
        E 120 80 1a 00
        E 0 80 55 00
        E 0 80 61 00
        E 120 90 1f 60
        E 0 90 3e 60
        E 0 90 4a 60
        E 0 90 56 60
        E 0 90 62 60
        E 120 80 1f 00
        E 0 80 3e 00
        E 0 80 4a 00
        E 0 80 56 00
        E 0 80 62 00
        E 120 90 1a 60
        E 0 90 55 60
        E 0 90 61 60
        E 120 80 1a 00
        E 0 80 55 00
        E 0 80 61 00
        E 120 90 1f 60
        E 0 90 4a 60
        E 0 90 56 60
        E 0 90 62 60
        E 120 80 1f 00
        E 0 80 4a 00
        E 0 80 56 00
        E 0 80 62 00
        E 120 90 1a 60
        E 0 90 55 60
        E 0 90 61 60
        E 120 80 1a 00
        E 0 80 55 00
        E 0 80 61 00
        E 120 90 1f 60
        E 0 90 3e 60
        E 0 90 4a 60
        E 0 90 56 60
        E 0 90 62 60
        E 120 80 1f 00
        E 0 80 3e 00
        E 0 80 4a 00
        E 0 80 56 00
        E 0 80 62 00
        E 120 90 1a 60
        E 0 90 55 60
        E 0 90 61 60
        E 120 80 1a 00
        E 0 80 55 00
        E 0 80 61 00
        E 120 90 1f 60
        E 0 90 4a 60
        E 0 90 56 60
        E 0 90 62 60
        E 120 80 1f 00
        E 0 80 4a 00
        E 0 80 56 00
        E 0 80 62 00
        E 120 90 1a 60
        E 0 90 55 60
        E 0 90 61 60
        E 120 80 1a 00
        E 0 80 55 00
        E 0 80 61 00
        E 120 90 1f 60
        E 0 90 3e 60
        E 0 90 4a 60
        E 0 90 56 60
        E 0 90 62 60
        E 120 80 1f 00
        E 0 80 3e 00
        E 0 80 4a 00
        E 0 80 56 00
        E 0 80 62 00
        E 120 90 1a 60
        E 0 90 55 60
        E 0 90 61 60
        E 120 80 1a 00
        E 0 80 55 00
        E 0 80 61 00
        E 120 90 1f 60
        E 0 90 4a 60
        E 0 90 56 60
        E 0 90 62 60
        E 120 80 1f 00
        E 0 80 4a 00
        E 0 80 56 00
        E 0 80 62 00
        E 120 90 1a 60
        E 0 90 55 60
        E 0 90 61 60
        E 120 80 1a 00
        E 0 80 55 00
        E 0 80 61 00
        E 120 90 1f 60
        E 0 90 3e 60
        E 0 90 4a 60
        E 0 90 56 60
        E 0 90 62 60
        E 120 80 1f 00
        E 0 80 3e 00
        E 0 80 4a 00
        E 0 80 56 00
        E 0 80 62 00
        E 120 90 1a 60
        E 0 90 55 60
        E 0 90 61 60
        E 120 80 1a 00
        E 0 80 55 00
        E 0 80 61 00
        E 120 90 1f 60
        E 0 90 4a 60
        E 0 90 56 60
        E 0 90 62 60
        E 120 80 1f 00
        E 0 80 4a 00
        E 0 80 56 00
        E 0 80 62 00
        E 120 90 1a 60
        E 0 90 55 60
        E 0 90 61 60
        E 120 80 1a 00
        E 0 80 55 00
        E 0 80 61 00
        E 120 90 1f 60
        E 0 90 3e 60
        E 0 90 4a 60
        E 0 90 56 60
        E 0 90 62 60
        E 0 90 78 60
        E 0 90 79 60
        E 0 90 7a 60
        E 0 90 7b 60
        E 0 90 7c 60
        E 120 80 1f 00
        E 0 80 3e 00
        E 0 80 4a 00
        E 0 80 56 00
        E 0 80 62 00
        E 120 90 1a 60
        E 0 90 55 60
        E 0 90 61 60
        E 120 80 1a 00
        E 0 80 55 00
        E 0 80 61 00
        E 120 90 1a 60
        E 0 90 49 60
        E 0 90 55 60
        E 0 90 61 60
        E 120 80 1a 00
        E 0 80 49 00
        E 0 80 55 00
        E 0 80 61 00
        E 120 90 1a 60
        E 0 90 55 60
        E 0 90 61 60
        E 120 80 1a 00
        E 0 80 55 00
        E 0 80 61 00
        E 120 90 1f 60
        E 0 90 3e 60
        E 0 90 4a 60
        E 0 90 56 60
        E 0 90 62 60
        E 120 80 1f 00
        E 0 80 3e 00
        E 0 80 4a 00
        E 0 80 56 00
        E 0 80 62 00
        E 120 90 1f 60
        E 0 90 56 60
        E 0 90 62 60
        E 120 80 1f 00
        E 0 80 56 00
        E 0 80 62 00
        E 360 90 19 60
        E 0 90 1f 60
        E 0 90 57 60
        E 0 90 63 60
        E 120 80 1f 00
        E 0 80 57 00
        E 0 80 63 00
        E 120 80 78 00
        E 0 80 79 00
        E 0 80 7a 00
        E 0 80 7b 00
        E 0 80 7c 00
        E 0 80 19 00
        E 0 90 1f 60
        E 0 90 3e 60
        E 0 90 4a 60
        E 0 90 56 60
        E 0 90 62 60
        E 0 90 74 60
        E 120 80 1f 00
        E 0 80 3e 00
        E 0 80 4a 00
        E 0 80 56 00
        E 0 80 62 00
        E 120 90 1a 60
        E 0 90 55 60
        E 0 90 61 60
        E 120 80 1a 00
        E 0 80 55 00
        E 0 80 61 00
        E 120 90 1f 60
        E 0 90 4a 60
        E 0 90 56 60
        E 0 90 62 60
        E 120 80 1f 00
        E 0 80 4a 00
        E 0 80 56 00
        E 0 80 62 00
        E 120 90 1a 60
        E 0 90 55 60
        E 0 90 61 60
        E 120 80 1a 00
        E 0 80 55 00
        E 0 80 61 00
        E 120 90 1f 60
        E 0 90 3e 60
        E 0 90 4a 60
        E 0 90 56 60
        E 0 90 62 60
        E 120 80 1f 00
        E 0 80 3e 00
        E 0 80 4a 00
        E 0 80 56 00
        E 0 80 62 00
        E 120 90 1a 60
        E 0 90 55 60
        E 0 90 61 60
        E 120 80 1a 00
        E 0 80 55 00
        E 0 80 61 00
        E 120 90 1f 60
        E 0 90 4a 60
        E 0 90 56 60
        E 0 90 62 60
        E 120 80 1f 00
        E 0 80 4a 00
        E 0 80 56 00
        E 0 80 62 00
        E 120 90 1a 60
        E 0 90 55 60
        E 0 90 61 60
        E 120 80 1a 00
        E 0 80 55 00
        E 0 80 61 00
        E 120 90 1f 60
        E 0 90 3e 60
        E 0 90 4a 60
        E 0 90 56 60
        E 0 90 62 60
        E 120 80 1f 00
        E 0 80 3e 00
        E 0 80 4a 00
        E 0 80 56 00
        E 0 80 62 00
        E 120 90 1a 60
        E 0 90 55 60
        E 0 90 61 60
        E 120 80 1a 00
        E 0 80 55 00
        E 0 80 61 00
        E 120 90 1f 60
        E 0 90 4a 60
        E 0 90 56 60
        E 0 90 62 60
        E 120 80 1f 00
        E 0 80 4a 00
        E 0 80 56 00
        E 0 80 62 00
        E 120 90 1a 60
        E 0 90 55 60
        E 0 90 61 60
        E 120 80 1a 00
        E 0 80 55 00
        E 0 80 61 00
        E 120 90 1f 60
        E 0 90 3e 60
        E 0 90 4a 60
        E 0 90 56 60
        E 0 90 62 60
        E 120 80 1f 00
        E 0 80 3e 00
        E 0 80 4a 00
        E 0 80 56 00
        E 0 80 62 00
        E 120 90 1a 60
        E 0 90 55 60
        E 0 90 61 60
        E 120 80 1a 00
        E 0 80 55 00
        E 0 80 61 00
        E 120 90 1f 60
        E 0 90 4a 60
        E 0 90 56 60
        E 0 90 62 60
        E 120 80 1f 00
        E 0 80 4a 00
        E 0 80 56 00
        E 0 80 62 00
        E 120 90 1a 60
        E 0 90 55 60
        E 0 90 61 60
        E 120 80 1a 00
        E 0 80 55 00
        E 0 80 61 00
        E 120 80 74 00
        E 0 90 1f 60
        E 0 90 3e 60
        E 0 90 4a 60
        E 0 90 56 60
        E 0 90 62 60
        E 120 80 1f 00
        E 0 80 3e 00
        E 0 80 4a 00
        E 0 80 56 00
        E 0 80 62 00
        E 120 90 1a 60
        E 0 90 55 60
        E 0 90 61 60
        E 120 80 1a 00
        E 0 80 55 00
        E 0 80 61 00
        E 120 90 1f 60
        E 0 90 4a 60
        E 0 90 56 60
        E 0 90 62 60
        E 120 80 1f 00
        E 0 80 4a 00
        E 0 80 56 00
        E 0 80 62 00
        E 120 90 1a 60
        E 0 90 55 60
        E 0 90 61 60
        E 120 80 1a 00
        E 0 80 55 00
        E 0 80 61 00
        E 120 90 1f 60
        E 0 90 3e 60
        E 0 90 4a 60
        E 0 90 56 60
        E 0 90 62 60
        E 120 80 1f 00
        E 0 80 3e 00
        E 0 80 4a 00
        E 0 80 56 00
        E 0 80 62 00
        E 120 90 1a 60
        E 0 90 55 60
        E 0 90 61 60
        E 120 80 1a 00
        E 0 80 55 00
        E 0 80 61 00
        E 120 90 1f 60
        E 0 90 4a 60
        E 0 90 56 60
        E 0 90 62 60
        E 120 80 1f 00
        E 0 80 4a 00
        E 0 80 56 00
        E 0 80 62 00
        E 120 90 1a 60
        E 0 90 55 60
        E 0 90 61 60
        E 120 80 1a 00
        E 0 80 55 00
        E 0 80 61 00
        E 120 90 1f 60
        E 0 90 3e 60
        E 0 90 4a 60
        E 0 90 56 60
        E 0 90 62 60
        E 0 90 78 60
        E 0 90 79 60
        E 0 90 7a 60
        E 0 90 7b 60
        E 0 90 7c 60
        E 120 80 1f 00
        E 0 80 3e 00
        E 0 80 4a 00
        E 0 80 56 00
        E 0 80 62 00
        E 120 90 1a 60
        E 0 90 55 60
        E 0 90 61 60
        E 120 80 1a 00
        E 0 80 55 00
        E 0 80 61 00
        E 120 90 1a 60
        E 0 90 49 60
        E 0 90 55 60
        E 0 90 61 60
        E 120 80 1a 00
        E 0 80 49 00
        E 0 80 55 00
        E 0 80 61 00
        E 120 90 1a 60
        E 0 90 55 60
        E 0 90 61 60
        E 120 80 1a 00
        E 0 80 55 00
        E 0 80 61 00
        E 120 90 1f 60
        E 0 90 3e 60
        E 0 90 4a 60
        E 0 90 56 60
        E 0 90 62 60
        E 120 80 1f 00
        E 0 80 3e 00
        E 0 80 4a 00
        E 0 80 56 00
        E 0 80 62 00
        E 120 90 1f 60
        E 0 90 56 60
        E 0 90 62 60
        E 120 80 1f 00
        E 0 80 56 00
        E 0 80 62 00
        E 360 90 19 60
        E 0 90 1f 60
        E 0 90 57 60
        E 0 90 63 60
        E 120 80 1f 00
        E 0 80 57 00
        E 0 80 63 00
        E 120 80 78 00
        E 0 80 79 00
        E 0 80 7a 00
        E 0 80 7b 00
        E 0 80 7c 00
        E 0 80 19 00
        E 0 90 1f 60
        E 0 90 3e 60
        E 0 90 4a 60
        E 0 90 56 60
        E 0 90 62 60
        E 120 80 1f 00
        E 0 80 3e 00
        E 0 80 4a 00
        E 0 80 56 00
        E 0 80 62 00
        E 120 90 1a 60
        E 0 90 55 60
        E 0 90 61 60
        E 120 80 1a 00
        E 0 80 55 00
        E 0 80 61 00
        E 120 90 1f 60
        E 0 90 4a 60
        E 0 90 56 60
        E 0 90 62 60
        E 120 80 1f 00
        E 0 80 4a 00
        E 0 80 56 00
        E 0 80 62 00
        E 120 90 1a 60
        E 0 90 55 60
        E 0 90 61 60
        E 120 80 1a 00
        E 0 80 55 00
        E 0 80 61 00
        E 120 90 1f 60
        E 0 90 3e 60
        E 0 90 4a 60
        E 0 90 56 60
        E 0 90 62 60
        E 120 80 1f 00
        E 0 80 3e 00
        E 0 80 4a 00
        E 0 80 56 00
        E 0 80 62 00
        E 120 90 1a 60
        E 0 90 55 60
        E 0 90 61 60
        E 120 80 1a 00
        E 0 80 55 00
        E 0 80 61 00
        E 120 90 1f 60
        E 0 90 4a 60
        E 0 90 56 60
        E 0 90 62 60
        E 120 80 1f 00
        E 0 80 4a 00
        E 0 80 56 00
        E 0 80 62 00
        E 120 90 1a 60
        E 0 90 55 60
        E 0 90 61 60
        E 120 80 1a 00
        E 0 80 55 00
        E 0 80 61 00
        E 120 90 1f 60
        E 0 90 3e 60
        E 0 90 4a 60
        E 0 90 56 60
        E 0 90 62 60
        E 120 80 1f 00
        E 0 80 3e 00
        E 0 80 4a 00
        E 0 80 56 00
        E 0 80 62 00
        E 120 90 1a 60
        E 0 90 55 60
        E 0 90 61 60
        E 120 80 1a 00
        E 0 80 55 00
        E 0 80 61 00
        E 120 90 1f 60
        E 0 90 4a 60
        E 0 90 56 60
        E 0 90 62 60
        E 120 80 1f 00
        E 0 80 4a 00
        E 0 80 56 00
        E 0 80 62 00
        E 120 90 1a 60
        E 0 90 55 60
        E 0 90 61 60
        E 120 80 1a 00
        E 0 80 55 00
        E 0 80 61 00
        E 120 90 1f 60
        E 0 90 3e 60
        E 0 90 4a 60
        E 0 90 56 60
        E 0 90 62 60
        E 120 80 1f 00
        E 0 80 3e 00
        E 0 80 4a 00
        E 0 80 56 00
        E 0 80 62 00
        E 120 90 1a 60
        E 0 90 55 60
        E 0 90 61 60
        E 120 80 1a 00
        E 0 80 55 00
        E 0 80 61 00
        E 120 90 1f 60
        E 0 90 4a 60
        E 0 90 56 60
        E 0 90 62 60
        E 120 80 1f 00
        E 0 80 4a 00
        E 0 80 56 00
        E 0 80 62 00
        E 120 90 1a 60
        E 0 90 55 60
        E 0 90 61 60
        E 120 80 1a 00
        E 0 80 55 00
        E 0 80 61 00
        E 120 90 1f 60
        E 0 90 3e 60
        E 0 90 4a 60
        E 0 90 56 60
        E 0 90 62 60
        E 120 80 1f 00
        E 0 80 3e 00
        E 0 80 4a 00
        E 0 80 56 00
        E 0 80 62 00
        E 120 90 1a 60
        E 0 90 55 60
        E 0 90 61 60
        E 120 80 1a 00
        E 0 80 55 00
        E 0 80 61 00
        E 120 90 1f 60
        E 0 90 4a 60
        E 0 90 56 60
        E 0 90 62 60
        E 120 80 1f 00
        E 0 80 4a 00
        E 0 80 56 00
        E 0 80 62 00
        E 120 90 1a 60
        E 0 90 55 60
        E 0 90 61 60
        E 120 80 1a 00
        E 0 80 55 00
        E 0 80 61 00
        E 120 90 1f 60
        E 0 90 3e 60
        E 0 90 4a 60
        E 0 90 56 60
        E 0 90 62 60
        E 120 80 1f 00
        E 0 80 3e 00
        E 0 80 4a 00
        E 0 80 56 00
        E 0 80 62 00
        E 120 90 1a 60
        E 0 90 55 60
        E 0 90 61 60
        E 120 80 1a 00
        E 0 80 55 00
        E 0 80 61 00
        E 120 90 1f 60
        E 0 90 4a 60
        E 0 90 56 60
        E 0 90 62 60
        E 120 80 1f 00
        E 0 80 4a 00
        E 0 80 56 00
        E 0 80 62 00
        E 120 90 1a 60
        E 0 90 55 60
        E 0 90 61 60
        E 120 80 1a 00
        E 0 80 55 00
        E 0 80 61 00
        E 120 90 1f 60
        E 0 90 3e 60
        E 0 90 4a 60
        E 0 90 56 60
        E 0 90 62 60
        E 0 90 78 60
        E 0 90 79 60
        E 0 90 7a 60
        E 0 90 7b 60
        E 0 90 7c 60
        E 120 80 1f 00
        E 0 80 3e 00
        E 0 80 4a 00
        E 0 80 56 00
        E 0 80 62 00
        E 120 90 1a 60
        E 0 90 55 60
        E 0 90 61 60
        E 120 80 1a 00
        E 0 80 55 00
        E 0 80 61 00
        E 120 90 1f 60
        E 0 90 4a 60
        E 0 90 56 60
        E 0 90 62 60
        E 120 80 1f 00
        E 0 80 4a 00
        E 0 80 56 00
        E 0 80 62 00
        E 120 90 1a 60
        E 0 90 55 60
        E 0 90 61 60
        E 120 80 1a 00
        E 0 80 55 00
        E 0 80 61 00
        E 120 90 1b 60
        E 0 90 3d 60
        E 0 90 49 60
        E 0 90 55 60
        E 0 90 61 60
        E 80 80 1b 00
        E 0 80 3d 00
        E 0 80 49 00
        E 0 80 55 00
        E 0 80 61 00
        E 0 90 1a 60
        E 0 90 61 60
        E 80 80 1a 00
        E 0 80 61 00
        E 0 90 1b 60
        E 0 90 61 60
        E 80 80 1b 00
        E 0 80 61 00
        E 0 90 1a 60
        E 0 90 55 60
        E 0 90 61 60
        E 80 80 1a 00
        E 0 80 55 00
        E 0 80 61 00
        E 80 90 1b 60
        E 0 90 61 60
        E 80 80 1b 00
        E 0 80 61 00
        E 0 90 1a 60
        E 0 90 49 60
        E 0 90 55 60
        E 0 90 61 60
        E 80 80 1a 00
        E 0 80 49 00
        E 0 80 55 00
        E 0 80 61 00
        E 80 90 1b 60
        E 0 90 61 60
        E 80 80 1b 00
        E 0 80 61 00
        E 0 90 1a 60
        E 0 90 55 60
        E 0 90 61 60
        E 80 80 1a 00
        E 0 80 55 00
        E 0 80 61 00
        E 80 90 1a 60
        E 0 90 61 60
        E 80 80 78 00
        E 0 80 79 00
        E 0 80 7a 00
        E 0 80 7b 00
        E 0 80 7c 00
        E 0 80 1a 00
        E 0 80 61 00
        E 0 90 1f 60
        E 0 90 3e 60
        E 0 90 4a 60
        E 0 90 56 60
        E 0 90 62 60
        E 120 80 1f 00
        E 0 80 3e 00
        E 0 80 4a 00
        E 0 80 56 00
        E 0 80 62 00
        E 120 90 1a 60
        E 0 90 55 60
        E 0 90 61 60
        E 120 80 1a 00
        E 0 80 55 00
        E 0 80 61 00
        E 120 90 1f 60
        E 0 90 4a 60
        E 0 90 56 60
        E 0 90 62 60
        E 120 80 1f 00
        E 0 80 4a 00
        E 0 80 56 00
        E 0 80 62 00
        E 120 90 1a 60
        E 0 90 55 60
        E 0 90 61 60
        E 120 80 1a 00
        E 0 80 55 00
        E 0 80 61 00
        E 120 90 1f 60
        E 0 90 3e 60
        E 0 90 4a 60
        E 0 90 56 60
        E 0 90 62 60
        E 120 80 1f 00
        E 0 80 3e 00
        E 0 80 4a 00
        E 0 80 56 00
        E 0 80 62 00
        E 120 90 1a 60
        E 0 90 55 60
        E 0 90 61 60
        E 120 80 1a 00
        E 0 80 55 00
        E 0 80 61 00
        E 120 90 1f 60
        E 0 90 4a 60
        E 0 90 56 60
        E 0 90 62 60
        E 120 80 1f 00
        E 0 80 4a 00
        E 0 80 56 00
        E 0 80 62 00
        E 120 90 1a 60
        E 0 90 55 60
        E 0 90 61 60
        E 120 80 1a 00
        E 0 80 55 00
        E 0 80 61 00
        E 120 90 1f 60
        E 0 90 3e 60
        E 0 90 4a 60
        E 0 90 56 60
        E 0 90 62 60
        E 120 80 1f 00
        E 0 80 3e 00
        E 0 80 4a 00
        E 0 80 56 00
        E 0 80 62 00
        E 120 90 1a 60
        E 0 90 55 60
        E 0 90 61 60
        E 120 80 1a 00
        E 0 80 55 00
        E 0 80 61 00
        E 120 90 1f 60
        E 0 90 4a 60
        E 0 90 56 60
        E 0 90 62 60
        E 120 80 1f 00
        E 0 80 4a 00
        E 0 80 56 00
        E 0 80 62 00
        E 120 90 1a 60
        E 0 90 55 60
        E 0 90 61 60
        E 120 80 1a 00
        E 0 80 55 00
        E 0 80 61 00
        E 120 90 1f 60
        E 0 90 3e 60
        E 0 90 4a 60
        E 0 90 56 60
        E 0 90 62 60
        E 120 80 1f 00
        E 0 80 3e 00
        E 0 80 4a 00
        E 0 80 56 00
        E 0 80 62 00
        E 120 90 1a 60
        E 0 90 55 60
        E 0 90 61 60
        E 120 80 1a 00
        E 0 80 55 00
        E 0 80 61 00
        E 120 90 1f 60
        E 0 90 4a 60
        E 0 90 56 60
        E 0 90 62 60
        E 120 80 1f 00
        E 0 80 4a 00
        E 0 80 56 00
        E 0 80 62 00
        E 120 90 1a 60
        E 0 90 55 60
        E 0 90 61 60
        E 120 80 1a 00
        E 0 80 55 00
        E 0 80 61 00
        E 120 90 1f 60
        E 0 90 3e 60
        E 0 90 4a 60
        E 0 90 56 60
        E 0 90 62 60
        E 120 80 1f 00
        E 0 80 3e 00
        E 0 80 4a 00
        E 0 80 56 00
        E 0 80 62 00
        E 120 90 1a 60
        E 0 90 55 60
        E 0 90 61 60
        E 120 80 1a 00
        E 0 80 55 00
        E 0 80 61 00
        E 120 90 1f 60
        E 0 90 4a 60
        E 0 90 56 60
        E 0 90 62 60
        E 120 80 1f 00
        E 0 80 4a 00
        E 0 80 56 00
        E 0 80 62 00
        E 120 90 1a 60
        E 0 90 55 60
        E 0 90 61 60
        E 120 80 1a 00
        E 0 80 55 00
        E 0 80 61 00
        E 120 90 1f 60
        E 0 90 3e 60
        E 0 90 4a 60
        E 0 90 56 60
        E 0 90 62 60
        E 120 80 1f 00
        E 0 80 3e 00
        E 0 80 4a 00
        E 0 80 56 00
        E 0 80 62 00
        E 120 90 1a 60
        E 0 90 55 60
        E 0 90 61 60
        E 120 80 1a 00
        E 0 80 55 00
        E 0 80 61 00
        E 120 90 1f 60
        E 0 90 4a 60
        E 0 90 56 60
        E 0 90 62 60
        E 120 80 1f 00
        E 0 80 4a 00
        E 0 80 56 00
        E 0 80 62 00
        E 120 90 1a 60
        E 0 90 55 60
        E 0 90 61 60
        E 120 80 1a 00
        E 0 80 55 00
        E 0 80 61 00
        E 120 90 1f 60
        E 0 90 3e 60
        E 0 90 4a 60
        E 0 90 56 60
        E 0 90 62 60
        E 120 80 1f 00
        E 0 80 3e 00
        E 0 80 4a 00
        E 0 80 56 00
        E 0 80 62 00
        E 120 90 1a 60
        E 0 90 55 60
        E 0 90 61 60
        E 120 80 1a 00
        E 0 80 55 00
        E 0 80 61 00
        E 120 90 1f 60
        E 0 90 4a 60
        E 0 90 56 60
        E 0 90 62 60
        E 120 80 1f 00
        E 0 80 4a 00
        E 0 80 56 00
        E 0 80 62 00
        E 120 90 1a 60
        E 0 90 55 60
        E 0 90 61 60
        E 120 80 1a 00
        E 0 80 55 00
        E 0 80 61 00
        E 120 90 1b 60
        E 0 90 3d 60
        E 0 90 49 60
        E 0 90 55 60
        E 0 90 61 60
        E 0 90 74 60
        E 80 80 1b 00
        E 0 80 3d 00
        E 0 80 49 00
        E 0 80 55 00
        E 0 80 61 00
        E 0 90 1a 60
        E 0 90 61 60
        E 80 80 1a 00
        E 0 80 61 00
        E 0 90 1b 60
        E 0 90 61 60
        E 80 80 1b 00
        E 0 80 61 00
        E 0 90 1a 60
        E 0 90 55 60
        E 0 90 61 60
        E 80 80 1a 00
        E 0 80 55 00
        E 0 80 61 00
        E 80 90 1b 60
        E 0 90 61 60
        E 80 80 1b 00
        E 0 80 61 00
        E 0 90 1a 60
        E 0 90 49 60
        E 0 90 55 60
        E 0 90 61 60
        E 80 80 1a 00
        E 0 80 49 00
        E 0 80 55 00
        E 0 80 61 00
        E 80 90 1b 60
        E 0 90 61 60
        E 80 80 1b 00
        E 0 80 61 00
        E 0 90 1a 60
        E 0 90 55 60
        E 0 90 61 60
        E 80 80 1a 00
        E 0 80 55 00
        E 0 80 61 00
        E 80 90 1a 60
        E 0 90 61 60
        E 80 80 1a 00
        E 0 80 61 00
        E 0 90 1f 60
        E 0 90 3e 60
        E 0 90 4a 60
        E 0 90 56 60
        E 0 90 62 60
        E 120 80 74 00
        E 0 80 1f 00
        E 0 80 3e 00
        E 0 80 4a 00
        E 0 80 56 00
        E 0 80 62 00
        E 120 90 1a 60
        E 0 90 55 60
        E 0 90 61 60
        E 120 80 1a 00
        E 0 80 55 00
        E 0 80 61 00
        E 120 90 1f 60
        E 0 90 4a 60
        E 0 90 56 60
        E 0 90 62 60
        E 120 80 1f 00
        E 0 80 4a 00
        E 0 80 56 00
        E 0 80 62 00
        E 120 90 1a 60
        E 0 90 55 60
        E 0 90 61 60
        E 120 80 1a 00
        E 0 80 55 00
        E 0 80 61 00
        E 120 90 1f 60
        E 0 90 3e 60
        E 0 90 4a 60
        E 0 90 56 60
        E 0 90 62 60
        E 120 80 1f 00
        E 0 80 3e 00
        E 0 80 4a 00
        E 0 80 56 00
        E 0 80 62 00
        E 120 90 1a 60
        E 0 90 55 60
        E 0 90 61 60
        E 120 80 1a 00
        E 0 80 55 00
        E 0 80 61 00
        E 120 90 1f 60
        E 0 90 4a 60
        E 0 90 56 60
        E 0 90 62 60
        E 120 80 1f 00
        E 0 80 4a 00
        E 0 80 56 00
        E 0 80 62 00
        E 120 90 1a 60
        E 0 90 55 60
        E 0 90 61 60
        E 120 80 1a 00
        E 0 80 55 00
        E 0 80 61 00
        E 120 90 1f 60
        E 0 90 3e 60
        E 0 90 4a 60
        E 0 90 56 60
        E 0 90 62 60
        E 120 80 1f 00
        E 0 80 3e 00
        E 0 80 4a 00
        E 0 80 56 00
        E 0 80 62 00
        E 120 90 1a 60
        E 0 90 55 60
        E 0 90 61 60
        E 120 80 1a 00
        E 0 80 55 00
        E 0 80 61 00
        E 120 90 1f 60
        E 0 90 4a 60
        E 0 90 56 60
        E 0 90 62 60
        E 120 80 1f 00
        E 0 80 4a 00
        E 0 80 56 00
        E 0 80 62 00
        E 120 90 1a 60
        E 0 90 55 60
        E 0 90 61 60
        E 120 80 1a 00
        E 0 80 55 00
        E 0 80 61 00
        E 120 90 1f 60
        E 0 90 3e 60
        E 0 90 4a 60
        E 0 90 56 60
        E 0 90 62 60
        E 120 80 1f 00
        E 0 80 3e 00
        E 0 80 4a 00
        E 0 80 56 00
        E 0 80 62 00
        E 120 90 1a 60
        E 0 90 55 60
        E 0 90 61 60
        E 120 80 1a 00
        E 0 80 55 00
        E 0 80 61 00
        E 120 90 1f 60
        E 0 90 4a 60
        E 0 90 56 60
        E 0 90 62 60
        E 120 80 1f 00
        E 0 80 4a 00
        E 0 80 56 00
        E 0 80 62 00
        E 120 90 1a 60
        E 0 90 55 60
        E 0 90 61 60
        E 120 80 1a 00
        E 0 80 55 00
        E 0 80 61 00
        E 120 90 1f 60
        E 0 90 3e 60
        E 0 90 4a 60
        E 0 90 56 60
        E 0 90 62 60
        E 120 80 1f 00
        E 0 80 3e 00
        E 0 80 4a 00
        E 0 80 56 00
        E 0 80 62 00
        E 120 90 1a 60
        E 0 90 55 60
        E 0 90 61 60
        E 120 80 1a 00
        E 0 80 55 00
        E 0 80 61 00
        E 120 90 1f 60
        E 0 90 4a 60
        E 0 90 56 60
        E 0 90 62 60
        E 120 80 1f 00
        E 0 80 4a 00
        E 0 80 56 00
        E 0 80 62 00
        E 120 90 1a 60
        E 0 90 55 60
        E 0 90 61 60
        E 120 80 1a 00
        E 0 80 55 00
        E 0 80 61 00
        E 120 90 1f 60
        E 0 90 3e 60
        E 0 90 4a 60
        E 0 90 56 60
        E 0 90 62 60
        E 120 80 1f 00
        E 0 80 3e 00
        E 0 80 4a 00
        E 0 80 56 00
        E 0 80 62 00
        E 120 90 1a 60
        E 0 90 55 60
        E 0 90 61 60
        E 120 80 1a 00
        E 0 80 55 00
        E 0 80 61 00
        E 120 90 1f 60
        E 0 90 4a 60
        E 0 90 56 60
        E 0 90 62 60
        E 120 80 1f 00
        E 0 80 4a 00
        E 0 80 56 00
        E 0 80 62 00
        E 120 90 1a 60
        E 0 90 55 60
        E 0 90 61 60
        E 120 80 1a 00
        E 0 80 55 00
        E 0 80 61 00
        E 120 90 1f 60
        E 0 90 3e 60
        E 0 90 4a 60
        E 0 90 56 60
        E 0 90 62 60
        E 0 90 78 60
        E 0 90 79 60
        E 0 90 7a 60
        E 0 90 7b 60
        E 0 90 7c 60
        E 120 80 1f 00
        E 0 80 3e 00
        E 0 80 4a 00
        E 0 80 56 00
        E 0 80 62 00
        E 120 90 1a 60
        E 0 90 55 60
        E 0 90 61 60
        E 120 80 1a 00
        E 0 80 55 00
        E 0 80 61 00
        E 120 90 1a 60
        E 0 90 49 60
        E 0 90 55 60
        E 0 90 61 60
        E 120 80 1a 00
        E 0 80 49 00
        E 0 80 55 00
        E 0 80 61 00
        E 120 90 1a 60
        E 0 90 55 60
        E 0 90 61 60
        E 120 80 1a 00
        E 0 80 55 00
        E 0 80 61 00
        E 120 90 1f 60
        E 0 90 3e 60
        E 0 90 4a 60
        E 0 90 56 60
        E 0 90 62 60
        E 120 80 1f 00
        E 0 80 3e 00
        E 0 80 4a 00
        E 0 80 56 00
        E 0 80 62 00
        E 120 90 1f 60
        E 0 90 56 60
        E 0 90 62 60
        E 120 80 1f 00
        E 0 80 56 00
        E 0 80 62 00
        E 360 90 19 60
        E 0 90 1f 60
        E 0 90 57 60
        E 0 90 63 60
        E 120 80 1f 00
        E 0 80 57 00
        E 0 80 63 00
        E 120 80 78 00
        E 0 80 79 00
        E 0 80 7a 00
        E 0 80 7b 00
        E 0 80 7c 00
        E 0 80 19 00
        E 0 90 1f 60
        E 0 90 3e 60
        E 0 90 4a 60
        E 0 90 56 60
        E 0 90 62 60
        E 120 80 1f 00
        E 0 80 3e 00
        E 0 80 4a 00
        E 0 80 56 00
        E 0 80 62 00
        E 120 90 1a 60
        E 0 90 55 60
        E 0 90 61 60
        E 120 80 1a 00
        E 0 80 55 00
        E 0 80 61 00
        E 120 90 1f 60
        E 0 90 4a 60
        E 0 90 56 60
        E 0 90 62 60
        E 120 80 1f 00
        E 0 80 4a 00
        E 0 80 56 00
        E 0 80 62 00
        E 120 90 1a 60
        E 0 90 55 60
        E 0 90 61 60
        E 120 80 1a 00
        E 0 80 55 00
        E 0 80 61 00
        E 120 90 1f 60
        E 0 90 3e 60
        E 0 90 4a 60
        E 0 90 56 60
        E 0 90 62 60
        E 120 80 1f 00
        E 0 80 3e 00
        E 0 80 4a 00
        E 0 80 56 00
        E 0 80 62 00
        E 120 90 1a 60
        E 0 90 55 60
        E 0 90 61 60
        E 120 80 1a 00
        E 0 80 55 00
        E 0 80 61 00
        E 120 90 1f 60
        E 0 90 4a 60
        E 0 90 56 60
        E 0 90 62 60
        E 120 80 1f 00
        E 0 80 4a 00
        E 0 80 56 00
        E 0 80 62 00
        E 120 90 1a 60
        E 0 90 55 60
        E 0 90 61 60
        E 120 80 1a 00
        E 0 80 55 00
        E 0 80 61 00
        E 120 90 1f 60
        E 0 90 3e 60
        E 0 90 4a 60
        E 0 90 56 60
        E 0 90 62 60
        E 120 80 1f 00
        E 0 80 3e 00
        E 0 80 4a 00
        E 0 80 56 00
        E 0 80 62 00
        E 120 90 1a 60
        E 0 90 55 60
        E 0 90 61 60
        E 120 80 1a 00
        E 0 80 55 00
        E 0 80 61 00
        E 120 90 1f 60
        E 0 90 4a 60
        E 0 90 56 60
        E 0 90 62 60
        E 120 80 1f 00
        E 0 80 4a 00
        E 0 80 56 00
        E 0 80 62 00
        E 120 90 1a 60
        E 0 90 55 60
        E 0 90 61 60
        E 120 80 1a 00
        E 0 80 55 00
        E 0 80 61 00
        E 120 90 1f 60
        E 0 90 3e 60
        E 0 90 4a 60
        E 0 90 56 60
        E 0 90 62 60
        E 120 80 1f 00
        E 0 80 3e 00
        E 0 80 4a 00
        E 0 80 56 00
        E 0 80 62 00
        E 120 90 1a 60
        E 0 90 55 60
        E 0 90 61 60
        E 120 80 1a 00
        E 0 80 55 00
        E 0 80 61 00
        E 120 90 1f 60
        E 0 90 4a 60
        E 0 90 56 60
        E 0 90 62 60
        E 120 80 1f 00
        E 0 80 4a 00
        E 0 80 56 00
        E 0 80 62 00
        E 120 90 1a 60
        E 0 90 55 60
        E 0 90 61 60
        E 120 80 1a 00
        E 0 80 55 00
        E 0 80 61 00
        E 120 90 1f 60
        E 0 90 3e 60
        E 0 90 4a 60
        E 0 90 56 60
        E 0 90 62 60
        E 120 80 1f 00
        E 0 80 3e 00
        E 0 80 4a 00
        E 0 80 56 00
        E 0 80 62 00
        E 120 90 1a 60
        E 0 90 55 60
        E 0 90 61 60
        E 120 80 1a 00
        E 0 80 55 00
        E 0 80 61 00
        E 120 90 1f 60
        E 0 90 4a 60
        E 0 90 56 60
        E 0 90 62 60
        E 120 80 1f 00
        E 0 80 4a 00
        E 0 80 56 00
        E 0 80 62 00
        E 120 90 1a 60
        E 0 90 55 60
        E 0 90 61 60
        E 120 80 1a 00
        E 0 80 55 00
        E 0 80 61 00
        E 120 90 1f 60
        E 0 90 3e 60
        E 0 90 4a 60
        E 0 90 56 60
        E 0 90 62 60
        E 120 80 1f 00
        E 0 80 3e 00
        E 0 80 4a 00
        E 0 80 56 00
        E 0 80 62 00
        E 120 90 1a 60
        E 0 90 55 60
        E 0 90 61 60
        E 120 80 1a 00
        E 0 80 55 00
        E 0 80 61 00
        E 120 90 1f 60
        E 0 90 4a 60
        E 0 90 56 60
        E 0 90 62 60
        E 120 80 1f 00
        E 0 80 4a 00
        E 0 80 56 00
        E 0 80 62 00
        E 120 90 1a 60
        E 0 90 55 60
        E 0 90 61 60
        E 120 80 1a 00
        E 0 80 55 00
        E 0 80 61 00
        E 120 90 1f 60
        E 0 90 3e 60
        E 0 90 4a 60
        E 0 90 56 60
        E 0 90 62 60
        E 0 90 78 60
        E 0 90 79 60
        E 0 90 7a 60
        E 0 90 7b 60
        E 0 90 7c 60
        E 120 80 1f 00
        E 0 80 3e 00
        E 0 80 4a 00
        E 0 80 56 00
        E 0 80 62 00
        E 120 90 1a 60
        E 0 90 55 60
        E 0 90 61 60
        E 120 80 1a 00
        E 0 80 55 00
        E 0 80 61 00
        E 120 90 1a 60
        E 0 90 49 60
        E 0 90 55 60
        E 0 90 61 60
        E 120 80 1a 00
        E 0 80 49 00
        E 0 80 55 00
        E 0 80 61 00
        E 120 90 1a 60
        E 0 90 55 60
        E 0 90 61 60
        E 120 80 1a 00
        E 0 80 55 00
        E 0 80 61 00
        E 120 90 1f 60
        E 0 90 3e 60
        E 0 90 4a 60
        E 0 90 56 60
        E 0 90 62 60
        E 120 80 1f 00
        E 0 80 3e 00
        E 0 80 4a 00
        E 0 80 56 00
        E 0 80 62 00
        E 120 90 1f 60
        E 0 90 56 60
        E 0 90 62 60
        E 120 80 1f 00
        E 0 80 56 00
        E 0 80 62 00
        E 360 90 19 60
        E 0 90 1f 60
        E 0 90 57 60
        E 0 90 63 60
        E 120 80 1f 00
        E 0 80 57 00
        E 0 80 63 00
        E 120 80 78 00
        E 0 80 79 00
        E 0 80 7a 00
        E 0 80 7b 00
        E 0 80 7c 00
        E 0 80 19 00
        E 0 90 1f 60
        E 0 90 3e 60
        E 0 90 4a 60
        E 0 90 56 60
        E 0 90 62 60
        E 0 90 74 60
        E 120 80 1f 00
        E 0 80 3e 00
        E 0 80 4a 00
        E 0 80 56 00
        E 0 80 62 00
        E 120 90 1a 60
        E 0 90 55 60
        E 0 90 61 60
        E 120 80 1a 00
        E 0 80 55 00
        E 0 80 61 00
        E 120 90 1f 60
        E 0 90 4a 60
        E 0 90 56 60
        E 0 90 62 60
        E 120 80 1f 00
        E 0 80 4a 00
        E 0 80 56 00
        E 0 80 62 00
        E 120 90 1a 60
        E 0 90 55 60
        E 0 90 61 60
        E 120 80 1a 00
        E 0 80 55 00
        E 0 80 61 00
        E 120 90 1f 60
        E 0 90 3e 60
        E 0 90 4a 60
        E 0 90 56 60
        E 0 90 62 60
        E 120 80 1f 00
        E 0 80 3e 00
        E 0 80 4a 00
        E 0 80 56 00
        E 0 80 62 00
        E 120 90 1a 60
        E 0 90 55 60
        E 0 90 61 60
        E 120 80 1a 00
        E 0 80 55 00
        E 0 80 61 00
        E 120 90 1f 60
        E 0 90 4a 60
        E 0 90 56 60
        E 0 90 62 60
        E 120 80 1f 00
        E 0 80 4a 00
        E 0 80 56 00
        E 0 80 62 00
        E 120 90 1a 60
        E 0 90 55 60
        E 0 90 61 60
        E 120 80 1a 00
        E 0 80 55 00
        E 0 80 61 00
        E 120 90 1f 60
        E 0 90 3e 60
        E 0 90 4a 60
        E 0 90 56 60
        E 0 90 62 60
        E 120 80 74 00
        E 0 80 1f 00
        E 0 80 3e 00
        E 0 80 4a 00
        E 0 80 56 00
        E 0 80 62 00
        E 120 90 1a 60
        E 0 90 55 60
        E 0 90 61 60
        E 120 80 1a 00
        E 0 80 55 00
        E 0 80 61 00
        E 120 90 1f 60
        E 0 90 4a 60
        E 0 90 56 60
        E 0 90 62 60
        E 120 80 1f 00
        E 0 80 4a 00
        E 0 80 56 00
        E 0 80 62 00
        E 120 90 1a 60
        E 0 90 55 60
        E 0 90 61 60
        E 120 80 1a 00
        E 0 80 55 00
        E 0 80 61 00
        E 120 90 1f 60
        E 0 90 3e 60
        E 0 90 4a 60
        E 0 90 56 60
        E 0 90 62 60
        E 120 80 1f 00
        E 0 80 3e 00
        E 0 80 4a 00
        E 0 80 56 00
        E 0 80 62 00
        E 120 90 1a 60
        E 0 90 55 60
        E 0 90 61 60
        E 120 80 1a 00
        E 0 80 55 00
        E 0 80 61 00
        E 120 90 1f 60
        E 0 90 4a 60
        E 0 90 56 60
        E 0 90 62 60
        E 120 80 1f 00
        E 0 80 4a 00
        E 0 80 56 00
        E 0 80 62 00
        E 120 90 1a 60
        E 0 90 55 60
        E 0 90 61 60
        E 120 80 1a 00
        E 0 80 55 00
        E 0 80 61 00
        E 120 90 1f 60
        E 0 90 3e 60
        E 0 90 4a 60
        E 0 90 56 60
        E 0 90 62 60
        E 120 80 1f 00
        E 0 80 3e 00
        E 0 80 4a 00
        E 0 80 56 00
        E 0 80 62 00
        E 120 90 1a 60
        E 0 90 55 60
        E 0 90 61 60
        E 120 80 1a 00
        E 0 80 55 00
        E 0 80 61 00
        E 120 90 1f 60
        E 0 90 4a 60
        E 0 90 56 60
        E 0 90 62 60
        E 120 80 1f 00
        E 0 80 4a 00
        E 0 80 56 00
        E 0 80 62 00
        E 120 90 1a 60
        E 0 90 55 60
        E 0 90 61 60
        E 120 80 1a 00
        E 0 80 55 00
        E 0 80 61 00
        E 120 90 1f 60
        E 0 90 3e 60
        E 0 90 4a 60
        E 0 90 56 60
        E 0 90 62 60
        E 120 80 1f 00
        E 0 80 3e 00
        E 0 80 4a 00
        E 0 80 56 00
        E 0 80 62 00
        E 120 90 1a 60
        E 0 90 55 60
        E 0 90 61 60
        E 120 80 1a 00
        E 0 80 55 00
        E 0 80 61 00
        E 120 90 1f 60
        E 0 90 4a 60
        E 0 90 56 60
        E 0 90 62 60
        E 120 80 1f 00
        E 0 80 4a 00
        E 0 80 56 00
        E 0 80 62 00
        E 120 90 1a 60
        E 0 90 55 60
        E 0 90 61 60
        E 120 80 1a 00
        E 0 80 55 00
        E 0 80 61 00
        E 120 90 1f 60
        E 0 90 3e 60
        E 0 90 4a 60
        E 0 90 56 60
        E 0 90 62 60
        E 0 90 78 60
        E 0 90 79 60
        E 0 90 7a 60
        E 0 90 7b 60
        E 0 90 7c 60
        E 120 80 1f 00
        E 0 80 3e 00
        E 0 80 4a 00
        E 0 80 56 00
        E 0 80 62 00
        E 120 90 1a 60
        E 0 90 55 60
        E 0 90 61 60
        E 120 80 1a 00
        E 0 80 55 00
        E 0 80 61 00
        E 120 90 1f 60
        E 0 90 4a 60
        E 0 90 56 60
        E 0 90 62 60
        E 120 80 1f 00
        E 0 80 4a 00
        E 0 80 56 00
        E 0 80 62 00
        E 120 90 1a 60
        E 0 90 55 60
        E 0 90 61 60
        E 120 80 1a 00
        E 0 80 55 00
        E 0 80 61 00
        E 120 90 1b 60
        E 0 90 3d 60
        E 0 90 49 60
        E 0 90 55 60
        E 0 90 61 60
        E 80 80 1b 00
        E 0 80 3d 00
        E 0 80 49 00
        E 0 80 55 00
        E 0 80 61 00
        E 0 90 1a 60
        E 0 90 61 60
        E 80 80 1a 00
        E 0 80 61 00
        E 0 90 1b 60
        E 0 90 61 60
        E 80 80 1b 00
        E 0 80 61 00
        E 0 90 1a 60
        E 0 90 55 60
        E 0 90 61 60
        E 80 80 1a 00
        E 0 80 55 00
        E 0 80 61 00
        E 80 90 1b 60
        E 0 90 61 60
        E 80 80 1b 00
        E 0 80 61 00
        E 0 90 1a 60
        E 0 90 49 60
        E 0 90 55 60
        E 0 90 61 60
        E 80 80 1a 00
        E 0 80 49 00
        E 0 80 55 00
        E 0 80 61 00
        E 80 90 1b 60
        E 0 90 61 60
        E 80 80 1b 00
        E 0 80 61 00
        E 0 90 1a 60
        E 0 90 55 60
        E 0 90 61 60
        E 80 80 1a 00
        E 0 80 55 00
        E 0 80 61 00
        E 80 90 1a 60
        E 0 90 61 60
        E 80 80 78 00
        E 0 80 79 00
        E 0 80 7a 00
        E 0 80 7b 00
        E 0 80 7c 00
        E 0 80 1a 00
        E 0 80 61 00
        E 0 90 1f 60
        E 0 90 3e 60
        E 0 90 4a 60
        E 0 90 56 60
        E 0 90 62 60
        E 120 80 1f 00
        E 0 80 3e 00
        E 0 80 4a 00
        E 0 80 56 00
        E 0 80 62 00
        E 120 90 1a 60
        E 0 90 55 60
        E 0 90 61 60
        E 120 80 1a 00
        E 0 80 55 00
        E 0 80 61 00
        E 120 90 1f 60
        E 0 90 4a 60
        E 0 90 56 60
        E 0 90 62 60
        E 120 80 1f 00
        E 0 80 4a 00
        E 0 80 56 00
        E 0 80 62 00
        E 120 90 1a 60
        E 0 90 55 60
        E 0 90 61 60
        E 120 80 1a 00
        E 0 80 55 00
        E 0 80 61 00
        E 120 90 1f 60
        E 0 90 3e 60
        E 0 90 4a 60
        E 0 90 56 60
        E 0 90 62 60
        E 120 80 1f 00
        E 0 80 3e 00
        E 0 80 4a 00
        E 0 80 56 00
        E 0 80 62 00
        E 120 90 1a 60
        E 0 90 55 60
        E 0 90 61 60
        E 120 80 1a 00
        E 0 80 55 00
        E 0 80 61 00
        E 120 90 1f 60
        E 0 90 4a 60
        E 0 90 56 60
        E 0 90 62 60
        E 120 80 1f 00
        E 0 80 4a 00
        E 0 80 56 00
        E 0 80 62 00
        E 120 90 1a 60
        E 0 90 55 60
        E 0 90 61 60
        E 120 80 1a 00
        E 0 80 55 00
        E 0 80 61 00
        E 120 90 1f 60
        E 0 90 3e 60
        E 0 90 4a 60
        E 0 90 56 60
        E 0 90 62 60
        E 120 80 1f 00
        E 0 80 3e 00
        E 0 80 4a 00
        E 0 80 56 00
        E 0 80 62 00
        E 120 90 1a 60
        E 0 90 55 60
        E 0 90 61 60
        E 120 80 1a 00
        E 0 80 55 00
        E 0 80 61 00
        E 120 90 1f 60
        E 0 90 4a 60
        E 0 90 56 60
        E 0 90 62 60
        E 120 80 1f 00
        E 0 80 4a 00
        E 0 80 56 00
        E 0 80 62 00
        E 120 90 1a 60
        E 0 90 55 60
        E 0 90 61 60
        E 120 80 1a 00
        E 0 80 55 00
        E 0 80 61 00
        E 120 90 1f 60
        E 0 90 3e 60
        E 0 90 4a 60
        E 0 90 56 60
        E 0 90 62 60
        E 120 80 1f 00
        E 0 80 3e 00
        E 0 80 4a 00
        E 0 80 56 00
        E 0 80 62 00
        E 120 90 1a 60
        E 0 90 55 60
        E 0 90 61 60
        E 120 80 1a 00
        E 0 80 55 00
        E 0 80 61 00
        E 120 90 1f 60
        E 0 90 4a 60
        E 0 90 56 60
        E 0 90 62 60
        E 120 80 1f 00
        E 0 80 4a 00
        E 0 80 56 00
        E 0 80 62 00
        E 120 90 1a 60
        E 0 90 55 60
        E 0 90 61 60
        E 120 80 1a 00
        E 0 80 55 00
        E 0 80 61 00
        E 120 90 1f 60
        E 0 90 3e 60
        E 0 90 4a 60
        E 0 90 56 60
        E 0 90 62 60
        E 120 80 1f 00
        E 0 80 3e 00
        E 0 80 4a 00
        E 0 80 56 00
        E 0 80 62 00
        E 120 90 1a 60
        E 0 90 55 60
        E 0 90 61 60
        E 120 80 1a 00
        E 0 80 55 00
        E 0 80 61 00
        E 120 90 1f 60
        E 0 90 4a 60
        E 0 90 56 60
        E 0 90 62 60
        E 120 80 1f 00
        E 0 80 4a 00
        E 0 80 56 00
        E 0 80 62 00
        E 120 90 1a 60
        E 0 90 55 60
        E 0 90 61 60
        E 120 80 1a 00
        E 0 80 55 00
        E 0 80 61 00
        E 120 90 1f 60
        E 0 90 3e 60
        E 0 90 4a 60
        E 0 90 56 60
        E 0 90 62 60
        E 120 80 1f 00
        E 0 80 3e 00
        E 0 80 4a 00
        E 0 80 56 00
        E 0 80 62 00
        E 120 90 1a 60
        E 0 90 55 60
        E 0 90 61 60
        E 120 80 1a 00
        E 0 80 55 00
        E 0 80 61 00
        E 120 90 1f 60
        E 0 90 4a 60
        E 0 90 56 60
        E 0 90 62 60
        E 120 80 1f 00
        E 0 80 4a 00
        E 0 80 56 00
        E 0 80 62 00
        E 120 90 1a 60
        E 0 90 55 60
        E 0 90 61 60
        E 120 80 1a 00
        E 0 80 55 00
        E 0 80 61 00
        E 120 90 1f 60
        E 0 90 3e 60
        E 0 90 4a 60
        E 0 90 56 60
        E 0 90 62 60
        E 120 80 1f 00
        E 0 80 3e 00
        E 0 80 4a 00
        E 0 80 56 00
        E 0 80 62 00
        <X 480 0
          /wFbaWRsZV9yZWFsdGltZV0=
        >
        E 1320 b0 7b 00
        GUID {2CC44924-98C6-42CA-91D9-A3433FCB66D6}
        IGNTEMPO 0 120.00000000 4 4
        SRCCOLOR 3
        VELLANE 132 128 60
        COLORMAP "C:\Program Files\REAPER (x64)\Data\color_maps\rockband_guitarbass.png"
        CFGEDITVIEW -6761.581848 12.955548 0 12 0 0 0
        CFGEDIT 1 1 0 1 1 0 1 1 1 1 1 0.25000000 -8 -8 1544 872 0 2 1 1 0.00000000 0 1 0 0 0.500000 0 0 1.000000 64
        KEYSNAP 0 6 "102030050700" 0 "Pentatonic"
        EVTFILTER 0 -1 -1 -1 -1 0 1 0 0 -1.00000000 -1.00000000
      >
    >
  >
  <TRACK '{8D394B2D-42F9-459F-8BF5-F210E6BF5E3F}'
    NAME "drums"
    PEAKCOL 16576
    BEAT -1
    AUTOMODE 0
    VOLPAN 1.00000000000000 0.00000000000000 -1.00000000000000 -1.00000000000000 1.00000000000000
    MUTESOLO 0 0 0
    IPHASE 0
    ISBUS 2 -1
    BUSCOMP 0 0
    SHOWINMIX 1 0.666700 0.500000 1 0.500000 -1 -1 -1
    FREEMODE 0
    SEL 0
    REC 0 0 0 0 0 0 0
    VU 2
    TRACKHEIGHT 0 0
    INQ 0 0 0 0.5000000000 100 0 0 100
    NCHAN 2
    FX 1
    TRACKID {8D394B2D-42F9-459F-8BF5-F210E6BF5E3F}
    PERF 0
    MIDIOUT -1
    MAINSEND 1 0
    <ITEM
      POSITION 0.00000000000000
      SNAPOFFS 0.00000000000000
      LENGTH 96.00000000000000
      LOOP 0
      ALLTAKES 0
      SEL 0
      FADEIN 1 0.000000 0.000000 1 0
      FADEOUT 1 0.000000 0.000000 1 0
      MUTE 0
      IGUID {71665B50-2CC9-43AA-8652-FCDFA5C331B1}
      IID 16
      NAME "drums.wav"
      VOLPAN 1.000000 0.000000 1.000000 -1.000000
      SOFFS 0.00000000000000
      PLAYRATE 1.00000000000000 1 0.00000000000000 -1
      CHANMODE 0
      GUID {923BFB5A-B1A2-4ED0-8F2C-1A2740F1D762}
      <SOURCE WAVE
        FILE "wav\drums.wav"
      >
    >
  >
  <TRACK '{1CA86846-0CF1-4A41-9E6D-A01642D1FA30}'
    NAME "PART BASS"
    PEAKCOL 16576
    BEAT -1
    AUTOMODE 0
    VOLPAN 1.00000000000000 0.00000000000000 -1.00000000000000 -1.00000000000000 1.00000000000000
    MUTESOLO 0 0 0
    IPHASE 0
    ISBUS 1 1
    BUSCOMP 0 0
    SHOWINMIX 1 0.666700 0.500000 1 0.500000 -1 -1 -1
    FREEMODE 0
    SEL 0
    REC 0 0 0 0 0 0 0
    VU 2
    TRACKHEIGHT 0 0
    INQ 0 0 0 0.5000000000 100 0 0 100
    NCHAN 2
    FX 1
    TRACKID {1CA86846-0CF1-4A41-9E6D-A01642D1FA30}
    PERF 0
    MIDIOUT -1
    <MIDINOTENAMES
      0 127 "TRILL MARKER"
      0 126 "TREMOLO MARKER"
      0 125 "---"
      0 124 "BRE"
      0 123 "BRE"
      0 122 "BRE"
      0 121 "BRE"
      0 120 "BRE (use all 5)"
      0 119 "----"
      0 116 "OVERDRIVE"
      0 115 "----"
      0 103 "Solo Marker"
      0 102 "Force HOPO Off"
      0 101 "Force HOPO On"
      0 100 "EXPERT Orange"
      0 99 "EXPERT Blue"
      0 98 "EXPERT Yellow"
      0 97 "EXPERT Red"
      0 96 "EXPERT Green"
      0 95 "----"
      0 90 "Force HOPO Off"
      0 89 "Force HOPO On"
      0 88 "HARD Orange"
      0 87 "HARD Blue"
      0 86 "HARD Yellow"
      0 85 "HARD Red"
      0 84 "HARD Green"
      0 77 "----"
      0 76 "MEDIUM Orange"
      0 75 "MEDIUM Blue"
      0 74 "MEDIUM Yellow"
      0 73 "MEDIUM Red"
      0 72 "MEDIUM Green"
      0 65 "----"
      0 64 "EASY Orange"
      0 63 "EASY Blue"
      0 62 "EASY Yellow"
      0 61 "EASY Red"
      0 60 "EASY Green"
      0 59 "Fret 12"
      0 57 "Fret 11"
      0 56 "Fret 10"
      0 55 "Fret 9"
      0 53 "Fret 8"
      0 52 "Fret 7"
      0 50 "Fret 6"
      0 49 "Fret 5"
      0 47 "Fret 4"
      0 45 "Fret 3"
      0 43 "Fret 2"
      0 40 "Fret 1"
    >
    MAINSEND 1 0
    <FXCHAIN
      WNDRECT 0 43 891 559
      SHOW 0
      LASTSEL 0
      DOCKED 0
      BYPASS 0 0
      <VST "VSTi: RBN Preview (RBN)" "rbprev_vst64.dll" 0 ""
        dnBicu5e7f4AAAAAAgAAAAEAAAAAAAAAAgAAAAAAAAAEAAAAAQAAAA==
        AAAQAAMAqgAAABAAAAA=
      >
      FLOATPOS 0 0 0 0
      FXID {DEE72FA0-38B7-4BAD-90A4-72898A4EB01B}
      WAK 0
    >
    <ITEM
      POSITION 0.00000000000000
      SNAPOFFS 0.00000000000000
      LENGTH 96.00000000000000
      LOOP 0
      ALLTAKES 0
      SEL 0
      FADEIN 1 0.000000 0.000000 1 0
      FADEOUT 1 0.000000 0.000000 1 0
      MUTE 0
      IGUID {6AB3F6F5-AB54-4EC1-9AD3-A839479DEAFE}
      IID 2
      NAME "PART BASS"
      VOLPAN 1.000000 0.000000 1.000000 -1.000000
      SOFFS 0.00000000000000 0.00000000000000
      PLAYRATE 1.00000000000000 1 0.00000000000000 -1
      CHANMODE 0
      GUID {B72A4F39-CE70-4DCB-8615-D2A26A9603ED}
      <SOURCE MIDI
        HASDATA 1 480 QN
        POOLEDEVTS {E38CAEAB-B68E-4B37-809E-FF693C096593}
        <X 0 0
          /wNQQVJUIEJBU1M=
        >
        <X 3840 0
          /wFbcGxheV0=
        >
        E 0 90 2f 60
        E 0 90 3e 60
        E 0 90 4b 60
        E 0 90 57 60
        E 0 90 63 60
        E 0 90 74 60
        E 80 80 3e 00
        E 0 80 4b 00
        E 0 80 57 00
        E 0 80 63 00
        E 80 90 63 60
        E 80 80 63 00
        E 160 90 57 60
        E 0 90 63 60
        E 80 80 57 00
        E 0 80 63 00
        E 160 90 4b 60
        E 0 90 57 60
        E 0 90 63 60
        E 80 80 4b 00
        E 0 80 57 00
        E 0 80 63 00
        E 160 90 57 60
        E 0 90 63 60
        E 80 80 57 00
        E 0 80 63 00
        E 160 90 3e 60
        E 0 90 4b 60
        E 0 90 57 60
        E 0 90 63 60
        E 80 80 3e 00
        E 0 80 4b 00
        E 0 80 57 00
        E 0 80 63 00
        E 160 90 57 60
        E 0 90 63 60
        E 80 80 57 00
        E 0 80 63 00
        E 160 90 4b 60
        E 0 90 57 60
        E 0 90 63 60
        E 80 80 4b 00
        E 0 80 57 00
        E 0 80 63 00
        E 160 90 57 60
        E 0 90 63 60
        E 80 80 57 00
        E 0 80 63 00
        E 160 90 3e 60
        E 0 90 4b 60
        E 0 90 57 60
        E 0 90 63 60
        E 80 80 3e 00
        E 0 80 4b 00
        E 0 80 57 00
        E 0 80 63 00
        E 160 90 57 60
        E 0 90 63 60
        E 80 80 57 00
        E 0 80 63 00
        E 160 90 4b 60
        E 0 90 57 60
        E 0 90 63 60
        E 80 80 4b 00
        E 0 80 57 00
        E 0 80 63 00
        E 160 90 55 60
        E 0 90 63 60
        E 80 80 63 00
        E 0 90 61 60
        E 40 80 55 00
        E 80 80 61 00
        E 360 90 4a 60
        E 0 90 56 60
        E 0 90 62 60
        E 120 80 4a 00
        E 0 80 56 00
        E 0 80 62 00
        E 241 80 2f 00
        E 119 80 74 00
        E 0 90 2d 60
        E 0 90 3c 60
        E 0 90 48 60
        E 0 90 54 60
        E 0 90 60 60
        E 120 80 3c 00
        E 0 80 48 00
        E 0 80 54 00
        E 0 80 60 00
        E 360 90 3c 60
        E 0 90 48 60
        E 0 90 54 60
        E 0 90 60 60
        E 120 80 3c 00
        E 0 80 48 00
        E 0 80 54 00
        E 0 80 60 00
        E 360 90 3c 60
        E 0 90 48 60
        E 0 90 54 60
        E 0 90 60 60
        E 120 80 3c 00
        E 0 80 48 00
        E 0 80 54 00
        E 0 80 60 00
        E 360 90 48 60
        E 0 90 54 60
        E 0 90 60 60
        E 120 80 48 00
        E 0 80 54 00
        E 0 80 60 00
        E 360 90 3d 60
        E 0 90 49 60
        E 0 90 55 60
        E 0 90 61 60
        E 120 80 3d 00
        E 0 80 49 00
        E 0 80 55 00
        E 0 80 61 00
        E 360 90 3d 60
        E 0 90 49 60
        E 0 90 55 60
        E 0 90 61 60
        E 120 80 3d 00
        E 0 80 49 00
        E 0 80 55 00
        E 0 80 61 00
        E 360 90 3d 60
        E 0 90 49 60
        E 0 90 55 60
        E 0 90 61 60
        E 120 80 3d 00
        E 0 80 49 00
        E 0 80 55 00
        E 0 80 61 00
        E 360 90 49 60
        E 0 90 55 60
        E 0 90 61 60
        E 120 80 49 00
        E 0 80 55 00
        E 0 80 61 00
        E 360 90 3e 60
        E 0 90 4b 60
        E 0 90 58 60
        E 0 90 64 60
        E 120 80 3e 00
        E 0 80 4b 00
        E 0 80 58 00
        E 0 80 64 00
        E 360 90 3e 60
        E 0 90 4b 60
        E 0 90 58 60
        E 0 90 64 60
        E 120 80 3e 00
        E 0 80 4b 00
        E 0 80 58 00
        E 0 80 64 00
        E 360 90 3e 60
        E 0 90 4b 60
        E 0 90 58 60
        E 0 90 64 60
        E 120 80 3e 00
        E 0 80 4b 00
        E 0 80 58 00
        E 0 80 64 00
        E 360 90 4b 60
        E 0 90 58 60
        E 0 90 64 60
        E 120 80 4b 00
        E 0 80 58 00
        E 0 80 64 00
        E 360 90 3c 60
        E 0 90 48 60
        E 0 90 54 60
        E 0 90 60 60
        E 120 80 3c 00
        E 0 80 48 00
        E 0 80 54 00
        E 0 80 60 00
        E 1800 90 3c 60
        E 0 90 48 60
        E 0 90 54 60
        E 0 90 60 60
        E 0 90 74 60
        E 120 80 3c 00
        E 0 80 48 00
        E 0 80 54 00
        E 0 80 60 00
        E 360 90 3c 60
        E 0 90 48 60
        E 0 90 54 60
        E 0 90 60 60
        E 120 80 3c 00
        E 0 80 48 00
        E 0 80 54 00
        E 0 80 60 00
        E 360 90 3c 60
        E 0 90 48 60
        E 0 90 54 60
        E 0 90 60 60
        E 120 80 3c 00
        E 0 80 48 00
        E 0 80 54 00
        E 0 80 60 00
        E 360 90 48 60
        E 0 90 54 60
        E 0 90 60 60
        E 120 80 48 00
        E 0 80 54 00
        E 0 80 60 00
        E 360 80 74 00
        E 0 90 3d 60
        E 0 90 49 60
        E 0 90 55 60
        E 0 90 61 60
        E 120 80 3d 00
        E 0 80 49 00
        E 0 80 55 00
        E 0 80 61 00
        E 360 90 3d 60
        E 0 90 49 60
        E 0 90 55 60
        E 0 90 61 60
        E 120 80 3d 00
        E 0 80 49 00
        E 0 80 55 00
        E 0 80 61 00
        E 360 90 3d 60
        E 0 90 49 60
        E 0 90 55 60
        E 0 90 61 60
        E 120 80 3d 00
        E 0 80 49 00
        E 0 80 55 00
        E 0 80 61 00
        E 360 90 49 60
        E 0 90 55 60
        E 0 90 61 60
        E 120 80 49 00
        E 0 80 55 00
        E 0 80 61 00
        E 360 90 3e 60
        E 0 90 4b 60
        E 0 90 58 60
        E 0 90 64 60
        E 120 80 3e 00
        E 0 80 4b 00
        E 0 80 58 00
        E 0 80 64 00
        E 360 90 3e 60
        E 0 90 4b 60
        E 0 90 58 60
        E 0 90 64 60
        E 120 80 3e 00
        E 0 80 4b 00
        E 0 80 58 00
        E 0 80 64 00
        E 360 90 3e 60
        E 0 90 4b 60
        E 0 90 58 60
        E 0 90 64 60
        E 120 80 3e 00
        E 0 80 4b 00
        E 0 80 58 00
        E 0 80 64 00
        E 360 90 4b 60
        E 0 90 58 60
        E 0 90 64 60
        E 120 80 4b 00
        E 0 80 58 00
        E 0 80 64 00
        E 360 90 3c 60
        E 0 90 48 60
        E 0 90 54 60
        E 0 90 60 60
        E 120 80 3c 00
        E 0 80 48 00
        E 0 80 54 00
        E 0 80 60 00
        E 1681 80 2d 00
        E 119 90 2b 60
        E 0 90 3c 60
        E 0 90 48 60
        E 0 90 54 60
        E 0 90 60 60
        E 120 80 3c 00
        E 0 80 48 00
        E 0 80 54 00
        E 0 80 60 00
        E 360 90 49 60
        E 0 90 55 60
        E 0 90 61 60
        E 120 80 49 00
        E 0 80 55 00
        E 0 80 61 00
        E 241 80 2b 00
        E 119 90 28 60
        E 0 90 3e 60
        E 0 90 4a 60
        E 0 90 56 60
        E 0 90 62 60
        E 120 80 3e 00
        E 0 80 4a 00
        E 0 80 56 00
        E 0 80 62 00
        E 360 90 4a 60
        E 0 90 56 60
        E 0 90 62 60
        E 120 80 4a 00
        E 0 80 56 00
        E 0 80 62 00
        E 120 90 57 60
        E 0 90 63 60
        E 120 80 57 00
        E 0 80 63 00
        E 120 90 3d 60
        E 0 90 49 60
        E 0 90 55 60
        E 0 90 61 60
        E 120 80 3d 00
        E 0 80 49 00
        E 0 80 55 00
        E 0 80 61 00
        E 360 90 4a 60
        E 0 90 56 60
        E 0 90 62 60
        E 120 80 4a 00
        E 0 80 56 00
        E 0 80 62 00
        E 360 90 3e 60
        E 0 90 4b 60
        E 0 90 57 60
        E 0 90 63 60
        E 120 80 3e 00
        E 0 80 4b 00
        E 0 80 57 00
        E 0 80 63 00
        E 241 80 28 00
        E 119 90 2b 60
        E 0 90 4a 60
        E 0 90 56 60
        E 0 90 62 60
        E 120 80 4a 00
        E 0 80 56 00
        E 0 80 62 00
        E 120 90 55 60
        E 0 90 61 60
        E 120 80 55 00
        E 0 80 61 00
        E 120 90 3c 60
        E 0 90 48 60
        E 0 90 54 60
        E 0 90 60 60
        E 120 80 3c 00
        E 0 80 48 00
        E 0 80 54 00
        E 0 80 60 00
        E 360 90 49 60
        E 0 90 55 60
        E 0 90 61 60
        E 120 80 49 00
        E 0 80 55 00
        E 0 80 61 00
        E 360 90 3e 60
        E 0 90 4a 60
        E 0 90 56 60
        E 0 90 62 60
        E 120 80 3e 00
        E 0 80 4a 00
        E 0 80 56 00
        E 0 80 62 00
        E 360 90 4b 60
        E 0 90 57 60
        E 0 90 63 60
        E 120 80 4b 00
        E 0 80 57 00
        E 0 80 63 00
        E 120 90 58 60
        E 0 90 64 60
        E 120 80 58 00
        E 0 80 64 00
        E 360 90 55 60
        E 0 90 61 60
        E 120 80 55 00
        E 0 80 61 00
        E 120 90 4a 60
        E 0 90 56 60
        E 0 90 62 60
        E 120 80 4a 00
        E 0 80 56 00
        E 0 80 62 00
        E 120 90 57 60
        E 0 90 63 60
        E 120 80 57 00
        E 0 80 63 00
        E 120 90 3e 60
        E 0 90 4b 60
        E 0 90 58 60
        E 0 90 64 60
        E 120 80 3e 00
        E 0 80 4b 00
        E 0 80 58 00
        E 0 80 64 00
        E 840 90 3c 60
        E 0 90 48 60
        E 0 90 54 60
        E 0 90 60 60
        E 120 80 3c 00
        E 0 80 48 00
        E 0 80 54 00
        E 0 80 60 00
        E 360 90 49 60
        E 0 90 55 60
        E 0 90 61 60
        E 120 80 49 00
        E 0 80 55 00
        E 0 80 61 00
        E 241 80 2b 00
        E 119 90 28 60
        E 0 90 3e 60
        E 0 90 4a 60
        E 0 90 56 60
        E 0 90 62 60
        E 120 80 3e 00
        E 0 80 4a 00
        E 0 80 56 00
        E 0 80 62 00
        E 360 90 4a 60
        E 0 90 56 60
        E 0 90 62 60
        E 120 80 4a 00
        E 0 80 56 00
        E 0 80 62 00
        E 120 90 57 60
        E 0 90 63 60
        E 120 80 57 00
        E 0 80 63 00
        E 120 90 3d 60
        E 0 90 49 60
        E 0 90 55 60
        E 0 90 61 60
        E 120 80 3d 00
        E 0 80 49 00
        E 0 80 55 00
        E 0 80 61 00
        E 360 90 4a 60
        E 0 90 56 60
        E 0 90 62 60
        E 120 80 4a 00
        E 0 80 56 00
        E 0 80 62 00
        E 360 90 3e 60
        E 0 90 4b 60
        E 0 90 57 60
        E 0 90 63 60
        E 120 80 3e 00
        E 0 80 4b 00
        E 0 80 57 00
        E 0 80 63 00
        E 241 80 28 00
        E 119 90 2b 60
        E 0 90 4a 60
        E 0 90 56 60
        E 0 90 62 60
        E 120 80 4a 00
        E 0 80 56 00
        E 0 80 62 00
        E 120 90 55 60
        E 0 90 61 60
        E 120 80 55 00
        E 0 80 61 00
        E 120 90 3c 60
        E 0 90 48 60
        E 0 90 54 60
        E 0 90 60 60
        E 120 80 3c 00
        E 0 80 48 00
        E 0 80 54 00
        E 0 80 60 00
        E 360 90 49 60
        E 0 90 55 60
        E 0 90 61 60
        E 120 80 49 00
        E 0 80 55 00
        E 0 80 61 00
        E 360 90 3e 60
        E 0 90 4a 60
        E 0 90 56 60
        E 0 90 62 60
        E 120 80 3e 00
        E 0 80 4a 00
        E 0 80 56 00
        E 0 80 62 00
        E 360 90 4b 60
        E 0 90 57 60
        E 0 90 63 60
        E 120 80 4b 00
        E 0 80 57 00
        E 0 80 63 00
        E 120 90 58 60
        E 0 90 64 60
        E 120 80 58 00
        E 0 80 64 00
        E 360 90 55 60
        E 0 90 61 60
        E 120 80 55 00
        E 0 80 61 00
        E 120 90 4a 60
        E 0 90 56 60
        E 0 90 62 60
        E 120 80 4a 00
        E 0 80 56 00
        E 0 80 62 00
        E 120 90 57 60
        E 0 90 63 60
        E 120 80 57 00
        E 0 80 63 00
        E 120 90 3e 60
        E 0 90 4b 60
        E 0 90 58 60
        E 0 90 64 60
        E 120 80 3e 00
        E 0 80 4b 00
        E 0 80 58 00
        E 0 80 64 00
        E 721 80 2b 00
        E 119 90 2d 60
        E 0 90 3c 60
        E 0 90 48 60
        E 0 90 54 60
        E 0 90 60 60
        E 120 80 3c 00
        E 0 80 48 00
        E 0 80 54 00
        E 0 80 60 00
        E 360 90 3c 60
        E 0 90 48 60
        E 0 90 54 60
        E 0 90 60 60
        E 120 80 3c 00
        E 0 80 48 00
        E 0 80 54 00
        E 0 80 60 00
        E 360 90 3c 60
        E 0 90 48 60
        E 0 90 54 60
        E 0 90 60 60
        E 120 80 3c 00
        E 0 80 48 00
        E 0 80 54 00
        E 0 80 60 00
        E 360 90 48 60
        E 0 90 54 60
        E 0 90 60 60
        E 120 80 48 00
        E 0 80 54 00
        E 0 80 60 00
        E 360 90 3d 60
        E 0 90 49 60
        E 0 90 55 60
        E 0 90 61 60
        E 120 80 3d 00
        E 0 80 49 00
        E 0 80 55 00
        E 0 80 61 00
        E 360 90 3d 60
        E 0 90 49 60
        E 0 90 55 60
        E 0 90 61 60
        E 120 80 3d 00
        E 0 80 49 00
        E 0 80 55 00
        E 0 80 61 00
        E 360 90 3d 60
        E 0 90 49 60
        E 0 90 55 60
        E 0 90 61 60
        E 120 80 3d 00
        E 0 80 49 00
        E 0 80 55 00
        E 0 80 61 00
        E 360 90 49 60
        E 0 90 55 60
        E 0 90 61 60
        E 120 80 49 00
        E 0 80 55 00
        E 0 80 61 00
        E 360 90 3e 60
        E 0 90 4b 60
        E 0 90 58 60
        E 0 90 64 60
        E 0 90 74 60
        E 120 80 3e 00
        E 0 80 4b 00
        E 0 80 58 00
        E 0 80 64 00
        E 360 90 3e 60
        E 0 90 4b 60
        E 0 90 58 60
        E 0 90 64 60
        E 120 80 3e 00
        E 0 80 4b 00
        E 0 80 58 00
        E 0 80 64 00
        E 360 90 3e 60
        E 0 90 4b 60
        E 0 90 58 60
        E 0 90 64 60
        E 120 80 3e 00
        E 0 80 4b 00
        E 0 80 58 00
        E 0 80 64 00
        E 360 90 4b 60
        E 0 90 58 60
        E 0 90 64 60
        E 120 80 4b 00
        E 0 80 58 00
        E 0 80 64 00
        E 360 90 3c 60
        E 0 90 48 60
        E 0 90 54 60
        E 0 90 60 60
        E 120 80 3c 00
        E 0 80 48 00
        E 0 80 54 00
        E 0 80 60 00
        E 840 80 74 00
        E 960 90 3c 60
        E 0 90 48 60
        E 0 90 54 60
        E 0 90 60 60
        E 120 80 3c 00
        E 0 80 48 00
        E 0 80 54 00
        E 0 80 60 00
        E 360 90 3c 60
        E 0 90 48 60
        E 0 90 54 60
        E 0 90 60 60
        E 120 80 3c 00
        E 0 80 48 00
        E 0 80 54 00
        E 0 80 60 00
        E 360 90 3c 60
        E 0 90 48 60
        E 0 90 54 60
        E 0 90 60 60
        E 120 80 3c 00
        E 0 80 48 00
        E 0 80 54 00
        E 0 80 60 00
        E 360 90 48 60
        E 0 90 54 60
        E 0 90 60 60
        E 120 80 48 00
        E 0 80 54 00
        E 0 80 60 00
        E 360 90 3d 60
        E 0 90 49 60
        E 0 90 55 60
        E 0 90 61 60
        E 120 80 3d 00
        E 0 80 49 00
        E 0 80 55 00
        E 0 80 61 00
        E 360 90 3d 60
        E 0 90 49 60
        E 0 90 55 60
        E 0 90 61 60
        E 120 80 3d 00
        E 0 80 49 00
        E 0 80 55 00
        E 0 80 61 00
        E 360 90 3d 60
        E 0 90 49 60
        E 0 90 55 60
        E 0 90 61 60
        E 120 80 3d 00
        E 0 80 49 00
        E 0 80 55 00
        E 0 80 61 00
        E 360 90 49 60
        E 0 90 55 60
        E 0 90 61 60
        E 120 80 49 00
        E 0 80 55 00
        E 0 80 61 00
        E 360 90 3e 60
        E 0 90 4b 60
        E 0 90 58 60
        E 0 90 64 60
        E 120 80 3e 00
        E 0 80 4b 00
        E 0 80 58 00
        E 0 80 64 00
        E 360 90 3e 60
        E 0 90 4b 60
        E 0 90 58 60
        E 0 90 64 60
        E 120 80 3e 00
        E 0 80 4b 00
        E 0 80 58 00
        E 0 80 64 00
        E 360 90 3e 60
        E 0 90 4b 60
        E 0 90 58 60
        E 0 90 64 60
        E 120 80 3e 00
        E 0 80 4b 00
        E 0 80 58 00
        E 0 80 64 00
        E 360 90 4b 60
        E 0 90 58 60
        E 0 90 64 60
        E 120 80 4b 00
        E 0 80 58 00
        E 0 80 64 00
        E 360 90 3c 60
        E 0 90 48 60
        E 0 90 54 60
        E 0 90 60 60
        E 120 80 3c 00
        E 0 80 48 00
        E 0 80 54 00
        E 0 80 60 00
        E 1681 80 2d 00
        E 119 90 2b 60
        E 0 90 3c 60
        E 0 90 48 60
        E 0 90 54 60
        E 0 90 60 60
        E 120 80 3c 00
        E 0 80 48 00
        E 0 80 54 00
        E 0 80 60 00
        E 360 90 49 60
        E 0 90 55 60
        E 0 90 61 60
        E 120 80 49 00
        E 0 80 55 00
        E 0 80 61 00
        E 241 80 2b 00
        E 119 90 28 60
        E 0 90 3e 60
        E 0 90 4a 60
        E 0 90 56 60
        E 0 90 62 60
        E 120 80 3e 00
        E 0 80 4a 00
        E 0 80 56 00
        E 0 80 62 00
        E 360 90 4a 60
        E 0 90 56 60
        E 0 90 62 60
        E 120 80 4a 00
        E 0 80 56 00
        E 0 80 62 00
        E 120 90 57 60
        E 0 90 63 60
        E 120 80 57 00
        E 0 80 63 00
        E 120 90 3d 60
        E 0 90 49 60
        E 0 90 55 60
        E 0 90 61 60
        E 120 80 3d 00
        E 0 80 49 00
        E 0 80 55 00
        E 0 80 61 00
        E 360 90 4a 60
        E 0 90 56 60
        E 0 90 62 60
        E 120 80 4a 00
        E 0 80 56 00
        E 0 80 62 00
        E 360 90 3e 60
        E 0 90 4b 60
        E 0 90 57 60
        E 0 90 63 60
        E 120 80 3e 00
        E 0 80 4b 00
        E 0 80 57 00
        E 0 80 63 00
        E 241 80 28 00
        E 119 90 2b 60
        E 0 90 4a 60
        E 0 90 56 60
        E 0 90 62 60
        E 120 80 4a 00
        E 0 80 56 00
        E 0 80 62 00
        E 120 90 55 60
        E 0 90 61 60
        E 120 80 55 00
        E 0 80 61 00
        E 120 90 3c 60
        E 0 90 48 60
        E 0 90 54 60
        E 0 90 60 60
        E 120 80 3c 00
        E 0 80 48 00
        E 0 80 54 00
        E 0 80 60 00
        E 360 90 49 60
        E 0 90 55 60
        E 0 90 61 60
        E 120 80 49 00
        E 0 80 55 00
        E 0 80 61 00
        E 360 90 3e 60
        E 0 90 4a 60
        E 0 90 56 60
        E 0 90 62 60
        E 120 80 3e 00
        E 0 80 4a 00
        E 0 80 56 00
        E 0 80 62 00
        E 360 90 4b 60
        E 0 90 57 60
        E 0 90 63 60
        E 120 80 4b 00
        E 0 80 57 00
        E 0 80 63 00
        E 120 90 58 60
        E 0 90 64 60
        E 120 80 58 00
        E 0 80 64 00
        E 360 90 55 60
        E 0 90 61 60
        E 120 80 55 00
        E 0 80 61 00
        E 120 90 4a 60
        E 0 90 56 60
        E 0 90 62 60
        E 120 80 4a 00
        E 0 80 56 00
        E 0 80 62 00
        E 120 90 57 60
        E 0 90 63 60
        E 120 80 57 00
        E 0 80 63 00
        E 120 90 3e 60
        E 0 90 4b 60
        E 0 90 58 60
        E 0 90 64 60
        E 120 80 3e 00
        E 0 80 4b 00
        E 0 80 58 00
        E 0 80 64 00
        E 840 90 3c 60
        E 0 90 48 60
        E 0 90 54 60
        E 0 90 60 60
        E 0 90 74 60
        E 120 80 3c 00
        E 0 80 48 00
        E 0 80 54 00
        E 0 80 60 00
        E 360 90 49 60
        E 0 90 55 60
        E 0 90 61 60
        E 120 80 49 00
        E 0 80 55 00
        E 0 80 61 00
        E 241 80 2b 00
        E 119 90 28 60
        E 0 90 3e 60
        E 0 90 4a 60
        E 0 90 56 60
        E 0 90 62 60
        E 120 80 3e 00
        E 0 80 4a 00
        E 0 80 56 00
        E 0 80 62 00
        E 360 90 4a 60
        E 0 90 56 60
        E 0 90 62 60
        E 120 80 4a 00
        E 0 80 56 00
        E 0 80 62 00
        E 120 90 57 60
        E 0 90 63 60
        E 120 80 57 00
        E 0 80 63 00
        E 120 90 3d 60
        E 0 90 49 60
        E 0 90 55 60
        E 0 90 61 60
        E 120 80 3d 00
        E 0 80 49 00
        E 0 80 55 00
        E 0 80 61 00
        E 360 90 4a 60
        E 0 90 56 60
        E 0 90 62 60
        E 120 80 4a 00
        E 0 80 56 00
        E 0 80 62 00
        E 360 90 3e 60
        E 0 90 4b 60
        E 0 90 57 60
        E 0 90 63 60
        E 120 80 3e 00
        E 0 80 4b 00
        E 0 80 57 00
        E 0 80 63 00
        E 241 80 28 00
        E 119 90 2b 60
        E 0 90 4a 60
        E 0 90 56 60
        E 0 90 62 60
        E 120 80 4a 00
        E 0 80 56 00
        E 0 80 62 00
        E 120 90 55 60
        E 0 90 61 60
        E 120 80 55 00
        E 0 80 61 00
        E 120 80 74 00
        E 0 90 3c 60
        E 0 90 48 60
        E 0 90 54 60
        E 0 90 60 60
        E 120 80 3c 00
        E 0 80 48 00
        E 0 80 54 00
        E 0 80 60 00
        E 360 90 49 60
        E 0 90 55 60
        E 0 90 61 60
        E 120 80 49 00
        E 0 80 55 00
        E 0 80 61 00
        E 360 90 3e 60
        E 0 90 4a 60
        E 0 90 56 60
        E 0 90 62 60
        E 120 80 3e 00
        E 0 80 4a 00
        E 0 80 56 00
        E 0 80 62 00
        E 360 90 4b 60
        E 0 90 57 60
        E 0 90 63 60
        E 120 80 4b 00
        E 0 80 57 00
        E 0 80 63 00
        E 120 90 58 60
        E 0 90 64 60
        E 120 80 58 00
        E 0 80 64 00
        E 360 90 55 60
        E 0 90 61 60
        E 120 80 55 00
        E 0 80 61 00
        E 120 90 4a 60
        E 0 90 56 60
        E 0 90 62 60
        E 120 80 4a 00
        E 0 80 56 00
        E 0 80 62 00
        E 120 90 57 60
        E 0 90 63 60
        E 120 80 57 00
        E 0 80 63 00
        E 120 90 3e 60
        E 0 90 4b 60
        E 0 90 58 60
        E 0 90 64 60
        E 120 80 3e 00
        E 0 80 4b 00
        E 0 80 58 00
        E 0 80 64 00
        E 721 80 2b 00
        E 119 90 2d 60
        E 0 90 3c 60
        E 0 90 48 60
        E 0 90 54 60
        E 0 90 60 60
        E 120 80 3c 00
        E 0 80 48 00
        E 0 80 54 00
        E 0 80 60 00
        E 360 90 3c 60
        E 0 90 48 60
        E 0 90 54 60
        E 0 90 60 60
        E 120 80 3c 00
        E 0 80 48 00
        E 0 80 54 00
        E 0 80 60 00
        E 360 90 3c 60
        E 0 90 48 60
        E 0 90 54 60
        E 0 90 60 60
        E 120 80 3c 00
        E 0 80 48 00
        E 0 80 54 00
        E 0 80 60 00
        E 360 90 48 60
        E 0 90 54 60
        E 0 90 60 60
        E 120 80 48 00
        E 0 80 54 00
        E 0 80 60 00
        E 360 90 3d 60
        E 0 90 49 60
        E 0 90 55 60
        E 0 90 61 60
        E 120 80 3d 00
        E 0 80 49 00
        E 0 80 55 00
        E 0 80 61 00
        E 360 90 3d 60
        E 0 90 49 60
        E 0 90 55 60
        E 0 90 61 60
        E 120 80 3d 00
        E 0 80 49 00
        E 0 80 55 00
        E 0 80 61 00
        E 360 90 3d 60
        E 0 90 49 60
        E 0 90 55 60
        E 0 90 61 60
        E 120 80 3d 00
        E 0 80 49 00
        E 0 80 55 00
        E 0 80 61 00
        E 360 90 49 60
        E 0 90 55 60
        E 0 90 61 60
        E 120 80 49 00
        E 0 80 55 00
        E 0 80 61 00
        E 360 90 3e 60
        E 0 90 4b 60
        E 0 90 58 60
        E 0 90 64 60
        E 120 80 3e 00
        E 0 80 4b 00
        E 0 80 58 00
        E 0 80 64 00
        E 360 90 3e 60
        E 0 90 4b 60
        E 0 90 58 60
        E 0 90 64 60
        E 120 80 3e 00
        E 0 80 4b 00
        E 0 80 58 00
        E 0 80 64 00
        E 360 90 3e 60
        E 0 90 4b 60
        E 0 90 58 60
        E 0 90 64 60
        E 120 80 3e 00
        E 0 80 4b 00
        E 0 80 58 00
        E 0 80 64 00
        E 360 90 4b 60
        E 0 90 58 60
        E 0 90 64 60
        E 120 80 4b 00
        E 0 80 58 00
        E 0 80 64 00
        E 360 90 3c 60
        E 0 90 48 60
        E 0 90 54 60
        E 0 90 60 60
        E 120 80 3c 00
        E 0 80 48 00
        E 0 80 54 00
        E 0 80 60 00
        E 1800 90 3c 60
        E 0 90 48 60
        E 0 90 54 60
        E 0 90 60 60
        E 120 80 3c 00
        E 0 80 48 00
        E 0 80 54 00
        E 0 80 60 00
        E 360 90 3c 60
        E 0 90 48 60
        E 0 90 54 60
        E 0 90 60 60
        E 120 80 3c 00
        E 0 80 48 00
        E 0 80 54 00
        E 0 80 60 00
        E 360 90 3c 60
        E 0 90 48 60
        E 0 90 54 60
        E 0 90 60 60
        E 120 80 3c 00
        E 0 80 48 00
        E 0 80 54 00
        E 0 80 60 00
        E 360 90 48 60
        E 0 90 54 60
        E 0 90 60 60
        E 120 80 48 00
        E 0 80 54 00
        E 0 80 60 00
        E 360 90 3d 60
        E 0 90 49 60
        E 0 90 55 60
        E 0 90 61 60
        E 120 80 3d 00
        E 0 80 49 00
        E 0 80 55 00
        E 0 80 61 00
        E 360 90 3d 60
        E 0 90 49 60
        E 0 90 55 60
        E 0 90 61 60
        E 120 80 3d 00
        E 0 80 49 00
        E 0 80 55 00
        E 0 80 61 00
        E 360 90 3d 60
        E 0 90 49 60
        E 0 90 55 60
        E 0 90 61 60
        E 120 80 3d 00
        E 0 80 49 00
        E 0 80 55 00
        E 0 80 61 00
        E 360 90 49 60
        E 0 90 55 60
        E 0 90 61 60
        E 120 80 49 00
        E 0 80 55 00
        E 0 80 61 00
        E 360 90 3e 60
        E 0 90 4b 60
        E 0 90 58 60
        E 0 90 64 60
        E 0 90 74 60
        E 120 80 3e 00
        E 0 80 4b 00
        E 0 80 58 00
        E 0 80 64 00
        E 360 90 3e 60
        E 0 90 4b 60
        E 0 90 58 60
        E 0 90 64 60
        E 120 80 3e 00
        E 0 80 4b 00
        E 0 80 58 00
        E 0 80 64 00
        E 360 90 3e 60
        E 0 90 4b 60
        E 0 90 58 60
        E 0 90 64 60
        E 120 80 3e 00
        E 0 80 4b 00
        E 0 80 58 00
        E 0 80 64 00
        E 360 90 4b 60
        E 0 90 58 60
        E 0 90 64 60
        E 120 80 4b 00
        E 0 80 58 00
        E 0 80 64 00
        E 360 90 3c 60
        E 0 90 48 60
        E 0 90 54 60
        E 0 90 60 60
        E 120 80 74 00
        E 0 80 3c 00
        E 0 80 48 00
        E 0 80 54 00
        E 0 80 60 00
        E 1681 80 2d 00
        E 119 90 2b 60
        E 0 90 3c 60
        E 0 90 48 60
        E 0 90 54 60
        E 0 90 60 60
        E 120 80 3c 00
        E 0 80 48 00
        E 0 80 54 00
        E 0 80 60 00
        E 360 90 49 60
        E 0 90 55 60
        E 0 90 61 60
        E 120 80 49 00
        E 0 80 55 00
        E 0 80 61 00
        E 241 80 2b 00
        E 119 90 28 60
        E 0 90 3e 60
        E 0 90 4a 60
        E 0 90 56 60
        E 0 90 62 60
        E 120 80 3e 00
        E 0 80 4a 00
        E 0 80 56 00
        E 0 80 62 00
        E 360 90 4a 60
        E 0 90 56 60
        E 0 90 62 60
        E 120 80 4a 00
        E 0 80 56 00
        E 0 80 62 00
        E 120 90 57 60
        E 0 90 63 60
        E 120 80 57 00
        E 0 80 63 00
        E 120 90 3d 60
        E 0 90 49 60
        E 0 90 55 60
        E 0 90 61 60
        E 120 80 3d 00
        E 0 80 49 00
        E 0 80 55 00
        E 0 80 61 00
        E 360 90 4a 60
        E 0 90 56 60
        E 0 90 62 60
        E 120 80 4a 00
        E 0 80 56 00
        E 0 80 62 00
        E 360 90 3e 60
        E 0 90 4b 60
        E 0 90 57 60
        E 0 90 63 60
        E 120 80 3e 00
        E 0 80 4b 00
        E 0 80 57 00
        E 0 80 63 00
        E 241 80 28 00
        E 119 90 2b 60
        E 0 90 4a 60
        E 0 90 56 60
        E 0 90 62 60
        E 120 80 4a 00
        E 0 80 56 00
        E 0 80 62 00
        E 120 90 55 60
        E 0 90 61 60
        E 120 80 55 00
        E 0 80 61 00
        E 120 90 3c 60
        E 0 90 48 60
        E 0 90 54 60
        E 0 90 60 60
        E 120 80 3c 00
        E 0 80 48 00
        E 0 80 54 00
        E 0 80 60 00
        E 360 90 49 60
        E 0 90 55 60
        E 0 90 61 60
        E 120 80 49 00
        E 0 80 55 00
        E 0 80 61 00
        E 360 90 3e 60
        E 0 90 4a 60
        E 0 90 56 60
        E 0 90 62 60
        E 120 80 3e 00
        E 0 80 4a 00
        E 0 80 56 00
        E 0 80 62 00
        E 360 90 4b 60
        E 0 90 57 60
        E 0 90 63 60
        E 120 80 4b 00
        E 0 80 57 00
        E 0 80 63 00
        E 120 90 58 60
        E 0 90 64 60
        E 120 80 58 00
        E 0 80 64 00
        E 360 90 55 60
        E 0 90 61 60
        E 120 80 55 00
        E 0 80 61 00
        E 120 90 4a 60
        E 0 90 56 60
        E 0 90 62 60
        E 120 80 4a 00
        E 0 80 56 00
        E 0 80 62 00
        E 120 90 57 60
        E 0 90 63 60
        E 120 80 57 00
        E 0 80 63 00
        E 120 90 3e 60
        E 0 90 4b 60
        E 0 90 58 60
        E 0 90 64 60
        E 120 80 3e 00
        E 0 80 4b 00
        E 0 80 58 00
        E 0 80 64 00
        E 840 90 3c 60
        E 0 90 48 60
        E 0 90 54 60
        E 0 90 60 60
        E 0 90 74 60
        E 120 80 3c 00
        E 0 80 48 00
        E 0 80 54 00
        E 0 80 60 00
        E 360 90 49 60
        E 0 90 55 60
        E 0 90 61 60
        E 120 80 49 00
        E 0 80 55 00
        E 0 80 61 00
        E 241 80 2b 00
        E 119 90 28 60
        E 0 90 3e 60
        E 0 90 4a 60
        E 0 90 56 60
        E 0 90 62 60
        E 120 80 3e 00
        E 0 80 4a 00
        E 0 80 56 00
        E 0 80 62 00
        E 360 90 4a 60
        E 0 90 56 60
        E 0 90 62 60
        E 120 80 4a 00
        E 0 80 56 00
        E 0 80 62 00
        E 120 90 57 60
        E 0 90 63 60
        E 120 80 57 00
        E 0 80 63 00
        E 120 90 3d 60
        E 0 90 49 60
        E 0 90 55 60
        E 0 90 61 60
        E 120 80 3d 00
        E 0 80 49 00
        E 0 80 55 00
        E 0 80 61 00
        E 360 90 4a 60
        E 0 90 56 60
        E 0 90 62 60
        E 120 80 4a 00
        E 0 80 56 00
        E 0 80 62 00
        E 360 90 3e 60
        E 0 90 4b 60
        E 0 90 57 60
        E 0 90 63 60
        E 120 80 3e 00
        E 0 80 4b 00
        E 0 80 57 00
        E 0 80 63 00
        E 241 80 28 00
        E 119 90 2b 60
        E 0 90 4a 60
        E 0 90 56 60
        E 0 90 62 60
        E 120 80 4a 00
        E 0 80 56 00
        E 0 80 62 00
        E 120 90 55 60
        E 0 90 61 60
        E 120 80 55 00
        E 0 80 61 00
        E 120 80 74 00
        E 0 90 3c 60
        E 0 90 48 60
        E 0 90 54 60
        E 0 90 60 60
        E 120 80 3c 00
        E 0 80 48 00
        E 0 80 54 00
        E 0 80 60 00
        E 360 90 49 60
        E 0 90 55 60
        E 0 90 61 60
        E 120 80 49 00
        E 0 80 55 00
        E 0 80 61 00
        E 360 90 3e 60
        E 0 90 4a 60
        E 0 90 56 60
        E 0 90 62 60
        E 120 80 3e 00
        E 0 80 4a 00
        E 0 80 56 00
        E 0 80 62 00
        E 360 90 4b 60
        E 0 90 57 60
        E 0 90 63 60
        E 120 80 4b 00
        E 0 80 57 00
        E 0 80 63 00
        E 120 90 58 60
        E 0 90 64 60
        E 120 80 58 00
        E 0 80 64 00
        E 360 90 55 60
        E 0 90 61 60
        E 120 80 55 00
        E 0 80 61 00
        E 120 90 4a 60
        E 0 90 56 60
        E 0 90 62 60
        E 120 80 4a 00
        E 0 80 56 00
        E 0 80 62 00
        E 120 90 57 60
        E 0 90 63 60
        E 120 80 57 00
        E 0 80 63 00
        E 120 90 3e 60
        E 0 90 4b 60
        E 0 90 58 60
        E 0 90 64 60
        E 120 80 3e 00
        E 0 80 4b 00
        E 0 80 58 00
        E 0 80 64 00
        E 721 80 2b 00
        E 119 90 2d 60
        E 0 90 3c 60
        E 0 90 48 60
        E 0 90 54 60
        E 0 90 60 60
        E 120 80 3c 00
        E 0 80 48 00
        E 0 80 54 00
        E 0 80 60 00
        E 360 90 3c 60
        E 0 90 48 60
        E 0 90 54 60
        E 0 90 60 60
        E 120 80 3c 00
        E 0 80 48 00
        E 0 80 54 00
        E 0 80 60 00
        E 360 90 3c 60
        E 0 90 48 60
        E 0 90 54 60
        E 0 90 60 60
        E 120 80 3c 00
        E 0 80 48 00
        E 0 80 54 00
        E 0 80 60 00
        E 360 90 48 60
        E 0 90 54 60
        E 0 90 60 60
        E 120 80 48 00
        E 0 80 54 00
        E 0 80 60 00
        E 360 90 3d 60
        E 0 90 49 60
        E 0 90 55 60
        E 0 90 61 60
        E 120 80 3d 00
        E 0 80 49 00
        E 0 80 55 00
        E 0 80 61 00
        E 360 90 3d 60
        E 0 90 49 60
        E 0 90 55 60
        E 0 90 61 60
        E 120 80 3d 00
        E 0 80 49 00
        E 0 80 55 00
        E 0 80 61 00
        E 360 90 3d 60
        E 0 90 49 60
        E 0 90 55 60
        E 0 90 61 60
        E 120 80 3d 00
        E 0 80 49 00
        E 0 80 55 00
        E 0 80 61 00
        E 360 90 49 60
        E 0 90 55 60
        E 0 90 61 60
        E 120 80 49 00
        E 0 80 55 00
        E 0 80 61 00
        E 360 90 3e 60
        E 0 90 4b 60
        E 0 90 58 60
        E 0 90 64 60
        E 120 80 3e 00
        E 0 80 4b 00
        E 0 80 58 00
        E 0 80 64 00
        E 360 90 3e 60
        E 0 90 4b 60
        E 0 90 58 60
        E 0 90 64 60
        E 120 80 3e 00
        E 0 80 4b 00
        E 0 80 58 00
        E 0 80 64 00
        E 360 90 3e 60
        E 0 90 4b 60
        E 0 90 58 60
        E 0 90 64 60
        E 120 80 3e 00
        E 0 80 4b 00
        E 0 80 58 00
        E 0 80 64 00
        E 360 90 4b 60
        E 0 90 58 60
        E 0 90 64 60
        E 120 80 4b 00
        E 0 80 58 00
        E 0 80 64 00
        E 360 90 3c 60
        E 0 90 48 60
        E 0 90 54 60
        E 0 90 60 60
        E 120 80 3c 00
        E 0 80 48 00
        E 0 80 54 00
        E 0 80 60 00
        E 1800 90 3c 60
        E 0 90 48 60
        E 0 90 54 60
        E 0 90 60 60
        E 120 80 3c 00
        E 0 80 48 00
        E 0 80 54 00
        E 0 80 60 00
        E 360 90 3c 60
        E 0 90 48 60
        E 0 90 54 60
        E 0 90 60 60
        E 120 80 3c 00
        E 0 80 48 00
        E 0 80 54 00
        E 0 80 60 00
        E 360 90 3c 60
        E 0 90 48 60
        E 0 90 54 60
        E 0 90 60 60
        E 120 80 3c 00
        E 0 80 48 00
        E 0 80 54 00
        E 0 80 60 00
        E 360 90 48 60
        E 0 90 54 60
        E 0 90 60 60
        E 120 80 48 00
        E 0 80 54 00
        E 0 80 60 00
        E 360 90 3d 60
        E 0 90 49 60
        E 0 90 55 60
        E 0 90 61 60
        E 120 80 3d 00
        E 0 80 49 00
        E 0 80 55 00
        E 0 80 61 00
        E 360 90 3d 60
        E 0 90 49 60
        E 0 90 55 60
        E 0 90 61 60
        E 120 80 3d 00
        E 0 80 49 00
        E 0 80 55 00
        E 0 80 61 00
        E 360 90 3d 60
        E 0 90 49 60
        E 0 90 55 60
        E 0 90 61 60
        E 120 80 3d 00
        E 0 80 49 00
        E 0 80 55 00
        E 0 80 61 00
        E 360 90 49 60
        E 0 90 55 60
        E 0 90 61 60
        E 120 80 49 00
        E 0 80 55 00
        E 0 80 61 00
        E 360 90 3e 60
        E 0 90 4b 60
        E 0 90 58 60
        E 0 90 64 60
        E 120 80 3e 00
        E 0 80 4b 00
        E 0 80 58 00
        E 0 80 64 00
        E 360 90 3e 60
        E 0 90 4b 60
        E 0 90 58 60
        E 0 90 64 60
        E 120 80 3e 00
        E 0 80 4b 00
        E 0 80 58 00
        E 0 80 64 00
        E 360 90 3e 60
        E 0 90 4b 60
        E 0 90 58 60
        E 0 90 64 60
        E 120 80 3e 00
        E 0 80 4b 00
        E 0 80 58 00
        E 0 80 64 00
        E 360 90 4b 60
        E 0 90 58 60
        E 0 90 64 60
        E 120 80 4b 00
        E 0 80 58 00
        E 0 80 64 00
        E 360 90 3c 60
        E 0 90 48 60
        E 0 90 54 60
        E 0 90 60 60
        E 120 80 3c 00
        E 0 80 48 00
        E 0 80 54 00
        E 0 80 60 00
        E 120 80 2d 00
        <X 360 0
          /wFbaWRsZV9yZWFsdGltZV0=
        >
        E 1320 b0 7b 00
        GUID {9083558E-0740-49FE-9690-4715A2AA20FE}
        IGNTEMPO 0 120.00000000 4 4
        SRCCOLOR 4
        VELLANE 132 128 60
        COLORMAP "C:\Program Files\REAPER (x64)\Data\color_maps\rockband_guitarbass.png"
        CFGEDITVIEW -6761.581848 12.955548 0 12 0 0 0
        CFGEDIT 1 1 0 1 1 0 1 1 1 1 1 0.25000000 -8 -8 1544 872 0 2 1 1 0.00000000 0 1 0 0 0.500000 0 0 1.000000 64
        KEYSNAP 0 6 "102030050700" 0 "Pentatonic"
        EVTFILTER 0 -1 -1 -1 -1 0 1 0 0 -1.00000000 -1.00000000
      >
    >
  >
  <TRACK '{9FF5B4EA-9C99-40EC-834A-95892215F2A7}'
    NAME "bass"
    PEAKCOL 16576
    BEAT -1
    AUTOMODE 0
    VOLPAN 1.00000000000000 0.00000000000000 -1.00000000000000 -1.00000000000000 1.00000000000000
    MUTESOLO 0 0 0
    IPHASE 0
    ISBUS 2 -1
    BUSCOMP 0 0
    SHOWINMIX 1 0.666700 0.500000 1 0.500000 -1 -1 -1
    FREEMODE 0
    SEL 0
    REC 0 0 0 0 0 0 0
    VU 2
    TRACKHEIGHT 0 0
    INQ 0 0 0 0.5000000000 100 0 0 100
    NCHAN 2
    FX 1
    TRACKID {9FF5B4EA-9C99-40EC-834A-95892215F2A7}
    PERF 0
    MIDIOUT -1
    MAINSEND 1 0
    <ITEM
      POSITION 0.00000000000000
      SNAPOFFS 0.00000000000000
      LENGTH 96.00000000000000
      LOOP 0
      ALLTAKES 0
      SEL 0
      FADEIN 1 0.000000 0.000000 1 0
      FADEOUT 1 0.000000 0.000000 1 0
      MUTE 0
      IGUID {17B29EE2-BB51-4945-872A-47E38899A6CC}
      IID 15
      NAME "bass.wav"
      VOLPAN 1.000000 0.000000 1.000000 -1.000000
      SOFFS 0.00000000000000
      PLAYRATE 1.00000000000000 1 0.00000000000000 -1
      CHANMODE 0
      GUID {B871BD32-958E-44F6-B7DC-9BCEAE44BF96}
      <SOURCE WAVE
        FILE "wav\bass.wav"
      >
    >
  >
  <TRACK '{38EC7EAB-77CD-4520-A037-5AB99BB05E56}'
    NAME "PART GUITAR"
    PEAKCOL 16576
    BEAT -1
    AUTOMODE 0
    VOLPAN 1.00000000000000 0.00000000000000 -1.00000000000000 -1.00000000000000 1.00000000000000
    MUTESOLO 0 0 0
    IPHASE 0
    ISBUS 1 1
    BUSCOMP 0 0
    SHOWINMIX 1 0.666700 0.500000 1 0.500000 -1 -1 -1
    FREEMODE 0
    SEL 0
    REC 0 0 0 0 0 0 0
    VU 2
    TRACKHEIGHT 0 0
    INQ 0 0 0 0.5000000000 100 0 0 100
    NCHAN 2
    FX 1
    TRACKID {38EC7EAB-77CD-4520-A037-5AB99BB05E56}
    PERF 0
    MIDIOUT -1
    <MIDINOTENAMES
      0 127 "TRILL MARKER"
      0 126 "TREMOLO MARKER"
      0 125 "---"
      0 124 "BRE"
      0 123 "BRE"
      0 122 "BRE"
      0 121 "BRE"
      0 120 "BRE (use all 5)"
      0 119 "----"
      0 116 "OVERDRIVE"
      0 115 "----"
      0 103 "Solo Marker"
      0 102 "Force HOPO Off"
      0 101 "Force HOPO On"
      0 100 "EXPERT Orange"
      0 99 "EXPERT Blue"
      0 98 "EXPERT Yellow"
      0 97 "EXPERT Red"
      0 96 "EXPERT Green"
      0 95 "----"
      0 90 "Force HOPO Off"
      0 89 "Force HOPO On"
      0 88 "HARD Orange"
      0 87 "HARD Blue"
      0 86 "HARD Yellow"
      0 85 "HARD Red"
      0 84 "HARD Green"
      0 77 "----"
      0 76 "MEDIUM Orange"
      0 75 "MEDIUM Blue"
      0 74 "MEDIUM Yellow"
      0 73 "MEDIUM Red"
      0 72 "MEDIUM Green"
      0 65 "----"
      0 64 "EASY Orange"
      0 63 "EASY Blue"
      0 62 "EASY Yellow"
      0 61 "EASY Red"
      0 60 "EASY Green"
      0 59 "Fret 12"
      0 57 "Fret 11"
      0 56 "Fret 10"
      0 55 "Fret 9"
      0 53 "Fret 8"
      0 52 "Fret 7"
      0 50 "Fret 6"
      0 49 "Fret 5"
      0 47 "Fret 4"
      0 45 "Fret 3"
      0 43 "Fret 2"
      0 40 "Fret 1"
    >
    MAINSEND 1 0
    <FXCHAIN
      WNDRECT 0 43 891 559
      SHOW 0
      LASTSEL 0
      DOCKED 0
      BYPASS 0 0
      <VST "VSTi: RBN Preview (RBN)" "rbprev_vst64.dll" 0 ""
        dnBicu5e7f4AAAAAAgAAAAEAAAAAAAAAAgAAAAAAAAAEAAAAAQAAAA==
        AAAQAAMAqgAAABAAAAA=
      >
      FLOATPOS 0 0 0 0
      FXID {DF57F810-96C6-4B06-88DC-9C24202031DF}
      WAK 0
    >
    <ITEM
      POSITION 0.00000000000000
      SNAPOFFS 0.00000000000000
      LENGTH 96.00000000000000
      LOOP 0
      ALLTAKES 0
      SEL 0
      FADEIN 1 0.000000 0.000000 1 0
      FADEOUT 1 0.000000 0.000000 1 0
      MUTE 0
      IGUID {FD068977-6E4F-497D-8C38-7D30C7AF1C83}
      IID 3
      NAME "PART GUITAR"
      VOLPAN 1.000000 0.000000 1.000000 -1.000000
      SOFFS 0.00000000000000 0.00000000000000
      PLAYRATE 1.00000000000000 1 0.00000000000000 -1
      CHANMODE 0
      GUID {12CE5FEC-8ACB-4BB7-8EC6-53A71EDA998F}
      <SOURCE MIDI
        HASDATA 1 480 QN
        POOLEDEVTS {12BAD1C5-2C68-4409-9EF7-638AF7E93722}
        <X 0 0
          /wNQQVJUIEdVSVRBUg==
        >
        <X 3840 0
          /wFbcGxheV0=
        >
        E 0 90 32 60
        E 0 90 3e 60
        E 0 90 4b 60
        E 0 90 57 60
        E 0 90 63 60
        E 0 90 74 60
        E 80 80 3e 00
        E 0 80 4b 00
        E 0 80 57 00
        E 0 80 63 00
        E 80 90 63 60
        E 80 80 63 00
        E 160 90 57 60
        E 0 90 63 60
        E 80 80 57 00
        E 0 80 63 00
        E 160 90 57 60
        E 0 90 63 60
        E 80 80 57 00
        E 0 80 63 00
        E 160 90 63 60
        E 80 80 63 00
        E 0 90 3d 60
        E 0 90 4a 60
        E 0 90 56 60
        E 0 90 62 60
        E 80 80 3d 00
        E 0 80 4a 00
        E 0 80 56 00
        E 0 80 62 00
        E 80 90 62 60
        E 80 80 62 00
        E 160 90 56 60
        E 0 90 62 60
        E 80 80 56 00
        E 0 80 62 00
        E 160 90 56 60
        E 0 90 62 60
        E 80 80 56 00
        E 0 80 62 00
        E 160 90 62 60
        E 80 80 62 00
        E 0 90 3c 60
        E 0 90 49 60
        E 0 90 55 60
        E 0 90 61 60
        E 80 80 3c 00
        E 0 80 49 00
        E 0 80 55 00
        E 0 80 61 00
        E 80 90 61 60
        E 80 80 61 00
        E 160 90 55 60
        E 0 90 61 60
        E 80 80 55 00
        E 0 80 61 00
        E 160 90 49 60
        E 0 90 55 60
        E 0 90 61 60
        E 80 80 49 00
        E 0 80 55 00
        E 0 80 61 00
        E 160 90 58 60
        E 0 90 61 60
        E 80 80 61 00
        E 0 90 64 60
        E 40 80 58 00
        E 320 80 64 00
        E 120 90 49 60
        E 0 90 55 60
        E 0 90 61 60
        E 120 80 49 00
        E 0 80 55 00
        E 240 80 61 00
        E 6 80 32 00
        E 114 80 74 00
        E 0 90 28 60
        E 0 90 3e 60
        E 0 90 4b 60
        E 0 90 58 60
        E 0 90 64 60
        E 120 80 3e 00
        E 0 80 4b 00
        E 0 80 58 00
        E 0 80 64 00
        E 360 90 3e 60
        E 0 90 4b 60
        E 0 90 58 60
        E 0 90 64 60
        E 120 80 3e 00
        E 0 80 4b 00
        E 0 80 58 00
        E 0 80 64 00
        E 240 90 58 60
        E 0 90 64 60
        E 120 80 58 00
        E 0 80 64 00
        E 120 90 4b 60
        E 0 90 57 60
        E 0 90 63 60
        E 120 80 4b 00
        E 0 80 57 00
        E 0 80 63 00
        E 120 90 55 60
        E 0 90 63 60
        E 120 80 55 00
        E 0 80 63 00
        E 0 90 61 60
        E 360 80 61 00
        E 120 90 3e 60
        E 0 90 4b 60
        E 0 90 57 60
        E 0 90 63 60
        E 120 80 3e 00
        E 0 80 4b 00
        E 0 80 57 00
        E 0 80 63 00
        E 360 90 3e 60
        E 0 90 4b 60
        E 0 90 57 60
        E 0 90 63 60
        E 120 80 3e 00
        E 0 80 4b 00
        E 0 80 57 00
        E 0 80 63 00
        E 240 90 57 60
        E 0 90 63 60
        E 120 80 57 00
        E 0 80 63 00
        E 120 90 4a 60
        E 0 90 56 60
        E 0 90 62 60
        E 120 80 4a 00
        E 0 80 56 00
        E 0 80 62 00
        E 120 90 55 60
        E 0 90 62 60
        E 120 80 55 00
        E 0 80 62 00
        E 0 90 61 60
        E 360 80 61 00
        E 120 90 3d 60
        E 0 90 4a 60
        E 0 90 56 60
        E 0 90 62 60
        E 120 80 3d 00
        E 0 80 4a 00
        E 0 80 56 00
        E 0 80 62 00
        E 360 90 3d 60
        E 0 90 4a 60
        E 0 90 56 60
        E 0 90 62 60
        E 120 80 3d 00
        E 0 80 4a 00
        E 0 80 56 00
        E 0 80 62 00
        E 240 90 56 60
        E 0 90 62 60
        E 120 80 56 00
        E 0 80 62 00
        E 120 90 49 60
        E 0 90 55 60
        E 0 90 61 60
        E 120 80 49 00
        E 0 80 55 00
        E 0 80 61 00
        E 120 90 58 60
        E 0 90 61 60
        E 120 80 58 00
        E 0 80 61 00
        E 0 90 64 60
        E 120 80 64 00
        E 120 90 58 60
        E 0 90 64 60
        E 120 80 58 00
        E 0 80 64 00
        E 120 90 3e 60
        E 0 90 4b 60
        E 0 90 57 60
        E 0 90 63 60
        E 120 80 3e 00
        E 0 80 4b 00
        E 0 80 57 00
        E 0 80 63 00
        E 1800 90 3e 60
        E 0 90 4b 60
        E 0 90 58 60
        E 0 90 64 60
        E 120 80 3e 00
        E 0 80 4b 00
        E 0 80 58 00
        E 0 80 64 00
        E 360 90 3e 60
        E 0 90 4b 60
        E 0 90 58 60
        E 0 90 64 60
        E 120 80 3e 00
        E 0 80 4b 00
        E 0 80 58 00
        E 0 80 64 00
        E 240 90 58 60
        E 0 90 64 60
        E 120 80 58 00
        E 0 80 64 00
        E 120 90 4b 60
        E 0 90 57 60
        E 0 90 63 60
        E 120 80 4b 00
        E 0 80 57 00
        E 0 80 63 00
        E 120 90 55 60
        E 0 90 63 60
        E 120 80 55 00
        E 0 80 63 00
        E 0 90 61 60
        E 360 80 61 00
        E 120 90 3e 60
        E 0 90 4b 60
        E 0 90 57 60
        E 0 90 63 60
        E 120 80 3e 00
        E 0 80 4b 00
        E 0 80 57 00
        E 0 80 63 00
        E 360 90 3e 60
        E 0 90 4b 60
        E 0 90 57 60
        E 0 90 63 60
        E 120 80 3e 00
        E 0 80 4b 00
        E 0 80 57 00
        E 0 80 63 00
        E 240 90 57 60
        E 0 90 63 60
        E 120 80 57 00
        E 0 80 63 00
        E 120 90 4a 60
        E 0 90 56 60
        E 0 90 62 60
        E 120 80 4a 00
        E 0 80 56 00
        E 0 80 62 00
        E 120 90 55 60
        E 0 90 62 60
        E 120 80 55 00
        E 0 80 62 00
        E 0 90 61 60
        E 360 80 61 00
        E 120 90 3d 60
        E 0 90 4a 60
        E 0 90 56 60
        E 0 90 62 60
        E 0 90 74 60
        E 120 80 3d 00
        E 0 80 4a 00
        E 0 80 56 00
        E 0 80 62 00
        E 360 90 3d 60
        E 0 90 4a 60
        E 0 90 56 60
        E 0 90 62 60
        E 120 80 3d 00
        E 0 80 4a 00
        E 0 80 56 00
        E 0 80 62 00
        E 240 90 56 60
        E 0 90 62 60
        E 120 80 56 00
        E 0 80 62 00
        E 120 90 49 60
        E 0 90 55 60
        E 0 90 61 60
        E 120 80 49 00
        E 0 80 55 00
        E 0 80 61 00
        E 120 90 58 60
        E 0 90 61 60
        E 120 80 58 00
        E 0 80 61 00
        E 0 90 64 60
        E 120 80 64 00
        E 120 90 58 60
        E 0 90 64 60
        E 120 80 58 00
        E 0 80 64 00
        E 120 90 3e 60
        E 0 90 4b 60
        E 0 90 57 60
        E 0 90 63 60
        E 120 80 74 00
        E 0 80 3e 00
        E 0 80 4b 00
        E 0 80 57 00
        E 0 80 63 00
        E 1080 90 55 60
        E 0 90 61 60
        E 120 80 55 00
        E 0 80 61 00
        E 120 90 4a 60
        E 0 90 56 60
        E 0 90 62 60
        E 120 80 4a 00
        E 0 80 56 00
        E 0 80 62 00
        E 6 80 28 00
        E 114 90 2b 60
        E 0 90 57 60
        E 0 90 63 60
        E 120 80 57 00
        E 0 80 63 00
        E 120 90 3e 60
        E 0 90 4b 60
        E 0 90 58 60
        E 0 90 64 60
        E 120 80 3e 00
        E 0 80 4b 00
        E 0 80 58 00
        E 0 80 64 00
        E 360 90 3e 60
        E 0 90 4b 60
        E 0 90 58 60
        E 0 90 64 60
        E 120 80 3e 00
        E 0 80 4b 00
        E 0 80 58 00
        E 0 80 64 00
        E 240 90 58 60
        E 0 90 64 60
        E 120 80 58 00
        E 0 80 64 00
        E 120 90 4b 60
        E 0 90 57 60
        E 0 90 63 60
        E 120 80 4b 00
        E 0 80 57 00
        E 0 80 63 00
        E 240 90 4b 60
        E 0 90 57 60
        E 0 90 63 60
        E 120 80 4b 00
        E 0 80 57 00
        E 0 80 63 00
        E 120 90 58 60
        E 0 90 64 60
        E 120 80 58 00
        E 0 80 64 00
        E 120 90 3d 60
        E 0 90 4a 60
        E 0 90 56 60
        E 0 90 62 60
        E 120 80 3d 00
        E 0 80 4a 00
        E 0 80 56 00
        E 0 80 62 00
        E 120 90 56 60
        E 0 90 62 60
        E 120 80 56 00
        E 0 80 62 00
        E 120 90 49 60
        E 0 90 55 60
        E 0 90 62 60
        E 120 80 49 00
        E 0 80 55 00
        E 0 80 62 00
        E 0 90 61 60
        E 120 80 61 00
        E 120 90 56 60
        E 0 90 62 60
        E 120 80 56 00
        E 0 80 62 00
        E 240 90 54 60
        E 0 90 60 60
        E 120 80 54 00
        E 0 80 60 00
        E 120 90 49 60
        E 0 90 55 60
        E 0 90 61 60
        E 120 80 49 00
        E 0 80 55 00
        E 0 80 61 00
        E 120 90 56 60
        E 0 90 62 60
        E 120 80 56 00
        E 0 80 62 00
        E 120 90 3e 60
        E 0 90 4b 60
        E 0 90 57 60
        E 0 90 63 60
        E 120 80 3e 00
        E 0 80 4b 00
        E 0 80 57 00
        E 0 80 63 00
        E 360 90 3e 60
        E 0 90 4b 60
        E 0 90 57 60
        E 0 90 63 60
        E 120 80 3e 00
        E 0 80 4b 00
        E 0 80 57 00
        E 0 80 63 00
        E 240 90 57 60
        E 0 90 63 60
        E 120 80 57 00
        E 0 80 63 00
        E 120 90 56 60
        E 0 90 62 60
        E 120 80 56 00
        E 0 80 62 00
        E 240 90 3c 60
        E 0 90 49 60
        E 0 90 55 60
        E 0 90 61 60
        E 120 80 3c 00
        E 0 80 49 00
        E 0 80 55 00
        E 0 80 61 00
        E 120 90 54 60
        E 0 90 60 60
        E 120 80 54 00
        E 0 80 60 00
        E 360 90 55 60
        E 0 90 61 60
        E 120 80 55 00
        E 0 80 61 00
        E 120 90 4a 60
        E 0 90 56 60
        E 0 90 62 60
        E 120 80 4a 00
        E 0 80 56 00
        E 0 80 62 00
        E 120 90 57 60
        E 0 90 63 60
        E 120 80 57 00
        E 0 80 63 00
        E 120 90 3e 60
        E 0 90 4b 60
        E 0 90 58 60
        E 0 90 64 60
        E 120 80 3e 00
        E 0 80 4b 00
        E 0 80 58 00
        E 360 80 64 00
        E 120 90 55 60
        E 0 90 61 60
        E 120 80 55 00
        E 0 80 61 00
        E 126 80 2b 00
        E 114 90 38 60
        E 0 90 3e 60
        E 0 90 4b 60
        E 0 90 58 60
        E 0 90 64 60
        E 120 80 3e 00
        E 0 80 4b 00
        E 0 80 58 00
        E 0 80 64 00
        E 360 90 3e 60
        E 0 90 4b 60
        E 0 90 58 60
        E 0 90 64 60
        E 120 80 3e 00
        E 0 80 4b 00
        E 0 80 58 00
        E 0 80 64 00
        E 240 90 58 60
        E 0 90 64 60
        E 120 80 58 00
        E 0 80 64 00
        E 120 90 4b 60
        E 0 90 57 60
        E 0 90 63 60
        E 120 80 4b 00
        E 0 80 57 00
        E 0 80 63 00
        E 240 90 3e 60
        E 0 90 4b 60
        E 0 90 57 60
        E 0 90 63 60
        E 120 80 3e 00
        E 0 80 4b 00
        E 0 80 57 00
        E 0 80 63 00
        E 120 90 58 60
        E 0 90 64 60
        E 120 80 58 00
        E 0 80 64 00
        E 120 90 3e 60
        E 0 90 4b 60
        E 0 90 57 60
        E 0 90 63 60
        E 120 80 3e 00
        E 0 80 4b 00
        E 0 80 57 00
        E 0 80 63 00
        E 120 90 56 60
        E 0 90 62 60
        E 120 80 56 00
        E 0 80 62 00
        E 120 90 49 60
        E 0 90 55 60
        E 0 90 62 60
        E 120 80 49 00
        E 0 80 55 00
        E 0 80 62 00
        E 0 90 61 60
        E 120 80 61 00
        E 120 90 56 60
        E 0 90 62 60
        E 120 80 56 00
        E 0 80 62 00
        E 0 90 74 60
        E 240 90 55 60
        E 0 90 61 60
        E 120 80 55 00
        E 0 80 61 00
        E 120 90 4a 60
        E 0 90 56 60
        E 0 90 62 60
        E 120 80 4a 00
        E 0 80 56 00
        E 0 80 62 00
        E 120 90 57 60
        E 0 90 63 60
        E 120 80 57 00
        E 0 80 63 00
        E 120 90 3e 60
        E 0 90 4b 60
        E 0 90 58 60
        E 0 90 64 60
        E 120 80 3e 00
        E 0 80 4b 00
        E 0 80 58 00
        E 0 80 64 00
        E 360 90 3e 60
        E 0 90 4b 60
        E 0 90 58 60
        E 0 90 64 60
        E 120 80 3e 00
        E 0 80 4b 00
        E 0 80 58 00
        E 0 80 64 00
        E 240 90 58 60
        E 0 90 64 60
        E 120 80 58 00
        E 0 80 64 00
        E 120 90 56 60
        E 0 90 62 60
        E 120 80 56 00
        E 0 80 62 00
        E 240 90 3c 60
        E 0 90 49 60
        E 0 90 55 60
        E 0 90 61 60
        E 120 80 3c 00
        E 0 80 49 00
        E 0 80 55 00
        E 0 80 61 00
        E 120 90 54 60
        E 0 90 60 60
        E 120 80 54 00
        E 0 80 60 00
        E 120 80 74 00
        E 240 90 55 60
        E 0 90 61 60
        E 120 80 55 00
        E 0 80 61 00
        E 120 90 4a 60
        E 0 90 56 60
        E 0 90 62 60
        E 120 80 4a 00
        E 0 80 56 00
        E 0 80 62 00
        E 120 90 57 60
        E 0 90 63 60
        E 120 80 57 00
        E 0 80 63 00
        E 120 90 3e 60
        E 0 90 4b 60
        E 0 90 58 60
        E 0 90 64 60
        E 120 80 3e 00
        E 0 80 4b 00
        E 0 80 58 00
        E 360 80 64 00
        E 6 80 38 00
        E 114 90 28 60
        E 0 90 55 60
        E 0 90 61 60
        E 120 80 55 00
        E 0 80 61 00
        E 240 90 3e 60
        E 0 90 4b 60
        E 0 90 58 60
        E 0 90 64 60
        E 120 80 3e 00
        E 0 80 4b 00
        E 0 80 58 00
        E 0 80 64 00
        E 360 90 3e 60
        E 0 90 4b 60
        E 0 90 58 60
        E 0 90 64 60
        E 120 80 3e 00
        E 0 80 4b 00
        E 0 80 58 00
        E 0 80 64 00
        E 240 90 58 60
        E 0 90 64 60
        E 120 80 58 00
        E 0 80 64 00
        E 120 90 4b 60
        E 0 90 57 60
        E 0 90 63 60
        E 120 80 4b 00
        E 0 80 57 00
        E 0 80 63 00
        E 120 90 55 60
        E 0 90 63 60
        E 120 80 55 00
        E 0 80 63 00
        E 0 90 61 60
        E 360 80 61 00
        E 120 90 3e 60
        E 0 90 4b 60
        E 0 90 57 60
        E 0 90 63 60
        E 120 80 3e 00
        E 0 80 4b 00
        E 0 80 57 00
        E 0 80 63 00
        E 360 90 3e 60
        E 0 90 4b 60
        E 0 90 57 60
        E 0 90 63 60
        E 120 80 3e 00
        E 0 80 4b 00
        E 0 80 57 00
        E 0 80 63 00
        E 240 90 57 60
        E 0 90 63 60
        E 120 80 57 00
        E 0 80 63 00
        E 120 90 4a 60
        E 0 90 56 60
        E 0 90 62 60
        E 120 80 4a 00
        E 0 80 56 00
        E 0 80 62 00
        E 120 90 55 60
        E 0 90 62 60
        E 120 80 55 00
        E 0 80 62 00
        E 0 90 61 60
        E 360 80 61 00
        E 120 90 3d 60
        E 0 90 4a 60
        E 0 90 56 60
        E 0 90 62 60
        E 120 80 3d 00
        E 0 80 4a 00
        E 0 80 56 00
        E 0 80 62 00
        E 360 90 3d 60
        E 0 90 4a 60
        E 0 90 56 60
        E 0 90 62 60
        E 120 80 3d 00
        E 0 80 4a 00
        E 0 80 56 00
        E 0 80 62 00
        E 240 90 56 60
        E 0 90 62 60
        E 120 80 56 00
        E 0 80 62 00
        E 120 90 49 60
        E 0 90 55 60
        E 0 90 61 60
        E 120 80 49 00
        E 0 80 55 00
        E 0 80 61 00
        E 120 90 58 60
        E 0 90 61 60
        E 120 80 58 00
        E 0 80 61 00
        E 0 90 64 60
        E 120 80 64 00
        E 120 90 58 60
        E 0 90 64 60
        E 120 80 58 00
        E 0 80 64 00
        E 120 90 3e 60
        E 0 90 4b 60
        E 0 90 57 60
        E 0 90 63 60
        E 120 80 3e 00
        E 0 80 4b 00
        E 0 80 57 00
        E 0 80 63 00
        E 1800 90 3e 60
        E 0 90 4b 60
        E 0 90 58 60
        E 0 90 64 60
        E 120 80 3e 00
        E 0 80 4b 00
        E 0 80 58 00
        E 0 80 64 00
        E 360 90 3e 60
        E 0 90 4b 60
        E 0 90 58 60
        E 0 90 64 60
        E 120 80 3e 00
        E 0 80 4b 00
        E 0 80 58 00
        E 0 80 64 00
        E 240 90 58 60
        E 0 90 64 60
        E 120 80 58 00
        E 0 80 64 00
        E 120 90 4b 60
        E 0 90 57 60
        E 0 90 63 60
        E 120 80 4b 00
        E 0 80 57 00
        E 0 80 63 00
        E 120 90 55 60
        E 0 90 63 60
        E 120 80 55 00
        E 0 80 63 00
        E 0 90 61 60
        E 360 80 61 00
        E 120 90 3e 60
        E 0 90 4b 60
        E 0 90 57 60
        E 0 90 63 60
        E 120 80 3e 00
        E 0 80 4b 00
        E 0 80 57 00
        E 0 80 63 00
        E 360 90 3e 60
        E 0 90 4b 60
        E 0 90 57 60
        E 0 90 63 60
        E 120 80 3e 00
        E 0 80 4b 00
        E 0 80 57 00
        E 0 80 63 00
        E 240 90 57 60
        E 0 90 63 60
        E 120 80 57 00
        E 0 80 63 00
        E 120 90 4a 60
        E 0 90 56 60
        E 0 90 62 60
        E 120 80 4a 00
        E 0 80 56 00
        E 0 80 62 00
        E 120 90 55 60
        E 0 90 62 60
        E 120 80 55 00
        E 0 80 62 00
        E 0 90 61 60
        E 360 80 61 00
        E 120 90 3d 60
        E 0 90 4a 60
        E 0 90 56 60
        E 0 90 62 60
        E 120 80 3d 00
        E 0 80 4a 00
        E 0 80 56 00
        E 0 80 62 00
        E 360 90 3d 60
        E 0 90 4a 60
        E 0 90 56 60
        E 0 90 62 60
        E 120 80 3d 00
        E 0 80 4a 00
        E 0 80 56 00
        E 0 80 62 00
        E 240 90 56 60
        E 0 90 62 60
        E 120 80 56 00
        E 0 80 62 00
        E 120 90 49 60
        E 0 90 55 60
        E 0 90 61 60
        E 120 80 49 00
        E 0 80 55 00
        E 0 80 61 00
        E 120 90 58 60
        E 0 90 61 60
        E 120 80 58 00
        E 0 80 61 00
        E 0 90 64 60
        E 120 80 64 00
        E 120 90 58 60
        E 0 90 64 60
        E 120 80 58 00
        E 0 80 64 00
        E 120 90 3e 60
        E 0 90 4b 60
        E 0 90 57 60
        E 0 90 63 60
        E 120 80 3e 00
        E 0 80 4b 00
        E 0 80 57 00
        E 0 80 63 00
        E 1080 90 55 60
        E 0 90 61 60
        E 120 80 55 00
        E 0 80 61 00
        E 120 90 4a 60
        E 0 90 56 60
        E 0 90 62 60
        E 120 80 4a 00
        E 0 80 56 00
        E 0 80 62 00
        E 6 80 28 00
        E 114 90 2b 60
        E 0 90 57 60
        E 0 90 63 60
        E 120 80 57 00
        E 0 80 63 00
        E 120 90 3e 60
        E 0 90 4b 60
        E 0 90 58 60
        E 0 90 64 60
        E 120 80 3e 00
        E 0 80 4b 00
        E 0 80 58 00
        E 0 80 64 00
        E 360 90 3e 60
        E 0 90 4b 60
        E 0 90 58 60
        E 0 90 64 60
        E 120 80 3e 00
        E 0 80 4b 00
        E 0 80 58 00
        E 0 80 64 00
        E 240 90 58 60
        E 0 90 64 60
        E 120 80 58 00
        E 0 80 64 00
        E 120 90 4b 60
        E 0 90 57 60
        E 0 90 63 60
        E 120 80 4b 00
        E 0 80 57 00
        E 0 80 63 00
        E 240 90 4b 60
        E 0 90 57 60
        E 0 90 63 60
        E 120 80 4b 00
        E 0 80 57 00
        E 0 80 63 00
        E 120 90 58 60
        E 0 90 64 60
        E 120 80 58 00
        E 0 80 64 00
        E 120 90 3d 60
        E 0 90 4a 60
        E 0 90 56 60
        E 0 90 62 60
        E 120 80 3d 00
        E 0 80 4a 00
        E 0 80 56 00
        E 0 80 62 00
        E 120 90 56 60
        E 0 90 62 60
        E 120 80 56 00
        E 0 80 62 00
        E 120 90 49 60
        E 0 90 55 60
        E 0 90 62 60
        E 120 80 49 00
        E 0 80 55 00
        E 0 80 62 00
        E 0 90 61 60
        E 120 80 61 00
        E 120 90 56 60
        E 0 90 62 60
        E 120 80 56 00
        E 0 80 62 00
        E 240 90 54 60
        E 0 90 60 60
        E 120 80 54 00
        E 0 80 60 00
        E 120 90 49 60
        E 0 90 55 60
        E 0 90 61 60
        E 120 80 49 00
        E 0 80 55 00
        E 0 80 61 00
        E 120 90 56 60
        E 0 90 62 60
        E 120 80 56 00
        E 0 80 62 00
        E 120 90 3e 60
        E 0 90 4b 60
        E 0 90 57 60
        E 0 90 63 60
        E 120 80 3e 00
        E 0 80 4b 00
        E 0 80 57 00
        E 0 80 63 00
        E 360 90 3e 60
        E 0 90 4b 60
        E 0 90 57 60
        E 0 90 63 60
        E 120 80 3e 00
        E 0 80 4b 00
        E 0 80 57 00
        E 0 80 63 00
        E 240 90 57 60
        E 0 90 63 60
        E 120 80 57 00
        E 0 80 63 00
        E 120 90 56 60
        E 0 90 62 60
        E 120 80 56 00
        E 0 80 62 00
        E 240 90 3c 60
        E 0 90 49 60
        E 0 90 55 60
        E 0 90 61 60
        E 120 80 3c 00
        E 0 80 49 00
        E 0 80 55 00
        E 0 80 61 00
        E 120 90 54 60
        E 0 90 60 60
        E 120 80 54 00
        E 0 80 60 00
        E 360 90 55 60
        E 0 90 61 60
        E 120 80 55 00
        E 0 80 61 00
        E 120 90 4a 60
        E 0 90 56 60
        E 0 90 62 60
        E 120 80 4a 00
        E 0 80 56 00
        E 0 80 62 00
        E 120 90 57 60
        E 0 90 63 60
        E 120 80 57 00
        E 0 80 63 00
        E 120 90 3e 60
        E 0 90 4b 60
        E 0 90 58 60
        E 0 90 64 60
        E 120 80 3e 00
        E 0 80 4b 00
        E 0 80 58 00
        E 360 80 64 00
        E 120 90 55 60
        E 0 90 61 60
        E 120 80 55 00
        E 0 80 61 00
        E 126 80 2b 00
        E 114 90 38 60
        E 0 90 3e 60
        E 0 90 4b 60
        E 0 90 58 60
        E 0 90 64 60
        E 0 90 74 60
        E 120 80 3e 00
        E 0 80 4b 00
        E 0 80 58 00
        E 0 80 64 00
        E 360 90 3e 60
        E 0 90 4b 60
        E 0 90 58 60
        E 0 90 64 60
        E 120 80 3e 00
        E 0 80 4b 00
        E 0 80 58 00
        E 0 80 64 00
        E 240 90 58 60
        E 0 90 64 60
        E 120 80 58 00
        E 0 80 64 00
        E 120 90 4b 60
        E 0 90 57 60
        E 0 90 63 60
        E 120 80 4b 00
        E 0 80 57 00
        E 0 80 63 00
        E 240 90 3e 60
        E 0 90 4b 60
        E 0 90 57 60
        E 0 90 63 60
        E 120 80 3e 00
        E 0 80 4b 00
        E 0 80 57 00
        E 0 80 63 00
        E 120 90 58 60
        E 0 90 64 60
        E 120 80 58 00
        E 0 80 64 00
        E 120 90 3e 60
        E 0 90 4b 60
        E 0 90 57 60
        E 0 90 63 60
        E 120 80 3e 00
        E 0 80 4b 00
        E 0 80 57 00
        E 0 80 63 00
        E 120 90 56 60
        E 0 90 62 60
        E 120 80 56 00
        E 0 80 62 00
        E 120 90 49 60
        E 0 90 55 60
        E 0 90 62 60
        E 120 80 49 00
        E 0 80 55 00
        E 0 80 62 00
        E 0 90 61 60
        E 120 80 61 00
        E 120 90 56 60
        E 0 90 62 60
        E 120 80 56 00
        E 0 80 62 00
        E 240 90 55 60
        E 0 90 61 60
        E 120 80 55 00
        E 0 80 61 00
        E 120 90 4a 60
        E 0 90 56 60
        E 0 90 62 60
        E 120 80 4a 00
        E 0 80 56 00
        E 0 80 62 00
        E 120 90 57 60
        E 0 90 63 60
        E 120 80 57 00
        E 0 80 63 00
        E 120 80 74 00
        E 0 90 3e 60
        E 0 90 4b 60
        E 0 90 58 60
        E 0 90 64 60
        E 120 80 3e 00
        E 0 80 4b 00
        E 0 80 58 00
        E 0 80 64 00
        E 360 90 3e 60
        E 0 90 4b 60
        E 0 90 58 60
        E 0 90 64 60
        E 120 80 3e 00
        E 0 80 4b 00
        E 0 80 58 00
        E 0 80 64 00
        E 240 90 58 60
        E 0 90 64 60
        E 120 80 58 00
        E 0 80 64 00
        E 120 90 56 60
        E 0 90 62 60
        E 120 80 56 00
        E 0 80 62 00
        E 240 90 3c 60
        E 0 90 49 60
        E 0 90 55 60
        E 0 90 61 60
        E 120 80 3c 00
        E 0 80 49 00
        E 0 80 55 00
        E 0 80 61 00
        E 120 90 54 60
        E 0 90 60 60
        E 120 80 54 00
        E 0 80 60 00
        E 360 90 55 60
        E 0 90 61 60
        E 120 80 55 00
        E 0 80 61 00
        E 120 90 4a 60
        E 0 90 56 60
        E 0 90 62 60
        E 120 80 4a 00
        E 0 80 56 00
        E 0 80 62 00
        E 120 90 57 60
        E 0 90 63 60
        E 120 80 57 00
        E 0 80 63 00
        E 120 90 3e 60
        E 0 90 4b 60
        E 0 90 58 60
        E 0 90 64 60
        E 120 80 3e 00
        E 0 80 4b 00
        E 0 80 58 00
        E 360 80 64 00
        E 6 80 38 00
        E 114 90 28 60
        E 0 90 55 60
        E 0 90 61 60
        E 120 80 55 00
        E 0 80 61 00
        E 240 90 3e 60
        E 0 90 4b 60
        E 0 90 58 60
        E 0 90 64 60
        E 120 80 3e 00
        E 0 80 4b 00
        E 0 80 58 00
        E 0 80 64 00
        E 360 90 3e 60
        E 0 90 4b 60
        E 0 90 58 60
        E 0 90 64 60
        E 120 80 3e 00
        E 0 80 4b 00
        E 0 80 58 00
        E 0 80 64 00
        E 240 90 58 60
        E 0 90 64 60
        E 120 80 58 00
        E 0 80 64 00
        E 120 90 4b 60
        E 0 90 57 60
        E 0 90 63 60
        E 120 80 4b 00
        E 0 80 57 00
        E 0 80 63 00
        E 120 90 55 60
        E 0 90 63 60
        E 120 80 55 00
        E 0 80 63 00
        E 0 90 61 60
        E 360 80 61 00
        E 120 90 3e 60
        E 0 90 4b 60
        E 0 90 57 60
        E 0 90 63 60
        E 120 80 3e 00
        E 0 80 4b 00
        E 0 80 57 00
        E 0 80 63 00
        E 360 90 3e 60
        E 0 90 4b 60
        E 0 90 57 60
        E 0 90 63 60
        E 120 80 3e 00
        E 0 80 4b 00
        E 0 80 57 00
        E 0 80 63 00
        E 240 90 57 60
        E 0 90 63 60
        E 120 80 57 00
        E 0 80 63 00
        E 120 90 4a 60
        E 0 90 56 60
        E 0 90 62 60
        E 120 80 4a 00
        E 0 80 56 00
        E 0 80 62 00
        E 120 90 55 60
        E 0 90 62 60
        E 120 80 55 00
        E 0 80 62 00
        E 0 90 61 60
        E 360 80 61 00
        E 120 90 3d 60
        E 0 90 4a 60
        E 0 90 56 60
        E 0 90 62 60
        E 120 80 3d 00
        E 0 80 4a 00
        E 0 80 56 00
        E 0 80 62 00
        E 360 90 3d 60
        E 0 90 4a 60
        E 0 90 56 60
        E 0 90 62 60
        E 120 80 3d 00
        E 0 80 4a 00
        E 0 80 56 00
        E 0 80 62 00
        E 240 90 56 60
        E 0 90 62 60
        E 120 80 56 00
        E 0 80 62 00
        E 120 90 49 60
        E 0 90 55 60
        E 0 90 61 60
        E 120 80 49 00
        E 0 80 55 00
        E 0 80 61 00
        E 120 90 58 60
        E 0 90 61 60
        E 120 80 58 00
        E 0 80 61 00
        E 0 90 64 60
        E 120 80 64 00
        E 120 90 58 60
        E 0 90 64 60
        E 120 80 58 00
        E 0 80 64 00
        E 120 90 3e 60
        E 0 90 4b 60
        E 0 90 57 60
        E 0 90 63 60
        E 120 80 3e 00
        E 0 80 4b 00
        E 0 80 57 00
        E 0 80 63 00
        E 1800 90 3e 60
        E 0 90 4b 60
        E 0 90 58 60
        E 0 90 64 60
        E 0 90 74 60
        E 120 80 3e 00
        E 0 80 4b 00
        E 0 80 58 00
        E 0 80 64 00
        E 360 90 3e 60
        E 0 90 4b 60
        E 0 90 58 60
        E 0 90 64 60
        E 120 80 3e 00
        E 0 80 4b 00
        E 0 80 58 00
        E 0 80 64 00
        E 240 90 58 60
        E 0 90 64 60
        E 120 80 58 00
        E 0 80 64 00
        E 120 90 4b 60
        E 0 90 57 60
        E 0 90 63 60
        E 120 80 4b 00
        E 0 80 57 00
        E 0 80 63 00
        E 120 90 55 60
        E 0 90 63 60
        E 120 80 55 00
        E 0 80 63 00
        E 0 90 61 60
        E 360 80 61 00
        E 120 80 74 00
        E 0 90 3e 60
        E 0 90 4b 60
        E 0 90 57 60
        E 0 90 63 60
        E 120 80 3e 00
        E 0 80 4b 00
        E 0 80 57 00
        E 0 80 63 00
        E 360 90 3e 60
        E 0 90 4b 60
        E 0 90 57 60
        E 0 90 63 60
        E 120 80 3e 00
        E 0 80 4b 00
        E 0 80 57 00
        E 0 80 63 00
        E 240 90 57 60
        E 0 90 63 60
        E 120 80 57 00
        E 0 80 63 00
        E 120 90 4a 60
        E 0 90 56 60
        E 0 90 62 60
        E 120 80 4a 00
        E 0 80 56 00
        E 0 80 62 00
        E 120 90 55 60
        E 0 90 62 60
        E 120 80 55 00
        E 0 80 62 00
        E 0 90 61 60
        E 360 80 61 00
        E 120 90 3d 60
        E 0 90 4a 60
        E 0 90 56 60
        E 0 90 62 60
        E 120 80 3d 00
        E 0 80 4a 00
        E 0 80 56 00
        E 0 80 62 00
        E 360 90 3d 60
        E 0 90 4a 60
        E 0 90 56 60
        E 0 90 62 60
        E 120 80 3d 00
        E 0 80 4a 00
        E 0 80 56 00
        E 0 80 62 00
        E 240 90 56 60
        E 0 90 62 60
        E 120 80 56 00
        E 0 80 62 00
        E 120 90 49 60
        E 0 90 55 60
        E 0 90 61 60
        E 120 80 49 00
        E 0 80 55 00
        E 0 80 61 00
        E 120 90 58 60
        E 0 90 61 60
        E 120 80 58 00
        E 0 80 61 00
        E 0 90 64 60
        E 120 80 64 00
        E 120 90 58 60
        E 0 90 64 60
        E 120 80 58 00
        E 0 80 64 00
        E 120 90 3e 60
        E 0 90 4b 60
        E 0 90 57 60
        E 0 90 63 60
        E 120 80 3e 00
        E 0 80 4b 00
        E 0 80 57 00
        E 0 80 63 00
        E 1080 90 55 60
        E 0 90 61 60
        E 120 80 55 00
        E 0 80 61 00
        E 120 90 4a 60
        E 0 90 56 60
        E 0 90 62 60
        E 120 80 4a 00
        E 0 80 56 00
        E 0 80 62 00
        E 6 80 28 00
        E 114 90 2b 60
        E 0 90 57 60
        E 0 90 63 60
        E 120 80 57 00
        E 0 80 63 00
        E 120 90 3e 60
        E 0 90 4b 60
        E 0 90 58 60
        E 0 90 64 60
        E 120 80 3e 00
        E 0 80 4b 00
        E 0 80 58 00
        E 0 80 64 00
        E 360 90 3e 60
        E 0 90 4b 60
        E 0 90 58 60
        E 0 90 64 60
        E 120 80 3e 00
        E 0 80 4b 00
        E 0 80 58 00
        E 0 80 64 00
        E 240 90 58 60
        E 0 90 64 60
        E 120 80 58 00
        E 0 80 64 00
        E 120 90 4b 60
        E 0 90 57 60
        E 0 90 63 60
        E 120 80 4b 00
        E 0 80 57 00
        E 0 80 63 00
        E 240 90 4b 60
        E 0 90 57 60
        E 0 90 63 60
        E 120 80 4b 00
        E 0 80 57 00
        E 0 80 63 00
        E 120 90 58 60
        E 0 90 64 60
        E 120 80 58 00
        E 0 80 64 00
        E 120 90 3d 60
        E 0 90 4a 60
        E 0 90 56 60
        E 0 90 62 60
        E 120 80 3d 00
        E 0 80 4a 00
        E 0 80 56 00
        E 0 80 62 00
        E 120 90 56 60
        E 0 90 62 60
        E 120 80 56 00
        E 0 80 62 00
        E 120 90 49 60
        E 0 90 55 60
        E 0 90 62 60
        E 120 80 49 00
        E 0 80 55 00
        E 0 80 62 00
        E 0 90 61 60
        E 120 80 61 00
        E 120 90 56 60
        E 0 90 62 60
        E 120 80 56 00
        E 0 80 62 00
        E 240 90 54 60
        E 0 90 60 60
        E 0 90 74 60
        E 120 80 54 00
        E 0 80 60 00
        E 120 90 49 60
        E 0 90 55 60
        E 0 90 61 60
        E 120 80 49 00
        E 0 80 55 00
        E 0 80 61 00
        E 120 90 56 60
        E 0 90 62 60
        E 120 80 56 00
        E 0 80 62 00
        E 120 90 3e 60
        E 0 90 4b 60
        E 0 90 57 60
        E 0 90 63 60
        E 120 80 3e 00
        E 0 80 4b 00
        E 0 80 57 00
        E 0 80 63 00
        E 360 90 3e 60
        E 0 90 4b 60
        E 0 90 57 60
        E 0 90 63 60
        E 120 80 3e 00
        E 0 80 4b 00
        E 0 80 57 00
        E 0 80 63 00
        E 240 90 57 60
        E 0 90 63 60
        E 120 80 57 00
        E 0 80 63 00
        E 120 90 56 60
        E 0 90 62 60
        E 120 80 56 00
        E 0 80 62 00
        E 240 90 3c 60
        E 0 90 49 60
        E 0 90 55 60
        E 0 90 61 60
        E 120 80 3c 00
        E 0 80 49 00
        E 0 80 55 00
        E 0 80 61 00
        E 120 90 54 60
        E 0 90 60 60
        E 120 80 54 00
        E 0 80 60 00
        E 360 90 55 60
        E 0 90 61 60
        E 120 80 55 00
        E 0 80 61 00
        E 120 90 4a 60
        E 0 90 56 60
        E 0 90 62 60
        E 120 80 4a 00
        E 0 80 56 00
        E 0 80 62 00
        E 120 90 57 60
        E 0 90 63 60
        E 120 80 57 00
        E 0 80 63 00
        E 120 90 3e 60
        E 0 90 4b 60
        E 0 90 58 60
        E 0 90 64 60
        E 120 80 74 00
        E 0 80 3e 00
        E 0 80 4b 00
        E 0 80 58 00
        E 360 80 64 00
        E 120 90 55 60
        E 0 90 61 60
        E 120 80 55 00
        E 0 80 61 00
        E 126 80 2b 00
        E 114 90 38 60
        E 0 90 3e 60
        E 0 90 4b 60
        E 0 90 58 60
        E 0 90 64 60
        E 120 80 3e 00
        E 0 80 4b 00
        E 0 80 58 00
        E 0 80 64 00
        E 360 90 3e 60
        E 0 90 4b 60
        E 0 90 58 60
        E 0 90 64 60
        E 120 80 3e 00
        E 0 80 4b 00
        E 0 80 58 00
        E 0 80 64 00
        E 240 90 58 60
        E 0 90 64 60
        E 120 80 58 00
        E 0 80 64 00
        E 120 90 4b 60
        E 0 90 57 60
        E 0 90 63 60
        E 120 80 4b 00
        E 0 80 57 00
        E 0 80 63 00
        E 240 90 3e 60
        E 0 90 4b 60
        E 0 90 57 60
        E 0 90 63 60
        E 120 80 3e 00
        E 0 80 4b 00
        E 0 80 57 00
        E 0 80 63 00
        E 120 90 58 60
        E 0 90 64 60
        E 120 80 58 00
        E 0 80 64 00
        E 120 90 3e 60
        E 0 90 4b 60
        E 0 90 57 60
        E 0 90 63 60
        E 120 80 3e 00
        E 0 80 4b 00
        E 0 80 57 00
        E 0 80 63 00
        E 120 90 56 60
        E 0 90 62 60
        E 120 80 56 00
        E 0 80 62 00
        E 120 90 49 60
        E 0 90 55 60
        E 0 90 62 60
        E 120 80 49 00
        E 0 80 55 00
        E 0 80 62 00
        E 0 90 61 60
        E 120 80 61 00
        E 120 90 56 60
        E 0 90 62 60
        E 120 80 56 00
        E 0 80 62 00
        E 240 90 55 60
        E 0 90 61 60
        E 120 80 55 00
        E 0 80 61 00
        E 120 90 4a 60
        E 0 90 56 60
        E 0 90 62 60
        E 120 80 4a 00
        E 0 80 56 00
        E 0 80 62 00
        E 120 90 57 60
        E 0 90 63 60
        E 120 80 57 00
        E 0 80 63 00
        E 120 90 3e 60
        E 0 90 4b 60
        E 0 90 58 60
        E 0 90 64 60
        E 120 80 3e 00
        E 0 80 4b 00
        E 0 80 58 00
        E 0 80 64 00
        E 360 90 3e 60
        E 0 90 4b 60
        E 0 90 58 60
        E 0 90 64 60
        E 120 80 3e 00
        E 0 80 4b 00
        E 0 80 58 00
        E 0 80 64 00
        E 240 90 58 60
        E 0 90 64 60
        E 120 80 58 00
        E 0 80 64 00
        E 120 90 56 60
        E 0 90 62 60
        E 120 80 56 00
        E 0 80 62 00
        E 240 90 3c 60
        E 0 90 49 60
        E 0 90 55 60
        E 0 90 61 60
        E 120 80 3c 00
        E 0 80 49 00
        E 0 80 55 00
        E 0 80 61 00
        E 120 90 54 60
        E 0 90 60 60
        E 120 80 54 00
        E 0 80 60 00
        E 360 90 55 60
        E 0 90 61 60
        E 120 80 55 00
        E 0 80 61 00
        E 120 90 4a 60
        E 0 90 56 60
        E 0 90 62 60
        E 120 80 4a 00
        E 0 80 56 00
        E 0 80 62 00
        E 120 90 57 60
        E 0 90 63 60
        E 120 80 57 00
        E 0 80 63 00
        E 120 90 3e 60
        E 0 90 4b 60
        E 0 90 58 60
        E 0 90 64 60
        E 120 80 3e 00
        E 0 80 4b 00
        E 0 80 58 00
        E 360 80 64 00
        E 6 80 38 00
        E 114 90 28 60
        E 0 90 55 60
        E 0 90 61 60
        E 120 80 55 00
        E 0 80 61 00
        E 240 90 3e 60
        E 0 90 4b 60
        E 0 90 58 60
        E 0 90 64 60
        E 120 80 3e 00
        E 0 80 4b 00
        E 0 80 58 00
        E 0 80 64 00
        E 360 90 3e 60
        E 0 90 4b 60
        E 0 90 58 60
        E 0 90 64 60
        E 120 80 3e 00
        E 0 80 4b 00
        E 0 80 58 00
        E 0 80 64 00
        E 240 90 58 60
        E 0 90 64 60
        E 120 80 58 00
        E 0 80 64 00
        E 120 90 4b 60
        E 0 90 57 60
        E 0 90 63 60
        E 120 80 4b 00
        E 0 80 57 00
        E 0 80 63 00
        E 120 90 55 60
        E 0 90 63 60
        E 120 80 55 00
        E 0 80 63 00
        E 0 90 61 60
        E 360 80 61 00
        E 120 90 3e 60
        E 0 90 4b 60
        E 0 90 57 60
        E 0 90 63 60
        E 120 80 3e 00
        E 0 80 4b 00
        E 0 80 57 00
        E 0 80 63 00
        E 360 90 3e 60
        E 0 90 4b 60
        E 0 90 57 60
        E 0 90 63 60
        E 120 80 3e 00
        E 0 80 4b 00
        E 0 80 57 00
        E 0 80 63 00
        E 240 90 57 60
        E 0 90 63 60
        E 120 80 57 00
        E 0 80 63 00
        E 120 90 4a 60
        E 0 90 56 60
        E 0 90 62 60
        E 120 80 4a 00
        E 0 80 56 00
        E 0 80 62 00
        E 120 90 55 60
        E 0 90 62 60
        E 120 80 55 00
        E 0 80 62 00
        E 0 90 61 60
        E 360 80 61 00
        E 120 90 3d 60
        E 0 90 4a 60
        E 0 90 56 60
        E 0 90 62 60
        E 120 80 3d 00
        E 0 80 4a 00
        E 0 80 56 00
        E 0 80 62 00
        E 360 90 3d 60
        E 0 90 4a 60
        E 0 90 56 60
        E 0 90 62 60
        E 120 80 3d 00
        E 0 80 4a 00
        E 0 80 56 00
        E 0 80 62 00
        E 240 90 56 60
        E 0 90 62 60
        E 120 80 56 00
        E 0 80 62 00
        E 120 90 49 60
        E 0 90 55 60
        E 0 90 61 60
        E 120 80 49 00
        E 0 80 55 00
        E 0 80 61 00
        E 120 90 58 60
        E 0 90 61 60
        E 120 80 58 00
        E 0 80 61 00
        E 0 90 64 60
        E 120 80 64 00
        E 120 90 58 60
        E 0 90 64 60
        E 120 80 58 00
        E 0 80 64 00
        E 120 90 3e 60
        E 0 90 4b 60
        E 0 90 57 60
        E 0 90 63 60
        E 120 80 3e 00
        E 0 80 4b 00
        E 0 80 57 00
        E 0 80 63 00
        E 1800 90 3e 60
        E 0 90 4b 60
        E 0 90 58 60
        E 0 90 64 60
        E 120 80 3e 00
        E 0 80 4b 00
        E 0 80 58 00
        E 0 80 64 00
        E 360 90 3e 60
        E 0 90 4b 60
        E 0 90 58 60
        E 0 90 64 60
        E 120 80 3e 00
        E 0 80 4b 00
        E 0 80 58 00
        E 0 80 64 00
        E 240 90 58 60
        E 0 90 64 60
        E 120 80 58 00
        E 0 80 64 00
        E 120 90 4b 60
        E 0 90 57 60
        E 0 90 63 60
        E 120 80 4b 00
        E 0 80 57 00
        E 0 80 63 00
        E 120 90 55 60
        E 0 90 63 60
        E 120 80 55 00
        E 0 80 63 00
        E 0 90 61 60
        E 360 80 61 00
        E 120 90 3e 60
        E 0 90 4b 60
        E 0 90 57 60
        E 0 90 63 60
        E 120 80 3e 00
        E 0 80 4b 00
        E 0 80 57 00
        E 0 80 63 00
        E 360 90 3e 60
        E 0 90 4b 60
        E 0 90 57 60
        E 0 90 63 60
        E 120 80 3e 00
        E 0 80 4b 00
        E 0 80 57 00
        E 0 80 63 00
        E 240 90 57 60
        E 0 90 63 60
        E 120 80 57 00
        E 0 80 63 00
        E 120 90 4a 60
        E 0 90 56 60
        E 0 90 62 60
        E 120 80 4a 00
        E 0 80 56 00
        E 0 80 62 00
        E 120 90 55 60
        E 0 90 62 60
        E 120 80 55 00
        E 0 80 62 00
        E 0 90 61 60
        E 360 80 61 00
        E 120 90 3d 60
        E 0 90 4a 60
        E 0 90 56 60
        E 0 90 62 60
        E 120 80 3d 00
        E 0 80 4a 00
        E 0 80 56 00
        E 0 80 62 00
        E 360 90 3d 60
        E 0 90 4a 60
        E 0 90 56 60
        E 0 90 62 60
        E 120 80 3d 00
        E 0 80 4a 00
        E 0 80 56 00
        E 0 80 62 00
        E 240 90 56 60
        E 0 90 62 60
        E 120 80 56 00
        E 0 80 62 00
        E 120 90 49 60
        E 0 90 55 60
        E 0 90 61 60
        E 120 80 49 00
        E 0 80 55 00
        E 0 80 61 00
        E 120 90 58 60
        E 0 90 61 60
        E 120 80 58 00
        E 0 80 61 00
        E 0 90 64 60
        E 120 80 64 00
        E 120 90 58 60
        E 0 90 64 60
        E 120 80 58 00
        E 0 80 64 00
        E 120 90 3e 60
        E 0 90 4b 60
        E 0 90 57 60
        E 0 90 63 60
        E 120 80 3e 00
        E 0 80 4b 00
        E 0 80 57 00
        E 0 80 63 00
        E 120 80 28 00
        <X 360 0
          /wFbaWRsZV9yZWFsdGltZV0=
        >
        E 1320 b0 7b 00
        GUID {49BDD9AC-AC48-43BA-B464-FCDE4F00C39C}
        IGNTEMPO 0 120.00000000 4 4
        SRCCOLOR 5
        VELLANE 132 128 60
        COLORMAP "C:\Program Files\REAPER (x64)\Data\color_maps\rockband_guitarbass.png"
        CFGEDITVIEW -6761.581848 12.955548 0 12 0 0 0
        CFGEDIT 1 1 0 1 1 0 1 1 1 1 1 0.25000000 -8 -8 1544 872 0 2 1 1 0.00000000 0 1 0 0 0.500000 0 0 1.000000 64
        KEYSNAP 0 6 "102030050700" 0 "Pentatonic"
        EVTFILTER 0 -1 -1 -1 -1 0 1 0 0 -1.00000000 -1.00000000
      >
    >
  >
  <TRACK '{6E8A62C4-A884-4494-9FB8-F36BE122D00F}'
    NAME "guitar"
    PEAKCOL 16576
    BEAT -1
    AUTOMODE 0
    VOLPAN 1.00000000000000 0.00000000000000 -1.00000000000000 -1.00000000000000 1.00000000000000
    MUTESOLO 0 0 0
    IPHASE 0
    ISBUS 2 -1
    BUSCOMP 0 0
    SHOWINMIX 1 0.666700 0.500000 1 0.500000 -1 -1 -1
    FREEMODE 0
    SEL 1
    REC 0 0 0 0 0 0 0
    VU 2
    TRACKHEIGHT 0 0
    INQ 0 0 0 0.5000000000 100 0 0 100
    NCHAN 2
    FX 1
    TRACKID {6E8A62C4-A884-4494-9FB8-F36BE122D00F}
    PERF 0
    MIDIOUT -1
    MAINSEND 1 0
    <ITEM
      POSITION 0.00000000000000
      SNAPOFFS 0.00000000000000
      LENGTH 96.00000000000000
      LOOP 0
      ALLTAKES 0
      SEL 0
      FADEIN 1 0.000000 0.000000 1 0
      FADEOUT 1 0.000000 0.000000 1 0
      MUTE 0
      IGUID {3CEF0800-EAC7-44B7-9BF7-DCFEB6832741}
      IID 17
      NAME "guitar.wav"
      VOLPAN 1.000000 0.000000 1.000000 -1.000000
      SOFFS 0.00000000000000
      PLAYRATE 1.00000000000000 1 0.00000000000000 -1
      CHANMODE 0
      GUID {5C672CFB-1AB1-4141-9E98-35EB1C05DEA6}
      <SOURCE WAVE
        FILE "wav\guitar.wav"
      >
    >
  >
  <TRACK '{5CD22F04-3C45-4143-87B9-B3A454C7EB3D}'
    NAME "PART KEYS"
    PEAKCOL 16576
    BEAT -1
    AUTOMODE 0
    VOLPAN 1.00000000000000 0.00000000000000 -1.00000000000000 -1.00000000000000 1.00000000000000
    MUTESOLO 0 0 0
    IPHASE 0
    ISBUS 1 1
    BUSCOMP 0 0
    SHOWINMIX 1 0.666700 0.500000 1 0.500000 -1 -1 -1
    FREEMODE 0
    SEL 0
    REC 0 0 0 0 0 0 0
    VU 2
    TRACKHEIGHT 0 0
    INQ 0 0 0 0.5000000000 100 0 0 100
    NCHAN 2
    FX 1
    TRACKID {5CD22F04-3C45-4143-87B9-B3A454C7EB3D}
    PERF 0
    MIDIOUT -1
    <MIDINOTENAMES
      0 127 "TRILL MARKER"
      0 125 "---"
      0 124 "BRE"
      0 123 "BRE"
      0 122 "BRE"
      0 121 "BRE"
      0 120 "BRE (use all 5)"
      0 119 "----"
      0 116 "OVERDRIVE"
      0 115 "----"
      0 103 "Solo Marker"
      0 102 "Force HOPO Off"
      0 101 "Force HOPO On"
      0 100 "EXPERT Orange"
      0 99 "EXPERT Blue"
      0 98 "EXPERT Yellow"
      0 97 "EXPERT Red"
      0 96 "EXPERT Green"
      0 95 "----"
      0 90 "Force HOPO Off"
      0 89 "Force HOPO On"
      0 88 "HARD Orange"
      0 87 "HARD Blue"
      0 86 "HARD Yellow"
      0 85 "HARD Red"
      0 84 "HARD Green"
      0 77 "----"
      0 76 "MEDIUM Orange"
      0 75 "MEDIUM Blue"
      0 74 "MEDIUM Yellow"
      0 73 "MEDIUM Red"
      0 72 "MEDIUM Green"
      0 65 "----"
      0 64 "EASY Orange"
      0 63 "EASY Blue"
      0 62 "EASY Yellow"
      0 61 "EASY Red"
      0 60 "EASY Green"
    >
    MAINSEND 1 0
    <FXCHAIN
      WNDRECT 0 43 891 559
      SHOW 0
      LASTSEL 0
      DOCKED 0
      BYPASS 0 0
      <VST "VSTi: RBN Preview (RBN)" "rbprev_vst64.dll" 0 ""
        dnBicu5e7f4AAAAAAgAAAAEAAAAAAAAAAgAAAAAAAAAEAAAAAQAAAA==
        AAAQAAMAqgAAABAAAAA=
      >
      FLOATPOS 0 0 0 0
      FXID {B16F1E08-C025-4689-850A-C9551964B2F8}
      WAK 0
    >
    <ITEM
      POSITION 0.00000000000000
      SNAPOFFS 0.00000000000000
      LENGTH 96.00000000000000
      LOOP 0
      ALLTAKES 0
      SEL 0
      FADEIN 1 0.000000 0.000000 1 0
      FADEOUT 1 0.000000 0.000000 1 0
      MUTE 0
      IGUID {C1F50041-8CB1-41FE-AA7F-0835A4B66C99}
      IID 4
      NAME "PART KEYS"
      VOLPAN 1.000000 0.000000 1.000000 -1.000000
      SOFFS 0.00000000000000 0.00000000000000
      PLAYRATE 1.00000000000000 1 0.00000000000000 -1
      CHANMODE 0
      GUID {D86397D7-A4B8-4322-A240-8146AA79057F}
      <SOURCE MIDI
        HASDATA 1 480 QN
        POOLEDEVTS {939697DC-1C81-457B-BDD0-78CAD5AC5B12}
        <X 0 0
          /wNQQVJUIEtFWVM=
        >
        E 3840 90 3c 60
        E 0 90 49 60
        E 0 90 56 60
        E 0 90 62 60
        E 0 90 74 60
        E 80 80 3c 00
        E 0 80 49 00
        E 0 80 56 00
        E 0 80 62 00
        E 80 90 62 60
        E 80 80 62 00
        E 160 90 56 60
        E 0 90 62 60
        E 80 80 56 00
        E 0 80 62 00
        E 160 90 49 60
        E 0 90 56 60
        E 0 90 62 60
        E 80 80 49 00
        E 0 80 56 00
        E 0 80 62 00
        E 160 90 56 60
        E 0 90 62 60
        E 80 80 56 00
        E 0 80 62 00
        E 160 90 3c 60
        E 0 90 49 60
        E 0 90 56 60
        E 0 90 62 60
        E 80 80 3c 00
        E 0 80 49 00
        E 0 80 56 00
        E 0 80 62 00
        E 160 90 56 60
        E 0 90 62 60
        E 80 80 56 00
        E 0 80 62 00
        E 160 90 49 60
        E 0 90 56 60
        E 0 90 62 60
        E 80 80 49 00
        E 0 80 56 00
        E 0 80 62 00
        E 160 90 56 60
        E 0 90 62 60
        E 80 80 56 00
        E 0 80 62 00
        E 160 90 3c 60
        E 0 90 49 60
        E 0 90 56 60
        E 0 90 62 60
        E 80 80 3c 00
        E 0 80 49 00
        E 0 80 56 00
        E 0 80 62 00
        E 160 90 56 60
        E 0 90 62 60
        E 80 80 56 00
        E 0 80 62 00
        E 160 90 49 60
        E 0 90 56 60
        E 0 90 62 60
        E 80 80 49 00
        E 0 80 56 00
        E 0 80 62 00
        E 160 90 62 60
        E 80 80 62 00
        E 0 90 58 60
        E 0 90 64 60
        E 360 80 58 00
        E 0 80 64 00
        E 120 90 4a 60
        E 0 90 57 60
        E 0 90 63 60
        E 120 80 4a 00
        E 240 80 57 00
        E 0 80 63 00
        E 120 80 74 00
        E 0 90 3e 60
        E 0 90 4b 60
        E 0 90 58 60
        E 0 90 64 60
        E 120 80 3e 00
        E 0 80 4b 00
        E 0 80 58 00
        E 0 80 64 00
        E 360 90 3e 60
        E 0 90 4b 60
        E 0 90 58 60
        E 0 90 64 60
        E 120 80 3e 00
        E 0 80 4b 00
        E 0 80 58 00
        E 0 80 64 00
        E 240 90 58 60
        E 0 90 64 60
        E 120 80 58 00
        E 0 80 64 00
        E 120 90 4a 60
        E 0 90 57 60
        E 0 90 63 60
        E 120 80 4a 00
        E 0 80 57 00
        E 0 80 63 00
        E 120 90 55 60
        E 0 90 62 60
        E 120 80 55 00
        E 0 80 62 00
        E 0 90 61 60
        E 360 80 61 00
        E 120 90 3d 60
        E 0 90 4a 60
        E 0 90 57 60
        E 0 90 63 60
        E 120 80 3d 00
        E 0 80 4a 00
        E 0 80 57 00
        E 0 80 63 00
        E 360 90 3d 60
        E 0 90 4a 60
        E 0 90 57 60
        E 0 90 63 60
        E 120 80 3d 00
        E 0 80 4a 00
        E 0 80 57 00
        E 0 80 63 00
        E 240 90 57 60
        E 0 90 63 60
        E 120 80 57 00
        E 0 80 63 00
        E 120 90 49 60
        E 0 90 56 60
        E 0 90 62 60
        E 120 80 49 00
        E 0 80 56 00
        E 0 80 62 00
        E 120 90 54 60
        E 0 90 61 60
        E 120 80 54 00
        E 0 80 61 00
        E 0 90 60 60
        E 360 80 60 00
        E 120 90 3e 60
        E 0 90 4b 60
        E 0 90 58 60
        E 0 90 64 60
        E 120 80 3e 00
        E 0 80 4b 00
        E 0 80 58 00
        E 0 80 64 00
        E 360 90 3e 60
        E 0 90 4b 60
        E 0 90 58 60
        E 0 90 64 60
        E 120 80 3e 00
        E 0 80 4b 00
        E 0 80 58 00
        E 0 80 64 00
        E 240 90 58 60
        E 0 90 64 60
        E 120 80 58 00
        E 0 80 64 00
        E 120 90 4a 60
        E 0 90 57 60
        E 0 90 63 60
        E 120 80 4a 00
        E 0 80 57 00
        E 0 80 63 00
        E 120 90 58 60
        E 0 90 62 60
        E 120 80 58 00
        E 0 80 62 00
        E 0 90 64 60
        E 120 80 64 00
        E 120 90 58 60
        E 0 90 64 60
        E 120 80 58 00
        E 0 80 64 00
        E 120 90 3d 60
        E 0 90 4a 60
        E 0 90 57 60
        E 0 90 63 60
        E 120 80 3d 00
        E 0 80 4a 00
        E 0 80 57 00
        E 0 80 63 00
        E 1800 90 3e 60
        E 0 90 4b 60
        E 0 90 58 60
        E 0 90 64 60
        E 120 80 3e 00
        E 0 80 4b 00
        E 0 80 58 00
        E 0 80 64 00
        E 360 90 3e 60
        E 0 90 4b 60
        E 0 90 58 60
        E 0 90 64 60
        E 120 80 3e 00
        E 0 80 4b 00
        E 0 80 58 00
        E 0 80 64 00
        E 240 90 58 60
        E 0 90 64 60
        E 120 80 58 00
        E 0 80 64 00
        E 120 90 4a 60
        E 0 90 57 60
        E 0 90 63 60
        E 120 80 4a 00
        E 0 80 57 00
        E 0 80 63 00
        E 120 90 55 60
        E 0 90 62 60
        E 120 80 55 00
        E 0 80 62 00
        E 0 90 61 60
        E 360 80 61 00
        E 120 90 3d 60
        E 0 90 4a 60
        E 0 90 57 60
        E 0 90 63 60
        E 0 90 74 60
        E 120 80 3d 00
        E 0 80 4a 00
        E 0 80 57 00
        E 0 80 63 00
        E 360 90 3d 60
        E 0 90 4a 60
        E 0 90 57 60
        E 0 90 63 60
        E 120 80 3d 00
        E 0 80 4a 00
        E 0 80 57 00
        E 0 80 63 00
        E 240 90 57 60
        E 0 90 63 60
        E 120 80 57 00
        E 0 80 63 00
        E 120 90 49 60
        E 0 90 56 60
        E 0 90 62 60
        E 120 80 49 00
        E 0 80 56 00
        E 0 80 62 00
        E 120 90 54 60
        E 0 90 61 60
        E 120 80 54 00
        E 0 80 61 00
        E 0 90 60 60
        E 360 80 60 00
        E 120 80 74 00
        E 0 90 3e 60
        E 0 90 4b 60
        E 0 90 58 60
        E 0 90 64 60
        E 120 80 3e 00
        E 0 80 4b 00
        E 0 80 58 00
        E 0 80 64 00
        E 360 90 3e 60
        E 0 90 4b 60
        E 0 90 58 60
        E 0 90 64 60
        E 120 80 3e 00
        E 0 80 4b 00
        E 0 80 58 00
        E 0 80 64 00
        E 240 90 58 60
        E 0 90 64 60
        E 120 80 58 00
        E 0 80 64 00
        E 120 90 4a 60
        E 0 90 57 60
        E 0 90 63 60
        E 120 80 4a 00
        E 0 80 57 00
        E 0 80 63 00
        E 120 90 58 60
        E 0 90 62 60
        E 120 80 58 00
        E 0 80 62 00
        E 0 90 64 60
        E 120 80 64 00
        E 120 90 58 60
        E 0 90 64 60
        E 120 80 58 00
        E 0 80 64 00
        E 120 90 3d 60
        E 0 90 4a 60
        E 0 90 57 60
        E 0 90 63 60
        E 120 80 3d 00
        E 0 80 4a 00
        E 0 80 57 00
        E 0 80 63 00
        E 1080 90 55 60
        E 0 90 61 60
        E 120 80 55 00
        E 0 80 61 00
        E 120 90 49 60
        E 0 90 56 60
        E 0 90 62 60
        E 120 80 49 00
        E 0 80 56 00
        E 0 80 62 00
        E 120 90 57 60
        E 0 90 63 60
        E 120 80 57 00
        E 0 80 63 00
        E 120 90 3e 60
        E 0 90 4b 60
        E 0 90 58 60
        E 0 90 64 60
        E 120 80 3e 00
        E 0 80 4b 00
        E 0 80 58 00
        E 0 80 64 00
        E 360 90 3e 60
        E 0 90 4b 60
        E 0 90 58 60
        E 0 90 64 60
        E 120 80 3e 00
        E 0 80 4b 00
        E 0 80 58 00
        E 0 80 64 00
        E 240 90 58 60
        E 0 90 64 60
        E 120 80 58 00
        E 0 80 64 00
        E 120 90 4a 60
        E 0 90 57 60
        E 0 90 63 60
        E 120 80 4a 00
        E 0 80 57 00
        E 0 80 63 00
        E 240 90 4a 60
        E 0 90 57 60
        E 0 90 63 60
        E 120 80 4a 00
        E 0 80 57 00
        E 0 80 63 00
        E 120 90 58 60
        E 0 90 64 60
        E 120 80 58 00
        E 0 80 64 00
        E 120 90 3c 60
        E 0 90 49 60
        E 0 90 56 60
        E 0 90 62 60
        E 120 80 3c 00
        E 0 80 49 00
        E 0 80 56 00
        E 0 80 62 00
        E 120 90 56 60
        E 0 90 62 60
        E 120 80 56 00
        E 0 80 62 00
        E 120 90 48 60
        E 0 90 55 60
        E 0 90 62 60
        E 120 80 48 00
        E 0 80 55 00
        E 0 80 62 00
        E 0 90 61 60
        E 120 80 61 00
        E 120 90 56 60
        E 0 90 62 60
        E 120 80 56 00
        E 0 80 62 00
        E 240 90 54 60
        E 0 90 60 60
        E 120 80 54 00
        E 0 80 60 00
        E 120 90 48 60
        E 0 90 55 60
        E 0 90 61 60
        E 120 80 48 00
        E 0 80 55 00
        E 0 80 61 00
        E 120 90 56 60
        E 0 90 62 60
        E 120 80 56 00
        E 0 80 62 00
        E 120 90 3d 60
        E 0 90 4a 60
        E 0 90 57 60
        E 0 90 63 60
        E 120 80 3d 00
        E 0 80 4a 00
        E 0 80 57 00
        E 0 80 63 00
        E 360 90 3d 60
        E 0 90 4a 60
        E 0 90 57 60
        E 0 90 63 60
        E 120 80 3d 00
        E 0 80 4a 00
        E 0 80 57 00
        E 0 80 63 00
        E 240 90 57 60
        E 0 90 63 60
        E 120 80 57 00
        E 0 80 63 00
        E 120 90 56 60
        E 0 90 62 60
        E 120 80 56 00
        E 0 80 62 00
        E 240 90 3c 60
        E 0 90 48 60
        E 0 90 55 60
        E 0 90 61 60
        E 120 80 3c 00
        E 0 80 48 00
        E 0 80 55 00
        E 0 80 61 00
        E 120 90 54 60
        E 0 90 60 60
        E 120 80 54 00
        E 0 80 60 00
        E 360 90 55 60
        E 0 90 61 60
        E 120 80 55 00
        E 0 80 61 00
        E 120 90 49 60
        E 0 90 56 60
        E 0 90 62 60
        E 120 80 49 00
        E 0 80 56 00
        E 0 80 62 00
        E 120 90 57 60
        E 0 90 63 60
        E 120 80 57 00
        E 0 80 63 00
        E 120 90 3e 60
        E 0 90 4b 60
        E 0 90 58 60
        E 0 90 64 60
        E 120 80 3e 00
        E 0 80 4b 00
        E 0 80 58 00
        E 360 80 64 00
        E 120 90 55 60
        E 0 90 61 60
        E 120 80 55 00
        E 0 80 61 00
        E 240 90 3c 60
        E 0 90 49 60
        E 0 90 56 60
        E 0 90 62 60
        E 80 80 3c 00
        E 0 80 49 00
        E 0 80 56 00
        E 0 80 62 00
        E 80 90 61 60
        E 80 80 61 00
        E 0 90 49 60
        E 0 90 56 60
        E 0 90 62 60
        E 80 80 49 00
        E 0 80 56 00
        E 0 80 62 00
        E 80 90 63 60
        E 80 80 63 00
        E 0 90 49 60
        E 0 90 56 60
        E 0 90 62 60
        E 80 80 49 00
        E 0 80 56 00
        E 0 80 62 00
        E 80 90 61 60
        E 80 80 61 00
        E 0 90 58 60
        E 0 90 64 60
        E 80 80 58 00
        E 0 80 64 00
        E 80 90 62 60
        E 80 80 62 00
        E 0 90 3d 60
        E 0 90 4a 60
        E 0 90 57 60
        E 0 90 63 60
        E 80 80 3d 00
        E 0 80 4a 00
        E 0 80 57 00
        E 0 80 63 00
        E 80 90 62 60
        E 80 80 62 00
        E 0 90 55 60
        E 0 90 61 60
        E 80 80 55 00
        E 0 80 61 00
        E 80 90 62 60
        E 80 80 62 00
        E 0 90 48 60
        E 0 90 54 60
        E 0 90 60 60
        E 80 80 48 00
        E 0 80 54 00
        E 0 80 60 00
        E 80 90 63 60
        E 80 80 63 00
        E 0 90 56 60
        E 0 90 62 60
        E 80 80 56 00
        E 0 80 62 00
        E 80 90 62 60
        E 80 80 62 00
        E 0 90 3c 60
        E 0 90 48 60
        E 0 90 55 60
        E 0 90 61 60
        E 80 80 3c 00
        E 0 80 48 00
        E 0 80 55 00
        E 0 80 61 00
        E 80 90 60 60
        E 80 80 60 00
        E 0 90 55 60
        E 0 90 61 60
        E 80 80 55 00
        E 0 80 61 00
        E 80 90 62 60
        E 80 80 62 00
        E 0 90 4b 60
        E 0 90 58 60
        E 0 90 64 60
        E 80 80 4b 00
        E 0 80 58 00
        E 0 80 64 00
        E 80 90 63 60
        E 80 80 63 00
        E 0 90 58 60
        E 0 90 64 60
        E 80 80 58 00
        E 0 80 64 00
        E 80 90 63 60
        E 80 80 63 00
        E 0 90 3c 60
        E 0 90 49 60
        E 0 90 56 60
        E 0 90 62 60
        E 80 80 3c 00
        E 0 80 49 00
        E 0 80 56 00
        E 0 80 62 00
        E 80 90 62 60
        E 80 80 62 00
        E 0 90 54 60
        E 0 90 60 60
        E 80 80 54 00
        E 0 80 60 00
        E 80 90 61 60
        E 80 80 61 00
        E 0 90 4b 60
        E 0 90 58 60
        E 0 90 64 60
        E 80 80 4b 00
        E 0 80 58 00
        E 0 80 64 00
        E 80 90 62 60
        E 80 80 62 00
        E 0 90 58 60
        E 0 90 64 60
        E 80 80 58 00
        E 0 80 64 00
        E 80 90 63 60
        E 80 80 63 00
        E 0 90 3c 60
        E 0 90 49 60
        E 0 90 56 60
        E 0 90 62 60
        E 80 80 3c 00
        E 0 80 49 00
        E 0 80 56 00
        E 0 80 62 00
        E 80 90 61 60
        E 80 80 61 00
        E 0 90 56 60
        E 0 90 62 60
        E 80 80 56 00
        E 0 80 62 00
        E 80 90 61 60
        E 80 80 61 00
        E 0 90 4b 60
        E 0 90 58 60
        E 0 90 64 60
        E 80 80 4b 00
        E 0 80 58 00
        E 0 80 64 00
        E 80 90 60 60
        E 80 80 60 00
        E 0 90 57 60
        E 0 90 63 60
        E 80 80 57 00
        E 0 80 63 00
        E 80 90 62 60
        E 80 80 62 00
        E 0 90 3c 60
        E 0 90 48 60
        E 0 90 55 60
        E 0 90 61 60
        E 80 80 3c 00
        E 0 80 48 00
        E 0 80 55 00
        E 0 80 61 00
        E 80 90 64 60
        E 80 80 64 00
        E 0 90 56 60
        E 0 90 62 60
        E 80 80 56 00
        E 0 80 62 00
        E 80 90 61 60
        E 80 80 61 00
        E 0 90 48 60
        E 0 90 54 60
        E 0 90 60 60
        E 80 80 48 00
        E 0 80 54 00
        E 0 80 60 00
        E 80 90 63 60
        E 80 80 63 00
        E 0 90 54 60
        E 0 90 60 60
        E 80 80 54 00
        E 0 80 60 00
        E 80 90 62 60
        E 80 80 62 00
        E 0 90 3d 60
        E 0 90 4a 60
        E 0 90 57 60
        E 0 90 63 60
        E 80 80 3d 00
        E 0 80 4a 00
        E 0 80 57 00
        E 0 80 63 00
        E 80 90 62 60
        E 80 80 62 00
        E 0 90 57 60
        E 0 90 63 60
        E 80 80 57 00
        E 0 80 63 00
        E 80 90 62 60
        E 80 80 62 00
        E 0 90 48 60
        E 0 90 54 60
        E 0 90 60 60
        E 80 80 48 00
        E 0 80 54 00
        E 0 80 60 00
        E 80 90 63 60
        E 80 80 63 00
        E 0 90 55 60
        E 0 90 61 60
        E 80 80 55 00
        E 0 80 61 00
        E 80 90 62 60
        E 80 80 62 00
        E 0 90 3e 60
        E 0 90 4b 60
        E 0 90 58 60
        E 0 90 64 60
        E 80 80 3e 00
        E 0 80 4b 00
        E 0 80 58 00
        E 0 80 64 00
        E 80 90 61 60
        E 80 80 61 00
        E 0 90 54 60
        E 0 90 60 60
        E 80 80 54 00
        E 0 80 60 00
        E 80 90 61 60
        E 80 80 61 00
        E 0 90 4a 60
        E 0 90 57 60
        E 0 90 63 60
        E 80 80 4a 00
        E 0 80 57 00
        E 0 80 63 00
        E 80 90 62 60
        E 80 80 62 00
        E 0 90 55 60
        E 0 90 61 60
        E 80 80 55 00
        E 0 80 61 00
        E 80 90 60 60
        E 80 80 60 00
        E 0 90 3e 60
        E 0 90 4b 60
        E 0 90 58 60
        E 0 90 64 60
        E 0 90 74 60
        E 120 80 3e 00
        E 0 80 4b 00
        E 0 80 58 00
        E 0 80 64 00
        E 360 90 3e 60
        E 0 90 4b 60
        E 0 90 58 60
        E 0 90 64 60
        E 120 80 3e 00
        E 0 80 4b 00
        E 0 80 58 00
        E 0 80 64 00
        E 240 90 58 60
        E 0 90 64 60
        E 120 80 58 00
        E 0 80 64 00
        E 120 90 4a 60
        E 0 90 57 60
        E 0 90 63 60
        E 120 80 4a 00
        E 0 80 57 00
        E 0 80 63 00
        E 120 90 55 60
        E 0 90 62 60
        E 120 80 55 00
        E 0 80 62 00
        E 0 90 61 60
        E 360 80 61 00
        E 120 90 3d 60
        E 0 90 4a 60
        E 0 90 57 60
        E 0 90 63 60
        E 120 80 3d 00
        E 0 80 4a 00
        E 0 80 57 00
        E 0 80 63 00
        E 360 90 3d 60
        E 0 90 4a 60
        E 0 90 57 60
        E 0 90 63 60
        E 120 80 3d 00
        E 0 80 4a 00
        E 0 80 57 00
        E 0 80 63 00
        E 240 90 57 60
        E 0 90 63 60
        E 120 80 57 00
        E 0 80 63 00
        E 120 90 49 60
        E 0 90 56 60
        E 0 90 62 60
        E 120 80 49 00
        E 0 80 56 00
        E 0 80 62 00
        E 120 90 54 60
        E 0 90 61 60
        E 120 80 54 00
        E 0 80 61 00
        E 0 90 60 60
        E 360 80 60 00
        E 120 80 74 00
        E 0 90 3e 60
        E 0 90 4b 60
        E 0 90 58 60
        E 0 90 64 60
        E 120 80 3e 00
        E 0 80 4b 00
        E 0 80 58 00
        E 0 80 64 00
        E 360 90 3e 60
        E 0 90 4b 60
        E 0 90 58 60
        E 0 90 64 60
        E 120 80 3e 00
        E 0 80 4b 00
        E 0 80 58 00
        E 0 80 64 00
        E 240 90 58 60
        E 0 90 64 60
        E 120 80 58 00
        E 0 80 64 00
        E 120 90 4a 60
        E 0 90 57 60
        E 0 90 63 60
        E 120 80 4a 00
        E 0 80 57 00
        E 0 80 63 00
        E 120 90 58 60
        E 0 90 62 60
        E 120 80 58 00
        E 0 80 62 00
        E 0 90 64 60
        E 120 80 64 00
        E 120 90 58 60
        E 0 90 64 60
        E 120 80 58 00
        E 0 80 64 00
        E 120 90 3d 60
        E 0 90 4a 60
        E 0 90 57 60
        E 0 90 63 60
        E 120 80 3d 00
        E 0 80 4a 00
        E 0 80 57 00
        E 0 80 63 00
        E 1800 90 3e 60
        E 0 90 4b 60
        E 0 90 58 60
        E 0 90 64 60
        E 120 80 3e 00
        E 0 80 4b 00
        E 0 80 58 00
        E 0 80 64 00
        E 360 90 3e 60
        E 0 90 4b 60
        E 0 90 58 60
        E 0 90 64 60
        E 120 80 3e 00
        E 0 80 4b 00
        E 0 80 58 00
        E 0 80 64 00
        E 240 90 58 60
        E 0 90 64 60
        E 120 80 58 00
        E 0 80 64 00
        E 120 90 4a 60
        E 0 90 57 60
        E 0 90 63 60
        E 120 80 4a 00
        E 0 80 57 00
        E 0 80 63 00
        E 120 90 55 60
        E 0 90 62 60
        E 120 80 55 00
        E 0 80 62 00
        E 0 90 61 60
        E 360 80 61 00
        E 120 90 3d 60
        E 0 90 4a 60
        E 0 90 57 60
        E 0 90 63 60
        E 120 80 3d 00
        E 0 80 4a 00
        E 0 80 57 00
        E 0 80 63 00
        E 360 90 3d 60
        E 0 90 4a 60
        E 0 90 57 60
        E 0 90 63 60
        E 120 80 3d 00
        E 0 80 4a 00
        E 0 80 57 00
        E 0 80 63 00
        E 240 90 57 60
        E 0 90 63 60
        E 120 80 57 00
        E 0 80 63 00
        E 120 90 49 60
        E 0 90 56 60
        E 0 90 62 60
        E 120 80 49 00
        E 0 80 56 00
        E 0 80 62 00
        E 120 90 54 60
        E 0 90 61 60
        E 120 80 54 00
        E 0 80 61 00
        E 0 90 60 60
        E 360 80 60 00
        E 120 90 3e 60
        E 0 90 4b 60
        E 0 90 58 60
        E 0 90 64 60
        E 120 80 3e 00
        E 0 80 4b 00
        E 0 80 58 00
        E 0 80 64 00
        E 360 90 3e 60
        E 0 90 4b 60
        E 0 90 58 60
        E 0 90 64 60
        E 120 80 3e 00
        E 0 80 4b 00
        E 0 80 58 00
        E 0 80 64 00
        E 240 90 58 60
        E 0 90 64 60
        E 120 80 58 00
        E 0 80 64 00
        E 120 90 4a 60
        E 0 90 57 60
        E 0 90 63 60
        E 120 80 4a 00
        E 0 80 57 00
        E 0 80 63 00
        E 120 90 58 60
        E 0 90 62 60
        E 120 80 58 00
        E 0 80 62 00
        E 0 90 64 60
        E 120 80 64 00
        E 120 90 58 60
        E 0 90 64 60
        E 120 80 58 00
        E 0 80 64 00
        E 120 90 3d 60
        E 0 90 4a 60
        E 0 90 57 60
        E 0 90 63 60
        E 120 80 3d 00
        E 0 80 4a 00
        E 0 80 57 00
        E 0 80 63 00
        E 1080 90 55 60
        E 0 90 61 60
        E 120 80 55 00
        E 0 80 61 00
        E 120 90 49 60
        E 0 90 56 60
        E 0 90 62 60
        E 120 80 49 00
        E 0 80 56 00
        E 0 80 62 00
        E 120 90 57 60
        E 0 90 63 60
        E 120 80 57 00
        E 0 80 63 00
        E 120 90 3e 60
        E 0 90 4b 60
        E 0 90 58 60
        E 0 90 64 60
        E 120 80 3e 00
        E 0 80 4b 00
        E 0 80 58 00
        E 0 80 64 00
        E 360 90 3e 60
        E 0 90 4b 60
        E 0 90 58 60
        E 0 90 64 60
        E 120 80 3e 00
        E 0 80 4b 00
        E 0 80 58 00
        E 0 80 64 00
        E 240 90 58 60
        E 0 90 64 60
        E 120 80 58 00
        E 0 80 64 00
        E 120 90 4a 60
        E 0 90 57 60
        E 0 90 63 60
        E 120 80 4a 00
        E 0 80 57 00
        E 0 80 63 00
        E 240 90 4a 60
        E 0 90 57 60
        E 0 90 63 60
        E 120 80 4a 00
        E 0 80 57 00
        E 0 80 63 00
        E 120 90 58 60
        E 0 90 64 60
        E 120 80 58 00
        E 0 80 64 00
        E 120 90 3c 60
        E 0 90 49 60
        E 0 90 56 60
        E 0 90 62 60
        E 120 80 3c 00
        E 0 80 49 00
        E 0 80 56 00
        E 0 80 62 00
        E 120 90 56 60
        E 0 90 62 60
        E 120 80 56 00
        E 0 80 62 00
        E 120 90 48 60
        E 0 90 55 60
        E 0 90 62 60
        E 120 80 48 00
        E 0 80 55 00
        E 0 80 62 00
        E 0 90 61 60
        E 120 80 61 00
        E 120 90 56 60
        E 0 90 62 60
        E 120 80 56 00
        E 0 80 62 00
        E 240 90 54 60
        E 0 90 60 60
        E 120 80 54 00
        E 0 80 60 00
        E 120 90 48 60
        E 0 90 55 60
        E 0 90 61 60
        E 120 80 48 00
        E 0 80 55 00
        E 0 80 61 00
        E 120 90 56 60
        E 0 90 62 60
        E 120 80 56 00
        E 0 80 62 00
        E 120 90 3d 60
        E 0 90 4a 60
        E 0 90 57 60
        E 0 90 63 60
        E 120 80 3d 00
        E 0 80 4a 00
        E 0 80 57 00
        E 0 80 63 00
        E 360 90 3d 60
        E 0 90 4a 60
        E 0 90 57 60
        E 0 90 63 60
        E 120 80 3d 00
        E 0 80 4a 00
        E 0 80 57 00
        E 0 80 63 00
        E 240 90 57 60
        E 0 90 63 60
        E 120 80 57 00
        E 0 80 63 00
        E 120 90 56 60
        E 0 90 62 60
        E 120 80 56 00
        E 0 80 62 00
        E 240 90 3c 60
        E 0 90 48 60
        E 0 90 55 60
        E 0 90 61 60
        E 120 80 3c 00
        E 0 80 48 00
        E 0 80 55 00
        E 0 80 61 00
        E 120 90 54 60
        E 0 90 60 60
        E 120 80 54 00
        E 0 80 60 00
        E 360 90 55 60
        E 0 90 61 60
        E 120 80 55 00
        E 0 80 61 00
        E 120 90 49 60
        E 0 90 56 60
        E 0 90 62 60
        E 120 80 49 00
        E 0 80 56 00
        E 0 80 62 00
        E 120 90 57 60
        E 0 90 63 60
        E 120 80 57 00
        E 0 80 63 00
        E 120 90 3e 60
        E 0 90 4b 60
        E 0 90 58 60
        E 0 90 64 60
        E 120 80 3e 00
        E 0 80 4b 00
        E 0 80 58 00
        E 360 80 64 00
        E 120 90 55 60
        E 0 90 61 60
        E 120 80 55 00
        E 0 80 61 00
        E 240 90 3c 60
        E 0 90 49 60
        E 0 90 56 60
        E 0 90 62 60
        E 0 90 74 60
        E 80 80 3c 00
        E 0 80 49 00
        E 0 80 56 00
        E 0 80 62 00
        E 80 90 61 60
        E 80 80 61 00
        E 0 90 49 60
        E 0 90 56 60
        E 0 90 62 60
        E 80 80 49 00
        E 0 80 56 00
        E 0 80 62 00
        E 80 90 63 60
        E 80 80 63 00
        E 0 90 49 60
        E 0 90 56 60
        E 0 90 62 60
        E 80 80 49 00
        E 0 80 56 00
        E 0 80 62 00
        E 80 90 61 60
        E 80 80 61 00
        E 0 90 58 60
        E 0 90 64 60
        E 80 80 58 00
        E 0 80 64 00
        E 80 90 62 60
        E 80 80 62 00
        E 0 90 3d 60
        E 0 90 4a 60
        E 0 90 57 60
        E 0 90 63 60
        E 80 80 3d 00
        E 0 80 4a 00
        E 0 80 57 00
        E 0 80 63 00
        E 80 90 62 60
        E 80 80 62 00
        E 0 90 55 60
        E 0 90 61 60
        E 80 80 55 00
        E 0 80 61 00
        E 80 90 62 60
        E 80 80 62 00
        E 0 90 48 60
        E 0 90 54 60
        E 0 90 60 60
        E 80 80 48 00
        E 0 80 54 00
        E 0 80 60 00
        E 80 90 63 60
        E 80 80 63 00
        E 0 90 56 60
        E 0 90 62 60
        E 80 80 56 00
        E 0 80 62 00
        E 80 90 62 60
        E 80 80 62 00
        E 0 90 3c 60
        E 0 90 48 60
        E 0 90 55 60
        E 0 90 61 60
        E 80 80 3c 00
        E 0 80 48 00
        E 0 80 55 00
        E 0 80 61 00
        E 80 90 60 60
        E 80 80 60 00
        E 0 90 55 60
        E 0 90 61 60
        E 80 80 55 00
        E 0 80 61 00
        E 80 90 62 60
        E 80 80 62 00
        E 0 90 4b 60
        E 0 90 58 60
        E 0 90 64 60
        E 80 80 4b 00
        E 0 80 58 00
        E 0 80 64 00
        E 80 90 63 60
        E 80 80 63 00
        E 0 90 58 60
        E 0 90 64 60
        E 80 80 58 00
        E 0 80 64 00
        E 80 90 63 60
        E 80 80 63 00
        E 0 90 3c 60
        E 0 90 49 60
        E 0 90 56 60
        E 0 90 62 60
        E 80 80 3c 00
        E 0 80 49 00
        E 0 80 56 00
        E 0 80 62 00
        E 80 90 62 60
        E 80 80 62 00
        E 0 90 54 60
        E 0 90 60 60
        E 80 80 54 00
        E 0 80 60 00
        E 80 90 61 60
        E 80 80 61 00
        E 0 90 4b 60
        E 0 90 58 60
        E 0 90 64 60
        E 80 80 4b 00
        E 0 80 58 00
        E 0 80 64 00
        E 80 90 62 60
        E 80 80 62 00
        E 0 90 58 60
        E 0 90 64 60
        E 80 80 58 00
        E 0 80 64 00
        E 80 90 63 60
        E 80 80 74 00
        E 0 80 63 00
        E 0 90 3c 60
        E 0 90 49 60
        E 0 90 56 60
        E 0 90 62 60
        E 80 80 3c 00
        E 0 80 49 00
        E 0 80 56 00
        E 0 80 62 00
        E 80 90 61 60
        E 80 80 61 00
        E 0 90 56 60
        E 0 90 62 60
        E 80 80 56 00
        E 0 80 62 00
        E 80 90 61 60
        E 80 80 61 00
        E 0 90 4b 60
        E 0 90 58 60
        E 0 90 64 60
        E 80 80 4b 00
        E 0 80 58 00
        E 0 80 64 00
        E 80 90 60 60
        E 80 80 60 00
        E 0 90 57 60
        E 0 90 63 60
        E 80 80 57 00
        E 0 80 63 00
        E 80 90 62 60
        E 80 80 62 00
        E 0 90 3c 60
        E 0 90 48 60
        E 0 90 55 60
        E 0 90 61 60
        E 80 80 3c 00
        E 0 80 48 00
        E 0 80 55 00
        E 0 80 61 00
        E 80 90 64 60
        E 80 80 64 00
        E 0 90 56 60
        E 0 90 62 60
        E 80 80 56 00
        E 0 80 62 00
        E 80 90 61 60
        E 80 80 61 00
        E 0 90 48 60
        E 0 90 54 60
        E 0 90 60 60
        E 80 80 48 00
        E 0 80 54 00
        E 0 80 60 00
        E 80 90 63 60
        E 80 80 63 00
        E 0 90 54 60
        E 0 90 60 60
        E 80 80 54 00
        E 0 80 60 00
        E 80 90 62 60
        E 80 80 62 00
        E 0 90 3d 60
        E 0 90 4a 60
        E 0 90 57 60
        E 0 90 63 60
        E 80 80 3d 00
        E 0 80 4a 00
        E 0 80 57 00
        E 0 80 63 00
        E 80 90 62 60
        E 80 80 62 00
        E 0 90 57 60
        E 0 90 63 60
        E 80 80 57 00
        E 0 80 63 00
        E 80 90 62 60
        E 80 80 62 00
        E 0 90 48 60
        E 0 90 54 60
        E 0 90 60 60
        E 80 80 48 00
        E 0 80 54 00
        E 0 80 60 00
        E 80 90 63 60
        E 80 80 63 00
        E 0 90 55 60
        E 0 90 61 60
        E 80 80 55 00
        E 0 80 61 00
        E 80 90 62 60
        E 80 80 62 00
        E 0 90 3e 60
        E 0 90 4b 60
        E 0 90 58 60
        E 0 90 64 60
        E 80 80 3e 00
        E 0 80 4b 00
        E 0 80 58 00
        E 0 80 64 00
        E 80 90 61 60
        E 80 80 61 00
        E 0 90 54 60
        E 0 90 60 60
        E 80 80 54 00
        E 0 80 60 00
        E 80 90 61 60
        E 80 80 61 00
        E 0 90 4a 60
        E 0 90 57 60
        E 0 90 63 60
        E 80 80 4a 00
        E 0 80 57 00
        E 0 80 63 00
        E 80 90 62 60
        E 80 80 62 00
        E 0 90 55 60
        E 0 90 61 60
        E 80 80 55 00
        E 0 80 61 00
        E 80 90 60 60
        E 80 80 60 00
        E 0 90 3e 60
        E 0 90 4b 60
        E 0 90 58 60
        E 0 90 64 60
        E 120 80 3e 00
        E 0 80 4b 00
        E 0 80 58 00
        E 0 80 64 00
        E 360 90 3e 60
        E 0 90 4b 60
        E 0 90 58 60
        E 0 90 64 60
        E 120 80 3e 00
        E 0 80 4b 00
        E 0 80 58 00
        E 0 80 64 00
        E 240 90 58 60
        E 0 90 64 60
        E 120 80 58 00
        E 0 80 64 00
        E 120 90 4a 60
        E 0 90 57 60
        E 0 90 63 60
        E 120 80 4a 00
        E 0 80 57 00
        E 0 80 63 00
        E 120 90 55 60
        E 0 90 62 60
        E 120 80 55 00
        E 0 80 62 00
        E 0 90 61 60
        E 360 80 61 00
        E 120 90 3d 60
        E 0 90 4a 60
        E 0 90 57 60
        E 0 90 63 60
        E 120 80 3d 00
        E 0 80 4a 00
        E 0 80 57 00
        E 0 80 63 00
        E 360 90 3d 60
        E 0 90 4a 60
        E 0 90 57 60
        E 0 90 63 60
        E 120 80 3d 00
        E 0 80 4a 00
        E 0 80 57 00
        E 0 80 63 00
        E 240 90 57 60
        E 0 90 63 60
        E 120 80 57 00
        E 0 80 63 00
        E 120 90 49 60
        E 0 90 56 60
        E 0 90 62 60
        E 120 80 49 00
        E 0 80 56 00
        E 0 80 62 00
        E 120 90 54 60
        E 0 90 61 60
        E 120 80 54 00
        E 0 80 61 00
        E 0 90 60 60
        E 360 80 60 00
        E 120 90 3e 60
        E 0 90 4b 60
        E 0 90 58 60
        E 0 90 64 60
        E 120 80 3e 00
        E 0 80 4b 00
        E 0 80 58 00
        E 0 80 64 00
        E 360 90 3e 60
        E 0 90 4b 60
        E 0 90 58 60
        E 0 90 64 60
        E 120 80 3e 00
        E 0 80 4b 00
        E 0 80 58 00
        E 0 80 64 00
        E 240 90 58 60
        E 0 90 64 60
        E 120 80 58 00
        E 0 80 64 00
        E 120 90 4a 60
        E 0 90 57 60
        E 0 90 63 60
        E 120 80 4a 00
        E 0 80 57 00
        E 0 80 63 00
        E 120 90 58 60
        E 0 90 62 60
        E 120 80 58 00
        E 0 80 62 00
        E 0 90 64 60
        E 120 80 64 00
        E 120 90 58 60
        E 0 90 64 60
        E 120 80 58 00
        E 0 80 64 00
        E 120 90 3d 60
        E 0 90 4a 60
        E 0 90 57 60
        E 0 90 63 60
        E 120 80 3d 00
        E 0 80 4a 00
        E 0 80 57 00
        E 0 80 63 00
        E 1800 90 3e 60
        E 0 90 4b 60
        E 0 90 58 60
        E 0 90 64 60
        E 120 80 3e 00
        E 0 80 4b 00
        E 0 80 58 00
        E 0 80 64 00
        E 360 90 3e 60
        E 0 90 4b 60
        E 0 90 58 60
        E 0 90 64 60
        E 120 80 3e 00
        E 0 80 4b 00
        E 0 80 58 00
        E 0 80 64 00
        E 240 90 58 60
        E 0 90 64 60
        E 120 80 58 00
        E 0 80 64 00
        E 120 90 4a 60
        E 0 90 57 60
        E 0 90 63 60
        E 120 80 4a 00
        E 0 80 57 00
        E 0 80 63 00
        E 120 90 55 60
        E 0 90 62 60
        E 120 80 55 00
        E 0 80 62 00
        E 0 90 61 60
        E 360 80 61 00
        E 120 90 3d 60
        E 0 90 4a 60
        E 0 90 57 60
        E 0 90 63 60
        E 0 90 74 60
        E 120 80 3d 00
        E 0 80 4a 00
        E 0 80 57 00
        E 0 80 63 00
        E 360 90 3d 60
        E 0 90 4a 60
        E 0 90 57 60
        E 0 90 63 60
        E 120 80 3d 00
        E 0 80 4a 00
        E 0 80 57 00
        E 0 80 63 00
        E 240 90 57 60
        E 0 90 63 60
        E 120 80 57 00
        E 0 80 63 00
        E 120 90 49 60
        E 0 90 56 60
        E 0 90 62 60
        E 120 80 49 00
        E 0 80 56 00
        E 0 80 62 00
        E 120 90 54 60
        E 0 90 61 60
        E 120 80 54 00
        E 0 80 61 00
        E 0 90 60 60
        E 360 80 60 00
        E 120 80 74 00
        E 0 90 3e 60
        E 0 90 4b 60
        E 0 90 58 60
        E 0 90 64 60
        E 120 80 3e 00
        E 0 80 4b 00
        E 0 80 58 00
        E 0 80 64 00
        E 360 90 3e 60
        E 0 90 4b 60
        E 0 90 58 60
        E 0 90 64 60
        E 120 80 3e 00
        E 0 80 4b 00
        E 0 80 58 00
        E 0 80 64 00
        E 240 90 58 60
        E 0 90 64 60
        E 120 80 58 00
        E 0 80 64 00
        E 120 90 4a 60
        E 0 90 57 60
        E 0 90 63 60
        E 120 80 4a 00
        E 0 80 57 00
        E 0 80 63 00
        E 120 90 58 60
        E 0 90 62 60
        E 120 80 58 00
        E 0 80 62 00
        E 0 90 64 60
        E 120 80 64 00
        E 120 90 58 60
        E 0 90 64 60
        E 120 80 58 00
        E 0 80 64 00
        E 120 90 3d 60
        E 0 90 4a 60
        E 0 90 57 60
        E 0 90 63 60
        E 120 80 3d 00
        E 0 80 4a 00
        E 0 80 57 00
        E 0 80 63 00
        E 1080 90 55 60
        E 0 90 61 60
        E 120 80 55 00
        E 0 80 61 00
        E 120 90 49 60
        E 0 90 56 60
        E 0 90 62 60
        E 120 80 49 00
        E 0 80 56 00
        E 0 80 62 00
        E 120 90 57 60
        E 0 90 63 60
        E 120 80 57 00
        E 0 80 63 00
        E 120 90 3e 60
        E 0 90 4b 60
        E 0 90 58 60
        E 0 90 64 60
        E 120 80 3e 00
        E 0 80 4b 00
        E 0 80 58 00
        E 0 80 64 00
        E 360 90 3e 60
        E 0 90 4b 60
        E 0 90 58 60
        E 0 90 64 60
        E 120 80 3e 00
        E 0 80 4b 00
        E 0 80 58 00
        E 0 80 64 00
        E 240 90 58 60
        E 0 90 64 60
        E 120 80 58 00
        E 0 80 64 00
        E 120 90 4a 60
        E 0 90 57 60
        E 0 90 63 60
        E 120 80 4a 00
        E 0 80 57 00
        E 0 80 63 00
        E 240 90 4a 60
        E 0 90 57 60
        E 0 90 63 60
        E 120 80 4a 00
        E 0 80 57 00
        E 0 80 63 00
        E 120 90 58 60
        E 0 90 64 60
        E 120 80 58 00
        E 0 80 64 00
        E 120 90 3c 60
        E 0 90 49 60
        E 0 90 56 60
        E 0 90 62 60
        E 120 80 3c 00
        E 0 80 49 00
        E 0 80 56 00
        E 0 80 62 00
        E 120 90 56 60
        E 0 90 62 60
        E 120 80 56 00
        E 0 80 62 00
        E 120 90 48 60
        E 0 90 55 60
        E 0 90 62 60
        E 120 80 48 00
        E 0 80 55 00
        E 0 80 62 00
        E 0 90 61 60
        E 120 80 61 00
        E 120 90 56 60
        E 0 90 62 60
        E 120 80 56 00
        E 0 80 62 00
        E 240 90 54 60
        E 0 90 60 60
        E 120 80 54 00
        E 0 80 60 00
        E 120 90 48 60
        E 0 90 55 60
        E 0 90 61 60
        E 120 80 48 00
        E 0 80 55 00
        E 0 80 61 00
        E 120 90 56 60
        E 0 90 62 60
        E 120 80 56 00
        E 0 80 62 00
        E 120 90 3d 60
        E 0 90 4a 60
        E 0 90 57 60
        E 0 90 63 60
        E 120 80 3d 00
        E 0 80 4a 00
        E 0 80 57 00
        E 0 80 63 00
        E 360 90 3d 60
        E 0 90 4a 60
        E 0 90 57 60
        E 0 90 63 60
        E 120 80 3d 00
        E 0 80 4a 00
        E 0 80 57 00
        E 0 80 63 00
        E 240 90 57 60
        E 0 90 63 60
        E 120 80 57 00
        E 0 80 63 00
        E 120 90 56 60
        E 0 90 62 60
        E 120 80 56 00
        E 0 80 62 00
        E 240 90 3c 60
        E 0 90 48 60
        E 0 90 55 60
        E 0 90 61 60
        E 120 80 3c 00
        E 0 80 48 00
        E 0 80 55 00
        E 0 80 61 00
        E 120 90 54 60
        E 0 90 60 60
        E 120 80 54 00
        E 0 80 60 00
        E 360 90 55 60
        E 0 90 61 60
        E 120 80 55 00
        E 0 80 61 00
        E 120 90 49 60
        E 0 90 56 60
        E 0 90 62 60
        E 120 80 49 00
        E 0 80 56 00
        E 0 80 62 00
        E 120 90 57 60
        E 0 90 63 60
        E 120 80 57 00
        E 0 80 63 00
        E 120 90 3e 60
        E 0 90 4b 60
        E 0 90 58 60
        E 0 90 64 60
        E 120 80 3e 00
        E 0 80 4b 00
        E 0 80 58 00
        E 360 80 64 00
        E 120 90 55 60
        E 0 90 61 60
        E 120 80 55 00
        E 0 80 61 00
        E 240 90 3c 60
        E 0 90 49 60
        E 0 90 56 60
        E 0 90 62 60
        E 80 80 3c 00
        E 0 80 49 00
        E 0 80 56 00
        E 0 80 62 00
        E 80 90 61 60
        E 80 80 61 00
        E 0 90 49 60
        E 0 90 56 60
        E 0 90 62 60
        E 80 80 49 00
        E 0 80 56 00
        E 0 80 62 00
        E 80 90 63 60
        E 80 80 63 00
        E 0 90 49 60
        E 0 90 56 60
        E 0 90 62 60
        E 80 80 49 00
        E 0 80 56 00
        E 0 80 62 00
        E 80 90 61 60
        E 80 80 61 00
        E 0 90 58 60
        E 0 90 64 60
        E 80 80 58 00
        E 0 80 64 00
        E 80 90 62 60
        E 80 80 62 00
        E 0 90 3d 60
        E 0 90 4a 60
        E 0 90 57 60
        E 0 90 63 60
        E 80 80 3d 00
        E 0 80 4a 00
        E 0 80 57 00
        E 0 80 63 00
        E 80 90 62 60
        E 80 80 62 00
        E 0 90 55 60
        E 0 90 61 60
        E 80 80 55 00
        E 0 80 61 00
        E 80 90 62 60
        E 80 80 62 00
        E 0 90 48 60
        E 0 90 54 60
        E 0 90 60 60
        E 80 80 48 00
        E 0 80 54 00
        E 0 80 60 00
        E 80 90 63 60
        E 80 80 63 00
        E 0 90 56 60
        E 0 90 62 60
        E 80 80 56 00
        E 0 80 62 00
        E 80 90 62 60
        E 80 80 62 00
        E 0 90 3c 60
        E 0 90 48 60
        E 0 90 55 60
        E 0 90 61 60
        E 80 80 3c 00
        E 0 80 48 00
        E 0 80 55 00
        E 0 80 61 00
        E 80 90 60 60
        E 80 80 60 00
        E 0 90 55 60
        E 0 90 61 60
        E 80 80 55 00
        E 0 80 61 00
        E 80 90 62 60
        E 80 80 62 00
        E 0 90 4b 60
        E 0 90 58 60
        E 0 90 64 60
        E 80 80 4b 00
        E 0 80 58 00
        E 0 80 64 00
        E 80 90 63 60
        E 80 80 63 00
        E 0 90 58 60
        E 0 90 64 60
        E 80 80 58 00
        E 0 80 64 00
        E 80 90 63 60
        E 80 80 63 00
        E 0 90 3c 60
        E 0 90 49 60
        E 0 90 56 60
        E 0 90 62 60
        E 80 80 3c 00
        E 0 80 49 00
        E 0 80 56 00
        E 0 80 62 00
        E 80 90 62 60
        E 80 80 62 00
        E 0 90 54 60
        E 0 90 60 60
        E 80 80 54 00
        E 0 80 60 00
        E 80 90 61 60
        E 80 80 61 00
        E 0 90 4b 60
        E 0 90 58 60
        E 0 90 64 60
        E 80 80 4b 00
        E 0 80 58 00
        E 0 80 64 00
        E 80 90 62 60
        E 80 80 62 00
        E 0 90 58 60
        E 0 90 64 60
        E 80 80 58 00
        E 0 80 64 00
        E 80 90 63 60
        E 80 80 63 00
        E 0 90 3c 60
        E 0 90 49 60
        E 0 90 56 60
        E 0 90 62 60
        E 0 90 74 60
        E 80 80 3c 00
        E 0 80 49 00
        E 0 80 56 00
        E 0 80 62 00
        E 80 90 61 60
        E 80 80 61 00
        E 0 90 56 60
        E 0 90 62 60
        E 80 80 56 00
        E 0 80 62 00
        E 80 90 61 60
        E 80 80 61 00
        E 0 90 4b 60
        E 0 90 58 60
        E 0 90 64 60
        E 80 80 4b 00
        E 0 80 58 00
        E 0 80 64 00
        E 80 90 60 60
        E 80 80 60 00
        E 0 90 57 60
        E 0 90 63 60
        E 80 80 57 00
        E 0 80 63 00
        E 80 90 62 60
        E 80 80 62 00
        E 0 90 3c 60
        E 0 90 48 60
        E 0 90 55 60
        E 0 90 61 60
        E 80 80 3c 00
        E 0 80 48 00
        E 0 80 55 00
        E 0 80 61 00
        E 80 90 64 60
        E 80 80 64 00
        E 0 90 56 60
        E 0 90 62 60
        E 80 80 56 00
        E 0 80 62 00
        E 80 90 61 60
        E 80 80 61 00
        E 0 90 48 60
        E 0 90 54 60
        E 0 90 60 60
        E 80 80 48 00
        E 0 80 54 00
        E 0 80 60 00
        E 80 90 63 60
        E 80 80 63 00
        E 0 90 54 60
        E 0 90 60 60
        E 80 80 54 00
        E 0 80 60 00
        E 80 90 62 60
        E 80 80 62 00
        E 0 90 3d 60
        E 0 90 4a 60
        E 0 90 57 60
        E 0 90 63 60
        E 80 80 3d 00
        E 0 80 4a 00
        E 0 80 57 00
        E 0 80 63 00
        E 80 90 62 60
        E 80 80 62 00
        E 0 90 57 60
        E 0 90 63 60
        E 80 80 57 00
        E 0 80 63 00
        E 80 90 62 60
        E 80 80 62 00
        E 0 90 48 60
        E 0 90 54 60
        E 0 90 60 60
        E 80 80 48 00
        E 0 80 54 00
        E 0 80 60 00
        E 80 90 63 60
        E 80 80 63 00
        E 0 90 55 60
        E 0 90 61 60
        E 80 80 55 00
        E 0 80 61 00
        E 80 90 62 60
        E 80 80 62 00
        E 0 90 3e 60
        E 0 90 4b 60
        E 0 90 58 60
        E 0 90 64 60
        E 80 80 3e 00
        E 0 80 4b 00
        E 0 80 58 00
        E 0 80 64 00
        E 80 90 61 60
        E 80 80 61 00
        E 0 90 54 60
        E 0 90 60 60
        E 80 80 54 00
        E 0 80 60 00
        E 80 90 61 60
        E 80 80 61 00
        E 0 90 4a 60
        E 0 90 57 60
        E 0 90 63 60
        E 80 80 4a 00
        E 0 80 57 00
        E 0 80 63 00
        E 80 90 62 60
        E 80 80 62 00
        E 0 90 55 60
        E 0 90 61 60
        E 80 80 55 00
        E 0 80 61 00
        E 80 90 60 60
        E 80 80 74 00
        E 0 80 60 00
        E 0 90 3e 60
        E 0 90 4b 60
        E 0 90 58 60
        E 0 90 64 60
        E 120 80 3e 00
        E 0 80 4b 00
        E 0 80 58 00
        E 0 80 64 00
        E 360 90 3e 60
        E 0 90 4b 60
        E 0 90 58 60
        E 0 90 64 60
        E 120 80 3e 00
        E 0 80 4b 00
        E 0 80 58 00
        E 0 80 64 00
        E 240 90 58 60
        E 0 90 64 60
        E 120 80 58 00
        E 0 80 64 00
        E 120 90 4a 60
        E 0 90 57 60
        E 0 90 63 60
        E 120 80 4a 00
        E 0 80 57 00
        E 0 80 63 00
        E 120 90 55 60
        E 0 90 62 60
        E 120 80 55 00
        E 0 80 62 00
        E 0 90 61 60
        E 360 80 61 00
        E 120 90 3d 60
        E 0 90 4a 60
        E 0 90 57 60
        E 0 90 63 60
        E 120 80 3d 00
        E 0 80 4a 00
        E 0 80 57 00
        E 0 80 63 00
        E 360 90 3d 60
        E 0 90 4a 60
        E 0 90 57 60
        E 0 90 63 60
        E 120 80 3d 00
        E 0 80 4a 00
        E 0 80 57 00
        E 0 80 63 00
        E 240 90 57 60
        E 0 90 63 60
        E 120 80 57 00
        E 0 80 63 00
        E 120 90 49 60
        E 0 90 56 60
        E 0 90 62 60
        E 120 80 49 00
        E 0 80 56 00
        E 0 80 62 00
        E 120 90 54 60
        E 0 90 61 60
        E 120 80 54 00
        E 0 80 61 00
        E 0 90 60 60
        E 360 80 60 00
        E 120 90 3e 60
        E 0 90 4b 60
        E 0 90 58 60
        E 0 90 64 60
        E 120 80 3e 00
        E 0 80 4b 00
        E 0 80 58 00
        E 0 80 64 00
        E 360 90 3e 60
        E 0 90 4b 60
        E 0 90 58 60
        E 0 90 64 60
        E 120 80 3e 00
        E 0 80 4b 00
        E 0 80 58 00
        E 0 80 64 00
        E 240 90 58 60
        E 0 90 64 60
        E 120 80 58 00
        E 0 80 64 00
        E 120 90 4a 60
        E 0 90 57 60
        E 0 90 63 60
        E 120 80 4a 00
        E 0 80 57 00
        E 0 80 63 00
        E 120 90 58 60
        E 0 90 62 60
        E 120 80 58 00
        E 0 80 62 00
        E 0 90 64 60
        E 120 80 64 00
        E 120 90 58 60
        E 0 90 64 60
        E 120 80 58 00
        E 0 80 64 00
        E 120 90 3d 60
        E 0 90 4a 60
        E 0 90 57 60
        E 0 90 63 60
        E 120 80 3d 00
        E 0 80 4a 00
        E 0 80 57 00
        E 0 80 63 00
        E 1800 90 3e 60
        E 0 90 4b 60
        E 0 90 58 60
        E 0 90 64 60
        E 120 80 3e 00
        E 0 80 4b 00
        E 0 80 58 00
        E 0 80 64 00
        E 360 90 3e 60
        E 0 90 4b 60
        E 0 90 58 60
        E 0 90 64 60
        E 120 80 3e 00
        E 0 80 4b 00
        E 0 80 58 00
        E 0 80 64 00
        E 240 90 58 60
        E 0 90 64 60
        E 120 80 58 00
        E 0 80 64 00
        E 120 90 4a 60
        E 0 90 57 60
        E 0 90 63 60
        E 120 80 4a 00
        E 0 80 57 00
        E 0 80 63 00
        E 120 90 55 60
        E 0 90 62 60
        E 120 80 55 00
        E 0 80 62 00
        E 0 90 61 60
        E 360 80 61 00
        E 120 90 3d 60
        E 0 90 4a 60
        E 0 90 57 60
        E 0 90 63 60
        E 120 80 3d 00
        E 0 80 4a 00
        E 0 80 57 00
        E 0 80 63 00
        E 360 90 3d 60
        E 0 90 4a 60
        E 0 90 57 60
        E 0 90 63 60
        E 120 80 3d 00
        E 0 80 4a 00
        E 0 80 57 00
        E 0 80 63 00
        E 240 90 57 60
        E 0 90 63 60
        E 120 80 57 00
        E 0 80 63 00
        E 120 90 49 60
        E 0 90 56 60
        E 0 90 62 60
        E 120 80 49 00
        E 0 80 56 00
        E 0 80 62 00
        E 120 90 54 60
        E 0 90 61 60
        E 120 80 54 00
        E 0 80 61 00
        E 0 90 60 60
        E 360 80 60 00
        E 120 90 3e 60
        E 0 90 4b 60
        E 0 90 58 60
        E 0 90 64 60
        E 120 80 3e 00
        E 0 80 4b 00
        E 0 80 58 00
        E 0 80 64 00
        E 360 90 3e 60
        E 0 90 4b 60
        E 0 90 58 60
        E 0 90 64 60
        E 120 80 3e 00
        E 0 80 4b 00
        E 0 80 58 00
        E 0 80 64 00
        E 240 90 58 60
        E 0 90 64 60
        E 120 80 58 00
        E 0 80 64 00
        E 120 90 4a 60
        E 0 90 57 60
        E 0 90 63 60
        E 120 80 4a 00
        E 0 80 57 00
        E 0 80 63 00
        E 120 90 58 60
        E 0 90 62 60
        E 120 80 58 00
        E 0 80 62 00
        E 0 90 64 60
        E 120 80 64 00
        E 120 90 58 60
        E 0 90 64 60
        E 120 80 58 00
        E 0 80 64 00
        E 120 90 3d 60
        E 0 90 4a 60
        E 0 90 57 60
        E 0 90 63 60
        E 120 80 3d 00
        E 0 80 4a 00
        E 0 80 57 00
        E 0 80 63 00
        E 1800 b0 7b 00
        GUID {931211C9-0C4A-48F6-9E04-553A052CFE0B}
        IGNTEMPO 0 120.00000000 4 4
        SRCCOLOR 6
        VELLANE 132 128 60
        COLORMAP "C:\Program Files\REAPER (x64)\Data\color_maps\rockband_guitarbass.png"
        CFGEDITVIEW -6761.581848 12.955548 0 14 0 0 0
        CFGEDIT 1 1 0 1 1 0 1 1 1 1 1 0.25000000 -8 -8 1544 872 0 2 1 1 0.00000000 0 1 0 0 0.500000 0 0 1.000000 64
        KEYSNAP 0 6 "102030050700" 0 "Pentatonic"
        EVTFILTER 0 -1 -1 -1 -1 0 1 0 0 -1.00000000 -1.00000000
      >
    >
  >
  <TRACK '{7C9017B8-F49F-460F-BEA5-7AF662A83F10}'
    NAME "PART REAL_KEYS_X"
    PEAKCOL 16576
    BEAT -1
    AUTOMODE 0
    VOLPAN 1.00000000000000 0.00000000000000 -1.00000000000000 -1.00000000000000 1.00000000000000
    MUTESOLO 0 0 0
    IPHASE 0
    ISBUS 0 0
    BUSCOMP 0 0
    SHOWINMIX 1 0.666700 0.500000 1 0.500000 -1 -1 -1
    FREEMODE 0
    SEL 0
    REC 0 0 0 0 0 0 0
    VU 2
    TRACKHEIGHT 0 0
    INQ 0 0 0 0.5000000000 100 0 0 100
    NCHAN 2
    FX 0
    TRACKID {7C9017B8-F49F-460F-BEA5-7AF662A83F10}
    PERF 0
    MIDIOUT -1
    <MIDINOTENAMES
      0 127 "TRILL MARKER"
      0 126 "GLISSANDO MARKER"
      0 125 "---"
      0 116 "OVERDRIVE"
      0 115 "SOLO"
      0 114 "---"
      0 72 "Highest playable note B#3"
      0 71 "B3"
      0 70 "A#3"
      0 69 "A3"
      0 68 "G#3"
      0 67 "G3"
      0 66 "F#3"
      0 65 "F3"
      0 64 "E3"
      0 63 "D#3"
      0 62 "D3"
      0 61 "C#3"
      0 60 "C3"
      0 59 "B2"
      0 58 "A#2"
      0 57 "A2"
      0 56 "G#2"
      0 55 "G2"
      0 54 "F#2"
      0 53 "F2"
      0 52 "E2"
      0 51 "D#2"
      0 50 "D2"
      0 49 "C#2"
      0 48 "Lowest playable note C2"
      0 10 "---"
      0 9 "Range A2-C4"
      0 8 "Range"
      0 7 "Range"
      0 6 "Range"
      0 5 "Range F2-A3"
      0 4 "Range"
      0 3 "Range"
      0 2 "Range"
      0 1 "Range"
      0 0 "Range C2-E3"
    >
    MAINSEND 1 0
    <FXCHAIN
      WNDRECT 0 43 655 467
      SHOW 0
      LASTSEL 1
      DOCKED 0
      BYPASS 0 0
      <JS "MIDI/midi_note_filter" ""
        48.000000 72.000000 - - - - - - - - - - - - - - - - - - - - - - - - - - - - - - - - - - - - - - - - - - - - - - - - - - - - - - - - - - - - - - 
      >
      FLOATPOS 0 0 0 0
      FXID {FB07FE5A-F77E-4B89-8349-A611E74ABECA}
      WAK 0
      BYPASS 0 0
      <VST "VSTi: ReaSynth (Cockos)" "reasynth.dll" 0 ""
        eXNlcu9e7f4AAAAAAgAAAAEAAAAAAAAAAgAAAAAAAAA4AAAAAAAAAA==
        AAAQAO++rd4N8K3eppvEOzHuEz0AAIA/AAAAAAAAAADMm4A+6WeIPQ==
        AAAAAAAAAD8AAIA/AACAPwAAAD8AABAAAAA=
      >
      FLOATPOS 0 0 0 0
      FXID {1047C6C1-FAFA-49DA-94D6-502007888935}
      WAK 0
    >
    <ITEM
      POSITION 0.00000000000000
      SNAPOFFS 0.00000000000000
      LENGTH 96.00000000000000
      LOOP 0
      ALLTAKES 0
      SEL 0
      FADEIN 1 0.000000 0.000000 1 0
      FADEOUT 1 0.000000 0.000000 1 0
      MUTE 0
      IGUID {0E9FAC89-D44C-41EA-B1F2-5CD4EBA8AADD}
      IID 5
      NAME "PART REAL_KEYS_X"
      VOLPAN 1.000000 0.000000 1.000000 -1.000000
      SOFFS 0.00000000000000 0.00000000000000
      PLAYRATE 1.00000000000000 1 0.00000000000000 -1
      CHANMODE 0
      GUID {FEBD6C7A-CD86-4FC8-9F14-3862F16633D0}
      <SOURCE MIDI
        HASDATA 1 480 QN
        POOLEDEVTS {37A51A95-6BDD-4A88-B9DC-7F7ED008228D}
        <X 0 0
          /wNQQVJUIFJFQUxfS0VZU19Y
        >
        E 0 90 00 60
        E 120 80 00 00
        <X 3720 0
          /wFbYmVnaW5fa2V5IHNvbmdfdHJhaW5lcl9rZXlfMV0=
        >
        E 0 90 3c 69
        E 0 90 74 60
        E 80 80 3c 00
        E 80 90 3c 69
        E 80 80 3c 00
        E 160 90 3c 69
        E 80 80 3c 00
        E 160 90 3c 69
        E 80 80 3c 00
        E 160 90 3c 69
        E 80 80 3c 00
        E 160 90 3c 69
        E 80 80 3c 00
        E 160 90 3c 69
        E 80 80 3c 00
        E 160 90 3c 69
        E 80 80 3c 00
        E 160 90 3c 69
        E 80 80 3c 00
        E 160 90 3c 69
        E 80 80 3c 00
        E 160 90 3c 69
        E 80 80 3c 00
        E 160 90 3c 69
        E 80 80 3c 00
        E 160 90 3c 69
        E 80 80 3c 00
        E 0 90 40 64
        E 360 80 40 00
        E 120 90 3e 68
        E 360 80 3e 00
        <X 120 0
          /wFbZW5kX2tleSBzb25nX3RyYWluZXJfa2V5XzFd
        >
        <X 0 0
          /wFbYmVnaW5fa2V5IHNvbmdfdHJhaW5lcl9rZXlfMl0=
        >
        E 0 80 74 00
        E 0 90 40 60
        E 120 80 40 00
        E 360 90 40 60
        E 120 80 40 00
        E 240 90 40 60
        E 120 80 40 00
        E 120 90 3c 60
        E 120 80 3c 00
        E 120 90 39 60
        E 120 80 39 00
        E 0 90 37 60
        E 360 80 37 00
        <X 120 0
          /wFba2V5X25vcm0gc29uZ190cmFpbmVyX2tleV8yXQ==
        >
        E 0 90 3c 60
        E 120 80 3c 00
        E 360 90 3c 60
        E 120 80 3c 00
        E 240 90 3c 60
        E 120 80 3c 00
        E 120 90 39 60
        E 120 80 39 00
        E 120 90 36 60
        E 120 80 36 00
        E 0 90 34 60
        E 360 80 34 00
        E 120 90 40 60
        E 120 80 40 00
        E 360 90 40 60
        E 120 80 40 00
        E 240 90 40 60
        E 120 80 40 00
        E 120 90 3c 60
        E 120 80 3c 00
        E 120 90 39 60
        E 120 80 39 00
        E 0 90 40 60
        E 120 80 40 00
        E 120 90 40 60
        E 120 80 40 00
        E 120 90 3c 60
        E 120 80 3c 00
        <X 1800 0
          /wFbZW5kX2tleSBzb25nX3RyYWluZXJfa2V5XzJd
        >
        E 0 90 40 60
        E 120 80 40 00
        E 360 90 40 60
        E 120 80 40 00
        E 240 90 40 60
        E 120 80 40 00
        E 120 90 3c 60
        E 120 80 3c 00
        E 120 90 39 60
        E 120 80 39 00
        E 0 90 37 60
        E 360 80 37 00
        E 120 90 3c 60
        E 0 90 74 60
        E 120 80 3c 00
        E 360 90 3c 60
        E 120 80 3c 00
        E 240 90 3c 60
        E 120 80 3c 00
        E 120 90 39 60
        E 120 80 39 00
        E 120 90 36 60
        E 120 80 36 00
        E 0 90 34 60
        E 360 80 34 00
        E 120 80 74 00
        E 0 90 40 60
        E 120 80 40 00
        E 360 90 40 60
        E 120 80 40 00
        E 240 90 40 60
        E 120 80 40 00
        E 120 90 3c 60
        E 120 80 3c 00
        E 120 90 39 60
        E 120 80 39 00
        E 0 90 40 60
        E 120 80 40 00
        E 120 90 40 60
        E 120 80 40 00
        E 120 90 3c 60
        E 120 80 3c 00
        <X 840 0
          /wFbYmVnaW5fa2V5IHNvbmdfdHJhaW5lcl9rZXlfM10=
        >
        E 240 90 3c 60
        E 120 80 3c 00
        E 120 90 3e 60
        E 120 80 3e 00
        E 120 90 3f 60
        E 120 80 3f 00
        E 120 90 40 60
        E 120 80 40 00
        E 360 90 40 60
        E 120 80 40 00
        E 240 90 40 60
        E 120 80 40 00
        E 120 90 3e 60
        E 120 80 3e 00
        E 240 90 3e 60
        E 120 80 3e 00
        E 120 90 40 60
        E 120 80 40 00
        E 120 90 3e 60
        E 120 80 3e 00
        E 120 90 3c 60
        E 120 80 3c 00
        E 120 90 3c 60
        E 120 80 3c 00
        E 0 90 3b 60
        E 120 80 3b 00
        E 120 90 3c 60
        E 120 80 3c 00
        E 240 90 39 60
        E 120 80 39 00
        E 120 90 3b 60
        E 120 80 3b 00
        E 120 90 3c 60
        E 120 80 3c 00
        E 120 90 3e 60
        E 120 80 3e 00
        E 360 90 3e 60
        E 120 80 3e 00
        E 240 90 3e 60
        E 120 80 3e 00
        E 120 90 3c 60
        E 120 80 3c 00
        E 240 90 3b 60
        E 120 80 3b 00
        E 120 90 39 60
        E 120 80 39 00
        E 360 90 3b 60
        E 120 80 3b 00
        E 120 90 3c 60
        E 120 80 3c 00
        E 120 90 3d 60
        E 120 80 3d 00
        E 120 90 3e 60
        E 360 80 3e 00
        E 240 90 37 60
        E 120 80 37 00
        <X 240 0
          /wFbZW5kX2tleSBzb25nX3RyYWluZXJfa2V5XzNd
        >
        <X 0 0
          /wFbYmVnaW5fa2V5IHNvbmdfdHJhaW5lcl9rZXlfNF0=
        >
        E 0 90 34 60
        E 80 80 34 00
        E 80 90 33 60
        E 80 80 33 00
        E 0 90 34 60
        E 80 80 34 00
        E 80 90 3b 60
        E 80 80 3b 00
        E 0 90 38 60
        E 80 80 38 00
        E 80 90 34 60
        E 80 80 34 00
        E 0 90 40 60
        E 80 80 40 00
        E 80 90 3b 60
        E 80 80 3b 00
        E 0 90 3e 60
        E 80 80 3e 00
        E 80 90 3b 60
        E 80 80 3b 00
        E 0 90 39 60
        E 80 80 39 00
        E 80 90 3b 60
        E 80 80 3b 00
        E 0 90 38 60
        E 80 80 38 00
        E 80 90 35 60
        E 80 80 35 00
        E 0 90 34 60
        E 80 80 34 00
        E 80 90 3e 60
        E 80 80 3e 00
        E 0 90 3c 60
        E 80 80 3c 00
        E 80 90 3b 60
        E 80 80 3b 00
        E 0 90 3c 60
        E 80 80 3c 00
        E 80 90 3e 60
        E 80 80 3e 00
        E 0 90 40 60
        E 80 80 40 00
        E 80 90 3f 60
        E 80 80 3f 00
        E 0 90 40 60
        E 80 80 40 00
        E 80 90 39 60
        E 80 80 39 00
        E 0 90 38 60
        E 80 80 38 00
        E 80 90 40 60
        E 80 80 40 00
        E 0 90 3e 60
        E 80 80 3e 00
        E 80 90 3f 60
        E 80 80 3f 00
        E 0 90 39 60
        E 80 80 39 00
        E 80 90 34 60
        E 80 80 34 00
        E 0 90 37 60
        E 80 80 37 00
        E 80 90 36 60
        <X 80 0
          /wFbYmVnaW5fa2V5IHNvbmdfdHJhaW5lcl9rZXlfNV0=
        >
        <X 0 0
          /wFbZW5kX2tleSBzb25nX3RyYWluZXJfa2V5XzRd
        >
        E 0 80 36 00
        E 0 90 35 60
        E 80 80 35 00
        E 80 90 34 60
        E 80 80 34 00
        E 0 90 35 60
        E 80 80 35 00
        E 80 90 39 60
        E 80 80 39 00
        E 0 90 40 60
        E 80 80 40 00
        E 80 90 32 60
        E 80 80 32 00
        E 0 90 39 60
        E 80 80 39 00
        E 80 90 38 60
        E 80 80 38 00
        E 0 90 37 60
        E 80 80 37 00
        E 80 90 40 60
        E 80 80 40 00
        E 0 90 37 60
        E 80 80 37 00
        E 80 90 36 60
        E 80 80 36 00
        E 0 90 35 60
        E 80 80 35 00
        E 80 90 3e 60
        E 80 80 3e 00
        E 0 90 39 60
        E 80 80 39 00
        E 80 90 3a 60
        E 80 80 3a 00
        E 0 90 3b 60
        E 80 80 3b 00
        E 80 90 3a 60
        E 80 80 3a 00
        E 0 90 3b 60
        E 80 80 3b 00
        E 80 90 39 60
        E 80 80 39 00
        E 0 90 37 60
        E 80 80 37 00
        E 80 90 35 60
        E 80 80 35 00
        E 0 90 39 60
        E 80 80 39 00
        E 80 90 3b 60
        E 80 80 3b 00
        E 0 90 37 60
        E 80 80 37 00
        E 80 90 35 60
        E 80 80 35 00
        E 0 90 3b 60
        E 80 80 3b 00
        E 80 90 39 60
        E 80 80 39 00
        E 0 90 35 60
        E 80 80 35 00
        E 80 90 3b 60
        E 80 80 3b 00
        E 0 90 39 60
        E 80 80 39 00
        E 80 90 37 60
        <X 80 0
          /wFbZW5kX2tleSBzb25nX3RyYWluZXJfa2V5XzVd
        >
        E 0 80 37 00
        E 0 90 40 60
        E 0 90 74 60
        E 120 80 40 00
        E 360 90 40 60
        E 120 80 40 00
        E 240 90 40 60
        E 120 80 40 00
        E 120 90 3c 60
        E 120 80 3c 00
        E 120 90 39 60
        E 120 80 39 00
        E 0 90 37 60
        E 360 80 37 00
        E 120 90 3c 60
        E 120 80 3c 00
        E 360 90 3c 60
        E 120 80 3c 00
        E 240 90 3c 60
        E 120 80 3c 00
        E 120 90 39 60
        E 120 80 39 00
        E 120 90 36 60
        E 120 80 36 00
        E 0 90 34 60
        E 360 80 34 00
        E 120 80 74 00
        E 0 90 40 60
        E 120 80 40 00
        E 360 90 40 60
        E 120 80 40 00
        E 240 90 40 60
        E 120 80 40 00
        E 120 90 3c 60
        E 120 80 3c 00
        E 120 90 39 60
        E 120 80 39 00
        E 0 90 40 60
        E 120 80 40 00
        E 120 90 40 60
        E 120 80 40 00
        E 120 90 3c 60
        E 120 80 3c 00
        E 1800 90 40 60
        E 120 80 40 00
        E 360 90 40 60
        E 120 80 40 00
        E 240 90 40 60
        E 120 80 40 00
        E 120 90 3c 60
        E 120 80 3c 00
        E 120 90 39 60
        E 120 80 39 00
        E 0 90 37 60
        E 360 80 37 00
        E 120 90 3c 60
        E 120 80 3c 00
        E 360 90 3c 60
        E 120 80 3c 00
        E 240 90 3c 60
        E 120 80 3c 00
        E 120 90 39 60
        E 120 80 39 00
        E 120 90 36 60
        E 120 80 36 00
        E 0 90 34 60
        E 360 80 34 00
        E 120 90 40 60
        E 120 80 40 00
        E 360 90 40 60
        E 120 80 40 00
        E 240 90 40 60
        E 120 80 40 00
        E 120 90 3c 60
        E 120 80 3c 00
        E 120 90 39 60
        E 120 80 39 00
        E 0 90 40 60
        E 120 80 40 00
        E 120 90 40 60
        E 120 80 40 00
        E 120 90 3c 60
        E 120 80 3c 00
        E 1080 90 3c 60
        E 120 80 3c 00
        E 120 90 3e 60
        E 120 80 3e 00
        E 120 90 3f 60
        E 120 80 3f 00
        E 120 90 40 60
        E 120 80 40 00
        E 360 90 40 60
        E 120 80 40 00
        E 240 90 40 60
        E 120 80 40 00
        E 120 90 3e 60
        E 120 80 3e 00
        E 240 90 3e 60
        E 120 80 3e 00
        E 120 90 40 60
        E 120 80 40 00
        E 120 90 3e 60
        E 120 80 3e 00
        E 120 90 3c 60
        E 120 80 3c 00
        E 120 90 3c 60
        E 120 80 3c 00
        E 0 90 3b 60
        E 120 80 3b 00
        E 120 90 3c 60
        E 120 80 3c 00
        E 240 90 39 60
        E 120 80 39 00
        E 120 90 3b 60
        E 120 80 3b 00
        E 120 90 3c 60
        E 120 80 3c 00
        E 120 90 3e 60
        E 120 80 3e 00
        E 360 90 3e 60
        E 120 80 3e 00
        E 240 90 3e 60
        E 120 80 3e 00
        E 120 90 3c 60
        E 120 80 3c 00
        E 240 90 3b 60
        E 120 80 3b 00
        E 120 90 39 60
        E 120 80 39 00
        E 360 90 3b 60
        E 120 80 3b 00
        E 120 90 3c 60
        E 120 80 3c 00
        E 120 90 3d 60
        E 120 80 3d 00
        E 120 90 3e 60
        E 360 80 3e 00
        E 240 90 37 60
        E 120 80 37 00
        E 240 90 34 60
        E 0 90 74 60
        E 80 80 34 00
        E 80 90 33 60
        E 80 80 33 00
        E 0 90 34 60
        E 80 80 34 00
        E 80 90 3b 60
        E 80 80 3b 00
        E 0 90 38 60
        E 80 80 38 00
        E 80 90 34 60
        E 80 80 34 00
        E 0 90 40 60
        E 80 80 40 00
        E 80 90 3b 60
        E 80 80 3b 00
        E 0 90 3e 60
        E 80 80 3e 00
        E 80 90 3b 60
        E 80 80 3b 00
        E 0 90 39 60
        E 80 80 39 00
        E 80 90 3b 60
        E 80 80 3b 00
        E 0 90 38 60
        E 80 80 38 00
        E 80 90 35 60
        E 80 80 35 00
        E 0 90 34 60
        E 80 80 34 00
        E 80 90 3e 60
        E 80 80 3e 00
        E 0 90 3c 60
        E 80 80 3c 00
        E 80 90 3b 60
        E 80 80 3b 00
        E 0 90 3c 60
        E 80 80 3c 00
        E 80 90 3e 60
        E 80 80 3e 00
        E 0 90 40 60
        E 80 80 40 00
        E 80 90 3f 60
        E 80 80 3f 00
        E 0 90 40 60
        E 80 80 40 00
        E 80 90 39 60
        E 80 80 39 00
        E 0 90 38 60
        E 80 80 38 00
        E 80 90 40 60
        E 80 80 40 00
        E 0 90 3e 60
        E 80 80 3e 00
        E 80 90 3f 60
        E 80 80 3f 00
        E 0 90 39 60
        E 80 80 39 00
        E 80 90 34 60
        E 80 80 34 00
        E 0 90 37 60
        E 80 80 37 00
        E 80 90 36 60
        E 80 80 74 00
        E 0 80 36 00
        E 0 90 35 60
        E 80 80 35 00
        E 80 90 34 60
        E 80 80 34 00
        E 0 90 35 60
        E 80 80 35 00
        E 80 90 39 60
        E 80 80 39 00
        E 0 90 40 60
        E 80 80 40 00
        E 80 90 32 60
        E 80 80 32 00
        E 0 90 39 60
        E 80 80 39 00
        E 80 90 38 60
        E 80 80 38 00
        E 0 90 37 60
        E 80 80 37 00
        E 80 90 40 60
        E 80 80 40 00
        E 0 90 37 60
        E 80 80 37 00
        E 80 90 36 60
        E 80 80 36 00
        E 0 90 35 60
        E 80 80 35 00
        E 80 90 3e 60
        E 80 80 3e 00
        E 0 90 39 60
        E 80 80 39 00
        E 80 90 3a 60
        E 80 80 3a 00
        E 0 90 3b 60
        E 80 80 3b 00
        E 80 90 3a 60
        E 80 80 3a 00
        E 0 90 3b 60
        E 80 80 3b 00
        E 80 90 39 60
        E 80 80 39 00
        E 0 90 37 60
        E 80 80 37 00
        E 80 90 35 60
        E 80 80 35 00
        E 0 90 39 60
        E 80 80 39 00
        E 80 90 3b 60
        E 80 80 3b 00
        E 0 90 37 60
        E 80 80 37 00
        E 80 90 35 60
        E 80 80 35 00
        E 0 90 3b 60
        E 80 80 3b 00
        E 80 90 39 60
        E 80 80 39 00
        E 0 90 35 60
        E 80 80 35 00
        E 80 90 3b 60
        E 80 80 3b 00
        E 0 90 39 60
        E 80 80 39 00
        E 80 90 37 60
        E 80 80 37 00
        E 0 90 40 60
        E 120 80 40 00
        E 360 90 40 60
        E 120 80 40 00
        E 240 90 40 60
        E 120 80 40 00
        E 120 90 3c 60
        E 120 80 3c 00
        E 120 90 39 60
        E 120 80 39 00
        E 0 90 37 60
        E 360 80 37 00
        E 120 90 3c 60
        E 120 80 3c 00
        E 360 90 3c 60
        E 120 80 3c 00
        E 240 90 3c 60
        E 120 80 3c 00
        E 120 90 39 60
        E 120 80 39 00
        E 120 90 36 60
        E 120 80 36 00
        E 0 90 34 60
        E 360 80 34 00
        E 120 90 40 60
        E 120 80 40 00
        E 360 90 40 60
        E 120 80 40 00
        E 240 90 40 60
        E 120 80 40 00
        E 120 90 3c 60
        E 120 80 3c 00
        E 120 90 39 60
        E 120 80 39 00
        E 0 90 40 60
        E 120 80 40 00
        E 120 90 40 60
        E 120 80 40 00
        E 120 90 3c 60
        E 120 80 3c 00
        E 1800 90 40 60
        E 120 80 40 00
        E 360 90 40 60
        E 120 80 40 00
        E 240 90 40 60
        E 120 80 40 00
        E 120 90 3c 60
        E 120 80 3c 00
        E 120 90 39 60
        E 120 80 39 00
        E 0 90 37 60
        E 360 80 37 00
        E 120 90 3c 60
        E 0 90 74 60
        E 120 80 3c 00
        E 360 90 3c 60
        E 120 80 3c 00
        E 240 90 3c 60
        E 120 80 3c 00
        E 120 90 39 60
        E 120 80 39 00
        E 120 90 36 60
        E 120 80 36 00
        E 0 90 34 60
        E 360 80 34 00
        E 120 80 74 00
        E 0 90 40 60
        E 120 80 40 00
        E 360 90 40 60
        E 120 80 40 00
        E 240 90 40 60
        E 120 80 40 00
        E 120 90 3c 60
        E 120 80 3c 00
        E 120 90 39 60
        E 120 80 39 00
        E 0 90 40 60
        E 120 80 40 00
        E 120 90 40 60
        E 120 80 40 00
        E 120 90 3c 60
        E 120 80 3c 00
        E 1080 90 3c 60
        E 120 80 3c 00
        E 120 90 3e 60
        E 120 80 3e 00
        E 120 90 3f 60
        E 120 80 3f 00
        E 120 90 40 60
        E 120 80 40 00
        E 360 90 40 60
        E 120 80 40 00
        E 240 90 40 60
        E 120 80 40 00
        E 120 90 3e 60
        E 120 80 3e 00
        E 240 90 3e 60
        E 120 80 3e 00
        E 120 90 40 60
        E 120 80 40 00
        E 120 90 3e 60
        E 120 80 3e 00
        E 120 90 3c 60
        E 120 80 3c 00
        E 120 90 3c 60
        E 120 80 3c 00
        E 0 90 3b 60
        E 120 80 3b 00
        E 120 90 3c 60
        E 120 80 3c 00
        E 240 90 39 60
        E 120 80 39 00
        E 120 90 3b 60
        E 120 80 3b 00
        E 120 90 3c 60
        E 120 80 3c 00
        E 120 90 3e 60
        E 120 80 3e 00
        E 360 90 3e 60
        E 120 80 3e 00
        E 240 90 3e 60
        E 120 80 3e 00
        E 120 90 3c 60
        E 120 80 3c 00
        E 240 90 3b 60
        E 120 80 3b 00
        E 120 90 39 60
        E 120 80 39 00
        E 360 90 3b 60
        E 120 80 3b 00
        E 120 90 3c 60
        E 120 80 3c 00
        E 120 90 3d 60
        E 120 80 3d 00
        E 120 90 3e 60
        E 360 80 3e 00
        E 240 90 37 60
        E 120 80 37 00
        E 240 90 34 60
        E 80 80 34 00
        E 80 90 33 60
        E 80 80 33 00
        E 0 90 34 60
        E 80 80 34 00
        E 80 90 3b 60
        E 80 80 3b 00
        E 0 90 38 60
        E 80 80 38 00
        E 80 90 34 60
        E 80 80 34 00
        E 0 90 40 60
        E 80 80 40 00
        E 80 90 3b 60
        E 80 80 3b 00
        E 0 90 3e 60
        E 80 80 3e 00
        E 80 90 3b 60
        E 80 80 3b 00
        E 0 90 39 60
        E 80 80 39 00
        E 80 90 3b 60
        E 80 80 3b 00
        E 0 90 38 60
        E 80 80 38 00
        E 80 90 35 60
        E 80 80 35 00
        E 0 90 34 60
        E 80 80 34 00
        E 80 90 3e 60
        E 80 80 3e 00
        E 0 90 3c 60
        E 80 80 3c 00
        E 80 90 3b 60
        E 80 80 3b 00
        E 0 90 3c 60
        E 80 80 3c 00
        E 80 90 3e 60
        E 80 80 3e 00
        E 0 90 40 60
        E 80 80 40 00
        E 80 90 3f 60
        E 80 80 3f 00
        E 0 90 40 60
        E 80 80 40 00
        E 80 90 39 60
        E 80 80 39 00
        E 0 90 38 60
        E 80 80 38 00
        E 80 90 40 60
        E 80 80 40 00
        E 0 90 3e 60
        E 80 80 3e 00
        E 80 90 3f 60
        E 80 80 3f 00
        E 0 90 39 60
        E 80 80 39 00
        E 80 90 34 60
        E 80 80 34 00
        E 0 90 37 60
        E 80 80 37 00
        E 80 90 36 60
        E 80 80 36 00
        E 0 90 35 60
        E 0 90 74 60
        E 80 80 35 00
        E 80 90 34 60
        E 80 80 34 00
        E 0 90 35 60
        E 80 80 35 00
        E 80 90 39 60
        E 80 80 39 00
        E 0 90 40 60
        E 80 80 40 00
        E 80 90 32 60
        E 80 80 32 00
        E 0 90 39 60
        E 80 80 39 00
        E 80 90 38 60
        E 80 80 38 00
        E 0 90 37 60
        E 80 80 37 00
        E 80 90 40 60
        E 80 80 40 00
        E 0 90 37 60
        E 80 80 37 00
        E 80 90 36 60
        E 80 80 36 00
        E 0 90 35 60
        E 80 80 35 00
        E 80 90 3e 60
        E 80 80 3e 00
        E 0 90 39 60
        E 80 80 39 00
        E 80 90 3a 60
        E 80 80 3a 00
        E 0 90 3b 60
        E 80 80 3b 00
        E 80 90 3a 60
        E 80 80 3a 00
        E 0 90 3b 60
        E 80 80 3b 00
        E 80 90 39 60
        E 80 80 39 00
        E 0 90 37 60
        E 80 80 37 00
        E 80 90 35 60
        E 80 80 35 00
        E 0 90 39 60
        E 80 80 39 00
        E 80 90 3b 60
        E 80 80 3b 00
        E 0 90 37 60
        E 80 80 37 00
        E 80 90 35 60
        E 80 80 35 00
        E 0 90 3b 60
        E 80 80 3b 00
        E 80 90 39 60
        E 80 80 39 00
        E 0 90 35 60
        E 80 80 35 00
        E 80 90 3b 60
        E 80 80 3b 00
        E 0 90 39 60
        E 80 80 39 00
        E 80 90 37 60
        E 80 80 74 00
        E 0 80 37 00
        E 0 90 40 60
        E 120 80 40 00
        E 360 90 40 60
        E 120 80 40 00
        E 240 90 40 60
        E 120 80 40 00
        E 120 90 3c 60
        E 120 80 3c 00
        E 120 90 39 60
        E 120 80 39 00
        E 0 90 37 60
        E 360 80 37 00
        E 120 90 3c 60
        E 120 80 3c 00
        E 360 90 3c 60
        E 120 80 3c 00
        E 240 90 3c 60
        E 120 80 3c 00
        E 120 90 39 60
        E 120 80 39 00
        E 120 90 36 60
        E 120 80 36 00
        E 0 90 34 60
        E 360 80 34 00
        E 120 90 40 60
        E 120 80 40 00
        E 360 90 40 60
        E 120 80 40 00
        E 240 90 40 60
        E 120 80 40 00
        E 120 90 3c 60
        E 120 80 3c 00
        E 120 90 39 60
        E 120 80 39 00
        E 0 90 40 60
        E 120 80 40 00
        E 120 90 40 60
        E 120 80 40 00
        E 120 90 3c 60
        E 120 80 3c 00
        E 1800 90 40 60
        E 120 80 40 00
        E 360 90 40 60
        E 120 80 40 00
        E 240 90 40 60
        E 120 80 40 00
        E 120 90 3c 60
        E 120 80 3c 00
        E 120 90 39 60
        E 120 80 39 00
        E 0 90 37 60
        E 360 80 37 00
        E 120 90 3c 60
        E 120 80 3c 00
        E 360 90 3c 60
        E 120 80 3c 00
        E 240 90 3c 60
        E 120 80 3c 00
        E 120 90 39 60
        E 120 80 39 00
        E 120 90 36 60
        E 120 80 36 00
        E 0 90 34 60
        E 360 80 34 00
        E 120 90 40 60
        E 120 80 40 00
        E 360 90 40 60
        E 120 80 40 00
        E 240 90 40 60
        E 120 80 40 00
        E 120 90 3c 60
        E 120 80 3c 00
        E 120 90 39 60
        E 120 80 39 00
        E 0 90 40 60
        E 120 80 40 00
        E 120 90 40 60
        E 120 80 40 00
        E 120 90 3c 60
        E 120 80 3c 00
        E 1800 b0 7b 00
        GUID {A2B02122-6691-418D-94EF-162DDCB27D72}
        IGNTEMPO 0 120.00000000 4 4
        SRCCOLOR 7
        VELLANE 132 128 60
        COLORMAP "C:\Program Files\REAPER (x64)\Data\color_maps\rockband_guitarbass.png"
        CFGEDITVIEW -6761.581848 12.955548 0 13 0 0 0
        CFGEDIT 1 1 0 1 1 0 1 1 1 1 1 0.25000000 -8 -8 1544 872 0 2 1 1 0.00000000 0 1 0 0 0.500000 0 0 1.000000 64
        KEYSNAP 0 6 "102030050700" 0 "Pentatonic"
        EVTFILTER 0 -1 -1 -1 -1 0 1 0 0 -1.00000000 -1.00000000
      >
    >
  >
  <TRACK '{9AE7C687-F858-48C5-B43E-0205A2270864}'
    NAME "PART REAL_KEYS_H"
    PEAKCOL 16576
    BEAT -1
    AUTOMODE 0
    VOLPAN 1.00000000000000 0.00000000000000 -1.00000000000000 -1.00000000000000 1.00000000000000
    MUTESOLO 0 0 0
    IPHASE 0
    ISBUS 0 0
    BUSCOMP 0 0
    SHOWINMIX 1 0.666700 0.500000 1 0.500000 -1 -1 -1
    FREEMODE 0
    SEL 0
    REC 0 0 0 0 0 0 0
    VU 2
    TRACKHEIGHT 0 0
    INQ 0 0 0 0.5000000000 100 0 0 100
    NCHAN 2
    FX 1
    TRACKID {9AE7C687-F858-48C5-B43E-0205A2270864}
    PERF 0
    MIDIOUT -1
    <MIDINOTENAMES
      0 72 "Highest playable note B#3"
      0 71 "B3"
      0 70 "A#3"
      0 69 "A3"
      0 68 "G#3"
      0 67 "G3"
      0 66 "F#3"
      0 65 "F3"
      0 64 "E3"
      0 63 "D#3"
      0 62 "D3"
      0 61 "C#3"
      0 60 "C3"
      0 59 "B2"
      0 58 "A#2"
      0 57 "A2"
      0 56 "G#2"
      0 55 "G2"
      0 54 "F#2"
      0 53 "F2"
      0 52 "E2"
      0 51 "D#2"
      0 50 "D2"
      0 49 "C#2"
      0 48 "Lowest playable note C2"
      0 10 "---"
      0 9 "Range A2-C4"
      0 8 "Range"
      0 7 "Range"
      0 6 "Range"
      0 5 "Range F2-A3"
      0 4 "Range"
      0 3 "Range"
      0 2 "Range"
      0 1 "Range"
      0 0 "Range C2-E3"
    >
    MAINSEND 1 0
    <FXCHAIN
      SHOW 0
      LASTSEL 0
      DOCKED 0
    >
    <ITEM
      POSITION 0.00000000000000
      SNAPOFFS 0.00000000000000
      LENGTH 96.00000000000000
      LOOP 0
      ALLTAKES 0
      SEL 0
      FADEIN 1 0.000000 0.000000 1 0
      FADEOUT 1 0.000000 0.000000 1 0
      MUTE 0
      IGUID {671907DE-7E01-49B8-9893-223FEF587E3F}
      IID 6
      NAME "PART REAL_KEYS_H"
      VOLPAN 1.000000 0.000000 1.000000 -1.000000
      SOFFS 0.00000000000000 0.00000000000000
      PLAYRATE 1.00000000000000 1 0.00000000000000 -1
      CHANMODE 0
      GUID {320D4FBE-306C-4CE4-ADCC-F4C757D818A7}
      <SOURCE MIDI
        HASDATA 1 480 QN
        POOLEDEVTS {DAC83A60-F194-4513-A4F8-D688DD351F43}
        <X 0 0
          /wNQQVJUIFJFQUxfS0VZU19I
        >
        E 0 90 00 60
        E 120 80 00 00
        E 3720 90 3c 60
        E 80 80 3c 00
        E 320 90 3c 60
        E 80 80 3c 00
        E 160 90 3c 60
        E 80 80 3c 00
        E 160 90 3c 60
        E 80 80 3c 00
        E 160 90 3c 60
        E 80 80 3c 00
        E 160 90 3c 60
        E 80 80 3c 00
        E 160 90 3c 60
        E 80 80 3c 00
        E 160 90 3c 60
        E 80 80 3c 00
        E 160 90 3c 60
        E 80 80 3c 00
        E 160 90 3c 60
        E 80 80 3c 00
        E 160 90 3c 60
        E 80 80 3c 00
        E 160 90 3c 60
        E 80 80 3c 00
        E 480 90 3e 60
        E 120 80 3e 00
        E 360 90 40 60
        E 120 80 40 00
        E 360 90 40 60
        E 120 80 40 00
        E 240 90 40 60
        E 120 80 40 00
        E 120 90 3c 60
        E 120 80 3c 00
        E 120 90 39 60
        E 120 80 39 00
        E 480 90 3c 60
        E 120 80 3c 00
        E 360 90 3c 60
        E 120 80 3c 00
        E 240 90 3c 60
        E 120 80 3c 00
        E 120 90 39 60
        E 120 80 39 00
        E 120 90 36 60
        E 120 80 36 00
        E 480 90 40 60
        E 120 80 40 00
        E 360 90 40 60
        E 120 80 40 00
        E 240 90 40 60
        E 120 80 40 00
        E 120 90 3c 60
        E 120 80 3c 00
        E 120 90 39 60
        E 120 80 39 00
        E 240 90 40 60
        E 120 80 40 00
        E 120 90 3c 60
        E 120 80 3c 00
        E 1800 90 40 60
        E 120 80 40 00
        E 360 90 40 60
        E 120 80 40 00
        E 240 90 40 60
        E 120 80 40 00
        E 120 90 3c 60
        E 120 80 3c 00
        E 120 90 39 60
        E 120 80 39 00
        E 480 90 3c 60
        E 120 80 3c 00
        E 360 90 3c 60
        E 120 80 3c 00
        E 240 90 3c 60
        E 120 80 3c 00
        E 120 90 39 60
        E 120 80 39 00
        E 120 90 36 60
        E 120 80 36 00
        E 480 90 40 60
        E 120 80 40 00
        E 360 90 40 60
        E 120 80 40 00
        E 240 90 40 60
        E 120 80 40 00
        E 120 90 3c 60
        E 120 80 3c 00
        E 120 90 39 60
        E 120 80 39 00
        E 240 90 40 60
        E 120 80 40 00
        E 120 90 3c 60
        E 120 80 3c 00
        E 1080 90 3c 60
        E 120 80 3c 00
        E 120 90 3e 60
        E 120 80 3e 00
        E 120 90 3f 60
        E 120 80 3f 00
        E 120 90 40 60
        E 120 80 40 00
        E 360 90 40 60
        E 120 80 40 00
        E 240 90 40 60
        E 120 80 40 00
        E 120 90 3e 60
        E 120 80 3e 00
        E 240 90 3e 60
        E 120 80 3e 00
        E 120 90 40 60
        E 120 80 40 00
        E 120 90 3e 60
        E 120 80 3e 00
        E 120 90 3c 60
        E 120 80 3c 00
        E 120 90 3c 60
        E 120 80 3c 00
        E 240 90 3c 60
        E 120 80 3c 00
        E 240 90 39 60
        E 120 80 39 00
        E 120 90 3b 60
        E 120 80 3b 00
        E 120 90 3c 60
        E 120 80 3c 00
        E 120 90 3e 60
        E 120 80 3e 00
        E 360 90 3e 60
        E 120 80 3e 00
        E 240 90 3e 60
        E 120 80 3e 00
        E 120 90 3c 60
        E 120 80 3c 00
        E 240 90 3b 60
        E 120 80 3b 00
        E 120 90 39 60
        E 120 80 39 00
        E 360 90 3b 60
        E 120 80 3b 00
        E 120 90 3c 60
        E 120 80 3c 00
        E 120 90 3d 60
        E 120 80 3d 00
        E 120 90 3e 60
        E 120 80 3e 00
        E 480 90 37 60
        E 120 80 37 00
        E 240 90 34 60
        E 80 80 34 00
        E 160 90 34 60
        E 80 80 34 00
        E 160 90 38 60
        E 80 80 38 00
        E 160 90 40 60
        E 80 80 40 00
        E 160 90 3e 60
        E 80 80 3e 00
        E 160 90 39 60
        E 80 80 39 00
        E 160 90 38 60
        E 80 80 38 00
        E 160 90 34 60
        E 80 80 34 00
        E 160 90 3c 60
        E 80 80 3c 00
        E 160 90 3c 60
        E 80 80 3c 00
        E 160 90 40 60
        E 80 80 40 00
        E 160 90 40 60
        E 80 80 40 00
        E 160 90 38 60
        E 80 80 38 00
        E 160 90 3e 60
        E 80 80 3e 00
        E 160 90 39 60
        E 80 80 39 00
        E 160 90 37 60
        E 80 80 37 00
        E 160 90 35 60
        E 80 80 35 00
        E 160 90 35 60
        E 80 80 35 00
        E 160 90 40 60
        E 80 80 40 00
        E 160 90 39 60
        E 80 80 39 00
        E 160 90 37 60
        E 80 80 37 00
        E 160 90 37 60
        E 80 80 37 00
        E 160 90 35 60
        E 80 80 35 00
        E 160 90 39 60
        E 80 80 39 00
        E 160 90 3b 60
        E 80 80 3b 00
        E 160 90 3b 60
        E 80 80 3b 00
        E 160 90 37 60
        E 80 80 37 00
        E 160 90 39 60
        E 80 80 39 00
        E 160 90 37 60
        E 80 80 37 00
        E 160 90 3b 60
        E 80 80 3b 00
        E 160 90 35 60
        E 80 80 35 00
        E 160 90 39 60
        E 80 80 39 00
        E 160 90 40 60
        E 120 80 40 00
        E 360 90 40 60
        E 120 80 40 00
        E 240 90 40 60
        E 120 80 40 00
        E 120 90 3c 60
        E 120 80 3c 00
        E 120 90 39 60
        E 120 80 39 00
        E 480 90 3c 60
        E 120 80 3c 00
        E 360 90 3c 60
        E 120 80 3c 00
        E 240 90 3c 60
        E 120 80 3c 00
        E 120 90 39 60
        E 120 80 39 00
        E 120 90 36 60
        E 120 80 36 00
        E 480 90 40 60
        E 120 80 40 00
        E 360 90 40 60
        E 120 80 40 00
        E 240 90 40 60
        E 120 80 40 00
        E 120 90 3c 60
        E 120 80 3c 00
        E 120 90 39 60
        E 120 80 39 00
        E 240 90 40 60
        E 120 80 40 00
        E 120 90 3c 60
        E 120 80 3c 00
        E 1800 90 40 60
        E 120 80 40 00
        E 360 90 40 60
        E 120 80 40 00
        E 240 90 40 60
        E 120 80 40 00
        E 120 90 3c 60
        E 120 80 3c 00
        E 120 90 39 60
        E 120 80 39 00
        E 480 90 3c 60
        E 120 80 3c 00
        E 360 90 3c 60
        E 120 80 3c 00
        E 240 90 3c 60
        E 120 80 3c 00
        E 120 90 39 60
        E 120 80 39 00
        E 120 90 36 60
        E 120 80 36 00
        E 480 90 40 60
        E 120 80 40 00
        E 360 90 40 60
        E 120 80 40 00
        E 240 90 40 60
        E 120 80 40 00
        E 120 90 3c 60
        E 120 80 3c 00
        E 120 90 39 60
        E 120 80 39 00
        E 240 90 40 60
        E 120 80 40 00
        E 120 90 3c 60
        E 120 80 3c 00
        E 1080 90 3c 60
        E 120 80 3c 00
        E 120 90 3e 60
        E 120 80 3e 00
        E 120 90 3f 60
        E 120 80 3f 00
        E 120 90 40 60
        E 120 80 40 00
        E 360 90 40 60
        E 120 80 40 00
        E 240 90 40 60
        E 120 80 40 00
        E 120 90 3e 60
        E 120 80 3e 00
        E 240 90 3e 60
        E 120 80 3e 00
        E 120 90 40 60
        E 120 80 40 00
        E 120 90 3e 60
        E 120 80 3e 00
        E 120 90 3c 60
        E 120 80 3c 00
        E 120 90 3c 60
        E 120 80 3c 00
        E 240 90 3c 60
        E 120 80 3c 00
        E 240 90 39 60
        E 120 80 39 00
        E 120 90 3b 60
        E 120 80 3b 00
        E 120 90 3c 60
        E 120 80 3c 00
        E 120 90 3e 60
        E 120 80 3e 00
        E 360 90 3e 60
        E 120 80 3e 00
        E 240 90 3e 60
        E 120 80 3e 00
        E 120 90 3c 60
        E 120 80 3c 00
        E 240 90 3b 60
        E 120 80 3b 00
        E 120 90 39 60
        E 120 80 39 00
        E 360 90 3b 60
        E 120 80 3b 00
        E 120 90 3c 60
        E 120 80 3c 00
        E 120 90 3d 60
        E 120 80 3d 00
        E 120 90 3e 60
        E 120 80 3e 00
        E 480 90 37 60
        E 120 80 37 00
        E 240 90 34 60
        E 80 80 34 00
        E 160 90 34 60
        E 80 80 34 00
        E 160 90 38 60
        E 80 80 38 00
        E 160 90 40 60
        E 80 80 40 00
        E 160 90 3e 60
        E 80 80 3e 00
        E 160 90 39 60
        E 80 80 39 00
        E 160 90 38 60
        E 80 80 38 00
        E 160 90 34 60
        E 80 80 34 00
        E 160 90 3c 60
        E 80 80 3c 00
        E 160 90 3c 60
        E 80 80 3c 00
        E 160 90 40 60
        E 80 80 40 00
        E 160 90 40 60
        E 80 80 40 00
        E 160 90 38 60
        E 80 80 38 00
        E 160 90 3e 60
        E 80 80 3e 00
        E 160 90 39 60
        E 80 80 39 00
        E 160 90 37 60
        E 80 80 37 00
        E 160 90 35 60
        E 80 80 35 00
        E 160 90 35 60
        E 80 80 35 00
        E 160 90 40 60
        E 80 80 40 00
        E 160 90 39 60
        E 80 80 39 00
        E 160 90 37 60
        E 80 80 37 00
        E 160 90 37 60
        E 80 80 37 00
        E 160 90 35 60
        E 80 80 35 00
        E 160 90 39 60
        E 80 80 39 00
        E 160 90 3b 60
        E 80 80 3b 00
        E 160 90 3b 60
        E 80 80 3b 00
        E 160 90 37 60
        E 80 80 37 00
        E 160 90 39 60
        E 80 80 39 00
        E 160 90 37 60
        E 80 80 37 00
        E 160 90 3b 60
        E 80 80 3b 00
        E 160 90 35 60
        E 80 80 35 00
        E 160 90 39 60
        E 80 80 39 00
        E 160 90 40 60
        E 120 80 40 00
        E 360 90 40 60
        E 120 80 40 00
        E 240 90 40 60
        E 120 80 40 00
        E 120 90 3c 60
        E 120 80 3c 00
        E 120 90 39 60
        E 120 80 39 00
        E 480 90 3c 60
        E 120 80 3c 00
        E 360 90 3c 60
        E 120 80 3c 00
        E 240 90 3c 60
        E 120 80 3c 00
        E 120 90 39 60
        E 120 80 39 00
        E 120 90 36 60
        E 120 80 36 00
        E 480 90 40 60
        E 120 80 40 00
        E 360 90 40 60
        E 120 80 40 00
        E 240 90 40 60
        E 120 80 40 00
        E 120 90 3c 60
        E 120 80 3c 00
        E 120 90 39 60
        E 120 80 39 00
        E 240 90 40 60
        E 120 80 40 00
        E 120 90 3c 60
        E 120 80 3c 00
        E 1800 90 40 60
        E 120 80 40 00
        E 360 90 40 60
        E 120 80 40 00
        E 240 90 40 60
        E 120 80 40 00
        E 120 90 3c 60
        E 120 80 3c 00
        E 120 90 39 60
        E 120 80 39 00
        E 480 90 3c 60
        E 120 80 3c 00
        E 360 90 3c 60
        E 120 80 3c 00
        E 240 90 3c 60
        E 120 80 3c 00
        E 120 90 39 60
        E 120 80 39 00
        E 120 90 36 60
        E 120 80 36 00
        E 480 90 40 60
        E 120 80 40 00
        E 360 90 40 60
        E 120 80 40 00
        E 240 90 40 60
        E 120 80 40 00
        E 120 90 3c 60
        E 120 80 3c 00
        E 120 90 39 60
        E 120 80 39 00
        E 240 90 40 60
        E 120 80 40 00
        E 120 90 3c 60
        E 120 80 3c 00
        E 1080 90 3c 60
        E 120 80 3c 00
        E 120 90 3e 60
        E 120 80 3e 00
        E 120 90 3f 60
        E 120 80 3f 00
        E 120 90 40 60
        E 120 80 40 00
        E 360 90 40 60
        E 120 80 40 00
        E 240 90 40 60
        E 120 80 40 00
        E 120 90 3e 60
        E 120 80 3e 00
        E 240 90 3e 60
        E 120 80 3e 00
        E 120 90 40 60
        E 120 80 40 00
        E 120 90 3e 60
        E 120 80 3e 00
        E 120 90 3c 60
        E 120 80 3c 00
        E 120 90 3c 60
        E 120 80 3c 00
        E 240 90 3c 60
        E 120 80 3c 00
        E 240 90 39 60
        E 120 80 39 00
        E 120 90 3b 60
        E 120 80 3b 00
        E 120 90 3c 60
        E 120 80 3c 00
        E 120 90 3e 60
        E 120 80 3e 00
        E 360 90 3e 60
        E 120 80 3e 00
        E 240 90 3e 60
        E 120 80 3e 00
        E 120 90 3c 60
        E 120 80 3c 00
        E 240 90 3b 60
        E 120 80 3b 00
        E 120 90 39 60
        E 120 80 39 00
        E 360 90 3b 60
        E 120 80 3b 00
        E 120 90 3c 60
        E 120 80 3c 00
        E 120 90 3d 60
        E 120 80 3d 00
        E 120 90 3e 60
        E 120 80 3e 00
        E 480 90 37 60
        E 120 80 37 00
        E 240 90 34 60
        E 80 80 34 00
        E 160 90 34 60
        E 80 80 34 00
        E 160 90 38 60
        E 80 80 38 00
        E 160 90 40 60
        E 80 80 40 00
        E 160 90 3e 60
        E 80 80 3e 00
        E 160 90 39 60
        E 80 80 39 00
        E 160 90 38 60
        E 80 80 38 00
        E 160 90 34 60
        E 80 80 34 00
        E 160 90 3c 60
        E 80 80 3c 00
        E 160 90 3c 60
        E 80 80 3c 00
        E 160 90 40 60
        E 80 80 40 00
        E 160 90 40 60
        E 80 80 40 00
        E 160 90 38 60
        E 80 80 38 00
        E 160 90 3e 60
        E 80 80 3e 00
        E 160 90 39 60
        E 80 80 39 00
        E 160 90 37 60
        E 80 80 37 00
        E 160 90 35 60
        E 80 80 35 00
        E 160 90 35 60
        E 80 80 35 00
        E 160 90 40 60
        E 80 80 40 00
        E 160 90 39 60
        E 80 80 39 00
        E 160 90 37 60
        E 80 80 37 00
        E 160 90 37 60
        E 80 80 37 00
        E 160 90 35 60
        E 80 80 35 00
        E 160 90 39 60
        E 80 80 39 00
        E 160 90 3b 60
        E 80 80 3b 00
        E 160 90 3b 60
        E 80 80 3b 00
        E 160 90 37 60
        E 80 80 37 00
        E 160 90 39 60
        E 80 80 39 00
        E 160 90 37 60
        E 80 80 37 00
        E 160 90 3b 60
        E 80 80 3b 00
        E 160 90 35 60
        E 80 80 35 00
        E 160 90 39 60
        E 80 80 39 00
        E 160 90 40 60
        E 120 80 40 00
        E 360 90 40 60
        E 120 80 40 00
        E 240 90 40 60
        E 120 80 40 00
        E 120 90 3c 60
        E 120 80 3c 00
        E 120 90 39 60
        E 120 80 39 00
        E 480 90 3c 60
        E 120 80 3c 00
        E 360 90 3c 60
        E 120 80 3c 00
        E 240 90 3c 60
        E 120 80 3c 00
        E 120 90 39 60
        E 120 80 39 00
        E 120 90 36 60
        E 120 80 36 00
        E 480 90 40 60
        E 120 80 40 00
        E 360 90 40 60
        E 120 80 40 00
        E 240 90 40 60
        E 120 80 40 00
        E 120 90 3c 60
        E 120 80 3c 00
        E 120 90 39 60
        E 120 80 39 00
        E 240 90 40 60
        E 120 80 40 00
        E 120 90 3c 60
        E 120 80 3c 00
        E 1800 90 40 60
        E 120 80 40 00
        E 360 90 40 60
        E 120 80 40 00
        E 240 90 40 60
        E 120 80 40 00
        E 120 90 3c 60
        E 120 80 3c 00
        E 120 90 39 60
        E 120 80 39 00
        E 480 90 3c 60
        E 120 80 3c 00
        E 360 90 3c 60
        E 120 80 3c 00
        E 240 90 3c 60
        E 120 80 3c 00
        E 120 90 39 60
        E 120 80 39 00
        E 120 90 36 60
        E 120 80 36 00
        E 480 90 40 60
        E 120 80 40 00
        E 360 90 40 60
        E 120 80 40 00
        E 240 90 40 60
        E 120 80 40 00
        E 120 90 3c 60
        E 120 80 3c 00
        E 120 90 39 60
        E 120 80 39 00
        E 240 90 40 60
        E 120 80 40 00
        E 120 90 3c 60
        E 120 80 3c 00
        E 1800 b0 7b 00
        GUID {CB92EA9E-029C-43A5-A214-4BC8C973BCE7}
        IGNTEMPO 0 120.00000000 4 4
        SRCCOLOR 8
        VELLANE 132 128 60
        COLORMAP "C:\Program Files\REAPER (x64)\Data\color_maps\rockband_guitarbass.png"
        CFGEDITVIEW -6761.581848 12.955548 8 15 0 0 0
        CFGEDIT 1 1 0 1 1 0 1 1 1 1 1 0.25000000 -8 -8 1544 872 0 2 1 1 0.00000000 0 1 0 0 0.500000 0 0 1.000000 64
        KEYSNAP 0 6 "102030050700" 0 "Pentatonic"
        EVTFILTER 0 -1 -1 -1 -1 0 1 0 0 -1.00000000 -1.00000000
      >
    >
  >
  <TRACK '{77FDCBD8-F617-41BB-8387-127BBC6366D0}'
    NAME "PART REAL_KEYS_M"
    PEAKCOL 16576
    BEAT -1
    AUTOMODE 0
    VOLPAN 1.00000000000000 0.00000000000000 -1.00000000000000 -1.00000000000000 1.00000000000000
    MUTESOLO 0 0 0
    IPHASE 0
    ISBUS 0 0
    BUSCOMP 0 0
    SHOWINMIX 1 0.666700 0.500000 1 0.500000 -1 -1 -1
    FREEMODE 0
    SEL 0
    REC 0 0 0 0 0 0 0
    VU 2
    TRACKHEIGHT 0 0
    INQ 0 0 0 0.5000000000 100 0 0 100
    NCHAN 2
    FX 1
    TRACKID {77FDCBD8-F617-41BB-8387-127BBC6366D0}
    PERF 0
    MIDIOUT -1
    <MIDINOTENAMES
      0 72 "Highest playable note B#3"
      0 71 "B3"
      0 70 "A#3"
      0 69 "A3"
      0 68 "G#3"
      0 67 "G3"
      0 66 "F#3"
      0 65 "F3"
      0 64 "E3"
      0 63 "D#3"
      0 62 "D3"
      0 61 "C#3"
      0 60 "C3"
      0 59 "B2"
      0 58 "A#2"
      0 57 "A2"
      0 56 "G#2"
      0 55 "G2"
      0 54 "F#2"
      0 53 "F2"
      0 52 "E2"
      0 51 "D#2"
      0 50 "D2"
      0 49 "C#2"
      0 48 "Lowest playable note C2"
      0 10 "---"
      0 9 "Range A2-C4"
      0 8 "Range"
      0 7 "Range"
      0 6 "Range"
      0 5 "Range F2-A3"
      0 4 "Range"
      0 3 "Range"
      0 2 "Range"
      0 1 "Range"
      0 0 "Range C2-E3"
    >
    MAINSEND 1 0
    <FXCHAIN
      SHOW 0
      LASTSEL 0
      DOCKED 0
    >
    <ITEM
      POSITION 0.00000000000000
      SNAPOFFS 0.00000000000000
      LENGTH 96.00000000000000
      LOOP 0
      ALLTAKES 0
      SEL 0
      FADEIN 1 0.000000 0.000000 1 0
      FADEOUT 1 0.000000 0.000000 1 0
      MUTE 0
      IGUID {9752BE28-0569-40E0-B099-14FDA4097D8D}
      IID 7
      NAME "PART REAL_KEYS_M"
      VOLPAN 1.000000 0.000000 1.000000 -1.000000
      SOFFS 0.00000000000000 0.00000000000000
      PLAYRATE 1.00000000000000 1 0.00000000000000 -1
      CHANMODE 0
      GUID {DC8D578B-E536-4463-BEEE-9824789CA354}
      <SOURCE MIDI
        HASDATA 1 480 QN
        POOLEDEVTS {248E4315-4882-4CA8-94A6-0E596294E7DB}
        <X 0 0
          /wNQQVJUIFJFQUxfS0VZU19N
        >
        E 0 90 00 60
        E 120 80 00 00
        E 3720 90 3c 60
        E 80 80 3c 00
        E 560 90 3c 60
        E 80 80 3c 00
        E 400 90 3c 60
        E 80 80 3c 00
        E 400 90 3c 60
        E 80 80 3c 00
        E 400 90 3c 60
        E 80 80 3c 00
        E 400 90 3c 60
        E 80 80 3c 00
        E 720 90 3e 60
        E 120 80 3e 00
        E 360 90 40 60
        E 120 80 40 00
        E 360 90 40 60
        E 120 80 40 00
        E 480 90 3c 60
        E 120 80 3c 00
        E 720 90 3c 60
        E 120 80 3c 00
        E 360 90 3c 60
        E 120 80 3c 00
        E 480 90 39 60
        E 120 80 39 00
        E 720 90 40 60
        E 120 80 40 00
        E 360 90 40 60
        E 120 80 40 00
        E 480 90 3c 60
        E 120 80 3c 00
        E 720 90 3c 60
        E 120 80 3c 00
        E 1800 90 40 60
        E 120 80 40 00
        E 360 90 40 60
        E 120 80 40 00
        E 480 90 3c 60
        E 120 80 3c 00
        E 720 90 3c 60
        E 120 80 3c 00
        E 360 90 3c 60
        E 120 80 3c 00
        E 480 90 39 60
        E 120 80 39 00
        E 720 90 40 60
        E 120 80 40 00
        E 360 90 40 60
        E 120 80 40 00
        E 480 90 3c 60
        E 120 80 3c 00
        E 720 90 3c 60
        E 120 80 3c 00
        E 1320 90 3e 60
        E 120 80 3e 00
        E 360 90 40 60
        E 120 80 40 00
        E 360 90 40 60
        E 120 80 40 00
        E 480 90 3e 60
        E 120 80 3e 00
        E 240 90 3e 60
        E 120 80 3e 00
        E 360 90 3e 60
        E 120 80 3e 00
        E 360 90 3c 60
        E 120 80 3c 00
        E 840 90 3b 60
        E 120 80 3b 00
        E 360 90 3e 60
        E 120 80 3e 00
        E 360 90 3e 60
        E 120 80 3e 00
        E 840 90 3b 60
        E 120 80 3b 00
        E 840 90 3c 60
        E 120 80 3c 00
        E 360 90 3e 60
        E 120 80 3e 00
        E 840 90 34 60
        E 80 80 34 00
        E 160 90 34 60
        E 80 80 34 00
        E 160 90 38 60
        E 80 80 38 00
        E 400 90 3e 60
        E 80 80 3e 00
        E 400 90 38 60
        E 80 80 38 00
        E 400 90 3c 60
        E 80 80 3c 00
        E 400 90 40 60
        E 80 80 40 00
        E 400 90 38 60
        E 80 80 38 00
        E 400 90 39 60
        E 80 80 39 00
        E 400 90 35 60
        E 80 80 35 00
        E 400 90 40 60
        E 80 80 40 00
        E 400 90 37 60
        E 80 80 37 00
        E 400 90 35 60
        E 80 80 35 00
        E 400 90 3b 60
        E 80 80 3b 00
        E 400 90 37 60
        E 80 80 37 00
        E 400 90 37 60
        E 80 80 37 00
        E 400 90 35 60
        E 80 80 35 00
        E 400 90 40 60
        E 120 80 40 00
        E 360 90 40 60
        E 120 80 40 00
        E 480 90 3c 60
        E 120 80 3c 00
        E 720 90 3c 60
        E 120 80 3c 00
        E 360 90 3c 60
        E 120 80 3c 00
        E 480 90 39 60
        E 120 80 39 00
        E 720 90 40 60
        E 120 80 40 00
        E 360 90 40 60
        E 120 80 40 00
        E 480 90 3c 60
        E 120 80 3c 00
        E 720 90 3c 60
        E 120 80 3c 00
        E 1800 90 40 60
        E 120 80 40 00
        E 360 90 40 60
        E 120 80 40 00
        E 480 90 3c 60
        E 120 80 3c 00
        E 720 90 3c 60
        E 120 80 3c 00
        E 360 90 3c 60
        E 120 80 3c 00
        E 480 90 39 60
        E 120 80 39 00
        E 720 90 40 60
        E 120 80 40 00
        E 360 90 40 60
        E 120 80 40 00
        E 480 90 3c 60
        E 120 80 3c 00
        E 720 90 3c 60
        E 120 80 3c 00
        E 1320 90 3e 60
        E 120 80 3e 00
        E 360 90 40 60
        E 120 80 40 00
        E 360 90 40 60
        E 120 80 40 00
        E 480 90 3e 60
        E 120 80 3e 00
        E 240 90 3e 60
        E 120 80 3e 00
        E 360 90 3e 60
        E 120 80 3e 00
        E 360 90 3c 60
        E 120 80 3c 00
        E 840 90 3b 60
        E 120 80 3b 00
        E 360 90 3e 60
        E 120 80 3e 00
        E 360 90 3e 60
        E 120 80 3e 00
        E 840 90 3b 60
        E 120 80 3b 00
        E 840 90 3c 60
        E 120 80 3c 00
        E 360 90 3e 60
        E 120 80 3e 00
        E 840 90 34 60
        E 80 80 34 00
        E 160 90 34 60
        E 80 80 34 00
        E 160 90 38 60
        E 80 80 38 00
        E 400 90 3e 60
        E 80 80 3e 00
        E 400 90 38 60
        E 80 80 38 00
        E 400 90 3c 60
        E 80 80 3c 00
        E 400 90 40 60
        E 80 80 40 00
        E 400 90 38 60
        E 80 80 38 00
        E 400 90 39 60
        E 80 80 39 00
        E 400 90 35 60
        E 80 80 35 00
        E 400 90 40 60
        E 80 80 40 00
        E 400 90 37 60
        E 80 80 37 00
        E 400 90 35 60
        E 80 80 35 00
        E 400 90 3b 60
        E 80 80 3b 00
        E 400 90 37 60
        E 80 80 37 00
        E 400 90 37 60
        E 80 80 37 00
        E 400 90 35 60
        E 80 80 35 00
        E 400 90 40 60
        E 120 80 40 00
        E 360 90 40 60
        E 120 80 40 00
        E 480 90 3c 60
        E 120 80 3c 00
        E 720 90 3c 60
        E 120 80 3c 00
        E 360 90 3c 60
        E 120 80 3c 00
        E 480 90 39 60
        E 120 80 39 00
        E 720 90 40 60
        E 120 80 40 00
        E 360 90 40 60
        E 120 80 40 00
        E 480 90 3c 60
        E 120 80 3c 00
        E 720 90 3c 60
        E 120 80 3c 00
        E 1800 90 40 60
        E 120 80 40 00
        E 360 90 40 60
        E 120 80 40 00
        E 480 90 3c 60
        E 120 80 3c 00
        E 720 90 3c 60
        E 120 80 3c 00
        E 360 90 3c 60
        E 120 80 3c 00
        E 480 90 39 60
        E 120 80 39 00
        E 720 90 40 60
        E 120 80 40 00
        E 360 90 40 60
        E 120 80 40 00
        E 480 90 3c 60
        E 120 80 3c 00
        E 720 90 3c 60
        E 120 80 3c 00
        E 1320 90 3e 60
        E 120 80 3e 00
        E 360 90 40 60
        E 120 80 40 00
        E 360 90 40 60
        E 120 80 40 00
        E 480 90 3e 60
        E 120 80 3e 00
        E 240 90 3e 60
        E 120 80 3e 00
        E 360 90 3e 60
        E 120 80 3e 00
        E 360 90 3c 60
        E 120 80 3c 00
        E 840 90 3b 60
        E 120 80 3b 00
        E 360 90 3e 60
        E 120 80 3e 00
        E 360 90 3e 60
        E 120 80 3e 00
        E 840 90 3b 60
        E 120 80 3b 00
        E 840 90 3c 60
        E 120 80 3c 00
        E 360 90 3e 60
        E 120 80 3e 00
        E 840 90 34 60
        E 80 80 34 00
        E 160 90 34 60
        E 80 80 34 00
        E 160 90 38 60
        E 80 80 38 00
        E 400 90 3e 60
        E 80 80 3e 00
        E 400 90 38 60
        E 80 80 38 00
        E 400 90 3c 60
        E 80 80 3c 00
        E 400 90 40 60
        E 80 80 40 00
        E 400 90 38 60
        E 80 80 38 00
        E 400 90 39 60
        E 80 80 39 00
        E 400 90 35 60
        E 80 80 35 00
        E 400 90 40 60
        E 80 80 40 00
        E 400 90 37 60
        E 80 80 37 00
        E 400 90 35 60
        E 80 80 35 00
        E 400 90 3b 60
        E 80 80 3b 00
        E 400 90 37 60
        E 80 80 37 00
        E 400 90 37 60
        E 80 80 37 00
        E 400 90 35 60
        E 80 80 35 00
        E 400 90 40 60
        E 120 80 40 00
        E 360 90 40 60
        E 120 80 40 00
        E 480 90 3c 60
        E 120 80 3c 00
        E 720 90 3c 60
        E 120 80 3c 00
        E 360 90 3c 60
        E 120 80 3c 00
        E 480 90 39 60
        E 120 80 39 00
        E 720 90 40 60
        E 120 80 40 00
        E 360 90 40 60
        E 120 80 40 00
        E 480 90 3c 60
        E 120 80 3c 00
        E 720 90 3c 60
        E 120 80 3c 00
        E 1800 90 40 60
        E 120 80 40 00
        E 360 90 40 60
        E 120 80 40 00
        E 480 90 3c 60
        E 120 80 3c 00
        E 720 90 3c 60
        E 120 80 3c 00
        E 360 90 3c 60
        E 120 80 3c 00
        E 480 90 39 60
        E 120 80 39 00
        E 720 90 40 60
        E 120 80 40 00
        E 360 90 40 60
        E 120 80 40 00
        E 480 90 3c 60
        E 120 80 3c 00
        E 720 90 3c 60
        E 120 80 3c 00
        E 1800 b0 7b 00
        GUID {4B38CAD2-2973-4615-8D67-3CD32000BAB5}
        IGNTEMPO 0 120.00000000 4 4
        SRCCOLOR 9
        VELLANE 132 128 60
        COLORMAP "C:\Program Files\REAPER (x64)\Data\color_maps\rockband_guitarbass.png"
        CFGEDITVIEW -6761.581848 12.955548 8 15 0 0 0
        CFGEDIT 1 1 0 1 1 0 1 1 1 1 1 0.25000000 -8 -8 1544 872 0 2 1 1 0.00000000 0 1 0 0 0.500000 0 0 1.000000 64
        KEYSNAP 0 6 "102030050700" 0 "Pentatonic"
        EVTFILTER 0 -1 -1 -1 -1 0 1 0 0 -1.00000000 -1.00000000
      >
    >
  >
  <TRACK '{212FEBE3-D6BC-47E9-A5D9-AF7902DDB03E}'
    NAME "PART REAL_KEYS_E"
    PEAKCOL 16576
    BEAT -1
    AUTOMODE 0
    VOLPAN 1.00000000000000 0.00000000000000 -1.00000000000000 -1.00000000000000 1.00000000000000
    MUTESOLO 0 0 0
    IPHASE 0
    ISBUS 0 0
    BUSCOMP 0 0
    SHOWINMIX 1 0.666700 0.500000 1 0.500000 -1 -1 -1
    FREEMODE 0
    SEL 0
    REC 0 0 0 0 0 0 0
    VU 2
    TRACKHEIGHT 0 0
    INQ 0 0 0 0.5000000000 100 0 0 100
    NCHAN 2
    FX 1
    TRACKID {212FEBE3-D6BC-47E9-A5D9-AF7902DDB03E}
    PERF 0
    MIDIOUT -1
    <MIDINOTENAMES
      0 72 "Highest playable note B#3"
      0 71 "B3"
      0 70 "A#3"
      0 69 "A3"
      0 68 "G#3"
      0 67 "G3"
      0 66 "F#3"
      0 65 "F3"
      0 64 "E3"
      0 63 "D#3"
      0 62 "D3"
      0 61 "C#3"
      0 60 "C3"
      0 59 "B2"
      0 58 "A#2"
      0 57 "A2"
      0 56 "G#2"
      0 55 "G2"
      0 54 "F#2"
      0 53 "F2"
      0 52 "E2"
      0 51 "D#2"
      0 50 "D2"
      0 49 "C#2"
      0 48 "Lowest playable note C2"
      0 10 "---"
      0 9 "Range A2-C4"
      0 8 "Range"
      0 7 "Range"
      0 6 "Range"
      0 5 "Range F2-A3"
      0 4 "Range"
      0 3 "Range"
      0 2 "Range"
      0 1 "Range"
      0 0 "Range C2-E3"
    >
    MAINSEND 1 0
    <FXCHAIN
      SHOW 0
      LASTSEL 0
      DOCKED 0
    >
    <ITEM
      POSITION 0.00000000000000
      SNAPOFFS 0.00000000000000
      LENGTH 96.00000000000000
      LOOP 0
      ALLTAKES 0
      SEL 0
      FADEIN 1 0.000000 0.000000 1 0
      FADEOUT 1 0.000000 0.000000 1 0
      MUTE 0
      IGUID {614CA4D7-015C-41EA-B574-C1ACBB4377F6}
      IID 8
      NAME "PART REAL_KEYS_E"
      VOLPAN 1.000000 0.000000 1.000000 -1.000000
      SOFFS 0.00000000000000 0.00000000000000
      PLAYRATE 1.00000000000000 1 0.00000000000000 -1
      CHANMODE 0
      GUID {78A66692-ADA8-4644-A68C-DF91A40FFEFF}
      <SOURCE MIDI
        HASDATA 1 480 QN
        POOLEDEVTS {82BA3125-FEFF-4746-82FB-388C2A59D7DA}
        <X 0 0
          /wNQQVJUIFJFQUxfS0VZU19F
        >
        E 0 90 00 60
        E 120 80 00 00
        E 3720 90 3c 60
        E 80 80 3c 00
        E 1040 90 3c 60
        E 80 80 3c 00
        E 880 90 3c 60
        E 80 80 3c 00
        E 1680 90 40 60
        E 120 80 40 00
        E 360 90 40 60
        E 120 80 40 00
        E 1320 90 3c 60
        E 120 80 3c 00
        E 360 90 3c 60
        E 120 80 3c 00
        E 1320 90 40 60
        E 120 80 40 00
        E 360 90 40 60
        E 120 80 40 00
        E 1320 90 3c 60
        E 120 80 3c 00
        E 1800 90 40 60
        E 120 80 40 00
        E 360 90 40 60
        E 120 80 40 00
        E 1320 90 3c 60
        E 120 80 3c 00
        E 360 90 3c 60
        E 120 80 3c 00
        E 1320 90 40 60
        E 120 80 40 00
        E 360 90 40 60
        E 120 80 40 00
        E 1320 90 3c 60
        E 120 80 3c 00
        E 1800 90 40 60
        E 120 80 40 00
        E 360 90 40 60
        E 120 80 40 00
        E 1320 90 3e 60
        E 120 80 3e 00
        E 1800 90 3e 60
        E 120 80 3e 00
        E 360 90 3e 60
        E 120 80 3e 00
        E 840 90 3b 60
        E 120 80 3b 00
        E 1320 90 3e 60
        E 120 80 3e 00
        E 840 90 34 60
        E 80 80 34 00
        E 880 90 3e 60
        E 80 80 3e 00
        E 880 90 3c 60
        E 80 80 3c 00
        E 880 90 38 60
        E 80 80 38 00
        E 880 90 35 60
        E 80 80 35 00
        E 880 90 37 60
        E 80 80 37 00
        E 880 90 3b 60
        E 80 80 3b 00
        E 880 90 37 60
        E 80 80 37 00
        E 880 90 40 60
        E 120 80 40 00
        E 360 90 40 60
        E 120 80 40 00
        E 1320 90 3c 60
        E 120 80 3c 00
        E 360 90 3c 60
        E 120 80 3c 00
        E 1320 90 40 60
        E 120 80 40 00
        E 360 90 40 60
        E 120 80 40 00
        E 1320 90 3c 60
        E 120 80 3c 00
        E 1800 90 40 60
        E 120 80 40 00
        E 360 90 40 60
        E 120 80 40 00
        E 1320 90 3c 60
        E 120 80 3c 00
        E 360 90 3c 60
        E 120 80 3c 00
        E 1320 90 40 60
        E 120 80 40 00
        E 360 90 40 60
        E 120 80 40 00
        E 1320 90 3c 60
        E 120 80 3c 00
        E 1800 90 40 60
        E 120 80 40 00
        E 360 90 40 60
        E 120 80 40 00
        E 1320 90 3e 60
        E 120 80 3e 00
        E 1800 90 3e 60
        E 120 80 3e 00
        E 360 90 3e 60
        E 120 80 3e 00
        E 840 90 3b 60
        E 120 80 3b 00
        E 1320 90 3e 60
        E 120 80 3e 00
        E 840 90 34 60
        E 80 80 34 00
        E 880 90 3e 60
        E 80 80 3e 00
        E 880 90 3c 60
        E 80 80 3c 00
        E 880 90 38 60
        E 80 80 38 00
        E 880 90 35 60
        E 80 80 35 00
        E 880 90 37 60
        E 80 80 37 00
        E 880 90 3b 60
        E 80 80 3b 00
        E 880 90 37 60
        E 80 80 37 00
        E 880 90 40 60
        E 120 80 40 00
        E 360 90 40 60
        E 120 80 40 00
        E 1320 90 3c 60
        E 120 80 3c 00
        E 360 90 3c 60
        E 120 80 3c 00
        E 1320 90 40 60
        E 120 80 40 00
        E 360 90 40 60
        E 120 80 40 00
        E 1320 90 3c 60
        E 120 80 3c 00
        E 1800 90 40 60
        E 120 80 40 00
        E 360 90 40 60
        E 120 80 40 00
        E 1320 90 3c 60
        E 120 80 3c 00
        E 360 90 3c 60
        E 120 80 3c 00
        E 1320 90 40 60
        E 120 80 40 00
        E 360 90 40 60
        E 120 80 40 00
        E 1320 90 3c 60
        E 120 80 3c 00
        E 1800 90 40 60
        E 120 80 40 00
        E 360 90 40 60
        E 120 80 40 00
        E 1320 90 3e 60
        E 120 80 3e 00
        E 1800 90 3e 60
        E 120 80 3e 00
        E 360 90 3e 60
        E 120 80 3e 00
        E 840 90 3b 60
        E 120 80 3b 00
        E 1320 90 3e 60
        E 120 80 3e 00
        E 840 90 34 60
        E 80 80 34 00
        E 880 90 3e 60
        E 80 80 3e 00
        E 880 90 3c 60
        E 80 80 3c 00
        E 880 90 38 60
        E 80 80 38 00
        E 880 90 35 60
        E 80 80 35 00
        E 880 90 37 60
        E 80 80 37 00
        E 880 90 3b 60
        E 80 80 3b 00
        E 880 90 37 60
        E 80 80 37 00
        E 880 90 40 60
        E 120 80 40 00
        E 360 90 40 60
        E 120 80 40 00
        E 1320 90 3c 60
        E 120 80 3c 00
        E 360 90 3c 60
        E 120 80 3c 00
        E 1320 90 40 60
        E 120 80 40 00
        E 360 90 40 60
        E 120 80 40 00
        E 1320 90 3c 60
        E 120 80 3c 00
        E 1800 90 40 60
        E 120 80 40 00
        E 360 90 40 60
        E 120 80 40 00
        E 1320 90 3c 60
        E 120 80 3c 00
        E 360 90 3c 60
        E 120 80 3c 00
        E 1320 90 40 60
        E 120 80 40 00
        E 360 90 40 60
        E 120 80 40 00
        E 1320 90 3c 60
        E 120 80 3c 00
        E 1800 b0 7b 00
        GUID {AC280A7B-FE19-420A-9DFD-112E08156EA0}
        IGNTEMPO 0 120.00000000 4 4
        SRCCOLOR 10
        VELLANE 132 128 60
        COLORMAP "C:\Program Files\REAPER (x64)\Data\color_maps\rockband_guitarbass.png"
        CFGEDITVIEW -6761.581848 12.955548 8 15 0 0 0
        CFGEDIT 1 1 0 1 1 0 1 1 1 1 1 0.25000000 -8 -8 1544 872 0 2 1 1 0.00000000 0 1 0 0 0.500000 0 0 1.000000 64
        KEYSNAP 0 6 "102030050700" 0 "Pentatonic"
        EVTFILTER 0 -1 -1 -1 -1 0 1 0 0 -1.00000000 -1.00000000
      >
    >
  >
  <TRACK '{9839DB60-D805-4171-B262-DBC8A5708089}'
    NAME "PART KEYS_ANIM_RH"
    PEAKCOL 16576
    BEAT -1
    AUTOMODE 0
    VOLPAN 1.00000000000000 0.00000000000000 -1.00000000000000 -1.00000000000000 1.00000000000000
    MUTESOLO 0 0 0
    IPHASE 0
    ISBUS 0 0
    BUSCOMP 0 0
    SHOWINMIX 1 0.666700 0.500000 1 0.500000 -1 -1 -1
    FREEMODE 0
    SEL 0
    REC 0 0 0 0 0 0 0
    VU 2
    TRACKHEIGHT 0 0
    INQ 0 0 0 0.5000000000 100 0 0 100
    NCHAN 2
    FX 1
    TRACKID {9839DB60-D805-4171-B262-DBC8A5708089}
    PERF 0
    MIDIOUT -1
    <MIDINOTENAMES
      0 72 "Highest playable note B#3"
      0 71 "B3"
      0 70 "A#3"
      0 69 "A3"
      0 68 "G#3"
      0 67 "G3"
      0 66 "F#3"
      0 65 "F3"
      0 64 "E3"
      0 63 "D#3"
      0 62 "D3"
      0 61 "C#3"
      0 60 "C3"
      0 59 "B2"
      0 58 "A#2"
      0 57 "A2"
      0 56 "G#2"
      0 55 "G2"
      0 54 "F#2"
      0 53 "F2"
      0 52 "E2"
      0 51 "D#2"
      0 50 "D2"
      0 49 "C#2"
      0 48 "Lowest playable note C2"
    >
    MAINSEND 1 0
    <FXCHAIN
      SHOW 0
      LASTSEL 0
      DOCKED 0
    >
    <ITEM
      POSITION 0.00000000000000
      SNAPOFFS 0.00000000000000
      LENGTH 96.00000000000000
      LOOP 0
      ALLTAKES 0
      SEL 0
      FADEIN 1 0.000000 0.000000 1 0
      FADEOUT 1 0.000000 0.000000 1 0
      MUTE 0
      IGUID {DDE73386-4EDF-4DCD-AF2D-EE29D43A5D2B}
      IID 9
      NAME "PART KEYS_ANIM_RH"
      VOLPAN 1.000000 0.000000 1.000000 -1.000000
      SOFFS 0.00000000000000 0.00000000000000
      PLAYRATE 1.00000000000000 1 0.00000000000000 -1
      CHANMODE 0
      GUID {BA5C3E0C-D69D-4ADA-80FD-4141BF498E80}
      <SOURCE MIDI
        HASDATA 1 480 QN
        POOLEDEVTS {3F7187C2-FA24-4FFF-9518-22464B34CDCA}
        <X 0 0
          /wNQQVJUIEtFWVNfQU5JTV9SSA==
        >
        E 3840 90 3c 60
        E 80 80 3c 00
        E 80 90 3c 60
        E 80 80 3c 00
        E 160 90 3c 60
        E 80 80 3c 00
        E 160 90 3c 60
        E 80 80 3c 00
        E 160 90 3c 60
        E 80 80 3c 00
        E 160 90 3c 60
        E 80 80 3c 00
        E 160 90 3c 60
        E 80 80 3c 00
        E 160 90 3c 60
        E 80 80 3c 00
        E 160 90 3c 60
        E 80 80 3c 00
        E 160 90 3c 60
        E 80 80 3c 00
        E 160 90 3c 60
        E 80 80 3c 00
        E 160 90 3c 60
        E 80 80 3c 00
        E 160 90 3c 60
        E 80 80 3c 00
        E 0 90 40 60
        E 120 80 40 00
        E 360 90 3e 60
        E 120 80 3e 00
        E 360 90 40 60
        E 120 80 40 00
        E 360 90 40 60
        E 120 80 40 00
        E 240 90 40 60
        E 120 80 40 00
        E 120 90 3c 60
        E 120 80 3c 00
        E 120 90 39 60
        E 120 80 39 00
        E 0 90 37 60
        E 120 80 37 00
        E 360 90 3c 60
        E 120 80 3c 00
        E 360 90 3c 60
        E 120 80 3c 00
        E 240 90 3c 60
        E 120 80 3c 00
        E 120 90 39 60
        E 120 80 39 00
        E 120 90 36 60
        E 120 80 36 00
        E 0 90 34 60
        E 120 80 34 00
        E 360 90 40 60
        E 120 80 40 00
        E 360 90 40 60
        E 120 80 40 00
        E 240 90 40 60
        E 120 80 40 00
        E 120 90 3c 60
        E 120 80 3c 00
        E 120 90 39 60
        E 120 80 39 00
        E 0 90 40 60
        E 120 80 40 00
        E 120 90 40 60
        E 120 80 40 00
        E 120 90 3c 60
        E 120 80 3c 00
        E 1800 90 40 60
        E 120 80 40 00
        E 360 90 40 60
        E 120 80 40 00
        E 240 90 40 60
        E 120 80 40 00
        E 120 90 3c 60
        E 120 80 3c 00
        E 120 90 39 60
        E 120 80 39 00
        E 0 90 37 60
        E 120 80 37 00
        E 360 90 3c 60
        E 120 80 3c 00
        E 360 90 3c 60
        E 120 80 3c 00
        E 240 90 3c 60
        E 120 80 3c 00
        E 120 90 39 60
        E 120 80 39 00
        E 120 90 36 60
        E 120 80 36 00
        E 0 90 34 60
        E 120 80 34 00
        E 360 90 40 60
        E 120 80 40 00
        E 360 90 40 60
        E 120 80 40 00
        E 240 90 40 60
        E 120 80 40 00
        E 120 90 3c 60
        E 120 80 3c 00
        E 120 90 39 60
        E 120 80 39 00
        E 0 90 40 60
        E 120 80 40 00
        E 120 90 40 60
        E 120 80 40 00
        E 120 90 3c 60
        E 120 80 3c 00
        E 1080 90 3c 60
        E 120 80 3c 00
        E 120 90 3e 60
        E 120 80 3e 00
        E 120 90 3f 60
        E 120 80 3f 00
        E 120 90 40 60
        E 120 80 40 00
        E 360 90 40 60
        E 120 80 40 00
        E 240 90 40 60
        E 120 80 40 00
        E 120 90 3e 60
        E 120 80 3e 00
        E 240 90 3e 60
        E 120 80 3e 00
        E 120 90 40 60
        E 120 80 40 00
        E 120 90 3e 60
        E 120 80 3e 00
        E 120 90 3c 60
        E 120 80 3c 00
        E 120 90 3c 60
        E 120 80 3c 00
        E 0 90 3b 60
        E 120 80 3b 00
        E 120 90 3c 60
        E 120 80 3c 00
        E 240 90 39 60
        E 120 80 39 00
        E 120 90 3b 60
        E 120 80 3b 00
        E 120 90 3c 60
        E 120 80 3c 00
        E 120 90 3e 60
        E 120 80 3e 00
        E 360 90 3e 60
        E 120 80 3e 00
        E 240 90 3e 60
        E 120 80 3e 00
        E 120 90 3c 60
        E 120 80 3c 00
        E 240 90 3b 60
        E 120 80 3b 00
        E 120 90 39 60
        E 120 80 39 00
        E 360 90 3b 60
        E 120 80 3b 00
        E 120 90 3c 60
        E 120 80 3c 00
        E 120 90 3d 60
        E 120 80 3d 00
        E 120 90 3e 60
        E 120 80 3e 00
        E 480 90 37 60
        E 120 80 37 00
        E 240 90 34 60
        E 80 80 34 00
        E 80 90 33 60
        E 80 80 33 00
        E 0 90 34 60
        E 80 80 34 00
        E 80 90 3b 60
        E 80 80 3b 00
        E 0 90 38 60
        E 80 80 38 00
        E 80 90 34 60
        E 80 80 34 00
        E 0 90 40 60
        E 80 80 40 00
        E 80 90 3b 60
        E 80 80 3b 00
        E 0 90 3e 60
        E 80 80 3e 00
        E 80 90 3b 60
        E 80 80 3b 00
        E 0 90 39 60
        E 80 80 39 00
        E 80 90 3b 60
        E 80 80 3b 00
        E 0 90 38 60
        E 80 80 38 00
        E 80 90 35 60
        E 80 80 35 00
        E 0 90 34 60
        E 80 80 34 00
        E 80 90 3e 60
        E 80 80 3e 00
        E 0 90 3c 60
        E 80 80 3c 00
        E 80 90 3b 60
        E 80 80 3b 00
        E 0 90 3c 60
        E 80 80 3c 00
        E 80 90 3e 60
        E 80 80 3e 00
        E 0 90 40 60
        E 80 80 40 00
        E 80 90 3f 60
        E 80 80 3f 00
        E 0 90 40 60
        E 80 80 40 00
        E 80 90 39 60
        E 80 80 39 00
        E 0 90 38 60
        E 80 80 38 00
        E 80 90 40 60
        E 80 80 40 00
        E 0 90 3e 60
        E 80 80 3e 00
        E 80 90 3f 60
        E 80 80 3f 00
        E 0 90 39 60
        E 80 80 39 00
        E 80 90 34 60
        E 80 80 34 00
        E 0 90 37 60
        E 80 80 37 00
        E 80 90 36 60
        E 80 80 36 00
        E 0 90 35 60
        E 80 80 35 00
        E 80 90 34 60
        E 80 80 34 00
        E 0 90 35 60
        E 80 80 35 00
        E 80 90 39 60
        E 80 80 39 00
        E 0 90 40 60
        E 80 80 40 00
        E 80 90 32 60
        E 80 80 32 00
        E 0 90 39 60
        E 80 80 39 00
        E 80 90 38 60
        E 80 80 38 00
        E 0 90 37 60
        E 80 80 37 00
        E 80 90 40 60
        E 80 80 40 00
        E 0 90 37 60
        E 80 80 37 00
        E 80 90 36 60
        E 80 80 36 00
        E 0 90 35 60
        E 80 80 35 00
        E 80 90 3e 60
        E 80 80 3e 00
        E 0 90 39 60
        E 80 80 39 00
        E 80 90 3a 60
        E 80 80 3a 00
        E 0 90 3b 60
        E 80 80 3b 00
        E 80 90 3a 60
        E 80 80 3a 00
        E 0 90 3b 60
        E 80 80 3b 00
        E 80 90 39 60
        E 80 80 39 00
        E 0 90 37 60
        E 80 80 37 00
        E 80 90 35 60
        E 80 80 35 00
        E 0 90 39 60
        E 80 80 39 00
        E 80 90 3b 60
        E 80 80 3b 00
        E 0 90 37 60
        E 80 80 37 00
        E 80 90 35 60
        E 80 80 35 00
        E 0 90 3b 60
        E 80 80 3b 00
        E 80 90 39 60
        E 80 80 39 00
        E 0 90 35 60
        E 80 80 35 00
        E 80 90 3b 60
        E 80 80 3b 00
        E 0 90 39 60
        E 80 80 39 00
        E 80 90 37 60
        E 80 80 37 00
        E 0 90 40 60
        E 120 80 40 00
        E 360 90 40 60
        E 120 80 40 00
        E 240 90 40 60
        E 120 80 40 00
        E 120 90 3c 60
        E 120 80 3c 00
        E 120 90 39 60
        E 120 80 39 00
        E 0 90 37 60
        E 120 80 37 00
        E 360 90 3c 60
        E 120 80 3c 00
        E 360 90 3c 60
        E 120 80 3c 00
        E 240 90 3c 60
        E 120 80 3c 00
        E 120 90 39 60
        E 120 80 39 00
        E 120 90 36 60
        E 120 80 36 00
        E 0 90 34 60
        E 120 80 34 00
        E 360 90 40 60
        E 120 80 40 00
        E 360 90 40 60
        E 120 80 40 00
        E 240 90 40 60
        E 120 80 40 00
        E 120 90 3c 60
        E 120 80 3c 00
        E 120 90 39 60
        E 120 80 39 00
        E 0 90 40 60
        E 120 80 40 00
        E 120 90 40 60
        E 120 80 40 00
        E 120 90 3c 60
        E 120 80 3c 00
        E 1800 90 40 60
        E 120 80 40 00
        E 360 90 40 60
        E 120 80 40 00
        E 240 90 40 60
        E 120 80 40 00
        E 120 90 3c 60
        E 120 80 3c 00
        E 120 90 39 60
        E 120 80 39 00
        E 0 90 37 60
        E 120 80 37 00
        E 360 90 3c 60
        E 120 80 3c 00
        E 360 90 3c 60
        E 120 80 3c 00
        E 240 90 3c 60
        E 120 80 3c 00
        E 120 90 39 60
        E 120 80 39 00
        E 120 90 36 60
        E 120 80 36 00
        E 0 90 34 60
        E 120 80 34 00
        E 360 90 40 60
        E 120 80 40 00
        E 360 90 40 60
        E 120 80 40 00
        E 240 90 40 60
        E 120 80 40 00
        E 120 90 3c 60
        E 120 80 3c 00
        E 120 90 39 60
        E 120 80 39 00
        E 0 90 40 60
        E 120 80 40 00
        E 120 90 40 60
        E 120 80 40 00
        E 120 90 3c 60
        E 120 80 3c 00
        E 1080 90 3c 60
        E 120 80 3c 00
        E 120 90 3e 60
        E 120 80 3e 00
        E 120 90 3f 60
        E 120 80 3f 00
        E 120 90 40 60
        E 120 80 40 00
        E 360 90 40 60
        E 120 80 40 00
        E 240 90 40 60
        E 120 80 40 00
        E 120 90 3e 60
        E 120 80 3e 00
        E 240 90 3e 60
        E 120 80 3e 00
        E 120 90 40 60
        E 120 80 40 00
        E 120 90 3e 60
        E 120 80 3e 00
        E 120 90 3c 60
        E 120 80 3c 00
        E 120 90 3c 60
        E 120 80 3c 00
        E 0 90 3b 60
        E 120 80 3b 00
        E 120 90 3c 60
        E 120 80 3c 00
        E 240 90 39 60
        E 120 80 39 00
        E 120 90 3b 60
        E 120 80 3b 00
        E 120 90 3c 60
        E 120 80 3c 00
        E 120 90 3e 60
        E 120 80 3e 00
        E 360 90 3e 60
        E 120 80 3e 00
        E 240 90 3e 60
        E 120 80 3e 00
        E 120 90 3c 60
        E 120 80 3c 00
        E 240 90 3b 60
        E 120 80 3b 00
        E 120 90 39 60
        E 120 80 39 00
        E 360 90 3b 60
        E 120 80 3b 00
        E 120 90 3c 60
        E 120 80 3c 00
        E 120 90 3d 60
        E 120 80 3d 00
        E 120 90 3e 60
        E 120 80 3e 00
        E 480 90 37 60
        E 120 80 37 00
        E 240 90 34 60
        E 80 80 34 00
        E 80 90 33 60
        E 80 80 33 00
        E 0 90 34 60
        E 80 80 34 00
        E 80 90 3b 60
        E 80 80 3b 00
        E 0 90 38 60
        E 80 80 38 00
        E 80 90 34 60
        E 80 80 34 00
        E 0 90 40 60
        E 80 80 40 00
        E 80 90 3b 60
        E 80 80 3b 00
        E 0 90 3e 60
        E 80 80 3e 00
        E 80 90 3b 60
        E 80 80 3b 00
        E 0 90 39 60
        E 80 80 39 00
        E 80 90 3b 60
        E 80 80 3b 00
        E 0 90 38 60
        E 80 80 38 00
        E 80 90 35 60
        E 80 80 35 00
        E 0 90 34 60
        E 80 80 34 00
        E 80 90 3e 60
        E 80 80 3e 00
        E 0 90 3c 60
        E 80 80 3c 00
        E 80 90 3b 60
        E 80 80 3b 00
        E 0 90 3c 60
        E 80 80 3c 00
        E 80 90 3e 60
        E 80 80 3e 00
        E 0 90 40 60
        E 80 80 40 00
        E 80 90 3f 60
        E 80 80 3f 00
        E 0 90 40 60
        E 80 80 40 00
        E 80 90 39 60
        E 80 80 39 00
        E 0 90 38 60
        E 80 80 38 00
        E 80 90 40 60
        E 80 80 40 00
        E 0 90 3e 60
        E 80 80 3e 00
        E 80 90 3f 60
        E 80 80 3f 00
        E 0 90 39 60
        E 80 80 39 00
        E 80 90 34 60
        E 80 80 34 00
        E 0 90 37 60
        E 80 80 37 00
        E 80 90 36 60
        E 80 80 36 00
        E 0 90 35 60
        E 80 80 35 00
        E 80 90 34 60
        E 80 80 34 00
        E 0 90 35 60
        E 80 80 35 00
        E 80 90 39 60
        E 80 80 39 00
        E 0 90 40 60
        E 80 80 40 00
        E 80 90 32 60
        E 80 80 32 00
        E 0 90 39 60
        E 80 80 39 00
        E 80 90 38 60
        E 80 80 38 00
        E 0 90 37 60
        E 80 80 37 00
        E 80 90 40 60
        E 80 80 40 00
        E 0 90 37 60
        E 80 80 37 00
        E 80 90 36 60
        E 80 80 36 00
        E 0 90 35 60
        E 80 80 35 00
        E 80 90 3e 60
        E 80 80 3e 00
        E 0 90 39 60
        E 80 80 39 00
        E 80 90 3a 60
        E 80 80 3a 00
        E 0 90 3b 60
        E 80 80 3b 00
        E 80 90 3a 60
        E 80 80 3a 00
        E 0 90 3b 60
        E 80 80 3b 00
        E 80 90 39 60
        E 80 80 39 00
        E 0 90 37 60
        E 80 80 37 00
        E 80 90 35 60
        E 80 80 35 00
        E 0 90 39 60
        E 80 80 39 00
        E 80 90 3b 60
        E 80 80 3b 00
        E 0 90 37 60
        E 80 80 37 00
        E 80 90 35 60
        E 80 80 35 00
        E 0 90 3b 60
        E 80 80 3b 00
        E 80 90 39 60
        E 80 80 39 00
        E 0 90 35 60
        E 80 80 35 00
        E 80 90 3b 60
        E 80 80 3b 00
        E 0 90 39 60
        E 80 80 39 00
        E 80 90 37 60
        E 80 80 37 00
        E 0 90 40 60
        E 120 80 40 00
        E 360 90 40 60
        E 120 80 40 00
        E 240 90 40 60
        E 120 80 40 00
        E 120 90 3c 60
        E 120 80 3c 00
        E 120 90 39 60
        E 120 80 39 00
        E 0 90 37 60
        E 120 80 37 00
        E 360 90 3c 60
        E 120 80 3c 00
        E 360 90 3c 60
        E 120 80 3c 00
        E 240 90 3c 60
        E 120 80 3c 00
        E 120 90 39 60
        E 120 80 39 00
        E 120 90 36 60
        E 120 80 36 00
        E 0 90 34 60
        E 120 80 34 00
        E 360 90 40 60
        E 120 80 40 00
        E 360 90 40 60
        E 120 80 40 00
        E 240 90 40 60
        E 120 80 40 00
        E 120 90 3c 60
        E 120 80 3c 00
        E 120 90 39 60
        E 120 80 39 00
        E 0 90 40 60
        E 120 80 40 00
        E 120 90 40 60
        E 120 80 40 00
        E 120 90 3c 60
        E 120 80 3c 00
        E 1800 90 40 60
        E 120 80 40 00
        E 360 90 40 60
        E 120 80 40 00
        E 240 90 40 60
        E 120 80 40 00
        E 120 90 3c 60
        E 120 80 3c 00
        E 120 90 39 60
        E 120 80 39 00
        E 0 90 37 60
        E 120 80 37 00
        E 360 90 3c 60
        E 120 80 3c 00
        E 360 90 3c 60
        E 120 80 3c 00
        E 240 90 3c 60
        E 120 80 3c 00
        E 120 90 39 60
        E 120 80 39 00
        E 120 90 36 60
        E 120 80 36 00
        E 0 90 34 60
        E 120 80 34 00
        E 360 90 40 60
        E 120 80 40 00
        E 360 90 40 60
        E 120 80 40 00
        E 240 90 40 60
        E 120 80 40 00
        E 120 90 3c 60
        E 120 80 3c 00
        E 120 90 39 60
        E 120 80 39 00
        E 0 90 40 60
        E 120 80 40 00
        E 120 90 40 60
        E 120 80 40 00
        E 120 90 3c 60
        E 120 80 3c 00
        E 1080 90 3c 60
        E 120 80 3c 00
        E 120 90 3e 60
        E 120 80 3e 00
        E 120 90 3f 60
        E 120 80 3f 00
        E 120 90 40 60
        E 120 80 40 00
        E 360 90 40 60
        E 120 80 40 00
        E 240 90 40 60
        E 120 80 40 00
        E 120 90 3e 60
        E 120 80 3e 00
        E 240 90 3e 60
        E 120 80 3e 00
        E 120 90 40 60
        E 120 80 40 00
        E 120 90 3e 60
        E 120 80 3e 00
        E 120 90 3c 60
        E 120 80 3c 00
        E 120 90 3c 60
        E 120 80 3c 00
        E 0 90 3b 60
        E 120 80 3b 00
        E 120 90 3c 60
        E 120 80 3c 00
        E 240 90 39 60
        E 120 80 39 00
        E 120 90 3b 60
        E 120 80 3b 00
        E 120 90 3c 60
        E 120 80 3c 00
        E 120 90 3e 60
        E 120 80 3e 00
        E 360 90 3e 60
        E 120 80 3e 00
        E 240 90 3e 60
        E 120 80 3e 00
        E 120 90 3c 60
        E 120 80 3c 00
        E 240 90 3b 60
        E 120 80 3b 00
        E 120 90 39 60
        E 120 80 39 00
        E 360 90 3b 60
        E 120 80 3b 00
        E 120 90 3c 60
        E 120 80 3c 00
        E 120 90 3d 60
        E 120 80 3d 00
        E 120 90 3e 60
        E 120 80 3e 00
        E 480 90 37 60
        E 120 80 37 00
        E 240 90 34 60
        E 80 80 34 00
        E 80 90 33 60
        E 80 80 33 00
        E 0 90 34 60
        E 80 80 34 00
        E 80 90 3b 60
        E 80 80 3b 00
        E 0 90 38 60
        E 80 80 38 00
        E 80 90 34 60
        E 80 80 34 00
        E 0 90 40 60
        E 80 80 40 00
        E 80 90 3b 60
        E 80 80 3b 00
        E 0 90 3e 60
        E 80 80 3e 00
        E 80 90 3b 60
        E 80 80 3b 00
        E 0 90 39 60
        E 80 80 39 00
        E 80 90 3b 60
        E 80 80 3b 00
        E 0 90 38 60
        E 80 80 38 00
        E 80 90 35 60
        E 80 80 35 00
        E 0 90 34 60
        E 80 80 34 00
        E 80 90 3e 60
        E 80 80 3e 00
        E 0 90 3c 60
        E 80 80 3c 00
        E 80 90 3b 60
        E 80 80 3b 00
        E 0 90 3c 60
        E 80 80 3c 00
        E 80 90 3e 60
        E 80 80 3e 00
        E 0 90 40 60
        E 80 80 40 00
        E 80 90 3f 60
        E 80 80 3f 00
        E 0 90 40 60
        E 80 80 40 00
        E 80 90 39 60
        E 80 80 39 00
        E 0 90 38 60
        E 80 80 38 00
        E 80 90 40 60
        E 80 80 40 00
        E 0 90 3e 60
        E 80 80 3e 00
        E 80 90 3f 60
        E 80 80 3f 00
        E 0 90 39 60
        E 80 80 39 00
        E 80 90 34 60
        E 80 80 34 00
        E 0 90 37 60
        E 80 80 37 00
        E 80 90 36 60
        E 80 80 36 00
        E 0 90 35 60
        E 80 80 35 00
        E 80 90 34 60
        E 80 80 34 00
        E 0 90 35 60
        E 80 80 35 00
        E 80 90 39 60
        E 80 80 39 00
        E 0 90 40 60
        E 80 80 40 00
        E 80 90 32 60
        E 80 80 32 00
        E 0 90 39 60
        E 80 80 39 00
        E 80 90 38 60
        E 80 80 38 00
        E 0 90 37 60
        E 80 80 37 00
        E 80 90 40 60
        E 80 80 40 00
        E 0 90 37 60
        E 80 80 37 00
        E 80 90 36 60
        E 80 80 36 00
        E 0 90 35 60
        E 80 80 35 00
        E 80 90 3e 60
        E 80 80 3e 00
        E 0 90 39 60
        E 80 80 39 00
        E 80 90 3a 60
        E 80 80 3a 00
        E 0 90 3b 60
        E 80 80 3b 00
        E 80 90 3a 60
        E 80 80 3a 00
        E 0 90 3b 60
        E 80 80 3b 00
        E 80 90 39 60
        E 80 80 39 00
        E 0 90 37 60
        E 80 80 37 00
        E 80 90 35 60
        E 80 80 35 00
        E 0 90 39 60
        E 80 80 39 00
        E 80 90 3b 60
        E 80 80 3b 00
        E 0 90 37 60
        E 80 80 37 00
        E 80 90 35 60
        E 80 80 35 00
        E 0 90 3b 60
        E 80 80 3b 00
        E 80 90 39 60
        E 80 80 39 00
        E 0 90 35 60
        E 80 80 35 00
        E 80 90 3b 60
        E 80 80 3b 00
        E 0 90 39 60
        E 80 80 39 00
        E 80 90 37 60
        E 80 80 37 00
        E 0 90 40 60
        E 120 80 40 00
        E 360 90 40 60
        E 120 80 40 00
        E 240 90 40 60
        E 120 80 40 00
        E 120 90 3c 60
        E 120 80 3c 00
        E 120 90 39 60
        E 120 80 39 00
        E 0 90 37 60
        E 120 80 37 00
        E 360 90 3c 60
        E 120 80 3c 00
        E 360 90 3c 60
        E 120 80 3c 00
        E 240 90 3c 60
        E 120 80 3c 00
        E 120 90 39 60
        E 120 80 39 00
        E 120 90 36 60
        E 120 80 36 00
        E 0 90 34 60
        E 120 80 34 00
        E 360 90 40 60
        E 120 80 40 00
        E 360 90 40 60
        E 120 80 40 00
        E 240 90 40 60
        E 120 80 40 00
        E 120 90 3c 60
        E 120 80 3c 00
        E 120 90 39 60
        E 120 80 39 00
        E 0 90 40 60
        E 120 80 40 00
        E 120 90 40 60
        E 120 80 40 00
        E 120 90 3c 60
        E 120 80 3c 00
        E 1800 90 40 60
        E 120 80 40 00
        E 360 90 40 60
        E 120 80 40 00
        E 240 90 40 60
        E 120 80 40 00
        E 120 90 3c 60
        E 120 80 3c 00
        E 120 90 39 60
        E 120 80 39 00
        E 0 90 37 60
        E 120 80 37 00
        E 360 90 3c 60
        E 120 80 3c 00
        E 360 90 3c 60
        E 120 80 3c 00
        E 240 90 3c 60
        E 120 80 3c 00
        E 120 90 39 60
        E 120 80 39 00
        E 120 90 36 60
        E 120 80 36 00
        E 0 90 34 60
        E 120 80 34 00
        E 360 90 40 60
        E 120 80 40 00
        E 360 90 40 60
        E 120 80 40 00
        E 240 90 40 60
        E 120 80 40 00
        E 120 90 3c 60
        E 120 80 3c 00
        E 120 90 39 60
        E 120 80 39 00
        E 0 90 40 60
        E 120 80 40 00
        E 120 90 40 60
        E 120 80 40 00
        E 120 90 3c 60
        E 120 80 3c 00
        E 1800 b0 7b 00
        GUID {8FC4BFAD-1E6D-434C-8EE9-5930B305EF2E}
        IGNTEMPO 0 120.00000000 4 4
        SRCCOLOR 11
        VELLANE 132 128 60
        COLORMAP "C:\Program Files\REAPER (x64)\Data\color_maps\rockband_guitarbass.png"
        CFGEDITVIEW -6761.581848 12.955548 8 22 0 0 0
        CFGEDIT 1 1 0 1 1 0 1 1 1 1 1 0.25000000 -8 -8 1544 872 0 2 1 1 0.00000000 0 1 0 0 0.500000 0 0 1.000000 64
        KEYSNAP 0 6 "102030050700" 0 "Pentatonic"
        EVTFILTER 0 -1 -1 -1 -1 0 1 0 0 -1.00000000 -1.00000000
      >
    >
  >
  <TRACK '{B5BE1AE7-7A36-4274-9BF3-AD9519AA0851}'
    NAME "keys"
    PEAKCOL 16576
    BEAT -1
    AUTOMODE 0
    VOLPAN 1.00000000000000 0.00000000000000 -1.00000000000000 -1.00000000000000 1.00000000000000
    MUTESOLO 0 0 0
    IPHASE 0
    ISBUS 2 -1
    BUSCOMP 0 0
    SHOWINMIX 1 0.666700 0.500000 1 0.500000 -1 -1 -1
    FREEMODE 0
    SEL 0
    REC 0 0 0 0 0 0 0
    VU 2
    TRACKHEIGHT 0 0
    INQ 0 0 0 0.5000000000 100 0 0 100
    NCHAN 2
    FX 1
    TRACKID {B5BE1AE7-7A36-4274-9BF3-AD9519AA0851}
    PERF 0
    MIDIOUT -1
    MAINSEND 1 0
    <ITEM
      POSITION 0.00000000000000
      SNAPOFFS 0.00000000000000
      LENGTH 96.00000000000000
      LOOP 0
      ALLTAKES 0
      SEL 0
      FADEIN 1 0.000000 0.000000 1 0
      FADEOUT 1 0.000000 0.000000 1 0
      MUTE 0
      IGUID {5D32F01F-3B24-40AC-88A9-38F2C758DA96}
      IID 18
      NAME "keys.wav"
      VOLPAN 1.000000 0.000000 1.000000 -1.000000
      SOFFS 0.00000000000000
      PLAYRATE 1.00000000000000 1 0.00000000000000 -1
      CHANMODE 0
      GUID {CB66F110-7EFB-4681-9D92-A68673E64C75}
      <SOURCE WAVE
        FILE "wav\keys.wav"
      >
    >
  >
  <TRACK '{960E6E12-CF37-4E92-ACC1-C269B4A98F57}'
    NAME "PART REAL_BASS"
    PEAKCOL 16576
    BEAT -1
    AUTOMODE 0
    VOLPAN 1.00000000000000 0.00000000000000 -1.00000000000000 -1.00000000000000 1.00000000000000
    MUTESOLO 0 0 0
    IPHASE 0
    ISBUS 0 0
    BUSCOMP 0 0
    SHOWINMIX 1 0.666700 0.500000 1 0.500000 -1 -1 -1
    FREEMODE 0
    SEL 0
    REC 0 0 0 0 0 0 0
    VU 2
    TRACKHEIGHT 0 0
    INQ 0 0 0 0.5000000000 100 0 0 100
    NCHAN 2
    FX 0
    TRACKID {960E6E12-CF37-4E92-ACC1-C269B4A98F57}
    PERF 0
    MIDIOUT -1
    <MIDINOTENAMES
      0 127 "Trill Marker"
      0 126 "Tremolo Marker"
      0 125 "BRE"
      0 124 "BRE"
      0 123 "BRE"
      0 122 "BRE"
      0 121 "BRE"
      0 120 "BRE (use all 6)"
      0 119 "-----------"
      0 116 "OVERDRIVE"
      0 115 "Solo Marker"
      0 109 "-----------"
      0 108 "Fret Hand Position"
      0 107 "Force Chord Numbering"
      0 106 "Loose Strumming"
      0 105 "Strum Direction"
      0 104 "Arpeggio Marker"
      0 103 "Slide Marker"
      0 102 "Force HOPO"
      0 101 "EXPERT e String"
      0 100 "EXPERT B String"
      0 99 "EXPERT G String"
      0 98 "EXPERT D String"
      0 97 "EXPERT A String"
      0 96 "EXPERT E String"
      0 95 "-----------"
      0 82 "Loose Strumming"
      0 81 "Strum Direction"
      0 80 "Arpeggio Marker"
      0 79 "Slide Marker"
      0 78 "Force HOPO"
      0 77 "HARD e String"
      0 76 "HARD B String"
      0 75 "HARD G String"
      0 74 "HARD D String"
      0 73 "HARD A String"
      0 72 "HARD E String"
      0 71 "-----------"
      0 58 "Loose Strumming"
      0 56 "Arpeggio Marker"
      0 55 "Slide Marker"
      0 53 "MEDIUM e String"
      0 52 "MEDIUM B String"
      0 51 "MEDIUM G String"
      0 50 "MEDIUM D String"
      0 49 "MEDIUM A String"
      0 48 "MEDIUM E String"
      0 47 "-----------"
      0 32 "Arpeggio Marker"
      0 31 "Slide Marker"
      0 29 "EASY e String"
      0 28 "EASY B String"
      0 27 "EASY G String"
      0 26 "EASY D String"
      0 25 "EASY A String"
      0 24 "EASY E String"
      0 21 "-----------"
      0 18 "Flat/Sharp Swap"
      0 17 "Hide Chord Names"
      0 16 "Slash Chord"
      0 15 "D#"
      0 14 "D"
      0 13 "C#"
      0 12 "C"
      0 11 "B"
      0 10 "A#"
      0 9 "A"
      0 8 "G#"
      0 7 "G"
      0 6 "F#"
      0 5 "F"
      0 4 "E"
    >
    MAINSEND 1 0
    <FXCHAIN
      WNDRECT 0 43 655 467
      SHOW 0
      LASTSEL 2
      DOCKED 0
      BYPASS 0 0
      <JS "c3/progtr" ""
        0.000000 3.000000 0.000000 0.000000 0.000000 0.000000 0.000000 0.000000 0.000000 1.000000 - - - - - - - - - - - - - - - - - - - - - - - - - - - - - - - - - - - - - - - - - - - - - - - - - - - - - - 
      >
      FLOATPOS 0 0 0 0
      FXID {B6EACC42-037F-4082-88DC-BE7F6643402D}
      WAK 0
      BYPASS 0 0
      <JS "MIDI/midi_transpose" ""
        -12.000000 1.000000 0.000000 127.000000 - - - - - - - - - - - - - - - - - - - - - - - - - - - - - - - - - - - - - - - - - - - - - - - - - - - - - - - - - - - - 
      >
      FLOATPOS 0 0 0 0
      FXID {7CC988D8-A0B9-4114-949F-D1E57DAD9491}
      WAK 0
      BYPASS 0 0
      <VST "VSTi: ReaSynth (Cockos)" "reasynth.dll" 0 ""
        eXNlcu9e7f4AAAAAAgAAAAEAAAAAAAAAAgAAAAAAAAA4AAAAAAAAAA==
        AAAQAO++rd4N8K3eppvEO+gJMjwAAAAAAAAAAAAAgD8AAIA/4jAEPA==
        AAAAAAAAAD+01hM+j8L1PQAAAD8AABAAAAA=
      >
      FLOATPOS 0 0 0 0
      FXID {E6A60E57-7141-42DB-ACD8-F73E13342B0E}
      WAK 0
    >
    <ITEM
      POSITION 0.00000000000000
      SNAPOFFS 0.00000000000000
      LENGTH 96.00000000000000
      LOOP 0
      ALLTAKES 0
      SEL 0
      FADEIN 1 0.000000 0.000000 1 0
      FADEOUT 1 0.000000 0.000000 1 0
      MUTE 0
      IGUID {34612F54-2C31-48A4-815A-851B4A116E8D}
      IID 10
      NAME "PART REAL_BASS"
      VOLPAN 1.000000 0.000000 1.000000 -1.000000
      SOFFS 0.00000000000000 0.00000000000000
      PLAYRATE 1.00000000000000 1 0.00000000000000 -1
      CHANMODE 0
      GUID {C090550D-A394-47BB-BF4C-DE684F6D61B6}
      <SOURCE MIDI
        HASDATA 1 480 QN
        POOLEDEVTS {2DE30F8C-9B49-4FF8-88B6-D964AC261778}
        <X 0 0
          /wNQQVJUIFJFQUxfQkFTUw==
        >
        <X 3840 0
          /wFbYmVnaW5fcGIgc29uZ190cmFpbmVyX3BiXzFd
        >
        E 0 90 1b 69
        E 0 90 33 69
        E 0 90 4b 69
        E 0 90 63 69
        E 0 90 6c 68
        E 0 90 74 60
        E 80 80 1b 00
        E 0 80 33 00
        E 0 80 4b 00
        E 0 80 63 00
        E 40 80 6c 00
        E 40 90 63 69
        E 80 80 63 00
        E 160 90 4b 69
        E 0 90 63 69
        E 80 80 4b 00
        E 0 80 63 00
        E 160 90 33 69
        E 0 90 4b 69
        E 0 90 63 69
        E 80 80 33 00
        E 0 80 4b 00
        E 0 80 63 00
        E 160 90 4b 69
        E 0 90 63 69
        E 80 80 4b 00
        E 0 80 63 00
        E 160 90 1b 69
        E 0 90 33 69
        E 0 90 4b 69
        E 0 90 63 69
        E 80 80 1b 00
        E 0 80 33 00
        E 0 80 4b 00
        E 0 80 63 00
        E 160 90 4b 69
        E 0 90 63 69
        E 80 80 4b 00
        E 0 80 63 00
        E 160 90 33 69
        E 0 90 4b 69
        E 0 90 63 69
        E 80 80 33 00
        E 0 80 4b 00
        E 0 80 63 00
        E 160 90 4b 69
        E 0 90 63 69
        E 80 80 4b 00
        E 0 80 63 00
        E 160 90 1b 69
        E 0 90 33 69
        E 0 90 4b 69
        E 0 90 63 69
        E 80 80 1b 00
        E 0 80 33 00
        E 0 80 4b 00
        E 0 80 63 00
        E 160 90 4b 69
        E 0 90 63 69
        E 80 80 4b 00
        E 0 80 63 00
        E 160 90 33 69
        E 0 90 4b 69
        E 0 90 63 69
        E 80 80 33 00
        E 0 80 4b 00
        E 0 80 63 00
        E 160 90 4b 69
        E 0 90 63 69
        E 80 80 4b 00
        E 0 80 63 00
        E 0 90 63 64
        E 120 80 63 00
        E 360 90 33 68
        E 0 90 4b 68
        E 0 90 63 68
        E 120 80 33 00
        E 0 80 4b 00
        E 0 80 63 00
        <X 360 0
          /wFbZW5kX3BiIHNvbmdfdHJhaW5lcl9wYl8xXQ==
        >
        <X 0 0
          /wFbYmVnaW5fcGIgc29uZ190cmFpbmVyX3BiXzJd
        >
        E 0 80 74 00
        E 0 90 19 67
        E 0 90 31 67
        E 0 90 49 67
        E 0 90 61 67
        E 0 90 6c 67
        E 120 80 19 00
        E 0 80 31 00
        E 0 80 49 00
        E 0 80 61 00
        E 0 80 6c 00
        E 360 90 19 67
        E 0 90 31 67
        E 0 90 49 67
        E 0 90 61 67
        E 120 80 19 00
        E 0 80 31 00
        E 0 80 49 00
        E 0 80 61 00
        E 360 90 19 67
        E 0 90 31 67
        E 0 90 49 67
        E 0 90 61 67
        E 120 80 19 00
        E 0 80 31 00
        E 0 80 49 00
        E 0 80 61 00
        E 360 90 31 67
        E 0 90 49 67
        E 0 90 61 67
        E 120 80 31 00
        E 0 80 49 00
        E 0 80 61 00
        <X 360 0
          /wFbcGJfbm9ybSBzb25nX3RyYWluZXJfcGJfMl0=
        >
        E 0 90 19 69
        E 0 90 31 69
        E 0 90 49 69
        E 0 90 61 69
        E 120 80 19 00
        E 0 80 31 00
        E 0 80 49 00
        E 0 80 61 00
        E 360 90 19 69
        E 0 90 31 69
        E 0 90 49 69
        E 0 90 61 69
        E 120 80 19 00
        E 0 80 31 00
        E 0 80 49 00
        E 0 80 61 00
        E 360 90 19 69
        E 0 90 31 69
        E 0 90 49 69
        E 0 90 61 69
        E 120 80 19 00
        E 0 80 31 00
        E 0 80 49 00
        E 0 80 61 00
        E 360 90 31 69
        E 0 90 49 69
        E 0 90 61 69
        E 120 80 31 00
        E 0 80 49 00
        E 0 80 61 00
        E 360 90 1a 69
        E 0 90 32 69
        E 0 90 4a 69
        E 0 90 62 69
        E 120 80 1a 00
        E 0 80 32 00
        E 0 80 4a 00
        E 0 80 62 00
        E 360 90 1a 69
        E 0 90 32 69
        E 0 90 4a 69
        E 0 90 62 69
        E 120 80 1a 00
        E 0 80 32 00
        E 0 80 4a 00
        E 0 80 62 00
        E 360 90 1a 69
        E 0 90 32 69
        E 0 90 4a 69
        E 0 90 62 69
        E 120 80 1a 00
        E 0 80 32 00
        E 0 80 4a 00
        E 0 80 62 00
        E 360 90 32 69
        E 0 90 4a 69
        E 0 90 62 69
        E 120 80 32 00
        E 0 80 4a 00
        E 0 80 62 00
        E 360 90 19 67
        E 0 90 31 67
        E 0 90 49 67
        E 0 90 61 67
        E 120 80 19 00
        E 0 80 31 00
        E 0 80 49 00
        E 0 80 61 00
        <X 1800 0
          /wFbZW5kX3BiIHNvbmdfdHJhaW5lcl9wYl8yXQ==
        >
        E 0 90 19 67
        E 0 90 31 67
        E 0 90 49 67
        E 0 90 61 67
        E 0 90 74 60
        E 120 80 19 00
        E 0 80 31 00
        E 0 80 49 00
        E 0 80 61 00
        E 360 90 19 67
        E 0 90 31 67
        E 0 90 49 67
        E 0 90 61 67
        E 120 80 19 00
        E 0 80 31 00
        E 0 80 49 00
        E 0 80 61 00
        E 360 90 19 67
        E 0 90 31 67
        E 0 90 49 67
        E 0 90 61 67
        E 120 80 19 00
        E 0 80 31 00
        E 0 80 49 00
        E 0 80 61 00
        E 360 90 31 67
        E 0 90 49 67
        E 0 90 61 67
        E 120 80 31 00
        E 0 80 49 00
        E 0 80 61 00
        E 360 80 74 00
        E 0 90 19 69
        E 0 90 31 69
        E 0 90 49 69
        E 0 90 61 69
        E 120 80 19 00
        E 0 80 31 00
        E 0 80 49 00
        E 0 80 61 00
        E 360 90 19 69
        E 0 90 31 69
        E 0 90 49 69
        E 0 90 61 69
        E 120 80 19 00
        E 0 80 31 00
        E 0 80 49 00
        E 0 80 61 00
        E 360 90 19 69
        E 0 90 31 69
        E 0 90 49 69
        E 0 90 61 69
        E 120 80 19 00
        E 0 80 31 00
        E 0 80 49 00
        E 0 80 61 00
        E 360 90 31 69
        E 0 90 49 69
        E 0 90 61 69
        E 120 80 31 00
        E 0 80 49 00
        E 0 80 61 00
        E 360 90 1a 69
        E 0 90 32 69
        E 0 90 4a 69
        E 0 90 62 69
        E 120 80 1a 00
        E 0 80 32 00
        E 0 80 4a 00
        E 0 80 62 00
        E 360 90 1a 69
        E 0 90 32 69
        E 0 90 4a 69
        E 0 90 62 69
        E 120 80 1a 00
        E 0 80 32 00
        E 0 80 4a 00
        E 0 80 62 00
        E 360 90 1a 69
        E 0 90 32 69
        E 0 90 4a 69
        E 0 90 62 69
        E 120 80 1a 00
        E 0 80 32 00
        E 0 80 4a 00
        E 0 80 62 00
        E 360 90 32 69
        E 0 90 4a 69
        E 0 90 62 69
        E 120 80 32 00
        E 0 80 4a 00
        E 0 80 62 00
        E 360 90 19 67
        E 0 90 31 67
        E 0 90 49 67
        E 0 90 61 67
        E 120 80 19 00
        E 0 80 31 00
        E 0 80 49 00
        E 0 80 61 00
        <X 1800 0
          /wFbYmVnaW5fcGIgc29uZ190cmFpbmVyX3BiXzNd
        >
        E 0 90 1a 66
        E 0 90 32 66
        E 0 90 4a 66
        E 0 90 62 66
        E 0 90 6c 66
        E 120 80 1a 00
        E 0 80 32 00
        E 0 80 4a 00
        E 0 80 62 00
        E 0 80 6c 00
        E 360 90 32 68
        E 0 90 4a 68
        E 0 90 62 68
        E 120 80 32 00
        E 0 80 4a 00
        E 0 80 62 00
        E 360 90 1b 64
        E 0 90 33 64
        E 0 90 4b 64
        E 0 90 63 64
        E 0 90 6c 65
        E 120 80 1b 00
        E 0 80 33 00
        E 0 80 4b 00
        E 0 80 63 00
        E 0 80 6c 00
        E 360 90 33 65
        E 0 90 4b 65
        E 0 90 63 65
        E 120 80 33 00
        E 0 80 4b 00
        E 0 80 63 00
        E 120 90 4b 68
        E 0 90 63 68
        E 120 80 4b 00
        E 0 80 63 00
        <X 120 0
          /wFbcGJfbm9ybSBzb25nX3RyYWluZXJfcGJfM10=
        >
        E 0 90 1b 66
        E 0 90 33 66
        E 0 90 4b 66
        E 0 90 63 66
        E 120 80 1b 00
        E 0 80 33 00
        E 0 80 4b 00
        E 0 80 63 00
        E 360 90 33 68
        E 0 90 4b 68
        E 0 90 63 68
        E 120 80 33 00
        E 0 80 4b 00
        E 0 80 63 00
        E 360 90 1c 65
        E 0 90 34 65
        E 0 90 4c 65
        E 0 90 64 65
        E 120 80 1c 00
        E 0 80 34 00
        E 0 80 4c 00
        E 0 80 64 00
        E 360 90 34 64
        E 0 90 4c 64
        E 0 90 64 64
        E 0 90 6c 66
        E 120 80 34 00
        E 0 80 4c 00
        E 0 80 64 00
        E 0 80 6c 00
        E 120 90 4b 66
        E 0 90 63 66
        E 120 80 4b 00
        E 0 80 63 00
        E 120 90 1a 64
        E 0 90 32 64
        E 0 90 4a 64
        E 0 90 62 64
        E 120 80 1a 00
        E 0 80 32 00
        E 0 80 4a 00
        E 0 80 62 00
        E 360 90 32 66
        E 0 90 4a 66
        E 0 90 62 66
        E 120 80 32 00
        E 0 80 4a 00
        E 0 80 62 00
        E 360 90 1a 67
        E 0 90 32 67
        E 0 90 4a 67
        E 0 90 62 67
        E 120 80 1a 00
        E 0 80 32 00
        E 0 80 4a 00
        E 0 80 62 00
        E 360 90 32 68
        E 0 90 4a 68
        E 0 90 62 68
        E 120 80 32 00
        E 0 80 4a 00
        E 0 80 62 00
        E 120 90 4b 66
        E 0 90 63 66
        E 120 80 4b 00
        E 0 80 63 00
        E 360 90 4b 64
        E 0 90 63 64
        E 120 80 4b 00
        E 0 80 63 00
        E 120 90 33 66
        E 0 90 4b 66
        E 0 90 63 66
        E 120 80 33 00
        E 0 80 4b 00
        E 0 80 63 00
        E 120 90 4b 67
        E 0 90 63 67
        E 120 80 4b 00
        E 0 80 63 00
        E 120 90 1b 68
        E 0 90 33 68
        E 0 90 4b 68
        E 0 90 63 68
        E 120 80 1b 00
        E 0 80 33 00
        E 0 80 4b 00
        E 0 80 63 00
        <X 840 0
          /wFbZW5kX3BiIHNvbmdfdHJhaW5lcl9wYl8zXQ==
        >
        E 0 90 1a 66
        E 0 90 32 66
        E 0 90 4a 66
        E 0 90 62 66
        E 120 80 1a 00
        E 0 80 32 00
        E 0 80 4a 00
        E 0 80 62 00
        E 360 90 32 68
        E 0 90 4a 68
        E 0 90 62 68
        E 120 80 32 00
        E 0 80 4a 00
        E 0 80 62 00
        E 360 90 1b 64
        E 0 90 33 64
        E 0 90 4b 64
        E 0 90 63 64
        E 0 90 6c 65
        E 120 80 1b 00
        E 0 80 33 00
        E 0 80 4b 00
        E 0 80 63 00
        E 0 80 6c 00
        E 360 90 33 65
        E 0 90 4b 65
        E 0 90 63 65
        E 120 80 33 00
        E 0 80 4b 00
        E 0 80 63 00
        E 120 90 4b 68
        E 0 90 63 68
        E 120 80 4b 00
        E 0 80 63 00
        E 120 90 1b 66
        E 0 90 33 66
        E 0 90 4b 66
        E 0 90 63 66
        E 120 80 1b 00
        E 0 80 33 00
        E 0 80 4b 00
        E 0 80 63 00
        E 360 90 33 68
        E 0 90 4b 68
        E 0 90 63 68
        E 120 80 33 00
        E 0 80 4b 00
        E 0 80 63 00
        E 360 90 1c 65
        E 0 90 34 65
        E 0 90 4c 65
        E 0 90 64 65
        E 120 80 1c 00
        E 0 80 34 00
        E 0 80 4c 00
        E 0 80 64 00
        E 360 90 34 64
        E 0 90 4c 64
        E 0 90 64 64
        E 0 90 6c 66
        E 120 80 34 00
        E 0 80 4c 00
        E 0 80 64 00
        E 0 80 6c 00
        E 120 90 4b 66
        E 0 90 63 66
        E 120 80 4b 00
        E 0 80 63 00
        E 120 90 1a 64
        E 0 90 32 64
        E 0 90 4a 64
        E 0 90 62 64
        E 120 80 1a 00
        E 0 80 32 00
        E 0 80 4a 00
        E 0 80 62 00
        E 360 90 32 66
        E 0 90 4a 66
        E 0 90 62 66
        E 120 80 32 00
        E 0 80 4a 00
        E 0 80 62 00
        E 360 90 1a 67
        E 0 90 32 67
        E 0 90 4a 67
        E 0 90 62 67
        E 120 80 1a 00
        E 0 80 32 00
        E 0 80 4a 00
        E 0 80 62 00
        E 360 90 32 68
        E 0 90 4a 68
        E 0 90 62 68
        E 120 80 32 00
        E 0 80 4a 00
        E 0 80 62 00
        E 120 90 4b 66
        E 0 90 63 66
        E 120 80 4b 00
        E 0 80 63 00
        E 360 90 4b 64
        E 0 90 63 64
        E 120 80 4b 00
        E 0 80 63 00
        E 120 90 33 66
        E 0 90 4b 66
        E 0 90 63 66
        E 120 80 33 00
        E 0 80 4b 00
        E 0 80 63 00
        E 120 90 4b 67
        E 0 90 63 67
        E 120 80 4b 00
        E 0 80 63 00
        E 120 90 1b 68
        E 0 90 33 68
        E 0 90 4b 68
        E 0 90 63 68
        E 120 80 1b 00
        E 0 80 33 00
        E 0 80 4b 00
        E 0 80 63 00
        E 840 90 19 67
        E 0 90 31 67
        E 0 90 49 67
        E 0 90 61 67
        E 0 90 6c 67
        E 120 80 19 00
        E 0 80 31 00
        E 0 80 49 00
        E 0 80 61 00
        E 0 80 6c 00
        E 360 90 19 67
        E 0 90 31 67
        E 0 90 49 67
        E 0 90 61 67
        E 120 80 19 00
        E 0 80 31 00
        E 0 80 49 00
        E 0 80 61 00
        E 360 90 19 67
        E 0 90 31 67
        E 0 90 49 67
        E 0 90 61 67
        E 120 80 19 00
        E 0 80 31 00
        E 0 80 49 00
        E 0 80 61 00
        E 360 90 31 67
        E 0 90 49 67
        E 0 90 61 67
        E 120 80 31 00
        E 0 80 49 00
        E 0 80 61 00
        E 360 90 19 69
        E 0 90 31 69
        E 0 90 49 69
        E 0 90 61 69
        E 120 80 19 00
        E 0 80 31 00
        E 0 80 49 00
        E 0 80 61 00
        E 360 90 19 69
        E 0 90 31 69
        E 0 90 49 69
        E 0 90 61 69
        E 120 80 19 00
        E 0 80 31 00
        E 0 80 49 00
        E 0 80 61 00
        E 360 90 19 69
        E 0 90 31 69
        E 0 90 49 69
        E 0 90 61 69
        E 120 80 19 00
        E 0 80 31 00
        E 0 80 49 00
        E 0 80 61 00
        E 360 90 31 69
        E 0 90 49 69
        E 0 90 61 69
        E 120 80 31 00
        E 0 80 49 00
        E 0 80 61 00
        E 360 90 1a 69
        E 0 90 32 69
        E 0 90 4a 69
        E 0 90 62 69
        E 0 90 74 60
        E 120 80 1a 00
        E 0 80 32 00
        E 0 80 4a 00
        E 0 80 62 00
        E 360 90 1a 69
        E 0 90 32 69
        E 0 90 4a 69
        E 0 90 62 69
        E 120 80 1a 00
        E 0 80 32 00
        E 0 80 4a 00
        E 0 80 62 00
        E 360 90 1a 69
        E 0 90 32 69
        E 0 90 4a 69
        E 0 90 62 69
        E 120 80 1a 00
        E 0 80 32 00
        E 0 80 4a 00
        E 0 80 62 00
        E 360 90 32 69
        E 0 90 4a 69
        E 0 90 62 69
        E 120 80 32 00
        E 0 80 4a 00
        E 0 80 62 00
        E 360 90 19 67
        E 0 90 31 67
        E 0 90 49 67
        E 0 90 61 67
        E 120 80 19 00
        E 0 80 31 00
        E 0 80 49 00
        E 0 80 61 00
        E 840 80 74 00
        E 960 90 19 67
        E 0 90 31 67
        E 0 90 49 67
        E 0 90 61 67
        E 120 80 19 00
        E 0 80 31 00
        E 0 80 49 00
        E 0 80 61 00
        E 360 90 19 67
        E 0 90 31 67
        E 0 90 49 67
        E 0 90 61 67
        E 120 80 19 00
        E 0 80 31 00
        E 0 80 49 00
        E 0 80 61 00
        E 360 90 19 67
        E 0 90 31 67
        E 0 90 49 67
        E 0 90 61 67
        E 120 80 19 00
        E 0 80 31 00
        E 0 80 49 00
        E 0 80 61 00
        E 360 90 31 67
        E 0 90 49 67
        E 0 90 61 67
        E 120 80 31 00
        E 0 80 49 00
        E 0 80 61 00
        E 360 90 19 69
        E 0 90 31 69
        E 0 90 49 69
        E 0 90 61 69
        E 120 80 19 00
        E 0 80 31 00
        E 0 80 49 00
        E 0 80 61 00
        E 360 90 19 69
        E 0 90 31 69
        E 0 90 49 69
        E 0 90 61 69
        E 120 80 19 00
        E 0 80 31 00
        E 0 80 49 00
        E 0 80 61 00
        E 360 90 19 69
        E 0 90 31 69
        E 0 90 49 69
        E 0 90 61 69
        E 120 80 19 00
        E 0 80 31 00
        E 0 80 49 00
        E 0 80 61 00
        E 360 90 31 69
        E 0 90 49 69
        E 0 90 61 69
        E 120 80 31 00
        E 0 80 49 00
        E 0 80 61 00
        E 360 90 1a 69
        E 0 90 32 69
        E 0 90 4a 69
        E 0 90 62 69
        E 120 80 1a 00
        E 0 80 32 00
        E 0 80 4a 00
        E 0 80 62 00
        E 360 90 1a 69
        E 0 90 32 69
        E 0 90 4a 69
        E 0 90 62 69
        E 120 80 1a 00
        E 0 80 32 00
        E 0 80 4a 00
        E 0 80 62 00
        E 360 90 1a 69
        E 0 90 32 69
        E 0 90 4a 69
        E 0 90 62 69
        E 120 80 1a 00
        E 0 80 32 00
        E 0 80 4a 00
        E 0 80 62 00
        E 360 90 32 69
        E 0 90 4a 69
        E 0 90 62 69
        E 120 80 32 00
        E 0 80 4a 00
        E 0 80 62 00
        E 360 90 19 67
        E 0 90 31 67
        E 0 90 49 67
        E 0 90 61 67
        E 120 80 19 00
        E 0 80 31 00
        E 0 80 49 00
        E 0 80 61 00
        E 1800 90 1a 66
        E 0 90 32 66
        E 0 90 4a 66
        E 0 90 62 66
        E 0 90 6c 66
        E 120 80 1a 00
        E 0 80 32 00
        E 0 80 4a 00
        E 0 80 62 00
        E 0 80 6c 00
        E 360 90 32 68
        E 0 90 4a 68
        E 0 90 62 68
        E 120 80 32 00
        E 0 80 4a 00
        E 0 80 62 00
        E 360 90 1b 64
        E 0 90 33 64
        E 0 90 4b 64
        E 0 90 63 64
        E 0 90 6c 65
        E 120 80 1b 00
        E 0 80 33 00
        E 0 80 4b 00
        E 0 80 63 00
        E 0 80 6c 00
        E 360 90 33 65
        E 0 90 4b 65
        E 0 90 63 65
        E 120 80 33 00
        E 0 80 4b 00
        E 0 80 63 00
        E 120 90 4b 68
        E 0 90 63 68
        E 120 80 4b 00
        E 0 80 63 00
        E 120 90 1b 66
        E 0 90 33 66
        E 0 90 4b 66
        E 0 90 63 66
        E 120 80 1b 00
        E 0 80 33 00
        E 0 80 4b 00
        E 0 80 63 00
        E 360 90 33 68
        E 0 90 4b 68
        E 0 90 63 68
        E 120 80 33 00
        E 0 80 4b 00
        E 0 80 63 00
        E 360 90 1c 65
        E 0 90 34 65
        E 0 90 4c 65
        E 0 90 64 65
        E 120 80 1c 00
        E 0 80 34 00
        E 0 80 4c 00
        E 0 80 64 00
        E 360 90 34 64
        E 0 90 4c 64
        E 0 90 64 64
        E 0 90 6c 66
        E 120 80 34 00
        E 0 80 4c 00
        E 0 80 64 00
        E 0 80 6c 00
        E 120 90 4b 66
        E 0 90 63 66
        E 120 80 4b 00
        E 0 80 63 00
        E 120 90 1a 64
        E 0 90 32 64
        E 0 90 4a 64
        E 0 90 62 64
        E 120 80 1a 00
        E 0 80 32 00
        E 0 80 4a 00
        E 0 80 62 00
        E 360 90 32 66
        E 0 90 4a 66
        E 0 90 62 66
        E 120 80 32 00
        E 0 80 4a 00
        E 0 80 62 00
        E 360 90 1a 67
        E 0 90 32 67
        E 0 90 4a 67
        E 0 90 62 67
        E 120 80 1a 00
        E 0 80 32 00
        E 0 80 4a 00
        E 0 80 62 00
        E 360 90 32 68
        E 0 90 4a 68
        E 0 90 62 68
        E 120 80 32 00
        E 0 80 4a 00
        E 0 80 62 00
        E 120 90 4b 66
        E 0 90 63 66
        E 120 80 4b 00
        E 0 80 63 00
        E 360 90 4b 64
        E 0 90 63 64
        E 120 80 4b 00
        E 0 80 63 00
        E 120 90 33 66
        E 0 90 4b 66
        E 0 90 63 66
        E 120 80 33 00
        E 0 80 4b 00
        E 0 80 63 00
        E 120 90 4b 67
        E 0 90 63 67
        E 120 80 4b 00
        E 0 80 63 00
        E 120 90 1b 68
        E 0 90 33 68
        E 0 90 4b 68
        E 0 90 63 68
        E 120 80 1b 00
        E 0 80 33 00
        E 0 80 4b 00
        E 0 80 63 00
        E 840 90 1a 66
        E 0 90 32 66
        E 0 90 4a 66
        E 0 90 62 66
        E 0 90 74 60
        E 120 80 1a 00
        E 0 80 32 00
        E 0 80 4a 00
        E 0 80 62 00
        E 360 90 32 68
        E 0 90 4a 68
        E 0 90 62 68
        E 120 80 32 00
        E 0 80 4a 00
        E 0 80 62 00
        E 360 90 1b 64
        E 0 90 33 64
        E 0 90 4b 64
        E 0 90 63 64
        E 0 90 6c 65
        E 120 80 1b 00
        E 0 80 33 00
        E 0 80 4b 00
        E 0 80 63 00
        E 0 80 6c 00
        E 360 90 33 65
        E 0 90 4b 65
        E 0 90 63 65
        E 120 80 33 00
        E 0 80 4b 00
        E 0 80 63 00
        E 120 90 4b 68
        E 0 90 63 68
        E 120 80 4b 00
        E 0 80 63 00
        E 120 90 1b 66
        E 0 90 33 66
        E 0 90 4b 66
        E 0 90 63 66
        E 120 80 1b 00
        E 0 80 33 00
        E 0 80 4b 00
        E 0 80 63 00
        E 360 90 33 68
        E 0 90 4b 68
        E 0 90 63 68
        E 120 80 33 00
        E 0 80 4b 00
        E 0 80 63 00
        E 360 90 1c 65
        E 0 90 34 65
        E 0 90 4c 65
        E 0 90 64 65
        E 120 80 1c 00
        E 0 80 34 00
        E 0 80 4c 00
        E 0 80 64 00
        E 360 90 34 64
        E 0 90 4c 64
        E 0 90 64 64
        E 0 90 6c 66
        E 120 80 34 00
        E 0 80 4c 00
        E 0 80 64 00
        E 0 80 6c 00
        E 120 90 4b 66
        E 0 90 63 66
        E 120 80 4b 00
        E 0 80 63 00
        E 120 80 74 00
        E 0 90 1a 64
        E 0 90 32 64
        E 0 90 4a 64
        E 0 90 62 64
        E 120 80 1a 00
        E 0 80 32 00
        E 0 80 4a 00
        E 0 80 62 00
        E 360 90 32 66
        E 0 90 4a 66
        E 0 90 62 66
        E 120 80 32 00
        E 0 80 4a 00
        E 0 80 62 00
        E 360 90 1a 67
        E 0 90 32 67
        E 0 90 4a 67
        E 0 90 62 67
        E 120 80 1a 00
        E 0 80 32 00
        E 0 80 4a 00
        E 0 80 62 00
        E 360 90 32 68
        E 0 90 4a 68
        E 0 90 62 68
        E 120 80 32 00
        E 0 80 4a 00
        E 0 80 62 00
        E 120 90 4b 66
        E 0 90 63 66
        E 120 80 4b 00
        E 0 80 63 00
        E 360 90 4b 64
        E 0 90 63 64
        E 120 80 4b 00
        E 0 80 63 00
        E 120 90 33 66
        E 0 90 4b 66
        E 0 90 63 66
        E 120 80 33 00
        E 0 80 4b 00
        E 0 80 63 00
        E 120 90 4b 67
        E 0 90 63 67
        E 120 80 4b 00
        E 0 80 63 00
        E 120 90 1b 68
        E 0 90 33 68
        E 0 90 4b 68
        E 0 90 63 68
        E 120 80 1b 00
        E 0 80 33 00
        E 0 80 4b 00
        E 0 80 63 00
        E 840 90 19 67
        E 0 90 31 67
        E 0 90 49 67
        E 0 90 61 67
        E 0 90 6c 67
        E 120 80 19 00
        E 0 80 31 00
        E 0 80 49 00
        E 0 80 61 00
        E 0 80 6c 00
        E 360 90 19 67
        E 0 90 31 67
        E 0 90 49 67
        E 0 90 61 67
        E 120 80 19 00
        E 0 80 31 00
        E 0 80 49 00
        E 0 80 61 00
        E 360 90 19 67
        E 0 90 31 67
        E 0 90 49 67
        E 0 90 61 67
        E 120 80 19 00
        E 0 80 31 00
        E 0 80 49 00
        E 0 80 61 00
        E 360 90 31 67
        E 0 90 49 67
        E 0 90 61 67
        E 120 80 31 00
        E 0 80 49 00
        E 0 80 61 00
        E 360 90 19 69
        E 0 90 31 69
        E 0 90 49 69
        E 0 90 61 69
        E 120 80 19 00
        E 0 80 31 00
        E 0 80 49 00
        E 0 80 61 00
        E 360 90 19 69
        E 0 90 31 69
        E 0 90 49 69
        E 0 90 61 69
        E 120 80 19 00
        E 0 80 31 00
        E 0 80 49 00
        E 0 80 61 00
        E 360 90 19 69
        E 0 90 31 69
        E 0 90 49 69
        E 0 90 61 69
        E 120 80 19 00
        E 0 80 31 00
        E 0 80 49 00
        E 0 80 61 00
        E 360 90 31 69
        E 0 90 49 69
        E 0 90 61 69
        E 120 80 31 00
        E 0 80 49 00
        E 0 80 61 00
        E 360 90 1a 69
        E 0 90 32 69
        E 0 90 4a 69
        E 0 90 62 69
        E 120 80 1a 00
        E 0 80 32 00
        E 0 80 4a 00
        E 0 80 62 00
        E 360 90 1a 69
        E 0 90 32 69
        E 0 90 4a 69
        E 0 90 62 69
        E 120 80 1a 00
        E 0 80 32 00
        E 0 80 4a 00
        E 0 80 62 00
        E 360 90 1a 69
        E 0 90 32 69
        E 0 90 4a 69
        E 0 90 62 69
        E 120 80 1a 00
        E 0 80 32 00
        E 0 80 4a 00
        E 0 80 62 00
        E 360 90 32 69
        E 0 90 4a 69
        E 0 90 62 69
        E 120 80 32 00
        E 0 80 4a 00
        E 0 80 62 00
        E 360 90 19 67
        E 0 90 31 67
        E 0 90 49 67
        E 0 90 61 67
        E 120 80 19 00
        E 0 80 31 00
        E 0 80 49 00
        E 0 80 61 00
        E 1800 90 19 67
        E 0 90 31 67
        E 0 90 49 67
        E 0 90 61 67
        E 120 80 19 00
        E 0 80 31 00
        E 0 80 49 00
        E 0 80 61 00
        E 360 90 19 67
        E 0 90 31 67
        E 0 90 49 67
        E 0 90 61 67
        E 120 80 19 00
        E 0 80 31 00
        E 0 80 49 00
        E 0 80 61 00
        E 360 90 19 67
        E 0 90 31 67
        E 0 90 49 67
        E 0 90 61 67
        E 120 80 19 00
        E 0 80 31 00
        E 0 80 49 00
        E 0 80 61 00
        E 360 90 31 67
        E 0 90 49 67
        E 0 90 61 67
        E 120 80 31 00
        E 0 80 49 00
        E 0 80 61 00
        E 360 90 19 69
        E 0 90 31 69
        E 0 90 49 69
        E 0 90 61 69
        E 120 80 19 00
        E 0 80 31 00
        E 0 80 49 00
        E 0 80 61 00
        E 360 90 19 69
        E 0 90 31 69
        E 0 90 49 69
        E 0 90 61 69
        E 120 80 19 00
        E 0 80 31 00
        E 0 80 49 00
        E 0 80 61 00
        E 360 90 19 69
        E 0 90 31 69
        E 0 90 49 69
        E 0 90 61 69
        E 120 80 19 00
        E 0 80 31 00
        E 0 80 49 00
        E 0 80 61 00
        E 360 90 31 69
        E 0 90 49 69
        E 0 90 61 69
        E 120 80 31 00
        E 0 80 49 00
        E 0 80 61 00
        E 360 90 1a 69
        E 0 90 32 69
        E 0 90 4a 69
        E 0 90 62 69
        E 0 90 74 60
        E 120 80 1a 00
        E 0 80 32 00
        E 0 80 4a 00
        E 0 80 62 00
        E 360 90 1a 69
        E 0 90 32 69
        E 0 90 4a 69
        E 0 90 62 69
        E 120 80 1a 00
        E 0 80 32 00
        E 0 80 4a 00
        E 0 80 62 00
        E 360 90 1a 69
        E 0 90 32 69
        E 0 90 4a 69
        E 0 90 62 69
        E 120 80 1a 00
        E 0 80 32 00
        E 0 80 4a 00
        E 0 80 62 00
        E 360 90 32 69
        E 0 90 4a 69
        E 0 90 62 69
        E 120 80 32 00
        E 0 80 4a 00
        E 0 80 62 00
        E 360 90 19 67
        E 0 90 31 67
        E 0 90 49 67
        E 0 90 61 67
        E 120 80 74 00
        E 0 80 19 00
        E 0 80 31 00
        E 0 80 49 00
        E 0 80 61 00
        E 1800 90 1a 66
        E 0 90 32 66
        E 0 90 4a 66
        E 0 90 62 66
        E 0 90 6c 66
        E 120 80 1a 00
        E 0 80 32 00
        E 0 80 4a 00
        E 0 80 62 00
        E 0 80 6c 00
        E 360 90 32 68
        E 0 90 4a 68
        E 0 90 62 68
        E 120 80 32 00
        E 0 80 4a 00
        E 0 80 62 00
        E 360 90 1b 64
        E 0 90 33 64
        E 0 90 4b 64
        E 0 90 63 64
        E 0 90 6c 65
        E 120 80 1b 00
        E 0 80 33 00
        E 0 80 4b 00
        E 0 80 63 00
        E 0 80 6c 00
        E 360 90 33 65
        E 0 90 4b 65
        E 0 90 63 65
        E 120 80 33 00
        E 0 80 4b 00
        E 0 80 63 00
        E 120 90 4b 68
        E 0 90 63 68
        E 120 80 4b 00
        E 0 80 63 00
        E 120 90 1b 66
        E 0 90 33 66
        E 0 90 4b 66
        E 0 90 63 66
        E 120 80 1b 00
        E 0 80 33 00
        E 0 80 4b 00
        E 0 80 63 00
        E 360 90 33 68
        E 0 90 4b 68
        E 0 90 63 68
        E 120 80 33 00
        E 0 80 4b 00
        E 0 80 63 00
        E 360 90 1c 65
        E 0 90 34 65
        E 0 90 4c 65
        E 0 90 64 65
        E 120 80 1c 00
        E 0 80 34 00
        E 0 80 4c 00
        E 0 80 64 00
        E 360 90 34 64
        E 0 90 4c 64
        E 0 90 64 64
        E 0 90 6c 66
        E 120 80 34 00
        E 0 80 4c 00
        E 0 80 64 00
        E 0 80 6c 00
        E 120 90 4b 66
        E 0 90 63 66
        E 120 80 4b 00
        E 0 80 63 00
        E 120 90 1a 64
        E 0 90 32 64
        E 0 90 4a 64
        E 0 90 62 64
        E 120 80 1a 00
        E 0 80 32 00
        E 0 80 4a 00
        E 0 80 62 00
        E 360 90 32 66
        E 0 90 4a 66
        E 0 90 62 66
        E 120 80 32 00
        E 0 80 4a 00
        E 0 80 62 00
        E 360 90 1a 67
        E 0 90 32 67
        E 0 90 4a 67
        E 0 90 62 67
        E 120 80 1a 00
        E 0 80 32 00
        E 0 80 4a 00
        E 0 80 62 00
        E 360 90 32 68
        E 0 90 4a 68
        E 0 90 62 68
        E 120 80 32 00
        E 0 80 4a 00
        E 0 80 62 00
        E 120 90 4b 66
        E 0 90 63 66
        E 120 80 4b 00
        E 0 80 63 00
        E 360 90 4b 64
        E 0 90 63 64
        E 120 80 4b 00
        E 0 80 63 00
        E 120 90 33 66
        E 0 90 4b 66
        E 0 90 63 66
        E 120 80 33 00
        E 0 80 4b 00
        E 0 80 63 00
        E 120 90 4b 67
        E 0 90 63 67
        E 120 80 4b 00
        E 0 80 63 00
        E 120 90 1b 68
        E 0 90 33 68
        E 0 90 4b 68
        E 0 90 63 68
        E 120 80 1b 00
        E 0 80 33 00
        E 0 80 4b 00
        E 0 80 63 00
        E 840 90 1a 66
        E 0 90 32 66
        E 0 90 4a 66
        E 0 90 62 66
        E 0 90 74 60
        E 120 80 1a 00
        E 0 80 32 00
        E 0 80 4a 00
        E 0 80 62 00
        E 360 90 32 68
        E 0 90 4a 68
        E 0 90 62 68
        E 120 80 32 00
        E 0 80 4a 00
        E 0 80 62 00
        E 360 90 1b 64
        E 0 90 33 64
        E 0 90 4b 64
        E 0 90 63 64
        E 0 90 6c 65
        E 120 80 1b 00
        E 0 80 33 00
        E 0 80 4b 00
        E 0 80 63 00
        E 0 80 6c 00
        E 360 90 33 65
        E 0 90 4b 65
        E 0 90 63 65
        E 120 80 33 00
        E 0 80 4b 00
        E 0 80 63 00
        E 120 90 4b 68
        E 0 90 63 68
        E 120 80 4b 00
        E 0 80 63 00
        E 120 90 1b 66
        E 0 90 33 66
        E 0 90 4b 66
        E 0 90 63 66
        E 120 80 1b 00
        E 0 80 33 00
        E 0 80 4b 00
        E 0 80 63 00
        E 360 90 33 68
        E 0 90 4b 68
        E 0 90 63 68
        E 120 80 33 00
        E 0 80 4b 00
        E 0 80 63 00
        E 360 90 1c 65
        E 0 90 34 65
        E 0 90 4c 65
        E 0 90 64 65
        E 120 80 1c 00
        E 0 80 34 00
        E 0 80 4c 00
        E 0 80 64 00
        E 360 90 34 64
        E 0 90 4c 64
        E 0 90 64 64
        E 0 90 6c 66
        E 120 80 34 00
        E 0 80 4c 00
        E 0 80 64 00
        E 0 80 6c 00
        E 120 90 4b 66
        E 0 90 63 66
        E 120 80 4b 00
        E 0 80 63 00
        E 120 80 74 00
        E 0 90 1a 64
        E 0 90 32 64
        E 0 90 4a 64
        E 0 90 62 64
        E 120 80 1a 00
        E 0 80 32 00
        E 0 80 4a 00
        E 0 80 62 00
        E 360 90 32 66
        E 0 90 4a 66
        E 0 90 62 66
        E 120 80 32 00
        E 0 80 4a 00
        E 0 80 62 00
        E 360 90 1a 67
        E 0 90 32 67
        E 0 90 4a 67
        E 0 90 62 67
        E 120 80 1a 00
        E 0 80 32 00
        E 0 80 4a 00
        E 0 80 62 00
        E 360 90 32 68
        E 0 90 4a 68
        E 0 90 62 68
        E 120 80 32 00
        E 0 80 4a 00
        E 0 80 62 00
        E 120 90 4b 66
        E 0 90 63 66
        E 120 80 4b 00
        E 0 80 63 00
        E 360 90 4b 64
        E 0 90 63 64
        E 120 80 4b 00
        E 0 80 63 00
        E 120 90 33 66
        E 0 90 4b 66
        E 0 90 63 66
        E 120 80 33 00
        E 0 80 4b 00
        E 0 80 63 00
        E 120 90 4b 67
        E 0 90 63 67
        E 120 80 4b 00
        E 0 80 63 00
        E 120 90 1b 68
        E 0 90 33 68
        E 0 90 4b 68
        E 0 90 63 68
        E 120 80 1b 00
        E 0 80 33 00
        E 0 80 4b 00
        E 0 80 63 00
        E 840 90 19 67
        E 0 90 31 67
        E 0 90 49 67
        E 0 90 61 67
        E 0 90 6c 67
        E 120 80 19 00
        E 0 80 31 00
        E 0 80 49 00
        E 0 80 61 00
        E 0 80 6c 00
        E 360 90 19 67
        E 0 90 31 67
        E 0 90 49 67
        E 0 90 61 67
        E 120 80 19 00
        E 0 80 31 00
        E 0 80 49 00
        E 0 80 61 00
        E 360 90 19 67
        E 0 90 31 67
        E 0 90 49 67
        E 0 90 61 67
        E 120 80 19 00
        E 0 80 31 00
        E 0 80 49 00
        E 0 80 61 00
        E 360 90 31 67
        E 0 90 49 67
        E 0 90 61 67
        E 120 80 31 00
        E 0 80 49 00
        E 0 80 61 00
        E 360 90 19 69
        E 0 90 31 69
        E 0 90 49 69
        E 0 90 61 69
        E 120 80 19 00
        E 0 80 31 00
        E 0 80 49 00
        E 0 80 61 00
        E 360 90 19 69
        E 0 90 31 69
        E 0 90 49 69
        E 0 90 61 69
        E 120 80 19 00
        E 0 80 31 00
        E 0 80 49 00
        E 0 80 61 00
        E 360 90 19 69
        E 0 90 31 69
        E 0 90 49 69
        E 0 90 61 69
        E 120 80 19 00
        E 0 80 31 00
        E 0 80 49 00
        E 0 80 61 00
        E 360 90 31 69
        E 0 90 49 69
        E 0 90 61 69
        E 120 80 31 00
        E 0 80 49 00
        E 0 80 61 00
        E 360 90 1a 69
        E 0 90 32 69
        E 0 90 4a 69
        E 0 90 62 69
        E 120 80 1a 00
        E 0 80 32 00
        E 0 80 4a 00
        E 0 80 62 00
        E 360 90 1a 69
        E 0 90 32 69
        E 0 90 4a 69
        E 0 90 62 69
        E 120 80 1a 00
        E 0 80 32 00
        E 0 80 4a 00
        E 0 80 62 00
        E 360 90 1a 69
        E 0 90 32 69
        E 0 90 4a 69
        E 0 90 62 69
        E 120 80 1a 00
        E 0 80 32 00
        E 0 80 4a 00
        E 0 80 62 00
        E 360 90 32 69
        E 0 90 4a 69
        E 0 90 62 69
        E 120 80 32 00
        E 0 80 4a 00
        E 0 80 62 00
        E 360 90 19 67
        E 0 90 31 67
        E 0 90 49 67
        E 0 90 61 67
        E 120 80 19 00
        E 0 80 31 00
        E 0 80 49 00
        E 0 80 61 00
        E 1800 90 19 67
        E 0 90 31 67
        E 0 90 49 67
        E 0 90 61 67
        E 120 80 19 00
        E 0 80 31 00
        E 0 80 49 00
        E 0 80 61 00
        E 360 90 19 67
        E 0 90 31 67
        E 0 90 49 67
        E 0 90 61 67
        E 120 80 19 00
        E 0 80 31 00
        E 0 80 49 00
        E 0 80 61 00
        E 360 90 19 67
        E 0 90 31 67
        E 0 90 49 67
        E 0 90 61 67
        E 120 80 19 00
        E 0 80 31 00
        E 0 80 49 00
        E 0 80 61 00
        E 360 90 31 67
        E 0 90 49 67
        E 0 90 61 67
        E 120 80 31 00
        E 0 80 49 00
        E 0 80 61 00
        E 360 90 19 69
        E 0 90 31 69
        E 0 90 49 69
        E 0 90 61 69
        E 120 80 19 00
        E 0 80 31 00
        E 0 80 49 00
        E 0 80 61 00
        E 360 90 19 69
        E 0 90 31 69
        E 0 90 49 69
        E 0 90 61 69
        E 120 80 19 00
        E 0 80 31 00
        E 0 80 49 00
        E 0 80 61 00
        E 360 90 19 69
        E 0 90 31 69
        E 0 90 49 69
        E 0 90 61 69
        E 120 80 19 00
        E 0 80 31 00
        E 0 80 49 00
        E 0 80 61 00
        E 360 90 31 69
        E 0 90 49 69
        E 0 90 61 69
        E 120 80 31 00
        E 0 80 49 00
        E 0 80 61 00
        E 360 90 1a 69
        E 0 90 32 69
        E 0 90 4a 69
        E 0 90 62 69
        E 120 80 1a 00
        E 0 80 32 00
        E 0 80 4a 00
        E 0 80 62 00
        E 360 90 1a 69
        E 0 90 32 69
        E 0 90 4a 69
        E 0 90 62 69
        E 120 80 1a 00
        E 0 80 32 00
        E 0 80 4a 00
        E 0 80 62 00
        E 360 90 1a 69
        E 0 90 32 69
        E 0 90 4a 69
        E 0 90 62 69
        E 120 80 1a 00
        E 0 80 32 00
        E 0 80 4a 00
        E 0 80 62 00
        E 360 90 32 69
        E 0 90 4a 69
        E 0 90 62 69
        E 120 80 32 00
        E 0 80 4a 00
        E 0 80 62 00
        E 360 90 19 67
        E 0 90 31 67
        E 0 90 49 67
        E 0 90 61 67
        E 120 80 19 00
        E 0 80 31 00
        E 0 80 49 00
        E 0 80 61 00
        E 1800 b0 7b 00
        GUID {2DBFC047-831C-454F-A3DF-32AE8E940F51}
        IGNTEMPO 0 120.00000000 4 4
        SRCCOLOR 12
        VELLANE 132 128 60
        COLORMAP "C:\Program Files\REAPER (x64)\Data\color_maps\rockband_guitarbass.png"
        CFGEDITVIEW -6761.581848 12.955548 7 12 0 0 0
        CFGEDIT 1 1 0 1 1 0 1 1 1 1 1 0.25000000 -8 -8 1544 872 0 2 1 1 0.00000000 0 1 0 0 0.500000 0 0 1.000000 64
        KEYSNAP 0 6 "102030050700" 0 "Pentatonic"
        EVTFILTER 0 -1 -1 -1 -1 0 1 0 0 -1.00000000 -1.00000000
      >
    >
  >
  <TRACK '{81C0C4B3-49DA-48F8-83EF-8DC83B8EDD14}'
    NAME "PART REAL_GUITAR"
    PEAKCOL 16576
    BEAT -1
    AUTOMODE 0
    VOLPAN 1.00000000000000 0.00000000000000 -1.00000000000000 -1.00000000000000 1.00000000000000
    MUTESOLO 0 0 0
    IPHASE 0
    ISBUS 0 0
    BUSCOMP 0 0
    SHOWINMIX 1 0.666700 0.500000 1 0.500000 -1 -1 -1
    FREEMODE 0
    SEL 0
    REC 0 0 0 0 0 0 0
    VU 2
    TRACKHEIGHT 0 0
    INQ 0 0 0 0.5000000000 100 0 0 100
    NCHAN 2
    FX 0
    TRACKID {81C0C4B3-49DA-48F8-83EF-8DC83B8EDD14}
    PERF 0
    MIDIOUT -1
    <MIDINOTENAMES
      0 127 "Trill Marker"
      0 126 "Tremolo Marker"
      0 125 "BRE"
      0 124 "BRE"
      0 123 "BRE"
      0 122 "BRE"
      0 121 "BRE"
      0 120 "BRE (use all 6)"
      0 119 "-----------"
      0 116 "OVERDRIVE"
      0 115 "Solo Marker"
      0 109 "-----------"
      0 108 "Fret Hand Position"
      0 107 "Force Chord Numbering"
      0 106 "Loose Strumming"
      0 105 "Strum Direction"
      0 104 "Arpeggio Marker"
      0 103 "Slide Marker"
      0 102 "Force HOPO"
      0 101 "EXPERT e String"
      0 100 "EXPERT B String"
      0 99 "EXPERT G String"
      0 98 "EXPERT D String"
      0 97 "EXPERT A String"
      0 96 "EXPERT E String"
      0 95 "-----------"
      0 82 "Loose Strumming"
      0 81 "Strum Direction"
      0 80 "Arpeggio Marker"
      0 79 "Slide Marker"
      0 78 "Force HOPO"
      0 77 "HARD e String"
      0 76 "HARD B String"
      0 75 "HARD G String"
      0 74 "HARD D String"
      0 73 "HARD A String"
      0 72 "HARD E String"
      0 71 "-----------"
      0 58 "Loose Strumming"
      0 56 "Arpeggio Marker"
      0 55 "Slide Marker"
      0 53 "MEDIUM e String"
      0 52 "MEDIUM B String"
      0 51 "MEDIUM G String"
      0 50 "MEDIUM D String"
      0 49 "MEDIUM A String"
      0 48 "MEDIUM E String"
      0 47 "-----------"
      0 32 "Arpeggio Marker"
      0 31 "Slide Marker"
      0 29 "EASY e String"
      0 28 "EASY B String"
      0 27 "EASY G String"
      0 26 "EASY D String"
      0 25 "EASY A String"
      0 24 "EASY E String"
      0 21 "-----------"
      0 18 "Flat/Sharp Swap"
      0 17 "Hide Chord Names"
      0 16 "Slash Chord"
      0 15 "D#"
      0 14 "D"
      0 13 "C#"
      0 12 "C"
      0 11 "B"
      0 10 "A#"
      0 9 "A"
      0 8 "G#"
      0 7 "G"
      0 6 "F#"
      0 5 "F"
      0 4 "E"
    >
    MAINSEND 1 0
    <FXCHAIN
      WNDRECT 0 43 655 467
      SHOW 0
      LASTSEL 1
      DOCKED 0
      BYPASS 0 0
      <JS "c3/progtr" ""
        0.000000 3.000000 0.000000 0.000000 0.000000 0.000000 0.000000 0.000000 0.000000 1.000000 - - - - - - - - - - - - - - - - - - - - - - - - - - - - - - - - - - - - - - - - - - - - - - - - - - - - - - 
      >
      FLOATPOS 0 0 0 0
      FXID {4E0611D0-6958-4921-A54C-B146298F9E73}
      WAK 0
      BYPASS 0 0
      <VST "VSTi: ReaSynth (Cockos)" "reasynth.dll" 0 ""
        eXNlcu9e7f4AAAAAAgAAAAEAAAAAAAAAAgAAAAAAAAA4AAAAAAAAAA==
        AAAQAO++rd4N8K3eppvEO+gJMjyHFlk/AAAAAAAAAADMm4A+4jAEPA==
        AAAAAAAAAD+01hM+j8L1PQAAAD8AABAAAAA=
      >
      FLOATPOS 0 0 0 0
      FXID {DEB077B8-0BDC-49D3-B0F0-03A5C8368349}
      WAK 0
    >
    <ITEM
      POSITION 0.00000000000000
      SNAPOFFS 0.00000000000000
      LENGTH 96.00000000000000
      LOOP 0
      ALLTAKES 0
      SEL 0
      FADEIN 1 0.000000 0.000000 1 0
      FADEOUT 1 0.000000 0.000000 1 0
      MUTE 0
      IGUID {24C058D3-3F68-4C7D-9B90-6A794BE19151}
      IID 11
      NAME "PART REAL_GUITAR"
      VOLPAN 1.000000 0.000000 1.000000 -1.000000
      SOFFS 0.00000000000000 0.00000000000000
      PLAYRATE 1.00000000000000 1 0.00000000000000 -1
      CHANMODE 0
      GUID {6FC4B6F9-FE30-446B-8485-CE094A832EE7}
      <SOURCE MIDI
        HASDATA 1 480 QN
        POOLEDEVTS {6C3FEB55-AF32-4AAC-8579-3162B33194E9}
        <X 0 0
          /wNQQVJUIFJFQUxfR1VJVEFS
        >
        <X 3840 0
          /wFbYmVnaW5fcGcgc29uZ190cmFpbmVyX3BnXzFd
        >
        E 0 90 1c 6c
        E 0 90 34 6c
        E 0 90 4c 6c
        E 0 90 64 6c
        E 0 90 6c 6a
        E 0 90 74 60
        E 80 80 1c 00
        E 0 80 34 00
        E 0 80 4c 00
        E 0 80 64 00
        E 40 80 6c 00
        E 40 90 64 6c
        E 80 80 64 00
        E 160 90 4c 6c
        E 0 90 64 6c
        E 80 80 4c 00
        E 0 80 64 00
        E 160 90 4c 6c
        E 0 90 64 6c
        E 80 80 4c 00
        E 0 80 64 00
        E 160 90 64 6c
        E 80 80 64 00
        E 0 90 1c 6b
        E 0 90 34 6b
        E 0 90 4c 6b
        E 0 90 64 6b
        E 80 80 1c 00
        E 0 80 34 00
        E 0 80 4c 00
        E 0 80 64 00
        E 80 90 64 6b
        E 80 80 64 00
        E 160 90 4c 6b
        E 0 90 64 6b
        E 80 80 4c 00
        E 0 80 64 00
        E 160 90 4c 6b
        E 0 90 64 6b
        E 80 80 4c 00
        E 0 80 64 00
        E 160 90 64 6b
        E 80 80 64 00
        E 0 90 1c 6a
        E 0 90 34 6a
        E 0 90 4c 6a
        E 0 90 64 6a
        E 80 80 1c 00
        E 0 80 34 00
        E 0 80 4c 00
        E 0 80 64 00
        E 80 90 64 6a
        E 80 80 64 00
        E 160 90 4c 6a
        E 0 90 64 6a
        E 80 80 4c 00
        E 0 80 64 00
        E 160 90 34 6a
        E 0 90 4c 6a
        E 0 90 64 6a
        E 80 80 34 00
        E 0 80 4c 00
        E 0 80 64 00
        E 160 90 4c 6a
        E 0 90 64 6a
        E 80 80 4c 00
        E 0 80 64 00
        E 0 90 65 6b
        E 360 80 65 00
        E 120 90 34 6a
        E 0 90 4c 6a
        E 0 90 64 6a
        E 120 80 34 00
        E 0 80 4c 00
        E 240 80 64 00
        <X 120 0
          /wFbZW5kX3BnIHNvbmdfdHJhaW5lcl9wZ18xXQ==
        >
        <X 0 0
          /wFbYmVnaW5fcGcgc29uZ190cmFpbmVyX3BnXzJd
        >
        E 0 80 74 00
        E 0 90 1d 67
        E 0 90 35 67
        E 0 90 4d 67
        E 0 90 65 67
        E 0 90 6c 65
        E 120 80 1d 00
        E 0 80 35 00
        E 0 80 4d 00
        E 0 80 65 00
        E 0 80 6c 00
        E 360 90 1d 67
        E 0 90 35 67
        E 0 90 4d 67
        E 0 90 65 67
        E 120 80 1d 00
        E 0 80 35 00
        E 0 80 4d 00
        E 0 80 65 00
        E 240 90 4d 67
        E 0 90 65 67
        E 120 80 4d 00
        E 0 80 65 00
        E 120 90 35 64
        E 0 90 4d 64
        E 0 90 65 64
        E 120 80 35 00
        E 0 80 4d 00
        E 0 80 65 00
        E 120 90 4d 64
        E 0 90 65 64
        E 120 80 4d 00
        E 0 80 65 00
        E 0 90 64 65
        E 360 80 64 00
        <X 120 0
          /wFbcGdfbm9ybSBzb25nX3RyYWluZXJfcGdfMl0=
        >
        E 0 90 1d 66
        E 0 90 35 66
        E 0 90 4d 66
        E 0 90 65 66
        E 120 80 1d 00
        E 0 80 35 00
        E 0 80 4d 00
        E 0 80 65 00
        E 360 90 1d 66
        E 0 90 35 66
        E 0 90 4d 66
        E 0 90 65 66
        E 120 80 1d 00
        E 0 80 35 00
        E 0 80 4d 00
        E 0 80 65 00
        E 240 90 4d 66
        E 0 90 65 66
        E 120 80 4d 00
        E 0 80 65 00
        E 120 90 34 67
        E 0 90 4c 67
        E 0 90 64 67
        E 120 80 34 00
        E 0 80 4c 00
        E 0 80 64 00
        E 120 90 4c 67
        E 0 90 64 67
        E 120 80 4c 00
        E 0 80 64 00
        E 0 90 64 65
        E 360 80 64 00
        E 120 90 1d 65
        E 0 90 35 65
        E 0 90 4d 65
        E 0 90 65 65
        E 120 80 1d 00
        E 0 80 35 00
        E 0 80 4d 00
        E 0 80 65 00
        E 360 90 1d 65
        E 0 90 35 65
        E 0 90 4d 65
        E 0 90 65 65
        E 120 80 1d 00
        E 0 80 35 00
        E 0 80 4d 00
        E 0 80 65 00
        E 240 90 4d 65
        E 0 90 65 65
        E 120 80 4d 00
        E 0 80 65 00
        E 120 90 34 67
        E 0 90 4c 67
        E 0 90 64 67
        E 120 80 34 00
        E 0 80 4c 00
        E 0 80 64 00
        E 120 90 4c 64
        E 0 90 64 64
        E 120 80 4c 00
        E 0 80 64 00
        E 0 90 65 67
        E 120 80 65 00
        E 120 90 4d 67
        E 0 90 65 67
        E 120 80 4d 00
        E 0 80 65 00
        E 120 90 1d 64
        E 0 90 35 64
        E 0 90 4d 64
        E 0 90 65 64
        E 120 80 1d 00
        E 0 80 35 00
        E 0 80 4d 00
        E 0 80 65 00
        <X 1800 0
          /wFbZW5kX3BnIHNvbmdfdHJhaW5lcl9wZ18yXQ==
        >
        E 0 90 1d 67
        E 0 90 35 67
        E 0 90 4d 67
        E 0 90 65 67
        E 120 80 1d 00
        E 0 80 35 00
        E 0 80 4d 00
        E 0 80 65 00
        E 360 90 1d 67
        E 0 90 35 67
        E 0 90 4d 67
        E 0 90 65 67
        E 120 80 1d 00
        E 0 80 35 00
        E 0 80 4d 00
        E 0 80 65 00
        E 240 90 4d 67
        E 0 90 65 67
        E 120 80 4d 00
        E 0 80 65 00
        E 120 90 35 64
        E 0 90 4d 64
        E 0 90 65 64
        E 120 80 35 00
        E 0 80 4d 00
        E 0 80 65 00
        E 120 90 4d 64
        E 0 90 65 64
        E 120 80 4d 00
        E 0 80 65 00
        E 0 90 64 65
        E 360 80 64 00
        E 120 90 1d 66
        E 0 90 35 66
        E 0 90 4d 66
        E 0 90 65 66
        E 120 80 1d 00
        E 0 80 35 00
        E 0 80 4d 00
        E 0 80 65 00
        E 360 90 1d 66
        E 0 90 35 66
        E 0 90 4d 66
        E 0 90 65 66
        E 120 80 1d 00
        E 0 80 35 00
        E 0 80 4d 00
        E 0 80 65 00
        E 240 90 4d 66
        E 0 90 65 66
        E 120 80 4d 00
        E 0 80 65 00
        E 120 90 34 67
        E 0 90 4c 67
        E 0 90 64 67
        E 120 80 34 00
        E 0 80 4c 00
        E 0 80 64 00
        E 120 90 4c 67
        E 0 90 64 67
        E 120 80 4c 00
        E 0 80 64 00
        E 0 90 64 65
        E 360 80 64 00
        E 120 90 1d 65
        E 0 90 35 65
        E 0 90 4d 65
        E 0 90 65 65
        E 0 90 74 60
        E 120 80 1d 00
        E 0 80 35 00
        E 0 80 4d 00
        E 0 80 65 00
        E 360 90 1d 65
        E 0 90 35 65
        E 0 90 4d 65
        E 0 90 65 65
        E 120 80 1d 00
        E 0 80 35 00
        E 0 80 4d 00
        E 0 80 65 00
        E 240 90 4d 65
        E 0 90 65 65
        E 120 80 4d 00
        E 0 80 65 00
        E 120 90 34 67
        E 0 90 4c 67
        E 0 90 64 67
        E 120 80 34 00
        E 0 80 4c 00
        E 0 80 64 00
        E 120 90 4c 64
        E 0 90 64 64
        E 120 80 4c 00
        E 0 80 64 00
        E 0 90 65 67
        E 120 80 65 00
        E 120 90 4d 67
        E 0 90 65 67
        E 120 80 4d 00
        E 0 80 65 00
        E 120 90 1d 64
        E 0 90 35 64
        E 0 90 4d 64
        E 0 90 65 64
        E 120 80 74 00
        E 0 80 1d 00
        E 0 80 35 00
        E 0 80 4d 00
        E 0 80 65 00
        <X 840 0
          /wFbYmVnaW5fcGcgc29uZ190cmFpbmVyX3BnXzNd
        >
        E 240 90 4d 64
        E 0 90 65 64
        E 120 80 4d 00
        E 0 80 65 00
        E 120 90 35 65
        E 0 90 4d 65
        E 0 90 65 65
        E 120 80 35 00
        E 0 80 4d 00
        E 0 80 65 00
        E 120 90 4d 66
        E 0 90 65 66
        E 0 90 6c 66
        E 120 80 4d 00
        E 0 80 65 00
        E 0 80 6c 00
        E 120 90 1d 68
        E 0 90 35 68
        E 0 90 4d 68
        E 0 90 65 68
        E 120 80 1d 00
        E 0 80 35 00
        E 0 80 4d 00
        E 0 80 65 00
        E 360 90 1d 68
        E 0 90 35 68
        E 0 90 4d 68
        E 0 90 65 68
        E 120 80 1d 00
        E 0 80 35 00
        E 0 80 4d 00
        E 0 80 65 00
        E 240 90 4d 68
        E 0 90 65 68
        <X 120 0
          /wFbcGdfbm9ybSBzb25nX3RyYWluZXJfcGdfM10=
        >
        E 0 80 4d 00
        E 0 80 65 00
        E 120 90 35 66
        E 0 90 4d 66
        E 0 90 65 66
        E 120 80 35 00
        E 0 80 4d 00
        E 0 80 65 00
        E 240 90 35 66
        E 0 90 4d 66
        E 0 90 65 66
        E 120 80 35 00
        E 0 80 4d 00
        E 0 80 65 00
        E 120 90 4d 68
        E 0 90 65 68
        E 120 80 4d 00
        E 0 80 65 00
        E 120 90 1d 64
        E 0 90 35 64
        E 0 90 4d 64
        E 0 90 65 64
        E 120 80 1d 00
        E 0 80 35 00
        E 0 80 4d 00
        E 0 80 65 00
        E 120 90 4d 64
        E 0 90 65 64
        E 120 80 4d 00
        E 0 80 65 00
        E 120 90 35 64
        E 0 90 4d 64
        E 0 90 65 64
        E 120 80 35 00
        E 0 80 4d 00
        E 0 80 65 00
        E 0 90 64 67
        E 120 80 64 00
        E 120 90 4d 64
        E 0 90 65 64
        E 120 80 4d 00
        E 0 80 65 00
        E 240 90 4c 65
        E 0 90 64 65
        E 0 90 6c 65
        E 120 80 4c 00
        E 0 80 64 00
        E 0 80 6c 00
        E 120 90 34 67
        E 0 90 4c 67
        E 0 90 64 67
        E 120 80 34 00
        E 0 80 4c 00
        E 0 80 64 00
        E 120 90 4d 64
        E 0 90 65 64
        E 120 80 4d 00
        E 0 80 65 00
        E 120 90 1d 66
        E 0 90 35 66
        E 0 90 4d 66
        E 0 90 65 66
        E 120 80 1d 00
        E 0 80 35 00
        E 0 80 4d 00
        E 0 80 65 00
        E 360 90 1d 66
        E 0 90 35 66
        E 0 90 4d 66
        E 0 90 65 66
        E 120 80 1d 00
        E 0 80 35 00
        E 0 80 4d 00
        E 0 80 65 00
        E 240 90 4d 66
        E 0 90 65 66
        E 120 80 4d 00
        E 0 80 65 00
        E 120 90 4d 64
        E 0 90 65 64
        E 120 80 4d 00
        E 0 80 65 00
        E 240 90 1c 67
        E 0 90 34 67
        E 0 90 4c 67
        E 0 90 64 67
        E 120 80 1c 00
        E 0 80 34 00
        E 0 80 4c 00
        E 0 80 64 00
        E 120 90 4c 65
        E 0 90 64 65
        E 120 80 4c 00
        E 0 80 64 00
        E 360 90 4c 67
        E 0 90 64 67
        E 120 80 4c 00
        E 0 80 64 00
        E 120 90 35 64
        E 0 90 4d 64
        E 0 90 65 64
        E 120 80 35 00
        E 0 80 4d 00
        E 0 80 65 00
        E 120 90 4d 65
        E 0 90 65 65
        E 120 80 4d 00
        E 0 80 65 00
        E 120 90 1d 66
        E 0 90 35 66
        E 0 90 4d 66
        E 0 90 65 66
        E 120 80 1d 00
        E 0 80 35 00
        E 0 80 4d 00
        <X 360 0
          /wFbZW5kX3BnIHNvbmdfdHJhaW5lcl9wZ18zXQ==
        >
        E 0 80 65 00
        E 120 90 4c 64
        E 0 90 64 64
        E 120 80 4c 00
        E 0 80 64 00
        <X 240 0
          /wFbYmVnaW5fcGcgc29uZ190cmFpbmVyX3BnXzRd
        >
        E 0 90 1d 70
        E 0 90 35 70
        E 0 90 4d 70
        E 0 90 65 70
        E 0 90 6c 6e
        E 120 80 1d 00
        E 0 80 35 00
        E 0 80 4d 00
        E 0 80 65 00
        E 0 80 6c 00
        E 360 90 1d 70
        E 0 90 35 70
        E 0 90 4d 70
        E 0 90 65 70
        E 120 80 1d 00
        E 0 80 35 00
        E 0 80 4d 00
        E 0 80 65 00
        E 240 90 4d 70
        E 0 90 65 70
        E 120 80 4d 00
        E 0 80 65 00
        E 120 90 35 6e
        E 0 90 4d 6e
        E 0 90 65 6e
        E 120 80 35 00
        E 0 80 4d 00
        E 0 80 65 00
        E 240 90 1d 6e
        E 0 90 35 6e
        E 0 90 4d 6e
        E 0 90 65 6e
        E 120 80 1d 00
        E 0 80 35 00
        E 0 80 4d 00
        E 0 80 65 00
        E 120 90 4d 70
        E 0 90 65 70
        E 120 80 4d 00
        E 0 80 65 00
        <X 120 0
          /wFbcGdfbm9ybSBzb25nX3RyYWluZXJfcGdfM10=
        >
        E 0 90 1d 6e
        E 0 90 35 6e
        E 0 90 4d 6e
        E 0 90 65 6e
        E 120 80 1d 00
        E 0 80 35 00
        E 0 80 4d 00
        E 0 80 65 00
        E 120 90 4c 71
        E 0 90 64 71
        E 120 80 4c 00
        E 0 80 64 00
        E 120 90 34 71
        E 0 90 4c 71
        E 0 90 64 71
        E 120 80 34 00
        E 0 80 4c 00
        E 0 80 64 00
        E 0 90 64 70
        E 120 80 64 00
        E 120 90 4c 71
        E 0 90 64 71
        E 120 80 4c 00
        E 0 80 64 00
        E 0 90 74 60
        E 240 90 4b 72
        E 0 90 63 72
        E 120 80 4b 00
        E 0 80 63 00
        E 120 90 34 70
        E 0 90 4c 70
        E 0 90 64 70
        E 120 80 34 00
        E 0 80 4c 00
        E 0 80 64 00
        E 120 90 4c 71
        E 0 90 64 71
        E 120 80 4c 00
        E 0 80 64 00
        E 120 90 1d 6e
        E 0 90 35 6e
        E 0 90 4d 6e
        E 0 90 65 6e
        E 120 80 1d 00
        E 0 80 35 00
        E 0 80 4d 00
        E 0 80 65 00
        E 360 90 1d 6e
        E 0 90 35 6e
        E 0 90 4d 6e
        E 0 90 65 6e
        E 120 80 1d 00
        E 0 80 35 00
        E 0 80 4d 00
        E 0 80 65 00
        E 240 90 4d 6e
        E 0 90 65 6e
        E 120 80 4d 00
        E 0 80 65 00
        E 120 90 4c 71
        E 0 90 64 71
        E 120 80 4c 00
        E 0 80 64 00
        E 240 90 1c 70
        E 0 90 34 70
        E 0 90 4c 70
        E 0 90 64 70
        E 120 80 1c 00
        E 0 80 34 00
        E 0 80 4c 00
        E 0 80 64 00
        E 120 90 4b 72
        E 0 90 63 72
        E 120 80 4b 00
        E 0 80 63 00
        E 120 80 74 00
        E 240 90 4c 70
        E 0 90 64 70
        E 120 80 4c 00
        E 0 80 64 00
        E 120 90 34 71
        E 0 90 4c 71
        E 0 90 64 71
        E 120 80 34 00
        E 0 80 4c 00
        E 0 80 64 00
        E 120 90 4c 72
        E 0 90 64 72
        E 120 80 4c 00
        E 0 80 64 00
        E 120 90 1c 73
        E 0 90 34 73
        E 0 90 4c 73
        E 0 90 64 73
        E 120 80 1c 00
        E 0 80 34 00
        E 0 80 4c 00
        E 0 80 64 00
        E 480 90 4d 67
        E 0 90 65 67
        E 0 90 6c 65
        E 120 80 4d 00
        E 0 80 65 00
        E 0 80 6c 00
        <X 240 0
          /wFbZW5kX3BnIHNvbmdfdHJhaW5lcl9wZ18zXQ==
        >
        E 0 90 1d 67
        E 0 90 35 67
        E 0 90 4d 67
        E 0 90 65 67
        E 120 80 1d 00
        E 0 80 35 00
        E 0 80 4d 00
        E 0 80 65 00
        E 360 90 1d 67
        E 0 90 35 67
        E 0 90 4d 67
        E 0 90 65 67
        E 120 80 1d 00
        E 0 80 35 00
        E 0 80 4d 00
        E 0 80 65 00
        E 240 90 4d 67
        E 0 90 65 67
        E 120 80 4d 00
        E 0 80 65 00
        E 120 90 35 64
        E 0 90 4d 64
        E 0 90 65 64
        E 120 80 35 00
        E 0 80 4d 00
        E 0 80 65 00
        E 120 90 4d 64
        E 0 90 65 64
        E 120 80 4d 00
        E 0 80 65 00
        E 0 90 64 65
        E 360 80 64 00
        E 120 90 1d 66
        E 0 90 35 66
        E 0 90 4d 66
        E 0 90 65 66
        E 120 80 1d 00
        E 0 80 35 00
        E 0 80 4d 00
        E 0 80 65 00
        E 360 90 1d 66
        E 0 90 35 66
        E 0 90 4d 66
        E 0 90 65 66
        E 120 80 1d 00
        E 0 80 35 00
        E 0 80 4d 00
        E 0 80 65 00
        E 240 90 4d 66
        E 0 90 65 66
        E 120 80 4d 00
        E 0 80 65 00
        E 120 90 34 67
        E 0 90 4c 67
        E 0 90 64 67
        E 120 80 34 00
        E 0 80 4c 00
        E 0 80 64 00
        E 120 90 4c 67
        E 0 90 64 67
        E 120 80 4c 00
        E 0 80 64 00
        E 0 90 64 65
        E 360 80 64 00
        E 120 90 1d 65
        E 0 90 35 65
        E 0 90 4d 65
        E 0 90 65 65
        E 120 80 1d 00
        E 0 80 35 00
        E 0 80 4d 00
        E 0 80 65 00
        E 360 90 1d 65
        E 0 90 35 65
        E 0 90 4d 65
        E 0 90 65 65
        E 120 80 1d 00
        E 0 80 35 00
        E 0 80 4d 00
        E 0 80 65 00
        E 240 90 4d 65
        E 0 90 65 65
        E 120 80 4d 00
        E 0 80 65 00
        E 120 90 34 67
        E 0 90 4c 67
        E 0 90 64 67
        E 120 80 34 00
        E 0 80 4c 00
        E 0 80 64 00
        E 120 90 4c 64
        E 0 90 64 64
        E 120 80 4c 00
        E 0 80 64 00
        E 0 90 65 67
        E 120 80 65 00
        E 120 90 4d 67
        E 0 90 65 67
        E 120 80 4d 00
        E 0 80 65 00
        E 120 90 1d 64
        E 0 90 35 64
        E 0 90 4d 64
        E 0 90 65 64
        E 120 80 1d 00
        E 0 80 35 00
        E 0 80 4d 00
        E 0 80 65 00
        E 1800 90 1d 67
        E 0 90 35 67
        E 0 90 4d 67
        E 0 90 65 67
        E 120 80 1d 00
        E 0 80 35 00
        E 0 80 4d 00
        E 0 80 65 00
        E 360 90 1d 67
        E 0 90 35 67
        E 0 90 4d 67
        E 0 90 65 67
        E 120 80 1d 00
        E 0 80 35 00
        E 0 80 4d 00
        E 0 80 65 00
        E 240 90 4d 67
        E 0 90 65 67
        E 120 80 4d 00
        E 0 80 65 00
        E 120 90 35 64
        E 0 90 4d 64
        E 0 90 65 64
        E 120 80 35 00
        E 0 80 4d 00
        E 0 80 65 00
        E 120 90 4d 64
        E 0 90 65 64
        E 120 80 4d 00
        E 0 80 65 00
        E 0 90 64 65
        E 360 80 64 00
        E 120 90 1d 66
        E 0 90 35 66
        E 0 90 4d 66
        E 0 90 65 66
        E 120 80 1d 00
        E 0 80 35 00
        E 0 80 4d 00
        E 0 80 65 00
        E 360 90 1d 66
        E 0 90 35 66
        E 0 90 4d 66
        E 0 90 65 66
        E 120 80 1d 00
        E 0 80 35 00
        E 0 80 4d 00
        E 0 80 65 00
        E 240 90 4d 66
        E 0 90 65 66
        E 120 80 4d 00
        E 0 80 65 00
        E 120 90 34 67
        E 0 90 4c 67
        E 0 90 64 67
        E 120 80 34 00
        E 0 80 4c 00
        E 0 80 64 00
        E 120 90 4c 67
        E 0 90 64 67
        E 120 80 4c 00
        E 0 80 64 00
        E 0 90 64 65
        E 360 80 64 00
        E 120 90 1d 65
        E 0 90 35 65
        E 0 90 4d 65
        E 0 90 65 65
        E 120 80 1d 00
        E 0 80 35 00
        E 0 80 4d 00
        E 0 80 65 00
        E 360 90 1d 65
        E 0 90 35 65
        E 0 90 4d 65
        E 0 90 65 65
        E 120 80 1d 00
        E 0 80 35 00
        E 0 80 4d 00
        E 0 80 65 00
        E 240 90 4d 65
        E 0 90 65 65
        E 120 80 4d 00
        E 0 80 65 00
        E 120 90 34 67
        E 0 90 4c 67
        E 0 90 64 67
        E 120 80 34 00
        E 0 80 4c 00
        E 0 80 64 00
        E 120 90 4c 64
        E 0 90 64 64
        E 120 80 4c 00
        E 0 80 64 00
        E 0 90 65 67
        E 120 80 65 00
        E 120 90 4d 67
        E 0 90 65 67
        E 120 80 4d 00
        E 0 80 65 00
        E 120 90 1d 64
        E 0 90 35 64
        E 0 90 4d 64
        E 0 90 65 64
        E 120 80 1d 00
        E 0 80 35 00
        E 0 80 4d 00
        E 0 80 65 00
        E 1080 90 4d 64
        E 0 90 65 64
        E 120 80 4d 00
        E 0 80 65 00
        E 120 90 35 65
        E 0 90 4d 65
        E 0 90 65 65
        E 120 80 35 00
        E 0 80 4d 00
        E 0 80 65 00
        E 120 90 4d 66
        E 0 90 65 66
        E 0 90 6c 66
        E 120 80 4d 00
        E 0 80 65 00
        E 0 80 6c 00
        E 120 90 1d 68
        E 0 90 35 68
        E 0 90 4d 68
        E 0 90 65 68
        E 120 80 1d 00
        E 0 80 35 00
        E 0 80 4d 00
        E 0 80 65 00
        E 360 90 1d 68
        E 0 90 35 68
        E 0 90 4d 68
        E 0 90 65 68
        E 120 80 1d 00
        E 0 80 35 00
        E 0 80 4d 00
        E 0 80 65 00
        E 240 90 4d 68
        E 0 90 65 68
        E 120 80 4d 00
        E 0 80 65 00
        E 120 90 35 66
        E 0 90 4d 66
        E 0 90 65 66
        E 120 80 35 00
        E 0 80 4d 00
        E 0 80 65 00
        E 240 90 35 66
        E 0 90 4d 66
        E 0 90 65 66
        E 120 80 35 00
        E 0 80 4d 00
        E 0 80 65 00
        E 120 90 4d 68
        E 0 90 65 68
        E 120 80 4d 00
        E 0 80 65 00
        E 120 90 1d 64
        E 0 90 35 64
        E 0 90 4d 64
        E 0 90 65 64
        E 120 80 1d 00
        E 0 80 35 00
        E 0 80 4d 00
        E 0 80 65 00
        E 120 90 4d 64
        E 0 90 65 64
        E 120 80 4d 00
        E 0 80 65 00
        E 120 90 35 64
        E 0 90 4d 64
        E 0 90 65 64
        E 120 80 35 00
        E 0 80 4d 00
        E 0 80 65 00
        E 0 90 64 67
        E 120 80 64 00
        E 120 90 4d 64
        E 0 90 65 64
        E 120 80 4d 00
        E 0 80 65 00
        E 240 90 4c 65
        E 0 90 64 65
        E 0 90 6c 65
        E 120 80 4c 00
        E 0 80 64 00
        E 0 80 6c 00
        E 120 90 34 67
        E 0 90 4c 67
        E 0 90 64 67
        E 120 80 34 00
        E 0 80 4c 00
        E 0 80 64 00
        E 120 90 4d 64
        E 0 90 65 64
        E 120 80 4d 00
        E 0 80 65 00
        E 120 90 1d 66
        E 0 90 35 66
        E 0 90 4d 66
        E 0 90 65 66
        E 120 80 1d 00
        E 0 80 35 00
        E 0 80 4d 00
        E 0 80 65 00
        E 360 90 1d 66
        E 0 90 35 66
        E 0 90 4d 66
        E 0 90 65 66
        E 120 80 1d 00
        E 0 80 35 00
        E 0 80 4d 00
        E 0 80 65 00
        E 240 90 4d 66
        E 0 90 65 66
        E 120 80 4d 00
        E 0 80 65 00
        E 120 90 4d 64
        E 0 90 65 64
        E 120 80 4d 00
        E 0 80 65 00
        E 240 90 1c 67
        E 0 90 34 67
        E 0 90 4c 67
        E 0 90 64 67
        E 120 80 1c 00
        E 0 80 34 00
        E 0 80 4c 00
        E 0 80 64 00
        E 120 90 4c 65
        E 0 90 64 65
        E 120 80 4c 00
        E 0 80 64 00
        E 360 90 4c 67
        E 0 90 64 67
        E 120 80 4c 00
        E 0 80 64 00
        E 120 90 35 64
        E 0 90 4d 64
        E 0 90 65 64
        E 120 80 35 00
        E 0 80 4d 00
        E 0 80 65 00
        E 120 90 4d 65
        E 0 90 65 65
        E 120 80 4d 00
        E 0 80 65 00
        E 120 90 1d 66
        E 0 90 35 66
        E 0 90 4d 66
        E 0 90 65 66
        E 120 80 1d 00
        E 0 80 35 00
        E 0 80 4d 00
        E 360 80 65 00
        E 120 90 4c 64
        E 0 90 64 64
        E 120 80 4c 00
        E 0 80 64 00
        E 240 90 1d 70
        E 0 90 35 70
        E 0 90 4d 70
        E 0 90 65 70
        E 0 90 6c 6e
        E 0 90 74 60
        E 120 80 1d 00
        E 0 80 35 00
        E 0 80 4d 00
        E 0 80 65 00
        E 0 80 6c 00
        E 360 90 1d 70
        E 0 90 35 70
        E 0 90 4d 70
        E 0 90 65 70
        E 120 80 1d 00
        E 0 80 35 00
        E 0 80 4d 00
        E 0 80 65 00
        E 240 90 4d 70
        E 0 90 65 70
        E 120 80 4d 00
        E 0 80 65 00
        E 120 90 35 6e
        E 0 90 4d 6e
        E 0 90 65 6e
        E 120 80 35 00
        E 0 80 4d 00
        E 0 80 65 00
        E 240 90 1d 6e
        E 0 90 35 6e
        E 0 90 4d 6e
        E 0 90 65 6e
        E 120 80 1d 00
        E 0 80 35 00
        E 0 80 4d 00
        E 0 80 65 00
        E 120 90 4d 70
        E 0 90 65 70
        E 120 80 4d 00
        E 0 80 65 00
        E 120 90 1d 6e
        E 0 90 35 6e
        E 0 90 4d 6e
        E 0 90 65 6e
        E 120 80 1d 00
        E 0 80 35 00
        E 0 80 4d 00
        E 0 80 65 00
        E 120 90 4c 71
        E 0 90 64 71
        E 120 80 4c 00
        E 0 80 64 00
        E 120 90 34 71
        E 0 90 4c 71
        E 0 90 64 71
        E 120 80 34 00
        E 0 80 4c 00
        E 0 80 64 00
        E 0 90 64 70
        E 120 80 64 00
        E 120 90 4c 71
        E 0 90 64 71
        E 120 80 4c 00
        E 0 80 64 00
        E 240 90 4b 72
        E 0 90 63 72
        E 120 80 4b 00
        E 0 80 63 00
        E 120 90 34 70
        E 0 90 4c 70
        E 0 90 64 70
        E 120 80 34 00
        E 0 80 4c 00
        E 0 80 64 00
        E 120 90 4c 71
        E 0 90 64 71
        E 120 80 4c 00
        E 0 80 64 00
        E 120 80 74 00
        E 0 90 1d 6e
        E 0 90 35 6e
        E 0 90 4d 6e
        E 0 90 65 6e
        E 120 80 1d 00
        E 0 80 35 00
        E 0 80 4d 00
        E 0 80 65 00
        E 360 90 1d 6e
        E 0 90 35 6e
        E 0 90 4d 6e
        E 0 90 65 6e
        E 120 80 1d 00
        E 0 80 35 00
        E 0 80 4d 00
        E 0 80 65 00
        E 240 90 4d 6e
        E 0 90 65 6e
        E 120 80 4d 00
        E 0 80 65 00
        E 120 90 4c 71
        E 0 90 64 71
        E 120 80 4c 00
        E 0 80 64 00
        E 240 90 1c 70
        E 0 90 34 70
        E 0 90 4c 70
        E 0 90 64 70
        E 120 80 1c 00
        E 0 80 34 00
        E 0 80 4c 00
        E 0 80 64 00
        E 120 90 4b 72
        E 0 90 63 72
        E 120 80 4b 00
        E 0 80 63 00
        E 360 90 4c 70
        E 0 90 64 70
        E 120 80 4c 00
        E 0 80 64 00
        E 120 90 34 71
        E 0 90 4c 71
        E 0 90 64 71
        E 120 80 34 00
        E 0 80 4c 00
        E 0 80 64 00
        E 120 90 4c 72
        E 0 90 64 72
        E 120 80 4c 00
        E 0 80 64 00
        E 120 90 1c 73
        E 0 90 34 73
        E 0 90 4c 73
        E 0 90 64 73
        E 120 80 1c 00
        E 0 80 34 00
        E 0 80 4c 00
        E 0 80 64 00
        E 480 90 4d 67
        E 0 90 65 67
        E 0 90 6c 65
        E 120 80 4d 00
        E 0 80 65 00
        E 0 80 6c 00
        E 240 90 1d 67
        E 0 90 35 67
        E 0 90 4d 67
        E 0 90 65 67
        E 120 80 1d 00
        E 0 80 35 00
        E 0 80 4d 00
        E 0 80 65 00
        E 360 90 1d 67
        E 0 90 35 67
        E 0 90 4d 67
        E 0 90 65 67
        E 120 80 1d 00
        E 0 80 35 00
        E 0 80 4d 00
        E 0 80 65 00
        E 240 90 4d 67
        E 0 90 65 67
        E 120 80 4d 00
        E 0 80 65 00
        E 120 90 35 64
        E 0 90 4d 64
        E 0 90 65 64
        E 120 80 35 00
        E 0 80 4d 00
        E 0 80 65 00
        E 120 90 4d 64
        E 0 90 65 64
        E 120 80 4d 00
        E 0 80 65 00
        E 0 90 64 65
        E 360 80 64 00
        E 120 90 1d 66
        E 0 90 35 66
        E 0 90 4d 66
        E 0 90 65 66
        E 120 80 1d 00
        E 0 80 35 00
        E 0 80 4d 00
        E 0 80 65 00
        E 360 90 1d 66
        E 0 90 35 66
        E 0 90 4d 66
        E 0 90 65 66
        E 120 80 1d 00
        E 0 80 35 00
        E 0 80 4d 00
        E 0 80 65 00
        E 240 90 4d 66
        E 0 90 65 66
        E 120 80 4d 00
        E 0 80 65 00
        E 120 90 34 67
        E 0 90 4c 67
        E 0 90 64 67
        E 120 80 34 00
        E 0 80 4c 00
        E 0 80 64 00
        E 120 90 4c 67
        E 0 90 64 67
        E 120 80 4c 00
        E 0 80 64 00
        E 0 90 64 65
        E 360 80 64 00
        E 120 90 1d 65
        E 0 90 35 65
        E 0 90 4d 65
        E 0 90 65 65
        E 120 80 1d 00
        E 0 80 35 00
        E 0 80 4d 00
        E 0 80 65 00
        E 360 90 1d 65
        E 0 90 35 65
        E 0 90 4d 65
        E 0 90 65 65
        E 120 80 1d 00
        E 0 80 35 00
        E 0 80 4d 00
        E 0 80 65 00
        E 240 90 4d 65
        E 0 90 65 65
        E 120 80 4d 00
        E 0 80 65 00
        E 120 90 34 67
        E 0 90 4c 67
        E 0 90 64 67
        E 120 80 34 00
        E 0 80 4c 00
        E 0 80 64 00
        E 120 90 4c 64
        E 0 90 64 64
        E 120 80 4c 00
        E 0 80 64 00
        E 0 90 65 67
        E 120 80 65 00
        E 120 90 4d 67
        E 0 90 65 67
        E 120 80 4d 00
        E 0 80 65 00
        E 120 90 1d 64
        E 0 90 35 64
        E 0 90 4d 64
        E 0 90 65 64
        E 120 80 1d 00
        E 0 80 35 00
        E 0 80 4d 00
        E 0 80 65 00
        E 1800 90 1d 67
        E 0 90 35 67
        E 0 90 4d 67
        E 0 90 65 67
        E 0 90 74 60
        E 120 80 1d 00
        E 0 80 35 00
        E 0 80 4d 00
        E 0 80 65 00
        E 360 90 1d 67
        E 0 90 35 67
        E 0 90 4d 67
        E 0 90 65 67
        E 120 80 1d 00
        E 0 80 35 00
        E 0 80 4d 00
        E 0 80 65 00
        E 240 90 4d 67
        E 0 90 65 67
        E 120 80 4d 00
        E 0 80 65 00
        E 120 90 35 64
        E 0 90 4d 64
        E 0 90 65 64
        E 120 80 35 00
        E 0 80 4d 00
        E 0 80 65 00
        E 120 90 4d 64
        E 0 90 65 64
        E 120 80 4d 00
        E 0 80 65 00
        E 0 90 64 65
        E 360 80 64 00
        E 120 80 74 00
        E 0 90 1d 66
        E 0 90 35 66
        E 0 90 4d 66
        E 0 90 65 66
        E 120 80 1d 00
        E 0 80 35 00
        E 0 80 4d 00
        E 0 80 65 00
        E 360 90 1d 66
        E 0 90 35 66
        E 0 90 4d 66
        E 0 90 65 66
        E 120 80 1d 00
        E 0 80 35 00
        E 0 80 4d 00
        E 0 80 65 00
        E 240 90 4d 66
        E 0 90 65 66
        E 120 80 4d 00
        E 0 80 65 00
        E 120 90 34 67
        E 0 90 4c 67
        E 0 90 64 67
        E 120 80 34 00
        E 0 80 4c 00
        E 0 80 64 00
        E 120 90 4c 67
        E 0 90 64 67
        E 120 80 4c 00
        E 0 80 64 00
        E 0 90 64 65
        E 360 80 64 00
        E 120 90 1d 65
        E 0 90 35 65
        E 0 90 4d 65
        E 0 90 65 65
        E 120 80 1d 00
        E 0 80 35 00
        E 0 80 4d 00
        E 0 80 65 00
        E 360 90 1d 65
        E 0 90 35 65
        E 0 90 4d 65
        E 0 90 65 65
        E 120 80 1d 00
        E 0 80 35 00
        E 0 80 4d 00
        E 0 80 65 00
        E 240 90 4d 65
        E 0 90 65 65
        E 120 80 4d 00
        E 0 80 65 00
        E 120 90 34 67
        E 0 90 4c 67
        E 0 90 64 67
        E 120 80 34 00
        E 0 80 4c 00
        E 0 80 64 00
        E 120 90 4c 64
        E 0 90 64 64
        E 120 80 4c 00
        E 0 80 64 00
        E 0 90 65 67
        E 120 80 65 00
        E 120 90 4d 67
        E 0 90 65 67
        E 120 80 4d 00
        E 0 80 65 00
        E 120 90 1d 64
        E 0 90 35 64
        E 0 90 4d 64
        E 0 90 65 64
        E 120 80 1d 00
        E 0 80 35 00
        E 0 80 4d 00
        E 0 80 65 00
        E 1080 90 4d 64
        E 0 90 65 64
        E 120 80 4d 00
        E 0 80 65 00
        E 120 90 35 65
        E 0 90 4d 65
        E 0 90 65 65
        E 120 80 35 00
        E 0 80 4d 00
        E 0 80 65 00
        E 120 90 4d 66
        E 0 90 65 66
        E 0 90 6c 66
        E 120 80 4d 00
        E 0 80 65 00
        E 0 80 6c 00
        E 120 90 1d 68
        E 0 90 35 68
        E 0 90 4d 68
        E 0 90 65 68
        E 120 80 1d 00
        E 0 80 35 00
        E 0 80 4d 00
        E 0 80 65 00
        E 360 90 1d 68
        E 0 90 35 68
        E 0 90 4d 68
        E 0 90 65 68
        E 120 80 1d 00
        E 0 80 35 00
        E 0 80 4d 00
        E 0 80 65 00
        E 240 90 4d 68
        E 0 90 65 68
        E 120 80 4d 00
        E 0 80 65 00
        E 120 90 35 66
        E 0 90 4d 66
        E 0 90 65 66
        E 120 80 35 00
        E 0 80 4d 00
        E 0 80 65 00
        E 240 90 35 66
        E 0 90 4d 66
        E 0 90 65 66
        E 120 80 35 00
        E 0 80 4d 00
        E 0 80 65 00
        E 120 90 4d 68
        E 0 90 65 68
        E 120 80 4d 00
        E 0 80 65 00
        E 120 90 1d 64
        E 0 90 35 64
        E 0 90 4d 64
        E 0 90 65 64
        E 120 80 1d 00
        E 0 80 35 00
        E 0 80 4d 00
        E 0 80 65 00
        E 120 90 4d 64
        E 0 90 65 64
        E 120 80 4d 00
        E 0 80 65 00
        E 120 90 35 64
        E 0 90 4d 64
        E 0 90 65 64
        E 120 80 35 00
        E 0 80 4d 00
        E 0 80 65 00
        E 0 90 64 67
        E 120 80 64 00
        E 120 90 4d 64
        E 0 90 65 64
        E 120 80 4d 00
        E 0 80 65 00
        E 240 90 4c 65
        E 0 90 64 65
        E 0 90 6c 65
        E 0 90 74 60
        E 120 80 4c 00
        E 0 80 64 00
        E 0 80 6c 00
        E 120 90 34 67
        E 0 90 4c 67
        E 0 90 64 67
        E 120 80 34 00
        E 0 80 4c 00
        E 0 80 64 00
        E 120 90 4d 64
        E 0 90 65 64
        E 120 80 4d 00
        E 0 80 65 00
        E 120 90 1d 66
        E 0 90 35 66
        E 0 90 4d 66
        E 0 90 65 66
        E 120 80 1d 00
        E 0 80 35 00
        E 0 80 4d 00
        E 0 80 65 00
        E 360 90 1d 66
        E 0 90 35 66
        E 0 90 4d 66
        E 0 90 65 66
        E 120 80 1d 00
        E 0 80 35 00
        E 0 80 4d 00
        E 0 80 65 00
        E 240 90 4d 66
        E 0 90 65 66
        E 120 80 4d 00
        E 0 80 65 00
        E 120 90 4d 64
        E 0 90 65 64
        E 120 80 4d 00
        E 0 80 65 00
        E 240 90 1c 67
        E 0 90 34 67
        E 0 90 4c 67
        E 0 90 64 67
        E 120 80 1c 00
        E 0 80 34 00
        E 0 80 4c 00
        E 0 80 64 00
        E 120 90 4c 65
        E 0 90 64 65
        E 120 80 4c 00
        E 0 80 64 00
        E 360 90 4c 67
        E 0 90 64 67
        E 120 80 4c 00
        E 0 80 64 00
        E 120 90 35 64
        E 0 90 4d 64
        E 0 90 65 64
        E 120 80 35 00
        E 0 80 4d 00
        E 0 80 65 00
        E 120 90 4d 65
        E 0 90 65 65
        E 120 80 4d 00
        E 0 80 65 00
        E 120 90 1d 66
        E 0 90 35 66
        E 0 90 4d 66
        E 0 90 65 66
        E 120 80 74 00
        E 0 80 1d 00
        E 0 80 35 00
        E 0 80 4d 00
        E 360 80 65 00
        E 120 90 4c 64
        E 0 90 64 64
        E 120 80 4c 00
        E 0 80 64 00
        E 240 90 1d 70
        E 0 90 35 70
        E 0 90 4d 70
        E 0 90 65 70
        E 0 90 6c 6e
        E 120 80 1d 00
        E 0 80 35 00
        E 0 80 4d 00
        E 0 80 65 00
        E 0 80 6c 00
        E 360 90 1d 70
        E 0 90 35 70
        E 0 90 4d 70
        E 0 90 65 70
        E 120 80 1d 00
        E 0 80 35 00
        E 0 80 4d 00
        E 0 80 65 00
        E 240 90 4d 70
        E 0 90 65 70
        E 120 80 4d 00
        E 0 80 65 00
        E 120 90 35 6e
        E 0 90 4d 6e
        E 0 90 65 6e
        E 120 80 35 00
        E 0 80 4d 00
        E 0 80 65 00
        E 240 90 1d 6e
        E 0 90 35 6e
        E 0 90 4d 6e
        E 0 90 65 6e
        E 120 80 1d 00
        E 0 80 35 00
        E 0 80 4d 00
        E 0 80 65 00
        E 120 90 4d 70
        E 0 90 65 70
        E 120 80 4d 00
        E 0 80 65 00
        E 120 90 1d 6e
        E 0 90 35 6e
        E 0 90 4d 6e
        E 0 90 65 6e
        E 120 80 1d 00
        E 0 80 35 00
        E 0 80 4d 00
        E 0 80 65 00
        E 120 90 4c 71
        E 0 90 64 71
        E 120 80 4c 00
        E 0 80 64 00
        E 120 90 34 71
        E 0 90 4c 71
        E 0 90 64 71
        E 120 80 34 00
        E 0 80 4c 00
        E 0 80 64 00
        E 0 90 64 70
        E 120 80 64 00
        E 120 90 4c 71
        E 0 90 64 71
        E 120 80 4c 00
        E 0 80 64 00
        E 240 90 4b 72
        E 0 90 63 72
        E 120 80 4b 00
        E 0 80 63 00
        E 120 90 34 70
        E 0 90 4c 70
        E 0 90 64 70
        E 120 80 34 00
        E 0 80 4c 00
        E 0 80 64 00
        E 120 90 4c 71
        E 0 90 64 71
        E 120 80 4c 00
        E 0 80 64 00
        E 120 90 1d 6e
        E 0 90 35 6e
        E 0 90 4d 6e
        E 0 90 65 6e
        E 120 80 1d 00
        E 0 80 35 00
        E 0 80 4d 00
        E 0 80 65 00
        E 360 90 1d 6e
        E 0 90 35 6e
        E 0 90 4d 6e
        E 0 90 65 6e
        E 120 80 1d 00
        E 0 80 35 00
        E 0 80 4d 00
        E 0 80 65 00
        E 240 90 4d 6e
        E 0 90 65 6e
        E 120 80 4d 00
        E 0 80 65 00
        E 120 90 4c 71
        E 0 90 64 71
        E 120 80 4c 00
        E 0 80 64 00
        E 240 90 1c 70
        E 0 90 34 70
        E 0 90 4c 70
        E 0 90 64 70
        E 120 80 1c 00
        E 0 80 34 00
        E 0 80 4c 00
        E 0 80 64 00
        E 120 90 4b 72
        E 0 90 63 72
        E 120 80 4b 00
        E 0 80 63 00
        E 360 90 4c 70
        E 0 90 64 70
        E 120 80 4c 00
        E 0 80 64 00
        E 120 90 34 71
        E 0 90 4c 71
        E 0 90 64 71
        E 120 80 34 00
        E 0 80 4c 00
        E 0 80 64 00
        E 120 90 4c 72
        E 0 90 64 72
        E 120 80 4c 00
        E 0 80 64 00
        E 120 90 1c 73
        E 0 90 34 73
        E 0 90 4c 73
        E 0 90 64 73
        E 120 80 1c 00
        E 0 80 34 00
        E 0 80 4c 00
        E 0 80 64 00
        E 480 90 4d 67
        E 0 90 65 67
        E 0 90 6c 65
        E 120 80 4d 00
        E 0 80 65 00
        E 0 80 6c 00
        E 240 90 1d 67
        E 0 90 35 67
        E 0 90 4d 67
        E 0 90 65 67
        E 120 80 1d 00
        E 0 80 35 00
        E 0 80 4d 00
        E 0 80 65 00
        E 360 90 1d 67
        E 0 90 35 67
        E 0 90 4d 67
        E 0 90 65 67
        E 120 80 1d 00
        E 0 80 35 00
        E 0 80 4d 00
        E 0 80 65 00
        E 240 90 4d 67
        E 0 90 65 67
        E 120 80 4d 00
        E 0 80 65 00
        E 120 90 35 64
        E 0 90 4d 64
        E 0 90 65 64
        E 120 80 35 00
        E 0 80 4d 00
        E 0 80 65 00
        E 120 90 4d 64
        E 0 90 65 64
        E 120 80 4d 00
        E 0 80 65 00
        E 0 90 64 65
        E 360 80 64 00
        E 120 90 1d 66
        E 0 90 35 66
        E 0 90 4d 66
        E 0 90 65 66
        E 120 80 1d 00
        E 0 80 35 00
        E 0 80 4d 00
        E 0 80 65 00
        E 360 90 1d 66
        E 0 90 35 66
        E 0 90 4d 66
        E 0 90 65 66
        E 120 80 1d 00
        E 0 80 35 00
        E 0 80 4d 00
        E 0 80 65 00
        E 240 90 4d 66
        E 0 90 65 66
        E 120 80 4d 00
        E 0 80 65 00
        E 120 90 34 67
        E 0 90 4c 67
        E 0 90 64 67
        E 120 80 34 00
        E 0 80 4c 00
        E 0 80 64 00
        E 120 90 4c 67
        E 0 90 64 67
        E 120 80 4c 00
        E 0 80 64 00
        E 0 90 64 65
        E 360 80 64 00
        E 120 90 1d 65
        E 0 90 35 65
        E 0 90 4d 65
        E 0 90 65 65
        E 120 80 1d 00
        E 0 80 35 00
        E 0 80 4d 00
        E 0 80 65 00
        E 360 90 1d 65
        E 0 90 35 65
        E 0 90 4d 65
        E 0 90 65 65
        E 120 80 1d 00
        E 0 80 35 00
        E 0 80 4d 00
        E 0 80 65 00
        E 240 90 4d 65
        E 0 90 65 65
        E 120 80 4d 00
        E 0 80 65 00
        E 120 90 34 67
        E 0 90 4c 67
        E 0 90 64 67
        E 120 80 34 00
        E 0 80 4c 00
        E 0 80 64 00
        E 120 90 4c 64
        E 0 90 64 64
        E 120 80 4c 00
        E 0 80 64 00
        E 0 90 65 67
        E 120 80 65 00
        E 120 90 4d 67
        E 0 90 65 67
        E 120 80 4d 00
        E 0 80 65 00
        E 120 90 1d 64
        E 0 90 35 64
        E 0 90 4d 64
        E 0 90 65 64
        E 120 80 1d 00
        E 0 80 35 00
        E 0 80 4d 00
        E 0 80 65 00
        E 1800 90 1d 67
        E 0 90 35 67
        E 0 90 4d 67
        E 0 90 65 67
        E 120 80 1d 00
        E 0 80 35 00
        E 0 80 4d 00
        E 0 80 65 00
        E 360 90 1d 67
        E 0 90 35 67
        E 0 90 4d 67
        E 0 90 65 67
        E 120 80 1d 00
        E 0 80 35 00
        E 0 80 4d 00
        E 0 80 65 00
        E 240 90 4d 67
        E 0 90 65 67
        E 120 80 4d 00
        E 0 80 65 00
        E 120 90 35 64
        E 0 90 4d 64
        E 0 90 65 64
        E 120 80 35 00
        E 0 80 4d 00
        E 0 80 65 00
        E 120 90 4d 64
        E 0 90 65 64
        E 120 80 4d 00
        E 0 80 65 00
        E 0 90 64 65
        E 360 80 64 00
        E 120 90 1d 66
        E 0 90 35 66
        E 0 90 4d 66
        E 0 90 65 66
        E 120 80 1d 00
        E 0 80 35 00
        E 0 80 4d 00
        E 0 80 65 00
        E 360 90 1d 66
        E 0 90 35 66
        E 0 90 4d 66
        E 0 90 65 66
        E 120 80 1d 00
        E 0 80 35 00
        E 0 80 4d 00
        E 0 80 65 00
        E 240 90 4d 66
        E 0 90 65 66
        E 120 80 4d 00
        E 0 80 65 00
        E 120 90 34 67
        E 0 90 4c 67
        E 0 90 64 67
        E 120 80 34 00
        E 0 80 4c 00
        E 0 80 64 00
        E 120 90 4c 67
        E 0 90 64 67
        E 120 80 4c 00
        E 0 80 64 00
        E 0 90 64 65
        E 360 80 64 00
        E 120 90 1d 65
        E 0 90 35 65
        E 0 90 4d 65
        E 0 90 65 65
        E 120 80 1d 00
        E 0 80 35 00
        E 0 80 4d 00
        E 0 80 65 00
        E 360 90 1d 65
        E 0 90 35 65
        E 0 90 4d 65
        E 0 90 65 65
        E 120 80 1d 00
        E 0 80 35 00
        E 0 80 4d 00
        E 0 80 65 00
        E 240 90 4d 65
        E 0 90 65 65
        E 120 80 4d 00
        E 0 80 65 00
        E 120 90 34 67
        E 0 90 4c 67
        E 0 90 64 67
        E 120 80 34 00
        E 0 80 4c 00
        E 0 80 64 00
        E 120 90 4c 64
        E 0 90 64 64
        E 120 80 4c 00
        E 0 80 64 00
        E 0 90 65 67
        E 120 80 65 00
        E 120 90 4d 67
        E 0 90 65 67
        E 120 80 4d 00
        E 0 80 65 00
        E 120 90 1d 64
        E 0 90 35 64
        E 0 90 4d 64
        E 0 90 65 64
        E 120 80 1d 00
        E 0 80 35 00
        E 0 80 4d 00
        E 0 80 65 00
        E 1800 b0 7b 00
        GUID {82E272F0-FB57-4FC8-A6E5-78EC512D5E01}
        IGNTEMPO 0 120.00000000 4 4
        SRCCOLOR 13
        VELLANE 132 128 60
        COLORMAP "C:\Program Files\REAPER (x64)\Data\color_maps\rockband_guitarbass.png"
        CFGEDITVIEW -6761.581848 12.955548 7 12 0 0 0
        CFGEDIT 1 1 0 1 1 0 1 1 1 1 1 0.25000000 -8 -8 1544 872 0 2 1 1 0.00000000 0 1 0 0 0.500000 0 0 1.000000 64
        KEYSNAP 0 6 "102030050700" 0 "Pentatonic"
        EVTFILTER 0 -1 -1 -1 -1 0 1 0 0 -1.00000000 -1.00000000
      >
    >
  >
  <TRACK '{B845C6F4-A765-4578-A9E6-7D898DA57A40}'
    NAME "EVENTS"
    PEAKCOL 16576
    BEAT -1
    AUTOMODE 0
    VOLPAN 1.00000000000000 0.00000000000000 -1.00000000000000 -1.00000000000000 1.00000000000000
    MUTESOLO 0 0 0
    IPHASE 0
    ISBUS 0 0
    BUSCOMP 0 0
    SHOWINMIX 1 0.666700 0.500000 1 0.500000 -1 -1 -1
    FREEMODE 0
    SEL 0
    REC 0 0 0 0 0 0 0
    VU 2
    TRACKHEIGHT 0 0
    INQ 0 0 0 0.5000000000 100 0 0 100
    NCHAN 2
    FX 1
    TRACKID {B845C6F4-A765-4578-A9E6-7D898DA57A40}
    PERF 0
    MIDIOUT -1
    <MIDINOTENAMES
      0 26 "Hi-Hat"
      0 25 "Snare"
      0 24 "Kick"
    >
    MAINSEND 1 0
    <FXCHAIN
      SHOW 0
      LASTSEL 0
      DOCKED 0
    >
    <ITEM
      POSITION 0.00000000000000
      SNAPOFFS 0.00000000000000
      LENGTH 96.00000000000000
      LOOP 0
      ALLTAKES 0
      SEL 0
      FADEIN 1 0.000000 0.000000 1 0
      FADEOUT 1 0.000000 0.000000 1 0
      MUTE 0
      IGUID {CEF4C7DC-2869-4C8F-B973-900C712D84C0}
      IID 12
      NAME "EVENTS"
      VOLPAN 1.000000 0.000000 1.000000 -1.000000
      SOFFS 0.00000000000000 0.00000000000000
      PLAYRATE 1.00000000000000 1 0.00000000000000 -1
      CHANMODE 0
      GUID {CF952540-4578-4208-860C-FE1A84FE5594}
      <SOURCE MIDI
        HASDATA 1 480 QN
        POOLEDEVTS {B6BE62BC-20CA-4B03-B35F-AF99D482771C}
        <X 0 0
          /wNFVkVOVFM=
        >
        E 0 90 1a 60
        E 120 80 1a 00
        E 840 90 1a 60
        E 120 80 1a 00
        E 840 90 1a 60
        E 120 80 1a 00
        E 360 90 1a 60
        E 120 80 1a 00
        E 360 90 1a 60
        E 120 80 1a 00
        E 360 90 1a 60
        E 120 80 1a 00
        <X 360 0
          /wFbcHJjX2ludHJvXQ==
        >
        E 0 90 19 60
        E 120 80 19 00
        <X 840 0
          /wFbY3Jvd2Rfbm9ybWFsXQ==
        >
        E 0 90 19 60
        E 120 80 19 00
        E 840 90 19 60
        E 120 80 19 00
        E 840 90 19 60
        E 120 80 19 00
        <X 840 0
          /wFbcHJjX3ZlcnNlXzFhXQ==
        >
        E 0 90 1a 60
        E 120 80 1a 00
        E 120 90 19 60
        E 120 80 19 00
        E 120 90 1a 60
        E 120 80 1a 00
        E 120 90 19 60
        E 120 80 19 00
        <X 120 0
          /wFbbXVzaWNfc3RhcnRd
        >
        E 0 90 1a 60
        E 120 80 1a 00
        E 120 90 19 60
        E 120 80 19 00
        E 120 90 1a 60
        E 120 80 1a 00
        E 120 90 19 60
        E 120 80 19 00
        E 120 90 1a 60
        E 120 80 1a 00
        E 120 90 19 60
        E 120 80 19 00
        E 120 90 1a 60
        E 120 80 1a 00
        E 120 90 19 60
        E 120 80 19 00
        E 120 90 1a 60
        E 120 80 1a 00
        E 120 90 19 60
        E 120 80 19 00
        E 120 90 1a 60
        E 120 80 1a 00
        E 120 90 19 60
        E 120 80 19 00
        E 120 90 1a 60
        E 120 80 1a 00
        E 120 90 19 60
        E 120 80 19 00
        E 120 90 1a 60
        E 120 80 1a 00
        E 120 90 19 60
        E 120 80 19 00
        E 120 90 1a 60
        E 120 80 1a 00
        E 120 90 19 60
        E 120 80 19 00
        E 120 90 1a 60
        E 120 80 1a 00
        E 120 90 19 60
        E 120 80 19 00
        E 120 90 1a 60
        E 120 80 1a 00
        E 120 90 19 60
        E 120 80 19 00
        E 120 90 1a 60
        E 120 80 1a 00
        E 120 90 19 60
        E 120 80 19 00
        E 120 90 19 60
        E 80 80 19 00
        E 0 90 19 60
        E 80 80 19 00
        E 0 90 19 60
        E 80 80 19 00
        E 0 90 19 60
        E 80 80 19 00
        E 80 90 19 60
        E 80 80 19 00
        E 0 90 19 60
        E 80 80 19 00
        E 80 90 19 60
        E 80 80 19 00
        E 0 90 19 60
        E 80 80 19 00
        E 80 90 19 60
        E 80 80 19 00
        E 0 90 1a 60
        E 120 80 1a 00
        E 120 90 19 60
        E 120 80 19 00
        E 120 90 1a 60
        E 120 80 1a 00
        E 120 90 19 60
        E 120 80 19 00
        E 120 90 1a 60
        E 120 80 1a 00
        E 120 90 19 60
        E 120 80 19 00
        E 120 90 1a 60
        E 120 80 1a 00
        E 120 90 19 60
        E 120 80 19 00
        E 120 90 1a 60
        E 120 80 1a 00
        E 120 90 19 60
        E 120 80 19 00
        E 120 90 1a 60
        E 120 80 1a 00
        E 120 90 19 60
        E 120 80 19 00
        E 120 90 1a 60
        E 120 80 1a 00
        E 120 90 19 60
        E 120 80 19 00
        E 120 90 1a 60
        E 120 80 1a 00
        E 120 90 19 60
        E 120 80 19 00
        E 120 90 1a 60
        E 120 80 1a 00
        E 120 90 19 60
        E 120 80 19 00
        E 120 90 1a 60
        E 120 80 1a 00
        E 120 90 19 60
        E 120 80 19 00
        E 120 90 1a 60
        E 120 80 1a 00
        E 120 90 19 60
        E 120 80 19 00
        E 120 90 1a 60
        E 120 80 1a 00
        E 120 90 19 60
        E 120 80 19 00
        E 120 90 1a 60
        E 120 80 1a 00
        E 120 90 19 60
        E 120 80 19 00
        E 120 90 1a 60
        E 120 80 1a 00
        E 120 90 19 60
        E 120 80 19 00
        E 120 90 19 60
        E 80 80 19 00
        E 0 90 19 60
        E 80 80 19 00
        E 0 90 19 60
        E 80 80 19 00
        E 0 90 19 60
        E 80 80 19 00
        E 80 90 19 60
        E 80 80 19 00
        E 0 90 19 60
        E 80 80 19 00
        E 80 90 19 60
        E 80 80 19 00
        E 0 90 19 60
        E 80 80 19 00
        E 80 90 19 60
        <X 80 0
          /wFbcHJjX3ZlcnNlXzJhXQ==
        >
        E 0 80 19 00
        E 0 90 1a 60
        E 120 80 1a 00
        E 120 90 19 60
        E 120 80 19 00
        E 120 90 1a 60
        E 120 80 1a 00
        E 120 90 19 60
        E 120 80 19 00
        E 120 90 1a 60
        E 120 80 1a 00
        E 120 90 19 60
        E 120 80 19 00
        E 120 90 1a 60
        E 120 80 1a 00
        E 120 90 19 60
        E 120 80 19 00
        E 120 90 1a 60
        E 120 80 1a 00
        E 120 90 19 60
        E 120 80 19 00
        E 120 90 1a 60
        E 120 80 1a 00
        E 120 90 19 60
        E 120 80 19 00
        E 120 90 1a 60
        E 120 80 1a 00
        E 120 90 19 60
        E 120 80 19 00
        E 120 90 1a 60
        E 120 80 1a 00
        E 120 90 19 60
        E 120 80 19 00
        E 120 90 1a 60
        E 120 80 1a 00
        E 120 90 19 60
        E 120 80 19 00
        E 120 90 1a 60
        E 120 80 1a 00
        E 120 90 19 60
        E 120 80 19 00
        E 120 90 1a 60
        E 120 80 1a 00
        E 120 90 19 60
        E 120 80 19 00
        E 120 90 1a 60
        E 120 80 1a 00
        E 120 90 19 60
        E 120 80 19 00
        E 120 90 1a 60
        E 120 80 1a 00
        E 120 90 19 60
        E 120 80 19 00
        E 120 90 19 60
        E 120 80 19 00
        E 120 90 19 60
        E 120 80 19 00
        E 120 90 1a 60
        E 120 80 1a 00
        E 120 90 1a 60
        E 120 80 1a 00
        E 360 90 1a 60
        E 120 80 1a 00
        <X 120 0
          /wFbcHJjX3ZlcnNlXzNhXQ==
        >
        E 0 90 1a 60
        E 120 80 1a 00
        E 120 90 19 60
        E 120 80 19 00
        E 120 90 1a 60
        E 120 80 1a 00
        E 120 90 19 60
        E 120 80 19 00
        E 120 90 1a 60
        E 120 80 1a 00
        E 120 90 19 60
        E 120 80 19 00
        E 120 90 1a 60
        E 120 80 1a 00
        E 120 90 19 60
        E 120 80 19 00
        E 120 90 1a 60
        E 120 80 1a 00
        E 120 90 19 60
        E 120 80 19 00
        E 120 90 1a 60
        E 120 80 1a 00
        E 120 90 19 60
        E 120 80 19 00
        E 120 90 1a 60
        E 120 80 1a 00
        E 120 90 19 60
        E 120 80 19 00
        E 120 90 1a 60
        E 120 80 1a 00
        E 120 90 19 60
        E 120 80 19 00
        E 120 90 1a 60
        E 120 80 1a 00
        E 120 90 19 60
        E 120 80 19 00
        E 120 90 1a 60
        E 120 80 1a 00
        E 120 90 19 60
        E 120 80 19 00
        E 120 90 1a 60
        E 120 80 1a 00
        E 120 90 19 60
        E 120 80 19 00
        E 120 90 1a 60
        E 120 80 1a 00
        E 120 90 19 60
        E 120 80 19 00
        E 120 90 1a 60
        E 120 80 1a 00
        E 120 90 19 60
        E 120 80 19 00
        E 120 90 19 60
        E 120 80 19 00
        E 120 90 19 60
        E 120 80 19 00
        E 120 90 1a 60
        E 120 80 1a 00
        E 120 90 1a 60
        E 120 80 1a 00
        E 360 90 1a 60
        E 120 80 1a 00
        E 120 90 1a 60
        E 120 80 1a 00
        E 120 90 19 60
        E 120 80 19 00
        E 120 90 1a 60
        E 120 80 1a 00
        E 120 90 19 60
        E 120 80 19 00
        E 120 90 1a 60
        E 120 80 1a 00
        E 120 90 19 60
        E 120 80 19 00
        <X 120 0
          /wFbcHJjX3ZlcnNlXzFiXQ==
        >
        E 0 90 1a 60
        E 120 80 1a 00
        E 120 90 19 60
        E 120 80 19 00
        E 120 90 1a 60
        E 120 80 1a 00
        E 120 90 19 60
        E 120 80 19 00
        E 120 90 1a 60
        E 120 80 1a 00
        E 120 90 19 60
        E 120 80 19 00
        E 120 90 1a 60
        E 120 80 1a 00
        E 120 90 19 60
        E 120 80 19 00
        E 120 90 1a 60
        E 120 80 1a 00
        E 120 90 19 60
        E 120 80 19 00
        E 120 90 1a 60
        E 120 80 1a 00
        E 120 90 19 60
        E 120 80 19 00
        E 120 90 1a 60
        E 120 80 1a 00
        E 120 90 19 60
        E 120 80 19 00
        E 120 90 1a 60
        E 120 80 1a 00
        E 120 90 19 60
        E 120 80 19 00
        E 120 90 1a 60
        E 120 80 1a 00
        E 120 90 19 60
        E 120 80 19 00
        E 120 90 1a 60
        E 120 80 1a 00
        E 120 90 19 60
        E 120 80 19 00
        E 120 90 1a 60
        E 120 80 1a 00
        E 120 90 19 60
        E 120 80 19 00
        E 120 90 19 60
        E 80 80 19 00
        E 0 90 19 60
        E 80 80 19 00
        E 0 90 19 60
        E 80 80 19 00
        E 0 90 19 60
        E 80 80 19 00
        E 80 90 19 60
        E 80 80 19 00
        E 0 90 19 60
        E 80 80 19 00
        E 80 90 19 60
        E 80 80 19 00
        E 0 90 19 60
        E 80 80 19 00
        E 80 90 19 60
        E 80 80 19 00
        E 0 90 1a 60
        E 120 80 1a 00
        E 120 90 19 60
        E 120 80 19 00
        E 120 90 1a 60
        E 120 80 1a 00
        E 120 90 19 60
        E 120 80 19 00
        E 120 90 1a 60
        E 120 80 1a 00
        E 120 90 19 60
        E 120 80 19 00
        E 120 90 1a 60
        E 120 80 1a 00
        E 120 90 19 60
        E 120 80 19 00
        E 120 90 1a 60
        E 120 80 1a 00
        E 120 90 19 60
        E 120 80 19 00
        E 120 90 1a 60
        E 120 80 1a 00
        E 120 90 19 60
        E 120 80 19 00
        E 120 90 1a 60
        E 120 80 1a 00
        E 120 90 19 60
        E 120 80 19 00
        E 120 90 1a 60
        E 120 80 1a 00
        E 120 90 19 60
        E 120 80 19 00
        E 120 90 1a 60
        E 120 80 1a 00
        E 120 90 19 60
        E 120 80 19 00
        E 120 90 1a 60
        E 120 80 1a 00
        E 120 90 19 60
        E 120 80 19 00
        E 120 90 1a 60
        E 120 80 1a 00
        E 120 90 19 60
        E 120 80 19 00
        E 120 90 1a 60
        E 120 80 1a 00
        E 120 90 19 60
        E 120 80 19 00
        E 120 90 1a 60
        E 120 80 1a 00
        E 120 90 19 60
        E 120 80 19 00
        E 120 90 1a 60
        E 120 80 1a 00
        E 120 90 19 60
        E 120 80 19 00
        E 120 90 19 60
        E 80 80 19 00
        E 0 90 19 60
        E 80 80 19 00
        E 0 90 19 60
        E 80 80 19 00
        E 0 90 19 60
        E 80 80 19 00
        E 80 90 19 60
        E 80 80 19 00
        E 0 90 19 60
        E 80 80 19 00
        E 80 90 19 60
        E 80 80 19 00
        E 0 90 19 60
        E 80 80 19 00
        E 80 90 19 60
        <X 80 0
          /wFbcHJjX3ZlcnNlXzJiXQ==
        >
        E 0 80 19 00
        E 0 90 1a 60
        E 120 80 1a 00
        E 120 90 19 60
        E 120 80 19 00
        E 120 90 1a 60
        E 120 80 1a 00
        E 120 90 19 60
        E 120 80 19 00
        E 120 90 1a 60
        E 120 80 1a 00
        E 120 90 19 60
        E 120 80 19 00
        E 120 90 1a 60
        E 120 80 1a 00
        E 120 90 19 60
        E 120 80 19 00
        E 120 90 1a 60
        E 120 80 1a 00
        E 120 90 19 60
        E 120 80 19 00
        E 120 90 1a 60
        E 120 80 1a 00
        E 120 90 19 60
        E 120 80 19 00
        E 120 90 1a 60
        E 120 80 1a 00
        E 120 90 19 60
        E 120 80 19 00
        E 120 90 1a 60
        E 120 80 1a 00
        E 120 90 19 60
        E 120 80 19 00
        E 120 90 1a 60
        E 120 80 1a 00
        E 120 90 19 60
        E 120 80 19 00
        E 120 90 1a 60
        E 120 80 1a 00
        E 120 90 19 60
        E 120 80 19 00
        E 120 90 1a 60
        E 120 80 1a 00
        E 120 90 19 60
        E 120 80 19 00
        E 120 90 1a 60
        E 120 80 1a 00
        E 120 90 19 60
        E 120 80 19 00
        E 120 90 1a 60
        E 120 80 1a 00
        E 120 90 19 60
        E 120 80 19 00
        E 120 90 19 60
        E 120 80 19 00
        E 120 90 19 60
        E 120 80 19 00
        E 120 90 1a 60
        E 120 80 1a 00
        E 120 90 1a 60
        E 120 80 1a 00
        E 360 90 1a 60
        E 120 80 1a 00
        <X 120 0
          /wFbcHJjX3ZlcnNlXzNiXQ==
        >
        E 0 90 1a 60
        E 120 80 1a 00
        E 120 90 19 60
        E 120 80 19 00
        E 120 90 1a 60
        E 120 80 1a 00
        E 120 90 19 60
        E 120 80 19 00
        E 120 90 1a 60
        E 120 80 1a 00
        E 120 90 19 60
        E 120 80 19 00
        E 120 90 1a 60
        E 120 80 1a 00
        E 120 90 19 60
        E 120 80 19 00
        E 120 90 1a 60
        E 120 80 1a 00
        E 120 90 19 60
        E 120 80 19 00
        E 120 90 1a 60
        E 120 80 1a 00
        E 120 90 19 60
        E 120 80 19 00
        E 120 90 1a 60
        E 120 80 1a 00
        E 120 90 19 60
        E 120 80 19 00
        E 120 90 1a 60
        E 120 80 1a 00
        E 120 90 19 60
        E 120 80 19 00
        E 120 90 1a 60
        E 120 80 1a 00
        E 120 90 19 60
        E 120 80 19 00
        E 120 90 1a 60
        E 120 80 1a 00
        E 120 90 19 60
        E 120 80 19 00
        E 120 90 1a 60
        E 120 80 1a 00
        E 120 90 19 60
        E 120 80 19 00
        E 120 90 1a 60
        E 120 80 1a 00
        E 120 90 19 60
        E 120 80 19 00
        E 120 90 1a 60
        E 120 80 1a 00
        E 120 90 19 60
        E 120 80 19 00
        E 120 90 19 60
        E 120 80 19 00
        E 120 90 19 60
        E 120 80 19 00
        E 120 90 1a 60
        E 120 80 1a 00
        E 120 90 1a 60
        E 120 80 1a 00
        E 360 90 1a 60
        E 120 80 1a 00
        <X 120 0
          /wFbcHJjX3ZlcnNlXzFjXQ==
        >
        E 0 90 1a 60
        E 120 80 1a 00
        E 120 90 19 60
        E 120 80 19 00
        E 120 90 1a 60
        E 120 80 1a 00
        E 120 90 19 60
        E 120 80 19 00
        E 120 90 1a 60
        E 120 80 1a 00
        E 120 90 19 60
        E 120 80 19 00
        E 120 90 1a 60
        E 120 80 1a 00
        E 120 90 19 60
        E 120 80 19 00
        E 120 90 1a 60
        E 120 80 1a 00
        E 120 90 19 60
        E 120 80 19 00
        E 120 90 1a 60
        E 120 80 1a 00
        E 120 90 19 60
        E 120 80 19 00
        E 120 90 1a 60
        E 120 80 1a 00
        E 120 90 19 60
        E 120 80 19 00
        E 120 90 1a 60
        E 120 80 1a 00
        E 120 90 19 60
        E 120 80 19 00
        E 120 90 1a 60
        E 120 80 1a 00
        E 120 90 19 60
        E 120 80 19 00
        E 120 90 1a 60
        E 120 80 1a 00
        E 120 90 19 60
        E 120 80 19 00
        E 120 90 1a 60
        E 120 80 1a 00
        E 120 90 19 60
        E 120 80 19 00
        E 120 90 1a 60
        E 120 80 1a 00
        E 120 90 19 60
        E 120 80 19 00
        E 120 90 1a 60
        E 120 80 1a 00
        E 120 90 19 60
        E 120 80 19 00
        E 120 90 1a 60
        E 120 80 1a 00
        E 120 90 19 60
        E 120 80 19 00
        E 120 90 19 60
        E 80 80 19 00
        E 0 90 19 60
        E 80 80 19 00
        E 0 90 19 60
        E 80 80 19 00
        E 0 90 19 60
        E 80 80 19 00
        E 80 90 19 60
        E 80 80 19 00
        E 0 90 19 60
        E 80 80 19 00
        E 80 90 19 60
        E 80 80 19 00
        E 0 90 19 60
        E 80 80 19 00
        E 80 90 19 60
        E 80 80 19 00
        E 0 90 1a 60
        E 120 80 1a 00
        E 120 90 19 60
        E 120 80 19 00
        E 120 90 1a 60
        E 120 80 1a 00
        E 120 90 19 60
        E 120 80 19 00
        E 120 90 1a 60
        E 120 80 1a 00
        E 120 90 19 60
        E 120 80 19 00
        E 120 90 1a 60
        E 120 80 1a 00
        E 120 90 19 60
        E 120 80 19 00
        E 120 90 1a 60
        E 120 80 1a 00
        E 120 90 19 60
        E 120 80 19 00
        E 120 90 1a 60
        E 120 80 1a 00
        E 120 90 19 60
        E 120 80 19 00
        E 120 90 1a 60
        E 120 80 1a 00
        E 120 90 19 60
        E 120 80 19 00
        E 120 90 1a 60
        E 120 80 1a 00
        E 120 90 19 60
        E 120 80 19 00
        E 120 90 1a 60
        E 120 80 1a 00
        E 120 90 19 60
        E 120 80 19 00
        E 120 90 1a 60
        E 120 80 1a 00
        E 120 90 19 60
        E 120 80 19 00
        E 120 90 1a 60
        E 120 80 1a 00
        E 120 90 19 60
        E 120 80 19 00
        E 120 90 1a 60
        E 120 80 1a 00
        E 120 90 19 60
        E 120 80 19 00
        E 120 90 1a 60
        E 120 80 1a 00
        E 120 90 19 60
        E 120 80 19 00
        E 120 90 1a 60
        E 120 80 1a 00
        E 120 90 19 60
        E 120 80 19 00
        E 120 90 19 60
        E 80 80 19 00
        E 0 90 19 60
        E 80 80 19 00
        E 0 90 19 60
        E 80 80 19 00
        E 0 90 19 60
        E 80 80 19 00
        E 80 90 19 60
        E 80 80 19 00
        E 0 90 19 60
        E 80 80 19 00
        E 80 90 19 60
        E 80 80 19 00
        E 0 90 19 60
        E 80 80 19 00
        E 80 90 19 60
        <X 80 0
          /wFbcHJjX3ZlcnNlXzJjXQ==
        >
        E 0 80 19 00
        E 0 90 1a 60
        E 120 80 1a 00
        E 120 90 19 60
        E 120 80 19 00
        E 120 90 1a 60
        E 120 80 1a 00
        E 120 90 19 60
        E 120 80 19 00
        E 120 90 1a 60
        E 120 80 1a 00
        E 120 90 19 60
        E 120 80 19 00
        E 120 90 1a 60
        E 120 80 1a 00
        E 120 90 19 60
        E 120 80 19 00
        E 120 90 1a 60
        E 120 80 1a 00
        E 120 90 19 60
        E 120 80 19 00
        E 120 90 1a 60
        E 120 80 1a 00
        E 120 90 19 60
        E 120 80 19 00
        E 120 90 1a 60
        E 120 80 1a 00
        E 120 90 19 60
        E 120 80 19 00
        E 120 90 1a 60
        E 120 80 1a 00
        E 120 90 19 60
        E 120 80 19 00
        E 120 90 1a 60
        E 120 80 1a 00
        E 120 90 19 60
        E 120 80 19 00
        E 120 90 1a 60
        E 120 80 1a 00
        E 120 90 19 60
        E 120 80 19 00
        E 120 90 1a 60
        E 120 80 1a 00
        E 120 90 19 60
        E 120 80 19 00
        E 120 90 1a 60
        E 120 80 1a 00
        E 120 90 19 60
        E 120 80 19 00
        E 120 90 1a 60
        E 120 80 1a 00
        E 120 90 19 60
        E 120 80 19 00
        E 120 90 19 60
        E 120 80 19 00
        E 120 90 19 60
        E 120 80 19 00
        E 120 90 1a 60
        E 120 80 1a 00
        E 120 90 1a 60
        E 120 80 1a 00
        E 360 90 1a 60
        E 120 80 1a 00
        <X 120 0
          /wFbcHJjX3ZlcnNlXzNjXQ==
        >
        E 0 90 1a 60
        E 120 80 1a 00
        E 120 90 19 60
        E 120 80 19 00
        E 120 90 1a 60
        E 120 80 1a 00
        E 120 90 19 60
        E 120 80 19 00
        E 120 90 1a 60
        E 120 80 1a 00
        E 120 90 19 60
        E 120 80 19 00
        E 120 90 1a 60
        E 120 80 1a 00
        E 120 90 19 60
        E 120 80 19 00
        E 120 90 1a 60
        E 120 80 1a 00
        E 120 90 19 60
        E 120 80 19 00
        E 120 90 1a 60
        E 120 80 1a 00
        E 120 90 19 60
        E 120 80 19 00
        E 120 90 1a 60
        E 120 80 1a 00
        E 120 90 19 60
        E 120 80 19 00
        E 120 90 1a 60
        E 120 80 1a 00
        E 120 90 19 60
        E 120 80 19 00
        E 120 90 1a 60
        E 120 80 1a 00
        E 120 90 19 60
        E 120 80 19 00
        E 120 90 1a 60
        E 120 80 1a 00
        E 120 90 19 60
        E 120 80 19 00
        E 120 90 1a 60
        E 120 80 1a 00
        E 120 90 19 60
        E 120 80 19 00
        E 120 90 1a 60
        E 120 80 1a 00
        E 120 90 19 60
        E 120 80 19 00
        E 120 90 1a 60
        E 120 80 1a 00
        E 120 90 19 60
        E 120 80 19 00
        E 120 90 19 60
        E 120 80 19 00
        E 120 90 19 60
        E 120 80 19 00
        E 120 90 1a 60
        E 120 80 1a 00
        E 120 90 1a 60
        E 120 80 1a 00
        E 360 90 1a 60
        E 120 80 1a 00
        <X 120 0
          /wFbcHJjX291dHJvXQ==
        >
        E 0 90 1a 60
        E 120 80 1a 00
        E 120 90 19 60
        E 120 80 19 00
        E 120 90 1a 60
        E 120 80 1a 00
        E 120 90 19 60
        E 120 80 19 00
        E 120 90 1a 60
        E 120 80 1a 00
        E 120 90 19 60
        E 120 80 19 00
        E 120 90 1a 60
        E 120 80 1a 00
        E 120 90 19 60
        E 120 80 19 00
        E 120 90 1a 60
        E 120 80 1a 00
        E 120 90 19 60
        E 120 80 19 00
        E 120 90 1a 60
        E 120 80 1a 00
        E 120 90 19 60
        E 120 80 19 00
        E 120 90 1a 60
        E 120 80 1a 00
        E 120 90 19 60
        E 120 80 19 00
        E 120 90 1a 60
        E 120 80 1a 00
        E 120 90 19 60
        E 120 80 19 00
        E 120 90 1a 60
        E 120 80 1a 00
        E 120 90 19 60
        E 120 80 19 00
        E 120 90 1a 60
        E 120 80 1a 00
        E 120 90 19 60
        E 120 80 19 00
        E 120 90 1a 60
        E 120 80 1a 00
        E 120 90 19 60
        E 120 80 19 00
        E 120 90 1a 60
        E 120 80 1a 00
        E 120 90 19 60
        E 120 80 19 00
        E 120 90 1a 60
        E 120 80 1a 00
        E 120 90 19 60
        E 120 80 19 00
        E 120 90 1a 60
        E 120 80 1a 00
        E 120 90 19 60
        E 120 80 19 00
        E 120 90 19 60
        E 80 80 19 00
        E 0 90 19 60
        E 80 80 19 00
        E 0 90 19 60
        E 80 80 19 00
        E 0 90 19 60
        E 80 80 19 00
        E 80 90 19 60
        E 80 80 19 00
        E 0 90 19 60
        E 80 80 19 00
        E 80 90 19 60
        E 80 80 19 00
        E 0 90 19 60
        E 80 80 19 00
        E 80 90 19 60
        E 80 80 19 00
        E 0 90 1a 60
        E 120 80 1a 00
        E 120 90 19 60
        E 120 80 19 00
        E 120 90 1a 60
        E 120 80 1a 00
        E 120 90 19 60
        E 120 80 19 00
        E 120 90 1a 60
        E 120 80 1a 00
        E 120 90 19 60
        E 120 80 19 00
        E 120 90 1a 60
        E 120 80 1a 00
        E 120 90 19 60
        E 120 80 19 00
        E 120 90 1a 60
        E 120 80 1a 00
        E 120 90 19 60
        E 120 80 19 00
        E 120 90 1a 60
        E 120 80 1a 00
        E 120 90 19 60
        E 120 80 19 00
        E 120 90 1a 60
        E 120 80 1a 00
        E 120 90 19 60
        E 120 80 19 00
        E 120 90 1a 60
        E 120 80 1a 00
        E 120 90 19 60
        E 120 80 19 00
        E 120 90 1a 60
        E 120 80 1a 00
        E 120 90 19 60
        E 120 80 19 00
        E 120 90 1a 60
        E 120 80 1a 00
        E 120 90 19 60
        E 120 80 19 00
        E 120 90 1a 60
        E 120 80 1a 00
        E 120 90 19 60
        E 120 80 19 00
        E 120 90 1a 60
        E 120 80 1a 00
        E 120 90 19 60
        E 120 80 19 00
        E 120 90 1a 60
        E 120 80 1a 00
        <X 120 0
          /wFbY3Jvd2RfcmVhbHRpbWVd
        >
        <X 480 0
          /wFbbXVzaWNfZW5kXQ==
        >
        <X 1195 0
          /wFbZW5kXQ==
        >
        E 5 b0 7b 00
        GUID {C8B83FEC-253F-4BD9-BF9A-4AD667F71AE6}
        IGNTEMPO 0 120.00000000 4 4
        SRCCOLOR 14
        VELLANE 132 128 60
        COLORMAP "C:\Program Files\REAPER (x64)\Data\color_maps\rockband_guitarbass.png"
        CFGEDITVIEW -6761.581848 12.955548 0 48 0 0 0
        CFGEDIT 1 1 0 1 1 0 1 1 1 1 1 0.25000000 -8 -8 1544 872 0 2 1 1 0.00000000 0 1 0 0 0.500000 0 0 1.000000 64
        KEYSNAP 0 6 "102030050700" 0 "Pentatonic"
        EVTFILTER 0 -1 -1 -1 -1 0 1 0 0 -1.00000000 -1.00000000
      >
    >
  >
  <TRACK '{9971919C-EBA1-4935-93F1-DC5CB1E03F04}'
    NAME "BEAT"
    PEAKCOL 16576
    BEAT -1
    AUTOMODE 0
    VOLPAN 1.00000000000000 0.00000000000000 -1.00000000000000 -1.00000000000000 1.00000000000000
    MUTESOLO 0 0 0
    IPHASE 0
    ISBUS 0 0
    BUSCOMP 0 0
    SHOWINMIX 1 0.666700 0.500000 1 0.500000 -1 -1 -1
    FREEMODE 0
    SEL 0
    REC 0 0 0 0 0 0 0
    VU 2
    TRACKHEIGHT 0 0
    INQ 0 0 0 0.5000000000 100 0 0 100
    NCHAN 2
    FX 1
    TRACKID {9971919C-EBA1-4935-93F1-DC5CB1E03F04}
    PERF 0
    MIDIOUT -1
    <MIDINOTENAMES
      0 13 "Up Beats"
      0 12 "Downbeat"
    >
    MAINSEND 1 0
    <FXCHAIN
      SHOW 0
      LASTSEL 0
      DOCKED 0
    >
    <ITEM
      POSITION 0.00000000000000
      SNAPOFFS 0.00000000000000
      LENGTH 96.00000000000000
      LOOP 0
      ALLTAKES 0
      SEL 0
      FADEIN 1 0.000000 0.000000 1 0
      FADEOUT 1 0.000000 0.000000 1 0
      MUTE 0
      IGUID {3C171A4D-7F6A-4B89-849D-AAC13489403A}
      IID 13
      NAME "BEAT"
      VOLPAN 1.000000 0.000000 1.000000 -1.000000
      SOFFS 0.00000000000000 0.00000000000000
      PLAYRATE 1.00000000000000 1 0.00000000000000 -1
      CHANMODE 0
      GUID {64827724-D2D6-49DA-B764-A6EBE8EF8761}
      <SOURCE MIDI
        HASDATA 1 480 QN
        POOLEDEVTS {88600F66-C757-47F8-BB77-537C7625D8D7}
        <X 0 0
          /wNCRUFU
        >
        E 0 96 0c 64
        E 120 86 0c 00
        E 360 96 0d 64
        E 120 86 0d 00
        E 360 96 0d 64
        E 120 86 0d 00
        E 360 96 0d 64
        E 120 86 0d 00
        E 360 96 0c 64
        E 120 86 0c 00
        E 360 96 0d 64
        E 120 86 0d 00
        E 360 96 0d 64
        E 120 86 0d 00
        E 360 96 0d 64
        E 120 86 0d 00
        E 360 96 0c 64
        E 120 86 0c 00
        E 360 96 0d 64
        E 120 86 0d 00
        E 360 96 0d 64
        E 120 86 0d 00
        E 360 96 0d 64
        E 120 86 0d 00
        E 360 96 0c 64
        E 120 86 0c 00
        E 360 96 0d 64
        E 120 86 0d 00
        E 360 96 0d 64
        E 120 86 0d 00
        E 360 96 0d 64
        E 120 86 0d 00
        E 360 96 0c 64
        E 120 86 0c 00
        E 360 96 0d 64
        E 120 86 0d 00
        E 360 96 0d 64
        E 120 86 0d 00
        E 360 96 0d 64
        E 120 86 0d 00
        E 360 96 0c 64
        E 120 86 0c 00
        E 360 96 0d 64
        E 120 86 0d 00
        E 360 96 0d 64
        E 120 86 0d 00
        E 360 96 0d 64
        E 120 86 0d 00
        E 360 96 0c 64
        E 120 86 0c 00
        E 360 96 0d 64
        E 120 86 0d 00
        E 360 96 0d 64
        E 120 86 0d 00
        E 360 96 0d 64
        E 120 86 0d 00
        E 360 96 0c 64
        E 120 86 0c 00
        E 360 96 0d 64
        E 120 86 0d 00
        E 360 96 0d 64
        E 120 86 0d 00
        E 360 96 0d 64
        E 120 86 0d 00
        E 360 96 0c 64
        E 120 86 0c 00
        E 360 96 0d 64
        E 120 86 0d 00
        E 360 96 0d 64
        E 120 86 0d 00
        E 360 96 0d 64
        E 120 86 0d 00
        E 360 96 0c 64
        E 120 86 0c 00
        E 360 96 0d 64
        E 120 86 0d 00
        E 360 96 0d 64
        E 120 86 0d 00
        E 360 96 0d 64
        E 120 86 0d 00
        E 360 96 0c 64
        E 120 86 0c 00
        E 360 96 0d 64
        E 120 86 0d 00
        E 360 96 0d 64
        E 120 86 0d 00
        E 360 96 0d 64
        E 120 86 0d 00
        E 360 96 0c 64
        E 120 86 0c 00
        E 360 96 0d 64
        E 120 86 0d 00
        E 360 96 0d 64
        E 120 86 0d 00
        E 360 96 0d 64
        E 120 86 0d 00
        E 360 96 0c 64
        E 120 86 0c 00
        E 360 96 0d 64
        E 120 86 0d 00
        E 360 96 0d 64
        E 120 86 0d 00
        E 360 96 0d 64
        E 120 86 0d 00
        E 360 96 0c 64
        E 120 86 0c 00
        E 360 96 0d 64
        E 120 86 0d 00
        E 360 96 0d 64
        E 120 86 0d 00
        E 360 96 0d 64
        E 120 86 0d 00
        E 360 96 0c 64
        E 120 86 0c 00
        E 360 96 0d 64
        E 120 86 0d 00
        E 360 96 0d 64
        E 120 86 0d 00
        E 360 96 0d 64
        E 120 86 0d 00
        E 360 96 0c 64
        E 120 86 0c 00
        E 360 96 0d 64
        E 120 86 0d 00
        E 360 96 0d 64
        E 120 86 0d 00
        E 360 96 0d 64
        E 120 86 0d 00
        E 360 96 0c 64
        E 120 86 0c 00
        E 360 96 0d 64
        E 120 86 0d 00
        E 360 96 0d 64
        E 120 86 0d 00
        E 360 96 0d 64
        E 120 86 0d 00
        E 360 96 0c 64
        E 120 86 0c 00
        E 360 96 0d 64
        E 120 86 0d 00
        E 360 96 0d 64
        E 120 86 0d 00
        E 360 96 0d 64
        E 120 86 0d 00
        E 360 96 0c 64
        E 120 86 0c 00
        E 360 96 0d 64
        E 120 86 0d 00
        E 360 96 0d 64
        E 120 86 0d 00
        E 360 96 0d 64
        E 120 86 0d 00
        E 360 96 0c 64
        E 120 86 0c 00
        E 360 96 0d 64
        E 120 86 0d 00
        E 360 96 0d 64
        E 120 86 0d 00
        E 360 96 0d 64
        E 120 86 0d 00
        E 360 96 0c 64
        E 120 86 0c 00
        E 360 96 0d 64
        E 120 86 0d 00
        E 360 96 0d 64
        E 120 86 0d 00
        E 360 96 0d 64
        E 120 86 0d 00
        E 360 96 0c 64
        E 120 86 0c 00
        E 360 96 0d 64
        E 120 86 0d 00
        E 360 96 0d 64
        E 120 86 0d 00
        E 360 96 0d 64
        E 120 86 0d 00
        E 360 96 0c 64
        E 120 86 0c 00
        E 360 96 0d 64
        E 120 86 0d 00
        E 360 96 0d 64
        E 120 86 0d 00
        E 360 96 0d 64
        E 120 86 0d 00
        E 360 96 0c 64
        E 120 86 0c 00
        E 360 96 0d 64
        E 120 86 0d 00
        E 360 96 0d 64
        E 120 86 0d 00
        E 360 96 0d 64
        E 120 86 0d 00
        E 360 96 0c 64
        E 120 86 0c 00
        E 360 96 0d 64
        E 120 86 0d 00
        E 360 96 0d 64
        E 120 86 0d 00
        E 360 96 0d 64
        E 120 86 0d 00
        E 360 96 0c 64
        E 120 86 0c 00
        E 360 96 0d 64
        E 120 86 0d 00
        E 360 96 0d 64
        E 120 86 0d 00
        E 360 96 0d 64
        E 120 86 0d 00
        E 360 96 0c 64
        E 120 86 0c 00
        E 360 96 0d 64
        E 120 86 0d 00
        E 360 96 0d 64
        E 120 86 0d 00
        E 360 96 0d 64
        E 120 86 0d 00
        E 360 96 0c 64
        E 120 86 0c 00
        E 360 96 0d 64
        E 120 86 0d 00
        E 360 96 0d 64
        E 120 86 0d 00
        E 360 96 0d 64
        E 120 86 0d 00
        E 360 96 0c 64
        E 120 86 0c 00
        E 360 96 0d 64
        E 120 86 0d 00
        E 360 96 0d 64
        E 120 86 0d 00
        E 360 96 0d 64
        E 120 86 0d 00
        E 360 96 0c 64
        E 120 86 0c 00
        E 360 96 0d 64
        E 120 86 0d 00
        E 360 96 0d 64
        E 120 86 0d 00
        E 360 96 0d 64
        E 120 86 0d 00
        E 360 96 0c 64
        E 120 86 0c 00
        E 360 96 0d 64
        E 120 86 0d 00
        E 360 96 0d 64
        E 120 86 0d 00
        E 360 96 0d 64
        E 120 86 0d 00
        E 360 96 0c 64
        E 120 86 0c 00
        E 360 96 0d 64
        E 120 86 0d 00
        E 360 96 0d 64
        E 120 86 0d 00
        E 360 96 0d 64
        E 120 86 0d 00
        E 360 96 0c 64
        E 120 86 0c 00
        E 360 96 0d 64
        E 120 86 0d 00
        E 360 96 0d 64
        E 120 86 0d 00
        E 360 96 0d 64
        E 120 86 0d 00
        E 360 96 0c 64
        E 120 86 0c 00
        E 360 96 0d 64
        E 120 86 0d 00
        E 360 96 0d 64
        E 120 86 0d 00
        E 360 96 0d 64
        E 120 86 0d 00
        E 360 96 0c 64
        E 120 86 0c 00
        E 360 96 0d 64
        E 120 86 0d 00
        E 360 96 0d 64
        E 120 86 0d 00
        E 360 96 0d 64
        E 120 86 0d 00
        E 360 96 0c 64
        E 120 86 0c 00
        E 360 96 0d 64
        E 120 86 0d 00
        E 360 96 0d 64
        E 120 86 0d 00
        E 360 96 0d 64
        E 120 86 0d 00
        E 360 96 0c 64
        E 120 86 0c 00
        E 360 96 0d 64
        E 120 86 0d 00
        E 360 96 0d 64
        E 120 86 0d 00
        E 360 96 0d 64
        E 120 86 0d 00
        E 360 96 0c 64
        E 120 86 0c 00
        E 360 96 0d 64
        E 120 86 0d 00
        E 360 96 0d 64
        E 120 86 0d 00
        E 360 96 0d 64
        E 120 86 0d 00
        E 360 96 0c 64
        E 120 86 0c 00
        E 360 96 0d 64
        E 120 86 0d 00
        E 360 96 0d 64
        E 120 86 0d 00
        E 360 96 0d 64
        E 120 86 0d 00
        E 360 96 0c 64
        E 120 86 0c 00
        E 360 96 0d 64
        E 120 86 0d 00
        E 360 96 0d 64
        E 120 86 0d 00
        E 360 96 0d 64
        E 120 86 0d 00
        E 360 96 0c 64
        E 120 86 0c 00
        E 360 96 0d 64
        E 120 86 0d 00
        E 360 96 0d 64
        E 120 86 0d 00
        E 360 96 0d 64
        E 120 86 0d 00
        E 360 96 0c 64
        E 120 86 0c 00
        E 360 96 0d 64
        E 120 86 0d 00
        E 360 96 0d 64
        E 120 86 0d 00
        E 360 96 0d 64
        E 120 86 0d 00
        E 360 96 0c 64
        E 120 86 0c 00
        E 360 96 0d 64
        E 120 86 0d 00
        E 360 96 0d 64
        E 120 86 0d 00
        E 360 96 0d 64
        E 120 86 0d 00
        E 360 96 0c 64
        E 120 86 0c 00
        E 360 96 0d 64
        E 120 86 0d 00
        E 360 96 0d 64
        E 120 86 0d 00
        E 360 96 0d 64
        E 120 86 0d 00
        E 360 96 0c 64
        E 120 86 0c 00
        E 360 96 0d 64
        E 120 86 0d 00
        E 360 96 0d 64
        E 120 86 0d 00
        E 360 96 0d 64
        E 120 86 0d 00
        E 360 96 0c 64
        E 120 86 0c 00
        E 360 96 0d 64
        E 120 86 0d 00
        E 360 96 0d 64
        E 120 86 0d 00
        E 360 96 0d 64
        E 120 86 0d 00
        E 360 96 0c 64
        E 120 86 0c 00
        E 360 96 0d 64
        E 120 86 0d 00
        E 360 96 0d 64
        E 120 86 0d 00
        E 360 96 0d 64
        E 120 86 0d 00
        E 360 96 0c 64
        E 120 86 0c 00
        E 360 96 0d 64
        E 120 86 0d 00
        E 360 96 0d 64
        E 120 86 0d 00
        E 360 96 0d 64
        E 120 86 0d 00
        E 360 96 0c 64
        E 120 86 0c 00
        E 360 96 0d 64
        E 120 86 0d 00
        E 360 96 0d 64
        E 120 86 0d 00
        E 360 96 0d 64
        E 120 86 0d 00
        E 360 96 0c 64
        E 120 86 0c 00
        E 360 96 0d 64
        E 120 86 0d 00
        E 360 96 0d 64
        E 120 86 0d 00
        E 360 96 0d 64
        E 120 86 0d 00
        E 360 96 0c 64
        E 120 86 0c 00
        E 360 96 0d 64
        E 120 86 0d 00
        E 360 96 0d 64
        E 120 86 0d 00
        E 360 96 0d 64
        E 120 86 0d 00
        E 360 96 0c 64
        E 120 86 0c 00
        E 360 96 0d 64
        E 120 86 0d 00
        E 360 96 0d 64
        E 120 86 0d 00
        E 360 96 0d 64
        E 120 86 0d 00
        E 360 96 0c 64
        E 120 86 0c 00
        E 360 96 0d 64
        E 120 86 0d 00
        E 360 96 0d 64
        E 120 86 0d 00
        E 360 96 0d 64
        E 120 86 0d 00
        E 360 96 0c 64
        E 120 86 0c 00
        E 360 96 0d 64
        E 120 86 0d 00
        E 360 96 0d 64
        E 120 86 0d 00
        E 360 96 0d 64
        E 120 86 0d 00
        E 360 96 0c 64
        E 120 86 0c 00
        E 360 96 0d 64
        E 120 86 0d 00
        E 360 96 0d 64
        E 120 86 0d 00
        E 360 96 0d 64
        E 120 86 0d 00
        E 360 96 0c 64
        E 120 86 0c 00
        E 360 96 0d 64
        E 120 86 0d 00
        E 360 96 0d 64
        E 120 86 0d 00
        E 360 96 0d 64
        E 120 86 0d 00
        E 360 96 0c 64
        E 120 86 0c 00
        E 360 96 0d 64
        E 120 86 0d 00
        E 360 96 0d 64
        E 120 86 0d 00
        E 360 96 0d 64
        E 120 86 0d 00
        E 360 96 0c 64
        E 120 86 0c 00
        E 360 96 0d 64
        E 120 86 0d 00
        E 360 96 0d 64
        E 120 86 0d 00
        E 360 96 0d 64
        E 120 86 0d 00
        E 360 96 0c 64
        E 120 86 0c 00
        E 360 96 0d 64
        E 120 86 0d 00
        E 360 96 0d 64
        E 120 86 0d 00
        E 360 96 0d 64
        E 120 86 0d 00
        E 360 96 0c 64
        E 120 86 0c 00
        E 360 96 0d 64
        E 120 86 0d 00
        E 360 96 0d 64
        E 120 86 0d 00
        E 360 96 0d 64
        E 120 86 0d 00
        E 360 b0 7b 00
        GUID {AD897E3A-EA49-4912-96C1-48C14B06AED7}
        IGNTEMPO 0 120.00000000 4 4
        SRCCOLOR 15
        VELLANE 132 128 60
        COLORMAP "C:\Program Files\REAPER (x64)\Data\color_maps\rockband_guitarbass.png"
        CFGEDITVIEW -6761.581848 12.955548 0 48 0 0 0
        CFGEDIT 1 1 0 1 1 0 1 1 1 1 1 0.25000000 -8 -8 1544 872 0 2 1 1 0.00000000 0 1 0 0 0.500000 0 0 1.000000 64
        KEYSNAP 0 6 "102030050700" 0 "Pentatonic"
        EVTFILTER 0 -1 -1 -1 -1 0 1 0 0 -1.00000000 -1.00000000
      >
    >
  >
  <TRACK '{FBD64D85-4B06-47C8-BAC3-6D83F89427FE}'
    NAME "backing"
    PEAKCOL 16576
    BEAT -1
    AUTOMODE 0
    VOLPAN 1.00000000000000 0.00000000000000 -1.00000000000000 -1.00000000000000 1.00000000000000
    MUTESOLO 0 0 0
    IPHASE 0
    ISBUS 0 0
    BUSCOMP 0 0
    SHOWINMIX 1 0.666700 0.500000 1 0.500000 -1 -1 -1
    FREEMODE 0
    SEL 0
    REC 0 0 0 0 0 0 0
    VU 2
    TRACKHEIGHT 0 0
    INQ 0 0 0 0.5000000000 100 0 0 100
    NCHAN 2
    FX 1
    TRACKID {FBD64D85-4B06-47C8-BAC3-6D83F89427FE}
    PERF 0
    MIDIOUT -1
    MAINSEND 1 0
    <ITEM
      POSITION 0.00000000000000
      SNAPOFFS 0.00000000000000
      LENGTH 96.00000000000000
      LOOP 0
      ALLTAKES 0
      SEL 0
      FADEIN 1 0.000000 0.000000 1 0
      FADEOUT 1 0.000000 0.000000 1 0
      MUTE 0
      IGUID {DC6DAE03-9440-4AF9-A087-D7A776CFB64E}
      IID 14
      NAME "backing.wav"
      VOLPAN 1.000000 0.000000 1.000000 -1.000000
      SOFFS 0.00000000000000
      PLAYRATE 1.00000000000000 1 0.00000000000000 -1
      CHANMODE 0
      GUID {DF526E31-754B-4786-9ACC-415B8F1D67AE}
      <SOURCE WAVE
        FILE "wav\backing.wav"
      >
    >
  >
  <EXTENSIONS
  >
>
