<REAPER_PROJECT 0.1 "4.22/x64"
  RIPPLE 0
  GROUPOVERRIDE 0 0 0
  AUTOXFADE 1
  ENVATTACH 1
  MIXERUIFLAGS 11 48
  PEAKGAIN 1.00000000000000
  FEEDBACK 0
  PANLAW 1.00000000000000
  PROJOFFS 0.00000000000000 0
  MAXPROJLEN 0 600.00000000000000
  GRID 3199 8 0.12500000000000 8 1.00000000000000 0
  TIMEMODE 1 0 -1
  PANMODE 3
  CURSOR 0.00000000000000
  ZOOM 6.50805893576426 0 0
  VZOOMEX 4
  USE_REC_CFG 0
  RECMODE 1
  SMPTESYNC 0 23.976024 100 40 1000 300 0 0.000000 1
  LOOP 0
  LOOPGRAN 0 4.00000000000000
  RECORD_PATH "" ""
  <RECORD_CFG
    ZXZhdxAD
  >
  <APPLYFX_CFG
  >
  RENDER_FILE "C:\Users\Ruggery\Desktop\backing.wav"
  RENDER_FMT 0 2 44100
  RENDER_1X 0
  RENDER_RANGE 2 0.00000000000000 0.00000000000000
  RENDER_RESAMPLE 3 0 1
  RENDER_ADDTOPROJ 0
  RENDER_STEMS 0
  RENDER_DITHER 0
  TIMELOCKMODE 0
  ITEMMIX 0
  DEFPITCHMODE 393216
  TAKELANE 1
  SAMPLERATE 44100 0 0
  <RENDER_CFG
    ZXZhdxAD
  >
  LOCK 1
  <METRONOME 6 2.000000
    VOL 0.250000 0.125000
    FREQ 800 1600 1
    BEATLEN 4
    SAMPLES "" ""
  >
  GLOBAL_AUTO -1
  TEMPO 55.00000000000000 4 4
  PLAYRATE 1.00000000000000 0 0.25000 4.00000
  SELECTION 222.64703105824603 0.00000000000000
  SELECTION2 222.64703105824603 0.00000000000000
  MASTERAUTOMODE 0
  MASTERTRACKHEIGHT 0
  MASTERPEAKCOL 16576
  MASTERMUTESOLO 0
  MASTERTRACKVIEW 1 0.666700 0.500000 0.500000 -1 -1 -1
  MASTERHWOUT 0 0 1.00000000000000 0.00000000000000 0 0 0 -1.00000000000000
  MASTER_NCH 2 2
  MASTER_VOLUME 1.00000000000000 0.00000000000000 -1.00000000000000 -1.00000000000000 1.00000000000000
  MASTER_PANMODE -1
  MASTER_FX 1
  MASTER_SEL 0
  <MASTERPLAYSPEEDENV
    ACT 0
    VIS 0 1 1.000000
    LANEHEIGHT 0 0
    ARM 0
    DEFSHAPE 0 -1 -1
  >
  <TEMPOENVEX
    ACT 1
    VIS 1 0 1.000000
    LANEHEIGHT 0 0
    ARM 0
    DEFSHAPE 1 -1 -1
    PT 0.000000000000 55.0000000000 1
    PT 209.454545454545 54.0000000000 1
    PT 211.676767676768 53.5000000000 1
    PT 213.919758330973 55.0000000000 1
  >
  <PROJBAY
  >
  <TRACK '{BF82A064-3536-4C30-A821-BE8B862A3757}'
    NAME "PART VOCALS"
    PEAKCOL 16576
    BEAT -1
    AUTOMODE 0
    VOLPAN 1.00000000000000 0.00000000000000 -1.00000000000000 -1.00000000000000 1.00000000000000
    MUTESOLO 0 0 0
    IPHASE 0
    ISBUS 1 1
    BUSCOMP 0 0
    SHOWINMIX 1 0.666700 0.500000 1 0.500000 -1 -1 -1
    FREEMODE 0
    SEL 0
    REC 0 0 0 0 0 0 0
    VU 2
    TRACKHEIGHT 0 0
    INQ 0 0 0 0.5000000000 100 0 0 100
    NCHAN 2
    FX 0
    TRACKID {BF82A064-3536-4C30-A821-BE8B862A3757}
    PERF 0
    MIDIOUT -1
    <MIDINOTENAMES
      0 116 "OVERDRIVE"
      0 115 "----"
      0 105 "Phrase Marker"
      0 104 "----"
      0 97 "Non-Displayed Percussion"
      0 96 "Displayed Percussion"
      0 95 "----"
      0 84 "UNUSED C5 Note"
      0 83 "Highest Note B4"
      0 82 "A#4"
      0 81 "A4"
      0 80 "G#4"
      0 79 "G4"
      0 78 "F#4"
      0 77 "F4"
      0 76 "E4"
      0 75 "D#4"
      0 74 "D4"
      0 73 "C#4"
      0 72 "C4"
      0 71 "B3"
      0 70 "A#3"
      0 69 "A3"
      0 68 "G#3"
      0 67 "G3"
      0 66 "F#3"
      0 65 "F3"
      0 64 "E3"
      0 63 "D#3"
      0 62 "D3"
      0 61 "C#3"
      0 60 "C3"
      0 59 "B2"
      0 58 "A#2"
      0 57 "A2"
      0 56 "G#2"
      0 55 "G2"
      0 54 "F#2"
      0 53 "F2"
      0 52 "E2"
      0 51 "D#2"
      0 50 "D2"
      0 49 "C#2"
      0 48 "C2"
      0 47 "B1"
      0 46 "A#1"
      0 45 "A1"
      0 44 "G#1"
      0 43 "G1"
      0 42 "F#1"
      0 41 "F1"
      0 40 "E1"
      0 39 "D#1"
      0 38 "D!"
      0 37 "C#1"
      0 36 "Lowest Note C1"
      0 2 "---"
      0 1 "Lyric Shift"
      0 0 "Range Shift"
    >
    MAINSEND 1 0
    <FXCHAIN
      WNDRECT 0 42 655 462
      SHOW 0
      LASTSEL 1
      DOCKED 0
      BYPASS 0 0
      <JS "MIDI/midi_note_filter" ""
        36.000000 84.000000 - - - - - - - - - - - - - - - - - - - - - - - - - - - - - - - - - - - - - - - - - - - - - - - - - - - - - - - - - - - - - - 
      >
      FLOATPOS 0 0 0 0
      FXID {12EFE8D7-6D5F-4422-AA9C-D0658AE7DFC3}
      WAK 0
      BYPASS 0 0
      <VST "VSTi: ReaSynth (Cockos)" "reasynth.dll" 0 ""
        eXNlcu9e7f4AAAAAAgAAAAEAAAAAAAAAAgAAAAAAAAA4AAAAAAAAAA==
        AAAQAO++rd4N8K3eppvEOxe30ToAAIA/AAAAAAAAAABeVu086WeIPQ==
        AAAAAAAAAD8AAIA/AACAPwAAAD8AABAAAAA=
      >
      FLOATPOS 0 0 0 0
      FXID {25F39449-0B2A-4FB6-9A00-DC295E023164}
      WAK 0
    >
    <ITEM
      POSITION 0.00000000000000
      SNAPOFFS 0.00000000000000
      LENGTH 222.64703105824603
      LOOP 0
      ALLTAKES 0
      SEL 0
      FADEIN 1 0.000000 0.000000 1 0
      FADEOUT 1 0.000000 0.000000 1 0
      MUTE 0
      IGUID {8538D8F9-EB52-410D-8FC4-CF9DAE04E515}
      IID 14
      NAME "PART VOCALS"
      VOLPAN 1.000000 0.000000 1.000000 -1.000000
      SOFFS 0.00000000000000 0.00000000000000
      PLAYRATE 1.00000000000000 1 0.00000000000000 -1
      CHANMODE 0
      GUID {C1823D3E-6252-4625-9272-0E5E1BECBE41}
      <SOURCE MIDI
        HASDATA 1 480 QN
        POOLEDEVTS {D010F094-7059-4AB1-A342-7E1C0898B640}
        <X 0 0
          /wNQQVJUIFZPQ0FMUw==
        >
        <X 1920 0
          /wFbaWRsZV0=
        >
        E 480 90 69 60
        <X 270 0
          /wFbbWVsbG93XQ==
        >
        <X 210 0
          /wVTaGUncw==
        >
        e 0 90 3c 60
        e 330 80 3c 00
        <X 90 0
          /wVtb3N0LQ==
        >
        e 0 90 3a 60
        e 150 80 3a 00
        <X 60 0
          /wVseQ==
        >
        e 0 90 38 60
        e 60 80 38 00
        <X 60 0
          /wVnb25l
        >
        e 0 90 3a 60
        e 390 80 3a 00
        E 300 80 69 00
        E 960 90 69 60
        <X 390 0
          /wVTb21l
        >
        e 0 90 35 60
        e 60 80 35 00
        <X 30 0
          /wVvdGgt
        >
        e 0 90 39 60
        e 90 80 39 00
        <X 30 0
          /wVlcg==
        >
        e 0 90 3a 60
        e 60 80 3a 00
        <X 60 0
          /wVwbGFjZQ==
        >
        e 0 90 3c 60
        e 420 80 3c 00
        <X 300 0
          /wFbaWRsZV0=
        >
        E 0 80 69 00
        E 3360 90 69 60
        <X 240 0
          /wFbbWVsbG93XQ==
        >
        <X 270 0
          /wVJJ20=
        >
        e 0 90 3a 60
        e 60 80 3a 00
        <X 30 0
          /wUr
        >
        e 0 90 3c 60
        e 240 80 3c 00
        <X 60 0
          /wVnZXQt
        >
        e 0 90 3a 60
        e 150 80 3a 00
        <X 60 0
          /wV0aW5n
        >
        e 0 90 38 60
        e 60 80 38 00
        <X 90 0
          /wVieQ==
        >
        e 0 90 3a 60
        e 600 80 3a 00
        E 60 80 69 00
        E 960 90 69 60
        E 0 90 74 60
        <X 360 0
          /wVJbg==
        >
        e 0 90 35 60
        e 60 80 35 00
        <X 60 0
          /wVvdGgt
        >
        e 0 90 39 60
        e 60 80 39 00
        <X 60 0
          /wVlcg==
        >
        e 0 90 3a 60
        e 90 80 3a 00
        <X 30 0
          /wV3YXlz
        >
        e 0 90 3c 60
        e 600 80 3c 00
        <X 120 0
          /wFbaWRsZV0=
        >
        E 0 80 69 00
        E 0 80 74 00
        E 3360 90 69 60
        <X 255 0
          /wFbbWVsbG93XQ==
        >
        <X 255 0
          /wVFdi0=
        >
        e 0 90 3c 60
        e 180 80 3c 00
        <X 60 0
          /wVlcnkt
        >
        e 0 90 3c 60
        e 60 80 3c 00
        <X 60 0
          /wV0aGluZw==
        >
        e 0 90 3f 60
        e 210 80 3f 00
        <X 60 0
          /wV0aGV5
        >
        e 0 90 3f 60
        e 60 80 3f 00
        <X 30 0
          /wUr
        >
        e 0 90 41 60
        e 180 80 41 00
        <X 60 0
          /wV3aGlzLQ==
        >
        e 0 90 3a 60
        e 120 80 3a 00
        <X 120 0
          /wVwZXJlZA==
        >
        e 0 90 38 60
        e 180 80 38 00
        <X 60 0
          /wVpbg==
        >
        e 0 90 38 60
        e 90 80 38 00
        <X 30 0
          /wVvdXI=
        >
        e 0 90 3a 60
        e 90 80 3a 00
        <X 30 0
          /wVlYXI=
        >
        e 0 90 38 60
        e 390 80 38 00
        E 30 80 69 00
        E 270 90 69 60
        <X 390 0
          /wVJcw==
        >
        e 0 90 35 60
        e 60 80 35 00
        <X 60 0
          /wVjb20t
        >
        e 0 90 39 60
        e 90 80 39 00
        <X 30 0
          /wVpbmc=
        >
        e 0 90 3a 60
        e 90 80 3a 00
        <X 30 0
          /wV0cnVl
        >
        e 0 90 3c 60
        e 510 80 3c 00
        E 180 80 69 00
        <X 30 0
          /wFbaWRsZV0=
        >
        E 3330 90 69 60
        E 0 90 74 60
        <X 240 0
          /wFbbWVsbG93XQ==
        >
        <X 240 0
          /wVUcnk=
        >
        e 0 90 3c 60
        e 180 80 3c 00
        <X 60 0
          /wV0bw==
        >
        e 0 90 3c 60
        e 90 80 3c 00
        <X 60 0
          /wVqdXMt
        >
        e 0 90 3f 60
        e 210 80 3f 00
        <X 30 0
          /wV0aS0=
        >
        e 0 90 41 60
        e 60 80 41 00
        <X 60 0
          /wVmeQ==
        >
        e 0 90 3a 60
        e 780 80 3a 00
        <X 60 0
          /wV0aGU=
        >
        e 0 90 38 60
        e 60 80 38 00
        <X 60 0
          /wV0aGluZ3M=
        >
        e 0 90 38 60
        e 300 80 38 00
        E 390 90 01 60
        E 15 80 01 00
        <X 375 0
          /wVJ
        >
        e 0 90 35 60
        e 60 80 35 00
        <X 60 0
          /wV1c2Vk
        >
        e 0 90 39 60
        e 90 80 39 00
        <X 30 0
          /wV0bw==
        >
        e 0 90 3a 60
        e 90 80 3a 00
        <X 30 0
          /wVkbw==
        >
        e 0 90 3c 60
        e 330 80 3c 00
        E 360 80 69 00
        E 0 80 74 00
        E 480 90 69 60
        <X 360 0
          /wVCZS0=
        >
        e 0 90 35 60
        e 60 80 35 00
        <X 60 0
          /wVsaWV2ZQ==
        >
        e 0 90 38 60
        e 90 80 38 00
        <X 30 0
          /wVpbg==
        >
        e 0 90 3a 60
        e 60 80 3a 00
        <X 60 0
          /wV5b3U=
        >
        e 0 90 3a 60
        e 60 80 3a 00
        <X 60 0
          /wUr
        >
        e 0 90 3c 60
        e 300 80 3c 00
        <X 300 0
          /wFbaWRsZV0=
        >
        E 0 80 69 00
        E 1440 90 69 60
        <X 255 0
          /wFbbWVsbG93XQ==
        >
        <X 255 0
          /wVXYXRjaC0=
        >
        e 0 90 3f 60
        e 30 80 3f 00
        <X 30 0
          /wUr
        >
        e 0 90 41 60
        e 120 80 41 00
        <X 60 0
          /wVpbmc=
        >
        e 0 90 3f 60
        e 150 80 3f 00
        <X 90 0
          /wV5b3U=
        >
        e 0 90 3c 60
        e 150 80 3c 00
        <X 90 0
          /wVkcm93bg==
        >
        e 0 90 3a 60
        e 60 80 3a 00
        <X 60 0
          /wUr
        >
        e 0 90 38 60
        e 270 80 38 00
        E 300 80 69 00
        E 0 90 69 60
        <X 240 0
          /wVJJ2xsXg==
        >
        e 0 90 35 60
        e 120 80 35 00
        <X 120 0
          /wVmb2wt
        >
        e 0 90 41 60
        e 180 80 41 00
        <X 60 0
          /wVsb3c=
        >
        e 0 90 3f 60
        e 180 80 3f 00
        <X 60 0
          /wV5b3U=
        >
        e 0 90 3c 60
        e 180 80 3c 00
        <X 90 0
          /wVkb3du
        >
        e 0 90 3a 60
        e 60 80 3a 00
        <X 60 0
          /wUr
        >
        e 0 90 38 60
        e 360 80 38 00
        E 210 80 69 00
        E 240 90 69 60
        E 0 90 74 60
        <X 240 0
          /wVJXg==
        >
        e 0 90 41 60
        e 90 80 41 00
        <X 150 0
          /wVhbQ==
        >
        e 0 90 3f 60
        e 150 80 3f 00
        <X 90 0
          /wVoZXJl
        >
        e 0 90 3c 60
        e 420 80 3c 00
        <X 60 0
          /wVyaWdodA==
        >
        e 0 90 41 60
        e 240 80 41 00
        <X 240 0
          /wViZS0=
        >
        e 0 90 41 60
        e 180 80 41 00
        <X 330 0
          /wVzaWRl
        >
        e 0 90 3f 60
        e 30 80 3f 00
        <X 30 0
          /wUr
        >
        e 0 90 41 60
        e 150 80 41 00
        <X 270 0
          /wV5b3U=
        >
        e 0 90 41 60
        e 240 80 41 00
        E 210 80 69 00
        E 0 80 74 00
        <X 480 0
          /wFbbWVsbG93XQ==
        >
        E 0 90 69 60
        <X 240 0
          /wVUaGU=
        >
        e 0 90 35 60
        e 180 80 35 00
        <X 90 0
          /wVsaWdodHM=
        >
        e 0 90 41 60
        e 180 80 41 00
        <X 60 0
          /wVpbg==
        >
        e 0 90 3f 60
        e 180 80 3f 00
        <X 60 0
          /wV0aGU=
        >
        e 0 90 3c 60
        e 150 80 3c 00
        <X 60 0
          /wVza3k=
        >
        e 0 90 3a 60
        e 60 80 3a 00
        <X 60 0
          /wUr
        >
        e 0 90 38 60
        e 480 80 38 00
        E 30 80 69 00
        E 90 90 69 60
        <X 240 0
          /wVIYXZl
        >
        e 0 90 35 60
        e 150 80 35 00
        <X 90 0
          /wVmaS0=
        >
        e 0 90 3f 60
        e 30 80 3f 00
        <X 30 0
          /wUr
        >
        e 0 90 41 60
        e 150 80 41 00
        <X 30 0
          /wVuYWwt
        >
        e 0 90 3f 60
        e 45 80 3f 00
        <X 15 0
          /wVseQ==
        >
        e 0 90 3f 60
        e 180 80 3f 00
        <X 60 0
          /wVhci0=
        >
        e 0 90 3c 60
        e 150 80 3c 00
        <X 60 0
          /wVyaXZlZA==
        >
        e 0 90 3c 60
        e 480 80 3c 00
        E 30 80 69 00
        E 180 90 69 60
        E 0 90 74 60
        <X 510 0
          /wVJ
        >
        e 0 90 41 60
        e 150 80 41 00
        <X 90 0
          /wVhbQ==
        >
        e 0 90 3f 60
        e 150 80 3f 00
        <X 90 0
          /wVzdGF5LQ==
        >
        e 0 90 3a 60
        e 30 80 3a 00
        <X 30 0
          /wUr
        >
        e 0 90 3c 60
        e 120 80 3c 00
        <X 60 0
          /wVpbmc=
        >
        e 0 90 38 60
        e 120 80 38 00
        <X 120 0
          /wVyaWdodA==
        >
        e 0 90 3f 60
        e 30 80 3f 00
        <X 30 0
          /wUr
        >
        e 0 90 41 60
        e 150 80 41 00
        <X 240 0
          /wViZS0=
        >
        e 0 90 41 60
        e 150 80 41 00
        <X 360 0
          /wVzaWRl
        >
        e 0 90 41 60
        e 120 80 41 00
        <X 330 0
          /wV5b3Uj
        >
        e 0 90 41 60
        e 120 80 41 00
        <X 345 0
          /wFbaWRsZV0=
        >
        E 15 80 69 00
        E 0 80 74 00
        E 480 90 69 60
        <X 225 0
          /wFbbWVsbG93XQ==
        >
        <X 165 0
          /wVJXg==
        >
        e 0 90 3a 60
        e 60 80 3a 00
        <X 60 0
          /wV0cmllZA==
        >
        e 0 90 3c 60
        e 180 80 3c 00
        <X 60 0
          /wV0bw==
        >
        e 0 90 3c 60
        e 60 80 3c 00
        <X 60 0
          /wVzdGF5
        >
        e 0 90 3f 60
        e 150 80 3f 00
        <X 90 0
          /wVhLQ==
        >
        e 0 90 41 60
        e 60 80 41 00
        <X 60 0
          /wV3YXk=
        >
        e 0 90 3a 60
        e 480 80 3a 00
        E 210 80 69 00
        E 960 90 69 60
        <X 480 0
          /wVKdXN0
        >
        e 0 90 39 60
        e 90 80 39 00
        <X 30 0
          /wVpbg==
        >
        e 0 90 3a 60
        e 90 80 3a 00
        <X 30 0
          /wVjYXNl
        >
        e 0 90 3c 60
        e 390 80 3c 00
        <X 315 0
          /wFbaWRsZV0=
        >
        E 15 80 69 00
        E 3360 90 69 60
        <X 120 0
          /wFbbWVsbG93XQ==
        >
        <X 240 0
          /wVJJ3Zl
        >
        e 0 90 3a 60
        e 60 80 3a 00
        <X 60 0
          /wVjb21l
        >
        e 0 90 3c 60
        e 210 80 3c 00
        <X 60 0
          /wV0bw==
        >
        e 0 90 3c 60
        e 60 80 3c 00
        <X 60 0
          /wVyZS0=
        >
        e 0 90 3f 60
        e 180 80 3f 00
        <X 60 0
          /wVhbC0=
        >
        e 0 90 41 60
        e 60 80 41 00
        <X 60 0
          /wVpemU=
        >
        e 0 90 3a 60
        e 660 80 3a 00
        E 30 80 69 00
        E 960 90 69 60
        E 0 90 74 60
        <X 150 0
          /wVXZQ==
        >
        e 0 90 35 60
        e 90 80 35 00
        <X 60 0
          /wVhbGw=
        >
        e 0 90 35 60
        e 180 80 35 00
        <X 60 0
          /wVoYXZl
        >
        e 0 90 39 60
        e 60 80 39 00
        <X 60 0
          /wVvdXI=
        >
        e 0 90 3a 60
        e 60 80 3a 00
        <X 60 0
          /wVwbGFjZQ==
        >
        e 0 90 3c 60
        e 390 80 3c 00
        E 270 80 69 00
        E 0 80 74 00
        <X 255 0
          /wFbaWRsZV0=
        >
        E 2145 90 69 60
        <X 240 0
          /wFbbWVsbG93XQ==
        >
        <X 240 0
          /wVUaW1l
        >
        e 0 90 3c 60
        e 480 80 3c 00
        E 120 90 01 60
        E 15 80 01 00
        <X 375 0
          /wV0aW1l
        >
        e 0 90 3c 60
        e 270 80 3c 00
        <X 60 0
          /wVoYXM=
        >
        e 0 90 3f 60
        e 180 80 3f 00
        <X 60 0
          /wVh
        >
        e 0 90 41 60
        e 60 80 41 00
        <X 90 0
          /wV3YXk=
        >
        e 0 90 3a 60
        e 630 80 3a 00
        <X 210 0
          /wV5b3U=
        >
        e 0 90 3c 60
        e 60 80 3c 00
        <X 60 0
          /wVrbm93
        >
        e 0 90 38 60
        e 270 80 38 00
        E 30 80 69 00
        E 390 90 69 60
        <X 360 0
          /wVUbw==
        >
        e 0 90 35 60
        e 90 80 35 00
        <X 30 0
          /wVtYWtl
        >
        e 0 90 39 60
        e 90 80 39 00
        <X 30 0
          /wVpdA==
        >
        e 0 90 3a 60
        e 60 80 3a 00
        <X 60 0
          /wVjbGVhcg==
        >
        e 0 90 3c 60
        e 330 80 3c 00
        <X 390 0
          /wFbaWRsZV0=
        >
        E 0 80 69 00
        <X 3360 0
          /wFbbWVsbG93XQ==
        >
        E 0 90 69 60
        <X 360 0
          /wVBbmQ=
        >
        e 0 90 35 60
        e 60 80 35 00
        <X 60 0
          /wVJ
        >
        e 0 90 3c 60
        e 330 80 3c 00
        <X 90 0
          /wVoYXZl
        >
        e 0 90 3f 60
        e 120 80 3f 00
        <X 90 0
          /wVteQ==
        >
        e 0 90 3f 60
        e 60 80 3f 00
        <X 30 0
          /wUr
        >
        e 0 90 41 60
        e 180 80 41 00
        <X 60 0
          /wVyb2xl
        >
        e 0 90 3a 60
        e 420 80 3a 00
        <X 210 0
          /wVpbg==
        >
        e 0 90 38 60
        e 90 80 38 00
        <X 30 0
          /wV0aGlz
        >
        e 0 90 38 60
        e 180 80 38 00
        E 30 80 69 00
        E 480 90 69 60
        E 0 90 74 60
        <X 150 0
          /wVJ
        >
        e 0 90 35 60
        e 60 80 35 00
        <X 60 0
          /wVjYW4ndA==
        >
        e 0 90 35 60
        e 90 80 35 00
        <X 150 0
          /wVkaXMt
        >
        e 0 90 39 60
        e 90 80 39 00
        <X 30 0
          /wVhcC0=
        >
        e 0 90 3a 60
        e 60 80 3a 00
        <X 60 0
          /wVwZWFy
        >
        e 0 90 3c 60
        e 360 80 3c 00
        E 330 90 01 60
        E 15 80 01 00
        <X 825 0
          /wVvcg==
        >
        e 0 90 35 60
        e 90 80 35 00
        <X 30 0
          /wVsZWF2ZQ==
        >
        e 0 90 38 60
        e 90 80 38 00
        <X 30 0
          /wV5b3U=
        >
        e 0 90 3a 60
        e 90 80 3a 00
        <X 60 0
          /wVoZXJl
        >
        e 0 90 3c 60
        e 495 80 3c 00
        <X 195 0
          /wFbaWRsZV0=
        >
        E 0 80 69 00
        E 0 80 74 00
        E 1440 90 69 60
        <X 225 0
          /wFbbWVsbG93XQ==
        >
        <X 285 0
          /wVXYXRjaC0=
        >
        e 0 90 3f 60
        e 30 80 3f 00
        <X 30 0
          /wUr
        >
        e 0 90 41 60
        e 120 80 41 00
        <X 60 0
          /wVpbmc=
        >
        e 0 90 3f 60
        e 180 80 3f 00
        <X 60 0
          /wV5b3U=
        >
        e 0 90 3c 60
        e 210 80 3c 00
        <X 30 0
          /wVkcm93bg==
        >
        e 0 90 3a 60
        e 60 80 3a 00
        <X 60 0
          /wUr
        >
        e 0 90 38 60
        e 360 80 38 00
        E 210 80 69 00
        E 0 90 69 60
        <X 270 0
          /wVJJ2xs
        >
        e 0 90 35 60
        e 135 80 35 00
        <X 90 0
          /wVmb2wt
        >
        e 0 90 41 60
        e 180 80 41 00
        <X 60 0
          /wVsb3c=
        >
        e 0 90 3f 60
        e 180 80 3f 00
        <X 60 0
          /wV5b3U=
        >
        e 0 90 3c 60
        e 180 80 3c 00
        <X 45 0
          /wVkb3du
        >
        e 0 90 3a 60
        e 60 80 3a 00
        <X 60 0
          /wUr
        >
        e 0 90 38 60
        e 390 80 38 00
        E 210 80 69 00
        E 0 90 69 60
        E 0 90 74 60
        <X 240 0
          /wVBbmQ=
        >
        e 0 90 35 60
        e 90 80 35 00
        <X 150 0
          /wVJ
        >
        e 0 90 41 60
        e 150 80 41 00
        <X 90 0
          /wVhbQ==
        >
        e 0 90 3f 60
        e 150 80 3f 00
        <X 90 0
          /wVoZXJl
        >
        e 0 90 3c 60
        e 420 80 3c 00
        <X 60 0
          /wVyaWdodA==
        >
        e 0 90 41 60
        e 240 80 41 00
        <X 270 0
          /wViZS0=
        >
        e 0 90 41 60
        e 180 80 41 00
        <X 315 0
          /wVzaWRl
        >
        e 0 90 41 60
        e 210 80 41 00
        <X 285 0
          /wV5b3U=
        >
        e 0 90 41 60
        e 240 80 41 00
        E 180 80 69 00
        E 0 80 74 00
        E 480 90 69 60
        <X 270 0
          /wVUaGU=
        >
        e 0 90 35 60
        e 180 80 35 00
        <X 60 0
          /wVsaWdodHM=
        >
        e 0 90 41 60
        e 180 80 41 00
        <X 60 0
          /wVpbg==
        >
        e 0 90 3f 60
        e 180 80 3f 00
        <X 60 0
          /wV0aGU=
        >
        e 0 90 3c 60
        e 180 80 3c 00
        <X 60 0
          /wVza3k=
        >
        e 0 90 3a 60
        e 60 80 3a 00
        <X 60 0
          /wUr
        >
        e 0 90 38 60
        e 420 80 38 00
        E 150 80 69 00
        E 240 90 69 60
        <X 30 0
          /wVBcmU=
        >
        e 0 90 35 60
        e 150 80 35 00
        <X 90 0
          /wV3YXYt
        >
        e 0 90 3f 60
        e 30 80 3f 00
        <X 30 0
          /wUr
        >
        e 0 90 41 60
        e 150 80 41 00
        <X 30 0
          /wVpbmc=
        >
        e 0 90 3f 60
        e 180 80 3f 00
        <X 60 0
          /wVnb29kLQ==
        >
        e 0 90 3c 60
        e 150 80 3c 00
        <X 60 0
          /wVieWU=
        >
        e 0 90 3a 60
        e 30 80 3a 00
        <X 30 0
          /wUr
        >
        e 0 90 3c 60
        e 450 80 3c 00
        E 210 80 69 00
        E 0 90 69 60
        <X 240 0
          /wVBbmQ=
        >
        e 0 90 35 60
        e 90 80 35 00
        <X 195 0
          /wVJ
        >
        e 0 90 41 60
        e 180 80 41 00
        <X 60 0
          /wVhbQ==
        >
        e 0 90 3f 60
        e 150 80 3f 00
        <X 105 0
          /wVzdGF5LQ==
        >
        e 0 90 3a 60
        e 30 80 3a 00
        <X 30 0
          /wUr
        >
        e 0 90 3c 60
        e 120 80 3c 00
        <X 60 0
          /wVpbmc=
        >
        e 0 90 38 60
        e 165 80 38 00
        <X 75 0
          /wVyaWdodA==
        >
        e 0 90 3f 60
        e 30 80 3f 00
        <X 30 0
          /wUr
        >
        e 0 90 41 60
        e 150 80 41 00
        <X 240 0
          /wViZS0=
        >
        e 0 90 41 60
        e 150 80 41 00
        <X 330 0
          /wVzaWRl
        >
        e 0 90 41 60
        e 120 80 41 00
        <X 360 0
          /wV5b3U=
        >
        e 0 90 41 60
        e 120 80 41 00
        E 330 80 69 00
        <X 150 0
          /wFbaWRsZV9yZWFsdGltZV0=
        >
        E 3690 b0 7b 00
        GUID {B7D8AA29-4053-4B30-8685-A43080F79569}
        IGNTEMPO 0 120.00000000 4 4
        SRCCOLOR 11
        VELLANE 132 123 128
        COLORMAP "C:\Program Files (x86)\REAPER\Data\color_maps\rockband_guitarbass.png"
        CFGEDITVIEW -4896.000000 0.011224 11 12 0 0 0
        CFGEDIT 1 1 0 1 1 0 1 1 1 1 1 0.03125000 -8 0 1370 744 0 2 0 2 0.00000000 0 1 0 0 0.500000 0 0 1.000000 64
        KEYSNAP 0 7 "102030050700" 0 "Pentatonic"
        EVTFILTER 0 -1 -1 -1 -1 0 1 0 0 -1.00000000 -1.00000000
      >
    >
  >
  <TRACK '{E9E5B0E5-474C-4993-B23B-1B5700D994FF}'
    NAME ""
    PEAKCOL 16576
    BEAT -1
    AUTOMODE 0
    VOLPAN 1.00000000000000 0.00000000000000 -1.00000000000000 -1.00000000000000 1.00000000000000
    MUTESOLO 0 0 0
    IPHASE 0
    ISBUS 2 -1
    BUSCOMP 0 0
    SHOWINMIX 1 0.666700 0.500000 1 0.500000 -1 -1 -1
    FREEMODE 0
    SEL 0
    REC 0 0 0 0 0 0 0
    VU 2
    TRACKHEIGHT 0 0
    INQ 0 0 0 0.5000000000 100 0 0 100
    NCHAN 2
    FX 1
    TRACKID {E9E5B0E5-474C-4993-B23B-1B5700D994FF}
    PERF 0
    MIDIOUT -1
    MAINSEND 1 0
    <ITEM
      POSITION 0.00000000000000
      SNAPOFFS 0.00000000000000
      LENGTH 222.64702947845805
      LOOP 0
      ALLTAKES 0
      SEL 0
      FADEIN 1 0.000000 0.000000 1 0
      FADEOUT 1 0.000000 0.000000 1 0
      MUTE 0
      IGUID {45E2B0C1-6880-43BF-AFAE-AEA81CA2B31A}
      IID 49
      NAME "vocals.wav"
      VOLPAN 1.000000 0.000000 1.000000 -1.000000
      SOFFS 0.00000000000000
      PLAYRATE 1.00000000000000 1 0.00000000000000 -1
      CHANMODE 0
      GUID {972ADCFC-4386-4360-ACB4-89F1148DBF1A}
      <SOURCE WAVE
        FILE "wav\vocals.wav"
      >
    >
  >
  <TRACK '{D25717C6-A730-471F-B1AB-E376CC93B66C}'
    NAME "PART KEYS"
    PEAKCOL 16576
    BEAT -1
    AUTOMODE 0
    VOLPAN 1.00000000000000 0.00000000000000 -1.00000000000000 -1.00000000000000 1.00000000000000
    MUTESOLO 0 0 0
    IPHASE 0
    ISBUS 1 1
    BUSCOMP 0 0
    SHOWINMIX 1 0.666700 0.500000 1 0.500000 -1 -1 -1
    FREEMODE 0
    SEL 0
    REC 0 0 0 0 0 0 0
    VU 2
    TRACKHEIGHT 0 0
    INQ 0 0 0 0.5000000000 100 0 0 100
    NCHAN 2
    FX 1
    TRACKID {D25717C6-A730-471F-B1AB-E376CC93B66C}
    PERF 0
    MIDIOUT -1
    <MIDINOTENAMES
      0 127 "Trill Marker"
      0 125 "---"
      0 124 "BRE"
      0 123 "BRE"
      0 122 "BRE"
      0 121 "BRE"
      0 120 "BRE (use all 5)"
      0 119 "----"
      0 116 "OVERDRIVE"
      0 115 "----"
      0 103 "Solo Marker"
      0 102 "Force HOPO Off"
      0 101 "Force HOPO On"
      0 100 "EXPERT Orange"
      0 99 "EXPERT Blue"
      0 98 "EXPERT Yellow"
      0 97 "EXPERT Red"
      0 96 "EXPERT Green"
      0 95 "----"
      0 90 "Force HOPO Off"
      0 89 "Force HOPO On"
      0 88 "HARD Orange"
      0 87 "HARD Blue"
      0 86 "HARD Yellow"
      0 85 "HARD Red"
      0 84 "HARD Green"
      0 83 "----"
      0 76 "MEDIUM Orange"
      0 75 "MEDIUM Blue"
      0 74 "MEDIUM Yellow"
      0 73 "MEDIUM Red"
      0 72 "MEDIUM Green"
      0 71 "----"
      0 64 "EASY Orange"
      0 63 "EASY Blue"
      0 62 "EASY Yellow"
      0 61 "EASY Red"
      0 60 "EASY Green"
    >
    MAINSEND 1 0
    <FXCHAIN
      WNDRECT 600 455 878 559
      SHOW 0
      LASTSEL 0
      DOCKED 0
      BYPASS 0 0
      <VST "VSTi: RBN Preview (RBN)" "rbprev_vst64.dll" 0 ""
        dnBicu5e7f4AAAAAAgAAAAEAAAAAAAAAAgAAAAAAAAAEAAAAAQAAAA==
        AAAQAAMAqgAAABAAAAA=
      >
      FLOATPOS 0 0 0 0
      FXID {09BFCBC1-B886-4252-9398-BF3F8FB499AA}
      WAK 0
    >
    <ITEM
      POSITION 0.00000000000000
      SNAPOFFS 0.00000000000000
      LENGTH 222.64703105824603
      LOOP 0
      ALLTAKES 0
      SEL 0
      FADEIN 1 0.000000 0.000000 1 0
      FADEOUT 1 0.000000 0.000000 1 0
      MUTE 0
      IGUID {56BBEF06-7F4C-4DC0-8EF3-C0F063CDAA19}
      IID 24
      NAME "PART KEYS"
      VOLPAN 1.000000 0.000000 1.000000 -1.000000
      SOFFS 0.00000000000000 0.00000000000000
      PLAYRATE 1.00000000000000 1 0.00000000000000 -1
      CHANMODE 0
      GUID {94077660-877F-4D2A-81A3-3C267F49C38C}
      <SOURCE MIDI
        HASDATA 1 480 QN
        POOLEDEVTS {2B539A0D-C4C8-42DB-B20D-9226A1E8CECF}
        <X 0 0
          /wNQQVJUIEtFWVM=
        >
        <X 1920 0
          /wFbbWVsbG93XQ==
        >
        E 0 90 3e 60
        E 0 90 4a 60
        E 0 90 4b 60
        E 0 90 55 60
        E 0 90 58 60
        E 0 90 61 60
        E 0 90 64 60
        E 120 80 3e 00
        E 0 80 4a 00
        E 0 80 4b 00
        E 0 80 55 00
        E 0 80 58 00
        E 0 80 61 00
        E 0 80 64 00
        E 360 90 3e 60
        E 0 90 4a 60
        E 0 90 4b 60
        E 0 90 55 60
        E 0 90 58 60
        E 0 90 61 60
        E 0 90 64 60
        E 120 80 3e 00
        E 0 80 4a 00
        E 0 80 4b 00
        E 0 80 55 00
        E 0 80 58 00
        E 0 80 61 00
        E 0 80 64 00
        E 360 90 3e 60
        E 0 90 4a 60
        E 0 90 4b 60
        E 0 90 55 60
        E 0 90 58 60
        E 0 90 61 60
        E 0 90 64 60
        E 120 80 3e 00
        E 0 80 4a 00
        E 0 80 4b 00
        E 0 80 55 00
        E 0 80 58 00
        E 0 80 61 00
        E 0 80 64 00
        E 360 90 3e 60
        E 0 90 4a 60
        E 0 90 4b 60
        E 0 90 55 60
        E 0 90 58 60
        E 0 90 61 60
        E 0 90 64 60
        E 120 80 3e 00
        E 0 80 4a 00
        E 0 80 4b 00
        E 0 80 55 00
        E 0 80 58 00
        E 0 80 61 00
        E 0 80 64 00
        E 360 90 3e 60
        E 0 90 4a 60
        E 0 90 4b 60
        E 0 90 56 60
        E 0 90 58 60
        E 0 90 62 60
        E 0 90 64 60
        E 120 80 3e 00
        E 0 80 4a 00
        E 0 80 4b 00
        E 0 80 56 00
        E 0 80 58 00
        E 0 80 62 00
        E 0 80 64 00
        E 360 90 3e 60
        E 0 90 4a 60
        E 0 90 4b 60
        E 0 90 56 60
        E 0 90 58 60
        E 0 90 62 60
        E 0 90 64 60
        E 120 80 3e 00
        E 0 80 4a 00
        E 0 80 4b 00
        E 0 80 56 00
        E 0 80 58 00
        E 0 80 62 00
        E 0 80 64 00
        E 360 90 3e 60
        E 0 90 4a 60
        E 0 90 4b 60
        E 0 90 56 60
        E 0 90 58 60
        E 0 90 62 60
        E 0 90 64 60
        E 120 80 3e 00
        E 0 80 4a 00
        E 0 80 4b 00
        E 0 80 56 00
        E 0 80 58 00
        E 0 80 62 00
        E 0 80 64 00
        E 360 90 3e 60
        E 0 90 4a 60
        E 0 90 4b 60
        E 0 90 56 60
        E 0 90 58 60
        E 0 90 62 60
        E 0 90 64 60
        E 120 80 3e 00
        E 0 80 4a 00
        E 0 80 4b 00
        E 0 80 56 00
        E 0 80 58 00
        E 0 80 62 00
        E 0 80 64 00
        E 360 90 3e 60
        E 0 90 49 60
        E 0 90 4a 60
        E 0 90 55 60
        E 0 90 56 60
        E 0 90 61 60
        E 0 90 62 60
        E 0 90 74 60
        E 120 80 3e 00
        E 0 80 49 00
        E 0 80 4a 00
        E 0 80 55 00
        E 0 80 56 00
        E 0 80 61 00
        E 0 80 62 00
        E 360 90 49 60
        E 0 90 4a 60
        E 0 90 55 60
        E 0 90 56 60
        E 0 90 61 60
        E 0 90 62 60
        E 120 80 49 00
        E 0 80 4a 00
        E 0 80 55 00
        E 0 80 56 00
        E 0 80 61 00
        E 0 80 62 00
        E 360 90 3d 60
        E 0 90 48 60
        E 0 90 4a 60
        E 0 90 54 60
        E 0 90 56 60
        E 0 90 60 60
        E 0 90 62 60
        E 120 80 3d 00
        E 0 80 48 00
        E 0 80 4a 00
        E 0 80 54 00
        E 0 80 56 00
        E 0 80 60 00
        E 0 80 62 00
        E 360 90 48 60
        E 0 90 4a 60
        E 0 90 54 60
        E 0 90 56 60
        E 0 90 60 60
        E 0 90 62 60
        E 120 80 48 00
        E 0 80 4a 00
        E 0 80 54 00
        E 0 80 56 00
        E 0 80 60 00
        E 0 80 62 00
        E 360 80 74 00
        E 0 90 3e 60
        E 0 90 4a 60
        E 0 90 4b 60
        E 0 90 56 60
        E 0 90 57 60
        E 0 90 62 60
        E 0 90 63 60
        E 120 80 3e 00
        E 0 80 4a 00
        E 0 80 4b 00
        E 0 80 56 00
        E 0 80 57 00
        E 0 80 62 00
        E 0 80 63 00
        E 360 90 3e 60
        E 0 90 4a 60
        E 0 90 4b 60
        E 0 90 56 60
        E 0 90 57 60
        E 0 90 62 60
        E 0 90 63 60
        E 120 80 3e 00
        E 0 80 4a 00
        E 0 80 4b 00
        E 0 80 56 00
        E 0 80 57 00
        E 0 80 62 00
        E 0 80 63 00
        E 360 90 3e 60
        E 0 90 49 60
        E 0 90 4b 60
        E 0 90 55 60
        E 0 90 57 60
        E 0 90 61 60
        E 0 90 63 60
        E 120 80 3e 00
        E 0 80 49 00
        E 0 80 4b 00
        E 0 80 55 00
        E 0 80 57 00
        E 0 80 61 00
        E 0 80 63 00
        E 360 90 3e 60
        E 0 90 49 60
        E 0 90 4b 60
        E 0 90 55 60
        E 0 90 57 60
        E 0 90 61 60
        E 0 90 63 60
        E 120 80 3e 00
        E 0 80 49 00
        E 0 80 4b 00
        E 0 80 55 00
        E 0 80 57 00
        E 0 80 61 00
        E 0 80 63 00
        E 360 90 3e 60
        E 0 90 4a 60
        E 0 90 4b 60
        E 0 90 55 60
        E 0 90 58 60
        E 0 90 61 60
        E 0 90 64 60
        E 120 80 3e 00
        E 0 80 4a 00
        E 0 80 4b 00
        E 0 80 55 00
        E 0 80 58 00
        E 0 80 61 00
        E 0 80 64 00
        E 360 90 3e 60
        E 0 90 4a 60
        E 0 90 4b 60
        E 0 90 55 60
        E 0 90 58 60
        E 0 90 61 60
        E 0 90 64 60
        E 120 80 3e 00
        E 0 80 4a 00
        E 0 80 4b 00
        E 0 80 55 00
        E 0 80 58 00
        E 0 80 61 00
        E 0 80 64 00
        E 360 90 3e 60
        E 0 90 4a 60
        E 0 90 4b 60
        E 0 90 55 60
        E 0 90 58 60
        E 0 90 61 60
        E 0 90 64 60
        E 120 80 3e 00
        E 0 80 4a 00
        E 0 80 4b 00
        E 0 80 55 00
        E 0 80 58 00
        E 0 80 61 00
        E 0 80 64 00
        E 360 90 3e 60
        E 0 90 4a 60
        E 0 90 4b 60
        E 0 90 55 60
        E 0 90 58 60
        E 0 90 61 60
        E 0 90 64 60
        E 120 80 3e 00
        E 0 80 4a 00
        E 0 80 4b 00
        E 0 80 55 00
        E 0 80 58 00
        E 0 80 61 00
        E 0 80 64 00
        E 360 90 3e 60
        E 0 90 4a 60
        E 0 90 4b 60
        E 0 90 56 60
        E 0 90 58 60
        E 0 90 62 60
        E 0 90 64 60
        E 120 80 3e 00
        E 0 80 4a 00
        E 0 80 4b 00
        E 0 80 56 00
        E 0 80 58 00
        E 0 80 62 00
        E 0 80 64 00
        E 360 90 3e 60
        E 0 90 4a 60
        E 0 90 4b 60
        E 0 90 56 60
        E 0 90 58 60
        E 0 90 62 60
        E 0 90 64 60
        E 120 80 3e 00
        E 0 80 4a 00
        E 0 80 4b 00
        E 0 80 56 00
        E 0 80 58 00
        E 0 80 62 00
        E 0 80 64 00
        E 360 90 3e 60
        E 0 90 4a 60
        E 0 90 4b 60
        E 0 90 56 60
        E 0 90 58 60
        E 0 90 62 60
        E 0 90 64 60
        E 120 80 3e 00
        E 0 80 4a 00
        E 0 80 4b 00
        E 0 80 56 00
        E 0 80 58 00
        E 0 80 62 00
        E 0 80 64 00
        E 360 90 3e 60
        E 0 90 4a 60
        E 0 90 4b 60
        E 0 90 56 60
        E 0 90 58 60
        E 0 90 62 60
        E 0 90 64 60
        E 120 80 3e 00
        E 0 80 4a 00
        E 0 80 4b 00
        E 0 80 56 00
        E 0 80 58 00
        E 0 80 62 00
        E 0 80 64 00
        E 360 90 3e 60
        E 0 90 49 60
        E 0 90 4a 60
        E 0 90 55 60
        E 0 90 56 60
        E 0 90 61 60
        E 0 90 62 60
        E 120 80 3e 00
        E 0 80 49 00
        E 0 80 4a 00
        E 0 80 55 00
        E 0 80 56 00
        E 0 80 61 00
        E 0 80 62 00
        E 360 90 49 60
        E 0 90 4a 60
        E 0 90 55 60
        E 0 90 56 60
        E 0 90 61 60
        E 0 90 62 60
        E 120 80 49 00
        E 0 80 4a 00
        E 0 80 55 00
        E 0 80 56 00
        E 0 80 61 00
        E 0 80 62 00
        E 360 90 3d 60
        E 0 90 48 60
        E 0 90 4a 60
        E 0 90 54 60
        E 0 90 56 60
        E 0 90 60 60
        E 0 90 62 60
        E 120 80 3d 00
        E 0 80 48 00
        E 0 80 4a 00
        E 0 80 54 00
        E 0 80 56 00
        E 0 80 60 00
        E 0 80 62 00
        E 360 90 48 60
        E 0 90 4a 60
        E 0 90 54 60
        E 0 90 56 60
        E 0 90 60 60
        E 0 90 62 60
        E 120 80 48 00
        E 0 80 4a 00
        E 0 80 54 00
        E 0 80 56 00
        E 0 80 60 00
        E 0 80 62 00
        E 360 90 3e 60
        E 0 90 4a 60
        E 0 90 4b 60
        E 0 90 56 60
        E 0 90 57 60
        E 0 90 62 60
        E 0 90 63 60
        E 120 80 3e 00
        E 0 80 4a 00
        E 0 80 4b 00
        E 0 80 56 00
        E 0 80 57 00
        E 0 80 62 00
        E 0 80 63 00
        E 360 90 3e 60
        E 0 90 4a 60
        E 0 90 4b 60
        E 0 90 56 60
        E 0 90 57 60
        E 0 90 62 60
        E 0 90 63 60
        E 120 80 3e 00
        E 0 80 4a 00
        E 0 80 4b 00
        E 0 80 56 00
        E 0 80 57 00
        E 0 80 62 00
        E 0 80 63 00
        E 360 90 3e 60
        E 0 90 49 60
        E 0 90 4b 60
        E 0 90 55 60
        E 0 90 57 60
        E 0 90 61 60
        E 0 90 63 60
        E 120 80 3e 00
        E 0 80 49 00
        E 0 80 4b 00
        E 0 80 55 00
        E 0 80 57 00
        E 0 80 61 00
        E 0 80 63 00
        E 360 90 3e 60
        E 0 90 49 60
        E 0 90 4b 60
        E 0 90 55 60
        E 0 90 57 60
        E 0 90 61 60
        E 0 90 63 60
        E 120 80 3e 00
        E 0 80 49 00
        E 0 80 4b 00
        E 0 80 55 00
        E 0 80 57 00
        E 0 80 61 00
        E 0 80 63 00
        E 360 90 3e 60
        E 0 90 4a 60
        E 0 90 4b 60
        E 0 90 55 60
        E 0 90 58 60
        E 0 90 61 60
        E 0 90 64 60
        E 0 90 74 60
        E 120 80 3e 00
        E 0 80 4a 00
        E 0 80 4b 00
        E 0 80 55 00
        E 0 80 58 00
        E 0 80 61 00
        E 0 80 64 00
        E 360 90 3e 60
        E 0 90 4a 60
        E 0 90 4b 60
        E 0 90 55 60
        E 0 90 58 60
        E 0 90 61 60
        E 0 90 64 60
        E 120 80 3e 00
        E 0 80 4a 00
        E 0 80 4b 00
        E 0 80 55 00
        E 0 80 58 00
        E 0 80 61 00
        E 0 80 64 00
        E 360 90 3e 60
        E 0 90 4a 60
        E 0 90 4b 60
        E 0 90 55 60
        E 0 90 58 60
        E 0 90 61 60
        E 0 90 64 60
        E 120 80 3e 00
        E 0 80 4a 00
        E 0 80 4b 00
        E 0 80 55 00
        E 0 80 58 00
        E 0 80 61 00
        E 0 80 64 00
        E 360 90 3e 60
        E 0 90 4a 60
        E 0 90 4b 60
        E 0 90 55 60
        E 0 90 58 60
        E 0 90 61 60
        E 0 90 64 60
        E 120 80 3e 00
        E 0 80 4a 00
        E 0 80 4b 00
        E 0 80 55 00
        E 0 80 58 00
        E 0 80 61 00
        E 0 80 64 00
        E 360 90 3e 60
        E 0 90 4a 60
        E 0 90 4b 60
        E 0 90 56 60
        E 0 90 58 60
        E 0 90 62 60
        E 0 90 64 60
        E 120 80 74 00
        E 0 80 3e 00
        E 0 80 4a 00
        E 0 80 4b 00
        E 0 80 56 00
        E 0 80 58 00
        E 0 80 62 00
        E 0 80 64 00
        E 360 90 3e 60
        E 0 90 4a 60
        E 0 90 4b 60
        E 0 90 56 60
        E 0 90 58 60
        E 0 90 62 60
        E 0 90 64 60
        E 120 80 3e 00
        E 0 80 4a 00
        E 0 80 4b 00
        E 0 80 56 00
        E 0 80 58 00
        E 0 80 62 00
        E 0 80 64 00
        E 360 90 3e 60
        E 0 90 4a 60
        E 0 90 4b 60
        E 0 90 56 60
        E 0 90 58 60
        E 0 90 62 60
        E 0 90 64 60
        E 120 80 3e 00
        E 0 80 4a 00
        E 0 80 4b 00
        E 0 80 56 00
        E 0 80 58 00
        E 0 80 62 00
        E 0 80 64 00
        E 360 90 3e 60
        E 0 90 4a 60
        E 0 90 4b 60
        E 0 90 56 60
        E 0 90 58 60
        E 0 90 62 60
        E 0 90 64 60
        E 120 80 3e 00
        E 0 80 4a 00
        E 0 80 4b 00
        E 0 80 56 00
        E 0 80 58 00
        E 0 80 62 00
        E 0 80 64 00
        E 360 90 3e 60
        E 0 90 49 60
        E 0 90 4a 60
        E 0 90 55 60
        E 0 90 56 60
        E 0 90 61 60
        E 0 90 62 60
        E 120 80 3e 00
        E 0 80 49 00
        E 0 80 4a 00
        E 0 80 55 00
        E 0 80 56 00
        E 0 80 61 00
        E 0 80 62 00
        E 360 90 49 60
        E 0 90 4a 60
        E 0 90 55 60
        E 0 90 56 60
        E 0 90 61 60
        E 0 90 62 60
        E 120 80 49 00
        E 0 80 4a 00
        E 0 80 55 00
        E 0 80 56 00
        E 0 80 61 00
        E 0 80 62 00
        E 360 90 3d 60
        E 0 90 48 60
        E 0 90 4a 60
        E 0 90 54 60
        E 0 90 56 60
        E 0 90 60 60
        E 0 90 62 60
        E 120 80 3d 00
        E 0 80 48 00
        E 0 80 4a 00
        E 0 80 54 00
        E 0 80 56 00
        E 0 80 60 00
        E 0 80 62 00
        E 360 90 48 60
        E 0 90 4a 60
        E 0 90 54 60
        E 0 90 56 60
        E 0 90 60 60
        E 0 90 62 60
        E 120 80 48 00
        E 0 80 4a 00
        E 0 80 54 00
        E 0 80 56 00
        E 0 80 60 00
        E 0 80 62 00
        E 360 90 3e 60
        E 0 90 4a 60
        E 0 90 4b 60
        E 0 90 56 60
        E 0 90 57 60
        E 0 90 62 60
        E 0 90 63 60
        E 120 80 3e 00
        E 0 80 4a 00
        E 0 80 4b 00
        E 0 80 56 00
        E 0 80 57 00
        E 0 80 62 00
        E 0 80 63 00
        E 360 90 3e 60
        E 0 90 4a 60
        E 0 90 4b 60
        E 0 90 56 60
        E 0 90 57 60
        E 0 90 62 60
        E 0 90 63 60
        E 120 80 3e 00
        E 0 80 4a 00
        E 0 80 4b 00
        E 0 80 56 00
        E 0 80 57 00
        E 0 80 62 00
        E 0 80 63 00
        E 360 90 3e 60
        E 0 90 49 60
        E 0 90 4b 60
        E 0 90 55 60
        E 0 90 57 60
        E 0 90 61 60
        E 0 90 63 60
        E 120 80 3e 00
        E 0 80 49 00
        E 0 80 4b 00
        E 0 80 55 00
        E 0 80 57 00
        E 0 80 61 00
        E 0 80 63 00
        E 360 90 3e 60
        E 0 90 49 60
        E 0 90 4b 60
        E 0 90 55 60
        E 0 90 57 60
        E 0 90 61 60
        E 0 90 63 60
        E 120 80 3e 00
        E 0 80 49 00
        E 0 80 4b 00
        E 0 80 55 00
        E 0 80 57 00
        E 0 80 61 00
        E 0 80 63 00
        E 360 90 3e 60
        E 0 90 4a 60
        E 0 90 4b 60
        E 0 90 55 60
        E 0 90 58 60
        E 0 90 61 60
        E 0 90 64 60
        E 120 80 3e 00
        E 0 80 4a 00
        E 0 80 4b 00
        E 0 80 55 00
        E 0 80 58 00
        E 0 80 61 00
        E 0 80 64 00
        E 360 90 3e 60
        E 0 90 4a 60
        E 0 90 4b 60
        E 0 90 55 60
        E 0 90 58 60
        E 0 90 61 60
        E 0 90 64 60
        E 120 80 3e 00
        E 0 80 4a 00
        E 0 80 4b 00
        E 0 80 55 00
        E 0 80 58 00
        E 0 80 61 00
        E 0 80 64 00
        E 360 90 3e 60
        E 0 90 4a 60
        E 0 90 4b 60
        E 0 90 55 60
        E 0 90 58 60
        E 0 90 61 60
        E 0 90 64 60
        E 120 80 3e 00
        E 0 80 4a 00
        E 0 80 4b 00
        E 0 80 55 00
        E 0 80 58 00
        E 0 80 61 00
        E 0 80 64 00
        E 360 90 3e 60
        E 0 90 4a 60
        E 0 90 4b 60
        E 0 90 55 60
        E 0 90 58 60
        E 0 90 61 60
        E 0 90 64 60
        E 120 80 3e 00
        E 0 80 4a 00
        E 0 80 4b 00
        E 0 80 55 00
        E 0 80 58 00
        E 0 80 61 00
        E 0 80 64 00
        E 360 90 3e 60
        E 0 90 4a 60
        E 0 90 4b 60
        E 0 90 56 60
        E 0 90 58 60
        E 0 90 62 60
        E 0 90 64 60
        E 120 80 3e 00
        E 0 80 4a 00
        E 0 80 4b 00
        E 0 80 56 00
        E 0 80 58 00
        E 0 80 62 00
        E 0 80 64 00
        E 360 90 3e 60
        E 0 90 4a 60
        E 0 90 4b 60
        E 0 90 56 60
        E 0 90 58 60
        E 0 90 62 60
        E 0 90 64 60
        E 120 80 3e 00
        E 0 80 4a 00
        E 0 80 4b 00
        E 0 80 56 00
        E 0 80 58 00
        E 0 80 62 00
        E 0 80 64 00
        E 360 90 3e 60
        E 0 90 4a 60
        E 0 90 4b 60
        E 0 90 56 60
        E 0 90 58 60
        E 0 90 62 60
        E 0 90 64 60
        E 120 80 3e 00
        E 0 80 4a 00
        E 0 80 4b 00
        E 0 80 56 00
        E 0 80 58 00
        E 0 80 62 00
        E 0 80 64 00
        E 360 90 3e 60
        E 0 90 4a 60
        E 0 90 4b 60
        E 0 90 56 60
        E 0 90 58 60
        E 0 90 62 60
        E 0 90 64 60
        E 120 80 3e 00
        E 0 80 4a 00
        E 0 80 4b 00
        E 0 80 56 00
        E 0 80 58 00
        E 0 80 62 00
        E 0 80 64 00
        E 360 90 3e 60
        E 0 90 49 60
        E 0 90 4a 60
        E 0 90 55 60
        E 0 90 56 60
        E 0 90 61 60
        E 0 90 62 60
        E 120 80 3e 00
        E 0 80 49 00
        E 0 80 4a 00
        E 0 80 55 00
        E 0 80 56 00
        E 0 80 61 00
        E 0 80 62 00
        E 360 90 49 60
        E 0 90 4a 60
        E 0 90 55 60
        E 0 90 56 60
        E 0 90 61 60
        E 0 90 62 60
        E 120 80 49 00
        E 0 80 4a 00
        E 0 80 55 00
        E 0 80 56 00
        E 0 80 61 00
        E 0 80 62 00
        E 360 90 3d 60
        E 0 90 48 60
        E 0 90 4a 60
        E 0 90 54 60
        E 0 90 56 60
        E 0 90 60 60
        E 0 90 62 60
        E 120 80 3d 00
        E 0 80 48 00
        E 0 80 4a 00
        E 0 80 54 00
        E 0 80 56 00
        E 0 80 60 00
        E 0 80 62 00
        E 360 90 48 60
        E 0 90 4a 60
        E 0 90 54 60
        E 0 90 56 60
        E 0 90 60 60
        E 0 90 62 60
        E 120 80 48 00
        E 0 80 4a 00
        E 0 80 54 00
        E 0 80 56 00
        E 0 80 60 00
        E 0 80 62 00
        E 360 90 3e 60
        E 0 90 49 60
        E 0 90 4a 60
        E 0 90 54 60
        E 0 90 57 60
        E 0 90 60 60
        E 0 90 63 60
        E 120 80 3e 00
        E 0 80 49 00
        E 0 80 4a 00
        E 0 80 54 00
        E 0 80 57 00
        E 0 80 60 00
        E 0 80 63 00
        E 360 90 3e 60
        E 0 90 49 60
        E 0 90 4a 60
        E 0 90 54 60
        E 0 90 57 60
        E 0 90 60 60
        E 0 90 63 60
        E 120 80 3e 00
        E 0 80 49 00
        E 0 80 4a 00
        E 0 80 54 00
        E 0 80 57 00
        E 0 80 60 00
        E 0 80 63 00
        E 360 90 3e 60
        E 0 90 49 60
        E 0 90 4a 60
        E 0 90 54 60
        E 0 90 57 60
        E 0 90 60 60
        E 0 90 63 60
        E 120 80 3e 00
        E 0 80 49 00
        E 0 80 4a 00
        E 0 80 54 00
        E 0 80 57 00
        E 0 80 60 00
        E 0 80 63 00
        E 360 90 49 60
        E 0 90 4a 60
        E 0 90 54 60
        E 0 90 57 60
        E 0 90 60 60
        E 0 90 63 60
        E 120 80 49 00
        E 0 80 4a 00
        E 0 80 54 00
        E 0 80 57 00
        E 0 80 60 00
        E 0 80 63 00
        E 360 90 3d 60
        E 0 90 49 60
        E 0 90 55 60
        E 0 90 61 60
        E 120 80 3d 00
        E 0 80 49 00
        E 0 80 55 00
        E 0 80 61 00
        E 360 90 4b 60
        E 0 90 58 60
        E 0 90 64 60
        E 120 80 4b 00
        E 0 80 58 00
        E 0 80 64 00
        E 120 90 57 60
        E 0 90 63 60
        E 120 80 57 00
        E 0 80 63 00
        E 120 90 3d 60
        E 0 90 49 60
        E 0 90 55 60
        E 0 90 61 60
        E 120 80 3d 00
        E 0 80 49 00
        E 0 80 55 00
        E 0 80 61 00
        E 360 90 49 60
        E 0 90 55 60
        E 0 90 61 60
        E 120 80 49 00
        E 0 80 55 00
        E 0 80 61 00
        E 360 90 3c 60
        E 0 90 48 60
        E 0 90 54 60
        E 0 90 60 60
        E 0 90 74 60
        E 120 80 3c 00
        E 0 80 48 00
        E 0 80 54 00
        E 0 80 60 00
        E 120 90 55 60
        E 0 90 61 60
        E 120 80 55 00
        E 0 80 61 00
        E 120 90 4b 60
        E 0 90 58 60
        E 0 90 64 60
        E 120 80 4b 00
        E 0 80 58 00
        E 0 80 64 00
        E 120 90 57 60
        E 0 90 63 60
        E 120 80 57 00
        E 0 80 63 00
        E 120 90 3c 60
        E 0 90 48 60
        E 0 90 54 60
        E 0 90 60 60
        E 120 80 3c 00
        E 0 80 48 00
        E 0 80 54 00
        E 0 80 60 00
        E 360 90 48 60
        E 0 90 54 60
        E 0 90 60 60
        E 120 80 48 00
        E 0 80 54 00
        E 0 80 60 00
        E 360 80 74 00
        E 0 90 3d 60
        E 0 90 4a 60
        E 0 90 56 60
        E 0 90 62 60
        E 120 80 3d 00
        E 0 80 4a 00
        E 0 80 56 00
        E 0 80 62 00
        E 360 90 4b 60
        E 0 90 58 60
        E 0 90 64 60
        E 120 80 4b 00
        E 0 80 58 00
        E 0 80 64 00
        E 120 90 57 60
        E 0 90 63 60
        E 120 80 57 00
        E 0 80 63 00
        E 120 90 3d 60
        E 0 90 4a 60
        E 0 90 56 60
        E 0 90 62 60
        E 120 80 3d 00
        E 0 80 4a 00
        E 0 80 56 00
        E 0 80 62 00
        E 360 90 4a 60
        E 0 90 56 60
        E 0 90 62 60
        E 120 80 4a 00
        E 0 80 56 00
        E 0 80 62 00
        E 360 90 3e 60
        E 0 90 49 60
        E 0 90 4a 60
        E 0 90 55 60
        E 0 90 56 60
        E 0 90 61 60
        E 0 90 62 60
        E 120 80 3e 00
        E 0 80 49 00
        E 0 80 4a 00
        E 0 80 55 00
        E 0 80 56 00
        E 0 80 61 00
        E 0 80 62 00
        E 360 90 3e 60
        E 0 90 49 60
        E 0 90 4b 60
        E 0 90 55 60
        E 0 90 57 60
        E 0 90 61 60
        E 0 90 62 60
        E 0 90 63 60
        E 120 80 3e 00
        E 0 80 49 00
        E 0 80 4b 00
        E 0 80 55 00
        E 0 80 57 00
        E 0 80 61 00
        E 0 80 62 00
        E 0 80 63 00
        E 360 90 3e 60
        E 0 90 49 60
        E 0 90 4a 60
        E 0 90 54 60
        E 0 90 57 60
        E 0 90 60 60
        E 0 90 62 60
        E 0 90 63 60
        E 120 80 3e 00
        E 0 80 49 00
        E 0 80 4a 00
        E 0 80 54 00
        E 0 80 57 00
        E 0 80 60 00
        E 0 80 62 00
        E 0 80 63 00
        E 360 90 3e 60
        E 0 90 49 60
        E 0 90 4a 60
        E 0 90 54 60
        E 0 90 57 60
        E 0 90 60 60
        E 0 90 62 60
        E 0 90 63 60
        E 120 80 3e 00
        E 0 80 49 00
        E 0 80 4a 00
        E 0 80 54 00
        E 0 80 57 00
        E 0 80 60 00
        E 0 80 62 00
        E 0 80 63 00
        E 360 90 3e 60
        E 0 90 4b 60
        E 0 90 58 60
        E 0 90 64 60
        E 120 80 3e 00
        E 0 80 4b 00
        E 0 80 58 00
        E 0 80 64 00
        E 120 90 55 60
        E 0 90 61 60
        E 120 80 55 00
        E 0 80 61 00
        E 120 90 4b 60
        E 0 90 58 60
        E 0 90 64 60
        E 120 80 4b 00
        E 0 80 58 00
        E 0 80 64 00
        E 120 90 57 60
        E 0 90 63 60
        E 120 80 57 00
        E 0 80 63 00
        E 120 90 3d 60
        E 0 90 49 60
        E 0 90 55 60
        E 0 90 61 60
        E 120 80 3d 00
        E 0 80 49 00
        E 0 80 55 00
        E 0 80 61 00
        E 360 90 49 60
        E 0 90 55 60
        E 0 90 61 60
        E 120 80 49 00
        E 0 80 55 00
        E 0 80 61 00
        E 360 90 3c 60
        E 0 90 48 60
        E 0 90 54 60
        E 0 90 60 60
        E 120 80 3c 00
        E 0 80 48 00
        E 0 80 54 00
        E 0 80 60 00
        E 120 90 55 60
        E 0 90 61 60
        E 120 80 55 00
        E 0 80 61 00
        E 120 90 4b 60
        E 0 90 58 60
        E 0 90 64 60
        E 120 80 4b 00
        E 0 80 58 00
        E 0 80 64 00
        E 120 90 57 60
        E 0 90 63 60
        E 120 80 57 00
        E 0 80 63 00
        E 120 90 3c 60
        E 0 90 48 60
        E 0 90 54 60
        E 0 90 60 60
        E 120 80 3c 00
        E 0 80 48 00
        E 0 80 54 00
        E 0 80 60 00
        E 120 90 55 60
        E 0 90 61 60
        E 120 80 55 00
        E 0 80 61 00
        E 120 90 4a 60
        E 0 90 56 60
        E 0 90 62 60
        E 120 80 4a 00
        E 0 80 56 00
        E 0 80 62 00
        E 120 90 57 60
        E 0 90 63 60
        E 120 80 57 00
        E 0 80 63 00
        E 120 90 3d 60
        E 0 90 4a 60
        E 0 90 56 60
        E 0 90 62 60
        E 120 80 3d 00
        E 0 80 4a 00
        E 0 80 56 00
        E 0 80 62 00
        E 360 90 4a 60
        E 0 90 4b 60
        E 0 90 55 60
        E 0 90 58 60
        E 0 90 61 60
        E 0 90 64 60
        E 120 80 4a 00
        E 0 80 4b 00
        E 0 80 55 00
        E 0 80 58 00
        E 0 80 61 00
        E 0 80 64 00
        E 120 90 54 60
        E 0 90 57 60
        E 0 90 60 60
        E 0 90 63 60
        E 120 80 54 00
        E 0 80 57 00
        E 0 80 60 00
        E 0 80 63 00
        E 120 90 3d 60
        E 0 90 4a 60
        E 0 90 56 60
        E 0 90 62 60
        E 120 80 3d 00
        E 0 80 4a 00
        E 0 80 56 00
        E 0 80 62 00
        E 360 90 4a 60
        E 0 90 56 60
        E 0 90 62 60
        E 120 80 4a 00
        E 0 80 56 00
        E 0 80 62 00
        E 360 90 3e 60
        E 0 90 49 60
        E 0 90 4a 60
        E 0 90 55 60
        E 0 90 56 60
        E 0 90 61 60
        E 0 90 62 60
        E 0 90 74 60
        E 120 80 3e 00
        E 0 80 49 00
        E 0 80 4a 00
        E 0 80 55 00
        E 0 80 56 00
        E 0 80 61 00
        E 0 80 62 00
        E 360 90 3e 60
        E 0 90 49 60
        E 0 90 4b 60
        E 0 90 55 60
        E 0 90 57 60
        E 0 90 61 60
        E 0 90 62 60
        E 0 90 63 60
        E 120 80 3e 00
        E 0 80 49 00
        E 0 80 4b 00
        E 0 80 55 00
        E 0 80 57 00
        E 0 80 61 00
        E 0 80 62 00
        E 0 80 63 00
        E 360 90 3e 60
        E 0 90 49 60
        E 0 90 4a 60
        E 0 90 54 60
        E 0 90 57 60
        E 0 90 60 60
        E 0 90 62 60
        E 0 90 63 60
        E 120 80 3e 00
        E 0 80 49 00
        E 0 80 4a 00
        E 0 80 54 00
        E 0 80 57 00
        E 0 80 60 00
        E 0 80 62 00
        E 0 80 63 00
        E 360 90 3e 60
        E 0 90 49 60
        E 0 90 4a 60
        E 0 90 54 60
        E 0 90 57 60
        E 0 90 60 60
        E 0 90 62 60
        E 0 90 63 60
        E 120 80 3e 00
        E 0 80 49 00
        E 0 80 4a 00
        E 0 80 54 00
        E 0 80 57 00
        E 0 80 60 00
        E 0 80 62 00
        E 0 80 63 00
        E 360 80 74 00
        E 0 90 3e 60
        E 0 90 4a 60
        E 0 90 4b 60
        E 0 90 55 60
        E 0 90 58 60
        E 0 90 61 60
        E 0 90 64 60
        E 120 80 3e 00
        E 0 80 4a 00
        E 0 80 4b 00
        E 0 80 55 00
        E 0 80 58 00
        E 0 80 61 00
        E 0 80 64 00
        E 360 90 3e 60
        E 0 90 4a 60
        E 0 90 4b 60
        E 0 90 55 60
        E 0 90 58 60
        E 0 90 61 60
        E 0 90 64 60
        E 120 80 3e 00
        E 0 80 4a 00
        E 0 80 4b 00
        E 0 80 55 00
        E 0 80 58 00
        E 0 80 61 00
        E 0 80 64 00
        E 360 90 3e 60
        E 0 90 4a 60
        E 0 90 4b 60
        E 0 90 55 60
        E 0 90 58 60
        E 0 90 61 60
        E 0 90 64 60
        E 120 80 3e 00
        E 0 80 4a 00
        E 0 80 4b 00
        E 0 80 55 00
        E 0 80 58 00
        E 0 80 61 00
        E 0 80 64 00
        E 360 90 3e 60
        E 0 90 4a 60
        E 0 90 4b 60
        E 0 90 55 60
        E 0 90 58 60
        E 0 90 61 60
        E 0 90 64 60
        E 120 80 3e 00
        E 0 80 4a 00
        E 0 80 4b 00
        E 0 80 55 00
        E 0 80 58 00
        E 0 80 61 00
        E 0 80 64 00
        E 360 90 3e 60
        E 0 90 4a 60
        E 0 90 4b 60
        E 0 90 56 60
        E 0 90 58 60
        E 0 90 62 60
        E 0 90 64 60
        E 120 80 3e 00
        E 0 80 4a 00
        E 0 80 4b 00
        E 0 80 56 00
        E 0 80 58 00
        E 0 80 62 00
        E 0 80 64 00
        E 360 90 3e 60
        E 0 90 4a 60
        E 0 90 4b 60
        E 0 90 56 60
        E 0 90 58 60
        E 0 90 62 60
        E 0 90 64 60
        E 120 80 3e 00
        E 0 80 4a 00
        E 0 80 4b 00
        E 0 80 56 00
        E 0 80 58 00
        E 0 80 62 00
        E 0 80 64 00
        E 360 90 3e 60
        E 0 90 4a 60
        E 0 90 4b 60
        E 0 90 56 60
        E 0 90 58 60
        E 0 90 62 60
        E 0 90 64 60
        E 120 80 3e 00
        E 0 80 4a 00
        E 0 80 4b 00
        E 0 80 56 00
        E 0 80 58 00
        E 0 80 62 00
        E 0 80 64 00
        E 360 90 3e 60
        E 0 90 4a 60
        E 0 90 4b 60
        E 0 90 56 60
        E 0 90 58 60
        E 0 90 62 60
        E 0 90 64 60
        E 120 80 3e 00
        E 0 80 4a 00
        E 0 80 4b 00
        E 0 80 56 00
        E 0 80 58 00
        E 0 80 62 00
        E 0 80 64 00
        E 360 90 3e 60
        E 0 90 49 60
        E 0 90 4a 60
        E 0 90 55 60
        E 0 90 56 60
        E 0 90 61 60
        E 0 90 62 60
        E 120 80 3e 00
        E 0 80 49 00
        E 0 80 4a 00
        E 0 80 55 00
        E 0 80 56 00
        E 0 80 61 00
        E 0 80 62 00
        E 360 90 49 60
        E 0 90 4a 60
        E 0 90 55 60
        E 0 90 56 60
        E 0 90 61 60
        E 0 90 62 60
        E 120 80 49 00
        E 0 80 4a 00
        E 0 80 55 00
        E 0 80 56 00
        E 0 80 61 00
        E 0 80 62 00
        E 360 90 3d 60
        E 0 90 48 60
        E 0 90 4a 60
        E 0 90 54 60
        E 0 90 56 60
        E 0 90 60 60
        E 0 90 62 60
        E 120 80 3d 00
        E 0 80 48 00
        E 0 80 4a 00
        E 0 80 54 00
        E 0 80 56 00
        E 0 80 60 00
        E 0 80 62 00
        E 360 90 48 60
        E 0 90 4a 60
        E 0 90 54 60
        E 0 90 56 60
        E 0 90 60 60
        E 0 90 62 60
        E 120 80 48 00
        E 0 80 4a 00
        E 0 80 54 00
        E 0 80 56 00
        E 0 80 60 00
        E 0 80 62 00
        E 360 90 3e 60
        E 0 90 4a 60
        E 0 90 4b 60
        E 0 90 56 60
        E 0 90 57 60
        E 0 90 62 60
        E 0 90 63 60
        E 120 80 3e 00
        E 0 80 4a 00
        E 0 80 4b 00
        E 0 80 56 00
        E 0 80 57 00
        E 0 80 62 00
        E 0 80 63 00
        E 360 90 3e 60
        E 0 90 4a 60
        E 0 90 4b 60
        E 0 90 56 60
        E 0 90 57 60
        E 0 90 62 60
        E 0 90 63 60
        E 120 80 3e 00
        E 0 80 4a 00
        E 0 80 4b 00
        E 0 80 56 00
        E 0 80 57 00
        E 0 80 62 00
        E 0 80 63 00
        E 360 90 3e 60
        E 0 90 49 60
        E 0 90 4b 60
        E 0 90 55 60
        E 0 90 57 60
        E 0 90 61 60
        E 0 90 63 60
        E 120 80 3e 00
        E 0 80 49 00
        E 0 80 4b 00
        E 0 80 55 00
        E 0 80 57 00
        E 0 80 61 00
        E 0 80 63 00
        E 360 90 3e 60
        E 0 90 49 60
        E 0 90 4b 60
        E 0 90 55 60
        E 0 90 57 60
        E 0 90 61 60
        E 0 90 63 60
        E 120 80 3e 00
        E 0 80 49 00
        E 0 80 4b 00
        E 0 80 55 00
        E 0 80 57 00
        E 0 80 61 00
        E 0 80 63 00
        E 120 90 58 60
        E 0 90 64 60
        E 120 80 58 00
        E 0 80 64 00
        E 120 90 3e 60
        E 0 90 4a 60
        E 0 90 4b 60
        E 0 90 55 60
        E 0 90 58 60
        E 0 90 61 60
        E 0 90 64 60
        E 120 80 3e 00
        E 0 80 4a 00
        E 0 80 4b 00
        E 0 80 55 00
        E 0 80 58 00
        E 0 80 61 00
        E 0 80 64 00
        E 360 90 3e 60
        E 0 90 4a 60
        E 0 90 4b 60
        E 0 90 55 60
        E 0 90 58 60
        E 0 90 61 60
        E 0 90 64 60
        E 120 80 3e 00
        E 0 80 4a 00
        E 0 80 4b 00
        E 0 80 55 00
        E 0 80 58 00
        E 0 80 61 00
        E 0 80 64 00
        E 360 90 3e 60
        E 0 90 4a 60
        E 0 90 4b 60
        E 0 90 55 60
        E 0 90 58 60
        E 0 90 61 60
        E 0 90 64 60
        E 120 80 3e 00
        E 0 80 4a 00
        E 0 80 4b 00
        E 0 80 55 00
        E 0 80 58 00
        E 0 80 61 00
        E 0 80 64 00
        E 360 90 3e 60
        E 0 90 4a 60
        E 0 90 4b 60
        E 0 90 55 60
        E 0 90 58 60
        E 0 90 61 60
        E 0 90 64 60
        E 120 80 3e 00
        E 0 80 4a 00
        E 0 80 4b 00
        E 0 80 55 00
        E 0 80 58 00
        E 0 80 61 00
        E 0 80 64 00
        E 360 90 3e 60
        E 0 90 4a 60
        E 0 90 4b 60
        E 0 90 56 60
        E 0 90 58 60
        E 0 90 62 60
        E 0 90 64 60
        E 120 80 3e 00
        E 0 80 4a 00
        E 0 80 4b 00
        E 0 80 56 00
        E 0 80 58 00
        E 0 80 62 00
        E 0 80 64 00
        E 360 90 3e 60
        E 0 90 4a 60
        E 0 90 4b 60
        E 0 90 56 60
        E 0 90 58 60
        E 0 90 62 60
        E 0 90 64 60
        E 120 80 3e 00
        E 0 80 4a 00
        E 0 80 4b 00
        E 0 80 56 00
        E 0 80 58 00
        E 0 80 62 00
        E 0 80 64 00
        E 360 90 3e 60
        E 0 90 4a 60
        E 0 90 4b 60
        E 0 90 56 60
        E 0 90 58 60
        E 0 90 62 60
        E 0 90 64 60
        E 120 80 3e 00
        E 0 80 4a 00
        E 0 80 4b 00
        E 0 80 56 00
        E 0 80 58 00
        E 0 80 62 00
        E 0 80 64 00
        E 360 90 3e 60
        E 0 90 4a 60
        E 0 90 4b 60
        E 0 90 56 60
        E 0 90 58 60
        E 0 90 62 60
        E 0 90 64 60
        E 120 80 3e 00
        E 0 80 4a 00
        E 0 80 4b 00
        E 0 80 56 00
        E 0 80 58 00
        E 0 80 62 00
        E 0 80 64 00
        E 360 90 3e 60
        E 0 90 49 60
        E 0 90 4a 60
        E 0 90 55 60
        E 0 90 56 60
        E 0 90 61 60
        E 0 90 62 60
        E 120 80 3e 00
        E 0 80 49 00
        E 0 80 4a 00
        E 0 80 55 00
        E 0 80 56 00
        E 0 80 61 00
        E 0 80 62 00
        E 360 90 49 60
        E 0 90 4a 60
        E 0 90 55 60
        E 0 90 56 60
        E 0 90 61 60
        E 0 90 62 60
        E 120 80 49 00
        E 0 80 4a 00
        E 0 80 55 00
        E 0 80 56 00
        E 0 80 61 00
        E 0 80 62 00
        E 360 90 3d 60
        E 0 90 48 60
        E 0 90 4a 60
        E 0 90 54 60
        E 0 90 56 60
        E 0 90 60 60
        E 0 90 62 60
        E 120 80 3d 00
        E 0 80 48 00
        E 0 80 4a 00
        E 0 80 54 00
        E 0 80 56 00
        E 0 80 60 00
        E 0 80 62 00
        E 360 90 48 60
        E 0 90 4a 60
        E 0 90 54 60
        E 0 90 56 60
        E 0 90 60 60
        E 0 90 62 60
        E 120 80 48 00
        E 0 80 4a 00
        E 0 80 54 00
        E 0 80 56 00
        E 0 80 60 00
        E 0 80 62 00
        E 360 90 3e 60
        E 0 90 4a 60
        E 0 90 4b 60
        E 0 90 56 60
        E 0 90 57 60
        E 0 90 62 60
        E 0 90 63 60
        E 0 90 74 60
        E 120 80 3e 00
        E 0 80 4a 00
        E 0 80 4b 00
        E 0 80 56 00
        E 0 80 57 00
        E 0 80 62 00
        E 0 80 63 00
        E 360 90 3e 60
        E 0 90 4a 60
        E 0 90 4b 60
        E 0 90 56 60
        E 0 90 57 60
        E 0 90 62 60
        E 0 90 63 60
        E 120 80 3e 00
        E 0 80 4a 00
        E 0 80 4b 00
        E 0 80 56 00
        E 0 80 57 00
        E 0 80 62 00
        E 0 80 63 00
        E 360 90 3e 60
        E 0 90 49 60
        E 0 90 4b 60
        E 0 90 55 60
        E 0 90 57 60
        E 0 90 61 60
        E 0 90 63 60
        E 120 80 3e 00
        E 0 80 49 00
        E 0 80 4b 00
        E 0 80 55 00
        E 0 80 57 00
        E 0 80 61 00
        E 0 80 63 00
        E 360 90 3e 60
        E 0 90 49 60
        E 0 90 4b 60
        E 0 90 55 60
        E 0 90 57 60
        E 0 90 61 60
        E 0 90 63 60
        E 120 80 3e 00
        E 0 80 49 00
        E 0 80 4b 00
        E 0 80 55 00
        E 0 80 57 00
        E 0 80 61 00
        E 0 80 63 00
        E 120 90 58 60
        E 0 90 64 60
        E 120 80 58 00
        E 0 80 64 00
        E 120 80 74 00
        E 0 90 3e 60
        E 0 90 4a 60
        E 0 90 4b 60
        E 0 90 55 60
        E 0 90 58 60
        E 0 90 61 60
        E 0 90 64 60
        E 120 80 3e 00
        E 0 80 4a 00
        E 0 80 4b 00
        E 0 80 55 00
        E 0 80 58 00
        E 0 80 61 00
        E 0 80 64 00
        E 360 90 3e 60
        E 0 90 4a 60
        E 0 90 4b 60
        E 0 90 55 60
        E 0 90 58 60
        E 0 90 61 60
        E 0 90 64 60
        E 120 80 3e 00
        E 0 80 4a 00
        E 0 80 4b 00
        E 0 80 55 00
        E 0 80 58 00
        E 0 80 61 00
        E 0 80 64 00
        E 360 90 3e 60
        E 0 90 4a 60
        E 0 90 4b 60
        E 0 90 55 60
        E 0 90 58 60
        E 0 90 61 60
        E 0 90 64 60
        E 120 80 3e 00
        E 0 80 4a 00
        E 0 80 4b 00
        E 0 80 55 00
        E 0 80 58 00
        E 0 80 61 00
        E 0 80 64 00
        E 360 90 3e 60
        E 0 90 4a 60
        E 0 90 4b 60
        E 0 90 55 60
        E 0 90 58 60
        E 0 90 61 60
        E 0 90 64 60
        E 120 80 3e 00
        E 0 80 4a 00
        E 0 80 4b 00
        E 0 80 55 00
        E 0 80 58 00
        E 0 80 61 00
        E 0 80 64 00
        E 360 90 3e 60
        E 0 90 4a 60
        E 0 90 4b 60
        E 0 90 56 60
        E 0 90 58 60
        E 0 90 62 60
        E 0 90 64 60
        E 120 80 3e 00
        E 0 80 4a 00
        E 0 80 4b 00
        E 0 80 56 00
        E 0 80 58 00
        E 0 80 62 00
        E 0 80 64 00
        E 360 90 3e 60
        E 0 90 4a 60
        E 0 90 4b 60
        E 0 90 56 60
        E 0 90 58 60
        E 0 90 62 60
        E 0 90 64 60
        E 120 80 3e 00
        E 0 80 4a 00
        E 0 80 4b 00
        E 0 80 56 00
        E 0 80 58 00
        E 0 80 62 00
        E 0 80 64 00
        E 360 90 3e 60
        E 0 90 4a 60
        E 0 90 4b 60
        E 0 90 56 60
        E 0 90 58 60
        E 0 90 62 60
        E 0 90 64 60
        E 120 80 3e 00
        E 0 80 4a 00
        E 0 80 4b 00
        E 0 80 56 00
        E 0 80 58 00
        E 0 80 62 00
        E 0 80 64 00
        E 360 90 3e 60
        E 0 90 4a 60
        E 0 90 4b 60
        E 0 90 56 60
        E 0 90 58 60
        E 0 90 62 60
        E 0 90 64 60
        E 120 80 3e 00
        E 0 80 4a 00
        E 0 80 4b 00
        E 0 80 56 00
        E 0 80 58 00
        E 0 80 62 00
        E 0 80 64 00
        E 360 90 3e 60
        E 0 90 49 60
        E 0 90 4a 60
        E 0 90 55 60
        E 0 90 56 60
        E 0 90 61 60
        E 0 90 62 60
        E 120 80 3e 00
        E 0 80 49 00
        E 0 80 4a 00
        E 0 80 55 00
        E 0 80 56 00
        E 0 80 61 00
        E 0 80 62 00
        E 360 90 49 60
        E 0 90 4a 60
        E 0 90 55 60
        E 0 90 56 60
        E 0 90 61 60
        E 0 90 62 60
        E 120 80 49 00
        E 0 80 4a 00
        E 0 80 55 00
        E 0 80 56 00
        E 0 80 61 00
        E 0 80 62 00
        E 360 90 3d 60
        E 0 90 48 60
        E 0 90 4a 60
        E 0 90 54 60
        E 0 90 56 60
        E 0 90 60 60
        E 0 90 62 60
        E 120 80 3d 00
        E 0 80 48 00
        E 0 80 4a 00
        E 0 80 54 00
        E 0 80 56 00
        E 0 80 60 00
        E 0 80 62 00
        E 360 90 48 60
        E 0 90 4a 60
        E 0 90 54 60
        E 0 90 56 60
        E 0 90 60 60
        E 0 90 62 60
        E 120 80 48 00
        E 0 80 4a 00
        E 0 80 54 00
        E 0 80 56 00
        E 0 80 60 00
        E 0 80 62 00
        E 360 90 3e 60
        E 0 90 4a 60
        E 0 90 4b 60
        E 0 90 56 60
        E 0 90 57 60
        E 0 90 62 60
        E 0 90 63 60
        E 120 80 3e 00
        E 0 80 4a 00
        E 0 80 4b 00
        E 0 80 56 00
        E 0 80 57 00
        E 0 80 62 00
        E 0 80 63 00
        E 360 90 3e 60
        E 0 90 4a 60
        E 0 90 4b 60
        E 0 90 56 60
        E 0 90 57 60
        E 0 90 62 60
        E 0 90 63 60
        E 120 80 3e 00
        E 0 80 4a 00
        E 0 80 4b 00
        E 0 80 56 00
        E 0 80 57 00
        E 0 80 62 00
        E 0 80 63 00
        E 360 90 3e 60
        E 0 90 49 60
        E 0 90 4b 60
        E 0 90 55 60
        E 0 90 57 60
        E 0 90 61 60
        E 0 90 63 60
        E 120 80 3e 00
        E 0 80 49 00
        E 0 80 4b 00
        E 0 80 55 00
        E 0 80 57 00
        E 0 80 61 00
        E 0 80 63 00
        E 360 90 3e 60
        E 0 90 49 60
        E 0 90 4b 60
        E 0 90 55 60
        E 0 90 57 60
        E 0 90 61 60
        E 0 90 63 60
        E 120 80 3e 00
        E 0 80 49 00
        E 0 80 4b 00
        E 0 80 55 00
        E 0 80 57 00
        E 0 80 61 00
        E 0 80 63 00
        E 120 90 58 60
        E 0 90 64 60
        E 120 80 58 00
        E 0 80 64 00
        E 120 90 3e 60
        E 0 90 4a 60
        E 0 90 4b 60
        E 0 90 55 60
        E 0 90 58 60
        E 0 90 61 60
        E 0 90 64 60
        E 120 80 3e 00
        E 0 80 4a 00
        E 0 80 4b 00
        E 0 80 55 00
        E 0 80 58 00
        E 0 80 61 00
        E 0 80 64 00
        E 360 90 3e 60
        E 0 90 4a 60
        E 0 90 4b 60
        E 0 90 55 60
        E 0 90 58 60
        E 0 90 61 60
        E 0 90 64 60
        E 120 80 3e 00
        E 0 80 4a 00
        E 0 80 4b 00
        E 0 80 55 00
        E 0 80 58 00
        E 0 80 61 00
        E 0 80 64 00
        E 360 90 3e 60
        E 0 90 4a 60
        E 0 90 4b 60
        E 0 90 55 60
        E 0 90 58 60
        E 0 90 61 60
        E 0 90 64 60
        E 120 80 3e 00
        E 0 80 4a 00
        E 0 80 4b 00
        E 0 80 55 00
        E 0 80 58 00
        E 0 80 61 00
        E 0 80 64 00
        E 360 90 3e 60
        E 0 90 4a 60
        E 0 90 4b 60
        E 0 90 55 60
        E 0 90 58 60
        E 0 90 61 60
        E 0 90 64 60
        E 120 80 3e 00
        E 0 80 4a 00
        E 0 80 4b 00
        E 0 80 55 00
        E 0 80 58 00
        E 0 80 61 00
        E 0 80 64 00
        E 360 90 3e 60
        E 0 90 4a 60
        E 0 90 4b 60
        E 0 90 56 60
        E 0 90 58 60
        E 0 90 62 60
        E 0 90 64 60
        E 120 80 3e 00
        E 0 80 4a 00
        E 0 80 4b 00
        E 0 80 56 00
        E 0 80 58 00
        E 0 80 62 00
        E 0 80 64 00
        E 360 90 3e 60
        E 0 90 4a 60
        E 0 90 4b 60
        E 0 90 56 60
        E 0 90 58 60
        E 0 90 62 60
        E 0 90 64 60
        E 120 80 3e 00
        E 0 80 4a 00
        E 0 80 4b 00
        E 0 80 56 00
        E 0 80 58 00
        E 0 80 62 00
        E 0 80 64 00
        E 360 90 3e 60
        E 0 90 4a 60
        E 0 90 4b 60
        E 0 90 56 60
        E 0 90 58 60
        E 0 90 62 60
        E 0 90 64 60
        E 120 80 3e 00
        E 0 80 4a 00
        E 0 80 4b 00
        E 0 80 56 00
        E 0 80 58 00
        E 0 80 62 00
        E 0 80 64 00
        E 360 90 3e 60
        E 0 90 4a 60
        E 0 90 4b 60
        E 0 90 56 60
        E 0 90 58 60
        E 0 90 62 60
        E 0 90 64 60
        E 120 80 3e 00
        E 0 80 4a 00
        E 0 80 4b 00
        E 0 80 56 00
        E 0 80 58 00
        E 0 80 62 00
        E 0 80 64 00
        E 360 90 3e 60
        E 0 90 49 60
        E 0 90 4a 60
        E 0 90 55 60
        E 0 90 56 60
        E 0 90 61 60
        E 0 90 62 60
        E 120 80 3e 00
        E 0 80 49 00
        E 0 80 4a 00
        E 0 80 55 00
        E 0 80 56 00
        E 0 80 61 00
        E 0 80 62 00
        E 360 90 49 60
        E 0 90 4a 60
        E 0 90 55 60
        E 0 90 56 60
        E 0 90 61 60
        E 0 90 62 60
        E 120 80 49 00
        E 0 80 4a 00
        E 0 80 55 00
        E 0 80 56 00
        E 0 80 61 00
        E 0 80 62 00
        E 360 90 3d 60
        E 0 90 48 60
        E 0 90 4a 60
        E 0 90 54 60
        E 0 90 56 60
        E 0 90 60 60
        E 0 90 62 60
        E 120 80 3d 00
        E 0 80 48 00
        E 0 80 4a 00
        E 0 80 54 00
        E 0 80 56 00
        E 0 80 60 00
        E 0 80 62 00
        E 360 90 48 60
        E 0 90 4a 60
        E 0 90 54 60
        E 0 90 56 60
        E 0 90 60 60
        E 0 90 62 60
        E 120 80 48 00
        E 0 80 4a 00
        E 0 80 54 00
        E 0 80 56 00
        E 0 80 60 00
        E 0 80 62 00
        E 360 90 3e 60
        E 0 90 49 60
        E 0 90 4a 60
        E 0 90 54 60
        E 0 90 57 60
        E 0 90 60 60
        E 0 90 63 60
        E 120 80 3e 00
        E 0 80 49 00
        E 0 80 4a 00
        E 0 80 54 00
        E 0 80 57 00
        E 0 80 60 00
        E 0 80 63 00
        E 360 90 3e 60
        E 0 90 49 60
        E 0 90 4a 60
        E 0 90 54 60
        E 0 90 57 60
        E 0 90 60 60
        E 0 90 63 60
        E 120 80 3e 00
        E 0 80 49 00
        E 0 80 4a 00
        E 0 80 54 00
        E 0 80 57 00
        E 0 80 60 00
        E 0 80 63 00
        E 360 90 3e 60
        E 0 90 49 60
        E 0 90 4a 60
        E 0 90 54 60
        E 0 90 57 60
        E 0 90 60 60
        E 0 90 63 60
        E 120 80 3e 00
        E 0 80 49 00
        E 0 80 4a 00
        E 0 80 54 00
        E 0 80 57 00
        E 0 80 60 00
        E 0 80 63 00
        E 360 90 49 60
        E 0 90 4a 60
        E 0 90 54 60
        E 0 90 57 60
        E 0 90 60 60
        E 0 90 63 60
        E 120 80 49 00
        E 0 80 4a 00
        E 0 80 54 00
        E 0 80 57 00
        E 0 80 60 00
        E 0 80 63 00
        E 360 90 3d 60
        E 0 90 49 60
        E 0 90 55 60
        E 0 90 61 60
        E 0 90 74 60
        E 120 80 3d 00
        E 0 80 49 00
        E 0 80 55 00
        E 0 80 61 00
        E 360 90 4b 60
        E 0 90 58 60
        E 0 90 64 60
        E 120 80 4b 00
        E 0 80 58 00
        E 0 80 64 00
        E 120 90 57 60
        E 0 90 63 60
        E 120 80 57 00
        E 0 80 63 00
        E 120 90 3d 60
        E 0 90 49 60
        E 0 90 55 60
        E 0 90 61 60
        E 120 80 3d 00
        E 0 80 49 00
        E 0 80 55 00
        E 0 80 61 00
        E 360 90 49 60
        E 0 90 55 60
        E 0 90 61 60
        E 120 80 49 00
        E 0 80 55 00
        E 0 80 61 00
        E 360 90 3c 60
        E 0 90 48 60
        E 0 90 54 60
        E 0 90 60 60
        E 120 80 74 00
        E 0 80 3c 00
        E 0 80 48 00
        E 0 80 54 00
        E 0 80 60 00
        E 120 90 55 60
        E 0 90 61 60
        E 120 80 55 00
        E 0 80 61 00
        E 120 90 4b 60
        E 0 90 58 60
        E 0 90 64 60
        E 120 80 4b 00
        E 0 80 58 00
        E 0 80 64 00
        E 120 90 57 60
        E 0 90 63 60
        E 120 80 57 00
        E 0 80 63 00
        E 120 90 3c 60
        E 0 90 48 60
        E 0 90 54 60
        E 0 90 60 60
        E 120 80 3c 00
        E 0 80 48 00
        E 0 80 54 00
        E 0 80 60 00
        E 360 90 48 60
        E 0 90 54 60
        E 0 90 60 60
        E 120 80 48 00
        E 0 80 54 00
        E 0 80 60 00
        E 360 90 3d 60
        E 0 90 4a 60
        E 0 90 56 60
        E 0 90 62 60
        E 120 80 3d 00
        E 0 80 4a 00
        E 0 80 56 00
        E 0 80 62 00
        E 360 90 4b 60
        E 0 90 58 60
        E 0 90 64 60
        E 120 80 4b 00
        E 0 80 58 00
        E 0 80 64 00
        E 120 90 57 60
        E 0 90 63 60
        E 120 80 57 00
        E 0 80 63 00
        E 120 90 3d 60
        E 0 90 4a 60
        E 0 90 56 60
        E 0 90 62 60
        E 120 80 3d 00
        E 0 80 4a 00
        E 0 80 56 00
        E 0 80 62 00
        E 360 90 4a 60
        E 0 90 56 60
        E 0 90 62 60
        E 120 80 4a 00
        E 0 80 56 00
        E 0 80 62 00
        E 360 90 3e 60
        E 0 90 49 60
        E 0 90 4a 60
        E 0 90 55 60
        E 0 90 56 60
        E 0 90 61 60
        E 0 90 62 60
        E 120 80 3e 00
        E 0 80 49 00
        E 0 80 4a 00
        E 0 80 55 00
        E 0 80 56 00
        E 0 80 61 00
        E 0 80 62 00
        E 360 90 3e 60
        E 0 90 49 60
        E 0 90 4b 60
        E 0 90 55 60
        E 0 90 57 60
        E 0 90 61 60
        E 0 90 62 60
        E 0 90 63 60
        E 120 80 3e 00
        E 0 80 49 00
        E 0 80 4b 00
        E 0 80 55 00
        E 0 80 57 00
        E 0 80 61 00
        E 0 80 62 00
        E 0 80 63 00
        E 360 90 3e 60
        E 0 90 49 60
        E 0 90 4a 60
        E 0 90 54 60
        E 0 90 57 60
        E 0 90 60 60
        E 0 90 62 60
        E 0 90 63 60
        E 120 80 3e 00
        E 0 80 49 00
        E 0 80 4a 00
        E 0 80 54 00
        E 0 80 57 00
        E 0 80 60 00
        E 0 80 62 00
        E 0 80 63 00
        E 360 90 3e 60
        E 0 90 49 60
        E 0 90 4a 60
        E 0 90 54 60
        E 0 90 57 60
        E 0 90 60 60
        E 0 90 62 60
        E 0 90 63 60
        E 120 80 3e 00
        E 0 80 49 00
        E 0 80 4a 00
        E 0 80 54 00
        E 0 80 57 00
        E 0 80 60 00
        E 0 80 62 00
        E 0 80 63 00
        E 360 90 3e 60
        E 0 90 4b 60
        E 0 90 58 60
        E 0 90 64 60
        E 120 80 3e 00
        E 0 80 4b 00
        E 0 80 58 00
        E 0 80 64 00
        E 120 90 55 60
        E 0 90 61 60
        E 120 80 55 00
        E 0 80 61 00
        E 120 90 4b 60
        E 0 90 58 60
        E 0 90 64 60
        E 120 80 4b 00
        E 0 80 58 00
        E 0 80 64 00
        E 120 90 57 60
        E 0 90 63 60
        E 120 80 57 00
        E 0 80 63 00
        E 120 90 3d 60
        E 0 90 49 60
        E 0 90 55 60
        E 0 90 61 60
        E 120 80 3d 00
        E 0 80 49 00
        E 0 80 55 00
        E 0 80 61 00
        E 120 90 56 60
        E 0 90 62 60
        E 120 80 56 00
        E 0 80 62 00
        E 120 90 4b 60
        E 0 90 57 60
        E 0 90 63 60
        E 120 80 4b 00
        E 0 80 57 00
        E 0 80 63 00
        E 120 90 56 60
        E 0 90 62 60
        E 120 80 56 00
        E 0 80 62 00
        E 120 90 3c 60
        E 0 90 48 60
        E 0 90 54 60
        E 0 90 60 60
        E 120 80 3c 00
        E 0 80 48 00
        E 0 80 54 00
        E 0 80 60 00
        E 120 90 55 60
        E 0 90 61 60
        E 120 80 55 00
        E 0 80 61 00
        E 120 90 4b 60
        E 0 90 58 60
        E 0 90 64 60
        E 120 80 4b 00
        E 0 80 58 00
        E 0 80 64 00
        E 120 90 57 60
        E 0 90 63 60
        E 120 80 57 00
        E 0 80 63 00
        E 120 90 3c 60
        E 0 90 48 60
        E 0 90 54 60
        E 0 90 60 60
        E 120 80 3c 00
        E 0 80 48 00
        E 0 80 54 00
        E 0 80 60 00
        E 120 90 55 60
        E 0 90 61 60
        E 120 80 55 00
        E 0 80 61 00
        E 120 90 4a 60
        E 0 90 56 60
        E 0 90 62 60
        E 120 80 4a 00
        E 0 80 56 00
        E 0 80 62 00
        E 120 90 57 60
        E 0 90 64 60
        E 120 80 57 00
        E 0 80 64 00
        E 120 90 3d 60
        E 0 90 4a 60
        E 0 90 56 60
        E 0 90 62 60
        E 120 80 3d 00
        E 0 80 4a 00
        E 0 80 56 00
        E 0 80 62 00
        E 360 90 4a 60
        E 0 90 4b 60
        E 0 90 55 60
        E 0 90 58 60
        E 0 90 61 60
        E 0 90 64 60
        E 120 80 4a 00
        E 0 80 4b 00
        E 0 80 55 00
        E 0 80 58 00
        E 0 80 61 00
        E 0 80 64 00
        E 120 90 54 60
        E 0 90 57 60
        E 0 90 60 60
        E 0 90 63 60
        E 120 80 54 00
        E 0 80 57 00
        E 0 80 60 00
        E 0 80 63 00
        E 120 90 3d 60
        E 0 90 4a 60
        E 0 90 56 60
        E 0 90 60 60
        E 120 80 3d 00
        E 0 80 4a 00
        E 0 80 56 00
        E 0 80 60 00
        E 120 90 61 60
        E 120 80 61 00
        E 120 90 4a 60
        E 0 90 56 60
        E 0 90 62 60
        E 120 80 4a 00
        E 0 80 56 00
        E 0 80 62 00
        E 120 90 64 60
        E 120 80 64 00
        E 120 90 3e 60
        E 0 90 49 60
        E 0 90 4a 60
        E 0 90 55 60
        E 0 90 56 60
        E 0 90 61 60
        E 0 90 62 60
        E 120 80 3e 00
        E 0 80 49 00
        E 0 80 4a 00
        E 0 80 55 00
        E 0 80 56 00
        E 0 80 61 00
        E 0 80 62 00
        E 360 90 3e 60
        E 0 90 49 60
        E 0 90 4b 60
        E 0 90 55 60
        E 0 90 57 60
        E 0 90 61 60
        E 0 90 62 60
        E 0 90 63 60
        E 120 80 3e 00
        E 0 80 49 00
        E 0 80 4b 00
        E 0 80 55 00
        E 0 80 57 00
        E 0 80 61 00
        E 0 80 62 00
        E 0 80 63 00
        E 360 90 3e 60
        E 0 90 49 60
        E 0 90 4a 60
        E 0 90 54 60
        E 0 90 57 60
        E 0 90 60 60
        E 0 90 62 60
        E 0 90 63 60
        E 120 80 3e 00
        E 0 80 49 00
        E 0 80 4a 00
        E 0 80 54 00
        E 0 80 57 00
        E 0 80 60 00
        E 0 80 62 00
        E 0 80 63 00
        E 360 90 3e 60
        E 0 90 49 60
        E 0 90 4a 60
        E 0 90 54 60
        E 0 90 57 60
        E 0 90 60 60
        E 0 90 62 60
        E 0 90 63 60
        E 120 80 3e 00
        E 0 80 49 00
        E 0 80 4a 00
        E 0 80 54 00
        E 0 80 57 00
        E 0 80 60 00
        E 0 80 62 00
        E 0 80 63 00
        E 360 90 3e 60
        E 0 90 4a 60
        E 0 90 4b 60
        E 0 90 55 60
        E 0 90 58 60
        E 0 90 61 60
        E 0 90 64 60
        <X 1920 0
          /wFbaWRsZV9yZWFsdGltZV0=
        >
        E 0 80 3e 00
        E 0 80 4a 00
        E 0 80 4b 00
        E 0 80 55 00
        E 0 80 58 00
        E 0 80 61 00
        E 0 80 64 00
        E 1920 b0 7b 00
        GUID {C5FB9092-5574-4A83-A852-9C6CEF862E36}
        IGNTEMPO 0 120.00000000 4 4
        SRCCOLOR 12
        VELLANE 132 123 128
        COLORMAP "C:\Program Files (x86)\REAPER\Data\color_maps\rockband_guitarbass.png"
        CFGEDITVIEW 2184.854422 0.147915 2 12 0 0 0
        CFGEDIT 1 1 0 1 1 0 1 1 1 1 1 0.25000000 -8 0 1370 744 0 2 0 2 0.00000000 0 1 0 0 0.500000 0 0 1.000000 64
        KEYSNAP 0 7 "102030050700" 0 "Pentatonic"
        EVTFILTER 0 -1 -1 -1 -1 0 1 0 0 -1.00000000 -1.00000000
      >
    >
  >
  <TRACK '{AEF97259-2A3F-4004-BE8C-ACCDC51CC4CC}'
    NAME "PART REAL_KEYS_X"
    PEAKCOL 16576
    BEAT -1
    AUTOMODE 0
    VOLPAN 1.00000000000000 -0.20800000000000 -1.00000000000000 -1.00000000000000 1.00000000000000
    MUTESOLO 0 0 0
    IPHASE 0
    ISBUS 0 0
    BUSCOMP 0 0
    SHOWINMIX 1 0.666700 0.500000 1 0.500000 -1 -1 -1
    FREEMODE 0
    SEL 0
    REC 0 0 0 0 0 0 0
    VU 2
    TRACKHEIGHT 0 0
    INQ 0 0 0 0.5000000000 100 0 0 100
    NCHAN 2
    FX 0
    TRACKID {AEF97259-2A3F-4004-BE8C-ACCDC51CC4CC}
    PERF 0
    MIDIOUT -1
    <MIDINOTENAMES
      0 127 "Trill Marker"
      0 126 "Glissando Marker"
      0 125 "---"
      0 120 "BRE"
      0 116 "OVERDRIVE"
      0 115 "Solo Marker"
      0 114 "---"
      0 72 "C4"
      0 71 "B3"
      0 70 "A#3"
      0 69 "A3"
      0 68 "G#3"
      0 67 "G3"
      0 66 "F#3"
      0 65 "F3"
      0 64 "E3"
      0 63 "D#3"
      0 62 "D3"
      0 61 "C#3"
      0 60 "C3"
      0 59 "B2"
      0 58 "A#2"
      0 57 "A2"
      0 56 "G#2"
      0 55 "G2"
      0 54 "F#2"
      0 53 "F2"
      0 52 "E2"
      0 51 "D#2"
      0 50 "D2"
      0 49 "C#2"
      0 48 "C2"
      0 10 "---"
      0 9 "Range A2-C4"
      0 7 "G2-B3"
      0 5 "Range F2-A3"
      0 4 "E2-G3"
      0 2 "D2-F3"
      0 0 "Range C2-E3"
    >
    MAINSEND 1 0
    <FXCHAIN
      WNDRECT 0 42 723 467
      SHOW 0
      LASTSEL 1
      DOCKED 0
      BYPASS 0 0
      <JS "MIDI/midi_note_filter" ""
        48.000000 72.000000 - - - - - - - - - - - - - - - - - - - - - - - - - - - - - - - - - - - - - - - - - - - - - - - - - - - - - - - - - - - - - - 
      >
      FLOATPOS 0 0 0 0
      FXID {FBBA8735-01C7-484A-898C-A4BDAE4389D0}
      WAK 0
      BYPASS 0 0
      <VST "VSTi: ReaSynth (Cockos)" "reasynth.dll" 0 ""
        eXNlcu9e7f4AAAAAAgAAAAEAAAAAAAAAAgAAAAAAAAA4AAAAAAAAAA==
        AAAQAO++rd4N8K3eppvEO4jjxD5/ajw+QmDlPQAAgD+KG7U+jUYHPQ==
        AAAAAAAAAD8AAAAAAACAPwAAAD8AABAAAAA=
      >
      FLOATPOS 0 0 0 0
      FXID {C65E8218-5233-4610-B7C1-A639C93F372F}
      WAK 0
    >
    <ITEM
      POSITION 0.00000000000000
      SNAPOFFS 0.00000000000000
      LENGTH 222.64703105824603
      LOOP 0
      ALLTAKES 0
      SEL 0
      FADEIN 1 0.000000 0.000000 1 0
      FADEOUT 1 0.000000 0.000000 1 0
      MUTE 0
      IGUID {32F21093-D01D-49A8-ACA6-43368B22253F}
      IID 7
      NAME "PART REAL_KEYS_X"
      VOLPAN 1.000000 0.000000 1.000000 -1.000000
      SOFFS 0.00000000000000 0.00000000000000
      PLAYRATE 1.00000000000000 1 0.00000000000000 -1
      CHANMODE 0
      GUID {D1BDC315-5CBD-4BB5-8456-35523F02F44E}
      <SOURCE MIDI
        HASDATA 1 480 QN
        POOLEDEVTS {17FD1014-A361-4295-A46D-8D3290970D71}
        <X 0 0
          /wNQQVJUIFJFQUxfS0VZU19Y
        >
        E 0 90 00 60
        E 120 80 00 00
        <X 1800 0
          /wFbYmVnaW5fa2V5IHNvbmdfdHJhaW5lcl9rZXlfMV0=
        >
        E 0 91 30 60
        E 0 91 35 60
        E 0 91 37 60
        E 120 81 30 00
        E 0 81 35 00
        E 0 81 37 00
        E 360 91 30 60
        E 0 91 35 60
        E 0 91 37 60
        E 120 81 30 00
        E 0 81 35 00
        E 0 81 37 00
        E 360 91 30 60
        E 0 91 35 60
        E 0 91 37 60
        E 120 81 30 00
        E 0 81 35 00
        E 0 81 37 00
        E 360 91 30 60
        E 0 91 35 60
        E 0 91 37 60
        E 120 81 30 00
        E 0 81 35 00
        E 0 81 37 00
        <X 360 0
          /wFba2V5X25vcm0gc29uZ190cmFpbmVyX2tleV8xXQ==
        >
        E 0 91 31 60
        E 0 91 35 60
        E 0 91 38 60
        E 120 81 31 00
        E 0 81 35 00
        E 0 81 38 00
        E 360 91 31 60
        E 0 91 35 60
        E 0 91 38 60
        E 120 81 31 00
        E 0 81 35 00
        E 0 81 38 00
        E 360 91 31 60
        E 0 91 35 60
        E 0 91 38 60
        E 120 81 31 00
        E 0 81 35 00
        E 0 81 38 00
        E 360 91 31 60
        E 0 91 35 60
        E 0 91 38 60
        E 120 81 31 00
        E 0 81 35 00
        E 0 81 38 00
        E 360 90 74 60
        E 0 91 35 60
        E 0 91 39 60
        E 0 91 3c 60
        E 120 81 35 00
        E 0 81 39 00
        E 0 81 3c 00
        E 360 91 35 60
        E 0 91 39 60
        E 0 91 3c 60
        E 120 81 35 00
        E 0 81 39 00
        E 0 81 3c 00
        E 360 91 34 60
        E 0 91 39 60
        E 0 91 3c 60
        E 120 81 34 00
        E 0 81 39 00
        E 0 81 3c 00
        E 360 91 34 60
        E 0 91 39 60
        E 0 91 3c 60
        E 120 81 34 00
        E 0 81 39 00
        E 0 81 3c 00
        E 360 80 74 00
        E 0 90 3c 60
        E 0 91 37 60
        E 0 91 3a 60
        E 120 80 3c 00
        E 0 81 37 00
        E 0 81 3a 00
        E 360 90 3c 60
        E 0 91 37 60
        E 0 91 3a 60
        E 120 80 3c 00
        E 0 81 37 00
        E 0 81 3a 00
        E 360 90 3c 60
        E 0 91 35 60
        E 0 91 3a 60
        E 120 80 3c 00
        E 0 81 35 00
        E 0 81 3a 00
        E 360 90 3c 60
        E 0 91 35 60
        E 0 91 3a 60
        E 120 80 3c 00
        E 0 81 35 00
        E 0 81 3a 00
        <X 360 0
          /wFbZW5kX2tleSBzb25nX3RyYWluZXJfa2V5XzFd
        >
        E 0 91 30 60
        E 0 91 35 60
        E 0 91 37 60
        E 120 81 30 00
        E 0 81 35 00
        E 0 81 37 00
        E 360 91 30 60
        E 0 91 35 60
        E 0 91 37 60
        E 120 81 30 00
        E 0 81 35 00
        E 0 81 37 00
        E 360 91 30 60
        E 0 91 35 60
        E 0 91 37 60
        E 120 81 30 00
        E 0 81 35 00
        E 0 81 37 00
        E 360 91 30 60
        E 0 91 35 60
        E 0 91 37 60
        E 120 81 30 00
        E 0 81 35 00
        E 0 81 37 00
        E 360 91 31 60
        E 0 91 35 60
        E 0 91 38 60
        E 120 81 31 00
        E 0 81 35 00
        E 0 81 38 00
        E 360 91 31 60
        E 0 91 35 60
        E 0 91 38 60
        E 120 81 31 00
        E 0 81 35 00
        E 0 81 38 00
        E 360 91 31 60
        E 0 91 35 60
        E 0 91 38 60
        E 120 81 31 00
        E 0 81 35 00
        E 0 81 38 00
        E 360 91 31 60
        E 0 91 35 60
        E 0 91 38 60
        E 120 81 31 00
        E 0 81 35 00
        E 0 81 38 00
        E 360 91 35 60
        E 0 91 39 60
        E 0 91 3c 60
        E 120 81 35 00
        E 0 81 39 00
        E 0 81 3c 00
        E 360 91 35 60
        E 0 91 39 60
        E 0 91 3c 60
        E 120 81 35 00
        E 0 81 39 00
        E 0 81 3c 00
        E 360 91 34 60
        E 0 91 39 60
        E 0 91 3c 60
        E 120 81 34 00
        E 0 81 39 00
        E 0 81 3c 00
        E 360 91 34 60
        E 0 91 39 60
        E 0 91 3c 60
        E 120 81 34 00
        E 0 81 39 00
        E 0 81 3c 00
        E 360 90 3c 60
        E 0 91 37 60
        E 0 91 3a 60
        E 120 80 3c 00
        E 0 81 37 00
        E 0 81 3a 00
        E 360 90 3c 60
        E 0 91 37 60
        E 0 91 3a 60
        E 120 80 3c 00
        E 0 81 37 00
        E 0 81 3a 00
        E 360 90 3c 60
        E 0 91 35 60
        E 0 91 3a 60
        E 120 80 3c 00
        E 0 81 35 00
        E 0 81 3a 00
        E 360 90 3c 60
        E 0 91 35 60
        E 0 91 3a 60
        E 120 80 3c 00
        E 0 81 35 00
        E 0 81 3a 00
        E 360 90 74 60
        E 0 91 30 60
        E 0 91 35 60
        E 0 91 37 60
        E 120 81 30 00
        E 0 81 35 00
        E 0 81 37 00
        E 360 91 30 60
        E 0 91 35 60
        E 0 91 37 60
        E 120 81 30 00
        E 0 81 35 00
        E 0 81 37 00
        E 360 91 30 60
        E 0 91 35 60
        E 0 91 37 60
        E 120 81 30 00
        E 0 81 35 00
        E 0 81 37 00
        E 360 91 30 60
        E 0 91 35 60
        E 0 91 37 60
        E 120 81 30 00
        E 0 81 35 00
        E 0 81 37 00
        E 360 91 31 60
        E 0 91 35 60
        E 0 91 38 60
        E 120 80 74 00
        E 0 81 31 00
        E 0 81 35 00
        E 0 81 38 00
        E 360 91 31 60
        E 0 91 35 60
        E 0 91 38 60
        E 120 81 31 00
        E 0 81 35 00
        E 0 81 38 00
        E 360 91 31 60
        E 0 91 35 60
        E 0 91 38 60
        E 120 81 31 00
        E 0 81 35 00
        E 0 81 38 00
        E 360 91 31 60
        E 0 91 35 60
        E 0 91 38 60
        E 120 81 31 00
        E 0 81 35 00
        E 0 81 38 00
        E 360 91 35 60
        E 0 91 39 60
        E 0 91 3c 60
        E 120 81 35 00
        E 0 81 39 00
        E 0 81 3c 00
        E 360 91 35 60
        E 0 91 39 60
        E 0 91 3c 60
        E 120 81 35 00
        E 0 81 39 00
        E 0 81 3c 00
        E 360 91 34 60
        E 0 91 39 60
        E 0 91 3c 60
        E 120 81 34 00
        E 0 81 39 00
        E 0 81 3c 00
        E 360 91 34 60
        E 0 91 39 60
        E 0 91 3c 60
        E 120 81 34 00
        E 0 81 39 00
        E 0 81 3c 00
        E 360 90 3c 60
        E 0 91 37 60
        E 0 91 3a 60
        E 120 80 3c 00
        E 0 81 37 00
        E 0 81 3a 00
        E 360 90 3c 60
        E 0 91 37 60
        E 0 91 3a 60
        E 120 80 3c 00
        E 0 81 37 00
        E 0 81 3a 00
        E 360 90 3c 60
        E 0 91 35 60
        E 0 91 3a 60
        E 120 80 3c 00
        E 0 81 35 00
        E 0 81 3a 00
        E 360 90 3c 60
        E 0 91 35 60
        E 0 91 3a 60
        E 120 80 3c 00
        E 0 81 35 00
        E 0 81 3a 00
        <X 360 0
          /wFbYmVnaW5fa2V5IHNvbmdfdHJhaW5lcl9rZXlfMl0=
        >
        E 0 91 30 60
        E 0 91 35 60
        E 0 91 37 60
        E 120 81 30 00
        E 0 81 35 00
        E 0 81 37 00
        E 360 91 30 60
        E 0 91 35 60
        E 0 91 37 60
        E 120 81 30 00
        E 0 81 35 00
        E 0 81 37 00
        E 360 91 30 60
        E 0 91 35 60
        E 0 91 37 60
        E 120 81 30 00
        E 0 81 35 00
        E 0 81 37 00
        E 360 91 30 60
        E 0 91 35 60
        E 0 91 37 60
        E 120 81 30 00
        E 0 81 35 00
        E 0 81 37 00
        <X 360 0
          /wFba2V5X25vcm0gc29uZ190cmFpbmVyX2tleV8yXQ==
        >
        E 0 91 31 60
        E 0 91 35 60
        E 0 91 38 60
        E 120 81 31 00
        E 0 81 35 00
        E 0 81 38 00
        E 360 91 31 60
        E 0 91 35 60
        E 0 91 38 60
        E 120 81 31 00
        E 0 81 35 00
        E 0 81 38 00
        E 360 91 31 60
        E 0 91 35 60
        E 0 91 38 60
        E 120 81 31 00
        E 0 81 35 00
        E 0 81 38 00
        E 360 91 31 60
        E 0 91 35 60
        E 0 91 38 60
        E 120 81 31 00
        E 0 81 35 00
        E 0 81 38 00
        E 360 91 35 60
        E 0 91 39 60
        E 0 91 3c 60
        E 120 81 35 00
        E 0 81 39 00
        E 0 81 3c 00
        E 360 91 35 60
        E 0 91 39 60
        E 0 91 3c 60
        E 120 81 35 00
        E 0 81 39 00
        E 0 81 3c 00
        E 360 91 34 60
        E 0 91 39 60
        E 0 91 3c 60
        E 120 81 34 00
        E 0 81 39 00
        E 0 81 3c 00
        E 360 91 34 60
        E 0 91 39 60
        E 0 91 3c 60
        E 120 81 34 00
        E 0 81 39 00
        E 0 81 3c 00
        E 360 90 04 60
        E 0 91 35 60
        E 0 91 38 60
        E 0 91 3c 60
        E 120 80 04 00
        E 0 81 35 00
        E 0 81 38 00
        E 0 81 3c 00
        E 360 91 35 60
        E 0 91 38 60
        E 0 91 3c 60
        E 120 81 35 00
        E 0 81 38 00
        E 0 81 3c 00
        E 360 91 35 60
        E 0 91 38 60
        E 0 91 3c 60
        E 120 81 35 00
        E 0 81 38 00
        E 0 81 3c 00
        E 360 91 35 60
        E 0 91 38 60
        E 0 91 3c 60
        E 120 81 35 00
        E 0 81 38 00
        E 0 81 3c 00
        <X 360 0
          /wFbZW5kX2tleSBzb25nX3RyYWluZXJfa2V5XzJd
        >
        <X 0 0
          /wFbYmVnaW5fa2V5IHNvbmdfdHJhaW5lcl9rZXlfM10=
        >
        E 0 91 35 60
        E 120 81 35 00
        E 360 90 35 60
        E 0 91 41 60
        E 120 80 35 00
        E 0 81 41 00
        E 120 91 40 60
        E 120 81 40 00
        E 120 91 35 60
        E 120 81 35 00
        E 360 91 35 60
        E 120 81 35 00
        <X 360 0
          /wFba2V5X25vcm0gc29uZ190cmFpbmVyX2tleV8zXQ==
        >
        E 0 90 74 60
        E 0 91 34 60
        E 120 81 34 00
        E 120 91 35 60
        E 120 81 35 00
        E 120 90 34 60
        E 0 91 41 60
        E 120 80 34 00
        E 0 81 41 00
        E 120 91 40 60
        E 120 81 40 00
        E 120 91 34 60
        E 120 81 34 00
        E 360 91 34 60
        E 120 81 34 00
        E 360 80 74 00
        E 0 91 38 60
        E 120 81 38 00
        E 360 90 38 60
        E 0 91 41 60
        E 120 80 38 00
        E 0 81 41 00
        E 120 91 40 60
        E 120 81 40 00
        E 120 91 38 60
        E 120 81 38 00
        E 360 91 38 60
        E 120 81 38 00
        E 360 91 37 60
        E 0 91 3b 60
        E 120 81 37 00
        E 0 81 3b 00
        E 360 91 37 60
        E 0 91 3b 60
        E 0 91 41 60
        E 120 81 37 00
        E 0 81 3b 00
        E 0 81 41 00
        E 360 91 36 60
        E 0 91 3a 60
        E 0 91 41 60
        E 120 81 36 00
        E 0 81 3a 00
        E 0 81 41 00
        E 360 91 36 60
        E 0 91 3a 60
        E 0 91 41 60
        E 120 81 36 00
        E 0 81 3a 00
        E 0 81 41 00
        <X 360 0
          /wFbZW5kX2tleSBzb25nX3RyYWluZXJfa2V5XzNd
        >
        <X 0 0
          /wFbYmVnaW5fa2V5IHNvbmdfdHJhaW5lcl9rZXlfNF0=
        >
        E 0 90 35 60
        E 0 91 41 60
        E 120 80 35 00
        E 0 81 41 00
        E 120 91 35 60
        E 120 81 35 00
        E 120 90 35 60
        E 0 91 41 60
        E 120 80 35 00
        E 0 81 41 00
        E 120 91 40 60
        E 120 81 40 00
        E 120 91 35 60
        E 120 81 35 00
        E 360 91 35 60
        E 120 81 35 00
        <X 360 0
          /wFba2V5X25vcm0gc29uZ190cmFpbmVyX2tleV80XQ==
        >
        E 0 91 34 60
        E 120 81 34 00
        E 120 91 34 60
        E 120 81 34 00
        E 120 90 34 60
        E 0 91 41 60
        E 120 80 34 00
        E 0 81 41 00
        E 120 91 40 60
        E 120 81 40 00
        E 120 91 34 60
        E 120 81 34 00
        E 120 91 37 60
        E 120 81 37 00
        E 120 90 34 60
        E 0 91 38 60
        E 120 80 34 00
        E 0 81 38 00
        E 120 91 3c 60
        E 120 81 3c 00
        E 120 91 38 60
        E 120 81 38 00
        E 360 91 35 60
        E 0 91 41 60
        E 120 81 35 00
        E 0 81 41 00
        E 120 91 34 60
        E 0 91 40 60
        E 120 81 34 00
        E 0 81 40 00
        E 120 91 38 60
        E 120 81 38 00
        E 360 91 38 60
        E 120 81 38 00
        E 360 90 74 60
        E 0 91 37 60
        E 0 91 3b 60
        E 120 81 37 00
        E 0 81 3b 00
        E 360 91 37 60
        E 0 91 3b 60
        E 0 91 41 60
        E 120 81 37 00
        E 0 81 3b 00
        E 0 81 41 00
        E 360 91 36 60
        E 0 91 3a 60
        E 0 91 41 60
        E 120 81 36 00
        E 0 81 3a 00
        E 0 81 41 00
        E 360 91 36 60
        E 0 91 3a 60
        E 0 91 41 60
        E 120 81 36 00
        E 0 81 3a 00
        E 0 81 41 00
        <X 360 0
          /wFbZW5kX2tleSBzb25nX3RyYWluZXJfa2V5XzRd
        >
        E 0 80 74 00
        E 0 90 00 60
        E 0 91 35 60
        E 0 91 37 60
        E 0 91 3c 60
        E 120 80 00 00
        E 0 81 35 00
        E 0 81 37 00
        E 0 81 3c 00
        E 360 91 35 60
        E 0 91 37 60
        E 0 91 3c 60
        E 120 81 35 00
        E 0 81 37 00
        E 0 81 3c 00
        E 360 91 35 60
        E 0 91 37 60
        E 0 91 3c 60
        E 120 81 35 00
        E 0 81 37 00
        E 0 81 3c 00
        E 360 91 35 60
        E 0 91 37 60
        E 0 91 3c 60
        E 120 81 35 00
        E 0 81 37 00
        E 0 81 3c 00
        E 360 91 31 60
        E 0 91 35 60
        E 0 91 38 60
        E 120 81 31 00
        E 0 81 35 00
        E 0 81 38 00
        E 360 91 31 60
        E 0 91 35 60
        E 0 91 38 60
        E 120 81 31 00
        E 0 81 35 00
        E 0 81 38 00
        E 360 91 31 60
        E 0 91 35 60
        E 0 91 38 60
        E 120 81 31 00
        E 0 81 35 00
        E 0 81 38 00
        E 360 91 31 60
        E 0 91 35 60
        E 0 91 38 60
        E 120 81 31 00
        E 0 81 35 00
        E 0 81 38 00
        E 360 91 30 60
        E 0 91 35 60
        E 0 91 39 60
        E 120 81 30 00
        E 0 81 35 00
        E 0 81 39 00
        E 360 91 30 60
        E 0 91 35 60
        E 0 91 39 60
        E 120 81 30 00
        E 0 81 35 00
        E 0 81 39 00
        E 360 91 30 60
        E 0 91 34 60
        E 0 91 39 60
        E 120 81 30 00
        E 0 81 34 00
        E 0 81 39 00
        E 360 91 30 60
        E 0 91 34 60
        E 0 91 39 60
        E 120 81 30 00
        E 0 81 34 00
        E 0 81 39 00
        E 360 90 30 60
        E 0 91 37 60
        E 0 91 3a 60
        E 120 80 30 00
        E 0 81 37 00
        E 0 81 3a 00
        E 360 90 30 60
        E 0 91 37 60
        E 0 91 3a 60
        E 120 80 30 00
        E 0 81 37 00
        E 0 81 3a 00
        E 360 90 30 60
        E 0 91 35 60
        E 0 91 3a 60
        E 120 80 30 00
        E 0 81 35 00
        E 0 81 3a 00
        E 360 90 30 60
        E 0 91 35 60
        E 0 91 3a 60
        E 120 80 30 00
        E 0 81 35 00
        E 0 81 3a 00
        E 120 90 3c 60
        E 120 80 3c 00
        E 120 91 30 60
        E 0 91 35 60
        E 0 91 37 60
        E 120 81 30 00
        E 0 81 35 00
        E 0 81 37 00
        E 360 91 30 60
        E 0 91 35 60
        E 0 91 37 60
        E 120 81 30 00
        E 0 81 35 00
        E 0 81 37 00
        E 360 91 30 60
        E 0 91 35 60
        E 0 91 37 60
        E 120 81 30 00
        E 0 81 35 00
        E 0 81 37 00
        E 360 91 30 60
        E 0 91 35 60
        E 0 91 37 60
        E 120 81 30 00
        E 0 81 35 00
        E 0 81 37 00
        E 360 91 31 60
        E 0 91 35 60
        E 0 91 38 60
        E 120 81 31 00
        E 0 81 35 00
        E 0 81 38 00
        E 360 91 31 60
        E 0 91 35 60
        E 0 91 38 60
        E 120 81 31 00
        E 0 81 35 00
        E 0 81 38 00
        E 360 91 31 60
        E 0 91 35 60
        E 0 91 38 60
        E 120 81 31 00
        E 0 81 35 00
        E 0 81 38 00
        E 360 91 31 60
        E 0 91 35 60
        E 0 91 38 60
        E 120 81 31 00
        E 0 81 35 00
        E 0 81 38 00
        E 360 91 30 60
        E 0 91 35 60
        E 0 91 39 60
        E 120 81 30 00
        E 0 81 35 00
        E 0 81 39 00
        E 360 91 30 60
        E 0 91 35 60
        E 0 91 39 60
        E 120 81 30 00
        E 0 81 35 00
        E 0 81 39 00
        E 360 91 30 60
        E 0 91 34 60
        E 0 91 39 60
        E 120 81 30 00
        E 0 81 34 00
        E 0 81 39 00
        E 360 91 30 60
        E 0 91 34 60
        E 0 91 39 60
        E 120 81 30 00
        E 0 81 34 00
        E 0 81 39 00
        E 360 90 30 60
        E 0 90 74 60
        E 0 91 37 60
        E 0 91 3a 60
        E 120 80 30 00
        E 0 81 37 00
        E 0 81 3a 00
        E 360 90 30 60
        E 0 91 37 60
        E 0 91 3a 60
        E 120 80 30 00
        E 0 81 37 00
        E 0 81 3a 00
        E 360 90 30 60
        E 0 91 35 60
        E 0 91 3a 60
        E 120 80 30 00
        E 0 81 35 00
        E 0 81 3a 00
        E 360 90 30 60
        E 0 91 35 60
        E 0 91 3a 60
        E 120 80 30 00
        E 0 81 35 00
        E 0 81 3a 00
        E 120 90 3c 60
        E 120 80 3c 00
        E 120 80 74 00
        E 0 91 30 60
        E 0 91 35 60
        E 0 91 37 60
        E 120 81 30 00
        E 0 81 35 00
        E 0 81 37 00
        E 360 91 30 60
        E 0 91 35 60
        E 0 91 37 60
        E 120 81 30 00
        E 0 81 35 00
        E 0 81 37 00
        E 360 91 30 60
        E 0 91 35 60
        E 0 91 37 60
        E 120 81 30 00
        E 0 81 35 00
        E 0 81 37 00
        E 360 91 30 60
        E 0 91 35 60
        E 0 91 37 60
        E 120 81 30 00
        E 0 81 35 00
        E 0 81 37 00
        E 360 91 31 60
        E 0 91 35 60
        E 0 91 38 60
        E 120 81 31 00
        E 0 81 35 00
        E 0 81 38 00
        E 360 91 31 60
        E 0 91 35 60
        E 0 91 38 60
        E 120 81 31 00
        E 0 81 35 00
        E 0 81 38 00
        E 360 91 31 60
        E 0 91 35 60
        E 0 91 38 60
        E 120 81 31 00
        E 0 81 35 00
        E 0 81 38 00
        E 360 91 31 60
        E 0 91 35 60
        E 0 91 38 60
        E 120 81 31 00
        E 0 81 35 00
        E 0 81 38 00
        E 360 91 30 60
        E 0 91 35 60
        E 0 91 39 60
        E 120 81 30 00
        E 0 81 35 00
        E 0 81 39 00
        E 360 91 30 60
        E 0 91 35 60
        E 0 91 39 60
        E 120 81 30 00
        E 0 81 35 00
        E 0 81 39 00
        E 360 91 30 60
        E 0 91 34 60
        E 0 91 39 60
        E 120 81 30 00
        E 0 81 34 00
        E 0 81 39 00
        E 360 91 30 60
        E 0 91 34 60
        E 0 91 39 60
        E 120 81 30 00
        E 0 81 34 00
        E 0 81 39 00
        E 360 90 30 60
        E 0 91 37 60
        E 0 91 3a 60
        E 120 80 30 00
        E 0 81 37 00
        E 0 81 3a 00
        E 360 90 30 60
        E 0 91 37 60
        E 0 91 3a 60
        E 120 80 30 00
        E 0 81 37 00
        E 0 81 3a 00
        E 360 90 30 60
        E 0 91 35 60
        E 0 91 3a 60
        E 120 80 30 00
        E 0 81 35 00
        E 0 81 3a 00
        E 360 90 30 60
        E 0 91 35 60
        E 0 91 3a 60
        E 120 80 30 00
        E 0 81 35 00
        E 0 81 3a 00
        E 120 90 3c 60
        E 120 80 3c 00
        E 120 91 30 60
        E 0 91 35 60
        E 0 91 37 60
        E 120 81 30 00
        E 0 81 35 00
        E 0 81 37 00
        E 360 91 30 60
        E 0 91 35 60
        E 0 91 37 60
        E 120 81 30 00
        E 0 81 35 00
        E 0 81 37 00
        E 360 91 30 60
        E 0 91 35 60
        E 0 91 37 60
        E 120 81 30 00
        E 0 81 35 00
        E 0 81 37 00
        E 360 91 30 60
        E 0 91 35 60
        E 0 91 37 60
        E 120 81 30 00
        E 0 81 35 00
        E 0 81 37 00
        E 360 91 31 60
        E 0 91 35 60
        E 0 91 38 60
        E 120 81 31 00
        E 0 81 35 00
        E 0 81 38 00
        E 360 91 31 60
        E 0 91 35 60
        E 0 91 38 60
        E 120 81 31 00
        E 0 81 35 00
        E 0 81 38 00
        E 360 91 31 60
        E 0 91 35 60
        E 0 91 38 60
        E 120 81 31 00
        E 0 81 35 00
        E 0 81 38 00
        E 360 91 31 60
        E 0 91 35 60
        E 0 91 38 60
        E 120 81 31 00
        E 0 81 35 00
        E 0 81 38 00
        E 360 91 35 60
        E 0 91 39 60
        E 0 91 3c 60
        E 120 81 35 00
        E 0 81 39 00
        E 0 81 3c 00
        E 360 91 35 60
        E 0 91 39 60
        E 0 91 3c 60
        E 120 81 35 00
        E 0 81 39 00
        E 0 81 3c 00
        E 360 91 34 60
        E 0 91 39 60
        E 0 91 3c 60
        E 120 81 34 00
        E 0 81 39 00
        E 0 81 3c 00
        E 360 91 34 60
        E 0 91 39 60
        E 0 91 3c 60
        E 120 81 34 00
        E 0 81 39 00
        E 0 81 3c 00
        E 360 90 04 60
        E 0 91 35 60
        E 0 91 38 60
        E 0 91 3c 60
        E 120 80 04 00
        E 0 81 35 00
        E 0 81 38 00
        E 0 81 3c 00
        E 360 91 35 60
        E 0 91 38 60
        E 0 91 3c 60
        E 120 81 35 00
        E 0 81 38 00
        E 0 81 3c 00
        E 360 91 35 60
        E 0 91 38 60
        E 0 91 3c 60
        E 120 81 35 00
        E 0 81 38 00
        E 0 81 3c 00
        E 360 91 35 60
        E 0 91 38 60
        E 0 91 3c 60
        E 120 81 35 00
        E 0 81 38 00
        E 0 81 3c 00
        E 360 90 74 60
        E 0 91 35 60
        E 120 81 35 00
        E 360 90 35 60
        E 0 91 41 60
        E 120 80 35 00
        E 0 81 41 00
        E 120 91 40 60
        E 120 81 40 00
        E 120 91 35 60
        E 120 81 35 00
        E 360 91 35 60
        E 120 81 35 00
        E 360 91 34 60
        E 120 80 74 00
        E 0 81 34 00
        E 120 91 35 60
        E 120 81 35 00
        E 120 90 34 60
        E 0 91 41 60
        E 120 80 34 00
        E 0 81 41 00
        E 120 91 40 60
        E 120 81 40 00
        E 120 91 34 60
        E 120 81 34 00
        E 360 91 34 60
        E 120 81 34 00
        E 360 91 38 60
        E 120 81 38 00
        E 360 90 38 60
        E 0 91 41 60
        E 120 80 38 00
        E 0 81 41 00
        E 120 91 40 60
        E 120 81 40 00
        E 120 91 38 60
        E 120 81 38 00
        E 360 91 38 60
        E 120 81 38 00
        E 360 91 37 60
        E 0 91 3b 60
        E 120 81 37 00
        E 0 81 3b 00
        E 360 91 37 60
        E 0 91 3b 60
        E 0 91 41 60
        E 120 81 37 00
        E 0 81 3b 00
        E 0 81 41 00
        E 360 91 36 60
        E 0 91 3a 60
        E 0 91 41 60
        E 120 81 36 00
        E 0 81 3a 00
        E 0 81 41 00
        E 360 91 36 60
        E 0 91 3a 60
        E 0 91 41 60
        E 120 81 36 00
        E 0 81 3a 00
        E 0 81 41 00
        <X 360 0
          /wFbYmVnaW5fa2V5IHNvbmdfdHJhaW5lcl9rZXlfNV0=
        >
        E 0 90 35 60
        E 0 91 41 60
        E 120 80 35 00
        E 0 81 41 00
        E 120 91 35 60
        E 120 81 35 00
        E 120 90 35 60
        E 0 91 41 60
        E 120 80 35 00
        E 0 81 41 00
        E 120 91 40 60
        E 120 81 40 00
        E 120 91 35 60
        E 120 81 35 00
        E 120 90 37 60
        E 120 80 37 00
        E 120 90 35 60
        E 0 90 38 60
        E 120 80 35 00
        E 0 80 38 00
        E 120 90 37 60
        E 120 80 37 00
        <X 120 0
          /wFba2V5X25vcm0gc29uZ190cmFpbmVyX2tleV81XQ==
        >
        E 0 91 34 60
        E 120 81 34 00
        E 120 91 34 60
        E 120 81 34 00
        E 120 90 34 60
        E 0 91 41 60
        E 120 80 34 00
        E 0 81 41 00
        E 120 91 40 60
        E 120 81 40 00
        E 120 91 34 60
        E 120 81 34 00
        E 120 91 37 60
        E 120 81 37 00
        E 120 90 34 60
        E 0 91 38 60
        E 120 80 34 00
        E 0 81 38 00
        E 120 91 3c 60
        E 120 81 3c 00
        E 120 91 38 60
        E 120 81 38 00
        E 360 91 35 60
        E 0 91 41 60
        E 120 81 35 00
        E 0 81 41 00
        E 120 91 34 60
        E 0 91 40 60
        E 120 81 34 00
        E 0 81 40 00
        E 120 90 35 60
        e 0 90 38 60
        E 120 80 35 00
        e 0 80 38 00
        E 120 90 37 60
        E 120 80 37 00
        E 120 90 38 60
        E 120 80 38 00
        E 120 90 3e 60
        E 120 80 3e 00
        E 120 91 37 60
        E 0 91 3b 60
        E 120 81 37 00
        E 0 81 3b 00
        E 360 91 37 60
        E 0 91 3b 60
        E 0 91 41 60
        E 120 81 37 00
        E 0 81 3b 00
        E 0 81 41 00
        E 360 91 36 60
        E 0 91 3a 60
        E 0 91 41 60
        E 120 81 36 00
        E 0 81 3a 00
        E 0 81 41 00
        E 360 91 36 60
        E 0 91 3a 60
        E 0 91 41 60
        E 120 81 36 00
        E 0 81 3a 00
        E 0 81 41 00
        <X 360 0
          /wFbZW5kX2tleSBzb25nX3RyYWluZXJfa2V5XzVd
        >
        E 0 91 35 60
        E 0 91 3c 60
        E 1920 81 35 00
        E 0 81 3c 00
        E 1920 b0 7b 00
        GUID {13744F6F-14A6-4E08-91A0-AD81795A955B}
        IGNTEMPO 0 120.00000000 4 4
        SRCCOLOR 4
        VELLANE 132 123 128
        COLORMAP "C:\Program Files (x86)\REAPER\Data\color_maps\rockband_guitarbass.png"
        TEXTSTRINGFILE "C:\Program Files\REAPER (x64)\Data\Text_Strings\Text Events List - PRO Trainers.txt"
        CFGEDITVIEW 86275.597926 0.111067 3 12 0 0 0
        CFGEDIT 1 1 0 1 1 0 1 1 1 1 1 0.25000000 -8 0 1370 744 0 2 0 2 0.00000000 0 1 0 0 0.500000 0 0 1.000000 64
        KEYSNAP 0 7 "102030050700" 0 "Pentatonic"
        EVTFILTER 0 -1 -1 -1 -1 0 1 0 0 -1.00000000 -1.00000000
      >
    >
  >
  <TRACK '{B930CBB5-4C08-4CEE-8818-39E3C240DE5F}'
    NAME "PART REAL_KEYS_H"
    PEAKCOL 16576
    BEAT -1
    AUTOMODE 0
    VOLPAN 1.00000000000000 0.00000000000000 -1.00000000000000 -1.00000000000000 1.00000000000000
    MUTESOLO 0 0 0
    IPHASE 0
    ISBUS 0 0
    BUSCOMP 0 0
    SHOWINMIX 1 0.666700 0.500000 1 0.500000 -1 -1 -1
    FREEMODE 0
    SEL 0
    REC 0 0 0 0 0 0 0
    VU 2
    TRACKHEIGHT 0 0
    INQ 0 0 0 0.5000000000 100 0 0 100
    NCHAN 2
    FX 0
    TRACKID {B930CBB5-4C08-4CEE-8818-39E3C240DE5F}
    PERF 0
    MIDIOUT -1
    <MIDINOTENAMES
      0 72 "C4"
      0 71 "B3"
      0 70 "A#3"
      0 69 "A3"
      0 68 "G#3"
      0 67 "G3"
      0 66 "F#3"
      0 65 "F3"
      0 64 "E3"
      0 63 "D#3"
      0 62 "D3"
      0 61 "C#3"
      0 60 "C3"
      0 59 "B2"
      0 58 "A#2"
      0 57 "A2"
      0 56 "G#2"
      0 55 "G2"
      0 54 "F#2"
      0 53 "F2"
      0 52 "E2"
      0 51 "D#2"
      0 50 "D2"
      0 49 "C#2"
      0 48 "C2"
      0 10 "---"
      0 9 "Range A2-C4"
      0 7 "G2-B3"
      0 5 "Range F2-A3"
      0 4 "E2-G3"
      0 2 "D2-F3"
      0 0 "Range C2-E3"
    >
    MAINSEND 1 0
    <FXCHAIN
      WNDRECT 0 42 723 467
      SHOW 0
      LASTSEL 1
      DOCKED 0
      BYPASS 0 0
      <JS "MIDI/midi_note_filter" ""
        48.000000 72.000000 - - - - - - - - - - - - - - - - - - - - - - - - - - - - - - - - - - - - - - - - - - - - - - - - - - - - - - - - - - - - - - 
      >
      FLOATPOS 0 0 0 0
      FXID {FBBA8735-01C7-484A-898C-A4BDAE4389D0}
      WAK 0
      BYPASS 0 0
      <VST "VSTi: ReaSynth (Cockos)" "reasynth.dll" 0 ""
        eXNlcu9e7f4AAAAAAgAAAAEAAAAAAAAAAgAAAAAAAAA4AAAAAAAAAA==
        AAAQAO++rd4N8K3eppvEO4jjxD5/ajw+QmDlPQAAgD+KG7U+jUYHPQ==
        AAAAAAAAAD8AAAAAAACAPwAAAD8AABAAAAA=
      >
      FLOATPOS 0 0 0 0
      FXID {3D95ADBA-3848-4601-9E22-C2FC95D66ECD}
      WAK 0
    >
    <ITEM
      POSITION 0.00000000000000
      SNAPOFFS 0.00000000000000
      LENGTH 222.64702947845805
      LOOP 0
      ALLTAKES 0
      SEL 0
      FADEIN 1 0.000000 0.000000 1 0
      FADEOUT 1 0.000000 0.000000 1 0
      MUTE 0
      IGUID {32F21093-D01D-49A8-ACA6-43368B22253F}
      IID 7
      NAME "PART REAL_KEYS_H"
      VOLPAN 1.000000 0.000000 1.000000 -1.000000
      SOFFS 0.00000000000000 0.00000000000000
      PLAYRATE 1.00000000000000 1 0.00000000000000 -1
      CHANMODE 0
      GUID {D1BDC315-5CBD-4BB5-8456-35523F02F44E}
      <SOURCE MIDI
        HASDATA 1 480 QN
        POOLEDEVTS {B8B4EBC7-C643-4E83-B287-63EE6AB75728}
        <X 0 0
          /wNQQVJUIFJFQUxfS0VZU19I
        >
        E 0 90 00 60
        E 120 80 00 00
        E 1800 91 30 60
        E 0 91 37 60
        E 120 81 30 00
        E 0 81 37 00
        E 360 91 30 60
        E 0 91 37 60
        E 120 81 30 00
        E 0 81 37 00
        E 360 91 30 60
        E 0 91 37 60
        E 120 81 30 00
        E 0 81 37 00
        E 360 91 30 60
        E 0 91 37 60
        E 120 81 30 00
        E 0 81 37 00
        E 360 91 31 60
        E 0 91 38 60
        E 120 81 31 00
        E 0 81 38 00
        E 360 91 31 60
        E 0 91 38 60
        E 120 81 31 00
        E 0 81 38 00
        E 360 91 31 60
        E 0 91 38 60
        E 120 81 31 00
        E 0 81 38 00
        E 360 91 31 60
        E 0 91 38 60
        E 120 81 31 00
        E 0 81 38 00
        E 360 91 35 60
        E 0 91 3c 60
        E 120 81 35 00
        E 0 81 3c 00
        E 360 91 35 60
        E 0 91 3c 60
        E 120 81 35 00
        E 0 81 3c 00
        E 360 91 34 60
        E 0 91 3c 60
        E 120 81 34 00
        E 0 81 3c 00
        E 360 91 34 60
        E 0 91 3c 60
        E 120 81 34 00
        E 0 81 3c 00
        E 360 90 3c 60
        E 0 91 37 60
        E 120 80 3c 00
        E 0 81 37 00
        E 360 90 3c 60
        E 0 91 37 60
        E 120 80 3c 00
        E 0 81 37 00
        E 360 90 3c 60
        E 0 91 35 60
        E 120 80 3c 00
        E 0 81 35 00
        E 360 90 3c 60
        E 0 91 35 60
        E 120 80 3c 00
        E 0 81 35 00
        E 360 91 30 60
        E 0 91 37 60
        E 120 81 30 00
        E 0 81 37 00
        E 360 91 30 60
        E 0 91 37 60
        E 120 81 30 00
        E 0 81 37 00
        E 360 91 30 60
        E 0 91 37 60
        E 120 81 30 00
        E 0 81 37 00
        E 360 91 30 60
        E 0 91 37 60
        E 120 81 30 00
        E 0 81 37 00
        E 360 91 31 60
        E 0 91 38 60
        E 120 81 31 00
        E 0 81 38 00
        E 360 91 31 60
        E 0 91 38 60
        E 120 81 31 00
        E 0 81 38 00
        E 360 91 31 60
        E 0 91 38 60
        E 120 81 31 00
        E 0 81 38 00
        E 360 91 31 60
        E 0 91 38 60
        E 120 81 31 00
        E 0 81 38 00
        E 360 91 35 60
        E 0 91 3c 60
        E 120 81 35 00
        E 0 81 3c 00
        E 360 91 35 60
        E 0 91 3c 60
        E 120 81 35 00
        E 0 81 3c 00
        E 360 91 34 60
        E 0 91 3c 60
        E 120 81 34 00
        E 0 81 3c 00
        E 360 91 34 60
        E 0 91 3c 60
        E 120 81 34 00
        E 0 81 3c 00
        E 360 90 3c 60
        E 0 91 37 60
        E 120 80 3c 00
        E 0 81 37 00
        E 360 90 3c 60
        E 0 91 37 60
        E 120 80 3c 00
        E 0 81 37 00
        E 360 90 3c 60
        E 0 91 35 60
        E 120 80 3c 00
        E 0 81 35 00
        E 360 90 3c 60
        E 0 91 35 60
        E 120 80 3c 00
        E 0 81 35 00
        E 360 91 30 60
        E 0 91 37 60
        E 120 81 30 00
        E 0 81 37 00
        E 360 91 30 60
        E 0 91 37 60
        E 120 81 30 00
        E 0 81 37 00
        E 360 91 30 60
        E 0 91 37 60
        E 120 81 30 00
        E 0 81 37 00
        E 360 91 30 60
        E 0 91 37 60
        E 120 81 30 00
        E 0 81 37 00
        E 360 91 31 60
        E 0 91 38 60
        E 120 81 31 00
        E 0 81 38 00
        E 360 91 31 60
        E 0 91 38 60
        E 120 81 31 00
        E 0 81 38 00
        E 360 91 31 60
        E 0 91 38 60
        E 120 81 31 00
        E 0 81 38 00
        E 360 91 31 60
        E 0 91 38 60
        E 120 81 31 00
        E 0 81 38 00
        E 360 91 35 60
        E 0 91 3c 60
        E 120 81 35 00
        E 0 81 3c 00
        E 360 91 35 60
        E 0 91 3c 60
        E 120 81 35 00
        E 0 81 3c 00
        E 360 91 34 60
        E 0 91 3c 60
        E 120 81 34 00
        E 0 81 3c 00
        E 360 91 34 60
        E 0 91 3c 60
        E 120 81 34 00
        E 0 81 3c 00
        E 360 90 3c 60
        E 0 91 37 60
        E 120 80 3c 00
        E 0 81 37 00
        E 360 90 3c 60
        E 0 91 37 60
        E 120 80 3c 00
        E 0 81 37 00
        E 360 90 3c 60
        E 0 91 35 60
        E 120 80 3c 00
        E 0 81 35 00
        E 360 90 3c 60
        E 0 91 35 60
        E 120 80 3c 00
        E 0 81 35 00
        E 360 91 30 60
        E 0 91 37 60
        E 120 81 30 00
        E 0 81 37 00
        E 360 91 30 60
        E 0 91 37 60
        E 120 81 30 00
        E 0 81 37 00
        E 360 91 30 60
        E 0 91 37 60
        E 120 81 30 00
        E 0 81 37 00
        E 360 91 30 60
        E 0 91 37 60
        E 120 81 30 00
        E 0 81 37 00
        E 360 91 31 60
        E 0 91 38 60
        E 120 81 31 00
        E 0 81 38 00
        E 360 91 31 60
        E 0 91 38 60
        E 120 81 31 00
        E 0 81 38 00
        E 360 91 31 60
        E 0 91 38 60
        E 120 81 31 00
        E 0 81 38 00
        E 360 91 31 60
        E 0 91 38 60
        E 120 81 31 00
        E 0 81 38 00
        E 360 91 35 60
        E 0 91 3c 60
        E 120 81 35 00
        E 0 81 3c 00
        E 360 91 35 60
        E 0 91 3c 60
        E 120 81 35 00
        E 0 81 3c 00
        E 360 91 34 60
        E 0 91 3c 60
        E 120 81 34 00
        E 0 81 3c 00
        E 360 91 34 60
        E 0 91 3c 60
        E 120 81 34 00
        E 0 81 3c 00
        E 360 90 04 60
        E 0 91 35 60
        E 0 91 3c 60
        E 120 80 04 00
        E 0 81 35 00
        E 0 81 3c 00
        E 360 91 35 60
        E 0 91 3c 60
        E 120 81 35 00
        E 0 81 3c 00
        E 360 91 35 60
        E 0 91 3c 60
        E 120 81 35 00
        E 0 81 3c 00
        E 360 91 35 60
        E 0 91 3c 60
        E 120 81 35 00
        E 0 81 3c 00
        E 360 91 35 60
        E 120 81 35 00
        E 360 91 41 60
        E 120 81 41 00
        E 120 91 40 60
        E 120 81 40 00
        E 120 91 35 60
        E 120 81 35 00
        E 360 91 35 60
        E 120 81 35 00
        E 360 91 34 60
        E 120 81 34 00
        E 360 91 41 60
        E 120 81 41 00
        E 120 91 40 60
        E 120 81 40 00
        E 120 91 34 60
        E 120 81 34 00
        E 360 91 34 60
        E 120 81 34 00
        E 360 91 38 60
        E 120 81 38 00
        E 360 91 41 60
        E 120 81 41 00
        E 120 91 40 60
        E 120 81 40 00
        E 120 91 38 60
        E 120 81 38 00
        E 360 91 38 60
        E 120 81 38 00
        E 360 91 37 60
        E 0 91 3b 60
        E 120 81 37 00
        E 0 81 3b 00
        E 360 91 37 60
        E 0 91 3b 60
        E 120 81 37 00
        E 0 81 3b 00
        E 360 91 36 60
        E 0 91 3a 60
        E 120 81 36 00
        E 0 81 3a 00
        E 360 91 36 60
        E 0 91 3a 60
        E 120 81 36 00
        E 0 81 3a 00
        E 360 91 41 60
        E 120 81 41 00
        E 360 91 41 60
        E 120 81 41 00
        E 120 91 40 60
        E 120 81 40 00
        E 120 91 35 60
        E 120 81 35 00
        E 360 91 35 60
        E 120 81 35 00
        E 360 91 34 60
        E 120 81 34 00
        E 360 91 41 60
        E 120 81 41 00
        E 120 91 40 60
        E 120 81 40 00
        E 120 91 34 60
        E 120 81 34 00
        E 120 91 37 60
        E 120 81 37 00
        E 120 91 38 60
        E 120 81 38 00
        E 120 91 3c 60
        E 120 81 3c 00
        E 120 91 38 60
        E 120 81 38 00
        E 360 91 35 60
        E 0 91 41 60
        E 120 81 35 00
        E 0 81 41 00
        E 120 91 34 60
        E 0 91 40 60
        E 120 81 34 00
        E 0 81 40 00
        E 120 91 38 60
        E 120 81 38 00
        E 360 91 38 60
        E 120 81 38 00
        E 360 91 37 60
        E 0 91 3b 60
        E 120 81 37 00
        E 0 81 3b 00
        E 360 91 37 60
        E 0 91 3b 60
        E 120 81 37 00
        E 0 81 3b 00
        E 360 91 36 60
        E 0 91 3a 60
        E 120 81 36 00
        E 0 81 3a 00
        E 360 91 36 60
        E 0 91 3a 60
        E 120 81 36 00
        E 0 81 3a 00
        E 360 90 00 60
        E 0 91 37 60
        E 0 91 3c 60
        E 120 80 00 00
        E 0 81 37 00
        E 0 81 3c 00
        E 360 91 37 60
        E 0 91 3c 60
        E 120 81 37 00
        E 0 81 3c 00
        E 360 91 37 60
        E 0 91 3c 60
        E 120 81 37 00
        E 0 81 3c 00
        E 360 91 37 60
        E 0 91 3c 60
        E 120 81 37 00
        E 0 81 3c 00
        E 360 91 31 60
        E 0 91 38 60
        E 120 81 31 00
        E 0 81 38 00
        E 360 91 31 60
        E 0 91 38 60
        E 120 81 31 00
        E 0 81 38 00
        E 360 91 31 60
        E 0 91 38 60
        E 120 81 31 00
        E 0 81 38 00
        E 360 91 31 60
        E 0 91 38 60
        E 120 81 31 00
        E 0 81 38 00
        E 360 91 30 60
        E 0 91 35 60
        E 120 81 30 00
        E 0 81 35 00
        E 360 91 30 60
        E 0 91 35 60
        E 120 81 30 00
        E 0 81 35 00
        E 360 91 30 60
        E 0 91 34 60
        E 120 81 30 00
        E 0 81 34 00
        E 360 91 30 60
        E 0 91 34 60
        E 120 81 30 00
        E 0 81 34 00
        E 360 90 30 60
        E 0 91 37 60
        E 120 80 30 00
        E 0 81 37 00
        E 360 90 30 60
        E 0 91 37 60
        E 120 80 30 00
        E 0 81 37 00
        E 360 90 30 60
        E 0 91 35 60
        E 120 80 30 00
        E 0 81 35 00
        E 360 90 30 60
        E 0 91 35 60
        E 120 80 30 00
        E 0 81 35 00
        E 120 90 3c 60
        E 120 80 3c 00
        E 120 91 30 60
        E 0 91 37 60
        E 120 81 30 00
        E 0 81 37 00
        E 360 91 30 60
        E 0 91 37 60
        E 120 81 30 00
        E 0 81 37 00
        E 360 91 30 60
        E 0 91 37 60
        E 120 81 30 00
        E 0 81 37 00
        E 360 91 30 60
        E 0 91 37 60
        E 120 81 30 00
        E 0 81 37 00
        E 360 91 31 60
        E 0 91 38 60
        E 120 81 31 00
        E 0 81 38 00
        E 360 91 31 60
        E 0 91 38 60
        E 120 81 31 00
        E 0 81 38 00
        E 360 91 31 60
        E 0 91 38 60
        E 120 81 31 00
        E 0 81 38 00
        E 360 91 31 60
        E 0 91 38 60
        E 120 81 31 00
        E 0 81 38 00
        E 360 91 30 60
        E 0 91 35 60
        E 120 81 30 00
        E 0 81 35 00
        E 360 91 30 60
        E 0 91 35 60
        E 120 81 30 00
        E 0 81 35 00
        E 360 91 30 60
        E 0 91 34 60
        E 120 81 30 00
        E 0 81 34 00
        E 360 91 30 60
        E 0 91 34 60
        E 120 81 30 00
        E 0 81 34 00
        E 360 90 30 60
        E 0 91 37 60
        E 120 80 30 00
        E 0 81 37 00
        E 360 90 30 60
        E 0 91 37 60
        E 120 80 30 00
        E 0 81 37 00
        E 360 90 30 60
        E 0 91 35 60
        E 120 80 30 00
        E 0 81 35 00
        E 360 90 30 60
        E 0 91 35 60
        E 120 80 30 00
        E 0 81 35 00
        E 120 90 3c 60
        E 120 80 3c 00
        E 120 91 30 60
        E 0 91 37 60
        E 120 81 30 00
        E 0 81 37 00
        E 360 91 30 60
        E 0 91 37 60
        E 120 81 30 00
        E 0 81 37 00
        E 360 91 30 60
        E 0 91 37 60
        E 120 81 30 00
        E 0 81 37 00
        E 360 91 30 60
        E 0 91 37 60
        E 120 81 30 00
        E 0 81 37 00
        E 360 91 31 60
        E 0 91 38 60
        E 120 81 31 00
        E 0 81 38 00
        E 360 91 31 60
        E 0 91 38 60
        E 120 81 31 00
        E 0 81 38 00
        E 360 91 31 60
        E 0 91 38 60
        E 120 81 31 00
        E 0 81 38 00
        E 360 91 31 60
        E 0 91 38 60
        E 120 81 31 00
        E 0 81 38 00
        E 360 91 30 60
        E 0 91 35 60
        E 120 81 30 00
        E 0 81 35 00
        E 360 91 30 60
        E 0 91 35 60
        E 120 81 30 00
        E 0 81 35 00
        E 360 91 30 60
        E 0 91 34 60
        E 120 81 30 00
        E 0 81 34 00
        E 360 91 30 60
        E 0 91 34 60
        E 120 81 30 00
        E 0 81 34 00
        E 360 90 30 60
        E 0 91 37 60
        E 120 80 30 00
        E 0 81 37 00
        E 360 90 30 60
        E 0 91 37 60
        E 120 80 30 00
        E 0 81 37 00
        E 360 90 30 60
        E 0 91 35 60
        E 120 80 30 00
        E 0 81 35 00
        E 360 90 30 60
        E 0 91 35 60
        E 120 80 30 00
        E 0 81 35 00
        E 120 90 3c 60
        E 120 80 3c 00
        E 120 91 30 60
        E 0 91 37 60
        E 120 81 30 00
        E 0 81 37 00
        E 360 91 30 60
        E 0 91 37 60
        E 120 81 30 00
        E 0 81 37 00
        E 360 91 30 60
        E 0 91 37 60
        E 120 81 30 00
        E 0 81 37 00
        E 360 91 30 60
        E 0 91 37 60
        E 120 81 30 00
        E 0 81 37 00
        E 360 91 31 60
        E 0 91 38 60
        E 120 81 31 00
        E 0 81 38 00
        E 360 91 31 60
        E 0 91 38 60
        E 120 81 31 00
        E 0 81 38 00
        E 360 91 31 60
        E 0 91 38 60
        E 120 81 31 00
        E 0 81 38 00
        E 360 91 31 60
        E 0 91 38 60
        E 120 81 31 00
        E 0 81 38 00
        E 360 91 35 60
        E 0 91 39 60
        E 120 81 35 00
        E 0 81 39 00
        E 360 91 35 60
        E 0 91 39 60
        E 120 81 35 00
        E 0 81 39 00
        E 360 91 34 60
        E 0 91 39 60
        E 120 81 34 00
        E 0 81 39 00
        E 360 91 34 60
        E 0 91 39 60
        E 120 81 34 00
        E 0 81 39 00
        E 360 90 04 60
        E 0 91 35 60
        E 0 91 38 60
        E 120 80 04 00
        E 0 81 35 00
        E 0 81 38 00
        E 360 91 35 60
        E 0 91 38 60
        E 120 81 35 00
        E 0 81 38 00
        E 360 91 35 60
        E 0 91 38 60
        E 120 81 35 00
        E 0 81 38 00
        E 360 91 35 60
        E 0 91 38 60
        E 120 81 35 00
        E 0 81 38 00
        E 360 91 35 60
        E 120 81 35 00
        E 360 91 41 60
        E 120 81 41 00
        E 120 91 40 60
        E 120 81 40 00
        E 120 91 35 60
        E 120 81 35 00
        E 360 91 35 60
        E 120 81 35 00
        E 360 91 34 60
        E 120 81 34 00
        E 360 91 41 60
        E 120 81 41 00
        E 120 91 40 60
        E 120 81 40 00
        E 120 91 34 60
        E 120 81 34 00
        E 360 91 34 60
        E 120 81 34 00
        E 360 91 38 60
        E 120 81 38 00
        E 360 91 41 60
        E 120 81 41 00
        E 120 91 40 60
        E 120 81 40 00
        E 120 91 38 60
        E 120 81 38 00
        E 360 91 38 60
        E 120 81 38 00
        E 360 91 3b 60
        E 120 81 3b 00
        E 360 91 3b 60
        E 0 91 41 60
        E 120 81 3b 00
        E 0 81 41 00
        E 360 91 3a 60
        E 0 91 41 60
        E 120 81 3a 00
        E 0 81 41 00
        E 360 91 3a 60
        E 0 91 41 60
        E 120 81 3a 00
        E 0 81 41 00
        E 360 91 41 60
        E 120 81 41 00
        E 360 91 41 60
        E 120 81 41 00
        E 120 91 40 60
        E 120 81 40 00
        E 120 91 35 60
        E 120 81 35 00
        E 120 90 37 60
        E 120 80 37 00
        E 120 90 38 60
        E 120 80 38 00
        E 120 90 37 60
        E 120 80 37 00
        E 120 91 34 60
        E 120 81 34 00
        E 360 91 41 60
        E 120 81 41 00
        E 120 91 40 60
        E 120 81 40 00
        E 120 91 34 60
        E 120 81 34 00
        E 120 91 37 60
        E 120 81 37 00
        E 120 91 38 60
        E 120 81 38 00
        E 120 91 3c 60
        E 120 81 3c 00
        E 120 91 38 60
        E 120 81 38 00
        E 360 91 35 60
        E 0 91 41 60
        E 120 81 35 00
        E 0 81 41 00
        E 120 91 34 60
        E 0 91 40 60
        E 120 81 34 00
        E 0 81 40 00
        E 120 90 35 60
        E 120 80 35 00
        E 120 90 37 60
        E 120 80 37 00
        E 120 90 38 60
        E 120 80 38 00
        E 120 90 3e 60
        E 120 80 3e 00
        E 120 91 3b 60
        E 120 81 3b 00
        E 360 91 3b 60
        E 0 91 41 60
        E 120 81 3b 00
        E 0 81 41 00
        E 360 91 3a 60
        E 0 91 41 60
        E 120 81 3a 00
        E 0 81 41 00
        E 360 91 3a 60
        E 0 91 41 60
        E 120 81 3a 00
        E 0 81 41 00
        e 360 91 35 60
        e 0 91 3c 60
        e 1920 81 35 00
        e 0 81 3c 00
        E 1920 b0 7b 00
        GUID {13744F6F-14A6-4E08-91A0-AD81795A955B}
        IGNTEMPO 0 120.00000000 4 4
        SRCCOLOR 4
        VELLANE 132 123 128
        COLORMAP "C:\Program Files (x86)\REAPER\Data\color_maps\rockband_guitarbass.png"
        TEXTSTRINGFILE "C:\Program Files (x86)\REAPER\Data\Text_Strings\Text Events List - Pro Trainers.txt"
        CFGEDITVIEW -346.953630 0.111067 0 13 0 0 0
        CFGEDIT 1 1 0 1 1 0 1 1 1 1 1 0.25000000 -8 0 1370 744 0 2 0 2 0.00000000 0 1 0 0 0.500000 0 0 1.000000 64
        KEYSNAP 0 7 "102030050700" 0 "Pentatonic"
        EVTFILTER 0 -1 -1 -1 -1 0 1 0 0 -1.00000000 -1.00000000
      >
    >
  >
  <TRACK '{E3229B95-6601-4D2D-975C-D982BD12368B}'
    NAME "PART REAL_KEYS_M"
    PEAKCOL 16576
    BEAT -1
    AUTOMODE 0
    VOLPAN 1.00000000000000 0.00000000000000 -1.00000000000000 -1.00000000000000 1.00000000000000
    MUTESOLO 0 0 0
    IPHASE 0
    ISBUS 0 0
    BUSCOMP 0 0
    SHOWINMIX 1 0.666700 0.500000 1 0.500000 -1 -1 -1
    FREEMODE 0
    SEL 0
    REC 0 0 0 0 0 0 0
    VU 2
    TRACKHEIGHT 0 0
    INQ 0 0 0 0.5000000000 100 0 0 100
    NCHAN 2
    FX 0
    TRACKID {E3229B95-6601-4D2D-975C-D982BD12368B}
    PERF 0
    MIDIOUT -1
    <MIDINOTENAMES
      0 72 "C4"
      0 71 "B3"
      0 70 "A#3"
      0 69 "A3"
      0 68 "G#3"
      0 67 "G3"
      0 66 "F#3"
      0 65 "F3"
      0 64 "E3"
      0 63 "D#3"
      0 62 "D3"
      0 61 "C#3"
      0 60 "C3"
      0 59 "B2"
      0 58 "A#2"
      0 57 "A2"
      0 56 "G#2"
      0 55 "G2"
      0 54 "F#2"
      0 53 "F2"
      0 52 "E2"
      0 51 "D#2"
      0 50 "D2"
      0 49 "C#2"
      0 48 "C2"
      0 10 "---"
      0 9 "Range A2-C4"
      0 7 "G2-B3"
      0 5 "Range F2-A3"
      0 4 "E2-G3"
      0 2 "D2-F3"
      0 0 "Range C2-E3"
    >
    MAINSEND 1 0
    <FXCHAIN
      WNDRECT 0 42 723 467
      SHOW 0
      LASTSEL 1
      DOCKED 0
      BYPASS 0 0
      <JS "MIDI/midi_note_filter" ""
        48.000000 72.000000 - - - - - - - - - - - - - - - - - - - - - - - - - - - - - - - - - - - - - - - - - - - - - - - - - - - - - - - - - - - - - - 
      >
      FLOATPOS 0 0 0 0
      FXID {FBBA8735-01C7-484A-898C-A4BDAE4389D0}
      WAK 0
      BYPASS 0 0
      <VST "VSTi: ReaSynth (Cockos)" "reasynth.dll" 0 ""
        eXNlcu9e7f4AAAAAAgAAAAEAAAAAAAAAAgAAAAAAAAA4AAAAAAAAAA==
        AAAQAO++rd4N8K3eppvEO4jjxD5/ajw+QmDlPQAAgD+KG7U+jUYHPQ==
        AAAAAAAAAD8AAAAAAACAPwAAAD8AABAAAAA=
      >
      FLOATPOS 0 0 0 0
      FXID {6A455B20-E90A-4863-8303-85132F576C8B}
      WAK 0
    >
    <ITEM
      POSITION 0.00000000000000
      SNAPOFFS 0.00000000000000
      LENGTH 222.64702947845805
      LOOP 0
      ALLTAKES 0
      SEL 0
      FADEIN 1 0.000000 0.000000 1 0
      FADEOUT 1 0.000000 0.000000 1 0
      MUTE 0
      IGUID {C24C3438-A5A4-4D76-8A5D-FD54208E4974}
      IID 7
      NAME "PART REAL_KEYS_M"
      VOLPAN 1.000000 0.000000 1.000000 -1.000000
      SOFFS 0.00000000000000 0.00000000000000
      PLAYRATE 1.00000000000000 1 0.00000000000000 -1
      CHANMODE 0
      GUID {1D1E4194-3F74-437A-9BFE-9009A530B673}
      <SOURCE MIDI
        HASDATA 1 480 QN
        POOLEDEVTS {C51A3E99-B847-422B-9E30-2DD8EDB6FA09}
        <X 0 0
          /wNQQVJUIFJFQUxfS0VZU19N
        >
        E 0 90 00 60
        E 120 80 00 00
        E 1800 91 30 60
        E 0 91 37 60
        E 120 81 30 00
        E 0 81 37 00
        E 840 91 30 60
        E 0 91 37 60
        E 120 81 30 00
        E 0 81 37 00
        E 840 91 31 60
        E 0 91 38 60
        E 120 81 31 00
        E 0 81 38 00
        E 840 91 31 60
        E 0 91 38 60
        E 120 81 31 00
        E 0 81 38 00
        E 840 91 35 60
        E 120 81 35 00
        E 360 91 35 60
        E 120 81 35 00
        E 360 91 34 60
        E 120 81 34 00
        E 360 91 34 60
        E 120 81 34 00
        E 360 91 37 60
        E 120 81 37 00
        E 360 91 37 60
        E 120 81 37 00
        E 360 91 35 60
        E 120 81 35 00
        E 360 91 35 60
        E 120 81 35 00
        E 360 91 30 60
        E 0 91 37 60
        E 120 81 30 00
        E 0 81 37 00
        E 840 91 30 60
        E 0 91 37 60
        E 120 81 30 00
        E 0 81 37 00
        E 840 91 31 60
        E 0 91 38 60
        E 120 81 31 00
        E 0 81 38 00
        E 840 91 31 60
        E 0 91 38 60
        E 120 81 31 00
        E 0 81 38 00
        E 840 91 35 60
        E 120 81 35 00
        E 360 91 35 60
        E 120 81 35 00
        E 360 91 34 60
        E 120 81 34 00
        E 360 91 34 60
        E 120 81 34 00
        E 360 91 37 60
        E 120 81 37 00
        E 360 91 37 60
        E 120 81 37 00
        E 360 91 35 60
        E 120 81 35 00
        E 360 91 35 60
        E 120 81 35 00
        E 360 91 30 60
        E 0 91 37 60
        E 120 81 30 00
        E 0 81 37 00
        E 840 91 30 60
        E 0 91 37 60
        E 120 81 30 00
        E 0 81 37 00
        E 840 91 31 60
        E 0 91 38 60
        E 120 81 31 00
        E 0 81 38 00
        E 840 91 31 60
        E 0 91 38 60
        E 120 81 31 00
        E 0 81 38 00
        E 840 91 35 60
        E 120 81 35 00
        E 360 91 35 60
        E 120 81 35 00
        E 360 91 34 60
        E 120 81 34 00
        E 360 91 34 60
        E 120 81 34 00
        E 360 91 37 60
        E 120 81 37 00
        E 360 91 37 60
        E 120 81 37 00
        E 360 91 35 60
        E 120 81 35 00
        E 360 91 35 60
        E 120 81 35 00
        E 360 91 30 60
        E 0 91 37 60
        E 120 81 30 00
        E 0 81 37 00
        E 840 91 30 60
        E 0 91 37 60
        E 120 81 30 00
        E 0 81 37 00
        E 840 91 31 60
        E 0 91 38 60
        E 120 81 31 00
        E 0 81 38 00
        E 840 91 31 60
        E 0 91 38 60
        E 120 81 31 00
        E 0 81 38 00
        E 840 91 35 60
        E 120 81 35 00
        E 360 91 35 60
        E 120 81 35 00
        E 360 91 34 60
        E 120 81 34 00
        E 360 91 34 60
        E 120 81 34 00
        E 360 91 35 60
        E 0 91 3c 60
        E 120 81 35 00
        E 0 81 3c 00
        E 360 91 35 60
        E 0 91 3c 60
        E 120 81 35 00
        E 0 81 3c 00
        E 360 91 35 60
        E 0 91 3c 60
        E 120 81 35 00
        E 0 81 3c 00
        E 360 91 35 60
        E 0 91 3c 60
        E 120 81 35 00
        E 0 81 3c 00
        E 840 91 35 60
        E 120 81 35 00
        E 120 91 34 60
        E 120 81 34 00
        E 1560 91 35 60
        E 120 81 35 00
        E 120 91 34 60
        E 120 81 34 00
        E 1560 91 35 60
        E 120 81 35 00
        E 120 91 34 60
        E 120 81 34 00
        E 1080 91 37 60
        E 0 91 3b 60
        E 120 81 37 00
        E 0 81 3b 00
        E 840 91 36 60
        E 0 91 3a 60
        E 120 81 36 00
        E 0 81 3a 00
        E 840 91 35 60
        E 120 81 35 00
        E 360 91 35 60
        E 120 81 35 00
        E 120 91 34 60
        E 120 81 34 00
        E 1080 91 34 60
        E 120 81 34 00
        E 360 91 35 60
        E 120 81 35 00
        E 120 91 34 60
        E 120 81 34 00
        E 120 91 34 60
        E 120 81 34 00
        E 360 91 38 60
        E 120 81 38 00
        E 120 91 3c 60
        E 120 81 3c 00
        E 120 91 38 60
        E 120 81 38 00
        E 360 91 35 60
        E 120 81 35 00
        E 120 91 34 60
        E 120 81 34 00
        E 1080 91 37 60
        E 0 91 3b 60
        E 120 81 37 00
        E 0 81 3b 00
        E 840 91 36 60
        E 0 91 3a 60
        E 120 81 36 00
        E 0 81 3a 00
        E 840 91 30 60
        E 0 91 37 60
        E 120 81 30 00
        E 0 81 37 00
        E 840 91 30 60
        E 0 91 37 60
        E 120 81 30 00
        E 0 81 37 00
        E 840 91 31 60
        E 0 91 38 60
        E 120 81 31 00
        E 0 81 38 00
        E 840 91 31 60
        E 0 91 38 60
        E 120 81 31 00
        E 0 81 38 00
        E 840 91 35 60
        E 120 81 35 00
        E 360 91 35 60
        E 120 81 35 00
        E 360 91 34 60
        E 120 81 34 00
        E 360 91 34 60
        E 120 81 34 00
        E 360 91 37 60
        E 120 81 37 00
        E 360 91 37 60
        E 120 81 37 00
        E 360 91 35 60
        E 120 81 35 00
        E 360 91 35 60
        E 120 81 35 00
        E 120 90 3c 60
        E 120 80 3c 00
        E 120 91 30 60
        E 0 91 37 60
        E 120 81 30 00
        E 0 81 37 00
        E 840 91 30 60
        E 0 91 37 60
        E 120 81 30 00
        E 0 81 37 00
        E 840 91 31 60
        E 0 91 38 60
        E 120 81 31 00
        E 0 81 38 00
        E 840 91 31 60
        E 0 91 38 60
        E 120 81 31 00
        E 0 81 38 00
        E 840 91 35 60
        E 120 81 35 00
        E 360 91 35 60
        E 120 81 35 00
        E 360 91 34 60
        E 120 81 34 00
        E 360 91 34 60
        E 120 81 34 00
        E 360 91 37 60
        E 120 81 37 00
        E 360 91 37 60
        E 120 81 37 00
        E 360 91 35 60
        E 120 81 35 00
        E 600 90 3c 60
        E 120 80 3c 00
        E 120 91 30 60
        E 0 91 37 60
        E 120 81 30 00
        E 0 81 37 00
        E 840 91 30 60
        E 0 91 37 60
        E 120 81 30 00
        E 0 81 37 00
        E 840 91 31 60
        E 0 91 38 60
        E 120 81 31 00
        E 0 81 38 00
        E 840 91 31 60
        E 0 91 38 60
        E 120 81 31 00
        E 0 81 38 00
        E 840 91 35 60
        E 120 81 35 00
        E 360 91 35 60
        E 120 81 35 00
        E 360 91 34 60
        E 120 81 34 00
        E 360 91 34 60
        E 120 81 34 00
        E 360 91 37 60
        E 120 81 37 00
        E 360 91 37 60
        E 120 81 37 00
        E 360 91 35 60
        E 120 81 35 00
        E 360 91 35 60
        E 120 81 35 00
        E 120 90 3c 60
        E 120 80 3c 00
        E 120 91 30 60
        E 0 91 37 60
        E 120 81 30 00
        E 0 81 37 00
        E 840 91 30 60
        E 0 91 37 60
        E 120 81 30 00
        E 0 81 37 00
        E 840 91 31 60
        E 0 91 38 60
        E 120 81 31 00
        E 0 81 38 00
        E 840 91 31 60
        E 0 91 38 60
        E 120 81 31 00
        E 0 81 38 00
        E 840 91 35 60
        E 120 81 35 00
        E 360 91 35 60
        E 120 81 35 00
        E 360 91 34 60
        E 120 81 34 00
        E 360 91 34 60
        E 120 81 34 00
        E 360 91 35 60
        E 0 91 3c 60
        E 120 81 35 00
        E 0 81 3c 00
        E 360 91 35 60
        E 0 91 3c 60
        E 120 81 35 00
        E 0 81 3c 00
        E 360 91 35 60
        E 0 91 3c 60
        E 120 81 35 00
        E 0 81 3c 00
        E 360 91 35 60
        E 0 91 3c 60
        E 120 81 35 00
        E 0 81 3c 00
        E 840 91 35 60
        E 120 81 35 00
        E 120 91 34 60
        E 120 81 34 00
        E 1560 91 35 60
        E 120 81 35 00
        E 120 91 34 60
        E 120 81 34 00
        E 1560 91 35 60
        E 120 81 35 00
        E 120 91 34 60
        E 120 81 34 00
        E 1560 91 35 60
        E 120 81 35 00
        E 360 91 35 60
        E 120 81 35 00
        E 360 91 35 60
        E 120 81 35 00
        E 360 91 35 60
        E 120 81 35 00
        E 360 91 35 60
        E 120 81 35 00
        E 120 91 34 60
        E 120 81 34 00
        E 120 91 35 60
        E 120 81 35 00
        E 360 90 38 60
        E 120 80 38 00
        E 120 90 37 60
        E 120 80 37 00
        E 600 91 35 60
        E 120 81 35 00
        E 120 91 34 60
        E 120 81 34 00
        E 120 91 34 60
        E 120 81 34 00
        E 360 91 38 60
        E 120 81 38 00
        E 120 91 3c 60
        E 120 81 3c 00
        E 120 91 38 60
        E 120 81 38 00
        E 360 91 35 60
        E 120 81 35 00
        E 120 91 34 60
        E 120 81 34 00
        E 120 90 35 60
        E 120 80 35 00
        E 360 90 38 60
        E 120 80 38 00
        E 120 90 3e 60
        E 120 80 3e 00
        E 120 91 3b 60
        E 120 81 3b 00
        E 360 91 35 60
        E 120 81 35 00
        E 360 91 35 60
        E 120 81 35 00
        E 360 91 35 60
        E 120 81 35 00
        E 360 91 35 60
        E 0 91 3c 60
        E 1920 81 35 00
        E 0 81 3c 00
        E 1920 b0 7b 00
        GUID {13744F6F-14A6-4E08-91A0-AD81795A955B}
        IGNTEMPO 0 120.00000000 4 4
        SRCCOLOR 4
        VELLANE 132 123 128
        COLORMAP "C:\Program Files (x86)\REAPER\Data\color_maps\rockband_guitarbass.png"
        TEXTSTRINGFILE "C:\Program Files (x86)\REAPER\Data\Text_Strings\Text Events List - Pro Trainers.txt"
        CFGEDITVIEW 94413.488647 0.111067 0 13 0 0 0
        CFGEDIT 1 1 0 1 1 0 1 1 1 1 1 0.25000000 -8 0 1370 744 0 2 0 2 0.00000000 0 1 0 0 0.500000 0 0 1.000000 64
        KEYSNAP 0 7 "102030050700" 0 "Pentatonic"
        EVTFILTER 0 -1 -1 -1 -1 0 1 0 0 -1.00000000 -1.00000000
      >
    >
  >
  <TRACK '{F2C69ECF-F5FE-4F89-B91B-677237D34F43}'
    NAME "PART REAL_KEYS_E"
    PEAKCOL 16576
    BEAT -1
    AUTOMODE 0
    VOLPAN 1.00000000000000 0.00000000000000 -1.00000000000000 -1.00000000000000 1.00000000000000
    MUTESOLO 0 0 0
    IPHASE 0
    ISBUS 0 0
    BUSCOMP 0 0
    SHOWINMIX 1 0.666700 0.500000 1 0.500000 -1 -1 -1
    FREEMODE 0
    SEL 0
    REC 0 0 0 0 0 0 0
    VU 2
    TRACKHEIGHT 0 0
    INQ 0 0 0 0.5000000000 100 0 0 100
    NCHAN 2
    FX 0
    TRACKID {F2C69ECF-F5FE-4F89-B91B-677237D34F43}
    PERF 0
    MIDIOUT -1
    <MIDINOTENAMES
      0 72 "C4"
      0 71 "B3"
      0 70 "A#3"
      0 69 "A3"
      0 68 "G#3"
      0 67 "G3"
      0 66 "F#3"
      0 65 "F3"
      0 64 "E3"
      0 63 "D#3"
      0 62 "D3"
      0 61 "C#3"
      0 60 "C3"
      0 59 "B2"
      0 58 "A#2"
      0 57 "A2"
      0 56 "G#2"
      0 55 "G2"
      0 54 "F#2"
      0 53 "F2"
      0 52 "E2"
      0 51 "D#2"
      0 50 "D2"
      0 49 "C#2"
      0 48 "C2"
      0 10 "---"
      0 9 "Range A2-C4"
      0 7 "G2-B3"
      0 5 "Range F2-A3"
      0 4 "E2-G3"
      0 2 "D2-F3"
      0 0 "Range C2-E3"
    >
    MAINSEND 1 0
    <FXCHAIN
      WNDRECT 0 42 723 467
      SHOW 0
      LASTSEL 1
      DOCKED 0
      BYPASS 0 0
      <JS "MIDI/midi_note_filter" ""
        48.000000 72.000000 - - - - - - - - - - - - - - - - - - - - - - - - - - - - - - - - - - - - - - - - - - - - - - - - - - - - - - - - - - - - - - 
      >
      FLOATPOS 0 0 0 0
      FXID {FBBA8735-01C7-484A-898C-A4BDAE4389D0}
      WAK 0
      BYPASS 0 0
      <VST "VSTi: ReaSynth (Cockos)" "reasynth.dll" 0 ""
        eXNlcu9e7f4AAAAAAgAAAAEAAAAAAAAAAgAAAAAAAAA4AAAAAAAAAA==
        AAAQAO++rd4N8K3eppvEO4jjxD5/ajw+QmDlPQAAgD+KG7U+jUYHPQ==
        AAAAAAAAAD8AAAAAAACAPwAAAD8AABAAAAA=
      >
      FLOATPOS 0 0 0 0
      FXID {60CE9FF4-7C60-4723-A246-EAB93396A8AC}
      WAK 0
    >
    <ITEM
      POSITION 0.00000000000000
      SNAPOFFS 0.00000000000000
      LENGTH 222.64702947845805
      LOOP 0
      ALLTAKES 0
      SEL 0
      FADEIN 1 0.000000 0.000000 1 0
      FADEOUT 1 0.000000 0.000000 1 0
      MUTE 0
      IGUID {68641596-98B7-4573-AF8F-6DA604613D9C}
      IID 7
      NAME "PART REAL_KEYS_E"
      VOLPAN 1.000000 0.000000 1.000000 -1.000000
      SOFFS 0.00000000000000 0.00000000000000
      PLAYRATE 1.00000000000000 1 0.00000000000000 -1
      CHANMODE 0
      GUID {AA235C62-F7BC-49B6-93BF-B5DE23D01A2B}
      <SOURCE MIDI
        HASDATA 1 480 QN
        POOLEDEVTS {59717DB7-0227-414B-85B2-B596C8018CB4}
        <X 0 0
          /wNQQVJUIFJFQUxfS0VZU19F
        >
        E 0 90 00 60
        E 120 80 00 00
        E 1800 91 30 60
        E 120 81 30 00
        E 840 91 30 60
        E 120 81 30 00
        E 840 91 31 60
        E 120 81 31 00
        E 840 91 31 60
        E 120 81 31 00
        E 840 91 35 60
        E 120 81 35 00
        E 840 91 34 60
        E 120 81 34 00
        E 840 91 37 60
        E 120 81 37 00
        E 840 91 35 60
        E 120 81 35 00
        E 840 91 30 60
        E 120 81 30 00
        E 840 91 30 60
        E 120 81 30 00
        E 840 91 31 60
        E 120 81 31 00
        E 840 91 31 60
        E 120 81 31 00
        E 840 91 35 60
        E 120 81 35 00
        E 840 91 34 60
        E 120 81 34 00
        E 840 91 37 60
        E 120 81 37 00
        E 840 91 35 60
        E 120 81 35 00
        E 840 91 30 60
        E 120 81 30 00
        E 840 91 30 60
        E 120 81 30 00
        E 840 91 31 60
        E 120 81 31 00
        E 840 91 31 60
        E 120 81 31 00
        E 840 91 35 60
        E 120 81 35 00
        E 840 91 34 60
        E 120 81 34 00
        E 840 91 37 60
        E 120 81 37 00
        E 840 91 35 60
        E 120 81 35 00
        E 840 91 30 60
        E 120 81 30 00
        E 840 91 30 60
        E 120 81 30 00
        E 840 91 31 60
        E 120 81 31 00
        E 840 91 31 60
        E 120 81 31 00
        E 840 91 35 60
        E 120 81 35 00
        E 840 91 34 60
        E 120 81 34 00
        E 840 91 3c 60
        E 120 81 3c 00
        E 360 91 3c 60
        E 120 81 3c 00
        E 360 91 3c 60
        E 120 81 3c 00
        E 360 91 3c 60
        E 120 81 3c 00
        E 840 91 35 60
        E 120 81 35 00
        E 120 91 34 60
        E 120 81 34 00
        E 1560 91 35 60
        E 120 81 35 00
        E 120 91 34 60
        E 120 81 34 00
        E 1560 91 35 60
        E 120 81 35 00
        E 120 91 34 60
        E 120 81 34 00
        E 1080 91 37 60
        E 120 81 37 00
        E 840 91 36 60
        E 120 81 36 00
        E 1320 91 35 60
        E 120 81 35 00
        E 120 91 34 60
        E 120 81 34 00
        E 1560 91 35 60
        E 120 81 35 00
        E 120 91 34 60
        E 120 81 34 00
        E 600 91 38 60
        E 120 81 38 00
        E 120 90 3c 60
        E 120 80 3c 00
        E 600 91 35 60
        E 120 81 35 00
        E 120 91 34 60
        E 120 81 34 00
        E 1080 91 37 60
        E 120 81 37 00
        E 840 91 36 60
        E 120 81 36 00
        E 840 91 30 60
        E 120 81 30 00
        E 840 91 30 60
        E 120 81 30 00
        E 840 91 31 60
        E 120 81 31 00
        E 840 91 31 60
        E 120 81 31 00
        E 840 91 35 60
        E 120 81 35 00
        E 840 91 34 60
        E 120 81 34 00
        E 840 91 37 60
        E 120 81 37 00
        E 840 91 35 60
        E 120 81 35 00
        E 840 91 30 60
        E 120 81 30 00
        E 840 91 30 60
        E 120 81 30 00
        E 840 91 31 60
        E 120 81 31 00
        E 840 91 31 60
        E 120 81 31 00
        E 840 91 35 60
        E 120 81 35 00
        E 840 91 34 60
        E 120 81 34 00
        E 840 91 37 60
        E 120 81 37 00
        E 840 91 35 60
        E 120 81 35 00
        E 840 91 30 60
        E 120 81 30 00
        E 840 91 30 60
        E 120 81 30 00
        E 840 91 31 60
        E 120 81 31 00
        E 840 91 31 60
        E 120 81 31 00
        E 840 91 35 60
        E 120 81 35 00
        E 840 91 34 60
        E 120 81 34 00
        E 840 91 37 60
        E 120 81 37 00
        E 840 91 35 60
        E 120 81 35 00
        E 840 91 30 60
        E 120 81 30 00
        E 840 91 30 60
        E 120 81 30 00
        E 840 91 31 60
        E 120 81 31 00
        E 840 91 31 60
        E 120 81 31 00
        E 840 91 35 60
        E 120 81 35 00
        E 840 91 34 60
        E 120 81 34 00
        E 840 91 3c 60
        E 120 81 3c 00
        E 360 91 3c 60
        E 120 81 3c 00
        E 360 91 3c 60
        E 120 81 3c 00
        E 360 91 3c 60
        E 120 81 3c 00
        E 840 91 35 60
        E 120 81 35 00
        E 120 91 34 60
        E 120 81 34 00
        E 1560 91 35 60
        E 120 81 35 00
        E 120 91 34 60
        E 120 81 34 00
        E 1560 91 35 60
        E 120 81 35 00
        E 120 91 34 60
        E 120 81 34 00
        E 1560 91 35 60
        E 120 81 35 00
        E 360 91 35 60
        E 120 81 35 00
        E 360 91 35 60
        E 120 81 35 00
        E 360 91 35 60
        E 120 81 35 00
        E 360 91 35 60
        E 120 81 35 00
        E 120 91 34 60
        E 120 81 34 00
        E 600 90 38 60
        E 120 80 38 00
        E 120 90 37 60
        E 120 80 37 00
        E 600 91 35 60
        E 120 81 35 00
        E 120 91 34 60
        E 120 81 34 00
        E 600 91 38 60
        E 120 81 38 00
        E 120 91 3c 60
        E 120 81 3c 00
        E 600 91 35 60
        E 120 81 35 00
        E 120 91 34 60
        E 120 81 34 00
        E 600 90 38 60
        E 120 80 38 00
        E 120 90 3e 60
        E 120 80 3e 00
        E 600 91 35 60
        E 120 81 35 00
        E 360 91 35 60
        E 120 81 35 00
        E 360 91 35 60
        E 120 81 35 00
        E 360 91 3c 60
        E 1920 81 3c 00
        E 1920 b0 7b 00
        GUID {13744F6F-14A6-4E08-91A0-AD81795A955B}
        IGNTEMPO 0 120.00000000 4 4
        SRCCOLOR 4
        VELLANE 132 123 128
        COLORMAP "C:\Program Files (x86)\REAPER\Data\color_maps\rockband_guitarbass.png"
        TEXTSTRINGFILE "C:\Program Files (x86)\REAPER\Data\Text_Strings\Text Events List - Pro Trainers.txt"
        CFGEDITVIEW 87405.343459 0.111067 0 13 0 0 0
        CFGEDIT 1 1 0 1 1 0 1 1 1 1 1 0.25000000 -8 0 1370 744 0 2 0 2 0.00000000 0 1 0 0 0.500000 0 0 1.000000 64
        KEYSNAP 0 7 "102030050700" 0 "Pentatonic"
        EVTFILTER 0 -1 -1 -1 -1 0 1 0 0 -1.00000000 -1.00000000
      >
    >
  >
  <TRACK '{A42266D9-5B0E-429A-ADA9-CF1F70BF0FE4}'
    NAME "PART KEYS_ANIM_RH"
    PEAKCOL 16576
    BEAT -1
    AUTOMODE 0
    VOLPAN 1.00000000000000 0.00000000000000 -1.00000000000000 -1.00000000000000 1.00000000000000
    MUTESOLO 0 0 0
    IPHASE 0
    ISBUS 0 0
    BUSCOMP 0 0
    SHOWINMIX 1 0.666700 0.500000 1 0.500000 -1 -1 -1
    FREEMODE 0
    SEL 0
    REC 0 0 0 0 0 0 0
    VU 2
    TRACKHEIGHT 0 0
    INQ 0 0 0 0.5000000000 100 0 0 100
    NCHAN 2
    FX 0
    TRACKID {A42266D9-5B0E-429A-ADA9-CF1F70BF0FE4}
    PERF 0
    MIDIOUT -1
    <MIDINOTENAMES
      0 72 "C4"
      0 71 "B3"
      0 70 "A#3"
      0 69 "A3"
      0 68 "G#3"
      0 67 "G3"
      0 66 "F#3"
      0 65 "F3"
      0 64 "E3"
      0 63 "D#3"
      0 62 "D3"
      0 61 "C#3"
      0 60 "C3"
      0 59 "B2"
      0 58 "A#2"
      0 57 "A2"
      0 56 "G#2"
      0 55 "G2"
      0 54 "F#2"
      0 53 "F2"
      0 52 "E2"
      0 51 "D#2"
      0 50 "D2"
      0 49 "C#2"
      0 48 "C2"
      0 10 "---"
      0 9 "Range A2-C4"
      0 7 "G2-B3"
      0 5 "Range F2-A3"
      0 4 "E2-G3"
      0 2 "D2-F3"
      0 0 "Range C2-E3"
    >
    MAINSEND 1 0
    <FXCHAIN
      WNDRECT 0 42 723 462
      SHOW 0
      LASTSEL 0
      DOCKED 0
    >
    <ITEM
      POSITION 0.00000000000000
      SNAPOFFS 0.00000000000000
      LENGTH 222.64703105824603
      LOOP 0
      ALLTAKES 0
      SEL 0
      FADEIN 1 0.000000 0.000000 1 0
      FADEOUT 1 0.000000 0.000000 1 0
      MUTE 0
      IGUID {32F21093-D01D-49A8-ACA6-43368B22253F}
      IID 7
      NAME "PART KEYS_ANIM_RH"
      VOLPAN 1.000000 0.000000 1.000000 -1.000000
      SOFFS 0.00000000000000 0.00000000000000
      PLAYRATE 1.00000000000000 1 0.00000000000000 -1
      CHANMODE 0
      GUID {D1BDC315-5CBD-4BB5-8456-35523F02F44E}
      <SOURCE MIDI
        HASDATA 1 480 QN
        POOLEDEVTS {66B23FAC-F068-46D8-950E-B678D994504B}
        <X 0 0
          /wNQQVJUIEtFWVNfQU5JTV9SSA==
        >
        E 1920 90 35 60
        E 120 80 35 00
        E 360 90 35 60
        E 120 80 35 00
        E 360 90 35 60
        E 120 80 35 00
        E 360 90 35 60
        E 120 80 35 00
        E 360 90 35 60
        E 120 80 35 00
        E 360 90 35 60
        E 120 80 35 00
        E 360 90 35 60
        E 120 80 35 00
        E 360 90 35 60
        E 120 80 35 00
        E 360 90 35 60
        E 120 80 35 00
        E 360 90 35 60
        E 120 80 35 00
        E 360 90 34 60
        E 120 80 34 00
        E 360 90 34 60
        E 120 80 34 00
        E 360 90 37 60
        E 120 80 37 00
        E 360 90 37 60
        E 120 80 37 00
        E 360 90 35 60
        E 120 80 35 00
        E 360 90 35 60
        E 120 80 35 00
        E 360 90 35 60
        E 120 80 35 00 1
        E 360 90 35 60 1
        E 120 80 35 00 1
        E 360 90 35 60 1
        E 120 80 35 00 1
        E 360 90 35 60 1
        E 120 80 35 00 1
        E 360 90 35 60
        E 120 80 35 00 1
        E 360 90 35 60 1
        E 120 80 35 00 1
        E 360 90 35 60 1
        E 120 80 35 00 1
        E 360 90 35 60 1
        E 120 80 35 00 1
        E 360 90 35 60 1
        E 120 80 35 00 1
        E 360 90 35 60 1
        E 120 80 35 00 1
        E 360 90 34 60 1
        E 120 80 34 00 1
        E 360 90 34 60 1
        E 120 80 34 00 1
        E 360 90 37 60
        E 120 80 37 00 1
        E 360 90 37 60 1
        E 120 80 37 00 1
        E 360 90 35 60 1
        E 120 80 35 00 1
        E 360 90 35 60 1
        E 120 80 35 00 1
        E 360 90 35 60
        E 120 80 35 00 1
        E 360 90 35 60 1
        E 120 80 35 00 1
        E 360 90 35 60 1
        E 120 80 35 00 1
        E 360 90 35 60 1
        E 120 80 35 00 1
        E 360 90 35 60
        E 120 80 35 00 1
        E 360 90 35 60 1
        E 120 80 35 00 1
        E 360 90 35 60 1
        E 120 80 35 00 1
        E 360 90 35 60 1
        E 120 80 35 00 1
        E 360 90 35 60 1
        E 120 80 35 00 1
        E 360 90 35 60 1
        E 120 80 35 00 1
        E 360 90 34 60 1
        E 120 80 34 00 1
        E 360 90 34 60 1
        E 120 80 34 00 1
        E 360 90 37 60
        E 120 80 37 00 1
        E 360 90 37 60 1
        E 120 80 37 00 1
        E 360 90 35 60 1
        E 120 80 35 00 1
        E 360 90 35 60 1
        E 120 80 35 00 1
        E 360 90 35 60
        E 120 80 35 00
        E 360 90 35 60
        E 120 80 35 00
        E 360 90 35 60
        E 120 80 35 00
        E 360 90 35 60
        E 120 80 35 00
        E 360 90 35 60
        E 120 80 35 00
        E 360 90 35 60
        E 120 80 35 00
        E 360 90 35 60
        E 120 80 35 00
        E 360 90 35 60
        E 120 80 35 00
        E 360 90 35 60
        E 120 80 35 00
        E 360 90 35 60
        E 120 80 35 00
        E 360 90 34 60
        E 120 80 34 00
        E 360 90 34 60
        E 120 80 34 00
        E 360 90 35 60
        E 120 80 35 00
        E 360 90 35 60
        E 120 80 35 00
        E 360 90 35 60
        E 120 80 35 00
        E 360 90 35 60
        E 120 80 35 00
        E 840 90 35 60
        E 120 80 35 00
        E 120 90 34 60
        E 120 80 34 00
        E 1560 90 35 60
        E 120 80 35 00
        E 120 90 34 60
        E 120 80 34 00
        E 1560 90 35 60
        E 120 80 35 00
        E 120 90 34 60
        E 120 80 34 00
        E 1560 90 35 60
        E 120 80 35 00
        E 360 90 35 60
        E 120 80 35 00
        E 360 90 35 60
        E 120 80 35 00
        E 360 90 35 60
        E 120 80 35 00
        E 360 90 35 60
        E 120 80 35 00
        E 120 90 34 60
        E 120 80 34 00
        E 1560 90 35 60
        E 120 80 35 00
        E 120 90 34 60
        E 120 80 34 00
        E 840 90 30 60
        E 120 80 30 00
        E 600 90 35 60
        E 120 80 35 00
        E 120 90 34 60
        E 120 80 34 00
        E 1560 90 35 60
        E 120 80 35 00
        E 360 90 35 60
        E 120 80 35 00
        E 360 90 35 60
        E 120 80 35 00
        E 360 90 35 60
        E 120 80 35 00
        E 360 90 35 60
        E 120 80 35 00
        E 360 90 35 60
        E 120 80 35 00
        E 360 90 35 60
        E 120 80 35 00
        E 360 90 35 60
        E 120 80 35 00
        E 360 90 35 60
        E 120 80 35 00
        E 360 90 35 60
        E 120 80 35 00
        E 360 90 35 60
        E 120 80 35 00
        E 360 90 35 60
        E 120 80 35 00
        E 360 90 35 60
        E 120 80 35 00
        E 360 90 34 60
        E 120 80 34 00
        E 360 90 34 60
        E 120 80 34 00
        E 360 90 37 60
        E 120 80 37 00
        E 360 90 37 60
        E 120 80 37 00
        E 360 90 35 60
        E 120 80 35 00
        E 360 90 35 60
        E 120 80 35 00
        E 120 90 3c 60
        E 120 80 3c 00
        E 120 90 35 60
        E 120 80 35 00
        E 360 90 35 60
        E 120 80 35 00
        E 360 90 35 60
        E 120 80 35 00
        E 360 90 35 60
        E 120 80 35 00
        E 360 90 35 60
        E 120 80 35 00
        E 360 90 35 60
        E 120 80 35 00
        E 360 90 35 60
        E 120 80 35 00
        E 360 90 35 60
        E 120 80 35 00
        E 360 90 35 60
        E 120 80 35 00
        E 360 90 35 60
        E 120 80 35 00
        E 360 90 34 60
        E 120 80 34 00
        E 360 90 34 60
        E 120 80 34 00
        E 360 90 37 60
        E 120 80 37 00
        E 360 90 37 60
        E 120 80 37 00
        E 360 90 35 60
        E 120 80 35 00
        E 360 90 35 60
        E 120 80 35 00
        E 120 90 3c 60
        E 120 80 3c 00
        E 120 90 35 60
        E 120 80 35 00
        E 360 90 35 60
        E 120 80 35 00
        E 360 90 35 60
        E 120 80 35 00
        E 360 90 35 60
        E 120 80 35 00
        E 360 90 35 60
        E 120 80 35 00
        E 360 90 35 60
        E 120 80 35 00
        E 360 90 35 60
        E 120 80 35 00
        E 360 90 35 60
        E 120 80 35 00
        E 360 90 35 60
        E 120 80 35 00
        E 360 90 35 60
        E 120 80 35 00
        E 360 90 34 60
        E 120 80 34 00
        E 360 90 34 60
        E 120 80 34 00
        E 360 90 37 60
        E 120 80 37 00
        E 360 90 37 60
        E 120 80 37 00
        E 360 90 35 60
        E 120 80 35 00
        E 360 90 35 60
        E 120 80 35 00
        E 120 90 3c 60
        E 120 80 3c 00
        E 120 90 35 60
        E 120 80 35 00
        E 360 90 35 60
        E 120 80 35 00
        E 360 90 35 60
        E 120 80 35 00
        E 360 90 35 60
        E 120 80 35 00
        E 360 90 35 60
        E 120 80 35 00
        E 360 90 35 60
        E 120 80 35 00
        E 360 90 35 60
        E 120 80 35 00
        E 360 90 35 60
        E 120 80 35 00
        E 360 90 35 60
        E 120 80 35 00
        E 360 90 35 60
        E 120 80 35 00
        E 360 90 34 60
        E 120 80 34 00
        E 360 90 34 60
        E 120 80 34 00
        E 360 90 35 60
        E 120 80 35 00
        E 360 90 35 60
        E 120 80 35 00
        E 360 90 35 60
        E 120 80 35 00
        E 360 90 35 60
        E 120 80 35 00
        E 840 90 35 60
        E 120 80 35 00
        E 120 90 34 60
        E 120 80 34 00
        E 1560 90 35 60
        E 120 80 35 00
        E 120 90 34 60
        E 120 80 34 00
        E 1560 90 35 60
        E 120 80 35 00
        E 120 90 34 60
        E 120 80 34 00
        E 1560 90 35 60
        E 120 80 35 00
        E 360 90 35 60
        E 120 80 35 00
        E 360 90 35 60
        E 120 80 35 00
        E 360 90 35 60
        E 120 80 35 00
        E 360 90 35 60
        E 120 80 35 00
        E 120 90 34 60
        E 120 80 34 00
        E 1560 90 35 60
        E 120 80 35 00
        E 120 90 34 60
        E 120 80 34 00
        E 840 90 30 60
        E 120 80 30 00
        E 600 90 35 60
        E 120 80 35 00
        E 120 90 34 60
        E 120 80 34 00
        E 840 90 32 60
        E 120 80 32 00
        E 600 90 35 60
        E 120 80 35 00
        E 360 90 35 60
        E 120 80 35 00
        E 360 90 35 60
        E 120 80 35 00
        E 4200 b0 7b 00
        GUID {13744F6F-14A6-4E08-91A0-AD81795A955B}
        IGNTEMPO 0 120.00000000 4 4
        SRCCOLOR 4
        VELLANE 132 123 128
        COLORMAP "C:\Program Files (x86)\REAPER\Data\color_maps\rockband_guitarbass.png"
        TEXTSTRINGFILE "C:\Program Files (x86)\REAPER\Data\Text_Strings\Text Events List - Pro Trainers.txt"
        CFGEDITVIEW -4896.000000 0.011224 49 12 0 0 0
        CFGEDIT 1 1 0 1 1 0 1 1 1 1 1 0.25000000 -8 0 1370 744 0 0 0 2 0.00000000 0 1 0 0 0.500000 0 0 1.000000 64
        KEYSNAP 0 7 "102030050700" 0 "Pentatonic"
        EVTFILTER 0 -1 -1 -1 -1 0 1 0 0 -1.00000000 -1.00000000
      >
    >
  >
  <TRACK '{A597F977-C0A8-4500-B06D-5172F6F57796}'
    NAME "PART KEYS_ANIM_LH"
    PEAKCOL 16576
    BEAT -1
    AUTOMODE 0
    VOLPAN 1.00000000000000 0.00000000000000 -1.00000000000000 -1.00000000000000 1.00000000000000
    MUTESOLO 0 0 0
    IPHASE 0
    ISBUS 0 0
    BUSCOMP 0 0
    SHOWINMIX 1 0.666700 0.500000 1 0.500000 -1 -1 -1
    FREEMODE 0
    SEL 0
    REC 0 0 0 0 0 0 0
    VU 2
    TRACKHEIGHT 0 0
    INQ 0 0 0 0.5000000000 100 0 0 100
    NCHAN 2
    FX 0
    TRACKID {A597F977-C0A8-4500-B06D-5172F6F57796}
    PERF 0
    MIDIOUT -1
    <MIDINOTENAMES
      0 72 "C4"
      0 71 "B3"
      0 70 "A#3"
      0 69 "A3"
      0 68 "G#3"
      0 67 "G3"
      0 66 "F#3"
      0 65 "F3"
      0 64 "E3"
      0 63 "D#3"
      0 62 "D3"
      0 61 "C#3"
      0 60 "C3"
      0 59 "B2"
      0 58 "A#2"
      0 57 "A2"
      0 56 "G#2"
      0 55 "G2"
      0 54 "F#2"
      0 53 "F2"
      0 52 "E2"
      0 51 "D#2"
      0 50 "D2"
      0 49 "C#2"
      0 48 "C2"
      0 10 "---"
      0 9 "Range A2-C4"
      0 7 "G2-B3"
      0 5 "Range F2-A3"
      0 4 "E2-G3"
      0 2 "D2-F3"
      0 0 "Range C2-E3"
    >
    MAINSEND 1 0
    <FXCHAIN
      WNDRECT 0 42 723 462
      SHOW 0
      LASTSEL 0
      DOCKED 0
    >
    <ITEM
      POSITION 0.00000000000000
      SNAPOFFS 0.00000000000000
      LENGTH 222.64703105824603
      LOOP 0
      ALLTAKES 0
      SEL 0
      FADEIN 1 0.000000 0.000000 1 0
      FADEOUT 1 0.000000 0.000000 1 0
      MUTE 0
      IGUID {32F21093-D01D-49A8-ACA6-43368B22253F}
      IID 7
      NAME "PART KEYS_ANIM_LH"
      VOLPAN 1.000000 0.000000 1.000000 -1.000000
      SOFFS 0.00000000000000 0.00000000000000
      PLAYRATE 1.00000000000000 1 0.00000000000000 -1
      CHANMODE 0
      GUID {D1BDC315-5CBD-4BB5-8456-35523F02F44E}
      <SOURCE MIDI
        HASDATA 1 480 QN
        POOLEDEVTS {C92D2B6E-ED7C-4DC5-B15C-D530F2616E03}
        <X 0 0
          /wNQQVJUIEtFWVNfQU5JTV9MSA==
        >
        E 1920 91 30 60
        E 0 91 37 60
        E 120 81 30 00
        E 0 81 37 00
        E 360 91 30 60
        E 0 91 37 60
        E 120 81 30 00
        E 0 81 37 00
        E 360 91 30 60
        E 0 91 37 60
        E 120 81 30 00
        E 0 81 37 00
        E 360 91 30 60
        E 0 91 37 60
        E 120 81 30 00
        E 0 81 37 00
        E 360 91 31 60
        E 0 91 38 60
        E 120 81 31 00
        E 0 81 38 00
        E 360 91 31 60
        E 0 91 38 60
        E 120 81 31 00
        E 0 81 38 00
        E 360 91 31 60
        E 0 91 38 60
        E 120 81 31 00
        E 0 81 38 00
        E 360 91 31 60
        E 0 91 38 60
        E 120 81 31 00
        E 0 81 38 00
        E 360 91 39 60
        E 120 81 39 00
        E 360 91 39 60
        E 120 81 39 00
        E 360 91 39 60
        E 120 81 39 00
        E 360 91 39 60
        E 120 81 39 00
        E 360 91 3a 60
        E 120 81 3a 00
        E 360 91 3a 60
        E 120 81 3a 00
        E 360 91 3a 60
        E 120 81 3a 00
        E 360 91 3a 60
        E 120 81 3a 00
        E 360 91 30 60
        E 0 91 37 60
        E 120 81 30 00
        E 0 81 37 00
        E 360 91 30 60
        E 0 91 37 60
        E 120 81 30 00
        E 0 81 37 00
        E 360 91 30 60
        E 0 91 37 60
        E 120 81 30 00
        E 0 81 37 00
        E 360 91 30 60
        E 0 91 37 60
        E 120 81 30 00
        E 0 81 37 00
        E 360 91 31 60
        E 0 91 38 60
        E 120 81 31 00
        E 0 81 38 00
        E 360 91 31 60
        E 0 91 38 60
        E 120 81 31 00
        E 0 81 38 00
        E 360 91 31 60
        E 0 91 38 60
        E 120 81 31 00
        E 0 81 38 00
        E 360 91 31 60
        E 0 91 38 60
        E 120 81 31 00
        E 0 81 38 00
        E 360 91 39 60
        E 120 81 39 00
        E 360 91 39 60
        E 120 81 39 00
        E 360 91 39 60
        E 120 81 39 00
        E 360 91 39 60
        E 120 81 39 00
        E 360 91 3a 60
        E 120 81 3a 00
        E 360 91 3a 60
        E 120 81 3a 00
        E 360 91 3a 60
        E 120 81 3a 00
        E 360 91 3a 60
        E 120 81 3a 00
        E 360 91 30 60
        E 0 91 37 60
        E 120 81 30 00
        E 0 81 37 00
        E 360 91 30 60
        E 0 91 37 60
        E 120 81 30 00
        E 0 81 37 00
        E 360 91 30 60
        E 0 91 37 60
        E 120 81 30 00
        E 0 81 37 00
        E 360 91 30 60
        E 0 91 37 60
        E 120 81 30 00
        E 0 81 37 00
        E 360 91 31 60
        E 0 91 38 60
        E 120 81 31 00
        E 0 81 38 00
        E 360 91 31 60
        E 0 91 38 60
        E 120 81 31 00
        E 0 81 38 00
        E 360 91 31 60
        E 0 91 38 60
        E 120 81 31 00
        E 0 81 38 00
        E 360 91 31 60
        E 0 91 38 60
        E 120 81 31 00
        E 0 81 38 00
        E 360 91 39 60
        E 120 81 39 00
        E 360 91 39 60
        E 120 81 39 00
        E 360 91 39 60
        E 120 81 39 00
        E 360 91 39 60
        E 120 81 39 00
        E 360 91 3a 60
        E 120 81 3a 00
        E 360 91 3a 60
        E 120 81 3a 00
        E 360 91 3a 60
        E 120 81 3a 00
        E 360 91 3a 60
        E 120 81 3a 00
        E 360 91 30 60
        E 0 91 37 60
        E 120 81 30 00
        E 0 81 37 00
        E 360 91 30 60
        E 0 91 37 60
        E 120 81 30 00
        E 0 81 37 00
        E 360 91 30 60
        E 0 91 37 60
        E 120 81 30 00
        E 0 81 37 00
        E 360 91 30 60
        E 0 91 37 60
        E 120 81 30 00
        E 0 81 37 00
        E 360 91 31 60
        E 0 91 38 60
        E 120 81 31 00
        E 0 81 38 00
        E 360 91 31 60
        E 0 91 38 60
        E 120 81 31 00
        E 0 81 38 00
        E 360 91 31 60
        E 0 91 38 60
        E 120 81 31 00
        E 0 81 38 00
        E 360 91 31 60
        E 0 91 38 60
        E 120 81 31 00
        E 0 81 38 00
        E 360 91 39 60
        E 120 81 39 00
        E 360 91 39 60
        E 120 81 39 00
        E 360 91 39 60
        E 120 81 39 00
        E 360 91 39 60
        E 120 81 39 00
        E 360 91 38 60
        E 120 81 38 00
        E 360 91 38 60
        E 120 81 38 00
        E 360 91 38 60
        E 120 81 38 00
        E 360 91 38 60
        E 120 81 38 00
        E 360 91 35 60
        E 120 81 35 00
        E 360 91 35 60
        E 120 81 35 00
        E 360 91 35 60
        E 120 81 35 00
        E 360 91 35 60
        E 120 81 35 00
        E 360 91 34 60
        E 120 81 34 00
        E 120 90 35 60
        E 120 80 35 00
        E 120 91 34 60
        E 120 81 34 00
        E 360 91 34 60
        E 120 81 34 00
        E 360 91 34 60
        E 120 81 34 00
        E 360 91 38 60
        E 120 81 38 00
        E 360 91 38 60
        E 120 81 38 00
        E 360 91 38 60
        E 120 81 38 00
        E 360 91 38 60
        E 120 81 38 00
        E 360 90 3b 60
        E 0 91 37 60
        E 120 80 3b 00
        E 0 81 37 00
        E 360 90 3b 60
        E 0 91 37 60
        E 120 80 3b 00
        E 0 81 37 00
        E 360 90 3a 60
        E 0 91 36 60
        E 120 80 3a 00
        E 0 81 36 00
        E 360 90 3a 60
        E 0 91 36 60
        E 120 80 3a 00
        E 0 81 36 00
        E 360 91 35 60
        E 120 81 35 00
        E 120 90 35 60
        E 120 80 35 00
        E 120 91 35 60
        E 120 81 35 00
        E 360 91 35 60
        E 120 81 35 00
        E 360 91 35 60
        E 120 81 35 00
        E 360 91 34 60
        E 120 81 34 00
        E 120 90 35 60
        E 120 80 35 00
        E 120 91 34 60
        E 120 81 34 00
        E 360 91 34 60
        E 120 81 34 00
        E 120 90 37 60
        E 120 80 37 00
        E 120 90 38 60
        E 0 91 34 60
        E 120 80 38 00
        E 0 81 34 00
        E 360 91 38 60
        E 120 81 38 00
        E 360 90 35 60
        E 0 91 38 60
        E 120 80 35 00
        E 0 81 38 00
        E 120 90 34 60
        E 120 80 34 00
        E 120 91 38 60
        E 120 81 38 00
        E 360 91 38 60
        E 120 81 38 00
        E 360 90 3b 60
        E 0 91 37 60
        E 120 80 3b 00
        E 0 81 37 00
        E 360 90 3b 60
        E 0 91 37 60
        E 120 80 3b 00
        E 0 81 37 00
        E 360 90 3a 60
        E 0 91 36 60
        E 120 80 3a 00
        E 0 81 36 00
        E 360 90 3a 60
        E 0 91 36 60
        E 120 80 3a 00
        E 0 81 36 00
        E 360 91 30 60
        E 0 91 37 60
        E 120 81 30 00
        E 0 81 37 00
        E 360 91 30 60
        E 0 91 37 60
        E 120 81 30 00
        E 0 81 37 00
        E 360 91 30 60
        E 0 91 37 60
        E 120 81 30 00
        E 0 81 37 00
        E 360 91 30 60
        E 0 91 37 60
        E 120 81 30 00
        E 0 81 37 00
        E 360 91 31 60
        E 0 91 38 60
        E 120 81 31 00
        E 0 81 38 00
        E 360 91 31 60
        E 0 91 38 60
        E 120 81 31 00
        E 0 81 38 00
        E 360 91 31 60
        E 0 91 38 60
        E 120 81 31 00
        E 0 81 38 00
        E 360 91 31 60
        E 0 91 38 60
        E 120 81 31 00
        E 0 81 38 00
        E 360 91 39 60
        E 120 81 39 00
        E 360 91 39 60
        E 120 81 39 00
        E 360 91 39 60
        E 120 81 39 00
        E 360 91 39 60
        E 120 81 39 00
        E 360 91 3a 60
        E 120 81 3a 00
        E 360 91 3a 60
        E 120 81 3a 00
        E 360 91 3a 60
        E 120 81 3a 00
        E 360 91 3a 60
        E 120 81 3a 00
        E 360 91 30 60
        E 0 91 37 60
        E 120 81 30 00
        E 0 81 37 00
        E 360 91 30 60
        E 0 91 37 60
        E 120 81 30 00
        E 0 81 37 00
        E 360 91 30 60
        E 0 91 37 60
        E 120 81 30 00
        E 0 81 37 00
        E 360 91 30 60
        E 0 91 37 60
        E 120 81 30 00
        E 0 81 37 00
        E 360 91 31 60
        E 0 91 38 60
        E 120 81 31 00
        E 0 81 38 00
        E 360 91 31 60
        E 0 91 38 60
        E 120 81 31 00
        E 0 81 38 00
        E 360 91 31 60
        E 0 91 38 60
        E 120 81 31 00
        E 0 81 38 00
        E 360 91 31 60
        E 0 91 38 60
        E 120 81 31 00
        E 0 81 38 00
        E 360 91 39 60
        E 120 81 39 00
        E 360 91 39 60
        E 120 81 39 00
        E 360 91 39 60
        E 120 81 39 00
        E 360 91 39 60
        E 120 81 39 00
        E 360 91 3a 60
        E 120 81 3a 00
        E 360 91 3a 60
        E 120 81 3a 00
        E 360 91 3a 60
        E 120 81 3a 00
        E 360 91 3a 60
        E 120 81 3a 00
        E 360 91 30 60
        E 0 91 37 60
        E 120 81 30 00
        E 0 81 37 00
        E 360 91 30 60
        E 0 91 37 60
        E 120 81 30 00
        E 0 81 37 00
        E 360 91 30 60
        E 0 91 37 60
        E 120 81 30 00
        E 0 81 37 00
        E 360 91 30 60
        E 0 91 37 60
        E 120 81 30 00
        E 0 81 37 00
        E 360 91 31 60
        E 0 91 38 60
        E 120 81 31 00
        E 0 81 38 00
        E 360 91 31 60
        E 0 91 38 60
        E 120 81 31 00
        E 0 81 38 00
        E 360 91 31 60
        E 0 91 38 60
        E 120 81 31 00
        E 0 81 38 00
        E 360 91 31 60
        E 0 91 38 60
        E 120 81 31 00
        E 0 81 38 00
        E 360 91 39 60
        E 120 81 39 00
        E 360 91 39 60
        E 120 81 39 00
        E 360 91 39 60
        E 120 81 39 00
        E 360 91 39 60
        E 120 81 39 00
        E 360 91 3a 60
        E 120 81 3a 00
        E 360 91 3a 60
        E 120 81 3a 00
        E 360 91 3a 60
        E 120 81 3a 00
        E 360 91 3a 60
        E 120 81 3a 00
        E 360 91 30 60
        E 0 91 37 60
        E 120 81 30 00
        E 0 81 37 00
        E 360 91 30 60
        E 0 91 37 60
        E 120 81 30 00
        E 0 81 37 00
        E 360 91 30 60
        E 0 91 37 60
        E 120 81 30 00
        E 0 81 37 00
        E 360 91 30 60
        E 0 91 37 60
        E 120 81 30 00
        E 0 81 37 00
        E 360 91 31 60
        E 0 91 38 60
        E 120 81 31 00
        E 0 81 38 00
        E 360 91 31 60
        E 0 91 38 60
        E 120 81 31 00
        E 0 81 38 00
        E 360 91 31 60
        E 0 91 38 60
        E 120 81 31 00
        E 0 81 38 00
        E 360 91 31 60
        E 0 91 38 60
        E 120 81 31 00
        E 0 81 38 00
        E 360 91 39 60
        E 120 81 39 00
        E 360 91 39 60
        E 120 81 39 00
        E 360 91 39 60
        E 120 81 39 00
        E 360 91 39 60
        E 120 81 39 00
        E 360 91 38 60
        E 120 81 38 00
        E 360 91 38 60
        E 120 81 38 00
        E 360 91 38 60
        E 120 81 38 00
        E 360 91 38 60
        E 120 81 38 00
        E 360 91 35 60
        E 120 81 35 00
        E 360 91 35 60
        E 120 81 35 00
        E 360 91 35 60
        E 120 81 35 00
        E 360 91 35 60
        E 120 81 35 00
        E 360 91 34 60
        E 120 81 34 00
        E 120 90 35 60
        E 120 80 35 00
        E 120 91 34 60
        E 120 81 34 00
        E 360 91 34 60
        E 120 81 34 00
        E 360 91 34 60
        E 120 81 34 00
        E 360 91 38 60
        E 120 81 38 00
        E 360 91 38 60
        E 120 81 38 00
        E 360 91 38 60
        E 120 81 38 00
        E 360 91 38 60
        E 120 81 38 00
        E 360 90 3b 60
        E 0 91 37 60
        E 120 80 3b 00
        E 0 81 37 00
        E 360 90 3b 60
        E 0 91 37 60
        E 120 80 3b 00
        E 0 81 37 00
        E 360 90 3a 60
        E 0 91 36 60
        E 120 80 3a 00
        E 0 81 36 00
        E 360 90 3a 60
        E 0 91 36 60
        E 120 80 3a 00
        E 0 81 36 00
        E 360 91 35 60
        E 120 81 35 00
        E 120 90 35 60
        E 120 80 35 00
        E 120 91 35 60
        E 120 81 35 00
        E 360 91 35 60
        E 120 81 35 00
        E 120 90 37 60
        E 120 80 37 00
        E 120 90 38 60
        E 0 91 35 60
        E 120 80 38 00
        E 0 81 35 00
        E 120 90 37 60
        E 120 80 37 00
        E 120 91 34 60
        E 120 81 34 00
        E 120 90 35 60
        E 120 80 35 00
        E 120 91 34 60
        E 120 81 34 00
        E 360 91 34 60
        E 120 81 34 00
        E 120 90 37 60
        E 120 80 37 00
        E 120 90 38 60
        E 0 91 34 60
        E 120 80 38 00
        E 0 81 34 00
        E 360 91 38 60
        E 120 81 38 00
        E 360 90 35 60
        E 0 91 38 60
        E 120 80 35 00
        E 0 81 38 00
        E 120 90 34 60
        E 120 80 34 00
        E 120 91 38 60
        E 120 81 38 00
        E 120 90 37 60
        E 120 80 37 00
        E 120 91 38 60
        E 120 81 38 00
        E 360 90 3b 60
        E 0 91 37 60
        E 120 80 3b 00
        E 0 81 37 00
        E 360 90 3b 60
        E 0 91 37 60
        E 120 80 3b 00
        E 0 81 37 00
        E 360 90 3a 60
        E 0 91 36 60
        E 120 80 3a 00
        E 0 81 36 00
        E 360 90 3a 60
        E 0 91 36 60
        E 120 80 3a 00
        E 0 81 36 00
        E 4200 b0 7b 00
        GUID {13744F6F-14A6-4E08-91A0-AD81795A955B}
        IGNTEMPO 0 120.00000000 4 4
        SRCCOLOR 4
        VELLANE 132 123 128
        COLORMAP "C:\Program Files (x86)\REAPER\Data\color_maps\rockband_guitarbass.png"
        TEXTSTRINGFILE "C:\Program Files (x86)\REAPER\Data\Text_Strings\Text Events List - Pro Trainers.txt"
        CFGEDITVIEW -382.220749 0.102989 49 12 0 0 0
        CFGEDIT 1 1 0 1 1 0 1 1 1 1 1 0.25000000 -8 0 1370 744 0 0 0 2 0.00000000 0 1 0 0 0.500000 0 0 1.000000 64
        KEYSNAP 0 7 "102030050700" 0 "Pentatonic"
        EVTFILTER 0 -1 -1 -1 -1 0 1 0 0 -1.00000000 -1.00000000
      >
    >
  >
  <TRACK '{24450F5E-5515-4476-BC56-7A15125D88EA}'
    NAME ""
    PEAKCOL 16576
    BEAT -1
    AUTOMODE 0
    VOLPAN 1.00000000000000 0.00000000000000 -1.00000000000000 -1.00000000000000 1.00000000000000
    MUTESOLO 0 0 0
    IPHASE 0
    ISBUS 2 -1
    BUSCOMP 0 0
    SHOWINMIX 1 0.666700 0.500000 1 0.500000 -1 -1 -1
    FREEMODE 0
    SEL 0
    REC 0 0 0 0 0 0 0
    VU 2
    TRACKHEIGHT 0 0
    INQ 0 0 0 0.5000000000 100 0 0 100
    NCHAN 2
    FX 1
    TRACKID {24450F5E-5515-4476-BC56-7A15125D88EA}
    PERF 0
    MIDIOUT -1
    MAINSEND 1 0
    <ITEM
      POSITION 0.00000000000000
      SNAPOFFS 0.00000000000000
      LENGTH 222.64702947845805
      LOOP 0
      ALLTAKES 0
      SEL 0
      FADEIN 1 0.000000 0.000000 1 0
      FADEOUT 1 0.000000 0.000000 1 0
      MUTE 0
      IGUID {56623806-610B-43EE-B9B6-890FE64734A9}
      IID 50
      NAME "keys.wav"
      VOLPAN 1.000000 0.000000 1.000000 -1.000000
      SOFFS 0.00000000000000
      PLAYRATE 1.00000000000000 1 0.00000000000000 -1
      CHANMODE 0
      GUID {3EF97216-60A0-4D03-BF72-3AD36E379660}
      <SOURCE WAVE
        FILE "wav\keys.wav"
      >
    >
  >
  <TRACK '{6B58E9BF-099B-475C-ACF5-FD675232CA3A}'
    NAME "EVENTS"
    PEAKCOL 16576
    BEAT -1
    AUTOMODE 0
    VOLPAN 1.00000000000000 0.00000000000000 -1.00000000000000 -1.00000000000000 1.00000000000000
    MUTESOLO 0 0 0
    IPHASE 0
    ISBUS 0 0
    BUSCOMP 0 0
    SHOWINMIX 1 0.666700 0.500000 1 0.500000 -1 -1 -1
    FREEMODE 0
    SEL 0
    REC 0 0 0 0 0 0 0
    VU 2
    TRACKHEIGHT 0 0
    INQ 0 0 0 0.5000000000 100 0 0 100
    NCHAN 2
    FX 1
    TRACKID {6B58E9BF-099B-475C-ACF5-FD675232CA3A}
    PERF 0
    MIDIOUT -1
    <MIDINOTENAMES
      0 26 "Hi-Hat"
      0 25 "Snare"
      0 24 "Kick"
    >
    MAINSEND 1 0
    <FXCHAIN
      SHOW 0
      LASTSEL 0
      DOCKED 0
    >
    <ITEM
      POSITION 0.00000000000000
      SNAPOFFS 0.00000000000000
      LENGTH 222.64703105824603
      LOOP 0
      ALLTAKES 0
      SEL 0
      FADEIN 1 0.000000 0.000000 1 0
      FADEOUT 1 0.000000 0.000000 1 0
      MUTE 0
      IGUID {56A5F7BE-A6FF-4030-A9D1-5CA01EDD7DB4}
      IID 8
      NAME "EVENTS"
      VOLPAN 1.000000 0.000000 1.000000 -1.000000
      SOFFS 0.00000000000000 0.00000000000000
      PLAYRATE 1.00000000000000 1 0.00000000000000 -1
      CHANMODE 0
      GUID {868E2252-4F2F-4DD3-93E4-4D87E7A18AE9}
      <SOURCE MIDI
        HASDATA 1 480 QN
        POOLEDEVTS {4455FC03-C0DC-4721-9193-C505D1C4C8AA}
        <X 0 0
          /wNFVkVOVFM=
        >
        E 0 90 1a 60
        E 120 80 1a 00
        E 360 90 1a 60
        E 120 80 1a 00
        E 360 90 1a 60
        E 120 80 1a 00
        E 120 90 1a 60
        E 120 80 1a 00
        E 120 90 1a 60
        E 120 80 1a 00
        E 120 90 1a 60
        E 120 80 1a 00
        <X 120 0
          /wFbcHJjX3ZlcnNlXzFhXQ==
        >
        <X 0 0
          /wFbY3Jvd2RfbWVsbG93XQ==
        >
        <X 0 0
          /wFbY3Jvd2Rfbm9jbGFwXQ==
        >
        E 0 90 1a 60
        E 120 80 1a 00
        <X 360 0
          /wFbbXVzaWNfc3RhcnRd
        >
        E 0 90 1a 60
        E 120 80 1a 00
        E 360 90 1a 60
        E 120 80 1a 00
        E 360 90 1a 60
        E 120 80 1a 00
        E 360 90 1a 60
        E 120 80 1a 00
        E 360 90 1a 60
        E 120 80 1a 00
        E 360 90 1a 60
        E 120 80 1a 00
        E 360 90 1a 60
        E 120 80 1a 00
        E 360 90 1a 60
        E 120 80 1a 00
        E 360 90 1a 60
        E 120 80 1a 00
        E 360 90 1a 60
        E 120 80 1a 00
        E 360 90 1a 60
        E 120 80 1a 00
        E 360 90 1a 60
        E 120 80 1a 00
        E 360 90 1a 60
        E 120 80 1a 00
        E 360 90 1a 60
        E 120 80 1a 00
        E 360 90 1a 60
        E 120 80 1a 00
        E 360 90 1a 60
        E 120 80 1a 00
        E 360 90 1a 60
        E 120 80 1a 00
        E 360 90 1a 60
        E 120 80 1a 00
        E 360 90 1a 60
        E 120 80 1a 00
        E 360 90 1a 60
        E 120 80 1a 00
        E 360 90 1a 60
        E 120 80 1a 00
        E 360 90 1a 60
        E 120 80 1a 00
        E 360 90 1a 60
        E 120 80 1a 00
        E 360 90 1a 60
        E 120 80 1a 00
        E 360 90 1a 60
        E 120 80 1a 00
        E 360 90 1a 60
        E 120 80 1a 00
        E 360 90 1a 60
        E 120 80 1a 00
        E 360 90 1a 60
        E 120 80 1a 00
        E 360 90 1a 60
        E 120 80 1a 00
        E 360 90 1a 60
        E 120 80 1a 00
        E 360 90 1a 60
        E 120 80 1a 00
        <X 360 0
          /wFbcHJjX3ZlcnNlXzFiXQ==
        >
        E 0 90 1a 60
        E 120 80 1a 00
        E 360 90 1a 60
        E 120 80 1a 00
        E 360 90 1a 60
        E 120 80 1a 00
        E 360 90 1a 60
        E 120 80 1a 00
        E 360 90 1a 60
        E 120 80 1a 00
        E 360 90 1a 60
        E 120 80 1a 00
        E 360 90 1a 60
        E 120 80 1a 00
        E 360 90 1a 60
        E 120 80 1a 00
        E 360 90 1a 60
        E 120 80 1a 00
        E 360 90 1a 60
        E 120 80 1a 00
        E 360 90 1a 60
        E 120 80 1a 00
        E 360 90 1a 60
        E 120 80 1a 00
        E 360 90 1a 60
        E 120 80 1a 00
        E 360 90 1a 60
        E 120 80 1a 00
        E 360 90 1a 60
        E 120 80 1a 00
        E 360 90 1a 60
        E 120 80 1a 00
        E 360 90 1a 60
        E 120 80 1a 00
        E 360 90 1a 60
        E 120 80 1a 00
        E 360 90 1a 60
        E 120 80 1a 00
        E 360 90 1a 60
        E 120 80 1a 00
        E 360 90 1a 60
        E 120 80 1a 00
        E 360 90 1a 60
        E 120 80 1a 00
        E 360 90 1a 60
        E 120 80 1a 00
        E 360 90 1a 60
        E 120 80 1a 00
        E 360 90 1a 60
        E 120 80 1a 00
        E 360 90 1a 60
        E 120 80 1a 00
        E 360 90 1a 60
        E 120 80 1a 00
        E 360 90 1a 60
        E 120 80 1a 00
        E 360 90 1a 60
        E 120 80 1a 00
        E 360 90 1a 60
        E 120 80 1a 00
        E 360 90 1a 60
        E 120 80 1a 00
        E 360 90 1a 60
        E 120 80 1a 00
        <X 360 0
          /wFbcHJjX2Nob3J1c18xXQ==
        >
        E 0 90 1a 60
        E 120 80 1a 00
        E 360 90 1a 60
        E 120 80 1a 00
        E 360 90 1a 60
        E 120 80 1a 00
        E 360 90 1a 60
        E 120 80 1a 00
        E 360 90 1a 60
        E 120 80 1a 00
        E 360 90 1a 60
        E 120 80 1a 00
        E 360 90 1a 60
        E 120 80 1a 00
        E 360 90 1a 60
        E 120 80 1a 00
        E 360 90 1a 60
        E 120 80 1a 00
        E 360 90 1a 60
        E 120 80 1a 00
        E 360 90 1a 60
        E 120 80 1a 00
        E 360 90 1a 60
        E 120 80 1a 00
        E 360 90 1a 60
        E 120 80 1a 00
        E 360 90 1a 60
        E 120 80 1a 00
        E 360 90 1a 60
        E 120 80 1a 00
        E 360 90 1a 60
        E 120 80 1a 00
        E 360 90 1a 60
        E 120 80 1a 00
        E 360 90 1a 60
        E 120 80 1a 00
        E 360 90 1a 60
        E 120 80 1a 00
        E 360 90 1a 60
        E 120 80 1a 00
        E 360 90 1a 60
        E 120 80 1a 00
        E 360 90 1a 60
        E 120 80 1a 00
        E 360 90 1a 60
        E 120 80 1a 00
        E 360 90 1a 60
        E 120 80 1a 00
        E 360 90 1a 60
        E 120 80 1a 00
        E 360 90 1a 60
        E 120 80 1a 00
        E 360 90 1a 60
        E 120 80 1a 00
        E 360 90 1a 60
        E 120 80 1a 00
        E 360 90 1a 60
        E 120 80 1a 00
        E 360 90 1a 60
        E 120 80 1a 00
        E 360 90 1a 60
        E 120 80 1a 00
        E 360 90 1a 60
        E 120 80 1a 00
        <X 360 0
          /wFbcHJjX3ZlcnNlXzJhXQ==
        >
        E 0 90 1a 60
        E 120 80 1a 00
        E 360 90 1a 60
        E 120 80 1a 00
        E 360 90 1a 60
        E 120 80 1a 00
        E 360 90 1a 60
        E 120 80 1a 00
        E 360 90 1a 60
        E 120 80 1a 00
        E 360 90 1a 60
        E 120 80 1a 00
        E 360 90 1a 60
        E 120 80 1a 00
        E 360 90 1a 60
        E 120 80 1a 00
        E 360 90 1a 60
        E 120 80 1a 00
        E 360 90 1a 60
        E 120 80 1a 00
        E 360 90 1a 60
        E 120 80 1a 00
        E 360 90 1a 60
        E 120 80 1a 00
        E 360 90 1a 60
        E 120 80 1a 00
        E 360 90 1a 60
        E 120 80 1a 00
        E 360 90 1a 60
        E 120 80 1a 00
        E 360 90 1a 60
        E 120 80 1a 00
        E 360 90 1a 60
        E 120 80 1a 00
        E 360 90 1a 60
        E 120 80 1a 00
        E 360 90 1a 60
        E 120 80 1a 00
        E 360 90 1a 60
        E 120 80 1a 00
        E 360 90 1a 60
        E 120 80 1a 00
        E 360 90 1a 60
        E 120 80 1a 00
        E 360 90 1a 60
        E 120 80 1a 00
        E 360 90 1a 60
        E 120 80 1a 00
        E 360 90 1a 60
        E 120 80 1a 00
        E 360 90 1a 60
        E 120 80 1a 00
        E 360 90 1a 60
        E 120 80 1a 00
        E 360 90 1a 60
        E 120 80 1a 00
        E 360 90 1a 60
        E 120 80 1a 00
        E 360 90 1a 60
        E 120 80 1a 00
        E 360 90 1a 60
        E 120 80 1a 00
        E 360 90 1a 60
        E 120 80 1a 00
        <X 360 0
          /wFbcHJjX3ZlcnNlXzJiXQ==
        >
        E 0 90 1a 60
        E 120 80 1a 00
        E 360 90 1a 60
        E 120 80 1a 00
        E 360 90 1a 60
        E 120 80 1a 00
        E 360 90 1a 60
        E 120 80 1a 00
        E 360 90 1a 60
        E 120 80 1a 00
        E 360 90 1a 60
        E 120 80 1a 00
        E 360 90 1a 60
        E 120 80 1a 00
        E 360 90 1a 60
        E 120 80 1a 00
        E 360 90 1a 60
        E 120 80 1a 00
        E 360 90 1a 60
        E 120 80 1a 00
        E 360 90 1a 60
        E 120 80 1a 00
        E 360 90 1a 60
        E 120 80 1a 00
        E 360 90 1a 60
        E 120 80 1a 00
        E 360 90 1a 60
        E 120 80 1a 00
        E 360 90 1a 60
        E 120 80 1a 00
        E 360 90 1a 60
        E 120 80 1a 00
        E 360 90 1a 60
        E 120 80 1a 00
        E 360 90 1a 60
        E 120 80 1a 00
        E 360 90 1a 60
        E 120 80 1a 00
        E 360 90 1a 60
        E 120 80 1a 00
        E 360 90 1a 60
        E 120 80 1a 00
        E 360 90 1a 60
        E 120 80 1a 00
        E 360 90 1a 60
        E 120 80 1a 00
        E 360 90 1a 60
        E 120 80 1a 00
        E 360 90 1a 60
        E 120 80 1a 00
        E 360 90 1a 60
        E 120 80 1a 00
        E 360 90 1a 60
        E 120 80 1a 00
        E 360 90 1a 60
        E 120 80 1a 00
        E 360 90 1a 60
        E 120 80 1a 00
        E 360 90 1a 60
        E 120 80 1a 00
        E 360 90 1a 60
        E 120 80 1a 00
        E 360 90 1a 60
        E 120 80 1a 00
        <X 360 0
          /wFbcHJjX291dHJvX2Nob3J1c10=
        >
        E 0 90 1a 60
        E 120 80 1a 00
        E 360 90 1a 60
        E 120 80 1a 00
        E 360 90 1a 60
        E 120 80 1a 00
        E 360 90 1a 60
        E 120 80 1a 00
        E 360 90 1a 60
        E 120 80 1a 00
        E 360 90 1a 60
        E 120 80 1a 00
        E 360 90 1a 60
        E 120 80 1a 00
        E 360 90 1a 60
        E 120 80 1a 00
        E 360 90 1a 60
        E 120 80 1a 00
        E 360 90 1a 60
        E 120 80 1a 00
        E 360 90 1a 60
        E 120 80 1a 00
        E 360 90 1a 60
        E 120 80 1a 00
        E 360 90 1a 60
        E 120 80 1a 00
        E 360 90 1a 60
        E 120 80 1a 00
        E 360 90 1a 60
        E 120 80 1a 00
        E 360 90 1a 60
        E 120 80 1a 00
        E 360 90 1a 60
        E 120 80 1a 00
        E 360 90 1a 60
        E 120 80 1a 00
        E 360 90 1a 60
        E 120 80 1a 00
        E 360 90 1a 60
        E 120 80 1a 00
        E 360 90 1a 60
        E 120 80 1a 00
        E 360 90 1a 60
        E 120 80 1a 00
        E 360 90 1a 60
        E 120 80 1a 00
        E 360 90 1a 60
        E 120 80 1a 00
        E 360 90 1a 60
        E 120 80 1a 00
        E 360 90 1a 60
        E 120 80 1a 00
        E 360 90 1a 60
        E 120 80 1a 00
        E 360 90 1a 60
        E 120 80 1a 00
        E 360 90 1a 60
        E 120 80 1a 00
        E 360 90 1a 60
        E 120 80 1a 00
        E 360 90 1a 60
        E 120 80 1a 00
        E 360 90 1a 60
        E 120 80 1a 00
        <X 840 0
          /wFbY3Jvd2RfcmVhbHRpbWVd
        >
        <X 0 0
          /wFbbXVzaWNfZW5kXQ==
        >
        <X 3355 0
          /wFbZW5kXQ==
        >
        E 5 b0 7b 00
        GUID {DA11367D-120B-42DE-A51E-08C773C99901}
        IGNTEMPO 0 120.00000000 4 4
        SRCCOLOR 5
        VELLANE 132 123 128
        COLORMAP "C:\Program Files (x86)\REAPER\Data\color_maps\rockband_guitarbass.png"
        TEXTSTRINGFILE "C:\Program Files\REAPER (x64)\Data\Text_Strings\Text Events List - Events.txt"
        CFGEDITVIEW 86479.329444 0.083395 77 12 0 0 0
        CFGEDIT 1 1 0 1 1 0 1 1 1 1 1 0.25000000 -8 0 1370 744 0 0 0 2 0.00000000 0 1 0 0 0.500000 0 0 1.000000 64
        KEYSNAP 0 7 "102030050700" 0 "Pentatonic"
        EVTFILTER 0 -1 -1 -1 -1 0 1 0 0 -1.00000000 -1.00000000
      >
    >
  >
  <TRACK '{A5579FC3-806F-4566-929F-8DA8CA70DA03}'
    NAME "VENUE"
    PEAKCOL 16576
    BEAT -1
    AUTOMODE 0
    VOLPAN 1.00000000000000 0.00000000000000 -1.00000000000000 -1.00000000000000 1.00000000000000
    MUTESOLO 0 0 0
    IPHASE 0
    ISBUS 1 1
    BUSCOMP 1 0
    SHOWINMIX 1 0.666700 0.500000 1 0.500000 -1 -1 -1
    FREEMODE 0
    SEL 1
    REC 0 0 0 0 0 0 0
    VU 2
    TRACKHEIGHT 0 0
    INQ 0 0 0 0.5000000000 100 0 0 100
    NCHAN 2
    FX 1
    TRACKID {A5579FC3-806F-4566-929F-8DA8CA70DA03}
    PERF 0
    MIDIOUT -1
    <MIDINOTENAMES
      0 87 "Guitarist Sing Along"
      0 86 "Drummer Sing Along"
      0 85 "Bassist Sing Along"
      0 84 "----"
      0 41 "Spotlight on Keys"
      0 40 "Spotlight on Vocals"
      0 39 "Spotlight on Guitar"
      0 38 "Spotlight on Drums"
      0 37 "Spotlight on Bass"
    >
    MAINSEND 1 0
    <FXCHAIN
      SHOW 0
      LASTSEL 0
      DOCKED 0
    >
    <ITEM
      POSITION 0.00000000000000
      SNAPOFFS 0.00000000000000
      LENGTH 222.64703105824603
      LOOP 0
      ALLTAKES 0
      SEL 0
      FADEIN 1 0.000000 0.000000 1 0
      FADEOUT 1 0.000000 0.000000 1 0
      MUTE 0
      IGUID {4BA0075C-C5F6-40A0-9AB4-B12702DEE3E0}
      IID 47
      NAME "VENUE"
      VOLPAN 1.000000 0.000000 1.000000 -1.000000
      SOFFS 0.00000000000000 0.00000000000000
      PLAYRATE 1.00000000000000 1 0.00000000000000 -1
      CHANMODE 0
      GUID {C1D1F1AC-C953-4E3B-A09B-9446151A5933}
      <SOURCE MIDI
        HASDATA 1 480 QN
        POOLEDEVTS {3DDBBF62-782F-4B31-A047-FF974F79CF32}
        <X 0 0
          /wNWRU5VRQ==
        >
        <X 0 0
          /wFbY29vcF9hbGxfZmFyXQ==
        >
        <X 0 0
          /wFbbGlnaHRpbmcgKHNpbGhvdWV0dGVzKV0=
        >
        <X 0 0
          /wFbY29udHJhc3RfYS5wcF0=
        >
        E 2400 90 28 60
        E 0 90 29 60
        <X 480 0
          /wFbY29vcF92X25lYXJd
        >
        <X 3840 0
          /wFbY29vcF9rX25lYXJd
        >
        E 0 80 28 00
        <X 960 0
          /wFbY29vcF9rX2JlaGluZF0=
        >
        <X 1920 0
          /wFbY29vcF9hbGxfZmFyXQ==
        >
        E 480 90 28 60
        <X 1440 0
          /wFbY29vcF9hbGxfZmFyXQ==
        >
        <X 1680 0
          /wFbY29vcF92X25lYXJd
        >
        <X 1200 0
          /wFbY29vcF9rX2Nsb3NldXBfaGFuZF0=
        >
        E 480 80 28 00
        E 2880 90 28 60
        <X 480 0
          /wFbY29vcF92X25lYXJd
        >
        <X 2640 0
          /wFbY29vcF92X25lYXJd
        >
        <X 1200 0
          /wFbY29vcF9rX2Nsb3NldXBfaGFuZF0=
        >
        E 0 80 28 00
        <X 2880 0
          /wFbY29vcF9mcm9udF9uZWFyXQ==
        >
        E 480 90 28 60
        <X 3120 0
          /wFbY29vcF92X2JlaGluZF0=
        >
        <X 1920 0
          /wFbY29vcF92X25lYXJd
        >
        <X 720 0
          /wFbY29vcF9rX2Nsb3NldXBfaGFuZF0=
        >
        E 480 80 28 00
        <X 960 0
          /wFbY29vcF9mcm9udF9uZWFyXQ==
        >
        E 480 90 28 60
        <X 480 0
          /wFbY29vcF92X25lYXJd
        >
        <X 2880 0
          /wFbY29vcF9rX2JlaGluZF0=
        >
        <X 960 0
          /wFbY29vcF92X25lYXJd
        >
        <X 960 0
          /wFbY29vcF92X25lYXJd
        >
        <X 1920 0
          /wFbY29vcF9rX2JlaGluZF0=
        >
        <X 1920 0
          /wFbY29vcF9hbGxfZmFyXQ==
        >
        <X 1920 0
          /wFbY29vcF9hbGxfYmVoaW5kXQ==
        >
        <X 960 0
          /wFbY29vcF92X25lYXJd
        >
        <X 960 0
          /wFbY29vcF92X25lYXJd
        >
        <X 1920 0
          /wFbY29vcF9hbGxfYmVoaW5kXQ==
        >
        E 0 80 28 00
        E 720 90 28 60
        <X 3120 0
          /wFbY29vcF92X2Nsb3NldXBd
        >
        E 960 80 28 00
        <X 960 0
          /wFbY29vcF9rX2JlaGluZF0=
        >
        <X 960 0
          /wFbY29vcF9rX2Nsb3NldXBfaGFuZF0=
        >
        <X 960 0
          /wFbY29vcF9rX2Nsb3NldXBfaGVhZF0=
        >
        E 480 90 28 60
        <X 1440 0
          /wFbY29vcF9hbGxfYmVoaW5kXQ==
        >
        <X 1680 0
          /wFbY29vcF92X2Nsb3NldXBd
        >
        E 1200 80 28 00
        <X 960 0
          /wFbY29vcF9rX2Nsb3NldXBfaGVhZF0=
        >
        <X 1440 0
          /wFbY29vcF9rX2Nsb3NldXBfaGFuZF0=
        >
        E 240 90 28 60
        <X 240 0
          /wFbY29vcF9mcm9udF9iZWhpbmRd
        >
        <X 1920 0
          /wFbY29vcF9rX2Nsb3NldXBfaGVhZF0=
        >
        <X 1680 0
          /wFbY29vcF92X2Nsb3NldXBd
        >
        E 1200 80 28 00
        <X 960 0
          /wFbY29vcF9rX2Nsb3NldXBfaGVhZF0=
        >
        <X 1680 0
          /wFbY29vcF9rX2Nsb3NldXBfaGFuZF0=
        >
        <X 240 0
          /wFbY29vcF9hbGxfZmFyXQ==
        >
        E 480 90 28 60
        <X 240 0
          /wFbY29vcF92X25lYXJd
        >
        <X 6000 0
          /wFbY29vcF9rX2Nsb3NldXBfaGFuZF0=
        >
        <X 960 0
          /wFbY29vcF92X25lYXJd
        >
        <X 3840 0
          /wFbY29vcF92X25lYXJd
        >
        <X 1920 0
          /wFbY29vcF92X25lYXJd
        >
        <X 1920 0
          /wFbY29vcF9rX2Nsb3NldXBfaGFuZF0=
        >
        <X 1920 0
          /wFbY29vcF9rX2Nsb3NldXBfaGFuZF0=
        >
        <X 1920 0
          /wFbY29vcF9hbGxfZmFyXQ==
        >
        <X 1920 0
          /wFbY29vcF92X25lYXJd
        >
        <X 480 0
          /wFbY29vcF92X25lYXJd
        >
        <X 480 0
          /wFbY29vcF92X25lYXJd
        >
        <X 480 0
          /wFbY29vcF92X25lYXJd
        >
        E 240 80 29 00
        E 0 80 28 00
        <X 240 0
          /wFbY29vcF9hbGxfYmVoaW5kXQ==
        >
        E 97920 b0 7b 00
        GUID {47C70A40-EBED-48BA-A038-186C59991368}
        IGNTEMPO 0 120.00000000 4 4
        SRCCOLOR 24
        VELLANE 132 123 128
        COLORMAP "C:\Program Files\REAPER (x64)\Data\color_maps\rockband_guitarbass.png"
        CFGEDITVIEW 83041.060089 0.083398 0 48 0 0 0
        CFGEDIT 1 1 0 1 1 0 1 1 1 1 1 0.25000000 -8 0 1370 744 0 2 0 1 0.00000000 0 1 0 0 0.500000 0 0 1.000000 64
        KEYSNAP 0 0 "102034050607" 0 "Major"
        EVTFILTER 0 -1 -1 -1 -1 0 1 0 0 -1.00000000 -1.00000000
      >
    >
  >
  <TRACK '{3C30877F-7840-47A7-A768-29EF748E5D19}'
    NAME "CAMERA"
    PEAKCOL 16576
    BEAT -1
    AUTOMODE 0
    VOLPAN 1.00000000000000 0.00000000000000 -1.00000000000000 -1.00000000000000 1.00000000000000
    MUTESOLO 1 0 0
    IPHASE 0
    ISBUS 0 0
    BUSCOMP 0 0
    SHOWINMIX 1 0.666700 0.500000 1 0.500000 -1 -1 -1
    FREEMODE 0
    SEL 0
    REC 0 0 0 0 0 0 0
    VU 2
    TRACKHEIGHT 0 1
    INQ 0 0 0 0.5000000000 100 0 0 100
    NCHAN 2
    FX 1
    TRACKID {3C30877F-7840-47A7-A768-29EF748E5D19}
    PERF 0
    MIDIOUT -1
    <MIDINOTENAMES
      0 102 "RANDOM"
      0 100 "All_Behind"
      0 99 "All_Far"
      0 98 "All_Near"
      0 96 "Front_Behind"
      0 95 "Front_Near"
      0 93 "D_Behind"
      0 92 "D_Near"
      0 91 "V_Behind"
      0 90 "V_Near"
      0 89 "B_Behind"
      0 88 "B_Near"
      0 87 "G_Behind"
      0 86 "G_Near"
      0 85 "K_Behind"
      0 84 "K_Near"
      0 82 "D_Hand"
      0 81 "D_Head"
      0 80 "V_Closeup"
      0 79 "B_Hand"
      0 78 "B_Head"
      0 77 "G_Hand"
      0 76 "G_Head"
      0 75 "K_Hand"
      0 74 "K_Head"
      0 72 "DV_Near"
      0 71 "BD_Near"
      0 70 "DG_Near"
      0 69 "BV_Behind"
      0 68 "BV_Near"
      0 67 "GV_Behind"
      0 66 "GV_Near"
      0 65 "KV_Behind"
      0 64 "KV_Near"
      0 63 "BG_Behind"
      0 62 "BG_Near"
      0 61 "BK_Behind"
      0 60 "BK_Near"
      0 59 "GK_Behind"
      0 58 "GK_Near"
      0 56 "D_All"
      0 55 "D_All_Cam"
      0 54 "D_All_LT*"
      0 53 "D_All_Yeah"
      0 52 "D_BRE"
      0 51 "D_BRE_Jump"
      0 49 "D_Drums_NP"
      0 48 "D_Bass_NP"
      0 47 "D_Gtr_NP"
      0 46 "D_Vox_NP"
      0 45 "D_Keys_NP"
      0 43 "D_Drums"
      0 42 "D_Drums_LT*"
      0 41 "D_Vocals"
      0 40 "D_Bass"
      0 39 "D_Gtr"
      0 38 "D_Keys"
      0 36 "D_Vox_Cam_PR"
      0 35 "D_Vox_Cam_PT"
      0 34 "D_Gtr_Cam_PR"
      0 33 "D_Gtr_Cam_PT"
      0 32 "D_Keys_Cam"
      0 31 "D_Bass_Cam"
      0 29 "D_Stagedive"
      0 28 "D_Crowdsurf"
      0 26 "D_Vox_CLS"
      0 25 "D_Bass_CLS*"
      0 24 "D_Gtr_CLS*"
      0 23 "D_Drums_KD*"
      0 21 "D_Drums_Point"
      0 20 "D_Crowd_Gtr"
      0 19 "D_Crowd_Bass"
      0 17 "D_Duo_Drums"
      0 16 "D_Duo_Gtr"
      0 15 "D_Duo_Bass"
      0 14 "D_Duo_KV"
      0 13 "D_Duo_GB"
      0 12 "D_Duo_KB"
      0 11 "D_Duo_KG"
      0 10 "D_Crowd*"
    >
    MAINSEND 1 0
    <FXCHAIN
      SHOW 0
      LASTSEL 0
      DOCKED 0
    >
    <ITEM
      POSITION 0.00000000000000
      SNAPOFFS 0.00000000000000
      LENGTH 222.64703105824603
      LOOP 0
      ALLTAKES 0
      SEL 0
      FADEIN 1 0.000000 0.000000 1 0
      FADEOUT 1 0.000000 0.000000 1 0
      MUTE 0
      IGUID {CAC914C0-D702-4BD7-B6B4-371C72BC15F9}
      IID 44
      NAME "CAMERA untitled MIDI item"
      VOLPAN 1.000000 0.000000 1.000000 -1.000000
      SOFFS 0.00000000000000 0.00000000000000
      PLAYRATE 1.00000000000000 1 0.00000000000000 -1
      CHANMODE 0
      GUID {3DDA4B29-AF33-4324-83E7-F8FA65D92B56}
      <SOURCE MIDI
        HASDATA 1 480 QN
        POOLEDEVTS {8CA4C0C5-8216-43EE-BB2C-4FA68ED8E5AE}
        <X 0 0
          /wFbY29vcF9hbGxfZmFyXQ==
        >
        E 0 90 63 60
        <X 2880 0
          /wFbY29vcF92X25lYXJd
        >
        E 0 80 63 00
        E 0 90 5a 60
        <X 3840 0
          /wFbY29vcF9rX25lYXJd
        >
        E 0 80 5a 00
        E 0 90 54 60
        <X 960 0
          /wFbY29vcF9rX2JlaGluZF0=
        >
        E 0 80 54 00
        E 0 90 55 60
        <X 1920 0
          /wFbY29vcF9hbGxfZmFyXQ==
        >
        E 0 80 55 00
        E 0 90 63 60
        <X 1920 0
          /wFbY29vcF9hbGxfZmFyXQ==
        >
        E 0 80 63 00
        E 0 90 63 60
        <X 1680 0
          /wFbY29vcF92X25lYXJd
        >
        E 0 80 63 00
        E 0 90 5a 60
        <X 1200 0
          /wFbY29vcF9rX2Nsb3NldXBfaGFuZF0=
        >
        E 0 80 5a 00
        E 0 90 4b 60
        <X 3840 0
          /wFbY29vcF92X25lYXJd
        >
        E 0 80 4b 00
        E 0 90 5a 60
        <X 2640 0
          /wFbY29vcF92X25lYXJd
        >
        E 0 80 5a 00
        E 0 90 5a 60
        <X 1200 0
          /wFbY29vcF9rX2Nsb3NldXBfaGFuZF0=
        >
        E 0 80 5a 00
        E 0 90 4b 60
        <X 2880 0
          /wFbY29vcF9mcm9udF9uZWFyXQ==
        >
        E 0 80 4b 00
        E 0 90 5f 60
        <X 3600 0
          /wFbY29vcF92X2JlaGluZF0=
        >
        E 0 80 5f 00
        E 0 90 5b 60
        <X 1920 0
          /wFbY29vcF92X25lYXJd
        >
        E 0 80 5b 00
        E 0 90 5a 60
        <X 720 0
          /wFbY29vcF9rX2Nsb3NldXBfaGFuZF0=
        >
        E 0 80 5a 00
        E 0 90 4b 60
        <X 1440 0
          /wFbY29vcF9mcm9udF9uZWFyXQ==
        >
        E 0 80 4b 00
        E 0 90 5f 60
        <X 960 0
          /wFbY29vcF92X25lYXJd
        >
        E 0 80 5f 00
        E 0 90 5a 60
        <X 2880 0
          /wFbY29vcF9rX2JlaGluZF0=
        >
        E 0 80 5a 00
        E 0 90 55 60
        <X 960 0
          /wFbY29vcF92X25lYXJd
        >
        E 0 80 55 00
        E 0 90 5a 60
        <X 960 0
          /wFbY29vcF92X25lYXJd
        >
        E 0 80 5a 00
        E 0 90 5a 60
        <X 1920 0
          /wFbY29vcF9rX2JlaGluZF0=
        >
        E 0 80 5a 00
        E 0 90 55 60
        <X 1920 0
          /wFbY29vcF9hbGxfZmFyXQ==
        >
        E 0 80 55 00
        E 0 90 63 60
        <X 1920 0
          /wFbY29vcF9hbGxfYmVoaW5kXQ==
        >
        E 0 80 63 00
        E 0 90 64 60
        <X 960 0
          /wFbY29vcF92X25lYXJd
        >
        E 0 80 64 00
        E 0 90 5a 60
        <X 960 0
          /wFbY29vcF92X25lYXJd
        >
        E 0 80 5a 00
        E 0 90 5a 60
        <X 1920 0
          /wFbY29vcF9hbGxfYmVoaW5kXQ==
        >
        E 0 80 5a 00
        E 0 90 64 60
        <X 3840 0
          /wFbY29vcF92X2Nsb3NldXBd
        >
        E 0 80 64 00
        E 0 90 50 60
        <X 1920 0
          /wFbY29vcF9rX2JlaGluZF0=
        >
        E 0 80 50 00
        E 0 90 55 60
        <X 960 0
          /wFbY29vcF9rX2Nsb3NldXBfaGFuZF0=
        >
        E 0 80 55 00
        E 0 90 4b 60
        <X 960 0
          /wFbY29vcF9rX2Nsb3NldXBfaGVhZF0=
        >
        E 0 80 4b 00
        E 0 90 4a 60
        <X 1920 0
          /wFbY29vcF9hbGxfYmVoaW5kXQ==
        >
        E 0 80 4a 00
        E 0 90 64 60
        <X 1680 0
          /wFbY29vcF92X2Nsb3NldXBd
        >
        E 0 80 64 00
        E 0 90 50 60
        <X 2160 0
          /wFbY29vcF9rX2Nsb3NldXBfaGVhZF0=
        >
        E 0 80 50 00
        E 0 90 4a 60
        <X 1440 0
          /wFbY29vcF9rX2Nsb3NldXBfaGFuZF0=
        >
        E 0 80 4a 00
        E 0 90 4b 60
        <X 480 0
          /wFbY29vcF9mcm9udF9iZWhpbmRd
        >
        E 0 80 4b 00
        E 0 90 60 60
        <X 1920 0
          /wFbY29vcF9rX2Nsb3NldXBfaGVhZF0=
        >
        E 0 80 60 00
        E 0 90 4a 60
        <X 1680 0
          /wFbY29vcF92X2Nsb3NldXBd
        >
        E 0 80 4a 00
        E 0 90 50 60
        <X 2160 0
          /wFbY29vcF9rX2Nsb3NldXBfaGVhZF0=
        >
        E 0 80 50 00
        E 0 90 4a 60
        <X 1680 0
          /wFbY29vcF9rX2Nsb3NldXBfaGFuZF0=
        >
        E 0 80 4a 00
        E 0 90 4b 60
        <X 240 0
          /wFbY29vcF9hbGxfZmFyXQ==
        >
        E 0 80 4b 00
        E 0 90 63 60
        <X 720 0
          /wFbY29vcF92X25lYXJd
        >
        E 0 80 63 00
        E 0 90 5a 60
        <X 6000 0
          /wFbY29vcF9rX2Nsb3NldXBfaGFuZF0=
        >
        E 0 80 5a 00
        E 0 90 4b 60
        <X 960 0
          /wFbY29vcF92X25lYXJd
        >
        E 0 80 4b 00
        E 0 90 5a 60
        <X 3840 0
          /wFbY29vcF92X25lYXJd
        >
        E 0 80 5a 00
        E 0 90 5a 60
        <X 1920 0
          /wFbY29vcF92X25lYXJd
        >
        E 0 80 5a 00
        E 0 90 5a 60
        <X 1920 0
          /wFbY29vcF9rX2Nsb3NldXBfaGFuZF0=
        >
        E 0 80 5a 00
        E 0 90 4b 60
        <X 1920 0
          /wFbY29vcF9rX2Nsb3NldXBfaGFuZF0=
        >
        E 0 80 4b 00
        E 0 90 4b 60
        <X 1920 0
          /wFbY29vcF9hbGxfZmFyXQ==
        >
        E 0 80 4b 00
        E 0 90 63 60
        <X 1920 0
          /wFbY29vcF92X25lYXJd
        >
        E 0 80 63 00
        E 0 90 5a 60
        <X 480 0
          /wFbY29vcF92X25lYXJd
        >
        E 0 80 5a 00
        E 0 90 5a 60
        <X 480 0
          /wFbY29vcF92X25lYXJd
        >
        E 0 80 5a 00
        E 0 90 5a 60
        <X 480 0
          /wFbY29vcF92X25lYXJd
        >
        E 0 80 5a 00
        E 0 90 5a 60
        <X 480 0
          /wFbY29vcF9hbGxfYmVoaW5kXQ==
        >
        E 0 80 5a 00
        E 0 90 64 60
        E 3840 80 64 00
        E 0 b0 7b 00
        GUID {612F8AC6-DC9D-41DD-A3AB-54C2F71B0B64}
        IGNTEMPO 0 120.00000000 4 4
        SRCCOLOR 22
        VELLANE 132 123 128
        COLORMAP "C:\Program Files\REAPER (x64)\Data\color_maps\rockband_guitarbass.png"
        CFGEDITVIEW 90269.527864 0.162328 0 12 0 0 0
        CFGEDIT 1 1 0 1 1 0 1 1 1 1 1 0.25000000 -8 0 1370 744 0 2 0 1 0.00000000 0 1 1 0 0.500000 0 0 1.000000 64
        KEYSNAP 0 0 "102034050607" 0 "Major"
        EVTFILTER 0 -1 -1 -1 -1 0 1 0 0 -1.00000000 -1.00000000
      >
    >
  >
  <TRACK '{3D4BCEE6-8D70-438C-A814-A894FA05E781}'
    NAME "LIGHTING"
    PEAKCOL 16576
    BEAT -1
    AUTOMODE 0
    VOLPAN 1.00000000000000 0.00000000000000 -1.00000000000000 -1.00000000000000 1.00000000000000
    MUTESOLO 1 0 0
    IPHASE 0
    ISBUS 2 -1
    BUSCOMP 0 0
    SHOWINMIX 1 0.666700 0.500000 1 0.500000 -1 -1 -1
    FREEMODE 0
    SEL 0
    REC 0 0 0 0 0 0 0
    VU 2
    TRACKHEIGHT 0 1
    INQ 0 0 0 0.5000000000 100 0 0 100
    NCHAN 2
    FX 1
    TRACKID {3D4BCEE6-8D70-438C-A814-A894FA05E781}
    PERF 0
    MIDIOUT -1
    <MIDINOTENAMES
      0 71 "Default"
      0 70 "Color_Muted"
      0 69 "Video_Grainy"
      0 68 "16mm Film"
      0 67 "Shitty_TV"
      0 66 "Bloom"
      0 65 "Sepia_Ink"
      0 64 "Silvertone"
      0 63 "Film_BW"
      0 62 "Video_BW"
      0 61 "Contrast BW"
      0 60 "Photocopy"
      0 59 "Blue_Filter"
      0 58 "Desat_Blue"
      0 57 "Video_Security"
      0 55 "Bright"
      0 54 "Posterize"
      0 53 "Clean_Trails"
      0 52 "Video_Trails"
      0 51 "Flicker_Trails"
      0 50 "Desat_Posterize"
      0 49 "Film_Contrast"
      0 48 "Film_Contrast_Blue"
      0 47 "Film_Contrast_Green"
      0 46 "Film_Contrast_Red"
      0 45 "Horror_Movie"
      0 44 "Photo_Negative"
      0 43 "Mirror"
      0 42 "Psych_Blue_Red"
      0 41 "Space_Woosh"
      0 39 "Verse"
      0 38 "Chorus"
      0 37 "Manual_Cool"
      0 36 "Manual_Warm"
      0 35 "Dischord"
      0 34 "Stomp"
      0 32 "first"
      0 31 "prev"
      0 30 "next"
      0 28 "Loop_Cool"
      0 27 "Loop_Warm"
      0 26 "Harmony"
      0 25 "Frenzy"
      0 24 "Silhouettes"
      0 23 "Silhouettes_Spot"
      0 22 "Searchlights"
      0 21 "Sweep"
      0 20 "Strobe_Slow"
      0 19 "Strobe_Fast"
      0 18 "Blackout_Slow"
      0 17 "Blackout_Fast"
      0 16 "Blackout_Spot"
      0 15 "Flare_Slow"
      0 14 "Flare_Fast"
      0 13 "BRE"
      0 11 "BONUSFX"
      0 10 "BONUSFX_Opt"
      0 8 "STROBE"
    >
    MAINSEND 1 0
    <FXCHAIN
      SHOW 0
      LASTSEL 0
      DOCKED 0
    >
    <ITEM
      POSITION 0.00000000000000
      SNAPOFFS 0.00000000000000
      LENGTH 222.64703105824603
      LOOP 0
      ALLTAKES 0
      SEL 0
      FADEIN 1 0.000000 0.000000 1 0
      FADEOUT 1 0.000000 0.000000 1 0
      MUTE 0
      IGUID {4DD64F7B-FCBE-47A1-A510-F6EC26E925A5}
      IID 45
      NAME "LIGHTING untitled MIDI item"
      VOLPAN 1.000000 0.000000 1.000000 -1.000000
      SOFFS 0.00000000000000 0.00000000000000
      PLAYRATE 1.00000000000000 1 0.00000000000000 -1
      CHANMODE 0
      GUID {07B54123-D368-42DD-B216-732A296D49FE}
      <SOURCE MIDI
        HASDATA 1 480 QN
        POOLEDEVTS {3731AA82-CC95-44E6-A8CC-46AA83224AD9}
        <X 0 0
          /wFbbGlnaHRpbmcgKHNpbGhvdWV0dGVzKV0=
        >
        <X 0 0
          /wFbY29udHJhc3RfYS5wcF0=
        >
        E 0 90 18 60
        E 0 90 3d 60
        E 97920 80 18 00
        E 0 80 3d 00
        E 0 b0 7b 00
        GUID {C1A11538-DDBD-4743-82AE-C5624E161707}
        IGNTEMPO 0 120.00000000 4 4
        SRCCOLOR 23
        VELLANE 132 123 128
        COLORMAP "C:\Program Files\REAPER (x64)\Data\color_maps\rockband_guitarbass.png"
        CFGEDITVIEW 53420.968071 0.038749 5 13 0 0 0
        CFGEDIT 1 1 0 1 1 0 1 1 1 1 1 0.25000000 -8 0 1370 744 0 2 0 1 0.00000000 0 1 1 0 0.500000 0 0 1.000000 64
        KEYSNAP 0 0 "102034050607" 0 "Major"
        EVTFILTER 0 -1 -1 -1 -1 0 1 0 0 -1.00000000 -1.00000000
      >
    >
  >
  <TRACK '{A51679C3-1CA4-441F-9BFC-CA5741FF33F1}'
    NAME "BEAT"
    PEAKCOL 16576
    BEAT -1
    AUTOMODE 0
    VOLPAN 1.00000000000000 0.00000000000000 -1.00000000000000 -1.00000000000000 1.00000000000000
    MUTESOLO 0 0 0
    IPHASE 0
    ISBUS 0 0
    BUSCOMP 0 0
    SHOWINMIX 1 0.666700 0.500000 1 0.500000 -1 -1 -1
    FREEMODE 0
    SEL 0
    REC 0 0 0 0 0 0 0
    VU 2
    TRACKHEIGHT 0 0
    INQ 0 0 0 0.5000000000 100 0 0 100
    NCHAN 2
    FX 1
    TRACKID {A51679C3-1CA4-441F-9BFC-CA5741FF33F1}
    PERF 0
    MIDIOUT -1
    MAINSEND 1 0
    <ITEM
      POSITION 0.00000000000000
      SNAPOFFS 0.00000000000000
      LENGTH 222.64703105824603
      LOOP 0
      ALLTAKES 0
      SEL 0
      FADEIN 1 0.000000 0.000000 1 0
      FADEOUT 1 0.000000 0.000000 1 0
      MUTE 0
      IGUID {D2A154C2-884D-4559-9CD4-38E812C585BE}
      IID 9
      NAME "BEAT"
      VOLPAN 1.000000 0.000000 1.000000 -1.000000
      SOFFS 0.00000000000000 0.00000000000000
      PLAYRATE 1.00000000000000 1 0.00000000000000 -1
      CHANMODE 0
      GUID {6503F123-4682-435E-A784-1DAFDEA9A61D}
      <SOURCE MIDI
        HASDATA 1 480 QN
        POOLEDEVTS {9C431DD6-C68F-4772-A8A2-AE4AA53366FA}
        <X 0 0
          /wNCRUFU
        >
        e 0 96 0c 64
        e 120 86 0c 00
        e 360 96 0d 64
        e 120 86 0d 00
        e 360 96 0d 64
        e 120 86 0d 00
        e 360 96 0d 64
        e 120 86 0d 00
        e 360 96 0c 64
        e 120 86 0c 00
        e 360 96 0d 64
        e 120 86 0d 00
        e 360 96 0d 64
        e 120 86 0d 00
        e 360 96 0d 64
        e 120 86 0d 00
        e 360 96 0c 64
        e 120 86 0c 00
        e 360 96 0d 64
        e 120 86 0d 00
        e 360 96 0d 64
        e 120 86 0d 00
        e 360 96 0d 64
        e 120 86 0d 00
        e 360 96 0c 64
        e 120 86 0c 00
        e 360 96 0d 64
        e 120 86 0d 00
        e 360 96 0d 64
        e 120 86 0d 00
        e 360 96 0d 64
        e 120 86 0d 00
        e 360 96 0c 64
        e 120 86 0c 00
        e 360 96 0d 64
        e 120 86 0d 00
        e 360 96 0d 64
        e 120 86 0d 00
        e 360 96 0d 64
        e 120 86 0d 00
        e 360 96 0c 64
        e 120 86 0c 00
        e 360 96 0d 64
        e 120 86 0d 00
        e 360 96 0d 64
        e 120 86 0d 00
        e 360 96 0d 64
        e 120 86 0d 00
        e 360 96 0c 64
        e 120 86 0c 00
        e 360 96 0d 64
        e 120 86 0d 00
        e 360 96 0d 64
        e 120 86 0d 00
        e 360 96 0d 64
        e 120 86 0d 00
        e 360 96 0c 64
        e 120 86 0c 00
        e 360 96 0d 64
        e 120 86 0d 00
        e 360 96 0d 64
        e 120 86 0d 00
        e 360 96 0d 64
        e 120 86 0d 00
        e 360 96 0c 64
        e 120 86 0c 00
        e 360 96 0d 64
        e 120 86 0d 00
        e 360 96 0d 64
        e 120 86 0d 00
        e 360 96 0d 64
        e 120 86 0d 00
        e 360 96 0c 64
        e 120 86 0c 00
        e 360 96 0d 64
        e 120 86 0d 00
        e 360 96 0d 64
        e 120 86 0d 00
        e 360 96 0d 64
        e 120 86 0d 00
        e 360 96 0c 64
        e 120 86 0c 00
        e 360 96 0d 64
        e 120 86 0d 00
        e 360 96 0d 64
        e 120 86 0d 00
        e 360 96 0d 64
        e 120 86 0d 00
        e 360 96 0c 64
        e 120 86 0c 00
        e 360 96 0d 64
        e 120 86 0d 00
        e 360 96 0d 64
        e 120 86 0d 00
        e 360 96 0d 64
        e 120 86 0d 00
        e 360 96 0c 64
        e 120 86 0c 00
        e 360 96 0d 64
        e 120 86 0d 00
        e 360 96 0d 64
        e 120 86 0d 00
        e 360 96 0d 64
        e 120 86 0d 00
        e 360 96 0c 64
        e 120 86 0c 00
        e 360 96 0d 64
        e 120 86 0d 00
        e 360 96 0d 64
        e 120 86 0d 00
        e 360 96 0d 64
        e 120 86 0d 00
        e 360 96 0c 64
        e 120 86 0c 00
        e 360 96 0d 64
        e 120 86 0d 00
        e 360 96 0d 64
        e 120 86 0d 00
        e 360 96 0d 64
        e 120 86 0d 00
        e 360 96 0c 64
        e 120 86 0c 00
        e 360 96 0d 64
        e 120 86 0d 00
        e 360 96 0d 64
        e 120 86 0d 00
        e 360 96 0d 64
        e 120 86 0d 00
        e 360 96 0c 64
        e 120 86 0c 00
        e 360 96 0d 64
        e 120 86 0d 00
        e 360 96 0d 64
        e 120 86 0d 00
        e 360 96 0d 64
        e 120 86 0d 00
        e 360 96 0c 64
        e 120 86 0c 00
        e 360 96 0d 64
        e 120 86 0d 00
        e 360 96 0d 64
        e 120 86 0d 00
        e 360 96 0d 64
        e 120 86 0d 00
        e 360 96 0c 64
        e 120 86 0c 00
        e 360 96 0d 64
        e 120 86 0d 00
        e 360 96 0d 64
        e 120 86 0d 00
        e 360 96 0d 64
        e 120 86 0d 00
        e 360 96 0c 64
        e 120 86 0c 00
        e 360 96 0d 64
        e 120 86 0d 00
        e 360 96 0d 64
        e 120 86 0d 00
        e 360 96 0d 64
        e 120 86 0d 00
        e 360 96 0c 64
        e 120 86 0c 00
        e 360 96 0d 64
        e 120 86 0d 00
        e 360 96 0d 64
        e 120 86 0d 00
        e 360 96 0d 64
        e 120 86 0d 00
        e 360 96 0c 64
        e 120 86 0c 00
        e 360 96 0d 64
        e 120 86 0d 00
        e 360 96 0d 64
        e 120 86 0d 00
        e 360 96 0d 64
        e 120 86 0d 00
        e 360 96 0c 64
        e 120 86 0c 00
        e 360 96 0d 64
        e 120 86 0d 00
        e 360 96 0d 64
        e 120 86 0d 00
        e 360 96 0d 64
        e 120 86 0d 00
        e 360 96 0c 64
        e 120 86 0c 00
        e 360 96 0d 64
        e 120 86 0d 00
        e 360 96 0d 64
        e 120 86 0d 00
        e 360 96 0d 64
        e 120 86 0d 00
        e 360 96 0c 64
        e 120 86 0c 00
        e 360 96 0d 64
        e 120 86 0d 00
        e 360 96 0d 64
        e 120 86 0d 00
        e 360 96 0d 64
        e 120 86 0d 00
        e 360 96 0c 64
        e 120 86 0c 00
        e 360 96 0d 64
        e 120 86 0d 00
        e 360 96 0d 64
        e 120 86 0d 00
        e 360 96 0d 64
        e 120 86 0d 00
        e 360 96 0c 64
        e 120 86 0c 00
        e 360 96 0d 64
        e 120 86 0d 00
        e 360 96 0d 64
        e 120 86 0d 00
        e 360 96 0d 64
        e 120 86 0d 00
        e 360 96 0c 64
        e 120 86 0c 00
        e 360 96 0d 64
        e 120 86 0d 00
        e 360 96 0d 64
        e 120 86 0d 00
        e 360 96 0d 64
        e 120 86 0d 00
        e 360 96 0c 64
        e 120 86 0c 00
        e 360 96 0d 64
        e 120 86 0d 00
        e 360 96 0d 64
        e 120 86 0d 00
        e 360 96 0d 64
        e 120 86 0d 00
        e 360 96 0c 64
        e 120 86 0c 00
        e 360 96 0d 64
        e 120 86 0d 00
        e 360 96 0d 64
        e 120 86 0d 00
        e 360 96 0d 64
        e 120 86 0d 00
        e 360 96 0c 64
        e 120 86 0c 00
        e 360 96 0d 64
        e 120 86 0d 00
        e 360 96 0d 64
        e 120 86 0d 00
        e 360 96 0d 64
        e 120 86 0d 00
        e 360 96 0c 64
        e 120 86 0c 00
        e 360 96 0d 64
        e 120 86 0d 00
        e 360 96 0d 64
        e 120 86 0d 00
        e 360 96 0d 64
        e 120 86 0d 00
        e 360 96 0c 64
        e 120 86 0c 00
        e 360 96 0d 64
        e 120 86 0d 00
        e 360 96 0d 64
        e 120 86 0d 00
        e 360 96 0d 64
        e 120 86 0d 00
        e 360 96 0c 64
        e 120 86 0c 00
        e 360 96 0d 64
        e 120 86 0d 00
        e 360 96 0d 64
        e 120 86 0d 00
        e 360 96 0d 64
        e 120 86 0d 00
        e 360 96 0c 64
        e 120 86 0c 00
        e 360 96 0d 64
        e 120 86 0d 00
        e 360 96 0d 64
        e 120 86 0d 00
        e 360 96 0d 64
        e 120 86 0d 00
        e 360 96 0c 64
        e 120 86 0c 00
        e 360 96 0d 64
        e 120 86 0d 00
        e 360 96 0d 64
        e 120 86 0d 00
        e 360 96 0d 64
        e 120 86 0d 00
        e 360 96 0c 64
        e 120 86 0c 00
        e 360 96 0d 64
        e 120 86 0d 00
        e 360 96 0d 64
        e 120 86 0d 00
        e 360 96 0d 64
        e 120 86 0d 00
        e 360 96 0c 64
        e 120 86 0c 00
        e 360 96 0d 64
        e 120 86 0d 00
        e 360 96 0d 64
        e 120 86 0d 00
        e 360 96 0d 64
        e 120 86 0d 00
        e 360 96 0c 64
        e 120 86 0c 00
        e 360 96 0d 64
        e 120 86 0d 00
        e 360 96 0d 64
        e 120 86 0d 00
        e 360 96 0d 64
        e 120 86 0d 00
        e 360 96 0c 64
        e 120 86 0c 00
        e 360 96 0d 64
        e 120 86 0d 00
        e 360 96 0d 64
        e 120 86 0d 00
        e 360 96 0d 64
        e 120 86 0d 00
        e 360 96 0c 64
        e 120 86 0c 00
        e 360 96 0d 64
        e 120 86 0d 00
        e 360 96 0d 64
        e 120 86 0d 00
        e 360 96 0d 64
        e 120 86 0d 00
        e 360 96 0c 64
        e 120 86 0c 00
        e 360 96 0d 64
        e 120 86 0d 00
        e 360 96 0d 64
        e 120 86 0d 00
        e 360 96 0d 64
        e 120 86 0d 00
        e 360 96 0c 64
        e 120 86 0c 00
        e 360 96 0d 64
        e 120 86 0d 00
        e 360 96 0d 64
        e 120 86 0d 00
        e 360 96 0d 64
        e 120 86 0d 00
        e 360 96 0c 64
        e 120 86 0c 00
        e 360 96 0d 64
        e 120 86 0d 00
        e 360 96 0d 64
        e 120 86 0d 00
        e 360 96 0d 64
        e 120 86 0d 00
        e 360 96 0c 64
        e 120 86 0c 00
        e 360 96 0d 64
        e 120 86 0d 00
        e 360 96 0d 64
        e 120 86 0d 00
        e 360 96 0d 64
        e 120 86 0d 00
        e 360 96 0c 64
        e 120 86 0c 00
        e 360 96 0d 64
        e 120 86 0d 00
        e 360 96 0d 64
        e 120 86 0d 00
        e 360 96 0d 64
        e 120 86 0d 00
        e 360 96 0c 64
        e 120 86 0c 00
        e 360 96 0d 64
        e 120 86 0d 00
        e 360 96 0d 64
        e 120 86 0d 00
        e 360 96 0d 64
        e 120 86 0d 00
        e 360 96 0c 64
        e 120 86 0c 00
        e 360 96 0d 64
        e 120 86 0d 00
        e 360 96 0d 64
        e 120 86 0d 00
        e 360 96 0d 64
        e 120 86 0d 00
        e 360 96 0c 64
        e 120 86 0c 00
        e 360 96 0d 64
        e 120 86 0d 00
        e 360 96 0d 64
        e 120 86 0d 00
        e 360 96 0d 64
        e 120 86 0d 00
        e 360 96 0c 64
        e 120 86 0c 00
        e 360 96 0d 64
        e 120 86 0d 00
        e 360 96 0d 64
        e 120 86 0d 00
        e 360 96 0d 64
        e 120 86 0d 00
        e 360 96 0c 64
        e 120 86 0c 00
        e 360 96 0d 64
        e 120 86 0d 00
        e 360 96 0d 64
        e 120 86 0d 00
        e 360 96 0d 64
        e 120 86 0d 00
        E 360 b0 7b 00
        GUID {7D376737-5FA9-4D82-A49C-EF367522BB50}
        IGNTEMPO 0 120.00000000 4 4
        SRCCOLOR 6
        VELLANE 132 123 128
        COLORMAP "C:\Program Files (x86)\REAPER\Data\color_maps\rockband_guitarbass.png"
        CFGEDITVIEW 0.000000 0.006985 61 12 0 0 0
        CFGEDIT 1 1 0 1 1 0 1 1 1 1 1 0.25000000 -8 0 1370 744 0 0 0 2 0.00000000 0 1 0 0 0.500000 0 0 1.000000 64
        KEYSNAP 0 7 "102030050700" 0 "Pentatonic"
        EVTFILTER 0 -1 -1 -1 -1 0 1 0 0 -1.00000000 -1.00000000
      >
    >
  >
  <TRACK '{B61E25D9-148F-4708-BA0F-317F7DD377A1}'
    NAME "backing"
    PEAKCOL 16576
    BEAT -1
    AUTOMODE 0
    VOLPAN 1.00000000000000 0.00000000000000 -1.00000000000000 -1.00000000000000 1.00000000000000
    MUTESOLO 0 0 0
    IPHASE 0
    ISBUS 0 0
    BUSCOMP 0 0
    SHOWINMIX 1 0.666700 0.500000 1 0.500000 -1 -1 -1
    FREEMODE 0
    SEL 0
    REC 0 0 0 0 0 0 0
    VU 2
    TRACKHEIGHT 0 0
    INQ 0 0 0 0.5000000000 100 0 0 100
    NCHAN 2
    FX 1
    TRACKID {B61E25D9-148F-4708-BA0F-317F7DD377A1}
    PERF 0
    MIDIOUT -1
    MAINSEND 1 0
    <ITEM
      POSITION 0.00000000000000
      SNAPOFFS 0.00000000000000
      LENGTH 222.64702947845805
      LOOP 0
      ALLTAKES 0
      SEL 0
      FADEIN 1 0.000000 0.000000 1 0
      FADEOUT 1 0.000000 0.000000 1 0
      MUTE 0
      IGUID {27558BF7-9EB0-43BC-AEF6-9987B8531776}
      IID 70
      NAME "backing.wav"
      VOLPAN 1.000000 0.000000 1.000000 -1.000000
      SOFFS 0.00000000000000
      PLAYRATE 1.00000000000000 1 0.00000000000000 -1
      CHANMODE 0
      GUID {D7EAB9CC-816D-4C1E-8A2C-1EF5F470540C}
      <SOURCE WAVE
        FILE "wav\backing.wav"
      >
    >
  >
  <EXTENSIONS
  >
>
