<REAPER_PROJECT 0.1 "4.22/x64"
  RIPPLE 0
  GROUPOVERRIDE 0 0 0
  AUTOXFADE 1
  ENVATTACH 1
  MIXERUIFLAGS 11 48
  PEAKGAIN 1.00000000000000
  FEEDBACK 0
  PANLAW 1.00000000000000
  PROJOFFS 0.00000000000000 0
  MAXPROJLEN 0 600.00000000000000
  GRID 3199 8 0.50000000000000 8 1.00000000000000 0
  TIMEMODE 1 0 -1
  PANMODE 3
  CURSOR 0.00000000000000
  ZOOM 8.29377163695995 0 0
  VZOOMEX 6
  USE_REC_CFG 0
  RECMODE 1
  SMPTESYNC 0 23.976024 100 40 1000 300 0 0.000000 1
  LOOP 1
  LOOPGRAN 0 4.00000000000000
  RECORD_PATH "" ""
  <RECORD_CFG
    ZXZhdxAD
  >
  <APPLYFX_CFG
  >
  RENDER_FILE "C:\Users\Ruggery\Documents\Visual Studio Code\Projects\ruggy-customs-projects\songs\7748sanguelatino\backing.wav"
  RENDER_FMT 0 2 44100
  RENDER_1X 0
  RENDER_RANGE 2 0.00000000000000 0.00000000000000
  RENDER_RESAMPLE 3 0 1
  RENDER_ADDTOPROJ 0
  RENDER_STEMS 0
  RENDER_DITHER 0
  TIMELOCKMODE 0
  ITEMMIX 0
  DEFPITCHMODE 393216
  TAKELANE 1
  SAMPLERATE 44100 0 0
  <RENDER_CFG
    ZXZhdxAA
  >
  LOCK 1
  <METRONOME 6 2.000000
    VOL 0.250000 0.125000
    FREQ 800 1600 1
    BEATLEN 4
    SAMPLES "" ""
  >
  GLOBAL_AUTO -1
  TEMPO 120.00000000000000 4 4
  PLAYRATE 1.00000000000000 0 0.25000 4.00000
  SELECTION 135.40132600000740 0.00000000000000
  SELECTION2 135.40132600000740 0.00000000000000
  MASTERAUTOMODE 0
  MASTERTRACKHEIGHT 0
  MASTERPEAKCOL 16576
  MASTERMUTESOLO 0
  MASTERTRACKVIEW 0 0.666700 0.500000 0.500000 -1 -1 -1
  MASTERHWOUT 0 0 1.00000000000000 0.00000000000000 0 0 0 -1.00000000000000
  MASTER_NCH 2 2
  MASTER_VOLUME 1.00000000000000 0.00000000000000 -1.00000000000000 -1.00000000000000 1.00000000000000
  MASTER_PANMODE -1
  MASTER_FX 1
  MASTER_SEL 0
  <MASTERPLAYSPEEDENV
    ACT 0
    VIS 0 1 1.000000
    LANEHEIGHT 0 0
    ARM 0
    DEFSHAPE 0 -1 -1
  >
  <TEMPOENVEX
    ACT 1
    VIS 1 0 1.000000
    LANEHEIGHT 0 0
    ARM 0
    DEFSHAPE 1 -1 -1
    PT 0.000000000000 132.7909560506 1
    PT 5.873894000000 141.5117702415 1
    PT 6.297887000000 128.9534993681 1
    PT 7.693739000000 146.3953797618 1
    PT 8.103588000000 129.3022634361 1
    PT 9.495675000000 142.5581102497 1
    PT 9.916556000000 132.0931256536 1
    PT 11.279231000000 145.3488372093 1
    PT 11.692031000000 129.3022634361 1
    PT 12.620089000000 137.6743588390 1
    PT 13.927522000000 127.9069519560 1
    PT 14.396613000000 137.3255393461 1
    PT 15.270449000000 130.3489223403 1
    PT 16.191055000000 136.6278871180 1
    PT 17.069353000000 131.3953972192 1
    PT 17.982627000000 142.5581102497 1
    PT 18.824389000000 128.2558276242 1
    PT 19.760019000000 140.8139987890 1
    PT 20.612207000000 130.6975984316 1
    PT 21.530357000000 140.1162030377 1
    PT 22.386789000000 130.6975984316 1
    PT 23.304939000000 138.3722351498 1
    PT 24.172165000000 127.9069519560 1
    PT 25.110347000000 138.7209466317 1
    PT 25.975393000000 128.2558276242 1
    PT 26.911023000000 137.6743588390 1
    PT 27.782645000000 128.6046820678 1
    PT 28.715737000000 133.4884766073 1
    PT 29.614691000000 134.8835954571 1
    PT 30.504347000000 130.6975984316 1
    PT 30.963422000000 145.3488372093 1
    PT 31.376222000000 133.8371558712 1
    PT 32.272834000000 136.6278871180 1
    PT 33.151132000000 129.3022634361 1
    PT 34.079190000000 136.6278871180 1
    PT 34.957488000000 134.1861609339 1
    PT 35.851768000000 136.9766066785 1
    PT 36.727830000000 130.3489223403 1
    PT 37.648436000000 139.4184854970 1
    PT 38.509154000000 128.6046820678 1
    PT 39.442246000000 139.0698084082 1
    PT 40.305122000000 131.3953972192 1
    PT 41.218396000000 137.6743588390 1
    PT 42.090018000000 135.5812708033 1
    PT 42.975096000000 137.6743588390 1
    PT 43.846718000000 126.1628004777 1
    PT 44.797870000000 133.4884766073 1
    PT 51.989502000000 132.7906621606 1
    PT 57.411570000000 135.2326000721 1
    PT 59.186290000000 134.5348792886 1
    PT 62.754138000000 133.1395413343 1
    PT 64.556758000000 131.3953972192 1
    PT 66.383306000000 134.1861609339 1
    PT 77.114666000000 132.7906621606 1
    PT 78.922022000000 133.4884766073 1
    PT 80.719930000000 130.0001300001 1
    PT 82.566082000000 133.1395413343 1
    PT 86.171322000000 131.0464275652 1
    PT 88.002734000000 133.1395413343 1
    PT 89.805354000000 131.7442054507 1
    PT 91.627066000000 133.1395413343 1
    PT 95.232306000000 129.6512381693 1
    PT 97.083426000000 130.6975984316 1
    PT 98.919726000000 132.0931256536 1
    PT 104.370426000000 130.6975984316 1
    PT 106.206726000000 132.0931256536 1
    PT 107.115176000000 129.3022634361 1
    PT 108.043234000000 132.0931256536 1
    PT 113.493934000000 133.4884766073 1
    PT 117.089750000000 130.3489223403 1
    PT 118.930962000000 132.4418525083 1
    PT 124.367310000000 131.3953972192 1
    PT 126.193858000000 135.9302043711 1
    PT 127.959470000000 129.0000774000 1
  >
  <PROJBAY
  >
  <TRACK '{EE0B3BB5-BCEA-4E00-A53B-B31E2362AA1D}'
    NAME "PART DRUMS"
    PEAKCOL 16576
    BEAT -1
    AUTOMODE 0
    VOLPAN 1.00000000000000 0.00000000000000 -1.00000000000000 -1.00000000000000 1.00000000000000
    MUTESOLO 0 0 0
    IPHASE 0
    ISBUS 1 1
    BUSCOMP 0 0
    SHOWINMIX 1 0.666700 0.500000 1 0.500000 -1 -1 -1
    FREEMODE 0
    SEL 0
    REC 0 0 0 0 0 0 0
    VU 2
    TRACKHEIGHT 0 0
    INQ 0 0 0 0.5000000000 100 0 0 100
    NCHAN 2
    FX 1
    TRACKID {EE0B3BB5-BCEA-4E00-A53B-B31E2362AA1D}
    PERF 0
    MIDIOUT -1
    <MIDINOTENAMES
      0 127 "CYMBAL SWELLS"
      0 126 "DRUM ROLL"
      0 125 "---"
      0 124 "DRUM FILL"
      0 123 "DRUM FILL"
      0 122 "DRUM FILL"
      0 121 "DRUM FILL"
      0 120 "DRUM FILL (use all 5)"
      0 118 "----"
      0 116 "OVERDRIVE"
      0 114 "----"
      0 112 "TOM GEMS PAD 4"
      0 111 "TOM GEMS PAD 3"
      0 110 "TOM GEMS PAD 2"
      0 103 "Solo Marker"
      0 102 "----"
      0 100 "EXPERT Green"
      0 99 "EXPERT Blue"
      0 98 "EXPERT Yellow"
      0 97 "EXPERT Red"
      0 96 "EXPERT Kick"
      0 92 "----"
      0 88 "HARD Green"
      0 87 "HARD Blue"
      0 86 "HARD Yellow"
      0 85 "HARD Red"
      0 84 "HARD Kick"
      0 80 "----"
      0 76 "MEDIUM Green"
      0 75 "MEDIUM Blue"
      0 74 "MEDIUM Yellow"
      0 73 "MEDIUM Red"
      0 72 "MEDIUM Kick"
      0 68 "----"
      0 64 "EASY Green"
      0 63 "EASY Blue"
      0 62 "EASY Yellow"
      0 61 "EASY Red"
      0 60 "EASY Kick"
      0 56 "----"
      0 52 "-- DRUM ANIMATION --"
      0 51 "FLOOR TOM RH"
      0 50 "FLOOR TOM LH"
      0 49 "TOM2 RH"
      0 48 "TOM2 LH"
      0 47 "TOM1 RH"
      0 46 "TOM1 LH"
      0 45 "SOFT CRASH 2 LH"
      0 44 "CRASH 2 LH"
      0 43 "RIDE LH"
      0 42 "RIDE CYM RH"
      0 41 "CRASH2 CHOKE"
      0 40 "CRASH1 CHOKE"
      0 39 "CRASH2 SOFT RH"
      0 38 "CRASH2 HARD RH"
      0 37 "CRASH1 SOFT RH"
      0 36 "CRASH1 HARD RH"
      0 35 "CRASH1 SOFT LH"
      0 34 "CRASH1 HARD LH"
      0 32 "PERCUSSION RH"
      0 31 "HI-HAT RH"
      0 30 "HI-HAT LH"
      0 29 "SOFT SNARE RH"
      0 28 "SOFT SNARE LH"
      0 27 "SNARE RH"
      0 26 "SNARE LH"
      0 25 "HI-HAT OPEN"
      0 24 "KICK RF"
    >
    MAINSEND 1 0
    <FXCHAIN
      WNDRECT 0 43 891 559
      SHOW 0
      LASTSEL 0
      DOCKED 0
      BYPASS 0 0
      <VST "VSTi: RBN Preview (RBN)" "rbprev_vst64.dll" 0 ""
        dnBicu5e7f4AAAAAAgAAAAEAAAAAAAAAAgAAAAAAAAAEAAAAAQAAAA==
        AAAQAAMBqgAAABAAAAA=
      >
      FLOATPOS 0 0 0 0
      FXID {AD58E21C-956B-4DB3-887B-90C19787E787}
      WAK 0
    >
    <ITEM
      POSITION 0.00000000000000
      SNAPOFFS 0.00000000000000
      LENGTH 135.40100000000001
      LOOP 0
      ALLTAKES 0
      SEL 0
      FADEIN 1 0.000000 0.000000 1 0
      FADEOUT 1 0.000000 0.000000 1 0
      MUTE 0
      IGUID {198BA5D4-6ACE-491D-9538-BB744BC284BC}
      IID 1
      NAME "PART DRUMS"
      VOLPAN 1.000000 0.000000 1.000000 -1.000000
      SOFFS 0.00000000000000 0.00000000000000
      PLAYRATE 1.00000000000000 1 0.00000000000000 -1
      CHANMODE 0
      GUID {859AB227-EB8A-4398-AC27-32C143080026}
      <SOURCE MIDI
        HASDATA 1 480 QN
        POOLEDEVTS {CD49C78E-F39B-4359-BF74-0295853A5E39}
        <X 0 0
          /wNQQVJUIERSVU1T
        >
        E 0 90 19 60
        E 0 90 1e 60
        <X 120 0
          /wFbbWl4IDAgZHJ1bXMwXQ==
        >
        E 0 80 1e 00
        <X 120 0
          /wFbbWl4IDEgZHJ1bXMwXQ==
        >
        <X 120 0
          /wFbbWl4IDIgZHJ1bXMwXQ==
        >
        <X 120 0
          /wFbbWl4IDMgZHJ1bXMwXQ==
        >
        E 480 80 19 00
        E 960 90 19 60
        E 1440 80 19 00
        <X 2400 0
          /wFbcGxheV0=
        >
        E 0 90 18 60
        E 0 90 3c 60
        E 0 90 48 60
        E 0 90 54 60
        E 0 90 60 60
        E 120 80 18 00
        E 0 80 3c 00
        E 0 80 48 00
        E 0 80 54 00
        E 0 80 60 00
        E 840 90 1f 60
        E 0 90 3e 60
        E 0 90 4a 60
        E 0 90 56 60
        E 0 90 62 60
        E 120 80 1f 00
        E 0 80 3e 00
        E 0 80 4a 00
        E 0 80 56 00
        E 0 80 62 00
        E 840 90 18 60
        E 0 90 3c 60
        E 0 90 48 60
        E 0 90 54 60
        E 0 90 60 60
        E 120 80 18 00
        E 0 80 3c 00
        E 0 80 48 00
        E 0 80 54 00
        E 0 80 60 00
        E 840 90 1f 60
        E 0 90 3e 60
        E 0 90 4a 60
        E 0 90 56 60
        E 0 90 62 60
        E 120 80 1f 00
        E 0 80 3e 00
        E 0 80 4a 00
        E 0 80 56 00
        E 0 80 62 00
        E 360 90 1f 60
        E 0 90 3e 60
        E 0 90 4a 60
        E 0 90 56 60
        E 0 90 62 60
        E 120 80 1f 00
        E 0 80 3e 00
        E 0 80 4a 00
        E 0 80 56 00
        E 0 80 62 00
        E 360 90 18 60
        E 0 90 3c 60
        E 0 90 48 60
        E 0 90 54 60
        E 0 90 60 60
        E 120 80 18 00
        E 0 80 3c 00
        E 0 80 48 00
        E 0 80 54 00
        E 0 80 60 00
        E 840 90 1f 60
        E 0 90 3e 60
        E 0 90 4a 60
        E 0 90 56 60
        E 0 90 62 60
        E 120 80 1f 00
        E 0 80 3e 00
        E 0 80 4a 00
        E 0 80 56 00
        E 0 80 62 00
        E 840 90 18 60
        E 0 90 3c 60
        E 0 90 48 60
        E 0 90 54 60
        E 0 90 60 60
        E 0 90 78 60
        E 0 90 79 60
        E 0 90 7a 60
        E 0 90 7b 60
        E 0 90 7c 60
        E 120 80 18 00
        E 0 80 3c 00
        E 0 80 48 00
        E 0 80 54 00
        E 0 80 60 00
        E 840 90 1f 60
        E 0 90 3e 60
        E 0 90 4a 60
        E 0 90 56 60
        E 0 90 62 60
        E 120 80 1f 00
        E 0 80 3e 00
        E 0 80 4a 00
        E 0 80 56 00
        E 0 80 62 00
        E 360 90 1f 60
        E 0 90 3e 60
        E 0 90 4a 60
        E 0 90 56 60
        E 0 90 62 60
        E 120 80 1f 00
        E 0 80 3e 00
        E 0 80 4a 00
        E 0 80 56 00
        E 0 80 62 00
        E 360 80 78 00
        E 0 80 79 00
        E 0 80 7a 00
        E 0 80 7b 00
        E 0 80 7c 00
        E 0 90 18 60
        E 0 90 3c 60
        E 0 90 48 60
        E 0 90 54 60
        E 0 90 60 60
        E 120 80 18 00
        E 0 80 3c 00
        E 0 80 48 00
        E 0 80 54 00
        E 0 80 60 00
        E 840 90 1f 60
        E 0 90 3e 60
        E 0 90 4a 60
        E 0 90 56 60
        E 0 90 62 60
        E 120 80 1f 00
        E 0 80 3e 00
        E 0 80 4a 00
        E 0 80 56 00
        E 0 80 62 00
        E 840 90 18 60
        E 0 90 3c 60
        E 0 90 48 60
        E 0 90 54 60
        E 0 90 60 60
        E 120 80 18 00
        E 0 80 3c 00
        E 0 80 48 00
        E 0 80 54 00
        E 0 80 60 00
        E 840 90 1f 60
        E 0 90 3e 60
        E 0 90 4a 60
        E 0 90 56 60
        E 0 90 62 60
        E 120 80 1f 00
        E 0 80 3e 00
        E 0 80 4a 00
        E 0 80 56 00
        E 0 80 62 00
        E 360 90 1f 60
        E 0 90 3e 60
        E 0 90 4a 60
        E 0 90 56 60
        E 0 90 62 60
        E 120 80 1f 00
        E 0 80 3e 00
        E 0 80 4a 00
        E 0 80 56 00
        E 0 80 62 00
        E 360 90 18 60
        E 0 90 3c 60
        E 0 90 48 60
        E 0 90 54 60
        E 0 90 60 60
        E 0 90 74 60
        E 120 80 18 00
        E 0 80 3c 00
        E 0 80 48 00
        E 0 80 54 00
        E 0 80 60 00
        E 840 90 1f 60
        E 0 90 3e 60
        E 0 90 4a 60
        E 0 90 56 60
        E 0 90 62 60
        E 120 80 1f 00
        E 0 80 3e 00
        E 0 80 4a 00
        E 0 80 56 00
        E 0 80 62 00
        E 840 90 18 60
        E 0 90 3c 60
        E 0 90 48 60
        E 0 90 54 60
        E 0 90 60 60
        E 120 80 18 00
        E 0 80 3c 00
        E 0 80 48 00
        E 0 80 54 00
        E 0 80 60 00
        E 840 90 1f 60
        E 0 90 3e 60
        E 0 90 4a 60
        E 0 90 56 60
        E 0 90 62 60
        E 120 80 74 00
        E 0 80 1f 00
        E 0 80 3e 00
        E 0 80 4a 00
        E 0 80 56 00
        E 0 80 62 00
        E 840 90 18 60
        E 0 90 3c 60
        E 0 90 48 60
        E 0 90 54 60
        E 0 90 60 60
        E 120 80 18 00
        E 0 80 3c 00
        E 0 80 48 00
        E 0 80 54 00
        E 0 80 60 00
        E 840 90 1f 60
        E 0 90 3e 60
        E 0 90 4a 60
        E 0 90 56 60
        E 0 90 62 60
        E 120 80 1f 00
        E 0 80 3e 00
        E 0 80 4a 00
        E 0 80 56 00
        E 0 80 62 00
        E 840 90 18 60
        E 0 90 3c 60
        E 0 90 48 60
        E 0 90 54 60
        E 0 90 60 60
        E 120 80 18 00
        E 0 80 3c 00
        E 0 80 48 00
        E 0 80 54 00
        E 0 80 60 00
        E 840 90 1f 60
        E 0 90 3e 60
        E 0 90 4a 60
        E 0 90 56 60
        E 0 90 62 60
        E 120 80 1f 00
        E 0 80 3e 00
        E 0 80 4a 00
        E 0 80 56 00
        E 0 80 62 00
        E 840 90 18 60
        E 0 90 3c 60
        E 0 90 48 60
        E 0 90 54 60
        E 0 90 60 60
        E 120 80 18 00
        E 0 80 3c 00
        E 0 80 48 00
        E 0 80 54 00
        E 0 80 60 00
        E 840 90 1f 60
        E 0 90 3e 60
        E 0 90 4a 60
        E 0 90 56 60
        E 0 90 62 60
        E 120 80 1f 00
        E 0 80 3e 00
        E 0 80 4a 00
        E 0 80 56 00
        E 0 80 62 00
        E 840 90 18 60
        E 0 90 3c 60
        E 0 90 48 60
        E 0 90 54 60
        E 0 90 60 60
        E 0 90 78 60
        E 0 90 79 60
        E 0 90 7a 60
        E 0 90 7b 60
        E 0 90 7c 60
        E 120 80 18 00
        E 0 80 3c 00
        E 0 80 48 00
        E 0 80 54 00
        E 0 80 60 00
        E 840 90 1f 60
        E 0 90 3e 60
        E 0 90 4a 60
        E 0 90 56 60
        E 0 90 62 60
        E 120 80 1f 00
        E 0 80 3e 00
        E 0 80 4a 00
        E 0 80 56 00
        E 0 80 62 00
        E 840 80 78 00
        E 0 80 79 00
        E 0 80 7a 00
        E 0 80 7b 00
        E 0 80 7c 00
        E 0 90 18 60
        E 0 90 3c 60
        E 0 90 48 60
        E 0 90 54 60
        E 0 90 60 60
        E 120 80 18 00
        E 0 80 3c 00
        E 0 80 48 00
        E 0 80 54 00
        E 0 80 60 00
        E 840 90 1f 60
        E 0 90 3e 60
        E 0 90 4a 60
        E 0 90 56 60
        E 0 90 62 60
        E 120 80 1f 00
        E 0 80 3e 00
        E 0 80 4a 00
        E 0 80 56 00
        E 0 80 62 00
        E 840 90 18 60
        E 0 90 3c 60
        E 0 90 48 60
        E 0 90 54 60
        E 0 90 60 60
        E 120 80 18 00
        E 0 80 3c 00
        E 0 80 48 00
        E 0 80 54 00
        E 0 80 60 00
        E 840 90 1f 60
        E 0 90 3e 60
        E 0 90 4a 60
        E 0 90 56 60
        E 0 90 62 60
        E 120 80 1f 00
        E 0 80 3e 00
        E 0 80 4a 00
        E 0 80 56 00
        E 0 80 62 00
        E 840 90 18 60
        E 0 90 3c 60
        E 0 90 48 60
        E 0 90 54 60
        E 0 90 60 60
        E 120 80 18 00
        E 0 80 3c 00
        E 0 80 48 00
        E 0 80 54 00
        E 0 80 60 00
        E 840 90 1f 60
        E 0 90 3e 60
        E 0 90 4a 60
        E 0 90 56 60
        E 0 90 62 60
        E 120 80 1f 00
        E 0 80 3e 00
        E 0 80 4a 00
        E 0 80 56 00
        E 0 80 62 00
        E 360 90 1f 60
        E 0 90 3e 60
        E 0 90 4a 60
        E 0 90 56 60
        E 0 90 62 60
        E 120 80 1f 00
        E 0 80 3e 00
        E 0 80 4a 00
        E 0 80 56 00
        E 0 80 62 00
        E 360 90 18 60
        E 0 90 3c 60
        E 0 90 48 60
        E 0 90 54 60
        E 0 90 60 60
        E 0 90 78 60
        E 0 90 79 60
        E 0 90 7a 60
        E 0 90 7b 60
        E 0 90 7c 60
        E 120 80 18 00
        E 0 80 3c 00
        E 0 80 48 00
        E 0 80 54 00
        E 0 80 60 00
        E 840 90 1f 60
        E 0 90 3e 60
        E 0 90 4a 60
        E 0 90 56 60
        E 0 90 62 60
        E 120 80 1f 00
        E 0 80 3e 00
        E 0 80 4a 00
        E 0 80 56 00
        E 0 80 62 00
        E 840 80 78 00
        E 0 80 79 00
        E 0 80 7a 00
        E 0 80 7b 00
        E 0 80 7c 00
        E 0 90 18 60
        E 0 90 3c 60
        E 0 90 48 60
        E 0 90 54 60
        E 0 90 60 60
        E 120 80 18 00
        E 0 80 3c 00
        E 0 80 48 00
        E 0 80 54 00
        E 0 80 60 00
        E 840 90 1f 60
        E 0 90 3e 60
        E 0 90 4a 60
        E 0 90 56 60
        E 0 90 62 60
        E 120 80 1f 00
        E 0 80 3e 00
        E 0 80 4a 00
        E 0 80 56 00
        E 0 80 62 00
        E 840 90 18 60
        E 0 90 3c 60
        E 0 90 48 60
        E 0 90 54 60
        E 0 90 60 60
        E 120 80 18 00
        E 0 80 3c 00
        E 0 80 48 00
        E 0 80 54 00
        E 0 80 60 00
        E 840 90 1f 60
        E 0 90 3e 60
        E 0 90 4a 60
        E 0 90 56 60
        E 0 90 62 60
        E 120 80 1f 00
        E 0 80 3e 00
        E 0 80 4a 00
        E 0 80 56 00
        E 0 80 62 00
        E 840 90 18 60
        E 0 90 3c 60
        E 0 90 48 60
        E 0 90 54 60
        E 0 90 60 60
        E 120 80 18 00
        E 0 80 3c 00
        E 0 80 48 00
        E 0 80 54 00
        E 0 80 60 00
        E 840 90 1f 60
        E 0 90 3e 60
        E 0 90 4a 60
        E 0 90 56 60
        E 0 90 62 60
        E 120 80 1f 00
        E 0 80 3e 00
        E 0 80 4a 00
        E 0 80 56 00
        E 0 80 62 00
        E 840 90 18 60
        E 0 90 3c 60
        E 0 90 48 60
        E 0 90 54 60
        E 0 90 60 60
        E 0 90 78 60
        E 0 90 79 60
        E 0 90 7a 60
        E 0 90 7b 60
        E 0 90 7c 60
        E 120 80 18 00
        E 0 80 3c 00
        E 0 80 48 00
        E 0 80 54 00
        E 0 80 60 00
        E 840 90 1f 60
        E 0 90 3e 60
        E 0 90 4a 60
        E 0 90 56 60
        E 0 90 62 60
        E 120 80 1f 00
        E 0 80 3e 00
        E 0 80 4a 00
        E 0 80 56 00
        E 0 80 62 00
        E 840 80 78 00
        E 0 80 79 00
        E 0 80 7a 00
        E 0 80 7b 00
        E 0 80 7c 00
        E 0 90 18 60
        E 0 90 3c 60
        E 0 90 48 60
        E 0 90 54 60
        E 0 90 60 60
        E 120 80 18 00
        E 0 80 3c 00
        E 0 80 48 00
        E 0 80 54 00
        E 0 80 60 00
        E 840 90 1f 60
        E 0 90 3e 60
        E 0 90 4a 60
        E 0 90 56 60
        E 0 90 62 60
        E 120 80 1f 00
        E 0 80 3e 00
        E 0 80 4a 00
        E 0 80 56 00
        E 0 80 62 00
        E 840 90 18 60
        E 0 90 3c 60
        E 0 90 48 60
        E 0 90 54 60
        E 0 90 60 60
        E 120 80 18 00
        E 0 80 3c 00
        E 0 80 48 00
        E 0 80 54 00
        E 0 80 60 00
        E 840 90 1f 60
        E 0 90 3e 60
        E 0 90 4a 60
        E 0 90 56 60
        E 0 90 62 60
        E 120 80 1f 00
        E 0 80 3e 00
        E 0 80 4a 00
        E 0 80 56 00
        E 0 80 62 00
        E 840 90 18 60
        E 0 90 3c 60
        E 0 90 48 60
        E 0 90 54 60
        E 0 90 60 60
        E 120 80 18 00
        E 0 80 3c 00
        E 0 80 48 00
        E 0 80 54 00
        E 0 80 60 00
        E 840 90 1f 60
        E 0 90 3e 60
        E 0 90 4a 60
        E 0 90 56 60
        E 0 90 62 60
        E 120 80 1f 00
        E 0 80 3e 00
        E 0 80 4a 00
        E 0 80 56 00
        E 0 80 62 00
        E 840 90 18 60
        E 0 90 3c 60
        E 0 90 48 60
        E 0 90 54 60
        E 0 90 60 60
        E 0 90 78 60
        E 0 90 79 60
        E 0 90 7a 60
        E 0 90 7b 60
        E 0 90 7c 60
        E 120 80 18 00
        E 0 80 3c 00
        E 0 80 48 00
        E 0 80 54 00
        E 0 80 60 00
        E 840 90 1f 60
        E 0 90 3e 60
        E 0 90 4a 60
        E 0 90 56 60
        E 0 90 62 60
        E 120 80 1f 00
        E 0 80 3e 00
        E 0 80 4a 00
        E 0 80 56 00
        E 0 80 62 00
        E 840 80 78 00
        E 0 80 79 00
        E 0 80 7a 00
        E 0 80 7b 00
        E 0 80 7c 00
        E 0 90 18 60
        E 0 90 3c 60
        E 0 90 48 60
        E 0 90 54 60
        E 0 90 60 60
        E 120 80 18 00
        E 0 80 3c 00
        E 0 80 48 00
        E 0 80 54 00
        E 0 80 60 00
        E 840 90 1f 60
        E 0 90 3e 60
        E 0 90 4a 60
        E 0 90 56 60
        E 0 90 62 60
        E 120 80 1f 00
        E 0 80 3e 00
        E 0 80 4a 00
        E 0 80 56 00
        E 0 80 62 00
        E 840 90 18 60
        E 0 90 3c 60
        E 0 90 48 60
        E 0 90 54 60
        E 0 90 60 60
        E 120 80 18 00
        E 0 80 3c 00
        E 0 80 48 00
        E 0 80 54 00
        E 0 80 60 00
        E 840 90 1f 60
        E 0 90 3e 60
        E 0 90 4a 60
        E 0 90 56 60
        E 0 90 62 60
        E 120 80 1f 00
        E 0 80 3e 00
        E 0 80 4a 00
        E 0 80 56 00
        E 0 80 62 00
        E 840 90 18 60
        E 0 90 3c 60
        E 0 90 48 60
        E 0 90 54 60
        E 0 90 60 60
        E 120 80 18 00
        E 0 80 3c 00
        E 0 80 48 00
        E 0 80 54 00
        E 0 80 60 00
        E 840 90 1f 60
        E 0 90 3e 60
        E 0 90 4a 60
        E 0 90 56 60
        E 0 90 62 60
        E 120 80 1f 00
        E 0 80 3e 00
        E 0 80 4a 00
        E 0 80 56 00
        E 0 80 62 00
        E 840 90 18 60
        E 0 90 3c 60
        E 0 90 48 60
        E 0 90 54 60
        E 0 90 60 60
        E 0 90 78 60
        E 0 90 79 60
        E 0 90 7a 60
        E 0 90 7b 60
        E 0 90 7c 60
        E 120 80 18 00
        E 0 80 3c 00
        E 0 80 48 00
        E 0 80 54 00
        E 0 80 60 00
        E 840 90 1f 60
        E 0 90 3e 60
        E 0 90 4a 60
        E 0 90 56 60
        E 0 90 62 60
        E 120 80 1f 00
        E 0 80 3e 00
        E 0 80 4a 00
        E 0 80 56 00
        E 0 80 62 00
        E 360 90 1f 60
        E 0 90 3e 60
        E 0 90 4a 60
        E 0 90 56 60
        E 0 90 62 60
        E 120 80 1f 00
        E 0 80 3e 00
        E 0 80 4a 00
        E 0 80 56 00
        E 0 80 62 00
        E 360 80 78 00
        E 0 80 79 00
        E 0 80 7a 00
        E 0 80 7b 00
        E 0 80 7c 00
        E 0 90 18 60
        E 0 90 3c 60
        E 0 90 48 60
        E 0 90 54 60
        E 0 90 60 60
        E 120 80 18 00
        E 0 80 3c 00
        E 0 80 48 00
        E 0 80 54 00
        E 0 80 60 00
        E 840 90 1f 60
        E 0 90 3e 60
        E 0 90 4a 60
        E 0 90 56 60
        E 0 90 62 60
        E 120 80 1f 00
        E 0 80 3e 00
        E 0 80 4a 00
        E 0 80 56 00
        E 0 80 62 00
        E 840 90 18 60
        E 0 90 3c 60
        E 0 90 48 60
        E 0 90 54 60
        E 0 90 60 60
        E 120 80 18 00
        E 0 80 3c 00
        E 0 80 48 00
        E 0 80 54 00
        E 0 80 60 00
        E 840 90 1f 60
        E 0 90 3e 60
        E 0 90 4a 60
        E 0 90 56 60
        E 0 90 62 60
        E 120 80 1f 00
        E 0 80 3e 00
        E 0 80 4a 00
        E 0 80 56 00
        E 0 80 62 00
        E 360 90 1f 60
        E 0 90 3e 60
        E 0 90 4a 60
        E 0 90 56 60
        E 0 90 62 60
        E 120 80 1f 00
        E 0 80 3e 00
        E 0 80 4a 00
        E 0 80 56 00
        E 0 80 62 00
        E 360 90 18 60
        E 0 90 3c 60
        E 0 90 48 60
        E 0 90 54 60
        E 0 90 60 60
        E 0 90 74 60
        E 120 80 18 00
        E 0 80 3c 00
        E 0 80 48 00
        E 0 80 54 00
        E 0 80 60 00
        E 840 90 1f 60
        E 0 90 3e 60
        E 0 90 4a 60
        E 0 90 56 60
        E 0 90 62 60
        E 120 80 1f 00
        E 0 80 3e 00
        E 0 80 4a 00
        E 0 80 56 00
        E 0 80 62 00
        E 840 90 18 60
        E 0 90 3c 60
        E 0 90 48 60
        E 0 90 54 60
        E 0 90 60 60
        E 120 80 18 00
        E 0 80 3c 00
        E 0 80 48 00
        E 0 80 54 00
        E 0 80 60 00
        E 840 90 1f 60
        E 0 90 3e 60
        E 0 90 4a 60
        E 0 90 56 60
        E 0 90 62 60
        E 120 80 1f 00
        E 0 80 3e 00
        E 0 80 4a 00
        E 0 80 56 00
        E 0 80 62 00
        E 360 90 1f 60
        E 0 90 3e 60
        E 0 90 4a 60
        E 0 90 56 60
        E 0 90 62 60
        E 120 80 74 00
        E 0 80 1f 00
        E 0 80 3e 00
        E 0 80 4a 00
        E 0 80 56 00
        E 0 80 62 00
        E 360 90 18 60
        E 0 90 3c 60
        E 0 90 48 60
        E 0 90 54 60
        E 0 90 60 60
        E 120 80 18 00
        E 0 80 3c 00
        E 0 80 48 00
        E 0 80 54 00
        E 0 80 60 00
        E 840 90 1f 60
        E 0 90 3e 60
        E 0 90 4a 60
        E 0 90 56 60
        E 0 90 62 60
        E 120 80 1f 00
        E 0 80 3e 00
        E 0 80 4a 00
        E 0 80 56 00
        E 0 80 62 00
        E 840 90 18 60
        E 0 90 3c 60
        E 0 90 48 60
        E 0 90 54 60
        E 0 90 60 60
        E 120 80 18 00
        E 0 80 3c 00
        E 0 80 48 00
        E 0 80 54 00
        E 0 80 60 00
        E 840 90 1f 60
        E 0 90 3e 60
        E 0 90 4a 60
        E 0 90 56 60
        E 0 90 62 60
        E 120 80 1f 00
        E 0 80 3e 00
        E 0 80 4a 00
        E 0 80 56 00
        E 0 80 62 00
        E 360 90 1f 60
        E 0 90 3e 60
        E 0 90 4a 60
        E 0 90 56 60
        E 0 90 62 60
        E 120 80 1f 00
        E 0 80 3e 00
        E 0 80 4a 00
        E 0 80 56 00
        E 0 80 62 00
        E 360 90 18 60
        E 0 90 3c 60
        E 0 90 48 60
        E 0 90 54 60
        E 0 90 60 60
        E 120 80 18 00
        E 0 80 3c 00
        E 0 80 48 00
        E 0 80 54 00
        E 0 80 60 00
        E 840 90 1f 60
        E 0 90 3e 60
        E 0 90 4a 60
        E 0 90 56 60
        E 0 90 62 60
        E 120 80 1f 00
        E 0 80 3e 00
        E 0 80 4a 00
        E 0 80 56 00
        E 0 80 62 00
        E 840 90 18 60
        E 0 90 3c 60
        E 0 90 48 60
        E 0 90 54 60
        E 0 90 60 60
        E 0 90 78 60
        E 0 90 79 60
        E 0 90 7a 60
        E 0 90 7b 60
        E 0 90 7c 60
        E 120 80 18 00
        E 0 80 3c 00
        E 0 80 48 00
        E 0 80 54 00
        E 0 80 60 00
        E 840 90 1f 60
        E 0 90 3e 60
        E 0 90 4a 60
        E 0 90 56 60
        E 0 90 62 60
        E 120 80 1f 00
        E 0 80 3e 00
        E 0 80 4a 00
        E 0 80 56 00
        E 0 80 62 00
        E 360 90 1f 60
        E 0 90 3e 60
        E 0 90 4a 60
        E 0 90 56 60
        E 0 90 62 60
        E 120 80 1f 00
        E 0 80 3e 00
        E 0 80 4a 00
        E 0 80 56 00
        E 0 80 62 00
        E 360 80 78 00
        E 0 80 79 00
        E 0 80 7a 00
        E 0 80 7b 00
        E 0 80 7c 00
        E 0 90 18 60
        E 0 90 3c 60
        E 0 90 48 60
        E 0 90 54 60
        E 0 90 60 60
        E 120 80 18 00
        E 0 80 3c 00
        E 0 80 48 00
        E 0 80 54 00
        E 0 80 60 00
        E 840 90 1f 60
        E 0 90 3e 60
        E 0 90 4a 60
        E 0 90 56 60
        E 0 90 62 60
        E 120 80 1f 00
        E 0 80 3e 00
        E 0 80 4a 00
        E 0 80 56 00
        E 0 80 62 00
        E 840 90 18 60
        E 0 90 3c 60
        E 0 90 48 60
        E 0 90 54 60
        E 0 90 60 60
        E 120 80 18 00
        E 0 80 3c 00
        E 0 80 48 00
        E 0 80 54 00
        E 0 80 60 00
        E 840 90 1f 60
        E 0 90 3e 60
        E 0 90 4a 60
        E 0 90 56 60
        E 0 90 62 60
        E 120 80 1f 00
        E 0 80 3e 00
        E 0 80 4a 00
        E 0 80 56 00
        E 0 80 62 00
        E 360 90 1f 60
        E 0 90 3e 60
        E 0 90 4a 60
        E 0 90 56 60
        E 0 90 62 60
        E 120 80 1f 00
        E 0 80 3e 00
        E 0 80 4a 00
        E 0 80 56 00
        E 0 80 62 00
        E 360 90 18 60
        E 0 90 3c 60
        E 0 90 48 60
        E 0 90 54 60
        E 0 90 60 60
        E 120 80 18 00
        E 0 80 3c 00
        E 0 80 48 00
        E 0 80 54 00
        E 0 80 60 00
        E 840 90 1f 60
        E 0 90 3e 60
        E 0 90 4a 60
        E 0 90 56 60
        E 0 90 62 60
        E 120 80 1f 00
        E 0 80 3e 00
        E 0 80 4a 00
        E 0 80 56 00
        E 0 80 62 00
        E 840 90 18 60
        E 0 90 3c 60
        E 0 90 48 60
        E 0 90 54 60
        E 0 90 60 60
        E 0 90 78 60
        E 0 90 79 60
        E 0 90 7a 60
        E 0 90 7b 60
        E 0 90 7c 60
        E 120 80 18 00
        E 0 80 3c 00
        E 0 80 48 00
        E 0 80 54 00
        E 0 80 60 00
        E 840 90 1f 60
        E 0 90 3e 60
        E 0 90 4a 60
        E 0 90 56 60
        E 0 90 62 60
        E 120 80 1f 00
        E 0 80 3e 00
        E 0 80 4a 00
        E 0 80 56 00
        E 0 80 62 00
        E 360 90 1f 60
        E 0 90 3e 60
        E 0 90 4a 60
        E 0 90 56 60
        E 0 90 62 60
        E 120 80 1f 00
        E 0 80 3e 00
        E 0 80 4a 00
        E 0 80 56 00
        E 0 80 62 00
        E 360 80 78 00
        E 0 80 79 00
        E 0 80 7a 00
        E 0 80 7b 00
        E 0 80 7c 00
        E 0 90 18 60
        E 0 90 3c 60
        E 0 90 48 60
        E 0 90 54 60
        E 0 90 60 60
        E 0 90 74 60
        E 120 80 18 00
        E 0 80 3c 00
        E 0 80 48 00
        E 0 80 54 00
        E 0 80 60 00
        E 840 90 1f 60
        E 0 90 3e 60
        E 0 90 4a 60
        E 0 90 56 60
        E 0 90 62 60
        E 120 80 1f 00
        E 0 80 3e 00
        E 0 80 4a 00
        E 0 80 56 00
        E 0 80 62 00
        E 840 90 18 60
        E 0 90 3c 60
        E 0 90 48 60
        E 0 90 54 60
        E 0 90 60 60
        E 120 80 18 00
        E 0 80 3c 00
        E 0 80 48 00
        E 0 80 54 00
        E 0 80 60 00
        E 840 90 1f 60
        E 0 90 3e 60
        E 0 90 4a 60
        E 0 90 56 60
        E 0 90 62 60
        E 120 80 1f 00
        E 0 80 3e 00
        E 0 80 4a 00
        E 0 80 56 00
        E 0 80 62 00
        E 360 90 1f 60
        E 0 90 3e 60
        E 0 90 4a 60
        E 0 90 56 60
        E 0 90 62 60
        E 120 80 1f 00
        E 0 80 3e 00
        E 0 80 4a 00
        E 0 80 56 00
        E 0 80 62 00
        E 360 90 18 60
        E 0 90 3c 60
        E 0 90 48 60
        E 0 90 54 60
        E 0 90 60 60
        E 120 80 74 00
        E 0 80 18 00
        E 0 80 3c 00
        E 0 80 48 00
        E 0 80 54 00
        E 0 80 60 00
        E 840 90 1f 60
        E 0 90 3e 60
        E 0 90 4a 60
        E 0 90 56 60
        E 0 90 62 60
        E 120 80 1f 00
        E 0 80 3e 00
        E 0 80 4a 00
        E 0 80 56 00
        E 0 80 62 00
        E 840 90 18 60
        E 0 90 3c 60
        E 0 90 48 60
        E 0 90 54 60
        E 0 90 60 60
        E 0 90 78 60
        E 0 90 79 60
        E 0 90 7a 60
        E 0 90 7b 60
        E 0 90 7c 60
        E 120 80 18 00
        E 0 80 3c 00
        E 0 80 48 00
        E 0 80 54 00
        E 0 80 60 00
        E 840 90 1f 60
        E 0 90 3e 60
        E 0 90 4a 60
        E 0 90 56 60
        E 0 90 62 60
        E 120 80 1f 00
        E 0 80 3e 00
        E 0 80 4a 00
        E 0 80 56 00
        E 0 80 62 00
        E 360 90 1f 60
        E 0 90 3e 60
        E 0 90 4a 60
        E 0 90 56 60
        E 0 90 62 60
        E 120 80 1f 00
        E 0 80 3e 00
        E 0 80 4a 00
        E 0 80 56 00
        E 0 80 62 00
        E 360 80 78 00
        E 0 80 79 00
        E 0 80 7a 00
        E 0 80 7b 00
        E 0 80 7c 00
        E 0 90 18 60
        E 0 90 3c 60
        E 0 90 48 60
        E 0 90 54 60
        E 0 90 60 60
        E 120 80 18 00
        E 0 80 3c 00
        E 0 80 48 00
        E 0 80 54 00
        E 0 80 60 00
        E 840 90 1f 60
        E 0 90 3e 60
        E 0 90 4a 60
        E 0 90 56 60
        E 0 90 62 60
        E 120 80 1f 00
        E 0 80 3e 00
        E 0 80 4a 00
        E 0 80 56 00
        E 0 80 62 00
        E 840 90 18 60
        E 0 90 3c 60
        E 0 90 48 60
        E 0 90 54 60
        E 0 90 60 60
        E 120 80 18 00
        E 0 80 3c 00
        E 0 80 48 00
        E 0 80 54 00
        E 0 80 60 00
        E 840 90 1f 60
        E 0 90 3e 60
        E 0 90 4a 60
        E 0 90 56 60
        E 0 90 62 60
        E 120 80 1f 00
        E 0 80 3e 00
        E 0 80 4a 00
        E 0 80 56 00
        E 0 80 62 00
        E 360 90 1f 60
        E 0 90 3e 60
        E 0 90 4a 60
        E 0 90 56 60
        E 0 90 62 60
        E 120 80 1f 00
        E 0 80 3e 00
        E 0 80 4a 00
        E 0 80 56 00
        E 0 80 62 00
        E 360 90 18 60
        E 0 90 3c 60
        E 0 90 48 60
        E 0 90 54 60
        E 0 90 60 60
        E 120 80 18 00
        E 0 80 3c 00
        E 0 80 48 00
        E 0 80 54 00
        E 0 80 60 00
        E 840 90 1f 60
        E 0 90 3e 60
        E 0 90 4a 60
        E 0 90 56 60
        E 0 90 62 60
        E 120 80 1f 00
        E 0 80 3e 00
        E 0 80 4a 00
        E 0 80 56 00
        E 0 80 62 00
        E 840 90 18 60
        E 0 90 3c 60
        E 0 90 48 60
        E 0 90 54 60
        E 0 90 60 60
        E 0 90 78 60
        E 0 90 79 60
        E 0 90 7a 60
        E 0 90 7b 60
        E 0 90 7c 60
        E 120 80 18 00
        E 0 80 3c 00
        E 0 80 48 00
        E 0 80 54 00
        E 0 80 60 00
        E 840 90 1f 60
        E 0 90 3e 60
        E 0 90 4a 60
        E 0 90 56 60
        E 0 90 62 60
        E 120 80 1f 00
        E 0 80 3e 00
        E 0 80 4a 00
        E 0 80 56 00
        E 0 80 62 00
        E 360 90 1f 60
        E 0 90 3e 60
        E 0 90 4a 60
        E 0 90 56 60
        E 0 90 62 60
        E 120 80 1f 00
        E 0 80 3e 00
        E 0 80 4a 00
        E 0 80 56 00
        E 0 80 62 00
        E 360 80 78 00
        E 0 80 79 00
        E 0 80 7a 00
        E 0 80 7b 00
        E 0 80 7c 00
        E 0 90 18 60
        E 0 90 3c 60
        E 0 90 48 60
        E 0 90 54 60
        E 0 90 60 60
        E 120 80 18 00
        E 0 80 3c 00
        E 0 80 48 00
        E 0 80 54 00
        E 0 80 60 00
        E 840 90 1f 60
        E 0 90 3e 60
        E 0 90 4a 60
        E 0 90 56 60
        E 0 90 62 60
        E 120 80 1f 00
        E 0 80 3e 00
        E 0 80 4a 00
        E 0 80 56 00
        E 0 80 62 00
        E 840 90 18 60
        E 0 90 3c 60
        E 0 90 48 60
        E 0 90 54 60
        E 0 90 60 60
        E 120 80 18 00
        E 0 80 3c 00
        E 0 80 48 00
        E 0 80 54 00
        E 0 80 60 00
        E 840 90 1f 60
        E 0 90 3e 60
        E 0 90 4a 60
        E 0 90 56 60
        E 0 90 62 60
        E 120 80 1f 00
        E 0 80 3e 00
        E 0 80 4a 00
        E 0 80 56 00
        E 0 80 62 00
        E 840 90 18 60
        E 0 90 3c 60
        E 0 90 48 60
        E 0 90 54 60
        E 0 90 60 60
        E 0 90 74 60
        E 120 80 18 00
        E 0 80 3c 00
        E 0 80 48 00
        E 0 80 54 00
        E 0 80 60 00
        E 840 90 1f 60
        E 0 90 3e 60
        E 0 90 4a 60
        E 0 90 56 60
        E 0 90 62 60
        E 120 80 1f 00
        E 0 80 3e 00
        E 0 80 4a 00
        E 0 80 56 00
        E 0 80 62 00
        E 840 90 18 60
        E 0 90 3c 60
        E 0 90 48 60
        E 0 90 54 60
        E 0 90 60 60
        E 120 80 18 00
        E 0 80 3c 00
        E 0 80 48 00
        E 0 80 54 00
        E 0 80 60 00
        E 840 90 1f 60
        E 0 90 3e 60
        E 0 90 4a 60
        E 0 90 56 60
        E 0 90 62 60
        E 120 80 1f 00
        E 0 80 3e 00
        E 0 80 4a 00
        E 0 80 56 00
        E 0 80 62 00
        E 360 90 1f 60
        E 0 90 3e 60
        E 0 90 4a 60
        E 0 90 56 60
        E 0 90 62 60
        E 120 80 74 00
        E 0 80 1f 00
        E 0 80 3e 00
        E 0 80 4a 00
        E 0 80 56 00
        E 0 80 62 00
        E 360 90 18 60
        E 0 90 3c 60
        E 0 90 48 60
        E 0 90 54 60
        E 0 90 60 60
        E 120 80 18 00
        E 0 80 3c 00
        E 0 80 48 00
        E 0 80 54 00
        E 0 80 60 00
        E 840 90 1f 60
        E 0 90 3e 60
        E 0 90 4a 60
        E 0 90 56 60
        E 0 90 62 60
        E 120 80 1f 00
        E 0 80 3e 00
        E 0 80 4a 00
        E 0 80 56 00
        E 0 80 62 00
        E 840 90 18 60
        E 0 90 3c 60
        E 0 90 48 60
        E 0 90 54 60
        E 0 90 60 60
        E 120 80 18 00
        E 0 80 3c 00
        E 0 80 48 00
        E 0 80 54 00
        E 0 80 60 00
        E 840 90 1f 60
        E 0 90 3e 60
        E 0 90 4a 60
        E 0 90 56 60
        E 0 90 62 60
        E 120 80 1f 00
        E 0 80 3e 00
        E 0 80 4a 00
        E 0 80 56 00
        E 0 80 62 00
        E 360 90 1f 60
        E 0 90 3e 60
        E 0 90 4a 60
        E 0 90 56 60
        E 0 90 62 60
        E 120 80 1f 00
        E 0 80 3e 00
        E 0 80 4a 00
        E 0 80 56 00
        E 0 80 62 00
        E 360 90 18 60
        E 0 90 3c 60
        E 0 90 48 60
        E 0 90 54 60
        E 0 90 60 60
        E 120 80 18 00
        E 0 80 3c 00
        E 0 80 48 00
        E 0 80 54 00
        E 0 80 60 00
        E 840 90 1f 60
        E 0 90 3e 60
        E 0 90 4a 60
        E 0 90 56 60
        E 0 90 62 60
        E 120 80 1f 00
        E 0 80 3e 00
        E 0 80 4a 00
        E 0 80 56 00
        E 0 80 62 00
        E 840 90 18 60
        E 0 90 3c 60
        E 0 90 48 60
        E 0 90 54 60
        E 0 90 60 60
        E 0 90 78 60
        E 0 90 79 60
        E 0 90 7a 60
        E 0 90 7b 60
        E 0 90 7c 60
        E 120 80 18 00
        E 0 80 3c 00
        E 0 80 48 00
        E 0 80 54 00
        E 0 80 60 00
        E 840 90 1f 60
        E 0 90 3e 60
        E 0 90 4a 60
        E 0 90 56 60
        E 0 90 62 60
        E 120 80 1f 00
        E 0 80 3e 00
        E 0 80 4a 00
        E 0 80 56 00
        E 0 80 62 00
        E 840 80 78 00
        E 0 80 79 00
        E 0 80 7a 00
        E 0 80 7b 00
        E 0 80 7c 00
        E 0 90 18 60
        E 0 90 3c 60
        E 0 90 48 60
        E 0 90 54 60
        E 0 90 60 60
        E 120 80 18 00
        E 0 80 3c 00
        E 0 80 48 00
        E 0 80 54 00
        E 0 80 60 00
        E 840 90 1f 60
        E 0 90 3e 60
        E 0 90 4a 60
        E 0 90 56 60
        E 0 90 62 60
        E 120 80 1f 00
        E 0 80 3e 00
        E 0 80 4a 00
        E 0 80 56 00
        E 0 80 62 00
        E 840 90 18 60
        E 0 90 3c 60
        E 0 90 48 60
        E 0 90 54 60
        E 0 90 60 60
        E 120 80 18 00
        E 0 80 3c 00
        E 0 80 48 00
        E 0 80 54 00
        E 0 80 60 00
        E 840 90 1f 60
        E 0 90 3e 60
        E 0 90 4a 60
        E 0 90 56 60
        E 0 90 62 60
        E 120 80 1f 00
        E 0 80 3e 00
        E 0 80 4a 00
        E 0 80 56 00
        E 0 80 62 00
        E 360 90 1f 60
        E 0 90 3e 60
        E 0 90 4a 60
        E 0 90 56 60
        E 0 90 62 60
        E 120 80 1f 00
        E 0 80 3e 00
        E 0 80 4a 00
        E 0 80 56 00
        E 0 80 62 00
        E 360 90 18 60
        E 0 90 3c 60
        E 0 90 48 60
        E 0 90 54 60
        E 0 90 60 60
        E 120 80 18 00
        E 0 80 3c 00
        E 0 80 48 00
        E 0 80 54 00
        E 0 80 60 00
        E 840 90 1f 60
        E 0 90 3e 60
        E 0 90 4a 60
        E 0 90 56 60
        E 0 90 62 60
        E 120 80 1f 00
        E 0 80 3e 00
        E 0 80 4a 00
        E 0 80 56 00
        E 0 80 62 00
        E 840 90 18 60
        E 0 90 3c 60
        E 0 90 48 60
        E 0 90 54 60
        E 0 90 60 60
        E 0 90 78 60
        E 0 90 79 60
        E 0 90 7a 60
        E 0 90 7b 60
        E 0 90 7c 60
        E 120 80 18 00
        E 0 80 3c 00
        E 0 80 48 00
        E 0 80 54 00
        E 0 80 60 00
        E 840 90 1f 60
        E 0 90 3e 60
        E 0 90 4a 60
        E 0 90 56 60
        E 0 90 62 60
        E 120 80 1f 00
        E 0 80 3e 00
        E 0 80 4a 00
        E 0 80 56 00
        E 0 80 62 00
        E 360 90 1f 60
        E 0 90 3e 60
        E 0 90 4a 60
        E 0 90 56 60
        E 0 90 62 60
        E 120 80 1f 00
        E 0 80 3e 00
        E 0 80 4a 00
        E 0 80 56 00
        E 0 80 62 00
        E 360 80 78 00
        E 0 80 79 00
        E 0 80 7a 00
        E 0 80 7b 00
        E 0 80 7c 00
        E 0 90 18 60
        E 0 90 3c 60
        E 0 90 48 60
        E 0 90 54 60
        E 0 90 60 60
        E 120 80 18 00
        E 0 80 3c 00
        E 0 80 48 00
        E 0 80 54 00
        E 0 80 60 00
        E 840 90 1f 60
        E 0 90 3e 60
        E 0 90 4a 60
        E 0 90 56 60
        E 0 90 62 60
        E 120 80 1f 00
        E 0 80 3e 00
        E 0 80 4a 00
        E 0 80 56 00
        E 0 80 62 00
        E 840 90 18 60
        E 0 90 3c 60
        E 0 90 48 60
        E 0 90 54 60
        E 0 90 60 60
        E 0 90 74 60
        E 120 80 18 00
        E 0 80 3c 00
        E 0 80 48 00
        E 0 80 54 00
        E 0 80 60 00
        E 840 90 1f 60
        E 0 90 3e 60
        E 0 90 4a 60
        E 0 90 56 60
        E 0 90 62 60
        E 120 80 1f 00
        E 0 80 3e 00
        E 0 80 4a 00
        E 0 80 56 00
        E 0 80 62 00
        E 360 90 1f 60
        E 0 90 3e 60
        E 0 90 4a 60
        E 0 90 56 60
        E 0 90 62 60
        E 120 80 1f 00
        E 0 80 3e 00
        E 0 80 4a 00
        E 0 80 56 00
        E 0 80 62 00
        E 360 90 18 60
        E 0 90 3c 60
        E 0 90 48 60
        E 0 90 54 60
        E 0 90 60 60
        E 120 80 74 00
        E 0 80 18 00
        E 0 80 3c 00
        E 0 80 48 00
        E 0 80 54 00
        E 0 80 60 00
        E 840 90 1f 60
        E 0 90 3e 60
        E 0 90 4a 60
        E 0 90 56 60
        E 0 90 62 60
        E 120 80 1f 00
        E 0 80 3e 00
        E 0 80 4a 00
        E 0 80 56 00
        E 0 80 62 00
        E 840 90 18 60
        E 0 90 3c 60
        E 0 90 48 60
        E 0 90 54 60
        E 0 90 60 60
        E 0 90 78 60
        E 0 90 79 60
        E 0 90 7a 60
        E 0 90 7b 60
        E 0 90 7c 60
        E 120 80 18 00
        E 0 80 3c 00
        E 0 80 48 00
        E 0 80 54 00
        E 0 80 60 00
        E 840 90 1f 60
        E 0 90 3e 60
        E 0 90 4a 60
        E 0 90 56 60
        E 0 90 62 60
        E 120 80 1f 00
        E 0 80 3e 00
        E 0 80 4a 00
        E 0 80 56 00
        E 0 80 62 00
        E 360 90 1f 60
        E 0 90 3e 60
        E 0 90 4a 60
        E 0 90 56 60
        E 0 90 62 60
        E 120 80 1f 00
        E 0 80 3e 00
        E 0 80 4a 00
        E 0 80 56 00
        E 0 80 62 00
        E 360 80 78 00
        E 0 80 79 00
        E 0 80 7a 00
        E 0 80 7b 00
        E 0 80 7c 00
        E 0 90 18 60
        E 0 90 3c 60
        E 0 90 48 60
        E 0 90 54 60
        E 0 90 60 60
        E 120 80 18 00
        E 0 80 3c 00
        E 0 80 48 00
        E 0 80 54 00
        E 0 80 60 00
        E 840 90 1f 60
        E 0 90 3e 60
        E 0 90 4a 60
        E 0 90 56 60
        E 0 90 62 60
        E 120 80 1f 00
        E 0 80 3e 00
        E 0 80 4a 00
        E 0 80 56 00
        E 0 80 62 00
        E 840 90 18 60
        E 0 90 3c 60
        E 0 90 48 60
        E 0 90 54 60
        E 0 90 60 60
        E 120 80 18 00
        E 0 80 3c 00
        E 0 80 48 00
        E 0 80 54 00
        E 0 80 60 00
        E 840 90 1f 60
        E 0 90 3e 60
        E 0 90 4a 60
        E 0 90 56 60
        E 0 90 62 60
        E 120 80 1f 00
        E 0 80 3e 00
        E 0 80 4a 00
        E 0 80 56 00
        E 0 80 62 00
        E 840 90 18 60
        E 0 90 3c 60
        E 0 90 48 60
        E 0 90 54 60
        E 0 90 60 60
        E 120 80 18 00
        E 0 80 3c 00
        E 0 80 48 00
        E 0 80 54 00
        E 0 80 60 00
        E 840 90 1f 60
        E 0 90 3e 60
        E 0 90 4a 60
        E 0 90 56 60
        E 0 90 62 60
        E 120 80 1f 00
        E 0 80 3e 00
        E 0 80 4a 00
        E 0 80 56 00
        E 0 80 62 00
        E 840 90 18 60
        E 0 90 3c 60
        E 0 90 48 60
        E 0 90 54 60
        E 0 90 60 60
        E 120 80 18 00
        E 0 80 3c 00
        E 0 80 48 00
        E 0 80 54 00
        E 0 80 60 00
        E 840 90 1f 60
        E 0 90 3e 60
        E 0 90 4a 60
        E 0 90 56 60
        E 0 90 62 60
        E 120 80 1f 00
        E 0 80 3e 00
        E 0 80 4a 00
        E 0 80 56 00
        E 0 80 62 00
        E 360 90 18 60
        E 0 90 3c 60
        E 0 90 48 60
        E 0 90 54 60
        E 0 90 60 60
        E 120 80 18 00
        E 0 80 3c 00
        E 0 80 48 00
        E 0 80 54 00
        E 0 80 60 00
        E 360 90 18 60
        E 0 90 1f 60
        E 0 90 3e 60
        E 0 90 48 60
        E 0 90 4a 60
        E 0 90 54 60
        E 0 90 56 60
        E 0 90 60 60
        E 0 90 62 60
        E 120 80 18 00
        E 0 80 1f 00
        E 0 80 3e 00
        E 0 80 48 00
        E 0 80 4a 00
        E 0 80 54 00
        E 0 80 56 00
        E 0 80 60 00
        E 0 80 62 00
        <X 480 0
          /wFbaWRsZV9yZWFsdGltZV0=
        >
        E 7079 b0 7b 00
        GUID {4F92DB5E-70CD-4F33-A91C-BEB9A110F8DF}
        IGNTEMPO 0 120.00000000 4 4
        SRCCOLOR 15
        VELLANE 132 128 60
        COLORMAP "C:\Program Files\REAPER (x64)\Data\color_maps\rockband_guitarbass.png"
        CFGEDITVIEW -9350.280011 8.293861 0 12 0 0 0
        CFGEDIT 1 1 0 1 1 0 1 1 1 1 1 0.25000000 -8 -8 1544 872 0 2 1 1 0.00000000 0 1 0 0 0.500000 0 0 1.000000 64
        KEYSNAP 0 6 "102030050700" 0 "Pentatonic"
        EVTFILTER 0 -1 -1 -1 -1 0 1 0 0 -1.00000000 -1.00000000
      >
    >
  >
  <TRACK '{D779C4AE-6D4F-42BE-85E0-3A92966C6716}'
    NAME "drums"
    PEAKCOL 16576
    BEAT -1
    AUTOMODE 0
    VOLPAN 1.00000000000000 0.00000000000000 -1.00000000000000 -1.00000000000000 1.00000000000000
    MUTESOLO 0 0 0
    IPHASE 0
    ISBUS 2 -1
    BUSCOMP 0 0
    SHOWINMIX 1 0.666700 0.500000 1 0.500000 -1 -1 -1
    FREEMODE 0
    SEL 0
    REC 0 0 0 0 0 0 0
    VU 2
    TRACKHEIGHT 0 0
    INQ 0 0 0 0.5000000000 100 0 0 100
    NCHAN 2
    FX 1
    TRACKID {D779C4AE-6D4F-42BE-85E0-3A92966C6716}
    PERF 0
    MIDIOUT -1
    MAINSEND 1 0
    <ITEM
      POSITION 0.00000000000000
      SNAPOFFS 0.00000000000000
      LENGTH 135.40131519274377
      LOOP 0
      ALLTAKES 0
      SEL 0
      FADEIN 1 0.000000 0.000000 1 0
      FADEOUT 1 0.000000 0.000000 1 0
      MUTE 0
      IGUID {C2DBDD39-6FDC-4AA6-B0B6-99370ADDA53E}
      IID 25
      NAME "drums.wav"
      VOLPAN 1.000000 0.000000 1.000000 -1.000000
      SOFFS 0.00000000000000
      PLAYRATE 1.00000000000000 1 0.00000000000000 -1
      CHANMODE 0
      GUID {1564063E-3106-4068-B211-3BBEBBA47524}
      <SOURCE WAVE
        FILE "wav\drums.wav"
      >
    >
  >
  <TRACK '{82FEAD96-D007-42A2-92FD-575B69DF7B33}'
    NAME "PART BASS"
    PEAKCOL 16576
    BEAT -1
    AUTOMODE 0
    VOLPAN 1.00000000000000 0.00000000000000 -1.00000000000000 -1.00000000000000 1.00000000000000
    MUTESOLO 0 0 0
    IPHASE 0
    ISBUS 1 1
    BUSCOMP 0 0
    SHOWINMIX 1 0.666700 0.500000 1 0.500000 -1 -1 -1
    FREEMODE 0
    SEL 0
    REC 0 0 0 0 0 0 0
    VU 2
    TRACKHEIGHT 0 0
    INQ 0 0 0 0.5000000000 100 0 0 100
    NCHAN 2
    FX 1
    TRACKID {82FEAD96-D007-42A2-92FD-575B69DF7B33}
    PERF 0
    MIDIOUT -1
    <MIDINOTENAMES
      0 127 "TRILL MARKER"
      0 126 "TREMOLO MARKER"
      0 125 "---"
      0 124 "BRE"
      0 123 "BRE"
      0 122 "BRE"
      0 121 "BRE"
      0 120 "BRE (use all 5)"
      0 119 "----"
      0 116 "OVERDRIVE"
      0 115 "----"
      0 103 "Solo Marker"
      0 102 "Force HOPO Off"
      0 101 "Force HOPO On"
      0 100 "EXPERT Orange"
      0 99 "EXPERT Blue"
      0 98 "EXPERT Yellow"
      0 97 "EXPERT Red"
      0 96 "EXPERT Green"
      0 95 "----"
      0 90 "Force HOPO Off"
      0 89 "Force HOPO On"
      0 88 "HARD Orange"
      0 87 "HARD Blue"
      0 86 "HARD Yellow"
      0 85 "HARD Red"
      0 84 "HARD Green"
      0 77 "----"
      0 76 "MEDIUM Orange"
      0 75 "MEDIUM Blue"
      0 74 "MEDIUM Yellow"
      0 73 "MEDIUM Red"
      0 72 "MEDIUM Green"
      0 65 "----"
      0 64 "EASY Orange"
      0 63 "EASY Blue"
      0 62 "EASY Yellow"
      0 61 "EASY Red"
      0 60 "EASY Green"
      0 59 "Fret 12"
      0 57 "Fret 11"
      0 56 "Fret 10"
      0 55 "Fret 9"
      0 53 "Fret 8"
      0 52 "Fret 7"
      0 50 "Fret 6"
      0 49 "Fret 5"
      0 47 "Fret 4"
      0 45 "Fret 3"
      0 43 "Fret 2"
      0 40 "Fret 1"
    >
    MAINSEND 1 0
    <FXCHAIN
      WNDRECT 0 43 891 559
      SHOW 0
      LASTSEL 0
      DOCKED 0
      BYPASS 0 0
      <VST "VSTi: RBN Preview (RBN)" "rbprev_vst64.dll" 0 ""
        dnBicu5e7f4AAAAAAgAAAAEAAAAAAAAAAgAAAAAAAAAEAAAAAQAAAA==
        AAAQAAMAqgAAABAAAAA=
      >
      FLOATPOS 0 0 0 0
      FXID {4A7BCD72-ADB3-46C6-8E51-9FE2AB609FBF}
      WAK 0
    >
    <ITEM
      POSITION 0.00000000000000
      SNAPOFFS 0.00000000000000
      LENGTH 135.40100000000001
      LOOP 0
      ALLTAKES 0
      SEL 0
      FADEIN 1 0.000000 0.000000 1 0
      FADEOUT 1 0.000000 0.000000 1 0
      MUTE 0
      IGUID {DD486723-7D37-4E58-9586-E038E662B266}
      IID 2
      NAME "PART BASS"
      VOLPAN 1.000000 0.000000 1.000000 -1.000000
      SOFFS 0.00000000000000 0.00000000000000
      PLAYRATE 1.00000000000000 1 0.00000000000000 -1
      CHANMODE 0
      GUID {F1864E3D-6AD9-4353-AC94-9D2270EB7B5B}
      <SOURCE MIDI
        HASDATA 1 480 QN
        POOLEDEVTS {BFD37C25-9F99-4E57-90F4-414D3182CFD6}
        <X 0 0
          /wNQQVJUIEJBU1M=
        >
        <X 3840 0
          /wFbcGxheV0=
        >
        <X 0 0
          /wFbbWFwIFN0cnVtTWFwX1BpY2td
        >
        E 1200 90 31 60
        E 0 90 56 60
        E 0 90 62 60
        E 120 80 31 00
        E 0 80 56 00
        E 0 80 62 00
        E 0 90 32 60
        E 120 80 32 00
        E 0 90 34 60
        E 0 90 4a 60
        E 0 90 57 60
        E 0 90 63 60
        E 0 90 65 60
        E 120 80 4a 00
        E 0 80 57 00
        E 0 80 63 00
        E 0 80 65 00
        E 240 80 34 00
        E 120 90 28 60
        E 0 90 3c 60
        E 0 90 48 60
        E 0 90 54 60
        E 0 90 60 60
        E 960 80 28 00
        E 0 80 3c 00
        E 0 80 48 00
        E 120 80 54 00
        E 0 80 60 00
        E 120 90 31 60
        E 0 90 56 60
        E 0 90 62 60
        E 120 80 31 00
        E 0 80 56 00
        E 0 80 62 00
        E 120 90 34 60
        E 0 90 4a 60
        E 0 90 57 60
        E 0 90 63 60
        E 0 90 65 60
        E 120 80 34 00
        E 0 80 4a 00
        E 0 80 57 00
        E 0 80 63 00
        E 0 80 65 00
        E 120 90 31 60
        E 0 90 58 60
        E 0 90 64 60
        E 120 80 31 00
        E 0 80 58 00
        E 0 80 64 00
        E 120 90 28 60
        E 0 90 3c 60
        E 0 90 48 60
        E 0 90 54 60
        E 0 90 60 60
        E 960 80 28 00
        E 0 80 3c 00
        E 0 80 48 00
        E 120 80 54 00
        E 0 80 60 00
        E 120 90 31 60
        E 0 90 56 60
        E 0 90 62 60
        E 120 80 31 00
        E 0 80 56 00
        E 0 80 62 00
        E 0 90 32 60
        E 120 80 32 00
        E 0 90 34 60
        E 0 90 4a 60
        E 0 90 57 60
        E 0 90 63 60
        E 0 90 65 60
        E 120 80 4a 00
        E 0 80 57 00
        E 0 80 63 00
        E 0 80 65 00
        E 240 80 34 00
        E 120 90 28 60
        E 0 90 3c 60
        E 0 90 48 60
        E 0 90 54 60
        E 0 90 60 60
        E 960 80 28 00
        E 0 80 3c 00
        E 0 80 48 00
        E 120 80 54 00
        E 0 80 60 00
        E 120 90 31 60
        E 0 90 56 60
        E 0 90 62 60
        E 120 80 31 00
        E 0 80 56 00
        E 0 80 62 00
        E 120 90 34 60
        E 0 90 4a 60
        E 0 90 57 60
        E 0 90 63 60
        E 0 90 65 60
        E 120 80 34 00
        E 0 80 4a 00
        E 0 80 57 00
        E 0 80 63 00
        E 0 80 65 00
        E 120 90 31 60
        E 0 90 58 60
        E 0 90 64 60
        E 120 80 31 00
        E 0 80 58 00
        E 0 80 64 00
        E 120 90 28 60
        E 0 90 3c 60
        E 0 90 48 60
        E 0 90 54 60
        E 0 90 60 60
        E 960 80 28 00
        E 0 80 3c 00
        E 0 80 48 00
        E 120 80 54 00
        E 0 80 60 00
        E 120 90 31 60
        E 0 90 56 60
        E 0 90 62 60
        E 120 80 31 00
        E 0 80 56 00
        E 0 80 62 00
        E 0 90 32 60
        E 120 80 32 00
        E 0 90 34 60
        E 0 90 4a 60
        E 0 90 57 60
        E 0 90 63 60
        E 0 90 65 60
        E 120 80 4a 00
        E 0 80 57 00
        E 0 80 63 00
        E 0 80 65 00
        E 240 80 34 00
        E 120 90 28 60
        E 0 90 3c 60
        E 0 90 48 60
        E 0 90 54 60
        E 0 90 60 60
        E 960 80 28 00
        E 0 80 3c 00
        E 0 80 48 00
        E 120 80 54 00
        E 0 80 60 00
        E 120 90 31 60
        E 0 90 56 60
        E 0 90 62 60
        E 120 80 31 00
        E 0 80 56 00
        E 0 80 62 00
        E 120 90 34 60
        E 0 90 4a 60
        E 0 90 57 60
        E 0 90 63 60
        E 0 90 65 60
        E 120 80 34 00
        E 0 80 4a 00
        E 0 80 57 00
        E 0 80 63 00
        E 0 80 65 00
        E 120 90 31 60
        E 0 90 58 60
        E 0 90 64 60
        E 120 80 31 00
        E 0 80 58 00
        E 0 80 64 00
        E 120 90 28 60
        E 0 90 3c 60
        E 0 90 48 60
        E 0 90 54 60
        E 0 90 60 60
        E 960 80 28 00
        E 0 80 3c 00
        E 0 80 48 00
        E 120 80 54 00
        E 0 80 60 00
        E 120 90 31 60
        E 0 90 56 60
        E 0 90 62 60
        E 120 80 31 00
        E 0 80 56 00
        E 0 80 62 00
        E 0 90 32 60
        E 120 80 32 00
        E 0 90 34 60
        E 0 90 4a 60
        E 0 90 57 60
        E 0 90 63 60
        E 0 90 65 60
        E 120 80 4a 00
        E 0 80 57 00
        E 0 80 63 00
        E 0 80 65 00
        E 240 80 34 00
        E 120 90 28 60
        E 0 90 3c 60
        E 0 90 48 60
        E 0 90 54 60
        E 0 90 60 60
        E 960 80 28 00
        E 0 80 3c 00
        E 0 80 48 00
        E 120 80 54 00
        E 0 80 60 00
        E 120 90 31 60
        E 0 90 56 60
        E 0 90 62 60
        E 120 80 31 00
        E 0 80 56 00
        E 0 80 62 00
        E 120 90 34 60
        E 0 90 4a 60
        E 0 90 57 60
        E 0 90 63 60
        E 0 90 65 60
        E 120 80 34 00
        E 0 80 4a 00
        E 0 80 57 00
        E 0 80 63 00
        E 0 80 65 00
        E 120 90 31 60
        E 0 90 58 60
        E 0 90 64 60
        E 120 80 31 00
        E 0 80 58 00
        E 0 80 64 00
        E 120 90 28 60
        E 0 90 3c 60
        E 0 90 48 60
        E 0 90 54 60
        E 0 90 60 60
        E 960 80 28 00
        E 0 80 3c 00
        E 0 80 48 00
        E 120 80 54 00
        E 0 80 60 00
        E 120 90 31 60
        E 0 90 56 60
        E 0 90 62 60
        E 120 80 31 00
        E 0 80 56 00
        E 0 80 62 00
        E 0 90 32 60
        E 120 80 32 00
        E 0 90 34 60
        E 0 90 4a 60
        E 0 90 57 60
        E 0 90 63 60
        E 0 90 65 60
        E 120 80 4a 00
        E 0 80 57 00
        E 0 80 63 00
        E 0 80 65 00
        E 240 80 34 00
        E 120 90 28 60
        E 0 90 3c 60
        E 0 90 48 60
        E 0 90 54 60
        E 0 90 60 60
        E 960 80 28 00
        E 0 80 3c 00
        E 0 80 48 00
        E 120 80 54 00
        E 0 80 60 00
        E 120 90 31 60
        E 0 90 56 60
        E 0 90 62 60
        E 120 80 31 00
        E 0 80 56 00
        E 0 80 62 00
        E 120 90 34 60
        E 0 90 4a 60
        E 0 90 57 60
        E 0 90 63 60
        E 0 90 65 60
        E 120 80 34 00
        E 0 80 4a 00
        E 0 80 57 00
        E 0 80 63 00
        E 0 80 65 00
        E 120 90 31 60
        E 0 90 58 60
        E 0 90 64 60
        E 120 80 31 00
        E 0 80 58 00
        E 0 80 64 00
        E 120 90 28 60
        E 0 90 3c 60
        E 0 90 48 60
        E 0 90 54 60
        E 0 90 60 60
        E 960 80 28 00
        E 0 80 3c 00
        E 0 80 48 00
        E 120 80 54 00
        E 0 80 60 00
        E 120 90 31 60
        E 0 90 56 60
        E 0 90 62 60
        E 120 80 31 00
        E 0 80 56 00
        E 0 80 62 00
        E 0 90 32 60
        E 120 80 32 00
        E 0 90 34 60
        E 0 90 4a 60
        E 0 90 57 60
        E 0 90 63 60
        E 0 90 65 60
        E 120 80 4a 00
        E 0 80 57 00
        E 0 80 63 00
        E 0 80 65 00
        E 240 80 34 00
        E 120 90 28 60
        E 0 90 3c 60
        E 0 90 48 60
        E 0 90 54 60
        E 0 90 60 60
        E 0 90 74 60
        E 960 80 28 00
        E 0 80 3c 00
        E 0 80 48 00
        E 120 80 54 00
        E 0 80 60 00
        E 120 90 31 60
        E 0 90 56 60
        E 0 90 62 60
        E 120 80 31 00
        E 0 80 56 00
        E 0 80 62 00
        E 120 90 34 60
        E 0 90 4a 60
        E 0 90 57 60
        E 0 90 63 60
        E 0 90 65 60
        E 120 80 34 00
        E 0 80 4a 00
        E 0 80 57 00
        E 0 80 63 00
        E 0 80 65 00
        E 120 90 31 60
        E 0 90 58 60
        E 0 90 64 60
        E 120 80 31 00
        E 0 80 58 00
        E 0 80 64 00
        E 120 90 28 60
        E 0 90 3c 60
        E 0 90 48 60
        E 0 90 54 60
        E 0 90 60 60
        E 960 80 28 00
        E 0 80 3c 00
        E 0 80 48 00
        E 120 80 54 00
        E 0 80 60 00
        E 120 90 31 60
        E 0 90 56 60
        E 0 90 62 60
        E 120 80 31 00
        E 0 80 56 00
        E 0 80 62 00
        E 0 90 32 60
        E 120 80 32 00
        E 0 90 34 60
        E 0 90 4a 60
        E 0 90 57 60
        E 0 90 63 60
        E 0 90 65 60
        E 120 80 4a 00
        E 0 80 57 00
        E 0 80 63 00
        E 0 80 65 00
        E 240 80 34 00
        E 120 90 28 60
        E 0 90 3c 60
        E 0 90 48 60
        E 0 90 54 60
        E 0 90 60 60
        E 240 80 74 00
        E 720 80 28 00
        E 0 80 3c 00
        E 0 80 48 00
        E 120 80 54 00
        E 0 80 60 00
        E 120 90 31 60
        E 0 90 56 60
        E 0 90 62 60
        E 120 80 31 00
        E 0 80 56 00
        E 0 80 62 00
        E 120 90 34 60
        E 0 90 4a 60
        E 0 90 57 60
        E 0 90 63 60
        E 0 90 65 60
        E 120 80 34 00
        E 0 80 4a 00
        E 0 80 57 00
        E 0 80 63 00
        E 0 80 65 00
        E 120 90 31 60
        E 0 90 58 60
        E 0 90 64 60
        E 120 80 31 00
        E 0 80 58 00
        E 0 80 64 00
        E 120 90 28 60
        E 0 90 3c 60
        E 0 90 48 60
        E 0 90 54 60
        E 0 90 60 60
        E 960 80 28 00
        E 0 80 3c 00
        E 0 80 48 00
        E 120 80 54 00
        E 0 80 60 00
        E 120 90 31 60
        E 0 90 56 60
        E 0 90 62 60
        E 120 80 31 00
        E 0 80 56 00
        E 0 80 62 00
        E 0 90 32 60
        E 120 80 32 00
        E 0 90 34 60
        E 0 90 4a 60
        E 0 90 57 60
        E 0 90 63 60
        E 0 90 65 60
        E 120 80 4a 00
        E 0 80 57 00
        E 0 80 63 00
        E 0 80 65 00
        E 240 80 34 00
        E 120 90 28 60
        E 0 90 3c 60
        E 0 90 48 60
        E 0 90 54 60
        E 0 90 60 60
        E 960 80 28 00
        E 0 80 3c 00
        E 0 80 48 00
        E 120 80 54 00
        E 0 80 60 00
        E 120 90 31 60
        E 0 90 56 60
        E 0 90 62 60
        E 120 80 31 00
        E 0 80 56 00
        E 0 80 62 00
        E 120 90 34 60
        E 0 90 4a 60
        E 0 90 57 60
        E 0 90 63 60
        E 0 90 65 60
        E 120 80 34 00
        E 0 80 4a 00
        E 0 80 57 00
        E 0 80 63 00
        E 0 80 65 00
        E 120 90 31 60
        E 0 90 58 60
        E 0 90 64 60
        E 120 80 31 00
        E 0 80 58 00
        E 0 80 64 00
        E 120 90 28 60
        E 0 90 3c 60
        E 0 90 48 60
        E 0 90 54 60
        E 0 90 60 60
        E 960 80 28 00
        E 0 80 3c 00
        E 0 80 48 00
        E 120 80 54 00
        E 0 80 60 00
        E 120 90 31 60
        E 0 90 56 60
        E 0 90 62 60
        E 120 80 31 00
        E 0 80 56 00
        E 0 80 62 00
        E 0 90 32 60
        E 120 80 32 00
        E 0 90 34 60
        E 0 90 4a 60
        E 0 90 57 60
        E 0 90 63 60
        E 0 90 65 60
        E 120 80 4a 00
        E 0 80 57 00
        E 0 80 63 00
        E 0 80 65 00
        E 240 80 34 00
        E 120 90 28 60
        E 0 90 3c 60
        E 0 90 48 60
        E 0 90 54 60
        E 0 90 60 60
        E 960 80 28 00
        E 0 80 3c 00
        E 0 80 48 00
        E 120 80 54 00
        E 0 80 60 00
        E 120 90 31 60
        E 0 90 56 60
        E 0 90 62 60
        E 120 80 31 00
        E 0 80 56 00
        E 0 80 62 00
        E 120 90 34 60
        E 0 90 4a 60
        E 0 90 57 60
        E 0 90 63 60
        E 0 90 65 60
        E 120 80 34 00
        E 0 80 4a 00
        E 0 80 57 00
        E 0 80 63 00
        E 0 80 65 00
        E 120 90 31 60
        E 0 90 58 60
        E 0 90 64 60
        E 120 80 31 00
        E 0 80 58 00
        E 0 80 64 00
        E 120 90 28 60
        E 0 90 3c 60
        E 0 90 48 60
        E 0 90 54 60
        E 0 90 60 60
        E 960 80 28 00
        E 0 80 3c 00
        E 0 80 48 00
        E 120 80 54 00
        E 0 80 60 00
        E 120 90 31 60
        E 0 90 56 60
        E 0 90 62 60
        E 120 80 31 00
        E 0 80 56 00
        E 0 80 62 00
        E 0 90 32 60
        E 120 80 32 00
        E 0 90 34 60
        E 0 90 4a 60
        E 0 90 57 60
        E 0 90 63 60
        E 0 90 65 60
        E 120 80 4a 00
        E 0 80 57 00
        E 0 80 63 00
        E 0 80 65 00
        E 240 80 34 00
        E 120 90 28 60
        E 0 90 3c 60
        E 0 90 48 60
        E 0 90 54 60
        E 0 90 60 60
        E 960 80 28 00
        E 0 80 3c 00
        E 0 80 48 00
        E 120 80 54 00
        E 0 80 60 00
        E 120 90 31 60
        E 0 90 56 60
        E 0 90 62 60
        E 120 80 31 00
        E 0 80 56 00
        E 0 80 62 00
        E 120 90 34 60
        E 0 90 4a 60
        E 0 90 57 60
        E 0 90 63 60
        E 0 90 65 60
        E 120 80 34 00
        E 0 80 4a 00
        E 0 80 57 00
        E 0 80 63 00
        E 0 80 65 00
        E 120 90 31 60
        E 0 90 58 60
        E 0 90 64 60
        E 120 80 31 00
        E 0 80 58 00
        E 0 80 64 00
        E 120 90 28 60
        E 0 90 3c 60
        E 0 90 48 60
        E 0 90 54 60
        E 0 90 60 60
        E 960 80 28 00
        E 0 80 3c 00
        E 0 80 48 00
        E 120 80 54 00
        E 0 80 60 00
        E 120 90 31 60
        E 0 90 56 60
        E 0 90 62 60
        E 120 80 31 00
        E 0 80 56 00
        E 0 80 62 00
        E 0 90 32 60
        E 120 80 32 00
        E 0 90 34 60
        E 0 90 4a 60
        E 0 90 57 60
        E 0 90 63 60
        E 0 90 65 60
        E 120 80 4a 00
        E 0 80 57 00
        E 0 80 63 00
        E 0 80 65 00
        E 240 80 34 00
        E 120 90 31 60
        E 0 90 3d 60
        E 0 90 49 60
        E 0 90 56 60
        E 0 90 62 60
        E 0 90 74 60
        E 960 80 31 00
        E 0 80 3d 00
        E 0 80 49 00
        E 120 80 56 00
        E 0 80 62 00
        E 120 90 34 60
        E 0 90 57 60
        E 0 90 63 60
        E 120 80 34 00
        E 0 80 57 00
        E 0 80 63 00
        E 120 90 31 60
        E 0 90 3d 60
        E 0 90 49 60
        E 0 90 56 60
        E 0 90 62 60
        E 120 80 31 00
        E 0 80 3d 00
        E 0 80 49 00
        E 0 80 56 00
        E 0 80 62 00
        E 0 90 2f 60
        E 120 80 2f 00
        E 0 90 2d 60
        E 0 90 49 60
        E 0 90 55 60
        E 0 90 61 60
        E 0 90 65 60
        E 120 80 49 00
        E 0 80 55 00
        E 0 80 61 00
        E 0 80 65 00
        E 120 90 3d 60
        E 0 90 49 60
        E 0 90 55 60
        E 0 90 61 60
        E 960 80 2d 00
        E 0 80 3d 00
        E 0 80 49 00
        E 120 80 55 00
        E 0 80 61 00
        E 120 90 31 60
        E 0 90 56 60
        E 0 90 62 60
        E 120 80 31 00
        E 0 80 56 00
        E 0 80 62 00
        E 0 90 32 60
        E 120 80 32 00
        E 0 90 34 60
        E 0 90 4a 60
        E 0 90 57 60
        E 0 90 63 60
        E 0 90 65 60
        E 120 80 4a 00
        E 0 80 57 00
        E 0 80 63 00
        E 0 80 65 00
        E 240 80 34 00
        E 120 90 28 60
        E 0 90 3c 60
        E 0 90 48 60
        E 0 90 54 60
        E 0 90 60 60
        E 120 80 74 00
        E 840 80 28 00
        E 0 80 3c 00
        E 0 80 48 00
        E 120 80 54 00
        E 0 80 60 00
        E 120 90 31 60
        E 0 90 56 60
        E 0 90 62 60
        E 120 80 31 00
        E 0 80 56 00
        E 0 80 62 00
        E 120 90 34 60
        E 0 90 4a 60
        E 0 90 57 60
        E 0 90 63 60
        E 0 90 65 60
        E 120 80 34 00
        E 0 80 4a 00
        E 0 80 57 00
        E 0 80 63 00
        E 0 80 65 00
        E 120 90 31 60
        E 0 90 58 60
        E 0 90 64 60
        E 120 80 31 00
        E 0 80 58 00
        E 0 80 64 00
        E 120 90 28 60
        E 0 90 3c 60
        E 0 90 48 60
        E 0 90 54 60
        E 0 90 60 60
        E 960 80 28 00
        E 0 80 3c 00
        E 0 80 48 00
        E 120 80 54 00
        E 0 80 60 00
        E 120 90 31 60
        E 0 90 56 60
        E 0 90 62 60
        E 120 80 31 00
        E 0 80 56 00
        E 0 80 62 00
        E 0 90 32 60
        E 120 80 32 00
        E 0 90 34 60
        E 0 90 4a 60
        E 0 90 57 60
        E 0 90 63 60
        E 0 90 65 60
        E 120 80 4a 00
        E 0 80 57 00
        E 0 80 63 00
        E 0 80 65 00
        E 240 80 34 00
        E 120 90 28 60
        E 0 90 3c 60
        E 0 90 48 60
        E 0 90 54 60
        E 0 90 60 60
        E 960 80 28 00
        E 0 80 3c 00
        E 0 80 48 00
        E 120 80 54 00
        E 0 80 60 00
        E 120 90 31 60
        E 0 90 56 60
        E 0 90 62 60
        E 120 80 31 00
        E 0 80 56 00
        E 0 80 62 00
        E 120 90 34 60
        E 0 90 4a 60
        E 0 90 57 60
        E 0 90 63 60
        E 0 90 65 60
        E 120 80 34 00
        E 0 80 4a 00
        E 0 80 57 00
        E 0 80 63 00
        E 0 80 65 00
        E 120 90 31 60
        E 0 90 58 60
        E 0 90 64 60
        E 120 80 31 00
        E 0 80 58 00
        E 0 80 64 00
        E 120 90 28 60
        E 0 90 3c 60
        E 0 90 48 60
        E 0 90 54 60
        E 0 90 60 60
        E 960 80 28 00
        E 0 80 3c 00
        E 0 80 48 00
        E 120 80 54 00
        E 0 80 60 00
        E 120 90 31 60
        E 0 90 56 60
        E 0 90 62 60
        E 120 80 31 00
        E 0 80 56 00
        E 0 80 62 00
        E 0 90 32 60
        E 120 80 32 00
        E 0 90 34 60
        E 0 90 4a 60
        E 0 90 57 60
        E 0 90 63 60
        E 0 90 65 60
        E 120 80 4a 00
        E 0 80 57 00
        E 0 80 63 00
        E 0 80 65 00
        E 240 80 34 00
        E 120 90 28 60
        E 0 90 3c 60
        E 0 90 48 60
        E 0 90 54 60
        E 0 90 60 60
        E 960 80 28 00
        E 0 80 3c 00
        E 0 80 48 00
        E 120 80 54 00
        E 0 80 60 00
        E 120 90 31 60
        E 0 90 56 60
        E 0 90 62 60
        E 120 80 31 00
        E 0 80 56 00
        E 0 80 62 00
        E 120 90 34 60
        E 0 90 4a 60
        E 0 90 57 60
        E 0 90 63 60
        E 0 90 65 60
        E 120 80 34 00
        E 0 80 4a 00
        E 0 80 57 00
        E 0 80 63 00
        E 0 80 65 00
        E 120 90 31 60
        E 0 90 58 60
        E 0 90 64 60
        E 120 80 31 00
        E 0 80 58 00
        E 0 80 64 00
        E 120 90 28 60
        E 0 90 3c 60
        E 0 90 48 60
        E 0 90 54 60
        E 0 90 60 60
        E 960 80 28 00
        E 0 80 3c 00
        E 0 80 48 00
        E 120 80 54 00
        E 0 80 60 00
        E 120 90 31 60
        E 0 90 56 60
        E 0 90 62 60
        E 120 80 31 00
        E 0 80 56 00
        E 0 80 62 00
        E 0 90 32 60
        E 120 80 32 00
        E 0 90 34 60
        E 0 90 4a 60
        E 0 90 57 60
        E 0 90 63 60
        E 0 90 65 60
        E 120 80 4a 00
        E 0 80 57 00
        E 0 80 63 00
        E 0 80 65 00
        E 240 80 34 00
        E 120 90 28 60
        E 0 90 3c 60
        E 0 90 48 60
        E 0 90 54 60
        E 0 90 60 60
        E 960 80 28 00
        E 0 80 3c 00
        E 0 80 48 00
        E 120 80 54 00
        E 0 80 60 00
        E 120 90 31 60
        E 0 90 56 60
        E 0 90 62 60
        E 120 80 31 00
        E 0 80 56 00
        E 0 80 62 00
        E 120 90 34 60
        E 0 90 4a 60
        E 0 90 57 60
        E 0 90 63 60
        E 0 90 65 60
        E 120 80 34 00
        E 0 80 4a 00
        E 0 80 57 00
        E 0 80 63 00
        E 0 80 65 00
        E 120 90 31 60
        E 0 90 58 60
        E 0 90 64 60
        E 120 80 31 00
        E 0 80 58 00
        E 0 80 64 00
        E 120 90 28 60
        E 0 90 3c 60
        E 0 90 48 60
        E 0 90 54 60
        E 0 90 60 60
        E 960 80 28 00
        E 0 80 3c 00
        E 0 80 48 00
        E 120 80 54 00
        E 0 80 60 00
        E 120 90 31 60
        E 0 90 56 60
        E 0 90 62 60
        E 120 80 31 00
        E 0 80 56 00
        E 0 80 62 00
        E 0 90 32 60
        E 120 80 32 00
        E 0 90 34 60
        E 0 90 4a 60
        E 0 90 57 60
        E 0 90 63 60
        E 0 90 65 60
        E 120 80 4a 00
        E 0 80 57 00
        E 0 80 63 00
        E 0 80 65 00
        E 240 80 34 00
        E 120 90 28 60
        E 0 90 3c 60
        E 0 90 48 60
        E 0 90 54 60
        E 0 90 60 60
        E 960 80 28 00
        E 0 80 3c 00
        E 0 80 48 00
        E 120 80 54 00
        E 0 80 60 00
        E 120 90 31 60
        E 0 90 56 60
        E 0 90 62 60
        E 120 80 31 00
        E 0 80 56 00
        E 0 80 62 00
        E 120 90 34 60
        E 0 90 4a 60
        E 0 90 57 60
        E 0 90 63 60
        E 0 90 65 60
        E 120 80 34 00
        E 0 80 4a 00
        E 0 80 57 00
        E 0 80 63 00
        E 0 80 65 00
        E 120 90 31 60
        E 0 90 58 60
        E 0 90 64 60
        E 120 80 31 00
        E 0 80 58 00
        E 0 80 64 00
        E 120 90 28 60
        E 0 90 3c 60
        E 0 90 48 60
        E 0 90 54 60
        E 0 90 60 60
        E 960 80 28 00
        E 0 80 3c 00
        E 0 80 48 00
        E 120 80 54 00
        E 0 80 60 00
        E 120 90 31 60
        E 0 90 56 60
        E 0 90 62 60
        E 120 80 31 00
        E 0 80 56 00
        E 0 80 62 00
        E 0 90 32 60
        E 120 80 32 00
        E 0 90 34 60
        E 0 90 4a 60
        E 0 90 57 60
        E 0 90 63 60
        E 0 90 65 60
        E 120 80 4a 00
        E 0 80 57 00
        E 0 80 63 00
        E 0 80 65 00
        E 240 80 34 00
        E 120 90 28 60
        E 0 90 3c 60
        E 0 90 48 60
        E 0 90 54 60
        E 0 90 60 60
        E 960 80 28 00
        E 0 80 3c 00
        E 0 80 48 00
        E 120 80 54 00
        E 0 80 60 00
        E 120 90 31 60
        E 0 90 56 60
        E 0 90 62 60
        E 120 80 31 00
        E 0 80 56 00
        E 0 80 62 00
        E 120 90 34 60
        E 0 90 4a 60
        E 0 90 57 60
        E 0 90 63 60
        E 0 90 65 60
        E 120 80 34 00
        E 0 80 4a 00
        E 0 80 57 00
        E 0 80 63 00
        E 0 80 65 00
        E 120 90 31 60
        E 0 90 58 60
        E 0 90 64 60
        E 120 80 31 00
        E 0 80 58 00
        E 0 80 64 00
        E 120 90 28 60
        E 0 90 3c 60
        E 0 90 48 60
        E 0 90 54 60
        E 0 90 60 60
        E 960 80 28 00
        E 0 80 3c 00
        E 0 80 48 00
        E 120 80 54 00
        E 0 80 60 00
        E 120 90 31 60
        E 0 90 56 60
        E 0 90 62 60
        E 120 80 31 00
        E 0 80 56 00
        E 0 80 62 00
        E 0 90 32 60
        E 120 80 32 00
        E 0 90 34 60
        E 0 90 4a 60
        E 0 90 57 60
        E 0 90 63 60
        E 0 90 65 60
        E 120 80 4a 00
        E 0 80 57 00
        E 0 80 63 00
        E 0 80 65 00
        E 240 80 34 00
        E 120 90 28 60
        E 0 90 3c 60
        E 0 90 48 60
        E 0 90 54 60
        E 0 90 60 60
        E 960 80 28 00
        E 0 80 3c 00
        E 0 80 48 00
        E 120 80 54 00
        E 0 80 60 00
        E 120 90 31 60
        E 0 90 56 60
        E 0 90 62 60
        E 120 80 31 00
        E 0 80 56 00
        E 0 80 62 00
        E 120 90 34 60
        E 0 90 4a 60
        E 0 90 57 60
        E 0 90 63 60
        E 0 90 65 60
        E 120 80 34 00
        E 0 80 4a 00
        E 0 80 57 00
        E 0 80 63 00
        E 0 80 65 00
        E 120 90 31 60
        E 0 90 58 60
        E 0 90 64 60
        E 120 80 31 00
        E 0 80 58 00
        E 0 80 64 00
        E 120 90 28 60
        E 0 90 3c 60
        E 0 90 48 60
        E 0 90 54 60
        E 0 90 60 60
        E 960 80 28 00
        E 0 80 3c 00
        E 0 80 48 00
        E 120 80 54 00
        E 0 80 60 00
        E 120 90 31 60
        E 0 90 56 60
        E 0 90 62 60
        E 120 80 31 00
        E 0 80 56 00
        E 0 80 62 00
        E 0 90 32 60
        E 120 80 32 00
        E 0 90 34 60
        E 0 90 4a 60
        E 0 90 57 60
        E 0 90 63 60
        E 0 90 65 60
        E 120 80 4a 00
        E 0 80 57 00
        E 0 80 63 00
        E 0 80 65 00
        E 240 80 34 00
        E 120 90 28 60
        E 0 90 3c 60
        E 0 90 48 60
        E 0 90 54 60
        E 0 90 60 60
        E 960 80 28 00
        E 0 80 3c 00
        E 0 80 48 00
        E 120 80 54 00
        E 0 80 60 00
        E 120 90 31 60
        E 0 90 56 60
        E 0 90 62 60
        E 120 80 31 00
        E 0 80 56 00
        E 0 80 62 00
        E 120 90 34 60
        E 0 90 4a 60
        E 0 90 57 60
        E 0 90 63 60
        E 0 90 65 60
        E 120 80 34 00
        E 0 80 4a 00
        E 0 80 57 00
        E 0 80 63 00
        E 0 80 65 00
        E 120 90 31 60
        E 0 90 58 60
        E 0 90 64 60
        E 120 80 31 00
        E 0 80 58 00
        E 0 80 64 00
        E 120 90 28 60
        E 0 90 3c 60
        E 0 90 48 60
        E 0 90 54 60
        E 0 90 60 60
        E 960 80 28 00
        E 0 80 3c 00
        E 0 80 48 00
        E 120 80 54 00
        E 0 80 60 00
        E 120 90 31 60
        E 0 90 56 60
        E 0 90 62 60
        E 120 80 31 00
        E 0 80 56 00
        E 0 80 62 00
        E 0 90 32 60
        E 120 80 32 00
        E 0 90 34 60
        E 0 90 4a 60
        E 0 90 57 60
        E 0 90 63 60
        E 0 90 65 60
        E 120 80 4a 00
        E 0 80 57 00
        E 0 80 63 00
        E 0 80 65 00
        E 240 80 34 00
        E 120 90 28 60
        E 0 90 3c 60
        E 0 90 48 60
        E 0 90 54 60
        E 0 90 60 60
        E 960 80 28 00
        E 0 80 3c 00
        E 0 80 48 00
        E 120 80 54 00
        E 0 80 60 00
        E 120 90 31 60
        E 0 90 56 60
        E 0 90 62 60
        E 120 80 31 00
        E 0 80 56 00
        E 0 80 62 00
        E 120 90 34 60
        E 0 90 4a 60
        E 0 90 57 60
        E 0 90 63 60
        E 0 90 65 60
        E 120 80 34 00
        E 0 80 4a 00
        E 0 80 57 00
        E 0 80 63 00
        E 0 80 65 00
        E 120 90 31 60
        E 0 90 58 60
        E 0 90 64 60
        E 120 80 31 00
        E 0 80 58 00
        E 0 80 64 00
        E 120 90 28 60
        E 0 90 3c 60
        E 0 90 48 60
        E 0 90 54 60
        E 0 90 60 60
        E 960 80 28 00
        E 0 80 3c 00
        E 0 80 48 00
        E 120 80 54 00
        E 0 80 60 00
        E 120 90 31 60
        E 0 90 56 60
        E 0 90 62 60
        E 120 80 31 00
        E 0 80 56 00
        E 0 80 62 00
        E 0 90 32 60
        E 120 80 32 00
        E 0 90 34 60
        E 0 90 4a 60
        E 0 90 57 60
        E 0 90 63 60
        E 0 90 65 60
        E 120 80 4a 00
        E 0 80 57 00
        E 0 80 63 00
        E 0 80 65 00
        E 240 80 34 00
        E 120 90 31 60
        E 0 90 3d 60
        E 0 90 49 60
        E 0 90 56 60
        E 0 90 62 60
        E 0 90 74 60
        E 960 80 31 00
        E 0 80 3d 00
        E 0 80 49 00
        E 120 80 56 00
        E 0 80 62 00
        E 120 90 34 60
        E 0 90 57 60
        E 0 90 63 60
        E 120 80 34 00
        E 0 80 57 00
        E 0 80 63 00
        E 120 90 31 60
        E 0 90 3d 60
        E 0 90 49 60
        E 0 90 56 60
        E 0 90 62 60
        E 120 80 31 00
        E 0 80 3d 00
        E 0 80 49 00
        E 0 80 56 00
        E 0 80 62 00
        E 0 90 2f 60
        E 120 80 2f 00
        E 0 90 2d 60
        E 0 90 49 60
        E 0 90 55 60
        E 0 90 61 60
        E 0 90 65 60
        E 120 80 49 00
        E 0 80 55 00
        E 0 80 61 00
        E 0 80 65 00
        E 120 90 3d 60
        E 0 90 49 60
        E 0 90 55 60
        E 0 90 61 60
        E 960 80 2d 00
        E 0 80 3d 00
        E 0 80 49 00
        E 120 80 55 00
        E 0 80 61 00
        E 120 90 31 60
        E 0 90 56 60
        E 0 90 62 60
        E 120 80 31 00
        E 0 80 56 00
        E 0 80 62 00
        E 0 90 32 60
        E 120 80 32 00
        E 0 90 34 60
        E 0 90 4a 60
        E 0 90 57 60
        E 0 90 63 60
        E 0 90 65 60
        E 120 80 4a 00
        E 0 80 57 00
        E 0 80 63 00
        E 0 80 65 00
        E 240 80 34 00
        E 120 90 28 60
        E 0 90 3c 60
        E 0 90 48 60
        E 0 90 54 60
        E 0 90 60 60
        E 120 80 74 00
        E 840 80 28 00
        E 0 80 3c 00
        E 0 80 48 00
        E 120 80 54 00
        E 0 80 60 00
        E 120 90 31 60
        E 0 90 56 60
        E 0 90 62 60
        E 120 80 31 00
        E 0 80 56 00
        E 0 80 62 00
        E 120 90 34 60
        E 0 90 4a 60
        E 0 90 57 60
        E 0 90 63 60
        E 0 90 65 60
        E 120 80 34 00
        E 0 80 4a 00
        E 0 80 57 00
        E 0 80 63 00
        E 0 80 65 00
        E 120 90 31 60
        E 0 90 58 60
        E 0 90 64 60
        E 120 80 31 00
        E 0 80 58 00
        E 0 80 64 00
        E 120 90 28 60
        E 0 90 3c 60
        E 0 90 48 60
        E 0 90 54 60
        E 0 90 60 60
        E 960 80 28 00
        E 0 80 3c 00
        E 0 80 48 00
        E 120 80 54 00
        E 0 80 60 00
        E 120 90 31 60
        E 0 90 56 60
        E 0 90 62 60
        E 120 80 31 00
        E 0 80 56 00
        E 0 80 62 00
        E 0 90 32 60
        E 120 80 32 00
        E 0 90 34 60
        E 0 90 4a 60
        E 0 90 57 60
        E 0 90 63 60
        E 0 90 65 60
        E 120 80 4a 00
        E 0 80 57 00
        E 0 80 63 00
        E 0 80 65 00
        E 240 80 34 00
        E 120 90 28 60
        E 0 90 3c 60
        E 0 90 48 60
        E 0 90 54 60
        E 0 90 60 60
        E 960 80 28 00
        E 0 80 3c 00
        E 0 80 48 00
        E 120 80 54 00
        E 0 80 60 00
        E 120 90 31 60
        E 0 90 56 60
        E 0 90 62 60
        E 120 80 31 00
        E 0 80 56 00
        E 0 80 62 00
        E 120 90 34 60
        E 0 90 4a 60
        E 0 90 57 60
        E 0 90 63 60
        E 0 90 65 60
        E 120 80 34 00
        E 0 80 4a 00
        E 0 80 57 00
        E 0 80 63 00
        E 0 80 65 00
        E 120 90 31 60
        E 0 90 58 60
        E 0 90 64 60
        E 120 80 31 00
        E 0 80 58 00
        E 0 80 64 00
        E 120 90 28 60
        E 0 90 3c 60
        E 0 90 48 60
        E 0 90 54 60
        E 0 90 60 60
        E 960 80 28 00
        E 0 80 3c 00
        E 0 80 48 00
        E 120 80 54 00
        E 0 80 60 00
        E 120 90 31 60
        E 0 90 56 60
        E 0 90 62 60
        E 120 80 31 00
        E 0 80 56 00
        E 0 80 62 00
        E 0 90 32 60
        E 120 80 32 00
        E 0 90 34 60
        E 0 90 4a 60
        E 0 90 57 60
        E 0 90 63 60
        E 0 90 65 60
        E 120 80 4a 00
        E 0 80 57 00
        E 0 80 63 00
        E 0 80 65 00
        E 240 80 34 00
        E 120 90 28 60
        E 0 90 3c 60
        E 0 90 48 60
        E 0 90 54 60
        E 0 90 60 60
        E 960 80 28 00
        E 0 80 3c 00
        E 0 80 48 00
        E 120 80 54 00
        E 0 80 60 00
        E 120 90 31 60
        E 0 90 56 60
        E 0 90 62 60
        E 120 80 31 00
        E 0 80 56 00
        E 0 80 62 00
        E 120 90 34 60
        E 0 90 4a 60
        E 0 90 57 60
        E 0 90 63 60
        E 0 90 65 60
        E 120 80 34 00
        E 0 80 4a 00
        E 0 80 57 00
        E 0 80 63 00
        E 0 80 65 00
        E 120 90 31 60
        E 0 90 58 60
        E 0 90 64 60
        E 120 80 31 00
        E 0 80 58 00
        E 0 80 64 00
        E 120 90 28 60
        E 0 90 3c 60
        E 0 90 48 60
        E 0 90 54 60
        E 0 90 60 60
        E 960 80 28 00
        E 0 80 3c 00
        E 0 80 48 00
        E 120 80 54 00
        E 0 80 60 00
        E 120 90 31 60
        E 0 90 56 60
        E 0 90 62 60
        E 0 90 74 60
        E 120 80 31 00
        E 0 80 56 00
        E 0 80 62 00
        E 0 90 32 60
        E 120 80 32 00
        E 0 90 34 60
        E 0 90 4a 60
        E 0 90 57 60
        E 0 90 63 60
        E 0 90 65 60
        E 120 80 4a 00
        E 0 80 57 00
        E 0 80 63 00
        E 0 80 65 00
        E 240 80 34 00
        E 120 90 28 60
        E 0 90 3c 60
        E 0 90 48 60
        E 0 90 54 60
        E 0 90 60 60
        E 120 80 74 00
        E 840 80 28 00
        E 0 80 3c 00
        E 0 80 48 00
        E 120 80 54 00
        E 0 80 60 00
        E 120 90 31 60
        E 0 90 56 60
        E 0 90 62 60
        E 120 80 31 00
        E 0 80 56 00
        E 0 80 62 00
        E 120 90 34 60
        E 0 90 4a 60
        E 0 90 57 60
        E 0 90 63 60
        E 0 90 65 60
        E 120 80 34 00
        E 0 80 4a 00
        E 0 80 57 00
        E 0 80 63 00
        E 0 80 65 00
        E 120 90 31 60
        E 0 90 58 60
        E 0 90 64 60
        E 120 80 31 00
        E 0 80 58 00
        E 0 80 64 00
        E 120 90 28 60
        E 0 90 3c 60
        E 0 90 48 60
        E 0 90 54 60
        E 0 90 60 60
        E 960 80 28 00
        E 0 80 3c 00
        E 0 80 48 00
        E 120 80 54 00
        E 0 80 60 00
        E 120 90 31 60
        E 0 90 56 60
        E 0 90 62 60
        E 120 80 31 00
        E 0 80 56 00
        E 0 80 62 00
        E 0 90 32 60
        E 120 80 32 00
        E 0 90 34 60
        E 0 90 4a 60
        E 0 90 57 60
        E 0 90 63 60
        E 0 90 65 60
        E 120 80 4a 00
        E 0 80 57 00
        E 0 80 63 00
        E 0 80 65 00
        E 240 80 34 00
        E 120 90 28 60
        E 0 90 3c 60
        E 0 90 48 60
        E 0 90 54 60
        E 0 90 60 60
        E 960 80 28 00
        E 0 80 3c 00
        E 0 80 48 00
        E 120 80 54 00
        E 0 80 60 00
        E 120 90 31 60
        E 0 90 56 60
        E 0 90 62 60
        E 120 80 31 00
        E 0 80 56 00
        E 0 80 62 00
        E 120 90 34 60
        E 0 90 4a 60
        E 0 90 57 60
        E 0 90 63 60
        E 0 90 65 60
        E 120 80 34 00
        E 0 80 4a 00
        E 0 80 57 00
        E 0 80 63 00
        E 0 80 65 00
        E 120 90 31 60
        E 0 90 58 60
        E 0 90 64 60
        E 120 80 31 00
        E 0 80 58 00
        E 0 80 64 00
        E 120 90 28 60
        E 0 90 3c 60
        E 0 90 48 60
        E 0 90 54 60
        E 0 90 60 60
        E 960 80 28 00
        E 0 80 3c 00
        E 0 80 48 00
        E 120 80 54 00
        E 0 80 60 00
        E 120 90 31 60
        E 0 90 56 60
        E 0 90 62 60
        E 120 80 31 00
        E 0 80 56 00
        E 0 80 62 00
        E 0 90 32 60
        E 120 80 32 00
        E 0 90 34 60
        E 0 90 4a 60
        E 0 90 57 60
        E 0 90 63 60
        E 0 90 65 60
        E 120 80 4a 00
        E 0 80 57 00
        E 0 80 63 00
        E 0 80 65 00
        E 240 80 34 00
        E 120 90 31 60
        E 0 90 3d 60
        E 0 90 49 60
        E 0 90 56 60
        E 0 90 62 60
        E 960 80 31 00
        E 0 80 3d 00
        E 0 80 49 00
        E 120 80 56 00
        E 0 80 62 00
        E 120 90 34 60
        E 0 90 57 60
        E 0 90 63 60
        E 120 80 34 00
        E 0 80 57 00
        E 0 80 63 00
        E 120 90 31 60
        E 0 90 3d 60
        E 0 90 49 60
        E 0 90 56 60
        E 0 90 62 60
        E 120 80 31 00
        E 0 80 3d 00
        E 0 80 49 00
        E 0 80 56 00
        E 0 80 62 00
        E 0 90 2f 60
        E 120 80 2f 00
        E 0 90 2d 60
        E 0 90 49 60
        E 0 90 55 60
        E 0 90 61 60
        E 0 90 65 60
        E 120 80 49 00
        E 0 80 55 00
        E 0 80 61 00
        E 0 80 65 00
        E 120 90 3d 60
        E 0 90 49 60
        E 0 90 55 60
        E 0 90 61 60
        E 960 80 2d 00
        E 0 80 3d 00
        E 0 80 49 00
        E 120 80 55 00
        E 0 80 61 00
        E 120 90 31 60
        E 0 90 56 60
        E 0 90 62 60
        E 120 80 31 00
        E 0 80 56 00
        E 0 80 62 00
        E 0 90 32 60
        E 120 80 32 00
        E 0 90 34 60
        E 0 90 4a 60
        E 0 90 57 60
        E 0 90 63 60
        E 0 90 65 60
        E 120 80 4a 00
        E 0 80 57 00
        E 0 80 63 00
        E 0 80 65 00
        E 240 80 34 00
        E 120 90 28 60
        E 0 90 3c 60
        E 0 90 48 60
        E 0 90 54 60
        E 0 90 60 60
        E 960 80 28 00
        E 0 80 3c 00
        E 0 80 48 00
        E 120 80 54 00
        E 0 80 60 00
        E 120 90 31 60
        E 0 90 56 60
        E 0 90 62 60
        E 120 80 31 00
        E 0 80 56 00
        E 0 80 62 00
        E 120 90 34 60
        E 0 90 4a 60
        E 0 90 57 60
        E 0 90 63 60
        E 0 90 65 60
        E 120 80 34 00
        E 0 80 4a 00
        E 0 80 57 00
        E 0 80 63 00
        E 0 80 65 00
        E 120 90 31 60
        E 0 90 58 60
        E 0 90 64 60
        E 120 80 31 00
        E 0 80 58 00
        E 0 80 64 00
        E 120 90 28 60
        E 0 90 3c 60
        E 0 90 48 60
        E 0 90 54 60
        E 0 90 60 60
        E 0 90 74 60
        E 960 80 28 00
        E 0 80 3c 00
        E 0 80 48 00
        E 120 80 54 00
        E 0 80 60 00
        E 120 90 31 60
        E 0 90 56 60
        E 0 90 62 60
        E 120 80 31 00
        E 0 80 56 00
        E 0 80 62 00
        E 0 90 32 60
        E 120 80 32 00
        E 0 90 34 60
        E 0 90 4a 60
        E 0 90 57 60
        E 0 90 63 60
        E 0 90 65 60
        E 120 80 4a 00
        E 0 80 57 00
        E 0 80 63 00
        E 0 80 65 00
        E 240 80 34 00
        E 120 90 28 60
        E 0 90 3c 60
        E 0 90 48 60
        E 0 90 54 60
        E 0 90 60 60
        E 120 80 74 00
        E 840 80 28 00
        E 0 80 3c 00
        E 0 80 48 00
        E 120 80 54 00
        E 0 80 60 00
        E 120 90 31 60
        E 0 90 56 60
        E 0 90 62 60
        E 120 80 31 00
        E 0 80 56 00
        E 0 80 62 00
        E 120 90 34 60
        E 0 90 4a 60
        E 0 90 57 60
        E 0 90 63 60
        E 0 90 65 60
        E 120 80 34 00
        E 0 80 4a 00
        E 0 80 57 00
        E 0 80 63 00
        E 0 80 65 00
        E 120 90 31 60
        E 0 90 58 60
        E 0 90 64 60
        E 120 80 31 00
        E 0 80 58 00
        E 0 80 64 00
        E 120 90 28 60
        E 0 90 3c 60
        E 0 90 48 60
        E 0 90 54 60
        E 0 90 60 60
        E 960 80 28 00
        E 0 80 3c 00
        E 0 80 48 00
        E 120 80 54 00
        E 0 80 60 00
        E 120 90 31 60
        E 0 90 56 60
        E 0 90 62 60
        E 120 80 31 00
        E 0 80 56 00
        E 0 80 62 00
        E 0 90 32 60
        E 120 80 32 00
        E 0 90 34 60
        E 0 90 4a 60
        E 0 90 57 60
        E 0 90 63 60
        E 0 90 65 60
        E 120 80 4a 00
        E 0 80 57 00
        E 0 80 63 00
        E 0 80 65 00
        E 240 80 34 00
        E 120 90 28 60
        E 0 90 3c 60
        E 0 90 48 60
        E 0 90 54 60
        E 0 90 60 60
        E 960 80 28 00
        E 0 80 3c 00
        E 0 80 48 00
        E 120 80 54 00
        E 0 80 60 00
        E 120 90 31 60
        E 0 90 56 60
        E 0 90 62 60
        E 120 80 31 00
        E 0 80 56 00
        E 0 80 62 00
        E 120 90 34 60
        E 0 90 4a 60
        E 0 90 57 60
        E 0 90 63 60
        E 0 90 65 60
        E 120 80 34 00
        E 0 80 4a 00
        E 0 80 57 00
        E 0 80 63 00
        E 0 80 65 00
        E 120 90 31 60
        E 0 90 58 60
        E 0 90 64 60
        E 120 80 31 00
        E 0 80 58 00
        E 0 80 64 00
        E 120 90 28 60
        E 0 90 3c 60
        E 0 90 48 60
        E 0 90 54 60
        E 0 90 60 60
        E 960 80 28 00
        E 0 80 3c 00
        E 0 80 48 00
        E 120 80 54 00
        E 0 80 60 00
        E 120 90 31 60
        E 0 90 56 60
        E 0 90 62 60
        E 120 80 31 00
        E 0 80 56 00
        E 0 80 62 00
        E 0 90 32 60
        E 120 80 32 00
        E 0 90 34 60
        E 0 90 4a 60
        E 0 90 57 60
        E 0 90 63 60
        E 0 90 65 60
        E 120 80 4a 00
        E 0 80 57 00
        E 0 80 63 00
        E 0 80 65 00
        E 240 80 34 00
        E 120 90 28 60
        E 0 90 3c 60
        E 0 90 48 60
        E 0 90 54 60
        E 0 90 60 60
        E 960 80 28 00
        E 0 80 3c 00
        E 0 80 48 00
        E 120 80 54 00
        E 0 80 60 00
        E 120 90 31 60
        E 0 90 56 60
        E 0 90 62 60
        E 120 80 31 00
        E 0 80 56 00
        E 0 80 62 00
        E 120 90 34 60
        E 0 90 4a 60
        E 0 90 57 60
        E 0 90 63 60
        E 0 90 65 60
        E 120 80 34 00
        E 0 80 4a 00
        E 0 80 57 00
        E 0 80 63 00
        E 0 80 65 00
        E 120 90 31 60
        E 0 90 58 60
        E 0 90 64 60
        E 120 80 31 00
        E 0 80 58 00
        E 0 80 64 00
        E 120 90 28 60
        E 0 90 3c 60
        E 0 90 48 60
        E 0 90 54 60
        E 0 90 60 60
        E 960 80 28 00
        E 0 80 3c 00
        E 0 80 48 00
        E 120 80 54 00
        E 0 80 60 00
        E 120 90 31 60
        E 0 90 56 60
        E 0 90 62 60
        E 120 80 31 00
        E 0 80 56 00
        E 0 80 62 00
        E 0 90 32 60
        E 120 80 32 00
        E 0 90 34 60
        E 0 90 4a 60
        E 0 90 57 60
        E 0 90 63 60
        E 0 90 65 60
        E 120 80 4a 00
        E 0 80 57 00
        E 0 80 63 00
        E 0 80 65 00
        E 240 80 34 00
        E 120 90 28 60
        E 0 90 3c 60
        E 0 90 48 60
        E 0 90 54 60
        E 0 90 60 60
        E 960 80 28 00
        E 0 80 3c 00
        E 0 80 48 00
        E 120 80 54 00
        E 0 80 60 00
        E 120 90 31 60
        E 0 90 56 60
        E 0 90 62 60
        E 120 80 31 00
        E 0 80 56 00
        E 0 80 62 00
        E 120 90 34 60
        E 0 90 4a 60
        E 0 90 57 60
        E 0 90 63 60
        E 0 90 65 60
        E 120 80 34 00
        E 0 80 4a 00
        E 0 80 57 00
        E 0 80 63 00
        E 0 80 65 00
        E 120 90 31 60
        E 0 90 58 60
        E 0 90 64 60
        E 120 80 31 00
        E 0 80 58 00
        E 0 80 64 00
        E 120 90 28 60
        E 0 90 3c 60
        E 0 90 48 60
        E 0 90 54 60
        E 0 90 60 60
        E 960 80 28 00
        E 0 80 3c 00
        E 0 80 48 00
        E 120 80 54 00
        E 0 80 60 00
        E 120 90 31 60
        E 0 90 56 60
        E 0 90 62 60
        E 120 80 31 00
        E 0 80 56 00
        E 0 80 62 00
        E 0 90 32 60
        E 120 80 32 00
        E 0 90 34 60
        E 0 90 4a 60
        E 0 90 57 60
        E 0 90 63 60
        E 0 90 65 60
        E 120 80 4a 00
        E 0 80 57 00
        E 0 80 63 00
        E 0 80 65 00
        E 240 80 34 00
        E 120 90 28 60
        E 0 90 3c 60
        E 0 90 48 60
        E 0 90 54 60
        E 0 90 60 60
        E 960 80 28 00
        E 0 80 3c 00
        E 0 80 48 00
        E 120 80 54 00
        E 0 80 60 00
        E 120 90 31 60
        E 0 90 56 60
        E 0 90 62 60
        E 120 80 31 00
        E 0 80 56 00
        E 0 80 62 00
        E 120 90 34 60
        E 0 90 4a 60
        E 0 90 57 60
        E 0 90 63 60
        E 0 90 65 60
        E 120 80 34 00
        E 0 80 4a 00
        E 0 80 57 00
        E 0 80 63 00
        E 0 80 65 00
        E 120 90 31 60
        E 0 90 58 60
        E 0 90 64 60
        E 120 80 31 00
        E 0 80 58 00
        E 0 80 64 00
        E 120 90 28 60
        E 0 90 3c 60
        E 0 90 48 60
        E 0 90 54 60
        E 0 90 60 60
        E 960 80 28 00
        E 0 80 3c 00
        E 0 80 48 00
        E 120 80 54 00
        E 0 80 60 00
        E 120 90 31 60
        E 0 90 56 60
        E 0 90 62 60
        E 120 80 31 00
        E 0 80 56 00
        E 0 80 62 00
        E 0 90 32 60
        E 120 80 32 00
        E 0 90 34 60
        E 0 90 4a 60
        E 0 90 57 60
        E 0 90 63 60
        E 0 90 65 60
        E 120 80 4a 00
        E 0 80 57 00
        E 0 80 63 00
        E 0 80 65 00
        E 240 80 34 00
        E 120 90 28 60
        E 0 90 3c 60
        E 0 90 48 60
        E 0 90 54 60
        E 0 90 60 60
        E 960 80 28 00
        E 0 80 3c 00
        E 0 80 48 00
        E 120 80 54 00
        E 0 80 60 00
        E 120 90 31 60
        E 0 90 56 60
        E 0 90 62 60
        E 120 80 31 00
        E 0 80 56 00
        E 0 80 62 00
        E 120 90 34 60
        E 0 90 3e 60
        E 0 90 4a 60
        E 0 90 57 60
        E 0 90 63 60
        E 0 90 65 60
        E 120 80 34 00
        E 0 80 3e 00
        E 0 80 4a 00
        E 0 80 57 00
        E 0 80 63 00
        E 0 80 65 00
        E 120 90 31 60
        E 0 90 58 60
        E 0 90 64 60
        E 120 80 58 00
        E 0 80 64 00
        E 120 90 3e 60
        E 0 90 4a 60
        E 0 90 57 60
        E 0 90 63 60
        E 120 80 3e 00
        E 0 80 4a 00
        E 480 80 31 00
        E 0 80 57 00
        E 0 80 63 00
        E 120 90 2d 60
        E 0 90 49 60
        E 0 90 56 60
        E 0 90 62 60
        E 120 80 49 00
        E 480 80 2d 00
        E 0 80 56 00
        E 0 80 62 00
        E 120 90 2b 60
        E 0 90 49 60
        E 0 90 55 60
        E 0 90 61 60
        E 120 80 49 00
        E 240 80 2b 00
        E 0 80 55 00
        E 0 80 61 00
        E 120 90 28 60
        E 0 90 3c 60
        E 0 90 48 60
        E 0 90 54 60
        E 0 90 60 60
        E 3840 80 28 00
        E 0 80 3c 00
        E 0 80 48 00
        E 0 80 54 00
        E 0 80 60 00
        <X 479 0
          /wFbaWRsZV9yZWFsdGltZV0=
        >
        E 3360 b0 7b 00
        GUID {F521C355-0305-48D0-B875-9E848814E3E7}
        IGNTEMPO 0 120.00000000 4 4
        SRCCOLOR 16
        VELLANE 132 128 60
        COLORMAP "C:\Program Files\REAPER (x64)\Data\color_maps\rockband_guitarbass.png"
        CFGEDITVIEW -9350.280011 8.293861 0 12 0 0 0
        CFGEDIT 1 1 0 1 1 0 1 1 1 1 1 0.25000000 -8 -8 1544 872 0 2 1 1 0.00000000 0 1 0 0 0.500000 0 0 1.000000 64
        KEYSNAP 0 6 "102030050700" 0 "Pentatonic"
        EVTFILTER 0 -1 -1 -1 -1 0 1 0 0 -1.00000000 -1.00000000
      >
    >
  >
  <TRACK '{00BC8F48-6D85-40E8-8663-3C3CD19906D0}'
    NAME "bass"
    PEAKCOL 16576
    BEAT -1
    AUTOMODE 0
    VOLPAN 1.00000000000000 0.00000000000000 -1.00000000000000 -1.00000000000000 1.00000000000000
    MUTESOLO 0 0 0
    IPHASE 0
    ISBUS 2 -1
    BUSCOMP 0 0
    SHOWINMIX 1 0.666700 0.500000 1 0.500000 -1 -1 -1
    FREEMODE 0
    SEL 0
    REC 0 0 0 0 0 0 0
    VU 2
    TRACKHEIGHT 0 0
    INQ 0 0 0 0.5000000000 100 0 0 100
    NCHAN 2
    FX 1
    TRACKID {00BC8F48-6D85-40E8-8663-3C3CD19906D0}
    PERF 0
    MIDIOUT -1
    MAINSEND 1 0
    <ITEM
      POSITION 0.00000000000000
      SNAPOFFS 0.00000000000000
      LENGTH 135.40131519274377
      LOOP 0
      ALLTAKES 0
      SEL 0
      FADEIN 1 0.000000 0.000000 1 0
      FADEOUT 1 0.000000 0.000000 1 0
      MUTE 0
      IGUID {F9380788-BC9A-40BC-8CB2-501D77DD1F9A}
      IID 24
      NAME "bass.wav"
      VOLPAN 1.000000 0.000000 1.000000 -1.000000
      SOFFS 0.00000000000000
      PLAYRATE 1.00000000000000 1 0.00000000000000 -1
      CHANMODE 0
      GUID {BC12BA81-A3F1-40B7-9C45-69C37FBBE942}
      <SOURCE WAVE
        FILE "wav\bass.wav"
      >
    >
  >
  <TRACK '{70DA56EC-AC47-487B-9BDE-056F145BEAF2}'
    NAME "PART GUITAR"
    PEAKCOL 16576
    BEAT -1
    AUTOMODE 0
    VOLPAN 1.00000000000000 0.00000000000000 -1.00000000000000 -1.00000000000000 1.00000000000000
    MUTESOLO 0 0 0
    IPHASE 0
    ISBUS 1 1
    BUSCOMP 0 0
    SHOWINMIX 1 0.666700 0.500000 1 0.500000 -1 -1 -1
    FREEMODE 0
    SEL 0
    REC 0 0 0 0 0 0 0
    VU 2
    TRACKHEIGHT 0 0
    INQ 0 0 0 0.5000000000 100 0 0 100
    NCHAN 2
    FX 1
    TRACKID {70DA56EC-AC47-487B-9BDE-056F145BEAF2}
    PERF 0
    MIDIOUT -1
    <MIDINOTENAMES
      0 127 "TRILL MARKER"
      0 126 "TREMOLO MARKER"
      0 125 "---"
      0 124 "BRE"
      0 123 "BRE"
      0 122 "BRE"
      0 121 "BRE"
      0 120 "BRE (use all 5)"
      0 119 "----"
      0 116 "OVERDRIVE"
      0 115 "----"
      0 103 "Solo Marker"
      0 102 "Force HOPO Off"
      0 101 "Force HOPO On"
      0 100 "EXPERT Orange"
      0 99 "EXPERT Blue"
      0 98 "EXPERT Yellow"
      0 97 "EXPERT Red"
      0 96 "EXPERT Green"
      0 95 "----"
      0 90 "Force HOPO Off"
      0 89 "Force HOPO On"
      0 88 "HARD Orange"
      0 87 "HARD Blue"
      0 86 "HARD Yellow"
      0 85 "HARD Red"
      0 84 "HARD Green"
      0 77 "----"
      0 76 "MEDIUM Orange"
      0 75 "MEDIUM Blue"
      0 74 "MEDIUM Yellow"
      0 73 "MEDIUM Red"
      0 72 "MEDIUM Green"
      0 65 "----"
      0 64 "EASY Orange"
      0 63 "EASY Blue"
      0 62 "EASY Yellow"
      0 61 "EASY Red"
      0 60 "EASY Green"
      0 59 "Fret 12"
      0 57 "Fret 11"
      0 56 "Fret 10"
      0 55 "Fret 9"
      0 53 "Fret 8"
      0 52 "Fret 7"
      0 50 "Fret 6"
      0 49 "Fret 5"
      0 47 "Fret 4"
      0 45 "Fret 3"
      0 43 "Fret 2"
      0 40 "Fret 1"
    >
    MAINSEND 1 0
    <FXCHAIN
      WNDRECT 0 43 891 559
      SHOW 0
      LASTSEL 0
      DOCKED 0
      BYPASS 0 0
      <VST "VSTi: RBN Preview (RBN)" "rbprev_vst64.dll" 0 ""
        dnBicu5e7f4AAAAAAgAAAAEAAAAAAAAAAgAAAAAAAAAEAAAAAQAAAA==
        AAAQAAMAqgAAABAAAAA=
      >
      FLOATPOS 0 0 0 0
      FXID {F8420ED8-B023-42E2-8F1F-D8272F868297}
      WAK 0
    >
    <ITEM
      POSITION 0.00000000000000
      SNAPOFFS 0.00000000000000
      LENGTH 135.40100000000001
      LOOP 0
      ALLTAKES 0
      SEL 0
      FADEIN 1 0.000000 0.000000 1 0
      FADEOUT 1 0.000000 0.000000 1 0
      MUTE 0
      IGUID {72545E83-6D0F-4907-A34D-6FEB814F9A89}
      IID 3
      NAME "PART GUITAR"
      VOLPAN 1.000000 0.000000 1.000000 -1.000000
      SOFFS 0.00000000000000 0.00000000000000
      PLAYRATE 1.00000000000000 1 0.00000000000000 -1
      CHANMODE 0
      GUID {EEB54FC6-ECB0-4902-88BD-8E15D88D13EC}
      <SOURCE MIDI
        HASDATA 1 480 QN
        POOLEDEVTS {E50695D3-620E-41F2-A1D5-D4D997F5BA22}
        <X 0 0
          /wNQQVJUIEdVSVRBUg==
        >
        <X 3840 0
          /wFbaWRsZV0=
        >
        <X 21120 0
          /wFbcGxheV0=
        >
        <X 0 0
          /wFbbWFwIEhhbmRNYXBfQ2hvcmRfRF0=
        >
        E 0 90 2b 60
        E 0 90 3e 60
        E 0 90 49 60
        E 0 90 4a 60
        E 0 90 55 60
        E 0 90 56 60
        E 0 90 61 60
        E 0 90 62 60
        E 120 80 3e 00
        E 0 80 49 00
        E 0 80 4a 00
        E 0 80 55 00
        E 0 80 56 00
        E 0 80 61 00
        E 0 80 62 00
        E 120 90 49 60
        E 0 90 4a 60
        E 0 90 55 60
        E 0 90 56 60
        E 0 90 61 60
        E 0 90 62 60
        E 120 80 49 00
        E 0 80 4a 00
        E 0 80 55 00
        E 0 80 56 00
        E 0 80 61 00
        E 0 80 62 00
        E 120 90 3e 60
        E 0 90 49 60
        E 0 90 4a 60
        E 0 90 55 60
        E 0 90 56 60
        E 0 90 61 60
        E 0 90 62 60
        E 120 80 3e 00
        E 0 80 49 00
        E 0 80 4a 00
        E 0 80 55 00
        E 0 80 56 00
        E 0 80 61 00
        E 0 80 62 00
        E 120 90 49 60
        E 0 90 4a 60
        E 0 90 55 60
        E 0 90 56 60
        E 0 90 61 60
        E 0 90 62 60
        E 120 80 49 00
        E 0 80 4a 00
        E 0 80 55 00
        E 0 80 56 00
        E 0 80 61 00
        E 0 80 62 00
        E 120 90 3e 60
        E 0 90 49 60
        E 0 90 4a 60
        E 0 90 55 60
        E 0 90 56 60
        E 0 90 61 60
        E 0 90 62 60
        E 120 80 3e 00
        E 0 80 49 00
        E 0 80 4a 00
        E 0 80 55 00
        E 0 80 56 00
        E 0 80 61 00
        E 0 80 62 00
        E 120 90 49 60
        E 0 90 4a 60
        E 0 90 55 60
        E 0 90 56 60
        E 0 90 61 60
        E 0 90 62 60
        E 120 80 49 00
        E 0 80 4a 00
        E 0 80 55 00
        E 0 80 56 00
        E 0 80 61 00
        E 0 80 62 00
        E 120 90 3e 60
        E 0 90 49 60
        E 0 90 4a 60
        E 0 90 55 60
        E 0 90 56 60
        E 0 90 61 60
        E 0 90 62 60
        E 120 80 2b 00
        E 0 80 3e 00
        E 0 80 49 00
        E 0 80 4a 00
        E 0 80 55 00
        E 0 80 56 00
        E 0 80 61 00
        E 0 80 62 00
        <X 120 0
          /wFbbWFwIEhhbmRNYXBfQ2hvcmRfQV0=
        >
        E 0 90 2d 60
        E 0 90 56 60
        E 0 90 62 60
        E 120 80 56 00
        E 0 80 62 00
        E 120 90 3e 60
        E 0 90 4a 60
        E 0 90 4b 60
        E 0 90 56 60
        E 0 90 58 60
        E 0 90 62 60
        E 0 90 64 60
        E 120 80 3e 00
        E 0 80 4a 00
        E 0 80 4b 00
        E 0 80 56 00
        E 0 80 58 00
        E 0 80 62 00
        E 0 80 64 00
        E 120 90 4a 60
        E 0 90 4b 60
        E 0 90 56 60
        E 0 90 58 60
        E 0 90 62 60
        E 0 90 64 60
        E 120 80 4a 00
        E 0 80 4b 00
        E 0 80 56 00
        E 0 80 58 00
        E 0 80 62 00
        E 0 80 64 00
        E 120 90 3e 60
        E 0 90 4a 60
        E 0 90 4b 60
        E 0 90 56 60
        E 0 90 58 60
        E 0 90 62 60
        E 0 90 64 60
        E 120 80 3e 00
        E 0 80 4a 00
        E 0 80 4b 00
        E 0 80 56 00
        E 0 80 58 00
        E 0 80 62 00
        E 0 80 64 00
        E 120 90 4a 60
        E 0 90 4b 60
        E 0 90 56 60
        E 0 90 58 60
        E 0 90 62 60
        E 0 90 64 60
        E 120 80 4a 00
        E 0 80 4b 00
        E 0 80 56 00
        E 0 80 58 00
        E 0 80 62 00
        E 0 80 64 00
        E 120 90 3e 60
        E 0 90 4a 60
        E 0 90 4b 60
        E 0 90 56 60
        E 0 90 58 60
        E 0 90 62 60
        E 0 90 64 60
        E 120 80 3e 00
        E 0 80 4a 00
        E 0 80 4b 00
        E 0 80 56 00
        E 0 80 58 00
        E 0 80 62 00
        E 0 80 64 00
        E 120 90 4a 60
        E 0 90 4b 60
        E 0 90 56 60
        E 0 90 58 60
        E 0 90 62 60
        E 0 90 64 60
        E 120 80 4a 00
        E 0 80 4b 00
        E 0 80 56 00
        E 0 80 58 00
        E 0 80 62 00
        E 0 80 64 00
        E 120 90 3e 60
        E 0 90 4a 60
        E 0 90 4b 60
        E 0 90 56 60
        E 0 90 58 60
        E 0 90 62 60
        E 0 90 64 60
        E 120 80 2d 00
        E 0 80 3e 00
        E 0 80 4a 00
        E 0 80 4b 00
        E 0 80 56 00
        E 0 80 58 00
        E 0 80 62 00
        E 0 80 64 00
        <X 120 0
          /wFbbWFwIEhhbmRNYXBfQ2hvcmRfRF0=
        >
        E 0 90 2b 60
        E 0 90 55 60
        E 0 90 61 60
        E 120 80 55 00
        E 0 80 61 00
        E 120 90 3e 60
        E 0 90 49 60
        E 0 90 4a 60
        E 0 90 55 60
        E 0 90 56 60
        E 0 90 61 60
        E 0 90 62 60
        E 120 80 3e 00
        E 0 80 49 00
        E 0 80 4a 00
        E 0 80 55 00
        E 0 80 56 00
        E 0 80 61 00
        E 0 80 62 00
        E 120 90 49 60
        E 0 90 4a 60
        E 0 90 55 60
        E 0 90 56 60
        E 0 90 61 60
        E 0 90 62 60
        E 120 80 49 00
        E 0 80 4a 00
        E 0 80 55 00
        E 0 80 56 00
        E 0 80 61 00
        E 0 80 62 00
        E 120 90 3e 60
        E 0 90 49 60
        E 0 90 4a 60
        E 0 90 55 60
        E 0 90 56 60
        E 0 90 61 60
        E 0 90 62 60
        E 120 80 3e 00
        E 0 80 49 00
        E 0 80 4a 00
        E 0 80 55 00
        E 0 80 56 00
        E 0 80 61 00
        E 0 80 62 00
        E 120 90 49 60
        E 0 90 4a 60
        E 0 90 55 60
        E 0 90 56 60
        E 0 90 61 60
        E 0 90 62 60
        E 120 80 49 00
        E 0 80 4a 00
        E 0 80 55 00
        E 0 80 56 00
        E 0 80 61 00
        E 0 80 62 00
        E 360 90 49 60
        E 0 90 4a 60
        E 0 90 55 60
        E 0 90 56 60
        E 0 90 61 60
        E 0 90 62 60
        E 120 80 49 00
        E 0 80 4a 00
        E 0 80 55 00
        E 0 80 56 00
        E 0 80 61 00
        E 0 80 62 00
        E 120 90 3e 60
        E 0 90 49 60
        E 0 90 4a 60
        E 0 90 55 60
        E 0 90 56 60
        E 0 90 61 60
        E 0 90 62 60
        E 120 80 2b 00
        E 0 80 3e 00
        E 0 80 49 00
        E 0 80 4a 00
        E 0 80 55 00
        E 0 80 56 00
        E 0 80 61 00
        E 0 80 62 00
        <X 120 0
          /wFbbWFwIEhhbmRNYXBfQ2hvcmRfQV0=
        >
        E 0 90 2d 60
        E 0 90 56 60
        E 0 90 62 60
        E 120 80 56 00
        E 0 80 62 00
        E 120 90 3e 60
        E 0 90 4a 60
        E 0 90 4b 60
        E 0 90 56 60
        E 0 90 58 60
        E 0 90 62 60
        E 0 90 64 60
        E 120 80 3e 00
        E 0 80 4a 00
        E 0 80 4b 00
        E 0 80 56 00
        E 0 80 58 00
        E 0 80 62 00
        E 0 80 64 00
        E 120 90 4a 60
        E 0 90 4b 60
        E 0 90 56 60
        E 0 90 58 60
        E 0 90 62 60
        E 0 90 64 60
        E 120 80 4a 00
        E 0 80 4b 00
        E 0 80 56 00
        E 0 80 58 00
        E 0 80 62 00
        E 0 80 64 00
        E 120 90 3e 60
        E 0 90 4a 60
        E 0 90 4b 60
        E 0 90 56 60
        E 0 90 58 60
        E 0 90 62 60
        E 0 90 64 60
        E 120 80 3e 00
        E 0 80 4a 00
        E 0 80 4b 00
        E 0 80 56 00
        E 0 80 58 00
        E 0 80 62 00
        E 0 80 64 00
        E 120 90 4a 60
        E 0 90 4b 60
        E 0 90 56 60
        E 0 90 58 60
        E 0 90 62 60
        E 0 90 64 60
        E 120 80 4a 00
        E 0 80 4b 00
        E 0 80 56 00
        E 0 80 58 00
        E 0 80 62 00
        E 0 80 64 00
        E 360 90 4a 60
        E 0 90 4b 60
        E 0 90 56 60
        E 0 90 58 60
        E 0 90 62 60
        E 0 90 64 60
        E 120 80 4a 00
        E 0 80 4b 00
        E 0 80 56 00
        E 0 80 58 00
        E 0 80 62 00
        E 0 80 64 00
        E 120 90 3e 60
        E 0 90 4a 60
        E 0 90 4b 60
        E 0 90 56 60
        E 0 90 58 60
        E 0 90 62 60
        E 0 90 64 60
        E 120 80 2d 00
        E 0 80 3e 00
        E 0 80 4a 00
        E 0 80 4b 00
        E 0 80 56 00
        E 0 80 58 00
        E 0 80 62 00
        E 0 80 64 00
        <X 120 0
          /wFbbWFwIEhhbmRNYXBfQ2hvcmRfRF0=
        >
        E 0 90 2b 60
        E 0 90 55 60
        E 0 90 61 60
        E 120 80 55 00
        E 0 80 61 00
        E 120 90 3e 60
        E 0 90 49 60
        E 0 90 4a 60
        E 0 90 55 60
        E 0 90 56 60
        E 0 90 61 60
        E 0 90 62 60
        E 120 80 3e 00
        E 0 80 49 00
        E 0 80 4a 00
        E 0 80 55 00
        E 0 80 56 00
        E 0 80 61 00
        E 0 80 62 00
        E 120 90 49 60
        E 0 90 4a 60
        E 0 90 55 60
        E 0 90 56 60
        E 0 90 61 60
        E 0 90 62 60
        E 120 80 49 00
        E 0 80 4a 00
        E 0 80 55 00
        E 0 80 56 00
        E 0 80 61 00
        E 0 80 62 00
        E 120 90 3e 60
        E 0 90 49 60
        E 0 90 4a 60
        E 0 90 55 60
        E 0 90 56 60
        E 0 90 61 60
        E 0 90 62 60
        E 120 80 3e 00
        E 0 80 49 00
        E 0 80 4a 00
        E 0 80 55 00
        E 0 80 56 00
        E 0 80 61 00
        E 0 80 62 00
        E 120 90 49 60
        E 0 90 4a 60
        E 0 90 55 60
        E 0 90 56 60
        E 0 90 61 60
        E 0 90 62 60
        E 120 80 49 00
        E 0 80 4a 00
        E 0 80 55 00
        E 0 80 56 00
        E 0 80 61 00
        E 0 80 62 00
        E 360 90 49 60
        E 0 90 4a 60
        E 0 90 55 60
        E 0 90 56 60
        E 0 90 61 60
        E 0 90 62 60
        E 120 80 49 00
        E 0 80 4a 00
        E 0 80 55 00
        E 0 80 56 00
        E 0 80 61 00
        E 0 80 62 00
        E 120 90 3e 60
        E 0 90 49 60
        E 0 90 4a 60
        E 0 90 55 60
        E 0 90 56 60
        E 0 90 61 60
        E 0 90 62 60
        E 120 80 3e 00
        E 0 80 49 00
        E 0 80 4a 00
        E 0 80 55 00
        E 0 80 56 00
        E 0 80 61 00
        E 0 80 62 00
        E 1 80 2b 00
        <X 119 0
          /wFbbWFwIEhhbmRNYXBfQ2hvcmRfQV0=
        >
        E 0 90 2d 60
        E 0 90 56 60
        E 0 90 62 60
        E 120 80 56 00
        E 0 80 62 00
        E 120 90 3e 60
        E 0 90 4a 60
        E 0 90 4b 60
        E 0 90 56 60
        E 0 90 58 60
        E 0 90 62 60
        E 0 90 64 60
        E 120 80 3e 00
        E 0 80 4a 00
        E 0 80 4b 00
        E 0 80 56 00
        E 0 80 58 00
        E 0 80 62 00
        E 0 80 64 00
        E 120 90 4a 60
        E 0 90 4b 60
        E 0 90 56 60
        E 0 90 58 60
        E 0 90 62 60
        E 0 90 64 60
        E 120 80 4a 00
        E 0 80 4b 00
        E 0 80 56 00
        E 0 80 58 00
        E 0 80 62 00
        E 0 80 64 00
        E 120 90 3e 60
        E 0 90 4a 60
        E 0 90 4b 60
        E 0 90 56 60
        E 0 90 58 60
        E 0 90 62 60
        E 0 90 64 60
        E 120 80 3e 00
        E 0 80 4a 00
        E 0 80 4b 00
        E 0 80 56 00
        E 0 80 58 00
        E 0 80 62 00
        E 0 80 64 00
        E 120 90 4a 60
        E 0 90 4b 60
        E 0 90 56 60
        E 0 90 58 60
        E 0 90 62 60
        E 0 90 64 60
        E 120 80 4a 00
        E 0 80 4b 00
        E 0 80 56 00
        E 0 80 58 00
        E 0 80 62 00
        E 0 80 64 00
        E 360 90 4a 60
        E 0 90 4b 60
        E 0 90 56 60
        E 0 90 58 60
        E 0 90 62 60
        E 0 90 64 60
        E 120 80 4a 00
        E 0 80 4b 00
        E 0 80 56 00
        E 0 80 58 00
        E 0 80 62 00
        E 0 80 64 00
        E 120 90 3e 60
        E 0 90 4a 60
        E 0 90 4b 60
        E 0 90 56 60
        E 0 90 58 60
        E 0 90 62 60
        E 0 90 64 60
        E 120 80 2d 00
        E 0 80 3e 00
        E 0 80 4a 00
        E 0 80 4b 00
        E 0 80 56 00
        E 0 80 58 00
        E 0 80 62 00
        E 0 80 64 00
        <X 120 0
          /wFbbWFwIEhhbmRNYXBfQ2hvcmRfRF0=
        >
        E 0 90 2b 60
        E 240 90 3e 60
        E 0 90 49 60
        E 0 90 4a 60
        E 0 90 55 60
        E 0 90 56 60
        E 0 90 61 60
        E 0 90 62 60
        E 120 80 3e 00
        E 0 80 49 00
        E 0 80 4a 00
        E 0 80 55 00
        E 0 80 56 00
        E 0 80 61 00
        E 0 80 62 00
        E 120 90 49 60
        E 0 90 4a 60
        E 0 90 55 60
        E 0 90 56 60
        E 0 90 61 60
        E 0 90 62 60
        E 120 80 49 00
        E 0 80 4a 00
        E 0 80 55 00
        E 0 80 56 00
        E 0 80 61 00
        E 0 80 62 00
        E 120 90 3e 60
        E 0 90 49 60
        E 0 90 4a 60
        E 0 90 55 60
        E 0 90 56 60
        E 0 90 61 60
        E 0 90 62 60
        E 120 80 3e 00
        E 0 80 49 00
        E 0 80 4a 00
        E 0 80 55 00
        E 0 80 56 00
        E 0 80 61 00
        E 0 80 62 00
        E 120 90 49 60
        E 0 90 4a 60
        E 0 90 55 60
        E 0 90 56 60
        E 0 90 61 60
        E 0 90 62 60
        E 120 80 49 00
        E 0 80 4a 00
        E 0 80 55 00
        E 0 80 56 00
        E 0 80 61 00
        E 0 80 62 00
        E 120 90 3e 60
        E 0 90 49 60
        E 0 90 4a 60
        E 0 90 55 60
        E 0 90 56 60
        E 0 90 61 60
        E 0 90 62 60
        E 120 80 3e 00
        E 0 80 49 00
        E 0 80 4a 00
        E 0 80 55 00
        E 0 80 56 00
        E 0 80 61 00
        E 0 80 62 00
        E 120 90 49 60
        E 0 90 4a 60
        E 0 90 55 60
        E 0 90 56 60
        E 0 90 61 60
        E 0 90 62 60
        E 120 80 49 00
        E 0 80 4a 00
        E 0 80 55 00
        E 0 80 56 00
        E 0 80 61 00
        E 0 80 62 00
        E 120 90 3e 60
        E 0 90 49 60
        E 0 90 4a 60
        E 0 90 55 60
        E 0 90 56 60
        E 0 90 61 60
        E 0 90 62 60
        E 120 80 3e 00
        E 0 80 49 00
        E 0 80 4a 00
        E 0 80 55 00
        E 0 80 56 00
        E 0 80 61 00
        E 0 80 62 00
        E 1 80 2b 00
        <X 119 0
          /wFbbWFwIEhhbmRNYXBfQ2hvcmRfQV0=
        >
        E 0 90 2d 60
        E 0 90 56 60
        E 0 90 62 60
        E 120 80 56 00
        E 0 80 62 00
        E 120 90 3e 60
        E 0 90 4a 60
        E 0 90 4b 60
        E 0 90 56 60
        E 0 90 58 60
        E 0 90 62 60
        E 0 90 64 60
        E 120 80 3e 00
        E 0 80 4a 00
        E 0 80 4b 00
        E 0 80 56 00
        E 0 80 58 00
        E 0 80 62 00
        E 0 80 64 00
        E 120 90 4a 60
        E 0 90 4b 60
        E 0 90 56 60
        E 0 90 58 60
        E 0 90 62 60
        E 0 90 64 60
        E 120 80 4a 00
        E 0 80 4b 00
        E 0 80 56 00
        E 0 80 58 00
        E 0 80 62 00
        E 0 80 64 00
        E 120 90 3e 60
        E 0 90 4a 60
        E 0 90 4b 60
        E 0 90 56 60
        E 0 90 58 60
        E 0 90 62 60
        E 0 90 64 60
        E 120 80 3e 00
        E 0 80 4a 00
        E 0 80 4b 00
        E 0 80 56 00
        E 0 80 58 00
        E 0 80 62 00
        E 0 80 64 00
        E 120 90 4a 60
        E 0 90 4b 60
        E 0 90 56 60
        E 0 90 58 60
        E 0 90 62 60
        E 0 90 64 60
        E 120 80 4a 00
        E 0 80 4b 00
        E 0 80 56 00
        E 0 80 58 00
        E 0 80 62 00
        E 0 80 64 00
        E 360 90 4a 60
        E 0 90 4b 60
        E 0 90 56 60
        E 0 90 58 60
        E 0 90 62 60
        E 0 90 64 60
        E 120 80 4a 00
        E 0 80 4b 00
        E 0 80 56 00
        E 0 80 58 00
        E 0 80 62 00
        E 0 80 64 00
        E 120 90 3e 60
        E 0 90 4a 60
        E 0 90 4b 60
        E 0 90 56 60
        E 0 90 58 60
        E 0 90 62 60
        E 0 90 64 60
        E 120 80 3e 00
        E 0 80 4a 00
        E 0 80 4b 00
        E 0 80 56 00
        E 0 80 58 00
        E 0 80 62 00
        E 0 80 64 00
        E 120 90 55 60
        E 0 90 61 60
        E 120 80 2d 00
        E 0 80 55 00
        E 0 80 61 00
        <X 120 0
          /wFbbWFwIEhhbmRNYXBfQ2hvcmRfRF0=
        >
        E 0 90 34 60
        E 0 90 3e 60
        E 0 90 4b 60
        E 0 90 57 60
        E 0 90 63 60
        E 0 90 74 60
        E 120 80 3e 00
        E 0 80 4b 00
        E 0 80 57 00
        E 0 80 63 00
        E 120 90 57 60
        E 0 90 58 60
        E 0 90 63 60
        E 0 90 64 60
        E 120 80 57 00
        E 0 80 58 00
        E 0 80 63 00
        E 0 80 64 00
        E 120 90 3e 60
        E 0 90 4b 60
        E 0 90 57 60
        E 0 90 63 60
        E 120 80 3e 00
        E 0 80 4b 00
        E 0 80 57 00
        E 0 80 63 00
        E 120 90 57 60
        E 0 90 58 60
        E 0 90 63 60
        E 0 90 64 60
        E 120 80 57 00
        E 0 80 58 00
        E 0 80 63 00
        E 0 80 64 00
        E 120 90 3e 60
        E 0 90 4b 60
        E 0 90 4c 60
        E 0 90 57 60
        E 0 90 58 60
        E 0 90 63 60
        E 0 90 64 60
        E 120 80 34 00
        E 0 80 3e 00
        E 0 80 4b 00
        E 0 80 4c 00
        E 0 80 57 00
        E 0 80 58 00
        E 0 80 63 00
        E 0 80 64 00
        E 840 90 31 60
        E 0 90 3d 60
        E 0 90 49 60
        E 0 90 55 60
        E 0 90 61 60
        E 120 80 3d 00
        E 0 80 49 00
        E 0 80 55 00
        E 0 80 61 00
        E 120 90 55 60
        E 0 90 57 60
        E 0 90 61 60
        E 0 90 63 60
        E 120 80 55 00
        E 0 80 57 00
        E 0 80 61 00
        E 0 80 63 00
        E 120 90 49 60
        E 0 90 55 60
        E 0 90 61 60
        E 120 80 49 00
        E 0 80 55 00
        E 0 80 61 00
        E 120 90 55 60
        E 0 90 57 60
        E 0 90 61 60
        E 0 90 63 60
        E 120 80 74 00
        E 0 80 55 00
        E 0 80 57 00
        E 0 80 61 00
        E 0 80 63 00
        E 120 90 3e 60
        E 0 90 4b 60
        E 0 90 58 60
        E 0 90 61 60
        E 0 90 63 60
        E 80 80 31 00
        E 0 80 61 00
        E 0 80 63 00
        E 0 90 34 60
        E 0 90 64 60
        E 0 90 65 60
        E 40 80 3e 00
        E 0 80 4b 00
        E 0 80 58 00
        E 40 80 64 00
        E 0 80 65 00
        E 80 80 34 00
        E 0 90 31 60
        <X 240 0
          /wFbbWFwIEhhbmRNYXBfRGVmYXVsdF0=
        >
        E 0 90 3e 60
        E 0 90 4a 60
        E 0 90 56 60
        E 0 90 61 60
        E 0 90 63 60
        E 120 80 31 00
        E 0 80 3e 00
        E 0 80 4a 00
        E 0 80 56 00
        E 0 80 61 00
        E 0 80 63 00
        E 0 90 34 60
        E 0 90 62 60
        E 0 90 65 60
        E 120 80 62 00
        E 0 80 65 00
        E 240 90 3e 60
        E 0 90 4a 60
        E 0 90 4b 60
        E 0 90 56 60
        E 0 90 57 60
        E 0 90 62 60
        E 0 90 63 60
        E 720 80 3e 00
        E 0 80 4a 00
        E 0 80 4b 00
        E 360 80 56 00
        E 0 80 57 00
        E 0 80 62 00
        E 0 80 63 00
        E 120 90 3e 60
        E 0 90 4b 60
        E 0 90 57 60
        E 0 90 63 60
        E 120 80 3e 00
        E 0 80 4b 00
        E 0 80 57 00
        E 0 80 63 00
        E 360 90 4b 60
        E 0 90 57 60
        E 0 90 63 60
        E 120 80 34 00
        E 0 80 4b 00
        E 0 80 57 00
        E 0 80 63 00
        E 240 90 31 60
        E 40 90 56 60
        E 0 90 62 60
        E 680 80 56 00
        E 0 80 62 00
        E 120 90 3d 60
        E 0 90 49 60
        E 0 90 55 60
        E 0 90 61 60
        E 80 80 3d 00
        E 0 80 49 00
        E 0 80 55 00
        E 0 80 61 00
        E 0 90 62 60
        E 0 90 65 60
        E 80 80 62 00
        E 0 90 61 60
        E 80 80 61 00
        E 80 80 65 00
        E 40 80 31 00
        E 120 90 2d 60
        E 0 90 48 60
        E 0 90 54 60
        E 0 90 60 60
        E 120 80 48 00
        E 0 80 54 00
        E 0 80 60 00
        E 360 90 3c 60
        E 0 90 48 60
        E 0 90 54 60
        E 0 90 60 60
        E 720 80 3c 00
        E 0 80 48 00
        E 240 80 54 00
        E 0 80 60 00
        E 240 90 49 60
        E 0 90 55 60
        E 0 90 61 60
        E 120 80 49 00
        E 0 80 55 00
        E 0 80 61 00
        E 360 90 56 60
        E 0 90 62 60
        E 120 80 56 00
        E 0 80 62 00
        E 120 90 3c 60
        E 0 90 48 60
        E 0 90 54 60
        E 0 90 60 60
        E 120 80 3c 00
        E 0 80 48 00
        E 0 80 54 00
        E 0 80 60 00
        E 360 90 49 60
        E 0 90 55 60
        E 0 90 61 60
        E 120 80 2d 00
        E 0 80 49 00
        E 0 80 55 00
        E 0 80 61 00
        E 120 90 31 60
        E 0 90 56 60
        E 0 90 62 60
        E 120 80 56 00
        E 0 80 62 00
        E 360 90 4b 60
        E 0 90 57 60
        E 0 90 63 60
        E 0 90 65 60
        E 120 80 4b 00
        E 0 80 57 00
        E 0 80 63 00
        E 0 80 65 00
        E 120 90 3e 60
        E 0 90 4b 60
        E 0 90 58 60
        E 0 90 63 60
        E 120 80 31 00
        E 0 80 63 00
        E 0 90 34 60
        E 0 90 64 60
        E 0 90 65 60
        E 1080 80 3e 00
        E 0 80 4b 00
        E 240 80 58 00
        E 0 80 34 00
        E 0 80 64 00
        E 0 80 65 00
        E 240 90 2d 60
        E 0 90 49 60
        E 0 90 55 60
        E 0 90 61 60
        E 120 80 49 00
        E 0 80 55 00
        E 0 80 61 00
        E 360 90 56 60
        E 0 90 62 60
        E 120 80 56 00
        E 0 80 62 00
        E 120 90 3c 60
        E 0 90 48 60
        E 0 90 54 60
        E 0 90 60 60
        E 120 80 3c 00
        E 0 80 48 00
        E 0 80 54 00
        E 0 80 60 00
        E 360 90 49 60
        E 0 90 55 60
        E 0 90 61 60
        E 120 80 2d 00
        E 0 80 49 00
        E 0 80 55 00
        E 0 80 61 00
        E 120 90 31 60
        E 0 90 56 60
        E 0 90 62 60
        E 120 80 56 00
        E 0 80 62 00
        E 360 90 4b 60
        E 0 90 57 60
        E 0 90 63 60
        E 120 80 4b 00
        E 0 80 57 00
        E 0 80 63 00
        E 120 80 31 00
        E 0 90 34 60
        E 0 90 3e 60
        E 0 90 4b 60
        E 0 90 58 60
        E 0 90 64 60
        E 0 90 65 60
        E 1200 80 34 00
        E 480 80 3e 00
        E 0 80 4b 00
        E 0 80 58 00
        E 0 80 64 00
        E 0 80 65 00
        <X 240 0
          /wFbbWFwIEhhbmRNYXBfQ2hvcmRfQV0=
        >
        E 0 90 2d 60
        E 240 90 56 60
        E 0 90 62 60
        E 120 80 56 00
        E 0 80 62 00
        E 120 90 3e 60
        E 0 90 4a 60
        E 0 90 4b 60
        E 0 90 56 60
        E 0 90 58 60
        E 0 90 62 60
        E 0 90 64 60
        E 120 80 3e 00
        E 0 80 4a 00
        E 0 80 4b 00
        E 0 80 56 00
        E 0 80 58 00
        E 0 80 62 00
        E 0 80 64 00
        E 120 90 4a 60
        E 0 90 4b 60
        E 0 90 56 60
        E 0 90 58 60
        E 0 90 62 60
        E 0 90 64 60
        E 120 80 4a 00
        E 0 80 4b 00
        E 0 80 56 00
        E 0 80 58 00
        E 0 80 62 00
        E 0 80 64 00
        E 120 90 3e 60
        E 0 90 4a 60
        E 0 90 4b 60
        E 0 90 56 60
        E 0 90 58 60
        E 0 90 62 60
        E 0 90 64 60
        E 120 80 3e 00
        E 0 80 4a 00
        E 0 80 4b 00
        E 0 80 56 00
        E 0 80 58 00
        E 0 80 62 00
        E 0 80 64 00
        E 120 90 4a 60
        E 0 90 4b 60
        E 0 90 56 60
        E 0 90 58 60
        E 0 90 62 60
        E 0 90 64 60
        E 120 80 4a 00
        E 0 80 4b 00
        E 0 80 56 00
        E 0 80 58 00
        E 0 80 62 00
        E 0 80 64 00
        E 120 90 3e 60
        E 0 90 4a 60
        E 0 90 4b 60
        E 0 90 56 60
        E 0 90 58 60
        E 0 90 62 60
        E 0 90 64 60
        E 120 80 3e 00
        E 0 80 4a 00
        E 0 80 4b 00
        E 0 80 56 00
        E 0 80 58 00
        E 0 80 62 00
        E 0 80 64 00
        E 120 90 4a 60
        E 0 90 4b 60
        E 0 90 56 60
        E 0 90 58 60
        E 0 90 62 60
        E 0 90 64 60
        E 120 80 4a 00
        E 0 80 4b 00
        E 0 80 56 00
        E 0 80 58 00
        E 0 80 62 00
        E 0 80 64 00
        E 120 90 3e 60
        E 0 90 4a 60
        E 0 90 4b 60
        E 0 90 56 60
        E 0 90 58 60
        E 0 90 62 60
        E 0 90 64 60
        E 120 80 2d 00
        E 0 80 3e 00
        E 0 80 4a 00
        E 0 80 4b 00
        E 0 80 56 00
        E 0 80 58 00
        E 0 80 62 00
        E 0 80 64 00
        <X 120 0
          /wFbbWFwIEhhbmRNYXBfQ2hvcmRfRF0=
        >
        E 0 90 2b 60
        E 0 90 55 60
        E 0 90 61 60
        E 120 80 55 00
        E 0 80 61 00
        E 120 90 3e 60
        E 0 90 49 60
        E 0 90 4a 60
        E 0 90 55 60
        E 0 90 56 60
        E 0 90 61 60
        E 0 90 62 60
        E 0 90 74 60
        E 120 80 3e 00
        E 0 80 49 00
        E 0 80 4a 00
        E 0 80 55 00
        E 0 80 56 00
        E 0 80 61 00
        E 0 80 62 00
        E 120 90 49 60
        E 0 90 4a 60
        E 0 90 55 60
        E 0 90 56 60
        E 0 90 61 60
        E 0 90 62 60
        E 120 80 49 00
        E 0 80 4a 00
        E 0 80 55 00
        E 0 80 56 00
        E 0 80 61 00
        E 0 80 62 00
        E 120 90 3e 60
        E 0 90 49 60
        E 0 90 4a 60
        E 0 90 55 60
        E 0 90 56 60
        E 0 90 61 60
        E 0 90 62 60
        E 120 80 3e 00
        E 0 80 49 00
        E 0 80 4a 00
        E 0 80 55 00
        E 0 80 56 00
        E 0 80 61 00
        E 0 80 62 00
        E 120 90 49 60
        E 0 90 4a 60
        E 0 90 55 60
        E 0 90 56 60
        E 0 90 61 60
        E 0 90 62 60
        E 120 80 49 00
        E 0 80 4a 00
        E 0 80 55 00
        E 0 80 56 00
        E 0 80 61 00
        E 0 80 62 00
        E 120 90 3e 60
        E 0 90 49 60
        E 0 90 4a 60
        E 0 90 55 60
        E 0 90 56 60
        E 0 90 61 60
        E 0 90 62 60
        E 120 80 3e 00
        E 0 80 49 00
        E 0 80 4a 00
        E 0 80 55 00
        E 0 80 56 00
        E 0 80 61 00
        E 0 80 62 00
        E 120 90 49 60
        E 0 90 4a 60
        E 0 90 55 60
        E 0 90 56 60
        E 0 90 61 60
        E 0 90 62 60
        E 120 80 49 00
        E 0 80 4a 00
        E 0 80 55 00
        E 0 80 56 00
        E 0 80 61 00
        E 0 80 62 00
        E 120 90 3e 60
        E 0 90 49 60
        E 0 90 4a 60
        E 0 90 55 60
        E 0 90 56 60
        E 0 90 61 60
        E 0 90 62 60
        E 120 80 2b 00
        E 0 80 3e 00
        E 0 80 49 00
        E 0 80 4a 00
        E 0 80 55 00
        E 0 80 56 00
        E 0 80 61 00
        E 0 80 62 00
        <X 120 0
          /wFbbWFwIEhhbmRNYXBfQ2hvcmRfQV0=
        >
        E 0 90 2d 60
        E 0 90 56 60
        E 0 90 62 60
        E 120 80 56 00
        E 0 80 62 00
        E 120 90 3e 60
        E 0 90 4a 60
        E 0 90 4b 60
        E 0 90 56 60
        E 0 90 58 60
        E 0 90 62 60
        E 0 90 64 60
        E 120 80 3e 00
        E 0 80 4a 00
        E 0 80 4b 00
        E 0 80 56 00
        E 0 80 58 00
        E 0 80 62 00
        E 0 80 64 00
        E 120 90 4a 60
        E 0 90 4b 60
        E 0 90 56 60
        E 0 90 58 60
        E 0 90 62 60
        E 0 90 64 60
        E 120 80 4a 00
        E 0 80 4b 00
        E 0 80 56 00
        E 0 80 58 00
        E 0 80 62 00
        E 0 80 64 00
        E 120 90 3e 60
        E 0 90 4a 60
        E 0 90 4b 60
        E 0 90 56 60
        E 0 90 58 60
        E 0 90 62 60
        E 0 90 64 60
        E 120 80 3e 00
        E 0 80 4a 00
        E 0 80 4b 00
        E 0 80 56 00
        E 0 80 58 00
        E 0 80 62 00
        E 0 80 64 00
        E 120 90 4a 60
        E 0 90 4b 60
        E 0 90 56 60
        E 0 90 58 60
        E 0 90 62 60
        E 0 90 64 60
        E 120 80 4a 00
        E 0 80 4b 00
        E 0 80 56 00
        E 0 80 58 00
        E 0 80 62 00
        E 0 80 64 00
        E 120 90 3e 60
        E 0 90 4a 60
        E 0 90 4b 60
        E 0 90 56 60
        E 0 90 58 60
        E 0 90 62 60
        E 0 90 64 60
        E 120 80 3e 00
        E 0 80 4a 00
        E 0 80 4b 00
        E 0 80 56 00
        E 0 80 58 00
        E 0 80 62 00
        E 0 80 64 00
        E 120 90 4a 60
        E 0 90 4b 60
        E 0 90 56 60
        E 0 90 58 60
        E 0 90 62 60
        E 0 90 64 60
        E 120 80 4a 00
        E 0 80 4b 00
        E 0 80 56 00
        E 0 80 58 00
        E 0 80 62 00
        E 0 80 64 00
        E 120 90 4a 60
        E 0 90 4b 60
        E 0 90 56 60
        E 0 90 58 60
        E 0 90 62 60
        E 0 90 64 60
        E 120 80 4a 00
        E 0 80 4b 00
        E 0 80 56 00
        E 0 80 58 00
        E 0 80 62 00
        E 0 80 64 00
        E 120 90 56 60
        E 0 90 62 60
        E 120 80 74 00
        E 0 80 2d 00
        E 0 80 56 00
        E 0 80 62 00
        <X 120 0
          /wFbbWFwIEhhbmRNYXBfQ2hvcmRfRF0=
        >
        E 0 90 2b 60
        E 0 90 3d 60
        E 0 90 49 60
        E 0 90 55 60
        E 0 90 61 60
        E 120 80 2b 00
        E 0 80 3d 00
        E 0 80 49 00
        E 0 80 55 00
        E 0 80 61 00
        E 120 90 34 60
        E 0 90 57 60
        E 0 90 58 60
        E 0 90 63 60
        E 0 90 64 60
        E 120 80 57 00
        E 0 80 58 00
        E 0 80 63 00
        E 0 80 64 00
        E 320 90 4b 60
        E 0 90 4c 60
        E 0 90 57 60
        E 0 90 58 60
        E 0 90 63 60
        E 0 90 64 60
        E 80 80 4b 00
        E 0 80 4c 00
        E 0 80 57 00
        E 0 80 58 00
        E 0 80 63 00
        E 0 80 64 00
        E 200 90 3e 60
        E 0 90 4b 60
        E 0 90 4c 60
        E 0 90 57 60
        E 0 90 58 60
        E 0 90 63 60
        E 0 90 64 60
        E 120 80 3e 00
        E 0 80 4b 00
        E 0 80 4c 00
        E 0 80 57 00
        E 0 80 58 00
        E 0 80 63 00
        E 0 80 64 00
        E 120 80 34 00
        E 240 90 31 60
        E 0 90 3e 60
        E 0 90 4a 60
        E 0 90 4b 60
        E 0 90 56 60
        E 0 90 58 60
        E 0 90 62 60
        E 0 90 64 60
        E 120 80 3e 00
        E 0 80 4a 00
        E 0 80 4b 00
        E 360 80 31 00
        E 0 80 56 00
        E 0 80 58 00
        E 0 80 62 00
        E 0 80 64 00
        E 240 90 2d 60
        E 0 90 4a 60
        E 0 90 4b 60
        E 0 90 56 60
        E 0 90 57 60
        E 0 90 62 60
        E 0 90 63 60
        E 120 80 4a 00
        E 0 80 4b 00
        E 0 80 56 00
        E 0 80 57 00
        E 0 80 62 00
        E 0 80 63 00
        E 120 90 3e 60
        E 0 90 4a 60
        E 0 90 4b 60
        E 0 90 56 60
        E 0 90 57 60
        E 0 90 62 60
        E 0 90 63 60
        E 120 80 3e 00
        E 0 80 4a 00
        E 0 80 4b 00
        E 0 80 56 00
        E 0 80 57 00
        E 0 80 62 00
        E 0 80 63 00
        E 120 90 4a 60
        E 0 90 4b 60
        E 0 90 56 60
        E 0 90 57 60
        E 0 90 62 60
        E 0 90 63 60
        E 120 80 4a 00
        E 0 80 4b 00
        E 0 80 56 00
        E 0 80 57 00
        E 0 80 62 00
        E 0 80 63 00
        E 120 90 3e 60
        E 0 90 4a 60
        E 0 90 4b 60
        E 0 90 56 60
        E 0 90 57 60
        E 0 90 62 60
        E 0 90 63 60
        E 120 80 2d 00
        E 0 80 3e 00
        E 0 80 4a 00
        E 0 80 4b 00
        E 0 80 56 00
        E 0 80 57 00
        E 0 80 62 00
        E 0 80 63 00
        E 120 90 2b 60
        E 0 90 55 60
        E 0 90 61 60
        E 0 90 65 60
        E 120 80 55 00
        E 0 80 61 00
        E 0 80 65 00
        E 120 90 49 60
        E 0 90 4b 60
        E 0 90 55 60
        E 0 90 57 60
        E 0 90 61 60
        E 0 90 63 60
        E 720 80 49 00
        E 0 80 4b 00
        E 360 80 55 00
        E 0 80 57 00
        E 0 80 61 00
        E 0 80 63 00
        E 120 90 3f 60
        E 0 90 49 60
        E 0 90 4b 60
        E 0 90 55 60
        E 0 90 57 60
        E 0 90 61 60
        E 0 90 63 60
        E 720 80 2b 00
        E 0 80 3f 00
        E 0 80 49 00
        E 0 80 4b 00
        E 0 80 55 00
        E 0 80 57 00
        E 0 80 61 00
        E 0 80 63 00
        E 1200 90 31 60
        E 0 90 3e 60
        E 0 90 4a 60
        E 0 90 4b 60
        E 0 90 56 60
        E 0 90 57 60
        E 0 90 62 60
        E 0 90 63 60
        E 120 80 3e 00
        E 0 80 4a 00
        E 0 80 4b 00
        E 0 80 56 00
        E 0 80 57 00
        E 0 80 62 00
        E 0 80 63 00
        E 360 90 56 60
        E 0 90 57 60
        E 0 90 62 60
        E 0 90 63 60
        E 120 80 56 00
        E 0 80 57 00
        E 0 80 62 00
        E 0 80 63 00
        E 120 90 4b 60
        E 0 90 58 60
        E 0 90 62 60
        E 0 90 63 60
        E 120 80 31 00
        E 0 80 4b 00
        E 0 80 58 00
        E 0 80 62 00
        E 0 80 63 00
        E 0 90 34 60
        E 0 90 64 60
        E 0 90 65 60
        E 120 80 34 00
        E 0 80 64 00
        E 0 80 65 00
        <X 240 0
          /wFbbWFwIEhhbmRNYXBfQWxsQ2hvcmRzXQ==
        >
        E 0 90 31 60
        E 0 90 3c 60
        E 0 90 48 60
        E 0 90 54 60
        E 0 90 60 60
        E 120 80 3c 00
        E 0 80 48 00
        E 0 80 54 00
        E 0 80 60 00
        E 120 90 55 60
        E 0 90 61 60
        E 120 80 55 00
        E 0 80 61 00
        E 360 90 4b 60
        E 0 90 57 60
        E 0 90 63 60
        E 120 80 4b 00
        E 0 80 57 00
        E 0 80 63 00
        E 360 90 3d 60
        E 0 90 49 60
        E 0 90 55 60
        E 0 90 61 60
        E 120 80 3d 00
        E 0 80 49 00
        E 0 80 55 00
        E 0 80 61 00
        E 360 90 54 60
        E 0 90 60 60
        E 120 80 31 00
        E 0 80 54 00
        E 0 80 60 00
        E 120 90 2d 60
        E 0 90 3d 60
        E 0 90 49 60
        E 0 90 55 60
        E 0 90 61 60
        E 120 80 3d 00
        E 0 80 49 00
        E 0 80 55 00
        E 0 80 61 00
        E 120 90 56 60
        E 0 90 62 60
        E 0 90 65 60
        E 120 80 56 00
        E 0 80 62 00
        E 0 80 65 00
        E 120 90 4a 60
        E 0 90 56 60
        E 0 90 62 60
        E 120 80 4a 00
        E 0 80 56 00
        E 0 80 62 00
        E 120 90 58 60
        E 0 90 64 60
        E 120 80 58 00
        E 0 80 64 00
        E 360 90 3e 60
        E 0 90 4a 60
        E 0 90 4b 60
        E 0 90 56 60
        E 0 90 58 60
        E 0 90 62 60
        E 0 90 64 60
        E 120 80 3e 00
        E 0 80 4a 00
        E 0 80 4b 00
        E 0 80 56 00
        E 0 80 58 00
        E 0 80 62 00
        E 0 80 64 00
        E 360 90 55 60
        E 0 90 61 60
        E 0 90 65 60
        E 120 80 55 00
        E 0 80 61 00
        E 0 80 65 00
        E 120 90 3e 60
        E 0 90 49 60
        E 0 90 4a 60
        E 0 90 55 60
        E 0 90 56 60
        E 0 90 61 60
        E 0 90 62 60
        E 1200 80 3e 00
        E 0 80 49 00
        E 0 80 4a 00
        E 360 80 2d 00
        E 0 80 55 00
        E 0 80 56 00
        E 0 80 61 00
        E 0 80 62 00
        <X 120 0
          /wFbbWFwIEhhbmRNYXBfQ2hvcmRfRF0=
        >
        E 0 90 34 60
        E 0 90 4b 60
        E 0 90 4c 60
        E 0 90 57 60
        E 0 90 58 60
        E 0 90 63 60
        E 0 90 64 60
        E 120 80 4b 00
        E 0 80 4c 00
        E 0 80 57 00
        E 0 80 58 00
        E 0 80 63 00
        E 0 80 64 00
        E 120 90 3e 60
        E 0 90 4b 60
        E 0 90 4c 60
        E 0 90 57 60
        E 0 90 58 60
        E 0 90 63 60
        E 0 90 64 60
        E 120 80 3e 00
        E 0 80 4b 00
        E 0 80 4c 00
        E 0 80 57 00
        E 0 80 58 00
        E 0 80 63 00
        E 0 80 64 00
        E 120 90 4b 60
        E 0 90 4c 60
        E 0 90 57 60
        E 0 90 58 60
        E 0 90 63 60
        E 0 90 64 60
        E 120 80 4b 00
        E 0 80 4c 00
        E 0 80 57 00
        E 0 80 58 00
        E 0 80 63 00
        E 0 80 64 00
        E 120 80 34 00
        E 240 90 31 60
        E 0 90 56 60
        E 0 90 62 60
        E 120 80 56 00
        E 0 80 62 00
        E 120 90 3e 60
        E 0 90 4a 60
        E 0 90 4b 60
        E 0 90 56 60
        E 0 90 58 60
        E 0 90 62 60
        E 0 90 64 60
        E 120 80 3e 00
        E 0 80 4a 00
        E 0 80 4b 00
        E 0 80 56 00
        E 0 80 58 00
        E 0 80 62 00
        E 0 80 64 00
        E 120 80 31 00
        E 240 90 2d 60
        E 0 90 4a 60
        E 0 90 4b 60
        E 0 90 56 60
        E 0 90 57 60
        E 0 90 62 60
        E 0 90 63 60
        E 120 80 4a 00
        E 0 80 4b 00
        E 0 80 56 00
        E 0 80 57 00
        E 0 80 62 00
        E 0 80 63 00
        E 120 90 56 60
        E 0 90 57 60
        E 0 90 62 60
        E 0 90 63 60
        E 120 80 2d 00
        E 0 80 56 00
        E 0 80 57 00
        E 0 80 62 00
        E 0 80 63 00
        E 120 90 2b 60
        E 0 90 3d 60
        E 0 90 49 60
        E 0 90 55 60
        E 0 90 61 60
        E 0 90 65 60
        E 120 80 3d 00
        E 0 80 49 00
        E 0 80 55 00
        E 0 80 61 00
        E 0 80 65 00
        E 360 90 49 60
        E 0 90 4b 60
        E 0 90 55 60
        E 0 90 57 60
        E 0 90 61 60
        E 0 90 63 60
        E 120 80 49 00
        E 0 80 4b 00
        E 480 80 55 00
        E 0 80 57 00
        E 0 80 61 00
        E 0 80 63 00
        E 120 90 49 60
        E 0 90 4b 60
        E 0 90 55 60
        E 0 90 57 60
        E 0 90 61 60
        E 0 90 63 60
        E 120 80 49 00
        E 0 80 4b 00
        E 0 80 55 00
        E 0 80 57 00
        E 0 80 61 00
        E 0 80 63 00
        E 120 80 2b 00
        E 240 90 2d 60
        E 120 80 2d 00
        E 120 90 31 60
        E 0 90 3e 60
        E 0 90 4a 60
        E 0 90 4b 60
        E 0 90 56 60
        E 0 90 58 60
        E 0 90 62 60
        E 0 90 64 60
        E 120 80 3e 00
        E 0 80 4a 00
        E 0 80 4b 00
        E 0 80 56 00
        E 0 80 58 00
        E 0 80 62 00
        E 0 80 64 00
        E 120 90 56 60
        E 0 90 58 60
        E 0 90 62 60
        E 0 90 64 60
        E 120 80 31 00
        E 0 80 56 00
        E 0 80 58 00
        E 0 80 62 00
        E 0 80 64 00
        E 120 90 2d 60
        E 0 90 3e 60
        E 0 90 4a 60
        E 0 90 56 60
        E 0 90 62 60
        E 0 90 65 60
        E 120 80 3e 00
        E 0 80 4a 00
        E 0 80 56 00
        E 0 80 62 00
        E 0 80 65 00
        E 120 90 56 60
        E 0 90 57 60
        E 0 90 62 60
        E 0 90 63 60
        E 120 80 56 00
        E 0 80 57 00
        E 0 80 62 00
        E 0 80 63 00
        E 120 90 3e 60
        E 0 90 4a 60
        E 0 90 4b 60
        E 0 90 56 60
        E 0 90 57 60
        E 0 90 62 60
        E 0 90 63 60
        E 120 80 3e 00
        E 0 80 4a 00
        E 0 80 4b 00
        E 0 80 56 00
        E 0 80 57 00
        E 0 80 62 00
        E 0 80 63 00
        <X 120 0
          /wFbbWFwIEhhbmRNYXBfQWxsQ2hvcmRzXQ==
        >
        E 0 90 55 60
        E 0 90 61 60
        E 120 80 55 00
        E 0 80 61 00
        E 360 90 57 60
        E 0 90 63 60
        E 120 80 57 00
        E 0 80 63 00
        E 120 90 3d 60
        E 0 90 49 60
        E 0 90 55 60
        E 0 90 61 60
        E 0 90 74 60
        E 120 80 3d 00
        E 0 80 49 00
        E 0 80 55 00
        E 0 80 61 00
        E 360 90 4b 60
        E 0 90 57 60
        E 0 90 63 60
        E 120 80 4b 00
        E 0 80 57 00
        E 0 80 63 00
        E 600 90 3e 60
        E 0 90 4b 60
        E 0 90 57 60
        E 0 90 63 60
        E 120 80 3e 00
        E 0 80 4b 00
        E 0 80 57 00
        E 0 80 63 00
        E 120 80 2d 00
        E 120 90 2b 60
        E 0 90 55 60
        E 0 90 61 60
        E 120 80 55 00
        E 0 80 61 00
        E 240 90 3e 60
        E 0 90 4a 60
        E 0 90 56 60
        E 0 90 62 60
        E 120 80 3e 00
        E 0 80 4a 00
        E 0 80 56 00
        E 0 80 62 00
        <X 360 0
          /wFbbWFwIEhhbmRNYXBfRGVmYXVsdF0=
        >
        E 160 90 61 60
        E 80 80 61 00
        E 0 90 4a 60
        E 0 90 56 60
        E 0 90 62 60
        E 0 90 65 60
        E 80 80 4a 00
        E 0 80 56 00
        E 0 80 62 00
        E 0 90 61 60
        E 80 80 65 00
        E 0 80 61 00
        E 80 80 2b 00
        E 240 90 28 60
        E 0 90 3c 60
        E 0 90 48 60
        E 0 90 54 60
        E 0 90 60 60
        E 120 80 3c 00
        E 0 80 48 00
        E 0 80 54 00
        E 0 80 60 00
        E 280 90 54 60
        E 0 90 60 60
        E 80 80 54 00
        E 0 80 60 00
        E 80 90 61 60
        E 0 90 65 60
        E 80 80 61 00
        E 0 80 65 00
        E 80 90 3c 60
        E 0 90 48 60
        E 0 90 54 60
        E 0 90 60 60
        E 0 90 66 60
        E 120 80 74 00
        E 600 80 3c 00
        E 0 80 48 00
        E 240 80 28 00
        E 0 80 54 00
        E 0 80 60 00
        E 0 80 66 00
        E 240 90 2d 60
        E 0 90 49 60
        E 0 90 55 60
        E 0 90 61 60
        E 120 80 49 00
        E 0 80 55 00
        E 0 80 61 00
        E 360 90 56 60
        E 0 90 62 60
        E 120 80 56 00
        E 0 80 62 00
        E 120 90 3c 60
        E 0 90 48 60
        E 0 90 54 60
        E 0 90 60 60
        E 120 80 3c 00
        E 0 80 48 00
        E 0 80 54 00
        E 0 80 60 00
        E 240 80 2d 00
        E 120 90 31 60
        E 0 90 49 60
        E 0 90 55 60
        E 0 90 61 60
        E 120 80 49 00
        E 0 80 55 00
        E 0 80 61 00
        E 120 90 56 60
        E 0 90 62 60
        E 120 80 56 00
        E 0 80 62 00
        E 360 90 4b 60
        E 0 90 57 60
        E 0 90 63 60
        E 120 80 31 00
        E 0 80 4b 00
        E 0 80 57 00
        E 0 80 63 00
        E 0 90 34 60
        E 120 90 3e 60
        E 0 90 4b 60
        E 0 90 58 60
        E 0 90 63 60
        E 120 80 3e 00
        E 0 80 4b 00
        E 0 80 58 00
        E 0 80 63 00
        E 0 90 64 60
        E 0 90 65 60
        E 120 80 64 00
        E 120 80 65 00
        E 120 90 3e 60
        E 0 90 4b 60
        E 0 90 58 60
        E 0 90 64 60
        E 0 90 66 60
        E 120 80 66 00
        E 600 80 34 00
        E 0 80 3e 00
        E 0 80 4b 00
        E 240 80 58 00
        E 0 80 64 00
        E 0 90 2d 60
        E 240 90 3d 60
        E 0 90 49 60
        E 0 90 55 60
        E 0 90 61 60
        E 120 80 3d 00
        E 0 80 49 00
        E 0 80 55 00
        E 0 80 61 00
        E 360 90 56 60
        E 0 90 62 60
        E 120 80 56 00
        E 0 80 62 00
        E 120 90 3d 60
        E 0 90 49 60
        E 0 90 55 60
        E 0 90 61 60
        E 120 80 3d 00
        E 0 80 49 00
        E 0 80 55 00
        E 0 80 61 00
        E 240 80 2d 00
        E 120 90 31 60
        E 0 90 4a 60
        E 0 90 56 60
        E 0 90 62 60
        E 0 90 65 60
        E 120 80 4a 00
        E 0 80 56 00
        E 0 80 62 00
        E 0 80 65 00
        E 120 90 57 60
        E 0 90 63 60
        E 120 80 57 00
        E 0 80 63 00
        E 360 90 3e 60
        E 0 90 4b 60
        E 0 90 58 60
        E 0 90 63 60
        E 80 80 63 00
        E 0 90 64 60
        E 0 90 65 60
        E 40 80 31 00
        E 0 80 3e 00
        E 0 80 4b 00
        E 0 80 58 00
        E 0 90 34 60
        E 40 80 64 00
        E 0 80 65 00
        E 320 90 4b 60
        E 0 90 58 60
        E 0 90 64 60
        E 960 80 34 00
        E 0 80 4b 00
        E 240 80 58 00
        E 0 80 64 00
        E 240 90 2d 60
        E 0 90 48 60
        E 0 90 54 60
        E 0 90 60 60
        E 120 80 48 00
        E 0 80 54 00
        E 0 80 60 00
        E 240 80 2d 00
        E 120 90 31 60
        E 0 90 55 60
        E 0 90 61 60
        E 120 80 55 00
        E 0 80 61 00
        E 120 90 3e 60
        E 0 90 4a 60
        E 0 90 56 60
        E 0 90 62 60
        E 120 80 3e 00
        E 0 80 4a 00
        E 480 80 31 00
        E 0 80 56 00
        E 0 80 62 00
        E 120 90 34 60
        E 0 90 4b 60
        E 0 90 57 60
        E 0 90 63 60
        E 120 80 4b 00
        E 0 80 57 00
        E 0 80 63 00
        E 240 80 34 00
        E 120 90 35 60
        E 0 90 4b 60
        E 0 90 58 60
        E 0 90 64 60
        E 120 80 35 00
        E 0 80 4b 00
        E 0 80 58 00
        E 0 80 64 00
        E 120 90 34 60
        E 0 90 3e 60
        E 0 90 4b 60
        E 0 90 57 60
        E 0 90 63 60
        E 1440 80 3e 00
        E 0 80 4b 00
        E 0 80 57 00
        E 0 80 63 00
        <X 480 0
          /wFbbWFwIEhhbmRNYXBfQ2hvcmRfRF0=
        >
        E 720 90 3e 60
        E 0 90 4b 60
        E 0 90 4c 60
        E 0 90 57 60
        E 0 90 58 60
        E 0 90 63 60
        E 0 90 64 60
        E 120 80 3e 00
        E 0 80 4b 00
        E 0 80 4c 00
        E 0 80 57 00
        E 0 80 58 00
        E 0 80 63 00
        E 0 80 64 00
        E 360 90 57 60
        E 0 90 58 60
        E 0 90 63 60
        E 0 90 64 60
        E 120 80 57 00
        E 0 80 58 00
        E 0 80 63 00
        E 0 80 64 00
        E 120 90 3e 60
        E 0 90 4a 60
        E 0 90 56 60
        E 0 90 63 60
        E 0 90 64 60
        E 120 80 34 00
        E 0 80 3e 00
        E 0 80 4a 00
        E 0 80 56 00
        E 0 80 63 00
        E 0 80 64 00
        E 0 90 65 60
        E 0 90 31 60
        E 0 90 62 60
        E 120 80 65 00
        E 0 80 62 00
        E 240 90 4a 60
        E 0 90 4b 60
        E 0 90 56 60
        E 0 90 57 60
        E 0 90 62 60
        E 0 90 63 60
        E 80 80 4a 00
        E 0 80 4b 00
        E 0 80 56 00
        E 0 80 57 00
        E 0 80 62 00
        E 0 80 63 00
        E 40 80 31 00
        E 120 90 2d 60
        E 0 90 55 60
        E 0 90 61 60
        E 0 90 65 60
        E 120 80 55 00
        E 0 80 61 00
        E 0 80 65 00
        E 120 90 3f 60
        E 0 90 49 60
        E 0 90 4b 60
        E 0 90 55 60
        E 0 90 57 60
        E 0 90 61 60
        E 0 90 63 60
        E 120 80 3f 00
        E 0 80 49 00
        E 0 80 4b 00
        E 0 80 55 00
        E 0 80 57 00
        E 0 80 61 00
        E 0 80 63 00
        E 360 90 49 60
        E 0 90 55 60
        E 0 90 61 60
        E 120 80 49 00
        E 0 80 55 00
        E 0 80 61 00
        E 120 90 57 60
        E 0 90 63 60
        E 960 80 2d 00
        E 0 80 57 00
        E 0 80 63 00
        E 240 90 34 60
        E 0 90 3e 60
        E 0 90 4b 60
        E 0 90 4c 60
        E 0 90 57 60
        E 0 90 58 60
        E 0 90 63 60
        E 0 90 64 60
        E 120 80 3e 00
        E 0 80 4b 00
        E 0 80 4c 00
        E 0 80 57 00
        E 0 80 58 00
        E 0 80 63 00
        E 0 80 64 00
        E 120 90 4b 60
        E 0 90 4c 60
        E 0 90 57 60
        E 0 90 58 60
        E 0 90 63 60
        E 0 90 64 60
        E 120 80 4b 00
        E 0 80 4c 00
        E 0 80 57 00
        E 0 80 58 00
        E 0 80 63 00
        E 0 80 64 00
        E 120 80 34 00
        E 240 90 31 60
        E 0 90 4a 60
        E 0 90 4b 60
        E 0 90 56 60
        E 0 90 58 60
        E 0 90 62 60
        E 0 90 64 60
        E 120 80 4a 00
        E 0 80 4b 00
        E 0 80 56 00
        E 0 80 58 00
        E 0 80 62 00
        E 0 80 64 00
        E 120 90 3e 60
        E 0 90 4a 60
        E 0 90 4b 60
        E 0 90 56 60
        E 0 90 58 60
        E 0 90 62 60
        E 0 90 64 60
        E 120 80 31 00
        E 0 80 3e 00
        E 0 80 4a 00
        E 0 80 4b 00
        E 0 80 56 00
        E 0 80 58 00
        E 0 80 62 00
        E 0 80 64 00
        E 120 90 2d 60
        E 0 90 4a 60
        E 0 90 4b 60
        E 0 90 56 60
        E 0 90 57 60
        E 0 90 62 60
        E 0 90 63 60
        E 120 80 4a 00
        E 0 80 4b 00
        E 0 80 56 00
        E 0 80 57 00
        E 0 80 62 00
        E 0 80 63 00
        E 120 90 4a 60
        E 0 90 4b 60
        E 0 90 56 60
        E 0 90 57 60
        E 0 90 62 60
        E 0 90 63 60
        E 120 80 2d 00
        E 0 80 4a 00
        E 0 80 4b 00
        E 0 80 56 00
        E 0 80 57 00
        E 0 80 62 00
        E 0 80 63 00
        E 120 90 2b 60
        E 0 90 55 60
        E 0 90 61 60
        E 120 80 55 00
        E 0 80 61 00
        E 120 90 3f 60
        E 0 90 49 60
        E 0 90 4b 60
        E 0 90 55 60
        E 0 90 57 60
        E 0 90 61 60
        E 0 90 63 60
        E 720 80 3f 00
        E 0 80 49 00
        E 0 80 4b 00
        <X 240 0
          /wFbbWFwIEhhbmRNYXBfRGVmYXVsdF0=
        >
        E 0 80 2b 00
        E 0 80 55 00
        E 0 80 57 00
        E 0 80 61 00
        E 0 80 63 00
        E 240 90 34 60
        E 0 90 3e 60
        E 0 90 4b 60
        E 0 90 58 60
        E 0 90 64 60
        E 0 90 74 60
        E 120 80 3e 00
        E 0 80 4b 00
        E 0 80 58 00
        E 0 80 64 00
        E 240 90 57 60
        E 0 90 64 60
        E 120 80 34 00
        E 0 80 57 00
        E 0 80 64 00
        E 0 90 31 60
        E 0 90 63 60
        E 0 90 65 60
        E 120 80 63 00
        E 0 80 65 00
        E 120 90 3e 60
        E 0 90 4b 60
        E 0 90 57 60
        E 0 90 63 60
        E 120 80 3e 00
        E 0 80 4b 00
        E 0 80 57 00
        E 0 80 63 00
        E 520 90 62 60
        E 80 80 62 00
        E 0 90 4b 60
        E 0 90 57 60
        E 0 90 63 60
        E 0 90 65 60
        E 80 80 4b 00
        E 0 80 57 00
        E 0 80 63 00
        E 0 90 62 60
        E 80 80 65 00
        E 0 80 62 00
        E 200 80 31 00
        E 120 90 2d 60
        E 0 90 3c 60
        E 0 90 48 60
        E 0 90 54 60
        E 0 90 60 60
        E 120 80 3c 00
        E 0 80 48 00
        E 0 80 54 00
        E 0 80 60 00
        E 280 90 54 60
        E 0 90 60 60
        E 80 80 54 00
        E 0 80 60 00
        E 80 90 61 60
        E 0 90 65 60
        E 80 80 61 00
        E 0 80 65 00
        E 80 90 3c 60
        E 0 90 48 60
        E 0 90 54 60
        E 0 90 60 60
        E 720 80 3c 00
        E 0 80 48 00
        E 240 80 74 00
        E 0 80 54 00
        E 0 80 60 00
        E 240 90 49 60
        E 0 90 55 60
        E 0 90 61 60
        E 120 80 49 00
        E 0 80 55 00
        E 0 80 61 00
        E 360 90 56 60
        E 0 90 62 60
        E 120 80 56 00
        E 0 80 62 00
        E 120 90 3c 60
        E 0 90 48 60
        E 0 90 54 60
        E 0 90 60 60
        E 120 80 3c 00
        E 0 80 48 00
        E 0 80 54 00
        E 0 80 60 00
        E 360 90 49 60
        E 0 90 55 60
        E 0 90 61 60
        E 120 80 2d 00
        E 0 80 49 00
        E 0 80 55 00
        E 0 80 61 00
        E 120 90 31 60
        E 0 90 56 60
        E 0 90 62 60
        E 120 80 56 00
        E 0 80 62 00
        E 360 90 4b 60
        E 0 90 57 60
        E 0 90 63 60
        E 120 80 4b 00
        E 0 80 57 00
        E 0 80 63 00
        E 120 90 3e 60
        E 0 90 4b 60
        E 0 90 58 60
        E 0 90 63 60
        E 120 80 31 00
        E 0 80 3e 00
        E 0 80 4b 00
        E 0 80 58 00
        E 0 80 63 00
        E 0 90 34 60
        E 0 90 64 60
        E 0 90 65 60
        E 120 80 64 00
        E 0 80 65 00
        E 240 90 3e 60
        E 0 90 4b 60
        E 0 90 58 60
        E 0 90 64 60
        E 720 80 3e 00
        E 0 80 4b 00
        E 240 80 34 00
        E 0 80 58 00
        E 0 80 64 00
        E 240 90 2d 60
        E 0 90 49 60
        E 0 90 55 60
        E 0 90 61 60
        E 120 80 49 00
        E 0 80 55 00
        E 0 80 61 00
        E 360 90 56 60
        E 0 90 62 60
        E 120 80 56 00
        E 0 80 62 00
        E 120 90 3c 60
        E 0 90 48 60
        E 0 90 54 60
        E 0 90 60 60
        E 120 80 3c 00
        E 0 80 48 00
        E 0 80 54 00
        E 0 80 60 00
        E 360 90 49 60
        E 0 90 55 60
        E 0 90 61 60
        E 120 80 2d 00
        E 0 80 49 00
        E 0 80 55 00
        E 0 80 61 00
        E 120 90 31 60
        E 0 90 56 60
        E 0 90 62 60
        E 120 80 56 00
        E 0 80 62 00
        E 360 90 4b 60
        E 0 90 57 60
        E 0 90 63 60
        E 120 80 4b 00
        E 0 80 57 00
        E 0 80 63 00
        E 120 90 3e 60
        E 0 90 4b 60
        E 0 90 58 60
        E 0 90 63 60
        E 120 80 31 00
        E 0 80 3e 00
        E 0 80 4b 00
        E 0 80 58 00
        E 0 80 63 00
        E 0 90 34 60
        E 0 90 64 60
        E 0 90 65 60
        E 120 80 64 00
        E 120 80 65 00
        E 120 90 3e 60
        E 0 90 4b 60
        E 0 90 58 60
        E 0 90 64 60
        E 960 80 34 00
        E 0 80 3e 00
        E 0 80 4b 00
        E 0 80 58 00
        E 0 80 64 00
        E 120 90 2d 60
        E 40 90 54 60
        E 0 90 60 60
        E 80 80 54 00
        E 0 80 60 00
        E 0 90 74 60
        E 240 90 49 60
        E 0 90 55 60
        E 0 90 60 60
        E 120 80 49 00
        E 0 80 55 00
        E 0 80 60 00
        E 0 90 61 60
        E 0 90 65 60
        E 120 80 61 00
        E 0 80 65 00
        E 240 90 3e 60
        E 0 90 4a 60
        E 0 90 56 60
        E 0 90 61 60
        E 120 80 2d 00
        E 0 80 61 00
        E 0 90 62 60
        E 0 90 65 60
        E 120 90 31 60
        E 120 80 3e 00
        E 0 80 4a 00
        E 360 80 56 00
        E 0 80 62 00
        E 0 80 65 00
        E 0 80 31 00
        E 120 90 34 60
        E 0 90 4b 60
        E 0 90 58 60
        E 0 90 64 60
        E 120 80 4b 00
        E 0 80 58 00
        E 0 80 64 00
        E 480 90 3e 60
        E 0 90 4b 60
        E 0 90 57 60
        E 0 90 63 60
        E 120 80 3e 00
        E 0 80 4b 00
        E 0 80 57 00
        E 0 80 63 00
        E 360 90 3e 60
        E 0 90 4b 60
        E 0 90 58 60
        E 0 90 64 60
        E 120 80 3e 00
        E 0 80 4b 00
        E 120 80 74 00
        E 360 80 34 00
        E 0 80 58 00
        E 0 80 64 00
        E 120 90 38 60
        E 0 90 4b 60
        E 0 90 57 60
        E 0 90 63 60
        E 120 80 4b 00
        E 0 80 57 00
        E 0 80 63 00
        E 360 90 3e 60
        E 0 90 4b 60
        E 0 90 58 60
        E 0 90 63 60
        E 80 80 63 00
        E 0 90 64 60
        E 0 90 65 60
        E 40 80 3e 00
        E 0 80 4b 00
        E 0 80 58 00
        E 40 80 64 00
        E 0 80 65 00
        E 200 90 57 60
        E 0 90 63 60
        E 120 80 38 00
        E 0 80 57 00
        E 0 80 63 00
        E 240 90 34 60
        E 0 90 3e 60
        E 0 90 4a 60
        E 0 90 56 60
        E 0 90 62 60
        E 120 80 3e 00
        E 0 80 4a 00
        E 0 80 56 00
        E 0 80 62 00
        E 240 80 34 00
        E 120 90 31 60
        E 0 90 48 60
        E 0 90 54 60
        E 0 90 60 60
        E 120 80 48 00
        E 0 80 54 00
        E 0 80 60 00
        E 120 90 55 60
        E 0 90 61 60
        E 120 80 55 00
        E 0 80 61 00
        E 360 90 56 60
        E 0 90 62 60
        E 120 80 56 00
        E 0 80 62 00
        E 120 90 3e 60
        E 0 90 4b 60
        E 0 90 57 60
        E 0 90 63 60
        E 120 80 3e 00
        E 0 80 4b 00
        E 0 80 57 00
        E 0 80 63 00
        E 120 80 31 00
        E 0 90 34 60
        E 0 90 4b 60
        E 0 90 58 60
        E 0 90 64 60
        E 0 90 65 60
        E 120 80 4b 00
        E 0 80 58 00
        E 0 80 64 00
        E 0 80 65 00
        E 120 90 3e 60
        E 0 90 4b 60
        E 0 90 58 60
        E 0 90 64 60
        E 1440 80 3e 00
        E 0 80 4b 00
        E 0 80 58 00
        E 0 80 64 00
        <X 480 0
          /wFbbWFwIEhhbmRNYXBfQ2hvcmRfRF0=
        >
        E 0 90 3e 60
        E 0 90 4b 60
        E 0 90 4c 60
        E 0 90 57 60
        E 0 90 58 60
        E 0 90 63 60
        E 0 90 64 60
        E 120 80 3e 00
        E 0 80 4b 00
        E 0 80 4c 00
        E 0 80 57 00
        E 0 80 58 00
        E 0 80 63 00
        E 0 80 64 00
        E 120 90 4b 60
        E 0 90 4c 60
        E 0 90 57 60
        E 0 90 58 60
        E 0 90 63 60
        E 0 90 64 60
        E 120 80 4b 00
        E 0 80 4c 00
        E 0 80 57 00
        E 0 80 58 00
        E 0 80 63 00
        E 0 80 64 00
        E 120 80 34 00
        E 240 90 31 60
        E 0 90 4a 60
        E 0 90 4b 60
        E 0 90 56 60
        E 0 90 58 60
        E 0 90 62 60
        E 0 90 64 60
        E 120 80 4a 00
        E 0 80 4b 00
        E 0 80 56 00
        E 0 80 58 00
        E 0 80 62 00
        E 0 80 64 00
        E 120 90 3e 60
        E 0 90 4a 60
        E 0 90 4b 60
        E 0 90 56 60
        E 0 90 58 60
        E 0 90 62 60
        E 0 90 64 60
        E 120 80 3e 00
        E 0 80 4a 00
        E 0 80 4b 00
        E 0 80 56 00
        E 0 80 58 00
        E 0 80 62 00
        E 0 80 64 00
        E 120 80 31 00
        E 240 90 2d 60
        E 0 90 4a 60
        E 0 90 4b 60
        E 0 90 56 60
        E 0 90 57 60
        E 0 90 62 60
        E 0 90 63 60
        E 120 80 4a 00
        E 0 80 4b 00
        E 0 80 56 00
        E 0 80 57 00
        E 0 80 62 00
        E 0 80 63 00
        E 120 90 56 60
        E 0 90 57 60
        E 0 90 62 60
        E 0 90 63 60
        E 120 80 56 00
        E 0 80 57 00
        E 0 80 62 00
        E 0 80 63 00
        E 120 80 2d 00
        E 0 90 2b 60
        E 0 90 3d 60
        E 0 90 49 60
        E 0 90 55 60
        E 0 90 61 60
        E 0 90 65 60
        E 120 80 3d 00
        E 0 80 49 00
        E 0 80 55 00
        E 0 80 61 00
        E 0 80 65 00
        E 120 90 55 60
        E 0 90 57 60
        E 0 90 61 60
        E 0 90 63 60
        E 120 80 55 00
        E 0 80 57 00
        E 0 80 61 00
        E 0 80 63 00
        E 120 90 49 60
        E 0 90 4b 60
        E 0 90 55 60
        E 0 90 57 60
        E 0 90 61 60
        E 0 90 63 60
        E 720 80 49 00
        E 0 80 4b 00
        E 240 80 2b 00
        E 0 80 55 00
        E 0 80 57 00
        E 0 80 61 00
        E 0 80 63 00
        E 240 90 31 60
        E 0 90 4a 60
        E 0 90 4b 60
        E 0 90 56 60
        E 0 90 58 60
        E 0 90 62 60
        E 0 90 64 60
        E 120 80 4a 00
        E 0 80 4b 00
        E 0 80 56 00
        E 0 80 58 00
        E 0 80 62 00
        E 0 80 64 00
        E 120 90 3e 60
        E 0 90 4a 60
        E 0 90 4b 60
        E 0 90 56 60
        E 0 90 58 60
        E 0 90 62 60
        E 0 90 64 60
        E 120 80 3e 00
        E 0 80 4a 00
        E 0 80 4b 00
        E 0 80 56 00
        E 0 80 58 00
        E 0 80 62 00
        E 0 80 64 00
        E 360 80 31 00
        E 0 90 2d 60
        E 240 90 4a 60
        E 0 90 4b 60
        E 0 90 56 60
        E 0 90 57 60
        E 0 90 62 60
        E 0 90 63 60
        E 120 80 4a 00
        E 0 80 4b 00
        E 0 80 56 00
        E 0 80 57 00
        E 0 80 62 00
        E 0 80 63 00
        E 360 90 56 60
        E 0 90 62 60
        E 120 80 56 00
        E 0 80 62 00
        E 120 90 3e 60
        E 0 90 4a 60
        E 0 90 4b 60
        E 0 90 56 60
        E 0 90 57 60
        E 0 90 62 60
        E 0 90 63 60
        E 120 80 3e 00
        E 0 80 4a 00
        E 0 80 4b 00
        E 0 80 56 00
        E 0 80 57 00
        E 0 80 62 00
        E 0 80 63 00
        E 120 80 2d 00
        E 0 90 2b 60
        E 0 90 55 60
        E 0 90 61 60
        E 0 90 65 60
        E 120 80 55 00
        E 0 80 61 00
        E 0 80 65 00
        E 120 90 3e 60
        E 0 90 49 60
        E 0 90 4a 60
        E 0 90 55 60
        E 0 90 56 60
        E 0 90 61 60
        E 0 90 62 60
        E 120 80 3e 00
        E 0 80 49 00
        E 0 80 4a 00
        E 0 80 55 00
        E 0 80 56 00
        E 0 80 61 00
        E 0 80 62 00
        E 360 90 49 60
        E 0 90 55 60
        E 0 90 61 60
        E 120 80 49 00
        E 0 80 55 00
        E 0 80 61 00
        E 120 90 56 60
        E 0 90 62 60
        E 1080 80 2b 00
        E 0 80 56 00
        E 0 80 62 00
        E 120 90 31 60
        E 0 90 3e 60
        E 0 90 4a 60
        E 0 90 4b 60
        E 0 90 56 60
        E 0 90 58 60
        E 0 90 62 60
        E 0 90 64 60
        E 120 80 3e 00
        E 0 80 4a 00
        E 0 80 4b 00
        E 480 80 31 00
        E 0 80 56 00
        E 0 80 58 00
        E 0 80 62 00
        E 0 80 64 00
        E 120 90 2d 60
        E 0 90 4a 60
        E 0 90 4b 60
        E 0 90 56 60
        E 0 90 57 60
        E 0 90 62 60
        E 0 90 63 60
        E 120 80 4a 00
        E 0 80 4b 00
        E 240 80 2d 00
        E 0 80 56 00
        E 0 80 57 00
        E 0 80 62 00
        E 0 80 63 00
        E 120 90 2b 60
        E 0 90 49 60
        E 0 90 4b 60
        E 0 90 55 60
        E 0 90 57 60
        E 0 90 61 60
        E 0 90 63 60
        E 0 90 65 60
        E 120 80 49 00
        E 0 80 4b 00
        E 0 80 55 00
        E 0 80 57 00
        E 0 80 61 00
        E 0 80 63 00
        E 0 80 65 00
        E 120 90 49 60
        E 0 90 4b 60
        E 0 90 55 60
        E 0 90 57 60
        E 0 90 61 60
        E 0 90 63 60
        E 120 80 49 00
        E 0 80 4b 00
        E 0 80 55 00
        E 0 80 57 00
        E 0 80 61 00
        E 0 80 63 00
        E 120 90 56 60
        E 0 90 62 60
        E 0 90 65 60
        E 120 80 56 00
        E 0 80 62 00
        E 0 80 65 00
        <X 120 0
          /wFbbWFwIEhhbmRNYXBfQ2hvcmRfQV0=
        >
        E 0 90 3e 60
        E 0 90 49 60
        E 0 90 4a 60
        E 0 90 55 60
        E 0 90 56 60
        E 0 90 61 60
        E 0 90 62 60
        E 1920 80 2b 00
        E 0 80 3e 00
        E 0 80 49 00
        E 0 80 4a 00
        E 0 80 55 00
        E 0 80 56 00
        E 0 80 61 00
        E 0 80 62 00
        <X 479 0
          /wFbaWRsZV9yZWFsdGltZV0=
        >
        E 5280 b0 7b 00
        GUID {44B22C32-8ED7-4D42-842A-C04B98B2F18F}
        IGNTEMPO 0 120.00000000 4 4
        SRCCOLOR 17
        VELLANE 132 128 60
        COLORMAP "C:\Program Files\REAPER (x64)\Data\color_maps\rockband_guitarbass.png"
        CFGEDITVIEW 38378.994619 90.784265 0 12 0 0 0
        CFGEDIT 1 1 0 1 1 0 1 1 1 1 1 0.25000000 -8 -8 1544 872 0 2 1 1 0.00000000 0 1 0 0 0.500000 0 0 1.000000 64
        KEYSNAP 0 6 "102030050700" 0 "Pentatonic"
        EVTFILTER 0 -1 -1 -1 -1 0 1 0 0 -1.00000000 -1.00000000
      >
    >
  >
  <TRACK '{6126EC8E-5383-4DB0-97DB-10FB5B697B49}'
    NAME "guitar"
    PEAKCOL 16576
    BEAT -1
    AUTOMODE 0
    VOLPAN 1.00000000000000 0.00000000000000 -1.00000000000000 -1.00000000000000 1.00000000000000
    MUTESOLO 0 0 0
    IPHASE 0
    ISBUS 2 -1
    BUSCOMP 0 0
    SHOWINMIX 1 0.666700 0.500000 1 0.500000 -1 -1 -1
    FREEMODE 0
    SEL 0
    REC 0 0 0 0 0 0 0
    VU 2
    TRACKHEIGHT 0 0
    INQ 0 0 0 0.5000000000 100 0 0 100
    NCHAN 2
    FX 1
    TRACKID {6126EC8E-5383-4DB0-97DB-10FB5B697B49}
    PERF 0
    MIDIOUT -1
    MAINSEND 1 0
    <ITEM
      POSITION 0.00000000000000
      SNAPOFFS 0.00000000000000
      LENGTH 135.40131519274377
      LOOP 0
      ALLTAKES 0
      SEL 0
      FADEIN 1 0.000000 0.000000 1 0
      FADEOUT 1 0.000000 0.000000 1 0
      MUTE 0
      IGUID {D7A30A5F-1499-4F05-9A4A-D1CDAEDB7352}
      IID 26
      NAME "guitar.wav"
      VOLPAN 1.000000 0.000000 1.000000 -1.000000
      SOFFS 0.00000000000000
      PLAYRATE 1.00000000000000 1 0.00000000000000 -1
      CHANMODE 0
      GUID {6DC6FA73-851F-4EA6-959F-D2544754E663}
      <SOURCE WAVE
        FILE "wav\guitar.wav"
      >
    >
  >
  <TRACK '{6A86F0F3-9EAC-4B1C-8AB8-DB6321013455}'
    NAME "PART VOCALS"
    PEAKCOL 16576
    BEAT -1
    AUTOMODE 0
    VOLPAN 1.00000000000000 0.00000000000000 -1.00000000000000 -1.00000000000000 1.00000000000000
    MUTESOLO 0 0 0
    IPHASE 0
    ISBUS 1 1
    BUSCOMP 0 0
    SHOWINMIX 1 0.666700 0.500000 1 0.500000 -1 -1 -1
    FREEMODE 0
    SEL 0
    REC 0 0 0 0 0 0 0
    VU 2
    TRACKHEIGHT 0 0
    INQ 0 0 0 0.5000000000 100 0 0 100
    NCHAN 2
    FX 0
    TRACKID {6A86F0F3-9EAC-4B1C-8AB8-DB6321013455}
    PERF 0
    MIDIOUT -1
    <MIDINOTENAMES
      0 116 "OVERDRIVE"
      0 115 "----"
      0 105 "Phrase Marker"
      0 104 "----"
      0 97 "Non-Displayed Percussion"
      0 96 "Displayed Percussion"
      0 95 "----"
      0 84 "C6 (Unused Highest Note)"
      0 83 "B5"
      0 82 "A#4"
      0 81 "A4"
      0 80 "G#4"
      0 79 "G4"
      0 78 "F#4"
      0 77 "F4"
      0 76 "E4"
      0 75 "D#4"
      0 74 "D4"
      0 73 "C#4"
      0 72 "C4"
      0 71 "B3"
      0 70 "A#3"
      0 69 "A3"
      0 68 "G#3"
      0 67 "G3"
      0 66 "F#3"
      0 65 "F3"
      0 64 "E3"
      0 63 "D#3"
      0 62 "D3"
      0 61 "C#3"
      0 60 "C3"
      0 59 "B2"
      0 58 "A#2"
      0 57 "A2"
      0 56 "G#2"
      0 55 "G2"
      0 54 "F#2"
      0 53 "F2"
      0 52 "E2"
      0 51 "D#2"
      0 50 "D2"
      0 49 "C#2"
      0 48 "C2"
      0 47 "B1"
      0 46 "A#1"
      0 45 "A1"
      0 44 "G#1"
      0 43 "G1"
      0 42 "F#1"
      0 41 "F1"
      0 40 "E1"
      0 39 "D#1"
      0 38 "D1"
      0 37 "C#1"
      0 36 "Lowest Note C1"
      0 2 "---"
      0 1 "Lyric Shift"
      0 0 "Range Shift"
    >
    MAINSEND 1 0
    <FXCHAIN
      WNDRECT 0 43 729 467
      SHOW 0
      LASTSEL 1
      DOCKED 0
      BYPASS 0 0
      <JS "MIDI/midi_note_filter" ""
        36.000000 84.000000 - - - - - - - - - - - - - - - - - - - - - - - - - - - - - - - - - - - - - - - - - - - - - - - - - - - - - - - - - - - - - - 
      >
      FLOATPOS 0 0 0 0
      FXID {7115EF16-7E3E-4B09-8944-BD0E0D0334D1}
      WAK 0
      BYPASS 0 0
      <VST "VSTi: ReaSynth (Cockos)" "reasynth.dll" 0 ""
        eXNlcu9e7f4AAAAAAgAAAAEAAAAAAAAAAgAAAAAAAAA4AAAAAAAAAA==
        AAAQAO++rd4N8K3eppvEOxe30ToAAIA/AAAAAAAAAADMm4A+6WeIPQ==
        AAAAAAAAAD8AAIA/AACAPwAAAD8AABAAAAA=
      >
      FLOATPOS 0 0 0 0
      FXID {FCED210C-AA26-44CF-8CB3-0666AEBA897D}
      WAK 0
    >
    <ITEM
      POSITION 0.00000000000000
      SNAPOFFS 0.00000000000000
      LENGTH 135.40100000000001
      LOOP 0
      ALLTAKES 0
      SEL 0
      FADEIN 1 0.000000 0.000000 1 0
      FADEOUT 1 0.000000 0.000000 1 0
      MUTE 0
      IGUID {88660B80-78C3-42BC-B4DA-54F6DD74625A}
      IID 4
      NAME "PART VOCALS"
      VOLPAN 1.000000 0.000000 1.000000 -1.000000
      SOFFS 0.00000000000000 0.00000000000000
      PLAYRATE 1.00000000000000 1 0.00000000000000 -1
      CHANMODE 0
      GUID {D6B1D75B-9031-4C24-BDED-7D1607AACC0D}
      <SOURCE MIDI
        HASDATA 1 480 QN
        POOLEDEVTS {1A7460DA-3AF0-4758-9148-3171AF10F038}
        <X 0 0
          /wNQQVJUIFZPQ0FMUw==
        >
        <X 5760 0
          /wFbaWRsZV0=
        >
        <X 23040 0
          /wFbcGxheV0=
        >
        E 480 90 69 60
        <X 480 0
          /wVKdS0=
        >
        E 0 90 39 60
        E 210 80 39 00
        <X 60 0
          /wVyZWk=
        >
        E 0 90 3b 60
        E 210 80 3b 00
        <X 120 0
          /wVtZW4t
        >
        E 0 90 3e 60
        E 240 80 3e 00
        <X 120 0
          /wV0aS0=
        >
        E 0 90 43 60
        E 240 80 43 00
        <X 60 0
          /wVyYXM=
        >
        E 0 90 42 60
        E 210 80 42 00
        E 30 90 01 60
        E 30 80 01 00
        <X 90 0
          /wVl
        >
        E 0 90 3e 60
        E 210 80 3e 00
        <X 90 0
          /wVzaS0=
        >
        E 0 90 43 60
        E 180 80 43 00
        <X 90 0
          /wVnbw==
        >
        E 0 90 42 60
        E 210 80 42 00
        <X 150 0
          /wVzby0=
        >
        E 0 90 3e 60
        E 240 80 3e 00
        <X 90 0
          /wV6aS0=
        >
        E 0 90 42 60
        E 240 80 42 00
        <X 180 0
          /wVuaG8=
        >
        E 0 90 3e 60
        E 3180 80 3e 00
        E 240 80 69 00
        E 480 90 69 60
        <X 240 0
          /wVBcy0=
        >
        E 0 90 39 60
        E 120 80 39 00
        <X 120 0
          /wVzdS0=
        >
        E 0 90 39 60
        E 270 80 39 00
        <X 90 0
          /wVtb6dvcw==
        >
        E 0 90 3b 60
        E 120 80 3b 00
        <X 240 0
          /wVwZS0=
        >
        E 0 90 3e 60
        E 180 80 3e 00
        <X 90 0
          /wVjYS0=
        >
        E 0 90 43 60
        E 1410 80 43 00
        <X 180 0
          /wVkb3M=
        >
        E 0 90 45 60
        E 210 80 45 00
        <X 90 0
          /wUr
        >
        E 0 90 42 60
        E 1200 80 42 00
        <X 60 0
          /wUr
        >
        E 0 90 40 60
        E 360 80 40 00
        <X 60 0
          /wUr
        >
        E 0 90 42 60
        E 90 80 42 00
        <X 30 0
          /wUr
        >
        E 0 90 40 60
        E 60 80 40 00
        <X 30 0
          /wUr
        >
        E 0 90 3e 60
        E 1710 80 3e 00
        E 240 80 69 00
        E 480 90 69 60
        E 0 90 74 60
        <X 300 0
          /wVPcw==
        >
        E 0 90 40 60
        E 120 80 40 00
        <X 90 0
          /wV2ZW4t
        >
        E 0 90 40 60
        E 240 80 40 00
        <X 90 0
          /wV0b3M=
        >
        E 0 90 40 60
        E 180 80 40 00
        <X 210 0
          /wVkbw==
        >
        E 0 90 42 60
        E 120 80 42 00
        <X 150 0
          /wVub3It
        >
        E 0 90 40 60
        E 360 80 40 00
        <X 120 0
          /wV0ZQ==
        >
        E 0 90 3e 60
        E 360 80 3e 00
        <X 60 0
          /wVu428=
        >
        E 0 90 3b 60
        E 150 80 3b 00
        <X 90 0
          /wVtby0=
        >
        E 0 90 3e 60
        E 180 80 3e 00
        <X 60 0
          /wV2ZW0=
        >
        E 0 90 3b 60
        E 270 80 3b 00
        <X 210 0
          /wVtby0=
        >
        E 0 90 39 60
        E 180 80 39 00
        <X 90 0
          /wVpLQ==
        >
        E 0 90 42 60
        E 180 80 42 00
        <X 30 0
          /wVuaG9z
        >
        E 0 90 3e 60
        E 3330 80 3e 00
        E 30 80 69 00
        E 0 80 74 00
        E 720 90 69 60
        <X 240 0
          /wVFp28=
        >
        E 0 90 39 60
        E 210 80 39 00
        <X 120 0
          /wVxdWU=
        >
        E 0 90 3b 60
        E 240 80 3b 00
        <X 120 0
          /wVtZQ==
        >
        E 0 90 3e 60
        E 210 80 3e 00
        <X 60 0
          /wVyZXMt
        >
        E 0 90 43 60
        E 270 80 43 00
        <X 60 0
          /wV0YQ==
        >
        E 0 90 42 60
        E 330 80 42 00
        <X 60 0
          /wXp
        >
        E 0 90 3e 60
        E 150 80 3e 00
        <X 240 0
          /wVz8w==
        >
        E 0 90 43 60
        E 180 80 43 00
        <X 90 0
          /wV1bQ==
        >
        E 0 90 42 60
        E 210 80 42 00
        <X 90 0
          /wVnZS0=
        >
        E 0 90 3e 60
        E 180 80 3e 00
        <X 60 0
          /wVtaS0=
        >
        E 0 90 42 60
        E 210 80 42 00
        <X 60 0
          /wVkbw==
        >
        E 0 90 3e 60
        E 3090 80 3e 00
        E 480 80 69 00
        E 0 90 69 60
        <X 480 0
          /wVNaS0=
        >
        E 0 90 39 60
        E 150 80 39 00
        <X 30 0
          /wVuaGE=
        >
        E 0 90 39 60
        E 210 80 39 00
        <X 90 0
          /wV2aS0=
        >
        E 0 90 39 60
        E 240 80 39 00
        <X 90 0
          /wVkYQ==
        >
        E 0 90 3b 60
        E 240 80 3b 00
        <X 120 0
          /wVtZXVz
        >
        E 0 90 3e 60
        E 210 80 3e 00
        <X 60 0
          /wVtb3It
        >
        E 0 90 43 60
        E 300 80 43 00
        <X 60 0
          /wV0b3M=
        >
        E 0 90 42 60
        E 300 80 42 00
        E 30 90 01 60
        <X 30 0
          /wVtZXVz
        >
        E 0 80 01 00
        E 0 90 3e 60
        E 180 80 3e 00
        <X 210 0
          /wVjYS0=
        >
        E 0 90 43 60
        E 210 80 43 00
        <X 60 0
          /wVtaS0=
        >
        E 0 90 42 60
        E 240 80 42 00
        <X 60 0
          /wVuaG9z
        >
        E 0 90 3e 60
        E 210 80 3e 00
        <X 90 0
          /wV0b3It
        >
        E 0 90 42 60
        E 210 80 42 00
        <X 120 0
          /wV0b3M=
        >
        E 0 90 3e 60
        E 2970 80 3e 00
        E 480 80 69 00
        E 480 90 69 60
        E 0 90 74 60
        <X 240 0
          /wVNZXU=
        >
        E 0 90 39 60
        E 180 80 39 00
        <X 90 0
          /wVzYW4t
        >
        E 0 90 39 60
        E 240 80 39 00
        <X 90 0
          /wVndWU=
        >
        E 0 90 3b 60
        E 210 80 3b 00
        <X 150 0
          /wVsYS0=
        >
        E 0 90 3e 60
        E 180 80 3e 00
        <X 120 0
          /wV0aS0=
        >
        E 0 90 43 60
        E 1290 80 43 00
        <X 60 0
          /wVubw==
        >
        E 0 90 43 60
        E 60 80 43 00
        <X 60 0
          /wUr
        >
        E 0 90 45 60
        E 240 80 45 00
        <X 90 0
          /wUr
        >
        E 0 90 42 60
        E 1170 80 42 00
        <X 90 0
          /wUr
        >
        E 0 90 40 60
        E 390 80 40 00
        <X 90 0
          /wUr
        >
        E 0 90 42 60
        E 60 80 42 00
        <X 60 0
          /wUr
        >
        E 0 90 40 60
        E 60 80 40 00
        <X 60 0
          /wUr
        >
        E 0 90 3e 60
        E 1590 80 3e 00
        E 330 80 69 00
        E 0 80 74 00
        E 480 90 69 60
        <X 240 0
          /wVNaS0=
        >
        E 0 90 39 60
        E 150 80 39 00
        <X 90 0
          /wVuaGEnYWwt
        >
        E 0 90 39 60
        E 300 80 39 00
        <X 120 0
          /wVtYQ==
        >
        E 0 90 3b 60
        E 240 80 3b 00
        <X 120 0
          /wVjYS0=
        >
        E 0 90 3e 60
        E 180 80 3e 00
        <X 150 0
          /wV0aS0=
        >
        E 0 90 43 60
        E 1260 80 43 00
        <X 360 0
          /wUr
        >
        E 0 90 3e 60
        E 90 80 3e 00
        <X 60 0
          /wV2YQ==
        >
        E 0 90 3e 60
        E 3180 80 3e 00
        E 180 80 69 00
        E 1200 90 69 60
        E 0 90 74 60
        <X 240 0
          /wVSb20t
        >
        E 0 90 40 60
        E 240 80 40 00
        <X 90 0
          /wVwaQ==
        >
        E 0 90 40 60
        E 150 80 40 00
        <X 210 0
          /wV0cmEt
        >
        E 0 90 42 60
        E 180 80 42 00
        <X 60 0
          /wV0YS0=
        >
        E 0 90 40 60
        E 240 80 40 00
        <X 90 0
          /wVkb3M=
        >
        E 0 90 3e 60
        E 660 80 3e 00
        E 60 90 01 60
        E 30 80 01 00
        <X 150 0
          /wV0cmEt
        >
        E 0 90 3e 60
        E 150 80 3e 00
        <X 60 0
          /wXt
        >
        E 0 90 3b 60
        E 150 80 3b 00
        <X 60 0
          /wVvcw==
        >
        E 0 90 39 60
        E 90 80 39 00
        <X 180 0
          /wVyaS0=
        >
        E 0 90 42 60
        E 210 80 42 00
        <X 150 0
          /wV0b3M=
        >
        E 0 90 3e 60
        E 2760 80 3e 00
        E 270 80 69 00
        E 0 80 74 00
        E 1200 90 69 60
        <X 240 0
          /wVRdWUt
        >
        E 0 90 39 60
        E 150 80 39 00
        <X 150 0
          /wVicmVp
        >
        E 0 90 3b 60
        E 240 80 3b 00
        <X 120 0
          /wVh
        >
        E 0 90 3e 60
        E 150 80 3e 00
        <X 150 0
          /wVsYW4t
        >
        E 0 90 43 60
        E 300 80 43 00
        <X 60 0
          /wXnYQ==
        >
        E 0 90 42 60
        E 240 80 42 00
        E 30 90 01 60
        E 30 80 01 00
        <X 60 0
          /wVsYW4t
        >
        E 0 90 3e 60
        E 150 80 3e 00
        <X 270 0
          /wVjZWk=
        >
        E 0 90 42 60
        E 120 80 42 00
        <X 210 0
          /wUr
        >
        E 0 90 3e 60
        E 60 80 3e 00
        <X 90 0
          /wVub6dlcy0=
        >
        E 0 90 3e 60
        E 90 80 3e 00
        <X 150 0
          /wVwYS0=
        >
        E 0 90 42 60
        E 240 80 42 00
        <X 120 0
          /wXnbw==
        >
        E 0 90 3e 60
        E 3000 80 3e 00
        E 60 80 69 00
        E 960 90 69 60
        <X 480 0
          /wVVbQ==
        >
        E 0 90 39 60
        E 150 80 39 00
        <X 150 0
          /wVncmkt
        >
        E 0 90 3b 60
        E 240 80 3b 00
        <X 120 0
          /wV0b6d1bQ==
        >
        E 0 90 3e 60
        E 150 80 3e 00
        <X 150 0
          /wVkZS0=
        >
        E 0 90 43 60
        E 1410 80 43 00
        <X 150 0
          /wVzYS0=
        >
        E 0 90 45 60
        E 210 80 45 00
        <X 150 0
          /wViYS0=
        >
        E 0 90 43 60
        E 390 80 43 00
        <X 60 0
          /wVmbw==
        >
        E 0 90 42 60
        E 2430 80 42 00
        E 480 80 69 00
        E 960 90 69 60
        <X 480 0
          /wVFp28=
        >
        E 0 90 40 60
        E 240 80 40 00
        <X 90 0
          /wVxdWU=
        >
        E 0 90 40 60
        E 210 80 40 00
        <X 90 0
          /wVtZadpbS0=
        >
        E 0 90 42 60
        E 180 80 42 00
        <X 150 0
          /wVwb3It
        >
        E 0 90 40 60
        E 180 80 40 00
        <X 120 0
          /wV0YQ==
        >
        E 0 90 3e 60
        E 120 80 3e 00
        <X 240 0
          /wUr
        >
        E 0 90 3b 60
        E 30 80 3b 00
        <X 30 0
          /wXp
        >
        E 0 90 3b 60
        E 180 80 3b 00
        <X 60 0
          /wVu428=
        >
        E 0 90 3e 60
        E 120 80 3e 00
        <X 30 0
          /wVlcy0=
        >
        E 0 90 3e 60
        E 120 80 3e 00
        <X 60 0
          /wV0YXI=
        >
        E 0 90 3b 60
        E 180 80 3b 00
        <X 150 0
          /wV2ZW4t
        >
        E 0 90 39 60
        E 150 80 39 00
        <X 150 0
          /wVjaS0=
        >
        E 0 90 42 60
        E 330 80 42 00
        <X 90 0
          /wVkbw==
        >
        E 0 90 3e 60
        E 2850 80 3e 00
        E 90 80 69 00
        E 480 90 69 60
        E 0 90 74 60
        <X 480 0
          /wVNaS0=
        >
        E 0 90 39 60
        E 180 80 39 00
        <X 30 0
          /wVuaGE=
        >
        E 0 90 39 60
        E 210 80 39 00
        <X 60 0
          /wV2aS0=
        >
        E 0 90 39 60
        E 240 80 39 00
        <X 90 0
          /wVkYQ==
        >
        E 0 90 3b 60
        E 240 80 3b 00
        <X 120 0
          /wVtZXVz
        >
        E 0 90 3e 60
        E 210 80 3e 00
        <X 60 0
          /wVtb3It
        >
        E 0 90 43 60
        E 300 80 43 00
        <X 60 0
          /wV0b3M=
        >
        E 0 90 42 60
        E 300 80 42 00
        E 30 90 01 60
        <X 30 0
          /wVtZXVz
        >
        E 0 80 01 00
        E 0 90 3e 60
        E 180 80 3e 00
        <X 210 0
          /wVjYS0=
        >
        E 0 90 43 60
        E 210 80 43 00
        <X 60 0
          /wVtaS0=
        >
        E 0 90 42 60
        E 210 80 42 00
        <X 60 0
          /wVuaG9z
        >
        E 0 90 3e 60
        E 210 80 3e 00
        <X 120 0
          /wV0b3It
        >
        E 0 90 42 60
        E 270 80 42 00
        <X 120 0
          /wV0b3M=
        >
        E 0 90 3e 60
        E 2970 80 3e 00
        E 420 80 69 00
        E 0 80 74 00
        E 480 90 69 60
        <X 210 0
          /wVNZXU=
        >
        E 0 90 39 60
        E 180 80 39 00
        <X 120 0
          /wVzYW4t
        >
        E 0 90 39 60
        E 240 80 39 00
        <X 90 0
          /wVndWU=
        >
        E 0 90 3b 60
        E 210 80 3b 00
        <X 120 0
          /wVsYS0=
        >
        E 0 90 3e 60
        E 240 80 3e 00
        <X 90 0
          /wV0aS0=
        >
        E 0 90 43 60
        E 1260 80 43 00
        <X 60 0
          /wVubw==
        >
        E 0 90 43 60
        E 60 80 43 00
        <X 60 0
          /wUr
        >
        E 0 90 45 60
        E 330 80 45 00
        <X 120 0
          /wUr
        >
        E 0 90 42 60
        E 1050 80 42 00
        <X 90 0
          /wUr
        >
        E 0 90 40 60
        E 390 80 40 00
        <X 90 0
          /wUr
        >
        E 0 90 42 60
        E 60 80 42 00
        <X 60 0
          /wUr
        >
        E 0 90 40 60
        E 60 80 40 00
        <X 60 0
          /wUr
        >
        E 0 90 3e 60
        E 1590 80 3e 00
        E 360 80 69 00
        E 480 90 69 60
        <X 240 0
          /wVNaS0=
        >
        E 0 90 39 60
        E 150 80 39 00
        <X 90 0
          /wVuaGEnYWwt
        >
        E 0 90 39 60
        E 270 80 39 00
        <X 120 0
          /wVtYQ==
        >
        E 0 90 3b 60
        E 240 80 3b 00
        <X 120 0
          /wVjYS0=
        >
        E 0 90 3e 60
        E 210 80 3e 00
        <X 120 0
          /wV0aS0=
        >
        E 0 90 43 60
        E 1200 80 43 00
        <X 450 0
          /wUr
        >
        E 0 90 3e 60
        E 90 80 3e 00
        <X 60 0
          /wV2YQ==
        >
        E 0 90 3e 60
        E 5850 80 3e 00
        E 390 80 69 00
        <X 90 0
          /wFbaWRsZV9yZWFsdGltZV0=
        >
        E 5189 b0 7b 00
        GUID {AB5E9E34-D819-4811-9405-AE492BFB61BD}
        IGNTEMPO 0 120.00000000 4 4
        SRCCOLOR 18
        VELLANE 132 128 60
        COLORMAP "C:\Program Files\REAPER (x64)\Data\color_maps\rockband_guitarbass.png"
        CFGEDITVIEW -9350.280011 8.293861 0 12 0 0 0
        CFGEDIT 1 1 0 1 1 0 1 1 1 1 1 0.25000000 -8 -8 1544 872 0 2 1 1 0.00000000 0 1 0 0 0.500000 0 0 1.000000 64
        KEYSNAP 0 6 "102030050700" 0 "Pentatonic"
        EVTFILTER 0 -1 -1 -1 -1 0 1 0 0 -1.00000000 -1.00000000
      >
    >
  >
  <TRACK '{4F7CD92B-06B7-4B61-A34D-ABDEAF32BD0A}'
    NAME "vocals"
    PEAKCOL 16576
    BEAT -1
    AUTOMODE 0
    VOLPAN 1.00000000000000 0.00000000000000 -1.00000000000000 -1.00000000000000 1.00000000000000
    MUTESOLO 0 0 0
    IPHASE 0
    ISBUS 2 -1
    BUSCOMP 0 0
    SHOWINMIX 1 0.666700 0.500000 1 0.500000 -1 -1 -1
    FREEMODE 0
    SEL 1
    REC 0 0 0 0 0 0 0
    VU 2
    TRACKHEIGHT 0 0
    INQ 0 0 0 0.5000000000 100 0 0 100
    NCHAN 2
    FX 1
    TRACKID {4F7CD92B-06B7-4B61-A34D-ABDEAF32BD0A}
    PERF 0
    MIDIOUT -1
    MAINSEND 1 0
    <ITEM
      POSITION 0.00000000000000
      SNAPOFFS 0.00000000000000
      LENGTH 135.40131519274377
      LOOP 0
      ALLTAKES 0
      SEL 0
      FADEIN 1 0.000000 0.000000 1 0
      FADEOUT 1 0.000000 0.000000 1 0
      MUTE 0
      IGUID {79D4A8FA-8802-4A23-AABB-329A4E0864EB}
      IID 27
      NAME "vocals.wav"
      VOLPAN 1.000000 0.000000 1.000000 -1.000000
      SOFFS 0.00000000000000
      PLAYRATE 1.00000000000000 1 0.00000000000000 -1
      CHANMODE 0
      GUID {E450988E-3A7A-4B6D-9D8E-042882FBCE84}
      <SOURCE WAVE
        FILE "wav\vocals.wav"
      >
    >
  >
  <TRACK '{A91A0EED-DA4D-442F-AD53-9291E9A7F2BB}'
    NAME "EVENTS"
    PEAKCOL 16576
    BEAT -1
    AUTOMODE 0
    VOLPAN 1.00000000000000 0.00000000000000 -1.00000000000000 -1.00000000000000 1.00000000000000
    MUTESOLO 0 0 0
    IPHASE 0
    ISBUS 0 0
    BUSCOMP 0 0
    SHOWINMIX 1 0.666700 0.500000 1 0.500000 -1 -1 -1
    FREEMODE 0
    SEL 0
    REC 0 0 0 0 0 0 0
    VU 2
    TRACKHEIGHT 0 0
    INQ 0 0 0 0.5000000000 100 0 0 100
    NCHAN 2
    FX 1
    TRACKID {A91A0EED-DA4D-442F-AD53-9291E9A7F2BB}
    PERF 0
    MIDIOUT -1
    <MIDINOTENAMES
      0 26 "Hi-Hat"
      0 25 "Snare"
      0 24 "Kick"
    >
    MAINSEND 1 0
    <FXCHAIN
      SHOW 0
      LASTSEL 0
      DOCKED 0
    >
    <ITEM
      POSITION 0.00000000000000
      SNAPOFFS 0.00000000000000
      LENGTH 135.40100000000001
      LOOP 0
      ALLTAKES 0
      SEL 0
      FADEIN 1 0.000000 0.000000 1 0
      FADEOUT 1 0.000000 0.000000 1 0
      MUTE 0
      IGUID {D3625897-3A8C-4C42-A9F3-515E68C09F5D}
      IID 5
      NAME "EVENTS"
      VOLPAN 1.000000 0.000000 1.000000 -1.000000
      SOFFS 0.00000000000000 0.00000000000000
      PLAYRATE 1.00000000000000 1 0.00000000000000 -1
      CHANMODE 0
      GUID {2C49B80F-268A-43E5-8C03-E86A556F6210}
      <SOURCE MIDI
        HASDATA 1 480 QN
        POOLEDEVTS {59EA7C32-4E99-4E3C-BC0D-CE1D5CB1CC0A}
        <X 0 0
          /wNFVkVOVFM=
        >
        <X 4800 0
          /wFbcHJjX2ludHJvXQ==
        >
        <X 1440 0
          /wFbbXVzaWNfc3RhcnRd
        >
        <X 0 0
          /wFbY3Jvd2Rfbm9ybWFsXQ==
        >
        <X 22560 0
          /wFbcHJjX3ZlcnNlXzFd
        >
        <X 0 0
          /wFbY3Jvd2Rfbm9jbGFwXQ==
        >
        <X 23040 0
          /wFbcHJjX3ZlcnNlXzJd
        >
        <X 30720 0
          /wFbcHJjX3ZlcnNlXzNd
        >
        <X 30720 0
          /wFbcHJjX3ZlcnNlXzRd
        >
        <X 23520 0
          /wFbbXVzaWNfZW5kXQ==
        >
        <X 7195 0
          /wFbZW5kXQ==
        >
        E 5 b0 7b 00
        GUID {A26E5215-E69A-4F2D-9D77-DC476CC3609F}
        IGNTEMPO 0 120.00000000 4 4
        SRCCOLOR 19
        VELLANE 132 128 60
        COLORMAP "C:\Program Files\REAPER (x64)\Data\color_maps\rockband_guitarbass.png"
        CFGEDITVIEW -9350.280011 8.293861 0 48 0 0 0
        CFGEDIT 1 1 0 1 1 0 1 1 1 1 1 0.25000000 -8 -8 1544 872 0 2 1 1 0.00000000 0 1 0 0 0.500000 0 0 1.000000 64
        KEYSNAP 0 6 "102030050700" 0 "Pentatonic"
        EVTFILTER 0 -1 -1 -1 -1 0 1 0 0 -1.00000000 -1.00000000
      >
    >
  >
  <TRACK '{B4B71918-BA80-412B-8624-A463F8D9F8D2}'
    NAME "BEAT"
    PEAKCOL 16576
    BEAT -1
    AUTOMODE 0
    VOLPAN 1.00000000000000 0.00000000000000 -1.00000000000000 -1.00000000000000 1.00000000000000
    MUTESOLO 0 0 0
    IPHASE 0
    ISBUS 0 0
    BUSCOMP 0 0
    SHOWINMIX 1 0.666700 0.500000 1 0.500000 -1 -1 -1
    FREEMODE 0
    SEL 0
    REC 0 0 0 0 0 0 0
    VU 2
    TRACKHEIGHT 0 0
    INQ 0 0 0 0.5000000000 100 0 0 100
    NCHAN 2
    FX 1
    TRACKID {B4B71918-BA80-412B-8624-A463F8D9F8D2}
    PERF 0
    MIDIOUT -1
    <MIDINOTENAMES
      0 13 "Up Beats"
      0 12 "Downbeat"
    >
    MAINSEND 1 0
    <FXCHAIN
      SHOW 0
      LASTSEL 0
      DOCKED 0
    >
    <ITEM
      POSITION 0.00000000000000
      SNAPOFFS 0.00000000000000
      LENGTH 135.40100000000001
      LOOP 0
      ALLTAKES 0
      SEL 0
      FADEIN 1 0.000000 0.000000 1 0
      FADEOUT 1 0.000000 0.000000 1 0
      MUTE 0
      IGUID {C4B1A431-2B5C-4609-A18A-B9D161741937}
      IID 6
      NAME "BEAT"
      VOLPAN 1.000000 0.000000 1.000000 -1.000000
      SOFFS 0.00000000000000 0.00000000000000
      PLAYRATE 1.00000000000000 1 0.00000000000000 -1
      CHANMODE 0
      GUID {98D52D9C-2D4F-4838-A73A-DAE8EEC33780}
      <SOURCE MIDI
        HASDATA 1 480 QN
        POOLEDEVTS {24CECF1B-34B1-4639-926A-A8EE75A2650E}
        <X 0 0
          /wNCRUFU
        >
        E 0 96 0c 64
        E 120 86 0c 00
        E 360 96 0d 64
        E 120 86 0d 00
        E 360 96 0d 64
        E 120 86 0d 00
        E 360 96 0d 64
        E 120 86 0d 00
        E 360 96 0c 64
        E 120 86 0c 00
        E 360 96 0d 64
        E 120 86 0d 00
        E 360 96 0d 64
        E 120 86 0d 00
        E 360 96 0d 64
        E 120 86 0d 00
        E 360 96 0c 64
        E 120 86 0c 00
        E 360 96 0d 64
        E 120 86 0d 00
        E 360 96 0d 64
        E 120 86 0d 00
        E 360 96 0d 64
        E 120 86 0d 00
        E 360 96 0c 64
        E 120 86 0c 00
        E 360 96 0d 64
        E 120 86 0d 00
        E 360 96 0d 64
        E 120 86 0d 00
        E 360 96 0d 64
        E 120 86 0d 00
        E 360 96 0c 64
        E 120 86 0c 00
        E 360 96 0d 64
        E 120 86 0d 00
        E 360 96 0d 64
        E 120 86 0d 00
        E 360 96 0d 64
        E 120 86 0d 00
        E 360 96 0c 64
        E 120 86 0c 00
        E 360 96 0d 64
        E 120 86 0d 00
        E 360 96 0d 64
        E 120 86 0d 00
        E 360 96 0d 64
        E 120 86 0d 00
        E 360 96 0c 64
        E 120 86 0c 00
        E 360 96 0d 64
        E 120 86 0d 00
        E 360 96 0d 64
        E 120 86 0d 00
        E 360 96 0d 64
        E 120 86 0d 00
        E 360 96 0c 64
        E 120 86 0c 00
        E 360 96 0d 64
        E 120 86 0d 00
        E 360 96 0d 64
        E 120 86 0d 00
        E 360 96 0d 64
        E 120 86 0d 00
        E 360 96 0c 64
        E 120 86 0c 00
        E 360 96 0d 64
        E 120 86 0d 00
        E 360 96 0d 64
        E 120 86 0d 00
        E 360 96 0d 64
        E 120 86 0d 00
        E 360 96 0c 64
        E 120 86 0c 00
        E 360 96 0d 64
        E 120 86 0d 00
        E 360 96 0d 64
        E 120 86 0d 00
        E 360 96 0d 64
        E 120 86 0d 00
        E 360 96 0c 64
        E 120 86 0c 00
        E 360 96 0d 64
        E 120 86 0d 00
        E 360 96 0d 64
        E 120 86 0d 00
        E 360 96 0d 64
        E 120 86 0d 00
        E 360 96 0c 64
        E 120 86 0c 00
        E 360 96 0d 64
        E 120 86 0d 00
        E 360 96 0d 64
        E 120 86 0d 00
        E 360 96 0d 64
        E 120 86 0d 00
        E 360 96 0c 64
        E 120 86 0c 00
        E 360 96 0d 64
        E 120 86 0d 00
        E 360 96 0d 64
        E 120 86 0d 00
        E 360 96 0d 64
        E 120 86 0d 00
        E 360 96 0c 64
        E 120 86 0c 00
        E 360 96 0d 64
        E 120 86 0d 00
        E 360 96 0d 64
        E 120 86 0d 00
        E 360 96 0d 64
        E 120 86 0d 00
        E 360 96 0c 64
        E 120 86 0c 00
        E 360 96 0d 64
        E 120 86 0d 00
        E 360 96 0d 64
        E 120 86 0d 00
        E 360 96 0d 64
        E 120 86 0d 00
        E 360 96 0c 64
        E 120 86 0c 00
        E 360 96 0d 64
        E 120 86 0d 00
        E 360 96 0d 64
        E 120 86 0d 00
        E 360 96 0d 64
        E 120 86 0d 00
        E 360 96 0c 64
        E 120 86 0c 00
        E 360 96 0d 64
        E 120 86 0d 00
        E 360 96 0d 64
        E 120 86 0d 00
        E 360 96 0d 64
        E 120 86 0d 00
        E 360 96 0c 64
        E 120 86 0c 00
        E 360 96 0d 64
        E 120 86 0d 00
        E 360 96 0d 64
        E 120 86 0d 00
        E 360 96 0d 64
        E 120 86 0d 00
        E 360 96 0c 64
        E 120 86 0c 00
        E 360 96 0d 64
        E 120 86 0d 00
        E 360 96 0d 64
        E 120 86 0d 00
        E 360 96 0d 64
        E 120 86 0d 00
        E 360 96 0c 64
        E 120 86 0c 00
        E 360 96 0d 64
        E 120 86 0d 00
        E 360 96 0d 64
        E 120 86 0d 00
        E 360 96 0d 64
        E 120 86 0d 00
        E 360 96 0c 64
        E 120 86 0c 00
        E 360 96 0d 64
        E 120 86 0d 00
        E 360 96 0d 64
        E 120 86 0d 00
        E 360 96 0d 64
        E 120 86 0d 00
        E 360 96 0c 64
        E 120 86 0c 00
        E 360 96 0d 64
        E 120 86 0d 00
        E 360 96 0d 64
        E 120 86 0d 00
        E 360 96 0d 64
        E 120 86 0d 00
        E 360 96 0c 64
        E 120 86 0c 00
        E 360 96 0d 64
        E 120 86 0d 00
        E 360 96 0d 64
        E 120 86 0d 00
        E 360 96 0d 64
        E 120 86 0d 00
        E 360 96 0c 64
        E 120 86 0c 00
        E 360 96 0d 64
        E 120 86 0d 00
        E 360 96 0d 64
        E 120 86 0d 00
        E 360 96 0d 64
        E 120 86 0d 00
        E 360 96 0c 64
        E 120 86 0c 00
        E 360 96 0d 64
        E 120 86 0d 00
        E 360 96 0d 64
        E 120 86 0d 00
        E 360 96 0d 64
        E 120 86 0d 00
        E 360 96 0c 64
        E 120 86 0c 00
        E 360 96 0d 64
        E 120 86 0d 00
        E 360 96 0d 64
        E 120 86 0d 00
        E 360 96 0d 64
        E 120 86 0d 00
        E 360 96 0c 64
        E 120 86 0c 00
        E 360 96 0d 64
        E 120 86 0d 00
        E 360 96 0d 64
        E 120 86 0d 00
        E 360 96 0d 64
        E 120 86 0d 00
        E 360 96 0c 64
        E 120 86 0c 00
        E 360 96 0d 64
        E 120 86 0d 00
        E 360 96 0d 64
        E 120 86 0d 00
        E 360 96 0d 64
        E 120 86 0d 00
        E 360 96 0c 64
        E 120 86 0c 00
        E 360 96 0d 64
        E 120 86 0d 00
        E 360 96 0d 64
        E 120 86 0d 00
        E 360 96 0d 64
        E 120 86 0d 00
        E 360 96 0c 64
        E 120 86 0c 00
        E 360 96 0d 64
        E 120 86 0d 00
        E 360 96 0d 64
        E 120 86 0d 00
        E 360 96 0d 64
        E 120 86 0d 00
        E 360 96 0c 64
        E 120 86 0c 00
        E 360 96 0d 64
        E 120 86 0d 00
        E 360 96 0d 64
        E 120 86 0d 00
        E 360 96 0d 64
        E 120 86 0d 00
        E 360 96 0c 64
        E 120 86 0c 00
        E 360 96 0d 64
        E 120 86 0d 00
        E 360 96 0d 64
        E 120 86 0d 00
        E 360 96 0d 64
        E 120 86 0d 00
        E 360 96 0c 64
        E 120 86 0c 00
        E 360 96 0d 64
        E 120 86 0d 00
        E 360 96 0d 64
        E 120 86 0d 00
        E 360 96 0d 64
        E 120 86 0d 00
        E 360 96 0c 64
        E 120 86 0c 00
        E 360 96 0d 64
        E 120 86 0d 00
        E 360 96 0d 64
        E 120 86 0d 00
        E 360 96 0d 64
        E 120 86 0d 00
        E 360 96 0c 64
        E 120 86 0c 00
        E 360 96 0d 64
        E 120 86 0d 00
        E 360 96 0d 64
        E 120 86 0d 00
        E 360 96 0d 64
        E 120 86 0d 00
        E 360 96 0c 64
        E 120 86 0c 00
        E 360 96 0d 64
        E 120 86 0d 00
        E 360 96 0d 64
        E 120 86 0d 00
        E 360 96 0d 64
        E 120 86 0d 00
        E 360 96 0c 64
        E 120 86 0c 00
        E 360 96 0d 64
        E 120 86 0d 00
        E 360 96 0d 64
        E 120 86 0d 00
        E 360 96 0d 64
        E 120 86 0d 00
        E 360 96 0c 64
        E 120 86 0c 00
        E 360 96 0d 64
        E 120 86 0d 00
        E 360 96 0d 64
        E 120 86 0d 00
        E 360 96 0d 64
        E 120 86 0d 00
        E 360 96 0c 64
        E 120 86 0c 00
        E 360 96 0d 64
        E 120 86 0d 00
        E 360 96 0d 64
        E 120 86 0d 00
        E 360 96 0d 64
        E 120 86 0d 00
        E 360 96 0c 64
        E 120 86 0c 00
        E 360 96 0d 64
        E 120 86 0d 00
        E 360 96 0d 64
        E 120 86 0d 00
        E 360 96 0d 64
        E 120 86 0d 00
        E 360 96 0c 64
        E 120 86 0c 00
        E 360 96 0d 64
        E 120 86 0d 00
        E 360 96 0d 64
        E 120 86 0d 00
        E 360 96 0d 64
        E 120 86 0d 00
        E 360 96 0c 64
        E 120 86 0c 00
        E 360 96 0d 64
        E 120 86 0d 00
        E 360 96 0d 64
        E 120 86 0d 00
        E 360 96 0d 64
        E 120 86 0d 00
        E 360 96 0c 64
        E 120 86 0c 00
        E 360 96 0d 64
        E 120 86 0d 00
        E 360 96 0d 64
        E 120 86 0d 00
        E 360 96 0d 64
        E 120 86 0d 00
        E 360 96 0c 64
        E 120 86 0c 00
        E 360 96 0d 64
        E 120 86 0d 00
        E 360 96 0d 64
        E 120 86 0d 00
        E 360 96 0d 64
        E 120 86 0d 00
        E 360 96 0c 64
        E 120 86 0c 00
        E 360 96 0d 64
        E 120 86 0d 00
        E 360 96 0d 64
        E 120 86 0d 00
        E 360 96 0d 64
        E 120 86 0d 00
        E 360 96 0c 64
        E 120 86 0c 00
        E 360 96 0d 64
        E 120 86 0d 00
        E 360 96 0d 64
        E 120 86 0d 00
        E 360 96 0d 64
        E 120 86 0d 00
        E 360 96 0c 64
        E 120 86 0c 00
        E 360 96 0d 64
        E 120 86 0d 00
        E 360 96 0d 64
        E 120 86 0d 00
        E 360 96 0d 64
        E 120 86 0d 00
        E 360 96 0c 64
        E 120 86 0c 00
        E 360 96 0d 64
        E 120 86 0d 00
        E 360 96 0d 64
        E 120 86 0d 00
        E 360 96 0d 64
        E 120 86 0d 00
        E 360 96 0c 64
        E 120 86 0c 00
        E 360 96 0d 64
        E 120 86 0d 00
        E 360 96 0d 64
        E 120 86 0d 00
        E 360 96 0d 64
        E 120 86 0d 00
        E 360 96 0c 64
        E 120 86 0c 00
        E 360 96 0d 64
        E 120 86 0d 00
        E 360 96 0d 64
        E 120 86 0d 00
        E 360 96 0d 64
        E 120 86 0d 00
        E 360 96 0c 64
        E 120 86 0c 00
        E 360 96 0d 64
        E 120 86 0d 00
        E 360 96 0d 64
        E 120 86 0d 00
        E 360 96 0d 64
        E 120 86 0d 00
        E 360 96 0c 64
        E 120 86 0c 00
        E 360 96 0d 64
        E 120 86 0d 00
        E 360 96 0d 64
        E 120 86 0d 00
        E 360 96 0d 64
        E 120 86 0d 00
        E 360 96 0c 64
        E 120 86 0c 00
        E 360 96 0d 64
        E 120 86 0d 00
        E 360 96 0d 64
        E 120 86 0d 00
        E 360 96 0d 64
        E 120 86 0d 00
        E 360 96 0c 64
        E 120 86 0c 00
        E 360 96 0d 64
        E 120 86 0d 00
        E 360 96 0d 64
        E 120 86 0d 00
        E 360 96 0d 64
        E 120 86 0d 00
        E 360 96 0c 64
        E 120 86 0c 00
        E 360 96 0d 64
        E 120 86 0d 00
        E 360 96 0d 64
        E 120 86 0d 00
        E 360 96 0d 64
        E 120 86 0d 00
        E 360 96 0c 64
        E 120 86 0c 00
        E 360 96 0d 64
        E 120 86 0d 00
        E 360 96 0d 64
        E 120 86 0d 00
        E 360 96 0d 64
        E 120 86 0d 00
        E 360 96 0c 64
        E 120 86 0c 00
        E 360 96 0d 64
        E 120 86 0d 00
        E 360 96 0d 64
        E 120 86 0d 00
        E 360 96 0d 64
        E 120 86 0d 00
        E 360 96 0c 64
        E 120 86 0c 00
        E 360 96 0d 64
        E 120 86 0d 00
        E 360 96 0d 64
        E 120 86 0d 00
        E 360 96 0d 64
        E 120 86 0d 00
        E 360 96 0c 64
        E 120 86 0c 00
        E 360 96 0d 64
        E 120 86 0d 00
        E 360 96 0d 64
        E 120 86 0d 00
        E 360 96 0d 64
        E 120 86 0d 00
        E 360 96 0c 64
        E 120 86 0c 00
        E 360 96 0d 64
        E 120 86 0d 00
        E 360 96 0d 64
        E 120 86 0d 00
        E 360 96 0d 64
        E 120 86 0d 00
        E 360 96 0c 64
        E 120 86 0c 00
        E 360 96 0d 64
        E 120 86 0d 00
        E 360 96 0d 64
        E 120 86 0d 00
        E 360 96 0d 64
        E 120 86 0d 00
        E 360 96 0c 64
        E 120 86 0c 00
        E 360 96 0d 64
        E 120 86 0d 00
        E 360 96 0d 64
        E 120 86 0d 00
        E 360 96 0d 64
        E 120 86 0d 00
        E 360 96 0c 64
        E 120 86 0c 00
        E 360 96 0d 64
        E 120 86 0d 00
        E 360 96 0d 64
        E 120 86 0d 00
        E 360 96 0d 64
        E 120 86 0d 00
        E 360 96 0c 64
        E 120 86 0c 00
        E 360 96 0d 64
        E 120 86 0d 00
        E 360 96 0d 64
        E 120 86 0d 00
        E 360 96 0d 64
        E 120 86 0d 00
        E 360 96 0c 64
        E 120 86 0c 00
        E 360 96 0d 64
        E 120 86 0d 00
        E 360 96 0d 64
        E 120 86 0d 00
        E 360 96 0d 64
        E 120 86 0d 00
        E 360 96 0c 64
        E 120 86 0c 00
        E 360 96 0d 64
        E 120 86 0d 00
        E 360 96 0d 64
        E 120 86 0d 00
        E 360 96 0d 64
        E 120 86 0d 00
        E 360 96 0c 64
        E 120 86 0c 00
        E 360 96 0d 64
        E 120 86 0d 00
        E 360 96 0d 64
        E 120 86 0d 00
        E 360 96 0d 64
        E 120 86 0d 00
        E 360 96 0c 64
        E 120 86 0c 00
        E 360 96 0d 64
        E 120 86 0d 00
        E 360 96 0d 64
        E 120 86 0d 00
        E 360 96 0d 64
        E 120 86 0d 00
        E 360 96 0c 64
        E 120 86 0c 00
        E 360 96 0d 64
        E 120 86 0d 00
        E 360 96 0d 64
        E 120 86 0d 00
        E 360 96 0d 64
        E 120 86 0d 00
        E 360 96 0c 64
        E 120 86 0c 00
        E 360 96 0d 64
        E 120 86 0d 00
        E 360 96 0d 64
        E 120 86 0d 00
        E 360 96 0d 64
        E 120 86 0d 00
        E 360 96 0c 64
        E 120 86 0c 00
        E 360 96 0d 64
        E 120 86 0d 00
        E 360 96 0d 64
        E 120 86 0d 00
        E 360 96 0d 64
        E 120 86 0d 00
        E 360 96 0c 64
        E 120 86 0c 00
        E 360 96 0d 64
        E 120 86 0d 00
        E 360 96 0d 64
        E 120 86 0d 00
        E 360 96 0d 64
        E 120 86 0d 00
        E 360 96 0c 64
        E 120 86 0c 00
        E 360 96 0d 64
        E 120 86 0d 00
        E 360 96 0d 64
        E 120 86 0d 00
        E 360 96 0d 64
        E 120 86 0d 00
        E 360 96 0c 64
        E 120 86 0c 00
        E 360 96 0d 64
        E 120 86 0d 00
        E 360 96 0d 64
        E 120 86 0d 00
        E 360 96 0d 64
        E 120 86 0d 00
        E 360 96 0c 64
        E 120 86 0c 00
        E 360 96 0d 64
        E 120 86 0d 00
        E 360 96 0d 64
        E 120 86 0d 00
        E 360 96 0d 64
        E 120 86 0d 00
        E 360 b0 7b 00
        GUID {9065E318-87DE-4459-B731-43E658E4709D}
        IGNTEMPO 0 120.00000000 4 4
        SRCCOLOR 20
        VELLANE 132 128 60
        COLORMAP "C:\Program Files\REAPER (x64)\Data\color_maps\rockband_guitarbass.png"
        CFGEDITVIEW -9350.280011 8.293861 0 48 0 0 0
        CFGEDIT 1 1 0 1 1 0 1 1 1 1 1 0.25000000 -8 -8 1544 872 0 2 1 1 0.00000000 0 1 0 0 0.500000 0 0 1.000000 64
        KEYSNAP 0 6 "102030050700" 0 "Pentatonic"
        EVTFILTER 0 -1 -1 -1 -1 0 1 0 0 -1.00000000 -1.00000000
      >
    >
  >
  <TRACK '{97720A8F-8BE6-404C-B683-7DF9F2855CC7}'
    NAME "backing"
    PEAKCOL 16576
    BEAT -1
    AUTOMODE 0
    VOLPAN 1.00000000000000 0.00000000000000 -1.00000000000000 -1.00000000000000 1.00000000000000
    MUTESOLO 0 0 0
    IPHASE 0
    ISBUS 0 0
    BUSCOMP 0 0
    SHOWINMIX 1 0.666700 0.500000 1 0.500000 -1 -1 -1
    FREEMODE 0
    SEL 0
    REC 0 0 0 0 0 0 0
    VU 2
    TRACKHEIGHT 0 0
    INQ 0 0 0 0.5000000000 100 0 0 100
    NCHAN 2
    FX 1
    TRACKID {97720A8F-8BE6-404C-B683-7DF9F2855CC7}
    PERF 0
    MIDIOUT -1
    MAINSEND 1 0
    <ITEM
      POSITION 0.00000000000000
      SNAPOFFS 0.00000000000000
      LENGTH 135.40131519274377
      LOOP 0
      ALLTAKES 0
      SEL 0
      FADEIN 1 0.000000 0.000000 1 0
      FADEOUT 1 0.000000 0.000000 1 0
      MUTE 0
      IGUID {4655F00F-9E0A-4A28-9233-463EC55138F0}
      IID 23
      NAME "backing.wav"
      VOLPAN 1.000000 0.000000 1.000000 -1.000000
      SOFFS 0.00000000000000
      PLAYRATE 1.00000000000000 1 0.00000000000000 -1
      CHANMODE 0
      GUID {602A98AB-425E-4C4F-8E89-58316344A5AA}
      <SOURCE WAVE
        FILE "wav\backing.wav"
      >
    >
  >
  <EXTENSIONS
  >
>
