<REAPER_PROJECT 0.1 "4.22/x64"
  RIPPLE 0
  GROUPOVERRIDE 0 0 0
  AUTOXFADE 1
  ENVATTACH 1
  MIXERUIFLAGS 11 48
  PEAKGAIN 1.00000000000000
  FEEDBACK 0
  PANLAW 1.00000000000000
  PROJOFFS 0.00000000000000 0
  MAXPROJLEN 0 600.00000000000000
  GRID 3199 8 0.25000000000000 8 1.00000000000000 0
  TIMEMODE 1 0 -1
  PANMODE 3
  CURSOR 14.20217687074834
  ZOOM 12.34065934065934 0 0
  VZOOMEX 6
  USE_REC_CFG 0
  RECMODE 1
  SMPTESYNC 0 23.976024 100 40 1000 300 0 0.000000 1
  LOOP 1
  LOOPGRAN 0 4.00000000000000
  RECORD_PATH "" ""
  <RECORD_CFG
  >
  <APPLYFX_CFG
  >
  RENDER_FILE ""
  RENDER_PATTERN ""
  RENDER_FMT 0 2 0
  RENDER_1X 0
  RENDER_RANGE 1 0.00000000000000 0.00000000000000
  RENDER_RESAMPLE 3 0 1
  RENDER_ADDTOPROJ 0
  RENDER_STEMS 0
  RENDER_DITHER 0
  TIMELOCKMODE 0
  ITEMMIX 0
  DEFPITCHMODE 393216
  TAKELANE 1
  SAMPLERATE 44100 0 0
  <RENDER_CFG
  >
  LOCK 1
  <METRONOME 6 2.000000
    VOL 0.250000 0.125000
    FREQ 800 1600 1
    BEATLEN 4
    SAMPLES "" ""
  >
  GLOBAL_AUTO -1
  TEMPO 120.00000000000000 4 4
  PLAYRATE 1.00000000000000 0 0.25000 4.00000
  SELECTION 91.00000000000000 0.00000000000000
  SELECTION2 91.00000000000000 0.00000000000000
  MASTERAUTOMODE 0
  MASTERTRACKHEIGHT 0
  MASTERPEAKCOL 16576
  MASTERMUTESOLO 0
  MASTERTRACKVIEW 0 0.666700 0.500000 0.500000 -1 -1 -1
  MASTERHWOUT 0 0 1.00000000000000 0.00000000000000 0 0 0 -1.00000000000000
  MASTER_NCH 2 2
  MASTER_VOLUME 0.38387322343010 0.00000000000000 -1.00000000000000 -1.00000000000000 1.00000000000000
  MASTER_PANMODE -1
  MASTER_FX 1
  MASTER_SEL 0
  <MASTERPLAYSPEEDENV
    ACT 0
    VIS 0 1 1.000000
    LANEHEIGHT 0 0
    ARM 0
    DEFSHAPE 0 -1 -1
  >
  <TEMPOENVEX
    ACT 1
    VIS 1 0 1.000000
    LANEHEIGHT 0 0
    ARM 0
    DEFSHAPE 1 -1 -1
    PT 0.000000000000 120.0000000000 1 524295
  >
  <PROJBAY
  >
  <TRACK '{BD27ED58-A437-4B07-9921-3743A1EB1C78}'
    NAME "PART DRUMS"
    PEAKCOL 16576
    BEAT -1
    AUTOMODE 0
    VOLPAN 1.00000000000000 0.00000000000000 -1.00000000000000 -1.00000000000000 1.00000000000000
    MUTESOLO 0 0 0
    IPHASE 0
    ISBUS 1 1
    BUSCOMP 0 0
    SHOWINMIX 1 0.666700 0.500000 1 0.500000 -1 -1 -1
    FREEMODE 0
    SEL 0
    REC 0 0 0 0 0 0 0
    VU 2
    TRACKHEIGHT 0 0
    INQ 0 0 0 0.5000000000 100 0 0 100
    NCHAN 2
    FX 1
    TRACKID {BD27ED58-A437-4B07-9921-3743A1EB1C78}
    PERF 0
    MIDIOUT -1
    <MIDINOTENAMES
      0 127 "Cymbal Swells"
      0 126 "Drum Roll"
      0 125 "---"
      0 124 "DRUM FILL"
      0 123 "DRUM FILL"
      0 122 "DRUM FILL"
      0 121 "DRUM FILL"
      0 120 "DRUM FILL (use all 5)"
      0 118 "----"
      0 116 "OVERDRIVE"
      0 114 "----"
      0 112 "TOM GEMS PAD 4"
      0 111 "TOM GEMS PAD 3"
      0 110 "TOM GEMS PAD 2"
      0 103 "Solo Marker"
      0 102 "----"
      0 100 "EXPERT Green"
      0 99 "EXPERT Blue"
      0 98 "EXPERT Yellow"
      0 97 "EXPERT Red"
      0 96 "EXPERT Kick"
      0 92 "----"
      0 88 "HARD Green"
      0 87 "HARD Blue"
      0 86 "HARD Yellow"
      0 85 "HARD Red"
      0 84 "HARD Kick"
      0 80 "----"
      0 76 "MEDIUM Green"
      0 75 "MEDIUM Blue"
      0 74 "MEDIUM Yellow"
      0 73 "MEDIUM Red"
      0 72 "MEDIUM Kick"
      0 68 "----"
      0 64 "EASY Green"
      0 63 "EASY Blue"
      0 62 "EASY Yellow"
      0 61 "EASY Red"
      0 60 "EASY Kick"
      0 56 "----"
      0 52 "-- DRUM ANIMATION --"
      0 51 "FLOOR TOM RH"
      0 50 "FLOOR TOM LH"
      0 49 "TOM2 RH"
      0 48 "TOM2 LH"
      0 47 "TOM1 RH"
      0 46 "TOM1 LH"
      0 45 "SOFT CRASH 2 LH"
      0 44 "CRASH 2 LH"
      0 43 "RIDE LH"
      0 42 "RIDE CYM RH"
      0 41 "CRASH2 CHOKE"
      0 40 "CRASH1 CHOKE"
      0 39 "CRASH2 SOFT RH"
      0 38 "CRASH2 HARD RH"
      0 37 "CRASH1 SOFT RH"
      0 36 "CRASH1 HARD RH"
      0 35 "CRASH1 SOFT LH"
      0 34 "CRASH1 HARD LH"
      0 32 "PERCUSSION RH"
      0 31 "HI-HAT RH"
      0 30 "HI-HAT LH"
      0 29 "SOFT SNARE RH"
      0 28 "SOFT SNARE LH"
      0 27 "SNARE RH"
      0 26 "SNARE LH"
      0 25 "HI-HAT OPEN"
      0 24 "KICK RF"
    >
    MAINSEND 1 0
    <FXCHAIN
      WNDRECT 647 240 878 559
      SHOW 0
      LASTSEL 0
      DOCKED 0
      BYPASS 0 0
      <VST "VSTi: RBN Preview (RBN)" "rbprev_vst64.dll" 0 ""
        dnBicu5e7f4AAAAAAgAAAAEAAAAAAAAAAgAAAAAAAAAEAAAAAQAAAA==
        AAAQAAABqgAAABAAAAA=
      >
      FLOATPOS 0 0 0 0
      FXID {8A0BFD14-F609-4C23-939C-661FA01930FD}
      WAK 0
    >
    <ITEM
      POSITION 0.00000000000000
      SNAPOFFS 0.00000000000000
      LENGTH 91.00000000000000
      LOOP 0
      ALLTAKES 0
      SEL 0
      FADEIN 1 0.000000 0.000000 1 0
      FADEOUT 1 0.000000 0.000000 1 0
      MUTE 0
      IGUID {0649653B-8471-496A-8FC2-778356A2070D}
      IID 45
      NAME "PART DRUMS"
      VOLPAN 1.000000 0.000000 1.000000 -1.000000
      SOFFS 0.00000000000000 0.00000000000000
      PLAYRATE 1.00000000000000 1 0.00000000000000 -1
      CHANMODE 0
      GUID {5B480236-A73E-4AFB-BC9F-33F6076408C7}
      <SOURCE MIDI
        HASDATA 1 480 QN
        POOLEDEVTS {C950C9F2-C7C3-4B3B-9688-9007A6C166D1}
        <X 0 0
          /wNQQVJUIERSVU1T
        >
        E 0 90 19 60
        <X 120 0
          /wFbbWl4IDAgZHJ1bXMyXQ==
        >
        <X 120 0
          /wFbbWl4IDEgZHJ1bXMyXQ==
        >
        <X 120 0
          /wFbbWl4IDIgZHJ1bXMyXQ==
        >
        <X 120 0
          /wFbbWl4IDMgZHJ1bXMyXQ==
        >
        E 720 80 19 00
        E 240 90 19 60
        <X 1920 0
          /wFbaW50ZW5zZV0=
        >
        E 0 80 19 00
        E 0 90 74 60
        E 0 99 18 60
        E 0 99 33 60
        E 0 99 60 60
        E 0 99 64 60
        E 0 99 70 60
        E 60 89 18 00
        E 0 89 33 00
        E 0 89 60 00
        E 0 89 64 00
        E 0 89 70 00
        E 180 99 31 60
        E 0 99 63 60
        E 0 99 6f 60
        E 60 89 31 00
        E 0 89 63 00
        E 0 89 6f 00
        E 180 99 1c 60
        E 0 99 61 60
        E 60 89 1c 00
        E 0 89 61 00
        E 60 99 18 60
        E 0 99 60 60
        E 60 89 18 00
        E 0 89 60 00
        E 60 99 1b 60
        E 0 99 61 60
        E 60 89 1b 00
        E 0 89 61 00
        E 0 99 1a 60
        E 0 99 61 60
        E 60 89 1a 00
        E 0 89 61 00
        E 0 99 1b 60
        E 0 99 61 60
        E 60 89 1b 00
        E 0 89 61 00
        E 180 99 2f 60
        E 0 99 62 60
        E 0 99 6e 60
        E 60 89 2f 00
        E 0 89 62 00
        E 0 89 6e 00
        E 0 99 2e 60
        E 0 99 62 60
        E 0 99 6e 60
        E 60 89 2e 00
        E 0 89 62 00
        E 0 89 6e 00
        E 0 99 2f 60
        E 0 99 62 60
        E 0 99 6e 60
        E 60 89 2f 00
        E 0 89 62 00
        E 0 89 6e 00
        E 60 99 2e 60
        E 0 99 62 60
        E 0 99 6e 60
        E 60 89 2e 00
        E 0 89 62 00
        E 0 89 6e 00
        E 60 99 31 60
        E 0 99 63 60
        E 0 99 6f 60
        E 60 89 31 00
        E 0 89 63 00
        E 0 89 6f 00
        E 60 99 30 60
        E 0 99 63 60
        E 0 99 6f 60
        E 60 89 30 00
        E 0 89 63 00
        E 0 89 6f 00
        E 60 99 24 60
        E 0 99 64 60
        E 60 80 74 00
        E 0 89 24 00
        E 0 89 64 00
        E 60 90 1f 60
        E 0 99 62 60
        E 60 80 1f 00
        E 0 90 1e 60
        E 0 89 62 00
        E 0 99 62 60
        E 60 80 1e 00
        E 0 90 1f 60
        E 0 89 62 00
        E 0 99 62 60
        E 60 80 1f 00
        E 0 89 62 00
        E 60 90 1f 60
        E 0 99 62 60
        E 60 80 1f 00
        E 0 89 62 00
        E 60 90 1f 60
        E 0 99 1c 60
        E 0 99 61 60
        E 0 99 62 60
        E 60 80 1f 00
        E 0 89 1c 00
        E 0 89 61 00
        E 0 89 62 00
        E 60 90 1f 60
        E 0 99 62 60
        E 60 80 1f 00
        E 0 89 62 00
        E 60 90 1f 60
        E 0 99 62 60
        E 60 80 1f 00
        E 0 89 62 00
        E 60 90 19 60
        E 0 90 1f 60
        E 0 99 18 60
        E 0 99 60 60
        E 0 99 63 60
        E 60 80 1f 00
        E 0 89 18 00
        E 0 89 60 00
        E 0 89 63 00
        E 60 80 19 00
        E 0 90 1f 60
        E 0 99 62 60
        E 60 80 1f 00
        E 0 89 62 00
        E 60 90 1f 60
        E 0 99 18 60
        E 0 99 60 60
        E 0 99 62 60
        E 60 80 1f 00
        E 0 89 18 00
        E 0 89 60 00
        E 0 89 62 00
        E 60 90 19 60
        E 0 90 1f 60
        E 0 99 63 60
        E 60 80 1f 00
        E 0 89 63 00
        E 60 80 19 00
        E 0 90 1f 60
        E 0 99 1c 60
        E 0 99 61 60
        E 0 99 62 60
        E 60 80 1f 00
        E 0 89 1c 00
        E 0 89 61 00
        E 0 89 62 00
        E 60 90 1f 60
        E 0 99 62 60
        E 60 80 1f 00
        E 0 89 62 00
        E 60 90 1f 60
        E 0 99 18 60
        E 0 99 60 60
        E 0 99 62 60
        E 60 80 1f 00
        E 0 89 18 00
        E 0 89 60 00
        E 0 89 62 00
        E 60 90 1f 60
        E 0 99 62 60
        E 60 80 1f 00
        E 0 89 62 00
        E 60 90 1f 60
        E 0 99 18 60
        E 0 99 60 60
        E 0 99 62 60
        E 60 80 1f 00
        E 0 90 1e 60
        E 0 89 18 00
        E 0 89 60 00
        E 0 89 62 00
        E 0 99 62 60
        E 60 80 1e 00
        E 0 90 1f 60
        E 0 89 62 00
        E 0 99 62 60
        E 60 80 1f 00
        E 0 89 62 00
        E 60 90 1f 60
        E 0 99 18 60
        E 0 99 60 60
        E 0 99 62 60
        E 60 80 1f 00
        E 0 89 18 00
        E 0 89 60 00
        E 0 89 62 00
        E 60 90 1f 60
        E 0 99 1c 60
        E 0 99 61 60
        E 0 99 62 60
        E 60 80 1f 00
        E 0 89 1c 00
        E 0 89 61 00
        E 0 89 62 00
        E 60 90 1f 60
        E 0 99 62 60
        E 60 80 1f 00
        E 0 89 62 00
        E 60 90 1f 60
        E 0 99 62 60
        E 60 80 1f 00
        E 0 89 62 00
        E 60 90 19 60
        E 0 90 1f 60
        E 0 99 18 60
        E 0 99 60 60
        E 0 99 63 60
        E 60 80 1f 00
        E 0 89 18 00
        E 0 89 60 00
        E 0 89 63 00
        E 60 80 19 00
        E 0 90 1f 60
        E 0 99 62 60
        E 60 80 1f 00
        E 0 89 62 00
        E 60 90 1f 60
        E 0 99 18 60
        E 0 99 60 60
        E 0 99 62 60
        E 60 80 1f 00
        E 0 89 18 00
        E 0 89 60 00
        E 0 89 62 00
        E 60 90 19 60
        E 0 90 1f 60
        E 0 99 63 60
        E 60 80 1f 00
        E 0 89 63 00
        E 60 80 19 00
        E 0 90 1f 60
        E 0 99 1c 60
        E 0 99 61 60
        E 0 99 62 60
        E 60 80 1f 00
        E 0 89 1c 00
        E 0 89 61 00
        E 0 89 62 00
        E 60 90 1f 60
        E 0 99 62 60
        E 60 80 1f 00
        E 0 89 62 00
        E 60 90 1f 60
        E 0 99 18 60
        E 0 99 60 60
        E 0 99 62 60
        E 60 80 1f 00
        E 0 89 18 00
        E 0 89 60 00
        E 0 89 62 00
        E 60 90 1f 60
        E 0 99 62 60
        E 60 80 1f 00
        E 0 89 62 00
        E 60 90 1f 60
        E 0 99 62 60
        E 60 80 1f 00
        E 0 90 1e 60
        E 0 89 62 00
        E 0 99 62 60
        E 60 80 1e 00
        E 0 90 1f 60
        E 0 89 62 00
        E 0 99 18 60
        E 0 99 60 60
        E 0 99 62 60
        E 60 80 1f 00
        E 0 89 18 00
        E 0 89 60 00
        E 0 89 62 00
        E 60 90 1f 60
        E 0 99 62 60
        E 60 80 1f 00
        E 0 89 62 00
        E 60 90 1f 60
        E 0 99 1c 60
        E 0 99 61 60
        E 0 99 62 60
        E 60 80 1f 00
        E 0 89 1c 00
        E 0 89 61 00
        E 0 89 62 00
        E 60 90 1f 60
        E 0 99 62 60
        E 60 80 1f 00
        E 0 89 62 00
        E 60 90 1f 60
        E 0 99 62 60
        E 60 80 1f 00
        E 0 89 62 00
        E 60 90 19 60
        E 0 90 1f 60
        E 0 99 18 60
        E 0 99 60 60
        E 0 99 63 60
        E 60 80 1f 00
        E 0 89 18 00
        E 0 89 60 00
        E 0 89 63 00
        E 60 80 19 00
        E 0 90 1f 60
        E 0 99 62 60
        E 60 80 1f 00
        E 0 89 62 00
        E 60 90 1f 60
        E 0 99 18 60
        E 0 99 60 60
        E 0 99 62 60
        E 60 80 1f 00
        E 0 89 18 00
        E 0 89 60 00
        E 0 89 62 00
        E 60 90 19 60
        E 0 90 1f 60
        E 0 99 63 60
        E 60 80 1f 00
        E 0 89 63 00
        E 60 80 19 00
        E 0 90 1f 60
        E 0 99 1c 60
        E 0 99 61 60
        E 0 99 62 60
        E 60 80 1f 00
        E 0 89 1c 00
        E 0 89 61 00
        E 0 89 62 00
        E 60 90 1f 60
        E 0 99 62 60
        E 60 80 1f 00
        E 0 89 62 00
        E 60 90 1f 60
        E 0 99 18 60
        E 0 99 60 60
        E 0 99 62 60
        E 60 80 1f 00
        E 0 89 18 00
        E 0 89 60 00
        E 0 89 62 00
        E 60 90 1f 60
        E 0 90 78 60
        E 0 90 79 60
        E 0 90 7a 60
        E 0 90 7b 60
        E 0 90 7c 60
        E 0 99 18 60
        E 0 99 60 60
        E 0 99 62 60
        E 60 80 1f 00
        E 0 89 18 00
        E 0 89 60 00
        E 0 89 62 00
        E 60 99 18 60
        E 0 99 60 60
        E 60 89 18 00
        E 0 89 60 00
        E 60 99 33 60
        E 0 99 64 60
        E 0 99 70 60
        E 60 89 33 00
        E 0 89 64 00
        E 0 89 70 00
        E 60 90 19 60
        E 0 99 18 60
        E 0 99 1e 60
        E 0 99 60 60
        E 0 99 62 60
        E 60 89 18 00
        E 0 89 1e 00
        E 0 89 60 00
        E 0 89 62 00
        E 60 80 19 00
        E 0 99 1c 60
        E 0 99 61 60
        E 60 89 1c 00
        E 0 89 61 00
        E 60 99 18 60
        E 0 99 2e 60
        E 0 99 60 60
        E 0 99 62 60
        E 0 99 6e 60
        E 60 89 18 00
        E 0 89 2e 00
        E 0 89 60 00
        E 0 89 62 00
        E 0 89 6e 00
        E 60 99 31 60
        E 0 99 63 60
        E 0 99 6f 60
        E 60 89 31 00
        E 0 89 63 00
        E 0 89 6f 00
        E 60 99 18 60
        E 0 99 1a 60
        E 0 99 60 60
        E 0 99 61 60
        E 60 89 18 00
        E 0 89 1a 00
        E 0 89 60 00
        E 0 89 61 00
        E 180 99 18 60
        E 0 99 2f 60
        E 0 99 60 60
        E 0 99 62 60
        E 0 99 6e 60
        E 60 89 18 00
        E 0 89 2f 00
        E 0 89 60 00
        E 0 89 62 00
        E 0 89 6e 00
        E 60 90 2e 60
        E 0 99 62 60
        E 0 99 6e 60
        E 60 80 2e 00
        E 0 89 62 00
        E 0 89 6e 00
        E 180 99 30 60
        E 0 99 63 60
        E 0 99 6f 60
        E 40 89 30 00
        E 0 89 63 00
        E 0 89 6f 00
        E 40 99 31 60
        E 0 99 63 60
        E 0 99 6f 60
        E 40 89 31 00
        E 0 89 63 00
        E 0 89 6f 00
        E 40 99 30 60
        E 0 99 63 60
        E 0 99 6f 60
        E 40 89 30 00
        E 0 89 63 00
        E 0 89 6f 00
        E 40 80 78 00
        E 0 80 79 00
        E 0 80 7a 00
        E 0 80 7b 00
        E 0 80 7c 00
        E 0 90 26 60
        E 0 99 18 60
        E 0 99 60 60
        E 0 99 64 60
        E 60 80 26 00
        E 0 89 18 00
        E 0 89 60 00
        E 0 89 64 00
        E 60 90 1f 60
        E 0 99 62 60
        E 60 80 1f 00
        E 0 90 1e 60
        E 0 89 62 00
        E 0 99 62 60
        E 60 80 1e 00
        E 0 90 1f 60
        E 0 89 62 00
        E 0 99 62 60
        E 60 80 1f 00
        E 0 89 62 00
        E 60 90 1f 60
        E 0 99 18 60
        E 0 99 60 60
        E 0 99 62 60
        E 60 80 1f 00
        E 0 89 18 00
        E 0 89 60 00
        E 0 89 62 00
        E 60 90 1f 60
        E 0 99 1c 60
        E 0 99 61 60
        E 0 99 62 60
        E 60 80 1f 00
        E 0 89 1c 00
        E 0 89 61 00
        E 0 89 62 00
        E 60 90 1f 60
        E 0 99 62 60
        E 60 80 1f 00
        E 0 89 62 00
        E 60 90 1f 60
        E 0 99 62 60
        E 60 80 1f 00
        E 0 89 62 00
        E 60 90 19 60
        E 0 90 1f 60
        E 0 99 18 60
        E 0 99 60 60
        E 0 99 63 60
        E 60 80 1f 00
        E 0 89 18 00
        E 0 89 60 00
        E 0 89 63 00
        E 60 80 19 00
        E 0 90 1f 60
        E 0 99 62 60
        E 60 80 1f 00
        E 0 89 62 00
        E 60 90 1f 60
        E 0 99 18 60
        E 0 99 60 60
        E 0 99 62 60
        E 60 80 1f 00
        E 0 89 18 00
        E 0 89 60 00
        E 0 89 62 00
        E 60 90 19 60
        E 0 90 1f 60
        E 0 99 63 60
        E 60 80 1f 00
        E 0 89 63 00
        E 60 80 19 00
        E 0 90 1f 60
        E 0 99 1c 60
        E 0 99 61 60
        E 0 99 62 60
        E 60 80 1f 00
        E 0 89 1c 00
        E 0 89 61 00
        E 0 89 62 00
        E 60 90 1f 60
        E 0 99 62 60
        E 60 80 1f 00
        E 0 89 62 00
        E 60 90 1f 60
        E 0 99 18 60
        E 0 99 60 60
        E 0 99 62 60
        E 60 80 1f 00
        E 0 89 18 00
        E 0 89 60 00
        E 0 89 62 00
        E 60 90 1f 60
        E 0 99 62 60
        E 60 80 1f 00
        E 0 89 62 00
        E 60 90 1f 60
        E 0 99 62 60
        E 60 80 1f 00
        E 0 90 1e 60
        E 0 89 62 00
        E 0 99 62 60
        E 60 80 1e 00
        E 0 90 1f 60
        E 0 89 62 00
        E 0 99 18 60
        E 0 99 60 60
        E 0 99 62 60
        E 60 80 1f 00
        E 0 89 18 00
        E 0 89 60 00
        E 0 89 62 00
        E 60 90 1f 60
        E 0 99 62 60
        E 60 80 1f 00
        E 0 89 62 00
        E 60 90 1f 60
        E 0 99 1c 60
        E 0 99 61 60
        E 0 99 62 60
        E 60 80 1f 00
        E 0 89 1c 00
        E 0 89 61 00
        E 0 89 62 00
        E 60 90 1f 60
        E 0 99 62 60
        E 60 80 1f 00
        E 0 89 62 00
        E 60 90 1f 60
        E 0 99 62 60
        E 60 80 1f 00
        E 0 89 62 00
        E 60 90 19 60
        E 0 90 1f 60
        E 0 99 18 60
        E 0 99 60 60
        E 0 99 63 60
        E 60 80 1f 00
        E 0 89 18 00
        E 0 89 60 00
        E 0 89 63 00
        E 60 80 19 00
        E 0 90 1f 60
        E 0 99 62 60
        E 60 80 1f 00
        E 0 89 62 00
        E 60 90 1f 60
        E 0 99 18 60
        E 0 99 60 60
        E 0 99 62 60
        E 60 80 1f 00
        E 0 89 18 00
        E 0 89 60 00
        E 0 89 62 00
        E 60 90 19 60
        E 0 90 1f 60
        E 0 99 63 60
        E 60 80 1f 00
        E 0 89 63 00
        E 60 80 19 00
        E 0 90 1f 60
        E 0 99 1c 60
        E 0 99 61 60
        E 0 99 62 60
        E 60 80 1f 00
        E 0 89 1c 00
        E 0 89 61 00
        E 0 89 62 00
        E 60 90 1f 60
        E 0 99 62 60
        E 60 80 1f 00
        E 0 89 62 00
        E 60 90 1f 60
        E 0 99 18 60
        E 0 99 60 60
        E 0 99 62 60
        E 60 80 1f 00
        E 0 89 18 00
        E 0 89 60 00
        E 0 89 62 00
        E 60 90 1f 60
        E 0 90 74 60
        E 0 99 62 60
        E 60 80 1f 00
        E 0 89 62 00
        E 60 90 1f 60
        E 0 99 62 60
        E 60 80 1f 00
        E 0 90 1e 60
        E 0 89 62 00
        E 0 99 62 60
        E 60 80 1e 00
        E 0 90 1f 60
        E 0 89 62 00
        E 0 99 18 60
        E 0 99 60 60
        E 0 99 62 60
        E 60 80 1f 00
        E 0 89 18 00
        E 0 89 60 00
        E 0 89 62 00
        E 60 90 1f 60
        E 0 99 62 60
        E 60 80 1f 00
        E 0 89 62 00
        E 60 90 1f 60
        E 0 99 1c 60
        E 0 99 61 60
        E 0 99 62 60
        E 60 80 1f 00
        E 0 89 1c 00
        E 0 89 61 00
        E 0 89 62 00
        E 60 90 1f 60
        E 0 99 62 60
        E 60 80 1f 00
        E 0 89 62 00
        E 60 90 1f 60
        E 0 99 62 60
        E 60 80 1f 00
        E 0 89 62 00
        E 60 90 19 60
        E 0 90 1f 60
        E 0 99 18 60
        E 0 99 60 60
        E 0 99 63 60
        E 60 80 1f 00
        E 0 89 18 00
        E 0 89 60 00
        E 0 89 63 00
        E 60 80 19 00
        E 0 90 1f 60
        E 0 99 62 60
        E 60 80 1f 00
        E 0 89 62 00
        E 60 90 1f 60
        E 0 99 18 60
        E 0 99 60 60
        E 0 99 62 60
        E 60 80 1f 00
        E 0 89 18 00
        E 0 89 60 00
        E 0 89 62 00
        E 60 90 19 60
        E 0 90 1f 60
        E 0 99 63 60
        E 60 80 1f 00
        E 0 89 63 00
        E 60 80 19 00
        E 0 90 1f 60
        E 0 99 1c 60
        E 0 99 61 60
        E 0 99 62 60
        E 60 80 1f 00
        E 0 89 1c 00
        E 0 89 61 00
        E 0 89 62 00
        E 60 90 1f 60
        E 0 99 62 60
        E 60 80 1f 00
        E 0 89 62 00
        E 60 90 1f 60
        E 0 99 18 60
        E 0 99 60 60
        E 0 99 62 60
        E 60 80 1f 00
        E 0 89 18 00
        E 0 89 60 00
        E 0 89 62 00
        <X 60 0
          /wFbcGxheV0=
        >
        E 0 80 74 00
        E 0 90 1f 60
        E 0 99 18 60
        E 0 99 33 60
        E 0 99 60 60
        E 0 99 64 60
        E 0 99 70 60
        E 60 80 1f 00
        E 0 89 18 00
        E 0 89 33 00
        E 0 89 60 00
        E 0 89 64 00
        E 0 89 70 00
        E 180 99 31 60
        E 0 99 63 60
        E 0 99 6f 60
        E 60 89 31 00
        E 0 89 63 00
        E 0 89 6f 00
        E 60 90 19 60
        E 120 80 19 00
        E 0 99 1c 60
        E 0 99 61 60
        E 60 89 1c 00
        E 0 89 61 00
        E 60 99 18 60
        E 0 99 60 60
        E 60 89 18 00
        E 0 89 60 00
        E 60 99 1b 60
        E 0 99 61 60
        E 60 89 1b 00
        E 0 89 61 00
        E 0 99 1a 60
        E 0 99 61 60
        E 60 89 1a 00
        E 0 89 61 00
        E 0 99 1b 60
        E 0 99 61 60
        E 60 89 1b 00
        E 0 89 61 00
        E 180 99 2f 60
        E 0 99 62 60
        E 0 99 6e 60
        E 60 89 2f 00
        E 0 89 62 00
        E 0 89 6e 00
        E 0 99 2e 60
        E 0 99 62 60
        E 0 99 6e 60
        E 60 89 2e 00
        E 0 89 62 00
        E 0 89 6e 00
        E 0 99 2f 60
        E 0 99 62 60
        E 0 99 6e 60
        E 60 89 2f 00
        E 0 89 62 00
        E 0 89 6e 00
        E 60 99 2e 60
        E 0 99 62 60
        E 0 99 6e 60
        E 60 89 2e 00
        E 0 89 62 00
        E 0 89 6e 00
        E 60 99 31 60
        E 0 99 63 60
        E 0 99 6f 60
        E 60 89 31 00
        E 0 89 63 00
        E 0 89 6f 00
        E 60 99 30 60
        E 0 99 63 60
        E 0 99 6f 60
        E 60 89 30 00
        E 0 89 63 00
        E 0 89 6f 00
        E 60 99 18 60
        E 0 99 31 60
        E 0 99 60 60
        E 0 99 63 60
        E 0 99 6f 60
        E 60 89 18 00
        E 0 89 31 00
        E 0 89 60 00
        E 0 89 63 00
        E 0 89 6f 00
        E 300 99 18 60
        E 0 99 33 60
        E 0 99 60 60
        E 0 99 64 60
        E 0 99 70 60
        E 60 89 18 00
        E 0 89 33 00
        E 0 89 60 00
        E 0 89 64 00
        E 0 89 70 00
        E 300 99 18 60
        E 0 99 26 60
        E 0 99 60 60
        E 0 99 64 60
        E 60 89 18 00
        E 0 89 26 00
        E 0 89 60 00
        E 0 89 64 00
        E 540 90 19 60
        E 0 99 1f 60
        E 0 99 62 60
        E 60 89 1f 00
        E 0 89 62 00
        E 300 90 78 60
        E 0 90 79 60
        E 0 90 7a 60
        E 0 90 7b 60
        E 0 90 7c 60
        E 0 99 2a 60
        E 0 99 63 60
        E 60 89 2a 00
        E 0 89 63 00
        E 180 99 2a 60
        E 0 99 63 60
        E 60 89 2a 00
        E 0 89 63 00
        <X 420 0
          /wFbaW50ZW5zZV0=
        >
        E 0 80 19 00
        E 480 90 1a 60
        E 0 90 1b 60
        E 0 90 61 60
        E 0 90 62 60
        E 0 90 6e 60
        E 60 80 1a 00
        E 0 80 1b 00
        E 0 80 61 00
        E 0 80 62 00
        E 0 80 6e 00
        E 420 80 78 00
        E 0 80 79 00
        E 0 80 7a 00
        E 0 80 7b 00
        E 0 80 7c 00
        E 0 99 18 60
        E 0 99 24 60
        E 0 99 60 60
        E 0 99 64 60
        E 60 89 18 00
        E 0 89 24 00
        E 0 89 60 00
        E 0 89 64 00
        E 60 90 1f 60
        E 0 99 62 60
        E 60 80 1f 00
        E 0 90 1e 60
        E 0 89 62 00
        E 0 99 62 60
        E 60 80 1e 00
        E 0 90 1f 60
        E 0 89 62 00
        E 0 99 62 60
        E 60 80 1f 00
        E 0 89 62 00
        E 60 90 1f 60
        E 0 99 18 60
        E 0 99 60 60
        E 0 99 62 60
        E 60 80 1f 00
        E 0 89 18 00
        E 0 89 60 00
        E 0 89 62 00
        E 60 90 1f 60
        E 0 99 1c 60
        E 0 99 61 60
        E 0 99 62 60
        E 60 80 1f 00
        E 0 89 1c 00
        E 0 89 61 00
        E 0 89 62 00
        E 60 90 1f 60
        E 0 99 62 60
        E 60 80 1f 00
        E 0 89 62 00
        E 60 90 1f 60
        E 0 99 62 60
        E 60 80 1f 00
        E 0 89 62 00
        E 60 90 19 60
        E 0 90 1f 60
        E 0 99 18 60
        E 0 99 60 60
        E 0 99 63 60
        E 60 80 1f 00
        E 0 89 18 00
        E 0 89 60 00
        E 0 89 63 00
        E 60 80 19 00
        E 0 90 1f 60
        E 0 99 62 60
        E 60 80 1f 00
        E 0 89 62 00
        E 60 90 1f 60
        E 0 99 18 60
        E 0 99 60 60
        E 0 99 62 60
        E 60 80 1f 00
        E 0 89 18 00
        E 0 89 60 00
        E 0 89 62 00
        E 60 90 19 60
        E 0 90 1f 60
        E 0 99 63 60
        E 60 80 1f 00
        E 0 89 63 00
        E 60 80 19 00
        E 0 90 1f 60
        E 0 99 1c 60
        E 0 99 61 60
        E 0 99 62 60
        E 60 80 1f 00
        E 0 89 1c 00
        E 0 89 61 00
        E 0 89 62 00
        E 60 90 1f 60
        E 0 99 62 60
        E 60 80 1f 00
        E 0 89 62 00
        E 60 90 1f 60
        E 0 99 18 60
        E 0 99 60 60
        E 0 99 62 60
        E 60 80 1f 00
        E 0 89 18 00
        E 0 89 60 00
        E 0 89 62 00
        E 60 90 1f 60
        E 0 99 62 60
        E 60 80 1f 00
        E 0 89 62 00
        E 60 90 1f 60
        E 0 99 62 60
        E 60 80 1f 00
        E 0 90 1e 60
        E 0 89 62 00
        E 0 99 62 60
        E 60 80 1e 00
        E 0 90 1f 60
        E 0 89 62 00
        E 0 99 18 60
        E 0 99 60 60
        E 0 99 62 60
        E 60 80 1f 00
        E 0 89 18 00
        E 0 89 60 00
        E 0 89 62 00
        E 60 90 1f 60
        E 0 99 62 60
        E 60 80 1f 00
        E 0 89 62 00
        E 60 90 1f 60
        E 0 99 1c 60
        E 0 99 61 60
        E 0 99 62 60
        E 60 80 1f 00
        E 0 89 1c 00
        E 0 89 61 00
        E 0 89 62 00
        E 60 90 1f 60
        E 0 99 62 60
        E 60 80 1f 00
        E 0 89 62 00
        E 60 90 1f 60
        E 0 99 62 60
        E 60 80 1f 00
        E 0 89 62 00
        E 60 90 19 60
        E 0 90 1f 60
        E 0 99 18 60
        E 0 99 60 60
        E 0 99 63 60
        E 60 80 1f 00
        E 0 89 18 00
        E 0 89 60 00
        E 0 89 63 00
        E 60 80 19 00
        E 0 90 1f 60
        E 0 99 62 60
        E 60 80 1f 00
        E 0 89 62 00
        E 60 90 1f 60
        E 0 99 18 60
        E 0 99 60 60
        E 0 99 62 60
        E 60 80 1f 00
        E 0 89 18 00
        E 0 89 60 00
        E 0 89 62 00
        E 60 90 19 60
        E 0 90 1f 60
        E 0 99 63 60
        E 60 80 1f 00
        E 0 89 63 00
        E 60 80 19 00
        E 0 90 1f 60
        E 0 99 1c 60
        E 0 99 61 60
        E 0 99 62 60
        E 60 80 1f 00
        E 0 89 1c 00
        E 0 89 61 00
        E 0 89 62 00
        E 60 90 1f 60
        E 0 99 62 60
        E 60 80 1f 00
        E 0 89 62 00
        E 60 90 1f 60
        E 0 99 18 60
        E 0 99 60 60
        E 0 99 62 60
        E 60 80 1f 00
        E 0 89 18 00
        E 0 89 60 00
        E 0 89 62 00
        E 60 90 1f 60
        E 0 99 18 60
        E 0 99 60 60
        E 0 99 62 60
        E 60 80 1f 00
        E 0 89 18 00
        E 0 89 60 00
        E 0 89 62 00
        E 60 90 1f 60
        E 0 99 62 60
        E 60 80 1f 00
        E 0 90 1e 60
        E 0 89 62 00
        E 0 99 62 60
        E 60 80 1e 00
        E 0 90 1f 60
        E 0 89 62 00
        E 0 99 62 60
        E 60 80 1f 00
        E 0 89 62 00
        E 60 90 1f 60
        E 0 99 18 60
        E 0 99 60 60
        E 0 99 62 60
        E 60 80 1f 00
        E 0 89 18 00
        E 0 89 60 00
        E 0 89 62 00
        E 60 90 1f 60
        E 0 99 1c 60
        E 0 99 61 60
        E 0 99 62 60
        E 60 80 1f 00
        E 0 89 1c 00
        E 0 89 61 00
        E 0 89 62 00
        E 60 90 1f 60
        E 0 99 62 60
        E 60 80 1f 00
        E 0 89 62 00
        E 60 90 1f 60
        E 0 99 62 60
        E 60 80 1f 00
        E 0 89 62 00
        E 60 90 19 60
        E 0 90 1f 60
        E 0 99 18 60
        E 0 99 60 60
        E 0 99 63 60
        E 60 80 1f 00
        E 0 89 18 00
        E 0 89 60 00
        E 0 89 63 00
        E 60 80 19 00
        E 0 90 1f 60
        E 0 99 62 60
        E 60 80 1f 00
        E 0 89 62 00
        E 60 90 1f 60
        E 0 99 18 60
        E 0 99 60 60
        E 0 99 62 60
        E 60 80 1f 00
        E 0 89 18 00
        E 0 89 60 00
        E 0 89 62 00
        E 60 90 19 60
        E 0 90 1f 60
        E 0 99 63 60
        E 60 80 1f 00
        E 0 89 63 00
        E 60 80 19 00
        E 0 90 1f 60
        E 0 99 1c 60
        E 0 99 61 60
        E 0 99 62 60
        E 60 80 1f 00
        E 0 89 1c 00
        E 0 89 61 00
        E 0 89 62 00
        E 60 90 1f 60
        E 0 99 62 60
        E 60 80 1f 00
        E 0 89 62 00
        E 60 90 1f 60
        E 0 99 18 60
        E 0 99 60 60
        E 0 99 62 60
        E 60 80 1f 00
        E 0 89 18 00
        E 0 89 60 00
        E 0 89 62 00
        E 60 90 74 60
        E 0 99 18 60
        E 0 99 2a 60
        E 0 99 60 60
        E 0 99 64 60
        E 60 89 18 00
        E 0 89 2a 00
        E 0 89 60 00
        E 0 89 64 00
        E 180 99 18 60
        E 0 99 2f 60
        E 0 99 60 60
        E 0 99 63 60
        E 0 99 6f 60
        E 60 89 18 00
        E 0 89 2f 00
        E 0 89 60 00
        E 0 89 63 00
        E 0 89 6f 00
        E 60 90 19 60
        E 0 99 1e 60
        E 0 99 62 60
        E 60 89 1e 00
        E 0 89 62 00
        E 60 80 19 00
        E 120 99 18 60
        E 0 99 30 60
        E 0 99 60 60
        E 0 99 63 60
        E 0 99 6f 60
        E 60 89 18 00
        E 0 89 30 00
        E 0 89 60 00
        E 0 89 63 00
        E 0 89 6f 00
        E 60 99 33 60
        E 0 99 64 60
        E 0 99 70 60
        E 60 89 33 00
        E 0 89 64 00
        E 0 89 70 00
        E 60 99 1a 60
        E 0 99 61 60
        E 60 89 1a 00
        E 0 89 61 00
        E 180 99 2f 60
        E 0 99 62 60
        E 0 99 6e 60
        E 60 89 2f 00
        E 0 89 62 00
        E 0 89 6e 00
        E 60 99 18 60
        E 0 99 2e 60
        E 0 99 60 60
        E 0 99 62 60
        E 0 99 6e 60
        E 60 89 18 00
        E 0 89 2e 00
        E 0 89 60 00
        E 0 89 62 00
        E 0 89 6e 00
        E 180 99 31 60
        E 0 99 63 60
        E 0 99 6f 60
        E 40 89 31 00
        E 0 89 63 00
        E 0 89 6f 00
        E 40 99 30 60
        E 0 99 63 60
        E 0 99 6f 60
        E 40 89 30 00
        E 0 89 63 00
        E 0 89 6f 00
        E 0 99 18 60
        E 0 99 60 60
        E 40 89 18 00
        E 0 89 60 00
        E 0 99 30 60
        E 0 99 63 60
        E 0 99 6f 60
        E 40 89 30 00
        E 0 89 63 00
        E 0 89 6f 00
        E 40 80 74 00
        E 0 99 18 60
        E 0 99 26 60
        E 0 99 60 60
        E 0 99 64 60
        E 40 89 18 00
        E 0 89 26 00
        E 0 89 60 00
        E 0 89 64 00
        E 440 99 2f 60
        E 0 99 62 60
        E 0 99 6e 60
        E 40 89 2f 00
        E 0 89 62 00
        E 0 89 6e 00
        E 200 99 18 60
        E 0 99 60 60
        E 40 89 18 00
        E 0 89 60 00
        E 80 99 18 60
        E 0 99 24 60
        E 0 99 60 60
        E 0 99 64 60
        E 40 89 18 00
        E 0 89 24 00
        E 0 89 60 00
        E 0 89 64 00
        E 440 99 31 60
        E 0 99 62 60
        E 0 99 6e 60
        E 40 89 31 00
        E 0 89 62 00
        E 0 89 6e 00
        E 80 99 31 60
        E 0 99 63 60
        E 0 99 6f 60
        E 40 89 31 00
        E 0 89 63 00
        E 0 89 6f 00
        E 40 99 30 60
        E 0 99 63 60
        E 0 99 6f 60
        E 40 89 30 00
        E 0 89 63 00
        E 0 89 6f 00
        E 0 99 18 60
        E 0 99 60 60
        E 40 89 18 00
        E 0 89 60 00
        E 0 99 30 60
        E 0 99 63 60
        E 0 99 6f 60
        E 40 89 30 00
        E 0 89 63 00
        E 0 89 6f 00
        E 40 99 18 60
        E 0 99 31 60
        E 0 99 60 60
        E 0 99 63 60
        E 0 99 6f 60
        E 40 89 18 00
        E 0 89 31 00
        E 0 89 60 00
        E 0 89 63 00
        E 0 89 6f 00
        E 320 99 18 60
        E 0 99 33 60
        E 0 99 60 60
        E 0 99 64 60
        E 0 99 70 60
        E 60 89 18 00
        E 0 89 33 00
        E 0 89 60 00
        E 0 89 64 00
        E 0 89 70 00
        <X 300 0
          /wFbcGxheV0=
        >
        E 0 99 18 60
        E 0 99 26 60
        E 0 99 60 60
        E 0 99 64 60
        E 60 89 18 00
        E 0 89 26 00
        E 0 89 60 00
        E 0 89 64 00
        E 660 90 19 60
        E 0 99 1f 60
        E 0 99 62 60
        E 60 89 1f 00
        E 0 89 62 00
        E 420 99 2a 60
        E 0 99 63 60
        E 60 89 2a 00
        E 0 89 63 00
        E 1380 80 19 00
        E 0 90 78 60
        E 0 90 79 60
        E 0 90 7a 60
        E 0 90 7b 60
        E 0 90 7c 60
        E 0 99 25 60
        E 0 99 64 60
        E 60 89 25 00
        E 0 89 64 00
        E 780 90 7e 60
        E 0 99 2a 60
        E 0 99 63 60
        E 60 89 2a 00
        E 0 89 63 00
        E 0 99 2b 60
        E 0 99 63 60
        E 60 89 2b 00
        E 0 89 63 00
        E 0 99 2a 60
        E 0 99 63 60
        E 60 89 2a 00
        E 0 89 63 00
        E 0 99 2b 60
        E 0 99 63 60
        E 60 89 2b 00
        E 0 89 63 00
        E 0 99 2a 60
        E 0 99 63 60
        E 60 89 2a 00
        E 0 89 63 00
        E 0 99 2b 60
        E 0 99 63 60
        E 60 89 2b 00
        E 0 89 63 00
        E 0 99 2a 60
        E 0 99 63 60
        E 60 89 2a 00
        E 0 89 63 00
        E 0 99 2b 60
        E 0 99 63 60
        E 60 89 2b 00
        E 0 89 63 00
        E 0 99 2a 60
        E 0 99 63 60
        E 60 89 2a 00
        E 0 89 63 00
        E 0 99 2b 60
        E 0 99 63 60
        E 60 89 2b 00
        E 0 89 63 00
        E 0 99 2a 60
        E 0 99 63 60
        E 60 89 2a 00
        E 0 89 63 00
        E 0 99 2b 60
        E 0 99 63 60
        E 60 89 2b 00
        E 0 89 63 00
        E 0 99 2a 60
        E 0 99 63 60
        E 60 89 2a 00
        E 0 89 63 00
        E 0 99 2b 60
        E 0 99 63 60
        E 12 80 7e 00
        E 48 80 78 00
        E 0 80 79 00
        E 0 80 7a 00
        E 0 80 7b 00
        E 0 80 7c 00
        E 0 89 2b 00
        E 0 89 63 00
        E 0 99 18 60
        E 0 99 26 60
        E 0 99 60 60
        E 0 99 64 60
        E 60 89 18 00
        E 0 89 26 00
        E 0 89 60 00
        E 0 89 64 00
        E 180 90 1f 60
        E 0 99 62 60
        E 60 80 1f 00
        E 0 89 62 00
        E 60 90 1f 60
        E 0 99 62 60
        E 60 80 1f 00
        E 0 89 62 00
        E 60 90 2a 60
        E 0 99 1c 60
        E 0 99 61 60
        E 0 99 64 60
        E 60 80 2a 00
        E 0 89 1c 00
        E 0 89 61 00
        E 0 89 64 00
        E 180 90 1f 60
        E 0 99 62 60
        E 60 80 1f 00
        E 0 89 62 00
        E 60 90 1f 60
        E 0 99 18 60
        E 0 99 60 60
        E 0 99 62 60
        E 60 80 1f 00
        E 0 89 18 00
        E 0 89 60 00
        E 0 89 62 00
        E 60 90 2a 60
        E 0 99 64 60
        E 60 80 2a 00
        E 0 89 64 00
        E 60 99 18 60
        E 0 99 60 60
        E 60 89 18 00
        E 0 89 60 00
        E 60 90 1f 60
        E 0 99 62 60
        E 60 80 1f 00
        E 0 89 62 00
        E 60 90 1f 60
        E 0 99 1c 60
        E 0 99 61 60
        E 0 99 62 60
        E 60 80 1f 00
        E 0 89 1c 00
        E 0 89 61 00
        E 0 89 62 00
        E 60 90 2a 60
        E 0 99 64 60
        E 60 80 2a 00
        E 0 89 64 00
        E 60 90 2a 60
        E 0 99 18 60
        E 0 99 60 60
        E 0 99 64 60
        E 60 80 2a 00
        E 0 89 18 00
        E 0 89 60 00
        E 0 89 64 00
        E 60 90 2a 60
        E 0 99 64 60
        E 60 80 2a 00
        E 0 89 64 00
        E 60 99 18 60
        E 0 99 60 60
        E 60 89 18 00
        E 0 89 60 00
        E 180 90 2a 60
        E 0 99 18 60
        E 0 99 60 60
        E 0 99 64 60
        E 60 80 2a 00
        E 0 89 18 00
        E 0 89 60 00
        E 0 89 64 00
        E 60 90 1f 60
        E 0 99 1c 60
        E 0 99 61 60
        E 0 99 62 60
        E 60 80 1f 00
        E 0 89 1c 00
        E 0 89 61 00
        E 0 89 62 00
        E 60 90 1f 60
        E 0 99 62 60
        E 60 80 1f 00
        E 0 89 62 00
        E 60 90 2a 60
        E 0 99 64 60
        E 60 80 2a 00
        E 0 89 64 00
        E 60 99 18 60
        E 0 99 60 60
        E 60 89 18 00
        E 0 89 60 00
        E 60 90 1f 60
        E 0 99 62 60
        E 60 80 1f 00
        E 0 89 62 00
        E 60 90 1f 60
        E 0 99 18 60
        E 0 99 60 60
        E 0 99 62 60
        E 60 80 1f 00
        E 0 89 18 00
        E 0 89 60 00
        E 0 89 62 00
        E 60 90 2a 60
        E 0 99 64 60
        E 60 80 2a 00
        E 0 89 64 00
        E 60 99 1c 60
        E 0 99 61 60
        E 60 89 1c 00
        E 0 89 61 00
        E 60 90 1f 60
        E 0 99 62 60
        E 60 80 1f 00
        E 0 89 62 00
        E 60 90 1f 60
        E 0 99 18 60
        E 0 99 60 60
        E 0 99 62 60
        E 60 80 1f 00
        E 0 89 18 00
        E 0 89 60 00
        E 0 89 62 00
        E 60 90 19 60
        E 0 90 1f 60
        E 0 99 63 60
        E 60 80 1f 00
        E 0 89 63 00
        E 180 80 19 00
        E 0 90 1f 60
        E 0 99 18 60
        E 0 99 60 60
        E 0 99 62 60
        E 60 80 1f 00
        E 0 89 18 00
        E 0 89 60 00
        E 0 89 62 00
        E 60 90 1f 60
        E 0 99 62 60
        E 60 80 1f 00
        E 0 89 62 00
        E 60 90 2a 60
        E 0 99 1c 60
        E 0 99 61 60
        E 0 99 64 60
        E 60 80 2a 00
        E 0 89 1c 00
        E 0 89 61 00
        E 0 89 64 00
        E 180 90 1f 60
        E 0 99 62 60
        E 60 80 1f 00
        E 0 89 62 00
        E 60 90 1f 60
        E 0 99 18 60
        E 0 99 60 60
        E 0 99 62 60
        E 60 80 1f 00
        E 0 89 18 00
        E 0 89 60 00
        E 0 89 62 00
        E 60 90 2a 60
        E 0 99 64 60
        E 60 80 2a 00
        E 0 89 64 00
        E 60 99 18 60
        E 0 99 60 60
        E 60 89 18 00
        E 0 89 60 00
        E 60 90 1f 60
        E 0 99 62 60
        E 60 80 1f 00
        E 0 89 62 00
        E 60 90 1f 60
        E 0 99 1c 60
        E 0 99 61 60
        E 0 99 62 60
        E 60 80 1f 00
        E 0 89 1c 00
        E 0 89 61 00
        E 0 89 62 00
        E 180 90 19 60
        E 0 90 1f 60
        E 0 99 18 60
        E 0 99 60 60
        E 0 99 63 60
        E 60 80 1f 00
        E 0 89 18 00
        E 0 89 60 00
        E 0 89 63 00
        E 60 80 19 00
        E 0 90 1f 60
        E 0 90 78 60
        E 0 90 79 60
        E 0 90 7a 60
        E 0 90 7b 60
        E 0 90 7c 60
        E 0 99 62 60
        E 60 80 1f 00
        E 0 89 62 00
        E 60 90 1f 60
        E 0 99 18 60
        E 0 99 60 60
        E 0 99 62 60
        E 60 80 1f 00
        E 0 89 18 00
        E 0 89 60 00
        E 0 89 62 00
        E 60 90 2a 60
        E 0 99 64 60
        E 60 80 2a 00
        E 0 89 64 00
        E 60 90 1f 60
        E 0 99 18 60
        E 0 99 60 60
        E 0 99 62 60
        E 60 80 1f 00
        E 0 89 18 00
        E 0 89 60 00
        E 0 89 62 00
        E 60 90 1f 60
        E 0 99 1c 60
        E 0 99 61 60
        E 0 99 62 60
        E 60 80 1f 00
        E 0 89 1c 00
        E 0 89 61 00
        E 0 89 62 00
        E 60 90 2a 60
        E 0 99 64 60
        E 60 80 2a 00
        E 0 89 64 00
        E 60 90 1f 60
        E 0 99 62 60
        E 60 80 1f 00
        E 0 89 62 00
        E 60 90 1f 60
        E 0 99 18 60
        E 0 99 60 60
        E 0 99 62 60
        E 60 80 1f 00
        E 0 89 18 00
        E 0 89 60 00
        E 0 89 62 00
        E 60 90 2a 60
        E 0 99 64 60
        E 60 80 2a 00
        E 0 89 64 00
        E 60 90 2f 60
        E 0 99 18 60
        E 0 99 60 60
        E 0 99 62 60
        E 0 99 6e 60
        E 60 80 2f 00
        E 0 89 18 00
        E 0 89 60 00
        E 0 89 62 00
        E 0 89 6e 00
        E 60 90 2e 60
        E 0 99 62 60
        E 0 99 6e 60
        E 60 80 2e 00
        E 0 89 62 00
        E 0 89 6e 00
        E 180 90 31 60
        E 0 99 63 60
        E 0 99 6f 60
        E 60 80 31 00
        E 0 89 63 00
        E 0 89 6f 00
        E 180 80 78 00
        E 0 80 79 00
        E 0 80 7a 00
        E 0 80 7b 00
        E 0 80 7c 00
        E 0 90 24 60
        E 0 99 18 60
        E 0 99 60 60
        E 0 99 64 60
        E 60 80 24 00
        E 0 89 18 00
        E 0 89 60 00
        E 0 89 64 00
        E 60 90 1f 60
        E 0 99 62 60
        E 60 80 1f 00
        E 0 89 62 00
        E 60 90 19 60
        E 0 90 1f 60
        E 0 99 63 60
        E 60 80 1f 00
        E 0 89 63 00
        E 60 99 18 60
        E 0 99 60 60
        E 60 89 18 00
        E 0 89 60 00
        E 60 80 19 00
        E 0 90 2a 60
        E 0 99 1c 60
        E 0 99 61 60
        E 0 99 64 60
        E 60 80 2a 00
        E 0 89 1c 00
        E 0 89 61 00
        E 0 89 64 00
        E 180 90 1f 60
        E 0 99 62 60
        E 60 80 1f 00
        E 0 89 62 00
        E 60 90 1f 60
        E 0 99 18 60
        E 0 99 60 60
        E 0 99 62 60
        E 60 80 1f 00
        E 0 89 18 00
        E 0 89 60 00
        E 0 89 62 00
        E 60 90 19 60
        E 0 90 1f 60
        E 0 99 63 60
        E 60 80 1f 00
        E 0 89 63 00
        E 60 99 18 60
        E 0 99 60 60
        E 60 89 18 00
        E 0 89 60 00
        E 60 80 19 00
        E 0 90 2a 60
        E 0 99 64 60
        E 60 80 2a 00
        E 0 89 64 00
        E 60 99 1c 60
        E 0 99 61 60
        E 60 89 1c 00
        E 0 89 61 00
        E 60 99 1f 60
        E 0 99 62 60
        E 40 89 1f 00
        E 0 89 62 00
        E 40 99 1e 60
        E 0 99 62 60
        E 40 89 1e 00
        E 0 89 62 00
        E 0 99 18 60
        E 0 99 60 60
        E 40 89 18 00
        E 0 89 60 00
        E 0 99 1e 60
        E 0 99 62 60
        E 40 89 1e 00
        E 0 89 62 00
        E 40 90 19 60
        E 0 90 1f 60
        E 0 90 74 60
        E 0 99 63 60
        E 60 80 1f 00
        E 0 89 63 00
        E 180 80 19 00
        E 0 90 2a 60
        E 0 99 18 60
        E 0 99 60 60
        E 0 99 64 60
        E 60 80 2a 00
        E 0 89 18 00
        E 0 89 60 00
        E 0 89 64 00
        E 180 90 1f 60
        E 0 99 1c 60
        E 0 99 61 60
        E 0 99 62 60
        E 60 80 1f 00
        E 0 89 1c 00
        E 0 89 61 00
        E 0 89 62 00
        E 60 90 1f 60
        E 0 99 62 60
        E 60 80 1f 00
        E 0 89 62 00
        E 60 90 19 60
        E 0 90 1f 60
        E 0 99 63 60
        E 60 80 1f 00
        E 0 89 63 00
        E 60 99 18 60
        E 0 99 60 60
        E 60 89 18 00
        E 0 89 60 00
        E 60 80 19 00
        E 0 90 2a 60
        E 0 99 64 60
        E 60 80 2a 00
        E 0 89 64 00
        E 60 99 18 60
        E 0 99 60 60
        E 60 89 18 00
        E 0 89 60 00
        E 60 90 1f 60
        E 0 99 62 60
        E 60 80 1f 00
        E 0 89 62 00
        E 60 90 1f 60
        E 0 99 1c 60
        E 0 99 61 60
        E 0 99 62 60
        E 60 80 1f 00
        E 0 89 1c 00
        E 0 89 61 00
        E 0 89 62 00
        E 60 90 19 60
        E 0 90 1f 60
        E 0 99 63 60
        E 60 80 1f 00
        E 0 89 63 00
        E 60 99 18 60
        E 0 99 60 60
        E 60 89 18 00
        E 0 89 60 00
        E 60 80 74 00
        E 0 80 19 00
        E 0 99 1f 60
        E 0 99 62 60
        E 40 89 1f 00
        E 0 89 62 00
        E 40 99 1e 60
        E 0 99 62 60
        E 40 89 1e 00
        E 0 89 62 00
        E 40 99 1e 60
        E 0 99 62 60
        E 40 89 1e 00
        E 0 89 62 00
        E 40 90 19 60
        E 0 90 1f 60
        E 0 99 18 60
        E 0 99 60 60
        E 0 99 63 60
        E 60 80 1f 00
        E 0 89 18 00
        E 0 89 60 00
        E 0 89 63 00
        E 180 80 19 00
        E 0 90 2a 60
        E 0 99 1c 60
        E 0 99 61 60
        E 0 99 64 60
        E 60 80 2a 00
        E 0 89 1c 00
        E 0 89 61 00
        E 0 89 64 00
        E 180 90 1f 60
        E 0 99 62 60
        E 60 80 1f 00
        E 0 89 62 00
        E 60 90 1f 60
        E 0 99 18 60
        E 0 99 60 60
        E 0 99 62 60
        E 60 80 1f 00
        E 0 89 18 00
        E 0 89 60 00
        E 0 89 62 00
        E 60 90 19 60
        E 0 90 1f 60
        E 0 99 63 60
        E 60 80 1f 00
        E 0 89 63 00
        E 60 99 18 60
        E 0 99 60 60
        E 60 89 18 00
        E 0 89 60 00
        E 60 80 19 00
        E 0 90 2a 60
        E 0 99 64 60
        E 60 80 2a 00
        E 0 89 64 00
        E 60 99 1c 60
        E 0 99 61 60
        E 60 89 1c 00
        E 0 89 61 00
        E 60 90 1f 60
        E 0 99 62 60
        E 60 80 1f 00
        E 0 89 62 00
        E 180 90 33 60
        E 0 90 78 60
        E 0 90 79 60
        E 0 90 7a 60
        E 0 90 7b 60
        E 0 90 7c 60
        E 0 99 64 60
        E 0 99 70 60
        E 60 80 33 00
        E 0 89 64 00
        E 0 89 70 00
        E 60 99 1a 60
        E 0 99 61 60
        E 60 89 1a 00
        E 0 89 61 00
        E 60 90 31 60
        E 0 99 63 60
        E 0 99 6f 60
        E 60 80 31 00
        E 0 89 63 00
        E 0 89 6f 00
        E 180 99 1c 60
        E 0 99 61 60
        E 60 89 1c 00
        E 0 89 61 00
        E 60 99 18 60
        E 0 99 60 60
        E 60 89 18 00
        E 0 89 60 00
        E 60 90 19 60
        E 0 90 1f 60
        E 0 99 62 60
        E 60 80 1f 00
        E 0 89 62 00
        E 60 99 1a 60
        E 0 99 61 60
        E 60 89 1a 00
        E 0 89 61 00
        E 60 80 19 00
        E 0 99 1a 60
        E 0 99 61 60
        E 60 89 1a 00
        E 0 89 61 00
        E 60 90 2f 60
        E 0 99 62 60
        E 0 99 6e 60
        E 60 80 2f 00
        E 0 89 62 00
        E 0 89 6e 00
        E 60 99 1a 60
        E 0 99 61 60
        E 60 89 1a 00
        E 0 89 61 00
        E 60 90 2f 60
        E 0 99 62 60
        E 0 99 6e 60
        E 60 80 2f 00
        E 0 89 62 00
        E 0 89 6e 00
        E 60 90 31 60
        E 0 99 63 60
        E 0 99 6f 60
        E 60 80 31 00
        E 0 89 63 00
        E 0 89 6f 00
        E 60 90 26 60
        E 0 99 1a 60
        E 0 99 61 60
        E 0 99 64 60
        E 60 80 26 00
        E 0 89 1a 00
        E 0 89 61 00
        E 0 89 64 00
        <X 60 0
          /wFbaW50ZW5zZV0=
        >
        E 0 80 78 00
        E 0 80 79 00
        E 0 80 7a 00
        E 0 80 7b 00
        E 0 80 7c 00
        E 0 90 22 60
        E 0 99 18 60
        E 0 99 60 60
        E 0 99 63 60
        E 60 80 22 00
        E 0 89 18 00
        E 0 89 60 00
        E 0 89 63 00
        E 60 99 1f 60
        E 0 99 62 60
        E 60 89 1f 00
        E 0 89 62 00
        E 60 99 1f 60
        E 0 99 62 60
        E 60 89 1f 00
        E 0 89 62 00
        E 60 99 1f 60
        E 0 99 62 60
        E 60 89 1f 00
        E 0 89 62 00
        E 60 99 1c 60
        E 0 99 1f 60
        E 0 99 61 60
        E 0 99 62 60
        E 60 89 1c 00
        E 0 89 1f 00
        E 0 89 61 00
        E 0 89 62 00
        E 60 99 1f 60
        E 0 99 62 60
        E 60 89 1f 00
        E 0 89 62 00
        E 60 99 1f 60
        E 0 99 62 60
        E 60 89 1f 00
        E 0 89 62 00
        E 60 99 18 60
        E 0 99 1f 60
        E 0 99 60 60
        E 0 99 62 60
        E 60 89 18 00
        E 0 89 1f 00
        E 0 89 60 00
        E 0 89 62 00
        E 60 99 1f 60
        E 0 99 62 60
        E 60 89 1f 00
        E 0 89 62 00
        E 60 99 18 60
        E 0 99 1f 60
        E 0 99 60 60
        E 0 99 62 60
        E 60 89 18 00
        E 0 89 1f 00
        E 0 89 60 00
        E 0 89 62 00
        E 60 99 1f 60
        E 0 99 62 60
        E 60 89 1f 00
        E 0 89 62 00
        E 60 99 1c 60
        E 0 99 1f 60
        E 0 99 61 60
        E 0 99 62 60
        E 60 89 1c 00
        E 0 89 1f 00
        E 0 89 61 00
        E 0 89 62 00
        E 60 99 1f 60
        E 0 99 62 60
        E 60 89 1f 00
        E 0 89 62 00
        E 60 99 18 60
        E 0 99 1f 60
        E 0 99 60 60
        E 0 99 62 60
        E 60 89 18 00
        E 0 89 1f 00
        E 0 89 60 00
        E 0 89 62 00
        E 60 99 1f 60
        E 0 99 62 60
        E 60 89 1f 00
        E 0 89 62 00
        E 60 99 18 60
        E 0 99 1f 60
        E 0 99 60 60
        E 0 99 62 60
        E 60 89 18 00
        E 0 89 1f 00
        E 0 89 60 00
        E 0 89 62 00
        E 60 99 1f 60
        E 0 99 62 60
        E 60 89 1f 00
        E 0 89 62 00
        E 60 99 18 60
        E 0 99 1f 60
        E 0 99 60 60
        E 0 99 62 60
        E 60 89 18 00
        E 0 89 1f 00
        E 0 89 60 00
        E 0 89 62 00
        E 60 99 1c 60
        E 0 99 1f 60
        E 0 99 61 60
        E 0 99 62 60
        E 60 89 1c 00
        E 0 89 1f 00
        E 0 89 61 00
        E 0 89 62 00
        E 60 99 1f 60
        E 0 99 62 60
        E 60 89 1f 00
        E 0 89 62 00
        E 60 99 1f 60
        E 0 99 62 60
        E 60 89 1f 00
        E 0 89 62 00
        E 60 99 18 60
        E 0 99 1f 60
        E 0 99 60 60
        E 0 99 62 60
        E 60 89 18 00
        E 0 89 1f 00
        E 0 89 60 00
        E 0 89 62 00
        E 60 90 19 60
        E 0 99 1f 60
        E 0 99 63 60
        E 60 89 1f 00
        E 0 89 63 00
        E 60 99 18 60
        E 0 99 60 60
        E 60 89 18 00
        E 0 89 60 00
        E 60 80 19 00
        E 0 99 1f 60
        E 0 99 62 60
        E 60 89 1f 00
        E 0 89 62 00
        E 60 99 1c 60
        E 0 99 1f 60
        E 0 99 61 60
        E 0 99 62 60
        E 60 89 1c 00
        E 0 89 1f 00
        E 0 89 61 00
        E 0 89 62 00
        E 60 90 19 60
        E 0 99 1f 60
        E 0 99 63 60
        E 60 89 1f 00
        E 0 89 63 00
        E 60 99 18 60
        E 0 99 60 60
        E 60 89 18 00
        E 0 89 60 00
        E 60 80 19 00
        E 0 99 1f 60
        E 0 99 62 60
        E 60 89 1f 00
        E 0 89 62 00
        E 60 99 1f 60
        E 0 99 62 60
        E 60 89 1f 00
        E 0 89 62 00
        E 60 99 18 60
        E 0 99 1f 60
        E 0 99 60 60
        E 0 99 62 60
        E 60 89 18 00
        E 0 89 1f 00
        E 0 89 60 00
        E 0 89 62 00
        E 60 99 1f 60
        E 0 99 62 60
        E 60 89 1f 00
        E 0 89 62 00
        E 60 99 1c 60
        E 0 99 1f 60
        E 0 99 61 60
        E 0 99 62 60
        E 60 89 1c 00
        E 0 89 1f 00
        E 0 89 61 00
        E 0 89 62 00
        E 60 99 1f 60
        E 0 99 62 60
        E 60 89 1f 00
        E 0 89 62 00
        E 60 99 1f 60
        E 0 99 62 60
        E 60 89 1f 00
        E 0 89 62 00
        E 60 99 18 60
        E 0 99 1f 60
        E 0 99 60 60
        E 0 99 62 60
        E 60 89 18 00
        E 0 89 1f 00
        E 0 89 60 00
        E 0 89 62 00
        E 60 99 1f 60
        E 0 99 62 60
        E 60 89 1f 00
        E 0 89 62 00
        E 60 99 18 60
        E 0 99 1f 60
        E 0 99 60 60
        E 0 99 62 60
        E 60 89 18 00
        E 0 89 1f 00
        E 0 89 60 00
        E 0 89 62 00
        E 60 99 1f 60
        E 0 99 62 60
        E 60 89 1f 00
        E 0 89 62 00
        E 60 99 1c 60
        E 0 99 1f 60
        E 0 99 61 60
        E 0 99 62 60
        E 60 89 1c 00
        E 0 89 1f 00
        E 0 89 61 00
        E 0 89 62 00
        E 60 90 19 60
        E 0 99 1f 60
        E 0 99 63 60
        E 60 89 1f 00
        E 0 89 63 00
        E 60 99 18 60
        E 0 99 60 60
        E 60 89 18 00
        E 0 89 60 00
        E 60 80 19 00
        E 0 90 74 60
        E 0 99 1f 60
        E 60 89 1f 00
        E 60 99 18 60
        E 0 99 60 60
        E 60 89 18 00
        E 0 89 60 00
        E 60 90 19 60
        E 0 99 33 60
        E 0 99 64 60
        E 0 99 70 60
        E 60 89 33 00
        E 0 89 64 00
        E 0 89 70 00
        E 60 99 18 60
        E 0 99 60 60
        E 60 89 18 00
        E 0 89 60 00
        E 60 80 19 00
        E 0 99 1c 60
        E 0 99 61 60
        E 60 89 1c 00
        E 0 89 61 00
        E 60 99 18 60
        E 0 99 30 60
        E 0 99 60 60
        E 0 99 63 60
        E 0 99 6f 60
        E 60 89 18 00
        E 0 89 30 00
        E 0 89 60 00
        E 0 89 63 00
        E 0 89 6f 00
        E 60 90 19 60
        E 0 99 33 60
        E 0 99 64 60
        E 0 99 70 60
        E 60 89 33 00
        E 0 89 64 00
        E 0 89 70 00
        E 60 99 18 60
        E 0 99 1a 60
        E 0 99 60 60
        E 0 99 61 60
        E 60 89 18 00
        E 0 89 1a 00
        E 0 89 60 00
        E 0 89 61 00
        E 60 80 19 00
        E 0 99 2f 60
        E 0 99 62 60
        E 0 99 6e 60
        E 60 89 2f 00
        E 0 89 62 00
        E 0 89 6e 00
        E 60 99 18 60
        E 0 99 60 60
        E 60 89 18 00
        E 0 89 60 00
        E 60 90 19 60
        E 0 99 2e 60
        E 0 99 62 60
        E 0 99 6e 60
        E 60 89 2e 00
        E 0 89 62 00
        E 0 89 6e 00
        E 60 99 31 60
        E 0 99 63 60
        E 0 99 6f 60
        E 60 89 31 00
        E 0 89 63 00
        E 0 89 6f 00
        E 60 80 19 00
        E 120 99 30 60
        E 0 99 63 60
        E 0 99 6f 60
        E 60 89 30 00
        E 0 89 63 00
        E 0 89 6f 00
        E 60 80 74 00
        E 0 99 18 60
        E 0 99 26 60
        E 0 99 60 60
        E 0 99 64 60
        E 60 89 18 00
        E 0 89 26 00
        E 0 89 60 00
        E 0 89 64 00
        E 180 99 1f 60
        E 0 99 62 60
        E 60 89 1f 00
        E 0 89 62 00
        E 60 99 18 60
        E 0 99 1f 60
        E 0 99 60 60
        E 0 99 62 60
        E 60 89 18 00
        E 0 89 1f 00
        E 0 89 60 00
        E 0 89 62 00
        E 60 99 19 60
        E 0 99 1c 60
        E 0 99 1f 60
        E 0 99 61 60
        E 0 99 63 60
        E 60 89 1c 00
        E 0 89 1f 00
        E 0 89 61 00
        E 0 89 63 00
        E 180 89 19 00
        E 0 99 1f 60
        E 0 99 62 60
        E 60 89 1f 00
        E 0 89 62 00
        E 60 99 18 60
        E 0 99 1f 60
        E 0 99 60 60
        E 0 99 62 60
        E 60 89 18 00
        E 0 89 1f 00
        E 0 89 60 00
        E 0 89 62 00
        E 60 99 19 60
        E 0 99 1f 60
        E 0 99 63 60
        E 60 89 1f 00
        E 0 89 63 00
        E 60 99 18 60
        E 0 99 60 60
        E 60 89 18 00
        E 0 89 60 00
        E 60 89 19 00
        E 0 99 1f 60
        E 0 99 62 60
        E 60 89 1f 00
        E 0 89 62 00
        E 60 99 1c 60
        E 0 99 1f 60
        E 0 99 61 60
        E 0 99 62 60
        E 60 89 1c 00
        E 0 89 1f 00
        E 0 89 61 00
        E 0 89 62 00
        E 60 99 19 60
        E 0 99 1f 60
        E 0 99 63 60
        E 60 89 1f 00
        E 0 89 63 00
        E 60 99 18 60
        E 0 99 60 60
        E 60 89 18 00
        E 0 89 60 00
        E 60 89 19 00
        E 0 99 1f 60
        E 0 99 62 60
        E 60 89 1f 00
        E 0 89 62 00
        E 60 99 1f 60
        E 0 99 62 60
        E 60 89 1f 00
        E 0 89 62 00
        E 60 99 18 60
        E 0 99 19 60
        E 0 99 1f 60
        E 0 99 60 60
        E 0 99 63 60
        E 60 89 18 00
        E 0 89 1f 00
        E 0 89 60 00
        E 0 89 63 00
        E 180 89 19 00
        E 0 99 1c 60
        E 0 99 1f 60
        E 0 99 61 60
        E 0 99 62 60
        E 60 89 1c 00
        E 0 89 1f 00
        E 0 89 61 00
        E 0 89 62 00
        E 60 99 1f 60
        E 0 99 62 60
        E 60 89 1f 00
        E 0 89 62 00
        E 60 99 19 60
        E 0 99 1f 60
        E 0 99 63 60
        E 60 89 1f 00
        E 0 89 63 00
        E 60 99 18 60
        E 0 99 60 60
        E 60 89 18 00
        E 0 89 60 00
        E 60 89 19 00
        E 0 99 1f 60
        E 0 99 62 60
        E 60 89 1f 00
        E 0 89 62 00
        E 60 99 18 60
        E 0 99 1f 60
        E 0 99 60 60
        E 0 99 62 60
        E 60 89 18 00
        E 0 89 1f 00
        E 0 89 60 00
        E 0 89 62 00
        E 60 99 19 60
        E 0 99 1f 60
        E 0 99 63 60
        E 60 89 1f 00
        E 0 89 63 00
        E 60 99 1c 60
        E 0 99 61 60
        E 60 89 1c 00
        E 0 89 61 00
        E 60 89 19 00
        E 0 99 1f 60
        E 0 99 62 60
        E 60 89 1f 00
        E 0 89 62 00
        E 60 99 18 60
        E 0 99 1f 60
        E 0 99 60 60
        E 0 99 62 60
        E 60 89 18 00
        E 0 89 1f 00
        E 0 89 60 00
        E 0 89 62 00
        E 60 99 19 60
        E 0 99 1f 60
        E 0 99 63 60
        E 60 89 1f 00
        E 0 89 63 00
        E 180 99 18 60
        E 0 99 1f 60
        E 0 99 60 60
        E 0 99 63 60
        E 60 89 18 00
        E 0 89 1f 00
        E 0 89 60 00
        E 0 89 63 00
        E 180 89 19 00
        E 0 99 1c 60
        E 0 99 1f 60
        E 0 99 61 60
        E 0 99 62 60
        E 60 89 1c 00
        E 0 89 1f 00
        E 0 89 61 00
        E 0 89 62 00
        E 60 99 1f 60
        E 0 99 62 60
        E 60 89 1f 00
        E 0 89 62 00
        E 60 99 19 60
        E 0 99 1f 60
        E 0 99 63 60
        E 60 89 1f 00
        E 0 89 63 00
        E 60 99 18 60
        E 0 99 60 60
        E 60 89 18 00
        E 0 89 60 00
        E 60 99 1f 60
        E 0 99 63 60
        E 60 89 1f 00
        E 0 89 63 00
        E 60 99 18 60
        E 0 99 60 60
        E 60 89 18 00
        E 0 89 60 00
        E 60 89 19 00
        E 0 99 1f 60
        E 0 99 62 60
        E 60 89 1f 00
        E 0 89 62 00
        E 60 99 1c 60
        E 0 99 1f 60
        E 0 99 61 60
        E 0 99 62 60
        E 60 89 1c 00
        E 0 89 1f 00
        E 0 89 61 00
        E 0 89 62 00
        E 60 99 19 60
        E 0 99 1f 60
        E 0 99 63 60
        E 60 89 1f 00
        E 0 89 63 00
        E 60 89 19 00
        E 0 99 18 60
        E 0 99 1f 60
        E 0 99 60 60
        E 0 99 62 60
        E 60 89 18 00
        E 0 89 1f 00
        E 0 89 60 00
        E 0 89 62 00
        E 60 90 74 60
        E 0 99 18 60
        E 0 99 24 60
        E 0 99 60 60
        E 0 99 64 60
        E 60 89 18 00
        E 0 89 24 00
        E 0 89 60 00
        E 0 89 64 00
        E 180 99 31 60
        E 0 99 63 60
        E 0 99 6f 60
        E 60 89 31 00
        E 0 89 63 00
        E 0 89 6f 00
        E 180 99 18 60
        E 0 99 1c 60
        E 0 99 60 60
        E 0 99 61 60
        E 40 89 18 00
        E 0 89 1c 00
        E 0 89 60 00
        E 0 89 61 00
        E 120 99 18 60
        E 0 99 60 60
        E 40 89 18 00
        E 0 89 60 00
        E 120 99 18 60
        E 0 99 60 60
        E 40 89 18 00
        E 0 89 60 00
        E 40 99 1a 60
        E 0 99 61 60
        E 40 89 1a 00
        E 0 89 61 00
        E 40 99 1b 60
        E 0 99 61 60
        E 40 89 1b 00
        E 0 89 61 00
        E 120 99 1a 60
        E 0 99 61 60
        E 40 89 1a 00
        E 0 89 61 00
        E 40 99 2f 60
        E 0 99 62 60
        E 0 99 6e 60
        E 40 89 2f 00
        E 0 89 62 00
        E 0 89 6e 00
        E 40 99 2e 60
        E 0 99 62 60
        E 0 99 6e 60
        E 40 89 2e 00
        E 0 89 62 00
        E 0 89 6e 00
        E 40 99 2f 60
        E 0 99 62 60
        E 0 99 6e 60
        E 40 89 2f 00
        E 0 89 62 00
        E 0 89 6e 00
        E 40 99 30 60
        E 0 99 63 60
        E 0 99 6f 60
        E 40 89 30 00
        E 0 89 63 00
        E 0 89 6f 00
        E 40 99 31 60
        E 0 99 63 60
        E 0 99 6f 60
        E 40 89 31 00
        E 0 89 63 00
        E 0 89 6f 00
        E 40 99 30 60
        E 0 99 63 60
        E 0 99 6f 60
        E 40 89 30 00
        E 0 89 63 00
        E 0 89 6f 00
        E 40 99 18 60
        E 0 99 26 60
        E 0 99 60 60
        E 0 99 64 60
        E 60 89 18 00
        E 0 89 26 00
        E 0 89 60 00
        E 0 89 64 00
        E 60 80 74 00
        E 480 99 2a 60
        E 0 99 63 60
        E 60 89 2a 00
        E 0 89 63 00
        E 60 99 2a 60
        E 0 99 63 60
        E 60 89 2a 00
        E 0 89 63 00
        E 60 90 19 60
        E 0 99 1e 60
        E 0 99 62 60
        E 60 89 1e 00
        E 0 89 62 00
        E 420 99 2f 60
        E 0 99 62 60
        E 0 99 6e 60
        E 60 89 2f 00
        E 0 89 62 00
        E 0 89 6e 00
        E 0 99 2e 60
        E 0 99 62 60
        E 0 99 6e 60
        E 60 89 2e 00
        E 0 89 62 00
        E 0 89 6e 00
        E 0 99 2f 60
        E 0 99 62 60
        E 0 99 6e 60
        E 60 89 2f 00
        E 0 89 62 00
        E 0 89 6e 00
        E 60 99 2e 60
        E 0 99 62 60
        E 0 99 6e 60
        E 60 89 2e 00
        E 0 89 62 00
        E 0 89 6e 00
        E 60 80 19 00
        E 0 90 78 60
        E 0 90 79 60
        E 0 90 7a 60
        E 0 90 7b 60
        E 0 90 7c 60
        E 0 99 18 60
        E 0 99 32 60
        E 0 99 60 60
        E 0 99 64 60
        E 0 99 70 60
        E 60 89 18 00
        E 0 89 32 00
        E 0 89 60 00
        E 0 89 64 00
        E 0 89 70 00
        E 180 90 19 60
        E 0 99 31 60
        E 0 99 63 60
        E 0 99 6f 60
        E 60 89 31 00
        E 0 89 63 00
        E 0 89 6f 00
        E 180 80 19 00
        E 0 99 1b 60
        E 0 99 61 60
        E 60 89 1b 00
        E 0 89 61 00
        E 60 99 18 60
        E 0 99 60 60
        E 60 89 18 00
        E 0 89 60 00
        E 60 99 1b 60
        E 0 99 61 60
        E 60 89 1b 00
        E 0 89 61 00
        E 0 99 1a 60
        E 0 99 61 60
        E 60 89 1a 00
        E 0 89 61 00
        E 0 99 1b 60
        E 0 99 61 60
        E 60 89 1b 00
        E 0 89 61 00
        E 180 99 2f 60
        E 0 99 62 60
        E 0 99 6e 60
        E 60 89 2f 00
        E 0 89 62 00
        E 0 89 6e 00
        E 0 99 2e 60
        E 0 99 62 60
        E 0 99 6e 60
        E 60 89 2e 00
        E 0 89 62 00
        E 0 89 6e 00
        E 0 99 2f 60
        E 0 99 62 60
        E 0 99 6e 60
        E 60 89 2f 00
        E 0 89 62 00
        E 0 89 6e 00
        E 60 99 2e 60
        E 0 99 62 60
        E 0 99 6e 60
        E 60 89 2e 00
        E 0 89 62 00
        E 0 89 6e 00
        E 60 99 31 60
        E 0 99 63 60
        E 0 99 6f 60
        E 60 89 31 00
        E 0 89 63 00
        E 0 89 6f 00
        E 60 99 30 60
        E 0 99 63 60
        E 0 99 6f 60
        E 60 89 30 00
        E 0 89 63 00
        E 0 89 6f 00
        E 60 80 78 00
        E 0 80 79 00
        E 0 80 7a 00
        E 0 80 7b 00
        E 0 80 7c 00
        E 0 99 24 60
        E 0 99 64 60
        E 60 89 24 00
        E 0 89 64 00
        E 60 90 1f 60
        E 0 99 62 60
        E 60 80 1f 00
        E 0 90 1e 60
        E 0 89 62 00
        E 0 99 62 60
        E 60 80 1e 00
        E 0 90 1f 60
        E 0 89 62 00
        E 0 99 62 60
        E 60 80 1f 00
        E 0 89 62 00
        E 60 90 1f 60
        E 0 99 62 60
        E 60 80 1f 00
        E 0 89 62 00
        E 60 90 1f 60
        E 0 99 1c 60
        E 0 99 61 60
        E 0 99 62 60
        E 60 80 1f 00
        E 0 89 1c 00
        E 0 89 61 00
        E 0 89 62 00
        E 60 90 1f 60
        E 0 99 62 60
        E 60 80 1f 00
        E 0 89 62 00
        E 60 90 1f 60
        E 0 99 62 60
        E 60 80 1f 00
        E 0 89 62 00
        E 60 90 19 60
        E 0 90 1f 60
        E 0 99 18 60
        E 0 99 60 60
        E 0 99 63 60
        E 60 80 1f 00
        E 0 89 18 00
        E 0 89 60 00
        E 0 89 63 00
        E 60 80 19 00
        E 0 90 1f 60
        E 0 99 62 60
        E 60 80 1f 00
        E 0 89 62 00
        E 60 90 1f 60
        E 0 99 18 60
        E 0 99 60 60
        E 0 99 62 60
        E 60 80 1f 00
        E 0 89 18 00
        E 0 89 60 00
        E 0 89 62 00
        E 60 90 19 60
        E 0 90 1f 60
        E 0 99 63 60
        E 60 80 1f 00
        E 0 89 63 00
        E 60 80 19 00
        E 0 90 1f 60
        E 0 99 1c 60
        E 0 99 61 60
        E 0 99 62 60
        E 60 80 1f 00
        E 0 89 1c 00
        E 0 89 61 00
        E 0 89 62 00
        E 60 90 1f 60
        E 0 99 62 60
        E 60 80 1f 00
        E 0 89 62 00
        E 60 90 1f 60
        E 0 99 18 60
        E 0 99 60 60
        E 0 99 62 60
        E 60 80 1f 00
        E 0 89 18 00
        E 0 89 60 00
        E 0 89 62 00
        E 60 90 1f 60
        E 0 99 62 60
        E 60 80 1f 00
        E 0 89 62 00
        E 60 90 1f 60
        E 0 99 18 60
        E 0 99 60 60
        E 0 99 62 60
        E 60 80 1f 00
        E 0 90 1e 60
        E 0 89 18 00
        E 0 89 60 00
        E 0 89 62 00
        E 0 99 62 60
        E 60 80 1e 00
        E 0 90 1f 60
        E 0 89 62 00
        E 0 99 62 60
        E 60 80 1f 00
        E 0 89 62 00
        E 60 90 1f 60
        E 0 99 18 60
        E 0 99 60 60
        E 0 99 62 60
        E 60 80 1f 00
        E 0 89 18 00
        E 0 89 60 00
        E 0 89 62 00
        E 60 90 1f 60
        E 0 99 1c 60
        E 0 99 61 60
        E 0 99 62 60
        E 60 80 1f 00
        E 0 89 1c 00
        E 0 89 61 00
        E 0 89 62 00
        E 60 90 1f 60
        E 0 99 62 60
        E 60 80 1f 00
        E 0 89 62 00
        E 60 90 1f 60
        E 0 99 62 60
        E 60 80 1f 00
        E 0 89 62 00
        E 60 90 19 60
        E 0 90 1f 60
        E 0 99 18 60
        E 0 99 60 60
        E 0 99 63 60
        E 60 80 1f 00
        E 0 89 18 00
        E 0 89 60 00
        E 0 89 63 00
        E 60 80 19 00
        E 0 90 1f 60
        E 0 99 62 60
        E 60 80 1f 00
        E 0 89 62 00
        E 60 90 1f 60
        E 0 99 18 60
        E 0 99 60 60
        E 0 99 62 60
        E 60 80 1f 00
        E 0 89 18 00
        E 0 89 60 00
        E 0 89 62 00
        E 60 90 19 60
        E 0 90 1f 60
        E 0 99 63 60
        E 60 80 1f 00
        E 0 89 63 00
        E 60 80 19 00
        E 0 90 1f 60
        E 0 99 1c 60
        E 0 99 61 60
        E 0 99 62 60
        E 60 80 1f 00
        E 0 89 1c 00
        E 0 89 61 00
        E 0 89 62 00
        E 60 90 1f 60
        E 0 99 62 60
        E 60 80 1f 00
        E 0 89 62 00
        E 60 90 1f 60
        E 0 99 18 60
        E 0 99 60 60
        E 0 99 62 60
        E 60 80 1f 00
        E 0 89 18 00
        E 0 89 60 00
        E 0 89 62 00
        E 60 90 1f 60
        E 0 99 62 60
        E 60 80 1f 00
        E 0 89 62 00
        E 60 90 1f 60
        E 0 99 62 60
        E 60 80 1f 00
        E 0 90 1e 60
        E 0 89 62 00
        E 0 99 62 60
        E 60 80 1e 00
        E 0 90 1f 60
        E 0 89 62 00
        E 0 99 18 60
        E 0 99 60 60
        E 0 99 62 60
        E 60 80 1f 00
        E 0 89 18 00
        E 0 89 60 00
        E 0 89 62 00
        E 60 90 1f 60
        E 0 99 62 60
        E 60 80 1f 00
        E 0 89 62 00
        E 60 90 1f 60
        E 0 99 1c 60
        E 0 99 61 60
        E 0 99 62 60
        E 60 80 1f 00
        E 0 89 1c 00
        E 0 89 61 00
        E 0 89 62 00
        E 60 90 1f 60
        E 0 99 62 60
        E 60 80 1f 00
        E 0 89 62 00
        E 60 90 1f 60
        E 0 99 62 60
        E 60 80 1f 00
        E 0 89 62 00
        E 60 90 19 60
        E 0 90 1f 60
        E 0 99 18 60
        E 0 99 60 60
        E 0 99 63 60
        E 60 80 1f 00
        E 0 89 18 00
        E 0 89 60 00
        E 0 89 63 00
        E 60 80 19 00
        E 0 90 1f 60
        E 0 99 62 60
        E 60 80 1f 00
        E 0 89 62 00
        E 60 90 1f 60
        E 0 99 18 60
        E 0 99 60 60
        E 0 99 62 60
        E 60 80 1f 00
        E 0 89 18 00
        E 0 89 60 00
        E 0 89 62 00
        E 60 90 19 60
        E 0 90 1f 60
        E 0 99 63 60
        E 60 80 1f 00
        E 0 89 63 00
        E 60 80 19 00
        E 0 90 1f 60
        E 0 99 1c 60
        E 0 99 61 60
        E 0 99 62 60
        E 60 80 1f 00
        E 0 89 1c 00
        E 0 89 61 00
        E 0 89 62 00
        E 60 90 1f 60
        E 0 99 62 60
        E 60 80 1f 00
        E 0 89 62 00
        E 60 90 1f 60
        E 0 99 18 60
        E 0 99 60 60
        E 0 99 62 60
        E 60 80 1f 00
        E 0 89 18 00
        E 0 89 60 00
        E 0 89 62 00
        E 60 90 1f 60
        E 0 90 78 60
        E 0 90 79 60
        E 0 90 7a 60
        E 0 90 7b 60
        E 0 90 7c 60
        E 0 99 18 60
        E 0 99 60 60
        E 0 99 62 60
        E 60 80 1f 00
        E 0 89 18 00
        E 0 89 60 00
        E 0 89 62 00
        E 60 99 18 60
        E 0 99 60 60
        E 60 89 18 00
        E 0 89 60 00
        E 60 99 33 60
        E 0 99 64 60
        E 0 99 70 60
        E 60 89 33 00
        E 0 89 64 00
        E 0 89 70 00
        E 60 90 19 60
        E 0 99 18 60
        E 0 99 1e 60
        E 0 99 60 60
        E 0 99 62 60
        E 60 89 18 00
        E 0 89 1e 00
        E 0 89 60 00
        E 0 89 62 00
        E 60 80 19 00
        E 0 99 1c 60
        E 0 99 61 60
        E 60 89 1c 00
        E 0 89 61 00
        E 60 99 18 60
        E 0 99 2e 60
        E 0 99 60 60
        E 0 99 63 60
        E 0 99 6f 60
        E 60 89 18 00
        E 0 89 2e 00
        E 0 89 60 00
        E 0 89 63 00
        E 0 89 6f 00
        E 60 99 31 60
        E 0 99 64 60
        E 0 99 70 60
        E 60 89 31 00
        E 0 89 64 00
        E 0 89 70 00
        E 60 99 18 60
        E 0 99 1a 60
        E 0 99 60 60
        E 0 99 61 60
        E 60 89 18 00
        E 0 89 1a 00
        E 0 89 60 00
        E 0 89 61 00
        E 180 99 18 60
        E 0 99 2f 60
        E 0 99 60 60
        E 0 99 62 60
        E 0 99 6e 60
        E 60 89 18 00
        E 0 89 2f 00
        E 0 89 60 00
        E 0 89 62 00
        E 0 89 6e 00
        E 60 90 2e 60
        E 0 99 61 60
        E 0 99 62 60
        E 0 99 6e 60
        E 60 80 2e 00
        E 0 89 61 00
        E 0 89 62 00
        E 0 89 6e 00
        E 180 99 30 60
        E 0 99 63 60
        E 0 99 6f 60
        E 40 89 30 00
        E 0 89 63 00
        E 0 89 6f 00
        E 40 99 31 60
        E 0 99 63 60
        E 0 99 6f 60
        E 40 89 31 00
        E 0 89 63 00
        E 0 89 6f 00
        E 40 99 30 60
        E 0 99 63 60
        E 0 99 6f 60
        E 40 89 30 00
        E 0 89 63 00
        E 0 89 6f 00
        E 40 80 78 00
        E 0 80 79 00
        E 0 80 7a 00
        E 0 80 7b 00
        E 0 80 7c 00
        E 0 90 26 60
        E 0 99 18 60
        E 0 99 60 60
        E 0 99 64 60
        E 60 80 26 00
        E 0 89 18 00
        E 0 89 60 00
        E 0 89 64 00
        E 60 90 1f 60
        E 0 99 62 60
        E 60 80 1f 00
        E 0 90 1e 60
        E 0 89 62 00
        E 0 99 62 60
        E 60 80 1e 00
        E 0 90 1f 60
        E 0 89 62 00
        E 0 99 62 60
        E 60 80 1f 00
        E 0 89 62 00
        E 60 90 1f 60
        E 0 99 18 60
        E 0 99 60 60
        E 0 99 62 60
        E 60 80 1f 00
        E 0 89 18 00
        E 0 89 60 00
        E 0 89 62 00
        E 60 90 1f 60
        E 0 99 1c 60
        E 0 99 61 60
        E 0 99 62 60
        E 60 80 1f 00
        E 0 89 1c 00
        E 0 89 61 00
        E 0 89 62 00
        E 60 90 1f 60
        E 0 99 62 60
        E 60 80 1f 00
        E 0 89 62 00
        E 60 90 1f 60
        E 0 99 62 60
        E 60 80 1f 00
        E 0 89 62 00
        E 60 90 19 60
        E 0 90 1f 60
        E 0 99 18 60
        E 0 99 60 60
        E 0 99 63 60
        E 60 80 1f 00
        E 0 89 18 00
        E 0 89 60 00
        E 0 89 63 00
        E 60 80 19 00
        E 0 90 1f 60
        E 0 99 62 60
        E 60 80 1f 00
        E 0 89 62 00
        E 60 90 1f 60
        E 0 99 18 60
        E 0 99 60 60
        E 0 99 62 60
        E 60 80 1f 00
        E 0 89 18 00
        E 0 89 60 00
        E 0 89 62 00
        E 60 90 19 60
        E 0 90 1f 60
        E 0 99 63 60
        E 60 80 1f 00
        E 0 89 63 00
        E 60 80 19 00
        E 0 90 1f 60
        E 0 99 1c 60
        E 0 99 61 60
        E 0 99 62 60
        E 60 80 1f 00
        E 0 89 1c 00
        E 0 89 61 00
        E 0 89 62 00
        E 60 90 1f 60
        E 0 99 62 60
        E 60 80 1f 00
        E 0 89 62 00
        E 60 90 1f 60
        E 0 99 18 60
        E 0 99 60 60
        E 0 99 62 60
        E 60 80 1f 00
        E 0 89 18 00
        E 0 89 60 00
        E 0 89 62 00
        E 60 90 1f 60
        E 0 99 62 60
        E 60 80 1f 00
        E 0 89 62 00
        E 60 90 1f 60
        E 0 99 62 60
        E 60 80 1f 00
        E 0 90 1e 60
        E 0 89 62 00
        E 0 99 62 60
        E 60 80 1e 00
        E 0 90 1f 60
        E 0 89 62 00
        E 0 99 18 60
        E 0 99 60 60
        E 0 99 62 60
        E 60 80 1f 00
        E 0 89 18 00
        E 0 89 60 00
        E 0 89 62 00
        E 60 90 1f 60
        E 0 99 62 60
        E 60 80 1f 00
        E 0 89 62 00
        E 60 90 1f 60
        E 0 99 1c 60
        E 0 99 61 60
        E 0 99 62 60
        E 60 80 1f 00
        E 0 89 1c 00
        E 0 89 61 00
        E 0 89 62 00
        E 60 90 1f 60
        E 0 99 62 60
        E 60 80 1f 00
        E 0 89 62 00
        E 60 90 1f 60
        E 0 99 62 60
        E 60 80 1f 00
        E 0 89 62 00
        E 60 90 19 60
        E 0 90 1f 60
        E 0 99 18 60
        E 0 99 60 60
        E 0 99 63 60
        E 60 80 1f 00
        E 0 89 18 00
        E 0 89 60 00
        E 0 89 63 00
        E 60 80 19 00
        E 0 90 1f 60
        E 0 99 62 60
        E 60 80 1f 00
        E 0 89 62 00
        E 60 90 1f 60
        E 0 99 18 60
        E 0 99 60 60
        E 0 99 62 60
        E 60 80 1f 00
        E 0 89 18 00
        E 0 89 60 00
        E 0 89 62 00
        E 60 90 19 60
        E 0 90 1f 60
        E 0 99 63 60
        E 60 80 1f 00
        E 0 89 63 00
        E 60 80 19 00
        E 0 90 1f 60
        E 0 99 1c 60
        E 0 99 61 60
        E 0 99 62 60
        E 60 80 1f 00
        E 0 89 1c 00
        E 0 89 61 00
        E 0 89 62 00
        E 60 90 1f 60
        E 0 99 62 60
        E 60 80 1f 00
        E 0 89 62 00
        E 60 90 1f 60
        E 0 99 18 60
        E 0 99 60 60
        E 0 99 62 60
        E 60 80 1f 00
        E 0 89 18 00
        E 0 89 60 00
        E 0 89 62 00
        E 60 90 1f 60
        E 0 99 62 60
        E 60 80 1f 00
        E 0 89 62 00
        E 60 90 1f 60
        E 0 99 62 60
        E 60 80 1f 00
        E 0 90 1e 60
        E 0 89 62 00
        E 0 99 62 60
        E 60 80 1e 00
        E 0 90 1f 60
        E 0 89 62 00
        E 0 99 18 60
        E 0 99 60 60
        E 0 99 62 60
        E 60 80 1f 00
        E 0 89 18 00
        E 0 89 60 00
        E 0 89 62 00
        E 60 90 1f 60
        E 0 99 62 60
        E 60 80 1f 00
        E 0 89 62 00
        E 60 90 1f 60
        E 0 99 1c 60
        E 0 99 61 60
        E 0 99 62 60
        E 60 80 1f 00
        E 0 89 1c 00
        E 0 89 61 00
        E 0 89 62 00
        E 60 90 1f 60
        E 0 99 62 60
        E 60 80 1f 00
        E 0 89 62 00
        E 60 90 1f 60
        E 0 99 62 60
        E 60 80 1f 00
        E 0 89 62 00
        E 60 90 19 60
        E 0 90 1f 60
        E 0 99 18 60
        E 0 99 60 60
        E 0 99 63 60
        E 60 80 1f 00
        E 0 89 18 00
        E 0 89 60 00
        E 0 89 63 00
        E 60 80 19 00
        E 0 90 1f 60
        E 0 99 62 60
        E 60 80 1f 00
        E 0 89 62 00
        E 60 90 1f 60
        E 0 99 18 60
        E 0 99 60 60
        E 0 99 62 60
        E 60 80 1f 00
        E 0 89 18 00
        E 0 89 60 00
        E 0 89 62 00
        E 60 90 19 60
        E 0 90 1f 60
        E 0 99 63 60
        E 60 80 1f 00
        E 0 89 63 00
        E 60 80 19 00
        E 0 90 1f 60
        E 0 99 1c 60
        E 0 99 61 60
        E 0 99 62 60
        E 60 80 1f 00
        E 0 89 1c 00
        E 0 89 61 00
        E 0 89 62 00
        E 60 90 1f 60
        E 0 99 62 60
        E 60 80 1f 00
        E 0 89 62 00
        E 60 90 1f 60
        E 0 99 18 60
        E 0 99 60 60
        E 0 99 62 60
        E 60 80 1f 00
        E 0 89 18 00
        E 0 89 60 00
        E 0 89 62 00
        E 60 90 1f 60
        E 0 99 18 60
        E 0 99 33 60
        E 0 99 60 60
        E 0 99 64 60
        E 0 99 70 60
        E 60 80 1f 00
        E 0 89 18 00
        E 0 89 33 00
        E 0 89 60 00
        E 0 89 64 00
        E 0 89 70 00
        E 180 99 31 60
        E 0 99 63 60
        E 0 99 6f 60
        E 60 89 31 00
        E 0 89 63 00
        E 0 89 6f 00
        E 60 90 19 60
        E 120 80 19 00
        E 0 99 1c 60
        E 0 99 61 60
        E 60 89 1c 00
        E 0 89 61 00
        E 60 99 18 60
        E 0 99 60 60
        E 60 89 18 00
        E 0 89 60 00
        E 60 99 1b 60
        E 0 99 61 60
        E 60 89 1b 00
        E 0 89 61 00
        E 0 99 1a 60
        E 0 99 61 60
        E 60 89 1a 00
        E 0 89 61 00
        E 0 99 1b 60
        E 0 99 61 60
        E 60 89 1b 00
        E 0 89 61 00
        E 180 99 2f 60
        E 0 99 62 60
        E 0 99 6e 60
        E 60 89 2f 00
        E 0 89 62 00
        E 0 89 6e 00
        E 0 99 2e 60
        E 0 99 62 60
        E 0 99 6e 60
        E 60 89 2e 00
        E 0 89 62 00
        E 0 89 6e 00
        E 0 99 2f 60
        E 0 99 62 60
        E 0 99 6e 60
        E 60 89 2f 00
        E 0 89 62 00
        E 0 89 6e 00
        E 60 99 2e 60
        E 0 99 62 60
        E 0 99 6e 60
        E 60 89 2e 00
        E 0 89 62 00
        E 0 89 6e 00
        E 60 99 31 60
        E 0 99 63 60
        E 0 99 6f 60
        E 60 89 31 00
        E 0 89 63 00
        E 0 89 6f 00
        E 60 99 30 60
        E 0 99 63 60
        E 0 99 6f 60
        E 60 89 30 00
        E 0 89 63 00
        E 0 89 6f 00
        E 60 99 18 60
        E 0 99 31 60
        E 0 99 60 60
        E 0 99 63 60
        E 0 99 6f 60
        E 60 89 18 00
        E 0 89 31 00
        E 0 89 60 00
        E 0 89 63 00
        E 0 89 6f 00
        E 300 99 18 60
        E 0 99 33 60
        E 0 99 60 60
        E 0 99 64 60
        E 0 99 70 60
        E 60 89 18 00
        E 0 89 33 00
        E 0 89 60 00
        E 0 89 64 00
        E 0 89 70 00
        E 300 99 18 60
        E 0 99 26 60
        E 0 99 60 60
        E 0 99 64 60
        E 60 89 18 00
        E 0 89 26 00
        E 0 89 60 00
        E 0 89 64 00
        E 660 90 19 60
        E 0 99 1f 60
        E 0 99 62 60
        E 60 89 1f 00
        E 0 89 62 00
        E 180 99 63 60
        E 60 89 63 00
        E 60 99 2a 60
        E 60 89 2a 00
        E 60 99 63 60
        E 60 89 63 00
        E 60 99 2a 60
        E 60 89 2a 00
        E 420 80 19 00
        E 360 90 1a 60
        E 0 90 1b 60
        E 0 90 61 60
        E 0 90 62 60
        E 0 90 6e 60
        E 60 80 1a 00
        E 0 80 1b 00
        E 0 80 61 00
        E 0 80 62 00
        E 0 80 6e 00
        E 420 99 18 60
        E 0 99 2f 60
        E 0 99 60 60
        E 0 99 62 60
        E 0 99 6e 60
        E 60 89 18 00
        E 0 89 2f 00
        E 0 89 60 00
        E 0 89 62 00
        E 0 89 6e 00
        E 300 99 18 60
        E 0 99 31 60
        E 0 99 60 60
        E 0 99 63 60
        E 0 99 6f 60
        E 60 89 18 00
        E 0 89 31 00
        E 0 89 60 00
        E 0 89 63 00
        E 0 89 6f 00
        E 300 99 18 60
        E 0 99 26 60
        E 0 99 60 60
        E 0 99 64 60
        E 60 89 18 00
        E 0 89 26 00
        E 0 89 60 00
        E 0 89 64 00
        E 900 99 2f 60
        E 0 99 62 60
        E 0 99 6e 60
        E 60 89 2f 00
        E 0 89 62 00
        E 0 89 6e 00
        E 60 99 2e 60
        E 0 99 62 60
        E 0 99 6e 60
        E 60 89 2e 00
        E 0 89 62 00
        E 0 89 6e 00
        E 60 99 31 60
        E 0 99 63 60
        E 0 99 6f 60
        E 60 89 31 00
        E 0 89 63 00
        E 0 89 6f 00
        <X 480 0
          /wFbaWRsZV9yZWFsdGltZV0=
        >
        E 2580 b0 7b 00
        GUID {22787022-39D2-43E9-87CB-94996B7D163D}
        IGNTEMPO 0 120.00000000 4 4
        SRCCOLOR 62
        VELLANE 132 71 60
        COLORMAP "C:\Program Files (x86)\REAPER\Data\color_maps\rockband_guitarbass.png"
        CFGEDITVIEW -5678.788958 12.340659 16 12 0 0 0
        CFGEDIT 1 1 0 1 1 0 1 1 1 1 1 0.25000000 -8 -8 1548 876 0 2 1 2 0.00000000 0 1 1 0 0.500000 0 0 1.000000 64
        KEYSNAP 0 0 "102034050607" 0 "Major"
        EVTFILTER 0 -1 -1 -1 -1 0 1 0 0 -1.00000000 -1.00000000
      >
    >
  >
  <TRACK '{85E81D69-632A-4084-A6A2-0417C4AD2CFF}'
    NAME "kick"
    PEAKCOL 16576
    BEAT -1
    AUTOMODE 0
    VOLPAN 1.00000000000000 0.00000000000000 -1.00000000000000 -1.00000000000000 1.00000000000000
    MUTESOLO 0 0 0
    IPHASE 0
    ISBUS 0 0
    BUSCOMP 0 0
    SHOWINMIX 1 0.666700 0.500000 1 0.500000 -1 -1 -1
    FREEMODE 0
    SEL 0
    REC 0 0 0 0 0 0 0
    VU 2
    TRACKHEIGHT 0 0
    INQ 0 0 0 0.5000000000 100 0 0 100
    NCHAN 2
    FX 1
    TRACKID {85E81D69-632A-4084-A6A2-0417C4AD2CFF}
    PERF 0
    MIDIOUT -1
    MAINSEND 1 0
    <ITEM
      POSITION 0.00000000000000
      SNAPOFFS 0.00000000000000
      LENGTH 91.00000000000000
      LOOP 0
      ALLTAKES 0
      SEL 0
      FADEIN 1 0.000000 0.000000 1 0
      FADEOUT 1 0.000000 0.000000 1 0
      MUTE 0
      IGUID {C2B57248-B353-4BA5-AFB5-FCE7EF567E87}
      IID 50
      NAME "kick.wav"
      VOLPAN 1.000000 0.000000 1.000000 -1.000000
      SOFFS 0.00000000000000
      PLAYRATE 1.00000000000000 1 0.00000000000000 -1
      CHANMODE 0
      GUID {94FF52D4-7687-4404-A96B-AEF6617AF913}
      <SOURCE WAVE
        FILE "wav\kick.wav"
      >
    >
  >
  <TRACK '{F1CE92B3-7964-4424-B0C3-19E413332998}'
    NAME "snare"
    PEAKCOL 16576
    BEAT -1
    AUTOMODE 0
    VOLPAN 1.00000000000000 0.00000000000000 -1.00000000000000 -1.00000000000000 1.00000000000000
    MUTESOLO 0 0 0
    IPHASE 0
    ISBUS 0 0
    BUSCOMP 0 0
    SHOWINMIX 1 0.666700 0.500000 1 0.500000 -1 -1 -1
    FREEMODE 0
    SEL 0
    REC 0 0 0 0 0 0 0
    VU 2
    TRACKHEIGHT 0 0
    INQ 0 0 0 0.5000000000 100 0 0 100
    NCHAN 2
    FX 1
    TRACKID {F1CE92B3-7964-4424-B0C3-19E413332998}
    PERF 0
    MIDIOUT -1
    MAINSEND 1 0
    <ITEM
      POSITION 0.00000000000000
      SNAPOFFS 0.00000000000000
      LENGTH 91.00000000000000
      LOOP 0
      ALLTAKES 0
      SEL 0
      FADEIN 1 0.000000 0.000000 1 0
      FADEOUT 1 0.000000 0.000000 1 0
      MUTE 0
      IGUID {7C1FF93C-C45C-468F-983F-040E1CEEAE0A}
      IID 49
      NAME "snare.wav"
      VOLPAN 1.000000 0.000000 1.000000 -1.000000
      SOFFS 0.00000000000000
      PLAYRATE 1.00000000000000 1 0.00000000000000 -1
      CHANMODE 0
      GUID {B28540AA-0C94-41AB-9A9E-DEE56DD9FC77}
      <SOURCE WAVE
        FILE "wav\snare.wav"
      >
    >
  >
  <TRACK '{8BDBBFD7-C361-43AF-AA3C-60CECE86532D}'
    NAME "kit"
    PEAKCOL 16576
    BEAT -1
    AUTOMODE 0
    VOLPAN 1.00000000000000 0.00000000000000 -1.00000000000000 -1.00000000000000 1.00000000000000
    MUTESOLO 0 0 0
    IPHASE 0
    ISBUS 2 -1
    BUSCOMP 0 0
    SHOWINMIX 1 0.666700 0.500000 1 0.500000 -1 -1 -1
    FREEMODE 0
    SEL 0
    REC 0 0 0 0 0 0 0
    VU 2
    TRACKHEIGHT 0 0
    INQ 0 0 0 0.5000000000 100 0 0 100
    NCHAN 2
    FX 1
    TRACKID {8BDBBFD7-C361-43AF-AA3C-60CECE86532D}
    PERF 0
    MIDIOUT -1
    MAINSEND 1 0
    <ITEM
      POSITION 0.00000000000000
      SNAPOFFS 0.00000000000000
      LENGTH 91.00000000000000
      LOOP 0
      ALLTAKES 0
      SEL 0
      FADEIN 1 0.000000 0.000000 1 0
      FADEOUT 1 0.000000 0.000000 1 0
      MUTE 0
      IGUID {1A2CE59C-081F-46F4-919A-048521C0EEFC}
      IID 48
      NAME "kit.wav"
      VOLPAN 1.000000 0.000000 1.000000 -1.000000
      SOFFS 0.00000000000000
      PLAYRATE 1.00000000000000 1 0.00000000000000 -1
      CHANMODE 0
      GUID {4C3DB637-0408-4BFC-A527-96607C0637F6}
      <SOURCE WAVE
        FILE "wav\kit.wav"
      >
    >
  >
  <TRACK '{7DDA138B-BB31-4302-AEBF-D7E1D43CB819}'
    NAME "PART BASS"
    PEAKCOL 16576
    BEAT -1
    AUTOMODE 0
    VOLPAN 1.00000000000000 0.00000000000000 -1.00000000000000 -1.00000000000000 1.00000000000000
    MUTESOLO 0 0 0
    IPHASE 0
    ISBUS 1 1
    BUSCOMP 0 0
    SHOWINMIX 1 0.666700 0.500000 1 0.500000 -1 -1 -1
    FREEMODE 0
    SEL 0
    REC 0 0 0 0 0 0 0
    VU 2
    TRACKHEIGHT 0 0
    INQ 0 0 0 0.5000000000 100 0 0 100
    NCHAN 2
    FX 1
    TRACKID {7DDA138B-BB31-4302-AEBF-D7E1D43CB819}
    PERF 0
    MIDIOUT -1
    <MIDINOTENAMES
      0 127 "TRILL MARKER"
      0 126 "TREMOLO MARKER"
      0 125 "---"
      0 124 "BRE"
      0 123 "BRE"
      0 122 "BRE"
      0 121 "BRE"
      0 120 "BRE (use all 5)"
      0 119 "----"
      0 116 "OVERDRIVE"
      0 115 "----"
      0 103 "Solo Marker"
      0 102 "Force HOPO Off"
      0 101 "Force HOPO On"
      0 100 "EXPERT Orange"
      0 99 "EXPERT Blue"
      0 98 "EXPERT Yellow"
      0 97 "EXPERT Red"
      0 96 "EXPERT Green"
      0 95 "----"
      0 90 "Force HOPO Off"
      0 89 "Force HOPO On"
      0 88 "HARD Orange"
      0 87 "HARD Blue"
      0 86 "HARD Yellow"
      0 85 "HARD Red"
      0 84 "HARD Green"
      0 77 "----"
      0 76 "MEDIUM Orange"
      0 75 "MEDIUM Blue"
      0 74 "MEDIUM Yellow"
      0 73 "MEDIUM Red"
      0 72 "MEDIUM Green"
      0 65 "----"
      0 64 "EASY Orange"
      0 63 "EASY Blue"
      0 62 "EASY Yellow"
      0 61 "EASY Red"
      0 60 "EASY Green"
      0 59 "Fret 12"
      0 57 "Fret 11"
      0 56 "Fret 10"
      0 55 "Fret 9"
      0 53 "Fret 8"
      0 52 "Fret 7"
      0 50 "Fret 6"
      0 49 "Fret 5"
      0 47 "Fret 4"
      0 45 "Fret 3"
      0 43 "Fret 2"
      0 40 "Fret 1"
    >
    MAINSEND 1 0
    <FXCHAIN
      WNDRECT 628 190 857 559
      SHOW 0
      LASTSEL 0
      DOCKED 0
      BYPASS 0 0
      <VST "VSTi: RBN Preview (RBN)" "rbprev_vst64.dll" 0 ""
        dnBicu5e7f4AAAAAAgAAAAEAAAAAAAAAAgAAAAAAAAAEAAAAAQAAAA==
        AAAQAAEAqgAAABAAAAA=
      >
      FLOATPOS 0 0 0 0
      FXID {B3234832-15CC-4800-B157-ADD2944782DD}
      WAK 0
    >
    <ITEM
      POSITION 0.00000000000000
      SNAPOFFS 0.00000000000000
      LENGTH 91.00000000000000
      LOOP 0
      ALLTAKES 0
      SEL 0
      FADEIN 1 0.000000 0.000000 1 0
      FADEOUT 1 0.000000 0.000000 1 0
      MUTE 0
      IGUID {EC28C4CA-74DA-4F1A-8CE4-E03B17EA0F8B}
      IID 2
      NAME "PART BASS"
      VOLPAN 1.000000 0.000000 1.000000 -1.000000
      SOFFS 0.00000000000000 0.00000000000000
      PLAYRATE 1.00000000000000 1 0.00000000000000 -1
      CHANMODE 0
      GUID {711B880A-9A83-43EF-8EF6-E92C532CA101}
      <SOURCE MIDI
        HASDATA 1 480 QN
        POOLEDEVTS {4F5B8DA9-9356-4711-8212-0E50F9344D19}
        <X 0 0
          /wNQQVJUIEJBU1M=
        >
        <X 3360 0
          /wFbaW50ZW5zZV0=
        >
        E 0 90 2b 60
        E 0 90 60 60
        E 0 90 74 60
        E 60 80 60 00
        E 60 90 61 60
        E 60 80 61 00
        E 60 90 62 60
        E 60 80 62 00
        E 60 90 61 60
        E 60 80 61 00
        E 60 90 63 60
        E 60 80 63 00
        E 60 90 62 60
        E 60 80 62 00
        E 60 90 61 60
        E 60 80 2b 00
        E 0 80 61 00
        E 60 90 31 60
        E 0 90 63 60
        E 60 80 63 00
        E 0 90 64 60
        E 0 90 65 60
        E 60 80 64 00
        E 0 80 65 00
        E 60 80 31 00
        E 60 90 2d 60
        E 0 90 63 60
        E 60 80 63 00
        E 60 90 62 60
        E 60 80 2d 00
        E 0 80 62 00
        E 60 90 2b 60
        E 0 90 61 60
        E 60 80 61 00
        E 60 90 62 60
        E 60 80 62 00
        E 60 90 61 60
        E 60 80 61 00
        E 60 90 60 60
        E 60 80 74 00
        E 900 80 60 00
        E 60 80 2b 00
        E 60 90 3b 60
        E 0 90 63 60
        E 60 80 63 00
        E 60 90 64 60
        E 0 90 65 60
        E 60 80 64 00
        E 60 90 63 60
        E 600 80 65 00
        E 0 80 63 00
        E 120 90 61 60
        E 60 80 61 00
        E 0 90 62 60
        E 60 80 62 00
        E 120 90 61 60
        E 600 80 61 00
        E 120 90 62 60
        E 60 80 62 00
        E 60 90 60 60
        E 60 80 60 00
        E 0 90 61 60
        E 60 80 61 00
        E 0 90 60 60
        E 1080 80 60 00
        E 60 80 3b 00
        E 60 90 34 60
        E 0 90 60 60
        E 60 80 60 00
        E 60 90 61 60
        E 0 90 65 60
        E 40 80 61 00
        E 0 80 65 00
        E 20 80 34 00
        E 60 90 39 60
        E 0 90 62 60
        E 60 80 62 00
        E 60 90 60 60
        E 60 80 60 00
        E 60 90 61 60
        E 60 80 61 00
        E 60 90 62 60
        E 60 80 62 00
        E 60 90 63 60
        E 60 80 63 00
        E 60 90 64 60
        E 60 80 39 00
        E 0 80 64 00
        E 60 90 34 60
        E 0 90 60 60
        E 60 80 60 00
        E 60 90 64 60
        E 60 80 64 00
        E 60 90 63 60
        E 60 80 63 00
        E 60 90 61 60
        E 60 80 61 00
        E 60 90 62 60
        E 60 80 62 00
        E 180 90 63 60
        E 60 80 63 00
        E 60 90 62 60
        E 60 80 62 00
        E 60 90 61 60
        E 60 80 34 00
        E 0 80 61 00
        E 60 90 2d 60
        E 0 90 62 60
        E 60 80 62 00
        E 60 90 61 60
        E 60 80 61 00
        E 60 90 60 60
        E 4920 80 60 00
        E 60 80 2d 00
        E 60 90 31 60
        E 0 90 61 60
        E 0 90 74 60
        E 60 80 61 00
        E 60 90 62 60
        E 0 90 65 60
        E 60 80 31 00
        E 0 80 62 00
        E 60 90 34 60
        E 0 90 60 60
        E 60 80 60 00
        E 40 90 61 60
        E 20 80 34 00
        E 40 80 61 00
        E 20 90 37 60
        E 0 90 62 60
        E 60 80 62 00
        E 0 90 63 60
        E 60 80 63 00
        E 0 90 64 60
        E 60 80 64 00
        E 0 90 63 60
        E 60 80 65 00
        E 0 80 63 00
        E 180 90 62 60
        E 60 80 62 00
        E 120 80 37 00
        E 60 90 34 60
        E 0 90 63 60
        E 60 80 63 00
        E 20 90 62 60
        E 60 80 62 00
        E 20 90 61 60
        E 20 80 34 00
        E 40 80 61 00
        E 20 90 31 60
        E 0 90 60 60
        E 60 80 60 00
        E 60 90 64 60
        E 0 90 65 60
        E 60 80 64 00
        E 0 80 65 00
        E 60 90 63 60
        E 60 80 74 00
        E 0 80 31 00
        E 0 80 63 00
        E 60 90 2b 60
        E 0 90 62 60
        E 60 80 62 00
        E 300 90 60 60
        E 60 80 60 00
        E 300 90 61 60
        E 2160 80 61 00
        E 480 90 60 60
        E 60 80 60 00
        E 180 90 61 60
        E 60 80 61 00
        E 180 90 62 60
        E 60 80 62 00
        E 60 90 61 60
        E 60 80 61 00
        E 180 90 63 60
        E 60 80 63 00
        E 180 90 62 60
        E 60 80 62 00
        E 60 90 61 60
        E 60 80 61 00
        E 60 90 63 60
        E 60 80 63 00
        E 0 90 64 60
        E 60 80 64 00
        E 120 90 63 60
        E 60 80 63 00
        E 60 90 62 60
        E 60 80 62 00
        E 60 90 61 60
        E 60 80 61 00
        E 60 90 60 60
        E 60 80 60 00
        E 60 90 61 60
        E 60 80 61 00
        E 180 90 62 60
        E 60 80 62 00
        E 180 90 61 60
        E 0 90 74 60
        E 60 80 61 00
        E 60 90 63 60
        E 60 80 63 00
        E 60 90 62 60
        E 60 80 62 00
        E 60 90 61 60
        E 60 80 61 00
        E 60 90 63 60
        E 60 80 63 00
        E 60 90 61 60
        E 60 80 61 00
        E 60 90 64 60
        E 60 80 64 00
        E 60 90 60 60
        E 60 80 74 00
        E 0 80 60 00
        E 180 90 61 60
        E 60 80 61 00
        E 180 90 62 60
        E 60 80 62 00
        E 60 90 61 60
        E 60 80 61 00
        E 180 90 63 60
        E 60 80 63 00
        E 180 90 62 60
        E 60 80 62 00
        E 60 90 61 60
        E 60 80 61 00
        E 60 90 63 60
        E 60 80 63 00
        E 0 90 64 60
        E 60 80 64 00
        E 120 90 63 60
        E 60 80 63 00
        E 60 90 62 60
        E 60 80 62 00
        E 60 90 61 60
        E 60 80 61 00
        E 60 90 60 60
        E 60 80 60 00
        E 60 90 61 60
        E 60 80 61 00
        E 60 90 62 60
        E 60 80 62 00
        E 60 90 61 60
        E 60 80 61 00
        E 60 90 62 60
        E 60 80 2b 00
        E 0 80 62 00
        E 60 90 2d 60
        E 0 90 63 60
        E 60 80 63 00
        E 0 90 64 60
        E 60 80 64 00
        E 120 90 63 60
        E 60 80 63 00
        E 60 90 62 60
        E 60 80 2d 00
        E 0 80 62 00
        E 60 90 2b 60
        E 0 90 63 60
        E 60 80 63 00
        E 60 90 62 60
        E 60 80 62 00
        E 60 90 61 60
        E 60 80 2b 00
        E 0 80 61 00
        E 60 90 28 60
        E 0 90 60 60
        E 360 80 60 00
        E 120 90 61 60
        E 240 80 61 00
        E 120 90 64 60
        E 360 80 64 00
        E 120 90 63 60
        E 240 80 63 00
        E 120 90 62 60
        E 60 80 62 00
        E 300 90 60 60
        E 60 80 60 00
        E 300 90 61 60
        <X 840 0
          /wFbcGxheV0=
        >
        E 0 80 28 00
        E 0 80 61 00
        E 80 90 2b 60
        E 0 90 60 60
        E 40 80 60 00
        E 40 90 61 60
        E 40 80 61 00
        E 40 90 62 60
        E 40 80 62 00
        E 40 90 63 60
        E 400 80 63 00
        E 80 90 64 60
        E 20 80 64 00
        E 40 90 63 60
        E 20 80 63 00
        E 60 90 62 60
        E 20 80 62 00
        E 60 90 65 60
        E 20 90 61 60
        E 60 80 61 00
        E 40 80 65 00
        E 100 90 61 60
        E 40 80 61 00
        E 20 90 62 60
        E 0 90 65 60
        E 440 80 62 00
        E 0 80 65 00
        E 60 90 62 60
        E 60 80 62 00
        E 0 90 65 60
        E 60 90 63 60
        E 240 80 63 00
        E 60 90 62 60
        E 60 80 65 00
        E 0 80 62 00
        E 120 90 3b 60
        E 0 90 63 60
        E 20 80 3b 00
        E 0 80 63 00
        E 60 90 62 60
        E 20 80 62 00
        E 80 90 65 60
        E 20 90 61 60
        E 100 80 65 00
        E 380 80 61 00
        E 40 90 61 60
        E 60 80 61 00
        E 120 90 60 60
        E 0 90 65 60
        E 60 80 60 00
        E 0 80 65 00
        E 60 80 2b 00
        E 60 90 31 60
        E 0 90 60 60
        E 2280 80 60 00
        E 160 90 61 60
        E 20 80 31 00
        E 20 80 61 00
        E 40 90 2b 60
        E 0 90 63 60
        E 40 80 63 00
        E 20 90 65 60
        E 60 90 64 60
        E 120 80 65 00
        E 600 80 64 00
        E 100 90 63 60
        E 20 80 63 00
        E 200 90 3b 60
        E 0 90 62 60
        E 40 80 3b 00
        E 0 80 62 00
        E 20 90 63 60
        E 700 80 63 00
        E 120 90 62 60
        E 0 90 74 60
        E 40 80 62 00
        E 60 90 60 60
        E 40 80 60 00
        E 100 90 61 60
        E 660 80 61 00
        E 60 90 60 60
        E 0 90 65 60
        E 1080 80 60 00
        E 0 80 65 00
        E 120 80 2b 00
        E 0 80 74 00
        E 0 90 62 60
        E 5760 80 62 00
        E 960 90 60 60
        E 4560 80 60 00
        E 120 90 28 60
        E 0 90 60 60
        E 20 80 60 00
        E 100 90 61 60
        E 20 80 61 00
        E 100 90 62 60
        E 20 80 62 00
        E 100 90 61 60
        E 20 80 61 00
        E 100 90 62 60
        E 20 80 62 00
        E 100 90 63 60
        E 20 80 63 00
        E 100 90 64 60
        E 20 80 64 00
        E 100 90 63 60
        E 240 80 63 00
        E 120 90 62 60
        E 20 80 62 00
        E 100 90 61 60
        E 240 80 61 00
        E 60 80 28 00
        E 60 90 3b 60
        E 0 90 63 60
        E 20 80 63 00
        E 100 90 62 60
        E 20 80 62 00
        E 40 80 3b 00
        E 60 90 39 60
        E 0 90 61 60
        E 20 80 61 00
        E 100 90 60 60
        E 240 80 60 00
        E 60 80 39 00
        E 60 90 37 60
        E 0 90 64 60
        E 0 90 74 60
        E 20 80 64 00
        E 100 90 63 60
        E 20 80 63 00
        E 100 90 62 60
        E 20 80 62 00
        E 100 90 61 60
        E 40 80 61 00
        E 80 90 63 60
        E 20 80 63 00
        E 100 90 62 60
        E 20 80 62 00
        E 100 90 61 60
        E 20 80 61 00
        E 40 80 37 00
        E 60 90 39 60
        E 0 90 60 60
        E 20 80 60 00
        E 100 90 62 60
        E 20 80 62 00
        E 100 90 61 60
        E 1920 80 74 00
        E 0 80 39 00
        E 0 80 61 00
        <X 120 0
          /wFbaWRsZV0=
        >
        <X 3120 0
          /wFbcGxheV0=
        >
        E 120 90 2b 60
        E 0 90 60 60
        E 1560 80 60 00
        <X 120 0
          /wFbaW50ZW5zZV0=
        >
        E 0 90 60 60
        E 60 80 60 00
        E 60 90 61 60
        E 60 80 61 00
        E 60 90 62 60
        E 60 80 62 00
        E 60 90 61 60
        E 60 80 61 00
        E 60 90 63 60
        E 60 80 63 00
        E 60 90 62 60
        E 60 80 62 00
        E 60 90 61 60
        E 60 80 2b 00
        E 0 80 61 00
        E 60 90 31 60
        E 0 90 63 60
        E 60 80 63 00
        E 0 90 64 60
        E 0 90 65 60
        E 60 80 64 00
        E 0 80 65 00
        E 60 80 31 00
        E 60 90 2d 60
        E 0 90 63 60
        E 60 80 63 00
        E 60 90 62 60
        E 60 80 2d 00
        E 0 80 62 00
        E 60 90 2b 60
        E 0 90 61 60
        E 60 80 61 00
        E 60 90 62 60
        E 60 80 62 00
        E 60 90 61 60
        E 60 80 61 00
        E 60 90 60 60
        E 960 80 60 00
        E 120 90 3b 60
        E 0 90 63 60
        E 0 90 74 60
        E 60 80 63 00
        E 60 90 64 60
        E 0 90 65 60
        E 60 80 64 00
        E 60 90 63 60
        E 180 80 65 00
        E 420 80 3b 00
        E 0 80 63 00
        E 120 90 61 60
        E 60 80 61 00
        E 0 90 62 60
        E 60 80 62 00
        E 120 90 61 60
        E 600 80 61 00
        E 120 90 62 60
        E 60 80 62 00
        E 60 90 60 60
        E 60 80 60 00
        E 0 90 61 60
        E 60 80 61 00
        E 0 90 60 60
        E 120 80 74 00
        E 960 80 60 00
        E 60 80 2b 00
        E 60 90 34 60
        E 0 90 60 60
        E 60 80 60 00
        E 60 90 61 60
        E 0 90 65 60
        E 40 80 61 00
        E 0 80 65 00
        E 20 80 34 00
        E 60 90 39 60
        E 0 90 62 60
        E 60 80 62 00
        E 60 90 60 60
        E 60 80 60 00
        E 60 90 61 60
        E 60 80 61 00
        E 60 90 62 60
        E 60 80 62 00
        E 60 90 63 60
        E 60 80 63 00
        E 60 90 64 60
        E 60 80 39 00
        E 0 80 64 00
        E 60 90 34 60
        E 0 90 60 60
        E 60 80 60 00
        E 60 90 64 60
        E 60 80 64 00
        E 60 90 63 60
        E 60 80 63 00
        E 60 90 61 60
        E 60 80 61 00
        E 60 90 62 60
        E 60 80 62 00
        E 180 90 63 60
        E 60 80 63 00
        E 60 90 62 60
        E 60 80 62 00
        E 60 90 61 60
        E 60 80 34 00
        E 0 80 61 00
        E 60 90 2d 60
        E 0 90 62 60
        E 60 80 62 00
        E 60 90 61 60
        E 60 80 61 00
        E 60 90 60 60
        E 4920 80 60 00
        E 60 80 2d 00
        E 60 90 31 60
        E 0 90 61 60
        E 60 80 61 00
        E 0 90 65 60
        E 60 90 62 60
        E 60 80 31 00
        E 0 80 62 00
        E 60 90 34 60
        E 0 90 60 60
        E 60 80 65 00
        E 0 80 60 00
        E 40 90 61 60
        E 0 90 65 60
        E 20 80 34 00
        E 40 80 61 00
        E 0 80 65 00
        E 20 90 37 60
        E 0 90 62 60
        E 0 90 65 60
        E 60 80 62 00
        E 0 80 65 00
        E 0 90 63 60
        E 0 90 65 60
        E 60 80 63 00
        E 0 90 64 60
        E 60 80 64 00
        E 0 90 63 60
        E 180 80 65 00
        E 0 80 63 00
        E 60 90 62 60
        E 60 80 62 00
        E 120 80 37 00
        E 60 90 34 60
        E 0 90 63 60
        E 60 80 63 00
        E 20 90 62 60
        E 60 80 62 00
        E 20 90 61 60
        E 20 80 34 00
        E 40 80 61 00
        E 20 90 31 60
        E 0 90 60 60
        E 60 80 60 00
        E 0 90 65 60
        E 60 90 64 60
        E 60 80 65 00
        E 0 80 64 00
        E 60 90 63 60
        E 60 80 31 00
        E 0 80 63 00
        E 60 90 2b 60
        E 0 90 62 60
        E 60 80 62 00
        E 300 90 60 60
        E 60 80 60 00
        E 300 90 61 60
        E 2160 80 2b 00
        E 0 80 61 00
        E 480 90 28 60
        E 0 90 63 60
        E 80 80 63 00
        E 300 90 60 60
        E 60 80 60 00
        E 280 90 61 60
        E 1500 80 61 00
        E 60 80 28 00
        <X 120 0
          /wFbaWRsZV9yZWFsdGltZV0=
        >
        E 2640 b0 7b 00
        GUID {92410131-5F90-4AFD-A85D-F8D4E69F2CC4}
        IGNTEMPO 0 120.00000000 4 4
        SRCCOLOR 355
        VELLANE 132 128 60
        COLORMAP "C:\Program Files\REAPER (x64)\Data\color_maps\rockband_guitarbass.png"
        CFGEDITVIEW 23493.072128 12.340659 15 12 0 0 0
        CFGEDIT 1 1 0 1 1 0 1 1 1 1 1 0.12500000 -8 -8 1370 736 0 2 1 1 0.00000000 0 1 0 0 0.500000 0 0 1.000000 64
        KEYSNAP 0 3 "102034050607" 0 "Major"
        EVTFILTER 0 -1 -1 -1 -1 0 1 0 0 -1.00000000 -1.00000000
      >
    >
  >
  <TRACK '{5D101C68-B107-4428-977D-7758CA8E2150}'
    NAME "bass"
    PEAKCOL 16576
    BEAT -1
    AUTOMODE 0
    VOLPAN 1.00000000000000 0.00000000000000 -1.00000000000000 -1.00000000000000 1.00000000000000
    MUTESOLO 0 0 0
    IPHASE 0
    ISBUS 2 -1
    BUSCOMP 0 0
    SHOWINMIX 1 0.666700 0.500000 1 0.500000 -1 -1 -1
    FREEMODE 0
    SEL 0
    REC 0 0 0 0 0 0 0
    VU 2
    TRACKHEIGHT 0 0
    INQ 0 0 0 0.5000000000 100 0 0 100
    NCHAN 2
    FX 1
    TRACKID {5D101C68-B107-4428-977D-7758CA8E2150}
    PERF 0
    MIDIOUT -1
    MAINSEND 1 0
    <ITEM
      POSITION 0.00000000000000
      SNAPOFFS 0.00000000000000
      LENGTH 91.00000000000000
      LOOP 0
      ALLTAKES 0
      SEL 0
      FADEIN 1 0.000000 0.000000 1 0
      FADEOUT 1 0.000000 0.000000 1 0
      MUTE 0
      IGUID {A97BA9A3-47DE-4712-BF84-B7E67421FCCD}
      IID 52
      NAME "bass.wav"
      VOLPAN 1.000000 0.000000 1.000000 -1.000000
      SOFFS 0.00000000000000
      PLAYRATE 1.00000000000000 1 0.00000000000000 -1
      CHANMODE 0
      GUID {EECC3150-C69B-4FA0-947C-C8F76B7245CD}
      <SOURCE WAVE
        FILE "wav\bass.wav"
      >
    >
  >
  <TRACK '{1B31845D-9CB2-4B5F-8E33-207BBD0893EF}'
    NAME "PART GUITAR"
    PEAKCOL 16576
    BEAT -1
    AUTOMODE 0
    VOLPAN 1.00000000000000 0.00000000000000 -1.00000000000000 -1.00000000000000 1.00000000000000
    MUTESOLO 0 0 0
    IPHASE 0
    ISBUS 1 1
    BUSCOMP 0 0
    SHOWINMIX 1 0.666700 0.500000 1 0.500000 -1 -1 -1
    FREEMODE 0
    SEL 0
    REC 0 0 0 0 0 0 0
    VU 2
    TRACKHEIGHT 0 0
    INQ 0 0 0 0.5000000000 100 0 0 100
    NCHAN 2
    FX 1
    TRACKID {1B31845D-9CB2-4B5F-8E33-207BBD0893EF}
    PERF 0
    MIDIOUT -1
    <MIDINOTENAMES
      0 127 "TRILL MARKER"
      0 126 "TREMOLO MARKER"
      0 125 "---"
      0 124 "BRE"
      0 123 "BRE"
      0 122 "BRE"
      0 121 "BRE"
      0 120 "BRE (use all 5)"
      0 119 "----"
      0 116 "OVERDRIVE"
      0 115 "----"
      0 103 "Solo Marker"
      0 102 "Force HOPO Off"
      0 101 "Force HOPO On"
      0 100 "EXPERT Orange"
      0 99 "EXPERT Blue"
      0 98 "EXPERT Yellow"
      0 97 "EXPERT Red"
      0 96 "EXPERT Green"
      0 95 "----"
      0 90 "Force HOPO Off"
      0 89 "Force HOPO On"
      0 88 "HARD Orange"
      0 87 "HARD Blue"
      0 86 "HARD Yellow"
      0 85 "HARD Red"
      0 84 "HARD Green"
      0 77 "----"
      0 76 "MEDIUM Orange"
      0 75 "MEDIUM Blue"
      0 74 "MEDIUM Yellow"
      0 73 "MEDIUM Red"
      0 72 "MEDIUM Green"
      0 65 "----"
      0 64 "EASY Orange"
      0 63 "EASY Blue"
      0 62 "EASY Yellow"
      0 61 "EASY Red"
      0 60 "EASY Green"
      0 59 "Fret 12"
      0 57 "Fret 11"
      0 56 "Fret 10"
      0 55 "Fret 9"
      0 53 "Fret 8"
      0 52 "Fret 7"
      0 50 "Fret 6"
      0 49 "Fret 5"
      0 47 "Fret 4"
      0 45 "Fret 3"
      0 43 "Fret 2"
      0 40 "Fret 1"
    >
    MAINSEND 1 0
    <FXCHAIN
      WNDRECT 443 302 857 559
      SHOW 0
      LASTSEL 0
      DOCKED 0
      BYPASS 0 0
      <VST "VSTi: RBN Preview (RBN)" "rbprev_vst64.dll" 0 ""
        dnBicu5e7f4AAAAAAgAAAAEAAAAAAAAAAgAAAAAAAAAEAAAAAQAAAA==
        AAAQAAMAqgAAABAAAAA=
      >
      FLOATPOS 0 0 0 0
      FXID {9109CD08-3409-499C-A3CC-C037F1AFEC0E}
      WAK 0
    >
    <ITEM
      POSITION 0.00000000000000
      SNAPOFFS 0.00000000000000
      LENGTH 91.00000000000000
      LOOP 0
      ALLTAKES 0
      SEL 0
      FADEIN 1 0.000000 0.000000 1 0
      FADEOUT 1 0.000000 0.000000 1 0
      MUTE 0
      IGUID {3F06C6C2-070F-4B27-8DF4-5848A6AE696B}
      IID 4
      NAME "PART GUITAR - flourish.mid"
      VOLPAN 1.000000 0.000000 1.000000 -1.000000
      SOFFS 0.00000000000000 0.00000000000000
      PLAYRATE 1.00000000000000 1 0.00000000000000 -1
      CHANMODE 0
      GUID {95600E3C-6BDA-4452-911A-3F00A5BEA662}
      <SOURCE MIDI
        HASDATA 1 480 QN
        POOLEDEVTS {CEDA5EB5-673E-426B-ACE7-198EB8627B94}
        <X 0 0
          /wNQQVJUIEdVSVRBUg==
        >
        <X 3360 0
          /wFbcGxheV0=
        >
        E 0 90 2b 60
        E 0 90 60 60
        E 0 90 74 60
        E 40 80 60 00
        E 80 90 61 60
        E 40 80 61 00
        E 80 90 62 60
        E 40 80 62 00
        E 80 90 61 60
        E 40 80 61 00
        E 80 90 63 60
        E 40 80 63 00
        E 80 90 62 60
        E 40 80 62 00
        E 80 90 61 60
        E 40 80 61 00
        E 20 80 2b 00
        E 60 90 2f 60
        E 0 90 63 60
        E 60 80 63 00
        E 0 90 64 60
        E 0 90 65 60
        E 60 80 64 00
        E 0 80 65 00
        E 60 80 2f 00
        E 60 90 2b 60
        E 0 90 63 60
        E 60 80 63 00
        E 60 90 62 60
        E 60 80 62 00
        E 60 90 61 60
        E 40 80 61 00
        E 80 90 62 60
        E 40 80 62 00
        E 80 90 61 60
        E 40 80 61 00
        E 80 90 60 60
        E 60 80 74 00
        E 1020 80 2b 00
        E 0 80 60 00
        <X 120 0
          /wFbaWRsZV0=
        >
        <X 3840 0
          /wFbcGxheV0=
        >
        E 0 90 2b 60
        E 0 90 60 60
        E 40 80 60 00
        E 80 90 61 60
        E 40 80 61 00
        E 80 90 62 60
        E 40 80 62 00
        E 80 90 61 60
        E 60 80 61 00
        E 60 90 62 60
        E 40 80 62 00
        E 80 90 63 60
        E 60 80 63 00
        E 60 90 64 60
        E 60 80 64 00
        E 60 90 63 60
        E 60 80 63 00
        E 180 90 62 60
        E 60 80 62 00
        E 0 90 63 60
        E 60 80 63 00
        E 0 90 62 60
        E 60 80 62 00
        E 60 90 63 60
        E 60 80 63 00
        E 60 90 62 60
        E 60 80 62 00
        E 60 90 61 60
        E 60 80 61 00
        E 60 90 60 60
        E 420 80 60 00
        E 60 90 60 60
        E 0 90 74 60
        E 40 80 60 00
        E 40 90 61 60
        E 40 80 61 00
        E 40 90 62 60
        E 40 80 62 00
        E 40 90 61 60
        E 40 80 61 00
        E 40 90 62 60
        E 40 80 62 00
        E 40 90 63 60
        E 40 80 63 00
        E 40 90 62 60
        E 40 80 62 00
        E 40 90 63 60
        E 40 80 63 00
        E 40 90 64 60
        E 40 80 64 00
        E 40 90 60 60
        E 40 80 60 00
        E 40 90 61 60
        E 40 80 61 00
        E 40 90 62 60
        E 40 80 62 00
        E 40 90 61 60
        E 40 80 61 00
        E 40 90 62 60
        E 40 80 62 00
        E 40 90 63 60
        E 20 80 2b 00
        E 20 80 63 00
        E 40 90 31 60
        E 0 90 64 60
        E 0 90 7e 60
        E 40 80 64 00
        E 40 90 64 60
        E 40 80 64 00
        E 40 90 64 60
        E 40 80 64 00
        E 40 90 64 60
        E 40 80 64 00
        E 40 90 64 60
        E 40 80 64 00
        E 40 90 64 60
        E 40 80 64 00
        E 40 90 64 60
        E 40 80 64 00
        E 40 90 64 60
        E 40 80 64 00
        E 40 90 64 60
        E 40 80 64 00
        E 40 90 64 60
        E 40 80 64 00
        E 40 90 64 60
        E 40 80 64 00
        E 40 90 64 60
        E 40 80 64 00
        E 40 90 64 60
        E 12 80 7e 00
        E 48 80 74 00
        E 360 80 31 00
        E 0 80 64 00
        E 60 90 3b 60
        E 0 90 63 60
        E 60 80 63 00
        E 60 90 62 60
        E 60 80 62 00
        E 60 90 63 60
        E 660 80 63 00
        E 60 90 61 60
        E 60 80 61 00
        E 60 90 63 60
        E 60 80 63 00
        E 60 90 62 60
        E 300 80 62 00
        E 60 90 60 60
        E 1080 80 3b 00
        E 0 80 60 00
        E 960 90 2d 60
        E 0 90 62 60
        E 60 80 62 00
        E 300 90 61 60
        E 60 80 61 00
        E 300 90 60 60
        E 1200 80 2d 00
        E 0 80 60 00
        E 1440 90 34 60
        E 0 90 60 60
        E 60 80 60 00
        E 60 90 60 60
        E 60 80 60 00
        E 60 90 60 60
        E 60 80 60 00
        E 60 90 60 60
        E 60 80 60 00
        E 60 90 60 60
        E 60 80 60 00
        E 60 90 60 60
        E 60 80 60 00
        E 60 90 60 60
        E 60 80 60 00
        E 60 90 60 60
        E 60 80 60 00
        E 60 90 60 60
        E 60 80 60 00
        E 60 90 60 60
        E 60 80 60 00
        E 60 90 60 60
        E 60 80 60 00
        E 60 90 61 60
        E 60 80 61 00
        E 60 90 62 60
        E 60 80 62 00
        E 60 90 60 60
        E 0 90 63 60
        E 60 80 60 00
        E 0 80 63 00
        E 180 90 60 60
        E 60 80 60 00
        E 60 90 60 60
        E 60 80 60 00
        E 60 90 60 60
        E 60 80 60 00
        E 60 90 60 60
        E 60 80 60 00
        E 60 90 60 60
        E 60 80 60 00
        E 60 90 60 60
        E 60 80 60 00
        E 60 90 60 60
        E 60 80 60 00
        E 60 90 60 60
        E 60 80 60 00
        E 60 90 60 60
        E 60 80 60 00
        E 60 90 60 60
        E 60 80 60 00
        E 60 90 60 60
        E 60 80 60 00
        E 60 90 60 60
        E 60 80 60 00
        E 60 90 61 60
        E 60 80 61 00
        E 60 90 60 60
        E 60 80 60 00
        E 60 90 60 60
        E 60 80 60 00
        E 60 90 60 60
        E 60 80 60 00
        E 60 90 60 60
        E 60 80 60 00
        E 60 90 60 60
        E 60 80 60 00
        E 60 90 60 60
        E 60 80 60 00
        E 60 90 60 60
        E 60 80 60 00
        E 60 90 60 60
        E 60 80 60 00
        E 60 90 60 60
        E 60 80 60 00
        E 60 90 60 60
        E 60 80 60 00
        E 60 90 60 60
        E 60 80 60 00
        E 60 90 61 60
        E 60 80 61 00
        E 60 90 62 60
        E 60 80 62 00
        E 60 90 60 60
        E 0 90 63 60
        E 60 80 60 00
        E 0 80 63 00
        E 180 90 61 60
        E 60 80 61 00
        E 60 90 60 60
        E 60 80 60 00
        E 60 90 61 60
        E 60 80 61 00
        E 60 90 63 60
        E 60 80 63 00
        E 60 90 62 60
        E 60 80 34 00
        E 0 80 62 00
        E 60 90 37 60
        E 0 90 61 60
        E 60 80 61 00
        E 60 90 63 60
        E 60 80 63 00
        E 0 90 64 60
        E 0 90 65 60
        E 60 80 64 00
        E 0 80 65 00
        E 60 80 37 00
        E 60 90 34 60
        E 0 90 63 60
        E 60 80 63 00
        E 60 90 62 60
        E 60 80 62 00
        E 60 90 61 60
        E 60 80 61 00
        E 60 90 62 60
        E 60 80 62 00
        E 60 90 61 60
        E 60 80 34 00
        E 0 80 61 00
        E 60 90 31 60
        E 0 90 60 60
        E 0 90 74 60
        E 360 80 60 00
        E 120 90 61 60
        E 240 80 61 00
        E 120 90 63 60
        E 360 80 63 00
        E 120 90 62 60
        E 240 80 62 00
        E 60 80 31 00
        E 60 80 74 00
        E 0 90 32 60
        E 0 90 64 60
        E 60 80 64 00
        E 300 90 63 60
        E 60 80 63 00
        E 300 90 62 60
        E 840 80 62 00
        E 300 90 3b 60
        E 0 90 60 60
        E 60 80 60 00
        E 60 80 32 00
        E 0 90 61 60
        E 0 90 65 60
        E 180 80 3b 00
        E 0 90 2b 60
        E 180 80 61 00
        E 0 80 65 00
        E 60 90 62 60
        E 60 80 62 00
        E 180 90 64 60
        E 2280 80 64 00
        E 60 80 2b 00
        <X 60 0
          /wFbaW50ZW5zZV0=
        >
        E 0 90 31 60
        E 0 90 62 60
        E 0 90 67 60
        E 60 80 62 00
        E 60 90 63 60
        E 60 80 63 00
        E 60 90 60 60
        E 60 80 60 00
        E 60 90 64 60
        E 60 80 64 00
        E 180 90 62 60
        E 60 80 62 00
        E 180 90 63 60
        E 60 80 63 00
        E 180 90 64 60
        E 60 80 64 00
        E 180 90 60 60
        E 60 80 60 00
        E 60 90 64 60
        E 60 80 64 00
        E 180 90 60 60
        E 60 80 60 00
        E 180 90 64 60
        E 60 80 64 00
        E 60 90 60 60
        E 60 80 60 00
        E 60 90 62 60
        E 60 80 62 00
        E 60 90 63 60
        E 60 80 63 00
        E 180 90 60 60
        E 60 80 60 00
        E 180 90 61 60
        E 60 80 61 00
        E 180 90 60 60
        E 60 80 60 00
        E 60 90 64 60
        E 60 80 64 00
        E 180 90 60 60
        E 60 80 60 00
        E 180 90 64 60
        E 60 80 64 00
        E 60 90 60 60
        E 60 80 60 00
        E 60 90 62 60
        E 60 80 62 00
        E 60 90 63 60
        E 60 80 63 00
        E 180 90 60 60
        E 60 80 60 00
        E 180 90 61 60
        E 60 80 61 00
        E 180 90 60 60
        E 60 80 60 00
        E 60 90 64 60
        E 60 80 64 00
        E 180 90 60 60
        E 60 80 60 00
        E 180 90 64 60
        E 60 80 64 00
        E 60 90 60 60
        E 60 80 60 00
        E 60 90 62 60
        E 60 80 62 00
        E 60 90 63 60
        E 60 80 63 00
        E 180 90 60 60
        E 60 80 60 00
        E 180 90 61 60
        E 60 80 61 00
        E 180 90 60 60
        E 60 80 60 00
        E 60 90 64 60
        E 60 80 64 00
        E 120 80 31 00
        E 60 90 2b 60
        E 0 90 61 60
        E 0 90 74 60
        E 60 80 61 00
        E 180 90 64 60
        E 60 80 64 00
        E 60 90 61 60
        E 60 80 61 00
        E 60 90 62 60
        E 60 80 62 00
        E 60 90 63 60
        E 60 80 63 00
        E 180 90 61 60
        E 60 80 61 00
        E 180 90 62 60
        E 60 80 62 00
        E 180 90 61 60
        E 60 80 61 00
        E 60 90 64 60
        E 60 80 64 00
        E 180 80 74 00
        E 0 90 61 60
        E 60 80 61 00
        E 180 90 64 60
        E 60 80 64 00
        E 60 90 61 60
        E 60 80 61 00
        E 60 90 62 60
        E 60 80 62 00
        E 60 90 63 60
        E 60 80 63 00
        E 180 90 61 60
        E 60 80 61 00
        E 180 90 62 60
        E 60 80 62 00
        E 180 90 61 60
        E 60 80 61 00
        E 60 90 64 60
        E 60 80 64 00
        E 180 90 61 60
        E 60 80 61 00
        E 180 90 64 60
        E 60 80 64 00
        E 60 90 61 60
        E 60 80 61 00
        E 60 90 62 60
        E 60 80 62 00
        E 60 90 63 60
        E 60 80 63 00
        E 180 90 61 60
        E 60 80 61 00
        E 180 90 62 60
        E 60 80 62 00
        E 180 90 61 60
        E 60 80 61 00
        E 60 90 64 60
        E 60 80 64 00
        E 180 90 61 60
        E 60 80 61 00
        E 180 90 64 60
        E 60 80 64 00
        E 60 90 61 60
        E 60 80 61 00
        E 60 90 62 60
        E 60 80 62 00
        E 60 90 63 60
        E 60 80 63 00
        E 180 90 61 60
        E 60 80 61 00
        E 180 90 62 60
        E 60 80 62 00
        E 180 90 61 60
        E 60 80 61 00
        E 60 90 64 60
        E 60 80 64 00
        E 240 80 2b 00
        E 60 90 39 60
        E 0 90 63 60
        E 60 80 63 00
        E 60 90 61 60
        E 60 80 61 00
        E 60 90 64 60
        E 60 80 64 00
        E 180 90 63 60
        E 60 80 63 00
        E 180 90 62 60
        E 60 80 62 00
        E 180 90 63 60
        E 60 80 63 00
        E 120 80 39 00
        E 60 90 37 60
        E 0 90 60 60
        E 60 80 60 00
        E 60 90 64 60
        E 60 80 64 00
        E 120 80 37 00
        E 60 90 39 60
        E 0 90 62 60
        E 60 80 62 00
        E 60 90 63 60
        E 60 80 63 00
        E 60 90 61 60
        E 60 80 61 00
        E 60 90 64 60
        E 60 80 64 00
        E 180 90 63 60
        E 60 80 63 00
        E 180 90 62 60
        E 60 80 62 00
        E 180 90 63 60
        E 60 80 63 00
        E 120 80 39 00
        E 60 90 37 60
        E 0 90 60 60
        E 60 80 60 00
        E 60 90 64 60
        E 60 80 64 00
        E 120 80 37 00
        E 60 90 39 60
        E 0 90 62 60
        E 60 80 62 00
        E 60 90 63 60
        E 60 80 63 00
        E 60 90 61 60
        E 60 80 61 00
        E 60 90 64 60
        E 60 80 64 00
        E 180 90 63 60
        E 60 80 63 00
        E 180 90 62 60
        E 60 80 62 00
        E 180 90 63 60
        E 60 80 63 00
        E 120 80 39 00
        E 60 90 37 60
        E 0 90 60 60
        E 60 80 60 00
        E 60 90 64 60
        E 60 80 64 00
        E 120 80 37 00
        E 60 90 39 60
        E 0 90 62 60
        E 0 90 74 60
        E 60 80 62 00
        E 60 90 63 60
        E 60 80 63 00
        E 60 90 61 60
        E 60 80 61 00
        E 60 90 64 60
        E 60 80 64 00
        E 180 90 63 60
        E 60 80 63 00
        E 180 90 62 60
        E 60 80 62 00
        E 180 90 63 60
        E 60 80 63 00
        E 120 80 39 00
        E 60 90 37 60
        E 0 90 60 60
        E 60 80 60 00
        E 60 90 64 60
        E 60 80 64 00
        E 120 80 37 00
        E 60 80 74 00
        E 0 90 39 60
        E 0 90 62 60
        E 60 80 62 00
        E 60 90 63 60
        E 60 80 63 00
        E 60 90 62 60
        E 60 80 62 00
        E 60 90 64 60
        E 60 80 64 00
        E 180 90 63 60
        E 60 80 63 00
        E 180 90 61 60
        E 60 80 61 00
        E 180 90 63 60
        E 60 80 63 00
        E 120 80 39 00
        E 60 90 37 60
        E 0 90 60 60
        E 60 80 60 00
        E 60 90 64 60
        E 60 80 64 00
        E 120 80 37 00
        E 60 90 38 60
        E 0 90 62 60
        E 60 80 62 00
        E 60 90 63 60
        E 60 80 63 00
        E 60 90 62 60
        E 60 80 62 00
        E 60 90 64 60
        E 60 80 64 00
        E 180 90 63 60
        E 60 80 63 00
        E 180 90 61 60
        E 60 80 61 00
        E 180 90 63 60
        E 60 80 63 00
        E 120 80 38 00
        E 60 90 37 60
        E 0 90 60 60
        E 60 80 60 00
        E 60 90 64 60
        E 60 80 64 00
        E 120 80 37 00
        E 60 90 38 60
        E 0 90 62 60
        E 60 80 62 00
        E 60 90 63 60
        E 60 80 63 00
        E 60 90 62 60
        E 60 80 62 00
        E 60 90 64 60
        E 60 80 64 00
        E 180 90 63 60
        E 60 80 63 00
        E 180 90 61 60
        E 60 80 61 00
        E 180 90 63 60
        E 60 80 63 00
        E 120 80 38 00
        E 60 90 37 60
        E 0 90 60 60
        E 60 80 60 00
        E 60 90 64 60
        E 60 80 64 00
        E 120 80 37 00
        E 60 90 38 60
        E 0 90 62 60
        E 60 80 62 00
        E 60 90 63 60
        E 60 80 63 00
        E 60 90 62 60
        E 60 80 62 00
        E 60 90 64 60
        E 60 80 64 00
        E 180 90 63 60
        E 60 80 63 00
        E 180 90 61 60
        E 60 80 61 00
        E 180 90 63 60
        E 60 80 63 00
        E 120 80 38 00
        E 60 90 37 60
        E 0 90 60 60
        E 360 80 67 00
        E 0 80 37 00
        E 0 80 60 00
        <X 480 0
          /wFbcGxheV0=
        >
        E 120 90 34 60
        E 0 90 60 60
        E 60 80 60 00
        E 60 90 61 60
        E 60 80 61 00
        E 60 90 64 60
        E 720 80 34 00
        E 0 80 64 00
        E 120 90 2b 60
        E 0 90 60 60
        E 0 90 74 60
        E 40 80 60 00
        E 80 90 61 60
        E 40 80 61 00
        E 80 90 62 60
        E 40 80 62 00
        E 80 90 61 60
        E 40 80 61 00
        E 80 90 63 60
        E 40 80 63 00
        E 80 90 62 60
        E 40 80 62 00
        E 80 90 61 60
        E 40 80 61 00
        E 20 80 2b 00
        E 60 90 31 60
        E 0 90 63 60
        E 60 80 63 00
        E 0 90 64 60
        E 0 90 65 60
        E 60 80 64 00
        E 0 80 65 00
        E 60 80 31 00
        E 60 90 2b 60
        E 0 90 63 60
        E 60 80 63 00
        E 60 90 62 60
        E 60 80 62 00
        E 60 90 61 60
        E 40 80 61 00
        E 80 90 62 60
        E 40 80 62 00
        E 80 90 61 60
        E 40 80 61 00
        E 80 90 60 60
        E 60 80 74 00
        E 1020 80 2b 00
        E 0 80 60 00
        <X 120 0
          /wFbaWRsZV0=
        >
        <X 3840 0
          /wFbcGxheV0=
        >
        E 0 90 2b 60
        E 0 90 60 60
        E 40 80 60 00
        E 80 90 61 60
        E 40 80 61 00
        E 80 90 62 60
        E 40 80 62 00
        E 80 90 61 60
        E 60 80 61 00
        E 60 90 62 60
        E 40 80 62 00
        E 80 90 63 60
        E 60 80 63 00
        E 60 90 64 60
        E 60 80 64 00
        E 60 90 63 60
        E 60 80 63 00
        E 120 80 2b 00
        E 60 90 2d 60
        E 0 90 62 60
        E 60 80 62 00
        E 0 90 63 60
        E 60 80 63 00
        E 0 90 62 60
        E 60 80 2d 00
        E 0 80 62 00
        E 60 90 2b 60
        E 0 90 63 60
        E 60 80 63 00
        E 60 90 62 60
        E 60 80 62 00
        E 60 90 61 60
        E 60 80 61 00
        E 60 90 60 60
        E 420 80 60 00
        E 60 90 60 60
        E 40 80 60 00
        E 20 80 2b 00
        E 20 90 61 60
        E 40 80 61 00
        E 40 90 62 60
        E 40 80 62 00
        E 40 90 61 60
        E 40 80 61 00
        E 40 90 62 60
        E 40 80 62 00
        E 40 90 63 60
        E 40 80 63 00
        E 40 90 62 60
        E 40 80 62 00
        E 40 90 63 60
        E 40 80 63 00
        E 40 90 64 60
        E 40 80 64 00
        E 40 90 60 60
        E 40 80 60 00
        E 40 90 61 60
        E 40 80 61 00
        E 40 90 62 60
        E 40 80 62 00
        E 40 90 61 60
        E 40 80 61 00
        E 40 90 62 60
        E 40 80 62 00
        E 40 90 63 60
        E 40 80 63 00
        E 40 90 31 60
        E 0 90 64 60
        E 0 90 7e 60
        E 40 80 64 00
        E 40 90 64 60
        E 40 80 64 00
        E 40 90 64 60
        E 40 80 64 00
        E 40 90 64 60
        E 40 80 64 00
        E 40 90 64 60
        E 40 80 64 00
        E 40 90 64 60
        E 40 80 64 00
        E 40 90 64 60
        E 40 80 64 00
        E 40 90 64 60
        E 40 80 64 00
        E 40 90 64 60
        E 40 80 64 00
        E 40 90 64 60
        E 40 80 64 00
        E 40 90 64 60
        E 40 80 64 00
        E 40 90 64 60
        E 40 80 64 00
        E 40 90 64 60
        E 12 80 7e 00
        E 408 80 31 00
        E 0 80 64 00
        E 60 90 3b 60
        E 0 90 63 60
        E 60 80 63 00
        E 60 90 62 60
        E 60 80 62 00
        E 60 90 63 60
        E 660 80 63 00
        E 60 90 61 60
        E 60 80 61 00
        E 60 90 63 60
        E 60 80 63 00
        E 60 90 62 60
        E 300 80 62 00
        E 60 90 60 60
        E 1080 80 3b 00
        E 0 80 60 00
        E 960 90 2d 60
        E 0 90 62 60
        E 60 80 62 00
        E 300 90 61 60
        E 60 80 61 00
        E 300 90 60 60
        E 1200 80 2d 00
        E 0 80 60 00
        E 1440 90 32 60
        E 0 90 64 60
        E 60 80 64 00
        E 300 90 63 60
        E 60 80 63 00
        E 300 90 62 60
        <X 959 0
          /wFbaWRsZV9yZWFsdGltZV0=
        >
        E 0 80 32 00
        E 0 80 62 00
        E 3361 b0 7b 00
        GUID {1DF93771-762E-48FE-8078-C8842D7926CA}
        IGNTEMPO 0 120.00000000 4 4
        SRCCOLOR 357
        VELLANE 132 128 60
        COLORMAP "C:\Program Files\REAPER (x64)\Data\color_maps\rockband_guitarbass.png"
        CFGEDITVIEW -5678.788958 12.340659 0 12 0 0 0
        CFGEDIT 1 1 0 1 1 0 1 1 1 1 1 0.12500000 -8 -8 1370 736 0 2 1 1 0.00000000 0 1 0 0 0.500000 0 0 1.000000 64
        KEYSNAP 0 3 "102034050607" 0 "Major"
        EVTFILTER 0 -1 -1 -1 -1 0 1 0 0 -1.00000000 -1.00000000
      >
    >
  >
  <TRACK '{F3D6ABDF-3E01-47F4-B6D3-18E1B30067C2}'
    NAME "guitar"
    PEAKCOL 16576
    BEAT -1
    AUTOMODE 0
    VOLPAN 1.00000000000000 0.00000000000000 -1.00000000000000 -1.00000000000000 1.00000000000000
    MUTESOLO 0 0 0
    IPHASE 0
    ISBUS 2 -1
    BUSCOMP 0 0
    SHOWINMIX 1 0.666700 0.500000 1 0.500000 -1 -1 -1
    FREEMODE 0
    SEL 0
    REC 0 0 0 0 0 0 0
    VU 2
    TRACKHEIGHT 0 0
    INQ 0 0 0 0.5000000000 100 0 0 100
    NCHAN 2
    FX 1
    TRACKID {F3D6ABDF-3E01-47F4-B6D3-18E1B30067C2}
    PERF 0
    MIDIOUT -1
    MAINSEND 1 0
    <ITEM
      POSITION 0.00000000000000
      SNAPOFFS 0.00000000000000
      LENGTH 91.00000000000000
      LOOP 0
      ALLTAKES 0
      SEL 0
      FADEIN 1 0.000000 0.000000 1 0
      FADEOUT 1 0.000000 0.000000 1 0
      MUTE 0
      IGUID {1AD75D53-477E-4CB8-B768-16AC0322A06C}
      IID 53
      NAME "guitar.wav"
      VOLPAN 1.000000 0.000000 1.000000 -1.000000
      SOFFS 0.00000000000000
      PLAYRATE 1.00000000000000 1 0.00000000000000 -1
      CHANMODE 0
      GUID {A4EAA1C6-D9E6-459B-B9C1-D0E7331151A6}
      <SOURCE WAVE
        FILE "wav\guitar.wav"
      >
    >
  >
  <TRACK '{66E4CFFF-A125-43BD-8433-6FFA654AA1FE}'
    NAME "PART REAL_GUITAR"
    PEAKCOL 16576
    BEAT -1
    AUTOMODE 0
    VOLPAN 1.00000000000000 0.00000000000000 -1.00000000000000 -1.00000000000000 1.00000000000000
    MUTESOLO 0 0 0
    IPHASE 0
    ISBUS 0 0
    BUSCOMP 0 0
    SHOWINMIX 1 0.666700 0.500000 1 0.500000 -1 -1 -1
    FREEMODE 0
    SEL 1
    REC 0 0 0 0 0 0 0
    VU 2
    TRACKHEIGHT 0 0
    INQ 0 0 0 0.5000000000 100 0 0 100
    NCHAN 2
    FX 1
    TRACKID {66E4CFFF-A125-43BD-8433-6FFA654AA1FE}
    PERF 0
    MIDIOUT -1
    <MIDINOTENAMES
      0 127 "Trill Marker"
      0 126 "Tremolo Marker"
      0 125 "BRE"
      0 124 "BRE"
      0 123 "BRE"
      0 122 "BRE"
      0 121 "BRE"
      0 120 "BRE (use all 6)"
      0 119 "-----------"
      0 116 "OVERDRIVE"
      0 115 "Solo Marker"
      0 109 "-----------"
      0 108 "Fret Hand Position"
      0 107 "Force Chord Numbering"
      0 106 "Loose Strumming"
      0 105 "Strum Direction"
      0 104 "Arpeggio Marker"
      0 103 "Slide Marker"
      0 102 "Force HOPO"
      0 101 "EXPERT e String"
      0 100 "EXPERT B String"
      0 99 "EXPERT G String"
      0 98 "EXPERT D String"
      0 97 "EXPERT A String"
      0 96 "EXPERT E String"
      0 95 "-----------"
      0 82 "Loose Strumming"
      0 81 "Strum Direction"
      0 80 "Arpeggio Marker"
      0 79 "Slide Marker"
      0 78 "Force HOPO"
      0 77 "HARD e String"
      0 76 "HARD B String"
      0 75 "HARD G String"
      0 74 "HARD D String"
      0 73 "HARD A String"
      0 72 "HARD E String"
      0 71 "-----------"
      0 58 "Loose Strumming"
      0 56 "Arpeggio Marker"
      0 55 "Slide Marker"
      0 53 "MEDIUM e String"
      0 52 "MEDIUM B String"
      0 51 "MEDIUM G String"
      0 50 "MEDIUM D String"
      0 49 "MEDIUM A String"
      0 48 "MEDIUM E String"
      0 47 "-----------"
      0 32 "Arpeggio Marker"
      0 31 "Slide Marker"
      0 29 "EASY e String"
      0 28 "EASY B String"
      0 27 "EASY G String"
      0 26 "EASY D String"
      0 25 "EASY A String"
      0 24 "EASY E String"
      0 21 "-----------"
      0 18 "Flat/Sharp Swap"
      0 17 "Hide Chord Names"
      0 16 "Slash Chord"
      0 15 "D#"
      0 14 "D"
      0 13 "C#"
      0 12 "C"
      0 11 "B"
      0 10 "A#"
      0 9 "A"
      0 8 "G#"
      0 7 "G"
      0 6 "F#"
      0 5 "F"
      0 4 "E"
    >
    MAINSEND 1 0
    <FXCHAIN
      WNDRECT 0 43 695 467
      SHOW 0
      LASTSEL 2
      DOCKED 0
      BYPASS 0 0
      <JS "c3/progtr" ""
        0.000000 3.000000 0.000000 0.000000 0.000000 0.000000 0.000000 0.000000 0.000000 1.000000 - - - - - - - - - - - - - - - - - - - - - - - - - - - - - - - - - - - - - - - - - - - - - - - - - - - - - - 
      >
      FLOATPOS 0 0 0 0
      FXID {23D7C9BC-32FC-436B-9138-DADF360EAD89}
      WAK 0
      BYPASS 0 0
      <JS "MIDI/midi_transpose" ""
        -4.000000 1.000000 0.000000 127.000000 - - - - - - - - - - - - - - - - - - - - - - - - - - - - - - - - - - - - - - - - - - - - - - - - - - - - - - - - - - - - 
      >
      FLOATPOS 0 0 0 0
      FXID {EA512C16-38BC-4BA9-8C41-00F4A809832F}
      WAK 0
      BYPASS 0 0
      <VST "VSTi: ReaSynth (Cockos)" "reasynth.dll" 0 ""
        eXNlcu9e7f4AAAAAAgAAAAEAAAAAAAAAAgAAAAAAAAA4AAAAAAAAAA==
        AAAQAO++rd4N8K3eppvEOwxLUj2HFlk/AAAAAAAAAADMm4A+4jAEPA==
        AAAAAAAAAD+01hM+j8L1PQAAAD8AABAAAAA=
      >
      FLOATPOS 0 0 0 0
      FXID {05966806-18B6-4FDA-9324-3EB2A5213E73}
      WAK 0
    >
    <ITEM
      POSITION 0.00000000000000
      SNAPOFFS 0.00000000000000
      LENGTH 87.50000000000000
      LOOP 0
      ALLTAKES 0
      SEL 1
      FADEIN 1 0.000000 0.000000 1 0
      FADEOUT 1 0.000000 0.000000 1 0
      MUTE 0
      IGUID {94EABEBB-781D-42FA-AE98-B8FD1CCAE8D6}
      IID 5
      NAME "PART REAL_GUITAR - flourish.mid"
      VOLPAN 1.000000 0.000000 1.000000 -1.000000
      SOFFS 0.00000000000000 0.00000000000000
      PLAYRATE 1.00000000000000 1 0.00000000000000 -1
      CHANMODE 0
      GUID {8453EB84-F3F4-43DE-99BA-069DC7C4A2EF}
      <SOURCE MIDI
        HASDATA 1 480 QN
        POOLEDEVTS {417A377B-B377-4A31-88CE-B20DAA85502E}
        <X 0 0
          /wNQQVJUIFJFQUxfR1VJVEFS
        >
        <X 3360 0
          /wFbYmVnaW5fcGcgc29uZ190cmFpbmVyX3BnXzFd
        >
        E 0 90 63 66
        E 0 90 6c 66
        E 0 90 74 64
        E 40 80 63 00
        E 0 80 6c 00
        E 80 90 63 68
        E 40 80 63 00
        E 80 90 64 67
        E 40 80 64 00
        E 80 90 63 68
        E 40 80 63 00
        <X 80 0
          /wFbcGdfbm9ybSBzb25nX3RyYWluZXJfcGdfMV0=
        >
        E 0 90 64 69
        E 40 80 64 00
        E 80 90 64 67
        E 40 80 64 00
        E 80 90 63 68
        E 40 80 63 00
        E 80 90 64 69
        E 0 90 6c 68
        E 60 80 64 00
        E 0 80 6c 00
        E 0 90 64 6b
        E 0 90 66 64
        E 60 80 64 00
        E 0 80 66 00
        E 120 90 64 69
        E 0 90 6c 66
        E 60 80 64 00
        E 0 80 6c 00
        E 60 90 64 67
        E 60 80 64 00
        E 60 90 63 68
        E 40 80 63 00
        E 80 90 63 66
        E 40 80 63 00
        E 80 90 62 66
        E 40 80 62 00
        E 80 90 62 64
        E 60 80 74 00
        E 1020 80 62 00
        <X 600 0
          /wFbZW5kX3BnIHNvbmdfdHJhaW5lcl9wZ18xXQ==
        >
        <X 3360 0
          /wFbYmVnaW5fcGcgc29uZ190cmFpbmVyX3BnXzJd
        >
        E 0 90 63 66
        E 40 80 63 00
        E 80 90 63 68
        E 40 80 63 00
        E 80 90 64 67
        E 40 80 64 00
        E 80 90 64 66
        E 60 80 64 00
        E 60 90 64 69
        E 40 80 64 00
        E 80 90 65 66
        E 60 80 65 00
        E 60 90 65 69
        E 60 80 65 00
        E 60 90 65 66
        E 60 80 65 00
        E 180 90 64 67
        E 60 80 64 00
        E 0 90 64 69
        E 0 90 66 64
        E 60 80 64 00
        E 0 80 66 00
        E 120 90 63 68
        E 60 80 63 00
        E 60 90 63 66
        E 60 80 63 00
        E 60 90 62 64
        E 60 80 62 00
        E 60 90 60 67
        E 420 80 60 00
        <X 60 0
          /wFbZW5kX3BnIHNvbmdfdHJhaW5lcl9wZ18yXQ==
        >
        <X 0 0
          /wFbYmVnaW5fcGcgc29uZ190cmFpbmVyX3BnXzNd
        >
        E 0 90 62 72
        E 0 90 74 64
        E 40 80 62 00
        E 40 90 62 74
        E 40 80 62 00
        E 40 90 62 72
        E 40 80 62 00
        E 40 90 62 73
        E 40 80 62 00
        E 40 90 62 74
        E 40 80 62 00
        E 40 90 62 72
        E 40 80 62 00
        E 40 90 62 74
        E 40 80 62 00
        E 40 90 63 70
        E 40 80 63 00
        E 40 90 63 72
        E 40 80 63 00
        E 40 90 63 74
        E 40 80 63 00
        E 40 90 64 72
        E 40 80 64 00
        E 40 90 64 73
        E 40 80 64 00
        E 40 90 64 75
        E 40 80 64 00
        E 40 90 65 72
        E 40 80 65 00
        E 40 90 65 73
        E 40 80 65 00
        E 40 90 65 75
        E 0 90 6c 75
        E 0 90 7e 64
        E 40 80 65 00
        E 0 80 6c 00
        E 40 90 65 75
        E 40 80 65 00
        E 40 90 65 75
        E 40 80 65 00
        E 40 90 65 75
        E 40 80 65 00
        E 40 90 65 75
        E 40 80 65 00
        E 40 90 65 75
        E 40 80 65 00
        E 40 90 65 75
        E 40 80 65 00
        E 40 90 65 75
        E 40 80 65 00
        E 40 90 65 75
        E 40 80 65 00
        E 40 90 65 75
        E 40 80 65 00
        E 40 90 65 75
        E 40 80 65 00
        E 40 90 65 75
        E 40 80 65 00
        E 40 90 65 75
        E 12 80 7e 00
        E 48 80 74 00
        E 360 80 65 00
        E 60 90 65 73
        E 0 90 6c 70
        E 60 80 65 00
        E 0 80 6c 00
        E 60 90 65 72
        E 60 80 65 00
        E 60 90 65 73
        E 660 80 65 00
        E 60 90 65 70
        E 60 80 65 00
        E 60 90 65 73
        E 60 80 65 00
        E 60 90 65 72
        E 240 80 65 00
        E 120 90 64 70
        <X 1080 0
          /wFbZW5kX3BnIHNvbmdfdHJhaW5lcl9wZ18zXQ==
        >
        E 0 80 64 00
        E 960 90 63 6a
        E 0 90 6c 67
        E 60 80 63 00
        E 0 80 6c 00
        E 300 90 63 68
        E 60 80 63 00
        E 300 90 63 67
        E 1200 80 63 00
        <X 1440 0
          /wFbYmVnaW5fcGcgc29uZ190cmFpbmVyX3BnXzRd
        >
        E 0 90 62 6b
        E 0 90 6c 6b
        E 60 80 62 00
        E 0 80 6c 00
        E 60 90 62 6b
        E 60 80 62 00
        E 60 93 62 6b
        E 60 83 62 00
        E 60 90 62 6b
        E 60 80 62 00
        E 60 93 62 6b
        E 60 83 62 00
        E 60 90 62 6b
        E 60 80 62 00
        <X 60 0
          /wFbcGdfbm9ybSBzb25nX3RyYWluZXJfcGdfNF0=
        >
        E 0 90 62 6b
        E 60 80 62 00
        E 60 90 62 6b
        E 60 80 62 00
        E 60 93 62 6b
        E 60 83 62 00
        E 60 90 62 6b
        E 60 80 62 00
        E 60 90 62 6b
        E 60 80 62 00
        E 60 90 62 6c
        E 60 80 62 00
        E 60 90 62 6d
        E 60 80 62 00
        E 60 90 0a 64
        E 0 90 62 6b
        E 0 90 63 6b
        E 120 80 0a 00
        E 0 80 62 00
        E 0 80 63 00
        E 120 90 62 6b
        E 60 80 62 00
        E 60 90 62 6b
        E 60 80 62 00
        E 60 90 62 6b
        E 60 80 62 00
        E 60 93 62 6b
        E 60 83 62 00
        E 60 90 62 6b
        E 60 80 62 00
        E 60 93 62 6b
        E 60 83 62 00
        E 60 90 62 6b
        E 60 80 62 00
        E 60 90 62 6b
        E 60 80 62 00
        E 60 90 62 6b
        E 60 80 62 00
        E 60 93 62 6b
        E 60 83 62 00
        E 60 90 62 6b
        E 60 80 62 00
        E 60 90 62 6b
        E 60 80 62 00
        E 60 90 62 6c
        E 60 80 62 00
        E 60 90 62 6b
        E 60 80 62 00
        E 60 90 62 6b
        E 60 80 62 00
        E 60 93 62 6b
        E 60 83 62 00
        E 60 90 62 6b
        E 60 80 62 00
        E 60 93 62 6b
        E 60 83 62 00
        E 60 90 62 6b
        E 60 80 62 00
        E 60 90 62 6b
        E 60 80 62 00
        E 60 90 62 6b
        E 60 80 62 00
        E 60 93 62 6b
        E 60 83 62 00
        E 60 90 62 6b
        E 60 80 62 00
        E 60 90 62 6b
        E 60 80 62 00
        E 60 90 62 6c
        E 60 80 62 00
        E 60 90 62 6d
        E 60 80 62 00
        E 60 90 62 6b
        E 0 90 63 6b
        E 120 80 62 00
        E 0 80 63 00
        E 120 90 62 6d
        E 60 80 62 00
        E 60 90 62 6b
        E 60 80 62 00
        E 60 90 62 6d
        E 60 80 62 00
        E 60 90 63 6d
        E 60 80 63 00
        E 60 90 63 6b
        E 60 80 63 00
        E 60 90 62 6d
        E 0 90 6c 6d
        E 60 80 62 00
        E 0 80 6c 00
        E 60 90 63 6d
        E 60 80 63 00
        E 0 90 63 6f
        E 0 90 66 64
        E 60 80 63 00
        E 0 80 66 00
        E 120 90 63 6d
        E 0 90 6c 6b
        E 60 80 63 00
        E 0 80 6c 00
        E 60 90 63 6b
        E 60 80 63 00
        E 60 90 62 6d
        E 60 80 62 00
        E 60 90 62 6b
        E 60 80 62 00
        E 60 90 61 6b
        E 60 80 61 00
        <X 60 0
          /wFbZW5kX3BnIHNvbmdfdHJhaW5lcl9wZ180XQ==
        >
        <X 0 0
          /wFbYmVnaW5fcGcgc29uZ190cmFpbmVyX3BnXzVd
        >
        E 0 90 61 69
        E 0 90 6c 69
        E 0 90 74 64
        E 360 80 61 00
        E 0 80 6c 00
        E 120 90 61 6c
        <X 240 0
          /wFbcGdfbm9ybSBzb25nX3RyYWluZXJfcGdfNV0=
        >
        E 0 80 61 00
        E 120 90 62 6c
        E 360 80 62 00
        E 120 90 62 6a
        E 240 80 62 00
        E 120 80 74 00
        E 0 90 63 6d
        E 0 90 6c 6a
        E 60 80 63 00
        E 0 80 6c 00
        E 300 90 63 6b
        E 60 80 63 00
        E 300 90 63 6a
        E 840 80 63 00
        E 300 90 62 70
        E 0 90 67 64
        E 0 90 6c 70
        E 300 80 62 00
        E 0 80 67 00
        E 0 80 6c 00
        E 0 90 62 72
        E 0 90 66 64
        E 0 90 6c 72
        E 60 80 62 00
        E 0 80 66 00
        E 0 80 6c 00
        E 180 90 63 74
        E 60 80 63 00
        E 180 90 65 72
        E 2280 80 65 00
        <X 120 0
          /wFbZW5kX3BnIHNvbmdfdHJhaW5lcl9wZ181XQ==
        >
        <X 0 0
          /wFbYmVnaW5fcGcgc29uZ190cmFpbmVyX3BnXzZd
        >
        E 0 90 0a 64
        E 0 90 10 64
        E 0 90 64 69
        E 0 90 68 64
        E 0 90 6c 69
        E 0 90 73 64
        E 0 91 62 6b
        E 0 91 63 6b
        E 0 91 65 69
        E 60 80 0a 00
        E 0 80 10 00
        E 0 80 64 00
        E 0 80 6c 00
        E 0 81 62 00
        E 0 81 63 00
        E 0 81 65 00
        E 60 90 64 6b
        E 0 90 66 64
        E 60 80 64 00
        E 0 80 66 00
        <X 60 0
          /wFbcGdfbm9ybSBzb25nX3RyYWluZXJfcGdfNl0=
        >
        E 0 90 62 6b
        E 60 80 62 00
        E 60 90 65 69
        E 60 80 65 00
        E 180 90 64 69
        E 60 80 64 00
        E 180 90 64 6b
        E 60 80 64 00
        E 180 90 65 69
        E 60 80 65 00
        E 180 90 62 6b
        E 60 80 62 00
        E 60 90 65 69
        E 60 80 65 00
        E 180 90 62 6b
        E 60 80 62 00
        E 180 90 65 69
        E 60 80 65 00
        E 60 90 62 6b
        E 60 80 62 00
        E 60 90 64 69
        E 60 80 64 00
        E 60 90 64 6b
        E 0 90 66 64
        E 60 80 64 00
        E 0 80 66 00
        E 180 90 62 6b
        E 60 80 62 00
        E 180 90 63 6b
        E 60 80 63 00
        E 180 90 62 6b
        E 60 80 62 00
        E 60 90 65 69
        E 60 80 65 00
        <X 180 0
          /wFbZW5kX3BnIHNvbmdfdHJhaW5lcl9wZ182XQ==
        >
        E 0 90 62 6b
        E 60 80 62 00
        E 180 90 65 69
        E 60 80 65 00
        E 60 90 62 6b
        E 60 80 62 00
        E 60 90 64 69
        E 60 80 64 00
        E 60 90 64 6b
        E 0 90 66 64
        E 60 80 64 00
        E 0 80 66 00
        E 180 90 62 6b
        E 60 80 62 00
        E 180 90 63 6b
        E 60 80 63 00
        E 180 90 62 6b
        E 60 80 62 00
        E 60 90 65 69
        E 60 80 65 00
        E 180 90 62 6b
        E 60 80 62 00
        E 180 90 65 69
        E 60 80 65 00
        E 60 90 62 6b
        E 60 80 62 00
        E 60 90 64 69
        E 60 80 64 00
        E 60 90 64 6b
        E 0 90 66 64
        E 60 80 64 00
        E 0 80 66 00
        E 180 90 62 6b
        E 60 80 62 00
        E 180 90 63 6b
        E 60 80 63 00
        E 180 90 62 6b
        E 60 80 62 00
        E 60 90 65 69
        E 60 80 68 00
        E 0 80 65 00
        <X 180 0
          /wFbYmVnaW5fcGcgc29uZ190cmFpbmVyX3BnXzdd
        >
        E 0 90 64 64
        E 0 90 6c 66
        E 0 90 74 64
        E 60 80 64 00
        E 0 80 6c 00
        E 180 90 65 69
        E 60 80 65 00
        E 60 90 64 64
        E 60 80 64 00
        <X 60 0
          /wFbcGdfbm9ybSBzb25nX3RyYWluZXJfcGdfN10=
        >
        E 0 90 65 64
        E 60 80 65 00
        E 60 90 65 66
        E 0 90 66 64
        E 60 80 65 00
        E 0 80 66 00
        E 180 90 64 64
        E 60 80 64 00
        E 180 90 64 67
        E 60 80 64 00
        E 180 90 64 64
        E 60 80 64 00
        E 60 90 65 69
        E 60 80 65 00
        E 180 80 74 00
        E 0 90 64 64
        E 60 80 64 00
        E 180 90 65 69
        E 60 80 65 00
        E 60 90 64 64
        E 60 80 64 00
        E 60 90 65 64
        E 60 80 65 00
        E 60 90 65 66
        E 0 90 66 64
        E 60 80 65 00
        E 0 80 66 00
        E 180 90 64 64
        E 60 80 64 00
        E 180 90 64 67
        E 60 80 64 00
        E 180 90 64 64
        E 60 80 64 00
        E 60 90 65 69
        E 60 80 65 00
        <X 180 0
          /wFbZW5kX3BnIHNvbmdfdHJhaW5lcl9wZ183XQ==
        >
        E 0 90 64 64
        E 60 80 64 00
        E 180 90 65 69
        E 60 80 65 00
        E 60 90 64 64
        E 60 80 64 00
        E 60 90 65 64
        E 60 80 65 00
        E 60 90 65 66
        E 0 90 66 64
        E 60 80 65 00
        E 0 80 66 00
        E 180 90 64 64
        E 60 80 64 00
        E 180 90 64 67
        E 60 80 64 00
        E 180 90 64 64
        E 60 80 64 00
        E 60 90 65 69
        E 60 80 65 00
        E 180 90 64 64
        E 60 80 64 00
        E 180 90 65 69
        E 60 80 65 00
        E 60 90 64 64
        E 60 80 64 00
        E 60 90 65 64
        E 60 80 65 00
        E 60 90 65 66
        E 0 90 66 64
        E 60 80 65 00
        E 0 80 66 00
        E 180 90 64 64
        E 60 80 64 00
        E 180 90 64 67
        E 60 80 64 00
        E 180 90 64 64
        E 60 80 64 00
        E 60 90 65 69
        E 60 80 65 00
        <X 180 0
          /wFbYmVnaW5fcGcgc29uZ190cmFpbmVyX3BnXzhd
        >
        E 120 90 64 70
        E 0 90 6c 6f
        E 60 80 64 00
        E 0 80 6c 00
        <X 60 0
          /wFbcGdfbm9ybSBzb25nX3RyYWluZXJfcGdfOF0=
        >
        E 0 90 63 6f
        E 60 80 63 00
        E 60 90 65 70
        E 60 80 65 00
        E 180 90 64 70
        E 60 80 64 00
        E 180 90 63 71
        E 60 80 63 00
        E 180 90 64 70
        E 60 80 64 00
        E 180 90 63 6d
        E 0 90 6c 6d
        E 60 80 63 00
        E 0 80 6c 00
        E 60 90 65 70
        E 60 80 65 00
        E 180 90 63 71
        E 0 90 6c 6f
        E 60 80 63 00
        E 0 80 6c 00
        E 60 90 64 70
        E 60 80 64 00
        E 60 90 63 6f
        E 60 80 63 00
        E 60 90 65 70
        E 60 80 65 00
        E 180 90 64 70
        E 60 80 64 00
        E 180 90 63 71
        E 60 80 63 00
        E 180 90 64 70
        E 60 80 64 00
        E 180 90 63 6d
        E 0 90 6c 6d
        E 60 80 63 00
        E 0 80 6c 00
        E 60 90 65 70
        E 60 80 65 00
        <X 180 0
          /wFbZW5kX3BnIHNvbmdfdHJhaW5lcl9wZ184XQ==
        >
        E 0 90 63 71
        E 0 90 6c 6f
        E 60 80 63 00
        E 0 80 6c 00
        E 60 90 64 70
        E 60 80 64 00
        E 60 90 63 6f
        E 60 80 63 00
        E 60 90 65 70
        E 60 80 65 00
        E 180 90 64 70
        E 60 80 64 00
        E 180 90 63 71
        E 60 80 63 00
        E 180 90 64 70
        E 60 80 64 00
        E 180 90 63 6d
        E 0 90 6c 6d
        E 60 80 63 00
        E 0 80 6c 00
        E 60 90 65 70
        E 60 80 65 00
        E 180 90 63 71
        E 0 90 6c 6f
        E 0 90 74 64
        E 60 80 63 00
        E 0 80 6c 00
        E 60 90 64 70
        E 60 80 64 00
        E 60 90 63 6f
        E 60 80 63 00
        E 60 90 65 70
        E 60 80 65 00
        E 180 90 64 70
        E 60 80 64 00
        E 180 90 63 71
        E 60 80 63 00
        E 180 90 64 70
        E 60 80 64 00
        E 180 90 63 6d
        E 0 90 6c 6d
        E 60 80 63 00
        E 0 80 6c 00
        E 60 90 65 70
        E 60 80 65 00
        <X 180 0
          /wFbYmVnaW5fcGcgc29uZ190cmFpbmVyX3BnXzld
        >
        E 0 80 74 00
        E 0 90 64 6e
        E 0 90 6c 6e
        E 60 80 64 00
        E 0 80 6c 00
        E 60 90 64 70
        E 0 90 66 64
        E 60 80 64 00
        E 0 80 66 00
        <X 60 0
          /wFbcGdfbm9ybSBzb25nX3RyYWluZXJfcGdfOV0=
        >
        E 0 90 63 71
        E 60 80 63 00
        E 60 90 65 70
        E 60 80 65 00
        E 180 90 64 70
        E 60 80 64 00
        E 180 90 63 6f
        E 60 80 63 00
        E 180 90 64 70
        E 60 80 64 00
        E 180 90 63 6d
        E 0 90 6c 6d
        E 60 80 63 00
        E 0 80 6c 00
        E 60 90 65 70
        E 60 80 65 00
        E 180 90 64 6e
        E 0 90 6c 6e
        E 60 80 64 00
        E 0 80 6c 00
        E 60 90 64 70
        E 0 90 66 64
        E 60 80 64 00
        E 0 80 66 00
        E 60 90 63 71
        E 60 80 63 00
        E 60 90 65 70
        E 60 80 65 00
        E 180 90 64 70
        E 60 80 64 00
        E 180 90 63 6f
        E 60 80 63 00
        E 180 90 64 70
        E 60 80 64 00
        E 180 90 63 6d
        E 0 90 6c 6d
        E 60 80 63 00
        E 0 80 6c 00
        E 60 90 65 70
        E 60 80 65 00
        <X 180 0
          /wFbZW5kX3BnIHNvbmdfdHJhaW5lcl9wZ185XQ==
        >
        E 0 90 64 6e
        E 0 90 6c 6e
        E 60 80 64 00
        E 0 80 6c 00
        E 60 90 64 70
        E 0 90 66 64
        E 60 80 64 00
        E 0 80 66 00
        E 60 90 63 71
        E 60 80 63 00
        E 60 90 65 70
        E 60 80 65 00
        E 180 90 64 70
        E 60 80 64 00
        E 180 90 63 6f
        E 60 80 63 00
        E 180 90 64 70
        E 60 80 64 00
        E 180 90 63 6d
        E 0 90 6c 6d
        E 60 80 63 00
        E 0 80 6c 00
        E 60 90 65 70
        E 60 80 65 00
        <X 180 0
          /wFbYmVnaW5fcGcgc29uZ190cmFpbmVyX3BnXzEwXQ==
        >
        E 0 90 64 6e
        E 0 90 6c 6e
        E 60 80 64 00
        E 0 80 6c 00
        E 60 90 64 70
        E 0 90 66 64
        E 60 80 64 00
        E 0 80 66 00
        <X 60 0
          /wFbcGdfbm9ybSBzb25nX3RyYWluZXJfcGdfMTBd
        >
        E 0 90 63 70
        E 60 80 63 00
        E 60 90 65 70
        E 60 80 65 00
        E 180 90 64 70
        E 60 80 64 00
        E 180 90 63 6e
        E 60 80 63 00
        E 180 90 64 70
        E 60 80 64 00
        E 180 90 63 6d
        E 0 90 6c 6d
        E 60 80 6c 00
        E 300 80 73 00
        E 0 80 63 00
        <X 600 0
          /wFbY2hyZDMgQzY8Z3RyPnN1czI8L2d0cj5d
        >
        E 0 90 0c 64
        E 0 90 63 6d
        E 0 90 68 64
        E 0 90 6c 6b
        E 0 91 64 6b
        E 0 91 65 6d
        E 60 80 0c 00
        E 0 80 63 00
        E 0 80 6c 00
        E 0 81 64 00
        E 0 81 65 00
        E 60 90 64 6b
        E 60 80 64 00
        E 60 90 65 6d
        E 720 80 68 00
        E 0 80 65 00
        <X 120 0
          /wFbZW5kX3BnIHNvbmdfdHJhaW5lcl9wZ18xMF0=
        >
        E 0 90 63 66
        E 0 90 6c 66
        E 0 90 74 64
        E 40 80 63 00
        E 20 80 6c 00
        E 60 90 63 68
        E 40 80 63 00
        E 80 90 64 67
        E 40 80 64 00
        E 80 90 63 68
        E 40 80 63 00
        E 80 90 64 69
        E 40 80 64 00
        E 80 90 64 67
        E 40 80 64 00
        E 80 90 63 68
        E 40 80 63 00
        E 80 90 64 69
        E 0 90 6c 69
        E 60 80 64 00
        E 0 80 6c 00
        E 0 90 64 6b
        E 0 90 66 64
        E 60 80 64 00
        E 0 80 66 00
        E 120 90 64 69
        E 0 90 6c 66
        E 60 80 64 00
        E 0 80 6c 00
        E 60 90 64 67
        E 60 80 64 00
        E 60 90 63 68
        E 40 80 63 00
        E 80 90 63 66
        E 40 80 63 00
        E 80 90 62 66
        E 40 80 62 00
        E 80 90 62 64
        E 60 80 74 00
        E 1020 80 62 00
        E 3960 90 63 66
        E 40 80 63 00
        E 80 90 63 68
        E 40 80 63 00
        E 80 90 64 67
        E 40 80 64 00
        E 80 90 64 66
        E 60 80 64 00
        E 60 90 64 69
        E 40 80 64 00
        E 80 90 65 66
        E 60 80 65 00
        E 60 90 65 69
        E 60 80 65 00
        E 60 90 65 66
        E 60 80 65 00
        E 180 90 64 67
        E 0 90 6c 67
        E 60 80 64 00
        E 0 80 6c 00
        E 0 90 64 69
        E 0 90 66 64
        E 60 80 64 00
        E 0 80 66 00
        E 120 90 63 68
        E 0 90 6c 66
        E 60 80 63 00
        E 0 80 6c 00
        E 60 90 63 66
        E 60 80 63 00
        E 60 90 62 64
        E 60 80 62 00
        E 60 90 60 67
        E 420 80 60 00
        E 60 93 65 64
        E 40 83 65 00
        E 40 93 65 66
        E 40 83 65 00
        E 40 93 65 64
        E 40 83 65 00
        E 40 93 65 66
        E 40 83 65 00
        E 40 93 65 67
        E 40 83 65 00
        E 40 93 65 64
        E 40 83 65 00
        E 40 93 65 66
        E 40 83 65 00
        E 40 93 65 67
        E 40 83 65 00
        E 40 93 65 69
        E 40 83 65 00
        E 40 93 65 6b
        E 40 83 65 00
        E 40 93 65 6d
        E 40 83 65 00
        E 40 93 65 6e
        E 40 83 65 00
        E 40 93 65 70
        E 40 83 65 00
        E 40 93 65 72
        E 40 83 65 00
        E 40 93 65 73
        E 40 83 65 00
        E 40 90 65 75
        E 0 90 6c 75
        E 0 90 7e 64
        E 40 80 65 00
        E 0 80 6c 00
        E 40 90 65 75
        E 40 80 65 00
        E 40 90 65 75
        E 40 80 65 00
        E 40 90 65 75
        E 40 80 65 00
        E 40 90 65 75
        E 40 80 65 00
        E 40 90 65 75
        E 40 80 65 00
        E 40 90 65 75
        E 40 80 65 00
        E 40 90 65 75
        E 40 80 65 00
        E 40 90 65 75
        E 40 80 65 00
        E 40 90 65 75
        E 40 80 65 00
        E 40 90 65 75
        E 40 80 65 00
        E 40 90 65 75
        E 40 80 65 00
        E 40 90 65 75
        E 12 80 7e 00
        E 408 80 65 00
        E 60 90 65 73
        E 0 90 6c 70
        E 60 80 65 00
        E 0 80 6c 00
        E 60 90 65 72
        E 60 80 65 00
        E 60 90 65 73
        E 660 80 65 00
        E 60 90 65 70
        E 60 80 65 00
        E 60 90 65 73
        E 60 80 65 00
        E 60 90 65 72
        E 240 80 65 00
        E 120 90 64 70
        E 1080 80 64 00
        <X 960 0
          /wFbYmVnaW5fcGcgc29uZ190cmFpbmVyX3BnXzExXQ==
        >
        E 0 90 63 6a
        E 0 90 6c 67
        E 60 80 63 00
        E 0 80 6c 00
        E 300 90 63 68
        E 60 80 63 00
        <X 60 0
          /wFbcGdfbm9ybSBzb25nX3RyYWluZXJfcGdfMTFd
        >
        E 240 90 63 67
        E 1200 80 63 00
        E 1440 90 63 6d
        E 0 90 6c 6a
        E 60 80 63 00
        E 0 80 6c 00
        E 300 90 63 6b
        E 60 80 63 00
        E 300 90 63 6a
        <X 959 0
          /wFbZW5kX3BnIHNvbmdfdHJhaW5lcl9wZ18xMV0=
        >
        E 0 80 63 00
        E 1 b0 7b 00
        GUID {890DF0A3-1539-41C3-9648-AAFBCF434468}
        IGNTEMPO 0 120.00000000 4 4
        SRCCOLOR 358
        VELLANE 132 128 60
        COLORMAP "C:\Program Files\REAPER (x64)\Data\color_maps\rockband_guitarbass.png"
        CFGEDITVIEW 10765.032306 267.622049 0 12 0 0 0
        CFGEDIT 1 1 0 1 1 0 1 1 1 1 1 0.12500000 -8 -8 1370 736 0 2 1 1 0.00000000 0 1 0 0 0.500000 0 0 1.000000 64
        KEYSNAP 0 3 "102034050607" 0 "Major"
        EVTFILTER 0 -1 -1 -1 -1 0 1 0 0 -1.00000000 -1.00000000
      >
    >
  >
  <TRACK '{D2D3DEFC-7C96-4C8E-9C11-DDD6E40A1D8F}'
    NAME "PART REAL_BASS"
    PEAKCOL 16576
    BEAT -1
    AUTOMODE 0
    VOLPAN 1.00000000000000 0.00000000000000 -1.00000000000000 -1.00000000000000 1.00000000000000
    MUTESOLO 0 0 0
    IPHASE 0
    ISBUS 0 0
    BUSCOMP 0 0
    SHOWINMIX 1 0.666700 0.500000 1 0.500000 -1 -1 -1
    FREEMODE 0
    SEL 0
    REC 0 0 0 0 0 0 0
    VU 2
    TRACKHEIGHT 0 0
    INQ 0 0 0 0.5000000000 100 0 0 100
    NCHAN 2
    FX 0
    TRACKID {D2D3DEFC-7C96-4C8E-9C11-DDD6E40A1D8F}
    PERF 0
    MIDIOUT -1
    MAINSEND 1 0
    <FXCHAIN
      WNDRECT 0 43 695 467
      SHOW 0
      LASTSEL 2
      DOCKED 0
      BYPASS 0 0
      <JS "c3/progtr" ""
        0.000000 3.000000 0.000000 0.000000 0.000000 0.000000 0.000000 0.000000 0.000000 1.000000 - - - - - - - - - - - - - - - - - - - - - - - - - - - - - - - - - - - - - - - - - - - - - - - - - - - - - - 
      >
      FLOATPOS 0 0 0 0
      FXID {CB8532F3-BD2A-497A-974D-B66CBC060E3E}
      WAK 0
      BYPASS 0 0
      <JS "MIDI/midi_transpose" ""
        -4.000000 1.000000 0.000000 127.000000 - - - - - - - - - - - - - - - - - - - - - - - - - - - - - - - - - - - - - - - - - - - - - - - - - - - - - - - - - - - - 
      >
      FLOATPOS 0 0 0 0
      FXID {C85808C7-DE8B-4C21-8A41-94D148491419}
      WAK 0
      BYPASS 0 0
      <VST "VSTi: ReaSynth (Cockos)" "reasynth.dll" 0 ""
        eXNlcu9e7f4AAAAAAgAAAAEAAAAAAAAAAgAAAAAAAAA4AAAAAAAAAA==
        AAAQAO++rd4N8K3eppvEO+gJMjyHFlk/AAAAAAAAAADMm4A+4jAEPA==
        AAAAAAAAAD+01hM+j8L1PQAAAD8AABAAAAA=
      >
      FLOATPOS 0 0 0 0
      FXID {2A6B5110-91E4-4F49-BC7D-FB10AE436889}
      WAK 0
    >
    <ITEM
      POSITION 0.00000000000000
      SNAPOFFS 0.00000000000000
      LENGTH 91.00000000000000
      LOOP 0
      ALLTAKES 0
      SEL 0
      FADEIN 1 0.000000 0.000000 1 0
      FADEOUT 1 0.000000 0.000000 1 0
      MUTE 0
      IGUID {9855641B-4109-4F0D-9B3A-2DEDD5979D30}
      IID 3
      NAME "PART REAL_BASS"
      VOLPAN 1.000000 0.000000 1.000000 -1.000000
      SOFFS 0.00000000000000 0.00000000000000
      PLAYRATE 1.00000000000000 1 0.00000000000000 -1
      CHANMODE 0
      GUID {1057BBBA-018C-49AC-972A-29BC8FB4F311}
      <SOURCE MIDI
        HASDATA 1 480 QN
        POOLEDEVTS {5DC063CB-C6CE-4FE3-934A-FC8CAE5EC5BE}
        <X 0 0
          /wNQQVJUIFJFQUxfQkFTUw==
        >
        <X 3360 0
          /wFbYmVnaW5fcGIgc29uZ190cmFpbmVyX3BiXzFd
        >
        E 0 90 63 66
        E 0 90 6c 66
        E 0 90 74 64
        E 60 80 63 00
        E 0 80 6c 00
        E 60 90 63 68
        E 60 80 63 00
        E 60 90 64 67
        E 60 80 64 00
        E 60 90 63 68
        E 60 80 63 00
        E 60 90 64 69
        E 60 80 64 00
        E 60 90 64 67
        E 60 80 64 00
        E 60 90 63 68
        E 60 80 63 00
        E 60 90 64 69
        E 0 90 6c 69
        E 60 80 64 00
        E 0 80 6c 00
        E 0 90 64 6b
        E 0 90 66 64
        E 60 80 64 00
        E 0 80 66 00
        E 120 90 64 69
        E 0 90 6c 67
        E 60 80 64 00
        E 0 80 6c 00
        E 60 90 64 67
        E 60 80 64 00
        E 60 90 63 68
        E 0 90 6c 66
        E 60 80 63 00
        E 0 80 6c 00
        E 60 90 63 66
        E 60 80 63 00
        E 60 90 62 66
        E 60 80 62 00
        E 60 90 62 64
        E 60 80 74 00
        <X 900 0
          /wFbZW5kX3BiIHNvbmdfdHJhaW5lcl9wYl8xXQ==
        >
        E 0 80 62 00
        E 120 90 6c 70
        E 0 92 64 72
        E 60 80 6c 00
        E 780 82 64 00
        E 120 92 62 72
        E 120 82 62 00
        E 120 92 62 72
        E 600 82 62 00
        E 120 90 62 70
        E 60 80 62 00
        E 60 92 61 70
        E 1200 82 61 00
        E 120 90 67 64
        E 0 90 6c 6b
        E 0 92 61 6b
        E 60 80 67 00
        E 0 80 6c 00
        E 0 82 61 00
        E 60 90 61 6d
        E 0 90 66 64
        E 40 80 61 00
        E 0 80 66 00
        E 80 90 61 72
        E 0 90 6c 6f
        E 60 80 61 00
        E 0 80 6c 00
        E 60 90 62 6f
        E 60 80 62 00
        E 60 90 62 70
        E 60 80 62 00
        <X 60 0
          /wFbYmVnaW5fcGIgc29uZ190cmFpbmVyX3BiXzJd
        >
        E 0 90 62 72
        E 60 80 62 00
        E 60 90 63 6f
        E 60 80 63 00
        E 60 90 63 72
        E 60 80 63 00
        E 60 90 61 6d
        E 0 90 6c 6b
        E 60 80 61 00
        E 0 80 6c 00
        E 60 90 63 6d
        E 60 80 63 00
        E 60 90 63 6b
        E 60 80 63 00
        E 60 90 62 6b
        E 60 80 62 00
        E 60 90 62 6d
        E 60 80 62 00
        E 180 90 62 6b
        E 60 80 62 00
        E 60 90 61 6d
        E 60 80 61 00
        E 60 90 61 6b
        E 60 80 61 00
        E 60 90 61 69
        E 0 90 6c 67
        E 60 80 61 00
        E 0 80 6c 00
        E 60 90 60 69
        E 60 80 60 00
        E 60 90 60 67
        E 4920 80 60 00
        <X 120 0
          /wFbZW5kX3BiIHNvbmdfdHJhaW5lcl9wYl8yXQ==
        >
        <X 0 0
          /wFbYmVnaW5fcGIgc29uZ190cmFpbmVyX3BiXzNd
        >
        E 0 90 61 69
        E 0 90 6c 69
        E 0 90 74 64
        E 60 80 61 00
        E 0 80 6c 00
        E 60 90 62 69
        E 60 80 62 00
        E 60 90 62 6b
        E 0 90 6c 6b
        E 60 80 62 00
        E 0 80 6c 00
        E 40 90 63 6b
        E 60 80 63 00
        E 20 90 63 6d
        e 0 90 66 64
        E 0 90 6c 6d
        E 60 80 63 00
        E 0 80 6c 00
        E 0 92 63 6f
        <X 240 0
          /wFbcGJfbm9ybSBzb25nX3RyYWluZXJfcGJfM10=
        >
        e 60 80 66 00
        E 0 82 63 00
        E 60 90 63 6d
        E 60 80 63 00
        E 180 90 63 6b
        E 0 90 6c 6b
        E 60 80 63 00
        E 0 80 6c 00
        E 20 90 62 6d
        E 60 80 62 00
        E 20 90 62 6b
        E 60 80 62 00
        E 20 90 62 69
        E 0 90 6c 69
        E 60 80 62 00
        E 0 80 6c 00
        E 60 90 61 6b
        E 60 80 61 00
        E 60 90 61 69
        E 60 80 74 00
        E 0 80 61 00
        E 60 90 61 68
        E 0 90 6c 66
        E 60 80 6c 00
        E 180 80 61 00
        E 120 90 61 66
        E 240 80 61 00
        E 120 90 61 67
        E 2160 80 61 00
        <X 480 0
          /wFbZW5kX3BiIHNvbmdfdHJhaW5lcl9wYl8zXQ==
        >
        <X 0 0
          /wFbYmVnaW5fcGIgc29uZ190cmFpbmVyX3BiXzRd
        >
        E 0 90 61 64
        E 60 80 61 00
        E 180 90 61 66
        E 60 80 61 00
        E 180 90 61 69
        E 60 80 61 00
        E 60 90 61 66
        E 60 80 61 00
        <X 60 0
          /wFbcGJfbm9ybSBzb25nX3RyYWluZXJfcGJfNF0=
        >
        E 120 90 62 66
        E 60 80 62 00
        E 180 90 61 69
        E 60 80 61 00
        E 60 90 61 66
        E 60 80 61 00
        E 60 92 62 68
        E 60 82 62 00
        E 180 90 62 66
        E 60 80 62 00
        E 60 90 61 69
        E 60 80 61 00
        E 60 90 61 66
        E 60 80 61 00
        E 60 90 61 64
        E 60 80 61 00
        E 60 90 61 66
        E 60 80 61 00
        E 180 90 61 69
        E 60 80 61 00
        E 180 90 61 66
        E 0 90 74 64
        E 60 80 61 00
        E 60 90 62 66
        E 60 80 62 00
        E 60 90 61 69
        E 60 80 61 00
        E 60 90 61 66
        E 60 80 61 00
        E 60 90 63 66
        E 60 80 63 00
        E 60 90 61 66
        E 60 80 61 00
        E 60 90 63 68
        E 60 80 63 00
        E 60 90 61 64
        E 60 80 74 00
        E 0 80 61 00
        E 180 90 61 66
        E 60 80 61 00
        E 180 90 61 69
        E 60 80 61 00
        E 60 90 61 66
        E 60 80 61 00
        E 180 90 62 66
        E 60 80 62 00
        E 180 90 61 69
        E 60 80 61 00
        E 60 90 61 66
        E 60 80 61 00
        E 60 92 62 68
        E 60 82 62 00
        E 180 90 62 66
        E 60 80 62 00
        E 60 90 61 69
        E 60 80 61 00
        E 60 90 61 66
        E 60 80 61 00
        E 60 90 61 64
        E 60 80 61 00
        E 60 90 61 66
        E 60 80 61 00
        E 60 90 62 66
        E 60 80 62 00
        E 60 90 63 66
        E 60 80 63 00
        E 60 90 63 68
        E 60 80 63 00
        E 60 90 6c 67
        E 0 92 64 69
        E 60 80 6c 00
        E 0 82 64 00
        E 180 90 64 69
        E 60 80 64 00
        E 60 90 64 67
        E 60 80 64 00
        E 60 90 63 68
        E 0 90 6c 66
        E 60 80 63 00
        E 0 80 6c 00
        E 60 90 63 66
        E 60 80 63 00
        E 60 90 62 66
        E 60 80 62 00
        <X 60 0
          /wFbZW5kX3BiIHNvbmdfdHJhaW5lcl9wYl80XQ==
        >
        <X 0 0
          /wFbYmVnaW5fcGIgc29uZ190cmFpbmVyX3BiXzVd
        >
        E 0 90 60 67
        E 0 90 6c 65
        E 60 80 6c 00
        E 300 80 60 00
        E 120 90 61 65
        E 240 80 61 00
        E 120 90 62 65
        E 360 80 62 00
        E 120 90 61 68
        E 240 80 61 00
        E 120 90 61 67
        E 240 80 61 00
        E 120 90 60 65
        E 240 80 60 00
        E 120 90 61 64
        E 840 80 61 00
        E 80 90 63 72
        E 0 90 6c 72
        E 40 80 63 00
        E 0 80 6c 00
        E 40 90 63 74
        E 40 80 63 00
        E 40 90 64 72
        E 40 80 64 00
        E 40 92 64 74
        E 400 82 64 00
        E 80 90 64 72
        E 20 80 64 00
        E 40 90 63 74
        E 20 80 63 00
        E 60 90 63 72
        E 20 80 63 00
        E 80 90 62 72
        E 160 80 62 00
        E 40 90 62 72
        E 40 80 62 00
        E 20 90 62 74
        E 0 90 66 64
        E 440 80 62 00
        E 0 80 66 00
        E 60 92 62 74
        E 480 82 62 00
        E 120 90 62 72
        E 0 90 6c 70
        E 20 80 62 00
        E 40 80 6c 00
        E 20 90 61 72
        E 20 80 61 00
        E 100 90 61 70
        E 480 80 61 00
        E 40 90 61 70
        E 0 90 67 64
        E 300 80 61 00
        E 0 80 67 00
        E 60 90 61 69
        E 0 90 66 64
        E 0 90 6c 69
        E 60 80 6c 00
        E 2220 80 61 00
        E 0 80 66 00
        <X 120 0
          /wFbZW5kX3BiIHNvbmdfdHJhaW5lcl9wYl81XQ==
        >
        <X 0 0
          /wFbYmVnaW5fcGIgc29uZ190cmFpbmVyX3BiXzZd
        >
        E 40 90 61 70
        E 40 80 61 00
        E 40 90 63 72
        E 0 90 6c 72
        E 40 80 63 00
        E 20 80 6c 00
        E 60 90 63 74
        E 720 80 63 00
        E 100 90 63 72
        E 20 80 63 00
        E 200 90 62 70
        E 0 90 6c 70
        E 40 80 62 00
        E 0 80 6c 00
        E 20 90 62 72
        E 700 80 62 00
        E 120 90 62 70
        E 0 90 74 64
        E 40 80 62 00
        E 60 90 61 70
        E 40 80 61 00
        E 100 90 61 72
        E 0 90 67 64
        E 660 80 61 00
        E 0 80 67 00
        E 60 90 61 70
        E 0 90 66 64
        E 1080 80 61 00
        E 0 80 66 00
        <X 120 0
          /wFbZW5kX3BiIHNvbmdfdHJhaW5lcl9wYl82XQ==
        >
        E 0 80 74 00
        E 0 90 61 6e
        E 0 90 6c 6e
        E 60 80 6c 00
        E 5700 80 61 00
        E 960 90 60 70
        E 0 90 6c 70
        E 60 80 6c 00
        E 4500 80 60 00
        <X 120 0
          /wFbYmVnaW5fcGIgc29uZ190cmFpbmVyX3BiXzdd
        >
        E 0 90 61 74
        E 0 90 6c 71
        E 60 80 61 00
        E 0 80 6c 00
        E 60 90 62 71
        E 60 80 62 00
        E 60 90 62 72
        E 60 80 62 00
        E 60 90 62 74
        E 60 80 62 00
        E 60 90 63 71
        E 60 80 63 00
        E 60 90 63 74
        E 60 80 63 00
        E 60 90 64 74
        E 60 80 64 00
        E 60 92 64 72
        E 240 82 64 00
        E 120 90 63 73
        E 60 80 63 00
        E 60 90 63 71
        E 240 80 63 00
        E 120 90 64 72
        E 0 90 6c 70
        E 60 80 64 00
        E 0 80 6c 00
        E 60 90 64 70
        E 60 80 64 00
        E 60 90 63 71
        E 0 90 6c 6f
        E 60 80 63 00
        E 0 80 6c 00
        E 60 90 63 6f
        E 240 80 63 00
        E 120 90 64 70
        E 0 90 6c 6d
        E 0 90 74 64
        E 60 80 64 00
        E 0 80 6c 00
        E 60 90 64 6d
        E 60 80 64 00
        E 60 90 63 6f
        E 60 80 63 00
        E 60 90 62 6f
        E 60 80 62 00
        E 60 90 64 6d
        E 60 80 64 00
        E 60 90 63 6f
        E 60 80 63 00
        E 60 90 62 6d
        E 60 80 62 00
        E 60 90 61 6f
        E 0 90 6c 6f
        E 60 80 61 00
        E 0 80 6c 00
        E 60 90 62 71
        E 60 80 62 00
        E 60 92 62 6f
        <X 1920 0
          /wFbZW5kX3BiIHNvbmdfdHJhaW5lcl9wYl83XQ==
        >
        E 0 80 74 00
        E 0 82 62 00
        E 3360 90 61 66
        E 0 90 6c 66
        E 60 80 6c 00
        E 1500 80 61 00
        E 120 90 63 66
        E 60 80 63 00
        E 60 90 63 68
        E 60 80 63 00
        E 60 90 64 67
        E 60 80 64 00
        E 60 90 63 68
        E 60 80 63 00
        E 60 90 64 69
        E 60 80 64 00
        E 60 90 64 67
        E 60 80 64 00
        E 60 90 63 68
        E 60 80 63 00
        E 60 90 64 69
        E 0 90 6c 69
        E 60 80 64 00
        E 0 80 6c 00
        E 0 90 64 6b
        E 0 90 66 64
        E 60 80 64 00
        E 0 80 66 00
        E 120 90 64 69
        E 0 90 6c 67
        E 60 80 64 00
        E 0 80 6c 00
        E 60 90 64 67
        E 60 80 64 00
        E 60 90 63 68
        E 0 90 6c 66
        E 60 80 63 00
        E 0 80 6c 00
        E 60 90 63 66
        E 60 80 63 00
        E 60 90 62 66
        E 60 80 62 00
        E 60 90 62 64
        E 960 80 62 00
        E 120 90 6c 70
        E 0 90 74 64
        E 0 92 64 72
        E 60 80 6c 00
        E 780 82 64 00
        E 120 92 62 72
        E 120 82 62 00
        E 120 92 62 72
        E 600 82 62 00
        E 120 90 62 70
        E 60 80 62 00
        E 60 92 61 70
        E 240 80 74 00
        E 960 82 61 00
        E 120 90 67 64
        E 0 90 6c 6b
        E 0 92 61 6b
        E 60 80 6c 00
        E 60 80 67 00
        E 0 90 61 6d
        E 0 90 66 64
        E 0 82 61 00
        E 40 80 61 00
        E 0 80 66 00
        E 80 90 61 72
        E 0 90 6c 6f
        E 60 80 61 00
        E 0 80 6c 00
        E 60 90 62 6f
        E 60 80 62 00
        E 60 90 62 70
        E 60 80 62 00
        E 60 90 62 72
        E 60 80 62 00
        E 60 90 63 6f
        E 60 80 63 00
        E 60 90 63 72
        E 60 80 63 00
        E 60 90 61 6d
        E 0 90 6c 6b
        E 60 80 61 00
        E 0 80 6c 00
        E 60 90 63 6d
        E 60 80 63 00
        E 60 90 63 6b
        E 60 80 63 00
        E 60 90 62 6b
        E 60 80 62 00
        E 60 90 62 6d
        E 60 80 62 00
        E 180 90 62 6b
        E 60 80 62 00
        E 60 90 61 6d
        E 60 80 61 00
        E 60 90 61 6b
        E 60 80 61 00
        E 60 90 61 69
        E 0 90 6c 67
        E 60 80 61 00
        E 0 80 6c 00
        E 60 90 60 69
        E 60 80 60 00
        E 60 90 60 67
        E 4920 80 60 00
        E 120 90 61 69
        E 0 90 6c 69
        E 60 80 61 00
        E 0 80 6c 00
        E 60 90 62 69
        E 60 80 62 00
        E 60 90 62 6b
        E 0 90 6c 6b
        E 60 80 62 00
        E 0 80 6c 00
        E 40 90 63 6b
        E 60 80 63 00
        E 20 90 63 6d
        E 0 90 66 64
        E 0 90 6c 6d
        E 60 80 63 00
        E 0 80 66 00
        E 0 80 6c 00
        E 0 90 66 64
        E 0 92 63 6f
        E 300 80 66 00
        E 0 82 63 00
        E 60 90 63 6d
        E 60 80 63 00
        E 180 90 63 6b
        E 0 90 6c 6b
        E 60 80 63 00
        E 0 80 6c 00
        E 20 90 62 6d
        E 60 80 62 00
        E 20 90 62 6b
        E 60 80 62 00
        E 20 90 62 69
        E 0 90 6c 69
        E 60 80 62 00
        E 0 80 6c 00
        E 60 90 61 6b
        E 60 80 61 00
        E 60 90 61 69
        E 60 80 61 00
        <X 60 0
          /wFbYmVnaW5fcGIgc29uZ190cmFpbmVyX3BiXzhd
        >
        E 0 90 61 68
        E 0 90 6c 66
        E 60 80 6c 00
        E 180 80 61 00
        E 120 90 61 66
        E 240 80 61 00
        E 120 90 61 67
        E 2160 80 61 00
        E 480 90 61 67
        E 0 90 6c 65
        E 60 80 6c 00
        E 180 80 61 00
        E 140 90 60 65
        E 220 80 60 00
        E 120 90 61 64
        E 1500 80 61 00
        <X 419 0
          /wFbZW5kX3BiIHNvbmdfdHJhaW5lcl9wYl84XQ==
        >
        E 2401 b0 7b 00
        GUID {49CB2954-D3EC-47D9-9258-DF8CA2B98640}
        IGNTEMPO 0 120.00000000 4 4
        SRCCOLOR 356
        VELLANE 132 128 60
        COLORMAP "C:\Program Files\REAPER (x64)\Data\color_maps\rockband_guitarbass.png"
        CFGEDITVIEW -4248.000000 12.419106 10 12 0 0 0
        CFGEDIT 1 1 0 1 1 0 1 1 1 1 1 0.12500000 -8 -8 1370 736 0 0 1 1 0.00000000 0 1 0 0 0.500000 0 0 1.000000 64
        KEYSNAP 0 3 "102034050607" 0 "Major"
        EVTFILTER 0 -1 -1 -1 -1 0 1 0 0 -1.00000000 -1.00000000
      >
    >
  >
  <TRACK '{3971A06B-DA74-4B2B-A3BC-BC5C94394BA6}'
    NAME "EVENTS"
    PEAKCOL 16576
    BEAT -1
    AUTOMODE 0
    VOLPAN 1.00000000000000 0.00000000000000 -1.00000000000000 -1.00000000000000 1.00000000000000
    MUTESOLO 0 0 0
    IPHASE 0
    ISBUS 0 0
    BUSCOMP 0 0
    SHOWINMIX 1 0.666700 0.500000 1 0.500000 -1 -1 -1
    FREEMODE 0
    SEL 0
    REC 0 0 0 0 0 0 0
    VU 2
    TRACKHEIGHT 0 0
    INQ 0 0 0 0.5000000000 100 0 0 100
    NCHAN 2
    FX 1
    TRACKID {3971A06B-DA74-4B2B-A3BC-BC5C94394BA6}
    PERF 0
    MIDIOUT -1
    <MIDINOTENAMES
      0 26 "Hi-Hat"
      0 25 "Snare"
      0 24 "Kick"
    >
    MAINSEND 1 0
    <FXCHAIN
      SHOW 0
      LASTSEL 0
      DOCKED 0
    >
    <ITEM
      POSITION 0.00000000000000
      SNAPOFFS 0.00000000000000
      LENGTH 91.00000000000000
      LOOP 0
      ALLTAKES 0
      SEL 0
      FADEIN 1 0.000000 0.000000 1 0
      FADEOUT 1 0.000000 0.000000 1 0
      MUTE 0
      IGUID {5A126FA5-3B16-4DAB-8937-E49C757796A3}
      IID 13
      NAME "EVENTS"
      VOLPAN 1.000000 0.000000 1.000000 -1.000000
      SOFFS 0.00000000000000 0.00000000000000
      PLAYRATE 1.00000000000000 1 0.00000000000000 -1
      CHANMODE 0
      GUID {45AAA11A-9619-42F4-BA5B-9DEDCF3DE731}
      <SOURCE MIDI
        HASDATA 1 480 QN
        POOLEDEVTS {AB4CA1BA-30D2-4C36-8894-B30BF43284AA}
        <X 0 0
          /wNFVkVOVFM=
        >
        <X 0 0
          /wFbY3Jvd2RfcmVhbHRpbWVd
        >
        <X 0 0
          /wFbY3Jvd2Rfbm9jbGFwXQ==
        >
        <X 3360 0
          /wFbcHJjX2ludHJvX2Nob3J1c10=
        >
        E 0 90 18 60
        E 0 90 1a 60
        E 60 80 18 00
        E 0 80 1a 00
        E 180 90 1a 60
        E 60 80 1a 00
        E 180 90 19 60
        E 60 80 19 00
        E 60 90 18 60
        E 0 90 1a 60
        E 60 80 18 00
        E 0 80 1a 00
        E 60 90 19 60
        E 60 80 19 00
        E 0 90 19 60
        E 60 80 19 00
        E 0 90 19 60
        E 60 80 19 00
        E 60 90 1a 60
        E 60 80 1a 00
        E 180 90 1a 60
        E 60 80 1a 00
        E 180 90 1a 60
        E 60 80 1a 00
        <X 180 0
          /wFbY3Jvd2Rfbm9ybWFsXQ==
        >
        <X 0 0
          /wFbbXVzaWNfc3RhcnRd
        >
        E 0 90 18 60
        E 0 90 1a 60
        E 60 80 18 00
        E 0 80 1a 00
        E 180 90 1a 60
        E 60 80 1a 00
        E 180 90 19 60
        E 0 90 1a 60
        E 60 80 19 00
        E 0 80 1a 00
        E 60 90 19 60
        E 60 80 19 00
        E 60 90 1a 60
        E 60 80 1a 00
        E 60 90 18 60
        E 60 80 18 00
        E 60 90 1a 60
        E 60 80 1a 00
        E 60 90 18 60
        E 60 80 18 00
        E 60 90 1a 60
        E 60 80 1a 00
        E 60 90 19 60
        E 60 80 19 00
        E 60 90 19 60
        E 0 90 1a 60
        E 60 80 19 00
        E 0 80 1a 00
        E 60 90 18 60
        E 60 80 18 00
        E 60 90 1a 60
        E 60 80 1a 00
        E 60 90 18 60
        E 60 80 18 00
        E 60 90 1a 60
        E 60 80 1a 00
        E 60 90 18 60
        E 60 80 18 00
        E 60 90 19 60
        E 0 90 1a 60
        E 60 80 19 00
        E 0 80 1a 00
        E 60 90 19 60
        E 60 80 19 00
        E 60 90 1a 60
        E 60 80 1a 00
        E 60 90 18 60
        E 60 80 18 00
        E 60 90 1a 60
        E 60 80 1a 00
        E 60 90 18 60
        E 60 80 18 00
        E 60 90 1a 60
        E 60 80 1a 00
        E 60 90 19 60
        E 60 80 19 00
        E 60 90 19 60
        E 0 90 1a 60
        E 60 80 19 00
        E 0 80 1a 00
        E 60 90 18 60
        E 60 80 18 00
        E 60 90 1a 60
        E 60 80 1a 00
        E 180 90 18 60
        E 0 90 1a 60
        E 60 80 18 00
        E 0 80 1a 00
        E 180 90 19 60
        E 0 90 1a 60
        E 60 80 19 00
        E 0 80 1a 00
        E 60 90 19 60
        E 60 80 19 00
        E 60 90 1a 60
        E 60 80 1a 00
        E 60 90 18 60
        E 60 80 18 00
        E 60 90 1a 60
        E 60 80 1a 00
        E 60 90 18 60
        E 60 80 18 00
        E 60 90 1a 60
        E 60 80 1a 00
        E 60 90 19 60
        E 60 80 19 00
        E 60 90 19 60
        E 0 90 1a 60
        E 60 80 19 00
        E 0 80 1a 00
        E 60 90 18 60
        E 60 80 18 00
        E 60 90 18 60
        E 0 90 1a 60
        E 60 80 18 00
        E 0 80 1a 00
        E 60 90 18 60
        E 60 80 18 00
        E 60 90 1a 60
        E 60 80 1a 00
        E 60 90 18 60
        E 60 80 18 00
        E 60 90 19 60
        E 0 90 1a 60
        E 60 80 19 00
        E 0 80 1a 00
        E 60 90 18 60
        E 60 80 18 00
        E 60 90 1a 60
        E 60 80 1a 00
        E 60 90 18 60
        E 0 90 19 60
        E 60 80 18 00
        E 0 80 19 00
        E 60 90 1a 60
        E 60 80 1a 00
        E 60 90 18 60
        E 60 80 18 00
        E 60 90 19 60
        E 0 90 1a 60
        E 60 80 19 00
        E 0 80 1a 00
        E 180 90 1a 60
        E 60 80 1a 00
        E 180 90 18 60
        E 0 90 1a 60
        E 60 80 18 00
        E 0 80 1a 00
        E 180 90 1a 60
        E 60 80 1a 00
        E 60 90 18 60
        E 60 80 18 00
        E 60 90 19 60
        E 0 90 1a 60
        E 60 80 19 00
        E 0 80 1a 00
        E 60 90 19 60
        E 60 80 19 00
        E 60 90 1a 60
        E 60 80 1a 00
        E 60 90 18 60
        E 60 80 18 00
        E 60 90 1a 60
        E 60 80 1a 00
        E 60 90 18 60
        E 60 80 18 00
        E 60 90 1a 60
        E 60 80 1a 00
        E 60 90 19 60
        E 60 80 19 00
        E 60 90 19 60
        E 0 90 1a 60
        E 60 80 19 00
        E 0 80 1a 00
        E 60 90 18 60
        E 60 80 18 00
        E 60 90 1a 60
        E 60 80 1a 00
        E 180 90 18 60
        E 0 90 1a 60
        E 60 80 18 00
        E 0 80 1a 00
        E 180 90 19 60
        E 0 90 1a 60
        E 60 80 19 00
        E 0 80 1a 00
        E 60 90 19 60
        E 60 80 19 00
        E 60 90 1a 60
        E 60 80 1a 00
        E 60 90 18 60
        E 60 80 18 00
        E 60 90 1a 60
        E 60 80 1a 00
        E 60 90 18 60
        E 60 80 18 00
        E 60 90 1a 60
        E 60 80 1a 00
        E 60 90 19 60
        E 60 80 19 00
        E 60 90 19 60
        E 0 90 1a 60
        E 60 80 19 00
        E 0 80 1a 00
        E 60 90 18 60
        E 60 80 18 00
        E 60 90 1a 60
        E 60 80 1a 00
        E 180 90 18 60
        E 0 90 1a 60
        E 60 80 18 00
        E 0 80 1a 00
        E 180 90 19 60
        E 0 90 1a 60
        E 60 80 19 00
        E 0 80 1a 00
        E 60 90 19 60
        E 60 80 19 00
        E 60 90 1a 60
        E 60 80 1a 00
        E 60 90 18 60
        E 60 80 18 00
        E 60 90 1a 60
        E 60 80 1a 00
        E 60 90 18 60
        E 60 80 18 00
        E 60 90 1a 60
        E 60 80 1a 00
        E 60 90 19 60
        E 60 80 19 00
        E 60 90 19 60
        E 0 90 1a 60
        E 60 80 19 00
        E 0 80 1a 00
        E 60 90 18 60
        E 60 80 18 00
        E 60 90 18 60
        E 0 90 1a 60
        E 60 80 18 00
        E 0 80 1a 00
        E 180 90 1a 60
        E 60 80 1a 00
        E 180 90 19 60
        E 0 90 1a 60
        E 60 80 19 00
        E 0 80 1a 00
        E 60 90 18 60
        E 60 80 18 00
        E 60 90 19 60
        E 0 90 1a 60
        E 60 80 19 00
        E 0 80 1a 00
        E 0 90 19 60
        E 60 80 19 00
        E 0 90 19 60
        E 60 80 19 00
        E 60 90 1a 60
        E 60 80 1a 00
        E 180 90 1a 60
        E 60 80 1a 00
        E 180 90 1a 60
        E 60 80 1a 00
        E 180 90 18 60
        E 0 90 1a 60
        E 60 80 18 00
        E 0 80 1a 00
        E 180 90 1a 60
        E 60 80 1a 00
        E 60 90 18 60
        E 60 80 18 00
        E 60 90 1a 60
        E 60 80 1a 00
        E 180 90 18 60
        E 0 90 1a 60
        E 60 80 18 00
        E 0 80 1a 00
        E 180 90 1a 60
        E 60 80 1a 00
        E 180 90 1a 60
        E 60 80 1a 00
        E 180 90 1a 60
        E 60 80 1a 00
        E 180 90 1a 60
        E 60 80 1a 00
        E 180 90 1a 60
        E 60 80 1a 00
        E 180 90 1a 60
        E 60 80 1a 00
        E 180 90 1a 60
        E 60 80 1a 00
        E 180 90 1a 60
        E 60 80 1a 00
        E 180 90 19 60
        E 60 80 19 00
        E 180 90 1a 60
        E 60 80 1a 00
        <X 180 0
          /wFbcHJjX3ZlcnNlXQ==
        >
        <X 0 0
          /wFbY3Jvd2RfbWVsbG93XQ==
        >
        E 0 90 18 60
        E 0 90 1a 60
        E 60 80 18 00
        E 0 80 1a 00
        E 180 90 1a 60
        E 60 80 1a 00
        E 60 90 18 60
        E 60 80 18 00
        E 60 90 19 60
        E 0 90 1a 60
        E 60 80 19 00
        E 0 80 1a 00
        E 60 90 19 60
        E 60 80 19 00
        E 60 90 1a 60
        E 60 80 1a 00
        E 60 90 18 60
        E 60 80 18 00
        E 60 90 1a 60
        E 60 80 1a 00
        E 60 90 18 60
        E 60 80 18 00
        E 60 90 1a 60
        E 60 80 1a 00
        E 60 90 19 60
        E 60 80 19 00
        E 60 90 19 60
        E 0 90 1a 60
        E 60 80 19 00
        E 0 80 1a 00
        E 60 90 18 60
        E 60 80 18 00
        E 60 90 1a 60
        E 60 80 1a 00
        E 180 90 18 60
        E 0 90 1a 60
        E 60 80 18 00
        E 0 80 1a 00
        E 180 90 19 60
        E 0 90 1a 60
        E 60 80 19 00
        E 0 80 1a 00
        E 60 90 19 60
        E 60 80 19 00
        E 60 90 1a 60
        E 60 80 1a 00
        E 60 90 18 60
        E 60 80 18 00
        E 60 90 1a 60
        E 60 80 1a 00
        E 60 90 18 60
        E 60 80 18 00
        E 60 90 1a 60
        E 60 80 1a 00
        E 60 90 19 60
        E 60 80 19 00
        E 60 90 19 60
        E 0 90 1a 60
        E 60 80 19 00
        E 0 80 1a 00
        E 60 90 18 60
        E 60 80 18 00
        E 60 90 18 60
        E 0 90 1a 60
        E 60 80 18 00
        E 0 80 1a 00
        E 180 90 1a 60
        E 60 80 1a 00
        E 60 90 18 60
        E 60 80 18 00
        E 60 90 19 60
        E 0 90 1a 60
        E 60 80 19 00
        E 0 80 1a 00
        E 60 90 19 60
        E 60 80 19 00
        E 60 90 1a 60
        E 60 80 1a 00
        E 60 90 18 60
        E 60 80 18 00
        E 60 90 1a 60
        E 60 80 1a 00
        E 60 90 18 60
        E 60 80 18 00
        E 60 90 1a 60
        E 60 80 1a 00
        E 60 90 19 60
        E 60 80 19 00
        E 60 90 19 60
        E 0 90 1a 60
        E 60 80 19 00
        E 0 80 1a 00
        E 60 90 18 60
        E 60 80 18 00
        E 60 90 18 60
        E 0 90 1a 60
        E 60 80 18 00
        E 0 80 1a 00
        E 180 90 18 60
        E 0 90 1a 60
        E 60 80 18 00
        E 0 80 1a 00
        E 180 90 19 60
        E 0 90 1a 60
        E 60 80 19 00
        E 0 80 1a 00
        E 60 90 18 60
        E 60 80 18 00
        E 60 90 1a 60
        E 60 80 1a 00
        E 60 90 19 60
        E 60 80 19 00
        E 60 90 1a 60
        E 60 80 1a 00
        E 180 90 18 60
        E 0 90 1a 60
        E 60 80 18 00
        E 0 80 1a 00
        E 180 90 1a 60
        E 60 80 1a 00
        E 60 90 18 60
        E 60 80 18 00
        E 60 90 18 60
        E 0 90 1a 60
        E 60 80 18 00
        E 0 80 1a 00
        E 180 90 1a 60
        E 60 80 1a 00
        E 180 90 1a 60
        E 60 80 1a 00
        E 180 90 18 60
        E 0 90 1a 60
        E 60 80 18 00
        E 0 80 1a 00
        E 60 90 18 60
        E 60 80 18 00
        E 60 90 1a 60
        E 60 80 1a 00
        E 180 90 1a 60
        E 60 80 1a 00
        E 180 90 1a 60
        E 60 80 1a 00
        E 60 90 18 60
        E 60 80 18 00
        E 60 90 18 60
        E 0 90 1a 60
        E 60 80 18 00
        E 0 80 1a 00
        E 180 90 1a 60
        E 60 80 1a 00
        E 60 90 18 60
        E 60 80 18 00
        E 60 90 1a 60
        E 60 80 1a 00
        E 180 90 18 60
        E 0 90 1a 60
        E 60 80 18 00
        E 0 80 1a 00
        E 180 90 1a 60
        E 60 80 1a 00
        E 180 90 1a 60
        E 60 80 1a 00
        E 180 90 1a 60
        E 60 80 1a 00
        E 180 90 1a 60
        E 60 80 1a 00
        E 180 90 1a 60
        E 60 80 1a 00
        E 180 90 1a 60
        E 60 80 1a 00
        E 180 90 1a 60
        E 60 80 1a 00
        E 180 90 1a 60
        E 60 80 1a 00
        E 180 90 1a 60
        E 60 80 1a 00
        E 180 90 1a 60
        E 60 80 1a 00
        E 180 90 1a 60
        E 60 80 1a 00
        E 180 90 1a 60
        E 60 80 1a 00
        E 180 90 1a 60
        E 60 80 1a 00
        E 180 90 1a 60
        E 60 80 1a 00
        E 180 90 1a 60
        E 60 80 1a 00
        E 180 90 1a 60
        E 60 80 1a 00
        E 180 90 1a 60
        E 60 80 1a 00
        <X 180 0
          /wFbcHJjX2JyaWRnZV9hXQ==
        >
        <X 0 0
          /wFbY3Jvd2RfaW50ZW5zZV0=
        >
        E 0 90 18 60
        E 0 90 1a 60
        E 60 80 18 00
        E 0 80 1a 00
        E 180 90 1a 60
        E 60 80 1a 00
        E 180 90 19 60
        E 0 90 1a 60
        E 60 80 19 00
        E 0 80 1a 00
        E 60 90 19 60
        E 60 80 19 00
        E 60 90 1a 60
        E 60 80 1a 00
        E 60 90 18 60
        E 60 80 18 00
        E 60 90 1a 60
        E 60 80 1a 00
        E 60 90 18 60
        E 60 80 18 00
        E 60 90 1a 60
        E 60 80 1a 00
        E 60 90 19 60
        E 60 80 19 00
        E 60 90 19 60
        E 0 90 1a 60
        E 60 80 19 00
        E 0 80 1a 00
        E 60 90 18 60
        E 60 80 18 00
        E 60 90 1a 60
        E 60 80 1a 00
        E 60 90 18 60
        E 60 80 18 00
        E 60 90 1a 60
        E 60 80 1a 00
        E 60 90 18 60
        E 60 80 18 00
        E 60 90 19 60
        E 0 90 1a 60
        E 60 80 19 00
        E 0 80 1a 00
        E 60 90 19 60
        E 60 80 19 00
        E 60 90 1a 60
        E 60 80 1a 00
        E 60 90 18 60
        E 60 80 18 00
        E 60 90 1a 60
        E 60 80 1a 00
        E 60 90 18 60
        E 60 80 18 00
        E 60 90 1a 60
        E 60 80 1a 00
        E 60 90 19 60
        E 60 80 19 00
        E 60 90 19 60
        E 0 90 1a 60
        E 60 80 19 00
        E 0 80 1a 00
        E 60 90 18 60
        E 60 80 18 00
        E 60 90 1a 60
        E 60 80 1a 00
        E 180 90 18 60
        E 0 90 1a 60
        E 60 80 18 00
        E 0 80 1a 00
        E 180 90 19 60
        E 0 90 1a 60
        E 60 80 19 00
        E 0 80 1a 00
        E 60 90 19 60
        E 60 80 19 00
        E 60 90 1a 60
        E 60 80 1a 00
        E 60 90 18 60
        E 60 80 18 00
        E 60 90 1a 60
        E 60 80 1a 00
        E 60 90 18 60
        E 60 80 18 00
        E 60 90 1a 60
        E 60 80 1a 00
        E 60 90 19 60
        E 60 80 19 00
        E 60 90 19 60
        E 0 90 1a 60
        E 60 80 19 00
        E 0 80 1a 00
        E 60 90 18 60
        E 60 80 18 00
        E 60 90 1a 60
        E 60 80 1a 00
        E 60 90 18 60
        E 60 80 18 00
        E 60 90 1a 60
        E 60 80 1a 00
        E 60 90 18 60
        E 60 80 18 00
        E 60 90 19 60
        E 0 90 1a 60
        E 60 80 19 00
        E 0 80 1a 00
        E 60 90 19 60
        E 60 80 19 00
        E 60 90 1a 60
        E 60 80 1a 00
        E 60 90 18 60
        E 60 80 18 00
        E 60 90 1a 60
        E 60 80 1a 00
        E 60 90 18 60
        E 60 80 18 00
        E 60 90 19 60
        E 0 90 1a 60
        E 60 80 19 00
        E 0 80 1a 00
        E 60 90 19 60
        E 60 80 19 00
        E 60 90 1a 60
        E 60 80 1a 00
        E 180 90 18 60
        E 0 90 1a 60
        E 60 80 18 00
        E 0 80 1a 00
        E 180 90 1a 60
        E 60 80 1a 00
        E 60 90 18 60
        E 60 80 18 00
        E 60 90 19 60
        E 0 90 1a 60
        E 60 80 19 00
        E 0 80 1a 00
        E 60 90 19 60
        E 60 80 19 00
        E 60 90 1a 60
        E 60 80 1a 00
        E 60 90 18 60
        E 60 80 18 00
        E 60 90 1a 60
        E 60 80 1a 00
        E 60 90 18 60
        E 60 80 18 00
        E 60 90 1a 60
        E 60 80 1a 00
        E 60 90 19 60
        E 60 80 19 00
        E 60 90 19 60
        E 0 90 1a 60
        E 60 80 19 00
        E 0 80 1a 00
        E 60 90 18 60
        E 60 80 18 00
        E 60 90 1a 60
        E 60 80 1a 00
        E 180 90 18 60
        E 0 90 1a 60
        E 60 80 18 00
        E 0 80 1a 00
        E 180 90 19 60
        E 0 90 1a 60
        E 60 80 19 00
        E 0 80 1a 00
        E 60 90 19 60
        E 60 80 19 00
        E 60 90 1a 60
        E 60 80 1a 00
        E 60 90 18 60
        E 60 80 18 00
        E 60 90 1a 60
        E 60 80 1a 00
        E 60 90 18 60
        E 60 80 18 00
        E 60 90 1a 60
        E 60 80 1a 00
        E 60 90 19 60
        E 60 80 19 00
        E 60 90 19 60
        E 0 90 1a 60
        E 60 80 19 00
        E 0 80 1a 00
        E 60 90 18 60
        E 60 80 18 00
        E 60 90 1a 60
        E 60 80 1a 00
        E 180 90 18 60
        E 0 90 1a 60
        E 60 80 18 00
        E 0 80 1a 00
        E 180 90 19 60
        E 0 90 1a 60
        E 60 80 19 00
        E 0 80 1a 00
        E 60 90 19 60
        E 60 80 19 00
        E 60 90 1a 60
        E 60 80 1a 00
        E 60 90 18 60
        E 60 80 18 00
        E 60 90 1a 60
        E 60 80 1a 00
        E 60 90 18 60
        E 60 80 18 00
        E 60 90 1a 60
        E 60 80 1a 00
        E 60 90 19 60
        E 60 80 19 00
        E 60 90 19 60
        E 0 90 1a 60
        E 60 80 19 00
        E 0 80 1a 00
        E 180 90 1a 60
        E 60 80 1a 00
        E 60 90 19 60
        E 60 80 19 00
        E 60 90 1a 60
        E 60 80 1a 00
        E 180 90 19 60
        E 0 90 1a 60
        E 60 80 19 00
        E 0 80 1a 00
        E 60 90 18 60
        E 0 90 19 60
        E 60 80 18 00
        E 0 80 19 00
        E 60 90 1a 60
        E 60 80 1a 00
        E 60 90 19 60
        E 60 80 19 00
        E 60 90 19 60
        E 0 90 1a 60
        E 60 80 19 00
        E 0 80 1a 00
        E 180 90 19 60
        E 0 90 1a 60
        E 60 80 19 00
        E 0 80 1a 00
        E 180 90 1a 60
        E 60 80 1a 00
        E 60 90 19 60
        E 60 80 19 00
        <X 60 0
          /wFbcHJjX2JyaWRnZV9iXQ==
        >
        E 0 90 18 60
        E 0 90 1a 60
        E 60 80 18 00
        E 0 80 1a 00
        E 180 90 1a 60
        E 60 80 1a 00
        E 180 90 19 60
        E 0 90 1a 60
        E 60 80 19 00
        E 0 80 1a 00
        E 60 90 19 60
        E 60 80 19 00
        E 60 90 1a 60
        E 60 80 1a 00
        E 60 90 18 60
        E 60 80 18 00
        E 60 90 1a 60
        E 60 80 1a 00
        E 60 90 18 60
        E 60 80 18 00
        E 60 90 1a 60
        E 60 80 1a 00
        E 60 90 19 60
        E 60 80 19 00
        E 60 90 19 60
        E 0 90 1a 60
        E 60 80 19 00
        E 0 80 1a 00
        E 60 90 18 60
        E 60 80 18 00
        E 60 90 1a 60
        E 60 80 1a 00
        E 60 90 18 60
        E 60 80 18 00
        E 60 90 1a 60
        E 60 80 1a 00
        E 60 90 18 60
        E 60 80 18 00
        E 60 90 19 60
        E 0 90 1a 60
        E 60 80 19 00
        E 0 80 1a 00
        E 60 90 19 60
        E 60 80 19 00
        E 60 90 1a 60
        E 60 80 1a 00
        E 60 90 18 60
        E 60 80 18 00
        E 60 90 1a 60
        E 60 80 1a 00
        E 60 90 18 60
        E 60 80 18 00
        E 60 90 1a 60
        E 60 80 1a 00
        E 60 90 19 60
        E 60 80 19 00
        E 60 90 19 60
        E 0 90 1a 60
        E 60 80 19 00
        E 0 80 1a 00
        E 60 90 18 60
        E 60 80 18 00
        E 60 90 1a 60
        E 60 80 1a 00
        E 180 90 18 60
        E 0 90 1a 60
        E 60 80 18 00
        E 0 80 1a 00
        E 180 90 19 60
        E 0 90 1a 60
        E 60 80 19 00
        E 0 80 1a 00
        E 60 90 19 60
        E 60 80 19 00
        E 60 90 1a 60
        E 60 80 1a 00
        E 60 90 18 60
        E 60 80 18 00
        E 60 90 1a 60
        E 60 80 1a 00
        E 60 90 18 60
        E 60 80 18 00
        E 60 90 1a 60
        E 60 80 1a 00
        E 60 90 19 60
        E 60 80 19 00
        E 60 90 19 60
        E 0 90 1a 60
        E 60 80 19 00
        E 0 80 1a 00
        E 60 90 18 60
        E 60 80 18 00
        E 60 90 1a 60
        E 60 80 1a 00
        E 60 90 18 60
        E 60 80 18 00
        E 60 90 1a 60
        E 60 80 1a 00
        E 60 90 18 60
        E 60 80 18 00
        E 60 90 19 60
        E 0 90 1a 60
        E 60 80 19 00
        E 0 80 1a 00
        E 60 90 18 60
        E 60 80 18 00
        E 60 90 1a 60
        E 60 80 1a 00
        E 60 90 18 60
        E 0 90 19 60
        E 60 80 18 00
        E 0 80 19 00
        E 60 90 1a 60
        E 60 80 1a 00
        E 60 90 18 60
        E 60 80 18 00
        E 60 90 19 60
        E 0 90 1a 60
        E 60 80 19 00
        E 0 80 1a 00
        E 180 90 1a 60
        E 60 80 1a 00
        E 180 90 18 60
        E 0 90 1a 60
        E 60 80 18 00
        E 0 80 1a 00
        E 180 90 1a 60
        E 60 80 1a 00
        E 60 90 18 60
        E 60 80 18 00
        E 60 90 19 60
        E 0 90 1a 60
        E 60 80 19 00
        E 0 80 1a 00
        E 60 90 19 60
        E 60 80 19 00
        E 60 90 1a 60
        E 60 80 1a 00
        E 60 90 18 60
        E 60 80 18 00
        E 60 90 1a 60
        E 60 80 1a 00
        E 60 90 18 60
        E 60 80 18 00
        E 60 90 1a 60
        E 60 80 1a 00
        E 60 90 19 60
        E 60 80 19 00
        E 60 90 19 60
        E 0 90 1a 60
        E 60 80 19 00
        E 0 80 1a 00
        E 60 90 18 60
        E 60 80 18 00
        E 60 90 1a 60
        E 60 80 1a 00
        E 180 90 18 60
        E 0 90 1a 60
        E 60 80 18 00
        E 0 80 1a 00
        E 180 90 19 60
        E 0 90 1a 60
        E 60 80 19 00
        E 0 80 1a 00
        E 60 90 19 60
        E 60 80 19 00
        E 60 90 1a 60
        E 60 80 1a 00
        E 60 90 18 60
        E 60 80 18 00
        E 60 90 1a 60
        E 60 80 1a 00
        E 60 90 18 60
        E 60 80 18 00
        E 60 90 1a 60
        E 60 80 1a 00
        E 60 90 19 60
        E 60 80 19 00
        E 60 90 19 60
        E 0 90 1a 60
        E 60 80 19 00
        E 0 80 1a 00
        E 60 90 18 60
        E 60 80 18 00
        E 60 90 1a 60
        E 60 80 1a 00
        E 180 90 18 60
        E 0 90 1a 60
        E 60 80 18 00
        E 0 80 1a 00
        E 180 90 19 60
        E 0 90 1a 60
        E 60 80 19 00
        E 0 80 1a 00
        E 60 90 19 60
        E 60 80 19 00
        E 60 90 1a 60
        E 60 80 1a 00
        E 60 90 18 60
        E 60 80 18 00
        E 60 90 1a 60
        E 60 80 1a 00
        E 60 90 18 60
        E 60 80 18 00
        E 60 90 1a 60
        E 60 80 1a 00
        E 60 90 19 60
        E 60 80 19 00
        E 60 90 19 60
        E 0 90 1a 60
        E 60 80 19 00
        E 0 80 1a 00
        E 60 90 18 60
        E 60 80 18 00
        E 60 90 18 60
        E 0 90 1a 60
        E 60 80 18 00
        E 0 80 1a 00
        E 180 90 1a 60
        E 60 80 1a 00
        E 180 90 18 60
        E 0 90 19 60
        E 0 90 1a 60
        E 60 80 18 00
        E 0 80 19 00
        E 0 80 1a 00
        E 100 90 18 60
        E 60 80 18 00
        E 20 90 1a 60
        E 60 80 1a 00
        E 20 90 18 60
        E 60 80 18 00
        E 20 90 19 60
        E 60 80 19 00
        E 20 90 19 60
        E 0 90 1a 60
        E 60 80 19 00
        E 0 80 1a 00
        E 100 90 19 60
        E 60 80 19 00
        E 20 90 1a 60
        E 60 80 1a 00
        E 180 90 1a 60
        E 60 80 1a 00
        E 180 90 18 60
        E 0 90 1a 60
        E 60 80 18 00
        E 0 80 1a 00
        E 180 90 1a 60
        E 60 80 1a 00
        E 180 90 1a 60
        E 60 80 1a 00
        E 180 90 1a 60
        E 60 80 1a 00
        E 180 90 1a 60
        E 60 80 1a 00
        E 180 90 1a 60
        E 60 80 1a 00
        E 180 90 1a 60
        E 60 80 1a 00
        <X 180 0
          /wFbcHJjX291dHJvX2Nob3J1c10=
        >
        <X 0 0
          /wFbY3Jvd2Rfbm9ybWFsXQ==
        >
        E 0 90 18 60
        E 0 90 1a 60
        E 60 80 18 00
        E 0 80 1a 00
        E 180 90 1a 60
        E 60 80 1a 00
        E 180 90 19 60
        E 0 90 1a 60
        E 60 80 19 00
        E 0 80 1a 00
        E 60 90 18 60
        E 60 80 18 00
        E 60 90 19 60
        E 0 90 1a 60
        E 60 80 19 00
        E 0 80 1a 00
        E 0 90 19 60
        E 60 80 19 00
        E 0 90 19 60
        E 60 80 19 00
        E 60 90 1a 60
        E 60 80 1a 00
        E 180 90 1a 60
        E 60 80 1a 00
        E 180 90 1a 60
        E 60 80 1a 00
        E 180 90 1a 60
        E 60 80 1a 00
        E 180 90 1a 60
        E 60 80 1a 00
        E 180 90 19 60
        E 0 90 1a 60
        E 60 80 19 00
        E 0 80 1a 00
        E 60 90 19 60
        E 60 80 19 00
        E 60 90 1a 60
        E 60 80 1a 00
        E 60 90 18 60
        E 60 80 18 00
        E 60 90 1a 60
        E 60 80 1a 00
        E 60 90 18 60
        E 60 80 18 00
        E 60 90 1a 60
        E 60 80 1a 00
        E 60 90 19 60
        E 60 80 19 00
        E 60 90 19 60
        E 0 90 1a 60
        E 60 80 19 00
        E 0 80 1a 00
        E 60 90 18 60
        E 60 80 18 00
        E 60 90 1a 60
        E 60 80 1a 00
        E 60 90 18 60
        E 60 80 18 00
        E 60 90 1a 60
        E 60 80 1a 00
        E 60 90 18 60
        E 60 80 18 00
        E 60 90 19 60
        E 0 90 1a 60
        E 60 80 19 00
        E 0 80 1a 00
        E 60 90 19 60
        E 60 80 19 00
        E 60 90 1a 60
        E 60 80 1a 00
        E 60 90 18 60
        E 60 80 18 00
        E 60 90 1a 60
        E 60 80 1a 00
        E 60 90 18 60
        E 60 80 18 00
        E 60 90 1a 60
        E 60 80 1a 00
        E 60 90 19 60
        E 60 80 19 00
        E 60 90 19 60
        E 0 90 1a 60
        E 60 80 19 00
        E 0 80 1a 00
        E 60 90 18 60
        E 60 80 18 00
        E 60 90 1a 60
        E 60 80 1a 00
        E 180 90 18 60
        E 0 90 1a 60
        E 60 80 18 00
        E 0 80 1a 00
        E 180 90 19 60
        E 0 90 1a 60
        E 60 80 19 00
        E 0 80 1a 00
        E 60 90 19 60
        E 60 80 19 00
        E 60 90 1a 60
        E 60 80 1a 00
        E 60 90 18 60
        E 60 80 18 00
        E 60 90 1a 60
        E 60 80 1a 00
        E 60 90 18 60
        E 60 80 18 00
        E 60 90 1a 60
        E 60 80 1a 00
        E 60 90 19 60
        E 60 80 19 00
        E 60 90 19 60
        E 0 90 1a 60
        E 60 80 19 00
        E 0 80 1a 00
        E 60 90 18 60
        E 60 80 18 00
        E 60 90 18 60
        E 0 90 1a 60
        E 60 80 18 00
        E 0 80 1a 00
        E 60 90 18 60
        E 60 80 18 00
        E 60 90 1a 60
        E 60 80 1a 00
        E 60 90 18 60
        E 60 80 18 00
        E 60 90 19 60
        E 0 90 1a 60
        E 60 80 19 00
        E 0 80 1a 00
        E 60 90 18 60
        E 60 80 18 00
        E 60 90 1a 60
        E 60 80 1a 00
        E 60 90 18 60
        E 0 90 19 60
        E 60 80 18 00
        E 0 80 19 00
        E 60 90 1a 60
        E 60 80 1a 00
        E 60 90 18 60
        E 60 80 18 00
        E 60 90 19 60
        E 0 90 1a 60
        E 60 80 19 00
        E 0 80 1a 00
        E 180 90 1a 60
        E 60 80 1a 00
        E 180 90 18 60
        E 0 90 1a 60
        E 60 80 18 00
        E 0 80 1a 00
        E 180 90 1a 60
        E 60 80 1a 00
        E 60 90 18 60
        E 60 80 18 00
        E 60 90 19 60
        E 0 90 1a 60
        E 60 80 19 00
        E 0 80 1a 00
        E 60 90 19 60
        E 60 80 19 00
        E 60 90 1a 60
        E 60 80 1a 00
        E 60 90 18 60
        E 60 80 18 00
        E 60 90 1a 60
        E 60 80 1a 00
        E 60 90 18 60
        E 60 80 18 00
        E 60 90 1a 60
        E 60 80 1a 00
        E 60 90 19 60
        E 60 80 19 00
        E 60 90 19 60
        E 0 90 1a 60
        E 60 80 19 00
        E 0 80 1a 00
        E 60 90 18 60
        E 60 80 18 00
        E 60 90 1a 60
        E 60 80 1a 00
        E 180 90 18 60
        E 0 90 1a 60
        E 60 80 18 00
        E 0 80 1a 00
        E 180 90 19 60
        E 0 90 1a 60
        E 60 80 19 00
        E 0 80 1a 00
        E 60 90 19 60
        E 60 80 19 00
        E 60 90 1a 60
        E 60 80 1a 00
        E 60 90 18 60
        E 60 80 18 00
        E 60 90 1a 60
        E 60 80 1a 00
        E 60 90 18 60
        E 60 80 18 00
        E 60 90 1a 60
        E 60 80 1a 00
        E 60 90 19 60
        E 60 80 19 00
        E 60 90 19 60
        E 0 90 1a 60
        E 60 80 19 00
        E 0 80 1a 00
        E 60 90 18 60
        E 60 80 18 00
        E 60 90 1a 60
        E 60 80 1a 00
        E 180 90 18 60
        E 0 90 1a 60
        E 60 80 18 00
        E 0 80 1a 00
        E 180 90 19 60
        E 0 90 1a 60
        E 60 80 19 00
        E 0 80 1a 00
        E 60 90 19 60
        E 60 80 19 00
        E 60 90 1a 60
        E 60 80 1a 00
        E 60 90 18 60
        E 60 80 18 00
        E 60 90 1a 60
        E 60 80 1a 00
        E 60 90 18 60
        E 60 80 18 00
        E 60 90 1a 60
        E 60 80 1a 00
        E 60 90 19 60
        E 60 80 19 00
        E 60 90 19 60
        E 0 90 1a 60
        E 60 80 19 00
        E 0 80 1a 00
        E 60 90 18 60
        E 60 80 18 00
        E 60 90 18 60
        E 0 90 1a 60
        E 60 80 18 00
        E 0 80 1a 00
        E 180 90 1a 60
        E 60 80 1a 00
        E 180 90 19 60
        E 0 90 1a 60
        E 60 80 19 00
        E 0 80 1a 00
        E 60 90 18 60
        E 60 80 18 00
        E 60 90 19 60
        E 0 90 1a 60
        E 60 80 19 00
        E 0 80 1a 00
        E 0 90 19 60
        E 60 80 19 00
        E 0 90 19 60
        E 60 80 19 00
        E 60 90 1a 60
        E 60 80 1a 00
        E 180 90 1a 60
        E 60 80 1a 00
        E 180 90 1a 60
        E 60 80 1a 00
        E 180 90 18 60
        E 0 90 1a 60
        E 60 80 18 00
        E 0 80 1a 00
        E 180 90 1a 60
        E 60 80 1a 00
        E 60 90 18 60
        E 60 80 18 00
        E 60 90 1a 60
        E 60 80 1a 00
        E 180 90 18 60
        E 0 90 1a 60
        E 60 80 18 00
        E 0 80 1a 00
        E 180 90 1a 60
        E 60 80 1a 00
        E 180 90 1a 60
        E 60 80 1a 00
        E 180 90 1a 60
        E 60 80 1a 00
        E 180 90 1a 60
        E 60 80 1a 00
        E 180 90 1a 60
        E 60 80 1a 00
        E 180 90 1a 60
        E 60 80 1a 00
        E 180 90 1a 60
        E 60 80 1a 00
        E 180 90 1a 60
        E 60 80 1a 00
        E 180 90 19 60
        E 0 90 1a 60
        E 60 80 19 00
        E 0 80 1a 00
        E 180 90 1a 60
        E 60 80 1a 00
        E 180 90 18 60
        E 0 90 1a 60
        E 60 80 18 00
        E 0 80 1a 00
        E 180 90 1a 60
        E 60 80 1a 00
        E 60 90 18 60
        E 60 80 18 00
        E 60 90 1a 60
        E 60 80 1a 00
        E 180 90 18 60
        E 0 90 1a 60
        E 60 80 18 00
        E 0 80 1a 00
        E 180 90 1a 60
        E 60 80 1a 00
        E 180 90 1a 60
        E 60 80 1a 00
        E 180 90 1a 60
        E 60 80 1a 00
        E 180 90 1a 60
        E 60 80 1a 00
        E 180 90 1a 60
        E 60 80 1a 00
        <X 180 0
          /wFbY3Jvd2RfcmVhbHRpbWVd
        >
        <X 720 0
          /wFbbXVzaWNfZW5kXQ==
        >
        <X 2158 0
          /wFbZW5kXQ==
        >
        E 2 b0 7b 00
        GUID {2AB62852-FD8E-4191-A4ED-06DCC90A1138}
        IGNTEMPO 0 120.00000000 4 4
        SRCCOLOR 347
        VELLANE 132 128 60
        COLORMAP "C:\Program Files (x86)\REAPER\Data\color_maps\rockband_guitarbass.png"
        TEXTSTRINGFILE "C:\Program Files\REAPER (x64)\Data\Text_Strings\Text Events List - Events.txt"
        CFGEDITVIEW 70907.864944 68.180871 76 12 0 0 0
        CFGEDIT 1 1 0 1 1 0 1 1 1 1 1 0.12500000 -8 -8 1370 736 0 0 1 2 0.00000000 0 1 0 0 0.500000 0 0 1.000000 64
        KEYSNAP 0 0 "102034050607" 0 "Major"
        EVTFILTER 0 -1 -1 -1 -1 0 1 0 0 -1.00000000 -1.00000000
      >
    >
  >
  <TRACK '{FA01CA24-EF04-4840-B200-513F1777B489}'
    NAME "BEAT"
    PEAKCOL 16576
    BEAT -1
    AUTOMODE 0
    VOLPAN 1.00000000000000 0.00000000000000 -1.00000000000000 -1.00000000000000 1.00000000000000
    MUTESOLO 0 0 0
    IPHASE 0
    ISBUS 0 0
    BUSCOMP 0 0
    SHOWINMIX 1 0.666700 0.500000 1 0.500000 -1 -1 -1
    FREEMODE 0
    SEL 0
    REC 0 0 0 0 0 0 0
    VU 2
    TRACKHEIGHT 0 0
    INQ 0 0 0 0.5000000000 100 0 0 100
    NCHAN 2
    FX 1
    TRACKID {FA01CA24-EF04-4840-B200-513F1777B489}
    PERF 0
    MIDIOUT -1
    <MIDINOTENAMES
      0 13 "Up Beats"
      0 12 "Downbeat"
    >
    MAINSEND 1 0
    <FXCHAIN
      SHOW 0
      LASTSEL 0
      DOCKED 0
    >
    <ITEM
      POSITION 0.00000000000000
      SNAPOFFS 0.00000000000000
      LENGTH 91.00000000000000
      LOOP 0
      ALLTAKES 0
      SEL 0
      FADEIN 1 0.000000 0.000000 1 0
      FADEOUT 1 0.000000 0.000000 1 0
      MUTE 0
      IGUID {71EFFD3D-9C9D-404F-B18A-D05122A2610F}
      IID 14
      NAME "BEAT"
      VOLPAN 1.000000 0.000000 1.000000 -1.000000
      SOFFS 0.00000000000000 0.00000000000000
      PLAYRATE 1.00000000000000 1 0.00000000000000 -1
      CHANMODE 0
      GUID {438E13F3-FDA1-40BC-8ECB-51700E6343ED}
      <SOURCE MIDI
        HASDATA 1 480 QN
        POOLEDEVTS {7B0D45B9-656C-46C8-878C-26A8D1209397}
        <X 0 0
          /wNCRUFU
        >
        E 0 90 0c 60
        E 120 80 0c 00
        E 120 90 0d 60
        E 120 80 0d 00
        E 120 90 0d 60
        E 120 80 0d 00
        E 120 90 0d 60
        E 120 80 0d 00
        E 120 90 0d 60
        E 120 80 0d 00
        E 120 90 0d 60
        E 120 80 0d 00
        E 120 90 0d 60
        E 120 80 0d 00
        E 120 90 0c 60
        E 120 80 0c 00
        E 120 90 0d 60
        E 120 80 0d 00
        E 120 90 0d 60
        E 120 80 0d 00
        E 120 90 0d 60
        E 120 80 0d 00
        E 120 90 0d 60
        E 120 80 0d 00
        E 120 90 0d 60
        E 120 80 0d 00
        E 120 90 0d 60
        E 120 80 0d 00
        E 120 90 0c 60
        E 120 80 0c 00
        E 120 90 0d 60
        E 120 80 0d 00
        E 120 90 0d 60
        E 120 80 0d 00
        E 120 90 0d 60
        E 120 80 0d 00
        E 120 90 0d 60
        E 120 80 0d 00
        E 120 90 0d 60
        E 120 80 0d 00
        E 120 90 0d 60
        E 120 80 0d 00
        E 120 90 0c 60
        E 120 80 0c 00
        E 120 90 0d 60
        E 120 80 0d 00
        E 120 90 0d 60
        E 120 80 0d 00
        E 120 90 0d 60
        E 120 80 0d 00
        E 120 90 0d 60
        E 120 80 0d 00
        E 120 90 0d 60
        E 120 80 0d 00
        E 120 90 0d 60
        E 120 80 0d 00
        E 120 90 0c 60
        E 120 80 0c 00
        E 120 90 0d 60
        E 120 80 0d 00
        E 120 90 0d 60
        E 120 80 0d 00
        E 120 90 0d 60
        E 120 80 0d 00
        E 120 90 0d 60
        E 120 80 0d 00
        E 120 90 0d 60
        E 120 80 0d 00
        E 120 90 0d 60
        E 120 80 0d 00
        E 120 90 0c 60
        E 120 80 0c 00
        E 120 90 0d 60
        E 120 80 0d 00
        E 120 90 0d 60
        E 120 80 0d 00
        E 120 90 0d 60
        E 120 80 0d 00
        E 120 90 0d 60
        E 120 80 0d 00
        E 120 90 0d 60
        E 120 80 0d 00
        E 120 90 0d 60
        E 120 80 0d 00
        E 120 90 0c 60
        E 120 80 0c 00
        E 120 90 0d 60
        E 120 80 0d 00
        E 120 90 0d 60
        E 120 80 0d 00
        E 120 90 0d 60
        E 120 80 0d 00
        E 120 90 0d 60
        E 120 80 0d 00
        E 120 90 0d 60
        E 120 80 0d 00
        E 120 90 0d 60
        E 120 80 0d 00
        E 120 90 0c 60
        E 120 80 0c 00
        E 120 90 0d 60
        E 120 80 0d 00
        E 120 90 0d 60
        E 120 80 0d 00
        E 120 90 0d 60
        E 120 80 0d 00
        E 120 90 0d 60
        E 120 80 0d 00
        E 120 90 0d 60
        E 120 80 0d 00
        E 120 90 0d 60
        E 120 80 0d 00
        E 120 90 0c 60
        E 120 80 0c 00
        E 120 90 0d 60
        E 120 80 0d 00
        E 120 90 0d 60
        E 120 80 0d 00
        E 120 90 0d 60
        E 120 80 0d 00
        E 120 90 0d 60
        E 120 80 0d 00
        E 120 90 0d 60
        E 120 80 0d 00
        E 120 90 0d 60
        E 120 80 0d 00
        E 120 90 0c 60
        E 120 80 0c 00
        E 120 90 0d 60
        E 120 80 0d 00
        E 120 90 0d 60
        E 120 80 0d 00
        E 120 90 0d 60
        E 120 80 0d 00
        E 120 90 0d 60
        E 120 80 0d 00
        E 120 90 0d 60
        E 120 80 0d 00
        E 120 90 0d 60
        E 120 80 0d 00
        E 120 90 0c 60
        E 120 80 0c 00
        E 120 90 0d 60
        E 120 80 0d 00
        E 120 90 0d 60
        E 120 80 0d 00
        E 120 90 0d 60
        E 120 80 0d 00
        E 120 90 0d 60
        E 120 80 0d 00
        E 120 90 0d 60
        E 120 80 0d 00
        E 120 90 0d 60
        E 120 80 0d 00
        E 120 90 0c 60
        E 120 80 0c 00
        E 120 90 0d 60
        E 120 80 0d 00
        E 120 90 0d 60
        E 120 80 0d 00
        E 120 90 0d 60
        E 120 80 0d 00
        E 120 90 0d 60
        E 120 80 0d 00
        E 120 90 0d 60
        E 120 80 0d 00
        E 120 90 0d 60
        E 120 80 0d 00
        E 120 90 0c 60
        E 120 80 0c 00
        E 120 90 0d 60
        E 120 80 0d 00
        E 120 90 0d 60
        E 120 80 0d 00
        E 120 90 0d 60
        E 120 80 0d 00
        E 120 90 0d 60
        E 120 80 0d 00
        E 120 90 0d 60
        E 120 80 0d 00
        E 120 90 0d 60
        E 120 80 0d 00
        E 120 90 0c 60
        E 120 80 0c 00
        E 120 90 0d 60
        E 120 80 0d 00
        E 120 90 0d 60
        E 120 80 0d 00
        E 120 90 0d 60
        E 120 80 0d 00
        E 120 90 0d 60
        E 120 80 0d 00
        E 120 90 0d 60
        E 120 80 0d 00
        E 120 90 0d 60
        E 120 80 0d 00
        E 120 90 0c 60
        E 120 80 0c 00
        E 120 90 0d 60
        E 120 80 0d 00
        E 120 90 0d 60
        E 120 80 0d 00
        E 120 90 0d 60
        E 120 80 0d 00
        E 120 90 0d 60
        E 120 80 0d 00
        E 120 90 0d 60
        E 120 80 0d 00
        E 120 90 0d 60
        E 120 80 0d 00
        E 120 90 0c 60
        E 120 80 0c 00
        E 120 90 0d 60
        E 120 80 0d 00
        E 120 90 0d 60
        E 120 80 0d 00
        E 120 90 0d 60
        E 120 80 0d 00
        E 120 90 0d 60
        E 120 80 0d 00
        E 120 90 0d 60
        E 120 80 0d 00
        E 120 90 0d 60
        E 120 80 0d 00
        E 120 90 0c 60
        E 120 80 0c 00
        E 120 90 0d 60
        E 120 80 0d 00
        E 120 90 0d 60
        E 120 80 0d 00
        E 120 90 0d 60
        E 120 80 0d 00
        E 120 90 0d 60
        E 120 80 0d 00
        E 120 90 0d 60
        E 120 80 0d 00
        E 120 90 0d 60
        E 120 80 0d 00
        E 120 90 0c 60
        E 120 80 0c 00
        E 120 90 0d 60
        E 120 80 0d 00
        E 120 90 0d 60
        E 120 80 0d 00
        E 120 90 0d 60
        E 120 80 0d 00
        E 120 90 0d 60
        E 120 80 0d 00
        E 120 90 0d 60
        E 120 80 0d 00
        E 120 90 0d 60
        E 120 80 0d 00
        E 120 90 0c 60
        E 120 80 0c 00
        E 120 90 0d 60
        E 120 80 0d 00
        E 120 90 0d 60
        E 120 80 0d 00
        E 120 90 0d 60
        E 120 80 0d 00
        E 120 90 0d 60
        E 120 80 0d 00
        E 120 90 0d 60
        E 120 80 0d 00
        E 120 90 0d 60
        E 120 80 0d 00
        E 120 90 0c 60
        E 120 80 0c 00
        E 120 90 0d 60
        E 120 80 0d 00
        E 120 90 0d 60
        E 120 80 0d 00
        E 120 90 0d 60
        E 120 80 0d 00
        E 120 90 0d 60
        E 120 80 0d 00
        E 120 90 0d 60
        E 120 80 0d 00
        E 120 90 0d 60
        E 120 80 0d 00
        E 120 90 0c 60
        E 120 80 0c 00
        E 120 90 0d 60
        E 120 80 0d 00
        E 120 90 0d 60
        E 120 80 0d 00
        E 120 90 0d 60
        E 120 80 0d 00
        E 120 90 0d 60
        E 120 80 0d 00
        E 120 90 0d 60
        E 120 80 0d 00
        E 120 90 0d 60
        E 120 80 0d 00
        E 120 90 0c 60
        E 120 80 0c 00
        E 120 90 0d 60
        E 120 80 0d 00
        E 120 90 0d 60
        E 120 80 0d 00
        E 120 90 0d 60
        E 120 80 0d 00
        E 120 90 0d 60
        E 120 80 0d 00
        E 120 90 0d 60
        E 120 80 0d 00
        E 120 90 0d 60
        E 120 80 0d 00
        E 120 90 0c 60
        E 120 80 0c 00
        E 120 90 0d 60
        E 120 80 0d 00
        E 120 90 0d 60
        E 120 80 0d 00
        E 120 90 0d 60
        E 120 80 0d 00
        E 120 90 0d 60
        E 120 80 0d 00
        E 120 90 0d 60
        E 120 80 0d 00
        E 120 90 0d 60
        E 120 80 0d 00
        E 120 90 0c 60
        E 120 80 0c 00
        E 120 90 0d 60
        E 120 80 0d 00
        E 120 90 0d 60
        E 120 80 0d 00
        E 120 90 0d 60
        E 120 80 0d 00
        E 120 90 0d 60
        E 120 80 0d 00
        E 120 90 0d 60
        E 120 80 0d 00
        E 120 90 0d 60
        E 120 80 0d 00
        E 120 90 0c 60
        E 120 80 0c 00
        E 120 90 0d 60
        E 120 80 0d 00
        E 120 90 0d 60
        E 120 80 0d 00
        E 120 90 0d 60
        E 120 80 0d 00
        E 120 90 0d 60
        E 120 80 0d 00
        E 120 90 0d 60
        E 120 80 0d 00
        E 120 90 0d 60
        E 120 80 0d 00
        E 120 90 0c 60
        E 120 80 0c 00
        E 120 90 0d 60
        E 120 80 0d 00
        E 120 90 0d 60
        E 120 80 0d 00
        E 120 90 0d 60
        E 120 80 0d 00
        E 120 90 0d 60
        E 120 80 0d 00
        E 120 90 0d 60
        E 120 80 0d 00
        E 120 90 0d 60
        E 120 80 0d 00
        E 120 90 0c 60
        E 120 80 0c 00
        E 120 90 0d 60
        E 120 80 0d 00
        E 120 90 0d 60
        E 120 80 0d 00
        E 120 90 0d 60
        E 120 80 0d 00
        E 120 90 0d 60
        E 120 80 0d 00
        E 120 90 0d 60
        E 120 80 0d 00
        E 120 90 0d 60
        E 120 80 0d 00
        E 120 90 0c 60
        E 120 80 0c 00
        E 120 90 0d 60
        E 120 80 0d 00
        E 120 90 0d 60
        E 120 80 0d 00
        E 120 90 0d 60
        E 120 80 0d 00
        E 120 90 0d 60
        E 120 80 0d 00
        E 120 90 0d 60
        E 120 80 0d 00
        E 120 90 0d 60
        E 120 80 0d 00
        E 120 90 0c 60
        E 120 80 0c 00
        E 120 90 0d 60
        E 120 80 0d 00
        E 120 90 0d 60
        E 120 80 0d 00
        E 120 90 0d 60
        E 120 80 0d 00
        E 120 90 0d 60
        E 120 80 0d 00
        E 120 90 0d 60
        E 120 80 0d 00
        E 120 90 0d 60
        E 120 80 0d 00
        E 120 90 0c 60
        E 120 80 0c 00
        E 120 90 0d 60
        E 120 80 0d 00
        E 120 90 0d 60
        E 120 80 0d 00
        E 120 90 0d 60
        E 120 80 0d 00
        E 120 90 0d 60
        E 120 80 0d 00
        E 120 90 0d 60
        E 120 80 0d 00
        E 120 90 0d 60
        E 120 80 0d 00
        E 120 90 0c 60
        E 120 80 0c 00
        E 120 90 0d 60
        E 120 80 0d 00
        E 120 90 0d 60
        E 120 80 0d 00
        E 120 90 0d 60
        E 120 80 0d 00
        E 120 90 0d 60
        E 120 80 0d 00
        E 120 90 0d 60
        E 120 80 0d 00
        E 120 90 0d 60
        E 120 80 0d 00
        E 120 90 0c 60
        E 120 80 0c 00
        E 120 90 0d 60
        E 120 80 0d 00
        E 120 90 0d 60
        E 120 80 0d 00
        E 120 90 0d 60
        E 120 80 0d 00
        E 120 90 0d 60
        E 120 80 0d 00
        E 120 90 0d 60
        E 120 80 0d 00
        E 120 90 0d 60
        E 120 80 0d 00
        E 120 90 0c 60
        E 120 80 0c 00
        E 120 90 0d 60
        E 120 80 0d 00
        E 120 90 0d 60
        E 120 80 0d 00
        E 120 90 0d 60
        E 120 80 0d 00
        E 120 90 0d 60
        E 120 80 0d 00
        E 120 90 0d 60
        E 120 80 0d 00
        E 120 90 0d 60
        E 120 80 0d 00
        E 120 90 0c 60
        E 120 80 0c 00
        E 120 90 0d 60
        E 120 80 0d 00
        E 120 90 0d 60
        E 120 80 0d 00
        E 120 90 0d 60
        E 120 80 0d 00
        E 120 90 0d 60
        E 120 80 0d 00
        E 120 90 0d 60
        E 120 80 0d 00
        E 120 90 0d 60
        E 120 80 0d 00
        E 120 90 0c 60
        E 120 80 0c 00
        E 120 90 0d 60
        E 120 80 0d 00
        E 120 90 0d 60
        E 120 80 0d 00
        E 120 90 0d 60
        E 120 80 0d 00
        E 120 90 0d 60
        E 120 80 0d 00
        E 120 90 0d 60
        E 120 80 0d 00
        E 120 90 0d 60
        E 120 80 0d 00
        E 120 90 0c 60
        E 120 80 0c 00
        E 120 90 0d 60
        E 120 80 0d 00
        E 120 90 0d 60
        E 120 80 0d 00
        E 120 90 0d 60
        E 120 80 0d 00
        E 120 90 0d 60
        E 120 80 0d 00
        E 120 90 0d 60
        E 120 80 0d 00
        E 120 90 0d 60
        E 120 80 0d 00
        E 120 90 0c 60
        E 120 80 0c 00
        E 120 90 0d 60
        E 120 80 0d 00
        E 120 90 0d 60
        E 120 80 0d 00
        E 120 90 0d 60
        E 120 80 0d 00
        E 120 90 0d 60
        E 120 80 0d 00
        E 120 90 0d 60
        E 120 80 0d 00
        E 120 90 0d 60
        E 120 80 0d 00
        E 120 90 0c 60
        E 120 80 0c 00
        E 120 90 0d 60
        E 120 80 0d 00
        E 120 90 0d 60
        E 120 80 0d 00
        E 120 90 0d 60
        E 120 80 0d 00
        E 120 90 0d 60
        E 120 80 0d 00
        E 120 90 0d 60
        E 120 80 0d 00
        E 120 90 0d 60
        E 120 80 0d 00
        E 120 90 0c 60
        E 120 80 0c 00
        E 120 90 0d 60
        E 120 80 0d 00
        E 120 90 0d 60
        E 120 80 0d 00
        E 120 90 0d 60
        E 120 80 0d 00
        E 120 90 0d 60
        E 120 80 0d 00
        E 120 90 0d 60
        E 120 80 0d 00
        E 120 90 0d 60
        E 120 80 0d 00
        E 120 90 0c 60
        E 120 80 0c 00
        E 120 90 0d 60
        E 120 80 0d 00
        E 120 90 0d 60
        E 120 80 0d 00
        E 120 90 0d 60
        E 120 80 0d 00
        E 120 90 0d 60
        E 120 80 0d 00
        E 120 90 0d 60
        E 120 80 0d 00
        E 120 90 0d 60
        E 120 80 0d 00
        E 120 90 0c 60
        E 120 80 0c 00
        E 120 90 0d 60
        E 120 80 0d 00
        E 120 90 0d 60
        E 120 80 0d 00
        E 120 90 0d 60
        E 120 80 0d 00
        E 120 90 0d 60
        E 120 80 0d 00
        E 120 90 0d 60
        E 120 80 0d 00
        E 120 90 0d 60
        E 120 80 0d 00
        E 120 90 0c 60
        E 120 80 0c 00
        E 120 90 0d 60
        E 120 80 0d 00
        E 120 90 0d 60
        E 120 80 0d 00
        E 120 90 0d 60
        E 120 80 0d 00
        E 120 90 0d 60
        E 120 80 0d 00
        E 120 90 0d 60
        E 120 80 0d 00
        E 120 90 0d 60
        E 120 80 0d 00
        E 120 90 0c 60
        E 120 80 0c 00
        E 120 90 0d 60
        E 120 80 0d 00
        E 120 90 0d 60
        E 120 80 0d 00
        E 120 90 0d 60
        E 120 80 0d 00
        E 120 90 0d 60
        E 120 80 0d 00
        E 120 90 0d 60
        E 120 80 0d 00
        E 120 90 0d 60
        E 120 80 0d 00
        E 120 90 0c 60
        E 120 80 0c 00
        E 120 90 0d 60
        E 120 80 0d 00
        E 120 90 0d 60
        E 120 80 0d 00
        E 120 90 0d 60
        E 120 80 0d 00
        E 120 90 0d 60
        E 120 80 0d 00
        E 120 90 0d 60
        E 120 80 0d 00
        E 120 90 0d 60
        E 120 80 0d 00
        E 120 90 0c 60
        E 120 80 0c 00
        E 120 90 0d 60
        E 120 80 0d 00
        E 120 90 0d 60
        E 120 80 0d 00
        E 120 90 0d 60
        E 120 80 0d 00
        E 120 90 0d 60
        E 120 80 0d 00
        E 120 90 0d 60
        E 120 80 0d 00
        E 120 90 0d 60
        E 120 80 0d 00
        E 120 90 0c 60
        E 120 80 0c 00
        E 120 90 0d 60
        E 120 80 0d 00
        E 120 90 0d 60
        E 120 80 0d 00
        E 120 90 0d 60
        E 120 80 0d 00
        E 120 90 0d 60
        E 120 80 0d 00
        E 120 90 0d 60
        E 120 80 0d 00
        E 120 90 0d 60
        E 120 80 0d 00
        E 120 90 0c 60
        E 120 80 0c 00
        E 120 90 0d 60
        E 120 80 0d 00
        E 120 90 0d 60
        E 120 80 0d 00
        E 120 90 0d 60
        E 120 80 0d 00
        E 120 90 0d 60
        E 120 80 0d 00
        E 120 90 0d 60
        E 120 80 0d 00
        E 120 90 0d 60
        E 120 80 0d 00
        E 120 90 0c 60
        E 120 80 0c 00
        E 120 90 0d 60
        E 120 80 0d 00
        E 120 90 0d 60
        E 120 80 0d 00
        E 120 90 0d 60
        E 120 80 0d 00
        E 120 90 0d 60
        E 120 80 0d 00
        E 120 90 0d 60
        E 120 80 0d 00
        E 120 90 0d 60
        E 120 80 0d 00
        E 120 90 0c 60
        E 120 80 0c 00
        E 120 90 0d 60
        E 120 80 0d 00
        E 120 90 0d 60
        E 120 80 0d 00
        E 120 90 0d 60
        E 120 80 0d 00
        E 120 90 0d 60
        E 120 80 0d 00
        E 120 90 0d 60
        E 120 80 0d 00
        E 120 90 0d 60
        E 120 80 0d 00
        E 120 90 0c 60
        E 120 80 0c 00
        E 120 90 0d 60
        E 120 80 0d 00
        E 120 90 0d 60
        E 120 80 0d 00
        E 120 90 0d 60
        E 120 80 0d 00
        E 120 90 0d 60
        E 120 80 0d 00
        E 120 90 0d 60
        E 120 80 0d 00
        E 120 90 0d 60
        E 120 80 0d 00
        E 120 90 0c 60
        E 120 80 0c 00
        E 120 90 0d 60
        E 120 80 0d 00
        E 120 90 0d 60
        E 120 80 0d 00
        E 120 90 0d 60
        E 120 80 0d 00
        E 120 90 0d 60
        E 120 80 0d 00
        E 120 90 0d 60
        E 120 80 0d 00
        E 120 90 0d 60
        E 120 80 0d 00
        E 120 90 0c 60
        E 120 80 0c 00
        E 120 90 0d 60
        E 120 80 0d 00
        E 120 90 0d 60
        E 120 80 0d 00
        E 120 90 0d 60
        E 120 80 0d 00
        E 120 90 0d 60
        E 120 80 0d 00
        E 120 90 0d 60
        E 120 80 0d 00
        E 120 90 0d 60
        E 120 80 0d 00
        E 120 b0 7b 00
        GUID {458F54D2-9196-4041-95C1-209AF55C8932}
        IGNTEMPO 0 120.00000000 4 4
        SRCCOLOR 348
        VELLANE 132 128 60
        COLORMAP "C:\Program Files (x86)\REAPER\Data\color_maps\rockband_guitarbass.png"
        CFGEDITVIEW 83093.920482 130.077386 92 12 0 0 0
        CFGEDIT 1 1 0 1 1 0 1 1 1 1 1 0.12500000 -8 -8 1370 736 0 0 1 2 0.00000000 0 1 0 0 0.500000 0 0 1.000000 64
        KEYSNAP 0 0 "102034050607" 0 "Major"
        EVTFILTER 0 -1 -1 -1 -1 0 1 0 0 -1.00000000 -1.00000000
      >
    >
  >
  <TRACK '{E5DE0B27-C3A7-4412-B43A-002417A1ADEE}'
    NAME "backing"
    PEAKCOL 16576
    BEAT -1
    AUTOMODE 0
    VOLPAN 1.00000000000000 0.00000000000000 -1.00000000000000 -1.00000000000000 1.00000000000000
    MUTESOLO 0 0 0
    IPHASE 0
    ISBUS 0 0
    BUSCOMP 0 0
    SHOWINMIX 1 0.666700 0.500000 1 0.500000 -1 -1 -1
    FREEMODE 0
    SEL 0
    REC 0 0 0 0 0 0 0
    VU 2
    TRACKHEIGHT 0 0
    INQ 0 0 0 0.5000000000 100 0 0 100
    NCHAN 2
    FX 1
    TRACKID {E5DE0B27-C3A7-4412-B43A-002417A1ADEE}
    PERF 0
    MIDIOUT -1
    MAINSEND 1 0
    <ITEM
      POSITION 0.00000000000000
      SNAPOFFS 0.00000000000000
      LENGTH 91.00000000000000
      LOOP 0
      ALLTAKES 0
      SEL 0
      FADEIN 1 0.000000 0.000000 1 0
      FADEOUT 1 0.000000 0.000000 1 0
      MUTE 0
      IGUID {6B6C4424-BC06-4A97-880C-33C947CBFE97}
      IID 51
      NAME "backing.wav"
      VOLPAN 1.000000 0.000000 1.000000 -1.000000
      SOFFS 0.00000000000000
      PLAYRATE 1.00000000000000 1 0.00000000000000 -1
      CHANMODE 0
      GUID {4C74B642-FB30-46CF-A109-61E7195B99C8}
      <SOURCE WAVE
        FILE "wav\backing.wav"
      >
    >
  >
  <TRACK '{9150BFD4-D207-401D-BB31-D40815BC3104}'
    NAME "keys"
    PEAKCOL 16576
    BEAT -1
    AUTOMODE 0
    VOLPAN 1.00000000000000 0.00000000000000 -1.00000000000000 -1.00000000000000 1.00000000000000
    MUTESOLO 1 0 0
    IPHASE 0
    ISBUS 0 0
    BUSCOMP 0 0
    SHOWINMIX 1 0.666700 0.500000 1 0.500000 -1 -1 -1
    FREEMODE 0
    SEL 0
    REC 0 0 0 0 0 0 0
    VU 2
    TRACKHEIGHT 0 0
    INQ 0 0 0 0.5000000000 100 0 0 100
    NCHAN 2
    FX 1
    TRACKID {9150BFD4-D207-401D-BB31-D40815BC3104}
    PERF 0
    MIDIOUT -1
    MAINSEND 1 0
    <ITEM
      POSITION 0.00000000000000
      SNAPOFFS 0.00000000000000
      LENGTH 91.00000000000000
      LOOP 0
      ALLTAKES 0
      SEL 0
      FADEIN 1 0.000000 0.000000 1 0
      FADEOUT 1 0.000000 0.000000 1 0
      MUTE 0
      IGUID {74F3BAFF-EDCB-492C-8375-E6074CC3E492}
      IID 54
      NAME "keys.wav"
      VOLPAN 1.000000 0.000000 1.000000 -1.000000
      SOFFS 0.00000000000000
      PLAYRATE 1.00000000000000 1 0.00000000000000 -1
      CHANMODE 0
      GUID {EF00F1CE-12EE-4D08-B004-32DBB9CCB957}
      <SOURCE WAVE
        FILE "wav\keys.wav"
      >
    >
  >
  <EXTENSIONS
  >
>
