<REAPER_PROJECT 0.1 "4.22/x64"
  RIPPLE 0
  GROUPOVERRIDE 0 0 0
  AUTOXFADE 1
  ENVATTACH 1
  MIXERUIFLAGS 11 48
  PEAKGAIN 1.00000000000000
  FEEDBACK 0
  PANLAW 1.00000000000000
  PROJOFFS 0.00000000000000 0
  MAXPROJLEN 0 600.00000000000000
  GRID 3199 8 1.00000000000000 8 1.00000000000000 0
  TIMEMODE 1 0 -1
  PANMODE 3
  CURSOR 0.00000000000000
  ZOOM 4.06715846103283 0 0
  VZOOMEX 6
  USE_REC_CFG 0
  RECMODE 1
  SMPTESYNC 0 23.976024 100 40 1000 300 0 0.000000 1
  LOOP 1
  LOOPGRAN 0 4.00000000000000
  RECORD_PATH "" ""
  <RECORD_CFG
    ZXZhdxAD
  >
  <APPLYFX_CFG
  >
  RENDER_FILE ""
  RENDER_PATTERN ""
  RENDER_FMT 0 2 0
  RENDER_1X 0
  RENDER_RANGE 1 0.00000000000000 0.00000000000000
  RENDER_RESAMPLE 3 0 1
  RENDER_ADDTOPROJ 0
  RENDER_STEMS 0
  RENDER_DITHER 0
  TIMELOCKMODE 0
  ITEMMIX 0
  DEFPITCHMODE 393216
  TAKELANE 1
  SAMPLERATE 44100 0 0
  <RENDER_CFG
  >
  LOCK 1
  <METRONOME 6 2.000000
    VOL 0.250000 0.125000
    FREQ 800 1600 1
    BEATLEN 4
    SAMPLES "" ""
  >
  GLOBAL_AUTO -1
  TEMPO 120.00000000000000 4 4
  PLAYRATE 1.00000000000000 0 0.25000 4.00000
  SELECTION 276.11410850624884 0.00000000000000
  SELECTION2 276.11410850624884 0.00000000000000
  MASTERAUTOMODE 0
  MASTERTRACKHEIGHT 0
  MASTERPEAKCOL 16576
  MASTERMUTESOLO 0
  MASTERTRACKVIEW 0 0.666700 0.500000 0.500000 -1 -1 -1
  MASTERHWOUT 0 0 1.00000000000000 0.00000000000000 0 0 0 -1.00000000000000
  MASTER_NCH 2 2
  MASTER_VOLUME 1.00000000000000 0.00000000000000 -1.00000000000000 -1.00000000000000 1.00000000000000
  MASTER_PANMODE -1
  MASTER_FX 1
  MASTER_SEL 0
  <MASTERPLAYSPEEDENV
    ACT 0
    VIS 0 1 1.000000
    LANEHEIGHT 0 0
    ARM 0
    DEFSHAPE 0 -1 -1
  >
  <TEMPOENVEX
    ACT 1
    VIS 1 0 1.000000
    LANEHEIGHT 0 0
    ARM 0
    DEFSHAPE 1 -1 -1
    PT 0.000000000000 155.2598143610 1
    PT 4.250939000000 172.7235042145 1
    PT 4.598315000000 165.2391837184 1
    PT 4.961425000000 157.7548332137 1
    PT 6.863110000000 160.0000000000 1
    PT 7.613110000000 163.5429954535 1
    PT 12.749374000000 158.2537229188 1
    PT 13.886788000000 161.7464301215 1
    PT 14.257739000000 167.7341078922 1
    PT 14.615448000000 160.0000000000 1
    PT 16.490448000000 150.7693003551 1
    PT 16.888407000000 160.0000000000 1
    PT 18.763407000000 161.2474099635 1
    PT 19.135506000000 162.2454774073 1
    PT 22.463796000000 156.7566014124 1
    PT 23.229314000000 160.0000000000 1
    PT 23.604314000000 152.2661002368 1
    PT 23.998361000000 168.2326320836 1
    PT 25.781606000000 156.7566014124 1
    PT 26.929883000000 160.0000000000 1
    PT 32.554883000000 170.2287022615 1
    PT 32.907350000000 163.2430961774 1
    PT 33.642450000000 167.7341078922 1
    PT 34.000159000000 151.2680040439 1
    PT 34.396806000000 167.7341078922 1
    PT 35.112224000000 149.7712244546 1
    PT 35.512835000000 164.7401224568 1
    PT 36.241255000000 174.2205806772 1
    PT 36.585646000000 161.2474099635 1
    PT 40.306636000000 148.2744560181 1
    PT 40.711291000000 161.7464301215 1
    PT 41.082242000000 157.2557817709 1
    PT 41.463786000000 161.7464301215 1
    PT 46.286149000000 153.2641430874 1
    PT 46.677630000000 161.2474099635 1
    PT 47.421828000000 150.7693003551 1
    PT 47.819787000000 168.7317558789 1
    PT 49.242163000000 159.5999361600 1
    PT 50.745923000000 159.8001432875 1
    PT 52.247799000000 160.0000000000 1
    PT 56.372799000000 170.2287022615 1
    PT 56.725266000000 163.2430961774 1
    PT 57.460366000000 167.7341078922 1
    PT 57.818075000000 151.2680040439 1
    PT 58.214722000000 167.7341078922 1
    PT 58.930140000000 149.7712244546 1
    PT 59.330751000000 164.7401224568 1
    PT 60.059171000000 174.2205806772 1
    PT 60.403562000000 161.2474099635 1
    PT 64.124552000000 148.2744560181 1
    PT 64.529207000000 161.7464301215 1
    PT 64.900158000000 157.2557817709 1
    PT 65.281702000000 161.7464301215 1
    PT 70.104065000000 153.2641430874 1
    PT 70.495546000000 161.2474099635 1
    PT 71.239744000000 150.7693003551 1
    PT 71.637703000000 168.7317558789 1
    PT 72.348891000000 162.7440822183 1
    PT 72.717568000000 163.7420516879 1
    PT 74.183288000000 156.2577315023 1
    PT 75.335231000000 162.2454774073 1
    PT 76.074851000000 160.0000000000 1
    PT 80.199851000000 170.2287022615 1
    PT 80.552318000000 163.2430961774 1
    PT 81.287418000000 167.7341078922 1
    PT 81.645127000000 151.2680040439 1
    PT 82.041774000000 167.7341078922 1
    PT 82.757192000000 149.7712244546 1
    PT 83.157803000000 164.7401224568 1
    PT 83.886223000000 174.2205806772 1
    PT 84.230614000000 161.2474099635 1
    PT 87.951604000000 148.2744560181 1
    PT 88.356259000000 161.7464301215 1
    PT 88.727210000000 157.2557817709 1
    PT 89.108754000000 161.7464301215 1
    PT 93.931117000000 153.2641430874 1
    PT 94.322598000000 161.2474099635 1
    PT 95.066796000000 150.7693003551 1
    PT 95.464755000000 168.7317558789 1
    PT 96.175943000000 162.7440822183 1
    PT 96.544620000000 163.7420516879 1
    PT 98.010340000000 156.2577315023 1
    PT 99.162283000000 162.2454774073 1
    PT 99.901903000000 160.0000000000 1
    PT 104.026903000000 170.2287022615 1
    PT 104.379370000000 163.2430961774 1
    PT 105.114470000000 167.7341078922 1
    PT 105.472179000000 158.2537229188 1
    PT 105.851317000000 161.7464301215 1
    PT 106.593991814583 149.7712244546 1
    PT 106.993768208333 164.7401224568 1
    PT 107.721429437500 174.2205806772 1
    PT 108.065820437500 161.2474099635 1
    PT 111.787585643750 148.2744560181 1
    PT 112.192240643750 161.7464301215 1
    PT 112.563191643750 157.2557817709 1
    PT 112.944735643750 161.7464301215 1
    PT 117.767098643750 153.2641430874 1
    PT 118.158579643750 161.2474099635 1
    PT 118.902777643750 150.7693003551 1
    PT 119.300736643750 168.7317558789 1
    PT 120.011924643750 162.7440822183 1
    PT 120.380601643750 163.7420516879 1
    PT 121.846321643750 156.2577315023 1
    PT 122.998264643750 162.2454774073 1
    PT 123.737884643750 160.0000000000 1
    PT 127.862884643750 170.2287022615 1
    PT 128.215351643750 163.2430961774 1
    PT 128.950451643750 167.7341078922 1
    PT 129.308160643750 158.2537229188 1
    PT 129.687298643750 161.7464301215 1
    PT 130.429973458333 149.7712244546 1
    PT 130.829749852083 164.7401224568 1
    PT 131.557411081250 174.2205806772 1
    PT 131.901802081250 161.2474099635 1
    PT 135.623567287500 148.2744560181 1
    PT 136.028222287500 161.7464301215 1
    PT 136.399173287500 157.2557817709 1
    PT 136.780717287500 161.7464301215 1
    PT 141.603080287500 153.2641430874 1
    PT 141.994561287500 161.2474099635 1
    PT 142.738759287500 150.7693003551 1
    PT 143.136718287500 168.7317558789 1
    PT 143.847906287500 162.7440822183 1
    PT 144.216583287500 163.7420516879 1
    PT 145.682303287500 160.0000000000 1
    PT 151.682303287500 170.2287022615 1
    PT 152.034770287500 163.2430961774 1
    PT 152.769870287500 167.7341078922 1
    PT 153.127579287500 158.2537229188 1
    PT 153.506717287500 161.7464301215 1
    PT 154.249392102083 149.7712244546 1
    PT 154.649168495833 164.7401224568 1
    PT 155.376829725000 174.2205806772 1
    PT 155.721220725000 161.2474099635 1
    PT 159.442985931250 148.2744560181 1
    PT 159.847640931250 161.7464301215 1
    PT 160.218591931250 157.2557817709 1
    PT 160.600135931250 161.7464301215 1
    PT 165.422498931250 153.2641430874 1
    PT 165.813979931250 161.2474099635 1
    PT 166.558177931250 150.7693003551 1
    PT 166.956136931250 168.7317558789 1
    PT 167.667324931250 162.7440822183 1
    PT 168.036001931250 163.7420516879 1
    PT 169.501721931250 160.0000000000 1
    PT 175.501721931250 170.2287022615 1
    PT 175.854188931250 163.2430961774 1
    PT 176.589288931250 167.7341078922 1
    PT 176.946997931250 158.2537229188 1
    PT 177.326135931250 161.7464301215 1
    PT 178.068810745833 149.7712244546 1
    PT 178.468587139583 164.7401224568 1
    PT 179.196248368750 174.2205806772 1
    PT 179.540639368750 161.2474099635 1
    PT 183.262404575000 148.2744560181 1
    PT 183.667059575000 161.7464301215 1
    PT 184.038010575000 157.2557817709 1
    PT 184.419554575000 161.7464301215 1
    PT 189.241917575000 153.2641430874 1
    PT 189.633398575000 161.2474099635 1
    PT 190.377596575000 150.7693003551 1
    PT 190.775555575000 168.7317558789 1
    PT 191.486743575000 162.7440822183 1
    PT 191.855420575000 163.7420516879 1
    PT 193.321140575000 160.0000000000 1
    PT 199.321140575000 170.2287022615 1
    PT 199.673607575000 163.2430961774 1
    PT 200.408707575000 167.7341078922 1
    PT 200.766416575000 158.2537229188 1
    PT 201.145554575000 161.7464301215 1
    PT 201.888229389583 149.7712244546 1
    PT 202.288005783333 164.7401224568 1
    PT 203.015667012500 174.2205806772 1
    PT 203.360058012500 161.2474099635 1
    PT 207.081823218750 148.2744560181 1
    PT 207.486478218750 161.7464301215 1
    PT 207.857429218750 157.2557817709 1
    PT 208.238973218750 161.7464301215 1
    PT 213.061336218750 153.2641430874 1
    PT 213.452817218750 161.2474099635 1
    PT 214.197015218750 150.7693003551 1
    PT 214.594974218750 168.7317558789 1
    PT 215.306162218750 162.7440822183 1
    PT 215.674839218750 163.7420516879 1
    PT 217.140559218750 160.0000000000 1
    PT 219.765559218750 156.2577315023 1
    PT 220.533521218750 154.4998068752 1 262149
    PT 222.475271218750 160.0000000000 1 262148
    PT 226.600271218750 170.2287022615 1
    PT 226.952738218750 163.2430961774 1
    PT 227.687838218750 167.7341078922 1
    PT 228.045547218750 158.2537229188 1
    PT 228.424685218750 161.7464301215 1
    PT 229.167360033333 149.7712244546 1
    PT 229.567136427083 164.7401224568 1
    PT 230.294797656250 174.2205806772 1
    PT 230.639188656250 161.2474099635 1
    PT 234.360953862500 148.2744560181 1
    PT 234.765608862500 161.7464301215 1
    PT 235.136559862500 157.2557817709 1
    PT 235.518103862500 161.7464301215 1
    PT 240.340466862500 153.2641430874 1
    PT 240.731947862500 161.2474099635 1
    PT 241.476145862500 150.7693003551 1
    PT 241.874104862500 168.7317558789 1
    PT 242.585292862500 162.7440822183 1
    PT 242.953969862500 163.7420516879 1
    PT 244.419689862500 160.0000000000 1
    PT 250.419689862500 170.2287022615 1
    PT 250.772156862500 163.2430961774 1
    PT 251.507256862500 167.7341078922 1
    PT 251.864965862500 158.2537229188 1
    PT 252.244103862500 161.7464301215 1
    PT 252.986778677083 149.7712244546 1
    PT 253.386555070833 164.7401224568 1
    PT 254.114216300000 174.2205806772 1
    PT 254.458607300000 161.2474099635 1
    PT 258.180372506250 148.2744560181 1
    PT 258.585027506250 161.7464301215 1
    PT 258.955978506250 157.2557817709 1
    PT 259.337522506250 161.7464301215 1
    PT 264.159885506250 153.2641430874 1
    PT 264.551366506250 161.2474099635 1
    PT 265.295564506250 150.7693003551 1
    PT 265.693523506250 168.7317558789 1
    PT 266.404711506250 162.7440822183 1
    PT 266.773388506250 163.7420516879 1
    PT 268.239108506250 160.0000000000 1
  >
  <PROJBAY
  >
  <TRACK '{15C0CCEA-D28F-4E41-BD0E-9ACA56AF3CA0}'
    NAME "PART DRUMS"
    PEAKCOL 16576
    BEAT -1
    AUTOMODE 0
    VOLPAN 1.00000000000000 0.00000000000000 -1.00000000000000 -1.00000000000000 1.00000000000000
    MUTESOLO 0 0 0
    IPHASE 0
    ISBUS 0 0
    BUSCOMP 0 0
    SHOWINMIX 1 0.666700 0.500000 1 0.500000 -1 -1 -1
    FREEMODE 0
    SEL 0
    REC 0 0 0 0 0 0 0
    VU 2
    TRACKHEIGHT 0 0
    INQ 0 0 0 0.5000000000 100 0 0 100
    NCHAN 2
    FX 1
    TRACKID {15C0CCEA-D28F-4E41-BD0E-9ACA56AF3CA0}
    PERF 0
    MIDIOUT -1
    <MIDINOTENAMES
      0 127 "CYMBAL SWELLS"
      0 126 "DRUM ROLL"
      0 125 "---"
      0 124 "DRUM FILL"
      0 123 "DRUM FILL"
      0 122 "DRUM FILL"
      0 121 "DRUM FILL"
      0 120 "DRUM FILL (use all 5)"
      0 118 "----"
      0 116 "OVERDRIVE"
      0 114 "----"
      0 112 "TOM GEMS PAD 4"
      0 111 "TOM GEMS PAD 3"
      0 110 "TOM GEMS PAD 2"
      0 103 "Solo Marker"
      0 102 "----"
      0 100 "EXPERT Green"
      0 99 "EXPERT Blue"
      0 98 "EXPERT Yellow"
      0 97 "EXPERT Red"
      0 96 "EXPERT Kick"
      0 92 "----"
      0 88 "HARD Green"
      0 87 "HARD Blue"
      0 86 "HARD Yellow"
      0 85 "HARD Red"
      0 84 "HARD Kick"
      0 80 "----"
      0 76 "MEDIUM Green"
      0 75 "MEDIUM Blue"
      0 74 "MEDIUM Yellow"
      0 73 "MEDIUM Red"
      0 72 "MEDIUM Kick"
      0 68 "----"
      0 64 "EASY Green"
      0 63 "EASY Blue"
      0 62 "EASY Yellow"
      0 61 "EASY Red"
      0 60 "EASY Kick"
      0 56 "----"
      0 52 "-- DRUM ANIMATION --"
      0 51 "FLOOR TOM RH"
      0 50 "FLOOR TOM LH"
      0 49 "TOM2 RH"
      0 48 "TOM2 LH"
      0 47 "TOM1 RH"
      0 46 "TOM1 LH"
      0 45 "SOFT CRASH 2 LH"
      0 44 "CRASH 2 LH"
      0 43 "RIDE LH"
      0 42 "RIDE CYM RH"
      0 41 "CRASH2 CHOKE"
      0 40 "CRASH1 CHOKE"
      0 39 "CRASH2 SOFT RH"
      0 38 "CRASH2 HARD RH"
      0 37 "CRASH1 SOFT RH"
      0 36 "CRASH1 HARD RH"
      0 35 "CRASH1 SOFT LH"
      0 34 "CRASH1 HARD LH"
      0 32 "PERCUSSION RH"
      0 31 "HI-HAT RH"
      0 30 "HI-HAT LH"
      0 29 "SOFT SNARE RH"
      0 28 "SOFT SNARE LH"
      0 27 "SNARE RH"
      0 26 "SNARE LH"
      0 25 "HI-HAT OPEN"
      0 24 "KICK RF"
    >
    MAINSEND 1 0
    <FXCHAIN
      WNDRECT 0 43 891 559
      SHOW 0
      LASTSEL 0
      DOCKED 0
      BYPASS 0 0
      <VST "VSTi: RBN Preview (RBN)" "rbprev_vst64.dll" 0 ""
        dnBicu5e7f4AAAAAAgAAAAEAAAAAAAAAAgAAAAAAAAAEAAAAAQAAAA==
        AAAQAAMBqgAAABAAAAA=
      >
      FLOATPOS 0 0 0 0
      FXID {F869ED27-690A-4B08-A0C2-EF0D99D79C73}
      WAK 0
    >
    <ITEM
      POSITION 0.00000000000000
      SNAPOFFS 0.00000000000000
      LENGTH 276.11399999999998
      LOOP 0
      ALLTAKES 0
      SEL 0
      FADEIN 1 0.000000 0.000000 1 0
      FADEOUT 1 0.000000 0.000000 1 0
      MUTE 0
      IGUID {847E42BD-AEFE-4A18-B048-016270144926}
      IID 1
      NAME "PART DRUMS"
      VOLPAN 1.000000 0.000000 1.000000 -1.000000
      SOFFS 0.00000000000000 0.00000000000000
      PLAYRATE 1.00000000000000 1 0.00000000000000 -1
      CHANMODE 0
      GUID {3E3E76EC-D36D-4475-BD12-B24FAB9690C3}
      <SOURCE MIDI
        HASDATA 1 480 QN
        POOLEDEVTS {A4FDA190-8520-49D8-A456-39E6D5AE48CA}
        <X 0 0
          /wNQQVJUIERSVU1T
        >
        <X 240 0
          /wFbbWl4IDEgZHJ1bXMwXQ==
        >
        <X 0 0
          /wFbbWl4IDAgZHJ1bXMwXQ==
        >
        <X 120 0
          /wFbbWl4IDIgZHJ1bXMwXQ==
        >
        <X 120 0
          /wFbbWl4IDMgZHJ1bXMwXQ==
        >
        <X 5160 0
          /wFbcGxheV0=
        >
        E 120 90 18 60
        E 0 90 24 60
        E 0 90 60 60
        E 0 90 64 60
        E 0 90 54 60
        E 0 90 58 60
        E 0 90 48 60
        E 0 90 4c 60
        E 0 90 40 60
        E 120 80 18 00
        E 0 80 24 00
        E 0 80 60 00
        E 0 80 64 00
        E 0 80 54 00
        E 0 80 58 00
        E 0 80 48 00
        E 0 80 4c 00
        E 0 80 40 00
        E 360 90 1f 60
        E 0 90 62 60
        E 0 90 56 60
        E 0 90 4a 60
        E 120 80 1f 00
        E 0 80 62 00
        E 0 80 56 00
        E 0 80 4a 00
        E 120 90 18 60
        E 0 90 60 60
        E 0 90 54 60
        E 120 80 18 00
        E 0 80 60 00
        E 0 80 54 00
        E 120 90 1a 60
        E 0 90 1f 60
        E 0 90 61 60
        E 0 90 62 60
        E 0 90 55 60
        E 0 90 56 60
        E 0 90 49 60
        E 0 90 4a 60
        E 0 90 3d 60
        E 0 90 3e 60
        E 120 80 1a 00
        E 0 80 1f 00
        E 0 80 61 00
        E 0 80 62 00
        E 0 80 55 00
        E 0 80 56 00
        E 0 80 49 00
        E 0 80 4a 00
        E 0 80 3d 00
        E 0 80 3e 00
        E 360 90 1f 60
        E 0 90 62 60
        E 0 90 56 60
        E 0 90 4a 60
        E 120 80 1f 00
        E 0 80 62 00
        E 0 80 56 00
        E 0 80 4a 00
        E 120 90 18 60
        E 0 90 60 60
        E 0 90 54 60
        E 120 80 18 00
        E 0 80 60 00
        E 0 80 54 00
        E 120 90 18 60
        E 0 90 1f 60
        E 0 90 60 60
        E 0 90 62 60
        E 0 90 54 60
        E 0 90 56 60
        E 0 90 48 60
        E 0 90 4a 60
        E 0 90 3e 60
        E 120 80 18 00
        E 0 80 1f 00
        E 0 80 60 00
        E 0 80 62 00
        E 0 80 54 00
        E 0 80 56 00
        E 0 80 48 00
        E 0 80 4a 00
        E 0 80 3e 00
        E 120 90 1c 60
        E 0 90 61 60
        E 0 90 55 60
        E 120 80 1c 00
        E 0 80 61 00
        E 0 80 55 00
        E 120 90 18 60
        E 0 90 1f 60
        E 0 90 60 60
        E 0 90 62 60
        E 0 90 54 60
        E 0 90 56 60
        E 0 90 48 60
        E 0 90 4a 60
        E 120 80 18 00
        E 0 80 1f 00
        E 0 80 60 00
        E 0 80 62 00
        E 0 80 54 00
        E 0 80 56 00
        E 0 80 48 00
        E 0 80 4a 00
        E 120 90 18 60
        E 0 90 60 60
        E 0 90 54 60
        E 120 80 18 00
        E 0 80 60 00
        E 0 80 54 00
        E 120 90 1a 60
        E 0 90 1f 60
        E 0 90 61 60
        E 0 90 62 60
        E 0 90 55 60
        E 0 90 56 60
        E 0 90 49 60
        E 0 90 4a 60
        E 0 90 3d 60
        E 0 90 3e 60
        E 120 80 1a 00
        E 0 80 1f 00
        E 0 80 61 00
        E 0 80 62 00
        E 0 80 55 00
        E 0 80 56 00
        E 0 80 49 00
        E 0 80 4a 00
        E 0 80 3d 00
        E 0 80 3e 00
        E 360 90 1f 60
        E 0 90 62 60
        E 0 90 56 60
        E 0 90 4a 60
        E 120 80 1f 00
        E 0 80 62 00
        E 0 80 56 00
        E 0 80 4a 00
        E 120 90 19 60
        E 0 90 1c 60
        E 0 90 61 60
        E 0 90 55 60
        E 120 80 1c 00
        E 0 80 61 00
        E 0 80 55 00
        E 0 90 1c 60
        E 0 90 61 60
        E 120 80 19 00
        E 0 80 1c 00
        E 0 80 61 00
        E 0 90 1b 60
        E 0 90 61 60
        E 0 90 55 60
        E 0 90 49 60
        E 0 90 3d 60
        E 120 80 1b 00
        E 0 80 61 00
        E 0 80 55 00
        E 0 80 49 00
        E 0 80 3d 00
        E 120 90 19 60
        E 0 90 1a 60
        E 0 90 61 60
        E 0 90 55 60
        E 120 80 1a 00
        E 0 80 61 00
        E 0 80 55 00
        E 120 80 19 00
        E 0 90 2f 60
        E 0 90 63 60
        E 0 90 57 60
        E 0 90 4b 60
        E 0 90 6f 60
        E 120 80 2f 00
        E 0 80 63 00
        E 0 80 57 00
        E 0 80 4b 00
        E 0 80 6f 00
        E 120 90 19 60
        E 0 90 1c 60
        E 0 90 61 60
        E 0 90 55 60
        E 120 80 1c 00
        E 0 80 61 00
        E 0 80 55 00
        E 120 80 19 00
        E 0 90 1c 60
        E 0 90 61 60
        E 0 90 55 60
        E 0 90 49 60
        E 0 90 3d 60
        E 120 80 1c 00
        E 0 80 61 00
        E 0 80 55 00
        E 0 80 49 00
        E 0 80 3d 00
        E 120 90 19 60
        E 0 90 2f 60
        E 0 90 63 60
        E 0 90 57 60
        E 0 90 6f 60
        E 120 80 2f 00
        E 0 80 63 00
        E 0 80 57 00
        E 0 80 6f 00
        E 120 80 19 00
        E 0 90 1c 60
        E 0 90 61 60
        E 0 90 55 60
        E 0 90 49 60
        E 120 80 1c 00
        E 0 80 61 00
        E 0 80 55 00
        E 0 80 49 00
        E 120 90 19 60
        E 0 90 2f 60
        E 0 90 63 60
        E 0 90 57 60
        E 0 90 6f 60
        E 120 80 2f 00
        E 0 80 63 00
        E 0 80 57 00
        E 0 80 6f 00
        E 120 80 19 00
        E 0 90 1a 60
        E 0 90 61 60
        E 0 90 78 60
        E 0 90 79 60
        E 0 90 7a 60
        E 0 90 7b 60
        E 0 90 7c 60
        E 0 90 55 60
        E 0 90 49 60
        E 0 90 3d 60
        E 120 80 1a 00
        E 0 80 61 00
        E 0 80 55 00
        E 0 80 49 00
        E 0 80 3d 00
        E 120 90 19 60
        E 0 90 1c 60
        E 0 90 61 60
        E 0 90 55 60
        E 120 80 1c 00
        E 0 80 61 00
        E 0 80 55 00
        E 120 80 19 00
        E 0 90 2f 60
        E 0 90 63 60
        E 0 90 57 60
        E 0 90 4b 60
        E 0 90 6f 60
        E 120 80 2f 00
        E 0 80 63 00
        E 0 80 57 00
        E 0 80 4b 00
        E 0 80 6f 00
        E 120 90 19 60
        E 0 90 1a 60
        E 0 90 61 60
        E 0 90 55 60
        E 120 80 1a 00
        E 0 80 61 00
        E 0 80 55 00
        E 120 80 19 00
        E 0 90 1d 60
        E 0 90 62 60
        E 0 90 56 60
        E 0 90 4a 60
        E 0 90 6e 60
        E 0 90 3e 60
        E 120 80 1d 00
        E 0 80 62 00
        E 0 80 56 00
        E 0 80 4a 00
        E 0 80 6e 00
        E 0 80 3e 00
        E 120 90 19 60
        E 0 90 1a 60
        E 0 90 61 60
        E 0 90 55 60
        E 120 80 1a 00
        E 0 80 61 00
        E 0 80 55 00
        E 120 80 19 00
        E 0 90 1b 60
        E 0 90 61 60
        E 0 90 55 60
        E 0 90 49 60
        E 120 80 1b 00
        E 0 80 61 00
        E 0 80 55 00
        E 0 80 49 00
        E 120 90 18 60
        E 0 90 60 60
        E 0 90 54 60
        E 120 80 18 00
        E 0 80 60 00
        E 0 80 54 00
        E 120 80 78 00
        E 0 80 79 00
        E 0 80 7a 00
        E 0 80 7b 00
        E 0 80 7c 00
        E 0 90 18 60
        E 0 90 24 60
        E 0 90 60 60
        E 0 90 64 60
        E 0 90 54 60
        E 0 90 58 60
        E 0 90 48 60
        E 0 90 4c 60
        E 0 90 40 60
        E 120 80 18 00
        E 0 80 24 00
        E 0 80 60 00
        E 0 80 64 00
        E 0 80 54 00
        E 0 80 58 00
        E 0 80 48 00
        E 0 80 4c 00
        E 0 80 40 00
        E 360 90 1f 60
        E 0 90 62 60
        E 0 90 56 60
        E 0 90 4a 60
        E 120 80 1f 00
        E 0 80 62 00
        E 0 80 56 00
        E 0 80 4a 00
        E 360 90 1a 60
        E 0 90 1f 60
        E 0 90 61 60
        E 0 90 62 60
        E 0 90 55 60
        E 0 90 56 60
        E 0 90 49 60
        E 0 90 4a 60
        E 0 90 3d 60
        E 0 90 3e 60
        E 120 80 1a 00
        E 0 80 1f 00
        E 0 80 61 00
        E 0 80 62 00
        E 0 80 55 00
        E 0 80 56 00
        E 0 80 49 00
        E 0 80 4a 00
        E 0 80 3d 00
        E 0 80 3e 00
        E 360 90 1f 60
        E 0 90 62 60
        E 0 90 56 60
        E 0 90 4a 60
        E 120 80 1f 00
        E 0 80 62 00
        E 0 80 56 00
        E 0 80 4a 00
        E 120 90 18 60
        E 0 90 60 60
        E 0 90 54 60
        E 120 80 18 00
        E 0 80 60 00
        E 0 80 54 00
        E 120 90 1f 60
        E 0 90 62 60
        E 0 90 56 60
        E 0 90 4a 60
        E 0 90 3e 60
        E 120 80 1f 00
        E 0 80 62 00
        E 0 80 56 00
        E 0 80 4a 00
        E 0 80 3e 00
        E 120 90 18 60
        E 0 90 60 60
        E 0 90 54 60
        E 120 80 18 00
        E 0 80 60 00
        E 0 80 54 00
        E 120 90 18 60
        E 0 90 1f 60
        E 0 90 60 60
        E 0 90 62 60
        E 0 90 54 60
        E 0 90 56 60
        E 0 90 48 60
        E 0 90 4a 60
        E 120 80 18 00
        E 0 80 1f 00
        E 0 80 60 00
        E 0 80 62 00
        E 0 80 54 00
        E 0 80 56 00
        E 0 80 48 00
        E 0 80 4a 00
        E 360 90 1a 60
        E 0 90 1f 60
        E 0 90 61 60
        E 0 90 62 60
        E 0 90 55 60
        E 0 90 56 60
        E 0 90 49 60
        E 0 90 4a 60
        E 0 90 3d 60
        E 0 90 3e 60
        E 120 80 1a 00
        E 0 80 1f 00
        E 0 80 61 00
        E 0 80 62 00
        E 0 80 55 00
        E 0 80 56 00
        E 0 80 49 00
        E 0 80 4a 00
        E 0 80 3d 00
        E 0 80 3e 00
        E 360 90 1f 60
        E 0 90 62 60
        E 0 90 56 60
        E 0 90 4a 60
        E 120 80 1f 00
        E 0 80 62 00
        E 0 80 56 00
        E 0 80 4a 00
        E 120 90 1c 60
        E 0 90 61 60
        E 0 90 55 60
        E 120 80 1c 00
        E 0 80 61 00
        E 0 80 55 00
        E 120 90 2f 60
        E 0 90 63 60
        E 0 90 57 60
        E 0 90 4b 60
        E 0 90 6f 60
        E 0 90 3f 60
        E 120 80 2f 00
        E 0 80 63 00
        E 0 80 57 00
        E 0 80 4b 00
        E 0 80 6f 00
        E 0 80 3f 00
        E 120 90 19 60
        E 0 90 1c 60
        E 0 90 61 60
        E 0 90 55 60
        E 120 80 1c 00
        E 0 80 61 00
        E 0 80 55 00
        E 0 90 1c 60
        E 0 90 61 60
        E 120 80 19 00
        E 0 80 1c 00
        E 0 80 61 00
        E 0 90 1b 60
        E 0 90 61 60
        E 0 90 55 60
        E 0 90 49 60
        E 120 80 1b 00
        E 0 80 61 00
        E 0 80 55 00
        E 0 80 49 00
        E 120 90 19 60
        E 0 90 1a 60
        E 0 90 61 60
        E 0 90 55 60
        E 120 80 1a 00
        E 0 80 61 00
        E 0 80 55 00
        E 120 80 19 00
        E 0 90 1d 60
        E 0 90 61 60
        E 0 90 55 60
        E 0 90 49 60
        E 0 90 3d 60
        E 120 80 1d 00
        E 0 80 61 00
        E 0 80 55 00
        E 0 80 49 00
        E 0 80 3d 00
        E 120 90 19 60
        E 0 90 1a 60
        E 0 90 61 60
        E 0 90 55 60
        E 120 80 1a 00
        E 0 80 61 00
        E 0 80 55 00
        E 120 80 19 00
        E 0 90 1c 60
        E 0 90 61 60
        E 0 90 55 60
        E 0 90 49 60
        E 120 80 1c 00
        E 0 80 61 00
        E 0 80 55 00
        E 0 80 49 00
        E 120 90 19 60
        E 0 90 2f 60
        E 0 90 63 60
        E 0 90 57 60
        E 0 90 6f 60
        E 120 80 2f 00
        E 0 80 63 00
        E 0 80 57 00
        E 0 80 6f 00
        E 120 80 19 00
        E 0 90 1c 60
        E 0 90 61 60
        E 0 90 78 60
        E 0 90 79 60
        E 0 90 7a 60
        E 0 90 7b 60
        E 0 90 7c 60
        E 0 90 55 60
        E 0 90 49 60
        E 0 90 3d 60
        E 120 80 1c 00
        E 0 80 61 00
        E 0 80 55 00
        E 0 80 49 00
        E 0 80 3d 00
        E 120 90 19 60
        E 0 90 1c 60
        E 0 90 61 60
        E 0 90 55 60
        E 120 80 1c 00
        E 0 80 61 00
        E 0 80 55 00
        E 120 80 19 00
        E 0 90 1b 60
        E 0 90 61 60
        E 0 90 55 60
        E 0 90 49 60
        E 120 80 1b 00
        E 0 80 61 00
        E 0 80 55 00
        E 0 80 49 00
        E 120 90 19 60
        E 0 90 1c 60
        E 0 90 61 60
        E 0 90 55 60
        E 120 80 1c 00
        E 0 80 61 00
        E 0 80 55 00
        E 120 80 19 00
        E 0 90 1b 60
        E 0 90 61 60
        E 0 90 55 60
        E 0 90 49 60
        E 0 90 3d 60
        E 120 80 1b 00
        E 0 80 61 00
        E 0 80 55 00
        E 0 80 49 00
        E 0 80 3d 00
        E 120 90 18 60
        E 0 90 19 60
        E 0 90 60 60
        E 0 90 54 60
        E 120 80 18 00
        E 0 80 60 00
        E 0 80 54 00
        E 120 80 19 00
        E 0 90 1f 60
        E 0 90 62 60
        E 0 90 56 60
        E 0 90 4a 60
        E 120 80 1f 00
        E 0 80 62 00
        E 0 80 56 00
        E 0 80 4a 00
        E 120 90 18 60
        E 0 90 19 60
        E 0 90 60 60
        E 0 90 54 60
        E 120 80 18 00
        E 0 80 60 00
        E 0 80 54 00
        E 120 80 78 00
        E 0 80 79 00
        E 0 80 7a 00
        E 0 80 7b 00
        E 0 80 7c 00
        E 0 80 19 00
        E 0 90 18 60
        E 0 90 24 60
        E 0 90 60 60
        E 0 90 64 60
        E 0 90 54 60
        E 0 90 58 60
        E 0 90 48 60
        E 0 90 4c 60
        E 0 90 40 60
        E 120 80 18 00
        E 0 80 24 00
        E 0 80 60 00
        E 0 80 64 00
        E 0 80 54 00
        E 0 80 58 00
        E 0 80 48 00
        E 0 80 4c 00
        E 0 80 40 00
        E 360 90 1f 60
        E 0 90 62 60
        E 0 90 56 60
        E 0 90 4a 60
        E 120 80 1f 00
        E 0 80 62 00
        E 0 80 56 00
        E 0 80 4a 00
        E 360 90 1a 60
        E 0 90 1f 60
        E 0 90 61 60
        E 0 90 62 60
        E 0 90 55 60
        E 0 90 56 60
        E 0 90 49 60
        E 0 90 4a 60
        E 0 90 3d 60
        E 0 90 3e 60
        E 120 80 1a 00
        E 0 80 1f 00
        E 0 80 61 00
        E 0 80 62 00
        E 0 80 55 00
        E 0 80 56 00
        E 0 80 49 00
        E 0 80 4a 00
        E 0 80 3d 00
        E 0 80 3e 00
        E 360 90 1f 60
        E 0 90 62 60
        E 0 90 56 60
        E 0 90 4a 60
        E 120 80 1f 00
        E 0 80 62 00
        E 0 80 56 00
        E 0 80 4a 00
        E 120 90 18 60
        E 0 90 60 60
        E 0 90 54 60
        E 120 80 18 00
        E 0 80 60 00
        E 0 80 54 00
        E 120 90 18 60
        E 0 90 1f 60
        E 0 90 60 60
        E 0 90 62 60
        E 0 90 54 60
        E 0 90 56 60
        E 0 90 48 60
        E 0 90 4a 60
        E 0 90 3e 60
        E 120 80 18 00
        E 0 80 1f 00
        E 0 80 60 00
        E 0 80 62 00
        E 0 80 54 00
        E 0 80 56 00
        E 0 80 48 00
        E 0 80 4a 00
        E 0 80 3e 00
        E 360 90 18 60
        E 0 90 1f 60
        E 0 90 60 60
        E 0 90 62 60
        E 0 90 54 60
        E 0 90 56 60
        E 0 90 48 60
        E 0 90 4a 60
        E 120 80 18 00
        E 0 80 1f 00
        E 0 80 60 00
        E 0 80 62 00
        E 0 80 54 00
        E 0 80 56 00
        E 0 80 48 00
        E 0 80 4a 00
        E 360 90 1a 60
        E 0 90 1f 60
        E 0 90 61 60
        E 0 90 62 60
        E 0 90 55 60
        E 0 90 56 60
        E 0 90 49 60
        E 0 90 4a 60
        E 0 90 3d 60
        E 0 90 3e 60
        E 120 80 1a 00
        E 0 80 1f 00
        E 0 80 61 00
        E 0 80 62 00
        E 0 80 55 00
        E 0 80 56 00
        E 0 80 49 00
        E 0 80 4a 00
        E 0 80 3d 00
        E 0 80 3e 00
        E 360 90 19 60
        E 0 90 1f 60
        E 0 90 63 60
        E 0 90 57 60
        E 0 90 4b 60
        E 120 80 1f 00
        E 0 80 63 00
        E 0 80 57 00
        E 0 80 4b 00
        E 120 90 1c 60
        E 0 90 61 60
        E 0 90 55 60
        E 120 80 1c 00
        E 0 80 61 00
        E 0 80 55 00
        E 120 80 19 00
        E 0 90 2f 60
        E 0 90 63 60
        E 0 90 57 60
        E 0 90 4b 60
        E 0 90 6f 60
        E 0 90 3f 60
        E 120 80 2f 00
        E 0 80 63 00
        E 0 80 57 00
        E 0 80 4b 00
        E 0 80 6f 00
        E 0 80 3f 00
        E 120 90 19 60
        E 0 90 1c 60
        E 0 90 61 60
        E 0 90 55 60
        E 120 80 1c 00
        E 0 80 61 00
        E 0 80 55 00
        E 120 80 19 00
        E 0 90 1d 60
        E 0 90 61 60
        E 0 90 55 60
        E 0 90 49 60
        E 120 80 1d 00
        E 0 80 61 00
        E 0 80 55 00
        E 0 80 49 00
        E 120 90 19 60
        E 0 90 1a 60
        E 0 90 61 60
        E 0 90 55 60
        E 120 80 1a 00
        E 0 80 61 00
        E 0 80 55 00
        E 120 80 19 00
        E 0 90 1c 60
        E 0 90 61 60
        E 0 90 55 60
        E 0 90 49 60
        E 0 90 3d 60
        E 120 80 1c 00
        E 0 80 61 00
        E 0 80 55 00
        E 0 80 49 00
        E 0 80 3d 00
        E 120 90 19 60
        E 0 90 2f 60
        E 0 90 63 60
        E 0 90 57 60
        E 0 90 6f 60
        E 120 80 2f 00
        E 0 80 63 00
        E 0 80 57 00
        E 0 80 6f 00
        E 120 80 19 00
        E 0 90 1c 60
        E 0 90 61 60
        E 0 90 55 60
        E 0 90 49 60
        E 120 80 1c 00
        E 0 80 61 00
        E 0 80 55 00
        E 0 80 49 00
        E 120 90 19 60
        E 0 90 2f 60
        E 0 90 63 60
        E 0 90 57 60
        E 0 90 6f 60
        E 120 80 2f 00
        E 0 80 63 00
        E 0 80 57 00
        E 0 80 6f 00
        E 120 80 19 00
        E 0 90 1a 60
        E 0 90 61 60
        E 0 90 78 60
        E 0 90 79 60
        E 0 90 7a 60
        E 0 90 7b 60
        E 0 90 7c 60
        E 0 90 55 60
        E 0 90 49 60
        E 0 90 3d 60
        E 120 80 1a 00
        E 0 80 61 00
        E 0 80 55 00
        E 0 80 49 00
        E 0 80 3d 00
        E 120 90 19 60
        E 0 90 1a 60
        E 0 90 61 60
        E 0 90 55 60
        E 120 80 1a 00
        E 0 80 61 00
        E 0 80 55 00
        E 120 80 19 00
        E 0 90 1b 60
        E 0 90 61 60
        E 0 90 55 60
        E 0 90 49 60
        E 120 80 1b 00
        E 0 80 61 00
        E 0 80 55 00
        E 0 80 49 00
        E 120 90 19 60
        E 0 90 1a 60
        E 0 90 61 60
        E 0 90 55 60
        E 120 80 1a 00
        E 0 80 61 00
        E 0 80 55 00
        E 120 80 19 00
        E 0 90 1b 60
        E 0 90 61 60
        E 0 90 55 60
        E 0 90 49 60
        E 0 90 3d 60
        E 120 80 1b 00
        E 0 80 61 00
        E 0 80 55 00
        E 0 80 49 00
        E 0 80 3d 00
        E 120 90 18 60
        E 0 90 19 60
        E 0 90 60 60
        E 0 90 54 60
        E 120 80 18 00
        E 0 80 60 00
        E 0 80 54 00
        E 120 80 19 00
        E 0 90 1f 60
        E 0 90 62 60
        E 0 90 56 60
        E 0 90 4a 60
        E 120 80 1f 00
        E 0 80 62 00
        E 0 80 56 00
        E 0 80 4a 00
        E 120 90 18 60
        E 0 90 60 60
        E 0 90 54 60
        E 120 80 18 00
        E 0 80 60 00
        E 0 80 54 00
        E 120 80 78 00
        E 0 80 79 00
        E 0 80 7a 00
        E 0 80 7b 00
        E 0 80 7c 00
        E 0 90 18 60
        E 0 90 24 60
        E 0 90 60 60
        E 0 90 64 60
        E 0 90 74 60
        E 0 90 54 60
        E 0 90 58 60
        E 0 90 48 60
        E 0 90 4c 60
        E 0 90 40 60
        E 120 80 18 00
        E 0 80 24 00
        E 0 80 60 00
        E 0 80 64 00
        E 0 80 54 00
        E 0 80 58 00
        E 0 80 48 00
        E 0 80 4c 00
        E 0 80 40 00
        E 360 90 1f 60
        E 0 90 62 60
        E 0 90 56 60
        E 0 90 4a 60
        E 120 80 1f 00
        E 0 80 62 00
        E 0 80 56 00
        E 0 80 4a 00
        E 360 90 1a 60
        E 0 90 1f 60
        E 0 90 61 60
        E 0 90 62 60
        E 0 90 55 60
        E 0 90 56 60
        E 0 90 49 60
        E 0 90 4a 60
        E 0 90 3d 60
        E 0 90 3e 60
        E 120 80 1a 00
        E 0 80 1f 00
        E 0 80 61 00
        E 0 80 62 00
        E 0 80 55 00
        E 0 80 56 00
        E 0 80 49 00
        E 0 80 4a 00
        E 0 80 3d 00
        E 0 80 3e 00
        E 360 90 1f 60
        E 0 90 62 60
        E 0 90 56 60
        E 0 90 4a 60
        E 120 80 1f 00
        E 0 80 62 00
        E 0 80 56 00
        E 0 80 4a 00
        E 120 90 18 60
        E 0 90 60 60
        E 0 90 54 60
        E 120 80 18 00
        E 0 80 60 00
        E 0 80 54 00
        E 120 90 1f 60
        E 0 90 62 60
        E 0 90 56 60
        E 0 90 4a 60
        E 0 90 3e 60
        E 120 80 1f 00
        E 0 80 62 00
        E 0 80 56 00
        E 0 80 4a 00
        E 0 80 3e 00
        E 120 90 1c 60
        E 0 90 61 60
        E 0 90 55 60
        E 120 80 1c 00
        E 0 80 61 00
        E 0 80 55 00
        E 120 90 18 60
        E 0 90 1f 60
        E 0 90 60 60
        E 0 90 62 60
        E 0 90 54 60
        E 0 90 56 60
        E 0 90 48 60
        E 0 90 4a 60
        E 120 80 18 00
        E 0 80 1f 00
        E 0 80 60 00
        E 0 80 62 00
        E 0 80 54 00
        E 0 80 56 00
        E 0 80 48 00
        E 0 80 4a 00
        E 120 90 18 60
        E 0 90 60 60
        E 0 90 54 60
        E 120 80 18 00
        E 0 80 60 00
        E 0 80 54 00
        E 120 90 1a 60
        E 0 90 1f 60
        E 0 90 61 60
        E 0 90 62 60
        E 0 90 55 60
        E 0 90 56 60
        E 0 90 49 60
        E 0 90 4a 60
        E 0 90 3d 60
        E 0 90 3e 60
        E 120 80 1a 00
        E 0 80 1f 00
        E 0 80 61 00
        E 0 80 62 00
        E 0 80 55 00
        E 0 80 56 00
        E 0 80 49 00
        E 0 80 4a 00
        E 0 80 3d 00
        E 0 80 3e 00
        E 360 90 19 60
        E 0 90 1f 60
        E 0 90 63 60
        E 0 90 57 60
        E 0 90 4b 60
        E 120 80 1f 00
        E 0 80 63 00
        E 0 80 57 00
        E 0 80 4b 00
        E 120 90 1c 60
        E 0 90 61 60
        E 0 90 55 60
        E 120 80 1c 00
        E 0 80 61 00
        E 0 80 55 00
        E 0 90 1c 60
        E 0 90 61 60
        E 120 80 19 00
        E 0 80 1c 00
        E 0 80 61 00
        E 0 90 1b 60
        E 0 90 61 60
        E 0 90 55 60
        E 0 90 49 60
        E 0 90 3d 60
        E 120 80 74 00
        E 0 80 1b 00
        E 0 80 61 00
        E 0 80 55 00
        E 0 80 49 00
        E 0 80 3d 00
        E 120 90 19 60
        E 0 90 1a 60
        E 0 90 61 60
        E 0 90 55 60
        E 120 80 1a 00
        E 0 80 61 00
        E 0 80 55 00
        E 120 80 19 00
        E 0 90 1a 60
        E 0 90 61 60
        E 0 90 55 60
        E 0 90 49 60
        E 120 80 1a 00
        E 0 80 61 00
        E 0 80 55 00
        E 0 80 49 00
        E 120 90 19 60
        E 0 90 2f 60
        E 0 90 63 60
        E 0 90 57 60
        E 0 90 6f 60
        E 120 80 2f 00
        E 0 80 63 00
        E 0 80 57 00
        E 0 80 6f 00
        E 120 80 19 00
        E 0 90 1c 60
        E 0 90 61 60
        E 0 90 55 60
        E 0 90 49 60
        E 0 90 3d 60
        E 120 80 1c 00
        E 0 80 61 00
        E 0 80 55 00
        E 0 80 49 00
        E 0 80 3d 00
        E 120 90 19 60
        E 0 90 2f 60
        E 0 90 63 60
        E 0 90 57 60
        E 0 90 6f 60
        E 120 80 2f 00
        E 0 80 63 00
        E 0 80 57 00
        E 0 80 6f 00
        E 120 80 19 00
        E 0 90 1c 60
        E 0 90 61 60
        E 0 90 55 60
        E 0 90 49 60
        E 120 80 1c 00
        E 0 80 61 00
        E 0 80 55 00
        E 0 80 49 00
        E 120 90 19 60
        E 0 90 1c 60
        E 0 90 61 60
        E 0 90 55 60
        E 120 80 1c 00
        E 0 80 61 00
        E 0 80 55 00
        E 120 80 19 00
        E 0 90 1b 60
        E 0 90 61 60
        E 0 90 78 60
        E 0 90 79 60
        E 0 90 7a 60
        E 0 90 7b 60
        E 0 90 7c 60
        E 0 90 55 60
        E 0 90 49 60
        E 0 90 3d 60
        E 120 80 1b 00
        E 0 80 61 00
        E 0 80 55 00
        E 0 80 49 00
        E 0 80 3d 00
        E 120 90 19 60
        E 0 90 1a 60
        E 0 90 61 60
        E 0 90 55 60
        E 120 80 1a 00
        E 0 80 61 00
        E 0 80 55 00
        E 120 80 19 00
        E 0 90 2f 60
        E 0 90 63 60
        E 0 90 57 60
        E 0 90 4b 60
        E 0 90 6f 60
        E 120 80 2f 00
        E 0 80 63 00
        E 0 80 57 00
        E 0 80 4b 00
        E 0 80 6f 00
        E 120 90 19 60
        E 0 90 1c 60
        E 0 90 61 60
        E 0 90 55 60
        E 120 80 1c 00
        E 0 80 61 00
        E 0 80 55 00
        E 120 80 19 00
        E 0 90 1b 60
        E 0 90 61 60
        E 0 90 55 60
        E 0 90 49 60
        E 0 90 3d 60
        E 120 80 1b 00
        E 0 80 61 00
        E 0 80 55 00
        E 0 80 49 00
        E 0 80 3d 00
        E 120 90 19 60
        E 0 90 1a 60
        E 0 90 61 60
        E 0 90 55 60
        E 120 80 1a 00
        E 0 80 61 00
        E 0 80 55 00
        E 120 80 19 00
        E 0 90 1f 60
        E 0 90 62 60
        E 0 90 56 60
        E 0 90 4a 60
        E 120 80 1f 00
        E 0 80 62 00
        E 0 80 56 00
        E 0 80 4a 00
        E 120 90 18 60
        E 0 90 60 60
        E 0 90 54 60
        E 120 80 18 00
        E 0 80 60 00
        E 0 80 54 00
        E 120 80 78 00
        E 0 80 79 00
        E 0 80 7a 00
        E 0 80 7b 00
        E 0 80 7c 00
        E 0 90 18 60
        E 0 90 24 60
        E 0 90 60 60
        E 0 90 64 60
        E 0 90 54 60
        E 0 90 58 60
        E 0 90 48 60
        E 0 90 4c 60
        E 0 90 40 60
        E 120 80 18 00
        E 0 80 24 00
        E 0 80 60 00
        E 0 80 64 00
        E 0 80 54 00
        E 0 80 58 00
        E 0 80 48 00
        E 0 80 4c 00
        E 0 80 40 00
        E 360 90 1f 60
        E 0 90 62 60
        E 0 90 56 60
        E 0 90 4a 60
        E 120 80 1f 00
        E 0 80 62 00
        E 0 80 56 00
        E 0 80 4a 00
        E 120 90 18 60
        E 0 90 60 60
        E 0 90 54 60
        E 120 80 18 00
        E 0 80 60 00
        E 0 80 54 00
        E 120 90 1a 60
        E 0 90 1f 60
        E 0 90 61 60
        E 0 90 62 60
        E 0 90 55 60
        E 0 90 56 60
        E 0 90 49 60
        E 0 90 4a 60
        E 0 90 3d 60
        E 0 90 3e 60
        E 120 80 1a 00
        E 0 80 1f 00
        E 0 80 61 00
        E 0 80 62 00
        E 0 80 55 00
        E 0 80 56 00
        E 0 80 49 00
        E 0 80 4a 00
        E 0 80 3d 00
        E 0 80 3e 00
        E 360 90 1f 60
        E 0 90 62 60
        E 0 90 56 60
        E 0 90 4a 60
        E 120 80 1f 00
        E 0 80 62 00
        E 0 80 56 00
        E 0 80 4a 00
        E 120 90 18 60
        E 0 90 60 60
        E 0 90 54 60
        E 120 80 18 00
        E 0 80 60 00
        E 0 80 54 00
        E 120 90 18 60
        E 0 90 1f 60
        E 0 90 60 60
        E 0 90 62 60
        E 0 90 54 60
        E 0 90 56 60
        E 0 90 48 60
        E 0 90 4a 60
        E 0 90 3e 60
        E 120 80 18 00
        E 0 80 1f 00
        E 0 80 60 00
        E 0 80 62 00
        E 0 80 54 00
        E 0 80 56 00
        E 0 80 48 00
        E 0 80 4a 00
        E 0 80 3e 00
        E 120 90 1c 60
        E 0 90 61 60
        E 0 90 55 60
        E 120 80 1c 00
        E 0 80 61 00
        E 0 80 55 00
        E 120 90 18 60
        E 0 90 1f 60
        E 0 90 60 60
        E 0 90 62 60
        E 0 90 54 60
        E 0 90 56 60
        E 0 90 48 60
        E 0 90 4a 60
        E 120 80 18 00
        E 0 80 1f 00
        E 0 80 60 00
        E 0 80 62 00
        E 0 80 54 00
        E 0 80 56 00
        E 0 80 48 00
        E 0 80 4a 00
        E 120 90 18 60
        E 0 90 60 60
        E 0 90 54 60
        E 120 80 18 00
        E 0 80 60 00
        E 0 80 54 00
        E 120 90 1a 60
        E 0 90 1f 60
        E 0 90 61 60
        E 0 90 62 60
        E 0 90 55 60
        E 0 90 56 60
        E 0 90 49 60
        E 0 90 4a 60
        E 0 90 3d 60
        E 0 90 3e 60
        E 120 80 1a 00
        E 0 80 1f 00
        E 0 80 61 00
        E 0 80 62 00
        E 0 80 55 00
        E 0 80 56 00
        E 0 80 49 00
        E 0 80 4a 00
        E 0 80 3d 00
        E 0 80 3e 00
        E 360 90 1f 60
        E 0 90 62 60
        E 0 90 56 60
        E 0 90 4a 60
        E 120 80 1f 00
        E 0 80 62 00
        E 0 80 56 00
        E 0 80 4a 00
        E 120 90 19 60
        E 0 90 1c 60
        E 0 90 61 60
        E 0 90 55 60
        E 120 80 1c 00
        E 0 80 61 00
        E 0 80 55 00
        E 0 90 1c 60
        E 0 90 61 60
        E 120 80 19 00
        E 0 80 1c 00
        E 0 80 61 00
        E 0 90 1b 60
        E 0 90 61 60
        E 0 90 55 60
        E 0 90 49 60
        E 0 90 3d 60
        E 120 80 1b 00
        E 0 80 61 00
        E 0 80 55 00
        E 0 80 49 00
        E 0 80 3d 00
        E 120 90 19 60
        E 0 90 1a 60
        E 0 90 61 60
        E 0 90 55 60
        E 120 80 1a 00
        E 0 80 61 00
        E 0 80 55 00
        E 120 80 19 00
        E 0 90 2f 60
        E 0 90 63 60
        E 0 90 57 60
        E 0 90 4b 60
        E 0 90 6f 60
        E 120 80 2f 00
        E 0 80 63 00
        E 0 80 57 00
        E 0 80 4b 00
        E 0 80 6f 00
        E 120 90 19 60
        E 0 90 1c 60
        E 0 90 61 60
        E 0 90 55 60
        E 120 80 1c 00
        E 0 80 61 00
        E 0 80 55 00
        E 120 80 19 00
        E 0 90 1c 60
        E 0 90 61 60
        E 0 90 55 60
        E 0 90 49 60
        E 0 90 3d 60
        E 120 80 1c 00
        E 0 80 61 00
        E 0 80 55 00
        E 0 80 49 00
        E 0 80 3d 00
        E 120 90 19 60
        E 0 90 2f 60
        E 0 90 63 60
        E 0 90 57 60
        E 0 90 6f 60
        E 120 80 2f 00
        E 0 80 63 00
        E 0 80 57 00
        E 0 80 6f 00
        E 120 80 19 00
        E 0 90 1c 60
        E 0 90 61 60
        E 0 90 55 60
        E 0 90 49 60
        E 120 80 1c 00
        E 0 80 61 00
        E 0 80 55 00
        E 0 80 49 00
        E 120 90 19 60
        E 0 90 2f 60
        E 0 90 63 60
        E 0 90 57 60
        E 0 90 6f 60
        E 120 80 2f 00
        E 0 80 63 00
        E 0 80 57 00
        E 0 80 6f 00
        E 120 80 19 00
        E 0 90 1a 60
        E 0 90 61 60
        E 0 90 78 60
        E 0 90 79 60
        E 0 90 7a 60
        E 0 90 7b 60
        E 0 90 7c 60
        E 0 90 55 60
        E 0 90 49 60
        E 0 90 3d 60
        E 120 80 1a 00
        E 0 80 61 00
        E 0 80 55 00
        E 0 80 49 00
        E 0 80 3d 00
        E 120 90 19 60
        E 0 90 1c 60
        E 0 90 61 60
        E 0 90 55 60
        E 120 80 1c 00
        E 0 80 61 00
        E 0 80 55 00
        E 120 80 19 00
        E 0 90 2f 60
        E 0 90 63 60
        E 0 90 57 60
        E 0 90 4b 60
        E 0 90 6f 60
        E 120 80 2f 00
        E 0 80 63 00
        E 0 80 57 00
        E 0 80 4b 00
        E 0 80 6f 00
        E 120 90 19 60
        E 0 90 1a 60
        E 0 90 61 60
        E 0 90 55 60
        E 120 80 1a 00
        E 0 80 61 00
        E 0 80 55 00
        E 120 80 19 00
        E 0 90 1d 60
        E 0 90 62 60
        E 0 90 56 60
        E 0 90 4a 60
        E 0 90 6e 60
        E 0 90 3e 60
        E 120 80 1d 00
        E 0 80 62 00
        E 0 80 56 00
        E 0 80 4a 00
        E 0 80 6e 00
        E 0 80 3e 00
        E 120 90 19 60
        E 0 90 1a 60
        E 0 90 61 60
        E 0 90 55 60
        E 120 80 1a 00
        E 0 80 61 00
        E 0 80 55 00
        E 120 80 19 00
        E 0 90 1b 60
        E 0 90 61 60
        E 0 90 55 60
        E 0 90 49 60
        E 120 80 1b 00
        E 0 80 61 00
        E 0 80 55 00
        E 0 80 49 00
        E 120 90 18 60
        E 0 90 60 60
        E 0 90 54 60
        E 120 80 18 00
        E 0 80 60 00
        E 0 80 54 00
        E 120 80 78 00
        E 0 80 79 00
        E 0 80 7a 00
        E 0 80 7b 00
        E 0 80 7c 00
        E 0 90 18 60
        E 0 90 24 60
        E 0 90 60 60
        E 0 90 64 60
        E 0 90 54 60
        E 0 90 58 60
        E 0 90 48 60
        E 0 90 4c 60
        E 0 90 40 60
        E 120 80 18 00
        E 0 80 24 00
        E 0 80 60 00
        E 0 80 64 00
        E 0 80 54 00
        E 0 80 58 00
        E 0 80 48 00
        E 0 80 4c 00
        E 0 80 40 00
        E 360 90 1f 60
        E 0 90 62 60
        E 0 90 56 60
        E 0 90 4a 60
        E 120 80 1f 00
        E 0 80 62 00
        E 0 80 56 00
        E 0 80 4a 00
        E 360 90 1a 60
        E 0 90 1f 60
        E 0 90 61 60
        E 0 90 62 60
        E 0 90 55 60
        E 0 90 56 60
        E 0 90 49 60
        E 0 90 4a 60
        E 0 90 3d 60
        E 0 90 3e 60
        E 120 80 1a 00
        E 0 80 1f 00
        E 0 80 61 00
        E 0 80 62 00
        E 0 80 55 00
        E 0 80 56 00
        E 0 80 49 00
        E 0 80 4a 00
        E 0 80 3d 00
        E 0 80 3e 00
        E 360 90 1f 60
        E 0 90 62 60
        E 0 90 56 60
        E 0 90 4a 60
        E 120 80 1f 00
        E 0 80 62 00
        E 0 80 56 00
        E 0 80 4a 00
        E 120 90 18 60
        E 0 90 60 60
        E 0 90 54 60
        E 120 80 18 00
        E 0 80 60 00
        E 0 80 54 00
        E 120 90 1f 60
        E 0 90 62 60
        E 0 90 56 60
        E 0 90 4a 60
        E 0 90 3e 60
        E 120 80 1f 00
        E 0 80 62 00
        E 0 80 56 00
        E 0 80 4a 00
        E 0 80 3e 00
        E 120 90 18 60
        E 0 90 60 60
        E 0 90 54 60
        E 120 80 18 00
        E 0 80 60 00
        E 0 80 54 00
        E 120 90 18 60
        E 0 90 1f 60
        E 0 90 60 60
        E 0 90 62 60
        E 0 90 54 60
        E 0 90 56 60
        E 0 90 48 60
        E 0 90 4a 60
        E 120 80 18 00
        E 0 80 1f 00
        E 0 80 60 00
        E 0 80 62 00
        E 0 80 54 00
        E 0 80 56 00
        E 0 80 48 00
        E 0 80 4a 00
        E 360 90 1a 60
        E 0 90 1f 60
        E 0 90 61 60
        E 0 90 62 60
        E 0 90 55 60
        E 0 90 56 60
        E 0 90 49 60
        E 0 90 4a 60
        E 0 90 3d 60
        E 0 90 3e 60
        E 120 80 1a 00
        E 0 80 1f 00
        E 0 80 61 00
        E 0 80 62 00
        E 0 80 55 00
        E 0 80 56 00
        E 0 80 49 00
        E 0 80 4a 00
        E 0 80 3d 00
        E 0 80 3e 00
        E 360 90 1f 60
        E 0 90 62 60
        E 0 90 56 60
        E 0 90 4a 60
        E 120 80 1f 00
        E 0 80 62 00
        E 0 80 56 00
        E 0 80 4a 00
        E 120 90 1c 60
        E 0 90 61 60
        E 0 90 55 60
        E 120 80 1c 00
        E 0 80 61 00
        E 0 80 55 00
        E 120 90 2f 60
        E 0 90 63 60
        E 0 90 57 60
        E 0 90 4b 60
        E 0 90 6f 60
        E 0 90 3f 60
        E 120 80 2f 00
        E 0 80 63 00
        E 0 80 57 00
        E 0 80 4b 00
        E 0 80 6f 00
        E 0 80 3f 00
        E 120 90 19 60
        E 0 90 1c 60
        E 0 90 61 60
        E 0 90 55 60
        E 120 80 1c 00
        E 0 80 61 00
        E 0 80 55 00
        E 0 90 1c 60
        E 0 90 61 60
        E 120 80 19 00
        E 0 80 1c 00
        E 0 80 61 00
        E 0 90 1b 60
        E 0 90 61 60
        E 0 90 55 60
        E 0 90 49 60
        E 120 80 1b 00
        E 0 80 61 00
        E 0 80 55 00
        E 0 80 49 00
        E 120 90 19 60
        E 0 90 1a 60
        E 0 90 61 60
        E 0 90 55 60
        E 120 80 1a 00
        E 0 80 61 00
        E 0 80 55 00
        E 120 80 19 00
        E 0 90 1d 60
        E 0 90 61 60
        E 0 90 55 60
        E 0 90 49 60
        E 0 90 3d 60
        E 120 80 1d 00
        E 0 80 61 00
        E 0 80 55 00
        E 0 80 49 00
        E 0 80 3d 00
        E 120 90 19 60
        E 0 90 1a 60
        E 0 90 61 60
        E 0 90 55 60
        E 120 80 1a 00
        E 0 80 61 00
        E 0 80 55 00
        E 120 80 19 00
        E 0 90 1c 60
        E 0 90 61 60
        E 0 90 55 60
        E 0 90 49 60
        E 120 80 1c 00
        E 0 80 61 00
        E 0 80 55 00
        E 0 80 49 00
        E 120 90 19 60
        E 0 90 2f 60
        E 0 90 63 60
        E 0 90 57 60
        E 0 90 6f 60
        E 120 80 2f 00
        E 0 80 63 00
        E 0 80 57 00
        E 0 80 6f 00
        E 120 80 19 00
        E 0 90 1c 60
        E 0 90 61 60
        E 0 90 78 60
        E 0 90 79 60
        E 0 90 7a 60
        E 0 90 7b 60
        E 0 90 7c 60
        E 0 90 55 60
        E 0 90 49 60
        E 0 90 3d 60
        E 120 80 1c 00
        E 0 80 61 00
        E 0 80 55 00
        E 0 80 49 00
        E 0 80 3d 00
        E 120 90 19 60
        E 0 90 1c 60
        E 0 90 61 60
        E 0 90 55 60
        E 120 80 1c 00
        E 0 80 61 00
        E 0 80 55 00
        E 120 80 19 00
        E 0 90 1b 60
        E 0 90 61 60
        E 0 90 55 60
        E 0 90 49 60
        E 120 80 1b 00
        E 0 80 61 00
        E 0 80 55 00
        E 0 80 49 00
        E 120 90 19 60
        E 0 90 1c 60
        E 0 90 61 60
        E 0 90 55 60
        E 120 80 1c 00
        E 0 80 61 00
        E 0 80 55 00
        E 120 80 19 00
        E 0 90 1b 60
        E 0 90 61 60
        E 0 90 55 60
        E 0 90 49 60
        E 0 90 3d 60
        E 120 80 1b 00
        E 0 80 61 00
        E 0 80 55 00
        E 0 80 49 00
        E 0 80 3d 00
        E 120 90 18 60
        E 0 90 19 60
        E 0 90 60 60
        E 0 90 54 60
        E 120 80 18 00
        E 0 80 60 00
        E 0 80 54 00
        E 120 80 19 00
        E 0 90 1f 60
        E 0 90 62 60
        E 0 90 56 60
        E 0 90 4a 60
        E 120 80 1f 00
        E 0 80 62 00
        E 0 80 56 00
        E 0 80 4a 00
        E 120 90 18 60
        E 0 90 19 60
        E 0 90 60 60
        E 0 90 54 60
        E 120 80 18 00
        E 0 80 60 00
        E 0 80 54 00
        E 120 80 78 00
        E 0 80 79 00
        E 0 80 7a 00
        E 0 80 7b 00
        E 0 80 7c 00
        E 0 80 19 00
        E 0 90 18 60
        E 0 90 24 60
        E 0 90 60 60
        E 0 90 64 60
        E 0 90 74 60
        E 0 90 54 60
        E 0 90 58 60
        E 0 90 48 60
        E 0 90 4c 60
        E 0 90 40 60
        E 120 80 18 00
        E 0 80 24 00
        E 0 80 60 00
        E 0 80 64 00
        E 0 80 54 00
        E 0 80 58 00
        E 0 80 48 00
        E 0 80 4c 00
        E 0 80 40 00
        E 360 90 1f 60
        E 0 90 62 60
        E 0 90 56 60
        E 0 90 4a 60
        E 120 80 1f 00
        E 0 80 62 00
        E 0 80 56 00
        E 0 80 4a 00
        E 360 90 1a 60
        E 0 90 1f 60
        E 0 90 61 60
        E 0 90 62 60
        E 0 90 55 60
        E 0 90 56 60
        E 0 90 49 60
        E 0 90 4a 60
        E 0 90 3d 60
        E 0 90 3e 60
        E 120 80 1a 00
        E 0 80 1f 00
        E 0 80 61 00
        E 0 80 62 00
        E 0 80 55 00
        E 0 80 56 00
        E 0 80 49 00
        E 0 80 4a 00
        E 0 80 3d 00
        E 0 80 3e 00
        E 360 90 1f 60
        E 0 90 62 60
        E 0 90 56 60
        E 0 90 4a 60
        E 120 80 1f 00
        E 0 80 62 00
        E 0 80 56 00
        E 0 80 4a 00
        E 120 90 18 60
        E 0 90 60 60
        E 0 90 54 60
        E 120 80 18 00
        E 0 80 60 00
        E 0 80 54 00
        E 120 90 18 60
        E 0 90 1f 60
        E 0 90 60 60
        E 0 90 62 60
        E 0 90 54 60
        E 0 90 56 60
        E 0 90 48 60
        E 0 90 4a 60
        E 0 90 3e 60
        E 120 80 18 00
        E 0 80 1f 00
        E 0 80 60 00
        E 0 80 62 00
        E 0 80 54 00
        E 0 80 56 00
        E 0 80 48 00
        E 0 80 4a 00
        E 0 80 3e 00
        E 360 90 18 60
        E 0 90 1f 60
        E 0 90 60 60
        E 0 90 62 60
        E 0 90 54 60
        E 0 90 56 60
        E 0 90 48 60
        E 0 90 4a 60
        E 120 80 18 00
        E 0 80 1f 00
        E 0 80 60 00
        E 0 80 62 00
        E 0 80 54 00
        E 0 80 56 00
        E 0 80 48 00
        E 0 80 4a 00
        E 360 90 1a 60
        E 0 90 1f 60
        E 0 90 61 60
        E 0 90 62 60
        E 0 90 55 60
        E 0 90 56 60
        E 0 90 49 60
        E 0 90 4a 60
        E 0 90 3d 60
        E 0 90 3e 60
        E 120 80 1a 00
        E 0 80 1f 00
        E 0 80 61 00
        E 0 80 62 00
        E 0 80 55 00
        E 0 80 56 00
        E 0 80 49 00
        E 0 80 4a 00
        E 0 80 3d 00
        E 0 80 3e 00
        E 360 90 19 60
        E 0 90 1f 60
        E 0 90 63 60
        E 0 90 57 60
        E 0 90 4b 60
        E 120 80 1f 00
        E 0 80 63 00
        E 0 80 57 00
        E 0 80 4b 00
        E 120 90 1c 60
        E 0 90 61 60
        E 0 90 55 60
        E 120 80 1c 00
        E 0 80 61 00
        E 0 80 55 00
        E 120 80 19 00
        E 0 90 2f 60
        E 0 90 63 60
        E 0 90 57 60
        E 0 90 4b 60
        E 0 90 6f 60
        E 0 90 3f 60
        E 120 80 74 00
        E 0 80 2f 00
        E 0 80 63 00
        E 0 80 57 00
        E 0 80 4b 00
        E 0 80 6f 00
        E 0 80 3f 00
        E 120 90 19 60
        E 0 90 1c 60
        E 0 90 61 60
        E 0 90 55 60
        E 120 80 1c 00
        E 0 80 61 00
        E 0 80 55 00
        E 120 80 19 00
        E 0 90 1d 60
        E 0 90 61 60
        E 0 90 55 60
        E 0 90 49 60
        E 120 80 1d 00
        E 0 80 61 00
        E 0 80 55 00
        E 0 80 49 00
        E 120 90 19 60
        E 0 90 1a 60
        E 0 90 61 60
        E 0 90 55 60
        E 120 80 1a 00
        E 0 80 61 00
        E 0 80 55 00
        E 120 80 19 00
        E 0 90 1c 60
        E 0 90 61 60
        E 0 90 55 60
        E 0 90 49 60
        E 0 90 3d 60
        E 120 80 1c 00
        E 0 80 61 00
        E 0 80 55 00
        E 0 80 49 00
        E 0 80 3d 00
        E 120 90 19 60
        E 0 90 2f 60
        E 0 90 63 60
        E 0 90 57 60
        E 0 90 6f 60
        E 120 80 2f 00
        E 0 80 63 00
        E 0 80 57 00
        E 0 80 6f 00
        E 120 80 19 00
        E 0 90 1c 60
        E 0 90 61 60
        E 0 90 55 60
        E 0 90 49 60
        E 120 80 1c 00
        E 0 80 61 00
        E 0 80 55 00
        E 0 80 49 00
        E 120 90 19 60
        E 0 90 2f 60
        E 0 90 63 60
        E 0 90 57 60
        E 0 90 6f 60
        E 120 80 2f 00
        E 0 80 63 00
        E 0 80 57 00
        E 0 80 6f 00
        E 120 80 19 00
        E 0 90 1a 60
        E 0 90 61 60
        E 0 90 78 60
        E 0 90 79 60
        E 0 90 7a 60
        E 0 90 7b 60
        E 0 90 7c 60
        E 0 90 55 60
        E 0 90 49 60
        E 0 90 3d 60
        E 120 80 1a 00
        E 0 80 61 00
        E 0 80 55 00
        E 0 80 49 00
        E 0 80 3d 00
        E 120 90 19 60
        E 0 90 1a 60
        E 0 90 61 60
        E 0 90 55 60
        E 120 80 1a 00
        E 0 80 61 00
        E 0 80 55 00
        E 120 80 19 00
        E 0 90 1b 60
        E 0 90 61 60
        E 0 90 55 60
        E 0 90 49 60
        E 120 80 1b 00
        E 0 80 61 00
        E 0 80 55 00
        E 0 80 49 00
        E 120 90 19 60
        E 0 90 1a 60
        E 0 90 61 60
        E 0 90 55 60
        E 120 80 1a 00
        E 0 80 61 00
        E 0 80 55 00
        E 120 80 19 00
        E 0 90 1b 60
        E 0 90 61 60
        E 0 90 55 60
        E 0 90 49 60
        E 0 90 3d 60
        E 120 80 1b 00
        E 0 80 61 00
        E 0 80 55 00
        E 0 80 49 00
        E 0 80 3d 00
        E 120 90 18 60
        E 0 90 19 60
        E 0 90 60 60
        E 0 90 54 60
        E 120 80 18 00
        E 0 80 60 00
        E 0 80 54 00
        E 120 80 19 00
        E 0 90 1f 60
        E 0 90 62 60
        E 0 90 56 60
        E 0 90 4a 60
        E 120 80 1f 00
        E 0 80 62 00
        E 0 80 56 00
        E 0 80 4a 00
        E 120 90 18 60
        E 0 90 60 60
        E 0 90 54 60
        E 120 80 18 00
        E 0 80 60 00
        E 0 80 54 00
        E 120 80 78 00
        E 0 80 79 00
        E 0 80 7a 00
        E 0 80 7b 00
        E 0 80 7c 00
        E 0 90 18 60
        E 0 90 24 60
        E 0 90 60 60
        E 0 90 64 60
        E 0 90 54 60
        E 0 90 58 60
        E 0 90 48 60
        E 0 90 4c 60
        E 0 90 40 60
        E 120 80 18 00
        E 0 80 24 00
        E 0 80 60 00
        E 0 80 64 00
        E 0 80 54 00
        E 0 80 58 00
        E 0 80 48 00
        E 0 80 4c 00
        E 0 80 40 00
        E 360 90 1f 60
        E 0 90 62 60
        E 0 90 56 60
        E 0 90 4a 60
        E 120 80 1f 00
        E 0 80 62 00
        E 0 80 56 00
        E 0 80 4a 00
        E 360 90 1a 60
        E 0 90 1f 60
        E 0 90 61 60
        E 0 90 62 60
        E 0 90 55 60
        E 0 90 56 60
        E 0 90 49 60
        E 0 90 4a 60
        E 0 90 3d 60
        E 0 90 3e 60
        E 120 80 1a 00
        E 0 80 1f 00
        E 0 80 61 00
        E 0 80 62 00
        E 0 80 55 00
        E 0 80 56 00
        E 0 80 49 00
        E 0 80 4a 00
        E 0 80 3d 00
        E 0 80 3e 00
        E 360 90 1f 60
        E 0 90 62 60
        E 0 90 56 60
        E 0 90 4a 60
        E 120 80 1f 00
        E 0 80 62 00
        E 0 80 56 00
        E 0 80 4a 00
        E 120 90 18 60
        E 0 90 60 60
        E 0 90 54 60
        E 120 80 18 00
        E 0 80 60 00
        E 0 80 54 00
        E 120 90 1f 60
        E 0 90 62 60
        E 0 90 56 60
        E 0 90 4a 60
        E 0 90 3e 60
        E 120 80 1f 00
        E 0 80 62 00
        E 0 80 56 00
        E 0 80 4a 00
        E 0 80 3e 00
        E 120 90 1c 60
        E 0 90 61 60
        E 0 90 55 60
        E 120 80 1c 00
        E 0 80 61 00
        E 0 80 55 00
        E 120 90 18 60
        E 0 90 1f 60
        E 0 90 60 60
        E 0 90 62 60
        E 0 90 54 60
        E 0 90 56 60
        E 0 90 48 60
        E 0 90 4a 60
        E 120 80 18 00
        E 0 80 1f 00
        E 0 80 60 00
        E 0 80 62 00
        E 0 80 54 00
        E 0 80 56 00
        E 0 80 48 00
        E 0 80 4a 00
        E 120 90 18 60
        E 0 90 60 60
        E 0 90 54 60
        E 120 80 18 00
        E 0 80 60 00
        E 0 80 54 00
        E 120 90 1a 60
        E 0 90 1f 60
        E 0 90 61 60
        E 0 90 62 60
        E 0 90 55 60
        E 0 90 56 60
        E 0 90 49 60
        E 0 90 4a 60
        E 0 90 3d 60
        E 0 90 3e 60
        E 120 80 1a 00
        E 0 80 1f 00
        E 0 80 61 00
        E 0 80 62 00
        E 0 80 55 00
        E 0 80 56 00
        E 0 80 49 00
        E 0 80 4a 00
        E 0 80 3d 00
        E 0 80 3e 00
        E 360 90 19 60
        E 0 90 1f 60
        E 0 90 63 60
        E 0 90 57 60
        E 0 90 4b 60
        E 120 80 1f 00
        E 0 80 63 00
        E 0 80 57 00
        E 0 80 4b 00
        E 120 90 1c 60
        E 0 90 61 60
        E 0 90 55 60
        E 120 80 1c 00
        E 0 80 61 00
        E 0 80 55 00
        E 0 90 1c 60
        E 0 90 61 60
        E 120 80 19 00
        E 0 80 1c 00
        E 0 80 61 00
        E 0 90 1b 60
        E 0 90 61 60
        E 0 90 55 60
        E 0 90 49 60
        E 0 90 3d 60
        E 120 80 1b 00
        E 0 80 61 00
        E 0 80 55 00
        E 0 80 49 00
        E 0 80 3d 00
        E 120 90 19 60
        E 0 90 1a 60
        E 0 90 61 60
        E 0 90 55 60
        E 120 80 1a 00
        E 0 80 61 00
        E 0 80 55 00
        E 120 80 19 00
        E 0 90 1a 60
        E 0 90 61 60
        E 0 90 55 60
        E 0 90 49 60
        E 120 80 1a 00
        E 0 80 61 00
        E 0 80 55 00
        E 0 80 49 00
        E 120 90 19 60
        E 0 90 2f 60
        E 0 90 63 60
        E 0 90 57 60
        E 0 90 6f 60
        E 120 80 2f 00
        E 0 80 63 00
        E 0 80 57 00
        E 0 80 6f 00
        E 120 80 19 00
        E 0 90 1c 60
        E 0 90 61 60
        E 0 90 55 60
        E 0 90 49 60
        E 0 90 3d 60
        E 120 80 1c 00
        E 0 80 61 00
        E 0 80 55 00
        E 0 80 49 00
        E 0 80 3d 00
        E 120 90 19 60
        E 0 90 2f 60
        E 0 90 63 60
        E 0 90 57 60
        E 0 90 6f 60
        E 120 80 2f 00
        E 0 80 63 00
        E 0 80 57 00
        E 0 80 6f 00
        E 120 80 19 00
        E 0 90 1c 60
        E 0 90 61 60
        E 0 90 55 60
        E 0 90 49 60
        E 120 80 1c 00
        E 0 80 61 00
        E 0 80 55 00
        E 0 80 49 00
        E 120 90 19 60
        E 0 90 1c 60
        E 0 90 61 60
        E 0 90 55 60
        E 120 80 1c 00
        E 0 80 61 00
        E 0 80 55 00
        E 120 80 19 00
        E 0 90 1b 60
        E 0 90 61 60
        E 0 90 78 60
        E 0 90 79 60
        E 0 90 7a 60
        E 0 90 7b 60
        E 0 90 7c 60
        E 0 90 55 60
        E 0 90 49 60
        E 0 90 3d 60
        E 120 80 1b 00
        E 0 80 61 00
        E 0 80 55 00
        E 0 80 49 00
        E 0 80 3d 00
        E 120 90 19 60
        E 0 90 1a 60
        E 0 90 61 60
        E 0 90 55 60
        E 120 80 1a 00
        E 0 80 61 00
        E 0 80 55 00
        E 120 80 19 00
        E 0 90 2f 60
        E 0 90 63 60
        E 0 90 57 60
        E 0 90 4b 60
        E 0 90 6f 60
        E 120 80 2f 00
        E 0 80 63 00
        E 0 80 57 00
        E 0 80 4b 00
        E 0 80 6f 00
        E 120 90 19 60
        E 0 90 1c 60
        E 0 90 61 60
        E 0 90 55 60
        E 120 80 1c 00
        E 0 80 61 00
        E 0 80 55 00
        E 120 80 19 00
        E 0 90 1b 60
        E 0 90 61 60
        E 0 90 55 60
        E 0 90 49 60
        E 0 90 3d 60
        E 120 80 1b 00
        E 0 80 61 00
        E 0 80 55 00
        E 0 80 49 00
        E 0 80 3d 00
        E 120 90 19 60
        E 0 90 1a 60
        E 0 90 61 60
        E 0 90 55 60
        E 120 80 1a 00
        E 0 80 61 00
        E 0 80 55 00
        E 120 80 19 00
        E 0 90 1f 60
        E 0 90 62 60
        E 0 90 56 60
        E 0 90 4a 60
        E 120 80 1f 00
        E 0 80 62 00
        E 0 80 56 00
        E 0 80 4a 00
        E 120 90 18 60
        E 0 90 60 60
        E 0 90 54 60
        E 120 80 18 00
        E 0 80 60 00
        E 0 80 54 00
        E 120 80 78 00
        E 0 80 79 00
        E 0 80 7a 00
        E 0 80 7b 00
        E 0 80 7c 00
        E 0 90 18 60
        E 0 90 24 60
        E 0 90 60 60
        E 0 90 64 60
        E 0 90 54 60
        E 0 90 58 60
        E 0 90 48 60
        E 0 90 4c 60
        E 0 90 40 60
        E 120 80 18 00
        E 0 80 24 00
        E 0 80 60 00
        E 0 80 64 00
        E 0 80 54 00
        E 0 80 58 00
        E 0 80 48 00
        E 0 80 4c 00
        E 0 80 40 00
        E 360 90 1f 60
        E 0 90 62 60
        E 0 90 56 60
        E 0 90 4a 60
        E 120 80 1f 00
        E 0 80 62 00
        E 0 80 56 00
        E 0 80 4a 00
        E 120 90 18 60
        E 0 90 60 60
        E 0 90 54 60
        E 120 80 18 00
        E 0 80 60 00
        E 0 80 54 00
        E 120 90 1a 60
        E 0 90 1f 60
        E 0 90 61 60
        E 0 90 62 60
        E 0 90 55 60
        E 0 90 56 60
        E 0 90 49 60
        E 0 90 4a 60
        E 0 90 3d 60
        E 0 90 3e 60
        E 120 80 1a 00
        E 0 80 1f 00
        E 0 80 61 00
        E 0 80 62 00
        E 0 80 55 00
        E 0 80 56 00
        E 0 80 49 00
        E 0 80 4a 00
        E 0 80 3d 00
        E 0 80 3e 00
        E 360 90 1f 60
        E 0 90 62 60
        E 0 90 56 60
        E 0 90 4a 60
        E 120 80 1f 00
        E 0 80 62 00
        E 0 80 56 00
        E 0 80 4a 00
        E 120 90 18 60
        E 0 90 60 60
        E 0 90 54 60
        E 120 80 18 00
        E 0 80 60 00
        E 0 80 54 00
        E 120 90 18 60
        E 0 90 1f 60
        E 0 90 60 60
        E 0 90 62 60
        E 0 90 54 60
        E 0 90 56 60
        E 0 90 48 60
        E 0 90 4a 60
        E 0 90 3e 60
        E 120 80 18 00
        E 0 80 1f 00
        E 0 80 60 00
        E 0 80 62 00
        E 0 80 54 00
        E 0 80 56 00
        E 0 80 48 00
        E 0 80 4a 00
        E 0 80 3e 00
        E 120 90 1c 60
        E 0 90 61 60
        E 0 90 55 60
        E 120 80 1c 00
        E 0 80 61 00
        E 0 80 55 00
        E 120 90 18 60
        E 0 90 1f 60
        E 0 90 60 60
        E 0 90 62 60
        E 0 90 54 60
        E 0 90 56 60
        E 0 90 48 60
        E 0 90 4a 60
        E 120 80 18 00
        E 0 80 1f 00
        E 0 80 60 00
        E 0 80 62 00
        E 0 80 54 00
        E 0 80 56 00
        E 0 80 48 00
        E 0 80 4a 00
        E 120 90 18 60
        E 0 90 60 60
        E 0 90 54 60
        E 120 80 18 00
        E 0 80 60 00
        E 0 80 54 00
        E 120 90 1a 60
        E 0 90 1f 60
        E 0 90 61 60
        E 0 90 62 60
        E 0 90 55 60
        E 0 90 56 60
        E 0 90 49 60
        E 0 90 4a 60
        E 0 90 3d 60
        E 0 90 3e 60
        E 120 80 1a 00
        E 0 80 1f 00
        E 0 80 61 00
        E 0 80 62 00
        E 0 80 55 00
        E 0 80 56 00
        E 0 80 49 00
        E 0 80 4a 00
        E 0 80 3d 00
        E 0 80 3e 00
        E 360 90 1f 60
        E 0 90 62 60
        E 0 90 56 60
        E 0 90 4a 60
        E 120 80 1f 00
        E 0 80 62 00
        E 0 80 56 00
        E 0 80 4a 00
        E 120 90 19 60
        E 0 90 1c 60
        E 0 90 61 60
        E 0 90 55 60
        E 120 80 1c 00
        E 0 80 61 00
        E 0 80 55 00
        E 0 90 1c 60
        E 0 90 61 60
        E 120 80 19 00
        E 0 80 1c 00
        E 0 80 61 00
        E 0 90 1b 60
        E 0 90 61 60
        E 0 90 55 60
        E 0 90 49 60
        E 0 90 3d 60
        E 120 80 1b 00
        E 0 80 61 00
        E 0 80 55 00
        E 0 80 49 00
        E 0 80 3d 00
        E 120 90 19 60
        E 0 90 1a 60
        E 0 90 61 60
        E 0 90 55 60
        E 120 80 1a 00
        E 0 80 61 00
        E 0 80 55 00
        E 120 80 19 00
        E 0 90 2f 60
        E 0 90 63 60
        E 0 90 57 60
        E 0 90 4b 60
        E 0 90 6f 60
        E 120 80 2f 00
        E 0 80 63 00
        E 0 80 57 00
        E 0 80 4b 00
        E 0 80 6f 00
        E 120 90 19 60
        E 0 90 1c 60
        E 0 90 61 60
        E 0 90 55 60
        E 120 80 1c 00
        E 0 80 61 00
        E 0 80 55 00
        E 120 80 19 00
        E 0 90 1c 60
        E 0 90 61 60
        E 0 90 55 60
        E 0 90 49 60
        E 0 90 3d 60
        E 120 80 1c 00
        E 0 80 61 00
        E 0 80 55 00
        E 0 80 49 00
        E 0 80 3d 00
        E 120 90 19 60
        E 0 90 2f 60
        E 0 90 63 60
        E 0 90 57 60
        E 0 90 6f 60
        E 120 80 2f 00
        E 0 80 63 00
        E 0 80 57 00
        E 0 80 6f 00
        E 120 80 19 00
        E 0 90 1c 60
        E 0 90 61 60
        E 0 90 55 60
        E 0 90 49 60
        E 120 80 1c 00
        E 0 80 61 00
        E 0 80 55 00
        E 0 80 49 00
        E 120 90 19 60
        E 0 90 2f 60
        E 0 90 63 60
        E 0 90 57 60
        E 0 90 6f 60
        E 120 80 2f 00
        E 0 80 63 00
        E 0 80 57 00
        E 0 80 6f 00
        E 120 80 19 00
        E 0 90 1a 60
        E 0 90 61 60
        E 0 90 78 60
        E 0 90 79 60
        E 0 90 7a 60
        E 0 90 7b 60
        E 0 90 7c 60
        E 0 90 55 60
        E 0 90 49 60
        E 0 90 3d 60
        E 120 80 1a 00
        E 0 80 61 00
        E 0 80 55 00
        E 0 80 49 00
        E 0 80 3d 00
        E 120 90 19 60
        E 0 90 1c 60
        E 0 90 61 60
        E 0 90 55 60
        E 120 80 1c 00
        E 0 80 61 00
        E 0 80 55 00
        E 120 80 19 00
        E 0 90 2f 60
        E 0 90 63 60
        E 0 90 57 60
        E 0 90 4b 60
        E 0 90 6f 60
        E 120 80 2f 00
        E 0 80 63 00
        E 0 80 57 00
        E 0 80 4b 00
        E 0 80 6f 00
        E 120 90 19 60
        E 0 90 1a 60
        E 0 90 61 60
        E 0 90 55 60
        E 120 80 1a 00
        E 0 80 61 00
        E 0 80 55 00
        E 120 80 19 00
        E 0 90 1d 60
        E 0 90 62 60
        E 0 90 56 60
        E 0 90 4a 60
        E 0 90 6e 60
        E 0 90 3e 60
        E 120 80 1d 00
        E 0 80 62 00
        E 0 80 56 00
        E 0 80 4a 00
        E 0 80 6e 00
        E 0 80 3e 00
        E 120 90 19 60
        E 0 90 1a 60
        E 0 90 61 60
        E 0 90 55 60
        E 120 80 1a 00
        E 0 80 61 00
        E 0 80 55 00
        E 120 80 19 00
        E 0 90 1b 60
        E 0 90 61 60
        E 0 90 55 60
        E 0 90 49 60
        E 120 80 1b 00
        E 0 80 61 00
        E 0 80 55 00
        E 0 80 49 00
        E 120 90 18 60
        E 0 90 60 60
        E 0 90 54 60
        E 120 80 18 00
        E 0 80 60 00
        E 0 80 54 00
        E 120 80 78 00
        E 0 80 79 00
        E 0 80 7a 00
        E 0 80 7b 00
        E 0 80 7c 00
        E 0 90 18 60
        E 0 90 24 60
        E 0 90 60 60
        E 0 90 64 60
        E 0 90 54 60
        E 0 90 58 60
        E 0 90 48 60
        E 0 90 4c 60
        E 0 90 40 60
        E 120 80 18 00
        E 0 80 24 00
        E 0 80 60 00
        E 0 80 64 00
        E 0 80 54 00
        E 0 80 58 00
        E 0 80 48 00
        E 0 80 4c 00
        E 0 80 40 00
        E 360 90 1f 60
        E 0 90 62 60
        E 0 90 56 60
        E 0 90 4a 60
        E 120 80 1f 00
        E 0 80 62 00
        E 0 80 56 00
        E 0 80 4a 00
        E 360 90 1a 60
        E 0 90 1f 60
        E 0 90 61 60
        E 0 90 62 60
        E 0 90 55 60
        E 0 90 56 60
        E 0 90 49 60
        E 0 90 4a 60
        E 0 90 3d 60
        E 0 90 3e 60
        E 120 80 1a 00
        E 0 80 1f 00
        E 0 80 61 00
        E 0 80 62 00
        E 0 80 55 00
        E 0 80 56 00
        E 0 80 49 00
        E 0 80 4a 00
        E 0 80 3d 00
        E 0 80 3e 00
        E 360 90 1f 60
        E 0 90 62 60
        E 0 90 56 60
        E 0 90 4a 60
        E 120 80 1f 00
        E 0 80 62 00
        E 0 80 56 00
        E 0 80 4a 00
        E 120 90 18 60
        E 0 90 60 60
        E 0 90 54 60
        E 120 80 18 00
        E 0 80 60 00
        E 0 80 54 00
        E 120 90 1f 60
        E 0 90 62 60
        E 0 90 56 60
        E 0 90 4a 60
        E 0 90 3e 60
        E 120 80 1f 00
        E 0 80 62 00
        E 0 80 56 00
        E 0 80 4a 00
        E 0 80 3e 00
        E 120 90 18 60
        E 0 90 60 60
        E 0 90 54 60
        E 120 80 18 00
        E 0 80 60 00
        E 0 80 54 00
        E 120 90 18 60
        E 0 90 1f 60
        E 0 90 60 60
        E 0 90 62 60
        E 0 90 54 60
        E 0 90 56 60
        E 0 90 48 60
        E 0 90 4a 60
        E 120 80 18 00
        E 0 80 1f 00
        E 0 80 60 00
        E 0 80 62 00
        E 0 80 54 00
        E 0 80 56 00
        E 0 80 48 00
        E 0 80 4a 00
        E 360 90 1a 60
        E 0 90 1f 60
        E 0 90 61 60
        E 0 90 62 60
        E 0 90 55 60
        E 0 90 56 60
        E 0 90 49 60
        E 0 90 4a 60
        E 0 90 3d 60
        E 0 90 3e 60
        E 120 80 1a 00
        E 0 80 1f 00
        E 0 80 61 00
        E 0 80 62 00
        E 0 80 55 00
        E 0 80 56 00
        E 0 80 49 00
        E 0 80 4a 00
        E 0 80 3d 00
        E 0 80 3e 00
        E 360 90 1f 60
        E 0 90 62 60
        E 0 90 56 60
        E 0 90 4a 60
        E 120 80 1f 00
        E 0 80 62 00
        E 0 80 56 00
        E 0 80 4a 00
        E 120 90 1c 60
        E 0 90 61 60
        E 0 90 55 60
        E 120 80 1c 00
        E 0 80 61 00
        E 0 80 55 00
        E 120 90 2f 60
        E 0 90 63 60
        E 0 90 57 60
        E 0 90 4b 60
        E 0 90 6f 60
        E 0 90 3f 60
        E 120 80 2f 00
        E 0 80 63 00
        E 0 80 57 00
        E 0 80 4b 00
        E 0 80 6f 00
        E 0 80 3f 00
        E 120 90 19 60
        E 0 90 1c 60
        E 0 90 61 60
        E 0 90 55 60
        E 120 80 1c 00
        E 0 80 61 00
        E 0 80 55 00
        E 0 90 1c 60
        E 0 90 61 60
        E 120 80 19 00
        E 0 80 1c 00
        E 0 80 61 00
        E 0 90 1b 60
        E 0 90 61 60
        E 0 90 55 60
        E 0 90 49 60
        E 120 80 1b 00
        E 0 80 61 00
        E 0 80 55 00
        E 0 80 49 00
        E 120 90 19 60
        E 0 90 1a 60
        E 0 90 61 60
        E 0 90 55 60
        E 120 80 1a 00
        E 0 80 61 00
        E 0 80 55 00
        E 120 80 19 00
        E 0 90 1d 60
        E 0 90 61 60
        E 0 90 55 60
        E 0 90 49 60
        E 0 90 3d 60
        E 120 80 1d 00
        E 0 80 61 00
        E 0 80 55 00
        E 0 80 49 00
        E 0 80 3d 00
        E 120 90 19 60
        E 0 90 1a 60
        E 0 90 61 60
        E 0 90 55 60
        E 120 80 1a 00
        E 0 80 61 00
        E 0 80 55 00
        E 120 80 19 00
        E 0 90 1c 60
        E 0 90 61 60
        E 0 90 55 60
        E 0 90 49 60
        E 120 80 1c 00
        E 0 80 61 00
        E 0 80 55 00
        E 0 80 49 00
        E 120 90 19 60
        E 0 90 2f 60
        E 0 90 63 60
        E 0 90 57 60
        E 0 90 6f 60
        E 120 80 2f 00
        E 0 80 63 00
        E 0 80 57 00
        E 0 80 6f 00
        E 120 80 19 00
        E 0 90 1c 60
        E 0 90 61 60
        E 0 90 78 60
        E 0 90 79 60
        E 0 90 7a 60
        E 0 90 7b 60
        E 0 90 7c 60
        E 0 90 55 60
        E 0 90 49 60
        E 0 90 3d 60
        E 120 80 1c 00
        E 0 80 61 00
        E 0 80 55 00
        E 0 80 49 00
        E 0 80 3d 00
        E 120 90 19 60
        E 0 90 1c 60
        E 0 90 61 60
        E 0 90 55 60
        E 120 80 1c 00
        E 0 80 61 00
        E 0 80 55 00
        E 120 80 19 00
        E 0 90 1b 60
        E 0 90 61 60
        E 0 90 55 60
        E 0 90 49 60
        E 120 80 1b 00
        E 0 80 61 00
        E 0 80 55 00
        E 0 80 49 00
        E 120 90 19 60
        E 0 90 1c 60
        E 0 90 61 60
        E 0 90 55 60
        E 120 80 1c 00
        E 0 80 61 00
        E 0 80 55 00
        E 120 80 19 00
        E 0 90 1b 60
        E 0 90 61 60
        E 0 90 55 60
        E 0 90 49 60
        E 0 90 3d 60
        E 120 80 1b 00
        E 0 80 61 00
        E 0 80 55 00
        E 0 80 49 00
        E 0 80 3d 00
        E 120 90 18 60
        E 0 90 19 60
        E 0 90 60 60
        E 0 90 54 60
        E 120 80 18 00
        E 0 80 60 00
        E 0 80 54 00
        E 120 80 19 00
        E 0 90 1f 60
        E 0 90 62 60
        E 0 90 56 60
        E 0 90 4a 60
        E 120 80 1f 00
        E 0 80 62 00
        E 0 80 56 00
        E 0 80 4a 00
        E 120 90 18 60
        E 0 90 19 60
        E 0 90 60 60
        E 0 90 54 60
        E 120 80 18 00
        E 0 80 60 00
        E 0 80 54 00
        E 120 80 78 00
        E 0 80 79 00
        E 0 80 7a 00
        E 0 80 7b 00
        E 0 80 7c 00
        E 0 80 19 00
        E 0 90 18 60
        E 0 90 24 60
        E 0 90 60 60
        E 0 90 64 60
        E 0 90 54 60
        E 0 90 58 60
        E 0 90 48 60
        E 0 90 4c 60
        E 0 90 40 60
        E 120 80 18 00
        E 0 80 24 00
        E 0 80 60 00
        E 0 80 64 00
        E 0 80 54 00
        E 0 80 58 00
        E 0 80 48 00
        E 0 80 4c 00
        E 0 80 40 00
        E 360 90 1f 60
        E 0 90 62 60
        E 0 90 56 60
        E 0 90 4a 60
        E 120 80 1f 00
        E 0 80 62 00
        E 0 80 56 00
        E 0 80 4a 00
        E 360 90 1a 60
        E 0 90 1f 60
        E 0 90 61 60
        E 0 90 62 60
        E 0 90 55 60
        E 0 90 56 60
        E 0 90 49 60
        E 0 90 4a 60
        E 0 90 3d 60
        E 0 90 3e 60
        E 120 80 1a 00
        E 0 80 1f 00
        E 0 80 61 00
        E 0 80 62 00
        E 0 80 55 00
        E 0 80 56 00
        E 0 80 49 00
        E 0 80 4a 00
        E 0 80 3d 00
        E 0 80 3e 00
        E 360 90 1f 60
        E 0 90 62 60
        E 0 90 56 60
        E 0 90 4a 60
        E 120 80 1f 00
        E 0 80 62 00
        E 0 80 56 00
        E 0 80 4a 00
        E 120 90 18 60
        E 0 90 60 60
        E 0 90 54 60
        E 120 80 18 00
        E 0 80 60 00
        E 0 80 54 00
        E 120 90 18 60
        E 0 90 1f 60
        E 0 90 60 60
        E 0 90 62 60
        E 0 90 54 60
        E 0 90 56 60
        E 0 90 48 60
        E 0 90 4a 60
        E 0 90 3e 60
        E 120 80 18 00
        E 0 80 1f 00
        E 0 80 60 00
        E 0 80 62 00
        E 0 80 54 00
        E 0 80 56 00
        E 0 80 48 00
        E 0 80 4a 00
        E 0 80 3e 00
        E 360 90 18 60
        E 0 90 1f 60
        E 0 90 60 60
        E 0 90 62 60
        E 0 90 54 60
        E 0 90 56 60
        E 0 90 48 60
        E 0 90 4a 60
        E 120 80 18 00
        E 0 80 1f 00
        E 0 80 60 00
        E 0 80 62 00
        E 0 80 54 00
        E 0 80 56 00
        E 0 80 48 00
        E 0 80 4a 00
        E 360 90 1a 60
        E 0 90 1f 60
        E 0 90 61 60
        E 0 90 62 60
        E 0 90 55 60
        E 0 90 56 60
        E 0 90 49 60
        E 0 90 4a 60
        E 0 90 3d 60
        E 0 90 3e 60
        E 120 80 1a 00
        E 0 80 1f 00
        E 0 80 61 00
        E 0 80 62 00
        E 0 80 55 00
        E 0 80 56 00
        E 0 80 49 00
        E 0 80 4a 00
        E 0 80 3d 00
        E 0 80 3e 00
        E 360 90 19 60
        E 0 90 1f 60
        E 0 90 63 60
        E 0 90 57 60
        E 0 90 4b 60
        E 120 80 1f 00
        E 0 80 63 00
        E 0 80 57 00
        E 0 80 4b 00
        E 120 90 1c 60
        E 0 90 61 60
        E 0 90 55 60
        E 120 80 1c 00
        E 0 80 61 00
        E 0 80 55 00
        E 120 80 19 00
        E 0 90 2f 60
        E 0 90 63 60
        E 0 90 74 60
        E 0 90 57 60
        E 0 90 4b 60
        E 0 90 6f 60
        E 0 90 3f 60
        E 120 80 2f 00
        E 0 80 63 00
        E 0 80 57 00
        E 0 80 4b 00
        E 0 80 6f 00
        E 0 80 3f 00
        E 120 90 19 60
        E 0 90 1c 60
        E 0 90 61 60
        E 0 90 55 60
        E 120 80 1c 00
        E 0 80 61 00
        E 0 80 55 00
        E 120 80 19 00
        E 0 90 1d 60
        E 0 90 61 60
        E 0 90 55 60
        E 0 90 49 60
        E 120 80 1d 00
        E 0 80 61 00
        E 0 80 55 00
        E 0 80 49 00
        E 120 90 19 60
        E 0 90 1a 60
        E 0 90 61 60
        E 0 90 55 60
        E 120 80 1a 00
        E 0 80 61 00
        E 0 80 55 00
        E 120 80 19 00
        E 0 90 1c 60
        E 0 90 61 60
        E 0 90 55 60
        E 0 90 49 60
        E 0 90 3d 60
        E 120 80 1c 00
        E 0 80 61 00
        E 0 80 55 00
        E 0 80 49 00
        E 0 80 3d 00
        E 120 90 19 60
        E 0 90 2f 60
        E 0 90 63 60
        E 0 90 57 60
        E 0 90 6f 60
        E 120 80 2f 00
        E 0 80 63 00
        E 0 80 57 00
        E 0 80 6f 00
        E 120 80 19 00
        E 0 90 1c 60
        E 0 90 61 60
        E 0 90 55 60
        E 0 90 49 60
        E 120 80 1c 00
        E 0 80 61 00
        E 0 80 55 00
        E 0 80 49 00
        E 120 90 19 60
        E 0 90 2f 60
        E 0 90 63 60
        E 0 90 57 60
        E 0 90 6f 60
        E 120 80 2f 00
        E 0 80 63 00
        E 0 80 57 00
        E 0 80 6f 00
        E 120 80 19 00
        E 0 90 1a 60
        E 0 90 61 60
        E 0 90 55 60
        E 0 90 49 60
        E 0 90 3d 60
        E 120 80 1a 00
        E 0 80 61 00
        E 0 80 55 00
        E 0 80 49 00
        E 0 80 3d 00
        E 120 90 19 60
        E 0 90 1a 60
        E 0 90 61 60
        E 0 90 55 60
        E 120 80 1a 00
        E 0 80 61 00
        E 0 80 55 00
        E 120 80 19 00
        E 0 90 1b 60
        E 0 90 61 60
        E 0 90 55 60
        E 0 90 49 60
        E 120 80 1b 00
        E 0 80 61 00
        E 0 80 55 00
        E 0 80 49 00
        E 120 90 19 60
        E 0 90 1a 60
        E 0 90 61 60
        E 0 90 55 60
        E 120 80 1a 00
        E 0 80 61 00
        E 0 80 55 00
        E 120 80 19 00
        E 0 90 1b 60
        E 0 90 61 60
        E 0 90 55 60
        E 0 90 49 60
        E 0 90 3d 60
        E 120 80 74 00
        E 0 80 1b 00
        E 0 80 61 00
        E 0 80 55 00
        E 0 80 49 00
        E 0 80 3d 00
        E 120 90 18 60
        E 0 90 19 60
        E 0 90 60 60
        E 0 90 54 60
        E 120 80 18 00
        E 0 80 60 00
        E 0 80 54 00
        E 120 80 19 00
        E 0 90 1f 60
        E 0 90 62 60
        E 0 90 56 60
        E 0 90 4a 60
        E 120 80 1f 00
        E 0 80 62 00
        E 0 80 56 00
        E 0 80 4a 00
        E 120 90 18 60
        E 0 90 60 60
        E 0 90 54 60
        E 120 80 18 00
        E 0 80 60 00
        E 0 80 54 00
        E 120 90 18 60
        E 0 90 24 60
        E 0 90 60 60
        E 0 90 64 60
        E 0 90 54 60
        E 0 90 58 60
        E 0 90 48 60
        E 0 90 4c 60
        E 0 90 40 60
        E 120 80 18 00
        E 0 80 24 00
        E 0 80 60 00
        E 0 80 64 00
        E 0 80 54 00
        E 0 80 58 00
        E 0 80 48 00
        E 0 80 4c 00
        E 0 80 40 00
        E 360 90 1f 60
        E 0 90 62 60
        E 0 90 56 60
        E 0 90 4a 60
        E 120 80 1f 00
        E 0 80 62 00
        E 0 80 56 00
        E 0 80 4a 00
        E 360 90 1a 60
        E 0 90 1f 60
        E 0 90 61 60
        E 0 90 62 60
        E 0 90 55 60
        E 0 90 56 60
        E 0 90 49 60
        E 0 90 4a 60
        E 0 90 3d 60
        E 0 90 3e 60
        E 120 80 1a 00
        E 0 80 1f 00
        E 0 80 61 00
        E 0 80 62 00
        E 0 80 55 00
        E 0 80 56 00
        E 0 80 49 00
        E 0 80 4a 00
        E 0 80 3d 00
        E 0 80 3e 00
        E 360 90 1f 60
        E 0 90 62 60
        E 0 90 56 60
        E 0 90 4a 60
        E 120 80 1f 00
        E 0 80 62 00
        E 0 80 56 00
        E 0 80 4a 00
        E 120 90 18 60
        E 0 90 60 60
        E 0 90 54 60
        E 120 80 18 00
        E 0 80 60 00
        E 0 80 54 00
        E 120 90 1f 60
        E 0 90 62 60
        E 0 90 56 60
        E 0 90 4a 60
        E 0 90 3e 60
        E 120 80 1f 00
        E 0 80 62 00
        E 0 80 56 00
        E 0 80 4a 00
        E 0 80 3e 00
        E 120 90 1c 60
        E 0 90 61 60
        E 0 90 55 60
        E 120 80 1c 00
        E 0 80 61 00
        E 0 80 55 00
        E 120 90 18 60
        E 0 90 1f 60
        E 0 90 60 60
        E 0 90 62 60
        E 0 90 54 60
        E 0 90 56 60
        E 0 90 48 60
        E 0 90 4a 60
        E 120 80 18 00
        E 0 80 1f 00
        E 0 80 60 00
        E 0 80 62 00
        E 0 80 54 00
        E 0 80 56 00
        E 0 80 48 00
        E 0 80 4a 00
        E 120 90 18 60
        E 0 90 60 60
        E 0 90 54 60
        E 120 80 18 00
        E 0 80 60 00
        E 0 80 54 00
        E 120 90 1a 60
        E 0 90 1f 60
        E 0 90 61 60
        E 0 90 62 60
        E 0 90 55 60
        E 0 90 56 60
        E 0 90 49 60
        E 0 90 4a 60
        E 0 90 3d 60
        E 0 90 3e 60
        E 120 80 1a 00
        E 0 80 1f 00
        E 0 80 61 00
        E 0 80 62 00
        E 0 80 55 00
        E 0 80 56 00
        E 0 80 49 00
        E 0 80 4a 00
        E 0 80 3d 00
        E 0 80 3e 00
        E 360 90 19 60
        E 0 90 1f 60
        E 0 90 63 60
        E 0 90 57 60
        E 0 90 4b 60
        E 120 80 1f 00
        E 0 80 63 00
        E 0 80 57 00
        E 0 80 4b 00
        E 120 90 1c 60
        E 0 90 61 60
        E 0 90 55 60
        E 120 80 1c 00
        E 0 80 61 00
        E 0 80 55 00
        E 0 90 1c 60
        E 0 90 61 60
        E 120 80 19 00
        E 0 80 1c 00
        E 0 80 61 00
        E 0 90 1b 60
        E 0 90 61 60
        E 0 90 55 60
        E 0 90 49 60
        E 0 90 3d 60
        E 120 80 1b 00
        E 0 80 61 00
        E 0 80 55 00
        E 0 80 49 00
        E 0 80 3d 00
        E 120 90 19 60
        E 0 90 1a 60
        E 0 90 61 60
        E 0 90 55 60
        E 120 80 1a 00
        E 0 80 61 00
        E 0 80 55 00
        E 120 80 19 00
        E 0 90 1a 60
        E 0 90 61 60
        E 0 90 55 60
        E 0 90 49 60
        E 120 80 1a 00
        E 0 80 61 00
        E 0 80 55 00
        E 0 80 49 00
        E 120 90 19 60
        E 0 90 2f 60
        E 0 90 63 60
        E 0 90 57 60
        E 0 90 6f 60
        E 120 80 2f 00
        E 0 80 63 00
        E 0 80 57 00
        E 0 80 6f 00
        E 120 80 19 00
        E 0 90 1c 60
        E 0 90 61 60
        E 0 90 55 60
        E 0 90 49 60
        E 0 90 3d 60
        E 120 80 1c 00
        E 0 80 61 00
        E 0 80 55 00
        E 0 80 49 00
        E 0 80 3d 00
        E 120 90 19 60
        E 0 90 2f 60
        E 0 90 63 60
        E 0 90 57 60
        E 0 90 6f 60
        E 120 80 2f 00
        E 0 80 63 00
        E 0 80 57 00
        E 0 80 6f 00
        E 120 80 19 00
        E 0 90 1c 60
        E 0 90 61 60
        E 0 90 55 60
        E 0 90 49 60
        E 120 80 1c 00
        E 0 80 61 00
        E 0 80 55 00
        E 0 80 49 00
        E 120 90 19 60
        E 0 90 1c 60
        E 0 90 61 60
        E 0 90 55 60
        E 120 80 1c 00
        E 0 80 61 00
        E 0 80 55 00
        E 120 80 19 00
        E 0 90 1b 60
        E 0 90 61 60
        E 0 90 78 60
        E 0 90 79 60
        E 0 90 7a 60
        E 0 90 7b 60
        E 0 90 7c 60
        E 0 90 55 60
        E 0 90 49 60
        E 0 90 3d 60
        E 120 80 1b 00
        E 0 80 61 00
        E 0 80 55 00
        E 0 80 49 00
        E 0 80 3d 00
        E 120 90 19 60
        E 0 90 1a 60
        E 0 90 61 60
        E 0 90 55 60
        E 120 80 1a 00
        E 0 80 61 00
        E 0 80 55 00
        E 120 80 19 00
        E 0 90 2f 60
        E 0 90 63 60
        E 0 90 57 60
        E 0 90 4b 60
        E 0 90 6f 60
        E 120 80 2f 00
        E 0 80 63 00
        E 0 80 57 00
        E 0 80 4b 00
        E 0 80 6f 00
        E 120 90 19 60
        E 0 90 1c 60
        E 0 90 61 60
        E 0 90 55 60
        E 120 80 1c 00
        E 0 80 61 00
        E 0 80 55 00
        E 120 80 19 00
        E 0 90 1b 60
        E 0 90 61 60
        E 0 90 55 60
        E 0 90 49 60
        E 0 90 3d 60
        E 120 80 1b 00
        E 0 80 61 00
        E 0 80 55 00
        E 0 80 49 00
        E 0 80 3d 00
        E 120 90 19 60
        E 0 90 1a 60
        E 0 90 61 60
        E 0 90 55 60
        E 120 80 1a 00
        E 0 80 61 00
        E 0 80 55 00
        E 120 80 19 00
        E 0 90 1f 60
        E 0 90 62 60
        E 0 90 56 60
        E 0 90 4a 60
        E 120 80 1f 00
        E 0 80 62 00
        E 0 80 56 00
        E 0 80 4a 00
        E 120 90 18 60
        E 0 90 60 60
        E 0 90 54 60
        E 120 80 18 00
        E 0 80 60 00
        E 0 80 54 00
        E 120 80 78 00
        E 0 80 79 00
        E 0 80 7a 00
        E 0 80 7b 00
        E 0 80 7c 00
        E 0 90 18 60
        E 0 90 24 60
        E 0 90 60 60
        E 0 90 64 60
        E 0 90 54 60
        E 0 90 58 60
        E 0 90 48 60
        E 0 90 4c 60
        E 0 90 40 60
        E 120 80 18 00
        E 0 80 24 00
        E 0 80 60 00
        E 0 80 64 00
        E 0 80 54 00
        E 0 80 58 00
        E 0 80 48 00
        E 0 80 4c 00
        E 0 80 40 00
        E 360 90 1f 60
        E 0 90 62 60
        E 0 90 56 60
        E 0 90 4a 60
        E 120 80 1f 00
        E 0 80 62 00
        E 0 80 56 00
        E 0 80 4a 00
        E 120 90 18 60
        E 0 90 60 60
        E 0 90 54 60
        E 120 80 18 00
        E 0 80 60 00
        E 0 80 54 00
        E 120 90 1a 60
        E 0 90 1f 60
        E 0 90 61 60
        E 0 90 62 60
        E 0 90 55 60
        E 0 90 56 60
        E 0 90 49 60
        E 0 90 4a 60
        E 0 90 3d 60
        E 0 90 3e 60
        E 120 80 1a 00
        E 0 80 1f 00
        E 0 80 61 00
        E 0 80 62 00
        E 0 80 55 00
        E 0 80 56 00
        E 0 80 49 00
        E 0 80 4a 00
        E 0 80 3d 00
        E 0 80 3e 00
        E 360 90 1f 60
        E 0 90 62 60
        E 0 90 56 60
        E 0 90 4a 60
        E 120 80 1f 00
        E 0 80 62 00
        E 0 80 56 00
        E 0 80 4a 00
        E 120 90 18 60
        E 0 90 60 60
        E 0 90 54 60
        E 120 80 18 00
        E 0 80 60 00
        E 0 80 54 00
        E 120 90 18 60
        E 0 90 1f 60
        E 0 90 60 60
        E 0 90 62 60
        E 0 90 54 60
        E 0 90 56 60
        E 0 90 48 60
        E 0 90 4a 60
        E 0 90 3e 60
        E 120 80 18 00
        E 0 80 1f 00
        E 0 80 60 00
        E 0 80 62 00
        E 0 80 54 00
        E 0 80 56 00
        E 0 80 48 00
        E 0 80 4a 00
        E 0 80 3e 00
        E 120 90 1c 60
        E 0 90 61 60
        E 0 90 55 60
        E 120 80 1c 00
        E 0 80 61 00
        E 0 80 55 00
        E 120 90 18 60
        E 0 90 1f 60
        E 0 90 60 60
        E 0 90 62 60
        E 0 90 54 60
        E 0 90 56 60
        E 0 90 48 60
        E 0 90 4a 60
        E 120 80 18 00
        E 0 80 1f 00
        E 0 80 60 00
        E 0 80 62 00
        E 0 80 54 00
        E 0 80 56 00
        E 0 80 48 00
        E 0 80 4a 00
        E 120 90 18 60
        E 0 90 60 60
        E 0 90 54 60
        E 120 80 18 00
        E 0 80 60 00
        E 0 80 54 00
        E 120 90 1a 60
        E 0 90 1f 60
        E 0 90 61 60
        E 0 90 62 60
        E 0 90 55 60
        E 0 90 56 60
        E 0 90 49 60
        E 0 90 4a 60
        E 0 90 3d 60
        E 0 90 3e 60
        E 120 80 1a 00
        E 0 80 1f 00
        E 0 80 61 00
        E 0 80 62 00
        E 0 80 55 00
        E 0 80 56 00
        E 0 80 49 00
        E 0 80 4a 00
        E 0 80 3d 00
        E 0 80 3e 00
        E 360 90 1f 60
        E 0 90 62 60
        E 0 90 56 60
        E 0 90 4a 60
        E 120 80 1f 00
        E 0 80 62 00
        E 0 80 56 00
        E 0 80 4a 00
        E 120 90 19 60
        E 0 90 1c 60
        E 0 90 61 60
        E 0 90 55 60
        E 120 80 1c 00
        E 0 80 61 00
        E 0 80 55 00
        E 0 90 1c 60
        E 0 90 61 60
        E 120 80 19 00
        E 0 80 1c 00
        E 0 80 61 00
        E 0 90 1b 60
        E 0 90 61 60
        E 0 90 55 60
        E 0 90 49 60
        E 0 90 3d 60
        E 120 80 1b 00
        E 0 80 61 00
        E 0 80 55 00
        E 0 80 49 00
        E 0 80 3d 00
        E 120 90 19 60
        E 0 90 1a 60
        E 0 90 61 60
        E 0 90 55 60
        E 120 80 1a 00
        E 0 80 61 00
        E 0 80 55 00
        E 120 80 19 00
        E 0 90 2f 60
        E 0 90 63 60
        E 0 90 57 60
        E 0 90 4b 60
        E 0 90 6f 60
        E 120 80 2f 00
        E 0 80 63 00
        E 0 80 57 00
        E 0 80 4b 00
        E 0 80 6f 00
        E 120 90 19 60
        E 0 90 1c 60
        E 0 90 61 60
        E 0 90 55 60
        E 120 80 1c 00
        E 0 80 61 00
        E 0 80 55 00
        E 120 80 19 00
        E 0 90 1c 60
        E 0 90 61 60
        E 0 90 55 60
        E 0 90 49 60
        E 0 90 3d 60
        E 120 80 1c 00
        E 0 80 61 00
        E 0 80 55 00
        E 0 80 49 00
        E 0 80 3d 00
        E 120 90 19 60
        E 0 90 2f 60
        E 0 90 63 60
        E 0 90 57 60
        E 0 90 6f 60
        E 120 80 2f 00
        E 0 80 63 00
        E 0 80 57 00
        E 0 80 6f 00
        E 120 80 19 00
        E 0 90 1c 60
        E 0 90 61 60
        E 0 90 55 60
        E 0 90 49 60
        E 120 80 1c 00
        E 0 80 61 00
        E 0 80 55 00
        E 0 80 49 00
        E 120 90 19 60
        E 0 90 2f 60
        E 0 90 63 60
        E 0 90 57 60
        E 0 90 6f 60
        E 120 80 2f 00
        E 0 80 63 00
        E 0 80 57 00
        E 0 80 6f 00
        E 120 80 19 00
        E 0 90 1a 60
        E 0 90 61 60
        E 0 90 78 60
        E 0 90 79 60
        E 0 90 7a 60
        E 0 90 7b 60
        E 0 90 7c 60
        E 0 90 55 60
        E 0 90 49 60
        E 0 90 3d 60
        E 120 80 1a 00
        E 0 80 61 00
        E 0 80 55 00
        E 0 80 49 00
        E 0 80 3d 00
        E 120 90 19 60
        E 0 90 1c 60
        E 0 90 61 60
        E 0 90 55 60
        E 120 80 1c 00
        E 0 80 61 00
        E 0 80 55 00
        E 120 80 19 00
        E 0 90 2f 60
        E 0 90 63 60
        E 0 90 57 60
        E 0 90 4b 60
        E 0 90 6f 60
        E 120 80 2f 00
        E 0 80 63 00
        E 0 80 57 00
        E 0 80 4b 00
        E 0 80 6f 00
        E 120 90 19 60
        E 0 90 1a 60
        E 0 90 61 60
        E 0 90 55 60
        E 120 80 1a 00
        E 0 80 61 00
        E 0 80 55 00
        E 120 80 19 00
        E 0 90 1d 60
        E 0 90 62 60
        E 0 90 56 60
        E 0 90 4a 60
        E 0 90 6e 60
        E 0 90 3e 60
        E 120 80 1d 00
        E 0 80 62 00
        E 0 80 56 00
        E 0 80 4a 00
        E 0 80 6e 00
        E 0 80 3e 00
        E 120 90 19 60
        E 0 90 1a 60
        E 0 90 61 60
        E 0 90 55 60
        E 120 80 1a 00
        E 0 80 61 00
        E 0 80 55 00
        E 120 80 19 00
        E 0 90 1b 60
        E 0 90 61 60
        E 0 90 55 60
        E 0 90 49 60
        E 120 80 1b 00
        E 0 80 61 00
        E 0 80 55 00
        E 0 80 49 00
        E 120 90 18 60
        E 0 90 60 60
        E 0 90 54 60
        E 120 80 18 00
        E 0 80 60 00
        E 0 80 54 00
        E 120 80 78 00
        E 0 80 79 00
        E 0 80 7a 00
        E 0 80 7b 00
        E 0 80 7c 00
        E 0 90 18 60
        E 0 90 24 60
        E 0 90 60 60
        E 0 90 64 60
        E 0 90 54 60
        E 0 90 58 60
        E 0 90 48 60
        E 0 90 4c 60
        E 0 90 40 60
        E 120 80 18 00
        E 0 80 24 00
        E 0 80 60 00
        E 0 80 64 00
        E 0 80 54 00
        E 0 80 58 00
        E 0 80 48 00
        E 0 80 4c 00
        E 0 80 40 00
        E 360 90 1f 60
        E 0 90 62 60
        E 0 90 56 60
        E 0 90 4a 60
        E 120 80 1f 00
        E 0 80 62 00
        E 0 80 56 00
        E 0 80 4a 00
        E 360 90 1a 60
        E 0 90 1f 60
        E 0 90 61 60
        E 0 90 62 60
        E 0 90 55 60
        E 0 90 56 60
        E 0 90 49 60
        E 0 90 4a 60
        E 0 90 3d 60
        E 0 90 3e 60
        E 120 80 1a 00
        E 0 80 1f 00
        E 0 80 61 00
        E 0 80 62 00
        E 0 80 55 00
        E 0 80 56 00
        E 0 80 49 00
        E 0 80 4a 00
        E 0 80 3d 00
        E 0 80 3e 00
        E 360 90 1f 60
        E 0 90 62 60
        E 0 90 56 60
        E 0 90 4a 60
        E 120 80 1f 00
        E 0 80 62 00
        E 0 80 56 00
        E 0 80 4a 00
        E 120 90 18 60
        E 0 90 60 60
        E 0 90 54 60
        E 120 80 18 00
        E 0 80 60 00
        E 0 80 54 00
        E 120 90 1f 60
        E 0 90 62 60
        E 0 90 56 60
        E 0 90 4a 60
        E 0 90 3e 60
        E 120 80 1f 00
        E 0 80 62 00
        E 0 80 56 00
        E 0 80 4a 00
        E 0 80 3e 00
        E 120 90 18 60
        E 0 90 60 60
        E 0 90 54 60
        E 120 80 18 00
        E 0 80 60 00
        E 0 80 54 00
        E 120 90 18 60
        E 0 90 1f 60
        E 0 90 60 60
        E 0 90 62 60
        E 0 90 54 60
        E 0 90 56 60
        E 0 90 48 60
        E 0 90 4a 60
        E 120 80 18 00
        E 0 80 1f 00
        E 0 80 60 00
        E 0 80 62 00
        E 0 80 54 00
        E 0 80 56 00
        E 0 80 48 00
        E 0 80 4a 00
        E 360 90 1a 60
        E 0 90 1f 60
        E 0 90 61 60
        E 0 90 62 60
        E 0 90 55 60
        E 0 90 56 60
        E 0 90 49 60
        E 0 90 4a 60
        E 0 90 3d 60
        E 0 90 3e 60
        E 120 80 1a 00
        E 0 80 1f 00
        E 0 80 61 00
        E 0 80 62 00
        E 0 80 55 00
        E 0 80 56 00
        E 0 80 49 00
        E 0 80 4a 00
        E 0 80 3d 00
        E 0 80 3e 00
        E 360 90 1f 60
        E 0 90 62 60
        E 0 90 56 60
        E 0 90 4a 60
        E 120 80 1f 00
        E 0 80 62 00
        E 0 80 56 00
        E 0 80 4a 00
        E 120 90 1c 60
        E 0 90 61 60
        E 0 90 55 60
        E 120 80 1c 00
        E 0 80 61 00
        E 0 80 55 00
        E 120 90 2f 60
        E 0 90 63 60
        E 0 90 57 60
        E 0 90 4b 60
        E 0 90 6f 60
        E 0 90 3f 60
        E 120 80 2f 00
        E 0 80 63 00
        E 0 80 57 00
        E 0 80 4b 00
        E 0 80 6f 00
        E 0 80 3f 00
        E 120 90 19 60
        E 0 90 1c 60
        E 0 90 61 60
        E 0 90 55 60
        E 120 80 1c 00
        E 0 80 61 00
        E 0 80 55 00
        E 0 90 1c 60
        E 0 90 61 60
        E 120 80 19 00
        E 0 80 1c 00
        E 0 80 61 00
        E 0 90 1b 60
        E 0 90 61 60
        E 0 90 55 60
        E 0 90 49 60
        E 120 80 1b 00
        E 0 80 61 00
        E 0 80 55 00
        E 0 80 49 00
        E 120 90 19 60
        E 0 90 1a 60
        E 0 90 61 60
        E 0 90 55 60
        E 120 80 1a 00
        E 0 80 61 00
        E 0 80 55 00
        E 120 80 19 00
        E 0 90 1d 60
        E 0 90 61 60
        E 0 90 55 60
        E 0 90 49 60
        E 0 90 3d 60
        E 120 80 1d 00
        E 0 80 61 00
        E 0 80 55 00
        E 0 80 49 00
        E 0 80 3d 00
        E 120 90 19 60
        E 0 90 1a 60
        E 0 90 61 60
        E 0 90 55 60
        E 120 80 1a 00
        E 0 80 61 00
        E 0 80 55 00
        E 120 80 19 00
        E 0 90 1c 60
        E 0 90 61 60
        E 0 90 55 60
        E 0 90 49 60
        E 120 80 1c 00
        E 0 80 61 00
        E 0 80 55 00
        E 0 80 49 00
        E 120 90 19 60
        E 0 90 2f 60
        E 0 90 63 60
        E 0 90 57 60
        E 0 90 6f 60
        E 120 80 2f 00
        E 0 80 63 00
        E 0 80 57 00
        E 0 80 6f 00
        E 120 80 19 00
        E 0 90 1c 60
        E 0 90 61 60
        E 0 90 78 60
        E 0 90 79 60
        E 0 90 7a 60
        E 0 90 7b 60
        E 0 90 7c 60
        E 0 90 55 60
        E 0 90 49 60
        E 0 90 3d 60
        E 120 80 1c 00
        E 0 80 61 00
        E 0 80 55 00
        E 0 80 49 00
        E 0 80 3d 00
        E 120 90 19 60
        E 0 90 1c 60
        E 0 90 61 60
        E 0 90 55 60
        E 120 80 1c 00
        E 0 80 61 00
        E 0 80 55 00
        E 120 80 19 00
        E 0 90 1b 60
        E 0 90 61 60
        E 0 90 55 60
        E 0 90 49 60
        E 120 80 1b 00
        E 0 80 61 00
        E 0 80 55 00
        E 0 80 49 00
        E 120 90 19 60
        E 0 90 1c 60
        E 0 90 61 60
        E 0 90 55 60
        E 120 80 1c 00
        E 0 80 61 00
        E 0 80 55 00
        E 120 80 19 00
        E 0 90 1b 60
        E 0 90 61 60
        E 0 90 55 60
        E 0 90 49 60
        E 0 90 3d 60
        E 120 80 1b 00
        E 0 80 61 00
        E 0 80 55 00
        E 0 80 49 00
        E 0 80 3d 00
        E 120 90 18 60
        E 0 90 19 60
        E 0 90 60 60
        E 0 90 54 60
        E 120 80 18 00
        E 0 80 60 00
        E 0 80 54 00
        E 120 80 19 00
        E 0 90 1f 60
        E 0 90 62 60
        E 0 90 56 60
        E 0 90 4a 60
        E 120 80 1f 00
        E 0 80 62 00
        E 0 80 56 00
        E 0 80 4a 00
        E 120 90 18 60
        E 0 90 19 60
        E 0 90 60 60
        E 0 90 54 60
        E 120 80 18 00
        E 0 80 60 00
        E 0 80 54 00
        E 120 80 78 00
        E 0 80 79 00
        E 0 80 7a 00
        E 0 80 7b 00
        E 0 80 7c 00
        E 0 80 19 00
        E 0 90 18 60
        E 0 90 24 60
        E 0 90 60 60
        E 0 90 64 60
        E 0 90 74 60
        E 0 90 54 60
        E 0 90 58 60
        E 0 90 48 60
        E 0 90 4c 60
        E 0 90 40 60
        E 120 80 18 00
        E 0 80 24 00
        E 0 80 60 00
        E 0 80 64 00
        E 0 80 54 00
        E 0 80 58 00
        E 0 80 48 00
        E 0 80 4c 00
        E 0 80 40 00
        E 360 90 1f 60
        E 0 90 62 60
        E 0 90 56 60
        E 0 90 4a 60
        E 120 80 1f 00
        E 0 80 62 00
        E 0 80 56 00
        E 0 80 4a 00
        E 360 90 1a 60
        E 0 90 1f 60
        E 0 90 61 60
        E 0 90 62 60
        E 0 90 55 60
        E 0 90 56 60
        E 0 90 49 60
        E 0 90 4a 60
        E 0 90 3d 60
        E 0 90 3e 60
        E 120 80 1a 00
        E 0 80 1f 00
        E 0 80 61 00
        E 0 80 62 00
        E 0 80 55 00
        E 0 80 56 00
        E 0 80 49 00
        E 0 80 4a 00
        E 0 80 3d 00
        E 0 80 3e 00
        E 360 90 1f 60
        E 0 90 62 60
        E 0 90 56 60
        E 0 90 4a 60
        E 120 80 1f 00
        E 0 80 62 00
        E 0 80 56 00
        E 0 80 4a 00
        E 120 90 18 60
        E 0 90 60 60
        E 0 90 54 60
        E 120 80 18 00
        E 0 80 60 00
        E 0 80 54 00
        E 120 90 18 60
        E 0 90 1f 60
        E 0 90 60 60
        E 0 90 62 60
        E 0 90 54 60
        E 0 90 56 60
        E 0 90 48 60
        E 0 90 4a 60
        E 0 90 3e 60
        E 120 80 18 00
        E 0 80 1f 00
        E 0 80 60 00
        E 0 80 62 00
        E 0 80 54 00
        E 0 80 56 00
        E 0 80 48 00
        E 0 80 4a 00
        E 0 80 3e 00
        E 360 90 18 60
        E 0 90 1f 60
        E 0 90 60 60
        E 0 90 62 60
        E 0 90 54 60
        E 0 90 56 60
        E 0 90 48 60
        E 0 90 4a 60
        E 120 80 18 00
        E 0 80 1f 00
        E 0 80 60 00
        E 0 80 62 00
        E 0 80 54 00
        E 0 80 56 00
        E 0 80 48 00
        E 0 80 4a 00
        E 360 90 1a 60
        E 0 90 1f 60
        E 0 90 61 60
        E 0 90 62 60
        E 0 90 55 60
        E 0 90 56 60
        E 0 90 49 60
        E 0 90 4a 60
        E 0 90 3d 60
        E 0 90 3e 60
        E 120 80 1a 00
        E 0 80 1f 00
        E 0 80 61 00
        E 0 80 62 00
        E 0 80 55 00
        E 0 80 56 00
        E 0 80 49 00
        E 0 80 4a 00
        E 0 80 3d 00
        E 0 80 3e 00
        E 360 90 19 60
        E 0 90 1f 60
        E 0 90 63 60
        E 0 90 57 60
        E 0 90 4b 60
        E 120 80 74 00
        E 0 80 1f 00
        E 0 80 63 00
        E 0 80 57 00
        E 0 80 4b 00
        E 120 90 1c 60
        E 0 90 61 60
        E 0 90 55 60
        E 120 80 1c 00
        E 0 80 61 00
        E 0 80 55 00
        E 120 80 19 00
        E 0 90 2f 60
        E 0 90 63 60
        E 0 90 57 60
        E 0 90 4b 60
        E 0 90 6f 60
        E 0 90 3f 60
        E 120 80 2f 00
        E 0 80 63 00
        E 0 80 57 00
        E 0 80 4b 00
        E 0 80 6f 00
        E 0 80 3f 00
        E 120 90 19 60
        E 0 90 1c 60
        E 0 90 61 60
        E 0 90 55 60
        E 120 80 1c 00
        E 0 80 61 00
        E 0 80 55 00
        E 120 80 19 00
        E 0 90 1d 60
        E 0 90 61 60
        E 0 90 55 60
        E 0 90 49 60
        E 120 80 1d 00
        E 0 80 61 00
        E 0 80 55 00
        E 0 80 49 00
        E 120 90 19 60
        E 0 90 1a 60
        E 0 90 61 60
        E 0 90 55 60
        E 120 80 1a 00
        E 0 80 61 00
        E 0 80 55 00
        E 120 80 19 00
        E 0 90 1c 60
        E 0 90 61 60
        E 0 90 55 60
        E 0 90 49 60
        E 0 90 3d 60
        E 120 80 1c 00
        E 0 80 61 00
        E 0 80 55 00
        E 0 80 49 00
        E 0 80 3d 00
        E 120 90 19 60
        E 0 90 2f 60
        E 0 90 63 60
        E 0 90 57 60
        E 0 90 6f 60
        E 120 80 2f 00
        E 0 80 63 00
        E 0 80 57 00
        E 0 80 6f 00
        E 120 80 19 00
        E 0 90 1c 60
        E 0 90 61 60
        E 0 90 55 60
        E 0 90 49 60
        E 120 80 1c 00
        E 0 80 61 00
        E 0 80 55 00
        E 0 80 49 00
        E 120 90 19 60
        E 0 90 2f 60
        E 0 90 63 60
        E 0 90 57 60
        E 0 90 6f 60
        E 120 80 2f 00
        E 0 80 63 00
        E 0 80 57 00
        E 0 80 6f 00
        E 120 80 19 00
        E 0 90 1a 60
        E 0 90 61 60
        E 0 90 78 60
        E 0 90 79 60
        E 0 90 7a 60
        E 0 90 7b 60
        E 0 90 7c 60
        E 0 90 55 60
        E 0 90 49 60
        E 0 90 3d 60
        E 120 80 1a 00
        E 0 80 61 00
        E 0 80 55 00
        E 0 80 49 00
        E 0 80 3d 00
        E 120 90 19 60
        E 0 90 1a 60
        E 0 90 61 60
        E 0 90 55 60
        E 120 80 1a 00
        E 0 80 61 00
        E 0 80 55 00
        E 120 80 19 00
        E 0 90 1b 60
        E 0 90 61 60
        E 0 90 55 60
        E 0 90 49 60
        E 120 80 1b 00
        E 0 80 61 00
        E 0 80 55 00
        E 0 80 49 00
        E 120 90 19 60
        E 0 90 1a 60
        E 0 90 61 60
        E 0 90 55 60
        E 120 80 1a 00
        E 0 80 61 00
        E 0 80 55 00
        E 120 80 19 00
        E 0 90 1b 60
        E 0 90 61 60
        E 0 90 55 60
        E 0 90 49 60
        E 0 90 3d 60
        E 120 80 1b 00
        E 0 80 61 00
        E 0 80 55 00
        E 0 80 49 00
        E 0 80 3d 00
        E 120 90 18 60
        E 0 90 19 60
        E 0 90 60 60
        E 0 90 54 60
        E 120 80 18 00
        E 0 80 60 00
        E 0 80 54 00
        E 120 80 19 00
        E 0 90 1f 60
        E 0 90 62 60
        E 0 90 56 60
        E 0 90 4a 60
        E 120 80 1f 00
        E 0 80 62 00
        E 0 80 56 00
        E 0 80 4a 00
        E 120 90 18 60
        E 0 90 60 60
        E 0 90 54 60
        E 120 80 18 00
        E 0 80 60 00
        E 0 80 54 00
        E 120 80 78 00
        E 0 80 79 00
        E 0 80 7a 00
        E 0 80 7b 00
        E 0 80 7c 00
        E 0 90 18 60
        E 0 90 24 60
        E 0 90 60 60
        E 0 90 64 60
        E 0 90 54 60
        E 0 90 58 60
        E 0 90 48 60
        E 0 90 4c 60
        E 0 90 40 60
        E 120 80 18 00
        E 0 80 24 00
        E 0 80 60 00
        E 0 80 64 00
        E 0 80 54 00
        E 0 80 58 00
        E 0 80 48 00
        E 0 80 4c 00
        E 0 80 40 00
        E 360 90 1f 60
        E 0 90 62 60
        E 0 90 56 60
        E 0 90 4a 60
        E 120 80 1f 00
        E 0 80 62 00
        E 0 80 56 00
        E 0 80 4a 00
        E 360 90 1a 60
        E 0 90 1f 60
        E 0 90 61 60
        E 0 90 62 60
        E 0 90 55 60
        E 0 90 56 60
        E 0 90 49 60
        E 0 90 4a 60
        E 0 90 3d 60
        E 0 90 3e 60
        E 120 80 1a 00
        E 0 80 1f 00
        E 0 80 61 00
        E 0 80 62 00
        E 0 80 55 00
        E 0 80 56 00
        E 0 80 49 00
        E 0 80 4a 00
        E 0 80 3d 00
        E 0 80 3e 00
        E 360 90 1f 60
        E 0 90 62 60
        E 0 90 56 60
        E 0 90 4a 60
        E 120 80 1f 00
        E 0 80 62 00
        E 0 80 56 00
        E 0 80 4a 00
        E 120 90 18 60
        E 0 90 60 60
        E 0 90 54 60
        E 120 80 18 00
        E 0 80 60 00
        E 0 80 54 00
        E 120 90 1f 60
        E 0 90 62 60
        E 0 90 56 60
        E 0 90 4a 60
        E 0 90 3e 60
        E 120 80 1f 00
        E 0 80 62 00
        E 0 80 56 00
        E 0 80 4a 00
        E 0 80 3e 00
        E 120 90 1c 60
        E 0 90 61 60
        E 0 90 55 60
        E 120 80 1c 00
        E 0 80 61 00
        E 0 80 55 00
        E 120 90 18 60
        E 0 90 1f 60
        E 0 90 60 60
        E 0 90 62 60
        E 0 90 54 60
        E 0 90 56 60
        E 0 90 48 60
        E 0 90 4a 60
        E 120 80 18 00
        E 0 80 1f 00
        E 0 80 60 00
        E 0 80 62 00
        E 0 80 54 00
        E 0 80 56 00
        E 0 80 48 00
        E 0 80 4a 00
        E 120 90 18 60
        E 0 90 60 60
        E 0 90 54 60
        E 120 80 18 00
        E 0 80 60 00
        E 0 80 54 00
        E 120 90 1a 60
        E 0 90 1f 60
        E 0 90 61 60
        E 0 90 62 60
        E 0 90 55 60
        E 0 90 56 60
        E 0 90 49 60
        E 0 90 4a 60
        E 0 90 3d 60
        E 0 90 3e 60
        E 120 80 1a 00
        E 0 80 1f 00
        E 0 80 61 00
        E 0 80 62 00
        E 0 80 55 00
        E 0 80 56 00
        E 0 80 49 00
        E 0 80 4a 00
        E 0 80 3d 00
        E 0 80 3e 00
        E 360 90 19 60
        E 0 90 1f 60
        E 0 90 63 60
        E 0 90 57 60
        E 0 90 4b 60
        E 120 80 1f 00
        E 0 80 63 00
        E 0 80 57 00
        E 0 80 4b 00
        E 120 90 1c 60
        E 0 90 61 60
        E 0 90 55 60
        E 120 80 1c 00
        E 0 80 61 00
        E 0 80 55 00
        E 0 90 1c 60
        E 0 90 61 60
        E 120 80 19 00
        E 0 80 1c 00
        E 0 80 61 00
        E 0 90 1b 60
        E 0 90 61 60
        E 0 90 55 60
        E 0 90 49 60
        E 0 90 3d 60
        E 120 80 1b 00
        E 0 80 61 00
        E 0 80 55 00
        E 0 80 49 00
        E 0 80 3d 00
        E 120 90 19 60
        E 0 90 1a 60
        E 0 90 61 60
        E 0 90 55 60
        E 120 80 1a 00
        E 0 80 61 00
        E 0 80 55 00
        E 120 80 19 00
        E 0 90 1a 60
        E 0 90 61 60
        E 0 90 55 60
        E 0 90 49 60
        E 120 80 1a 00
        E 0 80 61 00
        E 0 80 55 00
        E 0 80 49 00
        E 120 90 19 60
        E 0 90 2f 60
        E 0 90 63 60
        E 0 90 57 60
        E 0 90 6f 60
        E 120 80 2f 00
        E 0 80 63 00
        E 0 80 57 00
        E 0 80 6f 00
        E 120 80 19 00
        E 0 90 1c 60
        E 0 90 61 60
        E 0 90 55 60
        E 0 90 49 60
        E 0 90 3d 60
        E 120 80 1c 00
        E 0 80 61 00
        E 0 80 55 00
        E 0 80 49 00
        E 0 80 3d 00
        E 120 90 19 60
        E 0 90 2f 60
        E 0 90 63 60
        E 0 90 57 60
        E 0 90 6f 60
        E 120 80 2f 00
        E 0 80 63 00
        E 0 80 57 00
        E 0 80 6f 00
        E 120 80 19 00
        E 0 90 1c 60
        E 0 90 61 60
        E 0 90 55 60
        E 0 90 49 60
        E 120 80 1c 00
        E 0 80 61 00
        E 0 80 55 00
        E 0 80 49 00
        E 120 90 19 60
        E 0 90 1c 60
        E 0 90 61 60
        E 0 90 55 60
        E 120 80 1c 00
        E 0 80 61 00
        E 0 80 55 00
        E 120 80 19 00
        E 0 90 1b 60
        E 0 90 61 60
        E 0 90 78 60
        E 0 90 79 60
        E 0 90 7a 60
        E 0 90 7b 60
        E 0 90 7c 60
        E 0 90 55 60
        E 0 90 49 60
        E 0 90 3d 60
        E 120 80 1b 00
        E 0 80 61 00
        E 0 80 55 00
        E 0 80 49 00
        E 0 80 3d 00
        E 120 90 19 60
        E 0 90 1a 60
        E 0 90 61 60
        E 0 90 55 60
        E 120 80 1a 00
        E 0 80 61 00
        E 0 80 55 00
        E 120 80 19 00
        E 0 90 2f 60
        E 0 90 63 60
        E 0 90 57 60
        E 0 90 4b 60
        E 0 90 6f 60
        E 120 80 2f 00
        E 0 80 63 00
        E 0 80 57 00
        E 0 80 4b 00
        E 0 80 6f 00
        E 120 90 19 60
        E 0 90 1c 60
        E 0 90 61 60
        E 0 90 55 60
        E 120 80 1c 00
        E 0 80 61 00
        E 0 80 55 00
        E 120 80 19 00
        E 0 90 1b 60
        E 0 90 61 60
        E 0 90 55 60
        E 0 90 49 60
        E 0 90 3d 60
        E 120 80 1b 00
        E 0 80 61 00
        E 0 80 55 00
        E 0 80 49 00
        E 0 80 3d 00
        E 120 90 19 60
        E 0 90 1a 60
        E 0 90 61 60
        E 0 90 55 60
        E 120 80 1a 00
        E 0 80 61 00
        E 0 80 55 00
        E 120 80 19 00
        E 0 90 1f 60
        E 0 90 62 60
        E 0 90 56 60
        E 0 90 4a 60
        E 120 80 1f 00
        E 0 80 62 00
        E 0 80 56 00
        E 0 80 4a 00
        E 120 90 18 60
        E 0 90 60 60
        E 0 90 54 60
        E 120 80 18 00
        E 0 80 60 00
        E 0 80 54 00
        E 120 80 78 00
        E 0 80 79 00
        E 0 80 7a 00
        E 0 80 7b 00
        E 0 80 7c 00
        E 0 90 18 60
        E 0 90 24 60
        E 0 90 60 60
        E 0 90 64 60
        E 0 90 54 60
        E 0 90 58 60
        E 0 90 48 60
        E 0 90 4c 60
        E 0 90 40 60
        E 120 80 18 00
        E 0 80 24 00
        E 0 80 60 00
        E 0 80 64 00
        E 0 80 54 00
        E 0 80 58 00
        E 0 80 48 00
        E 0 80 4c 00
        E 0 80 40 00
        E 360 90 1f 60
        E 0 90 62 60
        E 0 90 56 60
        E 0 90 4a 60
        E 120 80 1f 00
        E 0 80 62 00
        E 0 80 56 00
        E 0 80 4a 00
        E 120 90 18 60
        E 0 90 60 60
        E 0 90 54 60
        E 120 80 18 00
        E 0 80 60 00
        E 0 80 54 00
        E 120 90 1a 60
        E 0 90 1f 60
        E 0 90 61 60
        E 0 90 62 60
        E 0 90 55 60
        E 0 90 56 60
        E 0 90 49 60
        E 0 90 4a 60
        E 0 90 3d 60
        E 0 90 3e 60
        E 120 80 1a 00
        E 0 80 1f 00
        E 0 80 61 00
        E 0 80 62 00
        E 0 80 55 00
        E 0 80 56 00
        E 0 80 49 00
        E 0 80 4a 00
        E 0 80 3d 00
        E 0 80 3e 00
        E 360 90 1f 60
        E 0 90 62 60
        E 0 90 56 60
        E 0 90 4a 60
        E 120 80 1f 00
        E 0 80 62 00
        E 0 80 56 00
        E 0 80 4a 00
        E 120 90 18 60
        E 0 90 60 60
        E 0 90 54 60
        E 120 80 18 00
        E 0 80 60 00
        E 0 80 54 00
        E 120 90 18 60
        E 0 90 1f 60
        E 0 90 60 60
        E 0 90 62 60
        E 0 90 54 60
        E 0 90 56 60
        E 0 90 48 60
        E 0 90 4a 60
        E 0 90 3e 60
        E 120 80 18 00
        E 0 80 1f 00
        E 0 80 60 00
        E 0 80 62 00
        E 0 80 54 00
        E 0 80 56 00
        E 0 80 48 00
        E 0 80 4a 00
        E 0 80 3e 00
        E 120 90 1c 60
        E 0 90 61 60
        E 0 90 55 60
        E 120 80 1c 00
        E 0 80 61 00
        E 0 80 55 00
        E 120 90 18 60
        E 0 90 1f 60
        E 0 90 60 60
        E 0 90 62 60
        E 0 90 54 60
        E 0 90 56 60
        E 0 90 48 60
        E 0 90 4a 60
        E 120 80 18 00
        E 0 80 1f 00
        E 0 80 60 00
        E 0 80 62 00
        E 0 80 54 00
        E 0 80 56 00
        E 0 80 48 00
        E 0 80 4a 00
        E 120 90 18 60
        E 0 90 60 60
        E 0 90 54 60
        E 120 80 18 00
        E 0 80 60 00
        E 0 80 54 00
        E 120 90 1a 60
        E 0 90 1f 60
        E 0 90 61 60
        E 0 90 62 60
        E 0 90 55 60
        E 0 90 56 60
        E 0 90 49 60
        E 0 90 4a 60
        E 0 90 3d 60
        E 0 90 3e 60
        E 120 80 1a 00
        E 0 80 1f 00
        E 0 80 61 00
        E 0 80 62 00
        E 0 80 55 00
        E 0 80 56 00
        E 0 80 49 00
        E 0 80 4a 00
        E 0 80 3d 00
        E 0 80 3e 00
        E 360 90 1f 60
        E 0 90 62 60
        E 0 90 56 60
        E 0 90 4a 60
        E 120 80 1f 00
        E 0 80 62 00
        E 0 80 56 00
        E 0 80 4a 00
        E 120 90 19 60
        E 0 90 1c 60
        E 0 90 61 60
        E 0 90 55 60
        E 120 80 1c 00
        E 0 80 61 00
        E 0 80 55 00
        E 0 90 1c 60
        E 0 90 61 60
        E 120 80 19 00
        E 0 80 1c 00
        E 0 80 61 00
        E 0 90 1b 60
        E 0 90 61 60
        E 0 90 55 60
        E 0 90 49 60
        E 0 90 3d 60
        E 120 80 1b 00
        E 0 80 61 00
        E 0 80 55 00
        E 0 80 49 00
        E 0 80 3d 00
        E 120 90 19 60
        E 0 90 1a 60
        E 0 90 61 60
        E 0 90 55 60
        E 120 80 1a 00
        E 0 80 61 00
        E 0 80 55 00
        E 120 80 19 00
        E 0 90 2f 60
        E 0 90 63 60
        E 0 90 57 60
        E 0 90 4b 60
        E 0 90 6f 60
        E 120 80 2f 00
        E 0 80 63 00
        E 0 80 57 00
        E 0 80 4b 00
        E 0 80 6f 00
        E 120 90 19 60
        E 0 90 1c 60
        E 0 90 61 60
        E 0 90 55 60
        E 120 80 1c 00
        E 0 80 61 00
        E 0 80 55 00
        E 120 80 19 00
        E 0 90 1c 60
        E 0 90 61 60
        E 0 90 55 60
        E 0 90 49 60
        E 0 90 3d 60
        E 120 80 1c 00
        E 0 80 61 00
        E 0 80 55 00
        E 0 80 49 00
        E 0 80 3d 00
        E 120 90 19 60
        E 0 90 2f 60
        E 0 90 63 60
        E 0 90 57 60
        E 0 90 6f 60
        E 120 80 2f 00
        E 0 80 63 00
        E 0 80 57 00
        E 0 80 6f 00
        E 120 80 19 00
        E 0 90 1c 60
        E 0 90 61 60
        E 0 90 55 60
        E 0 90 49 60
        E 120 80 1c 00
        E 0 80 61 00
        E 0 80 55 00
        E 0 80 49 00
        E 120 90 19 60
        E 0 90 2f 60
        E 0 90 63 60
        E 0 90 57 60
        E 0 90 6f 60
        E 120 80 2f 00
        E 0 80 63 00
        E 0 80 57 00
        E 0 80 6f 00
        E 120 80 19 00
        E 0 90 1a 60
        E 0 90 61 60
        E 0 90 78 60
        E 0 90 79 60
        E 0 90 7a 60
        E 0 90 7b 60
        E 0 90 7c 60
        E 0 90 55 60
        E 0 90 49 60
        E 0 90 3d 60
        E 120 80 1a 00
        E 0 80 61 00
        E 0 80 55 00
        E 0 80 49 00
        E 0 80 3d 00
        E 120 90 19 60
        E 0 90 1c 60
        E 0 90 61 60
        E 0 90 55 60
        E 120 80 1c 00
        E 0 80 61 00
        E 0 80 55 00
        E 120 80 19 00
        E 0 90 2f 60
        E 0 90 63 60
        E 0 90 57 60
        E 0 90 4b 60
        E 0 90 6f 60
        E 120 80 2f 00
        E 0 80 63 00
        E 0 80 57 00
        E 0 80 4b 00
        E 0 80 6f 00
        E 120 90 19 60
        E 0 90 1a 60
        E 0 90 61 60
        E 0 90 55 60
        E 120 80 1a 00
        E 0 80 61 00
        E 0 80 55 00
        E 120 80 19 00
        E 0 90 1d 60
        E 0 90 62 60
        E 0 90 56 60
        E 0 90 4a 60
        E 0 90 6e 60
        E 0 90 3e 60
        E 120 80 1d 00
        E 0 80 62 00
        E 0 80 56 00
        E 0 80 4a 00
        E 0 80 6e 00
        E 0 80 3e 00
        E 120 90 19 60
        E 0 90 1a 60
        E 0 90 61 60
        E 0 90 55 60
        E 120 80 1a 00
        E 0 80 61 00
        E 0 80 55 00
        E 120 80 19 00
        E 0 90 1b 60
        E 0 90 61 60
        E 0 90 55 60
        E 0 90 49 60
        E 120 80 1b 00
        E 0 80 61 00
        E 0 80 55 00
        E 0 80 49 00
        E 120 90 18 60
        E 0 90 60 60
        E 0 90 54 60
        E 120 80 18 00
        E 0 80 60 00
        E 0 80 54 00
        E 120 80 78 00
        E 0 80 79 00
        E 0 80 7a 00
        E 0 80 7b 00
        E 0 80 7c 00
        E 0 90 18 60
        E 0 90 24 60
        E 0 90 60 60
        E 0 90 64 60
        E 0 90 54 60
        E 0 90 58 60
        E 0 90 48 60
        E 0 90 4c 60
        E 0 90 40 60
        E 120 80 18 00
        E 0 80 24 00
        E 0 80 60 00
        E 0 80 64 00
        E 0 80 54 00
        E 0 80 58 00
        E 0 80 48 00
        E 0 80 4c 00
        E 0 80 40 00
        E 360 90 1f 60
        E 0 90 62 60
        E 0 90 56 60
        E 0 90 4a 60
        E 120 80 1f 00
        E 0 80 62 00
        E 0 80 56 00
        E 0 80 4a 00
        E 360 90 1a 60
        E 0 90 1f 60
        E 0 90 61 60
        E 0 90 62 60
        E 0 90 55 60
        E 0 90 56 60
        E 0 90 49 60
        E 0 90 4a 60
        E 0 90 3d 60
        E 0 90 3e 60
        E 120 80 1a 00
        E 0 80 1f 00
        E 0 80 61 00
        E 0 80 62 00
        E 0 80 55 00
        E 0 80 56 00
        E 0 80 49 00
        E 0 80 4a 00
        E 0 80 3d 00
        E 0 80 3e 00
        E 360 90 1f 60
        E 0 90 62 60
        E 0 90 56 60
        E 0 90 4a 60
        E 120 80 1f 00
        E 0 80 62 00
        E 0 80 56 00
        E 0 80 4a 00
        E 120 90 18 60
        E 0 90 60 60
        E 0 90 54 60
        E 120 80 18 00
        E 0 80 60 00
        E 0 80 54 00
        E 120 90 1f 60
        E 0 90 62 60
        E 0 90 56 60
        E 0 90 4a 60
        E 0 90 3e 60
        E 120 80 1f 00
        E 0 80 62 00
        E 0 80 56 00
        E 0 80 4a 00
        E 0 80 3e 00
        E 120 90 18 60
        E 0 90 60 60
        E 0 90 54 60
        E 120 80 18 00
        E 0 80 60 00
        E 0 80 54 00
        E 120 90 18 60
        E 0 90 1f 60
        E 0 90 60 60
        E 0 90 62 60
        E 0 90 54 60
        E 0 90 56 60
        E 0 90 48 60
        E 0 90 4a 60
        E 120 80 18 00
        E 0 80 1f 00
        E 0 80 60 00
        E 0 80 62 00
        E 0 80 54 00
        E 0 80 56 00
        E 0 80 48 00
        E 0 80 4a 00
        E 360 90 1a 60
        E 0 90 1f 60
        E 0 90 61 60
        E 0 90 62 60
        E 0 90 55 60
        E 0 90 56 60
        E 0 90 49 60
        E 0 90 4a 60
        E 0 90 3d 60
        E 0 90 3e 60
        E 120 80 1a 00
        E 0 80 1f 00
        E 0 80 61 00
        E 0 80 62 00
        E 0 80 55 00
        E 0 80 56 00
        E 0 80 49 00
        E 0 80 4a 00
        E 0 80 3d 00
        E 0 80 3e 00
        E 360 90 1f 60
        E 0 90 62 60
        E 0 90 56 60
        E 0 90 4a 60
        E 120 80 1f 00
        E 0 80 62 00
        E 0 80 56 00
        E 0 80 4a 00
        E 120 90 1c 60
        E 0 90 61 60
        E 0 90 55 60
        E 120 80 1c 00
        E 0 80 61 00
        E 0 80 55 00
        E 120 90 2f 60
        E 0 90 63 60
        E 0 90 57 60
        E 0 90 4b 60
        E 0 90 6f 60
        E 0 90 3f 60
        E 120 80 2f 00
        E 0 80 63 00
        E 0 80 57 00
        E 0 80 4b 00
        E 0 80 6f 00
        E 0 80 3f 00
        E 120 90 19 60
        E 0 90 1c 60
        E 0 90 61 60
        E 0 90 55 60
        E 120 80 1c 00
        E 0 80 61 00
        E 0 80 55 00
        E 0 90 1c 60
        E 0 90 61 60
        E 120 80 19 00
        E 0 80 1c 00
        E 0 80 61 00
        E 0 90 1b 60
        E 0 90 61 60
        E 0 90 55 60
        E 0 90 49 60
        E 120 80 1b 00
        E 0 80 61 00
        E 0 80 55 00
        E 0 80 49 00
        E 120 90 19 60
        E 0 90 1a 60
        E 0 90 61 60
        E 0 90 55 60
        E 120 80 1a 00
        E 0 80 61 00
        E 0 80 55 00
        E 120 80 19 00
        E 0 90 1d 60
        E 0 90 61 60
        E 0 90 55 60
        E 0 90 49 60
        E 0 90 3d 60
        E 120 80 1d 00
        E 0 80 61 00
        E 0 80 55 00
        E 0 80 49 00
        E 0 80 3d 00
        E 120 90 19 60
        E 0 90 1a 60
        E 0 90 61 60
        E 0 90 55 60
        E 120 80 1a 00
        E 0 80 61 00
        E 0 80 55 00
        E 120 80 19 00
        E 0 90 1c 60
        E 0 90 61 60
        E 0 90 55 60
        E 0 90 49 60
        E 120 80 1c 00
        E 0 80 61 00
        E 0 80 55 00
        E 0 80 49 00
        E 120 90 19 60
        E 0 90 2f 60
        E 0 90 63 60
        E 0 90 57 60
        E 0 90 6f 60
        E 120 80 2f 00
        E 0 80 63 00
        E 0 80 57 00
        E 0 80 6f 00
        E 120 80 19 00
        E 0 90 1c 60
        E 0 90 61 60
        E 0 90 78 60
        E 0 90 79 60
        E 0 90 7a 60
        E 0 90 7b 60
        E 0 90 7c 60
        E 0 90 55 60
        E 0 90 49 60
        E 0 90 3d 60
        E 120 80 1c 00
        E 0 80 61 00
        E 0 80 55 00
        E 0 80 49 00
        E 0 80 3d 00
        E 120 90 19 60
        E 0 90 1c 60
        E 0 90 61 60
        E 0 90 55 60
        E 120 80 1c 00
        E 0 80 61 00
        E 0 80 55 00
        E 120 80 19 00
        E 0 90 1b 60
        E 0 90 61 60
        E 0 90 55 60
        E 0 90 49 60
        E 120 80 1b 00
        E 0 80 61 00
        E 0 80 55 00
        E 0 80 49 00
        E 120 90 19 60
        E 0 90 1c 60
        E 0 90 61 60
        E 0 90 55 60
        E 120 80 1c 00
        E 0 80 61 00
        E 0 80 55 00
        E 120 80 19 00
        E 0 90 1b 60
        E 0 90 61 60
        E 0 90 55 60
        E 0 90 49 60
        E 0 90 3d 60
        E 120 80 1b 00
        E 0 80 61 00
        E 0 80 55 00
        E 0 80 49 00
        E 0 80 3d 00
        E 120 90 18 60
        E 0 90 19 60
        E 0 90 60 60
        E 0 90 54 60
        E 120 80 18 00
        E 0 80 60 00
        E 0 80 54 00
        E 120 80 19 00
        E 0 90 1f 60
        E 0 90 62 60
        E 0 90 56 60
        E 0 90 4a 60
        E 120 80 1f 00
        E 0 80 62 00
        E 0 80 56 00
        E 0 80 4a 00
        E 120 90 18 60
        E 0 90 19 60
        E 0 90 60 60
        E 0 90 54 60
        E 120 80 18 00
        E 0 80 60 00
        E 0 80 54 00
        E 120 80 78 00
        E 0 80 79 00
        E 0 80 7a 00
        E 0 80 7b 00
        E 0 80 7c 00
        E 0 80 19 00
        E 0 90 18 60
        E 0 90 24 60
        E 0 90 60 60
        E 0 90 64 60
        E 0 90 54 60
        E 0 90 58 60
        E 0 90 48 60
        E 0 90 4c 60
        E 0 90 40 60
        E 120 80 18 00
        E 0 80 24 00
        E 0 80 60 00
        E 0 80 64 00
        E 0 80 54 00
        E 0 80 58 00
        E 0 80 48 00
        E 0 80 4c 00
        E 0 80 40 00
        E 360 90 1f 60
        E 0 90 62 60
        E 0 90 56 60
        E 0 90 4a 60
        E 120 80 1f 00
        E 0 80 62 00
        E 0 80 56 00
        E 0 80 4a 00
        E 360 90 1a 60
        E 0 90 1f 60
        E 0 90 61 60
        E 0 90 62 60
        E 0 90 55 60
        E 0 90 56 60
        E 0 90 49 60
        E 0 90 4a 60
        E 0 90 3d 60
        E 0 90 3e 60
        E 120 80 1a 00
        E 0 80 1f 00
        E 0 80 61 00
        E 0 80 62 00
        E 0 80 55 00
        E 0 80 56 00
        E 0 80 49 00
        E 0 80 4a 00
        E 0 80 3d 00
        E 0 80 3e 00
        E 360 90 1f 60
        E 0 90 62 60
        E 0 90 56 60
        E 0 90 4a 60
        E 120 80 1f 00
        E 0 80 62 00
        E 0 80 56 00
        E 0 80 4a 00
        E 120 90 18 60
        E 0 90 60 60
        E 0 90 54 60
        E 120 80 18 00
        E 0 80 60 00
        E 0 80 54 00
        E 120 90 18 60
        E 0 90 1f 60
        E 0 90 60 60
        E 0 90 62 60
        E 0 90 54 60
        E 0 90 56 60
        E 0 90 48 60
        E 0 90 4a 60
        E 0 90 3e 60
        E 120 80 18 00
        E 0 80 1f 00
        E 0 80 60 00
        E 0 80 62 00
        E 0 80 54 00
        E 0 80 56 00
        E 0 80 48 00
        E 0 80 4a 00
        E 0 80 3e 00
        E 360 90 18 60
        E 0 90 1f 60
        E 0 90 60 60
        E 0 90 62 60
        E 0 90 54 60
        E 0 90 56 60
        E 0 90 48 60
        E 0 90 4a 60
        E 120 80 18 00
        E 0 80 1f 00
        E 0 80 60 00
        E 0 80 62 00
        E 0 80 54 00
        E 0 80 56 00
        E 0 80 48 00
        E 0 80 4a 00
        E 360 90 1a 60
        E 0 90 1f 60
        E 0 90 61 60
        E 0 90 62 60
        E 0 90 55 60
        E 0 90 56 60
        E 0 90 49 60
        E 0 90 4a 60
        E 0 90 3d 60
        E 0 90 3e 60
        E 120 80 1a 00
        E 0 80 1f 00
        E 0 80 61 00
        E 0 80 62 00
        E 0 80 55 00
        E 0 80 56 00
        E 0 80 49 00
        E 0 80 4a 00
        E 0 80 3d 00
        E 0 80 3e 00
        E 360 90 19 60
        E 0 90 1f 60
        E 0 90 63 60
        E 0 90 57 60
        E 0 90 4b 60
        E 120 80 1f 00
        E 0 80 63 00
        E 0 80 57 00
        E 0 80 4b 00
        E 120 90 1c 60
        E 0 90 61 60
        E 0 90 55 60
        E 120 80 1c 00
        E 0 80 61 00
        E 0 80 55 00
        E 120 80 19 00
        E 0 90 2f 60
        E 0 90 63 60
        E 0 90 57 60
        E 0 90 4b 60
        E 0 90 6f 60
        E 0 90 3f 60
        E 120 80 2f 00
        E 0 80 63 00
        E 0 80 57 00
        E 0 80 4b 00
        E 0 80 6f 00
        E 0 80 3f 00
        E 120 90 19 60
        E 0 90 1c 60
        E 0 90 61 60
        E 0 90 55 60
        E 120 80 1c 00
        E 0 80 61 00
        E 0 80 55 00
        E 120 80 19 00
        E 0 90 1d 60
        E 0 90 61 60
        E 0 90 55 60
        E 0 90 49 60
        E 120 80 1d 00
        E 0 80 61 00
        E 0 80 55 00
        E 0 80 49 00
        E 120 90 19 60
        E 0 90 1a 60
        E 0 90 61 60
        E 0 90 55 60
        E 120 80 1a 00
        E 0 80 61 00
        E 0 80 55 00
        E 120 80 19 00
        E 0 90 1c 60
        E 0 90 61 60
        E 0 90 55 60
        E 0 90 49 60
        E 0 90 3d 60
        E 120 80 1c 00
        E 0 80 61 00
        E 0 80 55 00
        E 0 80 49 00
        E 0 80 3d 00
        E 120 90 19 60
        E 0 90 2f 60
        E 0 90 63 60
        E 0 90 57 60
        E 0 90 6f 60
        E 120 80 2f 00
        E 0 80 63 00
        E 0 80 57 00
        E 0 80 6f 00
        E 120 80 19 00
        E 0 90 1c 60
        E 0 90 61 60
        E 0 90 55 60
        E 0 90 49 60
        E 120 80 1c 00
        E 0 80 61 00
        E 0 80 55 00
        E 0 80 49 00
        E 120 90 19 60
        E 0 90 2f 60
        E 0 90 63 60
        E 0 90 57 60
        E 0 90 6f 60
        E 120 80 2f 00
        E 0 80 63 00
        E 0 80 57 00
        E 0 80 6f 00
        E 120 80 19 00
        E 0 90 1a 60
        E 0 90 61 60
        E 0 90 78 60
        E 0 90 79 60
        E 0 90 7a 60
        E 0 90 7b 60
        E 0 90 7c 60
        E 0 90 55 60
        E 0 90 49 60
        E 0 90 3d 60
        E 120 80 1a 00
        E 0 80 61 00
        E 0 80 55 00
        E 0 80 49 00
        E 0 80 3d 00
        E 120 90 19 60
        E 0 90 1a 60
        E 0 90 61 60
        E 0 90 55 60
        E 120 80 1a 00
        E 0 80 61 00
        E 0 80 55 00
        E 120 80 19 00
        E 0 90 1b 60
        E 0 90 61 60
        E 0 90 55 60
        E 0 90 49 60
        E 120 80 1b 00
        E 0 80 61 00
        E 0 80 55 00
        E 0 80 49 00
        E 120 90 19 60
        E 0 90 1a 60
        E 0 90 61 60
        E 0 90 55 60
        E 120 80 1a 00
        E 0 80 61 00
        E 0 80 55 00
        E 120 80 19 00
        E 0 90 1b 60
        E 0 90 61 60
        E 0 90 55 60
        E 0 90 49 60
        E 0 90 3d 60
        E 120 80 1b 00
        E 0 80 61 00
        E 0 80 55 00
        E 0 80 49 00
        E 0 80 3d 00
        E 120 90 18 60
        E 0 90 19 60
        E 0 90 60 60
        E 0 90 54 60
        E 120 80 18 00
        E 0 80 60 00
        E 0 80 54 00
        E 120 80 19 00
        E 0 90 1f 60
        E 0 90 62 60
        E 0 90 56 60
        E 0 90 4a 60
        E 120 80 1f 00
        E 0 80 62 00
        E 0 80 56 00
        E 0 80 4a 00
        E 120 90 18 60
        E 0 90 60 60
        E 0 90 54 60
        E 120 80 18 00
        E 0 80 60 00
        E 0 80 54 00
        E 120 80 78 00
        E 0 80 79 00
        E 0 80 7a 00
        E 0 80 7b 00
        E 0 80 7c 00
        E 0 90 18 60
        E 0 90 24 60
        E 0 90 60 60
        E 0 90 64 60
        E 0 90 54 60
        E 0 90 58 60
        E 0 90 48 60
        E 0 90 4c 60
        E 0 90 40 60
        E 120 80 18 00
        E 0 80 24 00
        E 0 80 60 00
        E 0 80 64 00
        E 0 80 54 00
        E 0 80 58 00
        E 0 80 48 00
        E 0 80 4c 00
        E 0 80 40 00
        E 360 90 1f 60
        E 0 90 62 60
        E 0 90 56 60
        E 0 90 4a 60
        E 120 80 1f 00
        E 0 80 62 00
        E 0 80 56 00
        E 0 80 4a 00
        E 360 90 1a 60
        E 0 90 1f 60
        E 0 90 61 60
        E 0 90 62 60
        E 0 90 55 60
        E 0 90 56 60
        E 0 90 49 60
        E 0 90 4a 60
        E 0 90 3d 60
        E 0 90 3e 60
        E 120 80 1a 00
        E 0 80 1f 00
        E 0 80 61 00
        E 0 80 62 00
        E 0 80 55 00
        E 0 80 56 00
        E 0 80 49 00
        E 0 80 4a 00
        E 0 80 3d 00
        E 0 80 3e 00
        E 360 90 1f 60
        E 0 90 62 60
        E 0 90 56 60
        E 0 90 4a 60
        E 120 80 1f 00
        E 0 80 62 00
        E 0 80 56 00
        E 0 80 4a 00
        E 120 90 18 60
        E 0 90 60 60
        E 0 90 54 60
        E 120 80 18 00
        E 0 80 60 00
        E 0 80 54 00
        E 120 90 1f 60
        E 0 90 62 60
        E 0 90 56 60
        E 0 90 4a 60
        E 0 90 3e 60
        E 120 80 1f 00
        E 0 80 62 00
        E 0 80 56 00
        E 0 80 4a 00
        E 0 80 3e 00
        E 120 90 1c 60
        E 0 90 61 60
        E 0 90 55 60
        E 120 80 1c 00
        E 0 80 61 00
        E 0 80 55 00
        E 120 90 18 60
        E 0 90 1f 60
        E 0 90 60 60
        E 0 90 62 60
        E 0 90 54 60
        E 0 90 56 60
        E 0 90 48 60
        E 0 90 4a 60
        E 120 80 18 00
        E 0 80 1f 00
        E 0 80 60 00
        E 0 80 62 00
        E 0 80 54 00
        E 0 80 56 00
        E 0 80 48 00
        E 0 80 4a 00
        E 120 90 18 60
        E 0 90 60 60
        E 0 90 54 60
        E 120 80 18 00
        E 0 80 60 00
        E 0 80 54 00
        E 120 90 1a 60
        E 0 90 1f 60
        E 0 90 61 60
        E 0 90 62 60
        E 0 90 55 60
        E 0 90 56 60
        E 0 90 49 60
        E 0 90 4a 60
        E 0 90 3d 60
        E 0 90 3e 60
        E 120 80 1a 00
        E 0 80 1f 00
        E 0 80 61 00
        E 0 80 62 00
        E 0 80 55 00
        E 0 80 56 00
        E 0 80 49 00
        E 0 80 4a 00
        E 0 80 3d 00
        E 0 80 3e 00
        E 360 90 19 60
        E 0 90 1f 60
        E 0 90 63 60
        E 0 90 57 60
        E 0 90 4b 60
        E 120 80 1f 00
        E 0 80 63 00
        E 0 80 57 00
        E 0 80 4b 00
        E 120 90 1c 60
        E 0 90 61 60
        E 0 90 55 60
        E 120 80 1c 00
        E 0 80 61 00
        E 0 80 55 00
        E 0 90 1c 60
        E 0 90 61 60
        E 120 80 19 00
        E 0 80 1c 00
        E 0 80 61 00
        E 0 90 1b 60
        E 0 90 61 60
        E 0 90 55 60
        E 0 90 49 60
        E 0 90 3d 60
        E 120 80 1b 00
        E 0 80 61 00
        E 0 80 55 00
        E 0 80 49 00
        E 0 80 3d 00
        E 120 90 19 60
        E 0 90 1a 60
        E 0 90 61 60
        E 0 90 55 60
        E 120 80 1a 00
        E 0 80 61 00
        E 0 80 55 00
        E 120 80 19 00
        E 0 90 1a 60
        E 0 90 61 60
        E 0 90 55 60
        E 0 90 49 60
        E 120 80 1a 00
        E 0 80 61 00
        E 0 80 55 00
        E 0 80 49 00
        E 120 90 19 60
        E 0 90 2f 60
        E 0 90 63 60
        E 0 90 57 60
        E 0 90 6f 60
        E 120 80 2f 00
        E 0 80 63 00
        E 0 80 57 00
        E 0 80 6f 00
        E 120 80 19 00
        E 0 90 1c 60
        E 0 90 61 60
        E 0 90 55 60
        E 0 90 49 60
        E 0 90 3d 60
        E 120 80 1c 00
        E 0 80 61 00
        E 0 80 55 00
        E 0 80 49 00
        E 0 80 3d 00
        E 120 90 19 60
        E 0 90 2f 60
        E 0 90 63 60
        E 0 90 57 60
        E 0 90 6f 60
        E 120 80 2f 00
        E 0 80 63 00
        E 0 80 57 00
        E 0 80 6f 00
        E 120 80 19 00
        E 0 90 1c 60
        E 0 90 61 60
        E 0 90 55 60
        E 0 90 49 60
        E 120 80 1c 00
        E 0 80 61 00
        E 0 80 55 00
        E 0 80 49 00
        E 120 90 19 60
        E 0 90 1c 60
        E 0 90 61 60
        E 0 90 55 60
        E 120 80 1c 00
        E 0 80 61 00
        E 0 80 55 00
        E 120 80 19 00
        E 0 90 1b 60
        E 0 90 61 60
        E 0 90 78 60
        E 0 90 79 60
        E 0 90 7a 60
        E 0 90 7b 60
        E 0 90 7c 60
        E 0 90 55 60
        E 0 90 49 60
        E 0 90 3d 60
        E 120 80 1b 00
        E 0 80 61 00
        E 0 80 55 00
        E 0 80 49 00
        E 0 80 3d 00
        E 1800 80 78 00
        E 0 80 79 00
        E 0 80 7a 00
        E 0 80 7b 00
        E 0 80 7c 00
        E 0 90 18 60
        E 0 90 24 60
        E 0 90 60 60
        E 0 90 64 60
        E 0 90 54 60
        E 0 90 58 60
        E 0 90 48 60
        E 0 90 4c 60
        E 0 90 40 60
        E 120 80 18 00
        E 0 80 24 00
        E 0 80 60 00
        E 0 80 64 00
        E 0 80 54 00
        E 0 80 58 00
        E 0 80 48 00
        E 0 80 4c 00
        E 0 80 40 00
        E 360 90 1f 60
        E 0 90 62 60
        E 0 90 56 60
        E 0 90 4a 60
        E 120 80 1f 00
        E 0 80 62 00
        E 0 80 56 00
        E 0 80 4a 00
        E 120 90 18 60
        E 0 90 60 60
        E 0 90 54 60
        E 120 80 18 00
        E 0 80 60 00
        E 0 80 54 00
        E 120 90 1a 60
        E 0 90 1f 60
        E 0 90 61 60
        E 0 90 62 60
        E 0 90 55 60
        E 0 90 56 60
        E 0 90 49 60
        E 0 90 4a 60
        E 0 90 3d 60
        E 0 90 3e 60
        E 120 80 1a 00
        E 0 80 1f 00
        E 0 80 61 00
        E 0 80 62 00
        E 0 80 55 00
        E 0 80 56 00
        E 0 80 49 00
        E 0 80 4a 00
        E 0 80 3d 00
        E 0 80 3e 00
        E 360 90 1f 60
        E 0 90 62 60
        E 0 90 56 60
        E 0 90 4a 60
        E 120 80 1f 00
        E 0 80 62 00
        E 0 80 56 00
        E 0 80 4a 00
        E 120 90 18 60
        E 0 90 60 60
        E 0 90 54 60
        E 120 80 18 00
        E 0 80 60 00
        E 0 80 54 00
        E 120 90 18 60
        E 0 90 1f 60
        E 0 90 60 60
        E 0 90 62 60
        E 0 90 54 60
        E 0 90 56 60
        E 0 90 48 60
        E 0 90 4a 60
        E 0 90 3e 60
        E 120 80 18 00
        E 0 80 1f 00
        E 0 80 60 00
        E 0 80 62 00
        E 0 80 54 00
        E 0 80 56 00
        E 0 80 48 00
        E 0 80 4a 00
        E 0 80 3e 00
        E 120 90 1c 60
        E 0 90 61 60
        E 0 90 55 60
        E 120 80 1c 00
        E 0 80 61 00
        E 0 80 55 00
        E 120 90 18 60
        E 0 90 1f 60
        E 0 90 60 60
        E 0 90 62 60
        E 0 90 54 60
        E 0 90 56 60
        E 0 90 48 60
        E 0 90 4a 60
        E 120 80 18 00
        E 0 80 1f 00
        E 0 80 60 00
        E 0 80 62 00
        E 0 80 54 00
        E 0 80 56 00
        E 0 80 48 00
        E 0 80 4a 00
        E 120 90 18 60
        E 0 90 60 60
        E 0 90 54 60
        E 120 80 18 00
        E 0 80 60 00
        E 0 80 54 00
        E 120 90 1a 60
        E 0 90 1f 60
        E 0 90 61 60
        E 0 90 62 60
        E 0 90 55 60
        E 0 90 56 60
        E 0 90 49 60
        E 0 90 4a 60
        E 0 90 3d 60
        E 0 90 3e 60
        E 120 80 1a 00
        E 0 80 1f 00
        E 0 80 61 00
        E 0 80 62 00
        E 0 80 55 00
        E 0 80 56 00
        E 0 80 49 00
        E 0 80 4a 00
        E 0 80 3d 00
        E 0 80 3e 00
        E 360 90 1f 60
        E 0 90 62 60
        E 0 90 56 60
        E 0 90 4a 60
        E 120 80 1f 00
        E 0 80 62 00
        E 0 80 56 00
        E 0 80 4a 00
        E 120 90 19 60
        E 0 90 1c 60
        E 0 90 61 60
        E 0 90 55 60
        E 120 80 1c 00
        E 0 80 61 00
        E 0 80 55 00
        E 0 90 1c 60
        E 0 90 61 60
        E 120 80 19 00
        E 0 80 1c 00
        E 0 80 61 00
        E 0 90 1b 60
        E 0 90 61 60
        E 0 90 55 60
        E 0 90 49 60
        E 0 90 3d 60
        E 120 80 1b 00
        E 0 80 61 00
        E 0 80 55 00
        E 0 80 49 00
        E 0 80 3d 00
        E 120 90 19 60
        E 0 90 1a 60
        E 0 90 61 60
        E 0 90 55 60
        E 120 80 1a 00
        E 0 80 61 00
        E 0 80 55 00
        E 120 80 19 00
        E 0 90 2f 60
        E 0 90 63 60
        E 0 90 57 60
        E 0 90 4b 60
        E 0 90 6f 60
        E 120 80 2f 00
        E 0 80 63 00
        E 0 80 57 00
        E 0 80 4b 00
        E 0 80 6f 00
        E 120 90 19 60
        E 0 90 1c 60
        E 0 90 61 60
        E 0 90 55 60
        E 120 80 1c 00
        E 0 80 61 00
        E 0 80 55 00
        E 120 80 19 00
        E 0 90 1c 60
        E 0 90 61 60
        E 0 90 55 60
        E 0 90 49 60
        E 0 90 3d 60
        E 120 80 1c 00
        E 0 80 61 00
        E 0 80 55 00
        E 0 80 49 00
        E 0 80 3d 00
        E 120 90 19 60
        E 0 90 2f 60
        E 0 90 63 60
        E 0 90 57 60
        E 0 90 6f 60
        E 120 80 2f 00
        E 0 80 63 00
        E 0 80 57 00
        E 0 80 6f 00
        E 120 80 19 00
        E 0 90 1c 60
        E 0 90 61 60
        E 0 90 55 60
        E 0 90 49 60
        E 120 80 1c 00
        E 0 80 61 00
        E 0 80 55 00
        E 0 80 49 00
        E 120 90 19 60
        E 0 90 2f 60
        E 0 90 63 60
        E 0 90 57 60
        E 0 90 6f 60
        E 120 80 2f 00
        E 0 80 63 00
        E 0 80 57 00
        E 0 80 6f 00
        E 120 80 19 00
        E 0 90 1a 60
        E 0 90 61 60
        E 0 90 78 60
        E 0 90 79 60
        E 0 90 7a 60
        E 0 90 7b 60
        E 0 90 7c 60
        E 0 90 55 60
        E 0 90 49 60
        E 0 90 3d 60
        E 120 80 1a 00
        E 0 80 61 00
        E 0 80 55 00
        E 0 80 49 00
        E 0 80 3d 00
        E 120 90 19 60
        E 0 90 1c 60
        E 0 90 61 60
        E 0 90 55 60
        E 120 80 1c 00
        E 0 80 61 00
        E 0 80 55 00
        E 120 80 19 00
        E 0 90 2f 60
        E 0 90 63 60
        E 0 90 57 60
        E 0 90 4b 60
        E 0 90 6f 60
        E 120 80 2f 00
        E 0 80 63 00
        E 0 80 57 00
        E 0 80 4b 00
        E 0 80 6f 00
        E 120 90 19 60
        E 0 90 1a 60
        E 0 90 61 60
        E 0 90 55 60
        E 120 80 1a 00
        E 0 80 61 00
        E 0 80 55 00
        E 120 80 19 00
        E 0 90 1d 60
        E 0 90 62 60
        E 0 90 56 60
        E 0 90 4a 60
        E 0 90 6e 60
        E 0 90 3e 60
        E 120 80 1d 00
        E 0 80 62 00
        E 0 80 56 00
        E 0 80 4a 00
        E 0 80 6e 00
        E 0 80 3e 00
        E 120 90 19 60
        E 0 90 1a 60
        E 0 90 61 60
        E 0 90 55 60
        E 120 80 1a 00
        E 0 80 61 00
        E 0 80 55 00
        E 120 80 19 00
        E 0 90 1b 60
        E 0 90 61 60
        E 0 90 55 60
        E 0 90 49 60
        E 120 80 1b 00
        E 0 80 61 00
        E 0 80 55 00
        E 0 80 49 00
        E 120 90 18 60
        E 0 90 60 60
        E 0 90 54 60
        E 120 80 18 00
        E 0 80 60 00
        E 0 80 54 00
        E 120 80 78 00
        E 0 80 79 00
        E 0 80 7a 00
        E 0 80 7b 00
        E 0 80 7c 00
        E 0 90 18 60
        E 0 90 24 60
        E 0 90 60 60
        E 0 90 64 60
        E 0 90 54 60
        E 0 90 58 60
        E 0 90 48 60
        E 0 90 4c 60
        E 0 90 40 60
        E 120 80 18 00
        E 0 80 24 00
        E 0 80 60 00
        E 0 80 64 00
        E 0 80 54 00
        E 0 80 58 00
        E 0 80 48 00
        E 0 80 4c 00
        E 0 80 40 00
        E 360 90 1f 60
        E 0 90 62 60
        E 0 90 56 60
        E 0 90 4a 60
        E 120 80 1f 00
        E 0 80 62 00
        E 0 80 56 00
        E 0 80 4a 00
        E 360 90 1a 60
        E 0 90 1f 60
        E 0 90 61 60
        E 0 90 62 60
        E 0 90 55 60
        E 0 90 56 60
        E 0 90 49 60
        E 0 90 4a 60
        E 0 90 3d 60
        E 0 90 3e 60
        E 120 80 1a 00
        E 0 80 1f 00
        E 0 80 61 00
        E 0 80 62 00
        E 0 80 55 00
        E 0 80 56 00
        E 0 80 49 00
        E 0 80 4a 00
        E 0 80 3d 00
        E 0 80 3e 00
        E 360 90 1f 60
        E 0 90 62 60
        E 0 90 56 60
        E 0 90 4a 60
        E 120 80 1f 00
        E 0 80 62 00
        E 0 80 56 00
        E 0 80 4a 00
        E 120 90 18 60
        E 0 90 60 60
        E 0 90 54 60
        E 120 80 18 00
        E 0 80 60 00
        E 0 80 54 00
        E 120 90 1f 60
        E 0 90 62 60
        E 0 90 56 60
        E 0 90 4a 60
        E 0 90 3e 60
        E 120 80 1f 00
        E 0 80 62 00
        E 0 80 56 00
        E 0 80 4a 00
        E 0 80 3e 00
        E 120 90 18 60
        E 0 90 60 60
        E 0 90 54 60
        E 120 80 18 00
        E 0 80 60 00
        E 0 80 54 00
        E 120 90 18 60
        E 0 90 1f 60
        E 0 90 60 60
        E 0 90 62 60
        E 0 90 54 60
        E 0 90 56 60
        E 0 90 48 60
        E 0 90 4a 60
        E 120 80 18 00
        E 0 80 1f 00
        E 0 80 60 00
        E 0 80 62 00
        E 0 80 54 00
        E 0 80 56 00
        E 0 80 48 00
        E 0 80 4a 00
        E 360 90 1a 60
        E 0 90 1f 60
        E 0 90 61 60
        E 0 90 62 60
        E 0 90 55 60
        E 0 90 56 60
        E 0 90 49 60
        E 0 90 4a 60
        E 0 90 3d 60
        E 0 90 3e 60
        E 120 80 1a 00
        E 0 80 1f 00
        E 0 80 61 00
        E 0 80 62 00
        E 0 80 55 00
        E 0 80 56 00
        E 0 80 49 00
        E 0 80 4a 00
        E 0 80 3d 00
        E 0 80 3e 00
        E 360 90 1f 60
        E 0 90 62 60
        E 0 90 56 60
        E 0 90 4a 60
        E 120 80 1f 00
        E 0 80 62 00
        E 0 80 56 00
        E 0 80 4a 00
        E 120 90 1c 60
        E 0 90 61 60
        E 0 90 55 60
        E 120 80 1c 00
        E 0 80 61 00
        E 0 80 55 00
        E 120 90 2f 60
        E 0 90 63 60
        E 0 90 74 60
        E 0 90 57 60
        E 0 90 4b 60
        E 0 90 6f 60
        E 0 90 3f 60
        E 120 80 2f 00
        E 0 80 63 00
        E 0 80 57 00
        E 0 80 4b 00
        E 0 80 6f 00
        E 0 80 3f 00
        E 120 90 19 60
        E 0 90 1c 60
        E 0 90 61 60
        E 0 90 55 60
        E 120 80 1c 00
        E 0 80 61 00
        E 0 80 55 00
        E 0 90 1c 60
        E 0 90 61 60
        E 120 80 19 00
        E 0 80 1c 00
        E 0 80 61 00
        E 0 90 1b 60
        E 0 90 61 60
        E 0 90 55 60
        E 0 90 49 60
        E 120 80 1b 00
        E 0 80 61 00
        E 0 80 55 00
        E 0 80 49 00
        E 120 90 19 60
        E 0 90 1a 60
        E 0 90 61 60
        E 0 90 55 60
        E 120 80 1a 00
        E 0 80 61 00
        E 0 80 55 00
        E 120 80 19 00
        E 0 90 1d 60
        E 0 90 61 60
        E 0 90 55 60
        E 0 90 49 60
        E 0 90 3d 60
        E 120 80 1d 00
        E 0 80 61 00
        E 0 80 55 00
        E 0 80 49 00
        E 0 80 3d 00
        E 120 90 19 60
        E 0 90 1a 60
        E 0 90 61 60
        E 0 90 55 60
        E 120 80 1a 00
        E 0 80 61 00
        E 0 80 55 00
        E 120 80 19 00
        E 0 90 1c 60
        E 0 90 61 60
        E 0 90 55 60
        E 0 90 49 60
        E 120 80 1c 00
        E 0 80 61 00
        E 0 80 55 00
        E 0 80 49 00
        E 120 90 19 60
        E 0 90 2f 60
        E 0 90 63 60
        E 0 90 57 60
        E 0 90 6f 60
        E 120 80 2f 00
        E 0 80 63 00
        E 0 80 57 00
        E 0 80 6f 00
        E 120 80 19 00
        E 0 90 1c 60
        E 0 90 61 60
        E 0 90 55 60
        E 0 90 49 60
        E 0 90 3d 60
        E 120 80 1c 00
        E 0 80 61 00
        E 0 80 55 00
        E 0 80 49 00
        E 0 80 3d 00
        E 120 90 19 60
        E 0 90 1c 60
        E 0 90 61 60
        E 0 90 55 60
        E 120 80 1c 00
        E 0 80 61 00
        E 0 80 55 00
        E 120 80 19 00
        E 0 90 1b 60
        E 0 90 61 60
        E 0 90 55 60
        E 0 90 49 60
        E 120 80 1b 00
        E 0 80 61 00
        E 0 80 55 00
        E 0 80 49 00
        E 120 90 19 60
        E 0 90 1c 60
        E 0 90 61 60
        E 0 90 55 60
        E 120 80 1c 00
        E 0 80 61 00
        E 0 80 55 00
        E 120 80 19 00
        E 0 90 1b 60
        E 0 90 61 60
        E 0 90 55 60
        E 0 90 49 60
        E 0 90 3d 60
        E 120 80 1b 00
        E 0 80 61 00
        E 0 80 55 00
        E 0 80 49 00
        E 0 80 3d 00
        E 120 90 18 60
        E 0 90 19 60
        E 0 90 60 60
        E 0 90 54 60
        E 120 80 18 00
        E 0 80 60 00
        E 0 80 54 00
        E 120 80 19 00
        E 0 90 1f 60
        E 0 90 62 60
        E 0 90 56 60
        E 0 90 4a 60
        E 120 80 1f 00
        E 0 80 62 00
        E 0 80 56 00
        E 0 80 4a 00
        E 120 90 18 60
        E 0 90 19 60
        E 0 90 60 60
        E 0 90 54 60
        E 120 80 18 00
        E 0 80 60 00
        E 0 80 54 00
        E 120 80 19 00
        E 0 90 18 60
        E 0 90 24 60
        E 0 90 60 60
        E 0 90 64 60
        E 0 90 54 60
        E 0 90 58 60
        E 0 90 48 60
        E 0 90 4c 60
        E 0 90 40 60
        E 120 80 74 00
        E 0 80 18 00
        E 0 80 24 00
        E 0 80 60 00
        E 0 80 64 00
        E 0 80 54 00
        E 0 80 58 00
        E 0 80 48 00
        E 0 80 4c 00
        E 0 80 40 00
        E 360 90 1f 60
        E 0 90 62 60
        E 0 90 56 60
        E 0 90 4a 60
        E 120 80 1f 00
        E 0 80 62 00
        E 0 80 56 00
        E 0 80 4a 00
        E 360 90 1a 60
        E 0 90 1f 60
        E 0 90 61 60
        E 0 90 62 60
        E 0 90 55 60
        E 0 90 56 60
        E 0 90 49 60
        E 0 90 4a 60
        E 0 90 3d 60
        E 0 90 3e 60
        E 120 80 1a 00
        E 0 80 1f 00
        E 0 80 61 00
        E 0 80 62 00
        E 0 80 55 00
        E 0 80 56 00
        E 0 80 49 00
        E 0 80 4a 00
        E 0 80 3d 00
        E 0 80 3e 00
        E 360 90 1f 60
        E 0 90 62 60
        E 0 90 56 60
        E 0 90 4a 60
        E 120 80 1f 00
        E 0 80 62 00
        E 0 80 56 00
        E 0 80 4a 00
        E 120 90 18 60
        E 0 90 60 60
        E 0 90 54 60
        E 120 80 18 00
        E 0 80 60 00
        E 0 80 54 00
        E 120 90 18 60
        E 0 90 1f 60
        E 0 90 60 60
        E 0 90 62 60
        E 0 90 54 60
        E 0 90 56 60
        E 0 90 48 60
        E 0 90 4a 60
        E 0 90 3e 60
        E 120 80 18 00
        E 0 80 1f 00
        E 0 80 60 00
        E 0 80 62 00
        E 0 80 54 00
        E 0 80 56 00
        E 0 80 48 00
        E 0 80 4a 00
        E 0 80 3e 00
        E 360 90 18 60
        E 0 90 1f 60
        E 0 90 60 60
        E 0 90 62 60
        E 0 90 54 60
        E 0 90 56 60
        E 0 90 48 60
        E 0 90 4a 60
        E 120 80 18 00
        E 0 80 1f 00
        E 0 80 60 00
        E 0 80 62 00
        E 0 80 54 00
        E 0 80 56 00
        E 0 80 48 00
        E 0 80 4a 00
        E 360 90 1a 60
        E 0 90 1f 60
        E 0 90 61 60
        E 0 90 62 60
        E 0 90 55 60
        E 0 90 56 60
        E 0 90 49 60
        E 0 90 4a 60
        E 0 90 3d 60
        E 0 90 3e 60
        E 120 80 1a 00
        E 0 80 1f 00
        E 0 80 61 00
        E 0 80 62 00
        E 0 80 55 00
        E 0 80 56 00
        E 0 80 49 00
        E 0 80 4a 00
        E 0 80 3d 00
        E 0 80 3e 00
        E 360 90 19 60
        E 0 90 1f 60
        E 0 90 63 60
        E 0 90 57 60
        E 0 90 4b 60
        E 120 80 1f 00
        E 0 80 63 00
        E 0 80 57 00
        E 0 80 4b 00
        E 120 90 1c 60
        E 0 90 61 60
        E 0 90 55 60
        E 120 80 1c 00
        E 0 80 61 00
        E 0 80 55 00
        E 120 80 19 00
        E 0 90 2f 60
        E 0 90 63 60
        E 0 90 57 60
        E 0 90 4b 60
        E 0 90 6f 60
        E 0 90 3f 60
        E 120 80 2f 00
        E 0 80 63 00
        E 0 80 57 00
        E 0 80 4b 00
        E 0 80 6f 00
        E 0 80 3f 00
        E 120 90 19 60
        E 0 90 1c 60
        E 0 90 61 60
        E 0 90 55 60
        E 120 80 1c 00
        E 0 80 61 00
        E 0 80 55 00
        E 120 80 19 00
        E 0 90 1d 60
        E 0 90 61 60
        E 0 90 55 60
        E 0 90 49 60
        E 120 80 1d 00
        E 0 80 61 00
        E 0 80 55 00
        E 0 80 49 00
        E 120 90 19 60
        E 0 90 1a 60
        E 0 90 61 60
        E 0 90 55 60
        E 120 80 1a 00
        E 0 80 61 00
        E 0 80 55 00
        E 120 80 19 00
        E 0 90 1c 60
        E 0 90 61 60
        E 0 90 55 60
        E 0 90 49 60
        E 0 90 3d 60
        E 120 80 1c 00
        E 0 80 61 00
        E 0 80 55 00
        E 0 80 49 00
        E 0 80 3d 00
        E 120 90 19 60
        E 0 90 2f 60
        E 0 90 63 60
        E 0 90 57 60
        E 0 90 6f 60
        E 120 80 2f 00
        E 0 80 63 00
        E 0 80 57 00
        E 0 80 6f 00
        E 120 80 19 00
        E 0 90 1c 60
        E 0 90 61 60
        E 0 90 55 60
        E 0 90 49 60
        E 120 80 1c 00
        E 0 80 61 00
        E 0 80 55 00
        E 0 80 49 00
        E 120 90 19 60
        E 0 90 2f 60
        E 0 90 63 60
        E 0 90 57 60
        E 0 90 6f 60
        E 120 80 2f 00
        E 0 80 63 00
        E 0 80 57 00
        E 0 80 6f 00
        E 120 80 19 00
        E 0 90 1a 60
        E 0 90 61 60
        E 0 90 78 60
        E 0 90 79 60
        E 0 90 7a 60
        E 0 90 7b 60
        E 0 90 7c 60
        E 0 90 55 60
        E 0 90 49 60
        E 0 90 3d 60
        E 120 80 1a 00
        E 0 80 61 00
        E 0 80 55 00
        E 0 80 49 00
        E 0 80 3d 00
        E 120 90 19 60
        E 0 90 1a 60
        E 0 90 61 60
        E 0 90 55 60
        E 120 80 1a 00
        E 0 80 61 00
        E 0 80 55 00
        E 120 80 19 00
        E 0 90 1b 60
        E 0 90 61 60
        E 0 90 55 60
        E 0 90 49 60
        E 120 80 1b 00
        E 0 80 61 00
        E 0 80 55 00
        E 0 80 49 00
        E 120 90 19 60
        E 0 90 1a 60
        E 0 90 61 60
        E 0 90 55 60
        E 120 80 1a 00
        E 0 80 61 00
        E 0 80 55 00
        E 120 80 19 00
        E 0 90 1b 60
        E 0 90 61 60
        E 0 90 55 60
        E 0 90 49 60
        E 0 90 3d 60
        E 120 80 1b 00
        E 0 80 61 00
        E 0 80 55 00
        E 0 80 49 00
        E 0 80 3d 00
        E 120 90 18 60
        E 0 90 19 60
        E 0 90 60 60
        E 0 90 54 60
        E 120 80 18 00
        E 0 80 60 00
        E 0 80 54 00
        E 120 80 19 00
        E 0 90 1f 60
        E 0 90 62 60
        E 0 90 56 60
        E 0 90 4a 60
        E 120 80 1f 00
        E 0 80 62 00
        E 0 80 56 00
        E 0 80 4a 00
        E 120 90 18 60
        E 0 90 60 60
        E 0 90 54 60
        E 120 80 18 00
        E 0 80 60 00
        E 0 80 54 00
        E 120 80 78 00
        E 0 80 79 00
        E 0 80 7a 00
        E 0 80 7b 00
        E 0 80 7c 00
        E 0 90 18 60
        E 0 90 24 60
        E 0 90 60 60
        E 0 90 64 60
        E 0 90 54 60
        E 0 90 58 60
        E 0 90 48 60
        E 0 90 4c 60
        E 0 90 40 60
        E 120 80 18 00
        E 0 80 24 00
        E 0 80 60 00
        E 0 80 64 00
        E 0 80 54 00
        E 0 80 58 00
        E 0 80 48 00
        E 0 80 4c 00
        E 0 80 40 00
        E 360 90 1f 60
        E 0 90 62 60
        E 0 90 56 60
        E 0 90 4a 60
        E 120 80 1f 00
        E 0 80 62 00
        E 0 80 56 00
        E 0 80 4a 00
        E 360 90 1a 60
        E 0 90 1f 60
        E 0 90 61 60
        E 0 90 62 60
        E 0 90 55 60
        E 0 90 56 60
        E 0 90 49 60
        E 0 90 4a 60
        E 0 90 3d 60
        E 0 90 3e 60
        E 120 80 1a 00
        E 0 80 1f 00
        E 0 80 61 00
        E 0 80 62 00
        E 0 80 55 00
        E 0 80 56 00
        E 0 80 49 00
        E 0 80 4a 00
        E 0 80 3d 00
        E 0 80 3e 00
        E 360 90 1f 60
        E 0 90 62 60
        E 0 90 56 60
        E 0 90 4a 60
        E 120 80 1f 00
        E 0 80 62 00
        E 0 80 56 00
        E 0 80 4a 00
        E 120 90 18 60
        E 0 90 60 60
        E 0 90 54 60
        E 120 80 18 00
        E 0 80 60 00
        E 0 80 54 00
        E 120 90 1f 60
        E 0 90 62 60
        E 0 90 56 60
        E 0 90 4a 60
        E 0 90 3e 60
        E 120 80 1f 00
        E 0 80 62 00
        E 0 80 56 00
        E 0 80 4a 00
        E 0 80 3e 00
        E 120 90 1c 60
        E 0 90 61 60
        E 0 90 55 60
        E 120 80 1c 00
        E 0 80 61 00
        E 0 80 55 00
        E 120 90 18 60
        E 0 90 1f 60
        E 0 90 60 60
        E 0 90 62 60
        E 0 90 54 60
        E 0 90 56 60
        E 0 90 48 60
        E 0 90 4a 60
        E 120 80 18 00
        E 0 80 1f 00
        E 0 80 60 00
        E 0 80 62 00
        E 0 80 54 00
        E 0 80 56 00
        E 0 80 48 00
        E 0 80 4a 00
        E 120 90 18 60
        E 0 90 60 60
        E 0 90 54 60
        E 120 80 18 00
        E 0 80 60 00
        E 0 80 54 00
        E 120 90 1a 60
        E 0 90 1f 60
        E 0 90 61 60
        E 0 90 62 60
        E 0 90 55 60
        E 0 90 56 60
        E 0 90 49 60
        E 0 90 4a 60
        E 0 90 3d 60
        E 0 90 3e 60
        E 120 80 1a 00
        E 0 80 1f 00
        E 0 80 61 00
        E 0 80 62 00
        E 0 80 55 00
        E 0 80 56 00
        E 0 80 49 00
        E 0 80 4a 00
        E 0 80 3d 00
        E 0 80 3e 00
        E 360 90 19 60
        E 0 90 1f 60
        E 0 90 63 60
        E 0 90 57 60
        E 0 90 4b 60
        E 120 80 1f 00
        E 0 80 63 00
        E 0 80 57 00
        E 0 80 4b 00
        E 120 90 1c 60
        E 0 90 61 60
        E 0 90 55 60
        E 120 80 1c 00
        E 0 80 61 00
        E 0 80 55 00
        E 0 90 1c 60
        E 0 90 61 60
        E 120 80 19 00
        E 0 80 1c 00
        E 0 80 61 00
        E 0 90 1b 60
        E 0 90 61 60
        E 0 90 55 60
        E 0 90 49 60
        E 0 90 3d 60
        E 120 80 1b 00
        E 0 80 61 00
        E 0 80 55 00
        E 0 80 49 00
        E 0 80 3d 00
        E 120 90 19 60
        E 0 90 1a 60
        E 0 90 61 60
        E 0 90 55 60
        E 120 80 1a 00
        E 0 80 61 00
        E 0 80 55 00
        E 120 80 19 00
        E 0 90 1a 60
        E 0 90 61 60
        E 0 90 55 60
        E 0 90 49 60
        E 120 80 1a 00
        E 0 80 61 00
        E 0 80 55 00
        E 0 80 49 00
        E 120 90 19 60
        E 0 90 2f 60
        E 0 90 63 60
        E 0 90 57 60
        E 0 90 6f 60
        E 120 80 2f 00
        E 0 80 63 00
        E 0 80 57 00
        E 0 80 6f 00
        E 120 80 19 00
        E 0 90 1c 60
        E 0 90 61 60
        E 0 90 55 60
        E 0 90 49 60
        E 0 90 3d 60
        E 120 80 1c 00
        E 0 80 61 00
        E 0 80 55 00
        E 0 80 49 00
        E 0 80 3d 00
        E 120 90 19 60
        E 0 90 2f 60
        E 0 90 63 60
        E 0 90 57 60
        E 0 90 6f 60
        E 120 80 2f 00
        E 0 80 63 00
        E 0 80 57 00
        E 0 80 6f 00
        E 120 80 19 00
        E 0 90 1c 60
        E 0 90 61 60
        E 0 90 55 60
        E 0 90 49 60
        E 120 80 1c 00
        E 0 80 61 00
        E 0 80 55 00
        E 0 80 49 00
        E 120 90 19 60
        E 0 90 1c 60
        E 0 90 61 60
        E 0 90 55 60
        E 120 80 1c 00
        E 0 80 61 00
        E 0 80 55 00
        E 120 80 19 00
        E 0 90 1b 60
        E 0 90 61 60
        E 0 90 78 60
        E 0 90 79 60
        E 0 90 7a 60
        E 0 90 7b 60
        E 0 90 7c 60
        E 0 90 55 60
        E 0 90 49 60
        E 0 90 3d 60
        E 120 80 1b 00
        E 0 80 61 00
        E 0 80 55 00
        E 0 80 49 00
        E 0 80 3d 00
        E 120 90 19 60
        E 0 90 1a 60
        E 0 90 61 60
        E 0 90 55 60
        E 120 80 1a 00
        E 0 80 61 00
        E 0 80 55 00
        E 120 80 19 00
        E 0 90 2f 60
        E 0 90 63 60
        E 0 90 57 60
        E 0 90 4b 60
        E 0 90 6f 60
        E 120 80 2f 00
        E 0 80 63 00
        E 0 80 57 00
        E 0 80 4b 00
        E 0 80 6f 00
        E 120 90 19 60
        E 0 90 1c 60
        E 0 90 61 60
        E 0 90 55 60
        E 120 80 1c 00
        E 0 80 61 00
        E 0 80 55 00
        E 120 80 19 00
        E 0 90 1b 60
        E 0 90 61 60
        E 0 90 55 60
        E 0 90 49 60
        E 0 90 3d 60
        E 120 80 1b 00
        E 0 80 61 00
        E 0 80 55 00
        E 0 80 49 00
        E 0 80 3d 00
        <X 840 0
          /wFbaW50ZW5zZV0=
        >
        E 0 80 78 00
        E 0 80 79 00
        E 0 80 7a 00
        E 0 80 7b 00
        E 0 80 7c 00
        E 0 90 18 60
        E 0 90 24 60
        E 0 90 60 60
        E 0 90 64 60
        E 0 90 54 60
        E 0 90 58 60
        E 0 90 48 60
        E 0 90 4c 60
        E 0 90 40 60
        E 120 80 18 00
        E 0 80 24 00
        E 0 80 60 00
        E 0 80 64 00
        E 0 80 54 00
        E 0 80 58 00
        E 0 80 48 00
        E 0 80 4c 00
        E 0 80 40 00
        E 360 90 1f 60
        E 0 90 62 60
        E 0 90 56 60
        E 0 90 4a 60
        E 120 80 1f 00
        E 0 80 62 00
        E 0 80 56 00
        E 0 80 4a 00
        E 120 90 18 60
        E 0 90 60 60
        E 0 90 54 60
        E 120 80 18 00
        E 0 80 60 00
        E 0 80 54 00
        E 120 90 1a 60
        E 0 90 1f 60
        E 0 90 61 60
        E 0 90 62 60
        E 0 90 55 60
        E 0 90 56 60
        E 0 90 49 60
        E 0 90 4a 60
        E 0 90 3d 60
        E 0 90 3e 60
        E 120 80 1a 00
        E 0 80 1f 00
        E 0 80 61 00
        E 0 80 62 00
        E 0 80 55 00
        E 0 80 56 00
        E 0 80 49 00
        E 0 80 4a 00
        E 0 80 3d 00
        E 0 80 3e 00
        E 360 90 1f 60
        E 0 90 62 60
        E 0 90 56 60
        E 0 90 4a 60
        E 120 80 1f 00
        E 0 80 62 00
        E 0 80 56 00
        E 0 80 4a 00
        E 120 90 18 60
        E 0 90 60 60
        E 0 90 54 60
        E 120 80 18 00
        E 0 80 60 00
        E 0 80 54 00
        E 120 90 18 60
        E 0 90 1f 60
        E 0 90 60 60
        E 0 90 62 60
        E 0 90 54 60
        E 0 90 56 60
        E 0 90 48 60
        E 0 90 4a 60
        E 0 90 3e 60
        E 120 80 18 00
        E 0 80 1f 00
        E 0 80 60 00
        E 0 80 62 00
        E 0 80 54 00
        E 0 80 56 00
        E 0 80 48 00
        E 0 80 4a 00
        E 0 80 3e 00
        E 120 90 1c 60
        E 0 90 61 60
        E 0 90 55 60
        E 120 80 1c 00
        E 0 80 61 00
        E 0 80 55 00
        E 120 90 18 60
        E 0 90 1f 60
        E 0 90 60 60
        E 0 90 62 60
        E 0 90 54 60
        E 0 90 56 60
        E 0 90 48 60
        E 0 90 4a 60
        E 120 80 18 00
        E 0 80 1f 00
        E 0 80 60 00
        E 0 80 62 00
        E 0 80 54 00
        E 0 80 56 00
        E 0 80 48 00
        E 0 80 4a 00
        E 120 90 18 60
        E 0 90 60 60
        E 0 90 54 60
        E 120 80 18 00
        E 0 80 60 00
        E 0 80 54 00
        E 120 90 1a 60
        E 0 90 1f 60
        E 0 90 61 60
        E 0 90 62 60
        E 0 90 55 60
        E 0 90 56 60
        E 0 90 49 60
        E 0 90 4a 60
        E 0 90 3d 60
        E 0 90 3e 60
        E 120 80 1a 00
        E 0 80 1f 00
        E 0 80 61 00
        E 0 80 62 00
        E 0 80 55 00
        E 0 80 56 00
        E 0 80 49 00
        E 0 80 4a 00
        E 0 80 3d 00
        E 0 80 3e 00
        E 360 90 1f 60
        E 0 90 62 60
        E 0 90 56 60
        E 0 90 4a 60
        E 120 80 1f 00
        E 0 80 62 00
        E 0 80 56 00
        E 0 80 4a 00
        E 120 90 19 60
        E 0 90 1c 60
        E 0 90 61 60
        E 0 90 55 60
        E 120 80 1c 00
        E 0 80 61 00
        E 0 80 55 00
        E 0 90 1c 60
        E 0 90 61 60
        E 120 80 19 00
        E 0 80 1c 00
        E 0 80 61 00
        E 0 90 1b 60
        E 0 90 61 60
        E 0 90 55 60
        E 0 90 49 60
        E 0 90 3d 60
        E 120 80 1b 00
        E 0 80 61 00
        E 0 80 55 00
        E 0 80 49 00
        E 0 80 3d 00
        E 120 90 19 60
        E 0 90 1a 60
        E 0 90 61 60
        E 0 90 55 60
        E 120 80 1a 00
        E 0 80 61 00
        E 0 80 55 00
        E 120 80 19 00
        E 0 90 2f 60
        E 0 90 63 60
        E 0 90 57 60
        E 0 90 4b 60
        E 0 90 6f 60
        E 120 80 2f 00
        E 0 80 63 00
        E 0 80 57 00
        E 0 80 4b 00
        E 0 80 6f 00
        E 120 90 19 60
        E 0 90 1c 60
        E 0 90 61 60
        E 0 90 55 60
        E 120 80 1c 00
        E 0 80 61 00
        E 0 80 55 00
        E 120 80 19 00
        E 0 90 1c 60
        E 0 90 61 60
        E 0 90 55 60
        E 0 90 49 60
        E 0 90 3d 60
        E 120 80 1c 00
        E 0 80 61 00
        E 0 80 55 00
        E 0 80 49 00
        E 0 80 3d 00
        E 120 90 19 60
        E 0 90 2f 60
        E 0 90 63 60
        E 0 90 57 60
        E 0 90 6f 60
        E 120 80 2f 00
        E 0 80 63 00
        E 0 80 57 00
        E 0 80 6f 00
        E 120 80 19 00
        E 0 90 1c 60
        E 0 90 61 60
        E 0 90 55 60
        E 0 90 49 60
        E 120 80 1c 00
        E 0 80 61 00
        E 0 80 55 00
        E 0 80 49 00
        E 120 90 19 60
        E 0 90 2f 60
        E 0 90 63 60
        E 0 90 57 60
        E 0 90 6f 60
        E 120 80 2f 00
        E 0 80 63 00
        E 0 80 57 00
        E 0 80 6f 00
        E 120 80 19 00
        E 0 90 1a 60
        E 0 90 61 60
        E 0 90 78 60
        E 0 90 79 60
        E 0 90 7a 60
        E 0 90 7b 60
        E 0 90 7c 60
        E 0 90 55 60
        E 0 90 49 60
        E 0 90 3d 60
        E 120 80 1a 00
        E 0 80 61 00
        E 0 80 55 00
        E 0 80 49 00
        E 0 80 3d 00
        E 120 90 19 60
        E 0 90 1c 60
        E 0 90 61 60
        E 0 90 55 60
        E 120 80 1c 00
        E 0 80 61 00
        E 0 80 55 00
        E 120 80 19 00
        E 0 90 2f 60
        E 0 90 63 60
        E 0 90 57 60
        E 0 90 4b 60
        E 0 90 6f 60
        E 120 80 2f 00
        E 0 80 63 00
        E 0 80 57 00
        E 0 80 4b 00
        E 0 80 6f 00
        E 120 90 19 60
        E 0 90 1a 60
        E 0 90 61 60
        E 0 90 55 60
        E 120 80 1a 00
        E 0 80 61 00
        E 0 80 55 00
        E 120 80 19 00
        E 0 90 1d 60
        E 0 90 62 60
        E 0 90 56 60
        E 0 90 4a 60
        E 0 90 6e 60
        E 0 90 3e 60
        E 120 80 1d 00
        E 0 80 62 00
        E 0 80 56 00
        E 0 80 4a 00
        E 0 80 6e 00
        E 0 80 3e 00
        E 120 90 19 60
        E 0 90 1a 60
        E 0 90 61 60
        E 0 90 55 60
        E 120 80 1a 00
        E 0 80 61 00
        E 0 80 55 00
        E 120 80 19 00
        E 0 90 1b 60
        E 0 90 61 60
        E 0 90 55 60
        E 0 90 49 60
        E 120 80 1b 00
        E 0 80 61 00
        E 0 80 55 00
        E 0 80 49 00
        E 120 90 18 60
        E 0 90 60 60
        E 0 90 54 60
        E 120 80 18 00
        E 0 80 60 00
        E 0 80 54 00
        E 120 80 78 00
        E 0 80 79 00
        E 0 80 7a 00
        E 0 80 7b 00
        E 0 80 7c 00
        E 0 90 18 60
        E 0 90 24 60
        E 0 90 60 60
        E 0 90 64 60
        E 0 90 54 60
        E 0 90 58 60
        E 0 90 48 60
        E 0 90 4c 60
        E 0 90 40 60
        E 120 80 18 00
        E 0 80 24 00
        E 0 80 60 00
        E 0 80 64 00
        E 0 80 54 00
        E 0 80 58 00
        E 0 80 48 00
        E 0 80 4c 00
        E 0 80 40 00
        E 360 90 1f 60
        E 0 90 62 60
        E 0 90 56 60
        E 0 90 4a 60
        E 120 80 1f 00
        E 0 80 62 00
        E 0 80 56 00
        E 0 80 4a 00
        E 360 90 1a 60
        E 0 90 1f 60
        E 0 90 61 60
        E 0 90 62 60
        E 0 90 55 60
        E 0 90 56 60
        E 0 90 49 60
        E 0 90 4a 60
        E 0 90 3d 60
        E 0 90 3e 60
        E 120 80 1a 00
        E 0 80 1f 00
        E 0 80 61 00
        E 0 80 62 00
        E 0 80 55 00
        E 0 80 56 00
        E 0 80 49 00
        E 0 80 4a 00
        E 0 80 3d 00
        E 0 80 3e 00
        E 360 90 1f 60
        E 0 90 62 60
        E 0 90 56 60
        E 0 90 4a 60
        E 120 80 1f 00
        E 0 80 62 00
        E 0 80 56 00
        E 0 80 4a 00
        E 120 90 18 60
        E 0 90 60 60
        E 0 90 54 60
        E 120 80 18 00
        E 0 80 60 00
        E 0 80 54 00
        E 120 90 1f 60
        E 0 90 62 60
        E 0 90 56 60
        E 0 90 4a 60
        E 0 90 3e 60
        E 120 80 1f 00
        E 0 80 62 00
        E 0 80 56 00
        E 0 80 4a 00
        E 0 80 3e 00
        E 120 90 18 60
        E 0 90 60 60
        E 0 90 54 60
        E 120 80 18 00
        E 0 80 60 00
        E 0 80 54 00
        E 120 90 18 60
        E 0 90 1f 60
        E 0 90 60 60
        E 0 90 62 60
        E 0 90 54 60
        E 0 90 56 60
        E 0 90 48 60
        E 0 90 4a 60
        E 120 80 18 00
        E 0 80 1f 00
        E 0 80 60 00
        E 0 80 62 00
        E 0 80 54 00
        E 0 80 56 00
        E 0 80 48 00
        E 0 80 4a 00
        E 360 90 1a 60
        E 0 90 1f 60
        E 0 90 61 60
        E 0 90 62 60
        E 0 90 55 60
        E 0 90 56 60
        E 0 90 49 60
        E 0 90 4a 60
        E 0 90 3d 60
        E 0 90 3e 60
        E 120 80 1a 00
        E 0 80 1f 00
        E 0 80 61 00
        E 0 80 62 00
        E 0 80 55 00
        E 0 80 56 00
        E 0 80 49 00
        E 0 80 4a 00
        E 0 80 3d 00
        E 0 80 3e 00
        E 360 90 1f 60
        E 0 90 62 60
        E 0 90 56 60
        E 0 90 4a 60
        E 120 80 1f 00
        E 0 80 62 00
        E 0 80 56 00
        E 0 80 4a 00
        E 120 90 1c 60
        E 0 90 61 60
        E 0 90 55 60
        E 120 80 1c 00
        E 0 80 61 00
        E 0 80 55 00
        E 120 90 2f 60
        E 0 90 63 60
        E 0 90 57 60
        E 0 90 4b 60
        E 0 90 6f 60
        E 0 90 3f 60
        E 120 80 2f 00
        E 0 80 63 00
        E 0 80 57 00
        E 0 80 4b 00
        E 0 80 6f 00
        E 0 80 3f 00
        E 120 90 19 60
        E 0 90 1c 60
        E 0 90 61 60
        E 0 90 55 60
        E 120 80 1c 00
        E 0 80 61 00
        E 0 80 55 00
        E 0 90 1c 60
        E 0 90 61 60
        E 120 80 19 00
        E 0 80 1c 00
        E 0 80 61 00
        E 0 90 1b 60
        E 0 90 61 60
        E 0 90 55 60
        E 0 90 49 60
        E 120 80 1b 00
        E 0 80 61 00
        E 0 80 55 00
        E 0 80 49 00
        E 120 90 19 60
        E 0 90 1a 60
        E 0 90 61 60
        E 0 90 55 60
        E 120 80 1a 00
        E 0 80 61 00
        E 0 80 55 00
        E 120 80 19 00
        E 0 90 1d 60
        E 0 90 61 60
        E 0 90 55 60
        E 0 90 49 60
        E 0 90 3d 60
        E 120 80 1d 00
        E 0 80 61 00
        E 0 80 55 00
        E 0 80 49 00
        E 0 80 3d 00
        E 120 90 19 60
        E 0 90 1a 60
        E 0 90 61 60
        E 0 90 55 60
        E 120 80 1a 00
        E 0 80 61 00
        E 0 80 55 00
        E 120 80 19 00
        E 0 90 1c 60
        E 0 90 61 60
        E 0 90 55 60
        E 0 90 49 60
        E 120 80 1c 00
        E 0 80 61 00
        E 0 80 55 00
        E 0 80 49 00
        E 120 90 19 60
        E 0 90 2f 60
        E 0 90 63 60
        E 0 90 57 60
        E 0 90 6f 60
        E 120 80 2f 00
        E 0 80 63 00
        E 0 80 57 00
        E 0 80 6f 00
        E 120 80 19 00
        E 0 90 1c 60
        E 0 90 61 60
        E 0 90 78 60
        E 0 90 79 60
        E 0 90 7a 60
        E 0 90 7b 60
        E 0 90 7c 60
        E 0 90 55 60
        E 0 90 49 60
        E 0 90 3d 60
        E 120 80 1c 00
        E 0 80 61 00
        E 0 80 55 00
        E 0 80 49 00
        E 0 80 3d 00
        E 120 90 19 60
        E 0 90 1c 60
        E 0 90 61 60
        E 0 90 55 60
        E 120 80 1c 00
        E 0 80 61 00
        E 0 80 55 00
        E 120 80 19 00
        E 0 90 1b 60
        E 0 90 61 60
        E 0 90 55 60
        E 0 90 49 60
        E 120 80 1b 00
        E 0 80 61 00
        E 0 80 55 00
        E 0 80 49 00
        E 120 90 19 60
        E 0 90 1c 60
        E 0 90 61 60
        E 0 90 55 60
        E 120 80 1c 00
        E 0 80 61 00
        E 0 80 55 00
        E 120 80 19 00
        E 0 90 1b 60
        E 0 90 61 60
        E 0 90 55 60
        E 0 90 49 60
        E 0 90 3d 60
        E 120 80 1b 00
        E 0 80 61 00
        E 0 80 55 00
        E 0 80 49 00
        E 0 80 3d 00
        E 120 90 18 60
        E 0 90 19 60
        E 0 90 60 60
        E 0 90 54 60
        E 120 80 18 00
        E 0 80 60 00
        E 0 80 54 00
        E 120 80 19 00
        E 0 90 1f 60
        E 0 90 62 60
        E 0 90 56 60
        E 0 90 4a 60
        E 120 80 1f 00
        E 0 80 62 00
        E 0 80 56 00
        E 0 80 4a 00
        E 120 90 18 60
        E 0 90 19 60
        E 0 90 60 60
        E 0 90 54 60
        E 120 80 18 00
        E 0 80 60 00
        E 0 80 54 00
        E 120 80 78 00
        E 0 80 79 00
        E 0 80 7a 00
        E 0 80 7b 00
        E 0 80 7c 00
        E 0 80 19 00
        E 0 90 18 60
        E 0 90 24 60
        E 0 90 60 60
        E 0 90 64 60
        E 0 90 54 60
        E 0 90 58 60
        E 0 90 48 60
        E 0 90 4c 60
        E 0 90 40 60
        E 120 80 18 00
        E 0 80 24 00
        E 0 80 60 00
        E 0 80 64 00
        E 0 80 54 00
        E 0 80 58 00
        E 0 80 48 00
        E 0 80 4c 00
        E 0 80 40 00
        E 360 90 1f 60
        E 0 90 62 60
        E 0 90 56 60
        E 0 90 4a 60
        E 120 80 1f 00
        E 0 80 62 00
        E 0 80 56 00
        E 0 80 4a 00
        E 360 90 1a 60
        E 0 90 1f 60
        E 0 90 61 60
        E 0 90 62 60
        E 0 90 55 60
        E 0 90 56 60
        E 0 90 49 60
        E 0 90 4a 60
        E 0 90 3d 60
        E 0 90 3e 60
        E 120 80 1a 00
        E 0 80 1f 00
        E 0 80 61 00
        E 0 80 62 00
        E 0 80 55 00
        E 0 80 56 00
        E 0 80 49 00
        E 0 80 4a 00
        E 0 80 3d 00
        E 0 80 3e 00
        E 360 90 1f 60
        E 0 90 62 60
        E 0 90 56 60
        E 0 90 4a 60
        E 120 80 1f 00
        E 0 80 62 00
        E 0 80 56 00
        E 0 80 4a 00
        E 120 90 18 60
        E 0 90 60 60
        E 0 90 54 60
        E 120 80 18 00
        E 0 80 60 00
        E 0 80 54 00
        E 120 90 18 60
        E 0 90 1f 60
        E 0 90 60 60
        E 0 90 62 60
        E 0 90 54 60
        E 0 90 56 60
        E 0 90 48 60
        E 0 90 4a 60
        E 0 90 3e 60
        E 120 80 18 00
        E 0 80 1f 00
        E 0 80 60 00
        E 0 80 62 00
        E 0 80 54 00
        E 0 80 56 00
        E 0 80 48 00
        E 0 80 4a 00
        E 0 80 3e 00
        E 360 90 18 60
        E 0 90 1f 60
        E 0 90 60 60
        E 0 90 62 60
        E 0 90 54 60
        E 0 90 56 60
        E 0 90 48 60
        E 0 90 4a 60
        E 120 80 18 00
        E 0 80 1f 00
        E 0 80 60 00
        E 0 80 62 00
        E 0 80 54 00
        E 0 80 56 00
        E 0 80 48 00
        E 0 80 4a 00
        E 360 90 1a 60
        E 0 90 1f 60
        E 0 90 61 60
        E 0 90 62 60
        E 0 90 55 60
        E 0 90 56 60
        E 0 90 49 60
        E 0 90 4a 60
        E 0 90 3d 60
        E 0 90 3e 60
        E 120 80 1a 00
        E 0 80 1f 00
        E 0 80 61 00
        E 0 80 62 00
        E 0 80 55 00
        E 0 80 56 00
        E 0 80 49 00
        E 0 80 4a 00
        E 0 80 3d 00
        E 0 80 3e 00
        E 360 90 19 60
        E 0 90 1f 60
        E 0 90 63 60
        E 0 90 57 60
        E 0 90 4b 60
        E 120 80 1f 00
        E 0 80 63 00
        E 0 80 57 00
        E 0 80 4b 00
        E 120 90 1c 60
        E 0 90 61 60
        E 0 90 55 60
        E 120 80 1c 00
        E 0 80 61 00
        E 0 80 55 00
        E 120 80 19 00
        E 0 90 2f 60
        E 0 90 63 60
        E 0 90 57 60
        E 0 90 4b 60
        E 0 90 6f 60
        E 0 90 3f 60
        E 120 80 2f 00
        E 0 80 63 00
        E 0 80 57 00
        E 0 80 4b 00
        E 0 80 6f 00
        E 0 80 3f 00
        E 120 90 19 60
        E 0 90 1c 60
        E 0 90 61 60
        E 0 90 55 60
        E 120 80 1c 00
        E 0 80 61 00
        E 0 80 55 00
        E 120 80 19 00
        E 0 90 1d 60
        E 0 90 61 60
        E 0 90 55 60
        E 0 90 49 60
        E 120 80 1d 00
        E 0 80 61 00
        E 0 80 55 00
        E 0 80 49 00
        E 120 90 19 60
        E 0 90 1a 60
        E 0 90 61 60
        E 0 90 55 60
        E 120 80 1a 00
        E 0 80 61 00
        E 0 80 55 00
        E 120 80 19 00
        E 0 90 1c 60
        E 0 90 61 60
        E 0 90 55 60
        E 0 90 49 60
        E 0 90 3d 60
        E 120 80 1c 00
        E 0 80 61 00
        E 0 80 55 00
        E 0 80 49 00
        E 0 80 3d 00
        E 120 90 19 60
        E 0 90 2f 60
        E 0 90 63 60
        E 0 90 57 60
        E 0 90 6f 60
        E 120 80 2f 00
        E 0 80 63 00
        E 0 80 57 00
        E 0 80 6f 00
        E 120 80 19 00
        E 0 90 1c 60
        E 0 90 61 60
        E 0 90 55 60
        E 0 90 49 60
        E 120 80 1c 00
        E 0 80 61 00
        E 0 80 55 00
        E 0 80 49 00
        E 120 90 19 60
        E 0 90 2f 60
        E 0 90 63 60
        E 0 90 57 60
        E 0 90 6f 60
        E 120 80 2f 00
        E 0 80 63 00
        E 0 80 57 00
        E 0 80 6f 00
        E 120 80 19 00
        E 0 90 1a 60
        E 0 90 61 60
        E 0 90 78 60
        E 0 90 79 60
        E 0 90 7a 60
        E 0 90 7b 60
        E 0 90 7c 60
        E 0 90 55 60
        E 0 90 49 60
        E 0 90 3d 60
        E 120 80 1a 00
        E 0 80 61 00
        E 0 80 55 00
        E 0 80 49 00
        E 0 80 3d 00
        E 120 90 19 60
        E 0 90 1a 60
        E 0 90 61 60
        E 0 90 55 60
        E 120 80 1a 00
        E 0 80 61 00
        E 0 80 55 00
        E 120 80 19 00
        E 0 90 1b 60
        E 0 90 61 60
        E 0 90 55 60
        E 0 90 49 60
        E 120 80 1b 00
        E 0 80 61 00
        E 0 80 55 00
        E 0 80 49 00
        E 120 90 19 60
        E 0 90 1a 60
        E 0 90 61 60
        E 0 90 55 60
        E 120 80 1a 00
        E 0 80 61 00
        E 0 80 55 00
        E 120 80 19 00
        E 0 90 1b 60
        E 0 90 61 60
        E 0 90 55 60
        E 0 90 49 60
        E 0 90 3d 60
        E 120 80 1b 00
        E 0 80 61 00
        E 0 80 55 00
        E 0 80 49 00
        E 0 80 3d 00
        E 120 90 18 60
        E 0 90 19 60
        E 0 90 60 60
        E 0 90 54 60
        E 120 80 18 00
        E 0 80 60 00
        E 0 80 54 00
        E 120 80 19 00
        E 0 90 1f 60
        E 0 90 62 60
        E 0 90 56 60
        E 0 90 4a 60
        E 120 80 1f 00
        E 0 80 62 00
        E 0 80 56 00
        E 0 80 4a 00
        E 120 90 18 60
        E 0 90 60 60
        E 0 90 54 60
        E 120 80 18 00
        E 0 80 60 00
        E 0 80 54 00
        E 120 80 78 00
        E 0 80 79 00
        E 0 80 7a 00
        E 0 80 7b 00
        E 0 80 7c 00
        E 0 90 18 60
        E 0 90 24 60
        E 0 90 60 60
        E 0 90 64 60
        E 0 90 54 60
        E 0 90 58 60
        E 0 90 48 60
        E 0 90 4c 60
        E 0 90 40 60
        E 120 80 18 00
        E 0 80 24 00
        E 0 80 60 00
        E 0 80 64 00
        E 0 80 54 00
        E 0 80 58 00
        E 0 80 48 00
        E 0 80 4c 00
        E 0 80 40 00
        E 360 90 1f 60
        E 0 90 62 60
        E 0 90 56 60
        E 0 90 4a 60
        E 120 80 1f 00
        E 0 80 62 00
        E 0 80 56 00
        E 0 80 4a 00
        E 360 90 1a 60
        E 0 90 1f 60
        E 0 90 61 60
        E 0 90 62 60
        E 0 90 55 60
        E 0 90 56 60
        E 0 90 49 60
        E 0 90 4a 60
        E 0 90 3d 60
        E 0 90 3e 60
        E 120 80 1a 00
        E 0 80 1f 00
        E 0 80 61 00
        E 0 80 62 00
        E 0 80 55 00
        E 0 80 56 00
        E 0 80 49 00
        E 0 80 4a 00
        E 0 80 3d 00
        E 0 80 3e 00
        E 360 90 1f 60
        E 0 90 62 60
        E 0 90 56 60
        E 0 90 4a 60
        E 120 80 1f 00
        E 0 80 62 00
        E 0 80 56 00
        E 0 80 4a 00
        E 120 90 18 60
        E 0 90 60 60
        E 0 90 54 60
        E 120 80 18 00
        E 0 80 60 00
        E 0 80 54 00
        E 120 90 1f 60
        E 0 90 62 60
        E 0 90 56 60
        E 0 90 4a 60
        E 0 90 3e 60
        E 120 80 1f 00
        E 0 80 62 00
        E 0 80 56 00
        E 0 80 4a 00
        E 0 80 3e 00
        E 120 90 1c 60
        E 0 90 61 60
        E 0 90 55 60
        E 120 80 1c 00
        E 0 80 61 00
        E 0 80 55 00
        E 120 90 18 60
        E 0 90 1f 60
        E 0 90 60 60
        E 0 90 62 60
        E 0 90 54 60
        E 0 90 56 60
        E 0 90 48 60
        E 0 90 4a 60
        E 120 80 18 00
        E 0 80 1f 00
        E 0 80 60 00
        E 0 80 62 00
        E 0 80 54 00
        E 0 80 56 00
        E 0 80 48 00
        E 0 80 4a 00
        E 120 90 18 60
        E 0 90 60 60
        E 0 90 54 60
        E 120 80 18 00
        E 0 80 60 00
        E 0 80 54 00
        E 120 90 1a 60
        E 0 90 1f 60
        E 0 90 61 60
        E 0 90 62 60
        E 0 90 55 60
        E 0 90 56 60
        E 0 90 49 60
        E 0 90 4a 60
        E 0 90 3d 60
        E 0 90 3e 60
        E 120 80 1a 00
        E 0 80 1f 00
        E 0 80 61 00
        E 0 80 62 00
        E 0 80 55 00
        E 0 80 56 00
        E 0 80 49 00
        E 0 80 4a 00
        E 0 80 3d 00
        E 0 80 3e 00
        E 360 90 19 60
        E 0 90 1f 60
        E 0 90 63 60
        E 0 90 57 60
        E 0 90 4b 60
        E 120 80 1f 00
        E 0 80 63 00
        E 0 80 57 00
        E 0 80 4b 00
        E 120 90 1c 60
        E 0 90 61 60
        E 0 90 55 60
        E 120 80 1c 00
        E 0 80 61 00
        E 0 80 55 00
        E 0 90 1c 60
        E 0 90 61 60
        E 120 80 19 00
        E 0 80 1c 00
        E 0 80 61 00
        E 0 90 1b 60
        E 0 90 61 60
        E 0 90 55 60
        E 0 90 49 60
        E 0 90 3d 60
        E 120 80 1b 00
        E 0 80 61 00
        E 0 80 55 00
        E 0 80 49 00
        E 0 80 3d 00
        E 120 90 19 60
        E 0 90 1a 60
        E 0 90 61 60
        E 0 90 55 60
        E 120 80 1a 00
        E 0 80 61 00
        E 0 80 55 00
        E 120 80 19 00
        E 0 90 1a 60
        E 0 90 61 60
        E 0 90 55 60
        E 0 90 49 60
        E 120 80 1a 00
        E 0 80 61 00
        E 0 80 55 00
        E 0 80 49 00
        E 120 90 19 60
        E 0 90 2f 60
        E 0 90 63 60
        E 0 90 57 60
        E 0 90 6f 60
        E 120 80 2f 00
        E 0 80 63 00
        E 0 80 57 00
        E 0 80 6f 00
        E 120 80 19 00
        E 0 90 1c 60
        E 0 90 61 60
        E 0 90 55 60
        E 0 90 49 60
        E 0 90 3d 60
        E 120 80 1c 00
        E 0 80 61 00
        E 0 80 55 00
        E 0 80 49 00
        E 0 80 3d 00
        E 120 90 19 60
        E 0 90 2f 60
        E 0 90 63 60
        E 0 90 57 60
        E 0 90 6f 60
        E 120 80 2f 00
        E 0 80 63 00
        E 0 80 57 00
        E 0 80 6f 00
        E 120 80 19 00
        E 0 90 1c 60
        E 0 90 61 60
        E 0 90 55 60
        E 0 90 49 60
        E 120 80 1c 00
        E 0 80 61 00
        E 0 80 55 00
        E 0 80 49 00
        E 120 90 19 60
        E 0 90 1c 60
        E 0 90 61 60
        E 0 90 55 60
        E 120 80 1c 00
        E 0 80 61 00
        E 0 80 55 00
        E 120 80 19 00
        E 0 90 1b 60
        E 0 90 61 60
        E 0 90 78 60
        E 0 90 79 60
        E 0 90 7a 60
        E 0 90 7b 60
        E 0 90 7c 60
        E 0 90 55 60
        E 0 90 49 60
        E 0 90 3d 60
        E 120 80 1b 00
        E 0 80 61 00
        E 0 80 55 00
        E 0 80 49 00
        E 0 80 3d 00
        E 120 90 19 60
        E 0 90 1a 60
        E 0 90 61 60
        E 0 90 55 60
        E 120 80 1a 00
        E 0 80 61 00
        E 0 80 55 00
        E 120 80 19 00
        E 0 90 2f 60
        E 0 90 63 60
        E 0 90 57 60
        E 0 90 4b 60
        E 0 90 6f 60
        E 120 80 2f 00
        E 0 80 63 00
        E 0 80 57 00
        E 0 80 4b 00
        E 0 80 6f 00
        E 120 90 19 60
        E 0 90 1c 60
        E 0 90 61 60
        E 0 90 55 60
        E 120 80 1c 00
        E 0 80 61 00
        E 0 80 55 00
        E 120 80 19 00
        E 0 90 1b 60
        E 0 90 61 60
        E 0 90 55 60
        E 0 90 49 60
        E 0 90 3d 60
        E 120 80 1b 00
        E 0 80 61 00
        E 0 80 55 00
        E 0 80 49 00
        E 0 80 3d 00
        E 120 90 19 60
        E 0 90 1a 60
        E 0 90 61 60
        E 0 90 55 60
        E 120 80 1a 00
        E 0 80 61 00
        E 0 80 55 00
        E 120 80 19 00
        E 0 90 1f 60
        E 0 90 62 60
        E 0 90 56 60
        E 0 90 4a 60
        E 120 80 1f 00
        E 0 80 62 00
        E 0 80 56 00
        E 0 80 4a 00
        E 360 80 78 00
        E 0 80 79 00
        E 0 80 7a 00
        E 0 80 7b 00
        E 0 80 7c 00
        E 0 90 18 60
        E 0 90 24 60
        E 0 90 60 60
        E 0 90 64 60
        E 0 90 74 64
        E 0 90 54 60
        E 0 90 58 60
        E 0 90 48 60
        E 0 90 4c 60
        E 0 90 40 60
        E 120 80 18 00
        E 0 80 24 00
        E 0 80 60 00
        E 0 80 64 00
        E 0 80 54 00
        E 0 80 58 00
        E 0 80 48 00
        E 0 80 4c 00
        E 0 80 40 00
        E 360 90 1f 60
        E 0 90 62 60
        E 0 90 56 60
        E 0 90 4a 60
        E 120 80 1f 00
        E 0 80 62 00
        E 0 80 56 00
        E 0 80 4a 00
        E 120 90 18 60
        E 0 90 60 60
        E 0 90 54 60
        E 120 80 18 00
        E 0 80 60 00
        E 0 80 54 00
        E 120 90 1a 60
        E 0 90 1f 60
        E 0 90 61 60
        E 0 90 62 60
        E 0 90 55 60
        E 0 90 56 60
        E 0 90 49 60
        E 0 90 4a 60
        E 0 90 3d 60
        E 0 90 3e 60
        E 120 80 1a 00
        E 0 80 1f 00
        E 0 80 61 00
        E 0 80 62 00
        E 0 80 55 00
        E 0 80 56 00
        E 0 80 49 00
        E 0 80 4a 00
        E 0 80 3d 00
        E 0 80 3e 00
        E 360 90 1f 60
        E 0 90 62 60
        E 0 90 56 60
        E 0 90 4a 60
        E 120 80 1f 00
        E 0 80 62 00
        E 0 80 56 00
        E 0 80 4a 00
        E 120 90 18 60
        E 0 90 60 60
        E 0 90 54 60
        E 120 80 18 00
        E 0 80 60 00
        E 0 80 54 00
        E 120 90 18 60
        E 0 90 1f 60
        E 0 90 60 60
        E 0 90 62 60
        E 0 90 54 60
        E 0 90 56 60
        E 0 90 48 60
        E 0 90 4a 60
        E 0 90 3e 60
        E 120 80 18 00
        E 0 80 1f 00
        E 0 80 60 00
        E 0 80 62 00
        E 0 80 54 00
        E 0 80 56 00
        E 0 80 48 00
        E 0 80 4a 00
        E 0 80 3e 00
        E 120 90 1c 60
        E 0 90 61 60
        E 0 90 55 60
        E 120 80 1c 00
        E 0 80 61 00
        E 0 80 55 00
        E 120 90 18 60
        E 0 90 1f 60
        E 0 90 60 60
        E 0 90 62 60
        E 0 90 54 60
        E 0 90 56 60
        E 0 90 48 60
        E 0 90 4a 60
        E 120 80 18 00
        E 0 80 1f 00
        E 0 80 60 00
        E 0 80 62 00
        E 0 80 54 00
        E 0 80 56 00
        E 0 80 48 00
        E 0 80 4a 00
        E 120 90 18 60
        E 0 90 60 60
        E 0 90 54 60
        E 120 80 18 00
        E 0 80 60 00
        E 0 80 54 00
        E 120 90 1a 60
        E 0 90 1f 60
        E 0 90 61 60
        E 0 90 62 60
        E 0 90 55 60
        E 0 90 56 60
        E 0 90 49 60
        E 0 90 4a 60
        E 0 90 3d 60
        E 0 90 3e 60
        E 120 80 1a 00
        E 0 80 1f 00
        E 0 80 61 00
        E 0 80 62 00
        E 0 80 55 00
        E 0 80 56 00
        E 0 80 49 00
        E 0 80 4a 00
        E 0 80 3d 00
        E 0 80 3e 00
        E 360 90 1f 60
        E 0 90 62 60
        E 0 90 56 60
        E 0 90 4a 60
        E 120 80 1f 00
        E 0 80 62 00
        E 0 80 56 00
        E 0 80 4a 00
        E 120 90 19 60
        E 0 90 1c 60
        E 0 90 61 60
        E 0 90 55 60
        E 120 80 1c 00
        E 0 80 61 00
        E 0 80 55 00
        E 0 90 1c 60
        E 0 90 61 60
        E 120 80 19 00
        E 0 80 1c 00
        E 0 80 61 00
        E 0 90 1b 60
        E 0 90 61 60
        E 0 90 55 60
        E 0 90 49 60
        E 0 90 3d 60
        E 120 80 74 00
        E 0 80 1b 00
        E 0 80 61 00
        E 0 80 55 00
        E 0 80 49 00
        E 0 80 3d 00
        E 120 90 19 60
        E 0 90 1a 60
        E 0 90 61 60
        E 0 90 55 60
        E 120 80 1a 00
        E 0 80 61 00
        E 0 80 55 00
        E 120 80 19 00
        E 0 90 2f 60
        E 0 90 63 60
        E 0 90 57 60
        E 0 90 4b 60
        E 0 90 6f 60
        E 120 80 2f 00
        E 0 80 63 00
        E 0 80 57 00
        E 0 80 4b 00
        E 0 80 6f 00
        E 120 90 19 60
        E 0 90 1c 60
        E 0 90 61 60
        E 0 90 55 60
        E 120 80 1c 00
        E 0 80 61 00
        E 0 80 55 00
        E 120 80 19 00
        E 0 90 1c 60
        E 0 90 61 60
        E 0 90 55 60
        E 0 90 49 60
        E 0 90 3d 60
        E 120 80 1c 00
        E 0 80 61 00
        E 0 80 55 00
        E 0 80 49 00
        E 0 80 3d 00
        E 120 90 19 60
        E 0 90 2f 60
        E 0 90 63 60
        E 0 90 57 60
        E 0 90 6f 60
        E 120 80 2f 00
        E 0 80 63 00
        E 0 80 57 00
        E 0 80 6f 00
        E 120 80 19 00
        E 0 90 1c 60
        E 0 90 61 60
        E 0 90 55 60
        E 0 90 49 60
        E 120 80 1c 00
        E 0 80 61 00
        E 0 80 55 00
        E 0 80 49 00
        E 120 90 19 60
        E 0 90 2f 60
        E 0 90 63 60
        E 0 90 57 60
        E 0 90 6f 60
        E 120 80 2f 00
        E 0 80 63 00
        E 0 80 57 00
        E 0 80 6f 00
        E 120 80 19 00
        E 0 90 1a 60
        E 0 90 61 60
        E 0 90 78 60
        E 0 90 79 60
        E 0 90 7a 60
        E 0 90 7b 60
        E 0 90 7c 60
        E 0 90 55 60
        E 0 90 49 60
        E 0 90 3d 60
        E 120 80 1a 00
        E 0 80 61 00
        E 0 80 55 00
        E 0 80 49 00
        E 0 80 3d 00
        E 120 90 19 60
        E 0 90 1c 60
        E 0 90 61 60
        E 0 90 55 60
        E 120 80 1c 00
        E 0 80 61 00
        E 0 80 55 00
        E 120 80 19 00
        E 0 90 2f 60
        E 0 90 63 60
        E 0 90 57 60
        E 0 90 4b 60
        E 0 90 6f 60
        E 120 80 2f 00
        E 0 80 63 00
        E 0 80 57 00
        E 0 80 4b 00
        E 0 80 6f 00
        E 120 90 19 60
        E 0 90 1a 60
        E 0 90 61 60
        E 0 90 55 60
        E 120 80 1a 00
        E 0 80 61 00
        E 0 80 55 00
        E 120 80 19 00
        E 0 90 1d 60
        E 0 90 62 60
        E 0 90 56 60
        E 0 90 4a 60
        E 0 90 6e 60
        E 0 90 3e 60
        E 120 80 1d 00
        E 0 80 62 00
        E 0 80 56 00
        E 0 80 4a 00
        E 0 80 6e 00
        E 0 80 3e 00
        E 120 90 19 60
        E 0 90 1a 60
        E 0 90 61 60
        E 0 90 55 60
        E 120 80 1a 00
        E 0 80 61 00
        E 0 80 55 00
        E 120 80 19 00
        E 0 90 1b 60
        E 0 90 61 60
        E 0 90 55 60
        E 0 90 49 60
        E 120 80 1b 00
        E 0 80 61 00
        E 0 80 55 00
        E 0 80 49 00
        E 120 90 18 60
        E 0 90 60 60
        E 0 90 54 60
        E 120 80 18 00
        E 0 80 60 00
        E 0 80 54 00
        E 120 80 78 00
        E 0 80 79 00
        E 0 80 7a 00
        E 0 80 7b 00
        E 0 80 7c 00
        E 0 90 18 60
        E 0 90 24 60
        E 0 90 60 60
        E 0 90 64 60
        E 0 90 54 60
        E 0 90 58 60
        E 0 90 48 60
        E 0 90 4c 60
        E 0 90 40 60
        E 120 80 18 00
        E 0 80 24 00
        E 0 80 60 00
        E 0 80 64 00
        E 0 80 54 00
        E 0 80 58 00
        E 0 80 48 00
        E 0 80 4c 00
        E 0 80 40 00
        E 360 90 1f 60
        E 0 90 62 60
        E 0 90 56 60
        E 0 90 4a 60
        E 120 80 1f 00
        E 0 80 62 00
        E 0 80 56 00
        E 0 80 4a 00
        E 360 90 1a 60
        E 0 90 1f 60
        E 0 90 61 60
        E 0 90 62 60
        E 0 90 55 60
        E 0 90 56 60
        E 0 90 49 60
        E 0 90 4a 60
        E 0 90 3d 60
        E 0 90 3e 60
        E 120 80 1a 00
        E 0 80 1f 00
        E 0 80 61 00
        E 0 80 62 00
        E 0 80 55 00
        E 0 80 56 00
        E 0 80 49 00
        E 0 80 4a 00
        E 0 80 3d 00
        E 0 80 3e 00
        E 360 90 1f 60
        E 0 90 62 60
        E 0 90 56 60
        E 0 90 4a 60
        E 120 80 1f 00
        E 0 80 62 00
        E 0 80 56 00
        E 0 80 4a 00
        E 120 90 18 60
        E 0 90 60 60
        E 0 90 54 60
        E 120 80 18 00
        E 0 80 60 00
        E 0 80 54 00
        E 120 90 1f 60
        E 0 90 62 60
        E 0 90 56 60
        E 0 90 4a 60
        E 0 90 3e 60
        E 120 80 1f 00
        E 0 80 62 00
        E 0 80 56 00
        E 0 80 4a 00
        E 0 80 3e 00
        E 120 90 18 60
        E 0 90 60 60
        E 0 90 54 60
        E 120 80 18 00
        E 0 80 60 00
        E 0 80 54 00
        E 120 90 18 60
        E 0 90 1f 60
        E 0 90 60 60
        E 0 90 62 60
        E 0 90 54 60
        E 0 90 56 60
        E 0 90 48 60
        E 0 90 4a 60
        E 120 80 18 00
        E 0 80 1f 00
        E 0 80 60 00
        E 0 80 62 00
        E 0 80 54 00
        E 0 80 56 00
        E 0 80 48 00
        E 0 80 4a 00
        E 360 90 1a 60
        E 0 90 1f 60
        E 0 90 61 60
        E 0 90 62 60
        E 0 90 55 60
        E 0 90 56 60
        E 0 90 49 60
        E 0 90 4a 60
        E 0 90 3d 60
        E 0 90 3e 60
        E 120 80 1a 00
        E 0 80 1f 00
        E 0 80 61 00
        E 0 80 62 00
        E 0 80 55 00
        E 0 80 56 00
        E 0 80 49 00
        E 0 80 4a 00
        E 0 80 3d 00
        E 0 80 3e 00
        E 360 90 1f 60
        E 0 90 62 60
        E 0 90 56 60
        E 0 90 4a 60
        E 120 80 1f 00
        E 0 80 62 00
        E 0 80 56 00
        E 0 80 4a 00
        E 120 90 1c 60
        E 0 90 61 60
        E 0 90 55 60
        E 120 80 1c 00
        E 0 80 61 00
        E 0 80 55 00
        E 120 90 2f 60
        E 0 90 63 60
        E 0 90 57 60
        E 0 90 4b 60
        E 0 90 6f 60
        E 0 90 3f 60
        E 120 80 2f 00
        E 0 80 63 00
        E 0 80 57 00
        E 0 80 4b 00
        E 0 80 6f 00
        E 0 80 3f 00
        E 120 90 19 60
        E 0 90 1c 60
        E 0 90 61 60
        E 0 90 55 60
        E 120 80 1c 00
        E 0 80 61 00
        E 0 80 55 00
        E 0 90 1c 60
        E 0 90 61 60
        E 120 80 19 00
        E 0 80 1c 00
        E 0 80 61 00
        E 0 90 1b 60
        E 0 90 61 60
        E 0 90 55 60
        E 0 90 49 60
        E 120 80 1b 00
        E 0 80 61 00
        E 0 80 55 00
        E 0 80 49 00
        E 120 90 19 60
        E 0 90 1a 60
        E 0 90 61 60
        E 0 90 55 60
        E 120 80 1a 00
        E 0 80 61 00
        E 0 80 55 00
        E 120 80 19 00
        E 0 90 1d 60
        E 0 90 61 60
        E 0 90 55 60
        E 0 90 49 60
        E 0 90 3d 60
        E 120 80 1d 00
        E 0 80 61 00
        E 0 80 55 00
        E 0 80 49 00
        E 0 80 3d 00
        E 120 90 19 60
        E 0 90 1a 60
        E 0 90 61 60
        E 0 90 55 60
        E 120 80 1a 00
        E 0 80 61 00
        E 0 80 55 00
        E 120 80 19 00
        E 0 90 1c 60
        E 0 90 61 60
        E 0 90 55 60
        E 0 90 49 60
        E 120 80 1c 00
        E 0 80 61 00
        E 0 80 55 00
        E 0 80 49 00
        E 120 90 19 60
        E 0 90 2f 60
        E 0 90 63 60
        E 0 90 57 60
        E 0 90 6f 60
        E 120 80 2f 00
        E 0 80 63 00
        E 0 80 57 00
        E 0 80 6f 00
        E 120 80 19 00
        E 0 90 1c 60
        E 0 90 61 60
        E 0 90 78 60
        E 0 90 79 60
        E 0 90 7a 60
        E 0 90 7b 60
        E 0 90 7c 60
        E 0 90 55 60
        E 0 90 49 60
        E 0 90 3d 60
        E 120 80 1c 00
        E 0 80 61 00
        E 0 80 55 00
        E 0 80 49 00
        E 0 80 3d 00
        E 120 90 19 60
        E 0 90 1c 60
        E 0 90 61 60
        E 0 90 55 60
        E 120 80 1c 00
        E 0 80 61 00
        E 0 80 55 00
        E 120 80 19 00
        E 0 90 1b 60
        E 0 90 61 60
        E 0 90 55 60
        E 0 90 49 60
        E 120 80 1b 00
        E 0 80 61 00
        E 0 80 55 00
        E 0 80 49 00
        E 120 90 19 60
        E 0 90 1c 60
        E 0 90 61 60
        E 0 90 55 60
        E 120 80 1c 00
        E 0 80 61 00
        E 0 80 55 00
        E 120 80 19 00
        E 0 90 1b 60
        E 0 90 61 60
        E 0 90 55 60
        E 0 90 49 60
        E 0 90 3d 60
        E 120 80 1b 00
        E 0 80 61 00
        E 0 80 55 00
        E 0 80 49 00
        E 0 80 3d 00
        E 120 90 18 60
        E 0 90 19 60
        E 0 90 60 60
        E 0 90 54 60
        E 120 80 18 00
        E 0 80 60 00
        E 0 80 54 00
        E 120 80 19 00
        E 0 90 1f 60
        E 0 90 62 60
        E 0 90 56 60
        E 0 90 4a 60
        E 120 80 1f 00
        E 0 80 62 00
        E 0 80 56 00
        E 0 80 4a 00
        E 120 90 18 60
        E 0 90 19 60
        E 0 90 60 60
        E 0 90 54 60
        E 120 80 18 00
        E 0 80 60 00
        E 0 80 54 00
        E 120 80 78 00
        E 0 80 79 00
        E 0 80 7a 00
        E 0 80 7b 00
        E 0 80 7c 00
        E 0 80 19 00
        E 0 90 18 60
        E 0 90 24 60
        E 0 90 60 60
        E 0 90 64 60
        E 0 90 54 60
        E 0 90 58 60
        E 0 90 48 60
        E 0 90 4c 60
        E 0 90 40 60
        E 120 80 18 00
        E 0 80 24 00
        E 0 80 60 00
        E 0 80 64 00
        E 0 80 54 00
        E 0 80 58 00
        E 0 80 48 00
        E 0 80 4c 00
        E 0 80 40 00
        E 360 90 1f 60
        E 0 90 62 60
        E 0 90 56 60
        E 0 90 4a 60
        E 120 80 1f 00
        E 0 80 62 00
        E 0 80 56 00
        E 0 80 4a 00
        E 360 90 1a 60
        E 0 90 1f 60
        E 0 90 61 60
        E 0 90 62 60
        E 0 90 55 60
        E 0 90 56 60
        E 0 90 49 60
        E 0 90 4a 60
        E 0 90 3d 60
        E 0 90 3e 60
        E 120 80 1a 00
        E 0 80 1f 00
        E 0 80 61 00
        E 0 80 62 00
        E 0 80 55 00
        E 0 80 56 00
        E 0 80 49 00
        E 0 80 4a 00
        E 0 80 3d 00
        E 0 80 3e 00
        E 360 90 1f 60
        E 0 90 62 60
        E 0 90 56 60
        E 0 90 4a 60
        E 120 80 1f 00
        E 0 80 62 00
        E 0 80 56 00
        E 0 80 4a 00
        E 120 90 18 60
        E 0 90 60 60
        E 0 90 54 60
        E 120 80 18 00
        E 0 80 60 00
        E 0 80 54 00
        E 120 90 18 60
        E 0 90 1f 60
        E 0 90 60 60
        E 0 90 62 60
        E 0 90 54 60
        E 0 90 56 60
        E 0 90 48 60
        E 0 90 4a 60
        E 0 90 3e 60
        E 120 80 18 00
        E 0 80 1f 00
        E 0 80 60 00
        E 0 80 62 00
        E 0 80 54 00
        E 0 80 56 00
        E 0 80 48 00
        E 0 80 4a 00
        E 0 80 3e 00
        E 360 90 18 60
        E 0 90 1f 60
        E 0 90 60 60
        E 0 90 62 60
        E 0 90 54 60
        E 0 90 56 60
        E 0 90 48 60
        E 0 90 4a 60
        E 120 80 18 00
        E 0 80 1f 00
        E 0 80 60 00
        E 0 80 62 00
        E 0 80 54 00
        E 0 80 56 00
        E 0 80 48 00
        E 0 80 4a 00
        E 360 90 1a 60
        E 0 90 1f 60
        E 0 90 61 60
        E 0 90 62 60
        E 0 90 55 60
        E 0 90 56 60
        E 0 90 49 60
        E 0 90 4a 60
        E 0 90 3d 60
        E 0 90 3e 60
        E 120 80 1a 00
        E 0 80 1f 00
        E 0 80 61 00
        E 0 80 62 00
        E 0 80 55 00
        E 0 80 56 00
        E 0 80 49 00
        E 0 80 4a 00
        E 0 80 3d 00
        E 0 80 3e 00
        E 360 90 19 60
        E 0 90 1f 60
        E 0 90 63 60
        E 0 90 57 60
        E 0 90 4b 60
        E 120 80 1f 00
        E 0 80 63 00
        E 0 80 57 00
        E 0 80 4b 00
        E 120 90 1c 60
        E 0 90 61 60
        E 0 90 55 60
        E 120 80 1c 00
        E 0 80 61 00
        E 0 80 55 00
        E 120 80 19 00
        E 0 90 2f 60
        E 0 90 63 60
        E 0 90 74 60
        E 0 90 57 60
        E 0 90 4b 60
        E 0 90 6f 60
        E 0 90 3f 60
        E 120 80 2f 00
        E 0 80 63 00
        E 0 80 57 00
        E 0 80 4b 00
        E 0 80 6f 00
        E 0 80 3f 00
        E 120 90 19 60
        E 0 90 1c 60
        E 0 90 61 60
        E 0 90 55 60
        E 120 80 1c 00
        E 0 80 61 00
        E 0 80 55 00
        E 120 80 19 00
        E 0 90 1d 60
        E 0 90 61 60
        E 0 90 55 60
        E 0 90 49 60
        E 120 80 1d 00
        E 0 80 61 00
        E 0 80 55 00
        E 0 80 49 00
        E 120 90 19 60
        E 0 90 1a 60
        E 0 90 61 60
        E 0 90 55 60
        E 120 80 1a 00
        E 0 80 61 00
        E 0 80 55 00
        E 120 80 19 00
        E 0 90 1c 60
        E 0 90 61 60
        E 0 90 55 60
        E 0 90 49 60
        E 0 90 3d 60
        E 120 80 1c 00
        E 0 80 61 00
        E 0 80 55 00
        E 0 80 49 00
        E 0 80 3d 00
        E 120 90 19 60
        E 0 90 2f 60
        E 0 90 63 60
        E 0 90 57 60
        E 0 90 6f 60
        E 120 80 2f 00
        E 0 80 63 00
        E 0 80 57 00
        E 0 80 6f 00
        E 120 80 19 00
        E 0 90 1c 60
        E 0 90 61 60
        E 0 90 55 60
        E 0 90 49 60
        E 120 80 1c 00
        E 0 80 61 00
        E 0 80 55 00
        E 0 80 49 00
        E 120 90 19 60
        E 0 90 2f 60
        E 0 90 63 60
        E 0 90 57 60
        E 0 90 6f 60
        E 120 80 2f 00
        E 0 80 63 00
        E 0 80 57 00
        E 0 80 6f 00
        E 120 80 19 00
        E 0 90 1a 60
        E 0 90 61 60
        E 0 90 55 60
        E 0 90 49 60
        E 0 90 3d 60
        E 120 80 1a 00
        E 0 80 61 00
        E 0 80 55 00
        E 0 80 49 00
        E 0 80 3d 00
        E 120 90 19 60
        E 0 90 1a 60
        E 0 90 61 60
        E 0 90 55 60
        E 120 80 1a 00
        E 0 80 61 00
        E 0 80 55 00
        E 120 80 19 00
        E 0 90 1b 60
        E 0 90 61 60
        E 0 90 55 60
        E 0 90 49 60
        E 120 80 1b 00
        E 0 80 61 00
        E 0 80 55 00
        E 0 80 49 00
        E 120 90 19 60
        E 0 90 1a 60
        E 0 90 61 60
        E 0 90 55 60
        E 120 80 1a 00
        E 0 80 61 00
        E 0 80 55 00
        E 120 80 19 00
        E 0 90 1b 60
        E 0 90 61 60
        E 0 90 55 60
        E 0 90 49 60
        E 0 90 3d 60
        E 120 80 1b 00
        E 0 80 61 00
        E 0 80 55 00
        E 0 80 49 00
        E 0 80 3d 00
        E 120 90 18 60
        E 0 90 19 60
        E 0 90 60 60
        E 0 90 54 60
        E 120 80 18 00
        E 0 80 60 00
        E 0 80 54 00
        E 120 80 19 00
        E 0 90 1f 60
        E 0 90 62 60
        E 0 90 56 60
        E 0 90 4a 60
        E 120 80 1f 00
        E 0 80 62 00
        E 0 80 56 00
        E 0 80 4a 00
        E 120 90 18 60
        E 0 90 60 60
        E 0 90 54 60
        E 120 80 18 00
        E 0 80 60 00
        E 0 80 54 00
        E 120 90 18 60
        E 0 90 24 60
        E 0 90 60 60
        E 0 90 64 60
        E 0 90 54 60
        E 0 90 58 60
        E 0 90 48 60
        E 0 90 4c 60
        E 0 90 40 60
        E 120 80 74 00
        E 0 80 18 00
        E 0 80 24 00
        E 0 80 60 00
        E 0 80 64 00
        E 0 80 54 00
        E 0 80 58 00
        E 0 80 48 00
        E 0 80 4c 00
        E 0 80 40 00
        E 360 90 1f 60
        E 0 90 62 60
        E 0 90 56 60
        E 0 90 4a 60
        E 120 80 1f 00
        E 0 80 62 00
        E 0 80 56 00
        E 0 80 4a 00
        E 360 90 1a 60
        E 0 90 1f 60
        E 0 90 61 60
        E 0 90 62 60
        E 0 90 55 60
        E 0 90 56 60
        E 0 90 49 60
        E 0 90 4a 60
        E 0 90 3d 60
        E 0 90 3e 60
        E 120 80 1a 00
        E 0 80 1f 00
        E 0 80 61 00
        E 0 80 62 00
        E 0 80 55 00
        E 0 80 56 00
        E 0 80 49 00
        E 0 80 4a 00
        E 0 80 3d 00
        E 0 80 3e 00
        E 360 90 1f 60
        E 0 90 62 60
        E 0 90 56 60
        E 0 90 4a 60
        E 120 80 1f 00
        E 0 80 62 00
        E 0 80 56 00
        E 0 80 4a 00
        E 120 90 18 60
        E 0 90 60 60
        E 0 90 54 60
        E 120 80 18 00
        E 0 80 60 00
        E 0 80 54 00
        E 120 90 1f 60
        E 0 90 62 60
        E 0 90 56 60
        E 0 90 4a 60
        E 0 90 3e 60
        E 120 80 1f 00
        E 0 80 62 00
        E 0 80 56 00
        E 0 80 4a 00
        E 0 80 3e 00
        E 120 90 1c 60
        E 0 90 61 60
        E 0 90 55 60
        E 120 80 1c 00
        E 0 80 61 00
        E 0 80 55 00
        E 120 90 18 60
        E 0 90 1f 60
        E 0 90 60 60
        E 0 90 62 60
        E 0 90 54 60
        E 0 90 56 60
        E 0 90 48 60
        E 0 90 4a 60
        E 120 80 18 00
        E 0 80 1f 00
        E 0 80 60 00
        E 0 80 62 00
        E 0 80 54 00
        E 0 80 56 00
        E 0 80 48 00
        E 0 80 4a 00
        E 120 90 18 60
        E 0 90 60 60
        E 0 90 54 60
        E 120 80 18 00
        E 0 80 60 00
        E 0 80 54 00
        E 120 90 1a 60
        E 0 90 1f 60
        E 0 90 61 60
        E 0 90 62 60
        E 0 90 55 60
        E 0 90 56 60
        E 0 90 49 60
        E 0 90 4a 60
        E 0 90 3d 60
        E 0 90 3e 60
        E 120 80 1a 00
        E 0 80 1f 00
        E 0 80 61 00
        E 0 80 62 00
        E 0 80 55 00
        E 0 80 56 00
        E 0 80 49 00
        E 0 80 4a 00
        E 0 80 3d 00
        E 0 80 3e 00
        E 360 90 19 60
        E 0 90 1f 60
        E 0 90 63 60
        E 0 90 57 60
        E 0 90 4b 60
        E 120 80 1f 00
        E 0 80 63 00
        E 0 80 57 00
        E 0 80 4b 00
        E 120 90 1c 60
        E 0 90 61 60
        E 0 90 55 60
        E 120 80 1c 00
        E 0 80 61 00
        E 0 80 55 00
        E 0 90 1c 60
        E 0 90 61 60
        E 120 80 19 00
        E 0 80 1c 00
        E 0 80 61 00
        E 0 90 1b 60
        E 0 90 61 60
        E 0 90 55 60
        E 0 90 49 60
        E 0 90 3d 60
        E 120 80 1b 00
        E 0 80 61 00
        E 0 80 55 00
        E 0 80 49 00
        E 0 80 3d 00
        E 120 90 19 60
        E 0 90 1a 60
        E 0 90 61 60
        E 0 90 55 60
        E 120 80 1a 00
        E 0 80 61 00
        E 0 80 55 00
        E 120 80 19 00
        E 0 90 1a 60
        E 0 90 61 60
        E 0 90 55 60
        E 0 90 49 60
        E 120 80 1a 00
        E 0 80 61 00
        E 0 80 55 00
        E 0 80 49 00
        E 120 90 19 60
        E 0 90 2f 60
        E 0 90 63 60
        E 0 90 57 60
        E 0 90 6f 60
        E 120 80 2f 00
        E 0 80 63 00
        E 0 80 57 00
        E 0 80 6f 00
        E 120 80 19 00
        E 0 90 1c 60
        E 0 90 61 60
        E 0 90 55 60
        E 0 90 49 60
        E 0 90 3d 60
        E 120 80 1c 00
        E 0 80 61 00
        E 0 80 55 00
        E 0 80 49 00
        E 0 80 3d 00
        E 120 90 19 60
        E 0 90 2f 60
        E 0 90 63 60
        E 0 90 57 60
        E 0 90 6f 60
        E 120 80 2f 00
        E 0 80 63 00
        E 0 80 57 00
        E 0 80 6f 00
        E 120 80 19 00
        E 0 90 1c 60
        E 0 90 61 60
        E 0 90 55 60
        E 0 90 49 60
        E 120 80 1c 00
        E 0 80 61 00
        E 0 80 55 00
        E 0 80 49 00
        E 120 90 19 60
        E 0 90 1c 60
        E 0 90 61 60
        E 0 90 55 60
        E 120 80 1c 00
        E 0 80 61 00
        E 0 80 55 00
        E 120 80 19 00
        E 0 90 1b 60
        E 0 90 61 60
        E 0 90 78 60
        E 0 90 79 60
        E 0 90 7a 60
        E 0 90 7b 60
        E 0 90 7c 60
        E 0 90 55 60
        E 0 90 49 60
        E 0 90 3d 60
        E 120 80 1b 00
        E 0 80 61 00
        E 0 80 55 00
        E 0 80 49 00
        E 0 80 3d 00
        E 120 90 19 60
        E 0 90 1a 60
        E 0 90 61 60
        E 0 90 55 60
        E 120 80 1a 00
        E 0 80 61 00
        E 0 80 55 00
        E 120 80 19 00
        E 0 90 2f 60
        E 0 90 63 60
        E 0 90 57 60
        E 0 90 4b 60
        E 0 90 6f 60
        E 120 80 2f 00
        E 0 80 63 00
        E 0 80 57 00
        E 0 80 4b 00
        E 0 80 6f 00
        E 120 90 19 60
        E 0 90 1c 60
        E 0 90 61 60
        E 0 90 55 60
        E 120 80 1c 00
        E 0 80 61 00
        E 0 80 55 00
        E 120 80 19 00
        E 0 90 1b 60
        E 0 90 61 60
        E 0 90 55 60
        E 0 90 49 60
        E 0 90 3d 60
        E 120 80 1b 00
        E 0 80 61 00
        E 0 80 55 00
        E 0 80 49 00
        E 0 80 3d 00
        E 120 90 19 60
        E 0 90 1a 60
        E 0 90 61 60
        E 0 90 55 60
        E 120 80 1a 00
        E 0 80 61 00
        E 0 80 55 00
        E 120 80 19 00
        E 0 90 1f 60
        E 0 90 62 60
        E 0 90 56 60
        E 0 90 4a 60
        E 120 80 1f 00
        E 0 80 62 00
        E 0 80 56 00
        E 0 80 4a 00
        E 120 90 18 60
        E 0 90 60 60
        E 0 90 54 60
        E 120 80 18 00
        E 0 80 60 00
        E 0 80 54 00
        <X 120 0
          /wFbcGxheV0=
        >
        E 0 80 78 00
        E 0 80 79 00
        E 0 80 7a 00
        E 0 80 7b 00
        E 0 80 7c 00
        E 0 90 18 60
        E 0 90 24 60
        E 0 90 60 60
        E 0 90 64 60
        E 0 90 54 60
        E 0 90 58 60
        E 0 90 48 60
        E 0 90 4c 60
        E 0 90 40 60
        E 120 80 18 00
        E 0 80 24 00
        E 0 80 60 00
        E 0 80 64 00
        E 0 80 54 00
        E 0 80 58 00
        E 0 80 48 00
        E 0 80 4c 00
        E 0 80 40 00
        E 360 90 1f 60
        E 0 90 62 60
        E 0 90 56 60
        E 0 90 4a 60
        E 120 80 1f 00
        E 0 80 62 00
        E 0 80 56 00
        E 0 80 4a 00
        E 120 90 18 60
        E 0 90 60 60
        E 0 90 54 60
        E 120 80 18 00
        E 0 80 60 00
        E 0 80 54 00
        E 120 90 1a 60
        E 0 90 1f 60
        E 0 90 61 60
        E 0 90 62 60
        E 0 90 55 60
        E 0 90 56 60
        E 0 90 49 60
        E 0 90 4a 60
        E 0 90 3d 60
        E 0 90 3e 60
        E 120 80 1a 00
        E 0 80 1f 00
        E 0 80 61 00
        E 0 80 62 00
        E 0 80 55 00
        E 0 80 56 00
        E 0 80 49 00
        E 0 80 4a 00
        E 0 80 3d 00
        E 0 80 3e 00
        E 360 90 1f 60
        E 0 90 62 60
        E 0 90 56 60
        E 0 90 4a 60
        E 120 80 1f 00
        E 0 80 62 00
        E 0 80 56 00
        E 0 80 4a 00
        E 120 90 18 60
        E 0 90 60 60
        E 0 90 54 60
        E 120 80 18 00
        E 0 80 60 00
        E 0 80 54 00
        E 120 90 18 60
        E 0 90 1f 60
        E 0 90 60 60
        E 0 90 62 60
        E 0 90 54 60
        E 0 90 56 60
        E 0 90 48 60
        E 0 90 4a 60
        E 0 90 3e 60
        E 120 80 18 00
        E 0 80 1f 00
        E 0 80 60 00
        E 0 80 62 00
        E 0 80 54 00
        E 0 80 56 00
        E 0 80 48 00
        E 0 80 4a 00
        E 0 80 3e 00
        E 120 90 1c 60
        E 0 90 61 60
        E 0 90 55 60
        E 120 80 1c 00
        E 0 80 61 00
        E 0 80 55 00
        E 120 90 18 60
        E 0 90 1f 60
        E 0 90 60 60
        E 0 90 62 60
        E 0 90 54 60
        E 0 90 56 60
        E 0 90 48 60
        E 0 90 4a 60
        E 120 80 18 00
        E 0 80 1f 00
        E 0 80 60 00
        E 0 80 62 00
        E 0 80 54 00
        E 0 80 56 00
        E 0 80 48 00
        E 0 80 4a 00
        E 120 90 18 60
        E 0 90 60 60
        E 0 90 54 60
        E 120 80 18 00
        E 0 80 60 00
        E 0 80 54 00
        E 120 90 1a 60
        E 0 90 1f 60
        E 0 90 61 60
        E 0 90 62 60
        E 0 90 55 60
        E 0 90 56 60
        E 0 90 49 60
        E 0 90 4a 60
        E 0 90 3d 60
        E 0 90 3e 60
        E 120 80 1a 00
        E 0 80 1f 00
        E 0 80 61 00
        E 0 80 62 00
        E 0 80 55 00
        E 0 80 56 00
        E 0 80 49 00
        E 0 80 4a 00
        E 0 80 3d 00
        E 0 80 3e 00
        E 360 90 1f 60
        E 0 90 62 60
        E 0 90 56 60
        E 0 90 4a 60
        E 120 80 1f 00
        E 0 80 62 00
        E 0 80 56 00
        E 0 80 4a 00
        E 120 90 19 60
        E 0 90 1c 60
        E 0 90 61 60
        E 0 90 55 60
        E 120 80 1c 00
        E 0 80 61 00
        E 0 80 55 00
        E 0 90 1c 60
        E 0 90 61 60
        E 120 80 19 00
        E 0 80 1c 00
        E 0 80 61 00
        E 0 90 1b 60
        E 0 90 61 60
        E 0 90 55 60
        E 0 90 49 60
        E 0 90 3d 60
        E 120 80 1b 00
        E 0 80 61 00
        E 0 80 55 00
        E 0 80 49 00
        E 0 80 3d 00
        E 120 90 19 60
        E 0 90 1a 60
        E 0 90 61 60
        E 0 90 55 60
        E 120 80 1a 00
        E 0 80 61 00
        E 0 80 55 00
        E 120 80 19 00
        E 0 90 2f 60
        E 0 90 63 60
        E 0 90 57 60
        E 0 90 4b 60
        E 0 90 6f 60
        E 120 80 2f 00
        E 0 80 63 00
        E 0 80 57 00
        E 0 80 4b 00
        E 0 80 6f 00
        E 120 90 19 60
        E 0 90 1c 60
        E 0 90 61 60
        E 0 90 55 60
        E 120 80 1c 00
        E 0 80 61 00
        E 0 80 55 00
        E 120 80 19 00
        E 0 90 1c 60
        E 0 90 61 60
        E 0 90 55 60
        E 0 90 49 60
        E 0 90 3d 60
        E 120 80 1c 00
        E 0 80 61 00
        E 0 80 55 00
        E 0 80 49 00
        E 0 80 3d 00
        E 120 90 19 60
        E 0 90 2f 60
        E 0 90 63 60
        E 0 90 57 60
        E 0 90 6f 60
        E 120 80 2f 00
        E 0 80 63 00
        E 0 80 57 00
        E 0 80 6f 00
        E 120 80 19 00
        E 0 90 1c 60
        E 0 90 61 60
        E 0 90 55 60
        E 0 90 49 60
        E 120 80 1c 00
        E 0 80 61 00
        E 0 80 55 00
        E 0 80 49 00
        E 120 90 19 60
        E 0 90 2f 60
        E 0 90 63 60
        E 0 90 57 60
        E 0 90 6f 60
        E 120 80 2f 00
        E 0 80 63 00
        E 0 80 57 00
        E 0 80 6f 00
        E 120 80 19 00
        E 0 90 1a 60
        E 0 90 61 60
        E 0 90 78 60
        E 0 90 79 60
        E 0 90 7a 60
        E 0 90 7b 60
        E 0 90 7c 60
        E 0 90 55 60
        E 0 90 49 60
        E 0 90 3d 60
        E 120 80 1a 00
        E 0 80 61 00
        E 0 80 55 00
        E 0 80 49 00
        E 0 80 3d 00
        E 120 90 19 60
        E 0 90 1c 60
        E 0 90 61 60
        E 0 90 55 60
        E 120 80 1c 00
        E 0 80 61 00
        E 0 80 55 00
        E 120 80 19 00
        E 0 90 2f 60
        E 0 90 63 60
        E 0 90 57 60
        E 0 90 4b 60
        E 0 90 6f 60
        E 120 80 2f 00
        E 0 80 63 00
        E 0 80 57 00
        E 0 80 4b 00
        E 0 80 6f 00
        E 120 90 19 60
        E 0 90 1a 60
        E 0 90 61 60
        E 0 90 55 60
        E 120 80 1a 00
        E 0 80 61 00
        E 0 80 55 00
        E 120 80 19 00
        E 0 90 1d 60
        E 0 90 62 60
        E 0 90 56 60
        E 0 90 4a 60
        E 0 90 6e 60
        E 0 90 3e 60
        E 120 80 1d 00
        E 0 80 62 00
        E 0 80 56 00
        E 0 80 4a 00
        E 0 80 6e 00
        E 0 80 3e 00
        E 120 90 19 60
        E 0 90 1a 60
        E 0 90 61 60
        E 0 90 55 60
        E 120 80 1a 00
        E 0 80 61 00
        E 0 80 55 00
        E 120 80 19 00
        E 0 90 1b 60
        E 0 90 61 60
        E 0 90 55 60
        E 0 90 49 60
        E 120 80 1b 00
        E 0 80 61 00
        E 0 80 55 00
        E 0 80 49 00
        E 120 90 18 60
        E 0 90 60 60
        E 0 90 54 60
        E 120 80 18 00
        E 0 80 60 00
        E 0 80 54 00
        E 120 80 78 00
        E 0 80 79 00
        E 0 80 7a 00
        E 0 80 7b 00
        E 0 80 7c 00
        E 0 90 18 60
        E 0 90 24 60
        E 0 90 60 60
        E 0 90 64 60
        E 0 90 54 60
        E 0 90 58 60
        E 0 90 48 60
        E 0 90 4c 60
        E 0 90 40 60
        E 120 80 18 00
        E 0 80 24 00
        E 0 80 60 00
        E 0 80 64 00
        E 0 80 54 00
        E 0 80 58 00
        E 0 80 48 00
        E 0 80 4c 00
        E 0 80 40 00
        E 360 90 1f 60
        E 0 90 62 60
        E 0 90 56 60
        E 0 90 4a 60
        E 120 80 1f 00
        E 0 80 62 00
        E 0 80 56 00
        E 0 80 4a 00
        E 360 90 1a 60
        E 0 90 1f 60
        E 0 90 61 60
        E 0 90 62 60
        E 0 90 55 60
        E 0 90 56 60
        E 0 90 49 60
        E 0 90 4a 60
        E 0 90 3d 60
        E 0 90 3e 60
        E 120 80 1a 00
        E 0 80 1f 00
        E 0 80 61 00
        E 0 80 62 00
        E 0 80 55 00
        E 0 80 56 00
        E 0 80 49 00
        E 0 80 4a 00
        E 0 80 3d 00
        E 0 80 3e 00
        E 360 90 1f 60
        E 0 90 62 60
        E 0 90 56 60
        E 0 90 4a 60
        E 120 80 1f 00
        E 0 80 62 00
        E 0 80 56 00
        E 0 80 4a 00
        E 120 90 18 60
        E 0 90 60 60
        E 0 90 54 60
        E 120 80 18 00
        E 0 80 60 00
        E 0 80 54 00
        E 120 90 1f 60
        E 0 90 62 60
        E 0 90 56 60
        E 0 90 4a 60
        E 0 90 3e 60
        E 120 80 1f 00
        E 0 80 62 00
        E 0 80 56 00
        E 0 80 4a 00
        E 0 80 3e 00
        E 120 90 18 60
        E 0 90 60 60
        E 0 90 54 60
        E 120 80 18 00
        E 0 80 60 00
        E 0 80 54 00
        E 120 90 18 60
        E 0 90 1f 60
        E 0 90 60 60
        E 0 90 62 60
        E 0 90 54 60
        E 0 90 56 60
        E 0 90 48 60
        E 0 90 4a 60
        E 120 80 18 00
        E 0 80 1f 00
        E 0 80 60 00
        E 0 80 62 00
        E 0 80 54 00
        E 0 80 56 00
        E 0 80 48 00
        E 0 80 4a 00
        E 360 90 1a 60
        E 0 90 1f 60
        E 0 90 61 60
        E 0 90 62 60
        E 0 90 55 60
        E 0 90 56 60
        E 0 90 49 60
        E 0 90 4a 60
        E 0 90 3d 60
        E 0 90 3e 60
        E 120 80 1a 00
        E 0 80 1f 00
        E 0 80 61 00
        E 0 80 62 00
        E 0 80 55 00
        E 0 80 56 00
        E 0 80 49 00
        E 0 80 4a 00
        E 0 80 3d 00
        E 0 80 3e 00
        E 360 90 1f 60
        E 0 90 62 60
        E 0 90 56 60
        E 0 90 4a 60
        E 120 80 1f 00
        E 0 80 62 00
        E 0 80 56 00
        E 0 80 4a 00
        E 120 90 1c 60
        E 0 90 61 60
        E 0 90 55 60
        E 120 80 1c 00
        E 0 80 61 00
        E 0 80 55 00
        E 120 90 2f 60
        E 0 90 63 60
        E 0 90 57 60
        E 0 90 4b 60
        E 0 90 6f 60
        E 0 90 3f 60
        E 120 80 2f 00
        E 0 80 63 00
        E 0 80 57 00
        E 0 80 4b 00
        E 0 80 6f 00
        E 0 80 3f 00
        E 120 90 19 60
        E 0 90 1c 60
        E 0 90 61 60
        E 0 90 55 60
        E 120 80 1c 00
        E 0 80 61 00
        E 0 80 55 00
        E 0 90 1c 60
        E 0 90 61 60
        E 120 80 19 00
        E 0 80 1c 00
        E 0 80 61 00
        E 0 90 1b 60
        E 0 90 61 60
        E 0 90 55 60
        E 0 90 49 60
        E 120 80 1b 00
        E 0 80 61 00
        E 0 80 55 00
        E 0 80 49 00
        E 120 90 19 60
        E 0 90 1a 60
        E 0 90 61 60
        E 0 90 55 60
        E 120 80 1a 00
        E 0 80 61 00
        E 0 80 55 00
        E 120 80 19 00
        E 0 90 1d 60
        E 0 90 61 60
        E 0 90 55 60
        E 0 90 49 60
        E 0 90 3d 60
        E 120 80 1d 00
        E 0 80 61 00
        E 0 80 55 00
        E 0 80 49 00
        E 0 80 3d 00
        E 120 90 19 60
        E 0 90 1a 60
        E 0 90 61 60
        E 0 90 55 60
        E 120 80 1a 00
        E 0 80 61 00
        E 0 80 55 00
        E 120 80 19 00
        E 0 90 1c 60
        E 0 90 61 60
        E 0 90 55 60
        E 0 90 49 60
        E 120 80 1c 00
        E 0 80 61 00
        E 0 80 55 00
        E 0 80 49 00
        E 120 90 19 60
        E 0 90 2f 60
        E 0 90 63 60
        E 0 90 57 60
        E 0 90 6f 60
        E 120 80 2f 00
        E 0 80 63 00
        E 0 80 57 00
        E 0 80 6f 00
        E 120 80 19 00
        E 0 90 1c 60
        E 0 90 61 60
        E 0 90 78 60
        E 0 90 79 60
        E 0 90 7a 60
        E 0 90 7b 60
        E 0 90 7c 60
        E 0 90 55 60
        E 0 90 49 60
        E 0 90 3d 60
        E 120 80 1c 00
        E 0 80 61 00
        E 0 80 55 00
        E 0 80 49 00
        E 0 80 3d 00
        E 120 90 19 60
        E 0 90 1c 60
        E 0 90 61 60
        E 0 90 55 60
        E 120 80 1c 00
        E 0 80 61 00
        E 0 80 55 00
        E 120 80 19 00
        E 0 90 1b 60
        E 0 90 61 60
        E 0 90 55 60
        E 0 90 49 60
        E 120 80 1b 00
        E 0 80 61 00
        E 0 80 55 00
        E 0 80 49 00
        E 120 90 19 60
        E 0 90 1c 60
        E 0 90 61 60
        E 0 90 55 60
        E 120 80 1c 00
        E 0 80 61 00
        E 0 80 55 00
        E 120 80 19 00
        E 0 90 1b 60
        E 0 90 61 60
        E 0 90 55 60
        E 0 90 49 60
        E 0 90 3d 60
        E 120 80 1b 00
        E 0 80 61 00
        E 0 80 55 00
        E 0 80 49 00
        E 0 80 3d 00
        E 120 90 18 60
        E 0 90 19 60
        E 0 90 60 60
        E 0 90 54 60
        E 120 80 18 00
        E 0 80 60 00
        E 0 80 54 00
        E 120 80 19 00
        E 0 90 1f 60
        E 0 90 62 60
        E 0 90 56 60
        E 0 90 4a 60
        E 120 80 1f 00
        E 0 80 62 00
        E 0 80 56 00
        E 0 80 4a 00
        E 120 90 18 60
        E 0 90 19 60
        E 0 90 60 60
        E 0 90 54 60
        E 120 80 18 00
        E 0 80 60 00
        E 0 80 54 00
        E 120 80 78 00
        E 0 80 79 00
        E 0 80 7a 00
        E 0 80 7b 00
        E 0 80 7c 00
        E 0 80 19 00
        E 0 90 18 60
        E 0 90 24 60
        E 0 90 60 60
        E 0 90 64 60
        E 0 90 54 60
        E 0 90 58 60
        E 0 90 48 60
        E 0 90 4c 60
        E 0 90 40 60
        E 120 80 18 00
        E 0 80 24 00
        E 0 80 60 00
        E 0 80 64 00
        E 0 80 54 00
        E 0 80 58 00
        E 0 80 48 00
        E 0 80 4c 00
        E 0 80 40 00
        E 360 90 1f 60
        E 0 90 62 60
        E 0 90 56 60
        E 0 90 4a 60
        E 120 80 1f 00
        E 0 80 62 00
        E 0 80 56 00
        E 0 80 4a 00
        E 360 90 1a 60
        E 0 90 1f 60
        E 0 90 61 60
        E 0 90 62 60
        E 0 90 55 60
        E 0 90 56 60
        E 0 90 49 60
        E 0 90 4a 60
        E 0 90 3d 60
        E 0 90 3e 60
        E 120 80 1a 00
        E 0 80 1f 00
        E 0 80 61 00
        E 0 80 62 00
        E 0 80 55 00
        E 0 80 56 00
        E 0 80 49 00
        E 0 80 4a 00
        E 0 80 3d 00
        E 0 80 3e 00
        E 360 90 1f 60
        E 0 90 62 60
        E 0 90 56 60
        E 0 90 4a 60
        E 120 80 1f 00
        E 0 80 62 00
        E 0 80 56 00
        E 0 80 4a 00
        E 120 90 18 60
        E 0 90 60 60
        E 0 90 54 60
        E 120 80 18 00
        E 0 80 60 00
        E 0 80 54 00
        E 120 90 18 60
        E 0 90 1f 60
        E 0 90 60 60
        E 0 90 62 60
        E 0 90 54 60
        E 0 90 56 60
        E 0 90 48 60
        E 0 90 4a 60
        E 0 90 3e 60
        E 120 80 18 00
        E 0 80 1f 00
        E 0 80 60 00
        E 0 80 62 00
        E 0 80 54 00
        E 0 80 56 00
        E 0 80 48 00
        E 0 80 4a 00
        E 0 80 3e 00
        E 360 90 18 60
        E 0 90 1f 60
        E 0 90 60 60
        E 0 90 62 60
        E 0 90 54 60
        E 0 90 56 60
        E 0 90 48 60
        E 0 90 4a 60
        E 120 80 18 00
        E 0 80 1f 00
        E 0 80 60 00
        E 0 80 62 00
        E 0 80 54 00
        E 0 80 56 00
        E 0 80 48 00
        E 0 80 4a 00
        E 360 90 1a 60
        E 0 90 1f 60
        E 0 90 61 60
        E 0 90 62 60
        E 0 90 55 60
        E 0 90 56 60
        E 0 90 49 60
        E 0 90 4a 60
        E 0 90 3d 60
        E 0 90 3e 60
        E 120 80 1a 00
        E 0 80 1f 00
        E 0 80 61 00
        E 0 80 62 00
        E 0 80 55 00
        E 0 80 56 00
        E 0 80 49 00
        E 0 80 4a 00
        E 0 80 3d 00
        E 0 80 3e 00
        E 360 90 19 60
        E 0 90 1f 60
        E 0 90 63 60
        E 0 90 57 60
        E 0 90 4b 60
        E 120 80 1f 00
        E 0 80 63 00
        E 0 80 57 00
        E 0 80 4b 00
        E 120 90 1c 60
        E 0 90 61 60
        E 0 90 55 60
        E 120 80 1c 00
        E 0 80 61 00
        E 0 80 55 00
        E 120 80 19 00
        E 0 90 2f 60
        E 0 90 63 60
        E 0 90 57 60
        E 0 90 4b 60
        E 0 90 6f 60
        E 0 90 3f 60
        E 120 80 2f 00
        E 0 80 63 00
        E 0 80 57 00
        E 0 80 4b 00
        E 0 80 6f 00
        E 0 80 3f 00
        E 120 90 19 60
        E 0 90 1c 60
        E 0 90 61 60
        E 0 90 55 60
        E 120 80 1c 00
        E 0 80 61 00
        E 0 80 55 00
        E 120 80 19 00
        E 0 90 1d 60
        E 0 90 61 60
        E 0 90 55 60
        E 0 90 49 60
        E 120 80 1d 00
        E 0 80 61 00
        E 0 80 55 00
        E 0 80 49 00
        E 120 90 19 60
        E 0 90 1a 60
        E 0 90 61 60
        E 0 90 55 60
        E 120 80 1a 00
        E 0 80 61 00
        E 0 80 55 00
        E 120 80 19 00
        E 0 90 1c 60
        E 0 90 61 60
        E 0 90 55 60
        E 0 90 49 60
        E 0 90 3d 60
        E 120 80 1c 00
        E 0 80 61 00
        E 0 80 55 00
        E 0 80 49 00
        E 0 80 3d 00
        E 120 90 19 60
        E 0 90 2f 60
        E 0 90 63 60
        E 0 90 57 60
        E 0 90 6f 60
        E 120 80 2f 00
        E 0 80 63 00
        E 0 80 57 00
        E 0 80 6f 00
        E 120 80 19 00
        E 0 90 1c 60
        E 0 90 61 60
        E 0 90 55 60
        E 0 90 49 60
        E 120 80 1c 00
        E 0 80 61 00
        E 0 80 55 00
        E 0 80 49 00
        E 120 90 19 60
        E 0 90 2f 60
        E 0 90 63 60
        E 0 90 57 60
        E 0 90 6f 60
        E 120 80 2f 00
        E 0 80 63 00
        E 0 80 57 00
        E 0 80 6f 00
        E 120 80 19 00
        E 0 90 1a 60
        E 0 90 61 60
        E 0 90 78 60
        E 0 90 79 60
        E 0 90 7a 60
        E 0 90 7b 60
        E 0 90 7c 60
        E 0 90 55 60
        E 0 90 49 60
        E 0 90 3d 60
        E 120 80 1a 00
        E 0 80 61 00
        E 0 80 55 00
        E 0 80 49 00
        E 0 80 3d 00
        E 120 90 19 60
        E 0 90 1a 60
        E 0 90 61 60
        E 0 90 55 60
        E 120 80 1a 00
        E 0 80 61 00
        E 0 80 55 00
        E 120 80 19 00
        E 0 90 1b 60
        E 0 90 61 60
        E 0 90 55 60
        E 0 90 49 60
        E 120 80 1b 00
        E 0 80 61 00
        E 0 80 55 00
        E 0 80 49 00
        E 120 90 19 60
        E 0 90 1a 60
        E 0 90 61 60
        E 0 90 55 60
        E 120 80 1a 00
        E 0 80 61 00
        E 0 80 55 00
        E 120 80 19 00
        E 0 90 1b 60
        E 0 90 61 60
        E 0 90 55 60
        E 0 90 49 60
        E 0 90 3d 60
        E 120 80 1b 00
        E 0 80 61 00
        E 0 80 55 00
        E 0 80 49 00
        E 0 80 3d 00
        E 120 90 18 60
        E 0 90 19 60
        E 0 90 60 60
        E 0 90 54 60
        E 120 80 18 00
        E 0 80 60 00
        E 0 80 54 00
        E 120 80 19 00
        E 0 90 1f 60
        E 0 90 62 60
        E 0 90 56 60
        E 0 90 4a 60
        E 120 80 1f 00
        E 0 80 62 00
        E 0 80 56 00
        E 0 80 4a 00
        E 120 90 18 60
        E 0 90 60 60
        E 0 90 54 60
        E 120 80 18 00
        E 0 80 60 00
        E 0 80 54 00
        E 120 80 78 00
        E 0 80 79 00
        E 0 80 7a 00
        E 0 80 7b 00
        E 0 80 7c 00
        E 0 90 18 60
        E 0 90 24 60
        E 0 90 60 60
        E 0 90 64 60
        E 0 90 54 60
        E 0 90 58 60
        E 0 90 48 60
        E 0 90 4c 60
        E 0 90 40 60
        E 120 80 18 00
        E 0 80 24 00
        E 0 80 60 00
        E 0 80 64 00
        E 0 80 54 00
        E 0 80 58 00
        E 0 80 48 00
        E 0 80 4c 00
        E 0 80 40 00
        E 360 90 1f 60
        E 0 90 62 60
        E 0 90 56 60
        E 0 90 4a 60
        E 120 80 1f 00
        E 0 80 62 00
        E 0 80 56 00
        E 0 80 4a 00
        E 360 90 1a 60
        E 0 90 1f 60
        E 0 90 61 60
        E 0 90 62 60
        E 0 90 55 60
        E 0 90 56 60
        E 0 90 49 60
        E 0 90 4a 60
        E 0 90 3d 60
        E 0 90 3e 60
        E 120 80 1a 00
        E 0 80 1f 00
        E 0 80 61 00
        E 0 80 62 00
        E 0 80 55 00
        E 0 80 56 00
        E 0 80 49 00
        E 0 80 4a 00
        E 0 80 3d 00
        E 0 80 3e 00
        E 360 90 1f 60
        E 0 90 62 60
        E 0 90 56 60
        E 0 90 4a 60
        E 120 80 1f 00
        E 0 80 62 00
        E 0 80 56 00
        E 0 80 4a 00
        E 120 90 18 60
        E 0 90 60 60
        E 0 90 54 60
        E 120 80 18 00
        E 0 80 60 00
        E 0 80 54 00
        E 120 90 1f 60
        E 0 90 62 60
        E 0 90 56 60
        E 0 90 4a 60
        E 0 90 3e 60
        E 120 80 1f 00
        E 0 80 62 00
        E 0 80 56 00
        E 0 80 4a 00
        E 0 80 3e 00
        E 120 90 1c 60
        E 0 90 61 60
        E 0 90 55 60
        E 120 80 1c 00
        E 0 80 61 00
        E 0 80 55 00
        E 120 90 18 60
        E 0 90 1f 60
        E 0 90 60 60
        E 0 90 62 60
        E 0 90 54 60
        E 0 90 56 60
        E 0 90 48 60
        E 0 90 4a 60
        E 120 80 18 00
        E 0 80 1f 00
        E 0 80 60 00
        E 0 80 62 00
        E 0 80 54 00
        E 0 80 56 00
        E 0 80 48 00
        E 0 80 4a 00
        E 120 90 18 60
        E 0 90 60 60
        E 0 90 54 60
        E 120 80 18 00
        E 0 80 60 00
        E 0 80 54 00
        E 120 90 1a 60
        E 0 90 1f 60
        E 0 90 61 60
        E 0 90 62 60
        E 0 90 55 60
        E 0 90 56 60
        E 0 90 49 60
        E 0 90 4a 60
        E 0 90 3d 60
        E 0 90 3e 60
        E 120 80 1a 00
        E 0 80 1f 00
        E 0 80 61 00
        E 0 80 62 00
        E 0 80 55 00
        E 0 80 56 00
        E 0 80 49 00
        E 0 80 4a 00
        E 0 80 3d 00
        E 0 80 3e 00
        E 360 90 19 60
        E 0 90 1f 60
        E 0 90 63 60
        E 0 90 57 60
        E 0 90 4b 60
        E 120 80 1f 00
        E 0 80 63 00
        E 0 80 57 00
        E 0 80 4b 00
        E 120 90 1c 60
        E 0 90 61 60
        E 0 90 55 60
        E 120 80 1c 00
        E 0 80 61 00
        E 0 80 55 00
        E 0 90 1c 60
        E 0 90 61 60
        E 120 80 19 00
        E 0 80 1c 00
        E 0 80 61 00
        E 0 90 1b 60
        E 0 90 61 60
        E 0 90 55 60
        E 0 90 49 60
        E 0 90 3d 60
        E 120 80 1b 00
        E 0 80 61 00
        E 0 80 55 00
        E 0 80 49 00
        E 0 80 3d 00
        E 120 90 19 60
        E 0 90 1a 60
        E 0 90 61 60
        E 0 90 55 60
        E 120 80 1a 00
        E 0 80 61 00
        E 0 80 55 00
        E 120 80 19 00
        E 0 90 1a 60
        E 0 90 61 60
        E 0 90 55 60
        E 0 90 49 60
        E 120 80 1a 00
        E 0 80 61 00
        E 0 80 55 00
        E 0 80 49 00
        E 120 90 19 60
        E 0 90 2f 60
        E 0 90 63 60
        E 0 90 57 60
        E 0 90 6f 60
        E 120 80 2f 00
        E 0 80 63 00
        E 0 80 57 00
        E 0 80 6f 00
        E 120 80 19 00
        E 0 90 1c 60
        E 0 90 61 60
        E 0 90 55 60
        E 0 90 49 60
        E 0 90 3d 60
        E 120 80 1c 00
        E 0 80 61 00
        E 0 80 55 00
        E 0 80 49 00
        E 0 80 3d 00
        E 120 90 19 60
        E 0 90 2f 60
        E 0 90 63 60
        E 0 90 57 60
        E 0 90 6f 60
        E 120 80 2f 00
        E 0 80 63 00
        E 0 80 57 00
        E 0 80 6f 00
        E 120 80 19 00
        E 0 90 1c 60
        E 0 90 61 60
        E 0 90 55 60
        E 0 90 49 60
        E 120 80 1c 00
        E 0 80 61 00
        E 0 80 55 00
        E 0 80 49 00
        E 120 90 19 60
        E 0 90 1c 60
        E 0 90 61 60
        E 0 90 55 60
        E 120 80 1c 00
        E 0 80 61 00
        E 0 80 55 00
        E 120 80 19 00
        E 0 90 1b 60
        E 0 90 61 60
        E 0 90 55 60
        E 0 90 49 60
        E 0 90 3d 60
        E 120 80 1b 00
        E 0 80 61 00
        E 0 80 55 00
        E 0 80 49 00
        E 0 80 3d 00
        E 120 90 19 60
        E 0 90 1a 60
        E 0 90 61 60
        E 0 90 55 60
        E 120 80 1a 00
        E 0 80 61 00
        E 0 80 55 00
        E 120 80 19 00
        E 0 90 2f 60
        E 0 90 63 60
        E 0 90 57 60
        E 0 90 4b 60
        E 0 90 6f 60
        E 120 80 2f 00
        E 0 80 63 00
        E 0 80 57 00
        E 0 80 4b 00
        E 0 80 6f 00
        E 120 90 19 60
        E 0 90 1c 60
        E 0 90 61 60
        E 0 90 55 60
        E 120 80 1c 00
        E 0 80 61 00
        E 0 80 55 00
        E 120 80 19 00
        E 0 90 1b 60
        E 0 90 61 60
        E 0 90 55 60
        E 0 90 49 60
        E 0 90 3d 60
        E 120 80 1b 00
        E 0 80 61 00
        E 0 80 55 00
        E 0 80 49 00
        E 0 80 3d 00
        E 120 90 19 60
        E 0 90 1a 60
        E 0 90 61 60
        E 0 90 55 60
        E 120 80 1a 00
        E 0 80 61 00
        E 0 80 55 00
        E 120 80 19 00
        E 0 90 1f 60
        E 0 90 62 60
        E 0 90 56 60
        E 0 90 4a 60
        E 120 80 1f 00
        E 0 80 62 00
        E 0 80 56 00
        E 0 80 4a 00
        E 120 90 18 60
        E 0 90 60 60
        E 0 90 54 60
        E 120 80 18 00
        E 0 80 60 00
        E 0 80 54 00
        E 120 90 18 5a
        E 0 90 24 5a
        E 0 90 60 60
        E 0 90 64 60
        E 0 90 54 60
        E 0 90 58 60
        E 0 90 48 60
        E 0 90 4c 60
        E 0 90 40 60
        E 120 80 18 00
        E 0 80 24 00
        E 0 80 60 00
        E 0 80 64 00
        E 0 80 54 00
        E 0 80 58 00
        E 0 80 48 00
        E 0 80 4c 00
        E 0 80 40 00
        E 1800 90 78 60
        E 0 90 79 60
        E 0 90 7a 60
        E 0 90 7b 60
        E 0 90 7c 60
        <X 2400 0
          /wFbaW50ZW5zZV0=
        >
        E 0 80 78 00
        E 0 80 79 00
        E 0 80 7a 00
        E 0 80 7b 00
        E 0 80 7c 00
        E 0 90 18 60
        E 0 90 24 60
        E 0 90 60 60
        E 0 90 64 60
        E 0 90 54 60
        E 0 90 58 60
        E 0 90 48 60
        E 0 90 4c 60
        E 0 90 40 60
        E 120 80 18 00
        E 0 80 24 00
        E 0 80 60 00
        E 0 80 64 00
        E 0 80 54 00
        E 0 80 58 00
        E 0 80 48 00
        E 0 80 4c 00
        E 0 80 40 00
        E 360 90 1f 60
        E 0 90 62 60
        E 0 90 56 60
        E 0 90 4a 60
        E 120 80 1f 00
        E 0 80 62 00
        E 0 80 56 00
        E 0 80 4a 00
        E 120 90 18 60
        E 0 90 60 60
        E 0 90 54 60
        E 120 80 18 00
        E 0 80 60 00
        E 0 80 54 00
        E 120 90 1a 60
        E 0 90 1f 60
        E 0 90 61 60
        E 0 90 62 60
        E 0 90 55 60
        E 0 90 56 60
        E 0 90 49 60
        E 0 90 4a 60
        E 0 90 3d 60
        E 0 90 3e 60
        E 120 80 1a 00
        E 0 80 1f 00
        E 0 80 61 00
        E 0 80 62 00
        E 0 80 55 00
        E 0 80 56 00
        E 0 80 49 00
        E 0 80 4a 00
        E 0 80 3d 00
        E 0 80 3e 00
        E 360 90 1f 60
        E 0 90 62 60
        E 0 90 56 60
        E 0 90 4a 60
        E 120 80 1f 00
        E 0 80 62 00
        E 0 80 56 00
        E 0 80 4a 00
        E 120 90 18 60
        E 0 90 60 60
        E 0 90 54 60
        E 120 80 18 00
        E 0 80 60 00
        E 0 80 54 00
        E 120 90 18 60
        E 0 90 1f 60
        E 0 90 60 60
        E 0 90 62 60
        E 0 90 54 60
        E 0 90 56 60
        E 0 90 48 60
        E 0 90 4a 60
        E 0 90 3e 60
        E 120 80 18 00
        E 0 80 1f 00
        E 0 80 60 00
        E 0 80 62 00
        E 0 80 54 00
        E 0 80 56 00
        E 0 80 48 00
        E 0 80 4a 00
        E 0 80 3e 00
        E 120 90 1c 60
        E 0 90 61 60
        E 0 90 55 60
        E 120 80 1c 00
        E 0 80 61 00
        E 0 80 55 00
        E 120 90 18 60
        E 0 90 1f 60
        E 0 90 60 60
        E 0 90 62 60
        E 0 90 54 60
        E 0 90 56 60
        E 0 90 48 60
        E 0 90 4a 60
        E 120 80 18 00
        E 0 80 1f 00
        E 0 80 60 00
        E 0 80 62 00
        E 0 80 54 00
        E 0 80 56 00
        E 0 80 48 00
        E 0 80 4a 00
        E 120 90 18 60
        E 0 90 60 60
        E 0 90 54 60
        E 120 80 18 00
        E 0 80 60 00
        E 0 80 54 00
        E 120 90 1a 60
        E 0 90 1f 60
        E 0 90 61 60
        E 0 90 62 60
        E 0 90 55 60
        E 0 90 56 60
        E 0 90 49 60
        E 0 90 4a 60
        E 0 90 3d 60
        E 0 90 3e 60
        E 120 80 1a 00
        E 0 80 1f 00
        E 0 80 61 00
        E 0 80 62 00
        E 0 80 55 00
        E 0 80 56 00
        E 0 80 49 00
        E 0 80 4a 00
        E 0 80 3d 00
        E 0 80 3e 00
        E 360 90 1f 60
        E 0 90 62 60
        E 0 90 56 60
        E 0 90 4a 60
        E 120 80 1f 00
        E 0 80 62 00
        E 0 80 56 00
        E 0 80 4a 00
        E 120 90 19 60
        E 0 90 1c 60
        E 0 90 61 60
        E 0 90 55 60
        E 120 80 1c 00
        E 0 80 61 00
        E 0 80 55 00
        E 0 90 1c 60
        E 0 90 61 60
        E 120 80 19 00
        E 0 80 1c 00
        E 0 80 61 00
        E 0 90 1b 60
        E 0 90 61 60
        E 0 90 55 60
        E 0 90 49 60
        E 0 90 3d 60
        E 120 80 1b 00
        E 0 80 61 00
        E 0 80 55 00
        E 0 80 49 00
        E 0 80 3d 00
        E 120 90 19 60
        E 0 90 1a 60
        E 0 90 61 60
        E 0 90 55 60
        E 120 80 1a 00
        E 0 80 61 00
        E 0 80 55 00
        E 120 80 19 00
        E 0 90 2f 60
        E 0 90 63 60
        E 0 90 57 60
        E 0 90 4b 60
        E 0 90 6f 60
        E 120 80 2f 00
        E 0 80 63 00
        E 0 80 57 00
        E 0 80 4b 00
        E 0 80 6f 00
        E 120 90 19 60
        E 0 90 1c 60
        E 0 90 61 60
        E 0 90 55 60
        E 120 80 1c 00
        E 0 80 61 00
        E 0 80 55 00
        E 120 80 19 00
        E 0 90 1c 60
        E 0 90 61 60
        E 0 90 55 60
        E 0 90 49 60
        E 0 90 3d 60
        E 120 80 1c 00
        E 0 80 61 00
        E 0 80 55 00
        E 0 80 49 00
        E 0 80 3d 00
        E 120 90 19 60
        E 0 90 2f 60
        E 0 90 63 60
        E 0 90 57 60
        E 0 90 6f 60
        E 120 80 2f 00
        E 0 80 63 00
        E 0 80 57 00
        E 0 80 6f 00
        E 120 80 19 00
        E 0 90 1c 60
        E 0 90 61 60
        E 0 90 55 60
        E 0 90 49 60
        E 120 80 1c 00
        E 0 80 61 00
        E 0 80 55 00
        E 0 80 49 00
        E 120 90 19 60
        E 0 90 2f 60
        E 0 90 63 60
        E 0 90 57 60
        E 0 90 6f 60
        E 120 80 2f 00
        E 0 80 63 00
        E 0 80 57 00
        E 0 80 6f 00
        E 120 80 19 00
        E 0 90 1a 60
        E 0 90 61 60
        E 0 90 78 60
        E 0 90 79 60
        E 0 90 7a 60
        E 0 90 7b 60
        E 0 90 7c 60
        E 0 90 55 60
        E 0 90 49 60
        E 0 90 3d 60
        E 120 80 1a 00
        E 0 80 61 00
        E 0 80 55 00
        E 0 80 49 00
        E 0 80 3d 00
        E 120 90 19 60
        E 0 90 1c 60
        E 0 90 61 60
        E 0 90 55 60
        E 120 80 1c 00
        E 0 80 61 00
        E 0 80 55 00
        E 120 80 19 00
        E 0 90 2f 60
        E 0 90 63 60
        E 0 90 57 60
        E 0 90 4b 60
        E 0 90 6f 60
        E 120 80 2f 00
        E 0 80 63 00
        E 0 80 57 00
        E 0 80 4b 00
        E 0 80 6f 00
        E 120 90 19 60
        E 0 90 1a 60
        E 0 90 61 60
        E 0 90 55 60
        E 120 80 1a 00
        E 0 80 61 00
        E 0 80 55 00
        E 120 80 19 00
        E 0 90 1d 60
        E 0 90 62 60
        E 0 90 56 60
        E 0 90 4a 60
        E 0 90 6e 60
        E 0 90 3e 60
        E 120 80 1d 00
        E 0 80 62 00
        E 0 80 56 00
        E 0 80 4a 00
        E 0 80 6e 00
        E 0 80 3e 00
        E 120 90 19 60
        E 0 90 1a 60
        E 0 90 61 60
        E 0 90 55 60
        E 120 80 1a 00
        E 0 80 61 00
        E 0 80 55 00
        E 120 80 19 00
        E 0 90 1b 60
        E 0 90 61 60
        E 0 90 55 60
        E 0 90 49 60
        E 120 80 1b 00
        E 0 80 61 00
        E 0 80 55 00
        E 0 80 49 00
        E 120 90 18 60
        E 0 90 60 60
        E 0 90 54 60
        E 120 80 18 00
        E 0 80 60 00
        E 0 80 54 00
        E 120 80 78 00
        E 0 80 79 00
        E 0 80 7a 00
        E 0 80 7b 00
        E 0 80 7c 00
        E 0 90 18 60
        E 0 90 24 60
        E 0 90 60 60
        E 0 90 64 60
        E 0 90 54 60
        E 0 90 58 60
        E 0 90 48 60
        E 0 90 4c 60
        E 0 90 40 60
        E 120 80 18 00
        E 0 80 24 00
        E 0 80 60 00
        E 0 80 64 00
        E 0 80 54 00
        E 0 80 58 00
        E 0 80 48 00
        E 0 80 4c 00
        E 0 80 40 00
        E 360 90 1f 60
        E 0 90 62 60
        E 0 90 56 60
        E 0 90 4a 60
        E 120 80 1f 00
        E 0 80 62 00
        E 0 80 56 00
        E 0 80 4a 00
        E 360 90 1a 60
        E 0 90 1f 60
        E 0 90 61 60
        E 0 90 62 60
        E 0 90 55 60
        E 0 90 56 60
        E 0 90 49 60
        E 0 90 4a 60
        E 0 90 3d 60
        E 0 90 3e 60
        E 120 80 1a 00
        E 0 80 1f 00
        E 0 80 61 00
        E 0 80 62 00
        E 0 80 55 00
        E 0 80 56 00
        E 0 80 49 00
        E 0 80 4a 00
        E 0 80 3d 00
        E 0 80 3e 00
        E 360 90 1f 60
        E 0 90 62 60
        E 0 90 56 60
        E 0 90 4a 60
        E 120 80 1f 00
        E 0 80 62 00
        E 0 80 56 00
        E 0 80 4a 00
        E 120 90 18 60
        E 0 90 60 60
        E 0 90 54 60
        E 120 80 18 00
        E 0 80 60 00
        E 0 80 54 00
        E 120 90 1f 60
        E 0 90 62 60
        E 0 90 56 60
        E 0 90 4a 60
        E 0 90 3e 60
        E 120 80 1f 00
        E 0 80 62 00
        E 0 80 56 00
        E 0 80 4a 00
        E 0 80 3e 00
        E 120 90 18 60
        E 0 90 60 60
        E 0 90 54 60
        E 120 80 18 00
        E 0 80 60 00
        E 0 80 54 00
        E 120 90 18 60
        E 0 90 1f 60
        E 0 90 60 60
        E 0 90 62 60
        E 0 90 54 60
        E 0 90 56 60
        E 0 90 48 60
        E 0 90 4a 60
        E 120 80 18 00
        E 0 80 1f 00
        E 0 80 60 00
        E 0 80 62 00
        E 0 80 54 00
        E 0 80 56 00
        E 0 80 48 00
        E 0 80 4a 00
        E 360 90 1a 60
        E 0 90 1f 60
        E 0 90 61 60
        E 0 90 62 60
        E 0 90 55 60
        E 0 90 56 60
        E 0 90 49 60
        E 0 90 4a 60
        E 0 90 3d 60
        E 0 90 3e 60
        E 120 80 1a 00
        E 0 80 1f 00
        E 0 80 61 00
        E 0 80 62 00
        E 0 80 55 00
        E 0 80 56 00
        E 0 80 49 00
        E 0 80 4a 00
        E 0 80 3d 00
        E 0 80 3e 00
        E 360 90 1f 60
        E 0 90 62 60
        E 0 90 56 60
        E 0 90 4a 60
        E 120 80 1f 00
        E 0 80 62 00
        E 0 80 56 00
        E 0 80 4a 00
        E 120 90 1c 60
        E 0 90 61 60
        E 0 90 55 60
        E 120 80 1c 00
        E 0 80 61 00
        E 0 80 55 00
        E 120 90 2f 60
        E 0 90 63 60
        E 0 90 57 60
        E 0 90 4b 60
        E 0 90 6f 60
        E 0 90 3f 60
        E 120 80 2f 00
        E 0 80 63 00
        E 0 80 57 00
        E 0 80 4b 00
        E 0 80 6f 00
        E 0 80 3f 00
        E 120 90 19 60
        E 0 90 1c 60
        E 0 90 61 60
        E 0 90 55 60
        E 120 80 1c 00
        E 0 80 61 00
        E 0 80 55 00
        E 0 90 1c 60
        E 0 90 61 60
        E 120 80 19 00
        E 0 80 1c 00
        E 0 80 61 00
        E 0 90 1b 60
        E 0 90 61 60
        E 0 90 55 60
        E 0 90 49 60
        E 120 80 1b 00
        E 0 80 61 00
        E 0 80 55 00
        E 0 80 49 00
        E 120 90 19 60
        E 0 90 1a 60
        E 0 90 61 60
        E 0 90 55 60
        E 120 80 1a 00
        E 0 80 61 00
        E 0 80 55 00
        E 120 80 19 00
        E 0 90 1d 60
        E 0 90 61 60
        E 0 90 55 60
        E 0 90 49 60
        E 0 90 3d 60
        E 120 80 1d 00
        E 0 80 61 00
        E 0 80 55 00
        E 0 80 49 00
        E 0 80 3d 00
        E 120 90 19 60
        E 0 90 1a 60
        E 0 90 61 60
        E 0 90 55 60
        E 120 80 1a 00
        E 0 80 61 00
        E 0 80 55 00
        E 120 80 19 00
        E 0 90 1c 60
        E 0 90 61 60
        E 0 90 55 60
        E 0 90 49 60
        E 120 80 1c 00
        E 0 80 61 00
        E 0 80 55 00
        E 0 80 49 00
        E 120 90 19 60
        E 0 90 2f 60
        E 0 90 63 60
        E 0 90 57 60
        E 0 90 6f 60
        E 120 80 2f 00
        E 0 80 63 00
        E 0 80 57 00
        E 0 80 6f 00
        E 120 80 19 00
        E 0 90 1c 60
        E 0 90 61 60
        E 0 90 78 60
        E 0 90 79 60
        E 0 90 7a 60
        E 0 90 7b 60
        E 0 90 7c 60
        E 0 90 55 60
        E 0 90 49 60
        E 0 90 3d 60
        E 120 80 1c 00
        E 0 80 61 00
        E 0 80 55 00
        E 0 80 49 00
        E 0 80 3d 00
        E 120 90 19 60
        E 0 90 1c 60
        E 0 90 61 60
        E 0 90 55 60
        E 120 80 1c 00
        E 0 80 61 00
        E 0 80 55 00
        E 120 80 19 00
        E 0 90 1b 60
        E 0 90 61 60
        E 0 90 55 60
        E 0 90 49 60
        E 120 80 1b 00
        E 0 80 61 00
        E 0 80 55 00
        E 0 80 49 00
        E 120 90 19 60
        E 0 90 1c 60
        E 0 90 61 60
        E 0 90 55 60
        E 120 80 1c 00
        E 0 80 61 00
        E 0 80 55 00
        E 120 80 19 00
        E 0 90 1b 60
        E 0 90 61 60
        E 0 90 55 60
        E 0 90 49 60
        E 0 90 3d 60
        E 120 80 1b 00
        E 0 80 61 00
        E 0 80 55 00
        E 0 80 49 00
        E 0 80 3d 00
        E 120 90 18 60
        E 0 90 19 60
        E 0 90 60 60
        E 0 90 54 60
        E 120 80 18 00
        E 0 80 60 00
        E 0 80 54 00
        E 120 80 19 00
        E 0 90 1f 60
        E 0 90 62 60
        E 0 90 56 60
        E 0 90 4a 60
        E 120 80 1f 00
        E 0 80 62 00
        E 0 80 56 00
        E 0 80 4a 00
        E 120 90 18 60
        E 0 90 19 60
        E 0 90 60 60
        E 0 90 54 60
        E 120 80 18 00
        E 0 80 60 00
        E 0 80 54 00
        E 120 80 78 00
        E 0 80 79 00
        E 0 80 7a 00
        E 0 80 7b 00
        E 0 80 7c 00
        E 0 80 19 00
        E 0 90 18 60
        E 0 90 24 60
        E 0 90 60 60
        E 0 90 64 60
        E 0 90 74 60
        E 0 90 54 60
        E 0 90 58 60
        E 0 90 48 60
        E 0 90 4c 60
        E 0 90 40 60
        E 120 80 18 00
        E 0 80 24 00
        E 0 80 60 00
        E 0 80 64 00
        E 0 80 54 00
        E 0 80 58 00
        E 0 80 48 00
        E 0 80 4c 00
        E 0 80 40 00
        E 360 90 1f 60
        E 0 90 62 60
        E 0 90 56 60
        E 0 90 4a 60
        E 120 80 1f 00
        E 0 80 62 00
        E 0 80 56 00
        E 0 80 4a 00
        E 360 90 1a 60
        E 0 90 1f 60
        E 0 90 61 60
        E 0 90 62 60
        E 0 90 55 60
        E 0 90 56 60
        E 0 90 49 60
        E 0 90 4a 60
        E 0 90 3d 60
        E 0 90 3e 60
        E 120 80 1a 00
        E 0 80 1f 00
        E 0 80 61 00
        E 0 80 62 00
        E 0 80 55 00
        E 0 80 56 00
        E 0 80 49 00
        E 0 80 4a 00
        E 0 80 3d 00
        E 0 80 3e 00
        E 360 90 1f 60
        E 0 90 62 60
        E 0 90 56 60
        E 0 90 4a 60
        E 120 80 1f 00
        E 0 80 62 00
        E 0 80 56 00
        E 0 80 4a 00
        E 120 90 18 60
        E 0 90 60 60
        E 0 90 54 60
        E 120 80 18 00
        E 0 80 60 00
        E 0 80 54 00
        E 120 90 18 60
        E 0 90 1f 60
        E 0 90 60 60
        E 0 90 62 60
        E 0 90 54 60
        E 0 90 56 60
        E 0 90 48 60
        E 0 90 4a 60
        E 0 90 3e 60
        E 120 80 18 00
        E 0 80 1f 00
        E 0 80 60 00
        E 0 80 62 00
        E 0 80 54 00
        E 0 80 56 00
        E 0 80 48 00
        E 0 80 4a 00
        E 0 80 3e 00
        E 360 90 18 60
        E 0 90 1f 60
        E 0 90 60 60
        E 0 90 62 60
        E 0 90 54 60
        E 0 90 56 60
        E 0 90 48 60
        E 0 90 4a 60
        E 120 80 18 00
        E 0 80 1f 00
        E 0 80 60 00
        E 0 80 62 00
        E 0 80 54 00
        E 0 80 56 00
        E 0 80 48 00
        E 0 80 4a 00
        E 360 90 1a 60
        E 0 90 1f 60
        E 0 90 61 60
        E 0 90 62 60
        E 0 90 55 60
        E 0 90 56 60
        E 0 90 49 60
        E 0 90 4a 60
        E 0 90 3d 60
        E 0 90 3e 60
        E 120 80 1a 00
        E 0 80 1f 00
        E 0 80 61 00
        E 0 80 62 00
        E 0 80 55 00
        E 0 80 56 00
        E 0 80 49 00
        E 0 80 4a 00
        E 0 80 3d 00
        E 0 80 3e 00
        E 360 90 19 60
        E 0 90 1f 60
        E 0 90 63 60
        E 0 90 57 60
        E 0 90 4b 60
        E 120 80 1f 00
        E 0 80 63 00
        E 0 80 57 00
        E 0 80 4b 00
        E 120 90 1c 60
        E 0 90 61 60
        E 0 90 55 60
        E 120 80 1c 00
        E 0 80 61 00
        E 0 80 55 00
        E 120 80 19 00
        E 0 90 2f 60
        E 0 90 63 60
        E 0 90 57 60
        E 0 90 4b 60
        E 0 90 6f 60
        E 0 90 3f 60
        E 120 80 74 00
        E 0 80 2f 00
        E 0 80 63 00
        E 0 80 57 00
        E 0 80 4b 00
        E 0 80 6f 00
        E 0 80 3f 00
        E 120 90 19 60
        E 0 90 1c 60
        E 0 90 61 60
        E 0 90 55 60
        E 120 80 1c 00
        E 0 80 61 00
        E 0 80 55 00
        E 120 80 19 00
        E 0 90 1d 60
        E 0 90 61 60
        E 0 90 55 60
        E 0 90 49 60
        E 120 80 1d 00
        E 0 80 61 00
        E 0 80 55 00
        E 0 80 49 00
        E 120 90 19 60
        E 0 90 1a 60
        E 0 90 61 60
        E 0 90 55 60
        E 120 80 1a 00
        E 0 80 61 00
        E 0 80 55 00
        E 120 80 19 00
        E 0 90 1c 60
        E 0 90 61 60
        E 0 90 55 60
        E 0 90 49 60
        E 0 90 3d 60
        E 120 80 1c 00
        E 0 80 61 00
        E 0 80 55 00
        E 0 80 49 00
        E 0 80 3d 00
        E 120 90 19 60
        E 0 90 2f 60
        E 0 90 63 60
        E 0 90 57 60
        E 0 90 6f 60
        E 120 80 2f 00
        E 0 80 63 00
        E 0 80 57 00
        E 0 80 6f 00
        E 120 80 19 00
        E 0 90 1c 60
        E 0 90 61 60
        E 0 90 55 60
        E 0 90 49 60
        E 120 80 1c 00
        E 0 80 61 00
        E 0 80 55 00
        E 0 80 49 00
        E 120 90 19 60
        E 0 90 2f 60
        E 0 90 63 60
        E 0 90 57 60
        E 0 90 6f 60
        E 120 80 2f 00
        E 0 80 63 00
        E 0 80 57 00
        E 0 80 6f 00
        E 120 80 19 00
        E 0 90 1a 60
        E 0 90 61 60
        E 0 90 78 60
        E 0 90 79 60
        E 0 90 7a 60
        E 0 90 7b 60
        E 0 90 7c 60
        E 0 90 55 60
        E 0 90 49 60
        E 0 90 3d 60
        E 120 80 1a 00
        E 0 80 61 00
        E 0 80 55 00
        E 0 80 49 00
        E 0 80 3d 00
        E 120 90 19 60
        E 0 90 1a 60
        E 0 90 61 60
        E 0 90 55 60
        E 120 80 1a 00
        E 0 80 61 00
        E 0 80 55 00
        E 120 80 19 00
        E 0 90 1b 60
        E 0 90 61 60
        E 0 90 55 60
        E 0 90 49 60
        E 120 80 1b 00
        E 0 80 61 00
        E 0 80 55 00
        E 0 80 49 00
        E 120 90 19 60
        E 0 90 1a 60
        E 0 90 61 60
        E 0 90 55 60
        E 120 80 1a 00
        E 0 80 61 00
        E 0 80 55 00
        E 120 80 19 00
        E 0 90 1b 60
        E 0 90 61 60
        E 0 90 55 60
        E 0 90 49 60
        E 0 90 3d 60
        E 120 80 1b 00
        E 0 80 61 00
        E 0 80 55 00
        E 0 80 49 00
        E 0 80 3d 00
        E 120 90 18 60
        E 0 90 19 60
        E 0 90 60 60
        E 0 90 54 60
        E 120 80 18 00
        E 0 80 60 00
        E 0 80 54 00
        E 120 80 19 00
        E 0 90 1f 60
        E 0 90 62 60
        E 0 90 56 60
        E 0 90 4a 60
        E 120 80 1f 00
        E 0 80 62 00
        E 0 80 56 00
        E 0 80 4a 00
        E 120 90 18 60
        E 0 90 60 60
        E 0 90 54 60
        E 120 80 18 00
        E 0 80 60 00
        E 0 80 54 00
        E 120 80 78 00
        E 0 80 79 00
        E 0 80 7a 00
        E 0 80 7b 00
        E 0 80 7c 00
        E 0 90 18 60
        E 0 90 24 60
        E 0 90 60 60
        E 0 90 64 60
        E 0 90 54 60
        E 0 90 58 60
        E 0 90 48 60
        E 0 90 4c 60
        E 0 90 40 60
        E 120 80 18 00
        E 0 80 24 00
        E 0 80 60 00
        E 0 80 64 00
        E 0 80 54 00
        E 0 80 58 00
        E 0 80 48 00
        E 0 80 4c 00
        E 0 80 40 00
        E 360 90 1f 60
        E 0 90 62 60
        E 0 90 56 60
        E 0 90 4a 60
        E 120 80 1f 00
        E 0 80 62 00
        E 0 80 56 00
        E 0 80 4a 00
        E 360 90 1a 60
        E 0 90 1f 60
        E 0 90 61 60
        E 0 90 62 60
        E 0 90 55 60
        E 0 90 56 60
        E 0 90 49 60
        E 0 90 4a 60
        E 0 90 3d 60
        E 0 90 3e 60
        E 120 80 1a 00
        E 0 80 1f 00
        E 0 80 61 00
        E 0 80 62 00
        E 0 80 55 00
        E 0 80 56 00
        E 0 80 49 00
        E 0 80 4a 00
        E 0 80 3d 00
        E 0 80 3e 00
        E 360 90 1f 60
        E 0 90 62 60
        E 0 90 56 60
        E 0 90 4a 60
        E 120 80 1f 00
        E 0 80 62 00
        E 0 80 56 00
        E 0 80 4a 00
        E 120 90 18 60
        E 0 90 60 60
        E 0 90 54 60
        E 120 80 18 00
        E 0 80 60 00
        E 0 80 54 00
        E 120 90 1f 60
        E 0 90 62 60
        E 0 90 56 60
        E 0 90 4a 60
        E 0 90 3e 60
        E 120 80 1f 00
        E 0 80 62 00
        E 0 80 56 00
        E 0 80 4a 00
        E 0 80 3e 00
        E 120 90 1c 60
        E 0 90 61 60
        E 0 90 55 60
        E 120 80 1c 00
        E 0 80 61 00
        E 0 80 55 00
        E 120 90 18 60
        E 0 90 1f 60
        E 0 90 60 60
        E 0 90 62 60
        E 0 90 54 60
        E 0 90 56 60
        E 0 90 48 60
        E 0 90 4a 60
        E 120 80 18 00
        E 0 80 1f 00
        E 0 80 60 00
        E 0 80 62 00
        E 0 80 54 00
        E 0 80 56 00
        E 0 80 48 00
        E 0 80 4a 00
        E 120 90 18 60
        E 0 90 60 60
        E 0 90 54 60
        E 120 80 18 00
        E 0 80 60 00
        E 0 80 54 00
        E 120 90 1a 60
        E 0 90 1f 60
        E 0 90 61 60
        E 0 90 62 60
        E 0 90 55 60
        E 0 90 56 60
        E 0 90 49 60
        E 0 90 4a 60
        E 0 90 3d 60
        E 0 90 3e 60
        E 120 80 1a 00
        E 0 80 1f 00
        E 0 80 61 00
        E 0 80 62 00
        E 0 80 55 00
        E 0 80 56 00
        E 0 80 49 00
        E 0 80 4a 00
        E 0 80 3d 00
        E 0 80 3e 00
        E 360 90 19 60
        E 0 90 1f 60
        E 0 90 63 60
        E 0 90 57 60
        E 0 90 4b 60
        E 120 80 1f 00
        E 0 80 63 00
        E 0 80 57 00
        E 0 80 4b 00
        E 120 90 1c 60
        E 0 90 61 60
        E 0 90 55 60
        E 120 80 1c 00
        E 0 80 61 00
        E 0 80 55 00
        E 0 90 1c 60
        E 0 90 61 60
        E 120 80 19 00
        E 0 80 1c 00
        E 0 80 61 00
        E 0 90 1b 60
        E 0 90 61 60
        E 0 90 55 60
        E 0 90 49 60
        E 0 90 3d 60
        E 120 80 1b 00
        E 0 80 61 00
        E 0 80 55 00
        E 0 80 49 00
        E 0 80 3d 00
        E 120 90 19 60
        E 0 90 1a 60
        E 0 90 61 60
        E 0 90 55 60
        E 120 80 1a 00
        E 0 80 61 00
        E 0 80 55 00
        E 120 80 19 00
        E 0 90 1a 60
        E 0 90 61 60
        E 0 90 55 60
        E 0 90 49 60
        E 120 80 1a 00
        E 0 80 61 00
        E 0 80 55 00
        E 0 80 49 00
        E 120 90 19 60
        E 0 90 2f 60
        E 0 90 63 60
        E 0 90 57 60
        E 0 90 6f 60
        E 120 80 2f 00
        E 0 80 63 00
        E 0 80 57 00
        E 0 80 6f 00
        E 120 80 19 00
        E 0 90 1c 60
        E 0 90 61 60
        E 0 90 55 60
        E 0 90 49 60
        E 0 90 3d 60
        E 120 80 1c 00
        E 0 80 61 00
        E 0 80 55 00
        E 0 80 49 00
        E 0 80 3d 00
        E 120 90 19 60
        E 0 90 2f 60
        E 0 90 63 60
        E 0 90 57 60
        E 0 90 6f 60
        E 120 80 2f 00
        E 0 80 63 00
        E 0 80 57 00
        E 0 80 6f 00
        E 120 80 19 00
        E 0 90 1c 60
        E 0 90 61 60
        E 0 90 55 60
        E 0 90 49 60
        E 120 80 1c 00
        E 0 80 61 00
        E 0 80 55 00
        E 0 80 49 00
        E 120 90 19 60
        E 0 90 1c 60
        E 0 90 61 60
        E 0 90 55 60
        E 120 80 1c 00
        E 0 80 61 00
        E 0 80 55 00
        E 120 80 19 00
        E 0 90 1b 60
        E 0 90 61 60
        E 0 90 78 60
        E 0 90 79 60
        E 0 90 7a 60
        E 0 90 7b 60
        E 0 90 7c 60
        E 0 90 55 60
        E 0 90 49 60
        E 0 90 3d 60
        E 120 80 1b 00
        E 0 80 61 00
        E 0 80 55 00
        E 0 80 49 00
        E 0 80 3d 00
        E 120 90 19 60
        E 0 90 1a 60
        E 0 90 61 60
        E 0 90 55 60
        E 120 80 1a 00
        E 0 80 61 00
        E 0 80 55 00
        E 120 80 19 00
        E 0 90 2f 60
        E 0 90 63 60
        E 0 90 57 60
        E 0 90 4b 60
        E 0 90 6f 60
        E 120 80 2f 00
        E 0 80 63 00
        E 0 80 57 00
        E 0 80 4b 00
        E 0 80 6f 00
        E 120 90 19 60
        E 0 90 1c 60
        E 0 90 61 60
        E 0 90 55 60
        E 120 80 1c 00
        E 0 80 61 00
        E 0 80 55 00
        E 120 80 19 00
        E 0 90 1b 60
        E 0 90 61 60
        E 0 90 55 60
        E 0 90 49 60
        E 0 90 3d 60
        E 120 80 1b 00
        E 0 80 61 00
        E 0 80 55 00
        E 0 80 49 00
        E 0 80 3d 00
        E 120 90 19 60
        E 0 90 1a 60
        E 0 90 61 60
        E 0 90 55 60
        E 120 80 1a 00
        E 0 80 61 00
        E 0 80 55 00
        E 120 80 19 00
        E 0 90 1f 60
        E 0 90 62 60
        E 0 90 56 60
        E 0 90 4a 60
        E 120 80 1f 00
        E 0 80 62 00
        E 0 80 56 00
        E 0 80 4a 00
        E 120 90 18 60
        E 0 90 60 60
        E 0 90 54 60
        E 120 80 18 00
        E 0 80 60 00
        E 0 80 54 00
        E 120 80 78 00
        E 0 80 79 00
        E 0 80 7a 00
        E 0 80 7b 00
        E 0 80 7c 00
        E 0 90 18 60
        E 0 90 24 60
        E 0 90 60 60
        E 0 90 64 60
        E 0 90 54 60
        E 0 90 58 60
        E 0 90 48 60
        E 0 90 4c 60
        E 0 90 40 60
        E 120 80 18 00
        E 0 80 24 00
        E 0 80 60 00
        E 0 80 64 00
        E 0 80 54 00
        E 0 80 58 00
        E 0 80 48 00
        E 0 80 4c 00
        E 0 80 40 00
        E 360 90 1f 60
        E 0 90 62 60
        E 0 90 56 60
        E 0 90 4a 60
        E 120 80 1f 00
        E 0 80 62 00
        E 0 80 56 00
        E 0 80 4a 00
        E 120 90 18 60
        E 0 90 60 60
        E 0 90 54 60
        E 120 80 18 00
        E 0 80 60 00
        E 0 80 54 00
        E 120 90 1a 60
        E 0 90 1f 60
        E 0 90 61 60
        E 0 90 62 60
        E 0 90 55 60
        E 0 90 56 60
        E 0 90 49 60
        E 0 90 4a 60
        E 0 90 3d 60
        E 0 90 3e 60
        E 120 80 1a 00
        E 0 80 1f 00
        E 0 80 61 00
        E 0 80 62 00
        E 0 80 55 00
        E 0 80 56 00
        E 0 80 49 00
        E 0 80 4a 00
        E 0 80 3d 00
        E 0 80 3e 00
        E 360 90 1f 60
        E 0 90 62 60
        E 0 90 56 60
        E 0 90 4a 60
        E 120 80 1f 00
        E 0 80 62 00
        E 0 80 56 00
        E 0 80 4a 00
        E 120 90 18 60
        E 0 90 60 60
        E 0 90 54 60
        E 120 80 18 00
        E 0 80 60 00
        E 0 80 54 00
        E 120 90 18 60
        E 0 90 1f 60
        E 0 90 60 60
        E 0 90 62 60
        E 0 90 54 60
        E 0 90 56 60
        E 0 90 48 60
        E 0 90 4a 60
        E 0 90 3e 60
        E 120 80 18 00
        E 0 80 1f 00
        E 0 80 60 00
        E 0 80 62 00
        E 0 80 54 00
        E 0 80 56 00
        E 0 80 48 00
        E 0 80 4a 00
        E 0 80 3e 00
        E 120 90 1c 60
        E 0 90 61 60
        E 0 90 55 60
        E 120 80 1c 00
        E 0 80 61 00
        E 0 80 55 00
        E 120 90 18 60
        E 0 90 1f 60
        E 0 90 60 60
        E 0 90 62 60
        E 0 90 54 60
        E 0 90 56 60
        E 0 90 48 60
        E 0 90 4a 60
        E 120 80 18 00
        E 0 80 1f 00
        E 0 80 60 00
        E 0 80 62 00
        E 0 80 54 00
        E 0 80 56 00
        E 0 80 48 00
        E 0 80 4a 00
        E 120 90 18 60
        E 0 90 60 60
        E 0 90 54 60
        E 120 80 18 00
        E 0 80 60 00
        E 0 80 54 00
        E 120 90 1a 60
        E 0 90 1f 60
        E 0 90 61 60
        E 0 90 62 60
        E 0 90 55 60
        E 0 90 56 60
        E 0 90 49 60
        E 0 90 4a 60
        E 0 90 3d 60
        E 0 90 3e 60
        E 120 80 1a 00
        E 0 80 1f 00
        E 0 80 61 00
        E 0 80 62 00
        E 0 80 55 00
        E 0 80 56 00
        E 0 80 49 00
        E 0 80 4a 00
        E 0 80 3d 00
        E 0 80 3e 00
        E 360 90 1f 60
        E 0 90 62 60
        E 0 90 56 60
        E 0 90 4a 60
        E 120 80 1f 00
        E 0 80 62 00
        E 0 80 56 00
        E 0 80 4a 00
        E 120 90 19 60
        E 0 90 1c 60
        E 0 90 61 60
        E 0 90 55 60
        E 120 80 1c 00
        E 0 80 61 00
        E 0 80 55 00
        E 0 90 1c 60
        E 0 90 61 60
        E 120 80 19 00
        E 0 80 1c 00
        E 0 80 61 00
        E 0 90 1b 60
        E 0 90 61 60
        E 0 90 55 60
        E 0 90 49 60
        E 0 90 3d 60
        E 120 80 1b 00
        E 0 80 61 00
        E 0 80 55 00
        E 0 80 49 00
        E 0 80 3d 00
        E 120 90 19 60
        E 0 90 1a 60
        E 0 90 61 60
        E 0 90 55 60
        E 120 80 1a 00
        E 0 80 61 00
        E 0 80 55 00
        E 120 80 19 00
        E 0 90 2f 60
        E 0 90 63 60
        E 0 90 57 60
        E 0 90 4b 60
        E 0 90 6f 60
        E 120 80 2f 00
        E 0 80 63 00
        E 0 80 57 00
        E 0 80 4b 00
        E 0 80 6f 00
        E 120 90 19 60
        E 0 90 1c 60
        E 0 90 61 60
        E 0 90 55 60
        E 120 80 1c 00
        E 0 80 61 00
        E 0 80 55 00
        E 120 80 19 00
        E 0 90 1c 60
        E 0 90 61 60
        E 0 90 55 60
        E 0 90 49 60
        E 0 90 3d 60
        E 120 80 1c 00
        E 0 80 61 00
        E 0 80 55 00
        E 0 80 49 00
        E 0 80 3d 00
        E 120 90 19 60
        E 0 90 2f 60
        E 0 90 63 60
        E 0 90 57 60
        E 0 90 6f 60
        E 120 80 2f 00
        E 0 80 63 00
        E 0 80 57 00
        E 0 80 6f 00
        E 120 80 19 00
        E 0 90 1c 60
        E 0 90 61 60
        E 0 90 55 60
        E 0 90 49 60
        E 120 80 1c 00
        E 0 80 61 00
        E 0 80 55 00
        E 0 80 49 00
        E 120 90 19 60
        E 0 90 2f 60
        E 0 90 63 60
        E 0 90 57 60
        E 0 90 6f 60
        E 120 80 2f 00
        E 0 80 63 00
        E 0 80 57 00
        E 0 80 6f 00
        E 120 80 19 00
        E 0 90 1a 60
        E 0 90 61 60
        E 0 90 78 60
        E 0 90 79 60
        E 0 90 7a 60
        E 0 90 7b 60
        E 0 90 7c 60
        E 0 90 55 60
        E 0 90 49 60
        E 0 90 3d 60
        E 120 80 1a 00
        E 0 80 61 00
        E 0 80 55 00
        E 0 80 49 00
        E 0 80 3d 00
        E 120 90 19 60
        E 0 90 1c 60
        E 0 90 61 60
        E 0 90 55 60
        E 120 80 1c 00
        E 0 80 61 00
        E 0 80 55 00
        E 120 80 19 00
        E 0 90 2f 60
        E 0 90 63 60
        E 0 90 57 60
        E 0 90 4b 60
        E 0 90 6f 60
        E 120 80 2f 00
        E 0 80 63 00
        E 0 80 57 00
        E 0 80 4b 00
        E 0 80 6f 00
        E 120 90 19 60
        E 0 90 1a 60
        E 0 90 61 60
        E 0 90 55 60
        E 120 80 1a 00
        E 0 80 61 00
        E 0 80 55 00
        E 120 80 19 00
        E 0 90 1d 60
        E 0 90 62 60
        E 0 90 56 60
        E 0 90 4a 60
        E 0 90 6e 60
        E 0 90 3e 60
        E 120 80 1d 00
        E 0 80 62 00
        E 0 80 56 00
        E 0 80 4a 00
        E 0 80 6e 00
        E 0 80 3e 00
        E 120 90 19 60
        E 0 90 1a 60
        E 0 90 61 60
        E 0 90 55 60
        E 120 80 1a 00
        E 0 80 61 00
        E 0 80 55 00
        E 120 80 19 00
        E 0 90 1b 60
        E 0 90 61 60
        E 0 90 55 60
        E 0 90 49 60
        E 120 80 1b 00
        E 0 80 61 00
        E 0 80 55 00
        E 0 80 49 00
        E 120 90 18 60
        E 0 90 60 60
        E 0 90 54 60
        E 120 80 18 00
        E 0 80 60 00
        E 0 80 54 00
        E 120 80 78 00
        E 0 80 79 00
        E 0 80 7a 00
        E 0 80 7b 00
        E 0 80 7c 00
        E 0 90 18 60
        E 0 90 24 60
        E 0 90 60 60
        E 0 90 64 60
        E 0 90 54 60
        E 0 90 58 60
        E 0 90 48 60
        E 0 90 4c 60
        E 0 90 40 60
        E 120 80 18 00
        E 0 80 24 00
        E 0 80 60 00
        E 0 80 64 00
        E 0 80 54 00
        E 0 80 58 00
        E 0 80 48 00
        E 0 80 4c 00
        E 0 80 40 00
        E 360 90 1f 60
        E 0 90 62 60
        E 0 90 56 60
        E 0 90 4a 60
        E 120 80 1f 00
        E 0 80 62 00
        E 0 80 56 00
        E 0 80 4a 00
        E 360 90 1a 60
        E 0 90 1f 60
        E 0 90 61 60
        E 0 90 62 60
        E 0 90 55 60
        E 0 90 56 60
        E 0 90 49 60
        E 0 90 4a 60
        E 0 90 3d 60
        E 0 90 3e 60
        E 120 80 1a 00
        E 0 80 1f 00
        E 0 80 61 00
        E 0 80 62 00
        E 0 80 55 00
        E 0 80 56 00
        E 0 80 49 00
        E 0 80 4a 00
        E 0 80 3d 00
        E 0 80 3e 00
        E 360 90 1f 60
        E 0 90 62 60
        E 0 90 56 60
        E 0 90 4a 60
        E 120 80 1f 00
        E 0 80 62 00
        E 0 80 56 00
        E 0 80 4a 00
        E 120 90 18 60
        E 0 90 60 60
        E 0 90 54 60
        E 120 80 18 00
        E 0 80 60 00
        E 0 80 54 00
        E 120 90 1f 60
        E 0 90 62 60
        E 0 90 56 60
        E 0 90 4a 60
        E 0 90 3e 60
        E 120 80 1f 00
        E 0 80 62 00
        E 0 80 56 00
        E 0 80 4a 00
        E 0 80 3e 00
        E 120 90 18 60
        E 0 90 60 60
        E 0 90 54 60
        E 120 80 18 00
        E 0 80 60 00
        E 0 80 54 00
        E 120 90 18 60
        E 0 90 1f 60
        E 0 90 60 60
        E 0 90 62 60
        E 0 90 54 60
        E 0 90 56 60
        E 0 90 48 60
        E 0 90 4a 60
        E 120 80 18 00
        E 0 80 1f 00
        E 0 80 60 00
        E 0 80 62 00
        E 0 80 54 00
        E 0 80 56 00
        E 0 80 48 00
        E 0 80 4a 00
        E 360 90 1a 60
        E 0 90 1f 60
        E 0 90 61 60
        E 0 90 62 60
        E 0 90 55 60
        E 0 90 56 60
        E 0 90 49 60
        E 0 90 4a 60
        E 0 90 3d 60
        E 0 90 3e 60
        E 120 80 1a 00
        E 0 80 1f 00
        E 0 80 61 00
        E 0 80 62 00
        E 0 80 55 00
        E 0 80 56 00
        E 0 80 49 00
        E 0 80 4a 00
        E 0 80 3d 00
        E 0 80 3e 00
        E 360 90 1f 60
        E 0 90 62 60
        E 0 90 56 60
        E 0 90 4a 60
        E 120 80 1f 00
        E 0 80 62 00
        E 0 80 56 00
        E 0 80 4a 00
        E 120 90 1c 60
        E 0 90 61 60
        E 0 90 55 60
        E 120 80 1c 00
        E 0 80 61 00
        E 0 80 55 00
        E 120 90 2f 60
        E 0 90 63 60
        E 0 90 57 60
        E 0 90 4b 60
        E 0 90 6f 60
        E 0 90 3f 60
        E 120 80 2f 00
        E 0 80 63 00
        E 0 80 57 00
        E 0 80 4b 00
        E 0 80 6f 00
        E 0 80 3f 00
        E 120 90 19 60
        E 0 90 1c 60
        E 0 90 61 60
        E 0 90 55 60
        E 120 80 1c 00
        E 0 80 61 00
        E 0 80 55 00
        E 0 90 1c 60
        E 0 90 61 60
        E 120 80 19 00
        E 0 80 1c 00
        E 0 80 61 00
        E 0 90 1b 60
        E 0 90 61 60
        E 0 90 55 60
        E 0 90 49 60
        E 120 80 1b 00
        E 0 80 61 00
        E 0 80 55 00
        E 0 80 49 00
        E 120 90 19 60
        E 0 90 1a 60
        E 0 90 61 60
        E 0 90 55 60
        E 120 80 1a 00
        E 0 80 61 00
        E 0 80 55 00
        E 120 80 19 00
        E 0 90 1d 60
        E 0 90 61 60
        E 0 90 55 60
        E 0 90 49 60
        E 0 90 3d 60
        E 120 80 1d 00
        E 0 80 61 00
        E 0 80 55 00
        E 0 80 49 00
        E 0 80 3d 00
        E 120 90 19 60
        E 0 90 1a 60
        E 0 90 61 60
        E 0 90 55 60
        E 120 80 1a 00
        E 0 80 61 00
        E 0 80 55 00
        E 120 80 19 00
        E 0 90 1c 60
        E 0 90 61 60
        E 0 90 55 60
        E 0 90 49 60
        E 120 80 1c 00
        E 0 80 61 00
        E 0 80 55 00
        E 0 80 49 00
        E 120 90 19 60
        E 0 90 2f 60
        E 0 90 63 60
        E 0 90 57 60
        E 0 90 6f 60
        E 120 80 2f 00
        E 0 80 63 00
        E 0 80 57 00
        E 0 80 6f 00
        E 120 80 19 00
        E 0 90 1c 60
        E 0 90 61 60
        E 0 90 78 60
        E 0 90 79 60
        E 0 90 7a 60
        E 0 90 7b 60
        E 0 90 7c 60
        E 0 90 55 60
        E 0 90 49 60
        E 0 90 3d 60
        E 120 80 1c 00
        E 0 80 61 00
        E 0 80 55 00
        E 0 80 49 00
        E 0 80 3d 00
        E 120 90 19 60
        E 0 90 1c 60
        E 0 90 61 60
        E 0 90 55 60
        E 120 80 1c 00
        E 0 80 61 00
        E 0 80 55 00
        E 120 80 19 00
        E 0 90 1b 60
        E 0 90 61 60
        E 0 90 55 60
        E 0 90 49 60
        E 120 80 1b 00
        E 0 80 61 00
        E 0 80 55 00
        E 0 80 49 00
        E 120 90 19 60
        E 0 90 1c 60
        E 0 90 61 60
        E 0 90 55 60
        E 120 80 1c 00
        E 0 80 61 00
        E 0 80 55 00
        E 120 80 19 00
        E 0 90 1b 60
        E 0 90 61 60
        E 0 90 55 60
        E 0 90 49 60
        E 0 90 3d 60
        E 120 80 1b 00
        E 0 80 61 00
        E 0 80 55 00
        E 0 80 49 00
        E 0 80 3d 00
        E 120 90 18 60
        E 0 90 19 60
        E 0 90 60 60
        E 0 90 54 60
        E 120 80 18 00
        E 0 80 60 00
        E 0 80 54 00
        E 120 80 19 00
        E 0 90 1f 60
        E 0 90 62 60
        E 0 90 56 60
        E 0 90 4a 60
        E 120 80 1f 00
        E 0 80 62 00
        E 0 80 56 00
        E 0 80 4a 00
        E 120 90 18 60
        E 0 90 19 60
        E 0 90 60 60
        E 0 90 54 60
        E 120 80 18 00
        E 0 80 60 00
        E 0 80 54 00
        E 120 80 78 00
        E 0 80 79 00
        E 0 80 7a 00
        E 0 80 7b 00
        E 0 80 7c 00
        E 0 80 19 00
        E 0 90 18 60
        E 0 90 24 60
        E 0 90 60 60
        E 0 90 64 60
        E 0 90 54 60
        E 0 90 58 60
        E 0 90 48 60
        E 0 90 4c 60
        E 0 90 40 60
        E 120 80 18 00
        E 0 80 24 00
        E 0 80 60 00
        E 0 80 64 00
        E 0 80 54 00
        E 0 80 58 00
        E 0 80 48 00
        E 0 80 4c 00
        E 0 80 40 00
        E 360 90 1f 60
        E 0 90 62 60
        E 0 90 56 60
        E 0 90 4a 60
        E 120 80 1f 00
        E 0 80 62 00
        E 0 80 56 00
        E 0 80 4a 00
        E 360 90 1a 60
        E 0 90 1f 60
        E 0 90 61 60
        E 0 90 62 60
        E 0 90 55 60
        E 0 90 56 60
        E 0 90 49 60
        E 0 90 4a 60
        E 0 90 3d 60
        E 0 90 3e 60
        E 120 80 1a 00
        E 0 80 1f 00
        E 0 80 61 00
        E 0 80 62 00
        E 0 80 55 00
        E 0 80 56 00
        E 0 80 49 00
        E 0 80 4a 00
        E 0 80 3d 00
        E 0 80 3e 00
        E 360 90 1f 60
        E 0 90 62 60
        E 0 90 56 60
        E 0 90 4a 60
        E 120 80 1f 00
        E 0 80 62 00
        E 0 80 56 00
        E 0 80 4a 00
        E 120 90 18 60
        E 0 90 60 60
        E 0 90 54 60
        E 120 80 18 00
        E 0 80 60 00
        E 0 80 54 00
        E 120 90 18 60
        E 0 90 1f 60
        E 0 90 60 60
        E 0 90 62 60
        E 0 90 54 60
        E 0 90 56 60
        E 0 90 48 60
        E 0 90 4a 60
        E 0 90 3e 60
        E 120 80 18 00
        E 0 80 1f 00
        E 0 80 60 00
        E 0 80 62 00
        E 0 80 54 00
        E 0 80 56 00
        E 0 80 48 00
        E 0 80 4a 00
        E 0 80 3e 00
        E 360 90 18 60
        E 0 90 1f 60
        E 0 90 60 60
        E 0 90 62 60
        E 0 90 54 60
        E 0 90 56 60
        E 0 90 48 60
        E 0 90 4a 60
        E 120 80 18 00
        E 0 80 1f 00
        E 0 80 60 00
        E 0 80 62 00
        E 0 80 54 00
        E 0 80 56 00
        E 0 80 48 00
        E 0 80 4a 00
        E 360 90 1a 60
        E 0 90 1f 60
        E 0 90 61 60
        E 0 90 62 60
        E 0 90 55 60
        E 0 90 56 60
        E 0 90 49 60
        E 0 90 4a 60
        E 0 90 3d 60
        E 0 90 3e 60
        E 120 80 1a 00
        E 0 80 1f 00
        E 0 80 61 00
        E 0 80 62 00
        E 0 80 55 00
        E 0 80 56 00
        E 0 80 49 00
        E 0 80 4a 00
        E 0 80 3d 00
        E 0 80 3e 00
        E 360 90 19 60
        E 0 90 1f 60
        E 0 90 63 60
        E 0 90 57 60
        E 0 90 4b 60
        E 120 80 1f 00
        E 0 80 63 00
        E 0 80 57 00
        E 0 80 4b 00
        E 120 90 1c 60
        E 0 90 61 60
        E 0 90 55 60
        E 120 80 1c 00
        E 0 80 61 00
        E 0 80 55 00
        E 120 80 19 00
        E 0 90 2f 60
        E 0 90 63 60
        E 0 90 57 60
        E 0 90 4b 60
        E 0 90 6f 60
        E 0 90 3f 60
        E 120 80 2f 00
        E 0 80 63 00
        E 0 80 57 00
        E 0 80 4b 00
        E 0 80 6f 00
        E 0 80 3f 00
        E 120 90 19 60
        E 0 90 1c 60
        E 0 90 61 60
        E 0 90 55 60
        E 120 80 1c 00
        E 0 80 61 00
        E 0 80 55 00
        E 120 80 19 00
        E 0 90 1d 60
        E 0 90 61 60
        E 0 90 55 60
        E 0 90 49 60
        E 120 80 1d 00
        E 0 80 61 00
        E 0 80 55 00
        E 0 80 49 00
        E 120 90 19 60
        E 0 90 1a 60
        E 0 90 61 60
        E 0 90 55 60
        E 120 80 1a 00
        E 0 80 61 00
        E 0 80 55 00
        E 120 80 19 00
        E 0 90 1c 60
        E 0 90 61 60
        E 0 90 55 60
        E 0 90 49 60
        E 0 90 3d 60
        E 120 80 1c 00
        E 0 80 61 00
        E 0 80 55 00
        E 0 80 49 00
        E 0 80 3d 00
        E 120 90 19 60
        E 0 90 2f 60
        E 0 90 63 60
        E 0 90 57 60
        E 0 90 6f 60
        E 120 80 2f 00
        E 0 80 63 00
        E 0 80 57 00
        E 0 80 6f 00
        E 120 80 19 00
        E 0 90 1c 60
        E 0 90 61 60
        E 0 90 55 60
        E 0 90 49 60
        E 120 80 1c 00
        E 0 80 61 00
        E 0 80 55 00
        E 0 80 49 00
        E 120 90 19 60
        E 0 90 2f 60
        E 0 90 63 60
        E 0 90 57 60
        E 0 90 6f 60
        E 120 80 2f 00
        E 0 80 63 00
        E 0 80 57 00
        E 0 80 6f 00
        E 120 80 19 00
        E 0 90 1a 60
        E 0 90 61 60
        E 0 90 78 60
        E 0 90 79 60
        E 0 90 7a 60
        E 0 90 7b 60
        E 0 90 7c 60
        E 0 90 55 60
        E 0 90 49 60
        E 0 90 3d 60
        E 120 80 1a 00
        E 0 80 61 00
        E 0 80 55 00
        E 0 80 49 00
        E 0 80 3d 00
        E 120 90 19 60
        E 0 90 1a 60
        E 0 90 61 60
        E 0 90 55 60
        E 120 80 1a 00
        E 0 80 61 00
        E 0 80 55 00
        E 120 80 19 00
        E 0 90 1b 60
        E 0 90 61 60
        E 0 90 55 60
        E 0 90 49 60
        E 120 80 1b 00
        E 0 80 61 00
        E 0 80 55 00
        E 0 80 49 00
        E 120 90 19 60
        E 0 90 1a 60
        E 0 90 61 60
        E 0 90 55 60
        E 120 80 1a 00
        E 0 80 61 00
        E 0 80 55 00
        E 120 80 19 00
        E 0 90 1b 60
        E 0 90 61 60
        E 0 90 55 60
        E 0 90 49 60
        E 0 90 3d 60
        E 120 80 1b 00
        E 0 80 61 00
        E 0 80 55 00
        E 0 80 49 00
        E 0 80 3d 00
        E 120 90 18 60
        E 0 90 19 60
        E 0 90 60 60
        E 0 90 54 60
        E 120 80 18 00
        E 0 80 60 00
        E 0 80 54 00
        E 120 80 19 00
        E 0 90 1f 60
        E 0 90 62 60
        E 0 90 56 60
        E 0 90 4a 60
        E 120 80 1f 00
        E 0 80 62 00
        E 0 80 56 00
        E 0 80 4a 00
        E 120 90 18 60
        E 0 90 60 60
        E 0 90 54 60
        E 120 80 18 00
        E 0 80 60 00
        E 0 80 54 00
        E 120 80 78 00
        E 0 80 79 00
        E 0 80 7a 00
        E 0 80 7b 00
        E 0 80 7c 00
        E 0 90 18 60
        E 0 90 24 60
        E 0 90 60 60
        E 0 90 64 60
        E 0 90 54 60
        E 0 90 58 60
        E 0 90 48 60
        E 0 90 4c 60
        E 0 90 40 60
        E 120 80 18 00
        E 0 80 24 00
        E 0 80 60 00
        E 0 80 64 00
        E 0 80 54 00
        E 0 80 58 00
        E 0 80 48 00
        E 0 80 4c 00
        E 0 80 40 00
        E 360 90 1f 60
        E 0 90 62 60
        E 0 90 56 60
        E 0 90 4a 60
        E 120 80 1f 00
        E 0 80 62 00
        E 0 80 56 00
        E 0 80 4a 00
        E 360 90 1a 60
        E 0 90 1f 60
        E 0 90 61 60
        E 0 90 62 60
        E 0 90 55 60
        E 0 90 56 60
        E 0 90 49 60
        E 0 90 4a 60
        E 0 90 3d 60
        E 0 90 3e 60
        E 120 80 1a 00
        E 0 80 1f 00
        E 0 80 61 00
        E 0 80 62 00
        E 0 80 55 00
        E 0 80 56 00
        E 0 80 49 00
        E 0 80 4a 00
        E 0 80 3d 00
        E 0 80 3e 00
        E 360 90 1f 60
        E 0 90 62 60
        E 0 90 56 60
        E 0 90 4a 60
        E 120 80 1f 00
        E 0 80 62 00
        E 0 80 56 00
        E 0 80 4a 00
        E 120 90 18 60
        E 0 90 60 60
        E 0 90 54 60
        E 120 80 18 00
        E 0 80 60 00
        E 0 80 54 00
        E 120 90 1f 60
        E 0 90 62 60
        E 0 90 56 60
        E 0 90 4a 60
        E 0 90 3e 60
        E 120 80 1f 00
        E 0 80 62 00
        E 0 80 56 00
        E 0 80 4a 00
        E 0 80 3e 00
        E 120 90 1c 60
        E 0 90 61 60
        E 0 90 55 60
        E 120 80 1c 00
        E 0 80 61 00
        E 0 80 55 00
        E 120 90 18 60
        E 0 90 1f 60
        E 0 90 60 60
        E 0 90 62 60
        E 0 90 54 60
        E 0 90 56 60
        E 0 90 48 60
        E 0 90 4a 60
        E 120 80 18 00
        E 0 80 1f 00
        E 0 80 60 00
        E 0 80 62 00
        E 0 80 54 00
        E 0 80 56 00
        E 0 80 48 00
        E 0 80 4a 00
        E 120 90 18 60
        E 0 90 60 60
        E 0 90 54 60
        E 120 80 18 00
        E 0 80 60 00
        E 0 80 54 00
        E 120 90 1a 60
        E 0 90 1f 60
        E 0 90 61 60
        E 0 90 62 60
        E 0 90 55 60
        E 0 90 56 60
        E 0 90 49 60
        E 0 90 4a 60
        E 0 90 3d 60
        E 0 90 3e 60
        E 120 80 1a 00
        E 0 80 1f 00
        E 0 80 61 00
        E 0 80 62 00
        E 0 80 55 00
        E 0 80 56 00
        E 0 80 49 00
        E 0 80 4a 00
        E 0 80 3d 00
        E 0 80 3e 00
        E 360 90 19 60
        E 0 90 1f 60
        E 0 90 63 60
        E 0 90 57 60
        E 0 90 4b 60
        E 120 80 1f 00
        E 0 80 63 00
        E 0 80 57 00
        E 0 80 4b 00
        E 120 90 1c 60
        E 0 90 61 60
        E 0 90 55 60
        E 120 80 1c 00
        E 0 80 61 00
        E 0 80 55 00
        E 0 90 1c 60
        E 0 90 61 60
        E 120 80 19 00
        E 0 80 1c 00
        E 0 80 61 00
        E 0 90 1b 60
        E 0 90 61 60
        E 0 90 55 60
        E 0 90 49 60
        E 0 90 3d 60
        E 120 80 1b 00
        E 0 80 61 00
        E 0 80 55 00
        E 0 80 49 00
        E 0 80 3d 00
        E 120 90 19 60
        E 0 90 1a 60
        E 0 90 61 60
        E 0 90 55 60
        E 120 80 1a 00
        E 0 80 61 00
        E 0 80 55 00
        E 120 80 19 00
        E 0 90 1a 60
        E 0 90 61 60
        E 0 90 55 60
        E 0 90 49 60
        E 120 80 1a 00
        E 0 80 61 00
        E 0 80 55 00
        E 0 80 49 00
        E 120 90 19 60
        E 0 90 2f 60
        E 0 90 63 60
        E 0 90 57 60
        E 0 90 6f 60
        E 120 80 2f 00
        E 0 80 63 00
        E 0 80 57 00
        E 0 80 6f 00
        E 120 80 19 00
        E 0 90 1c 60
        E 0 90 61 60
        E 0 90 55 60
        E 0 90 49 60
        E 0 90 3d 60
        E 120 80 1c 00
        E 0 80 61 00
        E 0 80 55 00
        E 0 80 49 00
        E 0 80 3d 00
        E 120 90 19 60
        E 0 90 2f 60
        E 0 90 63 60
        E 0 90 57 60
        E 0 90 6f 60
        E 120 80 2f 00
        E 0 80 63 00
        E 0 80 57 00
        E 0 80 6f 00
        E 120 80 19 00
        E 0 90 1c 60
        E 0 90 61 60
        E 0 90 55 60
        E 0 90 49 60
        E 120 80 1c 00
        E 0 80 61 00
        E 0 80 55 00
        E 0 80 49 00
        E 120 90 19 60
        E 0 90 1c 60
        E 0 90 61 60
        E 0 90 55 60
        E 120 80 1c 00
        E 0 80 61 00
        E 0 80 55 00
        E 120 80 19 00
        E 0 90 1b 60
        E 0 90 61 60
        E 0 90 55 60
        E 0 90 49 60
        E 0 90 3d 60
        E 120 80 1b 00
        E 0 80 61 00
        E 0 80 55 00
        E 0 80 49 00
        E 0 80 3d 00
        <X 359 0
          /wFbaWRsZV9yZWFsdGltZV0=
        >
        E 9120 b0 7b 00
        GUID {BC1F5BF1-F18B-44F5-A3C0-4D7054E625DA}
        IGNTEMPO 0 120.00000000 4 4
        SRCCOLOR 3
        VELLANE 132 128 60
        COLORMAP "C:\Program Files\REAPER (x64)\Data\color_maps\rockband_guitarbass.png"
        CFGEDITVIEW -22293.631403 4.067158 0 12 0 0 0
        CFGEDIT 1 1 0 1 1 0 1 1 1 1 1 0.25000000 -8 -8 1544 872 0 2 1 1 0.00000000 0 1 1 0 0.500000 0 0 1.000000 64
        KEYSNAP 0 6 "102030050700" 0 "Pentatonic"
        EVTFILTER 0 -1 -1 -1 -1 0 1 0 0 -1.00000000 -1.00000000
      >
    >
  >
  <TRACK '{161FFB84-EA2E-4DE4-92CB-C11A9E74681F}'
    NAME "PART BASS"
    PEAKCOL 16576
    BEAT -1
    AUTOMODE 0
    VOLPAN 1.00000000000000 0.00000000000000 -1.00000000000000 -1.00000000000000 1.00000000000000
    MUTESOLO 0 0 0
    IPHASE 0
    ISBUS 0 0
    BUSCOMP 0 0
    SHOWINMIX 1 0.666700 0.500000 1 0.500000 -1 -1 -1
    FREEMODE 0
    SEL 0
    REC 0 0 0 0 0 0 0
    VU 2
    TRACKHEIGHT 0 0
    INQ 0 0 0 0.5000000000 100 0 0 100
    NCHAN 2
    FX 1
    TRACKID {161FFB84-EA2E-4DE4-92CB-C11A9E74681F}
    PERF 0
    MIDIOUT -1
    <MIDINOTENAMES
      0 127 "TRILL MARKER"
      0 126 "TREMOLO MARKER"
      0 125 "---"
      0 124 "BRE"
      0 123 "BRE"
      0 122 "BRE"
      0 121 "BRE"
      0 120 "BRE (use all 5)"
      0 119 "----"
      0 116 "OVERDRIVE"
      0 115 "----"
      0 103 "Solo Marker"
      0 102 "Force HOPO Off"
      0 101 "Force HOPO On"
      0 100 "EXPERT Orange"
      0 99 "EXPERT Blue"
      0 98 "EXPERT Yellow"
      0 97 "EXPERT Red"
      0 96 "EXPERT Green"
      0 95 "----"
      0 90 "Force HOPO Off"
      0 89 "Force HOPO On"
      0 88 "HARD Orange"
      0 87 "HARD Blue"
      0 86 "HARD Yellow"
      0 85 "HARD Red"
      0 84 "HARD Green"
      0 77 "----"
      0 76 "MEDIUM Orange"
      0 75 "MEDIUM Blue"
      0 74 "MEDIUM Yellow"
      0 73 "MEDIUM Red"
      0 72 "MEDIUM Green"
      0 65 "----"
      0 64 "EASY Orange"
      0 63 "EASY Blue"
      0 62 "EASY Yellow"
      0 61 "EASY Red"
      0 60 "EASY Green"
      0 59 "Fret 12"
      0 57 "Fret 11"
      0 56 "Fret 10"
      0 55 "Fret 9"
      0 53 "Fret 8"
      0 52 "Fret 7"
      0 50 "Fret 6"
      0 49 "Fret 5"
      0 47 "Fret 4"
      0 45 "Fret 3"
      0 43 "Fret 2"
      0 40 "Fret 1"
    >
    MAINSEND 1 0
    <FXCHAIN
      WNDRECT 0 43 891 559
      SHOW 0
      LASTSEL 0
      DOCKED 0
      BYPASS 0 0
      <VST "VSTi: RBN Preview (RBN)" "rbprev_vst64.dll" 0 ""
        dnBicu5e7f4AAAAAAgAAAAEAAAAAAAAAAgAAAAAAAAAEAAAAAQAAAA==
        AAAQAAAAqgAAABAAAAA=
      >
      FLOATPOS 0 0 0 0
      FXID {2250CA65-E119-4115-B05D-3107F7C72C9E}
      WAK 0
    >
    <ITEM
      POSITION 0.00000000000000
      SNAPOFFS 0.00000000000000
      LENGTH 276.11399999999998
      LOOP 0
      ALLTAKES 0
      SEL 0
      FADEIN 1 0.000000 0.000000 1 0
      FADEOUT 1 0.000000 0.000000 1 0
      MUTE 0
      IGUID {DF374B04-D649-4651-9F86-B1E942ADCD25}
      IID 2
      NAME "PART BASS"
      VOLPAN 1.000000 0.000000 1.000000 -1.000000
      SOFFS 0.00000000000000 0.00000000000000
      PLAYRATE 1.00000000000000 1 0.00000000000000 -1
      CHANMODE 0
      GUID {C72DEB6B-799E-4618-A6BE-A750C3B66C1E}
      <SOURCE MIDI
        HASDATA 1 480 QN
        POOLEDEVTS {8642421C-81D0-4ECD-A65A-18C396ED9911}
        <X 0 0
          /wNQQVJUIEJBU1M=
        >
        <X 5760 0
          /wFbaWRsZV0=
        >
        <X 29280 0
          /wFbcGxheV0=
        >
        E 960 90 2f 60
        E 0 90 62 60
        E 0 90 56 60
        E 0 90 4a 60
        E 120 80 4a 00
        E 240 80 2f 00
        E 0 80 62 00
        E 0 80 56 00
        E 120 90 32 60
        E 0 90 63 60
        E 0 90 57 60
        E 0 90 4b 60
        E 0 90 3e 60
        E 120 80 4b 00
        E 0 80 3e 00
        E 240 80 63 00
        E 0 80 57 00
        E 120 90 59 60
        E 0 90 62 60
        E 0 90 65 60
        E 0 90 56 60
        E 0 90 4a 60
        E 120 80 4a 00
        E 240 80 62 00
        E 0 80 56 00
        E 120 90 61 60
        E 0 90 55 60
        E 0 90 49 60
        E 0 90 3c 60
        E 120 80 59 00
        E 0 80 65 00
        E 0 80 61 00
        E 0 80 55 00
        E 0 80 49 00
        E 0 80 3c 00
        E 360 90 63 60
        E 0 90 58 60
        E 0 90 4b 60
        E 120 80 63 00
        E 0 90 59 60
        E 0 90 64 60
        E 0 90 65 60
        E 360 80 4b 00
        E 360 80 58 00
        E 0 80 59 00
        E 0 80 64 00
        E 0 80 65 00
        E 120 90 63 60
        E 0 90 57 60
        E 0 90 4b 60
        E 120 80 63 00
        E 0 80 57 00
        E 0 80 4b 00
        E 240 80 32 00
        E 120 90 2f 60
        E 0 90 62 60
        E 0 90 56 60
        E 0 90 4a 60
        E 0 90 3d 60
        E 120 80 62 00
        E 0 80 56 00
        E 0 80 4a 00
        E 0 80 3d 00
        E 360 90 62 60
        E 0 90 56 60
        E 0 90 4a 60
        E 120 80 62 00
        E 0 80 56 00
        E 0 80 4a 00
        E 360 90 61 60
        E 0 90 55 60
        E 0 90 49 60
        E 0 90 3c 60
        E 120 80 61 00
        E 0 80 55 00
        E 0 80 49 00
        E 0 80 3c 00
        E 360 90 61 60
        E 0 90 55 60
        E 0 90 49 60
        E 0 90 3c 60
        E 120 80 61 00
        E 0 80 55 00
        E 0 80 49 00
        E 0 80 3c 00
        E 360 90 61 60
        E 0 90 55 60
        E 0 90 49 60
        E 0 90 3c 60
        E 120 80 61 00
        E 0 80 55 00
        E 0 80 49 00
        E 0 80 3c 00
        E 360 90 61 60
        E 0 90 55 60
        E 0 90 49 60
        E 0 90 3c 60
        E 120 80 61 00
        E 0 80 55 00
        E 0 80 49 00
        E 0 80 3c 00
        E 360 90 61 60
        E 0 90 55 60
        E 0 90 49 60
        E 0 90 3c 60
        E 120 80 61 00
        E 0 80 55 00
        E 0 80 49 00
        E 0 80 3c 00
        E 360 90 60 60
        E 0 90 54 60
        E 0 90 48 60
        E 120 80 60 00
        E 0 80 54 00
        E 0 80 48 00
        E 120 90 61 60
        E 0 90 55 60
        E 120 80 61 00
        E 0 80 55 00
        E 120 90 62 60
        E 0 90 56 60
        E 0 90 4a 60
        E 0 90 3d 60
        E 120 80 62 00
        E 0 80 56 00
        E 0 80 4a 00
        E 0 80 3d 00
        E 120 90 60 60
        E 0 90 54 60
        E 120 80 60 00
        E 0 80 54 00
        E 120 90 61 60
        E 0 90 55 60
        E 0 90 49 60
        E 120 80 61 00
        E 0 80 55 00
        E 0 80 49 00
        E 120 90 62 60
        E 0 90 56 60
        E 120 80 2f 00
        E 0 80 62 00
        E 0 80 56 00
        E 120 90 32 60
        E 0 90 63 60
        E 0 90 57 60
        E 0 90 4b 60
        E 0 90 3e 60
        E 120 80 57 00
        E 0 80 4b 00
        E 0 80 3e 00
        E 240 80 63 00
        E 120 90 59 60
        E 0 90 62 60
        E 0 90 65 60
        E 0 90 56 60
        E 0 90 4a 60
        E 120 80 56 00
        E 0 80 4a 00
        E 240 80 62 00
        E 120 90 61 60
        E 0 90 55 60
        E 0 90 49 60
        E 0 90 3c 60
        E 120 80 59 00
        E 0 80 65 00
        E 0 80 61 00
        E 0 80 55 00
        E 0 80 49 00
        E 0 80 3c 00
        E 360 90 63 60
        E 0 90 58 60
        E 0 90 4b 60
        E 120 80 63 00
        E 0 90 59 60
        E 0 90 64 60
        E 0 90 65 60
        E 480 80 4b 00
        E 120 80 58 00
        E 120 80 59 00
        E 0 80 64 00
        E 0 80 65 00
        E 120 90 63 60
        E 0 90 57 60
        E 0 90 4b 60
        E 120 80 63 00
        E 0 80 57 00
        E 0 80 4b 00
        E 360 90 62 60
        E 0 90 56 60
        E 0 90 4a 60
        E 0 90 3d 60
        E 120 80 62 00
        E 0 80 56 00
        E 0 80 4a 00
        E 0 80 3d 00
        E 240 80 32 00
        E 120 90 2d 60
        E 0 90 64 60
        E 0 90 58 60
        E 0 90 4b 60
        E 120 80 64 00
        E 0 80 58 00
        E 0 80 4b 00
        E 240 80 2d 00
        E 120 90 2f 60
        E 0 90 61 60
        E 0 90 55 60
        E 0 90 49 60
        E 0 90 3c 60
        E 120 80 61 00
        E 0 80 55 00
        E 0 80 49 00
        E 0 80 3c 00
        E 360 90 61 60
        E 0 90 55 60
        E 0 90 49 60
        E 0 90 3c 60
        E 120 80 61 00
        E 0 80 55 00
        E 0 80 49 00
        E 0 80 3c 00
        E 360 90 61 60
        E 0 90 55 60
        E 0 90 49 60
        E 0 90 3c 60
        E 120 80 61 00
        E 0 80 55 00
        E 0 80 49 00
        E 0 80 3c 00
        E 360 90 61 60
        E 0 90 55 60
        E 0 90 49 60
        E 0 90 3c 60
        E 120 80 61 00
        E 0 80 55 00
        E 0 80 49 00
        E 0 80 3c 00
        E 360 90 61 60
        E 0 90 55 60
        E 0 90 49 60
        E 0 90 3c 60
        E 120 80 61 00
        E 0 80 55 00
        E 0 80 49 00
        E 0 80 3c 00
        E 360 90 60 60
        E 0 90 54 60
        E 0 90 48 60
        E 120 80 60 00
        E 0 80 54 00
        E 0 80 48 00
        E 120 90 61 60
        E 0 90 55 60
        E 120 80 61 00
        E 0 80 55 00
        E 120 90 62 60
        E 0 90 56 60
        E 0 90 4a 60
        E 0 90 3d 60
        E 120 80 62 00
        E 0 80 56 00
        E 0 80 4a 00
        E 0 80 3d 00
        E 120 90 60 60
        E 0 90 54 60
        E 120 80 60 00
        E 0 80 54 00
        E 120 90 61 60
        E 0 90 55 60
        E 0 90 49 60
        E 120 80 61 00
        E 0 80 55 00
        E 0 80 49 00
        E 120 90 62 60
        E 0 90 56 60
        E 120 80 2f 00
        E 0 80 62 00
        E 0 80 56 00
        E 120 90 32 60
        E 0 90 63 60
        E 0 90 74 60
        E 0 90 57 60
        E 0 90 4b 60
        E 0 90 3e 60
        E 120 80 4b 00
        E 0 80 3e 00
        E 240 80 63 00
        E 0 80 57 00
        E 120 90 59 60
        E 0 90 62 60
        E 0 90 65 60
        E 0 90 56 60
        E 0 90 4a 60
        E 120 80 4a 00
        E 240 80 62 00
        E 0 80 56 00
        E 120 90 61 60
        E 0 90 55 60
        E 0 90 49 60
        E 0 90 3c 60
        E 120 80 59 00
        E 0 80 65 00
        E 0 80 61 00
        E 0 80 55 00
        E 0 80 49 00
        E 0 80 3c 00
        E 360 90 63 60
        E 0 90 58 60
        E 0 90 4b 60
        E 120 80 63 00
        E 0 90 59 60
        E 0 90 64 60
        E 0 90 65 60
        E 360 80 4b 00
        E 360 80 58 00
        E 0 80 59 00
        E 0 80 64 00
        E 0 80 65 00
        E 120 90 63 60
        E 0 90 57 60
        E 0 90 4b 60
        E 120 80 63 00
        E 0 80 57 00
        E 0 80 4b 00
        E 240 80 32 00
        E 120 90 2f 60
        E 0 90 62 60
        E 0 90 56 60
        E 0 90 4a 60
        E 0 90 3d 60
        E 120 80 3d 00
        E 480 80 4a 00
        E 120 80 62 00
        E 0 80 56 00
        E 240 90 61 60
        E 0 90 55 60
        E 0 90 49 60
        E 0 90 3c 60
        E 120 80 74 00
        E 0 80 61 00
        E 0 80 55 00
        E 0 80 49 00
        E 0 80 3c 00
        E 360 90 61 60
        E 0 90 55 60
        E 0 90 49 60
        E 0 90 3c 60
        E 120 80 61 00
        E 0 80 55 00
        E 0 80 49 00
        E 0 80 3c 00
        E 360 90 61 60
        E 0 90 55 60
        E 0 90 49 60
        E 0 90 3c 60
        E 120 80 61 00
        E 0 80 55 00
        E 0 80 49 00
        E 0 80 3c 00
        E 360 90 61 60
        E 0 90 55 60
        E 0 90 49 60
        E 0 90 3c 60
        E 120 80 61 00
        E 0 80 55 00
        E 0 80 49 00
        E 0 80 3c 00
        E 360 90 61 60
        E 0 90 55 60
        E 0 90 49 60
        E 0 90 3c 60
        E 120 80 61 00
        E 0 80 55 00
        E 0 80 49 00
        E 0 80 3c 00
        E 360 90 60 60
        E 0 90 54 60
        E 0 90 48 60
        E 120 80 60 00
        E 0 80 54 00
        E 0 80 48 00
        E 120 90 61 60
        E 0 90 55 60
        E 120 80 61 00
        E 0 80 55 00
        E 120 90 62 60
        E 0 90 56 60
        E 0 90 4a 60
        E 0 90 3d 60
        E 120 80 62 00
        E 0 80 56 00
        E 0 80 4a 00
        E 0 80 3d 00
        E 120 90 60 60
        E 0 90 54 60
        E 120 80 60 00
        E 0 80 54 00
        E 120 90 61 60
        E 0 90 55 60
        E 0 90 49 60
        E 120 80 61 00
        E 0 80 55 00
        E 0 80 49 00
        E 120 90 62 60
        E 0 90 56 60
        E 120 80 2f 00
        E 0 80 62 00
        E 0 80 56 00
        E 120 90 32 60
        E 0 90 63 60
        E 0 90 57 60
        E 0 90 4b 60
        E 0 90 3e 60
        E 120 80 4b 00
        E 0 80 3e 00
        E 240 80 63 00
        E 0 80 57 00
        E 120 90 59 60
        E 0 90 62 60
        E 0 90 65 60
        E 0 90 56 60
        E 0 90 4a 60
        E 120 80 4a 00
        E 240 80 62 00
        E 0 80 56 00
        E 120 90 61 60
        E 0 90 55 60
        E 0 90 49 60
        E 0 90 3c 60
        E 120 80 59 00
        E 0 80 65 00
        E 0 80 61 00
        E 0 80 55 00
        E 0 80 49 00
        E 0 80 3c 00
        E 360 90 63 60
        E 0 90 58 60
        E 0 90 4b 60
        E 120 80 63 00
        E 0 90 59 60
        E 0 90 64 60
        E 0 90 65 60
        E 360 80 4b 00
        E 360 80 58 00
        E 0 80 59 00
        E 0 80 64 00
        E 0 80 65 00
        E 120 90 63 60
        E 0 90 57 60
        E 0 90 4b 60
        E 120 80 63 00
        E 0 80 57 00
        E 0 80 4b 00
        E 360 90 62 60
        E 0 90 56 60
        E 0 90 4a 60
        E 0 90 3d 60
        E 120 80 62 00
        E 0 80 56 00
        E 0 80 4a 00
        E 0 80 3d 00
        E 240 80 32 00
        E 120 90 2d 60
        E 0 90 64 60
        E 0 90 58 60
        E 0 90 4b 60
        E 120 80 64 00
        E 0 80 58 00
        E 0 80 4b 00
        E 240 80 2d 00
        E 120 90 2f 60
        E 0 90 61 60
        E 0 90 55 60
        E 0 90 49 60
        E 0 90 3c 60
        E 120 80 61 00
        E 0 80 55 00
        E 0 80 49 00
        E 0 80 3c 00
        E 360 90 61 60
        E 0 90 55 60
        E 0 90 49 60
        E 0 90 3c 60
        E 120 80 61 00
        E 0 80 55 00
        E 0 80 49 00
        E 0 80 3c 00
        E 360 90 61 60
        E 0 90 55 60
        E 0 90 49 60
        E 0 90 3c 60
        E 120 80 61 00
        E 0 80 55 00
        E 0 80 49 00
        E 0 80 3c 00
        E 360 90 61 60
        E 0 90 55 60
        E 0 90 49 60
        E 0 90 3c 60
        E 120 80 61 00
        E 0 80 55 00
        E 0 80 49 00
        E 0 80 3c 00
        E 360 90 61 60
        E 0 90 55 60
        E 0 90 49 60
        E 0 90 3c 60
        E 120 80 61 00
        E 0 80 55 00
        E 0 80 49 00
        E 0 80 3c 00
        E 360 90 60 60
        E 0 90 54 60
        E 0 90 48 60
        E 120 80 60 00
        E 0 80 54 00
        E 0 80 48 00
        E 120 90 61 60
        E 0 90 55 60
        E 120 80 61 00
        E 0 80 55 00
        E 120 90 62 60
        E 0 90 56 60
        E 0 90 4a 60
        E 0 90 3d 60
        E 120 80 62 00
        E 0 80 56 00
        E 0 80 4a 00
        E 0 80 3d 00
        E 120 90 60 60
        E 0 90 54 60
        E 120 80 60 00
        E 0 80 54 00
        E 120 90 61 60
        E 0 90 55 60
        E 0 90 49 60
        E 120 80 61 00
        E 0 80 55 00
        E 0 80 49 00
        E 120 90 62 60
        E 0 90 56 60
        E 120 80 62 00
        E 0 80 56 00
        E 120 80 2f 00
        <X 240 0
          /wFbaWRsZV0=
        >
        <X 29280 0
          /wFbcGxheV0=
        >
        E 240 90 2f 60
        E 480 90 62 60
        E 0 90 74 60
        E 0 90 56 60
        E 0 90 4a 60
        E 120 80 4a 00
        E 240 80 2f 00
        E 0 80 62 00
        E 0 80 56 00
        E 120 90 32 60
        E 0 90 63 60
        E 0 90 57 60
        E 0 90 4b 60
        E 0 90 3e 60
        E 120 80 4b 00
        E 0 80 3e 00
        E 240 80 63 00
        E 0 80 57 00
        E 120 90 59 60
        E 0 90 62 60
        E 0 90 65 60
        E 0 90 56 60
        E 0 90 4a 60
        E 120 80 4a 00
        E 240 80 62 00
        E 0 80 56 00
        E 120 90 61 60
        E 0 90 55 60
        E 0 90 49 60
        E 0 90 3c 60
        E 120 80 59 00
        E 0 80 65 00
        E 0 80 61 00
        E 0 80 55 00
        E 0 80 49 00
        E 0 80 3c 00
        E 360 90 63 60
        E 0 90 58 60
        E 0 90 4b 60
        E 120 80 63 00
        E 0 90 59 60
        E 0 90 64 60
        E 0 90 65 60
        E 360 80 4b 00
        E 360 80 58 00
        E 0 80 59 00
        E 0 80 64 00
        E 0 80 65 00
        E 120 90 63 60
        E 0 90 57 60
        E 0 90 4b 60
        E 120 80 63 00
        E 0 80 57 00
        E 0 80 4b 00
        E 240 80 32 00
        E 120 90 2f 60
        E 0 90 62 60
        E 0 90 56 60
        E 0 90 4a 60
        E 0 90 3d 60
        E 120 80 62 00
        E 0 80 56 00
        E 0 80 4a 00
        E 0 80 3d 00
        E 360 90 62 60
        E 0 90 56 60
        E 0 90 4a 60
        E 120 80 62 00
        E 0 80 56 00
        E 0 80 4a 00
        E 360 90 61 60
        E 0 90 55 60
        E 0 90 49 60
        E 0 90 3c 60
        E 120 80 74 00
        E 0 80 61 00
        E 0 80 55 00
        E 0 80 49 00
        E 0 80 3c 00
        E 360 90 61 60
        E 0 90 55 60
        E 0 90 49 60
        E 0 90 3c 60
        E 120 80 61 00
        E 0 80 55 00
        E 0 80 49 00
        E 0 80 3c 00
        E 360 90 61 60
        E 0 90 55 60
        E 0 90 49 60
        E 0 90 3c 60
        E 120 80 61 00
        E 0 80 55 00
        E 0 80 49 00
        E 0 80 3c 00
        E 360 90 61 60
        E 0 90 55 60
        E 0 90 49 60
        E 0 90 3c 60
        E 120 80 61 00
        E 0 80 55 00
        E 0 80 49 00
        E 0 80 3c 00
        E 360 90 61 60
        E 0 90 55 60
        E 0 90 49 60
        E 0 90 3c 60
        E 120 80 61 00
        E 0 80 55 00
        E 0 80 49 00
        E 0 80 3c 00
        E 360 90 60 60
        E 0 90 54 60
        E 0 90 48 60
        E 120 80 60 00
        E 0 80 54 00
        E 0 80 48 00
        E 120 90 61 60
        E 0 90 55 60
        E 120 80 61 00
        E 0 80 55 00
        E 120 90 62 60
        E 0 90 56 60
        E 0 90 4a 60
        E 0 90 3d 60
        E 120 80 62 00
        E 0 80 56 00
        E 0 80 4a 00
        E 0 80 3d 00
        E 120 90 60 60
        E 0 90 54 60
        E 120 80 60 00
        E 0 80 54 00
        E 120 90 61 60
        E 0 90 55 60
        E 0 90 49 60
        E 120 80 61 00
        E 0 80 55 00
        E 0 80 49 00
        E 120 90 62 60
        E 0 90 56 60
        E 120 80 2f 00
        E 0 80 62 00
        E 0 80 56 00
        E 120 90 32 60
        E 0 90 63 60
        E 0 90 57 60
        E 0 90 4b 60
        E 0 90 3e 60
        E 120 80 57 00
        E 0 80 4b 00
        E 0 80 3e 00
        E 240 80 63 00
        E 120 90 59 60
        E 0 90 62 60
        E 0 90 65 60
        E 0 90 56 60
        E 0 90 4a 60
        E 120 80 56 00
        E 0 80 4a 00
        E 240 80 62 00
        E 120 90 61 60
        E 0 90 55 60
        E 0 90 49 60
        E 0 90 3c 60
        E 120 80 59 00
        E 0 80 65 00
        E 0 80 61 00
        E 0 80 55 00
        E 0 80 49 00
        E 0 80 3c 00
        E 360 90 63 60
        E 0 90 58 60
        E 0 90 4b 60
        E 120 80 63 00
        E 0 90 59 60
        E 0 90 64 60
        E 0 90 65 60
        E 480 80 4b 00
        E 120 80 58 00
        E 120 80 59 00
        E 0 80 64 00
        E 0 80 65 00
        E 120 90 63 60
        E 0 90 57 60
        E 0 90 4b 60
        E 120 80 63 00
        E 0 80 57 00
        E 0 80 4b 00
        E 360 90 62 60
        E 0 90 56 60
        E 0 90 4a 60
        E 0 90 3d 60
        E 120 80 62 00
        E 0 80 56 00
        E 0 80 4a 00
        E 0 80 3d 00
        E 240 80 32 00
        E 120 90 2d 60
        E 0 90 64 60
        E 0 90 58 60
        E 0 90 4b 60
        E 120 80 64 00
        E 0 80 58 00
        E 0 80 4b 00
        E 240 80 2d 00
        E 120 90 2f 60
        E 0 90 61 60
        E 0 90 55 60
        E 0 90 49 60
        E 0 90 3c 60
        E 120 80 61 00
        E 0 80 55 00
        E 0 80 49 00
        E 0 80 3c 00
        E 360 90 61 60
        E 0 90 55 60
        E 0 90 49 60
        E 0 90 3c 60
        E 120 80 61 00
        E 0 80 55 00
        E 0 80 49 00
        E 0 80 3c 00
        E 360 90 61 60
        E 0 90 55 60
        E 0 90 49 60
        E 0 90 3c 60
        E 120 80 61 00
        E 0 80 55 00
        E 0 80 49 00
        E 0 80 3c 00
        E 360 90 61 60
        E 0 90 55 60
        E 0 90 49 60
        E 0 90 3c 60
        E 120 80 61 00
        E 0 80 55 00
        E 0 80 49 00
        E 0 80 3c 00
        E 360 90 61 60
        E 0 90 55 60
        E 0 90 49 60
        E 0 90 3c 60
        E 120 80 61 00
        E 0 80 55 00
        E 0 80 49 00
        E 0 80 3c 00
        E 360 90 60 60
        E 0 90 54 60
        E 0 90 48 60
        E 120 80 60 00
        E 0 80 54 00
        E 0 80 48 00
        E 120 90 61 60
        E 0 90 55 60
        E 120 80 61 00
        E 0 80 55 00
        E 120 90 62 60
        E 0 90 56 60
        E 0 90 4a 60
        E 0 90 3d 60
        E 120 80 62 00
        E 0 80 56 00
        E 0 80 4a 00
        E 0 80 3d 00
        E 120 90 60 60
        E 0 90 54 60
        E 120 80 60 00
        E 0 80 54 00
        E 120 90 61 60
        E 0 90 55 60
        E 0 90 49 60
        E 120 80 61 00
        E 0 80 55 00
        E 0 80 49 00
        E 120 90 62 60
        E 0 90 56 60
        E 120 80 2f 00
        E 0 80 62 00
        E 0 80 56 00
        E 120 90 32 60
        E 0 90 63 60
        E 0 90 57 60
        E 0 90 4b 60
        E 0 90 3e 60
        E 120 80 4b 00
        E 0 80 3e 00
        E 240 80 63 00
        E 0 80 57 00
        E 120 90 59 60
        E 0 90 62 60
        E 0 90 65 60
        E 0 90 56 60
        E 0 90 4a 60
        E 120 80 4a 00
        E 240 80 62 00
        E 0 80 56 00
        E 120 90 61 60
        E 0 90 55 60
        E 0 90 49 60
        E 0 90 3c 60
        E 120 80 59 00
        E 0 80 65 00
        E 0 80 61 00
        E 0 80 55 00
        E 0 80 49 00
        E 0 80 3c 00
        E 360 90 63 60
        E 0 90 58 60
        E 0 90 4b 60
        E 120 80 63 00
        E 0 90 59 60
        E 0 90 64 60
        E 0 90 65 60
        E 360 80 4b 00
        E 360 80 58 00
        E 0 80 59 00
        E 0 80 64 00
        E 0 80 65 00
        E 120 90 63 60
        E 0 90 57 60
        E 0 90 4b 60
        E 120 80 63 00
        E 0 80 57 00
        E 0 80 4b 00
        E 240 80 32 00
        E 120 90 2f 60
        E 0 90 62 60
        E 0 90 56 60
        E 0 90 4a 60
        E 0 90 3d 60
        E 120 80 3d 00
        E 480 80 4a 00
        E 120 80 62 00
        E 0 80 56 00
        E 240 90 61 60
        E 0 90 55 60
        E 0 90 49 60
        E 0 90 3c 60
        E 120 80 61 00
        E 0 80 55 00
        E 0 80 49 00
        E 0 80 3c 00
        E 360 90 61 60
        E 0 90 55 60
        E 0 90 49 60
        E 0 90 3c 60
        E 120 80 61 00
        E 0 80 55 00
        E 0 80 49 00
        E 0 80 3c 00
        E 360 90 61 60
        E 0 90 55 60
        E 0 90 49 60
        E 0 90 3c 60
        E 120 80 61 00
        E 0 80 55 00
        E 0 80 49 00
        E 0 80 3c 00
        E 360 90 61 60
        E 0 90 55 60
        E 0 90 49 60
        E 0 90 3c 60
        E 120 80 61 00
        E 0 80 55 00
        E 0 80 49 00
        E 0 80 3c 00
        E 360 90 61 60
        E 0 90 55 60
        E 0 90 49 60
        E 0 90 3c 60
        E 120 80 61 00
        E 0 80 55 00
        E 0 80 49 00
        E 0 80 3c 00
        E 360 90 60 60
        E 0 90 54 60
        E 0 90 48 60
        E 120 80 60 00
        E 0 80 54 00
        E 0 80 48 00
        E 120 90 61 60
        E 0 90 55 60
        E 120 80 61 00
        E 0 80 55 00
        E 120 90 62 60
        E 0 90 56 60
        E 0 90 4a 60
        E 0 90 3d 60
        E 120 80 62 00
        E 0 80 56 00
        E 0 80 4a 00
        E 0 80 3d 00
        E 120 90 60 60
        E 0 90 54 60
        E 120 80 60 00
        E 0 80 54 00
        E 120 90 61 60
        E 0 90 55 60
        E 0 90 49 60
        E 120 80 61 00
        E 0 80 55 00
        E 0 80 49 00
        E 120 90 62 60
        E 0 90 56 60
        E 120 80 2f 00
        E 0 80 62 00
        E 0 80 56 00
        E 120 90 32 60
        E 0 90 63 60
        E 0 90 57 60
        E 0 90 4b 60
        E 0 90 3e 60
        E 120 80 4b 00
        E 0 80 3e 00
        E 240 80 63 00
        E 0 80 57 00
        E 120 90 59 60
        E 0 90 62 60
        E 0 90 65 60
        E 0 90 56 60
        E 0 90 4a 60
        E 120 80 4a 00
        E 240 80 62 00
        E 0 80 56 00
        E 120 90 61 60
        E 0 90 55 60
        E 0 90 49 60
        E 0 90 3c 60
        E 120 80 59 00
        E 0 80 65 00
        E 0 80 61 00
        E 0 80 55 00
        E 0 80 49 00
        E 0 80 3c 00
        E 360 90 63 60
        E 0 90 58 60
        E 0 90 4b 60
        E 120 80 63 00
        E 0 90 59 60
        E 0 90 64 60
        E 0 90 65 60
        E 360 80 4b 00
        E 360 80 58 00
        E 0 80 59 00
        E 0 80 64 00
        E 0 80 65 00
        E 120 90 63 60
        E 0 90 57 60
        E 0 90 4b 60
        E 120 80 63 00
        E 0 80 57 00
        E 0 80 4b 00
        E 360 90 62 60
        E 0 90 56 60
        E 0 90 4a 60
        E 0 90 3d 60
        E 120 80 62 00
        E 0 80 56 00
        E 0 80 4a 00
        E 0 80 3d 00
        E 240 80 32 00
        E 120 90 2d 60
        E 0 90 64 60
        E 0 90 58 60
        E 0 90 4b 60
        E 120 80 64 00
        E 0 80 58 00
        E 0 80 4b 00
        E 240 80 2d 00
        E 120 90 2f 60
        E 0 90 61 60
        E 0 90 55 60
        E 0 90 49 60
        E 0 90 3c 60
        E 120 80 61 00
        E 0 80 55 00
        E 0 80 49 00
        E 0 80 3c 00
        E 360 90 61 60
        E 0 90 55 60
        E 0 90 49 60
        E 0 90 3c 60
        E 120 80 61 00
        E 0 80 55 00
        E 0 80 49 00
        E 0 80 3c 00
        E 360 90 61 60
        E 0 90 55 60
        E 0 90 49 60
        E 0 90 3c 60
        E 120 80 61 00
        E 0 80 55 00
        E 0 80 49 00
        E 0 80 3c 00
        E 360 90 61 60
        E 0 90 55 60
        E 0 90 49 60
        E 0 90 3c 60
        E 120 80 61 00
        E 0 80 55 00
        E 0 80 49 00
        E 0 80 3c 00
        E 360 90 61 60
        E 0 90 55 60
        E 0 90 49 60
        E 0 90 3c 60
        E 120 80 61 00
        E 0 80 55 00
        E 0 80 49 00
        E 0 80 3c 00
        E 360 90 60 60
        E 0 90 54 60
        E 0 90 48 60
        E 120 80 60 00
        E 0 80 54 00
        E 0 80 48 00
        E 120 90 61 60
        E 0 90 55 60
        E 120 80 61 00
        E 0 80 55 00
        E 120 90 62 60
        E 0 90 56 60
        E 0 90 4a 60
        E 0 90 3d 60
        E 120 80 62 00
        E 0 80 56 00
        E 0 80 4a 00
        E 0 80 3d 00
        E 360 80 2f 00
        <X 240 0
          /wFbaWRsZV0=
        >
        <X 29760 0
          /wFbcGxheV0=
        >
        E 240 90 2f 60
        E 480 90 62 60
        E 0 90 56 60
        E 0 90 4a 60
        E 120 80 4a 00
        E 240 80 2f 00
        E 0 80 62 00
        E 0 80 56 00
        E 120 90 32 60
        E 0 90 63 60
        E 0 90 57 60
        E 0 90 4b 60
        E 0 90 3e 60
        E 120 80 4b 00
        E 0 80 3e 00
        E 240 80 63 00
        E 0 80 57 00
        E 120 90 59 60
        E 0 90 62 60
        E 0 90 65 60
        E 0 90 56 60
        E 0 90 4a 60
        E 120 80 4a 00
        E 240 80 62 00
        E 0 80 56 00
        E 120 90 61 60
        E 0 90 55 60
        E 0 90 49 60
        E 0 90 3c 60
        E 120 80 59 00
        E 0 80 65 00
        E 0 80 61 00
        E 0 80 55 00
        E 0 80 49 00
        E 0 80 3c 00
        E 360 90 63 60
        E 0 90 58 60
        E 0 90 4b 60
        E 120 80 63 00
        E 0 90 59 60
        E 0 90 64 60
        E 0 90 65 60
        E 360 80 4b 00
        E 360 80 58 00
        E 0 80 59 00
        E 0 80 64 00
        E 0 80 65 00
        E 120 90 63 60
        E 0 90 57 60
        E 0 90 4b 60
        E 120 80 63 00
        E 0 80 57 00
        E 0 80 4b 00
        E 240 80 32 00
        E 120 90 2f 60
        E 0 90 62 60
        E 0 90 56 60
        E 0 90 4a 60
        E 0 90 3d 60
        E 120 80 62 00
        E 0 80 56 00
        E 0 80 4a 00
        E 0 80 3d 00
        E 360 90 62 60
        E 0 90 56 60
        E 0 90 4a 60
        E 120 80 62 00
        E 0 80 56 00
        E 0 80 4a 00
        E 360 90 61 60
        E 0 90 55 60
        E 0 90 49 60
        E 0 90 3c 60
        E 120 80 61 00
        E 0 80 55 00
        E 0 80 49 00
        E 0 80 3c 00
        E 360 90 61 60
        E 0 90 55 60
        E 0 90 49 60
        E 0 90 3c 60
        E 120 80 61 00
        E 0 80 55 00
        E 0 80 49 00
        E 0 80 3c 00
        E 360 90 61 60
        E 0 90 55 60
        E 0 90 49 60
        E 0 90 3c 60
        E 120 80 61 00
        E 0 80 55 00
        E 0 80 49 00
        E 0 80 3c 00
        E 360 90 61 60
        E 0 90 55 60
        E 0 90 49 60
        E 0 90 3c 60
        E 120 80 61 00
        E 0 80 55 00
        E 0 80 49 00
        E 0 80 3c 00
        E 360 90 61 60
        E 0 90 74 60
        E 0 90 55 60
        E 0 90 49 60
        E 0 90 3c 60
        E 120 80 61 00
        E 0 80 55 00
        E 0 80 49 00
        E 0 80 3c 00
        E 360 90 60 60
        E 0 90 54 60
        E 0 90 48 60
        E 120 80 60 00
        E 0 80 54 00
        E 0 80 48 00
        E 120 90 61 60
        E 0 90 55 60
        E 120 80 61 00
        E 0 80 55 00
        E 120 90 62 60
        E 0 90 56 60
        E 0 90 4a 60
        E 0 90 3d 60
        E 120 80 62 00
        E 0 80 56 00
        E 0 80 4a 00
        E 0 80 3d 00
        E 120 90 60 60
        E 0 90 54 60
        E 120 80 60 00
        E 0 80 54 00
        E 120 90 61 60
        E 0 90 55 60
        E 0 90 49 60
        E 120 80 61 00
        E 0 80 55 00
        E 0 80 49 00
        E 120 90 62 60
        E 0 90 56 60
        E 120 80 2f 00
        E 0 80 62 00
        E 0 80 56 00
        E 120 90 32 60
        E 0 90 63 60
        E 0 90 57 60
        E 0 90 4b 60
        E 0 90 3e 60
        E 120 80 57 00
        E 0 80 4b 00
        E 0 80 3e 00
        E 240 80 63 00
        E 120 90 59 60
        E 0 90 62 60
        E 0 90 65 60
        E 0 90 56 60
        E 0 90 4a 60
        E 120 80 56 00
        E 0 80 4a 00
        E 240 80 62 00
        E 120 90 61 60
        E 0 90 55 60
        E 0 90 49 60
        E 0 90 3c 60
        E 120 80 74 00
        E 0 80 59 00
        E 0 80 65 00
        E 0 80 61 00
        E 0 80 55 00
        E 0 80 49 00
        E 0 80 3c 00
        E 360 90 63 60
        E 0 90 58 60
        E 0 90 4b 60
        E 120 80 63 00
        E 0 90 59 60
        E 0 90 64 60
        E 0 90 65 60
        E 480 80 4b 00
        E 120 80 58 00
        E 120 80 59 00
        E 0 80 64 00
        E 0 80 65 00
        E 120 90 63 60
        E 0 90 57 60
        E 0 90 4b 60
        E 120 80 63 00
        E 0 80 57 00
        E 0 80 4b 00
        E 360 90 62 60
        E 0 90 56 60
        E 0 90 4a 60
        E 0 90 3d 60
        E 120 80 62 00
        E 0 80 56 00
        E 0 80 4a 00
        E 0 80 3d 00
        E 240 80 32 00
        E 120 90 2d 60
        E 0 90 64 60
        E 0 90 58 60
        E 0 90 4b 60
        E 120 80 64 00
        E 0 80 58 00
        E 0 80 4b 00
        E 240 80 2d 00
        E 120 90 2f 60
        E 0 90 61 60
        E 0 90 55 60
        E 0 90 49 60
        E 0 90 3c 60
        E 120 80 61 00
        E 0 80 55 00
        E 0 80 49 00
        E 0 80 3c 00
        E 360 90 61 60
        E 0 90 55 60
        E 0 90 49 60
        E 0 90 3c 60
        E 120 80 61 00
        E 0 80 55 00
        E 0 80 49 00
        E 0 80 3c 00
        E 360 90 61 60
        E 0 90 55 60
        E 0 90 49 60
        E 0 90 3c 60
        E 120 80 61 00
        E 0 80 55 00
        E 0 80 49 00
        E 0 80 3c 00
        E 360 90 61 60
        E 0 90 55 60
        E 0 90 49 60
        E 0 90 3c 60
        E 120 80 61 00
        E 0 80 55 00
        E 0 80 49 00
        E 0 80 3c 00
        E 360 90 61 60
        E 0 90 55 60
        E 0 90 49 60
        E 0 90 3c 60
        E 120 80 61 00
        E 0 80 55 00
        E 0 80 49 00
        E 0 80 3c 00
        E 360 90 60 60
        E 0 90 54 60
        E 0 90 48 60
        E 120 80 60 00
        E 0 80 54 00
        E 0 80 48 00
        E 120 90 61 60
        E 0 90 55 60
        E 120 80 61 00
        E 0 80 55 00
        E 120 90 62 60
        E 0 90 56 60
        E 0 90 4a 60
        E 0 90 3d 60
        E 120 80 62 00
        E 0 80 56 00
        E 0 80 4a 00
        E 0 80 3d 00
        E 120 90 60 60
        E 0 90 54 60
        E 120 80 60 00
        E 0 80 54 00
        E 120 90 61 60
        E 0 90 55 60
        E 0 90 49 60
        E 120 80 61 00
        E 0 80 55 00
        E 0 80 49 00
        E 120 90 62 60
        E 0 90 56 60
        E 120 80 2f 00
        E 0 80 62 00
        E 0 80 56 00
        E 120 90 32 60
        E 0 90 63 60
        E 0 90 57 60
        E 0 90 4b 60
        E 0 90 3e 60
        E 120 80 4b 00
        E 0 80 3e 00
        E 240 80 63 00
        E 0 80 57 00
        E 120 90 59 60
        E 0 90 62 60
        E 0 90 65 60
        E 0 90 56 60
        E 0 90 4a 60
        E 120 80 4a 00
        E 240 80 62 00
        E 0 80 56 00
        E 120 90 61 60
        E 0 90 55 60
        E 0 90 49 60
        E 0 90 3c 60
        E 120 80 59 00
        E 0 80 65 00
        E 0 80 61 00
        E 0 80 55 00
        E 0 80 49 00
        E 0 80 3c 00
        E 360 90 63 60
        E 0 90 58 60
        E 0 90 4b 60
        E 120 80 63 00
        E 0 90 59 60
        E 0 90 64 60
        E 0 90 65 60
        E 360 80 4b 00
        E 360 80 58 00
        E 0 80 59 00
        E 0 80 64 00
        E 0 80 65 00
        E 120 90 63 60
        E 0 90 57 60
        E 0 90 4b 60
        E 120 80 63 00
        E 0 80 57 00
        E 0 80 4b 00
        E 240 80 32 00
        E 120 90 2f 60
        E 0 90 62 60
        E 0 90 56 60
        E 0 90 4a 60
        E 0 90 3d 60
        E 120 80 3d 00
        E 480 80 4a 00
        E 120 80 62 00
        E 0 80 56 00
        E 240 90 61 60
        E 0 90 55 60
        E 0 90 49 60
        E 0 90 3c 60
        E 120 80 61 00
        E 0 80 55 00
        E 0 80 49 00
        E 0 80 3c 00
        E 360 90 61 60
        E 0 90 55 60
        E 0 90 49 60
        E 0 90 3c 60
        E 120 80 61 00
        E 0 80 55 00
        E 0 80 49 00
        E 0 80 3c 00
        E 360 90 61 60
        E 0 90 55 60
        E 0 90 49 60
        E 0 90 3c 60
        E 120 80 61 00
        E 0 80 55 00
        E 0 80 49 00
        E 0 80 3c 00
        E 360 90 61 60
        E 0 90 55 60
        E 0 90 49 60
        E 0 90 3c 60
        E 120 80 61 00
        E 0 80 55 00
        E 0 80 49 00
        E 0 80 3c 00
        E 360 90 61 60
        E 0 90 55 60
        E 0 90 49 60
        E 0 90 3c 60
        E 120 80 61 00
        E 0 80 55 00
        E 0 80 49 00
        E 0 80 3c 00
        E 360 90 60 60
        E 0 90 54 60
        E 0 90 48 60
        E 120 80 60 00
        E 0 80 54 00
        E 0 80 48 00
        E 120 90 61 60
        E 0 90 55 60
        E 120 80 61 00
        E 0 80 55 00
        E 120 90 62 60
        E 0 90 56 60
        E 0 90 4a 60
        E 0 90 3d 60
        E 120 80 62 00
        E 0 80 56 00
        E 0 80 4a 00
        E 0 80 3d 00
        E 120 90 60 60
        E 0 90 54 60
        E 120 80 60 00
        E 0 80 54 00
        E 120 90 61 60
        E 0 90 55 60
        E 0 90 49 60
        E 120 80 61 00
        E 0 80 55 00
        E 0 80 49 00
        E 120 90 62 60
        E 0 90 56 60
        E 120 80 2f 00
        E 0 80 62 00
        E 0 80 56 00
        E 120 90 32 60
        E 0 90 63 60
        E 0 90 57 60
        E 0 90 4b 60
        E 0 90 3e 60
        E 120 80 4b 00
        E 0 80 3e 00
        E 240 80 63 00
        E 0 80 57 00
        E 120 90 59 60
        E 0 90 62 60
        E 0 90 65 60
        E 0 90 56 60
        E 0 90 4a 60
        E 120 80 4a 00
        E 240 80 62 00
        E 0 80 56 00
        E 120 90 61 60
        E 0 90 55 60
        E 0 90 49 60
        E 0 90 3c 60
        E 120 80 59 00
        E 0 80 65 00
        E 0 80 61 00
        E 0 80 55 00
        E 0 80 49 00
        E 0 80 3c 00
        E 360 90 63 60
        E 0 90 58 60
        E 0 90 4b 60
        E 120 80 63 00
        E 0 90 59 60
        E 0 90 64 60
        E 0 90 65 60
        E 360 80 4b 00
        E 360 80 58 00
        E 0 80 59 00
        E 0 80 64 00
        E 0 80 65 00
        E 120 90 63 60
        E 0 90 57 60
        E 0 90 4b 60
        E 120 80 63 00
        E 0 80 57 00
        E 0 80 4b 00
        E 360 90 62 60
        E 0 90 56 60
        E 0 90 4a 60
        E 0 90 3d 60
        E 120 80 62 00
        E 0 80 56 00
        E 0 80 4a 00
        E 0 80 3d 00
        E 240 80 32 00
        E 120 90 2d 60
        E 0 90 64 60
        E 0 90 58 60
        E 0 90 4b 60
        E 120 80 64 00
        E 0 80 58 00
        E 0 80 4b 00
        E 240 80 2d 00
        E 120 90 2f 60
        E 0 90 61 60
        E 0 90 55 60
        E 0 90 49 60
        E 0 90 3c 60
        E 120 80 61 00
        E 0 80 55 00
        E 0 80 49 00
        E 0 80 3c 00
        E 360 90 61 60
        E 0 90 55 60
        E 0 90 49 60
        E 0 90 3c 60
        E 120 80 61 00
        E 0 80 55 00
        E 0 80 49 00
        E 0 80 3c 00
        E 360 90 61 60
        E 0 90 55 60
        E 0 90 49 60
        E 0 90 3c 60
        E 120 80 61 00
        E 0 80 55 00
        E 0 80 49 00
        E 0 80 3c 00
        E 360 90 61 60
        E 0 90 55 60
        E 0 90 49 60
        E 0 90 3c 60
        E 120 80 61 00
        E 0 80 55 00
        E 0 80 49 00
        E 0 80 3c 00
        E 360 90 61 60
        E 0 90 55 60
        E 0 90 49 60
        E 0 90 3c 60
        E 120 80 61 00
        E 0 80 55 00
        E 0 80 49 00
        E 0 80 3c 00
        E 1200 80 2f 00
        E 120 90 2f 60
        E 0 90 62 60
        E 0 90 56 60
        E 0 90 4a 60
        E 120 80 4a 00
        E 240 80 2f 00
        E 0 80 62 00
        E 0 80 56 00
        <X 120 0
          /wFbaW50ZW5zZV0=
        >
        E 0 90 32 60
        E 0 90 63 60
        E 0 90 57 60
        E 0 90 4b 60
        E 0 90 3e 60
        E 120 80 4b 00
        E 0 80 3e 00
        E 240 80 63 00
        E 0 80 57 00
        E 120 90 59 60
        E 0 90 62 60
        E 0 90 65 60
        E 0 90 56 60
        E 0 90 4a 60
        E 120 80 4a 00
        E 240 80 62 00
        E 0 80 56 00
        E 120 90 61 60
        E 0 90 55 60
        E 0 90 49 60
        E 0 90 3c 60
        E 120 80 59 00
        E 0 80 65 00
        E 0 80 61 00
        E 0 80 55 00
        E 0 80 49 00
        E 0 80 3c 00
        E 360 90 63 60
        E 0 90 58 60
        E 0 90 4b 60
        E 120 80 63 00
        E 0 90 59 60
        E 0 90 64 60
        E 0 90 65 60
        E 360 80 4b 00
        E 360 80 58 00
        E 0 80 59 00
        E 0 80 64 00
        E 0 80 65 00
        E 120 90 63 60
        E 0 90 57 60
        E 0 90 4b 60
        E 120 80 63 00
        E 0 80 57 00
        E 0 80 4b 00
        E 240 80 32 00
        E 120 90 2f 60
        E 0 90 62 60
        E 0 90 56 60
        E 0 90 4a 60
        E 0 90 3d 60
        E 120 80 62 00
        E 0 80 56 00
        E 0 80 4a 00
        E 0 80 3d 00
        E 360 90 62 60
        E 0 90 56 60
        E 0 90 4a 60
        E 120 80 62 00
        E 0 80 56 00
        E 0 80 4a 00
        E 360 90 61 60
        E 0 90 55 60
        E 0 90 49 60
        E 0 90 3c 60
        E 120 80 61 00
        E 0 80 55 00
        E 0 80 49 00
        E 0 80 3c 00
        E 360 90 61 60
        E 0 90 55 60
        E 0 90 49 60
        E 0 90 3c 60
        E 120 80 61 00
        E 0 80 55 00
        E 0 80 49 00
        E 0 80 3c 00
        E 360 90 61 60
        E 0 90 55 60
        E 0 90 49 60
        E 0 90 3c 60
        E 120 80 61 00
        E 0 80 55 00
        E 0 80 49 00
        E 0 80 3c 00
        E 360 90 61 60
        E 0 90 55 60
        E 0 90 49 60
        E 0 90 3c 60
        E 120 80 61 00
        E 0 80 55 00
        E 0 80 49 00
        E 0 80 3c 00
        E 360 90 61 60
        E 0 90 55 60
        E 0 90 49 60
        E 0 90 3c 60
        E 120 80 61 00
        E 0 80 55 00
        E 0 80 49 00
        E 0 80 3c 00
        E 360 90 60 60
        E 0 90 54 60
        E 0 90 48 60
        E 120 80 60 00
        E 0 80 54 00
        E 0 80 48 00
        E 120 90 61 60
        E 0 90 55 60
        E 120 80 61 00
        E 0 80 55 00
        E 120 90 62 60
        E 0 90 56 60
        E 0 90 4a 60
        E 0 90 3d 60
        E 120 80 62 00
        E 0 80 56 00
        E 0 80 4a 00
        E 0 80 3d 00
        E 120 90 60 60
        E 0 90 54 60
        E 120 80 60 00
        E 0 80 54 00
        E 120 90 61 60
        E 0 90 55 60
        E 0 90 49 60
        E 120 80 61 00
        E 0 80 55 00
        E 0 80 49 00
        E 120 90 62 60
        E 0 90 56 60
        E 120 80 2f 00
        E 0 80 62 00
        E 0 80 56 00
        E 120 90 32 60
        E 0 90 63 60
        E 0 90 57 60
        E 0 90 4b 60
        E 0 90 3e 60
        E 120 80 57 00
        E 0 80 4b 00
        E 0 80 3e 00
        E 240 80 63 00
        E 120 90 59 60
        E 0 90 62 60
        E 0 90 65 60
        E 0 90 56 60
        E 0 90 4a 60
        E 120 80 56 00
        E 0 80 4a 00
        E 240 80 62 00
        E 120 90 61 60
        E 0 90 55 60
        E 0 90 49 60
        E 0 90 3c 60
        E 120 80 59 00
        E 0 80 65 00
        E 0 80 61 00
        E 0 80 55 00
        E 0 80 49 00
        E 0 80 3c 00
        E 360 90 63 60
        E 0 90 58 60
        E 0 90 4b 60
        E 120 80 63 00
        E 0 90 59 60
        E 0 90 64 60
        E 0 90 65 60
        E 480 80 4b 00
        E 120 80 58 00
        E 120 80 59 00
        E 0 80 64 00
        E 0 80 65 00
        E 120 90 63 60
        E 0 90 57 60
        E 0 90 4b 60
        E 120 80 63 00
        E 0 80 57 00
        E 0 80 4b 00
        E 360 90 62 60
        E 0 90 56 60
        E 0 90 4a 60
        E 0 90 3d 60
        E 120 80 62 00
        E 0 80 56 00
        E 0 80 4a 00
        E 0 80 3d 00
        E 240 80 32 00
        E 120 90 2d 60
        E 0 90 64 60
        E 0 90 58 60
        E 0 90 4b 60
        E 120 80 64 00
        E 0 80 58 00
        E 0 80 4b 00
        E 240 80 2d 00
        E 120 90 2f 60
        E 0 90 61 60
        E 0 90 55 60
        E 0 90 49 60
        E 0 90 3c 60
        E 120 80 61 00
        E 0 80 55 00
        E 0 80 49 00
        E 0 80 3c 00
        E 360 90 61 60
        E 0 90 55 60
        E 0 90 49 60
        E 0 90 3c 60
        E 120 80 61 00
        E 0 80 55 00
        E 0 80 49 00
        E 0 80 3c 00
        E 360 90 61 60
        E 0 90 55 60
        E 0 90 49 60
        E 0 90 3c 60
        E 120 80 61 00
        E 0 80 55 00
        E 0 80 49 00
        E 0 80 3c 00
        E 360 90 61 60
        E 0 90 55 60
        E 0 90 49 60
        E 0 90 3c 60
        E 120 80 61 00
        E 0 80 55 00
        E 0 80 49 00
        E 0 80 3c 00
        E 360 90 61 60
        E 0 90 55 60
        E 0 90 49 60
        E 0 90 3c 60
        E 120 80 61 00
        E 0 80 55 00
        E 0 80 49 00
        E 0 80 3c 00
        E 360 90 60 60
        E 0 90 54 60
        E 0 90 48 60
        E 120 80 60 00
        E 0 80 54 00
        E 0 80 48 00
        E 120 90 61 60
        E 0 90 55 60
        E 120 80 61 00
        E 0 80 55 00
        E 120 90 62 60
        E 0 90 56 60
        E 0 90 4a 60
        E 0 90 3d 60
        E 120 80 62 00
        E 0 80 56 00
        E 0 80 4a 00
        E 0 80 3d 00
        E 120 90 60 60
        E 0 90 54 60
        E 120 80 60 00
        E 0 80 54 00
        E 120 90 61 60
        E 0 90 55 60
        E 0 90 49 60
        E 120 80 61 00
        E 0 80 55 00
        E 0 80 49 00
        E 120 90 62 60
        E 0 90 56 60
        E 120 80 2f 00
        E 0 80 62 00
        E 0 80 56 00
        E 120 90 32 60
        E 0 90 63 60
        E 0 90 57 60
        E 0 90 4b 60
        E 0 90 3e 60
        E 120 80 4b 00
        E 0 80 3e 00
        E 240 80 63 00
        E 0 80 57 00
        E 120 90 59 60
        E 0 90 62 60
        E 0 90 65 60
        E 0 90 56 60
        E 0 90 4a 60
        E 120 80 4a 00
        E 240 80 62 00
        E 0 80 56 00
        E 120 90 61 60
        E 0 90 55 60
        E 0 90 49 60
        E 0 90 3c 60
        E 120 80 59 00
        E 0 80 65 00
        E 0 80 61 00
        E 0 80 55 00
        E 0 80 49 00
        E 0 80 3c 00
        E 360 90 63 60
        E 0 90 58 60
        E 0 90 4b 60
        E 120 80 63 00
        E 0 90 59 60
        E 0 90 64 60
        E 0 90 65 60
        E 360 80 4b 00
        E 360 80 58 00
        E 0 80 59 00
        E 0 80 64 00
        E 0 80 65 00
        E 120 90 63 60
        E 0 90 57 60
        E 0 90 4b 60
        E 120 80 63 00
        E 0 80 57 00
        E 0 80 4b 00
        E 240 80 32 00
        E 120 90 2f 60
        E 0 90 62 60
        E 0 90 56 60
        E 0 90 4a 60
        E 0 90 3d 60
        E 120 80 3d 00
        E 480 80 4a 00
        E 120 80 62 00
        E 0 80 56 00
        E 240 90 61 60
        E 0 90 55 60
        E 0 90 49 60
        E 0 90 3c 60
        E 120 80 61 00
        E 0 80 55 00
        E 0 80 49 00
        E 0 80 3c 00
        E 360 90 61 60
        E 0 90 55 60
        E 0 90 49 60
        E 0 90 3c 60
        E 120 80 61 00
        E 0 80 55 00
        E 0 80 49 00
        E 0 80 3c 00
        E 360 90 61 60
        E 0 90 55 60
        E 0 90 49 60
        E 0 90 3c 60
        E 120 80 61 00
        E 0 80 55 00
        E 0 80 49 00
        E 0 80 3c 00
        E 360 90 61 60
        E 0 90 55 60
        E 0 90 49 60
        E 0 90 3c 60
        E 120 80 61 00
        E 0 80 55 00
        E 0 80 49 00
        E 0 80 3c 00
        E 360 90 61 60
        E 0 90 55 60
        E 0 90 49 60
        E 0 90 3c 60
        E 120 80 61 00
        E 0 80 55 00
        E 0 80 49 00
        E 0 80 3c 00
        E 360 90 60 60
        E 0 90 54 60
        E 0 90 48 60
        E 120 80 60 00
        E 0 80 54 00
        E 0 80 48 00
        E 120 90 61 60
        E 0 90 55 60
        E 120 80 61 00
        E 0 80 55 00
        E 120 90 62 60
        E 0 90 56 60
        E 0 90 4a 60
        E 0 90 3d 60
        E 120 80 62 00
        E 0 80 56 00
        E 0 80 4a 00
        E 0 80 3d 00
        E 120 90 60 60
        E 0 90 54 60
        E 120 80 60 00
        E 0 80 54 00
        E 120 90 61 60
        E 0 90 55 60
        E 0 90 49 60
        E 120 80 61 00
        E 0 80 55 00
        E 0 80 49 00
        E 120 90 62 60
        E 0 90 56 60
        E 120 80 2f 00
        E 0 80 62 00
        E 0 80 56 00
        E 120 90 32 60
        E 0 90 63 60
        E 0 90 57 60
        E 0 90 4b 60
        E 0 90 3e 60
        E 120 80 4b 00
        E 0 80 3e 00
        E 240 80 63 00
        E 0 80 57 00
        E 120 90 59 60
        E 0 90 62 60
        E 0 90 65 60
        E 0 90 56 60
        E 0 90 4a 60
        E 120 80 4a 00
        E 240 80 62 00
        E 0 80 56 00
        E 120 90 61 60
        E 0 90 55 60
        E 0 90 49 60
        E 0 90 3c 60
        E 120 80 59 00
        E 0 80 65 00
        E 0 80 61 00
        E 0 80 55 00
        E 0 80 49 00
        E 0 80 3c 00
        E 360 90 63 60
        E 0 90 58 60
        E 0 90 4b 60
        E 120 80 63 00
        E 0 90 59 60
        E 0 90 64 60
        E 0 90 65 60
        E 360 80 4b 00
        E 360 80 58 00
        E 0 80 59 00
        E 0 80 64 00
        E 0 80 65 00
        E 120 90 63 60
        E 0 90 57 60
        E 0 90 4b 60
        E 120 80 63 00
        E 0 80 57 00
        E 0 80 4b 00
        E 360 90 62 60
        E 0 90 56 60
        E 0 90 4a 60
        E 0 90 3d 60
        E 120 80 62 00
        E 0 80 56 00
        E 0 80 4a 00
        E 0 80 3d 00
        E 240 80 32 00
        E 120 90 2d 60
        E 0 90 64 60
        E 0 90 58 60
        E 0 90 4b 60
        E 120 80 64 00
        E 0 80 58 00
        E 0 80 4b 00
        E 240 80 2d 00
        E 120 90 2f 60
        E 0 90 61 60
        E 0 90 55 60
        E 0 90 49 60
        E 0 90 3c 60
        E 120 80 61 00
        E 0 80 55 00
        E 0 80 49 00
        E 0 80 3c 00
        E 360 90 61 60
        E 0 90 55 60
        E 0 90 49 60
        E 0 90 3c 60
        E 120 80 61 00
        E 0 80 55 00
        E 0 80 49 00
        E 0 80 3c 00
        E 360 90 61 60
        E 0 90 55 60
        E 0 90 49 60
        E 0 90 3c 60
        E 120 80 61 00
        E 0 80 55 00
        E 0 80 49 00
        E 0 80 3c 00
        E 360 90 61 60
        E 0 90 55 60
        E 0 90 49 60
        E 0 90 3c 60
        E 120 80 61 00
        E 0 80 55 00
        E 0 80 49 00
        E 0 80 3c 00
        E 360 90 61 60
        E 0 90 55 60
        E 0 90 49 60
        E 0 90 3c 60
        E 120 80 61 00
        E 0 80 55 00
        E 0 80 49 00
        E 0 80 3c 00
        E 360 90 60 60
        E 0 90 54 60
        E 0 90 48 60
        E 120 80 60 00
        E 0 80 54 00
        E 0 80 48 00
        E 120 90 61 60
        E 0 90 55 60
        E 120 80 61 00
        E 0 80 55 00
        E 120 90 62 60
        E 0 90 56 60
        E 0 90 4a 60
        E 0 90 3d 60
        E 120 80 62 00
        E 0 80 56 00
        E 0 80 4a 00
        E 0 80 3d 00
        E 720 80 2f 00
        E 120 90 2d 60
        E 0 90 62 60
        E 0 90 74 60
        E 0 90 56 60
        E 0 90 4a 60
        E 0 90 3d 60
        E 120 80 4a 00
        E 0 80 3d 00
        E 480 80 62 00
        E 0 80 56 00
        E 120 90 62 60
        E 0 90 56 60
        E 0 90 4a 60
        E 120 80 62 00
        E 0 80 56 00
        E 0 80 4a 00
        E 120 90 62 60
        E 0 90 56 60
        E 0 90 4a 60
        E 0 90 3d 60
        E 120 80 62 00
        E 0 80 56 00
        E 0 80 4a 00
        E 0 80 3d 00
        E 600 90 62 60
        E 0 90 56 60
        E 0 90 4a 60
        E 120 80 62 00
        E 0 80 56 00
        E 0 80 4a 00
        E 120 90 62 60
        E 0 90 56 60
        E 0 90 4a 60
        E 0 90 3d 60
        E 120 80 4a 00
        E 0 80 3d 00
        E 480 80 62 00
        E 0 80 56 00
        E 120 90 62 60
        E 0 90 56 60
        E 0 90 4a 60
        E 120 80 62 00
        E 0 80 56 00
        E 0 80 4a 00
        E 120 90 62 60
        E 0 90 56 60
        E 0 90 4a 60
        E 0 90 3d 60
        E 480 80 4a 00
        E 0 80 3d 00
        E 360 80 62 00
        E 0 80 56 00
        E 120 90 61 60
        E 0 90 55 60
        E 0 90 49 60
        E 0 90 3c 60
        E 120 80 74 00
        E 0 80 61 00
        E 0 80 55 00
        E 0 80 49 00
        E 0 80 3c 00
        E 360 90 61 60
        E 0 90 55 60
        E 0 90 49 60
        E 0 90 3c 60
        E 120 80 61 00
        E 0 80 55 00
        E 0 80 49 00
        E 0 80 3c 00
        E 360 90 61 60
        E 0 90 55 60
        E 0 90 49 60
        E 0 90 3c 60
        E 120 80 61 00
        E 0 80 55 00
        E 0 80 49 00
        E 0 80 3c 00
        E 360 90 61 60
        E 0 90 55 60
        E 0 90 49 60
        E 0 90 3c 60
        E 120 80 61 00
        E 0 80 55 00
        E 0 80 49 00
        E 0 80 3c 00
        E 360 90 61 60
        E 0 90 55 60
        E 0 90 49 60
        E 0 90 3c 60
        E 120 80 61 00
        E 0 80 55 00
        E 0 80 49 00
        E 0 80 3c 00
        E 360 90 61 60
        E 0 90 55 60
        E 0 90 49 60
        E 0 90 3c 60
        E 120 80 61 00
        E 0 80 55 00
        E 0 80 49 00
        E 0 80 3c 00
        E 360 90 61 60
        E 0 90 55 60
        E 0 90 49 60
        E 0 90 3c 60
        E 120 80 61 00
        E 0 80 55 00
        E 0 80 49 00
        E 0 80 3c 00
        E 120 90 61 60
        E 0 90 55 60
        E 0 90 49 60
        E 120 80 61 00
        E 0 80 55 00
        E 0 80 49 00
        E 120 90 61 60
        E 0 90 55 60
        E 0 90 49 60
        E 120 80 61 00
        E 0 80 55 00
        E 0 80 49 00
        E 120 90 61 60
        E 0 90 55 60
        E 120 80 61 00
        E 0 80 55 00
        E 120 90 62 60
        E 0 90 56 60
        E 0 90 4a 60
        E 0 90 3d 60
        E 960 80 3d 00
        E 120 80 4a 00
        E 120 80 56 00
        E 120 80 2d 00
        E 0 80 62 00
        E 120 90 32 60
        E 0 90 63 60
        E 0 90 58 60
        E 0 90 4b 60
        E 0 90 3e 60
        E 120 80 63 00
        E 0 90 59 60
        E 0 90 64 60
        E 0 90 65 60
        E 480 80 4b 00
        E 0 80 3e 00
        E 120 80 58 00
        E 120 80 59 00
        E 0 80 64 00
        E 0 80 65 00
        E 120 90 63 60
        E 0 90 57 60
        E 0 90 4b 60
        E 120 80 63 00
        E 0 80 57 00
        E 0 80 4b 00
        E 360 90 62 60
        E 0 90 56 60
        E 0 90 4a 60
        E 0 90 3d 60
        E 120 80 56 00
        E 0 80 4a 00
        E 0 80 3d 00
        E 480 80 62 00
        E 120 90 61 60
        E 0 90 55 60
        E 0 90 49 60
        E 120 80 61 00
        E 0 80 55 00
        E 0 80 49 00
        E 120 90 61 60
        E 0 90 55 60
        E 0 90 49 60
        E 0 90 3c 60
        E 120 80 61 00
        E 0 80 55 00
        E 0 80 49 00
        E 0 80 3c 00
        E 360 90 61 60
        E 0 90 55 60
        E 0 90 49 60
        E 0 90 3c 60
        E 120 80 61 00
        E 0 80 55 00
        E 0 80 49 00
        E 0 80 3c 00
        E 360 90 61 60
        E 0 90 55 60
        E 0 90 49 60
        E 0 90 3c 60
        E 120 80 61 00
        E 0 80 55 00
        E 0 80 49 00
        E 0 80 3c 00
        E 360 90 61 60
        E 0 90 55 60
        E 0 90 49 60
        E 0 90 3c 60
        E 120 80 61 00
        E 0 80 55 00
        E 0 80 49 00
        E 0 80 3c 00
        E 360 90 61 60
        E 0 90 55 60
        E 0 90 49 60
        E 0 90 3c 60
        E 120 80 61 00
        E 0 80 55 00
        E 0 80 49 00
        E 0 80 3c 00
        E 360 90 61 60
        E 0 90 55 60
        E 0 90 49 60
        E 0 90 3c 60
        E 120 80 61 00
        E 0 80 55 00
        E 0 80 49 00
        E 0 80 3c 00
        E 360 90 61 60
        E 0 90 55 60
        E 0 90 49 60
        E 0 90 3c 60
        E 120 80 61 00
        E 0 80 55 00
        E 0 80 49 00
        E 0 80 3c 00
        E 720 80 32 00
        E 120 90 2d 60
        E 0 90 64 60
        E 0 90 58 60
        E 0 90 4b 60
        E 0 90 3e 60
        E 960 80 64 00
        E 0 80 58 00
        E 0 80 4b 00
        E 0 80 3e 00
        E 480 90 64 60
        E 0 90 58 60
        E 0 90 4b 60
        E 0 90 3e 60
        E 120 80 64 00
        E 0 80 58 00
        E 0 80 4b 00
        E 0 80 3e 00
        E 120 90 64 60
        E 0 90 58 60
        E 0 90 4b 60
        E 120 80 64 00
        E 0 80 58 00
        E 0 80 4b 00
        E 120 90 64 60
        E 0 90 58 60
        E 0 90 4b 60
        E 0 90 3e 60
        E 120 80 64 00
        E 0 80 58 00
        E 0 80 4b 00
        E 0 80 3e 00
        E 360 90 64 60
        E 0 90 58 60
        E 0 90 4b 60
        E 0 90 3e 60
        E 120 80 64 00
        E 0 80 58 00
        E 0 80 4b 00
        E 0 80 3e 00
        E 360 90 64 60
        E 0 90 58 60
        E 0 90 4b 60
        E 0 90 3e 60
        E 120 80 64 00
        E 0 80 58 00
        E 0 80 4b 00
        E 0 80 3e 00
        E 360 90 64 60
        E 0 90 58 60
        E 0 90 4b 60
        E 0 90 3e 60
        E 120 80 64 00
        E 0 80 58 00
        E 0 80 4b 00
        E 0 80 3e 00
        E 360 90 63 60
        E 0 90 57 60
        E 0 90 4b 60
        E 0 90 3e 60
        E 120 80 63 00
        E 0 80 57 00
        E 0 80 4b 00
        E 0 80 3e 00
        E 360 90 63 60
        E 0 90 57 60
        E 0 90 4b 60
        E 0 90 3e 60
        E 120 80 63 00
        E 0 80 57 00
        E 0 80 4b 00
        E 0 80 3e 00
        E 360 90 63 60
        E 0 90 57 60
        E 0 90 4b 60
        E 0 90 3e 60
        E 120 80 63 00
        E 0 80 57 00
        E 0 80 4b 00
        E 0 80 3e 00
        E 360 90 63 60
        E 0 90 57 60
        E 0 90 4b 60
        E 0 90 3e 60
        E 120 80 63 00
        E 0 80 57 00
        E 0 80 4b 00
        E 0 80 3e 00
        E 360 90 63 60
        E 0 90 57 60
        E 0 90 4b 60
        E 0 90 3e 60
        E 120 80 63 00
        E 0 80 57 00
        E 0 80 4b 00
        E 0 80 3e 00
        E 360 90 63 60
        E 0 90 57 60
        E 0 90 4b 60
        E 0 90 3e 60
        E 120 80 63 00
        E 0 80 57 00
        E 0 80 4b 00
        E 0 80 3e 00
        E 360 90 63 60
        E 0 90 57 60
        E 0 90 4b 60
        E 0 90 3e 60
        E 120 80 63 00
        E 0 80 57 00
        E 0 80 4b 00
        E 0 80 3e 00
        E 360 90 63 60
        E 0 90 57 60
        E 0 90 4b 60
        E 0 90 3e 60
        E 120 80 63 00
        E 0 80 57 00
        E 0 80 4b 00
        E 0 80 3e 00
        E 360 90 64 60
        E 0 90 58 60
        E 0 90 4b 60
        E 0 90 3e 60
        E 960 80 64 00
        E 0 80 58 00
        E 0 80 4b 00
        E 0 80 3e 00
        E 480 90 63 60
        E 0 90 74 60
        E 0 90 57 60
        E 0 90 4b 60
        E 0 90 3e 60
        E 120 80 63 00
        E 0 80 57 00
        E 0 80 4b 00
        E 0 80 3e 00
        E 120 90 59 60
        E 0 90 64 60
        E 0 90 65 60
        E 0 90 58 60
        E 120 80 59 00
        E 0 80 64 00
        E 0 80 65 00
        E 0 80 58 00
        E 120 90 64 60
        E 0 90 58 60
        E 0 90 4b 60
        E 0 90 3e 60
        E 120 80 64 00
        E 0 80 58 00
        E 0 80 4b 00
        E 0 80 3e 00
        E 360 90 63 60
        E 0 90 57 60
        E 0 90 4b 60
        E 120 80 63 00
        E 0 80 57 00
        E 0 80 4b 00
        E 360 90 62 60
        E 0 90 56 60
        E 0 90 4a 60
        E 0 90 3d 60
        E 120 80 3d 00
        E 480 80 4a 00
        E 120 80 56 00
        E 120 80 62 00
        E 120 90 60 60
        E 0 90 54 60
        E 0 90 48 60
        E 0 90 3c 60
        E 120 80 74 00
        E 0 80 60 00
        E 0 80 54 00
        E 0 80 48 00
        E 0 80 3c 00
        E 360 90 60 60
        E 0 90 54 60
        E 0 90 48 60
        E 0 90 3c 60
        E 120 80 60 00
        E 0 80 54 00
        E 0 80 48 00
        E 0 80 3c 00
        E 360 90 60 60
        E 0 90 54 60
        E 0 90 48 60
        E 0 90 3c 60
        E 120 80 60 00
        E 0 80 54 00
        E 0 80 48 00
        E 0 80 3c 00
        E 360 90 60 60
        E 0 90 54 60
        E 0 90 48 60
        E 0 90 3c 60
        E 120 80 60 00
        E 0 80 54 00
        E 0 80 48 00
        E 0 80 3c 00
        E 360 90 60 60
        E 0 90 54 60
        E 0 90 48 60
        E 0 90 3c 60
        E 120 80 60 00
        E 0 80 54 00
        E 0 80 48 00
        E 0 80 3c 00
        E 360 90 60 60
        E 0 90 54 60
        E 0 90 48 60
        E 0 90 3c 60
        E 120 80 60 00
        E 0 80 54 00
        E 0 80 48 00
        E 0 80 3c 00
        E 360 90 60 60
        E 0 90 54 60
        E 0 90 48 60
        E 0 90 3c 60
        E 120 80 60 00
        E 0 80 54 00
        E 0 80 48 00
        E 0 80 3c 00
        E 240 80 2d 00
        <X 120 0
          /wFbcGxheV0=
        >
        E 0 90 2f 60
        E 0 90 62 60
        E 0 90 56 60
        E 0 90 4a 60
        E 120 80 4a 00
        E 240 80 2f 00
        E 0 80 62 00
        E 0 80 56 00
        E 120 90 32 60
        E 0 90 63 60
        E 0 90 57 60
        E 0 90 4b 60
        E 0 90 3e 60
        E 120 80 4b 00
        E 0 80 3e 00
        E 240 80 63 00
        E 0 80 57 00
        E 120 90 59 60
        E 0 90 62 60
        E 0 90 65 60
        E 0 90 56 60
        E 0 90 4a 60
        E 120 80 4a 00
        E 240 80 62 00
        E 0 80 56 00
        E 120 90 61 60
        E 0 90 55 60
        E 0 90 49 60
        E 0 90 3c 60
        E 120 80 59 00
        E 0 80 65 00
        E 0 80 61 00
        E 0 80 55 00
        E 0 80 49 00
        E 0 80 3c 00
        E 360 90 63 60
        E 0 90 58 60
        E 0 90 4b 60
        E 120 80 63 00
        E 0 90 59 60
        E 0 90 64 60
        E 0 90 65 60
        E 360 80 4b 00
        E 360 80 58 00
        E 0 80 59 00
        E 0 80 64 00
        E 0 80 65 00
        E 120 90 63 60
        E 0 90 57 60
        E 0 90 4b 60
        E 120 80 63 00
        E 0 80 57 00
        E 0 80 4b 00
        E 240 80 32 00
        E 120 90 2f 60
        E 0 90 62 60
        E 0 90 56 60
        E 0 90 4a 60
        E 0 90 3d 60
        E 120 80 62 00
        E 0 80 56 00
        E 0 80 4a 00
        E 0 80 3d 00
        E 360 90 62 60
        E 0 90 56 60
        E 0 90 4a 60
        E 120 80 62 00
        E 0 80 56 00
        E 0 80 4a 00
        E 360 90 61 60
        E 0 90 55 60
        E 0 90 49 60
        E 0 90 3c 60
        E 120 80 61 00
        E 0 80 55 00
        E 0 80 49 00
        E 0 80 3c 00
        E 360 90 61 60
        E 0 90 55 60
        E 0 90 49 60
        E 0 90 3c 60
        E 120 80 61 00
        E 0 80 55 00
        E 0 80 49 00
        E 0 80 3c 00
        E 360 90 61 60
        E 0 90 55 60
        E 0 90 49 60
        E 0 90 3c 60
        E 120 80 61 00
        E 0 80 55 00
        E 0 80 49 00
        E 0 80 3c 00
        E 360 90 61 60
        E 0 90 55 60
        E 0 90 49 60
        E 0 90 3c 60
        E 120 80 61 00
        E 0 80 55 00
        E 0 80 49 00
        E 0 80 3c 00
        E 360 90 61 60
        E 0 90 55 60
        E 0 90 49 60
        E 0 90 3c 60
        E 120 80 61 00
        E 0 80 55 00
        E 0 80 49 00
        E 0 80 3c 00
        E 360 90 60 60
        E 0 90 54 60
        E 0 90 48 60
        E 120 80 60 00
        E 0 80 54 00
        E 0 80 48 00
        E 120 90 61 60
        E 0 90 55 60
        E 120 80 61 00
        E 0 80 55 00
        E 120 90 62 60
        E 0 90 56 60
        E 0 90 4a 60
        E 0 90 3d 60
        E 120 80 62 00
        E 0 80 56 00
        E 0 80 4a 00
        E 0 80 3d 00
        E 120 90 60 60
        E 0 90 54 60
        E 120 80 60 00
        E 0 80 54 00
        E 120 90 61 60
        E 0 90 55 60
        E 0 90 49 60
        E 120 80 61 00
        E 0 80 55 00
        E 0 80 49 00
        E 120 90 62 60
        E 0 90 56 60
        E 120 80 2f 00
        E 0 80 62 00
        E 0 80 56 00
        E 120 90 32 60
        E 0 90 63 60
        E 0 90 57 60
        E 0 90 4b 60
        E 0 90 3e 60
        E 120 80 57 00
        E 0 80 4b 00
        E 0 80 3e 00
        E 240 80 63 00
        E 120 90 59 60
        E 0 90 62 60
        E 0 90 65 60
        E 0 90 56 60
        E 0 90 4a 60
        E 120 80 56 00
        E 0 80 4a 00
        E 240 80 62 00
        E 120 90 61 60
        E 0 90 55 60
        E 0 90 49 60
        E 0 90 3c 60
        E 120 80 59 00
        E 0 80 65 00
        E 0 80 61 00
        E 0 80 55 00
        E 0 80 49 00
        E 0 80 3c 00
        E 360 90 63 60
        E 0 90 58 60
        E 0 90 4b 60
        E 120 80 63 00
        E 0 90 59 60
        E 0 90 64 60
        E 0 90 65 60
        E 480 80 4b 00
        E 120 80 58 00
        E 120 80 59 00
        E 0 80 64 00
        E 0 80 65 00
        E 120 90 63 60
        E 0 90 57 60
        E 0 90 4b 60
        E 120 80 63 00
        E 0 80 57 00
        E 0 80 4b 00
        E 360 90 62 60
        E 0 90 56 60
        E 0 90 4a 60
        E 0 90 3d 60
        E 120 80 62 00
        E 0 80 56 00
        E 0 80 4a 00
        E 0 80 3d 00
        E 240 80 32 00
        E 120 90 2d 60
        E 0 90 62 60
        E 0 90 56 60
        E 0 90 4a 60
        E 120 80 62 00
        E 0 80 56 00
        E 0 80 4a 00
        E 240 80 2d 00
        E 120 90 2f 60
        E 0 90 61 60
        E 0 90 55 60
        E 0 90 49 60
        E 0 90 3c 60
        E 120 80 61 00
        E 0 80 55 00
        E 0 80 49 00
        E 0 80 3c 00
        E 360 90 61 60
        E 0 90 55 60
        E 0 90 49 60
        E 0 90 3c 60
        E 120 80 61 00
        E 0 80 55 00
        E 0 80 49 00
        E 0 80 3c 00
        E 360 90 61 60
        E 0 90 55 60
        E 0 90 49 60
        E 0 90 3c 60
        E 120 80 61 00
        E 0 80 55 00
        E 0 80 49 00
        E 0 80 3c 00
        E 360 90 61 60
        E 0 90 55 60
        E 0 90 49 60
        E 0 90 3c 60
        E 120 80 61 00
        E 0 80 55 00
        E 0 80 49 00
        E 0 80 3c 00
        E 360 90 61 60
        E 0 90 55 60
        E 0 90 49 60
        E 0 90 3c 60
        E 120 80 61 00
        E 0 80 55 00
        E 0 80 49 00
        E 0 80 3c 00
        E 360 90 60 60
        E 0 90 54 60
        E 0 90 48 60
        E 120 80 60 00
        E 0 80 54 00
        E 0 80 48 00
        E 120 90 61 60
        E 0 90 55 60
        E 120 80 61 00
        E 0 80 55 00
        E 120 90 62 60
        E 0 90 56 60
        E 0 90 4a 60
        E 0 90 3d 60
        E 120 80 62 00
        E 0 80 56 00
        E 0 80 4a 00
        E 0 80 3d 00
        E 120 90 60 60
        E 0 90 54 60
        E 120 80 60 00
        E 0 80 54 00
        E 120 90 61 60
        E 0 90 55 60
        E 0 90 49 60
        E 120 80 61 00
        E 0 80 55 00
        E 0 80 49 00
        E 120 90 62 60
        E 0 90 56 60
        E 120 80 2f 00
        E 0 80 62 00
        E 0 80 56 00
        E 120 90 32 60
        E 0 90 63 60
        E 0 90 57 60
        E 0 90 4b 60
        E 0 90 3e 60
        E 120 80 4b 00
        E 0 80 3e 00
        E 240 80 63 00
        E 0 80 57 00
        E 120 90 59 60
        E 0 90 62 60
        E 0 90 65 60
        E 0 90 56 60
        E 0 90 4a 60
        E 120 80 4a 00
        E 240 80 62 00
        E 0 80 56 00
        E 120 90 61 60
        E 0 90 55 60
        E 0 90 49 60
        E 0 90 3c 60
        E 120 80 59 00
        E 0 80 65 00
        E 0 80 61 00
        E 0 80 55 00
        E 0 80 49 00
        E 0 80 3c 00
        E 360 90 63 60
        E 0 90 58 60
        E 0 90 4b 60
        E 120 80 63 00
        E 0 90 59 60
        E 0 90 64 60
        E 0 90 65 60
        E 360 80 4b 00
        E 360 80 58 00
        E 0 80 59 00
        E 0 80 64 00
        E 0 80 65 00
        E 120 90 63 60
        E 0 90 57 60
        E 0 90 4b 60
        E 120 80 63 00
        E 0 80 57 00
        E 0 80 4b 00
        E 240 80 32 00
        E 120 90 2f 60
        E 0 90 62 60
        E 0 90 56 60
        E 0 90 4a 60
        E 0 90 3d 60
        E 120 80 62 00
        E 0 80 56 00
        E 0 80 4a 00
        E 0 80 3d 00
        E 360 90 62 60
        E 0 90 56 60
        E 0 90 4a 60
        E 120 80 62 00
        E 0 80 56 00
        E 0 80 4a 00
        E 360 90 61 60
        E 0 90 55 60
        E 0 90 49 60
        E 0 90 3c 60
        E 120 80 61 00
        E 0 80 55 00
        E 0 80 49 00
        E 0 80 3c 00
        E 360 90 61 60
        E 0 90 55 60
        E 0 90 49 60
        E 0 90 3c 60
        E 120 80 61 00
        E 0 80 55 00
        E 0 80 49 00
        E 0 80 3c 00
        E 360 90 61 60
        E 0 90 55 60
        E 0 90 49 60
        E 0 90 3c 60
        E 120 80 61 00
        E 0 80 55 00
        E 0 80 49 00
        E 0 80 3c 00
        E 360 90 61 60
        E 0 90 55 60
        E 0 90 49 60
        E 0 90 3c 60
        E 120 80 61 00
        E 0 80 55 00
        E 0 80 49 00
        E 0 80 3c 00
        E 360 90 61 60
        E 0 90 55 60
        E 0 90 49 60
        E 0 90 3c 60
        E 120 80 61 00
        E 0 80 55 00
        E 0 80 49 00
        E 0 80 3c 00
        E 360 90 60 60
        E 0 90 54 60
        E 0 90 48 60
        E 120 80 60 00
        E 0 80 54 00
        E 0 80 48 00
        E 120 90 61 60
        E 0 90 55 60
        E 120 80 61 00
        E 0 80 55 00
        E 120 90 62 60
        E 0 90 56 60
        E 0 90 4a 60
        E 0 90 3d 60
        E 120 80 62 00
        E 0 80 56 00
        E 0 80 4a 00
        E 0 80 3d 00
        E 120 90 60 60
        E 0 90 54 60
        E 120 80 60 00
        E 0 80 54 00
        E 120 90 61 60
        E 0 90 55 60
        E 0 90 49 60
        E 120 80 61 00
        E 0 80 55 00
        E 0 80 49 00
        E 120 90 62 60
        E 0 90 56 60
        E 120 80 2f 00
        E 0 80 62 00
        E 0 80 56 00
        E 120 90 32 60
        E 0 90 63 60
        E 0 90 57 60
        E 0 90 4b 60
        E 0 90 3e 60
        E 120 80 4b 00
        E 0 80 3e 00
        E 240 80 63 00
        E 0 80 57 00
        E 120 90 59 60
        E 0 90 62 60
        E 0 90 65 60
        E 0 90 56 60
        E 0 90 4a 60
        E 120 80 4a 00
        E 240 80 62 00
        E 0 80 56 00
        E 120 90 61 60
        E 0 90 55 60
        E 0 90 49 60
        E 0 90 3c 60
        E 120 80 59 00
        E 0 80 65 00
        E 0 80 61 00
        E 0 80 55 00
        E 0 80 49 00
        E 0 80 3c 00
        E 360 90 63 60
        E 0 90 58 60
        E 0 90 4b 60
        E 120 80 63 00
        E 0 90 59 60
        E 0 90 64 60
        E 0 90 65 60
        E 360 80 4b 00
        E 360 80 58 00
        E 0 80 59 00
        E 0 80 64 00
        E 0 80 65 00
        E 120 90 63 60
        E 0 90 57 60
        E 0 90 4b 60
        E 120 80 63 00
        E 0 80 57 00
        E 0 80 4b 00
        E 360 90 62 60
        E 0 90 56 60
        E 0 90 4a 60
        E 0 90 3d 60
        E 120 80 62 00
        E 0 80 56 00
        E 0 80 4a 00
        E 0 80 3d 00
        E 240 80 32 00
        E 120 90 2d 60
        E 0 90 62 60
        E 0 90 56 60
        E 0 90 4a 60
        E 120 80 62 00
        E 0 80 56 00
        E 0 80 4a 00
        E 240 80 2d 00
        E 120 90 2f 60
        E 0 90 61 60
        E 0 90 55 60
        E 0 90 49 60
        E 0 90 3c 60
        E 120 80 61 00
        E 0 80 55 00
        E 0 80 49 00
        E 0 80 3c 00
        E 360 90 61 60
        E 0 90 55 60
        E 0 90 49 60
        E 0 90 3c 60
        E 120 80 61 00
        E 0 80 55 00
        E 0 80 49 00
        E 0 80 3c 00
        E 360 90 61 60
        E 0 90 55 60
        E 0 90 49 60
        E 0 90 3c 60
        E 120 80 61 00
        E 0 80 55 00
        E 0 80 49 00
        E 0 80 3c 00
        E 360 90 61 60
        E 0 90 55 60
        E 0 90 49 60
        E 0 90 3c 60
        E 120 80 61 00
        E 0 80 55 00
        E 0 80 49 00
        E 0 80 3c 00
        E 360 90 61 60
        E 0 90 55 60
        E 0 90 49 60
        E 0 90 3c 60
        E 120 80 61 00
        E 0 80 55 00
        E 0 80 49 00
        E 0 80 3c 00
        E 360 80 2f 00
        <X 480 0
          /wFbbWVsbG93XQ==
        >
        E 960 90 31 60
        E 0 90 63 60
        E 0 90 74 60
        E 0 90 57 60
        E 0 90 4b 60
        E 0 90 3e 60
        E 3840 80 4b 00
        E 0 80 3e 00
        E 360 80 31 00
        E 0 80 63 00
        E 0 80 57 00
        <X 120 0
          /wFbaW50ZW5zZV0=
        >
        E 0 90 2d 60
        E 0 90 62 60
        E 0 90 56 60
        E 0 90 4a 60
        E 0 90 3d 60
        E 120 80 74 00
        E 0 80 4a 00
        E 0 80 3d 00
        E 480 80 62 00
        E 0 80 56 00
        E 120 90 62 60
        E 0 90 56 60
        E 0 90 4a 60
        E 120 80 62 00
        E 0 80 56 00
        E 0 80 4a 00
        E 120 90 62 60
        E 0 90 56 60
        E 0 90 4a 60
        E 0 90 3d 60
        E 120 80 62 00
        E 0 80 56 00
        E 0 80 4a 00
        E 0 80 3d 00
        E 600 90 62 60
        E 0 90 56 60
        E 0 90 4a 60
        E 120 80 62 00
        E 0 80 56 00
        E 0 80 4a 00
        E 120 90 62 60
        E 0 90 56 60
        E 0 90 4a 60
        E 0 90 3d 60
        E 120 80 4a 00
        E 0 80 3d 00
        E 480 80 62 00
        E 0 80 56 00
        E 120 90 62 60
        E 0 90 56 60
        E 0 90 4a 60
        E 120 80 62 00
        E 0 80 56 00
        E 0 80 4a 00
        E 120 90 62 60
        E 0 90 56 60
        E 0 90 4a 60
        E 0 90 3d 60
        E 120 80 62 00
        E 0 80 56 00
        E 0 80 4a 00
        E 0 80 3d 00
        E 360 90 62 60
        E 0 90 56 60
        E 0 90 4a 60
        E 0 90 3d 60
        E 120 80 62 00
        E 0 80 56 00
        E 0 80 4a 00
        E 0 80 3d 00
        E 360 90 61 60
        E 0 90 55 60
        E 0 90 49 60
        E 0 90 3c 60
        E 120 80 61 00
        E 0 80 55 00
        E 0 80 49 00
        E 0 80 3c 00
        E 360 90 61 60
        E 0 90 55 60
        E 0 90 49 60
        E 0 90 3c 60
        E 120 80 61 00
        E 0 80 55 00
        E 0 80 49 00
        E 0 80 3c 00
        E 360 90 61 60
        E 0 90 55 60
        E 0 90 49 60
        E 0 90 3c 60
        E 120 80 61 00
        E 0 80 55 00
        E 0 80 49 00
        E 0 80 3c 00
        E 360 90 61 60
        E 0 90 55 60
        E 0 90 49 60
        E 0 90 3c 60
        E 120 80 61 00
        E 0 80 55 00
        E 0 80 49 00
        E 0 80 3c 00
        E 360 90 61 60
        E 0 90 55 60
        E 0 90 49 60
        E 0 90 3c 60
        E 120 80 61 00
        E 0 80 55 00
        E 0 80 49 00
        E 0 80 3c 00
        E 360 90 61 60
        E 0 90 55 60
        E 0 90 49 60
        E 0 90 3c 60
        E 120 80 61 00
        E 0 80 55 00
        E 0 80 49 00
        E 0 80 3c 00
        E 360 90 61 60
        E 0 90 55 60
        E 0 90 49 60
        E 0 90 3c 60
        E 120 80 61 00
        E 0 80 55 00
        E 0 80 49 00
        E 0 80 3c 00
        E 360 90 61 60
        E 0 90 55 60
        E 0 90 49 60
        E 0 90 3c 60
        E 120 80 61 00
        E 0 80 55 00
        E 0 80 49 00
        E 0 80 3c 00
        E 360 90 62 60
        E 0 90 56 60
        E 0 90 4a 60
        E 0 90 3d 60
        E 960 80 62 00
        E 0 80 56 00
        E 0 80 4a 00
        E 0 80 3d 00
        E 360 80 2d 00
        E 120 90 32 60
        E 0 90 62 60
        E 0 90 57 60
        E 0 90 4b 60
        E 0 90 3e 60
        E 120 80 62 00
        E 0 90 59 60
        E 0 90 63 60
        E 0 90 65 60
        E 0 80 3e 00
        E 480 80 4b 00
        E 120 80 57 00
        E 120 80 59 00
        E 0 80 63 00
        E 0 80 65 00
        E 120 90 62 60
        E 0 90 56 60
        E 0 90 4a 60
        E 0 90 3d 60
        E 120 80 62 00
        E 0 80 56 00
        E 0 80 4a 00
        E 0 80 3d 00
        E 360 90 61 60
        E 0 90 55 60
        E 0 90 49 60
        E 0 90 3c 60
        E 120 80 55 00
        E 0 80 49 00
        E 0 80 3c 00
        E 480 80 61 00
        E 120 90 59 60
        E 0 90 60 60
        E 0 90 65 60
        E 0 90 54 60
        E 0 90 48 60
        E 120 80 59 00
        E 0 80 60 00
        E 0 80 65 00
        E 0 80 54 00
        E 0 80 48 00
        E 120 90 60 60
        E 0 90 54 60
        E 0 90 48 60
        E 0 90 3c 60
        E 120 80 60 00
        E 0 80 54 00
        E 0 80 48 00
        E 0 80 3c 00
        E 360 90 60 60
        E 0 90 54 60
        E 0 90 48 60
        E 0 90 3c 60
        E 120 80 60 00
        E 0 80 54 00
        E 0 80 48 00
        E 0 80 3c 00
        E 360 90 60 60
        E 0 90 54 60
        E 0 90 48 60
        E 0 90 3c 60
        E 120 80 60 00
        E 0 80 54 00
        E 0 80 48 00
        E 0 80 3c 00
        E 360 90 60 60
        E 0 90 54 60
        E 0 90 48 60
        E 0 90 3c 60
        E 120 80 60 00
        E 0 80 54 00
        E 0 80 48 00
        E 0 80 3c 00
        E 360 90 60 60
        E 0 90 54 60
        E 0 90 48 60
        E 0 90 3c 60
        E 120 80 60 00
        E 0 80 54 00
        E 0 80 48 00
        E 0 80 3c 00
        E 360 90 60 60
        E 0 90 54 60
        E 0 90 48 60
        E 0 90 3c 60
        E 120 80 60 00
        E 0 80 54 00
        E 0 80 48 00
        E 0 80 3c 00
        E 360 90 60 60
        E 0 90 54 60
        E 0 90 48 60
        E 0 90 3c 60
        E 120 80 60 00
        E 0 80 54 00
        E 0 80 48 00
        E 0 80 3c 00
        E 720 80 32 00
        E 120 90 2d 60
        E 0 90 62 60
        E 0 90 56 60
        E 0 90 4a 60
        E 0 90 3d 60
        E 960 80 62 00
        E 0 80 56 00
        E 0 80 4a 00
        E 0 80 3d 00
        E 480 90 62 60
        E 0 90 56 60
        E 0 90 4a 60
        E 0 90 3d 60
        E 120 80 62 00
        E 0 80 56 00
        E 0 80 4a 00
        E 0 80 3d 00
        E 120 90 62 60
        E 0 90 56 60
        E 0 90 4a 60
        E 120 80 62 00
        E 0 80 56 00
        E 0 80 4a 00
        E 120 90 62 60
        E 0 90 56 60
        E 0 90 4a 60
        E 0 90 3d 60
        E 120 80 62 00
        E 0 80 56 00
        E 0 80 4a 00
        E 0 80 3d 00
        E 360 90 62 60
        E 0 90 56 60
        E 0 90 4a 60
        E 0 90 3d 60
        E 120 80 62 00
        E 0 80 56 00
        E 0 80 4a 00
        E 0 80 3d 00
        E 360 90 62 60
        E 0 90 56 60
        E 0 90 4a 60
        E 0 90 3d 60
        E 120 80 62 00
        E 0 80 56 00
        E 0 80 4a 00
        E 0 80 3d 00
        E 360 90 62 60
        E 0 90 56 60
        E 0 90 4a 60
        E 0 90 3d 60
        E 120 80 62 00
        E 0 80 56 00
        E 0 80 4a 00
        E 0 80 3d 00
        E 360 90 61 60
        E 0 90 55 60
        E 0 90 49 60
        E 0 90 3c 60
        E 120 80 61 00
        E 0 80 55 00
        E 0 80 49 00
        E 0 80 3c 00
        E 360 90 61 60
        E 0 90 55 60
        E 0 90 49 60
        E 0 90 3c 60
        E 120 80 61 00
        E 0 80 55 00
        E 0 80 49 00
        E 0 80 3c 00
        E 360 90 61 60
        E 0 90 55 60
        E 0 90 49 60
        E 0 90 3c 60
        E 120 80 61 00
        E 0 80 55 00
        E 0 80 49 00
        E 0 80 3c 00
        E 360 90 61 60
        E 0 90 55 60
        E 0 90 49 60
        E 0 90 3c 60
        E 120 80 61 00
        E 0 80 55 00
        E 0 80 49 00
        E 0 80 3c 00
        E 360 90 61 60
        E 0 90 74 60
        E 0 90 55 60
        E 0 90 49 60
        E 0 90 3c 60
        E 120 80 61 00
        E 0 80 55 00
        E 0 80 49 00
        E 0 80 3c 00
        E 360 90 61 60
        E 0 90 55 60
        E 0 90 49 60
        E 0 90 3c 60
        E 120 80 61 00
        E 0 80 55 00
        E 0 80 49 00
        E 0 80 3c 00
        E 360 90 61 60
        E 0 90 55 60
        E 0 90 49 60
        E 0 90 3c 60
        E 120 80 61 00
        E 0 80 55 00
        E 0 80 49 00
        E 0 80 3c 00
        E 360 90 61 60
        E 0 90 55 60
        E 0 90 49 60
        E 0 90 3c 60
        E 120 80 61 00
        E 0 80 55 00
        E 0 80 49 00
        E 0 80 3c 00
        E 360 90 62 60
        E 0 90 56 60
        E 0 90 4a 60
        E 0 90 3d 60
        E 960 80 74 00
        E 0 80 62 00
        E 0 80 56 00
        E 0 80 4a 00
        E 0 80 3d 00
        E 480 90 61 60
        E 0 90 55 60
        E 0 90 49 60
        E 0 90 3c 60
        E 120 80 61 00
        E 0 80 55 00
        E 0 80 49 00
        E 0 80 3c 00
        E 120 90 59 60
        E 0 90 62 60
        E 0 90 65 60
        E 0 90 56 60
        E 120 80 59 00
        E 0 80 62 00
        E 0 80 65 00
        E 0 80 56 00
        E 120 90 62 60
        E 0 90 56 60
        E 0 90 4a 60
        E 0 90 3d 60
        E 120 80 62 00
        E 0 80 56 00
        E 0 80 4a 00
        E 0 80 3d 00
        E 360 90 63 60
        E 0 90 57 60
        E 0 90 4b 60
        E 120 80 63 00
        E 0 80 57 00
        E 0 80 4b 00
        E 360 90 62 60
        E 0 90 56 60
        E 0 90 4a 60
        E 0 90 3d 60
        E 120 80 56 00
        E 0 80 4a 00
        E 0 80 3d 00
        E 240 80 62 00
        E 120 90 59 60
        E 0 90 61 60
        E 0 90 65 60
        E 0 90 55 60
        E 0 90 49 60
        E 120 80 55 00
        E 0 80 49 00
        E 240 80 59 00
        E 0 80 61 00
        E 0 80 65 00
        E 120 90 60 60
        E 0 90 54 60
        E 0 90 48 60
        E 0 90 3c 60
        E 120 80 60 00
        E 0 80 54 00
        E 0 80 48 00
        E 0 80 3c 00
        E 360 90 60 60
        E 0 90 54 60
        E 0 90 48 60
        E 0 90 3c 60
        E 120 80 60 00
        E 0 80 54 00
        E 0 80 48 00
        E 0 80 3c 00
        E 360 90 60 60
        E 0 90 54 60
        E 0 90 48 60
        E 0 90 3c 60
        E 120 80 60 00
        E 0 80 54 00
        E 0 80 48 00
        E 0 80 3c 00
        E 360 90 60 60
        E 0 90 54 60
        E 0 90 48 60
        E 0 90 3c 60
        E 120 80 60 00
        E 0 80 54 00
        E 0 80 48 00
        E 0 80 3c 00
        E 360 90 60 60
        E 0 90 54 60
        E 0 90 48 60
        E 0 90 3c 60
        E 120 80 60 00
        E 0 80 54 00
        E 0 80 48 00
        E 0 80 3c 00
        E 360 90 60 60
        E 0 90 54 60
        E 0 90 48 60
        E 0 90 3c 60
        E 120 80 60 00
        E 0 80 54 00
        E 0 80 48 00
        E 0 80 3c 00
        E 360 90 60 60
        E 0 90 54 60
        E 0 90 48 60
        E 0 90 3c 60
        E 120 80 60 00
        E 0 80 54 00
        E 0 80 48 00
        E 0 80 3c 00
        E 720 80 2d 00
        E 120 90 2d 60
        E 0 90 62 60
        E 0 90 56 60
        E 0 90 4a 60
        E 0 90 3d 60
        E 120 80 4a 00
        E 0 80 3d 00
        E 480 80 62 00
        E 0 80 56 00
        E 120 90 62 60
        E 0 90 56 60
        E 0 90 4a 60
        E 120 80 62 00
        E 0 80 56 00
        E 0 80 4a 00
        E 120 90 62 60
        E 0 90 56 60
        E 0 90 4a 60
        E 0 90 3d 60
        E 120 80 62 00
        E 0 80 56 00
        E 0 80 4a 00
        E 0 80 3d 00
        E 600 90 62 60
        E 0 90 56 60
        E 0 90 4a 60
        E 120 80 62 00
        E 0 80 56 00
        E 0 80 4a 00
        E 120 90 62 60
        E 0 90 56 60
        E 0 90 4a 60
        E 0 90 3d 60
        E 120 80 4a 00
        E 0 80 3d 00
        E 480 80 62 00
        E 0 80 56 00
        E 120 90 62 60
        E 0 90 56 60
        E 0 90 4a 60
        E 120 80 62 00
        E 0 80 56 00
        E 0 80 4a 00
        E 120 90 62 60
        E 0 90 56 60
        E 0 90 4a 60
        E 0 90 3d 60
        E 120 80 62 00
        E 0 80 56 00
        E 0 80 4a 00
        E 0 80 3d 00
        E 360 90 62 60
        E 0 90 56 60
        E 0 90 4a 60
        E 0 90 3d 60
        E 120 80 62 00
        E 0 80 56 00
        E 0 80 4a 00
        E 0 80 3d 00
        E 360 90 61 60
        E 0 90 55 60
        E 0 90 49 60
        E 0 90 3c 60
        E 120 80 61 00
        E 0 80 55 00
        E 0 80 49 00
        E 0 80 3c 00
        E 360 90 61 60
        E 0 90 55 60
        E 0 90 49 60
        E 0 90 3c 60
        E 120 80 61 00
        E 0 80 55 00
        E 0 80 49 00
        E 0 80 3c 00
        E 360 90 61 60
        E 0 90 55 60
        E 0 90 49 60
        E 0 90 3c 60
        E 120 80 61 00
        E 0 80 55 00
        E 0 80 49 00
        E 0 80 3c 00
        E 360 90 61 60
        E 0 90 55 60
        E 0 90 49 60
        E 0 90 3c 60
        E 120 80 61 00
        E 0 80 55 00
        E 0 80 49 00
        E 0 80 3c 00
        E 360 90 61 60
        E 0 90 55 60
        E 0 90 49 60
        E 0 90 3c 60
        E 120 80 61 00
        E 0 80 55 00
        E 0 80 49 00
        E 0 80 3c 00
        E 360 90 61 60
        E 0 90 55 60
        E 0 90 49 60
        E 0 90 3c 60
        E 120 80 61 00
        E 0 80 55 00
        E 0 80 49 00
        E 0 80 3c 00
        E 360 90 61 60
        E 0 90 55 60
        E 0 90 49 60
        E 0 90 3c 60
        E 120 80 61 00
        E 0 80 55 00
        E 0 80 49 00
        E 0 80 3c 00
        E 360 90 61 60
        E 0 90 55 60
        E 0 90 49 60
        E 0 90 3c 60
        E 120 80 61 00
        E 0 80 55 00
        E 0 80 49 00
        E 0 80 3c 00
        E 360 90 62 60
        E 0 90 56 60
        E 0 90 4a 60
        E 0 90 3d 60
        E 960 80 62 00
        E 0 80 56 00
        E 0 80 4a 00
        E 0 80 3d 00
        E 360 80 2d 00
        E 120 90 32 60
        E 0 90 62 60
        E 0 90 57 60
        E 0 90 4b 60
        E 0 90 3e 60
        E 120 80 62 00
        E 0 90 59 60
        E 0 90 63 60
        E 0 90 65 60
        E 0 80 3e 00
        E 480 80 4b 00
        E 120 80 57 00
        E 120 80 59 00
        E 0 80 63 00
        E 0 80 65 00
        E 120 90 62 60
        E 0 90 56 60
        E 0 90 4a 60
        E 0 90 3d 60
        E 120 80 62 00
        E 0 80 56 00
        E 0 80 4a 00
        E 0 80 3d 00
        E 360 90 61 60
        E 0 90 55 60
        E 0 90 49 60
        E 0 90 3c 60
        E 120 80 55 00
        E 0 80 49 00
        E 0 80 3c 00
        E 480 80 61 00
        E 120 90 59 60
        E 0 90 60 60
        E 0 90 65 60
        E 0 90 54 60
        E 0 90 48 60
        E 120 80 59 00
        E 0 80 60 00
        E 0 80 65 00
        E 0 80 54 00
        E 0 80 48 00
        E 120 90 60 60
        E 0 90 54 60
        E 0 90 48 60
        E 0 90 3c 60
        E 120 80 60 00
        E 0 80 54 00
        E 0 80 48 00
        E 0 80 3c 00
        E 360 90 60 60
        E 0 90 54 60
        E 0 90 48 60
        E 0 90 3c 60
        E 120 80 60 00
        E 0 80 54 00
        E 0 80 48 00
        E 0 80 3c 00
        E 360 90 60 60
        E 0 90 54 60
        E 0 90 48 60
        E 0 90 3c 60
        E 120 80 60 00
        E 0 80 54 00
        E 0 80 48 00
        E 0 80 3c 00
        E 360 90 60 60
        E 0 90 54 60
        E 0 90 48 60
        E 0 90 3c 60
        E 120 80 60 00
        E 0 80 54 00
        E 0 80 48 00
        E 0 80 3c 00
        E 360 90 60 60
        E 0 90 54 60
        E 0 90 48 60
        E 0 90 3c 60
        E 120 80 60 00
        E 0 80 54 00
        E 0 80 48 00
        E 0 80 3c 00
        E 360 90 60 60
        E 0 90 54 60
        E 0 90 48 60
        E 0 90 3c 60
        E 120 80 60 00
        E 0 80 54 00
        E 0 80 48 00
        E 0 80 3c 00
        E 360 90 60 60
        E 0 90 54 60
        E 0 90 48 60
        E 0 90 3c 60
        E 120 80 60 00
        E 0 80 54 00
        E 0 80 48 00
        E 0 80 3c 00
        E 720 80 32 00
        E 120 90 2d 60
        E 0 90 62 60
        E 0 90 56 60
        E 0 90 4a 60
        E 0 90 3d 60
        E 960 80 62 00
        E 0 80 56 00
        E 0 80 4a 00
        E 0 80 3d 00
        E 480 90 62 60
        E 0 90 56 60
        E 0 90 4a 60
        E 0 90 3d 60
        E 120 80 62 00
        E 0 80 56 00
        E 0 80 4a 00
        E 0 80 3d 00
        E 120 90 62 60
        E 0 90 56 60
        E 0 90 4a 60
        E 120 80 62 00
        E 0 80 56 00
        E 0 80 4a 00
        E 120 90 62 60
        E 0 90 56 60
        E 0 90 4a 60
        E 0 90 3d 60
        E 120 80 62 00
        E 0 80 56 00
        E 0 80 4a 00
        E 0 80 3d 00
        E 360 90 62 60
        E 0 90 56 60
        E 0 90 4a 60
        E 0 90 3d 60
        E 120 80 62 00
        E 0 80 56 00
        E 0 80 4a 00
        E 0 80 3d 00
        E 360 90 62 60
        E 0 90 56 60
        E 0 90 4a 60
        E 0 90 3d 60
        E 120 80 62 00
        E 0 80 56 00
        E 0 80 4a 00
        E 0 80 3d 00
        E 360 90 62 60
        E 0 90 56 60
        E 0 90 4a 60
        E 0 90 3d 60
        E 120 80 62 00
        E 0 80 56 00
        E 0 80 4a 00
        E 0 80 3d 00
        E 360 90 61 60
        E 0 90 55 60
        E 0 90 49 60
        E 0 90 3c 60
        E 120 80 61 00
        E 0 80 55 00
        E 0 80 49 00
        E 0 80 3c 00
        E 360 90 61 60
        E 0 90 55 60
        E 0 90 49 60
        E 0 90 3c 60
        E 120 80 61 00
        E 0 80 55 00
        E 0 80 49 00
        E 0 80 3c 00
        E 360 90 61 60
        E 0 90 55 60
        E 0 90 49 60
        E 0 90 3c 60
        E 120 80 61 00
        E 0 80 55 00
        E 0 80 49 00
        E 0 80 3c 00
        E 360 90 61 60
        E 0 90 55 60
        E 0 90 49 60
        E 0 90 3c 60
        E 120 80 61 00
        E 0 80 55 00
        E 0 80 49 00
        E 0 80 3c 00
        E 360 90 61 60
        E 0 90 55 60
        E 0 90 49 60
        E 0 90 3c 60
        E 120 80 61 00
        E 0 80 55 00
        E 0 80 49 00
        E 0 80 3c 00
        E 360 90 61 60
        E 0 90 55 60
        E 0 90 49 60
        E 0 90 3c 60
        E 120 80 61 00
        E 0 80 55 00
        E 0 80 49 00
        E 0 80 3c 00
        E 240 80 2d 00
        E 120 90 2f 60
        E 0 90 62 60
        E 0 90 56 60
        E 0 90 4a 60
        E 0 90 3d 60
        E 120 80 62 00
        E 0 80 56 00
        E 0 80 4a 00
        E 0 80 3d 00
        E 120 90 60 60
        E 0 90 54 60
        E 120 80 60 00
        E 0 80 54 00
        E 120 90 61 60
        E 0 90 55 60
        E 0 90 49 60
        E 120 80 61 00
        E 0 80 55 00
        E 0 80 49 00
        E 120 90 62 60
        E 0 90 56 60
        E 120 80 62 00
        E 0 80 56 00
        E 120 90 63 60
        E 0 90 57 60
        E 0 90 4b 60
        E 0 90 3e 60
        E 120 80 4b 00
        E 0 80 3e 00
        E 240 80 63 00
        E 0 80 57 00
        E 120 90 59 60
        E 0 90 62 60
        E 0 90 65 60
        E 0 90 56 60
        E 0 90 4a 60
        E 120 80 4a 00
        E 240 80 62 00
        E 0 80 56 00
        E 120 90 61 60
        E 0 90 55 60
        E 0 90 49 60
        E 0 90 3c 60
        E 120 80 59 00
        E 0 80 65 00
        E 0 80 61 00
        E 0 80 55 00
        E 0 80 49 00
        E 0 80 3c 00
        E 240 80 2f 00
        E 120 90 32 60
        E 0 90 63 60
        E 0 90 58 60
        E 0 90 4b 60
        E 120 80 63 00
        E 0 90 59 60
        E 0 90 64 60
        E 0 90 65 60
        E 360 80 4b 00
        E 360 80 58 00
        E 0 80 59 00
        E 0 80 64 00
        E 0 80 65 00
        E 120 90 63 60
        E 0 90 57 60
        E 0 90 4b 60
        E 0 90 3e 60
        E 120 80 63 00
        E 0 80 57 00
        E 0 80 4b 00
        E 0 80 3e 00
        E 360 90 62 60
        E 0 90 56 60
        E 0 90 4a 60
        E 0 90 3d 60
        E 120 80 62 00
        E 0 80 56 00
        E 0 80 4a 00
        E 0 80 3d 00
        E 240 80 32 00
        E 120 90 2d 60
        E 0 90 64 60
        E 0 90 58 60
        E 0 90 4b 60
        E 120 80 64 00
        E 0 80 58 00
        E 0 80 4b 00
        E 360 90 61 60
        E 0 90 55 60
        E 0 90 49 60
        E 0 90 3c 60
        E 120 80 61 00
        E 0 80 55 00
        E 0 80 49 00
        E 0 80 3c 00
        E 360 90 61 60
        E 0 90 55 60
        E 0 90 49 60
        E 0 90 3c 60
        E 120 80 61 00
        E 0 80 55 00
        E 0 80 49 00
        E 0 80 3c 00
        E 360 90 61 60
        E 0 90 55 60
        E 0 90 49 60
        E 0 90 3c 60
        E 120 80 61 00
        E 0 80 55 00
        E 0 80 49 00
        E 0 80 3c 00
        E 360 90 61 60
        E 0 90 55 60
        E 0 90 49 60
        E 0 90 3c 60
        E 120 80 61 00
        E 0 80 55 00
        E 0 80 49 00
        E 0 80 3c 00
        E 360 90 61 60
        E 0 90 55 60
        E 0 90 49 60
        E 0 90 3c 60
        E 120 80 61 00
        E 0 80 55 00
        E 0 80 49 00
        E 0 80 3c 00
        E 360 80 2d 00
        <X 479 0
          /wFbaWRsZV9yZWFsdGltZV0=
        >
        E 8640 b0 7b 00
        GUID {8B37BC5C-D877-4BBD-B815-62254F27AFCE}
        IGNTEMPO 0 120.00000000 4 4
        SRCCOLOR 4
        VELLANE 132 128 60
        COLORMAP "C:\Program Files\REAPER (x64)\Data\color_maps\rockband_guitarbass.png"
        CFGEDITVIEW 268371.039776 49.841938 27 12 0 0 0
        CFGEDIT 1 1 0 1 1 0 1 1 1 1 1 0.25000000 -8 -8 1544 872 0 0 1 1 0.00000000 0 1 1 0 0.500000 0 0 1.000000 64
        KEYSNAP 0 6 "102030050700" 0 "Pentatonic"
        EVTFILTER 0 -1 -1 -1 -1 0 1 0 0 -1.00000000 -1.00000000
      >
    >
  >
  <TRACK '{38EEC1F8-989C-418B-A6BD-D214BCDB7A46}'
    NAME "PART GUITAR"
    PEAKCOL 16576
    BEAT -1
    AUTOMODE 0
    VOLPAN 1.00000000000000 0.00000000000000 -1.00000000000000 -1.00000000000000 1.00000000000000
    MUTESOLO 0 0 0
    IPHASE 0
    ISBUS 0 0
    BUSCOMP 0 0
    SHOWINMIX 1 0.666700 0.500000 1 0.500000 -1 -1 -1
    FREEMODE 0
    SEL 0
    REC 0 0 0 0 0 0 0
    VU 2
    TRACKHEIGHT 0 0
    INQ 0 0 0 0.5000000000 100 0 0 100
    NCHAN 2
    FX 1
    TRACKID {38EEC1F8-989C-418B-A6BD-D214BCDB7A46}
    PERF 0
    MIDIOUT -1
    <MIDINOTENAMES
      0 127 "TRILL MARKER"
      0 126 "TREMOLO MARKER"
      0 125 "---"
      0 124 "BRE"
      0 123 "BRE"
      0 122 "BRE"
      0 121 "BRE"
      0 120 "BRE (use all 5)"
      0 119 "----"
      0 116 "OVERDRIVE"
      0 115 "----"
      0 103 "Solo Marker"
      0 102 "Force HOPO Off"
      0 101 "Force HOPO On"
      0 100 "EXPERT Orange"
      0 99 "EXPERT Blue"
      0 98 "EXPERT Yellow"
      0 97 "EXPERT Red"
      0 96 "EXPERT Green"
      0 95 "----"
      0 90 "Force HOPO Off"
      0 89 "Force HOPO On"
      0 88 "HARD Orange"
      0 87 "HARD Blue"
      0 86 "HARD Yellow"
      0 85 "HARD Red"
      0 84 "HARD Green"
      0 77 "----"
      0 76 "MEDIUM Orange"
      0 75 "MEDIUM Blue"
      0 74 "MEDIUM Yellow"
      0 73 "MEDIUM Red"
      0 72 "MEDIUM Green"
      0 65 "----"
      0 64 "EASY Orange"
      0 63 "EASY Blue"
      0 62 "EASY Yellow"
      0 61 "EASY Red"
      0 60 "EASY Green"
      0 59 "Fret 12"
      0 57 "Fret 11"
      0 56 "Fret 10"
      0 55 "Fret 9"
      0 53 "Fret 8"
      0 52 "Fret 7"
      0 50 "Fret 6"
      0 49 "Fret 5"
      0 47 "Fret 4"
      0 45 "Fret 3"
      0 43 "Fret 2"
      0 40 "Fret 1"
    >
    MAINSEND 1 0
    <FXCHAIN
      WNDRECT 0 43 891 559
      SHOW 0
      LASTSEL 0
      DOCKED 0
      BYPASS 0 0
      <VST "VSTi: RBN Preview (RBN)" "rbprev_vst64.dll" 0 ""
        dnBicu5e7f4AAAAAAgAAAAEAAAAAAAAAAgAAAAAAAAAEAAAAAQAAAA==
        AAAQAAAAqgAAABAAAAA=
      >
      FLOATPOS 0 0 0 0
      FXID {F1145177-9FF1-4B60-A55F-4E77E703DA39}
      WAK 0
    >
    <ITEM
      POSITION 0.00000000000000
      SNAPOFFS 0.00000000000000
      LENGTH 276.11399999999998
      LOOP 0
      ALLTAKES 0
      SEL 0
      FADEIN 1 0.000000 0.000000 1 0
      FADEOUT 1 0.000000 0.000000 1 0
      MUTE 0
      IGUID {0EAD0CE2-2F6F-4449-8379-E63E443CBA4C}
      IID 3
      NAME "PART GUITAR"
      VOLPAN 1.000000 0.000000 1.000000 -1.000000
      SOFFS 0.00000000000000 0.00000000000000
      PLAYRATE 1.00000000000000 1 0.00000000000000 -1
      CHANMODE 0
      GUID {5C0C009F-B345-452A-9C07-9AC5FA1E537A}
      <SOURCE MIDI
        HASDATA 1 480 QN
        POOLEDEVTS {31962752-91F6-4257-9B0C-66FF49CCD6C0}
        <X 0 0
          /wNQQVJUIEdVSVRBUg==
        >
        <X 5040 0
          /wFbcGxheV0=
        >
        E 240 90 2d 60
        E 0 90 60 60
        E 0 90 61 60
        E 0 90 54 60
        E 0 90 55 60
        E 0 90 48 60
        E 0 90 49 60
        E 120 80 60 00
        E 0 80 61 00
        E 0 80 54 00
        E 0 80 55 00
        E 0 80 48 00
        E 0 80 49 00
        E 240 80 2d 00
        E 120 90 2f 60
        E 0 90 61 60
        E 0 90 62 60
        E 0 90 55 60
        E 0 90 56 60
        E 0 90 49 60
        E 0 90 4a 60
        E 0 90 3e 60
        E 120 80 3e 00
        E 480 80 49 00
        E 0 80 4a 00
        E 120 80 55 00
        E 0 80 56 00
        E 120 80 61 00
        E 0 80 62 00
        E 120 90 59 60
        E 0 90 60 60
        E 0 90 61 60
        E 0 90 65 60
        E 0 90 54 60
        E 0 90 55 60
        E 0 90 48 60
        E 0 90 49 60
        E 0 90 3c 60
        E 120 80 59 00
        E 0 80 60 00
        E 0 80 61 00
        E 0 80 65 00
        E 0 80 54 00
        E 0 80 55 00
        E 0 80 48 00
        E 0 80 49 00
        E 0 80 3c 00
        E 240 80 2f 00
        E 120 90 32 60
        E 0 90 62 60
        E 0 90 63 60
        E 0 90 56 60
        E 0 90 57 60
        E 0 90 4a 60
        E 0 90 4b 60
        E 120 80 32 00
        E 0 80 62 00
        E 0 80 63 00
        E 0 80 56 00
        E 0 80 57 00
        E 0 80 4a 00
        E 0 80 4b 00
        E 0 90 34 60
        E 0 90 59 60
        E 0 90 62 60
        E 0 90 64 60
        E 0 90 65 60
        E 720 80 34 00
        E 0 80 59 00
        E 0 80 62 00
        E 0 80 64 00
        E 0 80 65 00
        E 120 90 32 60
        E 0 90 62 60
        E 0 90 63 60
        E 0 90 56 60
        E 0 90 57 60
        E 0 90 4a 60
        E 0 90 4b 60
        E 120 80 62 00
        E 0 80 63 00
        E 0 80 56 00
        E 0 80 57 00
        E 0 80 4a 00
        E 0 80 4b 00
        E 240 80 32 00
        E 120 90 2f 60
        E 0 90 61 60
        E 0 90 62 60
        E 0 90 55 60
        E 0 90 56 60
        E 0 90 49 60
        E 0 90 4a 60
        E 0 90 3e 60
        E 120 80 61 00
        E 0 80 62 00
        E 0 80 55 00
        E 0 80 56 00
        E 0 80 49 00
        E 0 80 4a 00
        E 0 80 3e 00
        E 240 80 2f 00
        E 120 90 32 60
        E 0 90 62 60
        E 0 90 63 60
        E 0 90 56 60
        E 0 90 57 60
        E 0 90 4a 60
        E 0 90 4b 60
        E 120 80 62 00
        E 0 80 63 00
        E 0 80 56 00
        E 0 80 57 00
        E 0 80 4a 00
        E 0 80 4b 00
        E 240 80 32 00
        E 120 90 2b 60
        E 0 90 60 60
        E 0 90 62 60
        E 0 90 54 60
        E 0 90 56 60
        E 0 90 48 60
        E 0 90 4a 60
        E 0 90 3d 60
        E 120 80 2b 00
        E 0 80 60 00
        E 0 80 62 00
        E 0 80 54 00
        E 0 80 56 00
        E 0 80 48 00
        E 0 80 4a 00
        E 0 80 3d 00
        E 120 90 2f 60
        E 0 90 59 60
        E 0 90 61 60
        E 0 90 62 60
        E 0 90 65 60
        E 0 90 55 60
        E 0 90 56 60
        E 120 80 2f 00
        E 0 80 61 00
        E 0 80 62 00
        E 0 80 55 00
        E 0 80 56 00
        E 120 90 2b 60
        E 0 90 60 60
        E 0 90 62 60
        E 0 90 54 60
        E 0 90 56 60
        E 0 90 48 60
        E 0 90 4a 60
        E 120 80 59 00
        E 0 80 65 00
        E 0 80 60 00
        E 0 80 62 00
        E 0 80 54 00
        E 0 80 56 00
        E 0 80 48 00
        E 0 80 4a 00
        E 240 80 2b 00
        E 120 90 2d 60
        E 0 90 60 60
        E 0 90 61 60
        E 0 90 54 60
        E 0 90 55 60
        E 0 90 48 60
        E 0 90 49 60
        E 0 90 3c 60
        E 2040 80 48 00
        E 0 80 49 00
        E 0 80 3c 00
        E 120 80 54 00
        E 0 80 55 00
        E 120 80 2d 00
        E 0 80 60 00
        E 0 80 61 00
        E 120 90 2d 60
        E 0 90 60 60
        E 0 90 61 60
        E 0 90 54 60
        E 0 90 55 60
        E 0 90 48 60
        E 0 90 49 60
        E 120 80 60 00
        E 0 80 61 00
        E 0 80 54 00
        E 0 80 55 00
        E 0 80 48 00
        E 0 80 49 00
        E 240 80 2d 00
        E 120 90 2f 60
        E 0 90 61 60
        E 0 90 62 60
        E 0 90 55 60
        E 0 90 56 60
        E 0 90 49 60
        E 0 90 4a 60
        E 0 90 3e 60
        E 120 80 3e 00
        E 480 80 49 00
        E 0 80 4a 00
        E 120 80 55 00
        E 0 80 56 00
        E 120 80 61 00
        E 0 80 62 00
        E 120 90 59 60
        E 0 90 60 60
        E 0 90 61 60
        E 0 90 65 60
        E 0 90 54 60
        E 0 90 55 60
        E 0 90 48 60
        E 0 90 49 60
        E 0 90 3c 60
        E 120 80 59 00
        E 0 80 60 00
        E 0 80 61 00
        E 0 80 65 00
        E 0 80 54 00
        E 0 80 55 00
        E 0 80 48 00
        E 0 80 49 00
        E 0 80 3c 00
        E 240 80 2f 00
        E 120 90 32 60
        E 0 90 62 60
        E 0 90 63 60
        E 0 90 56 60
        E 0 90 57 60
        E 0 90 4a 60
        E 0 90 4b 60
        E 120 80 32 00
        E 0 80 62 00
        E 0 80 63 00
        E 0 80 56 00
        E 0 80 57 00
        E 0 80 4a 00
        E 0 80 4b 00
        E 0 90 34 60
        E 0 90 59 60
        E 0 90 62 60
        E 0 90 64 60
        E 0 90 65 60
        E 720 80 34 00
        E 0 80 59 00
        E 0 80 62 00
        E 0 80 64 00
        E 0 80 65 00
        E 120 90 32 60
        E 0 90 62 60
        E 0 90 63 60
        E 0 90 56 60
        E 0 90 57 60
        E 0 90 4a 60
        E 0 90 4b 60
        E 120 80 62 00
        E 0 80 63 00
        E 0 80 56 00
        E 0 80 57 00
        E 0 80 4a 00
        E 0 80 4b 00
        E 240 80 32 00
        E 120 90 2f 60
        E 0 90 61 60
        E 0 90 62 60
        E 0 90 55 60
        E 0 90 56 60
        E 0 90 49 60
        E 0 90 4a 60
        E 0 90 3e 60
        E 120 80 61 00
        E 0 80 62 00
        E 0 80 55 00
        E 0 80 56 00
        E 0 80 49 00
        E 0 80 4a 00
        E 0 80 3e 00
        E 240 80 2f 00
        E 120 90 32 60
        E 0 90 62 60
        E 0 90 63 60
        E 0 90 56 60
        E 0 90 57 60
        E 0 90 4a 60
        E 0 90 4b 60
        E 120 80 62 00
        E 0 80 63 00
        E 0 80 56 00
        E 0 80 57 00
        E 0 80 4a 00
        E 0 80 4b 00
        E 240 80 32 00
        E 120 90 2b 60
        E 0 90 60 60
        E 0 90 62 60
        E 0 90 54 60
        E 0 90 56 60
        E 0 90 48 60
        E 0 90 4a 60
        E 0 90 3d 60
        E 120 80 2b 00
        E 0 80 60 00
        E 0 80 62 00
        E 0 80 54 00
        E 0 80 56 00
        E 0 80 48 00
        E 0 80 4a 00
        E 0 80 3d 00
        E 120 90 2f 60
        E 0 90 59 60
        E 0 90 61 60
        E 0 90 62 60
        E 0 90 65 60
        E 0 90 55 60
        E 0 90 56 60
        E 120 80 2f 00
        E 0 80 61 00
        E 0 80 62 00
        E 0 80 55 00
        E 0 80 56 00
        E 120 90 2b 60
        E 0 90 60 60
        E 0 90 62 60
        E 0 90 54 60
        E 0 90 56 60
        E 0 90 48 60
        E 0 90 4a 60
        E 120 80 59 00
        E 0 80 65 00
        E 0 80 60 00
        E 0 80 62 00
        E 0 80 54 00
        E 0 80 56 00
        E 0 80 48 00
        E 0 80 4a 00
        E 240 80 2b 00
        E 120 90 2d 60
        E 0 90 60 60
        E 0 90 61 60
        E 0 90 54 60
        E 0 90 55 60
        E 0 90 48 60
        E 0 90 49 60
        E 0 90 3c 60
        E 1920 80 48 00
        E 0 80 49 00
        E 0 80 3c 00
        E 360 80 2d 00
        E 0 80 60 00
        E 0 80 61 00
        E 0 80 54 00
        E 0 80 55 00
        E 120 90 2d 60
        E 0 90 60 60
        E 0 90 61 60
        E 0 90 54 60
        E 0 90 55 60
        E 0 90 48 60
        E 0 90 49 60
        E 120 80 60 00
        E 0 80 61 00
        E 0 80 54 00
        E 0 80 55 00
        E 0 80 48 00
        E 0 80 49 00
        E 240 80 2d 00
        E 120 90 2f 60
        E 0 90 61 60
        E 0 90 62 60
        E 0 90 55 60
        E 0 90 56 60
        E 0 90 49 60
        E 0 90 4a 60
        E 0 90 3e 60
        E 480 80 49 00
        E 0 80 4a 00
        E 0 80 3e 00
        E 360 80 61 00
        E 0 80 62 00
        E 0 80 55 00
        E 0 80 56 00
        E 120 90 59 60
        E 0 90 60 60
        E 0 90 61 60
        E 0 90 65 60
        E 0 90 54 60
        E 0 90 55 60
        E 0 90 48 60
        E 0 90 49 60
        E 0 90 3c 60
        E 120 80 59 00
        E 0 80 60 00
        E 0 80 61 00
        E 0 80 65 00
        E 0 80 54 00
        E 0 80 55 00
        E 0 80 48 00
        E 0 80 49 00
        E 0 80 3c 00
        E 240 80 2f 00
        E 120 90 32 60
        E 0 90 62 60
        E 0 90 63 60
        E 0 90 74 60
        E 0 90 56 60
        E 0 90 57 60
        E 0 90 4a 60
        E 0 90 4b 60
        E 120 80 32 00
        E 0 80 62 00
        E 0 80 63 00
        E 0 80 56 00
        E 0 80 57 00
        E 0 80 4a 00
        E 0 80 4b 00
        E 0 90 34 60
        E 0 90 59 60
        E 0 90 62 60
        E 0 90 64 60
        E 0 90 65 60
        E 720 80 34 00
        E 0 80 59 00
        E 0 80 62 00
        E 0 80 64 00
        E 0 80 65 00
        E 120 90 32 60
        E 0 90 62 60
        E 0 90 63 60
        E 0 90 56 60
        E 0 90 57 60
        E 0 90 4a 60
        E 0 90 4b 60
        E 120 80 62 00
        E 0 80 63 00
        E 0 80 56 00
        E 0 80 57 00
        E 0 80 4a 00
        E 0 80 4b 00
        E 240 80 32 00
        E 120 90 2f 60
        E 0 90 61 60
        E 0 90 62 60
        E 0 90 55 60
        E 0 90 56 60
        E 0 90 49 60
        E 0 90 4a 60
        E 0 90 3e 60
        E 120 80 61 00
        E 0 80 62 00
        E 0 80 55 00
        E 0 80 56 00
        E 0 80 49 00
        E 0 80 4a 00
        E 0 80 3e 00
        E 240 80 2f 00
        E 120 90 32 60
        E 0 90 62 60
        E 0 90 63 60
        E 0 90 56 60
        E 0 90 57 60
        E 0 90 4a 60
        E 0 90 4b 60
        E 120 80 62 00
        E 0 80 63 00
        E 0 80 56 00
        E 0 80 57 00
        E 0 80 4a 00
        E 0 80 4b 00
        E 240 80 32 00
        E 120 80 74 00
        E 0 90 2b 60
        E 0 90 60 60
        E 0 90 62 60
        E 0 90 54 60
        E 0 90 56 60
        E 0 90 48 60
        E 0 90 4a 60
        E 0 90 3d 60
        E 120 80 2b 00
        E 0 80 60 00
        E 0 80 62 00
        E 0 80 54 00
        E 0 80 56 00
        E 0 80 48 00
        E 0 80 4a 00
        E 0 80 3d 00
        E 120 90 2f 60
        E 0 90 59 60
        E 0 90 61 60
        E 0 90 62 60
        E 0 90 65 60
        E 0 90 55 60
        E 0 90 56 60
        E 120 80 2f 00
        E 0 80 61 00
        E 0 80 62 00
        E 0 80 55 00
        E 0 80 56 00
        E 120 90 2b 60
        E 0 90 60 60
        E 0 90 62 60
        E 0 90 54 60
        E 0 90 56 60
        E 0 90 48 60
        E 0 90 4a 60
        E 120 80 59 00
        E 0 80 65 00
        E 0 80 60 00
        E 0 80 62 00
        E 0 80 54 00
        E 0 80 56 00
        E 0 80 48 00
        E 0 80 4a 00
        E 240 80 2b 00
        E 120 90 2d 60
        E 0 90 60 60
        E 0 90 61 60
        E 0 90 54 60
        E 0 90 55 60
        E 0 90 48 60
        E 0 90 49 60
        E 0 90 3c 60
        E 2040 80 48 00
        E 0 80 49 00
        E 0 80 3c 00
        E 120 80 54 00
        E 0 80 55 00
        E 120 80 2d 00
        E 0 80 60 00
        E 0 80 61 00
        E 120 90 2d 60
        E 0 90 60 60
        E 0 90 61 60
        E 0 90 54 60
        E 0 90 55 60
        E 0 90 48 60
        E 0 90 49 60
        E 120 80 60 00
        E 0 80 61 00
        E 0 80 54 00
        E 0 80 55 00
        E 0 80 48 00
        E 0 80 49 00
        E 240 80 2d 00
        E 120 90 2f 60
        E 0 90 61 60
        E 0 90 62 60
        E 0 90 55 60
        E 0 90 56 60
        E 0 90 49 60
        E 0 90 4a 60
        E 0 90 3e 60
        E 480 80 49 00
        E 0 80 4a 00
        E 0 80 3e 00
        E 360 80 61 00
        E 0 80 62 00
        E 0 80 55 00
        E 0 80 56 00
        E 120 90 59 60
        E 0 90 60 60
        E 0 90 61 60
        E 0 90 65 60
        E 0 90 54 60
        E 0 90 55 60
        E 0 90 48 60
        E 0 90 49 60
        E 0 90 3c 60
        E 120 80 59 00
        E 0 80 60 00
        E 0 80 61 00
        E 0 80 65 00
        E 0 80 54 00
        E 0 80 55 00
        E 0 80 48 00
        E 0 80 49 00
        E 0 80 3c 00
        E 240 80 2f 00
        E 120 90 32 60
        E 0 90 62 60
        E 0 90 63 60
        E 0 90 56 60
        E 0 90 57 60
        E 0 90 4a 60
        E 0 90 4b 60
        E 120 80 32 00
        E 0 80 62 00
        E 0 80 63 00
        E 0 80 56 00
        E 0 80 57 00
        E 0 80 4a 00
        E 0 80 4b 00
        E 0 90 34 60
        E 0 90 59 60
        E 0 90 62 60
        E 0 90 64 60
        E 0 90 65 60
        E 720 80 34 00
        E 0 80 59 00
        E 0 80 62 00
        E 0 80 64 00
        E 0 80 65 00
        E 120 90 32 60
        E 0 90 62 60
        E 0 90 63 60
        E 0 90 56 60
        E 0 90 57 60
        E 0 90 4a 60
        E 0 90 4b 60
        E 120 80 62 00
        E 0 80 63 00
        E 0 80 56 00
        E 0 80 57 00
        E 0 80 4a 00
        E 0 80 4b 00
        E 240 80 32 00
        E 120 90 2f 60
        E 0 90 61 60
        E 0 90 62 60
        E 0 90 55 60
        E 0 90 56 60
        E 0 90 49 60
        E 0 90 4a 60
        E 0 90 3e 60
        E 120 80 61 00
        E 0 80 62 00
        E 0 80 55 00
        E 0 80 56 00
        E 0 80 49 00
        E 0 80 4a 00
        E 0 80 3e 00
        E 240 80 2f 00
        E 120 90 32 60
        E 0 90 62 60
        E 0 90 63 60
        E 0 90 56 60
        E 0 90 57 60
        E 0 90 4a 60
        E 0 90 4b 60
        E 120 80 62 00
        E 0 80 63 00
        E 0 80 56 00
        E 0 80 57 00
        E 0 80 4a 00
        E 0 80 4b 00
        E 240 80 32 00
        E 120 90 2b 60
        E 0 90 60 60
        E 0 90 62 60
        E 0 90 54 60
        E 0 90 56 60
        E 0 90 48 60
        E 0 90 4a 60
        E 0 90 3d 60
        E 120 80 2b 00
        E 0 80 60 00
        E 0 80 62 00
        E 0 80 54 00
        E 0 80 56 00
        E 0 80 48 00
        E 0 80 4a 00
        E 0 80 3d 00
        E 120 90 2f 60
        E 0 90 59 60
        E 0 90 61 60
        E 0 90 62 60
        E 0 90 65 60
        E 0 90 55 60
        E 0 90 56 60
        E 120 80 2f 00
        E 0 80 61 00
        E 0 80 62 00
        E 0 80 55 00
        E 0 80 56 00
        E 120 90 2b 60
        E 0 90 60 60
        E 0 90 62 60
        E 0 90 54 60
        E 0 90 56 60
        E 0 90 48 60
        E 0 90 4a 60
        E 120 80 59 00
        E 0 80 65 00
        E 0 80 60 00
        E 0 80 62 00
        E 0 80 54 00
        E 0 80 56 00
        E 0 80 48 00
        E 0 80 4a 00
        E 240 80 2b 00
        E 120 90 2d 60
        E 0 90 60 60
        E 0 90 61 60
        E 0 90 54 60
        E 0 90 55 60
        E 0 90 48 60
        E 0 90 49 60
        E 0 90 3c 60
        E 2040 80 48 00
        E 0 80 49 00
        E 0 80 3c 00
        E 120 80 54 00
        E 0 80 55 00
        E 120 80 2d 00
        E 0 80 60 00
        E 0 80 61 00
        E 120 90 2d 60
        E 0 90 60 60
        E 0 90 61 60
        E 0 90 54 60
        E 0 90 55 60
        E 0 90 48 60
        E 0 90 49 60
        E 120 80 60 00
        E 0 80 61 00
        E 0 80 54 00
        E 0 80 55 00
        E 0 80 48 00
        E 0 80 49 00
        E 240 80 2d 00
        E 120 90 2f 60
        E 0 90 61 60
        E 0 90 62 60
        E 0 90 55 60
        E 0 90 56 60
        E 0 90 49 60
        E 0 90 4a 60
        E 0 90 3e 60
        E 480 80 49 00
        E 0 80 4a 00
        E 0 80 3e 00
        E 360 80 61 00
        E 0 80 62 00
        E 0 80 55 00
        E 0 80 56 00
        E 120 90 59 60
        E 0 90 60 60
        E 0 90 61 60
        E 0 90 65 60
        E 0 90 54 60
        E 0 90 55 60
        E 0 90 48 60
        E 0 90 49 60
        E 0 90 3c 60
        E 120 80 59 00
        E 0 80 60 00
        E 0 80 61 00
        E 0 80 65 00
        E 0 80 54 00
        E 0 80 55 00
        E 0 80 48 00
        E 0 80 49 00
        E 0 80 3c 00
        E 240 80 2f 00
        E 120 90 32 60
        E 0 90 62 60
        E 0 90 63 60
        E 0 90 56 60
        E 0 90 57 60
        E 0 90 4a 60
        E 0 90 4b 60
        E 120 80 32 00
        E 0 80 62 00
        E 0 80 63 00
        E 0 80 56 00
        E 0 80 57 00
        E 0 80 4a 00
        E 0 80 4b 00
        E 0 90 34 60
        E 0 90 59 60
        E 0 90 62 60
        E 0 90 64 60
        E 0 90 65 60
        E 720 80 34 00
        E 0 80 59 00
        E 0 80 62 00
        E 0 80 64 00
        E 0 80 65 00
        E 120 90 32 60
        E 0 90 62 60
        E 0 90 63 60
        E 0 90 56 60
        E 0 90 57 60
        E 0 90 4a 60
        E 0 90 4b 60
        E 120 80 62 00
        E 0 80 63 00
        E 0 80 56 00
        E 0 80 57 00
        E 0 80 4a 00
        E 0 80 4b 00
        E 240 80 32 00
        E 120 90 2f 60
        E 0 90 61 60
        E 0 90 62 60
        E 0 90 55 60
        E 0 90 56 60
        E 0 90 49 60
        E 0 90 4a 60
        E 0 90 3e 60
        E 120 80 61 00
        E 0 80 62 00
        E 0 80 55 00
        E 0 80 56 00
        E 0 80 49 00
        E 0 80 4a 00
        E 0 80 3e 00
        E 240 80 2f 00
        E 120 90 32 60
        E 0 90 62 60
        E 0 90 63 60
        E 0 90 56 60
        E 0 90 57 60
        E 0 90 4a 60
        E 0 90 4b 60
        E 120 80 62 00
        E 0 80 63 00
        E 0 80 56 00
        E 0 80 57 00
        E 0 80 4a 00
        E 0 80 4b 00
        E 240 80 32 00
        E 120 90 2b 60
        E 0 90 60 60
        E 0 90 62 60
        E 0 90 54 60
        E 0 90 56 60
        E 0 90 48 60
        E 0 90 4a 60
        E 0 90 3d 60
        E 120 80 2b 00
        E 0 80 60 00
        E 0 80 62 00
        E 0 80 54 00
        E 0 80 56 00
        E 0 80 48 00
        E 0 80 4a 00
        E 0 80 3d 00
        E 120 90 2f 60
        E 0 90 59 60
        E 0 90 61 60
        E 0 90 62 60
        E 0 90 65 60
        E 0 90 55 60
        E 0 90 56 60
        E 120 80 2f 00
        E 0 80 61 00
        E 0 80 62 00
        E 0 80 55 00
        E 0 80 56 00
        E 120 90 2b 60
        E 0 90 60 60
        E 0 90 62 60
        E 0 90 54 60
        E 0 90 56 60
        E 0 90 48 60
        E 0 90 4a 60
        E 120 80 59 00
        E 0 80 65 00
        E 0 80 60 00
        E 0 80 62 00
        E 0 80 54 00
        E 0 80 56 00
        E 0 80 48 00
        E 0 80 4a 00
        E 240 80 2b 00
        E 120 90 2d 60
        E 0 90 60 60
        E 0 90 61 60
        E 0 90 54 60
        E 0 90 55 60
        E 0 90 48 60
        E 0 90 49 60
        E 0 90 3c 60
        E 1920 80 48 00
        E 0 80 49 00
        E 0 80 3c 00
        E 360 80 2d 00
        E 0 80 60 00
        E 0 80 61 00
        E 0 80 54 00
        E 0 80 55 00
        E 120 90 2d 60
        E 0 90 60 60
        E 0 90 61 60
        E 0 90 54 60
        E 0 90 55 60
        E 0 90 48 60
        E 0 90 49 60
        E 120 80 60 00
        E 0 80 61 00
        E 0 80 54 00
        E 0 80 55 00
        E 0 80 48 00
        E 0 80 49 00
        E 240 80 2d 00
        E 120 90 2f 60
        E 0 90 61 60
        E 0 90 62 60
        E 0 90 55 60
        E 0 90 56 60
        E 0 90 49 60
        E 0 90 4a 60
        E 0 90 3e 60
        E 120 80 3e 00
        E 480 80 49 00
        E 0 80 4a 00
        E 120 80 55 00
        E 0 80 56 00
        E 120 80 61 00
        E 0 80 62 00
        E 120 90 59 60
        E 0 90 60 60
        E 0 90 61 60
        E 0 90 65 60
        E 0 90 54 60
        E 0 90 55 60
        E 0 90 48 60
        E 0 90 49 60
        E 0 90 3c 60
        E 120 80 59 00
        E 0 80 60 00
        E 0 80 61 00
        E 0 80 65 00
        E 0 80 54 00
        E 0 80 55 00
        E 0 80 48 00
        E 0 80 49 00
        E 0 80 3c 00
        E 240 80 2f 00
        E 120 90 32 60
        E 0 90 62 60
        E 0 90 63 60
        E 0 90 56 60
        E 0 90 57 60
        E 0 90 4a 60
        E 0 90 4b 60
        E 120 80 32 00
        E 0 80 62 00
        E 0 80 63 00
        E 0 80 56 00
        E 0 80 57 00
        E 0 80 4a 00
        E 0 80 4b 00
        E 0 90 34 60
        E 0 90 59 60
        E 0 90 62 60
        E 0 90 64 60
        E 0 90 65 60
        E 720 80 34 00
        E 0 80 59 00
        E 0 80 62 00
        E 0 80 64 00
        E 0 80 65 00
        E 120 90 32 60
        E 0 90 62 60
        E 0 90 63 60
        E 0 90 56 60
        E 0 90 57 60
        E 0 90 4a 60
        E 0 90 4b 60
        E 120 80 62 00
        E 0 80 63 00
        E 0 80 56 00
        E 0 80 57 00
        E 0 80 4a 00
        E 0 80 4b 00
        E 240 80 32 00
        E 120 90 2f 60
        E 0 90 61 60
        E 0 90 62 60
        E 0 90 55 60
        E 0 90 56 60
        E 0 90 49 60
        E 0 90 4a 60
        E 0 90 3e 60
        E 120 80 61 00
        E 0 80 62 00
        E 0 80 55 00
        E 0 80 56 00
        E 0 80 49 00
        E 0 80 4a 00
        E 0 80 3e 00
        E 240 80 2f 00
        E 120 90 32 60
        E 0 90 62 60
        E 0 90 63 60
        E 0 90 56 60
        E 0 90 57 60
        E 0 90 4a 60
        E 0 90 4b 60
        E 120 80 62 00
        E 0 80 63 00
        E 0 80 56 00
        E 0 80 57 00
        E 0 80 4a 00
        E 0 80 4b 00
        E 240 80 32 00
        E 120 90 2b 60
        E 0 90 60 60
        E 0 90 62 60
        E 0 90 74 60
        E 0 90 54 60
        E 0 90 56 60
        E 0 90 48 60
        E 0 90 4a 60
        E 0 90 3d 60
        E 120 80 2b 00
        E 0 80 60 00
        E 0 80 62 00
        E 0 80 54 00
        E 0 80 56 00
        E 0 80 48 00
        E 0 80 4a 00
        E 0 80 3d 00
        E 120 90 2f 60
        E 0 90 59 60
        E 0 90 61 60
        E 0 90 62 60
        E 0 90 65 60
        E 0 90 55 60
        E 0 90 56 60
        E 120 80 2f 00
        E 0 80 61 00
        E 0 80 62 00
        E 0 80 55 00
        E 0 80 56 00
        E 120 90 2b 60
        E 0 90 60 60
        E 0 90 62 60
        E 0 90 54 60
        E 0 90 56 60
        E 0 90 48 60
        E 0 90 4a 60
        E 120 80 59 00
        E 0 80 65 00
        E 0 80 60 00
        E 0 80 62 00
        E 0 80 54 00
        E 0 80 56 00
        E 0 80 48 00
        E 0 80 4a 00
        E 240 80 2b 00
        E 120 90 2d 60
        E 0 90 60 60
        E 0 90 61 60
        E 0 90 54 60
        E 0 90 55 60
        E 0 90 48 60
        E 0 90 49 60
        E 0 90 3c 60
        E 2040 80 74 00
        E 0 80 48 00
        E 0 80 49 00
        E 0 80 3c 00
        E 120 80 54 00
        E 0 80 55 00
        E 120 80 2d 00
        E 0 80 60 00
        E 0 80 61 00
        E 120 90 2d 60
        E 0 90 60 60
        E 0 90 61 60
        E 0 90 54 60
        E 0 90 55 60
        E 0 90 48 60
        E 0 90 49 60
        E 120 80 60 00
        E 0 80 61 00
        E 0 80 54 00
        E 0 80 55 00
        E 0 80 48 00
        E 0 80 49 00
        E 240 80 2d 00
        E 120 90 2f 60
        E 0 90 61 60
        E 0 90 62 60
        E 0 90 55 60
        E 0 90 56 60
        E 0 90 49 60
        E 0 90 4a 60
        E 0 90 3e 60
        E 480 80 49 00
        E 0 80 4a 00
        E 0 80 3e 00
        E 360 80 61 00
        E 0 80 62 00
        E 0 80 55 00
        E 0 80 56 00
        E 120 90 59 60
        E 0 90 60 60
        E 0 90 61 60
        E 0 90 65 60
        E 0 90 54 60
        E 0 90 55 60
        E 0 90 48 60
        E 0 90 49 60
        E 0 90 3c 60
        E 120 80 59 00
        E 0 80 60 00
        E 0 80 61 00
        E 0 80 65 00
        E 0 80 54 00
        E 0 80 55 00
        E 0 80 48 00
        E 0 80 49 00
        E 0 80 3c 00
        E 240 80 2f 00
        E 120 90 32 60
        E 0 90 62 60
        E 0 90 63 60
        E 0 90 56 60
        E 0 90 57 60
        E 0 90 4a 60
        E 0 90 4b 60
        E 120 80 32 00
        E 0 80 62 00
        E 0 80 63 00
        E 0 80 56 00
        E 0 80 57 00
        E 0 80 4a 00
        E 0 80 4b 00
        E 0 90 34 60
        E 0 90 59 60
        E 0 90 62 60
        E 0 90 64 60
        E 0 90 65 60
        E 720 80 34 00
        E 0 80 59 00
        E 0 80 62 00
        E 0 80 64 00
        E 0 80 65 00
        E 120 90 32 60
        E 0 90 62 60
        E 0 90 63 60
        E 0 90 56 60
        E 0 90 57 60
        E 0 90 4a 60
        E 0 90 4b 60
        E 120 80 62 00
        E 0 80 63 00
        E 0 80 56 00
        E 0 80 57 00
        E 0 80 4a 00
        E 0 80 4b 00
        E 240 80 32 00
        E 120 90 2f 60
        E 0 90 61 60
        E 0 90 62 60
        E 0 90 55 60
        E 0 90 56 60
        E 0 90 49 60
        E 0 90 4a 60
        E 0 90 3e 60
        E 120 80 61 00
        E 0 80 62 00
        E 0 80 55 00
        E 0 80 56 00
        E 0 80 49 00
        E 0 80 4a 00
        E 0 80 3e 00
        E 240 80 2f 00
        E 120 90 32 60
        E 0 90 62 60
        E 0 90 63 60
        E 0 90 56 60
        E 0 90 57 60
        E 0 90 4a 60
        E 0 90 4b 60
        E 120 80 62 00
        E 0 80 63 00
        E 0 80 56 00
        E 0 80 57 00
        E 0 80 4a 00
        E 0 80 4b 00
        E 240 80 32 00
        E 120 90 2b 60
        E 0 90 60 60
        E 0 90 62 60
        E 0 90 54 60
        E 0 90 56 60
        E 0 90 48 60
        E 0 90 4a 60
        E 0 90 3d 60
        E 120 80 2b 00
        E 0 80 60 00
        E 0 80 62 00
        E 0 80 54 00
        E 0 80 56 00
        E 0 80 48 00
        E 0 80 4a 00
        E 0 80 3d 00
        E 120 90 2f 60
        E 0 90 59 60
        E 0 90 61 60
        E 0 90 62 60
        E 0 90 65 60
        E 0 90 55 60
        E 0 90 56 60
        E 120 80 2f 00
        E 0 80 61 00
        E 0 80 62 00
        E 0 80 55 00
        E 0 80 56 00
        E 120 90 2b 60
        E 0 90 60 60
        E 0 90 62 60
        E 0 90 54 60
        E 0 90 56 60
        E 0 90 48 60
        E 0 90 4a 60
        E 120 80 59 00
        E 0 80 65 00
        E 0 80 60 00
        E 0 80 62 00
        E 0 80 54 00
        E 0 80 56 00
        E 0 80 48 00
        E 0 80 4a 00
        E 240 80 2b 00
        E 120 90 2d 60
        E 0 90 60 60
        E 0 90 61 60
        E 0 90 54 60
        E 0 90 55 60
        E 0 90 48 60
        E 0 90 49 60
        E 0 90 3c 60
        E 2040 80 48 00
        E 0 80 49 00
        E 0 80 3c 00
        E 120 80 54 00
        E 0 80 55 00
        E 120 80 2d 00
        E 0 80 60 00
        E 0 80 61 00
        E 120 90 2d 60
        E 0 90 60 60
        E 0 90 61 60
        E 0 90 54 60
        E 0 90 55 60
        E 0 90 48 60
        E 0 90 49 60
        E 120 80 60 00
        E 0 80 61 00
        E 0 80 54 00
        E 0 80 55 00
        E 0 80 48 00
        E 0 80 49 00
        E 240 80 2d 00
        E 120 90 2f 60
        E 0 90 61 60
        E 0 90 62 60
        E 0 90 55 60
        E 0 90 56 60
        E 0 90 49 60
        E 0 90 4a 60
        E 0 90 3e 60
        E 480 80 49 00
        E 0 80 4a 00
        E 0 80 3e 00
        E 360 80 61 00
        E 0 80 62 00
        E 0 80 55 00
        E 0 80 56 00
        E 120 90 59 60
        E 0 90 60 60
        E 0 90 61 60
        E 0 90 65 60
        E 0 90 54 60
        E 0 90 55 60
        E 0 90 48 60
        E 0 90 49 60
        E 0 90 3c 60
        E 120 80 59 00
        E 0 80 60 00
        E 0 80 61 00
        E 0 80 65 00
        E 0 80 54 00
        E 0 80 55 00
        E 0 80 48 00
        E 0 80 49 00
        E 0 80 3c 00
        E 240 80 2f 00
        E 120 90 32 60
        E 0 90 62 60
        E 0 90 63 60
        E 0 90 56 60
        E 0 90 57 60
        E 0 90 4a 60
        E 0 90 4b 60
        E 120 80 32 00
        E 0 80 62 00
        E 0 80 63 00
        E 0 80 56 00
        E 0 80 57 00
        E 0 80 4a 00
        E 0 80 4b 00
        E 0 90 34 60
        E 0 90 59 60
        E 0 90 62 60
        E 0 90 64 60
        E 0 90 65 60
        E 720 80 34 00
        E 0 80 59 00
        E 0 80 62 00
        E 0 80 64 00
        E 0 80 65 00
        E 120 90 32 60
        E 0 90 62 60
        E 0 90 63 60
        E 0 90 56 60
        E 0 90 57 60
        E 0 90 4a 60
        E 0 90 4b 60
        E 120 80 62 00
        E 0 80 63 00
        E 0 80 56 00
        E 0 80 57 00
        E 0 80 4a 00
        E 0 80 4b 00
        E 240 80 32 00
        E 120 90 2f 60
        E 0 90 61 60
        E 0 90 62 60
        E 0 90 55 60
        E 0 90 56 60
        E 0 90 49 60
        E 0 90 4a 60
        E 0 90 3e 60
        E 120 80 61 00
        E 0 80 62 00
        E 0 80 55 00
        E 0 80 56 00
        E 0 80 49 00
        E 0 80 4a 00
        E 0 80 3e 00
        E 240 80 2f 00
        E 120 90 32 60
        E 0 90 62 60
        E 0 90 63 60
        E 0 90 56 60
        E 0 90 57 60
        E 0 90 4a 60
        E 0 90 4b 60
        E 120 80 62 00
        E 0 80 63 00
        E 0 80 56 00
        E 0 80 57 00
        E 0 80 4a 00
        E 0 80 4b 00
        E 240 80 32 00
        E 120 90 2b 60
        E 0 90 60 60
        E 0 90 62 60
        E 0 90 54 60
        E 0 90 56 60
        E 0 90 48 60
        E 0 90 4a 60
        E 0 90 3d 60
        E 120 80 2b 00
        E 0 80 60 00
        E 0 80 62 00
        E 0 80 54 00
        E 0 80 56 00
        E 0 80 48 00
        E 0 80 4a 00
        E 0 80 3d 00
        E 120 90 2f 60
        E 0 90 59 60
        E 0 90 61 60
        E 0 90 62 60
        E 0 90 65 60
        E 0 90 55 60
        E 0 90 56 60
        E 120 80 2f 00
        E 0 80 61 00
        E 0 80 62 00
        E 0 80 55 00
        E 0 80 56 00
        E 120 90 2b 60
        E 0 90 60 60
        E 0 90 62 60
        E 0 90 54 60
        E 0 90 56 60
        E 0 90 48 60
        E 0 90 4a 60
        E 120 80 59 00
        E 0 80 65 00
        E 0 80 60 00
        E 0 80 62 00
        E 0 80 54 00
        E 0 80 56 00
        E 0 80 48 00
        E 0 80 4a 00
        E 240 80 2b 00
        E 120 90 2d 60
        E 0 90 60 60
        E 0 90 61 60
        E 0 90 54 60
        E 0 90 55 60
        E 0 90 48 60
        E 0 90 49 60
        E 0 90 3c 60
        E 1920 80 48 00
        E 0 80 49 00
        E 0 80 3c 00
        E 360 80 2d 00
        E 0 80 60 00
        E 0 80 61 00
        E 0 80 54 00
        E 0 80 55 00
        E 120 90 2d 60
        E 0 90 60 60
        E 0 90 61 60
        E 0 90 54 60
        E 0 90 55 60
        E 0 90 48 60
        E 0 90 49 60
        E 120 80 60 00
        E 0 80 61 00
        E 0 80 54 00
        E 0 80 55 00
        E 0 80 48 00
        E 0 80 49 00
        E 240 80 2d 00
        E 120 90 2f 60
        E 0 90 61 60
        E 0 90 62 60
        E 0 90 55 60
        E 0 90 56 60
        E 0 90 49 60
        E 0 90 4a 60
        E 0 90 3e 60
        E 480 80 49 00
        E 0 80 4a 00
        E 0 80 3e 00
        E 360 80 61 00
        E 0 80 62 00
        E 0 80 55 00
        E 0 80 56 00
        E 120 90 59 60
        E 0 90 60 60
        E 0 90 61 60
        E 0 90 65 60
        E 0 90 54 60
        E 0 90 55 60
        E 0 90 48 60
        E 0 90 49 60
        E 0 90 3c 60
        E 120 80 59 00
        E 0 80 60 00
        E 0 80 61 00
        E 0 80 65 00
        E 0 80 54 00
        E 0 80 55 00
        E 0 80 48 00
        E 0 80 49 00
        E 0 80 3c 00
        E 240 80 2f 00
        E 120 90 32 60
        E 0 90 62 60
        E 0 90 63 60
        E 0 90 56 60
        E 0 90 57 60
        E 0 90 4a 60
        E 0 90 4b 60
        E 120 80 32 00
        E 0 80 62 00
        E 0 80 63 00
        E 0 80 56 00
        E 0 80 57 00
        E 0 80 4a 00
        E 0 80 4b 00
        E 0 90 34 60
        E 0 90 59 60
        E 0 90 62 60
        E 0 90 64 60
        E 0 90 65 60
        E 720 80 34 00
        E 0 80 59 00
        E 0 80 62 00
        E 0 80 64 00
        E 0 80 65 00
        E 120 90 32 60
        E 0 90 62 60
        E 0 90 63 60
        E 0 90 56 60
        E 0 90 57 60
        E 0 90 4a 60
        E 0 90 4b 60
        E 120 80 62 00
        E 0 80 63 00
        E 0 80 56 00
        E 0 80 57 00
        E 0 80 4a 00
        E 0 80 4b 00
        E 240 80 32 00
        E 120 90 2f 60
        E 0 90 61 60
        E 0 90 62 60
        E 0 90 55 60
        E 0 90 56 60
        E 0 90 49 60
        E 0 90 4a 60
        E 0 90 3e 60
        E 120 80 61 00
        E 0 80 62 00
        E 0 80 55 00
        E 0 80 56 00
        E 0 80 49 00
        E 0 80 4a 00
        E 0 80 3e 00
        E 240 80 2f 00
        E 120 90 32 60
        E 0 90 62 60
        E 0 90 63 60
        E 0 90 56 60
        E 0 90 57 60
        E 0 90 4a 60
        E 0 90 4b 60
        E 120 80 62 00
        E 0 80 63 00
        E 0 80 56 00
        E 0 80 57 00
        E 0 80 4a 00
        E 0 80 4b 00
        E 240 80 32 00
        E 120 90 2b 60
        E 0 90 60 60
        E 0 90 62 60
        E 0 90 54 60
        E 0 90 56 60
        E 0 90 48 60
        E 0 90 4a 60
        E 0 90 3d 60
        E 120 80 2b 00
        E 0 80 60 00
        E 0 80 62 00
        E 0 80 54 00
        E 0 80 56 00
        E 0 80 48 00
        E 0 80 4a 00
        E 0 80 3d 00
        E 120 90 2f 60
        E 0 90 59 60
        E 0 90 61 60
        E 0 90 62 60
        E 0 90 65 60
        E 0 90 55 60
        E 0 90 56 60
        E 120 80 2f 00
        E 0 80 61 00
        E 0 80 62 00
        E 0 80 55 00
        E 0 80 56 00
        E 120 90 2b 60
        E 0 90 60 60
        E 0 90 62 60
        E 0 90 54 60
        E 0 90 56 60
        E 0 90 48 60
        E 0 90 4a 60
        E 120 80 59 00
        E 0 80 65 00
        E 0 80 60 00
        E 0 80 62 00
        E 0 80 54 00
        E 0 80 56 00
        E 0 80 48 00
        E 0 80 4a 00
        E 240 80 2b 00
        E 120 90 2d 60
        E 0 90 60 60
        E 0 90 61 60
        E 0 90 54 60
        E 0 90 55 60
        E 0 90 48 60
        E 0 90 49 60
        E 0 90 3c 60
        E 1920 80 48 00
        E 0 80 49 00
        E 0 80 3c 00
        E 360 80 2d 00
        E 0 80 60 00
        E 0 80 61 00
        E 0 80 54 00
        E 0 80 55 00
        E 120 90 2d 60
        E 0 90 60 60
        E 0 90 61 60
        E 0 90 54 60
        E 0 90 55 60
        E 0 90 48 60
        E 0 90 49 60
        E 120 80 60 00
        E 0 80 61 00
        E 0 80 54 00
        E 0 80 55 00
        E 0 80 48 00
        E 0 80 49 00
        E 240 80 2d 00
        E 120 90 2f 60
        E 0 90 61 60
        E 0 90 62 60
        E 0 90 55 60
        E 0 90 56 60
        E 0 90 49 60
        E 0 90 4a 60
        E 0 90 3e 60
        E 120 80 3e 00
        E 480 80 49 00
        E 0 80 4a 00
        E 120 80 55 00
        E 0 80 56 00
        E 120 80 61 00
        E 0 80 62 00
        E 120 90 59 60
        E 0 90 60 60
        E 0 90 61 60
        E 0 90 65 60
        E 0 90 54 60
        E 0 90 55 60
        E 0 90 48 60
        E 0 90 49 60
        E 0 90 3c 60
        E 120 80 59 00
        E 0 80 60 00
        E 0 80 61 00
        E 0 80 65 00
        E 0 80 54 00
        E 0 80 55 00
        E 0 80 48 00
        E 0 80 49 00
        E 0 80 3c 00
        E 240 80 2f 00
        E 120 90 32 60
        E 0 90 62 60
        E 0 90 63 60
        E 0 90 56 60
        E 0 90 57 60
        E 0 90 4a 60
        E 0 90 4b 60
        E 120 80 32 00
        E 0 80 62 00
        E 0 80 63 00
        E 0 80 56 00
        E 0 80 57 00
        E 0 80 4a 00
        E 0 80 4b 00
        E 0 90 34 60
        E 0 90 59 60
        E 0 90 62 60
        E 0 90 64 60
        E 0 90 65 60
        E 720 80 34 00
        E 0 80 59 00
        E 0 80 62 00
        E 0 80 64 00
        E 0 80 65 00
        E 120 90 32 60
        E 0 90 62 60
        E 0 90 63 60
        E 0 90 56 60
        E 0 90 57 60
        E 0 90 4a 60
        E 0 90 4b 60
        E 120 80 62 00
        E 0 80 63 00
        E 0 80 56 00
        E 0 80 57 00
        E 0 80 4a 00
        E 0 80 4b 00
        E 240 80 32 00
        E 120 90 2f 60
        E 0 90 61 60
        E 0 90 62 60
        E 0 90 55 60
        E 0 90 56 60
        E 0 90 49 60
        E 0 90 4a 60
        E 0 90 3e 60
        E 120 80 61 00
        E 0 80 62 00
        E 0 80 55 00
        E 0 80 56 00
        E 0 80 49 00
        E 0 80 4a 00
        E 0 80 3e 00
        E 240 80 2f 00
        E 120 90 32 60
        E 0 90 62 60
        E 0 90 63 60
        E 0 90 56 60
        E 0 90 57 60
        E 0 90 4a 60
        E 0 90 4b 60
        E 120 80 62 00
        E 0 80 63 00
        E 0 80 56 00
        E 0 80 57 00
        E 0 80 4a 00
        E 0 80 4b 00
        E 240 80 32 00
        E 120 90 2b 60
        E 0 90 60 60
        E 0 90 62 60
        E 0 90 54 60
        E 0 90 56 60
        E 0 90 48 60
        E 0 90 4a 60
        E 0 90 3d 60
        E 120 80 2b 00
        E 0 80 60 00
        E 0 80 62 00
        E 0 80 54 00
        E 0 80 56 00
        E 0 80 48 00
        E 0 80 4a 00
        E 0 80 3d 00
        E 120 90 2f 60
        E 0 90 59 60
        E 0 90 61 60
        E 0 90 62 60
        E 0 90 65 60
        E 0 90 55 60
        E 0 90 56 60
        E 120 80 2f 00
        E 0 80 61 00
        E 0 80 62 00
        E 0 80 55 00
        E 0 80 56 00
        E 120 90 2b 60
        E 0 90 60 60
        E 0 90 62 60
        E 0 90 54 60
        E 0 90 56 60
        E 0 90 48 60
        E 0 90 4a 60
        E 120 80 59 00
        E 0 80 65 00
        E 0 80 60 00
        E 0 80 62 00
        E 0 80 54 00
        E 0 80 56 00
        E 0 80 48 00
        E 0 80 4a 00
        E 240 80 2b 00
        E 120 90 2d 60
        E 0 90 60 60
        E 0 90 61 60
        E 0 90 54 60
        E 0 90 55 60
        E 0 90 48 60
        E 0 90 49 60
        E 0 90 3c 60
        E 2040 80 48 00
        E 0 80 49 00
        E 0 80 3c 00
        E 120 80 54 00
        E 0 80 55 00
        E 120 80 2d 00
        E 0 80 60 00
        E 0 80 61 00
        E 120 90 2d 60
        E 0 90 60 60
        E 0 90 61 60
        E 0 90 74 60
        E 0 90 54 60
        E 0 90 55 60
        E 0 90 48 60
        E 0 90 49 60
        E 120 80 60 00
        E 0 80 61 00
        E 0 80 54 00
        E 0 80 55 00
        E 0 80 48 00
        E 0 80 49 00
        E 240 80 2d 00
        E 120 90 2f 60
        E 0 90 61 60
        E 0 90 62 60
        E 0 90 55 60
        E 0 90 56 60
        E 0 90 49 60
        E 0 90 4a 60
        E 0 90 3e 60
        E 480 80 49 00
        E 0 80 4a 00
        E 0 80 3e 00
        E 360 80 61 00
        E 0 80 62 00
        E 0 80 55 00
        E 0 80 56 00
        E 120 90 59 60
        E 0 90 60 60
        E 0 90 61 60
        E 0 90 65 60
        E 0 90 54 60
        E 0 90 55 60
        E 0 90 48 60
        E 0 90 49 60
        E 0 90 3c 60
        E 120 80 74 00
        E 0 80 59 00
        E 0 80 60 00
        E 0 80 61 00
        E 0 80 65 00
        E 0 80 54 00
        E 0 80 55 00
        E 0 80 48 00
        E 0 80 49 00
        E 0 80 3c 00
        E 240 80 2f 00
        E 120 90 32 60
        E 0 90 62 60
        E 0 90 63 60
        E 0 90 56 60
        E 0 90 57 60
        E 0 90 4a 60
        E 0 90 4b 60
        E 120 80 32 00
        E 0 80 62 00
        E 0 80 63 00
        E 0 80 56 00
        E 0 80 57 00
        E 0 80 4a 00
        E 0 80 4b 00
        E 0 90 34 60
        E 0 90 59 60
        E 0 90 62 60
        E 0 90 64 60
        E 0 90 65 60
        E 720 80 34 00
        E 0 80 59 00
        E 0 80 62 00
        E 0 80 64 00
        E 0 80 65 00
        E 120 90 32 60
        E 0 90 62 60
        E 0 90 63 60
        E 0 90 56 60
        E 0 90 57 60
        E 0 90 4a 60
        E 0 90 4b 60
        E 120 80 62 00
        E 0 80 63 00
        E 0 80 56 00
        E 0 80 57 00
        E 0 80 4a 00
        E 0 80 4b 00
        E 240 80 32 00
        E 120 90 2f 60
        E 0 90 61 60
        E 0 90 62 60
        E 0 90 55 60
        E 0 90 56 60
        E 0 90 49 60
        E 0 90 4a 60
        E 0 90 3e 60
        E 120 80 61 00
        E 0 80 62 00
        E 0 80 55 00
        E 0 80 56 00
        E 0 80 49 00
        E 0 80 4a 00
        E 0 80 3e 00
        E 240 80 2f 00
        E 120 90 32 60
        E 0 90 62 60
        E 0 90 63 60
        E 0 90 56 60
        E 0 90 57 60
        E 0 90 4a 60
        E 0 90 4b 60
        E 120 80 62 00
        E 0 80 63 00
        E 0 80 56 00
        E 0 80 57 00
        E 0 80 4a 00
        E 0 80 4b 00
        E 240 80 32 00
        E 120 90 2b 60
        E 0 90 60 60
        E 0 90 62 60
        E 0 90 54 60
        E 0 90 56 60
        E 0 90 48 60
        E 0 90 4a 60
        E 0 90 3d 60
        E 120 80 2b 00
        E 0 80 60 00
        E 0 80 62 00
        E 0 80 54 00
        E 0 80 56 00
        E 0 80 48 00
        E 0 80 4a 00
        E 0 80 3d 00
        E 120 90 2f 60
        E 0 90 59 60
        E 0 90 61 60
        E 0 90 62 60
        E 0 90 65 60
        E 0 90 55 60
        E 0 90 56 60
        E 120 80 2f 00
        E 0 80 61 00
        E 0 80 62 00
        E 0 80 55 00
        E 0 80 56 00
        E 120 90 2b 60
        E 0 90 60 60
        E 0 90 62 60
        E 0 90 54 60
        E 0 90 56 60
        E 0 90 48 60
        E 0 90 4a 60
        E 120 80 59 00
        E 0 80 65 00
        E 0 80 60 00
        E 0 80 62 00
        E 0 80 54 00
        E 0 80 56 00
        E 0 80 48 00
        E 0 80 4a 00
        E 240 80 2b 00
        E 120 90 2d 60
        E 0 90 60 60
        E 0 90 61 60
        E 0 90 54 60
        E 0 90 55 60
        E 0 90 48 60
        E 0 90 49 60
        E 0 90 3c 60
        E 2040 80 48 00
        E 0 80 49 00
        E 0 80 3c 00
        E 120 80 54 00
        E 0 80 55 00
        E 120 80 2d 00
        E 0 80 60 00
        E 0 80 61 00
        E 120 90 2d 60
        E 0 90 60 60
        E 0 90 61 60
        E 0 90 54 60
        E 0 90 55 60
        E 0 90 48 60
        E 0 90 49 60
        E 120 80 60 00
        E 0 80 61 00
        E 0 80 54 00
        E 0 80 55 00
        E 0 80 48 00
        E 0 80 49 00
        E 240 80 2d 00
        E 120 90 2f 60
        E 0 90 61 60
        E 0 90 62 60
        E 0 90 55 60
        E 0 90 56 60
        E 0 90 49 60
        E 0 90 4a 60
        E 0 90 3e 60
        E 480 80 49 00
        E 0 80 4a 00
        E 0 80 3e 00
        E 360 80 61 00
        E 0 80 62 00
        E 0 80 55 00
        E 0 80 56 00
        E 120 90 59 60
        E 0 90 60 60
        E 0 90 61 60
        E 0 90 65 60
        E 0 90 54 60
        E 0 90 55 60
        E 0 90 48 60
        E 0 90 49 60
        E 0 90 3c 60
        E 120 80 59 00
        E 0 80 60 00
        E 0 80 61 00
        E 0 80 65 00
        E 0 80 54 00
        E 0 80 55 00
        E 0 80 48 00
        E 0 80 49 00
        E 0 80 3c 00
        E 240 80 2f 00
        E 120 90 32 60
        E 0 90 62 60
        E 0 90 63 60
        E 0 90 56 60
        E 0 90 57 60
        E 0 90 4a 60
        E 0 90 4b 60
        E 120 80 32 00
        E 0 80 62 00
        E 0 80 63 00
        E 0 80 56 00
        E 0 80 57 00
        E 0 80 4a 00
        E 0 80 4b 00
        E 0 90 34 60
        E 0 90 59 60
        E 0 90 62 60
        E 0 90 64 60
        E 0 90 65 60
        E 720 80 34 00
        E 0 80 59 00
        E 0 80 62 00
        E 0 80 64 00
        E 0 80 65 00
        E 120 90 32 60
        E 0 90 62 60
        E 0 90 63 60
        E 0 90 56 60
        E 0 90 57 60
        E 0 90 4a 60
        E 0 90 4b 60
        E 120 80 62 00
        E 0 80 63 00
        E 0 80 56 00
        E 0 80 57 00
        E 0 80 4a 00
        E 0 80 4b 00
        E 240 80 32 00
        E 120 90 2f 60
        E 0 90 61 60
        E 0 90 62 60
        E 0 90 55 60
        E 0 90 56 60
        E 0 90 49 60
        E 0 90 4a 60
        E 0 90 3e 60
        E 120 80 61 00
        E 0 80 62 00
        E 0 80 55 00
        E 0 80 56 00
        E 0 80 49 00
        E 0 80 4a 00
        E 0 80 3e 00
        E 240 80 2f 00
        E 120 90 32 60
        E 0 90 62 60
        E 0 90 63 60
        E 0 90 56 60
        E 0 90 57 60
        E 0 90 4a 60
        E 0 90 4b 60
        E 120 80 62 00
        E 0 80 63 00
        E 0 80 56 00
        E 0 80 57 00
        E 0 80 4a 00
        E 0 80 4b 00
        E 240 80 32 00
        E 120 90 2b 60
        E 0 90 60 60
        E 0 90 62 60
        E 0 90 54 60
        E 0 90 56 60
        E 0 90 48 60
        E 0 90 4a 60
        E 0 90 3d 60
        E 120 80 2b 00
        E 0 80 60 00
        E 0 80 62 00
        E 0 80 54 00
        E 0 80 56 00
        E 0 80 48 00
        E 0 80 4a 00
        E 0 80 3d 00
        E 120 90 2f 60
        E 0 90 59 60
        E 0 90 61 60
        E 0 90 62 60
        E 0 90 65 60
        E 0 90 55 60
        E 0 90 56 60
        E 120 80 2f 00
        E 0 80 61 00
        E 0 80 62 00
        E 0 80 55 00
        E 0 80 56 00
        E 120 90 2b 60
        E 0 90 60 60
        E 0 90 62 60
        E 0 90 54 60
        E 0 90 56 60
        E 0 90 48 60
        E 0 90 4a 60
        E 120 80 59 00
        E 0 80 65 00
        E 0 80 60 00
        E 0 80 62 00
        E 0 80 54 00
        E 0 80 56 00
        E 0 80 48 00
        E 0 80 4a 00
        E 240 80 2b 00
        E 120 90 2d 60
        E 0 90 60 60
        E 0 90 61 60
        E 0 90 54 60
        E 0 90 55 60
        E 0 90 48 60
        E 0 90 49 60
        E 0 90 3c 60
        E 2040 80 48 00
        E 0 80 49 00
        E 0 80 3c 00
        E 120 80 54 00
        E 0 80 55 00
        E 120 80 2d 00
        E 0 80 60 00
        E 0 80 61 00
        E 120 90 2d 60
        E 0 90 60 60
        E 0 90 61 60
        E 0 90 54 60
        E 0 90 55 60
        E 0 90 48 60
        E 0 90 49 60
        E 120 80 60 00
        E 0 80 61 00
        E 0 80 54 00
        E 0 80 55 00
        E 0 80 48 00
        E 0 80 49 00
        E 240 80 2d 00
        E 120 90 2f 60
        E 0 90 61 60
        E 0 90 62 60
        E 0 90 55 60
        E 0 90 56 60
        E 0 90 49 60
        E 0 90 4a 60
        E 0 90 3e 60
        E 480 80 49 00
        E 0 80 4a 00
        E 0 80 3e 00
        E 360 80 61 00
        E 0 80 62 00
        E 0 80 55 00
        E 0 80 56 00
        E 120 90 59 60
        E 0 90 60 60
        E 0 90 61 60
        E 0 90 65 60
        E 0 90 54 60
        E 0 90 55 60
        E 0 90 48 60
        E 0 90 49 60
        E 0 90 3c 60
        E 120 80 59 00
        E 0 80 60 00
        E 0 80 61 00
        E 0 80 65 00
        E 0 80 54 00
        E 0 80 55 00
        E 0 80 48 00
        E 0 80 49 00
        E 0 80 3c 00
        E 240 80 2f 00
        E 120 90 32 60
        E 0 90 62 60
        E 0 90 63 60
        E 0 90 56 60
        E 0 90 57 60
        E 0 90 4a 60
        E 0 90 4b 60
        E 120 80 32 00
        E 0 80 62 00
        E 0 80 63 00
        E 0 80 56 00
        E 0 80 57 00
        E 0 80 4a 00
        E 0 80 4b 00
        E 0 90 34 60
        E 0 90 59 60
        E 0 90 62 60
        E 0 90 64 60
        E 0 90 65 60
        E 720 80 34 00
        E 0 80 59 00
        E 0 80 62 00
        E 0 80 64 00
        E 0 80 65 00
        E 120 90 32 60
        E 0 90 62 60
        E 0 90 63 60
        E 0 90 56 60
        E 0 90 57 60
        E 0 90 4a 60
        E 0 90 4b 60
        E 120 80 62 00
        E 0 80 63 00
        E 0 80 56 00
        E 0 80 57 00
        E 0 80 4a 00
        E 0 80 4b 00
        E 240 80 32 00
        E 120 90 2f 60
        E 0 90 61 60
        E 0 90 62 60
        E 0 90 55 60
        E 0 90 56 60
        E 0 90 49 60
        E 0 90 4a 60
        E 0 90 3e 60
        E 120 80 61 00
        E 0 80 62 00
        E 0 80 55 00
        E 0 80 56 00
        E 0 80 49 00
        E 0 80 4a 00
        E 0 80 3e 00
        E 240 80 2f 00
        E 120 90 32 60
        E 0 90 62 60
        E 0 90 63 60
        E 0 90 56 60
        E 0 90 57 60
        E 0 90 4a 60
        E 0 90 4b 60
        E 120 80 62 00
        E 0 80 63 00
        E 0 80 56 00
        E 0 80 57 00
        E 0 80 4a 00
        E 0 80 4b 00
        E 240 80 32 00
        E 120 90 2b 60
        E 0 90 60 60
        E 0 90 62 60
        E 0 90 54 60
        E 0 90 56 60
        E 0 90 48 60
        E 0 90 4a 60
        E 0 90 3d 60
        E 120 80 2b 00
        E 0 80 60 00
        E 0 80 62 00
        E 0 80 54 00
        E 0 80 56 00
        E 0 80 48 00
        E 0 80 4a 00
        E 0 80 3d 00
        E 120 90 2f 60
        E 0 90 59 60
        E 0 90 61 60
        E 0 90 62 60
        E 0 90 65 60
        E 0 90 55 60
        E 0 90 56 60
        E 120 80 2f 00
        E 0 80 61 00
        E 0 80 62 00
        E 0 80 55 00
        E 0 80 56 00
        E 120 90 2b 60
        E 0 90 60 60
        E 0 90 62 60
        E 0 90 54 60
        E 0 90 56 60
        E 0 90 48 60
        E 0 90 4a 60
        E 120 80 59 00
        E 0 80 65 00
        E 0 80 60 00
        E 0 80 62 00
        E 0 80 54 00
        E 0 80 56 00
        E 0 80 48 00
        E 0 80 4a 00
        E 240 80 2b 00
        E 120 90 2d 60
        E 0 90 60 60
        E 0 90 61 60
        E 0 90 54 60
        E 0 90 55 60
        E 0 90 48 60
        E 0 90 49 60
        E 0 90 3c 60
        E 1920 80 48 00
        E 0 80 49 00
        E 0 80 3c 00
        E 360 80 2d 00
        E 0 80 60 00
        E 0 80 61 00
        E 0 80 54 00
        E 0 80 55 00
        E 120 90 2d 60
        E 0 90 60 60
        E 0 90 61 60
        E 0 90 54 60
        E 0 90 55 60
        E 0 90 48 60
        E 0 90 49 60
        E 120 80 60 00
        E 0 80 61 00
        E 0 80 54 00
        E 0 80 55 00
        E 0 80 48 00
        E 0 80 49 00
        E 240 80 2d 00
        E 120 90 2f 60
        E 0 90 61 60
        E 0 90 62 60
        E 0 90 55 60
        E 0 90 56 60
        E 0 90 49 60
        E 0 90 4a 60
        E 0 90 3e 60
        E 120 80 3e 00
        E 480 80 49 00
        E 0 80 4a 00
        E 120 80 55 00
        E 0 80 56 00
        E 120 80 61 00
        E 0 80 62 00
        E 120 90 59 60
        E 0 90 60 60
        E 0 90 61 60
        E 0 90 65 60
        E 0 90 54 60
        E 0 90 55 60
        E 0 90 48 60
        E 0 90 49 60
        E 0 90 3c 60
        E 120 80 59 00
        E 0 80 60 00
        E 0 80 61 00
        E 0 80 65 00
        E 0 80 54 00
        E 0 80 55 00
        E 0 80 48 00
        E 0 80 49 00
        E 0 80 3c 00
        E 240 80 2f 00
        E 120 90 32 60
        E 0 90 62 60
        E 0 90 63 60
        E 0 90 56 60
        E 0 90 57 60
        E 0 90 4a 60
        E 0 90 4b 60
        E 120 80 32 00
        E 0 80 62 00
        E 0 80 63 00
        E 0 80 56 00
        E 0 80 57 00
        E 0 80 4a 00
        E 0 80 4b 00
        E 0 90 34 60
        E 0 90 59 60
        E 0 90 62 60
        E 0 90 64 60
        E 0 90 65 60
        E 720 80 34 00
        E 0 80 59 00
        E 0 80 62 00
        E 0 80 64 00
        E 0 80 65 00
        E 120 90 32 60
        E 0 90 62 60
        E 0 90 63 60
        E 0 90 56 60
        E 0 90 57 60
        E 0 90 4a 60
        E 0 90 4b 60
        E 120 80 62 00
        E 0 80 63 00
        E 0 80 56 00
        E 0 80 57 00
        E 0 80 4a 00
        E 0 80 4b 00
        E 240 80 32 00
        E 120 90 2f 60
        E 0 90 61 60
        E 0 90 62 60
        E 0 90 55 60
        E 0 90 56 60
        E 0 90 49 60
        E 0 90 4a 60
        E 0 90 3e 60
        E 120 80 61 00
        E 0 80 62 00
        E 0 80 55 00
        E 0 80 56 00
        E 0 80 49 00
        E 0 80 4a 00
        E 0 80 3e 00
        E 240 80 2f 00
        E 120 90 32 60
        E 0 90 62 60
        E 0 90 63 60
        E 0 90 56 60
        E 0 90 57 60
        E 0 90 4a 60
        E 0 90 4b 60
        E 120 80 62 00
        E 0 80 63 00
        E 0 80 56 00
        E 0 80 57 00
        E 0 80 4a 00
        E 0 80 4b 00
        E 240 80 32 00
        E 120 90 2b 60
        E 0 90 60 60
        E 0 90 62 60
        E 0 90 74 60
        E 0 90 54 60
        E 0 90 56 60
        E 0 90 48 60
        E 0 90 4a 60
        E 0 90 3d 60
        E 120 80 2b 00
        E 0 80 60 00
        E 0 80 62 00
        E 0 80 54 00
        E 0 80 56 00
        E 0 80 48 00
        E 0 80 4a 00
        E 0 80 3d 00
        E 120 90 2f 60
        E 0 90 59 60
        E 0 90 61 60
        E 0 90 62 60
        E 0 90 65 60
        E 0 90 55 60
        E 0 90 56 60
        E 120 80 2f 00
        E 0 80 61 00
        E 0 80 62 00
        E 0 80 55 00
        E 0 80 56 00
        E 120 90 2b 60
        E 0 90 60 60
        E 0 90 62 60
        E 0 90 54 60
        E 0 90 56 60
        E 0 90 48 60
        E 0 90 4a 60
        E 120 80 59 00
        E 0 80 65 00
        E 0 80 60 00
        E 0 80 62 00
        E 0 80 54 00
        E 0 80 56 00
        E 0 80 48 00
        E 0 80 4a 00
        E 240 80 2b 00
        E 120 90 2d 60
        E 0 90 60 60
        E 0 90 61 60
        E 0 90 54 60
        E 0 90 55 60
        E 0 90 48 60
        E 0 90 49 60
        E 0 90 3c 60
        E 2040 80 48 00
        E 0 80 49 00
        E 0 80 3c 00
        E 120 80 54 00
        E 0 80 55 00
        E 120 80 2d 00
        E 0 80 60 00
        E 0 80 61 00
        E 120 80 74 00
        E 0 90 2d 60
        E 0 90 60 60
        E 0 90 61 60
        E 0 90 54 60
        E 0 90 55 60
        E 0 90 48 60
        E 0 90 49 60
        E 120 80 60 00
        E 0 80 61 00
        E 0 80 54 00
        E 0 80 55 00
        E 0 80 48 00
        E 0 80 49 00
        E 240 80 2d 00
        E 120 90 2f 60
        E 0 90 61 60
        E 0 90 62 60
        E 0 90 55 60
        E 0 90 56 60
        E 0 90 49 60
        E 0 90 4a 60
        E 0 90 3e 60
        E 480 80 49 00
        E 0 80 4a 00
        E 0 80 3e 00
        E 360 80 61 00
        E 0 80 62 00
        E 0 80 55 00
        E 0 80 56 00
        E 120 90 59 60
        E 0 90 60 60
        E 0 90 61 60
        E 0 90 65 60
        E 0 90 54 60
        E 0 90 55 60
        E 0 90 48 60
        E 0 90 49 60
        E 0 90 3c 60
        E 120 80 59 00
        E 0 80 60 00
        E 0 80 61 00
        E 0 80 65 00
        E 0 80 54 00
        E 0 80 55 00
        E 0 80 48 00
        E 0 80 49 00
        E 0 80 3c 00
        E 240 80 2f 00
        E 120 90 32 60
        E 0 90 62 60
        E 0 90 63 60
        E 0 90 56 60
        E 0 90 57 60
        E 0 90 4a 60
        E 0 90 4b 60
        E 120 80 32 00
        E 0 80 62 00
        E 0 80 63 00
        E 0 80 56 00
        E 0 80 57 00
        E 0 80 4a 00
        E 0 80 4b 00
        E 0 90 34 60
        E 0 90 59 60
        E 0 90 62 60
        E 0 90 64 60
        E 0 90 65 60
        E 720 80 34 00
        E 0 80 59 00
        E 0 80 62 00
        E 0 80 64 00
        E 0 80 65 00
        E 120 90 32 60
        E 0 90 62 60
        E 0 90 63 60
        E 0 90 56 60
        E 0 90 57 60
        E 0 90 4a 60
        E 0 90 4b 60
        E 120 80 62 00
        E 0 80 63 00
        E 0 80 56 00
        E 0 80 57 00
        E 0 80 4a 00
        E 0 80 4b 00
        E 240 80 32 00
        E 120 90 2f 60
        E 0 90 61 60
        E 0 90 62 60
        E 0 90 55 60
        E 0 90 56 60
        E 0 90 49 60
        E 0 90 4a 60
        E 0 90 3e 60
        E 120 80 61 00
        E 0 80 62 00
        E 0 80 55 00
        E 0 80 56 00
        E 0 80 49 00
        E 0 80 4a 00
        E 0 80 3e 00
        E 240 80 2f 00
        E 120 90 32 60
        E 0 90 62 60
        E 0 90 63 60
        E 0 90 56 60
        E 0 90 57 60
        E 0 90 4a 60
        E 0 90 4b 60
        E 120 80 62 00
        E 0 80 63 00
        E 0 80 56 00
        E 0 80 57 00
        E 0 80 4a 00
        E 0 80 4b 00
        E 240 80 32 00
        E 120 90 2b 60
        E 0 90 60 60
        E 0 90 62 60
        E 0 90 54 60
        E 0 90 56 60
        E 0 90 48 60
        E 0 90 4a 60
        E 0 90 3d 60
        E 120 80 2b 00
        E 0 80 60 00
        E 0 80 62 00
        E 0 80 54 00
        E 0 80 56 00
        E 0 80 48 00
        E 0 80 4a 00
        E 0 80 3d 00
        E 120 90 2f 60
        E 0 90 59 60
        E 0 90 61 60
        E 0 90 62 60
        E 0 90 65 60
        E 0 90 55 60
        E 0 90 56 60
        E 120 80 2f 00
        E 0 80 61 00
        E 0 80 62 00
        E 0 80 55 00
        E 0 80 56 00
        E 120 90 2b 60
        E 0 90 60 60
        E 0 90 62 60
        E 0 90 54 60
        E 0 90 56 60
        E 0 90 48 60
        E 0 90 4a 60
        E 120 80 59 00
        E 0 80 65 00
        E 0 80 60 00
        E 0 80 62 00
        E 0 80 54 00
        E 0 80 56 00
        E 0 80 48 00
        E 0 80 4a 00
        E 240 80 2b 00
        E 120 90 2d 60
        E 0 90 60 60
        E 0 90 61 60
        E 0 90 54 60
        E 0 90 55 60
        E 0 90 48 60
        E 0 90 49 60
        E 0 90 3c 60
        E 2040 80 48 00
        E 0 80 49 00
        E 0 80 3c 00
        E 120 80 54 00
        E 0 80 55 00
        E 120 80 2d 00
        E 0 80 60 00
        E 0 80 61 00
        E 120 90 2d 60
        E 0 90 60 60
        E 0 90 61 60
        E 0 90 54 60
        E 0 90 55 60
        E 0 90 48 60
        E 0 90 49 60
        E 120 80 60 00
        E 0 80 61 00
        E 0 80 54 00
        E 0 80 55 00
        E 0 80 48 00
        E 0 80 49 00
        E 240 80 2d 00
        E 120 90 2f 60
        E 0 90 61 60
        E 0 90 62 60
        E 0 90 55 60
        E 0 90 56 60
        E 0 90 49 60
        E 0 90 4a 60
        E 0 90 3e 60
        E 480 80 49 00
        E 0 80 4a 00
        E 0 80 3e 00
        E 360 80 61 00
        E 0 80 62 00
        E 0 80 55 00
        E 0 80 56 00
        E 120 90 59 60
        E 0 90 60 60
        E 0 90 61 60
        E 0 90 65 60
        E 0 90 54 60
        E 0 90 55 60
        E 0 90 48 60
        E 0 90 49 60
        E 0 90 3c 60
        E 120 80 59 00
        E 0 80 60 00
        E 0 80 61 00
        E 0 80 65 00
        E 0 80 54 00
        E 0 80 55 00
        E 0 80 48 00
        E 0 80 49 00
        E 0 80 3c 00
        E 240 80 2f 00
        E 120 90 32 60
        E 0 90 62 60
        E 0 90 63 60
        E 0 90 56 60
        E 0 90 57 60
        E 0 90 4a 60
        E 0 90 4b 60
        E 120 80 32 00
        E 0 80 62 00
        E 0 80 63 00
        E 0 80 56 00
        E 0 80 57 00
        E 0 80 4a 00
        E 0 80 4b 00
        E 0 90 34 60
        E 0 90 59 60
        E 0 90 62 60
        E 0 90 64 60
        E 0 90 65 60
        E 720 80 34 00
        E 0 80 59 00
        E 0 80 62 00
        E 0 80 64 00
        E 0 80 65 00
        E 120 90 32 60
        E 0 90 62 60
        E 0 90 63 60
        E 0 90 56 60
        E 0 90 57 60
        E 0 90 4a 60
        E 0 90 4b 60
        E 120 80 62 00
        E 0 80 63 00
        E 0 80 56 00
        E 0 80 57 00
        E 0 80 4a 00
        E 0 80 4b 00
        E 240 80 32 00
        E 120 90 2f 60
        E 0 90 61 60
        E 0 90 62 60
        E 0 90 55 60
        E 0 90 56 60
        E 0 90 49 60
        E 0 90 4a 60
        E 0 90 3e 60
        E 120 80 61 00
        E 0 80 62 00
        E 0 80 55 00
        E 0 80 56 00
        E 0 80 49 00
        E 0 80 4a 00
        E 0 80 3e 00
        E 240 80 2f 00
        E 120 90 32 60
        E 0 90 62 60
        E 0 90 63 60
        E 0 90 56 60
        E 0 90 57 60
        E 0 90 4a 60
        E 0 90 4b 60
        E 120 80 62 00
        E 0 80 63 00
        E 0 80 56 00
        E 0 80 57 00
        E 0 80 4a 00
        E 0 80 4b 00
        E 240 80 32 00
        E 120 90 2b 60
        E 0 90 60 60
        E 0 90 62 60
        E 0 90 54 60
        E 0 90 56 60
        E 0 90 48 60
        E 0 90 4a 60
        E 0 90 3d 60
        E 120 80 2b 00
        E 0 80 60 00
        E 0 80 62 00
        E 0 80 54 00
        E 0 80 56 00
        E 0 80 48 00
        E 0 80 4a 00
        E 0 80 3d 00
        E 120 90 2f 60
        E 0 90 59 60
        E 0 90 61 60
        E 0 90 62 60
        E 0 90 65 60
        E 0 90 55 60
        E 0 90 56 60
        E 120 80 2f 00
        E 0 80 61 00
        E 0 80 62 00
        E 0 80 55 00
        E 0 80 56 00
        E 120 90 2b 60
        E 0 90 60 60
        E 0 90 62 60
        E 0 90 54 60
        E 0 90 56 60
        E 0 90 48 60
        E 0 90 4a 60
        E 120 80 59 00
        E 0 80 65 00
        E 0 80 60 00
        E 0 80 62 00
        E 0 80 54 00
        E 0 80 56 00
        E 0 80 48 00
        E 0 80 4a 00
        E 240 80 2b 00
        E 120 90 2d 60
        E 0 90 60 60
        E 0 90 61 60
        E 0 90 54 60
        E 0 90 55 60
        E 0 90 48 60
        E 0 90 49 60
        E 0 90 3c 60
        E 1920 80 3c 00
        E 120 80 48 00
        E 0 80 49 00
        E 120 80 54 00
        E 0 80 55 00
        E 120 80 2d 00
        E 0 80 60 00
        E 0 80 61 00
        E 120 90 2d 60
        E 0 90 60 60
        E 0 90 61 60
        E 0 90 54 60
        E 0 90 55 60
        E 0 90 48 60
        E 0 90 49 60
        E 0 90 3c 60
        E 120 80 60 00
        E 0 80 61 00
        E 0 80 54 00
        E 0 80 55 00
        E 0 80 48 00
        E 0 80 49 00
        E 0 80 3c 00
        E 360 90 67 60
        E 360 80 2d 00
        E 120 90 32 60
        E 0 90 63 60
        E 0 90 57 60
        E 0 90 4b 60
        E 0 90 3f 60
        E 120 80 63 00
        E 0 80 57 00
        E 0 80 4b 00
        E 0 80 3f 00
        E 120 90 63 60
        E 0 90 57 60
        E 0 90 4b 60
        E 120 80 63 00
        E 0 80 57 00
        E 0 80 4b 00
        E 120 90 63 60
        E 0 90 57 60
        E 0 90 4b 60
        E 0 90 3f 60
        E 120 80 63 00
        E 0 80 57 00
        E 0 80 4b 00
        E 0 80 3f 00
        E 360 90 63 60
        E 0 90 57 60
        E 0 90 4b 60
        E 0 90 3f 60
        E 120 80 63 00
        E 0 80 57 00
        E 0 80 4b 00
        E 0 80 3f 00
        E 360 90 63 60
        E 0 90 57 60
        E 0 90 4b 60
        E 0 90 3f 60
        E 120 80 4b 00
        E 0 80 3f 00
        E 240 80 63 00
        E 0 80 57 00
        E 120 90 62 60
        E 0 90 56 60
        E 0 90 4a 60
        E 120 80 62 00
        E 0 80 56 00
        E 0 80 4a 00
        E 360 90 62 60
        E 0 90 56 60
        E 0 90 4a 60
        E 0 90 3e 60
        E 120 80 62 00
        E 0 80 56 00
        E 0 80 4a 00
        E 0 80 3e 00
        E 360 90 62 60
        E 0 90 56 60
        E 0 90 4a 60
        E 120 80 62 00
        E 0 80 56 00
        E 0 80 4a 00
        E 240 80 32 00
        E 120 90 2b 60
        E 0 90 61 60
        E 0 90 55 60
        E 0 90 49 60
        E 0 90 3d 60
        E 120 80 61 00
        E 0 80 55 00
        E 0 80 49 00
        E 0 80 3d 00
        E 360 90 62 60
        E 0 90 56 60
        E 0 90 4a 60
        E 120 80 62 00
        E 0 80 56 00
        E 0 80 4a 00
        E 360 90 62 60
        E 0 90 56 60
        E 0 90 4a 60
        E 0 90 3e 60
        E 120 80 62 00
        E 0 80 56 00
        E 0 80 4a 00
        E 0 80 3e 00
        E 360 90 62 60
        E 0 90 56 60
        E 0 90 4a 60
        E 120 80 62 00
        E 0 80 56 00
        E 0 80 4a 00
        E 360 90 61 60
        E 0 90 55 60
        E 0 90 49 60
        E 0 90 3d 60
        E 1920 80 61 00
        E 0 80 55 00
        E 0 80 49 00
        E 0 80 3d 00
        E 360 80 2b 00
        E 120 90 32 60
        E 0 90 63 60
        E 0 90 57 60
        E 0 90 4b 60
        E 0 90 3f 60
        E 120 80 63 00
        E 0 80 57 00
        E 0 80 4b 00
        E 0 80 3f 00
        E 120 90 63 60
        E 0 90 57 60
        E 0 90 4b 60
        E 120 80 63 00
        E 0 80 57 00
        E 0 80 4b 00
        E 120 90 63 60
        E 0 90 57 60
        E 0 90 4b 60
        E 0 90 3f 60
        E 120 80 63 00
        E 0 80 57 00
        E 0 80 4b 00
        E 0 80 3f 00
        E 360 90 63 60
        E 0 90 57 60
        E 0 90 4b 60
        E 0 90 3f 60
        E 120 80 63 00
        E 0 80 57 00
        E 0 80 4b 00
        E 0 80 3f 00
        E 360 90 63 60
        E 0 90 57 60
        E 0 90 4b 60
        E 0 90 3f 60
        E 120 80 57 00
        E 0 80 4b 00
        E 0 80 3f 00
        E 240 80 63 00
        E 120 90 62 60
        E 0 90 56 60
        E 0 90 4a 60
        E 120 80 62 00
        E 0 80 56 00
        E 0 80 4a 00
        E 360 90 62 60
        E 0 90 56 60
        E 0 90 4a 60
        E 0 90 3e 60
        E 120 80 62 00
        E 0 80 56 00
        E 0 80 4a 00
        E 0 80 3e 00
        E 360 90 62 60
        E 0 90 56 60
        E 0 90 4a 60
        E 120 80 62 00
        E 0 80 56 00
        E 0 80 4a 00
        E 240 80 32 00
        E 120 90 2b 60
        E 0 90 61 60
        E 0 90 74 60
        E 0 90 55 60
        E 0 90 49 60
        E 0 90 3d 60
        E 120 80 61 00
        E 0 80 55 00
        E 0 80 49 00
        E 0 80 3d 00
        E 360 90 62 60
        E 0 90 56 60
        E 0 90 4a 60
        E 120 80 62 00
        E 0 80 56 00
        E 0 80 4a 00
        E 360 90 62 60
        E 0 90 56 60
        E 0 90 4a 60
        E 0 90 3e 60
        E 120 80 62 00
        E 0 80 56 00
        E 0 80 4a 00
        E 0 80 3e 00
        E 360 90 62 60
        E 0 90 56 60
        E 0 90 4a 60
        E 120 80 62 00
        E 0 80 56 00
        E 0 80 4a 00
        E 360 90 61 60
        E 0 90 55 60
        E 0 90 49 60
        E 0 90 3d 60
        E 1440 80 74 00
        E 0 80 61 00
        E 0 80 55 00
        E 0 80 49 00
        E 0 80 3d 00
        E 840 80 2b 00
        E 120 90 32 60
        E 0 90 63 60
        E 0 90 57 60
        E 0 90 4b 60
        E 0 90 3f 60
        E 120 80 63 00
        E 0 80 57 00
        E 0 80 4b 00
        E 0 80 3f 00
        E 120 90 63 60
        E 0 90 57 60
        E 0 90 4b 60
        E 120 80 63 00
        E 0 80 57 00
        E 0 80 4b 00
        E 120 90 63 60
        E 0 90 57 60
        E 0 90 4b 60
        E 0 90 3f 60
        E 120 80 63 00
        E 0 80 57 00
        E 0 80 4b 00
        E 0 80 3f 00
        E 360 90 63 60
        E 0 90 57 60
        E 0 90 4b 60
        E 0 90 3f 60
        E 120 80 63 00
        E 0 80 57 00
        E 0 80 4b 00
        E 0 80 3f 00
        E 360 90 63 60
        E 0 90 57 60
        E 0 90 4b 60
        E 0 90 3f 60
        E 120 80 57 00
        E 0 80 4b 00
        E 0 80 3f 00
        E 240 80 63 00
        E 120 90 62 60
        E 0 90 56 60
        E 0 90 4a 60
        E 120 80 62 00
        E 0 80 56 00
        E 0 80 4a 00
        E 360 90 62 60
        E 0 90 56 60
        E 0 90 4a 60
        E 0 90 3e 60
        E 120 80 62 00
        E 0 80 56 00
        E 0 80 4a 00
        E 0 80 3e 00
        E 360 90 62 60
        E 0 90 56 60
        E 0 90 4a 60
        E 120 80 62 00
        E 0 80 56 00
        E 0 80 4a 00
        E 240 80 32 00
        E 120 90 2b 60
        E 0 90 61 60
        E 0 90 55 60
        E 0 90 49 60
        E 0 90 3d 60
        E 120 80 61 00
        E 0 80 55 00
        E 0 80 49 00
        E 0 80 3d 00
        E 360 90 62 60
        E 0 90 56 60
        E 0 90 4a 60
        E 120 80 62 00
        E 0 80 56 00
        E 0 80 4a 00
        E 360 90 62 60
        E 0 90 56 60
        E 0 90 4a 60
        E 0 90 3e 60
        E 120 80 62 00
        E 0 80 56 00
        E 0 80 4a 00
        E 0 80 3e 00
        E 360 90 62 60
        E 0 90 56 60
        E 0 90 4a 60
        E 120 80 62 00
        E 0 80 56 00
        E 0 80 4a 00
        E 360 90 61 60
        E 0 90 55 60
        E 0 90 49 60
        E 0 90 3d 60
        E 1440 80 61 00
        E 0 80 55 00
        E 0 80 49 00
        E 0 80 3d 00
        E 840 80 2b 00
        E 120 90 32 60
        E 0 90 63 60
        E 0 90 57 60
        E 0 90 4b 60
        E 0 90 3f 60
        E 120 80 63 00
        E 0 80 57 00
        E 0 80 4b 00
        E 0 80 3f 00
        E 120 90 63 60
        E 0 90 57 60
        E 0 90 4b 60
        E 120 80 63 00
        E 0 80 57 00
        E 0 80 4b 00
        E 120 90 63 60
        E 0 90 57 60
        E 0 90 4b 60
        E 0 90 3f 60
        E 120 80 63 00
        E 0 80 57 00
        E 0 80 4b 00
        E 0 80 3f 00
        E 360 90 63 60
        E 0 90 57 60
        E 0 90 4b 60
        E 0 90 3f 60
        E 120 80 63 00
        E 0 80 57 00
        E 0 80 4b 00
        E 0 80 3f 00
        E 360 90 63 60
        E 0 90 57 60
        E 0 90 4b 60
        E 0 90 3f 60
        E 120 80 57 00
        E 0 80 4b 00
        E 0 80 3f 00
        E 240 80 63 00
        E 120 90 62 60
        E 0 90 56 60
        E 0 90 4a 60
        E 120 80 62 00
        E 0 80 56 00
        E 0 80 4a 00
        E 360 90 62 60
        E 0 90 56 60
        E 0 90 4a 60
        E 0 90 3e 60
        E 120 80 62 00
        E 0 80 56 00
        E 0 80 4a 00
        E 0 80 3e 00
        E 360 90 62 60
        E 0 90 56 60
        E 0 90 4a 60
        E 120 80 62 00
        E 0 80 56 00
        E 0 80 4a 00
        E 240 80 32 00
        E 120 90 2b 60
        E 0 90 61 60
        E 0 90 55 60
        E 0 90 49 60
        E 0 90 3d 60
        E 120 80 61 00
        E 0 80 55 00
        E 0 80 49 00
        E 0 80 3d 00
        E 360 90 62 60
        E 0 90 56 60
        E 0 90 4a 60
        E 120 80 62 00
        E 0 80 56 00
        E 0 80 4a 00
        E 360 90 62 60
        E 0 90 56 60
        E 0 90 4a 60
        E 0 90 3e 60
        E 120 80 62 00
        E 0 80 56 00
        E 0 80 4a 00
        E 0 80 3e 00
        E 360 90 62 60
        E 0 90 56 60
        E 0 90 4a 60
        E 120 80 62 00
        E 0 80 56 00
        E 0 80 4a 00
        E 360 90 61 60
        E 0 90 55 60
        E 0 90 49 60
        E 0 90 3d 60
        E 1440 80 67 00
        E 0 80 61 00
        E 0 80 55 00
        E 0 80 49 00
        E 0 80 3d 00
        E 360 80 2b 00
        E 120 90 32 60
        E 0 90 63 60
        E 0 90 57 60
        E 0 90 4b 60
        E 0 90 3f 60
        E 120 80 4b 00
        E 0 80 3f 00
        E 240 80 63 00
        E 0 80 57 00
        E 120 90 59 60
        E 0 90 62 60
        E 0 90 65 60
        E 0 90 56 60
        E 0 90 4a 60
        E 120 80 4a 00
        E 240 80 62 00
        E 0 80 56 00
        E 120 90 61 60
        E 0 90 55 60
        E 0 90 49 60
        E 0 90 3d 60
        E 120 80 59 00
        E 0 80 65 00
        E 0 80 61 00
        E 0 80 55 00
        E 0 80 49 00
        E 0 80 3d 00
        E 360 90 63 60
        E 0 90 58 60
        E 0 90 4c 60
        E 120 80 63 00
        E 0 90 59 60
        E 0 90 64 60
        E 0 90 65 60
        E 360 80 4c 00
        E 360 80 58 00
        E 0 80 59 00
        E 0 80 64 00
        E 0 80 65 00
        E 120 90 63 60
        E 0 90 57 60
        E 0 90 4b 60
        E 120 80 63 00
        E 0 80 57 00
        E 0 80 4b 00
        E 360 90 62 60
        E 0 90 56 60
        E 0 90 4a 60
        E 0 90 3e 60
        E 480 80 4a 00
        E 0 80 3e 00
        E 360 80 32 00
        E 0 80 62 00
        E 0 80 56 00
        E 120 90 2f 60
        E 0 90 61 60
        E 0 90 55 60
        E 0 90 49 60
        E 0 90 3d 60
        E 120 80 61 00
        E 0 80 55 00
        E 0 80 49 00
        E 0 80 3d 00
        E 360 90 61 60
        E 0 90 55 60
        E 0 90 49 60
        E 0 90 3d 60
        E 120 80 61 00
        E 0 80 55 00
        E 0 80 49 00
        E 0 80 3d 00
        E 360 90 61 60
        E 0 90 55 60
        E 0 90 49 60
        E 0 90 3d 60
        E 120 80 61 00
        E 0 80 55 00
        E 0 80 49 00
        E 0 80 3d 00
        E 360 90 61 60
        E 0 90 55 60
        E 0 90 49 60
        E 0 90 3d 60
        E 120 80 61 00
        E 0 80 55 00
        E 0 80 49 00
        E 0 80 3d 00
        E 360 90 61 60
        E 0 90 74 60
        E 0 90 55 60
        E 0 90 49 60
        E 0 90 3d 60
        E 120 80 61 00
        E 0 80 55 00
        E 0 80 49 00
        E 0 80 3d 00
        E 360 90 60 60
        E 0 90 54 60
        E 0 90 48 60
        E 120 80 60 00
        E 0 80 54 00
        E 0 80 48 00
        E 120 90 61 60
        E 0 90 55 60
        E 120 80 61 00
        E 0 80 55 00
        E 120 90 62 60
        E 0 90 56 60
        E 0 90 4a 60
        E 0 90 3e 60
        E 120 80 62 00
        E 0 80 56 00
        E 0 80 4a 00
        E 0 80 3e 00
        E 120 90 60 60
        E 0 90 54 60
        E 120 80 60 00
        E 0 80 54 00
        E 120 90 61 60
        E 0 90 55 60
        E 0 90 49 60
        E 120 80 61 00
        E 0 80 55 00
        E 0 80 49 00
        E 120 90 62 60
        E 0 90 56 60
        E 120 80 2f 00
        E 0 80 62 00
        E 0 80 56 00
        E 120 90 32 60
        E 0 90 63 60
        E 0 90 57 60
        E 0 90 4b 60
        E 0 90 3f 60
        E 120 80 57 00
        E 0 80 4b 00
        E 0 80 3f 00
        E 240 80 63 00
        E 120 90 59 60
        E 0 90 62 60
        E 0 90 65 60
        E 0 90 56 60
        E 0 90 4a 60
        E 120 80 56 00
        E 0 80 4a 00
        E 240 80 62 00
        E 120 90 61 60
        E 0 90 55 60
        E 0 90 49 60
        E 0 90 3d 60
        E 120 80 74 00
        E 0 80 59 00
        E 0 80 65 00
        E 0 80 61 00
        E 0 80 55 00
        E 0 80 49 00
        E 0 80 3d 00
        E 240 80 32 00
        E 120 90 2f 60
        E 0 90 62 60
        E 0 90 57 60
        E 0 90 4b 60
        E 120 80 62 00
        E 0 90 59 60
        E 0 90 63 60
        E 0 90 65 60
        E 480 80 4b 00
        E 120 80 57 00
        E 120 80 59 00
        E 0 80 63 00
        E 0 80 65 00
        E 120 90 62 60
        E 0 90 56 60
        E 0 90 4a 60
        E 120 80 62 00
        E 0 80 56 00
        E 0 80 4a 00
        E 360 90 61 60
        E 0 90 55 60
        E 0 90 49 60
        E 0 90 3d 60
        E 120 80 3d 00
        E 480 80 49 00
        E 120 80 55 00
        E 120 80 2f 00
        E 0 80 61 00
        E 120 90 2b 60
        E 0 90 60 60
        E 0 90 54 60
        E 0 90 48 60
        E 0 90 3c 60
        E 120 80 60 00
        E 0 80 54 00
        E 0 80 48 00
        E 0 80 3c 00
        E 360 90 60 60
        E 0 90 54 60
        E 0 90 48 60
        E 0 90 3c 60
        E 120 80 60 00
        E 0 80 54 00
        E 0 80 48 00
        E 0 80 3c 00
        E 360 90 60 60
        E 0 90 54 60
        E 0 90 48 60
        E 0 90 3c 60
        E 120 80 60 00
        E 0 80 54 00
        E 0 80 48 00
        E 0 80 3c 00
        E 360 90 60 60
        E 0 90 54 60
        E 0 90 48 60
        E 0 90 3c 60
        E 120 80 60 00
        E 0 80 54 00
        E 0 80 48 00
        E 0 80 3c 00
        E 360 90 60 60
        E 0 90 54 60
        E 0 90 48 60
        E 0 90 3c 60
        E 120 80 60 00
        E 0 80 54 00
        E 0 80 48 00
        E 0 80 3c 00
        E 240 80 2b 00
        E 120 90 2f 60
        E 0 90 60 60
        E 0 90 54 60
        E 0 90 48 60
        E 120 80 60 00
        E 0 80 54 00
        E 0 80 48 00
        E 120 90 61 60
        E 0 90 55 60
        E 120 80 61 00
        E 0 80 55 00
        E 120 90 62 60
        E 0 90 56 60
        E 0 90 4a 60
        E 0 90 3e 60
        E 120 80 62 00
        E 0 80 56 00
        E 0 80 4a 00
        E 0 80 3e 00
        E 120 90 60 60
        E 0 90 54 60
        E 120 80 60 00
        E 0 80 54 00
        E 120 90 61 60
        E 0 90 55 60
        E 0 90 49 60
        E 120 80 61 00
        E 0 80 55 00
        E 0 80 49 00
        E 120 90 62 60
        E 0 90 56 60
        E 120 80 2f 00
        E 0 80 62 00
        E 0 80 56 00
        E 120 90 32 60
        E 0 90 63 60
        E 0 90 57 60
        E 0 90 4b 60
        E 0 90 3f 60
        E 120 80 4b 00
        E 0 80 3f 00
        E 240 80 63 00
        E 0 80 57 00
        E 120 90 59 60
        E 0 90 62 60
        E 0 90 65 60
        E 0 90 56 60
        E 0 90 4a 60
        E 120 80 4a 00
        E 240 80 62 00
        E 0 80 56 00
        E 120 90 61 60
        E 0 90 55 60
        E 0 90 49 60
        E 0 90 3d 60
        E 120 80 59 00
        E 0 80 65 00
        E 0 80 61 00
        E 0 80 55 00
        E 0 80 49 00
        E 0 80 3d 00
        E 360 90 63 60
        E 0 90 58 60
        E 0 90 4c 60
        E 120 80 63 00
        E 0 90 59 60
        E 0 90 64 60
        E 0 90 65 60
        E 360 80 4c 00
        E 360 80 58 00
        E 0 80 59 00
        E 0 80 64 00
        E 0 80 65 00
        E 120 90 63 60
        E 0 90 57 60
        E 0 90 4b 60
        E 120 80 63 00
        E 0 80 57 00
        E 0 80 4b 00
        E 360 90 62 60
        E 0 90 56 60
        E 0 90 4a 60
        E 0 90 3e 60
        E 120 80 3e 00
        E 480 80 4a 00
        E 120 80 56 00
        E 120 80 32 00
        E 0 80 62 00
        E 120 90 2f 60
        E 0 90 61 60
        E 0 90 55 60
        E 0 90 49 60
        E 0 90 3d 60
        E 120 80 61 00
        E 0 80 55 00
        E 0 80 49 00
        E 0 80 3d 00
        E 360 90 61 60
        E 0 90 55 60
        E 0 90 49 60
        E 0 90 3d 60
        E 120 80 61 00
        E 0 80 55 00
        E 0 80 49 00
        E 0 80 3d 00
        E 360 90 61 60
        E 0 90 55 60
        E 0 90 49 60
        E 0 90 3d 60
        E 120 80 61 00
        E 0 80 55 00
        E 0 80 49 00
        E 0 80 3d 00
        E 360 90 61 60
        E 0 90 55 60
        E 0 90 49 60
        E 0 90 3d 60
        E 120 80 61 00
        E 0 80 55 00
        E 0 80 49 00
        E 0 80 3d 00
        E 360 90 61 60
        E 0 90 55 60
        E 0 90 49 60
        E 0 90 3d 60
        E 120 80 61 00
        E 0 80 55 00
        E 0 80 49 00
        E 0 80 3d 00
        E 360 90 60 60
        E 0 90 54 60
        E 0 90 48 60
        E 120 80 60 00
        E 0 80 54 00
        E 0 80 48 00
        E 120 90 61 60
        E 0 90 55 60
        E 120 80 61 00
        E 0 80 55 00
        E 120 90 62 60
        E 0 90 56 60
        E 0 90 4a 60
        E 0 90 3e 60
        E 120 80 62 00
        E 0 80 56 00
        E 0 80 4a 00
        E 0 80 3e 00
        E 120 90 60 60
        E 0 90 54 60
        E 120 80 60 00
        E 0 80 54 00
        E 120 90 61 60
        E 0 90 55 60
        E 0 90 49 60
        E 120 80 61 00
        E 0 80 55 00
        E 0 80 49 00
        E 120 90 62 60
        E 0 90 56 60
        E 120 80 2f 00
        E 0 80 62 00
        E 0 80 56 00
        E 120 90 32 60
        E 0 90 63 60
        E 0 90 57 60
        E 0 90 4b 60
        E 0 90 3f 60
        E 120 80 4b 00
        E 0 80 3f 00
        E 240 80 63 00
        E 0 80 57 00
        E 120 90 59 60
        E 0 90 62 60
        E 0 90 65 60
        E 0 90 56 60
        E 0 90 4a 60
        E 120 80 4a 00
        E 240 80 62 00
        E 0 80 56 00
        E 120 90 61 60
        E 0 90 55 60
        E 0 90 49 60
        E 0 90 3d 60
        E 120 80 59 00
        E 0 80 65 00
        E 0 80 61 00
        E 0 80 55 00
        E 0 80 49 00
        E 0 80 3d 00
        E 240 80 32 00
        E 120 90 2f 60
        E 0 90 62 60
        E 0 90 57 60
        E 0 90 4b 60
        E 120 80 62 00
        E 0 90 59 60
        E 0 90 63 60
        E 0 90 65 60
        E 360 80 4b 00
        E 360 80 57 00
        E 0 80 59 00
        E 0 80 63 00
        E 0 80 65 00
        E 120 90 62 60
        E 0 90 56 60
        E 0 90 4a 60
        E 120 80 62 00
        E 0 80 56 00
        E 0 80 4a 00
        E 360 90 61 60
        E 0 90 55 60
        E 0 90 49 60
        E 0 90 3d 60
        E 120 80 3d 00
        E 480 80 49 00
        E 120 80 55 00
        E 120 80 2f 00
        E 0 80 61 00
        E 120 90 2b 60
        E 0 90 60 60
        E 0 90 54 60
        E 0 90 48 60
        E 0 90 3c 60
        E 120 80 60 00
        E 0 80 54 00
        E 0 80 48 00
        E 0 80 3c 00
        E 360 90 60 60
        E 0 90 54 60
        E 0 90 48 60
        E 0 90 3c 60
        E 120 80 60 00
        E 0 80 54 00
        E 0 80 48 00
        E 0 80 3c 00
        E 360 90 60 60
        E 0 90 54 60
        E 0 90 48 60
        E 0 90 3c 60
        E 120 80 60 00
        E 0 80 54 00
        E 0 80 48 00
        E 0 80 3c 00
        E 360 90 60 60
        E 0 90 54 60
        E 0 90 48 60
        E 0 90 3c 60
        E 120 80 60 00
        E 0 80 54 00
        E 0 80 48 00
        E 0 80 3c 00
        E 360 90 60 60
        E 0 90 54 60
        E 0 90 48 60
        E 0 90 3c 60
        E 960 80 60 00
        E 0 80 54 00
        E 0 80 48 00
        E 0 80 3c 00
        E 360 80 2b 00
        <X 120 0
          /wFbaW50ZW5zZV0=
        >
        E 0 90 2d 60
        E 0 90 60 60
        E 0 90 61 60
        E 0 90 54 60
        E 0 90 55 60
        E 0 90 48 60
        E 0 90 49 60
        E 120 80 60 00
        E 0 80 61 00
        E 0 80 54 00
        E 0 80 55 00
        E 0 80 48 00
        E 0 80 49 00
        E 240 80 2d 00
        E 120 90 2f 60
        E 0 90 61 60
        E 0 90 62 60
        E 0 90 55 60
        E 0 90 56 60
        E 0 90 49 60
        E 0 90 4a 60
        E 0 90 3e 60
        E 480 80 49 00
        E 0 80 4a 00
        E 0 80 3e 00
        E 360 80 61 00
        E 0 80 62 00
        E 0 80 55 00
        E 0 80 56 00
        E 120 90 59 60
        E 0 90 60 60
        E 0 90 61 60
        E 0 90 65 60
        E 0 90 54 60
        E 0 90 55 60
        E 0 90 48 60
        E 0 90 49 60
        E 0 90 3c 60
        E 120 80 59 00
        E 0 80 60 00
        E 0 80 61 00
        E 0 80 65 00
        E 0 80 54 00
        E 0 80 55 00
        E 0 80 48 00
        E 0 80 49 00
        E 0 80 3c 00
        E 240 80 2f 00
        E 120 90 32 60
        E 0 90 62 60
        E 0 90 63 60
        E 0 90 74 60
        E 0 90 56 60
        E 0 90 57 60
        E 0 90 4a 60
        E 0 90 4b 60
        E 120 80 32 00
        E 0 80 62 00
        E 0 80 63 00
        E 0 80 56 00
        E 0 80 57 00
        E 0 80 4a 00
        E 0 80 4b 00
        E 0 90 34 60
        E 0 90 59 60
        E 0 90 62 60
        E 0 90 64 60
        E 0 90 65 60
        E 720 80 34 00
        E 0 80 59 00
        E 0 80 62 00
        E 0 80 64 00
        E 0 80 65 00
        E 120 90 32 60
        E 0 90 62 60
        E 0 90 63 60
        E 0 90 56 60
        E 0 90 57 60
        E 0 90 4a 60
        E 0 90 4b 60
        E 120 80 62 00
        E 0 80 63 00
        E 0 80 56 00
        E 0 80 57 00
        E 0 80 4a 00
        E 0 80 4b 00
        E 240 80 32 00
        E 120 90 2f 60
        E 0 90 61 60
        E 0 90 62 60
        E 0 90 55 60
        E 0 90 56 60
        E 0 90 49 60
        E 0 90 4a 60
        E 0 90 3e 60
        E 120 80 61 00
        E 0 80 62 00
        E 0 80 55 00
        E 0 80 56 00
        E 0 80 49 00
        E 0 80 4a 00
        E 0 80 3e 00
        E 240 80 2f 00
        E 120 90 32 60
        E 0 90 62 60
        E 0 90 63 60
        E 0 90 56 60
        E 0 90 57 60
        E 0 90 4a 60
        E 0 90 4b 60
        E 120 80 62 00
        E 0 80 63 00
        E 0 80 56 00
        E 0 80 57 00
        E 0 80 4a 00
        E 0 80 4b 00
        E 240 80 32 00
        E 120 90 2b 60
        E 0 90 60 60
        E 0 90 62 60
        E 0 90 54 60
        E 0 90 56 60
        E 0 90 48 60
        E 0 90 4a 60
        E 0 90 3d 60
        E 120 80 2b 00
        E 0 80 60 00
        E 0 80 62 00
        E 0 80 54 00
        E 0 80 56 00
        E 0 80 48 00
        E 0 80 4a 00
        E 0 80 3d 00
        E 120 90 2f 60
        E 0 90 59 60
        E 0 90 61 60
        E 0 90 62 60
        E 0 90 65 60
        E 0 90 55 60
        E 0 90 56 60
        E 120 80 2f 00
        E 0 80 61 00
        E 0 80 62 00
        E 0 80 55 00
        E 0 80 56 00
        E 120 90 2b 60
        E 0 90 60 60
        E 0 90 62 60
        E 0 90 54 60
        E 0 90 56 60
        E 0 90 48 60
        E 0 90 4a 60
        E 120 80 59 00
        E 0 80 65 00
        E 0 80 60 00
        E 0 80 62 00
        E 0 80 54 00
        E 0 80 56 00
        E 0 80 48 00
        E 0 80 4a 00
        E 240 80 2b 00
        E 120 90 2d 60
        E 0 90 60 60
        E 0 90 61 60
        E 0 90 54 60
        E 0 90 55 60
        E 0 90 48 60
        E 0 90 49 60
        E 0 90 3c 60
        E 120 80 74 00
        E 1800 80 48 00
        E 0 80 49 00
        E 0 80 3c 00
        E 360 80 2d 00
        E 0 80 60 00
        E 0 80 61 00
        E 0 80 54 00
        E 0 80 55 00
        E 120 90 2d 60
        E 0 90 60 60
        E 0 90 61 60
        E 0 90 54 60
        E 0 90 55 60
        E 0 90 48 60
        E 0 90 49 60
        E 120 80 60 00
        E 0 80 61 00
        E 0 80 54 00
        E 0 80 55 00
        E 0 80 48 00
        E 0 80 49 00
        E 240 80 2d 00
        E 120 90 2f 60
        E 0 90 61 60
        E 0 90 62 60
        E 0 90 55 60
        E 0 90 56 60
        E 0 90 49 60
        E 0 90 4a 60
        E 0 90 3e 60
        E 120 80 3e 00
        E 480 80 49 00
        E 0 80 4a 00
        E 120 80 55 00
        E 0 80 56 00
        E 120 80 61 00
        E 0 80 62 00
        E 120 90 59 60
        E 0 90 60 60
        E 0 90 61 60
        E 0 90 65 60
        E 0 90 54 60
        E 0 90 55 60
        E 0 90 48 60
        E 0 90 49 60
        E 0 90 3c 60
        E 120 80 59 00
        E 0 80 60 00
        E 0 80 61 00
        E 0 80 65 00
        E 0 80 54 00
        E 0 80 55 00
        E 0 80 48 00
        E 0 80 49 00
        E 0 80 3c 00
        E 240 80 2f 00
        E 120 90 32 60
        E 0 90 62 60
        E 0 90 63 60
        E 0 90 56 60
        E 0 90 57 60
        E 0 90 4a 60
        E 0 90 4b 60
        E 120 80 32 00
        E 0 80 62 00
        E 0 80 63 00
        E 0 80 56 00
        E 0 80 57 00
        E 0 80 4a 00
        E 0 80 4b 00
        E 0 90 34 60
        E 0 90 59 60
        E 0 90 62 60
        E 0 90 64 60
        E 0 90 65 60
        E 720 80 34 00
        E 0 80 59 00
        E 0 80 62 00
        E 0 80 64 00
        E 0 80 65 00
        E 120 90 32 60
        E 0 90 62 60
        E 0 90 63 60
        E 0 90 56 60
        E 0 90 57 60
        E 0 90 4a 60
        E 0 90 4b 60
        E 120 80 62 00
        E 0 80 63 00
        E 0 80 56 00
        E 0 80 57 00
        E 0 80 4a 00
        E 0 80 4b 00
        E 240 80 32 00
        E 120 90 2f 60
        E 0 90 61 60
        E 0 90 62 60
        E 0 90 55 60
        E 0 90 56 60
        E 0 90 49 60
        E 0 90 4a 60
        E 0 90 3e 60
        E 120 80 61 00
        E 0 80 62 00
        E 0 80 55 00
        E 0 80 56 00
        E 0 80 49 00
        E 0 80 4a 00
        E 0 80 3e 00
        E 240 80 2f 00
        E 120 90 32 60
        E 0 90 62 60
        E 0 90 63 60
        E 0 90 56 60
        E 0 90 57 60
        E 0 90 4a 60
        E 0 90 4b 60
        E 120 80 62 00
        E 0 80 63 00
        E 0 80 56 00
        E 0 80 57 00
        E 0 80 4a 00
        E 0 80 4b 00
        E 240 80 32 00
        E 120 90 2b 60
        E 0 90 60 60
        E 0 90 62 60
        E 0 90 54 60
        E 0 90 56 60
        E 0 90 48 60
        E 0 90 4a 60
        E 0 90 3d 60
        E 120 80 2b 00
        E 0 80 60 00
        E 0 80 62 00
        E 0 80 54 00
        E 0 80 56 00
        E 0 80 48 00
        E 0 80 4a 00
        E 0 80 3d 00
        E 120 90 2f 60
        E 0 90 59 60
        E 0 90 61 60
        E 0 90 62 60
        E 0 90 65 60
        E 0 90 55 60
        E 0 90 56 60
        E 120 80 2f 00
        E 0 80 61 00
        E 0 80 62 00
        E 0 80 55 00
        E 0 80 56 00
        E 120 90 2b 60
        E 0 90 60 60
        E 0 90 62 60
        E 0 90 54 60
        E 0 90 56 60
        E 0 90 48 60
        E 0 90 4a 60
        E 120 80 59 00
        E 0 80 65 00
        E 0 80 60 00
        E 0 80 62 00
        E 0 80 54 00
        E 0 80 56 00
        E 0 80 48 00
        E 0 80 4a 00
        E 240 80 2b 00
        E 120 90 2d 60
        E 0 90 60 60
        E 0 90 61 60
        E 0 90 54 60
        E 0 90 55 60
        E 0 90 48 60
        E 0 90 49 60
        E 0 90 3c 60
        E 2040 80 48 00
        E 0 80 49 00
        E 0 80 3c 00
        E 120 80 54 00
        E 0 80 55 00
        E 120 80 2d 00
        E 0 80 60 00
        E 0 80 61 00
        E 120 90 2d 60
        E 0 90 60 60
        E 0 90 61 60
        E 0 90 54 60
        E 0 90 55 60
        E 0 90 48 60
        E 0 90 49 60
        E 120 80 60 00
        E 0 80 61 00
        E 0 80 54 00
        E 0 80 55 00
        E 0 80 48 00
        E 0 80 49 00
        E 240 80 2d 00
        E 120 90 2f 60
        E 0 90 61 60
        E 0 90 62 60
        E 0 90 55 60
        E 0 90 56 60
        E 0 90 49 60
        E 0 90 4a 60
        E 0 90 3e 60
        E 480 80 49 00
        E 0 80 4a 00
        E 0 80 3e 00
        E 360 80 61 00
        E 0 80 62 00
        E 0 80 55 00
        E 0 80 56 00
        E 120 90 59 60
        E 0 90 60 60
        E 0 90 61 60
        E 0 90 65 60
        E 0 90 54 60
        E 0 90 55 60
        E 0 90 48 60
        E 0 90 49 60
        E 0 90 3c 60
        E 120 80 59 00
        E 0 80 60 00
        E 0 80 61 00
        E 0 80 65 00
        E 0 80 54 00
        E 0 80 55 00
        E 0 80 48 00
        E 0 80 49 00
        E 0 80 3c 00
        E 240 80 2f 00
        E 120 90 32 60
        E 0 90 62 60
        E 0 90 63 60
        E 0 90 56 60
        E 0 90 57 60
        E 0 90 4a 60
        E 0 90 4b 60
        E 120 80 32 00
        E 0 80 62 00
        E 0 80 63 00
        E 0 80 56 00
        E 0 80 57 00
        E 0 80 4a 00
        E 0 80 4b 00
        E 0 90 34 60
        E 0 90 59 60
        E 0 90 62 60
        E 0 90 64 60
        E 0 90 65 60
        E 720 80 34 00
        E 0 80 59 00
        E 0 80 62 00
        E 0 80 64 00
        E 0 80 65 00
        E 120 90 32 60
        E 0 90 62 60
        E 0 90 63 60
        E 0 90 56 60
        E 0 90 57 60
        E 0 90 4a 60
        E 0 90 4b 60
        E 120 80 62 00
        E 0 80 63 00
        E 0 80 56 00
        E 0 80 57 00
        E 0 80 4a 00
        E 0 80 4b 00
        E 240 80 32 00
        E 120 90 2f 60
        E 0 90 61 60
        E 0 90 62 60
        E 0 90 55 60
        E 0 90 56 60
        E 0 90 49 60
        E 0 90 4a 60
        E 0 90 3e 60
        E 120 80 61 00
        E 0 80 62 00
        E 0 80 55 00
        E 0 80 56 00
        E 0 80 49 00
        E 0 80 4a 00
        E 0 80 3e 00
        E 240 80 2f 00
        E 120 90 32 60
        E 0 90 62 60
        E 0 90 63 60
        E 0 90 56 60
        E 0 90 57 60
        E 0 90 4a 60
        E 0 90 4b 60
        E 120 80 62 00
        E 0 80 63 00
        E 0 80 56 00
        E 0 80 57 00
        E 0 80 4a 00
        E 0 80 4b 00
        E 240 80 32 00
        E 120 90 2b 60
        E 0 90 60 60
        E 0 90 62 60
        E 0 90 54 60
        E 0 90 56 60
        E 0 90 48 60
        E 0 90 4a 60
        E 0 90 3d 60
        E 120 80 2b 00
        E 0 80 60 00
        E 0 80 62 00
        E 0 80 54 00
        E 0 80 56 00
        E 0 80 48 00
        E 0 80 4a 00
        E 0 80 3d 00
        E 120 90 2f 60
        E 0 90 59 60
        E 0 90 61 60
        E 0 90 62 60
        E 0 90 65 60
        E 0 90 55 60
        E 0 90 56 60
        E 120 80 2f 00
        E 0 80 61 00
        E 0 80 62 00
        E 0 80 55 00
        E 0 80 56 00
        E 120 90 2b 60
        E 0 90 60 60
        E 0 90 62 60
        E 0 90 54 60
        E 0 90 56 60
        E 0 90 48 60
        E 0 90 4a 60
        E 120 80 59 00
        E 0 80 65 00
        E 0 80 60 00
        E 0 80 62 00
        E 0 80 54 00
        E 0 80 56 00
        E 0 80 48 00
        E 0 80 4a 00
        E 240 80 2b 00
        E 120 90 2d 60
        E 0 90 60 60
        E 0 90 61 60
        E 0 90 54 60
        E 0 90 55 60
        E 0 90 48 60
        E 0 90 49 60
        E 0 90 3c 60
        E 2040 80 48 00
        E 0 80 49 00
        E 0 80 3c 00
        E 120 80 54 00
        E 0 80 55 00
        E 120 80 2d 00
        E 0 80 60 00
        E 0 80 61 00
        E 120 90 2d 60
        E 0 90 60 60
        E 0 90 61 60
        E 0 90 54 60
        E 0 90 55 60
        E 0 90 48 60
        E 0 90 49 60
        E 120 80 60 00
        E 0 80 61 00
        E 0 80 54 00
        E 0 80 55 00
        E 0 80 48 00
        E 0 80 49 00
        E 240 80 2d 00
        E 120 90 2f 60
        E 0 90 61 60
        E 0 90 62 60
        E 0 90 55 60
        E 0 90 56 60
        E 0 90 49 60
        E 0 90 4a 60
        E 0 90 3e 60
        E 480 80 49 00
        E 0 80 4a 00
        E 0 80 3e 00
        E 360 80 61 00
        E 0 80 62 00
        E 0 80 55 00
        E 0 80 56 00
        E 120 90 59 60
        E 0 90 60 60
        E 0 90 61 60
        E 0 90 65 60
        E 0 90 54 60
        E 0 90 55 60
        E 0 90 48 60
        E 0 90 49 60
        E 0 90 3c 60
        E 120 80 59 00
        E 0 80 60 00
        E 0 80 61 00
        E 0 80 65 00
        E 0 80 54 00
        E 0 80 55 00
        E 0 80 48 00
        E 0 80 49 00
        E 0 80 3c 00
        E 240 80 2f 00
        E 120 90 32 60
        E 0 90 62 60
        E 0 90 63 60
        E 0 90 56 60
        E 0 90 57 60
        E 0 90 4a 60
        E 0 90 4b 60
        E 120 80 32 00
        E 0 80 62 00
        E 0 80 63 00
        E 0 80 56 00
        E 0 80 57 00
        E 0 80 4a 00
        E 0 80 4b 00
        E 0 90 34 60
        E 0 90 59 60
        E 0 90 62 60
        E 0 90 64 60
        E 0 90 65 60
        E 720 80 34 00
        E 0 80 59 00
        E 0 80 62 00
        E 0 80 64 00
        E 0 80 65 00
        E 120 90 32 60
        E 0 90 62 60
        E 0 90 63 60
        E 0 90 56 60
        E 0 90 57 60
        E 0 90 4a 60
        E 0 90 4b 60
        E 120 80 62 00
        E 0 80 63 00
        E 0 80 56 00
        E 0 80 57 00
        E 0 80 4a 00
        E 0 80 4b 00
        E 240 80 32 00
        E 120 90 2f 60
        E 0 90 61 60
        E 0 90 62 60
        E 0 90 55 60
        E 0 90 56 60
        E 0 90 49 60
        E 0 90 4a 60
        E 0 90 3e 60
        E 120 80 61 00
        E 0 80 62 00
        E 0 80 55 00
        E 0 80 56 00
        E 0 80 49 00
        E 0 80 4a 00
        E 0 80 3e 00
        E 240 80 2f 00
        E 120 90 32 60
        E 0 90 62 60
        E 0 90 63 60
        E 0 90 56 60
        E 0 90 57 60
        E 0 90 4a 60
        E 0 90 4b 60
        E 120 80 62 00
        E 0 80 63 00
        E 0 80 56 00
        E 0 80 57 00
        E 0 80 4a 00
        E 0 80 4b 00
        E 240 80 32 00
        E 120 90 2b 60
        E 0 90 60 60
        E 0 90 62 60
        E 0 90 54 60
        E 0 90 56 60
        E 0 90 48 60
        E 0 90 4a 60
        E 0 90 3d 60
        E 120 80 2b 00
        E 0 80 60 00
        E 0 80 62 00
        E 0 80 54 00
        E 0 80 56 00
        E 0 80 48 00
        E 0 80 4a 00
        E 0 80 3d 00
        E 120 90 2f 60
        E 0 90 59 60
        E 0 90 61 60
        E 0 90 62 60
        E 0 90 65 60
        E 0 90 55 60
        E 0 90 56 60
        E 120 80 2f 00
        E 0 80 61 00
        E 0 80 62 00
        E 0 80 55 00
        E 0 80 56 00
        E 120 90 2b 60
        E 0 90 60 60
        E 0 90 62 60
        E 0 90 54 60
        E 0 90 56 60
        E 0 90 48 60
        E 0 90 4a 60
        E 120 80 59 00
        E 0 80 65 00
        E 0 80 60 00
        E 0 80 62 00
        E 0 80 54 00
        E 0 80 56 00
        E 0 80 48 00
        E 0 80 4a 00
        E 240 80 2b 00
        E 120 90 2d 60
        E 0 90 60 60
        E 0 90 61 60
        E 0 90 54 60
        E 0 90 55 60
        E 0 90 48 60
        E 0 90 49 60
        E 0 90 3c 60
        E 2400 80 60 00
        E 0 80 61 00
        E 0 80 54 00
        E 0 80 55 00
        E 0 80 48 00
        E 0 80 49 00
        E 0 80 3c 00
        E 360 80 2d 00
        E 120 90 2b 60
        E 0 90 61 60
        E 0 90 62 60
        E 0 90 63 60
        E 0 90 74 60
        E 0 90 55 60
        E 0 90 57 60
        E 0 90 49 60
        E 0 90 4b 60
        E 0 90 3e 60
        E 120 80 49 00
        E 0 80 4b 00
        E 0 80 3e 00
        E 480 80 61 00
        E 0 80 62 00
        E 0 80 63 00
        E 0 80 55 00
        E 0 80 57 00
        E 120 90 61 60
        E 0 90 62 60
        E 0 90 63 60
        E 0 90 55 60
        E 0 90 57 60
        E 0 90 49 60
        E 0 90 4b 60
        E 120 80 61 00
        E 0 80 62 00
        E 0 80 63 00
        E 0 80 55 00
        E 0 80 57 00
        E 0 80 49 00
        E 0 80 4b 00
        E 120 90 61 60
        E 0 90 62 60
        E 0 90 63 60
        E 0 90 55 60
        E 0 90 57 60
        E 0 90 49 60
        E 0 90 4b 60
        E 0 90 3e 60
        E 120 80 61 00
        E 0 80 62 00
        E 0 80 63 00
        E 0 80 55 00
        E 0 80 57 00
        E 0 80 49 00
        E 0 80 4b 00
        E 0 80 3e 00
        E 360 90 61 60
        E 0 90 62 60
        E 0 90 63 60
        E 0 90 55 60
        E 0 90 57 60
        E 0 90 49 60
        E 0 90 4b 60
        E 0 90 3e 60
        E 120 80 61 00
        E 0 80 62 00
        E 0 80 63 00
        E 0 80 55 00
        E 0 80 57 00
        E 0 80 49 00
        E 0 80 4b 00
        E 0 80 3e 00
        E 360 90 61 60
        E 0 90 62 60
        E 0 90 63 60
        E 0 90 55 60
        E 0 90 57 60
        E 0 90 49 60
        E 0 90 4b 60
        E 0 90 3e 60
        E 120 80 61 00
        E 0 80 62 00
        E 0 80 63 00
        E 0 80 55 00
        E 0 80 57 00
        E 0 80 49 00
        E 0 80 4b 00
        E 0 80 3e 00
        E 120 90 61 60
        E 0 90 62 60
        E 0 90 63 60
        E 0 90 55 60
        E 0 90 57 60
        E 0 90 49 60
        E 0 90 4b 60
        E 120 80 61 00
        E 0 80 62 00
        E 0 80 63 00
        E 0 80 55 00
        E 0 80 57 00
        E 0 80 49 00
        E 0 80 4b 00
        E 120 90 61 60
        E 0 90 62 60
        E 0 90 63 60
        E 0 90 55 60
        E 0 90 57 60
        E 0 90 49 60
        E 0 90 4b 60
        E 0 90 3e 60
        E 120 80 61 00
        E 0 80 62 00
        E 0 80 63 00
        E 0 80 55 00
        E 0 80 57 00
        E 0 80 49 00
        E 0 80 4b 00
        E 0 80 3e 00
        E 120 90 61 60
        E 0 90 62 60
        E 0 90 63 60
        E 0 90 55 60
        E 0 90 57 60
        E 0 90 49 60
        E 0 90 4b 60
        E 120 80 61 00
        E 0 80 62 00
        E 0 80 63 00
        E 0 80 55 00
        E 0 80 57 00
        E 0 80 49 00
        E 0 80 4b 00
        E 120 90 61 60
        E 0 90 62 60
        E 0 90 63 60
        E 0 90 55 60
        E 0 90 57 60
        E 0 90 49 60
        E 0 90 4b 60
        E 0 90 3e 60
        E 120 80 61 00
        E 0 80 62 00
        E 0 80 63 00
        E 0 80 55 00
        E 0 80 57 00
        E 0 80 49 00
        E 0 80 4b 00
        E 0 80 3e 00
        E 120 90 61 60
        E 0 90 62 60
        E 0 90 63 60
        E 0 90 55 60
        E 0 90 57 60
        E 0 90 49 60
        E 0 90 4b 60
        E 120 80 61 00
        E 0 80 62 00
        E 0 80 63 00
        E 0 80 55 00
        E 0 80 57 00
        E 0 80 49 00
        E 0 80 4b 00
        E 120 90 61 60
        E 0 90 62 60
        E 0 90 63 60
        E 0 90 55 60
        E 0 90 57 60
        E 0 90 49 60
        E 0 90 4b 60
        E 120 80 61 00
        E 0 80 62 00
        E 0 80 63 00
        E 0 80 55 00
        E 0 80 57 00
        E 0 80 49 00
        E 0 80 4b 00
        E 120 90 61 60
        E 0 90 62 60
        E 0 90 63 60
        E 0 90 55 60
        E 0 90 57 60
        E 120 80 2b 00
        E 0 80 61 00
        E 0 80 62 00
        E 0 80 63 00
        E 0 80 55 00
        E 0 80 57 00
        E 120 90 28 60
        E 0 90 60 60
        E 0 90 62 60
        E 0 90 63 60
        E 0 90 54 60
        E 0 90 57 60
        E 0 90 49 60
        E 0 90 4a 60
        E 0 90 3e 60
        E 120 80 74 00
        E 0 80 60 00
        E 0 80 62 00
        E 0 80 63 00
        E 0 80 54 00
        E 0 80 57 00
        E 0 80 49 00
        E 0 80 4a 00
        E 0 80 3e 00
        E 360 90 60 60
        E 0 90 62 60
        E 0 90 63 60
        E 0 90 54 60
        E 0 90 57 60
        E 0 90 49 60
        E 0 90 4a 60
        E 0 90 3e 60
        E 120 80 60 00
        E 0 80 62 00
        E 0 80 63 00
        E 0 80 54 00
        E 0 80 57 00
        E 0 80 49 00
        E 0 80 4a 00
        E 0 80 3e 00
        E 360 90 60 60
        E 0 90 62 60
        E 0 90 63 60
        E 0 90 54 60
        E 0 90 57 60
        E 0 90 49 60
        E 0 90 4a 60
        E 0 90 3e 60
        E 120 80 60 00
        E 0 80 62 00
        E 0 80 63 00
        E 0 80 54 00
        E 0 80 57 00
        E 0 80 49 00
        E 0 80 4a 00
        E 0 80 3e 00
        E 360 90 60 60
        E 0 90 62 60
        E 0 90 63 60
        E 0 90 54 60
        E 0 90 57 60
        E 0 90 49 60
        E 0 90 4a 60
        E 0 90 3e 60
        E 120 80 60 00
        E 0 80 62 00
        E 0 80 63 00
        E 0 80 54 00
        E 0 80 57 00
        E 0 80 49 00
        E 0 80 4a 00
        E 0 80 3e 00
        E 360 90 60 60
        E 0 90 62 60
        E 0 90 63 60
        E 0 90 54 60
        E 0 90 57 60
        E 0 90 49 60
        E 0 90 4a 60
        E 0 90 3e 60
        E 120 80 60 00
        E 0 80 62 00
        E 0 80 63 00
        E 0 80 54 00
        E 0 80 57 00
        E 0 80 49 00
        E 0 80 4a 00
        E 0 80 3e 00
        E 360 90 60 60
        E 0 90 62 60
        E 0 90 63 60
        E 0 90 54 60
        E 0 90 57 60
        E 0 90 49 60
        E 0 90 4a 60
        E 0 90 3e 60
        E 120 80 60 00
        E 0 80 62 00
        E 0 80 63 00
        E 0 80 54 00
        E 0 80 57 00
        E 0 80 49 00
        E 0 80 4a 00
        E 0 80 3e 00
        E 360 90 60 60
        E 0 90 62 60
        E 0 90 63 60
        E 0 90 54 60
        E 0 90 57 60
        E 0 90 49 60
        E 0 90 4a 60
        E 0 90 3e 60
        E 120 80 60 00
        E 0 80 62 00
        E 0 80 63 00
        E 0 80 54 00
        E 0 80 57 00
        E 0 80 49 00
        E 0 80 4a 00
        E 0 80 3e 00
        E 360 90 60 60
        E 0 90 62 60
        E 0 90 63 60
        E 0 90 54 60
        E 0 90 57 60
        E 0 90 49 60
        E 0 90 4a 60
        E 120 80 60 00
        E 0 80 62 00
        E 0 80 63 00
        E 0 80 54 00
        E 0 80 57 00
        E 0 80 49 00
        E 0 80 4a 00
        E 240 80 28 00
        E 120 90 2b 60
        E 0 90 61 60
        E 0 90 62 60
        E 0 90 63 60
        E 0 90 55 60
        E 0 90 57 60
        E 0 90 49 60
        E 0 90 4b 60
        E 0 90 3e 60
        E 120 80 55 00
        E 0 80 57 00
        E 0 80 49 00
        E 0 80 4b 00
        E 0 80 3e 00
        E 480 80 61 00
        E 0 80 62 00
        E 0 80 63 00
        E 120 90 61 60
        E 0 90 62 60
        E 0 90 63 60
        E 0 90 55 60
        E 0 90 57 60
        E 0 90 49 60
        E 0 90 4b 60
        E 120 80 61 00
        E 0 80 62 00
        E 0 80 63 00
        E 0 80 55 00
        E 0 80 57 00
        E 0 80 49 00
        E 0 80 4b 00
        E 120 90 61 60
        E 0 90 62 60
        E 0 90 63 60
        E 0 90 55 60
        E 0 90 57 60
        E 0 90 49 60
        E 0 90 4b 60
        E 0 90 3e 60
        E 120 80 61 00
        E 0 80 62 00
        E 0 80 63 00
        E 0 80 55 00
        E 0 80 57 00
        E 0 80 49 00
        E 0 80 4b 00
        E 0 80 3e 00
        E 360 90 61 60
        E 0 90 62 60
        E 0 90 63 60
        E 0 90 55 60
        E 0 90 57 60
        E 0 90 49 60
        E 0 90 4b 60
        E 0 90 3e 60
        E 120 80 61 00
        E 0 80 62 00
        E 0 80 63 00
        E 0 80 55 00
        E 0 80 57 00
        E 0 80 49 00
        E 0 80 4b 00
        E 0 80 3e 00
        E 360 90 61 60
        E 0 90 62 60
        E 0 90 63 60
        E 0 90 55 60
        E 0 90 57 60
        E 0 90 49 60
        E 0 90 4b 60
        E 0 90 3e 60
        E 120 80 61 00
        E 0 80 62 00
        E 0 80 63 00
        E 0 80 55 00
        E 0 80 57 00
        E 0 80 49 00
        E 0 80 4b 00
        E 0 80 3e 00
        E 360 90 61 60
        E 0 90 62 60
        E 0 90 63 60
        E 0 90 55 60
        E 0 90 57 60
        E 0 90 49 60
        E 0 90 4b 60
        E 0 90 3e 60
        E 120 80 61 00
        E 0 80 62 00
        E 0 80 63 00
        E 0 80 55 00
        E 0 80 57 00
        E 0 80 49 00
        E 0 80 4b 00
        E 0 80 3e 00
        E 360 90 61 60
        E 0 90 62 60
        E 0 90 63 60
        E 0 90 55 60
        E 0 90 57 60
        E 0 90 49 60
        E 0 90 4b 60
        E 0 90 3e 60
        E 120 80 61 00
        E 0 80 62 00
        E 0 80 63 00
        E 0 80 55 00
        E 0 80 57 00
        E 0 80 49 00
        E 0 80 4b 00
        E 0 80 3e 00
        E 360 90 61 60
        E 0 90 62 60
        E 0 90 63 60
        E 0 90 55 60
        E 0 90 57 60
        E 0 90 49 60
        E 0 90 4b 60
        E 120 80 61 00
        E 0 80 62 00
        E 0 80 63 00
        E 0 80 55 00
        E 0 80 57 00
        E 0 80 49 00
        E 0 80 4b 00
        E 240 80 2b 00
        E 120 90 28 60
        E 0 90 60 60
        E 0 90 62 60
        E 0 90 63 60
        E 0 90 54 60
        E 0 90 57 60
        E 0 90 49 60
        E 0 90 4a 60
        E 0 90 3e 60
        E 120 80 60 00
        E 0 80 62 00
        E 0 80 63 00
        E 0 80 54 00
        E 0 80 57 00
        E 0 80 49 00
        E 0 80 4a 00
        E 0 80 3e 00
        E 360 90 60 60
        E 0 90 62 60
        E 0 90 63 60
        E 0 90 54 60
        E 0 90 57 60
        E 0 90 49 60
        E 0 90 4a 60
        E 0 90 3e 60
        E 120 80 60 00
        E 0 80 62 00
        E 0 80 63 00
        E 0 80 54 00
        E 0 80 57 00
        E 0 80 49 00
        E 0 80 4a 00
        E 0 80 3e 00
        E 360 90 60 60
        E 0 90 62 60
        E 0 90 63 60
        E 0 90 54 60
        E 0 90 57 60
        E 0 90 49 60
        E 0 90 4a 60
        E 0 90 3e 60
        E 120 80 60 00
        E 0 80 62 00
        E 0 80 63 00
        E 0 80 54 00
        E 0 80 57 00
        E 0 80 49 00
        E 0 80 4a 00
        E 0 80 3e 00
        E 360 90 60 60
        E 0 90 62 60
        E 0 90 63 60
        E 0 90 54 60
        E 0 90 57 60
        E 0 90 49 60
        E 0 90 4a 60
        E 0 90 3e 60
        E 120 80 60 00
        E 0 80 62 00
        E 0 80 63 00
        E 0 80 54 00
        E 0 80 57 00
        E 0 80 49 00
        E 0 80 4a 00
        E 0 80 3e 00
        E 360 90 60 60
        E 0 90 62 60
        E 0 90 63 60
        E 0 90 54 60
        E 0 90 57 60
        E 0 90 49 60
        E 0 90 4a 60
        E 0 90 3e 60
        E 120 80 60 00
        E 0 80 62 00
        E 0 80 63 00
        E 0 80 54 00
        E 0 80 57 00
        E 0 80 49 00
        E 0 80 4a 00
        E 0 80 3e 00
        E 360 90 60 60
        E 0 90 62 60
        E 0 90 63 60
        E 0 90 54 60
        E 0 90 57 60
        E 0 90 49 60
        E 0 90 4a 60
        E 0 90 3e 60
        E 120 80 60 00
        E 0 80 62 00
        E 0 80 63 00
        E 0 80 54 00
        E 0 80 57 00
        E 0 80 49 00
        E 0 80 4a 00
        E 0 80 3e 00
        E 120 90 60 60
        E 0 90 62 60
        E 0 90 63 60
        E 0 90 54 60
        E 0 90 57 60
        E 0 90 49 60
        E 0 90 4a 60
        E 120 80 60 00
        E 0 80 62 00
        E 0 80 63 00
        E 0 80 54 00
        E 0 80 57 00
        E 0 80 49 00
        E 0 80 4a 00
        E 120 90 60 60
        E 0 90 62 60
        E 0 90 63 60
        E 0 90 54 60
        E 0 90 57 60
        E 0 90 49 60
        E 0 90 4a 60
        E 0 90 3e 60
        E 120 80 60 00
        E 0 80 62 00
        E 0 80 63 00
        E 0 80 54 00
        E 0 80 57 00
        E 0 80 49 00
        E 0 80 4a 00
        E 0 80 3e 00
        E 120 90 60 60
        E 0 90 62 60
        E 0 90 63 60
        E 0 90 54 60
        E 0 90 57 60
        E 0 90 49 60
        E 0 90 4a 60
        E 120 80 60 00
        E 0 80 62 00
        E 0 80 63 00
        E 0 80 54 00
        E 0 80 57 00
        E 0 80 49 00
        E 0 80 4a 00
        E 480 80 28 00
        E 120 90 2b 60
        E 0 90 61 60
        E 0 90 62 60
        E 0 90 63 60
        E 0 90 55 60
        E 0 90 57 60
        E 0 90 49 60
        E 0 90 4b 60
        E 0 90 3e 60
        E 120 80 49 00
        E 0 80 4b 00
        E 0 80 3e 00
        E 480 80 61 00
        E 0 80 62 00
        E 0 80 63 00
        E 0 80 55 00
        E 0 80 57 00
        E 120 90 61 60
        E 0 90 62 60
        E 0 90 63 60
        E 0 90 55 60
        E 0 90 57 60
        E 0 90 49 60
        E 0 90 4b 60
        E 120 80 61 00
        E 0 80 62 00
        E 0 80 63 00
        E 0 80 55 00
        E 0 80 57 00
        E 0 80 49 00
        E 0 80 4b 00
        E 120 90 61 60
        E 0 90 62 60
        E 0 90 63 60
        E 0 90 55 60
        E 0 90 57 60
        E 0 90 49 60
        E 0 90 4b 60
        E 0 90 3e 60
        E 120 80 61 00
        E 0 80 62 00
        E 0 80 63 00
        E 0 80 55 00
        E 0 80 57 00
        E 0 80 49 00
        E 0 80 4b 00
        E 0 80 3e 00
        E 360 90 61 60
        E 0 90 62 60
        E 0 90 63 60
        E 0 90 55 60
        E 0 90 57 60
        E 0 90 49 60
        E 0 90 4b 60
        E 0 90 3e 60
        E 120 80 61 00
        E 0 80 62 00
        E 0 80 63 00
        E 0 80 55 00
        E 0 80 57 00
        E 0 80 49 00
        E 0 80 4b 00
        E 0 80 3e 00
        E 360 90 61 60
        E 0 90 62 60
        E 0 90 63 60
        E 0 90 55 60
        E 0 90 57 60
        E 0 90 49 60
        E 0 90 4b 60
        E 0 90 3e 60
        E 120 80 61 00
        E 0 80 62 00
        E 0 80 63 00
        E 0 80 55 00
        E 0 80 57 00
        E 0 80 49 00
        E 0 80 4b 00
        E 0 80 3e 00
        E 120 90 61 60
        E 0 90 62 60
        E 0 90 63 60
        E 0 90 55 60
        E 0 90 57 60
        E 0 90 49 60
        E 0 90 4b 60
        E 120 80 61 00
        E 0 80 62 00
        E 0 80 63 00
        E 0 80 55 00
        E 0 80 57 00
        E 0 80 49 00
        E 0 80 4b 00
        E 120 90 61 60
        E 0 90 62 60
        E 0 90 63 60
        E 0 90 55 60
        E 0 90 57 60
        E 0 90 49 60
        E 0 90 4b 60
        E 0 90 3e 60
        E 120 80 61 00
        E 0 80 62 00
        E 0 80 63 00
        E 0 80 55 00
        E 0 80 57 00
        E 0 80 49 00
        E 0 80 4b 00
        E 0 80 3e 00
        E 120 90 61 60
        E 0 90 62 60
        E 0 90 63 60
        E 0 90 55 60
        E 0 90 57 60
        E 0 90 49 60
        E 0 90 4b 60
        E 120 80 61 00
        E 0 80 62 00
        E 0 80 63 00
        E 0 80 55 00
        E 0 80 57 00
        E 0 80 49 00
        E 0 80 4b 00
        E 120 90 61 60
        E 0 90 62 60
        E 0 90 63 60
        E 0 90 55 60
        E 0 90 57 60
        E 0 90 49 60
        E 0 90 4b 60
        E 0 90 3e 60
        E 120 80 61 00
        E 0 80 62 00
        E 0 80 63 00
        E 0 80 55 00
        E 0 80 57 00
        E 0 80 49 00
        E 0 80 4b 00
        E 0 80 3e 00
        E 120 90 61 60
        E 0 90 62 60
        E 0 90 63 60
        E 0 90 55 60
        E 0 90 57 60
        E 0 90 49 60
        E 0 90 4b 60
        E 120 80 61 00
        E 0 80 62 00
        E 0 80 63 00
        E 0 80 55 00
        E 0 80 57 00
        E 0 80 49 00
        E 0 80 4b 00
        E 120 90 61 60
        E 0 90 62 60
        E 0 90 63 60
        E 0 90 55 60
        E 0 90 57 60
        E 0 90 49 60
        E 0 90 4b 60
        E 120 80 61 00
        E 0 80 62 00
        E 0 80 63 00
        E 0 80 55 00
        E 0 80 57 00
        E 0 80 49 00
        E 0 80 4b 00
        E 120 90 61 60
        E 0 90 62 60
        E 0 90 63 60
        E 0 90 55 60
        E 0 90 57 60
        E 120 80 2b 00
        E 0 80 61 00
        E 0 80 62 00
        E 0 80 63 00
        E 0 80 55 00
        E 0 80 57 00
        E 120 90 28 60
        E 0 90 60 60
        E 0 90 62 60
        E 0 90 63 60
        E 0 90 54 60
        E 0 90 57 60
        E 0 90 49 60
        E 0 90 4a 60
        E 0 90 3e 60
        E 120 80 60 00
        E 0 80 62 00
        E 0 80 63 00
        E 0 80 54 00
        E 0 80 57 00
        E 0 80 49 00
        E 0 80 4a 00
        E 0 80 3e 00
        E 360 90 60 60
        E 0 90 62 60
        E 0 90 63 60
        E 0 90 54 60
        E 0 90 57 60
        E 0 90 49 60
        E 0 90 4a 60
        E 0 90 3e 60
        E 120 80 60 00
        E 0 80 62 00
        E 0 80 63 00
        E 0 80 54 00
        E 0 80 57 00
        E 0 80 49 00
        E 0 80 4a 00
        E 0 80 3e 00
        E 360 90 60 60
        E 0 90 62 60
        E 0 90 63 60
        E 0 90 54 60
        E 0 90 57 60
        E 0 90 49 60
        E 0 90 4a 60
        E 0 90 3e 60
        E 120 80 60 00
        E 0 80 62 00
        E 0 80 63 00
        E 0 80 54 00
        E 0 80 57 00
        E 0 80 49 00
        E 0 80 4a 00
        E 0 80 3e 00
        E 360 90 60 60
        E 0 90 62 60
        E 0 90 63 60
        E 0 90 54 60
        E 0 90 57 60
        E 0 90 49 60
        E 0 90 4a 60
        E 0 90 3e 60
        E 120 80 60 00
        E 0 80 62 00
        E 0 80 63 00
        E 0 80 54 00
        E 0 80 57 00
        E 0 80 49 00
        E 0 80 4a 00
        E 0 80 3e 00
        E 360 90 60 60
        E 0 90 62 60
        E 0 90 63 60
        E 0 90 54 60
        E 0 90 57 60
        E 0 90 49 60
        E 0 90 4a 60
        E 0 90 3e 60
        E 120 80 60 00
        E 0 80 62 00
        E 0 80 63 00
        E 0 80 54 00
        E 0 80 57 00
        E 0 80 49 00
        E 0 80 4a 00
        E 0 80 3e 00
        E 360 90 60 60
        E 0 90 62 60
        E 0 90 63 60
        E 0 90 54 60
        E 0 90 57 60
        E 0 90 49 60
        E 0 90 4a 60
        E 0 90 3e 60
        E 120 80 60 00
        E 0 80 62 00
        E 0 80 63 00
        E 0 80 54 00
        E 0 80 57 00
        E 0 80 49 00
        E 0 80 4a 00
        E 0 80 3e 00
        E 360 90 60 60
        E 0 90 62 60
        E 0 90 63 60
        E 0 90 54 60
        E 0 90 57 60
        E 0 90 49 60
        E 0 90 4a 60
        E 0 90 3e 60
        E 120 80 60 00
        E 0 80 62 00
        E 0 80 63 00
        E 0 80 54 00
        E 0 80 57 00
        E 0 80 49 00
        E 0 80 4a 00
        E 0 80 3e 00
        E 360 90 60 60
        E 0 90 62 60
        E 0 90 63 60
        E 0 90 54 60
        E 0 90 57 60
        E 0 90 49 60
        E 0 90 4a 60
        E 120 80 60 00
        E 0 80 62 00
        E 0 80 63 00
        E 0 80 54 00
        E 0 80 57 00
        E 0 80 49 00
        E 0 80 4a 00
        E 240 80 28 00
        E 120 90 2b 60
        E 0 90 61 60
        E 0 90 62 60
        E 0 90 63 60
        E 0 90 55 60
        E 0 90 57 60
        E 0 90 49 60
        E 0 90 4b 60
        E 0 90 3e 60
        E 120 80 49 00
        E 0 80 4b 00
        E 0 80 3e 00
        E 480 80 61 00
        E 0 80 62 00
        E 0 80 63 00
        E 0 80 55 00
        E 0 80 57 00
        E 120 90 61 60
        E 0 90 62 60
        E 0 90 63 60
        E 0 90 55 60
        E 0 90 57 60
        E 0 90 49 60
        E 0 90 4b 60
        E 120 80 61 00
        E 0 80 62 00
        E 0 80 63 00
        E 0 80 55 00
        E 0 80 57 00
        E 0 80 49 00
        E 0 80 4b 00
        E 120 90 61 60
        E 0 90 62 60
        E 0 90 63 60
        E 0 90 55 60
        E 0 90 57 60
        E 0 90 49 60
        E 0 90 4b 60
        E 0 90 3e 60
        E 120 80 61 00
        E 0 80 62 00
        E 0 80 63 00
        E 0 80 55 00
        E 0 80 57 00
        E 0 80 49 00
        E 0 80 4b 00
        E 0 80 3e 00
        E 360 90 61 60
        E 0 90 62 60
        E 0 90 63 60
        E 0 90 55 60
        E 0 90 57 60
        E 0 90 49 60
        E 0 90 4b 60
        E 0 90 3e 60
        E 120 80 61 00
        E 0 80 62 00
        E 0 80 63 00
        E 0 80 55 00
        E 0 80 57 00
        E 0 80 49 00
        E 0 80 4b 00
        E 0 80 3e 00
        E 360 90 61 60
        E 0 90 62 60
        E 0 90 63 60
        E 0 90 55 60
        E 0 90 57 60
        E 0 90 49 60
        E 0 90 4b 60
        E 0 90 3e 60
        E 120 80 61 00
        E 0 80 62 00
        E 0 80 63 00
        E 0 80 55 00
        E 0 80 57 00
        E 0 80 49 00
        E 0 80 4b 00
        E 0 80 3e 00
        E 360 90 61 60
        E 0 90 62 60
        E 0 90 63 60
        E 0 90 55 60
        E 0 90 57 60
        E 0 90 49 60
        E 0 90 4b 60
        E 0 90 3e 60
        E 120 80 61 00
        E 0 80 62 00
        E 0 80 63 00
        E 0 80 55 00
        E 0 80 57 00
        E 0 80 49 00
        E 0 80 4b 00
        E 0 80 3e 00
        E 360 90 61 60
        E 0 90 62 60
        E 0 90 63 60
        E 0 90 55 60
        E 0 90 57 60
        E 0 90 49 60
        E 0 90 4b 60
        E 0 90 3e 60
        E 120 80 61 00
        E 0 80 62 00
        E 0 80 63 00
        E 0 80 55 00
        E 0 80 57 00
        E 0 80 49 00
        E 0 80 4b 00
        E 0 80 3e 00
        E 360 90 61 60
        E 0 90 62 60
        E 0 90 63 60
        E 0 90 55 60
        E 0 90 57 60
        E 0 90 49 60
        E 0 90 4b 60
        E 120 80 61 00
        E 0 80 62 00
        E 0 80 63 00
        E 0 80 55 00
        E 0 80 57 00
        E 0 80 49 00
        E 0 80 4b 00
        E 240 80 2b 00
        E 120 90 28 60
        E 0 90 60 60
        E 0 90 62 60
        E 0 90 63 60
        E 0 90 54 60
        E 0 90 57 60
        E 0 90 49 60
        E 0 90 4a 60
        E 0 90 3e 60
        E 120 80 60 00
        E 0 80 62 00
        E 0 80 63 00
        E 0 80 54 00
        E 0 80 57 00
        E 0 80 49 00
        E 0 80 4a 00
        E 0 80 3e 00
        E 360 90 60 60
        E 0 90 62 60
        E 0 90 63 60
        E 0 90 54 60
        E 0 90 57 60
        E 0 90 49 60
        E 0 90 4a 60
        E 0 90 3e 60
        E 120 80 60 00
        E 0 80 62 00
        E 0 80 63 00
        E 0 80 54 00
        E 0 80 57 00
        E 0 80 49 00
        E 0 80 4a 00
        E 0 80 3e 00
        E 360 90 60 60
        E 0 90 62 60
        E 0 90 63 60
        E 0 90 54 60
        E 0 90 57 60
        E 0 90 49 60
        E 0 90 4a 60
        E 0 90 3e 60
        E 120 80 60 00
        E 0 80 62 00
        E 0 80 63 00
        E 0 80 54 00
        E 0 80 57 00
        E 0 80 49 00
        E 0 80 4a 00
        E 0 80 3e 00
        E 360 90 60 60
        E 0 90 62 60
        E 0 90 63 60
        E 0 90 54 60
        E 0 90 57 60
        E 0 90 49 60
        E 0 90 4a 60
        E 0 90 3e 60
        E 120 80 60 00
        E 0 80 62 00
        E 0 80 63 00
        E 0 80 54 00
        E 0 80 57 00
        E 0 80 49 00
        E 0 80 4a 00
        E 0 80 3e 00
        E 360 90 60 60
        E 0 90 62 60
        E 0 90 63 60
        E 0 90 54 60
        E 0 90 57 60
        E 0 90 49 60
        E 0 90 4a 60
        E 0 90 3e 60
        E 120 80 60 00
        E 0 80 62 00
        E 0 80 63 00
        E 0 80 54 00
        E 0 80 57 00
        E 0 80 49 00
        E 0 80 4a 00
        E 0 80 3e 00
        E 360 90 60 60
        E 0 90 62 60
        E 0 90 63 60
        E 0 90 54 60
        E 0 90 57 60
        E 0 90 49 60
        E 0 90 4a 60
        E 0 90 3e 60
        E 120 80 60 00
        E 0 80 62 00
        E 0 80 63 00
        E 0 80 54 00
        E 0 80 57 00
        E 0 80 49 00
        E 0 80 4a 00
        E 0 80 3e 00
        E 120 90 60 60
        E 0 90 62 60
        E 0 90 63 60
        E 0 90 54 60
        E 0 90 57 60
        E 0 90 49 60
        E 0 90 4a 60
        E 120 80 60 00
        E 0 80 62 00
        E 0 80 63 00
        E 0 80 54 00
        E 0 80 57 00
        E 0 80 49 00
        E 0 80 4a 00
        E 120 90 60 60
        E 0 90 62 60
        E 0 90 63 60
        E 0 90 54 60
        E 0 90 57 60
        E 0 90 49 60
        E 0 90 4a 60
        E 0 90 3e 60
        E 120 80 60 00
        E 0 80 62 00
        E 0 80 63 00
        E 0 80 54 00
        E 0 80 57 00
        E 0 80 49 00
        E 0 80 4a 00
        E 0 80 3e 00
        E 120 90 60 60
        E 0 90 62 60
        E 0 90 63 60
        E 0 90 54 60
        E 0 90 57 60
        E 0 90 49 60
        E 0 90 4a 60
        E 120 80 60 00
        E 0 80 62 00
        E 0 80 63 00
        E 0 80 54 00
        E 0 80 57 00
        E 0 80 49 00
        E 0 80 4a 00
        E 480 80 28 00
        <X 120 0
          /wFbcGxheV0=
        >
        E 0 90 32 60
        E 0 90 63 60
        E 0 90 74 60
        E 0 90 57 60
        E 0 90 4b 60
        E 0 90 3f 60
        E 120 80 4b 00
        E 0 80 3f 00
        E 240 80 63 00
        E 0 80 57 00
        E 120 90 59 60
        E 0 90 62 60
        E 0 90 65 60
        E 0 90 56 60
        E 0 90 4a 60
        E 120 80 4a 00
        E 240 80 62 00
        E 0 80 56 00
        E 120 90 61 60
        E 0 90 55 60
        E 0 90 49 60
        E 0 90 3d 60
        E 120 80 59 00
        E 0 80 65 00
        E 0 80 61 00
        E 0 80 55 00
        E 0 80 49 00
        E 0 80 3d 00
        E 360 90 63 60
        E 0 90 58 60
        E 0 90 4c 60
        E 120 80 63 00
        E 0 90 59 60
        E 0 90 64 60
        E 0 90 65 60
        E 360 80 4c 00
        E 360 80 58 00
        E 0 80 59 00
        E 0 80 64 00
        E 0 80 65 00
        E 120 90 63 60
        E 0 90 57 60
        E 0 90 4b 60
        E 120 80 63 00
        E 0 80 57 00
        E 0 80 4b 00
        E 360 90 62 60
        E 0 90 56 60
        E 0 90 4a 60
        E 0 90 3e 60
        E 480 80 4a 00
        E 0 80 3e 00
        E 360 80 32 00
        E 0 80 62 00
        E 0 80 56 00
        E 120 90 2f 60
        E 0 90 61 60
        E 0 90 55 60
        E 0 90 49 60
        E 0 90 3d 60
        E 120 80 74 00
        E 0 80 61 00
        E 0 80 55 00
        E 0 80 49 00
        E 0 80 3d 00
        E 360 90 61 60
        E 0 90 55 60
        E 0 90 49 60
        E 0 90 3d 60
        E 120 80 61 00
        E 0 80 55 00
        E 0 80 49 00
        E 0 80 3d 00
        E 360 90 61 60
        E 0 90 55 60
        E 0 90 49 60
        E 0 90 3d 60
        E 120 80 61 00
        E 0 80 55 00
        E 0 80 49 00
        E 0 80 3d 00
        E 360 90 61 60
        E 0 90 55 60
        E 0 90 49 60
        E 0 90 3d 60
        E 120 80 61 00
        E 0 80 55 00
        E 0 80 49 00
        E 0 80 3d 00
        E 360 90 61 60
        E 0 90 55 60
        E 0 90 49 60
        E 0 90 3d 60
        E 120 80 61 00
        E 0 80 55 00
        E 0 80 49 00
        E 0 80 3d 00
        E 360 90 60 60
        E 0 90 54 60
        E 0 90 48 60
        E 120 80 60 00
        E 0 80 54 00
        E 0 80 48 00
        E 120 90 61 60
        E 0 90 55 60
        E 120 80 61 00
        E 0 80 55 00
        E 120 90 62 60
        E 0 90 56 60
        E 0 90 4a 60
        E 0 90 3e 60
        E 120 80 62 00
        E 0 80 56 00
        E 0 80 4a 00
        E 0 80 3e 00
        E 120 90 60 60
        E 0 90 54 60
        E 120 80 60 00
        E 0 80 54 00
        E 120 90 61 60
        E 0 90 55 60
        E 0 90 49 60
        E 120 80 61 00
        E 0 80 55 00
        E 0 80 49 00
        E 120 90 62 60
        E 0 90 56 60
        E 120 80 2f 00
        E 0 80 62 00
        E 0 80 56 00
        E 120 90 32 60
        E 0 90 63 60
        E 0 90 57 60
        E 0 90 4b 60
        E 0 90 3f 60
        E 120 80 57 00
        E 0 80 4b 00
        E 0 80 3f 00
        E 240 80 63 00
        E 120 90 59 60
        E 0 90 62 60
        E 0 90 65 60
        E 0 90 56 60
        E 0 90 4a 60
        E 120 80 56 00
        E 0 80 4a 00
        E 240 80 62 00
        E 120 90 61 60
        E 0 90 55 60
        E 0 90 49 60
        E 0 90 3d 60
        E 120 80 59 00
        E 0 80 65 00
        E 0 80 61 00
        E 0 80 55 00
        E 0 80 49 00
        E 0 80 3d 00
        E 240 80 32 00
        E 120 90 2f 60
        E 0 90 62 60
        E 0 90 57 60
        E 0 90 4b 60
        E 120 80 62 00
        E 0 90 59 60
        E 0 90 63 60
        E 0 90 65 60
        E 480 80 4b 00
        E 120 80 57 00
        E 120 80 59 00
        E 0 80 63 00
        E 0 80 65 00
        E 120 90 62 60
        E 0 90 56 60
        E 0 90 4a 60
        E 120 80 62 00
        E 0 80 56 00
        E 0 80 4a 00
        E 360 90 61 60
        E 0 90 55 60
        E 0 90 49 60
        E 0 90 3d 60
        E 120 80 3d 00
        E 480 80 49 00
        E 120 80 55 00
        E 120 80 2f 00
        E 0 80 61 00
        E 120 90 2b 60
        E 0 90 60 60
        E 0 90 54 60
        E 0 90 48 60
        E 0 90 3c 60
        E 120 80 60 00
        E 0 80 54 00
        E 0 80 48 00
        E 0 80 3c 00
        E 360 90 60 60
        E 0 90 54 60
        E 0 90 48 60
        E 0 90 3c 60
        E 120 80 60 00
        E 0 80 54 00
        E 0 80 48 00
        E 0 80 3c 00
        E 360 90 60 60
        E 0 90 54 60
        E 0 90 48 60
        E 0 90 3c 60
        E 120 80 60 00
        E 0 80 54 00
        E 0 80 48 00
        E 0 80 3c 00
        E 360 90 60 60
        E 0 90 54 60
        E 0 90 48 60
        E 0 90 3c 60
        E 120 80 60 00
        E 0 80 54 00
        E 0 80 48 00
        E 0 80 3c 00
        E 360 90 60 60
        E 0 90 54 60
        E 0 90 48 60
        E 0 90 3c 60
        E 120 80 60 00
        E 0 80 54 00
        E 0 80 48 00
        E 0 80 3c 00
        E 240 80 2b 00
        E 120 90 2f 60
        E 0 90 60 60
        E 0 90 54 60
        E 0 90 48 60
        E 120 80 60 00
        E 0 80 54 00
        E 0 80 48 00
        E 120 90 61 60
        E 0 90 55 60
        E 120 80 61 00
        E 0 80 55 00
        E 120 90 62 60
        E 0 90 56 60
        E 0 90 4a 60
        E 0 90 3e 60
        E 120 80 62 00
        E 0 80 56 00
        E 0 80 4a 00
        E 0 80 3e 00
        E 120 90 60 60
        E 0 90 54 60
        E 120 80 60 00
        E 0 80 54 00
        E 120 90 61 60
        E 0 90 55 60
        E 0 90 49 60
        E 120 80 61 00
        E 0 80 55 00
        E 0 80 49 00
        E 120 90 62 60
        E 0 90 56 60
        E 120 80 2f 00
        E 0 80 62 00
        E 0 80 56 00
        E 120 90 32 60
        E 0 90 63 60
        E 0 90 57 60
        E 0 90 4b 60
        E 0 90 3f 60
        E 120 80 4b 00
        E 0 80 3f 00
        E 240 80 63 00
        E 0 80 57 00
        E 120 90 59 60
        E 0 90 62 60
        E 0 90 65 60
        E 0 90 56 60
        E 0 90 4a 60
        E 120 80 4a 00
        E 240 80 62 00
        E 0 80 56 00
        E 120 90 61 60
        E 0 90 55 60
        E 0 90 49 60
        E 0 90 3d 60
        E 120 80 59 00
        E 0 80 65 00
        E 0 80 61 00
        E 0 80 55 00
        E 0 80 49 00
        E 0 80 3d 00
        E 360 90 63 60
        E 0 90 58 60
        E 0 90 4c 60
        E 120 80 63 00
        E 0 90 59 60
        E 0 90 64 60
        E 0 90 65 60
        E 360 80 4c 00
        E 360 80 58 00
        E 0 80 59 00
        E 0 80 64 00
        E 0 80 65 00
        E 120 90 63 60
        E 0 90 57 60
        E 0 90 4b 60
        E 120 80 63 00
        E 0 80 57 00
        E 0 80 4b 00
        E 360 90 62 60
        E 0 90 56 60
        E 0 90 4a 60
        E 0 90 3e 60
        E 120 80 3e 00
        E 480 80 4a 00
        E 120 80 56 00
        E 120 80 32 00
        E 0 80 62 00
        E 120 90 2f 60
        E 0 90 61 60
        E 0 90 55 60
        E 0 90 49 60
        E 0 90 3d 60
        E 120 80 61 00
        E 0 80 55 00
        E 0 80 49 00
        E 0 80 3d 00
        E 360 90 61 60
        E 0 90 55 60
        E 0 90 49 60
        E 0 90 3d 60
        E 120 80 61 00
        E 0 80 55 00
        E 0 80 49 00
        E 0 80 3d 00
        E 360 90 61 60
        E 0 90 55 60
        E 0 90 49 60
        E 0 90 3d 60
        E 120 80 61 00
        E 0 80 55 00
        E 0 80 49 00
        E 0 80 3d 00
        E 360 90 61 60
        E 0 90 55 60
        E 0 90 49 60
        E 0 90 3d 60
        E 120 80 61 00
        E 0 80 55 00
        E 0 80 49 00
        E 0 80 3d 00
        E 360 90 61 60
        E 0 90 55 60
        E 0 90 49 60
        E 0 90 3d 60
        E 120 80 61 00
        E 0 80 55 00
        E 0 80 49 00
        E 0 80 3d 00
        E 360 90 60 60
        E 0 90 54 60
        E 0 90 48 60
        E 120 80 60 00
        E 0 80 54 00
        E 0 80 48 00
        E 120 90 61 60
        E 0 90 55 60
        E 120 80 61 00
        E 0 80 55 00
        E 120 90 62 60
        E 0 90 56 60
        E 0 90 4a 60
        E 0 90 3e 60
        E 120 80 62 00
        E 0 80 56 00
        E 0 80 4a 00
        E 0 80 3e 00
        E 120 90 60 60
        E 0 90 54 60
        E 120 80 60 00
        E 0 80 54 00
        E 120 90 61 60
        E 0 90 55 60
        E 0 90 49 60
        E 120 80 61 00
        E 0 80 55 00
        E 0 80 49 00
        E 120 90 62 60
        E 0 90 56 60
        E 120 80 2f 00
        E 0 80 62 00
        E 0 80 56 00
        E 120 90 32 60
        E 0 90 63 60
        E 0 90 74 60
        E 0 90 57 60
        E 0 90 4b 60
        E 0 90 3f 60
        E 120 80 4b 00
        E 0 80 3f 00
        E 240 80 63 00
        E 0 80 57 00
        E 120 90 59 60
        E 0 90 62 60
        E 0 90 65 60
        E 0 90 56 60
        E 0 90 4a 60
        E 120 80 4a 00
        E 240 80 62 00
        E 0 80 56 00
        E 120 90 61 60
        E 0 90 55 60
        E 0 90 49 60
        E 0 90 3d 60
        E 120 80 59 00
        E 0 80 65 00
        E 0 80 61 00
        E 0 80 55 00
        E 0 80 49 00
        E 0 80 3d 00
        E 240 80 32 00
        E 120 90 2f 60
        E 0 90 62 60
        E 0 90 57 60
        E 0 90 4b 60
        E 120 80 62 00
        E 0 90 59 60
        E 0 90 63 60
        E 0 90 65 60
        E 360 80 4b 00
        E 360 80 57 00
        E 0 80 59 00
        E 0 80 63 00
        E 0 80 65 00
        E 120 90 62 60
        E 0 90 56 60
        E 0 90 4a 60
        E 120 80 62 00
        E 0 80 56 00
        E 0 80 4a 00
        E 360 90 61 60
        E 0 90 55 60
        E 0 90 49 60
        E 0 90 3d 60
        E 120 80 3d 00
        E 480 80 49 00
        E 120 80 55 00
        E 120 80 2f 00
        E 0 80 61 00
        E 120 90 2b 60
        E 0 90 60 60
        E 0 90 54 60
        E 0 90 48 60
        E 0 90 3c 60
        E 120 80 74 00
        E 0 80 60 00
        E 0 80 54 00
        E 0 80 48 00
        E 0 80 3c 00
        E 360 90 60 60
        E 0 90 54 60
        E 0 90 48 60
        E 0 90 3c 60
        E 120 80 60 00
        E 0 80 54 00
        E 0 80 48 00
        E 0 80 3c 00
        E 360 90 60 60
        E 0 90 54 60
        E 0 90 48 60
        E 0 90 3c 60
        E 120 80 60 00
        E 0 80 54 00
        E 0 80 48 00
        E 0 80 3c 00
        E 360 90 60 60
        E 0 90 54 60
        E 0 90 48 60
        E 0 90 3c 60
        E 120 80 60 00
        E 0 80 54 00
        E 0 80 48 00
        E 0 80 3c 00
        E 360 90 60 60
        E 0 90 54 60
        E 0 90 48 60
        E 0 90 3c 60
        <X 960 0
          /wFbbWVsbG93XQ==
        >
        E 0 80 60 00
        E 0 80 54 00
        E 0 80 48 00
        E 0 80 3c 00
        E 840 80 2b 00
        E 120 90 2d 60
        E 0 90 61 60
        E 0 90 55 60
        E 0 90 49 60
        E 0 90 3d 60
        E 120 80 61 00
        E 0 80 55 00
        E 0 80 49 00
        E 0 80 3d 00
        E 120 90 59 60
        E 0 90 62 60
        E 0 90 65 60
        E 0 90 56 60
        E 120 80 62 00
        E 0 80 56 00
        E 120 90 61 60
        E 0 90 55 60
        E 0 90 49 60
        E 0 90 3d 60
        E 3360 80 49 00
        E 0 80 3d 00
        E 240 80 59 00
        E 0 80 65 00
        E 0 80 61 00
        E 0 80 55 00
        E 120 80 2d 00
        <X 120 0
          /wFbaW50ZW5zZV0=
        >
        E 0 90 2b 60
        E 0 90 61 60
        E 0 90 62 60
        E 0 90 63 60
        E 0 90 55 60
        E 0 90 57 60
        E 0 90 49 60
        E 0 90 4b 60
        E 0 90 3e 60
        E 120 80 49 00
        E 0 80 4b 00
        E 0 80 3e 00
        E 480 80 61 00
        E 0 80 62 00
        E 0 80 63 00
        E 0 80 55 00
        E 0 80 57 00
        E 120 90 61 60
        E 0 90 62 60
        E 0 90 63 60
        E 0 90 55 60
        E 0 90 57 60
        E 0 90 49 60
        E 0 90 4b 60
        E 120 80 61 00
        E 0 80 62 00
        E 0 80 63 00
        E 0 80 55 00
        E 0 80 57 00
        E 0 80 49 00
        E 0 80 4b 00
        E 120 90 61 60
        E 0 90 62 60
        E 0 90 63 60
        E 0 90 55 60
        E 0 90 57 60
        E 0 90 49 60
        E 0 90 4b 60
        E 0 90 3e 60
        E 120 80 61 00
        E 0 80 62 00
        E 0 80 63 00
        E 0 80 55 00
        E 0 80 57 00
        E 0 80 49 00
        E 0 80 4b 00
        E 0 80 3e 00
        E 360 90 61 60
        E 0 90 62 60
        E 0 90 63 60
        E 0 90 55 60
        E 0 90 57 60
        E 0 90 49 60
        E 0 90 4b 60
        E 0 90 3e 60
        E 120 80 61 00
        E 0 80 62 00
        E 0 80 63 00
        E 0 80 55 00
        E 0 80 57 00
        E 0 80 49 00
        E 0 80 4b 00
        E 0 80 3e 00
        E 360 90 61 60
        E 0 90 62 60
        E 0 90 63 60
        E 0 90 55 60
        E 0 90 57 60
        E 0 90 49 60
        E 0 90 4b 60
        E 0 90 3e 60
        E 120 80 61 00
        E 0 80 62 00
        E 0 80 63 00
        E 0 80 55 00
        E 0 80 57 00
        E 0 80 49 00
        E 0 80 4b 00
        E 0 80 3e 00
        E 120 90 61 60
        E 0 90 62 60
        E 0 90 63 60
        E 0 90 55 60
        E 0 90 57 60
        E 0 90 49 60
        E 0 90 4b 60
        E 120 80 61 00
        E 0 80 62 00
        E 0 80 63 00
        E 0 80 55 00
        E 0 80 57 00
        E 0 80 49 00
        E 0 80 4b 00
        E 120 90 61 60
        E 0 90 62 60
        E 0 90 63 60
        E 0 90 55 60
        E 0 90 57 60
        E 0 90 49 60
        E 0 90 4b 60
        E 0 90 3e 60
        E 120 80 61 00
        E 0 80 62 00
        E 0 80 63 00
        E 0 80 55 00
        E 0 80 57 00
        E 0 80 49 00
        E 0 80 4b 00
        E 0 80 3e 00
        E 120 90 61 60
        E 0 90 62 60
        E 0 90 63 60
        E 0 90 55 60
        E 0 90 57 60
        E 0 90 49 60
        E 0 90 4b 60
        E 120 80 61 00
        E 0 80 62 00
        E 0 80 63 00
        E 0 80 55 00
        E 0 80 57 00
        E 0 80 49 00
        E 0 80 4b 00
        E 120 90 61 60
        E 0 90 62 60
        E 0 90 63 60
        E 0 90 55 60
        E 0 90 57 60
        E 0 90 49 60
        E 0 90 4b 60
        E 0 90 3e 60
        E 120 80 61 00
        E 0 80 62 00
        E 0 80 63 00
        E 0 80 55 00
        E 0 80 57 00
        E 0 80 49 00
        E 0 80 4b 00
        E 0 80 3e 00
        E 120 90 61 60
        E 0 90 62 60
        E 0 90 63 60
        E 0 90 55 60
        E 0 90 57 60
        E 0 90 49 60
        E 0 90 4b 60
        E 120 80 61 00
        E 0 80 62 00
        E 0 80 63 00
        E 0 80 55 00
        E 0 80 57 00
        E 0 80 49 00
        E 0 80 4b 00
        E 120 90 61 60
        E 0 90 62 60
        E 0 90 63 60
        E 0 90 55 60
        E 0 90 57 60
        E 0 90 49 60
        E 0 90 4b 60
        E 0 90 3e 60
        E 120 80 61 00
        E 0 80 62 00
        E 0 80 63 00
        E 0 80 55 00
        E 0 80 57 00
        E 0 80 49 00
        E 0 80 4b 00
        E 0 80 3e 00
        E 120 90 61 60
        E 0 90 62 60
        E 0 90 63 60
        E 0 90 55 60
        E 0 90 57 60
        E 120 80 2b 00
        E 0 80 61 00
        E 0 80 62 00
        E 0 80 63 00
        E 0 80 55 00
        E 0 80 57 00
        E 120 90 28 60
        E 0 90 60 60
        E 0 90 62 60
        E 0 90 63 60
        E 0 90 54 60
        E 0 90 57 60
        E 0 90 49 60
        E 0 90 4a 60
        E 0 90 3e 60
        E 120 80 60 00
        E 0 80 62 00
        E 0 80 63 00
        E 0 80 54 00
        E 0 80 57 00
        E 0 80 49 00
        E 0 80 4a 00
        E 0 80 3e 00
        E 360 90 60 60
        E 0 90 62 60
        E 0 90 63 60
        E 0 90 54 60
        E 0 90 57 60
        E 0 90 49 60
        E 0 90 4a 60
        E 0 90 3e 60
        E 120 80 60 00
        E 0 80 62 00
        E 0 80 63 00
        E 0 80 54 00
        E 0 80 57 00
        E 0 80 49 00
        E 0 80 4a 00
        E 0 80 3e 00
        E 360 90 60 60
        E 0 90 62 60
        E 0 90 63 60
        E 0 90 54 60
        E 0 90 57 60
        E 0 90 49 60
        E 0 90 4a 60
        E 0 90 3e 60
        E 120 80 60 00
        E 0 80 62 00
        E 0 80 63 00
        E 0 80 54 00
        E 0 80 57 00
        E 0 80 49 00
        E 0 80 4a 00
        E 0 80 3e 00
        E 360 90 60 60
        E 0 90 62 60
        E 0 90 63 60
        E 0 90 54 60
        E 0 90 57 60
        E 0 90 49 60
        E 0 90 4a 60
        E 0 90 3e 60
        E 120 80 60 00
        E 0 80 62 00
        E 0 80 63 00
        E 0 80 54 00
        E 0 80 57 00
        E 0 80 49 00
        E 0 80 4a 00
        E 0 80 3e 00
        E 360 90 60 60
        E 0 90 62 60
        E 0 90 63 60
        E 0 90 54 60
        E 0 90 57 60
        E 0 90 49 60
        E 0 90 4a 60
        E 0 90 3e 60
        E 120 80 60 00
        E 0 80 62 00
        E 0 80 63 00
        E 0 80 54 00
        E 0 80 57 00
        E 0 80 49 00
        E 0 80 4a 00
        E 0 80 3e 00
        E 360 90 60 60
        E 0 90 62 60
        E 0 90 63 60
        E 0 90 54 60
        E 0 90 57 60
        E 0 90 49 60
        E 0 90 4a 60
        E 0 90 3e 60
        E 120 80 60 00
        E 0 80 62 00
        E 0 80 63 00
        E 0 80 54 00
        E 0 80 57 00
        E 0 80 49 00
        E 0 80 4a 00
        E 0 80 3e 00
        E 360 90 60 60
        E 0 90 62 60
        E 0 90 63 60
        E 0 90 54 60
        E 0 90 57 60
        E 0 90 49 60
        E 0 90 4a 60
        E 0 90 3e 60
        E 120 80 60 00
        E 0 80 62 00
        E 0 80 63 00
        E 0 80 54 00
        E 0 80 57 00
        E 0 80 49 00
        E 0 80 4a 00
        E 0 80 3e 00
        E 360 90 60 60
        E 0 90 62 60
        E 0 90 63 60
        E 0 90 54 60
        E 0 90 57 60
        E 0 90 49 60
        E 0 90 4a 60
        E 0 90 3e 60
        E 120 80 60 00
        E 0 80 62 00
        E 0 80 63 00
        E 0 80 54 00
        E 0 80 57 00
        E 0 80 49 00
        E 0 80 4a 00
        E 0 80 3e 00
        E 240 80 28 00
        E 120 90 2b 60
        E 0 90 61 60
        E 0 90 62 60
        E 0 90 63 60
        E 0 90 55 60
        E 0 90 57 60
        E 0 90 49 60
        E 0 90 4b 60
        E 0 90 3e 60
        E 120 80 55 00
        E 0 80 57 00
        E 0 80 49 00
        E 0 80 4b 00
        E 0 80 3e 00
        E 480 80 61 00
        E 0 80 62 00
        E 0 80 63 00
        E 120 90 61 60
        E 0 90 62 60
        E 0 90 63 60
        E 0 90 55 60
        E 0 90 57 60
        E 0 90 49 60
        E 0 90 4b 60
        E 120 80 61 00
        E 0 80 62 00
        E 0 80 63 00
        E 0 80 55 00
        E 0 80 57 00
        E 0 80 49 00
        E 0 80 4b 00
        E 120 90 61 60
        E 0 90 62 60
        E 0 90 63 60
        E 0 90 55 60
        E 0 90 57 60
        E 0 90 49 60
        E 0 90 4b 60
        E 0 90 3e 60
        E 120 80 61 00
        E 0 80 62 00
        E 0 80 63 00
        E 0 80 55 00
        E 0 80 57 00
        E 0 80 49 00
        E 0 80 4b 00
        E 0 80 3e 00
        E 360 90 61 60
        E 0 90 62 60
        E 0 90 63 60
        E 0 90 55 60
        E 0 90 57 60
        E 0 90 49 60
        E 0 90 4b 60
        E 0 90 3e 60
        E 120 80 61 00
        E 0 80 62 00
        E 0 80 63 00
        E 0 80 55 00
        E 0 80 57 00
        E 0 80 49 00
        E 0 80 4b 00
        E 0 80 3e 00
        E 360 90 61 60
        E 0 90 62 60
        E 0 90 63 60
        E 0 90 55 60
        E 0 90 57 60
        E 0 90 49 60
        E 0 90 4b 60
        E 0 90 3e 60
        E 120 80 61 00
        E 0 80 62 00
        E 0 80 63 00
        E 0 80 55 00
        E 0 80 57 00
        E 0 80 49 00
        E 0 80 4b 00
        E 0 80 3e 00
        E 360 90 61 60
        E 0 90 62 60
        E 0 90 63 60
        E 0 90 55 60
        E 0 90 57 60
        E 0 90 49 60
        E 0 90 4b 60
        E 0 90 3e 60
        E 120 80 61 00
        E 0 80 62 00
        E 0 80 63 00
        E 0 80 55 00
        E 0 80 57 00
        E 0 80 49 00
        E 0 80 4b 00
        E 0 80 3e 00
        E 360 90 61 60
        E 0 90 62 60
        E 0 90 63 60
        E 0 90 55 60
        E 0 90 57 60
        E 0 90 49 60
        E 0 90 4b 60
        E 0 90 3e 60
        E 120 80 61 00
        E 0 80 62 00
        E 0 80 63 00
        E 0 80 55 00
        E 0 80 57 00
        E 0 80 49 00
        E 0 80 4b 00
        E 0 80 3e 00
        E 360 90 61 60
        E 0 90 62 60
        E 0 90 63 60
        E 0 90 55 60
        E 0 90 57 60
        E 0 90 49 60
        E 0 90 4b 60
        E 0 90 3e 60
        E 120 80 61 00
        E 0 80 62 00
        E 0 80 63 00
        E 0 80 55 00
        E 0 80 57 00
        E 0 80 49 00
        E 0 80 4b 00
        E 0 80 3e 00
        E 240 80 2b 00
        E 120 90 28 60
        E 0 90 60 60
        E 0 90 62 60
        E 0 90 63 60
        E 0 90 54 60
        E 0 90 57 60
        E 0 90 49 60
        E 0 90 4a 60
        E 0 90 3e 60
        E 120 80 60 00
        E 0 80 62 00
        E 0 80 63 00
        E 0 80 54 00
        E 0 80 57 00
        E 0 80 49 00
        E 0 80 4a 00
        E 0 80 3e 00
        E 360 90 60 60
        E 0 90 62 60
        E 0 90 63 60
        E 0 90 54 60
        E 0 90 57 60
        E 0 90 49 60
        E 0 90 4a 60
        E 0 90 3e 60
        E 120 80 60 00
        E 0 80 62 00
        E 0 80 63 00
        E 0 80 54 00
        E 0 80 57 00
        E 0 80 49 00
        E 0 80 4a 00
        E 0 80 3e 00
        E 360 90 60 60
        E 0 90 62 60
        E 0 90 63 60
        E 0 90 54 60
        E 0 90 57 60
        E 0 90 49 60
        E 0 90 4a 60
        E 0 90 3e 60
        E 120 80 60 00
        E 0 80 62 00
        E 0 80 63 00
        E 0 80 54 00
        E 0 80 57 00
        E 0 80 49 00
        E 0 80 4a 00
        E 0 80 3e 00
        E 360 90 60 60
        E 0 90 62 60
        E 0 90 63 60
        E 0 90 54 60
        E 0 90 57 60
        E 0 90 49 60
        E 0 90 4a 60
        E 0 90 3e 60
        E 120 80 60 00
        E 0 80 62 00
        E 0 80 63 00
        E 0 80 54 00
        E 0 80 57 00
        E 0 80 49 00
        E 0 80 4a 00
        E 0 80 3e 00
        E 360 90 60 60
        E 0 90 62 60
        E 0 90 63 60
        E 0 90 54 60
        E 0 90 57 60
        E 0 90 49 60
        E 0 90 4a 60
        E 0 90 3e 60
        E 120 80 60 00
        E 0 80 62 00
        E 0 80 63 00
        E 0 80 54 00
        E 0 80 57 00
        E 0 80 49 00
        E 0 80 4a 00
        E 0 80 3e 00
        E 360 90 60 60
        E 0 90 62 60
        E 0 90 63 60
        E 0 90 54 60
        E 0 90 57 60
        E 0 90 49 60
        E 0 90 4a 60
        E 0 90 3e 60
        E 120 80 60 00
        E 0 80 62 00
        E 0 80 63 00
        E 0 80 54 00
        E 0 80 57 00
        E 0 80 49 00
        E 0 80 4a 00
        E 0 80 3e 00
        E 120 90 60 60
        E 0 90 62 60
        E 0 90 63 60
        E 0 90 54 60
        E 0 90 57 60
        E 0 90 49 60
        E 0 90 4a 60
        E 120 80 60 00
        E 0 80 62 00
        E 0 80 63 00
        E 0 80 54 00
        E 0 80 57 00
        E 0 80 49 00
        E 0 80 4a 00
        E 120 90 60 60
        E 0 90 62 60
        E 0 90 63 60
        E 0 90 54 60
        E 0 90 57 60
        E 0 90 49 60
        E 0 90 4a 60
        E 0 90 3e 60
        E 120 80 60 00
        E 0 80 62 00
        E 0 80 63 00
        E 0 80 54 00
        E 0 80 57 00
        E 0 80 49 00
        E 0 80 4a 00
        E 0 80 3e 00
        E 120 90 60 60
        E 0 90 62 60
        E 0 90 63 60
        E 0 90 54 60
        E 0 90 57 60
        E 0 90 49 60
        E 0 90 4a 60
        E 120 80 60 00
        E 0 80 62 00
        E 0 80 63 00
        E 0 80 54 00
        E 0 80 57 00
        E 0 80 49 00
        E 0 80 4a 00
        E 480 80 28 00
        E 120 90 2f 60
        E 0 90 64 60
        E 0 90 58 60
        E 0 90 4c 60
        E 0 90 40 60
        E 120 80 4c 00
        E 0 80 40 00
        E 240 80 64 00
        E 0 80 58 00
        E 120 90 64 60
        E 0 90 58 60
        E 0 90 4c 60
        E 0 90 40 60
        E 120 80 64 00
        E 0 80 58 00
        E 0 80 4c 00
        E 0 80 40 00
        E 120 90 63 60
        E 0 90 57 60
        E 120 80 63 00
        E 0 80 57 00
        E 120 90 64 60
        E 0 90 58 60
        E 0 90 4c 60
        E 0 90 40 60
        E 120 80 64 00
        E 0 80 58 00
        E 0 80 4c 00
        E 0 80 40 00
        E 120 90 63 60
        E 0 90 57 60
        E 120 80 63 00
        E 0 80 57 00
        E 120 90 62 60
        E 0 90 56 60
        E 0 90 4a 60
        E 120 80 62 00
        E 0 80 56 00
        E 0 80 4a 00
        E 240 80 2f 00
        E 120 90 2b 60
        E 0 90 61 60
        E 0 90 56 60
        E 0 90 4a 60
        E 0 90 3e 60
        E 120 80 61 00
        E 0 80 56 00
        E 0 80 4a 00
        E 0 90 59 60
        E 0 90 62 60
        E 0 90 65 60
        E 0 80 3e 00
        E 480 80 59 00
        E 0 80 62 00
        E 0 80 65 00
        E 120 90 60 60
        E 0 90 54 60
        E 120 80 60 00
        E 0 80 54 00
        E 120 90 61 60
        E 0 90 55 60
        E 0 90 49 60
        E 0 90 3d 60
        E 120 80 61 00
        E 0 80 55 00
        E 0 80 49 00
        E 0 80 3d 00
        E 120 90 60 60
        E 0 90 54 60
        E 120 80 60 00
        E 0 80 54 00
        E 120 90 63 60
        E 0 90 57 60
        E 0 90 4b 60
        E 120 80 63 00
        E 0 80 57 00
        E 0 80 4b 00
        E 360 90 62 60
        E 0 90 56 60
        E 0 90 4a 60
        E 0 90 3e 60
        E 2880 80 62 00
        E 0 80 56 00
        E 0 80 4a 00
        E 0 80 3e 00
        E 840 80 2b 00
        E 120 90 2f 60
        E 0 90 64 60
        E 0 90 58 60
        E 0 90 4c 60
        E 0 90 40 60
        E 120 80 4c 00
        E 0 80 40 00
        E 240 80 64 00
        E 0 80 58 00
        E 120 90 64 60
        E 0 90 58 60
        E 0 90 4c 60
        E 0 90 40 60
        E 120 80 64 00
        E 0 80 58 00
        E 0 80 4c 00
        E 0 80 40 00
        E 120 90 63 60
        E 0 90 57 60
        E 120 80 63 00
        E 0 80 57 00
        E 120 90 64 60
        E 0 90 58 60
        E 0 90 4c 60
        E 0 90 40 60
        E 120 80 64 00
        E 0 80 58 00
        E 0 80 4c 00
        E 0 80 40 00
        E 120 90 63 60
        E 0 90 57 60
        E 120 80 63 00
        E 0 80 57 00
        E 120 90 62 60
        E 0 90 56 60
        E 0 90 4a 60
        E 120 80 62 00
        E 0 80 56 00
        E 0 80 4a 00
        E 240 80 2f 00
        E 120 90 2b 60
        E 0 90 61 60
        E 0 90 74 60
        E 0 90 56 60
        E 0 90 4a 60
        E 0 90 3e 60
        E 120 80 61 00
        E 0 80 56 00
        E 0 80 4a 00
        E 0 90 59 60
        E 0 90 62 60
        E 0 90 65 60
        E 0 80 3e 00
        E 480 80 59 00
        E 0 80 62 00
        E 0 80 65 00
        E 120 90 60 60
        E 0 90 54 60
        E 120 80 60 00
        E 0 80 54 00
        E 120 90 61 60
        E 0 90 55 60
        E 0 90 49 60
        E 0 90 3d 60
        E 120 80 61 00
        E 0 80 55 00
        E 0 80 49 00
        E 0 80 3d 00
        E 120 90 60 60
        E 0 90 54 60
        E 120 80 60 00
        E 0 80 54 00
        E 120 90 63 60
        E 0 90 57 60
        E 0 90 4b 60
        E 120 80 63 00
        E 0 80 57 00
        E 0 80 4b 00
        E 240 80 2b 00
        E 120 90 28 60
        E 0 90 62 60
        E 0 90 56 60
        E 0 90 4a 60
        E 0 90 3e 60
        E 120 80 56 00
        E 0 80 4a 00
        E 0 80 3e 00
        E 480 80 62 00
        E 120 90 62 60
        E 0 90 56 60
        E 120 80 28 00
        E 0 80 62 00
        E 0 80 56 00
        E 120 90 2f 60
        E 0 90 61 60
        E 0 90 55 60
        E 0 90 49 60
        E 0 90 3d 60
        E 120 80 61 00
        E 0 80 55 00
        E 0 80 49 00
        E 0 80 3d 00
        E 120 90 62 60
        E 0 90 56 60
        E 120 80 62 00
        E 0 80 56 00
        E 120 80 74 00
        E 2280 80 2f 00
        E 120 90 2b 60
        E 0 90 60 64
        E 0 90 54 64
        E 0 90 48 64
        E 0 90 3c 64
        E 120 80 48 00
        E 0 80 3c 00
        E 480 80 60 00
        E 0 80 54 00
        E 120 90 60 64
        E 0 90 54 64
        E 0 90 48 64
        E 120 80 60 00
        E 0 80 54 00
        E 0 80 48 00
        E 120 90 60 64
        E 0 90 54 64
        E 0 90 48 64
        E 0 90 3c 64
        E 120 80 60 00
        E 0 80 54 00
        E 0 80 48 00
        E 0 80 3c 00
        E 360 90 63 64
        E 0 90 58 64
        E 0 90 4c 64
        E 120 80 63 00
        E 0 90 59 64
        E 0 90 64 64
        E 0 90 65 64
        E 360 80 4c 00
        E 360 80 58 00
        E 0 80 59 00
        E 0 80 64 00
        E 0 80 65 00
        E 120 90 63 64
        E 0 90 57 64
        E 0 90 4b 64
        E 0 90 3f 64
        E 120 80 63 00
        E 0 80 57 00
        E 0 80 4b 00
        E 0 80 3f 00
        E 360 90 62 64
        E 0 90 56 64
        E 0 90 4a 64
        E 0 90 3e 64
        E 120 80 4a 00
        E 0 80 3e 00
        E 240 80 62 00
        E 0 80 56 00
        E 120 90 61 64
        E 0 90 55 64
        E 0 90 49 64
        E 120 80 61 00
        E 0 80 55 00
        E 0 80 49 00
        E 360 90 61 64
        E 0 90 55 64
        E 0 90 49 64
        E 0 90 3d 64
        E 120 80 61 00
        E 0 80 55 00
        E 0 80 49 00
        E 0 80 3d 00
        E 360 90 61 64
        E 0 90 55 64
        E 0 90 49 64
        E 0 90 3d 64
        E 120 80 61 00
        E 0 80 55 00
        E 0 80 49 00
        E 0 80 3d 00
        E 360 90 61 64
        E 0 90 55 64
        E 0 90 49 64
        E 0 90 3d 64
        E 120 80 61 00
        E 0 80 55 00
        E 0 80 49 00
        E 0 80 3d 00
        E 360 90 61 64
        E 0 90 55 64
        E 0 90 49 64
        E 0 90 3d 64
        E 120 80 61 00
        E 0 80 55 00
        E 0 80 49 00
        E 0 80 3d 00
        E 360 90 61 64
        E 0 90 55 64
        E 0 90 49 64
        E 0 90 3d 64
        E 120 80 61 00
        E 0 80 55 00
        E 0 80 49 00
        E 0 80 3d 00
        E 360 90 61 64
        E 0 90 55 64
        E 0 90 49 64
        E 0 90 3d 64
        E 120 80 55 00
        E 0 80 49 00
        E 0 80 3d 00
        E 480 80 61 00
        E 120 90 61 64
        E 0 90 55 64
        E 0 90 49 64
        E 120 80 61 00
        E 0 80 55 00
        E 0 80 49 00
        E 600 90 60 64
        E 0 90 54 64
        E 0 90 48 64
        E 0 90 3c 64
        E 120 80 54 00
        E 0 80 48 00
        E 0 80 3c 00
        E 480 80 60 00
        E 120 90 60 64
        E 0 90 54 64
        E 0 90 48 64
        E 120 80 60 00
        E 0 80 54 00
        E 0 80 48 00
        E 120 90 60 64
        E 0 90 54 64
        E 0 90 48 64
        E 0 90 3c 64
        E 120 80 60 00
        E 0 80 54 00
        E 0 80 48 00
        E 0 80 3c 00
        E 360 90 63 64
        E 0 90 58 64
        E 0 90 4c 64
        E 120 80 63 00
        E 0 90 59 64
        E 0 90 64 64
        E 0 90 65 64
        E 480 80 4c 00
        E 120 80 58 00
        E 120 80 59 00
        E 0 80 64 00
        E 0 80 65 00
        E 120 90 62 64
        E 0 90 56 64
        E 0 90 4a 64
        E 0 90 3e 64
        E 120 80 62 00
        E 0 80 56 00
        E 0 80 4a 00
        E 0 80 3e 00
        E 360 90 61 64
        E 0 90 55 64
        E 0 90 49 64
        E 0 90 3d 64
        E 120 80 55 00
        E 0 80 49 00
        E 0 80 3d 00
        E 480 80 61 00
        E 120 90 59 64
        E 0 90 60 64
        E 0 90 65 64
        E 0 90 54 64
        E 0 90 48 64
        E 120 80 2b 00
        E 0 80 59 00
        E 0 80 60 00
        E 0 80 65 00
        E 0 80 54 00
        E 0 80 48 00
        E 120 90 28 60
        E 0 90 60 64
        E 0 90 54 64
        E 0 90 48 64
        E 0 90 3c 64
        E 120 80 54 00
        E 0 80 48 00
        E 0 80 3c 00
        E 480 80 28 00
        E 0 80 60 00
        E 120 90 32 60
        E 0 90 64 64
        E 0 90 58 64
        E 0 90 4c 64
        E 120 80 64 00
        E 0 80 58 00
        E 0 80 4c 00
        E 120 90 64 64
        E 0 90 58 64
        E 0 90 4c 64
        E 0 90 40 64
        E 120 80 64 00
        E 0 80 58 00
        E 0 80 4c 00
        E 0 80 40 00
        E 120 90 63 64
        E 0 90 57 64
        E 120 80 63 00
        E 0 80 57 00
        E 120 90 63 64
        E 0 90 57 64
        E 0 90 4b 64
        E 120 80 32 00
        E 0 80 63 00
        E 0 80 57 00
        E 0 80 4b 00
        E 120 90 2f 60
        E 0 90 62 64
        E 0 90 56 64
        E 120 80 62 00
        E 0 80 56 00
        E 120 90 62 64
        E 0 90 56 64
        E 0 90 4a 64
        E 0 90 3e 64
        E 960 80 62 00
        E 0 80 56 00
        E 0 80 4a 00
        E 0 80 3e 00
        E 840 80 2f 00
        E 120 90 2b 60
        E 0 90 61 60
        E 0 90 62 60
        E 0 90 63 60
        E 0 90 55 60
        E 0 90 57 60
        E 0 90 49 60
        E 0 90 4b 60
        E 0 90 3e 60
        E 120 80 49 00
        E 0 80 4b 00
        E 0 80 3e 00
        E 480 80 61 00
        E 0 80 62 00
        E 0 80 63 00
        E 0 80 55 00
        E 0 80 57 00
        E 120 90 61 60
        E 0 90 62 60
        E 0 90 63 60
        E 0 90 55 60
        E 0 90 57 60
        E 0 90 49 60
        E 0 90 4b 60
        E 120 80 61 00
        E 0 80 62 00
        E 0 80 63 00
        E 0 80 55 00
        E 0 80 57 00
        E 0 80 49 00
        E 0 80 4b 00
        E 120 90 61 60
        E 0 90 62 60
        E 0 90 63 60
        E 0 90 55 60
        E 0 90 57 60
        E 0 90 49 60
        E 0 90 4b 60
        E 0 90 3e 60
        E 120 80 61 00
        E 0 80 62 00
        E 0 80 63 00
        E 0 80 55 00
        E 0 80 57 00
        E 0 80 49 00
        E 0 80 4b 00
        E 0 80 3e 00
        E 360 90 61 60
        E 0 90 62 60
        E 0 90 63 60
        E 0 90 55 60
        E 0 90 57 60
        E 0 90 49 60
        E 0 90 4b 60
        E 0 90 3e 60
        E 120 80 61 00
        E 0 80 62 00
        E 0 80 63 00
        E 0 80 55 00
        E 0 80 57 00
        E 0 80 49 00
        E 0 80 4b 00
        E 0 80 3e 00
        E 360 90 61 60
        E 0 90 62 60
        E 0 90 63 60
        E 0 90 55 60
        E 0 90 57 60
        E 0 90 49 60
        E 0 90 4b 60
        E 0 90 3e 60
        E 120 80 61 00
        E 0 80 62 00
        E 0 80 63 00
        E 0 80 55 00
        E 0 80 57 00
        E 0 80 49 00
        E 0 80 4b 00
        E 0 80 3e 00
        E 120 90 61 60
        E 0 90 62 60
        E 0 90 63 60
        E 0 90 55 60
        E 0 90 57 60
        E 0 90 49 60
        E 0 90 4b 60
        E 120 80 61 00
        E 0 80 62 00
        E 0 80 63 00
        E 0 80 55 00
        E 0 80 57 00
        E 0 80 49 00
        E 0 80 4b 00
        E 120 90 61 60
        E 0 90 62 60
        E 0 90 63 60
        E 0 90 55 60
        E 0 90 57 60
        E 0 90 49 60
        E 0 90 4b 60
        E 0 90 3e 60
        E 120 80 61 00
        E 0 80 62 00
        E 0 80 63 00
        E 0 80 55 00
        E 0 80 57 00
        E 0 80 49 00
        E 0 80 4b 00
        E 0 80 3e 00
        E 120 90 61 60
        E 0 90 62 60
        E 0 90 63 60
        E 0 90 55 60
        E 0 90 57 60
        E 0 90 49 60
        E 0 90 4b 60
        E 120 80 61 00
        E 0 80 62 00
        E 0 80 63 00
        E 0 80 55 00
        E 0 80 57 00
        E 0 80 49 00
        E 0 80 4b 00
        E 120 90 61 60
        E 0 90 62 60
        E 0 90 63 60
        E 0 90 55 60
        E 0 90 57 60
        E 0 90 49 60
        E 0 90 4b 60
        E 0 90 3e 60
        E 120 80 61 00
        E 0 80 62 00
        E 0 80 63 00
        E 0 80 55 00
        E 0 80 57 00
        E 0 80 49 00
        E 0 80 4b 00
        E 0 80 3e 00
        E 120 90 61 60
        E 0 90 62 60
        E 0 90 63 60
        E 0 90 55 60
        E 0 90 57 60
        E 0 90 49 60
        E 0 90 4b 60
        E 120 80 61 00
        E 0 80 62 00
        E 0 80 63 00
        E 0 80 55 00
        E 0 80 57 00
        E 0 80 49 00
        E 0 80 4b 00
        E 120 90 61 60
        E 0 90 62 60
        E 0 90 63 60
        E 0 90 55 60
        E 0 90 57 60
        E 0 90 49 60
        E 0 90 4b 60
        E 0 90 3e 60
        E 120 80 61 00
        E 0 80 62 00
        E 0 80 63 00
        E 0 80 55 00
        E 0 80 57 00
        E 0 80 49 00
        E 0 80 4b 00
        E 0 80 3e 00
        E 120 90 61 60
        E 0 90 62 60
        E 0 90 63 60
        E 0 90 55 60
        E 0 90 57 60
        E 120 80 2b 00
        E 0 80 61 00
        E 0 80 62 00
        E 0 80 63 00
        E 0 80 55 00
        E 0 80 57 00
        E 120 90 28 60
        E 0 90 60 60
        E 0 90 62 60
        E 0 90 63 60
        E 0 90 54 60
        E 0 90 57 60
        E 0 90 49 60
        E 0 90 4a 60
        E 0 90 3e 60
        E 120 80 60 00
        E 0 80 62 00
        E 0 80 63 00
        E 0 80 54 00
        E 0 80 57 00
        E 0 80 49 00
        E 0 80 4a 00
        E 0 80 3e 00
        E 360 90 60 60
        E 0 90 62 60
        E 0 90 63 60
        E 0 90 54 60
        E 0 90 57 60
        E 0 90 49 60
        E 0 90 4a 60
        E 0 90 3e 60
        E 120 80 60 00
        E 0 80 62 00
        E 0 80 63 00
        E 0 80 54 00
        E 0 80 57 00
        E 0 80 49 00
        E 0 80 4a 00
        E 0 80 3e 00
        E 360 90 60 60
        E 0 90 62 60
        E 0 90 63 60
        E 0 90 54 60
        E 0 90 57 60
        E 0 90 49 60
        E 0 90 4a 60
        E 0 90 3e 60
        E 120 80 60 00
        E 0 80 62 00
        E 0 80 63 00
        E 0 80 54 00
        E 0 80 57 00
        E 0 80 49 00
        E 0 80 4a 00
        E 0 80 3e 00
        E 360 90 60 60
        E 0 90 62 60
        E 0 90 63 60
        E 0 90 54 60
        E 0 90 57 60
        E 0 90 49 60
        E 0 90 4a 60
        E 0 90 3e 60
        E 120 80 60 00
        E 0 80 62 00
        E 0 80 63 00
        E 0 80 54 00
        E 0 80 57 00
        E 0 80 49 00
        E 0 80 4a 00
        E 0 80 3e 00
        E 360 90 60 60
        E 0 90 62 60
        E 0 90 63 60
        E 0 90 54 60
        E 0 90 57 60
        E 0 90 49 60
        E 0 90 4a 60
        E 0 90 3e 60
        E 120 80 28 00
        E 0 80 60 00
        E 0 80 62 00
        E 0 80 63 00
        E 0 80 54 00
        E 0 80 57 00
        E 0 80 49 00
        E 0 80 4a 00
        E 0 80 3e 00
        E 360 90 2f 60
        E 0 90 60 6a
        E 0 90 54 6a
        E 0 90 48 6a
        E 120 80 60 00
        E 0 80 54 00
        E 0 80 48 00
        E 120 90 61 60
        E 0 90 55 60
        E 120 80 61 00
        E 0 80 55 00
        E 120 90 62 60
        E 0 90 56 60
        E 0 90 4a 60
        E 0 90 3e 60
        E 120 80 62 00
        E 0 80 56 00
        E 0 80 4a 00
        E 0 80 3e 00
        E 120 90 60 60
        E 0 90 54 60
        E 120 80 60 00
        E 0 80 54 00
        E 120 90 61 60
        E 0 90 55 60
        E 0 90 49 60
        E 120 80 61 00
        E 0 80 55 00
        E 0 80 49 00
        E 120 90 62 60
        E 0 90 56 60
        E 120 80 62 00
        E 0 80 56 00
        E 120 90 63 60
        E 0 90 57 60
        E 0 90 4b 60
        E 0 90 3f 60
        E 120 80 4b 00
        E 0 80 3f 00
        E 240 80 63 00
        E 0 80 57 00
        E 120 90 59 60
        E 0 90 62 60
        E 0 90 65 60
        E 0 90 56 60
        E 0 90 4a 60
        E 120 80 4a 00
        E 240 80 62 00
        E 0 80 56 00
        E 120 90 61 60
        E 0 90 55 60
        E 0 90 49 60
        E 0 90 3d 60
        E 120 80 59 00
        E 0 80 65 00
        E 0 80 61 00
        E 0 80 55 00
        E 0 80 49 00
        E 0 80 3d 00
        E 360 90 62 60
        E 0 90 57 60
        E 0 90 4b 60
        E 120 80 62 00
        E 0 90 59 60
        E 0 90 63 60
        E 0 90 65 60
        E 360 80 4b 00
        E 360 80 57 00
        E 0 80 59 00
        E 0 80 63 00
        E 0 80 65 00
        E 120 90 62 60
        E 0 90 56 60
        E 0 90 4a 60
        E 0 90 3e 60
        E 120 80 62 00
        E 0 80 56 00
        E 0 80 4a 00
        E 0 80 3e 00
        E 360 90 61 60
        E 0 90 55 60
        E 0 90 49 60
        E 0 90 3d 60
        E 120 80 3d 00
        E 480 80 49 00
        E 120 80 55 00
        E 120 80 2f 00
        E 0 80 61 00
        E 120 90 2b 60
        E 0 90 60 60
        E 0 90 54 60
        E 0 90 48 60
        E 0 90 3c 60
        E 120 80 60 00
        E 0 80 54 00
        E 0 80 48 00
        E 0 80 3c 00
        E 360 90 60 60
        E 0 90 54 60
        E 0 90 48 60
        E 0 90 3c 60
        E 120 80 60 00
        E 0 80 54 00
        E 0 80 48 00
        E 0 80 3c 00
        E 360 90 60 60
        E 0 90 54 60
        E 0 90 48 60
        E 0 90 3c 60
        E 120 80 60 00
        E 0 80 54 00
        E 0 80 48 00
        E 0 80 3c 00
        E 360 90 60 60
        E 0 90 54 60
        E 0 90 48 60
        E 0 90 3c 60
        E 120 80 60 00
        E 0 80 54 00
        E 0 80 48 00
        E 0 80 3c 00
        E 360 90 60 60
        E 0 90 54 60
        E 0 90 48 60
        E 0 90 3c 60
        E 1200 80 60 00
        E 0 80 54 00
        E 0 80 48 00
        E 0 80 3c 00
        <X 239 0
          /wFbaWRsZV9yZWFsdGltZV0=
        >
        E 0 80 2b 00
        E 8160 b0 7b 00
        GUID {CBDDF85E-1686-443E-9B93-7F35355D7ECC}
        IGNTEMPO 0 120.00000000 4 4
        SRCCOLOR 5
        VELLANE 132 128 60
        COLORMAP "C:\Program Files\REAPER (x64)\Data\color_maps\rockband_guitarbass.png"
        CFGEDITVIEW 27967.790122 25.157371 34 12 0 0 0
        CFGEDIT 1 1 0 1 1 0 1 1 1 1 1 0.25000000 -8 -8 1544 872 0 0 1 1 0.00000000 0 1 1 0 0.500000 0 0 1.000000 64
        KEYSNAP 0 6 "102030050700" 0 "Pentatonic"
        EVTFILTER 0 -1 -1 -1 -1 0 1 0 0 -1.00000000 -1.00000000
      >
    >
  >
  <TRACK '{10773D71-43AD-47C9-A85E-78DD1E44D5CA}'
    NAME "PART VOCALS"
    PEAKCOL 16576
    BEAT -1
    AUTOMODE 0
    VOLPAN 1.00000000000000 0.00000000000000 -1.00000000000000 -1.00000000000000 1.00000000000000
    MUTESOLO 0 0 0
    IPHASE 0
    ISBUS 1 1
    BUSCOMP 0 0
    SHOWINMIX 1 0.666700 0.500000 1 0.500000 -1 -1 -1
    FREEMODE 0
    SEL 0
    REC 0 0 0 0 0 0 0
    VU 2
    TRACKHEIGHT 0 0
    INQ 0 0 0 0.5000000000 100 0 0 100
    NCHAN 2
    FX 1
    TRACKID {10773D71-43AD-47C9-A85E-78DD1E44D5CA}
    PERF 0
    MIDIOUT -1
    <MIDINOTENAMES
      0 116 "OVERDRIVE"
      0 115 "----"
      0 105 "Phrase Marker"
      0 104 "----"
      0 97 "Non-Displayed Percussion"
      0 96 "Displayed Percussion"
      0 95 "----"
      0 84 "C6 (Unused Highest Note)"
      0 83 "B5"
      0 82 "A#4"
      0 81 "A4"
      0 80 "G#4"
      0 79 "G4"
      0 78 "F#4"
      0 77 "F4"
      0 76 "E4"
      0 75 "D#4"
      0 74 "D4"
      0 73 "C#4"
      0 72 "C4"
      0 71 "B3"
      0 70 "A#3"
      0 69 "A3"
      0 68 "G#3"
      0 67 "G3"
      0 66 "F#3"
      0 65 "F3"
      0 64 "E3"
      0 63 "D#3"
      0 62 "D3"
      0 61 "C#3"
      0 60 "C3"
      0 59 "B2"
      0 58 "A#2"
      0 57 "A2"
      0 56 "G#2"
      0 55 "G2"
      0 54 "F#2"
      0 53 "F2"
      0 52 "E2"
      0 51 "D#2"
      0 50 "D2"
      0 49 "C#2"
      0 48 "C2"
      0 47 "B1"
      0 46 "A#1"
      0 45 "A1"
      0 44 "G#1"
      0 43 "G1"
      0 42 "F#1"
      0 41 "F1"
      0 40 "E1"
      0 39 "D#1"
      0 38 "D1"
      0 37 "C#1"
      0 36 "Lowest Note C1"
      0 2 "---"
      0 1 "Lyric Shift"
      0 0 "Range Shift"
    >
    MAINSEND 1 0
    <FXCHAIN
      WNDRECT 0 43 729 467
      SHOW 0
      LASTSEL 0
      DOCKED 0
    >
    <ITEM
      POSITION 0.00000000000000
      SNAPOFFS 0.00000000000000
      LENGTH 276.11399999999998
      LOOP 0
      ALLTAKES 0
      SEL 0
      FADEIN 1 0.000000 0.000000 1 0
      FADEOUT 1 0.000000 0.000000 1 0
      MUTE 0
      IGUID {62A5FC11-7204-48A9-9EA2-5FDDD8F23836}
      IID 11
      NAME "PART VOCALS"
      VOLPAN 1.000000 0.000000 1.000000 -1.000000
      SOFFS 0.00000000000000 0.00000000000000
      PLAYRATE 1.00000000000000 1 0.00000000000000 -1
      CHANMODE 0
      GUID {32BD00F8-6143-4F95-8CC0-A9EEA35D15D1}
      <SOURCE MIDI
        HASDATA 1 480 QN
        POOLEDEVTS {4BBEAF28-5289-4927-B9F6-05069F77AABC}
        <X 0 0
          /wNQQVJUIFZPQ0FMUw==
        >
        <X 5760 0
          /wFbaWRsZV0=
        >
        <X 30720 0
          /wFbcGxheV0=
        >
        E 0 90 69 60
        <X 480 0
          /wVGZWVscw==
        >
        E 0 90 3f 60
        E 300 80 3f 00
        <X 180 0
          /wVsaWtl
        >
        E 0 90 3f 60
        E 240 80 3f 00
        <X 240 0
          /wVteQ==
        >
        E 0 90 3f 60
        E 240 80 3f 00
        <X 240 0
          /wVsaWZl
        >
        E 0 90 3f 60
        E 300 80 3f 00
        <X 180 0
          /wUr
        >
        E 0 90 3d 60
        E 240 80 3d 00
        <X 240 0
          /wVpcw==
        >
        E 0 90 3d 60
        E 300 80 3d 00
        <X 180 0
          /wUr
        >
        E 0 90 3a 60
        E 240 80 3a 00
        E 120 90 01 60
        E 30 80 01 00
        <X 90 0
          /wVyZWEt
        >
        E 0 90 3a 60
        E 300 80 3a 00
        <X 180 0
          /wVkeQ==
        >
        E 0 90 3a 60
        E 240 80 3a 00
        <X 240 0
          /wV0bw==
        >
        E 0 90 3a 60
        E 180 80 3a 00
        <X 300 0
          /wVibG93
        >
        E 0 90 3a 60
        E 1920 80 3a 00
        E 480 80 69 00
        E 0 90 69 60
        <X 480 0
          /wVNZQ==
        >
        E 0 90 3f 60
        E 360 80 3f 00
        <X 120 0
          /wVhbmQ=
        >
        E 0 90 3f 60
        E 300 80 3f 00
        <X 180 0
          /wVteQ==
        >
        E 0 90 3f 60
        E 300 80 3f 00
        <X 180 0
          /wVsb3Zl
        >
        E 0 90 3f 60
        E 300 80 3f 00
        <X 180 0
          /wUr
        >
        E 0 90 3d 60
        E 300 80 3d 00
        E 90 90 01 60
        E 30 80 01 00
        <X 60 0
          /wV3aWxs
        >
        E 0 90 3d 60
        E 300 80 3d 00
        <X 180 0
          /wUr
        >
        E 0 90 3a 60
        E 240 80 3a 00
        <X 240 0
          /wV0YWtl
        >
        E 0 90 3a 60
        E 240 80 3a 00
        <X 240 0
          /wVpdA==
        >
        E 0 90 3a 60
        E 540 80 3a 00
        <X 420 0
          /wVzbG93
        >
        E 0 90 3a 60
        E 1440 80 3a 00
        <X 240 0
          /wUr
        >
        E 0 90 38 60
        E 720 80 38 00
        E 240 80 69 00
        E 0 90 69 60
        <X 240 0
          /wVJ
        >
        E 0 90 3f 60
        E 240 80 3f 00
        <X 240 0
          /wVob3Bl
        >
        E 0 90 3f 60
        E 240 80 3f 00
        <X 240 0
          /wVzaGU=
        >
        E 0 90 3f 60
        E 300 80 3f 00
        <X 180 0
          /wVrbm93cw==
        >
        E 0 90 3f 60
        E 240 80 3f 00
        <X 240 0
          /wUr
        >
        E 0 90 3d 60
        E 240 80 3d 00
        <X 240 0
          /wV0aGF0
        >
        E 0 90 3d 60
        E 720 80 3d 00
        E 0 90 01 60
        E 30 80 01 00
        <X 60 0
          /wVJ
        >
        E 0 90 3a 60
        E 90 80 3a 00
        <X 60 0
          /wVsb3Zl
        >
        E 0 90 3a 60
        E 240 80 3a 00
        <X 240 0
          /wVoZXI=
        >
        E 0 90 3a 60
        E 420 80 3a 00
        <X 60 0
          /wVhLQ==
        >
        E 0 90 3a 60
        E 300 80 3a 00
        <X 180 0
          /wVsb25l
        >
        E 0 90 3a 60
        E 1920 80 3a 00
        E 480 80 69 00
        E 0 90 69 60
        E 0 90 74 60
        <X 480 0
          /wVJ
        >
        E 0 90 3f 60
        E 240 80 3f 00
        <X 240 0
          /wVqdXN0
        >
        E 0 90 3f 60
        E 240 80 3f 00
        <X 240 0
          /wVkb24ndA==
        >
        E 0 90 3f 60
        E 300 80 3f 00
        <X 180 0
          /wVrbm93
        >
        E 0 90 3f 60
        E 240 80 3f 00
        <X 240 0
          /wUr
        >
        E 0 90 3d 60
        E 240 80 3d 00
        E 60 90 01 60
        E 30 80 01 00
        <X 150 0
          /wV3aGVyZQ==
        >
        E 0 90 3d 60
        E 390 80 3d 00
        <X 90 0
          /wV0aGU=
        >
        E 0 90 3a 60
        E 330 80 3a 00
        <X 150 0
          /wVoZWxs
        >
        E 0 90 3a 60
        E 240 80 3a 00
        <X 240 0
          /wVJ
        >
        E 0 90 3a 60
        E 240 80 3a 00
        <X 240 0
          /wViZS0=
        >
        E 0 90 3a 60
        E 180 80 3a 00
        <X 300 0
          /wVsb25n
        >
        E 0 90 3a 60
        E 1620 80 3a 00
        E 780 80 69 00
        E 0 80 74 00
        E 0 90 69 60
        <X 480 0
          /wVIb3c=
        >
        E 0 90 42 60
        E 240 80 42 00
        <X 240 0
          /wVvcC0=
        >
        E 0 90 42 60
        E 180 80 42 00
        <X 300 0
          /wV0aS0=
        >
        E 0 90 42 60
        E 300 80 42 00
        <X 180 0
          /wVtaXMt
        >
        E 0 90 42 60
        E 300 80 42 00
        <X 180 0
          /wUr
        >
        E 0 90 41 60
        E 360 80 41 00
        <X 120 0
          /wVt
        >
        E 0 90 41 60
        E 600 80 41 00
        <X 360 0
          /wVsZWQ=
        >
        E 0 90 3f 60
        E 240 80 3f 00
        <X 240 0
          /wVtZQ==
        >
        E 0 90 3f 60
        E 360 80 3f 00
        <X 120 0
          /wVhLQ==
        >
        E 0 90 3f 60
        E 180 80 3f 00
        <X 300 0
          /wVzdHJheQ==
        >
        E 0 90 3f 60
        E 240 80 3f 00
        <X 240 0
          /wUr
        >
        E 0 90 3d 60
        E 1380 80 3d 00
        E 540 80 69 00
        E 0 90 69 60
        <X 480 0
          /wVUd28=
        >
        E 0 90 42 60
        E 300 80 42 00
        <X 180 0
          /wVodW4t
        >
        E 0 90 42 60
        E 240 80 42 00
        <X 240 0
          /wVkcmVk
        >
        E 0 90 42 60
        E 240 80 42 00
        <X 240 0
          /wV0aGluZ3M=
        >
        E 0 90 42 60
        E 600 80 42 00
        <X 360 0
          /wVJ
        >
        E 0 90 41 60
        E 600 80 41 00
        <X 360 0
          /wV0b29r
        >
        E 0 90 3d 60
        E 60 80 3d 00
        <X 60 0
          /wUr
        >
        E 0 90 3f 60
        E 240 80 3f 00
        <X 120 0
          /wV0aGU=
        >
        E 0 90 3f 60
        E 300 80 3f 00
        <X 180 0
          /wV3cm9uZw==
        >
        E 0 90 3f 60
        E 600 80 3f 00
        <X 150 0
          /wV3YXk=
        >
        E 0 90 3f 60
        E 300 80 3f 00
        <X 150 0
          /wUr
        >
        E 0 90 3d 60
        E 1320 80 3d 00
        E 360 80 69 00
        E 0 90 69 60
        <X 240 0
          /wVCdXQj
        >
        E 0 90 36 60
        E 120 80 36 00
        <X 120 0
          /wVJ
        >
        E 0 90 42 60
        E 300 80 42 00
        <X 180 0
          /wVzYXc=
        >
        E 0 90 42 60
        E 180 80 42 00
        <X 300 0
          /wVoZXI=
        >
        E 0 90 42 60
        E 300 80 42 00
        <X 180 0
          /wVsb3Zl
        >
        E 0 90 42 60
        E 300 80 42 00
        <X 180 0
          /wUr
        >
        E 0 90 41 60
        E 300 80 41 00
        <X 180 0
          /wVnYXVnZQ==
        >
        E 0 90 41 60
        E 720 80 41 00
        <X 240 0
          /wVydW4t
        >
        E 0 90 3f 60
        E 600 80 3f 00
        <X 120 0
          /wVuaW4n
        >
        E 0 90 3f 60
        E 540 80 3f 00
        <X 180 0
          /wVsb3c=
        >
        E 0 90 3f 60
        E 1440 80 3f 00
        E 480 80 69 00
        E 480 90 69 60
        E 0 90 74 60
        <X 480 0
          /wVJ
        >
        E 0 90 42 60
        E 300 80 42 00
        <X 180 0
          /wV0cmllZA==
        >
        E 0 90 42 60
        E 240 80 42 00
        <X 240 0
          /wV0bw==
        >
        E 0 90 42 60
        E 180 80 42 00
        <X 300 0
          /wVmaWxs
        >
        E 0 90 42 60
        E 420 80 42 00
        <X 60 0
          /wVpdA==
        >
        E 0 90 42 60
        E 120 80 42 00
        E 30 90 01 60
        E 30 80 01 00
        <X 300 0
          /wVidXQ=
        >
        E 0 90 41 60
        E 360 80 41 00
        <X 120 0
          /wVpdA==
        >
        E 0 90 3f 60
        E 360 80 3f 00
        <X 120 0
          /wVvLQ==
        >
        E 0 90 3f 60
        E 540 80 3f 00
        <X 120 0
          /wV2ZXIt
        >
        E 0 90 3f 60
        E 420 80 3f 00
        <X 360 0
          /wVmbG93ZWQ=
        >
        E 0 90 3f 60
        E 240 80 3f 00
        <X 240 0
          /wUr
        >
        E 0 90 3d 60
        E 1260 80 3d 00
        <X 180 0
          /wUr
        >
        E 0 90 3b 60
        E 360 80 3b 00
        <X 120 0
          /wUr
        >
        E 0 90 3a 60
        E 60 80 3a 00
        <X 60 0
          /wUr
        >
        E 0 90 3b 60
        E 300 80 3b 00
        E 30 80 69 00
        E 0 80 74 00
        E 0 90 69 60
        <X 30 0
          /wVGZWVscw==
        >
        E 0 90 3f 60
        E 300 80 3f 00
        <X 180 0
          /wVsaWtl
        >
        E 0 90 3f 60
        E 240 80 3f 00
        <X 240 0
          /wVteQ==
        >
        E 0 90 3f 60
        E 240 80 3f 00
        <X 240 0
          /wVsaWZl
        >
        E 0 90 3f 60
        E 300 80 3f 00
        <X 180 0
          /wUr
        >
        E 0 90 3d 60
        E 240 80 3d 00
        <X 240 0
          /wVpcw==
        >
        E 0 90 3d 60
        E 300 80 3d 00
        E 60 90 01 60
        E 30 80 01 00
        <X 90 0
          /wUr
        >
        E 0 90 3a 60
        E 240 80 3a 00
        <X 240 0
          /wVyZWEt
        >
        E 0 90 3a 60
        E 300 80 3a 00
        <X 180 0
          /wVkeQ==
        >
        E 0 90 3a 60
        E 240 80 3a 00
        <X 240 0
          /wV0bw==
        >
        E 0 90 3a 60
        E 180 80 3a 00
        <X 300 0
          /wVibG93
        >
        E 0 90 3a 60
        E 1920 80 3a 00
        E 480 80 69 00
        E 0 90 69 60
        <X 480 0
          /wVNZQ==
        >
        E 0 90 3f 60
        E 360 80 3f 00
        <X 120 0
          /wVhbmQ=
        >
        E 0 90 3f 60
        E 300 80 3f 00
        <X 180 0
          /wVteQ==
        >
        E 0 90 3f 60
        E 300 80 3f 00
        <X 180 0
          /wVsb3Zl
        >
        E 0 90 3f 60
        E 300 80 3f 00
        E 90 90 01 60
        E 30 80 01 00
        <X 60 0
          /wUr
        >
        E 0 90 3d 60
        E 300 80 3d 00
        <X 180 0
          /wV3aWxs
        >
        E 0 90 3d 60
        E 300 80 3d 00
        <X 180 0
          /wUr
        >
        E 0 90 3a 60
        E 240 80 3a 00
        <X 240 0
          /wV0YWtl
        >
        E 0 90 3a 60
        E 240 80 3a 00
        <X 240 0
          /wVpdA==
        >
        E 0 90 3a 60
        E 540 80 3a 00
        <X 420 0
          /wVzbG93
        >
        E 0 90 3a 60
        E 1440 80 3a 00
        <X 240 0
          /wUr
        >
        E 0 90 38 60
        E 720 80 38 00
        E 240 80 69 00
        E 0 90 69 60
        <X 240 0
          /wVJ
        >
        E 0 90 3f 60
        E 240 80 3f 00
        <X 240 0
          /wVob3Bl
        >
        E 0 90 3f 60
        E 240 80 3f 00
        <X 240 0
          /wVzaGU=
        >
        E 0 90 3f 60
        E 300 80 3f 00
        <X 180 0
          /wVrbm93cw==
        >
        E 0 90 3f 60
        E 240 80 3f 00
        <X 240 0
          /wUr
        >
        E 0 90 3d 60
        E 240 80 3d 00
        <X 240 0
          /wV0aGF0
        >
        E 0 90 3d 60
        E 240 90 01 60
        E 30 80 01 00
        E 30 80 3d 00
        <X 180 0
          /wUr
        >
        E 0 90 3a 60
        E 210 80 3a 00
        <X 120 0
          /wVJ
        >
        E 0 90 3a 60
        E 90 80 3a 00
        <X 60 0
          /wVsb3Zl
        >
        E 0 90 3a 60
        E 240 80 3a 00
        <X 240 0
          /wVoZXI=
        >
        E 0 90 3a 60
        E 420 80 3a 00
        <X 60 0
          /wVhLQ==
        >
        E 0 90 3a 60
        E 300 80 3a 00
        <X 180 0
          /wVsb25l
        >
        E 0 90 3a 60
        E 1920 80 3a 00
        E 480 80 69 00
        E 0 90 69 60
        E 0 90 74 60
        <X 480 0
          /wVJ
        >
        E 0 90 3f 60
        E 240 80 3f 00
        <X 240 0
          /wVqdXN0
        >
        E 0 90 3f 60
        E 240 80 3f 00
        <X 240 0
          /wVkb24ndA==
        >
        E 0 90 3f 60
        E 300 80 3f 00
        <X 180 0
          /wVrbm93
        >
        E 0 90 3f 60
        E 240 80 3f 00
        E 60 90 01 60
        E 30 80 01 00
        <X 150 0
          /wUr
        >
        E 0 90 3d 60
        E 240 80 3d 00
        <X 240 0
          /wV3aGVyZQ==
        >
        E 0 90 3d 60
        E 390 80 3d 00
        <X 90 0
          /wV0aGU=
        >
        E 0 90 3a 60
        E 330 80 3a 00
        <X 150 0
          /wVoZWxs
        >
        E 0 90 3a 60
        E 240 80 3a 00
        <X 240 0
          /wVJ
        >
        E 0 90 3a 60
        E 240 80 3a 00
        <X 240 0
          /wViZS0=
        >
        E 0 90 3a 60
        E 180 80 3a 00
        <X 300 0
          /wVsb25n
        >
        E 0 90 3a 60
        E 1620 80 3a 00
        <X 480 0
          /wFbaWRsZV0=
        >
        E 300 80 69 00
        E 0 80 74 00
        <X 28800 0
          /wFbcGxheV0=
        >
        E 0 90 69 60
        E 0 90 74 60
        <X 480 0
          /wVTaGU=
        >
        E 0 90 3a 60
        E 360 80 3a 00
        <X 120 0
          /wVyZS0=
        >
        E 0 90 3b 60
        E 300 80 3b 00
        <X 180 0
          /wVtZW0t
        >
        E 0 90 3f 60
        E 780 80 3f 00
        <X 180 0
          /wViZXJz
        >
        E 0 90 3b 60
        E 960 80 3b 00
        <X 960 0
          /wVteQ==
        >
        E 0 90 3f 60
        E 780 80 3f 00
        <X 180 0
          /wVuYW1l
        >
        E 0 90 3d 60
        E 2220 80 3d 00
        E 180 80 69 00
        E 0 80 74 00
        E 0 90 69 60
        <X 480 0
          /wVDb3VsZA==
        >
        E 0 90 3a 60
        E 300 80 3a 00
        <X 180 0
          /wViZQ==
        >
        E 0 90 3b 60
        E 300 80 3b 00
        <X 180 0
          /wVibG93LQ==
        >
        E 0 90 3d 60
        E 90 80 3d 00
        <X 30 0
          /wUr
        >
        E 0 90 3f 60
        E 660 80 3f 00
        <X 180 0
          /wVpbic=
        >
        E 0 90 3b 60
        E 960 80 3b 00
        <X 960 0
          /wV3YXk=
        >
        E 0 90 3f 60
        E 780 80 3f 00
        <X 180 0
          /wVvdXQ=
        >
        E 0 90 3d 60
        E 2220 80 3d 00
        E 180 80 69 00
        E 0 90 69 60
        <X 480 0
          /wVJdCdz
        >
        E 0 90 3a 60
        E 300 80 3a 00
        <X 180 0
          /wVhbGw=
        >
        E 0 90 3b 60
        E 300 80 3b 00
        <X 180 0
          /wVnby0=
        >
        E 0 90 3f 60
        E 780 80 3f 00
        <X 180 0
          /wVpbic=
        >
        E 0 90 3b 60
        E 960 80 3b 00
        <X 960 0
          /wV0bw==
        >
        E 0 90 3f 60
        E 660 80 3f 00
        <X 300 0
          /wVjaGFuZ2U=
        >
        E 0 90 3d 60
        E 2220 80 3d 00
        E 180 80 69 00
        E 0 90 69 60
        <X 480 0
          /wVTaGU=
        >
        E 0 90 3a 60
        E 300 80 3a 00
        <X 180 0
          /wVyZS0=
        >
        E 0 90 3b 60
        E 300 80 3b 00
        <X 180 0
          /wVtZW0t
        >
        E 0 90 3f 60
        E 780 80 3f 00
        <X 180 0
          /wViZXJz
        >
        E 0 90 3b 60
        E 960 80 3b 00
        <X 960 0
          /wVteQ==
        >
        E 0 90 3f 60
        E 780 80 3f 00
        <X 180 0
          /wVuYW1l
        >
        E 0 90 3d 60
        E 2460 80 3d 00
        <X 420 0
          /wFbaWRsZV9pbnRlbnNlXQ==
        >
        E 0 80 69 00
        <X 2880 0
          /wFbaW50ZW5zZV0=
        >
        E 0 90 69 60
        <X 480 0
          /wVTaGUncw==
        >
        E 0 90 44 60
        E 60 80 44 00
        <X 30 0
          /wUr
        >
        E 0 90 46 60
        E 3270 80 46 00
        <X 480 0
          /wVvbi0=
        >
        E 0 90 46 60
        E 300 80 46 00
        <X 180 0
          /wUr
        >
        E 0 90 44 60
        E 360 80 44 00
        <X 120 0
          /wVseQ==
        >
        E 0 90 44 60
        E 90 80 44 00
        <X 30 0
          /wUr
        >
        E 0 90 46 60
        E 180 80 46 00
        <X 180 0
          /wUr
        >
        E 0 90 44 60
        E 240 80 44 00
        E 30 90 01 60
        E 30 80 01 00
        <X 180 0
          /wVtZXNzLQ==
        >
        E 0 90 46 60
        E 360 80 46 00
        <X 120 0
          /wUr
        >
        E 0 90 44 60
        E 270 80 44 00
        <X 210 0
          /wVpbic=
        >
        E 0 90 42 60
        E 390 80 42 00
        <X 90 0
          /wVhLQ==
        >
        E 0 90 44 60
        E 270 80 44 00
        <X 210 0
          /wVyb3VuZA==
        >
        E 0 90 42 60
        E 1320 80 42 00
        <X 120 0
          /wUr
        >
        E 0 90 3f 60
        E 60 80 3f 00
        <X 30 0
          /wUr
        >
        E 0 90 41 60
        E 3120 80 41 00
        <X 150 0
          /wFbaWRsZV9pbnRlbnNlXQ==
        >
        E 0 80 69 00
        E 0 90 69 60
        E 0 90 74 60
        <X 480 0
          /wFbaW50ZW5zZV0=
        >
        <X 480 0
          /wVQbGVhc2U=
        >
        E 0 90 44 60
        E 60 80 44 00
        <X 30 0
          /wUr
        >
        E 0 90 46 60
        E 4770 80 46 00
        <X 900 0
          /wVubw==
        >
        E 0 90 46 60
        E 330 80 46 00
        <X 150 0
          /wUr
        >
        E 0 90 44 60
        E 360 80 44 00
        <X 120 0
          /wVtb3Jl
        >
        E 0 90 46 60
        E 420 80 46 00
        <X 540 0
          /wVwbGF5LQ==
        >
        E 0 90 46 60
        E 330 80 46 00
        <X 150 0
          /wVpbmc=
        >
        E 0 90 44 60
        E 240 80 44 00
        <X 240 0
          /wV3aXRo
        >
        E 0 90 42 60
        E 210 80 42 00
        <X 270 0
          /wVteQ==
        >
        E 0 90 44 60
        E 210 80 44 00
        <X 270 0
          /wVoZWFydA==
        >
        E 0 90 42 60
        E 1320 80 42 00
        <X 120 0
          /wUr
        >
        E 0 90 3f 60
        E 30 80 3f 00
        <X 60 0
          /wUr
        >
        E 0 90 41 60
        E 2880 80 41 00
        <X 390 0
          /wFbaWRsZV9pbnRlbnNlXQ==
        >
        E 0 80 69 00
        E 0 80 74 00
        <X 1920 0
          /wFbaW50ZW5zZV0=
        >
        E 0 90 69 60
        <X 480 0
          /wVPb2g=
        >
        E 0 90 44 60
        E 90 80 44 00
        <X 30 0
          /wUr
        >
        E 0 90 46 60
        E 3330 80 46 00
        <X 870 0
          /wVnbw==
        >
        E 0 90 46 60
        E 330 80 46 00
        <X 150 0
          /wV3aXRo
        >
        E 0 90 44 60
        E 270 80 44 00
        <X 210 0
          /wVNaXN0LQ==
        >
        E 0 90 46 60
        E 330 80 46 00
        <X 150 0
          /wVlcg==
        >
        E 0 90 44 60
        E 240 80 44 00
        <X 240 0
          /wVSaWdodA==
        >
        E 0 90 44 60
        E 60 80 44 00
        <X 30 0
          /wUr
        >
        E 0 90 46 60
        E 240 80 46 00
        <X 150 0
          /wUr
        >
        E 0 90 44 60
        E 240 80 44 00
        <X 240 0
          /wVqdXN0
        >
        E 0 90 42 60
        E 240 80 42 00
        <X 240 0
          /wVmb3I=
        >
        E 0 90 44 60
        E 210 80 44 00
        <X 270 0
          /wVvbmNl
        >
        E 0 90 42 60
        E 1320 80 42 00
        <X 120 0
          /wUr
        >
        E 0 90 3f 60
        E 60 80 3f 00
        <X 30 0
          /wUr
        >
        E 0 90 41 60
        E 2820 80 41 00
        <X 210 0
          /wFbaWRsZV9pbnRlbnNlXQ==
        >
        E 690 80 69 00
        E 0 90 69 60
        E 0 90 74 60
        <X 510 0
          /wVPaGg=
        >
        E 0 90 44 60
        E 90 80 44 00
        <X 30 0
          /wUr
        >
        E 0 90 46 60
        E 5310 80 46 00
        <X 330 0
          /wVubw==
        >
        E 0 90 46 60
        E 300 80 46 00
        <X 180 0
          /wUr
        >
        E 0 90 44 60
        E 330 80 44 00
        <X 150 0
          /wVtb3Jl
        >
        E 0 90 46 60
        E 300 80 46 00
        <X 180 0
          /wUr
        >
        E 0 90 44 60
        E 210 80 44 00
        <X 270 0
          /wVtaXMt
        >
        E 0 90 46 60
        E 240 80 46 00
        <X 240 0
          /wVjaGllZg==
        >
        E 0 90 44 60
        E 240 80 44 00
        <X 240 0
          /wV3aXRo
        >
        E 0 90 42 60
        E 180 80 42 00
        <X 300 0
          /wVteQ==
        >
        E 0 90 44 60
        E 270 80 44 00
        <X 210 0
          /wVtaW5k
        >
        E 0 90 42 60
        E 1350 80 42 00
        <X 90 0
          /wUr
        >
        E 0 90 3f 60
        E 60 80 3f 00
        <X 30 0
          /wUr
        >
        E 0 90 41 60
        E 2700 80 41 00
        E 60 80 69 00
        E 0 80 74 00
        E 0 90 69 60
        <X 30 0
          /wVObw==
        >
        <X 0 0
          /wFbcGxheV0=
        >
        E 0 90 3a 60
        E 330 80 3a 00
        <X 150 0
          /wVtb3Jl
        >
        E 0 90 3b 60
        E 240 80 3b 00
        <X 240 0
          /wVnZXQt
        >
        E 0 90 3f 60
        E 840 80 3f 00
        <X 120 0
          /wV0aW4n
        >
        E 0 90 3b 60
        E 960 80 3b 00
        <X 960 0
          /wVpdA==
        >
        E 0 90 3f 60
        E 540 80 3f 00
        <X 420 0
          /wV3cm9uZw==
        >
        E 0 90 3d 60
        E 2280 80 3d 00
        E 120 80 69 00
        E 0 90 69 60
        <X 480 0
          /wVJJ2xs
        >
        E 0 90 3a 60
        E 330 80 3a 00
        <X 150 0
          /wViZQ==
        >
        E 0 90 3b 60
        E 240 80 3b 00
        <X 240 0
          /wVmcm8t
        >
        E 0 90 3f 60
        E 750 80 3f 00
        <X 210 0
          /wV6ZW4=
        >
        E 0 90 3b 60
        E 960 80 3b 00
        <X 960 0
          /wVoZXJl
        >
        E 0 90 3f 60
        E 720 80 3f 00
        <X 240 0
          /wVvbg==
        >
        E 0 90 3d 60
        E 2280 80 3d 00
        E 120 80 69 00
        E 0 90 69 60
        <X 480 0
          /wVJZg==
        >
        E 0 90 3a 60
        E 330 80 3a 00
        <X 150 0
          /wVmb3It
        >
        E 0 90 3b 60
        E 270 80 3b 00
        <X 210 0
          /wVlLQ==
        >
        E 0 90 3f 60
        E 750 80 3f 00
        <X 210 0
          /wV2ZXI=
        >
        E 0 90 3b 60
        E 960 80 3b 00
        <X 960 0
          /wV3ZSdsbA==
        >
        E 0 90 3f 60
        E 540 80 3f 00
        <X 420 0
          /wVzZWU=
        >
        E 0 90 3d 60
        E 2280 80 3d 00
        E 120 80 69 00
        E 0 90 69 60
        <X 480 0
          /wVObw==
        >
        E 0 90 3a 60
        E 330 80 3a 00
        <X 150 0
          /wVtb3Jl
        >
        E 0 90 3b 60
        E 240 80 3b 00
        <X 240 0
          /wVndWVzcy0=
        >
        E 0 90 3f 60
        E 780 80 3f 00
        <X 180 0
          /wVpbic=
        >
        E 0 90 3b 60
        E 960 80 3b 00
        <X 960 0
          /wVmb3I=
        >
        E 0 90 3f 60
        E 600 80 3f 00
        <X 360 0
          /wVtZQ==
        >
        E 0 90 3d 60
        E 2700 80 3d 00
        E 180 80 69 00
        <X 300 0
          /wFbaWRsZV0=
        >
        <X 4980 0
          /wFbaW50ZW5zZV0=
        >
        E 0 90 69 60
        E 0 90 74 60
        <X 480 0
          /wVPaGg=
        >
        E 0 90 44 60
        E 60 80 44 00
        <X 30 0
          /wUr
        >
        E 0 90 46 60
        E 4020 80 46 00
        <X 210 0
          /wUr
        >
        E 0 90 44 60
        E 720 80 44 00
        <X 720 0
          /wVJ
        >
        E 0 90 46 60
        E 270 80 46 00
        <X 210 0
          /wV3YXM=
        >
        E 0 90 44 60
        E 270 80 44 00
        <X 210 0
          /wVqdXN0
        >
        E 0 90 46 60
        E 270 80 46 00
        <X 210 0
          /wVzbw==
        >
        E 0 90 44 60
        E 240 80 44 00
        <X 240 0
          /wVzdXJl
        >
        E 0 90 46 60
        E 330 80 46 00
        <X 150 0
          /wVvZg==
        >
        E 0 90 44 60
        E 270 80 44 00
        <X 210 0
          /wVldi0=
        >
        E 0 90 42 60
        E 330 80 42 00
        <X 150 0
          /wVlcnkt
        >
        E 0 90 44 60
        E 300 80 44 00
        <X 180 0
          /wV0aGluZw==
        >
        E 0 90 42 60
        E 1290 80 42 00
        <X 150 0
          /wUr
        >
        E 0 90 3f 60
        E 60 80 3f 00
        <X 90 0
          /wUr
        >
        E 0 90 41 60
        E 3180 80 41 00
        <X 30 0
          /wFbaWRsZV9pbnRlbnNlXQ==
        >
        E 0 80 69 00
        E 0 80 74 00
        <X 2400 0
          /wFbaW50ZW5zZV0=
        >
        E 0 90 69 60
        <X 480 0
          /wVPaGg=
        >
        E 0 90 46 60
        E 1590 80 46 00
        <X 330 0
          /wUr
        >
        E 0 90 41 60
        E 1170 80 41 00
        <X 270 0
          /wV0aGF0J3M=
        >
        E 0 90 41 60
        E 180 80 41 00
        <X 300 0
          /wV3aGF0
        >
        E 0 90 46 60
        E 210 80 46 00
        <X 270 0
          /wV5b3U=
        >
        E 0 90 44 60
        E 270 80 44 00
        <X 210 0
          /wVnZXQ=
        >
        E 0 90 46 60
        E 240 80 46 00
        <X 240 0
          /wVmb3I=
        >
        E 0 90 44 60
        E 210 80 44 00
        <X 270 0
          /wVkcmVhbS0=
        >
        E 0 90 46 60
        E 360 80 46 00
        <X 120 0
          /wUr
        >
        E 0 90 44 60
        E 330 80 44 00
        <X 150 0
          /wVpbic=
        >
        E 0 90 42 60
        E 300 80 42 00
        <X 180 0
          /wVhLQ==
        >
        E 0 90 44 60
        E 270 80 44 00
        <X 210 0
          /wVsb3Vk
        >
        E 0 90 42 60
        E 1350 80 42 00
        <X 90 0
          /wUr
        >
        E 0 90 3f 60
        E 90 80 3f 00
        <X 60 0
          /wUr
        >
        E 0 90 41 60
        E 2640 80 41 00
        E 60 80 69 00
        E 0 90 69 60
        <X 30 0
          /wVUaGVu
        >
        E 0 90 3a 60
        E 360 80 3a 00
        <X 120 0
          /wVpdA==
        >
        E 0 90 3b 60
        E 300 80 3b 00
        <X 180 0
          /wVhbGw=
        >
        E 0 90 3d 60
        E 60 80 3d 00
        <X 60 0
          /wUr
        >
        E 0 90 3f 60
        E 660 80 3f 00
        <X 180 0
          /wVqdXN0
        >
        E 0 90 3b 60
        E 1020 80 3b 00
        <X 900 0
          /wVjYW1l
        >
        E 0 90 3f 60
        E 780 80 3f 00
        <X 180 0
          /wVvdXQ=
        >
        E 0 90 3d 60
        E 2220 80 3d 00
        E 180 80 69 00
        E 0 90 69 60
        <X 480 0
          /wVHdWVzcw==
        >
        E 0 90 3a 60
        E 360 80 3a 00
        <X 120 0
          /wVJJ2xs
        >
        E 0 90 3b 60
        E 300 80 3b 00
        <X 180 0
          /wVob2xk
        >
        E 0 90 3d 60
        E 60 80 3d 00
        <X 60 0
          /wUr
        >
        E 0 90 3f 60
        E 660 80 3f 00
        <X 180 0
          /wVpbg==
        >
        E 0 90 3b 60
        E 960 80 3b 00
        <X 960 0
          /wVub3c=
        >
        E 0 90 3f 60
        E 780 80 3f 00
        <X 180 0
          /wVvbg==
        >
        E 0 90 3d 60
        E 2220 80 3d 00
        E 180 80 69 00
        E 0 90 69 60
        <X 1920 0
          /wVPaGg=
        >
        E 0 90 44 60
        E 60 80 44 00
        <X 30 0
          /wUr
        >
        E 0 90 46 60
        E 5250 80 46 00
        <X 420 0
          /wVubw==
        >
        E 0 90 46 60
        E 330 80 46 00
        <X 150 0
          /wUr
        >
        E 0 90 44 60
        E 270 80 44 00
        <X 210 0
          /wVtb3Jl
        >
        E 0 90 46 60
        E 330 80 46 00
        <X 150 0
          /wVndWVzcy0=
        >
        E 0 90 44 60
        E 300 80 44 00
        <X 180 0
          /wVpbmc=
        >
        E 0 90 44 60
        E 60 80 44 00
        <X 30 0
          /wUr
        >
        E 0 90 46 60
        E 270 80 46 00
        <X 120 0
          /wUr
        >
        E 0 90 44 60
        E 330 80 44 00
        <X 150 0
          /wUr
        >
        E 0 90 42 60
        E 300 80 42 00
        <X 180 0
          /wVmb3I=
        >
        E 0 90 44 60
        E 300 80 44 00
        <X 180 0
          /wVtZQ==
        >
        E 0 90 42 60
        E 5606 80 42 00
        <X 153 0
          /wFbaWRsZV9yZWFsdGltZV0=
        >
        E 0 80 69 00
        E 7680 b0 7b 00
        GUID {B57E481B-7885-4FBE-8C86-C637D68511F3}
        IGNTEMPO 0 120.00000000 4 4
        SRCCOLOR 13
        VELLANE 132 128 60
        COLORMAP "C:\Program Files\REAPER (x64)\Data\color_maps\rockband_guitarbass.png"
        CFGEDITVIEW -22293.631403 4.067158 0 12 0 0 0
        CFGEDIT 1 1 0 1 1 0 1 1 1 1 1 0.25000000 -8 -8 1544 872 0 2 1 1 0.00000000 0 1 1 0 0.500000 0 0 1.000000 64
        KEYSNAP 0 6 "102030050700" 0 "Pentatonic"
        EVTFILTER 0 -1 -1 -1 -1 0 1 0 0 -1.00000000 -1.00000000
      >
    >
  >
  <TRACK '{937C0C91-0443-4566-B5DD-130112F1FA06}'
    NAME "HARM1"
    PEAKCOL 16576
    BEAT -1
    AUTOMODE 0
    VOLPAN 1.00000000000000 -0.50400000000000 -1.00000000000000 -1.00000000000000 1.00000000000000
    MUTESOLO 0 0 0
    IPHASE 0
    ISBUS 0 0
    BUSCOMP 0 0
    SHOWINMIX 1 0.666700 0.500000 1 0.500000 -1 -1 -1
    FREEMODE 0
    SEL 0
    REC 0 0 0 0 0 0 0
    VU 2
    TRACKHEIGHT 0 0
    INQ 0 0 0 0.5000000000 100 0 0 100
    NCHAN 2
    FX 0
    TRACKID {937C0C91-0443-4566-B5DD-130112F1FA06}
    PERF 0
    MIDIOUT -1
    <MIDINOTENAMES
      0 116 "OVERDRIVE"
      0 115 "----"
      0 105 "Phrase Marker"
      0 104 "----"
      0 84 "C6 (Unused Highest Note)"
      0 83 "B5"
      0 82 "A#4"
      0 81 "A4"
      0 80 "G#4"
      0 79 "G4"
      0 78 "F#4"
      0 77 "F4"
      0 76 "E4"
      0 75 "D#4"
      0 74 "D4"
      0 73 "C#4"
      0 72 "C4"
      0 71 "B3"
      0 70 "A#3"
      0 69 "A3"
      0 68 "G#3"
      0 67 "G3"
      0 66 "F#3"
      0 65 "F3"
      0 64 "E3"
      0 63 "D#3"
      0 62 "D3"
      0 61 "C#3"
      0 60 "C3"
      0 59 "B2"
      0 58 "A#2"
      0 57 "A2"
      0 56 "G#2"
      0 55 "G2"
      0 54 "F#2"
      0 53 "F2"
      0 52 "E2"
      0 51 "D#2"
      0 50 "D2"
      0 49 "C#2"
      0 48 "C2"
      0 47 "B1"
      0 46 "A#1"
      0 45 "A1"
      0 44 "G#1"
      0 43 "G1"
      0 42 "F#1"
      0 41 "F1"
      0 40 "E1"
      0 39 "D#1"
      0 38 "D1"
      0 37 "C#1"
      0 36 "Lowest Note C1"
      0 2 "---"
      0 1 "Lyric Shift"
      0 0 "Range Shift"
    >
    MAINSEND 1 0
    <FXCHAIN
      WNDRECT 0 43 655 467
      SHOW 0
      LASTSEL 1
      DOCKED 0
      BYPASS 0 0
      <JS "MIDI/midi_note_filter" ""
        36.000000 84.000000 - - - - - - - - - - - - - - - - - - - - - - - - - - - - - - - - - - - - - - - - - - - - - - - - - - - - - - - - - - - - - - 
      >
      FLOATPOS 0 0 0 0
      FXID {F46697EF-8987-483F-BC67-023B62F709A4}
      WAK 0
      BYPASS 0 0
      <VST "VSTi: ReaSynth (Cockos)" "reasynth.dll" 0 ""
        eXNlcu9e7f4AAAAAAgAAAAEAAAAAAAAAAgAAAAAAAAA4AAAAAAAAAA==
        AAAQAO++rd4N8K3eppvEOxe30ToAAIA/AAAAAAAAAADMm4A+6WeIPQ==
        AAAAAAAAAD8AAIA/AACAPwAAAD8AABAAAAA=
      >
      FLOATPOS 0 0 0 0
      FXID {1BE7DAEA-95E8-4E03-BC14-B8A8A133DF00}
      WAK 0
    >
    <ITEM
      POSITION 0.00000000000000
      SNAPOFFS 0.00000000000000
      LENGTH 276.11399999999998
      LOOP 0
      ALLTAKES 0
      SEL 0
      FADEIN 1 0.000000 0.000000 1 0
      FADEOUT 1 0.000000 0.000000 1 0
      MUTE 0
      IGUID {8DA9312F-04D5-4415-B8C3-FD901AFB0075}
      IID 12
      NAME "HARM1"
      VOLPAN 1.000000 0.000000 1.000000 -1.000000
      SOFFS 0.00000000000000 0.00000000000000
      PLAYRATE 1.00000000000000 1 0.00000000000000 -1
      CHANMODE 0
      GUID {5EC5D796-8CF6-47A0-BD11-55988BDD9CB3}
      <SOURCE MIDI
        HASDATA 1 480 QN
        POOLEDEVTS {A59F6CEC-5DC6-40F8-AC3E-48CE7A3A1966}
        <X 0 0
          /wNIQVJNMQ==
        >
        E 36480 90 69 60
        <X 480 0
          /wVGZWVscw==
        >
        E 0 90 3f 60
        E 300 80 3f 00
        <X 180 0
          /wVsaWtl
        >
        E 0 90 3f 60
        E 240 80 3f 00
        <X 240 0
          /wVteQ==
        >
        E 0 90 3f 60
        E 240 80 3f 00
        <X 240 0
          /wVsaWZl
        >
        E 0 90 3f 60
        E 300 80 3f 00
        <X 180 0
          /wUr
        >
        E 0 90 3d 60
        E 240 80 3d 00
        <X 240 0
          /wVpcw==
        >
        E 0 90 3d 60
        E 300 80 3d 00
        <X 180 0
          /wUr
        >
        E 0 90 3a 60
        E 240 80 3a 00
        E 120 90 01 60
        E 30 80 01 00
        <X 90 0
          /wVyZWEt
        >
        E 0 90 3a 60
        E 300 80 3a 00
        <X 180 0
          /wVkeQ==
        >
        E 0 90 3a 60
        E 240 80 3a 00
        <X 240 0
          /wV0bw==
        >
        E 0 90 3a 60
        E 180 80 3a 00
        <X 300 0
          /wVibG93
        >
        E 0 90 3a 60
        E 1920 80 3a 00
        E 480 80 69 00
        E 0 90 69 60
        <X 480 0
          /wVNZQ==
        >
        E 0 90 3f 60
        E 360 80 3f 00
        <X 120 0
          /wVhbmQ=
        >
        E 0 90 3f 60
        E 300 80 3f 00
        <X 180 0
          /wVteQ==
        >
        E 0 90 3f 60
        E 300 80 3f 00
        <X 180 0
          /wVsb3Zl
        >
        E 0 90 3f 60
        E 300 80 3f 00
        <X 180 0
          /wUr
        >
        E 0 90 3d 60
        E 300 80 3d 00
        E 90 90 01 60
        E 30 80 01 00
        <X 60 0
          /wV3aWxs
        >
        E 0 90 3d 60
        E 300 80 3d 00
        <X 180 0
          /wUr
        >
        E 0 90 3a 60
        E 240 80 3a 00
        <X 240 0
          /wV0YWtl
        >
        E 0 90 3a 60
        E 240 80 3a 00
        <X 240 0
          /wVpdA==
        >
        E 0 90 3a 60
        E 540 80 3a 00
        <X 420 0
          /wVzbG93
        >
        E 0 90 3a 60
        E 1440 80 3a 00
        <X 240 0
          /wUr
        >
        E 0 90 38 60
        E 720 80 38 00
        E 240 80 69 00
        E 0 90 69 60
        <X 240 0
          /wVJ
        >
        E 0 90 3f 60
        E 240 80 3f 00
        <X 240 0
          /wVob3Bl
        >
        E 0 90 3f 60
        E 240 80 3f 00
        <X 240 0
          /wVzaGU=
        >
        E 0 90 3f 60
        E 300 80 3f 00
        <X 180 0
          /wVrbm93cw==
        >
        E 0 90 3f 60
        E 240 80 3f 00
        <X 240 0
          /wUr
        >
        E 0 90 3d 60
        E 240 80 3d 00
        <X 240 0
          /wV0aGF0
        >
        E 0 90 3d 60
        E 720 80 3d 00
        E 0 90 01 60
        E 30 80 01 00
        <X 60 0
          /wVJ
        >
        E 0 90 3a 60
        E 90 80 3a 00
        <X 60 0
          /wVsb3Zl
        >
        E 0 90 3a 60
        E 240 80 3a 00
        <X 240 0
          /wVoZXI=
        >
        E 0 90 3a 60
        E 420 80 3a 00
        <X 60 0
          /wVhLQ==
        >
        E 0 90 3a 60
        E 300 80 3a 00
        <X 180 0
          /wVsb25l
        >
        E 0 90 3a 60
        E 1920 80 3a 00
        E 480 80 69 00
        E 0 90 69 60
        E 0 90 74 60
        <X 480 0
          /wVJ
        >
        E 0 90 3f 60
        E 240 80 3f 00
        <X 240 0
          /wVqdXN0
        >
        E 0 90 3f 60
        E 240 80 3f 00
        <X 240 0
          /wVkb24ndA==
        >
        E 0 90 3f 60
        E 300 80 3f 00
        <X 180 0
          /wVrbm93
        >
        E 0 90 3f 60
        E 240 80 3f 00
        <X 240 0
          /wUr
        >
        E 0 90 3d 60
        E 240 80 3d 00
        E 60 90 01 60
        E 30 80 01 00
        <X 150 0
          /wV3aGVyZQ==
        >
        E 0 90 3d 60
        E 390 80 3d 00
        <X 90 0
          /wV0aGU=
        >
        E 0 90 3a 60
        E 330 80 3a 00
        <X 150 0
          /wVoZWxs
        >
        E 0 90 3a 60
        E 240 80 3a 00
        <X 240 0
          /wVJ
        >
        E 0 90 3a 60
        E 240 80 3a 00
        <X 240 0
          /wViZS0=
        >
        E 0 90 3a 60
        E 180 80 3a 00
        <X 300 0
          /wVsb25n
        >
        E 0 90 3a 60
        E 1620 80 3a 00
        E 780 80 69 00
        E 0 80 74 00
        E 0 90 69 60
        <X 480 0
          /wVIb3c=
        >
        E 0 90 42 60
        E 240 80 42 00
        <X 240 0
          /wVvcC0=
        >
        E 0 90 42 60
        E 180 80 42 00
        <X 300 0
          /wV0aS0=
        >
        E 0 90 42 60
        E 300 80 42 00
        <X 180 0
          /wVtaXMt
        >
        E 0 90 42 60
        E 300 80 42 00
        <X 180 0
          /wUr
        >
        E 0 90 41 60
        E 360 80 41 00
        <X 120 0
          /wVt
        >
        E 0 90 41 60
        E 600 80 41 00
        <X 360 0
          /wVsZWQ=
        >
        E 0 90 3f 60
        E 240 80 3f 00
        <X 240 0
          /wVtZQ==
        >
        E 0 90 3f 60
        E 360 80 3f 00
        <X 120 0
          /wVhLQ==
        >
        E 0 90 3f 60
        E 180 80 3f 00
        <X 300 0
          /wVzdHJheQ==
        >
        E 0 90 3f 60
        E 240 80 3f 00
        <X 240 0
          /wUr
        >
        E 0 90 3d 60
        E 1380 80 3d 00
        E 540 80 69 00
        E 0 90 69 60
        <X 480 0
          /wVUd28=
        >
        E 0 90 42 60
        E 300 80 42 00
        <X 180 0
          /wVodW4t
        >
        E 0 90 42 60
        E 240 80 42 00
        <X 240 0
          /wVkcmVk
        >
        E 0 90 42 60
        E 240 80 42 00
        <X 240 0
          /wV0aGluZ3M=
        >
        E 0 90 42 60
        E 600 80 42 00
        <X 360 0
          /wVJ
        >
        E 0 90 41 60
        E 600 80 41 00
        <X 360 0
          /wV0b29r
        >
        E 0 90 3d 60
        E 60 80 3d 00
        <X 60 0
          /wUr
        >
        E 0 90 3f 60
        E 240 80 3f 00
        <X 120 0
          /wV0aGU=
        >
        E 0 90 3f 60
        E 300 80 3f 00
        <X 180 0
          /wV3cm9uZw==
        >
        E 0 90 3f 60
        E 600 80 3f 00
        <X 150 0
          /wV3YXk=
        >
        E 0 90 3f 60
        E 300 80 3f 00
        <X 150 0
          /wUr
        >
        E 0 90 3d 60
        E 1320 80 3d 00
        E 360 80 69 00
        E 0 90 69 60
        <X 240 0
          /wVCdXQj
        >
        E 0 90 36 60
        E 120 80 36 00
        <X 120 0
          /wVJ
        >
        E 0 90 42 60
        E 300 80 42 00
        <X 180 0
          /wVzYXc=
        >
        E 0 90 42 60
        E 180 80 42 00
        <X 300 0
          /wVoZXI=
        >
        E 0 90 42 60
        E 300 80 42 00
        <X 180 0
          /wVsb3Zl
        >
        E 0 90 42 60
        E 300 80 42 00
        <X 180 0
          /wUr
        >
        E 0 90 41 60
        E 300 80 41 00
        <X 180 0
          /wVnYXVnZQ==
        >
        E 0 90 41 60
        E 720 80 41 00
        <X 240 0
          /wVydW4t
        >
        E 0 90 3f 60
        E 600 80 3f 00
        <X 120 0
          /wVuaW4n
        >
        E 0 90 3f 60
        E 540 80 3f 00
        <X 180 0
          /wVsb3c=
        >
        E 0 90 3f 60
        E 1440 80 3f 00
        E 480 80 69 00
        E 480 90 69 60
        E 0 90 74 60
        <X 480 0
          /wVJ
        >
        E 0 90 42 60
        E 300 80 42 00
        <X 180 0
          /wV0cmllZA==
        >
        E 0 90 42 60
        E 240 80 42 00
        <X 240 0
          /wV0bw==
        >
        E 0 90 42 60
        E 180 80 42 00
        <X 300 0
          /wVmaWxs
        >
        E 0 90 42 60
        E 420 80 42 00
        <X 60 0
          /wVpdA==
        >
        E 0 90 42 60
        E 120 80 42 00
        E 30 90 01 60
        E 30 80 01 00
        <X 300 0
          /wVidXQ=
        >
        E 0 90 41 60
        E 360 80 41 00
        <X 120 0
          /wVpdA==
        >
        E 0 90 3f 60
        E 360 80 3f 00
        <X 120 0
          /wVvLQ==
        >
        E 0 90 3f 60
        E 540 80 3f 00
        <X 120 0
          /wV2ZXIt
        >
        E 0 90 3f 60
        E 420 80 3f 00
        <X 360 0
          /wVmbG93ZWQ=
        >
        E 0 90 3f 60
        E 240 80 3f 00
        <X 240 0
          /wUr
        >
        E 0 90 3d 60
        E 1260 80 3d 00
        <X 180 0
          /wUr
        >
        E 0 90 3b 60
        E 360 80 3b 00
        <X 120 0
          /wUr
        >
        E 0 90 3a 60
        E 60 80 3a 00
        <X 60 0
          /wUr
        >
        E 0 90 3b 60
        E 300 80 3b 00
        E 30 80 69 00
        E 0 80 74 00
        E 0 90 69 60
        <X 30 0
          /wVGZWVscw==
        >
        E 0 90 3f 60
        E 300 80 3f 00
        <X 180 0
          /wVsaWtl
        >
        E 0 90 3f 60
        E 240 80 3f 00
        <X 240 0
          /wVteQ==
        >
        E 0 90 3f 60
        E 240 80 3f 00
        <X 240 0
          /wVsaWZl
        >
        E 0 90 3f 60
        E 300 80 3f 00
        <X 180 0
          /wUr
        >
        E 0 90 3d 60
        E 240 80 3d 00
        <X 240 0
          /wVpcw==
        >
        E 0 90 3d 60
        E 300 80 3d 00
        E 60 90 01 60
        E 30 80 01 00
        <X 90 0
          /wUr
        >
        E 0 90 3a 60
        E 240 80 3a 00
        <X 240 0
          /wVyZWEt
        >
        E 0 90 3a 60
        E 300 80 3a 00
        <X 180 0
          /wVkeQ==
        >
        E 0 90 3a 60
        E 240 80 3a 00
        <X 240 0
          /wV0bw==
        >
        E 0 90 3a 60
        E 180 80 3a 00
        <X 300 0
          /wVibG93
        >
        E 0 90 3a 60
        E 1920 80 3a 00
        E 480 80 69 00
        E 0 90 69 60
        <X 480 0
          /wVNZQ==
        >
        E 0 90 3f 60
        E 360 80 3f 00
        <X 120 0
          /wVhbmQ=
        >
        E 0 90 3f 60
        E 300 80 3f 00
        <X 180 0
          /wVteQ==
        >
        E 0 90 3f 60
        E 300 80 3f 00
        <X 180 0
          /wVsb3Zl
        >
        E 0 90 3f 60
        E 300 80 3f 00
        E 90 90 01 60
        E 30 80 01 00
        <X 60 0
          /wUr
        >
        E 0 90 3d 60
        E 300 80 3d 00
        <X 180 0
          /wV3aWxs
        >
        E 0 90 3d 60
        E 300 80 3d 00
        <X 180 0
          /wUr
        >
        E 0 90 3a 60
        E 240 80 3a 00
        <X 240 0
          /wV0YWtl
        >
        E 0 90 3a 60
        E 240 80 3a 00
        <X 240 0
          /wVpdA==
        >
        E 0 90 3a 60
        E 540 80 3a 00
        <X 420 0
          /wVzbG93
        >
        E 0 90 3a 60
        E 1440 80 3a 00
        <X 240 0
          /wUr
        >
        E 0 90 38 60
        E 720 80 38 00
        E 240 80 69 00
        E 0 90 69 60
        <X 240 0
          /wVJ
        >
        E 0 90 3f 60
        E 240 80 3f 00
        <X 240 0
          /wVob3Bl
        >
        E 0 90 3f 60
        E 240 80 3f 00
        <X 240 0
          /wVzaGU=
        >
        E 0 90 3f 60
        E 300 80 3f 00
        <X 180 0
          /wVrbm93cw==
        >
        E 0 90 3f 60
        E 240 80 3f 00
        <X 240 0
          /wUr
        >
        E 0 90 3d 60
        E 240 80 3d 00
        <X 240 0
          /wV0aGF0
        >
        E 0 90 3d 60
        E 300 80 3d 00
        E 60 90 01 60
        E 30 80 01 00
        <X 90 0
          /wUr
        >
        E 0 90 3a 60
        E 210 80 3a 00
        <X 120 0
          /wVJ
        >
        E 0 90 3a 60
        E 90 80 3a 00
        <X 60 0
          /wVsb3Zl
        >
        E 0 90 3a 60
        E 240 80 3a 00
        <X 240 0
          /wVoZXI=
        >
        E 0 90 3a 60
        E 420 80 3a 00
        <X 60 0
          /wVhLQ==
        >
        E 0 90 3a 60
        E 300 80 3a 00
        <X 180 0
          /wVsb25l
        >
        E 0 90 3a 60
        E 1920 80 3a 00
        E 480 80 69 00
        E 0 90 69 60
        E 0 90 74 60
        <X 480 0
          /wVJ
        >
        E 0 90 3f 60
        E 240 80 3f 00
        <X 240 0
          /wVqdXN0
        >
        E 0 90 3f 60
        E 240 80 3f 00
        <X 240 0
          /wVkb24ndA==
        >
        E 0 90 3f 60
        E 300 80 3f 00
        <X 180 0
          /wVrbm93
        >
        E 0 90 3f 60
        E 240 80 3f 00
        E 60 90 01 60
        E 30 80 01 00
        <X 150 0
          /wUr
        >
        E 0 90 3d 60
        E 240 80 3d 00
        <X 240 0
          /wV3aGVyZQ==
        >
        E 0 90 3d 60
        E 390 80 3d 00
        <X 90 0
          /wV0aGU=
        >
        E 0 90 3a 60
        E 330 80 3a 00
        <X 150 0
          /wVoZWxs
        >
        E 0 90 3a 60
        E 240 80 3a 00
        <X 240 0
          /wVJ
        >
        E 0 90 3a 60
        E 240 80 3a 00
        <X 240 0
          /wViZS0=
        >
        E 0 90 3a 60
        E 180 80 3a 00
        <X 300 0
          /wVsb25n
        >
        E 0 90 3a 60
        E 1620 80 3a 00
        E 780 80 69 00
        E 0 80 74 00
        E 28800 90 69 60
        E 0 90 74 60
        <X 480 0
          /wVTaGU=
        >
        E 0 90 3a 60
        E 360 80 3a 00
        <X 120 0
          /wVyZS0=
        >
        E 0 90 3b 60
        E 300 80 3b 00
        <X 180 0
          /wVtZW0t
        >
        E 0 90 3f 60
        E 780 80 3f 00
        <X 180 0
          /wViZXJz
        >
        E 0 90 3b 60
        E 960 80 3b 00
        <X 960 0
          /wVteQ==
        >
        E 0 90 3f 60
        E 780 80 3f 00
        <X 180 0
          /wVuYW1l
        >
        E 0 90 3d 60
        E 2220 80 3d 00
        E 180 80 69 00
        E 0 80 74 00
        E 0 90 69 60
        <X 480 0
          /wVDb3VsZA==
        >
        E 0 90 3a 60
        E 300 80 3a 00
        <X 180 0
          /wViZQ==
        >
        E 0 90 3b 60
        E 300 80 3b 00
        <X 180 0
          /wVibG93LQ==
        >
        E 0 90 3d 60
        E 90 80 3d 00
        <X 30 0
          /wUr
        >
        E 0 90 3f 60
        E 660 80 3f 00
        <X 180 0
          /wVpbic=
        >
        E 0 90 3b 60
        E 960 80 3b 00
        <X 960 0
          /wV3YXk=
        >
        E 0 90 3f 60
        E 780 80 3f 00
        <X 180 0
          /wVvdXQ=
        >
        E 0 90 3d 60
        E 2220 80 3d 00
        E 180 80 69 00
        E 0 90 69 60
        <X 480 0
          /wVJdCdz
        >
        E 0 90 3a 60
        E 300 80 3a 00
        <X 180 0
          /wVhbGw=
        >
        E 0 90 3b 60
        E 300 80 3b 00
        <X 180 0
          /wVnby0=
        >
        E 0 90 3f 60
        E 780 80 3f 00
        <X 180 0
          /wVpbic=
        >
        E 0 90 3b 60
        E 960 80 3b 00
        <X 960 0
          /wV0bw==
        >
        E 0 90 3f 60
        E 660 80 3f 00
        <X 300 0
          /wVjaGFuZ2U=
        >
        E 0 90 3d 60
        E 2220 80 3d 00
        E 180 80 69 00
        E 0 90 69 60
        <X 480 0
          /wVTaGU=
        >
        E 0 90 3a 60
        E 300 80 3a 00
        <X 180 0
          /wVyZS0=
        >
        E 0 90 3b 60
        E 300 80 3b 00
        <X 180 0
          /wVtZW0t
        >
        E 0 90 3f 60
        E 780 80 3f 00
        <X 180 0
          /wViZXJz
        >
        E 0 90 3b 60
        E 960 80 3b 00
        <X 960 0
          /wVteQ==
        >
        E 0 90 3f 60
        E 780 80 3f 00
        <X 180 0
          /wVuYW1l
        >
        E 0 90 3d 60
        E 2460 80 3d 00
        E 420 80 69 00
        E 2880 90 69 60
        <X 480 0
          /wVTaGUncw==
        >
        E 0 90 44 60
        E 60 80 44 00
        <X 30 0
          /wUr
        >
        E 0 90 46 60
        E 3270 80 46 00
        <X 480 0
          /wVvbi0=
        >
        E 0 90 46 60
        E 300 80 46 00
        <X 180 0
          /wUr
        >
        E 0 90 44 60
        E 360 80 44 00
        <X 120 0
          /wVseQ==
        >
        E 0 90 44 60
        E 90 80 44 00
        <X 30 0
          /wUr
        >
        E 0 90 46 60
        E 180 80 46 00
        <X 180 0
          /wUr
        >
        E 0 90 44 60
        E 240 80 44 00
        E 30 90 01 60
        E 30 80 01 00
        <X 180 0
          /wVtZXNzLQ==
        >
        E 0 90 46 60
        E 360 80 46 00
        <X 120 0
          /wUr
        >
        E 0 90 44 60
        E 270 80 44 00
        <X 210 0
          /wVpbic=
        >
        E 0 90 42 60
        E 390 80 42 00
        <X 90 0
          /wVhLQ==
        >
        E 0 90 44 60
        E 270 80 44 00
        <X 210 0
          /wVyb3VuZA==
        >
        E 0 90 42 60
        E 1320 80 42 00
        <X 120 0
          /wUr
        >
        E 0 90 3f 60
        E 60 80 3f 00
        <X 30 0
          /wUr
        >
        E 0 90 41 60
        E 3120 80 41 00
        E 150 80 69 00
        E 0 90 69 60
        E 0 90 74 60
        <X 960 0
          /wVQbGVhc2U=
        >
        E 0 90 44 60
        E 60 80 44 00
        <X 30 0
          /wUr
        >
        E 0 90 46 60
        E 4770 80 46 00
        <X 900 0
          /wVubw==
        >
        E 0 90 46 60
        E 330 80 46 00
        <X 150 0
          /wUr
        >
        E 0 90 44 60
        E 360 80 44 00
        <X 120 0
          /wVtb3Jl
        >
        E 0 90 46 60
        E 420 80 46 00
        <X 540 0
          /wVwbGF5LQ==
        >
        E 0 90 46 60
        E 330 80 46 00
        <X 150 0
          /wVpbmc=
        >
        E 0 90 44 60
        E 240 80 44 00
        <X 240 0
          /wV3aXRo
        >
        E 0 90 42 60
        E 210 80 42 00
        <X 270 0
          /wVteQ==
        >
        E 0 90 44 60
        E 210 80 44 00
        <X 270 0
          /wVoZWFydA==
        >
        E 0 90 42 60
        E 1320 80 42 00
        <X 120 0
          /wUr
        >
        E 0 90 3f 60
        E 30 80 3f 00
        <X 60 0
          /wUr
        >
        E 0 90 41 60
        E 2880 80 41 00
        E 390 80 69 00
        E 0 80 74 00
        E 1920 90 69 60
        <X 480 0
          /wVPb2g=
        >
        E 0 90 44 60
        E 90 80 44 00
        <X 30 0
          /wUr
        >
        E 0 90 46 60
        E 3330 80 46 00
        <X 870 0
          /wVnbw==
        >
        E 0 90 46 60
        E 330 80 46 00
        <X 150 0
          /wV3aXRo
        >
        E 0 90 44 60
        E 270 80 44 00
        <X 210 0
          /wVNaXN0LQ==
        >
        E 0 90 46 60
        E 330 80 46 00
        <X 150 0
          /wVlcg==
        >
        E 0 90 44 60
        E 240 80 44 00
        <X 240 0
          /wVSaWdodA==
        >
        E 0 90 44 60
        E 60 80 44 00
        <X 30 0
          /wUr
        >
        E 0 90 46 60
        E 240 80 46 00
        <X 150 0
          /wUr
        >
        E 0 90 44 60
        E 240 80 44 00
        <X 240 0
          /wVqdXN0
        >
        E 0 90 42 60
        E 240 80 42 00
        <X 240 0
          /wVmb3I=
        >
        E 0 90 44 60
        E 210 80 44 00
        <X 270 0
          /wVvbmNl
        >
        E 0 90 42 60
        E 1320 80 42 00
        <X 120 0
          /wUr
        >
        E 0 90 3f 60
        E 60 80 3f 00
        <X 30 0
          /wUr
        >
        E 0 90 41 60
        E 2820 80 41 00
        E 900 80 69 00
        E 0 90 69 60
        E 0 90 74 60
        <X 510 0
          /wVPaGg=
        >
        E 0 90 44 60
        E 90 80 44 00
        <X 30 0
          /wUr
        >
        E 0 90 46 60
        E 5310 80 46 00
        <X 330 0
          /wVubw==
        >
        E 0 90 46 60
        E 300 80 46 00
        <X 180 0
          /wUr
        >
        E 0 90 44 60
        E 330 80 44 00
        <X 150 0
          /wVtb3Jl
        >
        E 0 90 46 60
        E 300 80 46 00
        <X 180 0
          /wUr
        >
        E 0 90 44 60
        E 210 80 44 00
        <X 270 0
          /wVtaXMt
        >
        E 0 90 46 60
        E 240 80 46 00
        <X 240 0
          /wVjaGllZg==
        >
        E 0 90 44 60
        E 240 80 44 00
        <X 240 0
          /wV3aXRo
        >
        E 0 90 42 60
        E 180 80 42 00
        <X 300 0
          /wVteQ==
        >
        E 0 90 44 60
        E 270 80 44 00
        <X 210 0
          /wVtaW5k
        >
        E 0 90 42 60
        E 1350 80 42 00
        <X 90 0
          /wUr
        >
        E 0 90 3f 60
        E 60 80 3f 00
        <X 30 0
          /wUr
        >
        E 0 90 41 60
        E 3210 80 41 00
        E 60 80 69 00
        E 0 80 74 00
        E 0 90 69 60
        E 6720 80 69 00
        E 0 90 69 60
        E 7680 80 69 00
        E 0 90 69 60
        E 7680 80 69 00
        E 0 90 69 60
        E 8160 80 69 00
        E 5280 90 69 60
        E 0 90 74 60
        <X 480 0
          /wVPaGg=
        >
        E 0 90 44 60
        E 60 80 44 00
        <X 30 0
          /wUr
        >
        E 0 90 46 60
        E 4020 80 46 00
        <X 210 0
          /wUr
        >
        E 0 90 44 60
        E 720 80 44 00
        <X 720 0
          /wVJ
        >
        E 0 90 46 60
        E 270 80 46 00
        <X 210 0
          /wV3YXM=
        >
        E 0 90 44 60
        E 270 80 44 00
        <X 210 0
          /wVqdXN0
        >
        E 0 90 46 60
        E 270 80 46 00
        <X 210 0
          /wVzbw==
        >
        E 0 90 44 60
        E 240 80 44 00
        <X 240 0
          /wVzdXJl
        >
        E 0 90 46 60
        E 330 80 46 00
        <X 150 0
          /wVvZg==
        >
        E 0 90 44 60
        E 270 80 44 00
        <X 210 0
          /wVldi0=
        >
        E 0 90 42 60
        E 330 80 42 00
        <X 150 0
          /wVlcnkt
        >
        E 0 90 44 60
        E 300 80 44 00
        <X 180 0
          /wV0aGluZw==
        >
        E 0 90 42 60
        E 1290 80 42 00
        <X 150 0
          /wUr
        >
        E 0 90 3f 60
        E 60 80 3f 00
        <X 90 0
          /wUr
        >
        E 0 90 41 60
        E 3180 80 41 00
        E 30 80 69 00
        E 0 80 74 00
        E 2400 90 69 60
        <X 480 0
          /wVPaGg=
        >
        E 0 90 46 60
        E 1590 80 46 00
        <X 330 0
          /wUr
        >
        E 0 90 41 60
        E 1170 80 41 00
        <X 270 0
          /wV0aGF0J3M=
        >
        E 0 90 41 60
        E 180 80 41 00
        <X 300 0
          /wV3aGF0
        >
        E 0 90 46 60
        E 210 80 46 00
        <X 270 0
          /wV5b3U=
        >
        E 0 90 44 60
        E 270 80 44 00
        <X 210 0
          /wVnZXQ=
        >
        E 0 90 46 60
        E 240 80 46 00
        <X 240 0
          /wVmb3I=
        >
        E 0 90 44 60
        E 210 80 44 00
        <X 270 0
          /wVkcmVhbS0=
        >
        E 0 90 46 60
        E 360 80 46 00
        <X 120 0
          /wUr
        >
        E 0 90 44 60
        E 330 80 44 00
        <X 150 0
          /wVpbic=
        >
        E 0 90 42 60
        E 300 80 42 00
        <X 180 0
          /wVhLQ==
        >
        E 0 90 44 60
        E 270 80 44 00
        <X 210 0
          /wVsb3Vk
        >
        E 0 90 42 60
        E 1350 80 42 00
        <X 90 0
          /wUr
        >
        E 0 90 3f 60
        E 90 80 3f 00
        <X 60 0
          /wUr
        >
        E 0 90 41 60
        E 3240 80 41 00
        E 420 80 69 00
        E 0 90 69 60
        E 6270 80 69 00
        E 0 90 69 60
        E 7680 80 69 00
        E 0 90 69 60
        <X 1920 0
          /wVPaGg=
        >
        E 0 90 44 60
        E 60 80 44 00
        <X 30 0
          /wUr
        >
        E 0 90 46 60
        E 5250 80 46 00
        <X 420 0
          /wVubw==
        >
        E 0 90 46 60
        E 330 80 46 00
        <X 150 0
          /wUr
        >
        E 0 90 44 60
        E 270 80 44 00
        <X 210 0
          /wVtb3Jl
        >
        E 0 90 46 60
        E 330 80 46 00
        <X 150 0
          /wVndWVzcy0=
        >
        E 0 90 44 60
        E 300 80 44 00
        <X 180 0
          /wVpbmc=
        >
        E 0 90 44 60
        E 60 80 44 00
        <X 30 0
          /wUr
        >
        E 0 90 46 60
        E 270 80 46 00
        <X 120 0
          /wUr
        >
        E 0 90 44 60
        E 330 80 44 00
        <X 150 0
          /wUr
        >
        E 0 90 42 60
        E 300 80 42 00
        <X 180 0
          /wVmb3I=
        >
        E 0 90 44 60
        E 300 80 44 00
        <X 180 0
          /wVtZQ==
        >
        E 0 90 42 60
        E 5606 80 42 00
        E 153 80 69 00
        E 7680 b0 7b 00
        GUID {EA2BDF6E-1F5B-4D8B-B5AE-892C04FD469C}
        IGNTEMPO 0 120.00000000 4 4
        SRCCOLOR 14
        VELLANE 132 128 60
        COLORMAP "C:\Program Files\REAPER (x64)\Data\color_maps\rockband_guitarbass.png"
        CFGEDITVIEW -22293.631403 4.067158 0 12 0 0 0
        CFGEDIT 1 1 0 1 1 0 1 1 1 1 1 0.25000000 -8 -8 1544 872 0 2 1 1 0.00000000 0 1 1 0 0.500000 0 0 1.000000 64
        KEYSNAP 0 6 "102030050700" 0 "Pentatonic"
        EVTFILTER 0 -1 -1 -1 -1 0 1 0 0 -1.00000000 -1.00000000
      >
    >
  >
  <TRACK '{1924A718-6485-40C7-8CAC-F6418F1EE4A5}'
    NAME "HARM2"
    PEAKCOL 16576
    BEAT -1
    AUTOMODE 0
    VOLPAN 1.00000000000000 0.00000000000000 -1.00000000000000 -1.00000000000000 1.00000000000000
    MUTESOLO 0 0 0
    IPHASE 0
    ISBUS 0 0
    BUSCOMP 0 0
    SHOWINMIX 1 0.666700 0.500000 1 0.500000 -1 -1 -1
    FREEMODE 0
    SEL 0
    REC 0 0 0 0 0 0 0
    VU 2
    TRACKHEIGHT 0 0
    INQ 0 0 0 0.5000000000 100 0 0 100
    NCHAN 2
    FX 0
    TRACKID {1924A718-6485-40C7-8CAC-F6418F1EE4A5}
    PERF 0
    MIDIOUT -1
    <MIDINOTENAMES
      0 105 "Phrase Marker"
      0 104 "----"
      0 84 "C6 (Unused Highest Note)"
      0 83 "B5"
      0 82 "A#4"
      0 81 "A4"
      0 80 "G#4"
      0 79 "G4"
      0 78 "F#4"
      0 77 "F4"
      0 76 "E4"
      0 75 "D#4"
      0 74 "D4"
      0 73 "C#4"
      0 72 "C4"
      0 71 "B3"
      0 70 "A#3"
      0 69 "A3"
      0 68 "G#3"
      0 67 "G3"
      0 66 "F#3"
      0 65 "F3"
      0 64 "E3"
      0 63 "D#3"
      0 62 "D3"
      0 61 "C#3"
      0 60 "C3"
      0 59 "B2"
      0 58 "A#2"
      0 57 "A2"
      0 56 "G#2"
      0 55 "G2"
      0 54 "F#2"
      0 53 "F2"
      0 52 "E2"
      0 51 "D#2"
      0 50 "D2"
      0 49 "C#2"
      0 48 "C2"
      0 47 "B1"
      0 46 "A#1"
      0 45 "A1"
      0 44 "G#1"
      0 43 "G1"
      0 42 "F#1"
      0 41 "F1"
      0 40 "E1"
      0 39 "D#1"
      0 38 "D1"
      0 37 "C#1"
      0 36 "Lowest Note C1"
    >
    MAINSEND 1 0
    <FXCHAIN
      WNDRECT 0 43 655 467
      SHOW 0
      LASTSEL 1
      DOCKED 0
      BYPASS 0 0
      <JS "MIDI/midi_note_filter" ""
        36.000000 84.000000 - - - - - - - - - - - - - - - - - - - - - - - - - - - - - - - - - - - - - - - - - - - - - - - - - - - - - - - - - - - - - - 
      >
      FLOATPOS 0 0 0 0
      FXID {98458871-DEC9-4A7D-9ED1-A32A576B20C1}
      WAK 0
      BYPASS 0 0
      <VST "VSTi: ReaSynth (Cockos)" "reasynth.dll" 0 ""
        eXNlcu9e7f4AAAAAAgAAAAEAAAAAAAAAAgAAAAAAAAA4AAAAAAAAAA==
        AAAQAO++rd4N8K3eppvEOxe30ToAAIA/AAAAAAAAAADMm4A+6WeIPQ==
        AAAAAAAAAD8AAIA/AACAPwAAAD8AABAAAAA=
      >
      FLOATPOS 0 0 0 0
      FXID {F58BC553-ADC8-448D-AE78-3B26E06802A8}
      WAK 0
    >
    <ITEM
      POSITION 0.00000000000000
      SNAPOFFS 0.00000000000000
      LENGTH 276.11399999999998
      LOOP 0
      ALLTAKES 0
      SEL 0
      FADEIN 1 0.000000 0.000000 1 0
      FADEOUT 1 0.000000 0.000000 1 0
      MUTE 0
      IGUID {88E7C465-6203-4A03-A795-FC897C0E03E4}
      IID 13
      NAME "HARM2"
      VOLPAN 1.000000 0.000000 1.000000 -1.000000
      SOFFS 0.00000000000000 0.00000000000000
      PLAYRATE 1.00000000000000 1 0.00000000000000 -1
      CHANMODE 0
      GUID {C29776E6-352A-42D8-9BD8-36A145ADB47A}
      <SOURCE MIDI
        HASDATA 1 480 QN
        POOLEDEVTS {C5608284-F719-441D-B1A9-9E9E0300C71A}
        <X 0 0
          /wNIQVJNMg==
        >
        E 36480 90 69 60
        <X 480 0
          /wVGZWVscw==
        >
        E 0 90 42 60
        E 300 80 42 00
        <X 180 0
          /wVsaWtl
        >
        E 0 90 42 60
        E 240 80 42 00
        <X 240 0
          /wVteQ==
        >
        E 0 90 42 60
        E 240 80 42 00
        <X 240 0
          /wVsaWZl
        >
        E 0 90 42 60
        E 300 80 42 00
        <X 180 0
          /wUr
        >
        E 0 90 41 60
        E 240 80 41 00
        <X 240 0
          /wVpcw==
        >
        E 0 90 41 60
        E 720 80 69 00
        E 0 80 41 00
        E 0 90 69 60
        <X 240 0
          /wVyZWEt
        >
        E 0 90 3f 60
        E 300 80 3f 00
        <X 180 0
          /wVkeQ==
        >
        E 0 90 3f 60
        E 240 80 3f 00
        <X 240 0
          /wV0bw==
        >
        E 0 90 3f 60
        E 180 80 3f 00
        <X 300 0
          /wVibG93
        >
        E 0 90 3f 60
        E 240 80 3f 00
        <X 240 0
          /wUr
        >
        E 0 90 3d 60
        E 1440 80 3d 00
        E 480 80 69 00
        E 0 90 69 60
        <X 480 0
          /wVNZQ==
        >
        E 0 90 42 60
        E 360 80 42 00
        <X 120 0
          /wVhbmQ=
        >
        E 0 90 42 60
        E 300 80 42 00
        <X 180 0
          /wVteQ==
        >
        E 0 90 42 60
        E 300 80 42 00
        <X 180 0
          /wVsb3Zl
        >
        E 0 90 42 60
        E 300 80 42 00
        <X 180 0
          /wUr
        >
        E 0 90 41 60
        E 300 80 41 00
        E 150 80 69 00
        E 0 90 69 60
        <X 30 0
          /wV3aWxs
        >
        E 0 90 41 60
        E 720 80 41 00
        <X 240 0
          /wV0YWtl
        >
        E 0 90 3f 60
        E 240 80 3f 00
        <X 240 0
          /wVpdA==
        >
        E 0 90 3f 60
        E 540 80 3f 00
        <X 420 0
          /wVzbG93
        >
        E 0 90 3f 60
        E 720 80 3f 00
        <X 480 0
          /wUr
        >
        E 0 90 3d 60
        E 720 80 3d 00
        E 720 80 69 00
        E 0 90 69 60
        <X 240 0
          /wVJ
        >
        E 0 90 42 60
        E 240 80 42 00
        <X 240 0
          /wVob3Bl
        >
        E 0 90 42 60
        E 240 80 42 00
        <X 240 0
          /wVzaGU=
        >
        E 0 90 42 60
        E 300 80 42 00
        <X 180 0
          /wVrbm93cw==
        >
        E 0 90 42 60
        E 240 80 42 00
        <X 240 0
          /wUr
        >
        E 0 90 41 60
        E 240 80 41 00
        <X 240 0
          /wV0aGF0
        >
        E 0 90 41 60
        E 720 80 41 00
        E 30 80 69 00
        E 0 90 69 60
        <X 60 0
          /wVJ
        >
        E 0 90 3f 60
        E 90 80 3f 00
        <X 60 0
          /wVsb3Zl
        >
        E 0 90 3f 60
        E 240 80 3f 00
        <X 240 0
          /wVoZXI=
        >
        E 0 90 3f 60
        E 420 80 3f 00
        <X 60 0
          /wVhLQ==
        >
        E 0 90 3f 60
        E 300 80 3f 00
        <X 180 0
          /wVsb25l
        >
        E 0 90 3f 60
        E 240 80 3f 00
        <X 240 0
          /wUr
        >
        E 0 90 3d 60
        E 1440 80 3d 00
        E 480 80 69 00
        E 0 90 69 60
        <X 480 0
          /wVJ
        >
        E 0 90 42 60
        E 240 80 42 00
        <X 240 0
          /wVqdXN0
        >
        E 0 90 42 60
        E 240 80 42 00
        <X 240 0
          /wVkb24ndA==
        >
        E 0 90 42 60
        E 300 80 42 00
        <X 180 0
          /wVrbm93
        >
        E 0 90 42 60
        E 240 80 42 00
        <X 240 0
          /wUr
        >
        E 0 90 41 60
        E 240 80 69 00
        E 0 80 41 00
        E 0 90 69 60
        <X 240 0
          /wV3aGVyZQ==
        >
        E 0 90 41 60
        E 390 80 41 00
        <X 90 0
          /wV0aGU=
        >
        E 0 90 41 60
        E 330 80 41 00
        <X 150 0
          /wVoZWxs
        >
        E 0 90 3f 60
        E 240 80 3f 00
        <X 240 0
          /wVJ
        >
        E 0 90 3f 60
        E 240 80 3f 00
        <X 240 0
          /wViZS0=
        >
        E 0 90 3f 60
        E 180 80 3f 00
        <X 300 0
          /wVsb25n
        >
        E 0 90 3f 60
        E 240 80 3f 00
        <X 240 0
          /wUr
        >
        E 0 90 3d 60
        E 360 80 3d 00
        <X 120 0
          /wVvaA==
        >
        E 0 90 3d 60
        E 60 80 3d 00
        <X 60 0
          /wUr
        >
        E 0 90 3f 60
        E 540 80 3f 00
        <X 60 0
          /wVubw==
        >
        E 0 90 3a 60
        E 660 80 3a 00
        E 64 80 69 00
        E 30716 90 69 60
        <X 480 0
          /wVGZWVscw==
        >
        E 0 90 42 60
        E 300 80 42 00
        <X 180 0
          /wVsaWtl
        >
        E 0 90 42 60
        E 240 80 42 00
        <X 240 0
          /wVteQ==
        >
        E 0 90 42 60
        E 240 80 42 00
        <X 240 0
          /wVsaWZl
        >
        E 0 90 42 60
        E 300 80 42 00
        <X 180 0
          /wUr
        >
        E 0 90 41 60
        E 240 80 41 00
        <X 240 0
          /wVpcw==
        >
        E 0 90 41 60
        E 720 80 69 00
        E 0 80 41 00
        E 0 90 69 60
        <X 240 0
          /wVyZWEt
        >
        E 0 90 3f 60
        E 300 80 3f 00
        <X 180 0
          /wVkeQ==
        >
        E 0 90 3f 60
        E 240 80 3f 00
        <X 240 0
          /wV0bw==
        >
        E 0 90 3f 60
        E 180 80 3f 00
        <X 300 0
          /wVibG93
        >
        E 0 90 3f 60
        E 240 80 3f 00
        <X 240 0
          /wUr
        >
        E 0 90 3d 60
        E 1440 80 3d 00
        E 480 80 69 00
        E 0 90 69 60
        <X 480 0
          /wVNZQ==
        >
        E 0 90 42 60
        E 360 80 42 00
        <X 120 0
          /wVhbmQ=
        >
        E 0 90 42 60
        E 300 80 42 00
        <X 180 0
          /wVteQ==
        >
        E 0 90 42 60
        E 300 80 42 00
        <X 180 0
          /wVsb3Zl
        >
        E 0 90 42 60
        E 300 80 42 00
        <X 180 0
          /wUr
        >
        E 0 90 41 60
        E 300 80 41 00
        E 150 80 69 00
        E 0 90 69 60
        <X 30 0
          /wV3aWxs
        >
        E 0 90 41 60
        E 720 80 41 00
        <X 240 0
          /wV0YWtl
        >
        E 0 90 3f 60
        E 240 80 3f 00
        <X 240 0
          /wVpdA==
        >
        E 0 90 3f 60
        E 540 80 3f 00
        <X 420 0
          /wVzbG93
        >
        E 0 90 3f 60
        E 720 80 3f 00
        <X 480 0
          /wUr
        >
        E 0 90 3d 60
        E 720 80 3d 00
        E 720 80 69 00
        E 0 90 69 60
        <X 240 0
          /wVJ
        >
        E 0 90 42 60
        E 240 80 42 00
        <X 240 0
          /wVob3Bl
        >
        E 0 90 42 60
        E 240 80 42 00
        <X 240 0
          /wVzaGU=
        >
        E 0 90 42 60
        E 300 80 42 00
        <X 180 0
          /wVrbm93cw==
        >
        E 0 90 42 60
        E 240 80 42 00
        <X 240 0
          /wUr
        >
        E 0 90 41 60
        E 240 80 41 00
        <X 240 0
          /wV0aGF0
        >
        E 0 90 41 60
        E 720 80 41 00
        E 30 80 69 00
        E 0 90 69 60
        <X 60 0
          /wVJ
        >
        E 0 90 3f 60
        E 90 80 3f 00
        <X 60 0
          /wVsb3Zl
        >
        E 0 90 3f 60
        E 240 80 3f 00
        <X 240 0
          /wVoZXI=
        >
        E 0 90 3f 60
        E 420 80 3f 00
        <X 60 0
          /wVhLQ==
        >
        E 0 90 3f 60
        E 300 80 3f 00
        <X 180 0
          /wVsb25l
        >
        E 0 90 3f 60
        E 240 80 3f 00
        <X 240 0
          /wUr
        >
        E 0 90 3d 60
        E 1440 80 3d 00
        E 480 80 69 00
        E 0 90 69 60
        <X 480 0
          /wVJ
        >
        E 0 90 42 60
        E 240 80 42 00
        <X 240 0
          /wVqdXN0
        >
        E 0 90 42 60
        E 240 80 42 00
        <X 240 0
          /wVkb24ndA==
        >
        E 0 90 42 60
        E 300 80 42 00
        <X 180 0
          /wVrbm93
        >
        E 0 90 42 60
        E 240 80 42 00
        <X 240 0
          /wUr
        >
        E 0 90 41 60
        E 240 80 69 00
        E 0 80 41 00
        E 0 90 69 60
        <X 240 0
          /wV3aGVyZQ==
        >
        E 0 90 41 60
        E 390 80 41 00
        <X 90 0
          /wV0aGU=
        >
        E 0 90 41 60
        E 330 80 41 00
        <X 150 0
          /wVoZWxs
        >
        E 0 90 3f 60
        E 240 80 3f 00
        <X 240 0
          /wVJ
        >
        E 0 90 3f 60
        E 240 80 3f 00
        <X 240 0
          /wViZS0=
        >
        E 0 90 3f 60
        E 180 80 3f 00
        <X 300 0
          /wVsb25n
        >
        E 0 90 3f 60
        E 240 80 3f 00
        <X 240 0
          /wUr
        >
        E 0 90 3d 60
        E 360 80 3d 00
        <X 120 0
          /wVvaA==
        >
        E 0 90 3d 60
        E 60 80 3d 00
        <X 60 0
          /wUr
        >
        E 0 90 3f 60
        E 540 80 3f 00
        <X 60 0
          /wVubw==
        >
        E 0 90 3a 60
        E 660 80 3a 00
        E 60 80 69 00
        E 28800 90 69 60
        <X 480 0
          /wVTaGU=
        >
        E 0 90 3d 60
        E 360 80 3d 00
        <X 120 0
          /wVyZS0=
        >
        E 0 90 3f 60
        E 300 80 3f 00
        <X 180 0
          /wVtZW0t
        >
        E 0 90 44 60
        E 90 80 44 00
        <X 30 0
          /wUr
        >
        E 0 90 46 60
        E 660 80 46 00
        <X 180 0
          /wViZXJz
        >
        E 0 90 3f 60
        E 960 80 3f 00
        <X 960 0
          /wVteQ==
        >
        E 0 90 47 60
        E 780 80 47 00
        <X 180 0
          /wVuYW1l
        >
        E 0 90 46 60
        E 2220 80 46 00
        E 180 80 69 00
        E 0 90 69 60
        <X 480 0
          /wVDb3VsZA==
        >
        E 0 90 3d 60
        E 300 80 3d 00
        <X 180 0
          /wViZQ==
        >
        E 0 90 3f 60
        E 300 80 3f 00
        <X 180 0
          /wVibG93LQ==
        >
        E 0 90 44 60
        E 90 80 44 00
        <X 30 0
          /wUr
        >
        E 0 90 46 60
        E 660 80 46 00
        <X 180 0
          /wVpbic=
        >
        E 0 90 3f 60
        E 960 80 3f 00
        <X 960 0
          /wV3YXk=
        >
        E 0 90 47 60
        E 780 80 47 00
        <X 180 0
          /wVvdXQ=
        >
        E 0 90 46 60
        E 2220 80 46 00
        E 180 80 69 00
        E 0 90 69 60
        <X 480 0
          /wVJdCdz
        >
        E 0 90 3d 60
        E 300 80 3d 00
        <X 180 0
          /wVhbGw=
        >
        E 0 90 3f 60
        E 300 80 3f 00
        <X 180 0
          /wVnby0=
        >
        E 0 90 44 60
        E 60 80 44 00
        <X 60 0
          /wUr
        >
        E 0 90 46 60
        E 660 80 46 00
        <X 180 0
          /wVpbic=
        >
        E 0 90 3f 60
        E 960 80 3f 00
        <X 960 0
          /wV0bw==
        >
        E 0 90 47 60
        E 660 80 47 00
        <X 300 0
          /wVjaGFuZ2U=
        >
        E 0 90 46 60
        E 2220 80 46 00
        E 180 80 69 00
        E 0 90 69 60
        <X 480 0
          /wVTaGU=
        >
        E 0 90 3d 60
        E 300 80 3d 00
        <X 180 0
          /wVyZS0=
        >
        E 0 90 3f 60
        E 300 80 3f 00
        <X 180 0
          /wVtZW0t
        >
        E 0 90 44 60
        E 60 80 44 00
        <X 60 0
          /wUr
        >
        E 0 90 46 60
        E 660 80 46 00
        <X 180 0
          /wViZXJz
        >
        E 0 90 3f 60
        E 960 80 3f 00
        <X 960 0
          /wVteQ==
        >
        E 0 90 47 60
        E 780 80 47 00
        <X 180 0
          /wVuYW1l
        >
        E 0 90 46 60
        E 2460 80 46 00
        E 420 80 69 00
        E 45600 90 69 60
        <X 480 0
          /wVUaGVu
        >
        E 0 90 3d 60
        E 360 80 3d 00
        <X 120 0
          /wVpdA==
        >
        E 0 90 3f 60
        E 300 80 3f 00
        <X 180 0
          /wVhbGw=
        >
        E 0 90 41 60
        E 60 80 41 00
        <X 60 0
          /wUr
        >
        E 0 90 42 60
        E 660 80 42 00
        <X 180 0
          /wVqdXN0
        >
        E 0 90 3f 60
        E 1020 80 3f 00
        <X 900 0
          /wVjYW1l
        >
        E 0 90 42 60
        E 780 80 42 00
        <X 180 0
          /wVvdXQ=
        >
        E 0 90 41 60
        E 2220 80 41 00
        E 180 80 69 00
        E 0 90 69 60
        <X 480 0
          /wVHdWVzcw==
        >
        E 0 90 3d 60
        E 360 80 3d 00
        <X 120 0
          /wVJJ2xs
        >
        E 0 90 3f 60
        E 300 80 3f 00
        <X 180 0
          /wVob2xk
        >
        E 0 90 41 60
        E 60 80 41 00
        <X 60 0
          /wUr
        >
        E 0 90 42 60
        E 660 80 42 00
        <X 180 0
          /wVpbg==
        >
        E 0 90 3f 60
        E 960 80 3f 00
        <X 960 0
          /wVuZXh0
        >
        E 0 90 42 60
        E 780 80 42 00
        <X 180 0
          /wV0aW1l
        >
        E 0 90 41 60
        E 2220 80 41 00
        E 180 80 69 00
        E 0 90 69 60
        <X 480 0
          /wVObw==
        >
        E 0 90 3d 60
        E 330 80 3d 00
        <X 150 0
          /wVtb3Jl
        >
        E 0 90 3f 60
        E 240 80 3f 00
        <X 240 0
          /wVnZXQt
        >
        E 0 90 46 60
        E 840 80 46 00
        <X 120 0
          /wV0aW4n
        >
        E 0 90 3f 60
        E 960 80 3f 00
        <X 960 0
          /wVpdA==
        >
        E 0 90 47 60
        E 540 80 47 00
        <X 420 0
          /wV3cm9uZw==
        >
        E 0 90 46 60
        E 2280 80 46 00
        E 120 80 69 00
        E 0 90 69 60
        <X 480 0
          /wVJJ2xs
        >
        E 0 90 3d 60
        E 330 80 3d 00
        <X 150 0
          /wViZQ==
        >
        E 0 90 3f 60
        E 240 80 3f 00
        <X 240 0
          /wVmcm8t
        >
        E 0 90 46 60
        E 750 80 46 00
        <X 210 0
          /wV6ZW4=
        >
        E 0 90 3f 60
        E 960 80 3f 00
        <X 960 0
          /wVoZXJl
        >
        E 0 90 47 60
        E 720 80 47 00
        <X 240 0
          /wVvbg==
        >
        E 0 90 46 60
        E 2280 80 46 00
        E 120 80 69 00
        E 0 90 69 60
        <X 480 0
          /wVJZg==
        >
        E 0 90 3d 60
        E 330 80 3d 00
        <X 150 0
          /wVmb3It
        >
        E 0 90 3f 60
        E 270 80 3f 00
        <X 210 0
          /wVlLQ==
        >
        E 0 90 46 60
        E 750 80 46 00
        <X 210 0
          /wV2ZXI=
        >
        E 0 90 3f 60
        E 960 80 3f 00
        <X 960 0
          /wV3ZSdsbA==
        >
        E 0 90 47 60
        E 540 80 47 00
        <X 420 0
          /wVzZWU=
        >
        E 0 90 46 60
        E 2280 80 46 00
        E 120 80 69 00
        E 0 90 69 60
        <X 480 0
          /wVObw==
        >
        E 0 90 3d 60
        E 330 80 3d 00
        <X 150 0
          /wVtb3Jl
        >
        E 0 90 3f 60
        E 240 80 3f 00
        <X 240 0
          /wVndWVzcy0=
        >
        E 0 90 46 60
        E 780 80 46 00
        <X 180 0
          /wVpbic=
        >
        E 0 90 3f 60
        E 960 80 3f 00
        <X 960 0
          /wVmb3I=
        >
        E 0 90 47 60
        E 600 80 47 00
        <X 360 0
          /wVtZQ==
        >
        E 0 90 46 60
        E 2700 80 46 00
        E 180 80 69 00
        E 34560 90 69 60
        <X 480 0
          /wVUaGVu
        >
        E 0 90 3d 60
        E 360 80 3d 00
        <X 120 0
          /wVpdA==
        >
        E 0 90 3f 60
        E 300 80 3f 00
        <X 180 0
          /wVhbGw=
        >
        E 0 90 41 60
        E 60 80 41 00
        <X 60 0
          /wUr
        >
        E 0 90 42 60
        E 660 80 42 00
        <X 180 0
          /wVqdXN0
        >
        E 0 90 3f 60
        E 1020 80 3f 00
        <X 900 0
          /wVjYW1l
        >
        E 0 90 42 60
        E 300 80 42 00
        <X 90 0
          /wUr
        >
        E 0 90 44 60
        E 390 80 44 00
        <X 180 0
          /wVvdXQ=
        >
        E 0 90 41 60
        E 2220 80 41 00
        E 180 80 69 00
        E 0 90 69 60
        <X 480 0
          /wVHdWVzcw==
        >
        E 0 90 3d 60
        E 360 80 3d 00
        <X 120 0
          /wVJJ2xs
        >
        E 0 90 3f 60
        E 300 80 3f 00
        <X 180 0
          /wVob2xk
        >
        E 0 90 41 60
        E 60 80 41 00
        <X 60 0
          /wUr
        >
        E 0 90 42 60
        E 660 80 42 00
        <X 180 0
          /wVpbg==
        >
        E 0 90 3f 60
        E 960 80 3f 00
        <X 960 0
          /wVub3c=
        >
        E 0 90 42 60
        E 300 80 42 00
        <X 90 0
          /wUr
        >
        E 0 90 44 60
        E 390 80 44 00
        <X 180 0
          /wVvbg==
        >
        E 0 90 41 60
        E 2220 80 41 00
        E 180 80 69 00
        E 0 90 69 60
        <X 480 0
          /wVJZg==
        >
        E 0 90 3d 60
        E 360 80 3d 00
        <X 120 0
          /wVmb3It
        >
        E 0 90 3f 60
        E 240 80 3f 00
        <X 240 0
          /wVlLQ==
        >
        E 0 90 41 60
        E 60 80 41 00
        <X 30 0
          /wUr
        >
        E 0 90 42 60
        E 690 80 42 00
        <X 180 0
          /wV2ZXI=
        >
        E 0 90 3f 60
        E 960 80 3f 00
        <X 960 0
          /wV3ZSdsbA==
        >
        E 0 90 44 60
        E 750 80 44 00
        <X 210 0
          /wVzZWU=
        >
        E 0 90 42 60
        E 2220 80 42 00
        E 180 80 69 00
        E 0 90 69 60
        <X 480 0
          /wVObw==
        >
        E 0 90 3d 60
        E 360 80 3d 00
        <X 120 0
          /wVtb3Jl
        >
        E 0 90 3f 60
        E 240 80 3f 00
        <X 240 0
          /wVndWVzcy0=
        >
        E 0 90 41 60
        E 60 80 41 00
        <X 30 0
          /wUr
        >
        E 0 90 42 60
        E 690 80 42 00
        <X 180 0
          /wVpbic=
        >
        E 0 90 3f 60
        E 960 80 3f 00
        <X 960 0
          /wVmb3I=
        >
        E 0 90 47 60
        E 750 80 47 00
        <X 210 0
          /wVtZQ==
        >
        E 0 90 46 60
        E 2850 80 46 00
        E 509 80 69 00
        E 8640 b0 7b 00
        GUID {A5D71075-B2F2-47B7-9F27-FB0BA9903F52}
        IGNTEMPO 0 120.00000000 4 4
        SRCCOLOR 15
        VELLANE 132 128 60
        COLORMAP "C:\Program Files\REAPER (x64)\Data\color_maps\rockband_guitarbass.png"
        CFGEDITVIEW -22293.631403 4.067158 0 12 0 0 0
        CFGEDIT 1 1 0 1 1 0 1 1 1 1 1 0.25000000 -8 -8 1544 872 0 2 1 1 0.00000000 0 1 1 0 0.500000 0 0 1.000000 64
        KEYSNAP 0 7 "102030050700" 0 "Pentatonic"
        EVTFILTER 0 -1 -1 -1 -1 0 1 0 0 -1.00000000 -1.00000000
      >
    >
  >
  <TRACK '{B3058C37-3FA5-4E32-9F92-574DB6D84A90}'
    NAME "HARM3"
    PEAKCOL 16576
    BEAT -1
    AUTOMODE 0
    VOLPAN 1.00000000000000 0.57800000000000 -1.00000000000000 -1.00000000000000 1.00000000000000
    MUTESOLO 0 0 0
    IPHASE 0
    ISBUS 2 -1
    BUSCOMP 0 0
    SHOWINMIX 1 0.666700 0.500000 1 0.500000 -1 -1 -1
    FREEMODE 0
    SEL 0
    REC 0 0 0 0 0 0 0
    VU 2
    TRACKHEIGHT 0 0
    INQ 0 0 0 0.5000000000 100 0 0 100
    NCHAN 2
    FX 0
    TRACKID {B3058C37-3FA5-4E32-9F92-574DB6D84A90}
    PERF 0
    MIDIOUT -1
    <MIDINOTENAMES
      0 84 "C6 (Unused Highest Note)"
      0 83 "B5"
      0 82 "A#4"
      0 81 "A4"
      0 80 "G#4"
      0 79 "G4"
      0 78 "F#4"
      0 77 "F4"
      0 76 "E4"
      0 75 "D#4"
      0 74 "D4"
      0 73 "C#4"
      0 72 "C4"
      0 71 "B3"
      0 70 "A#3"
      0 69 "A3"
      0 68 "G#3"
      0 67 "G3"
      0 66 "F#3"
      0 65 "F3"
      0 64 "E3"
      0 63 "D#3"
      0 62 "D3"
      0 61 "C#3"
      0 60 "C3"
      0 59 "B2"
      0 58 "A#2"
      0 57 "A2"
      0 56 "G#2"
      0 55 "G2"
      0 54 "F#2"
      0 53 "F2"
      0 52 "E2"
      0 51 "D#2"
      0 50 "D2"
      0 49 "C#2"
      0 48 "C2"
      0 47 "B1"
      0 46 "A#1"
      0 45 "A1"
      0 44 "G#1"
      0 43 "G1"
      0 42 "F#1"
      0 41 "F1"
      0 40 "E1"
      0 39 "D#1"
      0 38 "D1"
      0 37 "C#1"
      0 36 "Lowest Note C1"
    >
    MAINSEND 1 0
    <FXCHAIN
      WNDRECT 0 43 655 467
      SHOW 0
      LASTSEL 1
      DOCKED 0
      BYPASS 0 0
      <JS "MIDI/midi_note_filter" ""
        36.000000 84.000000 - - - - - - - - - - - - - - - - - - - - - - - - - - - - - - - - - - - - - - - - - - - - - - - - - - - - - - - - - - - - - - 
      >
      FLOATPOS 0 0 0 0
      FXID {A9BB5B0C-9B65-4EF9-B963-936EF08C0F74}
      WAK 0
      BYPASS 0 0
      <VST "VSTi: ReaSynth (Cockos)" "reasynth.dll" 0 ""
        eXNlcu9e7f4AAAAAAgAAAAEAAAAAAAAAAgAAAAAAAAA4AAAAAAAAAA==
        AAAQAO++rd4N8K3eppvEOxe30ToAAIA/AAAAAAAAAABYb68+6WeIPQ==
        AAAAAAAAAD8AAIA/AACAPwAAAD8AABAAAAA=
      >
      FLOATPOS 0 0 0 0
      FXID {69A5B263-5169-45A2-B8B5-0ECC19CBFAE6}
      WAK 0
    >
    <ITEM
      POSITION 0.00000000000000
      SNAPOFFS 0.00000000000000
      LENGTH 276.11399999999998
      LOOP 0
      ALLTAKES 0
      SEL 0
      FADEIN 1 0.000000 0.000000 1 0
      FADEOUT 1 0.000000 0.000000 1 0
      MUTE 0
      IGUID {E51CB3F3-3756-42FE-9B55-7BABCD3A0BEA}
      IID 14
      NAME "HARM3"
      VOLPAN 1.000000 0.000000 1.000000 -1.000000
      SOFFS 0.00000000000000 0.00000000000000
      PLAYRATE 1.00000000000000 1 0.00000000000000 -1
      CHANMODE 0
      GUID {4F2C0A6B-8944-4834-87B0-AD1565249036}
      <SOURCE MIDI
        HASDATA 1 480 QN
        POOLEDEVTS {E1B6F4E5-4777-487B-B0A6-5DAA5E1A18F5}
        <X 0 0
          /wNIQVJNMw==
        >
        <X 234720 0
          /wVUaGVu
        >
        E 0 90 3a 60
        E 360 80 3a 00
        <X 120 0
          /wVpdA==
        >
        E 0 90 3b 60
        E 300 80 3b 00
        <X 180 0
          /wVhbGw=
        >
        E 0 90 3d 60
        E 60 80 3d 00
        <X 60 0
          /wUr
        >
        E 0 90 3f 60
        E 660 80 3f 00
        <X 180 0
          /wVqdXN0
        >
        E 0 90 3b 60
        E 1020 80 3b 00
        <X 900 0
          /wVjYW1l
        >
        E 0 90 3f 60
        E 780 80 3f 00
        <X 180 0
          /wVvdXQ=
        >
        E 0 90 3d 60
        E 2220 80 3d 00
        <X 660 0
          /wVHdWVzcw==
        >
        E 0 90 3a 60
        E 360 80 3a 00
        <X 120 0
          /wVJJ2xs
        >
        E 0 90 3b 60
        E 300 80 3b 00
        <X 180 0
          /wVob2xk
        >
        E 0 90 3d 60
        E 60 80 3d 00
        <X 60 0
          /wUr
        >
        E 0 90 3f 60
        E 660 80 3f 00
        <X 180 0
          /wVpbg==
        >
        E 0 90 3b 60
        E 960 80 3b 00
        <X 960 0
          /wVuZXh0
        >
        E 0 90 3f 60
        E 780 80 3f 00
        <X 180 0
          /wV0aW1l
        >
        E 0 90 3d 60
        E 2220 80 3d 00
        <X 660 0
          /wVObw==
        >
        E 0 90 3a 60
        E 330 80 3a 00
        <X 150 0
          /wVtb3Jl
        >
        E 0 90 3b 60
        E 240 80 3b 00
        <X 240 0
          /wVnZXQt
        >
        E 0 90 3f 60
        E 840 80 3f 00
        <X 120 0
          /wV0aW4n
        >
        E 0 90 3b 60
        E 960 80 3b 00
        <X 960 0
          /wVpdA==
        >
        E 0 90 3f 60
        E 540 80 3f 00
        <X 420 0
          /wV3cm9uZw==
        >
        E 0 90 3d 60
        E 2280 80 3d 00
        <X 600 0
          /wVJJ2xs
        >
        E 0 90 3a 60
        E 330 80 3a 00
        <X 150 0
          /wViZQ==
        >
        E 0 90 3b 60
        E 240 80 3b 00
        <X 240 0
          /wVmcm8t
        >
        E 0 90 3f 60
        E 750 80 3f 00
        <X 210 0
          /wV6ZW4=
        >
        E 0 90 3b 60
        E 960 80 3b 00
        <X 960 0
          /wVoZXJl
        >
        E 0 90 3f 60
        E 720 80 3f 00
        <X 240 0
          /wVvbg==
        >
        E 0 90 3d 60
        E 2280 80 3d 00
        <X 600 0
          /wVJZg==
        >
        E 0 90 3a 60
        E 330 80 3a 00
        <X 150 0
          /wVmb3It
        >
        E 0 90 3b 60
        E 270 80 3b 00
        <X 210 0
          /wVlLQ==
        >
        E 0 90 3f 60
        E 750 80 3f 00
        <X 210 0
          /wV2ZXI=
        >
        E 0 90 3b 60
        E 960 80 3b 00
        <X 960 0
          /wV3ZSdsbA==
        >
        E 0 90 3f 60
        E 540 80 3f 00
        <X 420 0
          /wVzZWU=
        >
        E 0 90 3d 60
        E 2280 80 3d 00
        <X 600 0
          /wVObw==
        >
        E 0 90 3a 60
        E 330 80 3a 00
        <X 150 0
          /wVtb3Jl
        >
        E 0 90 3b 60
        E 240 80 3b 00
        <X 240 0
          /wVndWVzcy0=
        >
        E 0 90 3f 60
        E 780 80 3f 00
        <X 180 0
          /wVpbic=
        >
        E 0 90 3b 60
        E 960 80 3b 00
        <X 960 0
          /wVmb3I=
        >
        E 0 90 3f 60
        E 600 80 3f 00
        <X 360 0
          /wVtZQ==
        >
        E 0 90 3d 60
        E 2700 80 3d 00
        <X 35220 0
          /wVUaGVu
        >
        E 0 90 3a 60
        E 360 80 3a 00
        <X 120 0
          /wVpdA==
        >
        E 0 90 3b 60
        E 300 80 3b 00
        <X 180 0
          /wVhbGw=
        >
        E 0 90 3d 60
        E 60 80 3d 00
        <X 60 0
          /wUr
        >
        E 0 90 3f 60
        E 660 80 3f 00
        <X 180 0
          /wVqdXN0
        >
        E 0 90 3b 60
        E 1020 80 3b 00
        <X 900 0
          /wVjYW1l
        >
        E 0 90 3f 60
        E 780 80 3f 00
        <X 180 0
          /wVvdXQ=
        >
        E 0 90 3d 60
        E 2220 80 3d 00
        <X 660 0
          /wVHdWVzcw==
        >
        E 0 90 3a 60
        E 360 80 3a 00
        <X 120 0
          /wVJJ2xs
        >
        E 0 90 3b 60
        E 300 80 3b 00
        <X 180 0
          /wVob2xk
        >
        E 0 90 3d 60
        E 60 80 3d 00
        <X 60 0
          /wUr
        >
        E 0 90 3f 60
        E 660 80 3f 00
        <X 180 0
          /wVpbg==
        >
        E 0 90 3b 60
        E 960 80 3b 00
        <X 960 0
          /wVub3c=
        >
        E 0 90 3f 60
        E 780 80 3f 00
        <X 180 0
          /wVvbg==
        >
        E 0 90 3d 60
        E 2220 80 3d 00
        <X 660 0
          /wVJZg==
        >
        E 0 90 3a 60
        E 360 80 3a 00
        <X 120 0
          /wVmb3It
        >
        E 0 90 3b 60
        E 240 80 3b 00
        <X 240 0
          /wVlLQ==
        >
        E 0 90 3d 60
        E 60 80 3d 00
        <X 30 0
          /wUr
        >
        E 0 90 3f 60
        E 690 80 3f 00
        <X 180 0
          /wV2ZXI=
        >
        E 0 90 3b 60
        E 960 80 3b 00
        <X 960 0
          /wV3ZSdsbA==
        >
        E 0 90 3f 60
        E 750 80 3f 00
        <X 210 0
          /wVzZWU=
        >
        E 0 90 3d 60
        E 2220 80 3d 00
        <X 660 0
          /wVObw==
        >
        E 0 90 3a 60
        E 360 80 3a 00
        <X 120 0
          /wVtb3Jl
        >
        E 0 90 3b 60
        E 240 80 3b 00
        <X 240 0
          /wVndWVzcy0=
        >
        E 0 90 3d 60
        E 60 80 3d 00
        <X 30 0
          /wUr
        >
        E 0 90 3f 60
        E 690 80 3f 00
        <X 180 0
          /wVpbic=
        >
        E 0 90 3b 60
        E 960 80 3b 00
        <X 960 0
          /wVmb3I=
        >
        E 0 90 3f 60
        E 750 80 3f 00
        <X 210 0
          /wVtZQ==
        >
        E 0 90 3d 60
        E 2850 80 3d 00
        E 9149 b0 7b 00
        GUID {00A54FFD-EDCF-4CAB-8548-7FBFA2EC72E4}
        IGNTEMPO 0 120.00000000 4 4
        SRCCOLOR 16
        VELLANE 132 128 60
        COLORMAP "C:\Program Files\REAPER (x64)\Data\color_maps\rockband_guitarbass.png"
        CFGEDITVIEW -22293.631403 4.067158 8 12 0 0 0
        CFGEDIT 1 1 0 1 1 0 1 1 1 1 1 0.25000000 -8 -8 1544 872 0 2 1 1 0.00000000 0 1 1 0 0.500000 0 0 1.000000 64
        KEYSNAP 0 6 "102030050700" 0 "Pentatonic"
        EVTFILTER 0 -1 -1 -1 -1 0 1 0 0 -1.00000000 -1.00000000
      >
    >
  >
  <TRACK '{0ADA9EE5-18C4-4D30-8FCF-FB5775E9A701}'
    NAME "PART KEYS"
    PEAKCOL 16576
    BEAT -1
    AUTOMODE 0
    VOLPAN 1.00000000000000 0.00000000000000 -1.00000000000000 -1.00000000000000 1.00000000000000
    MUTESOLO 0 0 0
    IPHASE 0
    ISBUS 1 1
    BUSCOMP 0 0
    SHOWINMIX 1 0.666700 0.500000 1 0.500000 -1 -1 -1
    FREEMODE 0
    SEL 0
    REC 0 0 0 0 0 0 0
    VU 2
    TRACKHEIGHT 0 0
    INQ 0 0 0 0.5000000000 100 0 0 100
    NCHAN 2
    FX 1
    TRACKID {0ADA9EE5-18C4-4D30-8FCF-FB5775E9A701}
    PERF 0
    MIDIOUT -1
    <MIDINOTENAMES
      0 127 "TRILL MARKER"
      0 125 "---"
      0 124 "BRE"
      0 123 "BRE"
      0 122 "BRE"
      0 121 "BRE"
      0 120 "BRE (use all 5)"
      0 119 "----"
      0 116 "OVERDRIVE"
      0 115 "----"
      0 103 "Solo Marker"
      0 102 "Force HOPO Off"
      0 101 "Force HOPO On"
      0 100 "EXPERT Orange"
      0 99 "EXPERT Blue"
      0 98 "EXPERT Yellow"
      0 97 "EXPERT Red"
      0 96 "EXPERT Green"
      0 95 "----"
      0 90 "Force HOPO Off"
      0 89 "Force HOPO On"
      0 88 "HARD Orange"
      0 87 "HARD Blue"
      0 86 "HARD Yellow"
      0 85 "HARD Red"
      0 84 "HARD Green"
      0 77 "----"
      0 76 "MEDIUM Orange"
      0 75 "MEDIUM Blue"
      0 74 "MEDIUM Yellow"
      0 73 "MEDIUM Red"
      0 72 "MEDIUM Green"
      0 65 "----"
      0 64 "EASY Orange"
      0 63 "EASY Blue"
      0 62 "EASY Yellow"
      0 61 "EASY Red"
      0 60 "EASY Green"
    >
    MAINSEND 1 0
    <FXCHAIN
      WNDRECT 0 43 891 559
      SHOW 0
      LASTSEL 0
      DOCKED 0
      BYPASS 0 0
      <VST "VSTi: RBN Preview (RBN)" "rbprev_vst64.dll" 0 ""
        dnBicu5e7f4AAAAAAgAAAAEAAAAAAAAAAgAAAAAAAAAEAAAAAQAAAA==
        AAAQAAIAqgAAABAAAAA=
      >
      FLOATPOS 0 0 0 0
      FXID {F7A6C1DD-14D7-4D26-A8B1-8B1CACC1646A}
      WAK 0
    >
    <ITEM
      POSITION 0.00000000000000
      SNAPOFFS 0.00000000000000
      LENGTH 276.11399999999998
      LOOP 0
      ALLTAKES 0
      SEL 0
      FADEIN 1 0.000000 0.000000 1 0
      FADEOUT 1 0.000000 0.000000 1 0
      MUTE 0
      IGUID {B1B8F7A0-83B6-45E2-8CEE-F05335734BDC}
      IID 4
      NAME "PART KEYS"
      VOLPAN 1.000000 0.000000 1.000000 -1.000000
      SOFFS 0.00000000000000 0.00000000000000
      PLAYRATE 1.00000000000000 1 0.00000000000000 -1
      CHANMODE 0
      GUID {C2841F0C-D375-4A65-8ACD-D092246B02FD}
      <SOURCE MIDI
        HASDATA 1 480 QN
        POOLEDEVTS {2B04FD03-3374-4B31-B1F9-2C88175531C5}
        <X 0 0
          /wNQQVJUIEtFWVM=
        >
        <X 5760 0
          /wFbaWRsZV0=
        >
        <X 184320 0
          /wFbaW50ZW5zZV0=
        >
        E 0 90 61 60
        E 0 90 63 60
        E 0 90 64 60
        E 0 90 56 60
        E 0 90 58 60
        E 0 90 4a 60
        E 0 90 4b 60
        E 0 90 3e 60
        E 120 80 61 00
        E 0 80 63 00
        E 0 80 64 00
        E 0 80 56 00
        E 0 80 58 00
        E 0 80 4a 00
        E 0 80 4b 00
        E 0 80 3e 00
        E 840 90 61 60
        E 0 90 63 60
        E 0 90 64 60
        E 0 90 56 60
        E 0 90 58 60
        E 0 90 4a 60
        E 0 90 4b 60
        E 0 90 3e 60
        E 120 80 61 00
        E 0 80 63 00
        E 0 80 64 00
        E 0 80 56 00
        E 0 80 58 00
        E 0 80 4a 00
        E 0 80 4b 00
        E 0 80 3e 00
        E 360 90 61 60
        E 0 90 63 60
        E 0 90 64 60
        E 0 90 56 60
        E 0 90 58 60
        E 0 90 4a 60
        E 0 90 4b 60
        E 0 90 3e 60
        E 120 80 61 00
        E 0 80 63 00
        E 0 80 64 00
        E 0 80 56 00
        E 0 80 58 00
        E 0 80 4a 00
        E 0 80 4b 00
        E 0 80 3e 00
        E 840 90 61 60
        E 0 90 63 60
        E 0 90 64 60
        E 0 90 56 60
        E 0 90 58 60
        E 0 90 4a 60
        E 0 90 4b 60
        E 0 90 3e 60
        E 120 80 61 00
        E 0 80 63 00
        E 0 80 64 00
        E 0 80 56 00
        E 0 80 58 00
        E 0 80 4a 00
        E 0 80 4b 00
        E 0 80 3e 00
        E 600 90 61 60
        E 0 90 63 60
        E 0 90 64 60
        E 0 90 56 60
        E 0 90 58 60
        E 0 90 4a 60
        E 0 90 4b 60
        E 120 80 61 00
        E 0 80 63 00
        E 0 80 64 00
        E 0 80 56 00
        E 0 80 58 00
        E 0 80 4a 00
        E 0 80 4b 00
        E 600 90 60 60
        E 0 90 62 60
        E 0 90 63 60
        E 0 90 54 60
        E 0 90 57 60
        E 0 90 49 60
        E 0 90 4b 60
        E 0 90 3e 60
        E 120 80 60 00
        E 0 80 62 00
        E 0 80 63 00
        E 0 80 54 00
        E 0 80 57 00
        E 0 80 49 00
        E 0 80 4b 00
        E 0 80 3e 00
        E 840 90 60 60
        E 0 90 62 60
        E 0 90 63 60
        E 0 90 54 60
        E 0 90 57 60
        E 0 90 49 60
        E 0 90 4b 60
        E 0 90 3e 60
        E 120 80 60 00
        E 0 80 62 00
        E 0 80 63 00
        E 0 80 54 00
        E 0 80 57 00
        E 0 80 49 00
        E 0 80 4b 00
        E 0 80 3e 00
        E 360 90 60 60
        E 0 90 62 60
        E 0 90 63 60
        E 0 90 54 60
        E 0 90 57 60
        E 0 90 49 60
        E 0 90 4b 60
        E 0 90 3e 60
        E 120 80 60 00
        E 0 80 62 00
        E 0 80 63 00
        E 0 80 54 00
        E 0 80 57 00
        E 0 80 49 00
        E 0 80 4b 00
        E 0 80 3e 00
        E 840 90 60 60
        E 0 90 62 60
        E 0 90 63 60
        E 0 90 54 60
        E 0 90 57 60
        E 0 90 49 60
        E 0 90 4b 60
        E 0 90 3e 60
        E 120 80 60 00
        E 0 80 62 00
        E 0 80 63 00
        E 0 80 54 00
        E 0 80 57 00
        E 0 80 49 00
        E 0 80 4b 00
        E 0 80 3e 00
        E 600 90 60 60
        E 0 90 62 60
        E 0 90 63 60
        E 0 90 54 60
        E 0 90 57 60
        E 0 90 49 60
        E 0 90 4b 60
        E 120 80 60 00
        E 0 80 62 00
        E 0 80 63 00
        E 0 80 54 00
        E 0 80 57 00
        E 0 80 49 00
        E 0 80 4b 00
        E 600 90 61 60
        E 0 90 63 60
        E 0 90 64 60
        E 0 90 56 60
        E 0 90 58 60
        E 0 90 4a 60
        E 0 90 4b 60
        E 0 90 3e 60
        E 120 80 61 00
        E 0 80 63 00
        E 0 80 64 00
        E 0 80 56 00
        E 0 80 58 00
        E 0 80 4a 00
        E 0 80 4b 00
        E 0 80 3e 00
        E 840 90 61 60
        E 0 90 63 60
        E 0 90 64 60
        E 0 90 56 60
        E 0 90 58 60
        E 0 90 4a 60
        E 0 90 4b 60
        E 0 90 3e 60
        E 120 80 61 00
        E 0 80 63 00
        E 0 80 64 00
        E 0 80 56 00
        E 0 80 58 00
        E 0 80 4a 00
        E 0 80 4b 00
        E 0 80 3e 00
        E 360 90 61 60
        E 0 90 63 60
        E 0 90 64 60
        E 0 90 56 60
        E 0 90 58 60
        E 0 90 4a 60
        E 0 90 4b 60
        E 0 90 3e 60
        E 120 80 61 00
        E 0 80 63 00
        E 0 80 64 00
        E 0 80 56 00
        E 0 80 58 00
        E 0 80 4a 00
        E 0 80 4b 00
        E 0 80 3e 00
        E 840 90 61 60
        E 0 90 63 60
        E 0 90 64 60
        E 0 90 56 60
        E 0 90 58 60
        E 0 90 4a 60
        E 0 90 4b 60
        E 0 90 3e 60
        E 120 80 61 00
        E 0 80 63 00
        E 0 80 64 00
        E 0 80 56 00
        E 0 80 58 00
        E 0 80 4a 00
        E 0 80 4b 00
        E 0 80 3e 00
        E 600 90 61 60
        E 0 90 63 60
        E 0 90 64 60
        E 0 90 56 60
        E 0 90 58 60
        E 0 90 4a 60
        E 0 90 4b 60
        E 120 80 61 00
        E 0 80 63 00
        E 0 80 64 00
        E 0 80 56 00
        E 0 80 58 00
        E 0 80 4a 00
        E 0 80 4b 00
        E 600 90 60 60
        E 0 90 62 60
        E 0 90 63 60
        E 0 90 74 60
        E 0 90 54 60
        E 0 90 57 60
        E 0 90 49 60
        E 0 90 4b 60
        E 0 90 3e 60
        E 120 80 60 00
        E 0 80 62 00
        E 0 80 63 00
        E 0 80 54 00
        E 0 80 57 00
        E 0 80 49 00
        E 0 80 4b 00
        E 0 80 3e 00
        E 840 90 60 60
        E 0 90 62 60
        E 0 90 63 60
        E 0 90 54 60
        E 0 90 57 60
        E 0 90 49 60
        E 0 90 4b 60
        E 0 90 3e 60
        E 120 80 60 00
        E 0 80 62 00
        E 0 80 63 00
        E 0 80 54 00
        E 0 80 57 00
        E 0 80 49 00
        E 0 80 4b 00
        E 0 80 3e 00
        E 360 90 60 60
        E 0 90 62 60
        E 0 90 54 60
        E 0 90 56 60
        E 0 90 48 60
        E 0 90 4a 60
        E 120 80 60 00
        E 0 80 62 00
        E 0 80 54 00
        E 0 80 56 00
        E 0 80 48 00
        E 0 80 4a 00
        E 840 90 60 60
        E 0 90 61 60
        E 0 90 54 60
        E 0 90 55 60
        E 0 90 48 60
        E 0 90 49 60
        E 0 90 3c 60
        E 120 80 60 00
        E 0 80 61 00
        E 0 80 54 00
        E 0 80 55 00
        E 0 80 48 00
        E 0 80 49 00
        E 0 80 3c 00
        E 600 90 60 60
        E 0 90 61 60
        E 0 90 54 60
        E 0 90 55 60
        E 0 90 48 60
        E 0 90 49 60
        E 120 80 60 00
        E 0 80 61 00
        E 0 80 54 00
        E 0 80 55 00
        E 0 80 48 00
        E 0 80 49 00
        E 600 90 61 60
        E 0 90 63 60
        E 0 90 64 60
        E 0 90 56 60
        E 0 90 58 60
        E 0 90 4a 60
        E 0 90 4b 60
        E 0 90 3e 60
        E 120 80 74 00
        E 0 80 61 00
        E 0 80 63 00
        E 0 80 64 00
        E 0 80 56 00
        E 0 80 58 00
        E 0 80 4a 00
        E 0 80 4b 00
        E 0 80 3e 00
        E 840 90 61 60
        E 0 90 63 60
        E 0 90 64 60
        E 0 90 56 60
        E 0 90 58 60
        E 0 90 4a 60
        E 0 90 4b 60
        E 0 90 3e 60
        E 120 80 61 00
        E 0 80 63 00
        E 0 80 64 00
        E 0 80 56 00
        E 0 80 58 00
        E 0 80 4a 00
        E 0 80 4b 00
        E 0 80 3e 00
        E 360 90 61 60
        E 0 90 63 60
        E 0 90 64 60
        E 0 90 56 60
        E 0 90 58 60
        E 0 90 4a 60
        E 0 90 4b 60
        E 0 90 3e 60
        E 120 80 61 00
        E 0 80 63 00
        E 0 80 64 00
        E 0 80 56 00
        E 0 80 58 00
        E 0 80 4a 00
        E 0 80 4b 00
        E 0 80 3e 00
        E 840 90 61 60
        E 0 90 63 60
        E 0 90 64 60
        E 0 90 56 60
        E 0 90 58 60
        E 0 90 4a 60
        E 0 90 4b 60
        E 0 90 3e 60
        E 120 80 61 00
        E 0 80 63 00
        E 0 80 64 00
        E 0 80 56 00
        E 0 80 58 00
        E 0 80 4a 00
        E 0 80 4b 00
        E 0 80 3e 00
        E 600 90 61 60
        E 0 90 63 60
        E 0 90 64 60
        E 0 90 56 60
        E 0 90 58 60
        E 0 90 4a 60
        E 0 90 4b 60
        E 120 80 61 00
        E 0 80 63 00
        E 0 80 64 00
        E 0 80 56 00
        E 0 80 58 00
        E 0 80 4a 00
        E 0 80 4b 00
        E 600 90 60 60
        E 0 90 62 60
        E 0 90 63 60
        E 0 90 54 60
        E 0 90 57 60
        E 0 90 49 60
        E 0 90 4b 60
        E 0 90 3e 60
        E 120 80 60 00
        E 0 80 62 00
        E 0 80 63 00
        E 0 80 54 00
        E 0 80 57 00
        E 0 80 49 00
        E 0 80 4b 00
        E 0 80 3e 00
        E 840 90 60 60
        E 0 90 62 60
        E 0 90 63 60
        E 0 90 54 60
        E 0 90 57 60
        E 0 90 49 60
        E 0 90 4b 60
        E 0 90 3e 60
        E 120 80 60 00
        E 0 80 62 00
        E 0 80 63 00
        E 0 80 54 00
        E 0 80 57 00
        E 0 80 49 00
        E 0 80 4b 00
        E 0 80 3e 00
        E 360 90 60 60
        E 0 90 62 60
        E 0 90 63 60
        E 0 90 54 60
        E 0 90 57 60
        E 0 90 49 60
        E 0 90 4b 60
        E 0 90 3e 60
        E 120 80 60 00
        E 0 80 62 00
        E 0 80 63 00
        E 0 80 54 00
        E 0 80 57 00
        E 0 80 49 00
        E 0 80 4b 00
        E 0 80 3e 00
        E 840 90 60 60
        E 0 90 62 60
        E 0 90 63 60
        E 0 90 54 60
        E 0 90 57 60
        E 0 90 49 60
        E 0 90 4b 60
        E 0 90 3e 60
        E 120 80 60 00
        E 0 80 62 00
        E 0 80 63 00
        E 0 80 54 00
        E 0 80 57 00
        E 0 80 49 00
        E 0 80 4b 00
        E 0 80 3e 00
        E 600 90 60 60
        E 0 90 62 60
        E 0 90 63 60
        E 0 90 54 60
        E 0 90 57 60
        E 0 90 49 60
        E 0 90 4b 60
        E 120 80 60 00
        E 0 80 62 00
        E 0 80 63 00
        E 0 80 54 00
        E 0 80 57 00
        E 0 80 49 00
        E 0 80 4b 00
        E 600 90 61 60
        E 0 90 63 60
        E 0 90 64 60
        E 0 90 56 60
        E 0 90 58 60
        E 0 90 4a 60
        E 0 90 4b 60
        E 0 90 3e 60
        E 120 80 61 00
        E 0 80 63 00
        E 0 80 64 00
        E 0 80 56 00
        E 0 80 58 00
        E 0 80 4a 00
        E 0 80 4b 00
        E 0 80 3e 00
        E 840 90 61 60
        E 0 90 63 60
        E 0 90 64 60
        E 0 90 56 60
        E 0 90 58 60
        E 0 90 4a 60
        E 0 90 4b 60
        E 0 90 3e 60
        E 120 80 61 00
        E 0 80 63 00
        E 0 80 64 00
        E 0 80 56 00
        E 0 80 58 00
        E 0 80 4a 00
        E 0 80 4b 00
        E 0 80 3e 00
        E 360 90 61 60
        E 0 90 63 60
        E 0 90 64 60
        E 0 90 56 60
        E 0 90 58 60
        E 0 90 4a 60
        E 0 90 4b 60
        E 0 90 3e 60
        E 120 80 61 00
        E 0 80 63 00
        E 0 80 64 00
        E 0 80 56 00
        E 0 80 58 00
        E 0 80 4a 00
        E 0 80 4b 00
        E 0 80 3e 00
        E 840 90 61 60
        E 0 90 63 60
        E 0 90 64 60
        E 0 90 56 60
        E 0 90 58 60
        E 0 90 4a 60
        E 0 90 4b 60
        E 0 90 3e 60
        E 120 80 61 00
        E 0 80 63 00
        E 0 80 64 00
        E 0 80 56 00
        E 0 80 58 00
        E 0 80 4a 00
        E 0 80 4b 00
        E 0 80 3e 00
        E 600 90 61 60
        E 0 90 63 60
        E 0 90 64 60
        E 0 90 56 60
        E 0 90 58 60
        E 0 90 4a 60
        E 0 90 4b 60
        E 120 80 61 00
        E 0 80 63 00
        E 0 80 64 00
        E 0 80 56 00
        E 0 80 58 00
        E 0 80 4a 00
        E 0 80 4b 00
        E 600 90 60 60
        E 0 90 62 60
        E 0 90 63 60
        E 0 90 54 60
        E 0 90 57 60
        E 0 90 49 60
        E 0 90 4b 60
        E 0 90 3e 60
        E 120 80 60 00
        E 0 80 62 00
        E 0 80 63 00
        E 0 80 54 00
        E 0 80 57 00
        E 0 80 49 00
        E 0 80 4b 00
        E 0 80 3e 00
        E 840 90 60 60
        E 0 90 62 60
        E 0 90 63 60
        E 0 90 54 60
        E 0 90 57 60
        E 0 90 49 60
        E 0 90 4b 60
        E 0 90 3e 60
        E 120 80 60 00
        E 0 80 62 00
        E 0 80 63 00
        E 0 80 54 00
        E 0 80 57 00
        E 0 80 49 00
        E 0 80 4b 00
        E 0 80 3e 00
        E 360 90 60 60
        E 0 90 62 60
        E 0 90 54 60
        E 0 90 56 60
        E 0 90 48 60
        E 0 90 4a 60
        E 120 80 60 00
        E 0 80 62 00
        E 0 80 54 00
        E 0 80 56 00
        E 0 80 48 00
        E 0 80 4a 00
        E 2280 90 61 60
        E 0 90 63 60
        E 0 90 64 60
        E 0 90 74 60
        E 0 90 56 60
        E 0 90 58 60
        E 0 90 4a 60
        E 0 90 4b 60
        E 0 90 3e 60
        E 120 80 61 00
        E 0 80 63 00
        E 0 80 64 00
        E 0 80 56 00
        E 0 80 58 00
        E 0 80 4a 00
        E 0 80 4b 00
        E 0 80 3e 00
        E 840 90 61 60
        E 0 90 63 60
        E 0 90 64 60
        E 0 90 56 60
        E 0 90 58 60
        E 0 90 4a 60
        E 0 90 4b 60
        E 0 90 3e 60
        E 120 80 61 00
        E 0 80 63 00
        E 0 80 64 00
        E 0 80 56 00
        E 0 80 58 00
        E 0 80 4a 00
        E 0 80 4b 00
        E 0 80 3e 00
        E 360 90 61 60
        E 0 90 63 60
        E 0 90 64 60
        E 0 90 56 60
        E 0 90 58 60
        E 0 90 4a 60
        E 0 90 4b 60
        E 0 90 3e 60
        E 120 80 61 00
        E 0 80 63 00
        E 0 80 64 00
        E 0 80 56 00
        E 0 80 58 00
        E 0 80 4a 00
        E 0 80 4b 00
        E 0 80 3e 00
        E 840 90 61 60
        E 0 90 63 60
        E 0 90 64 60
        E 0 90 56 60
        E 0 90 58 60
        E 0 90 4a 60
        E 0 90 4b 60
        E 0 90 3e 60
        E 120 80 61 00
        E 0 80 63 00
        E 0 80 64 00
        E 0 80 56 00
        E 0 80 58 00
        E 0 80 4a 00
        E 0 80 4b 00
        E 0 80 3e 00
        E 600 90 61 60
        E 0 90 63 60
        E 0 90 64 60
        E 0 90 56 60
        E 0 90 58 60
        E 0 90 4a 60
        E 0 90 4b 60
        E 120 80 61 00
        E 0 80 63 00
        E 0 80 64 00
        E 0 80 56 00
        E 0 80 58 00
        E 0 80 4a 00
        E 0 80 4b 00
        E 600 90 60 60
        E 0 90 62 60
        E 0 90 63 60
        E 0 90 54 60
        E 0 90 57 60
        E 0 90 49 60
        E 0 90 4b 60
        E 0 90 3e 60
        E 120 80 74 00
        E 0 80 60 00
        E 0 80 62 00
        E 0 80 63 00
        E 0 80 54 00
        E 0 80 57 00
        E 0 80 49 00
        E 0 80 4b 00
        E 0 80 3e 00
        E 840 90 60 60
        E 0 90 62 60
        E 0 90 63 60
        E 0 90 54 60
        E 0 90 57 60
        E 0 90 49 60
        E 0 90 4b 60
        E 0 90 3e 60
        E 120 80 60 00
        E 0 80 62 00
        E 0 80 63 00
        E 0 80 54 00
        E 0 80 57 00
        E 0 80 49 00
        E 0 80 4b 00
        E 0 80 3e 00
        E 360 90 60 60
        E 0 90 62 60
        E 0 90 63 60
        E 0 90 54 60
        E 0 90 57 60
        E 0 90 49 60
        E 0 90 4b 60
        E 0 90 3e 60
        E 120 80 60 00
        E 0 80 62 00
        E 0 80 63 00
        E 0 80 54 00
        E 0 80 57 00
        E 0 80 49 00
        E 0 80 4b 00
        E 0 80 3e 00
        E 840 90 60 60
        E 0 90 62 60
        E 0 90 63 60
        E 0 90 54 60
        E 0 90 57 60
        E 0 90 49 60
        E 0 90 4b 60
        E 0 90 3e 60
        E 120 80 60 00
        E 0 80 62 00
        E 0 80 63 00
        E 0 80 54 00
        E 0 80 57 00
        E 0 80 49 00
        E 0 80 4b 00
        E 0 80 3e 00
        E 600 90 60 60
        E 0 90 62 60
        E 0 90 63 60
        E 0 90 54 60
        E 0 90 57 60
        E 0 90 49 60
        E 0 90 4b 60
        E 120 80 60 00
        E 0 80 62 00
        E 0 80 63 00
        E 0 80 54 00
        E 0 80 57 00
        E 0 80 49 00
        E 0 80 4b 00
        E 600 90 61 60
        E 0 90 63 60
        E 0 90 64 60
        E 0 90 56 60
        E 0 90 58 60
        E 0 90 4a 60
        E 0 90 4b 60
        E 0 90 3e 60
        E 120 80 61 00
        E 0 80 63 00
        E 0 80 64 00
        E 0 80 56 00
        E 0 80 58 00
        E 0 80 4a 00
        E 0 80 4b 00
        E 0 80 3e 00
        E 840 90 61 60
        E 0 90 63 60
        E 0 90 64 60
        E 0 90 56 60
        E 0 90 58 60
        E 0 90 4a 60
        E 0 90 4b 60
        E 0 90 3e 60
        E 120 80 61 00
        E 0 80 63 00
        E 0 80 64 00
        E 0 80 56 00
        E 0 80 58 00
        E 0 80 4a 00
        E 0 80 4b 00
        E 0 80 3e 00
        E 360 90 61 60
        E 0 90 63 60
        E 0 90 64 60
        E 0 90 56 60
        E 0 90 58 60
        E 0 90 4a 60
        E 0 90 4b 60
        E 0 90 3e 60
        E 120 80 61 00
        E 0 80 63 00
        E 0 80 64 00
        E 0 80 56 00
        E 0 80 58 00
        E 0 80 4a 00
        E 0 80 4b 00
        E 0 80 3e 00
        E 840 90 61 60
        E 0 90 63 60
        E 0 90 64 60
        E 0 90 56 60
        E 0 90 58 60
        E 0 90 4a 60
        E 0 90 4b 60
        E 0 90 3e 60
        E 120 80 61 00
        E 0 80 63 00
        E 0 80 64 00
        E 0 80 56 00
        E 0 80 58 00
        E 0 80 4a 00
        E 0 80 4b 00
        E 0 80 3e 00
        E 600 90 61 60
        E 0 90 63 60
        E 0 90 64 60
        E 0 90 56 60
        E 0 90 58 60
        E 0 90 4a 60
        E 0 90 4b 60
        E 120 80 61 00
        E 0 80 63 00
        E 0 80 64 00
        E 0 80 56 00
        E 0 80 58 00
        E 0 80 4a 00
        E 0 80 4b 00
        E 600 90 60 60
        E 0 90 62 60
        E 0 90 63 60
        E 0 90 54 60
        E 0 90 57 60
        E 0 90 49 60
        E 0 90 4b 60
        E 0 90 3e 60
        E 120 80 60 00
        E 0 80 62 00
        E 0 80 63 00
        E 0 80 54 00
        E 0 80 57 00
        E 0 80 49 00
        E 0 80 4b 00
        E 0 80 3e 00
        E 840 90 60 60
        E 0 90 62 60
        E 0 90 63 60
        E 0 90 54 60
        E 0 90 57 60
        E 0 90 49 60
        E 0 90 4b 60
        E 0 90 3e 60
        E 120 80 60 00
        E 0 80 62 00
        E 0 80 63 00
        E 0 80 54 00
        E 0 80 57 00
        E 0 80 49 00
        E 0 80 4b 00
        E 0 80 3e 00
        E 360 90 60 60
        E 0 90 62 60
        E 0 90 54 60
        E 0 90 56 60
        E 0 90 48 60
        E 0 90 4a 60
        E 120 80 60 00
        E 0 80 62 00
        E 0 80 54 00
        E 0 80 56 00
        E 0 80 48 00
        E 0 80 4a 00
        E 840 90 60 60
        E 0 90 61 60
        E 0 90 54 60
        E 0 90 55 60
        E 0 90 48 60
        E 0 90 49 60
        E 0 90 3c 60
        E 120 80 60 00
        E 0 80 61 00
        E 0 80 54 00
        E 0 80 55 00
        E 0 80 48 00
        E 0 80 49 00
        E 0 80 3c 00
        E 600 90 60 60
        E 0 90 61 60
        E 0 90 54 60
        E 0 90 55 60
        E 0 90 48 60
        E 0 90 49 60
        E 120 80 60 00
        E 0 80 61 00
        E 0 80 54 00
        E 0 80 55 00
        E 0 80 48 00
        E 0 80 49 00
        E 600 90 61 60
        E 0 90 63 60
        E 0 90 64 60
        E 0 90 56 60
        E 0 90 58 60
        E 0 90 4a 60
        E 0 90 4b 60
        E 0 90 3e 60
        E 120 80 61 00
        E 0 80 63 00
        E 0 80 64 00
        E 0 80 56 00
        E 0 80 58 00
        E 0 80 4a 00
        E 0 80 4b 00
        E 0 80 3e 00
        E 840 90 61 60
        E 0 90 63 60
        E 0 90 64 60
        E 0 90 56 60
        E 0 90 58 60
        E 0 90 4a 60
        E 0 90 4b 60
        E 0 90 3e 60
        E 120 80 61 00
        E 0 80 63 00
        E 0 80 64 00
        E 0 80 56 00
        E 0 80 58 00
        E 0 80 4a 00
        E 0 80 4b 00
        E 0 80 3e 00
        E 360 90 61 60
        E 0 90 63 60
        E 0 90 64 60
        E 0 90 56 60
        E 0 90 58 60
        E 0 90 4a 60
        E 0 90 4b 60
        E 0 90 3e 60
        E 120 80 61 00
        E 0 80 63 00
        E 0 80 64 00
        E 0 80 56 00
        E 0 80 58 00
        E 0 80 4a 00
        E 0 80 4b 00
        E 0 80 3e 00
        E 840 90 61 60
        E 0 90 63 60
        E 0 90 64 60
        E 0 90 56 60
        E 0 90 58 60
        E 0 90 4a 60
        E 0 90 4b 60
        E 0 90 3e 60
        E 120 80 61 00
        E 0 80 63 00
        E 0 80 64 00
        E 0 80 56 00
        E 0 80 58 00
        E 0 80 4a 00
        E 0 80 4b 00
        E 0 80 3e 00
        E 600 90 61 60
        E 0 90 63 60
        E 0 90 64 60
        E 0 90 56 60
        E 0 90 58 60
        E 0 90 4a 60
        E 0 90 4b 60
        E 120 80 61 00
        E 0 80 63 00
        E 0 80 64 00
        E 0 80 56 00
        E 0 80 58 00
        E 0 80 4a 00
        E 0 80 4b 00
        E 600 90 60 60
        E 0 90 62 60
        E 0 90 63 60
        E 0 90 54 60
        E 0 90 57 60
        E 0 90 49 60
        E 0 90 4b 60
        E 0 90 3e 60
        E 120 80 60 00
        E 0 80 62 00
        E 0 80 63 00
        E 0 80 54 00
        E 0 80 57 00
        E 0 80 49 00
        E 0 80 4b 00
        E 0 80 3e 00
        E 840 90 60 60
        E 0 90 62 60
        E 0 90 63 60
        E 0 90 54 60
        E 0 90 57 60
        E 0 90 49 60
        E 0 90 4b 60
        E 0 90 3e 60
        E 120 80 60 00
        E 0 80 62 00
        E 0 80 63 00
        E 0 80 54 00
        E 0 80 57 00
        E 0 80 49 00
        E 0 80 4b 00
        E 0 80 3e 00
        E 360 90 60 60
        E 0 90 62 60
        E 0 90 63 60
        E 0 90 54 60
        E 0 90 57 60
        E 0 90 49 60
        E 0 90 4b 60
        E 0 90 3e 60
        E 120 80 60 00
        E 0 80 62 00
        E 0 80 63 00
        E 0 80 54 00
        E 0 80 57 00
        E 0 80 49 00
        E 0 80 4b 00
        E 0 80 3e 00
        E 840 90 60 60
        E 0 90 62 60
        E 0 90 63 60
        E 0 90 54 60
        E 0 90 57 60
        E 0 90 49 60
        E 0 90 4b 60
        E 0 90 3e 60
        E 120 80 60 00
        E 0 80 62 00
        E 0 80 63 00
        E 0 80 54 00
        E 0 80 57 00
        E 0 80 49 00
        E 0 80 4b 00
        E 0 80 3e 00
        E 600 90 60 60
        E 0 90 62 60
        E 0 90 63 60
        E 0 90 54 60
        E 0 90 57 60
        E 0 90 49 60
        E 0 90 4b 60
        E 120 80 60 00
        E 0 80 62 00
        E 0 80 63 00
        E 0 80 54 00
        E 0 80 57 00
        E 0 80 49 00
        E 0 80 4b 00
        E 600 90 61 60
        E 0 90 63 60
        E 0 90 64 60
        E 0 90 56 60
        E 0 90 58 60
        E 0 90 4a 60
        E 0 90 4b 60
        E 0 90 3e 60
        E 120 80 61 00
        E 0 80 63 00
        E 0 80 64 00
        E 0 80 56 00
        E 0 80 58 00
        E 0 80 4a 00
        E 0 80 4b 00
        E 0 80 3e 00
        E 840 90 61 60
        E 0 90 63 60
        E 0 90 64 60
        E 0 90 56 60
        E 0 90 58 60
        E 0 90 4a 60
        E 0 90 4b 60
        E 0 90 3e 60
        E 120 80 61 00
        E 0 80 63 00
        E 0 80 64 00
        E 0 80 56 00
        E 0 80 58 00
        E 0 80 4a 00
        E 0 80 4b 00
        E 0 80 3e 00
        E 360 90 61 60
        E 0 90 63 60
        E 0 90 64 60
        E 0 90 56 60
        E 0 90 58 60
        E 0 90 4a 60
        E 0 90 4b 60
        E 0 90 3e 60
        E 120 80 61 00
        E 0 80 63 00
        E 0 80 64 00
        E 0 80 56 00
        E 0 80 58 00
        E 0 80 4a 00
        E 0 80 4b 00
        E 0 80 3e 00
        E 840 90 61 60
        E 0 90 63 60
        E 0 90 64 60
        E 0 90 56 60
        E 0 90 58 60
        E 0 90 4a 60
        E 0 90 4b 60
        E 0 90 3e 60
        E 120 80 61 00
        E 0 80 63 00
        E 0 80 64 00
        E 0 80 56 00
        E 0 80 58 00
        E 0 80 4a 00
        E 0 80 4b 00
        E 0 80 3e 00
        E 600 90 61 60
        E 0 90 63 60
        E 0 90 64 60
        E 0 90 56 60
        E 0 90 58 60
        E 0 90 4a 60
        E 0 90 4b 60
        E 120 80 61 00
        E 0 80 63 00
        E 0 80 64 00
        E 0 80 56 00
        E 0 80 58 00
        E 0 80 4a 00
        E 0 80 4b 00
        E 600 90 60 60
        E 0 90 62 60
        E 0 90 63 60
        E 0 90 54 60
        E 0 90 57 60
        E 0 90 49 60
        E 0 90 4b 60
        E 0 90 3e 60
        E 120 80 60 00
        E 0 80 62 00
        E 0 80 63 00
        E 0 80 54 00
        E 0 80 57 00
        E 0 80 49 00
        E 0 80 4b 00
        E 0 80 3e 00
        E 840 90 60 60
        E 0 90 62 60
        E 0 90 63 60
        E 0 90 54 60
        E 0 90 57 60
        E 0 90 49 60
        E 0 90 4b 60
        E 0 90 3e 60
        E 120 80 60 00
        E 0 80 62 00
        E 0 80 63 00
        E 0 80 54 00
        E 0 80 57 00
        E 0 80 49 00
        E 0 80 4b 00
        E 0 80 3e 00
        E 360 90 60 60
        E 0 90 62 60
        E 0 90 54 60
        E 0 90 56 60
        E 0 90 48 60
        E 0 90 4a 60
        E 120 80 60 00
        E 0 80 62 00
        E 0 80 54 00
        E 0 80 56 00
        E 0 80 48 00
        E 0 80 4a 00
        E 840 90 60 60
        E 0 90 61 60
        E 0 90 54 60
        E 0 90 55 60
        E 0 90 48 60
        E 0 90 49 60
        E 0 90 3c 60
        E 120 80 60 00
        E 0 80 61 00
        E 0 80 54 00
        E 0 80 55 00
        E 0 80 48 00
        E 0 80 49 00
        E 0 80 3c 00
        <X 360 0
          /wFbaWRsZV9pbnRlbnNlXQ==
        >
        <X 960 0
          /wFbaWRsZV0=
        >
        <X 30720 0
          /wFbcGxheV0=
        >
        E 0 90 62 60
        E 0 90 63 60
        E 0 90 64 60
        E 0 90 74 60
        E 0 90 57 60
        E 0 90 58 60
        E 0 90 4b 60
        E 0 90 4c 60
        E 0 90 40 60
        E 3840 80 4b 00
        E 0 80 4c 00
        E 0 80 40 00
        E 240 80 62 00
        E 0 80 63 00
        E 0 80 64 00
        E 0 80 57 00
        E 0 80 58 00
        <X 240 0
          /wFbaW50ZW5zZV0=
        >
        E 0 90 61 60
        E 0 90 63 60
        E 0 90 64 60
        E 0 90 56 60
        E 0 90 58 60
        E 0 90 4a 60
        E 0 90 4b 60
        E 0 90 3e 60
        E 120 80 74 00
        E 0 80 61 00
        E 0 80 63 00
        E 0 80 64 00
        E 0 80 56 00
        E 0 80 58 00
        E 0 80 4a 00
        E 0 80 4b 00
        E 0 80 3e 00
        E 840 90 61 60
        E 0 90 63 60
        E 0 90 64 60
        E 0 90 56 60
        E 0 90 58 60
        E 0 90 4a 60
        E 0 90 4b 60
        E 0 90 3e 60
        E 120 80 61 00
        E 0 80 63 00
        E 0 80 64 00
        E 0 80 56 00
        E 0 80 58 00
        E 0 80 4a 00
        E 0 80 4b 00
        E 0 80 3e 00
        E 360 90 61 60
        E 0 90 63 60
        E 0 90 64 60
        E 0 90 56 60
        E 0 90 58 60
        E 0 90 4a 60
        E 0 90 4b 60
        E 0 90 3e 60
        E 120 80 61 00
        E 0 80 63 00
        E 0 80 64 00
        E 0 80 56 00
        E 0 80 58 00
        E 0 80 4a 00
        E 0 80 4b 00
        E 0 80 3e 00
        E 840 90 61 60
        E 0 90 63 60
        E 0 90 64 60
        E 0 90 56 60
        E 0 90 58 60
        E 0 90 4a 60
        E 0 90 4b 60
        E 0 90 3e 60
        E 120 80 61 00
        E 0 80 63 00
        E 0 80 64 00
        E 0 80 56 00
        E 0 80 58 00
        E 0 80 4a 00
        E 0 80 4b 00
        E 0 80 3e 00
        E 600 90 61 60
        E 0 90 63 60
        E 0 90 64 60
        E 0 90 56 60
        E 0 90 58 60
        E 0 90 4a 60
        E 0 90 4b 60
        E 120 80 61 00
        E 0 80 63 00
        E 0 80 64 00
        E 0 80 56 00
        E 0 80 58 00
        E 0 80 4a 00
        E 0 80 4b 00
        E 600 90 60 60
        E 0 90 62 60
        E 0 90 63 60
        E 0 90 54 60
        E 0 90 57 60
        E 0 90 49 60
        E 0 90 4b 60
        E 0 90 3e 60
        E 120 80 60 00
        E 0 80 62 00
        E 0 80 63 00
        E 0 80 54 00
        E 0 80 57 00
        E 0 80 49 00
        E 0 80 4b 00
        E 0 80 3e 00
        E 840 90 60 60
        E 0 90 62 60
        E 0 90 63 60
        E 0 90 54 60
        E 0 90 57 60
        E 0 90 49 60
        E 0 90 4b 60
        E 0 90 3e 60
        E 120 80 60 00
        E 0 80 62 00
        E 0 80 63 00
        E 0 80 54 00
        E 0 80 57 00
        E 0 80 49 00
        E 0 80 4b 00
        E 0 80 3e 00
        E 360 90 60 60
        E 0 90 62 60
        E 0 90 63 60
        E 0 90 54 60
        E 0 90 57 60
        E 0 90 49 60
        E 0 90 4b 60
        E 0 90 3e 60
        E 120 80 60 00
        E 0 80 62 00
        E 0 80 63 00
        E 0 80 54 00
        E 0 80 57 00
        E 0 80 49 00
        E 0 80 4b 00
        E 0 80 3e 00
        E 840 90 60 60
        E 0 90 62 60
        E 0 90 63 60
        E 0 90 54 60
        E 0 90 57 60
        E 0 90 49 60
        E 0 90 4b 60
        E 0 90 3e 60
        E 120 80 60 00
        E 0 80 62 00
        E 0 80 63 00
        E 0 80 54 00
        E 0 80 57 00
        E 0 80 49 00
        E 0 80 4b 00
        E 0 80 3e 00
        E 600 90 60 60
        E 0 90 62 60
        E 0 90 63 60
        E 0 90 54 60
        E 0 90 57 60
        E 0 90 49 60
        E 0 90 4b 60
        E 120 80 60 00
        E 0 80 62 00
        E 0 80 63 00
        E 0 80 54 00
        E 0 80 57 00
        E 0 80 49 00
        E 0 80 4b 00
        E 600 90 61 60
        E 0 90 63 60
        E 0 90 64 60
        E 0 90 56 60
        E 0 90 58 60
        E 0 90 4a 60
        E 0 90 4b 60
        E 0 90 3e 60
        E 120 80 61 00
        E 0 80 63 00
        E 0 80 64 00
        E 0 80 56 00
        E 0 80 58 00
        E 0 80 4a 00
        E 0 80 4b 00
        E 0 80 3e 00
        E 840 90 61 60
        E 0 90 63 60
        E 0 90 64 60
        E 0 90 56 60
        E 0 90 58 60
        E 0 90 4a 60
        E 0 90 4b 60
        E 0 90 3e 60
        E 120 80 61 00
        E 0 80 63 00
        E 0 80 64 00
        E 0 80 56 00
        E 0 80 58 00
        E 0 80 4a 00
        E 0 80 4b 00
        E 0 80 3e 00
        E 360 90 61 60
        E 0 90 63 60
        E 0 90 64 60
        E 0 90 56 60
        E 0 90 58 60
        E 0 90 4a 60
        E 0 90 4b 60
        E 0 90 3e 60
        E 120 80 61 00
        E 0 80 63 00
        E 0 80 64 00
        E 0 80 56 00
        E 0 80 58 00
        E 0 80 4a 00
        E 0 80 4b 00
        E 0 80 3e 00
        E 840 90 61 60
        E 0 90 63 60
        E 0 90 64 60
        E 0 90 56 60
        E 0 90 58 60
        E 0 90 4a 60
        E 0 90 4b 60
        E 0 90 3e 60
        E 120 80 61 00
        E 0 80 63 00
        E 0 80 64 00
        E 0 80 56 00
        E 0 80 58 00
        E 0 80 4a 00
        E 0 80 4b 00
        E 0 80 3e 00
        E 600 90 61 60
        E 0 90 63 60
        E 0 90 64 60
        E 0 90 56 60
        E 0 90 58 60
        E 0 90 4a 60
        E 0 90 4b 60
        E 120 80 61 00
        E 0 80 63 00
        E 0 80 64 00
        E 0 80 56 00
        E 0 80 58 00
        E 0 80 4a 00
        E 0 80 4b 00
        E 600 90 60 60
        E 0 90 62 60
        E 0 90 63 60
        E 0 90 54 60
        E 0 90 57 60
        E 0 90 49 60
        E 0 90 4b 60
        E 0 90 3e 60
        E 120 80 60 00
        E 0 80 62 00
        E 0 80 63 00
        E 0 80 54 00
        E 0 80 57 00
        E 0 80 49 00
        E 0 80 4b 00
        E 0 80 3e 00
        E 840 90 60 60
        E 0 90 62 60
        E 0 90 63 60
        E 0 90 54 60
        E 0 90 57 60
        E 0 90 49 60
        E 0 90 4b 60
        E 0 90 3e 60
        E 120 80 60 00
        E 0 80 62 00
        E 0 80 63 00
        E 0 80 54 00
        E 0 80 57 00
        E 0 80 49 00
        E 0 80 4b 00
        E 0 80 3e 00
        E 360 90 60 60
        E 0 90 62 60
        E 0 90 54 60
        E 0 90 56 60
        E 0 90 48 60
        E 0 90 4a 60
        E 120 80 60 00
        E 0 80 62 00
        E 0 80 54 00
        E 0 80 56 00
        E 0 80 48 00
        E 0 80 4a 00
        E 840 90 60 60
        E 0 90 61 60
        E 0 90 54 60
        E 0 90 55 60
        E 0 90 48 60
        E 0 90 49 60
        E 0 90 3c 60
        E 120 80 60 00
        E 0 80 61 00
        E 0 80 54 00
        E 0 80 55 00
        E 0 80 48 00
        E 0 80 49 00
        E 0 80 3c 00
        E 600 90 60 60
        E 0 90 61 60
        E 0 90 54 60
        E 0 90 55 60
        E 0 90 48 60
        E 0 90 49 60
        E 120 80 60 00
        E 0 80 61 00
        E 0 80 54 00
        E 0 80 55 00
        E 0 80 48 00
        E 0 80 49 00
        E 600 90 61 60
        E 0 90 63 60
        E 0 90 64 60
        E 0 90 74 60
        E 0 90 56 60
        E 0 90 58 60
        E 0 90 4a 60
        E 0 90 4b 60
        E 0 90 3e 60
        E 120 80 61 00
        E 0 80 63 00
        E 0 80 64 00
        E 0 80 56 00
        E 0 80 58 00
        E 0 80 4a 00
        E 0 80 4b 00
        E 0 80 3e 00
        E 840 90 61 60
        E 0 90 63 60
        E 0 90 64 60
        E 0 90 56 60
        E 0 90 58 60
        E 0 90 4a 60
        E 0 90 4b 60
        E 0 90 3e 60
        E 120 80 61 00
        E 0 80 63 00
        E 0 80 64 00
        E 0 80 56 00
        E 0 80 58 00
        E 0 80 4a 00
        E 0 80 4b 00
        E 0 80 3e 00
        E 360 90 61 60
        E 0 90 63 60
        E 0 90 64 60
        E 0 90 56 60
        E 0 90 58 60
        E 0 90 4a 60
        E 0 90 4b 60
        E 0 90 3e 60
        E 120 80 61 00
        E 0 80 63 00
        E 0 80 64 00
        E 0 80 56 00
        E 0 80 58 00
        E 0 80 4a 00
        E 0 80 4b 00
        E 0 80 3e 00
        E 840 90 61 60
        E 0 90 63 60
        E 0 90 64 60
        E 0 90 56 60
        E 0 90 58 60
        E 0 90 4a 60
        E 0 90 4b 60
        E 0 90 3e 60
        E 120 80 61 00
        E 0 80 63 00
        E 0 80 64 00
        E 0 80 56 00
        E 0 80 58 00
        E 0 80 4a 00
        E 0 80 4b 00
        E 0 80 3e 00
        E 600 90 61 60
        E 0 90 63 60
        E 0 90 64 60
        E 0 90 56 60
        E 0 90 58 60
        E 0 90 4a 60
        E 0 90 4b 60
        E 120 80 61 00
        E 0 80 63 00
        E 0 80 64 00
        E 0 80 56 00
        E 0 80 58 00
        E 0 80 4a 00
        E 0 80 4b 00
        E 600 90 60 60
        E 0 90 62 60
        E 0 90 63 60
        E 0 90 54 60
        E 0 90 57 60
        E 0 90 49 60
        E 0 90 4b 60
        E 0 90 3e 60
        E 120 80 74 00
        E 0 80 60 00
        E 0 80 62 00
        E 0 80 63 00
        E 0 80 54 00
        E 0 80 57 00
        E 0 80 49 00
        E 0 80 4b 00
        E 0 80 3e 00
        E 840 90 60 60
        E 0 90 62 60
        E 0 90 63 60
        E 0 90 54 60
        E 0 90 57 60
        E 0 90 49 60
        E 0 90 4b 60
        E 0 90 3e 60
        E 120 80 60 00
        E 0 80 62 00
        E 0 80 63 00
        E 0 80 54 00
        E 0 80 57 00
        E 0 80 49 00
        E 0 80 4b 00
        E 0 80 3e 00
        E 360 90 60 60
        E 0 90 62 60
        E 0 90 63 60
        E 0 90 54 60
        E 0 90 57 60
        E 0 90 49 60
        E 0 90 4b 60
        E 0 90 3e 60
        E 120 80 60 00
        E 0 80 62 00
        E 0 80 63 00
        E 0 80 54 00
        E 0 80 57 00
        E 0 80 49 00
        E 0 80 4b 00
        E 0 80 3e 00
        E 840 90 60 60
        E 0 90 62 60
        E 0 90 63 60
        E 0 90 54 60
        E 0 90 57 60
        E 0 90 49 60
        E 0 90 4b 60
        E 0 90 3e 60
        E 120 80 60 00
        E 0 80 62 00
        E 0 80 63 00
        E 0 80 54 00
        E 0 80 57 00
        E 0 80 49 00
        E 0 80 4b 00
        E 0 80 3e 00
        E 600 90 60 60
        E 0 90 62 60
        E 0 90 63 60
        E 0 90 54 60
        E 0 90 57 60
        E 0 90 49 60
        E 0 90 4b 60
        E 120 80 60 00
        E 0 80 62 00
        E 0 80 63 00
        E 0 80 54 00
        E 0 80 57 00
        E 0 80 49 00
        E 0 80 4b 00
        E 600 90 61 60
        E 0 90 63 60
        E 0 90 64 60
        E 0 90 56 60
        E 0 90 58 60
        E 0 90 4a 60
        E 0 90 4b 60
        E 0 90 3e 60
        E 120 80 61 00
        E 0 80 63 00
        E 0 80 64 00
        E 0 80 56 00
        E 0 80 58 00
        E 0 80 4a 00
        E 0 80 4b 00
        E 0 80 3e 00
        E 840 90 61 60
        E 0 90 63 60
        E 0 90 64 60
        E 0 90 56 60
        E 0 90 58 60
        E 0 90 4a 60
        E 0 90 4b 60
        E 0 90 3e 60
        E 120 80 61 00
        E 0 80 63 00
        E 0 80 64 00
        E 0 80 56 00
        E 0 80 58 00
        E 0 80 4a 00
        E 0 80 4b 00
        E 0 80 3e 00
        E 360 90 61 60
        E 0 90 63 60
        E 0 90 64 60
        E 0 90 56 60
        E 0 90 58 60
        E 0 90 4a 60
        E 0 90 4b 60
        E 0 90 3e 60
        E 120 80 61 00
        E 0 80 63 00
        E 0 80 64 00
        E 0 80 56 00
        E 0 80 58 00
        E 0 80 4a 00
        E 0 80 4b 00
        E 0 80 3e 00
        E 840 90 61 60
        E 0 90 63 60
        E 0 90 64 60
        E 0 90 56 60
        E 0 90 58 60
        E 0 90 4a 60
        E 0 90 4b 60
        E 0 90 3e 60
        E 120 80 61 00
        E 0 80 63 00
        E 0 80 64 00
        E 0 80 56 00
        E 0 80 58 00
        E 0 80 4a 00
        E 0 80 4b 00
        E 0 80 3e 00
        E 600 90 61 60
        E 0 90 63 60
        E 0 90 64 60
        E 0 90 56 60
        E 0 90 58 60
        E 0 90 4a 60
        E 0 90 4b 60
        E 120 80 61 00
        E 0 80 63 00
        E 0 80 64 00
        E 0 80 56 00
        E 0 80 58 00
        E 0 80 4a 00
        E 0 80 4b 00
        E 600 90 60 60
        E 0 90 62 60
        E 0 90 63 60
        E 0 90 54 60
        E 0 90 57 60
        E 0 90 49 60
        E 0 90 4b 60
        E 0 90 3e 60
        E 120 80 60 00
        E 0 80 62 00
        E 0 80 63 00
        E 0 80 54 00
        E 0 80 57 00
        E 0 80 49 00
        E 0 80 4b 00
        E 0 80 3e 00
        E 840 90 60 60
        E 0 90 62 60
        E 0 90 63 60
        E 0 90 54 60
        E 0 90 57 60
        E 0 90 49 60
        E 0 90 4b 60
        E 0 90 3e 60
        E 120 80 60 00
        E 0 80 62 00
        E 0 80 63 00
        E 0 80 54 00
        E 0 80 57 00
        E 0 80 49 00
        E 0 80 4b 00
        E 0 80 3e 00
        E 360 90 60 60
        E 0 90 62 60
        E 0 90 54 60
        E 0 90 56 60
        E 0 90 48 60
        E 0 90 4a 60
        E 120 80 60 00
        E 0 80 62 00
        E 0 80 54 00
        E 0 80 56 00
        E 0 80 48 00
        E 0 80 4a 00
        E 840 90 60 60
        E 0 90 61 60
        E 0 90 54 60
        E 0 90 55 60
        E 0 90 48 60
        E 0 90 49 60
        E 0 90 3c 60
        E 120 80 60 00
        E 0 80 61 00
        E 0 80 54 00
        E 0 80 55 00
        E 0 80 48 00
        E 0 80 49 00
        E 0 80 3c 00
        E 600 90 60 60
        E 0 90 61 60
        E 0 90 54 60
        E 0 90 55 60
        E 0 90 48 60
        E 0 90 49 60
        E 120 80 60 00
        E 0 80 61 00
        E 0 80 54 00
        E 0 80 55 00
        E 0 80 48 00
        E 0 80 49 00
        E 600 90 61 60
        E 0 90 63 60
        E 0 90 64 60
        E 0 90 56 60
        E 0 90 58 60
        E 0 90 4a 60
        E 0 90 4b 60
        E 0 90 3e 60
        E 120 80 61 00
        E 0 80 63 00
        E 0 80 64 00
        E 0 80 56 00
        E 0 80 58 00
        E 0 80 4a 00
        E 0 80 4b 00
        E 0 80 3e 00
        E 840 90 61 60
        E 0 90 63 60
        E 0 90 64 60
        E 0 90 56 60
        E 0 90 58 60
        E 0 90 4a 60
        E 0 90 4b 60
        E 0 90 3e 60
        E 120 80 61 00
        E 0 80 63 00
        E 0 80 64 00
        E 0 80 56 00
        E 0 80 58 00
        E 0 80 4a 00
        E 0 80 4b 00
        E 0 80 3e 00
        E 360 90 61 60
        E 0 90 63 60
        E 0 90 64 60
        E 0 90 56 60
        E 0 90 58 60
        E 0 90 4a 60
        E 0 90 4b 60
        E 0 90 3e 60
        E 120 80 61 00
        E 0 80 63 00
        E 0 80 64 00
        E 0 80 56 00
        E 0 80 58 00
        E 0 80 4a 00
        E 0 80 4b 00
        E 0 80 3e 00
        E 840 90 61 60
        E 0 90 63 60
        E 0 90 64 60
        E 0 90 56 60
        E 0 90 58 60
        E 0 90 4a 60
        E 0 90 4b 60
        E 0 90 3e 60
        E 120 80 61 00
        E 0 80 63 00
        E 0 80 64 00
        E 0 80 56 00
        E 0 80 58 00
        E 0 80 4a 00
        E 0 80 4b 00
        E 0 80 3e 00
        E 600 90 61 60
        E 0 90 63 60
        E 0 90 64 60
        E 0 90 56 60
        E 0 90 58 60
        E 0 90 4a 60
        E 0 90 4b 60
        E 120 80 61 00
        E 0 80 63 00
        E 0 80 64 00
        E 0 80 56 00
        E 0 80 58 00
        E 0 80 4a 00
        E 0 80 4b 00
        E 600 90 60 60
        E 0 90 62 60
        E 0 90 63 60
        E 0 90 54 60
        E 0 90 57 60
        E 0 90 49 60
        E 0 90 4b 60
        E 0 90 3e 60
        E 120 80 60 00
        E 0 80 62 00
        E 0 80 63 00
        E 0 80 54 00
        E 0 80 57 00
        E 0 80 49 00
        E 0 80 4b 00
        E 0 80 3e 00
        E 840 90 60 60
        E 0 90 62 60
        E 0 90 63 60
        E 0 90 54 60
        E 0 90 57 60
        E 0 90 49 60
        E 0 90 4b 60
        E 0 90 3e 60
        E 120 80 60 00
        E 0 80 62 00
        E 0 80 63 00
        E 0 80 54 00
        E 0 80 57 00
        E 0 80 49 00
        E 0 80 4b 00
        E 0 80 3e 00
        E 360 90 60 60
        E 0 90 62 60
        E 0 90 63 60
        E 0 90 54 60
        E 0 90 57 60
        E 0 90 49 60
        E 0 90 4b 60
        E 0 90 3e 60
        E 120 80 60 00
        E 0 80 62 00
        E 0 80 63 00
        E 0 80 54 00
        E 0 80 57 00
        E 0 80 49 00
        E 0 80 4b 00
        E 0 80 3e 00
        E 840 90 60 60
        E 0 90 62 60
        E 0 90 63 60
        E 0 90 54 60
        E 0 90 57 60
        E 0 90 49 60
        E 0 90 4b 60
        E 0 90 3e 60
        E 120 80 60 00
        E 0 80 62 00
        E 0 80 63 00
        E 0 80 54 00
        E 0 80 57 00
        E 0 80 49 00
        E 0 80 4b 00
        E 0 80 3e 00
        E 600 90 60 60
        E 0 90 62 60
        E 0 90 63 60
        E 0 90 54 60
        E 0 90 57 60
        E 0 90 49 60
        E 0 90 4b 60
        E 120 80 60 00
        E 0 80 62 00
        E 0 80 63 00
        E 0 80 54 00
        E 0 80 57 00
        E 0 80 49 00
        E 0 80 4b 00
        E 600 90 61 60
        E 0 90 63 60
        E 0 90 64 60
        E 0 90 56 60
        E 0 90 58 60
        E 0 90 4a 60
        E 0 90 4b 60
        E 0 90 3e 60
        E 120 80 61 00
        E 0 80 63 00
        E 0 80 64 00
        E 0 80 56 00
        E 0 80 58 00
        E 0 80 4a 00
        E 0 80 4b 00
        E 0 80 3e 00
        E 840 90 61 60
        E 0 90 63 60
        E 0 90 64 60
        E 0 90 56 60
        E 0 90 58 60
        E 0 90 4a 60
        E 0 90 4b 60
        E 0 90 3e 60
        E 120 80 61 00
        E 0 80 63 00
        E 0 80 64 00
        E 0 80 56 00
        E 0 80 58 00
        E 0 80 4a 00
        E 0 80 4b 00
        E 0 80 3e 00
        E 360 90 61 60
        E 0 90 63 60
        E 0 90 64 60
        E 0 90 56 60
        E 0 90 58 60
        E 0 90 4a 60
        E 0 90 4b 60
        E 0 90 3e 60
        E 120 80 61 00
        E 0 80 63 00
        E 0 80 64 00
        E 0 80 56 00
        E 0 80 58 00
        E 0 80 4a 00
        E 0 80 4b 00
        E 0 80 3e 00
        E 840 90 61 60
        E 0 90 63 60
        E 0 90 64 60
        E 0 90 56 60
        E 0 90 58 60
        E 0 90 4a 60
        E 0 90 4b 60
        E 0 90 3e 60
        E 120 80 61 00
        E 0 80 63 00
        E 0 80 64 00
        E 0 80 56 00
        E 0 80 58 00
        E 0 80 4a 00
        E 0 80 4b 00
        E 0 80 3e 00
        E 600 90 61 60
        E 0 90 63 60
        E 0 90 64 60
        E 0 90 56 60
        E 0 90 58 60
        E 0 90 4a 60
        E 0 90 4b 60
        E 120 80 61 00
        E 0 80 63 00
        E 0 80 64 00
        E 0 80 56 00
        E 0 80 58 00
        E 0 80 4a 00
        E 0 80 4b 00
        E 600 90 60 60
        E 0 90 62 60
        E 0 90 63 60
        E 0 90 54 60
        E 0 90 57 60
        E 0 90 49 60
        E 0 90 4b 60
        E 0 90 3e 60
        E 120 80 60 00
        E 0 80 62 00
        E 0 80 63 00
        E 0 80 54 00
        E 0 80 57 00
        E 0 80 49 00
        E 0 80 4b 00
        E 0 80 3e 00
        E 840 90 60 60
        E 0 90 62 60
        E 0 90 63 60
        E 0 90 54 60
        E 0 90 57 60
        E 0 90 49 60
        E 0 90 4b 60
        E 0 90 3e 60
        E 120 80 60 00
        E 0 80 62 00
        E 0 80 63 00
        E 0 80 54 00
        E 0 80 57 00
        E 0 80 49 00
        E 0 80 4b 00
        E 0 80 3e 00
        E 360 90 60 60
        E 0 90 62 60
        E 0 90 54 60
        E 0 90 56 60
        E 0 90 48 60
        E 0 90 4a 60
        E 120 80 60 00
        E 0 80 62 00
        E 0 80 54 00
        E 0 80 56 00
        E 0 80 48 00
        E 0 80 4a 00
        E 840 90 60 60
        E 0 90 61 60
        E 0 90 54 60
        E 0 90 55 60
        E 0 90 48 60
        E 0 90 49 60
        E 0 90 3c 60
        E 120 80 60 00
        E 0 80 61 00
        E 0 80 54 00
        E 0 80 55 00
        E 0 80 48 00
        E 0 80 49 00
        E 0 80 3c 00
        E 600 90 60 60
        E 0 90 61 60
        E 0 90 54 60
        E 0 90 55 60
        E 0 90 48 60
        E 0 90 49 60
        E 120 80 60 00
        E 0 80 61 00
        E 0 80 54 00
        E 0 80 55 00
        E 0 80 48 00
        E 0 80 49 00
        E 600 90 61 60
        E 0 90 63 60
        E 0 90 64 60
        E 0 90 56 60
        E 0 90 58 60
        E 0 90 4a 60
        E 0 90 4b 60
        E 0 90 3e 60
        E 120 80 61 00
        E 0 80 63 00
        E 0 80 64 00
        E 0 80 56 00
        E 0 80 58 00
        E 0 80 4a 00
        E 0 80 4b 00
        E 0 80 3e 00
        E 840 90 61 60
        E 0 90 63 60
        E 0 90 64 60
        E 0 90 56 60
        E 0 90 58 60
        E 0 90 4a 60
        E 0 90 4b 60
        E 0 90 3e 60
        E 120 80 61 00
        E 0 80 63 00
        E 0 80 64 00
        E 0 80 56 00
        E 0 80 58 00
        E 0 80 4a 00
        E 0 80 4b 00
        E 0 80 3e 00
        E 360 90 61 60
        E 0 90 63 60
        E 0 90 64 60
        E 0 90 56 60
        E 0 90 58 60
        E 0 90 4a 60
        E 0 90 4b 60
        E 0 90 3e 60
        E 120 80 61 00
        E 0 80 63 00
        E 0 80 64 00
        E 0 80 56 00
        E 0 80 58 00
        E 0 80 4a 00
        E 0 80 4b 00
        E 0 80 3e 00
        E 840 90 61 60
        E 0 90 63 60
        E 0 90 64 60
        E 0 90 56 60
        E 0 90 58 60
        E 0 90 4a 60
        E 0 90 4b 60
        E 0 90 3e 60
        E 120 80 61 00
        E 0 80 63 00
        E 0 80 64 00
        E 0 80 56 00
        E 0 80 58 00
        E 0 80 4a 00
        E 0 80 4b 00
        E 0 80 3e 00
        E 600 90 61 60
        E 0 90 63 60
        E 0 90 64 60
        E 0 90 56 60
        E 0 90 58 60
        E 0 90 4a 60
        E 0 90 4b 60
        E 120 80 61 00
        E 0 80 63 00
        E 0 80 64 00
        E 0 80 56 00
        E 0 80 58 00
        E 0 80 4a 00
        E 0 80 4b 00
        E 600 90 60 60
        E 0 90 62 60
        E 0 90 63 60
        E 0 90 54 60
        E 0 90 57 60
        E 0 90 49 60
        E 0 90 4b 60
        E 0 90 3e 60
        E 120 80 60 00
        E 0 80 62 00
        E 0 80 63 00
        E 0 80 54 00
        E 0 80 57 00
        E 0 80 49 00
        E 0 80 4b 00
        E 0 80 3e 00
        E 840 90 60 60
        E 0 90 62 60
        E 0 90 63 60
        E 0 90 54 60
        E 0 90 57 60
        E 0 90 49 60
        E 0 90 4b 60
        E 0 90 3e 60
        E 120 80 60 00
        E 0 80 62 00
        E 0 80 63 00
        E 0 80 54 00
        E 0 80 57 00
        E 0 80 49 00
        E 0 80 4b 00
        E 0 80 3e 00
        E 360 90 60 60
        E 0 90 62 60
        E 0 90 63 60
        E 0 90 54 60
        E 0 90 57 60
        E 0 90 49 60
        E 0 90 4b 60
        E 0 90 3e 60
        E 120 80 60 00
        E 0 80 62 00
        E 0 80 63 00
        E 0 80 54 00
        E 0 80 57 00
        E 0 80 49 00
        E 0 80 4b 00
        E 0 80 3e 00
        E 840 90 60 60
        E 0 90 62 60
        E 0 90 63 60
        E 0 90 54 60
        E 0 90 57 60
        E 0 90 49 60
        E 0 90 4b 60
        E 0 90 3e 60
        E 120 80 60 00
        E 0 80 62 00
        E 0 80 63 00
        E 0 80 54 00
        E 0 80 57 00
        E 0 80 49 00
        E 0 80 4b 00
        E 0 80 3e 00
        E 600 90 60 60
        E 0 90 62 60
        E 0 90 63 60
        E 0 90 54 60
        E 0 90 57 60
        E 0 90 49 60
        E 0 90 4b 60
        E 120 80 60 00
        E 0 80 62 00
        E 0 80 63 00
        E 0 80 54 00
        E 0 80 57 00
        E 0 80 49 00
        E 0 80 4b 00
        <X 120 0
          /wFbaWRsZV0=
        >
        <X 6719 0
          /wFbaWRsZV9yZWFsdGltZV0=
        >
        E 9120 b0 7b 00
        GUID {A16FE24C-7DCE-41C7-BF37-29A57B1F9B74}
        IGNTEMPO 0 120.00000000 4 4
        SRCCOLOR 6
        VELLANE 132 128 60
        COLORMAP "C:\Program Files\REAPER (x64)\Data\color_maps\rockband_guitarbass.png"
        CFGEDITVIEW -22293.631403 4.067158 0 14 0 0 0
        CFGEDIT 1 1 0 1 1 0 1 1 1 1 1 0.25000000 -8 -8 1544 872 0 2 1 1 0.00000000 0 1 1 0 0.500000 0 0 1.000000 64
        KEYSNAP 0 6 "102030050700" 0 "Pentatonic"
        EVTFILTER 0 -1 -1 -1 -1 0 1 0 0 -1.00000000 -1.00000000
      >
    >
  >
  <TRACK '{A3205D10-2622-4A0B-833F-D0A4CAE4F834}'
    NAME "PART REAL_KEYS_X"
    PEAKCOL 16576
    BEAT -1
    AUTOMODE 0
    VOLPAN 1.00000000000000 0.00000000000000 -1.00000000000000 -1.00000000000000 1.00000000000000
    MUTESOLO 0 0 0
    IPHASE 0
    ISBUS 0 0
    BUSCOMP 0 0
    SHOWINMIX 1 0.666700 0.500000 1 0.500000 -1 -1 -1
    FREEMODE 0
    SEL 0
    REC 0 0 0 0 0 0 0
    VU 2
    TRACKHEIGHT 0 0
    INQ 0 0 0 0.5000000000 100 0 0 100
    NCHAN 2
    FX 0
    TRACKID {A3205D10-2622-4A0B-833F-D0A4CAE4F834}
    PERF 0
    MIDIOUT -1
    <MIDINOTENAMES
      0 127 "TRILL MARKER"
      0 126 "GLISSANDO MARKER"
      0 125 "---"
      0 116 "OVERDRIVE"
      0 115 "SOLO"
      0 114 "---"
      0 72 "Highest playable note B#3"
      0 71 "B3"
      0 70 "A#3"
      0 69 "A3"
      0 68 "G#3"
      0 67 "G3"
      0 66 "F#3"
      0 65 "F3"
      0 64 "E3"
      0 63 "D#3"
      0 62 "D3"
      0 61 "C#3"
      0 60 "C3"
      0 59 "B2"
      0 58 "A#2"
      0 57 "A2"
      0 56 "G#2"
      0 55 "G2"
      0 54 "F#2"
      0 53 "F2"
      0 52 "E2"
      0 51 "D#2"
      0 50 "D2"
      0 49 "C#2"
      0 48 "Lowest playable note C2"
      0 10 "---"
      0 9 "Range A2-C4"
      0 8 "Range"
      0 7 "Range"
      0 6 "Range"
      0 5 "Range F2-A3"
      0 4 "Range"
      0 3 "Range"
      0 2 "Range"
      0 1 "Range"
      0 0 "Range C2-E3"
    >
    MAINSEND 1 0
    <FXCHAIN
      WNDRECT 0 43 655 467
      SHOW 0
      LASTSEL 1
      DOCKED 0
      BYPASS 0 0
      <JS "MIDI/midi_note_filter" ""
        48.000000 72.000000 - - - - - - - - - - - - - - - - - - - - - - - - - - - - - - - - - - - - - - - - - - - - - - - - - - - - - - - - - - - - - - 
      >
      FLOATPOS 0 0 0 0
      FXID {C6ACE01B-387C-4330-BC3A-0799460CEA87}
      WAK 0
      BYPASS 0 0
      <VST "VSTi: ReaSynth (Cockos)" "reasynth.dll" 0 ""
        eXNlcu9e7f4AAAAAAgAAAAEAAAAAAAAAAgAAAAAAAAA4AAAAAAAAAA==
        AAAQAO++rd4N8K3eppvEO1FiyD0AAIA/AAAAAAAAAADMm4A+6WeIPQ==
        AAAAAAAAAD8AAIA/AACAPwAAAD8AABAAAAA=
      >
      FLOATPOS 0 0 0 0
      FXID {674A66B4-8C9B-4876-A4B9-933AC7ECA2EF}
      WAK 0
    >
    <ITEM
      POSITION 0.00000000000000
      SNAPOFFS 0.00000000000000
      LENGTH 276.11399999999998
      LOOP 0
      ALLTAKES 0
      SEL 0
      FADEIN 1 0.000000 0.000000 1 0
      FADEOUT 1 0.000000 0.000000 1 0
      MUTE 0
      IGUID {B0D6A1AF-6AB4-4EC3-93FF-41EF72C1CBDC}
      IID 5
      NAME "PART REAL_KEYS_X"
      VOLPAN 1.000000 0.000000 1.000000 -1.000000
      SOFFS 0.00000000000000 0.00000000000000
      PLAYRATE 1.00000000000000 1 0.00000000000000 -1
      CHANMODE 0
      GUID {2C90AD00-07B3-4470-A17A-3ACE30E1356A}
      <SOURCE MIDI
        HASDATA 1 480 QN
        POOLEDEVTS {CE647A6F-2E6B-4E68-B896-9901AED64774}
        <X 0 0
          /wNQQVJUIFJFQUxfS0VZU19Y
        >
        E 0 90 09 60
        E 120 80 09 00
        <X 189960 0
          /wFbYmVnaW5fa2V5IHNvbmdfdHJhaW5lcl9rZXlfMV0=
        >
        E 0 90 3f 60
        E 0 90 42 60
        E 0 90 46 60
        E 120 80 3f 00
        E 0 80 42 00
        E 0 80 46 00
        E 840 90 3f 60
        E 0 90 42 60
        E 0 90 46 60
        E 120 80 3f 00
        E 0 80 42 00
        E 0 80 46 00
        E 360 90 3f 60
        E 0 90 42 60
        E 0 90 46 60
        E 120 80 3f 00
        E 0 80 42 00
        E 0 80 46 00
        E 840 90 3f 60
        E 0 90 42 60
        E 0 90 46 60
        E 120 80 3f 00
        E 0 80 42 00
        E 0 80 46 00
        E 600 90 3f 60
        E 0 90 42 60
        E 0 90 46 60
        E 120 80 3f 00
        E 0 80 42 00
        E 0 80 46 00
        E 600 90 3d 60
        E 0 90 41 60
        E 0 90 44 60
        E 120 80 3d 00
        E 0 80 41 00
        E 0 80 44 00
        E 840 90 3d 60
        E 0 90 41 60
        E 0 90 44 60
        E 120 80 3d 00
        E 0 80 41 00
        E 0 80 44 00
        E 360 90 3d 60
        E 0 90 41 60
        E 0 90 44 60
        E 120 80 3d 00
        E 0 80 41 00
        E 0 80 44 00
        E 840 90 3d 60
        E 0 90 41 60
        E 0 90 44 60
        E 120 80 3d 00
        E 0 80 41 00
        E 0 80 44 00
        E 600 90 3d 60
        E 0 90 41 60
        E 0 90 44 60
        E 120 80 3d 00
        E 0 80 41 00
        E 0 80 44 00
        E 600 90 3f 60
        E 0 90 42 60
        E 0 90 46 60
        E 120 80 3f 00
        E 0 80 42 00
        E 0 80 46 00
        E 840 90 3f 60
        E 0 90 42 60
        E 0 90 46 60
        E 120 80 3f 00
        E 0 80 42 00
        E 0 80 46 00
        E 360 90 3f 60
        E 0 90 42 60
        E 0 90 46 60
        E 120 80 3f 00
        E 0 80 42 00
        E 0 80 46 00
        E 840 90 3f 60
        E 0 90 42 60
        E 0 90 46 60
        E 120 80 3f 00
        E 0 80 42 00
        E 0 80 46 00
        E 600 90 3f 60
        E 0 90 42 60
        E 0 90 46 60
        E 120 80 3f 00
        E 0 80 42 00
        E 0 80 46 00
        E 600 90 3d 60
        E 0 90 41 60
        E 0 90 44 60
        E 0 90 74 60
        E 120 80 3d 00
        E 0 80 41 00
        E 0 80 44 00
        E 840 90 3d 60
        E 0 90 41 60
        E 0 90 44 60
        E 120 80 3d 00
        E 0 80 41 00
        E 0 80 44 00
        E 360 90 3d 60
        E 0 90 41 60
        E 120 80 3d 00
        E 0 80 41 00
        E 840 90 3d 60
        E 0 90 44 60
        E 120 80 3d 00
        E 0 80 44 00
        E 600 90 3d 60
        E 0 90 44 60
        E 120 80 3d 00
        E 0 80 44 00
        <X 600 0
          /wFbZW5kX2tleSBzb25nX3RyYWluZXJfa2V5XzFd
        >
        E 0 90 3f 60
        E 0 90 42 60
        E 0 90 46 60
        E 120 80 74 00
        E 0 80 3f 00
        E 0 80 42 00
        E 0 80 46 00
        E 840 90 3f 60
        E 0 90 42 60
        E 0 90 46 60
        E 120 80 3f 00
        E 0 80 42 00
        E 0 80 46 00
        E 360 90 3f 60
        E 0 90 42 60
        E 0 90 46 60
        E 120 80 3f 00
        E 0 80 42 00
        E 0 80 46 00
        E 840 90 3f 60
        E 0 90 42 60
        E 0 90 46 60
        E 120 80 3f 00
        E 0 80 42 00
        E 0 80 46 00
        E 600 90 3f 60
        E 0 90 42 60
        E 0 90 46 60
        E 120 80 3f 00
        E 0 80 42 00
        E 0 80 46 00
        E 600 90 3d 60
        E 0 90 41 60
        E 0 90 44 60
        E 120 80 3d 00
        E 0 80 41 00
        E 0 80 44 00
        E 840 90 3d 60
        E 0 90 41 60
        E 0 90 44 60
        E 120 80 3d 00
        E 0 80 41 00
        E 0 80 44 00
        E 360 90 3d 60
        E 0 90 41 60
        E 0 90 44 60
        E 120 80 3d 00
        E 0 80 41 00
        E 0 80 44 00
        E 840 90 3d 60
        E 0 90 41 60
        E 0 90 44 60
        E 120 80 3d 00
        E 0 80 41 00
        E 0 80 44 00
        E 600 90 3d 60
        E 0 90 41 60
        E 0 90 44 60
        E 120 80 3d 00
        E 0 80 41 00
        E 0 80 44 00
        E 600 90 3f 60
        E 0 90 42 60
        E 0 90 46 60
        E 120 80 3f 00
        E 0 80 42 00
        E 0 80 46 00
        E 840 90 3f 60
        E 0 90 42 60
        E 0 90 46 60
        E 120 80 3f 00
        E 0 80 42 00
        E 0 80 46 00
        E 360 90 3f 60
        E 0 90 42 60
        E 0 90 46 60
        E 120 80 3f 00
        E 0 80 42 00
        E 0 80 46 00
        E 840 90 3f 60
        E 0 90 42 60
        E 0 90 46 60
        E 120 80 3f 00
        E 0 80 42 00
        E 0 80 46 00
        E 600 90 3f 60
        E 0 90 42 60
        E 0 90 46 60
        E 120 80 3f 00
        E 0 80 42 00
        E 0 80 46 00
        E 600 90 3d 60
        E 0 90 41 60
        E 0 90 44 60
        E 120 80 3d 00
        E 0 80 41 00
        E 0 80 44 00
        E 840 90 3d 60
        E 0 90 41 60
        E 0 90 44 60
        E 120 80 3d 00
        E 0 80 41 00
        E 0 80 44 00
        E 360 90 3d 60
        E 0 90 41 60
        E 120 80 3d 00
        E 0 80 41 00
        E 2280 90 3f 60
        E 0 90 42 60
        E 0 90 46 60
        E 0 90 74 60
        E 120 80 3f 00
        E 0 80 42 00
        E 0 80 46 00
        E 840 90 3f 60
        E 0 90 42 60
        E 0 90 46 60
        E 120 80 3f 00
        E 0 80 42 00
        E 0 80 46 00
        E 360 90 3f 60
        E 0 90 42 60
        E 0 90 46 60
        E 120 80 3f 00
        E 0 80 42 00
        E 0 80 46 00
        E 840 90 3f 60
        E 0 90 42 60
        E 0 90 46 60
        E 120 80 3f 00
        E 0 80 42 00
        E 0 80 46 00
        E 600 90 3f 60
        E 0 90 42 60
        E 0 90 46 60
        E 120 80 3f 00
        E 0 80 42 00
        E 0 80 46 00
        E 600 90 3d 60
        E 0 90 41 60
        E 0 90 44 60
        E 120 80 74 00
        E 0 80 3d 00
        E 0 80 41 00
        E 0 80 44 00
        E 840 90 3d 60
        E 0 90 41 60
        E 0 90 44 60
        E 120 80 3d 00
        E 0 80 41 00
        E 0 80 44 00
        E 360 90 3d 60
        E 0 90 41 60
        E 0 90 44 60
        E 120 80 3d 00
        E 0 80 41 00
        E 0 80 44 00
        E 840 90 3d 60
        E 0 90 41 60
        E 0 90 44 60
        E 120 80 3d 00
        E 0 80 41 00
        E 0 80 44 00
        E 600 90 3d 60
        E 0 90 41 60
        E 0 90 44 60
        E 120 80 3d 00
        E 0 80 41 00
        E 0 80 44 00
        E 600 90 3f 60
        E 0 90 42 60
        E 0 90 46 60
        E 120 80 3f 00
        E 0 80 42 00
        E 0 80 46 00
        E 840 90 3f 60
        E 0 90 42 60
        E 0 90 46 60
        E 120 80 3f 00
        E 0 80 42 00
        E 0 80 46 00
        E 360 90 3f 60
        E 0 90 42 60
        E 0 90 46 60
        E 120 80 3f 00
        E 0 80 42 00
        E 0 80 46 00
        E 840 90 3f 60
        E 0 90 42 60
        E 0 90 46 60
        E 120 80 3f 00
        E 0 80 42 00
        E 0 80 46 00
        E 600 90 3f 60
        E 0 90 42 60
        E 0 90 46 60
        E 120 80 3f 00
        E 0 80 42 00
        E 0 80 46 00
        E 600 90 3d 60
        E 0 90 41 60
        E 0 90 44 60
        E 120 80 3d 00
        E 0 80 41 00
        E 0 80 44 00
        E 840 90 3d 60
        E 0 90 41 60
        E 0 90 44 60
        E 120 80 3d 00
        E 0 80 41 00
        E 0 80 44 00
        E 360 90 3d 60
        E 0 90 41 60
        E 120 80 3d 00
        E 0 80 41 00
        E 840 90 3d 60
        E 0 90 44 60
        E 120 80 3d 00
        E 0 80 44 00
        E 600 90 3d 60
        E 0 90 44 60
        E 120 80 3d 00
        E 0 80 44 00
        E 600 90 3f 60
        E 0 90 42 60
        E 0 90 46 60
        E 120 80 3f 00
        E 0 80 42 00
        E 0 80 46 00
        E 840 90 3f 60
        E 0 90 42 60
        E 0 90 46 60
        E 120 80 3f 00
        E 0 80 42 00
        E 0 80 46 00
        E 360 90 3f 60
        E 0 90 42 60
        E 0 90 46 60
        E 120 80 3f 00
        E 0 80 42 00
        E 0 80 46 00
        E 840 90 3f 60
        E 0 90 42 60
        E 0 90 46 60
        E 120 80 3f 00
        E 0 80 42 00
        E 0 80 46 00
        E 600 90 3f 60
        E 0 90 42 60
        E 0 90 46 60
        E 120 80 3f 00
        E 0 80 42 00
        E 0 80 46 00
        E 600 90 3d 60
        E 0 90 41 60
        E 0 90 44 60
        E 120 80 3d 00
        E 0 80 41 00
        E 0 80 44 00
        E 840 90 3d 60
        E 0 90 41 60
        E 0 90 44 60
        E 120 80 3d 00
        E 0 80 41 00
        E 0 80 44 00
        E 360 90 3d 60
        E 0 90 41 60
        E 0 90 44 60
        E 120 80 3d 00
        E 0 80 41 00
        E 0 80 44 00
        E 840 90 3d 60
        E 0 90 41 60
        E 0 90 44 60
        E 120 80 3d 00
        E 0 80 41 00
        E 0 80 44 00
        E 600 90 3d 60
        E 0 90 41 60
        E 0 90 44 60
        E 120 80 3d 00
        E 0 80 41 00
        E 0 80 44 00
        E 600 90 3f 60
        E 0 90 42 60
        E 0 90 46 60
        E 120 80 3f 00
        E 0 80 42 00
        E 0 80 46 00
        E 840 90 3f 60
        E 0 90 42 60
        E 0 90 46 60
        E 120 80 3f 00
        E 0 80 42 00
        E 0 80 46 00
        E 360 90 3f 60
        E 0 90 42 60
        E 0 90 46 60
        E 120 80 3f 00
        E 0 80 42 00
        E 0 80 46 00
        E 840 90 3f 60
        E 0 90 42 60
        E 0 90 46 60
        E 120 80 3f 00
        E 0 80 42 00
        E 0 80 46 00
        E 600 90 3f 60
        E 0 90 42 60
        E 0 90 46 60
        E 120 80 3f 00
        E 0 80 42 00
        E 0 80 46 00
        E 600 90 3d 60
        E 0 90 41 60
        E 0 90 44 60
        E 120 80 3d 00
        E 0 80 41 00
        E 0 80 44 00
        E 840 90 3d 60
        E 0 90 41 60
        E 0 90 44 60
        E 120 80 3d 00
        E 0 80 41 00
        E 0 80 44 00
        E 360 90 3d 60
        E 0 90 41 60
        E 120 80 3d 00
        E 0 80 41 00
        E 840 90 3d 60
        E 0 90 44 60
        E 120 80 3d 00
        E 0 80 44 00
        <X 32040 0
          /wFbYmVnaW5fa2V5IHNvbmdfdHJhaW5lcl9rZXlfMl0=
        >
        E 0 90 3c 60
        E 0 90 3f 60
        E 0 90 43 60
        E 0 90 74 60
        E 4080 80 3c 00
        E 0 80 3f 00
        E 0 80 43 00
        <X 240 0
          /wFbZW5kX2tleSBzb25nX3RyYWluZXJfa2V5XzJd
        >
        E 0 90 3f 60
        E 0 90 42 60
        E 0 90 46 60
        E 120 80 74 00
        E 0 80 3f 00
        E 0 80 42 00
        E 0 80 46 00
        E 840 90 3f 60
        E 0 90 42 60
        E 0 90 46 60
        E 120 80 3f 00
        E 0 80 42 00
        E 0 80 46 00
        E 360 90 3f 60
        E 0 90 42 60
        E 0 90 46 60
        E 120 80 3f 00
        E 0 80 42 00
        E 0 80 46 00
        E 840 90 3f 60
        E 0 90 42 60
        E 0 90 46 60
        E 120 80 3f 00
        E 0 80 42 00
        E 0 80 46 00
        E 600 90 3f 60
        E 0 90 42 60
        E 0 90 46 60
        E 120 80 3f 00
        E 0 80 42 00
        E 0 80 46 00
        E 600 90 3d 60
        E 0 90 41 60
        E 0 90 44 60
        E 120 80 3d 00
        E 0 80 41 00
        E 0 80 44 00
        E 840 90 3d 60
        E 0 90 41 60
        E 0 90 44 60
        E 120 80 3d 00
        E 0 80 41 00
        E 0 80 44 00
        E 360 90 3d 60
        E 0 90 41 60
        E 0 90 44 60
        E 120 80 3d 00
        E 0 80 41 00
        E 0 80 44 00
        E 840 90 3d 60
        E 0 90 41 60
        E 0 90 44 60
        E 120 80 3d 00
        E 0 80 41 00
        E 0 80 44 00
        E 600 90 3d 60
        E 0 90 41 60
        E 0 90 44 60
        E 120 80 3d 00
        E 0 80 41 00
        E 0 80 44 00
        E 600 90 3f 60
        E 0 90 42 60
        E 0 90 46 60
        E 120 80 3f 00
        E 0 80 42 00
        E 0 80 46 00
        E 840 90 3f 60
        E 0 90 42 60
        E 0 90 46 60
        E 120 80 3f 00
        E 0 80 42 00
        E 0 80 46 00
        E 360 90 3f 60
        E 0 90 42 60
        E 0 90 46 60
        E 120 80 3f 00
        E 0 80 42 00
        E 0 80 46 00
        E 840 90 3f 60
        E 0 90 42 60
        E 0 90 46 60
        E 120 80 3f 00
        E 0 80 42 00
        E 0 80 46 00
        E 600 90 3f 60
        E 0 90 42 60
        E 0 90 46 60
        E 120 80 3f 00
        E 0 80 42 00
        E 0 80 46 00
        E 600 90 3d 60
        E 0 90 41 60
        E 0 90 44 60
        E 120 80 3d 00
        E 0 80 41 00
        E 0 80 44 00
        E 840 90 3d 60
        E 0 90 41 60
        E 0 90 44 60
        E 120 80 3d 00
        E 0 80 41 00
        E 0 80 44 00
        E 360 90 3d 60
        E 0 90 41 60
        E 120 80 3d 00
        E 0 80 41 00
        E 840 90 3d 60
        E 0 90 44 60
        E 120 80 3d 00
        E 0 80 44 00
        E 600 90 3d 60
        E 0 90 44 60
        E 120 80 3d 00
        E 0 80 44 00
        E 600 90 3f 60
        E 0 90 42 60
        E 0 90 46 60
        E 0 90 74 60
        E 120 80 3f 00
        E 0 80 42 00
        E 0 80 46 00
        E 840 90 3f 60
        E 0 90 42 60
        E 0 90 46 60
        E 120 80 3f 00
        E 0 80 42 00
        E 0 80 46 00
        E 360 90 3f 60
        E 0 90 42 60
        E 0 90 46 60
        E 120 80 3f 00
        E 0 80 42 00
        E 0 80 46 00
        E 840 90 3f 60
        E 0 90 42 60
        E 0 90 46 60
        E 120 80 3f 00
        E 0 80 42 00
        E 0 80 46 00
        E 600 90 3f 60
        E 0 90 42 60
        E 0 90 46 60
        E 120 80 3f 00
        E 0 80 42 00
        E 0 80 46 00
        E 600 90 3d 60
        E 0 90 41 60
        E 0 90 44 60
        E 120 80 74 00
        E 0 80 3d 00
        E 0 80 41 00
        E 0 80 44 00
        E 840 90 3d 60
        E 0 90 41 60
        E 0 90 44 60
        E 120 80 3d 00
        E 0 80 41 00
        E 0 80 44 00
        E 360 90 3d 60
        E 0 90 41 60
        E 0 90 44 60
        E 120 80 3d 00
        E 0 80 41 00
        E 0 80 44 00
        E 840 90 3d 60
        E 0 90 41 60
        E 0 90 44 60
        E 120 80 3d 00
        E 0 80 41 00
        E 0 80 44 00
        E 600 90 3d 60
        E 0 90 41 60
        E 0 90 44 60
        E 120 80 3d 00
        E 0 80 41 00
        E 0 80 44 00
        E 600 90 3f 60
        E 0 90 42 60
        E 0 90 46 60
        E 120 80 3f 00
        E 0 80 42 00
        E 0 80 46 00
        E 840 90 3f 60
        E 0 90 42 60
        E 0 90 46 60
        E 120 80 3f 00
        E 0 80 42 00
        E 0 80 46 00
        E 360 90 3f 60
        E 0 90 42 60
        E 0 90 46 60
        E 120 80 3f 00
        E 0 80 42 00
        E 0 80 46 00
        E 840 90 3f 60
        E 0 90 42 60
        E 0 90 46 60
        E 120 80 3f 00
        E 0 80 42 00
        E 0 80 46 00
        E 600 90 3f 60
        E 0 90 42 60
        E 0 90 46 60
        E 120 80 3f 00
        E 0 80 42 00
        E 0 80 46 00
        E 600 90 3d 60
        E 0 90 41 60
        E 0 90 44 60
        E 120 80 3d 00
        E 0 80 41 00
        E 0 80 44 00
        E 840 90 3d 60
        E 0 90 41 60
        E 0 90 44 60
        E 120 80 3d 00
        E 0 80 41 00
        E 0 80 44 00
        E 360 90 3d 60
        E 0 90 41 60
        E 120 80 3d 00
        E 0 80 41 00
        E 840 90 3d 60
        E 0 90 44 60
        E 120 80 3d 00
        E 0 80 44 00
        E 600 90 3d 60
        E 0 90 44 60
        E 120 80 3d 00
        E 0 80 44 00
        E 600 90 3f 60
        E 0 90 42 60
        E 0 90 46 60
        E 120 80 3f 00
        E 0 80 42 00
        E 0 80 46 00
        E 840 90 3f 60
        E 0 90 42 60
        E 0 90 46 60
        E 120 80 3f 00
        E 0 80 42 00
        E 0 80 46 00
        E 360 90 3f 60
        E 0 90 42 60
        E 0 90 46 60
        E 120 80 3f 00
        E 0 80 42 00
        E 0 80 46 00
        E 840 90 3f 60
        E 0 90 42 60
        E 0 90 46 60
        E 120 80 3f 00
        E 0 80 42 00
        E 0 80 46 00
        E 600 90 3f 60
        E 0 90 42 60
        E 0 90 46 60
        E 120 80 3f 00
        E 0 80 42 00
        E 0 80 46 00
        E 600 90 3d 60
        E 0 90 41 60
        E 0 90 44 60
        E 120 80 3d 00
        E 0 80 41 00
        E 0 80 44 00
        E 840 90 3d 60
        E 0 90 41 60
        E 0 90 44 60
        E 120 80 3d 00
        E 0 80 41 00
        E 0 80 44 00
        E 360 90 3d 60
        E 0 90 41 60
        E 0 90 44 60
        E 120 80 3d 00
        E 0 80 41 00
        E 0 80 44 00
        E 840 90 3d 60
        E 0 90 41 60
        E 0 90 44 60
        E 120 80 3d 00
        E 0 80 41 00
        E 0 80 44 00
        E 600 90 3d 60
        E 0 90 41 60
        E 0 90 44 60
        E 120 80 3d 00
        E 0 80 41 00
        E 0 80 44 00
        E 600 90 3f 60
        E 0 90 42 60
        E 0 90 46 60
        E 120 80 3f 00
        E 0 80 42 00
        E 0 80 46 00
        E 840 90 3f 60
        E 0 90 42 60
        E 0 90 46 60
        E 120 80 3f 00
        E 0 80 42 00
        E 0 80 46 00
        E 360 90 3f 60
        E 0 90 42 60
        E 0 90 46 60
        E 120 80 3f 00
        E 0 80 42 00
        E 0 80 46 00
        E 840 90 3f 60
        E 0 90 42 60
        E 0 90 46 60
        E 120 80 3f 00
        E 0 80 42 00
        E 0 80 46 00
        E 600 90 3f 60
        E 0 90 42 60
        E 0 90 46 60
        E 120 80 3f 00
        E 0 80 42 00
        E 0 80 46 00
        E 600 90 3d 60
        E 0 90 41 60
        E 0 90 44 60
        E 120 80 3d 00
        E 0 80 41 00
        E 0 80 44 00
        E 840 90 3d 60
        E 0 90 41 60
        E 0 90 44 60
        E 120 80 3d 00
        E 0 80 41 00
        E 0 80 44 00
        E 360 90 3d 60
        E 0 90 41 60
        E 120 80 3d 00
        E 0 80 41 00
        E 840 90 3d 60
        E 0 90 44 60
        E 120 80 3d 00
        E 0 80 44 00
        E 600 90 3d 60
        E 0 90 44 60
        E 120 80 3d 00
        E 0 80 44 00
        E 600 90 3f 60
        E 0 90 42 60
        E 0 90 46 60
        E 120 80 3f 00
        E 0 80 42 00
        E 0 80 46 00
        E 840 90 3f 60
        E 0 90 42 60
        E 0 90 46 60
        E 120 80 3f 00
        E 0 80 42 00
        E 0 80 46 00
        E 360 90 3f 60
        E 0 90 42 60
        E 0 90 46 60
        E 120 80 3f 00
        E 0 80 42 00
        E 0 80 46 00
        E 840 90 3f 60
        E 0 90 42 60
        E 0 90 46 60
        E 120 80 3f 00
        E 0 80 42 00
        E 0 80 46 00
        E 600 90 3f 60
        E 0 90 42 60
        E 0 90 46 60
        E 120 80 3f 00
        E 0 80 42 00
        E 0 80 46 00
        E 600 90 3d 60
        E 0 90 41 60
        E 0 90 44 60
        E 120 80 3d 00
        E 0 80 41 00
        E 0 80 44 00
        E 840 90 3d 60
        E 0 90 41 60
        E 0 90 44 60
        E 120 80 3d 00
        E 0 80 41 00
        E 0 80 44 00
        E 360 90 3d 60
        E 0 90 41 60
        E 0 90 44 60
        E 120 80 3d 00
        E 0 80 41 00
        E 0 80 44 00
        E 840 90 3d 60
        E 0 90 41 60
        E 0 90 44 60
        E 120 80 3d 00
        E 0 80 41 00
        E 0 80 44 00
        E 600 90 3d 60
        E 0 90 41 60
        E 0 90 44 60
        E 120 80 3d 00
        E 0 80 41 00
        E 0 80 44 00
        E 15959 b0 7b 00
        GUID {20BF2F56-261B-423B-AC84-08EE80359D33}
        IGNTEMPO 0 120.00000000 4 4
        SRCCOLOR 7
        VELLANE 132 128 60
        COLORMAP "C:\Program Files\REAPER (x64)\Data\color_maps\rockband_guitarbass.png"
        CFGEDITVIEW 273303.724639 49.841938 0 13 0 0 0
        CFGEDIT 1 1 0 1 1 0 1 1 1 1 1 0.25000000 -8 -8 1544 872 0 2 1 1 0.00000000 0 1 1 0 0.500000 0 0 1.000000 64
        KEYSNAP 0 6 "102030050700" 0 "Pentatonic"
        EVTFILTER 0 -1 -1 -1 -1 0 1 0 0 -1.00000000 -1.00000000
      >
    >
  >
  <TRACK '{FBFB5E94-E232-4C23-A890-F36FBD45E783}'
    NAME "PART REAL_KEYS_H"
    PEAKCOL 16576
    BEAT -1
    AUTOMODE 0
    VOLPAN 1.00000000000000 0.00000000000000 -1.00000000000000 -1.00000000000000 1.00000000000000
    MUTESOLO 0 0 0
    IPHASE 0
    ISBUS 0 0
    BUSCOMP 0 0
    SHOWINMIX 1 0.666700 0.500000 1 0.500000 -1 -1 -1
    FREEMODE 0
    SEL 0
    REC 0 0 0 0 0 0 0
    VU 2
    TRACKHEIGHT 0 0
    INQ 0 0 0 0.5000000000 100 0 0 100
    NCHAN 2
    FX 1
    TRACKID {FBFB5E94-E232-4C23-A890-F36FBD45E783}
    PERF 0
    MIDIOUT -1
    <MIDINOTENAMES
      0 72 "Highest playable note B#3"
      0 71 "B3"
      0 70 "A#3"
      0 69 "A3"
      0 68 "G#3"
      0 67 "G3"
      0 66 "F#3"
      0 65 "F3"
      0 64 "E3"
      0 63 "D#3"
      0 62 "D3"
      0 61 "C#3"
      0 60 "C3"
      0 59 "B2"
      0 58 "A#2"
      0 57 "A2"
      0 56 "G#2"
      0 55 "G2"
      0 54 "F#2"
      0 53 "F2"
      0 52 "E2"
      0 51 "D#2"
      0 50 "D2"
      0 49 "C#2"
      0 48 "Lowest playable note C2"
      0 10 "---"
      0 9 "Range A2-C4"
      0 8 "Range"
      0 7 "Range"
      0 6 "Range"
      0 5 "Range F2-A3"
      0 4 "Range"
      0 3 "Range"
      0 2 "Range"
      0 1 "Range"
      0 0 "Range C2-E3"
    >
    MAINSEND 1 0
    <FXCHAIN
      SHOW 0
      LASTSEL 0
      DOCKED 0
    >
    <ITEM
      POSITION 0.00000000000000
      SNAPOFFS 0.00000000000000
      LENGTH 276.11399999999998
      LOOP 0
      ALLTAKES 0
      SEL 0
      FADEIN 1 0.000000 0.000000 1 0
      FADEOUT 1 0.000000 0.000000 1 0
      MUTE 0
      IGUID {C992A584-F982-4ACE-BE02-FEB29DA2A99C}
      IID 6
      NAME "PART REAL_KEYS_H"
      VOLPAN 1.000000 0.000000 1.000000 -1.000000
      SOFFS 0.00000000000000 0.00000000000000
      PLAYRATE 1.00000000000000 1 0.00000000000000 -1
      CHANMODE 0
      GUID {4D7F8978-97A5-48DB-B817-09ED3535181F}
      <SOURCE MIDI
        HASDATA 1 480 QN
        POOLEDEVTS {9A0B3636-1579-4C39-B582-BC393812783B}
        <X 0 0
          /wNQQVJUIFJFQUxfS0VZU19I
        >
        E 0 90 09 60
        E 0 90 09 60
        E 120 80 09 00
        E 0 80 09 00
        E 189960 90 3f 60
        E 0 90 42 60
        E 0 90 46 60
        E 120 80 3f 00
        E 0 80 42 00
        E 0 80 46 00
        E 840 90 3f 60
        E 0 90 42 60
        E 0 90 46 60
        E 120 80 3f 00
        E 0 80 42 00
        E 0 80 46 00
        E 360 90 3f 60
        E 0 90 42 60
        E 0 90 46 60
        E 120 80 3f 00
        E 0 80 42 00
        E 0 80 46 00
        E 840 90 3f 60
        E 0 90 42 60
        E 0 90 46 60
        E 120 80 3f 00
        E 0 80 42 00
        E 0 80 46 00
        E 600 90 3f 60
        E 0 90 42 60
        E 0 90 46 60
        E 120 80 3f 00
        E 0 80 42 00
        E 0 80 46 00
        E 600 90 3d 60
        E 0 90 41 60
        E 0 90 44 60
        E 120 80 3d 00
        E 0 80 41 00
        E 0 80 44 00
        E 840 90 3d 60
        E 0 90 41 60
        E 0 90 44 60
        E 120 80 3d 00
        E 0 80 41 00
        E 0 80 44 00
        E 360 90 3d 60
        E 0 90 41 60
        E 0 90 44 60
        E 120 80 3d 00
        E 0 80 41 00
        E 0 80 44 00
        E 840 90 3d 60
        E 0 90 41 60
        E 0 90 44 60
        E 120 80 3d 00
        E 0 80 41 00
        E 0 80 44 00
        E 600 90 3d 60
        E 0 90 41 60
        E 0 90 44 60
        E 120 80 3d 00
        E 0 80 41 00
        E 0 80 44 00
        E 600 90 3f 60
        E 0 90 42 60
        E 0 90 46 60
        E 120 80 3f 00
        E 0 80 42 00
        E 0 80 46 00
        E 840 90 3f 60
        E 0 90 42 60
        E 0 90 46 60
        E 120 80 3f 00
        E 0 80 42 00
        E 0 80 46 00
        E 360 90 3f 60
        E 0 90 42 60
        E 0 90 46 60
        E 120 80 3f 00
        E 0 80 42 00
        E 0 80 46 00
        E 840 90 3f 60
        E 0 90 42 60
        E 0 90 46 60
        E 120 80 3f 00
        E 0 80 42 00
        E 0 80 46 00
        E 600 90 3f 60
        E 0 90 42 60
        E 0 90 46 60
        E 120 80 3f 00
        E 0 80 42 00
        E 0 80 46 00
        E 600 90 3d 60
        E 0 90 41 60
        E 0 90 44 60
        E 120 80 3d 00
        E 0 80 41 00
        E 0 80 44 00
        E 840 90 3d 60
        E 0 90 41 60
        E 0 90 44 60
        E 120 80 3d 00
        E 0 80 41 00
        E 0 80 44 00
        E 360 90 3d 60
        E 0 90 41 60
        E 120 80 3d 00
        E 0 80 41 00
        E 840 90 3d 60
        E 0 90 44 60
        E 120 80 3d 00
        E 0 80 44 00
        E 600 90 3d 60
        E 0 90 44 60
        E 120 80 3d 00
        E 0 80 44 00
        E 600 90 3f 60
        E 0 90 42 60
        E 0 90 46 60
        E 120 80 3f 00
        E 0 80 42 00
        E 0 80 46 00
        E 840 90 3f 60
        E 0 90 42 60
        E 0 90 46 60
        E 120 80 3f 00
        E 0 80 42 00
        E 0 80 46 00
        E 360 90 3f 60
        E 0 90 42 60
        E 0 90 46 60
        E 120 80 3f 00
        E 0 80 42 00
        E 0 80 46 00
        E 840 90 3f 60
        E 0 90 42 60
        E 0 90 46 60
        E 120 80 3f 00
        E 0 80 42 00
        E 0 80 46 00
        E 600 90 3f 60
        E 0 90 42 60
        E 0 90 46 60
        E 120 80 3f 00
        E 0 80 42 00
        E 0 80 46 00
        E 600 90 3d 60
        E 0 90 41 60
        E 0 90 44 60
        E 120 80 3d 00
        E 0 80 41 00
        E 0 80 44 00
        E 840 90 3d 60
        E 0 90 41 60
        E 0 90 44 60
        E 120 80 3d 00
        E 0 80 41 00
        E 0 80 44 00
        E 360 90 3d 60
        E 0 90 41 60
        E 0 90 44 60
        E 120 80 3d 00
        E 0 80 41 00
        E 0 80 44 00
        E 840 90 3d 60
        E 0 90 41 60
        E 0 90 44 60
        E 120 80 3d 00
        E 0 80 41 00
        E 0 80 44 00
        E 600 90 3d 60
        E 0 90 41 60
        E 0 90 44 60
        E 120 80 3d 00
        E 0 80 41 00
        E 0 80 44 00
        E 600 90 3f 60
        E 0 90 42 60
        E 0 90 46 60
        E 120 80 3f 00
        E 0 80 42 00
        E 0 80 46 00
        E 840 90 3f 60
        E 0 90 42 60
        E 0 90 46 60
        E 120 80 3f 00
        E 0 80 42 00
        E 0 80 46 00
        E 360 90 3f 60
        E 0 90 42 60
        E 0 90 46 60
        E 120 80 3f 00
        E 0 80 42 00
        E 0 80 46 00
        E 840 90 3f 60
        E 0 90 42 60
        E 0 90 46 60
        E 120 80 3f 00
        E 0 80 42 00
        E 0 80 46 00
        E 600 90 3f 60
        E 0 90 42 60
        E 0 90 46 60
        E 120 80 3f 00
        E 0 80 42 00
        E 0 80 46 00
        E 600 90 3d 60
        E 0 90 41 60
        E 0 90 44 60
        E 120 80 3d 00
        E 0 80 41 00
        E 0 80 44 00
        E 840 90 3d 60
        E 0 90 41 60
        E 0 90 44 60
        E 120 80 3d 00
        E 0 80 41 00
        E 0 80 44 00
        E 360 90 3d 60
        E 0 90 41 60
        E 120 80 3d 00
        E 0 80 41 00
        E 2280 90 3f 60
        E 0 90 42 60
        E 0 90 46 60
        E 120 80 3f 00
        E 0 80 42 00
        E 0 80 46 00
        E 840 90 3f 60
        E 0 90 42 60
        E 0 90 46 60
        E 120 80 3f 00
        E 0 80 42 00
        E 0 80 46 00
        E 360 90 3f 60
        E 0 90 42 60
        E 0 90 46 60
        E 120 80 3f 00
        E 0 80 42 00
        E 0 80 46 00
        E 840 90 3f 60
        E 0 90 42 60
        E 0 90 46 60
        E 120 80 3f 00
        E 0 80 42 00
        E 0 80 46 00
        E 600 90 3f 60
        E 0 90 42 60
        E 0 90 46 60
        E 120 80 3f 00
        E 0 80 42 00
        E 0 80 46 00
        E 600 90 3d 60
        E 0 90 41 60
        E 0 90 44 60
        E 120 80 3d 00
        E 0 80 41 00
        E 0 80 44 00
        E 840 90 3d 60
        E 0 90 41 60
        E 0 90 44 60
        E 120 80 3d 00
        E 0 80 41 00
        E 0 80 44 00
        E 360 90 3d 60
        E 0 90 41 60
        E 0 90 44 60
        E 120 80 3d 00
        E 0 80 41 00
        E 0 80 44 00
        E 840 90 3d 60
        E 0 90 41 60
        E 0 90 44 60
        E 120 80 3d 00
        E 0 80 41 00
        E 0 80 44 00
        E 600 90 3d 60
        E 0 90 41 60
        E 0 90 44 60
        E 120 80 3d 00
        E 0 80 41 00
        E 0 80 44 00
        E 600 90 3f 60
        E 0 90 42 60
        E 0 90 46 60
        E 120 80 3f 00
        E 0 80 42 00
        E 0 80 46 00
        E 840 90 3f 60
        E 0 90 42 60
        E 0 90 46 60
        E 120 80 3f 00
        E 0 80 42 00
        E 0 80 46 00
        E 360 90 3f 60
        E 0 90 42 60
        E 0 90 46 60
        E 120 80 3f 00
        E 0 80 42 00
        E 0 80 46 00
        E 840 90 3f 60
        E 0 90 42 60
        E 0 90 46 60
        E 120 80 3f 00
        E 0 80 42 00
        E 0 80 46 00
        E 600 90 3f 60
        E 0 90 42 60
        E 0 90 46 60
        E 120 80 3f 00
        E 0 80 42 00
        E 0 80 46 00
        E 600 90 3d 60
        E 0 90 41 60
        E 0 90 44 60
        E 120 80 3d 00
        E 0 80 41 00
        E 0 80 44 00
        E 840 90 3d 60
        E 0 90 41 60
        E 0 90 44 60
        E 120 80 3d 00
        E 0 80 41 00
        E 0 80 44 00
        E 360 90 3d 60
        E 0 90 41 60
        E 120 80 3d 00
        E 0 80 41 00
        E 840 90 3d 60
        E 0 90 44 60
        E 120 80 3d 00
        E 0 80 44 00
        E 600 90 3d 60
        E 0 90 44 60
        E 120 80 3d 00
        E 0 80 44 00
        E 600 90 3f 60
        E 0 90 42 60
        E 0 90 46 60
        E 120 80 3f 00
        E 0 80 42 00
        E 0 80 46 00
        E 840 90 3f 60
        E 0 90 42 60
        E 0 90 46 60
        E 120 80 3f 00
        E 0 80 42 00
        E 0 80 46 00
        E 360 90 3f 60
        E 0 90 42 60
        E 0 90 46 60
        E 120 80 3f 00
        E 0 80 42 00
        E 0 80 46 00
        E 840 90 3f 60
        E 0 90 42 60
        E 0 90 46 60
        E 120 80 3f 00
        E 0 80 42 00
        E 0 80 46 00
        E 600 90 3f 60
        E 0 90 42 60
        E 0 90 46 60
        E 120 80 3f 00
        E 0 80 42 00
        E 0 80 46 00
        E 600 90 3d 60
        E 0 90 41 60
        E 0 90 44 60
        E 120 80 3d 00
        E 0 80 41 00
        E 0 80 44 00
        E 840 90 3d 60
        E 0 90 41 60
        E 0 90 44 60
        E 120 80 3d 00
        E 0 80 41 00
        E 0 80 44 00
        E 360 90 3d 60
        E 0 90 41 60
        E 0 90 44 60
        E 120 80 3d 00
        E 0 80 41 00
        E 0 80 44 00
        E 840 90 3d 60
        E 0 90 41 60
        E 0 90 44 60
        E 120 80 3d 00
        E 0 80 41 00
        E 0 80 44 00
        E 600 90 3d 60
        E 0 90 41 60
        E 0 90 44 60
        E 120 80 3d 00
        E 0 80 41 00
        E 0 80 44 00
        E 600 90 3f 60
        E 0 90 42 60
        E 0 90 46 60
        E 120 80 3f 00
        E 0 80 42 00
        E 0 80 46 00
        E 840 90 3f 60
        E 0 90 42 60
        E 0 90 46 60
        E 120 80 3f 00
        E 0 80 42 00
        E 0 80 46 00
        E 360 90 3f 60
        E 0 90 42 60
        E 0 90 46 60
        E 120 80 3f 00
        E 0 80 42 00
        E 0 80 46 00
        E 840 90 3f 60
        E 0 90 42 60
        E 0 90 46 60
        E 120 80 3f 00
        E 0 80 42 00
        E 0 80 46 00
        E 600 90 3f 60
        E 0 90 42 60
        E 0 90 46 60
        E 120 80 3f 00
        E 0 80 42 00
        E 0 80 46 00
        E 600 90 3d 60
        E 0 90 41 60
        E 0 90 44 60
        E 120 80 3d 00
        E 0 80 41 00
        E 0 80 44 00
        E 840 90 3d 60
        E 0 90 41 60
        E 0 90 44 60
        E 120 80 3d 00
        E 0 80 41 00
        E 0 80 44 00
        E 360 90 3d 60
        E 0 90 41 60
        E 120 80 3d 00
        E 0 80 41 00
        E 840 90 3d 60
        E 0 90 44 60
        E 120 80 3d 00
        E 0 80 44 00
        E 32040 90 3c 60
        E 0 90 3f 60
        E 0 90 43 60
        E 4080 80 3c 00
        E 0 80 3f 00
        E 0 80 43 00
        E 240 90 3f 60
        E 0 90 42 60
        E 0 90 46 60
        E 120 80 3f 00
        E 0 80 42 00
        E 0 80 46 00
        E 840 90 3f 60
        E 0 90 42 60
        E 0 90 46 60
        E 120 80 3f 00
        E 0 80 42 00
        E 0 80 46 00
        E 360 90 3f 60
        E 0 90 42 60
        E 0 90 46 60
        E 120 80 3f 00
        E 0 80 42 00
        E 0 80 46 00
        E 840 90 3f 60
        E 0 90 42 60
        E 0 90 46 60
        E 120 80 3f 00
        E 0 80 42 00
        E 0 80 46 00
        E 600 90 3f 60
        E 0 90 42 60
        E 0 90 46 60
        E 120 80 3f 00
        E 0 80 42 00
        E 0 80 46 00
        E 600 90 3d 60
        E 0 90 41 60
        E 0 90 44 60
        E 120 80 3d 00
        E 0 80 41 00
        E 0 80 44 00
        E 840 90 3d 60
        E 0 90 41 60
        E 0 90 44 60
        E 120 80 3d 00
        E 0 80 41 00
        E 0 80 44 00
        E 360 90 3d 60
        E 0 90 41 60
        E 0 90 44 60
        E 120 80 3d 00
        E 0 80 41 00
        E 0 80 44 00
        E 840 90 3d 60
        E 0 90 41 60
        E 0 90 44 60
        E 120 80 3d 00
        E 0 80 41 00
        E 0 80 44 00
        E 600 90 3d 60
        E 0 90 41 60
        E 0 90 44 60
        E 120 80 3d 00
        E 0 80 41 00
        E 0 80 44 00
        E 600 90 3f 60
        E 0 90 42 60
        E 0 90 46 60
        E 120 80 3f 00
        E 0 80 42 00
        E 0 80 46 00
        E 840 90 3f 60
        E 0 90 42 60
        E 0 90 46 60
        E 120 80 3f 00
        E 0 80 42 00
        E 0 80 46 00
        E 360 90 3f 60
        E 0 90 42 60
        E 0 90 46 60
        E 120 80 3f 00
        E 0 80 42 00
        E 0 80 46 00
        E 840 90 3f 60
        E 0 90 42 60
        E 0 90 46 60
        E 120 80 3f 00
        E 0 80 42 00
        E 0 80 46 00
        E 600 90 3f 60
        E 0 90 42 60
        E 0 90 46 60
        E 120 80 3f 00
        E 0 80 42 00
        E 0 80 46 00
        E 600 90 3d 60
        E 0 90 41 60
        E 0 90 44 60
        E 120 80 3d 00
        E 0 80 41 00
        E 0 80 44 00
        E 840 90 3d 60
        E 0 90 41 60
        E 0 90 44 60
        E 120 80 3d 00
        E 0 80 41 00
        E 0 80 44 00
        E 360 90 3d 60
        E 0 90 41 60
        E 120 80 3d 00
        E 0 80 41 00
        E 840 90 3d 60
        E 0 90 44 60
        E 120 80 3d 00
        E 0 80 44 00
        E 600 90 3d 60
        E 0 90 44 60
        E 120 80 3d 00
        E 0 80 44 00
        E 600 90 3f 60
        E 0 90 42 60
        E 0 90 46 60
        E 120 80 3f 00
        E 0 80 42 00
        E 0 80 46 00
        E 840 90 3f 60
        E 0 90 42 60
        E 0 90 46 60
        E 120 80 3f 00
        E 0 80 42 00
        E 0 80 46 00
        E 360 90 3f 60
        E 0 90 42 60
        E 0 90 46 60
        E 120 80 3f 00
        E 0 80 42 00
        E 0 80 46 00
        E 840 90 3f 60
        E 0 90 42 60
        E 0 90 46 60
        E 120 80 3f 00
        E 0 80 42 00
        E 0 80 46 00
        E 600 90 3f 60
        E 0 90 42 60
        E 0 90 46 60
        E 120 80 3f 00
        E 0 80 42 00
        E 0 80 46 00
        E 600 90 3d 60
        E 0 90 41 60
        E 0 90 44 60
        E 120 80 3d 00
        E 0 80 41 00
        E 0 80 44 00
        E 840 90 3d 60
        E 0 90 41 60
        E 0 90 44 60
        E 120 80 3d 00
        E 0 80 41 00
        E 0 80 44 00
        E 360 90 3d 60
        E 0 90 41 60
        E 0 90 44 60
        E 120 80 3d 00
        E 0 80 41 00
        E 0 80 44 00
        E 840 90 3d 60
        E 0 90 41 60
        E 0 90 44 60
        E 120 80 3d 00
        E 0 80 41 00
        E 0 80 44 00
        E 600 90 3d 60
        E 0 90 41 60
        E 0 90 44 60
        E 120 80 3d 00
        E 0 80 41 00
        E 0 80 44 00
        E 600 90 3f 60
        E 0 90 42 60
        E 0 90 46 60
        E 120 80 3f 00
        E 0 80 42 00
        E 0 80 46 00
        E 840 90 3f 60
        E 0 90 42 60
        E 0 90 46 60
        E 120 80 3f 00
        E 0 80 42 00
        E 0 80 46 00
        E 360 90 3f 60
        E 0 90 42 60
        E 0 90 46 60
        E 120 80 3f 00
        E 0 80 42 00
        E 0 80 46 00
        E 840 90 3f 60
        E 0 90 42 60
        E 0 90 46 60
        E 120 80 3f 00
        E 0 80 42 00
        E 0 80 46 00
        E 600 90 3f 60
        E 0 90 42 60
        E 0 90 46 60
        E 120 80 3f 00
        E 0 80 42 00
        E 0 80 46 00
        E 600 90 3d 60
        E 0 90 41 60
        E 0 90 44 60
        E 120 80 3d 00
        E 0 80 41 00
        E 0 80 44 00
        E 840 90 3d 60
        E 0 90 41 60
        E 0 90 44 60
        E 120 80 3d 00
        E 0 80 41 00
        E 0 80 44 00
        E 360 90 3d 60
        E 0 90 41 60
        E 120 80 3d 00
        E 0 80 41 00
        E 840 90 3d 60
        E 0 90 44 60
        E 120 80 3d 00
        E 0 80 44 00
        E 600 90 3d 60
        E 0 90 44 60
        E 120 80 3d 00
        E 0 80 44 00
        E 600 90 3f 60
        E 0 90 42 60
        E 0 90 46 60
        E 120 80 3f 00
        E 0 80 42 00
        E 0 80 46 00
        E 840 90 3f 60
        E 0 90 42 60
        E 0 90 46 60
        E 120 80 3f 00
        E 0 80 42 00
        E 0 80 46 00
        E 360 90 3f 60
        E 0 90 42 60
        E 0 90 46 60
        E 120 80 3f 00
        E 0 80 42 00
        E 0 80 46 00
        E 840 90 3f 60
        E 0 90 42 60
        E 0 90 46 60
        E 120 80 3f 00
        E 0 80 42 00
        E 0 80 46 00
        E 600 90 3f 60
        E 0 90 42 60
        E 0 90 46 60
        E 120 80 3f 00
        E 0 80 42 00
        E 0 80 46 00
        E 600 90 3d 60
        E 0 90 41 60
        E 0 90 44 60
        E 120 80 3d 00
        E 0 80 41 00
        E 0 80 44 00
        E 840 90 3d 60
        E 0 90 41 60
        E 0 90 44 60
        E 120 80 3d 00
        E 0 80 41 00
        E 0 80 44 00
        E 360 90 3d 60
        E 0 90 41 60
        E 0 90 44 60
        E 120 80 3d 00
        E 0 80 41 00
        E 0 80 44 00
        E 840 90 3d 60
        E 0 90 41 60
        E 0 90 44 60
        E 120 80 3d 00
        E 0 80 41 00
        E 0 80 44 00
        E 600 90 3d 60
        E 0 90 41 60
        E 0 90 44 60
        E 120 80 3d 00
        E 0 80 41 00
        E 0 80 44 00
        E 600 90 3f 60
        E 0 90 42 60
        E 0 90 46 60
        E 120 80 3f 00
        E 0 80 42 00
        E 0 80 46 00
        E 840 90 3f 60
        E 0 90 42 60
        E 0 90 46 60
        E 120 80 3f 00
        E 0 80 42 00
        E 0 80 46 00
        E 360 90 3f 60
        E 0 90 42 60
        E 0 90 46 60
        E 120 80 3f 00
        E 0 80 42 00
        E 0 80 46 00
        E 840 90 3f 60
        E 0 90 42 60
        E 0 90 46 60
        E 120 80 3f 00
        E 0 80 42 00
        E 0 80 46 00
        E 600 90 3f 60
        E 0 90 42 60
        E 0 90 46 60
        E 120 80 3f 00
        E 0 80 42 00
        E 0 80 46 00
        E 600 90 3d 60
        E 0 90 41 60
        E 0 90 44 60
        E 120 80 3d 00
        E 0 80 41 00
        E 0 80 44 00
        E 840 90 3d 60
        E 0 90 41 60
        E 0 90 44 60
        E 120 80 3d 00
        E 0 80 41 00
        E 0 80 44 00
        E 360 90 3d 60
        E 0 90 41 60
        E 120 80 3d 00
        E 0 80 41 00
        E 840 90 3d 60
        E 0 90 44 60
        E 120 80 3d 00
        E 0 80 44 00
        E 600 90 3d 60
        E 0 90 44 60
        E 120 80 3d 00
        E 0 80 44 00
        E 600 90 3f 60
        E 0 90 42 60
        E 0 90 46 60
        E 120 80 3f 00
        E 0 80 42 00
        E 0 80 46 00
        E 840 90 3f 60
        E 0 90 42 60
        E 0 90 46 60
        E 120 80 3f 00
        E 0 80 42 00
        E 0 80 46 00
        E 360 90 3f 60
        E 0 90 42 60
        E 0 90 46 60
        E 120 80 3f 00
        E 0 80 42 00
        E 0 80 46 00
        E 840 90 3f 60
        E 0 90 42 60
        E 0 90 46 60
        E 120 80 3f 00
        E 0 80 42 00
        E 0 80 46 00
        E 600 90 3f 60
        E 0 90 42 60
        E 0 90 46 60
        E 120 80 3f 00
        E 0 80 42 00
        E 0 80 46 00
        E 600 90 3d 60
        E 0 90 41 60
        E 0 90 44 60
        E 120 80 3d 00
        E 0 80 41 00
        E 0 80 44 00
        E 840 90 3d 60
        E 0 90 41 60
        E 0 90 44 60
        E 120 80 3d 00
        E 0 80 41 00
        E 0 80 44 00
        E 360 90 3d 60
        E 0 90 41 60
        E 0 90 44 60
        E 120 80 3d 00
        E 0 80 41 00
        E 0 80 44 00
        E 840 90 3d 60
        E 0 90 41 60
        E 0 90 44 60
        E 120 80 3d 00
        E 0 80 41 00
        E 0 80 44 00
        E 600 90 3d 60
        E 0 90 41 60
        E 0 90 44 60
        E 120 80 3d 00
        E 0 80 41 00
        E 0 80 44 00
        E 15959 b0 7b 00
        GUID {A55DE49C-62B3-45F2-88F3-88BEDA75EB96}
        IGNTEMPO 0 120.00000000 4 4
        SRCCOLOR 8
        VELLANE 132 128 60
        COLORMAP "C:\Program Files\REAPER (x64)\Data\color_maps\rockband_guitarbass.png"
        CFGEDITVIEW 273303.724639 49.841938 0 15 0 0 0
        CFGEDIT 1 1 0 1 1 0 1 1 1 1 1 0.25000000 -8 -8 1544 872 0 2 1 1 0.00000000 0 1 1 0 0.500000 0 0 1.000000 64
        KEYSNAP 0 6 "102030050700" 0 "Pentatonic"
        EVTFILTER 0 -1 -1 -1 -1 0 1 0 0 -1.00000000 -1.00000000
      >
    >
  >
  <TRACK '{486BE086-63DD-468E-9774-F07C7EA5D515}'
    NAME "PART REAL_KEYS_M"
    PEAKCOL 16576
    BEAT -1
    AUTOMODE 0
    VOLPAN 1.00000000000000 0.00000000000000 -1.00000000000000 -1.00000000000000 1.00000000000000
    MUTESOLO 0 0 0
    IPHASE 0
    ISBUS 0 0
    BUSCOMP 0 0
    SHOWINMIX 1 0.666700 0.500000 1 0.500000 -1 -1 -1
    FREEMODE 0
    SEL 0
    REC 0 0 0 0 0 0 0
    VU 2
    TRACKHEIGHT 0 0
    INQ 0 0 0 0.5000000000 100 0 0 100
    NCHAN 2
    FX 1
    TRACKID {486BE086-63DD-468E-9774-F07C7EA5D515}
    PERF 0
    MIDIOUT -1
    <MIDINOTENAMES
      0 72 "Highest playable note B#3"
      0 71 "B3"
      0 70 "A#3"
      0 69 "A3"
      0 68 "G#3"
      0 67 "G3"
      0 66 "F#3"
      0 65 "F3"
      0 64 "E3"
      0 63 "D#3"
      0 62 "D3"
      0 61 "C#3"
      0 60 "C3"
      0 59 "B2"
      0 58 "A#2"
      0 57 "A2"
      0 56 "G#2"
      0 55 "G2"
      0 54 "F#2"
      0 53 "F2"
      0 52 "E2"
      0 51 "D#2"
      0 50 "D2"
      0 49 "C#2"
      0 48 "Lowest playable note C2"
      0 10 "---"
      0 9 "Range A2-C4"
      0 8 "Range"
      0 7 "Range"
      0 6 "Range"
      0 5 "Range F2-A3"
      0 4 "Range"
      0 3 "Range"
      0 2 "Range"
      0 1 "Range"
      0 0 "Range C2-E3"
    >
    MAINSEND 1 0
    <FXCHAIN
      SHOW 0
      LASTSEL 0
      DOCKED 0
    >
    <ITEM
      POSITION 0.00000000000000
      SNAPOFFS 0.00000000000000
      LENGTH 276.11399999999998
      LOOP 0
      ALLTAKES 0
      SEL 0
      FADEIN 1 0.000000 0.000000 1 0
      FADEOUT 1 0.000000 0.000000 1 0
      MUTE 0
      IGUID {317BD09D-5D30-4641-88A6-B18B628D734B}
      IID 7
      NAME "PART REAL_KEYS_M"
      VOLPAN 1.000000 0.000000 1.000000 -1.000000
      SOFFS 0.00000000000000 0.00000000000000
      PLAYRATE 1.00000000000000 1 0.00000000000000 -1
      CHANMODE 0
      GUID {DBC6A52D-7C07-449C-A33A-704457DB181E}
      <SOURCE MIDI
        HASDATA 1 480 QN
        POOLEDEVTS {2AA27C0B-0785-4F03-AA5D-3E768F634F36}
        <X 0 0
          /wNQQVJUIFJFQUxfS0VZU19N
        >
        E 0 90 09 60
        E 0 90 09 60
        E 0 90 09 60
        E 120 80 09 00
        E 0 80 09 00
        E 0 80 09 00
        E 189960 90 3f 60
        E 120 80 3f 00
        E 840 90 3f 60
        E 120 80 3f 00
        E 360 90 3f 60
        E 120 80 3f 00
        E 840 90 3f 60
        E 120 80 3f 00
        E 600 90 3f 60
        E 120 80 3f 00
        E 600 90 3d 60
        E 0 90 41 60
        E 120 80 3d 00
        E 0 80 41 00
        E 840 90 3d 60
        E 0 90 41 60
        E 120 80 3d 00
        E 0 80 41 00
        E 360 90 3d 60
        E 0 90 41 60
        E 120 80 3d 00
        E 0 80 41 00
        E 840 90 3d 60
        E 0 90 41 60
        E 120 80 3d 00
        E 0 80 41 00
        E 600 90 3d 60
        E 0 90 41 60
        E 120 80 3d 00
        E 0 80 41 00
        E 600 90 3f 60
        E 120 80 3f 00
        E 840 90 3f 60
        E 120 80 3f 00
        E 360 90 3f 60
        E 120 80 3f 00
        E 840 90 3f 60
        E 120 80 3f 00
        E 600 90 3f 60
        E 120 80 3f 00
        E 600 90 3d 60
        E 0 90 41 60
        E 120 80 3d 00
        E 0 80 41 00
        E 840 90 3d 60
        E 0 90 41 60
        E 120 80 3d 00
        E 0 80 41 00
        E 360 90 3d 60
        E 0 90 41 60
        E 120 80 3d 00
        E 0 80 41 00
        E 840 90 3d 60
        E 120 80 3d 00
        E 600 90 3d 60
        E 120 80 3d 00
        E 600 90 3f 60
        E 120 80 3f 00
        E 840 90 3f 60
        E 120 80 3f 00
        E 360 90 3f 60
        E 120 80 3f 00
        E 840 90 3f 60
        E 120 80 3f 00
        E 600 90 3f 60
        E 120 80 3f 00
        E 600 90 3d 60
        E 0 90 41 60
        E 120 80 3d 00
        E 0 80 41 00
        E 840 90 3d 60
        E 0 90 41 60
        E 120 80 3d 00
        E 0 80 41 00
        E 360 90 3d 60
        E 0 90 41 60
        E 120 80 3d 00
        E 0 80 41 00
        E 840 90 3d 60
        E 0 90 41 60
        E 120 80 3d 00
        E 0 80 41 00
        E 600 90 3d 60
        E 0 90 41 60
        E 120 80 3d 00
        E 0 80 41 00
        E 600 90 3f 60
        E 120 80 3f 00
        E 840 90 3f 60
        E 120 80 3f 00
        E 360 90 3f 60
        E 120 80 3f 00
        E 840 90 3f 60
        E 120 80 3f 00
        E 600 90 3f 60
        E 120 80 3f 00
        E 600 90 3d 60
        E 0 90 41 60
        E 120 80 3d 00
        E 0 80 41 00
        E 840 90 3d 60
        E 0 90 41 60
        E 120 80 3d 00
        E 0 80 41 00
        E 360 90 3d 60
        E 0 90 41 60
        E 120 80 3d 00
        E 0 80 41 00
        E 2280 90 3f 60
        E 120 80 3f 00
        E 840 90 3f 60
        E 120 80 3f 00
        E 360 90 3f 60
        E 120 80 3f 00
        E 840 90 3f 60
        E 120 80 3f 00
        E 600 90 3f 60
        E 120 80 3f 00
        E 600 90 3d 60
        E 0 90 41 60
        E 120 80 3d 00
        E 0 80 41 00
        E 840 90 3d 60
        E 0 90 41 60
        E 120 80 3d 00
        E 0 80 41 00
        E 360 90 3d 60
        E 0 90 41 60
        E 120 80 3d 00
        E 0 80 41 00
        E 840 90 3d 60
        E 0 90 41 60
        E 120 80 3d 00
        E 0 80 41 00
        E 600 90 3d 60
        E 0 90 41 60
        E 120 80 3d 00
        E 0 80 41 00
        E 600 90 3f 60
        E 120 80 3f 00
        E 840 90 3f 60
        E 120 80 3f 00
        E 360 90 3f 60
        E 120 80 3f 00
        E 840 90 3f 60
        E 120 80 3f 00
        E 600 90 3f 60
        E 120 80 3f 00
        E 600 90 3d 60
        E 0 90 41 60
        E 120 80 3d 00
        E 0 80 41 00
        E 840 90 3d 60
        E 0 90 41 60
        E 120 80 3d 00
        E 0 80 41 00
        E 360 90 3d 60
        E 0 90 41 60
        E 120 80 3d 00
        E 0 80 41 00
        E 840 90 3d 60
        E 120 80 3d 00
        E 600 90 3d 60
        E 120 80 3d 00
        E 600 90 3f 60
        E 120 80 3f 00
        E 840 90 3f 60
        E 120 80 3f 00
        E 360 90 3f 60
        E 120 80 3f 00
        E 840 90 3f 60
        E 120 80 3f 00
        E 600 90 3f 60
        E 120 80 3f 00
        E 600 90 3d 60
        E 0 90 41 60
        E 120 80 3d 00
        E 0 80 41 00
        E 840 90 3d 60
        E 0 90 41 60
        E 120 80 3d 00
        E 0 80 41 00
        E 360 90 3d 60
        E 0 90 41 60
        E 120 80 3d 00
        E 0 80 41 00
        E 840 90 3d 60
        E 0 90 41 60
        E 120 80 3d 00
        E 0 80 41 00
        E 600 90 3d 60
        E 0 90 41 60
        E 120 80 3d 00
        E 0 80 41 00
        E 600 90 3f 60
        E 120 80 3f 00
        E 840 90 3f 60
        E 120 80 3f 00
        E 360 90 3f 60
        E 120 80 3f 00
        E 840 90 3f 60
        E 120 80 3f 00
        E 600 90 3f 60
        E 120 80 3f 00
        E 600 90 3d 60
        E 0 90 41 60
        E 120 80 3d 00
        E 0 80 41 00
        E 840 90 3d 60
        E 0 90 41 60
        E 120 80 3d 00
        E 0 80 41 00
        E 360 90 3d 60
        E 0 90 41 60
        E 120 80 3d 00
        E 0 80 41 00
        E 840 90 3d 60
        E 120 80 3d 00
        E 32040 90 3c 60
        E 0 90 3f 60
        E 4080 80 3c 00
        E 0 80 3f 00
        E 240 90 3f 60
        E 120 80 3f 00
        E 840 90 3f 60
        E 120 80 3f 00
        E 360 90 3f 60
        E 120 80 3f 00
        E 840 90 3f 60
        E 120 80 3f 00
        E 600 90 3f 60
        E 120 80 3f 00
        E 600 90 3d 60
        E 0 90 41 60
        E 120 80 3d 00
        E 0 80 41 00
        E 840 90 3d 60
        E 0 90 41 60
        E 120 80 3d 00
        E 0 80 41 00
        E 360 90 3d 60
        E 0 90 41 60
        E 120 80 3d 00
        E 0 80 41 00
        E 840 90 3d 60
        E 0 90 41 60
        E 120 80 3d 00
        E 0 80 41 00
        E 600 90 3d 60
        E 0 90 41 60
        E 120 80 3d 00
        E 0 80 41 00
        E 600 90 3f 60
        E 120 80 3f 00
        E 840 90 3f 60
        E 120 80 3f 00
        E 360 90 3f 60
        E 120 80 3f 00
        E 840 90 3f 60
        E 120 80 3f 00
        E 600 90 3f 60
        E 120 80 3f 00
        E 600 90 3d 60
        E 0 90 41 60
        E 120 80 3d 00
        E 0 80 41 00
        E 840 90 3d 60
        E 0 90 41 60
        E 120 80 3d 00
        E 0 80 41 00
        E 360 90 3d 60
        E 0 90 41 60
        E 120 80 3d 00
        E 0 80 41 00
        E 840 90 3d 60
        E 120 80 3d 00
        E 600 90 3d 60
        E 120 80 3d 00
        E 600 90 3f 60
        E 120 80 3f 00
        E 840 90 3f 60
        E 120 80 3f 00
        E 360 90 3f 60
        E 120 80 3f 00
        E 840 90 3f 60
        E 120 80 3f 00
        E 600 90 3f 60
        E 120 80 3f 00
        E 600 90 3d 60
        E 0 90 41 60
        E 120 80 3d 00
        E 0 80 41 00
        E 840 90 3d 60
        E 0 90 41 60
        E 120 80 3d 00
        E 0 80 41 00
        E 360 90 3d 60
        E 0 90 41 60
        E 120 80 3d 00
        E 0 80 41 00
        E 840 90 3d 60
        E 0 90 41 60
        E 120 80 3d 00
        E 0 80 41 00
        E 600 90 3d 60
        E 0 90 41 60
        E 120 80 3d 00
        E 0 80 41 00
        E 600 90 3f 60
        E 120 80 3f 00
        E 840 90 3f 60
        E 120 80 3f 00
        E 360 90 3f 60
        E 120 80 3f 00
        E 840 90 3f 60
        E 120 80 3f 00
        E 600 90 3f 60
        E 120 80 3f 00
        E 600 90 3d 60
        E 0 90 41 60
        E 120 80 3d 00
        E 0 80 41 00
        E 840 90 3d 60
        E 0 90 41 60
        E 120 80 3d 00
        E 0 80 41 00
        E 360 90 3d 60
        E 0 90 41 60
        E 120 80 3d 00
        E 0 80 41 00
        E 840 90 3d 60
        E 120 80 3d 00
        E 600 90 3d 60
        E 120 80 3d 00
        E 600 90 3f 60
        E 120 80 3f 00
        E 840 90 3f 60
        E 120 80 3f 00
        E 360 90 3f 60
        E 120 80 3f 00
        E 840 90 3f 60
        E 120 80 3f 00
        E 600 90 3f 60
        E 120 80 3f 00
        E 600 90 3d 60
        E 0 90 41 60
        E 120 80 3d 00
        E 0 80 41 00
        E 840 90 3d 60
        E 0 90 41 60
        E 120 80 3d 00
        E 0 80 41 00
        E 360 90 3d 60
        E 0 90 41 60
        E 120 80 3d 00
        E 0 80 41 00
        E 840 90 3d 60
        E 0 90 41 60
        E 120 80 3d 00
        E 0 80 41 00
        E 600 90 3d 60
        E 0 90 41 60
        E 120 80 3d 00
        E 0 80 41 00
        E 600 90 3f 60
        E 120 80 3f 00
        E 840 90 3f 60
        E 120 80 3f 00
        E 360 90 3f 60
        E 120 80 3f 00
        E 840 90 3f 60
        E 120 80 3f 00
        E 600 90 3f 60
        E 120 80 3f 00
        E 600 90 3d 60
        E 0 90 41 60
        E 120 80 3d 00
        E 0 80 41 00
        E 840 90 3d 60
        E 0 90 41 60
        E 120 80 3d 00
        E 0 80 41 00
        E 360 90 3d 60
        E 0 90 41 60
        E 120 80 3d 00
        E 0 80 41 00
        E 840 90 3d 60
        E 120 80 3d 00
        E 600 90 3d 60
        E 120 80 3d 00
        E 600 90 3f 60
        E 120 80 3f 00
        E 840 90 3f 60
        E 120 80 3f 00
        E 360 90 3f 60
        E 120 80 3f 00
        E 840 90 3f 60
        E 120 80 3f 00
        E 600 90 3f 60
        E 120 80 3f 00
        E 600 90 3d 60
        E 0 90 41 60
        E 120 80 3d 00
        E 0 80 41 00
        E 840 90 3d 60
        E 0 90 41 60
        E 120 80 3d 00
        E 0 80 41 00
        E 360 90 3d 60
        E 0 90 41 60
        E 120 80 3d 00
        E 0 80 41 00
        E 840 90 3d 60
        E 0 90 41 60
        E 120 80 3d 00
        E 0 80 41 00
        E 600 90 3d 60
        E 0 90 41 60
        E 120 80 3d 00
        E 0 80 41 00
        E 15959 b0 7b 00
        GUID {CC37500E-0119-439C-ACCE-5DFBA8AB2A4A}
        IGNTEMPO 0 120.00000000 4 4
        SRCCOLOR 9
        VELLANE 132 128 60
        COLORMAP "C:\Program Files\REAPER (x64)\Data\color_maps\rockband_guitarbass.png"
        CFGEDITVIEW 273329.686138 49.841938 0 15 0 0 0
        CFGEDIT 1 1 0 1 1 0 1 1 1 1 1 0.25000000 -8 -8 1544 872 0 2 1 1 0.00000000 0 1 1 0 0.500000 0 0 1.000000 64
        KEYSNAP 0 6 "102030050700" 0 "Pentatonic"
        EVTFILTER 0 -1 -1 -1 -1 0 1 0 0 -1.00000000 -1.00000000
      >
    >
  >
  <TRACK '{2B251A8A-4262-4916-99E9-2F9A9347EF79}'
    NAME "PART REAL_KEYS_E"
    PEAKCOL 16576
    BEAT -1
    AUTOMODE 0
    VOLPAN 1.00000000000000 0.00000000000000 -1.00000000000000 -1.00000000000000 1.00000000000000
    MUTESOLO 0 0 0
    IPHASE 0
    ISBUS 0 0
    BUSCOMP 0 0
    SHOWINMIX 1 0.666700 0.500000 1 0.500000 -1 -1 -1
    FREEMODE 0
    SEL 0
    REC 0 0 0 0 0 0 0
    VU 2
    TRACKHEIGHT 0 0
    INQ 0 0 0 0.5000000000 100 0 0 100
    NCHAN 2
    FX 1
    TRACKID {2B251A8A-4262-4916-99E9-2F9A9347EF79}
    PERF 0
    MIDIOUT -1
    <MIDINOTENAMES
      0 72 "Highest playable note B#3"
      0 71 "B3"
      0 70 "A#3"
      0 69 "A3"
      0 68 "G#3"
      0 67 "G3"
      0 66 "F#3"
      0 65 "F3"
      0 64 "E3"
      0 63 "D#3"
      0 62 "D3"
      0 61 "C#3"
      0 60 "C3"
      0 59 "B2"
      0 58 "A#2"
      0 57 "A2"
      0 56 "G#2"
      0 55 "G2"
      0 54 "F#2"
      0 53 "F2"
      0 52 "E2"
      0 51 "D#2"
      0 50 "D2"
      0 49 "C#2"
      0 48 "Lowest playable note C2"
      0 10 "---"
      0 9 "Range A2-C4"
      0 8 "Range"
      0 7 "Range"
      0 6 "Range"
      0 5 "Range F2-A3"
      0 4 "Range"
      0 3 "Range"
      0 2 "Range"
      0 1 "Range"
      0 0 "Range C2-E3"
    >
    MAINSEND 1 0
    <FXCHAIN
      SHOW 0
      LASTSEL 0
      DOCKED 0
    >
    <ITEM
      POSITION 0.00000000000000
      SNAPOFFS 0.00000000000000
      LENGTH 276.11399999999998
      LOOP 0
      ALLTAKES 0
      SEL 0
      FADEIN 1 0.000000 0.000000 1 0
      FADEOUT 1 0.000000 0.000000 1 0
      MUTE 0
      IGUID {D46300E4-84A6-407D-8BE4-E23D6F4F57D8}
      IID 8
      NAME "PART REAL_KEYS_E"
      VOLPAN 1.000000 0.000000 1.000000 -1.000000
      SOFFS 0.00000000000000 0.00000000000000
      PLAYRATE 1.00000000000000 1 0.00000000000000 -1
      CHANMODE 0
      GUID {46244970-2CE5-4867-8392-CE20710EC5E6}
      <SOURCE MIDI
        HASDATA 1 480 QN
        POOLEDEVTS {F99EF133-42D9-47AA-9FC1-49C93DEBA364}
        <X 0 0
          /wNQQVJUIFJFQUxfS0VZU19F
        >
        E 0 90 09 60
        E 0 90 09 60
        E 0 90 09 60
        E 0 90 09 60
        E 120 80 09 00
        E 0 80 09 00
        E 0 80 09 00
        E 0 80 09 00
        E 189960 90 3f 60
        E 120 80 3f 00
        E 840 90 3f 60
        E 120 80 3f 00
        E 360 90 3f 60
        E 120 80 3f 00
        E 840 90 3f 60
        E 120 80 3f 00
        E 1320 90 3d 60
        E 120 80 3d 00
        E 840 90 3d 60
        E 120 80 3d 00
        E 360 90 3d 60
        E 120 80 3d 00
        E 840 90 3d 60
        E 120 80 3d 00
        E 1320 90 3f 60
        E 120 80 3f 00
        E 840 90 3f 60
        E 120 80 3f 00
        E 360 90 3f 60
        E 120 80 3f 00
        E 840 90 3f 60
        E 120 80 3f 00
        E 1320 90 3d 60
        E 120 80 3d 00
        E 840 90 3d 60
        E 120 80 3d 00
        E 1320 90 3d 60
        E 120 80 3d 00
        E 1320 90 3f 60
        E 120 80 3f 00
        E 840 90 3f 60
        E 120 80 3f 00
        E 360 90 3f 60
        E 120 80 3f 00
        E 840 90 3f 60
        E 120 80 3f 00
        E 1320 90 3d 60
        E 120 80 3d 00
        E 840 90 3d 60
        E 120 80 3d 00
        E 360 90 3d 60
        E 120 80 3d 00
        E 840 90 3d 60
        E 120 80 3d 00
        E 1320 90 3f 60
        E 120 80 3f 00
        E 840 90 3f 60
        E 120 80 3f 00
        E 360 90 3f 60
        E 120 80 3f 00
        E 840 90 3f 60
        E 120 80 3f 00
        E 1320 90 3d 60
        E 120 80 3d 00
        E 840 90 3d 60
        E 120 80 3d 00
        E 2760 90 3f 60
        E 120 80 3f 00
        E 840 90 3f 60
        E 120 80 3f 00
        E 360 90 3f 60
        E 120 80 3f 00
        E 840 90 3f 60
        E 120 80 3f 00
        E 1320 90 3d 60
        E 120 80 3d 00
        E 840 90 3d 60
        E 120 80 3d 00
        E 360 90 3d 60
        E 120 80 3d 00
        E 840 90 3d 60
        E 120 80 3d 00
        E 1320 90 3f 60
        E 120 80 3f 00
        E 840 90 3f 60
        E 120 80 3f 00
        E 360 90 3f 60
        E 120 80 3f 00
        E 840 90 3f 60
        E 120 80 3f 00
        E 1320 90 3d 60
        E 120 80 3d 00
        E 840 90 3d 60
        E 120 80 3d 00
        E 1320 90 3d 60
        E 120 80 3d 00
        E 1320 90 3f 60
        E 120 80 3f 00
        E 840 90 3f 60
        E 120 80 3f 00
        E 360 90 3f 60
        E 120 80 3f 00
        E 840 90 3f 60
        E 120 80 3f 00
        E 1320 90 3d 60
        E 120 80 3d 00
        E 840 90 3d 60
        E 120 80 3d 00
        E 360 90 3d 60
        E 120 80 3d 00
        E 840 90 3d 60
        E 120 80 3d 00
        E 1320 90 3f 60
        E 120 80 3f 00
        E 840 90 3f 60
        E 120 80 3f 00
        E 360 90 3f 60
        E 120 80 3f 00
        E 840 90 3f 60
        E 120 80 3f 00
        E 1320 90 3d 60
        E 120 80 3d 00
        E 840 90 3d 60
        E 120 80 3d 00
        E 1320 90 3d 60
        E 120 80 3d 00
        E 32040 90 3c 60
        E 0 90 3f 60
        E 4080 80 3c 00
        E 0 80 3f 00
        E 240 90 3f 60
        E 120 80 3f 00
        E 840 90 3f 60
        E 120 80 3f 00
        E 360 90 3f 60
        E 120 80 3f 00
        E 840 90 3f 60
        E 120 80 3f 00
        E 1320 90 3d 60
        E 120 80 3d 00
        E 840 90 3d 60
        E 120 80 3d 00
        E 360 90 3d 60
        E 120 80 3d 00
        E 840 90 3d 60
        E 120 80 3d 00
        E 1320 90 3f 60
        E 120 80 3f 00
        E 840 90 3f 60
        E 120 80 3f 00
        E 360 90 3f 60
        E 120 80 3f 00
        E 840 90 3f 60
        E 120 80 3f 00
        E 1320 90 3d 60
        E 120 80 3d 00
        E 840 90 3d 60
        E 120 80 3d 00
        E 1320 90 3d 60
        E 120 80 3d 00
        E 1320 90 3f 60
        E 120 80 3f 00
        E 840 90 3f 60
        E 120 80 3f 00
        E 360 90 3f 60
        E 120 80 3f 00
        E 840 90 3f 60
        E 120 80 3f 00
        E 1320 90 3d 60
        E 120 80 3d 00
        E 840 90 3d 60
        E 120 80 3d 00
        E 360 90 3d 60
        E 120 80 3d 00
        E 840 90 3d 60
        E 120 80 3d 00
        E 1320 90 3f 60
        E 120 80 3f 00
        E 840 90 3f 60
        E 120 80 3f 00
        E 360 90 3f 60
        E 120 80 3f 00
        E 840 90 3f 60
        E 120 80 3f 00
        E 1320 90 3d 60
        E 120 80 3d 00
        E 840 90 3d 60
        E 120 80 3d 00
        E 1320 90 3d 60
        E 120 80 3d 00
        E 1320 90 3f 60
        E 120 80 3f 00
        E 840 90 3f 60
        E 120 80 3f 00
        E 360 90 3f 60
        E 120 80 3f 00
        E 840 90 3f 60
        E 120 80 3f 00
        E 1320 90 3d 60
        E 120 80 3d 00
        E 840 90 3d 60
        E 120 80 3d 00
        E 360 90 3d 60
        E 120 80 3d 00
        E 840 90 3d 60
        E 120 80 3d 00
        E 1320 90 3f 60
        E 120 80 3f 00
        E 840 90 3f 60
        E 120 80 3f 00
        E 360 90 3f 60
        E 120 80 3f 00
        E 840 90 3f 60
        E 120 80 3f 00
        E 1320 90 3d 60
        E 120 80 3d 00
        E 840 90 3d 60
        E 120 80 3d 00
        E 1320 90 3d 60
        E 120 80 3d 00
        E 1320 90 3f 60
        E 120 80 3f 00
        E 840 90 3f 60
        E 120 80 3f 00
        E 360 90 3f 60
        E 120 80 3f 00
        E 840 90 3f 60
        E 120 80 3f 00
        E 1320 90 3d 60
        E 120 80 3d 00
        E 840 90 3d 60
        E 120 80 3d 00
        E 360 90 3d 60
        E 120 80 3d 00
        E 840 90 3d 60
        E 120 80 3d 00
        E 16679 b0 7b 00
        GUID {459B1FA7-586D-4E11-B2D3-98FFB0491157}
        IGNTEMPO 0 120.00000000 4 4
        SRCCOLOR 10
        VELLANE 132 128 60
        COLORMAP "C:\Program Files\REAPER (x64)\Data\color_maps\rockband_guitarbass.png"
        CFGEDITVIEW -22293.631403 4.067158 0 15 0 0 0
        CFGEDIT 1 1 0 1 1 0 1 1 1 1 1 0.25000000 -8 -8 1544 872 0 2 1 1 0.00000000 0 1 1 0 0.500000 0 0 1.000000 64
        KEYSNAP 0 6 "102030050700" 0 "Pentatonic"
        EVTFILTER 0 -1 -1 -1 -1 0 1 0 0 -1.00000000 -1.00000000
      >
    >
  >
  <TRACK '{2CDA0C0F-714D-4F11-BEC1-E31794B5BB39}'
    NAME "PART KEYS_ANIM_RH"
    PEAKCOL 16576
    BEAT -1
    AUTOMODE 0
    VOLPAN 1.00000000000000 0.00000000000000 -1.00000000000000 -1.00000000000000 1.00000000000000
    MUTESOLO 0 0 0
    IPHASE 0
    ISBUS 2 -1
    BUSCOMP 0 0
    SHOWINMIX 1 0.666700 0.500000 1 0.500000 -1 -1 -1
    FREEMODE 0
    SEL 0
    REC 0 0 0 0 0 0 0
    VU 2
    TRACKHEIGHT 0 0
    INQ 0 0 0 0.5000000000 100 0 0 100
    NCHAN 2
    FX 1
    TRACKID {2CDA0C0F-714D-4F11-BEC1-E31794B5BB39}
    PERF 0
    MIDIOUT -1
    <MIDINOTENAMES
      0 72 "Highest playable note B#3"
      0 71 "B3"
      0 70 "A#3"
      0 69 "A3"
      0 68 "G#3"
      0 67 "G3"
      0 66 "F#3"
      0 65 "F3"
      0 64 "E3"
      0 63 "D#3"
      0 62 "D3"
      0 61 "C#3"
      0 60 "C3"
      0 59 "B2"
      0 58 "A#2"
      0 57 "A2"
      0 56 "G#2"
      0 55 "G2"
      0 54 "F#2"
      0 53 "F2"
      0 52 "E2"
      0 51 "D#2"
      0 50 "D2"
      0 49 "C#2"
      0 48 "Lowest playable note C2"
    >
    MAINSEND 1 0
    <FXCHAIN
      SHOW 0
      LASTSEL 0
      DOCKED 0
    >
    <ITEM
      POSITION 0.00000000000000
      SNAPOFFS 0.00000000000000
      LENGTH 276.11399999999998
      LOOP 0
      ALLTAKES 0
      SEL 0
      FADEIN 1 0.000000 0.000000 1 0
      FADEOUT 1 0.000000 0.000000 1 0
      MUTE 0
      IGUID {CF944E27-355C-4155-B102-85B02A18FAD7}
      IID 9
      NAME "PART KEYS_ANIM_RH"
      VOLPAN 1.000000 0.000000 1.000000 -1.000000
      SOFFS 0.00000000000000 0.00000000000000
      PLAYRATE 1.00000000000000 1 0.00000000000000 -1
      CHANMODE 0
      GUID {4CFADB93-AF22-4E2A-B452-4CC2CD17E58D}
      <SOURCE MIDI
        HASDATA 1 480 QN
        POOLEDEVTS {E8CAE083-9A42-4132-8B7E-F8136A9A6967}
        <X 0 0
          /wNQQVJUIEtFWVNfQU5JTV9SSA==
        >
        E 190080 90 3f 60
        E 0 90 42 60
        E 0 90 46 60
        E 120 80 3f 00
        E 0 80 42 00
        E 0 80 46 00
        E 840 90 3f 60
        E 0 90 42 60
        E 0 90 46 60
        E 120 80 3f 00
        E 0 80 42 00
        E 0 80 46 00
        E 360 90 3f 60
        E 0 90 42 60
        E 0 90 46 60
        E 120 80 3f 00
        E 0 80 42 00
        E 0 80 46 00
        E 840 90 3f 60
        E 0 90 42 60
        E 0 90 46 60
        E 120 80 3f 00
        E 0 80 42 00
        E 0 80 46 00
        E 600 90 3f 60
        E 0 90 42 60
        E 0 90 46 60
        E 120 80 3f 00
        E 0 80 42 00
        E 0 80 46 00
        E 600 90 3d 60
        E 0 90 41 60
        E 0 90 44 60
        E 120 80 3d 00
        E 0 80 41 00
        E 0 80 44 00
        E 840 90 3d 60
        E 0 90 41 60
        E 0 90 44 60
        E 120 80 3d 00
        E 0 80 41 00
        E 0 80 44 00
        E 360 90 3d 60
        E 0 90 41 60
        E 0 90 44 60
        E 120 80 3d 00
        E 0 80 41 00
        E 0 80 44 00
        E 840 90 3d 60
        E 0 90 41 60
        E 0 90 44 60
        E 120 80 3d 00
        E 0 80 41 00
        E 0 80 44 00
        E 600 90 3d 60
        E 0 90 41 60
        E 0 90 44 60
        E 120 80 3d 00
        E 0 80 41 00
        E 0 80 44 00
        E 600 90 3f 60
        E 0 90 42 60
        E 0 90 46 60
        E 120 80 3f 00
        E 0 80 42 00
        E 0 80 46 00
        E 840 90 3f 60
        E 0 90 42 60
        E 0 90 46 60
        E 120 80 3f 00
        E 0 80 42 00
        E 0 80 46 00
        E 360 90 3f 60
        E 0 90 42 60
        E 0 90 46 60
        E 120 80 3f 00
        E 0 80 42 00
        E 0 80 46 00
        E 840 90 3f 60
        E 0 90 42 60
        E 0 90 46 60
        E 120 80 3f 00
        E 0 80 42 00
        E 0 80 46 00
        E 600 90 3f 60
        E 0 90 42 60
        E 0 90 46 60
        E 120 80 3f 00
        E 0 80 42 00
        E 0 80 46 00
        E 600 90 3d 60
        E 0 90 41 60
        E 0 90 44 60
        E 120 80 3d 00
        E 0 80 41 00
        E 0 80 44 00
        E 840 90 3d 60
        E 0 90 41 60
        E 0 90 44 60
        E 120 80 3d 00
        E 0 80 41 00
        E 0 80 44 00
        E 360 90 3d 60
        E 0 90 41 60
        E 120 80 3d 00
        E 0 80 41 00
        E 840 90 3d 60
        E 0 90 44 60
        E 120 80 3d 00
        E 0 80 44 00
        E 600 90 3d 60
        E 0 90 44 60
        E 120 80 3d 00
        E 0 80 44 00
        E 600 90 3f 60
        E 0 90 42 60
        E 0 90 46 60
        E 120 80 3f 00
        E 0 80 42 00
        E 0 80 46 00
        E 840 90 3f 60
        E 0 90 42 60
        E 0 90 46 60
        E 120 80 3f 00
        E 0 80 42 00
        E 0 80 46 00
        E 360 90 3f 60
        E 0 90 42 60
        E 0 90 46 60
        E 120 80 3f 00
        E 0 80 42 00
        E 0 80 46 00
        E 840 90 3f 60
        E 0 90 42 60
        E 0 90 46 60
        E 120 80 3f 00
        E 0 80 42 00
        E 0 80 46 00
        E 600 90 3f 60
        E 0 90 42 60
        E 0 90 46 60
        E 120 80 3f 00
        E 0 80 42 00
        E 0 80 46 00
        E 600 90 3d 60
        E 0 90 41 60
        E 0 90 44 60
        E 120 80 3d 00
        E 0 80 41 00
        E 0 80 44 00
        E 840 90 3d 60
        E 0 90 41 60
        E 0 90 44 60
        E 120 80 3d 00
        E 0 80 41 00
        E 0 80 44 00
        E 360 90 3d 60
        E 0 90 41 60
        E 0 90 44 60
        E 120 80 3d 00
        E 0 80 41 00
        E 0 80 44 00
        E 840 90 3d 60
        E 0 90 41 60
        E 0 90 44 60
        E 120 80 3d 00
        E 0 80 41 00
        E 0 80 44 00
        E 600 90 3d 60
        E 0 90 41 60
        E 0 90 44 60
        E 120 80 3d 00
        E 0 80 41 00
        E 0 80 44 00
        E 600 90 3f 60
        E 0 90 42 60
        E 0 90 46 60
        E 120 80 3f 00
        E 0 80 42 00
        E 0 80 46 00
        E 840 90 3f 60
        E 0 90 42 60
        E 0 90 46 60
        E 120 80 3f 00
        E 0 80 42 00
        E 0 80 46 00
        E 360 90 3f 60
        E 0 90 42 60
        E 0 90 46 60
        E 120 80 3f 00
        E 0 80 42 00
        E 0 80 46 00
        E 840 90 3f 60
        E 0 90 42 60
        E 0 90 46 60
        E 120 80 3f 00
        E 0 80 42 00
        E 0 80 46 00
        E 600 90 3f 60
        E 0 90 42 60
        E 0 90 46 60
        E 120 80 3f 00
        E 0 80 42 00
        E 0 80 46 00
        E 600 90 3d 60
        E 0 90 41 60
        E 0 90 44 60
        E 120 80 3d 00
        E 0 80 41 00
        E 0 80 44 00
        E 840 90 3d 60
        E 0 90 41 60
        E 0 90 44 60
        E 120 80 3d 00
        E 0 80 41 00
        E 0 80 44 00
        E 360 90 3d 60
        E 0 90 41 60
        E 120 80 3d 00
        E 0 80 41 00
        E 2280 90 3f 60
        E 0 90 42 60
        E 0 90 46 60
        E 120 80 3f 00
        E 0 80 42 00
        E 0 80 46 00
        E 840 90 3f 60
        E 0 90 42 60
        E 0 90 46 60
        E 120 80 3f 00
        E 0 80 42 00
        E 0 80 46 00
        E 360 90 3f 60
        E 0 90 42 60
        E 0 90 46 60
        E 120 80 3f 00
        E 0 80 42 00
        E 0 80 46 00
        E 840 90 3f 60
        E 0 90 42 60
        E 0 90 46 60
        E 120 80 3f 00
        E 0 80 42 00
        E 0 80 46 00
        E 600 90 3f 60
        E 0 90 42 60
        E 0 90 46 60
        E 120 80 3f 00
        E 0 80 42 00
        E 0 80 46 00
        E 600 90 3d 60
        E 0 90 41 60
        E 0 90 44 60
        E 120 80 3d 00
        E 0 80 41 00
        E 0 80 44 00
        E 840 90 3d 60
        E 0 90 41 60
        E 0 90 44 60
        E 120 80 3d 00
        E 0 80 41 00
        E 0 80 44 00
        E 360 90 3d 60
        E 0 90 41 60
        E 0 90 44 60
        E 120 80 3d 00
        E 0 80 41 00
        E 0 80 44 00
        E 840 90 3d 60
        E 0 90 41 60
        E 0 90 44 60
        E 120 80 3d 00
        E 0 80 41 00
        E 0 80 44 00
        E 600 90 3d 60
        E 0 90 41 60
        E 0 90 44 60
        E 120 80 3d 00
        E 0 80 41 00
        E 0 80 44 00
        E 600 90 3f 60
        E 0 90 42 60
        E 0 90 46 60
        E 120 80 3f 00
        E 0 80 42 00
        E 0 80 46 00
        E 840 90 3f 60
        E 0 90 42 60
        E 0 90 46 60
        E 120 80 3f 00
        E 0 80 42 00
        E 0 80 46 00
        E 360 90 3f 60
        E 0 90 42 60
        E 0 90 46 60
        E 120 80 3f 00
        E 0 80 42 00
        E 0 80 46 00
        E 840 90 3f 60
        E 0 90 42 60
        E 0 90 46 60
        E 120 80 3f 00
        E 0 80 42 00
        E 0 80 46 00
        E 600 90 3f 60
        E 0 90 42 60
        E 0 90 46 60
        E 120 80 3f 00
        E 0 80 42 00
        E 0 80 46 00
        E 600 90 3d 60
        E 0 90 41 60
        E 0 90 44 60
        E 120 80 3d 00
        E 0 80 41 00
        E 0 80 44 00
        E 840 90 3d 60
        E 0 90 41 60
        E 0 90 44 60
        E 120 80 3d 00
        E 0 80 41 00
        E 0 80 44 00
        E 360 90 3d 60
        E 0 90 41 60
        E 120 80 3d 00
        E 0 80 41 00
        E 840 90 3d 60
        E 0 90 44 60
        E 120 80 3d 00
        E 0 80 44 00
        E 600 90 3d 60
        E 0 90 44 60
        E 120 80 3d 00
        E 0 80 44 00
        E 600 90 3f 60
        E 0 90 42 60
        E 0 90 46 60
        E 120 80 3f 00
        E 0 80 42 00
        E 0 80 46 00
        E 840 90 3f 60
        E 0 90 42 60
        E 0 90 46 60
        E 120 80 3f 00
        E 0 80 42 00
        E 0 80 46 00
        E 360 90 3f 60
        E 0 90 42 60
        E 0 90 46 60
        E 120 80 3f 00
        E 0 80 42 00
        E 0 80 46 00
        E 840 90 3f 60
        E 0 90 42 60
        E 0 90 46 60
        E 120 80 3f 00
        E 0 80 42 00
        E 0 80 46 00
        E 600 90 3f 60
        E 0 90 42 60
        E 0 90 46 60
        E 120 80 3f 00
        E 0 80 42 00
        E 0 80 46 00
        E 600 90 3d 60
        E 0 90 41 60
        E 0 90 44 60
        E 120 80 3d 00
        E 0 80 41 00
        E 0 80 44 00
        E 840 90 3d 60
        E 0 90 41 60
        E 0 90 44 60
        E 120 80 3d 00
        E 0 80 41 00
        E 0 80 44 00
        E 360 90 3d 60
        E 0 90 41 60
        E 0 90 44 60
        E 120 80 3d 00
        E 0 80 41 00
        E 0 80 44 00
        E 840 90 3d 60
        E 0 90 41 60
        E 0 90 44 60
        E 120 80 3d 00
        E 0 80 41 00
        E 0 80 44 00
        E 600 90 3d 60
        E 0 90 41 60
        E 0 90 44 60
        E 120 80 3d 00
        E 0 80 41 00
        E 0 80 44 00
        E 600 90 3f 60
        E 0 90 42 60
        E 0 90 46 60
        E 120 80 3f 00
        E 0 80 42 00
        E 0 80 46 00
        E 840 90 3f 60
        E 0 90 42 60
        E 0 90 46 60
        E 120 80 3f 00
        E 0 80 42 00
        E 0 80 46 00
        E 360 90 3f 60
        E 0 90 42 60
        E 0 90 46 60
        E 120 80 3f 00
        E 0 80 42 00
        E 0 80 46 00
        E 840 90 3f 60
        E 0 90 42 60
        E 0 90 46 60
        E 120 80 3f 00
        E 0 80 42 00
        E 0 80 46 00
        E 600 90 3f 60
        E 0 90 42 60
        E 0 90 46 60
        E 120 80 3f 00
        E 0 80 42 00
        E 0 80 46 00
        E 600 90 3d 60
        E 0 90 41 60
        E 0 90 44 60
        E 120 80 3d 00
        E 0 80 41 00
        E 0 80 44 00
        E 840 90 3d 60
        E 0 90 41 60
        E 0 90 44 60
        E 120 80 3d 00
        E 0 80 41 00
        E 0 80 44 00
        E 360 90 3d 60
        E 0 90 41 60
        E 120 80 3d 00
        E 0 80 41 00
        E 840 90 3d 60
        E 0 90 44 60
        E 120 80 3d 00
        E 0 80 44 00
        E 32040 90 3c 60
        E 0 90 3f 60
        E 0 90 43 60
        E 4080 80 3c 00
        E 0 80 3f 00
        E 0 80 43 00
        E 240 90 3f 60
        E 0 90 42 60
        E 0 90 46 60
        E 120 80 3f 00
        E 0 80 42 00
        E 0 80 46 00
        E 840 90 3f 60
        E 0 90 42 60
        E 0 90 46 60
        E 120 80 3f 00
        E 0 80 42 00
        E 0 80 46 00
        E 360 90 3f 60
        E 0 90 42 60
        E 0 90 46 60
        E 120 80 3f 00
        E 0 80 42 00
        E 0 80 46 00
        E 840 90 3f 60
        E 0 90 42 60
        E 0 90 46 60
        E 120 80 3f 00
        E 0 80 42 00
        E 0 80 46 00
        E 600 90 3f 60
        E 0 90 42 60
        E 0 90 46 60
        E 120 80 3f 00
        E 0 80 42 00
        E 0 80 46 00
        E 600 90 3d 60
        E 0 90 41 60
        E 0 90 44 60
        E 120 80 3d 00
        E 0 80 41 00
        E 0 80 44 00
        E 840 90 3d 60
        E 0 90 41 60
        E 0 90 44 60
        E 120 80 3d 00
        E 0 80 41 00
        E 0 80 44 00
        E 360 90 3d 60
        E 0 90 41 60
        E 0 90 44 60
        E 120 80 3d 00
        E 0 80 41 00
        E 0 80 44 00
        E 840 90 3d 60
        E 0 90 41 60
        E 0 90 44 60
        E 120 80 3d 00
        E 0 80 41 00
        E 0 80 44 00
        E 600 90 3d 60
        E 0 90 41 60
        E 0 90 44 60
        E 120 80 3d 00
        E 0 80 41 00
        E 0 80 44 00
        E 600 90 3f 60
        E 0 90 42 60
        E 0 90 46 60
        E 120 80 3f 00
        E 0 80 42 00
        E 0 80 46 00
        E 840 90 3f 60
        E 0 90 42 60
        E 0 90 46 60
        E 120 80 3f 00
        E 0 80 42 00
        E 0 80 46 00
        E 360 90 3f 60
        E 0 90 42 60
        E 0 90 46 60
        E 120 80 3f 00
        E 0 80 42 00
        E 0 80 46 00
        E 840 90 3f 60
        E 0 90 42 60
        E 0 90 46 60
        E 120 80 3f 00
        E 0 80 42 00
        E 0 80 46 00
        E 600 90 3f 60
        E 0 90 42 60
        E 0 90 46 60
        E 120 80 3f 00
        E 0 80 42 00
        E 0 80 46 00
        E 600 90 3d 60
        E 0 90 41 60
        E 0 90 44 60
        E 120 80 3d 00
        E 0 80 41 00
        E 0 80 44 00
        E 840 90 3d 60
        E 0 90 41 60
        E 0 90 44 60
        E 120 80 3d 00
        E 0 80 41 00
        E 0 80 44 00
        E 360 90 3d 60
        E 0 90 41 60
        E 120 80 3d 00
        E 0 80 41 00
        E 840 90 3d 60
        E 0 90 44 60
        E 120 80 3d 00
        E 0 80 44 00
        E 600 90 3d 60
        E 0 90 44 60
        E 120 80 3d 00
        E 0 80 44 00
        E 600 90 3f 60
        E 0 90 42 60
        E 0 90 46 60
        E 120 80 3f 00
        E 0 80 42 00
        E 0 80 46 00
        E 840 90 3f 60
        E 0 90 42 60
        E 0 90 46 60
        E 120 80 3f 00
        E 0 80 42 00
        E 0 80 46 00
        E 360 90 3f 60
        E 0 90 42 60
        E 0 90 46 60
        E 120 80 3f 00
        E 0 80 42 00
        E 0 80 46 00
        E 840 90 3f 60
        E 0 90 42 60
        E 0 90 46 60
        E 120 80 3f 00
        E 0 80 42 00
        E 0 80 46 00
        E 600 90 3f 60
        E 0 90 42 60
        E 0 90 46 60
        E 120 80 3f 00
        E 0 80 42 00
        E 0 80 46 00
        E 600 90 3d 60
        E 0 90 41 60
        E 0 90 44 60
        E 120 80 3d 00
        E 0 80 41 00
        E 0 80 44 00
        E 840 90 3d 60
        E 0 90 41 60
        E 0 90 44 60
        E 120 80 3d 00
        E 0 80 41 00
        E 0 80 44 00
        E 360 90 3d 60
        E 0 90 41 60
        E 0 90 44 60
        E 120 80 3d 00
        E 0 80 41 00
        E 0 80 44 00
        E 840 90 3d 60
        E 0 90 41 60
        E 0 90 44 60
        E 120 80 3d 00
        E 0 80 41 00
        E 0 80 44 00
        E 600 90 3d 60
        E 0 90 41 60
        E 0 90 44 60
        E 120 80 3d 00
        E 0 80 41 00
        E 0 80 44 00
        E 600 90 3f 60
        E 0 90 42 60
        E 0 90 46 60
        E 120 80 3f 00
        E 0 80 42 00
        E 0 80 46 00
        E 840 90 3f 60
        E 0 90 42 60
        E 0 90 46 60
        E 120 80 3f 00
        E 0 80 42 00
        E 0 80 46 00
        E 360 90 3f 60
        E 0 90 42 60
        E 0 90 46 60
        E 120 80 3f 00
        E 0 80 42 00
        E 0 80 46 00
        E 840 90 3f 60
        E 0 90 42 60
        E 0 90 46 60
        E 120 80 3f 00
        E 0 80 42 00
        E 0 80 46 00
        E 600 90 3f 60
        E 0 90 42 60
        E 0 90 46 60
        E 120 80 3f 00
        E 0 80 42 00
        E 0 80 46 00
        E 600 90 3d 60
        E 0 90 41 60
        E 0 90 44 60
        E 120 80 3d 00
        E 0 80 41 00
        E 0 80 44 00
        E 840 90 3d 60
        E 0 90 41 60
        E 0 90 44 60
        E 120 80 3d 00
        E 0 80 41 00
        E 0 80 44 00
        E 360 90 3d 60
        E 0 90 41 60
        E 120 80 3d 00
        E 0 80 41 00
        E 840 90 3d 60
        E 0 90 44 60
        E 120 80 3d 00
        E 0 80 44 00
        E 600 90 3d 60
        E 0 90 44 60
        E 120 80 3d 00
        E 0 80 44 00
        E 600 90 3f 60
        E 0 90 42 60
        E 0 90 46 60
        E 120 80 3f 00
        E 0 80 42 00
        E 0 80 46 00
        E 840 90 3f 60
        E 0 90 42 60
        E 0 90 46 60
        E 120 80 3f 00
        E 0 80 42 00
        E 0 80 46 00
        E 360 90 3f 60
        E 0 90 42 60
        E 0 90 46 60
        E 120 80 3f 00
        E 0 80 42 00
        E 0 80 46 00
        E 840 90 3f 60
        E 0 90 42 60
        E 0 90 46 60
        E 120 80 3f 00
        E 0 80 42 00
        E 0 80 46 00
        E 600 90 3f 60
        E 0 90 42 60
        E 0 90 46 60
        E 120 80 3f 00
        E 0 80 42 00
        E 0 80 46 00
        E 600 90 3d 60
        E 0 90 41 60
        E 0 90 44 60
        E 120 80 3d 00
        E 0 80 41 00
        E 0 80 44 00
        E 840 90 3d 60
        E 0 90 41 60
        E 0 90 44 60
        E 120 80 3d 00
        E 0 80 41 00
        E 0 80 44 00
        E 360 90 3d 60
        E 0 90 41 60
        E 0 90 44 60
        E 120 80 3d 00
        E 0 80 41 00
        E 0 80 44 00
        E 840 90 3d 60
        E 0 90 41 60
        E 0 90 44 60
        E 120 80 3d 00
        E 0 80 41 00
        E 0 80 44 00
        E 600 90 3d 60
        E 0 90 41 60
        E 0 90 44 60
        E 120 80 3d 00
        E 0 80 41 00
        E 0 80 44 00
        E 600 90 3f 60
        E 0 90 42 60
        E 0 90 46 60
        E 120 80 3f 00
        E 0 80 42 00
        E 0 80 46 00
        E 840 90 3f 60
        E 0 90 42 60
        E 0 90 46 60
        E 120 80 3f 00
        E 0 80 42 00
        E 0 80 46 00
        E 360 90 3f 60
        E 0 90 42 60
        E 0 90 46 60
        E 120 80 3f 00
        E 0 80 42 00
        E 0 80 46 00
        E 840 90 3f 60
        E 0 90 42 60
        E 0 90 46 60
        E 120 80 3f 00
        E 0 80 42 00
        E 0 80 46 00
        E 600 90 3f 60
        E 0 90 42 60
        E 0 90 46 60
        E 120 80 3f 00
        E 0 80 42 00
        E 0 80 46 00
        E 600 90 3d 60
        E 0 90 41 60
        E 0 90 44 60
        E 120 80 3d 00
        E 0 80 41 00
        E 0 80 44 00
        E 840 90 3d 60
        E 0 90 41 60
        E 0 90 44 60
        E 120 80 3d 00
        E 0 80 41 00
        E 0 80 44 00
        E 360 90 3d 60
        E 0 90 41 60
        E 120 80 3d 00
        E 0 80 41 00
        E 840 90 3d 60
        E 0 90 44 60
        E 120 80 3d 00
        E 0 80 44 00
        E 600 90 3d 60
        E 0 90 44 60
        E 120 80 3d 00
        E 0 80 44 00
        E 600 90 3f 60
        E 0 90 42 60
        E 0 90 46 60
        E 120 80 3f 00
        E 0 80 42 00
        E 0 80 46 00
        E 840 90 3f 60
        E 0 90 42 60
        E 0 90 46 60
        E 120 80 3f 00
        E 0 80 42 00
        E 0 80 46 00
        E 360 90 3f 60
        E 0 90 42 60
        E 0 90 46 60
        E 120 80 3f 00
        E 0 80 42 00
        E 0 80 46 00
        E 840 90 3f 60
        E 0 90 42 60
        E 0 90 46 60
        E 120 80 3f 00
        E 0 80 42 00
        E 0 80 46 00
        E 600 90 3f 60
        E 0 90 42 60
        E 0 90 46 60
        E 120 80 3f 00
        E 0 80 42 00
        E 0 80 46 00
        E 600 90 3d 60
        E 0 90 41 60
        E 0 90 44 60
        E 120 80 3d 00
        E 0 80 41 00
        E 0 80 44 00
        E 840 90 3d 60
        E 0 90 41 60
        E 0 90 44 60
        E 120 80 3d 00
        E 0 80 41 00
        E 0 80 44 00
        E 360 90 3d 60
        E 0 90 41 60
        E 0 90 44 60
        E 120 80 3d 00
        E 0 80 41 00
        E 0 80 44 00
        E 840 90 3d 60
        E 0 90 41 60
        E 0 90 44 60
        E 120 80 3d 00
        E 0 80 41 00
        E 0 80 44 00
        E 600 90 3d 60
        E 0 90 41 60
        E 0 90 44 60
        E 120 80 3d 00
        E 0 80 41 00
        E 0 80 44 00
        E 15959 b0 7b 00
        GUID {65887CFD-5BC4-42AD-97F2-368D020CD865}
        IGNTEMPO 0 120.00000000 4 4
        SRCCOLOR 11
        VELLANE 132 128 60
        COLORMAP "C:\Program Files\REAPER (x64)\Data\color_maps\rockband_guitarbass.png"
        CFGEDITVIEW -22293.631403 4.067158 0 22 0 0 0
        CFGEDIT 1 1 0 1 1 0 1 1 1 1 1 0.25000000 -8 -8 1544 872 0 2 1 1 0.00000000 0 1 1 0 0.500000 0 0 1.000000 64
        KEYSNAP 0 6 "102030050700" 0 "Pentatonic"
        EVTFILTER 0 -1 -1 -1 -1 0 1 0 0 -1.00000000 -1.00000000
      >
    >
  >
  <TRACK '{AC6CDD51-EB50-4D4F-8944-35A19E4637F7}'
    NAME "PART REAL_BASS"
    PEAKCOL 16576
    BEAT -1
    AUTOMODE 0
    VOLPAN 1.00000000000000 0.00000000000000 -1.00000000000000 -1.00000000000000 1.00000000000000
    MUTESOLO 0 0 0
    IPHASE 0
    ISBUS 0 0
    BUSCOMP 0 0
    SHOWINMIX 1 0.666700 0.500000 1 0.500000 -1 -1 -1
    FREEMODE 0
    SEL 0
    REC 0 0 0 0 0 0 0
    VU 2
    TRACKHEIGHT 0 0
    INQ 0 0 0 0.5000000000 100 0 0 100
    NCHAN 2
    FX 1
    TRACKID {AC6CDD51-EB50-4D4F-8944-35A19E4637F7}
    PERF 0
    MIDIOUT -1
    <MIDINOTENAMES
      0 127 "Trill Marker"
      0 126 "Tremolo Marker"
      0 125 "BRE"
      0 124 "BRE"
      0 123 "BRE"
      0 122 "BRE"
      0 121 "BRE"
      0 120 "BRE (use all 6)"
      0 119 "-----------"
      0 116 "OVERDRIVE"
      0 115 "Solo Marker"
      0 109 "-----------"
      0 108 "Fret Hand Position"
      0 107 "Force Chord Numbering"
      0 106 "Loose Strumming"
      0 105 "Strum Direction"
      0 104 "Arpeggio Marker"
      0 103 "Slide Marker"
      0 102 "Force HOPO"
      0 101 "EXPERT e String"
      0 100 "EXPERT B String"
      0 99 "EXPERT G String"
      0 98 "EXPERT D String"
      0 97 "EXPERT A String"
      0 96 "EXPERT E String"
      0 95 "-----------"
      0 82 "Loose Strumming"
      0 81 "Strum Direction"
      0 80 "Arpeggio Marker"
      0 79 "Slide Marker"
      0 78 "Force HOPO"
      0 77 "HARD e String"
      0 76 "HARD B String"
      0 75 "HARD G String"
      0 74 "HARD D String"
      0 73 "HARD A String"
      0 72 "HARD E String"
      0 71 "-----------"
      0 58 "Loose Strumming"
      0 56 "Arpeggio Marker"
      0 55 "Slide Marker"
      0 53 "MEDIUM e String"
      0 52 "MEDIUM B String"
      0 51 "MEDIUM G String"
      0 50 "MEDIUM D String"
      0 49 "MEDIUM A String"
      0 48 "MEDIUM E String"
      0 47 "-----------"
      0 32 "Arpeggio Marker"
      0 31 "Slide Marker"
      0 29 "EASY e String"
      0 28 "EASY B String"
      0 27 "EASY G String"
      0 26 "EASY D String"
      0 25 "EASY A String"
      0 24 "EASY E String"
      0 21 "-----------"
      0 18 "Flat/Sharp Swap"
      0 17 "Hide Chord Names"
      0 16 "Slash Chord"
      0 15 "D#"
      0 14 "D"
      0 13 "C#"
      0 12 "C"
      0 11 "B"
      0 10 "A#"
      0 9 "A"
      0 8 "G#"
      0 7 "G"
      0 6 "F#"
      0 5 "F"
      0 4 "E"
    >
    MAINSEND 1 0
    <FXCHAIN
      WNDRECT 0 43 655 467
      SHOW 0
      LASTSEL 2
      DOCKED 0
      BYPASS 0 0
      <JS "c3/progtr" ""
        0.000000 3.000000 0.000000 0.000000 0.000000 0.000000 0.000000 0.000000 0.000000 1.000000 - - - - - - - - - - - - - - - - - - - - - - - - - - - - - - - - - - - - - - - - - - - - - - - - - - - - - - 
      >
      FLOATPOS 0 0 0 0
      FXID {023E1F77-5997-412E-8E01-6FB735B1B1BA}
      WAK 0
      BYPASS 0 0
      <JS "MIDI/midi_transpose" ""
        -12.000000 1.000000 0.000000 127.000000 - - - - - - - - - - - - - - - - - - - - - - - - - - - - - - - - - - - - - - - - - - - - - - - - - - - - - - - - - - - - 
      >
      FLOATPOS 0 0 0 0
      FXID {6E0A28A8-83E1-4887-8E39-C15F3DA2C2F3}
      WAK 0
      BYPASS 0 0
      <VST "VSTi: ReaSynth (Cockos)" "reasynth.dll" 0 ""
        eXNlcu9e7f4AAAAAAgAAAAEAAAAAAAAAAgAAAAAAAAA4AAAAAAAAAA==
        AAAQAO++rd4N8K3eppvEO+gJMjwAAAAAAAAAAAAAgD8AAIA/4jAEPA==
        AAAAAAAAAD+01hM+j8L1PQAAAD8AABAAAAA=
      >
      FLOATPOS 0 0 0 0
      FXID {3C7A58A5-5C7B-4539-9C12-581F696CF68C}
      WAK 0
    >
    <ITEM
      POSITION 0.00000000000000
      SNAPOFFS 0.00000000000000
      LENGTH 276.11399999999998
      LOOP 0
      ALLTAKES 0
      SEL 0
      FADEIN 1 0.000000 0.000000 1 0
      FADEOUT 1 0.000000 0.000000 1 0
      MUTE 0
      IGUID {83A9EE3D-A698-42B4-BB73-6FBBEBD004C2}
      IID 15
      NAME "PART REAL_BASS"
      VOLPAN 1.000000 0.000000 1.000000 -1.000000
      SOFFS 0.00000000000000 0.00000000000000
      PLAYRATE 1.00000000000000 1 0.00000000000000 -1
      CHANMODE 0
      GUID {68834A6A-3DDC-4C12-9ADC-CCD954F33AFC}
      <SOURCE MIDI
        HASDATA 1 480 QN
        POOLEDEVTS {A9CB7C83-9B58-4929-B615-B1B70EBFAFC6}
        <X 0 0
          /wNQQVJUIFJFQUxfQkFTUw==
        >
        E 36000 90 62 68
        E 0 90 67 64
        E 0 90 6c 68
        E 0 90 4a 68
        E 0 90 4f 64
        E 0 90 32 68
        E 0 90 37 64
        E 120 80 6c 00
        E 300 80 62 00
        E 0 80 67 00
        E 0 80 4a 00
        E 0 80 4f 00
        E 0 80 32 00
        E 0 80 37 00
        <X 60 0
          /wFbYmVnaW5fcGIgc29uZ190cmFpbmVyX3BiXzFd
        >
        E 0 90 62 6a
        E 0 90 6c 6a
        E 0 90 4a 6a
        E 0 90 32 6a
        E 0 90 1a 6a
        E 0 9b 67 64
        E 0 9b 4f 64
        E 0 9b 37 64
        E 0 9b 1f 64
        E 120 80 6c 00
        E 840 80 62 00
        E 0 80 4a 00
        E 0 80 32 00
        E 0 80 1a 00
        E 0 8b 67 00
        E 0 8b 4f 00
        E 0 8b 37 00
        E 0 8b 1f 00
        E 480 90 63 6a
        E 0 90 4b 6a
        E 0 90 33 6a
        E 120 80 63 00
        E 0 80 4b 00
        E 0 80 33 00
        E 0 90 63 6c
        E 0 90 66 64
        E 720 80 63 00
        E 0 80 66 00
        E 120 90 63 6a
        E 0 90 4b 6a
        E 0 90 33 6a
        E 120 80 63 00
        E 0 80 4b 00
        E 0 80 33 00
        E 360 90 62 6a
        E 0 90 6c 68
        E 0 90 4a 6a
        E 0 90 32 6a
        E 0 90 1a 6a
        E 120 80 62 00
        E 0 80 6c 00
        E 0 80 4a 00
        E 0 80 32 00
        E 0 80 1a 00
        E 360 90 62 6a
        E 0 90 4a 6a
        E 0 90 32 6a
        E 120 80 62 00
        E 0 80 4a 00
        E 0 80 32 00
        <X 360 0
          /wFbcGJfbm9ybSBzb25nX3RyYWluZXJfcGJfMV0=
        >
        E 0 90 62 68
        E 0 90 4a 68
        E 0 90 32 68
        E 0 90 1a 68
        E 120 80 62 00
        E 0 80 4a 00
        E 0 80 32 00
        E 0 80 1a 00
        E 360 90 62 68
        E 0 90 4a 68
        E 0 90 32 68
        E 0 90 1a 68
        E 120 80 62 00
        E 0 80 4a 00
        E 0 80 32 00
        E 0 80 1a 00
        E 360 90 62 68
        E 0 90 4a 68
        E 0 90 32 68
        E 0 90 1a 68
        E 120 80 62 00
        E 0 80 4a 00
        E 0 80 32 00
        E 0 80 1a 00
        E 360 90 62 68
        E 0 90 4a 68
        E 0 90 32 68
        E 0 90 1a 68
        E 120 80 62 00
        E 0 80 4a 00
        E 0 80 32 00
        E 0 80 1a 00
        E 360 90 62 68
        E 0 90 4a 68
        E 0 90 32 68
        E 0 90 1a 68
        E 120 80 62 00
        E 0 80 4a 00
        E 0 80 32 00
        E 0 80 1a 00
        E 360 90 61 68
        E 0 90 49 68
        E 0 90 31 68
        E 120 80 61 00
        E 0 80 49 00
        E 0 80 31 00
        E 120 90 61 6a
        E 0 90 49 6a
        E 120 80 61 00
        E 0 80 49 00
        E 120 90 62 68
        E 0 90 4a 68
        E 0 90 32 68
        E 0 90 1a 68
        E 120 80 62 00
        E 0 80 4a 00
        E 0 80 32 00
        E 0 80 1a 00
        E 120 90 61 68
        E 0 90 49 68
        E 120 80 61 00
        E 0 80 49 00
        E 120 90 61 6a
        E 0 90 49 6a
        E 0 90 31 6a
        E 120 80 61 00
        E 0 80 49 00
        E 0 80 31 00
        E 120 90 62 68
        E 0 90 4a 68
        E 120 80 62 00
        E 0 80 4a 00
        E 120 90 62 6a
        E 0 90 6c 6a
        E 0 90 4a 6a
        E 0 90 32 6a
        E 0 90 1a 6a
        E 0 9b 67 64
        E 0 9b 4f 64
        E 0 9b 37 64
        E 0 9b 1f 64
        E 120 80 6c 00
        E 840 80 62 00
        E 0 80 4a 00
        E 0 80 32 00
        E 0 80 1a 00
        E 0 8b 67 00
        E 0 8b 4f 00
        E 0 8b 37 00
        E 0 8b 1f 00
        E 480 90 63 6a
        E 0 90 4b 6a
        E 0 90 33 6a
        E 120 80 63 00
        E 0 80 4b 00
        E 0 80 33 00
        E 0 90 63 6c
        E 0 90 66 64
        E 720 80 63 00
        E 0 80 66 00
        E 120 90 63 6a
        E 0 90 4b 6a
        E 0 90 33 6a
        E 120 80 63 00
        E 0 80 4b 00
        E 0 80 33 00
        E 360 90 62 6a
        E 0 90 4a 6a
        E 0 90 32 6a
        E 0 90 1a 6a
        E 120 80 62 00
        E 0 80 4a 00
        E 0 80 32 00
        E 0 80 1a 00
        E 360 90 63 67
        E 0 90 6c 67
        E 0 90 4b 67
        E 0 90 33 67
        E 120 80 63 00
        E 0 80 6c 00
        E 0 80 4b 00
        E 0 80 33 00
        E 360 90 62 68
        E 0 90 6c 68
        E 0 90 4a 68
        E 0 90 32 68
        E 0 90 1a 68
        E 120 80 62 00
        E 0 80 6c 00
        E 0 80 4a 00
        E 0 80 32 00
        E 0 80 1a 00
        E 360 90 62 68
        E 0 90 4a 68
        E 0 90 32 68
        E 0 90 1a 68
        E 120 80 62 00
        E 0 80 4a 00
        E 0 80 32 00
        E 0 80 1a 00
        E 360 90 62 68
        E 0 90 4a 68
        E 0 90 32 68
        E 0 90 1a 68
        E 120 80 62 00
        E 0 80 4a 00
        E 0 80 32 00
        E 0 80 1a 00
        E 360 90 62 68
        E 0 90 4a 68
        E 0 90 32 68
        E 0 90 1a 68
        E 120 80 62 00
        E 0 80 4a 00
        E 0 80 32 00
        E 0 80 1a 00
        E 360 90 62 68
        E 0 90 4a 68
        E 0 90 32 68
        E 0 90 1a 68
        E 120 80 62 00
        E 0 80 4a 00
        E 0 80 32 00
        E 0 80 1a 00
        E 360 90 61 68
        E 0 90 49 68
        E 0 90 31 68
        E 120 80 61 00
        E 0 80 49 00
        E 0 80 31 00
        E 120 90 61 6a
        E 0 90 49 6a
        E 120 80 61 00
        E 0 80 49 00
        E 120 90 62 68
        E 0 90 4a 68
        E 0 90 32 68
        E 0 90 1a 68
        E 120 80 62 00
        E 0 80 4a 00
        E 0 80 32 00
        E 0 80 1a 00
        E 120 90 61 68
        E 0 90 49 68
        E 120 80 61 00
        E 0 80 49 00
        E 120 90 61 6a
        E 0 90 49 6a
        E 0 90 31 6a
        E 120 80 61 00
        E 0 80 49 00
        E 0 80 31 00
        E 120 90 62 68
        E 0 90 4a 68
        E 120 80 62 00
        E 0 80 4a 00
        <X 120 0
          /wFbZW5kX3BiIHNvbmdfdHJhaW5lcl9wYl8xXQ==
        >
        <X 0 0
          /wFbYmVnaW5fcGIgc29uZ190cmFpbmVyX3BiXzJd
        >
        E 0 90 62 6a
        E 0 90 6c 6a
        E 0 90 74 64
        E 0 90 4a 6a
        E 0 90 32 6a
        E 0 90 1a 6a
        E 0 9b 67 64
        E 0 9b 4f 64
        E 0 9b 37 64
        E 0 9b 1f 64
        E 120 80 6c 00
        E 840 80 62 00
        E 0 80 4a 00
        E 0 80 32 00
        E 0 80 1a 00
        E 0 8b 67 00
        E 0 8b 4f 00
        E 0 8b 37 00
        E 0 8b 1f 00
        E 480 90 63 6a
        E 0 90 4b 6a
        E 0 90 33 6a
        E 120 80 63 00
        E 0 80 4b 00
        E 0 80 33 00
        E 0 90 63 6c
        E 0 90 66 64
        E 720 80 63 00
        E 0 80 66 00
        E 120 90 63 6a
        E 0 90 4b 6a
        E 0 90 33 6a
        E 120 80 63 00
        E 0 80 4b 00
        E 0 80 33 00
        E 360 90 62 6a
        E 0 90 6c 68
        E 0 90 4a 6a
        E 0 90 32 6a
        E 0 90 1a 6a
        E 120 80 6c 00
        E 600 80 62 00
        E 0 80 4a 00
        E 0 80 32 00
        E 0 80 1a 00
        <X 240 0
          /wFbcGJfbm9ybSBzb25nX3RyYWluZXJfcGJfMl0=
        >
        E 0 90 62 68
        E 0 90 4a 68
        E 0 90 32 68
        E 0 90 1a 68
        E 120 80 74 00
        E 0 80 62 00
        E 0 80 4a 00
        E 0 80 32 00
        E 0 80 1a 00
        E 360 90 62 68
        E 0 90 4a 68
        E 0 90 32 68
        E 0 90 1a 68
        E 120 80 62 00
        E 0 80 4a 00
        E 0 80 32 00
        E 0 80 1a 00
        E 360 90 62 68
        E 0 90 4a 68
        E 0 90 32 68
        E 0 90 1a 68
        E 120 80 62 00
        E 0 80 4a 00
        E 0 80 32 00
        E 0 80 1a 00
        E 360 90 62 68
        E 0 90 4a 68
        E 0 90 32 68
        E 0 90 1a 68
        E 120 80 62 00
        E 0 80 4a 00
        E 0 80 32 00
        E 0 80 1a 00
        E 360 90 62 68
        E 0 90 4a 68
        E 0 90 32 68
        E 0 90 1a 68
        E 120 80 62 00
        E 0 80 4a 00
        E 0 80 32 00
        E 0 80 1a 00
        E 360 90 61 68
        E 0 90 49 68
        E 0 90 31 68
        E 120 80 61 00
        E 0 80 49 00
        E 0 80 31 00
        E 120 90 61 6a
        E 0 90 49 6a
        E 120 80 61 00
        E 0 80 49 00
        E 120 90 62 68
        E 0 90 4a 68
        E 0 90 32 68
        E 0 90 1a 68
        E 120 80 62 00
        E 0 80 4a 00
        E 0 80 32 00
        E 0 80 1a 00
        E 120 90 61 68
        E 0 90 49 68
        E 120 80 61 00
        E 0 80 49 00
        E 120 90 61 6a
        E 0 90 49 6a
        E 0 90 31 6a
        E 120 80 61 00
        E 0 80 49 00
        E 0 80 31 00
        E 120 90 62 68
        E 0 90 4a 68
        E 120 80 62 00
        E 0 80 4a 00
        E 120 90 62 6a
        E 0 90 6c 6a
        E 0 90 4a 6a
        E 0 90 32 6a
        E 0 90 1a 6a
        E 0 9b 67 64
        E 0 9b 4f 64
        E 0 9b 37 64
        E 0 9b 1f 64
        E 120 80 6c 00
        E 840 80 62 00
        E 0 80 4a 00
        E 0 80 32 00
        E 0 80 1a 00
        E 0 8b 67 00
        E 0 8b 4f 00
        E 0 8b 37 00
        E 0 8b 1f 00
        E 480 90 63 6a
        E 0 90 4b 6a
        E 0 90 33 6a
        E 120 80 63 00
        E 0 80 4b 00
        E 0 80 33 00
        E 0 90 63 6c
        E 0 90 66 64
        E 720 80 63 00
        E 0 80 66 00
        E 120 90 63 6a
        E 0 90 4b 6a
        E 0 90 33 6a
        E 120 80 63 00
        E 0 80 4b 00
        E 0 80 33 00
        E 360 90 62 6a
        E 0 90 4a 6a
        E 0 90 32 6a
        E 0 90 1a 6a
        E 120 80 62 00
        E 0 80 4a 00
        E 0 80 32 00
        E 0 80 1a 00
        E 360 90 63 67
        E 0 90 6c 67
        E 0 90 4b 67
        E 0 90 33 67
        E 120 80 63 00
        E 0 80 6c 00
        E 0 80 4b 00
        E 0 80 33 00
        E 360 90 62 68
        E 0 90 6c 68
        E 0 90 4a 68
        E 0 90 32 68
        E 0 90 1a 68
        E 120 80 62 00
        E 0 80 6c 00
        E 0 80 4a 00
        E 0 80 32 00
        E 0 80 1a 00
        E 360 90 62 68
        E 0 90 4a 68
        E 0 90 32 68
        E 0 90 1a 68
        E 120 80 62 00
        E 0 80 4a 00
        E 0 80 32 00
        E 0 80 1a 00
        E 360 90 62 68
        E 0 90 4a 68
        E 0 90 32 68
        E 0 90 1a 68
        E 120 80 62 00
        E 0 80 4a 00
        E 0 80 32 00
        E 0 80 1a 00
        E 360 90 62 68
        E 0 90 4a 68
        E 0 90 32 68
        E 0 90 1a 68
        E 120 80 62 00
        E 0 80 4a 00
        E 0 80 32 00
        E 0 80 1a 00
        E 360 90 62 68
        E 0 90 4a 68
        E 0 90 32 68
        E 0 90 1a 68
        E 120 80 62 00
        E 0 80 4a 00
        E 0 80 32 00
        E 0 80 1a 00
        E 360 90 61 68
        E 0 90 49 68
        E 0 90 31 68
        E 120 80 61 00
        E 0 80 49 00
        E 0 80 31 00
        E 120 90 61 6a
        E 0 90 49 6a
        E 120 80 61 00
        E 0 80 49 00
        E 120 90 62 68
        E 0 90 4a 68
        E 0 90 32 68
        E 0 90 1a 68
        E 120 80 62 00
        E 0 80 4a 00
        E 0 80 32 00
        E 0 80 1a 00
        E 120 90 61 68
        E 0 90 49 68
        E 120 80 61 00
        E 0 80 49 00
        E 120 90 61 6a
        E 0 90 49 6a
        E 0 90 31 6a
        E 120 80 61 00
        E 0 80 49 00
        E 0 80 31 00
        E 120 90 62 68
        E 0 90 4a 68
        E 120 80 62 00
        E 0 80 4a 00
        <X 120 0
          /wFbZW5kX3BiIHNvbmdfdHJhaW5lcl9wYl8yXQ==
        >
        E 30240 90 62 68
        E 0 90 67 64
        E 0 90 6c 68
        E 0 90 74 64
        E 0 90 4a 68
        E 0 90 4f 64
        E 0 90 32 68
        E 0 90 37 64
        E 120 80 6c 00
        E 300 80 62 00
        E 0 80 67 00
        E 0 80 4a 00
        E 0 80 4f 00
        E 0 80 32 00
        E 0 80 37 00
        E 60 90 62 6a
        E 0 90 6c 6a
        E 0 90 4a 6a
        E 0 90 32 6a
        E 0 90 1a 6a
        E 0 9b 67 64
        E 0 9b 4f 64
        E 0 9b 37 64
        E 0 9b 1f 64
        E 120 80 6c 00
        E 840 80 62 00
        E 0 80 4a 00
        E 0 80 32 00
        E 0 80 1a 00
        E 0 8b 67 00
        E 0 8b 4f 00
        E 0 8b 37 00
        E 0 8b 1f 00
        E 480 90 63 6a
        E 0 90 4b 6a
        E 0 90 33 6a
        E 120 80 63 00
        E 0 80 4b 00
        E 0 80 33 00
        E 0 90 63 6c
        E 0 90 66 64
        E 720 80 63 00
        E 0 80 66 00
        E 120 90 63 6a
        E 0 90 4b 6a
        E 0 90 33 6a
        E 120 80 63 00
        E 0 80 4b 00
        E 0 80 33 00
        E 360 90 62 6a
        E 0 90 6c 68
        E 0 90 4a 6a
        E 0 90 32 6a
        E 0 90 1a 6a
        E 120 80 62 00
        E 0 80 6c 00
        E 0 80 4a 00
        E 0 80 32 00
        E 0 80 1a 00
        E 360 90 62 6a
        E 0 90 4a 6a
        E 0 90 32 6a
        E 120 80 62 00
        E 0 80 4a 00
        E 0 80 32 00
        E 360 90 62 68
        E 0 90 4a 68
        E 0 90 32 68
        E 0 90 1a 68
        E 120 80 74 00
        E 0 80 62 00
        E 0 80 4a 00
        E 0 80 32 00
        E 0 80 1a 00
        E 360 90 62 68
        E 0 90 4a 68
        E 0 90 32 68
        E 0 90 1a 68
        E 120 80 62 00
        E 0 80 4a 00
        E 0 80 32 00
        E 0 80 1a 00
        E 360 90 62 68
        E 0 90 4a 68
        E 0 90 32 68
        E 0 90 1a 68
        E 120 80 62 00
        E 0 80 4a 00
        E 0 80 32 00
        E 0 80 1a 00
        E 360 90 62 68
        E 0 90 4a 68
        E 0 90 32 68
        E 0 90 1a 68
        E 120 80 62 00
        E 0 80 4a 00
        E 0 80 32 00
        E 0 80 1a 00
        E 360 90 62 68
        E 0 90 4a 68
        E 0 90 32 68
        E 0 90 1a 68
        E 120 80 62 00
        E 0 80 4a 00
        E 0 80 32 00
        E 0 80 1a 00
        E 360 90 61 68
        E 0 90 49 68
        E 0 90 31 68
        E 120 80 61 00
        E 0 80 49 00
        E 0 80 31 00
        E 120 90 61 6a
        E 0 90 49 6a
        E 120 80 61 00
        E 0 80 49 00
        E 120 90 62 68
        E 0 90 4a 68
        E 0 90 32 68
        E 0 90 1a 68
        E 120 80 62 00
        E 0 80 4a 00
        E 0 80 32 00
        E 0 80 1a 00
        E 120 90 61 68
        E 0 90 49 68
        E 120 80 61 00
        E 0 80 49 00
        E 120 90 61 6a
        E 0 90 49 6a
        E 0 90 31 6a
        E 120 80 61 00
        E 0 80 49 00
        E 0 80 31 00
        E 120 90 62 68
        E 0 90 4a 68
        E 120 80 62 00
        E 0 80 4a 00
        E 120 90 62 6a
        E 0 90 6c 6a
        E 0 90 4a 6a
        E 0 90 32 6a
        E 0 90 1a 6a
        E 0 9b 67 64
        E 0 9b 4f 64
        E 0 9b 37 64
        E 0 9b 1f 64
        E 120 80 6c 00
        E 840 80 62 00
        E 0 80 4a 00
        E 0 80 32 00
        E 0 80 1a 00
        E 0 8b 67 00
        E 0 8b 4f 00
        E 0 8b 37 00
        E 0 8b 1f 00
        E 480 90 63 6a
        E 0 90 4b 6a
        E 0 90 33 6a
        E 120 80 63 00
        E 0 80 4b 00
        E 0 80 33 00
        E 0 90 63 6c
        E 0 90 66 64
        E 720 80 63 00
        E 0 80 66 00
        E 120 90 63 6a
        E 0 90 4b 6a
        E 0 90 33 6a
        E 120 80 63 00
        E 0 80 4b 00
        E 0 80 33 00
        E 360 90 62 6a
        E 0 90 4a 6a
        E 0 90 32 6a
        E 0 90 1a 6a
        E 120 80 62 00
        E 0 80 4a 00
        E 0 80 32 00
        E 0 80 1a 00
        E 360 90 63 67
        E 0 90 6c 67
        E 0 90 4b 67
        E 0 90 33 67
        E 120 80 63 00
        E 0 80 6c 00
        E 0 80 4b 00
        E 0 80 33 00
        E 360 90 62 68
        E 0 90 6c 68
        E 0 90 4a 68
        E 0 90 32 68
        E 0 90 1a 68
        E 120 80 62 00
        E 0 80 6c 00
        E 0 80 4a 00
        E 0 80 32 00
        E 0 80 1a 00
        E 360 90 62 68
        E 0 90 4a 68
        E 0 90 32 68
        E 0 90 1a 68
        E 120 80 62 00
        E 0 80 4a 00
        E 0 80 32 00
        E 0 80 1a 00
        E 360 90 62 68
        E 0 90 4a 68
        E 0 90 32 68
        E 0 90 1a 68
        E 120 80 62 00
        E 0 80 4a 00
        E 0 80 32 00
        E 0 80 1a 00
        E 360 90 62 68
        E 0 90 4a 68
        E 0 90 32 68
        E 0 90 1a 68
        E 120 80 62 00
        E 0 80 4a 00
        E 0 80 32 00
        E 0 80 1a 00
        E 360 90 62 68
        E 0 90 4a 68
        E 0 90 32 68
        E 0 90 1a 68
        E 120 80 62 00
        E 0 80 4a 00
        E 0 80 32 00
        E 0 80 1a 00
        E 360 90 61 68
        E 0 90 49 68
        E 0 90 31 68
        E 120 80 61 00
        E 0 80 49 00
        E 0 80 31 00
        E 120 90 61 6a
        E 0 90 49 6a
        E 120 80 61 00
        E 0 80 49 00
        E 120 90 62 68
        E 0 90 4a 68
        E 0 90 32 68
        E 0 90 1a 68
        E 120 80 62 00
        E 0 80 4a 00
        E 0 80 32 00
        E 0 80 1a 00
        E 120 90 61 68
        E 0 90 49 68
        E 120 80 61 00
        E 0 80 49 00
        E 120 90 61 6a
        E 0 90 49 6a
        E 0 90 31 6a
        E 120 80 61 00
        E 0 80 49 00
        E 0 80 31 00
        E 120 90 62 68
        E 0 90 4a 68
        E 120 80 62 00
        E 0 80 4a 00
        E 120 90 62 6a
        E 0 90 6c 6a
        E 0 90 4a 6a
        E 0 90 32 6a
        E 0 90 1a 6a
        E 0 9b 67 64
        E 0 9b 4f 64
        E 0 9b 37 64
        E 0 9b 1f 64
        E 120 80 6c 00
        E 840 80 62 00
        E 0 80 4a 00
        E 0 80 32 00
        E 0 80 1a 00
        E 0 8b 67 00
        E 0 8b 4f 00
        E 0 8b 37 00
        E 0 8b 1f 00
        E 480 90 63 6a
        E 0 90 4b 6a
        E 0 90 33 6a
        E 120 80 63 00
        E 0 80 4b 00
        E 0 80 33 00
        E 0 90 63 6c
        E 0 90 66 64
        E 720 80 63 00
        E 0 80 66 00
        E 120 90 63 6a
        E 0 90 4b 6a
        E 0 90 33 6a
        E 120 80 63 00
        E 0 80 4b 00
        E 0 80 33 00
        E 360 90 62 6a
        E 0 90 6c 68
        E 0 90 4a 6a
        E 0 90 32 6a
        E 0 90 1a 6a
        E 120 80 6c 00
        E 600 80 62 00
        E 0 80 4a 00
        E 0 80 32 00
        E 0 80 1a 00
        E 240 90 62 68
        E 0 90 4a 68
        E 0 90 32 68
        E 0 90 1a 68
        E 120 80 62 00
        E 0 80 4a 00
        E 0 80 32 00
        E 0 80 1a 00
        E 360 90 62 68
        E 0 90 4a 68
        E 0 90 32 68
        E 0 90 1a 68
        E 120 80 62 00
        E 0 80 4a 00
        E 0 80 32 00
        E 0 80 1a 00
        E 360 90 62 68
        E 0 90 4a 68
        E 0 90 32 68
        E 0 90 1a 68
        E 120 80 62 00
        E 0 80 4a 00
        E 0 80 32 00
        E 0 80 1a 00
        E 360 90 62 68
        E 0 90 4a 68
        E 0 90 32 68
        E 0 90 1a 68
        E 120 80 62 00
        E 0 80 4a 00
        E 0 80 32 00
        E 0 80 1a 00
        E 360 90 62 68
        E 0 90 4a 68
        E 0 90 32 68
        E 0 90 1a 68
        E 120 80 62 00
        E 0 80 4a 00
        E 0 80 32 00
        E 0 80 1a 00
        E 360 90 61 68
        E 0 90 49 68
        E 0 90 31 68
        E 120 80 61 00
        E 0 80 49 00
        E 0 80 31 00
        E 120 90 61 6a
        E 0 90 49 6a
        E 120 80 61 00
        E 0 80 49 00
        E 120 90 62 68
        E 0 90 4a 68
        E 0 90 32 68
        E 0 90 1a 68
        E 120 80 62 00
        E 0 80 4a 00
        E 0 80 32 00
        E 0 80 1a 00
        E 120 90 61 68
        E 0 90 49 68
        E 120 80 61 00
        E 0 80 49 00
        E 120 90 61 6a
        E 0 90 49 6a
        E 0 90 31 6a
        E 120 80 61 00
        E 0 80 49 00
        E 0 80 31 00
        E 120 90 62 68
        E 0 90 4a 68
        E 120 80 62 00
        E 0 80 4a 00
        E 120 90 62 6a
        E 0 90 6c 6a
        E 0 90 4a 6a
        E 0 90 32 6a
        E 0 90 1a 6a
        E 0 9b 67 64
        E 0 9b 4f 64
        E 0 9b 37 64
        E 0 9b 1f 64
        E 120 80 6c 00
        E 840 80 62 00
        E 0 80 4a 00
        E 0 80 32 00
        E 0 80 1a 00
        E 0 8b 67 00
        E 0 8b 4f 00
        E 0 8b 37 00
        E 0 8b 1f 00
        E 480 90 63 6a
        E 0 90 4b 6a
        E 0 90 33 6a
        E 120 80 63 00
        E 0 80 4b 00
        E 0 80 33 00
        E 0 90 63 6c
        E 0 90 66 64
        E 720 80 63 00
        E 0 80 66 00
        E 120 90 63 6a
        E 0 90 4b 6a
        E 0 90 33 6a
        E 120 80 63 00
        E 0 80 4b 00
        E 0 80 33 00
        E 360 90 62 6a
        E 0 90 4a 6a
        E 0 90 32 6a
        E 0 90 1a 6a
        E 120 80 62 00
        E 0 80 4a 00
        E 0 80 32 00
        E 0 80 1a 00
        E 360 90 63 67
        E 0 90 6c 67
        E 0 90 4b 67
        E 0 90 33 67
        E 120 80 63 00
        E 0 80 6c 00
        E 0 80 4b 00
        E 0 80 33 00
        E 360 90 62 68
        E 0 90 6c 68
        E 0 90 4a 68
        E 0 90 32 68
        E 0 90 1a 68
        E 120 80 62 00
        E 0 80 6c 00
        E 0 80 4a 00
        E 0 80 32 00
        E 0 80 1a 00
        E 360 90 62 68
        E 0 90 4a 68
        E 0 90 32 68
        E 0 90 1a 68
        E 120 80 62 00
        E 0 80 4a 00
        E 0 80 32 00
        E 0 80 1a 00
        E 360 90 62 68
        E 0 90 4a 68
        E 0 90 32 68
        E 0 90 1a 68
        E 120 80 62 00
        E 0 80 4a 00
        E 0 80 32 00
        E 0 80 1a 00
        E 360 90 62 68
        E 0 90 4a 68
        E 0 90 32 68
        E 0 90 1a 68
        E 120 80 62 00
        E 0 80 4a 00
        E 0 80 32 00
        E 0 80 1a 00
        E 360 90 62 68
        E 0 90 4a 68
        E 0 90 32 68
        E 0 90 1a 68
        E 120 80 62 00
        E 0 80 4a 00
        E 0 80 32 00
        E 0 80 1a 00
        E 360 90 61 68
        E 0 90 49 68
        E 0 90 31 68
        E 120 80 61 00
        E 0 80 49 00
        E 0 80 31 00
        E 120 90 61 6a
        E 0 90 49 6a
        E 120 80 61 00
        E 0 80 49 00
        E 120 90 62 68
        E 0 90 4a 68
        E 0 90 32 68
        E 0 90 1a 68
        E 120 80 62 00
        E 0 80 4a 00
        E 0 80 32 00
        E 0 80 1a 00
        E 31080 90 62 68
        E 0 90 67 64
        E 0 90 6c 68
        E 0 90 4a 68
        E 0 90 4f 64
        E 0 90 32 68
        E 0 90 37 64
        E 120 80 6c 00
        E 300 80 62 00
        E 0 80 67 00
        E 0 80 4a 00
        E 0 80 4f 00
        E 0 80 32 00
        E 0 80 37 00
        E 60 90 62 6a
        E 0 90 6c 6a
        E 0 90 4a 6a
        E 0 90 32 6a
        E 0 90 1a 6a
        E 0 9b 67 64
        E 0 9b 4f 64
        E 0 9b 37 64
        E 0 9b 1f 64
        E 120 80 6c 00
        E 840 80 62 00
        E 0 80 4a 00
        E 0 80 32 00
        E 0 80 1a 00
        E 0 8b 67 00
        E 0 8b 4f 00
        E 0 8b 37 00
        E 0 8b 1f 00
        E 480 90 63 6a
        E 0 90 4b 6a
        E 0 90 33 6a
        E 120 80 63 00
        E 0 80 4b 00
        E 0 80 33 00
        E 0 90 63 6c
        E 0 90 66 64
        E 720 80 63 00
        E 0 80 66 00
        E 120 90 63 6a
        E 0 90 4b 6a
        E 0 90 33 6a
        E 120 80 63 00
        E 0 80 4b 00
        E 0 80 33 00
        E 360 90 62 6a
        E 0 90 6c 68
        E 0 90 4a 6a
        E 0 90 32 6a
        E 0 90 1a 6a
        E 120 80 62 00
        E 0 80 6c 00
        E 0 80 4a 00
        E 0 80 32 00
        E 0 80 1a 00
        E 360 90 62 6a
        E 0 90 4a 6a
        E 0 90 32 6a
        E 120 80 62 00
        E 0 80 4a 00
        E 0 80 32 00
        E 360 90 62 68
        E 0 90 4a 68
        E 0 90 32 68
        E 0 90 1a 68
        E 120 80 62 00
        E 0 80 4a 00
        E 0 80 32 00
        E 0 80 1a 00
        E 360 90 62 68
        E 0 90 4a 68
        E 0 90 32 68
        E 0 90 1a 68
        E 120 80 62 00
        E 0 80 4a 00
        E 0 80 32 00
        E 0 80 1a 00
        E 360 90 62 68
        E 0 90 4a 68
        E 0 90 32 68
        E 0 90 1a 68
        E 120 80 62 00
        E 0 80 4a 00
        E 0 80 32 00
        E 0 80 1a 00
        E 360 90 62 68
        E 0 90 4a 68
        E 0 90 32 68
        E 0 90 1a 68
        E 120 80 62 00
        E 0 80 4a 00
        E 0 80 32 00
        E 0 80 1a 00
        E 360 90 62 68
        E 0 90 74 64
        E 0 90 4a 68
        E 0 90 32 68
        E 0 90 1a 68
        E 120 80 62 00
        E 0 80 4a 00
        E 0 80 32 00
        E 0 80 1a 00
        E 360 90 61 68
        E 0 90 49 68
        E 0 90 31 68
        E 120 80 61 00
        E 0 80 49 00
        E 0 80 31 00
        E 120 90 61 6a
        E 0 90 49 6a
        E 120 80 61 00
        E 0 80 49 00
        E 120 90 62 68
        E 0 90 4a 68
        E 0 90 32 68
        E 0 90 1a 68
        E 120 80 62 00
        E 0 80 4a 00
        E 0 80 32 00
        E 0 80 1a 00
        E 120 90 61 68
        E 0 90 49 68
        E 120 80 61 00
        E 0 80 49 00
        E 120 90 61 6a
        E 0 90 49 6a
        E 0 90 31 6a
        E 120 80 61 00
        E 0 80 49 00
        E 0 80 31 00
        E 120 90 62 68
        E 0 90 4a 68
        E 120 80 62 00
        E 0 80 4a 00
        E 120 90 62 6a
        E 0 90 6c 6a
        E 0 90 4a 6a
        E 0 90 32 6a
        E 0 90 1a 6a
        E 0 9b 67 64
        E 0 9b 4f 64
        E 0 9b 37 64
        E 0 9b 1f 64
        E 120 80 6c 00
        E 840 80 62 00
        E 0 80 4a 00
        E 0 80 32 00
        E 0 80 1a 00
        E 0 8b 67 00
        E 0 8b 4f 00
        E 0 8b 37 00
        E 0 8b 1f 00
        E 120 80 74 00
        E 360 90 63 6a
        E 0 90 4b 6a
        E 0 90 33 6a
        E 120 80 63 00
        E 0 80 4b 00
        E 0 80 33 00
        E 0 90 63 6c
        E 0 90 66 64
        E 720 80 63 00
        E 0 80 66 00
        E 120 90 63 6a
        E 0 90 4b 6a
        E 0 90 33 6a
        E 120 80 63 00
        E 0 80 4b 00
        E 0 80 33 00
        E 360 90 62 6a
        E 0 90 4a 6a
        E 0 90 32 6a
        E 0 90 1a 6a
        E 120 80 62 00
        E 0 80 4a 00
        E 0 80 32 00
        E 0 80 1a 00
        E 360 90 63 67
        E 0 90 6c 67
        E 0 90 4b 67
        E 0 90 33 67
        E 120 80 63 00
        E 0 80 6c 00
        E 0 80 4b 00
        E 0 80 33 00
        E 360 90 62 68
        E 0 90 6c 68
        E 0 90 4a 68
        E 0 90 32 68
        E 0 90 1a 68
        E 120 80 62 00
        E 0 80 6c 00
        E 0 80 4a 00
        E 0 80 32 00
        E 0 80 1a 00
        E 360 90 62 68
        E 0 90 4a 68
        E 0 90 32 68
        E 0 90 1a 68
        E 120 80 62 00
        E 0 80 4a 00
        E 0 80 32 00
        E 0 80 1a 00
        E 360 90 62 68
        E 0 90 4a 68
        E 0 90 32 68
        E 0 90 1a 68
        E 120 80 62 00
        E 0 80 4a 00
        E 0 80 32 00
        E 0 80 1a 00
        E 360 90 62 68
        E 0 90 4a 68
        E 0 90 32 68
        E 0 90 1a 68
        E 120 80 62 00
        E 0 80 4a 00
        E 0 80 32 00
        E 0 80 1a 00
        E 360 90 62 68
        E 0 90 4a 68
        E 0 90 32 68
        E 0 90 1a 68
        E 120 80 62 00
        E 0 80 4a 00
        E 0 80 32 00
        E 0 80 1a 00
        E 360 90 61 68
        E 0 90 49 68
        E 0 90 31 68
        E 120 80 61 00
        E 0 80 49 00
        E 0 80 31 00
        E 120 90 61 6a
        E 0 90 49 6a
        E 120 80 61 00
        E 0 80 49 00
        E 120 90 62 68
        E 0 90 4a 68
        E 0 90 32 68
        E 0 90 1a 68
        E 120 80 62 00
        E 0 80 4a 00
        E 0 80 32 00
        E 0 80 1a 00
        E 120 90 61 68
        E 0 90 49 68
        E 120 80 61 00
        E 0 80 49 00
        E 120 90 61 6a
        E 0 90 49 6a
        E 0 90 31 6a
        E 120 80 61 00
        E 0 80 49 00
        E 0 80 31 00
        E 120 90 62 68
        E 0 90 4a 68
        E 120 80 62 00
        E 0 80 4a 00
        E 120 90 62 6a
        E 0 90 6c 6a
        E 0 90 4a 6a
        E 0 90 32 6a
        E 0 90 1a 6a
        E 0 9b 67 64
        E 0 9b 4f 64
        E 0 9b 37 64
        E 0 9b 1f 64
        E 120 80 6c 00
        E 840 80 62 00
        E 0 80 4a 00
        E 0 80 32 00
        E 0 80 1a 00
        E 0 8b 67 00
        E 0 8b 4f 00
        E 0 8b 37 00
        E 0 8b 1f 00
        E 480 90 63 6a
        E 0 90 4b 6a
        E 0 90 33 6a
        E 120 80 63 00
        E 0 80 4b 00
        E 0 80 33 00
        E 0 90 63 6c
        E 0 90 66 64
        E 720 80 63 00
        E 0 80 66 00
        E 120 90 63 6a
        E 0 90 4b 6a
        E 0 90 33 6a
        E 120 80 63 00
        E 0 80 4b 00
        E 0 80 33 00
        E 360 90 62 6a
        E 0 90 6c 68
        E 0 90 4a 6a
        E 0 90 32 6a
        E 0 90 1a 6a
        E 120 80 6c 00
        E 600 80 62 00
        E 0 80 4a 00
        E 0 80 32 00
        E 0 80 1a 00
        E 240 90 62 68
        E 0 90 4a 68
        E 0 90 32 68
        E 0 90 1a 68
        E 120 80 62 00
        E 0 80 4a 00
        E 0 80 32 00
        E 0 80 1a 00
        E 360 90 62 68
        E 0 90 4a 68
        E 0 90 32 68
        E 0 90 1a 68
        E 120 80 62 00
        E 0 80 4a 00
        E 0 80 32 00
        E 0 80 1a 00
        E 360 90 62 68
        E 0 90 4a 68
        E 0 90 32 68
        E 0 90 1a 68
        E 120 80 62 00
        E 0 80 4a 00
        E 0 80 32 00
        E 0 80 1a 00
        E 360 90 62 68
        E 0 90 4a 68
        E 0 90 32 68
        E 0 90 1a 68
        E 120 80 62 00
        E 0 80 4a 00
        E 0 80 32 00
        E 0 80 1a 00
        E 360 90 62 68
        E 0 90 4a 68
        E 0 90 32 68
        E 0 90 1a 68
        E 120 80 62 00
        E 0 80 4a 00
        E 0 80 32 00
        E 0 80 1a 00
        E 360 90 61 68
        E 0 90 49 68
        E 0 90 31 68
        E 120 80 61 00
        E 0 80 49 00
        E 0 80 31 00
        E 120 90 61 6a
        E 0 90 49 6a
        E 120 80 61 00
        E 0 80 49 00
        E 120 90 62 68
        E 0 90 4a 68
        E 0 90 32 68
        E 0 90 1a 68
        E 120 80 62 00
        E 0 80 4a 00
        E 0 80 32 00
        E 0 80 1a 00
        E 120 90 61 68
        E 0 90 49 68
        E 120 80 61 00
        E 0 80 49 00
        E 120 90 61 6a
        E 0 90 49 6a
        E 0 90 31 6a
        E 120 80 61 00
        E 0 80 49 00
        E 0 80 31 00
        E 120 90 62 68
        E 0 90 4a 68
        E 120 80 62 00
        E 0 80 4a 00
        E 120 90 62 6a
        E 0 90 6c 6a
        E 0 90 4a 6a
        E 0 90 32 6a
        E 0 90 1a 6a
        E 0 9b 67 64
        E 0 9b 4f 64
        E 0 9b 37 64
        E 0 9b 1f 64
        E 120 80 6c 00
        E 840 80 62 00
        E 0 80 4a 00
        E 0 80 32 00
        E 0 80 1a 00
        E 0 8b 67 00
        E 0 8b 4f 00
        E 0 8b 37 00
        E 0 8b 1f 00
        E 480 90 63 6a
        E 0 90 4b 6a
        E 0 90 33 6a
        E 120 80 63 00
        E 0 80 4b 00
        E 0 80 33 00
        E 0 90 63 6c
        E 0 90 66 64
        E 720 80 63 00
        E 0 80 66 00
        E 120 90 63 6a
        E 0 90 4b 6a
        E 0 90 33 6a
        E 120 80 63 00
        E 0 80 4b 00
        E 0 80 33 00
        E 360 90 62 6a
        E 0 90 4a 6a
        E 0 90 32 6a
        E 0 90 1a 6a
        E 120 80 62 00
        E 0 80 4a 00
        E 0 80 32 00
        E 0 80 1a 00
        E 360 90 63 67
        E 0 90 6c 67
        E 0 90 4b 67
        E 0 90 33 67
        E 120 80 63 00
        E 0 80 6c 00
        E 0 80 4b 00
        E 0 80 33 00
        E 360 90 62 68
        E 0 90 6c 68
        E 0 90 4a 68
        E 0 90 32 68
        E 0 90 1a 68
        E 120 80 62 00
        E 0 80 6c 00
        E 0 80 4a 00
        E 0 80 32 00
        E 0 80 1a 00
        E 360 90 62 68
        E 0 90 4a 68
        E 0 90 32 68
        E 0 90 1a 68
        E 120 80 62 00
        E 0 80 4a 00
        E 0 80 32 00
        E 0 80 1a 00
        E 360 90 62 68
        E 0 90 4a 68
        E 0 90 32 68
        E 0 90 1a 68
        E 120 80 62 00
        E 0 80 4a 00
        E 0 80 32 00
        E 0 80 1a 00
        E 360 90 62 68
        E 0 90 4a 68
        E 0 90 32 68
        E 0 90 1a 68
        E 120 80 62 00
        E 0 80 4a 00
        E 0 80 32 00
        E 0 80 1a 00
        E 360 90 62 68
        E 0 90 4a 68
        E 0 90 32 68
        E 0 90 1a 68
        E 120 80 62 00
        E 0 80 4a 00
        E 0 80 32 00
        E 0 80 1a 00
        E 1320 90 62 68
        E 0 90 67 64
        E 0 90 6c 68
        E 0 90 4a 68
        E 0 90 4f 64
        E 0 90 32 68
        E 0 90 37 64
        E 120 80 6c 00
        E 300 80 62 00
        E 0 80 67 00
        E 0 80 4a 00
        E 0 80 4f 00
        E 0 80 32 00
        E 0 80 37 00
        E 60 90 62 6a
        E 0 90 6c 6a
        E 0 90 4a 6a
        E 0 90 32 6a
        E 0 90 1a 6a
        E 0 9b 67 64
        E 0 9b 4f 64
        E 0 9b 37 64
        E 0 9b 1f 64
        E 120 80 6c 00
        E 840 80 62 00
        E 0 80 4a 00
        E 0 80 32 00
        E 0 80 1a 00
        E 0 8b 67 00
        E 0 8b 4f 00
        E 0 8b 37 00
        E 0 8b 1f 00
        E 480 90 63 6a
        E 0 90 4b 6a
        E 0 90 33 6a
        E 120 80 63 00
        E 0 80 4b 00
        E 0 80 33 00
        E 0 90 63 6c
        E 0 90 66 64
        E 720 80 63 00
        E 0 80 66 00
        E 120 90 63 6a
        E 0 90 4b 6a
        E 0 90 33 6a
        E 120 80 63 00
        E 0 80 4b 00
        E 0 80 33 00
        E 360 90 62 6a
        E 0 90 6c 68
        E 0 90 4a 6a
        E 0 90 32 6a
        E 0 90 1a 6a
        E 120 80 62 00
        E 0 80 6c 00
        E 0 80 4a 00
        E 0 80 32 00
        E 0 80 1a 00
        E 360 90 62 6a
        E 0 90 4a 6a
        E 0 90 32 6a
        E 120 80 62 00
        E 0 80 4a 00
        E 0 80 32 00
        E 360 90 62 68
        E 0 90 4a 68
        E 0 90 32 68
        E 0 90 1a 68
        E 120 80 62 00
        E 0 80 4a 00
        E 0 80 32 00
        E 0 80 1a 00
        E 360 90 62 68
        E 0 90 4a 68
        E 0 90 32 68
        E 0 90 1a 68
        E 120 80 62 00
        E 0 80 4a 00
        E 0 80 32 00
        E 0 80 1a 00
        E 360 90 62 68
        E 0 90 4a 68
        E 0 90 32 68
        E 0 90 1a 68
        E 120 80 62 00
        E 0 80 4a 00
        E 0 80 32 00
        E 0 80 1a 00
        E 360 90 62 68
        E 0 90 4a 68
        E 0 90 32 68
        E 0 90 1a 68
        E 120 80 62 00
        E 0 80 4a 00
        E 0 80 32 00
        E 0 80 1a 00
        E 360 90 62 68
        E 0 90 4a 68
        E 0 90 32 68
        E 0 90 1a 68
        E 120 80 62 00
        E 0 80 4a 00
        E 0 80 32 00
        E 0 80 1a 00
        E 360 90 61 68
        E 0 90 49 68
        E 0 90 31 68
        E 120 80 61 00
        E 0 80 49 00
        E 0 80 31 00
        E 120 90 61 6a
        E 0 90 49 6a
        E 120 80 61 00
        E 0 80 49 00
        E 120 90 62 68
        E 0 90 4a 68
        E 0 90 32 68
        E 0 90 1a 68
        E 120 80 62 00
        E 0 80 4a 00
        E 0 80 32 00
        E 0 80 1a 00
        E 120 90 61 68
        E 0 90 49 68
        E 120 80 61 00
        E 0 80 49 00
        E 120 90 61 6a
        E 0 90 49 6a
        E 0 90 31 6a
        E 120 80 61 00
        E 0 80 49 00
        E 0 80 31 00
        E 120 90 62 68
        E 0 90 4a 68
        E 120 80 62 00
        E 0 80 4a 00
        E 120 90 62 6a
        E 0 90 6c 6a
        E 0 90 4a 6a
        E 0 90 32 6a
        E 0 90 1a 6a
        E 0 9b 67 64
        E 0 9b 4f 64
        E 0 9b 37 64
        E 0 9b 1f 64
        E 120 80 6c 00
        E 840 80 62 00
        E 0 80 4a 00
        E 0 80 32 00
        E 0 80 1a 00
        E 0 8b 67 00
        E 0 8b 4f 00
        E 0 8b 37 00
        E 0 8b 1f 00
        E 480 90 63 6a
        E 0 90 4b 6a
        E 0 90 33 6a
        E 120 80 63 00
        E 0 80 4b 00
        E 0 80 33 00
        E 0 90 63 6c
        E 0 90 66 64
        E 720 80 63 00
        E 0 80 66 00
        E 120 90 63 6a
        E 0 90 4b 6a
        E 0 90 33 6a
        E 120 80 63 00
        E 0 80 4b 00
        E 0 80 33 00
        E 360 90 62 6a
        E 0 90 4a 6a
        E 0 90 32 6a
        E 0 90 1a 6a
        E 120 80 62 00
        E 0 80 4a 00
        E 0 80 32 00
        E 0 80 1a 00
        E 360 90 63 67
        E 0 90 6c 67
        E 0 90 4b 67
        E 0 90 33 67
        E 120 80 63 00
        E 0 80 6c 00
        E 0 80 4b 00
        E 0 80 33 00
        E 360 90 62 68
        E 0 90 6c 68
        E 0 90 4a 68
        E 0 90 32 68
        E 0 90 1a 68
        E 120 80 62 00
        E 0 80 6c 00
        E 0 80 4a 00
        E 0 80 32 00
        E 0 80 1a 00
        E 360 90 62 68
        E 0 90 4a 68
        E 0 90 32 68
        E 0 90 1a 68
        E 120 80 62 00
        E 0 80 4a 00
        E 0 80 32 00
        E 0 80 1a 00
        E 360 90 62 68
        E 0 90 4a 68
        E 0 90 32 68
        E 0 90 1a 68
        E 120 80 62 00
        E 0 80 4a 00
        E 0 80 32 00
        E 0 80 1a 00
        E 360 90 62 68
        E 0 90 4a 68
        E 0 90 32 68
        E 0 90 1a 68
        E 120 80 62 00
        E 0 80 4a 00
        E 0 80 32 00
        E 0 80 1a 00
        E 360 90 62 68
        E 0 90 4a 68
        E 0 90 32 68
        E 0 90 1a 68
        E 120 80 62 00
        E 0 80 4a 00
        E 0 80 32 00
        E 0 80 1a 00
        E 360 90 61 68
        E 0 90 49 68
        E 0 90 31 68
        E 120 80 61 00
        E 0 80 49 00
        E 0 80 31 00
        E 120 90 61 6a
        E 0 90 49 6a
        E 120 80 61 00
        E 0 80 49 00
        E 120 90 62 68
        E 0 90 4a 68
        E 0 90 32 68
        E 0 90 1a 68
        E 120 80 62 00
        E 0 80 4a 00
        E 0 80 32 00
        E 0 80 1a 00
        E 120 90 61 68
        E 0 90 49 68
        E 120 80 61 00
        E 0 80 49 00
        E 120 90 61 6a
        E 0 90 49 6a
        E 0 90 31 6a
        E 120 80 61 00
        E 0 80 49 00
        E 0 80 31 00
        E 120 90 62 68
        E 0 90 4a 68
        E 120 80 62 00
        E 0 80 4a 00
        E 120 90 62 6a
        E 0 90 6c 6a
        E 0 90 4a 6a
        E 0 90 32 6a
        E 0 90 1a 6a
        E 0 9b 67 64
        E 0 9b 4f 64
        E 0 9b 37 64
        E 0 9b 1f 64
        E 120 80 6c 00
        E 840 80 62 00
        E 0 80 4a 00
        E 0 80 32 00
        E 0 80 1a 00
        E 0 8b 67 00
        E 0 8b 4f 00
        E 0 8b 37 00
        E 0 8b 1f 00
        E 480 90 63 6a
        E 0 90 4b 6a
        E 0 90 33 6a
        E 120 80 63 00
        E 0 80 4b 00
        E 0 80 33 00
        E 0 90 63 6c
        E 0 90 66 64
        E 720 80 63 00
        E 0 80 66 00
        E 120 90 63 6a
        E 0 90 4b 6a
        E 0 90 33 6a
        E 120 80 63 00
        E 0 80 4b 00
        E 0 80 33 00
        E 360 90 62 6a
        E 0 90 6c 68
        E 0 90 4a 6a
        E 0 90 32 6a
        E 0 90 1a 6a
        E 120 80 6c 00
        E 600 80 62 00
        E 0 80 4a 00
        E 0 80 32 00
        E 0 80 1a 00
        E 240 90 62 68
        E 0 90 4a 68
        E 0 90 32 68
        E 0 90 1a 68
        E 120 80 62 00
        E 0 80 4a 00
        E 0 80 32 00
        E 0 80 1a 00
        E 360 90 62 68
        E 0 90 4a 68
        E 0 90 32 68
        E 0 90 1a 68
        E 120 80 62 00
        E 0 80 4a 00
        E 0 80 32 00
        E 0 80 1a 00
        E 360 90 62 68
        E 0 90 4a 68
        E 0 90 32 68
        E 0 90 1a 68
        E 120 80 62 00
        E 0 80 4a 00
        E 0 80 32 00
        E 0 80 1a 00
        E 360 90 62 68
        E 0 90 4a 68
        E 0 90 32 68
        E 0 90 1a 68
        E 120 80 62 00
        E 0 80 4a 00
        E 0 80 32 00
        E 0 80 1a 00
        E 360 90 62 68
        E 0 90 4a 68
        E 0 90 32 68
        E 0 90 1a 68
        E 120 80 62 00
        E 0 80 4a 00
        E 0 80 32 00
        E 0 80 1a 00
        E 360 90 61 68
        E 0 90 49 68
        E 0 90 31 68
        E 120 80 61 00
        E 0 80 49 00
        E 0 80 31 00
        E 120 90 61 6a
        E 0 90 49 6a
        E 120 80 61 00
        E 0 80 49 00
        E 120 90 62 68
        E 0 90 4a 68
        E 0 90 32 68
        E 0 90 1a 68
        E 120 80 62 00
        E 0 80 4a 00
        E 0 80 32 00
        E 0 80 1a 00
        E 120 90 61 68
        E 0 90 49 68
        E 120 80 61 00
        E 0 80 49 00
        E 120 90 61 6a
        E 0 90 49 6a
        E 0 90 31 6a
        E 120 80 61 00
        E 0 80 49 00
        E 0 80 31 00
        E 120 90 62 68
        E 0 90 4a 68
        E 120 80 62 00
        E 0 80 4a 00
        E 120 90 62 6a
        E 0 90 6c 6a
        E 0 90 4a 6a
        E 0 90 32 6a
        E 0 90 1a 6a
        E 0 9b 67 64
        E 0 9b 4f 64
        E 0 9b 37 64
        E 0 9b 1f 64
        E 120 80 6c 00
        E 840 80 62 00
        E 0 80 4a 00
        E 0 80 32 00
        E 0 80 1a 00
        E 0 8b 67 00
        E 0 8b 4f 00
        E 0 8b 37 00
        E 0 8b 1f 00
        E 480 90 63 6a
        E 0 90 4b 6a
        E 0 90 33 6a
        E 120 80 63 00
        E 0 80 4b 00
        E 0 80 33 00
        E 0 90 63 6c
        E 0 90 66 64
        E 720 80 63 00
        E 0 80 66 00
        E 120 90 63 6a
        E 0 90 4b 6a
        E 0 90 33 6a
        E 120 80 63 00
        E 0 80 4b 00
        E 0 80 33 00
        E 360 90 62 6a
        E 0 90 4a 6a
        E 0 90 32 6a
        E 0 90 1a 6a
        E 120 80 62 00
        E 0 80 4a 00
        E 0 80 32 00
        E 0 80 1a 00
        E 360 90 63 67
        E 0 90 6c 67
        E 0 90 4b 67
        E 0 90 33 67
        E 120 80 63 00
        E 0 80 6c 00
        E 0 80 4b 00
        E 0 80 33 00
        E 360 90 62 68
        E 0 90 6c 68
        E 0 90 4a 68
        E 0 90 32 68
        E 0 90 1a 68
        E 120 80 62 00
        E 0 80 6c 00
        E 0 80 4a 00
        E 0 80 32 00
        E 0 80 1a 00
        E 360 90 62 68
        E 0 90 4a 68
        E 0 90 32 68
        E 0 90 1a 68
        E 120 80 62 00
        E 0 80 4a 00
        E 0 80 32 00
        E 0 80 1a 00
        E 360 90 62 68
        E 0 90 4a 68
        E 0 90 32 68
        E 0 90 1a 68
        E 120 80 62 00
        E 0 80 4a 00
        E 0 80 32 00
        E 0 80 1a 00
        E 360 90 62 68
        E 0 90 4a 68
        E 0 90 32 68
        E 0 90 1a 68
        E 120 80 62 00
        E 0 80 4a 00
        E 0 80 32 00
        E 0 80 1a 00
        E 360 90 62 68
        E 0 90 4a 68
        E 0 90 32 68
        E 0 90 1a 68
        E 120 80 62 00
        E 0 80 4a 00
        E 0 80 32 00
        E 0 80 1a 00
        E 360 90 61 68
        E 0 90 49 68
        E 0 90 31 68
        E 120 80 61 00
        E 0 80 49 00
        E 0 80 31 00
        E 120 90 61 6a
        E 0 90 49 6a
        E 120 80 61 00
        E 0 80 49 00
        E 120 90 62 68
        E 0 90 4a 68
        E 0 90 32 68
        E 0 90 1a 68
        E 120 80 62 00
        E 0 80 4a 00
        E 0 80 32 00
        E 0 80 1a 00
        <X 840 0
          /wFbYmVnaW5fcGIgc29uZ190cmFpbmVyX3BiXzNd
        >
        E 0 90 63 68
        E 0 90 6c 67
        E 0 90 74 64
        E 0 90 4b 68
        E 0 90 33 68
        E 0 90 1b 68
        E 120 80 6c 00
        E 480 80 63 00
        E 0 80 4b 00
        E 0 80 33 00
        E 0 80 1b 00
        E 120 90 63 68
        E 0 90 4b 68
        E 0 90 33 68
        E 120 80 63 00
        E 0 80 4b 00
        E 0 80 33 00
        E 120 90 63 68
        E 0 90 4b 68
        E 0 90 33 68
        E 0 90 1b 68
        E 120 80 63 00
        E 0 80 4b 00
        E 0 80 33 00
        E 0 80 1b 00
        E 600 90 63 68
        E 0 90 4b 68
        E 0 90 33 68
        E 120 80 63 00
        E 0 80 4b 00
        E 0 80 33 00
        E 120 90 63 68
        E 0 90 4b 68
        E 0 90 33 68
        E 0 90 1b 68
        E 600 80 63 00
        E 0 80 4b 00
        E 0 80 33 00
        E 0 80 1b 00
        E 120 90 63 68
        E 0 90 4b 68
        E 0 90 33 68
        E 120 80 63 00
        E 0 80 4b 00
        E 0 80 33 00
        E 120 90 63 68
        E 0 90 4b 68
        E 0 90 33 68
        E 0 90 1b 68
        E 840 80 63 00
        E 0 80 4b 00
        E 0 80 33 00
        E 0 80 1b 00
        <X 120 0
          /wFbcGJfbm9ybSBzb25nX3RyYWluZXJfcGJfM10=
        >
        E 0 90 63 67
        E 0 90 4b 67
        E 0 90 33 67
        E 0 90 1b 67
        E 120 80 74 00
        E 0 80 63 00
        E 0 80 4b 00
        E 0 80 33 00
        E 0 80 1b 00
        E 360 90 63 67
        E 0 90 4b 67
        E 0 90 33 67
        E 0 90 1b 67
        E 120 80 63 00
        E 0 80 4b 00
        E 0 80 33 00
        E 0 80 1b 00
        E 360 90 63 67
        E 0 90 4b 67
        E 0 90 33 67
        E 0 90 1b 67
        E 120 80 63 00
        E 0 80 4b 00
        E 0 80 33 00
        E 0 80 1b 00
        E 360 90 63 67
        E 0 90 4b 67
        E 0 90 33 67
        E 0 90 1b 67
        E 120 80 63 00
        E 0 80 4b 00
        E 0 80 33 00
        E 0 80 1b 00
        E 360 90 63 67
        E 0 90 4b 67
        E 0 90 33 67
        E 0 90 1b 67
        E 120 80 63 00
        E 0 80 4b 00
        E 0 80 33 00
        E 0 80 1b 00
        E 360 90 63 67
        E 0 90 4b 67
        E 0 90 33 67
        E 0 90 1b 67
        E 120 80 63 00
        E 0 80 4b 00
        E 0 80 33 00
        E 0 80 1b 00
        E 360 90 63 67
        E 0 90 4b 67
        E 0 90 33 67
        E 0 90 1b 67
        E 120 80 63 00
        E 0 80 4b 00
        E 0 80 33 00
        E 0 80 1b 00
        E 120 90 63 67
        E 0 90 4b 67
        E 0 90 33 67
        E 120 80 63 00
        E 0 80 4b 00
        E 0 80 33 00
        E 120 90 63 67
        E 0 90 4b 67
        E 0 90 33 67
        E 120 80 63 00
        E 0 80 4b 00
        E 0 80 33 00
        E 120 90 63 67
        E 0 90 4b 67
        E 120 80 63 00
        E 0 80 4b 00
        E 120 90 63 68
        E 0 90 4b 68
        E 0 90 33 68
        E 0 90 1b 68
        E 1320 80 63 00
        E 0 80 4b 00
        E 0 80 33 00
        E 0 80 1b 00
        E 120 90 63 6a
        E 0 90 6c 6a
        E 0 90 4b 6a
        E 0 90 33 6a
        E 0 90 1b 6a
        E 120 80 63 00
        E 0 80 6c 00
        E 0 80 4b 00
        E 0 80 33 00
        E 0 90 63 6c
        E 0 80 1b 00
        E 720 80 63 00
        E 120 90 63 6a
        E 0 90 4b 6a
        E 0 90 33 6a
        E 120 80 63 00
        E 0 80 4b 00
        E 0 80 33 00
        E 360 90 62 6d
        E 0 90 4a 6d
        E 0 90 32 6d
        E 0 90 1a 6d
        E 600 80 62 00
        E 0 80 4a 00
        E 0 80 32 00
        E 0 80 1a 00
        E 120 90 62 6c
        E 0 90 4a 6c
        E 0 90 32 6c
        E 120 80 62 00
        E 0 80 4a 00
        E 0 80 32 00
        E 120 90 62 6c
        E 0 90 4a 6c
        E 0 90 32 6c
        E 0 90 1a 6c
        E 120 80 62 00
        E 0 80 4a 00
        E 0 80 32 00
        E 0 80 1a 00
        E 360 90 62 6c
        E 0 90 4a 6c
        E 0 90 32 6c
        E 0 90 1a 6c
        E 120 80 62 00
        E 0 80 4a 00
        E 0 80 32 00
        E 0 80 1a 00
        E 360 90 62 6c
        E 0 90 4a 6c
        E 0 90 32 6c
        E 0 90 1a 6c
        E 120 80 62 00
        E 0 80 4a 00
        E 0 80 32 00
        E 0 80 1a 00
        E 360 90 62 6c
        E 0 90 4a 6c
        E 0 90 32 6c
        E 0 90 1a 6c
        E 120 80 62 00
        E 0 80 4a 00
        E 0 80 32 00
        E 0 80 1a 00
        E 360 90 62 6c
        E 0 90 4a 6c
        E 0 90 32 6c
        E 0 90 1a 6c
        E 120 80 62 00
        E 0 80 4a 00
        E 0 80 32 00
        E 0 80 1a 00
        E 360 90 62 6c
        E 0 90 4a 6c
        E 0 90 32 6c
        E 0 90 1a 6c
        E 120 80 62 00
        E 0 80 4a 00
        E 0 80 32 00
        E 0 80 1a 00
        E 360 90 62 6c
        E 0 90 4a 6c
        E 0 90 32 6c
        E 0 90 1a 6c
        E 120 80 62 00
        E 0 80 4a 00
        E 0 80 32 00
        E 0 80 1a 00
        <X 840 0
          /wFbZW5kX3BiIHNvbmdfdHJhaW5lcl9wYl8zXQ==
        >
        <X 0 0
          /wFbYmVnaW5fcGIgc29uZ190cmFpbmVyX3BiXzRd
        >
        E 0 90 6c 67
        E 1 90 63 68
        E 119 80 6c 00
        E 840 80 63 00
        E 481 90 63 68
        E 120 80 63 00
        E 119 90 63 68
        E 0 90 4b 68
        E 0 90 33 68
        E 120 80 63 00
        E 0 80 4b 00
        E 0 80 33 00
        E 121 90 63 68
        E 120 80 63 00
        E 360 90 63 68
        E 120 80 63 00
        E 360 90 63 68
        E 120 80 63 00
        E 360 90 63 68
        E 120 80 63 00
        <X 359 0
          /wFbcGJfbm9ybSBzb25nX3RyYWluZXJfcGJfNF0=
        >
        E 0 90 63 67
        E 0 90 4b 67
        E 0 90 33 67
        E 0 90 1b 67
        E 120 80 63 00
        E 0 80 4b 00
        E 0 80 33 00
        E 0 80 1b 00
        E 360 90 63 67
        E 0 90 4b 67
        E 0 90 33 67
        E 0 90 1b 67
        E 120 80 63 00
        E 0 80 4b 00
        E 0 80 33 00
        E 0 80 1b 00
        E 360 90 63 67
        E 0 90 4b 67
        E 0 90 33 67
        E 0 90 1b 67
        E 120 80 63 00
        E 0 80 4b 00
        E 0 80 33 00
        E 0 80 1b 00
        E 360 90 63 67
        E 0 90 4b 67
        E 0 90 33 67
        E 0 90 1b 67
        E 120 80 63 00
        E 0 80 4b 00
        E 0 80 33 00
        E 0 80 1b 00
        E 360 90 63 67
        E 0 90 4b 67
        E 0 90 33 67
        E 0 90 1b 67
        E 120 80 63 00
        E 0 80 4b 00
        E 0 80 33 00
        E 0 80 1b 00
        E 360 90 63 67
        E 0 90 4b 67
        E 0 90 33 67
        E 0 90 1b 67
        E 120 80 63 00
        E 0 80 4b 00
        E 0 80 33 00
        E 0 80 1b 00
        E 360 90 63 67
        E 0 90 4b 67
        E 0 90 33 67
        E 0 90 1b 67
        E 120 80 63 00
        E 0 80 4b 00
        E 0 80 33 00
        E 0 80 1b 00
        E 360 90 63 67
        E 0 90 4b 67
        E 0 90 33 67
        E 0 90 1b 67
        E 120 80 63 00
        E 0 80 4b 00
        E 0 80 33 00
        E 0 80 1b 00
        E 360 90 63 68
        E 0 90 4b 68
        E 0 90 33 68
        E 0 90 1b 68
        E 960 80 63 00
        E 0 80 4b 00
        E 0 80 33 00
        E 0 80 1b 00
        E 480 90 63 67
        E 0 90 74 64
        E 0 90 4b 67
        E 0 90 33 67
        E 0 90 1b 67
        E 120 80 63 00
        E 0 80 4b 00
        E 0 80 33 00
        E 0 80 1b 00
        E 120 90 63 68
        E 0 90 66 64
        E 0 90 4b 68
        E 0 90 4e 64
        E 120 80 63 00
        E 0 80 66 00
        E 0 80 4b 00
        E 0 80 4e 00
        E 120 90 63 68
        E 0 90 4b 68
        E 0 90 33 68
        E 0 90 1b 68
        E 120 80 63 00
        E 0 80 4b 00
        E 0 80 33 00
        E 0 80 1b 00
        E 360 90 63 67
        E 0 90 4b 67
        E 0 90 33 67
        E 120 80 63 00
        E 0 80 4b 00
        E 0 80 33 00
        E 360 90 62 6a
        E 0 90 67 64
        E 0 90 4a 6a
        E 0 90 4f 64
        E 0 90 32 6a
        E 0 90 37 64
        E 0 90 1a 6a
        E 0 90 1f 64
        E 840 80 62 00
        E 0 80 67 00
        E 0 80 4a 00
        E 0 80 4f 00
        E 0 80 32 00
        E 0 80 37 00
        E 0 80 1a 00
        E 0 80 1f 00
        E 120 90 62 67
        E 0 90 4a 67
        E 0 90 32 67
        E 0 90 1a 67
        E 120 80 74 00
        E 0 80 62 00
        E 0 80 4a 00
        E 0 80 32 00
        E 0 80 1a 00
        E 360 90 62 67
        E 0 90 4a 67
        E 0 90 32 67
        E 0 90 1a 67
        E 120 80 62 00
        E 0 80 4a 00
        E 0 80 32 00
        E 0 80 1a 00
        E 360 90 62 67
        E 0 90 4a 67
        E 0 90 32 67
        E 0 90 1a 67
        E 120 80 62 00
        E 0 80 4a 00
        E 0 80 32 00
        E 0 80 1a 00
        E 360 90 62 67
        E 0 90 4a 67
        E 0 90 32 67
        E 0 90 1a 67
        E 120 80 62 00
        E 0 80 4a 00
        E 0 80 32 00
        E 0 80 1a 00
        E 360 90 62 67
        E 0 90 4a 67
        E 0 90 32 67
        E 0 90 1a 67
        E 120 80 62 00
        E 0 80 4a 00
        E 0 80 32 00
        E 0 80 1a 00
        E 360 90 62 67
        E 0 90 4a 67
        E 0 90 32 67
        E 0 90 1a 67
        E 120 80 62 00
        E 0 80 4a 00
        E 0 80 32 00
        E 0 80 1a 00
        E 360 90 62 67
        E 0 90 4a 67
        E 0 90 32 67
        E 0 90 1a 67
        E 120 80 62 00
        E 0 80 4a 00
        E 0 80 32 00
        E 0 80 1a 00
        E 360 90 62 68
        E 0 90 67 64
        E 0 90 6c 68
        E 0 90 4a 68
        E 0 90 4f 64
        E 0 90 32 68
        E 0 90 37 64
        E 120 80 6c 00
        <X 240 0
          /wFbZW5kX3BiIHNvbmdfdHJhaW5lcl9wYl80XQ==
        >
        E 60 80 62 00
        E 0 80 67 00
        E 0 80 4a 00
        E 0 80 4f 00
        E 0 80 32 00
        E 0 80 37 00
        E 60 90 62 6a
        E 0 90 6c 6a
        E 0 90 4a 6a
        E 0 90 32 6a
        E 0 90 1a 6a
        E 0 9b 67 64
        E 0 9b 4f 64
        E 0 9b 37 64
        E 0 9b 1f 64
        E 120 80 6c 00
        E 840 80 62 00
        E 0 80 4a 00
        E 0 80 32 00
        E 0 80 1a 00
        E 0 8b 67 00
        E 0 8b 4f 00
        E 0 8b 37 00
        E 0 8b 1f 00
        E 480 90 63 6a
        E 0 90 4b 6a
        E 0 90 33 6a
        E 120 80 63 00
        E 0 80 4b 00
        E 0 80 33 00
        E 0 90 63 6c
        E 0 90 66 64
        E 720 80 63 00
        E 0 80 66 00
        E 120 90 63 6a
        E 0 90 4b 6a
        E 0 90 33 6a
        E 120 80 63 00
        E 0 80 4b 00
        E 0 80 33 00
        E 360 90 62 6a
        E 0 90 6c 68
        E 0 90 4a 6a
        E 0 90 32 6a
        E 0 90 1a 6a
        E 120 80 62 00
        E 0 80 6c 00
        E 0 80 4a 00
        E 0 80 32 00
        E 0 80 1a 00
        E 360 90 62 6a
        E 0 90 4a 6a
        E 0 90 32 6a
        E 120 80 62 00
        E 0 80 4a 00
        E 0 80 32 00
        E 360 90 62 68
        E 0 90 4a 68
        E 0 90 32 68
        E 0 90 1a 68
        E 120 80 62 00
        E 0 80 4a 00
        E 0 80 32 00
        E 0 80 1a 00
        E 360 90 62 68
        E 0 90 4a 68
        E 0 90 32 68
        E 0 90 1a 68
        E 120 80 62 00
        E 0 80 4a 00
        E 0 80 32 00
        E 0 80 1a 00
        E 360 90 62 68
        E 0 90 4a 68
        E 0 90 32 68
        E 0 90 1a 68
        E 120 80 62 00
        E 0 80 4a 00
        E 0 80 32 00
        E 0 80 1a 00
        E 360 90 62 68
        E 0 90 4a 68
        E 0 90 32 68
        E 0 90 1a 68
        E 120 80 62 00
        E 0 80 4a 00
        E 0 80 32 00
        E 0 80 1a 00
        E 360 90 62 68
        E 0 90 4a 68
        E 0 90 32 68
        E 0 90 1a 68
        E 120 80 62 00
        E 0 80 4a 00
        E 0 80 32 00
        E 0 80 1a 00
        E 360 90 61 68
        E 0 90 49 68
        E 0 90 31 68
        E 120 80 61 00
        E 0 80 49 00
        E 0 80 31 00
        E 120 90 61 6a
        E 0 90 49 6a
        E 120 80 61 00
        E 0 80 49 00
        E 120 90 62 68
        E 0 90 4a 68
        E 0 90 32 68
        E 0 90 1a 68
        E 120 80 62 00
        E 0 80 4a 00
        E 0 80 32 00
        E 0 80 1a 00
        E 120 90 61 68
        E 0 90 49 68
        E 120 80 61 00
        E 0 80 49 00
        E 120 90 61 6a
        E 0 90 49 6a
        E 0 90 31 6a
        E 120 80 61 00
        E 0 80 49 00
        E 0 80 31 00
        E 120 90 62 68
        E 0 90 4a 68
        E 120 80 62 00
        E 0 80 4a 00
        E 120 90 62 6a
        E 0 90 6c 6a
        E 0 90 4a 6a
        E 0 90 32 6a
        E 0 90 1a 6a
        E 0 9b 67 64
        E 0 9b 4f 64
        E 0 9b 37 64
        E 0 9b 1f 64
        E 120 80 6c 00
        E 840 80 62 00
        E 0 80 4a 00
        E 0 80 32 00
        E 0 80 1a 00
        E 0 8b 67 00
        E 0 8b 4f 00
        E 0 8b 37 00
        E 0 8b 1f 00
        E 480 90 63 6a
        E 0 90 4b 6a
        E 0 90 33 6a
        E 120 80 63 00
        E 0 80 4b 00
        E 0 80 33 00
        E 0 90 63 6c
        E 0 90 66 64
        E 720 80 63 00
        E 0 80 66 00
        E 120 90 63 6a
        E 0 90 4b 6a
        E 0 90 33 6a
        E 120 80 63 00
        E 0 80 4b 00
        E 0 80 33 00
        E 360 90 62 6a
        E 0 90 4a 6a
        E 0 90 32 6a
        E 0 90 1a 6a
        E 120 80 62 00
        E 0 80 4a 00
        E 0 80 32 00
        E 0 80 1a 00
        E 360 90 63 67
        E 0 90 6c 67
        E 0 90 4b 67
        E 0 90 33 67
        E 120 80 63 00
        E 0 80 6c 00
        E 0 80 4b 00
        E 0 80 33 00
        E 360 90 62 68
        E 0 90 6c 68
        E 0 90 4a 68
        E 0 90 32 68
        E 0 90 1a 68
        E 120 80 62 00
        E 0 80 6c 00
        E 0 80 4a 00
        E 0 80 32 00
        E 0 80 1a 00
        E 360 90 62 68
        E 0 90 4a 68
        E 0 90 32 68
        E 0 90 1a 68
        E 120 80 62 00
        E 0 80 4a 00
        E 0 80 32 00
        E 0 80 1a 00
        E 360 90 62 68
        E 0 90 4a 68
        E 0 90 32 68
        E 0 90 1a 68
        E 120 80 62 00
        E 0 80 4a 00
        E 0 80 32 00
        E 0 80 1a 00
        E 360 90 62 68
        E 0 90 4a 68
        E 0 90 32 68
        E 0 90 1a 68
        E 120 80 62 00
        E 0 80 4a 00
        E 0 80 32 00
        E 0 80 1a 00
        E 360 90 62 68
        E 0 90 4a 68
        E 0 90 32 68
        E 0 90 1a 68
        E 120 80 62 00
        E 0 80 4a 00
        E 0 80 32 00
        E 0 80 1a 00
        E 360 90 61 68
        E 0 90 49 68
        E 0 90 31 68
        E 120 80 61 00
        E 0 80 49 00
        E 0 80 31 00
        E 120 90 61 6a
        E 0 90 49 6a
        E 120 80 61 00
        E 0 80 49 00
        E 120 90 62 68
        E 0 90 4a 68
        E 0 90 32 68
        E 0 90 1a 68
        E 120 80 62 00
        E 0 80 4a 00
        E 0 80 32 00
        E 0 80 1a 00
        E 120 90 61 68
        E 0 90 49 68
        E 120 80 61 00
        E 0 80 49 00
        E 120 90 61 6a
        E 0 90 49 6a
        E 0 90 31 6a
        E 120 80 61 00
        E 0 80 49 00
        E 0 80 31 00
        E 120 90 62 68
        E 0 90 4a 68
        E 120 80 62 00
        E 0 80 4a 00
        E 120 90 62 6a
        E 0 90 6c 6a
        E 0 90 4a 6a
        E 0 90 32 6a
        E 0 90 1a 6a
        E 0 9b 67 64
        E 0 9b 4f 64
        E 0 9b 37 64
        E 0 9b 1f 64
        E 120 80 6c 00
        E 840 80 62 00
        E 0 80 4a 00
        E 0 80 32 00
        E 0 80 1a 00
        E 0 8b 67 00
        E 0 8b 4f 00
        E 0 8b 37 00
        E 0 8b 1f 00
        E 480 90 63 6a
        E 0 90 4b 6a
        E 0 90 33 6a
        E 120 80 63 00
        E 0 80 4b 00
        E 0 80 33 00
        E 0 90 63 6c
        E 0 90 66 64
        E 720 80 63 00
        E 0 80 66 00
        E 120 90 63 6a
        E 0 90 4b 6a
        E 0 90 33 6a
        E 120 80 63 00
        E 0 80 4b 00
        E 0 80 33 00
        E 360 90 62 6a
        E 0 90 6c 68
        E 0 90 4a 6a
        E 0 90 32 6a
        E 0 90 1a 6a
        E 120 80 6c 00
        E 600 80 62 00
        E 0 80 4a 00
        E 0 80 32 00
        E 0 80 1a 00
        E 240 90 62 68
        E 0 90 4a 68
        E 0 90 32 68
        E 0 90 1a 68
        E 120 80 62 00
        E 0 80 4a 00
        E 0 80 32 00
        E 0 80 1a 00
        E 360 90 62 68
        E 0 90 4a 68
        E 0 90 32 68
        E 0 90 1a 68
        E 120 80 62 00
        E 0 80 4a 00
        E 0 80 32 00
        E 0 80 1a 00
        E 360 90 62 68
        E 0 90 4a 68
        E 0 90 32 68
        E 0 90 1a 68
        E 120 80 62 00
        E 0 80 4a 00
        E 0 80 32 00
        E 0 80 1a 00
        E 360 90 62 68
        E 0 90 4a 68
        E 0 90 32 68
        E 0 90 1a 68
        E 120 80 62 00
        E 0 80 4a 00
        E 0 80 32 00
        E 0 80 1a 00
        E 360 90 62 68
        E 0 90 4a 68
        E 0 90 32 68
        E 0 90 1a 68
        E 120 80 62 00
        E 0 80 4a 00
        E 0 80 32 00
        E 0 80 1a 00
        E 360 90 61 68
        E 0 90 49 68
        E 0 90 31 68
        E 120 80 61 00
        E 0 80 49 00
        E 0 80 31 00
        E 120 90 61 6a
        E 0 90 49 6a
        E 120 80 61 00
        E 0 80 49 00
        E 120 90 62 68
        E 0 90 4a 68
        E 0 90 32 68
        E 0 90 1a 68
        E 120 80 62 00
        E 0 80 4a 00
        E 0 80 32 00
        E 0 80 1a 00
        E 120 90 61 68
        E 0 90 49 68
        E 120 80 61 00
        E 0 80 49 00
        E 120 90 61 6a
        E 0 90 49 6a
        E 0 90 31 6a
        E 120 80 61 00
        E 0 80 49 00
        E 0 80 31 00
        E 120 90 62 68
        E 0 90 4a 68
        E 120 80 62 00
        E 0 80 4a 00
        E 120 90 62 6a
        E 0 90 6c 6a
        E 0 90 4a 6a
        E 0 90 32 6a
        E 0 90 1a 6a
        E 0 9b 67 64
        E 0 9b 4f 64
        E 0 9b 37 64
        E 0 9b 1f 64
        E 120 80 6c 00
        E 840 80 62 00
        E 0 80 4a 00
        E 0 80 32 00
        E 0 80 1a 00
        E 0 8b 67 00
        E 0 8b 4f 00
        E 0 8b 37 00
        E 0 8b 1f 00
        E 480 90 63 6a
        E 0 90 4b 6a
        E 0 90 33 6a
        E 120 80 63 00
        E 0 80 4b 00
        E 0 80 33 00
        E 0 90 63 6c
        E 0 90 66 64
        E 720 80 63 00
        E 0 80 66 00
        E 120 90 63 6a
        E 0 90 4b 6a
        E 0 90 33 6a
        E 120 80 63 00
        E 0 80 4b 00
        E 0 80 33 00
        E 360 90 62 6a
        E 0 90 4a 6a
        E 0 90 32 6a
        E 0 90 1a 6a
        E 120 80 62 00
        E 0 80 4a 00
        E 0 80 32 00
        E 0 80 1a 00
        E 360 90 63 67
        E 0 90 6c 67
        E 0 90 4b 67
        E 0 90 33 67
        E 120 80 63 00
        E 0 80 6c 00
        E 0 80 4b 00
        E 0 80 33 00
        E 360 90 62 68
        E 0 90 6c 68
        E 0 90 4a 68
        E 0 90 32 68
        E 0 90 1a 68
        E 119 80 62 00
        E 0 80 6c 00
        E 0 80 4a 00
        E 0 80 32 00
        E 0 80 1a 00
        E 360 90 62 68
        E 121 80 62 00
        E 360 90 62 68
        E 0 90 4a 68
        E 0 90 32 68
        E 0 90 1a 68
        E 119 80 62 00
        E 0 80 4a 00
        E 0 80 32 00
        E 0 80 1a 00
        E 360 90 62 68
        E 121 80 62 00
        E 360 90 62 68
        E 0 90 4a 68
        E 0 90 32 68
        E 0 90 1a 68
        E 120 80 62 00
        E 0 80 4a 00
        E 0 80 32 00
        E 0 80 1a 00
        E 1800 90 63 69
        E 0 90 6c 69
        E 0 90 74 64
        E 0 90 4b 69
        E 0 90 33 69
        E 0 90 1b 69
        E 120 80 6c 00
        E 4080 80 63 00
        E 0 80 4b 00
        E 0 80 33 00
        E 0 80 1b 00
        E 120 90 63 68
        E 0 90 6c 67
        E 0 90 4b 68
        E 0 90 33 68
        E 0 90 1b 68
        E 120 80 74 00
        E 0 80 6c 00
        E 480 80 63 00
        E 0 80 4b 00
        E 0 80 33 00
        E 0 80 1b 00
        E 120 90 63 68
        E 0 90 4b 68
        E 0 90 33 68
        E 120 80 63 00
        E 0 80 4b 00
        E 0 80 33 00
        E 120 90 63 68
        E 0 90 4b 68
        E 0 90 33 68
        E 0 90 1b 68
        E 120 80 63 00
        E 0 80 4b 00
        E 0 80 33 00
        E 0 80 1b 00
        E 600 90 63 68
        E 0 90 4b 68
        E 0 90 33 68
        E 120 80 63 00
        E 0 80 4b 00
        E 0 80 33 00
        E 120 90 63 68
        E 0 90 4b 68
        E 0 90 33 68
        E 0 90 1b 68
        E 600 80 63 00
        E 0 80 4b 00
        E 0 80 33 00
        E 0 80 1b 00
        E 120 90 63 68
        E 0 90 4b 68
        E 0 90 33 68
        E 120 80 63 00
        E 0 80 4b 00
        E 0 80 33 00
        E 120 90 63 68
        E 0 90 4b 68
        E 0 90 33 68
        E 0 90 1b 68
        E 120 80 63 00
        E 0 80 4b 00
        E 0 80 33 00
        E 0 80 1b 00
        E 360 90 63 68
        E 0 90 4b 68
        E 0 90 33 68
        E 0 90 1b 68
        E 120 80 63 00
        E 0 80 4b 00
        E 0 80 33 00
        E 0 80 1b 00
        E 360 90 63 67
        E 0 90 4b 67
        E 0 90 33 67
        E 0 90 1b 67
        E 120 80 63 00
        E 0 80 4b 00
        E 0 80 33 00
        E 0 80 1b 00
        E 360 90 63 67
        E 0 90 4b 67
        E 0 90 33 67
        E 0 90 1b 67
        E 120 80 63 00
        E 0 80 4b 00
        E 0 80 33 00
        E 0 80 1b 00
        E 360 90 63 67
        E 0 90 4b 67
        E 0 90 33 67
        E 0 90 1b 67
        E 120 80 63 00
        E 0 80 4b 00
        E 0 80 33 00
        E 0 80 1b 00
        E 360 90 63 67
        E 0 90 4b 67
        E 0 90 33 67
        E 0 90 1b 67
        E 120 80 63 00
        E 0 80 4b 00
        E 0 80 33 00
        E 0 80 1b 00
        E 360 90 63 67
        E 0 90 4b 67
        E 0 90 33 67
        E 0 90 1b 67
        E 120 80 63 00
        E 0 80 4b 00
        E 0 80 33 00
        E 0 80 1b 00
        E 360 90 63 67
        E 0 90 4b 67
        E 0 90 33 67
        E 0 90 1b 67
        E 120 80 63 00
        E 0 80 4b 00
        E 0 80 33 00
        E 0 80 1b 00
        E 360 90 63 67
        E 0 90 4b 67
        E 0 90 33 67
        E 0 90 1b 67
        E 120 80 63 00
        E 0 80 4b 00
        E 0 80 33 00
        E 0 80 1b 00
        E 360 90 63 67
        E 0 90 4b 67
        E 0 90 33 67
        E 0 90 1b 67
        E 120 80 63 00
        E 0 80 4b 00
        E 0 80 33 00
        E 0 80 1b 00
        E 360 90 63 68
        E 0 90 4b 68
        E 0 90 33 68
        E 0 90 1b 68
        E 960 80 63 00
        E 0 80 4b 00
        E 0 80 33 00
        E 0 80 1b 00
        E 480 90 63 6a
        E 0 90 6c 6a
        E 0 90 4b 6a
        E 0 90 33 6a
        E 0 90 1b 6a
        E 120 80 63 00
        E 0 80 6c 00
        E 0 80 4b 00
        E 0 80 33 00
        E 0 90 63 6c
        E 0 90 66 64
        E 0 80 1b 00
        E 720 80 63 00
        E 0 80 66 00
        E 120 90 63 6a
        E 0 90 4b 6a
        E 0 90 33 6a
        E 0 90 1b 6a
        E 120 80 63 00
        E 0 80 4b 00
        E 0 80 33 00
        E 0 80 1b 00
        E 360 90 62 6d
        E 0 90 4a 6d
        E 0 90 32 6d
        E 0 90 1a 6d
        E 600 80 62 00
        E 0 80 4a 00
        E 0 80 32 00
        E 0 80 1a 00
        E 120 90 62 6c
        E 0 90 66 64
        E 0 90 4a 6c
        E 0 90 4e 64
        E 0 90 32 6c
        E 0 90 36 64
        E 120 80 62 00
        E 0 80 66 00
        E 0 80 4a 00
        E 0 80 4e 00
        E 0 80 32 00
        E 0 80 36 00
        E 120 90 62 6c
        E 0 90 4a 6c
        E 0 90 32 6c
        E 0 90 1a 6c
        E 120 80 62 00
        E 0 80 4a 00
        E 0 80 32 00
        E 0 80 1a 00
        E 360 90 62 6c
        E 0 90 4a 6c
        E 0 90 32 6c
        E 0 90 1a 6c
        E 120 80 62 00
        E 0 80 4a 00
        E 0 80 32 00
        E 0 80 1a 00
        E 360 90 62 6c
        E 0 90 4a 6c
        E 0 90 32 6c
        E 0 90 1a 6c
        E 120 80 62 00
        E 0 80 4a 00
        E 0 80 32 00
        E 0 80 1a 00
        E 360 90 62 6c
        E 0 90 4a 6c
        E 0 90 32 6c
        E 0 90 1a 6c
        E 120 80 62 00
        E 0 80 4a 00
        E 0 80 32 00
        E 0 80 1a 00
        E 360 90 62 6c
        E 0 90 4a 6c
        E 0 90 32 6c
        E 0 90 1a 6c
        E 120 80 62 00
        E 0 80 4a 00
        E 0 80 32 00
        E 0 80 1a 00
        E 360 90 62 6c
        E 0 90 4a 6c
        E 0 90 32 6c
        E 0 90 1a 6c
        E 120 80 62 00
        E 0 80 4a 00
        E 0 80 32 00
        E 0 80 1a 00
        E 360 90 62 6c
        E 0 90 4a 6c
        E 0 90 32 6c
        E 0 90 1a 6c
        E 120 80 62 00
        E 0 80 4a 00
        E 0 80 32 00
        E 0 80 1a 00
        E 840 90 63 68
        E 0 90 6c 67
        E 0 90 4b 68
        E 0 90 33 68
        E 0 90 1b 68
        E 120 80 6c 00
        E 840 80 63 00
        E 0 80 4b 00
        E 0 80 33 00
        E 0 80 1b 00
        E 480 90 63 68
        E 0 90 4b 68
        E 0 90 33 68
        E 0 90 1b 68
        E 120 80 63 00
        E 0 80 4b 00
        E 0 80 33 00
        E 0 80 1b 00
        E 120 90 63 68
        E 0 90 4b 68
        E 0 90 33 68
        E 120 80 63 00
        E 0 80 4b 00
        E 0 80 33 00
        E 120 90 63 68
        E 0 90 4b 68
        E 0 90 33 68
        E 0 90 1b 68
        E 120 80 63 00
        E 0 80 4b 00
        E 0 80 33 00
        E 0 80 1b 00
        E 360 90 63 68
        E 0 90 4b 68
        E 0 90 33 68
        E 0 90 1b 68
        E 120 80 63 00
        E 0 80 4b 00
        E 0 80 33 00
        E 0 80 1b 00
        E 360 90 63 68
        E 0 90 4b 68
        E 0 90 33 68
        E 0 90 1b 68
        E 120 80 63 00
        E 0 80 4b 00
        E 0 80 33 00
        E 0 80 1b 00
        E 360 90 63 68
        E 0 90 4b 68
        E 0 90 33 68
        E 0 90 1b 68
        E 120 80 63 00
        E 0 80 4b 00
        E 0 80 33 00
        E 0 80 1b 00
        E 360 90 63 67
        E 0 90 4b 67
        E 0 90 33 67
        E 0 90 1b 67
        E 120 80 63 00
        E 0 80 4b 00
        E 0 80 33 00
        E 0 80 1b 00
        E 360 90 63 67
        E 0 90 4b 67
        E 0 90 33 67
        E 0 90 1b 67
        E 120 80 63 00
        E 0 80 4b 00
        E 0 80 33 00
        E 0 80 1b 00
        E 360 90 63 67
        E 0 90 4b 67
        E 0 90 33 67
        E 0 90 1b 67
        E 120 80 63 00
        E 0 80 4b 00
        E 0 80 33 00
        E 0 80 1b 00
        E 360 90 63 67
        E 0 90 4b 67
        E 0 90 33 67
        E 0 90 1b 67
        E 120 80 63 00
        E 0 80 4b 00
        E 0 80 33 00
        E 0 80 1b 00
        E 360 90 63 67
        E 0 90 74 64
        E 0 90 4b 67
        E 0 90 33 67
        E 0 90 1b 67
        E 120 80 63 00
        E 0 80 4b 00
        E 0 80 33 00
        E 0 80 1b 00
        E 360 90 63 67
        E 0 90 4b 67
        E 0 90 33 67
        E 0 90 1b 67
        E 120 80 63 00
        E 0 80 4b 00
        E 0 80 33 00
        E 0 80 1b 00
        E 360 90 63 67
        E 0 90 4b 67
        E 0 90 33 67
        E 0 90 1b 67
        E 120 80 63 00
        E 0 80 4b 00
        E 0 80 33 00
        E 0 80 1b 00
        E 360 90 63 67
        E 0 90 4b 67
        E 0 90 33 67
        E 0 90 1b 67
        E 120 80 63 00
        E 0 80 4b 00
        E 0 80 33 00
        E 0 80 1b 00
        E 360 90 63 68
        E 0 90 4b 68
        E 0 90 33 68
        E 0 90 1b 68
        E 960 80 74 00
        E 0 80 63 00
        E 0 80 4b 00
        E 0 80 33 00
        E 0 80 1b 00
        E 480 90 63 67
        E 0 90 4b 67
        E 0 90 33 67
        E 0 90 1b 67
        E 120 80 63 00
        E 0 80 4b 00
        E 0 80 33 00
        E 0 80 1b 00
        E 120 90 63 68
        E 0 90 66 64
        E 0 90 4b 68
        E 0 90 4e 64
        E 120 80 63 00
        E 0 80 66 00
        E 0 80 4b 00
        E 0 80 4e 00
        E 120 90 63 68
        E 0 90 4b 68
        E 0 90 33 68
        E 0 90 1b 68
        E 120 80 63 00
        E 0 80 4b 00
        E 0 80 33 00
        E 0 80 1b 00
        E 360 90 63 67
        E 0 90 4b 67
        E 0 90 33 67
        E 120 80 63 00
        E 0 80 4b 00
        E 0 80 33 00
        E 360 90 62 6a
        E 0 90 67 64
        E 0 90 4a 6a
        E 0 90 4f 64
        E 0 90 32 6a
        E 0 90 37 64
        E 0 90 1a 6a
        E 0 90 1f 64
        E 840 80 62 00
        E 0 80 67 00
        E 0 80 4a 00
        E 0 80 4f 00
        E 0 80 32 00
        E 0 80 37 00
        E 0 80 1a 00
        E 0 80 1f 00
        E 120 90 62 67
        E 0 90 4a 67
        E 0 90 32 67
        E 0 90 1a 67
        E 120 80 62 00
        E 0 80 4a 00
        E 0 80 32 00
        E 0 80 1a 00
        E 360 90 62 67
        E 0 90 4a 67
        E 0 90 32 67
        E 0 90 1a 67
        E 120 80 62 00
        E 0 80 4a 00
        E 0 80 32 00
        E 0 80 1a 00
        E 360 90 62 67
        E 0 90 4a 67
        E 0 90 32 67
        E 0 90 1a 67
        E 120 80 62 00
        E 0 80 4a 00
        E 0 80 32 00
        E 0 80 1a 00
        E 360 90 62 67
        E 0 90 4a 67
        E 0 90 32 67
        E 0 90 1a 67
        E 120 80 62 00
        E 0 80 4a 00
        E 0 80 32 00
        E 0 80 1a 00
        E 360 90 62 67
        E 0 90 4a 67
        E 0 90 32 67
        E 0 90 1a 67
        E 120 80 62 00
        E 0 80 4a 00
        E 0 80 32 00
        E 0 80 1a 00
        E 360 90 62 67
        E 0 90 4a 67
        E 0 90 32 67
        E 0 90 1a 67
        E 120 80 62 00
        E 0 80 4a 00
        E 0 80 32 00
        E 0 80 1a 00
        E 360 90 62 67
        E 0 90 4a 67
        E 0 90 32 67
        E 0 90 1a 67
        E 120 80 62 00
        E 0 80 4a 00
        E 0 80 32 00
        E 0 80 1a 00
        E 840 90 63 68
        E 0 90 6c 67
        E 0 90 4b 68
        E 0 90 33 68
        E 0 90 1b 68
        E 120 80 6c 00
        E 480 80 63 00
        E 0 80 4b 00
        E 0 80 33 00
        E 0 80 1b 00
        E 120 90 63 68
        E 0 90 4b 68
        E 0 90 33 68
        E 120 80 63 00
        E 0 80 4b 00
        E 0 80 33 00
        E 120 90 63 68
        E 0 90 4b 68
        E 0 90 33 68
        E 0 90 1b 68
        E 120 80 63 00
        E 0 80 4b 00
        E 0 80 33 00
        E 0 80 1b 00
        E 600 90 63 68
        E 0 90 4b 68
        E 0 90 33 68
        E 120 80 63 00
        E 0 80 4b 00
        E 0 80 33 00
        E 120 90 63 68
        E 0 90 4b 68
        E 0 90 33 68
        E 0 90 1b 68
        E 600 80 63 00
        E 0 80 4b 00
        E 0 80 33 00
        E 0 80 1b 00
        E 120 90 63 68
        E 0 90 4b 68
        E 0 90 33 68
        E 120 80 63 00
        E 0 80 4b 00
        E 0 80 33 00
        E 120 90 63 68
        E 0 90 4b 68
        E 0 90 33 68
        E 0 90 1b 68
        E 120 80 63 00
        E 0 80 4b 00
        E 0 80 33 00
        E 0 80 1b 00
        E 360 90 63 68
        E 0 90 4b 68
        E 0 90 33 68
        E 0 90 1b 68
        E 120 80 63 00
        E 0 80 4b 00
        E 0 80 33 00
        E 0 80 1b 00
        E 360 90 63 67
        E 0 90 4b 67
        E 0 90 33 67
        E 0 90 1b 67
        E 120 80 63 00
        E 0 80 4b 00
        E 0 80 33 00
        E 0 80 1b 00
        E 360 90 63 67
        E 0 90 4b 67
        E 0 90 33 67
        E 0 90 1b 67
        E 120 80 63 00
        E 0 80 4b 00
        E 0 80 33 00
        E 0 80 1b 00
        E 360 90 63 67
        E 0 90 4b 67
        E 0 90 33 67
        E 0 90 1b 67
        E 120 80 63 00
        E 0 80 4b 00
        E 0 80 33 00
        E 0 80 1b 00
        E 360 90 63 67
        E 0 90 4b 67
        E 0 90 33 67
        E 0 90 1b 67
        E 120 80 63 00
        E 0 80 4b 00
        E 0 80 33 00
        E 0 80 1b 00
        E 360 90 63 67
        E 0 90 4b 67
        E 0 90 33 67
        E 0 90 1b 67
        E 120 80 63 00
        E 0 80 4b 00
        E 0 80 33 00
        E 0 80 1b 00
        E 360 90 63 67
        E 0 90 4b 67
        E 0 90 33 67
        E 0 90 1b 67
        E 120 80 63 00
        E 0 80 4b 00
        E 0 80 33 00
        E 0 80 1b 00
        E 360 90 63 67
        E 0 90 4b 67
        E 0 90 33 67
        E 0 90 1b 67
        E 120 80 63 00
        E 0 80 4b 00
        E 0 80 33 00
        E 0 80 1b 00
        E 360 90 63 67
        E 0 90 4b 67
        E 0 90 33 67
        E 0 90 1b 67
        E 120 80 63 00
        E 0 80 4b 00
        E 0 80 33 00
        E 0 80 1b 00
        E 360 90 63 68
        E 0 90 4b 68
        E 0 90 33 68
        E 0 90 1b 68
        E 960 80 63 00
        E 0 80 4b 00
        E 0 80 33 00
        E 0 80 1b 00
        E 480 90 63 6a
        E 0 90 6c 6a
        E 0 90 4b 6a
        E 0 90 33 6a
        E 0 90 1b 6a
        E 120 80 63 00
        E 0 80 6c 00
        E 0 80 4b 00
        E 0 80 33 00
        E 0 90 63 6c
        E 0 90 66 64
        E 0 80 1b 00
        E 720 80 63 00
        E 0 80 66 00
        E 120 90 63 6a
        E 0 90 4b 6a
        E 0 90 33 6a
        E 0 90 1b 6a
        E 120 80 63 00
        E 0 80 4b 00
        E 0 80 33 00
        E 0 80 1b 00
        E 360 90 62 6d
        E 0 90 4a 6d
        E 0 90 32 6d
        E 0 90 1a 6d
        E 600 80 62 00
        E 0 80 4a 00
        E 0 80 32 00
        E 0 80 1a 00
        E 120 90 62 6c
        E 0 90 66 64
        E 0 90 4a 6c
        E 0 90 4e 64
        E 0 90 32 6c
        E 0 90 36 64
        E 120 80 62 00
        E 0 80 66 00
        E 0 80 4a 00
        E 0 80 4e 00
        E 0 80 32 00
        E 0 80 36 00
        E 120 90 62 6c
        E 0 90 4a 6c
        E 0 90 32 6c
        E 0 90 1a 6c
        E 120 80 62 00
        E 0 80 4a 00
        E 0 80 32 00
        E 0 80 1a 00
        E 360 90 62 6c
        E 0 90 4a 6c
        E 0 90 32 6c
        E 0 90 1a 6c
        E 120 80 62 00
        E 0 80 4a 00
        E 0 80 32 00
        E 0 80 1a 00
        E 360 90 62 6c
        E 0 90 4a 6c
        E 0 90 32 6c
        E 0 90 1a 6c
        E 120 80 62 00
        E 0 80 4a 00
        E 0 80 32 00
        E 0 80 1a 00
        E 360 90 62 6c
        E 0 90 4a 6c
        E 0 90 32 6c
        E 0 90 1a 6c
        E 120 80 62 00
        E 0 80 4a 00
        E 0 80 32 00
        E 0 80 1a 00
        E 360 90 62 6c
        E 0 90 4a 6c
        E 0 90 32 6c
        E 0 90 1a 6c
        E 120 80 62 00
        E 0 80 4a 00
        E 0 80 32 00
        E 0 80 1a 00
        E 360 90 62 6c
        E 0 90 4a 6c
        E 0 90 32 6c
        E 0 90 1a 6c
        E 120 80 62 00
        E 0 80 4a 00
        E 0 80 32 00
        E 0 80 1a 00
        E 360 90 62 6c
        E 0 90 4a 6c
        E 0 90 32 6c
        E 0 90 1a 6c
        E 120 80 62 00
        E 0 80 4a 00
        E 0 80 32 00
        E 0 80 1a 00
        E 840 90 63 68
        E 0 90 6c 67
        E 0 90 4b 68
        E 0 90 33 68
        E 0 90 1b 68
        E 120 80 6c 00
        E 840 80 63 00
        E 0 80 4b 00
        E 0 80 33 00
        E 0 80 1b 00
        E 480 90 63 68
        E 0 90 4b 68
        E 0 90 33 68
        E 0 90 1b 68
        E 120 80 63 00
        E 0 80 4b 00
        E 0 80 33 00
        E 0 80 1b 00
        E 120 90 63 68
        E 0 90 4b 68
        E 0 90 33 68
        E 120 80 63 00
        E 0 80 4b 00
        E 0 80 33 00
        E 120 90 63 68
        E 0 90 4b 68
        E 0 90 33 68
        E 0 90 1b 68
        E 120 80 63 00
        E 0 80 4b 00
        E 0 80 33 00
        E 0 80 1b 00
        E 360 90 63 68
        E 0 90 4b 68
        E 0 90 33 68
        E 0 90 1b 68
        E 120 80 63 00
        E 0 80 4b 00
        E 0 80 33 00
        E 0 80 1b 00
        E 360 90 63 68
        E 0 90 4b 68
        E 0 90 33 68
        E 0 90 1b 68
        E 120 80 63 00
        E 0 80 4b 00
        E 0 80 33 00
        E 0 80 1b 00
        E 360 90 63 68
        E 0 90 4b 68
        E 0 90 33 68
        E 0 90 1b 68
        E 120 80 63 00
        E 0 80 4b 00
        E 0 80 33 00
        E 0 80 1b 00
        E 360 90 63 67
        E 0 90 4b 67
        E 0 90 33 67
        E 0 90 1b 67
        E 120 80 63 00
        E 0 80 4b 00
        E 0 80 33 00
        E 0 80 1b 00
        E 360 90 63 67
        E 0 90 4b 67
        E 0 90 33 67
        E 0 90 1b 67
        E 120 80 63 00
        E 0 80 4b 00
        E 0 80 33 00
        E 0 80 1b 00
        E 360 90 63 67
        E 0 90 4b 67
        E 0 90 33 67
        E 0 90 1b 67
        E 120 80 63 00
        E 0 80 4b 00
        E 0 80 33 00
        E 0 80 1b 00
        E 360 90 63 67
        E 0 90 4b 67
        E 0 90 33 67
        E 0 90 1b 67
        E 120 80 63 00
        E 0 80 4b 00
        E 0 80 33 00
        E 0 80 1b 00
        E 360 90 63 67
        E 0 90 4b 67
        E 0 90 33 67
        E 0 90 1b 67
        E 120 80 63 00
        E 0 80 4b 00
        E 0 80 33 00
        E 0 80 1b 00
        E 360 90 63 67
        E 0 90 4b 67
        E 0 90 33 67
        E 0 90 1b 67
        E 120 80 63 00
        E 0 80 4b 00
        E 0 80 33 00
        E 0 80 1b 00
        E 360 90 62 68
        E 0 90 6c 68
        E 0 90 4a 68
        E 0 90 32 68
        E 0 90 1a 68
        E 120 80 62 00
        E 0 80 6c 00
        E 0 80 4a 00
        E 0 80 32 00
        E 0 80 1a 00
        E 120 90 61 68
        E 0 90 49 68
        E 120 80 61 00
        E 0 80 49 00
        E 120 90 61 6a
        E 0 90 49 6a
        E 0 90 31 6a
        E 120 80 61 00
        E 0 80 49 00
        E 0 80 31 00
        E 120 90 62 68
        E 0 90 4a 68
        E 120 80 62 00
        E 0 80 4a 00
        E 120 90 62 6a
        E 0 90 4a 6a
        E 0 90 32 6a
        E 0 90 1a 6a
        E 0 9b 67 64
        E 0 9b 4f 64
        E 0 9b 37 64
        E 0 9b 1f 64
        E 960 80 62 00
        E 0 80 4a 00
        E 0 80 32 00
        E 0 80 1a 00
        E 0 8b 67 00
        E 0 8b 4f 00
        E 0 8b 37 00
        E 0 8b 1f 00
        E 480 90 63 6a
        E 0 90 6c 6a
        E 0 90 4b 6a
        E 0 90 33 6a
        E 120 80 63 00
        E 0 80 6c 00
        E 0 80 4b 00
        E 0 80 33 00
        E 0 90 63 6c
        E 0 90 66 64
        E 720 80 63 00
        E 0 80 66 00
        E 120 90 63 6a
        E 0 90 4b 6a
        E 0 90 33 6a
        E 0 90 1b 6a
        E 120 80 63 00
        E 0 80 4b 00
        E 0 80 33 00
        E 0 80 1b 00
        E 360 90 62 6a
        E 0 90 4a 6a
        E 0 90 32 6a
        E 0 90 1a 6a
        E 120 80 62 00
        E 0 80 4a 00
        E 0 80 32 00
        E 0 80 1a 00
        E 360 90 63 67
        E 0 90 6c 67
        E 0 90 4b 67
        E 0 90 33 67
        E 120 80 63 00
        E 0 80 6c 00
        E 0 80 4b 00
        E 0 80 33 00
        E 360 90 62 68
        E 0 90 4a 68
        E 0 90 32 68
        E 0 90 1a 68
        E 120 80 62 00
        E 0 80 4a 00
        E 0 80 32 00
        E 0 80 1a 00
        E 360 90 62 68
        E 0 90 4a 68
        E 0 90 32 68
        E 0 90 1a 68
        E 120 80 62 00
        E 0 80 4a 00
        E 0 80 32 00
        E 0 80 1a 00
        E 360 90 62 68
        E 0 90 4a 68
        E 0 90 32 68
        E 0 90 1a 68
        E 120 80 62 00
        E 0 80 4a 00
        E 0 80 32 00
        E 0 80 1a 00
        E 360 90 62 68
        E 0 90 4a 68
        E 0 90 32 68
        E 0 90 1a 68
        E 120 80 62 00
        E 0 80 4a 00
        E 0 80 32 00
        E 0 80 1a 00
        E 360 90 62 68
        E 0 90 4a 68
        E 0 90 32 68
        E 0 90 1a 68
        E 120 80 62 00
        E 0 80 4a 00
        E 0 80 32 00
        E 0 80 1a 00
        E 9479 b0 7b 00
        GUID {CBD80080-F254-4E1C-ABA3-EFB0BE11DD36}
        IGNTEMPO 0 120.00000000 4 4
        SRCCOLOR 17
        VELLANE 132 128 60
        COLORMAP "C:\Program Files\REAPER (x64)\Data\color_maps\rockband_guitarbass.png"
        CFGEDITVIEW -18003.291676 4.553455 18 12 0 0 0
        CFGEDIT 1 1 0 1 1 0 1 1 1 1 1 0.25000000 -8 -8 1544 872 0 2 1 1 0.00000000 0 1 1 0 0.500000 0 0 1.000000 64
        KEYSNAP 0 6 "102030050700" 0 "Pentatonic"
        EVTFILTER 0 -1 -1 -1 -1 0 1 0 0 -1.00000000 -1.00000000
      >
    >
  >
  <TRACK '{7D41097F-B69A-45FC-988F-F25979FB4F69}'
    NAME "PART REAL_GUITAR"
    PEAKCOL 16576
    BEAT -1
    AUTOMODE 0
    VOLPAN 1.00000000000000 0.00000000000000 -1.00000000000000 -1.00000000000000 1.00000000000000
    MUTESOLO 0 0 0
    IPHASE 0
    ISBUS 0 0
    BUSCOMP 0 0
    SHOWINMIX 1 0.666700 0.500000 1 0.500000 -1 -1 -1
    FREEMODE 0
    SEL 0
    REC 0 0 0 0 0 0 0
    VU 2
    TRACKHEIGHT 0 0
    INQ 0 0 0 0.5000000000 100 0 0 100
    NCHAN 2
    FX 1
    TRACKID {7D41097F-B69A-45FC-988F-F25979FB4F69}
    PERF 0
    MIDIOUT -1
    <MIDINOTENAMES
      0 127 "Trill Marker"
      0 126 "Tremolo Marker"
      0 125 "BRE"
      0 124 "BRE"
      0 123 "BRE"
      0 122 "BRE"
      0 121 "BRE"
      0 120 "BRE (use all 6)"
      0 119 "-----------"
      0 116 "OVERDRIVE"
      0 115 "Solo Marker"
      0 109 "-----------"
      0 108 "Fret Hand Position"
      0 107 "Force Chord Numbering"
      0 106 "Loose Strumming"
      0 105 "Strum Direction"
      0 104 "Arpeggio Marker"
      0 103 "Slide Marker"
      0 102 "Force HOPO"
      0 101 "EXPERT e String"
      0 100 "EXPERT B String"
      0 99 "EXPERT G String"
      0 98 "EXPERT D String"
      0 97 "EXPERT A String"
      0 96 "EXPERT E String"
      0 95 "-----------"
      0 82 "Loose Strumming"
      0 81 "Strum Direction"
      0 80 "Arpeggio Marker"
      0 79 "Slide Marker"
      0 78 "Force HOPO"
      0 77 "HARD e String"
      0 76 "HARD B String"
      0 75 "HARD G String"
      0 74 "HARD D String"
      0 73 "HARD A String"
      0 72 "HARD E String"
      0 71 "-----------"
      0 58 "Loose Strumming"
      0 56 "Arpeggio Marker"
      0 55 "Slide Marker"
      0 53 "MEDIUM e String"
      0 52 "MEDIUM B String"
      0 51 "MEDIUM G String"
      0 50 "MEDIUM D String"
      0 49 "MEDIUM A String"
      0 48 "MEDIUM E String"
      0 47 "-----------"
      0 32 "Arpeggio Marker"
      0 31 "Slide Marker"
      0 29 "EASY e String"
      0 28 "EASY B String"
      0 27 "EASY G String"
      0 26 "EASY D String"
      0 25 "EASY A String"
      0 24 "EASY E String"
      0 21 "-----------"
      0 18 "Flat/Sharp Swap"
      0 17 "Hide Chord Names"
      0 16 "Slash Chord"
      0 15 "D#"
      0 14 "D"
      0 13 "C#"
      0 12 "C"
      0 11 "B"
      0 10 "A#"
      0 9 "A"
      0 8 "G#"
      0 7 "G"
      0 6 "F#"
      0 5 "F"
      0 4 "E"
    >
    MAINSEND 1 0
    <FXCHAIN
      WNDRECT 0 43 655 467
      SHOW 0
      LASTSEL 1
      DOCKED 0
      BYPASS 0 0
      <JS "c3/progtr" ""
        0.000000 3.000000 0.000000 0.000000 0.000000 0.000000 0.000000 0.000000 0.000000 1.000000 - - - - - - - - - - - - - - - - - - - - - - - - - - - - - - - - - - - - - - - - - - - - - - - - - - - - - - 
      >
      FLOATPOS 0 0 0 0
      FXID {83F6FA41-83CB-456F-B38E-EB46C8760AF0}
      WAK 0
      BYPASS 0 0
      <VST "VSTi: ReaSynth (Cockos)" "reasynth.dll" 0 ""
        eXNlcu9e7f4AAAAAAgAAAAEAAAAAAAAAAgAAAAAAAAA4AAAAAAAAAA==
        AAAQAO++rd4N8K3eppvEO+gJMjyHFlk/AAAAAAAAAADMm4A+4jAEPA==
        AAAAAAAAAD+01hM+j8L1PQAAAD8AABAAAAA=
      >
      FLOATPOS 0 0 0 0
      FXID {C3D1EA78-33A9-4D05-9093-858E2DBCC522}
      WAK 0
    >
    <ITEM
      POSITION 0.00000000000000
      SNAPOFFS 0.00000000000000
      LENGTH 276.11399999999998
      LOOP 0
      ALLTAKES 0
      SEL 0
      FADEIN 1 0.000000 0.000000 1 0
      FADEOUT 1 0.000000 0.000000 1 0
      MUTE 0
      IGUID {01929DC4-6DFD-4402-A703-21ADFC70A140}
      IID 16
      NAME "PART REAL_GUITAR"
      VOLPAN 1.000000 0.000000 1.000000 -1.000000
      SOFFS 0.00000000000000 0.00000000000000
      PLAYRATE 1.00000000000000 1 0.00000000000000 -1
      CHANMODE 0
      GUID {7A41E3D9-1BD5-48DA-8177-5FC24DE656E9}
      <SOURCE MIDI
        HASDATA 1 480 QN
        POOLEDEVTS {1374742F-8EF1-4B85-96E0-6A0E7F968114}
        <X 0 0
          /wNQQVJUIFJFQUxfR1VJVEFS
        >
        <X 5280 0
          /wFbYmVnaW5fcGcgc29uZ190cmFpbmVyX3BnXzFd
        >
        E 0 90 06 64
        E 0 90 62 68
        E 0 90 63 67
        E 0 90 6b 64
        E 0 90 6c 67
        E 0 90 4a 68
        E 0 90 4b 67
        E 0 90 32 68
        E 0 90 33 67
        E 120 80 06 00
        E 0 80 62 00
        E 0 80 63 00
        E 0 80 6c 00
        E 0 80 4a 00
        E 0 80 4b 00
        E 0 80 32 00
        E 0 80 33 00
        E 360 90 08 64
        E 0 90 62 6a
        E 0 90 63 68
        E 0 90 6c 68
        E 0 90 4a 6a
        E 0 90 4b 68
        E 0 90 32 6a
        E 0 90 33 68
        E 0 90 1a 6a
        E 0 90 1b 68
        E 0 9b 67 64
        E 0 9b 4f 64
        E 0 9b 37 64
        E 0 9b 1f 64
        E 120 80 08 00
        E 0 80 6c 00
        E 840 80 62 00
        E 0 80 63 00
        E 0 80 4a 00
        E 0 80 4b 00
        E 0 80 32 00
        E 0 80 33 00
        E 0 80 1a 00
        E 0 80 1b 00
        E 0 8b 67 00
        E 0 8b 4f 00
        E 0 8b 37 00
        E 0 8b 1f 00
        <X 480 0
          /wFbcGdfbm9ybSBzb25nX3RyYWluZXJfcGdfMV0=
        >
        E 0 90 0d 64
        E 0 90 63 6a
        E 0 90 64 6a
        E 0 90 6c 6a
        E 0 90 4b 6a
        E 0 90 4c 6a
        E 0 90 33 6a
        E 0 90 34 6a
        E 120 80 0d 00
        E 0 80 63 00
        E 0 80 64 00
        E 0 80 6c 00
        E 0 80 4b 00
        E 0 80 4c 00
        E 0 80 33 00
        E 0 80 34 00
        E 0 90 0f 64
        E 0 90 63 6c
        E 0 90 64 6b
        E 0 90 66 64
        E 0 90 6c 6b
        E 120 80 0f 00
        E 0 80 6c 00
        E 600 80 63 00
        E 0 80 64 00
        E 0 80 66 00
        E 120 90 0d 64
        E 0 90 63 6a
        E 0 90 64 6a
        E 0 90 6c 6a
        E 0 90 4b 6a
        E 0 90 4c 6a
        E 0 90 33 6a
        E 0 90 34 6a
        E 120 80 0d 00
        E 0 80 63 00
        E 0 80 64 00
        E 0 80 6c 00
        E 0 80 4b 00
        E 0 80 4c 00
        E 0 80 33 00
        E 0 80 34 00
        E 360 90 0b 64
        E 0 90 63 68
        E 0 90 64 68
        E 0 90 6c 68
        E 0 90 4b 68
        E 0 90 4c 68
        E 0 90 33 68
        E 0 90 34 68
        E 0 90 1b 68
        E 0 90 1c 68
        E 120 80 0b 00
        E 0 80 63 00
        E 0 80 64 00
        E 0 80 6c 00
        E 0 80 4b 00
        E 0 80 4c 00
        E 0 80 33 00
        E 0 80 34 00
        E 0 80 1b 00
        E 0 80 1c 00
        E 360 90 0d 64
        E 0 90 63 6a
        E 0 90 64 6a
        E 0 90 6c 6a
        E 0 90 4b 6a
        E 0 90 4c 6a
        E 0 90 33 6a
        E 0 90 34 6a
        E 120 80 0d 00
        E 0 80 63 00
        E 0 80 64 00
        E 0 80 6c 00
        E 0 80 4b 00
        E 0 80 4c 00
        E 0 80 33 00
        E 0 80 34 00
        E 360 90 0a 64
        E 0 90 63 67
        E 0 90 64 66
        E 0 90 6c 66
        E 0 90 4b 67
        E 0 90 4c 66
        E 0 90 33 67
        E 0 90 34 66
        E 0 90 1b 67
        E 0 90 1c 66
        E 120 80 0a 00
        E 0 80 63 00
        E 0 80 64 00
        E 0 80 6c 00
        E 0 80 4b 00
        E 0 80 4c 00
        E 0 80 33 00
        E 0 80 34 00
        E 0 80 1b 00
        E 0 80 1c 00
        E 120 90 0b 64
        E 0 90 63 68
        E 0 90 64 68
        E 0 90 66 64
        E 0 90 6c 68
        E 0 90 4b 68
        E 0 90 4c 68
        E 0 90 4e 64
        E 120 80 0b 00
        E 0 80 63 00
        E 0 80 64 00
        E 0 80 6c 00
        E 0 80 4b 00
        E 0 80 4c 00
        E 120 90 0a 64
        E 0 90 63 67
        E 0 90 64 66
        E 0 90 6c 66
        E 0 90 4b 67
        E 0 90 4c 66
        E 0 90 33 67
        E 0 90 34 66
        E 120 80 66 00
        E 0 80 4e 00
        E 0 80 0a 00
        E 0 80 63 00
        E 0 80 64 00
        E 0 80 6c 00
        E 0 80 4b 00
        E 0 80 4c 00
        E 0 80 33 00
        E 0 80 34 00
        E 360 90 06 64
        E 0 90 62 68
        E 0 90 63 67
        E 0 90 6c 67
        E 0 90 4a 68
        E 0 90 4b 67
        E 0 90 32 68
        E 0 90 33 67
        E 0 90 1a 68
        E 0 90 1b 67
        E 120 80 06 00
        E 0 80 6c 00
        E 2160 80 6b 00
        E 0 80 62 00
        E 0 80 63 00
        E 0 80 4a 00
        E 0 80 4b 00
        E 0 80 32 00
        E 0 80 33 00
        E 0 80 1a 00
        E 0 80 1b 00
        <X 120 0
          /wFbZW5kX3BnIHNvbmdfdHJhaW5lcl9wZ18xXQ==
        >
        E 0 90 06 64
        E 0 90 62 68
        E 0 90 63 67
        E 0 90 6c 67
        E 0 90 4a 68
        E 0 90 4b 67
        E 0 90 32 68
        E 0 90 33 67
        E 120 80 06 00
        E 0 80 62 00
        E 0 80 63 00
        E 0 80 6c 00
        E 0 80 4a 00
        E 0 80 4b 00
        E 0 80 32 00
        E 0 80 33 00
        E 360 90 08 64
        E 0 90 62 6a
        E 0 90 63 68
        E 0 90 6c 68
        E 0 90 4a 6a
        E 0 90 4b 68
        E 0 90 32 6a
        E 0 90 33 68
        E 0 90 1a 6a
        E 0 90 1b 68
        E 0 9b 67 64
        E 0 9b 4f 64
        E 0 9b 37 64
        E 0 9b 1f 64
        E 120 80 08 00
        E 0 80 6c 00
        E 840 80 62 00
        E 0 80 63 00
        E 0 80 4a 00
        E 0 80 4b 00
        E 0 80 32 00
        E 0 80 33 00
        E 0 80 1a 00
        E 0 80 1b 00
        E 0 8b 67 00
        E 0 8b 4f 00
        E 0 8b 37 00
        E 0 8b 1f 00
        E 480 90 0d 64
        E 0 90 63 6a
        E 0 90 64 6a
        E 0 90 6c 6a
        E 0 90 4b 6a
        E 0 90 4c 6a
        E 0 90 33 6a
        E 0 90 34 6a
        E 120 80 0d 00
        E 0 80 63 00
        E 0 80 64 00
        E 0 80 6c 00
        E 0 80 4b 00
        E 0 80 4c 00
        E 0 80 33 00
        E 0 80 34 00
        E 0 90 0f 64
        E 0 90 63 6c
        E 0 90 64 6b
        E 0 90 66 64
        E 0 90 6c 6b
        E 120 80 0f 00
        E 0 80 6c 00
        E 600 80 63 00
        E 0 80 64 00
        E 0 80 66 00
        E 120 90 0d 64
        E 0 90 63 6a
        E 0 90 64 6a
        E 0 90 6c 6a
        E 0 90 4b 6a
        E 0 90 4c 6a
        E 0 90 33 6a
        E 0 90 34 6a
        E 120 80 0d 00
        E 0 80 63 00
        E 0 80 64 00
        E 0 80 6c 00
        E 0 80 4b 00
        E 0 80 4c 00
        E 0 80 33 00
        E 0 80 34 00
        E 360 90 0b 64
        E 0 90 63 68
        E 0 90 64 68
        E 0 90 6c 68
        E 0 90 4b 68
        E 0 90 4c 68
        E 0 90 33 68
        E 0 90 34 68
        E 0 90 1b 68
        E 0 90 1c 68
        E 120 80 0b 00
        E 0 80 63 00
        E 0 80 64 00
        E 0 80 6c 00
        E 0 80 4b 00
        E 0 80 4c 00
        E 0 80 33 00
        E 0 80 34 00
        E 0 80 1b 00
        E 0 80 1c 00
        E 360 90 0d 64
        E 0 90 63 6a
        E 0 90 64 6a
        E 0 90 6c 6a
        E 0 90 4b 6a
        E 0 90 4c 6a
        E 0 90 33 6a
        E 0 90 34 6a
        E 120 80 0d 00
        E 0 80 63 00
        E 0 80 64 00
        E 0 80 6c 00
        E 0 80 4b 00
        E 0 80 4c 00
        E 0 80 33 00
        E 0 80 34 00
        E 360 90 0a 64
        E 0 90 63 67
        E 0 90 64 66
        E 0 90 6c 66
        E 0 90 4b 67
        E 0 90 4c 66
        E 0 90 33 67
        E 0 90 34 66
        E 0 90 1b 67
        E 0 90 1c 66
        E 120 80 0a 00
        E 0 80 63 00
        E 0 80 64 00
        E 0 80 6c 00
        E 0 80 4b 00
        E 0 80 4c 00
        E 0 80 33 00
        E 0 80 34 00
        E 0 80 1b 00
        E 0 80 1c 00
        E 120 90 0b 64
        E 0 90 63 68
        E 0 90 64 68
        E 0 90 66 64
        E 0 90 6c 68
        E 0 90 4b 68
        E 0 90 4c 68
        E 0 90 4e 64
        E 120 80 0b 00
        E 0 80 63 00
        E 0 80 64 00
        E 0 80 6c 00
        E 0 80 4b 00
        E 0 80 4c 00
        E 120 90 0a 64
        E 0 90 63 67
        E 0 90 64 66
        E 0 90 6c 66
        E 0 90 4b 67
        E 0 90 4c 66
        E 0 90 33 67
        E 0 90 34 66
        E 120 80 66 00
        E 0 80 4e 00
        E 0 80 0a 00
        E 0 80 63 00
        E 0 80 64 00
        E 0 80 6c 00
        E 0 80 4b 00
        E 0 80 4c 00
        E 0 80 33 00
        E 0 80 34 00
        E 360 90 06 64
        E 0 90 62 68
        E 0 90 63 67
        E 0 90 6c 67
        E 0 90 4a 68
        E 0 90 4b 67
        E 0 90 32 68
        E 0 90 33 67
        E 0 90 1a 68
        E 0 90 1b 67
        E 120 80 06 00
        E 0 80 6c 00
        E 2160 80 62 00
        E 0 80 63 00
        E 0 80 4a 00
        E 0 80 4b 00
        E 0 80 32 00
        E 0 80 33 00
        E 0 80 1a 00
        E 0 80 1b 00
        E 120 90 06 64
        E 0 90 62 68
        E 0 90 63 67
        E 0 90 6c 67
        E 0 90 4a 68
        E 0 90 4b 67
        E 0 90 32 68
        E 0 90 33 67
        E 120 80 06 00
        E 0 80 62 00
        E 0 80 63 00
        E 0 80 6c 00
        E 0 80 4a 00
        E 0 80 4b 00
        E 0 80 32 00
        E 0 80 33 00
        E 360 90 08 64
        E 0 90 62 6a
        E 0 90 63 68
        E 0 90 6c 68
        E 0 90 4a 6a
        E 0 90 4b 68
        E 0 90 32 6a
        E 0 90 33 68
        E 0 90 1a 6a
        E 0 90 1b 68
        E 0 9b 67 64
        E 0 9b 4f 64
        E 0 9b 37 64
        E 0 9b 1f 64
        E 120 80 08 00
        E 0 80 6c 00
        E 840 80 62 00
        E 0 80 63 00
        E 0 80 4a 00
        E 0 80 4b 00
        E 0 80 32 00
        E 0 80 33 00
        E 0 80 1a 00
        E 0 80 1b 00
        E 0 8b 67 00
        E 0 8b 4f 00
        E 0 8b 37 00
        E 0 8b 1f 00
        E 480 90 0d 64
        E 0 90 63 6a
        E 0 90 64 6a
        E 0 90 6c 6a
        E 0 90 74 64
        E 0 90 4b 6a
        E 0 90 4c 6a
        E 0 90 33 6a
        E 0 90 34 6a
        E 120 80 0d 00
        E 0 80 63 00
        E 0 80 64 00
        E 0 80 6c 00
        E 0 80 4b 00
        E 0 80 4c 00
        E 0 80 33 00
        E 0 80 34 00
        E 0 90 0f 64
        E 0 90 63 6c
        E 0 90 64 6b
        E 0 90 66 64
        E 0 90 6c 6b
        E 120 80 0f 00
        E 0 80 6c 00
        E 600 80 63 00
        E 0 80 64 00
        E 0 80 66 00
        E 120 90 0d 64
        E 0 90 63 6a
        E 0 90 64 6a
        E 0 90 6c 6a
        E 0 90 4b 6a
        E 0 90 4c 6a
        E 0 90 33 6a
        E 0 90 34 6a
        E 120 80 0d 00
        E 0 80 63 00
        E 0 80 64 00
        E 0 80 6c 00
        E 0 80 4b 00
        E 0 80 4c 00
        E 0 80 33 00
        E 0 80 34 00
        E 360 90 0b 64
        E 0 90 63 68
        E 0 90 64 68
        E 0 90 6c 68
        E 0 90 4b 68
        E 0 90 4c 68
        E 0 90 33 68
        E 0 90 34 68
        E 0 90 1b 68
        E 0 90 1c 68
        E 120 80 0b 00
        E 0 80 63 00
        E 0 80 64 00
        E 0 80 6c 00
        E 0 80 4b 00
        E 0 80 4c 00
        E 0 80 33 00
        E 0 80 34 00
        E 0 80 1b 00
        E 0 80 1c 00
        E 360 90 0d 64
        E 0 90 63 6a
        E 0 90 64 6a
        E 0 90 6c 6a
        E 0 90 4b 6a
        E 0 90 4c 6a
        E 0 90 33 6a
        E 0 90 34 6a
        E 120 80 0d 00
        E 0 80 63 00
        E 0 80 64 00
        E 0 80 6c 00
        E 0 80 4b 00
        E 0 80 4c 00
        E 0 80 33 00
        E 0 80 34 00
        E 360 80 74 00
        E 0 90 0a 64
        E 0 90 63 67
        E 0 90 64 66
        E 0 90 6c 66
        E 0 90 4b 67
        E 0 90 4c 66
        E 0 90 33 67
        E 0 90 34 66
        E 0 90 1b 67
        E 0 90 1c 66
        E 120 80 0a 00
        E 0 80 63 00
        E 0 80 64 00
        E 0 80 6c 00
        E 0 80 4b 00
        E 0 80 4c 00
        E 0 80 33 00
        E 0 80 34 00
        E 0 80 1b 00
        E 0 80 1c 00
        E 120 90 0b 64
        E 0 90 63 68
        E 0 90 64 68
        E 0 90 66 64
        E 0 90 6c 68
        E 0 90 4b 68
        E 0 90 4c 68
        E 0 90 4e 64
        E 120 80 0b 00
        E 0 80 63 00
        E 0 80 64 00
        E 0 80 6c 00
        E 0 80 4b 00
        E 0 80 4c 00
        E 120 90 0a 64
        E 0 90 63 67
        E 0 90 64 66
        E 0 90 6c 66
        E 0 90 4b 67
        E 0 90 4c 66
        E 0 90 33 67
        E 0 90 34 66
        E 120 80 66 00
        E 0 80 4e 00
        E 0 80 0a 00
        E 0 80 63 00
        E 0 80 64 00
        E 0 80 6c 00
        E 0 80 4b 00
        E 0 80 4c 00
        E 0 80 33 00
        E 0 80 34 00
        E 360 90 06 64
        E 0 90 62 68
        E 0 90 63 67
        E 0 90 6c 67
        E 0 90 4a 68
        E 0 90 4b 67
        E 0 90 32 68
        E 0 90 33 67
        E 0 90 1a 68
        E 0 90 1b 67
        E 120 80 06 00
        E 0 80 6c 00
        E 2160 80 62 00
        E 0 80 63 00
        E 0 80 4a 00
        E 0 80 4b 00
        E 0 80 32 00
        E 0 80 33 00
        E 0 80 1a 00
        E 0 80 1b 00
        E 120 90 06 64
        E 0 90 62 68
        E 0 90 63 67
        E 0 90 6c 67
        E 0 90 4a 68
        E 0 90 4b 67
        E 0 90 32 68
        E 0 90 33 67
        E 120 80 06 00
        E 0 80 62 00
        E 0 80 63 00
        E 0 80 6c 00
        E 0 80 4a 00
        E 0 80 4b 00
        E 0 80 32 00
        E 0 80 33 00
        E 360 90 08 64
        E 0 90 62 6a
        E 0 90 63 68
        E 0 90 6c 68
        E 0 90 4a 6a
        E 0 90 4b 68
        E 0 90 32 6a
        E 0 90 33 68
        E 0 90 1a 6a
        E 0 90 1b 68
        E 0 9b 67 64
        E 0 9b 4f 64
        E 0 9b 37 64
        E 0 9b 1f 64
        E 120 80 08 00
        E 0 80 6c 00
        E 840 80 62 00
        E 0 80 63 00
        E 0 80 4a 00
        E 0 80 4b 00
        E 0 80 32 00
        E 0 80 33 00
        E 0 80 1a 00
        E 0 80 1b 00
        E 0 8b 67 00
        E 0 8b 4f 00
        E 0 8b 37 00
        E 0 8b 1f 00
        E 480 90 0d 64
        E 0 90 63 6a
        E 0 90 64 6a
        E 0 90 6c 6a
        E 0 90 4b 6a
        E 0 90 4c 6a
        E 0 90 33 6a
        E 0 90 34 6a
        E 120 80 0d 00
        E 0 80 63 00
        E 0 80 64 00
        E 0 80 6c 00
        E 0 80 4b 00
        E 0 80 4c 00
        E 0 80 33 00
        E 0 80 34 00
        E 0 90 0f 64
        E 0 90 63 6c
        E 0 90 64 6b
        E 0 90 66 64
        E 0 90 6c 6b
        E 120 80 0f 00
        E 0 80 6c 00
        E 600 80 63 00
        E 0 80 64 00
        E 0 80 66 00
        E 120 90 0d 64
        E 0 90 63 6a
        E 0 90 64 6a
        E 0 90 6c 6a
        E 0 90 4b 6a
        E 0 90 4c 6a
        E 0 90 33 6a
        E 0 90 34 6a
        E 120 80 0d 00
        E 0 80 63 00
        E 0 80 64 00
        E 0 80 6c 00
        E 0 80 4b 00
        E 0 80 4c 00
        E 0 80 33 00
        E 0 80 34 00
        E 360 90 0b 64
        E 0 90 63 68
        E 0 90 64 68
        E 0 90 6c 68
        E 0 90 4b 68
        E 0 90 4c 68
        E 0 90 33 68
        E 0 90 34 68
        E 0 90 1b 68
        E 0 90 1c 68
        E 120 80 0b 00
        E 0 80 63 00
        E 0 80 64 00
        E 0 80 6c 00
        E 0 80 4b 00
        E 0 80 4c 00
        E 0 80 33 00
        E 0 80 34 00
        E 0 80 1b 00
        E 0 80 1c 00
        E 360 90 0d 64
        E 0 90 63 6a
        E 0 90 64 6a
        E 0 90 6c 6a
        E 0 90 4b 6a
        E 0 90 4c 6a
        E 0 90 33 6a
        E 0 90 34 6a
        E 120 80 0d 00
        E 0 80 63 00
        E 0 80 64 00
        E 0 80 6c 00
        E 0 80 4b 00
        E 0 80 4c 00
        E 0 80 33 00
        E 0 80 34 00
        E 360 90 0a 64
        E 0 90 63 67
        E 0 90 64 66
        E 0 90 6c 66
        E 0 90 4b 67
        E 0 90 4c 66
        E 0 90 33 67
        E 0 90 34 66
        E 0 90 1b 67
        E 0 90 1c 66
        E 120 80 0a 00
        E 0 80 63 00
        E 0 80 64 00
        E 0 80 6c 00
        E 0 80 4b 00
        E 0 80 4c 00
        E 0 80 33 00
        E 0 80 34 00
        E 0 80 1b 00
        E 0 80 1c 00
        E 120 90 0b 64
        E 0 90 63 68
        E 0 90 64 68
        E 0 90 66 64
        E 0 90 6c 68
        E 0 90 4b 68
        E 0 90 4c 68
        E 0 90 4e 64
        E 120 80 0b 00
        E 0 80 63 00
        E 0 80 64 00
        E 0 80 6c 00
        E 0 80 4b 00
        E 0 80 4c 00
        E 120 90 0a 64
        E 0 90 63 67
        E 0 90 64 66
        E 0 90 6c 66
        E 0 90 4b 67
        E 0 90 4c 66
        E 0 90 33 67
        E 0 90 34 66
        E 120 80 66 00
        E 0 80 4e 00
        E 0 80 0a 00
        E 0 80 63 00
        E 0 80 64 00
        E 0 80 6c 00
        E 0 80 4b 00
        E 0 80 4c 00
        E 0 80 33 00
        E 0 80 34 00
        E 360 90 06 64
        E 0 90 62 68
        E 0 90 63 67
        E 0 90 6c 67
        E 0 90 4a 68
        E 0 90 4b 67
        E 0 90 32 68
        E 0 90 33 67
        E 0 90 1a 68
        E 0 90 1b 67
        E 120 80 06 00
        E 0 80 6c 00
        E 2160 80 62 00
        E 0 80 63 00
        E 0 80 4a 00
        E 0 80 4b 00
        E 0 80 32 00
        E 0 80 33 00
        E 0 80 1a 00
        E 0 80 1b 00
        E 120 90 06 64
        E 0 90 62 68
        E 0 90 63 67
        E 0 90 6c 67
        E 0 90 4a 68
        E 0 90 4b 67
        E 0 90 32 68
        E 0 90 33 67
        E 120 80 06 00
        E 0 80 62 00
        E 0 80 63 00
        E 0 80 6c 00
        E 0 80 4a 00
        E 0 80 4b 00
        E 0 80 32 00
        E 0 80 33 00
        E 360 90 08 64
        E 0 90 62 6a
        E 0 90 63 68
        E 0 90 6c 68
        E 0 90 4a 6a
        E 0 90 4b 68
        E 0 90 32 6a
        E 0 90 33 68
        E 0 90 1a 6a
        E 0 90 1b 68
        E 0 9b 67 64
        E 0 9b 4f 64
        E 0 9b 37 64
        E 0 9b 1f 64
        E 120 80 08 00
        E 0 80 6c 00
        E 840 80 62 00
        E 0 80 63 00
        E 0 80 4a 00
        E 0 80 4b 00
        E 0 80 32 00
        E 0 80 33 00
        E 0 80 1a 00
        E 0 80 1b 00
        E 0 8b 67 00
        E 0 8b 4f 00
        E 0 8b 37 00
        E 0 8b 1f 00
        E 480 90 0d 64
        E 0 90 63 6a
        E 0 90 64 6a
        E 0 90 6c 6a
        E 0 90 4b 6a
        E 0 90 4c 6a
        E 0 90 33 6a
        E 0 90 34 6a
        E 120 80 0d 00
        E 0 80 63 00
        E 0 80 64 00
        E 0 80 6c 00
        E 0 80 4b 00
        E 0 80 4c 00
        E 0 80 33 00
        E 0 80 34 00
        E 0 90 0f 64
        E 0 90 63 6c
        E 0 90 64 6b
        E 0 90 66 64
        E 0 90 6c 6b
        E 120 80 0f 00
        E 0 80 6c 00
        E 600 80 63 00
        E 0 80 64 00
        E 0 80 66 00
        E 120 90 0d 64
        E 0 90 63 6a
        E 0 90 64 6a
        E 0 90 6c 6a
        E 0 90 4b 6a
        E 0 90 4c 6a
        E 0 90 33 6a
        E 0 90 34 6a
        E 120 80 0d 00
        E 0 80 63 00
        E 0 80 64 00
        E 0 80 6c 00
        E 0 80 4b 00
        E 0 80 4c 00
        E 0 80 33 00
        E 0 80 34 00
        E 360 90 0b 64
        E 0 90 63 68
        E 0 90 64 68
        E 0 90 6c 68
        E 0 90 4b 68
        E 0 90 4c 68
        E 0 90 33 68
        E 0 90 34 68
        E 0 90 1b 68
        E 0 90 1c 68
        E 120 80 0b 00
        E 0 80 63 00
        E 0 80 64 00
        E 0 80 6c 00
        E 0 80 4b 00
        E 0 80 4c 00
        E 0 80 33 00
        E 0 80 34 00
        E 0 80 1b 00
        E 0 80 1c 00
        E 360 90 0d 64
        E 0 90 63 6a
        E 0 90 64 6a
        E 0 90 6c 6a
        E 0 90 4b 6a
        E 0 90 4c 6a
        E 0 90 33 6a
        E 0 90 34 6a
        E 120 80 0d 00
        E 0 80 63 00
        E 0 80 64 00
        E 0 80 6c 00
        E 0 80 4b 00
        E 0 80 4c 00
        E 0 80 33 00
        E 0 80 34 00
        E 360 90 0a 64
        E 0 90 63 67
        E 0 90 64 66
        E 0 90 6c 66
        E 0 90 4b 67
        E 0 90 4c 66
        E 0 90 33 67
        E 0 90 34 66
        E 0 90 1b 67
        E 0 90 1c 66
        E 120 80 0a 00
        E 0 80 63 00
        E 0 80 64 00
        E 0 80 6c 00
        E 0 80 4b 00
        E 0 80 4c 00
        E 0 80 33 00
        E 0 80 34 00
        E 0 80 1b 00
        E 0 80 1c 00
        E 120 90 0b 64
        E 0 90 63 68
        E 0 90 64 68
        E 0 90 66 64
        E 0 90 6c 68
        E 0 90 4b 68
        E 0 90 4c 68
        E 0 90 4e 64
        E 120 80 0b 00
        E 0 80 63 00
        E 0 80 64 00
        E 0 80 6c 00
        E 0 80 4b 00
        E 0 80 4c 00
        E 120 90 0a 64
        E 0 90 63 67
        E 0 90 64 66
        E 0 90 6c 66
        E 0 90 4b 67
        E 0 90 4c 66
        E 0 90 33 67
        E 0 90 34 66
        E 120 80 66 00
        E 0 80 4e 00
        E 0 80 0a 00
        E 0 80 63 00
        E 0 80 64 00
        E 0 80 6c 00
        E 0 80 4b 00
        E 0 80 4c 00
        E 0 80 33 00
        E 0 80 34 00
        E 360 90 06 64
        E 0 90 62 68
        E 0 90 63 67
        E 0 90 6c 67
        E 0 90 4a 68
        E 0 90 4b 67
        E 0 90 32 68
        E 0 90 33 67
        E 0 90 1a 68
        E 0 90 1b 67
        E 120 80 06 00
        E 0 80 6c 00
        E 2160 80 62 00
        E 0 80 63 00
        E 0 80 4a 00
        E 0 80 4b 00
        E 0 80 32 00
        E 0 80 33 00
        E 0 80 1a 00
        E 0 80 1b 00
        E 120 90 06 64
        E 0 90 62 68
        E 0 90 63 67
        E 0 90 6c 67
        E 0 90 4a 68
        E 0 90 4b 67
        E 0 90 32 68
        E 0 90 33 67
        E 120 80 06 00
        E 0 80 62 00
        E 0 80 63 00
        E 0 80 6c 00
        E 0 80 4a 00
        E 0 80 4b 00
        E 0 80 32 00
        E 0 80 33 00
        E 360 90 08 64
        E 0 90 62 6a
        E 0 90 63 68
        E 0 90 6c 68
        E 0 90 4a 6a
        E 0 90 4b 68
        E 0 90 32 6a
        E 0 90 33 68
        E 0 90 1a 6a
        E 0 90 1b 68
        E 0 9b 67 64
        E 0 9b 4f 64
        E 0 9b 37 64
        E 0 9b 1f 64
        E 120 80 08 00
        E 0 80 6c 00
        E 840 80 62 00
        E 0 80 63 00
        E 0 80 4a 00
        E 0 80 4b 00
        E 0 80 32 00
        E 0 80 33 00
        E 0 80 1a 00
        E 0 80 1b 00
        E 0 8b 67 00
        E 0 8b 4f 00
        E 0 8b 37 00
        E 0 8b 1f 00
        E 480 90 0d 64
        E 0 90 63 6a
        E 0 90 64 6a
        E 0 90 6c 6a
        E 0 90 4b 6a
        E 0 90 4c 6a
        E 0 90 33 6a
        E 0 90 34 6a
        E 120 80 0d 00
        E 0 80 63 00
        E 0 80 64 00
        E 0 80 6c 00
        E 0 80 4b 00
        E 0 80 4c 00
        E 0 80 33 00
        E 0 80 34 00
        E 0 90 0f 64
        E 0 90 63 6c
        E 0 90 64 6b
        E 0 90 66 64
        E 0 90 6c 6b
        E 120 80 0f 00
        E 0 80 6c 00
        E 600 80 63 00
        E 0 80 64 00
        E 0 80 66 00
        E 120 90 0d 64
        E 0 90 63 6a
        E 0 90 64 6a
        E 0 90 6c 6a
        E 0 90 4b 6a
        E 0 90 4c 6a
        E 0 90 33 6a
        E 0 90 34 6a
        E 120 80 0d 00
        E 0 80 63 00
        E 0 80 64 00
        E 0 80 6c 00
        E 0 80 4b 00
        E 0 80 4c 00
        E 0 80 33 00
        E 0 80 34 00
        E 360 90 0b 64
        E 0 90 63 68
        E 0 90 64 68
        E 0 90 6c 68
        E 0 90 4b 68
        E 0 90 4c 68
        E 0 90 33 68
        E 0 90 34 68
        E 0 90 1b 68
        E 0 90 1c 68
        E 120 80 0b 00
        E 0 80 63 00
        E 0 80 64 00
        E 0 80 6c 00
        E 0 80 4b 00
        E 0 80 4c 00
        E 0 80 33 00
        E 0 80 34 00
        E 0 80 1b 00
        E 0 80 1c 00
        E 360 90 0d 64
        E 0 90 63 6a
        E 0 90 64 6a
        E 0 90 6c 6a
        E 0 90 4b 6a
        E 0 90 4c 6a
        E 0 90 33 6a
        E 0 90 34 6a
        E 120 80 0d 00
        E 0 80 63 00
        E 0 80 64 00
        E 0 80 6c 00
        E 0 80 4b 00
        E 0 80 4c 00
        E 0 80 33 00
        E 0 80 34 00
        E 360 90 0a 64
        E 0 90 63 67
        E 0 90 64 66
        E 0 90 6c 66
        E 0 90 74 64
        E 0 90 4b 67
        E 0 90 4c 66
        E 0 90 33 67
        E 0 90 34 66
        E 0 90 1b 67
        E 0 90 1c 66
        E 120 80 0a 00
        E 0 80 63 00
        E 0 80 64 00
        E 0 80 6c 00
        E 0 80 4b 00
        E 0 80 4c 00
        E 0 80 33 00
        E 0 80 34 00
        E 0 80 1b 00
        E 0 80 1c 00
        E 120 90 0b 64
        E 0 90 63 68
        E 0 90 64 68
        E 0 90 66 64
        E 0 90 6c 68
        E 0 90 4b 68
        E 0 90 4c 68
        E 0 90 4e 64
        E 120 80 0b 00
        E 0 80 63 00
        E 0 80 64 00
        E 0 80 6c 00
        E 0 80 4b 00
        E 0 80 4c 00
        E 120 90 0a 64
        E 0 90 63 67
        E 0 90 64 66
        E 0 90 6c 66
        E 0 90 4b 67
        E 0 90 4c 66
        E 0 90 33 67
        E 0 90 34 66
        E 120 80 66 00
        E 0 80 4e 00
        E 0 80 0a 00
        E 0 80 63 00
        E 0 80 64 00
        E 0 80 6c 00
        E 0 80 4b 00
        E 0 80 4c 00
        E 0 80 33 00
        E 0 80 34 00
        E 360 90 06 64
        E 0 90 62 68
        E 0 90 63 67
        E 0 90 6c 67
        E 0 90 4a 68
        E 0 90 4b 67
        E 0 90 32 68
        E 0 90 33 67
        E 0 90 1a 68
        E 0 90 1b 67
        E 120 80 06 00
        E 0 80 6c 00
        E 1920 80 74 00
        E 240 80 62 00
        E 0 80 63 00
        E 0 80 4a 00
        E 0 80 4b 00
        E 0 80 32 00
        E 0 80 33 00
        E 0 80 1a 00
        E 0 80 1b 00
        E 120 90 06 64
        E 0 90 62 68
        E 0 90 63 67
        E 0 90 6c 67
        E 0 90 4a 68
        E 0 90 4b 67
        E 0 90 32 68
        E 0 90 33 67
        E 120 80 06 00
        E 0 80 62 00
        E 0 80 63 00
        E 0 80 6c 00
        E 0 80 4a 00
        E 0 80 4b 00
        E 0 80 32 00
        E 0 80 33 00
        E 360 90 08 64
        E 0 90 62 6a
        E 0 90 63 68
        E 0 90 6c 68
        E 0 90 4a 6a
        E 0 90 4b 68
        E 0 90 32 6a
        E 0 90 33 68
        E 0 90 1a 6a
        E 0 90 1b 68
        E 0 9b 67 64
        E 0 9b 4f 64
        E 0 9b 37 64
        E 0 9b 1f 64
        E 120 80 08 00
        E 0 80 6c 00
        E 840 80 62 00
        E 0 80 63 00
        E 0 80 4a 00
        E 0 80 4b 00
        E 0 80 32 00
        E 0 80 33 00
        E 0 80 1a 00
        E 0 80 1b 00
        E 0 8b 67 00
        E 0 8b 4f 00
        E 0 8b 37 00
        E 0 8b 1f 00
        E 480 90 0d 64
        E 0 90 63 6a
        E 0 90 64 6a
        E 0 90 6c 6a
        E 0 90 4b 6a
        E 0 90 4c 6a
        E 0 90 33 6a
        E 0 90 34 6a
        E 120 80 0d 00
        E 0 80 63 00
        E 0 80 64 00
        E 0 80 6c 00
        E 0 80 4b 00
        E 0 80 4c 00
        E 0 80 33 00
        E 0 80 34 00
        E 0 90 0f 64
        E 0 90 63 6c
        E 0 90 64 6b
        E 0 90 66 64
        E 0 90 6c 6b
        E 120 80 0f 00
        E 0 80 6c 00
        E 600 80 63 00
        E 0 80 64 00
        E 0 80 66 00
        E 120 90 0d 64
        E 0 90 63 6a
        E 0 90 64 6a
        E 0 90 6c 6a
        E 0 90 4b 6a
        E 0 90 4c 6a
        E 0 90 33 6a
        E 0 90 34 6a
        E 120 80 0d 00
        E 0 80 63 00
        E 0 80 64 00
        E 0 80 6c 00
        E 0 80 4b 00
        E 0 80 4c 00
        E 0 80 33 00
        E 0 80 34 00
        E 360 90 0b 64
        E 0 90 63 68
        E 0 90 64 68
        E 0 90 6c 68
        E 0 90 4b 68
        E 0 90 4c 68
        E 0 90 33 68
        E 0 90 34 68
        E 0 90 1b 68
        E 0 90 1c 68
        E 120 80 0b 00
        E 0 80 63 00
        E 0 80 64 00
        E 0 80 6c 00
        E 0 80 4b 00
        E 0 80 4c 00
        E 0 80 33 00
        E 0 80 34 00
        E 0 80 1b 00
        E 0 80 1c 00
        E 360 90 0d 64
        E 0 90 63 6a
        E 0 90 64 6a
        E 0 90 6c 6a
        E 0 90 4b 6a
        E 0 90 4c 6a
        E 0 90 33 6a
        E 0 90 34 6a
        E 120 80 0d 00
        E 0 80 63 00
        E 0 80 64 00
        E 0 80 6c 00
        E 0 80 4b 00
        E 0 80 4c 00
        E 0 80 33 00
        E 0 80 34 00
        E 360 90 0a 64
        E 0 90 63 67
        E 0 90 64 66
        E 0 90 6c 66
        E 0 90 4b 67
        E 0 90 4c 66
        E 0 90 33 67
        E 0 90 34 66
        E 0 90 1b 67
        E 0 90 1c 66
        E 120 80 0a 00
        E 0 80 63 00
        E 0 80 64 00
        E 0 80 6c 00
        E 0 80 4b 00
        E 0 80 4c 00
        E 0 80 33 00
        E 0 80 34 00
        E 0 80 1b 00
        E 0 80 1c 00
        E 120 90 0b 64
        E 0 90 63 68
        E 0 90 64 68
        E 0 90 66 64
        E 0 90 6c 68
        E 0 90 4b 68
        E 0 90 4c 68
        E 0 90 4e 64
        E 120 80 0b 00
        E 0 80 63 00
        E 0 80 64 00
        E 0 80 6c 00
        E 0 80 4b 00
        E 0 80 4c 00
        E 120 90 0a 64
        E 0 90 63 67
        E 0 90 64 66
        E 0 90 6c 66
        E 0 90 4b 67
        E 0 90 4c 66
        E 0 90 33 67
        E 0 90 34 66
        E 120 80 66 00
        E 0 80 4e 00
        E 0 80 0a 00
        E 0 80 63 00
        E 0 80 64 00
        E 0 80 6c 00
        E 0 80 4b 00
        E 0 80 4c 00
        E 0 80 33 00
        E 0 80 34 00
        E 360 90 06 64
        E 0 90 62 68
        E 0 90 63 67
        E 0 90 6c 67
        E 0 90 4a 68
        E 0 90 4b 67
        E 0 90 32 68
        E 0 90 33 67
        E 0 90 1a 68
        E 0 90 1b 67
        E 120 80 06 00
        E 0 80 6c 00
        E 2160 80 62 00
        E 0 80 63 00
        E 0 80 4a 00
        E 0 80 4b 00
        E 0 80 32 00
        E 0 80 33 00
        E 0 80 1a 00
        E 0 80 1b 00
        E 120 90 06 64
        E 0 90 62 68
        E 0 90 63 67
        E 0 90 6c 67
        E 0 90 4a 68
        E 0 90 4b 67
        E 0 90 32 68
        E 0 90 33 67
        E 120 80 06 00
        E 0 80 62 00
        E 0 80 63 00
        E 0 80 6c 00
        E 0 80 4a 00
        E 0 80 4b 00
        E 0 80 32 00
        E 0 80 33 00
        E 360 90 08 64
        E 0 90 62 6a
        E 0 90 63 68
        E 0 90 6c 68
        E 0 90 4a 6a
        E 0 90 4b 68
        E 0 90 32 6a
        E 0 90 33 68
        E 0 90 1a 6a
        E 0 90 1b 68
        E 0 9b 67 64
        E 0 9b 4f 64
        E 0 9b 37 64
        E 0 9b 1f 64
        E 120 80 08 00
        E 0 80 6c 00
        E 840 80 62 00
        E 0 80 63 00
        E 0 80 4a 00
        E 0 80 4b 00
        E 0 80 32 00
        E 0 80 33 00
        E 0 80 1a 00
        E 0 80 1b 00
        E 0 8b 67 00
        E 0 8b 4f 00
        E 0 8b 37 00
        E 0 8b 1f 00
        E 480 90 0d 64
        E 0 90 63 6a
        E 0 90 64 6a
        E 0 90 6c 6a
        E 0 90 4b 6a
        E 0 90 4c 6a
        E 0 90 33 6a
        E 0 90 34 6a
        E 120 80 0d 00
        E 0 80 63 00
        E 0 80 64 00
        E 0 80 6c 00
        E 0 80 4b 00
        E 0 80 4c 00
        E 0 80 33 00
        E 0 80 34 00
        E 0 90 0f 64
        E 0 90 63 6c
        E 0 90 64 6b
        E 0 90 66 64
        E 0 90 6c 6b
        E 120 80 0f 00
        E 0 80 6c 00
        E 600 80 63 00
        E 0 80 64 00
        E 0 80 66 00
        E 120 90 0d 64
        E 0 90 63 6a
        E 0 90 64 6a
        E 0 90 6c 6a
        E 0 90 4b 6a
        E 0 90 4c 6a
        E 0 90 33 6a
        E 0 90 34 6a
        E 120 80 0d 00
        E 0 80 63 00
        E 0 80 64 00
        E 0 80 6c 00
        E 0 80 4b 00
        E 0 80 4c 00
        E 0 80 33 00
        E 0 80 34 00
        E 360 90 0b 64
        E 0 90 63 68
        E 0 90 64 68
        E 0 90 6c 68
        E 0 90 4b 68
        E 0 90 4c 68
        E 0 90 33 68
        E 0 90 34 68
        E 0 90 1b 68
        E 0 90 1c 68
        E 120 80 0b 00
        E 0 80 63 00
        E 0 80 64 00
        E 0 80 6c 00
        E 0 80 4b 00
        E 0 80 4c 00
        E 0 80 33 00
        E 0 80 34 00
        E 0 80 1b 00
        E 0 80 1c 00
        E 360 90 0d 64
        E 0 90 63 6a
        E 0 90 64 6a
        E 0 90 6c 6a
        E 0 90 4b 6a
        E 0 90 4c 6a
        E 0 90 33 6a
        E 0 90 34 6a
        E 120 80 0d 00
        E 0 80 63 00
        E 0 80 64 00
        E 0 80 6c 00
        E 0 80 4b 00
        E 0 80 4c 00
        E 0 80 33 00
        E 0 80 34 00
        E 360 90 0a 64
        E 0 90 63 67
        E 0 90 64 66
        E 0 90 6c 66
        E 0 90 4b 67
        E 0 90 4c 66
        E 0 90 33 67
        E 0 90 34 66
        E 0 90 1b 67
        E 0 90 1c 66
        E 120 80 0a 00
        E 0 80 63 00
        E 0 80 64 00
        E 0 80 6c 00
        E 0 80 4b 00
        E 0 80 4c 00
        E 0 80 33 00
        E 0 80 34 00
        E 0 80 1b 00
        E 0 80 1c 00
        E 120 90 0b 64
        E 0 90 63 68
        E 0 90 64 68
        E 0 90 66 64
        E 0 90 6c 68
        E 0 90 4b 68
        E 0 90 4c 68
        E 0 90 4e 64
        E 120 80 0b 00
        E 0 80 63 00
        E 0 80 64 00
        E 0 80 6c 00
        E 0 80 4b 00
        E 0 80 4c 00
        E 120 90 0a 64
        E 0 90 63 67
        E 0 90 64 66
        E 0 90 6c 66
        E 0 90 4b 67
        E 0 90 4c 66
        E 0 90 33 67
        E 0 90 34 66
        E 120 80 66 00
        E 0 80 4e 00
        E 0 80 0a 00
        E 0 80 63 00
        E 0 80 64 00
        E 0 80 6c 00
        E 0 80 4b 00
        E 0 80 4c 00
        E 0 80 33 00
        E 0 80 34 00
        E 360 90 06 64
        E 0 90 62 68
        E 0 90 63 67
        E 0 90 6c 67
        E 0 90 4a 68
        E 0 90 4b 67
        E 0 90 32 68
        E 0 90 33 67
        E 0 90 1a 68
        E 0 90 1b 67
        E 120 80 06 00
        E 0 80 6c 00
        E 2160 80 62 00
        E 0 80 63 00
        E 0 80 4a 00
        E 0 80 4b 00
        E 0 80 32 00
        E 0 80 33 00
        E 0 80 1a 00
        E 0 80 1b 00
        E 120 90 06 64
        E 0 90 62 68
        E 0 90 63 67
        E 0 90 6c 67
        E 0 90 4a 68
        E 0 90 4b 67
        E 0 90 32 68
        E 0 90 33 67
        E 120 80 06 00
        E 0 80 62 00
        E 0 80 63 00
        E 0 80 6c 00
        E 0 80 4a 00
        E 0 80 4b 00
        E 0 80 32 00
        E 0 80 33 00
        E 360 90 08 64
        E 0 90 62 6a
        E 0 90 63 68
        E 0 90 6c 68
        E 0 90 4a 6a
        E 0 90 4b 68
        E 0 90 32 6a
        E 0 90 33 68
        E 0 90 1a 6a
        E 0 90 1b 68
        E 0 9b 67 64
        E 0 9b 4f 64
        E 0 9b 37 64
        E 0 9b 1f 64
        E 120 80 08 00
        E 0 80 6c 00
        E 840 80 62 00
        E 0 80 63 00
        E 0 80 4a 00
        E 0 80 4b 00
        E 0 80 32 00
        E 0 80 33 00
        E 0 80 1a 00
        E 0 80 1b 00
        E 0 8b 67 00
        E 0 8b 4f 00
        E 0 8b 37 00
        E 0 8b 1f 00
        E 480 90 0d 64
        E 0 90 63 6a
        E 0 90 64 6a
        E 0 90 6c 6a
        E 0 90 4b 6a
        E 0 90 4c 6a
        E 0 90 33 6a
        E 0 90 34 6a
        E 120 80 0d 00
        E 0 80 63 00
        E 0 80 64 00
        E 0 80 6c 00
        E 0 80 4b 00
        E 0 80 4c 00
        E 0 80 33 00
        E 0 80 34 00
        E 0 90 0f 64
        E 0 90 63 6c
        E 0 90 64 6b
        E 0 90 66 64
        E 0 90 6c 6b
        E 120 80 0f 00
        E 0 80 6c 00
        E 600 80 63 00
        E 0 80 64 00
        E 0 80 66 00
        E 120 90 0d 64
        E 0 90 63 6a
        E 0 90 64 6a
        E 0 90 6c 6a
        E 0 90 4b 6a
        E 0 90 4c 6a
        E 0 90 33 6a
        E 0 90 34 6a
        E 120 80 0d 00
        E 0 80 63 00
        E 0 80 64 00
        E 0 80 6c 00
        E 0 80 4b 00
        E 0 80 4c 00
        E 0 80 33 00
        E 0 80 34 00
        E 360 90 0b 64
        E 0 90 63 68
        E 0 90 64 68
        E 0 90 6c 68
        E 0 90 4b 68
        E 0 90 4c 68
        E 0 90 33 68
        E 0 90 34 68
        E 0 90 1b 68
        E 0 90 1c 68
        E 120 80 0b 00
        E 0 80 63 00
        E 0 80 64 00
        E 0 80 6c 00
        E 0 80 4b 00
        E 0 80 4c 00
        E 0 80 33 00
        E 0 80 34 00
        E 0 80 1b 00
        E 0 80 1c 00
        E 360 90 0d 64
        E 0 90 63 6a
        E 0 90 64 6a
        E 0 90 6c 6a
        E 0 90 4b 6a
        E 0 90 4c 6a
        E 0 90 33 6a
        E 0 90 34 6a
        E 120 80 0d 00
        E 0 80 63 00
        E 0 80 64 00
        E 0 80 6c 00
        E 0 80 4b 00
        E 0 80 4c 00
        E 0 80 33 00
        E 0 80 34 00
        E 360 90 0a 64
        E 0 90 63 67
        E 0 90 64 66
        E 0 90 6c 66
        E 0 90 4b 67
        E 0 90 4c 66
        E 0 90 33 67
        E 0 90 34 66
        E 0 90 1b 67
        E 0 90 1c 66
        E 120 80 0a 00
        E 0 80 63 00
        E 0 80 64 00
        E 0 80 6c 00
        E 0 80 4b 00
        E 0 80 4c 00
        E 0 80 33 00
        E 0 80 34 00
        E 0 80 1b 00
        E 0 80 1c 00
        E 120 90 0b 64
        E 0 90 63 68
        E 0 90 64 68
        E 0 90 66 64
        E 0 90 6c 68
        E 0 90 4b 68
        E 0 90 4c 68
        E 0 90 4e 64
        E 120 80 0b 00
        E 0 80 63 00
        E 0 80 64 00
        E 0 80 6c 00
        E 0 80 4b 00
        E 0 80 4c 00
        E 120 90 0a 64
        E 0 90 63 67
        E 0 90 64 66
        E 0 90 6c 66
        E 0 90 4b 67
        E 0 90 4c 66
        E 0 90 33 67
        E 0 90 34 66
        E 120 80 66 00
        E 0 80 4e 00
        E 0 80 0a 00
        E 0 80 63 00
        E 0 80 64 00
        E 0 80 6c 00
        E 0 80 4b 00
        E 0 80 4c 00
        E 0 80 33 00
        E 0 80 34 00
        E 360 90 06 64
        E 0 90 62 68
        E 0 90 63 67
        E 0 90 6c 67
        E 0 90 4a 68
        E 0 90 4b 67
        E 0 90 32 68
        E 0 90 33 67
        E 0 90 1a 68
        E 0 90 1b 67
        E 120 80 06 00
        E 0 80 6c 00
        E 2160 80 62 00
        E 0 80 63 00
        E 0 80 4a 00
        E 0 80 4b 00
        E 0 80 32 00
        E 0 80 33 00
        E 0 80 1a 00
        E 0 80 1b 00
        E 120 90 06 64
        E 0 90 62 68
        E 0 90 63 67
        E 0 90 6c 67
        E 0 90 4a 68
        E 0 90 4b 67
        E 0 90 32 68
        E 0 90 33 67
        E 120 80 06 00
        E 0 80 62 00
        E 0 80 63 00
        E 0 80 6c 00
        E 0 80 4a 00
        E 0 80 4b 00
        E 0 80 32 00
        E 0 80 33 00
        E 360 90 08 64
        E 0 90 62 6a
        E 0 90 63 68
        E 0 90 6c 68
        E 0 90 4a 6a
        E 0 90 4b 68
        E 0 90 32 6a
        E 0 90 33 68
        E 0 90 1a 6a
        E 0 90 1b 68
        E 0 9b 67 64
        E 0 9b 4f 64
        E 0 9b 37 64
        E 0 9b 1f 64
        E 120 80 08 00
        E 0 80 6c 00
        E 840 80 62 00
        E 0 80 63 00
        E 0 80 4a 00
        E 0 80 4b 00
        E 0 80 32 00
        E 0 80 33 00
        E 0 80 1a 00
        E 0 80 1b 00
        E 0 8b 67 00
        E 0 8b 4f 00
        E 0 8b 37 00
        E 0 8b 1f 00
        E 480 90 0d 64
        E 0 90 63 6a
        E 0 90 64 6a
        E 0 90 6c 6a
        E 0 90 4b 6a
        E 0 90 4c 6a
        E 0 90 33 6a
        E 0 90 34 6a
        E 120 80 0d 00
        E 0 80 63 00
        E 0 80 64 00
        E 0 80 6c 00
        E 0 80 4b 00
        E 0 80 4c 00
        E 0 80 33 00
        E 0 80 34 00
        E 0 90 0f 64
        E 0 90 63 6c
        E 0 90 64 6b
        E 0 90 66 64
        E 0 90 6c 6b
        E 120 80 0f 00
        E 0 80 6c 00
        E 600 80 63 00
        E 0 80 64 00
        E 0 80 66 00
        E 120 90 0d 64
        E 0 90 63 6a
        E 0 90 64 6a
        E 0 90 6c 6a
        E 0 90 4b 6a
        E 0 90 4c 6a
        E 0 90 33 6a
        E 0 90 34 6a
        E 120 80 0d 00
        E 0 80 63 00
        E 0 80 64 00
        E 0 80 6c 00
        E 0 80 4b 00
        E 0 80 4c 00
        E 0 80 33 00
        E 0 80 34 00
        E 360 90 0b 64
        E 0 90 63 68
        E 0 90 64 68
        E 0 90 6c 68
        E 0 90 4b 68
        E 0 90 4c 68
        E 0 90 33 68
        E 0 90 34 68
        E 0 90 1b 68
        E 0 90 1c 68
        E 120 80 0b 00
        E 0 80 63 00
        E 0 80 64 00
        E 0 80 6c 00
        E 0 80 4b 00
        E 0 80 4c 00
        E 0 80 33 00
        E 0 80 34 00
        E 0 80 1b 00
        E 0 80 1c 00
        E 360 90 0d 64
        E 0 90 63 6a
        E 0 90 64 6a
        E 0 90 6c 6a
        E 0 90 4b 6a
        E 0 90 4c 6a
        E 0 90 33 6a
        E 0 90 34 6a
        E 120 80 0d 00
        E 0 80 63 00
        E 0 80 64 00
        E 0 80 6c 00
        E 0 80 4b 00
        E 0 80 4c 00
        E 0 80 33 00
        E 0 80 34 00
        E 360 90 0a 64
        E 0 90 63 67
        E 0 90 64 66
        E 0 90 6c 66
        E 0 90 4b 67
        E 0 90 4c 66
        E 0 90 33 67
        E 0 90 34 66
        E 0 90 1b 67
        E 0 90 1c 66
        E 120 80 0a 00
        E 0 80 63 00
        E 0 80 64 00
        E 0 80 6c 00
        E 0 80 4b 00
        E 0 80 4c 00
        E 0 80 33 00
        E 0 80 34 00
        E 0 80 1b 00
        E 0 80 1c 00
        E 120 90 0b 64
        E 0 90 63 68
        E 0 90 64 68
        E 0 90 66 64
        E 0 90 6c 68
        E 0 90 4b 68
        E 0 90 4c 68
        E 0 90 4e 64
        E 120 80 0b 00
        E 0 80 63 00
        E 0 80 64 00
        E 0 80 6c 00
        E 0 80 4b 00
        E 0 80 4c 00
        E 120 90 0a 64
        E 0 90 63 67
        E 0 90 64 66
        E 0 90 6c 66
        E 0 90 4b 67
        E 0 90 4c 66
        E 0 90 33 67
        E 0 90 34 66
        E 120 80 66 00
        E 0 80 4e 00
        E 0 80 0a 00
        E 0 80 63 00
        E 0 80 64 00
        E 0 80 6c 00
        E 0 80 4b 00
        E 0 80 4c 00
        E 0 80 33 00
        E 0 80 34 00
        E 360 90 06 64
        E 0 90 62 68
        E 0 90 63 67
        E 0 90 6c 67
        E 0 90 4a 68
        E 0 90 4b 67
        E 0 90 32 68
        E 0 90 33 67
        E 0 90 1a 68
        E 0 90 1b 67
        E 120 80 06 00
        E 0 80 6c 00
        E 2160 80 62 00
        E 0 80 63 00
        E 0 80 4a 00
        E 0 80 4b 00
        E 0 80 32 00
        E 0 80 33 00
        E 0 80 1a 00
        E 0 80 1b 00
        E 120 90 06 64
        E 0 90 62 68
        E 0 90 63 67
        E 0 90 6c 67
        E 0 90 74 64
        E 0 90 4a 68
        E 0 90 4b 67
        E 0 90 32 68
        E 0 90 33 67
        E 120 80 06 00
        E 0 80 62 00
        E 0 80 63 00
        E 0 80 6c 00
        E 0 80 4a 00
        E 0 80 4b 00
        E 0 80 32 00
        E 0 80 33 00
        E 360 90 08 64
        E 0 90 62 6a
        E 0 90 63 68
        E 0 90 6c 68
        E 0 90 4a 6a
        E 0 90 4b 68
        E 0 90 32 6a
        E 0 90 33 68
        E 0 90 1a 6a
        E 0 90 1b 68
        E 0 9b 67 64
        E 0 9b 4f 64
        E 0 9b 37 64
        E 0 9b 1f 64
        E 120 80 08 00
        E 0 80 6c 00
        E 840 80 62 00
        E 0 80 63 00
        E 0 80 4a 00
        E 0 80 4b 00
        E 0 80 32 00
        E 0 80 33 00
        E 0 80 1a 00
        E 0 80 1b 00
        E 0 8b 67 00
        E 0 8b 4f 00
        E 0 8b 37 00
        E 0 8b 1f 00
        E 120 80 74 00
        E 360 90 0d 64
        E 0 90 63 6a
        E 0 90 64 6a
        E 0 90 6c 6a
        E 0 90 4b 6a
        E 0 90 4c 6a
        E 0 90 33 6a
        E 0 90 34 6a
        E 120 80 0d 00
        E 0 80 63 00
        E 0 80 64 00
        E 0 80 6c 00
        E 0 80 4b 00
        E 0 80 4c 00
        E 0 80 33 00
        E 0 80 34 00
        E 0 90 0f 64
        E 0 90 63 6c
        E 0 90 64 6b
        E 0 90 66 64
        E 0 90 6c 6b
        E 120 80 0f 00
        E 0 80 6c 00
        E 600 80 63 00
        E 0 80 64 00
        E 0 80 66 00
        E 120 90 0d 64
        E 0 90 63 6a
        E 0 90 64 6a
        E 0 90 6c 6a
        E 0 90 4b 6a
        E 0 90 4c 6a
        E 0 90 33 6a
        E 0 90 34 6a
        E 120 80 0d 00
        E 0 80 63 00
        E 0 80 64 00
        E 0 80 6c 00
        E 0 80 4b 00
        E 0 80 4c 00
        E 0 80 33 00
        E 0 80 34 00
        E 360 90 0b 64
        E 0 90 63 68
        E 0 90 64 68
        E 0 90 6c 68
        E 0 90 4b 68
        E 0 90 4c 68
        E 0 90 33 68
        E 0 90 34 68
        E 0 90 1b 68
        E 0 90 1c 68
        E 120 80 0b 00
        E 0 80 63 00
        E 0 80 64 00
        E 0 80 6c 00
        E 0 80 4b 00
        E 0 80 4c 00
        E 0 80 33 00
        E 0 80 34 00
        E 0 80 1b 00
        E 0 80 1c 00
        E 360 90 0d 64
        E 0 90 63 6a
        E 0 90 64 6a
        E 0 90 6c 6a
        E 0 90 4b 6a
        E 0 90 4c 6a
        E 0 90 33 6a
        E 0 90 34 6a
        E 120 80 0d 00
        E 0 80 63 00
        E 0 80 64 00
        E 0 80 6c 00
        E 0 80 4b 00
        E 0 80 4c 00
        E 0 80 33 00
        E 0 80 34 00
        E 360 90 0a 64
        E 0 90 63 67
        E 0 90 64 66
        E 0 90 6c 66
        E 0 90 4b 67
        E 0 90 4c 66
        E 0 90 33 67
        E 0 90 34 66
        E 0 90 1b 67
        E 0 90 1c 66
        E 120 80 0a 00
        E 0 80 63 00
        E 0 80 64 00
        E 0 80 6c 00
        E 0 80 4b 00
        E 0 80 4c 00
        E 0 80 33 00
        E 0 80 34 00
        E 0 80 1b 00
        E 0 80 1c 00
        E 120 90 0b 64
        E 0 90 63 68
        E 0 90 64 68
        E 0 90 66 64
        E 0 90 6c 68
        E 0 90 4b 68
        E 0 90 4c 68
        E 0 90 4e 64
        E 120 80 0b 00
        E 0 80 63 00
        E 0 80 64 00
        E 0 80 6c 00
        E 0 80 4b 00
        E 0 80 4c 00
        E 120 90 0a 64
        E 0 90 63 67
        E 0 90 64 66
        E 0 90 6c 66
        E 0 90 4b 67
        E 0 90 4c 66
        E 0 90 33 67
        E 0 90 34 66
        E 120 80 66 00
        E 0 80 4e 00
        E 0 80 0a 00
        E 0 80 63 00
        E 0 80 64 00
        E 0 80 6c 00
        E 0 80 4b 00
        E 0 80 4c 00
        E 0 80 33 00
        E 0 80 34 00
        E 360 90 06 64
        E 0 90 62 68
        E 0 90 63 67
        E 0 90 6c 67
        E 0 90 4a 68
        E 0 90 4b 67
        E 0 90 32 68
        E 0 90 33 67
        E 0 90 1a 68
        E 0 90 1b 67
        E 120 80 06 00
        E 0 80 6c 00
        E 2160 80 62 00
        E 0 80 63 00
        E 0 80 4a 00
        E 0 80 4b 00
        E 0 80 32 00
        E 0 80 33 00
        E 0 80 1a 00
        E 0 80 1b 00
        E 120 90 06 64
        E 0 90 62 68
        E 0 90 63 67
        E 0 90 6c 67
        E 0 90 4a 68
        E 0 90 4b 67
        E 0 90 32 68
        E 0 90 33 67
        E 120 80 06 00
        E 0 80 62 00
        E 0 80 63 00
        E 0 80 6c 00
        E 0 80 4a 00
        E 0 80 4b 00
        E 0 80 32 00
        E 0 80 33 00
        E 360 90 08 64
        E 0 90 62 6a
        E 0 90 63 68
        E 0 90 6c 68
        E 0 90 4a 6a
        E 0 90 4b 68
        E 0 90 32 6a
        E 0 90 33 68
        E 0 90 1a 6a
        E 0 90 1b 68
        E 0 9b 67 64
        E 0 9b 4f 64
        E 0 9b 37 64
        E 0 9b 1f 64
        E 120 80 08 00
        E 0 80 6c 00
        E 840 80 62 00
        E 0 80 63 00
        E 0 80 4a 00
        E 0 80 4b 00
        E 0 80 32 00
        E 0 80 33 00
        E 0 80 1a 00
        E 0 80 1b 00
        E 0 8b 67 00
        E 0 8b 4f 00
        E 0 8b 37 00
        E 0 8b 1f 00
        E 480 90 0d 64
        E 0 90 63 6a
        E 0 90 64 6a
        E 0 90 6c 6a
        E 0 90 4b 6a
        E 0 90 4c 6a
        E 0 90 33 6a
        E 0 90 34 6a
        E 120 80 0d 00
        E 0 80 63 00
        E 0 80 64 00
        E 0 80 6c 00
        E 0 80 4b 00
        E 0 80 4c 00
        E 0 80 33 00
        E 0 80 34 00
        E 0 90 0f 64
        E 0 90 63 6c
        E 0 90 64 6b
        E 0 90 66 64
        E 0 90 6c 6b
        E 120 80 0f 00
        E 0 80 6c 00
        E 600 80 63 00
        E 0 80 64 00
        E 0 80 66 00
        E 120 90 0d 64
        E 0 90 63 6a
        E 0 90 64 6a
        E 0 90 6c 6a
        E 0 90 4b 6a
        E 0 90 4c 6a
        E 0 90 33 6a
        E 0 90 34 6a
        E 120 80 0d 00
        E 0 80 63 00
        E 0 80 64 00
        E 0 80 6c 00
        E 0 80 4b 00
        E 0 80 4c 00
        E 0 80 33 00
        E 0 80 34 00
        E 360 90 0b 64
        E 0 90 63 68
        E 0 90 64 68
        E 0 90 6c 68
        E 0 90 4b 68
        E 0 90 4c 68
        E 0 90 33 68
        E 0 90 34 68
        E 0 90 1b 68
        E 0 90 1c 68
        E 120 80 0b 00
        E 0 80 63 00
        E 0 80 64 00
        E 0 80 6c 00
        E 0 80 4b 00
        E 0 80 4c 00
        E 0 80 33 00
        E 0 80 34 00
        E 0 80 1b 00
        E 0 80 1c 00
        E 360 90 0d 64
        E 0 90 63 6a
        E 0 90 64 6a
        E 0 90 6c 6a
        E 0 90 4b 6a
        E 0 90 4c 6a
        E 0 90 33 6a
        E 0 90 34 6a
        E 120 80 0d 00
        E 0 80 63 00
        E 0 80 64 00
        E 0 80 6c 00
        E 0 80 4b 00
        E 0 80 4c 00
        E 0 80 33 00
        E 0 80 34 00
        E 360 90 0a 64
        E 0 90 63 67
        E 0 90 64 66
        E 0 90 6c 66
        E 0 90 4b 67
        E 0 90 4c 66
        E 0 90 33 67
        E 0 90 34 66
        E 0 90 1b 67
        E 0 90 1c 66
        E 120 80 0a 00
        E 0 80 63 00
        E 0 80 64 00
        E 0 80 6c 00
        E 0 80 4b 00
        E 0 80 4c 00
        E 0 80 33 00
        E 0 80 34 00
        E 0 80 1b 00
        E 0 80 1c 00
        E 120 90 0b 64
        E 0 90 63 68
        E 0 90 64 68
        E 0 90 66 64
        E 0 90 6c 68
        E 0 90 4b 68
        E 0 90 4c 68
        E 0 90 4e 64
        E 120 80 0b 00
        E 0 80 63 00
        E 0 80 64 00
        E 0 80 6c 00
        E 0 80 4b 00
        E 0 80 4c 00
        E 120 90 0a 64
        E 0 90 63 67
        E 0 90 64 66
        E 0 90 6c 66
        E 0 90 4b 67
        E 0 90 4c 66
        E 0 90 33 67
        E 0 90 34 66
        E 120 80 66 00
        E 0 80 4e 00
        E 0 80 0a 00
        E 0 80 63 00
        E 0 80 64 00
        E 0 80 6c 00
        E 0 80 4b 00
        E 0 80 4c 00
        E 0 80 33 00
        E 0 80 34 00
        E 360 90 06 64
        E 0 90 62 68
        E 0 90 63 67
        E 0 90 6c 67
        E 0 90 4a 68
        E 0 90 4b 67
        E 0 90 32 68
        E 0 90 33 67
        E 0 90 1a 68
        E 0 90 1b 67
        E 120 80 06 00
        E 0 80 6c 00
        E 2160 80 62 00
        E 0 80 63 00
        E 0 80 4a 00
        E 0 80 4b 00
        E 0 80 32 00
        E 0 80 33 00
        E 0 80 1a 00
        E 0 80 1b 00
        E 120 90 06 64
        E 0 90 62 68
        E 0 90 63 67
        E 0 90 6c 67
        E 0 90 4a 68
        E 0 90 4b 67
        E 0 90 32 68
        E 0 90 33 67
        E 120 80 06 00
        E 0 80 62 00
        E 0 80 63 00
        E 0 80 6c 00
        E 0 80 4a 00
        E 0 80 4b 00
        E 0 80 32 00
        E 0 80 33 00
        E 360 90 08 64
        E 0 90 62 6a
        E 0 90 63 68
        E 0 90 6c 68
        E 0 90 4a 6a
        E 0 90 4b 68
        E 0 90 32 6a
        E 0 90 33 68
        E 0 90 1a 6a
        E 0 90 1b 68
        E 0 9b 67 64
        E 0 9b 4f 64
        E 0 9b 37 64
        E 0 9b 1f 64
        E 120 80 08 00
        E 0 80 6c 00
        E 840 80 62 00
        E 0 80 63 00
        E 0 80 4a 00
        E 0 80 4b 00
        E 0 80 32 00
        E 0 80 33 00
        E 0 80 1a 00
        E 0 80 1b 00
        E 0 8b 67 00
        E 0 8b 4f 00
        E 0 8b 37 00
        E 0 8b 1f 00
        E 480 90 0d 64
        E 0 90 63 6a
        E 0 90 64 6a
        E 0 90 6c 6a
        E 0 90 4b 6a
        E 0 90 4c 6a
        E 0 90 33 6a
        E 0 90 34 6a
        E 120 80 0d 00
        E 0 80 63 00
        E 0 80 64 00
        E 0 80 6c 00
        E 0 80 4b 00
        E 0 80 4c 00
        E 0 80 33 00
        E 0 80 34 00
        E 0 90 0f 64
        E 0 90 63 6c
        E 0 90 64 6b
        E 0 90 66 64
        E 0 90 6c 6b
        E 120 80 0f 00
        E 0 80 6c 00
        E 600 80 63 00
        E 0 80 64 00
        E 0 80 66 00
        E 120 90 0d 64
        E 0 90 63 6a
        E 0 90 64 6a
        E 0 90 6c 6a
        E 0 90 4b 6a
        E 0 90 4c 6a
        E 0 90 33 6a
        E 0 90 34 6a
        E 120 80 0d 00
        E 0 80 63 00
        E 0 80 64 00
        E 0 80 6c 00
        E 0 80 4b 00
        E 0 80 4c 00
        E 0 80 33 00
        E 0 80 34 00
        E 360 90 0b 64
        E 0 90 63 68
        E 0 90 64 68
        E 0 90 6c 68
        E 0 90 4b 68
        E 0 90 4c 68
        E 0 90 33 68
        E 0 90 34 68
        E 0 90 1b 68
        E 0 90 1c 68
        E 120 80 0b 00
        E 0 80 63 00
        E 0 80 64 00
        E 0 80 6c 00
        E 0 80 4b 00
        E 0 80 4c 00
        E 0 80 33 00
        E 0 80 34 00
        E 0 80 1b 00
        E 0 80 1c 00
        E 360 90 0d 64
        E 0 90 63 6a
        E 0 90 64 6a
        E 0 90 6c 6a
        E 0 90 4b 6a
        E 0 90 4c 6a
        E 0 90 33 6a
        E 0 90 34 6a
        E 120 80 0d 00
        E 0 80 63 00
        E 0 80 64 00
        E 0 80 6c 00
        E 0 80 4b 00
        E 0 80 4c 00
        E 0 80 33 00
        E 0 80 34 00
        E 360 90 0a 64
        E 0 90 63 67
        E 0 90 64 66
        E 0 90 6c 66
        E 0 90 4b 67
        E 0 90 4c 66
        E 0 90 33 67
        E 0 90 34 66
        E 0 90 1b 67
        E 0 90 1c 66
        E 120 80 0a 00
        E 0 80 63 00
        E 0 80 64 00
        E 0 80 6c 00
        E 0 80 4b 00
        E 0 80 4c 00
        E 0 80 33 00
        E 0 80 34 00
        E 0 80 1b 00
        E 0 80 1c 00
        E 120 90 0b 64
        E 0 90 63 68
        E 0 90 64 68
        E 0 90 66 64
        E 0 90 6c 68
        E 0 90 4b 68
        E 0 90 4c 68
        E 0 90 4e 64
        E 120 80 0b 00
        E 0 80 63 00
        E 0 80 64 00
        E 0 80 6c 00
        E 0 80 4b 00
        E 0 80 4c 00
        E 120 90 0a 64
        E 0 90 63 67
        E 0 90 64 66
        E 0 90 6c 66
        E 0 90 4b 67
        E 0 90 4c 66
        E 0 90 33 67
        E 0 90 34 66
        E 120 80 66 00
        E 0 80 4e 00
        E 0 80 0a 00
        E 0 80 63 00
        E 0 80 64 00
        E 0 80 6c 00
        E 0 80 4b 00
        E 0 80 4c 00
        E 0 80 33 00
        E 0 80 34 00
        E 360 90 06 64
        E 0 90 62 68
        E 0 90 63 67
        E 0 90 6c 67
        E 0 90 4a 68
        E 0 90 4b 67
        E 0 90 32 68
        E 0 90 33 67
        E 0 90 1a 68
        E 0 90 1b 67
        E 120 80 06 00
        E 0 80 6c 00
        E 2160 80 62 00
        E 0 80 63 00
        E 0 80 4a 00
        E 0 80 4b 00
        E 0 80 32 00
        E 0 80 33 00
        E 0 80 1a 00
        E 0 80 1b 00
        E 120 90 06 64
        E 0 90 62 68
        E 0 90 63 67
        E 0 90 6c 67
        E 0 90 4a 68
        E 0 90 4b 67
        E 0 90 32 68
        E 0 90 33 67
        E 120 80 06 00
        E 0 80 62 00
        E 0 80 63 00
        E 0 80 6c 00
        E 0 80 4a 00
        E 0 80 4b 00
        E 0 80 32 00
        E 0 80 33 00
        E 360 90 08 64
        E 0 90 62 6a
        E 0 90 63 68
        E 0 90 6c 68
        E 0 90 4a 6a
        E 0 90 4b 68
        E 0 90 32 6a
        E 0 90 33 68
        E 0 90 1a 6a
        E 0 90 1b 68
        E 0 9b 67 64
        E 0 9b 4f 64
        E 0 9b 37 64
        E 0 9b 1f 64
        E 120 80 08 00
        E 0 80 6c 00
        E 840 80 62 00
        E 0 80 63 00
        E 0 80 4a 00
        E 0 80 4b 00
        E 0 80 32 00
        E 0 80 33 00
        E 0 80 1a 00
        E 0 80 1b 00
        E 0 8b 67 00
        E 0 8b 4f 00
        E 0 8b 37 00
        E 0 8b 1f 00
        E 480 90 0d 64
        E 0 90 63 6a
        E 0 90 64 6a
        E 0 90 6c 6a
        E 0 90 4b 6a
        E 0 90 4c 6a
        E 0 90 33 6a
        E 0 90 34 6a
        E 120 80 0d 00
        E 0 80 63 00
        E 0 80 64 00
        E 0 80 6c 00
        E 0 80 4b 00
        E 0 80 4c 00
        E 0 80 33 00
        E 0 80 34 00
        E 0 90 0f 64
        E 0 90 63 6c
        E 0 90 64 6b
        E 0 90 66 64
        E 0 90 6c 6b
        E 120 80 0f 00
        E 0 80 6c 00
        E 600 80 63 00
        E 0 80 64 00
        E 0 80 66 00
        E 120 90 0d 64
        E 0 90 63 6a
        E 0 90 64 6a
        E 0 90 6c 6a
        E 0 90 4b 6a
        E 0 90 4c 6a
        E 0 90 33 6a
        E 0 90 34 6a
        E 120 80 0d 00
        E 0 80 63 00
        E 0 80 64 00
        E 0 80 6c 00
        E 0 80 4b 00
        E 0 80 4c 00
        E 0 80 33 00
        E 0 80 34 00
        E 360 90 0b 64
        E 0 90 63 68
        E 0 90 64 68
        E 0 90 6c 68
        E 0 90 4b 68
        E 0 90 4c 68
        E 0 90 33 68
        E 0 90 34 68
        E 0 90 1b 68
        E 0 90 1c 68
        E 120 80 0b 00
        E 0 80 63 00
        E 0 80 64 00
        E 0 80 6c 00
        E 0 80 4b 00
        E 0 80 4c 00
        E 0 80 33 00
        E 0 80 34 00
        E 0 80 1b 00
        E 0 80 1c 00
        E 360 90 0d 64
        E 0 90 63 6a
        E 0 90 64 6a
        E 0 90 6c 6a
        E 0 90 4b 6a
        E 0 90 4c 6a
        E 0 90 33 6a
        E 0 90 34 6a
        E 120 80 0d 00
        E 0 80 63 00
        E 0 80 64 00
        E 0 80 6c 00
        E 0 80 4b 00
        E 0 80 4c 00
        E 0 80 33 00
        E 0 80 34 00
        E 360 90 0a 64
        E 0 90 63 67
        E 0 90 64 66
        E 0 90 6c 66
        E 0 90 74 64
        E 0 90 4b 67
        E 0 90 4c 66
        E 0 90 33 67
        E 0 90 34 66
        E 0 90 1b 67
        E 0 90 1c 66
        E 120 80 0a 00
        E 0 80 63 00
        E 0 80 64 00
        E 0 80 6c 00
        E 0 80 4b 00
        E 0 80 4c 00
        E 0 80 33 00
        E 0 80 34 00
        E 0 80 1b 00
        E 0 80 1c 00
        E 120 90 0b 64
        E 0 90 63 68
        E 0 90 64 68
        E 0 90 66 64
        E 0 90 6c 68
        E 0 90 4b 68
        E 0 90 4c 68
        E 0 90 4e 64
        E 120 80 0b 00
        E 0 80 63 00
        E 0 80 64 00
        E 0 80 6c 00
        E 0 80 4b 00
        E 0 80 4c 00
        E 120 90 0a 64
        E 0 90 63 67
        E 0 90 64 66
        E 0 90 6c 66
        E 0 90 4b 67
        E 0 90 4c 66
        E 0 90 33 67
        E 0 90 34 66
        E 120 80 66 00
        E 0 80 4e 00
        E 0 80 0a 00
        E 0 80 63 00
        E 0 80 64 00
        E 0 80 6c 00
        E 0 80 4b 00
        E 0 80 4c 00
        E 0 80 33 00
        E 0 80 34 00
        E 360 90 06 64
        E 0 90 62 68
        E 0 90 63 67
        E 0 90 6c 67
        E 0 90 4a 68
        E 0 90 4b 67
        E 0 90 32 68
        E 0 90 33 67
        E 0 90 1a 68
        E 0 90 1b 67
        E 120 80 06 00
        E 0 80 6c 00
        E 2160 80 62 00
        E 0 80 63 00
        E 0 80 4a 00
        E 0 80 4b 00
        E 0 80 32 00
        E 0 80 33 00
        E 0 80 1a 00
        E 0 80 1b 00
        E 120 80 74 00
        E 0 90 06 64
        E 0 90 62 68
        E 0 90 63 67
        E 0 90 6c 67
        E 0 90 4a 68
        E 0 90 4b 67
        E 0 90 32 68
        E 0 90 33 67
        E 120 80 06 00
        E 0 80 62 00
        E 0 80 63 00
        E 0 80 6c 00
        E 0 80 4a 00
        E 0 80 4b 00
        E 0 80 32 00
        E 0 80 33 00
        E 360 90 08 64
        E 0 90 62 6a
        E 0 90 63 68
        E 0 90 6c 68
        E 0 90 4a 6a
        E 0 90 4b 68
        E 0 90 32 6a
        E 0 90 33 68
        E 0 90 1a 6a
        E 0 90 1b 68
        E 0 9b 67 64
        E 0 9b 4f 64
        E 0 9b 37 64
        E 0 9b 1f 64
        E 120 80 08 00
        E 0 80 6c 00
        E 840 80 62 00
        E 0 80 63 00
        E 0 80 4a 00
        E 0 80 4b 00
        E 0 80 32 00
        E 0 80 33 00
        E 0 80 1a 00
        E 0 80 1b 00
        E 0 8b 67 00
        E 0 8b 4f 00
        E 0 8b 37 00
        E 0 8b 1f 00
        E 480 90 0d 64
        E 0 90 63 6a
        E 0 90 64 6a
        E 0 90 6c 6a
        E 0 90 4b 6a
        E 0 90 4c 6a
        E 0 90 33 6a
        E 0 90 34 6a
        E 120 80 0d 00
        E 0 80 63 00
        E 0 80 64 00
        E 0 80 6c 00
        E 0 80 4b 00
        E 0 80 4c 00
        E 0 80 33 00
        E 0 80 34 00
        E 0 90 0f 64
        E 0 90 63 6c
        E 0 90 64 6b
        E 0 90 66 64
        E 0 90 6c 6b
        E 120 80 0f 00
        E 0 80 6c 00
        E 600 80 63 00
        E 0 80 64 00
        E 0 80 66 00
        E 120 90 0d 64
        E 0 90 63 6a
        E 0 90 64 6a
        E 0 90 6c 6a
        E 0 90 4b 6a
        E 0 90 4c 6a
        E 0 90 33 6a
        E 0 90 34 6a
        E 120 80 0d 00
        E 0 80 63 00
        E 0 80 64 00
        E 0 80 6c 00
        E 0 80 4b 00
        E 0 80 4c 00
        E 0 80 33 00
        E 0 80 34 00
        E 360 90 0b 64
        E 0 90 63 68
        E 0 90 64 68
        E 0 90 6c 68
        E 0 90 4b 68
        E 0 90 4c 68
        E 0 90 33 68
        E 0 90 34 68
        E 0 90 1b 68
        E 0 90 1c 68
        E 120 80 0b 00
        E 0 80 63 00
        E 0 80 64 00
        E 0 80 6c 00
        E 0 80 4b 00
        E 0 80 4c 00
        E 0 80 33 00
        E 0 80 34 00
        E 0 80 1b 00
        E 0 80 1c 00
        E 360 90 0d 64
        E 0 90 63 6a
        E 0 90 64 6a
        E 0 90 6c 6a
        E 0 90 4b 6a
        E 0 90 4c 6a
        E 0 90 33 6a
        E 0 90 34 6a
        E 120 80 0d 00
        E 0 80 63 00
        E 0 80 64 00
        E 0 80 6c 00
        E 0 80 4b 00
        E 0 80 4c 00
        E 0 80 33 00
        E 0 80 34 00
        E 360 90 0a 64
        E 0 90 63 67
        E 0 90 64 66
        E 0 90 6c 66
        E 0 90 4b 67
        E 0 90 4c 66
        E 0 90 33 67
        E 0 90 34 66
        E 0 90 1b 67
        E 0 90 1c 66
        E 120 80 0a 00
        E 0 80 63 00
        E 0 80 64 00
        E 0 80 6c 00
        E 0 80 4b 00
        E 0 80 4c 00
        E 0 80 33 00
        E 0 80 34 00
        E 0 80 1b 00
        E 0 80 1c 00
        E 120 90 0b 64
        E 0 90 63 68
        E 0 90 64 68
        E 0 90 66 64
        E 0 90 6c 68
        E 0 90 4b 68
        E 0 90 4c 68
        E 0 90 4e 64
        E 120 80 0b 00
        E 0 80 63 00
        E 0 80 64 00
        E 0 80 6c 00
        E 0 80 4b 00
        E 0 80 4c 00
        E 120 90 0a 64
        E 0 90 63 67
        E 0 90 64 66
        E 0 90 6c 66
        E 0 90 4b 67
        E 0 90 4c 66
        E 0 90 33 67
        E 0 90 34 66
        E 120 80 66 00
        E 0 80 4e 00
        E 0 80 0a 00
        E 0 80 63 00
        E 0 80 64 00
        E 0 80 6c 00
        E 0 80 4b 00
        E 0 80 4c 00
        E 0 80 33 00
        E 0 80 34 00
        E 360 90 06 64
        E 0 90 62 68
        E 0 90 63 67
        E 0 90 6c 67
        E 0 90 4a 68
        E 0 90 4b 67
        E 0 90 32 68
        E 0 90 33 67
        E 0 90 1a 68
        E 0 90 1b 67
        E 120 80 06 00
        E 0 80 6c 00
        E 2160 80 62 00
        E 0 80 63 00
        E 0 80 4a 00
        E 0 80 4b 00
        E 0 80 32 00
        E 0 80 33 00
        E 0 80 1a 00
        E 0 80 1b 00
        E 120 90 06 64
        E 0 90 62 68
        E 0 90 63 67
        E 0 90 6c 67
        E 0 90 4a 68
        E 0 90 4b 67
        E 0 90 32 68
        E 0 90 33 67
        E 120 80 06 00
        E 0 80 62 00
        E 0 80 63 00
        E 0 80 6c 00
        E 0 80 4a 00
        E 0 80 4b 00
        E 0 80 32 00
        E 0 80 33 00
        E 360 90 08 64
        E 0 90 62 6a
        E 0 90 63 68
        E 0 90 6c 68
        E 0 90 4a 6a
        E 0 90 4b 68
        E 0 90 32 6a
        E 0 90 33 68
        E 0 90 1a 6a
        E 0 90 1b 68
        E 0 9b 67 64
        E 0 9b 4f 64
        E 0 9b 37 64
        E 0 9b 1f 64
        E 120 80 08 00
        E 0 80 6c 00
        E 840 80 62 00
        E 0 80 63 00
        E 0 80 4a 00
        E 0 80 4b 00
        E 0 80 32 00
        E 0 80 33 00
        E 0 80 1a 00
        E 0 80 1b 00
        E 0 8b 67 00
        E 0 8b 4f 00
        E 0 8b 37 00
        E 0 8b 1f 00
        E 480 90 0d 64
        E 0 90 63 6a
        E 0 90 64 6a
        E 0 90 6c 6a
        E 0 90 4b 6a
        E 0 90 4c 6a
        E 0 90 33 6a
        E 0 90 34 6a
        E 120 80 0d 00
        E 0 80 63 00
        E 0 80 64 00
        E 0 80 6c 00
        E 0 80 4b 00
        E 0 80 4c 00
        E 0 80 33 00
        E 0 80 34 00
        E 0 90 0f 64
        E 0 90 63 6c
        E 0 90 64 6b
        E 0 90 66 64
        E 0 90 6c 6b
        E 120 80 0f 00
        E 0 80 6c 00
        E 600 80 63 00
        E 0 80 64 00
        E 0 80 66 00
        E 120 90 0d 64
        E 0 90 63 6a
        E 0 90 64 6a
        E 0 90 6c 6a
        E 0 90 4b 6a
        E 0 90 4c 6a
        E 0 90 33 6a
        E 0 90 34 6a
        E 120 80 0d 00
        E 0 80 63 00
        E 0 80 64 00
        E 0 80 6c 00
        E 0 80 4b 00
        E 0 80 4c 00
        E 0 80 33 00
        E 0 80 34 00
        E 360 90 0b 64
        E 0 90 63 68
        E 0 90 64 68
        E 0 90 6c 68
        E 0 90 4b 68
        E 0 90 4c 68
        E 0 90 33 68
        E 0 90 34 68
        E 0 90 1b 68
        E 0 90 1c 68
        E 120 80 0b 00
        E 0 80 63 00
        E 0 80 64 00
        E 0 80 6c 00
        E 0 80 4b 00
        E 0 80 4c 00
        E 0 80 33 00
        E 0 80 34 00
        E 0 80 1b 00
        E 0 80 1c 00
        E 360 90 0d 64
        E 0 90 63 6a
        E 0 90 64 6a
        E 0 90 6c 6a
        E 0 90 4b 6a
        E 0 90 4c 6a
        E 0 90 33 6a
        E 0 90 34 6a
        E 120 80 0d 00
        E 0 80 63 00
        E 0 80 64 00
        E 0 80 6c 00
        E 0 80 4b 00
        E 0 80 4c 00
        E 0 80 33 00
        E 0 80 34 00
        E 360 90 0a 64
        E 0 90 63 67
        E 0 90 64 66
        E 0 90 6c 66
        E 0 90 4b 67
        E 0 90 4c 66
        E 0 90 33 67
        E 0 90 34 66
        E 0 90 1b 67
        E 0 90 1c 66
        E 120 80 0a 00
        E 0 80 63 00
        E 0 80 64 00
        E 0 80 6c 00
        E 0 80 4b 00
        E 0 80 4c 00
        E 0 80 33 00
        E 0 80 34 00
        E 0 80 1b 00
        E 0 80 1c 00
        E 120 90 0b 64
        E 0 90 63 68
        E 0 90 64 68
        E 0 90 66 64
        E 0 90 6c 68
        E 0 90 4b 68
        E 0 90 4c 68
        E 0 90 4e 64
        E 120 80 0b 00
        E 0 80 63 00
        E 0 80 64 00
        E 0 80 6c 00
        E 0 80 4b 00
        E 0 80 4c 00
        E 120 90 0a 64
        E 0 90 63 67
        E 0 90 64 66
        E 0 90 6c 66
        E 0 90 4b 67
        E 0 90 4c 66
        E 0 90 33 67
        E 0 90 34 66
        E 120 80 66 00
        E 0 80 4e 00
        E 0 80 0a 00
        E 0 80 63 00
        E 0 80 64 00
        E 0 80 6c 00
        E 0 80 4b 00
        E 0 80 4c 00
        E 0 80 33 00
        E 0 80 34 00
        E 360 90 06 64
        E 0 90 62 68
        E 0 90 63 67
        E 0 90 6c 67
        E 0 90 4a 68
        E 0 90 4b 67
        E 0 90 32 68
        E 0 90 33 67
        E 0 90 1a 68
        E 0 90 1b 67
        E 120 80 06 00
        E 0 80 6c 00
        E 2160 80 62 00
        E 0 80 63 00
        E 0 80 4a 00
        E 0 80 4b 00
        E 0 80 32 00
        E 0 80 33 00
        E 0 80 1a 00
        E 0 80 1b 00
        E 120 90 06 64
        E 0 90 62 68
        E 0 90 63 67
        E 0 90 6c 67
        E 0 90 4a 68
        E 0 90 4b 67
        E 0 90 32 68
        E 0 90 33 67
        E 0 90 1a 68
        E 0 90 1b 67
        E 120 80 06 00
        E 0 80 62 00
        E 0 80 63 00
        E 0 80 6c 00
        E 0 80 4a 00
        E 0 80 4b 00
        E 0 80 32 00
        E 0 80 33 00
        E 0 80 1a 00
        E 0 80 1b 00
        <X 360 0
          /wFbYmVnaW5fcGcgc29uZ190cmFpbmVyX3BnXzJd
        >
        E 0 90 73 64
        E 480 90 64 6b
        E 0 90 6c 6a
        E 0 90 4c 6b
        E 0 90 34 6b
        E 0 90 1c 6b
        E 120 80 64 00
        E 0 80 6c 00
        E 0 80 4c 00
        E 0 80 34 00
        E 0 80 1c 00
        E 120 90 64 6b
        E 0 90 4c 6b
        E 0 90 34 6b
        E 120 80 64 00
        E 0 80 4c 00
        E 0 80 34 00
        E 120 90 64 6b
        E 0 90 4c 6b
        E 0 90 34 6b
        E 0 90 1c 6b
        E 120 80 64 00
        E 0 80 4c 00
        E 0 80 34 00
        E 0 80 1c 00
        E 360 90 64 6b
        E 0 90 4c 6b
        E 0 90 34 6b
        E 0 90 1c 6b
        E 120 80 64 00
        E 0 80 4c 00
        E 0 80 34 00
        E 0 80 1c 00
        <X 360 0
          /wFbcGdfbm9ybSBzb25nX3RyYWluZXJfcGdfMl0=
        >
        E 0 90 64 6b
        E 0 90 67 64
        E 0 90 4c 6b
        E 0 90 4f 64
        E 0 90 34 6b
        E 0 90 37 64
        E 0 90 1c 6b
        E 0 90 1f 64
        E 420 80 64 00
        E 0 80 67 00
        E 0 80 4c 00
        E 0 80 4f 00
        E 0 80 34 00
        E 0 80 37 00
        E 0 80 1c 00
        E 0 80 1f 00
        E 60 90 64 6a
        E 0 90 4c 6a
        E 0 90 34 6a
        E 120 80 64 00
        E 0 80 4c 00
        E 0 80 34 00
        E 360 90 64 6a
        E 0 90 4c 6a
        E 0 90 34 6a
        E 0 90 1c 6a
        E 120 80 64 00
        E 0 80 4c 00
        E 0 80 34 00
        E 0 80 1c 00
        E 360 90 64 6a
        E 0 90 4c 6a
        E 0 90 34 6a
        E 120 80 64 00
        E 0 80 4c 00
        E 0 80 34 00
        E 360 90 64 66
        E 0 90 6c 66
        E 0 90 4c 66
        E 0 90 34 66
        E 0 90 1c 66
        E 120 80 64 00
        E 0 80 6c 00
        E 0 80 4c 00
        E 0 80 34 00
        E 0 80 1c 00
        E 360 90 64 68
        E 0 90 4c 68
        E 0 90 34 68
        E 120 80 64 00
        E 0 80 4c 00
        E 0 80 34 00
        E 360 90 64 68
        E 0 90 4c 68
        E 0 90 34 68
        E 0 90 1c 68
        E 120 80 64 00
        E 0 80 4c 00
        E 0 80 34 00
        E 0 80 1c 00
        E 360 90 64 68
        E 0 90 4c 68
        E 0 90 34 68
        E 120 80 64 00
        E 0 80 4c 00
        E 0 80 34 00
        E 360 90 64 66
        E 0 90 4c 66
        E 0 90 34 66
        E 0 90 1c 66
        <X 1920 0
          /wFbZW5kX3BnIHNvbmdfdHJhaW5lcl9wZ18yXQ==
        >
        E 0 80 64 00
        E 0 80 4c 00
        E 0 80 34 00
        E 0 80 1c 00
        E 480 90 64 6b
        E 0 90 6c 6a
        E 0 90 4c 6b
        E 0 90 34 6b
        E 0 90 1c 6b
        E 120 80 64 00
        E 0 80 6c 00
        E 0 80 4c 00
        E 0 80 34 00
        E 0 80 1c 00
        E 360 90 64 6b
        E 0 90 4c 6b
        E 0 90 34 6b
        E 0 90 1c 6b
        E 120 80 64 00
        E 0 80 4c 00
        E 0 80 34 00
        E 0 80 1c 00
        E 360 90 64 6b
        E 0 90 4c 6b
        E 0 90 34 6b
        E 0 90 1c 6b
        E 120 80 64 00
        E 0 80 4c 00
        E 0 80 34 00
        E 0 80 1c 00
        E 360 90 64 6b
        E 0 90 67 64
        E 0 90 4c 6b
        E 0 90 4f 64
        E 0 90 34 6b
        E 0 90 37 64
        E 0 90 1c 6b
        E 0 90 1f 64
        E 420 80 64 00
        E 0 80 67 00
        E 0 80 4c 00
        E 0 80 4f 00
        E 0 80 34 00
        E 0 80 37 00
        E 0 80 1c 00
        E 0 80 1f 00
        E 60 90 64 6a
        E 0 90 4c 6a
        E 0 90 34 6a
        E 120 80 64 00
        E 0 80 4c 00
        E 0 80 34 00
        E 360 90 64 6a
        E 0 90 4c 6a
        E 0 90 34 6a
        E 0 90 1c 6a
        E 120 80 64 00
        E 0 80 4c 00
        E 0 80 34 00
        E 0 80 1c 00
        E 360 90 64 6a
        E 0 90 4c 6a
        E 0 90 34 6a
        E 120 80 64 00
        E 0 80 4c 00
        E 0 80 34 00
        E 360 90 64 66
        E 0 90 6c 66
        E 0 90 74 64
        E 0 90 4c 66
        E 0 90 34 66
        E 0 90 1c 66
        E 120 80 64 00
        E 0 80 6c 00
        E 0 80 4c 00
        E 0 80 34 00
        E 0 80 1c 00
        E 360 90 64 68
        E 0 90 4c 68
        E 0 90 34 68
        E 120 80 64 00
        E 0 80 4c 00
        E 0 80 34 00
        E 360 90 64 68
        E 0 90 4c 68
        E 0 90 34 68
        E 0 90 1c 68
        E 120 80 64 00
        E 0 80 4c 00
        E 0 80 34 00
        E 0 80 1c 00
        E 360 90 64 68
        E 0 90 4c 68
        E 0 90 34 68
        E 120 80 64 00
        E 0 80 4c 00
        E 0 80 34 00
        E 360 90 64 66
        E 0 90 4c 66
        E 0 90 34 66
        E 0 90 1c 66
        E 1440 80 74 00
        E 0 80 64 00
        E 0 80 4c 00
        E 0 80 34 00
        E 0 80 1c 00
        E 960 90 64 6b
        E 0 90 6c 6a
        E 0 90 4c 6b
        E 0 90 34 6b
        E 0 90 1c 6b
        E 120 80 64 00
        E 0 80 6c 00
        E 0 80 4c 00
        E 0 80 34 00
        E 0 80 1c 00
        E 120 90 64 6b
        E 0 90 4c 6b
        E 0 90 34 6b
        E 120 80 64 00
        E 0 80 4c 00
        E 0 80 34 00
        E 120 90 64 6b
        E 0 90 4c 6b
        E 0 90 34 6b
        E 0 90 1c 6b
        E 120 80 64 00
        E 0 80 4c 00
        E 0 80 34 00
        E 0 80 1c 00
        E 360 90 64 6b
        E 0 90 4c 6b
        E 0 90 34 6b
        E 0 90 1c 6b
        E 120 80 64 00
        E 0 80 4c 00
        E 0 80 34 00
        E 0 80 1c 00
        E 360 90 64 6b
        E 0 90 67 64
        E 0 90 4c 6b
        E 0 90 4f 64
        E 0 90 34 6b
        E 0 90 37 64
        E 0 90 1c 6b
        E 0 90 1f 64
        E 420 80 64 00
        E 0 80 67 00
        E 0 80 4c 00
        E 0 80 4f 00
        E 0 80 34 00
        E 0 80 37 00
        E 0 80 1c 00
        E 0 80 1f 00
        E 60 90 64 6a
        E 0 90 4c 6a
        E 0 90 34 6a
        E 120 80 64 00
        E 0 80 4c 00
        E 0 80 34 00
        E 360 90 64 6a
        E 0 90 4c 6a
        E 0 90 34 6a
        E 0 90 1c 6a
        E 120 80 64 00
        E 0 80 4c 00
        E 0 80 34 00
        E 0 80 1c 00
        E 360 90 64 6a
        E 0 90 4c 6a
        E 0 90 34 6a
        E 120 80 64 00
        E 0 80 4c 00
        E 0 80 34 00
        E 360 90 64 66
        E 0 90 6c 66
        E 0 90 4c 66
        E 0 90 34 66
        E 0 90 1c 66
        E 120 80 64 00
        E 0 80 6c 00
        E 0 80 4c 00
        E 0 80 34 00
        E 0 80 1c 00
        E 360 90 64 68
        E 0 90 4c 68
        E 0 90 34 68
        E 120 80 64 00
        E 0 80 4c 00
        E 0 80 34 00
        E 360 90 64 68
        E 0 90 4c 68
        E 0 90 34 68
        E 0 90 1c 68
        E 120 80 64 00
        E 0 80 4c 00
        E 0 80 34 00
        E 0 80 1c 00
        E 360 90 64 68
        E 0 90 4c 68
        E 0 90 34 68
        E 120 80 64 00
        E 0 80 4c 00
        E 0 80 34 00
        E 360 90 64 66
        E 0 90 4c 66
        E 0 90 34 66
        E 0 90 1c 66
        E 1440 80 64 00
        E 0 80 4c 00
        E 0 80 34 00
        E 0 80 1c 00
        E 960 90 64 6b
        E 0 90 6c 6a
        E 0 90 4c 6b
        E 0 90 34 6b
        E 0 90 1c 6b
        E 120 80 64 00
        E 0 80 6c 00
        E 0 80 4c 00
        E 0 80 34 00
        E 0 80 1c 00
        E 360 90 64 6b
        E 0 90 4c 6b
        E 0 90 34 6b
        E 0 90 1c 6b
        E 120 80 64 00
        E 0 80 4c 00
        E 0 80 34 00
        E 0 80 1c 00
        E 360 90 64 6b
        E 0 90 4c 6b
        E 0 90 34 6b
        E 0 90 1c 6b
        E 120 80 64 00
        E 0 80 4c 00
        E 0 80 34 00
        E 0 80 1c 00
        E 360 90 64 6b
        E 0 90 67 64
        E 0 90 4c 6b
        E 0 90 4f 64
        E 0 90 34 6b
        E 0 90 37 64
        E 0 90 1c 6b
        E 0 90 1f 64
        E 420 80 64 00
        E 0 80 67 00
        E 0 80 4c 00
        E 0 80 4f 00
        E 0 80 34 00
        E 0 80 37 00
        E 0 80 1c 00
        E 0 80 1f 00
        E 60 90 64 6a
        E 0 90 4c 6a
        E 0 90 34 6a
        E 120 80 64 00
        E 0 80 4c 00
        E 0 80 34 00
        E 360 90 64 6a
        E 0 90 4c 6a
        E 0 90 34 6a
        E 0 90 1c 6a
        E 120 80 64 00
        E 0 80 4c 00
        E 0 80 34 00
        E 0 80 1c 00
        E 360 90 64 6a
        E 0 90 4c 6a
        E 0 90 34 6a
        E 120 80 64 00
        E 0 80 4c 00
        E 0 80 34 00
        E 360 90 64 66
        E 0 90 6c 66
        E 0 90 4c 66
        E 0 90 34 66
        E 0 90 1c 66
        E 120 80 64 00
        E 0 80 6c 00
        E 0 80 4c 00
        E 0 80 34 00
        E 0 80 1c 00
        E 360 90 64 68
        E 0 90 4c 68
        E 0 90 34 68
        E 120 80 64 00
        E 0 80 4c 00
        E 0 80 34 00
        E 360 90 64 68
        E 0 90 4c 68
        E 0 90 34 68
        E 0 90 1c 68
        E 120 80 64 00
        E 0 80 4c 00
        E 0 80 34 00
        E 0 80 1c 00
        E 360 90 64 68
        E 0 90 4c 68
        E 0 90 34 68
        E 120 80 64 00
        E 0 80 4c 00
        E 0 80 34 00
        E 360 90 64 66
        E 0 90 4c 66
        E 0 90 34 66
        E 0 90 1c 66
        E 1440 80 73 00
        E 0 80 64 00
        E 0 80 4c 00
        E 0 80 34 00
        E 0 80 1c 00
        <X 480 0
          /wFbYmVnaW5fcGcgc29uZ190cmFpbmVyX3BnXzNd
        >
        E 0 90 62 6a
        E 0 90 6c 6a
        E 0 90 4a 6a
        E 0 90 32 6a
        E 0 90 1a 6a
        E 0 9b 67 64
        E 0 9b 4f 64
        E 0 9b 37 64
        E 0 9b 1f 64
        E 120 80 6c 00
        E 840 80 62 00
        E 0 80 4a 00
        E 0 80 32 00
        E 0 80 1a 00
        E 0 8b 67 00
        E 0 8b 4f 00
        E 0 8b 37 00
        E 0 8b 1f 00
        E 480 90 63 6a
        E 0 90 4b 6a
        E 0 90 33 6a
        E 120 80 63 00
        E 0 80 4b 00
        E 0 80 33 00
        E 0 90 63 6c
        E 0 90 66 64
        <X 360 0
          /wFbcGdfbm9ybSBzb25nX3RyYWluZXJfcGdfM10=
        >
        E 360 80 63 00
        E 0 80 66 00
        E 120 90 63 6a
        E 0 90 4b 6a
        E 0 90 33 6a
        E 120 80 63 00
        E 0 80 4b 00
        E 0 80 33 00
        E 360 90 62 6a
        E 0 90 67 64
        E 0 90 4a 6a
        E 0 90 4f 64
        E 0 90 32 6a
        E 0 90 37 64
        E 0 90 1a 6a
        E 0 90 1f 64
        E 840 80 62 00
        E 0 80 67 00
        E 0 80 4a 00
        E 0 80 4f 00
        E 0 80 32 00
        E 0 80 37 00
        E 0 80 1a 00
        E 0 80 1f 00
        E 120 90 62 68
        E 0 90 6c 68
        E 0 90 4a 68
        E 0 90 32 68
        E 0 90 1a 68
        E 120 80 62 00
        E 0 80 6c 00
        E 0 80 4a 00
        E 0 80 32 00
        E 0 80 1a 00
        E 360 90 62 68
        E 0 90 4a 68
        E 0 90 32 68
        E 0 90 1a 68
        E 120 80 62 00
        E 0 80 4a 00
        E 0 80 32 00
        E 0 80 1a 00
        E 360 90 62 68
        E 0 90 4a 68
        E 0 90 32 68
        E 0 90 1a 68
        E 120 80 62 00
        E 0 80 4a 00
        E 0 80 32 00
        E 0 80 1a 00
        E 360 90 62 68
        E 0 90 4a 68
        E 0 90 32 68
        E 0 90 1a 68
        E 120 80 62 00
        E 0 80 4a 00
        E 0 80 32 00
        E 0 80 1a 00
        E 360 90 62 68
        E 0 90 74 64
        E 0 90 4a 68
        E 0 90 32 68
        E 0 90 1a 68
        E 120 80 62 00
        E 0 80 4a 00
        E 0 80 32 00
        E 0 80 1a 00
        E 360 90 61 68
        E 0 90 49 68
        E 0 90 31 68
        E 120 80 61 00
        E 0 80 49 00
        E 0 80 31 00
        E 120 90 61 6a
        E 0 90 49 6a
        E 120 80 61 00
        E 0 80 49 00
        E 120 90 62 68
        E 0 90 4a 68
        E 0 90 32 68
        E 0 90 1a 68
        E 120 80 62 00
        E 0 80 4a 00
        E 0 80 32 00
        E 0 80 1a 00
        E 120 90 61 68
        E 0 90 49 68
        E 120 80 61 00
        E 0 80 49 00
        E 120 90 61 6a
        E 0 90 49 6a
        E 0 90 31 6a
        E 120 80 61 00
        E 0 80 49 00
        E 0 80 31 00
        E 120 90 62 68
        E 0 90 4a 68
        E 120 80 62 00
        E 0 80 4a 00
        <X 120 0
          /wFbZW5kX3BnIHNvbmdfdHJhaW5lcl9wZ18zXQ==
        >
        <X 0 0
          /wFbYmVnaW5fcGcgc29uZ190cmFpbmVyX3BnXzRd
        >
        E 0 90 62 6a
        E 0 90 6c 6a
        E 0 90 4a 6a
        E 0 90 32 6a
        E 0 90 1a 6a
        E 0 9b 67 64
        E 0 9b 4f 64
        E 0 9b 37 64
        E 0 9b 1f 64
        E 120 80 6c 00
        E 840 80 62 00
        E 0 80 4a 00
        E 0 80 32 00
        E 0 80 1a 00
        E 0 8b 67 00
        E 0 8b 4f 00
        E 0 8b 37 00
        E 0 8b 1f 00
        E 120 80 74 00
        E 360 90 61 68
        E 0 90 6c 68
        E 0 90 49 68
        E 0 90 31 68
        E 120 80 61 00
        E 0 80 6c 00
        E 0 80 49 00
        E 0 80 31 00
        E 0 90 61 6a
        E 0 90 66 64
        <X 360 0
          /wFbcGdfbm9ybSBzb25nX3RyYWluZXJfcGdfNF0=
        >
        E 360 80 61 00
        E 0 80 66 00
        E 120 90 61 68
        E 0 90 49 68
        E 0 90 31 68
        E 120 80 61 00
        E 0 80 49 00
        E 0 80 31 00
        E 360 90 60 68
        E 0 90 48 68
        E 0 90 30 68
        E 0 90 18 68
        E 840 80 60 00
        E 0 80 48 00
        E 0 80 30 00
        E 0 80 18 00
        E 120 90 60 66
        E 0 90 6c 66
        E 0 90 48 66
        E 0 90 30 66
        E 0 90 18 66
        E 120 80 60 00
        E 0 80 6c 00
        E 0 80 48 00
        E 0 80 30 00
        E 0 80 18 00
        E 360 90 60 66
        E 0 90 48 66
        E 0 90 30 66
        E 0 90 18 66
        E 120 80 60 00
        E 0 80 48 00
        E 0 80 30 00
        E 0 80 18 00
        E 360 90 60 66
        E 0 90 48 66
        E 0 90 30 66
        E 0 90 18 66
        E 120 80 60 00
        E 0 80 48 00
        E 0 80 30 00
        E 0 80 18 00
        E 360 90 60 66
        E 0 90 48 66
        E 0 90 30 66
        E 0 90 18 66
        E 120 80 60 00
        E 0 80 48 00
        E 0 80 30 00
        E 0 80 18 00
        E 360 90 60 66
        E 0 90 48 66
        E 0 90 30 66
        E 0 90 18 66
        E 120 80 60 00
        E 0 80 48 00
        E 0 80 30 00
        E 0 80 18 00
        E 360 90 61 68
        E 0 90 6c 68
        E 0 90 49 68
        E 0 90 31 68
        E 120 80 61 00
        E 0 80 6c 00
        E 0 80 49 00
        E 0 80 31 00
        E 120 90 61 6a
        E 0 90 49 6a
        E 120 80 61 00
        E 0 80 49 00
        E 120 90 62 68
        E 0 90 4a 68
        E 0 90 32 68
        E 0 90 1a 68
        E 120 80 62 00
        E 0 80 4a 00
        E 0 80 32 00
        E 0 80 1a 00
        E 120 90 61 68
        E 0 90 49 68
        E 120 80 61 00
        E 0 80 49 00
        E 120 90 61 6a
        E 0 90 49 6a
        E 0 90 31 6a
        E 120 80 61 00
        E 0 80 49 00
        E 0 80 31 00
        E 120 90 62 68
        E 0 90 4a 68
        E 120 80 62 00
        E 0 80 4a 00
        <X 120 0
          /wFbZW5kX3BnIHNvbmdfdHJhaW5lcl9wZ180XQ==
        >
        E 0 90 62 6a
        E 0 90 6c 6a
        E 0 90 4a 6a
        E 0 90 32 6a
        E 0 90 1a 6a
        E 0 9b 67 64
        E 0 9b 4f 64
        E 0 9b 37 64
        E 0 9b 1f 64
        E 120 80 6c 00
        E 840 80 62 00
        E 0 80 4a 00
        E 0 80 32 00
        E 0 80 1a 00
        E 0 8b 67 00
        E 0 8b 4f 00
        E 0 8b 37 00
        E 0 8b 1f 00
        E 480 90 63 6a
        E 0 90 4b 6a
        E 0 90 33 6a
        E 120 80 63 00
        E 0 80 4b 00
        E 0 80 33 00
        E 0 90 66 64
        E 0 92 63 6c
        E 720 80 66 00
        E 0 82 63 00
        E 120 90 63 6a
        E 0 90 4b 6a
        E 0 90 33 6a
        E 120 80 63 00
        E 0 80 4b 00
        E 0 80 33 00
        E 360 90 62 6a
        E 0 90 67 64
        E 0 90 4a 6a
        E 0 90 4f 64
        E 0 90 32 6a
        E 0 90 37 64
        E 0 90 1a 6a
        E 0 90 1f 64
        E 840 80 62 00
        E 0 80 67 00
        E 0 80 4a 00
        E 0 80 4f 00
        E 0 80 32 00
        E 0 80 37 00
        E 0 80 1a 00
        E 0 80 1f 00
        E 120 90 62 68
        E 0 90 6c 68
        E 0 90 4a 68
        E 0 90 32 68
        E 0 90 1a 68
        E 120 80 62 00
        E 0 80 6c 00
        E 0 80 4a 00
        E 0 80 32 00
        E 0 80 1a 00
        E 360 90 62 68
        E 0 90 4a 68
        E 0 90 32 68
        E 0 90 1a 68
        E 120 80 62 00
        E 0 80 4a 00
        E 0 80 32 00
        E 0 80 1a 00
        E 360 90 62 68
        E 0 90 4a 68
        E 0 90 32 68
        E 0 90 1a 68
        E 120 80 62 00
        E 0 80 4a 00
        E 0 80 32 00
        E 0 80 1a 00
        E 360 90 62 68
        E 0 90 4a 68
        E 0 90 32 68
        E 0 90 1a 68
        E 120 80 62 00
        E 0 80 4a 00
        E 0 80 32 00
        E 0 80 1a 00
        E 360 90 62 68
        E 0 90 4a 68
        E 0 90 32 68
        E 0 90 1a 68
        E 120 80 62 00
        E 0 80 4a 00
        E 0 80 32 00
        E 0 80 1a 00
        E 360 90 61 68
        E 0 90 49 68
        E 0 90 31 68
        E 120 80 61 00
        E 0 80 49 00
        E 0 80 31 00
        E 120 90 61 6a
        E 0 90 49 6a
        E 120 80 61 00
        E 0 80 49 00
        E 120 90 62 68
        E 0 90 4a 68
        E 0 90 32 68
        E 0 90 1a 68
        E 120 80 62 00
        E 0 80 4a 00
        E 0 80 32 00
        E 0 80 1a 00
        E 120 90 61 68
        E 0 90 49 68
        E 120 80 61 00
        E 0 80 49 00
        E 120 90 61 6a
        E 0 90 49 6a
        E 0 90 31 6a
        E 120 80 61 00
        E 0 80 49 00
        E 0 80 31 00
        E 120 90 62 68
        E 0 90 4a 68
        E 120 80 62 00
        E 0 80 4a 00
        E 120 90 62 6a
        E 0 90 6c 6a
        E 0 90 4a 6a
        E 0 90 32 6a
        E 0 90 1a 6a
        E 0 9b 67 64
        E 0 9b 4f 64
        E 0 9b 37 64
        E 0 9b 1f 64
        E 120 80 6c 00
        E 840 80 62 00
        E 0 80 4a 00
        E 0 80 32 00
        E 0 80 1a 00
        E 0 8b 67 00
        E 0 8b 4f 00
        E 0 8b 37 00
        E 0 8b 1f 00
        E 480 90 61 68
        E 0 90 6c 68
        E 0 90 49 68
        E 0 90 31 68
        E 120 80 61 00
        E 0 80 6c 00
        E 0 80 49 00
        E 0 80 31 00
        E 0 90 61 6a
        E 0 90 66 64
        E 720 80 61 00
        E 0 80 66 00
        E 120 90 61 68
        E 0 90 49 68
        E 0 90 31 68
        E 120 80 61 00
        E 0 80 49 00
        E 0 80 31 00
        E 360 90 60 68
        E 0 90 48 68
        E 0 90 30 68
        E 0 90 18 68
        E 840 80 60 00
        E 0 80 48 00
        E 0 80 30 00
        E 0 80 18 00
        E 120 90 60 66
        E 0 90 6c 66
        E 0 90 48 66
        E 0 90 30 66
        E 0 90 18 66
        E 120 80 60 00
        E 0 80 6c 00
        E 0 80 48 00
        E 0 80 30 00
        E 0 80 18 00
        E 360 90 60 66
        E 0 90 48 66
        E 0 90 30 66
        E 0 90 18 66
        E 120 80 60 00
        E 0 80 48 00
        E 0 80 30 00
        E 0 80 18 00
        E 360 90 60 66
        E 0 90 48 66
        E 0 90 30 66
        E 0 90 18 66
        E 120 80 60 00
        E 0 80 48 00
        E 0 80 30 00
        E 0 80 18 00
        E 360 90 60 66
        E 0 90 48 66
        E 0 90 30 66
        E 0 90 18 66
        E 120 80 60 00
        E 0 80 48 00
        E 0 80 30 00
        E 0 80 18 00
        E 360 90 60 66
        E 0 90 48 66
        E 0 90 30 66
        E 0 90 18 66
        E 960 80 60 00
        E 0 80 48 00
        E 0 80 30 00
        E 0 80 18 00
        E 480 90 06 64
        E 0 90 62 68
        E 0 90 63 67
        E 0 90 6c 67
        E 0 90 4a 68
        E 0 90 4b 67
        E 0 90 32 68
        E 0 90 33 67
        E 120 80 06 00
        E 0 80 62 00
        E 0 80 63 00
        E 0 80 6c 00
        E 0 80 4a 00
        E 0 80 4b 00
        E 0 80 32 00
        E 0 80 33 00
        E 360 90 08 64
        E 0 90 62 6a
        E 0 90 63 68
        E 0 90 6c 68
        E 0 90 4a 6a
        E 0 90 4b 68
        E 0 90 32 6a
        E 0 90 33 68
        E 0 90 1a 6a
        E 0 90 1b 68
        E 0 9b 67 64
        E 0 9b 4f 64
        E 0 9b 37 64
        E 0 9b 1f 64
        E 120 80 08 00
        E 0 80 6c 00
        E 840 80 62 00
        E 0 80 63 00
        E 0 80 4a 00
        E 0 80 4b 00
        E 0 80 32 00
        E 0 80 33 00
        E 0 80 1a 00
        E 0 80 1b 00
        E 0 8b 67 00
        E 0 8b 4f 00
        E 0 8b 37 00
        E 0 8b 1f 00
        E 480 90 0d 64
        E 0 90 63 6a
        E 0 90 64 6a
        E 0 90 6c 6a
        E 0 90 74 64
        E 0 90 4b 6a
        E 0 90 4c 6a
        E 0 90 33 6a
        E 0 90 34 6a
        E 120 80 0d 00
        E 0 80 63 00
        E 0 80 64 00
        E 0 80 6c 00
        E 0 80 4b 00
        E 0 80 4c 00
        E 0 80 33 00
        E 0 80 34 00
        E 0 90 0f 64
        E 0 90 63 6c
        E 0 90 64 6b
        E 0 90 66 64
        E 0 90 6c 6b
        E 120 80 0f 00
        E 0 80 6c 00
        E 600 80 63 00
        E 0 80 64 00
        E 0 80 66 00
        E 120 90 0d 64
        E 0 90 63 6a
        E 0 90 64 6a
        E 0 90 6c 6a
        E 0 90 4b 6a
        E 0 90 4c 6a
        E 0 90 33 6a
        E 0 90 34 6a
        E 120 80 0d 00
        E 0 80 63 00
        E 0 80 64 00
        E 0 80 6c 00
        E 0 80 4b 00
        E 0 80 4c 00
        E 0 80 33 00
        E 0 80 34 00
        E 360 90 0b 64
        E 0 90 63 68
        E 0 90 64 68
        E 0 90 6c 68
        E 0 90 4b 68
        E 0 90 4c 68
        E 0 90 33 68
        E 0 90 34 68
        E 0 90 1b 68
        E 0 90 1c 68
        E 120 80 0b 00
        E 0 80 63 00
        E 0 80 64 00
        E 0 80 6c 00
        E 0 80 4b 00
        E 0 80 4c 00
        E 0 80 33 00
        E 0 80 34 00
        E 0 80 1b 00
        E 0 80 1c 00
        E 360 90 0d 64
        E 0 90 63 6a
        E 0 90 64 6a
        E 0 90 6c 6a
        E 0 90 4b 6a
        E 0 90 4c 6a
        E 0 90 33 6a
        E 0 90 34 6a
        E 120 80 0d 00
        E 0 80 63 00
        E 0 80 64 00
        E 0 80 6c 00
        E 0 80 4b 00
        E 0 80 4c 00
        E 0 80 33 00
        E 0 80 34 00
        E 360 90 0a 64
        E 0 90 63 67
        E 0 90 64 66
        E 0 90 6c 66
        E 0 90 4b 67
        E 0 90 4c 66
        E 0 90 33 67
        E 0 90 34 66
        E 0 90 1b 67
        E 0 90 1c 66
        E 120 80 0a 00
        E 0 80 63 00
        E 0 80 64 00
        E 0 80 6c 00
        E 0 80 4b 00
        E 0 80 4c 00
        E 0 80 33 00
        E 0 80 34 00
        E 0 80 1b 00
        E 0 80 1c 00
        E 120 90 0b 64
        E 0 90 63 68
        E 0 90 64 68
        E 0 90 66 64
        E 0 90 6c 68
        E 0 90 4b 68
        E 0 90 4c 68
        E 0 90 4e 64
        E 120 80 0b 00
        E 0 80 63 00
        E 0 80 64 00
        E 0 80 6c 00
        E 0 80 4b 00
        E 0 80 4c 00
        E 120 90 0a 64
        E 0 90 63 67
        E 0 90 64 66
        E 0 90 6c 66
        E 0 90 4b 67
        E 0 90 4c 66
        E 0 90 33 67
        E 0 90 34 66
        E 120 80 66 00
        E 0 80 4e 00
        E 0 80 0a 00
        E 0 80 63 00
        E 0 80 64 00
        E 0 80 6c 00
        E 0 80 4b 00
        E 0 80 4c 00
        E 0 80 33 00
        E 0 80 34 00
        E 360 90 06 64
        E 0 90 62 68
        E 0 90 63 67
        E 0 90 6c 67
        E 0 90 4a 68
        E 0 90 4b 67
        E 0 90 32 68
        E 0 90 33 67
        E 0 90 1a 68
        E 0 90 1b 67
        E 120 80 74 00
        E 0 80 06 00
        E 0 80 6c 00
        E 2160 80 62 00
        E 0 80 63 00
        E 0 80 4a 00
        E 0 80 4b 00
        E 0 80 32 00
        E 0 80 33 00
        E 0 80 1a 00
        E 0 80 1b 00
        E 120 90 06 64
        E 0 90 62 68
        E 0 90 63 67
        E 0 90 6c 67
        E 0 90 4a 68
        E 0 90 4b 67
        E 0 90 32 68
        E 0 90 33 67
        E 120 80 06 00
        E 0 80 62 00
        E 0 80 63 00
        E 0 80 6c 00
        E 0 80 4a 00
        E 0 80 4b 00
        E 0 80 32 00
        E 0 80 33 00
        E 360 90 08 64
        E 0 90 62 6a
        E 0 90 63 68
        E 0 90 6c 68
        E 0 90 4a 6a
        E 0 90 4b 68
        E 0 90 32 6a
        E 0 90 33 68
        E 0 90 1a 6a
        E 0 90 1b 68
        E 0 9b 67 64
        E 0 9b 4f 64
        E 0 9b 37 64
        E 0 9b 1f 64
        E 120 80 08 00
        E 0 80 6c 00
        E 840 80 62 00
        E 0 80 63 00
        E 0 80 4a 00
        E 0 80 4b 00
        E 0 80 32 00
        E 0 80 33 00
        E 0 80 1a 00
        E 0 80 1b 00
        E 0 8b 67 00
        E 0 8b 4f 00
        E 0 8b 37 00
        E 0 8b 1f 00
        E 480 90 0d 64
        E 0 90 63 6a
        E 0 90 64 6a
        E 0 90 6c 6a
        E 0 90 4b 6a
        E 0 90 4c 6a
        E 0 90 33 6a
        E 0 90 34 6a
        E 120 80 0d 00
        E 0 80 63 00
        E 0 80 64 00
        E 0 80 6c 00
        E 0 80 4b 00
        E 0 80 4c 00
        E 0 80 33 00
        E 0 80 34 00
        E 0 90 0f 64
        E 0 90 63 6c
        E 0 90 64 6b
        E 0 90 66 64
        E 0 90 6c 6b
        E 120 80 0f 00
        E 0 80 6c 00
        E 600 80 63 00
        E 0 80 64 00
        E 0 80 66 00
        E 120 90 0d 64
        E 0 90 63 6a
        E 0 90 64 6a
        E 0 90 6c 6a
        E 0 90 4b 6a
        E 0 90 4c 6a
        E 0 90 33 6a
        E 0 90 34 6a
        E 120 80 0d 00
        E 0 80 63 00
        E 0 80 64 00
        E 0 80 6c 00
        E 0 80 4b 00
        E 0 80 4c 00
        E 0 80 33 00
        E 0 80 34 00
        E 360 90 0b 64
        E 0 90 63 68
        E 0 90 64 68
        E 0 90 6c 68
        E 0 90 4b 68
        E 0 90 4c 68
        E 0 90 33 68
        E 0 90 34 68
        E 0 90 1b 68
        E 0 90 1c 68
        E 120 80 0b 00
        E 0 80 63 00
        E 0 80 64 00
        E 0 80 6c 00
        E 0 80 4b 00
        E 0 80 4c 00
        E 0 80 33 00
        E 0 80 34 00
        E 0 80 1b 00
        E 0 80 1c 00
        E 360 90 0d 64
        E 0 90 63 6a
        E 0 90 64 6a
        E 0 90 6c 6a
        E 0 90 4b 6a
        E 0 90 4c 6a
        E 0 90 33 6a
        E 0 90 34 6a
        E 120 80 0d 00
        E 0 80 63 00
        E 0 80 64 00
        E 0 80 6c 00
        E 0 80 4b 00
        E 0 80 4c 00
        E 0 80 33 00
        E 0 80 34 00
        E 360 90 0a 64
        E 0 90 63 67
        E 0 90 64 66
        E 0 90 6c 66
        E 0 90 4b 67
        E 0 90 4c 66
        E 0 90 33 67
        E 0 90 34 66
        E 0 90 1b 67
        E 0 90 1c 66
        E 120 80 0a 00
        E 0 80 63 00
        E 0 80 64 00
        E 0 80 6c 00
        E 0 80 4b 00
        E 0 80 4c 00
        E 0 80 33 00
        E 0 80 34 00
        E 0 80 1b 00
        E 0 80 1c 00
        E 120 90 0b 64
        E 0 90 63 68
        E 0 90 64 68
        E 0 90 66 64
        E 0 90 6c 68
        E 0 90 4b 68
        E 0 90 4c 68
        E 0 90 4e 64
        E 120 80 0b 00
        E 0 80 63 00
        E 0 80 64 00
        E 0 80 6c 00
        E 0 80 4b 00
        E 0 80 4c 00
        E 120 90 0a 64
        E 0 90 63 67
        E 0 90 64 66
        E 0 90 6c 66
        E 0 90 4b 67
        E 0 90 4c 66
        E 0 90 33 67
        E 0 90 34 66
        E 120 80 66 00
        E 0 80 4e 00
        E 0 80 0a 00
        E 0 80 63 00
        E 0 80 64 00
        E 0 80 6c 00
        E 0 80 4b 00
        E 0 80 4c 00
        E 0 80 33 00
        E 0 80 34 00
        E 360 90 06 64
        E 0 90 62 68
        E 0 90 63 67
        E 0 90 6c 67
        E 0 90 4a 68
        E 0 90 4b 67
        E 0 90 32 68
        E 0 90 33 67
        E 0 90 1a 68
        E 0 90 1b 67
        E 120 80 06 00
        E 0 80 6c 00
        E 2160 80 62 00
        E 0 80 63 00
        E 0 80 4a 00
        E 0 80 4b 00
        E 0 80 32 00
        E 0 80 33 00
        E 0 80 1a 00
        E 0 80 1b 00
        E 120 90 06 64
        E 0 90 62 68
        E 0 90 63 67
        E 0 90 6c 67
        E 0 90 4a 68
        E 0 90 4b 67
        E 0 90 32 68
        E 0 90 33 67
        E 120 80 06 00
        E 0 80 62 00
        E 0 80 63 00
        E 0 80 6c 00
        E 0 80 4a 00
        E 0 80 4b 00
        E 0 80 32 00
        E 0 80 33 00
        E 360 90 08 64
        E 0 90 62 6a
        E 0 90 63 68
        E 0 90 6c 68
        E 0 90 4a 6a
        E 0 90 4b 68
        E 0 90 32 6a
        E 0 90 33 68
        E 0 90 1a 6a
        E 0 90 1b 68
        E 0 9b 67 64
        E 0 9b 4f 64
        E 0 9b 37 64
        E 0 9b 1f 64
        E 120 80 08 00
        E 0 80 6c 00
        E 840 80 62 00
        E 0 80 63 00
        E 0 80 4a 00
        E 0 80 4b 00
        E 0 80 32 00
        E 0 80 33 00
        E 0 80 1a 00
        E 0 80 1b 00
        E 0 8b 67 00
        E 0 8b 4f 00
        E 0 8b 37 00
        E 0 8b 1f 00
        E 480 90 0d 64
        E 0 90 63 6a
        E 0 90 64 6a
        E 0 90 6c 6a
        E 0 90 4b 6a
        E 0 90 4c 6a
        E 0 90 33 6a
        E 0 90 34 6a
        E 120 80 0d 00
        E 0 80 63 00
        E 0 80 64 00
        E 0 80 6c 00
        E 0 80 4b 00
        E 0 80 4c 00
        E 0 80 33 00
        E 0 80 34 00
        E 0 90 0f 64
        E 0 90 63 6c
        E 0 90 64 6b
        E 0 90 66 64
        E 0 90 6c 6b
        E 120 80 0f 00
        E 0 80 6c 00
        E 600 80 63 00
        E 0 80 64 00
        E 0 80 66 00
        E 120 90 0d 64
        E 0 90 63 6a
        E 0 90 64 6a
        E 0 90 6c 6a
        E 0 90 4b 6a
        E 0 90 4c 6a
        E 0 90 33 6a
        E 0 90 34 6a
        E 120 80 0d 00
        E 0 80 63 00
        E 0 80 64 00
        E 0 80 6c 00
        E 0 80 4b 00
        E 0 80 4c 00
        E 0 80 33 00
        E 0 80 34 00
        E 360 90 0b 64
        E 0 90 63 68
        E 0 90 64 68
        E 0 90 6c 68
        E 0 90 4b 68
        E 0 90 4c 68
        E 0 90 33 68
        E 0 90 34 68
        E 0 90 1b 68
        E 0 90 1c 68
        E 120 80 0b 00
        E 0 80 63 00
        E 0 80 64 00
        E 0 80 6c 00
        E 0 80 4b 00
        E 0 80 4c 00
        E 0 80 33 00
        E 0 80 34 00
        E 0 80 1b 00
        E 0 80 1c 00
        E 360 90 0d 64
        E 0 90 63 6a
        E 0 90 64 6a
        E 0 90 6c 6a
        E 0 90 4b 6a
        E 0 90 4c 6a
        E 0 90 33 6a
        E 0 90 34 6a
        E 120 80 0d 00
        E 0 80 63 00
        E 0 80 64 00
        E 0 80 6c 00
        E 0 80 4b 00
        E 0 80 4c 00
        E 0 80 33 00
        E 0 80 34 00
        E 360 90 0a 64
        E 0 90 63 67
        E 0 90 64 66
        E 0 90 6c 66
        E 0 90 4b 67
        E 0 90 4c 66
        E 0 90 33 67
        E 0 90 34 66
        E 0 90 1b 67
        E 0 90 1c 66
        E 120 80 0a 00
        E 0 80 63 00
        E 0 80 64 00
        E 0 80 6c 00
        E 0 80 4b 00
        E 0 80 4c 00
        E 0 80 33 00
        E 0 80 34 00
        E 0 80 1b 00
        E 0 80 1c 00
        E 120 90 0b 64
        E 0 90 63 68
        E 0 90 64 68
        E 0 90 66 64
        E 0 90 6c 68
        E 0 90 4b 68
        E 0 90 4c 68
        E 0 90 4e 64
        E 120 80 0b 00
        E 0 80 63 00
        E 0 80 64 00
        E 0 80 6c 00
        E 0 80 4b 00
        E 0 80 4c 00
        E 120 90 0a 64
        E 0 90 63 67
        E 0 90 64 66
        E 0 90 6c 66
        E 0 90 4b 67
        E 0 90 4c 66
        E 0 90 33 67
        E 0 90 34 66
        E 120 80 66 00
        E 0 80 4e 00
        E 0 80 0a 00
        E 0 80 63 00
        E 0 80 64 00
        E 0 80 6c 00
        E 0 80 4b 00
        E 0 80 4c 00
        E 0 80 33 00
        E 0 80 34 00
        E 360 90 06 64
        E 0 90 62 68
        E 0 90 63 67
        E 0 90 6c 67
        E 0 90 4a 68
        E 0 90 4b 67
        E 0 90 32 68
        E 0 90 33 67
        E 0 90 1a 68
        E 0 90 1b 67
        E 120 80 06 00
        E 0 80 6c 00
        E 2160 80 62 00
        E 0 80 63 00
        E 0 80 4a 00
        E 0 80 4b 00
        E 0 80 32 00
        E 0 80 33 00
        E 0 80 1a 00
        E 0 80 1b 00
        E 120 90 06 64
        E 0 90 62 68
        E 0 90 63 67
        E 0 90 6c 67
        E 0 90 4a 68
        E 0 90 4b 67
        E 0 90 32 68
        E 0 90 33 67
        E 120 80 06 00
        E 0 80 62 00
        E 0 80 63 00
        E 0 80 6c 00
        E 0 80 4a 00
        E 0 80 4b 00
        E 0 80 32 00
        E 0 80 33 00
        E 360 90 08 64
        E 0 90 62 6a
        E 0 90 63 68
        E 0 90 6c 68
        E 0 90 4a 6a
        E 0 90 4b 68
        E 0 90 32 6a
        E 0 90 33 68
        E 0 90 1a 6a
        E 0 90 1b 68
        E 0 9b 67 64
        E 0 9b 4f 64
        E 0 9b 37 64
        E 0 9b 1f 64
        E 120 80 08 00
        E 0 80 6c 00
        E 840 80 62 00
        E 0 80 63 00
        E 0 80 4a 00
        E 0 80 4b 00
        E 0 80 32 00
        E 0 80 33 00
        E 0 80 1a 00
        E 0 80 1b 00
        E 0 8b 67 00
        E 0 8b 4f 00
        E 0 8b 37 00
        E 0 8b 1f 00
        E 480 90 0d 64
        E 0 90 63 6a
        E 0 90 64 6a
        E 0 90 6c 6a
        E 0 90 4b 6a
        E 0 90 4c 6a
        E 0 90 33 6a
        E 0 90 34 6a
        E 120 80 0d 00
        E 0 80 63 00
        E 0 80 64 00
        E 0 80 6c 00
        E 0 80 4b 00
        E 0 80 4c 00
        E 0 80 33 00
        E 0 80 34 00
        E 0 90 0f 64
        E 0 90 63 6c
        E 0 90 64 6b
        E 0 90 66 64
        E 0 90 6c 6b
        E 120 80 0f 00
        E 0 80 6c 00
        E 600 80 63 00
        E 0 80 64 00
        E 0 80 66 00
        E 120 90 0d 64
        E 0 90 63 6a
        E 0 90 64 6a
        E 0 90 6c 6a
        E 0 90 4b 6a
        E 0 90 4c 6a
        E 0 90 33 6a
        E 0 90 34 6a
        E 120 80 0d 00
        E 0 80 63 00
        E 0 80 64 00
        E 0 80 6c 00
        E 0 80 4b 00
        E 0 80 4c 00
        E 0 80 33 00
        E 0 80 34 00
        E 360 90 0b 64
        E 0 90 63 68
        E 0 90 64 68
        E 0 90 6c 68
        E 0 90 4b 68
        E 0 90 4c 68
        E 0 90 33 68
        E 0 90 34 68
        E 0 90 1b 68
        E 0 90 1c 68
        E 120 80 0b 00
        E 0 80 63 00
        E 0 80 64 00
        E 0 80 6c 00
        E 0 80 4b 00
        E 0 80 4c 00
        E 0 80 33 00
        E 0 80 34 00
        E 0 80 1b 00
        E 0 80 1c 00
        E 360 90 0d 64
        E 0 90 63 6a
        E 0 90 64 6a
        E 0 90 6c 6a
        E 0 90 4b 6a
        E 0 90 4c 6a
        E 0 90 33 6a
        E 0 90 34 6a
        E 120 80 0d 00
        E 0 80 63 00
        E 0 80 64 00
        E 0 80 6c 00
        E 0 80 4b 00
        E 0 80 4c 00
        E 0 80 33 00
        E 0 80 34 00
        E 360 90 0a 64
        E 0 90 63 67
        E 0 90 64 66
        E 0 90 6c 66
        E 0 90 4b 67
        E 0 90 4c 66
        E 0 90 33 67
        E 0 90 34 66
        E 0 90 1b 67
        E 0 90 1c 66
        E 120 80 0a 00
        E 0 80 63 00
        E 0 80 64 00
        E 0 80 6c 00
        E 0 80 4b 00
        E 0 80 4c 00
        E 0 80 33 00
        E 0 80 34 00
        E 0 80 1b 00
        E 0 80 1c 00
        E 120 90 0b 64
        E 0 90 63 68
        E 0 90 64 68
        E 0 90 66 64
        E 0 90 6c 68
        E 0 90 4b 68
        E 0 90 4c 68
        E 0 90 4e 64
        E 120 80 0b 00
        E 0 80 63 00
        E 0 80 64 00
        E 0 80 6c 00
        E 0 80 4b 00
        E 0 80 4c 00
        E 120 90 0a 64
        E 0 90 63 67
        E 0 90 64 66
        E 0 90 6c 66
        E 0 90 4b 67
        E 0 90 4c 66
        E 0 90 33 67
        E 0 90 34 66
        E 120 80 66 00
        E 0 80 4e 00
        E 0 80 0a 00
        E 0 80 63 00
        E 0 80 64 00
        E 0 80 6c 00
        E 0 80 4b 00
        E 0 80 4c 00
        E 0 80 33 00
        E 0 80 34 00
        E 360 90 06 64
        E 0 90 62 68
        E 0 90 63 67
        E 0 90 6c 67
        E 0 90 4a 68
        E 0 90 4b 67
        E 0 90 32 68
        E 0 90 33 67
        E 0 90 1a 68
        E 0 90 1b 67
        E 120 80 06 00
        E 0 80 6c 00
        E 2280 80 62 00
        E 0 80 63 00
        E 0 80 4a 00
        E 0 80 4b 00
        E 0 80 32 00
        E 0 80 33 00
        E 0 80 1a 00
        E 0 80 1b 00
        <X 480 0
          /wFbYmVnaW5fcGcgc29uZ190cmFpbmVyX3BnXzVd
        >
        E 0 90 0b 64
        E 0 90 61 66
        E 0 90 62 68
        E 0 90 63 68
        E 0 90 64 68
        E 0 90 65 66
        E 0 90 6c 66
        E 0 90 74 64
        E 0 90 49 66
        E 0 90 4a 68
        E 0 90 4b 68
        E 0 90 4c 68
        E 0 90 4d 66
        E 0 90 31 66
        E 0 90 32 68
        E 0 90 33 68
        E 0 90 34 68
        E 0 90 35 66
        E 0 90 19 66
        E 0 90 1a 68
        E 0 90 1b 68
        E 0 90 1c 68
        E 0 90 1d 66
        E 120 80 0b 00
        E 0 80 6c 00
        E 480 80 61 00
        E 0 80 62 00
        E 0 80 63 00
        E 0 80 64 00
        E 0 80 65 00
        E 0 80 49 00
        E 0 80 4a 00
        E 0 80 4b 00
        E 0 80 4c 00
        E 0 80 4d 00
        E 0 80 31 00
        E 0 80 32 00
        E 0 80 33 00
        E 0 80 34 00
        E 0 80 35 00
        E 0 80 19 00
        E 0 80 1a 00
        E 0 80 1b 00
        E 0 80 1c 00
        E 0 80 1d 00
        E 120 90 61 66
        E 0 90 62 68
        E 0 90 63 68
        E 0 90 64 68
        E 0 90 65 66
        E 0 90 49 66
        E 0 90 4a 68
        E 0 90 4b 68
        E 0 90 4c 68
        E 0 90 4d 66
        E 0 90 31 66
        E 0 90 32 68
        E 0 90 33 68
        E 0 90 34 68
        E 0 90 35 66
        E 120 80 61 00
        E 0 80 62 00
        E 0 80 63 00
        E 0 80 64 00
        E 0 80 65 00
        E 0 80 49 00
        E 0 80 4a 00
        E 0 80 4b 00
        E 0 80 4c 00
        E 0 80 4d 00
        E 0 80 31 00
        E 0 80 32 00
        E 0 80 33 00
        E 0 80 34 00
        E 0 80 35 00
        E 120 90 61 66
        E 0 90 62 68
        E 0 90 63 68
        E 0 90 64 68
        E 0 90 65 66
        E 0 90 49 66
        E 0 90 4a 68
        E 0 90 4b 68
        E 0 90 4c 68
        E 0 90 4d 66
        E 0 90 31 66
        E 0 90 32 68
        E 0 90 33 68
        E 0 90 34 68
        E 0 90 35 66
        E 0 90 19 66
        E 0 90 1a 68
        E 0 90 1b 68
        E 0 90 1c 68
        E 0 90 1d 66
        E 120 80 61 00
        E 0 80 62 00
        E 0 80 63 00
        E 0 80 64 00
        E 0 80 65 00
        E 0 80 49 00
        E 0 80 4a 00
        E 0 80 4b 00
        E 0 80 4c 00
        E 0 80 4d 00
        E 0 80 31 00
        E 0 80 32 00
        E 0 80 33 00
        E 0 80 34 00
        E 0 80 35 00
        E 0 80 19 00
        E 0 80 1a 00
        E 0 80 1b 00
        E 0 80 1c 00
        E 0 80 1d 00
        E 360 90 61 66
        E 0 90 62 68
        E 0 90 63 68
        E 0 90 64 68
        E 0 90 65 66
        E 0 90 49 66
        E 0 90 4a 68
        E 0 90 4b 68
        E 0 90 4c 68
        E 0 90 4d 66
        E 0 90 31 66
        E 0 90 32 68
        E 0 90 33 68
        E 0 90 34 68
        E 0 90 35 66
        E 0 90 19 66
        E 0 90 1a 68
        E 0 90 1b 68
        E 0 90 1c 68
        E 0 90 1d 66
        E 120 80 61 00
        E 0 80 62 00
        E 0 80 63 00
        E 0 80 64 00
        E 0 80 65 00
        E 0 80 49 00
        E 0 80 4a 00
        E 0 80 4b 00
        E 0 80 4c 00
        E 0 80 4d 00
        E 0 80 31 00
        E 0 80 32 00
        E 0 80 33 00
        E 0 80 34 00
        E 0 80 35 00
        E 0 80 19 00
        E 0 80 1a 00
        E 0 80 1b 00
        E 0 80 1c 00
        E 0 80 1d 00
        E 360 90 61 66
        E 0 90 62 68
        E 0 90 63 68
        E 0 90 64 68
        E 0 90 65 66
        E 0 90 49 66
        E 0 90 4a 68
        E 0 90 4b 68
        E 0 90 4c 68
        E 0 90 4d 66
        E 0 90 31 66
        E 0 90 32 68
        E 0 90 33 68
        E 0 90 34 68
        E 0 90 35 66
        E 0 90 19 66
        E 0 90 1a 68
        E 0 90 1b 68
        E 0 90 1c 68
        E 0 90 1d 66
        E 120 80 61 00
        E 0 80 62 00
        E 0 80 63 00
        E 0 80 64 00
        E 0 80 65 00
        E 0 80 49 00
        E 0 80 4a 00
        E 0 80 4b 00
        E 0 80 4c 00
        E 0 80 4d 00
        E 0 80 31 00
        E 0 80 32 00
        E 0 80 33 00
        E 0 80 34 00
        E 0 80 35 00
        E 0 80 19 00
        E 0 80 1a 00
        E 0 80 1b 00
        E 0 80 1c 00
        E 0 80 1d 00
        E 120 90 61 66
        E 0 90 62 68
        E 0 90 63 68
        E 0 90 64 68
        E 0 90 65 66
        E 0 90 49 66
        E 0 90 4a 68
        E 0 90 4b 68
        E 0 90 4c 68
        E 0 90 4d 66
        E 0 90 31 66
        E 0 90 32 68
        E 0 90 33 68
        E 0 90 34 68
        E 0 90 35 66
        E 120 80 61 00
        E 0 80 62 00
        E 0 80 63 00
        E 0 80 64 00
        E 0 80 65 00
        E 0 80 49 00
        E 0 80 4a 00
        E 0 80 4b 00
        E 0 80 4c 00
        E 0 80 4d 00
        E 0 80 31 00
        E 0 80 32 00
        E 0 80 33 00
        E 0 80 34 00
        E 0 80 35 00
        E 120 90 61 66
        E 0 90 62 68
        E 0 90 63 68
        E 0 90 64 68
        E 0 90 65 66
        E 0 90 49 66
        E 0 90 4a 68
        E 0 90 4b 68
        E 0 90 4c 68
        E 0 90 4d 66
        E 0 90 31 66
        E 0 90 32 68
        E 0 90 33 68
        E 0 90 34 68
        E 0 90 35 66
        E 0 90 19 66
        E 0 90 1a 68
        E 0 90 1b 68
        E 0 90 1c 68
        E 0 90 1d 66
        E 120 80 61 00
        E 0 80 62 00
        E 0 80 63 00
        E 0 80 64 00
        E 0 80 65 00
        E 0 80 49 00
        E 0 80 4a 00
        E 0 80 4b 00
        E 0 80 4c 00
        E 0 80 4d 00
        E 0 80 31 00
        E 0 80 32 00
        E 0 80 33 00
        E 0 80 34 00
        E 0 80 35 00
        E 0 80 19 00
        E 0 80 1a 00
        E 0 80 1b 00
        E 0 80 1c 00
        E 0 80 1d 00
        E 120 90 61 66
        E 0 90 62 68
        E 0 90 63 68
        E 0 90 64 68
        E 0 90 65 66
        E 0 90 49 66
        E 0 90 4a 68
        E 0 90 4b 68
        E 0 90 4c 68
        E 0 90 4d 66
        E 0 90 31 66
        E 0 90 32 68
        E 0 90 33 68
        E 0 90 34 68
        E 0 90 35 66
        E 120 80 61 00
        E 0 80 62 00
        E 0 80 63 00
        E 0 80 64 00
        E 0 80 65 00
        E 0 80 49 00
        E 0 80 4a 00
        E 0 80 4b 00
        E 0 80 4c 00
        E 0 80 4d 00
        E 0 80 31 00
        E 0 80 32 00
        E 0 80 33 00
        E 0 80 34 00
        E 0 80 35 00
        E 120 90 61 66
        E 0 90 62 68
        E 0 90 63 68
        E 0 90 64 68
        E 0 90 65 66
        E 0 90 49 66
        E 0 90 4a 68
        E 0 90 4b 68
        E 0 90 4c 68
        E 0 90 4d 66
        E 0 90 31 66
        E 0 90 32 68
        E 0 90 33 68
        E 0 90 34 68
        E 0 90 35 66
        E 0 90 19 66
        E 0 90 1a 68
        E 0 90 1b 68
        E 0 90 1c 68
        E 0 90 1d 66
        E 120 80 61 00
        E 0 80 62 00
        E 0 80 63 00
        E 0 80 64 00
        E 0 80 65 00
        E 0 80 49 00
        E 0 80 4a 00
        E 0 80 4b 00
        E 0 80 4c 00
        E 0 80 4d 00
        E 0 80 31 00
        E 0 80 32 00
        E 0 80 33 00
        E 0 80 34 00
        E 0 80 35 00
        E 0 80 19 00
        E 0 80 1a 00
        E 0 80 1b 00
        E 0 80 1c 00
        E 0 80 1d 00
        E 120 90 61 66
        E 0 90 62 68
        E 0 90 63 68
        E 0 90 64 68
        E 0 90 65 66
        E 0 90 49 66
        E 0 90 4a 68
        E 0 90 4b 68
        E 0 90 4c 68
        E 0 90 4d 66
        E 0 90 31 66
        E 0 90 32 68
        E 0 90 33 68
        E 0 90 34 68
        E 0 90 35 66
        E 120 80 61 00
        E 0 80 62 00
        E 0 80 63 00
        E 0 80 64 00
        E 0 80 65 00
        E 0 80 49 00
        E 0 80 4a 00
        E 0 80 4b 00
        E 0 80 4c 00
        E 0 80 4d 00
        E 0 80 31 00
        E 0 80 32 00
        E 0 80 33 00
        E 0 80 34 00
        E 0 80 35 00
        E 120 90 61 66
        E 0 90 62 68
        E 0 90 63 68
        E 0 90 64 68
        E 0 90 65 66
        E 0 90 49 66
        E 0 90 4a 68
        E 0 90 4b 68
        E 0 90 4c 68
        E 0 90 4d 66
        E 0 90 31 66
        E 0 90 32 68
        E 0 90 33 68
        E 0 90 34 68
        E 0 90 35 66
        E 120 80 61 00
        E 0 80 62 00
        E 0 80 63 00
        E 0 80 64 00
        E 0 80 65 00
        E 0 80 49 00
        E 0 80 4a 00
        E 0 80 4b 00
        E 0 80 4c 00
        E 0 80 4d 00
        E 0 80 31 00
        E 0 80 32 00
        E 0 80 33 00
        E 0 80 34 00
        E 0 80 35 00
        E 120 93 61 66
        E 0 93 62 68
        E 0 93 63 68
        E 0 93 64 68
        E 0 93 65 66
        E 0 93 49 66
        E 0 93 4a 68
        E 0 93 4b 68
        E 0 93 4c 68
        E 0 93 4d 66
        E 120 83 61 00
        E 0 83 62 00
        E 0 83 63 00
        E 0 83 64 00
        E 0 83 65 00
        E 0 83 49 00
        E 0 83 4a 00
        E 0 83 4b 00
        E 0 83 4c 00
        E 0 83 4d 00
        <X 120 0
          /wFbcGdfbm9ybSBzb25nX3RyYWluZXJfcGdfNV0=
        >
        E 0 90 0a 64
        E 0 90 61 65
        E 0 90 62 67
        E 0 90 63 67
        E 0 90 64 66
        E 0 90 65 65
        E 0 90 6c 65
        E 0 90 49 65
        E 0 90 4a 67
        E 0 90 4b 67
        E 0 90 4c 66
        E 0 90 4d 65
        E 0 90 31 65
        E 0 90 32 67
        E 0 90 33 67
        E 0 90 34 66
        E 0 90 35 65
        E 0 90 19 65
        E 0 90 1a 67
        E 0 90 1b 67
        E 0 90 1c 66
        E 0 90 1d 65
        E 120 80 74 00
        E 0 80 0a 00
        E 0 80 61 00
        E 0 80 62 00
        E 0 80 63 00
        E 0 80 64 00
        E 0 80 65 00
        E 0 80 6c 00
        E 0 80 49 00
        E 0 80 4a 00
        E 0 80 4b 00
        E 0 80 4c 00
        E 0 80 4d 00
        E 0 80 31 00
        E 0 80 32 00
        E 0 80 33 00
        E 0 80 34 00
        E 0 80 35 00
        E 0 80 19 00
        E 0 80 1a 00
        E 0 80 1b 00
        E 0 80 1c 00
        E 0 80 1d 00
        E 360 90 61 65
        E 0 90 62 67
        E 0 90 63 67
        E 0 90 64 66
        E 0 90 65 65
        E 0 90 49 65
        E 0 90 4a 67
        E 0 90 4b 67
        E 0 90 4c 66
        E 0 90 4d 65
        E 0 90 31 65
        E 0 90 32 67
        E 0 90 33 67
        E 0 90 34 66
        E 0 90 35 65
        E 0 90 19 65
        E 0 90 1a 67
        E 0 90 1b 67
        E 0 90 1c 66
        E 0 90 1d 65
        E 120 80 61 00
        E 0 80 62 00
        E 0 80 63 00
        E 0 80 64 00
        E 0 80 65 00
        E 0 80 49 00
        E 0 80 4a 00
        E 0 80 4b 00
        E 0 80 4c 00
        E 0 80 4d 00
        E 0 80 31 00
        E 0 80 32 00
        E 0 80 33 00
        E 0 80 34 00
        E 0 80 35 00
        E 0 80 19 00
        E 0 80 1a 00
        E 0 80 1b 00
        E 0 80 1c 00
        E 0 80 1d 00
        E 360 90 61 65
        E 0 90 62 67
        E 0 90 63 67
        E 0 90 64 66
        E 0 90 65 65
        E 0 90 49 65
        E 0 90 4a 67
        E 0 90 4b 67
        E 0 90 4c 66
        E 0 90 4d 65
        E 0 90 31 65
        E 0 90 32 67
        E 0 90 33 67
        E 0 90 34 66
        E 0 90 35 65
        E 0 90 19 65
        E 0 90 1a 67
        E 0 90 1b 67
        E 0 90 1c 66
        E 0 90 1d 65
        E 120 80 61 00
        E 0 80 62 00
        E 0 80 63 00
        E 0 80 64 00
        E 0 80 65 00
        E 0 80 49 00
        E 0 80 4a 00
        E 0 80 4b 00
        E 0 80 4c 00
        E 0 80 4d 00
        E 0 80 31 00
        E 0 80 32 00
        E 0 80 33 00
        E 0 80 34 00
        E 0 80 35 00
        E 0 80 19 00
        E 0 80 1a 00
        E 0 80 1b 00
        E 0 80 1c 00
        E 0 80 1d 00
        E 360 90 61 65
        E 0 90 62 67
        E 0 90 63 67
        E 0 90 64 66
        E 0 90 65 65
        E 0 90 49 65
        E 0 90 4a 67
        E 0 90 4b 67
        E 0 90 4c 66
        E 0 90 4d 65
        E 0 90 31 65
        E 0 90 32 67
        E 0 90 33 67
        E 0 90 34 66
        E 0 90 35 65
        E 0 90 19 65
        E 0 90 1a 67
        E 0 90 1b 67
        E 0 90 1c 66
        E 0 90 1d 65
        E 120 80 61 00
        E 0 80 62 00
        E 0 80 63 00
        E 0 80 64 00
        E 0 80 65 00
        E 0 80 49 00
        E 0 80 4a 00
        E 0 80 4b 00
        E 0 80 4c 00
        E 0 80 4d 00
        E 0 80 31 00
        E 0 80 32 00
        E 0 80 33 00
        E 0 80 34 00
        E 0 80 35 00
        E 0 80 19 00
        E 0 80 1a 00
        E 0 80 1b 00
        E 0 80 1c 00
        E 0 80 1d 00
        E 360 90 61 65
        E 0 90 62 67
        E 0 90 63 67
        E 0 90 64 66
        E 0 90 65 65
        E 0 90 49 65
        E 0 90 4a 67
        E 0 90 4b 67
        E 0 90 4c 66
        E 0 90 4d 65
        E 0 90 31 65
        E 0 90 32 67
        E 0 90 33 67
        E 0 90 34 66
        E 0 90 35 65
        E 0 90 19 65
        E 0 90 1a 67
        E 0 90 1b 67
        E 0 90 1c 66
        E 0 90 1d 65
        E 120 80 61 00
        E 0 80 62 00
        E 0 80 63 00
        E 0 80 64 00
        E 0 80 65 00
        E 0 80 49 00
        E 0 80 4a 00
        E 0 80 4b 00
        E 0 80 4c 00
        E 0 80 4d 00
        E 0 80 31 00
        E 0 80 32 00
        E 0 80 33 00
        E 0 80 34 00
        E 0 80 35 00
        E 0 80 19 00
        E 0 80 1a 00
        E 0 80 1b 00
        E 0 80 1c 00
        E 0 80 1d 00
        E 360 90 61 65
        E 0 90 62 67
        E 0 90 63 67
        E 0 90 64 66
        E 0 90 65 65
        E 0 90 49 65
        E 0 90 4a 67
        E 0 90 4b 67
        E 0 90 4c 66
        E 0 90 4d 65
        E 0 90 31 65
        E 0 90 32 67
        E 0 90 33 67
        E 0 90 34 66
        E 0 90 35 65
        E 0 90 19 65
        E 0 90 1a 67
        E 0 90 1b 67
        E 0 90 1c 66
        E 0 90 1d 65
        E 120 80 61 00
        E 0 80 62 00
        E 0 80 63 00
        E 0 80 64 00
        E 0 80 65 00
        E 0 80 49 00
        E 0 80 4a 00
        E 0 80 4b 00
        E 0 80 4c 00
        E 0 80 4d 00
        E 0 80 31 00
        E 0 80 32 00
        E 0 80 33 00
        E 0 80 34 00
        E 0 80 35 00
        E 0 80 19 00
        E 0 80 1a 00
        E 0 80 1b 00
        E 0 80 1c 00
        E 0 80 1d 00
        E 360 90 61 65
        E 0 90 62 67
        E 0 90 63 67
        E 0 90 64 66
        E 0 90 65 65
        E 0 90 49 65
        E 0 90 4a 67
        E 0 90 4b 67
        E 0 90 4c 66
        E 0 90 4d 65
        E 0 90 31 65
        E 0 90 32 67
        E 0 90 33 67
        E 0 90 34 66
        E 0 90 35 65
        E 0 90 19 65
        E 0 90 1a 67
        E 0 90 1b 67
        E 0 90 1c 66
        E 0 90 1d 65
        E 120 80 61 00
        E 0 80 62 00
        E 0 80 63 00
        E 0 80 64 00
        E 0 80 65 00
        E 0 80 49 00
        E 0 80 4a 00
        E 0 80 4b 00
        E 0 80 4c 00
        E 0 80 4d 00
        E 0 80 31 00
        E 0 80 32 00
        E 0 80 33 00
        E 0 80 34 00
        E 0 80 35 00
        E 0 80 19 00
        E 0 80 1a 00
        E 0 80 1b 00
        E 0 80 1c 00
        E 0 80 1d 00
        E 360 90 61 65
        E 0 90 62 67
        E 0 90 63 67
        E 0 90 64 66
        E 0 90 65 65
        E 0 90 49 65
        E 0 90 4a 67
        E 0 90 4b 67
        E 0 90 4c 66
        E 0 90 4d 65
        E 0 90 31 65
        E 0 90 32 67
        E 0 90 33 67
        E 0 90 34 66
        E 0 90 35 65
        E 120 80 61 00
        E 0 80 62 00
        E 0 80 63 00
        E 0 80 64 00
        E 0 80 65 00
        E 0 80 49 00
        E 0 80 4a 00
        E 0 80 4b 00
        E 0 80 4c 00
        E 0 80 4d 00
        E 0 80 31 00
        E 0 80 32 00
        E 0 80 33 00
        E 0 80 34 00
        E 0 80 35 00
        E 360 90 0b 64
        E 0 90 61 66
        E 0 90 62 68
        E 0 90 63 68
        E 0 90 64 68
        E 0 90 65 66
        E 0 90 6c 66
        E 0 90 49 66
        E 0 90 4a 68
        E 0 90 4b 68
        E 0 90 4c 68
        E 0 90 4d 66
        E 0 90 31 66
        E 0 90 32 68
        E 0 90 33 68
        E 0 90 34 68
        E 0 90 35 66
        E 0 90 19 66
        E 0 90 1a 68
        E 0 90 1b 68
        E 0 90 1c 68
        E 0 90 1d 66
        E 120 80 0b 00
        E 0 80 6c 00
        E 480 80 61 00
        E 0 80 62 00
        E 0 80 63 00
        E 0 80 64 00
        E 0 80 65 00
        E 0 80 49 00
        E 0 80 4a 00
        E 0 80 4b 00
        E 0 80 4c 00
        E 0 80 4d 00
        E 0 80 31 00
        E 0 80 32 00
        E 0 80 33 00
        E 0 80 34 00
        E 0 80 35 00
        E 0 80 19 00
        E 0 80 1a 00
        E 0 80 1b 00
        E 0 80 1c 00
        E 0 80 1d 00
        E 120 90 61 66
        E 0 90 62 68
        E 0 90 63 68
        E 0 90 64 68
        E 0 90 65 66
        E 0 90 49 66
        E 0 90 4a 68
        E 0 90 4b 68
        E 0 90 4c 68
        E 0 90 4d 66
        E 0 90 31 66
        E 0 90 32 68
        E 0 90 33 68
        E 0 90 34 68
        E 0 90 35 66
        E 120 80 61 00
        E 0 80 62 00
        E 0 80 63 00
        E 0 80 64 00
        E 0 80 65 00
        E 0 80 49 00
        E 0 80 4a 00
        E 0 80 4b 00
        E 0 80 4c 00
        E 0 80 4d 00
        E 0 80 31 00
        E 0 80 32 00
        E 0 80 33 00
        E 0 80 34 00
        E 0 80 35 00
        E 120 90 61 66
        E 0 90 62 68
        E 0 90 63 68
        E 0 90 64 68
        E 0 90 65 66
        E 0 90 49 66
        E 0 90 4a 68
        E 0 90 4b 68
        E 0 90 4c 68
        E 0 90 4d 66
        E 0 90 31 66
        E 0 90 32 68
        E 0 90 33 68
        E 0 90 34 68
        E 0 90 35 66
        E 0 90 19 66
        E 0 90 1a 68
        E 0 90 1b 68
        E 0 90 1c 68
        E 0 90 1d 66
        E 120 80 61 00
        E 0 80 62 00
        E 0 80 63 00
        E 0 80 64 00
        E 0 80 65 00
        E 0 80 49 00
        E 0 80 4a 00
        E 0 80 4b 00
        E 0 80 4c 00
        E 0 80 4d 00
        E 0 80 31 00
        E 0 80 32 00
        E 0 80 33 00
        E 0 80 34 00
        E 0 80 35 00
        E 0 80 19 00
        E 0 80 1a 00
        E 0 80 1b 00
        E 0 80 1c 00
        E 0 80 1d 00
        E 360 90 61 66
        E 0 90 62 68
        E 0 90 63 68
        E 0 90 64 68
        E 0 90 65 66
        E 0 90 49 66
        E 0 90 4a 68
        E 0 90 4b 68
        E 0 90 4c 68
        E 0 90 4d 66
        E 0 90 31 66
        E 0 90 32 68
        E 0 90 33 68
        E 0 90 34 68
        E 0 90 35 66
        E 0 90 19 66
        E 0 90 1a 68
        E 0 90 1b 68
        E 0 90 1c 68
        E 0 90 1d 66
        E 120 80 61 00
        E 0 80 62 00
        E 0 80 63 00
        E 0 80 64 00
        E 0 80 65 00
        E 0 80 49 00
        E 0 80 4a 00
        E 0 80 4b 00
        E 0 80 4c 00
        E 0 80 4d 00
        E 0 80 31 00
        E 0 80 32 00
        E 0 80 33 00
        E 0 80 34 00
        E 0 80 35 00
        E 0 80 19 00
        E 0 80 1a 00
        E 0 80 1b 00
        E 0 80 1c 00
        E 0 80 1d 00
        E 360 90 61 66
        E 0 90 62 68
        E 0 90 63 68
        E 0 90 64 68
        E 0 90 65 66
        E 0 90 49 66
        E 0 90 4a 68
        E 0 90 4b 68
        E 0 90 4c 68
        E 0 90 4d 66
        E 0 90 31 66
        E 0 90 32 68
        E 0 90 33 68
        E 0 90 34 68
        E 0 90 35 66
        E 0 90 19 66
        E 0 90 1a 68
        E 0 90 1b 68
        E 0 90 1c 68
        E 0 90 1d 66
        E 120 80 61 00
        E 0 80 62 00
        E 0 80 63 00
        E 0 80 64 00
        E 0 80 65 00
        E 0 80 49 00
        E 0 80 4a 00
        E 0 80 4b 00
        E 0 80 4c 00
        E 0 80 4d 00
        E 0 80 31 00
        E 0 80 32 00
        E 0 80 33 00
        E 0 80 34 00
        E 0 80 35 00
        E 0 80 19 00
        E 0 80 1a 00
        E 0 80 1b 00
        E 0 80 1c 00
        E 0 80 1d 00
        E 360 90 61 66
        E 0 90 62 68
        E 0 90 63 68
        E 0 90 64 68
        E 0 90 65 66
        E 0 90 49 66
        E 0 90 4a 68
        E 0 90 4b 68
        E 0 90 4c 68
        E 0 90 4d 66
        E 0 90 31 66
        E 0 90 32 68
        E 0 90 33 68
        E 0 90 34 68
        E 0 90 35 66
        E 0 90 19 66
        E 0 90 1a 68
        E 0 90 1b 68
        E 0 90 1c 68
        E 0 90 1d 66
        E 120 80 61 00
        E 0 80 62 00
        E 0 80 63 00
        E 0 80 64 00
        E 0 80 65 00
        E 0 80 49 00
        E 0 80 4a 00
        E 0 80 4b 00
        E 0 80 4c 00
        E 0 80 4d 00
        E 0 80 31 00
        E 0 80 32 00
        E 0 80 33 00
        E 0 80 34 00
        E 0 80 35 00
        E 0 80 19 00
        E 0 80 1a 00
        E 0 80 1b 00
        E 0 80 1c 00
        E 0 80 1d 00
        E 360 90 61 66
        E 0 90 62 68
        E 0 90 63 68
        E 0 90 64 68
        E 0 90 65 66
        E 0 90 49 66
        E 0 90 4a 68
        E 0 90 4b 68
        E 0 90 4c 68
        E 0 90 4d 66
        E 0 90 31 66
        E 0 90 32 68
        E 0 90 33 68
        E 0 90 34 68
        E 0 90 35 66
        E 0 90 19 66
        E 0 90 1a 68
        E 0 90 1b 68
        E 0 90 1c 68
        E 0 90 1d 66
        E 120 80 61 00
        E 0 80 62 00
        E 0 80 63 00
        E 0 80 64 00
        E 0 80 65 00
        E 0 80 49 00
        E 0 80 4a 00
        E 0 80 4b 00
        E 0 80 4c 00
        E 0 80 4d 00
        E 0 80 31 00
        E 0 80 32 00
        E 0 80 33 00
        E 0 80 34 00
        E 0 80 35 00
        E 0 80 19 00
        E 0 80 1a 00
        E 0 80 1b 00
        E 0 80 1c 00
        E 0 80 1d 00
        E 360 90 61 66
        E 0 90 62 68
        E 0 90 63 68
        E 0 90 64 68
        E 0 90 65 66
        E 0 90 49 66
        E 0 90 4a 68
        E 0 90 4b 68
        E 0 90 4c 68
        E 0 90 4d 66
        E 0 90 31 66
        E 0 90 32 68
        E 0 90 33 68
        E 0 90 34 68
        E 0 90 35 66
        E 120 80 61 00
        E 0 80 62 00
        E 0 80 63 00
        E 0 80 64 00
        E 0 80 65 00
        E 0 80 49 00
        E 0 80 4a 00
        E 0 80 4b 00
        E 0 80 4c 00
        E 0 80 4d 00
        E 0 80 31 00
        E 0 80 32 00
        E 0 80 33 00
        E 0 80 34 00
        E 0 80 35 00
        E 360 90 0a 64
        E 0 90 61 65
        E 0 90 62 67
        E 0 90 63 67
        E 0 90 64 66
        E 0 90 65 65
        E 0 90 6c 65
        E 0 90 49 65
        E 0 90 4a 67
        E 0 90 4b 67
        E 0 90 4c 66
        E 0 90 4d 65
        E 0 90 31 65
        E 0 90 32 67
        E 0 90 33 67
        E 0 90 34 66
        E 0 90 35 65
        E 0 90 19 65
        E 0 90 1a 67
        E 0 90 1b 67
        E 0 90 1c 66
        E 0 90 1d 65
        E 120 80 0a 00
        E 0 80 61 00
        E 0 80 62 00
        E 0 80 63 00
        E 0 80 64 00
        E 0 80 65 00
        E 0 80 6c 00
        E 0 80 49 00
        E 0 80 4a 00
        E 0 80 4b 00
        E 0 80 4c 00
        E 0 80 4d 00
        E 0 80 31 00
        E 0 80 32 00
        E 0 80 33 00
        E 0 80 34 00
        E 0 80 35 00
        E 0 80 19 00
        E 0 80 1a 00
        E 0 80 1b 00
        E 0 80 1c 00
        E 0 80 1d 00
        E 360 90 61 65
        E 0 90 62 67
        E 0 90 63 67
        E 0 90 64 66
        E 0 90 65 65
        E 0 90 49 65
        E 0 90 4a 67
        E 0 90 4b 67
        E 0 90 4c 66
        E 0 90 4d 65
        E 0 90 31 65
        E 0 90 32 67
        E 0 90 33 67
        E 0 90 34 66
        E 0 90 35 65
        E 0 90 19 65
        E 0 90 1a 67
        E 0 90 1b 67
        E 0 90 1c 66
        E 0 90 1d 65
        E 120 80 61 00
        E 0 80 62 00
        E 0 80 63 00
        E 0 80 64 00
        E 0 80 65 00
        E 0 80 49 00
        E 0 80 4a 00
        E 0 80 4b 00
        E 0 80 4c 00
        E 0 80 4d 00
        E 0 80 31 00
        E 0 80 32 00
        E 0 80 33 00
        E 0 80 34 00
        E 0 80 35 00
        E 0 80 19 00
        E 0 80 1a 00
        E 0 80 1b 00
        E 0 80 1c 00
        E 0 80 1d 00
        E 360 90 61 65
        E 0 90 62 67
        E 0 90 63 67
        E 0 90 64 66
        E 0 90 65 65
        E 0 90 49 65
        E 0 90 4a 67
        E 0 90 4b 67
        E 0 90 4c 66
        E 0 90 4d 65
        E 0 90 31 65
        E 0 90 32 67
        E 0 90 33 67
        E 0 90 34 66
        E 0 90 35 65
        E 0 90 19 65
        E 0 90 1a 67
        E 0 90 1b 67
        E 0 90 1c 66
        E 0 90 1d 65
        E 120 80 61 00
        E 0 80 62 00
        E 0 80 63 00
        E 0 80 64 00
        E 0 80 65 00
        E 0 80 49 00
        E 0 80 4a 00
        E 0 80 4b 00
        E 0 80 4c 00
        E 0 80 4d 00
        E 0 80 31 00
        E 0 80 32 00
        E 0 80 33 00
        E 0 80 34 00
        E 0 80 35 00
        E 0 80 19 00
        E 0 80 1a 00
        E 0 80 1b 00
        E 0 80 1c 00
        E 0 80 1d 00
        E 360 90 61 65
        E 0 90 62 67
        E 0 90 63 67
        E 0 90 64 66
        E 0 90 65 65
        E 0 90 49 65
        E 0 90 4a 67
        E 0 90 4b 67
        E 0 90 4c 66
        E 0 90 4d 65
        E 0 90 31 65
        E 0 90 32 67
        E 0 90 33 67
        E 0 90 34 66
        E 0 90 35 65
        E 0 90 19 65
        E 0 90 1a 67
        E 0 90 1b 67
        E 0 90 1c 66
        E 0 90 1d 65
        E 120 80 61 00
        E 0 80 62 00
        E 0 80 63 00
        E 0 80 64 00
        E 0 80 65 00
        E 0 80 49 00
        E 0 80 4a 00
        E 0 80 4b 00
        E 0 80 4c 00
        E 0 80 4d 00
        E 0 80 31 00
        E 0 80 32 00
        E 0 80 33 00
        E 0 80 34 00
        E 0 80 35 00
        E 0 80 19 00
        E 0 80 1a 00
        E 0 80 1b 00
        E 0 80 1c 00
        E 0 80 1d 00
        E 360 90 61 65
        E 0 90 62 67
        E 0 90 63 67
        E 0 90 64 66
        E 0 90 65 65
        E 0 90 49 65
        E 0 90 4a 67
        E 0 90 4b 67
        E 0 90 4c 66
        E 0 90 4d 65
        E 0 90 31 65
        E 0 90 32 67
        E 0 90 33 67
        E 0 90 34 66
        E 0 90 35 65
        E 0 90 19 65
        E 0 90 1a 67
        E 0 90 1b 67
        E 0 90 1c 66
        E 0 90 1d 65
        E 120 80 61 00
        E 0 80 62 00
        E 0 80 63 00
        E 0 80 64 00
        E 0 80 65 00
        E 0 80 49 00
        E 0 80 4a 00
        E 0 80 4b 00
        E 0 80 4c 00
        E 0 80 4d 00
        E 0 80 31 00
        E 0 80 32 00
        E 0 80 33 00
        E 0 80 34 00
        E 0 80 35 00
        E 0 80 19 00
        E 0 80 1a 00
        E 0 80 1b 00
        E 0 80 1c 00
        E 0 80 1d 00
        E 360 90 61 65
        E 0 90 62 67
        E 0 90 63 67
        E 0 90 64 66
        E 0 90 65 65
        E 0 90 49 65
        E 0 90 4a 67
        E 0 90 4b 67
        E 0 90 4c 66
        E 0 90 4d 65
        E 0 90 31 65
        E 0 90 32 67
        E 0 90 33 67
        E 0 90 34 66
        E 0 90 35 65
        E 0 90 19 65
        E 0 90 1a 67
        E 0 90 1b 67
        E 0 90 1c 66
        E 0 90 1d 65
        E 120 80 61 00
        E 0 80 62 00
        E 0 80 63 00
        E 0 80 64 00
        E 0 80 65 00
        E 0 80 49 00
        E 0 80 4a 00
        E 0 80 4b 00
        E 0 80 4c 00
        E 0 80 4d 00
        E 0 80 31 00
        E 0 80 32 00
        E 0 80 33 00
        E 0 80 34 00
        E 0 80 35 00
        E 0 80 19 00
        E 0 80 1a 00
        E 0 80 1b 00
        E 0 80 1c 00
        E 0 80 1d 00
        E 120 90 61 65
        E 0 90 62 67
        E 0 90 63 67
        E 0 90 64 66
        E 0 90 65 65
        E 0 90 49 65
        E 0 90 4a 67
        E 0 90 4b 67
        E 0 90 4c 66
        E 0 90 4d 65
        E 0 90 31 65
        E 0 90 32 67
        E 0 90 33 67
        E 0 90 34 66
        E 0 90 35 65
        E 120 80 61 00
        E 0 80 62 00
        E 0 80 63 00
        E 0 80 64 00
        E 0 80 65 00
        E 0 80 49 00
        E 0 80 4a 00
        E 0 80 4b 00
        E 0 80 4c 00
        E 0 80 4d 00
        E 0 80 31 00
        E 0 80 32 00
        E 0 80 33 00
        E 0 80 34 00
        E 0 80 35 00
        E 120 90 61 65
        E 0 90 62 67
        E 0 90 63 67
        E 0 90 64 66
        E 0 90 65 65
        E 0 90 49 65
        E 0 90 4a 67
        E 0 90 4b 67
        E 0 90 4c 66
        E 0 90 4d 65
        E 0 90 31 65
        E 0 90 32 67
        E 0 90 33 67
        E 0 90 34 66
        E 0 90 35 65
        E 0 90 19 65
        E 0 90 1a 67
        E 0 90 1b 67
        E 0 90 1c 66
        E 0 90 1d 65
        E 120 80 61 00
        E 0 80 62 00
        E 0 80 63 00
        E 0 80 64 00
        E 0 80 65 00
        E 0 80 49 00
        E 0 80 4a 00
        E 0 80 4b 00
        E 0 80 4c 00
        E 0 80 4d 00
        E 0 80 31 00
        E 0 80 32 00
        E 0 80 33 00
        E 0 80 34 00
        E 0 80 35 00
        E 0 80 19 00
        E 0 80 1a 00
        E 0 80 1b 00
        E 0 80 1c 00
        E 0 80 1d 00
        E 120 90 61 65
        E 0 90 62 67
        E 0 90 63 67
        E 0 90 64 66
        E 0 90 65 65
        E 0 90 49 65
        E 0 90 4a 67
        E 0 90 4b 67
        E 0 90 4c 66
        E 0 90 4d 65
        E 0 90 31 65
        E 0 90 32 67
        E 0 90 33 67
        E 0 90 34 66
        E 0 90 35 65
        E 120 80 61 00
        E 0 80 62 00
        E 0 80 63 00
        E 0 80 64 00
        E 0 80 65 00
        E 0 80 49 00
        E 0 80 4a 00
        E 0 80 4b 00
        E 0 80 4c 00
        E 0 80 4d 00
        E 0 80 31 00
        E 0 80 32 00
        E 0 80 33 00
        E 0 80 34 00
        E 0 80 35 00
        <X 600 0
          /wFbZW5kX3BnIHNvbmdfdHJhaW5lcl9wZ181XQ==
        >
        E 0 90 0b 64
        E 0 90 61 66
        E 0 90 62 68
        E 0 90 63 68
        E 0 90 64 68
        E 0 90 65 66
        E 0 90 6c 66
        E 0 90 49 66
        E 0 90 4a 68
        E 0 90 4b 68
        E 0 90 4c 68
        E 0 90 4d 66
        E 0 90 31 66
        E 0 90 32 68
        E 0 90 33 68
        E 0 90 34 68
        E 0 90 35 66
        E 0 90 19 66
        E 0 90 1a 68
        E 0 90 1b 68
        E 0 90 1c 68
        E 0 90 1d 66
        E 120 80 0b 00
        E 0 80 6c 00
        E 480 80 61 00
        E 0 80 62 00
        E 0 80 63 00
        E 0 80 64 00
        E 0 80 65 00
        E 0 80 49 00
        E 0 80 4a 00
        E 0 80 4b 00
        E 0 80 4c 00
        E 0 80 4d 00
        E 0 80 31 00
        E 0 80 32 00
        E 0 80 33 00
        E 0 80 34 00
        E 0 80 35 00
        E 0 80 19 00
        E 0 80 1a 00
        E 0 80 1b 00
        E 0 80 1c 00
        E 0 80 1d 00
        E 120 90 61 66
        E 0 90 62 68
        E 0 90 63 68
        E 0 90 64 68
        E 0 90 65 66
        E 0 90 49 66
        E 0 90 4a 68
        E 0 90 4b 68
        E 0 90 4c 68
        E 0 90 4d 66
        E 0 90 31 66
        E 0 90 32 68
        E 0 90 33 68
        E 0 90 34 68
        E 0 90 35 66
        E 120 80 61 00
        E 0 80 62 00
        E 0 80 63 00
        E 0 80 64 00
        E 0 80 65 00
        E 0 80 49 00
        E 0 80 4a 00
        E 0 80 4b 00
        E 0 80 4c 00
        E 0 80 4d 00
        E 0 80 31 00
        E 0 80 32 00
        E 0 80 33 00
        E 0 80 34 00
        E 0 80 35 00
        E 120 90 61 66
        E 0 90 62 68
        E 0 90 63 68
        E 0 90 64 68
        E 0 90 65 66
        E 0 90 49 66
        E 0 90 4a 68
        E 0 90 4b 68
        E 0 90 4c 68
        E 0 90 4d 66
        E 0 90 31 66
        E 0 90 32 68
        E 0 90 33 68
        E 0 90 34 68
        E 0 90 35 66
        E 0 90 19 66
        E 0 90 1a 68
        E 0 90 1b 68
        E 0 90 1c 68
        E 0 90 1d 66
        E 120 80 61 00
        E 0 80 62 00
        E 0 80 63 00
        E 0 80 64 00
        E 0 80 65 00
        E 0 80 49 00
        E 0 80 4a 00
        E 0 80 4b 00
        E 0 80 4c 00
        E 0 80 4d 00
        E 0 80 31 00
        E 0 80 32 00
        E 0 80 33 00
        E 0 80 34 00
        E 0 80 35 00
        E 0 80 19 00
        E 0 80 1a 00
        E 0 80 1b 00
        E 0 80 1c 00
        E 0 80 1d 00
        E 360 90 61 66
        E 0 90 62 68
        E 0 90 63 68
        E 0 90 64 68
        E 0 90 65 66
        E 0 90 49 66
        E 0 90 4a 68
        E 0 90 4b 68
        E 0 90 4c 68
        E 0 90 4d 66
        E 0 90 31 66
        E 0 90 32 68
        E 0 90 33 68
        E 0 90 34 68
        E 0 90 35 66
        E 0 90 19 66
        E 0 90 1a 68
        E 0 90 1b 68
        E 0 90 1c 68
        E 0 90 1d 66
        E 120 80 61 00
        E 0 80 62 00
        E 0 80 63 00
        E 0 80 64 00
        E 0 80 65 00
        E 0 80 49 00
        E 0 80 4a 00
        E 0 80 4b 00
        E 0 80 4c 00
        E 0 80 4d 00
        E 0 80 31 00
        E 0 80 32 00
        E 0 80 33 00
        E 0 80 34 00
        E 0 80 35 00
        E 0 80 19 00
        E 0 80 1a 00
        E 0 80 1b 00
        E 0 80 1c 00
        E 0 80 1d 00
        E 360 90 61 66
        E 0 90 62 68
        E 0 90 63 68
        E 0 90 64 68
        E 0 90 65 66
        E 0 90 49 66
        E 0 90 4a 68
        E 0 90 4b 68
        E 0 90 4c 68
        E 0 90 4d 66
        E 0 90 31 66
        E 0 90 32 68
        E 0 90 33 68
        E 0 90 34 68
        E 0 90 35 66
        E 0 90 19 66
        E 0 90 1a 68
        E 0 90 1b 68
        E 0 90 1c 68
        E 0 90 1d 66
        E 120 80 61 00
        E 0 80 62 00
        E 0 80 63 00
        E 0 80 64 00
        E 0 80 65 00
        E 0 80 49 00
        E 0 80 4a 00
        E 0 80 4b 00
        E 0 80 4c 00
        E 0 80 4d 00
        E 0 80 31 00
        E 0 80 32 00
        E 0 80 33 00
        E 0 80 34 00
        E 0 80 35 00
        E 0 80 19 00
        E 0 80 1a 00
        E 0 80 1b 00
        E 0 80 1c 00
        E 0 80 1d 00
        E 120 90 61 66
        E 0 90 62 68
        E 0 90 63 68
        E 0 90 64 68
        E 0 90 65 66
        E 0 90 49 66
        E 0 90 4a 68
        E 0 90 4b 68
        E 0 90 4c 68
        E 0 90 4d 66
        E 0 90 31 66
        E 0 90 32 68
        E 0 90 33 68
        E 0 90 34 68
        E 0 90 35 66
        E 120 80 61 00
        E 0 80 62 00
        E 0 80 63 00
        E 0 80 64 00
        E 0 80 65 00
        E 0 80 49 00
        E 0 80 4a 00
        E 0 80 4b 00
        E 0 80 4c 00
        E 0 80 4d 00
        E 0 80 31 00
        E 0 80 32 00
        E 0 80 33 00
        E 0 80 34 00
        E 0 80 35 00
        E 120 90 61 66
        E 0 90 62 68
        E 0 90 63 68
        E 0 90 64 68
        E 0 90 65 66
        E 0 90 49 66
        E 0 90 4a 68
        E 0 90 4b 68
        E 0 90 4c 68
        E 0 90 4d 66
        E 0 90 31 66
        E 0 90 32 68
        E 0 90 33 68
        E 0 90 34 68
        E 0 90 35 66
        E 0 90 19 66
        E 0 90 1a 68
        E 0 90 1b 68
        E 0 90 1c 68
        E 0 90 1d 66
        E 120 80 61 00
        E 0 80 62 00
        E 0 80 63 00
        E 0 80 64 00
        E 0 80 65 00
        E 0 80 49 00
        E 0 80 4a 00
        E 0 80 4b 00
        E 0 80 4c 00
        E 0 80 4d 00
        E 0 80 31 00
        E 0 80 32 00
        E 0 80 33 00
        E 0 80 34 00
        E 0 80 35 00
        E 0 80 19 00
        E 0 80 1a 00
        E 0 80 1b 00
        E 0 80 1c 00
        E 0 80 1d 00
        E 120 90 61 66
        E 0 90 62 68
        E 0 90 63 68
        E 0 90 64 68
        E 0 90 65 66
        E 0 90 49 66
        E 0 90 4a 68
        E 0 90 4b 68
        E 0 90 4c 68
        E 0 90 4d 66
        E 0 90 31 66
        E 0 90 32 68
        E 0 90 33 68
        E 0 90 34 68
        E 0 90 35 66
        E 120 80 61 00
        E 0 80 62 00
        E 0 80 63 00
        E 0 80 64 00
        E 0 80 65 00
        E 0 80 49 00
        E 0 80 4a 00
        E 0 80 4b 00
        E 0 80 4c 00
        E 0 80 4d 00
        E 0 80 31 00
        E 0 80 32 00
        E 0 80 33 00
        E 0 80 34 00
        E 0 80 35 00
        E 120 90 61 66
        E 0 90 62 68
        E 0 90 63 68
        E 0 90 64 68
        E 0 90 65 66
        E 0 90 49 66
        E 0 90 4a 68
        E 0 90 4b 68
        E 0 90 4c 68
        E 0 90 4d 66
        E 0 90 31 66
        E 0 90 32 68
        E 0 90 33 68
        E 0 90 34 68
        E 0 90 35 66
        E 0 90 19 66
        E 0 90 1a 68
        E 0 90 1b 68
        E 0 90 1c 68
        E 0 90 1d 66
        E 120 80 61 00
        E 0 80 62 00
        E 0 80 63 00
        E 0 80 64 00
        E 0 80 65 00
        E 0 80 49 00
        E 0 80 4a 00
        E 0 80 4b 00
        E 0 80 4c 00
        E 0 80 4d 00
        E 0 80 31 00
        E 0 80 32 00
        E 0 80 33 00
        E 0 80 34 00
        E 0 80 35 00
        E 0 80 19 00
        E 0 80 1a 00
        E 0 80 1b 00
        E 0 80 1c 00
        E 0 80 1d 00
        E 120 90 61 66
        E 0 90 62 68
        E 0 90 63 68
        E 0 90 64 68
        E 0 90 65 66
        E 0 90 49 66
        E 0 90 4a 68
        E 0 90 4b 68
        E 0 90 4c 68
        E 0 90 4d 66
        E 0 90 31 66
        E 0 90 32 68
        E 0 90 33 68
        E 0 90 34 68
        E 0 90 35 66
        E 120 80 61 00
        E 0 80 62 00
        E 0 80 63 00
        E 0 80 64 00
        E 0 80 65 00
        E 0 80 49 00
        E 0 80 4a 00
        E 0 80 4b 00
        E 0 80 4c 00
        E 0 80 4d 00
        E 0 80 31 00
        E 0 80 32 00
        E 0 80 33 00
        E 0 80 34 00
        E 0 80 35 00
        E 120 90 61 66
        E 0 90 62 68
        E 0 90 63 68
        E 0 90 64 68
        E 0 90 65 66
        E 0 90 49 66
        E 0 90 4a 68
        E 0 90 4b 68
        E 0 90 4c 68
        E 0 90 4d 66
        E 0 90 31 66
        E 0 90 32 68
        E 0 90 33 68
        E 0 90 34 68
        E 0 90 35 66
        E 120 80 61 00
        E 0 80 62 00
        E 0 80 63 00
        E 0 80 64 00
        E 0 80 65 00
        E 0 80 49 00
        E 0 80 4a 00
        E 0 80 4b 00
        E 0 80 4c 00
        E 0 80 4d 00
        E 0 80 31 00
        E 0 80 32 00
        E 0 80 33 00
        E 0 80 34 00
        E 0 80 35 00
        E 120 93 61 66
        E 0 93 62 68
        E 0 93 63 68
        E 0 93 64 68
        E 0 93 65 66
        E 0 93 49 66
        E 0 93 4a 68
        E 0 93 4b 68
        E 0 93 4c 68
        E 0 93 4d 66
        E 120 83 61 00
        E 0 83 62 00
        E 0 83 63 00
        E 0 83 64 00
        E 0 83 65 00
        E 0 83 49 00
        E 0 83 4a 00
        E 0 83 4b 00
        E 0 83 4c 00
        E 0 83 4d 00
        E 120 90 0a 64
        E 0 90 61 65
        E 0 90 62 67
        E 0 90 63 67
        E 0 90 64 66
        E 0 90 65 65
        E 0 90 6c 65
        E 0 90 49 65
        E 0 90 4a 67
        E 0 90 4b 67
        E 0 90 4c 66
        E 0 90 4d 65
        E 0 90 31 65
        E 0 90 32 67
        E 0 90 33 67
        E 0 90 34 66
        E 0 90 35 65
        E 0 90 19 65
        E 0 90 1a 67
        E 0 90 1b 67
        E 0 90 1c 66
        E 0 90 1d 65
        E 120 80 0a 00
        E 0 80 61 00
        E 0 80 62 00
        E 0 80 63 00
        E 0 80 64 00
        E 0 80 65 00
        E 0 80 6c 00
        E 0 80 49 00
        E 0 80 4a 00
        E 0 80 4b 00
        E 0 80 4c 00
        E 0 80 4d 00
        E 0 80 31 00
        E 0 80 32 00
        E 0 80 33 00
        E 0 80 34 00
        E 0 80 35 00
        E 0 80 19 00
        E 0 80 1a 00
        E 0 80 1b 00
        E 0 80 1c 00
        E 0 80 1d 00
        E 360 90 61 65
        E 0 90 62 67
        E 0 90 63 67
        E 0 90 64 66
        E 0 90 65 65
        E 0 90 49 65
        E 0 90 4a 67
        E 0 90 4b 67
        E 0 90 4c 66
        E 0 90 4d 65
        E 0 90 31 65
        E 0 90 32 67
        E 0 90 33 67
        E 0 90 34 66
        E 0 90 35 65
        E 0 90 19 65
        E 0 90 1a 67
        E 0 90 1b 67
        E 0 90 1c 66
        E 0 90 1d 65
        E 120 80 61 00
        E 0 80 62 00
        E 0 80 63 00
        E 0 80 64 00
        E 0 80 65 00
        E 0 80 49 00
        E 0 80 4a 00
        E 0 80 4b 00
        E 0 80 4c 00
        E 0 80 4d 00
        E 0 80 31 00
        E 0 80 32 00
        E 0 80 33 00
        E 0 80 34 00
        E 0 80 35 00
        E 0 80 19 00
        E 0 80 1a 00
        E 0 80 1b 00
        E 0 80 1c 00
        E 0 80 1d 00
        E 360 90 61 65
        E 0 90 62 67
        E 0 90 63 67
        E 0 90 64 66
        E 0 90 65 65
        E 0 90 49 65
        E 0 90 4a 67
        E 0 90 4b 67
        E 0 90 4c 66
        E 0 90 4d 65
        E 0 90 31 65
        E 0 90 32 67
        E 0 90 33 67
        E 0 90 34 66
        E 0 90 35 65
        E 0 90 19 65
        E 0 90 1a 67
        E 0 90 1b 67
        E 0 90 1c 66
        E 0 90 1d 65
        E 120 80 61 00
        E 0 80 62 00
        E 0 80 63 00
        E 0 80 64 00
        E 0 80 65 00
        E 0 80 49 00
        E 0 80 4a 00
        E 0 80 4b 00
        E 0 80 4c 00
        E 0 80 4d 00
        E 0 80 31 00
        E 0 80 32 00
        E 0 80 33 00
        E 0 80 34 00
        E 0 80 35 00
        E 0 80 19 00
        E 0 80 1a 00
        E 0 80 1b 00
        E 0 80 1c 00
        E 0 80 1d 00
        E 360 90 61 65
        E 0 90 62 67
        E 0 90 63 67
        E 0 90 64 66
        E 0 90 65 65
        E 0 90 49 65
        E 0 90 4a 67
        E 0 90 4b 67
        E 0 90 4c 66
        E 0 90 4d 65
        E 0 90 31 65
        E 0 90 32 67
        E 0 90 33 67
        E 0 90 34 66
        E 0 90 35 65
        E 0 90 19 65
        E 0 90 1a 67
        E 0 90 1b 67
        E 0 90 1c 66
        E 0 90 1d 65
        E 120 80 61 00
        E 0 80 62 00
        E 0 80 63 00
        E 0 80 64 00
        E 0 80 65 00
        E 0 80 49 00
        E 0 80 4a 00
        E 0 80 4b 00
        E 0 80 4c 00
        E 0 80 4d 00
        E 0 80 31 00
        E 0 80 32 00
        E 0 80 33 00
        E 0 80 34 00
        E 0 80 35 00
        E 0 80 19 00
        E 0 80 1a 00
        E 0 80 1b 00
        E 0 80 1c 00
        E 0 80 1d 00
        E 360 90 61 65
        E 0 90 62 67
        E 0 90 63 67
        E 0 90 64 66
        E 0 90 65 65
        E 0 90 49 65
        E 0 90 4a 67
        E 0 90 4b 67
        E 0 90 4c 66
        E 0 90 4d 65
        E 0 90 31 65
        E 0 90 32 67
        E 0 90 33 67
        E 0 90 34 66
        E 0 90 35 65
        E 0 90 19 65
        E 0 90 1a 67
        E 0 90 1b 67
        E 0 90 1c 66
        E 0 90 1d 65
        E 120 80 61 00
        E 0 80 62 00
        E 0 80 63 00
        E 0 80 64 00
        E 0 80 65 00
        E 0 80 49 00
        E 0 80 4a 00
        E 0 80 4b 00
        E 0 80 4c 00
        E 0 80 4d 00
        E 0 80 31 00
        E 0 80 32 00
        E 0 80 33 00
        E 0 80 34 00
        E 0 80 35 00
        E 0 80 19 00
        E 0 80 1a 00
        E 0 80 1b 00
        E 0 80 1c 00
        E 0 80 1d 00
        E 360 90 61 65
        E 0 90 62 67
        E 0 90 63 67
        E 0 90 64 66
        E 0 90 65 65
        E 0 90 49 65
        E 0 90 4a 67
        E 0 90 4b 67
        E 0 90 4c 66
        E 0 90 4d 65
        E 0 90 31 65
        E 0 90 32 67
        E 0 90 33 67
        E 0 90 34 66
        E 0 90 35 65
        E 0 90 19 65
        E 0 90 1a 67
        E 0 90 1b 67
        E 0 90 1c 66
        E 0 90 1d 65
        E 120 80 61 00
        E 0 80 62 00
        E 0 80 63 00
        E 0 80 64 00
        E 0 80 65 00
        E 0 80 49 00
        E 0 80 4a 00
        E 0 80 4b 00
        E 0 80 4c 00
        E 0 80 4d 00
        E 0 80 31 00
        E 0 80 32 00
        E 0 80 33 00
        E 0 80 34 00
        E 0 80 35 00
        E 0 80 19 00
        E 0 80 1a 00
        E 0 80 1b 00
        E 0 80 1c 00
        E 0 80 1d 00
        E 360 90 61 65
        E 0 90 62 67
        E 0 90 63 67
        E 0 90 64 66
        E 0 90 65 65
        E 0 90 49 65
        E 0 90 4a 67
        E 0 90 4b 67
        E 0 90 4c 66
        E 0 90 4d 65
        E 0 90 31 65
        E 0 90 32 67
        E 0 90 33 67
        E 0 90 34 66
        E 0 90 35 65
        E 0 90 19 65
        E 0 90 1a 67
        E 0 90 1b 67
        E 0 90 1c 66
        E 0 90 1d 65
        E 120 80 61 00
        E 0 80 62 00
        E 0 80 63 00
        E 0 80 64 00
        E 0 80 65 00
        E 0 80 49 00
        E 0 80 4a 00
        E 0 80 4b 00
        E 0 80 4c 00
        E 0 80 4d 00
        E 0 80 31 00
        E 0 80 32 00
        E 0 80 33 00
        E 0 80 34 00
        E 0 80 35 00
        E 0 80 19 00
        E 0 80 1a 00
        E 0 80 1b 00
        E 0 80 1c 00
        E 0 80 1d 00
        E 360 90 61 65
        E 0 90 62 67
        E 0 90 63 67
        E 0 90 64 66
        E 0 90 65 65
        E 0 90 49 65
        E 0 90 4a 67
        E 0 90 4b 67
        E 0 90 4c 66
        E 0 90 4d 65
        E 0 90 31 65
        E 0 90 32 67
        E 0 90 33 67
        E 0 90 34 66
        E 0 90 35 65
        E 120 80 61 00
        E 0 80 62 00
        E 0 80 63 00
        E 0 80 64 00
        E 0 80 65 00
        E 0 80 49 00
        E 0 80 4a 00
        E 0 80 4b 00
        E 0 80 4c 00
        E 0 80 4d 00
        E 0 80 31 00
        E 0 80 32 00
        E 0 80 33 00
        E 0 80 34 00
        E 0 80 35 00
        E 360 90 0b 64
        E 0 90 61 66
        E 0 90 62 68
        E 0 90 63 68
        E 0 90 64 68
        E 0 90 65 66
        E 0 90 6c 66
        E 0 90 49 66
        E 0 90 4a 68
        E 0 90 4b 68
        E 0 90 4c 68
        E 0 90 4d 66
        E 0 90 31 66
        E 0 90 32 68
        E 0 90 33 68
        E 0 90 34 68
        E 0 90 35 66
        E 0 90 19 66
        E 0 90 1a 68
        E 0 90 1b 68
        E 0 90 1c 68
        E 0 90 1d 66
        E 120 80 0b 00
        E 0 80 6c 00
        E 480 80 61 00
        E 0 80 62 00
        E 0 80 63 00
        E 0 80 64 00
        E 0 80 65 00
        E 0 80 49 00
        E 0 80 4a 00
        E 0 80 4b 00
        E 0 80 4c 00
        E 0 80 4d 00
        E 0 80 31 00
        E 0 80 32 00
        E 0 80 33 00
        E 0 80 34 00
        E 0 80 35 00
        E 0 80 19 00
        E 0 80 1a 00
        E 0 80 1b 00
        E 0 80 1c 00
        E 0 80 1d 00
        E 120 90 61 66
        E 0 90 62 68
        E 0 90 63 68
        E 0 90 64 68
        E 0 90 65 66
        E 0 90 49 66
        E 0 90 4a 68
        E 0 90 4b 68
        E 0 90 4c 68
        E 0 90 4d 66
        E 0 90 31 66
        E 0 90 32 68
        E 0 90 33 68
        E 0 90 34 68
        E 0 90 35 66
        E 120 80 61 00
        E 0 80 62 00
        E 0 80 63 00
        E 0 80 64 00
        E 0 80 65 00
        E 0 80 49 00
        E 0 80 4a 00
        E 0 80 4b 00
        E 0 80 4c 00
        E 0 80 4d 00
        E 0 80 31 00
        E 0 80 32 00
        E 0 80 33 00
        E 0 80 34 00
        E 0 80 35 00
        E 120 90 61 66
        E 0 90 62 68
        E 0 90 63 68
        E 0 90 64 68
        E 0 90 65 66
        E 0 90 49 66
        E 0 90 4a 68
        E 0 90 4b 68
        E 0 90 4c 68
        E 0 90 4d 66
        E 0 90 31 66
        E 0 90 32 68
        E 0 90 33 68
        E 0 90 34 68
        E 0 90 35 66
        E 0 90 19 66
        E 0 90 1a 68
        E 0 90 1b 68
        E 0 90 1c 68
        E 0 90 1d 66
        E 120 80 61 00
        E 0 80 62 00
        E 0 80 63 00
        E 0 80 64 00
        E 0 80 65 00
        E 0 80 49 00
        E 0 80 4a 00
        E 0 80 4b 00
        E 0 80 4c 00
        E 0 80 4d 00
        E 0 80 31 00
        E 0 80 32 00
        E 0 80 33 00
        E 0 80 34 00
        E 0 80 35 00
        E 0 80 19 00
        E 0 80 1a 00
        E 0 80 1b 00
        E 0 80 1c 00
        E 0 80 1d 00
        E 360 90 61 66
        E 0 90 62 68
        E 0 90 63 68
        E 0 90 64 68
        E 0 90 65 66
        E 0 90 49 66
        E 0 90 4a 68
        E 0 90 4b 68
        E 0 90 4c 68
        E 0 90 4d 66
        E 0 90 31 66
        E 0 90 32 68
        E 0 90 33 68
        E 0 90 34 68
        E 0 90 35 66
        E 0 90 19 66
        E 0 90 1a 68
        E 0 90 1b 68
        E 0 90 1c 68
        E 0 90 1d 66
        E 120 80 61 00
        E 0 80 62 00
        E 0 80 63 00
        E 0 80 64 00
        E 0 80 65 00
        E 0 80 49 00
        E 0 80 4a 00
        E 0 80 4b 00
        E 0 80 4c 00
        E 0 80 4d 00
        E 0 80 31 00
        E 0 80 32 00
        E 0 80 33 00
        E 0 80 34 00
        E 0 80 35 00
        E 0 80 19 00
        E 0 80 1a 00
        E 0 80 1b 00
        E 0 80 1c 00
        E 0 80 1d 00
        E 360 90 61 66
        E 0 90 62 68
        E 0 90 63 68
        E 0 90 64 68
        E 0 90 65 66
        E 0 90 49 66
        E 0 90 4a 68
        E 0 90 4b 68
        E 0 90 4c 68
        E 0 90 4d 66
        E 0 90 31 66
        E 0 90 32 68
        E 0 90 33 68
        E 0 90 34 68
        E 0 90 35 66
        E 0 90 19 66
        E 0 90 1a 68
        E 0 90 1b 68
        E 0 90 1c 68
        E 0 90 1d 66
        E 120 80 61 00
        E 0 80 62 00
        E 0 80 63 00
        E 0 80 64 00
        E 0 80 65 00
        E 0 80 49 00
        E 0 80 4a 00
        E 0 80 4b 00
        E 0 80 4c 00
        E 0 80 4d 00
        E 0 80 31 00
        E 0 80 32 00
        E 0 80 33 00
        E 0 80 34 00
        E 0 80 35 00
        E 0 80 19 00
        E 0 80 1a 00
        E 0 80 1b 00
        E 0 80 1c 00
        E 0 80 1d 00
        E 360 90 61 66
        E 0 90 62 68
        E 0 90 63 68
        E 0 90 64 68
        E 0 90 65 66
        E 0 90 49 66
        E 0 90 4a 68
        E 0 90 4b 68
        E 0 90 4c 68
        E 0 90 4d 66
        E 0 90 31 66
        E 0 90 32 68
        E 0 90 33 68
        E 0 90 34 68
        E 0 90 35 66
        E 0 90 19 66
        E 0 90 1a 68
        E 0 90 1b 68
        E 0 90 1c 68
        E 0 90 1d 66
        E 120 80 61 00
        E 0 80 62 00
        E 0 80 63 00
        E 0 80 64 00
        E 0 80 65 00
        E 0 80 49 00
        E 0 80 4a 00
        E 0 80 4b 00
        E 0 80 4c 00
        E 0 80 4d 00
        E 0 80 31 00
        E 0 80 32 00
        E 0 80 33 00
        E 0 80 34 00
        E 0 80 35 00
        E 0 80 19 00
        E 0 80 1a 00
        E 0 80 1b 00
        E 0 80 1c 00
        E 0 80 1d 00
        E 360 90 61 66
        E 0 90 62 68
        E 0 90 63 68
        E 0 90 64 68
        E 0 90 65 66
        E 0 90 49 66
        E 0 90 4a 68
        E 0 90 4b 68
        E 0 90 4c 68
        E 0 90 4d 66
        E 0 90 31 66
        E 0 90 32 68
        E 0 90 33 68
        E 0 90 34 68
        E 0 90 35 66
        E 0 90 19 66
        E 0 90 1a 68
        E 0 90 1b 68
        E 0 90 1c 68
        E 0 90 1d 66
        E 120 80 61 00
        E 0 80 62 00
        E 0 80 63 00
        E 0 80 64 00
        E 0 80 65 00
        E 0 80 49 00
        E 0 80 4a 00
        E 0 80 4b 00
        E 0 80 4c 00
        E 0 80 4d 00
        E 0 80 31 00
        E 0 80 32 00
        E 0 80 33 00
        E 0 80 34 00
        E 0 80 35 00
        E 0 80 19 00
        E 0 80 1a 00
        E 0 80 1b 00
        E 0 80 1c 00
        E 0 80 1d 00
        E 360 90 61 66
        E 0 90 62 68
        E 0 90 63 68
        E 0 90 64 68
        E 0 90 65 66
        E 0 90 49 66
        E 0 90 4a 68
        E 0 90 4b 68
        E 0 90 4c 68
        E 0 90 4d 66
        E 0 90 31 66
        E 0 90 32 68
        E 0 90 33 68
        E 0 90 34 68
        E 0 90 35 66
        E 120 80 61 00
        E 0 80 62 00
        E 0 80 63 00
        E 0 80 64 00
        E 0 80 65 00
        E 0 80 49 00
        E 0 80 4a 00
        E 0 80 4b 00
        E 0 80 4c 00
        E 0 80 4d 00
        E 0 80 31 00
        E 0 80 32 00
        E 0 80 33 00
        E 0 80 34 00
        E 0 80 35 00
        E 360 90 0a 64
        E 0 90 61 65
        E 0 90 62 67
        E 0 90 63 67
        E 0 90 64 66
        E 0 90 65 65
        E 0 90 6c 65
        E 0 90 49 65
        E 0 90 4a 67
        E 0 90 4b 67
        E 0 90 4c 66
        E 0 90 4d 65
        E 0 90 31 65
        E 0 90 32 67
        E 0 90 33 67
        E 0 90 34 66
        E 0 90 35 65
        E 0 90 19 65
        E 0 90 1a 67
        E 0 90 1b 67
        E 0 90 1c 66
        E 0 90 1d 65
        E 120 80 0a 00
        E 0 80 61 00
        E 0 80 62 00
        E 0 80 63 00
        E 0 80 64 00
        E 0 80 65 00
        E 0 80 6c 00
        E 0 80 49 00
        E 0 80 4a 00
        E 0 80 4b 00
        E 0 80 4c 00
        E 0 80 4d 00
        E 0 80 31 00
        E 0 80 32 00
        E 0 80 33 00
        E 0 80 34 00
        E 0 80 35 00
        E 0 80 19 00
        E 0 80 1a 00
        E 0 80 1b 00
        E 0 80 1c 00
        E 0 80 1d 00
        E 360 90 61 65
        E 0 90 62 67
        E 0 90 63 67
        E 0 90 64 66
        E 0 90 65 65
        E 0 90 49 65
        E 0 90 4a 67
        E 0 90 4b 67
        E 0 90 4c 66
        E 0 90 4d 65
        E 0 90 31 65
        E 0 90 32 67
        E 0 90 33 67
        E 0 90 34 66
        E 0 90 35 65
        E 0 90 19 65
        E 0 90 1a 67
        E 0 90 1b 67
        E 0 90 1c 66
        E 0 90 1d 65
        E 120 80 61 00
        E 0 80 62 00
        E 0 80 63 00
        E 0 80 64 00
        E 0 80 65 00
        E 0 80 49 00
        E 0 80 4a 00
        E 0 80 4b 00
        E 0 80 4c 00
        E 0 80 4d 00
        E 0 80 31 00
        E 0 80 32 00
        E 0 80 33 00
        E 0 80 34 00
        E 0 80 35 00
        E 0 80 19 00
        E 0 80 1a 00
        E 0 80 1b 00
        E 0 80 1c 00
        E 0 80 1d 00
        E 360 90 61 65
        E 0 90 62 67
        E 0 90 63 67
        E 0 90 64 66
        E 0 90 65 65
        E 0 90 49 65
        E 0 90 4a 67
        E 0 90 4b 67
        E 0 90 4c 66
        E 0 90 4d 65
        E 0 90 31 65
        E 0 90 32 67
        E 0 90 33 67
        E 0 90 34 66
        E 0 90 35 65
        E 0 90 19 65
        E 0 90 1a 67
        E 0 90 1b 67
        E 0 90 1c 66
        E 0 90 1d 65
        E 120 80 61 00
        E 0 80 62 00
        E 0 80 63 00
        E 0 80 64 00
        E 0 80 65 00
        E 0 80 49 00
        E 0 80 4a 00
        E 0 80 4b 00
        E 0 80 4c 00
        E 0 80 4d 00
        E 0 80 31 00
        E 0 80 32 00
        E 0 80 33 00
        E 0 80 34 00
        E 0 80 35 00
        E 0 80 19 00
        E 0 80 1a 00
        E 0 80 1b 00
        E 0 80 1c 00
        E 0 80 1d 00
        E 360 90 61 65
        E 0 90 62 67
        E 0 90 63 67
        E 0 90 64 66
        E 0 90 65 65
        E 0 90 49 65
        E 0 90 4a 67
        E 0 90 4b 67
        E 0 90 4c 66
        E 0 90 4d 65
        E 0 90 31 65
        E 0 90 32 67
        E 0 90 33 67
        E 0 90 34 66
        E 0 90 35 65
        E 0 90 19 65
        E 0 90 1a 67
        E 0 90 1b 67
        E 0 90 1c 66
        E 0 90 1d 65
        E 120 80 61 00
        E 0 80 62 00
        E 0 80 63 00
        E 0 80 64 00
        E 0 80 65 00
        E 0 80 49 00
        E 0 80 4a 00
        E 0 80 4b 00
        E 0 80 4c 00
        E 0 80 4d 00
        E 0 80 31 00
        E 0 80 32 00
        E 0 80 33 00
        E 0 80 34 00
        E 0 80 35 00
        E 0 80 19 00
        E 0 80 1a 00
        E 0 80 1b 00
        E 0 80 1c 00
        E 0 80 1d 00
        E 360 90 61 65
        E 0 90 62 67
        E 0 90 63 67
        E 0 90 64 66
        E 0 90 65 65
        E 0 90 49 65
        E 0 90 4a 67
        E 0 90 4b 67
        E 0 90 4c 66
        E 0 90 4d 65
        E 0 90 31 65
        E 0 90 32 67
        E 0 90 33 67
        E 0 90 34 66
        E 0 90 35 65
        E 0 90 19 65
        E 0 90 1a 67
        E 0 90 1b 67
        E 0 90 1c 66
        E 0 90 1d 65
        E 120 80 61 00
        E 0 80 62 00
        E 0 80 63 00
        E 0 80 64 00
        E 0 80 65 00
        E 0 80 49 00
        E 0 80 4a 00
        E 0 80 4b 00
        E 0 80 4c 00
        E 0 80 4d 00
        E 0 80 31 00
        E 0 80 32 00
        E 0 80 33 00
        E 0 80 34 00
        E 0 80 35 00
        E 0 80 19 00
        E 0 80 1a 00
        E 0 80 1b 00
        E 0 80 1c 00
        E 0 80 1d 00
        E 360 90 61 65
        E 0 90 62 67
        E 0 90 63 67
        E 0 90 64 66
        E 0 90 65 65
        E 0 90 49 65
        E 0 90 4a 67
        E 0 90 4b 67
        E 0 90 4c 66
        E 0 90 4d 65
        E 0 90 31 65
        E 0 90 32 67
        E 0 90 33 67
        E 0 90 34 66
        E 0 90 35 65
        E 0 90 19 65
        E 0 90 1a 67
        E 0 90 1b 67
        E 0 90 1c 66
        E 0 90 1d 65
        E 120 80 61 00
        E 0 80 62 00
        E 0 80 63 00
        E 0 80 64 00
        E 0 80 65 00
        E 0 80 49 00
        E 0 80 4a 00
        E 0 80 4b 00
        E 0 80 4c 00
        E 0 80 4d 00
        E 0 80 31 00
        E 0 80 32 00
        E 0 80 33 00
        E 0 80 34 00
        E 0 80 35 00
        E 0 80 19 00
        E 0 80 1a 00
        E 0 80 1b 00
        E 0 80 1c 00
        E 0 80 1d 00
        E 120 90 61 65
        E 0 90 62 67
        E 0 90 63 67
        E 0 90 64 66
        E 0 90 65 65
        E 0 90 49 65
        E 0 90 4a 67
        E 0 90 4b 67
        E 0 90 4c 66
        E 0 90 4d 65
        E 0 90 31 65
        E 0 90 32 67
        E 0 90 33 67
        E 0 90 34 66
        E 0 90 35 65
        E 120 80 61 00
        E 0 80 62 00
        E 0 80 63 00
        E 0 80 64 00
        E 0 80 65 00
        E 0 80 49 00
        E 0 80 4a 00
        E 0 80 4b 00
        E 0 80 4c 00
        E 0 80 4d 00
        E 0 80 31 00
        E 0 80 32 00
        E 0 80 33 00
        E 0 80 34 00
        E 0 80 35 00
        E 120 90 61 65
        E 0 90 62 67
        E 0 90 63 67
        E 0 90 64 66
        E 0 90 65 65
        E 0 90 49 65
        E 0 90 4a 67
        E 0 90 4b 67
        E 0 90 4c 66
        E 0 90 4d 65
        E 0 90 31 65
        E 0 90 32 67
        E 0 90 33 67
        E 0 90 34 66
        E 0 90 35 65
        E 0 90 19 65
        E 0 90 1a 67
        E 0 90 1b 67
        E 0 90 1c 66
        E 0 90 1d 65
        E 120 80 61 00
        E 0 80 62 00
        E 0 80 63 00
        E 0 80 64 00
        E 0 80 65 00
        E 0 80 49 00
        E 0 80 4a 00
        E 0 80 4b 00
        E 0 80 4c 00
        E 0 80 4d 00
        E 0 80 31 00
        E 0 80 32 00
        E 0 80 33 00
        E 0 80 34 00
        E 0 80 35 00
        E 0 80 19 00
        E 0 80 1a 00
        E 0 80 1b 00
        E 0 80 1c 00
        E 0 80 1d 00
        E 120 90 61 65
        E 0 90 62 67
        E 0 90 63 67
        E 0 90 64 66
        E 0 90 65 65
        E 0 90 49 65
        E 0 90 4a 67
        E 0 90 4b 67
        E 0 90 4c 66
        E 0 90 4d 65
        E 0 90 31 65
        E 0 90 32 67
        E 0 90 33 67
        E 0 90 34 66
        E 0 90 35 65
        E 120 80 61 00
        E 0 80 62 00
        E 0 80 63 00
        E 0 80 64 00
        E 0 80 65 00
        E 0 80 49 00
        E 0 80 4a 00
        E 0 80 4b 00
        E 0 80 4c 00
        E 0 80 4d 00
        E 0 80 31 00
        E 0 80 32 00
        E 0 80 33 00
        E 0 80 34 00
        E 0 80 35 00
        E 600 90 62 6a
        E 0 90 6c 6a
        E 0 90 74 64
        E 0 90 4a 6a
        E 0 90 32 6a
        E 0 90 1a 6a
        E 0 9b 67 64
        E 0 9b 4f 64
        E 0 9b 37 64
        E 0 9b 1f 64
        E 120 80 6c 00
        E 840 80 62 00
        E 0 80 4a 00
        E 0 80 32 00
        E 0 80 1a 00
        E 0 8b 67 00
        E 0 8b 4f 00
        E 0 8b 37 00
        E 0 8b 1f 00
        E 480 90 63 6a
        E 0 90 4b 6a
        E 0 90 33 6a
        E 120 80 63 00
        E 0 80 4b 00
        E 0 80 33 00
        E 0 90 63 6c
        E 0 90 66 64
        E 720 80 63 00
        E 0 80 66 00
        E 120 90 63 6a
        E 0 90 4b 6a
        E 0 90 33 6a
        E 120 80 63 00
        E 0 80 4b 00
        E 0 80 33 00
        E 360 90 62 6a
        E 0 90 67 64
        E 0 90 4a 6a
        E 0 90 4f 64
        E 0 90 32 6a
        E 0 90 37 64
        E 0 90 1a 6a
        E 0 90 1f 64
        E 840 80 62 00
        E 0 80 67 00
        E 0 80 4a 00
        E 0 80 4f 00
        E 0 80 32 00
        E 0 80 37 00
        E 0 80 1a 00
        E 0 80 1f 00
        E 120 90 62 68
        E 0 90 6c 68
        E 0 90 4a 68
        E 0 90 32 68
        E 0 90 1a 68
        E 120 80 74 00
        E 0 80 62 00
        E 0 80 6c 00
        E 0 80 4a 00
        E 0 80 32 00
        E 0 80 1a 00
        E 360 90 62 68
        E 0 90 4a 68
        E 0 90 32 68
        E 0 90 1a 68
        E 120 80 62 00
        E 0 80 4a 00
        E 0 80 32 00
        E 0 80 1a 00
        E 360 90 62 68
        E 0 90 4a 68
        E 0 90 32 68
        E 0 90 1a 68
        E 120 80 62 00
        E 0 80 4a 00
        E 0 80 32 00
        E 0 80 1a 00
        E 360 90 62 68
        E 0 90 4a 68
        E 0 90 32 68
        E 0 90 1a 68
        E 120 80 62 00
        E 0 80 4a 00
        E 0 80 32 00
        E 0 80 1a 00
        E 360 90 62 68
        E 0 90 4a 68
        E 0 90 32 68
        E 0 90 1a 68
        E 120 80 62 00
        E 0 80 4a 00
        E 0 80 32 00
        E 0 80 1a 00
        E 360 90 61 68
        E 0 90 49 68
        E 0 90 31 68
        E 120 80 61 00
        E 0 80 49 00
        E 0 80 31 00
        E 120 90 61 6a
        E 0 90 49 6a
        E 120 80 61 00
        E 0 80 49 00
        E 120 90 62 68
        E 0 90 4a 68
        E 0 90 32 68
        E 0 90 1a 68
        E 120 80 62 00
        E 0 80 4a 00
        E 0 80 32 00
        E 0 80 1a 00
        E 120 90 61 68
        E 0 90 49 68
        E 120 80 61 00
        E 0 80 49 00
        E 120 90 61 6a
        E 0 90 49 6a
        E 0 90 31 6a
        E 120 80 61 00
        E 0 80 49 00
        E 0 80 31 00
        E 120 90 62 68
        E 0 90 4a 68
        E 120 80 62 00
        E 0 80 4a 00
        E 120 90 62 6a
        E 0 90 6c 6a
        E 0 90 4a 6a
        E 0 90 32 6a
        E 0 90 1a 6a
        E 0 9b 67 64
        E 0 9b 4f 64
        E 0 9b 37 64
        E 0 9b 1f 64
        E 120 80 6c 00
        E 840 80 62 00
        E 0 80 4a 00
        E 0 80 32 00
        E 0 80 1a 00
        E 0 8b 67 00
        E 0 8b 4f 00
        E 0 8b 37 00
        E 0 8b 1f 00
        E 480 90 61 68
        E 0 90 6c 68
        E 0 90 49 68
        E 0 90 31 68
        E 120 80 61 00
        E 0 80 6c 00
        E 0 80 49 00
        E 0 80 31 00
        E 0 90 61 6a
        E 0 90 66 64
        E 720 80 61 00
        E 0 80 66 00
        E 120 90 61 68
        E 0 90 49 68
        E 0 90 31 68
        E 120 80 61 00
        E 0 80 49 00
        E 0 80 31 00
        E 360 90 60 68
        E 0 90 48 68
        E 0 90 30 68
        E 0 90 18 68
        E 840 80 60 00
        E 0 80 48 00
        E 0 80 30 00
        E 0 80 18 00
        E 120 90 60 66
        E 0 90 6c 66
        E 0 90 48 66
        E 0 90 30 66
        E 0 90 18 66
        E 120 80 60 00
        E 0 80 6c 00
        E 0 80 48 00
        E 0 80 30 00
        E 0 80 18 00
        E 360 90 60 66
        E 0 90 48 66
        E 0 90 30 66
        E 0 90 18 66
        E 120 80 60 00
        E 0 80 48 00
        E 0 80 30 00
        E 0 80 18 00
        E 360 90 60 66
        E 0 90 48 66
        E 0 90 30 66
        E 0 90 18 66
        E 120 80 60 00
        E 0 80 48 00
        E 0 80 30 00
        E 0 80 18 00
        E 360 90 60 66
        E 0 90 48 66
        E 0 90 30 66
        E 0 90 18 66
        E 120 80 60 00
        E 0 80 48 00
        E 0 80 30 00
        E 0 80 18 00
        E 360 90 60 66
        E 0 90 48 66
        E 0 90 30 66
        E 0 90 18 66
        E 120 80 60 00
        E 0 80 48 00
        E 0 80 30 00
        E 0 80 18 00
        E 360 90 61 68
        E 0 90 6c 68
        E 0 90 49 68
        E 0 90 31 68
        E 120 80 61 00
        E 0 80 6c 00
        E 0 80 49 00
        E 0 80 31 00
        E 120 90 61 6a
        E 0 90 49 6a
        E 120 80 61 00
        E 0 80 49 00
        E 120 90 62 68
        E 0 90 4a 68
        E 0 90 32 68
        E 0 90 1a 68
        E 120 80 62 00
        E 0 80 4a 00
        E 0 80 32 00
        E 0 80 1a 00
        E 120 90 61 68
        E 0 90 49 68
        E 120 80 61 00
        E 0 80 49 00
        E 120 90 61 6a
        E 0 90 49 6a
        E 0 90 31 6a
        E 120 80 61 00
        E 0 80 49 00
        E 0 80 31 00
        E 120 90 62 68
        E 0 90 4a 68
        E 120 80 62 00
        E 0 80 4a 00
        E 120 90 62 6a
        E 0 90 6c 6a
        E 0 90 4a 6a
        E 0 90 32 6a
        E 0 90 1a 6a
        E 0 9b 67 64
        E 0 9b 4f 64
        E 0 9b 37 64
        E 0 9b 1f 64
        E 120 80 6c 00
        E 840 80 62 00
        E 0 80 4a 00
        E 0 80 32 00
        E 0 80 1a 00
        E 0 8b 67 00
        E 0 8b 4f 00
        E 0 8b 37 00
        E 0 8b 1f 00
        E 480 90 63 6a
        E 0 90 4b 6a
        E 0 90 33 6a
        E 120 80 63 00
        E 0 80 4b 00
        E 0 80 33 00
        E 0 90 66 64
        E 0 92 63 6c
        E 720 80 66 00
        E 0 82 63 00
        E 120 90 63 6a
        E 0 90 4b 6a
        E 0 90 33 6a
        E 120 80 63 00
        E 0 80 4b 00
        E 0 80 33 00
        E 360 90 62 6a
        E 0 90 67 64
        E 0 90 4a 6a
        E 0 90 4f 64
        E 0 90 32 6a
        E 0 90 37 64
        E 0 90 1a 6a
        E 0 90 1f 64
        E 840 80 62 00
        E 0 80 67 00
        E 0 80 4a 00
        E 0 80 4f 00
        E 0 80 32 00
        E 0 80 37 00
        E 0 80 1a 00
        E 0 80 1f 00
        E 120 90 62 68
        E 0 90 6c 68
        E 0 90 4a 68
        E 0 90 32 68
        E 0 90 1a 68
        E 120 80 62 00
        E 0 80 6c 00
        E 0 80 4a 00
        E 0 80 32 00
        E 0 80 1a 00
        E 360 90 62 68
        E 0 90 4a 68
        E 0 90 32 68
        E 0 90 1a 68
        E 120 80 62 00
        E 0 80 4a 00
        E 0 80 32 00
        E 0 80 1a 00
        E 360 90 62 68
        E 0 90 4a 68
        E 0 90 32 68
        E 0 90 1a 68
        E 120 80 62 00
        E 0 80 4a 00
        E 0 80 32 00
        E 0 80 1a 00
        E 360 90 62 68
        E 0 90 4a 68
        E 0 90 32 68
        E 0 90 1a 68
        E 120 80 62 00
        E 0 80 4a 00
        E 0 80 32 00
        E 0 80 1a 00
        E 360 90 62 68
        E 0 90 4a 68
        E 0 90 32 68
        E 0 90 1a 68
        E 120 80 62 00
        E 0 80 4a 00
        E 0 80 32 00
        E 0 80 1a 00
        E 360 90 61 68
        E 0 90 49 68
        E 0 90 31 68
        E 120 80 61 00
        E 0 80 49 00
        E 0 80 31 00
        E 120 90 61 6a
        E 0 90 49 6a
        E 120 80 61 00
        E 0 80 49 00
        E 120 90 62 68
        E 0 90 4a 68
        E 0 90 32 68
        E 0 90 1a 68
        E 120 80 62 00
        E 0 80 4a 00
        E 0 80 32 00
        E 0 80 1a 00
        E 120 90 61 68
        E 0 90 49 68
        E 120 80 61 00
        E 0 80 49 00
        E 120 90 61 6a
        E 0 90 49 6a
        E 0 90 31 6a
        E 120 80 61 00
        E 0 80 49 00
        E 0 80 31 00
        E 120 90 62 68
        E 0 90 4a 68
        E 120 80 62 00
        E 0 80 4a 00
        E 120 90 62 6a
        E 0 90 6c 6a
        E 0 90 74 64
        E 0 90 4a 6a
        E 0 90 32 6a
        E 0 90 1a 6a
        E 0 9b 67 64
        E 0 9b 4f 64
        E 0 9b 37 64
        E 0 9b 1f 64
        E 120 80 6c 00
        E 840 80 62 00
        E 0 80 4a 00
        E 0 80 32 00
        E 0 80 1a 00
        E 0 8b 67 00
        E 0 8b 4f 00
        E 0 8b 37 00
        E 0 8b 1f 00
        E 480 90 61 68
        E 0 90 6c 68
        E 0 90 49 68
        E 0 90 31 68
        E 120 80 61 00
        E 0 80 6c 00
        E 0 80 49 00
        E 0 80 31 00
        E 0 90 61 6a
        E 0 90 66 64
        E 720 80 61 00
        E 0 80 66 00
        E 120 90 61 68
        E 0 90 49 68
        E 0 90 31 68
        E 120 80 61 00
        E 0 80 49 00
        E 0 80 31 00
        E 360 90 60 68
        E 0 90 48 68
        E 0 90 30 68
        E 0 90 18 68
        E 840 80 60 00
        E 0 80 48 00
        E 0 80 30 00
        E 0 80 18 00
        E 120 90 60 66
        E 0 90 6c 66
        E 0 90 48 66
        E 0 90 30 66
        E 0 90 18 66
        E 120 80 74 00
        E 0 80 60 00
        E 0 80 6c 00
        E 0 80 48 00
        E 0 80 30 00
        E 0 80 18 00
        E 360 90 60 66
        E 0 90 48 66
        E 0 90 30 66
        E 0 90 18 66
        E 120 80 60 00
        E 0 80 48 00
        E 0 80 30 00
        E 0 80 18 00
        E 360 90 60 66
        E 0 90 48 66
        E 0 90 30 66
        E 0 90 18 66
        E 120 80 60 00
        E 0 80 48 00
        E 0 80 30 00
        E 0 80 18 00
        E 360 90 60 66
        E 0 90 48 66
        E 0 90 30 66
        E 0 90 18 66
        E 120 80 60 00
        E 0 80 48 00
        E 0 80 30 00
        E 0 80 18 00
        E 360 90 60 66
        E 0 90 48 66
        E 0 90 30 66
        E 0 90 18 66
        E 0 9b 67 64
        E 0 9b 4f 64
        E 0 9b 37 64
        E 0 9b 1f 64
        E 960 80 60 00
        E 0 80 48 00
        E 0 80 30 00
        E 0 80 18 00
        E 0 8b 67 00
        E 0 8b 4f 00
        E 0 8b 37 00
        E 0 8b 1f 00
        <X 960 0
          /wFbYmVnaW5fcGcgc29uZ190cmFpbmVyX3BnXzZd
        >
        E 0 90 61 67
        E 0 90 6c 67
        E 0 90 49 67
        E 0 90 31 67
        E 0 90 19 67
        E 120 80 61 00
        E 0 80 6c 00
        E 0 80 49 00
        E 0 80 31 00
        E 0 80 19 00
        E 120 90 61 69
        E 0 90 66 64
        E 0 90 49 69
        E 0 90 4e 64
        E 120 80 61 00
        E 0 80 49 00
        E 120 90 61 67
        E 0 90 49 67
        E 0 90 31 67
        E 0 90 19 67
        E 3600 80 66 00
        E 0 80 4e 00
        E 0 80 61 00
        E 0 80 49 00
        E 0 80 31 00
        E 0 80 19 00
        <X 240 0
          /wFbZW5kX3BnIHNvbmdfdHJhaW5lcl9wZ182XQ==
        >
        E 0 90 0b 64
        E 0 90 61 66
        E 0 90 62 68
        E 0 90 63 68
        E 0 90 64 68
        E 0 90 65 66
        E 0 90 6c 66
        E 0 90 49 66
        E 0 90 4a 68
        E 0 90 4b 68
        E 0 90 4c 68
        E 0 90 4d 66
        E 0 90 31 66
        E 0 90 32 68
        E 0 90 33 68
        E 0 90 34 68
        E 0 90 35 66
        E 0 90 19 66
        E 0 90 1a 68
        E 0 90 1b 68
        E 0 90 1c 68
        E 0 90 1d 66
        E 120 80 0b 00
        E 0 80 6c 00
        E 480 80 61 00
        E 0 80 62 00
        E 0 80 63 00
        E 0 80 64 00
        E 0 80 65 00
        E 0 80 49 00
        E 0 80 4a 00
        E 0 80 4b 00
        E 0 80 4c 00
        E 0 80 4d 00
        E 0 80 31 00
        E 0 80 32 00
        E 0 80 33 00
        E 0 80 34 00
        E 0 80 35 00
        E 0 80 19 00
        E 0 80 1a 00
        E 0 80 1b 00
        E 0 80 1c 00
        E 0 80 1d 00
        E 120 90 61 66
        E 0 90 62 68
        E 0 90 63 68
        E 0 90 64 68
        E 0 90 65 66
        E 0 90 49 66
        E 0 90 4a 68
        E 0 90 4b 68
        E 0 90 4c 68
        E 0 90 4d 66
        E 0 90 31 66
        E 0 90 32 68
        E 0 90 33 68
        E 0 90 34 68
        E 0 90 35 66
        E 120 80 61 00
        E 0 80 62 00
        E 0 80 63 00
        E 0 80 64 00
        E 0 80 65 00
        E 0 80 49 00
        E 0 80 4a 00
        E 0 80 4b 00
        E 0 80 4c 00
        E 0 80 4d 00
        E 0 80 31 00
        E 0 80 32 00
        E 0 80 33 00
        E 0 80 34 00
        E 0 80 35 00
        E 120 90 61 66
        E 0 90 62 68
        E 0 90 63 68
        E 0 90 64 68
        E 0 90 65 66
        E 0 90 49 66
        E 0 90 4a 68
        E 0 90 4b 68
        E 0 90 4c 68
        E 0 90 4d 66
        E 0 90 31 66
        E 0 90 32 68
        E 0 90 33 68
        E 0 90 34 68
        E 0 90 35 66
        E 0 90 19 66
        E 0 90 1a 68
        E 0 90 1b 68
        E 0 90 1c 68
        E 0 90 1d 66
        E 120 80 61 00
        E 0 80 62 00
        E 0 80 63 00
        E 0 80 64 00
        E 0 80 65 00
        E 0 80 49 00
        E 0 80 4a 00
        E 0 80 4b 00
        E 0 80 4c 00
        E 0 80 4d 00
        E 0 80 31 00
        E 0 80 32 00
        E 0 80 33 00
        E 0 80 34 00
        E 0 80 35 00
        E 0 80 19 00
        E 0 80 1a 00
        E 0 80 1b 00
        E 0 80 1c 00
        E 0 80 1d 00
        E 360 90 61 66
        E 0 90 62 68
        E 0 90 63 68
        E 0 90 64 68
        E 0 90 65 66
        E 0 90 49 66
        E 0 90 4a 68
        E 0 90 4b 68
        E 0 90 4c 68
        E 0 90 4d 66
        E 0 90 31 66
        E 0 90 32 68
        E 0 90 33 68
        E 0 90 34 68
        E 0 90 35 66
        E 0 90 19 66
        E 0 90 1a 68
        E 0 90 1b 68
        E 0 90 1c 68
        E 0 90 1d 66
        E 120 80 61 00
        E 0 80 62 00
        E 0 80 63 00
        E 0 80 64 00
        E 0 80 65 00
        E 0 80 49 00
        E 0 80 4a 00
        E 0 80 4b 00
        E 0 80 4c 00
        E 0 80 4d 00
        E 0 80 31 00
        E 0 80 32 00
        E 0 80 33 00
        E 0 80 34 00
        E 0 80 35 00
        E 0 80 19 00
        E 0 80 1a 00
        E 0 80 1b 00
        E 0 80 1c 00
        E 0 80 1d 00
        E 360 90 61 66
        E 0 90 62 68
        E 0 90 63 68
        E 0 90 64 68
        E 0 90 65 66
        E 0 90 49 66
        E 0 90 4a 68
        E 0 90 4b 68
        E 0 90 4c 68
        E 0 90 4d 66
        E 0 90 31 66
        E 0 90 32 68
        E 0 90 33 68
        E 0 90 34 68
        E 0 90 35 66
        E 0 90 19 66
        E 0 90 1a 68
        E 0 90 1b 68
        E 0 90 1c 68
        E 0 90 1d 66
        E 120 80 61 00
        E 0 80 62 00
        E 0 80 63 00
        E 0 80 64 00
        E 0 80 65 00
        E 0 80 49 00
        E 0 80 4a 00
        E 0 80 4b 00
        E 0 80 4c 00
        E 0 80 4d 00
        E 0 80 31 00
        E 0 80 32 00
        E 0 80 33 00
        E 0 80 34 00
        E 0 80 35 00
        E 0 80 19 00
        E 0 80 1a 00
        E 0 80 1b 00
        E 0 80 1c 00
        E 0 80 1d 00
        E 120 90 61 66
        E 0 90 62 68
        E 0 90 63 68
        E 0 90 64 68
        E 0 90 65 66
        E 0 90 49 66
        E 0 90 4a 68
        E 0 90 4b 68
        E 0 90 4c 68
        E 0 90 4d 66
        E 0 90 31 66
        E 0 90 32 68
        E 0 90 33 68
        E 0 90 34 68
        E 0 90 35 66
        E 120 80 61 00
        E 0 80 62 00
        E 0 80 63 00
        E 0 80 64 00
        E 0 80 65 00
        E 0 80 49 00
        E 0 80 4a 00
        E 0 80 4b 00
        E 0 80 4c 00
        E 0 80 4d 00
        E 0 80 31 00
        E 0 80 32 00
        E 0 80 33 00
        E 0 80 34 00
        E 0 80 35 00
        E 120 90 61 66
        E 0 90 62 68
        E 0 90 63 68
        E 0 90 64 68
        E 0 90 65 66
        E 0 90 49 66
        E 0 90 4a 68
        E 0 90 4b 68
        E 0 90 4c 68
        E 0 90 4d 66
        E 0 90 31 66
        E 0 90 32 68
        E 0 90 33 68
        E 0 90 34 68
        E 0 90 35 66
        E 0 90 19 66
        E 0 90 1a 68
        E 0 90 1b 68
        E 0 90 1c 68
        E 0 90 1d 66
        E 120 80 61 00
        E 0 80 62 00
        E 0 80 63 00
        E 0 80 64 00
        E 0 80 65 00
        E 0 80 49 00
        E 0 80 4a 00
        E 0 80 4b 00
        E 0 80 4c 00
        E 0 80 4d 00
        E 0 80 31 00
        E 0 80 32 00
        E 0 80 33 00
        E 0 80 34 00
        E 0 80 35 00
        E 0 80 19 00
        E 0 80 1a 00
        E 0 80 1b 00
        E 0 80 1c 00
        E 0 80 1d 00
        E 120 90 61 66
        E 0 90 62 68
        E 0 90 63 68
        E 0 90 64 68
        E 0 90 65 66
        E 0 90 49 66
        E 0 90 4a 68
        E 0 90 4b 68
        E 0 90 4c 68
        E 0 90 4d 66
        E 0 90 31 66
        E 0 90 32 68
        E 0 90 33 68
        E 0 90 34 68
        E 0 90 35 66
        E 120 80 61 00
        E 0 80 62 00
        E 0 80 63 00
        E 0 80 64 00
        E 0 80 65 00
        E 0 80 49 00
        E 0 80 4a 00
        E 0 80 4b 00
        E 0 80 4c 00
        E 0 80 4d 00
        E 0 80 31 00
        E 0 80 32 00
        E 0 80 33 00
        E 0 80 34 00
        E 0 80 35 00
        E 120 90 61 66
        E 0 90 62 68
        E 0 90 63 68
        E 0 90 64 68
        E 0 90 65 66
        E 0 90 49 66
        E 0 90 4a 68
        E 0 90 4b 68
        E 0 90 4c 68
        E 0 90 4d 66
        E 0 90 31 66
        E 0 90 32 68
        E 0 90 33 68
        E 0 90 34 68
        E 0 90 35 66
        E 0 90 19 66
        E 0 90 1a 68
        E 0 90 1b 68
        E 0 90 1c 68
        E 0 90 1d 66
        E 120 80 61 00
        E 0 80 62 00
        E 0 80 63 00
        E 0 80 64 00
        E 0 80 65 00
        E 0 80 49 00
        E 0 80 4a 00
        E 0 80 4b 00
        E 0 80 4c 00
        E 0 80 4d 00
        E 0 80 31 00
        E 0 80 32 00
        E 0 80 33 00
        E 0 80 34 00
        E 0 80 35 00
        E 0 80 19 00
        E 0 80 1a 00
        E 0 80 1b 00
        E 0 80 1c 00
        E 0 80 1d 00
        E 120 90 61 66
        E 0 90 62 68
        E 0 90 63 68
        E 0 90 64 68
        E 0 90 65 66
        E 0 90 49 66
        E 0 90 4a 68
        E 0 90 4b 68
        E 0 90 4c 68
        E 0 90 4d 66
        E 0 90 31 66
        E 0 90 32 68
        E 0 90 33 68
        E 0 90 34 68
        E 0 90 35 66
        E 120 80 61 00
        E 0 80 62 00
        E 0 80 63 00
        E 0 80 64 00
        E 0 80 65 00
        E 0 80 49 00
        E 0 80 4a 00
        E 0 80 4b 00
        E 0 80 4c 00
        E 0 80 4d 00
        E 0 80 31 00
        E 0 80 32 00
        E 0 80 33 00
        E 0 80 34 00
        E 0 80 35 00
        E 120 90 61 66
        E 0 90 62 68
        E 0 90 63 68
        E 0 90 64 68
        E 0 90 65 66
        E 0 90 49 66
        E 0 90 4a 68
        E 0 90 4b 68
        E 0 90 4c 68
        E 0 90 4d 66
        E 0 90 31 66
        E 0 90 32 68
        E 0 90 33 68
        E 0 90 34 68
        E 0 90 35 66
        E 0 90 19 66
        E 0 90 1a 68
        E 0 90 1b 68
        E 0 90 1c 68
        E 0 90 1d 66
        E 120 80 61 00
        E 0 80 62 00
        E 0 80 63 00
        E 0 80 64 00
        E 0 80 65 00
        E 0 80 49 00
        E 0 80 4a 00
        E 0 80 4b 00
        E 0 80 4c 00
        E 0 80 4d 00
        E 0 80 31 00
        E 0 80 32 00
        E 0 80 33 00
        E 0 80 34 00
        E 0 80 35 00
        E 0 80 19 00
        E 0 80 1a 00
        E 0 80 1b 00
        E 0 80 1c 00
        E 0 80 1d 00
        E 120 93 61 66
        E 0 93 62 68
        E 0 93 63 68
        E 0 93 64 68
        E 0 93 65 66
        E 0 93 49 66
        E 0 93 4a 68
        E 0 93 4b 68
        E 0 93 4c 68
        E 0 93 4d 66
        E 120 83 61 00
        E 0 83 62 00
        E 0 83 63 00
        E 0 83 64 00
        E 0 83 65 00
        E 0 83 49 00
        E 0 83 4a 00
        E 0 83 4b 00
        E 0 83 4c 00
        E 0 83 4d 00
        E 120 90 0a 64
        E 0 90 61 65
        E 0 90 62 67
        E 0 90 63 67
        E 0 90 64 66
        E 0 90 65 65
        E 0 90 6c 65
        E 0 90 49 65
        E 0 90 4a 67
        E 0 90 4b 67
        E 0 90 4c 66
        E 0 90 4d 65
        E 0 90 31 65
        E 0 90 32 67
        E 0 90 33 67
        E 0 90 34 66
        E 0 90 35 65
        E 0 90 19 65
        E 0 90 1a 67
        E 0 90 1b 67
        E 0 90 1c 66
        E 0 90 1d 65
        E 120 80 0a 00
        E 0 80 61 00
        E 0 80 62 00
        E 0 80 63 00
        E 0 80 64 00
        E 0 80 65 00
        E 0 80 6c 00
        E 0 80 49 00
        E 0 80 4a 00
        E 0 80 4b 00
        E 0 80 4c 00
        E 0 80 4d 00
        E 0 80 31 00
        E 0 80 32 00
        E 0 80 33 00
        E 0 80 34 00
        E 0 80 35 00
        E 0 80 19 00
        E 0 80 1a 00
        E 0 80 1b 00
        E 0 80 1c 00
        E 0 80 1d 00
        E 360 90 61 65
        E 0 90 62 67
        E 0 90 63 67
        E 0 90 64 66
        E 0 90 65 65
        E 0 90 49 65
        E 0 90 4a 67
        E 0 90 4b 67
        E 0 90 4c 66
        E 0 90 4d 65
        E 0 90 31 65
        E 0 90 32 67
        E 0 90 33 67
        E 0 90 34 66
        E 0 90 35 65
        E 0 90 19 65
        E 0 90 1a 67
        E 0 90 1b 67
        E 0 90 1c 66
        E 0 90 1d 65
        E 120 80 61 00
        E 0 80 62 00
        E 0 80 63 00
        E 0 80 64 00
        E 0 80 65 00
        E 0 80 49 00
        E 0 80 4a 00
        E 0 80 4b 00
        E 0 80 4c 00
        E 0 80 4d 00
        E 0 80 31 00
        E 0 80 32 00
        E 0 80 33 00
        E 0 80 34 00
        E 0 80 35 00
        E 0 80 19 00
        E 0 80 1a 00
        E 0 80 1b 00
        E 0 80 1c 00
        E 0 80 1d 00
        E 360 90 61 65
        E 0 90 62 67
        E 0 90 63 67
        E 0 90 64 66
        E 0 90 65 65
        E 0 90 49 65
        E 0 90 4a 67
        E 0 90 4b 67
        E 0 90 4c 66
        E 0 90 4d 65
        E 0 90 31 65
        E 0 90 32 67
        E 0 90 33 67
        E 0 90 34 66
        E 0 90 35 65
        E 0 90 19 65
        E 0 90 1a 67
        E 0 90 1b 67
        E 0 90 1c 66
        E 0 90 1d 65
        E 120 80 61 00
        E 0 80 62 00
        E 0 80 63 00
        E 0 80 64 00
        E 0 80 65 00
        E 0 80 49 00
        E 0 80 4a 00
        E 0 80 4b 00
        E 0 80 4c 00
        E 0 80 4d 00
        E 0 80 31 00
        E 0 80 32 00
        E 0 80 33 00
        E 0 80 34 00
        E 0 80 35 00
        E 0 80 19 00
        E 0 80 1a 00
        E 0 80 1b 00
        E 0 80 1c 00
        E 0 80 1d 00
        E 360 90 61 65
        E 0 90 62 67
        E 0 90 63 67
        E 0 90 64 66
        E 0 90 65 65
        E 0 90 49 65
        E 0 90 4a 67
        E 0 90 4b 67
        E 0 90 4c 66
        E 0 90 4d 65
        E 0 90 31 65
        E 0 90 32 67
        E 0 90 33 67
        E 0 90 34 66
        E 0 90 35 65
        E 0 90 19 65
        E 0 90 1a 67
        E 0 90 1b 67
        E 0 90 1c 66
        E 0 90 1d 65
        E 120 80 61 00
        E 0 80 62 00
        E 0 80 63 00
        E 0 80 64 00
        E 0 80 65 00
        E 0 80 49 00
        E 0 80 4a 00
        E 0 80 4b 00
        E 0 80 4c 00
        E 0 80 4d 00
        E 0 80 31 00
        E 0 80 32 00
        E 0 80 33 00
        E 0 80 34 00
        E 0 80 35 00
        E 0 80 19 00
        E 0 80 1a 00
        E 0 80 1b 00
        E 0 80 1c 00
        E 0 80 1d 00
        E 360 90 61 65
        E 0 90 62 67
        E 0 90 63 67
        E 0 90 64 66
        E 0 90 65 65
        E 0 90 49 65
        E 0 90 4a 67
        E 0 90 4b 67
        E 0 90 4c 66
        E 0 90 4d 65
        E 0 90 31 65
        E 0 90 32 67
        E 0 90 33 67
        E 0 90 34 66
        E 0 90 35 65
        E 0 90 19 65
        E 0 90 1a 67
        E 0 90 1b 67
        E 0 90 1c 66
        E 0 90 1d 65
        E 120 80 61 00
        E 0 80 62 00
        E 0 80 63 00
        E 0 80 64 00
        E 0 80 65 00
        E 0 80 49 00
        E 0 80 4a 00
        E 0 80 4b 00
        E 0 80 4c 00
        E 0 80 4d 00
        E 0 80 31 00
        E 0 80 32 00
        E 0 80 33 00
        E 0 80 34 00
        E 0 80 35 00
        E 0 80 19 00
        E 0 80 1a 00
        E 0 80 1b 00
        E 0 80 1c 00
        E 0 80 1d 00
        E 360 90 61 65
        E 0 90 62 67
        E 0 90 63 67
        E 0 90 64 66
        E 0 90 65 65
        E 0 90 49 65
        E 0 90 4a 67
        E 0 90 4b 67
        E 0 90 4c 66
        E 0 90 4d 65
        E 0 90 31 65
        E 0 90 32 67
        E 0 90 33 67
        E 0 90 34 66
        E 0 90 35 65
        E 0 90 19 65
        E 0 90 1a 67
        E 0 90 1b 67
        E 0 90 1c 66
        E 0 90 1d 65
        E 120 80 61 00
        E 0 80 62 00
        E 0 80 63 00
        E 0 80 64 00
        E 0 80 65 00
        E 0 80 49 00
        E 0 80 4a 00
        E 0 80 4b 00
        E 0 80 4c 00
        E 0 80 4d 00
        E 0 80 31 00
        E 0 80 32 00
        E 0 80 33 00
        E 0 80 34 00
        E 0 80 35 00
        E 0 80 19 00
        E 0 80 1a 00
        E 0 80 1b 00
        E 0 80 1c 00
        E 0 80 1d 00
        E 360 90 61 65
        E 0 90 62 67
        E 0 90 63 67
        E 0 90 64 66
        E 0 90 65 65
        E 0 90 49 65
        E 0 90 4a 67
        E 0 90 4b 67
        E 0 90 4c 66
        E 0 90 4d 65
        E 0 90 31 65
        E 0 90 32 67
        E 0 90 33 67
        E 0 90 34 66
        E 0 90 35 65
        E 0 90 19 65
        E 0 90 1a 67
        E 0 90 1b 67
        E 0 90 1c 66
        E 0 90 1d 65
        E 120 80 61 00
        E 0 80 62 00
        E 0 80 63 00
        E 0 80 64 00
        E 0 80 65 00
        E 0 80 49 00
        E 0 80 4a 00
        E 0 80 4b 00
        E 0 80 4c 00
        E 0 80 4d 00
        E 0 80 31 00
        E 0 80 32 00
        E 0 80 33 00
        E 0 80 34 00
        E 0 80 35 00
        E 0 80 19 00
        E 0 80 1a 00
        E 0 80 1b 00
        E 0 80 1c 00
        E 0 80 1d 00
        E 360 90 61 65
        E 0 90 62 67
        E 0 90 63 67
        E 0 90 64 66
        E 0 90 65 65
        E 0 90 49 65
        E 0 90 4a 67
        E 0 90 4b 67
        E 0 90 4c 66
        E 0 90 4d 65
        E 0 90 31 65
        E 0 90 32 67
        E 0 90 33 67
        E 0 90 34 66
        E 0 90 35 65
        E 0 90 19 65
        E 0 90 1a 67
        E 0 90 1b 67
        E 0 90 1c 66
        E 0 90 1d 65
        E 120 80 61 00
        E 0 80 62 00
        E 0 80 63 00
        E 0 80 64 00
        E 0 80 65 00
        E 0 80 49 00
        E 0 80 4a 00
        E 0 80 4b 00
        E 0 80 4c 00
        E 0 80 4d 00
        E 0 80 31 00
        E 0 80 32 00
        E 0 80 33 00
        E 0 80 34 00
        E 0 80 35 00
        E 0 80 19 00
        E 0 80 1a 00
        E 0 80 1b 00
        E 0 80 1c 00
        E 0 80 1d 00
        E 360 90 0b 64
        E 0 90 61 66
        E 0 90 62 68
        E 0 90 63 68
        E 0 90 64 68
        E 0 90 65 66
        E 0 90 6c 66
        E 0 90 49 66
        E 0 90 4a 68
        E 0 90 4b 68
        E 0 90 4c 68
        E 0 90 4d 66
        E 0 90 31 66
        E 0 90 32 68
        E 0 90 33 68
        E 0 90 34 68
        E 0 90 35 66
        E 0 90 19 66
        E 0 90 1a 68
        E 0 90 1b 68
        E 0 90 1c 68
        E 0 90 1d 66
        E 120 80 0b 00
        E 0 80 6c 00
        E 480 80 61 00
        E 0 80 62 00
        E 0 80 63 00
        E 0 80 64 00
        E 0 80 65 00
        E 0 80 49 00
        E 0 80 4a 00
        E 0 80 4b 00
        E 0 80 4c 00
        E 0 80 4d 00
        E 0 80 31 00
        E 0 80 32 00
        E 0 80 33 00
        E 0 80 34 00
        E 0 80 35 00
        E 0 80 19 00
        E 0 80 1a 00
        E 0 80 1b 00
        E 0 80 1c 00
        E 0 80 1d 00
        E 120 90 61 66
        E 0 90 62 68
        E 0 90 63 68
        E 0 90 64 68
        E 0 90 65 66
        E 0 90 49 66
        E 0 90 4a 68
        E 0 90 4b 68
        E 0 90 4c 68
        E 0 90 4d 66
        E 0 90 31 66
        E 0 90 32 68
        E 0 90 33 68
        E 0 90 34 68
        E 0 90 35 66
        E 120 80 61 00
        E 0 80 62 00
        E 0 80 63 00
        E 0 80 64 00
        E 0 80 65 00
        E 0 80 49 00
        E 0 80 4a 00
        E 0 80 4b 00
        E 0 80 4c 00
        E 0 80 4d 00
        E 0 80 31 00
        E 0 80 32 00
        E 0 80 33 00
        E 0 80 34 00
        E 0 80 35 00
        E 120 90 61 66
        E 0 90 62 68
        E 0 90 63 68
        E 0 90 64 68
        E 0 90 65 66
        E 0 90 49 66
        E 0 90 4a 68
        E 0 90 4b 68
        E 0 90 4c 68
        E 0 90 4d 66
        E 0 90 31 66
        E 0 90 32 68
        E 0 90 33 68
        E 0 90 34 68
        E 0 90 35 66
        E 0 90 19 66
        E 0 90 1a 68
        E 0 90 1b 68
        E 0 90 1c 68
        E 0 90 1d 66
        E 120 80 61 00
        E 0 80 62 00
        E 0 80 63 00
        E 0 80 64 00
        E 0 80 65 00
        E 0 80 49 00
        E 0 80 4a 00
        E 0 80 4b 00
        E 0 80 4c 00
        E 0 80 4d 00
        E 0 80 31 00
        E 0 80 32 00
        E 0 80 33 00
        E 0 80 34 00
        E 0 80 35 00
        E 0 80 19 00
        E 0 80 1a 00
        E 0 80 1b 00
        E 0 80 1c 00
        E 0 80 1d 00
        E 360 90 61 66
        E 0 90 62 68
        E 0 90 63 68
        E 0 90 64 68
        E 0 90 65 66
        E 0 90 49 66
        E 0 90 4a 68
        E 0 90 4b 68
        E 0 90 4c 68
        E 0 90 4d 66
        E 0 90 31 66
        E 0 90 32 68
        E 0 90 33 68
        E 0 90 34 68
        E 0 90 35 66
        E 0 90 19 66
        E 0 90 1a 68
        E 0 90 1b 68
        E 0 90 1c 68
        E 0 90 1d 66
        E 120 80 61 00
        E 0 80 62 00
        E 0 80 63 00
        E 0 80 64 00
        E 0 80 65 00
        E 0 80 49 00
        E 0 80 4a 00
        E 0 80 4b 00
        E 0 80 4c 00
        E 0 80 4d 00
        E 0 80 31 00
        E 0 80 32 00
        E 0 80 33 00
        E 0 80 34 00
        E 0 80 35 00
        E 0 80 19 00
        E 0 80 1a 00
        E 0 80 1b 00
        E 0 80 1c 00
        E 0 80 1d 00
        E 360 90 61 66
        E 0 90 62 68
        E 0 90 63 68
        E 0 90 64 68
        E 0 90 65 66
        E 0 90 49 66
        E 0 90 4a 68
        E 0 90 4b 68
        E 0 90 4c 68
        E 0 90 4d 66
        E 0 90 31 66
        E 0 90 32 68
        E 0 90 33 68
        E 0 90 34 68
        E 0 90 35 66
        E 0 90 19 66
        E 0 90 1a 68
        E 0 90 1b 68
        E 0 90 1c 68
        E 0 90 1d 66
        E 120 80 61 00
        E 0 80 62 00
        E 0 80 63 00
        E 0 80 64 00
        E 0 80 65 00
        E 0 80 49 00
        E 0 80 4a 00
        E 0 80 4b 00
        E 0 80 4c 00
        E 0 80 4d 00
        E 0 80 31 00
        E 0 80 32 00
        E 0 80 33 00
        E 0 80 34 00
        E 0 80 35 00
        E 0 80 19 00
        E 0 80 1a 00
        E 0 80 1b 00
        E 0 80 1c 00
        E 0 80 1d 00
        E 360 90 61 66
        E 0 90 62 68
        E 0 90 63 68
        E 0 90 64 68
        E 0 90 65 66
        E 0 90 49 66
        E 0 90 4a 68
        E 0 90 4b 68
        E 0 90 4c 68
        E 0 90 4d 66
        E 0 90 31 66
        E 0 90 32 68
        E 0 90 33 68
        E 0 90 34 68
        E 0 90 35 66
        E 0 90 19 66
        E 0 90 1a 68
        E 0 90 1b 68
        E 0 90 1c 68
        E 0 90 1d 66
        E 120 80 61 00
        E 0 80 62 00
        E 0 80 63 00
        E 0 80 64 00
        E 0 80 65 00
        E 0 80 49 00
        E 0 80 4a 00
        E 0 80 4b 00
        E 0 80 4c 00
        E 0 80 4d 00
        E 0 80 31 00
        E 0 80 32 00
        E 0 80 33 00
        E 0 80 34 00
        E 0 80 35 00
        E 0 80 19 00
        E 0 80 1a 00
        E 0 80 1b 00
        E 0 80 1c 00
        E 0 80 1d 00
        E 360 90 61 66
        E 0 90 62 68
        E 0 90 63 68
        E 0 90 64 68
        E 0 90 65 66
        E 0 90 49 66
        E 0 90 4a 68
        E 0 90 4b 68
        E 0 90 4c 68
        E 0 90 4d 66
        E 0 90 31 66
        E 0 90 32 68
        E 0 90 33 68
        E 0 90 34 68
        E 0 90 35 66
        E 0 90 19 66
        E 0 90 1a 68
        E 0 90 1b 68
        E 0 90 1c 68
        E 0 90 1d 66
        E 120 80 61 00
        E 0 80 62 00
        E 0 80 63 00
        E 0 80 64 00
        E 0 80 65 00
        E 0 80 49 00
        E 0 80 4a 00
        E 0 80 4b 00
        E 0 80 4c 00
        E 0 80 4d 00
        E 0 80 31 00
        E 0 80 32 00
        E 0 80 33 00
        E 0 80 34 00
        E 0 80 35 00
        E 0 80 19 00
        E 0 80 1a 00
        E 0 80 1b 00
        E 0 80 1c 00
        E 0 80 1d 00
        E 360 90 61 66
        E 0 90 62 68
        E 0 90 63 68
        E 0 90 64 68
        E 0 90 65 66
        E 0 90 49 66
        E 0 90 4a 68
        E 0 90 4b 68
        E 0 90 4c 68
        E 0 90 4d 66
        E 0 90 31 66
        E 0 90 32 68
        E 0 90 33 68
        E 0 90 34 68
        E 0 90 35 66
        E 0 90 19 66
        E 0 90 1a 68
        E 0 90 1b 68
        E 0 90 1c 68
        E 0 90 1d 66
        E 120 80 61 00
        E 0 80 62 00
        E 0 80 63 00
        E 0 80 64 00
        E 0 80 65 00
        E 0 80 49 00
        E 0 80 4a 00
        E 0 80 4b 00
        E 0 80 4c 00
        E 0 80 4d 00
        E 0 80 31 00
        E 0 80 32 00
        E 0 80 33 00
        E 0 80 34 00
        E 0 80 35 00
        E 0 80 19 00
        E 0 80 1a 00
        E 0 80 1b 00
        E 0 80 1c 00
        E 0 80 1d 00
        E 360 90 0a 64
        E 0 90 61 65
        E 0 90 62 67
        E 0 90 63 67
        E 0 90 64 66
        E 0 90 65 65
        E 0 90 6c 65
        E 0 90 49 65
        E 0 90 4a 67
        E 0 90 4b 67
        E 0 90 4c 66
        E 0 90 4d 65
        E 0 90 31 65
        E 0 90 32 67
        E 0 90 33 67
        E 0 90 34 66
        E 0 90 35 65
        E 0 90 19 65
        E 0 90 1a 67
        E 0 90 1b 67
        E 0 90 1c 66
        E 0 90 1d 65
        E 120 80 0a 00
        E 0 80 61 00
        E 0 80 62 00
        E 0 80 63 00
        E 0 80 64 00
        E 0 80 65 00
        E 0 80 6c 00
        E 0 80 49 00
        E 0 80 4a 00
        E 0 80 4b 00
        E 0 80 4c 00
        E 0 80 4d 00
        E 0 80 31 00
        E 0 80 32 00
        E 0 80 33 00
        E 0 80 34 00
        E 0 80 35 00
        E 0 80 19 00
        E 0 80 1a 00
        E 0 80 1b 00
        E 0 80 1c 00
        E 0 80 1d 00
        E 360 90 61 65
        E 0 90 62 67
        E 0 90 63 67
        E 0 90 64 66
        E 0 90 65 65
        E 0 90 49 65
        E 0 90 4a 67
        E 0 90 4b 67
        E 0 90 4c 66
        E 0 90 4d 65
        E 0 90 31 65
        E 0 90 32 67
        E 0 90 33 67
        E 0 90 34 66
        E 0 90 35 65
        E 0 90 19 65
        E 0 90 1a 67
        E 0 90 1b 67
        E 0 90 1c 66
        E 0 90 1d 65
        E 120 80 61 00
        E 0 80 62 00
        E 0 80 63 00
        E 0 80 64 00
        E 0 80 65 00
        E 0 80 49 00
        E 0 80 4a 00
        E 0 80 4b 00
        E 0 80 4c 00
        E 0 80 4d 00
        E 0 80 31 00
        E 0 80 32 00
        E 0 80 33 00
        E 0 80 34 00
        E 0 80 35 00
        E 0 80 19 00
        E 0 80 1a 00
        E 0 80 1b 00
        E 0 80 1c 00
        E 0 80 1d 00
        E 360 90 61 65
        E 0 90 62 67
        E 0 90 63 67
        E 0 90 64 66
        E 0 90 65 65
        E 0 90 49 65
        E 0 90 4a 67
        E 0 90 4b 67
        E 0 90 4c 66
        E 0 90 4d 65
        E 0 90 31 65
        E 0 90 32 67
        E 0 90 33 67
        E 0 90 34 66
        E 0 90 35 65
        E 0 90 19 65
        E 0 90 1a 67
        E 0 90 1b 67
        E 0 90 1c 66
        E 0 90 1d 65
        E 120 80 61 00
        E 0 80 62 00
        E 0 80 63 00
        E 0 80 64 00
        E 0 80 65 00
        E 0 80 49 00
        E 0 80 4a 00
        E 0 80 4b 00
        E 0 80 4c 00
        E 0 80 4d 00
        E 0 80 31 00
        E 0 80 32 00
        E 0 80 33 00
        E 0 80 34 00
        E 0 80 35 00
        E 0 80 19 00
        E 0 80 1a 00
        E 0 80 1b 00
        E 0 80 1c 00
        E 0 80 1d 00
        E 360 90 61 65
        E 0 90 62 67
        E 0 90 63 67
        E 0 90 64 66
        E 0 90 65 65
        E 0 90 49 65
        E 0 90 4a 67
        E 0 90 4b 67
        E 0 90 4c 66
        E 0 90 4d 65
        E 0 90 31 65
        E 0 90 32 67
        E 0 90 33 67
        E 0 90 34 66
        E 0 90 35 65
        E 0 90 19 65
        E 0 90 1a 67
        E 0 90 1b 67
        E 0 90 1c 66
        E 0 90 1d 65
        E 120 80 61 00
        E 0 80 62 00
        E 0 80 63 00
        E 0 80 64 00
        E 0 80 65 00
        E 0 80 49 00
        E 0 80 4a 00
        E 0 80 4b 00
        E 0 80 4c 00
        E 0 80 4d 00
        E 0 80 31 00
        E 0 80 32 00
        E 0 80 33 00
        E 0 80 34 00
        E 0 80 35 00
        E 0 80 19 00
        E 0 80 1a 00
        E 0 80 1b 00
        E 0 80 1c 00
        E 0 80 1d 00
        E 360 90 61 65
        E 0 90 62 67
        E 0 90 63 67
        E 0 90 64 66
        E 0 90 65 65
        E 0 90 49 65
        E 0 90 4a 67
        E 0 90 4b 67
        E 0 90 4c 66
        E 0 90 4d 65
        E 0 90 31 65
        E 0 90 32 67
        E 0 90 33 67
        E 0 90 34 66
        E 0 90 35 65
        E 0 90 19 65
        E 0 90 1a 67
        E 0 90 1b 67
        E 0 90 1c 66
        E 0 90 1d 65
        E 120 80 61 00
        E 0 80 62 00
        E 0 80 63 00
        E 0 80 64 00
        E 0 80 65 00
        E 0 80 49 00
        E 0 80 4a 00
        E 0 80 4b 00
        E 0 80 4c 00
        E 0 80 4d 00
        E 0 80 31 00
        E 0 80 32 00
        E 0 80 33 00
        E 0 80 34 00
        E 0 80 35 00
        E 0 80 19 00
        E 0 80 1a 00
        E 0 80 1b 00
        E 0 80 1c 00
        E 0 80 1d 00
        E 360 90 61 65
        E 0 90 62 67
        E 0 90 63 67
        E 0 90 64 66
        E 0 90 65 65
        E 0 90 49 65
        E 0 90 4a 67
        E 0 90 4b 67
        E 0 90 4c 66
        E 0 90 4d 65
        E 0 90 31 65
        E 0 90 32 67
        E 0 90 33 67
        E 0 90 34 66
        E 0 90 35 65
        E 0 90 19 65
        E 0 90 1a 67
        E 0 90 1b 67
        E 0 90 1c 66
        E 0 90 1d 65
        E 120 80 61 00
        E 0 80 62 00
        E 0 80 63 00
        E 0 80 64 00
        E 0 80 65 00
        E 0 80 49 00
        E 0 80 4a 00
        E 0 80 4b 00
        E 0 80 4c 00
        E 0 80 4d 00
        E 0 80 31 00
        E 0 80 32 00
        E 0 80 33 00
        E 0 80 34 00
        E 0 80 35 00
        E 0 80 19 00
        E 0 80 1a 00
        E 0 80 1b 00
        E 0 80 1c 00
        E 0 80 1d 00
        E 120 90 61 65
        E 0 90 62 67
        E 0 90 63 67
        E 0 90 64 66
        E 0 90 65 65
        E 0 90 49 65
        E 0 90 4a 67
        E 0 90 4b 67
        E 0 90 4c 66
        E 0 90 4d 65
        E 0 90 31 65
        E 0 90 32 67
        E 0 90 33 67
        E 0 90 34 66
        E 0 90 35 65
        E 120 80 61 00
        E 0 80 62 00
        E 0 80 63 00
        E 0 80 64 00
        E 0 80 65 00
        E 0 80 49 00
        E 0 80 4a 00
        E 0 80 4b 00
        E 0 80 4c 00
        E 0 80 4d 00
        E 0 80 31 00
        E 0 80 32 00
        E 0 80 33 00
        E 0 80 34 00
        E 0 80 35 00
        E 120 90 61 65
        E 0 90 62 67
        E 0 90 63 67
        E 0 90 64 66
        E 0 90 65 65
        E 0 90 49 65
        E 0 90 4a 67
        E 0 90 4b 67
        E 0 90 4c 66
        E 0 90 4d 65
        E 0 90 31 65
        E 0 90 32 67
        E 0 90 33 67
        E 0 90 34 66
        E 0 90 35 65
        E 0 90 19 65
        E 0 90 1a 67
        E 0 90 1b 67
        E 0 90 1c 66
        E 0 90 1d 65
        E 120 80 61 00
        E 0 80 62 00
        E 0 80 63 00
        E 0 80 64 00
        E 0 80 65 00
        E 0 80 49 00
        E 0 80 4a 00
        E 0 80 4b 00
        E 0 80 4c 00
        E 0 80 4d 00
        E 0 80 31 00
        E 0 80 32 00
        E 0 80 33 00
        E 0 80 34 00
        E 0 80 35 00
        E 0 80 19 00
        E 0 80 1a 00
        E 0 80 1b 00
        E 0 80 1c 00
        E 0 80 1d 00
        E 120 90 61 65
        E 0 90 62 67
        E 0 90 63 67
        E 0 90 64 66
        E 0 90 65 65
        E 0 90 49 65
        E 0 90 4a 67
        E 0 90 4b 67
        E 0 90 4c 66
        E 0 90 4d 65
        E 0 90 31 65
        E 0 90 32 67
        E 0 90 33 67
        E 0 90 34 66
        E 0 90 35 65
        E 120 80 61 00
        E 0 80 62 00
        E 0 80 63 00
        E 0 80 64 00
        E 0 80 65 00
        E 0 80 49 00
        E 0 80 4a 00
        E 0 80 4b 00
        E 0 80 4c 00
        E 0 80 4d 00
        E 0 80 31 00
        E 0 80 32 00
        E 0 80 33 00
        E 0 80 34 00
        E 0 80 35 00
        <X 600 0
          /wFbYmVnaW5fcGcgc29uZ190cmFpbmVyX3BnXzdd
        >
        E 0 90 64 6b
        E 0 90 6c 68
        E 0 90 4c 6b
        E 0 90 34 6b
        E 0 90 1c 6b
        E 120 80 64 00
        E 0 80 6c 00
        E 0 80 4c 00
        E 0 80 34 00
        E 0 80 1c 00
        E 360 90 64 6b
        E 0 90 4c 6b
        E 0 90 34 6b
        E 0 90 1c 6b
        E 120 80 64 00
        E 0 80 4c 00
        E 0 80 34 00
        E 0 80 1c 00
        E 120 90 64 6a
        E 0 90 4c 6a
        E 120 80 64 00
        E 0 80 4c 00
        E 120 90 64 6b
        E 0 90 4c 6b
        E 0 90 34 6b
        E 0 90 1c 6b
        E 120 80 64 00
        E 0 80 4c 00
        E 0 80 34 00
        E 0 80 1c 00
        E 120 90 64 6a
        E 0 90 4c 6a
        E 120 80 64 00
        E 0 80 4c 00
        E 120 90 64 68
        E 0 90 4c 68
        E 0 90 34 68
        E 120 80 64 00
        E 0 80 4c 00
        E 0 80 34 00
        E 360 90 64 66
        E 0 90 6c 66
        E 0 90 4c 66
        E 0 90 34 66
        E 0 90 1c 66
        E 120 80 64 00
        E 0 80 6c 00
        E 0 80 4c 00
        E 0 80 34 00
        E 0 90 64 68
        E 0 90 66 64
        E 0 80 1c 00
        E 480 80 64 00
        E 0 80 66 00
        E 120 90 64 66
        E 0 90 4c 66
        E 120 80 64 00
        E 0 80 4c 00
        E 120 90 64 68
        E 0 90 4c 68
        E 0 90 34 68
        E 0 90 1c 68
        E 120 80 64 00
        E 0 80 4c 00
        E 0 80 34 00
        E 0 80 1c 00
        E 120 90 64 66
        E 0 90 4c 66
        E 120 80 64 00
        E 0 80 4c 00
        E 120 90 64 64
        E 0 90 4c 64
        E 0 90 34 64
        E 120 80 64 00
        E 0 80 4c 00
        E 0 80 34 00
        <X 360 0
          /wFbcGdfbm9ybSBzb25nX3RyYWluZXJfcGdfN10=
        >
        E 0 90 62 67
        E 0 90 4a 67
        E 0 90 32 67
        E 0 90 1a 67
        E 2880 80 62 00
        E 0 80 4a 00
        E 0 80 32 00
        E 0 80 1a 00
        E 960 90 64 6b
        E 0 90 6c 68
        E 0 90 4c 6b
        E 0 90 34 6b
        E 0 90 1c 6b
        E 120 80 64 00
        E 0 80 6c 00
        E 0 80 4c 00
        E 0 80 34 00
        E 0 80 1c 00
        E 360 90 64 6b
        E 0 90 4c 6b
        E 0 90 34 6b
        E 0 90 1c 6b
        E 120 80 64 00
        E 0 80 4c 00
        E 0 80 34 00
        E 0 80 1c 00
        E 120 90 64 6a
        E 0 90 4c 6a
        E 120 80 64 00
        E 0 80 4c 00
        E 120 90 64 6b
        E 0 90 4c 6b
        E 0 90 34 6b
        E 0 90 1c 6b
        E 120 80 64 00
        E 0 80 4c 00
        E 0 80 34 00
        E 0 80 1c 00
        E 120 90 64 6a
        E 0 90 4c 6a
        E 120 80 64 00
        E 0 80 4c 00
        E 120 90 64 68
        E 0 90 4c 68
        E 0 90 34 68
        E 120 80 64 00
        E 0 80 4c 00
        E 0 80 34 00
        E 360 90 64 66
        E 0 90 6c 66
        E 0 90 74 64
        E 0 90 4c 66
        E 0 90 34 66
        E 0 90 1c 66
        E 120 80 64 00
        E 0 80 6c 00
        E 0 80 4c 00
        E 0 80 34 00
        E 0 90 64 68
        E 0 90 66 64
        E 0 80 1c 00
        E 480 80 64 00
        E 0 80 66 00
        E 120 90 64 66
        E 0 90 4c 66
        E 120 80 64 00
        E 0 80 4c 00
        E 120 90 64 68
        E 0 90 4c 68
        E 0 90 34 68
        E 0 90 1c 68
        E 120 80 64 00
        E 0 80 4c 00
        E 0 80 34 00
        E 0 80 1c 00
        E 120 90 64 66
        E 0 90 4c 66
        E 120 80 64 00
        E 0 80 4c 00
        E 120 90 64 64
        E 0 90 4c 64
        E 0 90 34 64
        E 120 80 64 00
        E 0 80 4c 00
        E 0 80 34 00
        E 360 90 63 67
        E 0 90 6c 65
        E 0 90 4b 67
        E 0 90 33 67
        E 0 90 1b 67
        E 120 80 6c 00
        E 480 80 63 00
        E 0 80 4b 00
        E 0 80 33 00
        E 0 80 1b 00
        E 120 90 63 65
        E 0 90 4b 65
        E 120 80 63 00
        E 0 80 4b 00
        E 120 90 62 68
        E 0 90 6c 68
        E 0 90 4a 68
        E 0 90 32 68
        E 0 90 1a 68
        E 120 80 62 00
        E 0 80 6c 00
        E 0 80 4a 00
        E 0 80 32 00
        E 0 80 1a 00
        E 120 90 62 6a
        E 0 90 4a 6a
        E 120 80 62 00
        E 0 80 4a 00
        E 120 80 74 00
        <X 2400 0
          /wFbZW5kX3BnIHNvbmdfdHJhaW5lcl9wZ183XQ==
        >
        <X 0 0
          /wFbYmVnaW5fcGcgc29uZ190cmFpbmVyX3BnXzhd
        >
        E 0 90 62 68
        E 0 90 6c 66
        E 0 90 4a 68
        E 0 90 32 68
        E 0 90 1a 68
        E 120 80 6c 00
        E 480 80 62 00
        E 0 80 4a 00
        E 0 80 32 00
        E 0 80 1a 00
        E 120 90 62 68
        E 0 90 4a 68
        E 0 90 32 68
        E 120 80 62 00
        E 0 80 4a 00
        E 0 80 32 00
        E 120 90 62 68
        E 0 90 4a 68
        E 0 90 32 68
        E 0 90 1a 68
        E 120 80 62 00
        E 0 80 4a 00
        E 0 80 32 00
        E 0 80 1a 00
        E 360 90 64 66
        E 0 90 4c 66
        E 0 90 34 66
        E 120 80 64 00
        E 0 80 4c 00
        E 0 80 34 00
        E 0 90 64 68
        E 0 90 66 64
        E 720 80 64 00
        E 0 80 66 00
        E 120 90 64 66
        E 0 90 4c 66
        E 0 90 34 66
        E 0 90 1c 66
        E 120 80 64 00
        E 0 80 4c 00
        E 0 80 34 00
        E 0 80 1c 00
        E 360 90 63 68
        E 0 90 67 64
        E 0 90 4b 68
        E 0 90 4f 64
        E 0 90 33 68
        E 0 90 37 64
        E 0 90 1b 68
        E 0 90 1f 64
        E 420 80 63 00
        E 0 80 67 00
        E 0 80 4b 00
        E 0 80 4f 00
        E 0 80 33 00
        E 0 80 37 00
        E 0 80 1b 00
        E 0 80 1f 00
        E 60 90 63 67
        E 0 90 4b 67
        E 0 90 33 67
        E 120 80 63 00
        E 0 80 4b 00
        E 0 80 33 00
        <X 360 0
          /wFbcGdfbm9ybSBzb25nX3RyYWluZXJfcGdfOF0=
        >
        E 0 90 63 67
        E 0 90 4b 67
        E 0 90 33 67
        E 0 90 1b 67
        E 120 80 63 00
        E 0 80 4b 00
        E 0 80 33 00
        E 0 80 1b 00
        E 360 90 63 67
        E 0 90 4b 67
        E 0 90 33 67
        E 0 90 1b 67
        E 120 80 63 00
        E 0 80 4b 00
        E 0 80 33 00
        E 0 80 1b 00
        E 360 90 63 67
        E 0 90 4b 67
        E 0 90 33 67
        E 0 90 1b 67
        E 120 80 63 00
        E 0 80 4b 00
        E 0 80 33 00
        E 0 80 1b 00
        E 360 90 63 67
        E 0 90 4b 67
        E 0 90 33 67
        E 0 90 1b 67
        E 120 80 63 00
        E 0 80 4b 00
        E 0 80 33 00
        E 0 80 1b 00
        E 360 90 63 67
        E 0 90 4b 67
        E 0 90 33 67
        E 0 90 1b 67
        E 120 80 63 00
        E 0 80 4b 00
        E 0 80 33 00
        E 0 80 1b 00
        E 360 90 63 67
        E 0 90 4b 67
        E 0 90 33 67
        E 0 90 1b 67
        E 600 80 63 00
        E 0 80 4b 00
        E 0 80 33 00
        E 0 80 1b 00
        E 120 90 63 67
        E 0 90 4b 67
        E 0 90 33 67
        E 120 80 63 00
        E 0 80 4b 00
        E 0 80 33 00
        E 600 90 62 68
        E 0 90 4a 68
        E 0 90 32 68
        E 0 90 1a 68
        E 600 80 62 00
        E 0 80 4a 00
        E 0 80 32 00
        E 0 80 1a 00
        E 120 90 62 68
        E 0 90 4a 68
        E 0 90 32 68
        E 120 80 62 00
        E 0 80 4a 00
        E 0 80 32 00
        E 120 90 62 68
        E 0 90 4a 68
        E 0 90 32 68
        E 0 90 1a 68
        E 120 80 62 00
        E 0 80 4a 00
        E 0 80 32 00
        E 0 80 1a 00
        E 360 90 64 66
        E 0 90 4c 66
        E 0 90 34 66
        E 120 80 64 00
        E 0 80 4c 00
        E 0 80 34 00
        E 0 90 64 68
        E 0 90 66 64
        E 720 80 64 00
        E 0 80 66 00
        E 120 90 61 68
        E 0 90 49 68
        E 0 90 31 68
        E 0 90 19 68
        E 120 80 61 00
        E 0 80 49 00
        E 0 80 31 00
        E 0 80 19 00
        E 360 90 61 66
        E 0 90 67 64
        E 0 90 49 66
        E 0 90 4f 64
        E 0 90 31 66
        E 0 90 37 64
        E 0 90 19 66
        E 0 90 1f 64
        E 900 80 61 00
        E 0 80 67 00
        E 0 80 49 00
        E 0 80 4f 00
        E 0 80 31 00
        E 0 80 37 00
        E 0 80 19 00
        E 0 80 1f 00
        E 60 90 61 65
        E 0 90 6c 65
        E 0 90 49 65
        E 0 90 31 65
        E 0 90 19 65
        E 120 80 6c 00
        E 480 80 61 00
        E 0 80 49 00
        E 0 80 31 00
        E 0 80 19 00
        E 120 90 61 6c
        E 0 90 6c 6a
        E 0 90 49 6c
        E 0 90 31 6c
        E 120 80 61 00
        E 0 80 6c 00
        E 0 80 49 00
        E 0 80 31 00
        E 120 90 61 6c
        E 0 90 49 6c
        E 0 90 31 6c
        E 0 90 19 6c
        E 120 80 61 00
        E 0 80 49 00
        E 0 80 31 00
        E 0 80 19 00
        E 120 90 61 6a
        E 0 90 49 6a
        E 120 80 61 00
        E 0 80 49 00
        E 120 90 61 6a
        E 0 90 49 6a
        E 0 90 31 6a
        E 120 80 61 00
        E 0 80 49 00
        E 0 80 31 00
        E 120 90 61 68
        E 0 90 6c 68
        E 0 90 49 68
        E 120 80 61 00
        E 0 80 6c 00
        E 0 80 49 00
        E 120 90 61 68
        E 0 90 49 68
        E 0 90 31 68
        E 0 90 19 68
        E 960 80 61 00
        E 0 80 49 00
        E 0 80 31 00
        E 0 80 19 00
        <X 960 0
          /wFbZW5kX3BnIHNvbmdfdHJhaW5lcl9wZ184XQ==
        >
        E 0 90 0b 64
        E 0 90 61 66
        E 0 90 62 68
        E 0 90 63 68
        E 0 90 64 68
        E 0 90 65 66
        E 0 90 6c 66
        E 0 90 49 66
        E 0 90 4a 68
        E 0 90 4b 68
        E 0 90 4c 68
        E 0 90 4d 66
        E 0 90 31 66
        E 0 90 32 68
        E 0 90 33 68
        E 0 90 34 68
        E 0 90 35 66
        E 0 90 19 66
        E 0 90 1a 68
        E 0 90 1b 68
        E 0 90 1c 68
        E 0 90 1d 66
        E 120 80 0b 00
        E 0 80 6c 00
        E 480 80 61 00
        E 0 80 62 00
        E 0 80 63 00
        E 0 80 64 00
        E 0 80 65 00
        E 0 80 49 00
        E 0 80 4a 00
        E 0 80 4b 00
        E 0 80 4c 00
        E 0 80 4d 00
        E 0 80 31 00
        E 0 80 32 00
        E 0 80 33 00
        E 0 80 34 00
        E 0 80 35 00
        E 0 80 19 00
        E 0 80 1a 00
        E 0 80 1b 00
        E 0 80 1c 00
        E 0 80 1d 00
        E 120 90 61 66
        E 0 90 62 68
        E 0 90 63 68
        E 0 90 64 68
        E 0 90 65 66
        E 0 90 49 66
        E 0 90 4a 68
        E 0 90 4b 68
        E 0 90 4c 68
        E 0 90 4d 66
        E 0 90 31 66
        E 0 90 32 68
        E 0 90 33 68
        E 0 90 34 68
        E 0 90 35 66
        E 120 80 61 00
        E 0 80 62 00
        E 0 80 63 00
        E 0 80 64 00
        E 0 80 65 00
        E 0 80 49 00
        E 0 80 4a 00
        E 0 80 4b 00
        E 0 80 4c 00
        E 0 80 4d 00
        E 0 80 31 00
        E 0 80 32 00
        E 0 80 33 00
        E 0 80 34 00
        E 0 80 35 00
        E 120 90 61 66
        E 0 90 62 68
        E 0 90 63 68
        E 0 90 64 68
        E 0 90 65 66
        E 0 90 49 66
        E 0 90 4a 68
        E 0 90 4b 68
        E 0 90 4c 68
        E 0 90 4d 66
        E 0 90 31 66
        E 0 90 32 68
        E 0 90 33 68
        E 0 90 34 68
        E 0 90 35 66
        E 0 90 19 66
        E 0 90 1a 68
        E 0 90 1b 68
        E 0 90 1c 68
        E 0 90 1d 66
        E 120 80 61 00
        E 0 80 62 00
        E 0 80 63 00
        E 0 80 64 00
        E 0 80 65 00
        E 0 80 49 00
        E 0 80 4a 00
        E 0 80 4b 00
        E 0 80 4c 00
        E 0 80 4d 00
        E 0 80 31 00
        E 0 80 32 00
        E 0 80 33 00
        E 0 80 34 00
        E 0 80 35 00
        E 0 80 19 00
        E 0 80 1a 00
        E 0 80 1b 00
        E 0 80 1c 00
        E 0 80 1d 00
        E 360 90 61 66
        E 0 90 62 68
        E 0 90 63 68
        E 0 90 64 68
        E 0 90 65 66
        E 0 90 49 66
        E 0 90 4a 68
        E 0 90 4b 68
        E 0 90 4c 68
        E 0 90 4d 66
        E 0 90 31 66
        E 0 90 32 68
        E 0 90 33 68
        E 0 90 34 68
        E 0 90 35 66
        E 0 90 19 66
        E 0 90 1a 68
        E 0 90 1b 68
        E 0 90 1c 68
        E 0 90 1d 66
        E 120 80 61 00
        E 0 80 62 00
        E 0 80 63 00
        E 0 80 64 00
        E 0 80 65 00
        E 0 80 49 00
        E 0 80 4a 00
        E 0 80 4b 00
        E 0 80 4c 00
        E 0 80 4d 00
        E 0 80 31 00
        E 0 80 32 00
        E 0 80 33 00
        E 0 80 34 00
        E 0 80 35 00
        E 0 80 19 00
        E 0 80 1a 00
        E 0 80 1b 00
        E 0 80 1c 00
        E 0 80 1d 00
        E 360 90 61 66
        E 0 90 62 68
        E 0 90 63 68
        E 0 90 64 68
        E 0 90 65 66
        E 0 90 49 66
        E 0 90 4a 68
        E 0 90 4b 68
        E 0 90 4c 68
        E 0 90 4d 66
        E 0 90 31 66
        E 0 90 32 68
        E 0 90 33 68
        E 0 90 34 68
        E 0 90 35 66
        E 0 90 19 66
        E 0 90 1a 68
        E 0 90 1b 68
        E 0 90 1c 68
        E 0 90 1d 66
        E 120 80 61 00
        E 0 80 62 00
        E 0 80 63 00
        E 0 80 64 00
        E 0 80 65 00
        E 0 80 49 00
        E 0 80 4a 00
        E 0 80 4b 00
        E 0 80 4c 00
        E 0 80 4d 00
        E 0 80 31 00
        E 0 80 32 00
        E 0 80 33 00
        E 0 80 34 00
        E 0 80 35 00
        E 0 80 19 00
        E 0 80 1a 00
        E 0 80 1b 00
        E 0 80 1c 00
        E 0 80 1d 00
        E 120 90 61 66
        E 0 90 62 68
        E 0 90 63 68
        E 0 90 64 68
        E 0 90 65 66
        E 0 90 49 66
        E 0 90 4a 68
        E 0 90 4b 68
        E 0 90 4c 68
        E 0 90 4d 66
        E 0 90 31 66
        E 0 90 32 68
        E 0 90 33 68
        E 0 90 34 68
        E 0 90 35 66
        E 120 80 61 00
        E 0 80 62 00
        E 0 80 63 00
        E 0 80 64 00
        E 0 80 65 00
        E 0 80 49 00
        E 0 80 4a 00
        E 0 80 4b 00
        E 0 80 4c 00
        E 0 80 4d 00
        E 0 80 31 00
        E 0 80 32 00
        E 0 80 33 00
        E 0 80 34 00
        E 0 80 35 00
        E 120 90 61 66
        E 0 90 62 68
        E 0 90 63 68
        E 0 90 64 68
        E 0 90 65 66
        E 0 90 49 66
        E 0 90 4a 68
        E 0 90 4b 68
        E 0 90 4c 68
        E 0 90 4d 66
        E 0 90 31 66
        E 0 90 32 68
        E 0 90 33 68
        E 0 90 34 68
        E 0 90 35 66
        E 0 90 19 66
        E 0 90 1a 68
        E 0 90 1b 68
        E 0 90 1c 68
        E 0 90 1d 66
        E 120 80 61 00
        E 0 80 62 00
        E 0 80 63 00
        E 0 80 64 00
        E 0 80 65 00
        E 0 80 49 00
        E 0 80 4a 00
        E 0 80 4b 00
        E 0 80 4c 00
        E 0 80 4d 00
        E 0 80 31 00
        E 0 80 32 00
        E 0 80 33 00
        E 0 80 34 00
        E 0 80 35 00
        E 0 80 19 00
        E 0 80 1a 00
        E 0 80 1b 00
        E 0 80 1c 00
        E 0 80 1d 00
        E 120 90 61 66
        E 0 90 62 68
        E 0 90 63 68
        E 0 90 64 68
        E 0 90 65 66
        E 0 90 49 66
        E 0 90 4a 68
        E 0 90 4b 68
        E 0 90 4c 68
        E 0 90 4d 66
        E 0 90 31 66
        E 0 90 32 68
        E 0 90 33 68
        E 0 90 34 68
        E 0 90 35 66
        E 120 80 61 00
        E 0 80 62 00
        E 0 80 63 00
        E 0 80 64 00
        E 0 80 65 00
        E 0 80 49 00
        E 0 80 4a 00
        E 0 80 4b 00
        E 0 80 4c 00
        E 0 80 4d 00
        E 0 80 31 00
        E 0 80 32 00
        E 0 80 33 00
        E 0 80 34 00
        E 0 80 35 00
        E 120 90 61 66
        E 0 90 62 68
        E 0 90 63 68
        E 0 90 64 68
        E 0 90 65 66
        E 0 90 49 66
        E 0 90 4a 68
        E 0 90 4b 68
        E 0 90 4c 68
        E 0 90 4d 66
        E 0 90 31 66
        E 0 90 32 68
        E 0 90 33 68
        E 0 90 34 68
        E 0 90 35 66
        E 0 90 19 66
        E 0 90 1a 68
        E 0 90 1b 68
        E 0 90 1c 68
        E 0 90 1d 66
        E 120 80 61 00
        E 0 80 62 00
        E 0 80 63 00
        E 0 80 64 00
        E 0 80 65 00
        E 0 80 49 00
        E 0 80 4a 00
        E 0 80 4b 00
        E 0 80 4c 00
        E 0 80 4d 00
        E 0 80 31 00
        E 0 80 32 00
        E 0 80 33 00
        E 0 80 34 00
        E 0 80 35 00
        E 0 80 19 00
        E 0 80 1a 00
        E 0 80 1b 00
        E 0 80 1c 00
        E 0 80 1d 00
        E 120 90 61 66
        E 0 90 62 68
        E 0 90 63 68
        E 0 90 64 68
        E 0 90 65 66
        E 0 90 49 66
        E 0 90 4a 68
        E 0 90 4b 68
        E 0 90 4c 68
        E 0 90 4d 66
        E 0 90 31 66
        E 0 90 32 68
        E 0 90 33 68
        E 0 90 34 68
        E 0 90 35 66
        E 120 80 61 00
        E 0 80 62 00
        E 0 80 63 00
        E 0 80 64 00
        E 0 80 65 00
        E 0 80 49 00
        E 0 80 4a 00
        E 0 80 4b 00
        E 0 80 4c 00
        E 0 80 4d 00
        E 0 80 31 00
        E 0 80 32 00
        E 0 80 33 00
        E 0 80 34 00
        E 0 80 35 00
        E 120 90 61 66
        E 0 90 62 68
        E 0 90 63 68
        E 0 90 64 68
        E 0 90 65 66
        E 0 90 49 66
        E 0 90 4a 68
        E 0 90 4b 68
        E 0 90 4c 68
        E 0 90 4d 66
        E 0 90 31 66
        E 0 90 32 68
        E 0 90 33 68
        E 0 90 34 68
        E 0 90 35 66
        E 0 90 19 66
        E 0 90 1a 68
        E 0 90 1b 68
        E 0 90 1c 68
        E 0 90 1d 66
        E 120 80 61 00
        E 0 80 62 00
        E 0 80 63 00
        E 0 80 64 00
        E 0 80 65 00
        E 0 80 49 00
        E 0 80 4a 00
        E 0 80 4b 00
        E 0 80 4c 00
        E 0 80 4d 00
        E 0 80 31 00
        E 0 80 32 00
        E 0 80 33 00
        E 0 80 34 00
        E 0 80 35 00
        E 0 80 19 00
        E 0 80 1a 00
        E 0 80 1b 00
        E 0 80 1c 00
        E 0 80 1d 00
        E 120 93 61 66
        E 0 93 62 68
        E 0 93 63 68
        E 0 93 64 68
        E 0 93 65 66
        E 0 93 49 66
        E 0 93 4a 68
        E 0 93 4b 68
        E 0 93 4c 68
        E 0 93 4d 66
        E 120 83 61 00
        E 0 83 62 00
        E 0 83 63 00
        E 0 83 64 00
        E 0 83 65 00
        E 0 83 49 00
        E 0 83 4a 00
        E 0 83 4b 00
        E 0 83 4c 00
        E 0 83 4d 00
        E 120 90 0a 64
        E 0 90 61 65
        E 0 90 62 67
        E 0 90 63 67
        E 0 90 64 66
        E 0 90 65 65
        E 0 90 6c 65
        E 0 90 49 65
        E 0 90 4a 67
        E 0 90 4b 67
        E 0 90 4c 66
        E 0 90 4d 65
        E 0 90 31 65
        E 0 90 32 67
        E 0 90 33 67
        E 0 90 34 66
        E 0 90 35 65
        E 0 90 19 65
        E 0 90 1a 67
        E 0 90 1b 67
        E 0 90 1c 66
        E 0 90 1d 65
        E 120 80 0a 00
        E 0 80 61 00
        E 0 80 62 00
        E 0 80 63 00
        E 0 80 64 00
        E 0 80 65 00
        E 0 80 6c 00
        E 0 80 49 00
        E 0 80 4a 00
        E 0 80 4b 00
        E 0 80 4c 00
        E 0 80 4d 00
        E 0 80 31 00
        E 0 80 32 00
        E 0 80 33 00
        E 0 80 34 00
        E 0 80 35 00
        E 0 80 19 00
        E 0 80 1a 00
        E 0 80 1b 00
        E 0 80 1c 00
        E 0 80 1d 00
        E 360 90 61 65
        E 0 90 62 67
        E 0 90 63 67
        E 0 90 64 66
        E 0 90 65 65
        E 0 90 49 65
        E 0 90 4a 67
        E 0 90 4b 67
        E 0 90 4c 66
        E 0 90 4d 65
        E 0 90 31 65
        E 0 90 32 67
        E 0 90 33 67
        E 0 90 34 66
        E 0 90 35 65
        E 0 90 19 65
        E 0 90 1a 67
        E 0 90 1b 67
        E 0 90 1c 66
        E 0 90 1d 65
        E 120 80 61 00
        E 0 80 62 00
        E 0 80 63 00
        E 0 80 64 00
        E 0 80 65 00
        E 0 80 49 00
        E 0 80 4a 00
        E 0 80 4b 00
        E 0 80 4c 00
        E 0 80 4d 00
        E 0 80 31 00
        E 0 80 32 00
        E 0 80 33 00
        E 0 80 34 00
        E 0 80 35 00
        E 0 80 19 00
        E 0 80 1a 00
        E 0 80 1b 00
        E 0 80 1c 00
        E 0 80 1d 00
        E 360 90 61 65
        E 0 90 62 67
        E 0 90 63 67
        E 0 90 64 66
        E 0 90 65 65
        E 0 90 49 65
        E 0 90 4a 67
        E 0 90 4b 67
        E 0 90 4c 66
        E 0 90 4d 65
        E 0 90 31 65
        E 0 90 32 67
        E 0 90 33 67
        E 0 90 34 66
        E 0 90 35 65
        E 0 90 19 65
        E 0 90 1a 67
        E 0 90 1b 67
        E 0 90 1c 66
        E 0 90 1d 65
        E 120 80 61 00
        E 0 80 62 00
        E 0 80 63 00
        E 0 80 64 00
        E 0 80 65 00
        E 0 80 49 00
        E 0 80 4a 00
        E 0 80 4b 00
        E 0 80 4c 00
        E 0 80 4d 00
        E 0 80 31 00
        E 0 80 32 00
        E 0 80 33 00
        E 0 80 34 00
        E 0 80 35 00
        E 0 80 19 00
        E 0 80 1a 00
        E 0 80 1b 00
        E 0 80 1c 00
        E 0 80 1d 00
        E 360 90 61 65
        E 0 90 62 67
        E 0 90 63 67
        E 0 90 64 66
        E 0 90 65 65
        E 0 90 49 65
        E 0 90 4a 67
        E 0 90 4b 67
        E 0 90 4c 66
        E 0 90 4d 65
        E 0 90 31 65
        E 0 90 32 67
        E 0 90 33 67
        E 0 90 34 66
        E 0 90 35 65
        E 0 90 19 65
        E 0 90 1a 67
        E 0 90 1b 67
        E 0 90 1c 66
        E 0 90 1d 65
        E 120 80 61 00
        E 0 80 62 00
        E 0 80 63 00
        E 0 80 64 00
        E 0 80 65 00
        E 0 80 49 00
        E 0 80 4a 00
        E 0 80 4b 00
        E 0 80 4c 00
        E 0 80 4d 00
        E 0 80 31 00
        E 0 80 32 00
        E 0 80 33 00
        E 0 80 34 00
        E 0 80 35 00
        E 0 80 19 00
        E 0 80 1a 00
        E 0 80 1b 00
        E 0 80 1c 00
        E 0 80 1d 00
        E 360 90 61 65
        E 0 90 62 67
        E 0 90 63 67
        E 0 90 64 66
        E 0 90 65 65
        E 0 90 49 65
        E 0 90 4a 67
        E 0 90 4b 67
        E 0 90 4c 66
        E 0 90 4d 65
        E 0 90 31 65
        E 0 90 32 67
        E 0 90 33 67
        E 0 90 34 66
        E 0 90 35 65
        E 0 90 19 65
        E 0 90 1a 67
        E 0 90 1b 67
        E 0 90 1c 66
        E 0 90 1d 65
        E 120 80 61 00
        E 0 80 62 00
        E 0 80 63 00
        E 0 80 64 00
        E 0 80 65 00
        E 0 80 49 00
        E 0 80 4a 00
        E 0 80 4b 00
        E 0 80 4c 00
        E 0 80 4d 00
        E 0 80 31 00
        E 0 80 32 00
        E 0 80 33 00
        E 0 80 34 00
        E 0 80 35 00
        E 0 80 19 00
        E 0 80 1a 00
        E 0 80 1b 00
        E 0 80 1c 00
        E 0 80 1d 00
        E 360 90 61 68
        E 0 90 6c 68
        E 0 90 49 68
        E 0 90 31 68
        E 120 80 61 00
        E 0 80 6c 00
        E 0 80 49 00
        E 0 80 31 00
        E 120 90 61 6a
        E 0 90 49 6a
        E 120 80 61 00
        E 0 80 49 00
        E 120 90 62 68
        E 0 90 4a 68
        E 0 90 32 68
        E 0 90 1a 68
        E 120 80 62 00
        E 0 80 4a 00
        E 0 80 32 00
        E 0 80 1a 00
        E 120 90 61 68
        E 0 90 49 68
        E 120 80 61 00
        E 0 80 49 00
        E 120 90 61 6a
        E 0 90 49 6a
        E 0 90 31 6a
        E 120 80 61 00
        E 0 80 49 00
        E 0 80 31 00
        E 120 90 62 68
        E 0 90 4a 68
        E 120 80 62 00
        E 0 80 4a 00
        E 120 90 62 6a
        E 0 90 4a 6a
        E 0 90 32 6a
        E 0 90 1a 6a
        E 0 9b 67 64
        E 0 9b 4f 64
        E 0 9b 37 64
        E 0 9b 1f 64
        E 960 80 62 00
        E 0 80 4a 00
        E 0 80 32 00
        E 0 80 1a 00
        E 0 8b 67 00
        E 0 8b 4f 00
        E 0 8b 37 00
        E 0 8b 1f 00
        E 480 90 61 68
        E 0 90 49 68
        E 0 90 31 68
        E 120 80 61 00
        E 0 80 49 00
        E 0 80 31 00
        E 0 90 61 6a
        E 0 90 66 64
        E 720 80 61 00
        E 0 80 66 00
        E 120 90 61 68
        E 0 90 49 68
        E 0 90 31 68
        E 0 90 19 68
        E 120 80 61 00
        E 0 80 49 00
        E 0 80 31 00
        E 0 80 19 00
        E 360 90 60 68
        E 0 90 48 68
        E 0 90 30 68
        E 0 90 18 68
        E 840 80 60 00
        E 0 80 48 00
        E 0 80 30 00
        E 0 80 18 00
        E 120 90 60 66
        E 0 90 6c 66
        E 0 90 48 66
        E 0 90 30 66
        E 0 90 18 66
        E 120 80 60 00
        E 0 80 6c 00
        E 0 80 48 00
        E 0 80 30 00
        E 0 80 18 00
        E 360 90 60 66
        E 0 90 48 66
        E 0 90 30 66
        E 0 90 18 66
        E 120 80 60 00
        E 0 80 48 00
        E 0 80 30 00
        E 0 80 18 00
        E 360 90 60 66
        E 0 90 48 66
        E 0 90 30 66
        E 0 90 18 66
        E 120 80 60 00
        E 0 80 48 00
        E 0 80 30 00
        E 0 80 18 00
        E 360 90 60 66
        E 0 90 48 66
        E 0 90 30 66
        E 0 90 18 66
        E 120 80 60 00
        E 0 80 48 00
        E 0 80 30 00
        E 0 80 18 00
        E 360 90 60 66
        E 0 90 48 66
        E 0 90 30 66
        E 0 90 18 66
        E 1200 80 60 00
        E 0 80 48 00
        E 0 80 30 00
        E 0 80 18 00
        E 8399 b0 7b 00
        GUID {DF1AE9E8-C1A7-4891-A663-607E93F2CA8C}
        IGNTEMPO 0 120.00000000 4 4
        SRCCOLOR 18
        VELLANE 132 128 60
        COLORMAP "C:\Program Files\REAPER (x64)\Data\color_maps\rockband_guitarbass.png"
        CFGEDITVIEW 183228.176229 25.157371 6 12 0 0 0
        CFGEDIT 1 1 0 1 1 0 1 1 1 1 1 0.25000000 -8 -8 1544 872 0 2 1 1 0.00000000 0 1 1 0 0.500000 0 0 1.000000 64
        KEYSNAP 0 6 "102030050700" 0 "Pentatonic"
        EVTFILTER 0 -1 -1 -1 -1 0 1 0 0 -1.00000000 -1.00000000
      >
    >
  >
  <TRACK '{0D61779D-5110-49DA-98EB-4B37F6D06B85}'
    NAME "EVENTS"
    PEAKCOL 16576
    BEAT -1
    AUTOMODE 0
    VOLPAN 1.00000000000000 0.00000000000000 -1.00000000000000 -1.00000000000000 1.00000000000000
    MUTESOLO 0 0 0
    IPHASE 0
    ISBUS 0 0
    BUSCOMP 0 0
    SHOWINMIX 1 0.666700 0.500000 1 0.500000 -1 -1 -1
    FREEMODE 0
    SEL 0
    REC 0 0 0 0 0 0 0
    VU 2
    TRACKHEIGHT 0 0
    INQ 0 0 0 0.5000000000 100 0 0 100
    NCHAN 2
    FX 1
    TRACKID {0D61779D-5110-49DA-98EB-4B37F6D06B85}
    PERF 0
    MIDIOUT -1
    <MIDINOTENAMES
      0 26 "Hi-Hat"
      0 25 "Snare"
      0 24 "Kick"
    >
    MAINSEND 1 0
    <FXCHAIN
      SHOW 0
      LASTSEL 0
      DOCKED 0
    >
    <ITEM
      POSITION 0.00000000000000
      SNAPOFFS 0.00000000000000
      LENGTH 276.11399999999998
      LOOP 0
      ALLTAKES 0
      SEL 0
      FADEIN 1 0.000000 0.000000 1 0
      FADEOUT 1 0.000000 0.000000 1 0
      MUTE 0
      IGUID {FCA73E40-810B-4C32-A26E-33C5366CADFF}
      IID 17
      NAME "EVENTS"
      VOLPAN 1.000000 0.000000 1.000000 -1.000000
      SOFFS 0.00000000000000 0.00000000000000
      PLAYRATE 1.00000000000000 1 0.00000000000000 -1
      CHANMODE 0
      GUID {8C177DDA-8C61-4BBF-A237-4A4C2D6B1B91}
      <SOURCE MIDI
        HASDATA 1 480 QN
        POOLEDEVTS {BFEC6D79-B119-473F-B779-6C6541650EDC}
        <X 0 0
          /wNFVkVOVFM=
        >
        <X 5280 0
          /wFbcHJjX2ludHJvXQ==
        >
        <X 960 0
          /wFbbXVzaWNfc3RhcnRd
        >
        <X 30240 0
          /wFbcHJjX2Nob3J1c18xXQ==
        >
        <X 30720 0
          /wFbcHJjX3ZlcnNlXzFd
        >
        <X 30720 0
          /wFbcHJjX2Nob3J1c18yXQ==
        >
        <X 30720 0
          /wFbcHJjX2d0cl9zb2xvXQ==
        >
        <X 30720 0
          /wFbcHJjX3ZlcnNlXzJd
        >
        <X 30720 0
          /wFbcHJjX2JyaWRnZV8yYV0=
        >
        <X 30720 0
          /wFbcHJjX2JyaWRnZV8yYl0=
        >
        <X 30720 0
          /wFbcHJjX3ZlcnNlXzNd
        >
        <X 35040 0
          /wFbcHJjX2JyZWFrZG93bl0=
        >
        <X 30720 0
          /wFbcHJjX291dHJvXQ==
        >
        <X 29280 0
          /wFbbXVzaWNfZW5kXQ==
        >
        <X 9115 0
          /wFbZW5kXQ==
        >
        E 5 b0 7b 00
        GUID {16C40079-3F54-4C0D-8B62-6D5D747156F1}
        IGNTEMPO 0 120.00000000 4 4
        SRCCOLOR 19
        VELLANE 132 128 60
        COLORMAP "C:\Program Files\REAPER (x64)\Data\color_maps\rockband_guitarbass.png"
        CFGEDITVIEW -22293.631403 4.067158 0 48 0 0 0
        CFGEDIT 1 1 0 1 1 0 1 1 1 1 1 0.25000000 -8 -8 1544 872 0 2 1 1 0.00000000 0 1 1 0 0.500000 0 0 1.000000 64
        KEYSNAP 0 6 "102030050700" 0 "Pentatonic"
        EVTFILTER 0 -1 -1 -1 -1 0 1 0 0 -1.00000000 -1.00000000
      >
    >
  >
  <TRACK '{7FCC048F-50E4-405A-A517-8BA02101CCFD}'
    NAME "VENUE"
    PEAKCOL 16576
    BEAT -1
    AUTOMODE 0
    VOLPAN 1.00000000000000 0.00000000000000 -1.00000000000000 -1.00000000000000 1.00000000000000
    MUTESOLO 0 0 0
    IPHASE 0
    ISBUS 1 1
    BUSCOMP 1 0
    SHOWINMIX 1 0.666700 0.500000 1 0.500000 -1 -1 -1
    FREEMODE 0
    SEL 0
    REC 0 0 0 0 0 0 0
    VU 2
    TRACKHEIGHT 0 0
    INQ 0 0 0 0.5000000000 100 0 0 100
    NCHAN 2
    FX 1
    TRACKID {7FCC048F-50E4-405A-A517-8BA02101CCFD}
    PERF 0
    MIDIOUT -1
    <MIDINOTENAMES
      0 87 "Guitarist Sing Along"
      0 86 "Drummer Sing Along"
      0 85 "Bassist Sing Along"
      0 84 "----"
      0 41 "Spotlight on Keys"
      0 40 "Spotlight on Vocals"
      0 39 "Spotlight on Guitar"
      0 38 "Spotlight on Drums"
      0 37 "Spotlight on Bass"
    >
    MAINSEND 1 0
    <FXCHAIN
      SHOW 0
      LASTSEL 0
      DOCKED 0
    >
    <ITEM
      POSITION 0.00000000000000
      SNAPOFFS 0.00000000000000
      LENGTH 276.11399999999998
      LOOP 0
      ALLTAKES 0
      SEL 0
      FADEIN 1 0.000000 0.000000 1 0
      FADEOUT 1 0.000000 0.000000 1 0
      MUTE 0
      IGUID {E3F022F1-C8FF-43F5-ACE0-A4202E1F890C}
      IID 18
      NAME "VENUE"
      VOLPAN 1.000000 0.000000 1.000000 -1.000000
      SOFFS 0.00000000000000 0.00000000000000
      PLAYRATE 1.00000000000000 1 0.00000000000000 -1
      CHANMODE 0
      GUID {F8A1C97D-A07A-4B30-907E-4101768F379E}
      <SOURCE MIDI
        HASDATA 1 480 QN
        POOLEDEVTS {979C0A36-9A74-45C9-B7EF-577B32B86398}
        <X 0 0
          /wNWRU5VRQ==
        >
        <X 0 0
          /wFbbGlnaHRpbmcgKGludHJvKV0=
        >
        <X 0 0
          /wFbUHJvRmlsbV9hLnBwXQ==
        >
        <X 0 0
          /wFbY29vcF9hbGxfZmFyXQ==
        >
        <X 3345 0
          /wFbbGlnaHRpbmcgKGludHJvKV0=
        >
        <X 1905 0
          /wFbY29vcF9hbGxfbmVhcl0=
        >
        <X 15 0
          /wFbbGlnaHRpbmcgKGxvb3Bfd2FybSld
        >
        <X 1 0
          /wFbcG9zdGVyaXplLnBwXQ==
        >
        <X 1934 0
          /wFbY29vcF9hbGxfZmFyXQ==
        >
        <X 2850 0
          /wFbY29vcF9nX25lYXJd
        >
        <X 1920 0
          /wFbY29vcF9kX2JlaGluZF0=
        >
        <X 1950 0
          /wFbY29vcF9hbGxfZmFyXQ==
        >
        <X 1905 0
          /wFbY29vcF9nX25lYXJd
        >
        <X 3825 0
          /wFbY29vcF9kX25lYXJd
        >
        <X 990 0
          /wFbY29vcF9kX25lYXJd
        >
        <X 3345 0
          /wFbY29vcF9kX25lYXJd
        >
        <X 1920 0
          /wFbY29vcF9hbGxfZmFyXQ==
        >
        <X 3375 0
          /wFbY29vcF9hbGxfbmVhcl0=
        >
        <X 2850 0
          /wFbY29vcF9nX25lYXJd
        >
        <X 2415 0
          /wFbY29vcF9hbGxfZmFyXQ==
        >
        <X 960 0
          /wFbcG9zdGVyaXplLnBwXQ==
        >
        <X 0 0
          /wFbbGlnaHRpbmcgKGxvb3Bfd2FybSld
        >
        <X 945 0
          /wFbY29vcF9idl9uZWFyXQ==
        >
        <X 15 0
          /wFbZmlsbV9jb250cmFzdF9yZWQucHBd
        >
        <X 0 0
          /wFbbGlnaHRpbmcgKGNob3J1cyld
        >
        <X 15 0
          /wFbbmV4dF0=
        >
        <X 0 0
          /wFbZGlyZWN0ZWRfYWxsXQ==
        >
        E 0 90 57 64
        <X 960 0
          /wFbbmV4dF0=
        >
        <X 960 0
          /wFbbmV4dF0=
        >
        <X 480 0
          /wFbY29vcF9nX25lYXJd
        >
        <X 480 0
          /wFbbmV4dF0=
        >
        <X 960 0
          /wFbbmV4dF0=
        >
        <X 960 0
          /wFbbmV4dF0=
        >
        <X 480 0
          /wFbY29vcF9ndl9uZWFyXQ==
        >
        <X 480 0
          /wFbbmV4dF0=
        >
        <X 960 0
          /wFbbmV4dF0=
        >
        <X 0 0
          /wFbY29vcF92X2JlaGluZF0=
        >
        <X 930 0
          /wFbY29vcF92X25lYXJd
        >
        <X 30 0
          /wFbbmV4dF0=
        >
        <X 960 0
          /wFbbmV4dF0=
        >
        <X 960 0
          /wFbbmV4dF0=
        >
        <X 450 0
          /wFbY29vcF9ndl9uZWFyXQ==
        >
        <X 510 0
          /wFbbmV4dF0=
        >
        <X 945 0
          /wFbY29vcF9kX25lYXJd
        >
        <X 15 0
          /wFbbmV4dF0=
        >
        <X 960 0
          /wFbbmV4dF0=
        >
        <X 960 0
          /wFbbmV4dF0=
        >
        <X 960 0
          /wFbbmV4dF0=
        >
        <X 465 0
          /wFbY29vcF9mcm9udF9uZWFyXQ==
        >
        <X 495 0
          /wFbbmV4dF0=
        >
        <X 480 0
          /wFbY29vcF9mcm9udF9iZWhpbmRd
        >
        <X 480 0
          /wFbbmV4dF0=
        >
        <X 930 0
          /wFbY29vcF9mcm9udF9iZWhpbmRd
        >
        <X 30 0
          /wFbbmV4dF0=
        >
        <X 960 0
          /wFbbmV4dF0=
        >
        <X 960 0
          /wFbbmV4dF0=
        >
        <X 0 0
          /wFbY29vcF9hbGxfZmFyXQ==
        >
        <X 960 0
          /wFbbmV4dF0=
        >
        <X 960 0
          /wFbbmV4dF0=
        >
        <X 0 0
          /wFbY29vcF9hbGxfbmVhcl0=
        >
        <X 960 0
          /wFbbmV4dF0=
        >
        <X 960 0
          /wFbbmV4dF0=
        >
        <X 0 0
          /wFbY29vcF92X25lYXJd
        >
        <X 960 0
          /wFbbmV4dF0=
        >
        <X 465 0
          /wFbY29vcF9nX25lYXJd
        >
        <X 495 0
          /wFbbmV4dF0=
        >
        <X 960 0
          /wFbbmV4dF0=
        >
        <X 960 0
          /wFbbmV4dF0=
        >
        <X 465 0
          /wFbY29vcF9hbGxfZmFyXQ==
        >
        <X 495 0
          /wFbbmV4dF0=
        >
        <X 945 0
          /wFbZmlsbV9jb250cmFzdF9yZWQucHBd
        >
        <X 0 0
          /wFbbGlnaHRpbmcgKGNob3J1cyld
        >
        <X 15 0
          /wFbbmV4dF0=
        >
        <X 480 0
          /wFbY29vcF92X25lYXJd
        >
        <X 480 0
          /wFbbmV4dF0=
        >
        <X 945 0
          /wFbUHJvRmlsbV9hLnBwXQ==
        >
        <X 0 0
          /wFbbGlnaHRpbmcgKG1hbnVhbF9jb29sKV0=
        >
        <X 0 0
          /wFbY29vcF92X2Nsb3NldXBd
        >
        <X 15 0
          /wFbbmV4dF0=
        >
        E 0 80 57 00
        <X 1425 0
          /wFbY29vcF9nX25lYXJd
        >
        <X 495 0
          /wFbbmV4dF0=
        >
        <X 1425 0
          /wFbY29vcF9ndl9iZWhpbmRd
        >
        <X 495 0
          /wFbbmV4dF0=
        >
        <X 1920 0
          /wFbbmV4dF0=
        >
        <X 465 0
          /wFbY29vcF9ndl9iZWhpbmRd
        >
        <X 1455 0
          /wFbbmV4dF0=
        >
        <X 0 0
          /wFbY29vcF92X2Nsb3NldXBd
        >
        <X 1920 0
          /wFbbmV4dF0=
        >
        <X 480 0
          /wFbY29vcF9ndl9iZWhpbmRd
        >
        <X 1440 0
          /wFbbmV4dF0=
        >
        <X 1425 0
          /wFbY29vcF9ndl9uZWFyXQ==
        >
        <X 495 0
          /wFbbmV4dF0=
        >
        <X 1920 0
          /wFbbmV4dF0=
        >
        <X 0 0
          /wFbY29vcF92X2Nsb3NldXBd
        >
        <X 1425 0
          /wFbY29vcF92X2JlaGluZF0=
        >
        <X 495 0
          /wFbbmV4dF0=
        >
        <X 1410 0
          /wFbY29vcF92X25lYXJd
        >
        <X 510 0
          /wFbbmV4dF0=
        >
        <X 1920 0
          /wFbbmV4dF0=
        >
        <X 930 0
          /wFbY29vcF9kX25lYXJd
        >
        <X 960 0
          /wFbY29vcF92X2Nsb3NldXBd
        >
        <X 30 0
          /wFbbmV4dF0=
        >
        <X 960 0
          /wFbY29vcF9nX25lYXJd
        >
        <X 960 0
          /wFbbmV4dF0=
        >
        <X 1920 0
          /wFbbmV4dF0=
        >
        <X 0 0
          /wFbY29vcF9nX2JlaGluZF0=
        >
        <X 1920 0
          /wFbbmV4dF0=
        >
        <X 945 0
          /wFbUHJvRmlsbV9hLnBwXQ==
        >
        <X 0 0
          /wFbbGlnaHRpbmcgKG1hbnVhbF9jb29sKV0=
        >
        <X 465 0
          /wFbY29vcF92X2JlaGluZF0=
        >
        <X 495 0
          /wFbZmlsbV9jb250cmFzdF9yZWQucHBd
        >
        <X 0 0
          /wFbbGlnaHRpbmcgKGNob3J1cyld
        >
        <X 15 0
          /wFbbmV4dF0=
        >
        E 0 90 57 64
        <X 450 0
          /wFbY29vcF9idl9uZWFyXQ==
        >
        <X 510 0
          /wFbbmV4dF0=
        >
        <X 960 0
          /wFbbmV4dF0=
        >
        <X 960 0
          /wFbbmV4dF0=
        >
        <X 480 0
          /wFbY29vcF9nX25lYXJd
        >
        <X 480 0
          /wFbbmV4dF0=
        >
        <X 960 0
          /wFbbmV4dF0=
        >
        <X 450 0
          /wFbY29vcF9hbGxfbmVhcl0=
        >
        <X 510 0
          /wFbbmV4dF0=
        >
        <X 465 0
          /wFbY29vcF9ndl9iZWhpbmRd
        >
        <X 495 0
          /wFbbmV4dF0=
        >
        <X 945 0
          /wFbY29vcF92X2Nsb3NldXBd
        >
        <X 15 0
          /wFbbmV4dF0=
        >
        <X 960 0
          /wFbbmV4dF0=
        >
        <X 960 0
          /wFbbmV4dF0=
        >
        <X 945 0
          /wFbY29vcF9ndl9uZWFyXQ==
        >
        <X 15 0
          /wFbbmV4dF0=
        >
        <X 960 0
          /wFbbmV4dF0=
        >
        <X 465 0
          /wFbY29vcF9kX25lYXJd
        >
        <X 495 0
          /wFbbmV4dF0=
        >
        <X 945 0
          /wFbY29vcF9idl9uZWFyXQ==
        >
        <X 15 0
          /wFbbmV4dF0=
        >
        <X 960 0
          /wFbbmV4dF0=
        >
        <X 960 0
          /wFbbmV4dF0=
        >
        <X 465 0
          /wFbY29vcF92X25lYXJd
        >
        <X 495 0
          /wFbbmV4dF0=
        >
        <X 465 0
          /wFbY29vcF92X25lYXJd
        >
        <X 495 0
          /wFbbmV4dF0=
        >
        <X 960 0
          /wFbbmV4dF0=
        >
        <X 465 0
          /wFbY29vcF92X25lYXJd
        >
        <X 495 0
          /wFbbmV4dF0=
        >
        <X 960 0
          /wFbbmV4dF0=
        >
        <X 960 0
          /wFbbmV4dF0=
        >
        <X 930 0
          /wFbY29vcF9iX25lYXJd
        >
        <X 30 0
          /wFbbmV4dF0=
        >
        <X 930 0
          /wFbY29vcF92X25lYXJd
        >
        <X 30 0
          /wFbbmV4dF0=
        >
        <X 960 0
          /wFbbmV4dF0=
        >
        <X 960 0
          /wFbbmV4dF0=
        >
        <X 960 0
          /wFbbmV4dF0=
        >
        <X 0 0
          /wFbY29vcF9mcm9udF9uZWFyXQ==
        >
        <X 960 0
          /wFbbmV4dF0=
        >
        <X 945 0
          /wFbY29vcF9nX25lYXJd
        >
        <X 15 0
          /wFbbmV4dF0=
        >
        <X 945 0
          /wFbZmlsbV9jb250cmFzdF9yZWQucHBd
        >
        <X 0 0
          /wFbbGlnaHRpbmcgKGNob3J1cyld
        >
        <X 15 0
          /wFbbmV4dF0=
        >
        <X 960 0
          /wFbbmV4dF0=
        >
        <X 0 0
          /wFbY29vcF9iX25lYXJd
        >
        <X 945 0
          /wFbUHJvRmlsbV9hLnBwXQ==
        >
        <X 0 0
          /wFbbGlnaHRpbmcgKHN3ZWVwKV0=
        >
        <X 15 0
          /wFbZGlyZWN0ZWRfZ3VpdGFyX2NhbV9wdF0=
        >
        <X 0 0
          /wFbY29vcF9nX25lYXJd
        >
        E 0 80 57 00
        E 0 90 27 64
        <X 2865 0
          /wFbY29vcF9kX2JlaGluZF0=
        >
        <X 2865 0
          /wFbY29vcF9mcm9udF9uZWFyXQ==
        >
        <X 960 0
          /wFbY29vcF9kX25lYXJd
        >
        <X 1935 0
          /wFbY29vcF9kX25lYXJd
        >
        <X 3825 0
          /wFbY29vcF9mcm9udF9uZWFyXQ==
        >
        <X 975 0
          /wFbY29vcF9hbGxfYmVoaW5kXQ==
        >
        <X 1920 0
          /wFbY29vcF9kX25lYXJd
        >
        <X 3825 0
          /wFbY29vcF9kX25lYXJd
        >
        <X 1935 0
          /wFbY29vcF9mcm9udF9uZWFyXQ==
        >
        <X 1920 0
          /wFbY29vcF9kX25lYXJd
        >
        <X 3360 0
          /wFbY29vcF9kX25lYXJd
        >
        <X 1455 0
          /wFbY29vcF9nX25lYXJd
        >
        <X 930 0
          /wFbY29vcF9ndl9uZWFyXQ==
        >
        <X 15 0
          /wFbUHJvRmlsbV9hLnBwXQ==
        >
        <X 0 0
          /wFbbGlnaHRpbmcgKHN3ZWVwKV0=
        >
        E 15 90 57 64
        <X 1410 0
          /wFbY29vcF9iX2JlaGluZF0=
        >
        E 30 80 27 00
        <X 465 0
          /wFbUHJvRmlsbV9hLnBwXQ==
        >
        <X 0 0
          /wFbbGlnaHRpbmcgKG1hbnVhbF9jb29sKV0=
        >
        <X 15 0
          /wFbbmV4dF0=
        >
        <X 960 0
          /wFbY29vcF9iX25lYXJd
        >
        <X 960 0
          /wFbbmV4dF0=
        >
        <X 960 0
          /wFbY29vcF9iX25lYXJd
        >
        <X 960 0
          /wFbbmV4dF0=
        >
        <X 960 0
          /wFbY29vcF9kX25lYXJd
        >
        <X 960 0
          /wFbbmV4dF0=
        >
        <X 0 0
          /wFbY29vcF9ndl9uZWFyXQ==
        >
        <X 1410 0
          /wFbY29vcF9idl9iZWhpbmRd
        >
        <X 510 0
          /wFbbmV4dF0=
        >
        <X 480 0
          /wFbY29vcF9kX2JlaGluZF0=
        >
        <X 1440 0
          /wFbbmV4dF0=
        >
        <X 0 0
          /wFbY29vcF9hbGxfYmVoaW5kXQ==
        >
        <X 1920 0
          /wFbbmV4dF0=
        >
        <X 0 0
          /wFbY29vcF9nX25lYXJd
        >
        <X 1920 0
          /wFbbmV4dF0=
        >
        <X 0 0
          /wFbY29vcF92X2Nsb3NldXBd
        >
        <X 1920 0
          /wFbbmV4dF0=
        >
        <X 930 0
          /wFbY29vcF9hbGxfbmVhcl0=
        >
        <X 990 0
          /wFbbmV4dF0=
        >
        <X 1920 0
          /wFbbmV4dF0=
        >
        <X 480 0
          /wFbY29vcF9kX25lYXJd
        >
        <X 1410 0
          /wFbY29vcF9mcm9udF9uZWFyXQ==
        >
        <X 30 0
          /wFbbmV4dF0=
        >
        <X 960 0
          /wFbY29vcF92X25lYXJd
        >
        <X 960 0
          /wFbbmV4dF0=
        >
        <X 1425 0
          /wFbY29vcF9ndl9iZWhpbmRd
        >
        <X 495 0
          /wFbbmV4dF0=
        >
        <X 945 0
          /wFbY29vcF9nX25lYXJd
        >
        <X 975 0
          /wFbbmV4dF0=
        >
        <X 1905 0
          /wFbUHJvRmlsbV9hLnBwXQ==
        >
        <X 0 0
          /wFbbGlnaHRpbmcgKG1hbnVhbF9jb29sKV0=
        >
        <X 15 0
          /wFbbmV4dF0=
        >
        E 480 80 57 00
        <X 450 0
          /wFbY29vcF9na19uZWFyXQ==
        >
        <X 975 0
          /wFbUHJvRmlsbV9wc3ljaGVkZWxpY19ibHVlX3JlZC5wcF0=
        >
        <X 0 0
          /wFbbGlnaHRpbmcgKHN3ZWVwKV0=
        >
        <X 465 0
          /wFbY29vcF9na19iZWhpbmRd
        >
        <X 990 0
          /wFbY29vcF92X25lYXJd
        >
        <X 3360 0
          /wFbY29vcF92X25lYXJd
        >
        <X 1890 0
          /wFbY29vcF9rdl9uZWFyXQ==
        >
        <X 1950 0
          /wFbY29vcF9mcm9udF9uZWFyXQ==
        >
        <X 1410 0
          /wFbY29vcF92X25lYXJd
        >
        <X 1950 0
          /wFbY29vcF9mcm9udF9uZWFyXQ==
        >
        <X 1440 0
          /wFbY29vcF9iX25lYXJd
        >
        <X 930 0
          /wFbY29vcF9ndl9uZWFyXQ==
        >
        <X 990 0
          /wFbY29vcF9nX25lYXJd
        >
        <X 1410 0
          /wFbY29vcF9iX25lYXJd
        >
        <X 1470 0
          /wFbY29vcF9nX2JlaGluZF0=
        >
        <X 3825 0
          /wFbY29vcF9mcm9udF9uZWFyXQ==
        >
        <X 1935 0
          /wFbY29vcF9mcm9udF9uZWFyXQ==
        >
        <X 2865 0
          /wFbY29vcF92X2JlaGluZF0=
        >
        <X 960 0
          /wFbY29vcF92X25lYXJd
        >
        <X 3840 0
          /wFbY29vcF9hbGxfZmFyXQ==
        >
        <X 960 0
          /wFbY29vcF9kX25lYXJd
        >
        <X 1920 0
          /wFbY29vcF9idl9uZWFyXQ==
        >
        <X 1935 0
          /wFbY29vcF9rX25lYXJd
        >
        <X 3810 0
          /wFbY29vcF9mcm9udF9uZWFyXQ==
        >
        <X 1935 0
          /wFbY29vcF9rX2JlaGluZF0=
        >
        <X 1440 0
          /wFbY29vcF9nX25lYXJd
        >
        E 495 90 55 64
        E 0 90 57 64
        <X 1440 0
          /wFbY29vcF92X25lYXJd
        >
        <X 1410 0
          /wFbY29vcF92X25lYXJd
        >
        <X 960 0
          /wFbY29vcF9rX25lYXJd
        >
        <X 3855 0
          /wFbY29vcF9hbGxfYmVoaW5kXQ==
        >
        <X 1905 0
          /wFbY29vcF9hbGxfYmVoaW5kXQ==
        >
        <X 2415 0
          /wFbY29vcF9kX25lYXJd
        >
        <X 960 0
          /wFbY29vcF9rX25lYXJd
        >
        <X 2400 0
          /wFbUHJvRmlsbV9wc3ljaGVkZWxpY19ibHVlX3JlZC5wcF0=
        >
        <X 0 0
          /wFbbGlnaHRpbmcgKHN3ZWVwKV0=
        >
        <X 495 0
          /wFbY29vcF9hbGxfbmVhcl0=
        >
        <X 1425 0
          /wFbUHJvRmlsbV9hLnBwXQ==
        >
        <X 0 0
          /wFbbGlnaHRpbmcgKG1hbnVhbF9jb29sKV0=
        >
        <X 15 0
          /wFbbmV4dF0=
        >
        <X 1920 0
          /wFbbmV4dF0=
        >
        <X 1410 0
          /wFbY29vcF92X25lYXJd
        >
        <X 510 0
          /wFbbmV4dF0=
        >
        <X 945 0
          /wFbY29vcF9mcm9udF9iZWhpbmRd
        >
        <X 945 0
          /wFbY29vcF92X2Nsb3NldXBd
        >
        <X 30 0
          /wFbbmV4dF0=
        >
        <X 1920 0
          /wFbbmV4dF0=
        >
        <X 945 0
          /wFbY29vcF92X2JlaGluZF0=
        >
        <X 975 0
          /wFbbmV4dF0=
        >
        <X 930 0
          /wFbY29vcF9kX25lYXJd
        >
        <X 960 0
          /wFbY29vcF9mcm9udF9iZWhpbmRd
        >
        <X 30 0
          /wFbbmV4dF0=
        >
        <X 1890 0
          /wFbY29vcF92X2Nsb3NldXBd
        >
        <X 30 0
          /wFbbmV4dF0=
        >
        <X 930 0
          /wFbY29vcF9nX25lYXJd
        >
        <X 990 0
          /wFbbmV4dF0=
        >
        <X 1920 0
          /wFbbmV4dF0=
        >
        <X 465 0
          /wFbY29vcF9iX2JlaGluZF0=
        >
        <X 1455 0
          /wFbbmV4dF0=
        >
        <X 1890 0
          /wFbY29vcF92X2Nsb3NldXBd
        >
        <X 30 0
          /wFbbmV4dF0=
        >
        <X 930 0
          /wFbY29vcF92X25lYXJd
        >
        <X 990 0
          /wFbbmV4dF0=
        >
        <X 1920 0
          /wFbbmV4dF0=
        >
        <X 465 0
          /wFbY29vcF9iX2JlaGluZF0=
        >
        <X 1455 0
          /wFbbmV4dF0=
        >
        <X 1920 0
          /wFbbmV4dF0=
        >
        <X 480 0
          /wFbY29vcF9kX25lYXJd
        >
        E 0 80 55 00
        E 0 80 57 00
        <X 1440 0
          /wFbbmV4dF0=
        >
        <X 1920 0
          /wFbbmV4dF0=
        >
        <X 450 0
          /wFbY29vcF9iZ19iZWhpbmRd
        >
        <X 15 0
          /wFbUHJvRmlsbV9hLnBwXQ==
        >
        <X 0 0
          /wFbbGlnaHRpbmcgKG1hbnVhbF9jb29sKV0=
        >
        <X 1455 0
          /wFbbmV4dF0=
        >
        <X 0 0
          /wFbY29vcF92X25lYXJd
        >
        <X 465 0
          /wFbUHJvRmlsbV9hLnBwXQ==
        >
        <X 0 0
          /wFbbGlnaHRpbmcgKHN3ZWVwKV0=
        >
        <X 495 0
          /wFbY29vcF92X25lYXJd
        >
        <X 3840 0
          /wFbY29vcF92X25lYXJd
        >
        <X 2880 0
          /wFbY29vcF9mcm9udF9iZWhpbmRd
        >
        <X 1410 0
          /wFbY29vcF9iX25lYXJd
        >
        <X 1455 0
          /wFbY29vcF9rX25lYXJd
        >
        <X 960 0
          /wFbY29vcF9iX25lYXJd
        >
        <X 1935 0
          /wFbY29vcF9rdl9iZWhpbmRd
        >
        <X 3840 0
          /wFbY29vcF92X25lYXJd
        >
        <X 3330 0
          /wFbY29vcF9hbGxfbmVhcl0=
        >
        <X 1920 0
          /wFbY29vcF9rX25lYXJd
        >
        <X 1935 0
          /wFbY29vcF9mcm9udF9uZWFyXQ==
        >
        <X 1920 0
          /wFbY29vcF9rdl9uZWFyXQ==
        >
        <X 2385 0
          /wFbY29vcF9hbGxfZmFyXQ==
        >
        E 510 90 55 64
        E 0 90 57 64
        <X 465 0
          /wFbY29vcF92X2Nsb3NldXBd
        >
        <X 480 0
          /wFbUHJvRmlsbV9hLnBwXQ==
        >
        <X 0 0
          /wFbbGlnaHRpbmcgKHN3ZWVwKV0=
        >
        <X 960 0
          /wFbdmlkZW9fdHJhaWxzLnBwXQ==
        >
        <X 0 0
          /wFbbGlnaHRpbmcgKGRpc2Nob3JkKV0=
        >
        <X 15 0
          /wFbbmV4dF0=
        >
        <X 960 0
          /wFbbmV4dF0=
        >
        <X 465 0
          /wFbY29vcF9mcm9udF9uZWFyXQ==
        >
        <X 495 0
          /wFbbmV4dF0=
        >
        <X 960 0
          /wFbbmV4dF0=
        >
        <X 960 0
          /wFbbmV4dF0=
        >
        <X 930 0
          /wFbY29vcF9mcm9udF9iZWhpbmRd
        >
        <X 30 0
          /wFbbmV4dF0=
        >
        <X 930 0
          /wFbY29vcF92X25lYXJd
        >
        <X 30 0
          /wFbbmV4dF0=
        >
        <X 960 0
          /wFbbmV4dF0=
        >
        <X 960 0
          /wFbbmV4dF0=
        >
        <X 960 0
          /wFbbmV4dF0=
        >
        <X 465 0
          /wFbY29vcF92X25lYXJd
        >
        <X 495 0
          /wFbbmV4dF0=
        >
        <X 960 0
          /wFbbmV4dF0=
        >
        <X 480 0
          /wFbY29vcF92X2JlaGluZF0=
        >
        <X 480 0
          /wFbbmV4dF0=
        >
        <X 960 0
          /wFbbmV4dF0=
        >
        <X 945 0
          /wFbY29vcF92X2Nsb3NldXBd
        >
        <X 15 0
          /wFbbmV4dF0=
        >
        <X 960 0
          /wFbbmV4dF0=
        >
        <X 960 0
          /wFbbmV4dF0=
        >
        <X 960 0
          /wFbbmV4dF0=
        >
        <X 0 0
          /wFbY29vcF9nX25lYXJd
        >
        <X 960 0
          /wFbbmV4dF0=
        >
        <X 960 0
          /wFbbmV4dF0=
        >
        <X 960 0
          /wFbbmV4dF0=
        >
        <X 960 0
          /wFbbmV4dF0=
        >
        <X 0 0
          /wFbY29vcF9rX25lYXJd
        >
        <X 960 0
          /wFbbmV4dF0=
        >
        <X 960 0
          /wFbbmV4dF0=
        >
        <X 0 0
          /wFbY29vcF9hbGxfZmFyXQ==
        >
        <X 960 0
          /wFbbmV4dF0=
        >
        <X 930 0
          /wFbY29vcF9mcm9udF9uZWFyXQ==
        >
        <X 30 0
          /wFbbmV4dF0=
        >
        <X 960 0
          /wFbbmV4dF0=
        >
        <X 945 0
          /wFbY29vcF9mcm9udF9iZWhpbmRd
        >
        <X 15 0
          /wFbbmV4dF0=
        >
        <X 960 0
          /wFbbmV4dF0=
        >
        <X 480 0
          /wFbY29vcF9idl9uZWFyXQ==
        >
        <X 480 0
          /wFbbmV4dF0=
        >
        <X 960 0
          /wFbbmV4dF0=
        >
        <X 450 0
          /wFbY29vcF9nX25lYXJd
        >
        <X 30 0
          /wFbbGlnaHRpbmcgKHNpbGhvdWV0dGVzKV0=
        >
        <X 0 0
          /wFbUHJvRmlsbV9hLnBwXQ==
        >
        E 0 80 55 00
        E 0 80 57 00
        <X 2370 0
          /wFbY29vcF9ndl9uZWFyXQ==
        >
        <X 1440 0
          /wFbY29vcF9ndl9uZWFyXQ==
        >
        <X 1920 0
          /wFbY29vcF9iX25lYXJd
        >
        <X 1920 0
          /wFbY29vcF9kX2JlaGluZF0=
        >
        <X 1465 0
          /wFbUHJvRmlsbV9hLnBwXQ==
        >
        E 5 b0 7b 00
        GUID {0CBB8A50-2353-48AC-BC96-872C6AAC93DE}
        IGNTEMPO 0 120.00000000 4 4
        SRCCOLOR 20
        VELLANE 132 128 60
        COLORMAP "C:\Program Files\REAPER (x64)\Data\color_maps\rockband_guitarbass.png"
        CFGEDITVIEW -22293.631403 4.067158 0 48 0 0 0
        CFGEDIT 1 1 0 1 1 0 1 1 1 1 1 0.25000000 -8 -8 1544 872 0 2 1 1 0.00000000 0 1 1 0 0.500000 0 0 1.000000 64
        KEYSNAP 0 6 "102030050700" 0 "Pentatonic"
        EVTFILTER 0 -1 -1 -1 -1 0 1 0 0 -1.00000000 -1.00000000
      >
    >
  >
  <TRACK '{18DDA374-1E51-4B63-A919-3A17AD4D5C20}'
    NAME "CAMERA"
    PEAKCOL 16576
    BEAT -1
    AUTOMODE 0
    VOLPAN 1.00000000000000 0.00000000000000 -1.00000000000000 -1.00000000000000 1.00000000000000
    MUTESOLO 1 0 0
    IPHASE 0
    ISBUS 0 0
    BUSCOMP 0 0
    SHOWINMIX 1 0.666700 0.500000 1 0.500000 -1 -1 -1
    FREEMODE 0
    SEL 0
    REC 0 0 0 0 0 0 0
    VU 2
    TRACKHEIGHT 0 1
    INQ 0 0 0 0.5000000000 100 0 0 100
    NCHAN 2
    FX 1
    TRACKID {18DDA374-1E51-4B63-A919-3A17AD4D5C20}
    PERF 0
    MIDIOUT -1
    MAINSEND 1 0
    <ITEM
      POSITION 0.00000000000000
      SNAPOFFS 0.00000000000000
      LENGTH 276.11399999999998
      LOOP 0
      ALLTAKES 0
      SEL 0
      FADEIN 1 0.000000 0.000000 1 0
      FADEOUT 1 0.000000 0.000000 1 0
      MUTE 0
      IGUID {6F244623-8701-45CF-9396-47A8F57AA29D}
      IID 27
      NAME "CAMERA"
      VOLPAN 1.000000 0.000000 1.000000 -1.000000
      SOFFS 0.00000000000000 0.00000000000000
      PLAYRATE 1.00000000000000 1 0.00000000000000 -1
      CHANMODE 0
      GUID {35D7D0AB-1699-444E-8BBD-A5D5BB27240B}
      <SOURCE MIDI
        HASDATA 1 480 QN
        POOLEDEVTS {092B016F-7226-40F4-9F87-880AEC815FC6}
        E 0 90 63 40
        E 60 80 63 00
        E 5190 90 62 40
        E 60 80 62 00
        E 1890 90 63 40
        E 60 80 63 00
        E 2790 90 56 40
        E 60 80 56 00
        E 1860 90 5d 40
        E 60 80 5d 00
        E 1890 90 63 40
        E 60 80 63 00
        E 1845 90 56 40
        E 60 80 56 00
        E 3765 90 5c 40
        E 60 80 5c 00
        E 930 90 5c 40
        E 60 80 5c 00
        E 3285 90 5c 40
        E 60 80 5c 00
        E 1860 90 63 40
        E 60 80 63 00
        E 3315 90 62 40
        E 60 80 62 00
        E 2790 90 56 40
        E 60 80 56 00
        E 2355 90 63 40
        E 60 80 63 00
        E 1845 90 44 40
        E 30 90 38 40
        E 30 80 44 00
        E 30 80 38 00
        E 2340 90 56 40
        E 60 80 56 00
        E 2820 90 42 40
        E 60 80 42 00
        E 1380 90 5b 40
        E 60 80 5b 00
        E 870 90 5a 40
        E 60 80 5a 00
        E 2340 90 42 40
        E 60 80 42 00
        E 1395 90 5c 40
        E 60 80 5c 00
        E 3300 90 5f 40
        E 60 80 5f 00
        E 915 90 60 40
        E 60 80 60 00
        E 1350 90 60 40
        E 60 80 60 00
        E 1890 90 63 40
        E 60 80 63 00
        E 1860 90 62 40
        E 60 80 62 00
        E 1860 90 5a 40
        E 60 80 5a 00
        E 1365 90 56 40
        E 60 80 56 00
        E 2820 90 63 40
        E 60 80 63 00
        E 1875 90 5a 40
        E 60 80 5a 00
        E 1365 90 50 40
        E 60 80 50 00
        E 1380 90 56 40
        E 60 80 56 00
        E 1860 90 43 40
        E 60 80 43 00
        E 2820 90 43 40
        E 60 80 43 00
        E 1395 90 50 40
        E 60 80 50 00
        E 2340 90 43 40
        E 60 80 43 00
        E 2805 90 42 40
        E 60 80 42 00
        E 2355 90 50 40
        E 60 80 50 00
        E 1365 90 5b 40
        E 60 80 5b 00
        E 1845 90 5a 40
        E 60 80 5a 00
        E 3300 90 5c 40
        E 60 80 5c 00
        E 900 90 50 40
        E 60 80 50 00
        E 930 90 56 40
        E 60 80 56 00
        E 2820 90 57 40
        E 60 80 57 00
        E 3270 90 5b 40
        E 60 80 5b 00
        E 900 90 44 40
        E 60 80 44 00
        E 2850 90 56 40
        E 60 80 56 00
        E 1830 90 62 40
        E 60 80 62 00
        E 915 90 43 40
        E 60 80 43 00
        E 1380 90 50 40
        E 60 80 50 00
        E 2820 90 42 40
        E 60 80 42 00
        E 1380 90 5c 40
        E 60 80 5c 00
        E 1380 90 44 40
        E 60 80 44 00
        E 2340 90 5a 40
        E 60 80 5a 00
        E 900 90 5a 40
        E 60 80 5a 00
        E 1860 90 5a 40
        E 60 80 5a 00
        E 3285 90 58 40
        E 60 80 58 00
        E 900 90 5a 40
        E 60 80 5a 00
        E 2850 90 5f 40
        E 60 80 5f 00
        E 1845 90 56 40
        E 60 80 56 00
        E 1875 90 58 40
        E 60 80 58 00
        E 900 90 21 40
        E 0 90 56 40
        E 60 80 21 00
        E 0 80 56 00
        E 2805 90 5d 40
        E 60 80 5d 00
        E 2805 90 5f 40
        E 60 80 5f 00
        E 900 90 5c 40
        E 60 80 5c 00
        E 1875 90 5c 40
        E 60 80 5c 00
        E 3765 90 5f 40
        E 60 80 5f 00
        E 915 90 64 40
        E 60 80 64 00
        E 1860 90 5c 40
        E 60 80 5c 00
        E 3765 90 5c 40
        E 60 80 5c 00
        E 1875 90 5f 40
        E 60 80 5f 00
        E 1860 90 5c 40
        E 60 80 5c 00
        E 3300 90 5c 40
        E 60 80 5c 00
        E 1395 90 56 40
        E 60 80 56 00
        E 870 90 42 40
        E 60 80 42 00
        E 1380 90 59 40
        E 60 80 59 00
        E 1410 90 58 40
        E 60 80 58 00
        E 1860 90 58 40
        E 60 80 58 00
        E 1860 90 5c 40
        E 60 80 5c 00
        E 900 90 42 40
        E 60 80 42 00
        E 1350 90 45 40
        E 60 80 45 00
        E 930 90 5d 40
        E 60 80 5d 00
        E 1380 90 64 40
        E 60 80 64 00
        E 1860 90 56 40
        E 60 80 56 00
        E 1860 90 50 40
        E 60 80 50 00
        E 2790 90 62 40
        E 60 80 62 00
        E 3330 90 5c 40
        E 60 80 5c 00
        E 1350 90 5f 40
        E 60 80 5f 00
        E 930 90 5a 40
        E 60 80 5a 00
        E 2325 90 43 40
        E 60 80 43 00
        E 1380 90 56 40
        E 60 80 56 00
        E 3765 90 3a 40
        E 60 80 3a 00
        E 1380 90 3b 40
        E 60 80 3b 00
        E 930 90 5a 40
        E 60 80 5a 00
        E 3300 90 5a 40
        E 60 80 5a 00
        E 1830 90 40 40
        E 60 80 40 00
        E 1890 90 5f 40
        E 60 80 5f 00
        E 1350 90 5a 40
        E 60 80 5a 00
        E 1890 90 5f 40
        E 60 80 5f 00
        E 1380 90 58 40
        E 60 80 58 00
        E 870 90 42 40
        E 60 80 42 00
        E 930 90 56 40
        E 60 80 56 00
        E 1350 90 58 40
        E 60 80 58 00
        E 1410 90 57 40
        E 60 80 57 00
        E 3765 90 5f 40
        E 60 80 5f 00
        E 1875 90 5f 40
        E 60 80 5f 00
        E 2805 90 5b 40
        E 60 80 5b 00
        E 900 90 5a 40
        E 60 80 5a 00
        E 3780 90 63 40
        E 60 80 63 00
        E 900 90 5c 40
        E 60 80 5c 00
        E 1860 90 44 40
        E 60 80 44 00
        E 1875 90 54 40
        E 60 80 54 00
        E 3750 90 5f 40
        E 60 80 5f 00
        E 1875 90 55 40
        E 60 80 55 00
        E 1380 90 56 40
        E 60 80 56 00
        E 1875 90 5a 40
        E 60 80 5a 00
        E 1350 90 5a 40
        E 60 80 5a 00
        E 900 90 54 40
        E 60 80 54 00
        E 3795 90 64 40
        E 60 80 64 00
        E 1845 90 64 40
        E 60 80 64 00
        E 2355 90 5c 40
        E 60 80 5c 00
        E 900 90 54 40
        E 60 80 54 00
        E 2835 90 62 40
        E 60 80 62 00
        E 4710 90 5a 40
        E 60 80 5a 00
        E 1395 90 60 40
        E 60 80 60 00
        E 885 90 50 40
        E 60 80 50 00
        E 2835 90 5b 40
        E 60 80 5b 00
        E 1845 90 5c 40
        E 60 80 5c 00
        E 900 90 60 40
        E 60 80 60 00
        E 1860 90 50 40
        E 60 80 50 00
        E 900 90 56 40
        E 60 80 56 00
        E 3315 90 59 40
        E 60 80 59 00
        E 3285 90 50 40
        E 60 80 50 00
        E 900 90 5a 40
        E 60 80 5a 00
        E 3315 90 59 40
        E 60 80 59 00
        E 3795 90 5c 40
        E 60 80 5c 00
        E 3750 90 3f 40
        E 60 80 3f 00
        E 1410 90 5a 40
        E 60 80 5a 00
        E 900 90 5a 40
        E 60 80 5a 00
        E 3780 90 5a 40
        E 60 80 5a 00
        E 2820 90 60 40
        E 60 80 60 00
        E 1350 90 58 40
        E 60 80 58 00
        E 1395 90 54 40
        E 60 80 54 00
        E 900 90 58 40
        E 60 80 58 00
        E 1875 90 41 40
        E 60 80 41 00
        E 3780 90 5a 40
        E 60 80 5a 00
        E 3270 90 62 40
        E 60 80 62 00
        E 1860 90 54 40
        E 60 80 54 00
        E 1875 90 5f 40
        E 60 80 5f 00
        E 1860 90 40 40
        E 60 80 40 00
        E 2325 90 63 40
        E 60 80 63 00
        E 915 90 50 40
        E 60 80 50 00
        E 2820 90 5f 40
        E 60 80 5f 00
        E 3285 90 60 40
        E 60 80 60 00
        E 900 90 5a 40
        E 60 80 5a 00
        E 3315 90 5a 40
        E 60 80 5a 00
        E 1875 90 5b 40
        E 60 80 5b 00
        E 2325 90 50 40
        E 60 80 50 00
        E 2835 90 56 40
        E 60 80 56 00
        E 3780 90 54 40
        E 60 80 54 00
        E 1860 90 63 40
        E 60 80 63 00
        E 1830 90 5f 40
        E 60 80 5f 00
        E 1875 90 60 40
        E 60 80 60 00
        E 1395 90 44 40
        E 60 80 44 00
        E 1830 90 56 40
        E 60 80 56 00
        E 2340 90 42 40
        E 60 80 42 00
        E 1380 90 42 40
        E 60 80 42 00
        E 1860 90 58 40
        E 60 80 58 00
        E 1860 90 5d 40
        E 60 80 5d 00
        GUID {70CC5C24-1CA3-4316-B0FC-FC9971C55C8C}
        IGNTEMPO 0 120.00000000 4 4
        SRCCOLOR 28
        VELLANE 132 128 60
        COLORMAP "C:\Program Files\REAPER (x64)\Data\color_maps\rockband_guitarbass.png"
      >
    >
  >
  <TRACK '{ED5BE7D8-123C-4517-AED1-41E72184D288}'
    NAME "LIGHTING"
    PEAKCOL 16576
    BEAT -1
    AUTOMODE 0
    VOLPAN 1.00000000000000 0.00000000000000 -1.00000000000000 -1.00000000000000 1.00000000000000
    MUTESOLO 1 0 0
    IPHASE 0
    ISBUS 2 -1
    BUSCOMP 0 0
    SHOWINMIX 1 0.666700 0.500000 1 0.500000 -1 -1 -1
    FREEMODE 0
    SEL 0
    REC 0 0 0 0 0 0 0
    VU 2
    TRACKHEIGHT 0 1
    INQ 0 0 0 0.5000000000 100 0 0 100
    NCHAN 2
    FX 1
    TRACKID {ED5BE7D8-123C-4517-AED1-41E72184D288}
    PERF 0
    MIDIOUT -1
    MAINSEND 1 0
    <ITEM
      POSITION 0.00000000000000
      SNAPOFFS 0.00000000000000
      LENGTH 276.11399999999998
      LOOP 0
      ALLTAKES 0
      SEL 0
      FADEIN 1 0.000000 0.000000 1 0
      FADEOUT 1 0.000000 0.000000 1 0
      MUTE 0
      IGUID {FADA4D26-F4D8-4D59-A0FB-5AB29CDA916E}
      IID 28
      NAME "LIGHTING"
      VOLPAN 1.000000 0.000000 1.000000 -1.000000
      SOFFS 0.00000000000000 0.00000000000000
      PLAYRATE 1.00000000000000 1 0.00000000000000 -1
      CHANMODE 0
      GUID {87BA2178-725E-49A1-B72F-280B1D9A8503}
      <SOURCE MIDI
        HASDATA 1 480 QN
        POOLEDEVTS {192C1BEF-E761-4922-80C6-550BDA6EF115}
        E 0 90 47 40
        E 5265 90 1b 40
        E 1 80 47 00
        E 0 90 36 40
        E 30239 80 1b 00
        E 0 80 36 00
        E 960 90 26 40
        E 0 90 2e 40
        E 15 90 1e 40
        E 60 80 1e 00
        E 900 90 1e 40
        E 60 80 1e 00
        E 900 90 1e 40
        E 60 80 1e 00
        E 900 90 1e 40
        E 60 80 1e 00
        E 900 90 1e 40
        E 60 80 1e 00
        E 900 90 1e 40
        E 60 80 1e 00
        E 900 90 1e 40
        E 60 80 1e 00
        E 900 90 1e 40
        E 60 80 1e 00
        E 900 90 1e 40
        E 60 80 1e 00
        E 900 90 1e 40
        E 60 80 1e 00
        E 900 90 1e 40
        E 60 80 1e 00
        E 900 90 1e 40
        E 60 80 1e 00
        E 900 90 1e 40
        E 60 80 1e 00
        E 900 90 1e 40
        E 60 80 1e 00
        E 900 90 1e 40
        E 60 80 1e 00
        E 900 90 1e 40
        E 60 80 1e 00
        E 900 90 1e 40
        E 60 80 1e 00
        E 900 90 1e 40
        E 60 80 1e 00
        E 900 90 1e 40
        E 60 80 1e 00
        E 900 90 1e 40
        E 60 80 1e 00
        E 900 90 1e 40
        E 60 80 1e 00
        E 900 90 1e 40
        E 60 80 1e 00
        E 900 90 1e 40
        E 60 80 1e 00
        E 900 90 1e 40
        E 60 80 1e 00
        E 900 90 1e 40
        E 60 80 1e 00
        E 900 90 1e 40
        E 60 80 1e 00
        E 900 90 1e 40
        E 60 80 1e 00
        E 900 90 1e 40
        E 60 80 1e 00
        E 900 90 1e 40
        E 60 80 1e 00
        E 900 90 1e 40
        E 60 80 1e 00
        E 885 80 26 00
        E 0 80 2e 00
        E 15 90 1e 40
        E 60 80 1e 00
        E 900 90 1e 40
        E 60 80 1e 00
        E 885 90 25 40
        E 0 90 47 40
        E 15 90 1e 40
        E 60 80 1e 00
        E 1860 90 1e 40
        E 60 80 1e 00
        E 1860 90 1e 40
        E 60 80 1e 00
        E 1860 90 1e 40
        E 60 80 1e 00
        E 1860 90 1e 40
        E 60 80 1e 00
        E 1860 90 1e 40
        E 60 80 1e 00
        E 1860 90 1e 40
        E 60 80 1e 00
        E 1860 90 1e 40
        E 60 80 1e 00
        E 1860 90 1e 40
        E 60 80 1e 00
        E 1860 90 1e 40
        E 60 80 1e 00
        E 1860 90 1e 40
        E 60 80 1e 00
        E 1860 90 1e 40
        E 60 80 1e 00
        E 1860 90 1e 40
        E 60 80 1e 00
        E 1860 90 1e 40
        E 60 80 1e 00
        E 1860 90 1e 40
        E 60 80 1e 00
        E 1860 90 1e 40
        E 60 80 1e 00
        E 885 80 25 00
        E 0 80 47 00
        E 960 90 26 40
        E 0 90 2e 40
        E 15 90 1e 40
        E 60 80 1e 00
        E 900 90 1e 40
        E 60 80 1e 00
        E 900 90 1e 40
        E 60 80 1e 00
        E 900 90 1e 40
        E 60 80 1e 00
        E 900 90 1e 40
        E 60 80 1e 00
        E 900 90 1e 40
        E 60 80 1e 00
        E 900 90 1e 40
        E 60 80 1e 00
        E 900 90 1e 40
        E 60 80 1e 00
        E 900 90 1e 40
        E 60 80 1e 00
        E 900 90 1e 40
        E 60 80 1e 00
        E 900 90 1e 40
        E 60 80 1e 00
        E 900 90 1e 40
        E 60 80 1e 00
        E 900 90 1e 40
        E 60 80 1e 00
        E 900 90 1e 40
        E 60 80 1e 00
        E 900 90 1e 40
        E 60 80 1e 00
        E 900 90 1e 40
        E 60 80 1e 00
        E 900 90 1e 40
        E 60 80 1e 00
        E 900 90 1e 40
        E 60 80 1e 00
        E 900 90 1e 40
        E 60 80 1e 00
        E 900 90 1e 40
        E 60 80 1e 00
        E 900 90 1e 40
        E 60 80 1e 00
        E 900 90 1e 40
        E 60 80 1e 00
        E 900 90 1e 40
        E 60 80 1e 00
        E 900 90 1e 40
        E 60 80 1e 00
        E 900 90 1e 40
        E 60 80 1e 00
        E 900 90 1e 40
        E 60 80 1e 00
        E 900 90 1e 40
        E 60 80 1e 00
        E 900 90 1e 40
        E 60 80 1e 00
        E 900 90 1e 40
        E 60 80 1e 00
        E 900 90 1e 40
        E 60 80 1e 00
        E 885 80 26 00
        E 0 80 2e 00
        E 15 90 1e 40
        E 60 80 1e 00
        E 900 90 1e 40
        E 60 80 1e 00
        E 885 90 15 40
        E 0 90 47 40
        E 28800 80 15 00
        E 0 80 47 00
        E 1920 90 25 40
        E 0 90 47 40
        E 15 90 1e 40
        E 60 80 1e 00
        E 1860 90 1e 40
        E 60 80 1e 00
        E 1860 90 1e 40
        E 60 80 1e 00
        E 1860 90 1e 40
        E 60 80 1e 00
        E 1860 90 1e 40
        E 60 80 1e 00
        E 1860 90 1e 40
        E 60 80 1e 00
        E 1860 90 1e 40
        E 60 80 1e 00
        E 1860 90 1e 40
        E 60 80 1e 00
        E 1860 90 1e 40
        E 60 80 1e 00
        E 1860 90 1e 40
        E 60 80 1e 00
        E 1860 90 1e 40
        E 60 80 1e 00
        E 1860 90 1e 40
        E 60 80 1e 00
        E 1860 90 1e 40
        E 60 80 1e 00
        E 1860 90 1e 40
        E 60 80 1e 00
        E 1860 90 1e 40
        E 60 80 1e 00
        E 1845 80 25 00
        E 0 80 47 00
        E 15 90 1e 40
        E 60 80 1e 00
        E 1845 90 15 40
        E 0 90 2a 40
        E 59520 80 15 00
        E 0 80 2a 00
        E 1920 90 25 40
        E 0 90 47 40
        E 15 90 1e 40
        E 60 80 1e 00
        E 1860 90 1e 40
        E 60 80 1e 00
        E 1860 90 1e 40
        E 60 80 1e 00
        E 1860 90 1e 40
        E 60 80 1e 00
        E 1860 90 1e 40
        E 60 80 1e 00
        E 1860 90 1e 40
        E 60 80 1e 00
        E 1860 90 1e 40
        E 60 80 1e 00
        E 1860 90 1e 40
        E 60 80 1e 00
        E 1860 90 1e 40
        E 60 80 1e 00
        E 1860 90 1e 40
        E 60 80 1e 00
        E 1860 90 1e 40
        E 60 80 1e 00
        E 1860 90 1e 40
        E 60 80 1e 00
        E 1860 90 1e 40
        E 60 80 1e 00
        E 1860 90 1e 40
        E 60 80 1e 00
        E 1860 90 1e 40
        E 60 80 1e 00
        E 1860 90 1e 40
        E 60 80 1e 00
        E 1860 90 1e 40
        E 60 80 1e 00
        E 1860 90 1e 40
        E 60 80 1e 00
        E 405 80 25 00
        E 0 80 47 00
        E 1455 90 1e 40
        E 60 80 1e 00
        E 405 90 15 40
        E 0 90 47 40
        E 29760 80 15 00
        E 0 80 47 00
        E 960 90 23 40
        E 0 90 34 40
        E 15 90 1e 40
        E 60 80 1e 00
        E 900 90 1e 40
        E 60 80 1e 00
        E 900 90 1e 40
        E 60 80 1e 00
        E 900 90 1e 40
        E 60 80 1e 00
        E 900 90 1e 40
        E 60 80 1e 00
        E 900 90 1e 40
        E 60 80 1e 00
        E 900 90 1e 40
        E 60 80 1e 00
        E 900 90 1e 40
        E 60 80 1e 00
        E 900 90 1e 40
        E 60 80 1e 00
        E 900 90 1e 40
        E 60 80 1e 00
        E 900 90 1e 40
        E 60 80 1e 00
        E 900 90 1e 40
        E 60 80 1e 00
        E 900 90 1e 40
        E 60 80 1e 00
        E 900 90 1e 40
        E 60 80 1e 00
        E 900 90 1e 40
        E 60 80 1e 00
        E 900 90 1e 40
        E 60 80 1e 00
        E 900 90 1e 40
        E 60 80 1e 00
        E 900 90 1e 40
        E 60 80 1e 00
        E 900 90 1e 40
        E 60 80 1e 00
        E 900 90 1e 40
        E 60 80 1e 00
        E 900 90 1e 40
        E 60 80 1e 00
        E 900 90 1e 40
        E 60 80 1e 00
        E 900 90 1e 40
        E 60 80 1e 00
        E 900 90 1e 40
        E 60 80 1e 00
        E 900 90 1e 40
        E 60 80 1e 00
        E 900 90 1e 40
        E 60 80 1e 00
        E 900 90 1e 40
        E 60 80 1e 00
        E 900 90 1e 40
        E 60 80 1e 00
        E 900 90 1e 40
        E 60 80 1e 00
        E 900 90 1e 40
        E 60 80 1e 00
        E 900 90 1e 40
        E 60 80 1e 00
        E 420 80 23 00
        E 0 90 18 40
        E 0 80 34 00
        E 0 90 47 40
        E 60 80 18 00
        E 9055 80 47 00
        GUID {9719BF0C-E76C-40DA-ACE3-3C76218605D5}
        IGNTEMPO 0 120.00000000 4 4
        SRCCOLOR 29
        VELLANE 132 128 60
        COLORMAP "C:\Program Files\REAPER (x64)\Data\color_maps\rockband_guitarbass.png"
        CFGEDITVIEW -22293.631403 4.067158 61 12 0 0 0
        CFGEDIT 1 1 0 1 1 0 1 1 1 1 1 0.25000000 -8 -8 1544 872 0 0 1 1 0.00000000 0 1 1 0 0.500000 0 0 1.000000 64
        KEYSNAP 0 6 "102030050700" 0 "Pentatonic"
        EVTFILTER 0 -1 -1 -1 -1 0 1 0 0 -1.00000000 -1.00000000
      >
    >
  >
  <TRACK '{063C2D75-C30A-42BE-ABF1-9B23ECF9C520}'
    NAME "BEAT"
    PEAKCOL 16576
    BEAT -1
    AUTOMODE 0
    VOLPAN 1.00000000000000 0.00000000000000 -1.00000000000000 -1.00000000000000 1.00000000000000
    MUTESOLO 0 0 0
    IPHASE 0
    ISBUS 0 0
    BUSCOMP 0 0
    SHOWINMIX 1 0.666700 0.500000 1 0.500000 -1 -1 -1
    FREEMODE 0
    SEL 0
    REC 0 0 0 0 0 0 0
    VU 2
    TRACKHEIGHT 0 0
    INQ 0 0 0 0.5000000000 100 0 0 100
    NCHAN 2
    FX 1
    TRACKID {063C2D75-C30A-42BE-ABF1-9B23ECF9C520}
    PERF 0
    MIDIOUT -1
    <MIDINOTENAMES
      0 13 "Up Beats"
      0 12 "Downbeat"
    >
    MAINSEND 1 0
    <FXCHAIN
      SHOW 0
      LASTSEL 0
      DOCKED 0
    >
    <ITEM
      POSITION 0.00000000000000
      SNAPOFFS 0.00000000000000
      LENGTH 276.11399999999998
      LOOP 0
      ALLTAKES 0
      SEL 0
      FADEIN 1 0.000000 0.000000 1 0
      FADEOUT 1 0.000000 0.000000 1 0
      MUTE 0
      IGUID {60DB202E-2936-4C4C-B52B-8515F5B10FCB}
      IID 19
      NAME "BEAT"
      VOLPAN 1.000000 0.000000 1.000000 -1.000000
      SOFFS 0.00000000000000 0.00000000000000
      PLAYRATE 1.00000000000000 1 0.00000000000000 -1
      CHANMODE 0
      GUID {C59993CB-948D-4E94-9411-49507409C1C3}
      <SOURCE MIDI
        HASDATA 1 480 QN
        POOLEDEVTS {0A15D397-9BC4-4A2B-B454-DD5626FF72FB}
        <X 0 0
          /wNCRUFU
        >
        E 0 96 0c 64
        E 120 86 0c 00
        E 360 96 0d 64
        E 120 86 0d 00
        E 360 96 0d 64
        E 120 86 0d 00
        E 360 96 0d 64
        E 120 86 0d 00
        E 360 96 0c 64
        E 120 86 0c 00
        E 360 96 0d 64
        E 120 86 0d 00
        E 360 96 0d 64
        E 120 86 0d 00
        E 360 96 0d 64
        E 120 86 0d 00
        E 360 96 0c 64
        E 120 86 0c 00
        E 360 96 0d 64
        E 120 86 0d 00
        E 360 96 0d 64
        E 120 86 0d 00
        E 360 96 0d 64
        E 120 86 0d 00
        E 360 96 0c 64
        E 120 86 0c 00
        E 360 96 0d 64
        E 120 86 0d 00
        E 360 96 0d 64
        E 120 86 0d 00
        E 360 96 0d 64
        E 120 86 0d 00
        E 360 96 0c 64
        E 120 86 0c 00
        E 360 96 0d 64
        E 120 86 0d 00
        E 360 96 0d 64
        E 120 86 0d 00
        E 360 96 0d 64
        E 120 86 0d 00
        E 360 96 0c 64
        E 120 86 0c 00
        E 360 96 0d 64
        E 120 86 0d 00
        E 360 96 0d 64
        E 120 86 0d 00
        E 360 96 0d 64
        E 120 86 0d 00
        E 360 96 0c 64
        E 120 86 0c 00
        E 360 96 0d 64
        E 120 86 0d 00
        E 360 96 0d 64
        E 120 86 0d 00
        E 360 96 0d 64
        E 120 86 0d 00
        E 360 96 0c 64
        E 120 86 0c 00
        E 360 96 0d 64
        E 120 86 0d 00
        E 360 96 0d 64
        E 120 86 0d 00
        E 360 96 0d 64
        E 120 86 0d 00
        E 360 96 0c 64
        E 120 86 0c 00
        E 360 96 0d 64
        E 120 86 0d 00
        E 360 96 0d 64
        E 120 86 0d 00
        E 360 96 0d 64
        E 120 86 0d 00
        E 360 96 0c 64
        E 120 86 0c 00
        E 360 96 0d 64
        E 120 86 0d 00
        E 360 96 0d 64
        E 120 86 0d 00
        E 360 96 0d 64
        E 120 86 0d 00
        E 360 96 0c 64
        E 120 86 0c 00
        E 360 96 0d 64
        E 120 86 0d 00
        E 360 96 0d 64
        E 120 86 0d 00
        E 360 96 0d 64
        E 120 86 0d 00
        E 360 96 0c 64
        E 120 86 0c 00
        E 360 96 0d 64
        E 120 86 0d 00
        E 360 96 0d 64
        E 120 86 0d 00
        E 360 96 0d 64
        E 120 86 0d 00
        E 360 96 0c 64
        E 120 86 0c 00
        E 360 96 0d 64
        E 120 86 0d 00
        E 360 96 0d 64
        E 120 86 0d 00
        E 360 96 0d 64
        E 120 86 0d 00
        E 360 96 0c 64
        E 120 86 0c 00
        E 360 96 0d 64
        E 120 86 0d 00
        E 360 96 0d 64
        E 120 86 0d 00
        E 360 96 0d 64
        E 120 86 0d 00
        E 360 96 0c 64
        E 120 86 0c 00
        E 360 96 0d 64
        E 120 86 0d 00
        E 360 96 0d 64
        E 120 86 0d 00
        E 360 96 0d 64
        E 120 86 0d 00
        E 360 96 0c 64
        E 120 86 0c 00
        E 360 96 0d 64
        E 120 86 0d 00
        E 360 96 0d 64
        E 120 86 0d 00
        E 360 96 0d 64
        E 120 86 0d 00
        E 360 96 0c 64
        E 120 86 0c 00
        E 360 96 0d 64
        E 120 86 0d 00
        E 360 96 0d 64
        E 120 86 0d 00
        E 360 96 0d 64
        E 120 86 0d 00
        E 360 96 0c 64
        E 120 86 0c 00
        E 360 96 0d 64
        E 120 86 0d 00
        E 360 96 0d 64
        E 120 86 0d 00
        E 360 96 0d 64
        E 120 86 0d 00
        E 360 96 0c 64
        E 120 86 0c 00
        E 360 96 0d 64
        E 120 86 0d 00
        E 360 96 0d 64
        E 120 86 0d 00
        E 360 96 0d 64
        E 120 86 0d 00
        E 360 96 0c 64
        E 120 86 0c 00
        E 360 96 0d 64
        E 120 86 0d 00
        E 360 96 0d 64
        E 120 86 0d 00
        E 360 96 0d 64
        E 120 86 0d 00
        E 360 96 0c 64
        E 120 86 0c 00
        E 360 96 0d 64
        E 120 86 0d 00
        E 360 96 0d 64
        E 120 86 0d 00
        E 360 96 0d 64
        E 120 86 0d 00
        E 360 96 0c 64
        E 120 86 0c 00
        E 360 96 0d 64
        E 120 86 0d 00
        E 360 96 0d 64
        E 120 86 0d 00
        E 360 96 0d 64
        E 120 86 0d 00
        E 360 96 0c 64
        E 120 86 0c 00
        E 360 96 0d 64
        E 120 86 0d 00
        E 360 96 0d 64
        E 120 86 0d 00
        E 360 96 0d 64
        E 120 86 0d 00
        E 360 96 0c 64
        E 120 86 0c 00
        E 360 96 0d 64
        E 120 86 0d 00
        E 360 96 0d 64
        E 120 86 0d 00
        E 360 96 0d 64
        E 120 86 0d 00
        E 360 96 0c 64
        E 120 86 0c 00
        E 360 96 0d 64
        E 120 86 0d 00
        E 360 96 0d 64
        E 120 86 0d 00
        E 360 96 0d 64
        E 120 86 0d 00
        E 360 96 0c 64
        E 120 86 0c 00
        E 360 96 0d 64
        E 120 86 0d 00
        E 360 96 0d 64
        E 120 86 0d 00
        E 360 96 0d 64
        E 120 86 0d 00
        E 360 96 0c 64
        E 120 86 0c 00
        E 360 96 0d 64
        E 120 86 0d 00
        E 360 96 0d 64
        E 120 86 0d 00
        E 360 96 0d 64
        E 120 86 0d 00
        E 360 96 0c 64
        E 120 86 0c 00
        E 360 96 0d 64
        E 120 86 0d 00
        E 360 96 0d 64
        E 120 86 0d 00
        E 360 96 0d 64
        E 120 86 0d 00
        E 360 96 0c 64
        E 120 86 0c 00
        E 360 96 0d 64
        E 120 86 0d 00
        E 360 96 0d 64
        E 120 86 0d 00
        E 360 96 0d 64
        E 120 86 0d 00
        E 360 96 0c 64
        E 120 86 0c 00
        E 360 96 0d 64
        E 120 86 0d 00
        E 360 96 0d 64
        E 120 86 0d 00
        E 360 96 0d 64
        E 120 86 0d 00
        E 360 96 0c 64
        E 120 86 0c 00
        E 360 96 0d 64
        E 120 86 0d 00
        E 360 96 0d 64
        E 120 86 0d 00
        E 360 96 0d 64
        E 120 86 0d 00
        E 360 96 0c 64
        E 120 86 0c 00
        E 360 96 0d 64
        E 120 86 0d 00
        E 360 96 0d 64
        E 120 86 0d 00
        E 360 96 0d 64
        E 120 86 0d 00
        E 360 96 0c 64
        E 120 86 0c 00
        E 360 96 0d 64
        E 120 86 0d 00
        E 360 96 0d 64
        E 120 86 0d 00
        E 360 96 0d 64
        E 120 86 0d 00
        E 360 96 0c 64
        E 120 86 0c 00
        E 360 96 0d 64
        E 120 86 0d 00
        E 360 96 0d 64
        E 120 86 0d 00
        E 360 96 0d 64
        E 120 86 0d 00
        E 360 96 0c 64
        E 120 86 0c 00
        E 360 96 0d 64
        E 120 86 0d 00
        E 360 96 0d 64
        E 120 86 0d 00
        E 360 96 0d 64
        E 120 86 0d 00
        E 360 96 0c 64
        E 120 86 0c 00
        E 360 96 0d 64
        E 120 86 0d 00
        E 360 96 0d 64
        E 120 86 0d 00
        E 360 96 0d 64
        E 120 86 0d 00
        E 360 96 0c 64
        E 120 86 0c 00
        E 360 96 0d 64
        E 120 86 0d 00
        E 360 96 0d 64
        E 120 86 0d 00
        E 360 96 0d 64
        E 120 86 0d 00
        E 360 96 0c 64
        E 120 86 0c 00
        E 360 96 0d 64
        E 120 86 0d 00
        E 360 96 0d 64
        E 120 86 0d 00
        E 360 96 0d 64
        E 120 86 0d 00
        E 360 96 0c 64
        E 120 86 0c 00
        E 360 96 0d 64
        E 120 86 0d 00
        E 360 96 0d 64
        E 120 86 0d 00
        E 360 96 0d 64
        E 120 86 0d 00
        E 360 96 0c 64
        E 120 86 0c 00
        E 360 96 0d 64
        E 120 86 0d 00
        E 360 96 0d 64
        E 120 86 0d 00
        E 360 96 0d 64
        E 120 86 0d 00
        E 360 96 0c 64
        E 120 86 0c 00
        E 360 96 0d 64
        E 120 86 0d 00
        E 360 96 0d 64
        E 120 86 0d 00
        E 360 96 0d 64
        E 120 86 0d 00
        E 360 96 0c 64
        E 120 86 0c 00
        E 360 96 0d 64
        E 120 86 0d 00
        E 360 96 0d 64
        E 120 86 0d 00
        E 360 96 0d 64
        E 120 86 0d 00
        E 360 96 0c 64
        E 120 86 0c 00
        E 360 96 0d 64
        E 120 86 0d 00
        E 360 96 0d 64
        E 120 86 0d 00
        E 360 96 0d 64
        E 120 86 0d 00
        E 360 96 0c 64
        E 120 86 0c 00
        E 360 96 0d 64
        E 120 86 0d 00
        E 360 96 0d 64
        E 120 86 0d 00
        E 360 96 0d 64
        E 120 86 0d 00
        E 360 96 0c 64
        E 120 86 0c 00
        E 360 96 0d 64
        E 120 86 0d 00
        E 360 96 0d 64
        E 120 86 0d 00
        E 360 96 0d 64
        E 120 86 0d 00
        E 360 96 0c 64
        E 120 86 0c 00
        E 360 96 0d 64
        E 120 86 0d 00
        E 360 96 0d 64
        E 120 86 0d 00
        E 360 96 0d 64
        E 120 86 0d 00
        E 360 96 0c 64
        E 120 86 0c 00
        E 360 96 0d 64
        E 120 86 0d 00
        E 360 96 0d 64
        E 120 86 0d 00
        E 360 96 0d 64
        E 120 86 0d 00
        E 360 96 0c 64
        E 120 86 0c 00
        E 360 96 0d 64
        E 120 86 0d 00
        E 360 96 0d 64
        E 120 86 0d 00
        E 360 96 0d 64
        E 120 86 0d 00
        E 360 96 0c 64
        E 120 86 0c 00
        E 360 96 0d 64
        E 120 86 0d 00
        E 360 96 0d 64
        E 120 86 0d 00
        E 360 96 0d 64
        E 120 86 0d 00
        E 360 96 0c 64
        E 120 86 0c 00
        E 360 96 0d 64
        E 120 86 0d 00
        E 360 96 0d 64
        E 120 86 0d 00
        E 360 96 0d 64
        E 120 86 0d 00
        E 360 96 0c 64
        E 120 86 0c 00
        E 360 96 0d 64
        E 120 86 0d 00
        E 360 96 0d 64
        E 120 86 0d 00
        E 360 96 0d 64
        E 120 86 0d 00
        E 360 96 0c 64
        E 120 86 0c 00
        E 360 96 0d 64
        E 120 86 0d 00
        E 360 96 0d 64
        E 120 86 0d 00
        E 360 96 0d 64
        E 120 86 0d 00
        E 360 96 0c 64
        E 120 86 0c 00
        E 360 96 0d 64
        E 120 86 0d 00
        E 360 96 0d 64
        E 120 86 0d 00
        E 360 96 0d 64
        E 120 86 0d 00
        E 360 96 0c 64
        E 120 86 0c 00
        E 360 96 0d 64
        E 120 86 0d 00
        E 360 96 0d 64
        E 120 86 0d 00
        E 360 96 0d 64
        E 120 86 0d 00
        E 360 96 0c 64
        E 120 86 0c 00
        E 360 96 0d 64
        E 120 86 0d 00
        E 360 96 0d 64
        E 120 86 0d 00
        E 360 96 0d 64
        E 120 86 0d 00
        E 360 96 0c 64
        E 120 86 0c 00
        E 360 96 0d 64
        E 120 86 0d 00
        E 360 96 0d 64
        E 120 86 0d 00
        E 360 96 0d 64
        E 120 86 0d 00
        E 360 96 0c 64
        E 120 86 0c 00
        E 360 96 0d 64
        E 120 86 0d 00
        E 360 96 0d 64
        E 120 86 0d 00
        E 360 96 0d 64
        E 120 86 0d 00
        E 360 96 0c 64
        E 120 86 0c 00
        E 360 96 0d 64
        E 120 86 0d 00
        E 360 96 0d 64
        E 120 86 0d 00
        E 360 96 0d 64
        E 120 86 0d 00
        E 360 96 0c 64
        E 120 86 0c 00
        E 360 96 0d 64
        E 120 86 0d 00
        E 360 96 0d 64
        E 120 86 0d 00
        E 360 96 0d 64
        E 120 86 0d 00
        E 360 96 0c 64
        E 120 86 0c 00
        E 360 96 0d 64
        E 120 86 0d 00
        E 360 96 0d 64
        E 120 86 0d 00
        E 360 96 0d 64
        E 120 86 0d 00
        E 360 96 0c 64
        E 120 86 0c 00
        E 360 96 0d 64
        E 120 86 0d 00
        E 360 96 0d 64
        E 120 86 0d 00
        E 360 96 0d 64
        E 120 86 0d 00
        E 360 96 0c 64
        E 120 86 0c 00
        E 360 96 0d 64
        E 120 86 0d 00
        E 360 96 0d 64
        E 120 86 0d 00
        E 360 96 0d 64
        E 120 86 0d 00
        E 360 96 0c 64
        E 120 86 0c 00
        E 360 96 0d 64
        E 120 86 0d 00
        E 360 96 0d 64
        E 120 86 0d 00
        E 360 96 0d 64
        E 120 86 0d 00
        E 360 96 0c 64
        E 120 86 0c 00
        E 360 96 0d 64
        E 120 86 0d 00
        E 360 96 0d 64
        E 120 86 0d 00
        E 360 96 0d 64
        E 120 86 0d 00
        E 360 96 0c 64
        E 120 86 0c 00
        E 360 96 0d 64
        E 120 86 0d 00
        E 360 96 0d 64
        E 120 86 0d 00
        E 360 96 0d 64
        E 120 86 0d 00
        E 360 96 0c 64
        E 120 86 0c 00
        E 360 96 0d 64
        E 120 86 0d 00
        E 360 96 0d 64
        E 120 86 0d 00
        E 360 96 0d 64
        E 120 86 0d 00
        E 360 96 0c 64
        E 120 86 0c 00
        E 360 96 0d 64
        E 120 86 0d 00
        E 360 96 0d 64
        E 120 86 0d 00
        E 360 96 0d 64
        E 120 86 0d 00
        E 360 96 0c 64
        E 120 86 0c 00
        E 360 96 0d 64
        E 120 86 0d 00
        E 360 96 0d 64
        E 120 86 0d 00
        E 360 96 0d 64
        E 120 86 0d 00
        E 360 96 0c 64
        E 120 86 0c 00
        E 360 96 0d 64
        E 120 86 0d 00
        E 360 96 0d 64
        E 120 86 0d 00
        E 360 96 0d 64
        E 120 86 0d 00
        E 360 96 0c 64
        E 120 86 0c 00
        E 360 96 0d 64
        E 120 86 0d 00
        E 360 96 0d 64
        E 120 86 0d 00
        E 360 96 0d 64
        E 120 86 0d 00
        E 360 96 0c 64
        E 120 86 0c 00
        E 360 96 0d 64
        E 120 86 0d 00
        E 360 96 0d 64
        E 120 86 0d 00
        E 360 96 0d 64
        E 120 86 0d 00
        E 360 96 0c 64
        E 120 86 0c 00
        E 360 96 0d 64
        E 120 86 0d 00
        E 360 96 0d 64
        E 120 86 0d 00
        E 360 96 0d 64
        E 120 86 0d 00
        E 360 96 0c 64
        E 120 86 0c 00
        E 360 96 0d 64
        E 120 86 0d 00
        E 360 96 0d 64
        E 120 86 0d 00
        E 360 96 0d 64
        E 120 86 0d 00
        E 360 96 0c 64
        E 120 86 0c 00
        E 360 96 0d 64
        E 120 86 0d 00
        E 360 96 0d 64
        E 120 86 0d 00
        E 360 96 0d 64
        E 120 86 0d 00
        E 360 96 0c 64
        E 120 86 0c 00
        E 360 96 0d 64
        E 120 86 0d 00
        E 360 96 0d 64
        E 120 86 0d 00
        E 360 96 0d 64
        E 120 86 0d 00
        E 360 96 0c 64
        E 120 86 0c 00
        E 360 96 0d 64
        E 120 86 0d 00
        E 360 96 0d 64
        E 120 86 0d 00
        E 360 96 0d 64
        E 120 86 0d 00
        E 360 96 0c 64
        E 120 86 0c 00
        E 360 96 0d 64
        E 120 86 0d 00
        E 360 96 0d 64
        E 120 86 0d 00
        E 360 96 0d 64
        E 120 86 0d 00
        E 360 96 0c 64
        E 120 86 0c 00
        E 360 96 0d 64
        E 120 86 0d 00
        E 360 96 0d 64
        E 120 86 0d 00
        E 360 96 0d 64
        E 120 86 0d 00
        E 360 96 0c 64
        E 120 86 0c 00
        E 360 96 0d 64
        E 120 86 0d 00
        E 360 96 0d 64
        E 120 86 0d 00
        E 360 96 0d 64
        E 120 86 0d 00
        E 360 96 0c 64
        E 120 86 0c 00
        E 360 96 0d 64
        E 120 86 0d 00
        E 360 96 0d 64
        E 120 86 0d 00
        E 360 96 0d 64
        E 120 86 0d 00
        E 360 96 0c 64
        E 120 86 0c 00
        E 360 96 0d 64
        E 120 86 0d 00
        E 360 96 0d 64
        E 120 86 0d 00
        E 360 96 0d 64
        E 120 86 0d 00
        E 360 96 0c 64
        E 120 86 0c 00
        E 360 96 0d 64
        E 120 86 0d 00
        E 360 96 0d 64
        E 120 86 0d 00
        E 360 96 0d 64
        E 120 86 0d 00
        E 360 96 0c 64
        E 120 86 0c 00
        E 360 96 0d 64
        E 120 86 0d 00
        E 360 96 0d 64
        E 120 86 0d 00
        E 360 96 0d 64
        E 120 86 0d 00
        E 360 96 0c 64
        E 120 86 0c 00
        E 360 96 0d 64
        E 120 86 0d 00
        E 360 96 0d 64
        E 120 86 0d 00
        E 360 96 0d 64
        E 120 86 0d 00
        E 360 96 0c 64
        E 120 86 0c 00
        E 360 96 0d 64
        E 120 86 0d 00
        E 360 96 0d 64
        E 120 86 0d 00
        E 360 96 0d 64
        E 120 86 0d 00
        E 360 96 0c 64
        E 120 86 0c 00
        E 360 96 0d 64
        E 120 86 0d 00
        E 360 96 0d 64
        E 120 86 0d 00
        E 360 96 0d 64
        E 120 86 0d 00
        E 360 96 0c 64
        E 120 86 0c 00
        E 360 96 0d 64
        E 120 86 0d 00
        E 360 96 0d 64
        E 120 86 0d 00
        E 360 96 0d 64
        E 120 86 0d 00
        E 360 96 0c 64
        E 120 86 0c 00
        E 360 96 0d 64
        E 120 86 0d 00
        E 360 96 0d 64
        E 120 86 0d 00
        E 360 96 0d 64
        E 120 86 0d 00
        E 360 96 0c 64
        E 120 86 0c 00
        E 360 96 0d 64
        E 120 86 0d 00
        E 360 96 0d 64
        E 120 86 0d 00
        E 360 96 0d 64
        E 120 86 0d 00
        E 360 96 0c 64
        E 120 86 0c 00
        E 360 96 0d 64
        E 120 86 0d 00
        E 360 96 0d 64
        E 120 86 0d 00
        E 360 96 0d 64
        E 120 86 0d 00
        E 360 96 0c 64
        E 120 86 0c 00
        E 360 96 0d 64
        E 120 86 0d 00
        E 360 96 0d 64
        E 120 86 0d 00
        E 360 96 0d 64
        E 120 86 0d 00
        E 360 96 0c 64
        E 120 86 0c 00
        E 360 96 0d 64
        E 120 86 0d 00
        E 360 96 0d 64
        E 120 86 0d 00
        E 360 96 0d 64
        E 120 86 0d 00
        E 360 96 0c 64
        E 120 86 0c 00
        E 360 96 0d 64
        E 120 86 0d 00
        E 360 96 0d 64
        E 120 86 0d 00
        E 360 96 0d 64
        E 120 86 0d 00
        E 360 96 0c 64
        E 120 86 0c 00
        E 360 96 0d 64
        E 120 86 0d 00
        E 360 96 0d 64
        E 120 86 0d 00
        E 360 96 0d 64
        E 120 86 0d 00
        E 360 96 0c 64
        E 120 86 0c 00
        E 360 96 0d 64
        E 120 86 0d 00
        E 360 96 0d 64
        E 120 86 0d 00
        E 360 96 0d 64
        E 120 86 0d 00
        E 360 96 0c 64
        E 120 86 0c 00
        E 360 96 0d 64
        E 120 86 0d 00
        E 360 96 0d 64
        E 120 86 0d 00
        E 360 96 0d 64
        E 120 86 0d 00
        E 360 96 0c 64
        E 120 86 0c 00
        E 360 96 0d 64
        E 120 86 0d 00
        E 360 96 0d 64
        E 120 86 0d 00
        E 360 96 0d 64
        E 120 86 0d 00
        E 360 96 0c 64
        E 120 86 0c 00
        E 360 96 0d 64
        E 120 86 0d 00
        E 360 96 0d 64
        E 120 86 0d 00
        E 360 96 0d 64
        E 120 86 0d 00
        E 360 96 0c 64
        E 120 86 0c 00
        E 360 96 0d 64
        E 120 86 0d 00
        E 360 96 0d 64
        E 120 86 0d 00
        E 360 96 0d 64
        E 120 86 0d 00
        E 360 96 0c 64
        E 120 86 0c 00
        E 360 96 0d 64
        E 120 86 0d 00
        E 360 96 0d 64
        E 120 86 0d 00
        E 360 96 0d 64
        E 120 86 0d 00
        E 360 96 0c 64
        E 120 86 0c 00
        E 360 96 0d 64
        E 120 86 0d 00
        E 360 96 0d 64
        E 120 86 0d 00
        E 360 96 0d 64
        E 120 86 0d 00
        E 360 96 0c 64
        E 120 86 0c 00
        E 360 96 0d 64
        E 120 86 0d 00
        E 360 96 0d 64
        E 120 86 0d 00
        E 360 96 0d 64
        E 120 86 0d 00
        E 360 96 0c 64
        E 120 86 0c 00
        E 360 96 0d 64
        E 120 86 0d 00
        E 360 96 0d 64
        E 120 86 0d 00
        E 360 96 0d 64
        E 120 86 0d 00
        E 360 96 0c 64
        E 120 86 0c 00
        E 360 96 0d 64
        E 120 86 0d 00
        E 360 96 0d 64
        E 120 86 0d 00
        E 360 96 0d 64
        E 120 86 0d 00
        E 360 96 0c 64
        E 120 86 0c 00
        E 360 96 0d 64
        E 120 86 0d 00
        E 360 96 0d 64
        E 120 86 0d 00
        E 360 96 0d 64
        E 120 86 0d 00
        E 360 96 0c 64
        E 120 86 0c 00
        E 360 96 0d 64
        E 120 86 0d 00
        E 360 96 0d 64
        E 120 86 0d 00
        E 360 96 0d 64
        E 120 86 0d 00
        E 360 96 0c 64
        E 120 86 0c 00
        E 360 96 0d 64
        E 120 86 0d 00
        E 360 96 0d 64
        E 120 86 0d 00
        E 360 96 0d 64
        E 120 86 0d 00
        E 360 96 0c 64
        E 120 86 0c 00
        E 360 96 0d 64
        E 120 86 0d 00
        E 360 96 0d 64
        E 120 86 0d 00
        E 360 96 0d 64
        E 120 86 0d 00
        E 360 96 0c 64
        E 120 86 0c 00
        E 360 96 0d 64
        E 120 86 0d 00
        E 360 96 0d 64
        E 120 86 0d 00
        E 360 96 0d 64
        E 120 86 0d 00
        E 360 96 0c 64
        E 120 86 0c 00
        E 360 96 0d 64
        E 120 86 0d 00
        E 360 96 0d 64
        E 120 86 0d 00
        E 360 96 0d 64
        E 120 86 0d 00
        E 360 96 0c 64
        E 120 86 0c 00
        E 360 96 0d 64
        E 120 86 0d 00
        E 360 96 0d 64
        E 120 86 0d 00
        E 360 96 0d 64
        E 120 86 0d 00
        E 360 96 0c 64
        E 120 86 0c 00
        E 360 96 0d 64
        E 120 86 0d 00
        E 360 96 0d 64
        E 120 86 0d 00
        E 360 96 0d 64
        E 120 86 0d 00
        E 360 96 0c 64
        E 120 86 0c 00
        E 360 96 0d 64
        E 120 86 0d 00
        E 360 96 0d 64
        E 120 86 0d 00
        E 360 96 0d 64
        E 120 86 0d 00
        E 360 96 0c 64
        E 120 86 0c 00
        E 360 96 0d 64
        E 120 86 0d 00
        E 360 96 0d 64
        E 120 86 0d 00
        E 360 96 0d 64
        E 120 86 0d 00
        E 360 96 0c 64
        E 120 86 0c 00
        E 360 96 0d 64
        E 120 86 0d 00
        E 360 96 0d 64
        E 120 86 0d 00
        E 360 96 0d 64
        E 120 86 0d 00
        E 360 96 0c 64
        E 120 86 0c 00
        E 360 96 0d 64
        E 120 86 0d 00
        E 360 96 0d 64
        E 120 86 0d 00
        E 360 96 0d 64
        E 120 86 0d 00
        E 360 96 0c 64
        E 120 86 0c 00
        E 360 96 0d 64
        E 120 86 0d 00
        E 360 96 0d 64
        E 120 86 0d 00
        E 360 96 0d 64
        E 120 86 0d 00
        E 360 96 0c 64
        E 120 86 0c 00
        E 360 96 0d 64
        E 120 86 0d 00
        E 360 96 0d 64
        E 120 86 0d 00
        E 360 96 0d 64
        E 120 86 0d 00
        E 360 96 0c 64
        E 120 86 0c 00
        E 360 96 0d 64
        E 120 86 0d 00
        E 360 96 0d 64
        E 120 86 0d 00
        E 360 96 0d 64
        E 120 86 0d 00
        E 360 96 0c 64
        E 120 86 0c 00
        E 360 96 0d 64
        E 120 86 0d 00
        E 360 96 0d 64
        E 120 86 0d 00
        E 360 96 0d 64
        E 120 86 0d 00
        E 360 96 0c 64
        E 120 86 0c 00
        E 360 96 0d 64
        E 120 86 0d 00
        E 360 96 0d 64
        E 120 86 0d 00
        E 360 96 0d 64
        E 120 86 0d 00
        E 360 96 0c 64
        E 120 86 0c 00
        E 360 96 0d 64
        E 120 86 0d 00
        E 360 96 0d 64
        E 120 86 0d 00
        E 360 96 0d 64
        E 120 86 0d 00
        E 360 96 0c 64
        E 120 86 0c 00
        E 360 96 0d 64
        E 120 86 0d 00
        E 360 96 0d 64
        E 120 86 0d 00
        E 360 96 0d 64
        E 120 86 0d 00
        E 360 96 0c 64
        E 120 86 0c 00
        E 360 96 0d 64
        E 120 86 0d 00
        E 360 96 0d 64
        E 120 86 0d 00
        E 360 96 0d 64
        E 120 86 0d 00
        E 360 96 0c 64
        E 120 86 0c 00
        E 360 96 0d 64
        E 120 86 0d 00
        E 360 96 0d 64
        E 120 86 0d 00
        E 360 96 0d 64
        E 120 86 0d 00
        E 360 96 0c 64
        E 120 86 0c 00
        E 360 96 0d 64
        E 120 86 0d 00
        E 360 96 0d 64
        E 120 86 0d 00
        E 360 96 0d 64
        E 120 86 0d 00
        E 360 96 0c 64
        E 120 86 0c 00
        E 360 96 0d 64
        E 120 86 0d 00
        E 360 96 0d 64
        E 120 86 0d 00
        E 360 96 0d 64
        E 120 86 0d 00
        E 360 96 0c 64
        E 120 86 0c 00
        E 360 96 0d 64
        E 120 86 0d 00
        E 360 96 0d 64
        E 120 86 0d 00
        E 360 96 0d 64
        E 120 86 0d 00
        E 360 96 0c 64
        E 120 86 0c 00
        E 360 96 0d 64
        E 120 86 0d 00
        E 360 96 0d 64
        E 120 86 0d 00
        E 360 96 0d 64
        E 120 86 0d 00
        E 360 96 0c 64
        E 120 86 0c 00
        E 360 96 0d 64
        E 120 86 0d 00
        E 360 96 0d 64
        E 120 86 0d 00
        E 360 96 0d 64
        E 120 86 0d 00
        E 360 96 0c 64
        E 120 86 0c 00
        E 360 96 0d 64
        E 120 86 0d 00
        E 360 96 0d 64
        E 120 86 0d 00
        E 360 96 0d 64
        E 120 86 0d 00
        E 360 96 0c 64
        E 120 86 0c 00
        E 360 96 0d 64
        E 120 86 0d 00
        E 360 96 0d 64
        E 120 86 0d 00
        E 360 96 0d 64
        E 120 86 0d 00
        E 360 96 0c 64
        E 120 86 0c 00
        E 360 96 0d 64
        E 120 86 0d 00
        E 360 96 0d 64
        E 120 86 0d 00
        E 360 96 0d 64
        E 120 86 0d 00
        E 360 96 0c 64
        E 120 86 0c 00
        E 360 96 0d 64
        E 120 86 0d 00
        E 360 96 0d 64
        E 120 86 0d 00
        E 360 96 0d 64
        E 120 86 0d 00
        E 360 96 0c 64
        E 120 86 0c 00
        E 360 96 0d 64
        E 120 86 0d 00
        E 360 96 0d 64
        E 120 86 0d 00
        E 360 96 0d 64
        E 120 86 0d 00
        E 360 96 0c 64
        E 120 86 0c 00
        E 360 96 0d 64
        E 120 86 0d 00
        E 360 96 0d 64
        E 120 86 0d 00
        E 360 96 0d 64
        E 120 86 0d 00
        E 360 96 0c 64
        E 120 86 0c 00
        E 360 96 0d 64
        E 120 86 0d 00
        E 360 96 0d 64
        E 120 86 0d 00
        E 360 96 0d 64
        E 120 86 0d 00
        E 360 96 0c 64
        E 120 86 0c 00
        E 360 96 0d 64
        E 120 86 0d 00
        E 360 96 0d 64
        E 120 86 0d 00
        E 360 96 0d 64
        E 120 86 0d 00
        E 360 96 0c 64
        E 120 86 0c 00
        E 360 96 0d 64
        E 120 86 0d 00
        E 360 96 0d 64
        E 120 86 0d 00
        E 360 96 0d 64
        E 120 86 0d 00
        E 360 96 0c 64
        E 120 86 0c 00
        E 360 96 0d 64
        E 120 86 0d 00
        E 360 96 0d 64
        E 120 86 0d 00
        E 360 96 0d 64
        E 120 86 0d 00
        E 360 96 0c 64
        E 120 86 0c 00
        E 360 96 0d 64
        E 120 86 0d 00
        E 360 96 0d 64
        E 120 86 0d 00
        E 360 96 0d 64
        E 120 86 0d 00
        E 360 96 0c 64
        E 120 86 0c 00
        E 360 96 0d 64
        E 120 86 0d 00
        E 360 96 0d 64
        E 120 86 0d 00
        E 360 96 0d 64
        E 120 86 0d 00
        E 360 96 0c 64
        E 120 86 0c 00
        E 360 96 0d 64
        E 120 86 0d 00
        E 360 96 0d 64
        E 120 86 0d 00
        E 360 96 0d 64
        E 120 86 0d 00
        E 360 96 0c 64
        E 120 86 0c 00
        E 360 96 0d 64
        E 120 86 0d 00
        E 360 96 0d 64
        E 120 86 0d 00
        E 360 96 0d 64
        E 120 86 0d 00
        E 360 96 0c 64
        E 120 86 0c 00
        E 360 96 0d 64
        E 120 86 0d 00
        E 360 96 0d 64
        E 120 86 0d 00
        E 360 96 0d 64
        E 120 86 0d 00
        E 360 96 0c 64
        E 120 86 0c 00
        E 360 96 0d 64
        E 120 86 0d 00
        E 360 96 0d 64
        E 120 86 0d 00
        E 360 96 0d 64
        E 120 86 0d 00
        E 360 96 0c 64
        E 120 86 0c 00
        E 360 96 0d 64
        E 120 86 0d 00
        E 360 96 0d 64
        E 120 86 0d 00
        E 360 96 0d 64
        E 120 86 0d 00
        E 360 96 0c 64
        E 120 86 0c 00
        E 360 96 0d 64
        E 120 86 0d 00
        E 360 96 0d 64
        E 120 86 0d 00
        E 360 96 0d 64
        E 120 86 0d 00
        E 360 96 0c 64
        E 120 86 0c 00
        E 360 96 0d 64
        E 120 86 0d 00
        E 360 96 0d 64
        E 120 86 0d 00
        E 360 96 0d 64
        E 120 86 0d 00
        E 360 96 0d 64
        E 120 86 0d 00
        E 360 96 0c 64
        E 120 86 0c 00
        E 360 96 0d 64
        E 120 86 0d 00
        E 360 96 0d 64
        E 120 86 0d 00
        E 360 96 0d 64
        E 120 86 0d 00
        E 360 96 0c 64
        E 120 86 0c 00
        E 360 96 0d 64
        E 120 86 0d 00
        E 360 96 0d 64
        E 120 86 0d 00
        E 360 96 0d 64
        E 120 86 0d 00
        E 360 96 0c 64
        E 120 86 0c 00
        E 360 96 0d 64
        E 120 86 0d 00
        E 360 96 0d 64
        E 120 86 0d 00
        E 360 96 0d 64
        E 120 86 0d 00
        E 360 96 0c 64
        E 120 86 0c 00
        E 360 96 0d 64
        E 120 86 0d 00
        E 360 96 0d 64
        E 120 86 0d 00
        E 360 96 0d 64
        E 120 86 0d 00
        E 360 96 0c 64
        E 120 86 0c 00
        E 360 96 0d 64
        E 120 86 0d 00
        E 360 96 0d 64
        E 120 86 0d 00
        E 360 96 0d 64
        E 120 86 0d 00
        E 360 96 0c 64
        E 120 86 0c 00
        E 360 96 0d 64
        E 120 86 0d 00
        E 360 96 0d 64
        E 120 86 0d 00
        E 360 96 0d 64
        E 120 86 0d 00
        E 360 96 0c 64
        E 120 86 0c 00
        E 360 96 0d 64
        E 120 86 0d 00
        E 360 96 0d 64
        E 120 86 0d 00
        E 360 96 0d 64
        E 120 86 0d 00
        E 360 96 0c 64
        E 120 86 0c 00
        E 360 96 0d 64
        E 120 86 0d 00
        E 360 96 0d 64
        E 120 86 0d 00
        E 360 96 0d 64
        E 120 86 0d 00
        E 360 96 0c 64
        E 120 86 0c 00
        E 360 96 0d 64
        E 120 86 0d 00
        E 360 96 0d 64
        E 120 86 0d 00
        E 360 96 0d 64
        E 120 86 0d 00
        E 360 96 0c 64
        E 120 86 0c 00
        E 360 96 0d 64
        E 120 86 0d 00
        E 360 96 0d 64
        E 120 86 0d 00
        E 360 96 0d 64
        E 120 86 0d 00
        E 360 96 0c 64
        E 120 86 0c 00
        E 360 96 0d 64
        E 120 86 0d 00
        E 360 96 0d 64
        E 120 86 0d 00
        E 360 96 0d 64
        E 120 86 0d 00
        E 360 96 0c 64
        E 120 86 0c 00
        E 360 96 0d 64
        E 120 86 0d 00
        E 360 96 0d 64
        E 120 86 0d 00
        E 360 96 0d 64
        E 120 86 0d 00
        E 360 96 0c 64
        E 120 86 0c 00
        E 360 96 0d 64
        E 120 86 0d 00
        E 360 96 0d 64
        E 120 86 0d 00
        E 360 96 0d 64
        E 120 86 0d 00
        E 360 96 0c 64
        E 120 86 0c 00
        E 360 96 0d 64
        E 120 86 0d 00
        E 360 96 0d 64
        E 120 86 0d 00
        E 360 96 0d 64
        E 120 86 0d 00
        E 360 96 0c 64
        E 120 86 0c 00
        E 360 96 0d 64
        E 120 86 0d 00
        E 360 96 0d 64
        E 120 86 0d 00
        E 360 96 0d 64
        E 120 86 0d 00
        E 360 96 0c 64
        E 120 86 0c 00
        E 360 96 0d 64
        E 120 86 0d 00
        E 360 96 0d 64
        E 120 86 0d 00
        E 360 96 0d 64
        E 120 86 0d 00
        E 360 96 0c 64
        E 120 86 0c 00
        E 360 96 0d 64
        E 120 86 0d 00
        E 360 96 0d 64
        E 120 86 0d 00
        E 360 96 0d 64
        E 120 86 0d 00
        E 360 96 0c 64
        E 120 86 0c 00
        E 360 96 0d 64
        E 120 86 0d 00
        E 360 96 0d 64
        E 120 86 0d 00
        E 360 96 0d 64
        E 120 86 0d 00
        E 360 96 0c 64
        E 120 86 0c 00
        E 360 96 0d 64
        E 120 86 0d 00
        E 360 96 0d 64
        E 120 86 0d 00
        E 360 96 0d 64
        E 120 86 0d 00
        E 360 96 0c 64
        E 120 86 0c 00
        E 360 96 0d 64
        E 120 86 0d 00
        E 360 96 0d 64
        E 120 86 0d 00
        E 360 96 0d 64
        E 120 86 0d 00
        E 360 96 0c 64
        E 120 86 0c 00
        E 360 96 0d 64
        E 120 86 0d 00
        E 360 96 0d 64
        E 120 86 0d 00
        E 360 96 0d 64
        E 120 86 0d 00
        E 360 96 0c 64
        E 120 86 0c 00
        E 360 96 0d 64
        E 120 86 0d 00
        E 360 96 0d 64
        E 120 86 0d 00
        E 360 96 0d 64
        E 120 86 0d 00
        E 360 96 0c 64
        E 120 86 0c 00
        E 360 96 0d 64
        E 120 86 0d 00
        E 360 96 0d 64
        E 120 86 0d 00
        E 360 96 0d 64
        E 120 86 0d 00
        E 360 96 0c 64
        E 120 86 0c 00
        E 360 96 0d 64
        E 120 86 0d 00
        E 360 96 0d 64
        E 120 86 0d 00
        E 360 96 0d 64
        E 120 86 0d 00
        E 360 96 0c 64
        E 120 86 0c 00
        E 360 96 0d 64
        E 120 86 0d 00
        E 360 96 0d 64
        E 120 86 0d 00
        E 360 96 0d 64
        E 120 86 0d 00
        E 360 96 0c 64
        E 120 86 0c 00
        E 360 96 0d 64
        E 120 86 0d 00
        E 360 96 0d 64
        E 120 86 0d 00
        E 360 96 0d 64
        E 120 86 0d 00
        E 360 96 0c 64
        E 120 86 0c 00
        E 360 96 0d 64
        E 120 86 0d 00
        E 360 96 0d 64
        E 120 86 0d 00
        E 360 96 0d 64
        E 120 86 0d 00
        E 360 96 0c 64
        E 120 86 0c 00
        E 360 96 0d 64
        E 120 86 0d 00
        E 360 96 0d 64
        E 120 86 0d 00
        E 360 96 0d 64
        E 120 86 0d 00
        E 360 96 0c 64
        E 120 86 0c 00
        E 360 96 0d 64
        E 120 86 0d 00
        E 360 96 0d 64
        E 120 86 0d 00
        E 360 96 0d 64
        E 120 86 0d 00
        E 360 96 0c 64
        E 120 86 0c 00
        E 360 96 0d 64
        E 120 86 0d 00
        E 360 96 0d 64
        E 120 86 0d 00
        E 360 96 0d 64
        E 120 86 0d 00
        E 360 96 0c 64
        E 120 86 0c 00
        E 360 96 0d 64
        E 120 86 0d 00
        E 360 96 0d 64
        E 120 86 0d 00
        E 360 96 0d 64
        E 120 86 0d 00
        E 360 96 0c 64
        E 120 86 0c 00
        E 360 96 0d 64
        E 120 86 0d 00
        E 360 96 0d 64
        E 120 86 0d 00
        E 360 96 0d 64
        E 120 86 0d 00
        E 360 96 0c 64
        E 120 86 0c 00
        E 360 96 0d 64
        E 120 86 0d 00
        E 360 96 0d 64
        E 120 86 0d 00
        E 360 96 0d 64
        E 120 86 0d 00
        E 360 96 0c 64
        E 120 86 0c 00
        E 360 96 0d 64
        E 120 86 0d 00
        E 360 96 0d 64
        E 120 86 0d 00
        E 360 96 0d 64
        E 120 86 0d 00
        E 360 96 0c 64
        E 120 86 0c 00
        E 360 96 0d 64
        E 120 86 0d 00
        E 360 96 0d 64
        E 120 86 0d 00
        E 360 96 0d 64
        E 120 86 0d 00
        E 360 96 0c 64
        E 120 86 0c 00
        E 360 96 0d 64
        E 120 86 0d 00
        E 360 96 0d 64
        E 120 86 0d 00
        E 360 96 0d 64
        E 120 86 0d 00
        E 360 b0 7b 00
        GUID {B5A6E313-DB6D-4B75-A8D8-765D682EE065}
        IGNTEMPO 0 120.00000000 4 4
        SRCCOLOR 21
        VELLANE 132 128 60
        COLORMAP "C:\Program Files\REAPER (x64)\Data\color_maps\rockband_guitarbass.png"
        CFGEDITVIEW -22293.631403 4.067158 0 48 0 0 0
        CFGEDIT 1 1 0 1 1 0 1 1 1 1 1 0.25000000 -8 -8 1544 872 0 2 1 1 0.00000000 0 1 1 0 0.500000 0 0 1.000000 64
        KEYSNAP 0 6 "102030050700" 0 "Pentatonic"
        EVTFILTER 0 -1 -1 -1 -1 0 1 0 0 -1.00000000 -1.00000000
      >
    >
  >
  <TRACK '{79624A9B-5748-4BC6-AFD8-1A73D046D89E}'
    NAME "backing"
    PEAKCOL 16576
    BEAT -1
    AUTOMODE 0
    VOLPAN 0.23948213130490 0.00000000000000 -1.00000000000000 -1.00000000000000 1.00000000000000
    MUTESOLO 0 0 0
    IPHASE 0
    ISBUS 0 0
    BUSCOMP 0 0
    SHOWINMIX 1 0.666700 0.500000 1 0.500000 -1 -1 -1
    FREEMODE 0
    SEL 0
    REC 0 0 0 0 0 0 0
    VU 2
    TRACKHEIGHT 0 0
    INQ 0 0 0 0.5000000000 100 0 0 100
    NCHAN 2
    FX 1
    TRACKID {79624A9B-5748-4BC6-AFD8-1A73D046D89E}
    PERF 0
    MIDIOUT -1
    MAINSEND 1 0
    <ITEM
      POSITION 0.00000000000000
      SNAPOFFS 0.00000000000000
      LENGTH 276.11414965986393
      LOOP 0
      ALLTAKES 0
      SEL 0
      FADEIN 1 0.000000 0.000000 1 0
      FADEOUT 1 0.000000 0.000000 1 0
      MUTE 0
      IGUID {28429AC3-A0AB-4F04-9876-6BB14FC8AC27}
      IID 20
      NAME "backing.wav"
      VOLPAN 1.000000 0.000000 1.000000 -1.000000
      SOFFS 0.00000000000000
      PLAYRATE 1.00000000000000 1 0.00000000000000 -1
      CHANMODE 0
      GUID {83A28EFC-027E-4A77-AD55-6CBD010D4B8F}
      <SOURCE WAVE
        FILE "wav\backing.wav"
      >
    >
  >
  <EXTENSIONS
  >
>
