<REAPER_PROJECT 0.1 "4.22/x64"
  RIPPLE 0
  GROUPOVERRIDE 0 0 0
  AUTOXFADE 1
  ENVATTACH 1
  MIXERUIFLAGS 11 48
  PEAKGAIN 1.00000000000000
  FEEDBACK 0
  PANLAW 1.00000000000000
  PROJOFFS 0.00000000000000 0
  MAXPROJLEN 0 600.00000000000000
  GRID 3199 8 1.00000000000000 8 1.00000000000000 0
  TIMEMODE 1 0 -1
  PANMODE 3
  CURSOR 13.79489200000127
  ZOOM 10.22012958372697 0 0
  VZOOMEX 6
  USE_REC_CFG 0
  RECMODE 1
  SMPTESYNC 0 23.976024 100 40 1000 300 0 0.000000 1
  LOOP 0
  LOOPGRAN 0 4.00000000000000
  RECORD_PATH "" ""
  <RECORD_CFG
    ZXZhdxgA
  >
  <APPLYFX_CFG
  >
  RENDER_FILE "C:\Users\Ruggery\Desktop\deadwomb.wav"
  RENDER_FMT 0 2 44100
  RENDER_1X 0
  RENDER_RANGE 1 0.00000000000000 0.00000000000000
  RENDER_RESAMPLE 3 0 1
  RENDER_ADDTOPROJ 0
  RENDER_STEMS 0
  RENDER_DITHER 0
  TIMELOCKMODE 0
  ITEMMIX 0
  DEFPITCHMODE 393216
  TAKELANE 1
  SAMPLERATE 44100 0 0
  <RENDER_CFG
    ZXZhdxAD
  >
  LOCK 1
  <METRONOME 6 2.000000
    VOL 0.250000 0.125000
    FREQ 800 1600 1
    BEATLEN 4
    SAMPLES "" ""
  >
  GLOBAL_AUTO -1
  TEMPO 120.00000000000000 4 4
  PLAYRATE 1.00000000000000 0 0.25000 4.00000
  SELECTION 109.09842099999985 0.00000000000000
  SELECTION2 109.09842099999985 0.00000000000000
  MASTERAUTOMODE 0
  MASTERTRACKHEIGHT 0
  MASTERPEAKCOL 16576
  MASTERMUTESOLO 0
  MASTERTRACKVIEW 1 0.666700 0.500000 0.500000 -1 -1 -1
  MASTERHWOUT 0 0 1.00000000000000 0.00000000000000 0 0 0 -1.00000000000000
  MASTER_NCH 2 2
  MASTER_VOLUME 1.00000000000000 0.00000000000000 -1.00000000000000 -1.00000000000000 1.00000000000000
  MASTER_PANMODE -1
  MASTER_FX 1
  MASTER_SEL 0
  <MASTERPLAYSPEEDENV
    ACT 0
    VIS 0 1 1.000000
    LANEHEIGHT 0 0
    ARM 0
    DEFSHAPE 0 -1 -1
  >
  <TEMPOENVEX
    ACT 1
    VIS 1 0 1.000000
    LANEHEIGHT 0 0
    ARM 0
    DEFSHAPE 1 -1 -1
    PT 0.000000000000 228.5714285714 1
    PT 6.300000000000 224.0001194667 1
    PT 11.657140000000 221.7139225258 1
    PT 12.739616000000 227.4286537361 1
    PT 14.850168000000 222.8569518369 1
    PT 15.657861000000 225.1432473912 1
    PT 21.254298000000 212.5714771592 1
    PT 22.383330000000 224.0001194667 1
    PT 27.472613000000 225.1432473912 1
    PT 30.937074000000 219.4281701885 1
    PT 32.030826000000 226.2853005069 1
    PT 35.212650000000 219.4281701885 1
    PT 37.400154000000 228.5714285714 1
    PT 38.450154000000 221.7139225258 1
    PT 39.532630000000 226.2853005069 1
    PT 44.835670000000 229.7143119673 1
    PT 45.880446000000 219.4289726701 1
    PT 48.067942000000 218.2858016000 1
    PT 49.167418000000 233.1428038531 1
    PT 50.196830000000 224.0001194667 1
    PT 54.482542000000 221.7139225258 1
    PT 59.624303000000 227.4286537361 1
    PT 61.998674000000 224.0001194667 1
    PT 65.212958000000 214.8573884084 1
    PT 66.329978000000 221.7139225258 1
    PT 67.141835000000 231.9997216003 1
    PT 68.176319000000 226.2853005069 1
    PT 70.562687000000 224.0001194667 1
    PT 76.991255000000 222.8569518369 1
    PT 80.222027000000 226.2853005069 1
    PT 81.282635000000 218.2858016000 1
    PT 82.382111000000 226.2853005069 1
    PT 85.563935000000 220.5712058995 1
    PT 86.652019000000 222.8569518369 1
    PT 92.036639000000 227.4286537361 1
    PT 93.091915000000 220.5712058995 1
    PT 94.179999000000 227.4286537361 1
    PT 98.401103000000 221.7139225258 1
    PT 99.483579000000 225.1432473912 1
    PT 100.549567000000 228.5714285714 1
    PT 101.599567000000 220.5712058995 1
    PT 103.503714000000 205.7140506125 1
    PT 103.795381000000 226.2853005069 1
  >
  <PROJBAY
  >
  <TRACK '{A7D64D87-AF47-450B-9591-C6C593B338D0}'
    NAME "PART DRUMS"
    PEAKCOL 16576
    BEAT -1
    AUTOMODE 0
    VOLPAN 1.00000000000000 0.00000000000000 -1.00000000000000 -1.00000000000000 1.00000000000000
    MUTESOLO 0 0 0
    IPHASE 0
    ISBUS 0 0
    BUSCOMP 0 0
    SHOWINMIX 1 0.666700 0.500000 1 0.500000 -1 -1 -1
    FREEMODE 0
    SEL 1
    REC 0 0 0 0 0 0 0
    VU 2
    TRACKHEIGHT 0 0
    INQ 0 0 0 0.5000000000 100 0 0 100
    NCHAN 2
    FX 1
    TRACKID {A7D64D87-AF47-450B-9591-C6C593B338D0}
    PERF 0
    MIDIOUT -1
    <MIDINOTENAMES
      0 127 "Cymbal Swells"
      0 126 "Drum Roll"
      0 125 "---"
      0 124 "DRUM FILL"
      0 123 "DRUM FILL"
      0 122 "DRUM FILL"
      0 121 "DRUM FILL"
      0 120 "DRUM FILL (use all 5)"
      0 118 "----"
      0 116 "OVERDRIVE"
      0 114 "----"
      0 112 "TOM GEMS PAD 4"
      0 111 "TOM GEMS PAD 3"
      0 110 "TOM GEMS PAD 2"
      0 103 "Solo Marker"
      0 102 "----"
      0 100 "EXPERT Green"
      0 99 "EXPERT Blue"
      0 98 "EXPERT Yellow"
      0 97 "EXPERT Red"
      0 96 "EXPERT Kick"
      0 92 "----"
      0 88 "HARD Green"
      0 87 "HARD Blue"
      0 86 "HARD Yellow"
      0 85 "HARD Red"
      0 84 "HARD Kick"
      0 80 "----"
      0 76 "MEDIUM Green"
      0 75 "MEDIUM Blue"
      0 74 "MEDIUM Yellow"
      0 73 "MEDIUM Red"
      0 72 "MEDIUM Kick"
      0 68 "----"
      0 64 "EASY Green"
      0 63 "EASY Blue"
      0 62 "EASY Yellow"
      0 61 "EASY Red"
      0 60 "EASY Kick"
      0 56 "----"
      0 52 "-- DRUM ANIMATION --"
      0 51 "FLOOR TOM RH"
      0 50 "FLOOR TOM LH"
      0 49 "TOM2 RH"
      0 48 "TOM2 LH"
      0 47 "TOM1 RH"
      0 46 "TOM1 LH"
      0 45 "SOFT CRASH 2 LH"
      0 44 "CRASH 2 LH"
      0 43 "RIDE LH"
      0 42 "RIDE CYM RH"
      0 41 "CRASH2 CHOKE"
      0 40 "CRASH1 CHOKE"
      0 39 "CRASH2 SOFT RH"
      0 38 "CRASH2 HARD RH"
      0 37 "CRASH1 SOFT RH"
      0 36 "CRASH1 HARD RH"
      0 35 "CRASH1 SOFT LH"
      0 34 "CRASH1 HARD LH"
      0 32 "PERCUSSION RH"
      0 31 "HI-HAT RH"
      0 30 "HI-HAT LH"
      0 29 "SOFT SNARE RH"
      0 28 "SOFT SNARE LH"
      0 27 "SNARE RH"
      0 26 "SNARE LH"
      0 25 "HI-HAT OPEN"
      0 24 "KICK RF"
    >
    MAINSEND 1 0
    <FXCHAIN
      WNDRECT 489 199 878 559
      SHOW 0
      LASTSEL 0
      DOCKED 0
      BYPASS 0 0
      <VST "VSTi: RBN Preview (RBN)" "rbprev_vst64.dll" 0 ""
        dnBicu5e7f4AAAAAAgAAAAEAAAAAAAAAAgAAAAAAAAAEAAAAAQAAAA==
        AAAQAAMBqgAAABAAAAA=
      >
      FLOATPOS 0 0 0 0
      FXID {23A8759F-8711-4CCD-92B0-FC13098B8FEE}
      WAK 0
    >
    <ITEM
      POSITION 0.00000000000000
      SNAPOFFS 0.00000000000000
      LENGTH 109.09839002267573
      LOOP 0
      ALLTAKES 0
      SEL 1
      FADEIN 1 0.000000 0.000000 1 0
      FADEOUT 1 0.000000 0.000000 1 0
      MUTE 0
      IGUID {6FD11988-4DCA-45B3-B4BD-67F0C21B7A96}
      IID 1
      NAME "PART DRUMS"
      VOLPAN 1.000000 0.000000 1.000000 -1.000000
      SOFFS 0.00000000000000 0.00000000000000
      PLAYRATE 1.00000000000000 1 0.00000000000000 -1
      CHANMODE 0
      GUID {68058A3F-42A0-4090-A08F-CBA322150455}
      <SOURCE MIDI
        HASDATA 1 480 QN
        POOLEDEVTS {1B7D2280-BBCE-41AB-B650-AFC264D8EFEA}
        <X 0 0
          /wNQQVJUIERSVU1T
        >
        E 480 90 19 60
        E 1440 80 19 00
        E 1920 90 19 60
        <X 3600 0
          /wFbaW50ZW5zZV0=
        >
        E 240 90 1a 60
        E 0 90 1f 60
        E 0 90 3d 60
        E 0 90 3e 60
        E 0 90 49 60
        E 0 90 4a 60
        E 0 90 55 60
        E 0 90 56 60
        E 0 90 61 60
        E 0 90 62 60
        E 120 80 1a 00
        E 0 80 1f 00
        E 0 80 3d 00
        E 0 80 3e 00
        E 0 80 49 00
        E 0 80 4a 00
        E 0 80 55 00
        E 0 80 56 00
        E 0 80 61 00
        E 0 80 62 00
        E 120 90 18 60
        E 0 90 54 60
        E 0 90 60 60
        E 120 80 18 00
        E 0 80 54 00
        E 0 80 60 00
        E 120 90 1a 60
        E 0 90 1f 60
        E 0 90 49 60
        E 0 90 4a 60
        E 0 90 55 60
        E 0 90 56 60
        E 0 90 61 60
        E 0 90 62 60
        E 120 80 1a 00
        E 0 80 1f 00
        E 0 80 49 00
        E 0 80 4a 00
        E 0 80 55 00
        E 0 80 56 00
        E 0 80 61 00
        E 0 80 62 00
        E 120 90 18 60
        E 0 90 54 60
        E 0 90 60 60
        E 120 80 18 00
        E 0 80 54 00
        E 0 80 60 00
        E 120 90 1a 60
        E 0 90 1f 60
        E 0 90 3d 60
        E 0 90 3e 60
        E 0 90 49 60
        E 0 90 4a 60
        E 0 90 55 60
        E 0 90 56 60
        E 0 90 61 60
        E 0 90 62 60
        E 120 80 1a 00
        E 0 80 1f 00
        E 0 80 3d 00
        E 0 80 3e 00
        E 0 80 49 00
        E 0 80 4a 00
        E 0 80 55 00
        E 0 80 56 00
        E 0 80 61 00
        E 0 80 62 00
        E 120 90 18 60
        E 0 90 60 60
        E 120 80 18 00
        E 0 80 60 00
        E 120 90 1a 60
        E 0 90 55 60
        E 0 90 61 60
        E 120 80 1a 00
        E 0 80 55 00
        E 0 80 61 00
        E 360 90 1a 60
        E 0 90 1f 60
        E 0 90 3d 60
        E 0 90 3e 60
        E 0 90 49 60
        E 0 90 4a 60
        E 0 90 55 60
        E 0 90 56 60
        E 0 90 61 60
        E 0 90 62 60
        E 120 80 1a 00
        E 0 80 1f 00
        E 0 80 3d 00
        E 0 80 3e 00
        E 0 80 49 00
        E 0 80 4a 00
        E 0 80 55 00
        E 0 80 56 00
        E 0 80 61 00
        E 0 80 62 00
        E 120 90 18 60
        E 0 90 54 60
        E 0 90 60 60
        E 120 80 18 00
        E 0 80 54 00
        E 0 80 60 00
        E 120 90 1a 60
        E 0 90 1f 60
        E 0 90 49 60
        E 0 90 4a 60
        E 0 90 55 60
        E 0 90 56 60
        E 0 90 61 60
        E 0 90 62 60
        E 120 80 1a 00
        E 0 80 1f 00
        E 0 80 49 00
        E 0 80 4a 00
        E 0 80 55 00
        E 0 80 56 00
        E 0 80 61 00
        E 0 80 62 00
        E 120 90 18 60
        E 0 90 54 60
        E 0 90 60 60
        E 120 80 18 00
        E 0 80 54 00
        E 0 80 60 00
        E 120 90 1a 60
        E 0 90 1f 60
        E 0 90 3d 60
        E 0 90 3e 60
        E 0 90 49 60
        E 0 90 4a 60
        E 0 90 55 60
        E 0 90 56 60
        E 0 90 61 60
        E 0 90 62 60
        E 120 80 1a 00
        E 0 80 1f 00
        E 0 80 3d 00
        E 0 80 3e 00
        E 0 80 49 00
        E 0 80 4a 00
        E 0 80 55 00
        E 0 80 56 00
        E 0 80 61 00
        E 0 80 62 00
        E 120 90 18 60
        E 0 90 60 60
        E 120 80 18 00
        E 0 80 60 00
        E 120 90 1a 60
        E 0 90 55 60
        E 0 90 61 60
        E 120 80 1a 00
        E 0 80 55 00
        E 0 80 61 00
        E 360 90 1a 60
        E 0 90 1f 60
        E 0 90 3d 60
        E 0 90 3e 60
        E 0 90 49 60
        E 0 90 4a 60
        E 0 90 55 60
        E 0 90 56 60
        E 0 90 61 60
        E 0 90 62 60
        E 120 80 1a 00
        E 0 80 1f 00
        E 0 80 3d 00
        E 0 80 3e 00
        E 0 80 49 00
        E 0 80 4a 00
        E 0 80 55 00
        E 0 80 56 00
        E 0 80 61 00
        E 0 80 62 00
        E 120 90 18 60
        E 0 90 54 60
        E 0 90 60 60
        E 120 80 18 00
        E 0 80 54 00
        E 0 80 60 00
        E 120 90 1a 60
        E 0 90 1f 60
        E 0 90 49 60
        E 0 90 4a 60
        E 0 90 55 60
        E 0 90 56 60
        E 0 90 61 60
        E 0 90 62 60
        E 120 80 1a 00
        E 0 80 1f 00
        E 0 80 49 00
        E 0 80 4a 00
        E 0 80 55 00
        E 0 80 56 00
        E 0 80 61 00
        E 0 80 62 00
        E 120 90 18 60
        E 0 90 54 60
        E 0 90 60 60
        E 120 80 18 00
        E 0 80 54 00
        E 0 80 60 00
        E 120 90 1a 60
        E 0 90 1f 60
        E 0 90 3d 60
        E 0 90 3e 60
        E 0 90 49 60
        E 0 90 4a 60
        E 0 90 55 60
        E 0 90 56 60
        E 0 90 61 60
        E 0 90 62 60
        E 120 80 1a 00
        E 0 80 1f 00
        E 0 80 3d 00
        E 0 80 3e 00
        E 0 80 49 00
        E 0 80 4a 00
        E 0 80 55 00
        E 0 80 56 00
        E 0 80 61 00
        E 0 80 62 00
        E 120 90 18 60
        E 0 90 60 60
        E 120 80 18 00
        E 0 80 60 00
        E 120 90 1a 60
        E 0 90 55 60
        E 0 90 61 60
        E 120 80 1a 00
        E 0 80 55 00
        E 0 80 61 00
        E 360 90 1a 60
        E 0 90 1f 60
        E 0 90 3d 60
        E 0 90 3e 60
        E 0 90 49 60
        E 0 90 4a 60
        E 0 90 55 60
        E 0 90 56 60
        E 0 90 61 60
        E 0 90 62 60
        E 120 80 1a 00
        E 0 80 1f 00
        E 0 80 3d 00
        E 0 80 3e 00
        E 0 80 49 00
        E 0 80 4a 00
        E 0 80 55 00
        E 0 80 56 00
        E 0 80 61 00
        E 0 80 62 00
        E 120 90 18 60
        E 0 90 54 60
        E 0 90 60 60
        E 120 80 18 00
        E 0 80 54 00
        E 0 80 60 00
        E 120 90 1a 60
        E 0 90 1f 60
        E 0 90 49 60
        E 0 90 4a 60
        E 0 90 55 60
        E 0 90 56 60
        E 0 90 61 60
        E 0 90 62 60
        E 120 80 1a 00
        E 0 80 1f 00
        E 0 80 49 00
        E 0 80 4a 00
        E 0 80 55 00
        E 0 80 56 00
        E 0 80 61 00
        E 0 80 62 00
        E 120 90 18 60
        E 0 90 54 60
        E 0 90 60 60
        E 120 80 18 00
        E 0 80 54 00
        E 0 80 60 00
        E 120 90 1a 60
        E 0 90 1f 60
        E 0 90 3d 60
        E 0 90 3e 60
        E 0 90 49 60
        E 0 90 4a 60
        E 0 90 55 60
        E 0 90 56 60
        E 0 90 61 60
        E 0 90 62 60
        E 120 80 1a 00
        E 0 80 1f 00
        E 0 80 3d 00
        E 0 80 3e 00
        E 0 80 49 00
        E 0 80 4a 00
        E 0 80 55 00
        E 0 80 56 00
        E 0 80 61 00
        E 0 80 62 00
        E 120 90 18 60
        E 0 90 60 60
        E 120 80 18 00
        E 0 80 60 00
        E 120 90 1a 60
        E 0 90 55 60
        E 0 90 61 60
        E 120 80 1a 00
        E 0 80 55 00
        E 0 80 61 00
        E 360 90 1a 60
        E 0 90 1f 60
        E 0 90 3d 60
        E 0 90 3e 60
        E 0 90 49 60
        E 0 90 4a 60
        E 0 90 55 60
        E 0 90 56 60
        E 0 90 61 60
        E 0 90 62 60
        E 120 80 1a 00
        E 0 80 1f 00
        E 0 80 3d 00
        E 0 80 3e 00
        E 0 80 49 00
        E 0 80 4a 00
        E 0 80 55 00
        E 0 80 56 00
        E 0 80 61 00
        E 0 80 62 00
        E 120 90 18 60
        E 0 90 54 60
        E 0 90 60 60
        E 120 80 18 00
        E 0 80 54 00
        E 0 80 60 00
        E 120 90 1a 60
        E 0 90 1f 60
        E 0 90 49 60
        E 0 90 4a 60
        E 0 90 55 60
        E 0 90 56 60
        E 0 90 61 60
        E 0 90 62 60
        E 120 80 1a 00
        E 0 80 1f 00
        E 0 80 49 00
        E 0 80 4a 00
        E 0 80 55 00
        E 0 80 56 00
        E 0 80 61 00
        E 0 80 62 00
        E 120 90 18 60
        E 0 90 54 60
        E 0 90 60 60
        E 120 80 18 00
        E 0 80 54 00
        E 0 80 60 00
        E 120 90 1a 60
        E 0 90 1f 60
        E 0 90 3d 60
        E 0 90 3e 60
        E 0 90 49 60
        E 0 90 4a 60
        E 0 90 55 60
        E 0 90 56 60
        E 0 90 61 60
        E 0 90 62 60
        E 120 80 1a 00
        E 0 80 1f 00
        E 0 80 3d 00
        E 0 80 3e 00
        E 0 80 49 00
        E 0 80 4a 00
        E 0 80 55 00
        E 0 80 56 00
        E 0 80 61 00
        E 0 80 62 00
        E 120 90 18 60
        E 0 90 60 60
        E 120 80 18 00
        E 0 80 60 00
        E 120 90 1a 60
        E 0 90 55 60
        E 0 90 61 60
        E 120 80 1a 00
        E 0 80 55 00
        E 0 80 61 00
        E 360 90 1a 60
        E 0 90 1f 60
        E 0 90 3d 60
        E 0 90 3e 60
        E 0 90 49 60
        E 0 90 4a 60
        E 0 90 55 60
        E 0 90 56 60
        E 0 90 61 60
        E 0 90 62 60
        E 120 80 1a 00
        E 0 80 1f 00
        E 0 80 3d 00
        E 0 80 3e 00
        E 0 80 49 00
        E 0 80 4a 00
        E 0 80 55 00
        E 0 80 56 00
        E 0 80 61 00
        E 0 80 62 00
        E 120 90 18 60
        E 0 90 54 60
        E 0 90 60 60
        E 120 80 18 00
        E 0 80 54 00
        E 0 80 60 00
        E 120 90 1a 60
        E 0 90 1f 60
        E 0 90 49 60
        E 0 90 4a 60
        E 0 90 55 60
        E 0 90 56 60
        E 0 90 61 60
        E 0 90 62 60
        E 120 80 1a 00
        E 0 80 1f 00
        E 0 80 49 00
        E 0 80 4a 00
        E 0 80 55 00
        E 0 80 56 00
        E 0 80 61 00
        E 0 80 62 00
        E 120 90 18 60
        E 0 90 54 60
        E 0 90 60 60
        E 120 80 18 00
        E 0 80 54 00
        E 0 80 60 00
        E 120 90 1a 60
        E 0 90 1f 60
        E 0 90 3d 60
        E 0 90 3e 60
        E 0 90 49 60
        E 0 90 4a 60
        E 0 90 55 60
        E 0 90 56 60
        E 0 90 61 60
        E 0 90 62 60
        E 120 80 1a 00
        E 0 80 1f 00
        E 0 80 3d 00
        E 0 80 3e 00
        E 0 80 49 00
        E 0 80 4a 00
        E 0 80 55 00
        E 0 80 56 00
        E 0 80 61 00
        E 0 80 62 00
        E 120 90 18 60
        E 0 90 60 60
        E 120 80 18 00
        E 0 80 60 00
        E 120 90 1a 60
        E 0 90 55 60
        E 0 90 61 60
        E 120 80 1a 00
        E 0 80 55 00
        E 0 80 61 00
        E 360 90 1a 60
        E 0 90 1f 60
        E 0 90 3d 60
        E 0 90 3e 60
        E 0 90 49 60
        E 0 90 4a 60
        E 0 90 55 60
        E 0 90 56 60
        E 0 90 61 60
        E 0 90 62 60
        E 0 90 74 60
        E 120 80 1a 00
        E 0 80 1f 00
        E 0 80 3d 00
        E 0 80 3e 00
        E 0 80 49 00
        E 0 80 4a 00
        E 0 80 55 00
        E 0 80 56 00
        E 0 80 61 00
        E 0 80 62 00
        E 120 90 18 60
        E 0 90 54 60
        E 0 90 60 60
        E 120 80 18 00
        E 0 80 54 00
        E 0 80 60 00
        E 120 90 1a 60
        E 0 90 1f 60
        E 0 90 49 60
        E 0 90 4a 60
        E 0 90 55 60
        E 0 90 56 60
        E 0 90 61 60
        E 0 90 62 60
        E 120 80 1a 00
        E 0 80 1f 00
        E 0 80 49 00
        E 0 80 4a 00
        E 0 80 55 00
        E 0 80 56 00
        E 0 80 61 00
        E 0 80 62 00
        E 120 90 18 60
        E 0 90 54 60
        E 0 90 60 60
        E 120 80 18 00
        E 0 80 54 00
        E 0 80 60 00
        E 120 90 1a 60
        E 0 90 1f 60
        E 0 90 3d 60
        E 0 90 3e 60
        E 0 90 49 60
        E 0 90 4a 60
        E 0 90 55 60
        E 0 90 56 60
        E 0 90 61 60
        E 0 90 62 60
        E 120 80 1a 00
        E 0 80 1f 00
        E 0 80 3d 00
        E 0 80 3e 00
        E 0 80 49 00
        E 0 80 4a 00
        E 0 80 55 00
        E 0 80 56 00
        E 0 80 61 00
        E 0 80 62 00
        E 120 90 18 60
        E 0 90 60 60
        E 120 80 18 00
        E 0 80 60 00
        E 120 90 1a 60
        E 0 90 55 60
        E 0 90 61 60
        E 120 80 1a 00
        E 0 80 55 00
        E 0 80 61 00
        E 360 90 1a 60
        E 0 90 1f 60
        E 0 90 3d 60
        E 0 90 3e 60
        E 0 90 49 60
        E 0 90 4a 60
        E 0 90 55 60
        E 0 90 56 60
        E 0 90 61 60
        E 0 90 62 60
        E 120 80 1a 00
        E 0 80 1f 00
        E 0 80 3d 00
        E 0 80 3e 00
        E 0 80 49 00
        E 0 80 4a 00
        E 0 80 55 00
        E 0 80 56 00
        E 0 80 61 00
        E 0 80 62 00
        E 120 90 18 60
        E 0 90 54 60
        E 0 90 60 60
        E 120 80 18 00
        E 0 80 54 00
        E 0 80 60 00
        E 120 90 1a 60
        E 0 90 1f 60
        E 0 90 49 60
        E 0 90 4a 60
        E 0 90 55 60
        E 0 90 56 60
        E 0 90 61 60
        E 0 90 62 60
        E 120 80 1a 00
        E 0 80 1f 00
        E 0 80 49 00
        E 0 80 4a 00
        E 0 80 55 00
        E 0 80 56 00
        E 0 80 61 00
        E 0 80 62 00
        E 120 90 18 60
        E 0 90 54 60
        E 0 90 60 60
        E 120 80 18 00
        E 0 80 54 00
        E 0 80 60 00
        E 120 90 1a 60
        E 0 90 1f 60
        E 0 90 3d 60
        E 0 90 3e 60
        E 0 90 49 60
        E 0 90 4a 60
        E 0 90 55 60
        E 0 90 56 60
        E 0 90 61 60
        E 0 90 62 60
        E 120 80 1a 00
        E 0 80 1f 00
        E 0 80 3d 00
        E 0 80 3e 00
        E 0 80 49 00
        E 0 80 4a 00
        E 0 80 55 00
        E 0 80 56 00
        E 0 80 61 00
        E 0 80 62 00
        E 120 90 18 60
        E 0 90 60 60
        E 120 80 18 00
        E 0 80 60 00
        E 120 90 1a 60
        E 0 90 55 60
        E 0 90 61 60
        E 120 80 1a 00
        E 0 80 55 00
        E 0 80 61 00
        E 360 80 74 00
        E 0 90 1a 60
        E 0 90 1f 60
        E 0 90 3d 60
        E 0 90 3e 60
        E 0 90 49 60
        E 0 90 4a 60
        E 0 90 55 60
        E 0 90 56 60
        E 0 90 61 60
        E 0 90 62 60
        E 120 80 1a 00
        E 0 80 1f 00
        E 0 80 3d 00
        E 0 80 3e 00
        E 0 80 49 00
        E 0 80 4a 00
        E 0 80 55 00
        E 0 80 56 00
        E 0 80 61 00
        E 0 80 62 00
        E 0 90 18 60 40
        E 0 90 60 60 40
        E 120 80 18 00 40
        E 0 80 60 00 40
        E 120 90 18 60 -40
        E 0 90 60 60 -40
        E 120 80 18 00 -40
        E 0 80 60 00 -40
        E 0 90 1a 60
        E 0 90 1f 60
        E 0 90 49 60
        E 0 90 4a 60
        E 0 90 55 60
        E 0 90 56 60
        E 0 90 61 60
        E 0 90 62 60
        E 120 80 1a 00
        E 0 80 1f 00
        E 0 80 49 00
        E 0 80 4a 00
        E 0 80 55 00
        E 0 80 56 00
        E 0 80 61 00
        E 0 80 62 00
        E 0 90 18 60 40
        E 0 90 60 60 40
        E 120 80 18 00 40
        E 0 80 60 00 40
        E 120 90 18 60 -40
        E 0 90 60 60 -40
        E 120 80 18 00 -40
        E 0 80 60 00 -40
        E 0 90 1a 60
        E 0 90 1f 60
        E 0 90 3d 60
        E 0 90 3e 60
        E 0 90 49 60
        E 0 90 4a 60
        E 0 90 55 60
        E 0 90 56 60
        E 0 90 61 60
        E 0 90 62 60
        E 120 80 1a 00
        E 0 80 1f 00
        E 0 80 3d 00
        E 0 80 3e 00
        E 0 80 49 00
        E 0 80 4a 00
        E 0 80 55 00
        E 0 80 56 00
        E 0 80 61 00
        E 0 80 62 00
        E 0 90 18 60 40
        E 0 90 60 60 40
        E 120 80 18 00 40
        E 0 80 60 00 40
        E 120 90 18 60 -40
        E 0 90 60 60 -40
        E 120 80 18 00 -40
        E 0 80 60 00 -40
        E 0 90 1a 60
        E 0 90 55 60
        E 0 90 61 60
        E 120 80 1a 00
        E 0 80 55 00
        E 0 80 61 00
        E 360 90 1a 60
        E 0 90 1f 60
        E 0 90 3d 60
        E 0 90 3e 60
        E 0 90 49 60
        E 0 90 4a 60
        E 0 90 55 60
        E 0 90 56 60
        E 0 90 61 60
        E 0 90 62 60
        E 120 80 1a 00
        E 0 80 1f 00
        E 0 80 3d 00
        E 0 80 3e 00
        E 0 80 49 00
        E 0 80 4a 00
        E 0 80 55 00
        E 0 80 56 00
        E 0 80 61 00
        E 0 80 62 00
        E 0 90 18 60 40
        E 0 90 60 60 40
        E 120 80 18 00 40
        E 0 80 60 00 40
        E 120 90 18 60 -40
        E 0 90 60 60 -40
        E 120 80 18 00 -40
        E 0 80 60 00 -40
        E 0 90 1a 60
        E 0 90 1f 60
        E 0 90 49 60
        E 0 90 4a 60
        E 0 90 55 60
        E 0 90 56 60
        E 0 90 61 60
        E 0 90 62 60
        E 120 80 1a 00
        E 0 80 1f 00
        E 0 80 49 00
        E 0 80 4a 00
        E 0 80 55 00
        E 0 80 56 00
        E 0 80 61 00
        E 0 80 62 00
        E 0 90 18 60 40
        E 0 90 60 60 40
        E 120 80 18 00 40
        E 0 80 60 00 40
        E 120 90 18 60 -40
        E 0 90 60 60 -40
        E 120 80 18 00 -40
        E 0 80 60 00 -40
        E 0 90 1a 60
        E 0 90 1f 60
        E 0 90 3d 60
        E 0 90 3e 60
        E 0 90 49 60
        E 0 90 4a 60
        E 0 90 55 60
        E 0 90 56 60
        E 0 90 61 60
        E 0 90 62 60
        E 120 80 1a 00
        E 0 80 1f 00
        E 0 80 3d 00
        E 0 80 3e 00
        E 0 80 49 00
        E 0 80 4a 00
        E 0 80 55 00
        E 0 80 56 00
        E 0 80 61 00
        E 0 80 62 00
        E 0 90 18 60 40
        E 0 90 60 60 40
        E 120 80 18 00 40
        E 0 80 60 00 40
        E 120 90 18 60 -40
        E 0 90 60 60 -40
        E 120 80 18 00 -40
        E 0 80 60 00 -40
        E 0 90 1a 60
        E 0 90 55 60
        E 0 90 61 60
        E 120 80 1a 00
        E 0 80 55 00
        E 0 80 61 00
        E 360 90 1a 60
        E 0 90 1f 60
        E 0 90 3d 60
        E 0 90 3e 60
        E 0 90 49 60
        E 0 90 4a 60
        E 0 90 55 60
        E 0 90 56 60
        E 0 90 61 60
        E 0 90 62 60
        E 120 80 1a 00
        E 0 80 1f 00
        E 0 80 3d 00
        E 0 80 3e 00
        E 0 80 49 00
        E 0 80 4a 00
        E 0 80 55 00
        E 0 80 56 00
        E 0 80 61 00
        E 0 80 62 00
        E 0 90 18 60 40
        E 0 90 60 60 40
        E 120 80 18 00 40
        E 0 80 60 00 40
        E 120 90 18 60 -40
        E 0 90 60 60 -40
        E 120 80 18 00 -40
        E 0 80 60 00 -40
        E 0 90 1a 60
        E 0 90 1f 60
        E 0 90 49 60
        E 0 90 4a 60
        E 0 90 55 60
        E 0 90 56 60
        E 0 90 61 60
        E 0 90 62 60
        E 120 80 1a 00
        E 0 80 1f 00
        E 0 80 49 00
        E 0 80 4a 00
        E 0 80 55 00
        E 0 80 56 00
        E 0 80 61 00
        E 0 80 62 00
        E 0 90 18 60 40
        E 0 90 60 60 40
        E 120 80 18 00 40
        E 0 80 60 00 40
        E 120 90 18 60 -40
        E 0 90 60 60 -40
        E 120 80 18 00 -40
        E 0 80 60 00 -40
        E 0 90 1a 60
        E 0 90 1f 60
        E 0 90 3d 60
        E 0 90 3e 60
        E 0 90 49 60
        E 0 90 4a 60
        E 0 90 55 60
        E 0 90 56 60
        E 0 90 61 60
        E 0 90 62 60
        E 120 80 1a 00
        E 0 80 1f 00
        E 0 80 3d 00
        E 0 80 3e 00
        E 0 80 49 00
        E 0 80 4a 00
        E 0 80 55 00
        E 0 80 56 00
        E 0 80 61 00
        E 0 80 62 00
        E 0 90 18 60 40
        E 0 90 60 60 40
        E 120 80 18 00 40
        E 0 80 60 00 40
        E 120 90 18 60 -40
        E 0 90 60 60 -40
        E 120 80 18 00 -40
        E 0 80 60 00 -40
        E 0 90 1a 60
        E 0 90 55 60
        E 0 90 61 60
        E 120 80 1a 00
        E 0 80 55 00
        E 0 80 61 00
        E 360 90 1a 60
        E 0 90 1f 60
        E 0 90 3d 60
        E 0 90 3e 60
        E 0 90 49 60
        E 0 90 4a 60
        E 0 90 55 60
        E 0 90 56 60
        E 0 90 61 60
        E 0 90 62 60
        E 0 90 78 60
        E 0 90 79 60
        E 0 90 7a 60
        E 0 90 7b 60
        E 0 90 7c 60
        E 120 80 1a 00
        E 0 80 1f 00
        E 0 80 3d 00
        E 0 80 3e 00
        E 0 80 49 00
        E 0 80 4a 00
        E 0 80 55 00
        E 0 80 56 00
        E 0 80 61 00
        E 0 80 62 00
        E 0 90 18 60 40
        E 0 90 60 60 40
        E 120 80 18 00 40
        E 0 80 60 00 40
        E 120 90 18 60 -40
        E 0 90 60 60 -40
        E 120 80 18 00 -40
        E 0 80 60 00 -40
        E 0 90 1a 60
        E 0 90 1f 60
        E 0 90 49 60
        E 0 90 4a 60
        E 0 90 55 60
        E 0 90 56 60
        E 0 90 61 60
        E 0 90 62 60
        E 120 80 1a 00
        E 0 80 1f 00
        E 0 80 49 00
        E 0 80 4a 00
        E 0 80 55 00
        E 0 80 56 00
        E 0 80 61 00
        E 0 80 62 00
        E 0 90 18 60 40
        E 0 90 60 60 40
        E 120 80 18 00 40
        E 0 80 60 00 40
        E 120 90 18 60 -40
        E 0 90 60 60 -40
        E 120 80 18 00 -40
        E 0 80 60 00 -40
        E 0 90 1a 60
        E 0 90 1f 60
        E 0 90 3d 60
        E 0 90 3e 60
        E 0 90 49 60
        E 0 90 4a 60
        E 0 90 55 60
        E 0 90 56 60
        E 0 90 61 60
        E 0 90 62 60
        E 120 80 1a 00
        E 0 80 1f 00
        E 0 80 3d 00
        E 0 80 3e 00
        E 0 80 49 00
        E 0 80 4a 00
        E 0 80 55 00
        E 0 80 56 00
        E 0 80 61 00
        E 0 80 62 00
        E 0 90 18 60 40
        E 0 90 60 60 40
        E 120 80 18 00 40
        E 0 80 60 00 40
        E 120 90 18 60 -40
        E 0 90 60 60 -40
        E 120 80 18 00 -40
        E 0 80 60 00 -40
        E 0 90 1a 60
        E 0 90 55 60
        E 0 90 61 60
        E 120 80 1a 00
        E 0 80 55 00
        E 0 80 61 00
        E 360 80 78 00
        E 0 80 79 00
        E 0 80 7a 00
        E 0 80 7b 00
        E 0 80 7c 00
        E 0 90 1a 60
        E 0 90 1f 60
        E 0 90 3d 60
        E 0 90 3e 60
        E 0 90 49 60
        E 0 90 4a 60
        E 0 90 55 60
        E 0 90 56 60
        E 0 90 61 60
        E 0 90 62 60
        E 120 80 1a 00
        E 0 80 1f 00
        E 0 80 3d 00
        E 0 80 3e 00
        E 0 80 49 00
        E 0 80 4a 00
        E 0 80 55 00
        E 0 80 56 00
        E 0 80 61 00
        E 0 80 62 00
        E 0 90 18 60 40
        E 0 90 60 60 40
        E 120 80 18 00 40
        E 0 80 60 00 40
        E 120 90 18 60 -40
        E 0 90 60 60 -40
        E 120 80 18 00 -40
        E 0 80 60 00 -40
        E 0 90 1a 60
        E 0 90 1f 60
        E 0 90 49 60
        E 0 90 4a 60
        E 0 90 55 60
        E 0 90 56 60
        E 0 90 61 60
        E 0 90 62 60
        E 120 80 1a 00
        E 0 80 1f 00
        E 0 80 49 00
        E 0 80 4a 00
        E 0 80 55 00
        E 0 80 56 00
        E 0 80 61 00
        E 0 80 62 00
        E 0 90 18 60 40
        E 0 90 60 60 40
        E 120 80 18 00 40
        E 0 80 60 00 40
        E 120 90 18 60 -40
        E 0 90 60 60 -40
        E 120 80 18 00 -40
        E 0 80 60 00 -40
        E 0 90 1a 60
        E 0 90 1f 60
        E 0 90 3d 60
        E 0 90 3e 60
        E 0 90 49 60
        E 0 90 4a 60
        E 0 90 55 60
        E 0 90 56 60
        E 0 90 61 60
        E 0 90 62 60
        E 120 80 1a 00
        E 0 80 1f 00
        E 0 80 3d 00
        E 0 80 3e 00
        E 0 80 49 00
        E 0 80 4a 00
        E 0 80 55 00
        E 0 80 56 00
        E 0 80 61 00
        E 0 80 62 00
        E 0 90 18 60 40
        E 0 90 60 60 40
        E 120 80 18 00 40
        E 0 80 60 00 40
        E 120 90 18 60 -40
        E 0 90 60 60 -40
        E 120 80 18 00 -40
        E 0 80 60 00 -40
        E 0 90 1a 60
        E 0 90 55 60
        E 0 90 61 60
        E 120 80 1a 00
        E 0 80 55 00
        E 0 80 61 00
        E 360 90 1a 60
        E 0 90 1f 60
        E 0 90 3d 60
        E 0 90 3e 60
        E 0 90 49 60
        E 0 90 4a 60
        E 0 90 55 60
        E 0 90 56 60
        E 0 90 61 60
        E 0 90 62 60
        E 120 80 1a 00
        E 0 80 1f 00
        E 0 80 3d 00
        E 0 80 3e 00
        E 0 80 49 00
        E 0 80 4a 00
        E 0 80 55 00
        E 0 80 56 00
        E 0 80 61 00
        E 0 80 62 00
        E 0 90 18 60 40
        E 0 90 60 60 40
        E 120 80 18 00 40
        E 0 80 60 00 40
        E 120 90 18 60 -40
        E 0 90 60 60 -40
        E 120 80 18 00 -40
        E 0 80 60 00 -40
        E 0 90 1a 60
        E 0 90 1f 60
        E 0 90 49 60
        E 0 90 4a 60
        E 0 90 55 60
        E 0 90 56 60
        E 0 90 61 60
        E 0 90 62 60
        E 120 80 1a 00
        E 0 80 1f 00
        E 0 80 49 00
        E 0 80 4a 00
        E 0 80 55 00
        E 0 80 56 00
        E 0 80 61 00
        E 0 80 62 00
        E 0 90 18 60 40
        E 0 90 60 60 40
        E 120 80 18 00 40
        E 0 80 60 00 40
        E 120 90 18 60 -40
        E 0 90 60 60 -40
        E 120 80 18 00 -40
        E 0 80 60 00 -40
        E 0 90 1a 60
        E 0 90 1f 60
        E 0 90 3d 60
        E 0 90 3e 60
        E 0 90 49 60
        E 0 90 4a 60
        E 0 90 55 60
        E 0 90 56 60
        E 0 90 61 60
        E 0 90 62 60
        E 120 80 1a 00
        E 0 80 1f 00
        E 0 80 3d 00
        E 0 80 3e 00
        E 0 80 49 00
        E 0 80 4a 00
        E 0 80 55 00
        E 0 80 56 00
        E 0 80 61 00
        E 0 80 62 00
        E 0 90 18 60 40
        E 0 90 60 60 40
        E 120 80 18 00 40
        E 0 80 60 00 40
        E 120 90 18 60 -40
        E 0 90 60 60 -40
        E 120 80 18 00 -40
        E 0 80 60 00 -40
        E 0 90 1a 60
        E 0 90 55 60
        E 0 90 61 60
        E 120 80 1a 00
        E 0 80 55 00
        E 0 80 61 00
        E 360 90 1a 60
        E 0 90 1f 60
        E 0 90 3d 60
        E 0 90 3e 60
        E 0 90 49 60
        E 0 90 4a 60
        E 0 90 55 60
        E 0 90 56 60
        E 0 90 61 60
        E 0 90 62 60
        E 120 80 1a 00
        E 0 80 1f 00
        E 0 80 3d 00
        E 0 80 3e 00
        E 0 80 49 00
        E 0 80 4a 00
        E 0 80 55 00
        E 0 80 56 00
        E 0 80 61 00
        E 0 80 62 00
        E 0 90 18 60 40
        E 0 90 60 60 40
        E 120 80 18 00 40
        E 0 80 60 00 40
        E 120 90 18 60 -40
        E 0 90 60 60 -40
        E 120 80 18 00 -40
        E 0 80 60 00 -40
        E 0 90 1a 60
        E 0 90 1f 60
        E 0 90 49 60
        E 0 90 4a 60
        E 0 90 55 60
        E 0 90 56 60
        E 0 90 61 60
        E 0 90 62 60
        E 120 80 1a 00
        E 0 80 1f 00
        E 0 80 49 00
        E 0 80 4a 00
        E 0 80 55 00
        E 0 80 56 00
        E 0 80 61 00
        E 0 80 62 00
        E 0 90 18 60 40
        E 0 90 60 60 40
        E 120 80 18 00 40
        E 0 80 60 00 40
        E 120 90 18 60 -40
        E 0 90 60 60 -40
        E 120 80 18 00 -40
        E 0 80 60 00 -40
        E 0 90 1a 60
        E 0 90 1f 60
        E 0 90 3d 60
        E 0 90 3e 60
        E 0 90 49 60
        E 0 90 4a 60
        E 0 90 55 60
        E 0 90 56 60
        E 0 90 61 60
        E 0 90 62 60
        E 120 80 1a 00
        E 0 80 1f 00
        E 0 80 3d 00
        E 0 80 3e 00
        E 0 80 49 00
        E 0 80 4a 00
        E 0 80 55 00
        E 0 80 56 00
        E 0 80 61 00
        E 0 80 62 00
        E 0 90 18 60 40
        E 0 90 60 60 40
        E 120 80 18 00 40
        E 0 80 60 00 40
        E 120 90 18 60 -40
        E 0 90 60 60 -40
        E 120 80 18 00 -40
        E 0 80 60 00 -40
        E 0 90 1a 60
        E 0 90 55 60
        E 0 90 61 60
        E 120 80 1a 00
        E 0 80 55 00
        E 0 80 61 00
        E 360 90 1a 60
        E 0 90 1f 60
        E 0 90 3d 60
        E 0 90 3e 60
        E 0 90 49 60
        E 0 90 4a 60
        E 0 90 55 60
        E 0 90 56 60
        E 0 90 61 60
        E 0 90 62 60
        E 0 90 78 60
        E 0 90 79 60
        E 0 90 7a 60
        E 0 90 7b 60
        E 0 90 7c 60
        E 120 80 1a 00
        E 0 80 1f 00
        E 0 80 3d 00
        E 0 80 3e 00
        E 0 80 49 00
        E 0 80 4a 00
        E 0 80 55 00
        E 0 80 56 00
        E 0 80 61 00
        E 0 80 62 00
        E 0 90 18 60 40
        E 0 90 60 60 40
        E 120 80 18 00 40
        E 0 80 60 00 40
        E 120 90 18 60 -40
        E 0 90 60 60 -40
        E 120 80 18 00 -40
        E 0 80 60 00 -40
        E 0 90 1a 60
        E 0 90 1f 60
        E 0 90 49 60
        E 0 90 4a 60
        E 0 90 55 60
        E 0 90 56 60
        E 0 90 61 60
        E 0 90 62 60
        E 120 80 1a 00
        E 0 80 1f 00
        E 0 80 49 00
        E 0 80 4a 00
        E 0 80 55 00
        E 0 80 56 00
        E 0 80 61 00
        E 0 80 62 00
        E 0 90 18 60 40
        E 0 90 60 60 40
        E 120 80 18 00 40
        E 0 80 60 00 40
        E 120 90 18 60 -40
        E 0 90 60 60 -40
        E 120 80 18 00 -40
        E 0 80 60 00 -40
        E 0 90 1a 60
        E 0 90 1f 60
        E 0 90 3d 60
        E 0 90 3e 60
        E 0 90 49 60
        E 0 90 4a 60
        E 0 90 55 60
        E 0 90 56 60
        E 0 90 61 60
        E 0 90 62 60
        E 120 80 1a 00
        E 0 80 1f 00
        E 0 80 3d 00
        E 0 80 3e 00
        E 0 80 49 00
        E 0 80 4a 00
        E 0 80 55 00
        E 0 80 56 00
        E 0 80 61 00
        E 0 80 62 00
        E 120 90 1a 60
        E 0 90 31 60
        E 0 90 55 60
        E 0 90 57 60
        E 0 90 61 60
        E 0 90 63 60
        E 0 90 6f 60
        E 120 80 1a 00
        E 0 80 31 00
        E 0 80 55 00
        E 0 80 57 00
        E 0 80 61 00
        E 0 80 63 00
        E 120 90 1a 60
        E 0 90 31 60
        E 0 90 49 60
        E 0 90 4b 60
        E 0 90 55 60
        E 0 90 57 60
        E 0 90 61 60
        E 0 90 63 60
        E 120 80 6f 00
        E 0 80 1a 00
        E 0 80 31 00
        E 0 80 49 00
        E 0 80 4b 00
        E 0 80 55 00
        E 0 80 57 00
        E 0 80 61 00
        E 0 80 63 00
        E 360 80 19 00
        E 0 80 78 00
        E 0 80 79 00
        E 0 80 7a 00
        E 0 80 7b 00
        E 0 80 7c 00
        E 0 90 18 60
        E 0 90 26 60
        E 0 90 40 60
        E 0 90 48 60
        E 0 90 4c 60
        E 0 90 54 60
        E 0 90 58 60
        E 0 90 60 60
        E 0 90 64 60
        E 120 80 18 00
        E 0 80 26 00
        E 0 80 40 00
        E 0 80 48 00
        E 0 80 4c 00
        E 0 80 54 00
        E 0 80 58 00
        E 0 80 60 00
        E 0 80 64 00
        E 120 90 19 60
        E 240 80 19 00
        E 0 90 1a 60
        E 0 90 26 60
        E 0 90 3d 60
        E 0 90 40 60
        E 0 90 49 60
        E 0 90 4c 60
        E 0 90 55 60
        E 0 90 58 60
        E 0 90 61 60
        E 0 90 64 60
        E 120 80 1a 00
        E 0 80 26 00
        E 0 80 3d 00
        E 0 80 40 00
        E 0 80 49 00
        E 0 80 4c 00
        E 0 80 55 00
        E 0 80 58 00
        E 0 80 61 00
        E 0 80 64 00
        E 120 90 19 60
        E 240 80 19 00
        E 0 90 18 60
        E 0 90 26 60
        E 0 90 40 60
        E 0 90 4c 60
        E 0 90 54 60
        E 0 90 58 60
        E 0 90 60 60
        E 0 90 64 60
        E 120 80 18 00
        E 0 80 26 00
        E 0 80 40 00
        E 0 80 4c 00
        E 0 80 54 00
        E 0 80 58 00
        E 0 80 60 00
        E 0 80 64 00
        E 120 90 18 60
        E 0 90 19 60
        E 0 90 60 60
        E 120 80 18 00
        E 0 80 60 00
        E 120 80 19 00
        E 0 90 1a 60
        E 0 90 26 60
        E 0 90 3d 60
        E 0 90 40 60
        E 0 90 49 60
        E 0 90 4c 60
        E 0 90 55 60
        E 0 90 58 60
        E 0 90 61 60
        E 0 90 64 60
        E 120 80 1a 00
        E 0 80 26 00
        E 0 80 3d 00
        E 0 80 40 00
        E 0 80 49 00
        E 0 80 4c 00
        E 0 80 55 00
        E 0 80 58 00
        E 0 80 61 00
        E 0 80 64 00
        E 120 90 19 60
        E 240 80 19 00
        E 0 90 18 60
        E 0 90 26 60
        E 0 90 40 60
        E 0 90 4c 60
        E 0 90 54 60
        E 0 90 58 60
        E 0 90 60 60
        E 0 90 64 60
        E 120 80 18 00
        E 0 80 26 00
        E 0 80 40 00
        E 0 80 4c 00
        E 0 80 54 00
        E 0 80 58 00
        E 0 80 60 00
        E 0 80 64 00
        E 120 90 19 60
        E 240 80 19 00
        E 0 90 1a 60
        E 0 90 26 60
        E 0 90 3d 60
        E 0 90 40 60
        E 0 90 49 60
        E 0 90 4c 60
        E 0 90 55 60
        E 0 90 58 60
        E 0 90 61 60
        E 0 90 64 60
        E 120 80 1a 00
        E 0 80 26 00
        E 0 80 3d 00
        E 0 80 40 00
        E 0 80 49 00
        E 0 80 4c 00
        E 0 80 55 00
        E 0 80 58 00
        E 0 80 61 00
        E 0 80 64 00
        E 120 90 19 60
        E 240 80 19 00
        E 0 90 18 60
        E 0 90 26 60
        E 0 90 40 60
        E 0 90 4c 60
        E 0 90 54 60
        E 0 90 58 60
        E 0 90 60 60
        E 0 90 64 60
        E 120 80 18 00
        E 0 80 26 00
        E 0 80 40 00
        E 0 80 4c 00
        E 0 80 54 00
        E 0 80 58 00
        E 0 80 60 00
        E 0 80 64 00
        E 120 90 18 60
        E 0 90 19 60
        E 0 90 60 60
        E 120 80 18 00
        E 0 80 60 00
        E 120 80 19 00
        E 0 90 1a 60
        E 0 90 26 60
        E 0 90 3d 60
        E 0 90 40 60
        E 0 90 49 60
        E 0 90 4c 60
        E 0 90 55 60
        E 0 90 58 60
        E 0 90 61 60
        E 0 90 64 60
        E 120 80 1a 00
        E 0 80 26 00
        E 0 80 3d 00
        E 0 80 40 00
        E 0 80 49 00
        E 0 80 4c 00
        E 0 80 55 00
        E 0 80 58 00
        E 0 80 61 00
        E 0 80 64 00
        E 120 90 19 60
        E 240 80 19 00
        E 0 90 18 60
        E 0 90 26 60
        E 0 90 40 60
        E 0 90 48 60
        E 0 90 4c 60
        E 0 90 54 60
        E 0 90 58 60
        E 0 90 60 60
        E 0 90 64 60
        E 0 90 74 60
        E 120 80 18 00
        E 0 80 26 00
        E 0 80 40 00
        E 0 80 48 00
        E 0 80 4c 00
        E 0 80 54 00
        E 0 80 58 00
        E 0 80 60 00
        E 0 80 64 00
        E 120 90 19 60
        E 240 80 19 00
        E 0 90 1a 60
        E 0 90 26 60
        E 0 90 3d 60
        E 0 90 40 60
        E 0 90 49 60
        E 0 90 4c 60
        E 0 90 55 60
        E 0 90 58 60
        E 0 90 61 60
        E 0 90 64 60
        E 120 80 1a 00
        E 0 80 26 00
        E 0 80 3d 00
        E 0 80 40 00
        E 0 80 49 00
        E 0 80 4c 00
        E 0 80 55 00
        E 0 80 58 00
        E 0 80 61 00
        E 0 80 64 00
        E 120 90 19 60
        E 240 80 19 00
        E 0 90 18 60
        E 0 90 26 60
        E 0 90 40 60
        E 0 90 4c 60
        E 0 90 54 60
        E 0 90 58 60
        E 0 90 60 60
        E 0 90 64 60
        E 120 80 18 00
        E 0 80 26 00
        E 0 80 40 00
        E 0 80 4c 00
        E 0 80 54 00
        E 0 80 58 00
        E 0 80 60 00
        E 0 80 64 00
        E 120 90 18 60
        E 0 90 19 60
        E 0 90 60 60
        E 120 80 18 00
        E 0 80 60 00
        E 120 80 19 00
        E 0 90 1a 60
        E 0 90 26 60
        E 0 90 3d 60
        E 0 90 40 60
        E 0 90 49 60
        E 0 90 4c 60
        E 0 90 55 60
        E 0 90 58 60
        E 0 90 61 60
        E 0 90 64 60
        E 120 80 1a 00
        E 0 80 26 00
        E 0 80 3d 00
        E 0 80 40 00
        E 0 80 49 00
        E 0 80 4c 00
        E 0 80 55 00
        E 0 80 58 00
        E 0 80 61 00
        E 0 80 64 00
        E 120 90 19 60
        E 240 80 19 00
        E 0 90 18 60
        E 0 90 26 60
        E 0 90 40 60
        E 0 90 4c 60
        E 0 90 54 60
        E 0 90 58 60
        E 0 90 60 60
        E 0 90 64 60
        E 120 80 18 00
        E 0 80 26 00
        E 0 80 40 00
        E 0 80 4c 00
        E 0 80 54 00
        E 0 80 58 00
        E 0 80 60 00
        E 0 80 64 00
        E 120 90 19 60
        E 240 80 19 00
        E 0 90 1a 60
        E 0 90 26 60
        E 0 90 3d 60
        E 0 90 40 60
        E 0 90 49 60
        E 0 90 4c 60
        E 0 90 55 60
        E 0 90 58 60
        E 0 90 61 60
        E 0 90 64 60
        E 120 80 1a 00
        E 0 80 26 00
        E 0 80 3d 00
        E 0 80 40 00
        E 0 80 49 00
        E 0 80 4c 00
        E 0 80 55 00
        E 0 80 58 00
        E 0 80 61 00
        E 0 80 64 00
        E 120 90 19 60
        E 240 80 19 00
        E 0 90 18 60
        E 0 90 26 60
        E 0 90 40 60
        E 0 90 4c 60
        E 0 90 54 60
        E 0 90 58 60
        E 0 90 60 60
        E 0 90 64 60
        E 120 80 18 00
        E 0 80 26 00
        E 0 80 40 00
        E 0 80 4c 00
        E 0 80 54 00
        E 0 80 58 00
        E 0 80 60 00
        E 0 80 64 00
        E 120 90 18 60
        E 0 90 19 60
        E 0 90 60 60
        E 120 80 18 00
        E 0 80 60 00
        E 120 80 19 00
        E 0 90 1a 60
        E 0 90 26 60
        E 0 90 3d 60
        E 0 90 40 60
        E 0 90 49 60
        E 0 90 4c 60
        E 0 90 55 60
        E 0 90 58 60
        E 0 90 61 60
        E 0 90 64 60
        E 120 80 1a 00
        E 0 80 26 00
        E 0 80 3d 00
        E 0 80 40 00
        E 0 80 49 00
        E 0 80 4c 00
        E 0 80 55 00
        E 0 80 58 00
        E 0 80 61 00
        E 0 80 64 00
        E 120 90 19 60
        E 240 80 74 00
        E 0 80 19 00
        E 0 90 18 60
        E 0 90 26 60
        E 0 90 40 60
        E 0 90 48 60
        E 0 90 4c 60
        E 0 90 54 60
        E 0 90 58 60
        E 0 90 60 60
        E 0 90 64 60
        E 120 80 18 00
        E 0 80 26 00
        E 0 80 40 00
        E 0 80 48 00
        E 0 80 4c 00
        E 0 80 54 00
        E 0 80 58 00
        E 0 80 60 00
        E 0 80 64 00
        E 120 90 19 60
        E 240 80 19 00
        E 0 90 1a 60
        E 0 90 26 60
        E 0 90 3d 60
        E 0 90 40 60
        E 0 90 49 60
        E 0 90 4c 60
        E 0 90 55 60
        E 0 90 58 60
        E 0 90 61 60
        E 0 90 64 60
        E 120 80 1a 00
        E 0 80 26 00
        E 0 80 3d 00
        E 0 80 40 00
        E 0 80 49 00
        E 0 80 4c 00
        E 0 80 55 00
        E 0 80 58 00
        E 0 80 61 00
        E 0 80 64 00
        E 120 90 19 60
        E 240 80 19 00
        E 0 90 18 60
        E 0 90 26 60
        E 0 90 40 60
        E 0 90 4c 60
        E 0 90 54 60
        E 0 90 58 60
        E 0 90 60 60
        E 0 90 64 60
        E 120 80 18 00
        E 0 80 26 00
        E 0 80 40 00
        E 0 80 4c 00
        E 0 80 54 00
        E 0 80 58 00
        E 0 80 60 00
        E 0 80 64 00
        E 120 90 18 60
        E 0 90 19 60
        E 0 90 60 60
        E 120 80 18 00
        E 0 80 60 00
        E 120 80 19 00
        E 0 90 1a 60
        E 0 90 26 60
        E 0 90 3d 60
        E 0 90 40 60
        E 0 90 49 60
        E 0 90 4c 60
        E 0 90 55 60
        E 0 90 58 60
        E 0 90 61 60
        E 0 90 64 60
        E 120 80 1a 00
        E 0 80 26 00
        E 0 80 3d 00
        E 0 80 40 00
        E 0 80 49 00
        E 0 80 4c 00
        E 0 80 55 00
        E 0 80 58 00
        E 0 80 61 00
        E 0 80 64 00
        E 120 90 19 60
        E 240 80 19 00
        E 0 90 18 60
        E 0 90 26 60
        E 0 90 40 60
        E 0 90 4c 60
        E 0 90 54 60
        E 0 90 58 60
        E 0 90 60 60
        E 0 90 64 60
        E 120 80 18 00
        E 0 80 26 00
        E 0 80 40 00
        E 0 80 4c 00
        E 0 80 54 00
        E 0 80 58 00
        E 0 80 60 00
        E 0 80 64 00
        E 120 90 19 60
        E 240 80 19 00
        E 0 90 1a 60
        E 0 90 26 60
        E 0 90 3d 60
        E 0 90 40 60
        E 0 90 49 60
        E 0 90 4c 60
        E 0 90 55 60
        E 0 90 58 60
        E 0 90 61 60
        E 0 90 64 60
        E 120 80 1a 00
        E 0 80 26 00
        E 0 80 3d 00
        E 0 80 40 00
        E 0 80 49 00
        E 0 80 4c 00
        E 0 80 55 00
        E 0 80 58 00
        E 0 80 61 00
        E 0 80 64 00
        E 120 90 19 60
        E 240 80 19 00
        E 0 90 18 60
        E 0 90 26 60
        E 0 90 40 60
        E 0 90 4c 60
        E 0 90 54 60
        E 0 90 58 60
        E 0 90 60 60
        E 0 90 64 60
        E 120 80 18 00
        E 0 80 26 00
        E 0 80 40 00
        E 0 80 4c 00
        E 0 80 54 00
        E 0 80 58 00
        E 0 80 60 00
        E 0 80 64 00
        E 120 90 18 60
        E 0 90 19 60
        E 0 90 60 60
        E 120 80 18 00
        E 0 80 60 00
        E 120 80 19 00
        E 0 90 1a 60
        E 0 90 26 60
        E 0 90 3d 60
        E 0 90 40 60
        E 0 90 49 60
        E 0 90 4c 60
        E 0 90 55 60
        E 0 90 58 60
        E 0 90 61 60
        E 0 90 64 60
        E 120 80 1a 00
        E 0 80 26 00
        E 0 80 3d 00
        E 0 80 40 00
        E 0 80 49 00
        E 0 80 4c 00
        E 0 80 55 00
        E 0 80 58 00
        E 0 80 61 00
        E 0 80 64 00
        E 120 90 19 60
        E 240 80 19 00
        E 0 90 18 60
        E 0 90 26 60
        E 0 90 40 60
        E 0 90 48 60
        E 0 90 4c 60
        E 0 90 54 60
        E 0 90 58 60
        E 0 90 60 60
        E 0 90 64 60
        E 120 80 18 00
        E 0 80 26 00
        E 0 80 40 00
        E 0 80 48 00
        E 0 80 4c 00
        E 0 80 54 00
        E 0 80 58 00
        E 0 80 60 00
        E 0 80 64 00
        E 120 90 19 60
        E 240 80 19 00
        E 0 90 1a 60
        E 0 90 26 60
        E 0 90 3d 60
        E 0 90 40 60
        E 0 90 49 60
        E 0 90 4c 60
        E 0 90 55 60
        E 0 90 58 60
        E 0 90 61 60
        E 0 90 64 60
        E 120 80 1a 00
        E 0 80 26 00
        E 0 80 3d 00
        E 0 80 40 00
        E 0 80 49 00
        E 0 80 4c 00
        E 0 80 55 00
        E 0 80 58 00
        E 0 80 61 00
        E 0 80 64 00
        E 120 90 19 60
        E 240 80 19 00
        E 0 90 18 60
        E 0 90 26 60
        E 0 90 40 60
        E 0 90 4c 60
        E 0 90 54 60
        E 0 90 58 60
        E 0 90 60 60
        E 0 90 64 60
        E 120 80 18 00
        E 0 80 26 00
        E 0 80 40 00
        E 0 80 4c 00
        E 0 80 54 00
        E 0 80 58 00
        E 0 80 60 00
        E 0 80 64 00
        E 120 90 18 60
        E 0 90 19 60
        E 0 90 60 60
        E 120 80 18 00
        E 0 80 60 00
        E 120 80 19 00
        E 0 90 1a 60
        E 0 90 26 60
        E 0 90 3d 60
        E 0 90 40 60
        E 0 90 49 60
        E 0 90 4c 60
        E 0 90 55 60
        E 0 90 58 60
        E 0 90 61 60
        E 0 90 64 60
        E 120 80 1a 00
        E 0 80 26 00
        E 0 80 3d 00
        E 0 80 40 00
        E 0 80 49 00
        E 0 80 4c 00
        E 0 80 55 00
        E 0 80 58 00
        E 0 80 61 00
        E 0 80 64 00
        E 120 90 19 60
        E 240 80 19 00
        E 0 90 18 60
        E 0 90 26 60
        E 0 90 40 60
        E 0 90 4c 60
        E 0 90 54 60
        E 0 90 58 60
        E 0 90 60 60
        E 0 90 64 60
        E 0 90 78 60
        E 0 90 79 60
        E 0 90 7a 60
        E 0 90 7b 60
        E 0 90 7c 60
        E 120 80 18 00
        E 0 80 26 00
        E 0 80 40 00
        E 0 80 4c 00
        E 0 80 54 00
        E 0 80 58 00
        E 0 80 60 00
        E 0 80 64 00
        E 120 90 19 60
        E 240 80 19 00
        E 0 90 1a 60
        E 0 90 26 60
        E 0 90 3d 60
        E 0 90 40 60
        E 0 90 49 60
        E 0 90 4c 60
        E 0 90 55 60
        E 0 90 58 60
        E 0 90 61 60
        E 0 90 64 60
        E 120 80 1a 00
        E 0 80 26 00
        E 0 80 3d 00
        E 0 80 40 00
        E 0 80 49 00
        E 0 80 4c 00
        E 0 80 55 00
        E 0 80 58 00
        E 0 80 61 00
        E 0 80 64 00
        E 120 90 19 60
        E 240 80 19 00
        E 0 90 18 60
        E 0 90 26 60
        E 0 90 40 60
        E 0 90 4c 60
        E 0 90 54 60
        E 0 90 58 60
        E 0 90 60 60
        E 0 90 64 60
        E 120 80 18 00
        E 0 80 26 00
        E 0 80 40 00
        E 0 80 4c 00
        E 0 80 54 00
        E 0 80 58 00
        E 0 80 60 00
        E 0 80 64 00
        E 120 90 18 60
        E 0 90 19 60
        E 0 90 60 60
        E 120 80 18 00
        E 0 80 60 00
        E 120 80 19 00
        E 0 90 1a 60
        E 0 90 26 60
        E 0 90 3d 60
        E 0 90 40 60
        E 0 90 49 60
        E 0 90 4c 60
        E 0 90 55 60
        E 0 90 58 60
        E 0 90 61 60
        E 0 90 64 60
        E 120 80 1a 00
        E 0 80 26 00
        E 0 80 3d 00
        E 0 80 40 00
        E 0 80 49 00
        E 0 80 4c 00
        E 0 80 55 00
        E 0 80 58 00
        E 0 80 61 00
        E 0 80 64 00
        E 120 90 19 60
        E 240 80 78 00
        E 0 80 79 00
        E 0 80 7a 00
        E 0 80 7b 00
        E 0 80 7c 00
        E 0 80 19 00
        E 0 90 18 60
        E 0 90 26 60
        E 0 90 40 60
        E 0 90 48 60
        E 0 90 4c 60
        E 0 90 54 60
        E 0 90 58 60
        E 0 90 60 60
        E 0 90 64 60
        E 120 80 18 00
        E 0 80 26 00
        E 0 80 40 00
        E 0 80 48 00
        E 0 80 4c 00
        E 0 80 54 00
        E 0 80 58 00
        E 0 80 60 00
        E 0 80 64 00
        E 120 90 19 60
        E 240 80 19 00
        E 0 90 1a 60
        E 0 90 26 60
        E 0 90 3d 60
        E 0 90 40 60
        E 0 90 49 60
        E 0 90 4c 60
        E 0 90 55 60
        E 0 90 58 60
        E 0 90 61 60
        E 0 90 64 60
        E 120 80 1a 00
        E 0 80 26 00
        E 0 80 3d 00
        E 0 80 40 00
        E 0 80 49 00
        E 0 80 4c 00
        E 0 80 55 00
        E 0 80 58 00
        E 0 80 61 00
        E 0 80 64 00
        E 120 90 19 60
        E 240 80 19 00
        E 0 90 18 60
        E 0 90 26 60
        E 0 90 40 60
        E 0 90 4c 60
        E 0 90 54 60
        E 0 90 58 60
        E 0 90 60 60
        E 0 90 64 60
        E 120 80 18 00
        E 0 80 26 00
        E 0 80 40 00
        E 0 80 4c 00
        E 0 80 54 00
        E 0 80 58 00
        E 0 80 60 00
        E 0 80 64 00
        E 120 90 18 60
        E 0 90 19 60
        E 0 90 60 60
        E 120 80 18 00
        E 0 80 60 00
        E 120 80 19 00
        E 0 90 1a 60
        E 0 90 26 60
        E 0 90 3d 60
        E 0 90 40 60
        E 0 90 49 60
        E 0 90 4c 60
        E 0 90 55 60
        E 0 90 58 60
        E 0 90 61 60
        E 0 90 64 60
        E 120 80 1a 00
        E 0 80 26 00
        E 0 80 3d 00
        E 0 80 40 00
        E 0 80 49 00
        E 0 80 4c 00
        E 0 80 55 00
        E 0 80 58 00
        E 0 80 61 00
        E 0 80 64 00
        E 120 90 19 60
        E 240 80 19 00
        E 0 90 18 60
        E 0 90 26 60
        E 0 90 40 60
        E 0 90 4c 60
        E 0 90 54 60
        E 0 90 58 60
        E 0 90 60 60
        E 0 90 64 60
        E 120 80 18 00
        E 0 80 26 00
        E 0 80 40 00
        E 0 80 4c 00
        E 0 80 54 00
        E 0 80 58 00
        E 0 80 60 00
        E 0 80 64 00
        E 120 90 19 60
        E 240 80 19 00
        E 0 90 1a 60
        E 0 90 26 60
        E 0 90 3d 60
        E 0 90 40 60
        E 0 90 49 60
        E 0 90 4c 60
        E 0 90 55 60
        E 0 90 58 60
        E 0 90 61 60
        E 0 90 64 60
        E 120 80 1a 00
        E 0 80 26 00
        E 0 80 3d 00
        E 0 80 40 00
        E 0 80 49 00
        E 0 80 4c 00
        E 0 80 55 00
        E 0 80 58 00
        E 0 80 61 00
        E 0 80 64 00
        E 120 90 19 60
        E 240 80 19 00
        E 0 90 18 60
        E 0 90 26 60
        E 0 90 40 60
        E 0 90 4c 60
        E 0 90 54 60
        E 0 90 58 60
        E 0 90 60 60
        E 0 90 64 60
        E 120 80 18 00
        E 0 80 26 00
        E 0 80 40 00
        E 0 80 4c 00
        E 0 80 54 00
        E 0 80 58 00
        E 0 80 60 00
        E 0 80 64 00
        E 120 90 19 60
        E 240 80 19 00
        E 0 90 1a 60
        E 0 90 26 60
        E 0 90 3d 60
        E 0 90 40 60
        E 0 90 49 60
        E 0 90 4c 60
        E 0 90 55 60
        E 0 90 58 60
        E 0 90 61 60
        E 0 90 64 60
        E 120 80 1a 00
        E 0 80 26 00
        E 0 80 3d 00
        E 0 80 40 00
        E 0 80 49 00
        E 0 80 4c 00
        E 0 80 55 00
        E 0 80 58 00
        E 0 80 61 00
        E 0 80 64 00
        E 120 90 19 60
        E 240 80 19 00
        E 0 90 18 60
        E 0 90 26 60
        E 0 90 40 60
        E 0 90 48 60
        E 0 90 4c 60
        E 0 90 54 60
        E 0 90 58 60
        E 0 90 60 60
        E 0 90 64 60
        E 120 80 18 00
        E 0 80 26 00
        E 0 80 40 00
        E 0 80 48 00
        E 0 80 4c 00
        E 0 80 54 00
        E 0 80 58 00
        E 0 80 60 00
        E 0 80 64 00
        E 120 90 19 60
        E 240 80 19 00
        E 0 90 1a 60
        E 0 90 26 60
        E 0 90 3d 60
        E 0 90 40 60
        E 0 90 49 60
        E 0 90 4c 60
        E 0 90 55 60
        E 0 90 58 60
        E 0 90 61 60
        E 0 90 64 60
        E 120 80 1a 00
        E 0 80 26 00
        E 0 80 3d 00
        E 0 80 40 00
        E 0 80 49 00
        E 0 80 4c 00
        E 0 80 55 00
        E 0 80 58 00
        E 0 80 61 00
        E 0 80 64 00
        E 120 90 19 60
        E 240 80 19 00
        E 0 90 18 60
        E 0 90 26 60
        E 0 90 40 60
        E 0 90 4c 60
        E 0 90 54 60
        E 0 90 58 60
        E 0 90 60 60
        E 0 90 64 60
        E 120 80 18 00
        E 0 80 26 00
        E 0 80 40 00
        E 0 80 4c 00
        E 0 80 54 00
        E 0 80 58 00
        E 0 80 60 00
        E 0 80 64 00
        E 120 90 18 60
        E 0 90 19 60
        E 0 90 60 60
        E 120 80 18 00
        E 0 80 60 00
        E 120 80 19 00
        E 0 90 1a 60
        E 0 90 26 60
        E 0 90 3d 60
        E 0 90 40 60
        E 0 90 49 60
        E 0 90 4c 60
        E 0 90 55 60
        E 0 90 58 60
        E 0 90 61 60
        E 0 90 64 60
        E 120 80 1a 00
        E 0 80 26 00
        E 0 80 3d 00
        E 0 80 40 00
        E 0 80 49 00
        E 0 80 4c 00
        E 0 80 55 00
        E 0 80 58 00
        E 0 80 61 00
        E 0 80 64 00
        E 120 90 19 60
        E 240 80 19 00
        E 0 90 18 60
        E 0 90 26 60
        E 0 90 40 60
        E 0 90 4c 60
        E 0 90 54 60
        E 0 90 58 60
        E 0 90 60 60
        E 0 90 64 60
        E 120 80 18 00
        E 0 80 26 00
        E 0 80 40 00
        E 0 80 4c 00
        E 0 80 54 00
        E 0 80 58 00
        E 0 80 60 00
        E 0 80 64 00
        E 120 90 19 60
        E 240 80 19 00
        E 0 90 1a 60
        E 0 90 26 60
        E 0 90 3d 60
        E 0 90 40 60
        E 0 90 49 60
        E 0 90 4c 60
        E 0 90 55 60
        E 0 90 58 60
        E 0 90 61 60
        E 0 90 64 60
        E 120 80 1a 00
        E 0 80 26 00
        E 0 80 3d 00
        E 0 80 40 00
        E 0 80 49 00
        E 0 80 4c 00
        E 0 80 55 00
        E 0 80 58 00
        E 0 80 61 00
        E 0 80 64 00
        E 120 90 19 60
        E 240 80 19 00
        E 0 90 18 60
        E 0 90 26 60
        E 0 90 40 60
        E 0 90 4c 60
        E 0 90 54 60
        E 0 90 58 60
        E 0 90 60 60
        E 0 90 64 60
        E 120 80 18 00
        E 0 80 26 00
        E 0 80 40 00
        E 0 80 4c 00
        E 0 80 54 00
        E 0 80 58 00
        E 0 80 60 00
        E 0 80 64 00
        E 120 90 18 60
        E 0 90 19 60
        E 0 90 60 60
        E 120 80 18 00
        E 0 80 60 00
        E 120 80 19 00
        E 0 90 1a 60
        E 0 90 26 60
        E 0 90 3d 60
        E 0 90 40 60
        E 0 90 49 60
        E 0 90 4c 60
        E 0 90 55 60
        E 0 90 58 60
        E 0 90 61 60
        E 0 90 64 60
        E 120 80 1a 00
        E 0 80 26 00
        E 0 80 3d 00
        E 0 80 40 00
        E 0 80 49 00
        E 0 80 4c 00
        E 0 80 55 00
        E 0 80 58 00
        E 0 80 61 00
        E 0 80 64 00
        E 120 90 19 60
        E 240 80 19 00
        E 0 90 18 60
        E 0 90 26 60
        E 0 90 40 60
        E 0 90 48 60
        E 0 90 4c 60
        E 0 90 54 60
        E 0 90 58 60
        E 0 90 60 60
        E 0 90 64 60
        E 120 80 18 00
        E 0 80 26 00
        E 0 80 40 00
        E 0 80 48 00
        E 0 80 4c 00
        E 0 80 54 00
        E 0 80 58 00
        E 0 80 60 00
        E 0 80 64 00
        E 120 90 19 60
        E 240 80 19 00
        E 0 90 1a 60
        E 0 90 26 60
        E 0 90 3d 60
        E 0 90 40 60
        E 0 90 49 60
        E 0 90 4c 60
        E 0 90 55 60
        E 0 90 58 60
        E 0 90 61 60
        E 0 90 64 60
        E 120 80 1a 00
        E 0 80 26 00
        E 0 80 3d 00
        E 0 80 40 00
        E 0 80 49 00
        E 0 80 4c 00
        E 0 80 55 00
        E 0 80 58 00
        E 0 80 61 00
        E 0 80 64 00
        E 120 90 19 60
        E 240 80 19 00
        E 0 90 18 60
        E 0 90 26 60
        E 0 90 40 60
        E 0 90 4c 60
        E 0 90 54 60
        E 0 90 58 60
        E 0 90 60 60
        E 0 90 64 60
        E 120 80 18 00
        E 0 80 26 00
        E 0 80 40 00
        E 0 80 4c 00
        E 0 80 54 00
        E 0 80 58 00
        E 0 80 60 00
        E 0 80 64 00
        E 120 90 18 60
        E 0 90 19 60
        E 0 90 60 60
        E 120 80 18 00
        E 0 80 60 00
        E 120 80 19 00
        E 0 90 1a 60
        E 0 90 26 60
        E 0 90 3d 60
        E 0 90 40 60
        E 0 90 49 60
        E 0 90 4c 60
        E 0 90 55 60
        E 0 90 58 60
        E 0 90 61 60
        E 0 90 64 60
        E 120 80 1a 00
        E 0 80 26 00
        E 0 80 3d 00
        E 0 80 40 00
        E 0 80 49 00
        E 0 80 4c 00
        E 0 80 55 00
        E 0 80 58 00
        E 0 80 61 00
        E 0 80 64 00
        E 120 90 19 60
        E 240 80 19 00
        E 0 90 18 60
        E 0 90 26 60
        E 0 90 40 60
        E 0 90 4c 60
        E 0 90 54 60
        E 0 90 58 60
        E 0 90 60 60
        E 0 90 64 60
        E 120 80 18 00
        E 0 80 26 00
        E 0 80 40 00
        E 0 80 4c 00
        E 0 80 54 00
        E 0 80 58 00
        E 0 80 60 00
        E 0 80 64 00
        E 120 90 19 60
        E 240 80 19 00
        E 0 90 1a 60
        E 0 90 26 60
        E 0 90 3d 60
        E 0 90 40 60
        E 0 90 49 60
        E 0 90 4c 60
        E 0 90 55 60
        E 0 90 58 60
        E 0 90 61 60
        E 0 90 64 60
        E 120 80 1a 00
        E 0 80 26 00
        E 0 80 3d 00
        E 0 80 40 00
        E 0 80 49 00
        E 0 80 4c 00
        E 0 80 55 00
        E 0 80 58 00
        E 0 80 61 00
        E 0 80 64 00
        E 120 90 19 60
        E 240 80 19 00
        E 0 90 18 60
        E 0 90 2f 60
        E 0 90 3e 60
        E 0 90 4a 60
        E 0 90 54 60
        E 0 90 56 60
        E 0 90 60 60
        E 0 90 62 60
        E 0 90 6e 60
        E 120 80 18 00
        E 0 80 2f 00
        E 0 80 3e 00
        E 0 80 4a 00
        E 0 80 54 00
        E 0 80 56 00
        E 0 80 60 00
        E 0 80 62 00
        E 0 90 2e 60
        E 0 90 62 60
        E 120 80 2e 00
        E 0 80 62 00
        E 0 90 19 60
        E 0 90 2f 60
        E 0 90 56 60
        E 0 90 62 60
        E 120 80 2f 00
        E 0 80 56 00
        E 0 80 62 00
        E 0 90 2e 60
        E 0 90 62 60
        E 120 80 6e 00
        E 0 80 19 00
        E 0 80 2e 00
        E 0 80 62 00
        E 0 90 31 60
        E 0 90 3f 60
        E 0 90 4b 60
        E 0 90 57 60
        E 0 90 63 60
        E 0 90 6f 60
        E 120 80 31 00
        E 0 80 3f 00
        E 0 80 4b 00
        E 0 80 57 00
        E 0 80 63 00
        E 0 90 30 60
        E 0 90 63 60
        E 120 80 30 00
        E 0 80 63 00
        E 0 90 19 60
        E 0 90 31 60
        E 0 90 57 60
        E 0 90 63 60
        E 120 80 31 00
        E 0 80 57 00
        E 0 80 63 00
        E 0 90 30 60
        E 0 90 63 60
        E 120 80 6f 00
        E 0 80 19 00
        E 0 80 30 00
        E 0 80 63 00
        E 0 90 18 60
        E 0 90 26 60
        E 0 90 40 60
        E 0 90 48 60
        E 0 90 4c 60
        E 0 90 54 60
        E 0 90 58 60
        E 0 90 60 60
        E 0 90 64 60
        E 0 90 74 60
        E 120 80 18 00
        E 0 80 26 00
        E 0 80 40 00
        E 0 80 48 00
        E 0 80 4c 00
        E 0 80 54 00
        E 0 80 58 00
        E 0 80 60 00
        E 0 80 64 00
        E 120 90 19 60
        E 240 80 19 00
        E 0 90 1a 60
        E 0 90 26 60
        E 0 90 3d 60
        E 0 90 40 60
        E 0 90 49 60
        E 0 90 4c 60
        E 0 90 55 60
        E 0 90 58 60
        E 0 90 61 60
        E 0 90 64 60
        E 120 80 1a 00
        E 0 80 26 00
        E 0 80 3d 00
        E 0 80 40 00
        E 0 80 49 00
        E 0 80 4c 00
        E 0 80 55 00
        E 0 80 58 00
        E 0 80 61 00
        E 0 80 64 00
        E 120 90 19 60
        E 240 80 19 00
        E 0 90 18 60
        E 0 90 26 60
        E 0 90 40 60
        E 0 90 4c 60
        E 0 90 54 60
        E 0 90 58 60
        E 0 90 60 60
        E 0 90 64 60
        E 120 80 18 00
        E 0 80 26 00
        E 0 80 40 00
        E 0 80 4c 00
        E 0 80 54 00
        E 0 80 58 00
        E 0 80 60 00
        E 0 80 64 00
        E 120 90 18 60
        E 0 90 19 60
        E 0 90 60 60
        E 120 80 18 00
        E 0 80 60 00
        E 120 80 19 00
        E 0 90 1a 60
        E 0 90 26 60
        E 0 90 3d 60
        E 0 90 40 60
        E 0 90 49 60
        E 0 90 4c 60
        E 0 90 55 60
        E 0 90 58 60
        E 0 90 61 60
        E 0 90 64 60
        E 120 80 1a 00
        E 0 80 26 00
        E 0 80 3d 00
        E 0 80 40 00
        E 0 80 49 00
        E 0 80 4c 00
        E 0 80 55 00
        E 0 80 58 00
        E 0 80 61 00
        E 0 80 64 00
        E 120 90 19 60
        E 240 80 19 00
        E 0 90 18 60
        E 0 90 26 60
        E 0 90 40 60
        E 0 90 4c 60
        E 0 90 54 60
        E 0 90 58 60
        E 0 90 60 60
        E 0 90 64 60
        E 120 80 18 00
        E 0 80 26 00
        E 0 80 40 00
        E 0 80 4c 00
        E 0 80 54 00
        E 0 80 58 00
        E 0 80 60 00
        E 0 80 64 00
        E 120 90 19 60
        E 240 80 19 00
        E 0 90 1a 60
        E 0 90 26 60
        E 0 90 3d 60
        E 0 90 40 60
        E 0 90 49 60
        E 0 90 4c 60
        E 0 90 55 60
        E 0 90 58 60
        E 0 90 61 60
        E 0 90 64 60
        E 120 80 1a 00
        E 0 80 26 00
        E 0 80 3d 00
        E 0 80 40 00
        E 0 80 49 00
        E 0 80 4c 00
        E 0 80 55 00
        E 0 80 58 00
        E 0 80 61 00
        E 0 80 64 00
        E 120 90 19 60
        E 240 80 19 00
        E 0 90 18 60
        E 0 90 26 60
        E 0 90 40 60
        E 0 90 4c 60
        E 0 90 54 60
        E 0 90 58 60
        E 0 90 60 60
        E 0 90 64 60
        E 120 80 18 00
        E 0 80 26 00
        E 0 80 40 00
        E 0 80 4c 00
        E 0 80 54 00
        E 0 80 58 00
        E 0 80 60 00
        E 0 80 64 00
        E 120 90 19 60
        E 240 80 19 00
        E 0 90 1a 60
        E 0 90 31 60
        E 0 90 3d 60
        E 0 90 3f 60
        E 0 90 49 60
        E 0 90 4b 60
        E 0 90 55 60
        E 0 90 57 60
        E 0 90 61 60
        E 0 90 63 60
        E 0 90 6f 60
        E 120 80 1a 00
        E 0 80 31 00
        E 0 80 3d 00
        E 0 80 3f 00
        E 0 80 49 00
        E 0 80 4b 00
        E 0 80 55 00
        E 0 80 57 00
        E 0 80 61 00
        E 0 80 63 00
        E 0 80 6f 00
        E 120 90 19 60
        E 240 80 74 00
        E 0 80 19 00
        E 0 90 18 60
        E 0 90 26 60
        E 0 90 40 60
        E 0 90 48 60
        E 0 90 4c 60
        E 0 90 54 60
        E 0 90 58 60
        E 0 90 60 60
        E 0 90 64 60
        E 120 80 18 00
        E 0 80 26 00
        E 0 80 40 00
        E 0 80 48 00
        E 0 80 4c 00
        E 0 80 54 00
        E 0 80 58 00
        E 0 80 60 00
        E 0 80 64 00
        E 120 90 18 60
        E 0 90 19 60
        E 0 90 60 60
        E 120 80 18 00
        E 0 80 60 00
        E 120 80 19 00
        E 0 90 1a 60
        E 0 90 26 60
        E 0 90 3d 60
        E 0 90 40 60
        E 0 90 49 60
        E 0 90 4c 60
        E 0 90 55 60
        E 0 90 58 60
        E 0 90 61 60
        E 0 90 64 60
        E 120 80 1a 00
        E 0 80 26 00
        E 0 80 3d 00
        E 0 80 40 00
        E 0 80 49 00
        E 0 80 4c 00
        E 0 80 55 00
        E 0 80 58 00
        E 0 80 61 00
        E 0 80 64 00
        E 120 90 18 60
        E 0 90 19 60
        E 0 90 60 60
        E 120 80 18 00
        E 0 80 60 00
        E 120 80 19 00
        E 0 90 18 60
        E 0 90 26 60
        E 0 90 40 60
        E 0 90 4c 60
        E 0 90 54 60
        E 0 90 58 60
        E 0 90 60 60
        E 0 90 64 60
        E 120 80 18 00
        E 0 80 26 00
        E 0 80 40 00
        E 0 80 4c 00
        E 0 80 54 00
        E 0 80 58 00
        E 0 80 60 00
        E 0 80 64 00
        E 120 90 19 60
        E 240 80 19 00
        E 0 90 1a 60
        E 0 90 26 60
        E 0 90 3d 60
        E 0 90 40 60
        E 0 90 49 60
        E 0 90 4c 60
        E 0 90 55 60
        E 0 90 58 60
        E 0 90 61 60
        E 0 90 64 60
        E 120 80 1a 00
        E 0 80 26 00
        E 0 80 3d 00
        E 0 80 40 00
        E 0 80 49 00
        E 0 80 4c 00
        E 0 80 55 00
        E 0 80 58 00
        E 0 80 61 00
        E 0 80 64 00
        E 120 90 19 60
        E 240 80 19 00
        E 0 90 18 60
        E 0 90 26 60
        E 0 90 40 60
        E 0 90 4c 60
        E 0 90 54 60
        E 0 90 58 60
        E 0 90 60 60
        E 0 90 64 60
        E 120 80 18 00
        E 0 80 26 00
        E 0 80 40 00
        E 0 80 4c 00
        E 0 80 54 00
        E 0 80 58 00
        E 0 80 60 00
        E 0 80 64 00
        E 120 90 18 60
        E 0 90 19 60
        E 0 90 60 60
        E 120 80 18 00
        E 0 80 60 00
        E 120 80 19 00
        E 0 90 1a 60
        E 0 90 26 60
        E 0 90 3d 60
        E 0 90 40 60
        E 0 90 49 60
        E 0 90 4c 60
        E 0 90 55 60
        E 0 90 58 60
        E 0 90 61 60
        E 0 90 64 60
        E 120 80 1a 00
        E 0 80 26 00
        E 0 80 3d 00
        E 0 80 40 00
        E 0 80 49 00
        E 0 80 4c 00
        E 0 80 55 00
        E 0 80 58 00
        E 0 80 61 00
        E 0 80 64 00
        E 120 90 18 60
        E 0 90 19 60
        E 0 90 60 60
        E 120 80 18 00
        E 0 80 60 00
        E 120 80 19 00
        E 0 90 18 60
        E 0 90 26 60
        E 0 90 40 60
        E 0 90 4c 60
        E 0 90 54 60
        E 0 90 58 60
        E 0 90 60 60
        E 0 90 64 60
        E 120 80 18 00
        E 0 80 26 00
        E 0 80 40 00
        E 0 80 4c 00
        E 0 80 54 00
        E 0 80 58 00
        E 0 80 60 00
        E 0 80 64 00
        E 120 90 19 60
        E 240 80 19 00
        E 0 90 1a 60
        E 0 90 26 60
        E 0 90 3d 60
        E 0 90 40 60
        E 0 90 49 60
        E 0 90 4c 60
        E 0 90 55 60
        E 0 90 58 60
        E 0 90 61 60
        E 0 90 64 60
        E 120 80 1a 00
        E 0 80 26 00
        E 0 80 3d 00
        E 0 80 40 00
        E 0 80 49 00
        E 0 80 4c 00
        E 0 80 55 00
        E 0 80 58 00
        E 0 80 61 00
        E 0 80 64 00
        E 120 90 19 60
        E 240 80 19 00
        E 0 90 18 60
        E 0 90 26 60
        E 0 90 40 60
        E 0 90 48 60
        E 0 90 4c 60
        E 0 90 54 60
        E 0 90 58 60
        E 0 90 60 60
        E 0 90 64 60
        E 120 80 18 00
        E 0 80 26 00
        E 0 80 40 00
        E 0 80 48 00
        E 0 80 4c 00
        E 0 80 54 00
        E 0 80 58 00
        E 0 80 60 00
        E 0 80 64 00
        E 120 90 18 60
        E 0 90 19 60
        E 0 90 60 60
        E 120 80 18 00
        E 0 80 60 00
        E 120 80 19 00
        E 0 90 1a 60
        E 0 90 26 60
        E 0 90 3d 60
        E 0 90 40 60
        E 0 90 49 60
        E 0 90 4c 60
        E 0 90 55 60
        E 0 90 58 60
        E 0 90 61 60
        E 0 90 64 60
        E 120 80 1a 00
        E 0 80 26 00
        E 0 80 3d 00
        E 0 80 40 00
        E 0 80 49 00
        E 0 80 4c 00
        E 0 80 55 00
        E 0 80 58 00
        E 0 80 61 00
        E 0 80 64 00
        E 120 90 18 60
        E 0 90 19 60
        E 0 90 60 60
        E 120 80 18 00
        E 0 80 60 00
        E 120 80 19 00
        E 0 90 18 60
        E 0 90 26 60
        E 0 90 40 60
        E 0 90 4c 60
        E 0 90 54 60
        E 0 90 58 60
        E 0 90 60 60
        E 0 90 64 60
        E 120 80 18 00
        E 0 80 26 00
        E 0 80 40 00
        E 0 80 4c 00
        E 0 80 54 00
        E 0 80 58 00
        E 0 80 60 00
        E 0 80 64 00
        E 120 90 19 60
        E 240 80 19 00
        E 0 90 1a 60
        E 0 90 26 60
        E 0 90 3d 60
        E 0 90 40 60
        E 0 90 49 60
        E 0 90 4c 60
        E 0 90 55 60
        E 0 90 58 60
        E 0 90 61 60
        E 0 90 64 60
        E 120 80 1a 00
        E 0 80 26 00
        E 0 80 3d 00
        E 0 80 40 00
        E 0 80 49 00
        E 0 80 4c 00
        E 0 80 55 00
        E 0 80 58 00
        E 0 80 61 00
        E 0 80 64 00
        E 120 90 19 60
        E 240 80 19 00
        E 0 90 18 60
        E 0 90 26 60
        E 0 90 40 60
        E 0 90 4c 60
        E 0 90 54 60
        E 0 90 58 60
        E 0 90 60 60
        E 0 90 64 60
        E 0 90 78 60
        E 0 90 79 60
        E 0 90 7a 60
        E 0 90 7b 60
        E 0 90 7c 60
        E 120 80 18 00
        E 0 80 26 00
        E 0 80 40 00
        E 0 80 4c 00
        E 0 80 54 00
        E 0 80 58 00
        E 0 80 60 00
        E 0 80 64 00
        E 120 90 18 60
        E 0 90 19 60
        E 0 90 60 60
        E 120 80 18 00
        E 0 80 60 00
        E 120 80 19 00
        E 0 90 1a 60
        E 0 90 26 60
        E 0 90 3d 60
        E 0 90 40 60
        E 0 90 49 60
        E 0 90 4c 60
        E 0 90 55 60
        E 0 90 58 60
        E 0 90 61 60
        E 0 90 64 60
        E 120 80 1a 00
        E 0 80 26 00
        E 0 80 3d 00
        E 0 80 40 00
        E 0 80 49 00
        E 0 80 4c 00
        E 0 80 55 00
        E 0 80 58 00
        E 0 80 61 00
        E 0 80 64 00
        E 120 90 18 60
        E 0 90 19 60
        E 0 90 60 60
        E 120 80 18 00
        E 0 80 60 00
        E 120 80 19 00
        E 0 90 18 60
        E 0 90 26 60
        E 0 90 40 60
        E 0 90 4c 60
        E 0 90 54 60
        E 0 90 58 60
        E 0 90 60 60
        E 0 90 64 60
        E 120 80 18 00
        E 0 80 26 00
        E 0 80 40 00
        E 0 80 4c 00
        E 0 80 54 00
        E 0 80 58 00
        E 0 80 60 00
        E 0 80 64 00
        E 120 90 19 60
        E 240 80 19 00
        E 0 90 1a 60
        E 0 90 26 60
        E 0 90 3d 60
        E 0 90 40 60
        E 0 90 49 60
        E 0 90 4c 60
        E 0 90 55 60
        E 0 90 58 60
        E 0 90 61 60
        E 0 90 64 60
        E 120 80 1a 00
        E 0 80 26 00
        E 0 80 3d 00
        E 0 80 40 00
        E 0 80 49 00
        E 0 80 4c 00
        E 0 80 55 00
        E 0 80 58 00
        E 0 80 61 00
        E 0 80 64 00
        E 120 90 19 60
        E 240 80 78 00
        E 0 80 79 00
        E 0 80 7a 00
        E 0 80 7b 00
        E 0 80 7c 00
        E 0 80 19 00
        E 0 90 18 60
        E 0 90 26 60
        E 0 90 40 60
        E 0 90 48 60
        E 0 90 4c 60
        E 0 90 54 60
        E 0 90 58 60
        E 0 90 60 60
        E 0 90 64 60
        E 120 80 18 00
        E 0 80 26 00
        E 0 80 40 00
        E 0 80 48 00
        E 0 80 4c 00
        E 0 80 54 00
        E 0 80 58 00
        E 0 80 60 00
        E 0 80 64 00
        E 120 90 18 60
        E 0 90 19 60
        E 0 90 60 60
        E 120 80 18 00
        E 0 80 60 00
        E 120 80 19 00
        E 0 90 1a 60
        E 0 90 26 60
        E 0 90 3d 60
        E 0 90 40 60
        E 0 90 49 60
        E 0 90 4c 60
        E 0 90 55 60
        E 0 90 58 60
        E 0 90 61 60
        E 0 90 64 60
        E 120 80 1a 00
        E 0 80 26 00
        E 0 80 3d 00
        E 0 80 40 00
        E 0 80 49 00
        E 0 80 4c 00
        E 0 80 55 00
        E 0 80 58 00
        E 0 80 61 00
        E 0 80 64 00
        E 120 90 18 60
        E 0 90 19 60
        E 0 90 60 60
        E 120 80 18 00
        E 0 80 60 00
        E 120 80 19 00
        E 0 90 18 60
        E 0 90 26 60
        E 0 90 40 60
        E 0 90 4c 60
        E 0 90 54 60
        E 0 90 58 60
        E 0 90 60 60
        E 0 90 64 60
        E 120 80 18 00
        E 0 80 26 00
        E 0 80 40 00
        E 0 80 4c 00
        E 0 80 54 00
        E 0 80 58 00
        E 0 80 60 00
        E 0 80 64 00
        E 120 90 19 60
        E 240 80 19 00
        E 0 90 1a 60
        E 0 90 26 60
        E 0 90 3d 60
        E 0 90 40 60
        E 0 90 49 60
        E 0 90 4c 60
        E 0 90 55 60
        E 0 90 58 60
        E 0 90 61 60
        E 0 90 64 60
        E 120 80 1a 00
        E 0 80 26 00
        E 0 80 3d 00
        E 0 80 40 00
        E 0 80 49 00
        E 0 80 4c 00
        E 0 80 55 00
        E 0 80 58 00
        E 0 80 61 00
        E 0 80 64 00
        E 120 90 19 60
        E 240 80 19 00
        E 0 90 18 60
        E 0 90 26 60
        E 0 90 40 60
        E 0 90 4c 60
        E 0 90 54 60
        E 0 90 58 60
        E 0 90 60 60
        E 0 90 64 60
        E 120 80 18 00
        E 0 80 26 00
        E 0 80 40 00
        E 0 80 4c 00
        E 0 80 54 00
        E 0 80 58 00
        E 0 80 60 00
        E 0 80 64 00
        E 120 90 18 60
        E 0 90 19 60
        E 0 90 60 60
        E 120 80 18 00
        E 0 80 60 00
        E 120 80 19 00
        E 0 90 1a 60
        E 0 90 26 60
        E 0 90 3d 60
        E 0 90 40 60
        E 0 90 49 60
        E 0 90 4c 60
        E 0 90 55 60
        E 0 90 58 60
        E 0 90 61 60
        E 0 90 64 60
        E 120 80 1a 00
        E 0 80 26 00
        E 0 80 3d 00
        E 0 80 40 00
        E 0 80 49 00
        E 0 80 4c 00
        E 0 80 55 00
        E 0 80 58 00
        E 0 80 61 00
        E 0 80 64 00
        E 120 90 18 60
        E 0 90 19 60
        E 0 90 60 60
        E 120 80 18 00
        E 0 80 60 00
        E 120 80 19 00
        E 0 90 18 60
        E 0 90 26 60
        E 0 90 40 60
        E 0 90 4c 60
        E 0 90 54 60
        E 0 90 58 60
        E 0 90 60 60
        E 0 90 64 60
        E 120 80 18 00
        E 0 80 26 00
        E 0 80 40 00
        E 0 80 4c 00
        E 0 80 54 00
        E 0 80 58 00
        E 0 80 60 00
        E 0 80 64 00
        E 120 90 19 60
        E 240 80 19 00
        E 0 90 1a 60
        E 0 90 26 60
        E 0 90 3d 60
        E 0 90 40 60
        E 0 90 49 60
        E 0 90 4c 60
        E 0 90 55 60
        E 0 90 58 60
        E 0 90 61 60
        E 0 90 64 60
        E 120 80 1a 00
        E 0 80 26 00
        E 0 80 3d 00
        E 0 80 40 00
        E 0 80 49 00
        E 0 80 4c 00
        E 0 80 55 00
        E 0 80 58 00
        E 0 80 61 00
        E 0 80 64 00
        E 120 90 19 60
        E 240 80 19 00
        E 0 90 18 60
        E 0 90 26 60
        E 0 90 40 60
        E 0 90 48 60
        E 0 90 4c 60
        E 0 90 54 60
        E 0 90 58 60
        E 0 90 60 60
        E 0 90 64 60
        E 120 80 18 00
        E 0 80 26 00
        E 0 80 40 00
        E 0 80 48 00
        E 0 80 4c 00
        E 0 80 54 00
        E 0 80 58 00
        E 0 80 60 00
        E 0 80 64 00
        E 120 90 18 60
        E 0 90 19 60
        E 0 90 60 60
        E 120 80 18 00
        E 0 80 60 00
        E 120 80 19 00
        E 0 90 1a 60
        E 0 90 26 60
        E 0 90 3d 60
        E 0 90 40 60
        E 0 90 49 60
        E 0 90 4c 60
        E 0 90 55 60
        E 0 90 58 60
        E 0 90 61 60
        E 0 90 64 60
        E 120 80 1a 00
        E 0 80 26 00
        E 0 80 3d 00
        E 0 80 40 00
        E 0 80 49 00
        E 0 80 4c 00
        E 0 80 55 00
        E 0 80 58 00
        E 0 80 61 00
        E 0 80 64 00
        E 120 90 18 60
        E 0 90 19 60
        E 0 90 60 60
        E 120 80 18 00
        E 0 80 60 00
        E 120 80 19 00
        E 0 90 18 60
        E 0 90 26 60
        E 0 90 40 60
        E 0 90 4c 60
        E 0 90 54 60
        E 0 90 58 60
        E 0 90 60 60
        E 0 90 64 60
        E 120 80 18 00
        E 0 80 26 00
        E 0 80 40 00
        E 0 80 4c 00
        E 0 80 54 00
        E 0 80 58 00
        E 0 80 60 00
        E 0 80 64 00
        E 120 90 19 60
        E 240 80 19 00
        E 0 90 1a 60
        E 0 90 26 60
        E 0 90 3d 60
        E 0 90 40 60
        E 0 90 49 60
        E 0 90 4c 60
        E 0 90 55 60
        E 0 90 58 60
        E 0 90 61 60
        E 0 90 64 60
        E 120 80 1a 00
        E 0 80 26 00
        E 0 80 3d 00
        E 0 80 40 00
        E 0 80 49 00
        E 0 80 4c 00
        E 0 80 55 00
        E 0 80 58 00
        E 0 80 61 00
        E 0 80 64 00
        E 120 90 19 60
        E 240 80 19 00
        E 0 90 18 60
        E 0 90 26 60
        E 0 90 40 60
        E 0 90 4c 60
        E 0 90 54 60
        E 0 90 58 60
        E 0 90 60 60
        E 0 90 64 60
        E 120 80 18 00
        E 0 80 26 00
        E 0 80 40 00
        E 0 80 4c 00
        E 0 80 54 00
        E 0 80 58 00
        E 0 80 60 00
        E 0 80 64 00
        E 120 90 18 60
        E 0 90 19 60
        E 0 90 60 60
        E 120 80 18 00
        E 0 80 60 00
        E 120 80 19 00
        E 0 90 1a 60
        E 0 90 26 60
        E 0 90 3d 60
        E 0 90 40 60
        E 0 90 49 60
        E 0 90 4c 60
        E 0 90 55 60
        E 0 90 58 60
        E 0 90 61 60
        E 0 90 64 60
        E 120 80 1a 00
        E 0 80 26 00
        E 0 80 3d 00
        E 0 80 40 00
        E 0 80 49 00
        E 0 80 4c 00
        E 0 80 55 00
        E 0 80 58 00
        E 0 80 61 00
        E 0 80 64 00
        E 120 90 19 60
        E 240 80 19 00
        E 0 90 18 60
        E 0 90 26 60
        E 0 90 40 60
        E 0 90 4c 60
        E 0 90 54 60
        E 0 90 58 60
        E 0 90 60 60
        E 0 90 64 60
        E 120 80 18 00
        E 0 80 26 00
        E 0 80 40 00
        E 0 80 4c 00
        E 0 80 54 00
        E 0 80 58 00
        E 0 80 60 00
        E 0 80 64 00
        E 120 90 19 60
        E 0 90 1a 60
        E 0 90 55 60
        E 0 90 61 60
        E 120 80 1a 00
        E 0 80 55 00
        E 0 80 61 00
        E 120 80 19 00
        E 0 90 1a 60
        E 0 90 3d 60
        E 0 90 40 60
        E 0 90 49 60
        E 0 90 55 60
        E 0 90 61 60
        E 120 80 1a 00
        E 0 80 3d 00
        E 0 80 40 00
        E 0 80 49 00
        E 0 80 55 00
        E 0 80 61 00
        E 120 90 19 60
        E 0 90 1a 60
        E 0 90 55 60
        E 0 90 61 60
        E 120 80 1a 00
        E 0 80 55 00
        E 0 80 61 00
        E 120 80 19 00
        E 0 90 18 60
        E 0 90 26 60
        E 0 90 40 60
        E 0 90 48 60
        E 0 90 4c 60
        E 0 90 54 60
        E 0 90 58 60
        E 0 90 60 60
        E 0 90 64 60
        E 120 80 18 00
        E 0 80 26 00
        E 0 80 40 00
        E 0 80 48 00
        E 0 80 4c 00
        E 0 80 54 00
        E 0 80 58 00
        E 0 80 60 00
        E 0 80 64 00
        E 120 90 19 60
        E 240 80 19 00
        E 0 90 1a 60
        E 0 90 26 60
        E 0 90 3d 60
        E 0 90 40 60
        E 0 90 49 60
        E 0 90 4c 60
        E 0 90 55 60
        E 0 90 58 60
        E 0 90 61 60
        E 0 90 64 60
        E 120 80 1a 00
        E 0 80 26 00
        E 0 80 3d 00
        E 0 80 40 00
        E 0 80 49 00
        E 0 80 4c 00
        E 0 80 55 00
        E 0 80 58 00
        E 0 80 61 00
        E 0 80 64 00
        E 120 90 19 60
        E 240 80 19 00
        E 0 90 18 60
        E 0 90 26 60
        E 0 90 40 60
        E 0 90 4c 60
        E 0 90 54 60
        E 0 90 58 60
        E 0 90 60 60
        E 0 90 64 60
        E 120 80 18 00
        E 0 80 26 00
        E 0 80 40 00
        E 0 80 4c 00
        E 0 80 54 00
        E 0 80 58 00
        E 0 80 60 00
        E 0 80 64 00
        E 120 90 19 60
        E 240 80 19 00
        E 0 90 1a 60
        E 0 90 26 60
        E 0 90 3d 60
        E 0 90 40 60
        E 0 90 49 60
        E 0 90 4c 60
        E 0 90 55 60
        E 0 90 58 60
        E 0 90 61 60
        E 0 90 64 60
        E 120 80 1a 00
        E 0 80 26 00
        E 0 80 3d 00
        E 0 80 40 00
        E 0 80 49 00
        E 0 80 4c 00
        E 0 80 55 00
        E 0 80 58 00
        E 0 80 61 00
        E 0 80 64 00
        E 120 90 19 60
        E 240 80 19 00
        E 0 90 18 60
        E 0 90 26 60
        E 0 90 40 60
        E 0 90 4c 60
        E 0 90 54 60
        E 0 90 58 60
        E 0 90 60 60
        E 0 90 64 60
        E 120 80 18 00
        E 0 80 26 00
        E 0 80 40 00
        E 0 80 4c 00
        E 0 80 54 00
        E 0 80 58 00
        E 0 80 60 00
        E 0 80 64 00
        E 120 90 18 60
        E 0 90 19 60
        E 0 90 60 60
        E 120 80 18 00
        E 0 80 60 00
        E 120 80 19 00
        E 0 90 1a 60
        E 0 90 26 60
        E 0 90 3d 60
        E 0 90 40 60
        E 0 90 49 60
        E 0 90 4c 60
        E 0 90 55 60
        E 0 90 58 60
        E 0 90 61 60
        E 0 90 64 60
        E 120 80 1a 00
        E 0 80 26 00
        E 0 80 3d 00
        E 0 80 40 00
        E 0 80 49 00
        E 0 80 4c 00
        E 0 80 55 00
        E 0 80 58 00
        E 0 80 61 00
        E 0 80 64 00
        E 120 90 18 60
        E 0 90 19 60
        E 0 90 60 60
        E 120 80 18 00
        E 0 80 60 00
        E 120 80 19 00
        E 0 90 18 60
        E 0 90 26 60
        E 0 90 40 60
        E 0 90 4c 60
        E 0 90 54 60
        E 0 90 58 60
        E 0 90 60 60
        E 0 90 64 60
        E 120 80 18 00
        E 0 80 26 00
        E 0 80 40 00
        E 0 80 4c 00
        E 0 80 54 00
        E 0 80 58 00
        E 0 80 60 00
        E 0 80 64 00
        E 120 90 19 60
        E 240 80 19 00
        E 0 90 1a 60
        E 0 90 26 60
        E 0 90 3d 60
        E 0 90 40 60
        E 0 90 49 60
        E 0 90 4c 60
        E 0 90 55 60
        E 0 90 58 60
        E 0 90 61 60
        E 0 90 64 60
        E 120 80 1a 00
        E 0 80 26 00
        E 0 80 3d 00
        E 0 80 40 00
        E 0 80 49 00
        E 0 80 4c 00
        E 0 80 55 00
        E 0 80 58 00
        E 0 80 61 00
        E 0 80 64 00
        E 120 90 19 60
        E 240 80 19 00
        E 0 90 18 60
        E 0 90 26 60
        E 0 90 40 60
        E 0 90 48 60
        E 0 90 4c 60
        E 0 90 54 60
        E 0 90 58 60
        E 0 90 60 60
        E 0 90 64 60
        E 120 80 18 00
        E 0 80 26 00
        E 0 80 40 00
        E 0 80 48 00
        E 0 80 4c 00
        E 0 80 54 00
        E 0 80 58 00
        E 0 80 60 00
        E 0 80 64 00
        E 120 90 18 60
        E 0 90 19 60
        E 0 90 60 60
        E 120 80 18 00
        E 0 80 60 00
        E 120 80 19 00
        E 0 90 1a 60
        E 0 90 26 60
        E 0 90 3d 60
        E 0 90 40 60
        E 0 90 49 60
        E 0 90 4c 60
        E 0 90 55 60
        E 0 90 58 60
        E 0 90 61 60
        E 0 90 64 60
        E 120 80 1a 00
        E 0 80 26 00
        E 0 80 3d 00
        E 0 80 40 00
        E 0 80 49 00
        E 0 80 4c 00
        E 0 80 55 00
        E 0 80 58 00
        E 0 80 61 00
        E 0 80 64 00
        E 120 90 18 60
        E 0 90 19 60
        E 0 90 60 60
        E 120 80 18 00
        E 0 80 60 00
        E 120 80 19 00
        E 0 90 18 60
        E 0 90 26 60
        E 0 90 40 60
        E 0 90 4c 60
        E 0 90 54 60
        E 0 90 58 60
        E 0 90 60 60
        E 0 90 64 60
        E 120 80 18 00
        E 0 80 26 00
        E 0 80 40 00
        E 0 80 4c 00
        E 0 80 54 00
        E 0 80 58 00
        E 0 80 60 00
        E 0 80 64 00
        E 120 90 19 60
        E 240 80 19 00
        E 0 90 1a 60
        E 0 90 26 60
        E 0 90 3d 60
        E 0 90 40 60
        E 0 90 49 60
        E 0 90 4c 60
        E 0 90 55 60
        E 0 90 58 60
        E 0 90 61 60
        E 0 90 64 60
        E 120 80 1a 00
        E 0 80 26 00
        E 0 80 3d 00
        E 0 80 40 00
        E 0 80 49 00
        E 0 80 4c 00
        E 0 80 55 00
        E 0 80 58 00
        E 0 80 61 00
        E 0 80 64 00
        E 120 90 19 60
        E 240 80 19 00
        E 0 90 18 60
        E 0 90 26 60
        E 0 90 40 60
        E 0 90 4c 60
        E 0 90 54 60
        E 0 90 58 60
        E 0 90 60 60
        E 0 90 64 60
        E 0 90 78 60
        E 0 90 79 60
        E 0 90 7a 60
        E 0 90 7b 60
        E 0 90 7c 60
        E 120 80 18 00
        E 0 80 26 00
        E 0 80 40 00
        E 0 80 4c 00
        E 0 80 54 00
        E 0 80 58 00
        E 0 80 60 00
        E 0 80 64 00
        E 120 90 18 60
        E 0 90 19 60
        E 0 90 60 60
        E 120 80 18 00
        E 0 80 60 00
        E 120 80 19 00
        E 0 90 1a 60
        E 0 90 26 60
        E 0 90 3d 60
        E 0 90 40 60
        E 0 90 49 60
        E 0 90 4c 60
        E 0 90 55 60
        E 0 90 58 60
        E 0 90 61 60
        E 0 90 64 60
        E 120 80 1a 00
        E 0 80 26 00
        E 0 80 3d 00
        E 0 80 40 00
        E 0 80 49 00
        E 0 80 4c 00
        E 0 80 55 00
        E 0 80 58 00
        E 0 80 61 00
        E 0 80 64 00
        E 120 90 18 60
        E 0 90 19 60
        E 0 90 60 60
        E 120 80 18 00
        E 0 80 60 00
        E 120 80 19 00
        E 0 90 18 60
        E 0 90 26 60
        E 0 90 40 60
        E 0 90 4c 60
        E 0 90 54 60
        E 0 90 58 60
        E 0 90 60 60
        E 0 90 64 60
        E 120 80 18 00
        E 0 80 26 00
        E 0 80 40 00
        E 0 80 4c 00
        E 0 80 54 00
        E 0 80 58 00
        E 0 80 60 00
        E 0 80 64 00
        E 120 90 19 60
        E 240 80 19 00
        E 0 90 1a 60
        E 0 90 26 60
        E 0 90 3d 60
        E 0 90 40 60
        E 0 90 49 60
        E 0 90 4c 60
        E 0 90 55 60
        E 0 90 58 60
        E 0 90 61 60
        E 0 90 64 60
        E 120 80 1a 00
        E 0 80 26 00
        E 0 80 3d 00
        E 0 80 40 00
        E 0 80 49 00
        E 0 80 4c 00
        E 0 80 55 00
        E 0 80 58 00
        E 0 80 61 00
        E 0 80 64 00
        E 120 90 19 60
        E 240 80 78 00
        E 0 80 79 00
        E 0 80 7a 00
        E 0 80 7b 00
        E 0 80 7c 00
        E 0 80 19 00
        E 0 90 18 60
        E 0 90 26 60
        E 0 90 40 60
        E 0 90 48 60
        E 0 90 4c 60
        E 0 90 54 60
        E 0 90 58 60
        E 0 90 60 60
        E 0 90 64 60
        E 120 80 18 00
        E 0 80 26 00
        E 0 80 40 00
        E 0 80 48 00
        E 0 80 4c 00
        E 0 80 54 00
        E 0 80 58 00
        E 0 80 60 00
        E 0 80 64 00
        E 120 90 18 60
        E 0 90 19 60
        E 0 90 60 60
        E 120 80 18 00
        E 0 80 60 00
        E 120 80 19 00
        E 0 90 1a 60
        E 0 90 26 60
        E 0 90 3d 60
        E 0 90 40 60
        E 0 90 49 60
        E 0 90 4c 60
        E 0 90 55 60
        E 0 90 58 60
        E 0 90 61 60
        E 0 90 64 60
        E 120 80 1a 00
        E 0 80 26 00
        E 0 80 3d 00
        E 0 80 40 00
        E 0 80 49 00
        E 0 80 4c 00
        E 0 80 55 00
        E 0 80 58 00
        E 0 80 61 00
        E 0 80 64 00
        E 120 90 18 60
        E 0 90 19 60
        E 0 90 60 60
        E 120 80 18 00
        E 0 80 60 00
        E 120 80 19 00
        E 0 90 18 60
        E 0 90 26 60
        E 0 90 40 60
        E 0 90 4c 60
        E 0 90 54 60
        E 0 90 58 60
        E 0 90 60 60
        E 0 90 64 60
        E 120 80 18 00
        E 0 80 26 00
        E 0 80 40 00
        E 0 80 4c 00
        E 0 80 54 00
        E 0 80 58 00
        E 0 80 60 00
        E 0 80 64 00
        E 120 90 19 60
        E 240 80 19 00
        E 0 90 1a 60
        E 0 90 26 60
        E 0 90 3d 60
        E 0 90 40 60
        E 0 90 49 60
        E 0 90 4c 60
        E 0 90 55 60
        E 0 90 58 60
        E 0 90 61 60
        E 0 90 64 60
        E 120 80 1a 00
        E 0 80 26 00
        E 0 80 3d 00
        E 0 80 40 00
        E 0 80 49 00
        E 0 80 4c 00
        E 0 80 55 00
        E 0 80 58 00
        E 0 80 61 00
        E 0 80 64 00
        E 120 90 19 60
        E 240 80 19 00
        E 0 90 18 60
        E 0 90 26 60
        E 0 90 40 60
        E 0 90 4c 60
        E 0 90 54 60
        E 0 90 58 60
        E 0 90 60 60
        E 0 90 64 60
        E 0 90 74 60
        E 120 80 18 00
        E 0 80 26 00
        E 0 80 40 00
        E 0 80 4c 00
        E 0 80 54 00
        E 0 80 58 00
        E 0 80 60 00
        E 0 80 64 00
        E 120 90 18 60
        E 0 90 19 60
        E 0 90 60 60
        E 120 80 18 00
        E 0 80 60 00
        E 120 80 19 00
        E 0 90 1a 60
        E 0 90 26 60
        E 0 90 3d 60
        E 0 90 40 60
        E 0 90 49 60
        E 0 90 4c 60
        E 0 90 55 60
        E 0 90 58 60
        E 0 90 61 60
        E 0 90 64 60
        E 120 80 1a 00
        E 0 80 26 00
        E 0 80 3d 00
        E 0 80 40 00
        E 0 80 49 00
        E 0 80 4c 00
        E 0 80 55 00
        E 0 80 58 00
        E 0 80 61 00
        E 0 80 64 00
        E 120 90 18 60
        E 0 90 19 60
        E 0 90 60 60
        E 120 80 18 00
        E 0 80 60 00
        E 120 80 19 00
        E 0 90 18 60
        E 0 90 26 60
        E 0 90 40 60
        E 0 90 4c 60
        E 0 90 54 60
        E 0 90 58 60
        E 0 90 60 60
        E 0 90 64 60
        E 120 80 18 00
        E 0 80 26 00
        E 0 80 40 00
        E 0 80 4c 00
        E 0 80 54 00
        E 0 80 58 00
        E 0 80 60 00
        E 0 80 64 00
        E 120 90 19 60
        E 240 80 19 00
        E 0 90 1a 60
        E 0 90 26 60
        E 0 90 3d 60
        E 0 90 40 60
        E 0 90 49 60
        E 0 90 4c 60
        E 0 90 55 60
        E 0 90 58 60
        E 0 90 61 60
        E 0 90 64 60
        E 120 80 1a 00
        E 0 80 26 00
        E 0 80 3d 00
        E 0 80 40 00
        E 0 80 49 00
        E 0 80 4c 00
        E 0 80 55 00
        E 0 80 58 00
        E 0 80 61 00
        E 0 80 64 00
        E 120 90 19 60
        E 240 80 74 00
        E 0 80 19 00
        E 0 90 18 60
        E 0 90 26 60
        E 0 90 40 60
        E 0 90 48 60
        E 0 90 4c 60
        E 0 90 54 60
        E 0 90 58 60
        E 0 90 60 60
        E 0 90 64 60
        E 120 80 18 00
        E 0 80 26 00
        E 0 80 40 00
        E 0 80 48 00
        E 0 80 4c 00
        E 0 80 54 00
        E 0 80 58 00
        E 0 80 60 00
        E 0 80 64 00
        E 120 90 18 60
        E 0 90 19 60
        E 0 90 60 60
        E 120 80 18 00
        E 0 80 60 00
        E 120 80 19 00
        E 0 90 1a 60
        E 0 90 26 60
        E 0 90 3d 60
        E 0 90 40 60
        E 0 90 49 60
        E 0 90 4c 60
        E 0 90 55 60
        E 0 90 58 60
        E 0 90 61 60
        E 0 90 64 60
        E 120 80 1a 00
        E 0 80 26 00
        E 0 80 3d 00
        E 0 80 40 00
        E 0 80 49 00
        E 0 80 4c 00
        E 0 80 55 00
        E 0 80 58 00
        E 0 80 61 00
        E 0 80 64 00
        E 120 90 19 60
        E 240 80 19 00
        E 0 90 18 60
        E 0 90 26 60
        E 0 90 40 60
        E 0 90 4c 60
        E 0 90 54 60
        E 0 90 58 60
        E 0 90 60 60
        E 0 90 64 60
        E 120 80 18 00
        E 0 80 26 00
        E 0 80 40 00
        E 0 80 4c 00
        E 0 80 54 00
        E 0 80 58 00
        E 0 80 60 00
        E 0 80 64 00
        E 120 90 19 60
        E 240 80 19 00
        E 0 90 1a 60
        E 0 90 26 60
        E 0 90 3d 60
        E 0 90 40 60
        E 0 90 49 60
        E 0 90 4c 60
        E 0 90 55 60
        E 0 90 58 60
        E 0 90 61 60
        E 0 90 64 60
        E 120 80 1a 00
        E 0 80 26 00
        E 0 80 3d 00
        E 0 80 40 00
        E 0 80 49 00
        E 0 80 4c 00
        E 0 80 55 00
        E 0 80 58 00
        E 0 80 61 00
        E 0 80 64 00
        E 120 90 19 60
        E 240 80 19 00
        E 0 90 18 60
        E 0 90 26 60
        E 0 90 40 60
        E 0 90 4c 60
        E 0 90 54 60
        E 0 90 58 60
        E 0 90 60 60
        E 0 90 64 60
        E 0 90 78 60
        E 0 90 79 60
        E 0 90 7a 60
        E 0 90 7b 60
        E 0 90 7c 60
        E 120 80 18 00
        E 0 80 26 00
        E 0 80 40 00
        E 0 80 4c 00
        E 0 80 54 00
        E 0 80 58 00
        E 0 80 60 00
        E 0 80 64 00
        E 120 90 18 60
        E 0 90 19 60
        E 0 90 60 60
        E 120 80 18 00
        E 0 80 60 00
        E 120 80 19 00
        E 0 90 1a 60
        E 0 90 26 60
        E 0 90 3d 60
        E 0 90 40 60
        E 0 90 49 60
        E 0 90 4c 60
        E 0 90 55 60
        E 0 90 58 60
        E 0 90 61 60
        E 0 90 64 60
        E 120 80 1a 00
        E 0 80 26 00
        E 0 80 3d 00
        E 0 80 40 00
        E 0 80 49 00
        E 0 80 4c 00
        E 0 80 55 00
        E 0 80 58 00
        E 0 80 61 00
        E 0 80 64 00
        E 120 90 19 60
        E 240 80 19 00
        E 0 90 18 60
        E 0 90 26 60
        E 0 90 40 60
        E 0 90 4c 60
        E 0 90 54 60
        E 0 90 58 60
        E 0 90 60 60
        E 0 90 64 60
        E 120 80 18 00
        E 0 80 26 00
        E 0 80 40 00
        E 0 80 4c 00
        E 0 80 54 00
        E 0 80 58 00
        E 0 80 60 00
        E 0 80 64 00
        E 120 90 19 60
        E 0 90 1a 60
        E 0 90 55 60
        E 0 90 61 60
        E 120 80 1a 00
        E 0 80 55 00
        E 0 80 61 00
        E 120 80 19 00
        E 0 90 1a 60
        E 0 90 3d 60
        E 0 90 49 60
        E 0 90 55 60
        E 0 90 61 60
        E 120 80 1a 00
        E 0 80 3d 00
        E 0 80 49 00
        E 0 80 55 00
        E 0 80 61 00
        E 120 90 19 60
        E 0 90 1a 60
        E 0 90 55 60
        E 0 90 61 60
        E 120 80 1a 00
        E 0 80 55 00
        E 0 80 61 00
        E 120 80 78 00
        E 0 80 79 00
        E 0 80 7a 00
        E 0 80 7b 00
        E 0 80 7c 00
        E 0 80 19 00
        E 0 90 18 60
        E 0 90 26 60
        E 0 90 40 60
        E 0 90 48 60
        E 0 90 4c 60
        E 0 90 54 60
        E 0 90 58 60
        E 0 90 60 60
        E 0 90 64 60
        E 120 80 18 00
        E 0 80 26 00
        E 0 80 40 00
        E 0 80 48 00
        E 0 80 4c 00
        E 0 80 54 00
        E 0 80 58 00
        E 0 80 60 00
        E 0 80 64 00
        E 120 90 19 60
        E 240 80 19 00
        E 0 90 1a 60
        E 0 90 26 60
        E 0 90 3d 60
        E 0 90 40 60
        E 0 90 49 60
        E 0 90 4c 60
        E 0 90 55 60
        E 0 90 58 60
        E 0 90 61 60
        E 0 90 64 60
        E 120 80 1a 00
        E 0 80 26 00
        E 0 80 3d 00
        E 0 80 40 00
        E 0 80 49 00
        E 0 80 4c 00
        E 0 80 55 00
        E 0 80 58 00
        E 0 80 61 00
        E 0 80 64 00
        E 120 90 19 60
        E 240 80 19 00
        E 0 90 18 60
        E 0 90 26 60
        E 0 90 40 60
        E 0 90 4c 60
        E 0 90 54 60
        E 0 90 58 60
        E 0 90 60 60
        E 0 90 64 60
        E 120 80 18 00
        E 0 80 26 00
        E 0 80 40 00
        E 0 80 4c 00
        E 0 80 54 00
        E 0 80 58 00
        E 0 80 60 00
        E 0 80 64 00
        E 120 90 18 60
        E 0 90 19 60
        E 0 90 60 60
        E 120 80 18 00
        E 0 80 60 00
        E 120 80 19 00
        E 0 90 1a 60
        E 0 90 26 60
        E 0 90 3d 60
        E 0 90 40 60
        E 0 90 49 60
        E 0 90 4c 60
        E 0 90 55 60
        E 0 90 58 60
        E 0 90 61 60
        E 0 90 64 60
        E 120 80 1a 00
        E 0 80 26 00
        E 0 80 3d 00
        E 0 80 40 00
        E 0 80 49 00
        E 0 80 4c 00
        E 0 80 55 00
        E 0 80 58 00
        E 0 80 61 00
        E 0 80 64 00
        E 120 90 19 60
        E 240 80 19 00
        E 0 90 18 60
        E 0 90 26 60
        E 0 90 40 60
        E 0 90 4c 60
        E 0 90 54 60
        E 0 90 58 60
        E 0 90 60 60
        E 0 90 64 60
        E 120 80 18 00
        E 0 80 26 00
        E 0 80 40 00
        E 0 80 4c 00
        E 0 80 54 00
        E 0 80 58 00
        E 0 80 60 00
        E 0 80 64 00
        E 120 90 19 60
        E 240 80 19 00
        E 0 90 1a 60
        E 0 90 26 60
        E 0 90 3d 60
        E 0 90 40 60
        E 0 90 49 60
        E 0 90 4c 60
        E 0 90 55 60
        E 0 90 58 60
        E 0 90 61 60
        E 0 90 64 60
        E 120 80 1a 00
        E 0 80 26 00
        E 0 80 3d 00
        E 0 80 40 00
        E 0 80 49 00
        E 0 80 4c 00
        E 0 80 55 00
        E 0 80 58 00
        E 0 80 61 00
        E 0 80 64 00
        E 120 90 19 60
        E 240 80 19 00
        E 0 90 18 60
        E 0 90 26 60
        E 0 90 40 60
        E 0 90 4c 60
        E 0 90 54 60
        E 0 90 58 60
        E 0 90 60 60
        E 0 90 64 60
        E 120 80 18 00
        E 0 80 26 00
        E 0 80 40 00
        E 0 80 4c 00
        E 0 80 54 00
        E 0 80 58 00
        E 0 80 60 00
        E 0 80 64 00
        E 120 90 19 60
        E 240 80 19 00
        E 0 90 1a 60
        E 0 90 26 60
        E 0 90 3d 60
        E 0 90 40 60
        E 0 90 49 60
        E 0 90 4c 60
        E 0 90 55 60
        E 0 90 58 60
        E 0 90 61 60
        E 0 90 64 60
        E 120 80 1a 00
        E 0 80 26 00
        E 0 80 3d 00
        E 0 80 40 00
        E 0 80 49 00
        E 0 80 4c 00
        E 0 80 55 00
        E 0 80 58 00
        E 0 80 61 00
        E 0 80 64 00
        E 120 90 19 60
        E 240 80 19 00
        E 0 90 18 60
        E 0 90 26 60
        E 0 90 40 60
        E 0 90 48 60
        E 0 90 4c 60
        E 0 90 54 60
        E 0 90 58 60
        E 0 90 60 60
        E 0 90 64 60
        E 120 80 18 00
        E 0 80 26 00
        E 0 80 40 00
        E 0 80 48 00
        E 0 80 4c 00
        E 0 80 54 00
        E 0 80 58 00
        E 0 80 60 00
        E 0 80 64 00
        E 120 90 19 60
        E 240 80 19 00
        E 0 90 1a 60
        E 0 90 26 60
        E 0 90 3d 60
        E 0 90 40 60
        E 0 90 49 60
        E 0 90 4c 60
        E 0 90 55 60
        E 0 90 58 60
        E 0 90 61 60
        E 0 90 64 60
        E 120 80 1a 00
        E 0 80 26 00
        E 0 80 3d 00
        E 0 80 40 00
        E 0 80 49 00
        E 0 80 4c 00
        E 0 80 55 00
        E 0 80 58 00
        E 0 80 61 00
        E 0 80 64 00
        E 120 90 19 60
        E 240 80 19 00
        E 0 90 18 60
        E 0 90 26 60
        E 0 90 40 60
        E 0 90 4c 60
        E 0 90 54 60
        E 0 90 58 60
        E 0 90 60 60
        E 0 90 64 60
        E 120 80 18 00
        E 0 80 26 00
        E 0 80 40 00
        E 0 80 4c 00
        E 0 80 54 00
        E 0 80 58 00
        E 0 80 60 00
        E 0 80 64 00
        E 120 90 18 60
        E 0 90 19 60
        E 0 90 60 60
        E 120 80 18 00
        E 0 80 60 00
        E 120 80 19 00
        E 0 90 1a 60
        E 0 90 26 60
        E 0 90 3d 60
        E 0 90 40 60
        E 0 90 49 60
        E 0 90 4c 60
        E 0 90 55 60
        E 0 90 58 60
        E 0 90 61 60
        E 0 90 64 60
        E 120 80 1a 00
        E 0 80 26 00
        E 0 80 3d 00
        E 0 80 40 00
        E 0 80 49 00
        E 0 80 4c 00
        E 0 80 55 00
        E 0 80 58 00
        E 0 80 61 00
        E 0 80 64 00
        E 120 90 19 60
        E 240 80 19 00
        E 0 90 18 60
        E 0 90 26 60
        E 0 90 40 60
        E 0 90 4c 60
        E 0 90 54 60
        E 0 90 58 60
        E 0 90 60 60
        E 0 90 64 60
        E 120 80 18 00
        E 0 80 26 00
        E 0 80 40 00
        E 0 80 4c 00
        E 0 80 54 00
        E 0 80 58 00
        E 0 80 60 00
        E 0 80 64 00
        E 120 90 19 60
        E 240 80 19 00
        E 0 90 1a 60
        E 0 90 26 60
        E 0 90 3d 60
        E 0 90 40 60
        E 0 90 49 60
        E 0 90 4c 60
        E 0 90 55 60
        E 0 90 58 60
        E 0 90 61 60
        E 0 90 64 60
        E 120 80 1a 00
        E 0 80 26 00
        E 0 80 3d 00
        E 0 80 40 00
        E 0 80 49 00
        E 0 80 4c 00
        E 0 80 55 00
        E 0 80 58 00
        E 0 80 61 00
        E 0 80 64 00
        E 120 90 19 60
        E 240 80 19 00
        E 0 90 18 60
        E 0 90 26 60
        E 0 90 40 60
        E 0 90 4c 60
        E 0 90 54 60
        E 0 90 58 60
        E 0 90 60 60
        E 0 90 64 60
        E 120 80 18 00
        E 0 80 26 00
        E 0 80 40 00
        E 0 80 4c 00
        E 0 80 54 00
        E 0 80 58 00
        E 0 80 60 00
        E 0 80 64 00
        E 120 90 18 60
        E 0 90 19 60
        E 0 90 60 60
        E 120 80 18 00
        E 0 80 60 00
        E 120 80 19 00
        E 0 90 1a 60
        E 0 90 26 60
        E 0 90 3d 60
        E 0 90 40 60
        E 0 90 49 60
        E 0 90 4c 60
        E 0 90 55 60
        E 0 90 58 60
        E 0 90 61 60
        E 0 90 64 60
        E 120 80 1a 00
        E 0 80 26 00
        E 0 80 3d 00
        E 0 80 40 00
        E 0 80 49 00
        E 0 80 4c 00
        E 0 80 55 00
        E 0 80 58 00
        E 0 80 61 00
        E 0 80 64 00
        E 120 90 19 60
        E 240 80 19 00
        E 0 90 18 60
        E 0 90 26 60
        E 0 90 40 60
        E 0 90 48 60
        E 0 90 4c 60
        E 0 90 54 60
        E 0 90 58 60
        E 0 90 60 60
        E 0 90 64 60
        E 120 80 18 00
        E 0 80 26 00
        E 0 80 40 00
        E 0 80 48 00
        E 0 80 4c 00
        E 0 80 54 00
        E 0 80 58 00
        E 0 80 60 00
        E 0 80 64 00
        E 120 90 19 60
        E 240 80 19 00
        E 0 90 1a 60
        E 0 90 26 60
        E 0 90 3d 60
        E 0 90 40 60
        E 0 90 49 60
        E 0 90 4c 60
        E 0 90 55 60
        E 0 90 58 60
        E 0 90 61 60
        E 0 90 64 60
        E 120 80 1a 00
        E 0 80 26 00
        E 0 80 3d 00
        E 0 80 40 00
        E 0 80 49 00
        E 0 80 4c 00
        E 0 80 55 00
        E 0 80 58 00
        E 0 80 61 00
        E 0 80 64 00
        E 120 90 19 60
        E 240 80 19 00
        E 0 90 18 60
        E 0 90 26 60
        E 0 90 40 60
        E 0 90 4c 60
        E 0 90 54 60
        E 0 90 58 60
        E 0 90 60 60
        E 0 90 64 60
        E 120 80 18 00
        E 0 80 26 00
        E 0 80 40 00
        E 0 80 4c 00
        E 0 80 54 00
        E 0 80 58 00
        E 0 80 60 00
        E 0 80 64 00
        E 120 90 18 60
        E 0 90 19 60
        E 0 90 60 60
        E 120 80 18 00
        E 0 80 60 00
        E 120 80 19 00
        E 0 90 1a 60
        E 0 90 26 60
        E 0 90 3d 60
        E 0 90 40 60
        E 0 90 49 60
        E 0 90 4c 60
        E 0 90 55 60
        E 0 90 58 60
        E 0 90 61 60
        E 0 90 64 60
        E 120 80 1a 00
        E 0 80 26 00
        E 0 80 3d 00
        E 0 80 40 00
        E 0 80 49 00
        E 0 80 4c 00
        E 0 80 55 00
        E 0 80 58 00
        E 0 80 61 00
        E 0 80 64 00
        E 120 90 19 60
        E 240 80 19 00
        E 0 90 18 60
        E 0 90 26 60
        E 0 90 40 60
        E 0 90 4c 60
        E 0 90 54 60
        E 0 90 58 60
        E 0 90 60 60
        E 0 90 64 60
        E 120 80 18 00
        E 0 80 26 00
        E 0 80 40 00
        E 0 80 4c 00
        E 0 80 54 00
        E 0 80 58 00
        E 0 80 60 00
        E 0 80 64 00
        E 120 90 19 60
        E 240 80 19 00
        E 0 90 1a 60
        E 0 90 26 60
        E 0 90 3d 60
        E 0 90 40 60
        E 0 90 49 60
        E 0 90 4c 60
        E 0 90 55 60
        E 0 90 58 60
        E 0 90 61 60
        E 0 90 64 60
        E 120 80 1a 00
        E 0 80 26 00
        E 0 80 3d 00
        E 0 80 40 00
        E 0 80 49 00
        E 0 80 4c 00
        E 0 80 55 00
        E 0 80 58 00
        E 0 80 61 00
        E 0 80 64 00
        E 120 90 19 60
        E 240 80 19 00
        E 0 90 18 60
        E 0 90 26 60
        E 0 90 40 60
        E 0 90 4c 60
        E 0 90 54 60
        E 0 90 58 60
        E 0 90 60 60
        E 0 90 64 60
        E 120 80 18 00
        E 0 80 26 00
        E 0 80 40 00
        E 0 80 4c 00
        E 0 80 54 00
        E 0 80 58 00
        E 0 80 60 00
        E 0 80 64 00
        E 120 90 18 60
        E 0 90 19 60
        E 0 90 60 60
        E 120 80 18 00
        E 0 80 60 00
        E 120 80 19 00
        E 0 90 1a 60
        E 0 90 26 60
        E 0 90 3d 60
        E 0 90 40 60
        E 0 90 49 60
        E 0 90 4c 60
        E 0 90 55 60
        E 0 90 58 60
        E 0 90 61 60
        E 0 90 64 60
        E 120 80 1a 00
        E 0 80 26 00
        E 0 80 3d 00
        E 0 80 40 00
        E 0 80 49 00
        E 0 80 4c 00
        E 0 80 55 00
        E 0 80 58 00
        E 0 80 61 00
        E 0 80 64 00
        E 120 90 19 60
        E 240 80 19 00
        E 0 90 18 60
        E 0 90 26 60
        E 0 90 40 60
        E 0 90 48 60
        E 0 90 4c 60
        E 0 90 54 60
        E 0 90 58 60
        E 0 90 60 60
        E 0 90 64 60
        E 0 90 74 60
        E 120 80 18 00
        E 0 80 26 00
        E 0 80 40 00
        E 0 80 48 00
        E 0 80 4c 00
        E 0 80 54 00
        E 0 80 58 00
        E 0 80 60 00
        E 0 80 64 00
        E 120 90 19 60
        E 240 80 19 00
        E 0 90 1a 60
        E 0 90 26 60
        E 0 90 3d 60
        E 0 90 40 60
        E 0 90 49 60
        E 0 90 4c 60
        E 0 90 55 60
        E 0 90 58 60
        E 0 90 61 60
        E 0 90 64 60
        E 120 80 1a 00
        E 0 80 26 00
        E 0 80 3d 00
        E 0 80 40 00
        E 0 80 49 00
        E 0 80 4c 00
        E 0 80 55 00
        E 0 80 58 00
        E 0 80 61 00
        E 0 80 64 00
        E 120 90 19 60
        E 240 80 19 00
        E 0 90 18 60
        E 0 90 26 60
        E 0 90 40 60
        E 0 90 4c 60
        E 0 90 54 60
        E 0 90 58 60
        E 0 90 60 60
        E 0 90 64 60
        E 120 80 18 00
        E 0 80 26 00
        E 0 80 40 00
        E 0 80 4c 00
        E 0 80 54 00
        E 0 80 58 00
        E 0 80 60 00
        E 0 80 64 00
        E 120 90 18 60
        E 0 90 19 60
        E 0 90 60 60
        E 120 80 18 00
        E 0 80 60 00
        E 120 80 19 00
        E 0 90 1a 60
        E 0 90 26 60
        E 0 90 3d 60
        E 0 90 40 60
        E 0 90 49 60
        E 0 90 4c 60
        E 0 90 55 60
        E 0 90 58 60
        E 0 90 61 60
        E 0 90 64 60
        E 120 80 1a 00
        E 0 80 26 00
        E 0 80 3d 00
        E 0 80 40 00
        E 0 80 49 00
        E 0 80 4c 00
        E 0 80 55 00
        E 0 80 58 00
        E 0 80 61 00
        E 0 80 64 00
        E 120 90 19 60
        E 240 80 19 00
        E 0 90 18 60
        E 0 90 26 60
        E 0 90 40 60
        E 0 90 4c 60
        E 0 90 54 60
        E 0 90 58 60
        E 0 90 60 60
        E 0 90 64 60
        E 120 80 18 00
        E 0 80 26 00
        E 0 80 40 00
        E 0 80 4c 00
        E 0 80 54 00
        E 0 80 58 00
        E 0 80 60 00
        E 0 80 64 00
        E 120 90 19 60
        E 240 80 19 00
        E 0 90 1a 60
        E 0 90 26 60
        E 0 90 3d 60
        E 0 90 40 60
        E 0 90 49 60
        E 0 90 4c 60
        E 0 90 55 60
        E 0 90 58 60
        E 0 90 61 60
        E 0 90 64 60
        E 120 80 1a 00
        E 0 80 26 00
        E 0 80 3d 00
        E 0 80 40 00
        E 0 80 49 00
        E 0 80 4c 00
        E 0 80 55 00
        E 0 80 58 00
        E 0 80 61 00
        E 0 80 64 00
        E 120 90 19 60
        E 240 80 19 00
        E 0 90 18 60
        E 0 90 26 60
        E 0 90 40 60
        E 0 90 4c 60
        E 0 90 54 60
        E 0 90 58 60
        E 0 90 60 60
        E 0 90 64 60
        E 120 80 18 00
        E 0 80 26 00
        E 0 80 40 00
        E 0 80 4c 00
        E 0 80 54 00
        E 0 80 58 00
        E 0 80 60 00
        E 0 80 64 00
        E 120 90 18 60
        E 0 90 19 60
        E 0 90 60 60
        E 120 80 18 00
        E 0 80 60 00
        E 120 80 19 00
        E 0 90 1a 60
        E 0 90 26 60
        E 0 90 3d 60
        E 0 90 40 60
        E 0 90 49 60
        E 0 90 4c 60
        E 0 90 55 60
        E 0 90 58 60
        E 0 90 61 60
        E 0 90 64 60
        E 120 80 1a 00
        E 0 80 26 00
        E 0 80 3d 00
        E 0 80 40 00
        E 0 80 49 00
        E 0 80 4c 00
        E 0 80 55 00
        E 0 80 58 00
        E 0 80 61 00
        E 0 80 64 00
        E 120 90 19 60
        E 240 80 74 00
        E 0 80 19 00
        E 0 90 18 60
        E 0 90 26 60
        E 0 90 40 60
        E 0 90 48 60
        E 0 90 4c 60
        E 0 90 54 60
        E 0 90 58 60
        E 0 90 60 60
        E 0 90 64 60
        E 120 80 18 00
        E 0 80 26 00
        E 0 80 40 00
        E 0 80 48 00
        E 0 80 4c 00
        E 0 80 54 00
        E 0 80 58 00
        E 0 80 60 00
        E 0 80 64 00
        E 120 90 19 60
        E 240 80 19 00
        E 0 90 1a 60
        E 0 90 26 60
        E 0 90 3d 60
        E 0 90 40 60
        E 0 90 49 60
        E 0 90 4c 60
        E 0 90 55 60
        E 0 90 58 60
        E 0 90 61 60
        E 0 90 64 60
        E 120 80 1a 00
        E 0 80 26 00
        E 0 80 3d 00
        E 0 80 40 00
        E 0 80 49 00
        E 0 80 4c 00
        E 0 80 55 00
        E 0 80 58 00
        E 0 80 61 00
        E 0 80 64 00
        E 120 90 19 60
        E 240 80 19 00
        E 0 90 18 60
        E 0 90 26 60
        E 0 90 40 60
        E 0 90 4c 60
        E 0 90 54 60
        E 0 90 58 60
        E 0 90 60 60
        E 0 90 64 60
        E 120 80 18 00
        E 0 80 26 00
        E 0 80 40 00
        E 0 80 4c 00
        E 0 80 54 00
        E 0 80 58 00
        E 0 80 60 00
        E 0 80 64 00
        E 120 90 18 60
        E 0 90 19 60
        E 0 90 60 60
        E 120 80 18 00
        E 0 80 60 00
        E 120 80 19 00
        E 0 90 1a 60
        E 0 90 26 60
        E 0 90 3d 60
        E 0 90 40 60
        E 0 90 49 60
        E 0 90 4c 60
        E 0 90 55 60
        E 0 90 58 60
        E 0 90 61 60
        E 0 90 64 60
        E 120 80 1a 00
        E 0 80 26 00
        E 0 80 3d 00
        E 0 80 40 00
        E 0 80 49 00
        E 0 80 4c 00
        E 0 80 55 00
        E 0 80 58 00
        E 0 80 61 00
        E 0 80 64 00
        E 120 90 19 60
        E 240 80 19 00
        E 0 90 18 60
        E 0 90 26 60
        E 0 90 40 60
        E 0 90 4c 60
        E 0 90 54 60
        E 0 90 58 60
        E 0 90 60 60
        E 0 90 64 60
        E 120 80 18 00
        E 0 80 26 00
        E 0 80 40 00
        E 0 80 4c 00
        E 0 80 54 00
        E 0 80 58 00
        E 0 80 60 00
        E 0 80 64 00
        E 120 90 19 60
        E 240 80 19 00
        E 0 90 1a 60
        E 0 90 26 60
        E 0 90 3d 60
        E 0 90 40 60
        E 0 90 49 60
        E 0 90 4c 60
        E 0 90 55 60
        E 0 90 58 60
        E 0 90 61 60
        E 0 90 64 60
        E 120 80 1a 00
        E 0 80 26 00
        E 0 80 3d 00
        E 0 80 40 00
        E 0 80 49 00
        E 0 80 4c 00
        E 0 80 55 00
        E 0 80 58 00
        E 0 80 61 00
        E 0 80 64 00
        E 120 90 19 60
        E 240 80 19 00
        E 0 90 18 60
        E 0 90 26 60
        E 0 90 40 60
        E 0 90 4c 60
        E 0 90 54 60
        E 0 90 58 60
        E 0 90 60 60
        E 0 90 64 60
        E 120 80 18 00
        E 0 80 26 00
        E 0 80 40 00
        E 0 80 4c 00
        E 0 80 54 00
        E 0 80 58 00
        E 0 80 60 00
        E 0 80 64 00
        E 120 90 18 60
        E 0 90 19 60
        E 0 90 60 60
        E 120 80 18 00
        E 0 80 60 00
        E 120 80 19 00
        E 0 90 1a 60
        E 0 90 26 60
        E 0 90 3d 60
        E 0 90 40 60
        E 0 90 49 60
        E 0 90 4c 60
        E 0 90 55 60
        E 0 90 58 60
        E 0 90 61 60
        E 0 90 64 60
        E 120 80 1a 00
        E 0 80 26 00
        E 0 80 3d 00
        E 0 80 40 00
        E 0 80 49 00
        E 0 80 4c 00
        E 0 80 55 00
        E 0 80 58 00
        E 0 80 61 00
        E 0 80 64 00
        E 120 90 19 60
        E 240 80 19 00
        E 0 90 18 60
        E 0 90 26 60
        E 0 90 40 60
        E 0 90 48 60
        E 0 90 4c 60
        E 0 90 54 60
        E 0 90 58 60
        E 0 90 60 60
        E 0 90 64 60
        E 120 80 18 00
        E 0 80 26 00
        E 0 80 40 00
        E 0 80 48 00
        E 0 80 4c 00
        E 0 80 54 00
        E 0 80 58 00
        E 0 80 60 00
        E 0 80 64 00
        E 120 90 19 60
        E 240 80 19 00
        E 0 90 1a 60
        E 0 90 26 60
        E 0 90 3d 60
        E 0 90 40 60
        E 0 90 49 60
        E 0 90 4c 60
        E 0 90 55 60
        E 0 90 58 60
        E 0 90 61 60
        E 0 90 64 60
        E 120 80 1a 00
        E 0 80 26 00
        E 0 80 3d 00
        E 0 80 40 00
        E 0 80 49 00
        E 0 80 4c 00
        E 0 80 55 00
        E 0 80 58 00
        E 0 80 61 00
        E 0 80 64 00
        E 120 90 19 60
        E 240 80 19 00
        E 0 90 18 60
        E 0 90 26 60
        E 0 90 40 60
        E 0 90 4c 60
        E 0 90 54 60
        E 0 90 58 60
        E 0 90 60 60
        E 0 90 64 60
        E 120 80 18 00
        E 0 80 26 00
        E 0 80 40 00
        E 0 80 4c 00
        E 0 80 54 00
        E 0 80 58 00
        E 0 80 60 00
        E 0 80 64 00
        E 120 90 18 60
        E 0 90 19 60
        E 0 90 60 60
        E 120 80 18 00
        E 0 80 60 00
        E 120 80 19 00
        E 0 90 1a 60
        E 0 90 26 60
        E 0 90 3d 60
        E 0 90 40 60
        E 0 90 49 60
        E 0 90 4c 60
        E 0 90 55 60
        E 0 90 58 60
        E 0 90 61 60
        E 0 90 64 60
        E 120 80 1a 00
        E 0 80 26 00
        E 0 80 3d 00
        E 0 80 40 00
        E 0 80 49 00
        E 0 80 4c 00
        E 0 80 55 00
        E 0 80 58 00
        E 0 80 61 00
        E 0 80 64 00
        E 120 90 19 60
        E 240 80 19 00
        E 0 90 18 60
        E 0 90 26 60
        E 0 90 40 60
        E 0 90 4c 60
        E 0 90 54 60
        E 0 90 58 60
        E 0 90 60 60
        E 0 90 64 60
        E 120 80 18 00
        E 0 80 26 00
        E 0 80 40 00
        E 0 80 4c 00
        E 0 80 54 00
        E 0 80 58 00
        E 0 80 60 00
        E 0 80 64 00
        E 120 90 19 60
        E 240 80 19 00
        E 0 90 1a 60
        E 0 90 26 60
        E 0 90 3d 60
        E 0 90 40 60
        E 0 90 49 60
        E 0 90 4c 60
        E 0 90 55 60
        E 0 90 58 60
        E 0 90 61 60
        E 0 90 64 60
        E 120 80 1a 00
        E 0 80 26 00
        E 0 80 3d 00
        E 0 80 40 00
        E 0 80 49 00
        E 0 80 4c 00
        E 0 80 55 00
        E 0 80 58 00
        E 0 80 61 00
        E 0 80 64 00
        E 120 90 19 60
        E 240 80 19 00
        E 0 90 18 60
        E 0 90 26 60
        E 0 90 40 60
        E 0 90 4c 60
        E 0 90 54 60
        E 0 90 58 60
        E 0 90 60 60
        E 0 90 64 60
        E 120 80 18 00
        E 0 80 26 00
        E 0 80 40 00
        E 0 80 4c 00
        E 0 80 54 00
        E 0 80 58 00
        E 0 80 60 00
        E 0 80 64 00
        E 120 90 18 60
        E 0 90 19 60
        E 0 90 60 60
        E 120 80 18 00
        E 0 80 60 00
        E 120 80 19 00
        E 0 90 1a 60
        E 0 90 26 60
        E 0 90 3d 60
        E 0 90 40 60
        E 0 90 49 60
        E 0 90 4c 60
        E 0 90 55 60
        E 0 90 58 60
        E 0 90 61 60
        E 0 90 64 60
        E 120 80 1a 00
        E 0 80 26 00
        E 0 80 3d 00
        E 0 80 40 00
        E 0 80 49 00
        E 0 80 4c 00
        E 0 80 55 00
        E 0 80 58 00
        E 0 80 61 00
        E 0 80 64 00
        E 120 90 19 60
        E 240 80 19 00
        E 0 90 18 60
        E 0 90 26 60
        E 0 90 40 60
        E 0 90 48 60
        E 0 90 4c 60
        E 0 90 54 60
        E 0 90 58 60
        E 0 90 60 60
        E 0 90 64 60
        E 120 80 18 00
        E 0 80 26 00
        E 0 80 40 00
        E 0 80 48 00
        E 0 80 4c 00
        E 0 80 54 00
        E 0 80 58 00
        E 0 80 60 00
        E 0 80 64 00
        E 120 90 19 60
        E 240 80 19 00
        E 0 90 1a 60
        E 0 90 26 60
        E 0 90 3d 60
        E 0 90 40 60
        E 0 90 49 60
        E 0 90 4c 60
        E 0 90 55 60
        E 0 90 58 60
        E 0 90 61 60
        E 0 90 64 60
        E 120 80 1a 00
        E 0 80 26 00
        E 0 80 3d 00
        E 0 80 40 00
        E 0 80 49 00
        E 0 80 4c 00
        E 0 80 55 00
        E 0 80 58 00
        E 0 80 61 00
        E 0 80 64 00
        E 120 90 19 60
        E 240 80 19 00
        E 0 90 18 60
        E 0 90 26 60
        E 0 90 40 60
        E 0 90 4c 60
        E 0 90 54 60
        E 0 90 58 60
        E 0 90 60 60
        E 0 90 64 60
        E 120 80 18 00
        E 0 80 26 00
        E 0 80 40 00
        E 0 80 4c 00
        E 0 80 54 00
        E 0 80 58 00
        E 0 80 60 00
        E 0 80 64 00
        E 120 90 18 60
        E 0 90 19 60
        E 0 90 60 60
        E 120 80 18 00
        E 0 80 60 00
        E 120 80 19 00
        E 0 90 1a 60
        E 0 90 26 60
        E 0 90 3d 60
        E 0 90 40 60
        E 0 90 49 60
        E 0 90 4c 60
        E 0 90 55 60
        E 0 90 58 60
        E 0 90 61 60
        E 0 90 64 60
        E 120 80 1a 00
        E 0 80 26 00
        E 0 80 3d 00
        E 0 80 40 00
        E 0 80 49 00
        E 0 80 4c 00
        E 0 80 55 00
        E 0 80 58 00
        E 0 80 61 00
        E 0 80 64 00
        E 120 90 19 60
        E 240 80 19 00
        E 0 90 18 60
        E 0 90 26 60
        E 0 90 40 60
        E 0 90 4c 60
        E 0 90 54 60
        E 0 90 58 60
        E 0 90 60 60
        E 0 90 64 60
        E 0 90 74 60
        E 120 80 18 00
        E 0 80 26 00
        E 0 80 40 00
        E 0 80 4c 00
        E 0 80 54 00
        E 0 80 58 00
        E 0 80 60 00
        E 0 80 64 00
        E 120 90 19 60
        E 240 80 19 00
        E 0 90 1a 60
        E 0 90 26 60
        E 0 90 3d 60
        E 0 90 40 60
        E 0 90 49 60
        E 0 90 4c 60
        E 0 90 55 60
        E 0 90 58 60
        E 0 90 61 60
        E 0 90 64 60
        E 120 80 1a 00
        E 0 80 26 00
        E 0 80 3d 00
        E 0 80 40 00
        E 0 80 49 00
        E 0 80 4c 00
        E 0 80 55 00
        E 0 80 58 00
        E 0 80 61 00
        E 0 80 64 00
        E 120 90 19 60
        E 240 80 19 00
        E 0 90 18 60
        E 0 90 2f 60
        E 0 90 3e 60
        E 0 90 4a 60
        E 0 90 54 60
        E 0 90 56 60
        E 0 90 60 60
        E 0 90 62 60
        E 0 90 6e 60
        E 120 80 18 00
        E 0 80 2f 00
        E 0 80 3e 00
        E 0 80 4a 00
        E 0 80 54 00
        E 0 80 56 00
        E 0 80 60 00
        E 0 80 62 00
        E 0 90 2e 60
        E 0 90 62 60
        E 120 80 2e 00
        E 0 80 62 00
        E 0 90 19 60
        E 0 90 2f 60
        E 0 90 56 60
        E 0 90 62 60
        E 120 80 2f 00
        E 0 80 56 00
        E 0 80 62 00
        E 0 90 2e 60
        E 0 90 62 60
        E 120 80 6e 00 -60
        E 0 80 19 00
        E 0 80 2e 00
        E 0 80 62 00
        E 0 90 31 60
        E 0 90 3f 60
        E 0 90 4b 60
        E 0 90 57 60
        E 0 90 63 60
        E 0 90 6f 60
        E 120 80 31 00
        E 0 80 3f 00
        E 0 80 4b 00
        E 0 80 57 00
        E 0 80 63 00
        E 0 90 30 60
        E 0 90 63 60
        E 120 80 30 00
        E 0 80 63 00
        E 0 90 19 60
        E 0 90 31 60
        E 0 90 57 60
        E 0 90 63 60
        E 120 80 31 00
        E 0 80 57 00
        E 0 80 63 00
        E 0 90 30 60
        E 0 90 63 60
        E 120 80 6f 00 -60
        E 0 80 19 00
        E 0 80 30 00
        E 0 80 63 00
        E 0 90 18 60
        E 0 90 26 60
        E 0 90 40 60
        E 0 90 48 60
        E 0 90 4c 60
        E 0 90 54 60
        E 0 90 58 60
        E 0 90 60 60
        E 0 90 64 60
        E 120 80 74 00
        E 0 80 18 00
        E 0 80 26 00
        E 0 80 40 00
        E 0 80 48 00
        E 0 80 4c 00
        E 0 80 54 00
        E 0 80 58 00
        E 0 80 60 00
        E 0 80 64 00
        E 120 90 19 60
        E 240 80 19 00
        E 0 90 1a 60
        E 0 90 26 60
        E 0 90 3d 60
        E 0 90 40 60
        E 0 90 49 60
        E 0 90 4c 60
        E 0 90 55 60
        E 0 90 58 60
        E 0 90 61 60
        E 0 90 64 60
        E 120 80 1a 00
        E 0 80 26 00
        E 0 80 3d 00
        E 0 80 40 00
        E 0 80 49 00
        E 0 80 4c 00
        E 0 80 55 00
        E 0 80 58 00
        E 0 80 61 00
        E 0 80 64 00
        E 120 90 19 60
        E 240 80 19 00
        E 0 90 18 60
        E 0 90 26 60
        E 0 90 40 60
        E 0 90 4c 60
        E 0 90 54 60
        E 0 90 58 60
        E 0 90 60 60
        E 0 90 64 60
        E 120 80 18 00
        E 0 80 26 00
        E 0 80 40 00
        E 0 80 4c 00
        E 0 80 54 00
        E 0 80 58 00
        E 0 80 60 00
        E 0 80 64 00
        E 120 90 18 60
        E 0 90 19 60
        E 0 90 60 60
        E 120 80 18 00
        E 0 80 60 00
        E 120 80 19 00
        E 0 90 1a 60
        E 0 90 26 60
        E 0 90 3d 60
        E 0 90 40 60
        E 0 90 49 60
        E 0 90 4c 60
        E 0 90 55 60
        E 0 90 58 60
        E 0 90 61 60
        E 0 90 64 60
        E 120 80 1a 00
        E 0 80 26 00
        E 0 80 3d 00
        E 0 80 40 00
        E 0 80 49 00
        E 0 80 4c 00
        E 0 80 55 00
        E 0 80 58 00
        E 0 80 61 00
        E 0 80 64 00
        E 120 90 19 60
        E 240 80 19 00
        E 0 90 18 60
        E 0 90 26 60
        E 0 90 40 60
        E 0 90 4c 60
        E 0 90 54 60
        E 0 90 58 60
        E 0 90 60 60
        E 0 90 64 60
        E 0 90 78 60
        E 0 90 79 60
        E 0 90 7a 60
        E 0 90 7b 60
        E 0 90 7c 60
        E 120 80 18 00
        E 0 80 26 00
        E 0 80 40 00
        E 0 80 4c 00
        E 0 80 54 00
        E 0 80 58 00
        E 0 80 60 00
        E 0 80 64 00
        E 120 90 19 60
        E 240 80 19 00
        E 0 90 1a 60
        E 0 90 26 60
        E 0 90 3d 60
        E 0 90 40 60
        E 0 90 49 60
        E 0 90 4c 60
        E 0 90 55 60
        E 0 90 58 60
        E 0 90 61 60
        E 0 90 64 60
        E 120 80 1a 00
        E 0 80 26 00
        E 0 80 3d 00
        E 0 80 40 00
        E 0 80 49 00
        E 0 80 4c 00
        E 0 80 55 00
        E 0 80 58 00
        E 0 80 61 00
        E 0 80 64 00
        E 120 90 19 60
        E 240 80 19 00
        E 0 90 18 60
        E 0 90 26 60
        E 0 90 40 60
        E 0 90 4c 60
        E 0 90 54 60
        E 0 90 58 60
        E 0 90 60 60
        E 0 90 64 60
        E 120 80 18 00
        E 0 80 26 00
        E 0 80 40 00
        E 0 80 4c 00
        E 0 80 54 00
        E 0 80 58 00
        E 0 80 60 00
        E 0 80 64 00
        E 120 90 19 60
        E 240 80 19 00
        E 0 90 1a 60
        E 0 90 31 60
        E 0 90 3d 60
        E 0 90 3f 60
        E 0 90 49 60
        E 0 90 4c 60
        E 0 90 55 60
        E 0 90 57 60
        E 0 90 61 60
        E 0 90 63 60
        E 0 90 6f 60
        E 120 80 1a 00
        E 0 80 31 00
        E 0 80 3d 00
        E 0 80 3f 00
        E 0 80 49 00
        E 0 80 4c 00
        E 0 80 55 00
        E 0 80 57 00
        E 0 80 61 00
        E 0 80 63 00
        E 0 80 6f 00
        E 120 90 19 60
        E 240 80 78 00
        E 0 80 79 00
        E 0 80 7a 00
        E 0 80 7b 00
        E 0 80 7c 00
        E 0 80 19 00
        E 0 90 18 60
        E 0 90 26 60
        E 0 90 40 60
        E 0 90 48 60
        E 0 90 4c 60
        E 0 90 54 60
        E 0 90 58 60
        E 0 90 60 60
        E 0 90 64 60
        E 120 80 18 00
        E 0 80 26 00
        E 0 80 40 00
        E 0 80 48 00
        E 0 80 4c 00
        E 0 80 54 00
        E 0 80 58 00
        E 0 80 60 00
        E 0 80 64 00
        E 120 90 19 60
        E 240 80 19 00
        E 0 90 1a 60
        E 0 90 26 60
        E 0 90 3d 60
        E 0 90 40 60
        E 0 90 49 60
        E 0 90 4c 60
        E 0 90 55 60
        E 0 90 58 60
        E 0 90 61 60
        E 0 90 64 60
        E 120 80 1a 00
        E 0 80 26 00
        E 0 80 3d 00
        E 0 80 40 00
        E 0 80 49 00
        E 0 80 4c 00
        E 0 80 55 00
        E 0 80 58 00
        E 0 80 61 00
        E 0 80 64 00
        E 120 90 19 60
        E 240 80 19 00
        E 0 90 26 60
        E 0 90 40 60
        E 0 90 4c 60
        E 0 90 58 60
        E 0 90 64 60
        E 120 80 26 00
        E 0 80 40 00
        E 0 80 4c 00
        E 0 80 58 00
        E 0 80 64 00
        E 120 90 18 60
        E 0 90 19 60
        E 0 90 54 60
        E 0 90 60 60
        E 120 80 18 00
        E 0 80 54 00
        E 0 80 60 00
        E 120 80 19 00
        E 0 90 1a 60
        E 0 90 26 60
        E 0 90 3d 60
        E 0 90 40 60
        E 0 90 49 60
        E 0 90 4c 60
        E 0 90 55 60
        E 0 90 58 60
        E 0 90 61 60
        E 0 90 64 60
        E 120 80 1a 00
        E 0 80 26 00
        E 0 80 3d 00
        E 0 80 40 00
        E 0 80 49 00
        E 0 80 4c 00
        E 0 80 55 00
        E 0 80 58 00
        E 0 80 61 00
        E 0 80 64 00
        E 120 90 19 60
        E 240 80 19 00
        E 0 90 26 60
        E 0 90 40 60
        E 0 90 4c 60
        E 0 90 58 60
        E 0 90 64 60
        E 120 80 26 00
        E 0 80 40 00
        E 0 80 4c 00
        E 0 80 58 00
        E 0 80 64 00
        E 120 90 54 60
        E 0 90 18 60
        E 0 90 19 60
        E 0 90 60 60
        E 120 80 54 00
        E 0 80 18 00
        E 0 80 60 00
        E 120 80 19 00
        E 0 90 1a 60
        E 0 90 26 60
        E 0 90 3d 60
        E 0 90 40 60
        E 0 90 49 60
        E 0 90 4c 60
        E 0 90 55 60
        E 0 90 58 60
        E 0 90 61 60
        E 0 90 64 60
        E 120 80 1a 00
        E 0 80 26 00
        E 0 80 3d 00
        E 0 80 40 00
        E 0 80 49 00
        E 0 80 4c 00
        E 0 80 55 00
        E 0 80 58 00
        E 0 80 61 00
        E 0 80 64 00
        E 120 90 19 60
        E 240 80 19 00
        E 0 90 26 60
        E 0 90 40 60
        E 0 90 4c 60
        E 0 90 58 60
        E 0 90 64 60
        E 120 80 26 00
        E 0 80 40 00
        E 0 80 4c 00
        E 0 80 58 00
        E 0 80 64 00
        E 120 90 18 60
        E 0 90 19 60
        E 0 90 60 60
        E 120 80 18 00
        E 0 80 60 00
        E 120 80 19 00
        E 0 90 1a 60
        E 0 90 26 60
        E 0 90 3d 60
        E 0 90 40 60
        E 0 90 49 60
        E 0 90 4c 60
        E 0 90 55 60
        E 0 90 58 60
        E 0 90 61 60
        E 0 90 64 60
        E 120 80 1a 00
        E 0 80 26 00
        E 0 80 3d 00
        E 0 80 40 00
        E 0 80 49 00
        E 0 80 4c 00
        E 0 80 55 00
        E 0 80 58 00
        E 0 80 61 00
        E 0 80 64 00
        E 120 90 19 60
        E 240 80 19 00
        E 0 90 18 60
        E 0 90 26 60
        E 0 90 40 60
        E 0 90 48 60
        E 0 90 4c 60
        E 0 90 54 60
        E 0 90 58 60
        E 0 90 60 60
        E 0 90 64 60
        E 120 80 18 00
        E 0 80 26 00
        E 0 80 40 00
        E 0 80 48 00
        E 0 80 4c 00
        E 0 80 54 00
        E 0 80 58 00
        E 0 80 60 00
        E 0 80 64 00
        E 120 90 19 60
        E 240 80 19 00
        E 0 90 1a 60
        E 0 90 26 60
        E 0 90 3d 60
        E 0 90 40 60
        E 0 90 49 60
        E 0 90 4c 60
        E 0 90 55 60
        E 0 90 58 60
        E 0 90 61 60
        E 0 90 64 60
        E 120 80 1a 00
        E 0 80 26 00
        E 0 80 3d 00
        E 0 80 40 00
        E 0 80 49 00
        E 0 80 4c 00
        E 0 80 55 00
        E 0 80 58 00
        E 0 80 61 00
        E 0 80 64 00
        E 120 90 19 60
        E 240 80 19 00
        E 0 90 26 60
        E 0 90 40 60
        E 0 90 4c 60
        E 0 90 58 60
        E 0 90 64 60
        E 120 80 26 00
        E 0 80 40 00
        E 0 80 4c 00
        E 0 80 58 00
        E 0 80 64 00
        E 120 90 54 60
        E 0 90 18 60
        E 0 90 19 60
        E 0 90 60 60
        E 120 80 54 00
        E 0 80 18 00
        E 0 80 60 00
        E 0 90 18 60
        E 0 90 60 60
        E 120 80 19 00
        E 0 80 18 00
        E 0 80 60 00
        E 0 90 1a 60
        E 0 90 26 60
        E 0 90 3d 60
        E 0 90 40 60
        E 0 90 49 60
        E 0 90 4c 60
        E 0 90 55 60
        E 0 90 58 60
        E 0 90 61 60
        E 0 90 64 60
        E 120 80 1a 00
        E 0 80 26 00
        E 0 80 3d 00
        E 0 80 40 00
        E 0 80 49 00
        E 0 80 4c 00
        E 0 80 55 00
        E 0 80 58 00
        E 0 80 61 00
        E 0 80 64 00
        E 120 90 19 60
        E 240 80 19 00
        E 0 90 26 60
        E 0 90 40 60
        E 0 90 4c 60
        E 0 90 58 60
        E 0 90 64 60
        E 120 80 26 00
        E 0 80 40 00
        E 0 80 4c 00
        E 0 80 58 00
        E 0 80 64 00
        E 120 90 18 60
        E 0 90 19 60
        E 0 90 54 60
        E 0 90 60 60
        E 120 80 18 00
        E 0 80 54 00
        E 0 80 60 00
        E 0 90 18 60
        E 0 90 60 60
        E 120 80 19 00
        E 0 80 18 00
        E 0 80 60 00
        E 0 90 1a 60
        E 0 90 26 60
        E 0 90 3d 60
        E 0 90 40 60
        E 0 90 49 60
        E 0 90 4c 60
        E 0 90 55 60
        E 0 90 58 60
        E 0 90 61 60
        E 0 90 64 60
        E 120 80 1a 00
        E 0 80 26 00
        E 0 80 3d 00
        E 0 80 40 00
        E 0 80 49 00
        E 0 80 4c 00
        E 0 80 55 00
        E 0 80 58 00
        E 0 80 61 00
        E 0 80 64 00
        E 120 90 19 60
        E 240 80 19 00
        E 0 90 26 60
        E 0 90 40 60
        E 0 90 4c 60
        E 0 90 58 60
        E 0 90 64 60
        E 120 80 26 00
        E 0 80 40 00
        E 0 80 4c 00
        E 0 80 58 00
        E 0 80 64 00
        E 120 90 54 60
        E 0 90 18 60
        E 0 90 19 60
        E 0 90 60 60
        E 120 80 54 00
        E 0 80 18 00
        E 0 80 60 00
        E 0 90 18 60
        E 0 90 60 60
        E 120 80 19 00
        E 0 80 18 00
        E 0 80 60 00
        E 0 90 1a 60
        E 0 90 26 60
        E 0 90 3d 60
        E 0 90 40 60
        E 0 90 49 60
        E 0 90 4c 60
        E 0 90 55 60
        E 0 90 58 60
        E 0 90 61 60
        E 0 90 64 60
        E 120 80 1a 00
        E 0 80 26 00
        E 0 80 3d 00
        E 0 80 40 00
        E 0 80 49 00
        E 0 80 4c 00
        E 0 80 55 00
        E 0 80 58 00
        E 0 80 61 00
        E 0 80 64 00
        E 120 90 19 60
        E 240 80 19 00
        E 0 90 18 60
        E 0 90 26 60
        E 0 90 40 60
        E 0 90 48 60
        E 0 90 4c 60
        E 0 90 54 60
        E 0 90 58 60
        E 0 90 60 60
        E 0 90 64 60
        E 120 80 18 00
        E 0 80 26 00
        E 0 80 40 00
        E 0 80 48 00
        E 0 80 4c 00
        E 0 80 54 00
        E 0 80 58 00
        E 0 80 60 00
        E 0 80 64 00
        E 120 90 19 60
        E 240 80 19 00
        E 0 90 1a 60
        E 0 90 26 60
        E 0 90 3d 60
        E 0 90 40 60
        E 0 90 49 60
        E 0 90 4c 60
        E 0 90 55 60
        E 0 90 58 60
        E 0 90 61 60
        E 0 90 64 60
        E 120 80 1a 00
        E 0 80 26 00
        E 0 80 3d 00
        E 0 80 40 00
        E 0 80 49 00
        E 0 80 4c 00
        E 0 80 55 00
        E 0 80 58 00
        E 0 80 61 00
        E 0 80 64 00
        E 120 90 19 60
        E 240 80 19 00
        E 0 90 26 60
        E 0 90 40 60
        E 0 90 4c 60
        E 0 90 58 60
        E 0 90 64 60
        E 120 80 26 00
        E 0 80 40 00
        E 0 80 4c 00
        E 0 80 58 00
        E 0 80 64 00
        E 120 90 18 60
        E 0 90 19 60
        E 0 90 54 60
        E 0 90 60 60
        E 120 80 18 00
        E 0 80 54 00
        E 0 80 60 00
        E 120 80 19 00
        E 0 90 1a 60
        E 0 90 26 60
        E 0 90 3d 60
        E 0 90 40 60
        E 0 90 49 60
        E 0 90 4c 60
        E 0 90 55 60
        E 0 90 58 60
        E 0 90 61 60
        E 0 90 64 60
        E 120 80 1a 00
        E 0 80 26 00
        E 0 80 3d 00
        E 0 80 40 00
        E 0 80 49 00
        E 0 80 4c 00
        E 0 80 55 00
        E 0 80 58 00
        E 0 80 61 00
        E 0 80 64 00
        E 120 90 19 60
        E 240 80 19 00
        E 0 90 26 60
        E 0 90 40 60
        E 0 90 4c 60
        E 0 90 58 60
        E 0 90 64 60
        E 120 80 26 00
        E 0 80 40 00
        E 0 80 4c 00
        E 0 80 58 00
        E 0 80 64 00
        E 120 90 18 60
        E 0 90 19 60
        E 0 90 54 60
        E 0 90 60 60
        E 120 80 18 00
        E 0 80 54 00
        E 0 80 60 00
        E 120 80 19 00
        E 0 90 1a 60
        E 0 90 26 60
        E 0 90 3d 60
        E 0 90 40 60
        E 0 90 49 60
        E 0 90 4c 60
        E 0 90 55 60
        E 0 90 58 60
        E 0 90 61 60
        E 0 90 64 60
        E 120 80 1a 00
        E 0 80 26 00
        E 0 80 3d 00
        E 0 80 40 00
        E 0 80 49 00
        E 0 80 4c 00
        E 0 80 55 00
        E 0 80 58 00
        E 0 80 61 00
        E 0 80 64 00
        E 120 90 19 60
        E 240 80 19 00
        E 0 90 26 60
        E 0 90 40 60
        E 0 90 4c 60
        E 0 90 58 60
        E 0 90 64 60
        E 120 80 26 00
        E 0 80 40 00
        E 0 80 4c 00
        E 0 80 58 00
        E 0 80 64 00
        E 120 90 18 60
        E 0 90 19 60
        E 0 90 54 60
        E 0 90 60 60
        E 120 80 18 00
        E 0 80 54 00
        E 0 80 60 00
        E 120 80 19 00
        E 0 90 1a 60
        E 0 90 26 60
        E 0 90 3d 60
        E 0 90 40 60
        E 0 90 49 60
        E 0 90 4c 60
        E 0 90 55 60
        E 0 90 58 60
        E 0 90 61 60
        E 0 90 64 60
        E 120 80 1a 00
        E 0 80 26 00
        E 0 80 3d 00
        E 0 80 40 00
        E 0 80 49 00
        E 0 80 4c 00
        E 0 80 55 00
        E 0 80 58 00
        E 0 80 61 00
        E 0 80 64 00
        E 120 90 19 60
        E 240 80 19 00
        E 0 90 18 60
        E 0 90 26 60
        E 0 90 40 60
        E 0 90 48 60
        E 0 90 4c 60
        E 0 90 54 60
        E 0 90 58 60
        E 0 90 60 60
        E 0 90 64 60
        E 120 80 18 00
        E 0 80 26 00
        E 0 80 40 00
        E 0 80 48 00
        E 0 80 4c 00
        E 0 80 54 00
        E 0 80 58 00
        E 0 80 60 00
        E 0 80 64 00
        E 120 90 19 60
        E 240 80 19 00
        E 0 90 1a 60
        E 0 90 26 60
        E 0 90 3d 60
        E 0 90 40 60
        E 0 90 49 60
        E 0 90 4c 60
        E 0 90 55 60
        E 0 90 58 60
        E 0 90 61 60
        E 0 90 64 60
        E 120 80 1a 00
        E 0 80 26 00
        E 0 80 3d 00
        E 0 80 40 00
        E 0 80 49 00
        E 0 80 4c 00
        E 0 80 55 00
        E 0 80 58 00
        E 0 80 61 00
        E 0 80 64 00
        E 120 90 19 60
        E 240 80 19 00
        E 0 90 26 60
        E 0 90 40 60
        E 0 90 4c 60
        E 0 90 58 60
        E 0 90 64 60
        E 120 80 26 00
        E 0 80 40 00
        E 0 80 4c 00
        E 0 80 58 00
        E 0 80 64 00
        E 120 90 18 60
        E 0 90 19 60
        E 0 90 54 60
        E 0 90 60 60
        E 120 80 18 00
        E 0 80 54 00
        E 0 80 60 00
        E 0 90 18 60 -1
        E 0 90 60 60 -1
        E 120 80 19 00
        E 0 80 18 00 -1
        E 0 80 60 00 -1
        E 0 90 1a 60
        E 0 90 26 60
        E 0 90 3d 60
        E 0 90 40 60
        E 0 90 49 60
        E 0 90 4c 60
        E 0 90 55 60
        E 0 90 58 60
        E 0 90 61 60
        E 0 90 64 60
        E 120 80 1a 00
        E 0 80 26 00
        E 0 80 3d 00
        E 0 80 40 00
        E 0 80 49 00
        E 0 80 4c 00
        E 0 80 55 00
        E 0 80 58 00
        E 0 80 61 00
        E 0 80 64 00
        E 120 90 19 60
        E 240 80 19 00
        E 0 90 26 60
        E 0 90 40 60
        E 0 90 4c 60
        E 0 90 58 60
        E 0 90 64 60
        E 0 90 78 60
        E 0 90 79 60
        E 0 90 7a 60
        E 0 90 7b 60
        E 0 90 7c 60
        E 120 80 26 00
        E 0 80 40 00
        E 0 80 4c 00
        E 0 80 58 00
        E 0 80 64 00
        E 120 90 18 60
        E 0 90 19 60
        E 0 90 54 60
        E 0 90 60 60
        E 120 80 18 00
        E 0 80 54 00
        E 0 80 60 00
        E 0 90 18 60 -1
        E 0 90 60 60 -1
        E 120 80 19 00
        E 0 80 18 00 -1
        E 0 80 60 00 -1
        E 0 90 1a 60
        E 0 90 26 60
        E 0 90 3d 60
        E 0 90 40 60
        E 0 90 49 60
        E 0 90 4c 60
        E 0 90 55 60
        E 0 90 58 60
        E 0 90 61 60
        E 0 90 64 60
        E 120 80 1a 00
        E 0 80 26 00
        E 0 80 3d 00
        E 0 80 40 00
        E 0 80 49 00
        E 0 80 4c 00
        E 0 80 55 00
        E 0 80 58 00
        E 0 80 61 00
        E 0 80 64 00
        E 120 90 19 60
        E 240 80 19 00
        E 0 90 26 60
        E 0 90 40 60
        E 0 90 4c 60
        E 0 90 58 60
        E 0 90 64 60
        E 120 80 26 00
        E 0 80 40 00
        E 0 80 4c 00
        E 0 80 58 00
        E 0 80 64 00
        E 120 90 18 60
        E 0 90 19 60
        E 0 90 54 60
        E 0 90 60 60
        E 120 80 18 00
        E 0 80 54 00
        E 0 80 60 00
        E 0 90 18 60 -1
        E 0 90 60 60 -1
        E 120 80 19 00
        E 0 80 18 00 -1
        E 0 80 60 00 -1
        E 0 90 1a 60
        E 0 90 26 60
        E 0 90 3d 60
        E 0 90 40 60
        E 0 90 49 60
        E 0 90 4c 60
        E 0 90 55 60
        E 0 90 58 60
        E 0 90 61 60
        E 0 90 64 60
        E 120 80 1a 00
        E 0 80 26 00
        E 0 80 3d 00
        E 0 80 40 00
        E 0 80 49 00
        E 0 80 4c 00
        E 0 80 55 00
        E 0 80 58 00
        E 0 80 61 00
        E 0 80 64 00
        E 120 90 19 60
        E 240 80 78 00
        E 0 80 79 00
        E 0 80 7a 00
        E 0 80 7b 00
        E 0 80 7c 00
        E 0 80 19 00
        E 0 90 18 60
        E 0 90 26 60
        E 0 90 40 60
        E 0 90 48 60
        E 0 90 4c 60
        E 0 90 54 60
        E 0 90 58 60
        E 0 90 60 60
        E 0 90 64 60
        E 120 80 18 00
        E 0 80 26 00
        E 0 80 40 00
        E 0 80 48 00
        E 0 80 4c 00
        E 0 80 54 00
        E 0 80 58 00
        E 0 80 60 00
        E 0 80 64 00
        E 120 90 19 60
        E 240 80 19 00
        E 0 90 1a 60
        E 0 90 26 60
        E 0 90 3d 60
        E 0 90 40 60
        E 0 90 49 60
        E 0 90 4c 60
        E 0 90 55 60
        E 0 90 58 60
        E 0 90 61 60
        E 0 90 64 60
        E 120 80 1a 00
        E 0 80 26 00
        E 0 80 3d 00
        E 0 80 40 00
        E 0 80 49 00
        E 0 80 4c 00
        E 0 80 55 00
        E 0 80 58 00
        E 0 80 61 00
        E 0 80 64 00
        E 120 90 19 60
        E 240 80 19 00
        E 0 90 26 60
        E 0 90 40 60
        E 0 90 4c 60
        E 0 90 58 60
        E 0 90 64 60
        E 120 80 26 00
        E 0 80 40 00
        E 0 80 4c 00
        E 0 80 58 00
        E 0 80 64 00
        E 120 90 18 60
        E 0 90 19 60
        E 0 90 60 60
        E 0 90 54 60
        E 120 80 18 00
        E 0 80 60 00
        E 0 80 54 00
        E 120 80 19 00
        E 0 90 1a 60
        E 0 90 26 60
        E 0 90 3d 60
        E 0 90 40 60
        E 0 90 49 60
        E 0 90 4c 60
        E 0 90 55 60
        E 0 90 58 60
        E 0 90 61 60
        E 0 90 64 60
        E 120 80 1a 00
        E 0 80 26 00
        E 0 80 3d 00
        E 0 80 40 00
        E 0 80 49 00
        E 0 80 4c 00
        E 0 80 55 00
        E 0 80 58 00
        E 0 80 61 00
        E 0 80 64 00
        E 120 90 19 60
        E 240 80 19 00
        E 0 90 26 60
        E 0 90 40 60
        E 0 90 4c 60
        E 0 90 58 60
        E 0 90 64 60
        E 120 80 26 00
        E 0 80 40 00
        E 0 80 4c 00
        E 0 80 58 00
        E 0 80 64 00
        E 120 90 18 60
        E 0 90 19 60
        E 0 90 54 60
        E 0 90 60 60
        E 120 80 18 00
        E 0 80 54 00
        E 0 80 60 00
        E 120 80 19 00
        E 0 90 1a 60
        E 0 90 26 60
        E 0 90 3d 60
        E 0 90 40 60
        E 0 90 49 60
        E 0 90 4c 60
        E 0 90 55 60
        E 0 90 58 60
        E 0 90 61 60
        E 0 90 64 60
        E 120 80 1a 00
        E 0 80 26 00
        E 0 80 3d 00
        E 0 80 40 00
        E 0 80 49 00
        E 0 80 4c 00
        E 0 80 55 00
        E 0 80 58 00
        E 0 80 61 00
        E 0 80 64 00
        E 120 90 19 60
        E 240 80 19 00
        E 0 90 26 60
        E 0 90 40 60
        E 0 90 4c 60
        E 0 90 58 60
        E 0 90 64 60
        E 120 80 26 00
        E 0 80 40 00
        E 0 80 4c 00
        E 0 80 58 00
        E 0 80 64 00
        E 120 90 18 60
        E 0 90 19 60
        E 0 90 54 60
        E 0 90 60 60
        E 120 80 18 00
        E 0 80 54 00
        E 0 80 60 00
        E 120 80 19 00
        E 0 90 1a 60
        E 0 90 26 60
        E 0 90 3d 60
        E 0 90 40 60
        E 0 90 49 60
        E 0 90 4c 60
        E 0 90 55 60
        E 0 90 58 60
        E 0 90 61 60
        E 0 90 64 60
        E 120 80 1a 00
        E 0 80 26 00
        E 0 80 3d 00
        E 0 80 40 00
        E 0 80 49 00
        E 0 80 4c 00
        E 0 80 55 00
        E 0 80 58 00
        E 0 80 61 00
        E 0 80 64 00
        E 120 90 19 60
        E 240 80 19 00
        E 0 90 18 60
        E 0 90 26 60
        E 0 90 40 60
        E 0 90 48 60
        E 0 90 4c 60
        E 0 90 54 60
        E 0 90 58 60
        E 0 90 60 60
        E 0 90 64 60
        E 120 80 18 00
        E 0 80 26 00
        E 0 80 40 00
        E 0 80 48 00
        E 0 80 4c 00
        E 0 80 54 00
        E 0 80 58 00
        E 0 80 60 00
        E 0 80 64 00
        E 120 90 19 60
        E 240 80 19 00
        E 0 90 1a 60
        E 0 90 26 60
        E 0 90 3d 60
        E 0 90 40 60
        E 0 90 49 60
        E 0 90 4c 60
        E 0 90 55 60
        E 0 90 58 60
        E 0 90 61 60
        E 0 90 64 60
        E 120 80 1a 00
        E 0 80 26 00
        E 0 80 3d 00
        E 0 80 40 00
        E 0 80 49 00
        E 0 80 4c 00
        E 0 80 55 00
        E 0 80 58 00
        E 0 80 61 00
        E 0 80 64 00
        E 120 90 19 60
        E 240 80 19 00
        E 0 90 26 60
        E 0 90 40 60
        E 0 90 4c 60
        E 0 90 58 60
        E 0 90 64 60
        E 120 80 26 00
        E 0 80 40 00
        E 0 80 4c 00
        E 0 80 58 00
        E 0 80 64 00
        E 120 90 18 60
        E 0 90 19 60
        E 0 90 54 60
        E 0 90 60 60
        E 120 80 18 00
        E 0 80 54 00
        E 0 80 60 00
        E 0 90 18 60 -1
        E 0 90 60 60 -1
        E 120 80 19 00
        E 0 80 18 00 -1
        E 0 80 60 00 -1
        E 0 90 1a 60
        E 0 90 26 60
        E 0 90 3d 60
        E 0 90 40 60
        E 0 90 49 60
        E 0 90 4c 60
        E 0 90 55 60
        E 0 90 58 60
        E 0 90 61 60
        E 0 90 64 60
        E 120 80 1a 00
        E 0 80 26 00
        E 0 80 3d 00
        E 0 80 40 00
        E 0 80 49 00
        E 0 80 4c 00
        E 0 80 55 00
        E 0 80 58 00
        E 0 80 61 00
        E 0 80 64 00
        E 120 90 19 60
        E 240 80 19 00
        E 0 90 26 60
        E 0 90 40 60
        E 0 90 4c 60
        E 0 90 58 60
        E 0 90 64 60
        E 120 80 26 00
        E 0 80 40 00
        E 0 80 4c 00
        E 0 80 58 00
        E 0 80 64 00
        E 120 90 18 60
        E 0 90 19 60
        E 0 90 54 60
        E 0 90 60 60
        E 120 80 18 00
        E 0 80 54 00
        E 0 80 60 00
        E 0 90 18 60 -1
        E 0 90 60 60 -1
        E 120 80 19 00
        E 0 80 18 00 -1
        E 0 80 60 00 -1
        E 0 90 1a 60
        E 0 90 26 60
        E 0 90 3d 60
        E 0 90 40 60
        E 0 90 49 60
        E 0 90 4c 60
        E 0 90 55 60
        E 0 90 58 60
        E 0 90 61 60
        E 0 90 64 60
        E 120 80 1a 00
        E 0 80 26 00
        E 0 80 3d 00
        E 0 80 40 00
        E 0 80 49 00
        E 0 80 4c 00
        E 0 80 55 00
        E 0 80 58 00
        E 0 80 61 00
        E 0 80 64 00
        E 120 90 19 60
        E 240 80 19 00
        E 0 90 26 60
        E 0 90 40 60
        E 0 90 4c 60
        E 0 90 58 60
        E 0 90 64 60
        E 120 80 26 00
        E 0 80 40 00
        E 0 80 4c 00
        E 0 80 58 00
        E 0 80 64 00
        E 120 90 18 60
        E 0 90 19 60
        E 0 90 54 60
        E 0 90 60 60
        E 120 80 18 00
        E 0 80 54 00
        E 0 80 60 00
        E 0 90 18 60 -1
        E 0 90 60 60 -1
        E 120 80 19 00
        E 0 80 18 00 -1
        E 0 80 60 00 -1
        E 0 90 1a 60
        E 0 90 26 60
        E 0 90 3d 60
        E 0 90 40 60
        E 0 90 49 60
        E 0 90 4c 60
        E 0 90 55 60
        E 0 90 58 60
        E 0 90 61 60
        E 0 90 64 60
        E 120 80 1a 00
        E 0 80 26 00
        E 0 80 3d 00
        E 0 80 40 00
        E 0 80 49 00
        E 0 80 4c 00
        E 0 80 55 00
        E 0 80 58 00
        E 0 80 61 00
        E 0 80 64 00
        E 120 90 19 60
        E 240 80 19 00
        E 0 90 18 60
        E 0 90 26 60
        E 0 90 40 60
        E 0 90 48 60
        E 0 90 4c 60
        E 0 90 54 60
        E 0 90 58 60
        E 0 90 60 60
        E 0 90 64 60
        E 0 90 74 60
        E 120 80 18 00
        E 0 80 26 00
        E 0 80 40 00
        E 0 80 48 00
        E 0 80 4c 00
        E 0 80 54 00
        E 0 80 58 00
        E 0 80 60 00
        E 0 80 64 00
        E 120 90 19 60
        E 240 80 19 00
        E 0 90 1a 60
        E 0 90 26 60
        E 0 90 3d 60
        E 0 90 40 60
        E 0 90 49 60
        E 0 90 4c 60
        E 0 90 55 60
        E 0 90 58 60
        E 0 90 61 60
        E 0 90 64 60
        E 120 80 1a 00
        E 0 80 26 00
        E 0 80 3d 00
        E 0 80 40 00
        E 0 80 49 00
        E 0 80 4c 00
        E 0 80 55 00
        E 0 80 58 00
        E 0 80 61 00
        E 0 80 64 00
        E 120 90 19 60
        E 240 80 19 00
        E 0 90 26 60
        E 0 90 40 60
        E 0 90 4c 60
        E 0 90 58 60
        E 0 90 64 60
        E 120 80 26 00
        E 0 80 40 00
        E 0 80 4c 00
        E 0 80 58 00
        E 0 80 64 00
        E 120 90 18 60
        E 0 90 19 60
        E 0 90 54 60
        E 0 90 60 60
        E 120 80 18 00
        E 0 80 54 00
        E 0 80 60 00
        E 120 80 19 00
        E 0 90 1a 60
        E 0 90 26 60
        E 0 90 3d 60
        E 0 90 40 60
        E 0 90 49 60
        E 0 90 4c 60
        E 0 90 55 60
        E 0 90 58 60
        E 0 90 61 60
        E 0 90 64 60
        E 120 80 1a 00
        E 0 80 26 00
        E 0 80 3d 00
        E 0 80 40 00
        E 0 80 49 00
        E 0 80 4c 00
        E 0 80 55 00
        E 0 80 58 00
        E 0 80 61 00
        E 0 80 64 00
        E 120 90 19 60
        E 240 80 19 00
        E 0 90 26 60
        E 0 90 40 60
        E 0 90 4c 60
        E 0 90 58 60
        E 0 90 64 60
        E 120 80 26 00
        E 0 80 40 00
        E 0 80 4c 00
        E 0 80 58 00
        E 0 80 64 00
        E 120 90 18 60
        E 0 90 19 60
        E 0 90 54 60
        E 0 90 60 60
        E 120 80 18 00
        E 0 80 54 00
        E 0 80 60 00
        E 120 80 19 00
        E 0 90 1a 60
        E 0 90 26 60
        E 0 90 3d 60
        E 0 90 40 60
        E 0 90 49 60
        E 0 90 4c 60
        E 0 90 55 60
        E 0 90 58 60
        E 0 90 61 60
        E 0 90 64 60
        E 120 80 1a 00
        E 0 80 26 00
        E 0 80 3d 00
        E 0 80 40 00
        E 0 80 49 00
        E 0 80 4c 00
        E 0 80 55 00
        E 0 80 58 00
        E 0 80 61 00
        E 0 80 64 00
        E 120 90 19 60
        E 240 80 19 00
        E 0 90 26 60
        E 0 90 40 60
        E 0 90 4c 60
        E 0 90 58 60
        E 0 90 64 60
        E 120 80 26 00
        E 0 80 40 00
        E 0 80 4c 00
        E 0 80 58 00
        E 0 80 64 00
        E 120 90 19 60
        E 240 80 19 00
        E 0 90 1a 60
        E 0 90 26 60
        E 0 90 3d 60
        E 0 90 40 60
        E 0 90 49 60
        E 0 90 4c 60
        E 0 90 55 60
        E 0 90 58 60
        E 0 90 61 60
        E 0 90 64 60
        E 120 80 1a 00
        E 0 80 26 00
        E 0 80 3d 00
        E 0 80 40 00
        E 0 80 49 00
        E 0 80 4c 00
        E 0 80 55 00
        E 0 80 58 00
        E 0 80 61 00
        E 0 80 64 00
        E 120 90 19 60
        E 240 80 74 00
        E 0 80 19 00
        E 0 90 18 60
        E 0 90 26 60
        E 0 90 40 60
        E 0 90 48 60
        E 0 90 4c 60
        E 0 90 54 60
        E 0 90 58 60
        E 0 90 60 60
        E 0 90 64 60
        E 120 80 18 00
        E 0 80 26 00
        E 0 80 40 00
        E 0 80 48 00
        E 0 80 4c 00
        E 0 80 54 00
        E 0 80 58 00
        E 0 80 60 00
        E 0 80 64 00
        E 120 90 19 60
        E 240 80 19 00
        E 0 90 1a 60
        E 0 90 26 60
        E 0 90 3d 60
        E 0 90 40 60
        E 0 90 49 60
        E 0 90 4c 60
        E 0 90 55 60
        E 0 90 58 60
        E 0 90 61 60
        E 0 90 64 60
        E 120 80 1a 00
        E 0 80 26 00
        E 0 80 3d 00
        E 0 80 40 00
        E 0 80 49 00
        E 0 80 4c 00
        E 0 80 55 00
        E 0 80 58 00
        E 0 80 61 00
        E 0 80 64 00
        E 120 90 19 60
        E 240 80 19 00
        E 0 90 18 60
        E 0 90 26 60
        E 0 90 40 60
        E 0 90 4c 60
        E 0 90 54 60
        E 0 90 58 60
        E 0 90 60 60
        E 0 90 64 60
        E 120 80 18 00
        E 0 80 26 00
        E 0 80 40 00
        E 0 80 4c 00
        E 0 80 54 00
        E 0 80 58 00
        E 0 80 60 00
        E 0 80 64 00
        E 120 90 18 60
        E 0 90 19 60
        E 0 90 60 60
        E 120 80 18 00
        E 0 80 60 00
        E 120 80 19 00
        E 0 90 1a 60
        E 0 90 26 60
        E 0 90 3d 60
        E 0 90 40 60
        E 0 90 49 60
        E 0 90 4c 60
        E 0 90 55 60
        E 0 90 58 60
        E 0 90 61 60
        E 0 90 64 60
        E 120 80 1a 00
        E 0 80 26 00
        E 0 80 3d 00
        E 0 80 40 00
        E 0 80 49 00
        E 0 80 4c 00
        E 0 80 55 00
        E 0 80 58 00
        E 0 80 61 00
        E 0 80 64 00
        E 120 90 19 60
        E 240 80 19 00
        E 0 90 18 60
        E 0 90 26 60
        E 0 90 40 60
        E 0 90 4c 60
        E 0 90 54 60
        E 0 90 58 60
        E 0 90 60 60
        E 0 90 64 60
        E 0 90 78 60
        E 0 90 79 60
        E 0 90 7a 60
        E 0 90 7b 60
        E 0 90 7c 60
        E 120 80 18 00
        E 0 80 26 00
        E 0 80 40 00
        E 0 80 4c 00
        E 0 80 54 00
        E 0 80 58 00
        E 0 80 60 00
        E 0 80 64 00
        E 120 90 19 60
        E 240 80 19 00
        E 0 90 1a 60
        E 0 90 26 60
        E 0 90 3d 60
        E 0 90 40 60
        E 0 90 49 60
        E 0 90 4c 60
        E 0 90 55 60
        E 0 90 58 60
        E 0 90 61 60
        E 0 90 64 60
        E 120 80 1a 00
        E 0 80 26 00
        E 0 80 3d 00
        E 0 80 40 00
        E 0 80 49 00
        E 0 80 4c 00
        E 0 80 55 00
        E 0 80 58 00
        E 0 80 61 00
        E 0 80 64 00
        E 120 90 19 60
        E 240 80 19 00
        E 0 90 18 60
        E 0 90 26 60
        E 0 90 40 60
        E 0 90 4c 60
        E 0 90 54 60
        E 0 90 58 60
        E 0 90 60 60
        E 0 90 64 60
        E 120 80 18 00
        E 0 80 26 00
        E 0 80 40 00
        E 0 80 4c 00
        E 0 80 54 00
        E 0 80 58 00
        E 0 80 60 00
        E 0 80 64 00
        E 120 90 19 60
        E 240 80 19 00
        E 0 90 1a 60
        E 0 90 31 60
        E 0 90 3d 60
        E 0 90 3f 60
        E 0 90 49 60
        E 0 90 4b 60
        E 0 90 55 60
        E 0 90 57 60
        E 0 90 61 60
        E 0 90 63 60
        E 0 90 6f 60
        E 120 80 1a 00
        E 0 80 31 00
        E 0 80 3d 00
        E 0 80 3f 00
        E 0 80 49 00
        E 0 80 4b 00
        E 0 80 55 00
        E 0 80 57 00
        E 0 80 61 00
        E 0 80 63 00
        E 0 80 6f 00
        E 120 90 19 60
        E 240 80 78 00
        E 0 80 79 00
        E 0 80 7a 00
        E 0 80 7b 00
        E 0 80 7c 00
        E 0 80 19 00
        E 0 90 18 60
        E 0 90 26 60
        E 0 90 40 60
        E 0 90 48 60
        E 0 90 4c 60
        E 0 90 54 60
        E 0 90 58 60
        E 0 90 60 60
        E 0 90 64 60
        E 120 80 18 00
        E 0 80 26 00
        E 0 80 40 00
        E 0 80 48 00
        E 0 80 4c 00
        E 0 80 54 00
        E 0 80 58 00
        E 0 80 60 00
        E 0 80 64 00
        E 120 90 18 60
        E 0 90 19 60
        E 0 90 60 60
        E 120 80 18 00
        E 0 80 60 00
        E 120 80 19 00
        E 0 90 1a 60
        E 0 90 26 60
        E 0 90 3d 60
        E 0 90 40 60
        E 0 90 49 60
        E 0 90 4c 60
        E 0 90 55 60
        E 0 90 58 60
        E 0 90 61 60
        E 0 90 64 60
        E 120 80 1a 00
        E 0 80 26 00
        E 0 80 3d 00
        E 0 80 40 00
        E 0 80 49 00
        E 0 80 4c 00
        E 0 80 55 00
        E 0 80 58 00
        E 0 80 61 00
        E 0 80 64 00
        E 120 90 18 60
        E 0 90 19 60
        E 0 90 60 60
        E 120 80 18 00
        E 0 80 60 00
        E 120 80 19 00
        E 0 90 18 60
        E 0 90 26 60
        E 0 90 40 60
        E 0 90 4c 60
        E 0 90 54 60
        E 0 90 58 60
        E 0 90 60 60
        E 0 90 64 60
        E 120 80 18 00
        E 0 80 26 00
        E 0 80 40 00
        E 0 80 4c 00
        E 0 80 54 00
        E 0 80 58 00
        E 0 80 60 00
        E 0 80 64 00
        E 120 90 19 60
        E 240 80 19 00
        E 0 90 1a 60
        E 0 90 26 60
        E 0 90 3d 60
        E 0 90 40 60
        E 0 90 49 60
        E 0 90 4c 60
        E 0 90 55 60
        E 0 90 58 60
        E 0 90 61 60
        E 0 90 64 60
        E 120 80 1a 00
        E 0 80 26 00
        E 0 80 3d 00
        E 0 80 40 00
        E 0 80 49 00
        E 0 80 4c 00
        E 0 80 55 00
        E 0 80 58 00
        E 0 80 61 00
        E 0 80 64 00
        E 120 90 19 60
        E 240 80 19 00
        E 0 90 18 60
        E 0 90 26 60
        E 0 90 40 60
        E 0 90 4c 60
        E 0 90 54 60
        E 0 90 58 60
        E 0 90 60 60
        E 0 90 64 60
        E 120 80 18 00
        E 0 80 26 00
        E 0 80 40 00
        E 0 80 4c 00
        E 0 80 54 00
        E 0 80 58 00
        E 0 80 60 00
        E 0 80 64 00
        E 120 90 18 60
        E 0 90 19 60
        E 0 90 60 60
        E 120 80 18 00
        E 0 80 60 00
        E 120 80 19 00
        E 0 90 1a 60
        E 0 90 26 60
        E 0 90 3d 60
        E 0 90 40 60
        E 0 90 49 60
        E 0 90 4c 60
        E 0 90 55 60
        E 0 90 58 60
        E 0 90 61 60
        E 0 90 64 60
        E 120 80 1a 00
        E 0 80 26 00
        E 0 80 3d 00
        E 0 80 40 00
        E 0 80 49 00
        E 0 80 4c 00
        E 0 80 55 00
        E 0 80 58 00
        E 0 80 61 00
        E 0 80 64 00
        E 120 90 18 60
        E 0 90 19 60
        E 0 90 60 60
        E 120 80 18 00
        E 0 80 60 00
        E 120 80 19 00
        E 0 90 18 60
        E 0 90 26 60
        E 0 90 40 60
        E 0 90 4c 60
        E 0 90 54 60
        E 0 90 58 60
        E 0 90 60 60
        E 0 90 64 60
        E 120 80 18 00
        E 0 80 26 00
        E 0 80 40 00
        E 0 80 4c 00
        E 0 80 54 00
        E 0 80 58 00
        E 0 80 60 00
        E 0 80 64 00
        E 120 90 19 60
        E 240 80 19 00
        E 0 90 1a 60
        E 0 90 26 60
        E 0 90 3d 60
        E 0 90 40 60
        E 0 90 49 60
        E 0 90 4c 60
        E 0 90 55 60
        E 0 90 58 60
        E 0 90 61 60
        E 0 90 64 60
        E 120 80 1a 00
        E 0 80 26 00
        E 0 80 3d 00
        E 0 80 40 00
        E 0 80 49 00
        E 0 80 4c 00
        E 0 80 55 00
        E 0 80 58 00
        E 0 80 61 00
        E 0 80 64 00
        E 120 90 19 60
        E 240 80 19 00
        E 0 90 18 60
        E 0 90 26 60
        E 0 90 40 60
        E 0 90 48 60
        E 0 90 4c 60
        E 0 90 54 60
        E 0 90 58 60
        E 0 90 60 60
        E 0 90 64 60
        E 120 80 18 00
        E 0 80 26 00
        E 0 80 40 00
        E 0 80 48 00
        E 0 80 4c 00
        E 0 80 54 00
        E 0 80 58 00
        E 0 80 60 00
        E 0 80 64 00
        E 120 90 18 60
        E 0 90 19 60
        E 0 90 60 60
        E 120 80 18 00
        E 0 80 60 00
        E 120 80 19 00
        E 0 90 1a 60
        E 0 90 26 60
        E 0 90 3d 60
        E 0 90 40 60
        E 0 90 49 60
        E 0 90 4c 60
        E 0 90 55 60
        E 0 90 58 60
        E 0 90 61 60
        E 0 90 64 60
        E 120 80 1a 00
        E 0 80 26 00
        E 0 80 3d 00
        E 0 80 40 00
        E 0 80 49 00
        E 0 80 4c 00
        E 0 80 55 00
        E 0 80 58 00
        E 0 80 61 00
        E 0 80 64 00
        E 120 90 18 60
        E 0 90 19 60
        E 0 90 60 60
        E 120 80 18 00
        E 0 80 60 00
        E 120 80 19 00
        E 0 90 18 60
        E 0 90 26 60
        E 0 90 40 60
        E 0 90 4c 60
        E 0 90 54 60
        E 0 90 58 60
        E 0 90 60 60
        E 0 90 64 60
        E 120 80 18 00
        E 0 80 26 00
        E 0 80 40 00
        E 0 80 4c 00
        E 0 80 54 00
        E 0 80 58 00
        E 0 80 60 00
        E 0 80 64 00
        E 120 90 19 60
        E 240 80 19 00
        E 0 90 1a 60
        E 0 90 26 60
        E 0 90 3d 60
        E 0 90 40 60
        E 0 90 49 60
        E 0 90 4c 60
        E 0 90 55 60
        E 0 90 58 60
        E 0 90 61 60
        E 0 90 64 60
        E 120 80 1a 00
        E 0 80 26 00
        E 0 80 3d 00
        E 0 80 40 00
        E 0 80 49 00
        E 0 80 4c 00
        E 0 80 55 00
        E 0 80 58 00
        E 0 80 61 00
        E 0 80 64 00
        E 120 90 19 60
        E 240 80 19 00
        E 0 90 18 60
        E 0 90 26 60
        E 0 90 40 60
        E 0 90 4c 60
        E 0 90 54 60
        E 0 90 58 60
        E 0 90 60 60
        E 0 90 64 60
        E 120 80 18 00
        E 0 80 26 00
        E 0 80 40 00
        E 0 80 4c 00
        E 0 80 54 00
        E 0 80 58 00
        E 0 80 60 00
        E 0 80 64 00
        E 120 90 18 60
        E 0 90 19 60
        E 0 90 60 60
        E 120 80 18 00
        E 0 80 60 00
        E 120 80 19 00
        E 0 90 1a 60
        E 0 90 26 60
        E 0 90 3d 60
        E 0 90 40 60
        E 0 90 49 60
        E 0 90 4c 60
        E 0 90 55 60
        E 0 90 58 60
        E 0 90 61 60
        E 0 90 64 60
        E 120 80 1a 00
        E 0 80 26 00
        E 0 80 3d 00
        E 0 80 40 00
        E 0 80 49 00
        E 0 80 4c 00
        E 0 80 55 00
        E 0 80 58 00
        E 0 80 61 00
        E 0 80 64 00
        E 120 90 18 60
        E 0 90 19 60
        E 0 90 60 60
        E 120 80 18 00
        E 0 80 60 00
        E 120 80 19 00
        E 0 90 18 60
        E 0 90 26 60
        E 0 90 40 60
        E 0 90 4c 60
        E 0 90 54 60
        E 0 90 58 60
        E 0 90 60 60
        E 0 90 64 60
        E 120 80 18 00
        E 0 80 26 00
        E 0 80 40 00
        E 0 80 4c 00
        E 0 80 54 00
        E 0 80 58 00
        E 0 80 60 00
        E 0 80 64 00
        E 120 90 19 60
        E 240 80 19 00
        E 0 90 1a 60
        E 0 90 26 60
        E 0 90 3d 60
        E 0 90 40 60
        E 0 90 49 60
        E 0 90 4c 60
        E 0 90 55 60
        E 0 90 58 60
        E 0 90 61 60
        E 0 90 64 60
        E 120 80 1a 00
        E 0 80 26 00
        E 0 80 3d 00
        E 0 80 40 00
        E 0 80 49 00
        E 0 80 4c 00
        E 0 80 55 00
        E 0 80 58 00
        E 0 80 61 00
        E 0 80 64 00
        E 120 90 19 60
        E 240 80 19 00
        E 0 90 18 60
        E 0 90 26 60
        E 0 90 40 60
        E 0 90 48 60
        E 0 90 4c 60
        E 0 90 54 60
        E 0 90 58 60
        E 0 90 60 60
        E 0 90 64 60
        E 120 80 18 00
        E 0 80 26 00
        E 0 80 40 00
        E 0 80 48 00
        E 0 80 4c 00
        E 0 80 54 00
        E 0 80 58 00
        E 0 80 60 00
        E 0 80 64 00
        E 120 90 18 60
        E 0 90 19 60
        E 0 90 60 60
        E 120 80 18 00
        E 0 80 60 00
        E 120 80 19 00
        E 0 90 1a 60
        E 0 90 26 60
        E 0 90 3d 60
        E 0 90 40 60
        E 0 90 49 60
        E 0 90 4c 60
        E 0 90 55 60
        E 0 90 58 60
        E 0 90 61 60
        E 0 90 64 60
        E 120 80 1a 00
        E 0 80 26 00
        E 0 80 3d 00
        E 0 80 40 00
        E 0 80 49 00
        E 0 80 4c 00
        E 0 80 55 00
        E 0 80 58 00
        E 0 80 61 00
        E 0 80 64 00
        E 120 90 18 60
        E 0 90 19 60
        E 0 90 60 60
        E 120 80 18 00
        E 0 80 60 00
        E 120 80 19 00
        E 0 90 18 60
        E 0 90 26 60
        E 0 90 40 60
        E 0 90 4c 60
        E 0 90 54 60
        E 0 90 58 60
        E 0 90 60 60
        E 0 90 64 60
        E 120 80 18 00
        E 0 80 26 00
        E 0 80 40 00
        E 0 80 4c 00
        E 0 80 54 00
        E 0 80 58 00
        E 0 80 60 00
        E 0 80 64 00
        E 120 90 19 60
        E 240 80 19 00
        E 0 90 1a 60
        E 0 90 26 60
        E 0 90 3d 60
        E 0 90 40 60
        E 0 90 49 60
        E 0 90 4c 60
        E 0 90 55 60
        E 0 90 58 60
        E 0 90 61 60
        E 0 90 64 60
        E 120 80 1a 00
        E 0 80 26 00
        E 0 80 3d 00
        E 0 80 40 00
        E 0 80 49 00
        E 0 80 4c 00
        E 0 80 55 00
        E 0 80 58 00
        E 0 80 61 00
        E 0 80 64 00
        E 120 90 19 60
        E 240 80 19 00
        E 0 90 18 60
        E 0 90 26 60
        E 0 90 40 60
        E 0 90 4c 60
        E 0 90 54 60
        E 0 90 58 60
        E 0 90 60 60
        E 0 90 64 60
        E 120 80 18 00
        E 0 80 26 00
        E 0 80 40 00
        E 0 80 4c 00
        E 0 80 54 00
        E 0 80 58 00
        E 0 80 60 00
        E 0 80 64 00
        E 120 90 18 60
        E 0 90 19 60
        E 0 90 60 60
        E 120 80 18 00
        E 0 80 60 00
        E 120 80 19 00
        E 0 90 1a 60
        E 0 90 26 60
        E 0 90 3d 60
        E 0 90 40 60
        E 0 90 49 60
        E 0 90 4c 60
        E 0 90 55 60
        E 0 90 58 60
        E 0 90 61 60
        E 0 90 64 60
        E 120 80 1a 00
        E 0 80 26 00
        E 0 80 3d 00
        E 0 80 40 00
        E 0 80 49 00
        E 0 80 4c 00
        E 0 80 55 00
        E 0 80 58 00
        E 0 80 61 00
        E 0 80 64 00
        E 120 90 18 60
        E 0 90 19 60
        E 0 90 60 60
        E 120 80 18 00
        E 0 80 60 00
        E 120 80 19 00
        E 0 90 18 60
        E 0 90 26 60
        E 0 90 40 60
        E 0 90 4c 60
        E 0 90 54 60
        E 0 90 58 60
        E 0 90 60 60
        E 0 90 64 60
        E 120 80 18 00
        E 0 80 26 00
        E 0 80 40 00
        E 0 80 4c 00
        E 0 80 54 00
        E 0 80 58 00
        E 0 80 60 00
        E 0 80 64 00
        E 120 90 19 60
        E 240 80 19 00
        E 0 90 1a 60
        E 0 90 26 60
        E 0 90 3d 60
        E 0 90 40 60
        E 0 90 49 60
        E 0 90 4c 60
        E 0 90 55 60
        E 0 90 58 60
        E 0 90 61 60
        E 0 90 64 60
        E 120 80 1a 00
        E 0 80 26 00
        E 0 80 3d 00
        E 0 80 40 00
        E 0 80 49 00
        E 0 80 4c 00
        E 0 80 55 00
        E 0 80 58 00
        E 0 80 61 00
        E 0 80 64 00
        E 120 90 19 60
        E 240 80 19 00
        E 0 90 18 60
        E 0 90 26 60
        E 0 90 40 60
        E 0 90 48 60
        E 0 90 4c 60
        E 0 90 54 60
        E 0 90 58 60
        E 0 90 60 60
        E 0 90 64 60
        E 120 80 18 00
        E 0 80 26 00
        E 0 80 40 00
        E 0 80 48 00
        E 0 80 4c 00
        E 0 80 54 00
        E 0 80 58 00
        E 0 80 60 00
        E 0 80 64 00
        E 120 90 18 60
        E 0 90 19 60
        E 0 90 60 60
        E 120 80 18 00
        E 0 80 60 00
        E 120 80 19 00
        E 0 90 1a 60
        E 0 90 26 60
        E 0 90 3d 60
        E 0 90 40 60
        E 0 90 49 60
        E 0 90 4c 60
        E 0 90 55 60
        E 0 90 58 60
        E 0 90 61 60
        E 0 90 64 60
        E 120 80 1a 00
        E 0 80 26 00
        E 0 80 3d 00
        E 0 80 40 00
        E 0 80 49 00
        E 0 80 4c 00
        E 0 80 55 00
        E 0 80 58 00
        E 0 80 61 00
        E 0 80 64 00
        E 120 90 18 60
        E 0 90 19 60
        E 0 90 60 60
        E 120 80 18 00
        E 0 80 60 00
        E 120 80 19 00
        E 0 90 18 60
        E 0 90 26 60
        E 0 90 40 60
        E 0 90 4c 60
        E 0 90 54 60
        E 0 90 58 60
        E 0 90 60 60
        E 0 90 64 60
        E 120 80 18 00
        E 0 80 26 00
        E 0 80 40 00
        E 0 80 4c 00
        E 0 80 54 00
        E 0 80 58 00
        E 0 80 60 00
        E 0 80 64 00
        E 120 90 19 60
        E 240 80 19 00
        E 0 90 1a 60
        E 0 90 26 60
        E 0 90 3d 60
        E 0 90 40 60
        E 0 90 49 60
        E 0 90 4c 60
        E 0 90 55 60
        E 0 90 58 60
        E 0 90 61 60
        E 0 90 64 60
        E 120 80 1a 00
        E 0 80 26 00
        E 0 80 3d 00
        E 0 80 40 00
        E 0 80 49 00
        E 0 80 4c 00
        E 0 80 55 00
        E 0 80 58 00
        E 0 80 61 00
        E 0 80 64 00
        E 120 90 19 60
        E 240 80 19 00
        E 0 90 18 60
        E 0 90 26 60
        E 0 90 40 60
        E 0 90 4c 60
        E 0 90 54 60
        E 0 90 58 60
        E 0 90 60 60
        E 0 90 64 60
        E 0 90 78 60
        E 0 90 79 60
        E 0 90 7a 60
        E 0 90 7b 60
        E 0 90 7c 60
        E 120 80 18 00
        E 0 80 26 00
        E 0 80 40 00
        E 0 80 4c 00
        E 0 80 54 00
        E 0 80 58 00
        E 0 80 60 00
        E 0 80 64 00
        E 120 90 18 60
        E 0 90 19 60
        E 0 90 60 60
        E 120 80 18 00
        E 0 80 60 00
        E 120 80 19 00
        E 0 90 1a 60
        E 0 90 26 60
        E 0 90 3d 60
        E 0 90 40 60
        E 0 90 49 60
        E 0 90 4c 60
        E 0 90 55 60
        E 0 90 58 60
        E 0 90 61 60
        E 0 90 64 60
        E 120 80 1a 00
        E 0 80 26 00
        E 0 80 3d 00
        E 0 80 40 00
        E 0 80 49 00
        E 0 80 4c 00
        E 0 80 55 00
        E 0 80 58 00
        E 0 80 61 00
        E 0 80 64 00
        E 120 90 18 60
        E 0 90 19 60
        E 0 90 60 60
        E 120 80 18 00
        E 0 80 60 00
        E 120 80 19 00
        E 0 90 18 60
        E 0 90 26 60
        E 0 90 40 60
        E 0 90 4c 60
        E 0 90 54 60
        E 0 90 58 60
        E 0 90 60 60
        E 0 90 64 60
        E 120 80 18 00
        E 0 80 26 00
        E 0 80 40 00
        E 0 80 4c 00
        E 0 80 54 00
        E 0 80 58 00
        E 0 80 60 00
        E 0 80 64 00
        E 120 90 19 60
        E 240 80 19 00
        E 0 90 1a 60
        E 0 90 26 60
        E 0 90 3d 60
        E 0 90 40 60
        E 0 90 49 60
        E 0 90 4c 60
        E 0 90 55 60
        E 0 90 58 60
        E 0 90 61 60
        E 0 90 64 60
        E 120 80 1a 00
        E 0 80 26 00
        E 0 80 3d 00
        E 0 80 40 00
        E 0 80 49 00
        E 0 80 4c 00
        E 0 80 55 00
        E 0 80 58 00
        E 0 80 61 00
        E 0 80 64 00
        E 120 90 19 60
        E 240 80 78 00
        E 0 80 79 00
        E 0 80 7a 00
        E 0 80 7b 00
        E 0 80 7c 00
        E 0 80 19 00
        E 0 90 18 60
        E 0 90 26 60
        E 0 90 40 60
        E 0 90 48 60
        E 0 90 4c 60
        E 0 90 54 60
        E 0 90 58 60
        E 0 90 60 60
        E 0 90 64 60
        E 120 80 18 00
        E 0 80 26 00
        E 0 80 40 00
        E 0 80 48 00
        E 0 80 4c 00
        E 0 80 54 00
        E 0 80 58 00
        E 0 80 60 00
        E 0 80 64 00
        E 120 90 19 60
        E 240 80 19 00
        E 0 90 1a 60
        E 0 90 26 60
        E 0 90 3d 60
        E 0 90 40 60
        E 0 90 49 60
        E 0 90 4c 60
        E 0 90 55 60
        E 0 90 58 60
        E 0 90 61 60
        E 0 90 64 60
        E 120 80 1a 00
        E 0 80 26 00
        E 0 80 3d 00
        E 0 80 40 00
        E 0 80 49 00
        E 0 80 4c 00
        E 0 80 55 00
        E 0 80 58 00
        E 0 80 61 00
        E 0 80 64 00
        E 120 90 19 60
        E 240 80 19 00
        E 0 90 18 60
        E 0 90 26 60
        E 0 90 40 60
        E 0 90 4c 60
        E 0 90 54 60
        E 0 90 58 60
        E 0 90 60 60
        E 0 90 64 60
        E 120 80 18 00
        E 0 80 26 00
        E 0 80 40 00
        E 0 80 4c 00
        E 0 80 54 00
        E 0 80 58 00
        E 0 80 60 00
        E 0 80 64 00
        E 120 90 19 60
        E 240 80 19 00
        E 0 90 1a 60
        E 0 90 26 60
        E 0 90 3d 60
        E 0 90 40 60
        E 0 90 49 60
        E 0 90 4c 60
        E 0 90 55 60
        E 0 90 58 60
        E 0 90 61 60
        E 0 90 64 60
        E 120 80 1a 00
        E 0 80 26 00
        E 0 80 3d 00
        E 0 80 40 00
        E 0 80 49 00
        E 0 80 4c 00
        E 0 80 55 00
        E 0 80 58 00
        E 0 80 61 00
        E 0 80 64 00
        E 120 90 19 60
        E 240 80 19 00
        E 0 90 18 60
        E 0 90 26 60
        E 0 90 40 60
        E 0 90 4c 60
        E 0 90 54 60
        E 0 90 58 60
        E 0 90 60 60
        E 0 90 64 60
        E 120 80 18 00
        E 0 80 26 00
        E 0 80 40 00
        E 0 80 4c 00
        E 0 80 54 00
        E 0 80 58 00
        E 0 80 60 00
        E 0 80 64 00
        E 120 90 18 60
        E 0 90 19 60
        E 0 90 60 60
        E 120 80 18 00
        E 0 80 60 00
        E 120 80 19 00
        E 0 90 1a 60
        E 0 90 26 60
        E 0 90 3d 60
        E 0 90 40 60
        E 0 90 49 60
        E 0 90 4c 60
        E 0 90 55 60
        E 0 90 58 60
        E 0 90 61 60
        E 0 90 64 60
        E 120 80 1a 00
        E 0 80 26 00
        E 0 80 3d 00
        E 0 80 40 00
        E 0 80 49 00
        E 0 80 4c 00
        E 0 80 55 00
        E 0 80 58 00
        E 0 80 61 00
        E 0 80 64 00
        E 120 90 18 60
        E 0 90 19 60
        E 0 90 60 60
        E 120 80 18 00
        E 0 80 60 00
        E 120 80 19 00
        E 0 90 18 60
        E 0 90 26 60
        E 0 90 40 60
        E 0 90 4c 60
        E 0 90 54 60
        E 0 90 58 60
        E 0 90 60 60
        E 0 90 64 60
        E 120 80 18 00
        E 0 80 26 00
        E 0 80 40 00
        E 0 80 4c 00
        E 0 80 54 00
        E 0 80 58 00
        E 0 80 60 00
        E 0 80 64 00
        E 120 90 19 60
        E 240 80 19 00
        E 0 90 1a 60
        E 0 90 26 60
        E 0 90 3d 60
        E 0 90 40 60
        E 0 90 49 60
        E 0 90 4c 60
        E 0 90 55 60
        E 0 90 58 60
        E 0 90 61 60
        E 0 90 64 60
        E 120 80 1a 00
        E 0 80 26 00
        E 0 80 3d 00
        E 0 80 40 00
        E 0 80 49 00
        E 0 80 4c 00
        E 0 80 55 00
        E 0 80 58 00
        E 0 80 61 00
        E 0 80 64 00
        E 120 90 19 60
        E 240 80 19 00
        E 0 90 18 60
        E 0 90 26 60
        E 0 90 40 60
        E 0 90 48 60
        E 0 90 4c 60
        E 0 90 54 60
        E 0 90 58 60
        E 0 90 60 60
        E 0 90 64 60
        E 120 80 18 00
        E 0 80 26 00
        E 0 80 40 00
        E 0 80 48 00
        E 0 80 4c 00
        E 0 80 54 00
        E 0 80 58 00
        E 0 80 60 00
        E 0 80 64 00
        E 120 90 18 60
        E 0 90 19 60
        E 0 90 60 60
        E 120 80 18 00
        E 0 80 60 00
        E 120 80 19 00
        E 0 90 1a 60
        E 0 90 26 60
        E 0 90 3d 60
        E 0 90 40 60
        E 0 90 49 60
        E 0 90 4c 60
        E 0 90 55 60
        E 0 90 58 60
        E 0 90 61 60
        E 0 90 64 60
        E 120 80 1a 00
        E 0 80 26 00
        E 0 80 3d 00
        E 0 80 40 00
        E 0 80 49 00
        E 0 80 4c 00
        E 0 80 55 00
        E 0 80 58 00
        E 0 80 61 00
        E 0 80 64 00
        E 120 90 18 60
        E 0 90 19 60
        E 0 90 60 60
        E 120 80 18 00
        E 0 80 60 00
        E 120 80 19 00
        E 0 90 18 60
        E 0 90 26 60
        E 0 90 40 60
        E 0 90 4c 60
        E 0 90 54 60
        E 0 90 58 60
        E 0 90 60 60
        E 0 90 64 60
        E 120 80 18 00
        E 0 80 26 00
        E 0 80 40 00
        E 0 80 4c 00
        E 0 80 54 00
        E 0 80 58 00
        E 0 80 60 00
        E 0 80 64 00
        E 120 90 19 60
        E 240 80 19 00
        E 0 90 1a 60
        E 0 90 26 60
        E 0 90 3d 60
        E 0 90 40 60
        E 0 90 49 60
        E 0 90 4c 60
        E 0 90 55 60
        E 0 90 58 60
        E 0 90 61 60
        E 0 90 64 60
        E 120 80 1a 00
        E 0 80 26 00
        E 0 80 3d 00
        E 0 80 40 00
        E 0 80 49 00
        E 0 80 4c 00
        E 0 80 55 00
        E 0 80 58 00
        E 0 80 61 00
        E 0 80 64 00
        E 120 90 19 60
        E 240 80 19 00
        E 0 90 18 60
        E 0 90 26 60
        E 0 90 40 60
        E 0 90 4c 60
        E 0 90 54 60
        E 0 90 58 60
        E 0 90 60 60
        E 0 90 64 60
        E 120 80 18 00
        E 0 80 26 00
        E 0 80 40 00
        E 0 80 4c 00
        E 0 80 54 00
        E 0 80 58 00
        E 0 80 60 00
        E 0 80 64 00
        E 120 90 18 60
        E 0 90 19 60
        E 0 90 60 60
        E 120 80 18 00
        E 0 80 60 00
        E 120 80 19 00
        E 0 90 1a 60
        E 0 90 26 60
        E 0 90 3d 60
        E 0 90 40 60
        E 0 90 49 60
        E 0 90 4c 60
        E 0 90 55 60
        E 0 90 58 60
        E 0 90 61 60
        E 0 90 64 60
        E 120 80 1a 00
        E 0 80 26 00
        E 0 80 3d 00
        E 0 80 40 00
        E 0 80 49 00
        E 0 80 4c 00
        E 0 80 55 00
        E 0 80 58 00
        E 0 80 61 00
        E 0 80 64 00
        E 120 90 18 60
        E 0 90 19 60
        E 0 90 60 60
        E 120 80 18 00
        E 0 80 60 00
        E 120 80 19 00
        E 0 90 18 60
        E 0 90 26 60
        E 0 90 40 60
        E 0 90 4c 60
        E 0 90 54 60
        E 0 90 58 60
        E 0 90 60 60
        E 0 90 64 60
        E 120 80 18 00
        E 0 80 26 00
        E 0 80 40 00
        E 0 80 4c 00
        E 0 80 54 00
        E 0 80 58 00
        E 0 80 60 00
        E 0 80 64 00
        E 120 90 19 60
        E 240 80 19 00
        E 0 90 1a 60
        E 0 90 26 60
        E 0 90 3d 60
        E 0 90 40 60
        E 0 90 49 60
        E 0 90 4c 60
        E 0 90 55 60
        E 0 90 58 60
        E 0 90 61 60
        E 0 90 64 60
        E 120 80 1a 00
        E 0 80 26 00
        E 0 80 3d 00
        E 0 80 40 00
        E 0 80 49 00
        E 0 80 4c 00
        E 0 80 55 00
        E 0 80 58 00
        E 0 80 61 00
        E 0 80 64 00
        E 120 90 19 60
        E 240 80 19 00
        E 0 90 18 60
        E 0 90 26 60
        E 0 90 40 60
        E 0 90 48 60
        E 0 90 4c 60
        E 0 90 54 60
        E 0 90 58 60
        E 0 90 60 60
        E 0 90 64 60
        E 120 80 18 00
        E 0 80 26 00
        E 0 80 40 00
        E 0 80 48 00
        E 0 80 4c 00
        E 0 80 54 00
        E 0 80 58 00
        E 0 80 60 00
        E 0 80 64 00
        E 120 90 18 60
        E 0 90 19 60
        E 0 90 60 60
        E 120 80 18 00
        E 0 80 60 00
        E 120 80 19 00
        E 0 90 1a 60
        E 0 90 26 60
        E 0 90 3d 60
        E 0 90 40 60
        E 0 90 49 60
        E 0 90 4c 60
        E 0 90 55 60
        E 0 90 58 60
        E 0 90 61 60
        E 0 90 64 60
        E 120 80 1a 00
        E 0 80 26 00
        E 0 80 3d 00
        E 0 80 40 00
        E 0 80 49 00
        E 0 80 4c 00
        E 0 80 55 00
        E 0 80 58 00
        E 0 80 61 00
        E 0 80 64 00
        E 120 90 18 60
        E 0 90 19 60
        E 0 90 60 60
        E 120 80 18 00
        E 0 80 60 00
        E 120 80 19 00
        E 0 90 18 60
        E 0 90 26 60
        E 0 90 40 60
        E 0 90 4c 60
        E 0 90 54 60
        E 0 90 58 60
        E 0 90 60 60
        E 0 90 64 60
        E 120 80 18 00
        E 0 80 26 00
        E 0 80 40 00
        E 0 80 4c 00
        E 0 80 54 00
        E 0 80 58 00
        E 0 80 60 00
        E 0 80 64 00
        E 120 90 19 60
        E 240 80 19 00
        E 0 90 1a 60
        E 0 90 26 60
        E 0 90 3d 60
        E 0 90 40 60
        E 0 90 49 60
        E 0 90 4c 60
        E 0 90 55 60
        E 0 90 58 60
        E 0 90 61 60
        E 0 90 64 60
        E 120 80 1a 00
        E 0 80 26 00
        E 0 80 3d 00
        E 0 80 40 00
        E 0 80 49 00
        E 0 80 4c 00
        E 0 80 55 00
        E 0 80 58 00
        E 0 80 61 00
        E 0 80 64 00
        E 120 90 19 60
        E 240 80 19 00
        E 0 90 18 60
        E 0 90 26 60
        E 0 90 40 60
        E 0 90 4c 60
        E 0 90 54 60
        E 0 90 58 60
        E 0 90 60 60
        E 0 90 64 60
        E 120 80 18 00
        E 0 80 26 00
        E 0 80 40 00
        E 0 80 4c 00
        E 0 80 54 00
        E 0 80 58 00
        E 0 80 60 00
        E 0 80 64 00
        E 120 90 18 60
        E 0 90 19 60
        E 0 90 60 60
        E 120 80 18 00
        E 0 80 60 00
        E 120 80 19 00
        E 0 90 1a 60
        E 0 90 26 60
        E 0 90 3d 60
        E 0 90 40 60
        E 0 90 49 60
        E 0 90 4c 60
        E 0 90 55 60
        E 0 90 58 60
        E 0 90 61 60
        E 0 90 64 60
        E 120 80 1a 00
        E 0 80 26 00
        E 0 80 3d 00
        E 0 80 40 00
        E 0 80 49 00
        E 0 80 4c 00
        E 0 80 55 00
        E 0 80 58 00
        E 0 80 61 00
        E 0 80 64 00
        E 120 90 18 60
        E 0 90 19 60
        E 0 90 60 60
        E 120 80 18 00
        E 0 80 60 00
        E 120 80 19 00
        E 0 90 18 60
        E 0 90 26 60
        E 0 90 40 60
        E 0 90 4c 60
        E 0 90 54 60
        E 0 90 58 60
        E 0 90 60 60
        E 0 90 64 60
        E 120 80 18 00
        E 0 80 26 00
        E 0 80 40 00
        E 0 80 4c 00
        E 0 80 54 00
        E 0 80 58 00
        E 0 80 60 00
        E 0 80 64 00
        E 120 90 19 60
        E 240 80 19 00
        E 0 90 1a 60
        E 0 90 26 60
        E 0 90 3d 60
        E 0 90 40 60
        E 0 90 49 60
        E 0 90 4c 60
        E 0 90 55 60
        E 0 90 58 60
        E 0 90 61 60
        E 0 90 64 60
        E 120 80 1a 00
        E 0 80 26 00
        E 0 80 3d 00
        E 0 80 40 00
        E 0 80 49 00
        E 0 80 4c 00
        E 0 80 55 00
        E 0 80 58 00
        E 0 80 61 00
        E 0 80 64 00
        E 120 90 19 60
        E 240 80 19 00
        E 0 90 18 60
        E 0 90 26 60
        E 0 90 40 60
        E 0 90 48 60
        E 0 90 4c 60
        E 0 90 54 60
        E 0 90 58 60
        E 0 90 60 60
        E 0 90 64 60
        E 120 80 18 00
        E 0 80 26 00
        E 0 80 40 00
        E 0 80 48 00
        E 0 80 4c 00
        E 0 80 54 00
        E 0 80 58 00
        E 0 80 60 00
        E 0 80 64 00
        E 120 90 18 60
        E 0 90 19 60
        E 0 90 60 60
        E 120 80 18 00
        E 0 80 60 00
        E 120 80 19 00
        E 0 90 1a 60
        E 0 90 26 60
        E 0 90 3d 60
        E 0 90 40 60
        E 0 90 49 60
        E 0 90 4c 60
        E 0 90 55 60
        E 0 90 58 60
        E 0 90 61 60
        E 0 90 64 60
        E 120 80 1a 00
        E 0 80 26 00
        E 0 80 3d 00
        E 0 80 40 00
        E 0 80 49 00
        E 0 80 4c 00
        E 0 80 55 00
        E 0 80 58 00
        E 0 80 61 00
        E 0 80 64 00
        E 120 90 19 60
        E 240 80 19 00
        E 0 90 18 60
        E 0 90 26 60
        E 0 90 40 60
        E 0 90 4c 60
        E 0 90 54 60
        E 0 90 58 60
        E 0 90 60 60
        E 0 90 64 60
        E 120 80 18 00
        E 0 80 26 00
        E 0 80 40 00
        E 0 80 4c 00
        E 0 80 54 00
        E 0 80 58 00
        E 0 80 60 00
        E 0 80 64 00
        E 120 90 19 60
        E 240 80 19 00
        E 0 90 1a 60
        E 0 90 26 60
        E 0 90 3d 60
        E 0 90 40 60
        E 0 90 49 60
        E 0 90 4c 60
        E 0 90 55 60
        E 0 90 58 60
        E 0 90 61 60
        E 0 90 64 60
        E 120 80 1a 00
        E 0 80 26 00
        E 0 80 3d 00
        E 0 80 40 00
        E 0 80 49 00
        E 0 80 4c 00
        E 0 80 55 00
        E 0 80 58 00
        E 0 80 61 00
        E 0 80 64 00
        E 120 90 19 60
        E 240 80 19 00
        E 0 90 18 60
        E 0 90 26 60
        E 0 90 40 60
        E 0 90 4c 60
        E 0 90 54 60
        E 0 90 58 60
        E 0 90 60 60
        E 0 90 64 60
        E 120 80 18 00
        E 0 80 26 00
        E 0 80 40 00
        E 0 80 4c 00
        E 0 80 54 00
        E 0 80 58 00
        E 0 80 60 00
        E 0 80 64 00
        E 120 90 19 60
        E 240 80 19 00
        E 0 90 1a 60
        E 0 90 26 60
        E 0 90 3d 60
        E 0 90 40 60
        E 0 90 49 60
        E 0 90 4c 60
        E 0 90 55 60
        E 0 90 58 60
        E 0 90 61 60
        E 0 90 64 60
        E 120 80 1a 00
        E 0 80 26 00
        E 0 80 3d 00
        E 0 80 40 00
        E 0 80 49 00
        E 0 80 4c 00
        E 0 80 55 00
        E 0 80 58 00
        E 0 80 61 00
        E 0 80 64 00
        E 120 90 19 60
        E 240 80 19 00
        E 0 90 18 60
        E 0 90 26 60
        E 0 90 40 60
        E 0 90 4c 60
        E 0 90 54 60
        E 0 90 58 60
        E 0 90 60 60
        E 0 90 64 60
        E 120 80 18 00
        E 0 80 26 00
        E 0 80 40 00
        E 0 80 4c 00
        E 0 80 54 00
        E 0 80 58 00
        E 0 80 60 00
        E 0 80 64 00
        E 120 90 19 60
        E 240 80 19 00
        E 0 90 1a 60
        E 0 90 26 60
        E 0 90 3d 60
        E 0 90 40 60
        E 0 90 49 60
        E 0 90 4c 60
        E 0 90 55 60
        E 0 90 58 60
        E 0 90 61 60
        E 0 90 64 60
        E 120 80 1a 00
        E 0 80 26 00
        E 0 80 3d 00
        E 0 80 40 00
        E 0 80 49 00
        E 0 80 4c 00
        E 0 80 55 00
        E 0 80 58 00
        E 0 80 61 00
        E 0 80 64 00
        e 120 90 55 60
        E 0 90 19 60
        E 0 90 1a 60
        E 0 90 61 60
        e 120 80 55 00
        E 0 80 1a 00
        E 0 80 61 00
        E 120 80 19 00
        E 0 90 18 60
        E 0 90 29 60
        E 0 90 40 60
        E 0 90 48 60
        E 0 90 4c 60
        E 0 90 54 60
        E 0 90 58 60
        E 0 90 60 60
        E 0 90 64 60
        E 120 80 18 00
        E 0 80 29 00
        E 0 80 40 00
        E 0 80 48 00
        E 0 80 4c 00
        E 0 80 54 00
        E 0 80 58 00
        E 0 80 60 00
        E 0 80 64 00
        <X 120 0
          /wFbaWRsZV9yZWFsdGltZV0=
        >
        E 3600 b0 7b 00
        GUID {F8087D31-E2D2-4616-9F15-B6FCECEF737E}
        IGNTEMPO 0 120.00000000 4 4
        SRCCOLOR 3
        VELLANE 132 71 60
        COLORMAP "C:\Users\Ruggery\AppData\Roaming\Reaper\Data\color_maps\rockband_drums.png"
        CFGEDITVIEW 171174.583862 111.869129 23 12 0 0 0
        CFGEDIT 1 1 0 1 1 0 1 1 1 1 1 0.25000000 -4 0 1025 558 0 0 1 2 0.00000000 0 1 1 0 0.500000 0 0 1.000000 64
        KEYSNAP 0 0 "102034050607" 0 "Major"
        EVTFILTER 0 -1 -1 -1 -1 0 1 0 0 -1.00000000 -1.00000000
      >
    >
  >
  <TRACK '{E68CD985-A894-40D9-B4A0-655F131EAE8F}'
    NAME "PART BASS"
    PEAKCOL 16576
    BEAT -1
    AUTOMODE 0
    VOLPAN 1.00000000000000 0.00000000000000 -1.00000000000000 -1.00000000000000 1.00000000000000
    MUTESOLO 0 0 0
    IPHASE 0
    ISBUS 0 0
    BUSCOMP 0 0
    SHOWINMIX 1 0.666700 0.500000 1 0.500000 -1 -1 -1
    FREEMODE 0
    SEL 0
    REC 0 0 0 0 0 0 0
    VU 2
    TRACKHEIGHT 0 0
    INQ 0 0 0 0.5000000000 100 0 0 100
    NCHAN 2
    FX 1
    TRACKID {E68CD985-A894-40D9-B4A0-655F131EAE8F}
    PERF 0
    MIDIOUT -1
    <MIDINOTENAMES
      0 127 "Trill Marker"
      0 126 "Tremolo Marker"
      0 125 "---"
      0 124 "BRE"
      0 123 "BRE"
      0 122 "BRE"
      0 121 "BRE"
      0 120 "BRE (use all 5)"
      0 119 "----"
      0 116 "OVERDRIVE"
      0 111 "----"
      0 103 "Solo Marker"
      0 102 "Force HOPO Off"
      0 101 "Force HOPO On"
      0 100 "EXPERT Orange"
      0 99 "EXPERT Blue"
      0 98 "EXPERT Yellow"
      0 97 "EXPERT Red"
      0 96 "EXPERT Green"
      0 91 "----"
      0 90 "Force HOPO Off"
      0 89 "Force HOPO On"
      0 88 "HARD Orange"
      0 87 "HARD Blue"
      0 86 "HARD Yellow"
      0 85 "HARD Red"
      0 84 "HARD Green"
      0 80 "----"
      0 76 "MEDIUM Orange"
      0 75 "MEDIUM Blue"
      0 74 "MEDIUM Yellow"
      0 73 "MEDIUM Red"
      0 72 "MEDIUM Green"
      0 68 "----"
      0 64 "EASY Orange"
      0 63 "EASY Blue"
      0 62 "EASY Yellow"
      0 61 "EASY Red"
      0 60 "EASY Green"
      0 59 "Left Hand Highest (Fret 12)"
      0 58 "-"
      0 57 "Fret 11"
      0 56 "Fret 10"
      0 55 "Fret 9"
      0 54 "-"
      0 53 "Fret 8"
      0 52 "Fret 7"
      0 51 "-"
      0 50 "Fret 6"
      0 49 "Fret 5"
      0 48 "-"
      0 47 "Fret 4"
      0 46 "-"
      0 45 "Fret 3"
      0 44 "-"
      0 43 "Fret 2"
      0 42 "-"
      0 41 "-"
      0 40 "Left Hand Lowest (Fret 1)"
    >
    MAINSEND 1 0
    <FXCHAIN
      WNDRECT 0 43 878 559
      SHOW 0
      LASTSEL 0
      DOCKED 0
      BYPASS 0 0
      <VST "VSTi: RBN Preview (RBN)" "rbprev_vst64.dll" 0 ""
        dnBicu5e7f4AAAAAAgAAAAEAAAAAAAAAAgAAAAAAAAAEAAAAAQAAAA==
        AAAQAAMA+gAAABAAAAA=
      >
      FLOATPOS 0 0 0 0
      FXID {014588B1-4155-45E1-827D-F793645DD9C7}
      WAK 0
    >
    <ITEM
      POSITION 0.00000000000000
      SNAPOFFS 0.00000000000000
      LENGTH 109.09842099999985
      LOOP 0
      ALLTAKES 0
      SEL 0
      FADEIN 1 0.000000 0.000000 1 0
      FADEOUT 1 0.000000 0.000000 1 0
      MUTE 0
      IGUID {30460406-0202-4A8A-BE60-F9184DC4454A}
      IID 2
      NAME "PART BASS"
      VOLPAN 1.000000 0.000000 1.000000 -1.000000
      SOFFS 0.00000000000000 0.00000000000000
      PLAYRATE 1.00000000000000 1 0.00000000000000 -1
      CHANMODE 0
      GUID {1F620F1B-B536-4DFA-889E-2EB0BD6B2A6C}
      <SOURCE MIDI
        HASDATA 1 480 QN
        POOLEDEVTS {A5695AD8-4E3A-47CD-A9DE-33E7FCB2D9F6}
        <X 0 0
          /wNQQVJUIEJBU1M=
        >
        E 7680 90 3c 60
        E 0 90 48 60
        E 0 90 55 60
        E 0 90 61 60
        E 120 80 3c 00
        E 0 80 48 00
        E 0 80 55 00
        E 0 80 61 00
        E 120 90 61 60
        E 120 80 61 00
        E 120 90 55 60
        E 0 90 61 60
        E 120 80 55 00
        E 0 80 61 00
        E 120 90 61 60
        E 120 80 61 00
        E 120 90 48 60
        E 0 90 55 60
        E 0 90 61 60
        E 120 80 48 00
        E 0 80 55 00
        E 0 80 61 00
        E 360 90 57 60
        E 0 90 63 60
        E 120 80 57 00
        E 0 80 63 00
        E 360 90 3f 60
        E 0 90 4b 60
        E 0 90 58 60
        E 0 90 64 60
        E 120 80 3f 00
        E 0 80 4b 00
        E 0 80 58 00
        E 0 80 64 00
        E 120 90 64 60
        E 120 80 64 00
        E 120 90 58 60
        E 0 90 64 60
        E 120 80 58 00
        E 0 80 64 00
        E 120 90 64 60
        E 120 80 64 00
        E 120 90 4b 60
        E 0 90 58 60
        E 0 90 64 60
        E 120 80 4b 00
        E 0 80 58 00
        E 0 80 64 00
        E 360 90 55 60
        E 0 90 61 60
        E 120 80 55 00
        E 0 80 61 00
        E 360 90 3e 60
        E 0 90 4a 60
        E 0 90 57 60
        E 0 90 63 60
        E 120 80 3e 00
        E 0 80 4a 00
        E 0 80 57 00
        E 0 80 63 00
        E 120 90 63 60
        E 120 80 63 00
        E 120 90 57 60
        E 0 90 63 60
        E 120 80 57 00
        E 0 80 63 00
        E 120 90 63 60
        E 120 80 63 00
        E 120 90 4a 60
        E 0 90 57 60
        E 0 90 63 60
        E 120 80 4a 00
        E 0 80 57 00
        E 0 80 63 00
        E 360 90 55 60
        E 0 90 61 60
        E 120 80 55 00
        E 0 80 61 00
        E 360 90 3d 60
        E 0 90 49 60
        E 0 90 56 60
        E 0 90 62 60
        E 120 80 3d 00
        E 0 80 49 00
        E 0 80 56 00
        E 0 80 62 00
        E 120 90 62 60
        E 120 80 62 00
        E 120 90 56 60
        E 0 90 62 60
        E 120 80 56 00
        E 0 80 62 00
        E 120 90 62 60
        E 120 80 62 00
        E 120 90 49 60
        E 0 90 56 60
        E 0 90 62 60
        E 120 80 49 00
        E 0 80 56 00
        E 0 80 62 00
        E 120 90 60 60
        E 120 80 60 00
        E 120 90 54 60
        E 0 90 60 60
        E 120 80 54 00
        E 0 80 60 00
        E 360 90 3c 60
        E 0 90 48 60
        E 0 90 55 60
        E 0 90 61 60
        E 120 80 3c 00
        E 0 80 48 00
        E 0 80 55 00
        E 0 80 61 00
        E 120 90 61 60
        E 120 80 61 00
        E 120 90 55 60
        E 0 90 61 60
        E 120 80 55 00
        E 0 80 61 00
        E 120 90 61 60
        E 120 80 61 00
        E 120 90 48 60
        E 0 90 55 60
        E 0 90 61 60
        E 120 80 48 00
        E 0 80 55 00
        E 0 80 61 00
        E 360 90 57 60
        E 0 90 63 60
        E 120 80 57 00
        E 0 80 63 00
        E 360 90 3f 60
        E 0 90 4b 60
        E 0 90 58 60
        E 0 90 64 60
        E 120 80 3f 00
        E 0 80 4b 00
        E 0 80 58 00
        E 0 80 64 00
        E 120 90 64 60
        E 120 80 64 00
        E 120 90 58 60
        E 0 90 64 60
        E 120 80 58 00
        E 0 80 64 00
        E 120 90 64 60
        E 120 80 64 00
        E 120 90 4b 60
        E 0 90 58 60
        E 0 90 64 60
        E 120 80 4b 00
        E 0 80 58 00
        E 0 80 64 00
        E 360 90 55 60
        E 0 90 61 60
        E 120 80 55 00
        E 0 80 61 00
        E 360 90 3e 60
        E 0 90 4a 60
        E 0 90 57 60
        E 0 90 63 60
        E 0 90 74 60
        E 120 80 3e 00
        E 0 80 4a 00
        E 0 80 57 00
        E 0 80 63 00
        E 120 90 63 60
        E 120 80 63 00
        E 120 90 57 60
        E 0 90 63 60
        E 120 80 57 00
        E 0 80 63 00
        E 120 90 63 60
        E 120 80 63 00
        E 120 90 4a 60
        E 0 90 57 60
        E 0 90 63 60
        E 120 80 4a 00
        E 0 80 57 00
        E 0 80 63 00
        E 360 90 58 60
        E 0 90 64 60
        E 120 80 58 00
        E 0 80 64 00
        E 360 90 3d 60
        E 0 90 49 60
        E 0 90 56 60
        E 0 90 62 60
        E 120 80 3d 00
        E 0 80 49 00
        E 0 80 56 00
        E 0 80 62 00
        E 120 90 62 60
        E 120 80 62 00
        E 120 90 56 60
        E 0 90 62 60
        E 120 80 56 00
        E 0 80 62 00
        E 120 90 62 60
        E 120 80 62 00
        E 120 90 49 60
        E 0 90 56 60
        E 0 90 62 60
        E 120 80 49 00
        E 0 80 56 00
        E 0 80 62 00
        E 120 90 63 60
        E 120 80 63 00
        E 120 90 58 60
        E 0 90 64 60
        E 0 90 65 60
        E 120 80 58 00
        E 0 80 64 00
        E 0 80 65 00
        E 360 80 74 00
        E 0 90 3c 60
        E 0 90 48 60
        E 0 90 55 60
        E 0 90 61 60
        E 120 80 3c 00
        E 0 80 48 00
        E 0 80 55 00
        E 0 80 61 00
        E 120 90 61 60
        E 120 80 61 00
        E 120 90 55 60
        E 0 90 61 60
        E 120 80 55 00
        E 0 80 61 00
        E 120 90 61 60
        E 120 80 61 00
        E 120 90 48 60
        E 0 90 55 60
        E 0 90 61 60
        E 120 80 48 00
        E 0 80 55 00
        E 0 80 61 00
        E 360 90 57 60
        E 0 90 63 60
        E 120 80 57 00
        E 0 80 63 00
        E 360 90 3f 60
        E 0 90 4b 60
        E 0 90 58 60
        E 0 90 64 60
        E 120 80 3f 00
        E 0 80 4b 00
        E 0 80 58 00
        E 0 80 64 00
        E 120 90 64 60
        E 120 80 64 00
        E 120 90 58 60
        E 0 90 64 60
        E 120 80 58 00
        E 0 80 64 00
        E 120 90 64 60
        E 120 80 64 00
        E 120 90 4b 60
        E 0 90 58 60
        E 0 90 64 60
        E 120 80 4b 00
        E 0 80 58 00
        E 0 80 64 00
        E 360 90 55 60
        E 0 90 61 60
        E 120 80 55 00
        E 0 80 61 00
        E 360 90 3e 60
        E 0 90 4a 60
        E 0 90 57 60
        E 0 90 63 60
        E 120 80 3e 00
        E 0 80 4a 00
        E 0 80 57 00
        E 0 80 63 00
        E 120 90 63 60
        E 120 80 63 00
        E 120 90 57 60
        E 0 90 63 60
        E 120 80 57 00
        E 0 80 63 00
        E 120 90 63 60
        E 120 80 63 00
        E 120 90 4a 60
        E 0 90 57 60
        E 0 90 63 60
        E 120 80 4a 00
        E 0 80 57 00
        E 0 80 63 00
        E 360 90 54 60
        E 0 90 60 60
        E 120 80 54 00
        E 0 80 60 00
        E 360 90 3d 60
        E 0 90 49 60
        E 0 90 56 60
        E 0 90 62 60
        E 120 80 3d 00
        E 0 80 49 00
        E 0 80 56 00
        E 0 80 62 00
        E 120 90 62 60
        E 120 80 62 00
        E 120 90 56 60
        E 0 90 62 60
        E 120 80 56 00
        E 0 80 62 00
        E 120 90 62 60
        E 120 80 62 00
        E 120 90 49 60
        E 0 90 56 60
        E 0 90 62 60
        E 120 80 49 00
        E 0 80 56 00
        E 0 80 62 00
        E 120 90 60 60
        E 120 80 60 00
        E 120 90 54 60
        E 0 90 60 60
        E 120 80 54 00
        E 0 80 60 00
        E 360 90 3c 60
        E 0 90 48 60
        E 0 90 55 60
        E 0 90 61 60
        E 120 80 3c 00
        E 0 80 48 00
        E 0 80 55 00
        E 0 80 61 00
        E 120 90 61 60
        E 120 80 61 00
        E 120 90 55 60
        E 0 90 61 60
        E 120 80 55 00
        E 0 80 61 00
        E 120 90 61 60
        E 120 80 61 00
        E 120 90 48 60
        E 0 90 55 60
        E 0 90 61 60
        E 120 80 48 00
        E 0 80 55 00
        E 0 80 61 00
        E 360 90 57 60
        E 0 90 63 60
        E 120 80 57 00
        E 0 80 63 00
        E 360 90 3f 60
        E 0 90 4b 60
        E 0 90 58 60
        E 0 90 64 60
        E 120 80 3f 00
        E 0 80 4b 00
        E 0 80 58 00
        E 0 80 64 00
        E 120 90 64 60
        E 120 80 64 00
        E 120 90 58 60
        E 0 90 64 60
        E 120 80 58 00
        E 0 80 64 00
        E 120 90 64 60
        E 120 80 64 00
        E 120 90 4b 60
        E 0 90 58 60
        E 0 90 64 60
        E 120 80 4b 00
        E 0 80 58 00
        E 0 80 64 00
        E 360 90 55 60
        E 0 90 61 60
        E 120 80 55 00
        E 0 80 61 00
        E 360 90 3e 60
        E 0 90 4a 60
        E 0 90 57 60
        E 0 90 63 60
        E 120 80 3e 00
        E 0 80 4a 00
        E 0 80 57 00
        E 0 80 63 00
        E 120 90 63 60
        E 120 80 63 00
        E 120 90 57 60
        E 0 90 63 60
        E 120 80 57 00
        E 0 80 63 00
        E 120 90 63 60
        E 120 80 63 00
        E 120 90 4a 60
        E 0 90 57 60
        E 0 90 63 60
        E 120 80 4a 00
        E 0 80 57 00
        E 0 80 63 00
        E 360 90 58 60
        E 0 90 64 60
        E 120 80 58 00
        E 0 80 64 00
        E 360 90 3d 60
        E 0 90 49 60
        E 0 90 56 60
        E 0 90 62 60
        E 120 80 3d 00
        E 0 80 49 00
        E 0 80 56 00
        E 0 80 62 00
        E 120 90 62 60
        E 120 80 62 00
        E 120 90 56 60
        E 0 90 62 60
        E 120 80 56 00
        E 0 80 62 00
        E 120 90 62 60
        E 120 80 62 00
        E 120 90 48 60
        E 0 90 56 60
        E 0 90 62 60
        E 120 80 48 00
        E 0 80 56 00
        E 0 80 62 00
        E 120 90 61 60
        E 120 80 61 00
        E 120 90 55 60
        E 0 90 61 60
        E 120 80 55 00
        E 0 80 61 00
        E 120 90 61 60
        E 120 80 61 00
        E 120 90 3d 60
        E 0 90 49 60
        E 0 90 56 60
        E 0 90 62 60
        E 120 80 3d 00
        E 0 80 49 00
        E 0 80 56 00
        E 0 80 62 00
        E 120 90 62 60
        E 120 80 62 00
        E 120 90 56 60
        E 0 90 62 60
        E 120 80 56 00
        E 0 80 62 00
        E 120 90 62 60
        E 120 80 62 00
        E 120 90 3d 60
        E 0 90 49 60
        E 0 90 56 60
        E 0 90 62 60
        E 120 80 3d 00
        E 0 80 49 00
        E 0 80 56 00
        E 0 80 62 00
        E 120 90 62 60
        E 120 80 62 00
        E 120 90 56 60
        E 0 90 62 60
        E 120 80 56 00
        E 0 80 62 00
        E 120 90 62 60
        E 120 80 62 00
        E 120 90 3e 60
        E 0 90 4a 60
        E 0 90 57 60
        E 0 90 63 60
        E 120 80 3e 00
        E 0 80 4a 00
        E 0 80 57 00
        E 0 80 63 00
        E 120 90 63 60
        E 120 80 63 00
        E 120 90 57 60
        E 0 90 63 60
        E 120 80 57 00
        E 0 80 63 00
        E 120 90 63 60
        E 120 80 63 00
        E 120 90 4b 60
        E 0 90 58 60
        E 0 90 64 60
        E 120 80 4b 00
        E 0 80 58 00
        E 0 80 64 00
        E 120 90 64 60
        E 120 80 64 00
        E 120 90 58 60
        E 0 90 64 60
        E 120 80 58 00
        E 0 80 64 00
        E 120 90 60 60
        E 120 80 60 00
        E 120 90 3c 60
        E 0 90 48 60
        E 0 90 55 60
        E 0 90 61 60
        E 120 80 3c 00
        E 0 80 48 00
        E 0 80 55 00
        E 0 80 61 00
        E 120 90 61 60
        E 120 80 61 00
        E 120 90 48 60
        E 0 90 55 60
        E 0 90 61 60
        E 120 80 48 00
        E 0 80 55 00
        E 0 80 61 00
        E 120 90 61 60
        E 120 80 61 00
        E 120 90 3c 60
        E 0 90 48 60
        E 0 90 55 60
        E 0 90 61 60
        E 120 80 3c 00
        E 0 80 48 00
        E 0 80 55 00
        E 0 80 61 00
        E 120 90 61 60
        E 120 80 61 00
        E 120 90 55 60
        E 0 90 61 60
        E 120 80 55 00
        E 0 80 61 00
        E 120 90 61 60
        E 120 80 61 00
        E 120 90 3c 60
        E 0 90 48 60
        E 0 90 55 60
        E 0 90 61 60
        E 120 80 3c 00
        E 0 80 48 00
        E 0 80 55 00
        E 0 80 61 00
        E 120 90 61 60
        E 120 80 61 00
        E 120 90 48 60
        E 0 90 55 60
        E 0 90 61 60
        E 120 80 48 00
        E 0 80 55 00
        E 0 80 61 00
        E 120 90 61 60
        E 120 80 61 00
        E 120 90 48 60
        E 0 90 55 60
        E 0 90 61 60
        E 120 80 48 00
        E 0 80 55 00
        E 0 80 61 00
        E 120 90 61 60
        E 120 80 61 00
        E 120 90 55 60
        E 0 90 61 60
        E 120 80 55 00
        E 0 80 61 00
        E 120 90 61 60
        E 120 80 61 00
        E 120 90 3d 60
        E 0 90 49 60
        E 0 90 56 60
        E 0 90 62 60
        E 0 90 74 60
        E 120 80 3d 00
        E 0 80 49 00
        E 0 80 56 00
        E 0 80 62 00
        E 120 90 62 60
        E 120 80 62 00
        E 120 90 56 60
        E 0 90 62 60
        E 120 80 56 00
        E 0 80 62 00
        E 120 90 62 60
        E 120 80 62 00
        E 120 90 3d 60
        E 0 90 49 60
        E 0 90 56 60
        E 0 90 62 60
        E 120 80 3d 00
        E 0 80 49 00
        E 0 80 56 00
        E 0 80 62 00
        E 120 90 62 60
        E 120 80 62 00
        E 120 90 56 60
        E 0 90 62 60
        E 120 80 56 00
        E 0 80 62 00
        E 120 90 62 60
        E 120 80 62 00
        E 120 90 3e 60
        E 0 90 4a 60
        E 0 90 57 60
        E 0 90 63 60
        E 120 80 3e 00
        E 0 80 4a 00
        E 0 80 57 00
        E 0 80 63 00
        E 120 90 63 60
        E 120 80 63 00
        E 120 90 57 60
        E 0 90 63 60
        E 120 80 57 00
        E 0 80 63 00
        E 120 90 63 60
        E 120 80 63 00
        E 120 90 4b 60
        E 0 90 58 60
        E 0 90 64 60
        E 120 80 4b 00
        E 0 80 58 00
        E 0 80 64 00
        E 120 90 64 60
        E 120 80 64 00
        E 120 90 58 60
        E 0 90 64 60
        E 120 80 58 00
        E 0 80 64 00
        E 120 90 64 60
        E 120 80 64 00
        E 120 90 3c 60
        E 0 90 48 60
        E 0 90 55 60
        E 0 90 61 60
        E 120 80 74 00
        E 0 80 3c 00
        E 0 80 48 00
        E 0 80 55 00
        E 0 80 61 00
        E 120 90 61 60
        E 120 80 61 00
        E 120 90 48 60
        E 0 90 55 60
        E 0 90 61 60
        E 120 80 48 00
        E 0 80 55 00
        E 0 80 61 00
        E 120 90 61 60
        E 120 80 61 00
        E 120 90 3c 60
        E 0 90 48 60
        E 0 90 55 60
        E 0 90 61 60
        E 120 80 3c 00
        E 0 80 48 00
        E 0 80 55 00
        E 0 80 61 00
        E 120 90 61 60
        E 120 80 61 00
        E 120 90 55 60
        E 0 90 61 60
        E 120 80 55 00
        E 0 80 61 00
        E 120 90 61 60
        E 120 80 61 00
        E 120 90 3c 60
        E 0 90 48 60
        E 0 90 55 60
        E 0 90 61 60
        E 120 80 3c 00
        E 0 80 48 00
        E 0 80 55 00
        E 0 80 61 00
        E 120 90 61 60
        E 120 80 61 00
        E 120 90 48 60
        E 0 90 55 60
        E 0 90 61 60
        E 120 80 48 00
        E 0 80 55 00
        E 0 80 61 00
        E 120 90 61 60
        E 120 80 61 00
        E 120 90 48 60
        E 0 90 55 60
        E 0 90 61 60
        E 120 80 48 00
        E 0 80 55 00
        E 0 80 61 00
        E 120 90 61 60
        E 120 80 61 00
        E 120 90 55 60
        E 0 90 61 60
        E 120 80 55 00
        E 0 80 61 00
        E 120 90 61 60
        E 120 80 61 00
        E 120 90 3d 60
        E 0 90 49 60
        E 0 90 56 60
        E 0 90 62 60
        E 120 80 3d 00
        E 0 80 49 00
        E 0 80 56 00
        E 0 80 62 00
        E 120 90 62 60
        E 120 80 62 00
        E 120 90 56 60
        E 0 90 62 60
        E 120 80 56 00
        E 0 80 62 00
        E 120 90 62 60
        E 120 80 62 00
        E 120 90 3d 60
        E 0 90 49 60
        E 0 90 56 60
        E 0 90 62 60
        E 120 80 3d 00
        E 0 80 49 00
        E 0 80 56 00
        E 0 80 62 00
        E 120 90 62 60
        E 120 80 62 00
        E 120 90 56 60
        E 0 90 62 60
        E 120 80 56 00
        E 0 80 62 00
        E 120 90 62 60
        E 120 80 62 00
        E 120 90 3e 60
        E 0 90 4a 60
        E 0 90 57 60
        E 0 90 63 60
        E 120 80 3e 00
        E 0 80 4a 00
        E 0 80 57 00
        E 0 80 63 00
        E 120 90 63 60
        E 120 80 63 00
        E 120 90 57 60
        E 0 90 63 60
        E 120 80 57 00
        E 0 80 63 00
        E 120 90 63 60
        E 120 80 63 00
        E 120 90 4b 60
        E 0 90 58 60
        E 0 90 64 60
        E 120 80 4b 00
        E 0 80 58 00
        E 0 80 64 00
        E 120 90 64 60
        E 120 80 64 00
        E 120 90 58 60
        E 0 90 64 60
        E 120 80 58 00
        E 0 80 64 00
        E 120 90 64 60
        E 120 80 64 00
        E 120 90 3d 60
        E 0 90 49 60
        E 0 90 56 60
        E 0 90 62 60
        E 120 80 3d 00
        E 0 80 49 00
        E 0 80 56 00
        E 0 80 62 00
        E 120 90 62 60
        E 120 80 62 00
        E 120 90 49 60
        E 0 90 56 60
        E 0 90 62 60
        E 120 80 49 00
        E 0 80 56 00
        E 0 80 62 00
        E 120 90 62 60
        E 120 80 62 00
        E 120 90 3d 60
        E 0 90 49 60
        E 0 90 56 60
        E 0 90 62 60
        E 120 80 3d 00
        E 0 80 49 00
        E 0 80 56 00
        E 0 80 62 00
        E 120 90 62 60
        E 120 80 62 00
        E 120 90 56 60
        E 0 90 62 60
        E 120 80 56 00
        E 0 80 62 00
        E 120 90 62 60
        E 120 80 62 00
        E 120 90 3d 60
        E 0 90 49 60
        E 0 90 56 60
        E 0 90 62 60
        E 120 80 3d 00
        E 0 80 49 00
        E 0 80 56 00
        E 0 80 62 00
        E 120 90 62 60
        E 120 80 62 00
        E 120 90 49 60
        E 0 90 56 60
        E 0 90 62 60
        E 120 80 49 00
        E 0 80 56 00
        E 0 80 62 00
        E 120 90 62 60
        E 120 80 62 00
        E 120 90 49 60
        E 0 90 56 60
        E 0 90 62 60
        E 120 80 49 00
        E 0 80 56 00
        E 0 80 62 00
        E 120 90 62 60
        E 120 80 62 00
        E 120 90 56 60
        E 0 90 62 60
        E 120 80 56 00
        E 0 80 62 00
        E 120 90 62 60
        E 120 80 62 00
        E 120 90 3c 60
        E 0 90 48 60
        E 0 90 55 60
        E 0 90 61 60
        E 120 80 3c 00
        E 0 80 48 00
        E 0 80 55 00
        E 0 80 61 00
        E 120 90 61 60
        E 120 80 61 00
        E 120 90 55 60
        E 0 90 61 60
        E 120 80 55 00
        E 0 80 61 00
        E 120 90 61 60
        E 120 80 61 00
        E 120 90 3c 60
        E 0 90 48 60
        E 0 90 55 60
        E 0 90 61 60
        E 120 80 3c 00
        E 0 80 48 00
        E 0 80 55 00
        E 0 80 61 00
        E 120 90 61 60
        E 120 80 61 00
        E 120 90 55 60
        E 0 90 61 60
        E 120 80 55 00
        E 0 80 61 00
        E 120 90 61 60
        E 120 80 61 00
        E 120 90 3d 60
        E 0 90 49 60
        E 0 90 56 60
        E 0 90 62 60
        E 120 80 3d 00
        E 0 80 49 00
        E 600 80 56 00
        E 0 80 62 00
        E 240 90 3e 60
        E 0 90 4a 60
        E 0 90 57 60
        E 0 90 63 60
        E 120 80 3e 00
        E 0 80 4a 00
        E 0 80 57 00
        E 0 80 63 00
        E 120 90 63 60
        E 120 80 63 00
        E 120 90 54 60
        E 0 90 60 60
        E 120 80 54 00
        E 0 80 60 00
        E 120 90 60 60
        E 120 80 60 00
        E 120 90 3c 60
        E 0 90 48 60
        E 0 90 55 60
        E 0 90 61 60
        E 120 80 3c 00
        E 0 80 48 00
        E 0 80 55 00
        E 0 80 61 00
        E 120 90 61 60
        E 120 80 61 00
        E 120 90 48 60
        E 0 90 55 60
        E 0 90 61 60
        E 120 80 48 00
        E 0 80 55 00
        E 0 80 61 00
        E 120 90 61 60
        E 120 80 61 00
        E 120 90 3c 60
        E 0 90 48 60
        E 0 90 55 60
        E 0 90 61 60
        E 120 80 3c 00
        E 0 80 48 00
        E 0 80 55 00
        E 0 80 61 00
        E 120 90 61 60
        E 120 80 61 00
        E 120 90 55 60
        E 0 90 61 60
        E 120 80 55 00
        E 0 80 61 00
        E 120 90 61 60
        E 120 80 61 00
        E 120 90 3c 60
        E 0 90 48 60
        E 0 90 55 60
        E 0 90 61 60
        E 120 80 3c 00
        E 0 80 48 00
        E 0 80 55 00
        E 0 80 61 00
        E 120 90 61 60
        E 120 80 61 00
        E 120 90 48 60
        E 0 90 55 60
        E 0 90 61 60
        E 120 80 48 00
        E 0 80 55 00
        E 0 80 61 00
        E 120 90 61 60
        E 120 80 61 00
        E 120 90 3c 60
        E 0 90 48 60
        E 0 90 55 60
        E 0 90 61 60
        E 120 80 3c 00
        E 0 80 48 00
        E 0 80 55 00
        E 0 80 61 00
        E 360 90 54 60
        E 0 90 60 60
        E 120 80 54 00
        E 0 80 60 00
        E 360 90 3c 60
        E 0 90 48 60
        E 0 90 55 60
        E 0 90 61 60
        E 120 80 3c 00
        E 0 80 48 00
        E 0 80 55 00
        E 0 80 61 00
        E 120 90 61 60
        E 120 80 61 00
        E 120 90 55 60
        E 0 90 61 60
        E 120 80 55 00
        E 0 80 61 00
        E 120 90 61 60
        E 120 80 61 00
        E 120 90 48 60
        E 0 90 55 60
        E 0 90 61 60
        E 120 80 48 00
        E 0 80 55 00
        E 0 80 61 00
        E 360 90 57 60
        E 0 90 63 60
        E 120 80 57 00
        E 0 80 63 00
        E 360 90 3f 60
        E 0 90 4b 60
        E 0 90 58 60
        E 0 90 64 60
        E 120 80 3f 00
        E 0 80 4b 00
        E 0 80 58 00
        E 0 80 64 00
        E 120 90 64 60
        E 120 80 64 00
        E 120 90 58 60
        E 0 90 64 60
        E 120 80 58 00
        E 0 80 64 00
        E 120 90 64 60
        E 120 80 64 00
        E 120 90 4b 60
        E 0 90 58 60
        E 0 90 64 60
        E 120 80 4b 00
        E 0 80 58 00
        E 0 80 64 00
        E 360 90 55 60
        E 0 90 61 60
        E 120 80 55 00
        E 0 80 61 00
        E 360 90 3e 60
        E 0 90 4a 60
        E 0 90 57 60
        E 0 90 63 60
        E 0 90 74 60
        E 120 80 3e 00
        E 0 80 4a 00
        E 0 80 57 00
        E 0 80 63 00
        E 120 90 63 60
        E 120 80 63 00
        E 120 90 57 60
        E 0 90 63 60
        E 120 80 57 00
        E 0 80 63 00
        E 120 90 63 60
        E 120 80 63 00
        E 120 90 4a 60
        E 0 90 57 60
        E 0 90 63 60
        E 120 80 4a 00
        E 0 80 57 00
        E 0 80 63 00
        E 360 90 55 60
        E 0 90 61 60
        E 120 80 55 00
        E 0 80 61 00
        E 360 90 3d 60
        E 0 90 49 60
        E 0 90 56 60
        E 0 90 62 60
        E 120 80 3d 00
        E 0 80 49 00
        E 0 80 56 00
        E 0 80 62 00
        E 120 90 62 60
        E 120 80 62 00
        E 120 90 56 60
        E 0 90 62 60
        E 120 80 56 00
        E 0 80 62 00
        E 120 90 62 60
        E 120 80 62 00
        E 120 90 49 60
        E 0 90 56 60
        E 0 90 62 60
        E 120 80 49 00
        E 0 80 56 00
        E 0 80 62 00
        E 360 90 54 60
        E 0 90 60 60
        E 120 80 54 00
        E 0 80 60 00
        E 360 80 74 00
        E 0 90 3c 60
        E 0 90 48 60
        E 0 90 55 60
        E 0 90 61 60
        E 120 80 3c 00
        E 0 80 48 00
        E 0 80 55 00
        E 0 80 61 00
        E 120 90 61 60
        E 120 80 61 00
        E 120 90 55 60
        E 0 90 61 60
        E 120 80 55 00
        E 0 80 61 00
        E 120 90 61 60
        E 120 80 61 00
        E 120 90 48 60
        E 0 90 55 60
        E 0 90 61 60
        E 120 80 48 00
        E 0 80 55 00
        E 0 80 61 00
        E 360 90 57 60
        E 0 90 63 60
        E 120 80 57 00
        E 0 80 63 00
        E 360 90 3f 60
        E 0 90 4b 60
        E 0 90 58 60
        E 0 90 64 60
        E 120 80 3f 00
        E 0 80 4b 00
        E 0 80 58 00
        E 0 80 64 00
        E 120 90 64 60
        E 120 80 64 00
        E 120 90 58 60
        E 0 90 64 60
        E 120 80 58 00
        E 0 80 64 00
        E 120 90 64 60
        E 120 80 64 00
        E 120 90 4b 60
        E 0 90 58 60
        E 0 90 64 60
        E 120 80 4b 00
        E 0 80 58 00
        E 0 80 64 00
        E 360 90 55 60
        E 0 90 61 60
        E 120 80 55 00
        E 0 80 61 00
        E 360 90 3e 60
        E 0 90 4a 60
        E 0 90 57 60
        E 0 90 63 60
        E 120 80 3e 00
        E 0 80 4a 00
        E 0 80 57 00
        E 0 80 63 00
        E 120 90 63 60
        E 120 80 63 00
        E 120 90 57 60
        E 0 90 63 60
        E 120 80 57 00
        E 0 80 63 00
        E 120 90 63 60
        E 120 80 63 00
        E 120 90 4a 60
        E 0 90 57 60
        E 0 90 63 60
        E 120 80 4a 00
        E 0 80 57 00
        E 0 80 63 00
        E 360 90 58 60
        E 0 90 64 60
        E 120 80 58 00
        E 0 80 64 00
        E 360 90 3d 60
        E 0 90 49 60
        E 0 90 56 60
        E 0 90 62 60
        E 120 80 3d 00
        E 0 80 49 00
        E 0 80 56 00
        E 0 80 62 00
        E 120 90 62 60
        E 120 80 62 00
        E 120 90 56 60
        E 0 90 62 60
        E 120 80 56 00
        E 0 80 62 00
        E 120 90 62 60
        E 120 80 62 00
        E 120 90 49 60
        E 0 90 56 60
        E 0 90 62 60
        E 120 80 49 00
        E 0 80 56 00
        E 0 80 62 00
        E 120 90 63 60
        E 120 80 63 00
        E 120 90 58 60
        E 0 90 64 60
        E 0 90 65 60
        E 120 80 58 00
        E 0 80 64 00
        E 0 80 65 00
        E 360 90 3c 60
        E 0 90 48 60
        E 0 90 55 60
        E 0 90 61 60
        E 120 80 3c 00
        E 0 80 48 00
        E 0 80 55 00
        E 0 80 61 00
        E 120 90 61 60
        E 120 80 61 00
        E 120 90 55 60
        E 0 90 61 60
        E 120 80 55 00
        E 0 80 61 00
        E 120 90 61 60
        E 120 80 61 00
        E 120 90 48 60
        E 0 90 55 60
        E 0 90 61 60
        E 120 80 48 00
        E 0 80 55 00
        E 0 80 61 00
        E 360 90 57 60
        E 0 90 63 60
        E 120 80 57 00
        E 0 80 63 00
        E 360 90 3f 60
        E 0 90 4b 60
        E 0 90 58 60
        E 0 90 64 60
        E 120 80 3f 00
        E 0 80 4b 00
        E 0 80 58 00
        E 0 80 64 00
        E 120 90 64 60
        E 120 80 64 00
        E 120 90 58 60
        E 0 90 64 60
        E 120 80 58 00
        E 0 80 64 00
        E 120 90 64 60
        E 120 80 64 00
        E 120 90 4b 60
        E 0 90 58 60
        E 0 90 64 60
        E 120 80 4b 00
        E 0 80 58 00
        E 0 80 64 00
        E 360 90 55 60
        E 0 90 61 60
        E 120 80 55 00
        E 0 80 61 00
        E 360 90 3e 60
        E 0 90 4a 60
        E 0 90 57 60
        E 0 90 63 60
        E 120 80 3e 00
        E 0 80 4a 00
        E 0 80 57 00
        E 0 80 63 00
        E 120 90 63 60
        E 120 80 63 00
        E 120 90 57 60
        E 0 90 63 60
        E 120 80 57 00
        E 0 80 63 00
        E 120 90 63 60
        E 120 80 63 00
        E 120 90 4a 60
        E 0 90 57 60
        E 0 90 63 60
        E 120 80 4a 00
        E 0 80 57 00
        E 0 80 63 00
        E 360 90 55 60
        E 0 90 61 60
        E 120 80 55 00
        E 0 80 61 00
        E 360 90 3d 60
        E 0 90 49 60
        E 0 90 56 60
        E 0 90 62 60
        E 120 80 3d 00
        E 0 80 49 00
        E 0 80 56 00
        E 0 80 62 00
        E 120 90 62 60
        E 120 80 62 00
        E 120 90 56 60
        E 0 90 62 60
        E 120 80 56 00
        E 0 80 62 00
        E 120 90 62 60
        E 120 80 62 00
        E 120 90 49 60
        E 0 90 56 60
        E 0 90 62 60
        E 120 80 49 00
        E 0 80 56 00
        E 0 80 62 00
        E 360 90 54 60
        E 0 90 60 60
        E 120 80 54 00
        E 0 80 60 00
        E 360 90 3c 60
        E 0 90 48 60
        E 0 90 55 60
        E 0 90 61 60
        E 120 80 3c 00
        E 0 80 48 00
        E 0 80 55 00
        E 0 80 61 00
        E 120 90 61 60
        E 120 80 61 00
        E 120 90 55 60
        E 0 90 61 60
        E 120 80 55 00
        E 0 80 61 00
        E 120 90 61 60
        E 120 80 61 00
        E 120 90 48 60
        E 0 90 55 60
        E 0 90 61 60
        E 120 80 48 00
        E 0 80 55 00
        E 0 80 61 00
        E 360 90 57 60
        E 0 90 63 60
        E 120 80 57 00
        E 0 80 63 00
        E 360 90 3f 60
        E 0 90 4b 60
        E 0 90 58 60
        E 0 90 64 60
        E 120 80 3f 00
        E 0 80 4b 00
        E 0 80 58 00
        E 0 80 64 00
        E 120 90 64 60
        E 120 80 64 00
        E 120 90 58 60
        E 0 90 64 60
        E 120 80 58 00
        E 0 80 64 00
        E 120 90 64 60
        E 120 80 64 00
        E 120 90 4b 60
        E 0 90 58 60
        E 0 90 64 60
        E 120 80 4b 00
        E 0 80 58 00
        E 0 80 64 00
        E 360 90 55 60
        E 0 90 61 60
        E 120 80 55 00
        E 0 80 61 00
        E 360 90 3e 60
        E 0 90 4a 60
        E 0 90 57 60
        E 0 90 63 60
        E 120 80 3e 00
        E 0 80 4a 00
        E 0 80 57 00
        E 0 80 63 00
        E 120 90 63 60
        E 120 80 63 00
        E 120 90 57 60
        E 0 90 63 60
        E 120 80 57 00
        E 0 80 63 00
        E 120 90 63 60
        E 120 80 63 00
        E 120 90 4a 60
        E 0 90 57 60
        E 0 90 63 60
        E 120 80 4a 00
        E 0 80 57 00
        E 0 80 63 00
        E 360 90 58 60
        E 0 90 64 60
        E 120 80 58 00
        E 0 80 64 00
        E 360 90 3d 60
        E 0 90 49 60
        E 0 90 56 60
        E 0 90 62 60
        E 0 90 74 60
        E 120 80 3d 00
        E 0 80 49 00
        E 0 80 56 00
        E 0 80 62 00
        E 120 90 62 60
        E 120 80 62 00
        E 120 90 56 60
        E 0 90 62 60
        E 120 80 56 00
        E 0 80 62 00
        E 120 90 62 60
        E 120 80 62 00
        E 120 90 48 60
        E 0 90 56 60
        E 0 90 62 60
        E 120 80 48 00
        E 0 80 56 00
        E 0 80 62 00
        E 120 90 61 60
        E 120 80 61 00
        E 120 90 55 60
        E 0 90 61 60
        E 120 80 55 00
        E 0 80 61 00
        E 120 90 61 60
        E 120 80 61 00
        E 120 90 3d 60
        E 0 90 49 60
        E 0 90 56 60
        E 0 90 62 60
        E 120 80 74 00
        E 0 80 3d 00
        E 0 80 49 00
        E 0 80 56 00
        E 0 80 62 00
        E 120 90 62 60
        E 120 80 62 00
        E 120 90 56 60
        E 0 90 62 60
        E 120 80 56 00
        E 0 80 62 00
        E 120 90 62 60
        E 120 80 62 00
        E 120 90 3d 60
        E 0 90 49 60
        E 0 90 56 60
        E 0 90 62 60
        E 120 80 3d 00
        E 0 80 49 00
        E 0 80 56 00
        E 0 80 62 00
        E 120 90 62 60
        E 120 80 62 00
        E 120 90 56 60
        E 0 90 62 60
        E 120 80 56 00
        E 0 80 62 00
        E 120 90 62 60
        E 120 80 62 00
        E 120 90 3e 60
        E 0 90 4a 60
        E 0 90 57 60
        E 0 90 63 60
        E 120 80 3e 00
        E 0 80 4a 00
        E 0 80 57 00
        E 0 80 63 00
        E 120 90 63 60
        E 120 80 63 00
        E 120 90 57 60
        E 0 90 63 60
        E 120 80 57 00
        E 0 80 63 00
        E 120 90 63 60
        E 120 80 63 00
        E 120 90 4b 60
        E 0 90 58 60
        E 0 90 64 60
        E 120 80 4b 00
        E 0 80 58 00
        E 0 80 64 00
        E 120 90 64 60
        E 120 80 64 00
        E 120 90 58 60
        E 0 90 64 60
        E 120 80 58 00
        E 0 80 64 00
        E 120 90 60 60
        E 120 80 60 00
        E 120 90 3c 60
        E 0 90 48 60
        E 0 90 55 60
        E 0 90 61 60
        E 120 80 3c 00
        E 0 80 48 00
        E 0 80 55 00
        E 0 80 61 00
        E 120 90 61 60
        E 120 80 61 00
        E 120 90 48 60
        E 0 90 55 60
        E 0 90 61 60
        E 120 80 48 00
        E 0 80 55 00
        E 0 80 61 00
        E 120 90 61 60
        E 120 80 61 00
        E 120 90 3c 60
        E 0 90 48 60
        E 0 90 55 60
        E 0 90 61 60
        E 120 80 3c 00
        E 0 80 48 00
        E 0 80 55 00
        E 0 80 61 00
        E 120 90 61 60
        E 120 80 61 00
        E 120 90 55 60
        E 0 90 61 60
        E 120 80 55 00
        E 0 80 61 00
        E 120 90 61 60
        E 120 80 61 00
        E 120 90 3c 60
        E 0 90 48 60
        E 0 90 55 60
        E 0 90 61 60
        E 120 80 3c 00
        E 0 80 48 00
        E 0 80 55 00
        E 0 80 61 00
        E 120 90 61 60
        E 120 80 61 00
        E 120 90 48 60
        E 0 90 55 60
        E 0 90 61 60
        E 120 80 48 00
        E 0 80 55 00
        E 0 80 61 00
        E 120 90 61 60
        E 120 80 61 00
        E 120 90 48 60
        E 0 90 55 60
        E 0 90 61 60
        E 120 80 48 00
        E 0 80 55 00
        E 0 80 61 00
        E 120 90 61 60
        E 120 80 61 00
        E 120 90 55 60
        E 0 90 61 60
        E 120 80 55 00
        E 0 80 61 00
        E 120 90 61 60
        E 120 80 61 00
        E 120 90 3d 60
        E 0 90 49 60
        E 0 90 56 60
        E 0 90 62 60
        E 120 80 3d 00
        E 0 80 49 00
        E 0 80 56 00
        E 0 80 62 00
        E 120 90 62 60
        E 120 80 62 00
        E 120 90 56 60
        E 0 90 62 60
        E 120 80 56 00
        E 0 80 62 00
        E 120 90 62 60
        E 120 80 62 00
        E 120 90 3d 60
        E 0 90 49 60
        E 0 90 56 60
        E 0 90 62 60
        E 120 80 3d 00
        E 0 80 49 00
        E 0 80 56 00
        E 0 80 62 00
        E 120 90 62 60
        E 120 80 62 00
        E 120 90 56 60
        E 0 90 62 60
        E 120 80 56 00
        E 0 80 62 00
        E 120 90 62 60
        E 120 80 62 00
        E 120 90 3e 60
        E 0 90 4a 60
        E 0 90 57 60
        E 0 90 63 60
        E 120 80 3e 00
        E 0 80 4a 00
        E 0 80 57 00
        E 0 80 63 00
        E 120 90 63 60
        E 120 80 63 00
        E 120 90 57 60
        E 0 90 63 60
        E 120 80 57 00
        E 0 80 63 00
        E 120 90 63 60
        E 120 80 63 00
        E 120 90 4b 60
        E 0 90 58 60
        E 0 90 64 60
        E 120 80 4b 00
        E 0 80 58 00
        E 0 80 64 00
        E 120 90 64 60
        E 120 80 64 00
        E 120 90 58 60
        E 0 90 64 60
        E 120 80 58 00
        E 0 80 64 00
        E 120 90 64 60
        E 120 80 64 00
        E 120 90 3c 60
        E 0 90 48 60
        E 0 90 55 60
        E 0 90 61 60
        E 120 80 3c 00
        E 0 80 48 00
        E 0 80 55 00
        E 0 80 61 00
        E 120 90 61 60
        E 120 80 61 00
        E 120 90 48 60
        E 0 90 55 60
        E 0 90 61 60
        E 120 80 48 00
        E 0 80 55 00
        E 0 80 61 00
        E 120 90 61 60
        E 120 80 61 00
        E 120 90 3c 60
        E 0 90 48 60
        E 0 90 55 60
        E 0 90 61 60
        E 120 80 3c 00
        E 0 80 48 00
        E 0 80 55 00
        E 0 80 61 00
        E 120 90 61 60
        E 120 80 61 00
        E 120 90 55 60
        E 0 90 61 60
        E 120 80 55 00
        E 0 80 61 00
        E 120 90 61 60
        E 120 80 61 00
        E 120 90 3c 60
        E 0 90 48 60
        E 0 90 55 60
        E 0 90 61 60
        E 120 80 3c 00
        E 0 80 48 00
        E 0 80 55 00
        E 0 80 61 00
        E 120 90 61 60
        E 120 80 61 00
        E 120 90 48 60
        E 0 90 55 60
        E 0 90 61 60
        E 120 80 48 00
        E 0 80 55 00
        E 0 80 61 00
        E 120 90 61 60
        E 120 80 61 00
        E 120 90 48 60
        E 0 90 55 60
        E 0 90 61 60
        E 120 80 48 00
        E 0 80 55 00
        E 0 80 61 00
        E 120 90 61 60
        E 120 80 61 00
        E 120 90 55 60
        E 0 90 61 60
        E 120 80 55 00
        E 0 80 61 00
        E 120 90 61 60
        E 120 80 61 00
        E 120 90 3d 60
        E 0 90 49 60
        E 0 90 56 60
        E 0 90 62 60
        E 0 90 74 60
        E 120 80 3d 00
        E 0 80 49 00
        E 0 80 56 00
        E 0 80 62 00
        E 120 90 62 60
        E 120 80 62 00
        E 120 90 56 60
        E 0 90 62 60
        E 120 80 56 00
        E 0 80 62 00
        E 120 90 62 60
        E 120 80 62 00
        E 120 90 3d 60
        E 0 90 49 60
        E 0 90 56 60
        E 0 90 62 60
        E 120 80 3d 00
        E 0 80 49 00
        E 0 80 56 00
        E 0 80 62 00
        E 120 90 62 60
        E 120 80 62 00
        E 120 90 56 60
        E 0 90 62 60
        E 120 80 56 00
        E 0 80 62 00
        E 120 90 62 60
        E 120 80 62 00
        E 120 90 3e 60
        E 0 90 4a 60
        E 0 90 57 60
        E 0 90 63 60
        E 120 80 3e 00
        E 0 80 4a 00
        E 0 80 57 00
        E 0 80 63 00
        E 120 90 63 60
        E 120 80 63 00
        E 120 90 57 60
        E 0 90 63 60
        E 120 80 57 00
        E 0 80 63 00
        E 120 90 63 60
        E 120 80 63 00
        E 120 90 4b 60
        E 0 90 58 60
        E 0 90 64 60
        E 120 80 4b 00
        E 0 80 58 00
        E 0 80 64 00
        E 120 90 64 60
        E 120 80 64 00
        E 120 90 58 60
        E 0 90 64 60
        E 120 80 58 00
        E 0 80 64 00
        E 120 90 61 60
        E 120 80 61 00
        E 120 90 3d 60
        E 0 90 49 60
        E 0 90 56 60
        E 0 90 62 60
        E 120 80 74 00
        E 0 80 3d 00
        E 0 80 49 00
        E 0 80 56 00
        E 0 80 62 00
        E 120 90 62 60
        E 120 80 62 00
        E 120 90 49 60
        E 0 90 56 60
        E 0 90 62 60
        E 120 80 49 00
        E 0 80 56 00
        E 0 80 62 00
        E 120 90 62 60
        E 120 80 62 00
        E 120 90 3d 60
        E 0 90 49 60
        E 0 90 56 60
        E 0 90 62 60
        E 120 80 3d 00
        E 0 80 49 00
        E 0 80 56 00
        E 0 80 62 00
        E 120 90 62 60
        E 120 80 62 00
        E 120 90 56 60
        E 0 90 62 60
        E 120 80 56 00
        E 0 80 62 00
        E 120 90 62 60
        E 120 80 62 00
        E 120 90 3d 60
        E 0 90 49 60
        E 0 90 56 60
        E 0 90 62 60
        E 120 80 3d 00
        E 0 80 49 00
        E 0 80 56 00
        E 0 80 62 00
        E 120 90 62 60
        E 120 80 62 00
        E 120 90 49 60
        E 0 90 56 60
        E 0 90 62 60
        E 120 80 49 00
        E 0 80 56 00
        E 0 80 62 00
        E 120 90 62 60
        E 120 80 62 00
        E 120 90 49 60
        E 0 90 56 60
        E 0 90 62 60
        E 120 80 49 00
        E 0 80 56 00
        E 0 80 62 00
        E 120 90 62 60
        E 120 80 62 00
        E 120 90 56 60
        E 0 90 62 60
        E 120 80 56 00
        E 0 80 62 00
        E 120 90 62 60
        E 120 80 62 00
        E 120 90 3c 60
        E 0 90 48 60
        E 0 90 55 60
        E 0 90 61 60
        E 120 80 3c 00
        E 0 80 48 00
        E 0 80 55 00
        E 0 80 61 00
        E 120 90 61 60
        E 120 80 61 00
        E 120 90 55 60
        E 0 90 61 60
        E 120 80 55 00
        E 0 80 61 00
        E 120 90 61 60
        E 120 80 61 00
        E 120 90 3c 60
        E 0 90 48 60
        E 0 90 55 60
        E 0 90 61 60
        E 120 80 3c 00
        E 0 80 48 00
        E 0 80 55 00
        E 0 80 61 00
        E 120 90 61 60
        E 120 80 61 00
        E 120 90 55 60
        E 0 90 61 60
        E 120 80 55 00
        E 0 80 61 00
        E 120 90 61 60
        E 120 80 61 00
        E 120 90 3d 60
        E 0 90 49 60
        E 0 90 56 60
        E 0 90 62 60
        E 120 80 3d 00
        E 0 80 49 00
        E 0 80 56 00
        E 0 80 62 00
        E 120 90 62 60
        E 120 80 62 00
        E 120 90 56 60
        E 0 90 62 60
        E 120 80 56 00
        E 0 80 62 00
        E 120 90 62 60
        E 120 80 62 00
        E 120 90 4a 60
        E 0 90 57 60
        E 0 90 63 60
        E 120 80 4a 00
        E 0 80 57 00
        E 0 80 63 00
        E 120 90 63 60
        E 120 80 63 00
        E 120 90 57 60
        E 0 90 63 60
        E 120 80 57 00
        E 0 80 63 00
        E 120 90 63 60
        E 120 80 63 00
        E 120 90 3c 60
        E 0 90 48 60
        E 0 90 55 60
        E 0 90 61 60
        E 120 80 3c 00
        E 0 80 48 00
        E 0 80 55 00
        E 0 80 61 00
        E 120 90 61 60
        E 120 80 61 00
        E 120 90 48 60
        E 0 90 55 60
        E 0 90 61 60
        E 120 80 48 00
        E 0 80 55 00
        E 0 80 61 00
        E 120 90 61 60
        E 120 80 61 00
        E 120 90 3c 60
        E 0 90 48 60
        E 0 90 55 60
        E 0 90 61 60
        E 120 80 3c 00
        E 0 80 48 00
        E 0 80 55 00
        E 0 80 61 00
        E 120 90 61 60
        E 120 80 61 00
        E 120 90 55 60
        E 0 90 61 60
        E 120 80 55 00
        E 0 80 61 00
        E 120 90 61 60
        E 120 80 61 00
        E 120 90 3c 60
        E 0 90 48 60
        E 0 90 55 60
        E 0 90 61 60
        E 120 80 3c 00
        E 0 80 48 00
        E 0 80 55 00
        E 0 80 61 00
        E 120 90 61 60
        E 120 80 61 00
        E 120 90 48 60
        E 0 90 55 60
        E 0 90 61 60
        E 120 80 48 00
        E 0 80 55 00
        E 0 80 61 00
        E 120 90 61 60
        E 120 80 61 00
        E 120 90 3c 60
        E 0 90 48 60
        E 0 90 55 60
        E 0 90 61 60
        E 120 80 3c 00
        E 0 80 48 00
        E 0 80 55 00
        E 0 80 61 00
        E 360 90 54 60
        E 0 90 60 60
        E 120 80 54 00
        E 0 80 60 00
        E 360 90 3c 60
        E 0 90 48 60
        E 0 90 54 60
        E 0 90 60 60
        E 0 90 67 60
        E 720 80 3c 00
        E 0 80 48 00
        E 0 80 54 00
        E 0 80 60 00
        E 720 90 54 60
        E 0 90 55 60
        E 0 90 60 60
        E 120 80 54 00
        E 0 80 55 00
        E 0 80 60 00
        E 360 90 3e 60
        E 0 90 48 60
        E 0 90 4a 60
        E 0 90 55 60
        E 0 90 57 60
        E 0 90 61 60
        E 0 90 63 60
        E 120 80 3e 00
        E 0 80 48 00
        E 0 80 4a 00
        E 360 80 61 00
        E 0 80 63 00
        E 120 80 55 00
        E 0 80 57 00
        E 120 90 61 60
        E 120 80 61 00
        E 120 90 49 60
        E 0 90 4a 60
        E 0 90 56 60
        E 0 90 58 60
        E 0 90 62 60
        E 0 90 64 60
        E 0 90 65 60
        E 120 80 49 00
        E 0 80 4a 00
        E 360 80 62 00
        E 0 80 64 00
        E 0 80 65 00
        E 120 80 56 00
        E 0 80 58 00
        E 120 90 60 60
        E 120 80 60 00
        E 120 90 3d 60
        E 0 90 48 60
        E 0 90 49 60
        E 0 90 55 60
        E 0 90 56 60
        E 0 90 61 60
        E 0 90 62 60
        E 0 90 65 60
        E 120 80 3d 00
        E 0 80 48 00
        E 0 80 49 00
        E 0 80 55 00
        E 0 80 56 00
        E 360 80 61 00
        E 0 80 62 00
        E 0 80 65 00
        E 960 90 48 60
        E 0 90 54 60
        E 0 90 60 60
        E 120 80 48 00
        E 0 80 54 00
        E 0 80 60 00
        E 120 90 60 60
        E 120 80 60 00
        E 600 90 54 60
        E 0 90 60 60
        E 120 80 54 00
        E 0 80 60 00
        E 120 90 60 60
        E 120 80 60 00
        E 600 90 54 60
        E 0 90 60 60
        E 120 80 54 00
        E 0 80 60 00
        E 120 90 60 60
        E 120 80 60 00
        E 120 90 3c 60
        E 0 90 48 60
        E 0 90 49 60
        E 0 90 55 60
        E 0 90 57 60
        E 0 90 60 60
        E 0 90 62 60
        E 120 80 3c 00
        E 0 80 48 00
        E 0 80 49 00
        E 0 80 55 00
        E 0 80 57 00
        E 360 80 60 00
        E 0 80 62 00
        E 960 90 55 60
        E 0 90 61 60
        E 120 80 55 00
        E 0 80 61 00
        E 120 90 61 60
        E 120 80 61 00
        E 120 90 3c 60
        E 0 90 48 60
        E 0 90 4a 60
        E 0 90 55 60
        E 0 90 57 60
        E 0 90 61 60
        E 0 90 63 60
        E 0 90 74 60
        E 120 80 3c 00
        E 0 80 48 00
        E 0 80 4a 00
        E 360 80 61 00
        E 0 80 63 00
        E 120 80 55 00
        E 0 80 57 00
        E 360 90 3e 60
        E 0 90 49 60
        E 0 90 4a 60
        E 0 90 56 60
        E 0 90 58 60
        E 0 90 62 60
        E 0 90 64 60
        E 120 80 3e 00
        E 0 80 49 00
        E 0 80 4a 00
        E 360 80 62 00
        E 0 80 64 00
        E 120 80 56 00
        E 0 80 58 00
        E 120 90 60 60
        E 120 80 60 00
        E 120 90 3d 60
        E 0 90 48 60
        E 0 90 49 60
        E 0 90 55 60
        E 0 90 56 60
        E 0 90 61 60
        E 0 90 62 60
        E 0 90 65 60
        E 120 80 3d 00
        E 0 80 48 00
        E 0 80 49 00
        E 0 80 55 00
        E 0 80 56 00
        E 360 80 61 00
        E 0 80 62 00
        E 0 80 65 00
        E 960 90 48 60
        E 0 90 54 60
        E 0 90 60 60
        E 120 80 48 00
        E 0 80 54 00
        E 0 80 60 00
        E 120 90 60 60
        E 120 80 60 00
        E 600 90 54 60
        E 0 90 60 60
        E 120 80 54 00
        E 0 80 60 00
        E 120 90 60 60
        E 120 80 60 00
        E 600 90 54 60
        E 0 90 60 60
        E 120 80 54 00
        E 0 80 60 00
        E 120 90 61 60
        E 120 80 61 00
        E 120 90 3c 60
        E 0 90 48 60
        E 0 90 49 60
        E 0 90 54 60
        E 0 90 55 60
        E 0 90 60 60
        E 0 90 61 60
        E 0 90 65 60
        E 120 80 3c 00
        E 0 80 48 00
        E 0 80 49 00
        E 0 80 54 00
        E 0 80 55 00
        E 360 80 74 00
        E 0 80 60 00
        E 0 80 61 00
        E 0 80 65 00
        E 960 90 55 60
        E 0 90 61 60
        E 120 80 55 00
        E 0 80 61 00
        E 120 90 61 60
        E 120 80 61 00
        E 120 90 3c 60
        E 0 90 48 60
        E 0 90 4a 60
        E 0 90 55 60
        E 0 90 57 60
        E 0 90 61 60
        E 0 90 63 60
        E 120 80 3c 00
        E 0 80 48 00
        E 0 80 4a 00
        E 360 80 61 00
        E 0 80 63 00
        E 120 80 55 00
        E 0 80 57 00
        E 120 90 61 60
        E 120 80 61 00
        E 120 90 3e 60
        E 0 90 49 60
        E 0 90 4a 60
        E 0 90 56 60
        E 0 90 58 60
        E 0 90 62 60
        E 0 90 64 60
        E 0 90 65 60
        E 120 80 3e 00
        E 0 80 49 00
        E 0 80 4a 00
        E 360 80 62 00
        E 0 80 64 00
        E 0 80 65 00
        E 120 80 56 00
        E 0 80 58 00
        E 120 90 60 60
        E 120 80 60 00
        E 120 90 3d 60
        E 0 90 48 60
        E 0 90 49 60
        E 0 90 55 60
        E 0 90 56 60
        E 0 90 61 60
        E 0 90 62 60
        E 0 90 65 60
        E 120 80 3d 00
        E 0 80 48 00
        E 0 80 49 00
        E 0 80 55 00
        E 0 80 56 00
        E 360 80 61 00
        E 0 80 62 00
        E 0 80 65 00
        E 960 90 48 60
        E 0 90 54 60
        E 0 90 60 60
        E 120 80 48 00
        E 0 80 54 00
        E 0 80 60 00
        E 120 90 60 60
        E 120 80 60 00
        E 600 90 48 60
        E 0 90 54 60
        E 0 90 60 60
        E 120 80 48 00
        E 0 80 54 00
        E 0 80 60 00
        E 120 90 60 60
        E 120 80 60 00
        E 600 90 54 60
        E 0 90 60 60
        E 120 80 54 00
        E 0 80 60 00
        E 360 90 3c 60
        E 0 90 48 60
        E 0 90 49 60
        E 0 90 55 60
        E 0 90 57 60
        E 0 90 60 60
        E 0 90 62 60
        E 120 80 3c 00
        E 0 80 48 00
        E 0 80 49 00
        E 0 80 55 00
        E 0 80 57 00
        E 360 80 60 00
        E 0 80 62 00
        E 960 90 55 60
        E 0 90 61 60
        E 120 80 55 00
        E 0 80 61 00
        E 120 90 61 60
        E 120 80 61 00
        E 120 90 3c 60
        E 0 90 48 60
        E 0 90 4a 60
        E 0 90 55 60
        E 0 90 57 60
        E 0 90 61 60
        E 0 90 63 60
        E 120 80 3c 00
        E 0 80 48 00
        E 0 80 4a 00
        E 360 80 61 00
        E 0 80 63 00
        E 120 80 55 00
        E 0 80 57 00
        E 120 90 61 60
        E 120 80 61 00
        E 120 90 3e 60
        E 0 90 49 60
        E 0 90 4a 60
        E 0 90 56 60
        E 0 90 58 60
        E 0 90 62 60
        E 0 90 64 60
        E 0 90 65 60
        E 120 80 3e 00
        E 0 80 49 00
        E 0 80 4a 00
        E 360 80 62 00
        E 0 80 64 00
        E 0 80 65 00
        E 120 80 56 00
        E 0 80 58 00
        E 120 90 60 60
        E 120 80 60 00
        E 120 90 3d 60
        E 0 90 49 60
        E 0 90 55 60
        E 0 90 61 60
        E 120 80 3d 00
        E 0 80 49 00
        E 0 80 55 00
        E 0 80 61 00
        E 360 90 49 60
        E 0 90 55 60
        E 0 90 61 60
        E 120 80 49 00
        E 0 80 55 00
        E 0 80 61 00
        E 360 90 3d 60
        E 0 90 49 60
        E 0 90 55 60
        E 0 90 61 60
        E 120 80 3d 00
        E 0 80 49 00
        E 0 80 55 00
        E 0 80 61 00
        E 360 90 55 60
        E 0 90 61 60
        E 120 80 55 00
        E 0 80 61 00
        E 360 90 3d 60
        E 0 90 49 60
        E 0 90 55 60
        E 0 90 61 60
        E 0 90 74 60
        E 120 80 3d 00
        E 0 80 49 00
        E 0 80 55 00
        E 0 80 61 00
        E 360 90 55 60
        E 0 90 61 60
        E 120 80 55 00
        E 0 80 61 00
        E 360 90 3d 60
        E 0 90 49 60
        E 0 90 55 60
        E 0 90 61 60
        E 120 80 3d 00
        E 0 80 49 00
        E 0 80 55 00
        E 0 80 61 00
        E 360 90 48 60
        E 0 90 54 60
        E 0 90 60 60
        E 120 80 48 00
        E 0 80 54 00
        E 0 80 60 00
        E 120 80 67 00
        E 240 90 3c 60
        E 0 90 49 60
        E 0 90 55 60
        E 0 90 61 60
        E 120 80 3c 00
        E 0 80 49 00
        E 0 80 55 00
        E 0 80 61 00
        E 120 90 61 60
        E 120 80 61 00
        E 120 90 55 60
        E 0 90 61 60
        E 120 80 55 00
        E 0 80 61 00
        E 120 90 61 60
        E 120 80 61 00
        E 120 90 49 60
        E 0 90 55 60
        E 0 90 61 60
        E 120 80 49 00
        E 0 80 55 00
        E 0 80 61 00
        E 360 90 57 60
        E 0 90 63 60
        E 120 80 57 00
        E 0 80 63 00
        E 360 80 74 00
        E 0 90 3f 60
        E 0 90 4b 60
        E 0 90 58 60
        E 0 90 64 60
        E 120 80 3f 00
        E 0 80 4b 00
        E 0 80 58 00
        E 0 80 64 00
        E 120 90 64 60
        E 120 80 64 00
        E 120 90 58 60
        E 0 90 64 60
        E 120 80 58 00
        E 0 80 64 00
        E 120 90 64 60
        E 120 80 64 00
        E 120 90 4b 60
        E 0 90 58 60
        E 0 90 64 60
        E 120 80 4b 00
        E 0 80 58 00
        E 0 80 64 00
        E 360 90 55 60
        E 0 90 61 60
        E 120 80 55 00
        E 0 80 61 00
        E 360 90 3e 60
        E 0 90 4a 60
        E 0 90 57 60
        E 0 90 63 60
        E 120 80 3e 00
        E 0 80 4a 00
        E 0 80 57 00
        E 0 80 63 00
        E 120 90 63 60
        E 120 80 63 00
        E 120 90 57 60
        E 0 90 63 60
        E 120 80 57 00
        E 0 80 63 00
        E 120 90 63 60
        E 120 80 63 00
        E 120 90 4a 60
        E 0 90 57 60
        E 0 90 63 60
        E 120 80 4a 00
        E 0 80 57 00
        E 0 80 63 00
        E 360 90 55 60
        E 0 90 61 60
        E 120 80 55 00
        E 0 80 61 00
        E 360 90 3d 60
        E 0 90 49 60
        E 0 90 56 60
        E 0 90 62 60
        E 120 80 3d 00
        E 0 80 49 00
        E 0 80 56 00
        E 0 80 62 00
        E 120 90 62 60
        E 120 80 62 00
        E 120 90 56 60
        E 0 90 62 60
        E 120 80 56 00
        E 0 80 62 00
        E 120 90 62 60
        E 120 80 62 00
        E 120 90 49 60
        E 0 90 56 60
        E 0 90 62 60
        E 120 80 49 00
        E 0 80 56 00
        E 0 80 62 00
        E 120 90 60 60
        E 120 80 60 00
        E 120 90 54 60
        E 0 90 60 60
        E 120 80 54 00
        E 0 80 60 00
        E 360 90 3c 60
        E 0 90 48 60
        E 0 90 55 60
        E 0 90 61 60
        E 120 80 3c 00
        E 0 80 48 00
        E 0 80 55 00
        E 0 80 61 00
        E 120 90 61 60
        E 120 80 61 00
        E 120 90 55 60
        E 0 90 61 60
        E 120 80 55 00
        E 0 80 61 00
        E 120 90 61 60
        E 120 80 61 00
        E 120 90 48 60
        E 0 90 55 60
        E 0 90 61 60
        E 120 80 48 00
        E 0 80 55 00
        E 0 80 61 00
        E 360 90 57 60
        E 0 90 63 60
        E 120 80 57 00
        E 0 80 63 00
        E 360 90 3f 60
        E 0 90 4b 60
        E 0 90 58 60
        E 0 90 64 60
        E 120 80 3f 00
        E 0 80 4b 00
        E 0 80 58 00
        E 0 80 64 00
        E 120 90 64 60
        E 120 80 64 00
        E 120 90 58 60
        E 0 90 64 60
        E 120 80 58 00
        E 0 80 64 00
        E 120 90 64 60
        E 120 80 64 00
        E 120 90 4b 60
        E 0 90 58 60
        E 0 90 64 60
        E 120 80 4b 00
        E 0 80 58 00
        E 0 80 64 00
        E 360 90 55 60
        E 0 90 61 60
        E 120 80 55 00
        E 0 80 61 00
        E 360 90 3e 60
        E 0 90 4a 60
        E 0 90 57 60
        E 0 90 63 60
        E 120 80 3e 00
        E 0 80 4a 00
        E 0 80 57 00
        E 0 80 63 00
        E 120 90 63 60
        E 120 80 63 00
        E 120 90 57 60
        E 0 90 63 60
        E 120 80 57 00
        E 0 80 63 00
        E 120 90 63 60
        E 120 80 63 00
        E 120 90 4a 60
        E 0 90 57 60
        E 0 90 63 60
        E 120 80 4a 00
        E 0 80 57 00
        E 0 80 63 00
        E 360 90 58 60
        E 0 90 64 60
        E 120 80 58 00
        E 0 80 64 00
        E 360 90 3d 60
        E 0 90 49 60
        E 0 90 56 60
        E 0 90 62 60
        E 120 80 3d 00
        E 0 80 49 00
        E 0 80 56 00
        E 0 80 62 00
        E 120 90 62 60
        E 120 80 62 00
        E 120 90 56 60
        E 0 90 62 60
        E 120 80 56 00
        E 0 80 62 00
        E 120 90 62 60
        E 120 80 62 00
        E 120 90 49 60
        E 0 90 56 60
        E 0 90 62 60
        E 120 80 49 00
        E 0 80 56 00
        E 0 80 62 00
        E 120 90 63 60
        E 120 80 63 00
        E 120 90 58 60
        E 0 90 64 60
        E 0 90 65 60
        E 120 80 58 00
        E 0 80 64 00
        E 0 80 65 00
        E 360 90 3c 60
        E 0 90 48 60
        E 0 90 55 60
        E 0 90 61 60
        E 120 80 3c 00
        E 0 80 48 00
        E 0 80 55 00
        E 0 80 61 00
        E 120 90 61 60
        E 120 80 61 00
        E 120 90 55 60
        E 0 90 61 60
        E 120 80 55 00
        E 0 80 61 00
        E 120 90 61 60
        E 120 80 61 00
        E 120 90 48 60
        E 0 90 55 60
        E 0 90 61 60
        E 120 80 48 00
        E 0 80 55 00
        E 0 80 61 00
        E 360 90 57 60
        E 0 90 63 60
        E 120 80 57 00
        E 0 80 63 00
        E 360 90 3f 60
        E 0 90 4b 60
        E 0 90 58 60
        E 0 90 64 60
        E 120 80 3f 00
        E 0 80 4b 00
        E 0 80 58 00
        E 0 80 64 00
        E 120 90 64 60
        E 120 80 64 00
        E 120 90 58 60
        E 0 90 64 60
        E 120 80 58 00
        E 0 80 64 00
        E 120 90 64 60
        E 120 80 64 00
        E 120 90 4b 60
        E 0 90 58 60
        E 0 90 64 60
        E 120 80 4b 00
        E 0 80 58 00
        E 0 80 64 00
        E 360 90 55 60
        E 0 90 61 60
        E 120 80 55 00
        E 0 80 61 00
        E 360 90 3e 60
        E 0 90 4a 60
        E 0 90 57 60
        E 0 90 63 60
        E 120 80 3e 00
        E 0 80 4a 00
        E 0 80 57 00
        E 0 80 63 00
        E 120 90 63 60
        E 120 80 63 00
        E 120 90 57 60
        E 0 90 63 60
        E 120 80 57 00
        E 0 80 63 00
        E 120 90 63 60
        E 120 80 63 00
        E 120 90 4a 60
        E 0 90 57 60
        E 0 90 63 60
        E 120 80 4a 00
        E 0 80 57 00
        E 0 80 63 00
        E 360 90 55 60
        E 0 90 61 60
        E 120 80 55 00
        E 0 80 61 00
        E 360 90 3d 60
        E 0 90 49 60
        E 0 90 56 60
        E 0 90 62 60
        E 120 80 3d 00
        E 0 80 49 00
        E 0 80 56 00
        E 0 80 62 00
        E 120 90 62 60
        E 120 80 62 00
        E 120 90 56 60
        E 0 90 62 60
        E 120 80 56 00
        E 0 80 62 00
        E 120 90 62 60
        E 120 80 62 00
        E 120 90 49 60
        E 0 90 56 60
        E 0 90 62 60
        E 120 80 49 00
        E 0 80 56 00
        E 0 80 62 00
        E 120 90 60 60
        E 120 80 60 00
        E 120 90 54 60
        E 0 90 60 60
        E 120 80 54 00
        E 0 80 60 00
        E 360 90 3c 60
        E 0 90 48 60
        E 0 90 55 60
        E 0 90 61 60
        E 120 80 3c 00
        E 0 80 48 00
        E 0 80 55 00
        E 0 80 61 00
        E 120 90 61 60
        E 120 80 61 00
        E 120 90 55 60
        E 0 90 61 60
        E 120 80 55 00
        E 0 80 61 00
        E 120 90 61 60
        E 120 80 61 00
        E 120 90 48 60
        E 0 90 55 60
        E 0 90 61 60
        E 120 80 48 00
        E 0 80 55 00
        E 0 80 61 00
        E 360 90 57 60
        E 0 90 63 60
        E 120 80 57 00
        E 0 80 63 00
        E 360 90 3f 60
        E 0 90 4b 60
        E 0 90 58 60
        E 0 90 64 60
        E 120 80 3f 00
        E 0 80 4b 00
        E 0 80 58 00
        E 0 80 64 00
        E 120 90 64 60
        E 120 80 64 00
        E 120 90 58 60
        E 0 90 64 60
        E 120 80 58 00
        E 0 80 64 00
        E 120 90 64 60
        E 120 80 64 00
        E 120 90 4b 60
        E 0 90 58 60
        E 0 90 64 60
        E 120 80 4b 00
        E 0 80 58 00
        E 0 80 64 00
        E 360 90 55 60
        E 0 90 61 60
        E 120 80 55 00
        E 0 80 61 00
        E 360 90 3e 60
        E 0 90 4a 60
        E 0 90 57 60
        E 0 90 63 60
        E 120 80 3e 00
        E 0 80 4a 00
        E 0 80 57 00
        E 0 80 63 00
        E 120 90 63 60
        E 120 80 63 00
        E 120 90 57 60
        E 0 90 63 60
        E 120 80 57 00
        E 0 80 63 00
        E 120 90 63 60
        E 120 80 63 00
        E 120 90 4a 60
        E 0 90 57 60
        E 0 90 63 60
        E 120 80 4a 00
        E 0 80 57 00
        E 0 80 63 00
        E 360 90 58 60
        E 0 90 64 60
        E 120 80 58 00
        E 0 80 64 00
        E 360 90 3d 60
        E 0 90 49 60
        E 0 90 56 60
        E 0 90 62 60
        E 120 80 3d 00
        E 0 80 49 00
        E 0 80 56 00
        E 0 80 62 00
        E 120 90 62 60
        E 120 80 62 00
        E 120 90 56 60
        E 0 90 62 60
        E 120 80 56 00
        E 0 80 62 00
        E 120 90 62 60
        E 120 80 62 00
        E 120 90 48 60
        E 0 90 56 60
        E 0 90 62 60
        E 120 80 48 00
        E 0 80 56 00
        E 0 80 62 00
        E 120 90 61 60
        E 120 80 61 00
        E 120 90 55 60
        E 0 90 61 60
        E 120 80 55 00
        E 0 80 61 00
        E 120 90 60 60
        E 120 80 60 00
        E 120 90 3d 60
        E 0 90 49 60
        E 0 90 56 60
        E 0 90 62 60
        E 120 80 3d 00
        E 0 80 49 00
        E 0 80 56 00
        E 0 80 62 00
        E 3720 b0 7b 00
        GUID {FE954D5C-769A-47DF-A34C-C31A8B69ADB7}
        IGNTEMPO 0 120.00000000 4 4
        SRCCOLOR 4
        VELLANE 132 71 60
        COLORMAP "C:\Program Files\REAPER\Data\color_maps\rockband_guitarbass.png"
        CFGEDITVIEW -9792.000000 11.524206 7 12 0 0 0
        CFGEDIT 1 1 0 1 1 0 1 1 1 1 1 0.25000000 -4 0 1025 558 0 2 1 1 0.00000000 0 1 1 0 0.500000 0 0 1.000000 64
        KEYSNAP 0 0 "102034050607" 0 "Major"
        EVTFILTER 0 -1 -1 -1 -1 0 1 0 0 -1.00000000 -1.00000000
      >
    >
  >
  <TRACK '{313FB5BE-3347-48A2-A94F-98DAAC1E72B2}'
    NAME "PART VOCALS"
    PEAKCOL 16576
    BEAT -1
    AUTOMODE 0
    VOLPAN 1.00000000000000 0.00000000000000 -1.00000000000000 -1.00000000000000 1.00000000000000
    MUTESOLO 0 0 0
    IPHASE 0
    ISBUS 0 0
    BUSCOMP 0 0
    SHOWINMIX 1 0.666700 0.500000 1 0.500000 -1 -1 -1
    FREEMODE 0
    SEL 0
    REC 0 0 0 0 0 0 0
    VU 2
    TRACKHEIGHT 0 0
    INQ 0 0 0 0.5000000000 100 0 0 100
    NCHAN 2
    FX 1
    TRACKID {313FB5BE-3347-48A2-A94F-98DAAC1E72B2}
    PERF 0
    MIDIOUT -1
    MAINSEND 1 0
    <ITEM
      POSITION 0.00000000000000
      SNAPOFFS 0.00000000000000
      LENGTH 109.09842099999985
      LOOP 0
      ALLTAKES 0
      SEL 0
      FADEIN 1 0.000000 0.000000 1 0
      FADEOUT 1 0.000000 0.000000 1 0
      MUTE 0
      IGUID {4BE6579F-4B73-485A-9D2E-811042CD2B3A}
      IID 3
      NAME "PART VOCALS"
      VOLPAN 1.000000 0.000000 1.000000 -1.000000
      SOFFS 0.00000000000000 0.00000000000000
      PLAYRATE 1.00000000000000 1 0.00000000000000 -1
      CHANMODE 0
      GUID {D564F47A-6485-4594-A2DC-3F9FC31FD900}
      <SOURCE MIDI
        HASDATA 1 480 QN
        POOLEDEVTS {4645EE61-51A1-4C80-895B-6F456E42B954}
        <X 0 0
          /wNQQVJUIFZPQ0FMUw==
        >
        <X 7680 0
          /wFbaWRsZV0=
        >
        <X 30720 0
          /wFbaW50ZW5zZV0=
        >
        E 0 90 69 60
        <X 480 0
          /wVTbw==
        >
        E 0 90 43 60
        E 360 80 43 00
        <X 120 0
          /wUr
        >
        E 0 90 41 60
        E 240 80 41 00
        <X 240 0
          /wVtYS0=
        >
        E 0 90 43 60
        E 360 80 43 00
        <X 120 0
          /wUr
        >
        E 0 90 41 60
        E 240 80 41 00
        <X 240 0
          /wVueQ==
        >
        E 0 90 43 60
        E 360 80 43 00
        <X 120 0
          /wUr
        >
        E 0 90 41 60
        E 240 80 41 00
        <X 240 0
          /wVnaXJscw==
        >
        E 0 90 43 60
        E 360 80 43 00
        <X 120 0
          /wUr
        >
        E 0 90 41 60
        E 240 80 41 00
        <X 240 0
          /wVJ
        >
        E 0 90 41 60
        E 690 80 41 00
        <X 390 0
          /wVrbm93
        >
        E 0 90 41 60
        E 1140 80 41 00
        <X 180 0
          /wUr
        >
        E 0 90 3f 60
        E 600 80 3f 00
        E 360 80 69 00
        E 0 90 69 60
        E 0 90 74 60
        <X 480 0
          /wVQb2kt
        >
        E 0 90 3f 60
        E 360 80 3f 00
        <X 120 0
          /wUr
        >
        E 0 90 3c 60
        E 240 80 3c 00
        <X 240 0
          /wVzb24=
        >
        E 0 90 3f 60
        E 360 80 3f 00
        <X 120 0
          /wUr
        >
        E 0 90 3c 60
        E 180 80 3c 00
        <X 270 0
          /wV0aGVpcg==
        >
        E 0 90 3f 60
        E 360 80 3f 00
        <X 120 0
          /wUr
        >
        E 0 90 3c 60
        E 240 80 3c 00
        <X 240 0
          /wV3b21icw==
        >
        E 0 90 3f 60
        E 360 80 3f 00
        <X 150 0
          /wUr
        >
        E 0 90 3c 60
        E 240 80 3c 00
        <X 240 0
          /wVmb3I=
        >
        E 0 90 3f 60
        E 360 80 3f 00
        <X 120 0
          /wUr
        >
        E 0 90 3c 60
        E 120 80 3c 00
        <X 360 0
          /wVzdXJl
        >
        E 0 90 3f 60
        E 1290 80 3f 00
        <X 150 0
          /wUr
        >
        E 0 90 3c 60
        E 270 80 3c 00
        E 690 80 69 00
        E 0 80 74 00
        E 0 90 69 60
        <X 480 0
          /wVJJ20=
        >
        E 0 90 3c 60
        E 300 80 3c 00
        <X 180 0
          /wUr
        >
        E 0 90 3a 60
        E 120 80 3a 00
        <X 360 0
          /wVzaWNr
        >
        E 0 90 3c 60
        E 150 80 3c 00
        <X 810 0
          /wVvZl4=
        >
        E 0 90 3c 60
        E 180 80 3c 00
        <X 780 0
          /wVhbGxe
        >
        E 0 90 43 60
        E 780 80 43 00
        <X 180 0
          /wV0aGVzZSM=
        >
        E 0 90 41 60
        E 570 80 41 00
        <X 390 0
          /wVnaXJscyM=
        >
        E 0 90 41 60
        E 2310 80 41 00
        E 90 80 69 00
        E 480 90 69 60
        <X 90 0
          /wVQb2ktIw==
        >
        E 0 90 3f 60
        E 390 80 3f 00
        <X 480 0
          /wVzb24tIw==
        >
        E 0 90 3f 60
        E 180 80 3f 00
        <X 300 0
          /wVpbmcj
        >
        E 0 90 3f 60
        E 120 80 3f 00
        <X 360 0
          /wV0aGVpciM=
        >
        E 0 90 40 60
        E 510 80 40 00
        <X 90 0
          /wFbaWRsZV9pbnRlbnNlXQ==
        >
        E 840 80 69 00
        <X 3840 0
          /wFbaW50ZW5zZV0=
        >
        E 0 90 69 60
        <X 480 0
          /wVXZSdyZV4=
        >
        E 0 90 3f 60
        E 120 80 3f 00
        <X 360 0
          /wVsb29rLSM=
        >
        E 0 90 3f 60
        E 120 80 3f 00
        <X 120 0
          /wVpbmde
        >
        E 0 90 3f 60
        E 60 80 3f 00
        <X 180 0
          /wVmb3Ij
        >
        E 0 90 3f 60
        E 180 80 3f 00
        <X 300 0
          /wV3aXZlc14=
        >
        E 0 90 3f 60
        E 300 80 3f 00
        E 90 90 01 60
        E 30 80 01 00
        <X 60 0
          /wVzbyM=
        >
        E 0 90 3f 60
        E 150 80 3f 00
        <X 330 0
          /wV0aXJlZCM=
        >
        E 0 90 3f 60
        E 240 80 3f 00
        <X 240 0
          /wVvZl4=
        >
        E 0 90 3f 60
        E 90 80 3f 00
        <X 390 0
          /wVzbHV0cyM=
        >
        E 0 90 3f 60
        E 300 80 3f 00
        E 60 80 69 00
        E 30 90 69 60
        E 0 90 74 60
        <X 90 0
          /wVDb20tIw==
        >
        E 0 90 3f 60
        E 120 80 3f 00
        <X 120 0
          /wVpbmde
        >
        E 0 90 3f 60
        E 60 80 3f 00
        <X 180 0
          /wV0byM=
        >
        E 0 90 3f 60
        E 90 80 3f 00
        <X 150 0
          /wV1c14=
        >
        E 0 90 3f 60
        E 90 80 3f 00
        <X 150 0
          /wVpbl4=
        >
        E 0 90 3f 60
        E 90 80 3f 00
        <X 150 0
          /wV0aGUj
        >
        E 0 90 3f 60
        E 60 80 3f 00
        <X 180 0
          /wVjbHVicyM=
        >
        E 0 90 3f 60
        E 210 80 3f 00
        E 30 90 01 60
        E 30 80 01 00
        <X 210 0
          /wV3aXRoXg==
        >
        E 0 90 3f 60
        E 90 80 3f 00
        <X 150 0
          /wV0aGVpciM=
        >
        E 0 90 3f 60
        E 90 80 3f 00
        <X 150 0
          /wVjby0j
        >
        E 0 90 3f 60
        E 360 80 3f 00
        <X 120 0
          /wVjYWluZSM=
        >
        E 0 90 3f 60
        E 300 80 3f 00
        E 180 80 69 00
        E 0 80 74 00
        E 240 90 69 60
        <X 240 0
          /wVXZSdyZV4=
        >
        E 0 90 3f 60
        E 120 80 3f 00
        <X 360 0
          /wVsb29rLSM=
        >
        E 0 90 3f 60
        E 120 80 3f 00
        <X 120 0
          /wVpbmde
        >
        E 0 90 3f 60
        E 60 80 3f 00
        <X 180 0
          /wVmb3Ij
        >
        E 0 90 3f 60
        E 180 80 3f 00
        <X 300 0
          /wV3aXZlc14=
        >
        E 0 90 3f 60
        E 300 80 3f 00
        E 90 90 01 60
        E 30 80 01 00
        <X 60 0
          /wVzbyM=
        >
        E 0 90 3f 60
        E 150 80 3f 00
        <X 330 0
          /wV0aXJlZCM=
        >
        E 0 90 3f 60
        E 240 80 3f 00
        <X 240 0
          /wVvZl4=
        >
        E 0 90 3f 60
        E 90 80 3f 00
        <X 390 0
          /wVzbHV0cyM=
        >
        E 0 90 3f 60
        E 300 80 3f 00
        E 60 80 69 00
        E 0 90 69 60
        <X 120 0
          /wVDb20tIw==
        >
        E 0 90 3f 60
        E 120 80 3f 00
        <X 120 0
          /wVpbmde
        >
        E 0 90 3f 60
        E 60 80 3f 00
        <X 180 0
          /wV0byM=
        >
        E 0 90 3f 60
        E 90 80 3f 00
        <X 150 0
          /wV1c14=
        >
        E 0 90 3f 60
        E 90 80 3f 00
        <X 150 0
          /wVpbl4=
        >
        E 0 90 3f 60
        E 90 80 3f 00
        <X 150 0
          /wV0aGUj
        >
        E 0 90 3f 60
        E 60 80 3f 00
        <X 180 0
          /wVjbHVicyM=
        >
        E 0 90 3f 60
        E 209 80 3f 00
        E 31 90 01 60
        E 30 80 01 00
        <X 209 0
          /wV3aXRoXg==
        >
        E 0 90 3f 60
        E 90 80 3f 00
        <X 150 0
          /wV0aGVpciM=
        >
        E 0 90 3f 60
        E 90 80 3f 00
        <X 150 0
          /wVjby0j
        >
        E 0 90 3f 60
        E 360 80 3f 00
        <X 120 0
          /wVjYWluZSM=
        >
        E 0 90 3f 60
        E 300 80 3f 00
        E 181 80 69 00
        E 0 90 69 60
        <X 480 0
          /wVJXg==
        >
        E 0 90 3f 60
        E 270 80 3f 00
        <X 210 0
          /wVrbm93Iw==
        >
        E 0 90 3f 60
        E 270 80 3f 00
        <X 210 0
          /wV5b3Uj
        >
        E 0 90 3f 60
        E 150 80 3f 00
        <X 330 0
          /wV0aGluayM=
        >
        E 0 90 3f 60
        E 180 80 3f 00
        <X 300 0
          /wV5b3Uj
        >
        E 0 90 3f 60
        E 180 80 3f 00
        <X 300 0
          /wVoYXZlIw==
        >
        E 0 90 3f 60
        E 180 80 3f 00
        <X 300 0
          /wVpdF4=
        >
        E 0 90 3f 60
        E 180 80 3f 00
        <X 300 0
          /wVhbGwj
        >
        E 0 90 3f 60
        E 150 80 3f 00
        E 90 80 69 00
        E 0 90 69 60
        E 0 90 74 60
        <X 240 0
          /wVCdXQj
        >
        E 0 90 3f 60
        E 150 80 3f 00
        <X 330 0
          /wV5b3Ve
        >
        E 0 90 3f 60
        E 150 80 3f 00
        <X 330 0
          /wV3aWxsXg==
        >
        E 0 90 3f 60
        E 120 80 3f 00
        <X 360 0
          /wVuZS0j
        >
        E 0 90 3f 60
        E 180 80 3f 00
        <X 300 0
          /wV2ZXIj
        >
        E 0 90 3f 60
        E 150 80 3f 00
        <X 330 0
          /wVlLSM=
        >
        E 0 90 3f 60
        E 150 80 3f 00
        <X 330 0
          /wV2ZW4j
        >
        E 0 90 3f 60
        E 150 80 3f 00
        E 330 80 69 00
        E 0 80 74 00
        E 0 90 69 60
        <X 480 0
          /wVXZSdyZV4=
        >
        E 0 90 3f 60
        E 120 80 3f 00
        <X 360 0
          /wVsb29rLSM=
        >
        E 0 90 3f 60
        E 120 80 3f 00
        <X 120 0
          /wVpbmde
        >
        E 0 90 3f 60
        E 60 80 3f 00
        <X 180 0
          /wVmb3Ij
        >
        E 0 90 3f 60
        E 180 80 3f 00
        <X 300 0
          /wV3aXZlc14=
        >
        E 0 90 3f 60
        E 300 80 3f 00
        E 60 90 01 60
        E 30 80 01 00
        <X 90 0
          /wVzbyM=
        >
        E 0 90 3f 60
        E 150 80 3f 00
        <X 330 0
          /wV0aXJlZCM=
        >
        E 0 90 3f 60
        E 240 80 3f 00
        <X 240 0
          /wVvZl4=
        >
        E 0 90 3f 60
        E 90 80 3f 00
        <X 390 0
          /wVzbHV0cyM=
        >
        E 0 90 3f 60
        E 300 80 3f 00
        E 60 80 69 00
        E 0 90 69 60
        <X 120 0
          /wVDb20tIw==
        >
        E 0 90 3f 60
        E 120 80 3f 00
        <X 120 0
          /wVpbmde
        >
        E 0 90 3f 60
        E 60 80 3f 00
        <X 180 0
          /wV0byM=
        >
        E 0 90 3f 60
        E 90 80 3f 00
        <X 150 0
          /wV1c14=
        >
        E 0 90 3f 60
        E 90 80 3f 00
        <X 150 0
          /wVpbl4=
        >
        E 0 90 3f 60
        E 90 80 3f 00
        <X 150 0
          /wV0aGUj
        >
        E 0 90 3f 60
        E 60 80 3f 00
        <X 180 0
          /wVjbHVicyM=
        >
        E 0 90 3f 60
        E 209 80 3f 00
        E 31 90 01 60
        E 30 80 01 00
        <X 209 0
          /wV3aXRoXg==
        >
        E 0 90 3f 60
        E 90 80 3f 00
        <X 150 0
          /wV0aGVpciM=
        >
        E 0 90 3f 60
        E 90 80 3f 00
        <X 150 0
          /wVjby0j
        >
        E 0 90 3f 60
        E 360 80 3f 00
        <X 121 0
          /wVjYWluZSM=
        >
        E 0 90 3f 60
        E 300 80 3f 00
        E 180 80 69 00
        E 0 90 69 60
        <X 480 0
          /wVZb3U=
        >
        E 0 90 3f 60
        E 360 80 3f 00
        <X 120 0
          /wUr
        >
        E 0 90 3c 60
        E 240 80 3c 00
        <X 240 0
          /wV3aWxs
        >
        E 0 90 3f 60
        E 360 80 3f 00
        <X 120 0
          /wUr
        >
        E 0 90 3c 60
        E 150 80 3c 00
        <X 330 0
          /wVuZS0=
        >
        E 0 90 3f 60
        E 360 80 3f 00
        <X 120 0
          /wUr
        >
        E 0 90 3c 60
        E 240 80 3c 00
        <X 240 0
          /wV2ZXI=
        >
        E 0 90 3f 60
        E 360 80 3f 00
        <X 120 0
          /wUr
        >
        E 0 90 3c 60
        E 180 80 3c 00
        <X 300 0
          /wVlLQ==
        >
        E 0 90 3f 60
        E 360 80 3f 00
        <X 120 0
          /wUr
        >
        E 0 90 3c 60
        E 240 80 3c 00
        <X 240 0
          /wV2ZW4=
        >
        E 0 90 3f 60
        E 360 80 3f 00
        <X 120 0
          /wUr
        >
        E 0 90 3c 60
        E 240 80 3c 00
        <X 240 0
          /wVrbm93Iw==
        >
        E 0 90 3f 60
        E 1410 80 3f 00
        E 30 80 69 00
        E 0 90 69 60
        <X 480 0
          /wVZb3Ve
        >
        E 0 90 3f 60
        E 390 80 3f 00
        <X 570 0
          /wV0aGluayM=
        >
        E 0 90 3f 60
        E 330 80 3f 00
        <X 630 0
          /wV5b3Ve
        >
        E 0 90 3f 60
        E 330 80 3f 00
        <X 630 0
          /wVoYXZlIw==
        >
        E 0 90 3f 60
        E 450 80 3f 00
        <X 510 0
          /wVjb24tIw==
        >
        E 0 90 3c 60
        E 480 80 3c 00
        <X 480 0
          /wV0cm9sIw==
        >
        E 0 90 3c 60
        E 1350 80 3c 00
        E 90 80 69 00
        E 960 90 69 60
        E 0 90 74 60
        <X 480 0
          /wVPbmVe
        >
        E 0 90 3a 60
        E 600 80 3a 00
        <X 360 0
          /wVkYXkj
        >
        E 0 90 3a 60
        E 540 80 3a 00
        <X 420 0
          /wV3ZSdsbCM=
        >
        E 0 90 3a 60
        E 360 80 3a 00
        <X 600 0
          /wVsb3NlIw==
        >
        E 0 90 41 60
        E 540 80 41 00
        <X 420 0
          /wV5b3Ve
        >
        E 0 90 41 60
        E 270 80 41 00
        <X 690 0
          /wVhbGxe
        >
        E 0 90 41 60
        E 2460 80 41 00
        E 180 80 69 00
        E 0 80 74 00
        E 0 90 69 60
        <X 240 0
          /wVPbmVe
        >
        E 0 90 3f 60
        E 540 80 3f 00
        <X 420 0
          /wVkYXkj
        >
        E 0 90 3f 60
        E 540 80 3f 00
        <X 420 0
          /wV3ZSdsbCM=
        >
        E 0 90 3f 60
        E 1020 80 3f 00
        <X 420 0
          /wFbaWRsZV9pbnRlbnNlXQ==
        >
        E 0 80 69 00
        <X 3840 0
          /wFbcGxheV0=
        >
        <X 0 0
          /wFbdGFtYm91cmluZV9zdGFydF0=
        >
        E 0 90 60 60
        E 0 90 69 60
        E 120 80 60 00
        E 360 90 60 60
        E 120 80 60 00
        E 360 90 60 60
        E 120 80 60 00
        E 360 90 60 60
        E 120 80 60 00
        E 360 90 60 60
        E 120 80 60 00
        E 360 90 60 60
        E 120 80 60 00
        E 360 90 60 60
        E 120 80 60 00
        E 360 90 60 60
        E 120 80 60 00
        E 360 80 69 00
        E 0 90 60 60
        E 0 90 69 60
        E 120 80 60 00
        E 360 90 60 60
        E 120 80 60 00
        E 360 90 60 60
        E 120 80 60 00
        E 360 90 60 60
        E 120 80 60 00
        E 360 90 60 60
        E 120 80 60 00
        E 360 90 60 60
        E 120 80 60 00
        E 360 90 60 60
        E 120 80 60 00
        E 360 90 60 60
        E 120 80 60 00
        E 360 80 69 00
        E 0 90 60 60
        E 0 90 69 60
        E 120 80 60 00
        E 360 90 60 60
        E 120 80 60 00
        E 360 90 60 60
        E 120 80 60 00
        E 360 90 60 60
        E 120 80 60 00
        E 360 90 60 60
        E 120 80 60 00
        E 360 90 60 60
        E 120 80 60 00
        E 360 90 60 60
        E 120 80 60 00
        E 360 90 60 60
        E 120 80 60 00
        E 360 80 69 00
        E 0 90 60 60
        E 0 90 69 60
        E 120 80 60 00
        E 360 90 60 60
        E 120 80 60 00
        E 360 90 60 60
        E 120 80 60 00
        E 360 90 60 60
        E 120 80 60 00
        E 360 90 60 60
        E 120 80 60 00
        E 360 90 60 60
        E 120 80 60 00
        E 360 90 60 60
        E 120 80 60 00
        E 360 90 60 60
        E 120 80 60 00
        E 360 80 69 00
        E 0 90 60 60
        E 0 90 69 60
        E 120 80 60 00
        E 360 90 60 60
        E 120 80 60 00
        E 360 90 60 60
        E 120 80 60 00
        E 360 90 60 60
        E 120 80 60 00
        E 360 90 60 60
        E 120 80 60 00
        E 360 90 60 60
        E 120 80 60 00
        E 360 90 60 60
        E 120 80 60 00
        E 360 90 60 60
        E 120 80 60 00
        E 360 80 69 00
        E 0 90 60 60
        E 0 90 69 60
        E 120 80 60 00
        E 360 90 60 60
        E 120 80 60 00
        E 360 90 60 60
        E 120 80 60 00
        E 360 90 60 60
        E 120 80 60 00
        E 360 90 60 60
        E 120 80 60 00
        E 360 90 60 60
        E 120 80 60 00
        E 360 90 60 60
        E 120 80 60 00
        E 360 90 60 60
        E 120 80 60 00
        E 360 80 69 00
        E 0 90 60 60
        E 0 90 69 60
        E 120 80 60 00
        E 360 90 60 60
        E 120 80 60 00
        E 360 90 60 60
        E 120 80 60 00
        E 360 90 60 60
        E 120 80 60 00
        E 360 90 60 60
        E 120 80 60 00
        E 360 90 60 60
        E 120 80 60 00
        E 360 90 60 60
        E 120 80 60 00
        E 360 90 60 60
        E 120 80 60 00
        <X 360 0
          /wFbdGFtYm91cmluZV9lbmRd
        >
        <X 0 0
          /wFbaWRsZV0=
        >
        E 0 80 69 00
        <X 3840 0
          /wFbaW50ZW5zZV0=
        >
        E 0 90 69 60
        E 0 90 74 60
        <X 480 0
          /wVXZSdyZV4=
        >
        E 0 90 3f 60
        E 120 80 3f 00
        <X 360 0
          /wVsb29rLSM=
        >
        E 0 90 3f 60
        E 120 80 3f 00
        <X 120 0
          /wVpbmde
        >
        E 0 90 3f 60
        E 60 80 3f 00
        <X 180 0
          /wVmb3Ij
        >
        E 0 90 3f 60
        E 180 80 3f 00
        <X 300 0
          /wV3aXZlc14=
        >
        E 0 90 3f 60
        E 300 80 3f 00
        E 60 90 01 60
        E 30 80 01 00
        <X 90 0
          /wVzbyM=
        >
        E 0 90 3f 60
        E 150 80 3f 00
        <X 330 0
          /wV0aXJlZCM=
        >
        E 0 90 3f 60
        E 240 80 3f 00
        <X 240 0
          /wVvZl4=
        >
        E 0 90 3f 60
        E 90 80 3f 00
        <X 390 0
          /wVzbHV0cyM=
        >
        E 0 90 3f 60
        E 300 80 3f 00
        E 60 80 69 00
        E 0 80 74 00
        E 60 90 69 60
        <X 60 0
          /wVDb20tIw==
        >
        E 0 90 3f 60
        E 120 80 3f 00
        <X 120 0
          /wVpbmde
        >
        E 0 90 3f 60
        E 60 80 3f 00
        <X 180 0
          /wV0byM=
        >
        E 0 90 3f 60
        E 90 80 3f 00
        <X 150 0
          /wV1c14=
        >
        E 0 90 3f 60
        E 90 80 3f 00
        <X 150 0
          /wVpbl4=
        >
        E 0 90 3f 60
        E 90 80 3f 00
        <X 150 0
          /wV0aGUj
        >
        E 0 90 3f 60
        E 60 80 3f 00
        <X 180 0
          /wVjbHVicyM=
        >
        E 0 90 3f 60
        E 210 80 3f 00
        E 30 90 01 60
        E 30 80 01 00
        <X 210 0
          /wV3aXRoXg==
        >
        E 0 90 3f 60
        E 90 80 3f 00
        <X 150 0
          /wV0aGVpciM=
        >
        E 0 90 3f 60
        E 90 80 3f 00
        <X 150 0
          /wVjby0j
        >
        E 0 90 3f 60
        E 360 80 3f 00
        <X 120 0
          /wVjYWluZSM=
        >
        E 0 90 3f 60
        E 300 80 3f 00
        E 180 80 69 00
        E 0 90 69 60
        <X 480 0
          /wVXZSdyZV4=
        >
        E 0 90 3f 60
        E 120 80 3f 00
        <X 360 0
          /wVsb29rLSM=
        >
        E 0 90 3f 60
        E 120 80 3f 00
        <X 120 0
          /wVpbmde
        >
        E 0 90 3f 60
        E 60 80 3f 00
        <X 180 0
          /wVmb3Ij
        >
        E 0 90 3f 60
        E 180 80 3f 00
        <X 300 0
          /wV3aXZlc14=
        >
        E 0 90 3f 60
        E 300 80 3f 00
        E 60 90 01 60
        E 30 80 01 00
        <X 90 0
          /wVzbyM=
        >
        E 0 90 3f 60
        E 150 80 3f 00
        <X 330 0
          /wV0aXJlZCM=
        >
        E 0 90 3f 60
        E 240 80 3f 00
        <X 240 0
          /wVvZl4=
        >
        E 0 90 3f 60
        E 90 80 3f 00
        <X 390 0
          /wVzbHV0cyM=
        >
        E 0 90 3f 60
        E 300 80 3f 00
        E 90 80 69 00
        E 30 90 69 60
        <X 60 0
          /wVDb20tIw==
        >
        E 0 90 3f 60
        E 120 80 3f 00
        <X 120 0
          /wVpbmde
        >
        E 0 90 3f 60
        E 60 80 3f 00
        <X 180 0
          /wV0byM=
        >
        E 0 90 3f 60
        E 90 80 3f 00
        <X 150 0
          /wV1c14=
        >
        E 0 90 3f 60
        E 90 80 3f 00
        <X 150 0
          /wVpbl4=
        >
        E 0 90 3f 60
        E 90 80 3f 00
        <X 150 0
          /wV0aGUj
        >
        E 0 90 3f 60
        E 60 80 3f 00
        <X 180 0
          /wVjbHVicyM=
        >
        E 0 90 3f 60
        E 209 80 3f 00
        E 31 90 01 60
        E 30 80 01 00
        <X 209 0
          /wV3aXRoXg==
        >
        E 0 90 3f 60
        E 90 80 3f 00
        <X 150 0
          /wV0aGVpciM=
        >
        E 0 90 3f 60
        E 90 80 3f 00
        <X 150 0
          /wVjby0j
        >
        E 0 90 3f 60
        E 360 80 3f 00
        <X 120 0
          /wVjYWluZSM=
        >
        E 0 90 3f 60
        E 300 80 3f 00
        E 181 80 69 00
        E 0 90 69 60
        <X 480 0
          /wVJXg==
        >
        E 0 90 3f 60
        E 270 80 3f 00
        <X 210 0
          /wVrbm93Iw==
        >
        E 0 90 3f 60
        E 270 80 3f 00
        <X 210 0
          /wV5b3Uj
        >
        E 0 90 3f 60
        E 150 80 3f 00
        <X 330 0
          /wV0aGluayM=
        >
        E 0 90 3f 60
        E 180 80 3f 00
        <X 300 0
          /wV5b3Uj
        >
        E 0 90 3f 60
        E 180 80 3f 00
        <X 300 0
          /wVoYXZlIw==
        >
        E 0 90 3f 60
        E 180 80 3f 00
        <X 300 0
          /wVpdF4=
        >
        E 0 90 3f 60
        E 180 80 3f 00
        <X 300 0
          /wVhbGwj
        >
        E 0 90 3f 60
        E 150 80 3f 00
        E 90 80 69 00
        E 0 90 69 60
        <X 240 0
          /wVCdXQj
        >
        E 0 90 3f 60
        E 150 80 3f 00
        <X 330 0
          /wV5b3Ve
        >
        E 0 90 3f 60
        E 150 80 3f 00
        <X 330 0
          /wV3aWxsXg==
        >
        E 0 90 3f 60
        E 120 80 3f 00
        <X 360 0
          /wVuZS0j
        >
        E 0 90 3f 60
        E 180 80 3f 00
        <X 300 0
          /wV2ZXIj
        >
        E 0 90 3f 60
        E 150 80 3f 00
        <X 330 0
          /wVlLSM=
        >
        E 0 90 3f 60
        E 150 80 3f 00
        <X 330 0
          /wV2ZW4j
        >
        E 0 90 3f 60
        E 150 80 3f 00
        E 330 80 69 00
        E 0 90 69 60
        <X 480 0
          /wVXZSdyZV4=
        >
        E 0 90 3f 60
        E 120 80 3f 00
        <X 360 0
          /wVsb29rLSM=
        >
        E 0 90 3f 60
        E 120 80 3f 00
        <X 120 0
          /wVpbmde
        >
        E 0 90 3f 60
        E 60 80 3f 00
        <X 180 0
          /wVmb3Ij
        >
        E 0 90 3f 60
        E 180 80 3f 00
        <X 300 0
          /wV3aXZlc14=
        >
        E 0 90 3f 60
        E 300 80 3f 00
        <X 180 0
          /wVzbyM=
        >
        E 0 90 3f 60
        E 150 80 3f 00
        <X 330 0
          /wV0aXJlZCM=
        >
        E 0 90 3f 60
        E 240 80 3f 00
        <X 240 0
          /wVvZl4=
        >
        E 0 90 3f 60
        E 90 80 3f 00
        <X 390 0
          /wVzbHV0cyM=
        >
        E 0 90 3f 60
        E 300 80 3f 00
        E 90 80 69 00
        E 0 90 69 60
        <X 90 0
          /wVDb20tIw==
        >
        E 0 90 3f 60
        E 120 80 3f 00
        <X 120 0
          /wVpbmde
        >
        E 0 90 3f 60
        E 60 80 3f 00
        <X 180 0
          /wV0byM=
        >
        E 0 90 3f 60
        E 90 80 3f 00
        <X 150 0
          /wV1c14=
        >
        E 0 90 3f 60
        E 90 80 3f 00
        <X 150 0
          /wVpbl4=
        >
        E 0 90 3f 60
        E 90 80 3f 00
        <X 150 0
          /wV0aGUj
        >
        E 0 90 3f 60
        E 60 80 3f 00
        <X 180 0
          /wVjbHVicyM=
        >
        E 0 90 3f 60
        E 209 80 3f 00
        <X 270 0
          /wV3aXRoXg==
        >
        E 0 90 3f 60
        E 90 80 3f 00
        <X 150 0
          /wV0aGVpciM=
        >
        E 0 90 3f 60
        E 90 80 3f 00
        <X 150 0
          /wVjby0j
        >
        E 0 90 3f 60
        E 360 80 3f 00
        <X 121 0
          /wVjYWluZSM=
        >
        E 0 90 3f 60
        E 300 80 3f 00
        <X 180 0
          /wFbaWRsZV9yZWFsdGltZV0=
        >
        E 30 80 69 00
        E 3810 b0 7b 00
        GUID {48721D45-F20C-4FC2-BDA5-C640DC807280}
        IGNTEMPO 0 120.00000000 4 4
        SRCCOLOR 5
        VELLANE 132 71 60
        COLORMAP "C:\Program Files\REAPER\Data\color_maps\rockband_guitarbass.png"
        CFGEDITVIEW 169335.533241 55.728367 54 12 0 0 0
        CFGEDIT 1 1 0 1 1 0 1 1 1 1 1 0.25000000 -4 0 1025 558 0 0 1 2 0.00000000 0 1 0 0 0.500000 0 0 1.000000 64
        KEYSNAP 0 0 "102034050607" 0 "Major"
        EVTFILTER 0 -1 -1 -1 -1 0 1 0 0 -1.00000000 -1.00000000
      >
    >
  >
  <TRACK '{91376F6C-5CD2-4B83-817A-AF7BBEA114DC}'
    NAME "HARM1"
    PEAKCOL 16576
    BEAT -1
    AUTOMODE 0
    VOLPAN 1.00000000000000 0.00000000000000 -1.00000000000000 -1.00000000000000 1.00000000000000
    MUTESOLO 0 0 0
    IPHASE 0
    ISBUS 0 0
    BUSCOMP 0 0
    SHOWINMIX 1 0.666700 0.500000 1 0.500000 -1 -1 -1
    FREEMODE 0
    SEL 0
    REC 0 0 0 0 0 0 0
    VU 2
    TRACKHEIGHT 0 0
    INQ 0 0 0 0.5000000000 100 0 0 100
    NCHAN 2
    FX 1
    TRACKID {91376F6C-5CD2-4B83-817A-AF7BBEA114DC}
    PERF 0
    MIDIOUT -1
    MAINSEND 1 0
    <ITEM
      POSITION 0.00000000000000
      SNAPOFFS 0.00000000000000
      LENGTH 109.09842099999985
      LOOP 0
      ALLTAKES 0
      SEL 0
      FADEIN 1 0.000000 0.000000 1 0
      FADEOUT 1 0.000000 0.000000 1 0
      MUTE 0
      IGUID {4BE6579F-4B73-485A-9D2E-811042CD2B3A}
      IID 3
      NAME "HARM1"
      VOLPAN 1.000000 0.000000 1.000000 -1.000000
      SOFFS 0.00000000000000 0.00000000000000
      PLAYRATE 1.00000000000000 1 0.00000000000000 -1
      CHANMODE 0
      GUID {D564F47A-6485-4594-A2DC-3F9FC31FD900}
      <SOURCE MIDI
        HASDATA 1 480 QN
        POOLEDEVTS {2D8FDDEB-3C9B-4510-A238-7EB87C5699EC}
        <X 0 0
          /wNIQVJNMQ==
        >
        <X 7680 0
          /wFbaWRsZV0=
        >
        <X 30720 0
          /wFbaW50ZW5zZV0=
        >
        E 0 90 69 60
        <X 480 0
          /wVTbw==
        >
        E 0 90 43 60
        E 360 80 43 00
        <X 120 0
          /wUr
        >
        E 0 90 41 60
        E 240 80 41 00
        <X 240 0
          /wVtYS0=
        >
        E 0 90 43 60
        E 360 80 43 00
        <X 120 0
          /wUr
        >
        E 0 90 41 60
        E 240 80 41 00
        <X 240 0
          /wVueQ==
        >
        E 0 90 43 60
        E 360 80 43 00
        <X 120 0
          /wUr
        >
        E 0 90 41 60
        E 240 80 41 00
        <X 240 0
          /wVnaXJscw==
        >
        E 0 90 43 60
        E 360 80 43 00
        <X 120 0
          /wUr
        >
        E 0 90 41 60
        E 240 80 41 00
        <X 240 0
          /wVJ
        >
        E 0 90 41 60
        E 690 80 41 00
        <X 390 0
          /wVrbm93
        >
        E 0 90 41 60
        E 1140 80 41 00
        <X 180 0
          /wUr
        >
        E 0 90 3f 60
        E 600 80 3f 00
        E 360 80 69 00
        E 0 90 69 60
        E 0 90 74 60
        <X 480 0
          /wVQb2kt
        >
        E 0 90 3f 60
        E 360 80 3f 00
        <X 120 0
          /wUr
        >
        E 0 90 3c 60
        E 240 80 3c 00
        <X 240 0
          /wVzb24=
        >
        E 0 90 3f 60
        E 360 80 3f 00
        <X 120 0
          /wUr
        >
        E 0 90 3c 60
        E 180 80 3c 00
        <X 270 0
          /wV0aGVpcg==
        >
        E 0 90 3f 60
        E 360 80 3f 00
        <X 120 0
          /wUr
        >
        E 0 90 3c 60
        E 240 80 3c 00
        <X 240 0
          /wV3b21icw==
        >
        E 0 90 3f 60
        E 360 80 3f 00
        <X 150 0
          /wUr
        >
        E 0 90 3c 60
        E 240 80 3c 00
        <X 240 0
          /wVmb3I=
        >
        E 0 90 3f 60
        E 360 80 3f 00
        <X 120 0
          /wUr
        >
        E 0 90 3c 60
        E 120 80 3c 00
        <X 360 0
          /wVzdXJl
        >
        E 0 90 3f 60
        E 1290 80 3f 00
        <X 150 0
          /wUr
        >
        E 0 90 3c 60
        E 270 80 3c 00
        E 690 80 69 00
        E 0 80 74 00
        E 0 90 69 60
        <X 480 0
          /wVJJ20=
        >
        E 0 90 3c 60
        E 300 80 3c 00
        <X 180 0
          /wUr
        >
        E 0 90 3a 60
        E 120 80 3a 00
        <X 360 0
          /wVzaWNr
        >
        E 0 90 3c 60
        E 150 80 3c 00
        <X 810 0
          /wVvZl4=
        >
        E 0 90 3c 60
        E 180 80 3c 00
        <X 780 0
          /wVhbGxe
        >
        E 0 90 43 60
        E 780 80 43 00
        <X 180 0
          /wV0aGVzZSM=
        >
        E 0 90 41 60
        E 570 80 41 00
        <X 390 0
          /wVnaXJscyM=
        >
        E 0 90 41 60
        E 2310 80 41 00
        E 90 80 69 00
        E 480 90 69 60
        <X 90 0
          /wVQb2ktIw==
        >
        E 0 90 3f 60
        E 390 80 3f 00
        <X 480 0
          /wVzb24tIw==
        >
        E 0 90 3f 60
        E 180 80 3f 00
        <X 300 0
          /wVpbmcj
        >
        E 0 90 3f 60
        E 120 80 3f 00
        <X 360 0
          /wV0aGVpciM=
        >
        E 0 90 40 60
        E 510 80 40 00
        <X 90 0
          /wFbaWRsZV9pbnRlbnNlXQ==
        >
        E 840 80 69 00
        <X 3840 0
          /wFbaW50ZW5zZV0=
        >
        E 0 90 69 60
        <X 480 0
          /wVXZSdyZV4=
        >
        E 0 90 3f 60
        E 120 80 3f 00
        <X 360 0
          /wVsb29rLSM=
        >
        E 0 90 3f 60
        E 120 80 3f 00
        <X 120 0
          /wVpbmde
        >
        E 0 90 3f 60
        E 60 80 3f 00
        <X 180 0
          /wVmb3Ij
        >
        E 0 90 3f 60
        E 180 80 3f 00
        <X 300 0
          /wV3aXZlc14=
        >
        E 0 90 3f 60
        E 300 80 3f 00
        E 90 90 01 60
        E 30 80 01 00
        <X 60 0
          /wVzbyM=
        >
        E 0 90 3f 60
        E 150 80 3f 00
        <X 330 0
          /wV0aXJlZCM=
        >
        E 0 90 3f 60
        E 240 80 3f 00
        <X 240 0
          /wVvZl4=
        >
        E 0 90 3f 60
        E 90 80 3f 00
        <X 390 0
          /wVzbHV0cyM=
        >
        E 0 90 3f 60
        E 300 80 3f 00
        E 60 80 69 00
        E 30 90 69 60
        E 0 90 74 60
        <X 90 0
          /wVDb20tIw==
        >
        E 0 90 3f 60
        E 120 80 3f 00
        <X 120 0
          /wVpbmde
        >
        E 0 90 3f 60
        E 60 80 3f 00
        <X 180 0
          /wV0byM=
        >
        E 0 90 3f 60
        E 90 80 3f 00
        <X 150 0
          /wV1c14=
        >
        E 0 90 3f 60
        E 90 80 3f 00
        <X 150 0
          /wVpbl4=
        >
        E 0 90 3f 60
        E 90 80 3f 00
        <X 150 0
          /wV0aGUj
        >
        E 0 90 3f 60
        E 60 80 3f 00
        <X 180 0
          /wVjbHVicyM=
        >
        E 0 90 3f 60
        E 210 80 3f 00
        E 30 90 01 60
        E 30 80 01 00
        <X 210 0
          /wV3aXRoXg==
        >
        E 0 90 3f 60
        E 90 80 3f 00
        <X 150 0
          /wV0aGVpciM=
        >
        E 0 90 3f 60
        E 90 80 3f 00
        <X 150 0
          /wVjby0j
        >
        E 0 90 3f 60
        E 360 80 3f 00
        <X 120 0
          /wVjYWluZSM=
        >
        E 0 90 3f 60
        E 300 80 3f 00
        E 180 80 69 00
        E 0 80 74 00
        E 240 90 69 60
        <X 240 0
          /wVXZSdyZV4=
        >
        E 0 90 3f 60
        E 120 80 3f 00
        <X 360 0
          /wVsb29rLSM=
        >
        E 0 90 3f 60
        E 120 80 3f 00
        <X 120 0
          /wVpbmde
        >
        E 0 90 3f 60
        E 60 80 3f 00
        <X 180 0
          /wVmb3Ij
        >
        E 0 90 3f 60
        E 180 80 3f 00
        <X 300 0
          /wV3aXZlc14=
        >
        E 0 90 3f 60
        E 300 80 3f 00
        E 90 90 01 60
        E 30 80 01 00
        <X 60 0
          /wVzbyM=
        >
        E 0 90 3f 60
        E 150 80 3f 00
        <X 330 0
          /wV0aXJlZCM=
        >
        E 0 90 3f 60
        E 240 80 3f 00
        <X 240 0
          /wVvZl4=
        >
        E 0 90 3f 60
        E 90 80 3f 00
        <X 390 0
          /wVzbHV0cyM=
        >
        E 0 90 3f 60
        E 300 80 3f 00
        E 60 80 69 00
        E 0 90 69 60
        <X 120 0
          /wVDb20tIw==
        >
        E 0 90 3f 60
        E 120 80 3f 00
        <X 120 0
          /wVpbmde
        >
        E 0 90 3f 60
        E 60 80 3f 00
        <X 180 0
          /wV0byM=
        >
        E 0 90 3f 60
        E 90 80 3f 00
        <X 150 0
          /wV1c14=
        >
        E 0 90 3f 60
        E 90 80 3f 00
        <X 150 0
          /wVpbl4=
        >
        E 0 90 3f 60
        E 90 80 3f 00
        <X 150 0
          /wV0aGUj
        >
        E 0 90 3f 60
        E 60 80 3f 00
        <X 180 0
          /wVjbHVicyM=
        >
        E 0 90 3f 60
        E 209 80 3f 00
        E 31 90 01 60
        E 30 80 01 00
        <X 209 0
          /wV3aXRoXg==
        >
        E 0 90 3f 60
        E 90 80 3f 00
        <X 150 0
          /wV0aGVpciM=
        >
        E 0 90 3f 60
        E 90 80 3f 00
        <X 150 0
          /wVjby0j
        >
        E 0 90 3f 60
        E 360 80 3f 00
        <X 120 0
          /wVjYWluZSM=
        >
        E 0 90 3f 60
        E 300 80 3f 00
        E 181 80 69 00
        E 0 90 69 60
        <X 480 0
          /wVJXg==
        >
        E 0 90 3f 60
        E 270 80 3f 00
        <X 210 0
          /wVrbm93Iw==
        >
        E 0 90 3f 60
        E 270 80 3f 00
        <X 210 0
          /wV5b3Uj
        >
        E 0 90 3f 60
        E 150 80 3f 00
        <X 330 0
          /wV0aGluayM=
        >
        E 0 90 3f 60
        E 180 80 3f 00
        <X 300 0
          /wV5b3Uj
        >
        E 0 90 3f 60
        E 180 80 3f 00
        <X 300 0
          /wVoYXZlIw==
        >
        E 0 90 3f 60
        E 180 80 3f 00
        <X 300 0
          /wVpdF4=
        >
        E 0 90 3f 60
        E 180 80 3f 00
        <X 300 0
          /wVhbGwj
        >
        E 0 90 3f 60
        E 150 80 3f 00
        E 90 80 69 00
        E 0 90 69 60
        E 0 90 74 60
        <X 240 0
          /wVCdXQj
        >
        E 0 90 3f 60
        E 150 80 3f 00
        <X 330 0
          /wV5b3Ve
        >
        E 0 90 3f 60
        E 150 80 3f 00
        <X 330 0
          /wV3aWxsXg==
        >
        E 0 90 3f 60
        E 120 80 3f 00
        <X 360 0
          /wVuZS0j
        >
        E 0 90 3f 60
        E 180 80 3f 00
        <X 300 0
          /wV2ZXIj
        >
        E 0 90 3f 60
        E 150 80 3f 00
        <X 330 0
          /wVlLSM=
        >
        E 0 90 3f 60
        E 150 80 3f 00
        <X 330 0
          /wV2ZW4j
        >
        E 0 90 3f 60
        E 150 80 3f 00
        E 330 80 69 00
        E 0 80 74 00
        E 0 90 69 60
        <X 480 0
          /wVXZSdyZV4=
        >
        E 0 90 3f 60
        E 120 80 3f 00
        <X 360 0
          /wVsb29rLSM=
        >
        E 0 90 3f 60
        E 120 80 3f 00
        <X 120 0
          /wVpbmde
        >
        E 0 90 3f 60
        E 60 80 3f 00
        <X 180 0
          /wVmb3Ij
        >
        E 0 90 3f 60
        E 180 80 3f 00
        <X 300 0
          /wV3aXZlc14=
        >
        E 0 90 3f 60
        E 300 80 3f 00
        E 60 90 01 60
        E 30 80 01 00
        <X 90 0
          /wVzbyM=
        >
        E 0 90 3f 60
        E 150 80 3f 00
        <X 330 0
          /wV0aXJlZCM=
        >
        E 0 90 3f 60
        E 240 80 3f 00
        <X 240 0
          /wVvZl4=
        >
        E 0 90 3f 60
        E 90 80 3f 00
        <X 390 0
          /wVzbHV0cyM=
        >
        E 0 90 3f 60
        E 300 80 3f 00
        E 60 80 69 00
        E 0 90 69 60
        <X 120 0
          /wVDb20tIw==
        >
        E 0 90 3f 60
        E 120 80 3f 00
        <X 120 0
          /wVpbmde
        >
        E 0 90 3f 60
        E 60 80 3f 00
        <X 180 0
          /wV0byM=
        >
        E 0 90 3f 60
        E 90 80 3f 00
        <X 150 0
          /wV1c14=
        >
        E 0 90 3f 60
        E 90 80 3f 00
        <X 150 0
          /wVpbl4=
        >
        E 0 90 3f 60
        E 90 80 3f 00
        <X 150 0
          /wV0aGUj
        >
        E 0 90 3f 60
        E 60 80 3f 00
        <X 180 0
          /wVjbHVicyM=
        >
        E 0 90 3f 60
        E 209 80 3f 00
        E 31 90 01 60
        E 30 80 01 00
        <X 209 0
          /wV3aXRoXg==
        >
        E 0 90 3f 60
        E 90 80 3f 00
        <X 150 0
          /wV0aGVpciM=
        >
        E 0 90 3f 60
        E 90 80 3f 00
        <X 150 0
          /wVjby0j
        >
        E 0 90 3f 60
        E 360 80 3f 00
        <X 121 0
          /wVjYWluZSM=
        >
        E 0 90 3f 60
        E 300 80 3f 00
        E 180 80 69 00
        E 0 90 69 60
        <X 480 0
          /wVZb3U=
        >
        E 0 90 3f 60
        E 360 80 3f 00
        <X 120 0
          /wUr
        >
        E 0 90 3c 60
        E 240 80 3c 00
        <X 240 0
          /wV3aWxs
        >
        E 0 90 3f 60
        E 360 80 3f 00
        <X 120 0
          /wUr
        >
        E 0 90 3c 60
        E 150 80 3c 00
        <X 330 0
          /wVuZS0=
        >
        E 0 90 3f 60
        E 360 80 3f 00
        <X 120 0
          /wUr
        >
        E 0 90 3c 60
        E 240 80 3c 00
        <X 240 0
          /wV2ZXI=
        >
        E 0 90 3f 60
        E 360 80 3f 00
        <X 120 0
          /wUr
        >
        E 0 90 3c 60
        E 180 80 3c 00
        <X 300 0
          /wVlLQ==
        >
        E 0 90 3f 60
        E 360 80 3f 00
        <X 120 0
          /wUr
        >
        E 0 90 3c 60
        E 240 80 3c 00
        <X 240 0
          /wV2ZW4=
        >
        E 0 90 3f 60
        E 360 80 3f 00
        <X 120 0
          /wUr
        >
        E 0 90 3c 60
        E 240 80 3c 00
        <X 240 0
          /wVrbm93Iw==
        >
        E 0 90 3f 60
        E 1410 80 3f 00
        E 30 80 69 00
        E 0 90 69 60
        <X 480 0
          /wVZb3Ve
        >
        E 0 90 3f 60
        E 390 80 3f 00
        <X 570 0
          /wV0aGluayM=
        >
        E 0 90 3f 60
        E 330 80 3f 00
        <X 630 0
          /wV5b3Ve
        >
        E 0 90 3f 60
        E 330 80 3f 00
        <X 630 0
          /wVoYXZlIw==
        >
        E 0 90 3f 60
        E 450 80 3f 00
        <X 510 0
          /wVjb24tIw==
        >
        E 0 90 3c 60
        E 480 80 3c 00
        <X 480 0
          /wV0cm9sIw==
        >
        E 0 90 3c 60
        E 1350 80 3c 00
        E 90 80 69 00
        E 960 90 69 60
        E 0 90 74 60
        <X 480 0
          /wVPbmVe
        >
        E 0 90 3a 60
        E 600 80 3a 00
        <X 360 0
          /wVkYXkj
        >
        E 0 90 3a 60
        E 540 80 3a 00
        <X 420 0
          /wV3ZSdsbCM=
        >
        E 0 90 3a 60
        E 360 80 3a 00
        <X 600 0
          /wVsb3NlIw==
        >
        E 0 90 41 60
        E 540 80 41 00
        <X 420 0
          /wV5b3Ve
        >
        E 0 90 41 60
        E 270 80 41 00
        <X 690 0
          /wVhbGxe
        >
        E 0 90 41 60
        E 2460 80 41 00
        E 180 80 69 00
        E 0 80 74 00
        E 0 90 69 60
        <X 240 0
          /wVPbmVe
        >
        E 0 90 3f 60
        E 540 80 3f 00
        <X 420 0
          /wVkYXkj
        >
        E 0 90 3f 60
        E 540 80 3f 00
        <X 420 0
          /wV3ZSdsbCM=
        >
        E 0 90 3f 60
        E 1020 80 3f 00
        <X 420 0
          /wFbaWRsZV9pbnRlbnNlXQ==
        >
        E 0 80 69 00
        <X 34560 0
          /wFbaW50ZW5zZV0=
        >
        E 0 90 69 60
        E 0 90 74 60
        <X 480 0
          /wVXZSdyZV4=
        >
        E 0 90 3f 60
        E 120 80 3f 00
        <X 360 0
          /wVsb29rLSM=
        >
        E 0 90 3f 60
        E 120 80 3f 00
        <X 120 0
          /wVpbmde
        >
        E 0 90 3f 60
        E 60 80 3f 00
        <X 180 0
          /wVmb3Ij
        >
        E 0 90 3f 60
        E 180 80 3f 00
        <X 300 0
          /wV3aXZlc14=
        >
        E 0 90 3f 60
        E 300 80 3f 00
        E 60 90 01 60
        E 30 80 01 00
        <X 90 0
          /wVzbyM=
        >
        E 0 90 3f 60
        E 150 80 3f 00
        <X 330 0
          /wV0aXJlZCM=
        >
        E 0 90 3f 60
        E 240 80 3f 00
        <X 240 0
          /wVvZl4=
        >
        E 0 90 3f 60
        E 90 80 3f 00
        <X 390 0
          /wVzbHV0cyM=
        >
        E 0 90 3f 60
        E 300 80 3f 00
        E 60 80 69 00
        E 0 80 74 00
        E 60 90 69 60
        <X 60 0
          /wVDb20tIw==
        >
        E 0 90 3f 60
        E 120 80 3f 00
        <X 120 0
          /wVpbmde
        >
        E 0 90 3f 60
        E 60 80 3f 00
        <X 180 0
          /wV0byM=
        >
        E 0 90 3f 60
        E 90 80 3f 00
        <X 150 0
          /wV1c14=
        >
        E 0 90 3f 60
        E 90 80 3f 00
        <X 150 0
          /wVpbl4=
        >
        E 0 90 3f 60
        E 90 80 3f 00
        <X 150 0
          /wV0aGUj
        >
        E 0 90 3f 60
        E 60 80 3f 00
        <X 180 0
          /wVjbHVicyM=
        >
        E 0 90 3f 60
        E 210 80 3f 00
        E 30 90 01 60
        E 30 80 01 00
        <X 210 0
          /wV3aXRoXg==
        >
        E 0 90 3f 60
        E 90 80 3f 00
        <X 150 0
          /wV0aGVpciM=
        >
        E 0 90 3f 60
        E 90 80 3f 00
        <X 150 0
          /wVjby0j
        >
        E 0 90 3f 60
        E 360 80 3f 00
        <X 120 0
          /wVjYWluZSM=
        >
        E 0 90 3f 60
        E 300 80 3f 00
        E 180 80 69 00
        E 0 90 69 60
        <X 480 0
          /wVXZSdyZV4=
        >
        E 0 90 3f 60
        E 120 80 3f 00
        <X 360 0
          /wVsb29rLSM=
        >
        E 0 90 3f 60
        E 120 80 3f 00
        <X 120 0
          /wVpbmde
        >
        E 0 90 3f 60
        E 60 80 3f 00
        <X 180 0
          /wVmb3Ij
        >
        E 0 90 3f 60
        E 180 80 3f 00
        <X 300 0
          /wV3aXZlc14=
        >
        E 0 90 3f 60
        E 300 80 3f 00
        E 60 90 01 60
        E 30 80 01 00
        <X 90 0
          /wVzbyM=
        >
        E 0 90 3f 60
        E 150 80 3f 00
        <X 330 0
          /wV0aXJlZCM=
        >
        E 0 90 3f 60
        E 240 80 3f 00
        <X 240 0
          /wVvZl4=
        >
        E 0 90 3f 60
        E 90 80 3f 00
        <X 390 0
          /wVzbHV0cyM=
        >
        E 0 90 3f 60
        E 300 80 3f 00
        E 90 80 69 00
        E 30 90 69 60
        <X 60 0
          /wVDb20tIw==
        >
        E 0 90 3f 60
        E 120 80 3f 00
        <X 120 0
          /wVpbmde
        >
        E 0 90 3f 60
        E 60 80 3f 00
        <X 180 0
          /wV0byM=
        >
        E 0 90 3f 60
        E 90 80 3f 00
        <X 150 0
          /wV1c14=
        >
        E 0 90 3f 60
        E 90 80 3f 00
        <X 150 0
          /wVpbl4=
        >
        E 0 90 3f 60
        E 90 80 3f 00
        <X 150 0
          /wV0aGUj
        >
        E 0 90 3f 60
        E 60 80 3f 00
        <X 180 0
          /wVjbHVicyM=
        >
        E 0 90 3f 60
        E 209 80 3f 00
        E 31 90 01 60
        E 30 80 01 00
        <X 209 0
          /wV3aXRoXg==
        >
        E 0 90 3f 60
        E 90 80 3f 00
        <X 150 0
          /wV0aGVpciM=
        >
        E 0 90 3f 60
        E 90 80 3f 00
        <X 150 0
          /wVjby0j
        >
        E 0 90 3f 60
        E 360 80 3f 00
        <X 120 0
          /wVjYWluZSM=
        >
        E 0 90 3f 60
        E 300 80 3f 00
        E 181 80 69 00
        E 0 90 69 60
        <X 480 0
          /wVJXg==
        >
        E 0 90 3f 60
        E 270 80 3f 00
        <X 210 0
          /wVrbm93Iw==
        >
        E 0 90 3f 60
        E 270 80 3f 00
        <X 210 0
          /wV5b3Uj
        >
        E 0 90 3f 60
        E 150 80 3f 00
        <X 330 0
          /wV0aGluayM=
        >
        E 0 90 3f 60
        E 180 80 3f 00
        <X 300 0
          /wV5b3Uj
        >
        E 0 90 3f 60
        E 180 80 3f 00
        <X 300 0
          /wVoYXZlIw==
        >
        E 0 90 3f 60
        E 180 80 3f 00
        <X 300 0
          /wVpdF4=
        >
        E 0 90 3f 60
        E 180 80 3f 00
        <X 300 0
          /wVhbGwj
        >
        E 0 90 3f 60
        E 150 80 3f 00
        E 90 80 69 00
        E 0 90 69 60
        <X 240 0
          /wVCdXQj
        >
        E 0 90 3f 60
        E 150 80 3f 00
        <X 330 0
          /wV5b3Ve
        >
        E 0 90 3f 60
        E 150 80 3f 00
        <X 330 0
          /wV3aWxsXg==
        >
        E 0 90 3f 60
        E 120 80 3f 00
        <X 360 0
          /wVuZS0j
        >
        E 0 90 3f 60
        E 180 80 3f 00
        <X 300 0
          /wV2ZXIj
        >
        E 0 90 3f 60
        E 150 80 3f 00
        <X 330 0
          /wVlLSM=
        >
        E 0 90 3f 60
        E 150 80 3f 00
        <X 330 0
          /wV2ZW4j
        >
        E 0 90 3f 60
        E 150 80 3f 00
        E 330 80 69 00
        E 0 90 69 60
        <X 480 0
          /wVXZSdyZV4=
        >
        E 0 90 3f 60
        E 120 80 3f 00
        <X 360 0
          /wVsb29rLSM=
        >
        E 0 90 3f 60
        E 120 80 3f 00
        <X 120 0
          /wVpbmde
        >
        E 0 90 3f 60
        E 60 80 3f 00
        <X 180 0
          /wVmb3Ij
        >
        E 0 90 3f 60
        E 180 80 3f 00
        <X 300 0
          /wV3aXZlc14=
        >
        E 0 90 3f 60
        E 300 80 3f 00
        <X 180 0
          /wVzbyM=
        >
        E 0 90 3f 60
        E 150 80 3f 00
        <X 330 0
          /wV0aXJlZCM=
        >
        E 0 90 3f 60
        E 240 80 3f 00
        <X 240 0
          /wVvZl4=
        >
        E 0 90 3f 60
        E 90 80 3f 00
        <X 390 0
          /wVzbHV0cyM=
        >
        E 0 90 3f 60
        E 300 80 3f 00
        E 90 80 69 00
        E 0 90 69 60
        <X 90 0
          /wVDb20tIw==
        >
        E 0 90 3f 60
        E 120 80 3f 00
        <X 120 0
          /wVpbmde
        >
        E 0 90 3f 60
        E 60 80 3f 00
        <X 180 0
          /wV0byM=
        >
        E 0 90 3f 60
        E 90 80 3f 00
        <X 150 0
          /wV1c14=
        >
        E 0 90 3f 60
        E 90 80 3f 00
        <X 150 0
          /wVpbl4=
        >
        E 0 90 3f 60
        E 90 80 3f 00
        <X 150 0
          /wV0aGUj
        >
        E 0 90 3f 60
        E 60 80 3f 00
        <X 180 0
          /wVjbHVicyM=
        >
        E 0 90 3f 60
        E 209 80 3f 00
        <X 270 0
          /wV3aXRoXg==
        >
        E 0 90 3f 60
        E 90 80 3f 00
        <X 150 0
          /wV0aGVpciM=
        >
        E 0 90 3f 60
        E 90 80 3f 00
        <X 150 0
          /wVjby0j
        >
        E 0 90 3f 60
        E 360 80 3f 00
        <X 121 0
          /wVjYWluZSM=
        >
        E 0 90 3f 60
        E 300 80 3f 00
        <X 180 0
          /wFbaWRsZV9yZWFsdGltZV0=
        >
        E 30 80 69 00
        E 3810 b0 7b 00
        GUID {48721D45-F20C-4FC2-BDA5-C640DC807280}
        IGNTEMPO 0 120.00000000 4 4
        SRCCOLOR 5
        VELLANE 132 71 60
        COLORMAP "C:\Program Files\REAPER\Data\color_maps\rockband_guitarbass.png"
        CFGEDITVIEW 114245.603507 140.420507 45 12 0 0 0
        CFGEDIT 1 1 0 1 1 0 1 1 1 1 1 0.25000000 -4 0 1025 558 0 0 1 2 0.00000000 0 1 0 0 0.500000 0 0 1.000000 64
        KEYSNAP 0 0 "102034050607" 0 "Major"
        EVTFILTER 0 -1 -1 -1 -1 0 1 0 0 -1.00000000 -1.00000000
      >
    >
  >
  <TRACK '{AF872272-981B-41E6-A0CF-F802F39E6E5A}'
    NAME "HARM2"
    PEAKCOL 16576
    BEAT -1
    AUTOMODE 0
    VOLPAN 1.00000000000000 0.00000000000000 -1.00000000000000 -1.00000000000000 1.00000000000000
    MUTESOLO 0 0 0
    IPHASE 0
    ISBUS 0 0
    BUSCOMP 0 0
    SHOWINMIX 1 0.666700 0.500000 1 0.500000 -1 -1 -1
    FREEMODE 0
    SEL 0
    REC 0 0 0 0 0 0 0
    VU 2
    TRACKHEIGHT 0 0
    INQ 0 0 0 0.5000000000 100 0 0 100
    NCHAN 2
    FX 0
    TRACKID {AF872272-981B-41E6-A0CF-F802F39E6E5A}
    PERF 0
    MIDIOUT -1
    MAINSEND 1 0
    <FXCHAIN
      WNDRECT 0 38 647 451
      SHOW 0
      LASTSEL 1
      DOCKED 0
      BYPASS 0 0
      <JS "MIDI/midi_note_filter" ""
        36.000000 84.000000 - - - - - - - - - - - - - - - - - - - - - - - - - - - - - - - - - - - - - - - - - - - - - - - - - - - - - - - - - - - - - - 
      >
      FLOATPOS 0 0 0 0
      FXID {5769B8BE-0BD3-4749-A505-38489590EC0D}
      WAK 0
      BYPASS 0 0
      <VST "VSTi: ReaSynth (Cockos)" "reasynth.dll" 0 ""
        eXNlcu9e7f4AAAAAAgAAAAEAAAAAAAAAAgAAAAAAAAA4AAAAAAAAAA==
        AAAQAO++rd4N8K3eppvEOxe30ToAAIA/AAAAAAAAAACcZoM96WeIPQ==
        AAAAAAAAAD8AAIA/AACAPwAAAD8AABAAAAA=
      >
      FLOATPOS 0 0 0 0
      FXID {BFC25217-EDF4-43EA-A4B9-3CF336AC6F1A}
      WAK 0
    >
    <ITEM
      POSITION 0.00000000000000
      SNAPOFFS 0.00000000000000
      LENGTH 109.09842099999985
      LOOP 0
      ALLTAKES 0
      SEL 0
      FADEIN 1 0.000000 0.000000 1 0
      FADEOUT 1 0.000000 0.000000 1 0
      MUTE 0
      IGUID {AB0182A8-FBAF-4649-A1DB-59FDEE7B3FB1}
      IID 5
      NAME "HARM2"
      VOLPAN 1.000000 0.000000 1.000000 -1.000000
      SOFFS 0.00000000000000 0.00000000000000
      PLAYRATE 1.00000000000000 1 0.00000000000000 -1
      CHANMODE 0
      GUID {93772C81-1200-4ED7-B9E9-A6189DF1A480}
      <SOURCE MIDI
        HASDATA 1 480 QN
        POOLEDEVTS {44C016CB-5CF3-4CCB-9D08-A51A923EECBC}
        <X 0 0
          /wNIQVJNMg==
        >
        E 58560 90 69 60
        <X 480 0
          /wVHaXJscyM=
        >
        E 0 90 45 60
        E 2310 80 45 00
        E 570 80 69 00
        E 58080 90 69 60
        <X 480 0
          /wVBbGxe
        >
        E 0 90 45 60
        E 2460 80 45 00
        E 180 80 69 00
        E 72720 b0 7b 00
        GUID {56896BC6-74F0-4659-B82F-038DBDC0C39C}
        IGNTEMPO 0 120.00000000 4 4
        SRCCOLOR 7
        VELLANE 132 71 60
        COLORMAP "C:\Program Files\REAPER\Data\color_maps\rockband_guitarbass.png"
        CFGEDITVIEW -9792.000000 7.166173 45 12 0 0 0
        CFGEDIT 1 1 0 1 1 0 1 1 1 1 1 0.25000000 -4 0 1025 558 0 0 1 2 0.00000000 0 1 0 0 0.500000 0 0 1.000000 64
        KEYSNAP 0 0 "102034050607" 0 "Major"
        EVTFILTER 0 -1 -1 -1 -1 0 1 0 0 -1.00000000 -1.00000000
      >
    >
  >
  <TRACK '{07411415-5B3C-4226-9F8A-58720A56DF78}'
    NAME "PART REAL_BASS"
    PEAKCOL 16576
    BEAT -1
    AUTOMODE 0
    VOLPAN 1.00000000000000 0.00000000000000 -1.00000000000000 -1.00000000000000 1.00000000000000
    MUTESOLO 0 0 0
    IPHASE 0
    ISBUS 0 0
    BUSCOMP 0 0
    SHOWINMIX 1 0.666700 0.500000 1 0.500000 -1 -1 -1
    FREEMODE 0
    SEL 0
    REC 0 0 0 0 0 0 0
    VU 2
    TRACKHEIGHT 0 0
    INQ 0 0 0 0.5000000000 100 0 0 100
    NCHAN 2
    FX 0
    TRACKID {07411415-5B3C-4226-9F8A-58720A56DF78}
    PERF 0
    MIDIOUT -1
    <MIDINOTENAMES
      0 127 "Trill Marker"
      0 126 "Tremolo Marker"
      0 125 "BRE"
      0 124 "BRE"
      0 123 "BRE"
      0 122 "BRE"
      0 121 "BRE"
      0 120 "BRE (use all 6)"
      0 119 "-----------"
      0 116 "OVERDRIVE"
      0 115 "Solo Marker"
      0 109 "-----------"
      0 108 "Left Hand Position"
      0 107 "Force Chord Numbering"
      0 106 "Loose Strumming"
      0 105 "Strum Direction"
      0 104 "Arpeggio Marker"
      0 103 "Slide Marker"
      0 102 "Force HOPO"
      0 101 "EXPERT e String"
      0 100 "EXPERT B String"
      0 99 "EXPERT G String"
      0 98 "EXPERT D String"
      0 97 "EXPERT A String"
      0 96 "EXPERT E String"
      0 21 "-----------"
      0 18 "Flat/Sharp Swap"
      0 17 "Hide Chord Names"
      0 16 "Slash Chord"
      0 15 "D#"
      0 14 "D"
      0 13 "C#"
      0 12 "C"
      0 11 "B"
      0 10 "A#"
      0 9 "A"
      0 8 "G#"
      0 7 "G"
      0 6 "F#"
      0 5 "F"
      0 4 "E"
      0 95 "-----------"
      0 82 "Loose Strumming"
      0 81 "Strum Direction"
      0 80 "Arpeggio Marker"
      0 79 "Slide Marker"
      0 78 "Force HOPO"
      0 77 "HARD e String"
      0 76 "HARD B String"
      0 75 "HARD G String"
      0 74 "HARD D String"
      0 73 "HARD A String"
      0 72 "HARD E String"
      0 71 "-----------"
      0 58 "Loose Strumming"
      0 56 "Arpeggio Marker"
      0 55 "Slide Marker"
      0 53 "MEDIUM e String"
      0 52 "MEDIUM B String"
      0 51 "MEDIUM G String"
      0 50 "MEDIUM D String"
      0 49 "MEDIUM A String"
      0 48 "MEDIUM E String"
      0 47 "-----------"
      0 32 "Arpeggio Marker"
      0 31 "Slide Marker"
      0 29 "EASY e String"
      0 28 "EASY B String"
      0 27 "EASY G String"
      0 26 "EASY D String"
      0 25 "EASY A String"
      0 24 "EASY E String"
      3 127 "Trill Marker"
      3 126 "Tremolo Marker"
      3 125 "BRE"
      3 124 "BRE"
      3 123 "BRE"
      3 122 "BRE"
      3 121 "BRE"
      3 120 "BRE (use all 6)"
      3 119 "-----------"
      3 116 "OVERDRIVE"
      3 115 "Solo Marker"
      3 109 "-----------"
      3 108 "Fret Hand Position"
      3 107 "Force Chord Numbering"
      3 106 "Loose Strumming"
      3 105 "Strum Direction"
      3 104 "Arpeggio Marker"
      3 103 "Slide Marker"
      3 102 "Force HOPO"
      3 101 "EXPERT e String"
      3 100 "EXPERT B String"
      3 99 "EXPERT G String"
      3 98 "EXPERT D String"
      3 97 "EXPERT A String"
      3 96 "EXPERT E String"
      3 95 "-----------"
      3 82 "Loose Strumming"
      3 81 "Strum Direction"
      3 80 "Arpeggio Marker"
      3 79 "Slide Marker"
      3 78 "Force HOPO"
      3 77 "HARD e String"
      3 76 "HARD B String"
      3 75 "HARD G String"
      3 74 "HARD D String"
      3 73 "HARD A String"
      3 72 "HARD E String"
      3 71 "-----------"
      3 58 "Loose Strumming"
      3 56 "Arpeggio Marker"
      3 55 "Slide Marker"
      3 53 "MEDIUM e String"
      3 52 "MEDIUM B String"
      3 51 "MEDIUM G String"
      3 50 "MEDIUM D String"
      3 49 "MEDIUM A String"
      3 48 "MEDIUM E String"
      3 47 "-----------"
      3 32 "Arpeggio Marker"
      3 31 "Slide Marker"
      3 29 "EASY e String"
      3 28 "EASY B String"
      3 27 "EASY G String"
      3 26 "EASY D String"
      3 25 "EASY A String"
      3 24 "EASY E String"
      3 21 "-----------"
      3 18 "Flat/Sharp Swap"
      3 17 "Hide Chord Names"
      3 16 "Slash Chord"
      3 15 "D#"
      3 14 "D"
      3 13 "C#"
      3 12 "C"
      3 11 "B"
      3 10 "A#"
      3 9 "A"
      3 8 "G#"
      3 7 "G"
      3 6 "F#"
      3 5 "F"
      3 4 "E"
    >
    MAINSEND 1 0
    <FXCHAIN
      WNDRECT 0 38 708 451
      SHOW 0
      LASTSEL 2
      DOCKED 0
      BYPASS 0 0
      <JS "c3/progtr" ""
        0.000000 3.000000 0.000000 0.000000 0.000000 0.000000 0.000000 -2.000000 0.000000 1.000000 - - - - - - - - - - - - - - - - - - - - - - - - - - - - - - - - - - - - - - - - - - - - - - - - - - - - - - 
      >
      FLOATPOS 0 0 0 0
      FXID {631C50C1-B98A-48AB-BF51-D32F51300FDB}
      WAK 0
      BYPASS 0 0
      <JS "MIDI/midi_transpose" ""
        -2.000000 1.000000 0.000000 127.000000 - - - - - - - - - - - - - - - - - - - - - - - - - - - - - - - - - - - - - - - - - - - - - - - - - - - - - - - - - - - - 
      >
      FLOATPOS 0 0 0 0
      FXID {F63A3838-9218-420C-8A86-EE7AC8BFDE15}
      WAK 0
      BYPASS 0 0
      <VST "VSTi: ReaSynth (Cockos)" "reasynth.dll" 0 ""
        eXNlcu9e7f4AAAAAAgAAAAEAAAAAAAAAAgAAAAAAAAA4AAAAAAAAAA==
        AAAQAO++rd4N8K3eppvEO3V0Kj0AAAAAKVwPPyPbeT+cYDM/4jAEPA==
        AAAAAAAAAD+01hM+j8L1PQAAAD8AABAAAAA=
      >
      FLOATPOS 0 0 0 0
      FXID {07D77584-3069-4453-B654-613A30CC3E9B}
      WAK 0
    >
    <ITEM
      POSITION 0.00000000000000
      SNAPOFFS 0.00000000000000
      LENGTH 109.09842099999999
      LOOP 0
      ALLTAKES 0
      SEL 0
      FADEIN 1 0.000000 0.000000 1 0
      FADEOUT 1 0.000000 0.000000 1 0
      MUTE 0
      IGUID {71B0D2D2-11F1-41B1-9088-E55CAB4B1192}
      IID 10
      NAME "PART REAL_BASS"
      VOLPAN 1.000000 0.000000 1.000000 -1.000000
      SOFFS 0.00000000000000 0.00000000000000
      PLAYRATE 1.00000000000000 1 0.00000000000000 -1
      CHANMODE 0
      GUID {2B1C3E68-394D-4F57-8759-C42588B672B6}
      <SOURCE MIDI
        HASDATA 1 480 QN
        POOLEDEVTS {BED3CE15-2A86-4088-97C4-DC6CCA9279A3}
        <X 0 0
          /wNQQVJUIFJFQUxfQkFTUw==
        >
        <X 7680 0
          /wFbYmVnaW5fcGIgc29uZ190cmFpbmVyX3BiXzFd
        >
        E 0 90 19 69
        E 0 90 31 69
        E 0 90 49 69
        E 0 90 61 69
        E 0 90 6c 69
        E 120 80 19 00
        E 0 80 31 00
        E 0 80 49 00
        E 0 80 61 00
        E 0 80 6c 00
        E 120 90 61 69
        E 120 80 61 00
        E 120 90 31 69
        E 0 90 49 69
        E 0 90 61 69
        E 120 80 31 00
        E 0 80 49 00
        E 0 80 61 00
        E 120 90 61 69
        E 120 80 61 00
        E 120 90 31 69
        E 0 90 49 69
        E 0 90 61 69
        E 120 80 31 00
        E 0 80 49 00
        E 0 80 61 00
        E 360 90 4a 6b
        E 0 90 62 6b
        E 120 80 4a 00
        E 0 80 62 00
        E 360 90 1b 69
        E 0 90 33 69
        E 0 90 4b 69
        E 0 90 63 69
        E 120 80 1b 00
        E 0 80 33 00
        E 0 80 4b 00
        E 0 80 63 00
        E 120 90 63 69
        E 120 80 63 00
        E 120 90 33 69
        E 0 90 4b 69
        E 0 90 63 69
        E 120 80 33 00
        E 0 80 4b 00
        E 0 80 63 00
        E 120 90 63 69
        E 120 80 63 00
        E 120 90 33 69
        E 0 90 4b 69
        E 0 90 63 69
        E 120 80 33 00
        E 0 80 4b 00
        E 0 80 63 00
        E 360 90 4a 6b
        E 0 90 62 6b
        E 120 80 4a 00
        E 0 80 62 00
        <X 360 0
          /wFbcGJfbm9ybSBzb25nX3RyYWluZXJfcGJfMV0=
        >
        E 0 90 1a 6c
        E 0 90 32 6c
        E 0 90 4a 6c
        E 0 90 62 6c
        E 120 80 1a 00
        E 0 80 32 00
        E 0 80 4a 00
        E 0 80 62 00
        E 120 90 62 6c
        E 120 80 62 00
        E 120 90 32 6c
        E 0 90 4a 6c
        E 0 90 62 6c
        E 120 80 32 00
        E 0 80 4a 00
        E 0 80 62 00
        E 120 90 62 6c
        E 120 80 62 00
        E 120 90 32 6c
        E 0 90 4a 6c
        E 0 90 62 6c
        E 120 80 32 00
        E 0 80 4a 00
        E 0 80 62 00
        E 360 90 49 6c
        E 0 90 61 6c
        E 120 80 49 00
        E 0 80 61 00
        E 360 90 1a 69
        E 0 90 32 69
        E 0 90 4a 69
        E 0 90 62 69
        E 120 80 1a 00
        E 0 80 32 00
        E 0 80 4a 00
        E 0 80 62 00
        E 120 90 62 69
        E 120 80 62 00
        E 120 90 32 69
        E 0 90 4a 69
        E 0 90 62 69
        E 120 80 32 00
        E 0 80 4a 00
        E 0 80 62 00
        E 120 90 62 69
        E 120 80 62 00
        E 120 90 32 69
        E 0 90 4a 69
        E 0 90 62 69
        E 120 80 32 00
        E 0 80 4a 00
        E 0 80 62 00
        E 120 90 60 6c
        E 0 90 6c 6c
        E 120 80 60 00
        E 0 80 6c 00
        E 120 90 48 6e
        E 0 90 60 6e
        E 120 80 48 00
        E 0 80 60 00
        E 360 90 19 69
        E 0 90 31 69
        E 0 90 49 69
        E 0 90 61 69
        E 0 90 6c 69
        E 120 80 19 00
        E 0 80 31 00
        E 0 80 49 00
        E 0 80 61 00
        E 0 80 6c 00
        E 120 90 61 69
        E 120 80 61 00
        E 120 90 31 69
        E 0 90 49 69
        E 0 90 61 69
        E 120 80 31 00
        E 0 80 49 00
        E 0 80 61 00
        E 120 90 61 69
        E 120 80 61 00
        E 120 90 31 69
        E 0 90 49 69
        E 0 90 61 69
        E 120 80 31 00
        E 0 80 49 00
        E 0 80 61 00
        E 360 90 4a 6b
        E 0 90 62 6b
        E 120 80 4a 00
        E 0 80 62 00
        E 360 90 1b 69
        E 0 90 33 69
        E 0 90 4b 69
        E 0 90 63 69
        E 120 80 1b 00
        E 0 80 33 00
        E 0 80 4b 00
        E 0 80 63 00
        E 120 90 63 69
        E 120 80 63 00
        E 120 90 33 69
        E 0 90 4b 69
        E 0 90 63 69
        E 120 80 33 00
        E 0 80 4b 00
        E 0 80 63 00
        E 120 90 63 69
        E 120 80 63 00
        E 120 90 33 69
        E 0 90 4b 69
        E 0 90 63 69
        E 120 80 33 00
        E 0 80 4b 00
        E 0 80 63 00
        E 360 90 4a 6b
        E 0 90 62 6b
        E 120 80 4a 00
        E 0 80 62 00
        E 360 90 1a 6c
        E 0 90 32 6c
        E 0 90 4a 6c
        E 0 90 62 6c
        E 0 90 74 64
        E 120 80 1a 00
        E 0 80 32 00
        E 0 80 4a 00
        E 0 80 62 00
        E 120 90 62 6c
        E 120 80 62 00
        E 120 90 32 6c
        E 0 90 4a 6c
        E 0 90 62 6c
        E 120 80 32 00
        E 0 80 4a 00
        E 0 80 62 00
        E 120 90 62 6c
        E 120 80 62 00
        E 120 90 32 6c
        E 0 90 4a 6c
        E 0 90 62 6c
        E 120 80 32 00
        E 0 80 4a 00
        E 0 80 62 00
        E 360 90 49 6c
        E 0 90 61 6c
        E 120 80 49 00
        E 0 80 61 00
        E 360 90 1a 69
        E 0 90 32 69
        E 0 90 4a 69
        E 0 90 62 69
        E 120 80 1a 00
        E 0 80 32 00
        E 0 80 4a 00
        E 0 80 62 00
        E 120 90 62 69
        E 120 80 62 00
        E 120 90 32 69
        E 0 90 4a 69
        E 0 90 62 69
        E 120 80 32 00
        E 0 80 4a 00
        E 0 80 62 00
        E 120 90 62 69
        E 120 80 62 00
        E 120 90 32 69
        E 0 90 4a 69
        E 0 90 62 69
        E 120 80 32 00
        E 0 80 4a 00
        E 0 80 62 00
        E 120 90 63 6b
        E 0 90 6c 6b
        E 120 80 63 00
        E 0 80 6c 00
        E 120 90 4b 6e
        E 0 90 63 6e
        E 0 90 66 64
        E 120 80 4b 00
        E 0 80 63 00
        E 0 80 66 00
        <X 360 0
          /wFbZW5kX3BiIHNvbmdfdHJhaW5lcl9wYl8xXQ==
        >
        E 0 80 74 00
        E 0 90 19 69
        E 0 90 31 69
        E 0 90 49 69
        E 0 90 61 69
        E 0 90 6c 69
        E 120 80 19 00
        E 0 80 31 00
        E 0 80 49 00
        E 0 80 61 00
        E 0 80 6c 00
        E 120 90 61 69
        E 120 80 61 00
        E 120 90 31 69
        E 0 90 49 69
        E 0 90 61 69
        E 120 80 31 00
        E 0 80 49 00
        E 0 80 61 00
        E 120 90 61 69
        E 120 80 61 00
        E 120 90 31 69
        E 0 90 49 69
        E 0 90 61 69
        E 120 80 31 00
        E 0 80 49 00
        E 0 80 61 00
        E 360 90 4a 6b
        E 0 90 62 6b
        E 120 80 4a 00
        E 0 80 62 00
        E 360 90 1b 69
        E 0 90 33 69
        E 0 90 4b 69
        E 0 90 63 69
        E 120 80 1b 00
        E 0 80 33 00
        E 0 80 4b 00
        E 0 80 63 00
        E 120 90 63 69
        E 120 80 63 00
        E 120 90 33 69
        E 0 90 4b 69
        E 0 90 63 69
        E 120 80 33 00
        E 0 80 4b 00
        E 0 80 63 00
        E 120 90 63 69
        E 120 80 63 00
        E 120 90 33 69
        E 0 90 4b 69
        E 0 90 63 69
        E 120 80 33 00
        E 0 80 4b 00
        E 0 80 63 00
        E 360 90 4a 6b
        E 0 90 62 6b
        E 120 80 4a 00
        E 0 80 62 00
        E 360 90 1a 6c
        E 0 90 32 6c
        E 0 90 4a 6c
        E 0 90 62 6c
        E 120 80 1a 00
        E 0 80 32 00
        E 0 80 4a 00
        E 0 80 62 00
        E 120 90 62 6c
        E 120 80 62 00
        E 120 90 32 6c
        E 0 90 4a 6c
        E 0 90 62 6c
        E 120 80 32 00
        E 0 80 4a 00
        E 0 80 62 00
        E 120 90 62 6c
        E 120 80 62 00
        E 120 90 32 6c
        E 0 90 4a 6c
        E 0 90 62 6c
        E 120 80 32 00
        E 0 80 4a 00
        E 0 80 62 00
        E 360 90 49 6c
        E 0 90 61 6c
        E 120 80 49 00
        E 0 80 61 00
        E 360 90 1a 69
        E 0 90 32 69
        E 0 90 4a 69
        E 0 90 62 69
        E 120 80 1a 00
        E 0 80 32 00
        E 0 80 4a 00
        E 0 80 62 00
        E 120 90 62 69
        E 120 80 62 00
        E 120 90 32 69
        E 0 90 4a 69
        E 0 90 62 69
        E 120 80 32 00
        E 0 80 4a 00
        E 0 80 62 00
        E 120 90 62 69
        E 120 80 62 00
        E 120 90 32 69
        E 0 90 4a 69
        E 0 90 62 69
        E 120 80 32 00
        E 0 80 4a 00
        E 0 80 62 00
        E 120 90 60 6c
        E 0 90 6c 6c
        E 120 80 60 00
        E 0 80 6c 00
        E 120 90 48 6e
        E 0 90 60 6e
        E 120 80 48 00
        E 0 80 60 00
        E 360 90 19 69
        E 0 90 31 69
        E 0 90 49 69
        E 0 90 61 69
        E 0 90 6c 69
        E 120 80 19 00
        E 0 80 31 00
        E 0 80 49 00
        E 0 80 61 00 1
        E 0 80 6c 00
        E 120 90 61 69 1
        E 120 80 61 00 1
        E 120 90 31 69
        E 0 90 49 69
        E 0 90 61 69 1
        E 120 80 31 00
        E 0 80 49 00
        E 0 80 61 00 1
        E 120 90 61 69 1
        E 120 80 61 00 1
        E 120 90 31 69
        E 0 90 49 69
        E 0 90 61 69 1
        E 120 80 31 00
        E 0 80 49 00
        E 0 80 61 00 1
        E 360 90 4a 6b
        E 0 90 62 6b
        E 120 80 4a 00
        E 0 80 62 00 1
        E 360 90 1b 69
        E 0 90 33 69
        E 0 90 4b 69
        E 0 90 63 69 1
        E 120 80 1b 00
        E 0 80 33 00
        E 0 80 4b 00
        E 0 80 63 00 1
        E 120 90 63 69 1
        E 120 80 63 00 1
        E 120 90 33 69
        E 0 90 4b 69
        E 0 90 63 69 1
        E 120 80 33 00
        E 0 80 4b 00
        E 0 80 63 00 1
        E 120 90 63 69 1
        E 120 80 63 00
        E 120 90 33 69
        E 0 90 4b 69
        E 0 90 63 69
        E 120 80 33 00
        E 0 80 4b 00
        E 0 80 63 00 1
        E 360 90 4a 6b
        E 0 90 62 6b 1
        E 120 80 4a 00
        E 0 80 62 00 1
        E 360 90 1a 6c
        E 0 90 32 6c
        E 0 90 4a 6c
        E 0 90 62 6c 1
        E 120 80 1a 00
        E 0 80 32 00
        E 0 80 4a 00
        E 0 80 62 00 1
        E 120 90 62 6c 1
        E 120 80 62 00 1
        E 120 90 32 6c
        E 0 90 4a 6c
        E 0 90 62 6c
        E 120 80 32 00
        E 0 80 4a 00
        E 0 80 62 00
        E 120 90 62 6c
        E 120 80 62 00 1
        E 120 90 32 6c
        E 0 90 4a 6c
        E 0 90 62 6c 1
        E 120 80 32 00
        E 0 80 4a 00
        E 0 80 62 00 1
        E 360 90 4b 6b
        E 0 90 63 6b
        E 120 80 4b 00
        E 0 80 63 00
        E 360 90 1a 69
        E 0 90 32 69
        E 0 90 4a 69
        E 0 90 62 69 1
        E 120 80 1a 00
        E 0 80 32 00
        E 0 80 4a 00
        E 0 80 62 00
        E 120 90 62 69 1
        E 120 80 62 00 1
        E 120 90 32 69
        E 0 90 4a 69
        E 0 90 62 69 1
        E 120 80 32 00
        E 0 80 4a 00
        E 0 80 62 00 1
        E 120 90 62 69 1
        E 120 80 62 00 1
        E 120 90 32 69
        E 0 90 4a 69
        E 0 90 62 69 1
        E 120 80 32 00
        E 0 80 4a 00
        E 0 80 62 00 1
        E 120 90 61 69
        E 120 80 61 00
        E 120 90 49 69
        E 0 90 61 69
        E 120 80 49 00
        E 0 80 61 00
        E 120 90 61 69
        E 120 80 61 00
        <X 120 0
          /wFbYmVnaW5fcGIgc29uZ190cmFpbmVyX3BiXzJd
        >
        E 0 90 19 6c
        E 0 90 31 6c
        E 0 90 49 6c
        E 0 90 61 6c
        E 0 90 6c 6b
        E 120 80 19 00
        E 0 80 31 00
        E 0 80 49 00
        E 0 80 61 00
        E 0 80 6c 00
        E 120 90 61 6c
        E 120 80 61 00
        E 120 90 31 6c
        E 0 90 49 6c
        E 0 90 61 6c
        E 120 80 31 00
        E 0 80 49 00
        E 0 80 61 00
        E 120 90 61 6c
        E 120 80 61 00
        E 120 90 31 6c
        E 0 90 49 6c
        E 0 90 61 6c
        E 120 80 31 00
        E 0 80 49 00
        E 0 80 61 00
        E 120 90 61 6c
        E 120 80 61 00
        E 120 90 49 6c
        E 0 90 61 6c
        E 120 80 49 00
        E 0 80 61 00
        E 120 90 61 6c
        E 120 80 61 00
        E 120 90 1a 6b
        E 0 90 32 6b
        E 0 90 4a 6b
        E 0 90 62 6b
        E 120 80 1a 00
        E 0 80 32 00
        E 0 80 4a 00
        E 0 80 62 00
        E 120 90 62 6b
        E 120 80 62 00
        E 120 90 4a 6b
        E 0 90 62 6b
        E 120 80 4a 00
        E 0 80 62 00
        E 120 90 62 6b
        E 120 80 62 00
        E 120 90 32 6e
        E 0 90 4a 6e
        E 0 90 62 6e
        E 120 80 32 00
        E 0 80 4a 00
        E 0 80 62 00
        E 120 90 62 6e
        E 120 80 62 00
        E 120 90 4a 6e
        E 0 90 62 6e
        E 120 80 4a 00
        E 0 80 62 00
        E 120 90 61 6b
        E 120 80 61 00
        <X 120 0
          /wFbcGJfbm9ybSBzb25nX3RyYWluZXJfcGJfMl0=
        >
        E 0 90 19 69
        E 0 90 31 69
        E 0 90 49 69
        E 0 90 61 69
        E 0 90 6c 69
        E 120 80 19 00
        E 0 80 31 00
        E 0 80 49 00
        E 0 80 61 00
        E 0 80 6c 00
        E 120 90 61 69
        E 120 80 61 00
        E 120 90 31 69
        E 0 90 49 69
        E 0 90 61 69
        E 120 80 31 00
        E 0 80 49 00
        E 0 80 61 00
        E 120 90 61 69
        E 120 80 61 00
        E 120 90 19 69
        E 0 90 31 69
        E 0 90 49 69
        E 0 90 61 69
        E 120 80 19 00
        E 0 80 31 00
        E 0 80 49 00
        E 0 80 61 00
        E 120 90 61 69
        E 120 80 61 00
        E 120 90 31 69
        E 0 90 49 69
        E 0 90 61 69
        E 120 80 31 00
        E 0 80 49 00
        E 0 80 61 00
        E 120 90 61 69
        E 120 80 61 00
        E 120 90 19 69
        E 0 90 31 69
        E 0 90 49 69
        E 0 90 61 69
        E 120 80 19 00
        E 0 80 31 00
        E 0 80 49 00
        E 0 80 61 00
        E 120 90 61 69
        E 120 80 61 00
        E 120 90 31 69
        E 0 90 49 69
        E 0 90 61 69
        E 120 80 31 00
        E 0 80 49 00
        E 0 80 61 00
        E 120 90 61 69
        E 120 80 61 00
        E 120 90 31 69
        E 0 90 49 69
        E 0 90 61 69
        E 120 80 31 00
        E 0 80 49 00
        E 0 80 61 00
        E 120 90 61 69
        E 120 80 61 00
        E 120 90 49 69
        E 0 90 61 69
        E 120 80 49 00
        E 0 80 61 00
        E 120 90 61 69
        E 120 80 61 00
        E 120 90 19 6b
        E 0 90 31 6b
        E 0 90 49 6b
        E 0 90 61 6b
        E 0 90 74 64
        E 120 80 19 00
        E 0 80 31 00
        E 0 80 49 00
        E 0 80 61 00
        E 120 90 61 6b
        E 120 80 61 00
        E 120 90 31 6b
        E 0 90 49 6b
        E 0 90 61 6b
        E 120 80 31 00
        E 0 80 49 00
        E 0 80 61 00
        E 120 90 61 6b
        E 120 80 61 00
        E 120 90 31 6b
        E 0 90 49 6b
        E 0 90 61 6b
        E 120 80 31 00
        E 0 80 49 00
        E 0 80 61 00
        E 120 90 61 6b
        E 120 80 61 00
        E 120 90 49 6b
        E 0 90 61 6b
        E 120 80 49 00
        E 0 80 61 00
        E 120 90 61 6b
        E 120 80 61 00
        E 120 90 19 6c
        E 0 90 31 6c
        E 0 90 49 6c
        E 0 90 61 6c
        E 120 80 19 00
        E 0 80 31 00
        E 0 80 49 00
        E 0 80 61 00
        E 120 90 61 6c
        E 120 80 61 00
        E 120 90 49 6c
        E 0 90 61 6c
        E 120 80 49 00
        E 0 80 61 00
        E 120 90 61 6c
        E 120 80 61 00
        E 120 90 32 69
        E 0 90 4a 69
        E 0 90 62 69
        E 120 80 32 00
        E 0 80 4a 00
        E 0 80 62 00
        E 120 90 62 69
        E 120 80 62 00
        E 120 90 4a 69
        E 0 90 62 69
        E 120 80 4a 00
        E 0 80 62 00
        E 120 90 62 69
        E 120 80 62 00
        E 120 90 19 69
        E 0 90 31 69
        E 0 90 49 69
        E 0 90 61 69
        E 120 80 74 00
        E 0 80 19 00
        E 0 80 31 00
        E 0 80 49 00
        E 0 80 61 00
        E 120 90 61 69
        E 120 80 61 00
        E 120 90 31 69
        E 0 90 49 69
        E 0 90 61 69
        E 120 80 31 00
        E 0 80 49 00
        E 0 80 61 00
        E 120 90 61 69
        E 120 80 61 00
        E 120 90 19 69
        E 0 90 31 69
        E 0 90 49 69
        E 0 90 61 69
        E 120 80 19 00
        E 0 80 31 00
        E 0 80 49 00
        E 0 80 61 00
        E 120 90 61 69
        E 120 80 61 00
        E 120 90 31 69
        E 0 90 49 69
        E 0 90 61 69
        E 120 80 31 00
        E 0 80 49 00
        E 0 80 61 00
        E 120 90 61 69
        E 120 80 61 00
        E 120 90 19 69
        E 0 90 31 69
        E 0 90 49 69
        E 0 90 61 69
        E 120 80 19 00
        E 0 80 31 00
        E 0 80 49 00
        E 0 80 61 00
        E 120 90 61 69
        E 120 80 61 00
        E 120 90 31 69
        E 0 90 49 69
        E 0 90 61 69
        E 120 80 31 00
        E 0 80 49 00
        E 0 80 61 00
        E 120 90 61 69
        E 120 80 61 00
        E 120 90 31 69
        E 0 90 49 69
        E 0 90 61 69
        E 120 80 31 00
        E 0 80 49 00
        E 0 80 61 00
        E 120 90 61 69
        E 120 80 61 00
        E 120 90 49 69
        E 0 90 61 69
        E 120 80 49 00
        E 0 80 61 00
        E 120 90 61 69
        E 120 80 61 00
        <X 120 0
          /wFbYmVnaW5fcGIgc29uZ190cmFpbmVyX3BiXzNd
        >
        <X 0 0
          /wFbZW5kX3BiIHNvbmdfdHJhaW5lcl9wYl8yXQ==
        >
        E 0 90 19 6c
        E 0 90 31 6c
        E 0 90 49 6c
        E 0 90 61 6c
        E 0 90 6c 6b
        E 120 80 19 00
        E 0 80 31 00
        E 0 80 49 00
        E 0 80 61 00
        E 0 80 6c 00
        E 120 90 61 6c
        E 120 80 61 00
        E 120 90 31 6c
        E 0 90 49 6c
        E 0 90 61 6c
        E 120 80 31 00
        E 0 80 49 00
        E 0 80 61 00
        E 120 90 61 6c
        E 120 80 61 00
        E 120 90 31 6c
        E 0 90 49 6c
        E 0 90 61 6c
        E 120 80 31 00
        E 0 80 49 00
        E 0 80 61 00
        E 120 90 61 6c
        E 120 80 61 00
        E 120 90 49 6c
        E 0 90 61 6c
        E 120 80 49 00
        E 0 80 61 00
        E 120 90 61 6c
        E 120 80 61 00
        E 120 90 1a 6b
        E 0 90 32 6b
        E 0 90 4a 6b
        E 0 90 62 6b
        E 120 80 1a 00
        E 0 80 32 00
        E 0 80 4a 00
        E 0 80 62 00
        E 120 90 62 6b
        E 120 80 62 00
        E 120 90 4a 6b
        E 0 90 62 6b
        E 120 80 4a 00
        E 0 80 62 00
        E 120 90 62 6b
        E 120 80 62 00
        E 120 90 32 6e
        E 0 90 4a 6e
        E 0 90 62 6e
        E 120 80 32 00
        E 0 80 4a 00
        E 0 80 62 00
        E 120 90 62 6e
        E 120 80 62 00
        E 120 90 4a 6e
        E 0 90 62 6e
        E 120 80 4a 00
        E 0 80 62 00
        E 120 90 62 6e
        E 120 80 62 00
        E 120 90 19 6e
        E 0 90 31 6e
        E 0 90 49 6e
        E 0 90 61 6e
        E 120 80 19 00
        E 0 80 31 00
        E 0 80 49 00
        E 0 80 61 00
        E 120 90 61 6e
        E 120 80 61 00
        E 120 90 31 6e
        E 0 90 49 6e
        E 0 90 61 6e
        E 120 80 31 00
        E 0 80 49 00
        E 0 80 61 00
        E 120 90 61 6e
        E 120 80 61 00
        E 120 90 19 6e
        E 0 90 31 6e
        E 0 90 49 6e
        E 0 90 61 6e
        E 120 80 19 00
        E 0 80 31 00
        E 0 80 49 00
        E 0 80 61 00
        E 120 90 61 6e
        E 120 80 61 00
        E 120 90 31 6e
        E 0 90 49 6e
        E 0 90 61 6e
        E 120 80 31 00
        E 0 80 49 00
        E 0 80 61 00
        E 120 90 61 6e
        E 120 80 61 00
        E 120 90 19 6e
        E 0 90 31 6e
        E 0 90 49 6e
        E 0 90 61 6e
        E 120 80 19 00
        E 0 80 31 00
        E 0 80 49 00
        E 0 80 61 00
        E 120 90 61 6e
        E 120 80 61 00
        E 120 90 31 6e
        E 0 90 49 6e
        E 0 90 61 6e
        E 120 80 31 00
        E 0 80 49 00
        E 0 80 61 00
        E 120 90 61 6e
        E 120 80 61 00
        E 120 90 31 6e
        E 0 90 49 6e
        E 0 90 61 6e
        E 120 80 31 00
        E 0 80 49 00
        E 0 80 61 00
        E 120 90 61 6e
        E 120 80 61 00
        E 120 90 49 6e
        E 0 90 61 6e
        E 120 80 49 00
        E 0 80 61 00
        E 120 90 61 6e
        E 120 80 61 00
        E 120 90 19 6b
        E 0 90 31 6b
        E 0 90 49 6b
        E 0 90 61 6b
        E 0 90 6c 69
        E 120 80 19 00
        E 0 80 31 00
        E 0 80 49 00
        E 0 80 61 00
        E 0 80 6c 00
        E 120 90 61 6b
        E 120 80 61 00
        E 120 90 31 6b
        E 0 90 49 6b
        E 0 90 61 6b
        E 120 80 31 00
        E 0 80 49 00
        E 0 80 61 00
        E 120 90 61 6b
        E 120 80 61 00
        E 120 90 31 6b
        E 0 90 49 6b
        E 0 90 61 6b
        E 120 80 31 00
        E 0 80 49 00
        E 0 80 61 00
        E 120 90 61 6b
        E 120 80 61 00
        E 120 90 49 6b
        E 0 90 61 6b
        E 120 80 49 00
        E 0 80 61 00
        E 120 90 61 6b
        E 120 80 61 00
        E 120 90 19 6c
        E 0 90 31 6c
        E 0 90 49 6c
        E 0 90 61 6c
        E 120 80 19 00
        E 480 80 31 00
        E 120 80 49 00
        E 0 80 61 00
        E 240 90 32 69
        E 0 90 4a 69
        E 0 90 62 69
        E 0 90 6c 67
        E 120 80 32 00
        E 0 80 4a 00
        E 0 80 62 00
        E 0 80 6c 00
        E 120 90 62 69
        E 120 80 62 00
        E 120 90 49 67
        E 0 90 61 67
        E 120 80 49 00
        E 0 80 61 00
        E 120 90 61 67
        E 120 80 61 00
        E 120 90 19 69
        E 0 90 31 69
        E 0 90 49 69
        E 0 90 61 69
        E 0 90 6c 69
        E 120 80 19 00
        E 0 80 31 00
        E 0 80 49 00
        E 0 80 61 00
        E 0 80 6c 00
        E 120 90 61 69
        E 120 80 61 00
        E 120 90 31 69
        E 0 90 49 69
        E 0 90 61 69
        E 120 80 31 00
        E 0 80 49 00
        E 0 80 61 00
        E 120 90 61 69
        E 120 80 61 00
        E 120 90 19 69
        E 0 90 31 69
        E 0 90 49 69
        E 0 90 61 69
        E 120 80 19 00
        E 0 80 31 00
        E 0 80 49 00
        E 0 80 61 00
        E 120 90 61 69
        E 120 80 61 00
        E 120 90 31 69
        E 0 90 49 69
        E 0 90 61 69
        E 120 80 31 00
        E 0 80 49 00
        E 0 80 61 00
        E 120 90 61 69
        E 120 80 61 00
        E 120 90 19 69
        E 0 90 31 69
        E 0 90 49 69
        E 0 90 61 69
        E 120 80 19 00
        E 0 80 31 00
        E 0 80 49 00
        E 0 80 61 00
        E 120 90 61 69
        E 120 80 61 00
        E 120 90 31 69
        E 0 90 49 69
        E 0 90 61 69
        E 120 80 31 00
        E 0 80 49 00
        E 0 80 61 00
        E 120 90 61 69
        E 120 80 61 00
        E 120 90 31 69
        E 0 90 49 69
        E 0 90 61 69
        E 120 80 31 00
        E 0 80 49 00
        E 0 80 61 00
        E 120 90 61 69
        E 120 80 61 00
        E 120 90 30 64
        E 0 90 48 64
        E 0 90 60 64
        E 120 80 30 00
        E 0 80 48 00
        E 0 80 60 00
        <X 360 0
          /wFbZW5kX3BiIHNvbmdfdHJhaW5lcl9wYl8zXQ==
        >
        E 0 90 19 69
        E 0 90 31 69
        E 0 90 49 69
        E 0 90 61 69
        E 120 80 19 00
        E 0 80 31 00
        E 0 80 49 00
        E 0 80 61 00
        E 120 90 61 69
        E 120 80 61 00
        E 120 90 31 69
        E 0 90 49 69
        E 0 90 61 69
        E 120 80 31 00
        E 0 80 49 00
        E 0 80 61 00
        E 120 90 61 69
        E 120 80 61 00
        E 120 90 31 69
        E 0 90 49 69
        E 0 90 61 69
        E 120 80 31 00
        E 0 80 49 00
        E 0 80 61 00
        E 360 90 4a 6b
        E 0 90 62 6b
        E 120 80 4a 00
        E 0 80 62 00
        E 360 90 1b 69
        E 0 90 33 69
        E 0 90 4b 69
        E 0 90 63 69
        E 120 80 1b 00
        E 0 80 33 00
        E 0 80 4b 00
        E 0 80 63 00
        E 120 90 63 69
        E 120 80 63 00
        E 120 90 33 69
        E 0 90 4b 69
        E 0 90 63 69
        E 120 80 33 00
        E 0 80 4b 00
        E 0 80 63 00
        E 120 90 63 69
        E 120 80 63 00
        E 120 90 33 69
        E 0 90 4b 69
        E 0 90 63 69
        E 120 80 33 00
        E 0 80 4b 00
        E 0 80 63 00
        E 360 90 4a 6b
        E 0 90 62 6b
        E 120 80 4a 00
        E 0 80 62 00
        E 360 90 1a 6c
        E 0 90 32 6c
        E 0 90 4a 6c
        E 0 90 62 6c
        E 0 90 74 64
        E 120 80 1a 00
        E 0 80 32 00
        E 0 80 4a 00
        E 0 80 62 00
        E 120 90 62 6c
        E 120 80 62 00
        E 120 90 32 6c
        E 0 90 4a 6c
        E 0 90 62 6c
        E 120 80 32 00
        E 0 80 4a 00
        E 0 80 62 00
        E 120 90 62 6c
        E 120 80 62 00
        E 120 90 32 6c
        E 0 90 4a 6c
        E 0 90 62 6c
        E 120 80 32 00
        E 0 80 4a 00
        E 0 80 62 00
        E 360 90 49 6c
        E 0 90 61 6c
        E 120 80 49 00
        E 0 80 61 00
        E 360 90 1a 69
        E 0 90 32 69
        E 0 90 4a 69
        E 0 90 62 69
        E 120 80 1a 00
        E 0 80 32 00
        E 0 80 4a 00
        E 0 80 62 00
        E 120 90 62 69
        E 120 80 62 00
        E 120 90 32 69
        E 0 90 4a 69
        E 0 90 62 69
        E 120 80 32 00
        E 0 80 4a 00
        E 0 80 62 00
        E 120 90 62 69
        E 120 80 62 00
        E 120 90 32 69
        E 0 90 4a 69
        E 0 90 62 69
        E 120 80 32 00
        E 0 80 4a 00
        E 0 80 62 00
        E 360 90 48 6e
        E 0 90 60 6e
        E 0 90 6c 6c
        E 120 80 48 00
        E 0 80 60 00
        E 0 80 6c 00
        E 360 80 74 00
        E 0 90 19 69
        E 0 90 31 69
        E 0 90 49 69
        E 0 90 61 69
        E 0 90 6c 69
        E 120 80 19 00
        E 0 80 31 00
        E 0 80 49 00
        E 0 80 61 00
        E 0 80 6c 00
        E 120 90 61 69
        E 120 80 61 00
        E 120 90 31 69
        E 0 90 49 69
        E 0 90 61 69
        E 120 80 31 00
        E 0 80 49 00
        E 0 80 61 00
        E 120 90 61 69
        E 120 80 61 00
        E 120 90 31 69
        E 0 90 49 69
        E 0 90 61 69
        E 120 80 31 00
        E 0 80 49 00
        E 0 80 61 00
        E 360 90 4a 6b
        E 0 90 62 6b
        E 120 80 4a 00
        E 0 80 62 00
        E 360 90 1b 69
        E 0 90 33 69
        E 0 90 4b 69
        E 0 90 63 69
        E 120 80 1b 00
        E 0 80 33 00
        E 0 80 4b 00
        E 0 80 63 00
        E 120 90 63 69
        E 120 80 63 00
        E 120 90 33 69
        E 0 90 4b 69
        E 0 90 63 69
        E 120 80 33 00
        E 0 80 4b 00
        E 0 80 63 00
        E 120 90 63 69
        E 120 80 63 00
        E 120 90 33 69
        E 0 90 4b 69
        E 0 90 63 69
        E 120 80 33 00
        E 0 80 4b 00
        E 0 80 63 00
        E 360 90 4a 6b
        E 0 90 62 6b
        E 120 80 4a 00
        E 0 80 62 00
        E 360 90 1a 6c
        E 0 90 32 6c
        E 0 90 4a 6c
        E 0 90 62 6c
        E 120 80 1a 00
        E 0 80 32 00
        E 0 80 4a 00
        E 0 80 62 00
        E 120 90 62 6c
        E 120 80 62 00
        E 120 90 32 6c
        E 0 90 4a 6c
        E 0 90 62 6c
        E 120 80 32 00
        E 0 80 4a 00
        E 0 80 62 00
        E 120 90 62 6c
        E 120 80 62 00
        E 120 90 32 6c
        E 0 90 4a 6c
        E 0 90 62 6c
        E 120 80 32 00
        E 0 80 4a 00
        E 0 80 62 00
        E 360 90 49 6c
        E 0 90 61 6c
        E 120 80 49 00
        E 0 80 61 00
        E 360 90 1a 69
        E 0 90 32 69
        E 0 90 4a 69
        E 0 90 62 69
        E 120 80 1a 00
        E 0 80 32 00
        E 0 80 4a 00
        E 0 80 62 00
        E 120 90 62 69
        E 120 80 62 00
        E 120 90 32 69
        E 0 90 4a 69
        E 0 90 62 69
        E 120 80 32 00
        E 0 80 4a 00
        E 0 80 62 00
        E 120 90 62 69
        E 120 80 62 00
        E 120 90 32 69
        E 0 90 4a 69
        E 0 90 62 69
        E 120 80 32 00
        E 0 80 4a 00
        E 0 80 62 00
        E 120 90 63 6b
        E 0 90 6c 6b
        E 120 80 63 00
        E 0 80 6c 00
        E 120 90 4b 6e
        E 0 90 63 6e
        E 0 90 66 64
        E 120 80 4b 00
        E 0 80 63 00
        E 0 80 66 00
        E 360 90 19 69
        E 0 90 31 69
        E 0 90 49 69
        E 0 90 61 69
        E 0 90 6c 69
        E 120 80 19 00
        E 0 80 31 00
        E 0 80 49 00
        E 0 80 61 00
        E 0 80 6c 00
        E 120 90 61 69
        E 120 80 61 00
        E 120 90 31 69
        E 0 90 49 69
        E 0 90 61 69
        E 120 80 31 00
        E 0 80 49 00
        E 0 80 61 00
        E 120 90 61 69
        E 120 80 61 00
        E 120 90 31 69
        E 0 90 49 69
        E 0 90 61 69
        E 120 80 31 00
        E 0 80 49 00
        E 0 80 61 00
        E 360 90 4a 6b
        E 0 90 62 6b
        E 120 80 4a 00
        E 0 80 62 00
        E 360 90 1b 69
        E 0 90 33 69
        E 0 90 4b 69
        E 0 90 63 69
        E 120 80 1b 00
        E 0 80 33 00
        E 0 80 4b 00
        E 0 80 63 00
        E 120 90 63 69
        E 120 80 63 00
        E 120 90 33 69
        E 0 90 4b 69
        E 0 90 63 69
        E 120 80 33 00
        E 0 80 4b 00
        E 0 80 63 00
        E 120 90 63 69
        E 120 80 63 00
        E 120 90 33 69
        E 0 90 4b 69
        E 0 90 63 69
        E 120 80 33 00
        E 0 80 4b 00
        E 0 80 63 00
        E 360 90 4a 6b
        E 0 90 62 6b
        E 120 80 4a 00
        E 0 80 62 00
        E 360 90 1a 6c
        E 0 90 32 6c
        E 0 90 4a 6c
        E 0 90 62 6c
        E 120 80 1a 00
        E 0 80 32 00
        E 0 80 4a 00
        E 0 80 62 00
        E 120 90 62 6c
        E 120 80 62 00
        E 120 90 32 6c
        E 0 90 4a 6c
        E 0 90 62 6c
        E 120 80 32 00
        E 0 80 4a 00
        E 0 80 62 00
        E 120 90 62 6c
        E 120 80 62 00
        E 120 90 32 6c
        E 0 90 4a 6c
        E 0 90 62 6c
        E 120 80 32 00
        E 0 80 4a 00
        E 0 80 62 00
        E 360 90 49 6c
        E 0 90 61 6c
        E 120 80 49 00
        E 0 80 61 00
        E 360 90 1a 69
        E 0 90 32 69
        E 0 90 4a 69
        E 0 90 62 69
        E 120 80 1a 00
        E 0 80 32 00
        E 0 80 4a 00
        E 0 80 62 00
        E 120 90 62 69
        E 120 80 62 00
        E 120 90 32 69
        E 0 90 4a 69
        E 0 90 62 69
        E 120 80 32 00
        E 0 80 4a 00
        E 0 80 62 00
        E 120 90 62 69
        E 120 80 62 00
        E 120 90 32 69
        E 0 90 4a 69
        E 0 90 62 69
        E 120 80 32 00
        E 0 80 4a 00
        E 0 80 62 00
        E 360 90 48 6e
        E 0 90 60 6e
        E 0 90 6c 6c
        E 120 80 48 00
        E 0 80 60 00
        E 0 80 6c 00
        E 360 90 19 69
        E 0 90 31 69
        E 0 90 49 69
        E 0 90 61 69
        E 0 90 6c 69
        E 120 80 19 00
        E 0 80 31 00
        E 0 80 49 00
        E 0 80 61 00
        E 0 80 6c 00
        E 120 90 61 69
        E 120 80 61 00
        E 120 90 31 69
        E 0 90 49 69
        E 0 90 61 69
        E 120 80 31 00
        E 0 80 49 00
        E 0 80 61 00
        E 120 90 61 69
        E 120 80 61 00
        E 120 90 31 69
        E 0 90 49 69
        E 0 90 61 69
        E 120 80 31 00
        E 0 80 49 00
        E 0 80 61 00
        E 360 90 4a 6b
        E 0 90 62 6b
        E 120 80 4a 00
        E 0 80 62 00
        E 360 90 1b 69
        E 0 90 33 69
        E 0 90 4b 69
        E 0 90 63 69
        E 120 80 1b 00
        E 0 80 33 00
        E 0 80 4b 00
        E 0 80 63 00
        E 120 90 63 69
        E 120 80 63 00
        E 120 90 33 69
        E 0 90 4b 69
        E 0 90 63 69
        E 120 80 33 00
        E 0 80 4b 00
        E 0 80 63 00
        E 120 90 63 69
        E 120 80 63 00
        E 120 90 33 69
        E 0 90 4b 69
        E 0 90 63 69
        E 120 80 33 00
        E 0 80 4b 00
        E 0 80 63 00
        E 360 90 4a 6b
        E 0 90 62 6b
        E 120 80 4a 00
        E 0 80 62 00
        E 360 90 1a 6c
        E 0 90 32 6c
        E 0 90 4a 6c
        E 0 90 62 6c
        E 120 80 1a 00
        E 0 80 32 00
        E 0 80 4a 00
        E 0 80 62 00
        E 120 90 62 6c
        E 120 80 62 00
        E 120 90 32 6c
        E 0 90 4a 6c
        E 0 90 62 6c
        E 120 80 32 00
        E 0 80 4a 00
        E 0 80 62 00
        E 120 90 62 6c
        E 120 80 62 00
        E 120 90 32 6c
        E 0 90 4a 6c
        E 0 90 62 6c
        E 120 80 32 00
        E 0 80 4a 00
        E 0 80 62 00
        E 360 90 49 6c
        E 0 90 61 6c
        E 120 80 49 00
        E 0 80 61 00
        E 360 90 1a 69
        E 0 90 32 69
        E 0 90 4a 69
        E 0 90 62 69
        E 0 90 74 64
        E 120 80 1a 00
        E 0 80 32 00
        E 0 80 4a 00
        E 0 80 62 00
        E 120 90 62 69
        E 120 80 62 00
        E 120 90 32 69
        E 0 90 4a 69
        E 0 90 62 69
        E 120 80 32 00
        E 0 80 4a 00
        E 0 80 62 00
        E 120 90 62 69
        E 120 80 62 00
        E 120 90 32 69
        E 0 90 4a 69
        E 0 90 62 69
        E 120 80 32 00
        E 0 80 4a 00
        E 0 80 62 00
        E 120 90 61 69
        E 120 80 61 00
        E 120 90 49 69
        E 0 90 61 69
        E 120 80 49 00
        E 0 80 61 00
        E 120 90 61 69
        E 120 80 61 00
        E 120 90 19 6c
        E 0 90 31 6c
        E 0 90 49 6c
        E 0 90 61 6c
        E 0 90 6c 6b
        E 120 80 74 00
        E 0 80 19 00
        E 0 80 31 00
        E 0 80 49 00
        E 0 80 61 00
        E 0 80 6c 00
        E 120 90 61 6c
        E 120 80 61 00
        E 120 90 31 6c
        E 0 90 49 6c
        E 0 90 61 6c
        E 120 80 31 00
        E 0 80 49 00
        E 0 80 61 00
        E 120 90 61 6c
        E 120 80 61 00
        E 120 90 31 6c
        E 0 90 49 6c
        E 0 90 61 6c
        E 120 80 31 00
        E 0 80 49 00
        E 0 80 61 00
        E 120 90 61 6c
        E 120 80 61 00
        E 120 90 49 6c
        E 0 90 61 6c
        E 120 80 49 00
        E 0 80 61 00
        E 120 90 61 6c
        E 120 80 61 00
        E 120 90 1a 6b
        E 0 90 32 6b
        E 0 90 4a 6b
        E 0 90 62 6b
        E 120 80 1a 00
        E 0 80 32 00
        E 0 80 4a 00
        E 0 80 62 00
        E 120 90 62 6b
        E 120 80 62 00
        E 120 90 4a 6b
        E 0 90 62 6b
        E 120 80 4a 00
        E 0 80 62 00
        E 120 90 62 6b
        E 120 80 62 00
        E 120 90 32 6e
        E 0 90 4a 6e
        E 0 90 62 6e
        E 120 80 32 00
        E 0 80 4a 00
        E 0 80 62 00
        E 120 90 62 6e
        E 120 80 62 00
        E 120 90 4a 6e
        E 0 90 62 6e
        E 120 80 4a 00
        E 0 80 62 00
        E 120 90 61 6b
        E 120 80 61 00
        E 120 90 19 69
        E 0 90 31 69
        E 0 90 49 69
        E 0 90 61 69
        E 0 90 6c 69
        E 120 80 19 00
        E 0 80 31 00
        E 0 80 49 00
        E 0 80 61 00
        E 0 80 6c 00
        E 120 90 61 69
        E 120 80 61 00
        E 120 90 31 69
        E 0 90 49 69
        E 0 90 61 69
        E 120 80 31 00
        E 0 80 49 00
        E 0 80 61 00
        E 120 90 61 69
        E 120 80 61 00
        E 120 90 19 69
        E 0 90 31 69
        E 0 90 49 69
        E 0 90 61 69
        E 120 80 19 00
        E 0 80 31 00
        E 0 80 49 00
        E 0 80 61 00
        E 120 90 61 69
        E 120 80 61 00
        E 120 90 31 69
        E 0 90 49 69
        E 0 90 61 69
        E 120 80 31 00
        E 0 80 49 00
        E 0 80 61 00
        E 120 90 61 69
        E 120 80 61 00
        E 120 90 19 69
        E 0 90 31 69
        E 0 90 49 69
        E 0 90 61 69
        E 120 80 19 00
        E 0 80 31 00
        E 0 80 49 00
        E 0 80 61 00
        E 120 90 61 69
        E 120 80 61 00
        E 120 90 31 69
        E 0 90 49 69
        E 0 90 61 69
        E 120 80 31 00
        E 0 80 49 00
        E 0 80 61 00
        E 120 90 61 69
        E 120 80 61 00
        E 120 90 31 69
        E 0 90 49 69
        E 0 90 61 69
        E 120 80 31 00
        E 0 80 49 00
        E 0 80 61 00
        E 120 90 61 69
        E 120 80 61 00
        E 120 90 49 69
        E 0 90 61 69
        E 120 80 49 00
        E 0 80 61 00
        E 120 90 61 69
        E 120 80 61 00
        E 120 90 19 6b
        E 0 90 31 6b
        E 0 90 49 6b
        E 0 90 61 6b
        E 120 80 19 00
        E 0 80 31 00
        E 0 80 49 00
        E 0 80 61 00
        E 120 90 61 6b
        E 120 80 61 00
        E 120 90 31 6b
        E 0 90 49 6b
        E 0 90 61 6b
        E 120 80 31 00
        E 0 80 49 00
        E 0 80 61 00
        E 120 90 61 6b
        E 120 80 61 00
        E 120 90 31 6b
        E 0 90 49 6b
        E 0 90 61 6b
        E 120 80 31 00
        E 0 80 49 00
        E 0 80 61 00
        E 120 90 61 6b
        E 120 80 61 00
        E 120 90 49 6b
        E 0 90 61 6b
        E 120 80 49 00
        E 0 80 61 00
        E 120 90 61 6b
        E 120 80 61 00
        E 120 90 19 6c
        E 0 90 31 6c
        E 0 90 49 6c
        E 0 90 61 6c
        E 120 80 19 00
        E 0 80 31 00
        E 0 80 49 00
        E 0 80 61 00
        E 120 90 61 6c
        E 120 80 61 00
        E 120 90 49 6c
        E 0 90 61 6c
        E 120 80 49 00
        E 0 80 61 00
        E 120 90 61 6c
        E 120 80 61 00
        E 120 90 32 69
        E 0 90 4a 69
        E 0 90 62 69
        E 120 80 32 00
        E 0 80 4a 00
        E 0 80 62 00
        E 120 90 62 69
        E 120 80 62 00
        E 120 90 4a 69
        E 0 90 62 69
        E 120 80 4a 00
        E 0 80 62 00
        E 120 90 62 69
        E 120 80 62 00
        E 120 90 19 69
        E 0 90 31 69
        E 0 90 49 69
        E 0 90 61 69
        E 120 80 19 00
        E 0 80 31 00
        E 0 80 49 00
        E 0 80 61 00
        E 120 90 61 69
        E 120 80 61 00
        E 120 90 31 69
        E 0 90 49 69
        E 0 90 61 69
        E 120 80 31 00
        E 0 80 49 00
        E 0 80 61 00
        E 120 90 61 69
        E 120 80 61 00
        E 120 90 19 69
        E 0 90 31 69
        E 0 90 49 69
        E 0 90 61 69
        E 120 80 19 00
        E 0 80 31 00
        E 0 80 49 00
        E 0 80 61 00
        E 120 90 61 69
        E 120 80 61 00
        E 120 90 31 69
        E 0 90 49 69
        E 0 90 61 69
        E 120 80 31 00
        E 0 80 49 00
        E 0 80 61 00
        E 120 90 61 69
        E 120 80 61 00
        E 120 90 19 69
        E 0 90 31 69
        E 0 90 49 69
        E 0 90 61 69
        E 120 80 19 00
        E 0 80 31 00
        E 0 80 49 00
        E 0 80 61 00
        E 120 90 61 69
        E 120 80 61 00
        E 120 90 31 69
        E 0 90 49 69
        E 0 90 61 69
        E 120 80 31 00
        E 0 80 49 00
        E 0 80 61 00
        E 120 90 61 69
        E 120 80 61 00
        E 120 90 31 69
        E 0 90 49 69
        E 0 90 61 69
        E 120 80 31 00
        E 0 80 49 00
        E 0 80 61 00
        E 120 90 61 69
        E 120 80 61 00
        E 120 90 49 69
        E 0 90 61 69
        E 120 80 49 00
        E 0 80 61 00
        E 120 90 61 69
        E 120 80 61 00
        E 120 90 19 6c
        E 0 90 31 6c
        E 0 90 49 6c
        E 0 90 61 6c
        E 0 90 6c 6b
        E 0 90 74 64
        E 120 80 19 00
        E 0 80 31 00
        E 0 80 49 00
        E 0 80 61 00
        E 0 80 6c 00
        E 120 90 61 6c
        E 120 80 61 00
        E 120 90 31 6c
        E 0 90 49 6c
        E 0 90 61 6c
        E 120 80 31 00
        E 0 80 49 00
        E 0 80 61 00
        E 120 90 61 6c
        E 120 80 61 00
        E 120 90 31 6c
        E 0 90 49 6c
        E 0 90 61 6c
        E 120 80 31 00
        E 0 80 49 00
        E 0 80 61 00
        E 120 90 61 6c
        E 120 80 61 00
        E 120 90 49 6c
        E 0 90 61 6c
        E 120 80 49 00
        E 0 80 61 00
        E 120 90 61 6c
        E 120 80 61 00
        E 120 90 1a 6b
        E 0 90 32 6b
        E 0 90 4a 6b
        E 0 90 62 6b
        E 120 80 1a 00
        E 0 80 32 00
        E 0 80 4a 00
        E 0 80 62 00
        E 120 90 62 6b
        E 120 80 62 00
        E 120 90 4a 6b
        E 0 90 62 6b
        E 120 80 4a 00
        E 0 80 62 00
        E 120 90 62 6b
        E 120 80 62 00
        E 120 90 32 6e
        E 0 90 4a 6e
        E 0 90 62 6e
        E 120 80 32 00
        E 0 80 4a 00
        E 0 80 62 00
        E 120 90 62 6e
        E 120 80 62 00
        E 120 90 4a 6e
        E 0 90 62 6e
        E 120 80 4a 00
        E 0 80 62 00
        E 120 90 62 6e
        E 120 80 62 00
        E 120 90 19 6e
        E 0 90 31 6e
        E 0 90 49 6e
        E 0 90 61 6e
        E 120 80 74 00
        E 0 80 19 00
        E 0 80 31 00
        E 0 80 49 00
        E 0 80 61 00
        E 120 90 61 6e
        E 120 80 61 00
        E 120 90 31 6e
        E 0 90 49 6e
        E 0 90 61 6e
        E 120 80 31 00
        E 0 80 49 00
        E 0 80 61 00
        E 120 90 61 6e
        E 120 80 61 00
        E 120 90 19 6e
        E 0 90 31 6e
        E 0 90 49 6e
        E 0 90 61 6e
        E 120 80 19 00
        E 0 80 31 00
        E 0 80 49 00
        E 0 80 61 00
        E 120 90 61 6e
        E 120 80 61 00
        E 120 90 31 6e
        E 0 90 49 6e
        E 0 90 61 6e
        E 120 80 31 00
        E 0 80 49 00
        E 0 80 61 00
        E 120 90 61 6e
        E 120 80 61 00
        E 120 90 19 6e
        E 0 90 31 6e
        E 0 90 49 6e
        E 0 90 61 6e
        E 120 80 19 00
        E 0 80 31 00
        E 0 80 49 00
        E 0 80 61 00
        E 120 90 61 6e
        E 120 80 61 00
        E 120 90 31 6e
        E 0 90 49 6e
        E 0 90 61 6e
        E 120 80 31 00
        E 0 80 49 00
        E 0 80 61 00
        E 120 90 61 6e
        E 120 80 61 00
        E 120 90 31 6e
        E 0 90 49 6e
        E 0 90 61 6e
        E 120 80 31 00
        E 0 80 49 00
        E 0 80 61 00
        E 120 90 61 6e
        E 120 80 61 00
        E 120 90 49 6e
        E 0 90 61 6e
        E 120 80 49 00
        E 0 80 61 00
        E 120 90 61 6e
        E 120 80 61 00
        E 120 90 19 6b
        E 0 90 31 6b
        E 0 90 49 6b
        E 0 90 61 6b
        E 0 90 6c 69
        E 120 80 19 00
        E 0 80 31 00
        E 0 80 49 00
        E 0 80 61 00
        E 0 80 6c 00
        E 120 90 61 6b
        E 120 80 61 00
        E 120 90 31 6b
        E 0 90 49 6b
        E 0 90 61 6b
        E 120 80 31 00
        E 0 80 49 00
        E 0 80 61 00
        E 120 90 61 6b
        E 120 80 61 00
        E 120 90 31 6b
        E 0 90 49 6b
        E 0 90 61 6b
        E 120 80 31 00
        E 0 80 49 00
        E 0 80 61 00
        E 120 90 61 6b
        E 120 80 61 00
        E 120 90 49 6b
        E 0 90 61 6b
        E 120 80 49 00
        E 0 80 61 00
        E 120 90 61 6b
        E 120 80 61 00
        E 120 90 19 6c
        E 0 90 31 6c
        E 0 90 49 6c
        E 0 90 61 6c
        E 120 80 19 00
        E 0 80 31 00
        E 0 80 49 00
        E 0 80 61 00
        E 120 90 61 6c
        E 120 80 61 00
        E 120 90 49 6c
        E 0 90 61 6c
        E 120 80 49 00
        E 0 80 61 00
        E 120 90 61 6c
        E 120 80 61 00
        E 120 90 32 69
        E 0 90 4a 69
        E 0 90 62 69
        E 0 90 6c 67
        E 120 80 32 00
        E 0 80 4a 00
        E 0 80 62 00
        E 0 80 6c 00
        E 120 90 62 69
        E 120 80 62 00
        E 120 90 49 67
        E 0 90 61 67
        E 120 80 49 00
        E 0 80 61 00
        E 120 90 61 67
        E 120 80 61 00
        E 120 90 19 69
        E 0 90 31 69
        E 0 90 49 69
        E 0 90 61 69
        E 0 90 6c 69
        E 120 80 19 00
        E 0 80 31 00
        E 0 80 49 00
        E 0 80 61 00
        E 0 80 6c 00
        E 120 90 61 69
        E 120 80 61 00
        E 120 90 31 69
        E 0 90 49 69
        E 0 90 61 69
        E 120 80 31 00
        E 0 80 49 00
        E 0 80 61 00
        E 120 90 61 69
        E 120 80 61 00
        E 120 90 19 69
        E 0 90 31 69
        E 0 90 49 69
        E 0 90 61 69
        E 120 80 19 00
        E 0 80 31 00
        E 0 80 49 00
        E 0 80 61 00
        E 120 90 61 69
        E 120 80 61 00
        E 120 90 31 69
        E 0 90 49 69
        E 0 90 61 69
        E 120 80 31 00
        E 0 80 49 00
        E 0 80 61 00
        E 120 90 61 69
        E 120 80 61 00
        E 120 90 19 69
        E 0 90 31 69
        E 0 90 49 69
        E 0 90 61 69
        E 120 80 19 00
        E 0 80 31 00
        E 0 80 49 00
        E 0 80 61 00
        E 120 90 61 69
        E 120 80 61 00
        E 120 90 31 69
        E 0 90 49 69
        E 0 90 61 69
        E 120 80 31 00
        E 0 80 49 00
        E 0 80 61 00
        E 120 90 61 69
        E 120 80 61 00
        E 120 90 19 69
        E 0 90 31 69
        E 0 90 49 69
        E 0 90 61 69
        E 120 80 19 00
        E 0 80 31 00
        E 0 80 49 00
        E 0 80 61 00
        E 360 90 30 64
        E 0 90 48 64
        E 0 90 60 64
        E 0 90 6c 66
        E 120 80 30 00
        E 0 80 48 00
        E 0 80 60 00
        E 0 80 6c 00
        <X 360 0
          /wFbYmVnaW5fcGIgc29uZ190cmFpbmVyX3BiXzRd
        >
        E 0 90 11 64
        E 0 90 18 66
        E 0 90 30 66
        E 0 90 48 66
        E 0 90 60 66
        E 0 90 73 64
        E 720 80 18 00
        E 0 80 30 00
        E 0 80 48 00
        E 0 80 60 00
        E 720 93 48 64
        E 0 93 4a 64
        E 0 93 60 64
        E 0 93 61 64
        E 0 93 62 64
        E 120 83 48 00
        E 0 83 4a 00
        E 0 83 60 00
        E 0 83 61 00
        E 0 83 62 00
        E 360 90 18 66
        E 0 90 30 66
        E 0 90 32 66
        E 0 90 48 66
        E 0 90 4a 66
        E 0 90 60 66
        E 0 90 62 66
        E 120 80 18 00
        E 360 80 60 00
        E 0 80 62 00
        E 120 80 30 00
        E 0 80 32 00
        E 0 80 48 00
        E 0 80 4a 00
        E 120 93 60 64
        E 0 93 61 64
        E 0 93 62 64
        E 120 83 60 00
        E 0 83 61 00
        E 0 83 62 00
        E 120 90 18 69
        E 0 90 30 69
        E 0 90 32 69
        E 0 90 48 69
        E 0 90 4a 69
        E 0 90 60 69
        E 0 90 62 69
        E 0 90 6c 69
        E 120 80 18 00
        E 0 80 6c 00
        E 360 80 60 00
        E 0 80 62 00
        E 120 80 30 00
        E 0 80 32 00
        E 0 80 48 00
        E 0 80 4a 00
        E 120 93 60 64
        E 0 93 61 64
        E 0 93 62 64
        E 120 83 60 00
        E 0 83 61 00
        E 0 83 62 00
        <X 120 0
          /wFbcGJfbm9ybSBzb25nX3RyYWluZXJfcGJfNF0=
        >
        E 0 90 18 64
        E 0 90 30 64
        E 0 90 48 64
        E 0 90 4a 64
        E 0 90 60 64
        E 0 90 62 64
        E 0 90 6c 66
        E 120 80 18 00
        E 0 80 30 00
        E 0 80 48 00
        E 0 80 4a 00
        E 0 80 6c 00
        E 360 80 60 00
        E 0 80 62 00
        E 960 93 18 64
        E 0 93 60 64
        E 0 93 61 64
        E 0 93 62 64
        E 120 83 18 00
        E 0 83 60 00
        E 0 83 61 00
        E 0 83 62 00
        E 120 93 60 64
        E 0 93 61 64
        E 0 93 62 64
        E 120 83 60 00
        E 0 83 61 00
        E 0 83 62 00
        E 600 93 18 64
        E 0 93 60 64
        E 0 93 61 64
        E 0 93 62 64
        E 120 83 18 00
        E 0 83 60 00
        E 0 83 61 00
        E 0 83 62 00
        E 120 93 60 64
        E 0 93 61 64
        E 0 93 62 64
        E 120 83 60 00
        E 0 83 61 00
        E 0 83 62 00
        E 600 93 48 64
        E 0 93 4a 64
        E 0 93 60 64
        E 0 93 61 64
        E 0 93 62 64
        E 120 83 48 00
        E 0 83 4a 00
        E 0 83 60 00
        E 0 83 61 00
        E 0 83 62 00
        E 120 93 60 64
        E 0 93 61 64
        E 0 93 62 64
        E 120 83 60 00
        E 0 83 61 00
        E 0 83 62 00
        E 120 90 18 66
        E 0 90 30 66
        E 0 90 32 66
        E 0 90 48 66
        E 0 90 4a 66
        E 0 90 60 66
        E 0 90 62 66
        E 120 80 18 00
        E 0 80 30 00
        E 0 80 32 00
        E 0 80 48 00
        E 0 80 4a 00
        E 360 80 60 00
        E 0 80 62 00
        E 960 93 48 64
        E 0 93 4a 64
        E 0 93 60 64
        E 0 93 61 64
        E 0 93 62 64
        E 120 83 48 00
        E 0 83 4a 00
        E 0 83 60 00
        E 0 83 61 00
        E 0 83 62 00
        E 120 93 60 64
        E 0 93 61 64
        E 0 93 62 64
        E 120 83 60 00
        E 0 83 61 00
        E 0 83 62 00
        E 120 90 18 67
        E 0 90 30 67
        E 0 90 32 67
        E 0 90 48 67
        E 0 90 4a 67
        E 0 90 60 67
        E 0 90 62 67
        E 0 90 6c 67
        E 0 90 74 64
        E 120 80 18 00
        E 0 80 6c 00
        E 360 80 60 00
        E 0 80 62 00
        E 120 80 30 00
        E 0 80 32 00
        E 0 80 48 00
        E 0 80 4a 00
        E 360 90 18 69
        E 0 90 30 69
        E 0 90 32 69
        E 0 90 48 69
        E 0 90 4a 69
        E 0 90 60 69
        E 0 90 62 69
        E 0 90 6c 69
        E 120 80 18 00
        E 0 80 6c 00
        E 360 80 60 00
        E 0 80 62 00
        E 120 80 30 00
        E 0 80 32 00
        E 0 80 48 00
        E 0 80 4a 00
        E 120 93 60 64
        E 0 93 61 64
        E 0 93 62 64
        E 120 83 60 00
        E 0 83 61 00
        E 0 83 62 00
        E 120 90 18 64
        E 0 90 30 64
        E 0 90 48 64
        E 0 90 4a 64
        E 0 90 60 64
        E 0 90 62 64
        E 0 90 6c 66
        E 120 80 18 00
        E 0 80 30 00
        E 0 80 48 00
        E 0 80 4a 00
        E 0 80 6c 00
        E 360 80 60 00
        E 0 80 62 00
        E 960 93 18 64
        E 0 93 60 64
        E 0 93 61 64
        E 0 93 62 64
        E 120 83 18 00
        E 0 83 60 00
        E 0 83 61 00
        E 0 83 62 00
        E 120 93 60 64
        E 0 93 61 64
        E 0 93 62 64
        E 120 83 60 00
        E 0 83 61 00
        E 0 83 62 00
        E 600 93 18 64
        E 0 93 60 64
        E 0 93 61 64
        E 0 93 62 64
        E 120 83 18 00
        E 0 83 60 00
        E 0 83 61 00
        E 0 83 62 00
        E 120 93 60 64
        E 0 93 61 64
        E 0 93 62 64
        E 120 83 60 00
        E 0 83 61 00
        E 0 83 62 00
        E 600 93 48 64
        E 0 93 4a 64
        E 0 93 60 64
        E 0 93 61 64
        E 0 93 62 64
        E 120 83 48 00
        E 0 83 4a 00
        E 0 83 60 00
        E 0 83 61 00
        E 0 83 62 00
        E 120 93 60 64
        E 0 93 61 64
        E 0 93 62 64
        E 120 83 60 00
        E 0 83 61 00
        E 0 83 62 00
        <X 120 0
          /wFbZW5kX3BiIHNvbmdfdHJhaW5lcl9wYl80XQ==
        >
        E 0 90 1f 64
        E 0 90 37 64
        E 0 90 4f 64
        E 0 90 67 64
        E 0 90 6c 70
        E 0 93 18 70
        E 0 93 30 70
        E 0 93 32 70
        E 0 93 48 70
        E 0 93 4a 70
        E 0 93 60 70
        E 0 93 61 70
        E 0 93 62 70
        E 120 80 6c 00
        E 360 80 74 00
        E 0 80 1f 00
        E 0 80 37 00
        E 0 80 4f 00
        E 0 80 67 00
        E 0 83 18 00
        E 0 83 30 00
        E 0 83 32 00
        E 0 83 48 00
        E 0 83 4a 00
        E 0 83 60 00
        E 0 83 61 00
        E 0 83 62 00
        E 960 93 48 64
        E 0 93 4a 64
        E 0 93 60 64
        E 0 93 61 64
        E 0 93 62 64
        E 120 83 48 00
        E 0 83 4a 00
        E 0 83 60 00
        E 0 83 61 00
        E 0 83 62 00
        E 120 93 60 64
        E 0 93 61 64
        E 0 93 62 64
        E 120 83 60 00
        E 0 83 61 00
        E 0 83 62 00
        E 120 90 18 67
        E 0 90 30 67
        E 0 90 32 67
        E 0 90 48 67
        E 0 90 4a 67
        E 0 90 60 67
        E 0 90 62 67
        E 0 90 6c 67
        E 120 80 18 00
        E 0 80 6c 00
        E 360 80 60 00
        E 0 80 62 00
        E 120 80 30 00
        E 0 80 32 00
        E 0 80 48 00
        E 0 80 4a 00
        E 120 93 60 64
        E 0 93 61 64
        E 0 93 62 64
        E 120 83 60 00
        E 0 83 61 00
        E 0 83 62 00
        E 120 90 18 69
        E 0 90 30 69
        E 0 90 32 69
        E 0 90 48 69
        E 0 90 4a 69
        E 0 90 60 69
        E 0 90 62 69
        E 0 90 6c 69
        E 120 80 18 00
        E 0 80 6c 00
        E 360 80 60 00
        E 0 80 62 00
        E 120 80 30 00
        E 0 80 32 00
        E 0 80 48 00
        E 0 80 4a 00
        E 120 90 6c 66
        E 0 93 60 64
        E 0 93 61 64
        E 0 93 62 64
        E 120 80 6c 00
        E 0 83 60 00
        E 0 83 61 00
        E 0 83 62 00
        E 120 90 18 64
        E 0 90 30 64
        E 0 90 48 64
        E 0 90 4a 64
        E 0 90 60 64
        E 0 90 62 64
        E 120 80 18 00
        E 0 80 30 00
        E 0 80 48 00
        E 0 80 4a 00
        E 360 80 60 00
        E 0 80 62 00
        E 960 93 18 64
        E 0 93 30 64
        E 0 93 48 64
        E 0 93 4a 64
        E 0 93 60 64
        E 0 93 61 64
        E 0 93 62 64
        E 120 83 18 00
        E 0 83 30 00
        E 0 83 48 00
        E 0 83 4a 00
        E 0 83 60 00
        E 0 83 61 00
        E 0 83 62 00
        E 120 93 60 64
        E 0 93 61 64
        E 0 93 62 64
        E 120 83 60 00
        E 0 83 61 00
        E 0 83 62 00
        E 600 93 18 64
        E 0 93 30 64
        E 0 93 48 64
        E 0 93 4a 64
        E 0 93 60 64
        E 0 93 61 64
        E 0 93 62 64
        E 120 83 18 00
        E 0 83 30 00
        E 0 83 48 00
        E 0 83 4a 00
        E 0 83 60 00
        E 0 83 61 00
        E 0 83 62 00
        E 120 93 60 64
        E 0 93 61 64
        E 0 93 62 64
        E 120 83 60 00
        E 0 83 61 00
        E 0 83 62 00
        E 600 93 48 64
        E 0 93 4a 64
        E 0 93 60 64
        E 0 93 61 64
        E 0 93 62 64
        E 120 83 48 00
        E 0 83 4a 00
        E 0 83 60 00
        E 0 83 61 00
        E 0 83 62 00
        E 360 90 18 66
        E 0 90 30 66
        E 0 90 32 66
        E 0 90 48 66
        E 0 90 4a 66
        E 0 90 60 66
        E 0 90 62 66
        E 120 80 18 00
        E 0 80 30 00
        E 0 80 32 00
        E 0 80 48 00
        E 0 80 4a 00
        E 360 80 60 00
        E 0 80 62 00
        E 960 93 48 64
        E 0 93 4a 64
        E 0 93 60 64
        E 0 93 61 64
        E 0 93 62 64
        E 120 83 48 00
        E 0 83 4a 00
        E 0 83 60 00
        E 0 83 61 00
        E 0 83 62 00
        E 120 93 60 64
        E 0 93 61 64
        E 0 93 62 64
        E 120 83 60 00
        E 0 83 61 00
        E 0 83 62 00
        E 120 90 18 67
        E 0 90 30 67
        E 0 90 32 67
        E 0 90 48 67
        E 0 90 4a 67
        E 0 90 60 67
        E 0 90 62 67
        E 0 90 6c 67
        E 120 80 18 00
        E 0 80 6c 00
        E 360 80 60 00
        E 0 80 62 00
        E 120 80 30 00
        E 0 80 32 00
        E 0 80 48 00
        E 0 80 4a 00
        E 120 93 60 64
        E 0 93 61 64
        E 0 93 62 64
        E 120 83 60 00
        E 0 83 61 00
        E 0 83 62 00
        E 120 90 30 69
        E 0 90 32 69
        E 0 90 48 69
        E 0 90 4a 69
        E 0 90 60 69
        E 0 90 62 69
        E 0 90 6c 69
        E 120 80 6c 00
        E 360 80 60 00
        E 0 80 62 00
        E 120 80 30 00
        E 0 80 32 00
        E 0 80 48 00
        E 0 80 4a 00
        E 120 93 60 64
        E 0 93 61 64
        E 0 93 62 64
        E 120 83 60 00
        E 0 83 61 00
        E 0 83 62 00
        E 120 80 11 00
        E 0 90 19 69
        E 0 90 31 69
        E 0 90 49 69
        E 0 90 61 69
        E 120 80 19 00
        E 0 80 31 00
        E 0 80 49 00
        E 0 80 61 00
        E 360 90 31 69
        E 0 90 49 69
        E 0 90 61 69
        E 120 80 31 00
        E 0 80 49 00
        E 0 80 61 00
        E 360 90 19 69
        E 0 90 31 69
        E 0 90 49 69
        E 0 90 61 69
        E 120 80 19 00
        E 0 80 31 00
        E 0 80 49 00
        E 0 80 61 00
        E 360 90 31 69
        E 0 90 49 69
        E 0 90 61 69
        E 120 80 31 00
        E 0 80 49 00
        E 0 80 61 00
        E 360 90 19 69
        E 0 90 31 69
        E 0 90 49 69
        E 0 90 61 69
        E 0 90 74 64
        E 120 80 19 00
        E 0 80 31 00
        E 0 80 49 00
        E 0 80 61 00
        E 360 90 31 69
        E 0 90 49 69
        E 0 90 61 69
        E 120 80 31 00
        E 0 80 49 00
        E 0 80 61 00
        E 360 90 31 69
        E 0 90 49 69
        E 0 90 61 69
        E 120 80 31 00
        E 0 80 49 00
        E 0 80 61 00
        E 360 90 30 64
        E 0 90 48 64
        E 0 90 60 64
        E 120 80 30 00
        E 0 80 48 00
        E 0 80 60 00
        E 120 80 73 00
        E 240 90 19 69
        E 0 90 31 69
        E 0 90 49 69
        E 0 90 61 69
        E 120 80 19 00
        E 0 80 31 00
        E 0 80 49 00
        E 0 80 61 00
        E 120 90 61 69
        E 120 80 61 00
        E 120 90 31 69
        E 0 90 49 69
        E 0 90 61 69
        E 120 80 31 00
        E 0 80 49 00
        E 0 80 61 00
        E 120 90 61 69
        E 120 80 61 00
        E 120 90 31 69
        E 0 90 49 69
        E 0 90 61 69
        E 120 80 31 00
        E 0 80 49 00
        E 0 80 61 00
        E 360 90 4a 6b
        E 0 90 62 6b
        E 120 80 4a 00
        E 0 80 62 00
        E 360 80 74 00
        E 0 90 1b 69
        E 0 90 33 69
        E 0 90 4b 69
        E 0 90 63 69
        E 120 80 1b 00
        E 0 80 33 00
        E 0 80 4b 00
        E 0 80 63 00
        E 120 90 63 69
        E 120 80 63 00
        E 120 90 33 69
        E 0 90 4b 69
        E 0 90 63 69
        E 120 80 33 00
        E 0 80 4b 00
        E 0 80 63 00
        E 120 90 63 69
        E 120 80 63 00
        E 120 90 33 69
        E 0 90 4b 69
        E 0 90 63 69
        E 120 80 33 00
        E 0 80 4b 00
        E 0 80 63 00
        E 360 90 4a 6b
        E 0 90 62 6b
        E 120 80 4a 00
        E 0 80 62 00
        E 360 90 1a 6c
        E 0 90 32 6c
        E 0 90 4a 6c
        E 0 90 62 6c
        E 120 80 1a 00
        E 0 80 32 00
        E 0 80 4a 00
        E 0 80 62 00
        E 120 90 62 6c
        E 120 80 62 00
        E 120 90 32 6c
        E 0 90 4a 6c
        E 0 90 62 6c
        E 120 80 32 00
        E 0 80 4a 00
        E 0 80 62 00
        E 120 90 62 6c
        E 120 80 62 00
        E 120 90 32 6c
        E 0 90 4a 6c
        E 0 90 62 6c
        E 120 80 32 00
        E 0 80 4a 00
        E 0 80 62 00
        E 360 90 49 6c
        E 0 90 61 6c
        E 120 80 49 00
        E 0 80 61 00
        E 360 90 1a 69
        E 0 90 32 69
        E 0 90 4a 69
        E 0 90 62 69
        E 120 80 1a 00
        E 0 80 32 00
        E 0 80 4a 00
        E 0 80 62 00
        E 120 90 62 69
        E 120 80 62 00
        E 120 90 32 69
        E 0 90 4a 69
        E 0 90 62 69
        E 120 80 32 00
        E 0 80 4a 00
        E 0 80 62 00
        E 120 90 62 69
        E 120 80 62 00
        E 120 90 32 69
        E 0 90 4a 69
        E 0 90 62 69
        E 120 80 32 00
        E 0 80 4a 00
        E 0 80 62 00
        E 120 90 60 6c
        E 0 90 6c 6c
        E 120 80 60 00
        E 0 80 6c 00
        E 120 90 48 6e
        E 0 90 60 6e
        E 120 80 48 00
        E 0 80 60 00
        E 360 90 19 69
        E 0 90 31 69
        E 0 90 49 69
        E 0 90 61 69
        E 0 90 6c 69
        E 120 80 19 00
        E 0 80 31 00
        E 0 80 49 00
        E 0 80 61 00
        E 0 80 6c 00
        E 120 90 61 69
        E 120 80 61 00
        E 120 90 31 69
        E 0 90 49 69
        E 0 90 61 69
        E 120 80 31 00
        E 0 80 49 00
        E 0 80 61 00
        E 120 90 61 69
        E 120 80 61 00
        E 120 90 31 69
        E 0 90 49 69
        E 0 90 61 69
        E 120 80 31 00
        E 0 80 49 00
        E 0 80 61 00
        E 360 90 4a 6b
        E 0 90 62 6b
        E 120 80 4a 00
        E 0 80 62 00
        E 360 90 1b 69
        E 0 90 33 69
        E 0 90 4b 69
        E 0 90 63 69
        E 120 80 1b 00
        E 0 80 33 00
        E 0 80 4b 00
        E 0 80 63 00
        E 120 90 63 69
        E 120 80 63 00
        E 120 90 33 69
        E 0 90 4b 69
        E 0 90 63 69
        E 120 80 33 00
        E 0 80 4b 00
        E 0 80 63 00
        E 120 90 63 69
        E 120 80 63 00
        E 120 90 33 69
        E 0 90 4b 69
        E 0 90 63 69
        E 120 80 33 00
        E 0 80 4b 00
        E 0 80 63 00
        E 360 90 4a 6b
        E 0 90 62 6b
        E 120 80 4a 00
        E 0 80 62 00
        E 360 90 1a 6c
        E 0 90 32 6c
        E 0 90 4a 6c
        E 0 90 62 6c
        E 120 80 1a 00
        E 0 80 32 00
        E 0 80 4a 00
        E 0 80 62 00
        E 120 90 62 6c
        E 120 80 62 00
        E 120 90 32 6c
        E 0 90 4a 6c
        E 0 90 62 6c
        E 120 80 32 00
        E 0 80 4a 00
        E 0 80 62 00
        E 120 90 62 6c
        E 120 80 62 00
        E 120 90 32 6c
        E 0 90 4a 6c
        E 0 90 62 6c
        E 120 80 32 00
        E 0 80 4a 00
        E 0 80 62 00
        E 360 90 49 6c
        E 0 90 61 6c
        E 120 80 49 00
        E 0 80 61 00
        E 360 90 1a 69
        E 0 90 32 69
        E 0 90 4a 69
        E 0 90 62 69
        E 120 80 1a 00
        E 0 80 32 00
        E 0 80 4a 00
        E 0 80 62 00
        E 120 90 62 69
        E 120 80 62 00
        E 120 90 32 69
        E 0 90 4a 69
        E 0 90 62 69
        E 120 80 32 00
        E 0 80 4a 00
        E 0 80 62 00
        E 120 90 62 69
        E 120 80 62 00
        E 120 90 32 69
        E 0 90 4a 69
        E 0 90 62 69
        E 120 80 32 00
        E 0 80 4a 00
        E 0 80 62 00
        E 120 90 63 6b
        E 0 90 6c 6b
        E 120 80 63 00
        E 0 80 6c 00
        E 120 90 4b 6e
        E 0 90 63 6e
        E 0 90 66 64
        E 120 80 4b 00
        E 0 80 63 00
        E 0 80 66 00
        E 360 90 19 69
        E 0 90 31 69
        E 0 90 49 69
        E 0 90 61 69
        E 0 90 6c 69
        E 120 80 19 00
        E 0 80 31 00
        E 0 80 49 00
        E 0 80 61 00
        E 0 80 6c 00
        E 120 90 61 69
        E 120 80 61 00
        E 120 90 31 69
        E 0 90 49 69
        E 0 90 61 69
        E 120 80 31 00
        E 0 80 49 00
        E 0 80 61 00
        E 120 90 61 69
        E 120 80 61 00
        E 120 90 31 69
        E 0 90 49 69
        E 0 90 61 69
        E 120 80 31 00
        E 0 80 49 00
        E 0 80 61 00
        E 360 90 4a 6b
        E 0 90 62 6b
        E 120 80 4a 00
        E 0 80 62 00
        E 360 90 1b 69
        E 0 90 33 69
        E 0 90 4b 69
        E 0 90 63 69
        E 120 80 1b 00
        E 0 80 33 00
        E 0 80 4b 00
        E 0 80 63 00
        E 120 90 63 69
        E 120 80 63 00
        E 120 90 33 69
        E 0 90 4b 69
        E 0 90 63 69
        E 120 80 33 00
        E 0 80 4b 00
        E 0 80 63 00
        E 120 90 63 69
        E 120 80 63 00
        E 120 90 33 69
        E 0 90 4b 69
        E 0 90 63 69
        E 120 80 33 00
        E 0 80 4b 00
        E 0 80 63 00
        E 360 90 4a 6b
        E 0 90 62 6b
        E 120 80 4a 00
        E 0 80 62 00
        E 360 90 1a 6c
        E 0 90 32 6c
        E 0 90 4a 6c
        E 0 90 62 6c
        E 120 80 1a 00
        E 0 80 32 00
        E 0 80 4a 00
        E 0 80 62 00
        E 120 90 62 6c
        E 120 80 62 00
        E 120 90 32 6c
        E 0 90 4a 6c
        E 0 90 62 6c
        E 120 80 32 00
        E 0 80 4a 00
        E 0 80 62 00
        E 120 90 62 6c
        E 120 80 62 00
        E 120 90 32 6c
        E 0 90 4a 6c
        E 0 90 62 6c
        E 120 80 32 00
        E 0 80 4a 00
        E 0 80 62 00
        E 360 90 49 6c
        E 0 90 61 6c
        E 120 80 49 00
        E 0 80 61 00
        E 360 90 1a 69
        E 0 90 32 69
        E 0 90 4a 69
        E 0 90 62 69
        E 120 80 1a 00
        E 0 80 32 00
        E 0 80 4a 00
        E 0 80 62 00
        E 120 90 62 69
        E 120 80 62 00
        E 120 90 32 69
        E 0 90 4a 69
        E 0 90 62 69
        E 120 80 32 00
        E 0 80 4a 00
        E 0 80 62 00
        E 120 90 62 69
        E 120 80 62 00
        E 120 90 32 69
        E 0 90 4a 69
        E 0 90 62 69
        E 120 80 32 00
        E 0 80 4a 00
        E 0 80 62 00
        E 120 90 60 6c
        E 0 90 6c 6c
        E 120 80 60 00
        E 0 80 6c 00
        E 120 90 48 6e
        E 0 90 60 6e
        E 120 80 48 00
        E 0 80 60 00
        E 360 90 19 69
        E 0 90 31 69
        E 0 90 49 69
        E 0 90 61 69
        E 0 90 6c 69
        E 120 80 19 00
        E 0 80 31 00
        E 0 80 49 00
        E 0 80 61 00
        E 0 80 6c 00
        E 120 90 61 69
        E 120 80 61 00
        E 120 90 31 69
        E 0 90 49 69
        E 0 90 61 69
        E 120 80 31 00
        E 0 80 49 00
        E 0 80 61 00
        E 120 90 61 69
        E 120 80 61 00
        E 120 90 31 69
        E 0 90 49 69
        E 0 90 61 69
        E 120 80 31 00
        E 0 80 49 00
        E 0 80 61 00
        E 360 90 4a 6b
        E 0 90 62 6b
        E 120 80 4a 00
        E 0 80 62 00
        E 360 90 1b 69
        E 0 90 33 69
        E 0 90 4b 69
        E 0 90 63 69
        E 120 80 1b 00
        E 0 80 33 00
        E 0 80 4b 00
        E 0 80 63 00
        E 120 90 63 69
        E 120 80 63 00
        E 120 90 33 69
        E 0 90 4b 69
        E 0 90 63 69
        E 120 80 33 00
        E 0 80 4b 00
        E 0 80 63 00
        E 120 90 63 69
        E 120 80 63 00
        E 120 90 33 69
        E 0 90 4b 69
        E 0 90 63 69
        E 120 80 33 00
        E 0 80 4b 00
        E 0 80 63 00
        E 360 90 4a 6b
        E 0 90 62 6b
        E 120 80 4a 00
        E 0 80 62 00
        E 360 90 1a 6c
        E 0 90 32 6c
        E 0 90 4a 6c
        E 0 90 62 6c
        E 120 80 1a 00
        E 0 80 32 00
        E 0 80 4a 00
        E 0 80 62 00
        E 120 90 62 6c
        E 120 80 62 00
        E 120 90 32 6c
        E 0 90 4a 6c
        E 0 90 62 6c
        E 120 80 32 00
        E 0 80 4a 00
        E 0 80 62 00
        E 120 90 62 6c
        E 120 80 62 00
        E 120 90 32 6c
        E 0 90 4a 6c
        E 0 90 62 6c
        E 120 80 32 00
        E 0 80 4a 00
        E 0 80 62 00
        E 360 90 49 6c
        E 0 90 61 6c
        E 120 80 49 00
        E 0 80 61 00
        E 360 90 1a 69
        E 0 90 32 69
        E 0 90 4a 69
        E 0 90 62 69
        E 120 80 1a 00
        E 0 80 32 00
        E 0 80 4a 00
        E 0 80 62 00
        E 120 90 62 69
        E 120 80 62 00
        E 120 90 32 69
        E 0 90 4a 69
        E 0 90 62 69
        E 120 80 32 00
        E 0 80 4a 00
        E 0 80 62 00
        E 120 90 62 69
        E 120 80 62 00
        E 120 90 32 69
        E 0 90 4a 69
        E 0 90 62 69
        E 120 80 32 00
        E 0 80 4a 00
        E 0 80 62 00
        E 120 90 60 6c
        E 0 90 6c 6c
        E 120 80 60 00
        E 0 80 6c 00
        E 120 90 48 6e
        E 0 90 60 6e
        E 120 80 48 00
        E 0 80 60 00
        E 360 90 19 69
        E 0 90 31 69
        E 0 90 49 69
        E 0 90 61 69
        E 0 90 6c 69
        E 120 80 19 00
        E 0 80 31 00
        E 0 80 49 00
        E 0 80 61 00
        E 0 80 6c 00
        E 3720 b0 7b 00
        GUID {23A2407C-EA69-4670-B016-AFD8225151FB}
        IGNTEMPO 0 120.00000000 4 4
        SRCCOLOR 11
        VELLANE 132 71 60
        COLORMAP "C:\Program Files\REAPER\Data\color_maps\rockband_guitarbass.png"
        TEXTSTRINGFILE "C:\Program Files\REAPER (x64)\Data\Text_Strings\Text Events List - PRO Trainers.txt"
        CFGEDITVIEW -9792.000000 11.524206 9 12 0 0 0
        CFGEDIT 1 1 0 1 1 0 1 1 1 1 1 0.25000000 -4 0 1025 558 0 2 1 1 0.00000000 0 1 1 0 0.500000 0 0 1.000000 64
        KEYSNAP 0 0 "102034050607" 0 "Major"
        EVTFILTER 0 -1 -1 -1 -1 0 1 0 0 -1.00000000 -1.00000000
      >
    >
  >
  <TRACK '{7822EF47-EBF0-4124-97C2-2DCA55DE31C3}'
    NAME "EVENTS"
    PEAKCOL 16576
    BEAT -1
    AUTOMODE 0
    VOLPAN 1.00000000000000 0.00000000000000 -1.00000000000000 -1.00000000000000 1.00000000000000
    MUTESOLO 0 0 0
    IPHASE 0
    ISBUS 0 0
    BUSCOMP 0 0
    SHOWINMIX 1 0.666700 0.500000 1 0.500000 -1 -1 -1
    FREEMODE 0
    SEL 0
    REC 0 0 0 0 0 0 0
    VU 2
    TRACKHEIGHT 0 0
    INQ 0 0 0 0.5000000000 100 0 0 100
    NCHAN 2
    FX 1
    TRACKID {7822EF47-EBF0-4124-97C2-2DCA55DE31C3}
    PERF 0
    MIDIOUT -1
    MAINSEND 1 0
    <ITEM
      POSITION 0.00000000000000
      SNAPOFFS 0.00000000000000
      LENGTH 109.09842099999999
      LOOP 0
      ALLTAKES 0
      SEL 0
      FADEIN 1 0.000000 0.000000 1 0
      FADEOUT 1 0.000000 0.000000 1 0
      MUTE 0
      IGUID {22E12080-EA78-4244-853A-5884AF2A0EC1}
      IID 6
      NAME "EVENTS"
      VOLPAN 1.000000 0.000000 1.000000 -1.000000
      SOFFS 0.00000000000000 0.00000000000000
      PLAYRATE 1.00000000000000 1 0.00000000000000 -1
      CHANMODE 0
      GUID {E804590C-5BDD-4441-8258-092946B2702B}
      <SOURCE MIDI
        HASDATA 1 480 QN
        POOLEDEVTS {9158C355-F704-4E8E-9475-F2BE104AD34C}
        <X 0 0
          /wNFVkVOVFM=
        >
        <X 7680 0
          /wFbcHJjX2ludHJvXQ==
        >
        <X 480 0
          /wFbY3Jvd2Rfbm9jbGFwXQ==
        >
        <X 0 0
          /wFbbXVzaWNfc3RhcnRd
        >
        <X 0 0
          /wFbY3Jvd2Rfbm9ybWFsXQ==
        >
        <X 30240 0
          /wFbY3Jvd2RfaW50ZW5zZV0=
        >
        <X 0 0
          /wFbcHJjX3ZlcnNlXzFd
        >
        <X 30720 0
          /wFbcHJjX2Nob3J1c18xXQ==
        >
        <X 30720 0
          /wFbcHJjX3ZlcnNlXzJd
        >
        <X 30720 0
          /wFbY3Jvd2RfY2xhcF0=
        >
        <X 0 0
          /wFbY3Jvd2Rfbm9ybWFsXQ==
        >
        <X 0 0
          /wFbcHJjX2Jhc3Nfc29sb10=
        >
        <X 30720 0
          /wFbcHJjX2Nob3J1c18zXQ==
        >
        <X 31200 0
          /wFbY3Jvd2RfcmVhbHRpbWVd
        >
        <X 0 0
          /wFbbXVzaWNfZW5kXQ==
        >
        <X 3355 0
          /wFbZW5kXQ==
        >
        E 5 b0 7b 00
        GUID {4BE9687C-D075-4E65-961C-16E538856363}
        IGNTEMPO 0 120.00000000 4 4
        SRCCOLOR 8
        VELLANE 132 71 60
        COLORMAP "C:\Program Files\REAPER\Data\color_maps\rockband_guitarbass.png"
        CFGEDITVIEW -14134.570572 10.220130 61 12 0 0 0
        CFGEDIT 1 1 0 1 1 0 1 1 1 1 1 0.25000000 -4 0 1025 558 0 0 1 1 0.00000000 0 1 0 0 0.500000 0 0 1.000000 64
        KEYSNAP 0 9 "102034050607" 0 "Major"
        EVTFILTER 0 -1 -1 -1 -1 0 1 0 0 -1.00000000 -1.00000000
      >
    >
  >
  <TRACK '{D6EAB4D0-C409-49D4-A1C0-693FEBE821CB}'
    NAME "VENUE"
    PEAKCOL 16576
    BEAT -1
    AUTOMODE 0
    VOLPAN 1.00000000000000 0.00000000000000 -1.00000000000000 -1.00000000000000 1.00000000000000
    MUTESOLO 0 0 0
    IPHASE 0
    ISBUS 1 1
    BUSCOMP 1 0
    SHOWINMIX 1 0.666700 0.500000 1 0.500000 -1 -1 -1
    FREEMODE 0
    SEL 0
    REC 0 0 0 0 0 0 0
    VU 2
    TRACKHEIGHT 0 0
    INQ 0 0 0 0.5000000000 100 0 0 100
    NCHAN 2
    FX 1
    TRACKID {D6EAB4D0-C409-49D4-A1C0-693FEBE821CB}
    PERF 0
    MIDIOUT -1
    MAINSEND 1 0
    <ITEM
      POSITION 0.00000000000000
      SNAPOFFS 0.00000000000000
      LENGTH 109.09842099999999
      LOOP 0
      ALLTAKES 0
      SEL 0
      FADEIN 1 0.000000 0.000000 1 0
      FADEOUT 1 0.000000 0.000000 1 0
      MUTE 0
      IGUID {7E708802-8970-4286-8268-1BEA6FA51CF9}
      IID 7
      NAME "VENUE"
      VOLPAN 1.000000 0.000000 1.000000 -1.000000
      SOFFS 0.00000000000000 0.00000000000000
      PLAYRATE 1.00000000000000 1 0.00000000000000 -1
      CHANMODE 0
      GUID {7B3C31C0-29C6-410D-878E-F979171EF7E8}
      <SOURCE MIDI
        HASDATA 1 480 QN
        POOLEDEVTS {07BF2678-12BD-4453-BDBE-AF57FD40CA7F}
        <X 0 0
          /wNWRU5VRQ==
        >
        <X 0 0
          /wFbbGlnaHRpbmcgKGludHJvKV0=
        >
        <X 0 0
          /wFbUHJvRmlsbV9hLnBwXQ==
        >
        <X 0 0
          /wFbY29vcF9hbGxfZmFyXQ==
        >
        <X 7185 0
          /wFbUHJvRmlsbV9hLnBwXQ==
        >
        <X 0 0
          /wFbbGlnaHRpbmcgKGludHJvKV0=
        >
        <X 480 0
          /wFbUHJvRmlsbV9hLnBwXQ==
        >
        <X 0 0
          /wFbbGlnaHRpbmcgKGxvb3Bfd2FybSld
        >
        <X 15 0
          /wFbY29vcF9iX25lYXJd
        >
        <X 3810 0
          /wFbY29vcF9ia19uZWFyXQ==
        >
        <X 1950 0
          /wFbY29vcF9kX25lYXJd
        >
        <X 3360 0
          /wFbY29vcF9iX25lYXJd
        >
        <X 2880 0
          /wFbY29vcF9ia19uZWFyXQ==
        >
        <X 1410 0
          /wFbY29vcF9ia19uZWFyXQ==
        >
        <X 990 0
          /wFbY29vcF9ia19uZWFyXQ==
        >
        <X 1920 0
          /wFbY29vcF9hbGxfZmFyXQ==
        >
        <X 3840 0
          /wFbY29vcF9kX2JlaGluZF0=
        >
        <X 2865 0
          /wFbY29vcF9ia19uZWFyXQ==
        >
        <X 1920 0
          /wFbY29vcF9hbGxfYmVoaW5kXQ==
        >
        <X 2865 0
          /wFbY29vcF9kX25lYXJd
        >
        <X 2415 0
          /wFbUHJvRmlsbV9hLnBwXQ==
        >
        <X 0 0
          /wFbbGlnaHRpbmcgKGxvb3Bfd2FybSld
        >
        <X 465 0
          /wFbY29vcF9idl9iZWhpbmRd
        >
        <X 15 0
          /wFbUHJvRmlsbV9hLnBwXQ==
        >
        <X 0 0
          /wFbbGlnaHRpbmcgKHZlcnNlKV0=
        >
        <X 15 0
          /wFbbmV4dF0=
        >
        <X 930 0
          /wFbY29vcF9iX25lYXJd
        >
        <X 30 0
          /wFbbmV4dF0=
        >
        <X 960 0
          /wFbbmV4dF0=
        >
        <X 960 0
          /wFbbmV4dF0=
        >
        <X 0 0
          /wFbY29vcF92X25lYXJd
        >
        <X 960 0
          /wFbbmV4dF0=
        >
        <X 960 0
          /wFbbmV4dF0=
        >
        <X 450 0
          /wFbY29vcF9idl9iZWhpbmRd
        >
        <X 510 0
          /wFbbmV4dF0=
        >
        <X 960 0
          /wFbbmV4dF0=
        >
        <X 945 0
          /wFbY29vcF92X25lYXJd
        >
        <X 15 0
          /wFbbmV4dF0=
        >
        <X 960 0
          /wFbbmV4dF0=
        >
        <X 0 0
          /wFbY29vcF9iX25lYXJd
        >
        <X 960 0
          /wFbbmV4dF0=
        >
        <X 960 0
          /wFbbmV4dF0=
        >
        <X 930 0
          /wFbY29vcF9idl9uZWFyXQ==
        >
        <X 30 0
          /wFbbmV4dF0=
        >
        <X 960 0
          /wFbbmV4dF0=
        >
        <X 960 0
          /wFbbmV4dF0=
        >
        <X 960 0
          /wFbbmV4dF0=
        >
        <X 945 0
          /wFbY29vcF92X2Nsb3NldXBd
        >
        <X 15 0
          /wFbbmV4dF0=
        >
        <X 960 0
          /wFbbmV4dF0=
        >
        <X 960 0
          /wFbbmV4dF0=
        >
        <X 960 0
          /wFbbmV4dF0=
        >
        <X 960 0
          /wFbbmV4dF0=
        >
        <X 480 0
          /wFbY29vcF9kX25lYXJd
        >
        <X 480 0
          /wFbbmV4dF0=
        >
        <X 960 0
          /wFbbmV4dF0=
        >
        <X 480 0
          /wFbY29vcF9idl9iZWhpbmRd
        >
        <X 480 0
          /wFbbmV4dF0=
        >
        <X 960 0
          /wFbbmV4dF0=
        >
        <X 450 0
          /wFbY29vcF92X25lYXJd
        >
        <X 510 0
          /wFbbmV4dF0=
        >
        <X 960 0
          /wFbbmV4dF0=
        >
        <X 480 0
          /wFbY29vcF9kX2JlaGluZF0=
        >
        <X 480 0
          /wFbbmV4dF0=
        >
        <X 960 0
          /wFbbmV4dF0=
        >
        <X 960 0
          /wFbbmV4dF0=
        >
        <X 465 0
          /wFbY29vcF9ia19uZWFyXQ==
        >
        <X 495 0
          /wFbbmV4dF0=
        >
        <X 960 0
          /wFbbmV4dF0=
        >
        <X 465 0
          /wFbUHJvRmlsbV9hLnBwXQ==
        >
        <X 465 0
          /wFbY29vcF9idl9uZWFyXQ==
        >
        <X 15 0
          /wFbUHJvRmlsbV9hLnBwXQ==
        >
        <X 0 0
          /wFbbGlnaHRpbmcgKG1hbnVhbF93YXJtKV0=
        >
        <X 15 0
          /wFbbmV4dF0=
        >
        <X 480 0
          /wFbbmV4dF0=
        >
        <X 465 0
          /wFbY29vcF9iX25lYXJd
        >
        <X 15 0
          /wFbbmV4dF0=
        >
        <X 480 0
          /wFbbmV4dF0=
        >
        <X 480 0
          /wFbbmV4dF0=
        >
        <X 480 0
          /wFbbmV4dF0=
        >
        <X 480 0
          /wFbbmV4dF0=
        >
        <X 480 0
          /wFbbmV4dF0=
        >
        <X 450 0
          /wFbY29vcF9idl9uZWFyXQ==
        >
        <X 30 0
          /wFbbmV4dF0=
        >
        <X 480 0
          /wFbbmV4dF0=
        >
        <X 480 0
          /wFbbmV4dF0=
        >
        <X 480 0
          /wFbbmV4dF0=
        >
        <X 465 0
          /wFbY29vcF9idl9iZWhpbmRd
        >
        <X 15 0
          /wFbbmV4dF0=
        >
        <X 480 0
          /wFbbmV4dF0=
        >
        <X 480 0
          /wFbbmV4dF0=
        >
        <X 480 0
          /wFbbmV4dF0=
        >
        <X 465 0
          /wFbY29vcF92X2Nsb3NldXBd
        >
        <X 15 0
          /wFbbmV4dF0=
        >
        <X 480 0
          /wFbbmV4dF0=
        >
        <X 480 0
          /wFbbmV4dF0=
        >
        <X 480 0
          /wFbbmV4dF0=
        >
        <X 480 0
          /wFbbmV4dF0=
        >
        <X 480 0
          /wFbbmV4dF0=
        >
        <X 480 0
          /wFbbmV4dF0=
        >
        <X 465 0
          /wFbY29vcF9kX2JlaGluZF0=
        >
        <X 15 0
          /wFbbmV4dF0=
        >
        <X 480 0
          /wFbbmV4dF0=
        >
        <X 480 0
          /wFbbmV4dF0=
        >
        <X 450 0
          /wFbY29vcF9idl9uZWFyXQ==
        >
        <X 30 0
          /wFbbmV4dF0=
        >
        <X 480 0
          /wFbbmV4dF0=
        >
        <X 480 0
          /wFbbmV4dF0=
        >
        <X 480 0
          /wFbbmV4dF0=
        >
        <X 465 0
          /wFbY29vcF92X2JlaGluZF0=
        >
        <X 15 0
          /wFbbmV4dF0=
        >
        <X 480 0
          /wFbbmV4dF0=
        >
        <X 450 0
          /wFbY29vcF92X2Nsb3NldXBd
        >
        <X 30 0
          /wFbbmV4dF0=
        >
        <X 480 0
          /wFbbmV4dF0=
        >
        <X 480 0
          /wFbbmV4dF0=
        >
        <X 450 0
          /wFbY29vcF9kX25lYXJd
        >
        <X 30 0
          /wFbbmV4dF0=
        >
        <X 480 0
          /wFbbmV4dF0=
        >
        <X 480 0
          /wFbbmV4dF0=
        >
        <X 450 0
          /wFbY29vcF9kX2JlaGluZF0=
        >
        <X 30 0
          /wFbbmV4dF0=
        >
        <X 480 0
          /wFbbmV4dF0=
        >
        <X 450 0
          /wFbY29vcF9kX25lYXJd
        >
        <X 30 0
          /wFbbmV4dF0=
        >
        <X 480 0
          /wFbbmV4dF0=
        >
        <X 480 0
          /wFbbmV4dF0=
        >
        <X 480 0
          /wFbbmV4dF0=
        >
        <X 450 0
          /wFbY29vcF9idl9uZWFyXQ==
        >
        <X 30 0
          /wFbbmV4dF0=
        >
        <X 480 0
          /wFbbmV4dF0=
        >
        <X 480 0
          /wFbbmV4dF0=
        >
        <X 480 0
          /wFbbmV4dF0=
        >
        <X 480 0
          /wFbbmV4dF0=
        >
        <X 0 0
          /wFbY29vcF92X25lYXJd
        >
        <X 480 0
          /wFbbmV4dF0=
        >
        <X 480 0
          /wFbbmV4dF0=
        >
        <X 450 0
          /wFbY29vcF9idl9iZWhpbmRd
        >
        <X 30 0
          /wFbbmV4dF0=
        >
        <X 480 0
          /wFbbmV4dF0=
        >
        <X 480 0
          /wFbbmV4dF0=
        >
        <X 480 0
          /wFbbmV4dF0=
        >
        <X 480 0
          /wFbbmV4dF0=
        >
        <X 480 0
          /wFbbmV4dF0=
        >
        <X 480 0
          /wFbbmV4dF0=
        >
        <X 480 0
          /wFbbmV4dF0=
        >
        <X 465 0
          /wFbY29vcF9idl9uZWFyXQ==
        >
        <X 15 0
          /wFbbmV4dF0=
        >
        <X 480 0
          /wFbbmV4dF0=
        >
        <X 480 0
          /wFbbmV4dF0=
        >
        <X 480 0
          /wFbbmV4dF0=
        >
        <X 465 0
          /wFbUHJvRmlsbV9hLnBwXQ==
        >
        <X 0 0
          /wFbbGlnaHRpbmcgKG1hbnVhbF93YXJtKV0=
        >
        <X 15 0
          /wFbbmV4dF0=
        >
        <X 465 0
          /wFbUHJvRmlsbV9hLnBwXQ==
        >
        <X 0 0
          /wFbbGlnaHRpbmcgKHZlcnNlKV0=
        >
        <X 0 0
          /wFbY29vcF9idl9uZWFyXQ==
        >
        <X 15 0
          /wFbbmV4dF0=
        >
        <X 960 0
          /wFbbmV4dF0=
        >
        <X 0 0
          /wFbY29vcF9kX25lYXJd
        >
        <X 960 0
          /wFbbmV4dF0=
        >
        <X 960 0
          /wFbbmV4dF0=
        >
        <X 960 0
          /wFbbmV4dF0=
        >
        <X 960 0
          /wFbbmV4dF0=
        >
        <X 960 0
          /wFbbmV4dF0=
        >
        <X 0 0
          /wFbY29vcF9idl9uZWFyXQ==
        >
        <X 960 0
          /wFbbmV4dF0=
        >
        <X 945 0
          /wFbY29vcF92X2Nsb3NldXBd
        >
        <X 15 0
          /wFbbmV4dF0=
        >
        <X 945 0
          /wFbY29vcF9idl9uZWFyXQ==
        >
        <X 15 0
          /wFbbmV4dF0=
        >
        <X 960 0
          /wFbbmV4dF0=
        >
        <X 480 0
          /wFbY29vcF92X25lYXJd
        >
        <X 480 0
          /wFbbmV4dF0=
        >
        <X 960 0
          /wFbbmV4dF0=
        >
        <X 960 0
          /wFbbmV4dF0=
        >
        <X 960 0
          /wFbbmV4dF0=
        >
        <X 945 0
          /wFbY29vcF9iX2JlaGluZF0=
        >
        <X 15 0
          /wFbbmV4dF0=
        >
        <X 945 0
          /wFbY29vcF92X2Nsb3NldXBd
        >
        <X 15 0
          /wFbbmV4dF0=
        >
        <X 960 0
          /wFbbmV4dF0=
        >
        <X 960 0
          /wFbbmV4dF0=
        >
        <X 960 0
          /wFbbmV4dF0=
        >
        <X 960 0
          /wFbbmV4dF0=
        >
        <X 465 0
          /wFbY29vcF9kX25lYXJd
        >
        <X 495 0
          /wFbbmV4dF0=
        >
        <X 960 0
          /wFbbmV4dF0=
        >
        <X 465 0
          /wFbY29vcF9iX25lYXJd
        >
        <X 495 0
          /wFbbmV4dF0=
        >
        <X 960 0
          /wFbbmV4dF0=
        >
        <X 480 0
          /wFbY29vcF92X25lYXJd
        >
        <X 480 0
          /wFbbmV4dF0=
        >
        <X 960 0
          /wFbbmV4dF0=
        >
        <X 960 0
          /wFbbmV4dF0=
        >
        <X 480 0
          /wFbY29vcF9kX25lYXJd
        >
        <X 480 0
          /wFbbmV4dF0=
        >
        <X 960 0
          /wFbbmV4dF0=
        >
        <X 450 0
          /wFbY29vcF9iX25lYXJd
        >
        <X 510 0
          /wFbbmV4dF0=
        >
        <X 960 0
          /wFbbmV4dF0=
        >
        <X 0 0
          /wFbY29vcF9hbGxfZmFyXQ==
        >
        <X 465 0
          /wFbUHJvRmlsbV9hLnBwXQ==
        >
        <X 0 0
          /wFbbGlnaHRpbmcgKHZlcnNlKV0=
        >
        <X 480 0
          /wFbUHJvRmlsbV9hLnBwXQ==
        >
        <X 0 0
          /wFbbGlnaHRpbmcgKGRpc2Nob3JkKV0=
        >
        <X 0 0
          /wFbY29vcF9iX25lYXJd
        >
        <X 15 0
          /wFbbmV4dF0=
        >
        <X 960 0
          /wFbbmV4dF0=
        >
        <X 960 0
          /wFbbmV4dF0=
        >
        <X 945 0
          /wFbY29vcF9hbGxfYmVoaW5kXQ==
        >
        <X 15 0
          /wFbbmV4dF0=
        >
        <X 960 0
          /wFbbmV4dF0=
        >
        <X 960 0
          /wFbbmV4dF0=
        >
        <X 960 0
          /wFbbmV4dF0=
        >
        <X 0 0
          /wFbY29vcF9iX25lYXJd
        >
        <X 960 0
          /wFbbmV4dF0=
        >
        <X 945 0
          /wFbY29vcF9iX25lYXJd
        >
        <X 15 0
          /wFbbmV4dF0=
        >
        <X 960 0
          /wFbbmV4dF0=
        >
        <X 930 0
          /wFbY29vcF9mcm9udF9uZWFyXQ==
        >
        <X 30 0
          /wFbbmV4dF0=
        >
        <X 960 0
          /wFbbmV4dF0=
        >
        <X 945 0
          /wFbY29vcF9hbGxfbmVhcl0=
        >
        <X 15 0
          /wFbbmV4dF0=
        >
        <X 960 0
          /wFbbmV4dF0=
        >
        <X 960 0
          /wFbbmV4dF0=
        >
        <X 960 0
          /wFbbmV4dF0=
        >
        <X 960 0
          /wFbbmV4dF0=
        >
        <X 0 0
          /wFbY29vcF9iZ19uZWFyXQ==
        >
        <X 960 0
          /wFbbmV4dF0=
        >
        <X 960 0
          /wFbbmV4dF0=
        >
        <X 960 0
          /wFbbmV4dF0=
        >
        <X 960 0
          /wFbbmV4dF0=
        >
        <X 0 0
          /wFbY29vcF9iX25lYXJd
        >
        <X 960 0
          /wFbbmV4dF0=
        >
        <X 930 0
          /wFbY29vcF9hbGxfbmVhcl0=
        >
        <X 30 0
          /wFbbmV4dF0=
        >
        <X 960 0
          /wFbbmV4dF0=
        >
        <X 960 0
          /wFbbmV4dF0=
        >
        <X 960 0
          /wFbbmV4dF0=
        >
        <X 465 0
          /wFbY29vcF9kX2JlaGluZF0=
        >
        <X 495 0
          /wFbbmV4dF0=
        >
        <X 960 0
          /wFbbmV4dF0=
        >
        <X 450 0
          /wFbY29vcF9kX2JlaGluZF0=
        >
        <X 510 0
          /wFbbmV4dF0=
        >
        <X 960 0
          /wFbbmV4dF0=
        >
        <X 960 0
          /wFbbmV4dF0=
        >
        <X 960 0
          /wFbbmV4dF0=
        >
        <X 0 0
          /wFbY29vcF9hbGxfZmFyXQ==
        >
        <X 465 0
          /wFbUHJvRmlsbV9hLnBwXQ==
        >
        <X 465 0
          /wFbY29vcF92X25lYXJd
        >
        <X 15 0
          /wFbUHJvRmlsbV9hLnBwXQ==
        >
        <X 0 0
          /wFbbGlnaHRpbmcgKG1hbnVhbF93YXJtKV0=
        >
        <X 15 0
          /wFbbmV4dF0=
        >
        <X 480 0
          /wFbbmV4dF0=
        >
        <X 450 0
          /wFbY29vcF9idl9uZWFyXQ==
        >
        <X 30 0
          /wFbbmV4dF0=
        >
        <X 480 0
          /wFbbmV4dF0=
        >
        <X 480 0
          /wFbbmV4dF0=
        >
        <X 480 0
          /wFbbmV4dF0=
        >
        <X 465 0
          /wFbY29vcF9iX25lYXJd
        >
        <X 15 0
          /wFbbmV4dF0=
        >
        <X 480 0
          /wFbbmV4dF0=
        >
        <X 480 0
          /wFbbmV4dF0=
        >
        <X 480 0
          /wFbbmV4dF0=
        >
        <X 465 0
          /wFbY29vcF92X25lYXJd
        >
        <X 15 0
          /wFbbmV4dF0=
        >
        <X 480 0
          /wFbbmV4dF0=
        >
        <X 480 0
          /wFbbmV4dF0=
        >
        <X 480 0
          /wFbbmV4dF0=
        >
        <X 465 0
          /wFbY29vcF9kX2JlaGluZF0=
        >
        <X 15 0
          /wFbbmV4dF0=
        >
        <X 480 0
          /wFbbmV4dF0=
        >
        <X 465 0
          /wFbY29vcF9idl9uZWFyXQ==
        >
        <X 15 0
          /wFbbmV4dF0=
        >
        <X 480 0
          /wFbbmV4dF0=
        >
        <X 480 0
          /wFbbmV4dF0=
        >
        <X 480 0
          /wFbbmV4dF0=
        >
        <X 480 0
          /wFbbmV4dF0=
        >
        <X 480 0
          /wFbbmV4dF0=
        >
        <X 450 0
          /wFbY29vcF9idl9uZWFyXQ==
        >
        <X 30 0
          /wFbbmV4dF0=
        >
        <X 480 0
          /wFbbmV4dF0=
        >
        <X 450 0
          /wFbY29vcF9idl9uZWFyXQ==
        >
        <X 30 0
          /wFbbmV4dF0=
        >
        <X 480 0
          /wFbbmV4dF0=
        >
        <X 465 0
          /wFbY29vcF9kX25lYXJd
        >
        <X 15 0
          /wFbbmV4dF0=
        >
        <X 480 0
          /wFbbmV4dF0=
        >
        <X 480 0
          /wFbbmV4dF0=
        >
        <X 480 0
          /wFbbmV4dF0=
        >
        <X 480 0
          /wFbbmV4dF0=
        >
        <X 0 0
          /wFbY29vcF9iX25lYXJd
        >
        <X 480 0
          /wFbbmV4dF0=
        >
        <X 465 0
          /wFbY29vcF92X2Nsb3NldXBd
        >
        <X 15 0
          /wFbbmV4dF0=
        >
        <X 480 0
          /wFbbmV4dF0=
        >
        <X 480 0
          /wFbbmV4dF0=
        >
        <X 480 0
          /wFbbmV4dF0=
        >
        <X 480 0
          /wFbbmV4dF0=
        >
        <X 480 0
          /wFbbmV4dF0=
        >
        <X 450 0
          /wFbY29vcF9idl9iZWhpbmRd
        >
        <X 30 0
          /wFbbmV4dF0=
        >
        <X 480 0
          /wFbbmV4dF0=
        >
        <X 480 0
          /wFbbmV4dF0=
        >
        <X 465 0
          /wFbY29vcF9idl9uZWFyXQ==
        >
        <X 15 0
          /wFbbmV4dF0=
        >
        <X 480 0
          /wFbbmV4dF0=
        >
        <X 480 0
          /wFbbmV4dF0=
        >
        <X 480 0
          /wFbbmV4dF0=
        >
        <X 480 0
          /wFbbmV4dF0=
        >
        <X 480 0
          /wFbbmV4dF0=
        >
        <X 480 0
          /wFbbmV4dF0=
        >
        <X 465 0
          /wFbY29vcF9idl9uZWFyXQ==
        >
        <X 15 0
          /wFbbmV4dF0=
        >
        <X 480 0
          /wFbbmV4dF0=
        >
        <X 480 0
          /wFbbmV4dF0=
        >
        <X 0 0
          /wFbY29vcF9idl9iZWhpbmRd
        >
        <X 480 0
          /wFbbmV4dF0=
        >
        <X 480 0
          /wFbbmV4dF0=
        >
        <X 480 0
          /wFbbmV4dF0=
        >
        <X 480 0
          /wFbbmV4dF0=
        >
        <X 480 0
          /wFbbmV4dF0=
        >
        <X 480 0
          /wFbbmV4dF0=
        >
        <X 480 0
          /wFbbmV4dF0=
        >
        <X 480 0
          /wFbbmV4dF0=
        >
        <X 0 0
          /wFbY29vcF9kX25lYXJd
        >
        <X 480 0
          /wFbbmV4dF0=
        >
        <X 480 0
          /wFbbmV4dF0=
        >
        <X 480 0
          /wFbbmV4dF0=
        >
        <X 480 0
          /wFbbmV4dF0=
        >
        <X 480 0
          /wFbbmV4dF0=
        >
        <X 450 0
          /wFbY29vcF9hbGxfZmFyXQ==
        >
        <X 30 0
          /wFbbmV4dF0=
        >
        <X 480 0
          /wFbbGlnaHRpbmcgKGJsYWNrb3V0X3Nwb3QpXQ==
        >
        <X 0 0
          /wFbUHJvRmlsbV9hLnBwXQ==
        >
        <X 480 0
          /wFbY29vcF92X25lYXJd
        >
        <X 1920 0
          /wFbY29vcF9mcm9udF9uZWFyXQ==
        >
        <X 955 0
          /wFbUHJvRmlsbV9hLnBwXQ==
        >
        E 5 b0 7b 00
        GUID {C8585AE2-FC10-42BC-8385-A85DB22E8320}
        IGNTEMPO 0 120.00000000 4 4
        SRCCOLOR 9
        VELLANE 132 71 60
        COLORMAP "C:\Program Files\REAPER\Data\color_maps\rockband_guitarbass.png"
        CFGEDITVIEW 16984.672799 7.166173 61 12 0 0 0
        CFGEDIT 1 1 0 1 1 0 1 1 1 1 1 0.25000000 -4 0 1025 558 0 0 1 1 0.00000000 0 1 0 0 0.500000 0 0 1.000000 64
        KEYSNAP 0 9 "102034050607" 0 "Major"
        EVTFILTER 0 -1 -1 -1 -1 0 1 0 0 -1.00000000 -1.00000000
      >
    >
  >
  <TRACK '{3FCF0964-491B-4419-9FC3-95D8EBB06255}'
    NAME "CAMERA"
    PEAKCOL 16576
    BEAT -1
    AUTOMODE 0
    VOLPAN 1.00000000000000 0.00000000000000 -1.00000000000000 -1.00000000000000 1.00000000000000
    MUTESOLO 1 0 0
    IPHASE 0
    ISBUS 0 0
    BUSCOMP 0 0
    SHOWINMIX 1 0.666700 0.500000 1 0.500000 -1 -1 -1
    FREEMODE 0
    SEL 0
    REC 0 0 0 0 0 0 0
    VU 2
    TRACKHEIGHT 0 1
    INQ 0 0 0 0.5000000000 100 0 0 100
    NCHAN 2
    FX 1
    TRACKID {3FCF0964-491B-4419-9FC3-95D8EBB06255}
    PERF 0
    MIDIOUT -1
    MAINSEND 1 0
  >
  <TRACK '{B72CAD07-C22F-40B6-94F4-A4361448268A}'
    NAME "LIGHTING"
    PEAKCOL 16576
    BEAT -1
    AUTOMODE 0
    VOLPAN 1.00000000000000 0.00000000000000 -1.00000000000000 -1.00000000000000 1.00000000000000
    MUTESOLO 1 0 0
    IPHASE 0
    ISBUS 2 -1
    BUSCOMP 0 0
    SHOWINMIX 1 0.666700 0.500000 1 0.500000 -1 -1 -1
    FREEMODE 0
    SEL 0
    REC 0 0 0 0 0 0 0
    VU 2
    TRACKHEIGHT 0 1
    INQ 0 0 0 0.5000000000 100 0 0 100
    NCHAN 2
    FX 1
    TRACKID {B72CAD07-C22F-40B6-94F4-A4361448268A}
    PERF 0
    MIDIOUT -1
    MAINSEND 1 0
  >
  <TRACK '{C31E41E3-434A-49FD-95F0-A7AFBE139A9D}'
    NAME "BEAT"
    PEAKCOL 16576
    BEAT -1
    AUTOMODE 0
    VOLPAN 1.00000000000000 0.00000000000000 -1.00000000000000 -1.00000000000000 1.00000000000000
    MUTESOLO 0 0 0
    IPHASE 0
    ISBUS 0 0
    BUSCOMP 0 0
    SHOWINMIX 1 0.666700 0.500000 1 0.500000 -1 -1 -1
    FREEMODE 0
    SEL 0
    REC 0 0 0 0 0 0 0
    VU 2
    TRACKHEIGHT 0 0
    INQ 0 0 0 0.5000000000 100 0 0 100
    NCHAN 2
    FX 1
    TRACKID {C31E41E3-434A-49FD-95F0-A7AFBE139A9D}
    PERF 0
    MIDIOUT -1
    MAINSEND 1 0
    <ITEM
      POSITION 0.00000000000000
      SNAPOFFS 0.00000000000000
      LENGTH 109.09842099999999
      LOOP 0
      ALLTAKES 0
      SEL 0
      FADEIN 1 0.000000 0.000000 1 0
      FADEOUT 1 0.000000 0.000000 1 0
      MUTE 0
      IGUID {215356D9-DE73-41B0-8344-BC822CBE9BA7}
      IID 8
      NAME "BEAT"
      VOLPAN 1.000000 0.000000 1.000000 -1.000000
      SOFFS 0.00000000000000 0.00000000000000
      PLAYRATE 1.00000000000000 1 0.00000000000000 -1
      CHANMODE 0
      GUID {D2313032-C008-40B7-871A-C372D220521B}
      <SOURCE MIDI
        HASDATA 1 480 QN
        POOLEDEVTS {B84F7AE6-6E6A-4572-9311-881355C01EE6}
        <X 0 0
          /wNCRUFU
        >
        E 0 96 0c 64
        E 120 86 0c 00
        E 360 96 0d 64
        E 120 86 0d 00
        E 360 96 0d 64
        E 120 86 0d 00
        E 360 96 0d 64
        E 120 86 0d 00
        E 360 96 0c 64
        E 120 86 0c 00
        E 360 96 0d 64
        E 120 86 0d 00
        E 360 96 0d 64
        E 120 86 0d 00
        E 360 96 0d 64
        E 120 86 0d 00
        E 360 96 0c 64
        E 120 86 0c 00
        E 360 96 0d 64
        E 120 86 0d 00
        E 360 96 0d 64
        E 120 86 0d 00
        E 360 96 0d 64
        E 120 86 0d 00
        E 360 96 0c 64
        E 120 86 0c 00
        E 360 96 0d 64
        E 120 86 0d 00
        E 360 96 0d 64
        E 120 86 0d 00
        E 360 96 0d 64
        E 120 86 0d 00
        E 360 96 0c 64
        E 120 86 0c 00
        E 360 96 0d 64
        E 120 86 0d 00
        E 360 96 0d 64
        E 120 86 0d 00
        E 360 96 0d 64
        E 120 86 0d 00
        E 360 96 0c 64
        E 120 86 0c 00
        E 360 96 0d 64
        E 120 86 0d 00
        E 360 96 0d 64
        E 120 86 0d 00
        E 360 96 0d 64
        E 120 86 0d 00
        E 360 96 0c 64
        E 120 86 0c 00
        E 360 96 0d 64
        E 120 86 0d 00
        E 360 96 0d 64
        E 120 86 0d 00
        E 360 96 0d 64
        E 120 86 0d 00
        E 360 96 0c 64
        E 120 86 0c 00
        E 360 96 0d 64
        E 120 86 0d 00
        E 360 96 0d 64
        E 120 86 0d 00
        E 360 96 0d 64
        E 120 86 0d 00
        E 360 96 0c 64
        E 120 86 0c 00
        E 360 96 0d 64
        E 120 86 0d 00
        E 360 96 0d 64
        E 120 86 0d 00
        E 360 96 0d 64
        E 120 86 0d 00
        E 360 96 0c 64
        E 120 86 0c 00
        E 360 96 0d 64
        E 120 86 0d 00
        E 360 96 0d 64
        E 120 86 0d 00
        E 360 96 0d 64
        E 120 86 0d 00
        E 360 96 0c 64
        E 120 86 0c 00
        E 360 96 0d 64
        E 120 86 0d 00
        E 360 96 0d 64
        E 120 86 0d 00
        E 360 96 0d 64
        E 120 86 0d 00
        E 360 96 0c 64
        E 120 86 0c 00
        E 360 96 0d 64
        E 120 86 0d 00
        E 360 96 0d 64
        E 120 86 0d 00
        E 360 96 0d 64
        E 120 86 0d 00
        E 360 96 0c 64
        E 120 86 0c 00
        E 360 96 0d 64
        E 120 86 0d 00
        E 360 96 0d 64
        E 120 86 0d 00
        E 360 96 0d 64
        E 120 86 0d 00
        E 360 96 0c 64
        E 120 86 0c 00
        E 360 96 0d 64
        E 120 86 0d 00
        E 360 96 0d 64
        E 120 86 0d 00
        E 360 96 0d 64
        E 120 86 0d 00
        E 360 96 0c 64
        E 120 86 0c 00
        E 360 96 0d 64
        E 120 86 0d 00
        E 360 96 0d 64
        E 120 86 0d 00
        E 360 96 0d 64
        E 120 86 0d 00
        E 360 96 0c 64
        E 120 86 0c 00
        E 360 96 0d 64
        E 120 86 0d 00
        E 360 96 0d 64
        E 120 86 0d 00
        E 360 96 0d 64
        E 120 86 0d 00
        E 360 96 0c 64
        E 120 86 0c 00
        E 360 96 0d 64
        E 120 86 0d 00
        E 360 96 0d 64
        E 120 86 0d 00
        E 360 96 0d 64
        E 120 86 0d 00
        E 360 96 0c 64
        E 120 86 0c 00
        E 360 96 0d 64
        E 120 86 0d 00
        E 360 96 0d 64
        E 120 86 0d 00
        E 360 96 0d 64
        E 120 86 0d 00
        E 360 96 0c 64
        E 120 86 0c 00
        E 360 96 0d 64
        E 120 86 0d 00
        E 360 96 0d 64
        E 120 86 0d 00
        E 360 96 0d 64
        E 120 86 0d 00
        E 360 96 0c 64
        E 120 86 0c 00
        E 360 96 0d 64
        E 120 86 0d 00
        E 360 96 0d 64
        E 120 86 0d 00
        E 360 96 0d 64
        E 120 86 0d 00
        E 360 96 0c 64
        E 120 86 0c 00
        E 360 96 0d 64
        E 120 86 0d 00
        E 360 96 0d 64
        E 120 86 0d 00
        E 360 96 0d 64
        E 120 86 0d 00
        E 360 96 0c 64
        E 120 86 0c 00
        E 360 96 0d 64
        E 120 86 0d 00
        E 360 96 0d 64
        E 120 86 0d 00
        E 360 96 0d 64
        E 120 86 0d 00
        E 360 96 0c 64
        E 120 86 0c 00
        E 360 96 0d 64
        E 120 86 0d 00
        E 360 96 0d 64
        E 120 86 0d 00
        E 360 96 0d 64
        E 120 86 0d 00
        E 360 96 0c 64
        E 120 86 0c 00
        E 360 96 0d 64
        E 120 86 0d 00
        E 360 96 0d 64
        E 120 86 0d 00
        E 360 96 0d 64
        E 120 86 0d 00
        E 360 96 0c 64
        E 120 86 0c 00
        E 360 96 0d 64
        E 120 86 0d 00
        E 360 96 0d 64
        E 120 86 0d 00
        E 360 96 0d 64
        E 120 86 0d 00
        E 360 96 0c 64
        E 120 86 0c 00
        E 360 96 0d 64
        E 120 86 0d 00
        E 360 96 0d 64
        E 120 86 0d 00
        E 360 96 0d 64
        E 120 86 0d 00
        E 360 96 0c 64
        E 120 86 0c 00
        E 360 96 0d 64
        E 120 86 0d 00
        E 360 96 0d 64
        E 120 86 0d 00
        E 360 96 0d 64
        E 120 86 0d 00
        E 360 96 0c 64
        E 120 86 0c 00
        E 360 96 0d 64
        E 120 86 0d 00
        E 360 96 0d 64
        E 120 86 0d 00
        E 360 96 0d 64
        E 120 86 0d 00
        E 360 96 0c 64
        E 120 86 0c 00
        E 360 96 0d 64
        E 120 86 0d 00
        E 360 96 0d 64
        E 120 86 0d 00
        E 360 96 0d 64
        E 120 86 0d 00
        E 360 96 0c 64
        E 120 86 0c 00
        E 360 96 0d 64
        E 120 86 0d 00
        E 360 96 0d 64
        E 120 86 0d 00
        E 360 96 0d 64
        E 120 86 0d 00
        E 360 96 0c 64
        E 120 86 0c 00
        E 360 96 0d 64
        E 120 86 0d 00
        E 360 96 0d 64
        E 120 86 0d 00
        E 360 96 0d 64
        E 120 86 0d 00
        E 360 96 0c 64
        E 120 86 0c 00
        E 360 96 0d 64
        E 120 86 0d 00
        E 360 96 0d 64
        E 120 86 0d 00
        E 360 96 0d 64
        E 120 86 0d 00
        E 360 96 0c 64
        E 120 86 0c 00
        E 360 96 0d 64
        E 120 86 0d 00
        E 360 96 0d 64
        E 120 86 0d 00
        E 360 96 0d 64
        E 120 86 0d 00
        E 360 96 0c 64
        E 120 86 0c 00
        E 360 96 0d 64
        E 120 86 0d 00
        E 360 96 0d 64
        E 120 86 0d 00
        E 360 96 0d 64
        E 120 86 0d 00
        E 360 96 0c 64
        E 120 86 0c 00
        E 360 96 0d 64
        E 120 86 0d 00
        E 360 96 0d 64
        E 120 86 0d 00
        E 360 96 0d 64
        E 120 86 0d 00
        E 360 96 0c 64
        E 120 86 0c 00
        E 360 96 0d 64
        E 120 86 0d 00
        E 360 96 0d 64
        E 120 86 0d 00
        E 360 96 0d 64
        E 120 86 0d 00
        E 360 96 0c 64
        E 120 86 0c 00
        E 360 96 0d 64
        E 120 86 0d 00
        E 360 96 0d 64
        E 120 86 0d 00
        E 360 96 0d 64
        E 120 86 0d 00
        E 360 96 0c 64
        E 120 86 0c 00
        E 360 96 0d 64
        E 120 86 0d 00
        E 360 96 0d 64
        E 120 86 0d 00
        E 360 96 0d 64
        E 120 86 0d 00
        E 360 96 0c 64
        E 120 86 0c 00
        E 360 96 0d 64
        E 120 86 0d 00
        E 360 96 0d 64
        E 120 86 0d 00
        E 360 96 0d 64
        E 120 86 0d 00
        E 360 96 0c 64
        E 120 86 0c 00
        E 360 96 0d 64
        E 120 86 0d 00
        E 360 96 0d 64
        E 120 86 0d 00
        E 360 96 0d 64
        E 120 86 0d 00
        E 360 96 0c 64
        E 120 86 0c 00
        E 360 96 0d 64
        E 120 86 0d 00
        E 360 96 0d 64
        E 120 86 0d 00
        E 360 96 0d 64
        E 120 86 0d 00
        E 360 96 0c 64
        E 120 86 0c 00
        E 360 96 0d 64
        E 120 86 0d 00
        E 360 96 0d 64
        E 120 86 0d 00
        E 360 96 0d 64
        E 120 86 0d 00
        E 360 96 0c 64
        E 120 86 0c 00
        E 360 96 0d 64
        E 120 86 0d 00
        E 360 96 0d 64
        E 120 86 0d 00
        E 360 96 0d 64
        E 120 86 0d 00
        E 360 96 0c 64
        E 120 86 0c 00
        E 360 96 0d 64
        E 120 86 0d 00
        E 360 96 0d 64
        E 120 86 0d 00
        E 360 96 0d 64
        E 120 86 0d 00
        E 360 96 0c 64
        E 120 86 0c 00
        E 360 96 0d 64
        E 120 86 0d 00
        E 360 96 0d 64
        E 120 86 0d 00
        E 360 96 0d 64
        E 120 86 0d 00
        E 360 96 0c 64
        E 120 86 0c 00
        E 360 96 0d 64
        E 120 86 0d 00
        E 360 96 0d 64
        E 120 86 0d 00
        E 360 96 0d 64
        E 120 86 0d 00
        E 360 96 0c 64
        E 120 86 0c 00
        E 360 96 0d 64
        E 120 86 0d 00
        E 360 96 0d 64
        E 120 86 0d 00
        E 360 96 0d 64
        E 120 86 0d 00
        E 360 96 0c 64
        E 120 86 0c 00
        E 360 96 0d 64
        E 120 86 0d 00
        E 360 96 0d 64
        E 120 86 0d 00
        E 360 96 0d 64
        E 120 86 0d 00
        E 360 96 0c 64
        E 120 86 0c 00
        E 360 96 0d 64
        E 120 86 0d 00
        E 360 96 0d 64
        E 120 86 0d 00
        E 360 96 0d 64
        E 120 86 0d 00
        E 360 96 0c 64
        E 120 86 0c 00
        E 360 96 0d 64
        E 120 86 0d 00
        E 360 96 0d 64
        E 120 86 0d 00
        E 360 96 0d 64
        E 120 86 0d 00
        E 360 96 0c 64
        E 120 86 0c 00
        E 360 96 0d 64
        E 120 86 0d 00
        E 360 96 0d 64
        E 120 86 0d 00
        E 360 96 0d 64
        E 120 86 0d 00
        E 360 96 0c 64
        E 120 86 0c 00
        E 360 96 0d 64
        E 120 86 0d 00
        E 360 96 0d 64
        E 120 86 0d 00
        E 360 96 0d 64
        E 120 86 0d 00
        E 360 96 0c 64
        E 120 86 0c 00
        E 360 96 0d 64
        E 120 86 0d 00
        E 360 96 0d 64
        E 120 86 0d 00
        E 360 96 0d 64
        E 120 86 0d 00
        E 360 96 0c 64
        E 120 86 0c 00
        E 360 96 0d 64
        E 120 86 0d 00
        E 360 96 0d 64
        E 120 86 0d 00
        E 360 96 0d 64
        E 120 86 0d 00
        E 360 96 0c 64
        E 120 86 0c 00
        E 360 96 0d 64
        E 120 86 0d 00
        E 360 96 0d 64
        E 120 86 0d 00
        E 360 96 0d 64
        E 120 86 0d 00
        E 360 96 0c 64
        E 120 86 0c 00
        E 360 96 0d 64
        E 120 86 0d 00
        E 360 96 0d 64
        E 120 86 0d 00
        E 360 96 0d 64
        E 120 86 0d 00
        E 360 96 0c 64
        E 120 86 0c 00
        E 360 96 0d 64
        E 120 86 0d 00
        E 360 96 0d 64
        E 120 86 0d 00
        E 360 96 0d 64
        E 120 86 0d 00
        E 360 96 0c 64
        E 120 86 0c 00
        E 360 96 0d 64
        E 120 86 0d 00
        E 360 96 0d 64
        E 120 86 0d 00
        E 360 96 0d 64
        E 120 86 0d 00
        E 360 96 0c 64
        E 120 86 0c 00
        E 360 96 0d 64
        E 120 86 0d 00
        E 360 96 0d 64
        E 120 86 0d 00
        E 360 96 0d 64
        E 120 86 0d 00
        E 360 96 0c 64
        E 120 86 0c 00
        E 360 96 0d 64
        E 120 86 0d 00
        E 360 96 0d 64
        E 120 86 0d 00
        E 360 96 0d 64
        E 120 86 0d 00
        E 360 96 0c 64
        E 120 86 0c 00
        E 360 96 0d 64
        E 120 86 0d 00
        E 360 96 0d 64
        E 120 86 0d 00
        E 360 96 0d 64
        E 120 86 0d 00
        E 360 96 0c 64
        E 120 86 0c 00
        E 360 96 0d 64
        E 120 86 0d 00
        E 360 96 0d 64
        E 120 86 0d 00
        E 360 96 0d 64
        E 120 86 0d 00
        E 360 96 0c 64
        E 120 86 0c 00
        E 360 96 0d 64
        E 120 86 0d 00
        E 360 96 0d 64
        E 120 86 0d 00
        E 360 96 0d 64
        E 120 86 0d 00
        E 360 96 0c 64
        E 120 86 0c 00
        E 360 96 0d 64
        E 120 86 0d 00
        E 360 96 0d 64
        E 120 86 0d 00
        E 360 96 0d 64
        E 120 86 0d 00
        E 360 96 0c 64
        E 120 86 0c 00
        E 360 96 0d 64
        E 120 86 0d 00
        E 360 96 0d 64
        E 120 86 0d 00
        E 360 96 0d 64
        E 120 86 0d 00
        E 360 96 0c 64
        E 120 86 0c 00
        E 360 96 0d 64
        E 120 86 0d 00
        E 360 96 0d 64
        E 120 86 0d 00
        E 360 96 0d 64
        E 120 86 0d 00
        E 360 96 0c 64
        E 120 86 0c 00
        E 360 96 0d 64
        E 120 86 0d 00
        E 360 96 0d 64
        E 120 86 0d 00
        E 360 96 0d 64
        E 120 86 0d 00
        E 360 96 0c 64
        E 120 86 0c 00
        E 360 96 0d 64
        E 120 86 0d 00
        E 360 96 0d 64
        E 120 86 0d 00
        E 360 96 0d 64
        E 120 86 0d 00
        E 360 96 0c 64
        E 120 86 0c 00
        E 360 96 0d 64
        E 120 86 0d 00
        E 360 96 0d 64
        E 120 86 0d 00
        E 360 96 0d 64
        E 120 86 0d 00
        E 360 96 0c 64
        E 120 86 0c 00
        E 360 96 0d 64
        E 120 86 0d 00
        E 360 96 0d 64
        E 120 86 0d 00
        E 360 96 0d 64
        E 120 86 0d 00
        E 360 96 0c 64
        E 120 86 0c 00
        E 360 96 0d 64
        E 120 86 0d 00
        E 360 96 0d 64
        E 120 86 0d 00
        E 360 96 0d 64
        E 120 86 0d 00
        E 360 96 0c 64
        E 120 86 0c 00
        E 360 96 0d 64
        E 120 86 0d 00
        E 360 96 0d 64
        E 120 86 0d 00
        E 360 96 0d 64
        E 120 86 0d 00
        E 360 96 0c 64
        E 120 86 0c 00
        E 360 96 0d 64
        E 120 86 0d 00
        E 360 96 0d 64
        E 120 86 0d 00
        E 360 96 0d 64
        E 120 86 0d 00
        E 360 96 0c 64
        E 120 86 0c 00
        E 360 96 0d 64
        E 120 86 0d 00
        E 360 96 0d 64
        E 120 86 0d 00
        E 360 96 0d 64
        E 120 86 0d 00
        E 360 96 0c 64
        E 120 86 0c 00
        E 360 96 0d 64
        E 120 86 0d 00
        E 360 96 0d 64
        E 120 86 0d 00
        E 360 96 0d 64
        E 120 86 0d 00
        E 360 96 0c 64
        E 120 86 0c 00
        E 360 96 0d 64
        E 120 86 0d 00
        E 360 96 0d 64
        E 120 86 0d 00
        E 360 96 0d 64
        E 120 86 0d 00
        E 360 96 0c 64
        E 120 86 0c 00
        E 360 96 0d 64
        E 120 86 0d 00
        E 360 96 0d 64
        E 120 86 0d 00
        E 360 96 0d 64
        E 120 86 0d 00
        E 360 96 0c 64
        E 120 86 0c 00
        E 360 96 0d 64
        E 120 86 0d 00
        E 360 96 0d 64
        E 120 86 0d 00
        E 360 96 0d 64
        E 120 86 0d 00
        E 360 96 0c 64
        E 120 86 0c 00
        E 360 96 0d 64
        E 120 86 0d 00
        E 360 96 0d 64
        E 120 86 0d 00
        E 360 96 0d 64
        E 120 86 0d 00
        E 360 96 0c 64
        E 120 86 0c 00
        E 360 96 0d 64
        E 120 86 0d 00
        E 360 96 0d 64
        E 120 86 0d 00
        E 360 96 0d 64
        E 120 86 0d 00
        E 360 96 0c 64
        E 120 86 0c 00
        E 360 96 0d 64
        E 120 86 0d 00
        E 360 96 0d 64
        E 120 86 0d 00
        E 360 96 0d 64
        E 120 86 0d 00
        E 360 96 0c 64
        E 120 86 0c 00
        E 360 96 0d 64
        E 120 86 0d 00
        E 360 96 0d 64
        E 120 86 0d 00
        E 360 96 0d 64
        E 120 86 0d 00
        E 360 96 0c 64
        E 120 86 0c 00
        E 360 96 0d 64
        E 120 86 0d 00
        E 360 96 0d 64
        E 120 86 0d 00
        E 360 96 0d 64
        E 120 86 0d 00
        E 360 96 0c 64
        E 120 86 0c 00
        E 360 96 0d 64
        E 120 86 0d 00
        E 360 96 0d 64
        E 120 86 0d 00
        E 360 96 0d 64
        E 120 86 0d 00
        E 360 96 0c 64
        E 120 86 0c 00
        E 360 96 0d 64
        E 120 86 0d 00
        E 360 96 0d 64
        E 120 86 0d 00
        E 360 96 0d 64
        E 120 86 0d 00
        E 360 96 0c 64
        E 120 86 0c 00
        E 360 96 0d 64
        E 120 86 0d 00
        E 360 96 0d 64
        E 120 86 0d 00
        E 360 96 0d 64
        E 120 86 0d 00
        E 360 96 0c 64
        E 120 86 0c 00
        E 360 96 0d 64
        E 120 86 0d 00
        E 360 96 0d 64
        E 120 86 0d 00
        E 360 96 0d 64
        E 120 86 0d 00
        E 360 96 0c 64
        E 120 86 0c 00
        E 360 96 0d 64
        E 120 86 0d 00
        E 360 96 0d 64
        E 120 86 0d 00
        E 360 96 0d 64
        E 120 86 0d 00
        E 360 96 0c 64
        E 120 86 0c 00
        E 360 96 0d 64
        E 120 86 0d 00
        E 360 96 0d 64
        E 120 86 0d 00
        E 360 96 0d 64
        E 120 86 0d 00
        E 360 96 0c 64
        E 120 86 0c 00
        E 360 96 0d 64
        E 120 86 0d 00
        E 360 96 0d 64
        E 120 86 0d 00
        E 360 96 0d 64
        E 120 86 0d 00
        E 360 96 0c 64
        E 120 86 0c 00
        E 360 96 0d 64
        E 120 86 0d 00
        E 360 96 0d 64
        E 120 86 0d 00
        E 360 96 0d 64
        E 120 86 0d 00
        E 360 96 0c 64
        E 120 86 0c 00
        E 360 96 0d 64
        E 120 86 0d 00
        E 360 96 0d 64
        E 120 86 0d 00
        E 360 96 0d 64
        E 120 86 0d 00
        E 360 96 0c 64
        E 120 86 0c 00
        E 360 96 0d 64
        E 120 86 0d 00
        E 360 96 0d 64
        E 120 86 0d 00
        E 360 96 0d 64
        E 120 86 0d 00
        E 360 96 0c 64
        E 120 86 0c 00
        E 360 96 0d 64
        E 120 86 0d 00
        E 360 96 0d 64
        E 120 86 0d 00
        E 360 96 0d 64
        E 120 86 0d 00
        E 360 96 0c 64
        E 120 86 0c 00
        E 360 96 0d 64
        E 120 86 0d 00
        E 360 96 0d 64
        E 120 86 0d 00
        E 360 96 0d 64
        E 120 86 0d 00
        E 360 96 0c 64
        E 120 86 0c 00
        E 360 96 0d 64
        E 120 86 0d 00
        E 360 96 0d 64
        E 120 86 0d 00
        E 360 96 0d 64
        E 120 86 0d 00
        E 360 96 0c 64
        E 120 86 0c 00
        E 360 96 0d 64
        E 120 86 0d 00
        E 360 96 0d 64
        E 120 86 0d 00
        E 360 96 0d 64
        E 120 86 0d 00
        E 360 96 0c 64
        E 120 86 0c 00
        E 360 96 0d 64
        E 120 86 0d 00
        E 360 96 0d 64
        E 120 86 0d 00
        E 360 96 0d 64
        E 120 86 0d 00
        E 360 96 0c 64
        E 120 86 0c 00
        E 360 96 0d 64
        E 120 86 0d 00
        E 360 96 0d 64
        E 120 86 0d 00
        E 360 96 0d 64
        E 120 86 0d 00
        E 360 96 0c 64
        E 120 86 0c 00
        E 360 96 0d 64
        E 120 86 0d 00
        E 360 96 0d 64
        E 120 86 0d 00
        E 360 96 0d 64
        E 120 86 0d 00
        E 360 96 0c 64
        E 120 86 0c 00
        E 360 96 0d 64
        E 120 86 0d 00
        E 360 96 0d 64
        E 120 86 0d 00
        E 360 96 0d 64
        E 120 86 0d 00
        E 360 96 0c 64
        E 120 86 0c 00
        E 360 96 0d 64
        E 120 86 0d 00
        E 360 96 0d 64
        E 120 86 0d 00
        E 360 96 0d 64
        E 120 86 0d 00
        E 360 b0 7b 00
        GUID {12280EFE-E300-4693-A6F4-608328FBEFC0}
        IGNTEMPO 0 120.00000000 4 4
        SRCCOLOR 10
        VELLANE 132 71 60
        COLORMAP "C:\Program Files\REAPER\Data\color_maps\rockband_guitarbass.png"
      >
    >
  >
  <TRACK '{351513EB-B764-41D8-BC55-638D4F422EB5}'
    NAME "backing"
    PEAKCOL 16576
    BEAT -1
    AUTOMODE 0
    VOLPAN 1.00000000000000 0.00000000000000 -1.00000000000000 -1.00000000000000 1.00000000000000
    MUTESOLO 0 0 0
    IPHASE 0
    ISBUS 0 0
    BUSCOMP 0 0
    SHOWINMIX 1 0.666700 0.500000 1 0.500000 -1 -1 -1
    FREEMODE 0
    SEL 0
    REC 0 0 0 0 0 0 0
    VU 2
    TRACKHEIGHT 0 0
    INQ 0 0 0 0.5000000000 100 0 0 100
    NCHAN 2
    FX 1
    TRACKID {351513EB-B764-41D8-BC55-638D4F422EB5}
    PERF 0
    MIDIOUT -1
    MAINSEND 1 0
    <ITEM
      POSITION 0.00000000000000
      SNAPOFFS 0.00000000000000
      LENGTH 109.09839002267573
      LOOP 0
      ALLTAKES 0
      SEL 0
      FADEIN 1 0.000000 0.000000 1 0
      FADEOUT 1 0.000000 0.000000 1 0
      MUTE 0
      IGUID {197E65BF-52BA-4754-B264-83774CD5C170}
      IID 19
      NAME "backing.wav"
      VOLPAN 1.000000 0.000000 1.000000 -1.000000
      SOFFS 0.00000000000000
      PLAYRATE 1.00000000000000 1 0.00000000000000 -1
      CHANMODE 0
      GUID {9D9D3026-9ADC-41B4-90C5-96B25924D9EA}
      <SOURCE WAVE
        FILE "wav\backing.wav"
      >
    >
  >
  <EXTENSIONS
  >
>
