<REAPER_PROJECT 0.1 "4.22/x64"
  RIPPLE 0
  GROUPOVERRIDE 0 0 0
  AUTOXFADE 1
  ENVATTACH 1
  MIXERUIFLAGS 11 48
  PEAKGAIN 1.00000000000000
  FEEDBACK 0
  PANLAW 1.00000000000000
  PROJOFFS 0.00000000000000 0
  MAXPROJLEN 0 600.00000000000000
  GRID 3199 8 1.00000000000000 8 1.00000000000000 0
  TIMEMODE 1 0 -1
  PANMODE 3
  CURSOR 71.31425600000000
  ZOOM 8.46232329043702 0 0
  VZOOMEX 6
  USE_REC_CFG 0
  RECMODE 1
  SMPTESYNC 0 23.976024 100 40 1000 300 0 0.000000 1
  LOOP 1
  LOOPGRAN 0 4.00000000000000
  RECORD_PATH "" ""
  <RECORD_CFG
    ZXZhdxAD
  >
  <APPLYFX_CFG
  >
  RENDER_FILE ""
  RENDER_PATTERN ""
  RENDER_FMT 0 2 0
  RENDER_1X 0
  RENDER_RANGE 2 0.00000000000000 0.00000000000000
  RENDER_RESAMPLE 3 0 1
  RENDER_ADDTOPROJ 0
  RENDER_STEMS 0
  RENDER_DITHER 0
  TIMELOCKMODE 0
  ITEMMIX 0
  DEFPITCHMODE 393216
  TAKELANE 1
  SAMPLERATE 44100 0 0
  <RENDER_CFG
  >
  LOCK 1
  <METRONOME 6 2.000000
    VOL 0.250000 0.125000
    FREQ 800 1600 1
    BEATLEN 4
    SAMPLES "" ""
  >
  GLOBAL_AUTO -1
  TEMPO 120.00000000000000 4 4
  PLAYRATE 1.00000000000000 0 0.25000 4.00000
  SELECTION 128.91423200000000 0.00000000000000
  SELECTION2 128.91423200000000 0.00000000000000
  MASTERAUTOMODE 0
  MASTERTRACKHEIGHT 0
  MASTERPEAKCOL 16576
  MASTERMUTESOLO 0
  MASTERTRACKVIEW 0 0.666700 0.500000 0.500000 -1 -1 -1
  MASTERHWOUT 0 0 1.00000000000000 0.00000000000000 0 0 0 -1.00000000000000
  MASTER_NCH 2 2
  MASTER_VOLUME 0.42377039515790 0.00000000000000 -1.00000000000000 -1.00000000000000 1.00000000000000
  MASTER_PANMODE -1
  MASTER_FX 1
  MASTER_SEL 0
  <MASTERPLAYSPEEDENV
    ACT 0
    VIS 0 1 1.000000
    LANEHEIGHT 0 0
    ARM 0
    DEFSHAPE 0 -1 -1
  >
  <TEMPOENVEX
    ACT 0
    VIS 1 0 1.000000
    LANEHEIGHT 0 0
    ARM 0
    DEFSHAPE 1 -1 -1
    PT 0.000000000000 175.0000729167 1
  >
  <PROJBAY
  >
  <TRACK '{5849703E-A756-45F1-A612-750EC7AF9279}'
    NAME "PART DRUMS"
    PEAKCOL 16576
    BEAT -1
    AUTOMODE 0
    VOLPAN 1.00000000000000 0.00000000000000 -1.00000000000000 -1.00000000000000 1.00000000000000
    MUTESOLO 0 0 0
    IPHASE 0
    ISBUS 1 1
    BUSCOMP 0 0
    SHOWINMIX 1 0.666700 0.500000 1 0.500000 -1 -1 -1
    FREEMODE 0
    SEL 0
    REC 0 0 0 0 0 0 0
    VU 2
    TRACKHEIGHT 0 0
    INQ 0 0 0 0.5000000000 100 0 0 100
    NCHAN 2
    FX 1
    TRACKID {5849703E-A756-45F1-A612-750EC7AF9279}
    PERF 0
    MIDIOUT -1
    <MIDINOTENAMES
      0 127 "CYMBAL SWELLS"
      0 126 "DRUM ROLL"
      0 125 "---"
      0 124 "DRUM FILL"
      0 123 "DRUM FILL"
      0 122 "DRUM FILL"
      0 121 "DRUM FILL"
      0 120 "DRUM FILL (use all 5)"
      0 118 "----"
      0 116 "OVERDRIVE"
      0 114 "----"
      0 112 "TOM GEMS PAD 4"
      0 111 "TOM GEMS PAD 3"
      0 110 "TOM GEMS PAD 2"
      0 103 "Solo Marker"
      0 102 "----"
      0 100 "EXPERT Green"
      0 99 "EXPERT Blue"
      0 98 "EXPERT Yellow"
      0 97 "EXPERT Red"
      0 96 "EXPERT Kick"
      0 92 "----"
      0 88 "HARD Green"
      0 87 "HARD Blue"
      0 86 "HARD Yellow"
      0 85 "HARD Red"
      0 84 "HARD Kick"
      0 80 "----"
      0 76 "MEDIUM Green"
      0 75 "MEDIUM Blue"
      0 74 "MEDIUM Yellow"
      0 73 "MEDIUM Red"
      0 72 "MEDIUM Kick"
      0 68 "----"
      0 64 "EASY Green"
      0 63 "EASY Blue"
      0 62 "EASY Yellow"
      0 61 "EASY Red"
      0 60 "EASY Kick"
      0 56 "----"
      0 52 "-- DRUM ANIMATION --"
      0 51 "FLOOR TOM RH"
      0 50 "FLOOR TOM LH"
      0 49 "TOM2 RH"
      0 48 "TOM2 LH"
      0 47 "TOM1 RH"
      0 46 "TOM1 LH"
      0 45 "SOFT CRASH 2 LH"
      0 44 "CRASH 2 LH"
      0 43 "RIDE LH"
      0 42 "RIDE CYM RH"
      0 41 "CRASH2 CHOKE"
      0 40 "CRASH1 CHOKE"
      0 39 "CRASH2 SOFT RH"
      0 38 "CRASH2 HARD RH"
      0 37 "CRASH1 SOFT RH"
      0 36 "CRASH1 HARD RH"
      0 35 "CRASH1 SOFT LH"
      0 34 "CRASH1 HARD LH"
      0 32 "PERCUSSION RH"
      0 31 "HI-HAT RH"
      0 30 "HI-HAT LH"
      0 29 "SOFT SNARE RH"
      0 28 "SOFT SNARE LH"
      0 27 "SNARE RH"
      0 26 "SNARE LH"
      0 25 "HI-HAT OPEN"
      0 24 "KICK RF"
    >
    MAINSEND 1 0
    <FXCHAIN
      WNDRECT 0 43 891 559
      SHOW 0
      LASTSEL 0
      DOCKED 0
      BYPASS 0 0
      <VST "VSTi: RBN Preview (RBN)" "rbprev_vst64.dll" 0 ""
        dnBicu5e7f4AAAAAAgAAAAEAAAAAAAAAAgAAAAAAAAAEAAAAAQAAAA==
        AAAQAAMBqgAAABAAAAA=
      >
      FLOATPOS 0 0 0 0
      FXID {CF077E68-8004-4F6B-91F1-63EFD4E18D9E}
      WAK 0
    >
    <ITEM
      POSITION 0.00000000000000
      SNAPOFFS 0.00000000000000
      LENGTH 128.91399999999999
      LOOP 0
      ALLTAKES 0
      SEL 0
      FADEIN 1 0.000000 0.000000 1 0
      FADEOUT 1 0.000000 0.000000 1 0
      MUTE 0
      IGUID {5CBE5AB5-DFA1-4627-A1EE-0E2B1FCE209B}
      IID 1
      NAME "PART DRUMS"
      VOLPAN 1.000000 0.000000 1.000000 -1.000000
      SOFFS 0.00000000000000 0.00000000000000
      PLAYRATE 1.00000000000000 1 0.00000000000000 -1
      CHANMODE 0
      GUID {0753384D-210A-4477-A5DF-411470F55C7B}
      <SOURCE MIDI
        HASDATA 1 480 QN
        POOLEDEVTS {FA0C398A-CE95-41E4-AD1C-8C343E66603F}
        <X 0 0
          /wNQQVJUIERSVU1T
        >
        <X 120 0
          /wFbbWl4IDAgZHJ1bXMxXQ==
        >
        <X 120 0
          /wFbbWl4IDEgZHJ1bXMxXQ==
        >
        <X 120 0
          /wFbbWl4IDIgZHJ1bXMxXQ==
        >
        <X 120 0
          /wFbbWl4IDMgZHJ1bXMxXQ==
        >
        <X 5280 0
          /wFbcGxheV0=
        >
        E 0 90 18 60
        E 0 90 1f 60
        E 0 90 3e 60
        E 0 90 48 60
        E 0 90 4a 60
        E 0 90 54 60
        E 0 90 56 60
        E 0 90 60 60
        E 0 90 62 60
        E 57 80 1f 00
        E 1 80 18 00
        E 0 80 3e 00
        E 0 80 48 00
        E 0 80 4a 00
        E 0 80 54 00
        E 0 80 56 00
        E 0 80 60 00
        E 0 80 62 00
        E 182 90 1f 60
        E 0 90 56 60
        E 0 90 62 60
        E 57 80 1f 00
        E 1 80 56 00
        E 0 80 62 00
        E 182 90 1f 60
        E 0 90 3e 60
        E 0 90 4a 60
        E 0 90 56 60
        E 0 90 62 60
        E 57 80 1f 00
        E 1 80 3e 00
        E 0 80 4a 00
        E 0 80 56 00
        E 0 80 62 00
        E 182 90 18 60
        E 0 90 1f 60
        E 0 90 54 60
        E 0 90 56 60
        E 0 90 60 60
        E 0 90 62 60
        E 57 80 1f 00
        E 1 80 18 00
        E 0 80 54 00
        E 0 80 56 00
        E 0 80 60 00
        E 0 80 62 00
        E 182 90 1a 60
        E 0 90 1f 60
        E 0 90 3d 60
        E 0 90 3e 60
        E 0 90 49 60
        E 0 90 4a 60
        E 0 90 55 60
        E 0 90 56 60
        E 0 90 61 60
        E 0 90 62 60
        E 57 80 1a 00
        E 0 80 1f 00
        E 1 80 3d 00
        E 0 80 3e 00
        E 0 80 49 00
        E 0 80 4a 00
        E 0 80 55 00
        E 0 80 56 00
        E 0 80 61 00
        E 0 80 62 00
        E 182 90 1f 60
        E 0 90 56 60
        E 0 90 62 60
        E 57 80 1f 00
        E 1 80 56 00
        E 0 80 62 00
        E 182 90 18 60
        E 0 90 1f 60
        E 0 90 3e 60
        E 0 90 48 60
        E 0 90 4a 60
        E 0 90 54 60
        E 0 90 56 60
        E 0 90 60 60
        E 0 90 62 60
        E 57 80 1f 00
        E 1 80 18 00
        E 0 80 3e 00
        E 0 80 48 00
        E 0 80 4a 00
        E 0 80 54 00
        E 0 80 56 00
        E 0 80 60 00
        E 0 80 62 00
        E 182 90 1f 60
        E 0 90 56 60
        E 0 90 62 60
        E 57 80 1f 00
        E 1 80 56 00
        E 0 80 62 00
        E 182 90 1f 60
        E 0 90 3e 60
        E 0 90 4a 60
        E 0 90 56 60
        E 0 90 62 60
        E 57 80 1f 00
        E 1 80 3e 00
        E 0 80 4a 00
        E 0 80 56 00
        E 0 80 62 00
        E 182 90 1f 60
        E 0 90 56 60
        E 0 90 62 60
        E 57 80 1f 00
        E 1 80 56 00
        E 0 80 62 00
        E 182 90 1f 60
        E 0 90 3e 60
        E 0 90 4a 60
        E 0 90 56 60
        E 0 90 62 60
        E 57 80 1f 00
        E 1 80 3e 00
        E 0 80 4a 00
        E 0 80 56 00
        E 0 80 62 00
        E 182 90 1f 60
        E 0 90 56 60
        E 0 90 62 60
        E 57 80 1f 00
        E 1 80 56 00
        E 0 80 62 00
        E 182 90 1a 60
        E 0 90 1f 60
        E 0 90 3d 60
        E 0 90 3e 60
        E 0 90 49 60
        E 0 90 4a 60
        E 0 90 55 60
        E 0 90 56 60
        E 0 90 61 60
        E 0 90 62 60
        E 57 80 1a 00
        E 0 80 1f 00
        E 1 80 3d 00
        E 0 80 3e 00
        E 0 80 49 00
        E 0 80 4a 00
        E 0 80 55 00
        E 0 80 56 00
        E 0 80 61 00
        E 0 80 62 00
        E 182 90 1f 60
        E 0 90 56 60
        E 0 90 62 60
        E 57 80 1f 00
        E 1 80 56 00
        E 0 80 62 00
        E 182 90 18 60
        E 0 90 1f 60
        E 0 90 3e 60
        E 0 90 48 60
        E 0 90 4a 60
        E 0 90 54 60
        E 0 90 56 60
        E 0 90 60 60
        E 0 90 62 60
        E 57 80 1f 00
        E 1 80 18 00
        E 0 80 3e 00
        E 0 80 48 00
        E 0 80 4a 00
        E 0 80 54 00
        E 0 80 56 00
        E 0 80 60 00
        E 0 80 62 00
        E 182 90 1f 60
        E 0 90 56 60
        E 0 90 62 60
        E 57 80 1f 00
        E 1 80 56 00
        E 0 80 62 00
        E 182 90 18 60
        E 0 90 1f 60
        E 0 90 3e 60
        E 0 90 48 60
        E 0 90 4a 60
        E 0 90 54 60
        E 0 90 56 60
        E 0 90 60 60
        E 0 90 62 60
        E 57 80 1f 00
        E 1 80 18 00
        E 0 80 3e 00
        E 0 80 48 00
        E 0 80 4a 00
        E 0 80 54 00
        E 0 80 56 00
        E 0 80 60 00
        E 0 80 62 00
        E 182 90 1f 60
        E 0 90 56 60
        E 0 90 62 60
        E 57 80 1f 00
        E 1 80 56 00
        E 0 80 62 00
        E 182 90 1f 60
        E 0 90 3e 60
        E 0 90 4a 60
        E 0 90 56 60
        E 0 90 62 60
        E 57 80 1f 00
        E 1 80 3e 00
        E 0 80 4a 00
        E 0 80 56 00
        E 0 80 62 00
        E 182 90 18 60
        E 0 90 1f 60
        E 0 90 54 60
        E 0 90 56 60
        E 0 90 60 60
        E 0 90 62 60
        E 57 80 1f 00
        E 1 80 18 00
        E 0 80 54 00
        E 0 80 56 00
        E 0 80 60 00
        E 0 80 62 00
        E 182 90 1a 60
        E 0 90 1f 60
        E 0 90 3d 60
        E 0 90 3e 60
        E 0 90 49 60
        E 0 90 4a 60
        E 0 90 55 60
        E 0 90 56 60
        E 0 90 61 60
        E 0 90 62 60
        E 57 80 1a 00
        E 0 80 1f 00
        E 1 80 3d 00
        E 0 80 3e 00
        E 0 80 49 00
        E 0 80 4a 00
        E 0 80 55 00
        E 0 80 56 00
        E 0 80 61 00
        E 0 80 62 00
        E 182 90 1f 60
        E 0 90 56 60
        E 0 90 62 60
        E 57 80 1f 00
        E 1 80 56 00
        E 0 80 62 00
        E 182 90 1f 60
        E 0 90 3e 60
        E 0 90 4a 60
        E 0 90 56 60
        E 0 90 62 60
        E 57 80 1f 00
        E 1 80 3e 00
        E 0 80 4a 00
        E 0 80 56 00
        E 0 80 62 00
        E 182 90 18 60
        E 0 90 1f 60
        E 0 90 54 60
        E 0 90 56 60
        E 0 90 60 60
        E 0 90 62 60
        E 57 80 1f 00
        E 1 80 18 00
        E 0 80 54 00
        E 0 80 56 00
        E 0 80 60 00
        E 0 80 62 00
        E 182 90 1f 60
        E 0 90 3e 60
        E 0 90 4a 60
        E 0 90 56 60
        E 0 90 62 60
        E 57 80 1f 00
        E 1 80 3e 00
        E 0 80 4a 00
        E 0 80 56 00
        E 0 80 62 00
        E 182 90 1f 60
        E 0 90 56 60
        E 0 90 62 60
        E 57 80 1f 00
        E 1 80 56 00
        E 0 80 62 00
        E 182 90 18 60
        E 0 90 1f 60
        E 0 90 3e 60
        E 0 90 48 60
        E 0 90 4a 60
        E 0 90 54 60
        E 0 90 56 60
        E 0 90 60 60
        E 0 90 62 60
        E 57 80 1f 00
        E 1 80 18 00
        E 0 80 3e 00
        E 0 80 48 00
        E 0 80 4a 00
        E 0 80 54 00
        E 0 80 56 00
        E 0 80 60 00
        E 0 80 62 00
        E 182 90 1f 60
        E 0 90 56 60
        E 0 90 62 60
        E 57 80 1f 00
        E 1 80 56 00
        E 0 80 62 00
        E 182 90 1a 60
        E 0 90 1f 60
        E 0 90 3d 60
        E 0 90 3e 60
        E 0 90 49 60
        E 0 90 4a 60
        E 0 90 55 60
        E 0 90 56 60
        E 0 90 61 60
        E 0 90 62 60
        E 57 80 1a 00
        E 0 80 1f 00
        E 1 80 3d 00
        E 0 80 3e 00
        E 0 80 49 00
        E 0 80 4a 00
        E 0 80 55 00
        E 0 80 56 00
        E 0 80 61 00
        E 0 80 62 00
        E 182 90 19 60
        E 0 90 1f 60
        E 0 90 57 60
        E 0 90 63 60
        E 58 80 1f 00
        E 0 80 57 00
        E 0 80 63 00
        E 182 80 19 00
        E 0 90 1f 60
        E 0 90 3e 60
        E 0 90 4a 60
        E 0 90 56 60
        E 0 90 62 60
        E 57 80 1f 00
        E 1 80 3e 00
        E 0 80 4a 00
        E 0 80 56 00
        E 0 80 62 00
        E 182 90 18 60
        E 0 90 1f 60
        E 0 90 54 60
        E 0 90 56 60
        E 0 90 60 60
        E 0 90 62 60
        E 57 80 1f 00
        E 1 80 18 00
        E 0 80 54 00
        E 0 80 56 00
        E 0 80 60 00
        E 0 80 62 00
        E 182 90 18 60
        E 0 90 1f 60
        E 0 90 3e 60
        E 0 90 48 60
        E 0 90 4a 60
        E 0 90 54 60
        E 0 90 56 60
        E 0 90 60 60
        E 0 90 62 60
        E 57 80 1f 00
        E 1 80 18 00
        E 0 80 3e 00
        E 0 80 48 00
        E 0 80 4a 00
        E 0 80 54 00
        E 0 80 56 00
        E 0 80 60 00
        E 0 80 62 00
        E 182 90 1f 60
        E 0 90 56 60
        E 0 90 62 60
        E 57 80 1f 00
        E 1 80 56 00
        E 0 80 62 00
        E 182 90 1f 60
        E 0 90 3e 60
        E 0 90 4a 60
        E 0 90 56 60
        E 0 90 62 60
        E 57 80 1f 00
        E 1 80 3e 00
        E 0 80 4a 00
        E 0 80 56 00
        E 0 80 62 00
        E 182 90 18 60
        E 0 90 1f 60
        E 0 90 54 60
        E 0 90 56 60
        E 0 90 60 60
        E 0 90 62 60
        E 57 80 1f 00
        E 1 80 18 00
        E 0 80 54 00
        E 0 80 56 00
        E 0 80 60 00
        E 0 80 62 00
        E 182 90 1a 60
        E 0 90 1f 60
        E 0 90 3d 60
        E 0 90 3e 60
        E 0 90 49 60
        E 0 90 4a 60
        E 0 90 55 60
        E 0 90 56 60
        E 0 90 61 60
        E 0 90 62 60
        E 57 80 1a 00
        E 0 80 1f 00
        E 1 80 3d 00
        E 0 80 3e 00
        E 0 80 49 00
        E 0 80 4a 00
        E 0 80 55 00
        E 0 80 56 00
        E 0 80 61 00
        E 0 80 62 00
        E 182 90 1f 60
        E 0 90 56 60
        E 0 90 62 60
        E 57 80 1f 00
        E 1 80 56 00
        E 0 80 62 00
        E 182 90 18 60
        E 0 90 1f 60
        E 0 90 3e 60
        E 0 90 48 60
        E 0 90 4a 60
        E 0 90 54 60
        E 0 90 56 60
        E 0 90 60 60
        E 0 90 62 60
        E 57 80 1f 00
        E 1 80 18 00
        E 0 80 3e 00
        E 0 80 48 00
        E 0 80 4a 00
        E 0 80 54 00
        E 0 80 56 00
        E 0 80 60 00
        E 0 80 62 00
        E 182 90 1f 60
        E 0 90 56 60
        E 0 90 62 60
        E 57 80 1f 00
        E 1 80 56 00
        E 0 80 62 00
        E 182 90 1f 60
        E 0 90 3e 60
        E 0 90 4a 60
        E 0 90 56 60
        E 0 90 62 60
        E 57 80 1f 00
        E 1 80 3e 00
        E 0 80 4a 00
        E 0 80 56 00
        E 0 80 62 00
        E 182 90 1f 60
        E 0 90 56 60
        E 0 90 62 60
        E 57 80 1f 00
        E 1 80 56 00
        E 0 80 62 00
        E 182 90 1f 60
        E 0 90 3e 60
        E 0 90 4a 60
        E 0 90 56 60
        E 0 90 62 60
        E 57 80 1f 00
        E 1 80 3e 00
        E 0 80 4a 00
        E 0 80 56 00
        E 0 80 62 00
        E 182 90 1f 60
        E 0 90 56 60
        E 0 90 62 60
        E 57 80 1f 00
        E 1 80 56 00
        E 0 80 62 00
        E 182 90 1a 60
        E 0 90 1f 60
        E 0 90 3d 60
        E 0 90 3e 60
        E 0 90 49 60
        E 0 90 4a 60
        E 0 90 55 60
        E 0 90 56 60
        E 0 90 61 60
        E 0 90 62 60
        E 57 80 1a 00
        E 0 80 1f 00
        E 1 80 3d 00
        E 0 80 3e 00
        E 0 80 49 00
        E 0 80 4a 00
        E 0 80 55 00
        E 0 80 56 00
        E 0 80 61 00
        E 0 80 62 00
        E 182 90 1f 60
        E 0 90 56 60
        E 0 90 62 60
        E 57 80 1f 00
        E 1 80 56 00
        E 0 80 62 00
        E 182 90 18 60
        E 0 90 1f 60
        E 0 90 3e 60
        E 0 90 48 60
        E 0 90 4a 60
        E 0 90 54 60
        E 0 90 56 60
        E 0 90 60 60
        E 0 90 62 60
        E 57 80 1f 00
        E 1 80 18 00
        E 0 80 3e 00
        E 0 80 48 00
        E 0 80 4a 00
        E 0 80 54 00
        E 0 80 56 00
        E 0 80 60 00
        E 0 80 62 00
        E 182 90 1f 60
        E 0 90 56 60
        E 0 90 62 60
        E 57 80 1f 00
        E 1 80 56 00
        E 0 80 62 00
        E 182 90 18 60
        E 0 90 1f 60
        E 0 90 3e 60
        E 0 90 48 60
        E 0 90 4a 60
        E 0 90 54 60
        E 0 90 56 60
        E 0 90 60 60
        E 0 90 62 60
        E 57 80 1f 00
        E 1 80 18 00
        E 0 80 3e 00
        E 0 80 48 00
        E 0 80 4a 00
        E 0 80 54 00
        E 0 80 56 00
        E 0 80 60 00
        E 0 80 62 00
        E 182 90 1f 60
        E 0 90 56 60
        E 0 90 62 60
        E 57 80 1f 00
        E 1 80 56 00
        E 0 80 62 00
        E 182 90 1f 60
        E 0 90 3e 60
        E 0 90 4a 60
        E 0 90 56 60
        E 0 90 62 60
        E 57 80 1f 00
        E 1 80 3e 00
        E 0 80 4a 00
        E 0 80 56 00
        E 0 80 62 00
        E 182 90 18 60
        E 0 90 1f 60
        E 0 90 54 60
        E 0 90 56 60
        E 0 90 60 60
        E 0 90 62 60
        E 57 80 1f 00
        E 1 80 18 00
        E 0 80 54 00
        E 0 80 56 00
        E 0 80 60 00
        E 0 80 62 00
        E 182 90 1a 60
        E 0 90 1f 60
        E 0 90 3d 60
        E 0 90 3e 60
        E 0 90 49 60
        E 0 90 4a 60
        E 0 90 55 60
        E 0 90 56 60
        E 0 90 61 60
        E 0 90 62 60
        E 57 80 1a 00
        E 0 80 1f 00
        E 1 80 3d 00
        E 0 80 3e 00
        E 0 80 49 00
        E 0 80 4a 00
        E 0 80 55 00
        E 0 80 56 00
        E 0 80 61 00
        E 0 80 62 00
        E 182 90 19 60
        E 0 90 1f 60
        E 0 90 57 60
        E 0 90 63 60
        E 58 80 1f 00
        E 0 80 57 00
        E 0 80 63 00
        E 182 80 19 00
        E 0 90 1f 60
        E 0 90 3e 60
        E 0 90 4a 60
        E 0 90 56 60
        E 0 90 62 60
        E 57 80 1f 00
        E 1 80 3e 00
        E 0 80 4a 00
        E 0 80 56 00
        E 0 80 62 00
        E 182 90 18 60
        E 0 90 1f 60
        E 0 90 54 60
        E 0 90 56 60
        E 0 90 60 60
        E 0 90 62 60
        E 57 80 1f 00
        E 1 80 18 00
        E 0 80 54 00
        E 0 80 56 00
        E 0 80 60 00
        E 0 80 62 00
        E 182 90 1f 60
        E 0 90 3e 60
        E 0 90 4a 60
        E 0 90 56 60
        E 0 90 62 60
        E 57 80 1f 00
        E 1 80 3e 00
        E 0 80 4a 00
        E 0 80 56 00
        E 0 80 62 00
        E 182 90 1f 60
        E 0 90 56 60
        E 0 90 62 60
        E 57 80 1f 00
        E 1 80 56 00
        E 0 80 62 00
        E 182 90 18 60
        E 0 90 1f 60
        E 0 90 3e 60
        E 0 90 48 60
        E 0 90 4a 60
        E 0 90 54 60
        E 0 90 56 60
        E 0 90 60 60
        E 0 90 62 60
        E 57 80 1f 00
        E 1 80 18 00
        E 0 80 3e 00
        E 0 80 48 00
        E 0 80 4a 00
        E 0 80 54 00
        E 0 80 56 00
        E 0 80 60 00
        E 0 80 62 00
        E 182 90 1f 60
        E 0 90 56 60
        E 0 90 62 60
        E 57 80 1f 00
        E 1 80 56 00
        E 0 80 62 00
        E 182 90 1a 60
        E 0 90 1f 60
        E 0 90 3d 60
        E 0 90 3e 60
        E 0 90 49 60
        E 0 90 4a 60
        E 0 90 55 60
        E 0 90 56 60
        E 0 90 61 60
        E 0 90 62 60
        E 57 80 1a 00
        E 0 80 1f 00
        E 1 80 3d 00
        E 0 80 3e 00
        E 0 80 49 00
        E 0 80 4a 00
        E 0 80 55 00
        E 0 80 56 00
        E 0 80 61 00
        E 0 80 62 00
        E 182 90 1f 60
        E 0 90 56 60
        E 0 90 62 60
        E 57 80 1f 00
        E 1 80 56 00
        E 0 80 62 00
        E 182 90 18 60
        E 0 90 31 60
        E 0 90 3f 60
        E 0 90 4b 60
        E 0 90 54 60
        E 0 90 57 60
        E 0 90 60 60
        E 0 90 63 60
        E 0 90 6f 60
        E 58 80 18 00
        E 0 80 54 00
        E 0 80 60 00
        E 2 80 31 00
        E 0 80 3f 00
        E 0 80 4b 00
        E 0 80 57 00
        E 0 80 63 00
        E 0 80 6f 00
        E 180 90 1f 60
        E 0 90 56 60
        E 0 90 62 60
        E 57 80 1f 00
        E 1 80 56 00
        E 0 80 62 00
        E 182 90 18 60
        E 0 90 1f 60
        E 0 90 3e 60
        E 0 90 48 60
        E 0 90 4a 60
        E 0 90 54 60
        E 0 90 56 60
        E 0 90 60 60
        E 0 90 62 60
        E 0 90 74 60
        E 57 80 1f 00
        E 1 80 18 00
        E 0 80 3e 00
        E 0 80 48 00
        E 0 80 4a 00
        E 0 80 54 00
        E 0 80 56 00
        E 0 80 60 00
        E 0 80 62 00
        E 182 90 1f 60
        E 0 90 56 60
        E 0 90 62 60
        E 57 80 1f 00
        E 1 80 56 00
        E 0 80 62 00
        E 182 90 1f 60
        E 0 90 3e 60
        E 0 90 4a 60
        E 0 90 56 60
        E 0 90 62 60
        E 57 80 1f 00
        E 1 80 3e 00
        E 0 80 4a 00
        E 0 80 56 00
        E 0 80 62 00
        E 182 90 18 60
        E 0 90 1f 60
        E 0 90 54 60
        E 0 90 56 60
        E 0 90 60 60
        E 0 90 62 60
        E 57 80 1f 00
        E 1 80 18 00
        E 0 80 54 00
        E 0 80 56 00
        E 0 80 60 00
        E 0 80 62 00
        E 182 90 1a 60
        E 0 90 1f 60
        E 0 90 3d 60
        E 0 90 3e 60
        E 0 90 49 60
        E 0 90 4a 60
        E 0 90 55 60
        E 0 90 56 60
        E 0 90 61 60
        E 0 90 62 60
        E 57 80 1a 00
        E 0 80 1f 00
        E 1 80 3d 00
        E 0 80 3e 00
        E 0 80 49 00
        E 0 80 4a 00
        E 0 80 55 00
        E 0 80 56 00
        E 0 80 61 00
        E 0 80 62 00
        E 182 90 1f 60
        E 0 90 56 60
        E 0 90 62 60
        E 57 80 1f 00
        E 1 80 56 00
        E 0 80 62 00
        E 182 90 18 60
        E 0 90 1f 60
        E 0 90 3e 60
        E 0 90 48 60
        E 0 90 4a 60
        E 0 90 54 60
        E 0 90 56 60
        E 0 90 60 60
        E 0 90 62 60
        E 57 80 1f 00
        E 1 80 18 00
        E 0 80 3e 00
        E 0 80 48 00
        E 0 80 4a 00
        E 0 80 54 00
        E 0 80 56 00
        E 0 80 60 00
        E 0 80 62 00
        E 182 90 1f 60
        E 0 90 56 60
        E 0 90 62 60
        E 57 80 1f 00
        E 1 80 56 00
        E 0 80 62 00
        E 182 90 1f 60
        E 0 90 3e 60
        E 0 90 4a 60
        E 0 90 56 60
        E 0 90 62 60
        E 57 80 1f 00
        E 1 80 3e 00
        E 0 80 4a 00
        E 0 80 56 00
        E 0 80 62 00
        E 182 90 1f 60
        E 0 90 56 60
        E 0 90 62 60
        E 57 80 1f 00
        E 1 80 56 00
        E 0 80 62 00
        E 182 90 1f 60
        E 0 90 3e 60
        E 0 90 4a 60
        E 0 90 56 60
        E 0 90 62 60
        E 57 80 1f 00
        E 1 80 3e 00
        E 0 80 4a 00
        E 0 80 56 00
        E 0 80 62 00
        E 182 90 1f 60
        E 0 90 56 60
        E 0 90 62 60
        E 57 80 1f 00
        E 1 80 56 00
        E 0 80 62 00
        E 182 90 1a 60
        E 0 90 1f 60
        E 0 90 3d 60
        E 0 90 3e 60
        E 0 90 49 60
        E 0 90 4a 60
        E 0 90 55 60
        E 0 90 56 60
        E 0 90 61 60
        E 0 90 62 60
        E 57 80 1a 00
        E 0 80 1f 00
        E 1 80 3d 00
        E 0 80 3e 00
        E 0 80 49 00
        E 0 80 4a 00
        E 0 80 55 00
        E 0 80 56 00
        E 0 80 61 00
        E 0 80 62 00
        E 182 90 1f 60
        E 0 90 56 60
        E 0 90 62 60
        E 57 80 1f 00
        E 1 80 56 00
        E 0 80 62 00
        E 182 90 18 60
        E 0 90 1f 60
        E 0 90 3e 60
        E 0 90 48 60
        E 0 90 4a 60
        E 0 90 54 60
        E 0 90 56 60
        E 0 90 60 60
        E 0 90 62 60
        E 57 80 1f 00
        E 1 80 18 00
        E 0 80 3e 00
        E 0 80 48 00
        E 0 80 4a 00
        E 0 80 54 00
        E 0 80 56 00
        E 0 80 60 00
        E 0 80 62 00
        E 182 90 1f 60
        E 0 90 56 60
        E 0 90 62 60
        E 57 80 1f 00
        E 1 80 56 00
        E 0 80 62 00
        E 182 80 74 00
        E 0 90 18 60
        E 0 90 1f 60
        E 0 90 3e 60
        E 0 90 48 60
        E 0 90 4a 60
        E 0 90 54 60
        E 0 90 56 60
        E 0 90 60 60
        E 0 90 62 60
        E 57 80 1f 00
        E 1 80 18 00
        E 0 80 3e 00
        E 0 80 48 00
        E 0 80 4a 00
        E 0 80 54 00
        E 0 80 56 00
        E 0 80 60 00
        E 0 80 62 00
        E 182 90 1f 60
        E 0 90 56 60
        E 0 90 62 60
        E 57 80 1f 00
        E 1 80 56 00
        E 0 80 62 00
        E 182 90 1f 60
        E 0 90 3e 60
        E 0 90 4a 60
        E 0 90 56 60
        E 0 90 62 60
        E 57 80 1f 00
        E 1 80 3e 00
        E 0 80 4a 00
        E 0 80 56 00
        E 0 80 62 00
        E 182 90 18 60
        E 0 90 1f 60
        E 0 90 54 60
        E 0 90 56 60
        E 0 90 60 60
        E 0 90 62 60
        E 57 80 1f 00
        E 1 80 18 00
        E 0 80 54 00
        E 0 80 56 00
        E 0 80 60 00
        E 0 80 62 00
        E 182 90 1a 60
        E 0 90 1f 60
        E 0 90 3d 60
        E 0 90 3e 60
        E 0 90 49 60
        E 0 90 4a 60
        E 0 90 55 60
        E 0 90 56 60
        E 0 90 61 60
        E 0 90 62 60
        E 57 80 1a 00
        E 0 80 1f 00
        E 1 80 3d 00
        E 0 80 3e 00
        E 0 80 49 00
        E 0 80 4a 00
        E 0 80 55 00
        E 0 80 56 00
        E 0 80 61 00
        E 0 80 62 00
        E 182 90 1f 60
        E 0 90 56 60
        E 0 90 62 60
        E 57 80 1f 00
        E 1 80 56 00
        E 0 80 62 00
        E 182 90 1f 60
        E 0 90 3e 60
        E 0 90 4a 60
        E 0 90 56 60
        E 0 90 62 60
        E 57 80 1f 00
        E 1 80 3e 00
        E 0 80 4a 00
        E 0 80 56 00
        E 0 80 62 00
        E 182 90 18 60
        E 0 90 1f 60
        E 0 90 54 60
        E 0 90 56 60
        E 0 90 60 60
        E 0 90 62 60
        E 57 80 1f 00
        E 1 80 18 00
        E 0 80 54 00
        E 0 80 56 00
        E 0 80 60 00
        E 0 80 62 00
        E 182 90 1f 60
        E 0 90 3e 60
        E 0 90 4a 60
        E 0 90 56 60
        E 0 90 62 60
        E 0 90 78 60
        E 0 90 79 60
        E 0 90 7a 60
        E 0 90 7b 60
        E 0 90 7c 60
        E 57 80 1f 00
        E 1 80 3e 00
        E 0 80 4a 00
        E 0 80 56 00
        E 0 80 62 00
        E 182 90 1f 60
        E 0 90 56 60
        E 0 90 62 60
        E 57 80 1f 00
        E 1 80 56 00
        E 0 80 62 00
        E 182 90 18 60
        E 0 90 1f 60
        E 0 90 3e 60
        E 0 90 48 60
        E 0 90 4a 60
        E 0 90 54 60
        E 0 90 56 60
        E 0 90 60 60
        E 0 90 62 60
        E 57 80 1f 00
        E 1 80 18 00
        E 0 80 3e 00
        E 0 80 48 00
        E 0 80 4a 00
        E 0 80 54 00
        E 0 80 56 00
        E 0 80 60 00
        E 0 80 62 00
        E 182 90 1f 60
        E 0 90 56 60
        E 0 90 62 60
        E 57 80 1f 00
        E 1 80 56 00
        E 0 80 62 00
        E 182 90 1a 60
        E 0 90 1f 60
        E 0 90 3d 60
        E 0 90 3e 60
        E 0 90 49 60
        E 0 90 4a 60
        E 0 90 55 60
        E 0 90 56 60
        E 0 90 61 60
        E 0 90 62 60
        E 57 80 1f 00
        E 1 80 1a 00
        E 0 80 3d 00
        E 0 80 3e 00
        E 0 80 49 00
        E 0 80 4a 00
        E 0 80 55 00
        E 0 80 56 00
        E 0 80 61 00
        E 0 80 62 00
        E 182 90 19 60
        E 0 90 1f 60
        E 0 90 57 60
        E 0 90 63 60
        E 58 80 1f 00
        E 0 80 57 00
        E 0 80 63 00
        E 182 80 19 00
        E 0 90 1f 60
        E 0 90 3e 60
        E 0 90 4a 60
        E 0 90 56 60
        E 0 90 62 60
        E 57 80 1f 00
        E 1 80 3e 00
        E 0 80 4a 00
        E 0 80 56 00
        E 0 80 62 00
        E 182 90 18 60
        E 0 90 1f 60
        E 0 90 54 60
        E 0 90 56 60
        E 0 90 60 60
        E 0 90 62 60
        E 57 80 1f 00
        E 1 80 18 00
        E 0 80 54 00
        E 0 80 56 00
        E 0 80 60 00
        E 0 80 62 00
        E 182 80 78 00
        E 0 80 79 00
        E 0 80 7a 00
        E 0 80 7b 00
        E 0 80 7c 00
        E 0 90 18 60
        E 0 90 1f 60
        E 0 90 3e 60
        E 0 90 48 60
        E 0 90 4a 60
        E 0 90 54 60
        E 0 90 56 60
        E 0 90 60 60
        E 0 90 62 60
        E 57 80 1f 00
        E 1 80 18 00
        E 0 80 3e 00
        E 0 80 48 00
        E 0 80 4a 00
        E 0 80 54 00
        E 0 80 56 00
        E 0 80 60 00
        E 0 80 62 00
        E 182 90 1f 60
        E 0 90 56 60
        E 0 90 62 60
        E 57 80 1f 00
        E 1 80 56 00
        E 0 80 62 00
        E 182 90 1f 60
        E 0 90 3e 60
        E 0 90 4a 60
        E 0 90 56 60
        E 0 90 62 60
        E 57 80 1f 00
        E 1 80 3e 00
        E 0 80 4a 00
        E 0 80 56 00
        E 0 80 62 00
        E 182 90 18 60
        E 0 90 1f 60
        E 0 90 54 60
        E 0 90 56 60
        E 0 90 60 60
        E 0 90 62 60
        E 57 80 1f 00
        E 1 80 18 00
        E 0 80 54 00
        E 0 80 56 00
        E 0 80 60 00
        E 0 80 62 00
        E 182 90 1a 60
        E 0 90 1f 60
        E 0 90 3d 60
        E 0 90 3e 60
        E 0 90 49 60
        E 0 90 4a 60
        E 0 90 55 60
        E 0 90 56 60
        E 0 90 61 60
        E 0 90 62 60
        E 57 80 1a 00
        E 0 80 1f 00
        E 1 80 3d 00
        E 0 80 3e 00
        E 0 80 49 00
        E 0 80 4a 00
        E 0 80 55 00
        E 0 80 56 00
        E 0 80 61 00
        E 0 80 62 00
        E 182 90 1f 60
        E 0 90 56 60
        E 0 90 62 60
        E 57 80 1f 00
        E 1 80 56 00
        E 0 80 62 00
        E 182 90 18 60
        E 0 90 1f 60
        E 0 90 3e 60
        E 0 90 48 60
        E 0 90 4a 60
        E 0 90 54 60
        E 0 90 56 60
        E 0 90 60 60
        E 0 90 62 60
        E 57 80 1f 00
        E 1 80 18 00
        E 0 80 3e 00
        E 0 80 48 00
        E 0 80 4a 00
        E 0 80 54 00
        E 0 80 56 00
        E 0 80 60 00
        E 0 80 62 00
        E 182 90 1f 60
        E 0 90 56 60
        E 0 90 62 60
        E 57 80 1f 00
        E 1 80 56 00
        E 0 80 62 00
        E 182 90 1f 60
        E 0 90 3e 60
        E 0 90 4a 60
        E 0 90 56 60
        E 0 90 62 60
        E 57 80 1f 00
        E 1 80 3e 00
        E 0 80 4a 00
        E 0 80 56 00
        E 0 80 62 00
        E 182 90 1f 60
        E 0 90 56 60
        E 0 90 62 60
        E 57 80 1f 00
        E 1 80 56 00
        E 0 80 62 00
        E 182 90 1f 60
        E 0 90 3e 60
        E 0 90 4a 60
        E 0 90 56 60
        E 0 90 62 60
        E 57 80 1f 00
        E 1 80 3e 00
        E 0 80 4a 00
        E 0 80 56 00
        E 0 80 62 00
        E 182 90 1f 60
        E 0 90 56 60
        E 0 90 62 60
        E 57 80 1f 00
        E 1 80 56 00
        E 0 80 62 00
        E 182 90 1a 60
        E 0 90 1f 60
        E 0 90 3d 60
        E 0 90 3e 60
        E 0 90 49 60
        E 0 90 4a 60
        E 0 90 55 60
        E 0 90 56 60
        E 0 90 61 60
        E 0 90 62 60
        E 57 80 1a 00
        E 0 80 1f 00
        E 1 80 3d 00
        E 0 80 3e 00
        E 0 80 49 00
        E 0 80 4a 00
        E 0 80 55 00
        E 0 80 56 00
        E 0 80 61 00
        E 0 80 62 00
        E 182 90 1f 60
        E 0 90 56 60
        E 0 90 62 60
        E 57 80 1f 00
        E 1 80 56 00
        E 0 80 62 00
        E 182 90 18 60
        E 0 90 1f 60
        E 0 90 3e 60
        E 0 90 48 60
        E 0 90 4a 60
        E 0 90 54 60
        E 0 90 56 60
        E 0 90 60 60
        E 0 90 62 60
        E 57 80 1f 00
        E 1 80 18 00
        E 0 80 3e 00
        E 0 80 48 00
        E 0 80 4a 00
        E 0 80 54 00
        E 0 80 56 00
        E 0 80 60 00
        E 0 80 62 00
        E 182 90 1f 60
        E 0 90 56 60
        E 0 90 62 60
        E 57 80 1f 00
        E 1 80 56 00
        E 0 80 62 00
        E 182 90 18 60
        E 0 90 1f 60
        E 0 90 3e 60
        E 0 90 48 60
        E 0 90 4a 60
        E 0 90 54 60
        E 0 90 56 60
        E 0 90 60 60
        E 0 90 62 60
        E 57 80 1f 00
        E 1 80 18 00
        E 0 80 3e 00
        E 0 80 48 00
        E 0 80 4a 00
        E 0 80 54 00
        E 0 80 56 00
        E 0 80 60 00
        E 0 80 62 00
        E 182 90 1f 60
        E 0 90 56 60
        E 0 90 62 60
        E 57 80 1f 00
        E 1 80 56 00
        E 0 80 62 00
        E 182 90 1f 60
        E 0 90 3e 60
        E 0 90 4a 60
        E 0 90 56 60
        E 0 90 62 60
        E 57 80 1f 00
        E 1 80 3e 00
        E 0 80 4a 00
        E 0 80 56 00
        E 0 80 62 00
        E 182 90 18 60
        E 0 90 1f 60
        E 0 90 54 60
        E 0 90 56 60
        E 0 90 60 60
        E 0 90 62 60
        E 57 80 1f 00
        E 1 80 18 00
        E 0 80 54 00
        E 0 80 56 00
        E 0 80 60 00
        E 0 80 62 00
        E 182 90 1a 60
        E 0 90 1f 60
        E 0 90 3d 60
        E 0 90 3e 60
        E 0 90 49 60
        E 0 90 4a 60
        E 0 90 55 60
        E 0 90 56 60
        E 0 90 61 60
        E 0 90 62 60
        E 57 80 1a 00
        E 0 80 1f 00
        E 1 80 3d 00
        E 0 80 3e 00
        E 0 80 49 00
        E 0 80 4a 00
        E 0 80 55 00
        E 0 80 56 00
        E 0 80 61 00
        E 0 80 62 00
        E 182 90 19 60
        E 0 90 1f 60
        E 0 90 57 60
        E 0 90 63 60
        E 58 80 1f 00
        E 0 80 57 00
        E 0 80 63 00
        E 182 80 19 00
        E 0 90 1f 60
        E 0 90 3e 60
        E 0 90 4a 60
        E 0 90 56 60
        E 0 90 62 60
        E 57 80 1f 00
        E 1 80 3e 00
        E 0 80 4a 00
        E 0 80 56 00
        E 0 80 62 00
        E 182 90 18 60
        E 0 90 1f 60
        E 0 90 54 60
        E 0 90 56 60
        E 0 90 60 60
        E 0 90 62 60
        E 57 80 1f 00
        E 1 80 18 00
        E 0 80 54 00
        E 0 80 56 00
        E 0 80 60 00
        E 0 80 62 00
        E 182 90 1f 60
        E 0 90 3e 60
        E 0 90 4a 60
        E 0 90 56 60
        E 0 90 62 60
        E 0 90 78 60
        E 0 90 79 60
        E 0 90 7a 60
        E 0 90 7b 60
        E 0 90 7c 60
        E 57 80 1f 00
        E 1 80 3e 00
        E 0 80 4a 00
        E 0 80 56 00
        E 0 80 62 00
        E 182 90 18 60
        E 0 90 1f 60
        E 0 90 54 60
        E 0 90 56 60
        E 0 90 60 60
        E 0 90 62 60
        E 57 80 1f 00
        E 1 80 18 00
        E 0 80 54 00
        E 0 80 56 00
        E 0 80 60 00
        E 0 80 62 00
        E 182 90 18 60
        E 0 90 1f 60
        E 0 90 3e 60
        E 0 90 48 60
        E 0 90 4a 60
        E 0 90 54 60
        E 0 90 56 60
        E 0 90 60 60
        E 0 90 62 60
        E 57 80 1f 00
        E 1 80 18 00
        E 0 80 3e 00
        E 0 80 48 00
        E 0 80 4a 00
        E 0 80 54 00
        E 0 80 56 00
        E 0 80 60 00
        E 0 80 62 00
        E 182 90 1f 60
        E 0 90 56 60
        E 0 90 62 60
        E 57 80 1f 00
        E 1 80 56 00
        E 0 80 62 00
        E 182 90 1a 60
        E 0 90 1f 60
        E 0 90 3d 60
        E 0 90 3e 60
        E 0 90 49 60
        E 0 90 4a 60
        E 0 90 55 60
        E 0 90 56 60
        E 0 90 61 60
        E 0 90 62 60
        E 57 80 1a 00
        E 0 80 1f 00
        E 1 80 3d 00
        E 0 80 3e 00
        E 0 80 49 00
        E 0 80 4a 00
        E 0 80 55 00
        E 0 80 56 00
        E 0 80 61 00
        E 0 80 62 00
        E 182 90 2f 60
        E 0 90 57 60
        E 0 90 63 60
        E 0 90 6f 60
        E 60 80 2f 00
        E 0 80 57 00
        E 0 80 63 00
        E 60 90 2e 60
        E 0 90 63 60
        E 60 80 6f 00
        E 0 80 2e 00
        E 0 80 63 00
        E 60 90 1a 60
        E 0 90 31 60
        E 0 90 3d 60
        E 0 90 40 60
        E 0 90 49 60
        E 0 90 4c 60
        E 0 90 55 60
        E 0 90 58 60
        E 0 90 61 60
        E 0 90 64 60
        E 0 90 70 60
        E 57 80 1a 00
        E 1 80 3d 00
        E 0 80 49 00
        E 0 80 55 00
        E 0 80 61 00
        E 2 80 31 00
        E 0 80 40 00
        E 0 80 4c 00
        E 0 80 58 00
        E 0 80 64 00
        E 0 80 70 00
        E 180 90 1f 60
        E 0 90 56 60
        E 0 90 62 60
        E 57 80 1f 00
        E 1 80 56 00
        E 0 80 62 00
        E 182 80 78 00
        E 0 80 79 00
        E 0 80 7a 00
        E 0 80 7b 00
        E 0 80 7c 00
        E 0 90 18 60
        E 0 90 24 60
        E 0 90 40 60
        E 0 90 48 60
        E 0 90 4c 60
        E 0 90 54 60
        E 0 90 58 60
        E 0 90 60 60
        E 0 90 64 60
        E 58 80 18 00
        E 0 80 48 00
        E 0 80 54 00
        E 0 80 60 00
        E 2 80 24 00
        E 0 80 40 00
        E 0 80 4c 00
        E 0 80 58 00
        E 0 80 64 00
        E 180 90 1f 60
        E 0 90 56 60
        E 0 90 62 60
        E 57 80 1f 00
        E 1 80 56 00
        E 0 80 62 00
        E 182 90 1f 60
        E 0 90 3e 60
        E 0 90 4a 60
        E 0 90 56 60
        E 0 90 62 60
        E 57 80 1f 00
        E 1 80 3e 00
        E 0 80 4a 00
        E 0 80 56 00
        E 0 80 62 00
        E 182 90 18 60
        E 0 90 1f 60
        E 0 90 54 60
        E 0 90 56 60
        E 0 90 60 60
        E 0 90 62 60
        E 57 80 1f 00
        E 1 80 18 00
        E 0 80 54 00
        E 0 80 56 00
        E 0 80 60 00
        E 0 80 62 00
        E 182 90 1a 60
        E 0 90 1f 60
        E 0 90 3d 60
        E 0 90 3e 60
        E 0 90 49 60
        E 0 90 4a 60
        E 0 90 55 60
        E 0 90 56 60
        E 0 90 61 60
        E 0 90 62 60
        E 57 80 1a 00
        E 0 80 1f 00
        E 1 80 3d 00
        E 0 80 3e 00
        E 0 80 49 00
        E 0 80 4a 00
        E 0 80 55 00
        E 0 80 56 00
        E 0 80 61 00
        E 0 80 62 00
        E 182 90 1f 60
        E 0 90 56 60
        E 0 90 62 60
        E 57 80 1f 00
        E 1 80 56 00
        E 0 80 62 00
        E 182 90 18 60
        E 0 90 1f 60
        E 0 90 3e 60
        E 0 90 48 60
        E 0 90 4a 60
        E 0 90 54 60
        E 0 90 56 60
        E 0 90 60 60
        E 0 90 62 60
        E 57 80 1f 00
        E 1 80 18 00
        E 0 80 3e 00
        E 0 80 48 00
        E 0 80 4a 00
        E 0 80 54 00
        E 0 80 56 00
        E 0 80 60 00
        E 0 80 62 00
        E 182 90 1f 60
        E 0 90 56 60
        E 0 90 62 60
        E 57 80 1f 00
        E 1 80 56 00
        E 0 80 62 00
        E 182 90 1f 60
        E 0 90 3e 60
        E 0 90 4a 60
        E 0 90 56 60
        E 0 90 62 60
        E 57 80 1f 00
        E 1 80 3e 00
        E 0 80 4a 00
        E 0 80 56 00
        E 0 80 62 00
        E 182 90 1f 60
        E 0 90 56 60
        E 0 90 62 60
        E 57 80 1f 00
        E 1 80 56 00
        E 0 80 62 00
        E 182 90 1f 60
        E 0 90 3e 60
        E 0 90 4a 60
        E 0 90 56 60
        E 0 90 62 60
        E 57 80 1f 00
        E 1 80 3e 00
        E 0 80 4a 00
        E 0 80 56 00
        E 0 80 62 00
        E 182 90 1f 60
        E 0 90 56 60
        E 0 90 62 60
        E 57 80 1f 00
        E 1 80 56 00
        E 0 80 62 00
        E 182 90 1a 60
        E 0 90 1f 60
        E 0 90 3d 60
        E 0 90 3e 60
        E 0 90 49 60
        E 0 90 4a 60
        E 0 90 55 60
        E 0 90 56 60
        E 0 90 61 60
        E 0 90 62 60
        E 57 80 1a 00
        E 0 80 1f 00
        E 1 80 3d 00
        E 0 80 3e 00
        E 0 80 49 00
        E 0 80 4a 00
        E 0 80 55 00
        E 0 80 56 00
        E 0 80 61 00
        E 0 80 62 00
        E 182 90 1f 60
        E 0 90 56 60
        E 0 90 62 60
        E 57 80 1f 00
        E 1 80 56 00
        E 0 80 62 00
        E 182 90 18 60
        E 0 90 1f 60
        E 0 90 3e 60
        E 0 90 48 60
        E 0 90 4a 60
        E 0 90 54 60
        E 0 90 56 60
        E 0 90 60 60
        E 0 90 62 60
        E 57 80 1f 00
        E 1 80 18 00
        E 0 80 3e 00
        E 0 80 48 00
        E 0 80 4a 00
        E 0 80 54 00
        E 0 80 56 00
        E 0 80 60 00
        E 0 80 62 00
        E 182 90 1f 60
        E 0 90 56 60
        E 0 90 62 60
        E 57 80 1f 00
        E 1 80 56 00
        E 0 80 62 00
        E 182 90 18 60
        E 0 90 1f 60
        E 0 90 3e 60
        E 0 90 48 60
        E 0 90 4a 60
        E 0 90 54 60
        E 0 90 56 60
        E 0 90 60 60
        E 0 90 62 60
        E 57 80 1f 00
        E 1 80 18 00
        E 0 80 3e 00
        E 0 80 48 00
        E 0 80 4a 00
        E 0 80 54 00
        E 0 80 56 00
        E 0 80 60 00
        E 0 80 62 00
        E 182 90 1f 60
        E 0 90 56 60
        E 0 90 62 60
        E 57 80 1f 00
        E 1 80 56 00
        E 0 80 62 00
        E 182 90 1f 60
        E 0 90 3e 60
        E 0 90 4a 60
        E 0 90 56 60
        E 0 90 62 60
        E 57 80 1f 00
        E 1 80 3e 00
        E 0 80 4a 00
        E 0 80 56 00
        E 0 80 62 00
        E 182 90 18 60
        E 0 90 1f 60
        E 0 90 54 60
        E 0 90 56 60
        E 0 90 60 60
        E 0 90 62 60
        E 57 80 1f 00
        E 1 80 18 00
        E 0 80 54 00
        E 0 80 56 00
        E 0 80 60 00
        E 0 80 62 00
        E 182 90 1a 60
        E 0 90 1f 60
        E 0 90 3d 60
        E 0 90 3e 60
        E 0 90 49 60
        E 0 90 4a 60
        E 0 90 55 60
        E 0 90 56 60
        E 0 90 61 60
        E 0 90 62 60
        E 57 80 1a 00
        E 0 80 1f 00
        E 1 80 3d 00
        E 0 80 3e 00
        E 0 80 49 00
        E 0 80 4a 00
        E 0 80 55 00
        E 0 80 56 00
        E 0 80 61 00
        E 0 80 62 00
        E 182 90 1f 60
        E 0 90 56 60
        E 0 90 62 60
        E 57 80 1f 00
        E 1 80 56 00
        E 0 80 62 00
        E 182 90 1f 60
        E 0 90 3e 60
        E 0 90 4a 60
        E 0 90 56 60
        E 0 90 62 60
        E 57 80 1f 00
        E 1 80 3e 00
        E 0 80 4a 00
        E 0 80 56 00
        E 0 80 62 00
        E 182 90 18 60
        E 0 90 1f 60
        E 0 90 54 60
        E 0 90 56 60
        E 0 90 60 60
        E 0 90 62 60
        E 57 80 1f 00
        E 1 80 18 00
        E 0 80 54 00
        E 0 80 56 00
        E 0 80 60 00
        E 0 80 62 00
        E 182 90 1f 60
        E 0 90 3e 60
        E 0 90 4a 60
        E 0 90 56 60
        E 0 90 62 60
        E 0 90 78 60
        E 0 90 79 60
        E 0 90 7a 60
        E 0 90 7b 60
        E 0 90 7c 60
        E 57 80 1f 00
        E 1 80 3e 00
        E 0 80 4a 00
        E 0 80 56 00
        E 0 80 62 00
        E 182 90 1f 60
        E 0 90 56 60
        E 0 90 62 60
        E 57 80 1f 00
        E 1 80 56 00
        E 0 80 62 00
        E 182 90 18 60
        E 0 90 1f 60
        E 0 90 3e 60
        E 0 90 48 60
        E 0 90 4a 60
        E 0 90 54 60
        E 0 90 56 60
        E 0 90 60 60
        E 0 90 62 60
        E 57 80 1f 00
        E 1 80 18 00
        E 0 80 3e 00
        E 0 80 48 00
        E 0 80 4a 00
        E 0 80 54 00
        E 0 80 56 00
        E 0 80 60 00
        E 0 80 62 00
        E 182 90 1f 60
        E 0 90 56 60
        E 0 90 62 60
        E 57 80 1f 00
        E 1 80 56 00
        E 0 80 62 00
        E 182 90 1a 60
        E 0 90 1f 60
        E 0 90 3d 60
        E 0 90 3e 60
        E 0 90 49 60
        E 0 90 4a 60
        E 0 90 55 60
        E 0 90 56 60
        E 0 90 61 60
        E 0 90 62 60
        E 57 80 1a 00
        E 0 80 1f 00
        E 1 80 3d 00
        E 0 80 3e 00
        E 0 80 49 00
        E 0 80 4a 00
        E 0 80 55 00
        E 0 80 56 00
        E 0 80 61 00
        E 0 80 62 00
        E 182 90 19 60
        E 0 90 1f 60
        E 0 90 57 60
        E 0 90 63 60
        E 58 80 1f 00
        E 0 80 57 00
        E 0 80 63 00
        E 182 80 19 00
        E 0 90 1f 60
        E 0 90 3e 60
        E 0 90 4a 60
        E 0 90 56 60
        E 0 90 62 60
        E 57 80 1f 00
        E 1 80 3e 00
        E 0 80 4a 00
        E 0 80 56 00
        E 0 80 62 00
        E 182 90 18 60
        E 0 90 1f 60
        E 0 90 54 60
        E 0 90 56 60
        E 0 90 60 60
        E 0 90 62 60
        E 57 80 1f 00
        E 1 80 18 00
        E 0 80 54 00
        E 0 80 56 00
        E 0 80 60 00
        E 0 80 62 00
        E 182 80 78 00
        E 0 80 79 00
        E 0 80 7a 00
        E 0 80 7b 00
        E 0 80 7c 00
        E 0 90 18 60
        E 0 90 1f 60
        E 0 90 3e 60
        E 0 90 48 60
        E 0 90 4a 60
        E 0 90 54 60
        E 0 90 56 60
        E 0 90 60 60
        E 0 90 62 60
        E 0 90 74 60
        E 57 80 1f 00
        E 1 80 18 00
        E 0 80 3e 00
        E 0 80 48 00
        E 0 80 4a 00
        E 0 80 54 00
        E 0 80 56 00
        E 0 80 60 00
        E 0 80 62 00
        E 182 90 1f 60
        E 0 90 56 60
        E 0 90 62 60
        E 57 80 1f 00
        E 1 80 56 00
        E 0 80 62 00
        E 182 90 1f 60
        E 0 90 3e 60
        E 0 90 4a 60
        E 0 90 56 60
        E 0 90 62 60
        E 57 80 1f 00
        E 1 80 3e 00
        E 0 80 4a 00
        E 0 80 56 00
        E 0 80 62 00
        E 182 90 18 60
        E 0 90 1f 60
        E 0 90 54 60
        E 0 90 56 60
        E 0 90 60 60
        E 0 90 62 60
        E 57 80 1f 00
        E 1 80 18 00
        E 0 80 54 00
        E 0 80 56 00
        E 0 80 60 00
        E 0 80 62 00
        E 182 90 1a 60
        E 0 90 1f 60
        E 0 90 3d 60
        E 0 90 3e 60
        E 0 90 49 60
        E 0 90 4a 60
        E 0 90 55 60
        E 0 90 56 60
        E 0 90 61 60
        E 0 90 62 60
        E 57 80 1a 00
        E 0 80 1f 00
        E 1 80 3d 00
        E 0 80 3e 00
        E 0 80 49 00
        E 0 80 4a 00
        E 0 80 55 00
        E 0 80 56 00
        E 0 80 61 00
        E 0 80 62 00
        E 182 90 1f 60
        E 0 90 56 60
        E 0 90 62 60
        E 57 80 1f 00
        E 1 80 56 00
        E 0 80 62 00
        E 182 90 18 60
        E 0 90 1f 60
        E 0 90 3e 60
        E 0 90 48 60
        E 0 90 4a 60
        E 0 90 54 60
        E 0 90 56 60
        E 0 90 60 60
        E 0 90 62 60
        E 57 80 1f 00
        E 1 80 18 00
        E 0 80 3e 00
        E 0 80 48 00
        E 0 80 4a 00
        E 0 80 54 00
        E 0 80 56 00
        E 0 80 60 00
        E 0 80 62 00
        E 182 90 1f 60
        E 0 90 56 60
        E 0 90 62 60
        E 57 80 1f 00
        E 1 80 56 00
        E 0 80 62 00
        E 182 90 1f 60
        E 0 90 3e 60
        E 0 90 4a 60
        E 0 90 56 60
        E 0 90 62 60
        E 57 80 1f 00
        E 1 80 3e 00
        E 0 80 4a 00
        E 0 80 56 00
        E 0 80 62 00
        E 182 90 1f 60
        E 0 90 56 60
        E 0 90 62 60
        E 57 80 1f 00
        E 1 80 56 00
        E 0 80 62 00
        E 182 90 1f 60
        E 0 90 3e 60
        E 0 90 4a 60
        E 0 90 56 60
        E 0 90 62 60
        E 57 80 1f 00
        E 1 80 3e 00
        E 0 80 4a 00
        E 0 80 56 00
        E 0 80 62 00
        E 182 90 1f 60
        E 0 90 56 60
        E 0 90 62 60
        E 57 80 1f 00
        E 1 80 56 00
        E 0 80 62 00
        E 182 90 1a 60
        E 0 90 1f 60
        E 0 90 3d 60
        E 0 90 3e 60
        E 0 90 49 60
        E 0 90 4a 60
        E 0 90 55 60
        E 0 90 56 60
        E 0 90 61 60
        E 0 90 62 60
        E 57 80 1a 00
        E 0 80 1f 00
        E 1 80 3d 00
        E 0 80 3e 00
        E 0 80 49 00
        E 0 80 4a 00
        E 0 80 55 00
        E 0 80 56 00
        E 0 80 61 00
        E 0 80 62 00
        E 182 90 1f 60
        E 0 90 56 60
        E 0 90 62 60
        E 57 80 1f 00
        E 1 80 56 00
        E 0 80 62 00
        E 182 90 18 60
        E 0 90 1f 60
        E 0 90 3e 60
        E 0 90 48 60
        E 0 90 4a 60
        E 0 90 54 60
        E 0 90 56 60
        E 0 90 60 60
        E 0 90 62 60
        E 57 80 1f 00
        E 1 80 18 00
        E 0 80 3e 00
        E 0 80 48 00
        E 0 80 4a 00
        E 0 80 54 00
        E 0 80 56 00
        E 0 80 60 00
        E 0 80 62 00
        E 182 90 1f 60
        E 0 90 56 60
        E 0 90 62 60
        E 57 80 1f 00
        E 1 80 56 00
        E 0 80 62 00
        E 182 80 74 00
        E 0 90 18 60
        E 0 90 1f 60
        E 0 90 3e 60
        E 0 90 48 60
        E 0 90 4a 60
        E 0 90 54 60
        E 0 90 56 60
        E 0 90 60 60
        E 0 90 62 60
        E 57 80 1f 00
        E 1 80 18 00
        E 0 80 3e 00
        E 0 80 48 00
        E 0 80 4a 00
        E 0 80 54 00
        E 0 80 56 00
        E 0 80 60 00
        E 0 80 62 00
        E 182 90 1f 60
        E 0 90 56 60
        E 0 90 62 60
        E 57 80 1f 00
        E 1 80 56 00
        E 0 80 62 00
        E 182 90 1f 60
        E 0 90 3e 60
        E 0 90 4a 60
        E 0 90 56 60
        E 0 90 62 60
        E 57 80 1f 00
        E 1 80 3e 00
        E 0 80 4a 00
        E 0 80 56 00
        E 0 80 62 00
        E 182 90 18 60
        E 0 90 1f 60
        E 0 90 54 60
        E 0 90 56 60
        E 0 90 60 60
        E 0 90 62 60
        E 57 80 1f 00
        E 1 80 18 00
        E 0 80 54 00
        E 0 80 56 00
        E 0 80 60 00
        E 0 80 62 00
        E 182 90 1a 60
        E 0 90 1f 60
        E 0 90 3d 60
        E 0 90 3e 60
        E 0 90 49 60
        E 0 90 4a 60
        E 0 90 55 60
        E 0 90 56 60
        E 0 90 61 60
        E 0 90 62 60
        E 57 80 1a 00
        E 0 80 1f 00
        E 1 80 3d 00
        E 0 80 3e 00
        E 0 80 49 00
        E 0 80 4a 00
        E 0 80 55 00
        E 0 80 56 00
        E 0 80 61 00
        E 0 80 62 00
        E 182 90 19 60
        E 0 90 1f 60
        E 0 90 57 60
        E 0 90 63 60
        E 58 80 1f 00
        E 0 80 57 00
        E 0 80 63 00
        E 182 80 19 00
        E 0 90 1f 60
        E 0 90 3e 60
        E 0 90 4a 60
        E 0 90 56 60
        E 0 90 62 60
        E 57 80 1f 00
        E 1 80 3e 00
        E 0 80 4a 00
        E 0 80 56 00
        E 0 80 62 00
        E 182 90 18 60
        E 0 90 1f 60
        E 0 90 54 60
        E 0 90 56 60
        E 0 90 60 60
        E 0 90 62 60
        E 57 80 1f 00
        E 1 80 18 00
        E 0 80 54 00
        E 0 80 56 00
        E 0 80 60 00
        E 0 80 62 00
        E 182 90 1f 60
        E 0 90 3e 60
        E 0 90 4a 60
        E 0 90 56 60
        E 0 90 62 60
        E 0 90 78 60
        E 0 90 79 60
        E 0 90 7a 60
        E 0 90 7b 60
        E 0 90 7c 60
        E 57 80 1f 00
        E 1 80 3e 00
        E 0 80 4a 00
        E 0 80 56 00
        E 0 80 62 00
        E 182 90 18 60
        E 0 90 2f 60
        E 0 90 54 60
        E 0 90 57 60
        E 0 90 60 60
        E 0 90 63 60
        E 0 90 6f 60
        E 57 80 2f 00
        E 1 80 18 00
        E 0 80 54 00
        E 0 80 57 00
        E 0 80 60 00
        E 0 80 63 00
        E 2 80 6f 00
        E 180 90 18 60
        E 0 90 1f 60
        E 0 90 3e 60
        E 0 90 48 60
        E 0 90 4a 60
        E 0 90 54 60
        E 0 90 56 60
        E 0 90 60 60
        E 0 90 62 60
        E 57 80 1f 00
        E 1 80 18 00
        E 0 80 3e 00
        E 0 80 48 00
        E 0 80 4a 00
        E 0 80 54 00
        E 0 80 56 00
        E 0 80 60 00
        E 0 80 62 00
        E 182 90 1f 60
        E 0 90 56 60
        E 0 90 62 60
        E 57 80 1f 00
        E 1 80 56 00
        E 0 80 62 00
        E 182 90 1a 60
        E 0 90 1f 60
        E 0 90 3d 60
        E 0 90 3e 60
        E 0 90 49 60
        E 0 90 4a 60
        E 0 90 55 60
        E 0 90 56 60
        E 0 90 61 60
        E 0 90 62 60
        E 57 80 1a 00
        E 0 80 1f 00
        E 1 80 3d 00
        E 0 80 3e 00
        E 0 80 49 00
        E 0 80 4a 00
        E 0 80 55 00
        E 0 80 56 00
        E 0 80 61 00
        E 0 80 62 00
        E 182 90 1f 60
        E 0 90 56 60
        E 0 90 62 60
        E 57 80 1f 00
        E 1 80 56 00
        E 0 80 62 00
        E 182 90 1f 60
        E 0 90 3e 60
        E 0 90 4a 60
        E 0 90 56 60
        E 0 90 62 60
        E 57 80 1f 00
        E 1 80 3e 00
        E 0 80 4a 00
        E 0 80 56 00
        E 0 80 62 00
        E 182 90 1f 60
        E 0 90 56 60
        E 0 90 62 60
        E 57 80 1f 00
        E 1 80 56 00
        E 0 80 62 00
        E 182 80 78 00
        E 0 80 79 00
        E 0 80 7a 00
        E 0 80 7b 00
        E 0 80 7c 00
        E 0 90 18 60
        E 0 90 1f 60
        E 0 90 3e 60
        E 0 90 48 60
        E 0 90 4a 60
        E 0 90 54 60
        E 0 90 56 60
        E 0 90 60 60
        E 0 90 62 60
        E 57 80 1f 00
        E 1 80 18 00
        E 0 80 3e 00
        E 0 80 48 00
        E 0 80 4a 00
        E 0 80 54 00
        E 0 80 56 00
        E 0 80 60 00
        E 0 80 62 00
        E 182 90 1f 60
        E 0 90 56 60
        E 0 90 62 60
        E 57 80 1f 00
        E 1 80 56 00
        E 0 80 62 00
        E 182 90 1f 60
        E 0 90 3e 60
        E 0 90 4a 60
        E 0 90 56 60
        E 0 90 62 60
        E 57 80 1f 00
        E 1 80 3e 00
        E 0 80 4a 00
        E 0 80 56 00
        E 0 80 62 00
        E 182 90 18 60
        E 0 90 1f 60
        E 0 90 54 60
        E 0 90 56 60
        E 0 90 60 60
        E 0 90 62 60
        E 57 80 1f 00
        E 1 80 18 00
        E 0 80 54 00
        E 0 80 56 00
        E 0 80 60 00
        E 0 80 62 00
        E 182 90 1a 60
        E 0 90 1f 60
        E 0 90 3d 60
        E 0 90 3e 60
        E 0 90 49 60
        E 0 90 4a 60
        E 0 90 55 60
        E 0 90 56 60
        E 0 90 61 60
        E 0 90 62 60
        E 57 80 1f 00
        E 1 80 1a 00
        E 0 80 3d 00
        E 0 80 3e 00
        E 0 80 49 00
        E 0 80 4a 00
        E 0 80 55 00
        E 0 80 56 00
        E 0 80 61 00
        E 0 80 62 00
        E 182 90 1f 60
        E 0 90 56 60
        E 0 90 62 60
        E 57 80 1f 00
        E 1 80 56 00
        E 0 80 62 00
        E 182 90 18 60
        E 0 90 1f 60
        E 0 90 3e 60
        E 0 90 48 60
        E 0 90 4a 60
        E 0 90 54 60
        E 0 90 56 60
        E 0 90 60 60
        E 0 90 62 60
        E 57 80 1f 00
        E 1 80 18 00
        E 0 80 3e 00
        E 0 80 48 00
        E 0 80 4a 00
        E 0 80 54 00
        E 0 80 56 00
        E 0 80 60 00
        E 0 80 62 00
        E 182 90 1f 60
        E 0 90 56 60
        E 0 90 62 60
        E 57 80 1f 00
        E 1 80 56 00
        E 0 80 62 00
        E 182 90 1f 60
        E 0 90 3e 60
        E 0 90 4a 60
        E 0 90 56 60
        E 0 90 62 60
        E 57 80 1f 00
        E 1 80 3e 00
        E 0 80 4a 00
        E 0 80 56 00
        E 0 80 62 00
        E 182 90 1f 60
        E 0 90 56 60
        E 0 90 62 60
        E 57 80 1f 00
        E 1 80 56 00
        E 0 80 62 00
        E 182 90 18 60
        E 0 90 1f 60
        E 0 90 3e 60
        E 0 90 48 60
        E 0 90 4a 60
        E 0 90 54 60
        E 0 90 56 60
        E 0 90 60 60
        E 0 90 62 60
        E 57 80 1f 00
        E 1 80 18 00
        E 0 80 3e 00
        E 0 80 48 00
        E 0 80 4a 00
        E 0 80 54 00
        E 0 80 56 00
        E 0 80 60 00
        E 0 80 62 00
        E 182 90 1f 60
        E 0 90 56 60
        E 0 90 62 60
        E 57 80 1f 00
        E 1 80 56 00
        E 0 80 62 00
        E 182 90 1a 60
        E 0 90 1f 60
        E 0 90 3d 60
        E 0 90 3e 60
        E 0 90 49 60
        E 0 90 4a 60
        E 0 90 55 60
        E 0 90 56 60
        E 0 90 61 60
        E 0 90 62 60
        E 57 80 1a 00
        E 0 80 1f 00
        E 1 80 3d 00
        E 0 80 3e 00
        E 0 80 49 00
        E 0 80 4a 00
        E 0 80 55 00
        E 0 80 56 00
        E 0 80 61 00
        E 0 80 62 00
        E 182 90 1f 60
        E 0 90 56 60
        E 0 90 62 60
        E 57 80 1f 00
        E 1 80 56 00
        E 0 80 62 00
        E 182 90 18 60
        E 0 90 1f 60
        E 0 90 3e 60
        E 0 90 48 60
        E 0 90 4a 60
        E 0 90 54 60
        E 0 90 56 60
        E 0 90 60 60
        E 0 90 62 60
        E 57 80 1f 00
        E 1 80 18 00
        E 0 80 3e 00
        E 0 80 48 00
        E 0 80 4a 00
        E 0 80 54 00
        E 0 80 56 00
        E 0 80 60 00
        E 0 80 62 00
        E 182 90 1f 60
        E 0 90 56 60
        E 0 90 62 60
        E 57 80 1f 00
        E 1 80 56 00
        E 0 80 62 00
        E 182 90 18 60
        E 0 90 1f 60
        E 0 90 3e 60
        E 0 90 48 60
        E 0 90 4a 60
        E 0 90 54 60
        E 0 90 56 60
        E 0 90 60 60
        E 0 90 62 60
        E 57 80 1f 00
        E 1 80 18 00
        E 0 80 3e 00
        E 0 80 48 00
        E 0 80 4a 00
        E 0 80 54 00
        E 0 80 56 00
        E 0 80 60 00
        E 0 80 62 00
        E 182 90 1f 60
        E 0 90 56 60
        E 0 90 62 60
        E 57 80 1f 00
        E 1 80 56 00
        E 0 80 62 00
        E 182 90 1f 60
        E 0 90 3e 60
        E 0 90 4a 60
        E 0 90 56 60
        E 0 90 62 60
        E 57 80 1f 00
        E 1 80 3e 00
        E 0 80 4a 00
        E 0 80 56 00
        E 0 80 62 00
        E 182 90 18 60
        E 0 90 1f 60
        E 0 90 54 60
        E 0 90 56 60
        E 0 90 60 60
        E 0 90 62 60
        E 57 80 1f 00
        E 1 80 18 00
        E 0 80 54 00
        E 0 80 56 00
        E 0 80 60 00
        E 0 80 62 00
        E 182 90 1a 60
        E 0 90 1f 60
        E 0 90 3d 60
        E 0 90 3e 60
        E 0 90 49 60
        E 0 90 4a 60
        E 0 90 55 60
        E 0 90 56 60
        E 0 90 61 60
        E 0 90 62 60
        E 57 80 1a 00
        E 0 80 1f 00
        E 1 80 3d 00
        E 0 80 3e 00
        E 0 80 49 00
        E 0 80 4a 00
        E 0 80 55 00
        E 0 80 56 00
        E 0 80 61 00
        E 0 80 62 00
        E 182 90 1f 60
        E 0 90 56 60
        E 0 90 62 60
        E 57 80 1f 00
        E 1 80 56 00
        E 0 80 62 00
        E 182 90 1f 60
        E 0 90 3e 60
        E 0 90 4a 60
        E 0 90 56 60
        E 0 90 62 60
        E 57 80 1f 00
        E 1 80 3e 00
        E 0 80 4a 00
        E 0 80 56 00
        E 0 80 62 00
        E 182 90 18 60
        E 0 90 1f 60
        E 0 90 54 60
        E 0 90 56 60
        E 0 90 60 60
        E 0 90 62 60
        E 57 80 1f 00
        E 1 80 18 00
        E 0 80 54 00
        E 0 80 56 00
        E 0 80 60 00
        E 0 80 62 00
        E 182 90 1f 60
        E 0 90 3e 60
        E 0 90 4a 60
        E 0 90 56 60
        E 0 90 62 60
        E 0 90 78 60
        E 0 90 79 60
        E 0 90 7a 60
        E 0 90 7b 60
        E 0 90 7c 60
        E 57 80 1f 00
        E 1 80 3e 00
        E 0 80 4a 00
        E 0 80 56 00
        E 0 80 62 00
        E 182 90 1f 60
        E 0 90 56 60
        E 0 90 62 60
        E 57 80 1f 00
        E 1 80 56 00
        E 0 80 62 00
        E 182 90 18 60
        E 0 90 1f 60
        E 0 90 3e 60
        E 0 90 48 60
        E 0 90 4a 60
        E 0 90 54 60
        E 0 90 56 60
        E 0 90 60 60
        E 0 90 62 60
        E 57 80 1f 00
        E 1 80 18 00
        E 0 80 3e 00
        E 0 80 48 00
        E 0 80 4a 00
        E 0 80 54 00
        E 0 80 56 00
        E 0 80 60 00
        E 0 80 62 00
        E 182 90 1f 60
        E 0 90 56 60
        E 0 90 62 60
        E 57 80 1f 00
        E 1 80 56 00
        E 0 80 62 00
        E 182 90 1a 60
        E 0 90 1f 60
        E 0 90 3d 60
        E 0 90 3e 60
        E 0 90 49 60
        E 0 90 4a 60
        E 0 90 55 60
        E 0 90 56 60
        E 0 90 61 60
        E 0 90 62 60
        E 57 80 1a 00
        E 0 80 1f 00
        E 1 80 3d 00
        E 0 80 3e 00
        E 0 80 49 00
        E 0 80 4a 00
        E 0 80 55 00
        E 0 80 56 00
        E 0 80 61 00
        E 0 80 62 00
        E 182 90 18 60
        E 0 90 19 60
        E 0 90 1f 60
        E 0 90 54 60
        E 0 90 57 60
        E 0 90 60 60
        E 0 90 63 60
        E 58 80 18 00
        E 0 80 1f 00
        E 0 80 54 00
        E 0 80 57 00
        E 0 80 60 00
        E 0 80 63 00
        E 182 80 19 00
        E 0 90 1f 60
        E 0 90 3e 60
        E 0 90 4a 60
        E 0 90 56 60
        E 0 90 62 60
        E 57 80 1f 00
        E 1 80 3e 00
        E 0 80 4a 00
        E 0 80 56 00
        E 0 80 62 00
        E 182 90 18 60
        E 0 90 1f 60
        E 0 90 54 60
        E 0 90 56 60
        E 0 90 60 60
        E 0 90 62 60
        E 57 80 1f 00
        E 1 80 18 00
        E 0 80 54 00
        E 0 80 56 00
        E 0 80 60 00
        E 0 80 62 00
        E 182 80 78 00
        E 0 80 79 00
        E 0 80 7a 00
        E 0 80 7b 00
        E 0 80 7c 00
        E 0 90 18 60
        E 0 90 1f 60
        E 0 90 3e 60
        E 0 90 48 60
        E 0 90 4a 60
        E 0 90 54 60
        E 0 90 56 60
        E 0 90 60 60
        E 0 90 62 60
        E 57 80 1f 00
        E 1 80 18 00
        E 0 80 3e 00
        E 0 80 48 00
        E 0 80 4a 00
        E 0 80 54 00
        E 0 80 56 00
        E 0 80 60 00
        E 0 80 62 00
        E 182 90 1f 60
        E 0 90 56 60
        E 0 90 62 60
        E 57 80 1f 00
        E 1 80 56 00
        E 0 80 62 00
        E 182 90 1f 60
        E 0 90 3e 60
        E 0 90 4a 60
        E 0 90 56 60
        E 0 90 62 60
        E 57 80 1f 00
        E 1 80 3e 00
        E 0 80 4a 00
        E 0 80 56 00
        E 0 80 62 00
        E 182 90 18 60
        E 0 90 1f 60
        E 0 90 54 60
        E 0 90 56 60
        E 0 90 60 60
        E 0 90 62 60
        E 57 80 1f 00
        E 1 80 18 00
        E 0 80 54 00
        E 0 80 56 00
        E 0 80 60 00
        E 0 80 62 00
        E 182 90 1a 60
        E 0 90 1f 60
        E 0 90 3d 60
        E 0 90 3e 60
        E 0 90 49 60
        E 0 90 4a 60
        E 0 90 55 60
        E 0 90 56 60
        E 0 90 61 60
        E 0 90 62 60
        E 57 80 1a 00
        E 0 80 1f 00
        E 1 80 3d 00
        E 0 80 3e 00
        E 0 80 49 00
        E 0 80 4a 00
        E 0 80 55 00
        E 0 80 56 00
        E 0 80 61 00
        E 0 80 62 00
        E 182 90 1f 60
        E 0 90 56 60
        E 0 90 62 60
        E 57 80 1f 00
        E 1 80 56 00
        E 0 80 62 00
        E 182 90 18 60
        E 0 90 1f 60
        E 0 90 3e 60
        E 0 90 48 60
        E 0 90 4a 60
        E 0 90 54 60
        E 0 90 56 60
        E 0 90 60 60
        E 0 90 62 60
        E 57 80 1f 00
        E 1 80 18 00
        E 0 80 3e 00
        E 0 80 48 00
        E 0 80 4a 00
        E 0 80 54 00
        E 0 80 56 00
        E 0 80 60 00
        E 0 80 62 00
        E 182 90 1f 60
        E 0 90 56 60
        E 0 90 62 60
        E 57 80 1f 00
        E 1 80 56 00
        E 0 80 62 00
        E 182 90 1f 60
        E 0 90 3e 60
        E 0 90 4a 60
        E 0 90 56 60
        E 0 90 62 60
        E 57 80 1f 00
        E 1 80 3e 00
        E 0 80 4a 00
        E 0 80 56 00
        E 0 80 62 00
        E 182 90 1f 60
        E 0 90 56 60
        E 0 90 62 60
        E 57 80 1f 00
        E 1 80 56 00
        E 0 80 62 00
        E 182 90 18 60
        E 0 90 1f 60
        E 0 90 3e 60
        E 0 90 48 60
        E 0 90 4a 60
        E 0 90 54 60
        E 0 90 56 60
        E 0 90 60 60
        E 0 90 62 60
        E 57 80 1f 00
        E 1 80 18 00
        E 0 80 3e 00
        E 0 80 48 00
        E 0 80 4a 00
        E 0 80 54 00
        E 0 80 56 00
        E 0 80 60 00
        E 0 80 62 00
        E 182 90 1f 60
        E 0 90 56 60
        E 0 90 62 60
        E 57 80 1f 00
        E 1 80 56 00
        E 0 80 62 00
        E 182 90 1a 60
        E 0 90 1f 60
        E 0 90 3d 60
        E 0 90 3e 60
        E 0 90 49 60
        E 0 90 4a 60
        E 0 90 55 60
        E 0 90 56 60
        E 0 90 61 60
        E 0 90 62 60
        E 57 80 1a 00
        E 0 80 1f 00
        E 1 80 3d 00
        E 0 80 3e 00
        E 0 80 49 00
        E 0 80 4a 00
        E 0 80 55 00
        E 0 80 56 00
        E 0 80 61 00
        E 0 80 62 00
        E 182 90 1f 60
        E 0 90 56 60
        E 0 90 62 60
        E 57 80 1f 00
        E 1 80 56 00
        E 0 80 62 00
        E 182 90 18 60
        E 0 90 1f 60
        E 0 90 3e 60
        E 0 90 48 60
        E 0 90 4a 60
        E 0 90 54 60
        E 0 90 56 60
        E 0 90 60 60
        E 0 90 62 60
        E 57 80 1f 00
        E 1 80 18 00
        E 0 80 3e 00
        E 0 80 48 00
        E 0 80 4a 00
        E 0 80 54 00
        E 0 80 56 00
        E 0 80 60 00
        E 0 80 62 00
        E 182 90 1f 60
        E 0 90 56 60
        E 0 90 62 60
        E 57 80 1f 00
        E 1 80 56 00
        E 0 80 62 00
        E 182 90 18 60
        E 0 90 1f 60
        E 0 90 3e 60
        E 0 90 48 60
        E 0 90 4a 60
        E 0 90 54 60
        E 0 90 56 60
        E 0 90 60 60
        E 0 90 62 60
        E 57 80 1f 00
        E 1 80 18 00
        E 0 80 3e 00
        E 0 80 48 00
        E 0 80 4a 00
        E 0 80 54 00
        E 0 80 56 00
        E 0 80 60 00
        E 0 80 62 00
        E 182 90 1f 60
        E 0 90 56 60
        E 0 90 62 60
        E 57 80 1f 00
        E 1 80 56 00
        E 0 80 62 00
        E 182 90 1f 60
        E 0 90 3e 60
        E 0 90 4a 60
        E 0 90 56 60
        E 0 90 62 60
        E 57 80 1f 00
        E 1 80 3e 00
        E 0 80 4a 00
        E 0 80 56 00
        E 0 80 62 00
        E 182 90 18 60
        E 0 90 1f 60
        E 0 90 54 60
        E 0 90 56 60
        E 0 90 60 60
        E 0 90 62 60
        E 57 80 1f 00
        E 1 80 18 00
        E 0 80 54 00
        E 0 80 56 00
        E 0 80 60 00
        E 0 80 62 00
        E 182 90 1a 60
        E 0 90 1f 60
        E 0 90 3d 60
        E 0 90 3e 60
        E 0 90 49 60
        E 0 90 4a 60
        E 0 90 55 60
        E 0 90 56 60
        E 0 90 61 60
        E 0 90 62 60
        E 57 80 1a 00
        E 0 80 1f 00
        E 1 80 3d 00
        E 0 80 3e 00
        E 0 80 49 00
        E 0 80 4a 00
        E 0 80 55 00
        E 0 80 56 00
        E 0 80 61 00
        E 0 80 62 00
        E 182 90 19 60
        E 0 90 1f 60
        E 0 90 57 60
        E 0 90 63 60
        E 58 80 1f 00
        E 0 80 57 00
        E 0 80 63 00
        E 182 80 19 00
        E 0 90 1f 60
        E 0 90 3e 60
        E 0 90 4a 60
        E 0 90 56 60
        E 0 90 62 60
        E 57 80 1f 00
        E 1 80 3e 00
        E 0 80 4a 00
        E 0 80 56 00
        E 0 80 62 00
        E 182 90 18 60
        E 0 90 1f 60
        E 0 90 54 60
        E 0 90 56 60
        E 0 90 60 60
        E 0 90 62 60
        E 57 80 1f 00
        E 1 80 18 00
        E 0 80 54 00
        E 0 80 56 00
        E 0 80 60 00
        E 0 80 62 00
        E 182 90 1f 60
        E 0 90 3e 60
        E 0 90 4a 60
        E 0 90 56 60
        E 0 90 62 60
        E 0 90 74 60
        E 57 80 1f 00
        E 1 80 3e 00
        E 0 80 4a 00
        E 0 80 56 00
        E 0 80 62 00
        E 182 90 2f 60
        E 0 90 57 60
        E 0 90 63 60
        E 0 90 6f 60
        E 58 80 57 00
        E 0 80 63 00
        E 2 80 2f 00
        E 0 80 6f 00
        E 180 90 18 60
        E 0 90 1f 60
        E 0 90 3e 60
        E 0 90 48 60
        E 0 90 4a 60
        E 0 90 54 60
        E 0 90 56 60
        E 0 90 60 60
        E 0 90 62 60
        E 57 80 1f 00
        E 1 80 18 00
        E 0 80 3e 00
        E 0 80 48 00
        E 0 80 4a 00
        E 0 80 54 00
        E 0 80 56 00
        E 0 80 60 00
        E 0 80 62 00
        E 182 90 1f 60
        E 0 90 56 60
        E 0 90 62 60
        E 57 80 1f 00
        E 1 80 56 00
        E 0 80 62 00
        E 182 90 1a 60
        E 0 90 1f 60
        E 0 90 3d 60
        E 0 90 3e 60
        E 0 90 49 60
        E 0 90 4a 60
        E 0 90 55 60
        E 0 90 56 60
        E 0 90 61 60
        E 0 90 62 60
        E 57 80 1a 00
        E 0 80 1f 00
        E 1 80 3d 00
        E 0 80 3e 00
        E 0 80 49 00
        E 0 80 4a 00
        E 0 80 55 00
        E 0 80 56 00
        E 0 80 61 00
        E 0 80 62 00
        E 182 90 18 60
        E 0 90 1f 60
        E 0 90 54 60
        E 0 90 56 60
        E 0 90 60 60
        E 0 90 62 60
        E 57 80 1f 00
        E 1 80 18 00
        E 0 80 54 00
        E 0 80 56 00
        E 0 80 60 00
        E 0 80 62 00
        E 182 90 1f 60
        E 0 90 3e 60
        E 0 90 4a 60
        E 0 90 56 60
        E 0 90 62 60
        E 57 80 1f 00
        E 1 80 3e 00
        E 0 80 4a 00
        E 0 80 56 00
        E 0 80 62 00
        E 182 90 18 60
        E 0 90 1f 60
        E 0 90 54 60
        E 0 90 56 60
        E 0 90 60 60
        E 0 90 62 60
        E 57 80 1f 00
        E 1 80 18 00
        E 0 80 54 00
        E 0 80 56 00
        E 0 80 60 00
        E 0 80 62 00
        E 182 80 74 00
        E 0 90 18 60
        E 0 90 1f 60
        E 0 90 3e 60
        E 0 90 48 60
        E 0 90 4a 60
        E 0 90 54 60
        E 0 90 56 60
        E 0 90 60 60
        E 0 90 62 60
        E 57 80 1f 00
        E 1 80 18 00
        E 0 80 3e 00
        E 0 80 48 00
        E 0 80 4a 00
        E 0 80 54 00
        E 0 80 56 00
        E 0 80 60 00
        E 0 80 62 00
        E 182 90 1f 60
        E 0 90 56 60
        E 0 90 62 60
        E 57 80 1f 00
        E 1 80 56 00
        E 0 80 62 00
        E 182 90 1f 60
        E 0 90 3e 60
        E 0 90 4a 60
        E 0 90 56 60
        E 0 90 62 60
        E 57 80 1f 00
        E 1 80 3e 00
        E 0 80 4a 00
        E 0 80 56 00
        E 0 80 62 00
        E 182 90 18 60
        E 0 90 1f 60
        E 0 90 54 60
        E 0 90 56 60
        E 0 90 60 60
        E 0 90 62 60
        E 57 80 1f 00
        E 1 80 18 00
        E 0 80 54 00
        E 0 80 56 00
        E 0 80 60 00
        E 0 80 62 00
        E 182 90 1a 60
        E 0 90 1f 60
        E 0 90 3d 60
        E 0 90 3e 60
        E 0 90 49 60
        E 0 90 4a 60
        E 0 90 55 60
        E 0 90 56 60
        E 0 90 61 60
        E 0 90 62 60
        E 57 80 1a 00
        E 0 80 1f 00
        E 1 80 3d 00
        E 0 80 3e 00
        E 0 80 49 00
        E 0 80 4a 00
        E 0 80 55 00
        E 0 80 56 00
        E 0 80 61 00
        E 0 80 62 00
        E 182 90 1f 60
        E 0 90 56 60
        E 0 90 62 60
        E 57 80 1f 00
        E 1 80 56 00
        E 0 80 62 00
        E 182 90 18 60
        E 0 90 1f 60
        E 0 90 3e 60
        E 0 90 48 60
        E 0 90 4a 60
        E 0 90 54 60
        E 0 90 56 60
        E 0 90 60 60
        E 0 90 62 60
        E 57 80 1f 00
        E 1 80 18 00
        E 0 80 3e 00
        E 0 80 48 00
        E 0 80 4a 00
        E 0 80 54 00
        E 0 80 56 00
        E 0 80 60 00
        E 0 80 62 00
        E 182 90 1f 60
        E 0 90 56 60
        E 0 90 62 60
        E 57 80 1f 00
        E 1 80 56 00
        E 0 80 62 00
        E 182 90 1f 60
        E 0 90 3e 60
        E 0 90 4a 60
        E 0 90 56 60
        E 0 90 62 60
        E 57 80 1f 00
        E 1 80 3e 00
        E 0 80 4a 00
        E 0 80 56 00
        E 0 80 62 00
        E 182 90 1f 60
        E 0 90 56 60
        E 0 90 62 60
        E 57 80 1f 00
        E 1 80 56 00
        E 0 80 62 00
        E 182 90 18 60
        E 0 90 1f 60
        E 0 90 3e 60
        E 0 90 48 60
        E 0 90 4a 60
        E 0 90 54 60
        E 0 90 56 60
        E 0 90 60 60
        E 0 90 62 60
        E 57 80 1f 00
        E 1 80 18 00
        E 0 80 3e 00
        E 0 80 48 00
        E 0 80 4a 00
        E 0 80 54 00
        E 0 80 56 00
        E 0 80 60 00
        E 0 80 62 00
        E 182 90 1f 60
        E 0 90 56 60
        E 0 90 62 60
        E 57 80 1f 00
        E 1 80 56 00
        E 0 80 62 00
        E 182 90 1a 60
        E 0 90 1f 60
        E 0 90 3d 60
        E 0 90 3e 60
        E 0 90 49 60
        E 0 90 4a 60
        E 0 90 55 60
        E 0 90 56 60
        E 0 90 61 60
        E 0 90 62 60
        E 57 80 1a 00
        E 0 80 1f 00
        E 1 80 3d 00
        E 0 80 3e 00
        E 0 80 49 00
        E 0 80 4a 00
        E 0 80 55 00
        E 0 80 56 00
        E 0 80 61 00
        E 0 80 62 00
        E 182 90 1f 60
        E 0 90 56 60
        E 0 90 62 60
        E 57 80 1f 00
        E 1 80 56 00
        E 0 80 62 00
        E 182 90 18 60
        E 0 90 1f 60
        E 0 90 3e 60
        E 0 90 48 60
        E 0 90 4a 60
        E 0 90 54 60
        E 0 90 56 60
        E 0 90 60 60
        E 0 90 62 60
        E 57 80 1f 00
        E 1 80 18 00
        E 0 80 3e 00
        E 0 80 48 00
        E 0 80 4a 00
        E 0 80 54 00
        E 0 80 56 00
        E 0 80 60 00
        E 0 80 62 00
        E 182 90 1f 60
        E 0 90 56 60
        E 0 90 62 60
        E 57 80 1f 00
        E 1 80 56 00
        E 0 80 62 00
        E 182 90 18 60
        E 0 90 1f 60
        E 0 90 3e 60
        E 0 90 48 60
        E 0 90 4a 60
        E 0 90 54 60
        E 0 90 56 60
        E 0 90 60 60
        E 0 90 62 60
        E 57 80 1f 00
        E 1 80 18 00
        E 0 80 3e 00
        E 0 80 48 00
        E 0 80 4a 00
        E 0 80 54 00
        E 0 80 56 00
        E 0 80 60 00
        E 0 80 62 00
        E 182 90 1f 60
        E 0 90 56 60
        E 0 90 62 60
        E 57 80 1f 00
        E 1 80 56 00
        E 0 80 62 00
        E 182 90 1f 60
        E 0 90 3e 60
        E 0 90 4a 60
        E 0 90 56 60
        E 0 90 62 60
        E 57 80 1f 00
        E 1 80 3e 00
        E 0 80 4a 00
        E 0 80 56 00
        E 0 80 62 00
        E 182 90 18 60
        E 0 90 1f 60
        E 0 90 54 60
        E 0 90 56 60
        E 0 90 60 60
        E 0 90 62 60
        E 57 80 1f 00
        E 1 80 18 00
        E 0 80 54 00
        E 0 80 56 00
        E 0 80 60 00
        E 0 80 62 00
        E 182 90 1a 60
        E 0 90 1f 60
        E 0 90 3d 60
        E 0 90 3e 60
        E 0 90 49 60
        E 0 90 4a 60
        E 0 90 55 60
        E 0 90 56 60
        E 0 90 61 60
        E 0 90 62 60
        E 57 80 1a 00
        E 0 80 1f 00
        E 1 80 3d 00
        E 0 80 3e 00
        E 0 80 49 00
        E 0 80 4a 00
        E 0 80 55 00
        E 0 80 56 00
        E 0 80 61 00
        E 0 80 62 00
        E 182 90 1f 60
        E 0 90 56 60
        E 0 90 62 60
        E 57 80 1f 00
        E 1 80 56 00
        E 0 80 62 00
        E 182 90 1f 60
        E 0 90 3e 60
        E 0 90 4a 60
        E 0 90 56 60
        E 0 90 62 60
        E 57 80 1f 00
        E 1 80 3e 00
        E 0 80 4a 00
        E 0 80 56 00
        E 0 80 62 00
        E 182 90 18 60
        E 0 90 1f 60
        E 0 90 54 60
        E 0 90 56 60
        E 0 90 60 60
        E 0 90 62 60
        E 57 80 1f 00
        E 1 80 18 00
        E 0 80 54 00
        E 0 80 56 00
        E 0 80 60 00
        E 0 80 62 00
        E 182 90 1f 60
        E 0 90 3e 60
        E 0 90 4a 60
        E 0 90 56 60
        E 0 90 62 60
        E 0 90 78 60
        E 0 90 79 60
        E 0 90 7a 60
        E 0 90 7b 60
        E 0 90 7c 60
        E 57 80 1f 00
        E 1 80 3e 00
        E 0 80 4a 00
        E 0 80 56 00
        E 0 80 62 00
        E 182 90 1f 60
        E 0 90 56 60
        E 0 90 62 60
        E 57 80 1f 00
        E 1 80 56 00
        E 0 80 62 00
        E 182 90 18 60
        E 0 90 1f 60
        E 0 90 3e 60
        E 0 90 48 60
        E 0 90 4a 60
        E 0 90 54 60
        E 0 90 56 60
        E 0 90 60 60
        E 0 90 62 60
        E 57 80 1f 00
        E 1 80 18 00
        E 0 80 3e 00
        E 0 80 48 00
        E 0 80 4a 00
        E 0 80 54 00
        E 0 80 56 00
        E 0 80 60 00
        E 0 80 62 00
        E 182 90 1f 60
        E 0 90 56 60
        E 0 90 62 60
        E 57 80 1f 00
        E 1 80 56 00
        E 0 80 62 00
        E 182 90 1a 60
        E 0 90 1f 60
        E 0 90 3d 60
        E 0 90 3e 60
        E 0 90 49 60
        E 0 90 4a 60
        E 0 90 55 60
        E 0 90 56 60
        E 0 90 61 60
        E 0 90 62 60
        E 57 80 1a 00
        E 0 80 1f 00
        E 1 80 3d 00
        E 0 80 3e 00
        E 0 80 49 00
        E 0 80 4a 00
        E 0 80 55 00
        E 0 80 56 00
        E 0 80 61 00
        E 0 80 62 00
        E 182 90 18 60
        E 0 90 19 60
        E 0 90 1f 60
        E 0 90 54 60
        E 0 90 57 60
        E 0 90 60 60
        E 0 90 63 60
        E 58 80 18 00
        E 0 80 1f 00
        E 0 80 54 00
        E 0 80 57 00
        E 0 80 60 00
        E 0 80 63 00
        E 182 80 19 00
        E 0 90 1f 60
        E 0 90 3e 60
        E 0 90 4a 60
        E 0 90 56 60
        E 0 90 62 60
        E 57 80 1f 00
        E 1 80 3e 00
        E 0 80 4a 00
        E 0 80 56 00
        E 0 80 62 00
        E 182 90 18 60
        E 0 90 1f 60
        E 0 90 54 60
        E 0 90 56 60
        E 0 90 60 60
        E 0 90 62 60
        E 57 80 1f 00
        E 1 80 18 00
        E 0 80 54 00
        E 0 80 56 00
        E 0 80 60 00
        E 0 80 62 00
        E 182 80 78 00
        E 0 80 79 00
        E 0 80 7a 00
        E 0 80 7b 00
        E 0 80 7c 00
        E 0 90 18 60
        E 0 90 1f 60
        E 0 90 3e 60
        E 0 90 48 60
        E 0 90 4a 60
        E 0 90 54 60
        E 0 90 56 60
        E 0 90 60 60
        E 0 90 62 60
        E 57 80 1f 00
        E 1 80 18 00
        E 0 80 3e 00
        E 0 80 48 00
        E 0 80 4a 00
        E 0 80 54 00
        E 0 80 56 00
        E 0 80 60 00
        E 0 80 62 00
        E 182 90 1f 60
        E 0 90 56 60
        E 0 90 62 60
        E 57 80 1f 00
        E 1 80 56 00
        E 0 80 62 00
        E 182 90 1f 60
        E 0 90 3e 60
        E 0 90 4a 60
        E 0 90 56 60
        E 0 90 62 60
        E 57 80 1f 00
        E 1 80 3e 00
        E 0 80 4a 00
        E 0 80 56 00
        E 0 80 62 00
        E 182 90 18 60
        E 0 90 1f 60
        E 0 90 54 60
        E 0 90 56 60
        E 0 90 60 60
        E 0 90 62 60
        E 57 80 1f 00
        E 1 80 18 00
        E 0 80 54 00
        E 0 80 56 00
        E 0 80 60 00
        E 0 80 62 00
        E 182 90 1a 60
        E 0 90 1f 60
        E 0 90 3d 60
        E 0 90 3e 60
        E 0 90 49 60
        E 0 90 4a 60
        E 0 90 55 60
        E 0 90 56 60
        E 0 90 61 60
        E 0 90 62 60
        E 57 80 1a 00
        E 0 80 1f 00
        E 1 80 3d 00
        E 0 80 3e 00
        E 0 80 49 00
        E 0 80 4a 00
        E 0 80 55 00
        E 0 80 56 00
        E 0 80 61 00
        E 0 80 62 00
        E 182 90 1f 60
        E 0 90 56 60
        E 0 90 62 60
        E 57 80 1f 00
        E 1 80 56 00
        E 0 80 62 00
        E 182 90 18 60
        E 0 90 1f 60
        E 0 90 3e 60
        E 0 90 48 60
        E 0 90 4a 60
        E 0 90 54 60
        E 0 90 56 60
        E 0 90 60 60
        E 0 90 62 60
        E 57 80 1f 00
        E 1 80 18 00
        E 0 80 3e 00
        E 0 80 48 00
        E 0 80 4a 00
        E 0 80 54 00
        E 0 80 56 00
        E 0 80 60 00
        E 0 80 62 00
        E 182 90 1f 60
        E 0 90 56 60
        E 0 90 62 60
        E 57 80 1f 00
        E 1 80 56 00
        E 0 80 62 00
        E 182 90 1f 60
        E 0 90 3e 60
        E 0 90 4a 60
        E 0 90 56 60
        E 0 90 62 60
        E 57 80 1f 00
        E 1 80 3e 00
        E 0 80 4a 00
        E 0 80 56 00
        E 0 80 62 00
        E 182 90 1f 60
        E 0 90 56 60
        E 0 90 62 60
        E 57 80 1f 00
        E 1 80 56 00
        E 0 80 62 00
        E 182 90 18 60
        E 0 90 1f 60
        E 0 90 3e 60
        E 0 90 48 60
        E 0 90 4a 60
        E 0 90 54 60
        E 0 90 56 60
        E 0 90 60 60
        E 0 90 62 60
        E 57 80 1f 00
        E 1 80 18 00
        E 0 80 3e 00
        E 0 80 48 00
        E 0 80 4a 00
        E 0 80 54 00
        E 0 80 56 00
        E 0 80 60 00
        E 0 80 62 00
        E 182 90 1f 60
        E 0 90 56 60
        E 0 90 62 60
        E 57 80 1f 00
        E 1 80 56 00
        E 0 80 62 00
        E 182 90 1a 60
        E 0 90 1f 60
        E 0 90 3d 60
        E 0 90 3e 60
        E 0 90 49 60
        E 0 90 4a 60
        E 0 90 55 60
        E 0 90 56 60
        E 0 90 61 60
        E 0 90 62 60
        E 57 80 1a 00
        E 0 80 1f 00
        E 1 80 3d 00
        E 0 80 3e 00
        E 0 80 49 00
        E 0 80 4a 00
        E 0 80 55 00
        E 0 80 56 00
        E 0 80 61 00
        E 0 80 62 00
        E 182 90 1f 60
        E 0 90 56 60
        E 0 90 62 60
        E 57 80 1f 00
        E 1 80 56 00
        E 0 80 62 00
        E 182 90 18 60
        E 0 90 1f 60
        E 0 90 3e 60
        E 0 90 48 60
        E 0 90 4a 60
        E 0 90 54 60
        E 0 90 56 60
        E 0 90 60 60
        E 0 90 62 60
        E 57 80 1f 00
        E 1 80 18 00
        E 0 80 3e 00
        E 0 80 48 00
        E 0 80 4a 00
        E 0 80 54 00
        E 0 80 56 00
        E 0 80 60 00
        E 0 80 62 00
        E 182 90 1f 60
        E 0 90 56 60
        E 0 90 62 60
        E 57 80 1f 00
        E 1 80 56 00
        E 0 80 62 00
        E 182 90 18 60
        E 0 90 1f 60
        E 0 90 3e 60
        E 0 90 48 60
        E 0 90 4a 60
        E 0 90 54 60
        E 0 90 56 60
        E 0 90 60 60
        E 0 90 62 60
        E 0 90 74 60
        E 57 80 1f 00
        E 1 80 18 00
        E 0 80 3e 00
        E 0 80 48 00
        E 0 80 4a 00
        E 0 80 54 00
        E 0 80 56 00
        E 0 80 60 00
        E 0 80 62 00
        E 182 90 1f 60
        E 0 90 56 60
        E 0 90 62 60
        E 57 80 1f 00
        E 1 80 56 00
        E 0 80 62 00
        E 182 90 1f 60
        E 0 90 3e 60
        E 0 90 4a 60
        E 0 90 56 60
        E 0 90 62 60
        E 57 80 1f 00
        E 1 80 3e 00
        E 0 80 4a 00
        E 0 80 56 00
        E 0 80 62 00
        E 182 90 18 60
        E 0 90 1f 60
        E 0 90 54 60
        E 0 90 56 60
        E 0 90 60 60
        E 0 90 62 60
        E 57 80 1f 00
        E 1 80 18 00
        E 0 80 54 00
        E 0 80 56 00
        E 0 80 60 00
        E 0 80 62 00
        E 182 90 1a 60
        E 0 90 1f 60
        E 0 90 3d 60
        E 0 90 3e 60
        E 0 90 49 60
        E 0 90 4a 60
        E 0 90 55 60
        E 0 90 56 60
        E 0 90 61 60
        E 0 90 62 60
        E 57 80 1a 00
        E 0 80 1f 00
        E 1 80 3d 00
        E 0 80 3e 00
        E 0 80 49 00
        E 0 80 4a 00
        E 0 80 55 00
        E 0 80 56 00
        E 0 80 61 00
        E 0 80 62 00
        E 182 90 2f 60
        E 0 90 57 60
        E 0 90 63 60
        E 0 90 6f 60
        E 58 80 57 00
        E 0 80 63 00
        E 2 80 2f 00
        E 180 90 1f 60
        E 0 90 3e 60
        E 0 90 4a 60
        E 0 90 56 60
        E 0 90 62 60
        E 57 80 1f 00
        E 1 80 3e 00
        E 0 80 4a 00
        E 0 80 56 00
        E 0 80 62 00
        E 182 90 18 60
        E 0 90 1f 60
        E 0 90 54 60
        E 0 90 56 60
        E 0 90 60 60
        E 0 90 62 60
        E 57 80 1f 00
        E 1 80 18 00
        E 0 80 54 00
        E 0 80 56 00
        E 0 80 60 00
        E 0 80 62 00
        E 182 90 1f 60
        E 0 90 3e 60
        E 0 90 4a 60
        E 0 90 56 60
        E 0 90 62 60
        E 57 80 1f 00
        E 1 80 3e 00
        E 0 80 4a 00
        E 0 80 56 00
        E 0 80 62 00
        E 182 90 31 60
        E 0 90 58 60
        E 0 90 64 60
        E 0 90 70 60
        E 58 80 58 00
        E 0 80 64 00
        E 2 80 31 00
        E 180 90 18 60
        E 0 90 1f 60
        E 0 90 3e 60
        E 0 90 48 60
        E 0 90 4a 60
        E 0 90 54 60
        E 0 90 56 60
        E 0 90 60 60
        E 0 90 62 60
        E 57 80 1f 00
        E 1 80 18 00
        E 0 80 3e 00
        E 0 80 48 00
        E 0 80 4a 00
        E 0 80 54 00
        E 0 80 56 00
        E 0 80 60 00
        E 0 80 62 00
        E 182 90 1f 60
        E 0 90 56 60
        E 0 90 62 60
        E 57 80 1f 00
        E 1 80 56 00
        E 0 80 62 00
        E 182 90 1f 60
        E 0 90 3e 60
        E 0 90 4a 60
        E 0 90 56 60
        E 0 90 62 60
        E 57 80 1f 00
        E 1 80 3e 00
        E 0 80 4a 00
        E 0 80 56 00
        E 0 80 62 00
        E 182 90 18 60
        E 0 90 19 60
        E 0 90 31 60
        E 0 90 54 60
        E 0 90 57 60
        E 0 90 60 60
        E 0 90 63 60
        E 58 80 18 00
        E 0 80 54 00
        E 0 80 60 00
        E 2 80 31 00
        E 0 80 57 00
        E 0 80 63 00
        E 60 90 30 60
        E 0 90 63 60
        E 60 80 6f 00
        E 0 80 30 00
        E 0 80 63 00
        E 60 90 33 60
        E 0 90 40 60
        E 0 90 4c 60
        E 0 90 58 60
        E 0 90 64 60
        E 26 80 19 00
        E 34 80 70 00
        E 0 80 33 00
        E 0 80 40 00
        E 0 80 4c 00
        E 0 80 58 00
        E 0 80 64 00
        E 180 90 18 60
        E 0 90 1f 60
        E 0 90 54 60
        E 0 90 56 60
        E 0 90 60 60
        E 0 90 62 60
        E 57 80 1f 00
        E 1 80 18 00
        E 0 80 54 00
        E 0 80 56 00
        E 0 80 60 00
        E 0 80 62 00
        <X 182 0
          /wFbbWVsbG93XQ==
        >
        E 0 80 74 00
        E 0 90 18 60
        E 0 90 1f 60
        E 0 90 3e 60
        E 0 90 48 60
        E 0 90 4a 60
        E 0 90 54 60
        E 0 90 56 60
        E 0 90 60 60
        E 0 90 62 60
        E 57 80 1f 00
        E 1 80 18 00
        E 0 80 3e 00
        E 0 80 48 00
        E 0 80 4a 00
        E 0 80 54 00
        E 0 80 56 00
        E 0 80 60 00
        E 0 80 62 00
        E 182 90 1f 60
        E 0 90 56 60
        E 0 90 62 60
        E 57 80 1f 00
        E 1 80 56 00
        E 0 80 62 00
        E 182 90 1f 60
        E 0 90 3e 60
        E 0 90 4a 60
        E 0 90 56 60
        E 0 90 62 60
        E 57 80 1f 00
        E 1 80 3e 00
        E 0 80 4a 00
        E 0 80 56 00
        E 0 80 62 00
        E 182 90 18 60
        E 0 90 1f 60
        E 0 90 54 60
        E 0 90 56 60
        E 0 90 60 60
        E 0 90 62 60
        E 57 80 1f 00
        E 1 80 18 00
        E 0 80 54 00
        E 0 80 56 00
        E 0 80 60 00
        E 0 80 62 00
        E 182 90 1a 60
        E 0 90 1f 60
        E 0 90 3d 60
        E 0 90 3e 60
        E 0 90 49 60
        E 0 90 4a 60
        E 0 90 55 60
        E 0 90 56 60
        E 0 90 61 60
        E 0 90 62 60
        E 57 80 1a 00
        E 0 80 1f 00
        E 1 80 3d 00
        E 0 80 3e 00
        E 0 80 49 00
        E 0 80 4a 00
        E 0 80 55 00
        E 0 80 56 00
        E 0 80 61 00
        E 0 80 62 00
        E 182 90 1f 60
        E 0 90 56 60
        E 0 90 62 60
        E 57 80 1f 00
        E 1 80 56 00
        E 0 80 62 00
        E 182 90 18 60
        E 0 90 1f 60
        E 0 90 3e 60
        E 0 90 48 60
        E 0 90 4a 60
        E 0 90 54 60
        E 0 90 56 60
        E 0 90 60 60
        E 0 90 62 60
        E 57 80 1f 00
        E 1 80 18 00
        E 0 80 3e 00
        E 0 80 48 00
        E 0 80 4a 00
        E 0 80 54 00
        E 0 80 56 00
        E 0 80 60 00
        E 0 80 62 00
        E 182 90 1f 60
        E 0 90 56 60
        E 0 90 62 60
        E 57 80 1f 00
        E 1 80 56 00
        E 0 80 62 00
        E 182 90 1f 60
        E 0 90 3e 60
        E 0 90 4a 60
        E 0 90 56 60
        E 0 90 62 60
        E 57 80 1f 00
        E 1 80 3e 00
        E 0 80 4a 00
        E 0 80 56 00
        E 0 80 62 00
        E 182 90 1f 60
        E 0 90 56 60
        E 0 90 62 60
        E 57 80 1f 00
        E 1 80 56 00
        E 0 80 62 00
        E 182 90 18 60
        E 0 90 1f 60
        E 0 90 3e 60
        E 0 90 48 60
        E 0 90 4a 60
        E 0 90 54 60
        E 0 90 56 60
        E 0 90 60 60
        E 0 90 62 60
        E 57 80 1f 00
        E 1 80 18 00
        E 0 80 3e 00
        E 0 80 48 00
        E 0 80 4a 00
        E 0 80 54 00
        E 0 80 56 00
        E 0 80 60 00
        E 0 80 62 00
        E 182 90 1f 60
        E 0 90 56 60
        E 0 90 62 60
        E 57 80 1f 00
        E 1 80 56 00
        E 0 80 62 00
        E 182 90 1a 60
        E 0 90 1f 60
        E 0 90 3d 60
        E 0 90 3e 60
        E 0 90 49 60
        E 0 90 4a 60
        E 0 90 55 60
        E 0 90 56 60
        E 0 90 61 60
        E 0 90 62 60
        E 57 80 1a 00
        E 0 80 1f 00
        E 1 80 3d 00
        E 0 80 3e 00
        E 0 80 49 00
        E 0 80 4a 00
        E 0 80 55 00
        E 0 80 56 00
        E 0 80 61 00
        E 0 80 62 00
        E 182 90 1f 60
        E 0 90 56 60
        E 0 90 62 60
        E 57 80 1f 00
        E 1 80 56 00
        E 0 80 62 00
        E 182 90 18 60
        E 0 90 1f 60
        E 0 90 3e 60
        E 0 90 48 60
        E 0 90 4a 60
        E 0 90 54 60
        E 0 90 56 60
        E 0 90 60 60
        E 0 90 62 60
        E 57 80 1f 00
        E 1 80 18 00
        E 0 80 3e 00
        E 0 80 48 00
        E 0 80 4a 00
        E 0 80 54 00
        E 0 80 56 00
        E 0 80 60 00
        E 0 80 62 00
        E 182 90 1f 60
        E 0 90 56 60
        E 0 90 62 60
        E 57 80 1f 00
        E 1 80 56 00
        E 0 80 62 00
        E 182 90 18 60
        E 0 90 1f 60
        E 0 90 3e 60
        E 0 90 48 60
        E 0 90 4a 60
        E 0 90 54 60
        E 0 90 56 60
        E 0 90 60 60
        E 0 90 62 60
        E 57 80 1f 00
        E 1 80 18 00
        E 0 80 3e 00
        E 0 80 48 00
        E 0 80 4a 00
        E 0 80 54 00
        E 0 80 56 00
        E 0 80 60 00
        E 0 80 62 00
        E 182 90 1f 60
        E 0 90 56 60
        E 0 90 62 60
        E 57 80 1f 00
        E 1 80 56 00
        E 0 80 62 00
        E 182 90 1f 60
        E 0 90 3e 60
        E 0 90 4a 60
        E 0 90 56 60
        E 0 90 62 60
        E 57 80 1f 00
        E 1 80 3e 00
        E 0 80 4a 00
        E 0 80 56 00
        E 0 80 62 00
        E 182 90 18 60
        E 0 90 1f 60
        E 0 90 54 60
        E 0 90 56 60
        E 0 90 60 60
        E 0 90 62 60
        E 57 80 1f 00
        E 1 80 18 00
        E 0 80 54 00
        E 0 80 56 00
        E 0 80 60 00
        E 0 80 62 00
        E 182 90 1a 60
        E 0 90 1f 60
        E 0 90 3d 60
        E 0 90 3e 60
        E 0 90 49 60
        E 0 90 4a 60
        E 0 90 55 60
        E 0 90 56 60
        E 0 90 61 60
        E 0 90 62 60
        E 57 80 1a 00
        E 0 80 1f 00
        E 1 80 3d 00
        E 0 80 3e 00
        E 0 80 49 00
        E 0 80 4a 00
        E 0 80 55 00
        E 0 80 56 00
        E 0 80 61 00
        E 0 80 62 00
        E 182 90 1f 60
        E 0 90 56 60
        E 0 90 62 60
        E 57 80 1f 00
        E 1 80 56 00
        E 0 80 62 00
        E 182 90 1f 60
        E 0 90 3e 60
        E 0 90 4a 60
        E 0 90 56 60
        E 0 90 62 60
        E 57 80 1f 00
        E 1 80 3e 00
        E 0 80 4a 00
        E 0 80 56 00
        E 0 80 62 00
        E 182 90 18 60
        E 0 90 1f 60
        E 0 90 54 60
        E 0 90 56 60
        E 0 90 60 60
        E 0 90 62 60
        E 57 80 1f 00
        E 1 80 18 00
        E 0 80 54 00
        E 0 80 56 00
        E 0 80 60 00
        E 0 80 62 00
        E 182 90 1f 60
        E 0 90 3e 60
        E 0 90 4a 60
        E 0 90 56 60
        E 0 90 62 60
        E 0 90 78 60
        E 0 90 79 60
        E 0 90 7a 60
        E 0 90 7b 60
        E 0 90 7c 60
        E 57 80 1f 00
        E 1 80 3e 00
        E 0 80 4a 00
        E 0 80 56 00
        E 0 80 62 00
        E 182 90 1f 60
        E 0 90 56 60
        E 0 90 62 60
        E 57 80 1f 00
        E 1 80 56 00
        E 0 80 62 00
        E 182 90 18 60
        E 0 90 1f 60
        E 0 90 3e 60
        E 0 90 48 60
        E 0 90 4a 60
        E 0 90 54 60
        E 0 90 56 60
        E 0 90 60 60
        E 0 90 62 60
        E 57 80 1f 00
        E 1 80 18 00
        E 0 80 3e 00
        E 0 80 48 00
        E 0 80 4a 00
        E 0 80 54 00
        E 0 80 56 00
        E 0 80 60 00
        E 0 80 62 00
        E 182 90 1f 60
        E 0 90 56 60
        E 0 90 62 60
        E 57 80 1f 00
        E 1 80 56 00
        E 0 80 62 00
        E 182 90 1a 60
        E 0 90 1f 60
        E 0 90 3d 60
        E 0 90 3e 60
        E 0 90 49 60
        E 0 90 4a 60
        E 0 90 55 60
        E 0 90 56 60
        E 0 90 61 60
        E 0 90 62 60
        E 57 80 1f 00
        E 1 80 1a 00
        E 0 80 3d 00
        E 0 80 3e 00
        E 0 80 49 00
        E 0 80 4a 00
        E 0 80 55 00
        E 0 80 56 00
        E 0 80 61 00
        E 0 80 62 00
        E 182 90 18 60
        E 0 90 19 60
        E 0 90 1f 60
        E 0 90 54 60
        E 0 90 57 60
        E 0 90 60 60
        E 0 90 63 60
        E 58 80 18 00
        E 0 80 1f 00
        E 0 80 54 00
        E 0 80 57 00
        E 0 80 60 00
        E 0 80 63 00
        E 182 80 19 00
        E 0 90 1f 60
        E 0 90 3e 60
        E 0 90 4a 60
        E 0 90 56 60
        E 0 90 62 60
        E 57 80 1f 00
        E 1 80 3e 00
        E 0 80 4a 00
        E 0 80 56 00
        E 0 80 62 00
        E 182 90 18 60
        E 0 90 1f 60
        E 0 90 54 60
        E 0 90 56 60
        E 0 90 60 60
        E 0 90 62 60
        E 57 80 1f 00
        E 1 80 18 00
        E 0 80 54 00
        E 0 80 56 00
        E 0 80 60 00
        E 0 80 62 00
        E 182 80 78 00
        E 0 80 79 00
        E 0 80 7a 00
        E 0 80 7b 00
        E 0 80 7c 00
        E 0 90 18 60
        E 0 90 1f 60
        E 0 90 3e 60
        E 0 90 48 60
        E 0 90 4a 60
        E 0 90 54 60
        E 0 90 56 60
        E 0 90 60 60
        E 0 90 62 60
        E 57 80 1f 00
        E 1 80 18 00
        E 0 80 3e 00
        E 0 80 48 00
        E 0 80 4a 00
        E 0 80 54 00
        E 0 80 56 00
        E 0 80 60 00
        E 0 80 62 00
        E 182 90 1f 60
        E 0 90 56 60
        E 0 90 62 60
        E 57 80 1f 00
        E 1 80 56 00
        E 0 80 62 00
        E 182 90 1f 60
        E 0 90 3e 60
        E 0 90 4a 60
        E 0 90 56 60
        E 0 90 62 60
        E 57 80 1f 00
        E 1 80 3e 00
        E 0 80 4a 00
        E 0 80 56 00
        E 0 80 62 00
        E 182 90 18 60
        E 0 90 1f 60
        E 0 90 54 60
        E 0 90 56 60
        E 0 90 60 60
        E 0 90 62 60
        E 57 80 1f 00
        E 1 80 18 00
        E 0 80 54 00
        E 0 80 56 00
        E 0 80 60 00
        E 0 80 62 00
        E 182 90 1a 60
        E 0 90 1f 60
        E 0 90 3d 60
        E 0 90 3e 60
        E 0 90 49 60
        E 0 90 4a 60
        E 0 90 55 60
        E 0 90 56 60
        E 0 90 61 60
        E 0 90 62 60
        E 57 80 1a 00
        E 0 80 1f 00
        E 1 80 3d 00
        E 0 80 3e 00
        E 0 80 49 00
        E 0 80 4a 00
        E 0 80 55 00
        E 0 80 56 00
        E 0 80 61 00
        E 0 80 62 00
        E 182 90 1f 60
        E 0 90 56 60
        E 0 90 62 60
        E 57 80 1f 00
        E 1 80 56 00
        E 0 80 62 00
        E 182 90 18 60
        E 0 90 1f 60
        E 0 90 3e 60
        E 0 90 48 60
        E 0 90 4a 60
        E 0 90 54 60
        E 0 90 56 60
        E 0 90 60 60
        E 0 90 62 60
        E 57 80 1f 00
        E 1 80 18 00
        E 0 80 3e 00
        E 0 80 48 00
        E 0 80 4a 00
        E 0 80 54 00
        E 0 80 56 00
        E 0 80 60 00
        E 0 80 62 00
        E 182 90 1f 60
        E 0 90 56 60
        E 0 90 62 60
        E 57 80 1f 00
        E 1 80 56 00
        E 0 80 62 00
        E 182 90 1f 60
        E 0 90 3e 60
        E 0 90 4a 60
        E 0 90 56 60
        E 0 90 62 60
        E 57 80 1f 00
        E 1 80 3e 00
        E 0 80 4a 00
        E 0 80 56 00
        E 0 80 62 00
        E 182 90 1f 60
        E 0 90 56 60
        E 0 90 62 60
        E 57 80 1f 00
        E 1 80 56 00
        E 0 80 62 00
        E 182 90 18 60
        E 0 90 1f 60
        E 0 90 3e 60
        E 0 90 48 60
        E 0 90 4a 60
        E 0 90 54 60
        E 0 90 56 60
        E 0 90 60 60
        E 0 90 62 60
        E 57 80 1f 00
        E 1 80 18 00
        E 0 80 3e 00
        E 0 80 48 00
        E 0 80 4a 00
        E 0 80 54 00
        E 0 80 56 00
        E 0 80 60 00
        E 0 80 62 00
        E 182 90 1f 60
        E 0 90 56 60
        E 0 90 62 60
        E 57 80 1f 00
        E 1 80 56 00
        E 0 80 62 00
        E 182 90 1a 60
        E 0 90 1f 60
        E 0 90 3d 60
        E 0 90 3e 60
        E 0 90 49 60
        E 0 90 4a 60
        E 0 90 55 60
        E 0 90 56 60
        E 0 90 61 60
        E 0 90 62 60
        E 57 80 1a 00
        E 0 80 1f 00
        E 1 80 3d 00
        E 0 80 3e 00
        E 0 80 49 00
        E 0 80 4a 00
        E 0 80 55 00
        E 0 80 56 00
        E 0 80 61 00
        E 0 80 62 00
        E 182 90 1f 60
        E 0 90 56 60
        E 0 90 62 60
        E 57 80 1f 00
        E 1 80 56 00
        E 0 80 62 00
        E 182 90 18 60
        E 0 90 1f 60
        E 0 90 3e 60
        E 0 90 48 60
        E 0 90 4a 60
        E 0 90 54 60
        E 0 90 56 60
        E 0 90 60 60
        E 0 90 62 60
        E 57 80 1f 00
        E 1 80 18 00
        E 0 80 3e 00
        E 0 80 48 00
        E 0 80 4a 00
        E 0 80 54 00
        E 0 80 56 00
        E 0 80 60 00
        E 0 80 62 00
        E 182 90 1f 60
        E 0 90 56 60
        E 0 90 62 60
        E 57 80 1f 00
        E 1 80 56 00
        E 0 80 62 00
        E 182 90 18 60
        E 0 90 1f 60
        E 0 90 3e 60
        E 0 90 48 60
        E 0 90 4a 60
        E 0 90 54 60
        E 0 90 56 60
        E 0 90 60 60
        E 0 90 62 60
        E 57 80 1f 00
        E 1 80 18 00
        E 0 80 3e 00
        E 0 80 48 00
        E 0 80 4a 00
        E 0 80 54 00
        E 0 80 56 00
        E 0 80 60 00
        E 0 80 62 00
        E 182 90 1f 60
        E 0 90 56 60
        E 0 90 62 60
        E 57 80 1f 00
        E 1 80 56 00
        E 0 80 62 00
        E 182 90 1f 60
        E 0 90 3e 60
        E 0 90 4a 60
        E 0 90 56 60
        E 0 90 62 60
        E 57 80 1f 00
        E 1 80 3e 00
        E 0 80 4a 00
        E 0 80 56 00
        E 0 80 62 00
        E 182 90 18 60
        E 0 90 1f 60
        E 0 90 54 60
        E 0 90 56 60
        E 0 90 60 60
        E 0 90 62 60
        E 57 80 1f 00
        E 1 80 18 00
        E 0 80 54 00
        E 0 80 56 00
        E 0 80 60 00
        E 0 80 62 00
        E 182 90 1a 60
        E 0 90 1f 60
        E 0 90 3d 60
        E 0 90 3e 60
        E 0 90 49 60
        E 0 90 4a 60
        E 0 90 55 60
        E 0 90 56 60
        E 0 90 61 60
        E 0 90 62 60
        E 57 80 1f 00
        E 1 80 1a 00
        E 0 80 3d 00
        E 0 80 3e 00
        E 0 80 49 00
        E 0 80 4a 00
        E 0 80 55 00
        E 0 80 56 00
        E 0 80 61 00
        E 0 80 62 00
        E 182 90 19 60
        E 0 90 1f 60
        E 0 90 57 60
        E 0 90 63 60
        E 58 80 1f 00
        E 0 80 57 00
        E 0 80 63 00
        E 182 80 19 00
        E 0 90 1f 60
        E 0 90 3e 60
        E 0 90 4a 60
        E 0 90 56 60
        E 0 90 62 60
        E 57 80 1f 00
        E 1 80 3e 00
        E 0 80 4a 00
        E 0 80 56 00
        E 0 80 62 00
        E 182 90 18 60
        E 0 90 1f 60
        E 0 90 54 60
        E 0 90 56 60
        E 0 90 60 60
        E 0 90 62 60
        E 57 80 1f 00
        E 1 80 18 00
        E 0 80 54 00
        E 0 80 56 00
        E 0 80 60 00
        E 0 80 62 00
        E 182 90 1f 60
        E 0 90 3e 60
        E 0 90 4a 60
        E 0 90 56 60
        E 0 90 62 60
        E 0 90 78 60
        E 0 90 79 60
        E 0 90 7a 60
        E 0 90 7b 60
        E 0 90 7c 60
        E 57 80 1f 00
        E 1 80 3e 00
        E 0 80 4a 00
        E 0 80 56 00
        E 0 80 62 00
        E 182 90 1f 60
        E 0 90 56 60
        E 0 90 62 60
        E 57 80 1f 00
        E 1 80 56 00
        E 0 80 62 00
        E 182 90 18 60
        E 0 90 1f 60
        E 0 90 3e 60
        E 0 90 48 60
        E 0 90 4a 60
        E 0 90 54 60
        E 0 90 56 60
        E 0 90 60 60
        E 0 90 62 60
        E 57 80 1f 00
        E 1 80 18 00
        E 0 80 3e 00
        E 0 80 48 00
        E 0 80 4a 00
        E 0 80 54 00
        E 0 80 56 00
        E 0 80 60 00
        E 0 80 62 00
        E 182 90 1f 60
        E 0 90 56 60
        E 0 90 62 60
        E 57 80 1f 00
        E 1 80 56 00
        E 0 80 62 00
        E 182 90 1a 60
        E 0 90 1f 60
        E 0 90 3d 60
        E 0 90 3e 60
        E 0 90 49 60
        E 0 90 4a 60
        E 0 90 55 60
        E 0 90 56 60
        E 0 90 61 60
        E 0 90 62 60
        E 57 80 1a 00
        E 0 80 1f 00
        E 1 80 3d 00
        E 0 80 3e 00
        E 0 80 49 00
        E 0 80 4a 00
        E 0 80 55 00
        E 0 80 56 00
        E 0 80 61 00
        E 0 80 62 00
        E 182 90 18 60
        E 0 90 1f 60
        E 0 90 54 60
        E 0 90 56 60
        E 0 90 60 60
        E 0 90 62 60
        E 57 80 1f 00
        E 1 80 18 00
        E 0 80 54 00
        E 0 80 56 00
        E 0 80 60 00
        E 0 80 62 00
        E 182 90 1f 60
        E 0 90 3e 60
        E 0 90 4a 60
        E 0 90 56 60
        E 0 90 62 60
        E 57 80 1f 00
        E 1 80 3e 00
        E 0 80 4a 00
        E 0 80 56 00
        E 0 80 62 00
        E 182 90 18 60
        E 0 90 1f 60
        E 0 90 54 60
        E 0 90 56 60
        E 0 90 60 60
        E 0 90 62 60
        E 57 80 1f 00
        E 1 80 18 00
        E 0 80 54 00
        E 0 80 56 00
        E 0 80 60 00
        E 0 80 62 00
        E 182 80 78 00
        E 0 80 79 00
        E 0 80 7a 00
        E 0 80 7b 00
        E 0 80 7c 00
        E 0 90 18 60
        E 0 90 1f 60
        E 0 90 3e 60
        E 0 90 48 60
        E 0 90 4a 60
        E 0 90 54 60
        E 0 90 56 60
        E 0 90 60 60
        E 0 90 62 60
        E 57 80 1f 00
        E 1 80 18 00
        E 0 80 3e 00
        E 0 80 48 00
        E 0 80 4a 00
        E 0 80 54 00
        E 0 80 56 00
        E 0 80 60 00
        E 0 80 62 00
        E 182 90 1f 60
        E 0 90 56 60
        E 0 90 62 60
        E 57 80 1f 00
        E 1 80 56 00
        E 0 80 62 00
        E 182 90 1f 60
        E 0 90 3e 60
        E 0 90 4a 60
        E 0 90 56 60
        E 0 90 62 60
        E 57 80 1f 00
        E 1 80 3e 00
        E 0 80 4a 00
        E 0 80 56 00
        E 0 80 62 00
        E 182 90 18 60
        E 0 90 1f 60
        E 0 90 54 60
        E 0 90 56 60
        E 0 90 60 60
        E 0 90 62 60
        E 57 80 1f 00
        E 1 80 18 00
        E 0 80 54 00
        E 0 80 56 00
        E 0 80 60 00
        E 0 80 62 00
        E 182 90 1a 60
        E 0 90 1f 60
        E 0 90 3d 60
        E 0 90 3e 60
        E 0 90 49 60
        E 0 90 4a 60
        E 0 90 55 60
        E 0 90 56 60
        E 0 90 61 60
        E 0 90 62 60
        E 57 80 1a 00
        E 0 80 1f 00
        E 1 80 3d 00
        E 0 80 3e 00
        E 0 80 49 00
        E 0 80 4a 00
        E 0 80 55 00
        E 0 80 56 00
        E 0 80 61 00
        E 0 80 62 00
        E 182 90 1f 60
        E 0 90 56 60
        E 0 90 62 60
        E 57 80 1f 00
        E 1 80 56 00
        E 0 80 62 00
        E 182 90 18 60
        E 0 90 1f 60
        E 0 90 3e 60
        E 0 90 48 60
        E 0 90 4a 60
        E 0 90 54 60
        E 0 90 56 60
        E 0 90 60 60
        E 0 90 62 60
        E 57 80 1f 00
        E 1 80 18 00
        E 0 80 3e 00
        E 0 80 48 00
        E 0 80 4a 00
        E 0 80 54 00
        E 0 80 56 00
        E 0 80 60 00
        E 0 80 62 00
        E 182 90 1f 60
        E 0 90 56 60
        E 0 90 62 60
        E 57 80 1f 00
        E 1 80 56 00
        E 0 80 62 00
        E 182 90 1f 60
        E 0 90 3e 60
        E 0 90 4a 60
        E 0 90 56 60
        E 0 90 62 60
        E 57 80 1f 00
        E 1 80 3e 00
        E 0 80 4a 00
        E 0 80 56 00
        E 0 80 62 00
        E 182 90 1f 60
        E 0 90 56 60
        E 0 90 62 60
        E 57 80 1f 00
        E 1 80 56 00
        E 0 80 62 00
        E 182 90 18 60
        E 0 90 1f 60
        E 0 90 3e 60
        E 0 90 48 60
        E 0 90 4a 60
        E 0 90 54 60
        E 0 90 56 60
        E 0 90 60 60
        E 0 90 62 60
        E 57 80 1f 00
        E 1 80 18 00
        E 0 80 3e 00
        E 0 80 48 00
        E 0 80 4a 00
        E 0 80 54 00
        E 0 80 56 00
        E 0 80 60 00
        E 0 80 62 00
        E 182 90 1f 60
        E 0 90 56 60
        E 0 90 62 60
        E 57 80 1f 00
        E 1 80 56 00
        E 0 80 62 00
        E 182 90 1a 60
        E 0 90 1f 60
        E 0 90 3d 60
        E 0 90 3e 60
        E 0 90 49 60
        E 0 90 4a 60
        E 0 90 55 60
        E 0 90 56 60
        E 0 90 61 60
        E 0 90 62 60
        E 57 80 1a 00
        E 0 80 1f 00
        E 1 80 3d 00
        E 0 80 3e 00
        E 0 80 49 00
        E 0 80 4a 00
        E 0 80 55 00
        E 0 80 56 00
        E 0 80 61 00
        E 0 80 62 00
        E 182 90 1f 60
        E 0 90 56 60
        E 0 90 62 60
        E 57 80 1f 00
        E 1 80 56 00
        E 0 80 62 00
        E 182 90 18 60
        E 0 90 1f 60
        E 0 90 3e 60
        E 0 90 48 60
        E 0 90 4a 60
        E 0 90 54 60
        E 0 90 56 60
        E 0 90 60 60
        E 0 90 62 60
        E 57 80 1f 00
        E 1 80 18 00
        E 0 80 3e 00
        E 0 80 48 00
        E 0 80 4a 00
        E 0 80 54 00
        E 0 80 56 00
        E 0 80 60 00
        E 0 80 62 00
        E 182 90 1f 60
        E 0 90 56 60
        E 0 90 62 60
        E 57 80 1f 00
        E 1 80 56 00
        E 0 80 62 00
        E 182 90 18 60
        E 0 90 1f 60
        E 0 90 3e 60
        E 0 90 48 60
        E 0 90 4a 60
        E 0 90 54 60
        E 0 90 56 60
        E 0 90 60 60
        E 0 90 62 60
        E 57 80 1f 00
        E 1 80 18 00
        E 0 80 3e 00
        E 0 80 48 00
        E 0 80 4a 00
        E 0 80 54 00
        E 0 80 56 00
        E 0 80 60 00
        E 0 80 62 00
        E 182 90 1f 60
        E 0 90 56 60
        E 0 90 62 60
        E 57 80 1f 00
        E 1 80 56 00
        E 0 80 62 00
        E 182 90 1f 60
        E 0 90 3e 60
        E 0 90 4a 60
        E 0 90 56 60
        E 0 90 62 60
        E 57 80 1f 00
        E 1 80 3e 00
        E 0 80 4a 00
        E 0 80 56 00
        E 0 80 62 00
        E 182 90 18 60
        E 0 90 1f 60
        E 0 90 54 60
        E 0 90 56 60
        E 0 90 60 60
        E 0 90 62 60
        E 57 80 1f 00
        E 1 80 18 00
        E 0 80 54 00
        E 0 80 56 00
        E 0 80 60 00
        E 0 80 62 00
        E 182 90 1a 60
        E 0 90 1f 60
        E 0 90 3d 60
        E 0 90 3e 60
        E 0 90 49 60
        E 0 90 4a 60
        E 0 90 55 60
        E 0 90 56 60
        E 0 90 61 60
        E 0 90 62 60
        E 57 80 1a 00
        E 0 80 1f 00
        E 1 80 3d 00
        E 0 80 3e 00
        E 0 80 49 00
        E 0 80 4a 00
        E 0 80 55 00
        E 0 80 56 00
        E 0 80 61 00
        E 0 80 62 00
        E 182 90 1f 60
        E 0 90 56 60
        E 0 90 62 60
        E 57 80 1f 00
        E 1 80 56 00
        E 0 80 62 00
        E 182 90 1f 60
        E 0 90 3e 60
        E 0 90 4a 60
        E 0 90 56 60
        E 0 90 62 60
        E 57 80 1f 00
        E 1 80 3e 00
        E 0 80 4a 00
        E 0 80 56 00
        E 0 80 62 00
        E 182 90 18 60
        E 0 90 1f 60
        E 0 90 54 60
        E 0 90 56 60
        E 0 90 60 60
        E 0 90 62 60
        E 57 80 1f 00
        E 1 80 18 00
        E 0 80 54 00
        E 0 80 56 00
        E 0 80 60 00
        E 0 80 62 00
        E 182 90 1f 60
        E 0 90 3e 60
        E 0 90 4a 60
        E 0 90 56 60
        E 0 90 62 60
        E 0 90 78 60
        E 0 90 79 60
        E 0 90 7a 60
        E 0 90 7b 60
        E 0 90 7c 60
        E 57 80 1f 00
        E 1 80 3e 00
        E 0 80 4a 00
        E 0 80 56 00
        E 0 80 62 00
        E 182 90 1f 60
        E 0 90 56 60
        E 0 90 62 60
        E 57 80 1f 00
        E 1 80 56 00
        E 0 80 62 00
        E 182 90 18 60
        E 0 90 1f 60
        E 0 90 3e 60
        E 0 90 48 60
        E 0 90 4a 60
        E 0 90 54 60
        E 0 90 56 60
        E 0 90 60 60
        E 0 90 62 60
        E 57 80 1f 00
        E 1 80 18 00
        E 0 80 3e 00
        E 0 80 48 00
        E 0 80 4a 00
        E 0 80 54 00
        E 0 80 56 00
        E 0 80 60 00
        E 0 80 62 00
        E 182 90 1f 60
        E 0 90 56 60
        E 0 90 62 60
        E 57 80 1f 00
        E 1 80 56 00
        E 0 80 62 00
        E 182 90 1a 60
        E 0 90 1f 60
        E 0 90 3d 60
        E 0 90 3e 60
        E 0 90 49 60
        E 0 90 4a 60
        E 0 90 55 60
        E 0 90 56 60
        E 0 90 61 60
        E 0 90 62 60
        E 57 80 1a 00
        E 0 80 1f 00
        E 1 80 3d 00
        E 0 80 3e 00
        E 0 80 49 00
        E 0 80 4a 00
        E 0 80 55 00
        E 0 80 56 00
        E 0 80 61 00
        E 0 80 62 00
        E 182 90 18 60
        E 0 90 19 60
        E 0 90 1f 60
        E 0 90 54 60
        E 0 90 57 60
        E 0 90 60 60
        E 0 90 63 60
        E 58 80 18 00
        E 0 80 1f 00
        E 0 80 54 00
        E 0 80 57 00
        E 0 80 60 00
        E 0 80 63 00
        E 182 80 19 00
        E 0 90 1f 60
        E 0 90 3e 60
        E 0 90 4a 60
        E 0 90 56 60
        E 0 90 62 60
        E 57 80 1f 00
        E 1 80 3e 00
        E 0 80 4a 00
        E 0 80 56 00
        E 0 80 62 00
        E 182 90 18 60
        E 0 90 1f 60
        E 0 90 54 60
        E 0 90 56 60
        E 0 90 60 60
        E 0 90 62 60
        E 57 80 1f 00
        E 1 80 18 00
        E 0 80 54 00
        E 0 80 56 00
        E 0 80 60 00
        E 0 80 62 00
        E 182 80 78 00
        E 0 80 79 00
        E 0 80 7a 00
        E 0 80 7b 00
        E 0 80 7c 00
        E 0 90 18 60
        E 0 90 1f 60
        E 0 90 3e 60
        E 0 90 48 60
        E 0 90 4a 60
        E 0 90 54 60
        E 0 90 56 60
        E 0 90 60 60
        E 0 90 62 60
        E 57 80 1f 00
        E 1 80 18 00
        E 0 80 3e 00
        E 0 80 48 00
        E 0 80 4a 00
        E 0 80 54 00
        E 0 80 56 00
        E 0 80 60 00
        E 0 80 62 00
        E 182 90 1f 60
        E 0 90 56 60
        E 0 90 62 60
        E 57 80 1f 00
        E 1 80 56 00
        E 0 80 62 00
        E 182 90 1f 60
        E 0 90 3e 60
        E 0 90 4a 60
        E 0 90 56 60
        E 0 90 62 60
        E 57 80 1f 00
        E 1 80 3e 00
        E 0 80 4a 00
        E 0 80 56 00
        E 0 80 62 00
        E 182 90 18 60
        E 0 90 1f 60
        E 0 90 54 60
        E 0 90 56 60
        E 0 90 60 60
        E 0 90 62 60
        E 57 80 1f 00
        E 1 80 18 00
        E 0 80 54 00
        E 0 80 56 00
        E 0 80 60 00
        E 0 80 62 00
        E 182 90 1a 60
        E 0 90 1f 60
        E 0 90 3d 60
        E 0 90 3e 60
        E 0 90 49 60
        E 0 90 4a 60
        E 0 90 55 60
        E 0 90 56 60
        E 0 90 61 60
        E 0 90 62 60
        E 57 80 1a 00
        E 0 80 1f 00
        E 1 80 3d 00
        E 0 80 3e 00
        E 0 80 49 00
        E 0 80 4a 00
        E 0 80 55 00
        E 0 80 56 00
        E 0 80 61 00
        E 0 80 62 00
        E 182 90 1f 60
        E 0 90 56 60
        E 0 90 62 60
        E 57 80 1f 00
        E 1 80 56 00
        E 0 80 62 00
        E 182 90 18 60
        E 0 90 1f 60
        E 0 90 3e 60
        E 0 90 48 60
        E 0 90 4a 60
        E 0 90 54 60
        E 0 90 56 60
        E 0 90 60 60
        E 0 90 62 60
        E 57 80 1f 00
        E 1 80 18 00
        E 0 80 3e 00
        E 0 80 48 00
        E 0 80 4a 00
        E 0 80 54 00
        E 0 80 56 00
        E 0 80 60 00
        E 0 80 62 00
        E 182 90 1f 60
        E 0 90 56 60
        E 0 90 62 60
        E 57 80 1f 00
        E 1 80 56 00
        E 0 80 62 00
        E 182 90 1f 60
        E 0 90 3e 60
        E 0 90 4a 60
        E 0 90 56 60
        E 0 90 62 60
        E 57 80 1f 00
        E 1 80 3e 00
        E 0 80 4a 00
        E 0 80 56 00
        E 0 80 62 00
        E 182 90 1f 60
        E 0 90 56 60
        E 0 90 62 60
        E 57 80 1f 00
        E 1 80 56 00
        E 0 80 62 00
        E 182 90 18 60
        E 0 90 1f 60
        E 0 90 3e 60
        E 0 90 48 60
        E 0 90 4a 60
        E 0 90 54 60
        E 0 90 56 60
        E 0 90 60 60
        E 0 90 62 60
        E 57 80 1f 00
        E 1 80 18 00
        E 0 80 3e 00
        E 0 80 48 00
        E 0 80 4a 00
        E 0 80 54 00
        E 0 80 56 00
        E 0 80 60 00
        E 0 80 62 00
        E 182 90 1f 60
        E 0 90 56 60
        E 0 90 62 60
        E 57 80 1f 00
        E 1 80 56 00
        E 0 80 62 00
        E 182 90 1a 60
        E 0 90 1f 60
        E 0 90 3d 60
        E 0 90 3e 60
        E 0 90 49 60
        E 0 90 4a 60
        E 0 90 55 60
        E 0 90 56 60
        E 0 90 61 60
        E 0 90 62 60
        E 57 80 1a 00
        E 0 80 1f 00
        E 1 80 3d 00
        E 0 80 3e 00
        E 0 80 49 00
        E 0 80 4a 00
        E 0 80 55 00
        E 0 80 56 00
        E 0 80 61 00
        E 0 80 62 00
        E 182 90 1f 60
        E 0 90 56 60
        E 0 90 62 60
        E 57 80 1f 00
        E 1 80 56 00
        E 0 80 62 00
        E 182 90 18 60
        E 0 90 1f 60
        E 0 90 3e 60
        E 0 90 48 60
        E 0 90 4a 60
        E 0 90 54 60
        E 0 90 56 60
        E 0 90 60 60
        E 0 90 62 60
        E 57 80 1f 00
        E 1 80 18 00
        E 0 80 3e 00
        E 0 80 48 00
        E 0 80 4a 00
        E 0 80 54 00
        E 0 80 56 00
        E 0 80 60 00
        E 0 80 62 00
        E 182 90 1f 60
        E 0 90 56 60
        E 0 90 62 60
        E 57 80 1f 00
        E 1 80 56 00
        E 0 80 62 00
        E 182 90 18 60
        E 0 90 1f 60
        E 0 90 3e 60
        E 0 90 48 60
        E 0 90 4a 60
        E 0 90 54 60
        E 0 90 56 60
        E 0 90 60 60
        E 0 90 62 60
        E 57 80 1f 00
        E 1 80 18 00
        E 0 80 3e 00
        E 0 80 48 00
        E 0 80 4a 00
        E 0 80 54 00
        E 0 80 56 00
        E 0 80 60 00
        E 0 80 62 00
        E 182 90 1f 60
        E 0 90 56 60
        E 0 90 62 60
        E 57 80 1f 00
        E 1 80 56 00
        E 0 80 62 00
        E 182 90 1f 60
        E 0 90 3e 60
        E 0 90 4a 60
        E 0 90 56 60
        E 0 90 62 60
        E 57 80 1f 00
        E 1 80 3e 00
        E 0 80 4a 00
        E 0 80 56 00
        E 0 80 62 00
        E 182 90 18 60
        E 0 90 1f 60
        E 0 90 54 60
        E 0 90 56 60
        E 0 90 60 60
        E 0 90 62 60
        E 57 80 1f 00
        E 1 80 18 00
        E 0 80 54 00
        E 0 80 56 00
        E 0 80 60 00
        E 0 80 62 00
        E 182 90 1a 60
        E 0 90 1f 60
        E 0 90 3d 60
        E 0 90 3e 60
        E 0 90 49 60
        E 0 90 4a 60
        E 0 90 55 60
        E 0 90 56 60
        E 0 90 61 60
        E 0 90 62 60
        E 57 80 1a 00
        E 0 80 1f 00
        E 1 80 3d 00
        E 0 80 3e 00
        E 0 80 49 00
        E 0 80 4a 00
        E 0 80 55 00
        E 0 80 56 00
        E 0 80 61 00
        E 0 80 62 00
        E 182 90 19 60
        E 0 90 1f 60
        E 0 90 57 60
        E 0 90 63 60
        E 58 80 1f 00
        E 0 80 57 00
        E 0 80 63 00
        E 182 80 19 00
        E 0 90 1f 60
        E 0 90 3e 60
        E 0 90 4a 60
        E 0 90 56 60
        E 0 90 62 60
        E 57 80 1f 00
        E 1 80 3e 00
        E 0 80 4a 00
        E 0 80 56 00
        E 0 80 62 00
        E 182 90 18 60
        E 0 90 1f 60
        E 0 90 54 60
        E 0 90 56 60
        E 0 90 60 60
        E 0 90 62 60
        E 57 80 1f 00
        E 1 80 18 00
        E 0 80 54 00
        E 0 80 56 00
        E 0 80 60 00
        E 0 80 62 00
        E 182 90 1f 60
        E 0 90 3e 60
        E 0 90 4a 60
        E 0 90 56 60
        E 0 90 62 60
        E 0 90 78 60
        E 0 90 79 60
        E 0 90 7a 60
        E 0 90 7b 60
        E 0 90 7c 60
        E 57 80 1f 00
        E 1 80 3e 00
        E 0 80 4a 00
        E 0 80 56 00
        E 0 80 62 00
        E 182 90 1f 60
        E 0 90 56 60
        E 0 90 62 60
        E 57 80 1f 00
        E 1 80 56 00
        E 0 80 62 00
        E 182 90 18 60
        E 0 90 1f 60
        E 0 90 3e 60
        E 0 90 48 60
        E 0 90 4a 60
        E 0 90 54 60
        E 0 90 56 60
        E 0 90 60 60
        E 0 90 62 60
        E 57 80 1f 00
        E 1 80 18 00
        E 0 80 3e 00
        E 0 80 48 00
        E 0 80 4a 00
        E 0 80 54 00
        E 0 80 56 00
        E 0 80 60 00
        E 0 80 62 00
        E 182 90 1f 60
        E 0 90 56 60
        E 0 90 62 60
        E 57 80 1f 00
        E 1 80 56 00
        E 0 80 62 00
        E 182 90 1a 60
        E 0 90 1f 60
        E 0 90 3d 60
        E 0 90 3e 60
        E 0 90 49 60
        E 0 90 4a 60
        E 0 90 55 60
        E 0 90 56 60
        E 0 90 61 60
        E 0 90 62 60
        E 57 80 1a 00
        E 0 80 1f 00
        E 1 80 3d 00
        E 0 80 3e 00
        E 0 80 49 00
        E 0 80 4a 00
        E 0 80 55 00
        E 0 80 56 00
        E 0 80 61 00
        E 0 80 62 00
        E 182 90 18 60
        E 0 90 1f 60
        E 0 90 54 60
        E 0 90 56 60
        E 0 90 60 60
        E 0 90 62 60
        E 57 80 1f 00
        E 1 80 18 00
        E 0 80 54 00
        E 0 80 56 00
        E 0 80 60 00
        E 0 80 62 00
        E 182 90 1f 60
        E 0 90 3e 60
        E 0 90 4a 60
        E 0 90 56 60
        E 0 90 62 60
        E 57 80 1f 00
        E 1 80 3e 00
        E 0 80 4a 00
        E 0 80 56 00
        E 0 80 62 00
        E 182 90 18 60
        E 0 90 1f 60
        E 0 90 54 60
        E 0 90 56 60
        E 0 90 60 60
        E 0 90 62 60
        E 57 80 1f 00
        E 1 80 18 00
        E 0 80 54 00
        E 0 80 56 00
        E 0 80 60 00
        E 0 80 62 00
        <X 182 0
          /wFbcGxheV0=
        >
        E 0 80 78 00
        E 0 80 79 00
        E 0 80 7a 00
        E 0 80 7b 00
        E 0 80 7c 00
        E 0 90 18 60
        E 0 90 1f 60
        E 0 90 3e 60
        E 0 90 48 60
        E 0 90 4a 60
        E 0 90 54 60
        E 0 90 56 60
        E 0 90 60 60
        E 0 90 62 60
        E 57 80 1f 00
        E 1 80 18 00
        E 0 80 3e 00
        E 0 80 48 00
        E 0 80 4a 00
        E 0 80 54 00
        E 0 80 56 00
        E 0 80 60 00
        E 0 80 62 00
        E 182 90 1f 60
        E 0 90 56 60
        E 0 90 62 60
        E 57 80 1f 00
        E 1 80 56 00
        E 0 80 62 00
        E 182 90 1a 60
        E 0 90 1f 60
        E 0 90 3d 60
        E 0 90 3e 60
        E 0 90 49 60
        E 0 90 4a 60
        E 0 90 55 60
        E 0 90 56 60
        E 0 90 61 60
        E 0 90 62 60
        E 57 80 1f 00
        E 1 80 1a 00
        E 0 80 3d 00
        E 0 80 3e 00
        E 0 80 49 00
        E 0 80 4a 00
        E 0 80 55 00
        E 0 80 56 00
        E 0 80 61 00
        E 0 80 62 00
        E 182 90 18 60
        E 0 90 1f 60
        E 0 90 54 60
        E 0 90 56 60
        E 0 90 60 60
        E 0 90 62 60
        E 57 80 1f 00
        E 1 80 18 00
        E 0 80 54 00
        E 0 80 56 00
        E 0 80 60 00
        E 0 80 62 00
        E 182 90 1f 60
        E 0 90 3e 60
        E 0 90 4a 60
        E 0 90 56 60
        E 0 90 62 60
        E 57 80 1f 00
        E 1 80 3e 00
        E 0 80 4a 00
        E 0 80 56 00
        E 0 80 62 00
        E 182 90 1f 60
        E 0 90 56 60
        E 0 90 62 60
        E 57 80 1f 00
        E 1 80 56 00
        E 0 80 62 00
        E 182 90 1a 60
        E 0 90 1f 60
        E 0 90 3d 60
        E 0 90 3e 60
        E 0 90 49 60
        E 0 90 4a 60
        E 0 90 55 60
        E 0 90 56 60
        E 0 90 61 60
        E 0 90 62 60
        E 57 80 1a 00
        E 0 80 1f 00
        E 1 80 3d 00
        E 0 80 3e 00
        E 0 80 49 00
        E 0 80 4a 00
        E 0 80 55 00
        E 0 80 56 00
        E 0 80 61 00
        E 0 80 62 00
        E 182 90 1f 60
        E 0 90 56 60
        E 0 90 62 60
        E 57 80 1f 00
        E 1 80 56 00
        E 0 80 62 00
        E 182 90 18 60
        E 0 90 1f 60
        E 0 90 3e 60
        E 0 90 48 60
        E 0 90 4a 60
        E 0 90 54 60
        E 0 90 56 60
        E 0 90 60 60
        E 0 90 62 60
        E 57 80 1f 00
        E 1 80 18 00
        E 0 80 3e 00
        E 0 80 48 00
        E 0 80 4a 00
        E 0 80 54 00
        E 0 80 56 00
        E 0 80 60 00
        E 0 80 62 00
        E 182 90 1f 60
        E 0 90 56 60
        E 0 90 62 60
        E 57 80 1f 00
        E 1 80 56 00
        E 0 80 62 00
        E 182 90 1a 60
        E 0 90 1f 60
        E 0 90 3d 60
        E 0 90 3e 60
        E 0 90 49 60
        E 0 90 4a 60
        E 0 90 55 60
        E 0 90 56 60
        E 0 90 61 60
        E 0 90 62 60
        E 57 80 1a 00
        E 0 80 1f 00
        E 1 80 3d 00
        E 0 80 3e 00
        E 0 80 49 00
        E 0 80 4a 00
        E 0 80 55 00
        E 0 80 56 00
        E 0 80 61 00
        E 0 80 62 00
        E 182 90 1f 60
        E 0 90 56 60
        E 0 90 62 60
        E 57 80 1f 00
        E 1 80 56 00
        E 0 80 62 00
        E 182 90 18 60
        E 0 90 1f 60
        E 0 90 3e 60
        E 0 90 48 60
        E 0 90 4a 60
        E 0 90 54 60
        E 0 90 56 60
        E 0 90 60 60
        E 0 90 62 60
        E 57 80 1f 00
        E 1 80 18 00
        E 0 80 3e 00
        E 0 80 48 00
        E 0 80 4a 00
        E 0 80 54 00
        E 0 80 56 00
        E 0 80 60 00
        E 0 80 62 00
        E 182 90 18 60
        E 0 90 1f 60
        E 0 90 54 60
        E 0 90 56 60
        E 0 90 60 60
        E 0 90 62 60
        E 57 80 1f 00
        E 1 80 18 00
        E 0 80 54 00
        E 0 80 56 00
        E 0 80 60 00
        E 0 80 62 00
        E 182 90 1a 60
        E 0 90 1f 60
        E 0 90 3d 60
        E 0 90 3e 60
        E 0 90 49 60
        E 0 90 4a 60
        E 0 90 55 60
        E 0 90 56 60
        E 0 90 61 60
        E 0 90 62 60
        E 57 80 1a 00
        E 0 80 1f 00
        E 1 80 3d 00
        E 0 80 3e 00
        E 0 80 49 00
        E 0 80 4a 00
        E 0 80 55 00
        E 0 80 56 00
        E 0 80 61 00
        E 0 80 62 00
        E 182 90 1f 60
        E 0 90 56 60
        E 0 90 62 60
        E 57 80 1f 00
        E 1 80 56 00
        E 0 80 62 00
        E 182 90 18 60
        E 0 90 1f 60
        E 0 90 3e 60
        E 0 90 48 60
        E 0 90 4a 60
        E 0 90 54 60
        E 0 90 56 60
        E 0 90 60 60
        E 0 90 62 60
        E 0 90 74 60
        E 57 80 1f 00
        E 1 80 18 00
        E 0 80 3e 00
        E 0 80 48 00
        E 0 80 4a 00
        E 0 80 54 00
        E 0 80 56 00
        E 0 80 60 00
        E 0 80 62 00
        E 182 90 1f 60
        E 0 90 56 60
        E 0 90 62 60
        E 57 80 1f 00
        E 1 80 56 00
        E 0 80 62 00
        E 182 90 1a 60
        E 0 90 1f 60
        E 0 90 3d 60
        E 0 90 3e 60
        E 0 90 49 60
        E 0 90 4a 60
        E 0 90 55 60
        E 0 90 56 60
        E 0 90 61 60
        E 0 90 62 60
        E 57 80 1a 00
        E 0 80 1f 00
        E 1 80 3d 00
        E 0 80 3e 00
        E 0 80 49 00
        E 0 80 4a 00
        E 0 80 55 00
        E 0 80 56 00
        E 0 80 61 00
        E 0 80 62 00
        E 182 90 18 60
        E 0 90 1f 60
        E 0 90 54 60
        E 0 90 56 60
        E 0 90 60 60
        E 0 90 62 60
        E 57 80 1f 00
        E 1 80 18 00
        E 0 80 54 00
        E 0 80 56 00
        E 0 80 60 00
        E 0 80 62 00
        E 182 90 1f 60
        E 0 90 3e 60
        E 0 90 4a 60
        E 0 90 56 60
        E 0 90 62 60
        E 57 80 1f 00
        E 1 80 3e 00
        E 0 80 4a 00
        E 0 80 56 00
        E 0 80 62 00
        E 182 90 19 60
        E 0 90 1f 60
        E 0 90 57 60
        E 0 90 63 60
        E 58 80 1f 00
        E 0 80 57 00
        E 0 80 63 00
        E 182 80 19 00
        E 0 90 1a 60
        E 0 90 1f 60
        E 0 90 3d 60
        E 0 90 3e 60
        E 0 90 49 60
        E 0 90 4a 60
        E 0 90 55 60
        E 0 90 56 60
        E 0 90 61 60
        E 0 90 62 60
        E 57 80 1a 00
        E 0 80 1f 00
        E 1 80 3d 00
        E 0 80 3e 00
        E 0 80 49 00
        E 0 80 4a 00
        E 0 80 55 00
        E 0 80 56 00
        E 0 80 61 00
        E 0 80 62 00
        E 182 90 1f 60
        E 0 90 56 60
        E 0 90 62 60
        E 57 80 1f 00
        E 1 80 56 00
        E 0 80 62 00
        E 182 90 18 60
        E 0 90 1f 60
        E 0 90 3e 60
        E 0 90 48 60
        E 0 90 4a 60
        E 0 90 54 60
        E 0 90 56 60
        E 0 90 60 60
        E 0 90 62 60
        E 57 80 1f 00
        E 1 80 18 00
        E 0 80 3e 00
        E 0 80 48 00
        E 0 80 4a 00
        E 0 80 54 00
        E 0 80 56 00
        E 0 80 60 00
        E 0 80 62 00
        E 182 90 1f 60
        E 0 90 56 60
        E 0 90 62 60
        E 57 80 1f 00
        E 1 80 56 00
        E 0 80 62 00
        E 182 90 1a 60
        E 0 90 1f 60
        E 0 90 3d 60
        E 0 90 3e 60
        E 0 90 49 60
        E 0 90 4a 60
        E 0 90 55 60
        E 0 90 56 60
        E 0 90 61 60
        E 0 90 62 60
        E 57 80 1f 00
        E 1 80 1a 00
        E 0 80 3d 00
        E 0 80 3e 00
        E 0 80 49 00
        E 0 80 4a 00
        E 0 80 55 00
        E 0 80 56 00
        E 0 80 61 00
        E 0 80 62 00
        E 182 90 18 60
        E 0 90 1f 60
        E 0 90 54 60
        E 0 90 56 60
        E 0 90 60 60
        E 0 90 62 60
        E 57 80 1f 00
        E 1 80 18 00
        E 0 80 54 00
        E 0 80 56 00
        E 0 80 60 00
        E 0 80 62 00
        E 182 90 18 60
        E 0 90 1f 60
        E 0 90 3e 60
        E 0 90 48 60
        E 0 90 4a 60
        E 0 90 54 60
        E 0 90 56 60
        E 0 90 60 60
        E 0 90 62 60
        E 57 80 1f 00
        E 1 80 18 00
        E 0 80 3e 00
        E 0 80 48 00
        E 0 80 4a 00
        E 0 80 54 00
        E 0 80 56 00
        E 0 80 60 00
        E 0 80 62 00
        E 182 90 1f 60
        E 0 90 56 60
        E 0 90 62 60
        E 57 80 1f 00
        E 1 80 56 00
        E 0 80 62 00
        E 182 90 1a 60
        E 0 90 1f 60
        E 0 90 3d 60
        E 0 90 3e 60
        E 0 90 49 60
        E 0 90 4a 60
        E 0 90 55 60
        E 0 90 56 60
        E 0 90 61 60
        E 0 90 62 60
        E 57 80 1a 00
        E 0 80 1f 00
        E 1 80 3d 00
        E 0 80 3e 00
        E 0 80 49 00
        E 0 80 4a 00
        E 0 80 55 00
        E 0 80 56 00
        E 0 80 61 00
        E 0 80 62 00
        E 182 90 1f 60
        E 0 90 56 60
        E 0 90 62 60
        E 57 80 1f 00
        E 1 80 56 00
        E 0 80 62 00
        E 182 80 74 00
        E 0 90 18 60
        E 0 90 1f 60
        E 0 90 3e 60
        E 0 90 48 60
        E 0 90 4a 60
        E 0 90 54 60
        E 0 90 56 60
        E 0 90 60 60
        E 0 90 62 60
        E 57 80 1f 00
        E 1 80 18 00
        E 0 80 3e 00
        E 0 80 48 00
        E 0 80 4a 00
        E 0 80 54 00
        E 0 80 56 00
        E 0 80 60 00
        E 0 80 62 00
        E 182 90 1f 60
        E 0 90 56 60
        E 0 90 62 60
        E 57 80 1f 00
        E 1 80 56 00
        E 0 80 62 00
        E 182 90 1a 60
        E 0 90 1f 60
        E 0 90 3d 60
        E 0 90 3e 60
        E 0 90 49 60
        E 0 90 4a 60
        E 0 90 55 60
        E 0 90 56 60
        E 0 90 61 60
        E 0 90 62 60
        E 57 80 1a 00
        E 0 80 1f 00
        E 1 80 3d 00
        E 0 80 3e 00
        E 0 80 49 00
        E 0 80 4a 00
        E 0 80 55 00
        E 0 80 56 00
        E 0 80 61 00
        E 0 80 62 00
        E 182 90 18 60
        E 0 90 1f 60
        E 0 90 54 60
        E 0 90 56 60
        E 0 90 60 60
        E 0 90 62 60
        E 57 80 1f 00
        E 1 80 18 00
        E 0 80 54 00
        E 0 80 56 00
        E 0 80 60 00
        E 0 80 62 00
        E 182 90 1f 60
        E 0 90 3e 60
        E 0 90 4a 60
        E 0 90 56 60
        E 0 90 62 60
        E 57 80 1f 00
        E 1 80 3e 00
        E 0 80 4a 00
        E 0 80 56 00
        E 0 80 62 00
        E 182 90 1f 60
        E 0 90 56 60
        E 0 90 62 60
        E 57 80 1f 00
        E 1 80 56 00
        E 0 80 62 00
        E 182 90 1a 60
        E 0 90 1f 60
        E 0 90 3d 60
        E 0 90 3e 60
        E 0 90 49 60
        E 0 90 4a 60
        E 0 90 55 60
        E 0 90 56 60
        E 0 90 61 60
        E 0 90 62 60
        E 57 80 1a 00
        E 0 80 1f 00
        E 1 80 3d 00
        E 0 80 3e 00
        E 0 80 49 00
        E 0 80 4a 00
        E 0 80 55 00
        E 0 80 56 00
        E 0 80 61 00
        E 0 80 62 00
        E 182 90 1f 60
        E 0 90 56 60
        E 0 90 62 60
        E 57 80 1f 00
        E 1 80 56 00
        E 0 80 62 00
        E 182 90 18 60
        E 0 90 1f 60
        E 0 90 3e 60
        E 0 90 48 60
        E 0 90 4a 60
        E 0 90 54 60
        E 0 90 56 60
        E 0 90 60 60
        E 0 90 62 60
        E 57 80 1f 00
        E 1 80 18 00
        E 0 80 3e 00
        E 0 80 48 00
        E 0 80 4a 00
        E 0 80 54 00
        E 0 80 56 00
        E 0 80 60 00
        E 0 80 62 00
        E 182 90 1f 60
        E 0 90 56 60
        E 0 90 62 60
        E 57 80 1f 00
        E 1 80 56 00
        E 0 80 62 00
        E 182 90 1a 60
        E 0 90 1f 60
        E 0 90 3d 60
        E 0 90 3e 60
        E 0 90 49 60
        E 0 90 4a 60
        E 0 90 55 60
        E 0 90 56 60
        E 0 90 61 60
        E 0 90 62 60
        E 57 80 1a 00
        E 0 80 1f 00
        E 1 80 3d 00
        E 0 80 3e 00
        E 0 80 49 00
        E 0 80 4a 00
        E 0 80 55 00
        E 0 80 56 00
        E 0 80 61 00
        E 0 80 62 00
        E 182 90 1f 60
        E 0 90 56 60
        E 0 90 62 60
        E 57 80 1f 00
        E 1 80 56 00
        E 0 80 62 00
        E 182 90 18 60
        E 0 90 1f 60
        E 0 90 3e 60
        E 0 90 48 60
        E 0 90 4a 60
        E 0 90 54 60
        E 0 90 56 60
        E 0 90 60 60
        E 0 90 62 60
        E 57 80 1f 00
        E 1 80 18 00
        E 0 80 3e 00
        E 0 80 48 00
        E 0 80 4a 00
        E 0 80 54 00
        E 0 80 56 00
        E 0 80 60 00
        E 0 80 62 00
        E 182 90 18 60
        E 0 90 1f 60
        E 0 90 54 60
        E 0 90 56 60
        E 0 90 60 60
        E 0 90 62 60
        E 57 80 1f 00
        E 1 80 18 00
        E 0 80 54 00
        E 0 80 56 00
        E 0 80 60 00
        E 0 80 62 00
        E 182 90 1a 60
        E 0 90 1f 60
        E 0 90 3d 60
        E 0 90 3e 60
        E 0 90 49 60
        E 0 90 4a 60
        E 0 90 55 60
        E 0 90 56 60
        E 0 90 61 60
        E 0 90 62 60
        E 57 80 1a 00
        E 0 80 1f 00
        E 1 80 3d 00
        E 0 80 3e 00
        E 0 80 49 00
        E 0 80 4a 00
        E 0 80 55 00
        E 0 80 56 00
        E 0 80 61 00
        E 0 80 62 00
        E 182 90 1f 60
        E 0 90 56 60
        E 0 90 62 60
        E 57 80 1f 00
        E 1 80 56 00
        E 0 80 62 00
        E 182 90 18 60
        E 0 90 1f 60
        E 0 90 3e 60
        E 0 90 48 60
        E 0 90 4a 60
        E 0 90 54 60
        E 0 90 56 60
        E 0 90 60 60
        E 0 90 62 60
        E 57 80 1f 00
        E 1 80 18 00
        E 0 80 3e 00
        E 0 80 48 00
        E 0 80 4a 00
        E 0 80 54 00
        E 0 80 56 00
        E 0 80 60 00
        E 0 80 62 00
        E 182 90 1f 60
        E 0 90 56 60
        E 0 90 62 60
        E 57 80 1f 00
        E 1 80 56 00
        E 0 80 62 00
        E 182 90 1a 60
        E 0 90 1f 60
        E 0 90 3d 60
        E 0 90 3e 60
        E 0 90 49 60
        E 0 90 4a 60
        E 0 90 55 60
        E 0 90 56 60
        E 0 90 61 60
        E 0 90 62 60
        E 57 80 1a 00
        E 0 80 1f 00
        E 1 80 3d 00
        E 0 80 3e 00
        E 0 80 49 00
        E 0 80 4a 00
        E 0 80 55 00
        E 0 80 56 00
        E 0 80 61 00
        E 0 80 62 00
        E 182 90 18 60
        E 0 90 1f 60
        E 0 90 54 60
        E 0 90 56 60
        E 0 90 60 60
        E 0 90 62 60
        E 57 80 1f 00
        E 1 80 18 00
        E 0 80 54 00
        E 0 80 56 00
        E 0 80 60 00
        E 0 80 62 00
        E 182 90 1f 60
        E 0 90 3e 60
        E 0 90 4a 60
        E 0 90 56 60
        E 0 90 62 60
        E 57 80 1f 00
        E 1 80 3e 00
        E 0 80 4a 00
        E 0 80 56 00
        E 0 80 62 00
        E 182 90 19 60
        E 0 90 1f 60
        E 0 90 57 60
        E 0 90 63 60
        E 58 80 1f 00
        E 0 80 57 00
        E 0 80 63 00
        E 182 80 19 00
        E 0 90 1a 60
        E 0 90 1f 60
        E 0 90 3d 60
        E 0 90 3e 60
        E 0 90 49 60
        E 0 90 4a 60
        E 0 90 55 60
        E 0 90 56 60
        E 0 90 61 60
        E 0 90 62 60
        E 57 80 1a 00
        E 0 80 1f 00
        E 1 80 3d 00
        E 0 80 3e 00
        E 0 80 49 00
        E 0 80 4a 00
        E 0 80 55 00
        E 0 80 56 00
        E 0 80 61 00
        E 0 80 62 00
        E 182 90 1f 60
        E 0 90 56 60
        E 0 90 62 60
        E 57 80 1f 00
        E 1 80 56 00
        E 0 80 62 00
        E 182 90 18 60
        E 0 90 1f 60
        E 0 90 3e 60
        E 0 90 48 60
        E 0 90 4a 60
        E 0 90 54 60
        E 0 90 56 60
        E 0 90 60 60
        E 0 90 62 60
        E 0 90 78 60
        E 0 90 79 60
        E 0 90 7a 60
        E 0 90 7b 60
        E 0 90 7c 60
        E 57 80 1f 00
        E 1 80 18 00
        E 0 80 3e 00
        E 0 80 48 00
        E 0 80 4a 00
        E 0 80 54 00
        E 0 80 56 00
        E 0 80 60 00
        E 0 80 62 00
        E 182 90 2f 60
        E 0 90 57 60
        E 0 90 63 60
        E 0 90 6f 60
        E 58 80 57 00
        E 0 80 63 00
        E 2 80 2f 00
        E 0 80 6f 00
        E 180 90 1a 60
        E 0 90 1f 60
        E 0 90 3d 60
        E 0 90 3e 60
        E 0 90 49 60
        E 0 90 4a 60
        E 0 90 55 60
        E 0 90 56 60
        E 0 90 61 60
        E 0 90 62 60
        E 57 80 1a 00
        E 0 80 1f 00
        E 1 80 3d 00
        E 0 80 3e 00
        E 0 80 49 00
        E 0 80 4a 00
        E 0 80 55 00
        E 0 80 56 00
        E 0 80 61 00
        E 0 80 62 00
        E 182 90 18 60
        E 0 90 1f 60
        E 0 90 54 60
        E 0 90 56 60
        E 0 90 60 60
        E 0 90 62 60
        E 57 80 1f 00
        E 1 80 18 00
        E 0 80 54 00
        E 0 80 56 00
        E 0 80 60 00
        E 0 80 62 00
        E 182 90 18 60
        E 0 90 1f 60
        E 0 90 3e 60
        E 0 90 48 60
        E 0 90 4a 60
        E 0 90 54 60
        E 0 90 56 60
        E 0 90 60 60
        E 0 90 62 60
        E 57 80 1f 00
        E 1 80 18 00
        E 0 80 3e 00
        E 0 80 48 00
        E 0 80 4a 00
        E 0 80 54 00
        E 0 80 56 00
        E 0 80 60 00
        E 0 80 62 00
        E 182 90 1a 60
        E 0 90 1f 60
        E 0 90 55 60
        E 0 90 56 60
        E 0 90 61 60
        E 0 90 62 60
        E 57 80 1a 00
        E 0 80 1f 00
        E 1 80 55 00
        E 0 80 56 00
        E 0 80 61 00
        E 0 80 62 00
        E 182 90 1a 60
        E 0 90 1f 60
        E 0 90 3d 60
        E 0 90 3e 60
        E 0 90 49 60
        E 0 90 4a 60
        E 0 90 55 60
        E 0 90 56 60
        E 0 90 61 60
        E 0 90 62 60
        E 57 80 1a 00
        E 0 80 1f 00
        E 1 80 3d 00
        E 0 80 3e 00
        E 0 80 49 00
        E 0 80 4a 00
        E 0 80 55 00
        E 0 80 56 00
        E 0 80 61 00
        E 0 80 62 00
        E 182 90 1f 60
        E 0 90 56 60
        E 0 90 62 60
        E 57 80 1f 00
        E 1 80 56 00
        E 0 80 62 00
        E 182 80 78 00
        E 0 80 79 00
        E 0 80 7a 00
        E 0 80 7b 00
        E 0 80 7c 00
        E 0 90 18 60
        E 0 90 1f 60
        E 0 90 3e 60
        E 0 90 48 60
        E 0 90 4a 60
        E 0 90 54 60
        E 0 90 56 60
        E 0 90 60 60
        E 0 90 62 60
        E 57 80 1f 00
        E 1 80 18 00
        E 0 80 3e 00
        E 0 80 48 00
        E 0 80 4a 00
        E 0 80 54 00
        E 0 80 56 00
        E 0 80 60 00
        E 0 80 62 00
        E 182 90 1f 60
        E 0 90 56 60
        E 0 90 62 60
        E 57 80 1f 00
        E 1 80 56 00
        E 0 80 62 00
        E 182 90 1a 60
        E 0 90 1f 60
        E 0 90 3d 60
        E 0 90 3e 60
        E 0 90 49 60
        E 0 90 4a 60
        E 0 90 55 60
        E 0 90 56 60
        E 0 90 61 60
        E 0 90 62 60
        E 57 80 1a 00
        E 0 80 1f 00
        E 1 80 3d 00
        E 0 80 3e 00
        E 0 80 49 00
        E 0 80 4a 00
        E 0 80 55 00
        E 0 80 56 00
        E 0 80 61 00
        E 0 80 62 00
        E 182 90 18 60
        E 0 90 1f 60
        E 0 90 54 60
        E 0 90 56 60
        E 0 90 60 60
        E 0 90 62 60
        E 57 80 1f 00
        E 1 80 18 00
        E 0 80 54 00
        E 0 80 56 00
        E 0 80 60 00
        E 0 80 62 00
        E 182 90 1f 60
        E 0 90 3e 60
        E 0 90 4a 60
        E 0 90 56 60
        E 0 90 62 60
        E 57 80 1f 00
        E 1 80 3e 00
        E 0 80 4a 00
        E 0 80 56 00
        E 0 80 62 00
        E 182 90 1f 60
        E 0 90 56 60
        E 0 90 62 60
        E 57 80 1f 00
        E 1 80 56 00
        E 0 80 62 00
        E 182 90 1a 60
        E 0 90 1f 60
        E 0 90 3d 60
        E 0 90 3e 60
        E 0 90 49 60
        E 0 90 4a 60
        E 0 90 55 60
        E 0 90 56 60
        E 0 90 61 60
        E 0 90 62 60
        E 57 80 1f 00
        E 1 80 1a 00
        E 0 80 3d 00
        E 0 80 3e 00
        E 0 80 49 00
        E 0 80 4a 00
        E 0 80 55 00
        E 0 80 56 00
        E 0 80 61 00
        E 0 80 62 00
        E 182 90 1f 60
        E 0 90 56 60
        E 0 90 62 60
        E 57 80 1f 00
        E 1 80 56 00
        E 0 80 62 00
        E 182 90 18 60
        E 0 90 1f 60
        E 0 90 3e 60
        E 0 90 48 60
        E 0 90 4a 60
        E 0 90 54 60
        E 0 90 56 60
        E 0 90 60 60
        E 0 90 62 60
        E 57 80 1f 00
        E 1 80 18 00
        E 0 80 3e 00
        E 0 80 48 00
        E 0 80 4a 00
        E 0 80 54 00
        E 0 80 56 00
        E 0 80 60 00
        E 0 80 62 00
        E 182 90 1f 60
        E 0 90 56 60
        E 0 90 62 60
        E 57 80 1f 00
        E 1 80 56 00
        E 0 80 62 00
        E 182 90 1a 60
        E 0 90 1f 60
        E 0 90 3d 60
        E 0 90 3e 60
        E 0 90 49 60
        E 0 90 4a 60
        E 0 90 55 60
        E 0 90 56 60
        E 0 90 61 60
        E 0 90 62 60
        E 57 80 1a 00
        E 0 80 1f 00
        E 1 80 3d 00
        E 0 80 3e 00
        E 0 80 49 00
        E 0 80 4a 00
        E 0 80 55 00
        E 0 80 56 00
        E 0 80 61 00
        E 0 80 62 00
        E 182 90 1f 60
        E 0 90 56 60
        E 0 90 62 60
        E 57 80 1f 00
        E 1 80 56 00
        E 0 80 62 00
        E 182 90 18 60
        E 0 90 1f 60
        E 0 90 3e 60
        E 0 90 48 60
        E 0 90 4a 60
        E 0 90 54 60
        E 0 90 56 60
        E 0 90 60 60
        E 0 90 62 60
        E 57 80 1f 00
        E 1 80 18 00
        E 0 80 3e 00
        E 0 80 48 00
        E 0 80 4a 00
        E 0 80 54 00
        E 0 80 56 00
        E 0 80 60 00
        E 0 80 62 00
        E 182 90 18 60
        E 0 90 1f 60
        E 0 90 54 60
        E 0 90 56 60
        E 0 90 60 60
        E 0 90 62 60
        E 57 80 1f 00
        E 1 80 18 00
        E 0 80 54 00
        E 0 80 56 00
        E 0 80 60 00
        E 0 80 62 00
        E 182 90 1a 60
        E 0 90 1f 60
        E 0 90 3d 60
        E 0 90 3e 60
        E 0 90 49 60
        E 0 90 4a 60
        E 0 90 55 60
        E 0 90 56 60
        E 0 90 61 60
        E 0 90 62 60
        E 57 80 1a 00
        E 0 80 1f 00
        E 1 80 3d 00
        E 0 80 3e 00
        E 0 80 49 00
        E 0 80 4a 00
        E 0 80 55 00
        E 0 80 56 00
        E 0 80 61 00
        E 0 80 62 00
        E 182 90 1f 60
        E 0 90 56 60
        E 0 90 62 60
        E 57 80 1f 00
        E 1 80 56 00
        E 0 80 62 00
        E 182 90 18 60
        E 0 90 1f 60
        E 0 90 3e 60
        E 0 90 48 60
        E 0 90 4a 60
        E 0 90 54 60
        E 0 90 56 60
        E 0 90 60 60
        E 0 90 62 60
        E 57 80 1f 00
        E 1 80 18 00
        E 0 80 3e 00
        E 0 80 48 00
        E 0 80 4a 00
        E 0 80 54 00
        E 0 80 56 00
        E 0 80 60 00
        E 0 80 62 00
        E 182 90 1f 60
        E 0 90 56 60
        E 0 90 62 60
        E 57 80 1f 00
        E 1 80 56 00
        E 0 80 62 00
        E 182 90 1a 60
        E 0 90 1f 60
        E 0 90 3d 60
        E 0 90 3e 60
        E 0 90 49 60
        E 0 90 4a 60
        E 0 90 55 60
        E 0 90 56 60
        E 0 90 61 60
        E 0 90 62 60
        E 57 80 1a 00
        E 0 80 1f 00
        E 1 80 3d 00
        E 0 80 3e 00
        E 0 80 49 00
        E 0 80 4a 00
        E 0 80 55 00
        E 0 80 56 00
        E 0 80 61 00
        E 0 80 62 00
        E 182 90 18 60
        E 0 90 1f 60
        E 0 90 54 60
        E 0 90 56 60
        E 0 90 60 60
        E 0 90 62 60
        E 57 80 1f 00
        E 1 80 18 00
        E 0 80 54 00
        E 0 80 56 00
        E 0 80 60 00
        E 0 80 62 00
        E 182 90 1f 60
        E 0 90 3e 60
        E 0 90 4a 60
        E 0 90 56 60
        E 0 90 62 60
        E 57 80 1f 00
        E 1 80 3e 00
        E 0 80 4a 00
        E 0 80 56 00
        E 0 80 62 00
        E 182 90 19 60
        E 0 90 1f 60
        E 0 90 57 60
        E 0 90 63 60
        E 58 80 1f 00
        E 0 80 57 00
        E 0 80 63 00
        E 182 80 19 00
        E 0 90 1a 60
        E 0 90 1f 60
        E 0 90 3d 60
        E 0 90 3e 60
        E 0 90 49 60
        E 0 90 4a 60
        E 0 90 55 60
        E 0 90 56 60
        E 0 90 61 60
        E 0 90 62 60
        E 57 80 1a 00
        E 0 80 1f 00
        E 1 80 3d 00
        E 0 80 3e 00
        E 0 80 49 00
        E 0 80 4a 00
        E 0 80 55 00
        E 0 80 56 00
        E 0 80 61 00
        E 0 80 62 00
        E 182 90 1f 60
        E 0 90 56 60
        E 0 90 62 60
        E 57 80 1f 00
        E 1 80 56 00
        E 0 80 62 00
        E 182 90 18 60
        E 0 90 1f 60
        E 0 90 3e 60
        E 0 90 48 60
        E 0 90 4a 60
        E 0 90 54 60
        E 0 90 56 60
        E 0 90 60 60
        E 0 90 62 60
        E 0 90 78 60
        E 0 90 79 60
        E 0 90 7a 60
        E 0 90 7b 60
        E 0 90 7c 60
        E 57 80 1f 00
        E 1 80 18 00
        E 0 80 3e 00
        E 0 80 48 00
        E 0 80 4a 00
        E 0 80 54 00
        E 0 80 56 00
        E 0 80 60 00
        E 0 80 62 00
        E 182 90 1f 60
        E 0 90 56 60
        E 0 90 62 60
        E 57 80 1f 00
        E 1 80 56 00
        E 0 80 62 00
        E 182 90 1a 60
        E 0 90 1f 60
        E 0 90 3d 60
        E 0 90 3e 60
        E 0 90 49 60
        E 0 90 4a 60
        E 0 90 55 60
        E 0 90 56 60
        E 0 90 61 60
        E 0 90 62 60
        E 57 80 1a 00
        E 0 80 1f 00
        E 1 80 3d 00
        E 0 80 3e 00
        E 0 80 49 00
        E 0 80 4a 00
        E 0 80 55 00
        E 0 80 56 00
        E 0 80 61 00
        E 0 80 62 00
        E 182 90 18 60
        E 0 90 1f 60
        E 0 90 54 60
        E 0 90 56 60
        E 0 90 60 60
        E 0 90 62 60
        E 57 80 1f 00
        E 1 80 18 00
        E 0 80 54 00
        E 0 80 56 00
        E 0 80 60 00
        E 0 80 62 00
        E 182 90 18 60
        E 0 90 1f 60
        E 0 90 3e 60
        E 0 90 48 60
        E 0 90 4a 60
        E 0 90 54 60
        E 0 90 56 60
        E 0 90 60 60
        E 0 90 62 60
        E 57 80 1f 00
        E 1 80 18 00
        E 0 80 3e 00
        E 0 80 48 00
        E 0 80 4a 00
        E 0 80 54 00
        E 0 80 56 00
        E 0 80 60 00
        E 0 80 62 00
        E 182 90 1a 60
        E 0 90 1f 60
        E 0 90 55 60
        E 0 90 56 60
        E 0 90 61 60
        E 0 90 62 60
        E 57 80 1a 00
        E 0 80 1f 00
        E 1 80 55 00
        E 0 80 56 00
        E 0 80 61 00
        E 0 80 62 00
        E 182 90 1a 60
        E 0 90 1f 60
        E 0 90 3d 60
        E 0 90 3e 60
        E 0 90 49 60
        E 0 90 4a 60
        E 0 90 55 60
        E 0 90 56 60
        E 0 90 61 60
        E 0 90 62 60
        E 57 80 1a 00
        E 0 80 1f 00
        E 1 80 3d 00
        E 0 80 3e 00
        E 0 80 49 00
        E 0 80 4a 00
        E 0 80 55 00
        E 0 80 56 00
        E 0 80 61 00
        E 0 80 62 00
        E 182 90 1f 60
        E 0 90 56 60
        E 0 90 62 60
        E 57 80 1f 00
        E 1 80 56 00
        E 0 80 62 00
        E 182 80 78 00
        E 0 80 79 00
        E 0 80 7a 00
        E 0 80 7b 00
        E 0 80 7c 00
        E 0 90 18 60
        E 0 90 1f 60
        E 0 90 3e 60
        E 0 90 48 60
        E 0 90 4a 60
        E 0 90 54 60
        E 0 90 56 60
        E 0 90 60 60
        E 0 90 62 60
        E 57 80 1f 00
        E 1 80 18 00
        E 0 80 3e 00
        E 0 80 48 00
        E 0 80 4a 00
        E 0 80 54 00
        E 0 80 56 00
        E 0 80 60 00
        E 0 80 62 00
        E 182 90 1f 60
        E 0 90 56 60
        E 0 90 62 60
        E 57 80 1f 00
        E 1 80 56 00
        E 0 80 62 00
        E 182 90 1a 60
        E 0 90 1f 60
        E 0 90 3d 60
        E 0 90 3e 60
        E 0 90 49 60
        E 0 90 4a 60
        E 0 90 55 60
        E 0 90 56 60
        E 0 90 61 60
        E 0 90 62 60
        E 57 80 1a 00
        E 0 80 1f 00
        E 1 80 3d 00
        E 0 80 3e 00
        E 0 80 49 00
        E 0 80 4a 00
        E 0 80 55 00
        E 0 80 56 00
        E 0 80 61 00
        E 0 80 62 00
        E 182 90 18 60
        E 0 90 1f 60
        E 0 90 54 60
        E 0 90 56 60
        E 0 90 60 60
        E 0 90 62 60
        E 57 80 1f 00
        E 1 80 18 00
        E 0 80 54 00
        E 0 80 56 00
        E 0 80 60 00
        E 0 80 62 00
        E 182 90 1f 60
        E 0 90 3e 60
        E 0 90 4a 60
        E 0 90 56 60
        E 0 90 62 60
        E 57 80 1f 00
        E 1 80 3e 00
        E 0 80 4a 00
        E 0 80 56 00
        E 0 80 62 00
        E 182 90 1f 60
        E 0 90 56 60
        E 0 90 62 60
        E 57 80 1f 00
        E 1 80 56 00
        E 0 80 62 00
        E 182 90 1a 60
        E 0 90 1f 60
        E 0 90 3d 60
        E 0 90 3e 60
        E 0 90 49 60
        E 0 90 4a 60
        E 0 90 55 60
        E 0 90 56 60
        E 0 90 61 60
        E 0 90 62 60
        E 57 80 1a 00
        E 0 80 1f 00
        E 1 80 3d 00
        E 0 80 3e 00
        E 0 80 49 00
        E 0 80 4a 00
        E 0 80 55 00
        E 0 80 56 00
        E 0 80 61 00
        E 0 80 62 00
        E 182 90 1f 60
        E 0 90 56 60
        E 0 90 62 60
        E 57 80 1f 00
        E 1 80 56 00
        E 0 80 62 00
        E 182 90 18 60
        E 0 90 1f 60
        E 0 90 3e 60
        E 0 90 48 60
        E 0 90 4a 60
        E 0 90 54 60
        E 0 90 56 60
        E 0 90 60 60
        E 0 90 62 60
        E 57 80 1f 00
        E 1 80 18 00
        E 0 80 3e 00
        E 0 80 48 00
        E 0 80 4a 00
        E 0 80 54 00
        E 0 80 56 00
        E 0 80 60 00
        E 0 80 62 00
        E 182 90 1f 60
        E 0 90 56 60
        E 0 90 62 60
        E 57 80 1f 00
        E 1 80 56 00
        E 0 80 62 00
        E 182 90 1a 60
        E 0 90 1f 60
        E 0 90 3d 60
        E 0 90 3e 60
        E 0 90 49 60
        E 0 90 4a 60
        E 0 90 55 60
        E 0 90 56 60
        E 0 90 61 60
        E 0 90 62 60
        E 57 80 1a 00
        E 0 80 1f 00
        E 1 80 3d 00
        E 0 80 3e 00
        E 0 80 49 00
        E 0 80 4a 00
        E 0 80 55 00
        E 0 80 56 00
        E 0 80 61 00
        E 0 80 62 00
        E 182 90 1f 60
        E 0 90 56 60
        E 0 90 62 60
        E 57 80 1f 00
        E 1 80 56 00
        E 0 80 62 00
        E 182 90 18 60
        E 0 90 1f 60
        E 0 90 3e 60
        E 0 90 48 60
        E 0 90 4a 60
        E 0 90 54 60
        E 0 90 56 60
        E 0 90 60 60
        E 0 90 62 60
        E 57 80 1f 00
        E 1 80 18 00
        E 0 80 3e 00
        E 0 80 48 00
        E 0 80 4a 00
        E 0 80 54 00
        E 0 80 56 00
        E 0 80 60 00
        E 0 80 62 00
        E 182 90 18 60
        E 0 90 1f 60
        E 0 90 54 60
        E 0 90 56 60
        E 0 90 60 60
        E 0 90 62 60
        E 57 80 1f 00
        E 1 80 18 00
        E 0 80 54 00
        E 0 80 56 00
        E 0 80 60 00
        E 0 80 62 00
        E 182 90 1a 60
        E 0 90 1f 60
        E 0 90 3d 60
        E 0 90 3e 60
        E 0 90 49 60
        E 0 90 4a 60
        E 0 90 55 60
        E 0 90 56 60
        E 0 90 61 60
        E 0 90 62 60
        E 57 80 1a 00
        E 0 80 1f 00
        E 1 80 3d 00
        E 0 80 3e 00
        E 0 80 49 00
        E 0 80 4a 00
        E 0 80 55 00
        E 0 80 56 00
        E 0 80 61 00
        E 0 80 62 00
        E 182 90 1f 60
        E 0 90 56 60
        E 0 90 62 60
        E 57 80 1f 00
        E 1 80 56 00
        E 0 80 62 00
        E 182 90 18 60
        E 0 90 1f 60
        E 0 90 3e 60
        E 0 90 48 60
        E 0 90 4a 60
        E 0 90 54 60
        E 0 90 56 60
        E 0 90 60 60
        E 0 90 62 60
        E 0 90 74 60
        E 57 80 1f 00
        E 1 80 18 00
        E 0 80 3e 00
        E 0 80 48 00
        E 0 80 4a 00
        E 0 80 54 00
        E 0 80 56 00
        E 0 80 60 00
        E 0 80 62 00
        E 182 90 1f 60
        E 0 90 56 60
        E 0 90 62 60
        E 57 80 1f 00
        E 1 80 56 00
        E 0 80 62 00
        E 182 90 1a 60
        E 0 90 1f 60
        E 0 90 3d 60
        E 0 90 3e 60
        E 0 90 49 60
        E 0 90 4a 60
        E 0 90 55 60
        E 0 90 56 60
        E 0 90 61 60
        E 0 90 62 60
        E 57 80 1a 00
        E 0 80 1f 00
        E 1 80 3d 00
        E 0 80 3e 00
        E 0 80 49 00
        E 0 80 4a 00
        E 0 80 55 00
        E 0 80 56 00
        E 0 80 61 00
        E 0 80 62 00
        E 182 90 18 60
        E 0 90 1f 60
        E 0 90 54 60
        E 0 90 56 60
        E 0 90 60 60
        E 0 90 62 60
        E 57 80 1f 00
        E 1 80 18 00
        E 0 80 54 00
        E 0 80 56 00
        E 0 80 60 00
        E 0 80 62 00
        E 182 90 1f 60
        E 0 90 3e 60
        E 0 90 4a 60
        E 0 90 56 60
        E 0 90 62 60
        E 57 80 1f 00
        E 1 80 3e 00
        E 0 80 4a 00
        E 0 80 56 00
        E 0 80 62 00
        E 182 90 2f 60
        E 0 90 57 60
        E 0 90 63 60
        E 0 90 6f 60
        E 57 80 2f 00
        E 1 80 57 00
        E 0 80 63 00
        E 2 80 6f 00
        E 180 90 1a 60
        E 0 90 1f 60
        E 0 90 3d 60
        E 0 90 3e 60
        E 0 90 49 60
        E 0 90 4a 60
        E 0 90 55 60
        E 0 90 56 60
        E 0 90 61 60
        E 0 90 62 60
        E 57 80 1a 00
        E 0 80 1f 00
        E 1 80 3d 00
        E 0 80 3e 00
        E 0 80 49 00
        E 0 80 4a 00
        E 0 80 55 00
        E 0 80 56 00
        E 0 80 61 00
        E 0 80 62 00
        E 182 90 1f 60
        E 0 90 56 60
        E 0 90 62 60
        E 57 80 1f 00
        E 1 80 56 00
        E 0 80 62 00
        E 182 90 18 60
        E 0 90 1f 60
        E 0 90 3e 60
        E 0 90 48 60
        E 0 90 4a 60
        E 0 90 54 60
        E 0 90 56 60
        E 0 90 60 60
        E 0 90 62 60
        E 57 80 1f 00
        E 1 80 18 00
        E 0 80 3e 00
        E 0 80 48 00
        E 0 80 4a 00
        E 0 80 54 00
        E 0 80 56 00
        E 0 80 60 00
        E 0 80 62 00
        E 182 90 31 60
        E 0 90 58 60
        E 0 90 64 60
        E 0 90 70 60
        E 58 80 58 00
        E 0 80 64 00
        E 2 80 31 00
        E 180 90 1a 60
        E 0 90 1f 60
        E 0 90 3d 60
        E 0 90 3e 60
        E 0 90 49 60
        E 0 90 4a 60
        E 0 90 55 60
        E 0 90 56 60
        E 0 90 61 60
        E 0 90 62 60
        E 57 80 1a 00
        E 0 80 1f 00
        E 1 80 3d 00
        E 0 80 3e 00
        E 0 80 49 00
        E 0 80 4a 00
        E 0 80 55 00
        E 0 80 56 00
        E 0 80 61 00
        E 0 80 62 00
        E 182 90 18 60
        E 0 90 1f 60
        E 0 90 54 60
        E 0 90 56 60
        E 0 90 60 60
        E 0 90 62 60
        E 57 80 1f 00
        E 1 80 18 00
        E 0 80 54 00
        E 0 80 56 00
        E 0 80 60 00
        E 0 80 62 00
        E 182 90 18 60
        E 0 90 31 60
        E 0 90 40 60
        E 0 90 48 60
        E 0 90 4c 60
        E 0 90 54 60
        E 0 90 58 60
        E 0 90 60 60
        E 0 90 64 60
        E 58 80 18 00
        E 0 80 40 00
        E 0 80 48 00
        E 0 80 4c 00
        E 0 80 54 00
        E 0 80 58 00
        E 0 80 60 00
        E 0 80 64 00
        E 2 80 70 00
        E 0 80 31 00
        E 180 90 1a 60
        E 0 90 1f 60
        E 0 90 55 60
        E 0 90 56 60
        E 0 90 61 60
        E 0 90 62 60
        E 57 80 1a 00
        E 0 80 1f 00
        E 1 80 55 00
        E 0 80 56 00
        E 0 80 61 00
        E 0 80 62 00
        E 182 90 1a 60
        E 0 90 1f 60
        E 0 90 3d 60
        E 0 90 3e 60
        E 0 90 49 60
        E 0 90 4a 60
        E 0 90 55 60
        E 0 90 56 60
        E 0 90 61 60
        E 0 90 62 60
        E 57 80 1a 00
        E 0 80 1f 00
        E 1 80 3d 00
        E 0 80 3e 00
        E 0 80 49 00
        E 0 80 4a 00
        E 0 80 55 00
        E 0 80 56 00
        E 0 80 61 00
        E 0 80 62 00
        E 182 90 1a 60
        E 0 90 1f 60
        E 0 90 55 60
        E 0 90 56 60
        E 0 90 61 60
        E 0 90 62 60
        E 57 80 1a 00
        E 0 80 1f 00
        E 1 80 55 00
        E 0 80 56 00
        E 0 80 61 00
        E 0 80 62 00
        <X 182 0
          /wFbaW50ZW5zZV0=
        >
        E 0 80 74 00
        E 0 90 18 60
        E 0 90 1f 60
        E 0 90 3e 60
        E 0 90 48 60
        E 0 90 4a 60
        E 0 90 54 60
        E 0 90 56 60
        E 0 90 60 60
        E 0 90 62 60
        E 58 80 18 00
        E 0 80 48 00
        E 0 80 54 00
        E 0 80 60 00
        E 2 80 1f 00
        E 0 80 3e 00
        E 0 80 4a 00
        E 0 80 56 00
        E 0 80 62 00
        E 180 90 18 60
        E 0 90 54 60
        E 0 90 60 60
        E 58 80 18 00
        E 0 80 54 00
        E 0 80 60 00
        E 182 90 1a 60
        E 0 90 1f 60
        E 0 90 3d 60
        E 0 90 3e 60
        E 0 90 49 60
        E 0 90 4a 60
        E 0 90 55 60
        E 0 90 56 60
        E 0 90 61 60
        E 0 90 62 60
        E 57 80 1a 00
        E 1 80 3d 00
        E 0 80 49 00
        E 0 80 55 00
        E 0 80 61 00
        E 2 80 1f 00
        E 0 80 3e 00
        E 0 80 4a 00
        E 0 80 56 00
        E 0 80 62 00
        E 420 90 18 60
        E 0 90 1f 60
        E 0 90 3e 60
        E 0 90 48 60
        E 0 90 4a 60
        E 0 90 54 60
        E 0 90 56 60
        E 0 90 60 60
        E 0 90 62 60
        E 58 80 18 00
        E 0 80 48 00
        E 0 80 54 00
        E 0 80 60 00
        E 2 80 1f 00
        E 0 80 3e 00
        E 0 80 4a 00
        E 0 80 56 00
        E 0 80 62 00
        E 420 90 1a 60
        E 0 90 1f 60
        E 0 90 3d 60
        E 0 90 3e 60
        E 0 90 49 60
        E 0 90 4a 60
        E 0 90 55 60
        E 0 90 56 60
        E 0 90 61 60
        E 0 90 62 60
        E 57 80 1a 00
        E 1 80 3d 00
        E 0 80 49 00
        E 0 80 55 00
        E 0 80 61 00
        E 2 80 1f 00
        E 0 80 3e 00
        E 0 80 4a 00
        E 0 80 56 00
        E 0 80 62 00
        E 420 90 18 60
        E 0 90 1f 60
        E 0 90 3e 60
        E 0 90 48 60
        E 0 90 4a 60
        E 0 90 54 60
        E 0 90 56 60
        E 0 90 60 60
        E 0 90 62 60
        E 58 80 18 00
        E 0 80 48 00
        E 0 80 54 00
        E 0 80 60 00
        E 2 80 1f 00
        E 0 80 3e 00
        E 0 80 4a 00
        E 0 80 56 00
        E 0 80 62 00
        E 420 90 1a 60
        E 0 90 1f 60
        E 0 90 3d 60
        E 0 90 3e 60
        E 0 90 49 60
        E 0 90 4a 60
        E 0 90 55 60
        E 0 90 56 60
        E 0 90 61 60
        E 0 90 62 60
        E 57 80 1a 00
        E 1 80 3d 00
        E 0 80 49 00
        E 0 80 55 00
        E 0 80 61 00
        E 2 80 1f 00
        E 0 80 3e 00
        E 0 80 4a 00
        E 0 80 56 00
        E 0 80 62 00
        E 180 90 18 60
        E 0 90 54 60
        E 0 90 60 60
        E 58 80 18 00
        E 0 80 54 00
        E 0 80 60 00
        E 182 90 1f 60
        E 0 90 3e 60
        E 0 90 4a 60
        E 0 90 56 60
        E 0 90 62 60
        E 60 80 1f 00
        E 0 80 3e 00
        E 0 80 4a 00
        E 0 80 56 00
        E 0 80 62 00
        E 180 90 18 60
        E 0 90 54 60
        E 0 90 60 60
        E 58 80 18 00
        E 0 80 54 00
        E 0 80 60 00
        E 182 90 1a 60
        E 0 90 1f 60
        E 0 90 3d 60
        E 0 90 3e 60
        E 0 90 49 60
        E 0 90 4a 60
        E 0 90 55 60
        E 0 90 56 60
        E 0 90 61 60
        E 0 90 62 60
        E 57 80 1a 00
        E 1 80 3d 00
        E 0 80 49 00
        E 0 80 55 00
        E 0 80 61 00
        E 2 80 1f 00
        E 0 80 3e 00
        E 0 80 4a 00
        E 0 80 56 00
        E 0 80 62 00
        E 420 90 18 60
        E 0 90 1f 60
        E 0 90 3e 60
        E 0 90 48 60
        E 0 90 4a 60
        E 0 90 54 60
        E 0 90 56 60
        E 0 90 60 60
        E 0 90 62 60
        E 58 80 18 00
        E 0 80 48 00
        E 0 80 54 00
        E 0 80 60 00
        E 2 80 1f 00
        E 0 80 3e 00
        E 0 80 4a 00
        E 0 80 56 00
        E 0 80 62 00
        E 180 90 18 60
        E 0 90 54 60
        E 0 90 60 60
        E 58 80 18 00
        E 0 80 54 00
        E 0 80 60 00
        E 182 90 1a 60
        E 0 90 1f 60
        E 0 90 3d 60
        E 0 90 3e 60
        E 0 90 49 60
        E 0 90 4a 60
        E 0 90 55 60
        E 0 90 56 60
        E 0 90 61 60
        E 0 90 62 60
        E 57 80 1a 00
        E 1 80 3d 00
        E 0 80 49 00
        E 0 80 55 00
        E 0 80 61 00
        E 2 80 1f 00
        E 0 80 3e 00
        E 0 80 4a 00
        E 0 80 56 00
        E 0 80 62 00
        E 420 90 18 60
        E 0 90 1f 60
        E 0 90 3e 60
        E 0 90 48 60
        E 0 90 4a 60
        E 0 90 54 60
        E 0 90 56 60
        E 0 90 60 60
        E 0 90 62 60
        E 58 80 18 00
        E 0 80 48 00
        E 0 80 54 00
        E 0 80 60 00
        E 2 80 1f 00
        E 0 80 3e 00
        E 0 80 4a 00
        E 0 80 56 00
        E 0 80 62 00
        E 420 90 1a 60
        E 0 90 1f 60
        E 0 90 3d 60
        E 0 90 3e 60
        E 0 90 49 60
        E 0 90 4a 60
        E 0 90 55 60
        E 0 90 56 60
        E 0 90 61 60
        E 0 90 62 60
        E 57 80 1a 00
        E 1 80 3d 00
        E 0 80 49 00
        E 0 80 55 00
        E 0 80 61 00
        E 2 80 1f 00
        E 0 80 3e 00
        E 0 80 4a 00
        E 0 80 56 00
        E 0 80 62 00
        E 420 90 18 60
        E 0 90 1f 60
        E 0 90 3e 60
        E 0 90 48 60
        E 0 90 4a 60
        E 0 90 54 60
        E 0 90 56 60
        E 0 90 60 60
        E 0 90 62 60
        E 0 90 78 60
        E 0 90 79 60
        E 0 90 7a 60
        E 0 90 7b 60
        E 0 90 7c 60
        E 58 80 18 00
        E 0 80 48 00
        E 0 80 54 00
        E 0 80 60 00
        E 2 80 1f 00
        E 0 80 3e 00
        E 0 80 4a 00
        E 0 80 56 00
        E 0 80 62 00
        E 420 90 1a 60
        E 0 90 1f 60
        E 0 90 3d 60
        E 0 90 3e 60
        E 0 90 49 60
        E 0 90 4a 60
        E 0 90 55 60
        E 0 90 56 60
        E 0 90 61 60
        E 0 90 62 60
        E 57 80 1a 00
        E 1 80 3d 00
        E 0 80 49 00
        E 0 80 55 00
        E 0 80 61 00
        E 2 80 1f 00
        E 0 80 3e 00
        E 0 80 4a 00
        E 0 80 56 00
        E 0 80 62 00
        E 180 90 18 60
        E 0 90 54 60
        E 0 90 60 60
        E 58 80 18 00
        E 0 80 54 00
        E 0 80 60 00
        E 182 90 1f 60
        E 0 90 3e 60
        E 0 90 4a 60
        E 0 90 56 60
        E 0 90 62 60
        E 60 80 1f 00
        E 0 80 3e 00
        E 0 80 4a 00
        E 0 80 56 00
        E 0 80 62 00
        E 180 90 18 60
        E 0 90 54 60
        E 0 90 60 60
        E 58 80 18 00
        E 0 80 54 00
        E 0 80 60 00
        E 182 90 1a 60
        E 0 90 1f 60
        E 0 90 3d 60
        E 0 90 3e 60
        E 0 90 49 60
        E 0 90 4a 60
        E 0 90 55 60
        E 0 90 56 60
        E 0 90 61 60
        E 0 90 62 60
        E 57 80 1a 00
        E 1 80 3d 00
        E 0 80 49 00
        E 0 80 55 00
        E 0 80 61 00
        E 2 80 1f 00
        E 0 80 3e 00
        E 0 80 4a 00
        E 0 80 56 00
        E 0 80 62 00
        E 420 80 78 00
        E 0 80 79 00
        E 0 80 7a 00
        E 0 80 7b 00
        E 0 80 7c 00
        E 0 90 18 60
        E 0 90 1f 60
        E 0 90 3e 60
        E 0 90 48 60
        E 0 90 4a 60
        E 0 90 54 60
        E 0 90 56 60
        E 0 90 60 60
        E 0 90 62 60
        E 0 90 74 60
        E 58 80 18 00
        E 0 80 48 00
        E 0 80 54 00
        E 0 80 60 00
        E 2 80 1f 00
        E 0 80 3e 00
        E 0 80 4a 00
        E 0 80 56 00
        E 0 80 62 00
        E 180 90 18 60
        E 0 90 54 60
        E 0 90 60 60
        E 58 80 18 00
        E 0 80 54 00
        E 0 80 60 00
        E 182 90 1a 60
        E 0 90 1f 60
        E 0 90 3d 60
        E 0 90 3e 60
        E 0 90 49 60
        E 0 90 4a 60
        E 0 90 55 60
        E 0 90 56 60
        E 0 90 61 60
        E 0 90 62 60
        E 57 80 1a 00
        E 1 80 3d 00
        E 0 80 49 00
        E 0 80 55 00
        E 0 80 61 00
        E 2 80 1f 00
        E 0 80 3e 00
        E 0 80 4a 00
        E 0 80 56 00
        E 0 80 62 00
        E 420 90 18 60
        E 0 90 1f 60
        E 0 90 3e 60
        E 0 90 48 60
        E 0 90 4a 60
        E 0 90 54 60
        E 0 90 56 60
        E 0 90 60 60
        E 0 90 62 60
        E 58 80 18 00
        E 0 80 48 00
        E 0 80 54 00
        E 0 80 60 00
        E 2 80 1f 00
        E 0 80 3e 00
        E 0 80 4a 00
        E 0 80 56 00
        E 0 80 62 00
        E 420 90 1a 60
        E 0 90 1f 60
        E 0 90 3d 60
        E 0 90 3e 60
        E 0 90 49 60
        E 0 90 4a 60
        E 0 90 55 60
        E 0 90 56 60
        E 0 90 61 60
        E 0 90 62 60
        E 57 80 1a 00
        E 1 80 3d 00
        E 0 80 49 00
        E 0 80 55 00
        E 0 80 61 00
        E 2 80 1f 00
        E 0 80 3e 00
        E 0 80 4a 00
        E 0 80 56 00
        E 0 80 62 00
        E 420 80 74 00
        E 0 90 18 60
        E 0 90 1f 60
        E 0 90 3e 60
        E 0 90 48 60
        E 0 90 4a 60
        E 0 90 54 60
        E 0 90 56 60
        E 0 90 60 60
        E 0 90 62 60
        E 58 80 18 00
        E 0 80 48 00
        E 0 80 54 00
        E 0 80 60 00
        E 2 80 1f 00
        E 0 80 3e 00
        E 0 80 4a 00
        E 0 80 56 00
        E 0 80 62 00
        E 420 90 1a 60
        E 0 90 1f 60
        E 0 90 3d 60
        E 0 90 3e 60
        E 0 90 49 60
        E 0 90 4a 60
        E 0 90 55 60
        E 0 90 56 60
        E 0 90 61 60
        E 0 90 62 60
        E 57 80 1a 00
        E 1 80 3d 00
        E 0 80 49 00
        E 0 80 55 00
        E 0 80 61 00
        E 2 80 1f 00
        E 0 80 3e 00
        E 0 80 4a 00
        E 0 80 56 00
        E 0 80 62 00
        E 180 90 18 60
        E 0 90 54 60
        E 0 90 60 60
        E 58 80 18 00
        E 0 80 54 00
        E 0 80 60 00
        E 182 90 1f 60
        E 0 90 3e 60
        E 0 90 4a 60
        E 0 90 56 60
        E 0 90 62 60
        E 60 80 1f 00
        E 0 80 3e 00
        E 0 80 4a 00
        E 0 80 56 00
        E 0 80 62 00
        E 180 90 18 60
        E 0 90 54 60
        E 0 90 60 60
        E 58 80 18 00
        E 0 80 54 00
        E 0 80 60 00
        E 182 90 1a 60
        E 0 90 1f 60
        E 0 90 3d 60
        E 0 90 3e 60
        E 0 90 49 60
        E 0 90 4a 60
        E 0 90 55 60
        E 0 90 56 60
        E 0 90 61 60
        E 0 90 62 60
        E 57 80 1a 00
        E 1 80 3d 00
        E 0 80 49 00
        E 0 80 55 00
        E 0 80 61 00
        E 2 80 1f 00
        E 0 80 3e 00
        E 0 80 4a 00
        E 0 80 56 00
        E 0 80 62 00
        E 420 90 18 60
        E 0 90 1f 60
        E 0 90 3e 60
        E 0 90 48 60
        E 0 90 4a 60
        E 0 90 54 60
        E 0 90 56 60
        E 0 90 60 60
        E 0 90 62 60
        E 58 80 18 00
        E 0 80 48 00
        E 0 80 54 00
        E 0 80 60 00
        E 2 80 1f 00
        E 0 80 3e 00
        E 0 80 4a 00
        E 0 80 56 00
        E 0 80 62 00
        E 180 90 18 60
        E 0 90 54 60
        E 0 90 60 60
        E 58 80 18 00
        E 0 80 54 00
        E 0 80 60 00
        E 182 90 1a 60
        E 0 90 1f 60
        E 0 90 3d 60
        E 0 90 3e 60
        E 0 90 49 60
        E 0 90 4a 60
        E 0 90 55 60
        E 0 90 56 60
        E 0 90 61 60
        E 0 90 62 60
        E 57 80 1a 00
        E 1 80 3d 00
        E 0 80 49 00
        E 0 80 55 00
        E 0 80 61 00
        E 2 80 1f 00
        E 0 80 3e 00
        E 0 80 4a 00
        E 0 80 56 00
        E 0 80 62 00
        E 420 90 18 60
        E 0 90 1f 60
        E 0 90 3e 60
        E 0 90 48 60
        E 0 90 4a 60
        E 0 90 54 60
        E 0 90 56 60
        E 0 90 60 60
        E 0 90 62 60
        E 58 80 18 00
        E 0 80 48 00
        E 0 80 54 00
        E 0 80 60 00
        E 2 80 1f 00
        E 0 80 3e 00
        E 0 80 4a 00
        E 0 80 56 00
        E 0 80 62 00
        E 420 90 1a 60
        E 0 90 1f 60
        E 0 90 3d 60
        E 0 90 3e 60
        E 0 90 49 60
        E 0 90 4a 60
        E 0 90 55 60
        E 0 90 56 60
        E 0 90 61 60
        E 0 90 62 60
        E 57 80 1a 00
        E 1 80 3d 00
        E 0 80 49 00
        E 0 80 55 00
        E 0 80 61 00
        E 2 80 1f 00
        E 0 80 3e 00
        E 0 80 4a 00
        E 0 80 56 00
        E 0 80 62 00
        E 420 90 18 60
        E 0 90 1f 60
        E 0 90 3e 60
        E 0 90 48 60
        E 0 90 4a 60
        E 0 90 54 60
        E 0 90 56 60
        E 0 90 60 60
        E 0 90 62 60
        E 0 90 78 60
        E 0 90 79 60
        E 0 90 7a 60
        E 0 90 7b 60
        E 0 90 7c 60
        E 58 80 18 00
        E 0 80 48 00
        E 0 80 54 00
        E 0 80 60 00
        E 2 80 1f 00
        E 0 80 3e 00
        E 0 80 4a 00
        E 0 80 56 00
        E 0 80 62 00
        E 420 90 1a 60
        E 0 90 1f 60
        E 0 90 3d 60
        E 0 90 3e 60
        E 0 90 49 60
        E 0 90 4a 60
        E 0 90 55 60
        E 0 90 56 60
        E 0 90 61 60
        E 0 90 62 60
        E 57 80 1a 00
        E 1 80 3d 00
        E 0 80 49 00
        E 0 80 55 00
        E 0 80 61 00
        E 2 80 1f 00
        E 0 80 3e 00
        E 0 80 4a 00
        E 0 80 56 00
        E 0 80 62 00
        E 180 90 18 60
        E 0 90 54 60
        E 0 90 60 60
        E 58 80 18 00
        E 0 80 54 00
        E 0 80 60 00
        E 182 90 1f 60
        E 0 90 3e 60
        E 0 90 4a 60
        E 0 90 56 60
        E 0 90 62 60
        E 60 80 1f 00
        E 0 80 3e 00
        E 0 80 4a 00
        E 0 80 56 00
        E 0 80 62 00
        E 180 90 18 60
        E 0 90 54 60
        E 0 90 60 60
        E 58 80 18 00
        E 0 80 54 00
        E 0 80 60 00
        E 182 90 1a 60
        E 0 90 1f 60
        E 0 90 3d 60
        E 0 90 3e 60
        E 0 90 49 60
        E 0 90 4a 60
        E 0 90 55 60
        E 0 90 56 60
        E 0 90 61 60
        E 0 90 62 60
        E 57 80 1a 00
        E 1 80 3d 00
        E 0 80 49 00
        E 0 80 55 00
        E 0 80 61 00
        E 2 80 1f 00
        E 0 80 3e 00
        E 0 80 4a 00
        E 0 80 56 00
        E 0 80 62 00
        E 420 80 78 00
        E 0 80 79 00
        E 0 80 7a 00
        E 0 80 7b 00
        E 0 80 7c 00
        E 0 90 18 60
        E 0 90 1f 60
        E 0 90 3e 60
        E 0 90 48 60
        E 0 90 4a 60
        E 0 90 54 60
        E 0 90 56 60
        E 0 90 60 60
        E 0 90 62 60
        E 58 80 18 00
        E 0 80 48 00
        E 0 80 54 00
        E 0 80 60 00
        E 2 80 1f 00
        E 0 80 3e 00
        E 0 80 4a 00
        E 0 80 56 00
        E 0 80 62 00
        E 180 90 18 60
        E 0 90 54 60
        E 0 90 60 60
        E 58 80 18 00
        E 0 80 54 00
        E 0 80 60 00
        E 182 90 1a 60
        E 0 90 1f 60
        E 0 90 3d 60
        E 0 90 3e 60
        E 0 90 49 60
        E 0 90 4a 60
        E 0 90 55 60
        E 0 90 56 60
        E 0 90 61 60
        E 0 90 62 60
        E 57 80 1a 00
        E 1 80 3d 00
        E 0 80 49 00
        E 0 80 55 00
        E 0 80 61 00
        E 2 80 1f 00
        E 0 80 3e 00
        E 0 80 4a 00
        E 0 80 56 00
        E 0 80 62 00
        E 420 90 18 60
        E 0 90 1f 60
        E 0 90 3e 60
        E 0 90 48 60
        E 0 90 4a 60
        E 0 90 54 60
        E 0 90 56 60
        E 0 90 60 60
        E 0 90 62 60
        E 58 80 18 00
        E 0 80 48 00
        E 0 80 54 00
        E 0 80 60 00
        E 2 80 1f 00
        E 0 80 3e 00
        E 0 80 4a 00
        E 0 80 56 00
        E 0 80 62 00
        E 420 90 1a 60
        E 0 90 1f 60
        E 0 90 3d 60
        E 0 90 3e 60
        E 0 90 49 60
        E 0 90 4a 60
        E 0 90 55 60
        E 0 90 56 60
        E 0 90 61 60
        E 0 90 62 60
        E 57 80 1a 00
        E 1 80 3d 00
        E 0 80 49 00
        E 0 80 55 00
        E 0 80 61 00
        E 2 80 1f 00
        E 0 80 3e 00
        E 0 80 4a 00
        E 0 80 56 00
        E 0 80 62 00
        E 420 90 18 60
        E 0 90 1f 60
        E 0 90 3e 60
        E 0 90 48 60
        E 0 90 4a 60
        E 0 90 54 60
        E 0 90 56 60
        E 0 90 60 60
        E 0 90 62 60
        E 58 80 18 00
        E 0 80 48 00
        E 0 80 54 00
        E 0 80 60 00
        E 2 80 1f 00
        E 0 80 3e 00
        E 0 80 4a 00
        E 0 80 56 00
        E 0 80 62 00
        E 420 90 1a 60
        E 0 90 1f 60
        E 0 90 3d 60
        E 0 90 3e 60
        E 0 90 49 60
        E 0 90 4a 60
        E 0 90 55 60
        E 0 90 56 60
        E 0 90 61 60
        E 0 90 62 60
        E 57 80 1a 00
        E 1 80 3d 00
        E 0 80 49 00
        E 0 80 55 00
        E 0 80 61 00
        E 2 80 1f 00
        E 0 80 3e 00
        E 0 80 4a 00
        E 0 80 56 00
        E 0 80 62 00
        E 180 90 18 60
        E 0 90 54 60
        E 0 90 60 60
        E 58 80 18 00
        E 0 80 54 00
        E 0 80 60 00
        E 182 90 1f 60
        E 0 90 3e 60
        E 0 90 4a 60
        E 0 90 56 60
        E 0 90 62 60
        E 60 80 1f 00
        E 0 80 3e 00
        E 0 80 4a 00
        E 0 80 56 00
        E 0 80 62 00
        E 180 90 18 60
        E 0 90 19 60
        E 0 90 1f 60
        E 0 90 54 60
        E 0 90 57 60
        E 0 90 60 60
        E 0 90 63 60
        E 58 80 18 00
        E 0 80 1f 00
        E 0 80 54 00
        E 0 80 57 00
        E 0 80 60 00
        E 0 80 63 00
        E 182 90 1a 60
        E 0 90 1f 60
        E 0 90 3d 60
        E 0 90 3e 60
        E 0 90 49 60
        E 0 90 4a 60
        E 0 90 55 60
        E 0 90 56 60
        E 0 90 61 60
        E 0 90 62 60
        E 26 80 19 00
        E 31 80 1a 00
        E 1 80 3d 00
        E 0 80 49 00
        E 0 80 55 00
        E 0 80 61 00
        E 2 80 1f 00
        E 0 80 3e 00
        E 0 80 4a 00
        E 0 80 56 00
        E 0 80 62 00
        E 420 90 18 60
        E 0 90 1f 60
        E 0 90 3e 60
        E 0 90 48 60
        E 0 90 4a 60
        E 0 90 54 60
        E 0 90 56 60
        E 0 90 60 60
        E 0 90 62 60
        E 58 80 18 00
        E 0 80 48 00
        E 0 80 54 00
        E 0 80 60 00
        E 2 80 1f 00
        E 0 80 3e 00
        E 0 80 4a 00
        E 0 80 56 00
        E 0 80 62 00
        E 180 90 18 60
        E 0 90 54 60
        E 0 90 60 60
        E 58 80 18 00
        E 0 80 54 00
        E 0 80 60 00
        E 182 90 1a 60
        E 0 90 1f 60
        E 0 90 3d 60
        E 0 90 3e 60
        E 0 90 49 60
        E 0 90 4a 60
        E 0 90 55 60
        E 0 90 56 60
        E 0 90 61 60
        E 0 90 62 60
        E 57 80 1a 00
        E 1 80 3d 00
        E 0 80 49 00
        E 0 80 55 00
        E 0 80 61 00
        E 2 80 1f 00
        E 0 80 3e 00
        E 0 80 4a 00
        E 0 80 56 00
        E 0 80 62 00
        E 420 90 18 60
        E 0 90 1f 60
        E 0 90 3e 60
        E 0 90 48 60
        E 0 90 4a 60
        E 0 90 54 60
        E 0 90 56 60
        E 0 90 60 60
        E 0 90 62 60
        E 58 80 18 00
        E 0 80 48 00
        E 0 80 54 00
        E 0 80 60 00
        E 2 80 1f 00
        E 0 80 3e 00
        E 0 80 4a 00
        E 0 80 56 00
        E 0 80 62 00
        E 420 90 1a 60
        E 0 90 1f 60
        E 0 90 3d 60
        E 0 90 3e 60
        E 0 90 49 60
        E 0 90 4a 60
        E 0 90 55 60
        E 0 90 56 60
        E 0 90 61 60
        E 0 90 62 60
        E 57 80 1a 00
        E 1 80 3d 00
        E 0 80 49 00
        E 0 80 55 00
        E 0 80 61 00
        E 2 80 1f 00
        E 0 80 3e 00
        E 0 80 4a 00
        E 0 80 56 00
        E 0 80 62 00
        E 420 90 18 60
        E 0 90 1f 60
        E 0 90 3e 60
        E 0 90 48 60
        E 0 90 4a 60
        E 0 90 54 60
        E 0 90 56 60
        E 0 90 60 60
        E 0 90 62 60
        E 0 90 78 60
        E 0 90 79 60
        E 0 90 7a 60
        E 0 90 7b 60
        E 0 90 7c 60
        E 58 80 18 00
        E 0 80 48 00
        E 0 80 54 00
        E 0 80 60 00
        E 2 80 1f 00
        E 0 80 3e 00
        E 0 80 4a 00
        E 0 80 56 00
        E 0 80 62 00
        E 180 90 2f 60
        E 0 90 56 60
        E 0 90 62 60
        E 0 90 6e 60
        E 60 80 2f 00
        E 0 80 56 00
        E 0 80 62 00
        E 180 90 1a 60
        E 0 90 2f 60
        E 0 90 3d 60
        E 0 90 3e 60
        E 0 90 49 60
        E 0 90 4a 60
        E 0 90 55 60
        E 0 90 56 60
        E 0 90 61 60
        E 0 90 62 60
        E 57 80 1a 00
        E 1 80 3d 00
        E 0 80 49 00
        E 0 80 55 00
        E 0 80 61 00
        E 2 80 6e 00
        E 0 80 2f 00
        E 0 80 3e 00
        E 0 80 4a 00
        E 0 80 56 00
        E 0 80 62 00
        E 180 90 18 60
        E 0 90 31 60
        E 0 90 54 60
        E 0 90 57 60
        E 0 90 60 60
        E 0 90 63 60
        E 0 90 6f 60
        E 58 80 18 00
        E 0 80 54 00
        E 0 80 60 00
        E 2 80 31 00
        E 0 80 57 00
        E 0 80 63 00
        E 180 90 31 60
        E 0 90 3f 60
        E 0 90 4b 60
        E 0 90 57 60
        E 0 90 63 60
        E 60 80 6f 00
        E 0 80 31 00
        E 0 80 3f 00
        E 0 80 4b 00
        E 0 80 57 00
        E 0 80 63 00
        E 180 90 18 60
        E 0 90 33 60
        E 0 90 54 60
        E 0 90 58 60
        E 0 90 60 60
        E 0 90 64 60
        E 0 90 70 60
        E 58 80 18 00
        E 0 80 54 00
        E 0 80 60 00
        E 2 80 33 00
        E 0 80 58 00
        E 0 80 64 00
        E 180 90 1a 60
        E 0 90 33 60
        E 0 90 3d 60
        E 0 90 40 60
        E 0 90 49 60
        E 0 90 4c 60
        E 0 90 55 60
        E 0 90 58 60
        E 0 90 61 60
        E 0 90 64 60
        E 57 80 1a 00
        E 1 80 3d 00
        E 0 80 49 00
        E 0 80 55 00
        E 0 80 61 00
        E 2 80 33 00
        E 0 80 40 00
        E 0 80 4c 00
        E 0 80 58 00
        E 0 80 64 00
        E 180 90 19 60
        E 0 90 1e 60
        E 0 90 33 60
        E 0 90 57 60
        E 0 90 58 60
        E 0 90 63 60
        E 0 90 64 60
        E 58 80 1e 00
        E 0 80 57 00
        E 0 80 63 00
        E 2 80 33 00
        E 0 80 58 00
        E 0 80 64 00
        E 60 80 70 00
        E 120 80 78 00
        E 0 80 79 00
        E 0 80 7a 00
        E 0 80 7b 00
        E 0 80 7c 00
        E 0 90 18 60
        E 0 90 1f 60
        E 0 90 3e 60
        E 0 90 48 60
        E 0 90 4a 60
        E 0 90 54 60
        E 0 90 56 60
        E 0 90 60 60
        E 0 90 62 60
        E 30 80 19 00
        E 28 80 18 00
        E 0 80 48 00
        E 0 80 54 00
        E 0 80 60 00
        E 2 80 1f 00
        E 0 80 3e 00
        E 0 80 4a 00
        E 0 80 56 00
        E 0 80 62 00
        E 180 90 18 60
        E 0 90 54 60
        E 0 90 60 60
        E 58 80 18 00
        E 0 80 54 00
        E 0 80 60 00
        E 182 90 1a 60
        E 0 90 1f 60
        E 0 90 3d 60
        E 0 90 3e 60
        E 0 90 49 60
        E 0 90 4a 60
        E 0 90 55 60
        E 0 90 56 60
        E 0 90 61 60
        E 0 90 62 60
        E 57 80 1a 00
        E 1 80 3d 00
        E 0 80 49 00
        E 0 80 55 00
        E 0 80 61 00
        E 2 80 1f 00
        E 0 80 3e 00
        E 0 80 4a 00
        E 0 80 56 00
        E 0 80 62 00
        E 420 90 18 60
        E 0 90 1f 60
        E 0 90 3e 60
        E 0 90 48 60
        E 0 90 4a 60
        E 0 90 54 60
        E 0 90 56 60
        E 0 90 60 60
        E 0 90 62 60
        E 58 80 18 00
        E 0 80 48 00
        E 0 80 54 00
        E 0 80 60 00
        E 2 80 1f 00
        E 0 80 3e 00
        E 0 80 4a 00
        E 0 80 56 00
        E 0 80 62 00
        E 420 90 1a 60
        E 0 90 1f 60
        E 0 90 3d 60
        E 0 90 3e 60
        E 0 90 49 60
        E 0 90 4a 60
        E 0 90 55 60
        E 0 90 56 60
        E 0 90 61 60
        E 0 90 62 60
        E 57 80 1a 00
        E 1 80 3d 00
        E 0 80 49 00
        E 0 80 55 00
        E 0 80 61 00
        E 2 80 1f 00
        E 0 80 3e 00
        E 0 80 4a 00
        E 0 80 56 00
        E 0 80 62 00
        E 420 90 18 60
        E 0 90 1f 60
        E 0 90 3e 60
        E 0 90 48 60
        E 0 90 4a 60
        E 0 90 54 60
        E 0 90 56 60
        E 0 90 60 60
        E 0 90 62 60
        E 58 80 18 00
        E 0 80 48 00
        E 0 80 54 00
        E 0 80 60 00
        E 2 80 1f 00
        E 0 80 3e 00
        E 0 80 4a 00
        E 0 80 56 00
        E 0 80 62 00
        E 420 90 1a 60
        E 0 90 1f 60
        E 0 90 3d 60
        E 0 90 3e 60
        E 0 90 49 60
        E 0 90 4a 60
        E 0 90 55 60
        E 0 90 56 60
        E 0 90 61 60
        E 0 90 62 60
        E 57 80 1a 00
        E 1 80 3d 00
        E 0 80 49 00
        E 0 80 55 00
        E 0 80 61 00
        E 2 80 1f 00
        E 0 80 3e 00
        E 0 80 4a 00
        E 0 80 56 00
        E 0 80 62 00
        E 180 90 18 60
        E 0 90 54 60
        E 0 90 60 60
        E 58 80 18 00
        E 0 80 54 00
        E 0 80 60 00
        E 182 90 1f 60
        E 0 90 3e 60
        E 0 90 4a 60
        E 0 90 56 60
        E 0 90 62 60
        E 60 80 1f 00
        E 0 80 3e 00
        E 0 80 4a 00
        E 0 80 56 00
        E 0 80 62 00
        E 180 90 18 60
        E 0 90 54 60
        E 0 90 60 60
        E 58 80 18 00
        E 0 80 54 00
        E 0 80 60 00
        E 182 90 1a 60
        E 0 90 1f 60
        E 0 90 3d 60
        E 0 90 3e 60
        E 0 90 49 60
        E 0 90 4a 60
        E 0 90 55 60
        E 0 90 56 60
        E 0 90 61 60
        E 0 90 62 60
        E 57 80 1a 00
        E 1 80 3d 00
        E 0 80 49 00
        E 0 80 55 00
        E 0 80 61 00
        E 2 80 1f 00
        E 0 80 3e 00
        E 0 80 4a 00
        E 0 80 56 00
        E 0 80 62 00
        E 420 90 18 60
        E 0 90 1f 60
        E 0 90 3e 60
        E 0 90 48 60
        E 0 90 4a 60
        E 0 90 54 60
        E 0 90 56 60
        E 0 90 60 60
        E 0 90 62 60
        E 58 80 18 00
        E 0 80 48 00
        E 0 80 54 00
        E 0 80 60 00
        E 2 80 1f 00
        E 0 80 3e 00
        E 0 80 4a 00
        E 0 80 56 00
        E 0 80 62 00
        E 180 90 18 60
        E 0 90 54 60
        E 0 90 60 60
        E 58 80 18 00
        E 0 80 54 00
        E 0 80 60 00
        E 182 90 1a 60
        E 0 90 1f 60
        E 0 90 3d 60
        E 0 90 3e 60
        E 0 90 49 60
        E 0 90 4a 60
        E 0 90 55 60
        E 0 90 56 60
        E 0 90 61 60
        E 0 90 62 60
        E 57 80 1a 00
        E 1 80 3d 00
        E 0 80 49 00
        E 0 80 55 00
        E 0 80 61 00
        E 2 80 1f 00
        E 0 80 3e 00
        E 0 80 4a 00
        E 0 80 56 00
        E 0 80 62 00
        E 420 90 18 60
        E 0 90 1f 60
        E 0 90 3e 60
        E 0 90 48 60
        E 0 90 4a 60
        E 0 90 54 60
        E 0 90 56 60
        E 0 90 60 60
        E 0 90 62 60
        E 58 80 18 00
        E 0 80 48 00
        E 0 80 54 00
        E 0 80 60 00
        E 2 80 1f 00
        E 0 80 3e 00
        E 0 80 4a 00
        E 0 80 56 00
        E 0 80 62 00
        E 420 90 1a 60
        E 0 90 1f 60
        E 0 90 3d 60
        E 0 90 3e 60
        E 0 90 49 60
        E 0 90 4a 60
        E 0 90 55 60
        E 0 90 56 60
        E 0 90 61 60
        E 0 90 62 60
        E 57 80 1a 00
        E 1 80 3d 00
        E 0 80 49 00
        E 0 80 55 00
        E 0 80 61 00
        E 2 80 1f 00
        E 0 80 3e 00
        E 0 80 4a 00
        E 0 80 56 00
        E 0 80 62 00
        E 420 90 1f 60
        E 0 90 3e 60
        E 0 90 4a 60
        E 0 90 56 60
        E 0 90 62 60
        E 60 80 1f 00
        E 0 80 3e 00
        E 0 80 4a 00
        E 0 80 56 00
        E 0 80 62 00
        E 180 90 18 60
        E 0 90 54 60
        E 0 90 60 60
        E 58 80 18 00
        E 0 80 54 00
        E 0 80 60 00
        E 182 90 1a 60
        E 0 90 2f 60
        E 0 90 3d 60
        E 0 90 3e 60
        E 0 90 49 60
        E 0 90 4a 60
        E 0 90 55 60
        E 0 90 56 60
        E 0 90 61 60
        E 0 90 62 60
        E 0 90 6e 60
        E 57 80 1a 00
        E 1 80 3d 00
        E 0 80 49 00
        E 0 80 55 00
        E 0 80 61 00
        E 2 80 2f 00
        E 0 80 3e 00
        E 0 80 4a 00
        E 0 80 56 00
        E 0 80 62 00
        E 60 90 2e 60
        E 0 90 62 60
        E 60 80 6e 00
        E 0 80 2e 00
        E 0 80 62 00
        E 60 90 31 60
        E 0 90 57 60
        E 0 90 63 60
        E 0 90 6f 60
        E 60 80 31 00
        E 0 80 57 00
        E 0 80 63 00
        E 180 90 18 60
        E 0 90 3c 60
        E 0 90 48 60
        E 0 90 54 60
        E 0 90 60 60
        E 58 80 18 00
        E 0 80 3c 00
        E 0 80 48 00
        E 0 80 54 00
        E 0 80 60 00
        E 182 90 1a 60
        E 0 90 31 60
        E 0 90 55 60
        E 0 90 57 60
        E 0 90 61 60
        E 0 90 63 60
        E 57 80 1a 00
        E 1 80 55 00
        E 0 80 61 00
        E 2 80 31 00
        E 0 80 57 00
        E 0 80 63 00
        E 60 90 30 60
        E 0 90 63 60
        E 60 80 6f 00
        E 0 80 30 00
        E 0 80 63 00
        E 60 90 33 60
        E 0 90 40 60
        E 0 90 4c 60
        E 0 90 58 60
        E 0 90 64 60
        E 0 90 70 60
        E 60 80 33 00
        E 0 80 40 00
        E 0 80 4c 00
        E 0 80 58 00
        E 0 80 64 00
        E 420 90 18 60
        E 0 90 1a 60
        E 0 90 33 60
        E 0 90 3d 60
        E 0 90 40 60
        E 0 90 49 60
        E 0 90 4c 60
        E 0 90 54 60
        E 0 90 55 60
        E 0 90 58 60
        E 0 90 60 60
        E 0 90 61 60
        E 0 90 64 60
        E 57 80 1a 00
        E 1 80 18 00
        E 0 80 3d 00
        E 0 80 49 00
        E 0 80 54 00
        E 0 80 55 00
        E 0 80 60 00
        E 0 80 61 00
        E 2 80 70 00
        E 0 80 33 00
        E 0 80 40 00
        E 0 80 4c 00
        E 0 80 58 00
        E 0 80 64 00
        <X 60 0
          /wFbaWRsZV9yZWFsdGltZV0=
        >
        E 5639 b0 7b 00
        GUID {81BF7A9D-0B8D-4CCA-B108-D1455DA9C97C}
        IGNTEMPO 0 120.00000000 4 4
        SRCCOLOR 180
        VELLANE 131 128 60
        COLORMAP "C:\Program Files\REAPER (x64)\Data\color_maps\rockband_guitarbass.png"
        CFGEDITVIEW -12077.066673 8.462323 0 12 0 0 0
        CFGEDIT 1 1 0 1 1 0 1 1 1 1 1 0.25000000 -8 -8 1544 872 0 2 1 1 0.00000000 0 1 0 0 0.500000 0 0 1.000000 64
        KEYSNAP 0 6 "102030050700" 0 "Pentatonic"
        EVTFILTER 0 -1 -1 -1 -1 0 1 0 0 -1.00000000 -1.00000000
      >
    >
  >
  <TRACK '{B4EDCA9D-CA37-44D3-B263-04992CB6767D}'
    NAME "kick"
    PEAKCOL 16576
    BEAT -1
    AUTOMODE 0
    VOLPAN 1.00000000000000 0.00000000000000 -1.00000000000000 -1.00000000000000 1.00000000000000
    MUTESOLO 0 0 0
    IPHASE 0
    ISBUS 0 0
    BUSCOMP 0 0
    SHOWINMIX 1 0.666700 0.500000 1 0.500000 -1 -1 -1
    FREEMODE 0
    SEL 0
    REC 0 0 0 0 0 0 0
    VU 2
    TRACKHEIGHT 0 0
    INQ 0 0 0 0.5000000000 100 0 0 100
    NCHAN 2
    FX 1
    TRACKID {B4EDCA9D-CA37-44D3-B263-04992CB6767D}
    PERF 0
    MIDIOUT -1
    MAINSEND 1 0
    <ITEM
      POSITION 0.00000000000000
      SNAPOFFS 0.00000000000000
      LENGTH 128.91399999999999
      LOOP 0
      ALLTAKES 0
      SEL 0
      FADEIN 1 0.000000 0.000000 1 0
      FADEOUT 1 0.000000 0.000000 1 0
      MUTE 0
      IGUID {556B572C-C86D-4BFC-BDC8-71FEC1C6D32C}
      IID 19
      NAME "kick.wav"
      VOLPAN 1.000000 0.000000 1.000000 -1.000000
      SOFFS 0.00000000000000
      PLAYRATE 1.00000000000000 1 0.00000000000000 -1
      CHANMODE 0
      GUID {AABA0F3E-096F-4314-8F06-8F79F027FABE}
      <SOURCE WAVE
        FILE "C:\Users\Ruggery\Documents\Visual Studio Code\Projects\ruggy-customs-projects\songs\passport\wav\kick.wav"
      >
    >
  >
  <TRACK '{2D24330A-D41E-4FCB-AE6B-92261D295E2E}'
    NAME "snare"
    PEAKCOL 16576
    BEAT -1
    AUTOMODE 0
    VOLPAN 1.00000000000000 0.00000000000000 -1.00000000000000 -1.00000000000000 1.00000000000000
    MUTESOLO 0 0 0
    IPHASE 0
    ISBUS 0 0
    BUSCOMP 0 0
    SHOWINMIX 1 0.666700 0.500000 1 0.500000 -1 -1 -1
    FREEMODE 0
    SEL 0
    REC 0 0 0 0 0 0 0
    VU 2
    TRACKHEIGHT 0 0
    INQ 0 0 0 0.5000000000 100 0 0 100
    NCHAN 2
    FX 1
    TRACKID {2D24330A-D41E-4FCB-AE6B-92261D295E2E}
    PERF 0
    MIDIOUT -1
    MAINSEND 1 0
    <ITEM
      POSITION 0.00000000000000
      SNAPOFFS 0.00000000000000
      LENGTH 128.91399999999999
      LOOP 0
      ALLTAKES 0
      SEL 0
      FADEIN 1 0.000000 0.000000 1 0
      FADEOUT 1 0.000000 0.000000 1 0
      MUTE 0
      IGUID {56C24F28-D64E-4313-8DE8-0EED5754799F}
      IID 21
      NAME "snare.wav"
      VOLPAN 1.000000 0.000000 1.000000 -1.000000
      SOFFS 0.00000000000000
      PLAYRATE 1.00000000000000 1 0.00000000000000 -1
      CHANMODE 0
      GUID {86F82FEA-05F7-4CCE-9C30-6CB1767EAA78}
      <SOURCE WAVE
        FILE "C:\Users\Ruggery\Documents\Visual Studio Code\Projects\ruggy-customs-projects\songs\passport\wav\snare.wav"
      >
    >
  >
  <TRACK '{994E08C1-DB3D-460E-9869-9C6F0B67D38B}'
    NAME "kit"
    PEAKCOL 16576
    BEAT -1
    AUTOMODE 0
    VOLPAN 1.00000000000000 0.00000000000000 -1.00000000000000 -1.00000000000000 1.00000000000000
    MUTESOLO 0 0 0
    IPHASE 0
    ISBUS 2 -1
    BUSCOMP 0 0
    SHOWINMIX 1 0.666700 0.500000 1 0.500000 -1 -1 -1
    FREEMODE 0
    SEL 0
    REC 0 0 0 0 0 0 0
    VU 2
    TRACKHEIGHT 0 0
    INQ 0 0 0 0.5000000000 100 0 0 100
    NCHAN 2
    FX 1
    TRACKID {994E08C1-DB3D-460E-9869-9C6F0B67D38B}
    PERF 0
    MIDIOUT -1
    MAINSEND 1 0
    <ITEM
      POSITION 0.00000000000000
      SNAPOFFS 0.00000000000000
      LENGTH 128.91399999999999
      LOOP 0
      ALLTAKES 0
      SEL 0
      FADEIN 1 0.000000 0.000000 1 0
      FADEOUT 1 0.000000 0.000000 1 0
      MUTE 0
      IGUID {63062CA4-4324-47AB-BC72-9691191C18B7}
      IID 20
      NAME "kit.wav"
      VOLPAN 1.000000 0.000000 1.000000 -1.000000
      SOFFS 0.00000000000000
      PLAYRATE 1.00000000000000 1 0.00000000000000 -1
      CHANMODE 0
      GUID {F4A686BF-8C27-457F-B2C6-37AF1854D1BC}
      <SOURCE WAVE
        FILE "C:\Users\Ruggery\Documents\Visual Studio Code\Projects\ruggy-customs-projects\songs\passport\wav\kit.wav"
      >
    >
  >
  <TRACK '{09E46C7A-5133-4ED0-B1E3-9334B99CE812}'
    NAME "PART BASS"
    PEAKCOL 16576
    BEAT -1
    AUTOMODE 0
    VOLPAN 1.00000000000000 0.00000000000000 -1.00000000000000 -1.00000000000000 1.00000000000000
    MUTESOLO 0 0 0
    IPHASE 0
    ISBUS 1 1
    BUSCOMP 0 0
    SHOWINMIX 1 0.666700 0.500000 1 0.500000 -1 -1 -1
    FREEMODE 0
    SEL 0
    REC 0 0 0 0 0 0 0
    VU 2
    TRACKHEIGHT 0 0
    INQ 0 0 0 0.5000000000 100 0 0 100
    NCHAN 2
    FX 1
    TRACKID {09E46C7A-5133-4ED0-B1E3-9334B99CE812}
    PERF 0
    MIDIOUT -1
    <MIDINOTENAMES
      0 127 "TRILL MARKER"
      0 126 "TREMOLO MARKER"
      0 125 "---"
      0 124 "BRE"
      0 123 "BRE"
      0 122 "BRE"
      0 121 "BRE"
      0 120 "BRE (use all 5)"
      0 119 "----"
      0 116 "OVERDRIVE"
      0 115 "----"
      0 103 "Solo Marker"
      0 102 "Force HOPO Off"
      0 101 "Force HOPO On"
      0 100 "EXPERT Orange"
      0 99 "EXPERT Blue"
      0 98 "EXPERT Yellow"
      0 97 "EXPERT Red"
      0 96 "EXPERT Green"
      0 95 "----"
      0 90 "Force HOPO Off"
      0 89 "Force HOPO On"
      0 88 "HARD Orange"
      0 87 "HARD Blue"
      0 86 "HARD Yellow"
      0 85 "HARD Red"
      0 84 "HARD Green"
      0 77 "----"
      0 76 "MEDIUM Orange"
      0 75 "MEDIUM Blue"
      0 74 "MEDIUM Yellow"
      0 73 "MEDIUM Red"
      0 72 "MEDIUM Green"
      0 65 "----"
      0 64 "EASY Orange"
      0 63 "EASY Blue"
      0 62 "EASY Yellow"
      0 61 "EASY Red"
      0 60 "EASY Green"
      0 59 "Fret 12"
      0 57 "Fret 11"
      0 56 "Fret 10"
      0 55 "Fret 9"
      0 53 "Fret 8"
      0 52 "Fret 7"
      0 50 "Fret 6"
      0 49 "Fret 5"
      0 47 "Fret 4"
      0 45 "Fret 3"
      0 43 "Fret 2"
      0 40 "Fret 1"
    >
    MAINSEND 1 0
    <FXCHAIN
      WNDRECT 0 43 891 559
      SHOW 0
      LASTSEL 0
      DOCKED 0
      BYPASS 0 0
      <VST "VSTi: RBN Preview (RBN)" "rbprev_vst64.dll" 0 ""
        dnBicu5e7f4AAAAAAgAAAAEAAAAAAAAAAgAAAAAAAAAEAAAAAQAAAA==
        AAAQAAMAqgAAABAAAAA=
      >
      FLOATPOS 0 0 0 0
      FXID {3BEBC429-D15E-4F2A-9A14-CC7C10BD439A}
      WAK 0
    >
    <ITEM
      POSITION 0.00000000000000
      SNAPOFFS 0.00000000000000
      LENGTH 128.91399999999999
      LOOP 0
      ALLTAKES 0
      SEL 0
      FADEIN 1 0.000000 0.000000 1 0
      FADEOUT 1 0.000000 0.000000 1 0
      MUTE 0
      IGUID {3CC69403-1055-4600-9B5D-9DAD9CCF6756}
      IID 2
      NAME "PART BASS"
      VOLPAN 1.000000 0.000000 1.000000 -1.000000
      SOFFS 0.00000000000000 0.00000000000000
      PLAYRATE 1.00000000000000 1 0.00000000000000 -1
      CHANMODE 0
      GUID {94C11F57-FE97-44E7-B54E-6BBD2A734212}
      <SOURCE MIDI
        HASDATA 1 480 QN
        POOLEDEVTS {5052B801-D5B8-418E-A3BC-60609287E31E}
        <X 0 0
          /wNQQVJUIEJBU1M=
        >
        E 5280 90 28 60
        <X 480 0
          /wFbcGxheV0=
        >
        <X 0 0
          /wFbbWFwIFN0cnVtTWFwX1NsYXBCYXNzXQ==
        >
        E 0 90 3e 60
        E 0 90 4b 60
        E 0 90 58 60
        E 0 90 64 60
        E 120 80 3e 00
        E 0 80 4b 00
        E 0 80 58 00
        E 360 80 64 00
        E 240 90 4b 60
        E 0 90 58 60
        E 0 90 64 60
        E 120 80 4b 00
        E 0 80 58 00
        E 0 80 64 00
        E 360 90 55 60
        E 0 90 61 60
        E 120 80 55 00
        E 0 80 61 00
        E 120 90 3d 60
        E 0 90 4a 60
        E 0 90 57 60
        E 0 90 63 60
        E 960 80 3d 00
        E 0 80 4a 00
        E 0 80 57 00
        E 0 80 63 00
        E 240 90 57 60
        E 0 90 63 60
        E 120 80 57 00
        E 0 80 63 00
        E 120 90 3c 60
        E 0 90 48 60
        E 0 90 54 60
        E 0 90 60 60
        E 120 80 3c 00
        E 0 80 48 00
        E 0 80 54 00
        E 0 80 60 00
        E 360 90 49 60
        E 0 90 55 60
        E 0 90 61 60
        E 120 80 49 00
        E 0 80 55 00
        E 0 80 61 00
        E 360 90 3e 60
        E 0 90 4b 60
        E 0 90 58 60
        E 0 90 64 60
        E 120 80 3e 00
        E 0 80 4b 00
        E 0 80 58 00
        E 360 80 64 00
        E 240 90 4b 60
        E 0 90 58 60
        E 0 90 64 60
        E 120 80 4b 00
        E 0 80 58 00
        E 0 80 64 00
        E 840 90 3c 60
        E 0 90 48 60
        E 0 90 54 60
        E 0 90 60 60
        E 120 80 3c 00
        E 0 80 48 00
        E 0 80 54 00
        E 0 80 60 00
        E 360 90 54 60
        E 0 90 60 60
        E 120 80 54 00
        E 0 80 60 00
        E 120 90 49 60
        E 0 90 55 60
        E 0 90 61 60
        E 120 80 49 00
        E 0 80 55 00
        E 0 80 61 00
        E 360 90 3d 60
        E 0 90 4a 60
        E 0 90 56 60
        E 0 90 62 60
        E 120 80 3d 00
        E 0 80 4a 00
        E 0 80 56 00
        E 0 80 62 00
        E 600 90 55 60
        E 0 90 60 60
        E 120 80 55 00
        E 0 80 60 00
        E 120 90 3e 60
        E 0 90 4b 60
        E 0 90 58 60
        E 0 90 64 60
        E 120 80 3e 00
        E 0 80 4b 00
        E 0 80 58 00
        E 360 80 64 00
        E 240 90 4b 60
        E 0 90 58 60
        E 0 90 64 60
        E 120 80 4b 00
        E 0 80 58 00
        E 0 80 64 00
        E 360 90 55 60
        E 0 90 61 60
        E 120 80 55 00
        E 0 80 61 00
        E 120 90 3d 60
        E 0 90 4a 60
        E 0 90 57 60
        E 0 90 63 60
        E 960 80 3d 00
        E 0 80 4a 00
        E 0 80 57 00
        E 0 80 63 00
        E 240 90 57 60
        E 0 90 63 60
        E 120 80 57 00
        E 0 80 63 00
        E 120 90 3c 60
        E 0 90 48 60
        E 0 90 54 60
        E 0 90 60 60
        E 120 80 3c 00
        E 0 80 48 00
        E 0 80 54 00
        E 0 80 60 00
        E 360 90 49 60
        E 0 90 55 60
        E 0 90 61 60
        E 120 80 49 00
        E 0 80 55 00
        E 0 80 61 00
        E 360 90 3e 60
        E 0 90 4b 60
        E 0 90 58 60
        E 0 90 64 60
        E 120 80 3e 00
        E 0 80 4b 00
        E 0 80 58 00
        E 360 80 64 00
        E 240 90 4b 60
        E 0 90 58 60
        E 0 90 64 60
        E 120 80 4b 00
        E 0 80 58 00
        E 0 80 64 00
        E 781 80 28 00
        E 59 90 2d 60
        E 0 90 3c 60
        E 0 90 48 60
        E 0 90 54 60
        E 0 90 60 60
        E 120 80 3c 00
        E 0 80 48 00
        E 0 80 54 00
        E 0 80 60 00
        E 360 90 64 60
        E 120 80 64 00
        E 120 90 49 60
        E 0 90 55 60
        E 0 90 61 60
        E 120 80 49 00
        E 0 80 55 00
        E 0 80 61 00
        E 120 90 64 60
        E 120 80 64 00
        E 61 80 2d 00
        E 59 90 28 60
        E 0 90 3d 60
        E 0 90 4a 60
        E 0 90 56 60
        E 0 90 62 60
        E 120 80 3d 00
        E 0 80 4a 00
        E 0 80 56 00
        E 0 80 62 00
        E 61 80 28 00
        E 59 90 2d 60
        E 0 90 64 60
        E 120 80 64 00
        E 301 80 2d 00
        E 59 90 28 60
        E 0 90 55 60
        E 0 90 60 60
        E 120 80 55 00
        E 0 80 60 00
        E 120 90 3e 60
        E 0 90 4b 60
        E 0 90 58 60
        E 0 90 64 60
        E 0 90 74 60
        E 120 80 3e 00
        E 0 80 4b 00
        E 0 80 58 00
        E 360 80 64 00
        E 240 90 4b 60
        E 0 90 58 60
        E 0 90 64 60
        E 120 80 4b 00
        E 0 80 58 00
        E 0 80 64 00
        E 360 90 55 60
        E 0 90 61 60
        E 120 80 55 00
        E 0 80 61 00
        E 120 90 3d 60
        E 0 90 4a 60
        E 0 90 57 60
        E 0 90 63 60
        E 960 80 3d 00
        E 0 80 4a 00
        E 0 80 57 00
        E 0 80 63 00
        E 240 90 57 60
        E 0 90 63 60
        E 120 80 57 00
        E 0 80 63 00
        E 120 90 3c 60
        E 0 90 48 60
        E 0 90 54 60
        E 0 90 60 60
        E 120 80 3c 00
        E 0 80 48 00
        E 0 80 54 00
        E 0 80 60 00
        E 360 90 49 60
        E 0 90 55 60
        E 0 90 61 60
        E 120 80 49 00
        E 0 80 55 00
        E 0 80 61 00
        E 360 80 74 00
        E 0 90 3e 60
        E 0 90 4b 60
        E 0 90 58 60
        E 0 90 64 60
        E 120 80 3e 00
        E 0 80 4b 00
        E 0 80 58 00
        E 360 80 64 00
        E 240 90 4b 60
        E 0 90 58 60
        E 0 90 64 60
        E 120 80 4b 00
        E 0 80 58 00
        E 0 80 64 00
        E 781 80 28 00
        E 59 90 2d 60
        E 0 90 3c 60
        E 0 90 48 60
        E 0 90 54 60
        E 0 90 60 60
        E 120 80 3c 00
        E 0 80 48 00
        E 0 80 54 00
        E 0 80 60 00
        E 360 90 54 60
        E 0 90 60 60
        E 120 80 54 00
        E 0 80 60 00
        E 0 90 64 60
        E 61 80 2d 00
        E 59 80 64 00
        E 0 90 28 60
        E 0 90 49 60
        E 0 90 55 60
        E 120 80 49 00
        E 0 80 55 00
        E 120 90 61 60
        E 120 80 61 00
        E 120 90 3d 60
        E 0 90 4a 60
        E 0 90 56 60
        E 0 90 62 60
        E 120 80 3d 00
        E 0 80 4a 00
        E 0 80 56 00
        E 0 80 62 00
        E 600 90 55 60
        E 0 90 60 60
        E 120 80 55 00
        E 0 80 60 00
        E 120 90 3e 60
        E 0 90 4b 60
        E 0 90 58 60
        E 0 90 64 60
        E 120 80 3e 00
        E 0 80 4b 00
        E 0 80 58 00
        E 360 80 64 00
        E 240 90 4b 60
        E 0 90 58 60
        E 0 90 64 60
        E 120 80 4b 00
        E 0 80 58 00
        E 0 80 64 00
        E 360 90 55 60
        E 0 90 61 60
        E 120 80 55 00
        E 0 80 61 00
        E 120 90 3d 60
        E 0 90 4a 60
        E 0 90 57 60
        E 0 90 63 60
        E 960 80 3d 00
        E 0 80 4a 00
        E 0 80 57 00
        E 0 80 63 00
        E 240 90 57 60
        E 0 90 63 60
        E 120 80 57 00
        E 0 80 63 00
        E 120 90 3c 60
        E 0 90 48 60
        E 0 90 54 60
        E 0 90 60 60
        E 120 80 3c 00
        E 0 80 48 00
        E 0 80 54 00
        E 0 80 60 00
        E 360 90 49 60
        E 0 90 55 60
        E 0 90 61 60
        E 120 80 49 00
        E 0 80 55 00
        E 0 80 61 00
        E 360 90 3e 60
        E 0 90 4b 60
        E 0 90 58 60
        E 0 90 64 60
        E 120 80 3e 00
        E 0 80 4b 00
        E 0 80 58 00
        E 360 80 64 00
        E 240 90 4b 60
        E 0 90 58 60
        E 0 90 64 60
        E 120 80 4b 00
        E 0 80 58 00
        E 0 80 64 00
        E 781 80 28 00
        E 59 90 2d 60
        E 0 90 3c 60
        E 0 90 48 60
        E 0 90 54 60
        E 0 90 60 60
        E 120 80 3c 00
        E 0 80 48 00
        E 0 80 54 00
        E 0 80 60 00
        E 360 90 64 60
        E 120 80 64 00
        E 120 90 49 60
        E 0 90 55 60
        E 0 90 61 60
        E 120 80 49 00
        E 0 80 55 00
        E 0 80 61 00
        E 120 90 64 60
        E 120 80 64 00
        E 61 80 2d 00
        E 59 90 28 60
        E 0 90 3d 60
        E 0 90 4a 60
        E 0 90 56 60
        E 0 90 62 60
        E 120 80 3d 00
        E 0 80 4a 00
        E 0 80 56 00
        E 0 80 62 00
        E 61 80 28 00
        E 59 90 2d 60
        E 0 90 64 60
        E 120 80 64 00
        E 301 80 2d 00
        E 59 90 28 60
        E 0 90 55 60
        E 0 90 60 60
        E 120 80 55 00
        E 0 80 60 00
        E 120 90 3e 60
        E 0 90 4b 60
        E 0 90 58 60
        E 0 90 64 60
        E 0 90 74 60
        E 120 80 3e 00
        E 0 80 4b 00
        E 0 80 58 00
        E 360 80 64 00
        E 240 90 4b 60
        E 0 90 58 60
        E 0 90 64 60
        E 120 80 4b 00
        E 0 80 58 00
        E 0 80 64 00
        E 360 90 55 60
        E 0 90 61 60
        E 120 80 55 00
        E 0 80 61 00
        E 120 90 3d 60
        E 0 90 4a 60
        E 0 90 57 60
        E 0 90 63 60
        E 960 80 3d 00
        E 0 80 4a 00
        E 0 80 57 00
        E 0 80 63 00
        E 240 90 57 60
        E 0 90 63 60
        E 120 80 57 00
        E 0 80 63 00
        E 120 90 3c 60
        E 0 90 48 60
        E 0 90 54 60
        E 0 90 60 60
        E 120 80 3c 00
        E 0 80 48 00
        E 0 80 54 00
        E 0 80 60 00
        E 360 90 49 60
        E 0 90 55 60
        E 0 90 61 60
        E 120 80 49 00
        E 0 80 55 00
        E 0 80 61 00
        E 360 80 74 00
        E 0 90 3e 60
        E 0 90 4b 60
        E 0 90 58 60
        E 0 90 64 60
        E 120 80 3e 00
        E 0 80 4b 00
        E 0 80 58 00
        E 360 80 64 00
        E 240 90 4b 60
        E 0 90 58 60
        E 0 90 64 60
        E 600 80 4b 00
        E 120 80 58 00
        E 120 80 64 00
        E 61 80 28 00
        E 59 90 2d 60
        E 0 90 3c 60
        E 0 90 48 60
        E 0 90 54 60
        E 0 90 60 60
        E 120 80 3c 00
        E 0 80 48 00
        E 0 80 54 00
        E 0 80 60 00
        E 360 90 64 60
        E 120 80 64 00
        E 120 90 49 60
        E 0 90 55 60
        E 0 90 61 60
        E 120 80 49 00
        E 0 80 55 00
        E 0 80 61 00
        E 120 90 64 60
        E 120 80 64 00
        E 61 80 2d 00
        E 59 90 28 60
        E 0 90 3d 60
        E 0 90 4a 60
        E 0 90 56 60
        E 0 90 62 60
        E 120 80 3d 00
        E 0 80 4a 00
        E 0 80 56 00
        E 0 80 62 00
        E 61 80 28 00
        E 59 90 2d 60
        E 0 90 64 60
        E 120 80 64 00
        E 61 80 2d 00
        E 59 90 2b 60
        E 0 90 4b 60
        E 0 90 57 60
        E 0 90 63 60
        E 120 80 4b 00
        E 0 80 57 00
        E 0 80 63 00
        E 120 90 64 60
        E 120 80 64 00
        E 61 80 2b 00
        E 59 90 28 60
        E 0 90 3e 60
        E 0 90 4b 60
        E 0 90 58 60
        E 0 90 64 60
        E 120 80 3e 00
        E 0 80 4b 00
        E 0 80 58 00
        E 360 80 64 00
        E 240 90 4b 60
        E 0 90 58 60
        E 0 90 64 60
        E 120 80 4b 00
        E 0 80 58 00
        E 0 80 64 00
        E 360 90 55 60
        E 0 90 61 60
        E 120 80 55 00
        E 0 80 61 00
        E 120 90 3c 60
        E 0 90 48 60
        E 0 90 54 60
        E 0 90 60 60
        E 960 80 3c 00
        E 0 80 48 00
        E 0 80 54 00
        E 0 80 60 00
        E 240 90 54 60
        E 0 90 60 60
        E 120 80 54 00
        E 0 80 60 00
        E 120 90 3c 60
        E 0 90 49 60
        E 0 90 55 60
        E 0 90 61 60
        E 120 80 3c 00
        E 0 80 49 00
        E 0 80 55 00
        E 0 80 61 00
        E 360 90 4a 60
        E 0 90 56 60
        E 0 90 62 60
        E 120 80 4a 00
        E 0 80 56 00
        E 0 80 62 00
        E 360 90 3e 60
        E 0 90 4b 60
        E 0 90 58 60
        E 0 90 64 60
        E 120 80 3e 00
        E 0 80 4b 00
        E 0 80 58 00
        E 360 80 64 00
        E 240 90 4b 60
        E 0 90 58 60
        E 0 90 64 60
        E 600 80 4b 00
        E 0 80 58 00
        E 0 80 64 00
        E 301 80 28 00
        E 59 90 2d 60
        E 0 90 3c 60
        E 0 90 48 60
        E 0 90 54 60
        E 0 90 60 60
        E 120 80 3c 00
        E 0 80 48 00
        E 0 80 54 00
        E 240 80 60 00
        E 120 90 64 60
        E 120 80 64 00
        E 120 90 49 60
        E 0 90 55 60
        E 0 90 61 60
        E 120 80 49 00
        E 0 80 55 00
        E 0 80 61 00
        E 120 90 64 60
        E 120 80 64 00
        E 61 80 2d 00
        E 59 90 28 60
        E 0 90 3d 60
        E 0 90 4a 60
        E 0 90 56 60
        E 0 90 62 60
        E 120 80 3d 00
        E 0 80 4a 00
        E 0 80 56 00
        E 0 80 62 00
        E 61 80 28 00
        E 59 90 2d 60
        E 0 90 64 60
        E 120 80 64 00
        E 301 80 2d 00
        E 59 90 28 60
        E 0 90 55 60
        E 0 90 60 60
        E 120 80 55 00
        E 0 80 60 00
        E 120 90 3e 60
        E 0 90 4b 60
        E 0 90 58 60
        E 0 90 64 60
        E 120 80 3e 00
        E 0 80 4b 00
        E 0 80 58 00
        E 360 80 64 00
        E 240 90 4b 60
        E 0 90 58 60
        E 0 90 64 60
        E 120 80 4b 00
        E 0 80 58 00
        E 0 80 64 00
        E 360 90 55 60
        E 0 90 61 60
        E 120 80 55 00
        E 0 80 61 00
        E 120 90 3d 60
        E 0 90 4a 60
        E 0 90 57 60
        E 0 90 63 60
        E 960 80 3d 00
        E 0 80 4a 00
        E 0 80 57 00
        E 0 80 63 00
        E 240 90 57 60
        E 0 90 63 60
        E 120 80 57 00
        E 0 80 63 00
        E 120 90 3c 60
        E 0 90 48 60
        E 0 90 54 60
        E 0 90 60 60
        E 120 80 3c 00
        E 0 80 48 00
        E 0 80 54 00
        E 0 80 60 00
        E 360 90 49 60
        E 0 90 55 60
        E 0 90 61 60
        E 120 80 49 00
        E 0 80 55 00
        E 0 80 61 00
        E 360 90 3e 60
        E 0 90 4b 60
        E 0 90 58 60
        E 0 90 64 60
        E 120 80 3e 00
        E 0 80 4b 00
        E 0 80 58 00
        E 360 80 64 00
        E 240 90 4b 60
        E 0 90 58 60
        E 0 90 64 60
        E 600 80 4b 00
        E 120 80 58 00
        E 120 80 64 00
        E 61 80 28 00
        E 59 90 2d 60
        E 0 90 3c 60
        E 0 90 48 60
        E 0 90 54 60
        E 0 90 60 60
        E 120 80 3c 00
        E 0 80 48 00
        E 0 80 54 00
        E 0 80 60 00
        E 360 90 64 60
        E 120 80 64 00
        E 120 90 49 60
        E 0 90 55 60
        E 0 90 61 60
        E 120 80 49 00
        E 0 80 55 00
        E 0 80 61 00
        E 120 90 64 60
        E 120 80 64 00
        E 61 80 2d 00
        E 59 90 28 60
        E 0 90 3d 60
        E 0 90 4a 60
        E 0 90 56 60
        E 0 90 62 60
        E 120 80 3d 00
        E 0 80 4a 00
        E 0 80 56 00
        E 0 80 62 00
        E 61 80 28 00
        E 59 90 2d 60
        E 0 90 64 60
        E 120 80 64 00
        E 61 80 2d 00
        E 59 90 2b 60
        E 0 90 4b 60
        E 0 90 57 60
        E 0 90 63 60
        E 120 80 4b 00
        E 0 80 57 00
        E 0 80 63 00
        E 120 90 64 60
        E 120 80 64 00
        E 61 80 2b 00
        E 59 90 28 60
        E 0 90 3e 60
        E 0 90 4b 60
        E 0 90 58 60
        E 0 90 64 60
        E 120 80 3e 00
        E 0 80 4b 00
        E 0 80 58 00
        E 360 80 64 00
        E 240 90 4b 60
        E 0 90 58 60
        E 0 90 64 60
        E 120 80 4b 00
        E 0 80 58 00
        E 0 80 64 00
        E 360 90 55 60
        E 0 90 61 60
        E 120 80 55 00
        E 0 80 61 00
        E 120 90 3c 60
        E 0 90 48 60
        E 0 90 54 60
        E 0 90 60 60
        E 840 80 3c 00
        E 0 80 48 00
        E 0 80 54 00
        E 0 80 60 00
        E 360 90 54 60
        E 0 90 60 60
        E 120 80 54 00
        E 0 80 60 00
        E 120 90 3c 60
        E 0 90 49 60
        E 0 90 55 60
        E 0 90 61 60
        E 120 80 3c 00
        E 0 80 49 00
        E 0 80 55 00
        E 0 80 61 00
        E 360 90 4a 60
        E 0 90 56 60
        E 0 90 62 60
        E 120 80 4a 00
        E 0 80 56 00
        E 0 80 62 00
        E 360 90 3e 60
        E 0 90 4b 60
        E 0 90 58 60
        E 0 90 64 60
        E 120 80 3e 00
        E 0 80 4b 00
        E 0 80 58 00
        E 360 80 64 00
        E 240 90 4b 60
        E 0 90 58 60
        E 0 90 64 60
        E 600 80 4b 00
        E 0 80 58 00
        E 0 80 64 00
        E 301 80 28 00
        E 59 90 2d 60
        E 0 90 3c 60
        E 0 90 48 60
        E 0 90 54 60
        E 0 90 60 60
        E 120 80 3c 00
        E 0 80 48 00
        E 0 80 54 00
        E 0 80 60 00
        E 120 90 74 60
        E 240 90 64 60
        E 120 80 64 00
        E 120 90 49 60
        E 0 90 55 60
        E 0 90 61 60
        E 120 80 49 00
        E 0 80 55 00
        E 0 80 61 00
        E 120 90 64 60
        E 120 80 64 00
        E 61 80 2d 00
        E 59 90 28 60
        E 0 90 3d 60
        E 0 90 4a 60
        E 0 90 56 60
        E 0 90 62 60
        E 120 80 3d 00
        E 0 80 4a 00
        E 0 80 56 00
        E 0 80 62 00
        E 61 80 28 00
        E 59 90 2d 60
        E 0 90 64 60
        E 120 80 64 00
        E 301 80 2d 00
        E 59 90 28 60
        E 0 90 55 60
        E 0 90 60 60
        E 120 80 55 00
        E 0 80 60 00
        E 120 80 74 00
        E 0 90 3e 60
        E 0 90 4b 60
        E 0 90 58 60
        E 0 90 64 60
        E 120 80 3e 00
        E 0 80 4b 00
        E 0 80 58 00
        E 360 80 64 00
        E 240 90 4b 60
        E 0 90 58 60
        E 0 90 64 60
        E 120 80 4b 00
        E 0 80 58 00
        E 0 80 64 00
        E 360 90 55 60
        E 0 90 61 60
        E 120 80 55 00
        E 0 80 61 00
        E 120 90 3d 60
        E 0 90 4a 60
        E 0 90 57 60
        E 0 90 63 60
        E 960 80 3d 00
        E 0 80 4a 00
        E 0 80 57 00
        E 0 80 63 00
        E 240 90 57 60
        E 0 90 63 60
        E 120 80 57 00
        E 0 80 63 00
        E 120 90 3c 60
        E 0 90 48 60
        E 0 90 54 60
        E 0 90 60 60
        E 120 80 3c 00
        E 0 80 48 00
        E 0 80 54 00
        E 0 80 60 00
        E 360 90 49 60
        E 0 90 55 60
        E 0 90 61 60
        E 120 80 49 00
        E 0 80 55 00
        E 0 80 61 00
        E 360 90 3e 60
        E 0 90 4b 60
        E 0 90 58 60
        E 0 90 64 60
        E 120 80 3e 00
        E 0 80 4b 00
        E 0 80 58 00
        E 360 80 64 00
        E 240 90 4b 60
        E 0 90 58 60
        E 0 90 64 60
        E 120 80 4b 00
        E 0 80 58 00
        E 480 80 64 00
        E 120 90 3e 60
        E 0 90 4b 60
        E 0 90 58 60
        E 0 90 64 60
        E 120 80 3e 00
        E 0 80 4b 00
        E 0 80 58 00
        E 0 80 64 00
        E 61 80 28 00
        E 59 90 2d 60
        E 0 90 54 60
        E 0 90 60 60
        E 120 80 54 00
        E 0 80 60 00
        E 360 90 64 60
        E 120 80 64 00
        E 120 90 49 60
        E 0 90 55 60
        E 0 90 61 60
        E 120 80 49 00
        E 0 80 55 00
        E 0 80 61 00
        E 120 90 64 60
        E 120 80 64 00
        E 61 80 2d 00
        E 59 90 28 60
        E 0 90 3d 60
        E 0 90 4a 60
        E 0 90 56 60
        E 0 90 62 60
        E 120 80 3d 00
        E 0 80 4a 00
        E 0 80 56 00
        E 0 80 62 00
        E 61 80 28 00
        E 59 90 2d 60
        E 0 90 64 60
        E 120 80 64 00
        E 61 80 2d 00
        E 59 90 28 60
        E 0 90 49 60
        E 0 90 55 60
        E 0 90 60 60
        E 120 80 49 00
        E 0 80 55 00
        E 0 80 60 00
        E 360 90 3e 60
        E 0 90 4b 60
        E 0 90 58 60
        E 0 90 64 60
        E 120 80 3e 00
        E 0 80 4b 00
        E 0 80 58 00
        E 360 80 64 00
        E 240 90 4a 60
        E 0 90 56 60
        E 0 90 62 60
        E 120 80 4a 00
        E 0 80 56 00
        E 0 80 62 00
        E 360 90 55 60
        E 0 90 61 60
        E 120 80 55 00
        E 0 80 61 00
        E 120 90 3c 60
        E 0 90 48 60
        E 0 90 54 60
        E 0 90 60 60
        E 600 80 3c 00
        E 0 80 48 00
        E 120 80 54 00
        E 120 80 60 00
        E 120 90 4b 60
        E 0 90 58 60
        E 0 90 64 60
        E 120 80 4b 00
        E 0 80 58 00
        E 0 80 64 00
        E 120 90 54 60
        E 0 90 60 60
        E 120 80 54 00
        E 0 80 60 00
        E 120 90 3c 60
        E 0 90 49 60
        E 0 90 55 60
        E 0 90 61 60
        E 120 80 3c 00
        E 0 80 49 00
        E 0 80 55 00
        E 0 80 61 00
        E 360 90 4a 60
        E 0 90 56 60
        E 0 90 62 60
        E 120 80 4a 00
        E 0 80 56 00
        E 0 80 62 00
        E 360 90 3e 60
        E 0 90 4b 60
        E 0 90 58 60
        E 0 90 64 60
        E 120 80 3e 00
        E 0 80 4b 00
        E 0 80 58 00
        E 360 80 64 00
        E 240 90 4b 60
        E 0 90 58 60
        E 0 90 64 60
        E 120 80 4b 00
        E 0 80 58 00
        E 480 80 64 00
        E 120 90 64 60
        E 120 80 64 00
        E 61 80 28 00
        E 59 90 2d 60
        E 0 90 3c 60
        E 0 90 49 60
        E 0 90 55 60
        E 0 90 61 60
        E 120 80 3c 00
        E 0 80 49 00
        E 0 80 55 00
        E 0 80 61 00
        E 360 90 64 60
        E 120 80 64 00
        E 120 90 4a 60
        E 0 90 56 60
        E 0 90 62 60
        E 120 80 4a 00
        E 0 80 56 00
        E 0 80 62 00
        E 301 80 2d 00
        E 59 90 28 60
        E 0 90 3e 60
        E 0 90 4b 60
        E 0 90 57 60
        E 0 90 63 60
        E 120 80 3e 00
        E 0 80 4b 00
        E 0 80 57 00
        E 0 80 63 00
        <X 840 0
          /wFbbWFwIFN0cnVtTWFwX1BpY2td
        >
        <X 0 0
          /wFbbWVsbG93XQ==
        >
        E 0 90 3c 60
        E 0 90 48 60
        E 0 90 54 60
        E 0 90 60 60
        E 1200 80 3c 00
        E 0 80 48 00
        E 0 80 54 00
        E 0 80 60 00
        E 480 90 3d 60
        E 0 90 49 60
        E 0 90 55 60
        E 0 90 61 60
        E 120 80 3d 00
        E 480 80 49 00
        E 120 80 55 00
        E 0 80 61 00
        E 240 90 3e 60
        E 0 90 4a 60
        E 0 90 56 60
        E 0 90 62 60
        E 120 80 3e 00
        E 480 80 4a 00
        E 120 80 56 00
        E 0 80 62 00
        E 240 90 3c 60
        E 0 90 48 60
        E 0 90 54 60
        E 0 90 60 60
        E 1920 80 3c 00
        E 0 80 48 00
        E 0 80 54 00
        E 0 80 60 00
        E 480 90 56 60
        E 0 90 62 60
        E 120 80 56 00
        E 0 80 62 00
        E 120 90 3e 60
        E 0 90 4b 60
        E 0 90 57 60
        E 0 90 63 60
        E 120 80 3e 00
        E 0 80 4b 00
        E 0 80 57 00
        E 0 80 63 00
        E 360 90 57 60
        E 0 90 63 60
        E 120 80 57 00
        E 0 80 63 00
        E 120 90 4c 60
        E 0 90 58 60
        E 0 90 64 60
        E 120 80 4c 00
        E 0 80 58 00
        E 0 80 64 00
        E 360 90 55 60
        E 0 90 61 60
        E 120 80 55 00
        E 0 80 61 00
        E 120 90 3c 60
        E 0 90 48 60
        E 0 90 54 60
        E 0 90 60 60
        E 1200 80 3c 00
        E 120 80 48 00
        E 120 80 54 00
        E 0 80 60 00
        E 240 90 3d 60
        E 0 90 49 60
        E 0 90 55 60
        E 0 90 61 60
        E 120 80 3d 00
        E 480 80 49 00
        E 120 80 55 00
        E 0 80 61 00
        E 240 90 3e 60
        E 0 90 4a 60
        E 0 90 56 60
        E 0 90 62 60
        E 120 80 3e 00
        E 0 80 4a 00
        E 0 80 56 00
        E 360 80 62 00
        E 240 90 57 60
        E 0 90 63 60
        E 120 80 57 00
        E 0 80 63 00
        E 120 90 3c 60
        E 0 90 48 60
        E 0 90 54 60
        E 0 90 60 60
        E 1800 80 3c 00
        E 0 80 48 00
        E 120 80 54 00
        E 0 80 60 00
        E 240 90 74 60
        E 240 90 3c 60
        E 0 90 48 60
        E 0 90 54 60
        E 0 90 61 60
        E 120 80 3c 00
        E 0 80 48 00
        E 0 80 54 00
        E 0 80 61 00
        E 120 90 62 60
        E 120 80 62 00
        E 120 90 49 60
        E 0 90 55 60
        E 0 90 63 60
        E 120 80 49 00
        E 0 80 55 00
        E 0 80 63 00
        E 120 90 61 60
        E 120 80 61 00
        E 120 90 4a 60
        E 0 90 56 60
        E 0 90 62 60
        E 120 80 4a 00
        E 0 80 56 00
        E 0 80 62 00
        E 120 90 63 60
        E 120 80 63 00
        E 120 90 57 60
        E 0 90 64 60
        E 120 80 57 00
        E 0 80 64 00
        E 120 90 3c 60
        E 0 90 48 60
        E 0 90 54 60
        E 0 90 60 60
        E 120 80 74 00
        E 1080 80 3c 00
        E 120 80 48 00
        E 120 80 54 00
        E 0 80 60 00
        E 240 90 3d 60
        E 0 90 49 60
        E 0 90 55 60
        E 0 90 61 60
        E 120 80 3d 00
        E 480 80 49 00
        E 120 80 55 00
        E 0 80 61 00
        E 240 90 3e 60
        E 0 90 4a 60
        E 0 90 56 60
        E 0 90 62 60
        E 120 80 3e 00
        E 480 80 4a 00
        E 120 80 56 00
        E 0 80 62 00
        E 240 90 3c 60
        E 0 90 48 60
        E 0 90 54 60
        E 0 90 60 60
        E 1920 80 3c 00
        E 0 80 48 00
        E 0 80 54 00
        E 0 80 60 00
        E 480 90 3e 60
        E 0 90 4a 60
        E 0 90 56 60
        E 0 90 62 60
        E 120 80 3e 00
        E 0 80 4a 00
        E 0 80 56 00
        E 0 80 62 00
        E 120 90 63 60
        E 120 80 63 00
        E 120 90 4b 60
        E 0 90 57 60
        E 0 90 64 60
        E 120 80 4b 00
        E 0 80 57 00
        E 0 80 64 00
        E 120 90 63 60
        E 120 80 63 00
        E 120 90 49 60
        E 0 90 55 60
        E 0 90 62 60
        E 120 80 49 00
        E 0 80 55 00
        E 0 80 62 00
        E 120 90 61 60
        E 120 80 61 00
        E 120 90 3c 60
        E 1 90 48 60
        E 0 90 54 60
        E 0 90 60 60
        E 1559 80 3c 00
        E 0 80 48 00
        E 120 80 54 00
        E 0 80 60 00
        E 240 90 3d 60
        E 0 90 49 60
        E 0 90 55 60
        E 0 90 61 60
        E 120 80 3d 00
        E 480 80 49 00
        E 120 80 55 00
        E 0 80 61 00
        E 240 90 3e 60
        E 0 90 4a 60
        E 0 90 56 60
        E 0 90 62 60
        E 120 80 3e 00
        E 480 80 4a 00
        E 120 80 56 00
        E 0 80 62 00
        E 240 90 3c 60
        E 0 90 48 60
        E 0 90 54 60
        E 0 90 60 60
        E 2160 80 3c 00
        E 0 80 48 00
        E 0 80 54 00
        E 0 80 60 00
        E 240 90 63 60
        E 120 80 63 00
        E 120 90 49 60
        E 0 90 55 60
        E 0 90 60 60
        E 120 80 49 00
        E 0 80 55 00
        E 0 80 60 00
        E 120 90 61 60
        E 120 80 61 00
        E 120 90 3d 60
        E 0 90 4a 60
        E 0 90 56 60
        E 0 90 62 60
        E 120 80 3d 00
        E 0 80 4a 00
        E 0 80 56 00
        E 0 80 62 00
        E 61 80 28 00
        E 59 90 2d 60
        E 0 90 64 60
        E 120 80 64 00
        E 120 90 4b 60
        E 0 90 57 60
        E 0 90 62 60
        E 120 80 4b 00
        E 0 80 57 00
        E 0 80 62 00
        E 301 80 2d 00
        <X 59 0
          /wFbbWFwIFN0cnVtTWFwX1NsYXBCYXNzXQ==
        >
        <X 0 0
          /wFbcGxheV0=
        >
        E 0 90 28 60
        E 0 90 3e 60
        E 0 90 4b 60
        E 0 90 58 60
        E 0 90 64 60
        E 0 90 74 60
        E 120 80 3e 00
        E 0 80 4b 00
        E 0 80 58 00
        E 360 80 64 00
        E 240 90 4b 60
        E 0 90 58 60
        E 0 90 64 60
        E 120 80 4b 00
        E 0 80 58 00
        E 0 80 64 00
        E 360 90 55 60
        E 0 90 61 60
        E 120 80 55 00
        E 0 80 61 00
        E 120 90 3d 60
        E 0 90 4a 60
        E 0 90 57 60
        E 0 90 63 60
        E 960 80 3d 00
        E 0 80 4a 00
        E 0 80 57 00
        E 0 80 63 00
        E 240 90 57 60
        E 0 90 63 60
        E 120 80 57 00
        E 0 80 63 00
        E 120 90 3c 60
        E 0 90 48 60
        E 0 90 54 60
        E 0 90 60 60
        E 120 80 3c 00
        E 0 80 48 00
        E 0 80 54 00
        E 0 80 60 00
        E 360 90 49 60
        E 0 90 55 60
        E 0 90 61 60
        E 120 80 49 00
        E 0 80 55 00
        E 0 80 61 00
        E 360 80 74 00
        E 0 90 3e 60
        E 0 90 4b 60
        E 0 90 58 60
        E 0 90 64 60
        E 120 80 3e 00
        E 0 80 4b 00
        E 0 80 58 00
        E 360 80 64 00
        E 240 90 4b 60
        E 0 90 58 60
        E 0 90 64 60
        E 600 80 4b 00
        E 120 80 58 00
        E 0 80 64 00
        E 181 80 28 00
        E 59 90 2d 60
        E 0 90 3c 60
        E 0 90 48 60
        E 0 90 54 60
        E 0 90 60 60
        E 120 80 3c 00
        E 0 80 48 00
        E 0 80 54 00
        E 0 80 60 00
        E 360 90 64 60
        E 120 80 64 00
        E 120 90 49 60
        E 0 90 55 60
        E 0 90 61 60
        E 120 80 49 00
        E 0 80 55 00
        E 0 80 61 00
        E 120 90 64 60
        E 120 80 64 00
        E 61 80 2d 00
        E 59 90 28 60
        E 0 90 3d 60
        E 0 90 4a 60
        E 0 90 56 60
        E 0 90 62 60
        E 120 80 3d 00
        E 0 80 4a 00
        E 0 80 56 00
        E 0 80 62 00
        E 61 80 28 00
        E 59 90 2d 60
        E 0 90 64 60
        E 120 80 64 00
        E 61 80 2d 00
        E 59 90 2b 60
        E 0 90 4b 60
        E 0 90 57 60
        E 0 90 63 60
        E 120 80 4b 00
        E 0 80 57 00
        E 0 80 63 00
        E 120 90 64 60
        E 120 80 64 00
        E 61 80 2b 00
        E 59 90 28 60
        E 0 90 3e 60
        E 0 90 4b 60
        E 0 90 58 60
        E 0 90 64 60
        E 120 80 3e 00
        E 0 80 4b 00
        E 0 80 58 00
        E 360 80 64 00
        E 240 90 4b 60
        E 0 90 58 60
        E 0 90 64 60
        E 120 80 4b 00
        E 0 80 58 00
        E 0 80 64 00
        E 360 90 55 60
        E 0 90 61 60
        E 120 80 55 00
        E 0 80 61 00
        E 120 90 3c 60
        E 0 90 48 60
        E 0 90 54 60
        E 0 90 60 60
        E 960 80 3c 00
        E 0 80 48 00
        E 0 80 54 00
        E 0 80 60 00
        E 240 90 54 60
        E 0 90 60 60
        E 120 80 54 00
        E 0 80 60 00
        E 120 90 3c 60
        E 0 90 49 60
        E 0 90 55 60
        E 0 90 61 60
        E 120 80 3c 00
        E 0 80 49 00
        E 0 80 55 00
        E 240 80 61 00
        E 120 90 4a 60
        E 0 90 56 60
        E 0 90 62 60
        E 120 80 4a 00
        E 0 80 56 00
        E 0 80 62 00
        E 360 90 3e 60
        E 0 90 4b 60
        E 0 90 58 60
        E 0 90 64 60
        E 120 80 3e 00
        E 0 80 4b 00
        E 0 80 58 00
        E 360 80 64 00
        E 240 90 4b 60
        E 0 90 58 60
        E 0 90 64 60
        E 600 80 4b 00
        E 0 80 58 00
        E 0 80 64 00
        E 301 80 28 00
        E 59 90 2d 60
        E 0 90 3c 60
        E 0 90 48 60
        E 0 90 54 60
        E 0 90 60 60
        E 120 80 3c 00
        E 0 80 48 00
        E 0 80 54 00
        E 0 80 60 00
        E 360 90 64 60
        E 120 80 64 00
        E 120 90 49 60
        E 0 90 55 60
        E 0 90 61 60
        E 120 80 49 00
        E 0 80 55 00
        E 0 80 61 00
        E 120 90 64 60
        E 120 80 64 00
        E 61 80 2d 00
        E 59 90 28 60
        E 0 90 3d 60
        E 0 90 4a 60
        E 0 90 56 60
        E 0 90 62 60
        E 120 80 3d 00
        E 0 80 4a 00
        E 0 80 56 00
        E 0 80 62 00
        E 61 80 28 00
        E 59 90 2d 60
        E 0 90 64 60
        E 120 80 64 00
        E 301 80 2d 00
        E 59 90 28 60
        E 0 90 55 60
        E 0 90 60 60
        E 120 80 55 00
        E 0 80 60 00
        E 120 90 3e 60
        E 0 90 4b 60
        E 0 90 58 60
        E 0 90 64 60
        E 120 80 3e 00
        E 0 80 4b 00
        E 0 80 58 00
        E 360 80 64 00
        E 240 90 4b 60
        E 0 90 58 60
        E 0 90 64 60
        E 120 80 4b 00
        E 0 80 58 00
        E 0 80 64 00
        E 360 90 55 60
        E 0 90 61 60
        E 120 80 55 00
        E 0 80 61 00
        E 120 90 3d 60
        E 0 90 4a 60
        E 0 90 57 60
        E 0 90 63 60
        E 960 80 3d 00
        E 0 80 4a 00
        E 0 80 57 00
        E 0 80 63 00
        E 240 90 57 60
        E 0 90 63 60
        E 120 80 57 00
        E 0 80 63 00
        E 120 90 3c 60
        E 0 90 48 60
        E 0 90 54 60
        E 0 90 60 60
        E 120 80 3c 00
        E 0 80 48 00
        E 0 80 54 00
        E 0 80 60 00
        E 360 90 49 60
        E 0 90 55 60
        E 0 90 61 60
        E 120 80 49 00
        E 0 80 55 00
        E 0 80 61 00
        E 360 90 3e 60
        E 0 90 4b 60
        E 0 90 58 60
        E 0 90 64 60
        E 120 80 3e 00
        E 0 80 4b 00
        E 0 80 58 00
        E 360 80 64 00
        E 240 90 4b 60
        E 0 90 58 60
        E 0 90 64 60
        E 120 80 4b 00
        E 0 80 58 00
        E 480 80 64 00
        E 120 90 64 60
        E 120 80 64 00
        E 120 90 3c 60
        E 0 90 48 60
        E 0 90 54 60
        E 0 90 60 60
        E 120 80 3c 00
        E 0 80 48 00
        E 0 80 54 00
        E 0 80 60 00
        E 120 90 74 60
        E 240 90 64 60
        E 120 80 64 00
        E 120 90 49 60
        E 0 90 55 60
        E 0 90 61 60
        E 120 80 49 00
        E 0 80 55 00
        E 0 80 61 00
        E 120 90 64 60
        E 120 80 64 00
        E 61 80 28 00
        E 59 90 28 60
        E 0 90 3d 60
        E 0 90 4a 60
        E 0 90 56 60
        E 0 90 62 60
        E 120 80 3d 00
        E 0 80 4a 00
        E 0 80 56 00
        E 0 80 62 00
        E 61 80 28 00
        E 59 90 2d 60
        E 0 90 64 60
        E 120 80 64 00
        E 61 80 2d 00
        E 59 90 28 60
        E 0 90 49 60
        E 0 90 55 60
        E 0 90 60 60
        E 120 80 49 00
        E 0 80 55 00
        E 0 80 60 00
        E 360 90 3e 60
        E 0 90 4b 60
        E 0 90 58 60
        E 0 90 64 60
        E 120 80 74 00
        E 0 80 3e 00
        E 0 80 4b 00
        E 0 80 58 00
        E 360 80 64 00
        E 240 90 4a 60
        E 0 90 56 60
        E 0 90 62 60
        E 120 80 4a 00
        E 0 80 56 00
        E 0 80 62 00
        E 360 90 55 60
        E 0 90 61 60
        E 120 80 55 00
        E 0 80 61 00
        E 120 90 3c 60
        E 0 90 48 60
        E 0 90 54 60
        E 0 90 60 60
        E 960 80 3c 00
        E 0 80 48 00
        E 0 80 54 00
        E 0 80 60 00
        E 240 90 54 60
        E 0 90 60 60
        E 120 80 54 00
        E 0 80 60 00
        E 120 90 3c 60
        E 0 90 49 60
        E 0 90 55 60
        E 0 90 61 60
        E 120 80 3c 00
        E 0 80 49 00
        E 0 80 55 00
        E 0 80 61 00
        E 360 90 4a 60
        E 0 90 56 60
        E 0 90 62 60
        E 120 80 4a 00
        E 0 80 56 00
        E 0 80 62 00
        E 360 90 3e 60
        E 0 90 4b 60
        E 0 90 58 60
        E 0 90 64 60
        E 120 80 3e 00
        E 0 80 4b 00
        E 0 80 58 00
        E 360 80 64 00
        E 240 90 4b 60
        E 0 90 58 60
        E 0 90 64 60
        E 120 80 4b 00
        E 0 80 58 00
        E 480 80 64 00
        E 120 90 64 60
        E 120 80 64 00
        E 61 80 28 00
        E 59 90 2d 60
        E 0 90 3c 60
        E 0 90 48 60
        E 0 90 54 60
        E 0 90 60 60
        E 120 80 3c 00
        E 0 80 48 00
        E 0 80 54 00
        E 0 80 60 00
        E 360 90 64 60
        E 120 80 64 00
        E 120 90 49 60
        E 0 90 55 60
        E 0 90 61 60
        E 120 80 49 00
        E 0 80 55 00
        E 0 80 61 00
        E 120 90 64 60
        E 120 80 64 00
        E 61 80 2d 00
        E 59 90 28 60
        E 0 90 3d 60
        E 0 90 4a 60
        E 0 90 56 60
        E 0 90 62 60
        E 120 80 3d 00
        E 0 80 4a 00
        E 0 80 56 00
        E 0 80 62 00
        E 61 80 28 00
        E 59 90 2d 60
        E 0 90 64 60
        E 120 80 64 00
        E 61 80 2d 00
        E 59 90 2b 60
        E 0 90 4b 60
        E 0 90 57 60
        E 0 90 63 60
        E 120 80 4b 00
        E 0 80 57 00
        E 0 80 63 00
        E 120 90 64 60
        E 120 80 64 00
        E 61 80 2b 00
        <X 59 0
          /wFbaW50ZW5zZV0=
        >
        E 0 90 28 60
        E 0 90 3e 60
        E 0 90 4b 60
        E 0 90 58 60
        E 0 90 64 60
        E 120 80 3e 00
        E 0 80 4b 00
        E 0 80 58 00
        E 0 80 64 00
        E 120 90 64 60
        E 120 80 64 00
        E 360 90 58 60
        E 0 90 64 60
        E 120 80 58 00
        E 0 80 64 00
        E 120 90 3c 60
        E 0 90 49 60
        E 0 90 55 60
        E 0 90 61 60
        E 120 80 3c 00
        E 0 80 49 00
        E 0 80 55 00
        E 0 80 61 00
        E 360 90 4b 60
        E 0 90 57 60
        E 0 90 63 60
        E 120 80 4b 00
        E 0 80 57 00
        E 360 80 63 00
        E 3840 90 3c 60
        E 0 90 49 60
        E 0 90 55 60
        E 0 90 61 60
        E 120 80 3c 00
        E 0 80 49 00
        E 0 80 55 00
        E 360 80 61 00
        E 240 90 4a 60
        E 0 90 56 60
        E 0 90 62 60
        E 120 80 4a 00
        E 0 80 56 00
        E 360 80 62 00
        E 240 90 4c 60
        E 0 90 58 60
        E 0 90 64 60
        E 120 80 4c 00
        E 0 80 58 00
        E 0 80 64 00
        E 360 90 3e 60
        E 0 90 4b 60
        E 0 90 57 60
        E 0 90 63 60
        E 0 90 74 60
        E 120 80 3e 00
        E 0 80 4b 00
        E 0 80 57 00
        E 0 80 63 00
        E 120 90 63 60
        E 120 80 63 00
        E 360 90 57 60
        E 0 90 63 60
        E 120 80 57 00
        E 0 80 63 00
        E 120 90 3d 60
        E 0 90 49 60
        E 0 90 55 60
        E 0 90 61 60
        E 120 80 3d 00
        E 0 80 49 00
        E 0 80 55 00
        E 0 80 61 00
        E 360 90 3c 60
        E 0 90 48 60
        E 0 90 54 60
        E 0 90 60 60
        E 120 80 3c 00
        E 0 80 48 00
        E 0 80 54 00
        E 360 80 74 00
        E 0 80 60 00
        E 4320 90 3c 60
        E 0 90 49 60
        E 0 90 55 60
        E 0 90 61 60
        E 120 80 3c 00
        E 0 80 49 00
        E 0 80 55 00
        E 360 80 61 00
        E 240 90 4a 60
        E 0 90 56 60
        E 0 90 62 60
        E 120 80 4a 00
        E 0 80 56 00
        E 360 80 62 00
        E 240 90 3e 60
        E 0 90 4b 60
        E 0 90 58 60
        E 0 90 64 60
        E 120 80 3e 00
        E 0 80 4b 00
        E 0 80 58 00
        E 0 80 64 00
        E 120 90 64 60
        E 120 80 64 00
        E 360 90 58 60
        E 0 90 64 60
        E 120 80 58 00
        E 0 80 64 00
        E 120 90 3c 60
        E 0 90 49 60
        E 0 90 55 60
        E 0 90 61 60
        E 120 80 3c 00
        E 0 80 49 00
        E 0 80 55 00
        E 0 80 61 00
        E 360 90 4b 60
        E 0 90 57 60
        E 0 90 63 60
        E 120 80 4b 00
        E 0 80 57 00
        E 360 80 63 00
        E 5280 90 49 60
        E 0 90 55 60
        E 0 90 61 60
        E 120 80 49 00
        E 0 80 55 00
        E 0 80 61 00
        E 120 90 56 60
        E 0 90 62 60
        E 120 80 56 00
        E 0 80 62 00
        E 120 90 3e 60
        E 0 90 4b 60
        E 0 90 58 60
        E 0 90 64 60
        E 120 80 3e 00
        E 0 80 4b 00
        E 0 80 58 00
        E 0 80 64 00
        E 120 90 64 60
        E 120 80 64 00
        E 360 90 58 60
        E 0 90 64 60
        E 120 80 58 00
        E 0 80 64 00
        E 120 90 3c 60
        E 0 90 49 60
        E 0 90 55 60
        E 0 90 61 60
        E 120 80 3c 00
        E 0 80 49 00
        E 0 80 55 00
        E 0 80 61 00
        E 360 90 4b 60
        E 0 90 57 60
        E 0 90 63 60
        E 120 80 4b 00
        E 0 80 57 00
        E 360 80 63 00
        E 240 90 4b 60
        E 0 90 57 60
        E 0 90 63 60
        E 120 80 4b 00
        E 0 80 57 00
        E 0 80 63 00
        E 360 90 57 60
        E 0 90 63 60
        E 120 80 57 00
        E 0 80 63 00
        E 120 90 3c 60
        E 0 90 48 60
        E 0 90 54 60
        E 0 90 60 60
        E 120 80 3c 00
        E 0 80 48 00
        E 0 80 54 00
        E 0 80 60 00
        E 360 90 3d 60
        E 0 90 49 60
        E 0 90 55 60
        E 0 90 61 60
        E 120 80 3d 00
        E 0 80 49 00
        E 0 80 55 00
        E 360 80 61 00
        E 240 90 49 60
        E 0 90 55 60
        E 0 90 61 60
        E 120 80 49 00
        E 0 80 55 00
        E 0 80 61 00
        E 360 90 55 60
        E 0 90 61 60
        E 120 80 55 00
        E 0 80 61 00
        E 120 90 3e 60
        E 0 90 4a 60
        E 0 90 56 60
        E 0 90 62 60
        E 120 80 3e 00
        E 0 80 4a 00
        E 0 80 56 00
        E 0 80 62 00
        E 360 90 55 60
        E 0 90 61 60
        E 120 80 55 00
        E 0 80 61 00
        E 120 90 4b 60
        E 0 90 57 60
        E 0 90 63 60
        E 120 80 4b 00
        E 0 80 57 00
        E 0 80 63 00
        E 360 90 56 60
        E 0 90 62 60
        E 120 80 56 00
        E 0 80 62 00
        E 120 90 3e 60
        E 0 90 4a 60
        E 0 90 57 60
        E 0 90 63 60
        E 120 80 3e 00
        E 0 80 4a 00
        E 0 80 57 00
        E 0 80 63 00
        E 360 90 56 60
        E 0 90 62 60
        E 120 80 56 00
        E 0 80 62 00
        E 61 80 28 00
        E 59 90 31 60
        E 0 90 4c 60
        E 0 90 58 60
        E 0 90 64 60
        E 120 80 31 00
        E 0 80 4c 00
        E 0 80 58 00
        E 0 80 64 00
        E 359 90 58 60
        E 0 90 64 60
        E 120 80 58 00
        E 0 80 64 00
        E 121 90 3f 60
        E 0 90 4b 60
        E 0 90 57 60
        E 0 90 63 60
        E 120 80 3f 00
        E 0 80 4b 00
        E 0 80 57 00
        E 0 80 63 00
        <X 120 0
          /wFbaWRsZV9yZWFsdGltZV0=
        >
        E 5519 b0 7b 00
        GUID {5D4CBA1F-9730-4316-B96F-8FBDFADA5C11}
        IGNTEMPO 0 120.00000000 4 4
        SRCCOLOR 181
        VELLANE 131 128 60
        COLORMAP "C:\Program Files\REAPER (x64)\Data\color_maps\rockband_guitarbass.png"
        CFGEDITVIEW -1463.167638 69.848485 0 12 0 0 0
        CFGEDIT 1 1 0 1 1 0 1 1 1 1 1 0.25000000 -8 -8 1544 872 0 2 1 1 0.00000000 0 1 0 0 0.500000 0 0 1.000000 64
        KEYSNAP 0 6 "102030050700" 0 "Pentatonic"
        EVTFILTER 0 -1 -1 -1 -1 0 1 0 0 -1.00000000 -1.00000000
      >
    >
  >
  <TRACK '{A5245015-4EF8-416E-96CD-CCF8BF33435D}'
    NAME "bass"
    PEAKCOL 16576
    BEAT -1
    AUTOMODE 0
    VOLPAN 1.00000000000000 0.00000000000000 -1.00000000000000 -1.00000000000000 1.00000000000000
    MUTESOLO 0 0 0
    IPHASE 0
    ISBUS 2 -1
    BUSCOMP 0 0
    SHOWINMIX 1 0.666700 0.500000 1 0.500000 -1 -1 -1
    FREEMODE 0
    SEL 0
    REC 0 0 0 0 0 0 0
    VU 2
    TRACKHEIGHT 0 0
    INQ 0 0 0 0.5000000000 100 0 0 100
    NCHAN 2
    FX 1
    TRACKID {A5245015-4EF8-416E-96CD-CCF8BF33435D}
    PERF 0
    MIDIOUT -1
    MAINSEND 1 0
    <ITEM
      POSITION 0.00000000000000
      SNAPOFFS 0.00000000000000
      LENGTH 128.91399999999999
      LOOP 0
      ALLTAKES 0
      SEL 0
      FADEIN 1 0.000000 0.000000 1 0
      FADEOUT 1 0.000000 0.000000 1 0
      MUTE 0
      IGUID {EB8B54DA-2BFF-4BCE-B66E-8C6A691A5539}
      IID 16
      NAME "bass.wav"
      VOLPAN 1.000000 0.000000 1.000000 -1.000000
      SOFFS 0.00000000000000
      PLAYRATE 1.00000000000000 1 0.00000000000000 -1
      CHANMODE 0
      GUID {4B50859A-66CF-4BDC-BFC1-53B6101CACCB}
      <SOURCE WAVE
        FILE "C:\Users\Ruggery\Documents\Visual Studio Code\Projects\ruggy-customs-projects\songs\passport\wav\bass.wav"
      >
    >
  >
  <TRACK '{2B4ED1AF-6CB9-4206-AC97-0E2744330211}'
    NAME "PART GUITAR"
    PEAKCOL 16576
    BEAT -1
    AUTOMODE 0
    VOLPAN 1.00000000000000 0.00000000000000 -1.00000000000000 -1.00000000000000 1.00000000000000
    MUTESOLO 0 0 0
    IPHASE 0
    ISBUS 1 1
    BUSCOMP 0 0
    SHOWINMIX 1 0.666700 0.500000 1 0.500000 -1 -1 -1
    FREEMODE 0
    SEL 0
    REC 0 0 0 0 0 0 0
    VU 2
    TRACKHEIGHT 0 0
    INQ 0 0 0 0.5000000000 100 0 0 100
    NCHAN 2
    FX 1
    TRACKID {2B4ED1AF-6CB9-4206-AC97-0E2744330211}
    PERF 0
    MIDIOUT -1
    <MIDINOTENAMES
      0 127 "TRILL MARKER"
      0 126 "TREMOLO MARKER"
      0 125 "---"
      0 124 "BRE"
      0 123 "BRE"
      0 122 "BRE"
      0 121 "BRE"
      0 120 "BRE (use all 5)"
      0 119 "----"
      0 116 "OVERDRIVE"
      0 115 "----"
      0 103 "Solo Marker"
      0 102 "Force HOPO Off"
      0 101 "Force HOPO On"
      0 100 "EXPERT Orange"
      0 99 "EXPERT Blue"
      0 98 "EXPERT Yellow"
      0 97 "EXPERT Red"
      0 96 "EXPERT Green"
      0 95 "----"
      0 90 "Force HOPO Off"
      0 89 "Force HOPO On"
      0 88 "HARD Orange"
      0 87 "HARD Blue"
      0 86 "HARD Yellow"
      0 85 "HARD Red"
      0 84 "HARD Green"
      0 77 "----"
      0 76 "MEDIUM Orange"
      0 75 "MEDIUM Blue"
      0 74 "MEDIUM Yellow"
      0 73 "MEDIUM Red"
      0 72 "MEDIUM Green"
      0 65 "----"
      0 64 "EASY Orange"
      0 63 "EASY Blue"
      0 62 "EASY Yellow"
      0 61 "EASY Red"
      0 60 "EASY Green"
      0 59 "Fret 12"
      0 57 "Fret 11"
      0 56 "Fret 10"
      0 55 "Fret 9"
      0 53 "Fret 8"
      0 52 "Fret 7"
      0 50 "Fret 6"
      0 49 "Fret 5"
      0 47 "Fret 4"
      0 45 "Fret 3"
      0 43 "Fret 2"
      0 40 "Fret 1"
    >
    MAINSEND 1 0
    <FXCHAIN
      WNDRECT 0 43 891 559
      SHOW 0
      LASTSEL 0
      DOCKED 0
      BYPASS 0 0
      <VST "VSTi: RBN Preview (RBN)" "rbprev_vst64.dll" 0 ""
        dnBicu5e7f4AAAAAAgAAAAEAAAAAAAAAAgAAAAAAAAAEAAAAAQAAAA==
        AAAQAAMAqgAAABAAAAA=
      >
      FLOATPOS 0 0 0 0
      FXID {9EC8253D-3F32-4E8D-93D7-818CC9420BAE}
      WAK 0
    >
    <ITEM
      POSITION 0.00000000000000
      SNAPOFFS 0.00000000000000
      LENGTH 128.91399999999999
      LOOP 0
      ALLTAKES 0
      SEL 0
      FADEIN 1 0.000000 0.000000 1 0
      FADEOUT 1 0.000000 0.000000 1 0
      MUTE 0
      IGUID {2BD157F2-7278-48F0-A16B-75E0F9D771A9}
      IID 3
      NAME "PART GUITAR"
      VOLPAN 1.000000 0.000000 1.000000 -1.000000
      SOFFS 0.00000000000000 0.00000000000000
      PLAYRATE 1.00000000000000 1 0.00000000000000 -1
      CHANMODE 0
      GUID {C7CEBDBA-9E2D-47A8-A17B-12D886657ED7}
      <SOURCE MIDI
        HASDATA 1 480 QN
        POOLEDEVTS {E659ECE1-AF0F-4608-B1F5-1B07FB04C0BB}
        <X 0 0
          /wNQQVJUIEdVSVRBUg==
        >
        <X 5760 0
          /wFbcGxheV0=
        >
        E 0 90 28 65
        E 0 90 3e 60
        E 0 90 4b 60
        E 0 90 58 60
        E 0 90 64 60
        E 120 80 3e 00
        E 0 80 4b 00
        E 0 80 58 00
        E 0 80 64 00
        E 600 90 4b 60
        E 0 90 58 60
        E 0 90 64 60
        E 120 80 4b 00
        E 0 80 58 00
        E 0 80 64 00
        E 360 90 55 60
        E 0 90 61 60
        E 120 80 55 00
        E 0 80 61 00
        E 120 90 3d 60
        E 0 90 4a 60
        E 0 90 57 60
        E 0 90 63 60
        E 960 80 3d 00
        E 0 80 4a 00
        E 0 80 57 00
        E 0 80 63 00
        E 240 90 57 60
        E 0 90 63 60
        E 120 80 57 00
        E 0 80 63 00
        E 120 90 3c 60
        E 0 90 48 60
        E 0 90 54 60
        E 0 90 60 60
        E 120 80 3c 00
        E 0 80 48 00
        E 0 80 54 00
        E 0 80 60 00
        E 360 90 49 60
        E 0 90 55 60
        E 0 90 61 60
        E 120 80 49 00
        E 0 80 55 00
        E 0 80 61 00
        E 360 90 3e 60
        E 0 90 4b 60
        E 0 90 58 60
        E 0 90 64 60
        E 120 80 3e 00
        E 0 80 4b 00
        E 0 80 58 00
        E 0 80 64 00
        E 600 90 4b 60
        E 0 90 58 60
        E 0 90 64 60
        E 120 80 4b 00
        E 0 80 58 00
        E 0 80 64 00
        E 840 90 3c 60
        E 0 90 48 60
        E 0 90 54 60
        E 0 90 60 60
        E 120 80 3c 00
        E 0 80 48 00
        E 0 80 54 00
        E 0 80 60 00
        E 360 90 54 60
        E 0 90 60 60
        E 120 80 54 00
        E 0 80 60 00
        E 120 90 49 60
        E 0 90 55 60
        E 0 90 61 60
        E 120 80 49 00
        E 0 80 55 00
        E 0 80 61 00
        E 360 90 3d 60
        E 0 90 4a 60
        E 0 90 56 60
        E 0 90 62 60
        E 120 80 3d 00
        E 0 80 4a 00
        E 0 80 56 00
        E 0 80 62 00
        E 600 90 55 60
        E 0 90 60 60
        E 120 80 55 00
        E 0 80 60 00
        E 120 90 3e 60
        E 0 90 4b 60
        E 0 90 58 60
        E 0 90 64 60
        E 120 80 3e 00
        E 0 80 4b 00
        E 0 80 58 00
        E 0 80 64 00
        E 600 90 4b 60
        E 0 90 58 60
        E 0 90 64 60
        E 120 80 4b 00
        E 0 80 58 00
        E 0 80 64 00
        E 360 90 55 60
        E 0 90 61 60
        E 120 80 55 00
        E 0 80 61 00
        E 120 90 3d 60
        E 0 90 4a 60
        E 0 90 57 60
        E 0 90 63 60
        E 960 80 3d 00
        E 0 80 4a 00
        E 0 80 57 00
        E 0 80 63 00
        E 240 90 57 60
        E 0 90 63 60
        E 120 80 57 00
        E 0 80 63 00
        E 120 90 3c 60
        E 0 90 48 60
        E 0 90 54 60
        E 0 90 60 60
        E 120 80 3c 00
        E 0 80 48 00
        E 0 80 54 00
        E 0 80 60 00
        E 360 90 49 60
        E 0 90 55 60
        E 0 90 61 60
        E 120 80 49 00
        E 0 80 55 00
        E 0 80 61 00
        E 360 90 3e 60
        E 0 90 4b 60
        E 0 90 58 60
        E 0 90 64 60
        E 120 80 3e 00
        E 0 80 4b 00
        E 0 80 58 00
        E 0 80 64 00
        E 600 90 4b 60
        E 0 90 58 60
        E 0 90 64 60
        E 120 80 4b 00
        E 0 80 58 00
        E 0 80 64 00
        E 840 90 3c 60
        E 0 90 48 60
        E 0 90 54 60
        E 0 90 60 60
        E 120 80 3c 00
        E 0 80 48 00
        E 0 80 54 00
        E 0 80 60 00
        E 360 90 64 60
        E 120 80 64 00
        E 120 90 49 60
        E 0 90 55 60
        E 0 90 61 60
        E 120 80 49 00
        E 0 80 55 00
        E 0 80 61 00
        E 120 90 64 60
        E 120 80 64 00
        E 63 80 28 00
        E 57 90 28 65
        E 0 90 3d 60
        E 0 90 4a 60
        E 0 90 56 60
        E 0 90 62 60
        E 120 80 3d 00
        E 0 80 4a 00
        E 0 80 56 00
        E 0 80 62 00
        E 63 80 28 00
        E 57 90 2d 67
        E 0 90 64 60
        E 120 80 64 00
        E 303 80 2d 00
        E 57 90 28 65
        E 0 90 55 60
        E 0 90 60 60
        E 120 80 55 00
        E 0 80 60 00
        E 120 90 3e 60
        E 0 90 4b 60
        E 0 90 58 60
        E 0 90 64 60
        E 0 90 74 60
        E 120 80 3e 00
        E 0 80 4b 00
        E 0 80 58 00
        E 0 80 64 00
        E 600 90 4b 60
        E 0 90 58 60
        E 0 90 64 60
        E 120 80 4b 00
        E 0 80 58 00
        E 0 80 64 00
        E 360 90 55 60
        E 0 90 61 60
        E 120 80 55 00
        E 0 80 61 00
        E 120 90 3d 60
        E 0 90 4a 60
        E 0 90 57 60
        E 0 90 63 60
        E 960 80 3d 00
        E 0 80 4a 00
        E 0 80 57 00
        E 0 80 63 00
        E 240 90 57 60
        E 0 90 63 60
        E 120 80 57 00
        E 0 80 63 00
        E 120 90 3c 60
        E 0 90 48 60
        E 0 90 54 60
        E 0 90 60 60
        E 120 80 3c 00
        E 0 80 48 00
        E 0 80 54 00
        E 0 80 60 00
        E 360 90 49 60
        E 0 90 55 60
        E 0 90 61 60
        E 120 80 49 00
        E 0 80 55 00
        E 0 80 61 00
        E 360 80 74 00
        E 0 90 3e 60
        E 0 90 4b 60
        E 0 90 58 60
        E 0 90 64 60
        E 120 80 3e 00
        E 0 80 4b 00
        E 0 80 58 00
        E 0 80 64 00
        E 600 90 4b 60
        E 0 90 58 60
        E 0 90 64 60
        E 120 80 4b 00
        E 0 80 58 00
        E 0 80 64 00
        E 783 80 28 00
        E 57 90 2d 67
        E 0 90 3c 60
        E 0 90 48 60
        E 0 90 54 60
        E 0 90 60 60
        E 120 80 3c 00
        E 0 80 48 00
        E 0 80 54 00
        E 0 80 60 00
        E 360 90 54 60
        E 0 90 64 60
        E 120 80 54 00
        E 0 80 64 00
        E 63 80 2d 00
        E 57 90 28 65
        E 0 90 49 60
        E 0 90 55 60
        E 0 90 60 60
        E 120 80 49 00
        E 0 80 55 00
        E 0 80 60 00
        E 360 90 3d 60
        E 0 90 4a 60
        E 0 90 56 60
        E 0 90 61 60
        E 120 80 3d 00
        E 0 80 4a 00
        E 0 80 56 00
        E 0 80 61 00
        E 600 90 55 60
        E 0 90 60 60
        E 120 80 55 00
        E 0 80 60 00
        E 120 90 3e 60
        E 0 90 4b 60
        E 0 90 58 60
        E 0 90 64 60
        E 120 80 3e 00
        E 0 80 4b 00
        E 0 80 58 00
        E 0 80 64 00
        E 600 90 4b 60
        E 0 90 58 60
        E 0 90 64 60
        E 120 80 4b 00
        E 0 80 58 00
        E 0 80 64 00
        E 360 90 55 60
        E 0 90 61 60
        E 120 80 55 00
        E 0 80 61 00
        E 120 90 3d 60
        E 0 90 4a 60
        E 0 90 57 60
        E 0 90 63 60
        E 960 80 3d 00
        E 0 80 4a 00
        E 0 80 57 00
        E 0 80 63 00
        E 240 90 57 60
        E 0 90 63 60
        E 120 80 57 00
        E 0 80 63 00
        E 120 90 3c 60
        E 0 90 48 60
        E 0 90 54 60
        E 0 90 60 60
        E 120 80 3c 00
        E 0 80 48 00
        E 0 80 54 00
        E 0 80 60 00
        E 360 90 49 60
        E 0 90 55 60
        E 0 90 61 60
        E 120 80 49 00
        E 0 80 55 00
        E 0 80 61 00
        E 360 90 3e 60
        E 0 90 4b 60
        E 0 90 58 60
        E 0 90 64 60
        E 120 80 3e 00
        E 0 80 4b 00
        E 0 80 58 00
        E 0 80 64 00
        E 600 90 4b 60
        E 0 90 58 60
        E 0 90 64 60
        E 120 80 4b 00
        E 0 80 58 00
        E 0 80 64 00
        E 783 80 28 00
        E 57 90 2d 67
        E 0 90 3c 60
        E 0 90 48 60
        E 0 90 54 60
        E 0 90 60 60
        E 120 80 3c 00
        E 0 80 48 00
        E 0 80 54 00
        E 0 80 60 00
        E 360 90 64 60
        E 120 80 64 00
        E 120 90 49 60
        E 0 90 55 60
        E 0 90 61 60
        E 120 80 49 00
        E 0 80 55 00
        E 0 80 61 00
        E 120 90 64 60
        E 120 80 64 00
        E 63 80 2d 00
        E 57 90 28 65
        E 0 90 3d 60
        E 0 90 4a 60
        E 0 90 56 60
        E 0 90 62 60
        E 120 80 3d 00
        E 0 80 4a 00
        E 0 80 56 00
        E 0 80 62 00
        E 63 80 28 00
        E 57 90 2d 67
        E 0 90 64 60
        E 120 80 64 00
        E 303 80 2d 00
        E 57 90 28 65
        E 183 80 28 00
        E 57 90 2d 6c
        E 0 90 40 60
        E 0 90 4a 60
        E 0 90 4b 60
        E 0 90 57 60
        E 0 90 58 60
        E 0 90 63 60
        E 0 90 64 60
        E 120 80 40 00
        E 0 80 4a 00
        E 0 80 4b 00
        E 0 80 57 00
        E 0 80 58 00
        E 0 80 63 00
        E 0 80 64 00
        E 543 80 2d 00
        E 57 90 38 6e
        E 0 90 49 60
        E 0 90 4a 60
        E 0 90 55 60
        E 0 90 57 60
        E 0 90 61 60
        E 0 90 63 60
        E 120 80 49 00
        E 0 80 4a 00
        E 0 80 55 00
        E 0 80 57 00
        E 0 80 61 00
        E 0 80 63 00
        E 543 80 38 00
        E 57 90 39 6f
        E 0 90 3f 60
        E 0 90 49 60
        E 0 90 4b 60
        E 0 90 56 60
        E 0 90 57 60
        E 0 90 62 60
        E 0 90 63 60
        E 1920 80 3f 00
        E 120 80 49 00
        E 0 80 4b 00
        E 120 80 56 00
        E 0 80 57 00
        E 0 80 62 00
        E 0 80 63 00
        E 183 80 39 00
        E 57 90 38 6e
        E 0 90 3e 60
        E 0 90 49 60
        E 0 90 4a 60
        E 0 90 55 60
        E 0 90 57 60
        E 0 90 61 60
        E 0 90 63 60
        E 0 90 74 60
        E 120 80 3e 00
        E 0 80 49 00
        E 0 80 4a 00
        E 0 80 55 00
        E 0 80 57 00
        E 0 80 61 00
        E 0 80 63 00
        E 543 80 38 00
        E 57 90 32 6a
        E 0 90 48 60
        E 0 90 4a 60
        E 0 90 55 60
        E 0 90 56 60
        E 0 90 61 60
        E 0 90 62 60
        E 120 80 48 00
        E 0 80 4a 00
        E 0 80 55 00
        E 0 80 56 00
        E 600 80 61 00
        E 0 80 62 00
        E 183 80 32 00
        E 57 90 28 65
        E 0 90 3c 60
        E 0 90 48 60
        E 0 90 49 60
        E 0 90 54 60
        E 0 90 56 60
        E 0 90 60 60
        E 0 90 62 60
        E 1680 80 3c 00
        E 120 80 48 00
        E 0 80 49 00
        E 120 80 54 00
        E 0 80 56 00
        E 0 80 60 00
        E 0 80 62 00
        E 183 80 28 00
        E 57 80 74 00
        E 0 90 2d 6c
        E 0 90 40 60
        E 0 90 4a 60
        E 0 90 4b 60
        E 0 90 57 60
        E 0 90 58 60
        E 0 90 63 60
        E 0 90 64 60
        E 120 80 40 00
        E 0 80 4a 00
        E 0 80 4b 00
        E 0 80 57 00
        E 0 80 58 00
        E 0 80 63 00
        E 0 80 64 00
        E 543 80 2d 00
        E 57 90 38 6e
        E 0 90 49 60
        E 0 90 4a 60
        E 0 90 55 60
        E 0 90 57 60
        E 0 90 61 60
        E 0 90 63 60
        E 120 80 49 00
        E 0 80 4a 00
        E 0 80 55 00
        E 0 80 57 00
        E 0 80 61 00
        E 0 80 63 00
        E 543 80 38 00
        E 57 90 39 6f
        E 0 90 3f 60
        E 0 90 49 60
        E 0 90 4b 60
        E 0 90 56 60
        E 0 90 57 60
        E 0 90 62 60
        E 0 90 63 60
        E 960 80 3f 00
        E 120 80 49 00
        E 0 80 4b 00
        E 120 80 56 00
        E 0 80 57 00
        E 0 80 62 00
        E 0 80 63 00
        E 183 80 39 00
        E 57 90 35 6c
        E 0 90 3c 60
        E 0 90 48 60
        E 0 90 49 60
        E 0 90 54 60
        E 0 90 56 60
        E 0 90 60 60
        E 0 90 62 60
        E 120 80 3c 00
        E 0 80 48 00
        E 0 80 49 00
        E 0 80 54 00
        E 0 80 56 00
        E 0 80 60 00
        E 0 80 62 00
        E 303 80 35 00
        E 57 90 32 6a
        E 0 90 4a 60
        E 0 90 4b 60
        E 0 90 56 60
        E 0 90 58 60
        E 0 90 62 60
        E 0 90 64 60
        E 120 80 4a 00
        E 0 80 4b 00
        E 0 80 56 00
        E 0 80 58 00
        E 0 80 62 00
        E 0 80 64 00
        E 303 80 32 00
        E 57 90 38 6e
        E 0 90 3e 60
        E 0 90 49 60
        E 0 90 4a 60
        E 0 90 55 60
        E 0 90 57 60
        E 0 90 61 60
        E 0 90 63 60
        E 120 80 3e 00
        E 0 80 49 00
        E 0 80 4a 00
        E 0 80 55 00
        E 0 80 57 00
        E 0 80 61 00
        E 0 80 63 00
        E 543 80 38 00
        E 57 90 34 6b
        E 0 90 48 60
        E 0 90 4a 60
        E 0 90 55 60
        E 0 90 56 60
        E 0 90 61 60
        E 0 90 62 60
        E 600 80 48 00
        E 0 80 4a 00
        E 120 80 55 00
        E 0 80 56 00
        E 0 80 61 00
        E 0 80 62 00
        E 183 80 34 00
        E 57 90 35 6c
        E 0 90 3f 60
        E 0 90 49 60
        E 0 90 4b 60
        E 0 90 55 60
        E 0 90 58 60
        E 0 90 61 60
        E 0 90 64 60
        E 1680 80 3f 00
        E 120 80 49 00
        E 0 80 4b 00
        E 120 80 55 00
        E 0 80 58 00
        E 0 80 61 00
        E 0 80 64 00
        E 183 80 35 00
        E 57 90 35 6c
        E 0 90 40 60
        E 0 90 4a 60
        E 0 90 4b 60
        E 0 90 57 60
        E 0 90 58 60
        E 0 90 63 60
        E 0 90 64 60
        E 120 80 40 00
        E 0 80 4a 00
        E 0 80 4b 00
        E 0 80 57 00
        E 0 80 58 00
        E 0 80 63 00
        E 0 80 64 00
        E 543 80 35 00
        E 57 90 38 6e
        E 0 90 49 60
        E 0 90 4a 60
        E 0 90 55 60
        E 0 90 57 60
        E 0 90 61 60
        E 0 90 63 60
        E 120 80 49 00
        E 0 80 4a 00
        E 0 80 55 00
        E 0 80 57 00
        E 0 80 61 00
        E 0 80 63 00
        E 543 80 38 00
        E 57 90 39 6f
        E 0 90 3f 60
        E 0 90 49 60
        E 0 90 4b 60
        E 0 90 56 60
        E 0 90 57 60
        E 0 90 62 60
        E 0 90 63 60
        E 1920 80 3f 00
        E 120 80 49 00
        E 0 80 4b 00
        E 120 80 56 00
        E 0 80 57 00
        E 0 80 62 00
        E 0 80 63 00
        E 183 80 39 00
        E 57 90 38 6e
        E 0 90 3e 60
        E 0 90 49 60
        E 0 90 4a 60
        E 0 90 55 60
        E 0 90 57 60
        E 0 90 61 60
        E 0 90 63 60
        E 120 80 3e 00
        E 0 80 49 00
        E 0 80 4a 00
        E 0 80 55 00
        E 0 80 57 00
        E 0 80 61 00
        E 0 80 63 00
        E 543 80 38 00
        E 57 90 31 6a
        E 0 90 48 60
        E 0 90 4a 60
        E 0 90 55 60
        E 0 90 56 60
        E 0 90 61 60
        E 0 90 62 60
        E 120 80 48 00
        E 0 80 4a 00
        E 0 80 55 00
        E 0 80 56 00
        E 480 80 61 00
        E 0 80 62 00
        E 303 80 31 00
        E 57 90 28 65
        E 0 90 3c 60
        E 0 90 48 60
        E 0 90 49 60
        E 0 90 54 60
        E 0 90 56 60
        E 0 90 60 60
        E 0 90 62 60
        E 1680 80 3c 00
        E 120 80 48 00
        E 0 80 49 00
        E 120 80 54 00
        E 0 80 56 00
        E 0 80 60 00
        E 0 80 62 00
        E 183 80 28 00
        E 57 90 35 6c
        E 0 90 40 60
        E 0 90 4a 60
        E 0 90 4b 60
        E 0 90 57 60
        E 0 90 58 60
        E 0 90 63 60
        E 0 90 64 60
        E 120 80 40 00
        E 0 80 4a 00
        E 0 80 4b 00
        E 0 80 57 00
        E 0 80 58 00
        E 0 80 63 00
        E 0 80 64 00
        E 543 80 35 00
        E 57 90 38 6e
        E 0 90 49 60
        E 0 90 4a 60
        E 0 90 55 60
        E 0 90 57 60
        E 0 90 61 60
        E 0 90 63 60
        E 120 80 49 00
        E 0 80 4a 00
        E 0 80 55 00
        E 0 80 57 00
        E 0 80 61 00
        E 0 80 63 00
        E 543 80 38 00
        E 57 90 39 6f
        E 0 90 3f 60
        E 0 90 49 60
        E 0 90 4b 60
        E 0 90 56 60
        E 0 90 57 60
        E 0 90 62 60
        E 0 90 63 60
        E 960 80 3f 00
        E 120 80 49 00
        E 0 80 4b 00
        E 120 80 56 00
        E 0 80 57 00
        E 0 80 62 00
        E 0 80 63 00
        E 183 80 39 00
        E 57 90 2d 6c
        E 0 90 3c 60
        E 0 90 48 60
        E 0 90 49 60
        E 0 90 54 60
        E 0 90 56 60
        E 0 90 60 60
        E 0 90 62 60
        E 120 80 3c 00
        E 0 80 48 00
        E 0 80 49 00
        E 0 80 54 00
        E 0 80 56 00
        E 0 80 60 00
        E 0 80 62 00
        E 302 80 2d 00
        E 57 90 32 6a
        E 0 90 4a 60
        E 0 90 4b 60
        E 0 90 56 60
        E 0 90 58 60
        E 0 90 62 60
        E 0 90 64 60
        E 120 80 4a 00
        E 0 80 4b 00
        E 0 80 56 00
        E 0 80 58 00
        E 0 80 62 00
        E 0 80 64 00
        E 304 80 32 00
        E 57 90 38 6e
        E 0 90 3e 60
        E 0 90 49 60
        E 0 90 4a 60
        E 0 90 55 60
        E 0 90 57 60
        E 0 90 61 60
        E 0 90 63 60
        E 120 80 3e 00
        E 0 80 49 00
        E 0 80 4a 00
        E 0 80 55 00
        E 0 80 57 00
        E 0 80 61 00
        E 0 80 63 00
        E 542 80 38 00
        E 57 90 34 6b
        E 1 90 48 60
        E 0 90 4a 60
        E 0 90 55 60
        E 0 90 56 60
        E 0 90 61 60
        E 0 90 62 60
        E 600 80 48 00
        E 0 80 4a 00
        E 120 80 55 00
        E 0 80 56 00
        E 0 80 61 00
        E 0 80 62 00
        E 183 80 34 00
        E 57 90 2d 6c
        E 0 90 3f 60
        E 0 90 49 60
        E 0 90 4b 60
        E 0 90 55 60
        E 0 90 58 60
        E 0 90 61 60
        E 0 90 64 60
        E 1680 80 3f 00
        E 120 80 49 00
        E 0 80 4b 00
        E 120 80 55 00
        E 0 80 58 00
        E 0 80 61 00
        E 0 80 64 00
        E 183 80 2d 00
        E 57 90 35 6c
        E 0 90 40 60
        E 0 90 4a 60
        E 0 90 4b 60
        E 0 90 57 60
        E 0 90 58 60
        E 0 90 63 60
        E 0 90 64 60
        E 0 90 74 60
        E 120 80 40 00
        E 0 80 4a 00
        E 0 80 4b 00
        E 0 80 57 00
        E 0 80 58 00
        E 0 80 63 00
        E 0 80 64 00
        E 543 80 35 00
        E 57 90 38 6e
        E 0 90 49 60
        E 0 90 4a 60
        E 0 90 55 60
        E 0 90 57 60
        E 0 90 61 60
        E 0 90 63 60
        E 120 80 49 00
        E 0 80 4a 00
        E 0 80 55 00
        E 0 80 57 00
        E 0 80 61 00
        E 0 80 63 00
        E 543 80 38 00
        E 57 90 39 6f
        E 0 90 3f 60
        E 0 90 49 60
        E 0 90 4b 60
        E 0 90 56 60
        E 0 90 57 60
        E 0 90 62 60
        E 0 90 63 60
        E 1920 80 3f 00
        E 120 80 49 00
        E 0 80 4b 00
        E 120 80 56 00
        E 0 80 57 00
        E 0 80 62 00
        E 0 80 63 00
        E 183 80 39 00
        E 57 80 74 00
        E 0 90 38 6e
        E 0 90 3e 60
        E 0 90 49 60
        E 0 90 4a 60
        E 0 90 55 60
        E 0 90 57 60
        E 0 90 61 60
        E 0 90 63 60
        E 120 80 3e 00
        E 0 80 49 00
        E 0 80 4a 00
        E 0 80 55 00
        E 0 80 57 00
        E 0 80 61 00
        E 0 80 63 00
        E 543 80 38 00
        E 57 90 32 6a
        E 0 90 48 60
        E 0 90 4a 60
        E 0 90 55 60
        E 0 90 56 60
        E 0 90 61 60
        E 0 90 62 60
        E 120 80 48 00
        E 0 80 4a 00
        E 0 80 55 00
        E 0 80 56 00
        E 480 80 61 00
        E 0 80 62 00
        E 303 80 32 00
        E 57 90 28 65
        E 0 90 3c 60
        E 0 90 48 60
        E 0 90 49 60
        E 0 90 54 60
        E 0 90 56 60
        E 0 90 60 60
        E 0 90 62 60
        E 1680 80 3c 00
        E 120 80 48 00
        E 0 80 49 00
        E 120 80 54 00
        E 0 80 56 00
        E 0 80 60 00
        E 0 80 62 00
        E 183 80 28 00
        E 57 90 2d 6c
        E 0 90 40 60
        E 0 90 4a 60
        E 0 90 4b 60
        E 0 90 57 60
        E 0 90 58 60
        E 0 90 63 60
        E 0 90 64 60
        E 120 80 40 00
        E 0 80 4a 00
        E 0 80 4b 00
        E 0 80 57 00
        E 0 80 58 00
        E 0 80 63 00
        E 0 80 64 00
        E 543 80 2d 00
        E 57 90 38 6e
        E 0 90 49 60
        E 0 90 4a 60
        E 0 90 55 60
        E 0 90 57 60
        E 0 90 61 60
        E 0 90 63 60
        E 120 80 49 00
        E 0 80 4a 00
        E 0 80 55 00
        E 0 80 57 00
        E 0 80 61 00
        E 0 80 63 00
        E 543 80 38 00
        E 57 90 39 6f
        E 0 90 3f 60
        E 0 90 49 60
        E 0 90 4b 60
        E 0 90 56 60
        E 0 90 57 60
        E 0 90 62 60
        E 0 90 63 60
        E 960 80 3f 00
        E 120 80 49 00
        E 0 80 4b 00
        E 120 80 56 00
        E 0 80 57 00
        E 0 80 62 00
        E 0 80 63 00
        E 183 80 39 00
        E 57 90 35 6c
        E 0 90 3c 60
        E 0 90 48 60
        E 0 90 49 60
        E 0 90 54 60
        E 0 90 56 60
        E 0 90 60 60
        E 0 90 62 60
        E 120 80 3c 00
        E 0 80 48 00
        E 0 80 49 00
        E 0 80 54 00
        E 0 80 56 00
        E 0 80 60 00
        E 0 80 62 00
        E 302 80 35 00
        E 57 90 32 6a
        E 0 90 4a 60
        E 0 90 4b 60
        E 0 90 56 60
        E 0 90 58 60
        E 0 90 62 60
        E 0 90 64 60
        E 120 80 4a 00
        E 0 80 4b 00
        E 0 80 56 00
        E 0 80 58 00
        E 0 80 62 00
        E 0 80 64 00
        E 304 80 32 00
        E 57 90 38 6e
        E 0 90 3e 60
        E 0 90 49 60
        E 0 90 4a 60
        E 0 90 55 60
        E 0 90 57 60
        E 0 90 61 60
        E 0 90 63 60
        E 120 80 3e 00
        E 0 80 49 00
        E 0 80 4a 00
        E 0 80 55 00
        E 0 80 57 00
        E 0 80 61 00
        E 0 80 63 00
        E 542 80 38 00
        E 57 90 34 6b
        E 1 90 48 60
        E 0 90 4a 60
        E 0 90 55 60
        E 0 90 56 60
        E 0 90 61 60
        E 0 90 62 60
        E 600 80 48 00
        E 0 80 4a 00
        E 120 80 55 00
        E 0 80 56 00
        E 0 80 61 00
        E 0 80 62 00
        E 183 80 34 00
        E 57 90 35 6c
        E 0 90 3f 60
        E 0 90 49 60
        E 0 90 4b 60
        E 0 90 55 60
        E 0 90 58 60
        E 0 90 61 60
        E 0 90 64 60
        <X 2160 0
          /wFbbWVsbG93XQ==
        >
        E 0 80 3f 00
        E 0 80 49 00
        E 0 80 4b 00
        E 0 80 55 00
        E 0 80 58 00
        E 0 80 61 00
        E 0 80 64 00
        E 0 90 74 60
        E 1143 80 35 00
        E 57 90 28 65
        E 0 90 55 60
        E 0 90 61 60
        E 120 80 55 00
        E 0 80 61 00
        E 120 90 3d 60
        E 0 90 4a 60
        E 0 90 56 60
        E 0 90 62 60
        E 120 80 3d 00
        E 0 80 4a 00
        E 0 80 56 00
        E 0 80 62 00
        E 120 90 58 60
        E 0 90 64 60
        E 120 80 58 00
        E 0 80 64 00
        E 360 90 55 60
        E 0 90 61 60
        E 120 80 55 00
        E 0 80 61 00
        E 120 90 56 60
        E 0 90 62 60
        E 120 80 56 00
        E 0 80 62 00
        E 120 90 3e 60
        E 0 90 4b 60
        E 0 90 57 60
        E 0 90 63 60
        E 720 80 74 00
        E 2160 80 3e 00
        E 0 80 4b 00
        E 120 80 28 00
        E 120 80 57 00
        E 0 80 63 00
        E 0 90 2d 67
        E 2880 90 4b 60
        E 0 90 57 60
        E 0 90 64 60
        E 120 80 4b 00
        E 0 80 57 00
        E 0 80 64 00
        E 360 90 56 60
        E 0 90 63 60
        E 120 80 56 00
        E 0 80 63 00
        E 120 90 3d 60
        E 0 90 49 60
        E 0 90 55 60
        E 0 90 62 60
        E 3600 80 3d 00
        E 240 80 49 00
        E 240 80 55 00
        E 0 80 62 00
        E 183 80 2d 00
        E 57 90 28 65
        E 2823 80 28 00
        E 57 90 35 6c
        E 0 90 55 60
        E 0 90 61 60
        E 120 80 55 00
        E 0 80 61 00
        E 120 90 3d 60
        E 0 90 4a 60
        E 0 90 56 60
        E 0 90 62 60
        E 120 80 3d 00
        E 0 80 4a 00
        E 0 80 56 00
        E 0 80 62 00
        E 120 90 58 60
        E 0 90 64 60
        E 120 80 58 00
        E 0 80 64 00
        E 360 90 55 60
        E 0 90 61 60
        E 120 80 55 00
        E 0 80 61 00
        E 120 90 56 60
        E 0 90 62 60
        E 120 80 56 00
        E 0 80 62 00
        E 0 90 3e 60
        E 0 90 4b 60
        E 120 90 57 60
        E 0 90 63 60
        E 2880 80 3e 00
        E 0 80 4b 00
        E 240 80 57 00
        E 0 80 63 00
        E 0 90 74 60
        E 183 80 35 00
        E 57 90 39 6f
        E 2640 90 49 60
        E 0 90 4b 60
        E 0 90 56 60
        E 0 90 57 60
        E 0 90 63 60
        E 0 90 64 60
        E 120 80 49 00
        E 0 80 4b 00
        E 0 80 56 00
        E 0 80 57 00
        E 0 80 63 00
        E 0 80 64 00
        E 303 80 39 00
        E 57 90 3b 70
        E 0 90 55 60
        E 0 90 57 60
        E 0 90 62 60
        E 0 90 63 60
        E 120 80 55 00
        E 0 80 57 00
        E 0 80 62 00
        E 0 80 63 00
        E 63 80 3b 00
        E 57 90 38 6e
        E 0 90 3d 60
        E 0 90 48 60
        E 0 90 4a 60
        E 0 90 54 60
        E 0 90 57 60
        E 0 90 60 60
        E 0 90 63 60
        E 240 80 74 00
        E 3360 80 3d 00
        E 240 80 48 00
        E 0 80 4a 00
        E 240 80 54 00
        E 0 80 57 00
        E 0 80 60 00
        E 0 80 63 00
        E 183 80 38 00
        E 57 90 28 65
        E 663 80 28 00
        E 57 90 2d 67
        E 903 80 2d 00
        <X 57 0
          /wFbcGxheV0=
        >
        E 0 90 35 6c
        E 0 90 40 60
        E 0 90 4a 60
        E 0 90 4b 60
        E 0 90 57 60
        E 0 90 58 60
        E 0 90 63 60
        E 0 90 64 60
        E 120 80 40 00
        E 0 80 4a 00
        E 0 80 4b 00
        E 0 80 57 00
        E 0 80 58 00
        E 0 80 63 00
        E 0 80 64 00
        E 543 80 35 00
        E 57 90 38 6e
        E 0 90 49 60
        E 0 90 4a 60
        E 0 90 55 60
        E 0 90 57 60
        E 0 90 61 60
        E 0 90 63 60
        E 120 80 49 00
        E 0 80 4a 00
        E 0 80 55 00
        E 0 80 57 00
        E 0 80 61 00
        E 0 80 63 00
        E 543 80 38 00
        E 57 90 39 6f
        E 0 90 3f 60
        E 0 90 49 60
        E 0 90 4b 60
        E 0 90 56 60
        E 0 90 57 60
        E 0 90 62 60
        E 0 90 63 60
        E 1920 80 3f 00
        E 120 80 49 00
        E 0 80 4b 00
        E 120 80 56 00
        E 0 80 57 00
        E 0 80 62 00
        E 0 80 63 00
        E 183 80 39 00
        E 57 90 38 6e
        E 0 90 3e 60
        E 0 90 49 60
        E 0 90 4a 60
        E 0 90 55 60
        E 0 90 57 60
        E 0 90 61 60
        E 0 90 63 60
        E 120 80 3e 00
        E 0 80 49 00
        E 0 80 4a 00
        E 0 80 55 00
        E 0 80 57 00
        E 0 80 61 00
        E 0 80 63 00
        E 543 80 38 00
        E 57 90 32 6a
        E 0 90 48 60
        E 0 90 4a 60
        E 0 90 55 60
        E 0 90 56 60
        E 0 90 61 60
        E 0 90 62 60
        E 600 80 48 00
        E 0 80 4a 00
        E 120 80 55 00
        E 0 80 56 00
        E 0 80 61 00
        E 0 80 62 00
        E 183 80 32 00
        E 57 90 28 65
        E 0 90 3c 60
        E 0 90 48 60
        E 0 90 49 60
        E 0 90 54 60
        E 0 90 56 60
        E 0 90 60 60
        E 0 90 62 60
        E 120 80 3c 00
        E 0 80 48 00
        E 0 80 49 00
        E 0 80 54 00
        E 0 80 56 00
        E 0 80 60 00
        E 0 80 62 00
        E 1983 80 28 00
        E 57 90 35 6c
        E 0 90 40 60
        E 0 90 4a 60
        E 0 90 4b 60
        E 0 90 57 60
        E 0 90 58 60
        E 0 90 63 60
        E 0 90 64 60
        E 120 80 40 00
        E 0 80 4a 00
        E 0 80 4b 00
        E 0 80 57 00
        E 0 80 58 00
        E 0 80 63 00
        E 0 80 64 00
        E 543 80 35 00
        E 57 90 38 6e
        E 0 90 49 60
        E 0 90 4a 60
        E 0 90 55 60
        E 0 90 57 60
        E 0 90 61 60
        E 0 90 63 60
        E 120 80 49 00
        E 0 80 4a 00
        E 0 80 55 00
        E 0 80 57 00
        E 0 80 61 00
        E 0 80 63 00
        E 543 80 38 00
        E 57 90 39 6f
        E 0 90 3f 60
        E 0 90 49 60
        E 0 90 4b 60
        E 0 90 56 60
        E 0 90 57 60
        E 0 90 62 60
        E 0 90 63 60
        E 960 80 3f 00
        E 120 80 49 00
        E 0 80 4b 00
        E 120 80 56 00
        E 0 80 57 00
        E 0 80 62 00
        E 0 80 63 00
        E 183 80 39 00
        E 57 90 35 6c
        E 0 90 3c 60
        E 0 90 48 60
        E 0 90 49 60
        E 0 90 54 60
        E 0 90 56 60
        E 0 90 60 60
        E 0 90 62 60
        E 120 80 3c 00
        E 0 80 48 00
        E 0 80 49 00
        E 0 80 54 00
        E 0 80 56 00
        E 0 80 60 00
        E 0 80 62 00
        E 303 80 35 00
        E 56 90 4a 60
        E 0 90 4b 60
        E 0 90 56 60
        E 0 90 58 60
        E 0 90 62 60
        E 0 90 64 60
        E 1 90 32 6a
        E 119 80 4a 00
        E 0 80 4b 00
        E 0 80 56 00
        E 0 80 58 00
        E 0 80 62 00
        E 0 80 64 00
        E 304 80 32 00
        E 57 90 38 6e
        E 0 90 3e 60
        E 0 90 49 60
        E 0 90 4a 60
        E 0 90 55 60
        E 0 90 57 60
        E 0 90 61 60
        E 0 90 63 60
        E 120 80 3e 00
        E 0 80 49 00
        E 0 80 4a 00
        E 0 80 55 00
        E 0 80 57 00
        E 0 80 61 00
        E 0 80 63 00
        E 543 80 38 00
        E 57 90 34 6b
        E 0 90 48 60
        E 0 90 4a 60
        E 0 90 55 60
        E 0 90 56 60
        E 0 90 61 60
        E 0 90 62 60
        E 600 80 48 00
        E 0 80 4a 00
        E 120 80 55 00
        E 0 80 56 00
        E 0 80 61 00
        E 0 80 62 00
        E 183 80 34 00
        E 57 90 35 6c
        E 0 90 3f 60
        E 0 90 49 60
        E 0 90 4b 60
        E 0 90 55 60
        E 0 90 58 60
        E 0 90 61 60
        E 0 90 64 60
        E 1680 80 3f 00
        E 120 80 49 00
        E 0 80 4b 00
        E 120 80 55 00
        E 0 80 58 00
        E 0 80 61 00
        E 0 80 64 00
        E 183 80 35 00
        E 57 90 35 6c
        E 0 90 40 60
        E 0 90 4a 60
        E 0 90 4b 60
        E 0 90 57 60
        E 0 90 58 60
        E 0 90 63 60
        E 0 90 64 60
        E 0 90 74 60
        E 120 80 40 00
        E 0 80 4a 00
        E 0 80 4b 00
        E 0 80 57 00
        E 0 80 58 00
        E 0 80 63 00
        E 0 80 64 00
        E 543 80 35 00
        E 57 90 38 6e
        E 0 90 49 60
        E 0 90 4a 60
        E 0 90 55 60
        E 0 90 57 60
        E 0 90 61 60
        E 0 90 63 60
        E 120 80 49 00
        E 0 80 4a 00
        E 0 80 55 00
        E 0 80 57 00
        E 0 80 61 00
        E 0 80 63 00
        E 543 80 38 00
        E 57 90 39 6f
        E 0 90 3f 60
        E 0 90 49 60
        E 0 90 4b 60
        E 0 90 56 60
        E 0 90 57 60
        E 0 90 62 60
        E 0 90 63 60
        E 480 80 74 00
        E 1440 80 3f 00
        E 120 80 49 00
        E 0 80 4b 00
        E 120 80 56 00
        E 0 80 57 00
        E 0 80 62 00
        E 0 80 63 00
        E 183 80 39 00
        E 57 90 38 6e
        E 0 90 3e 60
        E 0 90 49 60
        E 0 90 4a 60
        E 0 90 55 60
        E 0 90 57 60
        E 0 90 61 60
        E 0 90 63 60
        E 120 80 3e 00
        E 0 80 49 00
        E 0 80 4a 00
        E 0 80 55 00
        E 0 80 57 00
        E 0 80 61 00
        E 0 80 63 00
        E 543 80 38 00
        E 57 90 32 6a
        E 0 90 48 60
        E 0 90 4a 60
        E 0 90 55 60
        E 0 90 56 60
        E 0 90 61 60
        E 0 90 62 60
        E 120 80 48 00
        E 0 80 4a 00
        E 0 80 55 00
        E 0 80 56 00
        E 0 80 61 00
        E 0 80 62 00
        E 600 90 3c 60
        E 0 90 48 60
        E 0 90 49 60
        E 0 90 54 60
        E 0 90 56 60
        E 0 90 60 60
        E 0 90 62 60
        E 183 80 32 00
        E 57 90 28 65
        E 1680 80 3c 00
        E 120 80 48 00
        E 0 80 49 00
        E 120 80 54 00
        E 0 80 56 00
        E 0 80 60 00
        E 0 80 62 00
        E 183 80 28 00
        E 57 90 35 6c
        E 0 90 40 60
        E 0 90 4a 60
        E 0 90 4b 60
        E 0 90 57 60
        E 0 90 58 60
        E 0 90 63 60
        E 0 90 64 60
        E 120 80 40 00
        E 0 80 4a 00
        E 0 80 4b 00
        E 0 80 57 00
        E 0 80 58 00
        E 0 80 63 00
        E 0 80 64 00
        E 543 80 35 00
        E 57 90 38 6e
        E 0 90 49 60
        E 0 90 4a 60
        E 0 90 55 60
        E 0 90 57 60
        E 0 90 61 60
        E 0 90 63 60
        E 120 80 49 00
        E 0 80 4a 00
        E 0 80 55 00
        E 0 80 57 00
        E 0 80 61 00
        E 0 80 63 00
        E 543 80 38 00
        E 57 90 39 6f
        E 0 90 3f 60
        E 0 90 49 60
        E 0 90 4b 60
        E 0 90 56 60
        E 0 90 57 60
        E 0 90 62 60
        E 0 90 63 60
        E 960 80 3f 00
        E 120 80 49 00
        E 0 80 4b 00
        E 120 80 56 00
        E 0 80 57 00
        E 0 80 62 00
        E 0 80 63 00
        E 183 80 39 00
        E 57 90 35 6c
        E 0 90 3c 60
        E 0 90 48 60
        E 0 90 49 60
        E 0 90 54 60
        E 0 90 56 60
        E 0 90 60 60
        E 0 90 62 60
        E 120 80 3c 00
        E 0 80 48 00
        E 0 80 49 00
        E 0 80 54 00
        E 0 80 56 00
        E 0 80 60 00
        E 0 80 62 00
        E 303 80 35 00
        E 56 90 4a 60
        E 0 90 4b 60
        E 0 90 56 60
        E 0 90 58 60
        E 0 90 62 60
        E 0 90 64 60
        E 1 90 32 6a
        E 119 80 4a 00
        E 0 80 4b 00
        E 0 80 56 00
        E 0 80 58 00
        E 0 80 62 00
        E 0 80 64 00
        E 304 80 32 00
        E 57 90 38 6e
        E 0 90 3e 60
        E 0 90 49 60
        E 0 90 4a 60
        E 0 90 55 60
        E 0 90 57 60
        E 0 90 61 60
        E 0 90 63 60
        E 120 80 3e 00
        E 0 80 49 00
        E 0 80 4a 00
        E 0 80 55 00
        E 0 80 57 00
        E 0 80 61 00
        E 0 80 63 00
        E 543 80 38 00
        E 57 90 34 6b
        E 0 90 48 60
        E 0 90 4a 60
        E 0 90 55 60
        E 0 90 56 60
        E 0 90 61 60
        E 0 90 62 60
        E 600 80 48 00
        E 0 80 4a 00
        E 120 80 55 00
        E 0 80 56 00
        E 0 80 61 00
        E 0 80 62 00
        E 183 80 34 00
        E 57 90 35 6c
        E 0 90 3f 60
        E 0 90 49 60
        E 0 90 4b 60
        E 0 90 55 60
        E 0 90 58 60
        E 0 90 61 60
        E 0 90 64 60
        E 1680 80 3f 00
        E 120 80 49 00
        E 0 80 4b 00
        E 120 80 55 00
        E 0 80 58 00
        E 0 80 61 00
        E 0 80 64 00
        E 183 80 35 00
        <X 57 0
          /wFbaW50ZW5zZV0=
        >
        E 0 90 28 65
        E 0 90 3e 60
        E 0 90 4b 60
        E 0 90 58 60
        E 0 90 64 60
        E 120 80 3e 00
        E 0 80 4b 00
        E 0 80 58 00
        E 0 80 64 00
        E 120 90 64 60
        E 120 80 64 00
        E 360 90 58 60
        E 0 90 64 60
        E 120 80 58 00
        E 0 80 64 00
        E 120 90 3c 60
        E 0 90 49 60
        E 0 90 55 60
        E 0 90 61 60
        E 120 80 3c 00
        E 0 80 49 00
        E 0 80 55 00
        E 0 80 61 00
        E 360 90 4b 60
        E 0 90 57 60
        E 0 90 63 60
        E 120 80 4b 00
        E 0 80 57 00
        E 0 80 63 00
        E 4200 90 3c 60
        E 0 90 49 60
        E 0 90 55 60
        E 0 90 61 60
        E 120 80 3c 00
        E 0 80 49 00
        E 0 80 55 00
        E 0 80 61 00
        E 600 90 4a 60
        E 0 90 56 60
        E 0 90 62 60
        E 120 80 4a 00
        E 0 80 56 00
        E 0 80 62 00
        E 600 90 4c 60
        E 0 90 58 60
        E 0 90 64 60
        E 120 80 4c 00
        E 0 80 58 00
        E 0 80 64 00
        E 360 90 3e 60
        E 0 90 4b 60
        E 0 90 57 60
        E 0 90 63 60
        E 0 90 74 60
        E 120 80 3e 00
        E 0 80 4b 00
        E 0 80 57 00
        E 0 80 63 00
        E 120 90 63 60
        E 120 80 63 00
        E 360 90 57 60
        E 0 90 63 60
        E 120 80 57 00
        E 0 80 63 00
        E 120 90 3d 60
        E 0 90 49 60
        E 0 90 55 60
        E 0 90 61 60
        E 120 80 3d 00
        E 0 80 49 00
        E 0 80 55 00
        E 0 80 61 00
        E 360 90 3c 60
        E 0 90 48 60
        E 0 90 54 60
        E 0 90 60 60
        E 120 80 3c 00
        E 0 80 48 00
        E 0 80 54 00
        E 0 80 60 00
        E 360 80 74 00
        E 4320 90 3c 60
        E 0 90 49 60
        E 0 90 55 60
        E 0 90 61 60
        E 120 80 3c 00
        E 0 80 49 00
        E 0 80 55 00
        E 0 80 61 00
        E 600 90 4a 60
        E 0 90 56 60
        E 0 90 62 60
        E 120 80 4a 00
        E 0 80 56 00
        E 0 80 62 00
        E 543 80 28 00
        E 57 90 2d 67
        E 0 90 3e 60
        E 0 90 4b 60
        E 0 90 58 60
        E 0 90 64 60
        E 120 80 3e 00
        E 0 80 4b 00
        E 0 80 58 00
        E 0 80 64 00
        E 120 90 64 60
        E 120 80 64 00
        E 360 90 58 60
        E 0 90 64 60
        E 120 80 58 00
        E 0 80 64 00
        E 120 90 3c 60
        E 0 90 49 60
        E 0 90 55 60
        E 0 90 61 60
        E 120 80 3c 00
        E 0 80 49 00
        E 0 80 55 00
        E 0 80 61 00
        E 360 90 4b 60
        E 0 90 57 60
        E 0 90 63 60
        E 120 80 4b 00
        E 0 80 57 00
        E 0 80 63 00
        E 5640 90 49 60
        E 0 90 55 60
        E 0 90 61 60
        E 120 80 49 00
        E 0 80 55 00
        E 0 80 61 00
        E 120 90 56 60
        E 0 90 62 60
        E 120 80 56 00
        E 0 80 62 00
        E 120 90 3e 60
        E 0 90 4b 60
        E 0 90 58 60
        E 0 90 64 60
        E 120 80 3e 00
        E 0 80 4b 00
        E 0 80 58 00
        E 0 80 64 00
        E 120 90 64 60
        E 120 80 64 00
        E 360 90 58 60
        E 0 90 64 60
        E 120 80 58 00
        E 0 80 64 00
        E 120 90 3c 60
        E 0 90 49 60
        E 0 90 55 60
        E 0 90 61 60
        E 120 80 3c 00
        E 0 80 49 00
        E 0 80 55 00
        E 0 80 61 00
        E 360 90 4b 60
        E 0 90 57 60
        E 0 90 63 60
        E 120 80 4b 00
        E 0 80 57 00
        E 0 80 63 00
        E 600 90 4b 60
        E 0 90 57 60
        E 0 90 63 60
        E 120 80 4b 00
        E 0 80 57 00
        E 0 80 63 00
        E 360 90 57 60
        E 0 90 63 60
        E 120 80 57 00
        E 0 80 63 00
        E 120 90 3c 60
        E 0 90 48 60
        E 0 90 54 60
        E 0 90 60 60
        E 120 80 3c 00
        E 0 80 48 00
        E 0 80 54 00
        E 0 80 60 00
        E 360 90 3d 60
        E 0 90 49 60
        E 0 90 55 60
        E 0 90 61 60
        E 120 80 3d 00
        E 0 80 49 00
        E 0 80 55 00
        E 0 80 61 00
        E 600 90 49 60
        E 0 90 55 60
        E 0 90 61 60
        E 120 80 49 00
        E 0 80 55 00
        E 0 80 61 00
        E 360 90 55 60
        E 0 90 61 60
        E 120 80 55 00
        E 0 80 61 00
        E 120 90 3e 60
        E 0 90 4a 60
        E 0 90 56 60
        E 0 90 62 60
        E 120 80 3e 00
        E 0 80 4a 00
        E 0 80 56 00
        E 0 80 62 00
        E 360 90 55 60
        E 0 90 61 60
        E 120 80 55 00
        E 0 80 61 00
        E 120 90 4b 60
        E 0 90 57 60
        E 0 90 63 60
        E 120 80 4b 00
        E 0 80 57 00
        E 0 80 63 00
        E 360 90 56 60
        E 0 90 62 60
        E 120 80 56 00
        E 0 80 62 00
        E 120 90 3e 60
        E 0 90 4a 60
        E 0 90 57 60
        E 0 90 63 60
        E 120 80 3e 00
        E 0 80 4a 00
        E 0 80 57 00
        E 0 80 63 00
        E 360 90 56 60
        E 0 90 62 60
        E 120 80 56 00
        E 0 80 62 00
        E 63 80 2d 00
        E 57 90 35 6c
        E 0 90 4c 60
        E 0 90 58 60
        E 0 90 64 60
        E 120 80 4c 00
        E 0 80 58 00
        E 0 80 64 00
        E 359 90 58 60
        E 0 90 64 60
        E 120 80 58 00
        E 0 80 64 00
        E 121 90 3f 60
        E 0 90 4b 60
        E 0 90 57 60
        E 0 90 63 60
        E 120 80 3f 00
        E 0 80 4b 00
        E 0 80 57 00
        E 0 80 63 00
        <X 120 0
          /wFbaWRsZV9yZWFsdGltZV0=
        >
        E 0 80 35 00
        E 5519 b0 7b 00
        GUID {662C7393-2020-45B1-955E-9E3CDF10C28B}
        IGNTEMPO 0 120.00000000 4 4
        SRCCOLOR 182
        VELLANE 131 128 60
        COLORMAP "C:\Program Files\REAPER (x64)\Data\color_maps\rockband_guitarbass.png"
        CFGEDITVIEW -1463.167638 69.848485 0 12 0 0 0
        CFGEDIT 1 1 0 1 1 0 1 1 1 1 1 0.25000000 -8 -8 1544 872 0 2 1 1 0.00000000 0 1 0 0 0.500000 0 0 1.000000 64
        KEYSNAP 0 6 "102030050700" 0 "Pentatonic"
        EVTFILTER 0 -1 -1 -1 -1 0 1 0 0 -1.00000000 -1.00000000
      >
    >
  >
  <TRACK '{0C70FFF5-32E8-48F9-85F8-D26388C64E55}'
    NAME "guitar"
    PEAKCOL 16576
    BEAT -1
    AUTOMODE 0
    VOLPAN 1.00000000000000 0.00000000000000 -1.00000000000000 -1.00000000000000 1.00000000000000
    MUTESOLO 0 0 0
    IPHASE 0
    ISBUS 2 -1
    BUSCOMP 0 0
    SHOWINMIX 1 0.666700 0.500000 1 0.500000 -1 -1 -1
    FREEMODE 0
    SEL 0
    REC 0 0 0 0 0 0 0
    VU 2
    TRACKHEIGHT 0 0
    INQ 0 0 0 0.5000000000 100 0 0 100
    NCHAN 2
    FX 1
    TRACKID {0C70FFF5-32E8-48F9-85F8-D26388C64E55}
    PERF 0
    MIDIOUT -1
    MAINSEND 1 0
    <ITEM
      POSITION 0.00000000000000
      SNAPOFFS 0.00000000000000
      LENGTH 128.91399999999999
      LOOP 0
      ALLTAKES 0
      SEL 0
      FADEIN 1 0.000000 0.000000 1 0
      FADEOUT 1 0.000000 0.000000 1 0
      MUTE 0
      IGUID {6F52B397-E03E-4D20-B179-BF2E0A150C77}
      IID 17
      NAME "guitar.wav"
      VOLPAN 1.000000 0.000000 1.000000 -1.000000
      SOFFS 0.00000000000000
      PLAYRATE 1.00000000000000 1 0.00000000000000 -1
      CHANMODE 0
      GUID {9DF93ED5-1CD6-4F82-8959-3694BD168C74}
      <SOURCE WAVE
        FILE "C:\Users\Ruggery\Documents\Visual Studio Code\Projects\ruggy-customs-projects\songs\passport\wav\guitar.wav"
      >
    >
  >
  <TRACK '{B7C7E473-6483-4B2C-BD4D-B843C400694C}'
    NAME "PART KEYS"
    PEAKCOL 16576
    BEAT -1
    AUTOMODE 0
    VOLPAN 1.00000000000000 0.00000000000000 -1.00000000000000 -1.00000000000000 1.00000000000000
    MUTESOLO 0 0 0
    IPHASE 0
    ISBUS 1 1
    BUSCOMP 0 0
    SHOWINMIX 1 0.666700 0.500000 1 0.500000 -1 -1 -1
    FREEMODE 0
    SEL 0
    REC 0 0 0 0 0 0 0
    VU 2
    TRACKHEIGHT 0 0
    INQ 0 0 0 0.5000000000 100 0 0 100
    NCHAN 2
    FX 1
    TRACKID {B7C7E473-6483-4B2C-BD4D-B843C400694C}
    PERF 0
    MIDIOUT -1
    <MIDINOTENAMES
      0 127 "TRILL MARKER"
      0 125 "---"
      0 124 "BRE"
      0 123 "BRE"
      0 122 "BRE"
      0 121 "BRE"
      0 120 "BRE (use all 5)"
      0 119 "----"
      0 116 "OVERDRIVE"
      0 115 "----"
      0 103 "Solo Marker"
      0 102 "Force HOPO Off"
      0 101 "Force HOPO On"
      0 100 "EXPERT Orange"
      0 99 "EXPERT Blue"
      0 98 "EXPERT Yellow"
      0 97 "EXPERT Red"
      0 96 "EXPERT Green"
      0 95 "----"
      0 90 "Force HOPO Off"
      0 89 "Force HOPO On"
      0 88 "HARD Orange"
      0 87 "HARD Blue"
      0 86 "HARD Yellow"
      0 85 "HARD Red"
      0 84 "HARD Green"
      0 77 "----"
      0 76 "MEDIUM Orange"
      0 75 "MEDIUM Blue"
      0 74 "MEDIUM Yellow"
      0 73 "MEDIUM Red"
      0 72 "MEDIUM Green"
      0 65 "----"
      0 64 "EASY Orange"
      0 63 "EASY Blue"
      0 62 "EASY Yellow"
      0 61 "EASY Red"
      0 60 "EASY Green"
    >
    MAINSEND 1 0
    <FXCHAIN
      WNDRECT 0 43 891 559
      SHOW 0
      LASTSEL 0
      DOCKED 0
      BYPASS 0 0
      <VST "VSTi: RBN Preview (RBN)" "rbprev_vst64.dll" 0 ""
        dnBicu5e7f4AAAAAAgAAAAEAAAAAAAAAAgAAAAAAAAAEAAAAAQAAAA==
        AAAQAAMAqgAAABAAAAA=
      >
      FLOATPOS 0 0 0 0
      FXID {74A509B1-8C1B-4241-B2BB-02D2E95B770D}
      WAK 0
    >
    <ITEM
      POSITION 0.00000000000000
      SNAPOFFS 0.00000000000000
      LENGTH 128.91399999999999
      LOOP 0
      ALLTAKES 0
      SEL 0
      FADEIN 1 0.000000 0.000000 1 0
      FADEOUT 1 0.000000 0.000000 1 0
      MUTE 0
      IGUID {C250BA1D-B104-4013-BEAB-CE1167243291}
      IID 4
      NAME "PART KEYS"
      VOLPAN 1.000000 0.000000 1.000000 -1.000000
      SOFFS 0.00000000000000 0.00000000000000
      PLAYRATE 1.00000000000000 1 0.00000000000000 -1
      CHANMODE 0
      GUID {306B4B8F-8B53-469C-9E33-7ABC97814CA4}
      <SOURCE MIDI
        HASDATA 1 480 QN
        POOLEDEVTS {21667FDB-DDD5-41B5-AC67-3908CDDDCFBB}
        <X 0 0
          /wNQQVJUIEtFWVM=
        >
        <X 3840 0
          /wFbaWRsZV0=
        >
        <X 16800 0
          /wFbcGxheV0=
        >
        E 480 90 62 60
        E 0 90 74 60
        E 0 90 56 60
        E 0 90 4a 60
        E 0 90 3d 60
        E 120 80 62 00
        E 0 80 56 00
        E 0 80 4a 00
        E 0 80 3d 00
        E 120 90 61 60
        E 120 80 61 00
        E 120 90 63 60
        E 0 90 57 60
        E 120 80 63 00
        E 0 80 57 00
        E 120 90 61 60
        E 120 80 61 00
        E 120 90 64 60
        E 0 90 58 60
        E 0 90 4b 60
        E 120 80 64 00
        E 0 80 58 00
        E 0 80 4b 00
        E 120 90 61 60
        E 120 80 61 00
        E 120 90 61 60
        E 0 90 55 60
        E 120 80 61 00
        E 0 80 55 00
        E 120 90 60 60
        E 120 80 60 00
        E 120 90 60 60
        E 0 90 54 60
        E 0 90 48 60
        E 0 90 3c 60
        E 120 80 60 00
        E 0 80 54 00
        E 0 80 48 00
        E 0 80 3c 00
        E 120 90 60 60
        E 120 80 60 00
        E 120 90 62 60
        E 0 90 56 60
        E 120 80 62 00
        E 0 80 56 00
        E 120 90 60 60
        E 120 80 60 00
        E 120 90 63 60
        E 0 90 57 60
        E 0 90 4b 60
        E 120 80 63 00
        E 0 80 57 00
        E 0 80 4b 00
        E 120 90 61 60
        E 120 80 61 00
        E 120 90 61 60
        E 0 90 55 60
        E 120 80 61 00
        E 0 80 55 00
        E 120 90 61 60
        E 120 80 61 00
        E 120 80 74 00
        E 0 90 62 60
        E 0 90 56 60
        E 0 90 4a 60
        E 0 90 3d 60
        E 120 80 62 00
        E 0 80 56 00
        E 0 80 4a 00
        E 0 80 3d 00
        E 120 90 61 60
        E 120 80 61 00
        E 120 90 63 60
        E 0 90 57 60
        E 120 80 63 00
        E 0 80 57 00
        E 120 90 61 60
        E 120 80 61 00
        E 120 90 64 60
        E 0 90 58 60
        E 0 90 4b 60
        E 120 80 64 00
        E 0 80 58 00
        E 0 80 4b 00
        E 120 90 61 60
        E 120 80 61 00
        E 120 90 61 60
        E 0 90 55 60
        E 120 80 61 00
        E 0 80 55 00
        E 120 90 60 60
        E 120 80 60 00
        E 120 90 60 60
        E 0 90 54 60
        E 0 90 48 60
        E 0 90 3c 60
        E 120 80 60 00
        E 0 80 54 00
        E 0 80 48 00
        E 0 80 3c 00
        E 120 90 60 60
        E 120 80 60 00
        E 120 90 62 60
        E 0 90 56 60
        E 120 80 62 00
        E 0 80 56 00
        E 120 90 60 60
        E 120 80 60 00
        E 120 90 63 60
        E 0 90 57 60
        E 0 90 4b 60
        E 120 80 63 00
        E 0 80 57 00
        E 0 80 4b 00
        E 120 90 61 60
        E 120 80 61 00
        E 120 90 61 60
        E 0 90 55 60
        E 120 80 61 00
        E 0 80 55 00
        E 120 90 61 60
        E 120 80 61 00
        E 120 90 62 60
        E 0 90 56 60
        E 0 90 4a 60
        E 0 90 3d 60
        E 120 80 62 00
        E 0 80 56 00
        E 0 80 4a 00
        E 0 80 3d 00
        E 120 90 61 60
        E 120 80 61 00
        E 120 90 63 60
        E 0 90 57 60
        E 120 80 63 00
        E 0 80 57 00
        E 120 90 61 60
        E 120 80 61 00
        E 120 90 64 60
        E 0 90 58 60
        E 0 90 4b 60
        E 120 80 64 00
        E 0 80 58 00
        E 0 80 4b 00
        E 120 90 61 60
        E 120 80 61 00
        E 120 90 61 60
        E 0 90 55 60
        E 120 80 61 00
        E 0 80 55 00
        E 120 90 60 60
        E 120 80 60 00
        E 120 90 60 60
        E 0 90 54 60
        E 0 90 48 60
        E 0 90 3c 60
        E 120 80 60 00
        E 0 80 54 00
        E 0 80 48 00
        E 0 80 3c 00
        E 120 90 60 60
        E 120 80 60 00
        E 120 90 62 60
        E 0 90 56 60
        E 120 80 62 00
        E 0 80 56 00
        E 120 90 60 60
        E 120 80 60 00
        E 120 90 63 60
        E 0 90 57 60
        E 0 90 4b 60
        E 120 80 63 00
        E 0 80 57 00
        E 0 80 4b 00
        E 120 90 61 60
        E 120 80 61 00
        E 120 90 61 60
        E 0 90 55 60
        E 120 80 61 00
        E 0 80 55 00
        E 120 90 61 60
        E 120 80 61 00
        E 120 90 62 60
        E 0 90 56 60
        E 0 90 4a 60
        E 0 90 3d 60
        E 120 80 62 00
        E 0 80 56 00
        E 0 80 4a 00
        E 0 80 3d 00
        E 120 90 61 60
        E 120 80 61 00
        E 120 90 63 60
        E 0 90 57 60
        E 120 80 63 00
        E 0 80 57 00
        E 120 90 61 60
        E 120 80 61 00
        E 120 90 64 60
        E 0 90 58 60
        E 0 90 4b 60
        E 120 80 64 00
        E 0 80 58 00
        E 0 80 4b 00
        E 120 90 61 60
        E 120 80 61 00
        E 120 90 61 60
        E 0 90 55 60
        E 120 80 61 00
        E 0 80 55 00
        E 120 90 60 60
        E 120 80 60 00
        E 120 90 60 60
        E 0 90 54 60
        E 0 90 48 60
        E 0 90 3c 60
        E 120 80 60 00
        E 0 80 54 00
        E 0 80 48 00
        E 0 80 3c 00
        E 120 90 60 60
        E 120 80 60 00
        E 120 90 62 60
        E 0 90 56 60
        E 120 80 62 00
        E 0 80 56 00
        E 120 90 60 60
        E 120 80 60 00
        E 120 90 63 60
        E 0 90 57 60
        E 0 90 4b 60
        E 120 80 63 00
        E 0 80 57 00
        E 0 80 4b 00
        E 120 90 61 60
        E 120 80 61 00
        E 120 90 61 60
        E 0 90 55 60
        E 120 80 61 00
        E 0 80 55 00
        E 120 90 61 60
        E 120 80 61 00
        E 120 90 62 60
        E 0 90 56 60
        E 0 90 4a 60
        E 0 90 3d 60
        E 120 80 62 00
        E 0 80 56 00
        E 0 80 4a 00
        E 0 80 3d 00
        E 120 90 61 60
        E 120 80 61 00
        E 120 90 63 60
        E 0 90 57 60
        E 120 80 63 00
        E 0 80 57 00
        E 120 90 61 60
        E 120 80 61 00
        E 120 90 64 60
        E 0 90 58 60
        E 0 90 4b 60
        E 120 80 64 00
        E 0 80 58 00
        E 0 80 4b 00
        E 120 90 61 60
        E 120 80 61 00
        E 120 90 61 60
        E 0 90 55 60
        E 120 80 61 00
        E 0 80 55 00
        E 120 90 60 60
        E 120 80 60 00
        E 120 90 60 60
        E 0 90 54 60
        E 0 90 48 60
        E 0 90 3c 60
        E 120 80 60 00
        E 0 80 54 00
        E 0 80 48 00
        E 0 80 3c 00
        E 120 90 60 60
        E 120 80 60 00
        E 120 90 62 60
        E 0 90 56 60
        E 120 80 62 00
        E 0 80 56 00
        E 120 90 60 60
        E 120 80 60 00
        E 120 90 63 60
        E 0 90 57 60
        E 0 90 4b 60
        E 120 80 63 00
        E 0 80 57 00
        E 0 80 4b 00
        E 120 90 61 60
        E 120 80 61 00
        E 120 90 61 60
        E 0 90 55 60
        E 120 80 61 00
        E 0 80 55 00
        E 120 90 61 60
        E 120 80 61 00
        E 120 90 62 60
        E 0 90 74 60
        E 0 90 56 60
        E 0 90 4a 60
        E 0 90 3d 60
        E 120 80 62 00
        E 0 80 56 00
        E 0 80 4a 00
        E 0 80 3d 00
        E 120 90 61 60
        E 120 80 61 00
        E 120 90 63 60
        E 0 90 57 60
        E 120 80 63 00
        E 0 80 57 00
        E 120 90 61 60
        E 120 80 61 00
        E 120 90 64 60
        E 0 90 58 60
        E 0 90 4b 60
        E 120 80 64 00
        E 0 80 58 00
        E 0 80 4b 00
        E 120 90 61 60
        E 120 80 61 00
        E 120 90 61 60
        E 0 90 55 60
        E 120 80 61 00
        E 0 80 55 00
        E 120 90 60 60
        E 120 80 60 00
        E 120 90 60 60
        E 0 90 54 60
        E 0 90 48 60
        E 0 90 3c 60
        E 120 80 60 00
        E 0 80 54 00
        E 0 80 48 00
        E 0 80 3c 00
        E 120 90 60 60
        E 120 80 60 00
        E 120 90 62 60
        E 0 90 56 60
        E 120 80 62 00
        E 0 80 56 00
        E 120 90 60 60
        E 120 80 60 00
        E 120 90 63 60
        E 0 90 57 60
        E 0 90 4b 60
        E 120 80 63 00
        E 0 80 57 00
        E 0 80 4b 00
        E 120 90 61 60
        E 120 80 61 00
        E 120 90 61 60
        E 0 90 55 60
        E 120 80 61 00
        E 0 80 55 00
        E 120 90 61 60
        E 120 80 61 00
        E 120 80 74 00
        E 0 90 62 60
        E 0 90 56 60
        E 0 90 4a 60
        E 0 90 3d 60
        E 120 80 62 00
        E 0 80 56 00
        E 0 80 4a 00
        E 0 80 3d 00
        E 120 90 61 60
        E 120 80 61 00
        E 120 90 63 60
        E 0 90 57 60
        E 120 80 63 00
        E 0 80 57 00
        E 120 90 61 60
        E 120 80 61 00
        E 120 90 64 60
        E 0 90 58 60
        E 0 90 4b 60
        E 120 80 64 00
        E 0 80 58 00
        E 0 80 4b 00
        E 120 90 61 60
        E 120 80 61 00
        E 120 90 61 60
        E 0 90 55 60
        E 120 80 61 00
        E 0 80 55 00
        E 120 90 60 60
        E 120 80 60 00
        E 120 90 60 60
        E 0 90 54 60
        E 0 90 48 60
        E 0 90 3c 60
        E 120 80 60 00
        E 0 80 54 00
        E 0 80 48 00
        E 0 80 3c 00
        E 120 90 60 60
        E 120 80 60 00
        E 120 90 62 60
        E 0 90 56 60
        E 120 80 62 00
        E 0 80 56 00
        E 120 90 60 60
        E 120 80 60 00
        E 120 90 63 60
        E 0 90 57 60
        E 0 90 4b 60
        E 120 80 63 00
        E 0 80 57 00
        E 0 80 4b 00
        E 120 90 61 60
        E 120 80 61 00
        E 120 90 61 60
        E 0 90 55 60
        E 120 80 61 00
        E 0 80 55 00
        E 120 90 61 60
        E 120 80 61 00
        E 120 90 62 60
        E 0 90 56 60
        E 0 90 4a 60
        E 0 90 3d 60
        E 120 80 62 00
        E 0 80 56 00
        E 0 80 4a 00
        E 0 80 3d 00
        E 120 90 61 60
        E 120 80 61 00
        E 120 90 63 60
        E 0 90 57 60
        E 120 80 63 00
        E 0 80 57 00
        E 120 90 61 60
        E 120 80 61 00
        E 120 90 64 60
        E 0 90 58 60
        E 0 90 4b 60
        E 120 80 64 00
        E 0 80 58 00
        E 0 80 4b 00
        E 120 90 61 60
        E 120 80 61 00
        E 120 90 61 60
        E 0 90 55 60
        E 120 80 61 00
        E 0 80 55 00
        E 120 90 60 60
        E 120 80 60 00
        E 120 90 60 60
        E 0 90 54 60
        E 0 90 48 60
        E 0 90 3c 60
        E 120 80 60 00
        E 0 80 54 00
        E 0 80 48 00
        E 0 80 3c 00
        E 120 90 60 60
        E 120 80 60 00
        E 120 90 62 60
        E 0 90 56 60
        E 120 80 62 00
        E 0 80 56 00
        E 120 90 60 60
        E 120 80 60 00
        E 120 90 63 60
        E 0 90 57 60
        E 0 90 4b 60
        E 120 80 63 00
        E 0 80 57 00
        E 0 80 4b 00
        E 120 90 61 60
        E 120 80 61 00
        E 120 90 61 60
        E 0 90 55 60
        E 120 80 61 00
        E 0 80 55 00
        E 120 90 61 60
        E 120 80 61 00
        E 120 90 62 60
        E 0 90 56 60
        E 0 90 4a 60
        E 0 90 3d 60
        E 120 80 56 00
        E 0 80 4a 00
        E 0 80 3d 00
        E 360 80 62 00
        E 240 90 64 60
        E 0 90 58 60
        E 120 80 64 00
        E 0 80 58 00
        E 600 90 63 60
        E 0 90 57 60
        E 0 90 4b 60
        E 1080 80 4b 00
        E 120 80 63 00
        E 0 80 57 00
        E 240 90 62 60
        E 0 90 56 60
        E 0 90 4a 60
        E 120 80 62 00
        E 0 80 56 00
        E 0 80 4a 00
        E 360 90 63 60
        E 0 90 57 60
        E 120 80 63 00
        E 0 80 57 00
        E 359 90 61 60
        E 0 90 55 60
        E 0 90 49 60
        E 0 90 3d 60
        E 120 80 55 00
        E 0 80 49 00
        E 0 80 3d 00
        E 361 80 61 00
        E 240 90 60 60
        E 0 90 54 60
        E 720 80 60 00
        E 0 80 54 00
        E 240 90 62 60
        E 0 90 56 60
        E 0 90 4a 60
        E 120 80 56 00
        E 0 80 4a 00
        E 360 80 62 00
        E 240 90 61 60
        E 0 90 55 60
        E 120 80 61 00
        E 0 80 55 00
        E 360 90 62 60
        E 0 90 56 60
        E 0 90 4a 60
        E 0 90 3d 60
        E 120 80 62 00
        E 0 80 56 00
        E 0 80 4a 00
        E 0 80 3d 00
        E 120 90 61 60
        E 120 80 61 00
        E 120 90 60 60
        E 0 90 54 60
        E 120 80 60 00
        E 0 80 54 00
        E 120 90 61 60
        E 720 80 61 00
        E 480 90 64 60
        E 0 90 74 60
        E 0 90 58 60
        E 0 90 4b 60
        E 120 80 64 00
        E 0 80 58 00
        E 0 80 4b 00
        E 120 90 61 60
        E 120 80 61 00
        E 120 90 61 60
        E 0 90 55 60
        E 120 80 61 00
        E 0 80 55 00
        E 120 90 60 60
        E 120 80 60 00
        E 120 90 60 60
        E 0 90 54 60
        E 0 90 48 60
        E 0 90 3c 60
        E 120 80 60 00
        E 0 80 54 00
        E 0 80 48 00
        E 0 80 3c 00
        E 120 90 60 60
        E 120 80 60 00
        E 120 90 62 60
        E 0 90 56 60
        E 120 80 62 00
        E 0 80 56 00
        E 120 90 60 60
        E 120 80 60 00
        E 120 90 63 60
        E 0 90 57 60
        E 0 90 4b 60
        E 120 80 63 00
        E 0 80 57 00
        E 0 80 4b 00
        E 120 90 61 60
        E 120 80 61 00
        E 120 90 61 60
        E 0 90 55 60
        E 120 80 61 00
        E 0 80 55 00
        E 120 90 61 60
        E 120 80 61 00
        E 120 80 74 00
        E 0 90 62 60
        E 0 90 56 60
        E 0 90 4a 60
        E 0 90 3d 60
        E 120 80 62 00
        E 0 80 56 00
        E 0 80 4a 00
        E 0 80 3d 00
        E 120 90 61 60
        E 120 80 61 00
        E 120 90 63 60
        E 0 90 57 60
        E 120 80 63 00
        E 0 80 57 00
        E 120 90 61 60
        E 120 80 61 00
        E 120 90 64 60
        E 0 90 58 60
        E 0 90 4b 60
        E 120 80 64 00
        E 0 80 58 00
        E 0 80 4b 00
        E 120 90 61 60
        E 120 80 61 00
        E 120 90 61 60
        E 0 90 55 60
        E 120 80 61 00
        E 0 80 55 00
        E 120 90 60 60
        E 120 80 60 00
        E 120 90 60 60
        E 0 90 54 60
        E 0 90 48 60
        E 0 90 3c 60
        E 120 80 60 00
        E 0 80 54 00
        E 0 80 48 00
        E 0 80 3c 00
        E 120 90 60 60
        E 120 80 60 00
        E 120 90 62 60
        E 0 90 56 60
        E 120 80 62 00
        E 0 80 56 00
        E 120 90 60 60
        E 120 80 60 00
        E 120 90 63 60
        E 0 90 57 60
        E 0 90 4b 60
        E 120 80 63 00
        E 0 80 57 00
        E 0 80 4b 00
        E 120 90 61 60
        E 120 80 61 00
        E 120 90 61 60
        E 0 90 55 60
        E 120 80 61 00
        E 0 80 55 00
        E 120 90 61 60
        E 120 80 61 00
        E 120 90 62 60
        E 0 90 56 60
        E 0 90 4a 60
        E 0 90 3d 60
        E 120 80 56 00
        E 0 80 4a 00
        E 0 80 3d 00
        E 360 80 62 00
        E 240 90 64 60
        E 0 90 58 60
        E 120 80 64 00
        E 0 80 58 00
        E 600 90 63 60
        E 0 90 57 60
        E 0 90 4b 60
        E 1080 80 4b 00
        E 120 80 63 00
        E 0 80 57 00
        E 240 90 62 60
        E 0 90 56 60
        E 0 90 4a 60
        E 120 80 62 00
        E 0 80 56 00
        E 0 80 4a 00
        E 120 90 63 60
        E 120 80 63 00
        E 120 90 64 60
        E 0 90 58 60
        E 120 80 64 00
        E 0 80 58 00
        E 120 90 62 60
        E 120 80 62 00
        E 119 90 61 60
        E 0 90 55 60
        E 0 90 49 60
        E 0 90 3d 60
        E 120 80 55 00
        E 0 80 49 00
        E 0 80 3d 00
        E 361 80 61 00
        E 240 90 60 60
        E 0 90 54 60
        E 720 80 60 00
        E 0 80 54 00
        E 240 90 62 60
        E 0 90 56 60
        E 0 90 4a 60
        E 120 80 56 00
        E 0 80 4a 00
        E 360 80 62 00
        E 240 90 61 60
        E 0 90 55 60
        E 120 80 61 00
        E 0 80 55 00
        E 360 90 62 60
        E 0 90 56 60
        E 0 90 4a 60
        E 0 90 3d 60
        E 120 80 62 00
        E 0 80 56 00
        E 0 80 4a 00
        E 0 80 3d 00
        E 120 90 61 60
        E 120 80 61 00
        E 120 90 60 60
        E 0 90 54 60
        E 120 80 60 00
        E 0 80 54 00
        E 120 90 61 60
        E 720 80 61 00
        E 480 90 64 60
        E 0 90 58 60
        E 0 90 4b 60
        E 120 80 64 00
        E 0 80 58 00
        E 0 80 4b 00
        E 120 90 61 60
        E 120 80 61 00
        E 120 90 61 60
        E 0 90 55 60
        E 120 80 61 00
        E 0 80 55 00
        E 120 90 60 60
        E 120 80 60 00
        E 120 90 60 60
        E 0 90 54 60
        E 0 90 48 60
        E 0 90 3c 60
        E 120 80 60 00
        E 0 80 54 00
        E 0 80 48 00
        E 0 80 3c 00
        E 120 90 60 60
        E 120 80 60 00
        E 120 90 62 60
        E 0 90 56 60
        E 120 80 62 00
        E 0 80 56 00
        E 120 90 60 60
        E 120 80 60 00
        E 120 90 63 60
        E 0 90 57 60
        E 0 90 4b 60
        E 120 80 63 00
        E 0 80 57 00
        E 0 80 4b 00
        E 120 90 61 60
        E 120 80 61 00
        E 120 90 61 60
        E 0 90 55 60
        E 120 80 61 00
        E 0 80 55 00
        E 120 90 61 60
        E 120 80 61 00
        E 120 90 62 60
        E 0 90 56 60
        E 0 90 4a 60
        E 0 90 3d 60
        E 120 80 62 00
        E 0 80 56 00
        E 0 80 4a 00
        E 0 80 3d 00
        E 120 90 61 60
        E 120 80 61 00
        E 120 90 63 60
        E 0 90 57 60
        E 120 80 63 00
        E 0 80 57 00
        E 120 90 61 60
        E 120 80 61 00
        E 120 90 64 60
        E 0 90 58 60
        E 0 90 4b 60
        E 120 80 64 00
        E 0 80 58 00
        E 0 80 4b 00
        E 120 90 61 60
        E 120 80 61 00
        E 120 90 61 60
        E 0 90 55 60
        E 120 80 61 00
        E 0 80 55 00
        E 120 90 60 60
        E 120 80 60 00
        E 120 90 60 60
        E 0 90 54 60
        E 0 90 48 60
        E 0 90 3c 60
        E 120 80 60 00
        E 0 80 54 00
        E 0 80 48 00
        E 0 80 3c 00
        E 120 90 60 60
        E 120 80 60 00
        E 120 90 62 60
        E 0 90 56 60
        E 120 80 62 00
        E 0 80 56 00
        E 120 90 60 60
        E 120 80 60 00
        E 120 90 63 60
        E 0 90 57 60
        E 0 90 4b 60
        E 120 80 63 00
        E 0 80 57 00
        E 0 80 4b 00
        E 120 90 61 60
        E 120 80 61 00
        <X 600 0
          /wFbbWVsbG93XQ==
        >
        E 0 90 61 60
        E 0 90 56 60
        E 0 90 4a 60
        E 0 90 3d 60
        E 120 80 61 00
        E 0 90 62 60
        E 3000 80 3d 00
        E 120 80 56 00
        E 0 80 4a 00
        E 0 80 62 00
        E 120 90 74 60
        E 240 90 62 60
        E 0 90 57 60
        E 0 90 4b 60
        E 0 90 3e 60
        E 120 80 62 00
        E 0 80 57 00
        E 0 80 4b 00
        E 0 90 63 60
        E 0 80 3e 00
        E 120 80 63 00
        E 240 90 62 60
        E 0 90 56 60
        E 120 80 62 00
        E 0 80 56 00
        E 360 90 61 60
        E 0 90 55 60
        E 0 90 49 60
        E 120 80 61 00
        E 0 80 55 00
        E 0 80 49 00
        E 360 90 63 60
        E 0 90 57 60
        E 120 80 63 00
        E 0 80 57 00
        E 360 90 60 60
        E 0 90 54 60
        E 0 90 48 60
        E 0 90 3c 60
        E 1080 80 48 00
        E 0 80 3c 00
        E 120 80 60 00
        E 0 80 54 00
        E 240 90 61 60
        E 0 90 55 60
        E 0 90 49 60
        E 120 80 61 00
        E 0 80 55 00
        E 0 80 49 00
        E 360 90 61 60
        E 0 90 56 60
        E 120 80 61 00
        E 0 90 62 60
        E 120 80 74 00
        E 3360 80 56 00
        E 0 80 62 00
        E 240 90 63 60
        E 0 90 58 60
        E 0 90 4b 60
        E 0 90 3e 60
        E 120 80 63 00
        E 0 80 58 00
        E 0 80 4b 00
        E 0 90 64 60
        E 0 80 3e 00
        E 120 80 64 00
        E 240 90 63 60
        E 0 90 57 60
        E 120 80 63 00
        E 0 80 57 00
        E 360 90 62 60
        E 0 90 56 60
        E 0 90 4a 60
        E 120 80 62 00
        E 0 80 56 00
        E 0 80 4a 00
        E 360 90 61 60
        E 0 90 55 60
        E 120 80 61 00
        E 0 80 55 00
        E 360 90 60 60
        E 0 90 54 60
        E 0 90 48 60
        E 0 90 3c 60
        E 600 80 48 00
        E 0 80 3c 00
        E 120 80 60 00
        E 0 80 54 00
        E 240 90 61 60
        E 0 90 55 60
        E 0 90 49 60
        E 120 80 61 00
        E 0 80 55 00
        E 0 80 49 00
        E 360 90 63 60
        E 120 80 63 00
        E 119 90 60 60
        E 0 90 54 60
        E 120 80 60 00
        E 0 80 54 00
        E 121 90 62 60
        E 3600 80 62 00
        E 239 90 62 60
        E 0 90 57 60
        E 0 90 4b 60
        E 0 90 3e 60
        E 120 80 62 00
        E 0 80 57 00
        E 0 80 4b 00
        E 0 80 3e 00
        E 1 90 63 60
        E 120 80 63 00
        E 240 90 64 60
        E 0 90 58 60
        E 120 80 64 00
        E 0 80 58 00
        E 360 90 62 60
        E 0 90 56 60
        E 0 90 4a 60
        E 120 80 62 00
        E 0 80 56 00
        E 0 80 4a 00
        E 360 90 63 60
        E 0 90 57 60
        E 120 80 63 00
        E 0 80 57 00
        E 360 90 61 60
        E 0 90 55 60
        E 0 90 49 60
        E 0 90 3d 60
        E 840 80 49 00
        E 0 80 3d 00
        E 120 80 61 00
        E 0 80 55 00
        E 240 90 60 60
        E 0 90 54 60
        E 0 90 48 60
        E 120 80 60 00
        E 0 80 54 00
        E 0 80 48 00
        E 120 90 61 60
        E 120 80 61 00
        E 120 90 60 60
        E 0 90 54 60
        E 0 90 48 60
        E 120 80 60 00
        E 0 80 54 00
        E 0 80 48 00
        E 120 90 62 60
        E 3600 80 62 00
        E 240 90 63 60
        E 0 90 74 60
        E 0 90 58 60
        E 0 90 4b 60
        E 0 90 3e 60
        E 119 90 64 60
        E 1 80 63 00
        E 0 80 58 00
        E 0 80 4b 00
        E 0 80 3e 00
        E 119 80 64 00
        E 240 90 63 60
        E 120 80 63 00
        E 361 90 62 60
        E 0 90 56 60
        E 0 90 4a 60
        E 120 80 62 00
        E 0 80 56 00
        E 0 80 4a 00
        E 360 90 61 60
        E 0 90 55 60
        E 120 80 61 00
        E 0 80 55 00
        E 360 90 60 60
        E 0 90 54 60
        E 0 90 48 60
        E 0 90 3c 60
        E 120 80 60 00
        E 0 80 54 00
        E 0 80 48 00
        E 0 80 3c 00
        E 360 90 64 60
        E 120 80 64 00
        E 120 90 63 60
        E 0 90 57 60
        E 120 80 63 00
        E 0 80 57 00
        E 120 90 62 60
        E 120 80 62 00
        E 120 90 61 60
        E 0 90 55 60
        E 0 90 49 60
        E 120 80 61 00
        E 0 80 55 00
        E 0 80 49 00
        E 120 90 62 60
        E 120 80 62 00
        E 120 90 61 60
        E 0 90 55 60
        E 120 80 61 00
        E 0 80 55 00
        E 120 90 60 60
        E 120 80 60 00
        <X 120 0
          /wFbcGxheV0=
        >
        E 0 80 74 00
        E 0 90 62 60
        E 0 90 56 60
        E 0 90 4a 60
        E 0 90 3d 60
        E 120 80 56 00
        E 0 80 4a 00
        E 0 80 3d 00
        E 360 80 62 00
        E 240 90 64 60
        E 0 90 58 60
        E 120 80 64 00
        E 0 80 58 00
        E 600 90 63 60
        E 0 90 57 60
        E 0 90 4b 60
        E 1080 80 4b 00
        E 120 80 63 00
        E 0 80 57 00
        E 240 90 62 60
        E 0 90 56 60
        E 0 90 4a 60
        E 120 80 62 00
        E 0 80 56 00
        E 0 80 4a 00
        E 360 90 63 60
        E 0 90 57 60
        E 120 80 63 00
        E 0 80 57 00
        E 359 90 61 60
        E 0 90 55 60
        E 0 90 49 60
        E 0 90 3d 60
        E 120 80 55 00
        E 0 80 49 00
        E 0 80 3d 00
        E 361 80 61 00
        E 240 90 60 60
        E 0 90 54 60
        E 720 80 60 00
        E 0 80 54 00
        E 240 90 62 60
        E 0 90 56 60
        E 0 90 4a 60
        E 120 80 56 00
        E 0 80 4a 00
        E 360 80 62 00
        E 240 90 61 60
        E 0 90 55 60
        E 120 80 61 00
        E 0 80 55 00
        E 360 90 62 60
        E 0 90 56 60
        E 0 90 4a 60
        E 0 90 3d 60
        E 120 80 62 00
        E 0 80 56 00
        E 0 80 4a 00
        E 0 80 3d 00
        E 120 90 61 60
        E 120 80 61 00
        E 120 90 60 60
        E 0 90 54 60
        E 120 80 60 00
        E 0 80 54 00
        E 120 90 61 60
        E 720 80 61 00
        E 480 90 64 60
        E 0 90 58 60
        E 0 90 4b 60
        E 120 80 64 00
        E 0 80 58 00
        E 0 80 4b 00
        E 120 90 61 60
        E 120 80 61 00
        E 120 90 61 60
        E 0 90 55 60
        E 120 80 61 00
        E 0 80 55 00
        E 120 90 60 60
        E 120 80 60 00
        E 120 90 60 60
        E 0 90 54 60
        E 0 90 48 60
        E 0 90 3c 60
        E 120 80 60 00
        E 0 80 54 00
        E 0 80 48 00
        E 0 80 3c 00
        E 120 90 60 60
        E 120 80 60 00
        E 120 90 62 60
        E 0 90 56 60
        E 120 80 62 00
        E 0 80 56 00
        E 120 90 60 60
        E 120 80 60 00
        E 120 90 63 60
        E 0 90 57 60
        E 0 90 4b 60
        E 120 80 63 00
        E 0 80 57 00
        E 0 80 4b 00
        E 120 90 61 60
        E 120 80 61 00
        E 120 90 61 60
        E 0 90 55 60
        E 120 80 61 00
        E 0 80 55 00
        E 120 90 61 60
        E 120 80 61 00
        E 120 90 62 60
        E 0 90 56 60
        E 0 90 4a 60
        E 0 90 3d 60
        E 120 80 62 00
        E 0 80 56 00
        E 0 80 4a 00
        E 0 80 3d 00
        E 120 90 61 60
        E 120 80 61 00
        E 120 90 63 60
        E 0 90 57 60
        E 120 80 63 00
        E 0 80 57 00
        E 120 90 61 60
        E 120 80 61 00
        E 120 90 64 60
        E 0 90 58 60
        E 0 90 4b 60
        E 120 80 64 00
        E 0 80 58 00
        E 0 80 4b 00
        E 120 90 61 60
        E 120 80 61 00
        E 120 90 61 60
        E 0 90 55 60
        E 120 80 61 00
        E 0 80 55 00
        E 120 90 60 60
        E 120 80 60 00
        E 120 90 60 60
        E 0 90 54 60
        E 0 90 48 60
        E 0 90 3c 60
        E 120 80 60 00
        E 0 80 54 00
        E 0 80 48 00
        E 0 80 3c 00
        E 120 90 60 60
        E 120 80 60 00
        E 120 90 62 60
        E 0 90 56 60
        E 120 80 62 00
        E 0 80 56 00
        E 120 90 60 60
        E 120 80 60 00
        E 120 90 63 60
        E 0 90 57 60
        E 0 90 4b 60
        E 120 80 63 00
        E 0 80 57 00
        E 0 80 4b 00
        E 120 90 61 60
        E 120 80 61 00
        E 120 90 61 60
        E 0 90 55 60
        E 120 80 61 00
        E 0 80 55 00
        E 360 90 62 60
        E 0 90 56 60
        E 0 90 4a 60
        E 0 90 3d 60
        E 120 80 56 00
        E 0 80 4a 00
        E 0 80 3d 00
        E 360 80 62 00
        E 240 90 64 60
        E 0 90 58 60
        E 120 80 64 00
        E 0 80 58 00
        E 600 90 63 60
        E 0 90 57 60
        E 0 90 4b 60
        E 1080 80 4b 00
        E 120 80 63 00
        E 0 80 57 00
        E 240 90 62 60
        E 0 90 74 60
        E 0 90 56 60
        E 0 90 4a 60
        E 120 80 62 00
        E 0 80 56 00
        E 0 80 4a 00
        E 120 90 63 60
        E 120 80 63 00
        E 120 90 64 60
        E 0 90 58 60
        E 120 80 64 00
        E 0 80 58 00
        E 120 90 62 60
        E 120 80 62 00
        E 119 90 61 60
        E 0 90 55 60
        E 0 90 49 60
        E 0 90 3d 60
        E 120 80 55 00
        E 0 80 49 00
        E 0 80 3d 00
        E 361 80 61 00
        E 240 90 60 60
        E 0 90 54 60
        E 720 80 60 00
        E 0 80 54 00
        E 240 90 62 60
        E 0 90 56 60
        E 0 90 4a 60
        E 120 80 56 00
        E 0 80 4a 00
        E 120 80 74 00
        E 240 80 62 00
        E 240 90 61 60
        E 0 90 55 60
        E 120 80 61 00
        E 0 80 55 00
        E 360 90 62 60
        E 0 90 56 60
        E 0 90 4a 60
        E 0 90 3d 60
        E 120 80 62 00
        E 0 80 56 00
        E 0 80 4a 00
        E 0 80 3d 00
        E 120 90 61 60
        E 120 80 61 00
        E 120 90 60 60
        E 0 90 54 60
        E 120 80 60 00
        E 0 80 54 00
        E 120 90 61 60
        E 120 80 61 00
        E 120 90 62 60
        E 0 90 56 60
        E 0 90 4a 60
        E 0 90 3d 60
        E 120 80 62 00
        E 0 80 56 00
        E 0 80 4a 00
        E 0 80 3d 00
        E 120 90 61 60
        E 120 80 61 00
        E 120 90 63 60
        E 0 90 57 60
        E 120 80 63 00
        E 0 80 57 00
        E 120 90 61 60
        E 120 80 61 00
        E 120 90 64 60
        E 0 90 58 60
        E 0 90 4b 60
        E 120 80 64 00
        E 0 80 58 00
        E 0 80 4b 00
        E 120 90 61 60
        E 120 80 61 00
        E 120 90 61 60
        E 0 90 55 60
        E 120 80 61 00
        E 0 80 55 00
        E 120 90 60 60
        E 120 80 60 00
        E 120 90 60 60
        E 0 90 54 60
        E 0 90 48 60
        E 0 90 3c 60
        E 120 80 60 00
        E 0 80 54 00
        E 0 80 48 00
        E 0 80 3c 00
        E 120 90 60 60
        E 120 80 60 00
        E 120 90 62 60
        E 0 90 56 60
        E 120 80 62 00
        E 0 80 56 00
        E 120 90 60 60
        E 120 80 60 00
        E 120 90 63 60
        E 0 90 57 60
        E 0 90 4b 60
        E 120 80 63 00
        E 0 80 57 00
        E 0 80 4b 00
        E 120 90 61 60
        E 120 80 61 00
        E 120 90 61 60
        E 0 90 55 60
        E 120 80 61 00
        E 0 80 55 00
        E 120 90 61 60
        E 120 80 61 00
        E 120 90 62 60
        E 0 90 56 60
        E 0 90 4a 60
        E 0 90 3d 60
        E 120 80 62 00
        E 0 80 56 00
        E 0 80 4a 00
        E 0 80 3d 00
        E 120 90 61 60
        E 120 80 61 00
        E 120 90 63 60
        E 0 90 57 60
        E 120 80 63 00
        E 0 80 57 00
        E 120 90 61 60
        E 120 80 61 00
        E 120 90 64 60
        E 0 90 58 60
        E 0 90 4b 60
        E 120 80 64 00
        E 0 80 58 00
        E 0 80 4b 00
        E 120 90 61 60
        E 120 80 61 00
        E 120 90 61 60
        E 0 90 55 60
        E 120 80 61 00
        E 0 80 55 00
        E 120 90 60 60
        E 120 80 60 00
        E 120 90 60 60
        E 0 90 54 60
        E 0 90 48 60
        E 0 90 3c 60
        E 120 80 60 00
        E 0 80 54 00
        E 0 80 48 00
        E 0 80 3c 00
        E 120 90 60 60
        E 120 80 60 00
        E 120 90 62 60
        E 0 90 56 60
        E 120 80 62 00
        E 0 80 56 00
        E 120 90 60 60
        E 120 80 60 00
        E 120 90 63 60
        E 0 90 57 60
        E 0 90 4b 60
        E 120 80 63 00
        E 0 80 57 00
        E 0 80 4b 00
        E 120 90 61 60
        E 120 80 61 00
        E 120 90 61 60
        E 0 90 55 60
        E 120 80 61 00
        E 0 80 55 00
        E 120 90 61 60
        E 120 80 61 00
        <X 120 0
          /wFbaW50ZW5zZV0=
        >
        E 0 90 64 60
        E 0 90 58 60
        E 0 90 4b 60
        E 0 90 3e 60
        E 120 80 64 00
        E 0 80 58 00
        E 0 80 4b 00
        E 0 80 3e 00
        E 120 90 64 60
        E 120 80 64 00
        E 360 90 64 60
        E 120 80 64 00
        E 120 90 61 60
        E 0 90 55 60
        E 0 90 49 60
        E 120 80 61 00
        E 0 80 55 00
        E 0 80 49 00
        E 360 90 63 60
        E 0 90 57 60
        E 120 80 57 00
        E 360 80 63 00
        <X 480 0
          /wFbaWRsZV0=
        >
        <X 5280 0
          /wFbaW50ZW5zZV0=
        >
        E 0 90 63 60
        E 0 90 74 60
        E 0 90 57 60
        E 0 90 4b 60
        E 0 90 3e 60
        E 120 80 63 00
        E 0 80 57 00
        E 0 80 4b 00
        E 0 80 3e 00
        E 120 90 63 60
        E 120 80 63 00
        E 360 90 63 60
        E 120 80 63 00
        E 120 90 61 60
        E 0 90 55 60
        E 0 90 49 60
        E 120 80 61 00
        E 0 80 55 00
        E 0 80 49 00
        E 360 90 60 60
        E 0 90 54 60
        E 120 80 54 00
        E 360 80 74 00
        E 0 80 60 00
        E 4320 90 61 60
        E 0 90 55 60
        E 0 90 49 60
        E 120 80 55 00
        E 0 80 49 00
        E 360 80 61 00
        E 240 90 62 60
        E 0 90 56 60
        E 120 80 56 00
        E 360 80 62 00
        E 240 90 64 60
        E 0 90 58 60
        E 0 90 4b 60
        E 0 90 3e 60
        E 120 80 64 00
        E 0 80 58 00
        E 0 80 4b 00
        E 0 80 3e 00
        E 120 90 64 60
        E 120 80 64 00
        E 360 90 64 60
        E 120 80 64 00
        E 120 90 61 60
        E 0 90 55 60
        E 0 90 49 60
        E 120 80 61 00
        E 0 80 55 00
        E 0 80 49 00
        E 360 90 63 60
        E 0 90 57 60
        E 120 80 57 00
        E 360 80 63 00
        E 480 90 63 60
        E 0 90 57 60
        E 0 90 4b 60
        E 0 90 3e 60
        E 600 80 4b 00
        E 0 80 3e 00
        E 120 80 57 00
        E 120 80 63 00
        E 120 90 64 60
        E 0 90 58 60
        E 0 90 4b 60
        E 120 80 64 00
        E 0 80 58 00
        E 0 80 4b 00
        E 120 90 62 60
        E 120 80 62 00
        E 360 90 61 60
        E 120 80 61 00
        E 120 90 60 60
        E 0 90 54 60
        E 120 80 60 00
        E 0 80 54 00
        E 360 90 61 60
        E 0 90 55 60
        E 0 90 49 60
        E 0 90 3d 60
        E 960 80 61 00
        E 0 80 55 00
        E 0 80 49 00
        E 0 80 3d 00
        E 1440 90 61 60
        E 0 90 55 60
        E 120 80 61 00
        E 0 80 55 00
        E 120 90 62 60
        E 120 80 62 00
        E 120 90 64 60
        E 0 90 58 60
        E 0 90 4b 60
        E 0 90 3e 60
        E 120 80 64 00
        E 0 80 58 00
        E 0 80 4b 00
        E 0 80 3e 00
        E 120 90 64 60
        E 120 80 64 00
        E 360 90 64 60
        E 120 80 64 00
        E 120 90 61 60
        E 0 90 55 60
        E 0 90 49 60
        E 120 80 61 00
        E 0 80 55 00
        E 0 80 49 00
        E 360 90 63 60
        E 0 90 57 60
        E 120 80 57 00
        E 360 80 63 00
        E 240 90 63 60
        E 0 90 57 60
        E 120 80 63 00
        E 0 80 57 00
        E 360 90 63 60
        E 120 80 63 00
        E 120 90 60 60
        E 0 90 54 60
        E 0 90 48 60
        E 0 90 3c 60
        E 120 80 60 00
        E 0 80 54 00
        E 0 80 48 00
        E 0 80 3c 00
        E 360 90 61 60
        E 0 90 55 60
        E 120 80 55 00
        E 360 80 61 00
        E 240 90 61 60
        E 0 90 55 60
        E 120 80 61 00
        E 0 80 55 00
        E 360 90 61 60
        E 120 80 61 00
        E 120 90 62 60
        E 0 90 56 60
        E 0 90 4a 60
        E 0 90 3d 60
        E 120 80 62 00
        E 0 80 56 00
        E 0 80 4a 00
        E 0 80 3d 00
        E 360 90 61 60
        E 0 90 55 60
        E 120 80 61 00
        E 0 80 55 00
        E 120 90 63 60
        E 120 80 63 00
        E 360 90 62 60
        E 120 80 62 00
        E 120 90 63 60
        E 0 90 57 60
        E 120 80 63 00
        E 0 80 57 00
        E 360 90 62 60
        E 0 90 56 60
        E 0 90 4a 60
        E 120 80 62 00
        E 0 80 56 00
        E 0 80 4a 00
        E 120 90 64 60
        E 120 80 64 00
        E 359 90 64 60
        E 120 80 64 00
        E 121 90 60 60
        E 0 90 63 60
        E 0 90 54 60
        E 0 90 57 60
        E 0 90 49 60
        E 0 90 4b 60
        E 0 90 3e 60
        E 120 80 60 00
        E 0 80 63 00
        E 0 80 54 00
        E 0 80 57 00
        E 0 80 49 00
        E 0 80 4b 00
        E 0 80 3e 00
        <X 480 0
          /wFbaWRsZV9yZWFsdGltZV0=
        >
        E 5159 b0 7b 00
        GUID {38CBD07C-1307-4E5F-AF61-2F8D7F88903F}
        IGNTEMPO 0 120.00000000 4 4
        SRCCOLOR 183
        VELLANE 131 128 60
        COLORMAP "C:\Program Files\REAPER (x64)\Data\color_maps\rockband_guitarbass.png"
        CFGEDITVIEW -1463.167638 69.848485 0 14 0 0 0
        CFGEDIT 1 1 0 1 1 0 1 1 1 1 1 0.25000000 -8 -8 1544 872 0 2 1 1 0.00000000 0 1 0 0 0.500000 0 0 1.000000 64
        KEYSNAP 0 6 "102030050700" 0 "Pentatonic"
        EVTFILTER 0 -1 -1 -1 -1 0 1 0 0 -1.00000000 -1.00000000
      >
    >
  >
  <TRACK '{C235B7FD-AA2A-4EB1-A545-E13CB2CD1872}'
    NAME "PART REAL_KEYS_X"
    PEAKCOL 16576
    BEAT -1
    AUTOMODE 0
    VOLPAN 1.00000000000000 0.00000000000000 -1.00000000000000 -1.00000000000000 1.00000000000000
    MUTESOLO 0 0 0
    IPHASE 0
    ISBUS 0 0
    BUSCOMP 0 0
    SHOWINMIX 1 0.666700 0.500000 1 0.500000 -1 -1 -1
    FREEMODE 0
    SEL 0
    REC 0 0 0 0 0 0 0
    VU 2
    TRACKHEIGHT 0 0
    INQ 0 0 0 0.5000000000 100 0 0 100
    NCHAN 2
    FX 0
    TRACKID {C235B7FD-AA2A-4EB1-A545-E13CB2CD1872}
    PERF 0
    MIDIOUT -1
    <MIDINOTENAMES
      0 127 "TRILL MARKER"
      0 126 "GLISSANDO MARKER"
      0 125 "---"
      0 116 "OVERDRIVE"
      0 115 "SOLO"
      0 114 "---"
      0 72 "Highest playable note B#3"
      0 71 "B3"
      0 70 "A#3"
      0 69 "A3"
      0 68 "G#3"
      0 67 "G3"
      0 66 "F#3"
      0 65 "F3"
      0 64 "E3"
      0 63 "D#3"
      0 62 "D3"
      0 61 "C#3"
      0 60 "C3"
      0 59 "B2"
      0 58 "A#2"
      0 57 "A2"
      0 56 "G#2"
      0 55 "G2"
      0 54 "F#2"
      0 53 "F2"
      0 52 "E2"
      0 51 "D#2"
      0 50 "D2"
      0 49 "C#2"
      0 48 "Lowest playable note C2"
      0 10 "---"
      0 9 "Range A2-C4"
      0 8 "Range"
      0 7 "Range"
      0 6 "Range"
      0 5 "Range F2-A3"
      0 4 "Range"
      0 3 "Range"
      0 2 "Range"
      0 1 "Range"
      0 0 "Range C2-E3"
    >
    MAINSEND 1 0
    <FXCHAIN
      WNDRECT 0 43 655 467
      SHOW 0
      LASTSEL 1
      DOCKED 0
      BYPASS 0 0
      <JS "MIDI/midi_note_filter" ""
        48.000000 72.000000 - - - - - - - - - - - - - - - - - - - - - - - - - - - - - - - - - - - - - - - - - - - - - - - - - - - - - - - - - - - - - - 
      >
      FLOATPOS 0 0 0 0
      FXID {29CDB23F-A033-4C34-8D24-BD1E20709B89}
      WAK 0
      BYPASS 0 0
      <VST "VSTi: ReaSynth (Cockos)" "reasynth.dll" 0 ""
        eXNlcu9e7f4AAAAAAgAAAAEAAAAAAAAAAgAAAAAAAAA4AAAAAAAAAA==
        AAAQAO++rd4N8K3eppvEO3UCwTwAAIA/AAAAAAAAAADMm4A+6WeIPQ==
        AAAAAAAAAD8AAIA/AACAPwAAAD8AABAAAAA=
      >
      FLOATPOS 0 0 0 0
      FXID {1F3B0C1A-7A1A-4B9D-B8DE-065969B88803}
      WAK 0
    >
    <ITEM
      POSITION 0.00000000000000
      SNAPOFFS 0.00000000000000
      LENGTH 128.91399999999999
      LOOP 0
      ALLTAKES 0
      SEL 0
      FADEIN 1 0.000000 0.000000 1 0
      FADEOUT 1 0.000000 0.000000 1 0
      MUTE 0
      IGUID {588666A5-F8D4-4D00-9553-84E5A49248C1}
      IID 5
      NAME "PART REAL_KEYS_X"
      VOLPAN 1.000000 0.000000 1.000000 -1.000000
      SOFFS 0.00000000000000 0.00000000000000
      PLAYRATE 1.00000000000000 1 0.00000000000000 -1
      CHANMODE 0
      GUID {37A0C111-50FF-469F-A121-CF2F102EB3E7}
      <SOURCE MIDI
        HASDATA 1 480 QN
        POOLEDEVTS {241D8607-5E3F-48D5-9F9F-4F7E5683FAEC}
        <X 0 0
          /wNQQVJUIFJFQUxfS0VZU19Y
        >
        E 0 90 05 60
        E 120 80 05 00
        <X 21000 0
          /wFbYmVnaW5fa2V5IHNvbmdfdHJhaW5lcl9rZXlfMV0=
        >
        E 0 90 3a 60
        E 0 90 74 60
        E 120 80 3a 00
        E 120 90 37 60
        E 120 80 37 00
        E 120 90 3c 60
        E 120 80 3c 00
        E 120 90 37 60
        E 120 80 37 00
        E 120 90 3e 60
        E 120 80 3e 00
        E 120 90 37 60
        E 120 80 37 00
        E 120 90 37 60
        E 120 80 37 00
        E 120 90 35 60
        E 120 80 35 00
        <X 120 0
          /wFba2V5X25vcm0gc29uZ190cmFpbmVyX2tleV8xXQ==
        >
        E 0 90 35 60
        E 120 80 35 00
        E 120 90 35 60
        E 120 80 35 00
        E 120 90 3a 60
        E 120 80 3a 00
        E 120 90 35 60
        E 120 80 35 00
        E 120 90 3c 60
        E 120 80 3c 00
        E 120 90 37 60
        E 120 80 37 00
        E 120 90 37 60
        E 120 80 37 00
        E 120 90 37 60
        E 120 80 37 00
        E 120 90 3a 60
        E 0 80 74 00
        E 120 80 3a 00
        E 120 90 37 60
        E 120 80 37 00
        E 120 90 3c 60
        E 120 80 3c 00
        E 120 90 37 60
        E 120 80 37 00
        E 120 90 3e 60
        E 120 80 3e 00
        E 120 90 37 60
        E 120 80 37 00
        E 120 90 37 60
        E 120 80 37 00
        E 120 90 35 60
        E 120 80 35 00
        E 120 90 35 60
        E 120 80 35 00
        E 120 90 35 60
        E 120 80 35 00
        E 120 90 3a 60
        E 120 80 3a 00
        E 120 90 35 60
        E 120 80 35 00
        E 120 90 3c 60
        E 120 80 3c 00
        E 120 90 37 60
        E 120 80 37 00
        E 120 90 37 60
        E 120 80 37 00
        E 120 90 37 60
        E 120 80 37 00
        <X 120 0
          /wFbZW5kX2tleSBzb25nX3RyYWluZXJfa2V5XzFd
        >
        E 0 90 3a 60
        E 120 80 3a 00
        E 120 90 37 60
        E 120 80 37 00
        E 120 90 3c 60
        E 120 80 3c 00
        E 120 90 37 60
        E 120 80 37 00
        E 120 90 3e 60
        E 120 80 3e 00
        E 120 90 37 60
        E 120 80 37 00
        E 120 90 37 60
        E 120 80 37 00
        E 120 90 35 60
        E 120 80 35 00
        E 120 90 35 60
        E 120 80 35 00
        E 120 90 35 60
        E 120 80 35 00
        E 120 90 3a 60
        E 120 80 3a 00
        E 120 90 35 60
        E 120 80 35 00
        E 120 90 3c 60
        E 120 80 3c 00
        E 120 90 37 60
        E 120 80 37 00
        E 120 90 37 60
        E 120 80 37 00
        E 120 90 37 60
        E 120 80 37 00
        E 120 90 3a 60
        E 120 80 3a 00
        E 120 90 37 60
        E 120 80 37 00
        E 120 90 3c 60
        E 120 80 3c 00
        E 120 90 37 60
        E 120 80 37 00
        E 120 90 3e 60
        E 120 80 3e 00
        E 120 90 37 60
        E 120 80 37 00
        E 120 90 37 60
        E 120 80 37 00
        E 120 90 35 60
        E 120 80 35 00
        E 120 90 35 60
        E 120 80 35 00
        E 120 90 35 60
        E 120 80 35 00
        E 120 90 3a 60
        E 120 80 3a 00
        E 120 90 35 60
        E 120 80 35 00
        E 120 90 3c 60
        E 120 80 3c 00
        E 120 90 37 60
        E 120 80 37 00
        E 120 90 37 60
        E 120 80 37 00
        E 120 90 37 60
        E 120 80 37 00
        E 120 90 3a 60
        E 120 80 3a 00
        E 120 90 37 60
        E 120 80 37 00
        E 120 90 3c 60
        E 120 80 3c 00
        E 120 90 37 60
        E 120 80 37 00
        E 120 90 3e 60
        E 120 80 3e 00
        E 120 90 37 60
        E 120 80 37 00
        E 120 90 37 60
        E 120 80 37 00
        E 120 90 35 60
        E 120 80 35 00
        E 120 90 35 60
        E 120 80 35 00
        E 120 90 35 60
        E 120 80 35 00
        E 120 90 3a 60
        E 120 80 3a 00
        E 120 90 35 60
        E 120 80 35 00
        E 120 90 3c 60
        E 120 80 3c 00
        E 120 90 37 60
        E 120 80 37 00
        E 120 90 37 60
        E 120 80 37 00
        E 120 90 37 60
        E 120 80 37 00
        E 120 90 3a 60
        E 0 90 74 60
        E 120 80 3a 00
        E 120 90 37 60
        E 120 80 37 00
        E 120 90 3c 60
        E 120 80 3c 00
        E 120 90 37 60
        E 120 80 37 00
        E 120 90 3e 60
        E 120 80 3e 00
        E 120 90 37 60
        E 120 80 37 00
        E 120 90 37 60
        E 120 80 37 00
        E 120 90 35 60
        E 120 80 35 00
        E 120 90 35 60
        E 120 80 35 00
        E 120 90 35 60
        E 120 80 35 00
        E 120 90 3a 60
        E 120 80 3a 00
        E 120 90 35 60
        E 120 80 35 00
        E 120 90 3c 60
        E 120 80 3c 00
        E 120 90 37 60
        E 120 80 37 00
        E 120 90 37 60
        E 120 80 37 00
        E 120 90 37 60
        E 120 80 37 00
        E 120 90 3a 60
        E 0 80 74 00
        E 120 80 3a 00
        E 120 90 37 60
        E 120 80 37 00
        E 120 90 3c 60
        E 120 80 3c 00
        E 120 90 37 60
        E 120 80 37 00
        E 120 90 3e 60
        E 120 80 3e 00
        E 120 90 37 60
        E 120 80 37 00
        E 120 90 37 60
        E 120 80 37 00
        E 120 90 35 60
        E 120 80 35 00
        E 120 90 35 60
        E 120 80 35 00
        E 120 90 35 60
        E 120 80 35 00
        E 120 90 3a 60
        E 120 80 3a 00
        E 120 90 35 60
        E 120 80 35 00
        E 120 90 3c 60
        E 120 80 3c 00
        E 120 90 37 60
        E 120 80 37 00
        E 120 90 37 60
        E 120 80 37 00
        E 120 90 37 60
        E 120 80 37 00
        E 120 90 3a 60
        E 120 80 3a 00
        E 120 90 37 60
        E 120 80 37 00
        E 120 90 3c 60
        E 120 80 3c 00
        E 120 90 37 60
        E 120 80 37 00
        E 120 90 3e 60
        E 120 80 3e 00
        E 120 90 37 60
        E 120 80 37 00
        E 120 90 37 60
        E 120 80 37 00
        E 120 90 35 60
        E 120 80 35 00
        E 120 90 35 60
        E 120 80 35 00
        E 120 90 35 60
        E 120 80 35 00
        E 120 90 3a 60
        E 120 80 3a 00
        E 120 90 35 60
        E 120 80 35 00
        E 120 90 3c 60
        E 120 80 3c 00
        E 120 90 37 60
        E 120 80 37 00
        E 120 90 37 60
        E 120 80 37 00
        E 120 90 37 60
        E 120 80 37 00
        <X 120 0
          /wFbYmVnaW5fa2V5IHNvbmdfdHJhaW5lcl9rZXlfMl0=
        >
        E 0 90 43 60
        E 600 80 43 00
        E 120 90 3c 60
        E 120 80 3c 00
        E 600 90 41 60
        E 1320 80 41 00
        E 120 90 3c 60
        E 120 80 3c 00
        E 360 90 3f 60
        E 120 80 3f 00
        E 359 90 3e 60
        E 601 80 3e 00
        E 120 90 37 60
        E 840 80 37 00
        E 120 90 3a 60
        E 600 80 3a 00
        E 120 90 36 60
        E 120 80 36 00
        E 360 90 41 60
        E 120 80 41 00
        E 120 90 3f 60
        E 120 80 3f 00
        E 120 90 3c 60
        E 120 80 3c 00
        E 120 90 3f 60
        E 720 80 3f 00
        <X 480 0
          /wFbZW5kX2tleSBzb25nX3RyYWluZXJfa2V5XzJd
        >
        E 0 90 3e 60
        E 0 90 74 60
        E 120 80 3e 00
        E 120 90 37 60
        E 120 80 37 00
        E 120 90 37 60
        E 120 80 37 00
        E 120 90 35 60
        E 120 80 35 00
        E 120 90 35 60
        E 120 80 35 00
        E 120 90 35 60
        E 120 80 35 00
        E 120 90 3a 60
        E 120 80 3a 00
        E 120 90 35 60
        E 120 80 35 00
        E 120 90 3c 60
        E 120 80 3c 00
        E 120 90 37 60
        E 120 80 37 00
        E 120 90 37 60
        E 120 80 37 00
        E 120 90 37 60
        E 120 80 37 00
        E 120 90 3a 60
        E 0 80 74 00
        E 120 80 3a 00
        E 120 90 37 60
        E 120 80 37 00
        E 120 90 3c 60
        E 120 80 3c 00
        E 120 90 37 60
        E 120 80 37 00
        E 120 90 3e 60
        E 120 80 3e 00
        E 120 90 37 60
        E 120 80 37 00
        E 120 90 37 60
        E 120 80 37 00
        E 120 90 35 60
        E 120 80 35 00
        E 120 90 35 60
        E 120 80 35 00
        E 120 90 35 60
        E 120 80 35 00
        E 120 90 3a 60
        E 120 80 3a 00
        E 120 90 35 60
        E 120 80 35 00
        E 120 90 3c 60
        E 120 80 3c 00
        E 120 90 37 60
        E 120 80 37 00
        E 120 90 3c 60
        E 120 80 3c 00
        E 120 90 3c 60
        E 120 80 3c 00
        E 120 90 43 60
        E 600 80 43 00
        E 120 90 3c 60
        E 120 80 3c 00
        E 600 90 41 60
        E 1320 80 41 00
        E 120 90 3c 60
        E 120 80 3c 00
        E 120 90 3e 60
        E 120 80 3e 00
        E 120 90 3f 60
        E 120 80 3f 00
        E 120 90 3c 60
        E 120 80 3c 00
        E 119 90 3e 60
        E 601 80 3e 00
        E 120 90 37 60
        E 840 80 37 00
        E 120 90 3a 60
        E 600 80 3a 00
        E 120 90 36 60
        E 120 80 36 00
        E 360 90 41 60
        E 120 80 41 00
        E 120 90 3f 60
        E 120 80 3f 00
        E 120 90 3c 60
        E 120 80 3c 00
        E 120 90 3f 60
        E 720 80 3f 00
        E 480 90 3e 60
        E 120 80 3e 00
        E 120 90 37 60
        E 120 80 37 00
        E 120 90 37 60
        E 120 80 37 00
        E 120 90 35 60
        E 120 80 35 00
        E 120 90 35 60
        E 120 80 35 00
        E 120 90 35 60
        E 120 80 35 00
        E 120 90 3a 60
        E 120 80 3a 00
        E 120 90 35 60
        E 120 80 35 00
        E 120 90 3c 60
        E 120 80 3c 00
        E 120 90 37 60
        E 120 80 37 00
        E 120 90 37 60
        E 120 80 37 00
        E 120 90 37 60
        E 120 80 37 00
        E 120 90 3a 60
        E 120 80 3a 00
        E 120 90 37 60
        E 120 80 37 00
        E 120 90 3c 60
        E 120 80 3c 00
        E 120 90 37 60
        E 120 80 37 00
        E 120 90 3e 60
        E 120 80 3e 00
        E 120 90 37 60
        E 120 80 37 00
        E 120 90 37 60
        E 120 80 37 00
        E 120 90 35 60
        E 120 80 35 00
        E 120 90 35 60
        E 120 80 35 00
        E 120 90 35 60
        E 120 80 35 00
        E 120 90 3a 60
        E 120 80 3a 00
        E 120 90 35 60
        E 120 80 35 00
        E 120 90 3c 60
        E 120 80 3c 00
        E 120 90 37 60
        E 120 80 37 00
        E 120 90 09 60
        E 120 80 09 00
        <X 360 0
          /wFbYmVnaW5fa2V5IHNvbmdfdHJhaW5lcl9rZXlfM10=
        >
        E 0 90 3f 60
        E 120 80 3f 00
        E 0 90 41 60
        E 3120 80 41 00
        E 120 90 74 60
        E 240 90 42 60
        E 120 80 42 00
        E 0 90 43 60
        <X 120 0
          /wFba2V5X25vcm0gc29uZ190cmFpbmVyX2tleV8zXQ==
        >
        E 120 80 43 00
        E 120 90 41 60
        E 120 80 41 00
        E 360 90 3f 60
        E 360 80 3f 00
        E 120 90 41 60
        E 120 80 41 00
        E 360 90 3c 60
        E 1320 80 3c 00
        E 120 90 3f 60
        E 120 80 3f 00
        E 360 90 3f 60
        E 120 80 3f 00
        E 0 90 41 60
        E 120 80 74 00
        E 3360 80 41 00
        E 240 90 43 60
        E 120 80 43 00
        E 0 90 46 60
        E 240 80 46 00
        E 120 90 43 60
        E 120 80 43 00
        E 360 90 41 60
        E 360 80 41 00
        E 120 90 3f 60
        E 120 80 3f 00
        E 360 90 3c 60
        E 840 80 3c 00
        E 120 90 3f 60
        E 120 80 3f 00
        E 360 90 43 60
        E 120 80 43 00
        E 119 90 3f 60
        E 120 80 3f 00
        E 121 90 41 60
        <X 240 0
          /wFbZW5kX2tleSBzb25nX3RyYWluZXJfa2V5XzNd
        >
        E 3360 80 41 00
        E 239 90 3f 60
        E 120 80 3f 00
        E 1 90 41 60
        E 240 80 41 00
        E 120 90 43 60
        E 120 80 43 00
        E 360 90 3f 60
        E 360 80 3f 00
        E 120 90 41 60
        E 120 80 41 00
        E 360 90 3c 60
        E 1080 80 3c 00
        E 120 90 3a 60
        E 120 80 3a 00
        E 120 90 3c 60
        E 120 80 3c 00
        E 120 90 3f 60
        E 120 80 3f 00
        E 120 90 41 60
        E 3720 80 41 00
        <X 120 0
          /wFbYmVnaW5fa2V5IHNvbmdfdHJhaW5lcl9rZXlfNF0=
        >
        E 0 90 46 60
        E 0 90 74 60
        E 119 90 48 60
        E 1 80 46 00
        E 240 80 48 00
        E 119 90 43 60
        E 120 80 43 00
        E 121 90 05 60
        E 120 80 05 00
        E 120 90 41 60
        E 360 80 41 00
        E 120 90 3f 60
        E 120 80 3f 00
        E 360 90 3c 60
        E 360 80 3c 00
        E 120 90 3a 60
        E 120 80 3a 00
        E 120 90 37 60
        E 120 80 37 00
        E 120 90 36 60
        E 120 80 36 00
        E 120 90 35 60
        E 120 80 35 00
        E 120 90 3f 60
        E 120 80 3f 00
        E 120 90 3c 60
        E 120 80 3c 00
        E 120 90 3a 60
        E 120 80 3a 00
        <X 120 0
          /wFbZW5kX2tleSBzb25nX3RyYWluZXJfa2V5XzRd
        >
        E 0 90 43 60
        E 0 80 74 00
        E 600 80 43 00
        E 120 90 3c 60
        E 120 80 3c 00
        E 600 90 41 60
        E 1320 80 41 00
        E 120 90 3c 60
        E 120 80 3c 00
        E 360 90 3f 60
        E 120 80 3f 00
        E 359 90 3e 60
        E 601 80 3e 00
        E 120 90 37 60
        E 840 80 37 00
        E 120 90 3a 60
        E 600 80 3a 00
        E 120 90 36 60
        E 120 80 36 00
        E 360 90 41 60
        E 120 80 41 00
        E 120 90 3f 60
        E 120 80 3f 00
        E 120 90 3c 60
        E 120 80 3c 00
        E 120 90 3f 60
        E 120 80 3f 00
        E 120 90 3a 60
        E 120 80 3a 00
        E 120 90 37 60
        E 120 80 37 00
        E 120 90 3c 60
        E 120 80 3c 00
        E 120 90 37 60
        E 120 80 37 00
        E 120 90 3e 60
        E 120 80 3e 00
        E 120 90 37 60
        E 120 80 37 00
        E 120 90 37 60
        E 120 80 37 00
        E 120 90 35 60
        E 120 80 35 00
        E 120 90 35 60
        E 120 80 35 00
        E 120 90 35 60
        E 120 80 35 00
        E 120 90 3a 60
        E 120 80 3a 00
        E 120 90 35 60
        E 120 80 35 00
        E 120 90 3c 60
        E 120 80 3c 00
        E 120 90 37 60
        E 120 80 37 00
        E 120 90 37 60
        E 120 80 37 00
        E 120 90 37 60
        E 120 80 37 00
        E 120 90 3a 60
        E 120 80 3a 00
        E 120 90 37 60
        E 120 80 37 00
        E 120 90 3c 60
        E 120 80 3c 00
        E 120 90 37 60
        E 120 80 37 00
        E 120 90 3e 60
        E 120 80 3e 00
        E 120 90 37 60
        E 120 80 37 00
        E 120 90 37 60
        E 120 80 37 00
        E 120 90 35 60
        E 120 80 35 00
        E 120 90 35 60
        E 120 80 35 00
        E 120 90 35 60
        E 120 80 35 00
        E 120 90 3a 60
        E 120 80 3a 00
        E 120 90 35 60
        E 120 80 35 00
        E 120 90 3c 60
        E 120 80 3c 00
        E 120 90 37 60
        E 120 80 37 00
        E 120 90 3c 60
        E 120 80 3c 00
        E 360 90 43 60
        E 600 80 43 00
        E 120 90 3c 60
        E 120 80 3c 00
        E 600 90 41 60
        E 1320 80 41 00
        E 120 90 3c 60
        E 0 90 74 60
        E 120 80 3c 00
        E 120 90 3e 60
        E 120 80 3e 00
        E 120 90 3f 60
        E 120 80 3f 00
        E 120 90 3c 60
        E 120 80 3c 00
        E 119 90 3e 60
        E 601 80 3e 00
        E 120 90 37 60
        E 840 80 37 00
        E 120 90 3a 60
        E 240 80 74 00
        E 360 80 3a 00
        E 120 90 36 60
        E 120 80 36 00
        E 360 90 41 60
        E 120 80 41 00
        E 120 90 3f 60
        E 120 80 3f 00
        E 120 90 3c 60
        E 120 80 3c 00
        E 120 90 3f 60
        E 120 80 3f 00
        E 120 90 3a 60
        E 120 80 3a 00
        E 120 90 37 60
        E 120 80 37 00
        E 120 90 3c 60
        E 120 80 3c 00
        E 120 90 37 60
        E 120 80 37 00
        E 120 90 3e 60
        E 120 80 3e 00
        E 120 90 37 60
        E 120 80 37 00
        E 120 90 37 60
        E 120 80 37 00
        E 120 90 35 60
        E 120 80 35 00
        E 120 90 35 60
        E 120 80 35 00
        E 120 90 35 60
        E 120 80 35 00
        E 120 90 3a 60
        E 120 80 3a 00
        E 120 90 35 60
        E 120 80 35 00
        E 120 90 3c 60
        E 120 80 3c 00
        E 120 90 37 60
        E 120 80 37 00
        E 120 90 37 60
        E 120 80 37 00
        E 120 90 37 60
        E 120 80 37 00
        E 120 90 3a 60
        E 120 80 3a 00
        E 120 90 37 60
        E 120 80 37 00
        E 120 90 3c 60
        E 120 80 3c 00
        E 120 90 37 60
        E 120 80 37 00
        E 120 90 3e 60
        E 120 80 3e 00
        E 120 90 37 60
        E 120 80 37 00
        E 120 90 37 60
        E 120 80 37 00
        E 120 90 35 60
        E 120 80 35 00
        E 120 90 35 60
        E 120 80 35 00
        E 120 90 35 60
        E 120 80 35 00
        E 120 90 3a 60
        E 120 80 3a 00
        E 120 90 35 60
        E 120 80 35 00
        E 120 90 3c 60
        E 120 80 3c 00
        E 120 90 37 60
        E 120 80 37 00
        E 120 90 37 60
        E 120 80 37 00
        E 120 90 37 60
        E 120 80 37 00
        E 120 90 3c 60
        E 120 80 3c 00
        E 120 90 3c 60
        E 120 80 3c 00
        E 360 90 3c 60
        E 120 80 3c 00
        E 120 90 37 60
        E 120 80 37 00
        E 360 90 3a 60
        E 480 80 3a 00
        E 0 90 00 60
        E 120 80 00 00
        E 5640 90 3c 60
        E 0 90 74 60
        E 120 80 3c 00
        E 120 90 3c 60
        E 120 80 3c 00
        E 360 90 3c 60
        E 120 80 3c 00
        E 120 90 37 60
        E 120 80 37 00
        E 360 90 36 60
        E 480 80 36 00
        E 0 80 74 00
        E 4320 90 37 60
        E 600 80 37 00
        E 120 90 3a 60
        E 600 80 3a 00
        E 120 90 3c 60
        E 120 80 3c 00
        E 120 90 3c 60
        E 120 80 3c 00
        E 360 90 3c 60
        E 120 80 3c 00
        E 120 90 37 60
        E 120 80 37 00
        E 360 90 3a 60
        E 480 80 3a 00
        E 480 90 37 60
        E 840 80 37 00
        E 120 90 3a 60
        E 120 80 3a 00
        E 120 90 36 60
        E 360 80 36 00
        E 120 90 33 60
        E 120 80 33 00
        E 120 90 30 60
        E 120 80 30 00
        E 360 90 33 60
        E 960 80 33 00
        <X 1440 0
          /wFbYmVnaW5fa2V5IHNvbmdfdHJhaW5lcl9rZXlfNV0=
        >
        E 0 90 37 60
        E 120 80 37 00
        E 120 90 3a 60
        E 120 80 3a 00
        E 120 90 3c 60
        E 120 80 3c 00
        E 120 90 3c 60
        E 120 80 3c 00
        E 360 90 3c 60
        E 120 80 3c 00
        E 120 90 37 60
        E 120 80 37 00
        E 360 90 3a 60
        E 480 80 3a 00
        E 240 90 3a 60
        E 120 80 3a 00
        E 360 90 3a 60
        E 120 80 3a 00
        E 120 90 35 60
        E 120 80 35 00
        E 360 90 36 60
        E 480 80 36 00
        E 240 90 36 60
        E 120 80 36 00
        E 360 90 36 60
        E 120 80 36 00
        E 120 90 3a 60
        E 120 80 3a 00
        E 360 90 3a 60
        E 120 80 3a 00
        E 120 90 3f 60
        E 120 80 3f 00
        E 360 90 3f 60
        E 120 80 3f 00
        E 120 90 38 60
        E 120 80 38 00
        E 360 90 38 60
        E 120 80 38 00
        E 120 90 3d 60
        E 120 80 3d 00
        E 359 90 3d 60
        E 120 80 3d 00
        E 121 90 3c 60
        E 120 80 3c 00
        <X 359 0
          /wFbZW5kX2tleSBzb25nX3RyYWluZXJfa2V5XzVd
        >
        E 5280 b0 7b 00
        GUID {A289041A-3342-4EB3-AC6C-4D1A0DB42A58}
        IGNTEMPO 0 120.00000000 4 4
        SRCCOLOR 184
        VELLANE 131 128 60
        COLORMAP "C:\Program Files\REAPER (x64)\Data\color_maps\rockband_guitarbass.png"
        CFGEDITVIEW -1463.167638 69.848485 0 13 0 0 0
        CFGEDIT 1 1 0 1 1 0 1 1 1 1 1 0.25000000 -8 -8 1544 872 0 2 1 1 0.00000000 0 1 0 0 0.500000 0 0 1.000000 64
        KEYSNAP 0 6 "102030050700" 0 "Pentatonic"
        EVTFILTER 0 -1 -1 -1 -1 0 1 0 0 -1.00000000 -1.00000000
      >
    >
  >
  <TRACK '{32D22F53-095E-499F-86F6-55C8609EE680}'
    NAME "PART REAL_KEYS_H"
    PEAKCOL 16576
    BEAT -1
    AUTOMODE 0
    VOLPAN 1.00000000000000 0.00000000000000 -1.00000000000000 -1.00000000000000 1.00000000000000
    MUTESOLO 0 0 0
    IPHASE 0
    ISBUS 0 0
    BUSCOMP 0 0
    SHOWINMIX 1 0.666700 0.500000 1 0.500000 -1 -1 -1
    FREEMODE 0
    SEL 0
    REC 0 0 0 0 0 0 0
    VU 2
    TRACKHEIGHT 0 0
    INQ 0 0 0 0.5000000000 100 0 0 100
    NCHAN 2
    FX 1
    TRACKID {32D22F53-095E-499F-86F6-55C8609EE680}
    PERF 0
    MIDIOUT -1
    <MIDINOTENAMES
      0 72 "Highest playable note B#3"
      0 71 "B3"
      0 70 "A#3"
      0 69 "A3"
      0 68 "G#3"
      0 67 "G3"
      0 66 "F#3"
      0 65 "F3"
      0 64 "E3"
      0 63 "D#3"
      0 62 "D3"
      0 61 "C#3"
      0 60 "C3"
      0 59 "B2"
      0 58 "A#2"
      0 57 "A2"
      0 56 "G#2"
      0 55 "G2"
      0 54 "F#2"
      0 53 "F2"
      0 52 "E2"
      0 51 "D#2"
      0 50 "D2"
      0 49 "C#2"
      0 48 "Lowest playable note C2"
      0 10 "---"
      0 9 "Range A2-C4"
      0 8 "Range"
      0 7 "Range"
      0 6 "Range"
      0 5 "Range F2-A3"
      0 4 "Range"
      0 3 "Range"
      0 2 "Range"
      0 1 "Range"
      0 0 "Range C2-E3"
    >
    MAINSEND 1 0
    <FXCHAIN
      SHOW 0
      LASTSEL 0
      DOCKED 0
    >
    <ITEM
      POSITION 0.00000000000000
      SNAPOFFS 0.00000000000000
      LENGTH 128.91399999999999
      LOOP 0
      ALLTAKES 0
      SEL 0
      FADEIN 1 0.000000 0.000000 1 0
      FADEOUT 1 0.000000 0.000000 1 0
      MUTE 0
      IGUID {5B2CD313-D310-4677-9145-5A4C43EF9BA4}
      IID 6
      NAME "PART REAL_KEYS_H"
      VOLPAN 1.000000 0.000000 1.000000 -1.000000
      SOFFS 0.00000000000000 0.00000000000000
      PLAYRATE 1.00000000000000 1 0.00000000000000 -1
      CHANMODE 0
      GUID {9EF7EF63-2E23-4B85-8973-C323F79F97E6}
      <SOURCE MIDI
        HASDATA 1 480 QN
        POOLEDEVTS {A30A0F07-710C-487D-A013-CFC489F5D0D8}
        <X 0 0
          /wNQQVJUIFJFQUxfS0VZU19I
        >
        E 0 90 05 60
        E 120 80 05 00
        E 21000 90 3a 60
        E 120 80 3a 00
        E 360 90 3c 60
        E 120 80 3c 00
        E 360 90 3e 60
        E 120 80 3e 00
        E 360 90 37 60
        E 120 80 37 00
        E 360 90 35 60
        E 120 80 35 00
        E 360 90 3a 60
        E 120 80 3a 00
        E 360 90 3c 60
        E 120 80 3c 00
        E 360 90 37 60
        E 120 80 37 00
        E 360 90 3a 60
        E 120 80 3a 00
        E 360 90 3c 60
        E 120 80 3c 00
        E 360 90 3e 60
        E 120 80 3e 00
        E 360 90 37 60
        E 120 80 37 00
        E 360 90 35 60
        E 120 80 35 00
        E 360 90 3a 60
        E 120 80 3a 00
        E 360 90 3c 60
        E 120 80 3c 00
        E 360 90 37 60
        E 120 80 37 00
        E 360 90 3a 60
        E 120 80 3a 00
        E 360 90 3c 60
        E 120 80 3c 00
        E 360 90 3e 60
        E 120 80 3e 00
        E 360 90 37 60
        E 120 80 37 00
        E 360 90 35 60
        E 120 80 35 00
        E 360 90 3a 60
        E 120 80 3a 00
        E 360 90 3c 60
        E 120 80 3c 00
        E 360 90 37 60
        E 120 80 37 00
        E 360 90 3a 60
        E 120 80 3a 00
        E 360 90 3c 60
        E 120 80 3c 00
        E 360 90 3e 60
        E 120 80 3e 00
        E 360 90 37 60
        E 120 80 37 00
        E 360 90 35 60
        E 120 80 35 00
        E 360 90 3a 60
        E 120 80 3a 00
        E 360 90 3c 60
        E 120 80 3c 00
        E 360 90 37 60
        E 120 80 37 00
        E 360 90 3a 60
        E 120 80 3a 00
        E 360 90 3c 60
        E 120 80 3c 00
        E 360 90 3e 60
        E 120 80 3e 00
        E 360 90 37 60
        E 120 80 37 00
        E 360 90 35 60
        E 120 80 35 00
        E 360 90 3a 60
        E 120 80 3a 00
        E 360 90 3c 60
        E 120 80 3c 00
        E 360 90 37 60
        E 120 80 37 00
        E 360 90 3a 60
        E 120 80 3a 00
        E 360 90 3c 60
        E 120 80 3c 00
        E 360 90 3e 60
        E 120 80 3e 00
        E 360 90 37 60
        E 120 80 37 00
        E 360 90 35 60
        E 120 80 35 00
        E 360 90 3a 60
        E 120 80 3a 00
        E 360 90 3c 60
        E 120 80 3c 00
        E 360 90 37 60
        E 120 80 37 00
        E 360 90 3a 60
        E 120 80 3a 00
        E 360 90 3c 60
        E 120 80 3c 00
        E 360 90 3e 60
        E 120 80 3e 00
        E 360 90 37 60
        E 120 80 37 00
        E 360 90 35 60
        E 120 80 35 00
        E 360 90 3a 60
        E 120 80 3a 00
        E 360 90 3c 60
        E 120 80 3c 00
        E 360 90 37 60
        E 120 80 37 00
        E 360 90 3a 60
        E 120 80 3a 00
        E 360 90 3c 60
        E 120 80 3c 00
        E 360 90 3e 60
        E 120 80 3e 00
        E 360 90 37 60
        E 120 80 37 00
        E 360 90 35 60
        E 120 80 35 00
        E 360 90 3a 60
        E 120 80 3a 00
        E 360 90 3c 60
        E 120 80 3c 00
        E 360 90 37 60
        E 120 80 37 00
        E 360 90 43 60
        E 600 80 43 00
        E 120 90 3c 60
        E 120 80 3c 00
        E 600 90 41 60
        E 1320 80 41 00
        E 120 90 3c 60
        E 120 80 3c 00
        E 360 90 3f 60
        E 120 80 3f 00
        E 359 90 3e 60
        E 601 80 3e 00
        E 120 90 37 60
        E 840 80 37 00
        E 120 90 3a 60
        E 600 80 3a 00
        E 120 90 36 60
        E 120 80 36 00
        E 360 90 41 60
        E 120 80 41 00
        E 360 90 3c 60
        E 120 80 3c 00
        E 1320 90 3e 60
        E 120 80 3e 00
        E 360 90 37 60
        E 120 80 37 00
        E 360 90 35 60
        E 120 80 35 00
        E 360 90 3a 60
        E 120 80 3a 00
        E 360 90 3c 60
        E 120 80 3c 00
        E 360 90 37 60
        E 120 80 37 00
        E 360 90 3a 60
        E 120 80 3a 00
        E 360 90 3c 60
        E 120 80 3c 00
        E 360 90 3e 60
        E 120 80 3e 00
        E 360 90 37 60
        E 120 80 37 00
        E 360 90 35 60
        E 120 80 35 00
        E 360 90 3a 60
        E 120 80 3a 00
        E 360 90 3c 60
        E 120 80 3c 00
        E 360 90 3c 60
        E 120 80 3c 00
        E 360 90 43 60
        E 600 80 43 00
        E 120 90 3c 60
        E 120 80 3c 00
        E 600 90 41 60
        E 1320 80 41 00
        E 120 90 3c 60
        E 120 80 3c 00
        E 360 90 3f 60
        E 120 80 3f 00
        E 359 90 3e 60
        E 601 80 3e 00
        E 120 90 37 60
        E 840 80 37 00
        E 120 90 3a 60
        E 600 80 3a 00
        E 120 90 36 60
        E 120 80 36 00
        E 360 90 41 60
        E 120 80 41 00
        E 360 90 3c 60
        E 120 80 3c 00
        E 1320 90 3e 60
        E 120 80 3e 00
        E 360 90 37 60
        E 120 80 37 00
        E 360 90 35 60
        E 120 80 35 00
        E 360 90 3a 60
        E 120 80 3a 00
        E 360 90 3c 60
        E 120 80 3c 00
        E 360 90 37 60
        E 120 80 37 00
        E 360 90 3a 60
        E 120 80 3a 00
        E 360 90 3c 60
        E 120 80 3c 00
        E 360 90 3e 60
        E 120 80 3e 00
        E 360 90 37 60
        E 120 80 37 00
        E 360 90 35 60
        E 120 80 35 00
        E 360 90 3a 60
        E 120 80 3a 00
        E 360 90 3c 60
        E 120 80 3c 00
        E 360 90 09 60
        E 120 80 09 00
        E 360 90 3f 60
        E 120 80 3f 00
        E 3480 90 42 60
        E 120 80 42 00
        E 360 90 41 60
        E 120 80 41 00
        E 360 90 3f 60
        E 360 80 3f 00
        E 120 90 41 60
        E 120 80 41 00
        E 360 90 3c 60
        E 1320 80 3c 00
        E 120 90 3f 60
        E 120 80 3f 00
        E 360 90 3f 60
        E 120 80 3f 00
        E 3720 90 43 60
        E 120 80 43 00
        E 360 90 43 60
        E 120 80 43 00
        E 360 90 41 60
        E 360 80 41 00
        E 120 90 3f 60
        E 120 80 3f 00
        E 360 90 3c 60
        E 840 80 3c 00
        E 120 90 3f 60
        E 120 80 3f 00
        E 599 90 3f 60
        E 120 80 3f 00
        E 3960 90 3f 60
        E 120 80 3f 00
        E 361 90 43 60
        E 120 80 43 00
        E 360 90 3f 60
        E 360 80 3f 00
        E 120 90 41 60
        E 120 80 41 00
        E 360 90 3c 60
        E 1080 80 3c 00
        E 120 90 3a 60
        E 120 80 3a 00
        E 360 90 3f 60
        E 120 80 3f 00
        E 3960 90 46 60
        E 120 80 46 00
        E 600 90 05 60
        E 120 80 05 00
        E 120 90 41 60
        E 360 80 41 00
        E 120 90 3f 60
        E 120 80 3f 00
        E 360 90 3c 60
        E 360 80 3c 00
        E 360 90 37 60
        E 120 80 37 00
        E 360 90 35 60
        E 120 80 35 00
        E 360 90 3c 60
        E 120 80 3c 00
        E 360 90 43 60
        E 600 80 43 00
        E 120 90 3c 60
        E 120 80 3c 00
        E 600 90 41 60
        E 1320 80 41 00
        E 120 90 3c 60
        E 120 80 3c 00
        E 360 90 3f 60
        E 120 80 3f 00
        E 359 90 3e 60
        E 601 80 3e 00
        E 120 90 37 60
        E 840 80 37 00
        E 120 90 3a 60
        E 600 80 3a 00
        E 120 90 36 60
        E 120 80 36 00
        E 360 90 41 60
        E 120 80 41 00
        E 360 90 3c 60
        E 120 80 3c 00
        E 1320 90 3e 60
        E 120 80 3e 00
        E 360 90 37 60
        E 120 80 37 00
        E 360 90 35 60
        E 120 80 35 00
        E 360 90 3a 60
        E 120 80 3a 00
        E 360 90 3c 60
        E 120 80 3c 00
        E 360 90 37 60
        E 120 80 37 00
        E 360 90 3a 60
        E 120 80 3a 00
        E 360 90 3c 60
        E 120 80 3c 00
        E 360 90 3e 60
        E 120 80 3e 00
        E 360 90 37 60
        E 120 80 37 00
        E 360 90 35 60
        E 120 80 35 00
        E 360 90 3a 60
        E 120 80 3a 00
        E 360 90 3c 60
        E 120 80 3c 00
        E 360 90 3c 60
        E 120 80 3c 00
        E 360 90 43 60
        E 600 80 43 00
        E 120 90 3c 60
        E 120 80 3c 00
        E 600 90 41 60
        E 1320 80 41 00
        E 120 90 3c 60
        E 120 80 3c 00
        E 360 90 3f 60
        E 120 80 3f 00
        E 359 90 3e 60
        E 601 80 3e 00
        E 120 90 37 60
        E 840 80 37 00
        E 120 90 3a 60
        E 600 80 3a 00
        E 120 90 36 60
        E 120 80 36 00
        E 360 90 41 60
        E 120 80 41 00
        E 360 90 3c 60
        E 120 80 3c 00
        E 360 90 3a 60
        E 120 80 3a 00
        E 360 90 3c 60
        E 120 80 3c 00
        E 360 90 3e 60
        E 120 80 3e 00
        E 360 90 37 60
        E 120 80 37 00
        E 360 90 35 60
        E 120 80 35 00
        E 360 90 3a 60
        E 120 80 3a 00
        E 360 90 3c 60
        E 120 80 3c 00
        E 360 90 37 60
        E 120 80 37 00
        E 360 90 3a 60
        E 120 80 3a 00
        E 360 90 3c 60
        E 120 80 3c 00
        E 360 90 3e 60
        E 120 80 3e 00
        E 360 90 37 60
        E 120 80 37 00
        E 360 90 35 60
        E 120 80 35 00
        E 360 90 3a 60
        E 120 80 3a 00
        E 360 90 3c 60
        E 120 80 3c 00
        E 360 90 37 60
        E 120 80 37 00
        E 360 90 3c 60
        E 120 80 3c 00
        E 840 90 37 60
        E 120 80 37 00
        E 360 90 3a 60
        E 480 80 3a 00
        E 0 90 00 60
        E 120 80 00 00
        E 5640 90 3c 60
        E 120 80 3c 00
        E 840 90 37 60
        E 120 80 37 00
        E 360 90 36 60
        E 480 80 36 00
        E 4320 90 37 60
        E 600 80 37 00
        E 120 90 3a 60
        E 600 80 3a 00
        E 120 90 3c 60
        E 120 80 3c 00
        E 840 90 37 60
        E 120 80 37 00
        E 360 90 3a 60
        E 480 80 3a 00
        E 480 90 37 60
        E 840 80 37 00
        E 120 90 3a 60
        E 120 80 3a 00
        E 840 90 30 60
        E 120 80 30 00
        E 360 90 33 60
        E 960 80 33 00
        E 1440 90 37 60
        E 120 80 37 00
        E 360 90 3c 60
        E 120 80 3c 00
        E 840 90 37 60
        E 120 80 37 00
        E 360 90 3a 60
        E 480 80 3a 00
        E 240 90 3a 60
        E 120 80 3a 00
        E 600 90 35 60
        E 120 80 35 00
        E 360 90 36 60
        E 480 80 36 00
        E 240 90 36 60
        E 120 80 36 00
        E 600 90 3a 60
        E 120 80 3a 00
        E 360 90 3a 60
        E 120 80 3a 00
        E 840 90 38 60
        E 120 80 38 00
        E 360 90 38 60
        E 120 80 38 00
        E 840 90 3c 60
        E 120 80 3c 00
        E 5639 b0 7b 00
        GUID {E3CBD2F3-7BE3-40C5-A8F7-5CB95FEEAB21}
        IGNTEMPO 0 120.00000000 4 4
        SRCCOLOR 185
        VELLANE 131 128 60
        COLORMAP "C:\Program Files\REAPER (x64)\Data\color_maps\rockband_guitarbass.png"
        CFGEDITVIEW -1463.167638 69.848485 2 15 0 0 0
        CFGEDIT 1 1 0 1 1 0 1 1 1 1 1 0.25000000 -8 -8 1544 872 0 2 1 1 0.00000000 0 1 0 0 0.500000 0 0 1.000000 64
        KEYSNAP 0 6 "102030050700" 0 "Pentatonic"
        EVTFILTER 0 -1 -1 -1 -1 0 1 0 0 -1.00000000 -1.00000000
      >
    >
  >
  <TRACK '{C67BDF57-3B82-463B-9FA3-C08D00ACE69D}'
    NAME "PART REAL_KEYS_M"
    PEAKCOL 16576
    BEAT -1
    AUTOMODE 0
    VOLPAN 1.00000000000000 0.00000000000000 -1.00000000000000 -1.00000000000000 1.00000000000000
    MUTESOLO 0 0 0
    IPHASE 0
    ISBUS 0 0
    BUSCOMP 0 0
    SHOWINMIX 1 0.666700 0.500000 1 0.500000 -1 -1 -1
    FREEMODE 0
    SEL 0
    REC 0 0 0 0 0 0 0
    VU 2
    TRACKHEIGHT 0 0
    INQ 0 0 0 0.5000000000 100 0 0 100
    NCHAN 2
    FX 1
    TRACKID {C67BDF57-3B82-463B-9FA3-C08D00ACE69D}
    PERF 0
    MIDIOUT -1
    <MIDINOTENAMES
      0 72 "Highest playable note B#3"
      0 71 "B3"
      0 70 "A#3"
      0 69 "A3"
      0 68 "G#3"
      0 67 "G3"
      0 66 "F#3"
      0 65 "F3"
      0 64 "E3"
      0 63 "D#3"
      0 62 "D3"
      0 61 "C#3"
      0 60 "C3"
      0 59 "B2"
      0 58 "A#2"
      0 57 "A2"
      0 56 "G#2"
      0 55 "G2"
      0 54 "F#2"
      0 53 "F2"
      0 52 "E2"
      0 51 "D#2"
      0 50 "D2"
      0 49 "C#2"
      0 48 "Lowest playable note C2"
      0 10 "---"
      0 9 "Range A2-C4"
      0 8 "Range"
      0 7 "Range"
      0 6 "Range"
      0 5 "Range F2-A3"
      0 4 "Range"
      0 3 "Range"
      0 2 "Range"
      0 1 "Range"
      0 0 "Range C2-E3"
    >
    MAINSEND 1 0
    <FXCHAIN
      SHOW 0
      LASTSEL 0
      DOCKED 0
    >
    <ITEM
      POSITION 0.00000000000000
      SNAPOFFS 0.00000000000000
      LENGTH 128.91399999999999
      LOOP 0
      ALLTAKES 0
      SEL 0
      FADEIN 1 0.000000 0.000000 1 0
      FADEOUT 1 0.000000 0.000000 1 0
      MUTE 0
      IGUID {F6821D09-D1EA-4592-8792-092BCFC1D957}
      IID 7
      NAME "PART REAL_KEYS_M"
      VOLPAN 1.000000 0.000000 1.000000 -1.000000
      SOFFS 0.00000000000000 0.00000000000000
      PLAYRATE 1.00000000000000 1 0.00000000000000 -1
      CHANMODE 0
      GUID {A2BD0679-88E0-4A86-8819-20AA9164B017}
      <SOURCE MIDI
        HASDATA 1 480 QN
        POOLEDEVTS {DAFEA3CB-3140-48AF-96CE-1FE74DFE2F55}
        <X 0 0
          /wNQQVJUIFJFQUxfS0VZU19N
        >
        E 0 90 05 60
        E 120 80 05 00
        E 21000 90 3a 60
        E 120 80 3a 00
        E 840 90 3e 60
        E 120 80 3e 00
        E 840 90 35 60
        E 120 80 35 00
        E 840 90 3c 60
        E 120 80 3c 00
        E 840 90 3a 60
        E 120 80 3a 00
        E 840 90 3e 60
        E 120 80 3e 00
        E 840 90 35 60
        E 120 80 35 00
        E 840 90 3c 60
        E 120 80 3c 00
        E 840 90 3a 60
        E 120 80 3a 00
        E 840 90 3e 60
        E 120 80 3e 00
        E 840 90 35 60
        E 120 80 35 00
        E 840 90 3c 60
        E 120 80 3c 00
        E 840 90 3a 60
        E 120 80 3a 00
        E 840 90 3e 60
        E 120 80 3e 00
        E 840 90 35 60
        E 120 80 35 00
        E 840 90 3c 60
        E 120 80 3c 00
        E 840 90 3a 60
        E 120 80 3a 00
        E 840 90 3e 60
        E 120 80 3e 00
        E 840 90 35 60
        E 120 80 35 00
        E 840 90 3c 60
        E 120 80 3c 00
        E 840 90 3a 60
        E 120 80 3a 00
        E 840 90 3e 60
        E 120 80 3e 00
        E 840 90 35 60
        E 120 80 35 00
        E 840 90 3c 60
        E 120 80 3c 00
        E 840 90 3a 60
        E 120 80 3a 00
        E 840 90 3e 60
        E 120 80 3e 00
        E 840 90 35 60
        E 120 80 35 00
        E 840 90 3c 60
        E 120 80 3c 00
        E 840 90 3a 60
        E 120 80 3a 00
        E 840 90 3e 60
        E 120 80 3e 00
        E 840 90 35 60
        E 120 80 35 00
        E 840 90 3c 60
        E 120 80 3c 00
        E 840 90 43 60
        E 600 80 43 00
        E 840 90 41 60
        E 1320 80 41 00
        E 120 90 3c 60
        E 120 80 3c 00
        E 839 90 3e 60
        E 601 80 3e 00
        E 1080 90 3a 60
        E 600 80 3a 00
        E 600 90 41 60
        E 120 80 41 00
        E 1800 90 3e 60
        E 120 80 3e 00
        E 840 90 35 60
        E 120 80 35 00
        E 840 90 3c 60
        E 120 80 3c 00
        E 840 90 3a 60
        E 120 80 3a 00
        E 840 90 3e 60
        E 120 80 3e 00
        E 840 90 35 60
        E 120 80 35 00
        E 840 90 3c 60
        E 120 80 3c 00
        E 840 90 43 60
        E 600 80 43 00
        E 840 90 41 60
        E 1320 80 41 00
        E 120 90 3c 60
        E 120 80 3c 00
        E 839 90 3e 60
        E 601 80 3e 00
        E 1080 90 3a 60
        E 600 80 3a 00
        E 600 90 41 60
        E 120 80 41 00
        E 1800 90 3e 60
        E 120 80 3e 00
        E 840 90 35 60
        E 120 80 35 00
        E 840 90 3c 60
        E 120 80 3c 00
        E 840 90 3a 60
        E 120 80 3a 00
        E 840 90 3e 60
        E 120 80 3e 00
        E 840 90 35 60
        E 120 80 35 00
        E 840 90 3c 60
        E 120 80 3c 00
        E 840 90 3f 60
        E 120 80 3f 00
        E 3480 90 42 60
        E 120 80 42 00
        E 840 90 3f 60
        E 360 80 3f 00
        E 600 90 3c 60
        E 1320 80 3c 00
        E 120 90 3f 60
        E 120 80 3f 00
        E 4200 90 43 60
        E 120 80 43 00
        E 840 90 41 60
        E 360 80 41 00
        E 600 90 3c 60
        E 840 80 3c 00
        E 120 90 3f 60
        E 120 80 3f 00
        E 4679 90 3f 60
        E 120 80 3f 00
        E 841 90 3f 60
        E 360 80 3f 00
        E 600 90 3c 60
        E 1080 80 3c 00
        E 120 90 3a 60
        E 120 80 3a 00
        E 360 90 3f 60
        E 120 80 3f 00
        E 3960 90 3a 60
        E 120 80 3a 00
        E 840 90 41 60
        E 360 80 41 00
        E 600 90 3c 60
        E 360 80 3c 00
        E 840 90 35 60
        E 120 80 35 00
        E 840 90 43 60
        E 600 80 43 00
        E 840 90 41 60
        E 1320 80 41 00
        E 120 90 3c 60
        E 120 80 3c 00
        E 839 90 3e 60
        E 601 80 3e 00
        E 1080 90 3a 60
        E 600 80 3a 00
        E 600 90 41 60
        E 120 80 41 00
        E 1800 90 3e 60
        E 120 80 3e 00
        E 840 90 35 60
        E 120 80 35 00
        E 840 90 3c 60
        E 120 80 3c 00
        E 840 90 3a 60
        E 120 80 3a 00
        E 840 90 3e 60
        E 120 80 3e 00
        E 840 90 35 60
        E 120 80 35 00
        E 840 90 3c 60
        E 120 80 3c 00
        E 840 90 43 60
        E 600 80 43 00
        E 840 90 41 60
        E 1320 80 41 00
        E 120 90 3c 60
        E 120 80 3c 00
        E 839 90 3e 60
        E 601 80 3e 00
        E 1080 90 3a 60
        E 600 80 3a 00
        E 600 90 41 60
        E 120 80 41 00
        E 840 90 3a 60
        E 120 80 3a 00
        E 840 90 3e 60
        E 120 80 3e 00
        E 840 90 35 60
        E 120 80 35 00
        E 840 90 3c 60
        E 120 80 3c 00
        E 840 90 3a 60
        E 120 80 3a 00
        E 840 90 3e 60
        E 120 80 3e 00
        E 840 90 35 60
        E 120 80 35 00
        E 840 90 3c 60
        E 120 80 3c 00
        E 840 90 3c 60
        E 120 80 3c 00
        E 840 90 37 60
        E 120 80 37 00
        E 6600 90 3c 60
        E 120 80 3c 00
        E 840 90 37 60
        E 120 80 37 00
        E 5160 90 37 60
        E 600 80 37 00
        E 840 90 3c 60
        E 120 80 3c 00
        E 840 90 37 60
        E 120 80 37 00
        E 1320 90 37 60
        E 840 80 37 00
        E 120 90 3a 60
        E 120 80 3a 00
        E 1320 90 3f 60
        E 960 80 3f 00
        E 1920 90 3c 60
        E 120 80 3c 00
        E 840 90 37 60
        E 120 80 37 00
        E 1800 90 35 60
        E 120 80 35 00
        E 1800 90 3a 60
        E 120 80 3a 00
        E 1800 90 38 60
        E 120 80 38 00
        E 840 90 3c 60
        E 120 80 3c 00
        E 5639 b0 7b 00
        GUID {BF0FBFC9-A1EF-4E2D-A475-D19FD6711BF3}
        IGNTEMPO 0 120.00000000 4 4
        SRCCOLOR 186
        VELLANE 131 128 60
        COLORMAP "C:\Program Files\REAPER (x64)\Data\color_maps\rockband_guitarbass.png"
        CFGEDITVIEW -1463.167638 69.848485 5 15 0 0 0
        CFGEDIT 1 1 0 1 1 0 1 1 1 1 1 0.25000000 -8 -8 1544 872 0 2 1 1 0.00000000 0 1 0 0 0.500000 0 0 1.000000 64
        KEYSNAP 0 6 "102030050700" 0 "Pentatonic"
        EVTFILTER 0 -1 -1 -1 -1 0 1 0 0 -1.00000000 -1.00000000
      >
    >
  >
  <TRACK '{40AF9EF9-7182-471E-8A1E-A53BEE685729}'
    NAME "PART REAL_KEYS_E"
    PEAKCOL 16576
    BEAT -1
    AUTOMODE 0
    VOLPAN 1.00000000000000 0.00000000000000 -1.00000000000000 -1.00000000000000 1.00000000000000
    MUTESOLO 0 0 0
    IPHASE 0
    ISBUS 0 0
    BUSCOMP 0 0
    SHOWINMIX 1 0.666700 0.500000 1 0.500000 -1 -1 -1
    FREEMODE 0
    SEL 0
    REC 0 0 0 0 0 0 0
    VU 2
    TRACKHEIGHT 0 0
    INQ 0 0 0 0.5000000000 100 0 0 100
    NCHAN 2
    FX 1
    TRACKID {40AF9EF9-7182-471E-8A1E-A53BEE685729}
    PERF 0
    MIDIOUT -1
    <MIDINOTENAMES
      0 72 "Highest playable note B#3"
      0 71 "B3"
      0 70 "A#3"
      0 69 "A3"
      0 68 "G#3"
      0 67 "G3"
      0 66 "F#3"
      0 65 "F3"
      0 64 "E3"
      0 63 "D#3"
      0 62 "D3"
      0 61 "C#3"
      0 60 "C3"
      0 59 "B2"
      0 58 "A#2"
      0 57 "A2"
      0 56 "G#2"
      0 55 "G2"
      0 54 "F#2"
      0 53 "F2"
      0 52 "E2"
      0 51 "D#2"
      0 50 "D2"
      0 49 "C#2"
      0 48 "Lowest playable note C2"
      0 10 "---"
      0 9 "Range A2-C4"
      0 8 "Range"
      0 7 "Range"
      0 6 "Range"
      0 5 "Range F2-A3"
      0 4 "Range"
      0 3 "Range"
      0 2 "Range"
      0 1 "Range"
      0 0 "Range C2-E3"
    >
    MAINSEND 1 0
    <FXCHAIN
      SHOW 0
      LASTSEL 0
      DOCKED 0
    >
    <ITEM
      POSITION 0.00000000000000
      SNAPOFFS 0.00000000000000
      LENGTH 128.91399999999999
      LOOP 0
      ALLTAKES 0
      SEL 0
      FADEIN 1 0.000000 0.000000 1 0
      FADEOUT 1 0.000000 0.000000 1 0
      MUTE 0
      IGUID {32B8AD0B-D627-44D4-9068-F7E7BD00CEF4}
      IID 8
      NAME "PART REAL_KEYS_E"
      VOLPAN 1.000000 0.000000 1.000000 -1.000000
      SOFFS 0.00000000000000 0.00000000000000
      PLAYRATE 1.00000000000000 1 0.00000000000000 -1
      CHANMODE 0
      GUID {83418DC1-EF18-4647-B73C-61CB44E875A3}
      <SOURCE MIDI
        HASDATA 1 480 QN
        POOLEDEVTS {38883DE9-02AD-445C-80D0-15BBC5E9889C}
        <X 0 0
          /wNQQVJUIFJFQUxfS0VZU19F
        >
        E 0 90 05 60
        E 120 80 05 00
        E 21000 90 3a 60
        E 120 80 3a 00
        E 1800 90 35 60
        E 120 80 35 00
        E 1800 90 3a 60
        E 120 80 3a 00
        E 1800 90 35 60
        E 120 80 35 00
        E 1800 90 3a 60
        E 120 80 3a 00
        E 1800 90 35 60
        E 120 80 35 00
        E 1800 90 3a 60
        E 120 80 3a 00
        E 1800 90 35 60
        E 120 80 35 00
        E 1800 90 3a 60
        E 120 80 3a 00
        E 1800 90 35 60
        E 120 80 35 00
        E 1800 90 3a 60
        E 120 80 3a 00
        E 1800 90 35 60
        E 120 80 35 00
        E 1800 90 3a 60
        E 120 80 3a 00
        E 1800 90 35 60
        E 120 80 35 00
        E 1800 90 3a 60
        E 120 80 3a 00
        E 1800 90 35 60
        E 120 80 35 00
        E 1800 90 43 60
        E 600 80 43 00
        E 3239 90 3e 60
        E 601 80 3e 00
        E 2280 90 41 60
        E 120 80 41 00
        E 2760 90 35 60
        E 120 80 35 00
        E 1800 90 3a 60
        E 120 80 3a 00
        E 1800 90 35 60
        E 120 80 35 00
        E 1800 90 43 60
        E 600 80 43 00
        E 3239 90 3e 60
        E 601 80 3e 00
        E 2280 90 41 60
        E 120 80 41 00
        E 2760 90 35 60
        E 120 80 35 00
        E 1800 90 3a 60
        E 120 80 3a 00
        E 1800 90 35 60
        E 120 80 35 00
        E 1800 90 3f 60
        E 120 80 3f 00
        E 3480 90 42 60
        E 120 80 42 00
        E 1800 90 3c 60
        E 1320 80 3c 00
        E 4440 90 43 60
        E 120 80 43 00
        E 1800 90 3c 60
        E 840 80 3c 00
        E 4919 90 3f 60
        E 120 80 3f 00
        E 1801 90 3c 60
        E 1080 80 3c 00
        E 4680 90 3a 60
        E 120 80 3a 00
        E 1800 90 3c 60
        E 360 80 3c 00
        E 1800 90 43 60
        E 600 80 43 00
        E 3239 90 3e 60
        E 601 80 3e 00
        E 2280 90 41 60
        E 120 80 41 00
        E 2760 90 35 60
        E 120 80 35 00
        E 1800 90 3a 60
        E 120 80 3a 00
        E 1800 90 35 60
        E 120 80 35 00
        E 1800 90 43 60
        E 600 80 43 00
        E 3239 90 3e 60
        E 601 80 3e 00
        E 2280 90 41 60
        E 120 80 41 00
        E 840 90 3a 60
        E 120 80 3a 00
        E 1800 90 35 60
        E 120 80 35 00
        E 1800 90 3a 60
        E 120 80 3a 00
        E 1800 90 35 60
        E 120 80 35 00
        E 1800 90 3c 60
        E 120 80 3c 00
        E 7560 90 3c 60
        E 120 80 3c 00
        E 7560 90 3c 60
        E 120 80 3c 00
        E 2280 90 37 60
        E 840 80 37 00
        E 1560 90 3f 60
        E 960 80 3f 00
        E 1920 90 3c 60
        E 120 80 3c 00
        E 2760 90 35 60
        E 120 80 35 00
        E 1800 90 3a 60
        E 120 80 3a 00
        E 2760 90 3c 60
        E 120 80 3c 00
        E 5639 b0 7b 00
        GUID {EB31C3E7-3D8E-4C50-86BA-AB523C664B86}
        IGNTEMPO 0 120.00000000 4 4
        SRCCOLOR 187
        VELLANE 131 128 60
        COLORMAP "C:\Program Files\REAPER (x64)\Data\color_maps\rockband_guitarbass.png"
        CFGEDITVIEW -1463.167638 69.848485 5 15 0 0 0
        CFGEDIT 1 1 0 1 1 0 1 1 1 1 1 0.25000000 -8 -8 1544 872 0 2 1 1 0.00000000 0 1 0 0 0.500000 0 0 1.000000 64
        KEYSNAP 0 6 "102030050700" 0 "Pentatonic"
        EVTFILTER 0 -1 -1 -1 -1 0 1 0 0 -1.00000000 -1.00000000
      >
    >
  >
  <TRACK '{F7A4A922-1B15-4D3D-BD28-91EC62A9BDE0}'
    NAME "PART KEYS_ANIM_RH"
    PEAKCOL 16576
    BEAT -1
    AUTOMODE 0
    VOLPAN 1.00000000000000 0.00000000000000 -1.00000000000000 -1.00000000000000 1.00000000000000
    MUTESOLO 0 0 0
    IPHASE 0
    ISBUS 0 0
    BUSCOMP 0 0
    SHOWINMIX 1 0.666700 0.500000 1 0.500000 -1 -1 -1
    FREEMODE 0
    SEL 0
    REC 0 0 0 0 0 0 0
    VU 2
    TRACKHEIGHT 0 0
    INQ 0 0 0 0.5000000000 100 0 0 100
    NCHAN 2
    FX 1
    TRACKID {F7A4A922-1B15-4D3D-BD28-91EC62A9BDE0}
    PERF 0
    MIDIOUT -1
    <MIDINOTENAMES
      0 72 "Highest playable note B#3"
      0 71 "B3"
      0 70 "A#3"
      0 69 "A3"
      0 68 "G#3"
      0 67 "G3"
      0 66 "F#3"
      0 65 "F3"
      0 64 "E3"
      0 63 "D#3"
      0 62 "D3"
      0 61 "C#3"
      0 60 "C3"
      0 59 "B2"
      0 58 "A#2"
      0 57 "A2"
      0 56 "G#2"
      0 55 "G2"
      0 54 "F#2"
      0 53 "F2"
      0 52 "E2"
      0 51 "D#2"
      0 50 "D2"
      0 49 "C#2"
      0 48 "Lowest playable note C2"
    >
    MAINSEND 1 0
    <FXCHAIN
      SHOW 0
      LASTSEL 0
      DOCKED 0
    >
    <ITEM
      POSITION 0.00000000000000
      SNAPOFFS 0.00000000000000
      LENGTH 128.91399999999999
      LOOP 0
      ALLTAKES 0
      SEL 0
      FADEIN 1 0.000000 0.000000 1 0
      FADEOUT 1 0.000000 0.000000 1 0
      MUTE 0
      IGUID {6C3D8640-0C1F-4197-B6EA-AB20C3BF3509}
      IID 9
      NAME "PART KEYS_ANIM_RH"
      VOLPAN 1.000000 0.000000 1.000000 -1.000000
      SOFFS 0.00000000000000 0.00000000000000
      PLAYRATE 1.00000000000000 1 0.00000000000000 -1
      CHANMODE 0
      GUID {D830930F-E888-40D7-BA73-071852990E64}
      <SOURCE MIDI
        HASDATA 1 480 QN
        POOLEDEVTS {97BFC3C2-7C29-4CB0-96FC-34B4A1AD1990}
        <X 0 0
          /wNQQVJUIEtFWVNfQU5JTV9SSA==
        >
        E 21120 90 3a 60
        E 120 80 3a 00
        E 120 90 37 60
        E 120 80 37 00
        E 120 90 3c 60
        E 120 80 3c 00
        E 120 90 37 60
        E 120 80 37 00
        E 120 90 3e 60
        E 120 80 3e 00
        E 120 90 37 60
        E 120 80 37 00
        E 120 90 37 60
        E 120 80 37 00
        E 120 90 35 60
        E 120 80 35 00
        E 120 90 35 60
        E 120 80 35 00
        E 120 90 35 60
        E 120 80 35 00
        E 120 90 3a 60
        E 120 80 3a 00
        E 120 90 35 60
        E 120 80 35 00
        E 120 90 3c 60
        E 120 80 3c 00
        E 120 90 37 60
        E 120 80 37 00
        E 120 90 37 60
        E 120 80 37 00
        E 120 90 37 60
        E 120 80 37 00
        E 120 90 3a 60
        E 120 80 3a 00
        E 120 90 37 60
        E 120 80 37 00
        E 120 90 3c 60
        E 120 80 3c 00
        E 120 90 37 60
        E 120 80 37 00
        E 120 90 3e 60
        E 120 80 3e 00
        E 120 90 37 60
        E 120 80 37 00
        E 120 90 37 60
        E 120 80 37 00
        E 120 90 35 60
        E 120 80 35 00
        E 120 90 35 60
        E 120 80 35 00
        E 120 90 35 60
        E 120 80 35 00
        E 120 90 3a 60
        E 120 80 3a 00
        E 120 90 35 60
        E 120 80 35 00
        E 120 90 3c 60
        E 120 80 3c 00
        E 120 90 37 60
        E 120 80 37 00
        E 120 90 37 60
        E 120 80 37 00
        E 120 90 37 60
        E 120 80 37 00
        E 120 90 3a 60
        E 120 80 3a 00
        E 120 90 37 60
        E 120 80 37 00
        E 120 90 3c 60
        E 120 80 3c 00
        E 120 90 37 60
        E 120 80 37 00
        E 120 90 3e 60
        E 120 80 3e 00
        E 120 90 37 60
        E 120 80 37 00
        E 120 90 37 60
        E 120 80 37 00
        E 120 90 35 60
        E 120 80 35 00
        E 120 90 35 60
        E 120 80 35 00
        E 120 90 35 60
        E 120 80 35 00
        E 120 90 3a 60
        E 120 80 3a 00
        E 120 90 35 60
        E 120 80 35 00
        E 120 90 3c 60
        E 120 80 3c 00
        E 120 90 37 60
        E 120 80 37 00
        E 120 90 37 60
        E 120 80 37 00
        E 120 90 37 60
        E 120 80 37 00
        E 120 90 3a 60
        E 120 80 3a 00
        E 120 90 37 60
        E 120 80 37 00
        E 120 90 3c 60
        E 120 80 3c 00
        E 120 90 37 60
        E 120 80 37 00
        E 120 90 3e 60
        E 120 80 3e 00
        E 120 90 37 60
        E 120 80 37 00
        E 120 90 37 60
        E 120 80 37 00
        E 120 90 35 60
        E 120 80 35 00
        E 120 90 35 60
        E 120 80 35 00
        E 120 90 35 60
        E 120 80 35 00
        E 120 90 3a 60
        E 120 80 3a 00
        E 120 90 35 60
        E 120 80 35 00
        E 120 90 3c 60
        E 120 80 3c 00
        E 120 90 37 60
        E 120 80 37 00
        E 120 90 37 60
        E 120 80 37 00
        E 120 90 37 60
        E 120 80 37 00
        E 120 90 3a 60
        E 120 80 3a 00
        E 120 90 37 60
        E 120 80 37 00
        E 120 90 3c 60
        E 120 80 3c 00
        E 120 90 37 60
        E 120 80 37 00
        E 120 90 3e 60
        E 120 80 3e 00
        E 120 90 37 60
        E 120 80 37 00
        E 120 90 37 60
        E 120 80 37 00
        E 120 90 35 60
        E 120 80 35 00
        E 120 90 35 60
        E 120 80 35 00
        E 120 90 35 60
        E 120 80 35 00
        E 120 90 3a 60
        E 120 80 3a 00
        E 120 90 35 60
        E 120 80 35 00
        E 120 90 3c 60
        E 120 80 3c 00
        E 120 90 37 60
        E 120 80 37 00
        E 120 90 37 60
        E 120 80 37 00
        E 120 90 37 60
        E 120 80 37 00
        E 120 90 3a 60
        E 120 80 3a 00
        E 120 90 37 60
        E 120 80 37 00
        E 120 90 3c 60
        E 120 80 3c 00
        E 120 90 37 60
        E 120 80 37 00
        E 120 90 3e 60
        E 120 80 3e 00
        E 120 90 37 60
        E 120 80 37 00
        E 120 90 37 60
        E 120 80 37 00
        E 120 90 35 60
        E 120 80 35 00
        E 120 90 35 60
        E 120 80 35 00
        E 120 90 35 60
        E 120 80 35 00
        E 120 90 3a 60
        E 120 80 3a 00
        E 120 90 35 60
        E 120 80 35 00
        E 120 90 3c 60
        E 120 80 3c 00
        E 120 90 37 60
        E 120 80 37 00
        E 120 90 37 60
        E 120 80 37 00
        E 120 90 37 60
        E 120 80 37 00
        E 120 90 3a 60
        E 120 80 3a 00
        E 120 90 37 60
        E 120 80 37 00
        E 120 90 3c 60
        E 120 80 3c 00
        E 120 90 37 60
        E 120 80 37 00
        E 120 90 3e 60
        E 120 80 3e 00
        E 120 90 37 60
        E 120 80 37 00
        E 120 90 37 60
        E 120 80 37 00
        E 120 90 35 60
        E 120 80 35 00
        E 120 90 35 60
        E 120 80 35 00
        E 120 90 35 60
        E 120 80 35 00
        E 120 90 3a 60
        E 120 80 3a 00
        E 120 90 35 60
        E 120 80 35 00
        E 120 90 3c 60
        E 120 80 3c 00
        E 120 90 37 60
        E 120 80 37 00
        E 120 90 37 60
        E 120 80 37 00
        E 120 90 37 60
        E 120 80 37 00
        E 120 90 3a 60
        E 120 80 3a 00
        E 120 90 37 60
        E 120 80 37 00
        E 120 90 3c 60
        E 120 80 3c 00
        E 120 90 37 60
        E 120 80 37 00
        E 120 90 3e 60
        E 120 80 3e 00
        E 120 90 37 60
        E 120 80 37 00
        E 120 90 37 60
        E 120 80 37 00
        E 120 90 35 60
        E 120 80 35 00
        E 120 90 35 60
        E 120 80 35 00
        E 120 90 35 60
        E 120 80 35 00
        E 120 90 3a 60
        E 120 80 3a 00
        E 120 90 35 60
        E 120 80 35 00
        E 120 90 3c 60
        E 120 80 3c 00
        E 120 90 37 60
        E 120 80 37 00
        E 120 90 37 60
        E 120 80 37 00
        E 120 90 37 60
        E 120 80 37 00
        E 120 90 43 60
        E 600 80 43 00
        E 120 90 3c 60
        E 120 80 3c 00
        E 600 90 41 60
        E 1320 80 41 00
        E 120 90 3c 60
        E 120 80 3c 00
        E 360 90 3f 60
        E 120 80 3f 00
        E 359 90 3e 60
        E 601 80 3e 00
        E 120 90 37 60
        E 840 80 37 00
        E 120 90 3a 60
        E 600 80 3a 00
        E 120 90 36 60
        E 120 80 36 00
        E 360 90 41 60
        E 120 80 41 00
        E 120 90 3f 60
        E 120 80 3f 00
        E 120 90 3c 60
        E 120 80 3c 00
        E 120 90 3f 60
        E 720 80 3f 00
        E 480 90 3e 60
        E 120 80 3e 00
        E 120 90 37 60
        E 120 80 37 00
        E 120 90 37 60
        E 120 80 37 00
        E 120 90 35 60
        E 120 80 35 00
        E 120 90 35 60
        E 120 80 35 00
        E 120 90 35 60
        E 120 80 35 00
        E 120 90 3a 60
        E 120 80 3a 00
        E 120 90 35 60
        E 120 80 35 00
        E 120 90 3c 60
        E 120 80 3c 00
        E 120 90 37 60
        E 120 80 37 00
        E 120 90 37 60
        E 120 80 37 00
        E 120 90 37 60
        E 120 80 37 00
        E 120 90 3a 60
        E 120 80 3a 00
        E 120 90 37 60
        E 120 80 37 00
        E 120 90 3c 60
        E 120 80 3c 00
        E 120 90 37 60
        E 120 80 37 00
        E 120 90 3e 60
        E 120 80 3e 00
        E 120 90 37 60
        E 120 80 37 00
        E 120 90 37 60
        E 120 80 37 00
        E 120 90 35 60
        E 120 80 35 00
        E 120 90 35 60
        E 120 80 35 00
        E 120 90 35 60
        E 120 80 35 00
        E 120 90 3a 60
        E 120 80 3a 00
        E 120 90 35 60
        E 120 80 35 00
        E 120 90 3c 60
        E 120 80 3c 00
        E 120 90 37 60
        E 120 80 37 00
        E 120 90 3c 60
        E 120 80 3c 00
        E 120 90 3c 60
        E 120 80 3c 00
        E 120 90 43 60
        E 600 80 43 00
        E 120 90 3c 60
        E 120 80 3c 00
        E 600 90 41 60
        E 1320 80 41 00
        E 120 90 3c 60
        E 120 80 3c 00
        E 120 90 3e 60
        E 120 80 3e 00
        E 120 90 3f 60
        E 120 80 3f 00
        E 120 90 3c 60
        E 120 80 3c 00
        E 119 90 3e 60
        E 601 80 3e 00
        E 120 90 37 60
        E 840 80 37 00
        E 120 90 3a 60
        E 600 80 3a 00
        E 120 90 36 60
        E 120 80 36 00
        E 360 90 41 60
        E 120 80 41 00
        E 120 90 3f 60
        E 120 80 3f 00
        E 120 90 3c 60
        E 120 80 3c 00
        E 120 90 3f 60
        E 720 80 3f 00
        E 480 90 3e 60
        E 120 80 3e 00
        E 120 90 37 60
        E 120 80 37 00
        E 120 90 37 60
        E 120 80 37 00
        E 120 90 35 60
        E 120 80 35 00
        E 120 90 35 60
        E 120 80 35 00
        E 120 90 35 60
        E 120 80 35 00
        E 120 90 3a 60
        E 120 80 3a 00
        E 120 90 35 60
        E 120 80 35 00
        E 120 90 3c 60
        E 120 80 3c 00
        E 120 90 37 60
        E 120 80 37 00
        E 120 90 37 60
        E 120 80 37 00
        E 120 90 37 60
        E 120 80 37 00
        E 120 90 3a 60
        E 120 80 3a 00
        E 120 90 37 60
        E 120 80 37 00
        E 120 90 3c 60
        E 120 80 3c 00
        E 120 90 37 60
        E 120 80 37 00
        E 120 90 3e 60
        E 120 80 3e 00
        E 120 90 37 60
        E 120 80 37 00
        E 120 90 37 60
        E 120 80 37 00
        E 120 90 35 60
        E 120 80 35 00
        E 120 90 35 60
        E 120 80 35 00
        E 120 90 35 60
        E 120 80 35 00
        E 120 90 3a 60
        E 120 80 3a 00
        E 120 90 35 60
        E 120 80 35 00
        E 120 90 3c 60
        E 120 80 3c 00
        E 120 90 37 60
        E 120 80 37 00
        E 600 90 3f 60
        E 120 80 3f 00
        E 0 90 41 60
        E 3120 80 41 00
        E 360 90 42 60
        E 120 80 42 00
        E 0 90 43 60
        E 240 80 43 00
        E 120 90 41 60
        E 120 80 41 00
        E 360 90 3f 60
        E 360 80 3f 00
        E 120 90 41 60
        E 120 80 41 00
        E 360 90 3c 60
        E 1320 80 3c 00
        E 120 90 3f 60
        E 120 80 3f 00
        E 360 90 3f 60
        E 120 80 3f 00
        E 0 90 41 60
        E 3480 80 41 00
        E 240 90 43 60
        E 120 80 43 00
        E 0 90 46 60
        E 240 80 46 00
        E 120 90 43 60
        E 120 80 43 00
        E 360 90 41 60
        E 360 80 41 00
        E 120 90 3f 60
        E 120 80 3f 00
        E 360 90 3c 60
        E 840 80 3c 00
        E 120 90 3f 60
        E 120 80 3f 00
        E 360 90 43 60
        E 120 80 43 00
        E 119 90 3f 60
        E 120 80 3f 00
        E 121 90 41 60
        E 3600 80 41 00
        E 239 90 3f 60
        E 120 80 3f 00
        E 1 90 41 60
        E 240 80 41 00
        E 120 90 43 60
        E 120 80 43 00
        E 360 90 3f 60
        E 360 80 3f 00
        E 120 90 41 60
        E 120 80 41 00
        E 360 90 3c 60
        E 1080 80 3c 00
        E 120 90 3a 60
        E 120 80 3a 00
        E 120 90 3c 60
        E 120 80 3c 00
        E 120 90 3f 60
        E 120 80 3f 00
        E 120 90 41 60
        E 3720 80 41 00
        E 120 90 46 60
        E 119 90 48 60
        E 1 80 46 00
        E 240 80 48 00
        E 119 90 43 60
        E 120 80 43 00
        E 361 90 41 60
        E 360 80 41 00
        E 120 90 3f 60
        E 120 80 3f 00
        E 360 90 3c 60
        E 360 80 3c 00
        E 120 90 3a 60
        E 120 80 3a 00
        E 120 90 37 60
        E 120 80 37 00
        E 120 90 36 60
        E 120 80 36 00
        E 120 90 35 60
        E 120 80 35 00
        E 120 90 3f 60
        E 120 80 3f 00
        E 120 90 3c 60
        E 120 80 3c 00
        E 120 90 3a 60
        E 120 80 3a 00
        E 120 90 43 60
        E 600 80 43 00
        E 120 90 3c 60
        E 120 80 3c 00
        E 600 90 41 60
        E 1320 80 41 00
        E 120 90 3c 60
        E 120 80 3c 00
        E 360 90 3f 60
        E 120 80 3f 00
        E 359 90 3e 60
        E 601 80 3e 00
        E 120 90 37 60
        E 840 80 37 00
        E 120 90 3a 60
        E 600 80 3a 00
        E 120 90 36 60
        E 120 80 36 00
        E 360 90 41 60
        E 120 80 41 00
        E 120 90 3f 60
        E 120 80 3f 00
        E 120 90 3c 60
        E 120 80 3c 00
        E 120 90 3f 60
        E 120 80 3f 00
        E 120 90 3a 60
        E 120 80 3a 00
        E 120 90 37 60
        E 120 80 37 00
        E 120 90 3c 60
        E 120 80 3c 00
        E 120 90 37 60
        E 120 80 37 00
        E 120 90 3e 60
        E 120 80 3e 00
        E 120 90 37 60
        E 120 80 37 00
        E 120 90 37 60
        E 120 80 37 00
        E 120 90 35 60
        E 120 80 35 00
        E 120 90 35 60
        E 120 80 35 00
        E 120 90 35 60
        E 120 80 35 00
        E 120 90 3a 60
        E 120 80 3a 00
        E 120 90 35 60
        E 120 80 35 00
        E 120 90 3c 60
        E 120 80 3c 00
        E 120 90 37 60
        E 120 80 37 00
        E 120 90 37 60
        E 120 80 37 00
        E 120 90 37 60
        E 120 80 37 00
        E 120 90 3a 60
        E 120 80 3a 00
        E 120 90 37 60
        E 120 80 37 00
        E 120 90 3c 60
        E 120 80 3c 00
        E 120 90 37 60
        E 120 80 37 00
        E 120 90 3e 60
        E 120 80 3e 00
        E 120 90 37 60
        E 120 80 37 00
        E 120 90 37 60
        E 120 80 37 00
        E 120 90 35 60
        E 120 80 35 00
        E 120 90 35 60
        E 120 80 35 00
        E 120 90 35 60
        E 120 80 35 00
        E 120 90 3a 60
        E 120 80 3a 00
        E 120 90 35 60
        E 120 80 35 00
        E 120 90 3c 60
        E 120 80 3c 00
        E 120 90 37 60
        E 120 80 37 00
        E 120 90 3c 60
        E 120 80 3c 00
        E 360 90 43 60
        E 600 80 43 00
        E 120 90 3c 60
        E 120 80 3c 00
        E 600 90 41 60
        E 1320 80 41 00
        E 120 90 3c 60
        E 120 80 3c 00
        E 120 90 3e 60
        E 120 80 3e 00
        E 120 90 3f 60
        E 120 80 3f 00
        E 120 90 3c 60
        E 120 80 3c 00
        E 119 90 3e 60
        E 601 80 3e 00
        E 120 90 37 60
        E 840 80 37 00
        E 120 90 3a 60
        E 600 80 3a 00
        E 120 90 36 60
        E 120 80 36 00
        E 360 90 41 60
        E 120 80 41 00
        E 120 90 3f 60
        E 120 80 3f 00
        E 120 90 3c 60
        E 120 80 3c 00
        E 120 90 3f 60
        E 120 80 3f 00
        E 120 90 3a 60
        E 120 80 3a 00
        E 120 90 37 60
        E 120 80 37 00
        E 120 90 3c 60
        E 120 80 3c 00
        E 120 90 37 60
        E 120 80 37 00
        E 120 90 3e 60
        E 120 80 3e 00
        E 120 90 37 60
        E 120 80 37 00
        E 120 90 37 60
        E 120 80 37 00
        E 120 90 35 60
        E 120 80 35 00
        E 120 90 35 60
        E 120 80 35 00
        E 120 90 35 60
        E 120 80 35 00
        E 120 90 3a 60
        E 120 80 3a 00
        E 120 90 35 60
        E 120 80 35 00
        E 120 90 3c 60
        E 120 80 3c 00
        E 120 90 37 60
        E 120 80 37 00
        E 120 90 37 60
        E 120 80 37 00
        E 120 90 37 60
        E 120 80 37 00
        E 120 90 3a 60
        E 120 80 3a 00
        E 120 90 37 60
        E 120 80 37 00
        E 120 90 3c 60
        E 120 80 3c 00
        E 120 90 37 60
        E 120 80 37 00
        E 120 90 3e 60
        E 120 80 3e 00
        E 120 90 37 60
        E 120 80 37 00
        E 120 90 37 60
        E 120 80 37 00
        E 120 90 35 60
        E 120 80 35 00
        E 120 90 35 60
        E 120 80 35 00
        E 120 90 35 60
        E 120 80 35 00
        E 120 90 3a 60
        E 120 80 3a 00
        E 120 90 35 60
        E 120 80 35 00
        E 120 90 3c 60
        E 120 80 3c 00
        E 120 90 37 60
        E 120 80 37 00
        E 120 90 37 60
        E 120 80 37 00
        E 120 90 37 60
        E 120 80 37 00
        E 120 90 3c 60
        E 120 80 3c 00
        E 120 90 3c 60
        E 120 80 3c 00
        E 360 90 3c 60
        E 120 80 3c 00
        E 120 90 37 60
        E 120 80 37 00
        E 360 90 3a 60
        E 480 80 3a 00
        E 5760 90 3c 60
        E 120 80 3c 00
        E 120 90 3c 60
        E 120 80 3c 00
        E 360 90 3c 60
        E 120 80 3c 00
        E 120 90 37 60
        E 120 80 37 00
        E 360 90 36 60
        E 480 80 36 00
        E 4320 90 37 60
        E 600 80 37 00
        E 120 90 3a 60
        E 600 80 3a 00
        E 120 90 3c 60
        E 120 80 3c 00
        E 120 90 3c 60
        E 120 80 3c 00
        E 360 90 3c 60
        E 120 80 3c 00
        E 120 90 37 60
        E 120 80 37 00
        E 360 90 3a 60
        E 480 80 3a 00
        E 480 90 37 60
        E 840 80 37 00
        E 120 90 3a 60
        E 120 80 3a 00
        E 120 90 36 60
        E 360 80 36 00
        E 120 90 33 60
        E 120 80 33 00
        E 120 90 30 60
        E 120 80 30 00
        E 360 90 33 60
        E 960 80 33 00
        E 1440 90 37 60
        E 120 80 37 00
        E 120 90 3a 60
        E 120 80 3a 00
        E 120 90 3c 60
        E 120 80 3c 00
        E 120 90 3c 60
        E 120 80 3c 00
        E 360 90 3c 60
        E 120 80 3c 00
        E 120 90 37 60
        E 120 80 37 00
        E 360 90 3a 60
        E 480 80 3a 00
        E 240 90 3a 60
        E 120 80 3a 00
        E 360 90 3a 60
        E 120 80 3a 00
        E 120 90 35 60
        E 120 80 35 00
        E 360 90 36 60
        E 480 80 36 00
        E 240 90 36 60
        E 120 80 36 00
        E 360 90 36 60
        E 120 80 36 00
        E 120 90 3a 60
        E 120 80 3a 00
        E 360 90 3a 60
        E 120 80 3a 00
        E 120 90 3f 60
        E 120 80 3f 00
        E 360 90 3f 60
        E 120 80 3f 00
        E 120 90 38 60
        E 120 80 38 00
        E 360 90 38 60
        E 120 80 38 00
        E 120 90 3d 60
        E 120 80 3d 00
        E 359 90 3d 60
        E 120 80 3d 00
        E 121 90 3c 60
        E 120 80 3c 00
        E 5639 b0 7b 00
        GUID {6876B44B-8103-4B13-8C2A-7F99C581101F}
        IGNTEMPO 0 120.00000000 4 4
        SRCCOLOR 188
        VELLANE 131 128 60
        COLORMAP "C:\Program Files\REAPER (x64)\Data\color_maps\rockband_guitarbass.png"
        CFGEDITVIEW 124489.539321 35.008579 0 22 0 0 0
        CFGEDIT 1 1 0 1 1 0 1 1 1 1 1 0.25000000 -8 -8 1544 872 0 2 1 1 0.00000000 0 1 0 0 0.500000 0 0 1.000000 64
        KEYSNAP 0 6 "102030050700" 0 "Pentatonic"
        EVTFILTER 0 -1 -1 -1 -1 0 1 0 0 -1.00000000 -1.00000000
      >
    >
  >
  <TRACK '{B777D3AF-18A5-46B3-956C-AE4B732F0531}'
    NAME "keys"
    PEAKCOL 16576
    BEAT -1
    AUTOMODE 0
    VOLPAN 1.00000000000000 0.00000000000000 -1.00000000000000 -1.00000000000000 1.00000000000000
    MUTESOLO 0 0 0
    IPHASE 0
    ISBUS 2 -1
    BUSCOMP 0 0
    SHOWINMIX 1 0.666700 0.500000 1 0.500000 -1 -1 -1
    FREEMODE 0
    SEL 1
    REC 0 0 0 0 0 0 0
    VU 2
    TRACKHEIGHT 0 0
    INQ 0 0 0 0.5000000000 100 0 0 100
    NCHAN 2
    FX 1
    TRACKID {B777D3AF-18A5-46B3-956C-AE4B732F0531}
    PERF 0
    MIDIOUT -1
    MAINSEND 1 0
    <ITEM
      POSITION 0.00000000000000
      SNAPOFFS 0.00000000000000
      LENGTH 128.91399999999999
      LOOP 0
      ALLTAKES 0
      SEL 0
      FADEIN 1 0.000000 0.000000 1 0
      FADEOUT 1 0.000000 0.000000 1 0
      MUTE 0
      IGUID {2D3A7C97-67BF-41F3-A260-50B6A6A844E6}
      IID 18
      NAME "keys.wav"
      VOLPAN 1.000000 0.000000 1.000000 -1.000000
      SOFFS 0.00000000000000
      PLAYRATE 1.00000000000000 1 0.00000000000000 -1
      CHANMODE 0
      GUID {8E3767EA-0F16-422D-8412-1C8607E30785}
      <SOURCE WAVE
        FILE "C:\Users\Ruggery\Documents\Visual Studio Code\Projects\ruggy-customs-projects\songs\passport\wav\keys.wav"
      >
    >
  >
  <TRACK '{EB043DE3-580C-4A26-B201-AC9ED849354F}'
    NAME "PART REAL_BASS"
    PEAKCOL 16576
    BEAT -1
    AUTOMODE 0
    VOLPAN 1.00000000000000 0.00000000000000 -1.00000000000000 -1.00000000000000 1.00000000000000
    MUTESOLO 0 0 0
    IPHASE 0
    ISBUS 0 0
    BUSCOMP 0 0
    SHOWINMIX 1 0.666700 0.500000 1 0.500000 -1 -1 -1
    FREEMODE 0
    SEL 0
    REC 0 0 0 0 0 0 0
    VU 2
    TRACKHEIGHT 0 0
    INQ 0 0 0 0.5000000000 100 0 0 100
    NCHAN 2
    FX 0
    TRACKID {EB043DE3-580C-4A26-B201-AC9ED849354F}
    PERF 0
    MIDIOUT -1
    <MIDINOTENAMES
      0 127 "Trill Marker"
      0 126 "Tremolo Marker"
      0 125 "BRE"
      0 124 "BRE"
      0 123 "BRE"
      0 122 "BRE"
      0 121 "BRE"
      0 120 "BRE (use all 6)"
      0 119 "-----------"
      0 116 "OVERDRIVE"
      0 115 "Solo Marker"
      0 109 "-----------"
      0 108 "Fret Hand Position"
      0 107 "Force Chord Numbering"
      0 106 "Loose Strumming"
      0 105 "Strum Direction"
      0 104 "Arpeggio Marker"
      0 103 "Slide Marker"
      0 102 "Force HOPO"
      0 101 "EXPERT e String"
      0 100 "EXPERT B String"
      0 99 "EXPERT G String"
      0 98 "EXPERT D String"
      0 97 "EXPERT A String"
      0 96 "EXPERT E String"
      0 95 "-----------"
      0 82 "Loose Strumming"
      0 81 "Strum Direction"
      0 80 "Arpeggio Marker"
      0 79 "Slide Marker"
      0 78 "Force HOPO"
      0 77 "HARD e String"
      0 76 "HARD B String"
      0 75 "HARD G String"
      0 74 "HARD D String"
      0 73 "HARD A String"
      0 72 "HARD E String"
      0 71 "-----------"
      0 58 "Loose Strumming"
      0 56 "Arpeggio Marker"
      0 55 "Slide Marker"
      0 53 "MEDIUM e String"
      0 52 "MEDIUM B String"
      0 51 "MEDIUM G String"
      0 50 "MEDIUM D String"
      0 49 "MEDIUM A String"
      0 48 "MEDIUM E String"
      0 47 "-----------"
      0 32 "Arpeggio Marker"
      0 31 "Slide Marker"
      0 29 "EASY e String"
      0 28 "EASY B String"
      0 27 "EASY G String"
      0 26 "EASY D String"
      0 25 "EASY A String"
      0 24 "EASY E String"
      0 21 "-----------"
      0 18 "Flat/Sharp Swap"
      0 17 "Hide Chord Names"
      0 16 "Slash Chord"
      0 15 "D#"
      0 14 "D"
      0 13 "C#"
      0 12 "C"
      0 11 "B"
      0 10 "A#"
      0 9 "A"
      0 8 "G#"
      0 7 "G"
      0 6 "F#"
      0 5 "F"
      0 4 "E"
    >
    MAINSEND 1 0
    <FXCHAIN
      WNDRECT 0 43 729 467
      SHOW 0
      LASTSEL 2
      DOCKED 0
      BYPASS 0 0
      <JS "c3/progtr" ""
        0.000000 3.000000 0.000000 0.000000 0.000000 0.000000 0.000000 0.000000 0.000000 1.000000 - - - - - - - - - - - - - - - - - - - - - - - - - - - - - - - - - - - - - - - - - - - - - - - - - - - - - - 
      >
      FLOATPOS 0 0 0 0
      FXID {E77357ED-6C15-47DB-A3FC-7A4AB8DD4C87}
      WAK 0
      BYPASS 0 0
      <JS "MIDI/midi_transpose" ""
        -12.000000 1.000000 0.000000 127.000000 - - - - - - - - - - - - - - - - - - - - - - - - - - - - - - - - - - - - - - - - - - - - - - - - - - - - - - - - - - - - 
      >
      FLOATPOS 0 0 0 0
      FXID {0A4BBAC3-4667-4193-9B0C-E900BEEE094B}
      WAK 0
      BYPASS 0 0
      <VST "VSTi: ReaSynth (Cockos)" "reasynth.dll" 0 ""
        eXNlcu9e7f4AAAAAAgAAAAEAAAAAAAAAAgAAAAAAAAA4AAAAAAAAAA==
        AAAQAO++rd4N8K3eppvEO+gJMjwAAAAAAAAAAAAAgD8AAIA/4jAEPA==
        AAAAAAAAAD+01hM+j8L1PQAAAD8AABAAAAA=
      >
      FLOATPOS 0 0 0 0
      FXID {D4074414-6732-4C73-9A7B-21E526320F53}
      WAK 0
    >
    <ITEM
      POSITION 0.00000000000000
      SNAPOFFS 0.00000000000000
      LENGTH 128.91399999999999
      LOOP 0
      ALLTAKES 0
      SEL 0
      FADEIN 1 0.000000 0.000000 1 0
      FADEOUT 1 0.000000 0.000000 1 0
      MUTE 0
      IGUID {CCBDAC2E-ABA8-449E-BCC3-C1CB02EC1221}
      IID 10
      NAME "PART REAL_BASS"
      VOLPAN 1.000000 0.000000 1.000000 -1.000000
      SOFFS 0.00000000000000 0.00000000000000
      PLAYRATE 1.00000000000000 1 0.00000000000000 -1
      CHANMODE 0
      GUID {B3426B81-7AAD-4EB8-9354-5B7BA5E5AFBB}
      <SOURCE MIDI
        HASDATA 1 480 QN
        POOLEDEVTS {3470045C-58C8-48FF-A9C0-9E8E0157E35F}
        <X 0 0
          /wNQQVJUIFJFQUxfQkFTUw==
        >
        <X 5760 0
          /wFbYmVnaW5fcGIgc29uZ190cmFpbmVyX3BiXzFd
        >
        E 0 90 19 67
        E 0 90 31 67
        E 0 90 49 67
        E 0 90 61 67
        E 0 90 6c 65
        E 120 80 19 00
        E 0 80 31 00
        E 0 80 49 00
        E 0 80 6c 00
        E 360 80 61 00
        E 240 90 31 67
        E 0 90 49 67
        E 0 90 61 67
        E 120 80 31 00
        E 0 80 49 00
        E 0 80 61 00
        E 360 90 48 67
        E 0 90 60 67
        E 120 80 48 00
        E 0 80 60 00
        E 120 90 19 65
        E 0 90 31 65
        E 0 90 49 65
        E 0 90 61 65
        E 960 80 19 00
        E 0 80 31 00
        E 0 80 49 00
        E 0 80 61 00
        E 240 90 49 65
        E 0 90 61 65
        E 120 80 49 00
        E 0 80 61 00
        E 120 90 18 65
        E 0 90 30 65
        E 0 90 48 65
        E 0 90 60 65
        E 120 80 18 00
        E 0 80 30 00
        E 0 80 48 00
        E 0 80 60 00
        E 360 90 31 65
        E 0 90 49 65
        E 0 90 61 65
        E 120 80 31 00
        E 0 80 49 00
        E 0 80 61 00
        <X 360 0
          /wFbcGJfbm9ybSBzb25nX3RyYWluZXJfcGJfMV0=
        >
        E 0 90 19 67
        E 0 90 31 67
        E 0 90 49 67
        E 0 90 61 67
        E 120 80 19 00
        E 0 80 31 00
        E 0 80 49 00
        E 360 80 61 00
        E 240 90 31 67
        E 0 90 49 67
        E 0 90 61 67
        E 120 80 31 00
        E 0 80 49 00
        E 0 80 61 00
        E 840 90 18 67
        E 0 90 30 67
        E 0 90 48 67
        E 0 90 60 67
        E 120 80 18 00
        E 0 80 30 00
        E 0 80 48 00
        E 0 80 60 00
        E 360 90 48 67
        E 0 90 60 67
        E 120 80 48 00
        E 0 80 60 00
        E 120 90 31 64
        E 0 90 49 64
        E 0 90 61 64
        E 120 80 31 00
        E 0 80 49 00
        E 0 80 61 00
        E 360 90 19 65
        E 0 90 31 65
        E 0 90 49 65
        E 0 90 61 65
        E 120 80 19 00
        E 0 80 31 00
        E 0 80 49 00
        E 0 80 61 00
        E 600 90 48 67
        E 0 90 60 67
        E 120 80 48 00
        E 0 80 60 00
        E 120 90 19 67
        E 0 90 31 67
        E 0 90 49 67
        E 0 90 61 67
        E 120 80 19 00
        E 0 80 31 00
        E 0 80 49 00
        E 360 80 61 00
        E 240 90 31 67
        E 0 90 49 67
        E 0 90 61 67
        E 120 80 31 00
        E 0 80 49 00
        E 0 80 61 00
        E 360 90 48 67
        E 0 90 60 67
        E 120 80 48 00
        E 0 80 60 00
        E 120 90 19 65
        E 0 90 31 65
        E 0 90 49 65
        E 0 90 61 65
        E 960 80 19 00
        E 0 80 31 00
        E 0 80 49 00
        E 0 80 61 00
        E 240 90 49 65
        E 0 90 61 65
        E 120 80 49 00
        E 0 80 61 00
        E 120 90 18 65
        E 0 90 30 65
        E 0 90 48 65
        E 0 90 60 65
        E 120 80 18 00
        E 0 80 30 00
        E 0 80 48 00
        E 0 80 60 00
        E 360 90 31 65
        E 0 90 49 65
        E 0 90 61 65
        E 120 80 31 00
        E 0 80 49 00
        E 0 80 61 00
        E 360 90 19 67
        E 0 90 31 67
        E 0 90 49 67
        E 0 90 61 67
        E 120 80 19 00
        E 0 80 31 00
        E 0 80 49 00
        E 360 80 61 00
        E 240 90 31 67
        E 0 90 49 67
        E 0 90 61 67
        E 120 80 31 00
        E 0 80 49 00
        E 0 80 61 00
        E 840 90 18 67
        E 0 90 30 67
        E 0 90 48 67
        E 0 90 60 67
        E 0 90 6c 67
        E 120 80 18 00
        E 0 80 30 00
        E 0 80 48 00
        E 0 80 60 00
        E 0 80 6c 00
        E 360 90 62 69
        E 120 80 62 00
        E 120 90 31 64
        E 0 90 49 64
        E 0 90 61 64
        E 120 80 31 00
        E 0 80 49 00
        E 0 80 61 00
        E 120 90 62 69
        E 120 80 62 00
        E 120 90 19 65
        E 0 90 31 65
        E 0 90 49 65
        E 0 90 61 65
        E 0 90 6c 65
        E 120 80 19 00
        E 0 80 31 00
        E 0 80 49 00
        E 0 80 61 00
        E 0 80 6c 00
        E 120 90 62 69
        E 0 90 6c 67
        E 120 80 62 00
        E 0 80 6c 00
        E 360 90 48 67
        E 0 90 60 67
        E 0 90 6c 65
        E 120 80 48 00
        E 0 80 60 00
        E 0 80 6c 00
        <X 120 0
          /wFbZW5kX3BiIHNvbmdfdHJhaW5lcl9wYl8xXQ==
        >
        E 0 90 19 67
        E 0 90 31 67
        E 0 90 49 67
        E 0 90 61 67
        E 0 90 74 60
        E 120 80 19 00
        E 0 80 31 00
        E 0 80 49 00
        E 360 80 61 00
        E 240 90 31 67
        E 0 90 49 67
        E 0 90 61 67
        E 120 80 31 00
        E 0 80 49 00
        E 0 80 61 00
        E 360 90 48 67
        E 0 90 60 67
        E 120 80 48 00
        E 0 80 60 00
        E 120 90 19 65
        E 0 90 31 65
        E 0 90 49 65
        E 0 90 61 65
        E 960 80 19 00
        E 0 80 31 00
        E 0 80 49 00
        E 0 80 61 00
        E 240 90 49 65
        E 0 90 61 65
        E 120 80 49 00
        E 0 80 61 00
        E 120 90 18 65
        E 0 90 30 65
        E 0 90 48 65
        E 0 90 60 65
        E 120 80 18 00
        E 0 80 30 00
        E 0 80 48 00
        E 0 80 60 00
        E 360 90 31 65
        E 0 90 49 65
        E 0 90 61 65
        E 120 80 31 00
        E 0 80 49 00
        E 0 80 61 00
        E 360 80 74 00
        E 0 90 19 67
        E 0 90 31 67
        E 0 90 49 67
        E 0 90 61 67
        E 120 80 19 00
        E 0 80 31 00
        E 0 80 49 00
        E 360 80 61 00
        E 240 90 31 67
        E 0 90 49 67
        E 0 90 61 67
        E 120 80 31 00
        E 0 80 49 00
        E 0 80 61 00
        E 840 90 18 67
        E 0 90 30 67
        E 0 90 48 67
        E 0 90 60 67
        E 0 90 6c 67
        E 120 80 18 00
        E 0 80 30 00
        E 0 80 48 00
        E 0 80 60 00
        E 0 80 6c 00
        E 360 90 4a 69
        E 0 90 62 69
        E 120 80 4a 00
        E 0 80 62 00
        E 120 90 31 64
        E 0 90 49 64
        E 0 90 61 64
        E 0 90 6c 65
        E 120 80 31 00
        E 0 80 49 00
        E 0 80 61 00
        E 0 80 6c 00
        E 360 90 19 65
        E 0 90 31 65
        E 0 90 49 65
        E 0 90 61 65
        E 120 80 19 00
        E 0 80 31 00
        E 0 80 49 00
        E 0 80 61 00
        E 600 90 48 67
        E 0 90 60 67
        E 120 80 48 00
        E 0 80 60 00
        E 120 90 19 67
        E 0 90 31 67
        E 0 90 49 67
        E 0 90 61 67
        E 120 80 19 00
        E 0 80 31 00
        E 0 80 49 00
        E 360 80 61 00
        E 240 90 31 67
        E 0 90 49 67
        E 0 90 61 67
        E 120 80 31 00
        E 0 80 49 00
        E 0 80 61 00
        E 360 90 48 67
        E 0 90 60 67
        E 120 80 48 00
        E 0 80 60 00
        E 120 90 19 65
        E 0 90 31 65
        E 0 90 49 65
        E 0 90 61 65
        E 960 80 19 00
        E 0 80 31 00
        E 0 80 49 00
        E 0 80 61 00
        E 240 90 49 65
        E 0 90 61 65
        E 120 80 49 00
        E 0 80 61 00
        E 120 90 18 65
        E 0 90 30 65
        E 0 90 48 65
        E 0 90 60 65
        E 120 80 18 00
        E 0 80 30 00
        E 0 80 48 00
        E 0 80 60 00
        E 360 90 31 65
        E 0 90 49 65
        E 0 90 61 65
        E 120 80 31 00
        E 0 80 49 00
        E 0 80 61 00
        E 360 90 19 67
        E 0 90 31 67
        E 0 90 49 67
        E 0 90 61 67
        E 120 80 19 00
        E 0 80 31 00
        E 0 80 49 00
        E 360 80 61 00
        E 240 90 31 67
        E 0 90 49 67
        E 0 90 61 67
        E 120 80 31 00
        E 0 80 49 00
        E 0 80 61 00
        E 840 90 18 67
        E 0 90 30 67
        E 0 90 48 67
        E 0 90 60 67
        E 0 90 6c 67
        E 120 80 18 00
        E 0 80 30 00
        E 0 80 48 00
        E 0 80 60 00
        E 0 80 6c 00
        E 360 90 62 69
        E 120 80 62 00
        E 120 90 31 64
        E 0 90 49 64
        E 0 90 61 64
        E 120 80 31 00
        E 0 80 49 00
        E 0 80 61 00
        E 120 90 62 69
        E 120 80 62 00
        E 120 90 19 65
        E 0 90 31 65
        E 0 90 49 65
        E 0 90 61 65
        E 0 90 6c 65
        E 120 80 19 00
        E 0 80 31 00
        E 0 80 49 00
        E 0 80 61 00
        E 0 80 6c 00
        E 120 90 62 69
        E 0 90 6c 67
        E 120 80 62 00
        E 0 80 6c 00
        E 360 90 48 67
        E 0 90 60 67
        E 0 90 6c 65
        E 120 80 48 00
        E 0 80 60 00
        E 0 80 6c 00
        E 120 90 19 67
        E 0 90 31 67
        E 0 90 49 67
        E 0 90 61 67
        E 0 90 74 60
        E 120 80 19 00
        E 0 80 31 00
        E 0 80 49 00
        E 360 80 61 00
        E 240 90 31 67
        E 0 90 49 67
        E 0 90 61 67
        E 120 80 31 00
        E 0 80 49 00
        E 0 80 61 00
        E 360 90 48 67
        E 0 90 60 67
        E 120 80 48 00
        E 0 80 60 00
        E 120 90 19 65
        E 0 90 31 65
        E 0 90 49 65
        E 0 90 61 65
        E 960 80 19 00
        E 0 80 31 00
        E 0 80 49 00
        E 0 80 61 00
        E 240 90 49 65
        E 0 90 61 65
        E 120 80 49 00
        E 0 80 61 00
        E 120 90 18 65
        E 0 90 30 65
        E 0 90 48 65
        E 0 90 60 65
        E 120 80 18 00
        E 0 80 30 00
        E 0 80 48 00
        E 0 80 60 00
        E 360 90 31 65
        E 0 90 49 65
        E 0 90 61 65
        E 120 80 31 00
        E 0 80 49 00
        E 0 80 61 00
        E 360 80 74 00
        E 0 90 19 67
        E 0 90 31 67
        E 0 90 49 67
        E 0 90 61 67
        E 120 80 19 00
        E 0 80 31 00
        E 0 80 49 00
        E 360 80 61 00
        E 240 90 31 67
        E 0 90 49 67
        E 0 90 61 67
        E 600 80 31 00
        E 120 80 49 00
        E 120 80 61 00
        E 120 90 18 67
        E 0 90 30 67
        E 0 90 48 67
        E 0 90 60 67
        E 0 90 6c 67
        E 120 80 18 00
        E 0 80 30 00
        E 0 80 48 00
        E 0 80 60 00
        E 0 80 6c 00
        E 360 90 62 69
        E 120 80 62 00
        E 120 90 31 64
        E 0 90 49 64
        E 0 90 61 64
        E 120 80 31 00
        E 0 80 49 00
        E 0 80 61 00
        E 120 90 62 69
        E 120 80 62 00
        E 120 90 19 65
        E 0 90 31 65
        E 0 90 49 65
        E 0 90 61 65
        E 0 90 6c 65
        E 120 80 19 00
        E 0 80 31 00
        E 0 80 49 00
        E 0 80 61 00
        E 0 80 6c 00
        E 120 90 62 69
        E 0 90 6c 67
        E 120 80 62 00
        E 0 80 6c 00
        E 120 90 31 66
        E 0 90 49 66
        E 0 90 61 66
        E 0 90 6c 66
        E 120 80 31 00
        E 0 80 49 00
        E 0 80 61 00
        E 0 80 6c 00
        E 120 90 62 69
        E 120 80 62 00
        E 120 90 19 67
        E 0 90 31 67
        E 0 90 49 67
        E 0 90 61 67
        E 0 90 6c 65
        E 120 80 19 00
        E 0 80 31 00
        E 0 80 49 00
        E 0 80 6c 00
        E 360 80 61 00
        E 240 90 31 67
        E 0 90 49 67
        E 0 90 61 67
        E 120 80 31 00
        E 0 80 49 00
        E 0 80 61 00
        E 360 90 48 67
        E 0 90 60 67
        E 120 80 48 00
        E 0 80 60 00
        E 120 90 18 65
        E 0 90 30 65
        E 0 90 48 65
        E 0 90 60 65
        E 960 80 18 00
        E 0 80 30 00
        E 0 80 48 00
        E 0 80 60 00
        E 240 90 48 65
        E 0 90 60 65
        E 120 80 48 00
        E 0 80 60 00
        E 120 90 19 65
        E 0 90 31 65
        E 0 90 49 65
        E 0 90 61 65
        E 120 80 19 00
        E 0 80 31 00
        E 0 80 49 00
        E 0 80 61 00
        E 360 90 31 66
        E 0 90 49 66
        E 0 90 61 66
        E 120 80 31 00
        E 0 80 49 00
        E 0 80 61 00
        E 360 90 19 67
        E 0 90 31 67
        E 0 90 49 67
        E 0 90 61 67
        E 120 80 19 00
        E 0 80 31 00
        E 0 80 49 00
        E 360 80 61 00
        E 240 90 31 67
        E 0 90 49 67
        E 0 90 61 67
        E 600 80 31 00
        E 0 80 49 00
        E 0 80 61 00
        E 360 90 18 67
        E 0 90 30 67
        E 0 90 48 67
        E 0 90 60 67
        E 0 90 6c 67
        E 120 80 18 00
        E 0 80 30 00
        E 0 80 48 00
        E 0 80 60 00
        E 0 80 6c 00
        E 360 90 62 69
        E 120 80 62 00
        E 120 90 31 64
        E 0 90 49 64
        E 0 90 61 64
        E 120 80 31 00
        E 0 80 49 00
        E 0 80 61 00
        E 120 90 62 69
        E 120 80 62 00
        E 120 90 19 65
        E 0 90 31 65
        E 0 90 49 65
        E 0 90 61 65
        E 0 90 6c 65
        E 120 80 19 00
        E 0 80 31 00
        E 0 80 49 00
        E 0 80 61 00
        E 0 80 6c 00
        E 120 90 62 69
        E 0 90 6c 67
        E 120 80 62 00
        E 0 80 6c 00
        E 360 90 48 67
        E 0 90 60 67
        E 0 90 6c 65
        E 120 80 48 00
        E 0 80 60 00
        E 0 80 6c 00
        E 120 90 19 67
        E 0 90 31 67
        E 0 90 49 67
        E 0 90 61 67
        E 120 80 19 00
        E 0 80 31 00
        E 0 80 49 00
        E 360 80 61 00
        E 240 90 31 67
        E 0 90 49 67
        E 0 90 61 67
        E 120 80 31 00
        E 0 80 49 00
        E 0 80 61 00
        E 360 90 48 67
        E 0 90 60 67
        E 120 80 48 00
        E 0 80 60 00
        E 120 90 19 65
        E 0 90 31 65
        E 0 90 49 65
        E 0 90 61 65
        E 960 80 19 00
        E 0 80 31 00
        E 0 80 49 00
        E 0 80 61 00
        E 240 90 49 65
        E 0 90 61 65
        E 120 80 49 00
        E 0 80 61 00
        E 120 90 18 65
        E 0 90 30 65
        E 0 90 48 65
        E 0 90 60 65
        E 120 80 18 00
        E 0 80 30 00
        E 0 80 48 00
        E 0 80 60 00
        E 360 90 31 65
        E 0 90 49 65
        E 0 90 61 65
        E 120 80 31 00
        E 0 80 49 00
        E 0 80 61 00
        E 360 90 19 67
        E 0 90 31 67
        E 0 90 49 67
        E 0 90 61 67
        E 120 80 19 00
        E 0 80 31 00
        E 0 80 49 00
        E 360 80 61 00
        E 240 90 31 67
        E 0 90 49 67
        E 0 90 61 67
        E 600 80 31 00
        E 120 80 49 00
        E 120 80 61 00
        E 120 90 18 67
        E 0 90 30 67
        E 0 90 48 67
        E 0 90 60 67
        E 0 90 6c 67
        E 120 80 18 00
        E 0 80 30 00
        E 0 80 48 00
        E 0 80 60 00
        E 0 80 6c 00
        E 360 90 62 69
        E 120 80 62 00
        E 120 90 31 64
        E 0 90 49 64
        E 0 90 61 64
        E 120 80 31 00
        E 0 80 49 00
        E 0 80 61 00
        E 120 90 62 69
        E 120 80 62 00
        E 120 90 19 65
        E 0 90 31 65
        E 0 90 49 65
        E 0 90 61 65
        E 0 90 6c 65
        E 120 80 19 00
        E 0 80 31 00
        E 0 80 49 00
        E 0 80 61 00
        E 0 80 6c 00
        E 120 90 62 69
        E 0 90 6c 67
        E 120 80 62 00
        E 0 80 6c 00
        E 120 90 31 66
        E 0 90 49 66
        E 0 90 61 66
        E 0 90 6c 66
        E 120 80 31 00
        E 0 80 49 00
        E 0 80 61 00
        E 0 80 6c 00
        E 120 90 62 69
        E 120 80 62 00
        E 120 90 19 67
        E 0 90 31 67
        E 0 90 49 67
        E 0 90 61 67
        E 0 90 6c 65
        E 120 80 19 00
        E 0 80 31 00
        E 0 80 49 00
        E 0 80 6c 00
        E 360 80 61 00
        E 240 90 31 67
        E 0 90 49 67
        E 0 90 61 67
        E 120 80 31 00
        E 0 80 49 00
        E 0 80 61 00
        E 360 90 48 67
        E 0 90 60 67
        E 120 80 48 00
        E 0 80 60 00
        E 120 90 18 65
        E 0 90 30 65
        E 0 90 48 65
        E 0 90 60 65
        E 840 80 18 00
        E 0 80 30 00
        E 0 80 48 00
        E 120 80 60 00
        E 240 90 48 65
        E 0 90 60 65
        E 120 80 48 00
        E 0 80 60 00
        E 120 90 19 65
        E 0 90 31 65
        E 0 90 49 65
        E 0 90 61 65
        E 120 80 19 00
        E 0 80 31 00
        E 0 80 49 00
        E 0 80 61 00
        E 360 90 31 66
        E 0 90 49 66
        E 0 90 61 66
        E 120 80 31 00
        E 0 80 49 00
        E 0 80 61 00
        E 360 90 19 67
        E 0 90 31 67
        E 0 90 49 67
        E 0 90 61 67
        E 120 80 19 00
        E 0 80 31 00
        E 0 80 49 00
        E 360 80 61 00
        E 240 90 31 67
        E 0 90 49 67
        E 0 90 61 67
        E 599 80 61 00
        E 1 80 31 00
        E 0 80 49 00
        E 360 90 18 67
        E 0 90 30 67
        E 0 90 48 67
        E 0 90 60 67
        E 0 90 6c 67
        E 120 80 18 00
        E 0 80 30 00
        E 0 80 48 00
        E 0 80 60 00
        E 0 80 6c 00
        E 120 90 74 60
        E 240 90 62 69
        E 120 80 62 00
        E 120 90 31 64
        E 0 90 49 64
        E 0 90 61 64
        E 120 80 31 00
        E 0 80 49 00
        E 0 80 61 00
        E 120 90 62 69
        E 120 80 62 00
        E 120 90 19 65
        E 0 90 31 65
        E 0 90 49 65
        E 0 90 61 65
        E 0 90 6c 65
        E 120 80 19 00
        E 0 80 31 00
        E 0 80 49 00
        E 0 80 61 00
        E 0 80 6c 00
        E 120 90 62 69
        E 0 90 6c 67
        E 120 80 62 00
        E 0 80 6c 00
        E 360 90 48 67
        E 0 90 60 67
        E 0 90 6c 65
        E 120 80 48 00
        E 0 80 60 00
        E 0 80 6c 00
        E 120 80 74 00
        E 0 90 19 67
        E 0 90 31 67
        E 0 90 49 67
        E 0 90 61 67
        E 120 80 19 00
        E 0 80 31 00
        E 0 80 49 00
        E 360 80 61 00
        E 240 90 31 67
        E 0 90 49 67
        E 0 90 61 67
        E 120 80 31 00
        E 0 80 49 00
        E 0 80 61 00
        E 360 90 48 67
        E 0 90 60 67
        E 120 80 48 00
        E 0 80 60 00
        E 120 90 19 65
        E 0 90 31 65
        E 0 90 49 65
        E 0 90 61 65
        E 960 80 19 00
        E 0 80 31 00
        E 0 80 49 00
        E 0 80 61 00
        E 240 90 49 65
        E 0 90 61 65
        E 120 80 49 00
        E 0 80 61 00
        E 120 90 18 65
        E 0 90 30 65
        E 0 90 48 65
        E 0 90 60 65
        E 120 80 18 00
        E 0 80 30 00
        E 0 80 48 00
        E 0 80 60 00
        E 360 90 31 65
        E 0 90 49 65
        E 0 90 61 65
        E 120 80 31 00
        E 0 80 49 00
        E 0 80 61 00
        E 360 90 19 67
        E 0 90 31 67
        E 0 90 49 67
        E 0 90 61 67
        E 120 80 19 00
        E 0 80 31 00
        E 0 80 49 00
        E 360 80 61 00
        E 240 90 31 67
        E 0 90 49 67
        E 0 90 61 67
        E 120 80 31 00
        E 0 80 49 00
        E 480 80 61 00
        E 120 90 19 67
        E 0 90 31 67
        E 0 90 49 67
        E 0 90 61 67
        E 120 80 19 00
        E 0 80 31 00
        E 0 80 49 00
        E 0 80 61 00
        E 120 90 48 67
        E 0 90 60 67
        E 0 90 6c 67
        E 120 80 48 00
        E 0 80 60 00
        E 0 80 6c 00
        E 360 90 62 69
        E 120 80 62 00
        E 120 90 31 64
        E 0 90 49 64
        E 0 90 61 64
        E 120 80 31 00
        E 0 80 49 00
        E 0 80 61 00
        E 120 90 62 69
        E 120 80 62 00
        E 120 90 19 65
        E 0 90 31 65
        E 0 90 49 65
        E 0 90 61 65
        E 0 90 6c 65
        E 120 80 19 00
        E 0 80 31 00
        E 0 80 49 00
        E 0 80 61 00
        E 0 80 6c 00
        E 120 90 62 69
        E 0 90 6c 67
        E 120 80 62 00
        E 0 80 6c 00
        E 120 90 30 67
        E 0 90 48 67
        E 0 90 60 67
        E 0 90 6c 65
        E 120 80 30 00
        E 0 80 48 00
        E 0 80 60 00
        E 0 80 6c 00
        E 360 90 19 67
        E 0 90 31 67
        E 0 90 49 67
        E 0 90 61 67
        E 120 80 19 00
        E 0 80 31 00
        E 0 80 49 00
        E 360 80 61 00
        E 240 90 31 65
        E 0 90 49 65
        E 0 90 61 65
        E 120 80 31 00
        E 0 80 49 00
        E 0 80 61 00
        E 360 90 48 67
        E 0 90 60 67
        E 120 80 48 00
        E 0 80 60 00
        E 120 90 18 65
        E 0 90 30 65
        E 0 90 48 65
        E 0 90 60 65
        E 600 80 18 00
        E 0 80 30 00
        E 120 80 48 00
        E 120 80 60 00
        E 120 90 31 67
        E 0 90 49 67
        E 0 90 61 67
        E 120 80 31 00
        E 0 80 49 00
        E 0 80 61 00
        E 120 90 48 65
        E 0 90 60 65
        E 120 80 48 00
        E 0 80 60 00
        E 120 90 19 65
        E 0 90 31 65
        E 0 90 49 65
        E 0 90 61 65
        E 120 80 19 00
        E 0 80 31 00
        E 0 80 49 00
        E 0 80 61 00
        E 360 90 31 66
        E 0 90 49 66
        E 0 90 61 66
        E 120 80 31 00
        E 0 80 49 00
        E 0 80 61 00
        E 360 90 19 67
        E 0 90 31 67
        E 0 90 49 67
        E 0 90 61 67
        E 120 80 19 00
        E 0 80 31 00
        E 0 80 49 00
        E 360 80 61 00
        E 240 90 31 67
        E 0 90 49 67
        E 0 90 61 67
        E 120 80 31 00
        E 0 80 49 00
        E 480 80 61 00
        E 120 90 61 67
        E 120 80 61 00
        E 120 90 18 67
        E 0 90 30 67
        E 0 90 48 67
        E 0 90 60 67
        E 0 90 6c 67
        E 120 80 18 00
        E 0 80 30 00
        E 0 80 48 00
        E 0 80 60 00
        E 0 80 6c 00
        E 360 90 62 69
        E 120 80 62 00
        E 120 90 31 64
        E 0 90 49 64
        E 0 90 61 64
        E 120 80 31 00
        E 0 80 49 00
        E 0 80 61 00
        E 360 90 19 65
        E 0 90 31 65
        E 0 90 49 65
        E 0 90 61 65
        E 0 90 6c 65
        E 120 80 19 00
        E 0 80 31 00
        E 0 80 49 00
        E 0 80 61 00
        E 0 80 6c 00
        <X 840 0
          /wFbYmVnaW5fcGIgc29uZ190cmFpbmVyX3BiXzJd
        >
        E 0 90 18 65
        E 0 90 30 65
        E 0 90 48 65
        E 0 90 60 65
        E 1200 80 18 00
        E 0 80 30 00
        E 0 80 48 00
        E 0 80 60 00
        E 480 90 18 68
        E 0 90 30 68
        E 0 90 48 68
        E 0 90 60 68
        E 120 80 18 00
        E 480 80 30 00
        E 120 80 48 00
        E 0 80 60 00
        E 240 90 19 65
        E 0 90 31 65
        E 0 90 49 65
        E 0 90 61 65
        E 120 80 19 00
        E 480 80 31 00
        E 120 80 49 00
        E 120 80 61 00
        E 120 90 18 65
        E 0 90 30 65
        E 0 90 48 65
        E 0 90 60 65
        <X 240 0
          /wFbcGJfbm9ybSBzb25nX3RyYWluZXJfcGJfMl0=
        >
        E 1680 80 18 00
        E 0 80 30 00
        E 0 80 48 00
        E 0 80 60 00
        E 480 90 49 67
        E 0 90 61 67
        E 120 80 49 00
        E 0 80 61 00
        E 120 90 1a 65
        E 0 90 32 65
        E 0 90 4a 65
        E 0 90 62 65
        E 120 80 1a 00
        E 0 80 32 00
        E 0 80 4a 00
        E 0 80 62 00
        E 359 90 62 65
        E 1 90 4a 65
        E 119 80 62 00
        E 1 80 4a 00
        E 120 90 4a 67
        E 0 90 62 67
        E 120 80 4a 00
        E 0 80 62 00
        E 360 90 49 67
        E 0 90 61 67
        E 120 80 49 00
        E 0 80 61 00
        E 120 90 18 65
        E 0 90 30 65
        E 0 90 48 65
        E 0 90 60 65
        E 1200 80 18 00
        E 120 80 30 00
        E 120 80 48 00
        E 0 80 60 00
        E 240 90 18 68
        E 0 90 30 68
        E 0 90 48 68
        E 0 90 60 68
        E 120 80 18 00
        E 480 80 30 00
        E 120 80 48 00
        E 0 80 60 00
        E 240 90 19 65
        E 0 90 31 65
        E 0 90 49 65
        E 0 90 61 65
        E 120 80 19 00
        E 0 80 31 00
        E 0 80 49 00
        E 359 80 61 00
        E 241 90 49 67
        E 0 90 61 67
        E 120 80 49 00
        E 0 80 61 00
        E 120 90 18 65
        E 0 90 30 65
        E 0 90 48 65
        E 0 90 60 65
        E 1800 80 18 00
        E 0 80 30 00
        E 120 80 48 00
        E 120 80 60 00
        E 120 90 74 60
        E 240 90 18 67
        E 0 90 30 67
        E 0 90 48 67
        E 0 90 60 67
        E 120 80 18 00
        E 0 80 30 00
        E 0 80 48 00
        E 0 80 60 00
        E 120 90 60 68
        E 120 80 60 00
        E 120 90 31 65
        E 0 90 49 65
        E 0 90 61 65
        E 120 80 31 00
        E 0 80 49 00
        E 0 80 61 00
        E 120 90 61 67
        E 120 80 61 00
        E 120 90 32 64
        E 0 90 4a 64
        E 0 90 62 64
        E 120 80 32 00
        E 0 80 4a 00
        E 0 80 62 00
        E 119 90 62 65
        E 120 80 62 00
        E 121 90 4a 67
        E 0 90 62 67
        E 120 80 4a 00
        E 0 80 62 00
        <X 120 0
          /wFbZW5kX3BiIHNvbmdfdHJhaW5lcl9wYl8yXQ==
        >
        <X 0 0
          /wFbYmVnaW5fcGIgc29uZ190cmFpbmVyX3BiXzNd
        >
        E 0 90 18 65
        E 0 90 30 65
        E 0 90 48 65
        E 0 90 60 65
        E 120 80 74 00
        E 1080 80 18 00
        E 120 80 30 00
        E 120 80 48 00
        E 119 80 60 00
        E 121 90 18 68
        E 0 90 30 68
        E 0 90 48 68
        E 0 90 60 68
        E 120 80 18 00
        E 480 80 30 00
        E 120 80 48 00
        E 120 80 60 00
        E 120 90 19 65
        E 0 90 31 65
        E 0 90 49 65
        E 0 90 61 65
        E 120 80 19 00
        E 480 80 31 00
        E 120 80 49 00
        E 120 80 61 00
        E 119 90 60 65
        E 1 90 18 65
        E 0 90 30 65
        E 0 90 48 65
        <X 240 0
          /wFbcGJfbm9ybSBzb25nX3RyYWluZXJfcGJfM10=
        >
        E 1680 80 60 00
        E 0 80 18 00
        E 0 80 30 00
        E 0 80 48 00
        E 480 90 19 67
        E 0 90 31 67
        E 0 90 49 67
        E 0 90 61 67
        E 120 80 19 00
        E 0 80 31 00
        E 0 80 49 00
        E 0 80 61 00
        E 120 90 62 65
        E 120 80 62 00
        E 120 90 33 64
        E 0 90 4b 64
        E 0 90 63 64
        E 120 80 33 00
        E 0 80 4b 00
        E 0 80 63 00
        E 120 90 62 67
        E 120 80 62 00
        E 120 90 32 65
        E 0 90 4a 65
        E 0 90 62 65
        E 120 80 32 00
        E 0 80 4a 00
        E 0 80 62 00
        E 120 90 61 67
        E 120 80 61 00
        E 120 90 18 65
        E 0 90 60 65
        E 1 90 30 65
        E 0 90 48 65
        E 1559 80 18 00
        E 0 80 30 00
        E 120 80 60 00
        E 0 80 48 00
        E 239 90 60 68
        E 1 90 18 68
        E 0 90 30 68
        E 0 90 48 68
        E 120 80 18 00
        E 480 80 30 00
        E 120 80 60 00
        E 0 80 48 00
        E 240 90 19 65
        E 0 90 31 65
        E 0 90 49 65
        E 0 90 61 65
        E 120 80 19 00
        E 480 80 31 00
        E 120 80 49 00
        E 120 80 61 00
        E 120 90 18 65
        E 0 90 30 65
        E 0 90 48 65
        E 0 90 60 65
        E 2159 80 60 00
        E 1 80 18 00
        E 0 80 30 00
        E 0 80 48 00
        E 240 90 62 67
        E 120 80 62 00
        E 120 90 30 65
        E 0 90 48 65
        E 0 90 60 65
        E 120 80 30 00
        E 0 80 48 00
        E 0 80 60 00
        E 120 90 60 66
        E 120 80 60 00
        E 120 90 18 67
        E 0 90 30 67
        E 0 90 48 67
        E 0 90 60 67
        E 120 80 18 00
        E 0 80 30 00
        E 0 80 48 00
        E 0 80 60 00
        E 120 90 62 69
        E 0 90 6c 67
        E 120 80 62 00
        E 0 80 6c 00
        E 120 90 30 67
        E 0 90 48 67
        E 0 90 60 67
        E 120 80 30 00
        E 0 80 48 00
        E 0 80 60 00
        <X 360 0
          /wFbZW5kX3BiIHNvbmdfdHJhaW5lcl9wYl8zXQ==
        >
        E 0 90 19 67
        E 0 90 31 67
        E 0 90 49 67
        E 0 90 61 67
        E 0 90 6c 65
        E 0 90 74 60
        E 120 80 19 00
        E 0 80 31 00
        E 0 80 49 00
        E 0 80 6c 00
        E 360 80 61 00
        E 240 90 31 67
        E 0 90 49 67
        E 0 90 61 67
        E 120 80 31 00
        E 0 80 49 00
        E 0 80 61 00
        E 360 90 48 67
        E 0 90 60 67
        E 120 80 48 00
        E 0 80 60 00
        E 120 90 19 65
        E 0 90 31 65
        E 0 90 49 65
        E 0 90 61 65
        E 960 80 19 00
        E 0 80 31 00
        E 0 80 49 00
        E 0 80 61 00
        E 240 90 49 65
        E 0 90 61 65
        E 120 80 49 00
        E 0 80 61 00
        E 120 90 18 65
        E 0 90 30 65
        E 0 90 48 65
        E 0 90 60 65
        E 120 80 18 00
        E 0 80 30 00
        E 0 80 48 00
        E 0 80 60 00
        E 360 90 31 65
        E 0 90 49 65
        E 0 90 61 65
        E 120 80 31 00
        E 0 80 49 00
        E 0 80 61 00
        E 360 80 74 00
        E 0 90 19 67
        E 0 90 31 67
        E 0 90 49 67
        E 0 90 61 67
        E 120 80 19 00
        E 0 80 31 00
        E 0 80 49 00
        E 360 80 61 00
        E 240 90 31 67
        E 0 90 49 67
        E 0 90 61 67
        E 600 80 31 00
        E 120 80 49 00
        E 0 80 61 00
        E 240 90 18 67
        E 0 90 30 67
        E 0 90 48 67
        E 0 90 60 67
        E 0 90 6c 67
        E 120 80 18 00
        E 0 80 30 00
        E 0 80 48 00
        E 0 80 60 00
        E 0 80 6c 00
        E 360 90 62 69
        E 120 80 62 00
        E 120 90 31 64
        E 0 90 49 64
        E 0 90 61 64
        E 120 80 31 00
        E 0 80 49 00
        E 0 80 61 00
        E 120 90 62 69
        E 120 80 62 00
        E 120 90 19 65
        E 0 90 31 65
        E 0 90 49 65
        E 0 90 61 65
        E 0 90 6c 65
        E 120 80 19 00
        E 0 80 31 00
        E 0 80 49 00
        E 0 80 61 00
        E 0 80 6c 00
        E 120 90 62 69
        E 0 90 6c 67
        E 120 80 62 00
        E 0 80 6c 00
        E 120 90 31 66
        E 0 90 49 66
        E 0 90 61 66
        E 0 90 6c 66
        E 120 80 31 00
        E 0 80 49 00
        E 0 80 61 00
        E 0 80 6c 00
        E 120 90 62 69
        E 120 80 62 00
        E 120 90 19 67
        E 0 90 31 67
        E 0 90 49 67
        E 0 90 61 67
        E 0 90 6c 65
        E 120 80 19 00
        E 0 80 31 00
        E 0 80 49 00
        E 0 80 6c 00
        E 360 80 61 00
        E 240 90 31 67
        E 0 90 49 67
        E 0 90 61 67
        E 120 80 31 00
        E 0 80 49 00
        E 0 80 61 00
        E 360 90 48 67
        E 0 90 60 67
        E 120 80 48 00
        E 0 80 60 00
        E 120 90 18 65
        E 0 90 30 65
        E 0 90 48 65
        E 0 90 60 65
        E 960 80 18 00
        E 0 80 30 00
        E 0 80 48 00
        E 0 80 60 00
        E 240 90 48 65
        E 0 90 60 65
        E 120 80 48 00
        E 0 80 60 00
        E 120 90 19 65
        E 0 90 31 65
        E 0 90 49 65
        E 0 90 61 65
        E 120 80 19 00
        E 0 80 31 00
        E 0 80 49 00
        E 0 80 61 00
        E 360 90 31 66
        E 0 90 49 66
        E 0 90 61 66
        E 120 80 31 00
        E 0 80 49 00
        E 0 80 61 00
        E 360 90 19 67
        E 0 90 31 67
        E 0 90 49 67
        E 0 90 61 67
        E 120 80 19 00
        E 0 80 31 00
        E 0 80 49 00
        E 360 80 61 00
        E 240 90 31 67
        E 0 90 49 67
        E 0 90 61 67
        E 600 80 31 00
        E 0 80 49 00
        E 0 80 61 00
        E 360 90 18 67
        E 0 90 30 67
        E 0 90 48 67
        E 0 90 60 67
        E 0 90 6c 67
        E 120 80 18 00
        E 0 80 30 00
        E 0 80 48 00
        E 0 80 60 00
        E 0 80 6c 00
        E 360 90 62 69
        E 120 80 62 00
        E 120 90 31 64
        E 0 90 49 64
        E 0 90 61 64
        E 120 80 31 00
        E 0 80 49 00
        E 0 80 61 00
        E 120 90 62 69
        E 120 80 62 00
        E 120 90 19 65
        E 0 90 31 65
        E 0 90 49 65
        E 0 90 61 65
        E 0 90 6c 65
        E 120 80 19 00
        E 0 80 31 00
        E 0 80 49 00
        E 0 80 61 00
        E 0 80 6c 00
        E 120 90 62 69
        E 0 90 6c 67
        E 120 80 62 00
        E 0 80 6c 00
        E 360 90 48 67
        E 0 90 60 67
        E 0 90 6c 65
        E 120 80 48 00
        E 0 80 60 00
        E 0 80 6c 00
        E 120 90 19 67
        E 0 90 31 67
        E 0 90 49 67
        E 0 90 61 67
        E 120 80 19 00
        E 0 80 31 00
        E 0 80 49 00
        E 359 80 61 00
        E 241 90 31 67
        E 0 90 49 67
        E 0 90 61 67
        E 120 80 31 00
        E 0 80 49 00
        E 0 80 61 00
        E 360 90 48 67
        E 0 90 60 67
        E 120 80 48 00
        E 0 80 60 00
        E 120 90 19 65
        E 0 90 31 65
        E 0 90 49 65
        E 0 90 61 65
        E 960 80 19 00
        E 0 80 31 00
        E 0 80 49 00
        E 0 80 61 00
        E 240 90 49 65
        E 0 90 61 65
        E 120 80 49 00
        E 0 80 61 00
        E 120 90 18 65
        E 0 90 30 65
        E 0 90 48 65
        E 0 90 60 65
        E 120 80 18 00
        E 0 80 30 00
        E 0 80 48 00
        E 0 80 60 00
        E 360 90 31 65
        E 0 90 49 65
        E 0 90 61 65
        E 120 80 31 00
        E 0 80 49 00
        E 0 80 61 00
        E 360 90 19 67
        E 0 90 31 67
        E 0 90 49 67
        E 0 90 61 67
        E 120 80 19 00
        E 0 80 31 00
        E 0 80 49 00
        E 360 80 61 00
        E 239 90 61 67
        E 1 90 31 67
        E 0 90 49 67
        E 120 80 31 00
        E 0 80 49 00
        E 480 80 61 00
        E 120 90 61 67
        E 120 80 61 00
        E 120 90 18 65
        E 0 90 30 65
        E 0 90 48 65
        E 0 90 60 65
        E 120 80 18 00
        E 0 80 30 00
        E 0 80 48 00
        E 0 80 60 00
        E 120 90 74 60
        E 240 90 62 69
        E 120 80 62 00
        E 120 90 31 64
        E 0 90 49 64
        E 0 90 61 64
        E 120 80 31 00
        E 0 80 49 00
        E 0 80 61 00
        E 120 90 62 69
        E 120 80 62 00
        E 120 90 19 65
        E 0 90 31 65
        E 0 90 49 65
        E 0 90 61 65
        E 0 90 6c 65
        E 120 80 19 00
        E 0 80 31 00
        E 0 80 49 00
        E 0 80 61 00
        E 0 80 6c 00
        E 120 90 62 69
        E 0 90 6c 67
        E 120 80 62 00
        E 0 80 6c 00
        E 120 90 30 67
        E 0 90 48 67
        E 0 90 60 67
        E 0 90 6c 65
        E 120 80 30 00
        E 0 80 48 00
        E 0 80 60 00
        E 0 80 6c 00
        E 360 90 19 67
        E 0 90 31 67
        E 0 90 49 67
        E 0 90 61 67
        E 120 80 74 00
        E 0 80 19 00
        E 0 80 31 00
        E 0 80 49 00
        E 360 80 61 00
        E 240 90 31 65
        E 0 90 49 65
        E 0 90 61 65
        E 120 80 31 00
        E 0 80 49 00
        E 0 80 61 00
        E 360 90 48 67
        E 0 90 60 67
        E 120 80 48 00
        E 0 80 60 00
        E 120 90 18 65
        E 0 90 30 65
        E 0 90 48 65
        E 0 90 60 65
        E 840 80 60 00
        E 120 80 18 00
        E 0 80 30 00
        E 0 80 48 00
        E 0 90 61 67
        E 120 80 61 00
        E 120 90 48 65
        E 0 90 60 65
        E 120 80 48 00
        E 0 80 60 00
        E 120 90 19 65
        E 0 90 31 65
        E 0 90 49 65
        E 0 90 61 65
        E 120 80 19 00
        E 0 80 31 00
        E 0 80 49 00
        E 0 80 61 00
        E 360 90 31 66
        E 0 90 49 66
        E 0 90 61 66
        E 120 80 31 00
        E 0 80 49 00
        E 0 80 61 00
        E 360 90 19 67
        E 0 90 31 67
        E 0 90 49 67
        E 0 90 61 67
        E 120 80 19 00
        E 0 80 31 00
        E 0 80 49 00
        E 360 80 61 00
        E 240 90 31 67
        E 0 90 49 67
        E 0 90 61 67
        E 120 80 31 00
        E 0 80 49 00
        E 480 80 61 00
        E 120 90 61 67
        E 120 80 61 00
        E 120 90 18 67
        E 0 90 30 67
        E 0 90 48 67
        E 0 90 60 67
        E 0 90 6c 67
        E 120 80 18 00
        E 0 80 30 00
        E 0 80 48 00
        E 0 80 60 00
        E 0 80 6c 00
        E 360 90 62 69
        E 120 80 62 00
        E 120 90 31 64
        E 0 90 49 64
        E 0 90 61 64
        E 120 80 31 00
        E 0 80 49 00
        E 0 80 61 00
        E 120 90 62 69
        E 120 80 62 00
        E 120 90 19 65
        E 0 90 31 65
        E 0 90 49 65
        E 0 90 61 65
        E 0 90 6c 65
        E 120 80 19 00
        E 0 80 31 00
        E 0 80 49 00
        E 0 80 61 00
        E 0 80 6c 00
        E 120 90 62 69
        E 0 90 6c 67
        E 120 80 62 00
        E 0 80 6c 00
        E 120 90 31 66
        E 0 90 49 66
        E 0 90 61 66
        E 0 90 6c 66
        E 120 80 31 00
        E 0 80 49 00
        E 0 80 61 00
        E 0 80 6c 00
        E 120 90 62 69
        E 120 80 62 00
        <X 120 0
          /wFbYmVnaW5fcGIgc29uZ190cmFpbmVyX3BiXzRd
        >
        E 0 90 19 67
        E 0 90 31 67
        E 0 90 49 67
        E 0 90 61 67
        E 0 90 6c 65
        E 120 80 19 00
        E 0 80 31 00
        E 0 80 49 00
        E 0 80 61 00
        E 0 80 6c 00
        E 120 90 61 67
        E 120 80 61 00
        E 360 90 49 67
        E 0 90 61 67
        E 120 80 49 00
        E 0 80 61 00
        E 120 90 18 67
        E 0 90 30 67
        E 0 90 48 67
        E 0 90 60 67
        E 120 80 18 00
        E 0 80 30 00
        E 0 80 48 00
        E 0 80 60 00
        E 360 90 31 65
        E 0 90 49 65
        E 0 90 61 65
        E 120 80 31 00
        E 0 80 49 00
        E 360 80 61 00
        <X 1920 0
          /wFbcGJfbm9ybSBzb25nX3RyYWluZXJfcGJfNF0=
        >
        E 1920 90 18 67
        E 0 90 30 67
        E 0 90 48 67
        E 0 90 60 67
        E 120 80 18 00
        E 0 80 30 00
        E 0 80 48 00
        E 360 80 60 00
        E 240 90 31 65
        E 0 90 49 65
        E 0 90 61 65
        E 120 80 31 00
        E 0 80 49 00
        E 360 80 61 00
        E 240 90 4a 65
        E 0 90 62 65
        E 120 80 4a 00
        E 0 80 62 00
        E 360 90 19 67
        E 0 90 31 67
        E 0 90 49 67
        E 0 90 61 67
        E 0 90 74 60
        E 120 80 19 00
        E 0 80 31 00
        E 0 80 49 00
        E 0 80 61 00
        E 120 90 61 67
        E 120 80 61 00
        E 360 90 49 67
        E 0 90 61 67
        E 120 80 49 00
        E 0 80 61 00
        E 120 90 18 67
        E 0 90 30 67
        E 0 90 48 67
        E 0 90 60 67
        E 120 80 18 00
        E 0 80 30 00
        E 0 80 48 00
        E 0 80 60 00
        E 360 90 18 66
        E 0 90 30 66
        E 0 90 48 66
        E 0 90 60 66
        E 120 80 18 00
        E 0 80 30 00
        E 0 80 48 00
        E 360 80 74 00
        E 0 80 60 00
        E 4320 90 18 67
        E 0 90 30 67
        E 0 90 48 67
        E 0 90 60 67
        E 120 80 18 00
        E 0 80 30 00
        E 0 80 48 00
        E 360 80 60 00
        E 240 90 31 65
        E 0 90 49 65
        E 0 90 61 65
        E 120 80 31 00
        E 0 80 49 00
        E 360 80 61 00
        <X 240 0
          /wFbZW5kX3BiIHNvbmdfdHJhaW5lcl9wYl80XQ==
        >
        E 0 90 19 67
        E 0 90 31 67
        E 0 90 49 67
        E 0 90 61 67
        E 120 80 19 00
        E 0 80 31 00
        E 0 80 49 00
        E 0 80 61 00
        E 120 90 61 67
        E 120 80 61 00
        E 360 90 49 67
        E 0 90 61 67
        E 120 80 49 00
        E 0 80 61 00
        E 120 90 18 67
        E 0 90 30 67
        E 0 90 48 67
        E 0 90 60 67
        E 120 80 18 00
        E 0 80 30 00
        E 0 80 48 00
        E 0 80 60 00
        E 360 90 31 65
        E 0 90 49 65
        E 0 90 61 65
        E 120 80 31 00
        E 0 80 49 00
        E 360 80 61 00
        <X 4800 0
          /wFbYmVnaW5fcGIgc29uZ190cmFpbmVyX3BiXzVd
        >
        E 480 90 30 67
        E 0 90 48 67
        E 0 90 60 67
        E 120 80 30 00
        E 0 80 48 00
        E 0 80 60 00
        E 120 90 49 65
        E 0 90 61 65
        E 120 80 49 00
        E 0 80 61 00
        E 120 90 19 67
        E 0 90 31 67
        E 0 90 49 67
        E 0 90 61 67
        E 120 80 19 00
        E 0 80 31 00
        E 0 80 49 00
        E 0 80 61 00
        E 120 90 61 67
        E 120 80 61 00
        E 360 90 49 67
        E 0 90 61 67
        E 120 80 49 00
        E 0 80 61 00
        E 120 90 18 67
        E 0 90 30 67
        E 0 90 48 67
        E 0 90 60 67
        E 120 80 18 00
        E 0 80 30 00
        E 0 80 48 00
        E 0 80 60 00
        E 360 90 31 65
        E 0 90 49 65
        E 0 90 61 65
        E 120 80 31 00
        E 0 80 49 00
        E 360 80 61 00
        E 240 90 31 65
        E 0 90 49 65
        E 0 90 61 65
        E 120 80 31 00
        E 0 80 49 00
        E 0 80 61 00
        E 360 90 49 65
        E 0 90 61 65
        E 120 80 49 00
        E 0 80 61 00
        E 120 90 18 65
        E 0 90 30 65
        E 0 90 48 65
        E 0 90 60 65
        E 120 80 18 00
        E 0 80 30 00
        E 0 80 48 00
        E 0 80 60 00
        E 360 90 18 66
        E 0 90 30 66
        E 0 90 48 66
        E 0 90 60 66
        E 120 80 18 00
        E 0 80 30 00
        E 0 80 48 00
        E 360 80 60 00
        E 240 90 30 66
        E 0 90 48 66
        E 0 90 60 66
        E 120 80 30 00
        E 0 80 48 00
        E 0 80 60 00
        E 360 90 48 66
        E 0 90 60 66
        E 120 80 48 00
        E 0 80 60 00
        E 120 90 19 65
        E 0 90 31 65
        E 0 90 49 65
        E 0 90 61 65
        E 120 80 19 00
        E 0 80 31 00
        E 0 80 49 00
        E 0 80 61 00
        E 360 90 49 65
        E 0 90 61 65
        E 120 80 49 00
        E 0 80 61 00
        E 120 90 32 65
        E 0 90 4a 65
        E 0 90 62 65
        E 120 80 32 00
        E 0 80 4a 00
        E 0 80 62 00
        E 360 90 4a 65
        E 0 90 62 65
        E 120 80 4a 00
        E 0 80 62 00
        E 120 90 1b 65
        E 0 90 33 65
        E 0 90 4b 65
        E 0 90 63 65
        E 120 80 1b 00
        E 0 80 33 00
        E 0 80 4b 00
        E 0 80 63 00
        E 360 90 4b 65
        E 0 90 63 65
        E 120 80 4b 00
        E 0 80 63 00
        E 120 90 4b 6a
        E 0 90 63 6a
        E 0 90 6c 69
        E 120 80 4b 00
        E 0 80 63 00
        E 0 80 6c 00
        E 359 90 4b 6a
        E 0 90 63 6a
        E 120 80 4b 00
        E 0 80 63 00
        E 121 90 33 69
        E 0 90 4b 69
        E 0 90 63 69
        E 120 80 33 00
        E 0 80 4b 00
        E 0 80 63 00
        <X 839 0
          /wFbZW5kX3BiIHNvbmdfdHJhaW5lcl9wYl81XQ==
        >
        E 4800 b0 7b 00
        GUID {2B2AAD19-80BC-46AE-8FEB-ABB87E561F8F}
        IGNTEMPO 0 120.00000000 4 4
        SRCCOLOR 189
        VELLANE 131 128 60
        COLORMAP "C:\Program Files\REAPER (x64)\Data\color_maps\rockband_guitarbass.png"
        CFGEDITVIEW -1463.167638 69.848485 7 12 0 0 0
        CFGEDIT 1 1 0 1 1 0 1 1 1 1 1 0.25000000 -8 -8 1544 872 0 2 1 1 0.00000000 0 1 0 0 0.500000 0 0 1.000000 64
        KEYSNAP 0 6 "102030050700" 0 "Pentatonic"
        EVTFILTER 0 -1 -1 -1 -1 0 1 0 0 -1.00000000 -1.00000000
      >
    >
  >
  <TRACK '{F2B2948E-7743-493F-92CE-BE154C85E846}'
    NAME "PART REAL_GUITAR"
    PEAKCOL 16576
    BEAT -1
    AUTOMODE 0
    VOLPAN 1.00000000000000 0.00000000000000 -1.00000000000000 -1.00000000000000 1.00000000000000
    MUTESOLO 0 0 0
    IPHASE 0
    ISBUS 0 0
    BUSCOMP 0 0
    SHOWINMIX 1 0.666700 0.500000 1 0.500000 -1 -1 -1
    FREEMODE 0
    SEL 0
    REC 0 0 0 0 0 0 0
    VU 2
    TRACKHEIGHT 0 0
    INQ 0 0 0 0.5000000000 100 0 0 100
    NCHAN 2
    FX 0
    TRACKID {F2B2948E-7743-493F-92CE-BE154C85E846}
    PERF 0
    MIDIOUT -1
    <MIDINOTENAMES
      0 127 "Trill Marker"
      0 126 "Tremolo Marker"
      0 125 "BRE"
      0 124 "BRE"
      0 123 "BRE"
      0 122 "BRE"
      0 121 "BRE"
      0 120 "BRE (use all 6)"
      0 119 "-----------"
      0 116 "OVERDRIVE"
      0 115 "Solo Marker"
      0 109 "-----------"
      0 108 "Fret Hand Position"
      0 107 "Force Chord Numbering"
      0 106 "Loose Strumming"
      0 105 "Strum Direction"
      0 104 "Arpeggio Marker"
      0 103 "Slide Marker"
      0 102 "Force HOPO"
      0 101 "EXPERT e String"
      0 100 "EXPERT B String"
      0 99 "EXPERT G String"
      0 98 "EXPERT D String"
      0 97 "EXPERT A String"
      0 96 "EXPERT E String"
      0 95 "-----------"
      0 82 "Loose Strumming"
      0 81 "Strum Direction"
      0 80 "Arpeggio Marker"
      0 79 "Slide Marker"
      0 78 "Force HOPO"
      0 77 "HARD e String"
      0 76 "HARD B String"
      0 75 "HARD G String"
      0 74 "HARD D String"
      0 73 "HARD A String"
      0 72 "HARD E String"
      0 71 "-----------"
      0 58 "Loose Strumming"
      0 56 "Arpeggio Marker"
      0 55 "Slide Marker"
      0 53 "MEDIUM e String"
      0 52 "MEDIUM B String"
      0 51 "MEDIUM G String"
      0 50 "MEDIUM D String"
      0 49 "MEDIUM A String"
      0 48 "MEDIUM E String"
      0 47 "-----------"
      0 32 "Arpeggio Marker"
      0 31 "Slide Marker"
      0 29 "EASY e String"
      0 28 "EASY B String"
      0 27 "EASY G String"
      0 26 "EASY D String"
      0 25 "EASY A String"
      0 24 "EASY E String"
      0 21 "-----------"
      0 18 "Flat/Sharp Swap"
      0 17 "Hide Chord Names"
      0 16 "Slash Chord"
      0 15 "D#"
      0 14 "D"
      0 13 "C#"
      0 12 "C"
      0 11 "B"
      0 10 "A#"
      0 9 "A"
      0 8 "G#"
      0 7 "G"
      0 6 "F#"
      0 5 "F"
      0 4 "E"
    >
    MAINSEND 1 0
    <FXCHAIN
      WNDRECT 0 43 655 467
      SHOW 0
      LASTSEL 1
      DOCKED 0
      BYPASS 0 0
      <JS "c3/progtr" ""
        0.000000 3.000000 0.000000 0.000000 0.000000 0.000000 0.000000 0.000000 0.000000 1.000000 - - - - - - - - - - - - - - - - - - - - - - - - - - - - - - - - - - - - - - - - - - - - - - - - - - - - - - 
      >
      FLOATPOS 0 0 0 0
      FXID {23DE1D8C-A4A5-46AF-A380-AE7C7B3E20F4}
      WAK 0
      BYPASS 0 0
      <VST "VSTi: ReaSynth (Cockos)" "reasynth.dll" 0 ""
        eXNlcu9e7f4AAAAAAgAAAAEAAAAAAAAAAgAAAAAAAAA4AAAAAAAAAA==
        AAAQAO++rd4N8K3eppvEO7Jb0T2HFlk/AAAAAAAAAADMm4A+4jAEPA==
        AAAAAAAAAD+01hM+j8L1PQAAAD8AABAAAAA=
      >
      FLOATPOS 0 0 0 0
      FXID {F8B07314-5AE5-4740-A768-8D7E0E0468C7}
      WAK 0
    >
    <ITEM
      POSITION 0.00000000000000
      SNAPOFFS 0.00000000000000
      LENGTH 128.91399999999999
      LOOP 0
      ALLTAKES 0
      SEL 0
      FADEIN 1 0.000000 0.000000 1 0
      FADEOUT 1 0.000000 0.000000 1 0
      MUTE 0
      IGUID {CA430A4A-F730-4AAE-BED3-81595A248F58}
      IID 11
      NAME "PART REAL_GUITAR"
      VOLPAN 1.000000 0.000000 1.000000 -1.000000
      SOFFS 0.00000000000000 0.00000000000000
      PLAYRATE 1.00000000000000 1 0.00000000000000 -1
      CHANMODE 0
      GUID {190F9CF3-A3EA-488E-9803-2F3046AE2CA4}
      <SOURCE MIDI
        HASDATA 1 480 QN
        POOLEDEVTS {FEA21DFE-08F0-4055-9C0E-EA7F1B857206}
        <X 0 0
          /wNQQVJUIFJFQUxfR1VJVEFS
        >
        <X 5760 0
          /wFbYmVnaW5fcGcgc29uZ190cmFpbmVyX3BnXzFd
        >
        E 0 90 19 67
        E 0 90 31 67
        E 0 90 49 67
        E 0 90 61 67
        E 0 90 6c 65
        E 120 80 19 00
        E 0 80 31 00
        E 0 80 49 00
        E 0 80 6c 00
        E 360 80 61 00
        E 240 90 31 67
        E 0 90 49 67
        E 0 90 61 67
        E 120 80 31 00
        E 0 80 49 00
        E 0 80 61 00
        E 360 90 48 67
        E 0 90 60 67
        E 120 80 48 00
        E 0 80 60 00
        E 120 90 19 65
        E 0 90 31 65
        E 0 90 49 65
        E 0 90 61 65
        E 960 80 19 00
        E 0 80 31 00
        E 0 80 49 00
        E 0 80 61 00
        E 240 90 49 65
        E 0 90 61 65
        E 120 80 49 00
        E 0 80 61 00
        E 120 90 18 65
        E 0 90 30 65
        E 0 90 48 65
        E 0 90 60 65
        E 120 80 18 00
        E 0 80 30 00
        E 0 80 48 00
        E 0 80 60 00
        E 360 90 31 65
        E 0 90 49 65
        E 0 90 61 65
        E 120 80 31 00
        E 0 80 49 00
        E 0 80 61 00
        <X 360 0
          /wFbcGdfbm9ybSBzb25nX3RyYWluZXJfcGdfMV0=
        >
        E 0 90 19 67
        E 0 90 31 67
        E 0 90 49 67
        E 0 90 61 67
        E 120 80 19 00
        E 0 80 31 00
        E 0 80 49 00
        E 360 80 61 00
        E 240 90 31 67
        E 0 90 49 67
        E 0 90 61 67
        E 120 80 31 00
        E 0 80 49 00
        E 0 80 61 00
        E 840 90 18 67
        E 0 90 30 67
        E 0 90 48 67
        E 0 90 60 67
        E 120 80 18 00
        E 0 80 30 00
        E 0 80 48 00
        E 0 80 60 00
        E 360 90 48 67
        E 0 90 60 67
        E 120 80 48 00
        E 0 80 60 00
        E 120 90 31 64
        E 0 90 49 64
        E 0 90 61 64
        E 120 80 31 00
        E 0 80 49 00
        E 0 80 61 00
        E 360 90 19 65
        E 0 90 31 65
        E 0 90 49 65
        E 0 90 61 65
        E 120 80 19 00
        E 0 80 31 00
        E 0 80 49 00
        E 0 80 61 00
        E 600 90 48 67
        E 0 90 60 67
        E 120 80 48 00
        E 0 80 60 00
        E 120 90 19 67
        E 0 90 31 67
        E 0 90 49 67
        E 0 90 61 67
        E 120 80 19 00
        E 0 80 31 00
        E 0 80 49 00
        E 360 80 61 00
        E 240 90 31 67
        E 0 90 49 67
        E 0 90 61 67
        E 120 80 31 00
        E 0 80 49 00
        E 0 80 61 00
        E 360 90 48 67
        E 0 90 60 67
        E 120 80 48 00
        E 0 80 60 00
        E 120 90 19 65
        E 0 90 31 65
        E 0 90 49 65
        E 0 90 61 65
        E 960 80 19 00
        E 0 80 31 00
        E 0 80 49 00
        E 0 80 61 00
        E 240 90 49 65
        E 0 90 61 65
        E 120 80 49 00
        E 0 80 61 00
        E 120 90 18 65
        E 0 90 30 65
        E 0 90 48 65
        E 0 90 60 65
        E 120 80 18 00
        E 0 80 30 00
        E 0 80 48 00
        E 0 80 60 00
        E 360 90 31 65
        E 0 90 49 65
        E 0 90 61 65
        E 120 80 31 00
        E 0 80 49 00
        E 0 80 61 00
        E 360 90 19 67
        E 0 90 31 67
        E 0 90 49 67
        E 0 90 61 67
        E 120 80 19 00
        E 0 80 31 00
        E 0 80 49 00
        E 360 80 61 00
        E 240 90 31 67
        E 0 90 49 67
        E 0 90 61 67
        E 120 80 31 00
        E 0 80 49 00
        E 0 80 61 00
        E 840 90 18 67
        E 0 90 30 67
        E 0 90 48 67
        E 0 90 60 67
        E 0 90 6c 67
        E 120 80 18 00
        E 0 80 30 00
        E 0 80 48 00
        E 0 80 60 00
        E 0 80 6c 00
        E 360 90 62 69
        E 120 80 62 00
        E 120 90 31 64
        E 0 90 49 64
        E 0 90 61 64
        E 120 80 31 00
        E 0 80 49 00
        E 0 80 61 00
        E 120 90 62 69
        E 120 80 62 00
        E 120 90 19 65
        E 0 90 31 65
        E 0 90 49 65
        E 0 90 61 65
        E 0 90 6c 65
        E 120 80 19 00
        E 0 80 31 00
        E 0 80 49 00
        E 0 80 61 00
        E 0 80 6c 00
        E 120 90 62 69
        E 0 90 6c 67
        E 120 80 62 00
        E 0 80 6c 00
        E 360 90 48 67
        E 0 90 60 67
        E 0 90 6c 65
        E 120 80 48 00
        E 0 80 60 00
        E 0 80 6c 00
        <X 120 0
          /wFbZW5kX3BnIHNvbmdfdHJhaW5lcl9wZ18xXQ==
        >
        E 0 90 19 67
        E 0 90 31 67
        E 0 90 49 67
        E 0 90 61 67
        E 0 90 74 60
        E 120 80 19 00
        E 0 80 31 00
        E 0 80 49 00
        E 360 80 61 00
        E 240 90 31 67
        E 0 90 49 67
        E 0 90 61 67
        E 120 80 31 00
        E 0 80 49 00
        E 0 80 61 00
        E 360 90 48 67
        E 0 90 60 67
        E 120 80 48 00
        E 0 80 60 00
        E 120 90 19 65
        E 0 90 31 65
        E 0 90 49 65
        E 0 90 61 65
        E 960 80 19 00
        E 0 80 31 00
        E 0 80 49 00
        E 0 80 61 00
        E 240 90 49 65
        E 0 90 61 65
        E 120 80 49 00
        E 0 80 61 00
        E 120 90 18 65
        E 0 90 30 65
        E 0 90 48 65
        E 0 90 60 65
        E 120 80 18 00
        E 0 80 30 00
        E 0 80 48 00
        E 0 80 60 00
        E 360 90 31 65
        E 0 90 49 65
        E 0 90 61 65
        E 120 80 31 00
        E 0 80 49 00
        E 0 80 61 00
        E 360 80 74 00
        E 0 90 19 67
        E 0 90 31 67
        E 0 90 49 67
        E 0 90 61 67
        E 120 80 19 00
        E 0 80 31 00
        E 0 80 49 00
        E 360 80 61 00
        E 240 90 31 67
        E 0 90 49 67
        E 0 90 61 67
        E 120 80 31 00
        E 0 80 49 00
        E 0 80 61 00
        E 840 90 18 67
        E 0 90 30 67
        E 0 90 48 67
        E 0 90 60 67
        E 0 90 6c 67
        E 120 80 18 00
        E 0 80 30 00
        E 0 80 48 00
        E 0 80 60 00
        E 0 80 6c 00
        E 360 90 4a 69
        E 0 90 62 69
        E 120 80 4a 00
        E 0 80 62 00
        E 120 90 31 64
        E 0 90 49 64
        E 0 90 61 64
        E 0 90 6c 65
        E 120 80 31 00
        E 0 80 49 00
        E 0 80 61 00
        E 0 80 6c 00
        E 360 90 19 65
        E 0 90 31 65
        E 0 90 49 65
        E 0 90 61 65
        E 120 80 19 00
        E 0 80 31 00
        E 0 80 49 00
        E 0 80 61 00
        E 600 90 48 67
        E 0 90 60 67
        E 120 80 48 00
        E 0 80 60 00
        E 120 90 19 67
        E 0 90 31 67
        E 0 90 49 67
        E 0 90 61 67
        E 120 80 19 00
        E 0 80 31 00
        E 0 80 49 00
        E 360 80 61 00
        E 240 90 31 67
        E 0 90 49 67
        E 0 90 61 67
        E 120 80 31 00
        E 0 80 49 00
        E 0 80 61 00
        E 360 90 48 67
        E 0 90 60 67
        E 120 80 48 00
        E 0 80 60 00
        E 120 90 19 65
        E 0 90 31 65
        E 0 90 49 65
        E 0 90 61 65
        E 960 80 19 00
        E 0 80 31 00
        E 0 80 49 00
        E 0 80 61 00
        E 240 90 49 65
        E 0 90 61 65
        E 120 80 49 00
        E 0 80 61 00
        E 120 90 18 65
        E 0 90 30 65
        E 0 90 48 65
        E 0 90 60 65
        E 120 80 18 00
        E 0 80 30 00
        E 0 80 48 00
        E 0 80 60 00
        E 360 90 31 65
        E 0 90 49 65
        E 0 90 61 65
        E 120 80 31 00
        E 0 80 49 00
        E 0 80 61 00
        E 360 90 19 67
        E 0 90 31 67
        E 0 90 49 67
        E 0 90 61 67
        E 120 80 19 00
        E 0 80 31 00
        E 0 80 49 00
        E 360 80 61 00
        E 240 90 31 67
        E 0 90 49 67
        E 0 90 61 67
        E 120 80 31 00
        E 0 80 49 00
        E 0 80 61 00
        E 840 90 18 67
        E 0 90 30 67
        E 0 90 48 67
        E 0 90 60 67
        E 0 90 6c 67
        E 120 80 18 00
        E 0 80 30 00
        E 0 80 48 00
        E 0 80 60 00
        E 0 80 6c 00
        E 360 90 62 69
        E 120 80 62 00
        E 120 90 31 64
        E 0 90 49 64
        E 0 90 61 64
        E 120 80 31 00
        E 0 80 49 00
        E 0 80 61 00
        E 120 90 62 69
        E 120 80 62 00
        E 120 90 19 65
        E 0 90 31 65
        E 0 90 49 65
        E 0 90 61 65
        E 0 90 6c 65
        E 120 80 19 00
        E 0 80 31 00
        E 0 80 49 00
        E 0 80 61 00
        E 0 80 6c 00
        E 120 90 62 69
        E 0 90 6c 67
        E 120 80 62 00
        E 0 80 6c 00
        E 360 90 48 67
        E 120 80 48 00
        <X 120 0
          /wFbYmVnaW5fcGcgc29uZ190cmFpbmVyX3BnXzJd
        >
        E 0 90 0a 60
        E 0 90 32 6c
        E 0 90 33 6e
        E 0 90 4a 6c
        E 0 90 4b 6e
        E 0 90 4c 6e
        E 0 90 62 6c
        E 0 90 63 6e
        E 0 90 64 6e
        E 0 90 6c 6c
        E 120 80 0a 00
        E 0 80 32 00
        E 0 80 33 00
        E 0 80 4a 00
        E 0 80 4b 00
        E 0 80 4c 00
        E 0 80 6c 00
        E 360 80 62 00
        E 0 80 63 00
        E 0 80 64 00
        E 240 90 07 60
        E 0 90 31 6e
        E 0 90 32 70
        E 0 90 49 6e
        E 0 90 4a 70
        E 0 90 4b 6e
        E 0 90 61 6e
        E 0 90 62 70
        E 0 90 63 6e
        E 0 90 6c 6e
        E 120 80 07 00
        E 0 80 31 00
        E 0 80 32 00
        E 0 80 49 00
        E 0 80 4a 00
        E 0 80 4b 00
        E 0 80 6c 00
        E 360 80 61 00
        E 0 80 62 00
        E 0 80 63 00
        E 240 90 08 60
        E 0 90 31 6f
        E 0 90 32 71
        E 0 90 49 6f
        E 0 90 4a 71
        E 0 90 4b 70
        E 0 90 61 6f
        E 0 90 62 71
        E 0 90 63 70
        E 0 90 6c 6f
        E 120 80 08 00
        E 0 80 6c 00
        E 1920 80 31 00
        E 0 80 32 00
        E 120 80 49 00
        E 0 80 4a 00
        E 0 80 4b 00
        E 0 80 61 00
        E 0 80 62 00
        E 0 80 63 00
        <X 240 0
          /wFbcGdfbm9ybSBzb25nX3RyYWluZXJfcGdfMl0=
        >
        E 0 90 07 60
        E 0 90 19 6e
        E 0 90 31 6e
        E 0 90 32 70
        E 0 90 49 6e
        E 0 90 4a 70
        E 0 90 4b 6e
        E 0 90 61 6e
        E 0 90 62 70
        E 0 90 63 6e
        E 0 90 6c 6e
        E 0 90 74 60
        E 120 80 07 00
        E 0 80 19 00
        E 0 80 31 00
        E 0 80 32 00
        E 0 80 49 00
        E 0 80 4a 00
        E 0 80 4b 00
        E 0 80 6c 00
        E 360 80 61 00
        E 0 80 62 00
        E 0 80 63 00
        E 240 90 31 6a
        E 0 90 32 6c
        E 0 90 49 6a
        E 0 90 4a 6c
        E 0 90 4b 6b
        E 0 90 61 6a
        E 0 90 62 6c
        E 0 90 63 6b
        E 0 90 6c 6a
        E 120 80 31 00
        E 0 80 32 00
        E 0 80 49 00
        E 0 80 4a 00
        E 0 80 4b 00
        E 0 80 6c 00
        E 600 80 61 00
        E 0 80 62 00
        E 0 80 63 00
        E 240 90 05 60
        E 0 90 1a 67
        E 0 90 32 67
        E 0 90 34 65
        E 0 90 4a 67
        E 0 90 4b 64
        E 0 90 4c 65
        E 0 90 62 67
        E 0 90 63 64
        E 0 90 64 65
        E 0 90 6c 65
        E 120 80 05 00
        E 0 80 6c 00
        E 1560 80 1a 00
        E 0 80 62 00
        E 0 80 63 00
        E 0 80 64 00
        E 120 80 32 00
        E 0 80 34 00
        E 120 80 4a 00
        E 0 80 4b 00
        E 0 80 4c 00
        E 240 80 74 00
        E 0 90 0a 60
        E 0 90 32 6c
        E 0 90 33 6e
        E 0 90 4a 6c
        E 0 90 4b 6e
        E 0 90 4c 6e
        E 0 90 62 6c
        E 0 90 63 6e
        E 0 90 64 6e
        E 0 90 6c 6c
        E 120 80 0a 00
        E 0 80 32 00
        E 0 80 33 00
        E 0 80 4a 00
        E 0 80 4b 00
        E 0 80 4c 00
        E 0 80 6c 00
        E 360 80 62 00
        E 0 80 63 00
        E 0 80 64 00
        E 240 90 07 60
        E 0 90 31 6e
        E 0 90 32 70
        E 0 90 49 6e
        E 0 90 4a 70
        E 0 90 4b 6e
        E 0 90 61 6e
        E 0 90 62 70
        E 0 90 63 6e
        E 0 90 6c 6e
        E 120 80 07 00
        E 0 80 31 00
        E 0 80 32 00
        E 0 80 49 00
        E 0 80 4a 00
        E 0 80 4b 00
        E 0 80 6c 00
        E 360 80 61 00
        E 0 80 62 00
        E 0 80 63 00
        E 240 90 08 60
        E 0 90 31 6f
        E 0 90 32 71
        E 0 90 49 6f
        E 0 90 4a 71
        E 0 90 4b 70
        E 0 90 61 6f
        E 0 90 62 71
        E 0 90 63 70
        E 0 90 6c 6f
        E 120 80 08 00
        E 0 80 6c 00
        E 960 80 31 00
        E 0 80 32 00
        E 120 80 49 00
        E 0 80 4a 00
        E 0 80 4b 00
        E 120 80 61 00
        E 0 80 62 00
        E 0 80 63 00
        E 120 90 05 60
        E 0 90 19 6c
        E 0 90 31 6c
        E 0 90 32 6e
        E 0 90 49 6c
        E 0 90 4a 6e
        E 0 90 4b 6c
        E 0 90 61 6c
        E 0 90 62 6e
        E 0 90 63 6c
        E 0 90 6c 6c
        E 120 80 05 00
        E 0 80 19 00
        E 0 80 31 00
        E 0 80 32 00
        E 0 80 49 00
        E 0 80 4a 00
        E 0 80 4b 00
        E 0 80 61 00
        E 0 80 62 00
        E 0 80 63 00
        E 0 80 6c 00
        E 360 90 08 60
        E 0 90 32 6a
        E 0 90 33 6c
        E 0 90 4a 6a
        E 0 90 4b 6c
        E 0 90 4c 6c
        E 0 90 62 6a
        E 0 90 63 6c
        E 0 90 64 6c
        E 0 90 6c 6a
        E 120 80 08 00
        E 0 80 32 00
        E 0 80 33 00
        E 0 80 4a 00
        E 0 80 4b 00
        E 0 80 4c 00
        E 0 80 62 00
        E 0 80 63 00
        E 0 80 64 00
        E 0 80 6c 00
        E 360 90 07 60
        E 0 90 19 6e
        E 0 90 31 6e
        E 0 90 32 70
        E 0 90 49 6e
        E 0 90 4a 70
        E 0 90 4b 6e
        E 0 90 61 6e
        E 0 90 62 70
        E 0 90 63 6e
        E 0 90 6c 6e
        E 120 80 07 00
        E 0 80 19 00
        E 0 80 31 00
        E 0 80 32 00
        E 0 80 49 00
        E 0 80 4a 00
        E 0 80 4b 00
        E 0 80 6c 00
        E 360 80 61 00
        E 0 80 62 00
        E 0 80 63 00
        E 240 90 31 6e
        E 0 90 32 6c
        E 0 90 49 6e
        E 0 90 4a 6c
        E 0 90 4b 6b
        E 0 90 61 6e
        E 0 90 62 6c
        E 0 90 63 6b
        E 0 90 6c 6b
        E 120 80 6c 00
        E 480 80 31 00
        E 0 80 32 00
        E 120 80 49 00
        E 0 80 4a 00
        E 0 80 4b 00
        E 0 80 61 00
        E 0 80 62 00
        E 0 80 63 00
        E 240 90 05 60
        E 0 90 32 6e
        E 0 90 33 6e
        E 0 90 4a 6e
        E 0 90 4b 6e
        E 0 90 4c 6c
        E 0 90 62 6e
        E 0 90 63 6e
        E 0 90 64 6c
        E 0 90 6c 6c
        E 120 80 05 00
        E 0 80 6c 00
        E 1680 80 32 00
        E 0 80 33 00
        E 120 80 4a 00
        E 0 80 4b 00
        E 0 80 4c 00
        E 120 80 62 00
        E 0 80 63 00
        E 0 80 64 00
        <X 120 0
          /wFbZW5kX3BnIHNvbmdfdHJhaW5lcl9wZ18yXQ==
        >
        E 0 90 0a 60
        E 0 90 32 6c
        E 0 90 33 6e
        E 0 90 4a 6c
        E 0 90 4b 6e
        E 0 90 4c 6e
        E 0 90 62 6c
        E 0 90 63 6e
        E 0 90 64 6e
        E 0 90 6c 6c
        E 120 80 0a 00
        E 0 80 32 00
        E 0 80 33 00
        E 0 80 4a 00
        E 0 80 4b 00
        E 0 80 4c 00
        E 0 80 6c 00
        E 360 80 62 00
        E 0 80 63 00
        E 0 80 64 00
        E 240 90 07 60
        E 0 90 31 6e
        E 0 90 32 70
        E 0 90 49 6e
        E 0 90 4a 70
        E 0 90 4b 6e
        E 0 90 61 6e
        E 0 90 62 70
        E 0 90 63 6e
        E 0 90 6c 6e
        E 120 80 07 00
        E 0 80 31 00
        E 0 80 32 00
        E 0 80 49 00
        E 0 80 4a 00
        E 0 80 4b 00
        E 0 80 6c 00
        E 360 80 61 00
        E 0 80 62 00
        E 0 80 63 00
        E 240 90 08 60
        E 0 90 31 6f
        E 0 90 32 71
        E 0 90 49 6f
        E 0 90 4a 71
        E 0 90 4b 70
        E 0 90 61 6f
        E 0 90 62 71
        E 0 90 63 70
        E 0 90 6c 6f
        E 120 80 08 00
        E 0 80 6c 00
        E 1920 80 31 00
        E 0 80 32 00
        E 120 80 49 00
        E 0 80 4a 00
        E 0 80 4b 00
        E 0 80 61 00
        E 0 80 62 00
        E 0 80 63 00
        E 240 90 07 60
        E 0 90 19 6e
        E 0 90 31 6e
        E 0 90 32 70
        E 0 90 49 6e
        E 0 90 4a 70
        E 0 90 4b 6e
        E 0 90 61 6e
        E 0 90 62 70
        E 0 90 63 6e
        E 0 90 6c 6e
        E 120 80 07 00
        E 0 80 19 00
        E 0 80 31 00
        E 0 80 32 00
        E 0 80 49 00
        E 0 80 4a 00
        E 0 80 4b 00
        E 0 80 6c 00
        E 360 80 61 00
        E 0 80 62 00
        E 0 80 63 00
        E 240 90 31 6a
        E 0 90 32 6c
        E 0 90 49 6a
        E 0 90 4a 6c
        E 0 90 4b 6b
        E 0 90 61 6a
        E 0 90 62 6c
        E 0 90 63 6b
        E 0 90 6c 6a
        E 120 80 31 00
        E 0 80 32 00
        E 0 80 49 00
        E 0 80 4a 00
        E 0 80 4b 00
        E 0 80 6c 00
        E 600 80 61 00
        E 0 80 62 00
        E 0 80 63 00
        E 240 90 05 60
        E 0 90 1a 67
        E 0 90 32 67
        E 0 90 34 65
        E 0 90 4a 67
        E 0 90 4b 64
        E 0 90 4c 65
        E 0 90 62 67
        E 0 90 63 64
        E 0 90 64 65
        E 0 90 6c 65
        E 120 80 05 00
        E 0 80 6c 00
        E 1560 80 1a 00
        E 0 80 62 00
        E 0 80 63 00
        E 0 80 64 00
        E 120 80 32 00
        E 0 80 34 00
        E 120 80 4a 00
        E 0 80 4b 00
        E 0 80 4c 00
        E 240 90 0a 60
        E 0 90 32 6c
        E 0 90 33 6e
        E 0 90 4a 6c
        E 0 90 4b 6e
        E 0 90 4c 6e
        E 0 90 62 6c
        E 0 90 63 6e
        E 0 90 64 6e
        E 0 90 6c 6c
        E 120 80 0a 00
        E 0 80 32 00
        E 0 80 33 00
        E 0 80 4a 00
        E 0 80 4b 00
        E 0 80 4c 00
        E 0 80 6c 00
        E 360 80 62 00
        E 0 80 63 00
        E 0 80 64 00
        E 240 90 07 60
        E 0 90 31 6e
        E 0 90 32 70
        E 0 90 49 6e
        E 0 90 4a 70
        E 0 90 4b 6e
        E 0 90 61 6e
        E 0 90 62 70
        E 0 90 63 6e
        E 0 90 6c 6e
        E 120 80 07 00
        E 0 80 31 00
        E 0 80 32 00
        E 0 80 49 00
        E 0 80 4a 00
        E 0 80 4b 00
        E 0 80 6c 00
        E 360 80 61 00
        E 0 80 62 00
        E 0 80 63 00
        E 240 90 08 60
        E 0 90 31 6f
        E 0 90 32 71
        E 0 90 49 6f
        E 0 90 4a 71
        E 0 90 4b 70
        E 0 90 61 6f
        E 0 90 62 71
        E 0 90 63 70
        E 0 90 6c 6f
        E 120 80 08 00
        E 0 80 6c 00
        E 960 80 31 00
        E 0 80 32 00
        E 120 80 49 00
        E 0 80 4a 00
        E 0 80 4b 00
        E 120 80 61 00
        E 0 80 62 00
        E 0 80 63 00
        E 120 90 05 60
        E 0 90 19 6c
        E 0 90 31 6c
        E 0 90 32 6e
        E 0 90 49 6c
        E 0 90 4a 6e
        E 0 90 4b 6c
        E 0 90 61 6c
        E 0 90 62 6e
        E 0 90 63 6c
        E 0 90 6c 6c
        E 120 80 05 00
        E 0 80 19 00
        E 0 80 31 00
        E 0 80 32 00
        E 0 80 49 00
        E 0 80 4a 00
        E 0 80 4b 00
        E 0 80 61 00
        E 0 80 62 00
        E 0 80 63 00
        E 0 80 6c 00
        E 359 90 08 60
        E 0 90 32 6a
        E 0 90 33 6c
        E 0 90 4a 6a
        E 0 90 4b 6c
        E 0 90 4c 6c
        E 0 90 6c 6a
        E 1 90 62 6a
        E 0 90 63 6c
        E 0 90 64 6c
        E 119 80 08 00
        E 0 80 32 00
        E 0 80 33 00
        E 0 80 4a 00
        E 0 80 4b 00
        E 0 80 4c 00
        E 0 80 6c 00
        E 1 80 62 00
        E 0 80 63 00
        E 0 80 64 00
        E 360 90 07 60
        E 0 90 19 6e
        E 0 90 31 6e
        E 0 90 32 70
        E 0 90 49 6e
        E 0 90 4a 70
        E 0 90 4b 6e
        E 0 90 61 6e
        E 0 90 62 70
        E 0 90 63 6e
        E 0 90 6c 6e
        E 120 80 07 00
        E 0 80 19 00
        E 0 80 31 00
        E 0 80 32 00
        E 0 80 49 00
        E 0 80 4a 00
        E 0 80 4b 00
        E 0 80 6c 00
        E 360 80 61 00
        E 0 80 62 00
        E 0 80 63 00
        E 239 90 6c 6b
        E 1 90 31 6e
        E 0 90 32 6c
        E 0 90 49 6e
        E 0 90 4a 6c
        E 0 90 4b 6b
        E 0 90 61 6e
        E 0 90 62 6c
        E 0 90 63 6b
        E 119 80 6c 00
        E 481 80 31 00
        E 0 80 32 00
        E 120 80 49 00
        E 0 80 4a 00
        E 0 80 4b 00
        E 0 80 61 00
        E 0 80 62 00
        E 0 80 63 00
        E 240 90 05 60
        E 0 90 32 6e
        E 0 90 33 6e
        E 0 90 4a 6e
        E 0 90 4b 6e
        E 0 90 4c 6c
        E 0 90 62 6e
        E 0 90 63 6e
        E 0 90 64 6c
        E 0 90 6c 6c
        E 120 80 05 00
        E 0 80 6c 00
        E 1680 80 32 00
        E 0 80 33 00
        E 120 80 4a 00
        E 0 80 4b 00
        E 0 80 4c 00
        E 120 80 62 00
        E 0 80 63 00
        E 0 80 64 00
        E 120 90 0a 60
        E 0 90 1a 6c
        E 0 90 32 6c
        E 0 90 33 6e
        E 0 90 4a 6c
        E 0 90 4b 6e
        E 0 90 4c 6e
        E 0 90 62 6c
        E 0 90 63 6e
        E 0 90 64 6e
        E 0 90 6c 6c
        E 0 90 74 60
        E 120 80 0a 00
        E 0 80 1a 00
        E 0 80 32 00
        E 0 80 33 00
        E 0 80 4a 00
        E 0 80 4b 00
        E 0 80 4c 00
        E 0 80 6c 00
        E 360 80 62 00
        E 0 80 63 00
        E 0 80 64 00
        E 240 90 07 60
        E 0 90 31 6e
        E 0 90 32 70
        E 0 90 49 6e
        E 0 90 4a 70
        E 0 90 4b 6e
        E 0 90 61 6e
        E 0 90 62 70
        E 0 90 63 6e
        E 0 90 6c 6e
        E 120 80 07 00
        E 0 80 31 00
        E 0 80 32 00
        E 0 80 49 00
        E 0 80 4a 00
        E 0 80 4b 00
        E 0 80 6c 00
        E 360 80 61 00
        E 0 80 62 00
        E 0 80 63 00
        E 240 90 08 60
        E 0 90 31 6f
        E 0 90 32 71
        E 0 90 49 6f
        E 0 90 4a 71
        E 0 90 4b 70
        E 0 90 61 6f
        E 0 90 62 71
        E 0 90 63 70
        E 0 90 6c 6f
        E 120 80 08 00
        E 0 80 6c 00
        E 1920 80 31 00
        E 0 80 32 00
        E 120 80 49 00
        E 0 80 4a 00
        E 0 80 4b 00
        E 0 80 61 00
        E 0 80 62 00
        E 0 80 63 00
        E 240 80 74 00
        E 0 90 07 60
        E 0 90 19 6e
        E 0 90 31 6e
        E 0 90 32 70
        E 0 90 49 6e
        E 0 90 4a 70
        E 0 90 4b 6e
        E 0 90 61 6e
        E 0 90 62 70
        E 0 90 63 6e
        E 0 90 6c 6e
        E 120 80 07 00
        E 0 80 19 00
        E 0 80 31 00
        E 0 80 32 00
        E 0 80 49 00
        E 0 80 4a 00
        E 0 80 4b 00
        E 0 80 6c 00
        E 360 80 61 00
        E 0 80 62 00
        E 0 80 63 00
        E 240 90 31 6a
        E 0 90 32 6c
        E 0 90 49 6a
        E 0 90 4a 6c
        E 0 90 4b 6b
        E 0 90 61 6a
        E 0 90 62 6c
        E 0 90 63 6b
        E 0 90 6c 6a
        E 120 80 31 00
        E 0 80 32 00
        E 0 80 49 00
        E 0 80 4a 00
        E 0 80 4b 00
        E 0 80 6c 00
        E 600 80 61 00
        E 0 80 62 00
        E 0 80 63 00
        E 240 90 05 60
        E 0 90 1a 67
        E 0 90 32 67
        E 0 90 34 65
        E 0 90 4a 67
        E 0 90 4b 64
        E 0 90 4c 65
        E 0 90 62 67
        E 0 90 63 64
        E 0 90 64 65
        E 0 90 6c 65
        E 120 80 05 00
        E 0 80 6c 00
        E 1560 80 1a 00
        E 0 80 62 00
        E 0 80 63 00
        E 0 80 64 00
        E 120 80 32 00
        E 0 80 34 00
        E 120 80 4a 00
        E 0 80 4b 00
        E 0 80 4c 00
        E 240 90 0a 60
        E 0 90 32 6c
        E 0 90 33 6e
        E 0 90 4a 6c
        E 0 90 4b 6e
        E 0 90 4c 6e
        E 0 90 62 6c
        E 0 90 63 6e
        E 0 90 64 6e
        E 0 90 6c 6c
        E 120 80 0a 00
        E 0 80 32 00
        E 0 80 33 00
        E 0 80 4a 00
        E 0 80 4b 00
        E 0 80 4c 00
        E 0 80 6c 00
        E 360 80 62 00
        E 0 80 63 00
        E 0 80 64 00
        E 240 90 07 60
        E 0 90 31 6e
        E 0 90 32 70
        E 0 90 49 6e
        E 0 90 4a 70
        E 0 90 4b 6e
        E 0 90 61 6e
        E 0 90 62 70
        E 0 90 63 6e
        E 0 90 6c 6e
        E 120 80 07 00
        E 0 80 31 00
        E 0 80 32 00
        E 0 80 49 00
        E 0 80 4a 00
        E 0 80 4b 00
        E 0 80 6c 00
        E 360 80 61 00
        E 0 80 62 00
        E 0 80 63 00
        E 240 90 08 60
        E 0 90 31 6f
        E 0 90 32 71
        E 0 90 49 6f
        E 0 90 4a 71
        E 0 90 4b 70
        E 0 90 61 6f
        E 0 90 62 71
        E 0 90 63 70
        E 0 90 6c 6f
        E 120 80 08 00
        E 0 80 6c 00
        E 960 80 31 00
        E 0 80 32 00
        E 120 80 49 00
        E 0 80 4a 00
        E 0 80 4b 00
        E 120 80 61 00
        E 0 80 62 00
        E 0 80 63 00
        E 120 90 05 60
        E 0 90 19 6c
        E 0 90 31 6c
        E 0 90 32 6e
        E 0 90 49 6c
        E 0 90 4a 6e
        E 0 90 4b 6c
        E 0 90 61 6c
        E 0 90 62 6e
        E 0 90 63 6c
        E 0 90 6c 6c
        E 120 80 05 00
        E 0 80 19 00
        E 0 80 31 00
        E 0 80 32 00
        E 0 80 49 00
        E 0 80 4a 00
        E 0 80 4b 00
        E 0 80 61 00
        E 0 80 62 00
        E 0 80 63 00
        E 0 80 6c 00
        E 359 90 08 60
        E 0 90 32 6a
        E 0 90 33 6c
        E 0 90 4a 6a
        E 0 90 4b 6c
        E 0 90 4c 6c
        E 0 90 6c 6a
        E 1 90 62 6a
        E 0 90 63 6c
        E 0 90 64 6c
        E 119 80 08 00
        E 0 80 32 00
        E 0 80 33 00
        E 0 80 4a 00
        E 0 80 4b 00
        E 0 80 4c 00
        E 0 80 6c 00
        E 1 80 62 00
        E 0 80 63 00
        E 0 80 64 00
        E 360 90 07 60
        E 0 90 19 6e
        E 0 90 31 6e
        E 0 90 32 70
        E 0 90 49 6e
        E 0 90 4a 70
        E 0 90 4b 6e
        E 0 90 61 6e
        E 0 90 62 70
        E 0 90 63 6e
        E 0 90 6c 6e
        E 120 80 07 00
        E 0 80 19 00
        E 0 80 31 00
        E 0 80 32 00
        E 0 80 49 00
        E 0 80 4a 00
        E 0 80 4b 00
        E 0 80 6c 00
        E 360 80 61 00
        E 0 80 62 00
        E 0 80 63 00
        E 239 90 6c 6b
        E 1 90 31 6e
        E 0 90 32 6c
        E 0 90 49 6e
        E 0 90 4a 6c
        E 0 90 4b 6b
        E 0 90 61 6e
        E 0 90 62 6c
        E 0 90 63 6b
        E 119 80 6c 00
        E 481 80 31 00
        E 0 80 32 00
        E 120 80 49 00
        E 0 80 4a 00
        E 0 80 4b 00
        E 0 80 61 00
        E 0 80 62 00
        E 0 80 63 00
        E 240 90 05 60
        E 0 90 1a 6e
        E 0 90 32 6e
        E 0 90 33 6e
        E 0 90 4a 6e
        E 0 90 4b 6e
        E 0 90 4c 6c
        E 0 90 62 6e
        E 0 90 63 6e
        E 0 90 64 6c
        E 0 90 6c 6c
        E 120 80 05 00
        E 0 80 6c 00
        <X 2040 0
          /wFbYmVnaW5fcGcgc29uZ190cmFpbmVyX3BnXzNd
        >
        E 0 80 1a 00
        E 0 80 32 00
        E 0 80 33 00
        E 0 80 4a 00
        E 0 80 4b 00
        E 0 80 4c 00
        E 0 80 62 00
        E 0 80 63 00
        E 0 80 64 00
        E 0 90 74 60
        E 1200 90 4b 64
        E 0 90 63 64
        E 0 90 6c 65
        E 120 80 4b 00
        E 0 80 63 00
        E 0 80 6c 00
        E 120 90 1b 65
        E 0 90 33 65
        E 0 90 4b 65
        E 0 90 63 65
        E 120 80 1b 00
        E 0 80 33 00
        E 0 80 4b 00
        E 0 80 63 00
        E 120 90 4c 68
        E 0 90 64 68
        E 120 80 4c 00
        E 0 80 64 00
        E 360 90 4b 64
        E 0 90 63 64
        E 120 80 4b 00
        E 0 80 63 00
        E 120 90 4b 65
        E 0 90 63 65
        E 120 80 4b 00
        E 0 80 63 00
        E 120 90 1c 67
        E 0 90 34 67
        E 0 90 4c 67
        E 0 90 64 67
        E 720 80 74 00
        <X 480 0
          /wFbcGdfbm9ybSBzb25nX3RyYWluZXJfcGdfM10=
        >
        E 1680 80 1c 00
        E 0 80 34 00
        E 240 80 4c 00
        E 0 80 64 00
        E 2880 90 35 6a
        E 0 90 4d 6a
        E 0 90 65 6a
        E 0 90 6c 67
        E 120 80 35 00
        E 0 80 4d 00
        E 0 80 65 00
        E 0 80 6c 00
        E 360 90 4d 67
        E 0 90 65 67
        E 120 80 4d 00
        E 0 80 65 00
        E 120 90 1b 69
        E 0 90 33 69
        E 0 90 4b 69
        E 0 90 63 69
        E 3600 80 1b 00
        E 240 80 33 00
        E 240 80 4b 00
        E 0 80 63 00
        <X 1920 0
          /wFbYmVnaW5fcGcgc29uZ190cmFpbmVyX3BnXzRd
        >
        <X 0 0
          /wFbZW5kX3BnIHNvbmdfdHJhaW5lcl9wZ18zXQ==
        >
        E 1200 90 4c 6c
        E 0 90 64 6c
        E 0 90 6c 6c
        E 120 80 4c 00
        E 0 80 64 00
        E 0 80 6c 00
        E 120 90 1c 6d
        E 0 90 34 6d
        E 0 90 4c 6d
        E 0 90 64 6d
        E 120 80 1c 00
        E 0 80 34 00
        E 0 80 4c 00
        E 0 80 64 00
        E 120 90 4d 6f
        E 0 90 65 6f
        E 120 80 4d 00
        E 0 80 65 00
        E 360 90 4c 6c
        E 0 90 64 6c
        E 120 80 4c 00
        E 0 80 64 00
        E 120 90 4c 6d
        E 1 90 64 6d
        E 119 80 4c 00
        E 0 90 1d 6e
        E 0 90 35 6e
        E 1 80 64 00
        E 119 90 4d 6e
        E 0 90 65 6e
        <X 1200 0
          /wFbcGdfbm9ybSBzb25nX3RyYWluZXJfcGdfNF0=
        >
        E 1440 80 65 00
        E 240 80 1d 00
        E 0 80 35 00
        E 240 80 4d 00
        E 0 90 74 60
        E 2880 90 11 60
        E 0 90 33 70
        E 0 90 34 6f
        E 0 90 4b 70
        E 0 90 4c 6f
        E 0 90 63 70
        E 0 90 64 6f
        E 0 90 6b 60
        E 0 90 6c 6f
        E 120 80 33 00
        E 0 80 34 00
        E 0 80 4b 00
        E 0 80 4c 00
        E 0 80 63 00
        E 0 80 64 00
        E 0 80 6c 00
        E 360 90 4a 71
        E 0 90 4b 70
        E 0 90 62 71
        E 0 90 63 70
        E 0 90 6c 70
        E 120 80 6b 00
        E 0 80 4a 00
        E 0 80 4b 00
        E 0 80 62 00
        E 0 80 63 00
        E 0 80 6c 00
        E 120 90 61 6e
        E 0 90 62 6e
        E 0 90 6c 6e
        E 120 80 6c 00
        E 0 90 19 6e
        E 0 90 31 6e
        E 0 90 32 6e
        E 0 90 49 6e
        E 0 90 4a 6e
        E 120 80 74 00
        E 3360 80 19 00
        E 240 80 31 00
        E 0 80 32 00
        E 0 80 49 00
        E 0 80 4a 00
        <X 240 0
          /wFbZW5kX3BnIHNvbmdfdHJhaW5lcl9wZ180XQ==
        >
        E 0 80 11 00
        E 0 80 61 00
        E 0 80 62 00
        E 1920 90 0a 60
        E 0 90 32 6c
        E 0 90 33 6e
        E 0 90 4a 6c
        E 0 90 4b 6e
        E 0 90 4c 6e
        E 0 90 62 6c
        E 0 90 63 6e
        E 0 90 64 6e
        E 0 90 6c 6c
        E 120 80 0a 00
        E 0 80 32 00
        E 0 80 33 00
        E 0 80 4a 00
        E 0 80 4b 00
        E 0 80 4c 00
        E 0 80 6c 00
        E 480 80 62 00
        E 0 80 63 00
        E 0 80 64 00
        E 120 90 07 60
        E 0 90 31 6e
        E 0 90 32 70
        E 0 90 49 6e
        E 0 90 4a 70
        E 0 90 4b 6e
        E 0 90 61 6e
        E 0 90 62 70
        E 0 90 63 6e
        E 0 90 6c 6e
        E 120 80 07 00
        E 0 80 31 00
        E 0 80 32 00
        E 0 80 49 00
        E 0 80 4a 00
        E 0 80 4b 00
        E 0 80 6c 00
        E 480 80 61 00
        E 0 80 62 00
        E 0 80 63 00
        E 120 90 08 60
        E 0 90 31 6f
        E 0 90 32 71
        E 0 90 49 6f
        E 0 90 4a 71
        E 0 90 4b 70
        E 0 90 61 6f
        E 0 90 62 71
        E 0 90 63 70
        E 0 90 6c 6f
        E 120 80 08 00
        E 0 80 6c 00
        E 1920 80 31 00
        E 0 80 32 00
        E 120 80 49 00
        E 0 80 4a 00
        E 0 80 4b 00
        E 0 80 61 00
        E 0 80 62 00
        E 0 80 63 00
        E 240 90 07 60
        E 0 90 19 6e
        E 0 90 31 6e
        E 0 90 32 70
        E 0 90 49 6e
        E 0 90 4a 70
        E 0 90 4b 6e
        E 0 90 61 6e
        E 0 90 62 70
        E 0 90 63 6e
        E 0 90 6c 6e
        E 120 80 07 00
        E 0 80 19 00
        E 0 80 31 00
        E 0 80 32 00
        E 0 80 49 00
        E 0 80 4a 00
        E 0 80 4b 00
        E 0 80 6c 00
        E 480 80 61 00
        E 0 80 62 00
        E 0 80 63 00
        E 120 90 31 6a
        E 0 90 32 6c
        E 0 90 49 6a
        E 0 90 4a 6c
        E 0 90 4b 6b
        E 0 90 61 6a
        E 0 90 62 6c
        E 0 90 63 6b
        E 0 90 6c 6a
        E 120 80 6c 00
        E 480 80 31 00
        E 0 80 32 00
        E 120 80 49 00
        E 0 80 4a 00
        E 0 80 4b 00
        E 120 80 61 00
        E 0 80 62 00
        E 0 80 63 00
        E 120 90 05 60
        E 0 90 1a 67
        E 0 90 32 67
        E 0 90 34 65
        E 0 90 4a 67
        E 0 90 4b 64
        E 0 90 4c 65
        E 0 90 62 67
        E 0 90 63 64
        E 0 90 64 65
        E 0 90 6c 65
        E 120 80 05 00
        E 0 80 1a 00
        E 0 80 32 00
        E 0 80 34 00
        E 0 80 4a 00
        E 0 80 4b 00
        E 0 80 4c 00
        E 0 80 62 00
        E 0 80 63 00
        E 0 80 64 00
        E 0 80 6c 00
        E 2040 90 0a 60
        E 0 90 32 6c
        E 0 90 33 6e
        E 0 90 4a 6c
        E 0 90 4b 6e
        E 0 90 4c 6e
        E 0 90 62 6c
        E 0 90 63 6e
        E 0 90 64 6e
        E 0 90 6c 6c
        E 120 80 0a 00
        E 0 80 32 00
        E 0 80 33 00
        E 0 80 4a 00
        E 0 80 4b 00
        E 0 80 4c 00
        E 0 80 6c 00
        E 480 80 62 00
        E 0 80 63 00
        E 0 80 64 00
        E 120 90 07 60
        E 0 90 31 6e
        E 0 90 32 70
        E 0 90 49 6e
        E 0 90 4a 70
        E 0 90 4b 6e
        E 0 90 61 6e
        E 0 90 62 70
        E 0 90 63 6e
        E 0 90 6c 6e
        E 120 80 07 00
        E 0 80 31 00
        E 0 80 32 00
        E 0 80 49 00
        E 0 80 4a 00
        E 0 80 4b 00
        E 0 80 6c 00
        E 480 80 61 00
        E 0 80 62 00
        E 0 80 63 00
        E 120 90 08 60
        E 0 90 31 6f
        E 0 90 32 71
        E 0 90 49 6f
        E 0 90 4a 71
        E 0 90 4b 70
        E 0 90 61 6f
        E 0 90 62 71
        E 0 90 63 70
        E 0 90 6c 6f
        E 120 80 08 00
        E 0 80 6c 00
        E 960 80 31 00
        E 0 80 32 00
        E 120 80 49 00
        E 0 80 4a 00
        E 0 80 4b 00
        E 120 80 61 00
        E 0 80 62 00
        E 0 80 63 00
        E 120 90 05 60
        E 0 90 19 6c
        E 0 90 31 6c
        E 0 90 32 6e
        E 0 90 49 6c
        E 0 90 4a 6e
        E 0 90 4b 6c
        E 0 90 61 6c
        E 0 90 62 6e
        E 0 90 63 6c
        E 0 90 6c 6c
        E 120 80 05 00
        E 0 80 19 00
        E 0 80 31 00
        E 0 80 32 00
        E 0 80 49 00
        E 0 80 4a 00
        E 0 80 4b 00
        E 0 80 61 00
        E 0 80 62 00
        E 0 80 63 00
        E 0 80 6c 00
        E 359 90 08 60
        E 0 90 32 6a
        E 0 90 33 6c
        E 0 90 4a 6a
        E 0 90 4b 6c
        E 0 90 4c 6c
        E 1 90 62 6a
        E 0 90 63 6c
        E 0 90 64 6c
        E 0 90 6c 6a
        E 119 80 08 00
        E 0 80 32 00
        E 0 80 33 00
        E 0 80 4a 00
        E 0 80 4b 00
        E 0 80 4c 00
        E 1 80 62 00
        E 0 80 63 00
        E 0 80 64 00
        E 0 80 6c 00
        E 360 90 07 60
        E 0 90 19 6e
        E 0 90 31 6e
        E 0 90 32 70
        E 0 90 49 6e
        E 0 90 4a 70
        E 0 90 4b 6e
        E 0 90 61 6e
        E 0 90 62 70
        E 0 90 63 6e
        E 0 90 6c 6e
        E 120 80 07 00
        E 0 80 19 00
        E 0 80 31 00
        E 0 80 32 00
        E 0 80 49 00
        E 0 80 4a 00
        E 0 80 4b 00
        E 0 80 6c 00
        E 480 80 61 00
        E 0 80 62 00
        E 0 80 63 00
        E 120 90 31 6e
        E 0 90 32 6c
        E 0 90 49 6e
        E 0 90 4a 6c
        E 0 90 4b 6b
        E 0 90 61 6e
        E 0 90 62 6c
        E 0 90 63 6b
        E 0 90 6c 6b
        E 120 80 6c 00
        E 480 80 31 00
        E 0 80 32 00
        E 120 80 49 00
        E 0 80 4a 00
        E 0 80 4b 00
        E 120 80 61 00
        E 0 80 62 00
        E 0 80 63 00
        E 120 90 05 60
        E 0 90 32 6e
        E 0 90 33 6e
        E 0 90 4a 6e
        E 0 90 4b 6e
        E 0 90 4c 6c
        E 0 90 62 6e
        E 0 90 63 6e
        E 0 90 64 6c
        E 0 90 6c 6c
        E 120 80 05 00
        E 0 80 6c 00
        E 1680 80 32 00
        E 0 80 33 00
        E 120 80 4a 00
        E 0 80 4b 00
        E 0 80 4c 00
        E 120 80 62 00
        E 0 80 63 00
        E 0 80 64 00
        E 120 90 0a 60
        E 0 90 1a 6c
        E 0 90 32 6c
        E 0 90 33 6e
        E 0 90 4a 6c
        E 0 90 4b 6e
        E 0 90 4c 6e
        E 0 90 62 6c
        E 0 90 63 6e
        E 0 90 64 6e
        E 0 90 6c 6c
        E 0 90 74 60
        E 120 80 0a 00
        E 0 80 1a 00
        E 0 80 32 00
        E 0 80 33 00
        E 0 80 4a 00
        E 0 80 4b 00
        E 0 80 4c 00
        E 0 80 6c 00
        E 480 80 62 00
        E 0 80 63 00
        E 0 80 64 00
        E 120 90 07 60
        E 0 90 31 6e
        E 0 90 32 70
        E 0 90 49 6e
        E 0 90 4a 70
        E 0 90 4b 6e
        E 0 90 61 6e
        E 0 90 62 70
        E 0 90 63 6e
        E 0 90 6c 6e
        E 120 80 07 00
        E 0 80 31 00
        E 0 80 32 00
        E 0 80 49 00
        E 0 80 4a 00
        E 0 80 4b 00
        E 0 80 6c 00
        E 480 80 61 00
        E 0 80 62 00
        E 0 80 63 00
        E 120 90 08 60
        E 0 90 31 6f
        E 0 90 32 71
        E 0 90 49 6f
        E 0 90 4a 71
        E 0 90 4b 70
        E 0 90 61 6f
        E 0 90 62 71
        E 0 90 63 70
        E 0 90 6c 6f
        E 120 80 08 00
        E 0 80 6c 00
        E 360 80 74 00
        E 1560 80 31 00
        E 0 80 32 00
        E 120 80 49 00
        E 0 80 4a 00
        E 0 80 4b 00
        E 0 80 61 00
        E 0 80 62 00
        E 0 80 63 00
        E 240 90 07 60
        E 0 90 19 6e
        E 0 90 31 6e
        E 0 90 32 70
        E 0 90 49 6e
        E 0 90 4a 70
        E 0 90 4b 6e
        E 0 90 61 6e
        E 0 90 62 70
        E 0 90 63 6e
        E 0 90 6c 6e
        E 120 80 07 00
        E 0 80 19 00
        E 0 80 31 00
        E 0 80 32 00
        E 0 80 49 00
        E 0 80 4a 00
        E 0 80 4b 00
        E 0 80 6c 00
        E 480 80 61 00
        E 0 80 62 00
        E 0 80 63 00
        E 120 90 31 6a
        E 0 90 32 6c
        E 0 90 49 6a
        E 0 90 4a 6c
        E 0 90 4b 6b
        E 0 90 61 6a
        E 0 90 62 6c
        E 0 90 63 6b
        E 0 90 6c 6a
        E 120 80 31 00
        E 0 80 32 00
        E 0 80 49 00
        E 0 80 4a 00
        E 0 80 4b 00
        E 0 80 6c 00
        E 600 90 19 6a
        E 0 90 31 6a
        E 0 90 32 6c
        E 0 90 49 6a
        E 0 90 4a 6c
        E 0 90 4b 6b
        E 120 80 61 00
        E 0 80 62 00
        E 0 80 63 00
        E 120 90 05 60
        E 0 90 62 67
        E 0 90 63 64
        E 0 90 64 65
        E 0 90 6c 65
        E 120 80 05 00
        E 0 80 6c 00
        E 1560 80 19 00
        E 0 80 62 00
        E 0 80 63 00
        E 0 80 64 00
        E 120 80 31 00
        E 0 80 32 00
        E 120 80 49 00
        E 0 80 4a 00
        E 0 80 4b 00
        E 240 90 0a 60
        E 0 90 32 6c
        E 0 90 33 6e
        E 0 90 4a 6c
        E 0 90 4b 6e
        E 0 90 4c 6e
        E 0 90 62 6c
        E 0 90 63 6e
        E 0 90 64 6e
        E 0 90 6c 6c
        E 120 80 0a 00
        E 0 80 32 00
        E 0 80 33 00
        E 0 80 4a 00
        E 0 80 4b 00
        E 0 80 4c 00
        E 0 80 6c 00
        E 480 80 62 00
        E 0 80 63 00
        E 0 80 64 00
        E 120 90 07 60
        E 0 90 31 6e
        E 0 90 32 70
        E 0 90 49 6e
        E 0 90 4a 70
        E 0 90 4b 6e
        E 0 90 61 6e
        E 0 90 62 70
        E 0 90 63 6e
        E 0 90 6c 6e
        E 120 80 07 00
        E 0 80 31 00
        E 0 80 32 00
        E 0 80 49 00
        E 0 80 4a 00
        E 0 80 4b 00
        E 0 80 6c 00
        E 480 80 61 00
        E 0 80 62 00
        E 0 80 63 00
        E 120 90 08 60
        E 0 90 31 6f
        E 0 90 32 71
        E 0 90 49 6f
        E 0 90 4a 71
        E 0 90 4b 70
        E 0 90 61 6f
        E 0 90 62 71
        E 0 90 63 70
        E 0 90 6c 6f
        E 120 80 08 00
        E 0 80 6c 00
        E 960 80 31 00
        E 0 80 32 00
        E 120 80 49 00
        E 0 80 4a 00
        E 0 80 4b 00
        E 120 80 61 00
        E 0 80 62 00
        E 0 80 63 00
        E 120 90 05 60
        E 0 90 19 6c
        E 0 90 31 6c
        E 0 90 32 6e
        E 0 90 49 6c
        E 0 90 4a 6e
        E 0 90 4b 6c
        E 0 90 61 6c
        E 0 90 62 6e
        E 0 90 63 6c
        E 0 90 6c 6c
        E 120 80 05 00
        E 0 80 19 00
        E 0 80 31 00
        E 0 80 32 00
        E 0 80 49 00
        E 0 80 4a 00
        E 0 80 4b 00
        E 0 80 61 00
        E 0 80 62 00
        E 0 80 63 00
        E 0 80 6c 00
        E 359 90 08 60
        E 0 90 32 6a
        E 0 90 33 6c
        E 0 90 4a 6a
        E 0 90 4b 6c
        E 0 90 4c 6c
        E 1 90 62 6a
        E 0 90 63 6c
        E 0 90 64 6c
        E 0 90 6c 6a
        E 119 80 08 00
        E 0 80 32 00
        E 0 80 33 00
        E 0 80 4a 00
        E 0 80 4b 00
        E 0 80 4c 00
        E 1 80 62 00
        E 0 80 63 00
        E 0 80 64 00
        E 0 80 6c 00
        E 360 90 07 60
        E 0 90 19 6e
        E 0 90 31 6e
        E 0 90 32 70
        E 0 90 49 6e
        E 0 90 4a 70
        E 0 90 4b 6e
        E 0 90 61 6e
        E 0 90 62 70
        E 0 90 63 6e
        E 0 90 6c 6e
        E 120 80 07 00
        E 0 80 19 00
        E 0 80 31 00
        E 0 80 32 00
        E 0 80 49 00
        E 0 80 4a 00
        E 0 80 4b 00
        E 0 80 6c 00
        E 480 80 61 00
        E 0 80 62 00
        E 0 80 63 00
        E 120 90 31 6e
        E 0 90 32 6c
        E 0 90 49 6e
        E 0 90 4a 6c
        E 0 90 4b 6b
        E 0 90 61 6e
        E 0 90 62 6c
        E 0 90 63 6b
        E 0 90 6c 6b
        E 120 80 6c 00
        E 480 80 31 00
        E 0 80 32 00
        E 120 80 49 00
        E 0 80 4a 00
        E 0 80 4b 00
        E 120 80 61 00
        E 0 80 62 00
        E 0 80 63 00
        E 120 90 05 60
        E 0 90 32 6e
        E 0 90 33 6e
        E 0 90 4a 6e
        E 0 90 4b 6e
        E 0 90 4c 6c
        E 0 90 62 6e
        E 0 90 63 6e
        E 0 90 64 6c
        E 0 90 6c 6c
        E 120 80 05 00
        E 0 80 6c 00
        E 1680 80 32 00
        E 0 80 33 00
        E 120 80 4a 00
        E 0 80 4b 00
        E 0 80 4c 00
        E 0 80 62 00
        E 0 80 63 00
        E 0 80 64 00
        <X 240 0
          /wFbYmVnaW5fcGcgc29uZ190cmFpbmVyX3BnXzVd
        >
        E 0 90 19 67
        E 0 90 31 67
        E 0 90 49 67
        E 0 90 61 67
        E 0 90 6c 65
        E 120 80 19 00
        E 0 80 31 00
        E 0 80 49 00
        E 0 80 61 00
        E 0 80 6c 00
        E 120 90 61 67
        E 120 80 61 00
        E 360 90 49 67
        E 0 90 61 67
        E 120 80 49 00
        E 0 80 61 00
        E 120 90 18 67
        E 0 90 30 67
        E 0 90 48 67
        E 0 90 60 67
        E 120 80 18 00
        E 0 80 30 00
        E 0 80 48 00
        E 0 80 60 00
        E 360 90 31 65
        E 0 90 49 65
        E 0 90 61 65
        E 120 80 31 00
        E 0 80 49 00
        E 360 80 61 00
        <X 1920 0
          /wFbcGdfbm9ybSBzb25nX3RyYWluZXJfcGdfNV0=
        >
        E 1920 90 18 67
        E 0 90 30 67
        E 0 90 48 67
        E 0 90 60 67
        E 120 80 18 00
        E 0 80 30 00
        E 0 80 48 00
        E 360 80 60 00
        E 240 90 31 65
        E 0 90 49 65
        E 0 90 61 65
        E 120 80 31 00
        E 0 80 49 00
        E 360 80 61 00
        E 240 90 4a 65
        E 0 90 62 65
        E 120 80 4a 00
        E 0 80 62 00
        E 360 90 19 67
        E 0 90 31 67
        E 0 90 49 67
        E 0 90 61 67
        E 0 90 74 60
        E 120 80 19 00
        E 0 80 31 00
        E 0 80 49 00
        E 0 80 61 00
        E 120 90 61 67
        E 120 80 61 00
        E 360 90 49 67
        E 0 90 61 67
        E 120 80 49 00
        E 0 80 61 00
        E 120 90 18 67
        E 0 90 30 67
        E 0 90 48 67
        E 0 90 60 67
        E 120 80 18 00
        E 0 80 30 00
        E 0 80 48 00
        E 0 80 60 00
        E 360 90 18 66
        E 0 90 30 66
        E 0 90 48 66
        E 0 90 60 66
        E 120 80 18 00
        E 0 80 30 00
        E 0 80 48 00
        E 360 80 74 00
        E 0 80 60 00
        E 4320 90 18 67
        E 0 90 30 67
        E 0 90 48 67
        E 0 90 60 67
        E 120 80 18 00
        E 0 80 30 00
        E 0 80 48 00
        E 360 80 60 00
        E 240 90 31 65
        E 0 90 49 65
        E 0 90 61 65
        E 120 80 31 00
        E 0 80 49 00
        E 360 80 61 00
        <X 240 0
          /wFbZW5kX3BnIHNvbmdfdHJhaW5lcl9wZ181XQ==
        >
        E 0 90 1b 69
        E 0 90 33 69
        E 0 90 4b 69
        E 0 90 63 69
        E 0 90 6c 67
        E 120 80 1b 00
        E 0 80 33 00
        E 0 80 4b 00
        E 0 80 63 00
        E 0 80 6c 00
        E 120 90 63 69
        E 120 80 63 00
        E 360 90 4b 69
        E 0 90 63 69
        E 120 80 4b 00
        E 0 80 63 00
        E 120 90 1a 69
        E 0 90 32 69
        E 0 90 4a 69
        E 0 90 62 69
        E 120 80 1a 00
        E 0 80 32 00
        E 0 80 4a 00
        E 0 80 62 00
        E 360 90 33 67
        E 0 90 4b 67
        E 0 90 63 67
        E 120 80 33 00
        E 0 80 4b 00
        E 360 80 63 00
        <X 5280 0
          /wFbYmVnaW5fcGcgc29uZ190cmFpbmVyX3BnXzZd
        >
        E 0 90 32 69
        E 0 90 4a 69
        E 0 90 62 69
        E 120 80 32 00
        E 0 80 4a 00
        E 0 80 62 00
        E 120 90 4b 67
        E 0 90 63 67
        E 120 80 4b 00
        E 0 80 63 00
        E 120 90 1b 69
        E 0 90 33 69
        E 0 90 4b 69
        E 0 90 63 69
        E 120 80 1b 00
        E 0 80 33 00
        E 0 80 4b 00
        E 0 80 63 00
        E 120 90 63 69
        E 120 80 63 00
        E 360 90 4b 69
        E 0 90 63 69
        E 120 80 4b 00
        E 0 80 63 00
        E 120 90 1a 69
        E 0 90 32 69
        E 0 90 4a 69
        E 0 90 62 69
        E 120 80 1a 00
        E 0 80 32 00
        E 0 80 4a 00
        E 0 80 62 00
        E 360 90 33 67
        E 0 90 4b 67
        E 0 90 63 67
        E 120 80 33 00
        E 0 80 4b 00
        E 360 80 63 00
        E 240 90 33 67
        E 0 90 4b 67
        E 0 90 63 67
        E 120 80 33 00
        E 0 80 4b 00
        E 0 80 63 00
        E 360 90 4b 67
        E 0 90 63 67
        E 120 80 4b 00
        E 0 80 63 00
        E 120 90 1a 67
        E 0 90 32 67
        E 0 90 4a 67
        E 0 90 62 67
        E 120 80 1a 00
        E 0 80 32 00
        E 0 80 4a 00
        E 0 80 62 00
        E 360 90 1a 68
        E 0 90 32 68
        E 0 90 4a 68
        E 0 90 62 68
        E 120 80 1a 00
        E 0 80 32 00
        E 0 80 4a 00
        E 360 80 62 00
        E 240 90 32 68
        E 0 90 4a 68
        E 0 90 62 68
        E 120 80 32 00
        E 0 80 4a 00
        E 0 80 62 00
        E 360 90 4a 68
        E 0 90 62 68
        E 120 80 4a 00
        E 0 80 62 00
        E 120 90 1b 67
        E 0 90 33 67
        E 0 90 4b 67
        E 0 90 63 67
        E 120 80 1b 00
        E 0 80 33 00
        E 0 80 4b 00
        E 0 80 63 00
        E 360 90 4b 67
        E 0 90 63 67
        E 120 80 4b 00
        E 0 80 63 00
        E 120 90 34 68
        E 0 90 4c 68
        E 0 90 64 68
        E 0 90 6c 68
        E 120 80 34 00
        E 0 80 4c 00
        E 0 80 64 00
        E 0 80 6c 00
        E 360 90 4c 68
        E 0 90 64 68
        E 120 80 4c 00
        E 0 80 64 00
        E 120 90 1d 68
        E 0 90 35 68
        E 0 90 4d 68
        E 0 90 65 68
        E 120 80 1d 00
        E 0 80 35 00
        E 0 80 4d 00
        E 0 80 65 00
        E 360 90 4d 68
        E 0 90 65 68
        E 120 80 4d 00
        E 0 80 65 00
        E 120 90 4d 6d
        E 0 90 65 6d
        E 0 90 6c 6c
        E 120 80 4d 00
        E 0 80 65 00
        E 0 80 6c 00
        E 359 90 4d 6d
        E 0 90 65 6d
        E 120 80 4d 00
        E 0 80 65 00
        E 121 90 35 6c
        E 0 90 4d 6c
        E 0 90 65 6c
        E 120 80 35 00
        E 0 80 4d 00
        E 0 80 65 00
        <X 1799 0
          /wFbZW5kX3BnIHNvbmdfdHJhaW5lcl9wZ182XQ==
        >
        E 3840 b0 7b 00
        GUID {44200C63-4B5F-4270-ADDD-424B14DE9C1E}
        IGNTEMPO 0 120.00000000 4 4
        SRCCOLOR 190
        VELLANE 131 128 60
        COLORMAP "C:\Program Files\REAPER (x64)\Data\color_maps\rockband_guitarbass.png"
        CFGEDITVIEW -1463.167638 69.848485 7 12 0 0 0
        CFGEDIT 1 1 0 1 1 0 1 1 1 1 1 0.25000000 -8 -8 1544 872 0 2 1 1 0.00000000 0 1 0 0 0.500000 0 0 1.000000 64
        KEYSNAP 0 6 "102030050700" 0 "Pentatonic"
        EVTFILTER 0 -1 -1 -1 -1 0 1 0 0 -1.00000000 -1.00000000
      >
    >
  >
  <TRACK '{C30EE5D0-A864-4FAC-B70B-4C5EF872FD8C}'
    NAME "PART REAL_GUITAR_22"
    PEAKCOL 16576
    BEAT -1
    AUTOMODE 0
    VOLPAN 1.00000000000000 0.00000000000000 -1.00000000000000 -1.00000000000000 1.00000000000000
    MUTESOLO 0 0 0
    IPHASE 0
    ISBUS 0 0
    BUSCOMP 0 0
    SHOWINMIX 1 0.666700 0.500000 1 0.500000 -1 -1 -1
    FREEMODE 0
    SEL 0
    REC 0 0 0 0 0 0 0
    VU 2
    TRACKHEIGHT 0 0
    INQ 0 0 0 0.5000000000 100 0 0 100
    NCHAN 2
    FX 1
    TRACKID {C30EE5D0-A864-4FAC-B70B-4C5EF872FD8C}
    PERF 0
    MIDIOUT -1
    <MIDINOTENAMES
      0 127 "Trill Marker"
      0 126 "Tremolo Marker"
      0 125 "BRE"
      0 124 "BRE"
      0 123 "BRE"
      0 122 "BRE"
      0 121 "BRE"
      0 120 "BRE (use all 6)"
      0 119 "-----------"
      0 116 "OVERDRIVE"
      0 115 "Solo Marker"
      0 109 "-----------"
      0 108 "Fret Hand Position"
      0 107 "Force Chord Numbering"
      0 106 "Loose Strumming"
      0 105 "Strum Direction"
      0 104 "Arpeggio Marker"
      0 103 "Slide Marker"
      0 102 "Force HOPO"
      0 101 "EXPERT e String"
      0 100 "EXPERT B String"
      0 99 "EXPERT G String"
      0 98 "EXPERT D String"
      0 97 "EXPERT A String"
      0 96 "EXPERT E String"
      0 95 "-----------"
      0 82 "Loose Strumming"
      0 81 "Strum Direction"
      0 80 "Arpeggio Marker"
      0 79 "Slide Marker"
      0 78 "Force HOPO"
      0 77 "HARD e String"
      0 76 "HARD B String"
      0 75 "HARD G String"
      0 74 "HARD D String"
      0 73 "HARD A String"
      0 72 "HARD E String"
      0 71 "-----------"
      0 58 "Loose Strumming"
      0 56 "Arpeggio Marker"
      0 55 "Slide Marker"
      0 53 "MEDIUM e String"
      0 52 "MEDIUM B String"
      0 51 "MEDIUM G String"
      0 50 "MEDIUM D String"
      0 49 "MEDIUM A String"
      0 48 "MEDIUM E String"
      0 47 "-----------"
      0 32 "Arpeggio Marker"
      0 31 "Slide Marker"
      0 29 "EASY e String"
      0 28 "EASY B String"
      0 27 "EASY G String"
      0 26 "EASY D String"
      0 25 "EASY A String"
      0 24 "EASY E String"
      0 21 "-----------"
      0 18 "Flat/Sharp Swap"
      0 17 "Hide Chord Names"
      0 16 "Slash Chord"
      0 15 "D#"
      0 14 "D"
      0 13 "C#"
      0 12 "C"
      0 11 "B"
      0 10 "A#"
      0 9 "A"
      0 8 "G#"
      0 7 "G"
      0 6 "F#"
      0 5 "F"
      0 4 "E"
    >
    MAINSEND 1 0
    <FXCHAIN
      SHOW 0
      LASTSEL 0
      DOCKED 0
    >
    <ITEM
      POSITION 0.00000000000000
      SNAPOFFS 0.00000000000000
      LENGTH 128.91399999999999
      LOOP 0
      ALLTAKES 0
      SEL 0
      FADEIN 1 0.000000 0.000000 1 0
      FADEOUT 1 0.000000 0.000000 1 0
      MUTE 0
      IGUID {1978EB20-52E6-403A-B7A6-72891295DE8F}
      IID 12
      NAME "PART REAL_GUITAR_22"
      VOLPAN 1.000000 0.000000 1.000000 -1.000000
      SOFFS 0.00000000000000 0.00000000000000
      PLAYRATE 1.00000000000000 1 0.00000000000000 -1
      CHANMODE 0
      GUID {CAF9E0D2-4E92-43D5-9D8E-FEF76097D796}
      <SOURCE MIDI
        HASDATA 1 480 QN
        POOLEDEVTS {DFA285BE-E807-4B33-9474-EA5FF84952E3}
        <X 0 0
          /wNQQVJUIFJFQUxfR1VJVEFSXzIy
        >
        E 5760 90 19 67
        E 0 90 31 67
        E 0 90 49 67
        E 0 90 61 67
        E 0 90 6c 65
        E 120 80 19 00
        E 0 80 31 00
        E 0 80 49 00
        E 0 80 6c 00
        E 360 80 61 00
        E 240 90 31 67
        E 0 90 49 67
        E 0 90 61 67
        E 120 80 31 00
        E 0 80 49 00
        E 0 80 61 00
        E 360 90 48 67
        E 0 90 60 67
        E 120 80 48 00
        E 0 80 60 00
        E 120 90 19 65
        E 0 90 31 65
        E 0 90 49 65
        E 0 90 61 65
        E 960 80 19 00
        E 0 80 31 00
        E 0 80 49 00
        E 0 80 61 00
        E 240 90 49 65
        E 0 90 61 65
        E 120 80 49 00
        E 0 80 61 00
        E 120 90 18 65
        E 0 90 30 65
        E 0 90 48 65
        E 0 90 60 65
        E 120 80 18 00
        E 0 80 30 00
        E 0 80 48 00
        E 0 80 60 00
        E 360 90 31 65
        E 0 90 49 65
        E 0 90 61 65
        E 120 80 31 00
        E 0 80 49 00
        E 0 80 61 00
        E 360 90 19 67
        E 0 90 31 67
        E 0 90 49 67
        E 0 90 61 67
        E 120 80 19 00
        E 0 80 31 00
        E 0 80 49 00
        E 360 80 61 00
        E 240 90 31 67
        E 0 90 49 67
        E 0 90 61 67
        E 120 80 31 00
        E 0 80 49 00
        E 0 80 61 00
        E 840 90 18 67
        E 0 90 30 67
        E 0 90 48 67
        E 0 90 60 67
        E 120 80 18 00
        E 0 80 30 00
        E 0 80 48 00
        E 0 80 60 00
        E 360 90 48 67
        E 0 90 60 67
        E 120 80 48 00
        E 0 80 60 00
        E 120 90 31 64
        E 0 90 49 64
        E 0 90 61 64
        E 120 80 31 00
        E 0 80 49 00
        E 0 80 61 00
        E 360 90 19 65
        E 0 90 31 65
        E 0 90 49 65
        E 0 90 61 65
        E 120 80 19 00
        E 0 80 31 00
        E 0 80 49 00
        E 0 80 61 00
        E 600 90 48 67
        E 0 90 60 67
        E 120 80 48 00
        E 0 80 60 00
        E 120 90 19 67
        E 0 90 31 67
        E 0 90 49 67
        E 0 90 61 67
        E 120 80 19 00
        E 0 80 31 00
        E 0 80 49 00
        E 360 80 61 00
        E 240 90 31 67
        E 0 90 49 67
        E 0 90 61 67
        E 120 80 31 00
        E 0 80 49 00
        E 0 80 61 00
        E 360 90 48 67
        E 0 90 60 67
        E 120 80 48 00
        E 0 80 60 00
        E 120 90 19 65
        E 0 90 31 65
        E 0 90 49 65
        E 0 90 61 65
        E 960 80 19 00
        E 0 80 31 00
        E 0 80 49 00
        E 0 80 61 00
        E 240 90 49 65
        E 0 90 61 65
        E 120 80 49 00
        E 0 80 61 00
        E 120 90 18 65
        E 0 90 30 65
        E 0 90 48 65
        E 0 90 60 65
        E 120 80 18 00
        E 0 80 30 00
        E 0 80 48 00
        E 0 80 60 00
        E 360 90 31 65
        E 0 90 49 65
        E 0 90 61 65
        E 120 80 31 00
        E 0 80 49 00
        E 0 80 61 00
        E 360 90 19 67
        E 0 90 31 67
        E 0 90 49 67
        E 0 90 61 67
        E 120 80 19 00
        E 0 80 31 00
        E 0 80 49 00
        E 360 80 61 00
        E 240 90 31 67
        E 0 90 49 67
        E 0 90 61 67
        E 120 80 31 00
        E 0 80 49 00
        E 0 80 61 00
        E 840 90 18 67
        E 0 90 30 67
        E 0 90 48 67
        E 0 90 60 67
        E 0 90 6c 67
        E 120 80 18 00
        E 0 80 30 00
        E 0 80 48 00
        E 0 80 60 00
        E 0 80 6c 00
        E 360 90 62 69
        E 120 80 62 00
        E 120 90 31 64
        E 0 90 49 64
        E 0 90 61 64
        E 120 80 31 00
        E 0 80 49 00
        E 0 80 61 00
        E 120 90 62 69
        E 120 80 62 00
        E 120 90 19 65
        E 0 90 31 65
        E 0 90 49 65
        E 0 90 61 65
        E 0 90 6c 65
        E 120 80 19 00
        E 0 80 31 00
        E 0 80 49 00
        E 0 80 61 00
        E 0 80 6c 00
        E 120 90 62 69
        E 0 90 6c 67
        E 120 80 62 00
        E 0 80 6c 00
        E 360 90 48 67
        E 0 90 60 67
        E 0 90 6c 65
        E 120 80 48 00
        E 0 80 60 00
        E 0 80 6c 00
        E 120 90 19 67
        E 0 90 31 67
        E 0 90 49 67
        E 0 90 61 67
        E 0 90 74 60
        E 120 80 19 00
        E 0 80 31 00
        E 0 80 49 00
        E 360 80 61 00
        E 240 90 31 67
        E 0 90 49 67
        E 0 90 61 67
        E 120 80 31 00
        E 0 80 49 00
        E 0 80 61 00
        E 360 90 48 67
        E 0 90 60 67
        E 120 80 48 00
        E 0 80 60 00
        E 120 90 19 65
        E 0 90 31 65
        E 0 90 49 65
        E 0 90 61 65
        E 960 80 19 00
        E 0 80 31 00
        E 0 80 49 00
        E 0 80 61 00
        E 240 90 49 65
        E 0 90 61 65
        E 120 80 49 00
        E 0 80 61 00
        E 120 90 18 65
        E 0 90 30 65
        E 0 90 48 65
        E 0 90 60 65
        E 120 80 18 00
        E 0 80 30 00
        E 0 80 48 00
        E 0 80 60 00
        E 360 90 31 65
        E 0 90 49 65
        E 0 90 61 65
        E 120 80 31 00
        E 0 80 49 00
        E 0 80 61 00
        E 360 80 74 00
        E 0 90 19 67
        E 0 90 31 67
        E 0 90 49 67
        E 0 90 61 67
        E 120 80 19 00
        E 0 80 31 00
        E 0 80 49 00
        E 360 80 61 00
        E 240 90 31 67
        E 0 90 49 67
        E 0 90 61 67
        E 120 80 31 00
        E 0 80 49 00
        E 0 80 61 00
        E 840 90 18 67
        E 0 90 30 67
        E 0 90 48 67
        E 0 90 60 67
        E 0 90 6c 67
        E 120 80 18 00
        E 0 80 30 00
        E 0 80 48 00
        E 0 80 60 00
        E 0 80 6c 00
        E 360 90 4a 69
        E 0 90 62 69
        E 120 80 4a 00
        E 0 80 62 00
        E 120 90 31 64
        E 0 90 49 64
        E 0 90 61 64
        E 0 90 6c 65
        E 120 80 31 00
        E 0 80 49 00
        E 0 80 61 00
        E 0 80 6c 00
        E 360 90 19 65
        E 0 90 31 65
        E 0 90 49 65
        E 0 90 61 65
        E 120 80 19 00
        E 0 80 31 00
        E 0 80 49 00
        E 0 80 61 00
        E 600 90 48 67
        E 0 90 60 67
        E 120 80 48 00
        E 0 80 60 00
        E 120 90 19 67
        E 0 90 31 67
        E 0 90 49 67
        E 0 90 61 67
        E 120 80 19 00
        E 0 80 31 00
        E 0 80 49 00
        E 360 80 61 00
        E 240 90 31 67
        E 0 90 49 67
        E 0 90 61 67
        E 120 80 31 00
        E 0 80 49 00
        E 0 80 61 00
        E 360 90 48 67
        E 0 90 60 67
        E 120 80 48 00
        E 0 80 60 00
        E 120 90 19 65
        E 0 90 31 65
        E 0 90 49 65
        E 0 90 61 65
        E 960 80 19 00
        E 0 80 31 00
        E 0 80 49 00
        E 0 80 61 00
        E 240 90 49 65
        E 0 90 61 65
        E 120 80 49 00
        E 0 80 61 00
        E 120 90 18 65
        E 0 90 30 65
        E 0 90 48 65
        E 0 90 60 65
        E 120 80 18 00
        E 0 80 30 00
        E 0 80 48 00
        E 0 80 60 00
        E 360 90 31 65
        E 0 90 49 65
        E 0 90 61 65
        E 120 80 31 00
        E 0 80 49 00
        E 0 80 61 00
        E 360 90 19 67
        E 0 90 31 67
        E 0 90 49 67
        E 0 90 61 67
        E 120 80 19 00
        E 0 80 31 00
        E 0 80 49 00
        E 360 80 61 00
        E 240 90 31 67
        E 0 90 49 67
        E 0 90 61 67
        E 120 80 31 00
        E 0 80 49 00
        E 0 80 61 00
        E 840 90 18 67
        E 0 90 30 67
        E 0 90 48 67
        E 0 90 60 67
        E 0 90 6c 67
        E 120 80 18 00
        E 0 80 30 00
        E 0 80 48 00
        E 0 80 60 00
        E 0 80 6c 00
        E 360 90 62 69
        E 120 80 62 00
        E 120 90 31 64
        E 0 90 49 64
        E 0 90 61 64
        E 120 80 31 00
        E 0 80 49 00
        E 0 80 61 00
        E 120 90 62 69
        E 120 80 62 00
        E 120 90 19 65
        E 0 90 31 65
        E 0 90 49 65
        E 0 90 61 65
        E 0 90 6c 65
        E 120 80 19 00
        E 0 80 31 00
        E 0 80 49 00
        E 0 80 61 00
        E 0 80 6c 00
        E 120 90 62 69
        E 0 90 6c 67
        E 120 80 62 00
        E 0 80 6c 00
        E 360 90 48 67
        E 120 80 48 00
        E 120 90 0a 60
        E 0 90 32 6c
        E 0 90 33 6e
        E 0 90 4a 6c
        E 0 90 4b 6e
        E 0 90 4c 6e
        E 0 90 62 6c
        E 0 90 63 6e
        E 0 90 64 6e
        E 0 90 6c 6c
        E 120 80 0a 00
        E 0 80 32 00
        E 0 80 33 00
        E 0 80 4a 00
        E 0 80 4b 00
        E 0 80 4c 00
        E 0 80 6c 00
        E 360 80 62 00
        E 0 80 63 00
        E 0 80 64 00
        E 240 90 07 60
        E 0 90 31 6e
        E 0 90 32 70
        E 0 90 49 6e
        E 0 90 4a 70
        E 0 90 4b 6e
        E 0 90 61 6e
        E 0 90 62 70
        E 0 90 63 6e
        E 0 90 6c 6e
        E 120 80 07 00
        E 0 80 31 00
        E 0 80 32 00
        E 0 80 49 00
        E 0 80 4a 00
        E 0 80 4b 00
        E 0 80 6c 00
        E 360 80 61 00
        E 0 80 62 00
        E 0 80 63 00
        E 240 90 08 60
        E 0 90 31 6f
        E 0 90 32 71
        E 0 90 49 6f
        E 0 90 4a 71
        E 0 90 4b 70
        E 0 90 61 6f
        E 0 90 62 71
        E 0 90 63 70
        E 0 90 6c 6f
        E 120 80 08 00
        E 0 80 6c 00
        E 1920 80 31 00
        E 0 80 32 00
        E 120 80 49 00
        E 0 80 4a 00
        E 0 80 4b 00
        E 0 80 61 00
        E 0 80 62 00
        E 0 80 63 00
        E 240 90 07 60
        E 0 90 19 6e
        E 0 90 31 6e
        E 0 90 32 70
        E 0 90 49 6e
        E 0 90 4a 70
        E 0 90 4b 6e
        E 0 90 61 6e
        E 0 90 62 70
        E 0 90 63 6e
        E 0 90 6c 6e
        E 0 90 74 60
        E 120 80 07 00
        E 0 80 19 00
        E 0 80 31 00
        E 0 80 32 00
        E 0 80 49 00
        E 0 80 4a 00
        E 0 80 4b 00
        E 0 80 6c 00
        E 360 80 61 00
        E 0 80 62 00
        E 0 80 63 00
        E 240 90 31 6a
        E 0 90 32 6c
        E 0 90 49 6a
        E 0 90 4a 6c
        E 0 90 4b 6b
        E 0 90 61 6a
        E 0 90 62 6c
        E 0 90 63 6b
        E 0 90 6c 6a
        E 120 80 31 00
        E 0 80 32 00
        E 0 80 49 00
        E 0 80 4a 00
        E 0 80 4b 00
        E 0 80 6c 00
        E 600 80 61 00
        E 0 80 62 00
        E 0 80 63 00
        E 240 90 05 60
        E 0 90 1a 67
        E 0 90 32 67
        E 0 90 34 65
        E 0 90 4a 67
        E 0 90 4b 64
        E 0 90 4c 65
        E 0 90 62 67
        E 0 90 63 64
        E 0 90 64 65
        E 0 90 6c 65
        E 120 80 05 00
        E 0 80 6c 00
        E 1560 80 1a 00
        E 0 80 62 00
        E 0 80 63 00
        E 0 80 64 00
        E 120 80 32 00
        E 0 80 34 00
        E 120 80 4a 00
        E 0 80 4b 00
        E 0 80 4c 00
        E 240 80 74 00
        E 0 90 0a 60
        E 0 90 32 6c
        E 0 90 33 6e
        E 0 90 4a 6c
        E 0 90 4b 6e
        E 0 90 4c 6e
        E 0 90 62 6c
        E 0 90 63 6e
        E 0 90 64 6e
        E 0 90 6c 6c
        E 120 80 0a 00
        E 0 80 32 00
        E 0 80 33 00
        E 0 80 4a 00
        E 0 80 4b 00
        E 0 80 4c 00
        E 0 80 6c 00
        E 360 80 62 00
        E 0 80 63 00
        E 0 80 64 00
        E 240 90 07 60
        E 0 90 31 6e
        E 0 90 32 70
        E 0 90 49 6e
        E 0 90 4a 70
        E 0 90 4b 6e
        E 0 90 61 6e
        E 0 90 62 70
        E 0 90 63 6e
        E 0 90 6c 6e
        E 120 80 07 00
        E 0 80 31 00
        E 0 80 32 00
        E 0 80 49 00
        E 0 80 4a 00
        E 0 80 4b 00
        E 0 80 6c 00
        E 360 80 61 00
        E 0 80 62 00
        E 0 80 63 00
        E 240 90 08 60
        E 0 90 31 6f
        E 0 90 32 71
        E 0 90 49 6f
        E 0 90 4a 71
        E 0 90 4b 70
        E 0 90 61 6f
        E 0 90 62 71
        E 0 90 63 70
        E 0 90 6c 6f
        E 120 80 08 00
        E 0 80 6c 00
        E 960 80 31 00
        E 0 80 32 00
        E 120 80 49 00
        E 0 80 4a 00
        E 0 80 4b 00
        E 120 80 61 00
        E 0 80 62 00
        E 0 80 63 00
        E 120 90 05 60
        E 0 90 19 6c
        E 0 90 31 6c
        E 0 90 32 6e
        E 0 90 49 6c
        E 0 90 4a 6e
        E 0 90 4b 6c
        E 0 90 61 6c
        E 0 90 62 6e
        E 0 90 63 6c
        E 0 90 6c 6c
        E 120 80 05 00
        E 0 80 19 00
        E 0 80 31 00
        E 0 80 32 00
        E 0 80 49 00
        E 0 80 4a 00
        E 0 80 4b 00
        E 0 80 61 00
        E 0 80 62 00
        E 0 80 63 00
        E 0 80 6c 00
        E 360 90 08 60
        E 0 90 32 6a
        E 0 90 33 6c
        E 0 90 4a 6a
        E 0 90 4b 6c
        E 0 90 4c 6c
        E 0 90 62 6a
        E 0 90 63 6c
        E 0 90 64 6c
        E 0 90 6c 6a
        E 120 80 08 00
        E 0 80 32 00
        E 0 80 33 00
        E 0 80 4a 00
        E 0 80 4b 00
        E 0 80 4c 00
        E 0 80 62 00
        E 0 80 63 00
        E 0 80 64 00
        E 0 80 6c 00
        E 360 90 07 60
        E 0 90 19 6e
        E 0 90 31 6e
        E 0 90 32 70
        E 0 90 49 6e
        E 0 90 4a 70
        E 0 90 4b 6e
        E 0 90 61 6e
        E 0 90 62 70
        E 0 90 63 6e
        E 0 90 6c 6e
        E 120 80 07 00
        E 0 80 19 00
        E 0 80 31 00
        E 0 80 32 00
        E 0 80 49 00
        E 0 80 4a 00
        E 0 80 4b 00
        E 0 80 6c 00
        E 360 80 61 00
        E 0 80 62 00
        E 0 80 63 00
        E 240 90 31 6e
        E 0 90 32 6c
        E 0 90 49 6e
        E 0 90 4a 6c
        E 0 90 4b 6b
        E 0 90 61 6e
        E 0 90 62 6c
        E 0 90 63 6b
        E 0 90 6c 6b
        E 120 80 6c 00
        E 480 80 31 00
        E 0 80 32 00
        E 120 80 49 00
        E 0 80 4a 00
        E 0 80 4b 00
        E 0 80 61 00
        E 0 80 62 00
        E 0 80 63 00
        E 240 90 05 60
        E 0 90 32 6e
        E 0 90 33 6e
        E 0 90 4a 6e
        E 0 90 4b 6e
        E 0 90 4c 6c
        E 0 90 62 6e
        E 0 90 63 6e
        E 0 90 64 6c
        E 0 90 6c 6c
        E 120 80 05 00
        E 0 80 6c 00
        E 1680 80 32 00
        E 0 80 33 00
        E 120 80 4a 00
        E 0 80 4b 00
        E 0 80 4c 00
        E 120 80 62 00
        E 0 80 63 00
        E 0 80 64 00
        E 120 90 0a 60
        E 0 90 32 6c
        E 0 90 33 6e
        E 0 90 4a 6c
        E 0 90 4b 6e
        E 0 90 4c 6e
        E 0 90 62 6c
        E 0 90 63 6e
        E 0 90 64 6e
        E 0 90 6c 6c
        E 120 80 0a 00
        E 0 80 32 00
        E 0 80 33 00
        E 0 80 4a 00
        E 0 80 4b 00
        E 0 80 4c 00
        E 0 80 6c 00
        E 360 80 62 00
        E 0 80 63 00
        E 0 80 64 00
        E 240 90 07 60
        E 0 90 31 6e
        E 0 90 32 70
        E 0 90 49 6e
        E 0 90 4a 70
        E 0 90 4b 6e
        E 0 90 61 6e
        E 0 90 62 70
        E 0 90 63 6e
        E 0 90 6c 6e
        E 120 80 07 00
        E 0 80 31 00
        E 0 80 32 00
        E 0 80 49 00
        E 0 80 4a 00
        E 0 80 4b 00
        E 0 80 6c 00
        E 360 80 61 00
        E 0 80 62 00
        E 0 80 63 00
        E 240 90 08 60
        E 0 90 31 6f
        E 0 90 32 71
        E 0 90 49 6f
        E 0 90 4a 71
        E 0 90 4b 70
        E 0 90 61 6f
        E 0 90 62 71
        E 0 90 63 70
        E 0 90 6c 6f
        E 120 80 08 00
        E 0 80 6c 00
        E 1920 80 31 00
        E 0 80 32 00
        E 120 80 49 00
        E 0 80 4a 00
        E 0 80 4b 00
        E 0 80 61 00
        E 0 80 62 00
        E 0 80 63 00
        E 240 90 07 60
        E 0 90 19 6e
        E 0 90 31 6e
        E 0 90 32 70
        E 0 90 49 6e
        E 0 90 4a 70
        E 0 90 4b 6e
        E 0 90 61 6e
        E 0 90 62 70
        E 0 90 63 6e
        E 0 90 6c 6e
        E 120 80 07 00
        E 0 80 19 00
        E 0 80 31 00
        E 0 80 32 00
        E 0 80 49 00
        E 0 80 4a 00
        E 0 80 4b 00
        E 0 80 6c 00
        E 360 80 61 00
        E 0 80 62 00
        E 0 80 63 00
        E 240 90 31 6a
        E 0 90 32 6c
        E 0 90 49 6a
        E 0 90 4a 6c
        E 0 90 4b 6b
        E 0 90 61 6a
        E 0 90 62 6c
        E 0 90 63 6b
        E 0 90 6c 6a
        E 120 80 31 00
        E 0 80 32 00
        E 0 80 49 00
        E 0 80 4a 00
        E 0 80 4b 00
        E 0 80 6c 00
        E 600 80 61 00
        E 0 80 62 00
        E 0 80 63 00
        E 240 90 05 60
        E 0 90 1a 67
        E 0 90 32 67
        E 0 90 34 65
        E 0 90 4a 67
        E 0 90 4b 64
        E 0 90 4c 65
        E 0 90 62 67
        E 0 90 63 64
        E 0 90 64 65
        E 0 90 6c 65
        E 120 80 05 00
        E 0 80 6c 00
        E 1560 80 1a 00
        E 0 80 62 00
        E 0 80 63 00
        E 0 80 64 00
        E 120 80 32 00
        E 0 80 34 00
        E 120 80 4a 00
        E 0 80 4b 00
        E 0 80 4c 00
        E 240 90 0a 60
        E 0 90 32 6c
        E 0 90 33 6e
        E 0 90 4a 6c
        E 0 90 4b 6e
        E 0 90 4c 6e
        E 0 90 62 6c
        E 0 90 63 6e
        E 0 90 64 6e
        E 0 90 6c 6c
        E 120 80 0a 00
        E 0 80 32 00
        E 0 80 33 00
        E 0 80 4a 00
        E 0 80 4b 00
        E 0 80 4c 00
        E 0 80 6c 00
        E 360 80 62 00
        E 0 80 63 00
        E 0 80 64 00
        E 240 90 07 60
        E 0 90 31 6e
        E 0 90 32 70
        E 0 90 49 6e
        E 0 90 4a 70
        E 0 90 4b 6e
        E 0 90 61 6e
        E 0 90 62 70
        E 0 90 63 6e
        E 0 90 6c 6e
        E 120 80 07 00
        E 0 80 31 00
        E 0 80 32 00
        E 0 80 49 00
        E 0 80 4a 00
        E 0 80 4b 00
        E 0 80 6c 00
        E 360 80 61 00
        E 0 80 62 00
        E 0 80 63 00
        E 240 90 08 60
        E 0 90 31 6f
        E 0 90 32 71
        E 0 90 49 6f
        E 0 90 4a 71
        E 0 90 4b 70
        E 0 90 61 6f
        E 0 90 62 71
        E 0 90 63 70
        E 0 90 6c 6f
        E 120 80 08 00
        E 0 80 6c 00
        E 960 80 31 00
        E 0 80 32 00
        E 120 80 49 00
        E 0 80 4a 00
        E 0 80 4b 00
        E 120 80 61 00
        E 0 80 62 00
        E 0 80 63 00
        E 120 90 05 60
        E 0 90 19 6c
        E 0 90 31 6c
        E 0 90 32 6e
        E 0 90 49 6c
        E 0 90 4a 6e
        E 0 90 4b 6c
        E 0 90 61 6c
        E 0 90 62 6e
        E 0 90 63 6c
        E 0 90 6c 6c
        E 120 80 05 00
        E 0 80 19 00
        E 0 80 31 00
        E 0 80 32 00
        E 0 80 49 00
        E 0 80 4a 00
        E 0 80 4b 00
        E 0 80 61 00
        E 0 80 62 00
        E 0 80 63 00
        E 0 80 6c 00
        E 359 90 08 60
        E 0 90 32 6a
        E 0 90 33 6c
        E 0 90 4a 6a
        E 0 90 4b 6c
        E 0 90 4c 6c
        E 0 90 6c 6a
        E 1 90 62 6a
        E 0 90 63 6c
        E 0 90 64 6c
        E 119 80 08 00
        E 0 80 32 00
        E 0 80 33 00
        E 0 80 4a 00
        E 0 80 4b 00
        E 0 80 4c 00
        E 0 80 6c 00
        E 1 80 62 00
        E 0 80 63 00
        E 0 80 64 00
        E 360 90 07 60
        E 0 90 19 6e
        E 0 90 31 6e
        E 0 90 32 70
        E 0 90 49 6e
        E 0 90 4a 70
        E 0 90 4b 6e
        E 0 90 61 6e
        E 0 90 62 70
        E 0 90 63 6e
        E 0 90 6c 6e
        E 120 80 07 00
        E 0 80 19 00
        E 0 80 31 00
        E 0 80 32 00
        E 0 80 49 00
        E 0 80 4a 00
        E 0 80 4b 00
        E 0 80 6c 00
        E 360 80 61 00
        E 0 80 62 00
        E 0 80 63 00
        E 239 90 6c 6b
        E 1 90 31 6e
        E 0 90 32 6c
        E 0 90 49 6e
        E 0 90 4a 6c
        E 0 90 4b 6b
        E 0 90 61 6e
        E 0 90 62 6c
        E 0 90 63 6b
        E 119 80 6c 00
        E 481 80 31 00
        E 0 80 32 00
        E 120 80 49 00
        E 0 80 4a 00
        E 0 80 4b 00
        E 0 80 61 00
        E 0 80 62 00
        E 0 80 63 00
        E 240 90 05 60
        E 0 90 32 6e
        E 0 90 33 6e
        E 0 90 4a 6e
        E 0 90 4b 6e
        E 0 90 4c 6c
        E 0 90 62 6e
        E 0 90 63 6e
        E 0 90 64 6c
        E 0 90 6c 6c
        E 120 80 05 00
        E 0 80 6c 00
        E 1680 80 32 00
        E 0 80 33 00
        E 120 80 4a 00
        E 0 80 4b 00
        E 0 80 4c 00
        E 120 80 62 00
        E 0 80 63 00
        E 0 80 64 00
        E 120 90 0a 60
        E 0 90 1a 6c
        E 0 90 32 6c
        E 0 90 33 6e
        E 0 90 4a 6c
        E 0 90 4b 6e
        E 0 90 4c 6e
        E 0 90 62 6c
        E 0 90 63 6e
        E 0 90 64 6e
        E 0 90 6c 6c
        E 0 90 74 60
        E 120 80 0a 00
        E 0 80 1a 00
        E 0 80 32 00
        E 0 80 33 00
        E 0 80 4a 00
        E 0 80 4b 00
        E 0 80 4c 00
        E 0 80 6c 00
        E 360 80 62 00
        E 0 80 63 00
        E 0 80 64 00
        E 240 90 07 60
        E 0 90 31 6e
        E 0 90 32 70
        E 0 90 49 6e
        E 0 90 4a 70
        E 0 90 4b 6e
        E 0 90 61 6e
        E 0 90 62 70
        E 0 90 63 6e
        E 0 90 6c 6e
        E 120 80 07 00
        E 0 80 31 00
        E 0 80 32 00
        E 0 80 49 00
        E 0 80 4a 00
        E 0 80 4b 00
        E 0 80 6c 00
        E 360 80 61 00
        E 0 80 62 00
        E 0 80 63 00
        E 240 90 08 60
        E 0 90 31 6f
        E 0 90 32 71
        E 0 90 49 6f
        E 0 90 4a 71
        E 0 90 4b 70
        E 0 90 61 6f
        E 0 90 62 71
        E 0 90 63 70
        E 0 90 6c 6f
        E 120 80 08 00
        E 0 80 6c 00
        E 1920 80 31 00
        E 0 80 32 00
        E 120 80 49 00
        E 0 80 4a 00
        E 0 80 4b 00
        E 0 80 61 00
        E 0 80 62 00
        E 0 80 63 00
        E 240 80 74 00
        E 0 90 07 60
        E 0 90 19 6e
        E 0 90 31 6e
        E 0 90 32 70
        E 0 90 49 6e
        E 0 90 4a 70
        E 0 90 4b 6e
        E 0 90 61 6e
        E 0 90 62 70
        E 0 90 63 6e
        E 0 90 6c 6e
        E 120 80 07 00
        E 0 80 19 00
        E 0 80 31 00
        E 0 80 32 00
        E 0 80 49 00
        E 0 80 4a 00
        E 0 80 4b 00
        E 0 80 6c 00
        E 360 80 61 00
        E 0 80 62 00
        E 0 80 63 00
        E 240 90 31 6a
        E 0 90 32 6c
        E 0 90 49 6a
        E 0 90 4a 6c
        E 0 90 4b 6b
        E 0 90 61 6a
        E 0 90 62 6c
        E 0 90 63 6b
        E 0 90 6c 6a
        E 120 80 31 00
        E 0 80 32 00
        E 0 80 49 00
        E 0 80 4a 00
        E 0 80 4b 00
        E 0 80 6c 00
        E 600 80 61 00
        E 0 80 62 00
        E 0 80 63 00
        E 240 90 05 60
        E 0 90 1a 67
        E 0 90 32 67
        E 0 90 34 65
        E 0 90 4a 67
        E 0 90 4b 64
        E 0 90 4c 65
        E 0 90 62 67
        E 0 90 63 64
        E 0 90 64 65
        E 0 90 6c 65
        E 120 80 05 00
        E 0 80 6c 00
        E 1560 80 1a 00
        E 0 80 62 00
        E 0 80 63 00
        E 0 80 64 00
        E 120 80 32 00
        E 0 80 34 00
        E 120 80 4a 00
        E 0 80 4b 00
        E 0 80 4c 00
        E 240 90 0a 60
        E 0 90 32 6c
        E 0 90 33 6e
        E 0 90 4a 6c
        E 0 90 4b 6e
        E 0 90 4c 6e
        E 0 90 62 6c
        E 0 90 63 6e
        E 0 90 64 6e
        E 0 90 6c 6c
        E 120 80 0a 00
        E 0 80 32 00
        E 0 80 33 00
        E 0 80 4a 00
        E 0 80 4b 00
        E 0 80 4c 00
        E 0 80 6c 00
        E 360 80 62 00
        E 0 80 63 00
        E 0 80 64 00
        E 240 90 07 60
        E 0 90 31 6e
        E 0 90 32 70
        E 0 90 49 6e
        E 0 90 4a 70
        E 0 90 4b 6e
        E 0 90 61 6e
        E 0 90 62 70
        E 0 90 63 6e
        E 0 90 6c 6e
        E 120 80 07 00
        E 0 80 31 00
        E 0 80 32 00
        E 0 80 49 00
        E 0 80 4a 00
        E 0 80 4b 00
        E 0 80 6c 00
        E 360 80 61 00
        E 0 80 62 00
        E 0 80 63 00
        E 240 90 08 60
        E 0 90 31 6f
        E 0 90 32 71
        E 0 90 49 6f
        E 0 90 4a 71
        E 0 90 4b 70
        E 0 90 61 6f
        E 0 90 62 71
        E 0 90 63 70
        E 0 90 6c 6f
        E 120 80 08 00
        E 0 80 6c 00
        E 960 80 31 00
        E 0 80 32 00
        E 120 80 49 00
        E 0 80 4a 00
        E 0 80 4b 00
        E 120 80 61 00
        E 0 80 62 00
        E 0 80 63 00
        E 120 90 05 60
        E 0 90 19 6c
        E 0 90 31 6c
        E 0 90 32 6e
        E 0 90 49 6c
        E 0 90 4a 6e
        E 0 90 4b 6c
        E 0 90 61 6c
        E 0 90 62 6e
        E 0 90 63 6c
        E 0 90 6c 6c
        E 120 80 05 00
        E 0 80 19 00
        E 0 80 31 00
        E 0 80 32 00
        E 0 80 49 00
        E 0 80 4a 00
        E 0 80 4b 00
        E 0 80 61 00
        E 0 80 62 00
        E 0 80 63 00
        E 0 80 6c 00
        E 359 90 08 60
        E 0 90 32 6a
        E 0 90 33 6c
        E 0 90 4a 6a
        E 0 90 4b 6c
        E 0 90 4c 6c
        E 0 90 6c 6a
        E 1 90 62 6a
        E 0 90 63 6c
        E 0 90 64 6c
        E 119 80 08 00
        E 0 80 32 00
        E 0 80 33 00
        E 0 80 4a 00
        E 0 80 4b 00
        E 0 80 4c 00
        E 0 80 6c 00
        E 1 80 62 00
        E 0 80 63 00
        E 0 80 64 00
        E 360 90 07 60
        E 0 90 19 6e
        E 0 90 31 6e
        E 0 90 32 70
        E 0 90 49 6e
        E 0 90 4a 70
        E 0 90 4b 6e
        E 0 90 61 6e
        E 0 90 62 70
        E 0 90 63 6e
        E 0 90 6c 6e
        E 120 80 07 00
        E 0 80 19 00
        E 0 80 31 00
        E 0 80 32 00
        E 0 80 49 00
        E 0 80 4a 00
        E 0 80 4b 00
        E 0 80 6c 00
        E 360 80 61 00
        E 0 80 62 00
        E 0 80 63 00
        E 239 90 6c 6b
        E 1 90 31 6e
        E 0 90 32 6c
        E 0 90 49 6e
        E 0 90 4a 6c
        E 0 90 4b 6b
        E 0 90 61 6e
        E 0 90 62 6c
        E 0 90 63 6b
        E 119 80 6c 00
        E 481 80 31 00
        E 0 80 32 00
        E 120 80 49 00
        E 0 80 4a 00
        E 0 80 4b 00
        E 0 80 61 00
        E 0 80 62 00
        E 0 80 63 00
        E 240 90 05 60
        E 0 90 1a 6e
        E 0 90 32 6e
        E 0 90 33 6e
        E 0 90 4a 6e
        E 0 90 4b 6e
        E 0 90 4c 6c
        E 0 90 62 6e
        E 0 90 63 6e
        E 0 90 64 6c
        E 0 90 6c 6c
        E 120 80 05 00
        E 0 80 6c 00
        E 2040 80 1a 00
        E 0 80 32 00
        E 0 80 33 00
        E 0 80 4a 00
        E 0 80 4b 00
        E 0 80 4c 00
        E 0 80 62 00
        E 0 80 63 00
        E 0 80 64 00
        E 0 90 74 60
        E 1200 90 4b 64
        E 0 90 63 64
        E 0 90 6c 65
        E 120 80 4b 00
        E 0 80 63 00
        E 0 80 6c 00
        E 120 90 1b 65
        E 0 90 33 65
        E 0 90 4b 65
        E 0 90 63 65
        E 120 80 1b 00
        E 0 80 33 00
        E 0 80 4b 00
        E 0 80 63 00
        E 120 90 4c 68
        E 0 90 64 68
        E 120 80 4c 00
        E 0 80 64 00
        E 360 90 4b 64
        E 0 90 63 64
        E 120 80 4b 00
        E 0 80 63 00
        E 120 90 4b 65
        E 0 90 63 65
        E 120 80 4b 00
        E 0 80 63 00
        E 120 90 1c 67
        E 0 90 34 67
        E 0 90 4c 67
        E 0 90 64 67
        E 720 80 74 00
        E 2160 80 1c 00
        E 0 80 34 00
        E 240 80 4c 00
        E 0 80 64 00
        E 2880 90 35 6a
        E 0 90 4d 6a
        E 0 90 65 6a
        E 0 90 6c 67
        E 120 80 35 00
        E 0 80 4d 00
        E 0 80 65 00
        E 0 80 6c 00
        E 360 90 4d 67
        E 0 90 65 67
        E 120 80 4d 00
        E 0 80 65 00
        E 120 90 1b 69
        E 0 90 33 69
        E 0 90 4b 69
        E 0 90 63 69
        E 3600 80 1b 00
        E 240 80 33 00
        E 240 80 4b 00
        E 0 80 63 00
        E 3120 90 4c 6c
        E 0 90 64 6c
        E 0 90 6c 6c
        E 120 80 4c 00
        E 0 80 64 00
        E 0 80 6c 00
        E 120 90 1c 6d
        E 0 90 34 6d
        E 0 90 4c 6d
        E 0 90 64 6d
        E 120 80 1c 00
        E 0 80 34 00
        E 0 80 4c 00
        E 0 80 64 00
        E 120 90 4d 6f
        E 0 90 65 6f
        E 120 80 4d 00
        E 0 80 65 00
        E 360 90 4c 6c
        E 0 90 64 6c
        E 120 80 4c 00
        E 0 80 64 00
        E 120 90 4c 6d
        E 1 90 64 6d
        E 119 80 4c 00
        E 0 90 1d 6e
        E 0 90 35 6e
        E 1 80 64 00
        E 119 90 4d 6e
        E 0 90 65 6e
        E 2640 80 65 00
        E 240 80 1d 00
        E 0 80 35 00
        E 240 80 4d 00
        E 0 90 74 60
        E 2880 90 11 60
        E 0 90 34 78
        E 0 90 35 76
        E 0 90 4c 78
        E 0 90 4d 76
        E 0 90 64 78
        E 0 90 65 76
        E 0 90 6b 60
        E 0 90 6c 76
        E 120 80 34 00
        E 0 80 35 00
        E 0 80 4c 00
        E 0 80 4d 00
        E 0 80 64 00
        E 0 80 65 00
        E 0 80 6c 00
        E 360 90 4c 74
        E 0 90 4d 73
        E 0 90 64 74
        E 0 90 65 73
        E 0 90 6c 73
        E 120 80 4c 00
        E 0 80 4d 00
        E 0 80 64 00
        E 0 80 65 00
        E 0 80 6c 00
        E 120 90 1b 70
        E 0 90 33 70
        E 0 90 34 71
        E 0 90 4b 70
        E 0 90 4c 71
        E 0 90 63 70
        E 0 90 64 71
        E 0 90 6c 70
        E 120 80 6c 00
        E 120 80 74 00
        E 0 80 6b 00
        E 3360 80 1b 00
        E 0 80 33 00
        E 0 80 34 00
        E 0 80 4b 00
        E 0 80 4c 00
        E 0 80 63 00
        E 0 80 64 00
        E 480 80 11 00
        E 1920 90 0a 60
        E 0 90 32 6c
        E 0 90 33 6e
        E 0 90 4a 6c
        E 0 90 4b 6e
        E 0 90 4c 6e
        E 0 90 62 6c
        E 0 90 63 6e
        E 0 90 64 6e
        E 0 90 6c 6c
        E 120 80 0a 00
        E 0 80 32 00
        E 0 80 33 00
        E 0 80 4a 00
        E 0 80 4b 00
        E 0 80 4c 00
        E 0 80 6c 00
        E 480 80 62 00
        E 0 80 63 00
        E 0 80 64 00
        E 120 90 07 60
        E 0 90 31 6e
        E 0 90 32 70
        E 0 90 49 6e
        E 0 90 4a 70
        E 0 90 4b 6e
        E 0 90 61 6e
        E 0 90 62 70
        E 0 90 63 6e
        E 0 90 6c 6e
        E 120 80 07 00
        E 0 80 31 00
        E 0 80 32 00
        E 0 80 49 00
        E 0 80 4a 00
        E 0 80 4b 00
        E 0 80 6c 00
        E 480 80 61 00
        E 0 80 62 00
        E 0 80 63 00
        E 120 90 08 60
        E 0 90 31 6f
        E 0 90 32 71
        E 0 90 49 6f
        E 0 90 4a 71
        E 0 90 4b 70
        E 0 90 61 6f
        E 0 90 62 71
        E 0 90 63 70
        E 0 90 6c 6f
        E 120 80 08 00
        E 0 80 6c 00
        E 1920 80 31 00
        E 0 80 32 00
        E 120 80 49 00
        E 0 80 4a 00
        E 0 80 4b 00
        E 0 80 61 00
        E 0 80 62 00
        E 0 80 63 00
        E 240 90 07 60
        E 0 90 19 6e
        E 0 90 31 6e
        E 0 90 32 70
        E 0 90 49 6e
        E 0 90 4a 70
        E 0 90 4b 6e
        E 0 90 61 6e
        E 0 90 62 70
        E 0 90 63 6e
        E 0 90 6c 6e
        E 120 80 07 00
        E 0 80 19 00
        E 0 80 31 00
        E 0 80 32 00
        E 0 80 49 00
        E 0 80 4a 00
        E 0 80 4b 00
        E 0 80 6c 00
        E 480 80 61 00
        E 0 80 62 00
        E 0 80 63 00
        E 120 90 31 6a
        E 0 90 32 6c
        E 0 90 49 6a
        E 0 90 4a 6c
        E 0 90 4b 6b
        E 0 90 61 6a
        E 0 90 62 6c
        E 0 90 63 6b
        E 0 90 6c 6a
        E 120 80 6c 00
        E 480 80 31 00
        E 0 80 32 00
        E 120 80 49 00
        E 0 80 4a 00
        E 0 80 4b 00
        E 120 80 61 00
        E 0 80 62 00
        E 0 80 63 00
        E 120 90 05 60
        E 0 90 1a 67
        E 0 90 32 67
        E 0 90 34 65
        E 0 90 4a 67
        E 0 90 4b 64
        E 0 90 4c 65
        E 0 90 62 67
        E 0 90 63 64
        E 0 90 64 65
        E 0 90 6c 65
        E 120 80 05 00
        E 0 80 1a 00
        E 0 80 32 00
        E 0 80 34 00
        E 0 80 4a 00
        E 0 80 4b 00
        E 0 80 4c 00
        E 0 80 62 00
        E 0 80 63 00
        E 0 80 64 00
        E 0 80 6c 00
        E 2040 90 0a 60
        E 0 90 32 6c
        E 0 90 33 6e
        E 0 90 4a 6c
        E 0 90 4b 6e
        E 0 90 4c 6e
        E 0 90 62 6c
        E 0 90 63 6e
        E 0 90 64 6e
        E 0 90 6c 6c
        E 120 80 0a 00
        E 0 80 32 00
        E 0 80 33 00
        E 0 80 4a 00
        E 0 80 4b 00
        E 0 80 4c 00
        E 0 80 6c 00
        E 480 80 62 00
        E 0 80 63 00
        E 0 80 64 00
        E 120 90 07 60
        E 0 90 31 6e
        E 0 90 32 70
        E 0 90 49 6e
        E 0 90 4a 70
        E 0 90 4b 6e
        E 0 90 61 6e
        E 0 90 62 70
        E 0 90 63 6e
        E 0 90 6c 6e
        E 120 80 07 00
        E 0 80 31 00
        E 0 80 32 00
        E 0 80 49 00
        E 0 80 4a 00
        E 0 80 4b 00
        E 0 80 6c 00
        E 480 80 61 00
        E 0 80 62 00
        E 0 80 63 00
        E 120 90 08 60
        E 0 90 31 6f
        E 0 90 32 71
        E 0 90 49 6f
        E 0 90 4a 71
        E 0 90 4b 70
        E 0 90 61 6f
        E 0 90 62 71
        E 0 90 63 70
        E 0 90 6c 6f
        E 120 80 08 00
        E 0 80 6c 00
        E 960 80 31 00
        E 0 80 32 00
        E 120 80 49 00
        E 0 80 4a 00
        E 0 80 4b 00
        E 120 80 61 00
        E 0 80 62 00
        E 0 80 63 00
        E 120 90 05 60
        E 0 90 19 6c
        E 0 90 31 6c
        E 0 90 32 6e
        E 0 90 49 6c
        E 0 90 4a 6e
        E 0 90 4b 6c
        E 0 90 61 6c
        E 0 90 62 6e
        E 0 90 63 6c
        E 0 90 6c 6c
        E 120 80 05 00
        E 0 80 19 00
        E 0 80 31 00
        E 0 80 32 00
        E 0 80 49 00
        E 0 80 4a 00
        E 0 80 4b 00
        E 0 80 61 00
        E 0 80 62 00
        E 0 80 63 00
        E 0 80 6c 00
        E 359 90 08 60
        E 0 90 32 6a
        E 0 90 33 6c
        E 0 90 4a 6a
        E 0 90 4b 6c
        E 0 90 4c 6c
        E 1 90 62 6a
        E 0 90 63 6c
        E 0 90 64 6c
        E 0 90 6c 6a
        E 119 80 08 00
        E 0 80 32 00
        E 0 80 33 00
        E 0 80 4a 00
        E 0 80 4b 00
        E 0 80 4c 00
        E 1 80 62 00
        E 0 80 63 00
        E 0 80 64 00
        E 0 80 6c 00
        E 360 90 07 60
        E 0 90 19 6e
        E 0 90 31 6e
        E 0 90 32 70
        E 0 90 49 6e
        E 0 90 4a 70
        E 0 90 4b 6e
        E 0 90 61 6e
        E 0 90 62 70
        E 0 90 63 6e
        E 0 90 6c 6e
        E 120 80 07 00
        E 0 80 19 00
        E 0 80 31 00
        E 0 80 32 00
        E 0 80 49 00
        E 0 80 4a 00
        E 0 80 4b 00
        E 0 80 6c 00
        E 480 80 61 00
        E 0 80 62 00
        E 0 80 63 00
        E 120 90 31 6e
        E 0 90 32 6c
        E 0 90 49 6e
        E 0 90 4a 6c
        E 0 90 4b 6b
        E 0 90 61 6e
        E 0 90 62 6c
        E 0 90 63 6b
        E 0 90 6c 6b
        E 120 80 6c 00
        E 480 80 31 00
        E 0 80 32 00
        E 120 80 49 00
        E 0 80 4a 00
        E 0 80 4b 00
        E 120 80 61 00
        E 0 80 62 00
        E 0 80 63 00
        E 120 90 05 60
        E 0 90 32 6e
        E 0 90 33 6e
        E 0 90 4a 6e
        E 0 90 4b 6e
        E 0 90 4c 6c
        E 0 90 62 6e
        E 0 90 63 6e
        E 0 90 64 6c
        E 0 90 6c 6c
        E 120 80 05 00
        E 0 80 6c 00
        E 1680 80 32 00
        E 0 80 33 00
        E 120 80 4a 00
        E 0 80 4b 00
        E 0 80 4c 00
        E 120 80 62 00
        E 0 80 63 00
        E 0 80 64 00
        E 120 90 0a 60
        E 0 90 1a 6c
        E 0 90 32 6c
        E 0 90 33 6e
        E 0 90 4a 6c
        E 0 90 4b 6e
        E 0 90 4c 6e
        E 0 90 62 6c
        E 0 90 63 6e
        E 0 90 64 6e
        E 0 90 6c 6c
        E 0 90 74 60
        E 120 80 0a 00
        E 0 80 1a 00
        E 0 80 32 00
        E 0 80 33 00
        E 0 80 4a 00
        E 0 80 4b 00
        E 0 80 4c 00
        E 0 80 6c 00
        E 480 80 62 00
        E 0 80 63 00
        E 0 80 64 00
        E 120 90 07 60
        E 0 90 31 6e
        E 0 90 32 70
        E 0 90 49 6e
        E 0 90 4a 70
        E 0 90 4b 6e
        E 0 90 61 6e
        E 0 90 62 70
        E 0 90 63 6e
        E 0 90 6c 6e
        E 120 80 07 00
        E 0 80 31 00
        E 0 80 32 00
        E 0 80 49 00
        E 0 80 4a 00
        E 0 80 4b 00
        E 0 80 6c 00
        E 480 80 61 00
        E 0 80 62 00
        E 0 80 63 00
        E 120 90 08 60
        E 0 90 31 6f
        E 0 90 32 71
        E 0 90 49 6f
        E 0 90 4a 71
        E 0 90 4b 70
        E 0 90 61 6f
        E 0 90 62 71
        E 0 90 63 70
        E 0 90 6c 6f
        E 120 80 08 00
        E 0 80 6c 00
        E 360 80 74 00
        E 1560 80 31 00
        E 0 80 32 00
        E 120 80 49 00
        E 0 80 4a 00
        E 0 80 4b 00
        E 0 80 61 00
        E 0 80 62 00
        E 0 80 63 00
        E 240 90 07 60
        E 0 90 19 6e
        E 0 90 31 6e
        E 0 90 32 70
        E 0 90 49 6e
        E 0 90 4a 70
        E 0 90 4b 6e
        E 0 90 61 6e
        E 0 90 62 70
        E 0 90 63 6e
        E 0 90 6c 6e
        E 120 80 07 00
        E 0 80 19 00
        E 0 80 31 00
        E 0 80 32 00
        E 0 80 49 00
        E 0 80 4a 00
        E 0 80 4b 00
        E 0 80 6c 00
        E 480 80 61 00
        E 0 80 62 00
        E 0 80 63 00
        E 120 90 31 6a
        E 0 90 32 6c
        E 0 90 49 6a
        E 0 90 4a 6c
        E 0 90 4b 6b
        E 0 90 61 6a
        E 0 90 62 6c
        E 0 90 63 6b
        E 0 90 6c 6a
        E 120 80 31 00
        E 0 80 32 00
        E 0 80 49 00
        E 0 80 4a 00
        E 0 80 4b 00
        E 0 80 6c 00
        E 600 90 19 6a
        E 0 90 31 6a
        E 0 90 32 6c
        E 0 90 49 6a
        E 0 90 4a 6c
        E 0 90 4b 6b
        E 120 80 61 00
        E 0 80 62 00
        E 0 80 63 00
        E 120 90 05 60
        E 0 90 62 67
        E 0 90 63 64
        E 0 90 64 65
        E 0 90 6c 65
        E 120 80 05 00
        E 0 80 6c 00
        E 1560 80 19 00
        E 0 80 62 00
        E 0 80 63 00
        E 0 80 64 00
        E 120 80 31 00
        E 0 80 32 00
        E 120 80 49 00
        E 0 80 4a 00
        E 0 80 4b 00
        E 240 90 0a 60
        E 0 90 32 6c
        E 0 90 33 6e
        E 0 90 4a 6c
        E 0 90 4b 6e
        E 0 90 4c 6e
        E 0 90 62 6c
        E 0 90 63 6e
        E 0 90 64 6e
        E 0 90 6c 6c
        E 120 80 0a 00
        E 0 80 32 00
        E 0 80 33 00
        E 0 80 4a 00
        E 0 80 4b 00
        E 0 80 4c 00
        E 0 80 6c 00
        E 480 80 62 00
        E 0 80 63 00
        E 0 80 64 00
        E 120 90 07 60
        E 0 90 31 6e
        E 0 90 32 70
        E 0 90 49 6e
        E 0 90 4a 70
        E 0 90 4b 6e
        E 0 90 61 6e
        E 0 90 62 70
        E 0 90 63 6e
        E 0 90 6c 6e
        E 120 80 07 00
        E 0 80 31 00
        E 0 80 32 00
        E 0 80 49 00
        E 0 80 4a 00
        E 0 80 4b 00
        E 0 80 6c 00
        E 480 80 61 00
        E 0 80 62 00
        E 0 80 63 00
        E 120 90 08 60
        E 0 90 31 6f
        E 0 90 32 71
        E 0 90 49 6f
        E 0 90 4a 71
        E 0 90 4b 70
        E 0 90 61 6f
        E 0 90 62 71
        E 0 90 63 70
        E 0 90 6c 6f
        E 120 80 08 00
        E 0 80 6c 00
        E 960 80 31 00
        E 0 80 32 00
        E 120 80 49 00
        E 0 80 4a 00
        E 0 80 4b 00
        E 120 80 61 00
        E 0 80 62 00
        E 0 80 63 00
        E 120 90 05 60
        E 0 90 19 6c
        E 0 90 31 6c
        E 0 90 32 6e
        E 0 90 49 6c
        E 0 90 4a 6e
        E 0 90 4b 6c
        E 0 90 61 6c
        E 0 90 62 6e
        E 0 90 63 6c
        E 0 90 6c 6c
        E 120 80 05 00
        E 0 80 19 00
        E 0 80 31 00
        E 0 80 32 00
        E 0 80 49 00
        E 0 80 4a 00
        E 0 80 4b 00
        E 0 80 61 00
        E 0 80 62 00
        E 0 80 63 00
        E 0 80 6c 00
        E 359 90 08 60
        E 0 90 32 6a
        E 0 90 33 6c
        E 0 90 4a 6a
        E 0 90 4b 6c
        E 0 90 4c 6c
        E 1 90 62 6a
        E 0 90 63 6c
        E 0 90 64 6c
        E 0 90 6c 6a
        E 119 80 08 00
        E 0 80 32 00
        E 0 80 33 00
        E 0 80 4a 00
        E 0 80 4b 00
        E 0 80 4c 00
        E 1 80 62 00
        E 0 80 63 00
        E 0 80 64 00
        E 0 80 6c 00
        E 360 90 07 60
        E 0 90 19 6e
        E 0 90 31 6e
        E 0 90 32 70
        E 0 90 49 6e
        E 0 90 4a 70
        E 0 90 4b 6e
        E 0 90 61 6e
        E 0 90 62 70
        E 0 90 63 6e
        E 0 90 6c 6e
        E 120 80 07 00
        E 0 80 19 00
        E 0 80 31 00
        E 0 80 32 00
        E 0 80 49 00
        E 0 80 4a 00
        E 0 80 4b 00
        E 0 80 6c 00
        E 480 80 61 00
        E 0 80 62 00
        E 0 80 63 00
        E 120 90 31 6e
        E 0 90 32 6c
        E 0 90 49 6e
        E 0 90 4a 6c
        E 0 90 4b 6b
        E 0 90 61 6e
        E 0 90 62 6c
        E 0 90 63 6b
        E 0 90 6c 6b
        E 120 80 6c 00
        E 480 80 31 00
        E 0 80 32 00
        E 120 80 49 00
        E 0 80 4a 00
        E 0 80 4b 00
        E 120 80 61 00
        E 0 80 62 00
        E 0 80 63 00
        E 120 90 05 60
        E 0 90 32 6e
        E 0 90 33 6e
        E 0 90 4a 6e
        E 0 90 4b 6e
        E 0 90 4c 6c
        E 0 90 62 6e
        E 0 90 63 6e
        E 0 90 64 6c
        E 0 90 6c 6c
        E 120 80 05 00
        E 0 80 6c 00
        E 1680 80 32 00
        E 0 80 33 00
        E 120 80 4a 00
        E 0 80 4b 00
        E 0 80 4c 00
        E 0 80 62 00
        E 0 80 63 00
        E 0 80 64 00
        E 240 90 19 67
        E 0 90 31 67
        E 0 90 49 67
        E 0 90 61 67
        E 0 90 6c 65
        E 120 80 19 00
        E 0 80 31 00
        E 0 80 49 00
        E 0 80 61 00
        E 0 80 6c 00
        E 120 90 61 67
        E 120 80 61 00
        E 360 90 49 67
        E 0 90 61 67
        E 120 80 49 00
        E 0 80 61 00
        E 120 90 18 67
        E 0 90 30 67
        E 0 90 48 67
        E 0 90 60 67
        E 120 80 18 00
        E 0 80 30 00
        E 0 80 48 00
        E 0 80 60 00
        E 360 90 31 65
        E 0 90 49 65
        E 0 90 61 65
        E 120 80 31 00
        E 0 80 49 00
        E 360 80 61 00
        E 3840 90 18 67
        E 0 90 30 67
        E 0 90 48 67
        E 0 90 60 67
        E 120 80 18 00
        E 0 80 30 00
        E 0 80 48 00
        E 360 80 60 00
        E 240 90 31 65
        E 0 90 49 65
        E 0 90 61 65
        E 120 80 31 00
        E 0 80 49 00
        E 360 80 61 00
        E 240 90 4a 65
        E 0 90 62 65
        E 120 80 4a 00
        E 0 80 62 00
        E 360 90 19 67
        E 0 90 31 67
        E 0 90 49 67
        E 0 90 61 67
        E 0 90 74 60
        E 120 80 19 00
        E 0 80 31 00
        E 0 80 49 00
        E 0 80 61 00
        E 120 90 61 67
        E 120 80 61 00
        E 360 90 49 67
        E 0 90 61 67
        E 120 80 49 00
        E 0 80 61 00
        E 120 90 18 67
        E 0 90 30 67
        E 0 90 48 67
        E 0 90 60 67
        E 120 80 18 00
        E 0 80 30 00
        E 0 80 48 00
        E 0 80 60 00
        E 360 90 18 66
        E 0 90 30 66
        E 0 90 48 66
        E 0 90 60 66
        E 120 80 18 00
        E 0 80 30 00
        E 0 80 48 00
        E 360 80 74 00
        E 0 80 60 00
        E 4320 90 18 67
        E 0 90 30 67
        E 0 90 48 67
        E 0 90 60 67
        E 120 80 18 00
        E 0 80 30 00
        E 0 80 48 00
        E 360 80 60 00
        E 240 90 31 65
        E 0 90 49 65
        E 0 90 61 65
        E 120 80 31 00
        E 0 80 49 00
        E 360 80 61 00
        E 240 90 1b 69
        E 0 90 33 69
        E 0 90 4b 69
        E 0 90 63 69
        E 0 90 6c 67
        E 120 80 1b 00
        E 0 80 33 00
        E 0 80 4b 00
        E 0 80 63 00
        E 0 80 6c 00
        E 120 90 63 69
        E 120 80 63 00
        E 360 90 4b 69
        E 0 90 63 69
        E 120 80 4b 00
        E 0 80 63 00
        E 120 90 1a 69
        E 0 90 32 69
        E 0 90 4a 69
        E 0 90 62 69
        E 120 80 1a 00
        E 0 80 32 00
        E 0 80 4a 00
        E 0 80 62 00
        E 360 90 33 67
        E 0 90 4b 67
        E 0 90 63 67
        E 120 80 33 00
        E 0 80 4b 00
        E 360 80 63 00
        E 5280 90 32 69
        E 0 90 4a 69
        E 0 90 62 69
        E 120 80 32 00
        E 0 80 4a 00
        E 0 80 62 00
        E 120 90 4b 67
        E 0 90 63 67
        E 120 80 4b 00
        E 0 80 63 00
        E 120 90 1b 69
        E 0 90 33 69
        E 0 90 4b 69
        E 0 90 63 69
        E 120 80 1b 00
        E 0 80 33 00
        E 0 80 4b 00
        E 0 80 63 00
        E 120 90 63 69
        E 120 80 63 00
        E 360 90 4b 69
        E 0 90 63 69
        E 120 80 4b 00
        E 0 80 63 00
        E 120 90 1a 69
        E 0 90 32 69
        E 0 90 4a 69
        E 0 90 62 69
        E 120 80 1a 00
        E 0 80 32 00
        E 0 80 4a 00
        E 0 80 62 00
        E 360 90 33 67
        E 0 90 4b 67
        E 0 90 63 67
        E 120 80 33 00
        E 0 80 4b 00
        E 360 80 63 00
        E 240 90 33 67
        E 0 90 4b 67
        E 0 90 63 67
        E 120 80 33 00
        E 0 80 4b 00
        E 0 80 63 00
        E 360 90 4b 67
        E 0 90 63 67
        E 120 80 4b 00
        E 0 80 63 00
        E 120 90 1a 67
        E 0 90 32 67
        E 0 90 4a 67
        E 0 90 62 67
        E 120 80 1a 00
        E 0 80 32 00
        E 0 80 4a 00
        E 0 80 62 00
        E 360 90 1a 68
        E 0 90 32 68
        E 0 90 4a 68
        E 0 90 62 68
        E 120 80 1a 00
        E 0 80 32 00
        E 0 80 4a 00
        E 360 80 62 00
        E 240 90 32 68
        E 0 90 4a 68
        E 0 90 62 68
        E 120 80 32 00
        E 0 80 4a 00
        E 0 80 62 00
        E 360 90 4a 68
        E 0 90 62 68
        E 120 80 4a 00
        E 0 80 62 00
        E 120 90 1b 67
        E 0 90 33 67
        E 0 90 4b 67
        E 0 90 63 67
        E 120 80 1b 00
        E 0 80 33 00
        E 0 80 4b 00
        E 0 80 63 00
        E 360 90 4b 67
        E 0 90 63 67
        E 120 80 4b 00
        E 0 80 63 00
        E 120 90 34 68
        E 0 90 4c 68
        E 0 90 64 68
        E 0 90 6c 68
        E 120 80 34 00
        E 0 80 4c 00
        E 0 80 64 00
        E 0 80 6c 00
        E 360 90 4c 68
        E 0 90 64 68
        E 120 80 4c 00
        E 0 80 64 00
        E 120 90 1d 68
        E 0 90 35 68
        E 0 90 4d 68
        E 0 90 65 68
        E 120 80 1d 00
        E 0 80 35 00
        E 0 80 4d 00
        E 0 80 65 00
        E 360 90 4d 68
        E 0 90 65 68
        E 120 80 4d 00
        E 0 80 65 00
        E 120 90 4d 6d
        E 0 90 65 6d
        E 0 90 6c 6c
        E 120 80 4d 00
        E 0 80 65 00
        E 0 80 6c 00
        E 359 90 4d 6d
        E 0 90 65 6d
        E 120 80 4d 00
        E 0 80 65 00
        E 121 90 35 6c
        E 0 90 4d 6c
        E 0 90 65 6c
        E 120 80 35 00
        E 0 80 4d 00
        E 0 80 65 00
        E 5639 b0 7b 00
        GUID {C7D10EAD-91A0-46A4-9D51-100E877CFB28}
        IGNTEMPO 0 120.00000000 4 4
        SRCCOLOR 191
        VELLANE 131 128 60
        COLORMAP "C:\Program Files\REAPER (x64)\Data\color_maps\rockband_guitarbass.png"
        CFGEDITVIEW -1463.167638 69.848485 7 12 0 0 0
        CFGEDIT 1 1 0 1 1 0 1 1 1 1 1 0.25000000 -8 -8 1544 872 0 2 1 1 0.00000000 0 1 0 0 0.500000 0 0 1.000000 64
        KEYSNAP 0 6 "102030050700" 0 "Pentatonic"
        EVTFILTER 0 -1 -1 -1 -1 0 1 0 0 -1.00000000 -1.00000000
      >
    >
  >
  <TRACK '{3BC911C7-AF67-4DEE-9858-55233EA50DF3}'
    NAME "EVENTS"
    PEAKCOL 16576
    BEAT -1
    AUTOMODE 0
    VOLPAN 1.00000000000000 0.00000000000000 -1.00000000000000 -1.00000000000000 1.00000000000000
    MUTESOLO 0 0 0
    IPHASE 0
    ISBUS 0 0
    BUSCOMP 0 0
    SHOWINMIX 1 0.666700 0.500000 1 0.500000 -1 -1 -1
    FREEMODE 0
    SEL 0
    REC 0 0 0 0 0 0 0
    VU 2
    TRACKHEIGHT 0 0
    INQ 0 0 0 0.5000000000 100 0 0 100
    NCHAN 2
    FX 1
    TRACKID {3BC911C7-AF67-4DEE-9858-55233EA50DF3}
    PERF 0
    MIDIOUT -1
    <MIDINOTENAMES
      0 26 "Hi-Hat"
      0 25 "Snare"
      0 24 "Kick"
    >
    MAINSEND 1 0
    <FXCHAIN
      SHOW 0
      LASTSEL 0
      DOCKED 0
    >
    <ITEM
      POSITION 0.00000000000000
      SNAPOFFS 0.00000000000000
      LENGTH 128.91399999999999
      LOOP 0
      ALLTAKES 0
      SEL 0
      FADEIN 1 0.000000 0.000000 1 0
      FADEOUT 1 0.000000 0.000000 1 0
      MUTE 0
      IGUID {CA8B17A1-A741-4037-8B40-45A6B954E9F2}
      IID 13
      NAME "EVENTS"
      VOLPAN 1.000000 0.000000 1.000000 -1.000000
      SOFFS 0.00000000000000 0.00000000000000
      PLAYRATE 1.00000000000000 1 0.00000000000000 -1
      CHANMODE 0
      GUID {34D7A3D1-4640-4CA8-B12B-AA77493B07FC}
      <SOURCE MIDI
        HASDATA 1 480 QN
        POOLEDEVTS {A1FB2A19-1F5D-48FA-B6EF-FADE2E63D529}
        <X 0 0
          /wNFVkVOVFM=
        >
        <X 5760 0
          /wFbY3Jvd2Rfbm9ybWFsXQ==
        >
        <X 0 0
          /wFbbXVzaWNfc3RhcnRd
        >
        <X 0 0
          /wFbcHJjX2ludHJvXQ==
        >
        <X 0 0
          /wFbY3Jvd2Rfbm9jbGFwXQ==
        >
        E 0 90 18 60
        E 0 90 1a 60
        E 58 80 18 00
        E 0 80 1a 00
        E 182 90 1a 60
        E 58 80 1a 00
        E 182 90 1a 60
        E 58 80 1a 00
        E 182 90 18 60
        E 0 90 1a 60
        E 58 80 18 00
        E 0 80 1a 00
        E 182 90 19 60
        E 0 90 1a 60
        E 58 80 19 00
        E 0 80 1a 00
        E 182 90 1a 60
        E 58 80 1a 00
        E 182 90 18 60
        E 0 90 1a 60
        E 58 80 18 00
        E 0 80 1a 00
        E 182 90 1a 60
        E 58 80 1a 00
        E 182 90 1a 60
        E 58 80 1a 00
        E 182 90 1a 60
        E 58 80 1a 00
        E 182 90 1a 60
        E 58 80 1a 00
        E 182 90 1a 60
        E 58 80 1a 00
        E 182 90 19 60
        E 0 90 1a 60
        E 58 80 19 00
        E 0 80 1a 00
        E 182 90 1a 60
        E 58 80 1a 00
        E 182 90 18 60
        E 0 90 1a 60
        E 58 80 18 00
        E 0 80 1a 00
        E 182 90 1a 60
        E 58 80 1a 00
        E 182 90 18 60
        E 0 90 1a 60
        E 58 80 18 00
        E 0 80 1a 00
        E 182 90 1a 60
        E 58 80 1a 00
        E 182 90 1a 60
        E 58 80 1a 00
        E 182 90 18 60
        E 0 90 1a 60
        E 58 80 18 00
        E 0 80 1a 00
        E 182 90 19 60
        E 0 90 1a 60
        E 58 80 19 00
        E 0 80 1a 00
        E 182 90 1a 60
        E 58 80 1a 00
        E 182 90 1a 60
        E 58 80 1a 00
        E 182 90 18 60
        E 0 90 1a 60
        E 58 80 18 00
        E 0 80 1a 00
        E 182 90 1a 60
        E 58 80 1a 00
        E 182 90 1a 60
        E 58 80 1a 00
        E 182 90 18 60
        E 0 90 1a 60
        E 58 80 18 00
        E 0 80 1a 00
        E 182 90 1a 60
        E 58 80 1a 00
        E 182 90 19 60
        E 0 90 1a 60
        E 58 80 19 00
        E 0 80 1a 00
        E 422 90 1a 60
        E 58 80 1a 00
        E 182 90 18 60
        E 0 90 1a 60
        E 58 80 18 00
        E 0 80 1a 00
        E 182 90 18 60
        E 0 90 1a 60
        E 58 80 18 00
        E 0 80 1a 00
        E 182 90 1a 60
        E 58 80 1a 00
        E 182 90 1a 60
        E 58 80 1a 00
        E 182 90 18 60
        E 0 90 1a 60
        E 58 80 18 00
        E 0 80 1a 00
        E 182 90 19 60
        E 0 90 1a 60
        E 58 80 19 00
        E 0 80 1a 00
        E 182 90 1a 60
        E 58 80 1a 00
        E 182 90 18 60
        E 0 90 1a 60
        E 58 80 18 00
        E 0 80 1a 00
        E 182 90 1a 60
        E 58 80 1a 00
        E 182 90 1a 60
        E 58 80 1a 00
        E 182 90 1a 60
        E 58 80 1a 00
        E 182 90 1a 60
        E 58 80 1a 00
        E 182 90 1a 60
        E 58 80 1a 00
        E 182 90 19 60
        E 0 90 1a 60
        E 58 80 19 00
        E 0 80 1a 00
        E 182 90 1a 60
        E 58 80 1a 00
        E 182 90 18 60
        E 0 90 1a 60
        E 58 80 18 00
        E 0 80 1a 00
        E 182 90 1a 60
        E 58 80 1a 00
        E 182 90 18 60
        E 0 90 1a 60
        E 58 80 18 00
        E 0 80 1a 00
        E 182 90 1a 60
        E 58 80 1a 00
        E 182 90 1a 60
        E 58 80 1a 00
        E 182 90 18 60
        E 0 90 1a 60
        E 58 80 18 00
        E 0 80 1a 00
        E 182 90 19 60
        E 0 90 1a 60
        E 58 80 19 00
        E 0 80 1a 00
        E 422 90 1a 60
        E 58 80 1a 00
        E 182 90 18 60
        E 0 90 1a 60
        E 58 80 18 00
        E 0 80 1a 00
        E 182 90 1a 60
        E 58 80 1a 00
        E 182 90 1a 60
        E 58 80 1a 00
        E 182 90 18 60
        E 0 90 1a 60
        E 58 80 18 00
        E 0 80 1a 00
        E 182 90 1a 60
        E 58 80 1a 00
        E 182 90 19 60
        E 0 90 1a 60
        E 58 80 19 00
        E 0 80 1a 00
        E 182 90 1a 60
        E 58 80 1a 00
        E 182 90 18 60
        E 58 80 18 00
        E 182 90 1a 60
        E 58 80 1a 00
        <X 182 0
          /wFbcHJjX2tleWJfZW50ZXJzXQ==
        >
        <X 0 0
          /wFbY3Jvd2RfY2xhcF0=
        >
        E 0 90 18 60
        E 0 90 1a 60
        E 58 80 18 00
        E 0 80 1a 00
        E 182 90 1a 60
        E 58 80 1a 00
        E 182 90 1a 60
        E 58 80 1a 00
        E 182 90 18 60
        E 0 90 1a 60
        E 58 80 18 00
        E 0 80 1a 00
        E 182 90 19 60
        E 0 90 1a 60
        E 58 80 19 00
        E 0 80 1a 00
        E 182 90 1a 60
        E 58 80 1a 00
        E 182 90 18 60
        E 0 90 1a 60
        E 58 80 18 00
        E 0 80 1a 00
        E 182 90 1a 60
        E 58 80 1a 00
        E 182 90 1a 60
        E 58 80 1a 00
        E 182 90 1a 60
        E 58 80 1a 00
        E 182 90 1a 60
        E 58 80 1a 00
        E 182 90 1a 60
        E 58 80 1a 00
        E 182 90 19 60
        E 0 90 1a 60
        E 58 80 19 00
        E 0 80 1a 00
        E 182 90 1a 60
        E 58 80 1a 00
        E 182 90 18 60
        E 0 90 1a 60
        E 58 80 18 00
        E 0 80 1a 00
        E 182 90 1a 60
        E 58 80 1a 00
        E 182 90 18 60
        E 0 90 1a 60
        E 58 80 18 00
        E 0 80 1a 00
        E 182 90 1a 60
        E 58 80 1a 00
        E 182 90 1a 60
        E 58 80 1a 00
        E 182 90 18 60
        E 0 90 1a 60
        E 58 80 18 00
        E 0 80 1a 00
        E 182 90 19 60
        E 0 90 1a 60
        E 58 80 19 00
        E 0 80 1a 00
        E 182 90 1a 60
        E 58 80 1a 00
        E 182 90 1a 60
        E 58 80 1a 00
        E 182 90 18 60
        E 0 90 1a 60
        E 58 80 18 00
        E 0 80 1a 00
        E 182 90 1a 60
        E 58 80 1a 00
        E 182 90 1a 60
        E 58 80 1a 00
        E 182 90 18 60
        E 0 90 1a 60
        E 58 80 18 00
        E 0 80 1a 00
        E 182 90 1a 60
        E 58 80 1a 00
        E 182 90 19 60
        E 0 90 1a 60
        E 58 80 19 00
        E 0 80 1a 00
        E 422 90 1a 60
        E 58 80 1a 00
        E 182 90 18 60
        E 0 90 1a 60
        E 58 80 18 00
        E 0 80 1a 00
        E 182 90 18 60
        E 0 90 1a 60
        E 58 80 18 00
        E 0 80 1a 00
        E 182 90 1a 60
        E 58 80 1a 00
        E 182 90 1a 60
        E 58 80 1a 00
        E 182 90 18 60
        E 0 90 1a 60
        E 58 80 18 00
        E 0 80 1a 00
        E 182 90 19 60
        E 0 90 1a 60
        E 58 80 19 00
        E 0 80 1a 00
        E 182 90 1a 60
        E 58 80 1a 00
        E 182 90 18 60
        E 0 90 1a 60
        E 58 80 18 00
        E 0 80 1a 00
        E 182 90 1a 60
        E 58 80 1a 00
        E 182 90 1a 60
        E 58 80 1a 00
        E 182 90 1a 60
        E 58 80 1a 00
        E 182 90 1a 60
        E 58 80 1a 00
        E 182 90 1a 60
        E 58 80 1a 00
        E 182 90 19 60
        E 0 90 1a 60
        E 58 80 19 00
        E 0 80 1a 00
        E 182 90 1a 60
        E 58 80 1a 00
        E 182 90 18 60
        E 0 90 1a 60
        E 58 80 18 00
        E 0 80 1a 00
        E 182 90 1a 60
        E 58 80 1a 00
        E 182 90 18 60
        E 0 90 1a 60
        E 58 80 18 00
        E 0 80 1a 00
        E 182 90 1a 60
        E 58 80 1a 00
        E 182 90 1a 60
        E 58 80 1a 00
        E 182 90 18 60
        E 0 90 1a 60
        E 58 80 18 00
        E 0 80 1a 00
        E 182 90 19 60
        E 0 90 1a 60
        E 58 80 19 00
        E 0 80 1a 00
        E 422 90 1a 60
        E 58 80 1a 00
        E 182 90 18 60
        E 0 90 1a 60
        E 58 80 18 00
        E 0 80 1a 00
        E 182 90 1a 60
        E 58 80 1a 00
        E 182 90 18 60
        E 0 90 1a 60
        E 58 80 18 00
        E 0 80 1a 00
        E 182 90 18 60
        E 0 90 1a 60
        E 58 80 18 00
        E 0 80 1a 00
        E 182 90 1a 60
        E 58 80 1a 00
        E 182 90 19 60
        E 0 90 1a 60
        E 58 80 19 00
        E 0 80 1a 00
        E 422 90 19 60
        E 58 80 19 00
        E 182 90 1a 60
        E 58 80 1a 00
        <X 182 0
          /wFbcHJjX3ByZXZlcnNlX2Fd
        >
        E 0 90 18 60
        E 58 80 18 00
        E 182 90 1a 60
        E 58 80 1a 00
        E 182 90 1a 60
        E 58 80 1a 00
        E 182 90 18 60
        E 0 90 1a 60
        E 58 80 18 00
        E 0 80 1a 00
        E 182 90 19 60
        E 0 90 1a 60
        E 58 80 19 00
        E 0 80 1a 00
        E 182 90 1a 60
        E 58 80 1a 00
        E 182 90 18 60
        E 0 90 1a 60
        E 58 80 18 00
        E 0 80 1a 00
        E 182 90 1a 60
        E 58 80 1a 00
        E 182 90 1a 60
        E 58 80 1a 00
        E 182 90 1a 60
        E 58 80 1a 00
        E 182 90 1a 60
        E 58 80 1a 00
        E 182 90 1a 60
        E 58 80 1a 00
        E 182 90 19 60
        E 0 90 1a 60
        E 58 80 19 00
        E 0 80 1a 00
        E 182 90 1a 60
        E 58 80 1a 00
        E 182 90 18 60
        E 0 90 1a 60
        E 58 80 18 00
        E 0 80 1a 00
        E 182 90 1a 60
        E 58 80 1a 00
        E 182 90 18 60
        E 0 90 1a 60
        E 58 80 18 00
        E 0 80 1a 00
        E 182 90 1a 60
        E 58 80 1a 00
        E 182 90 1a 60
        E 58 80 1a 00
        E 182 90 18 60
        E 0 90 1a 60
        E 58 80 18 00
        E 0 80 1a 00
        E 182 90 19 60
        E 0 90 1a 60
        E 58 80 19 00
        E 0 80 1a 00
        E 182 90 1a 60
        E 58 80 1a 00
        E 182 90 1a 60
        E 58 80 1a 00
        E 182 90 18 60
        E 0 90 1a 60
        E 58 80 18 00
        E 0 80 1a 00
        E 182 90 1a 60
        E 58 80 1a 00
        E 182 90 1a 60
        E 58 80 1a 00
        E 182 90 18 60
        E 0 90 1a 60
        E 58 80 18 00
        E 0 80 1a 00
        E 182 90 1a 60
        E 58 80 1a 00
        E 182 90 19 60
        E 0 90 1a 60
        E 58 80 19 00
        E 0 80 1a 00
        E 422 90 1a 60
        E 58 80 1a 00
        E 182 90 18 60
        E 0 90 1a 60
        E 58 80 18 00
        E 0 80 1a 00
        E 182 90 18 60
        E 0 90 1a 60
        E 58 80 18 00
        E 0 80 1a 00
        E 182 90 1a 60
        E 58 80 1a 00
        E 182 90 1a 60
        E 58 80 1a 00
        E 182 90 18 60
        E 0 90 1a 60
        E 58 80 18 00
        E 0 80 1a 00
        E 182 90 19 60
        E 0 90 1a 60
        E 58 80 19 00
        E 0 80 1a 00
        E 182 90 1a 60
        E 58 80 1a 00
        E 182 90 18 60
        E 0 90 1a 60
        E 58 80 18 00
        E 0 80 1a 00
        E 182 90 1a 60
        E 58 80 1a 00
        E 182 90 1a 60
        E 58 80 1a 00
        E 182 90 1a 60
        E 58 80 1a 00
        E 182 90 1a 60
        E 58 80 1a 00
        E 182 90 1a 60
        E 58 80 1a 00
        E 182 90 19 60
        E 0 90 1a 60
        E 58 80 19 00
        E 0 80 1a 00
        E 182 90 1a 60
        E 58 80 1a 00
        E 182 90 18 60
        E 0 90 1a 60
        E 58 80 18 00
        E 0 80 1a 00
        E 182 90 1a 60
        E 58 80 1a 00
        E 182 90 18 60
        E 0 90 1a 60
        E 58 80 18 00
        E 0 80 1a 00
        E 182 90 1a 60
        E 58 80 1a 00
        E 182 90 1a 60
        E 58 80 1a 00
        E 182 90 18 60
        E 0 90 1a 60
        E 58 80 18 00
        E 0 80 1a 00
        E 182 90 19 60
        E 0 90 1a 60
        E 58 80 19 00
        E 0 80 1a 00
        E 422 90 1a 60
        E 58 80 1a 00
        E 182 90 18 60
        E 0 90 1a 60
        E 58 80 18 00
        E 0 80 1a 00
        E 182 90 1a 60
        E 58 80 1a 00
        E 182 90 18 60
        E 58 80 18 00
        E 182 90 18 60
        E 0 90 1a 60
        E 58 80 18 00
        E 0 80 1a 00
        E 182 90 1a 60
        E 58 80 1a 00
        E 182 90 19 60
        E 0 90 1a 60
        E 58 80 19 00
        E 0 80 1a 00
        E 182 90 1a 60
        E 58 80 1a 00
        E 182 90 1a 60
        E 58 80 1a 00
        E 182 90 1a 60
        E 58 80 1a 00
        <X 182 0
          /wFbcHJjX3ByZXZlcnNlX2Jd
        >
        E 0 90 18 60
        E 0 90 1a 60
        E 58 80 18 00
        E 0 80 1a 00
        E 182 90 1a 60
        E 58 80 1a 00
        E 182 90 1a 60
        E 58 80 1a 00
        E 182 90 18 60
        E 0 90 1a 60
        E 58 80 18 00
        E 0 80 1a 00
        E 182 90 19 60
        E 0 90 1a 60
        E 58 80 19 00
        E 0 80 1a 00
        E 182 90 1a 60
        E 58 80 1a 00
        E 182 90 18 60
        E 0 90 1a 60
        E 58 80 18 00
        E 0 80 1a 00
        E 182 90 1a 60
        E 58 80 1a 00
        E 182 90 1a 60
        E 58 80 1a 00
        E 182 90 1a 60
        E 58 80 1a 00
        E 182 90 18 60
        E 0 90 1a 60
        E 58 80 18 00
        E 0 80 1a 00
        E 182 90 1a 60
        E 58 80 1a 00
        E 182 90 19 60
        E 0 90 1a 60
        E 58 80 19 00
        E 0 80 1a 00
        E 182 90 1a 60
        E 58 80 1a 00
        E 182 90 18 60
        E 0 90 1a 60
        E 58 80 18 00
        E 0 80 1a 00
        E 182 90 1a 60
        E 58 80 1a 00
        E 182 90 18 60
        E 0 90 1a 60
        E 58 80 18 00
        E 0 80 1a 00
        E 182 90 1a 60
        E 58 80 1a 00
        E 182 90 1a 60
        E 58 80 1a 00
        E 182 90 18 60
        E 0 90 1a 60
        E 58 80 18 00
        E 0 80 1a 00
        E 182 90 19 60
        E 0 90 1a 60
        E 58 80 19 00
        E 0 80 1a 00
        E 182 90 1a 60
        E 58 80 1a 00
        E 182 90 1a 60
        E 58 80 1a 00
        E 182 90 18 60
        E 0 90 1a 60
        E 58 80 18 00
        E 0 80 1a 00
        E 182 90 1a 60
        E 58 80 1a 00
        E 182 90 1a 60
        E 58 80 1a 00
        E 182 90 18 60
        E 0 90 1a 60
        E 58 80 18 00
        E 0 80 1a 00
        E 182 90 1a 60
        E 58 80 1a 00
        E 182 90 19 60
        E 0 90 1a 60
        E 58 80 19 00
        E 0 80 1a 00
        E 182 90 18 60
        E 58 80 18 00
        E 182 90 1a 60
        E 58 80 1a 00
        E 182 90 18 60
        E 0 90 1a 60
        E 58 80 18 00
        E 0 80 1a 00
        E 182 90 18 60
        E 0 90 1a 60
        E 58 80 18 00
        E 0 80 1a 00
        E 182 90 1a 60
        E 58 80 1a 00
        E 182 90 1a 60
        E 58 80 1a 00
        E 182 90 18 60
        E 0 90 1a 60
        E 58 80 18 00
        E 0 80 1a 00
        E 182 90 19 60
        E 0 90 1a 60
        E 58 80 19 00
        E 0 80 1a 00
        E 182 90 1a 60
        E 58 80 1a 00
        E 182 90 18 60
        E 0 90 1a 60
        E 58 80 18 00
        E 0 80 1a 00
        E 182 90 1a 60
        E 58 80 1a 00
        E 182 90 1a 60
        E 58 80 1a 00
        E 182 90 1a 60
        E 58 80 1a 00
        E 182 90 18 60
        E 0 90 1a 60
        E 58 80 18 00
        E 0 80 1a 00
        E 182 90 1a 60
        E 58 80 1a 00
        E 182 90 19 60
        E 0 90 1a 60
        E 58 80 19 00
        E 0 80 1a 00
        E 182 90 1a 60
        E 58 80 1a 00
        E 182 90 18 60
        E 0 90 1a 60
        E 58 80 18 00
        E 0 80 1a 00
        E 182 90 1a 60
        E 58 80 1a 00
        E 182 90 18 60
        E 0 90 1a 60
        E 58 80 18 00
        E 0 80 1a 00
        E 182 90 1a 60
        E 58 80 1a 00
        E 182 90 1a 60
        E 58 80 1a 00
        E 182 90 18 60
        E 0 90 1a 60
        E 58 80 18 00
        E 0 80 1a 00
        E 182 90 19 60
        E 0 90 1a 60
        E 58 80 19 00
        E 0 80 1a 00
        E 422 90 1a 60
        E 58 80 1a 00
        E 182 90 18 60
        E 0 90 1a 60
        E 58 80 18 00
        E 0 80 1a 00
        E 182 90 1a 60
        E 58 80 1a 00
        E 422 90 18 60
        E 0 90 1a 60
        E 58 80 18 00
        E 0 80 1a 00
        E 182 90 1a 60
        E 58 80 1a 00
        E 182 90 19 60
        E 0 90 1a 60
        E 58 80 19 00
        E 0 80 1a 00
        E 182 90 18 60
        E 0 90 1a 60
        E 58 80 18 00
        E 0 80 1a 00
        E 182 90 1a 60
        E 58 80 1a 00
        E 182 90 18 60
        E 0 90 1a 60
        E 58 80 18 00
        E 0 80 1a 00
        <X 182 0
          /wFbcHJjX3ByZXZlcnNlX2Nd
        >
        E 0 90 18 60
        E 0 90 1a 60
        E 58 80 18 00
        E 0 80 1a 00
        E 182 90 1a 60
        E 58 80 1a 00
        E 182 90 1a 60
        E 58 80 1a 00
        E 182 90 18 60
        E 0 90 1a 60
        E 58 80 18 00
        E 0 80 1a 00
        E 182 90 19 60
        E 0 90 1a 60
        E 58 80 19 00
        E 0 80 1a 00
        E 182 90 1a 60
        E 58 80 1a 00
        E 182 90 18 60
        E 0 90 1a 60
        E 58 80 18 00
        E 0 80 1a 00
        E 182 90 1a 60
        E 58 80 1a 00
        E 182 90 1a 60
        E 58 80 1a 00
        E 182 90 1a 60
        E 58 80 1a 00
        E 182 90 18 60
        E 0 90 1a 60
        E 58 80 18 00
        E 0 80 1a 00
        E 182 90 1a 60
        E 58 80 1a 00
        E 182 90 19 60
        E 0 90 1a 60
        E 58 80 19 00
        E 0 80 1a 00
        E 182 90 1a 60
        E 58 80 1a 00
        E 182 90 18 60
        E 0 90 1a 60
        E 58 80 18 00
        E 0 80 1a 00
        E 182 90 1a 60
        E 58 80 1a 00
        E 182 90 18 60
        E 0 90 1a 60
        E 58 80 18 00
        E 0 80 1a 00
        E 182 90 1a 60
        E 58 80 1a 00
        E 182 90 1a 60
        E 58 80 1a 00
        E 182 90 18 60
        E 0 90 1a 60
        E 58 80 18 00
        E 0 80 1a 00
        E 182 90 19 60
        E 0 90 1a 60
        E 58 80 19 00
        E 0 80 1a 00
        E 182 90 1a 60
        E 58 80 1a 00
        E 182 90 1a 60
        E 58 80 1a 00
        E 182 90 18 60
        E 0 90 1a 60
        E 58 80 18 00
        E 0 80 1a 00
        E 182 90 1a 60
        E 58 80 1a 00
        E 182 90 1a 60
        E 58 80 1a 00
        E 182 90 18 60
        E 0 90 1a 60
        E 58 80 18 00
        E 0 80 1a 00
        E 182 90 1a 60
        E 58 80 1a 00
        E 182 90 19 60
        E 0 90 1a 60
        E 58 80 19 00
        E 0 80 1a 00
        E 182 90 18 60
        E 58 80 18 00
        E 182 90 1a 60
        E 58 80 1a 00
        E 182 90 18 60
        E 0 90 1a 60
        E 58 80 18 00
        E 0 80 1a 00
        E 182 90 18 60
        E 0 90 1a 60
        E 58 80 18 00
        E 0 80 1a 00
        E 182 90 1a 60
        E 58 80 1a 00
        E 182 90 1a 60
        E 58 80 1a 00
        E 182 90 18 60
        E 0 90 1a 60
        E 58 80 18 00
        E 0 80 1a 00
        E 182 90 19 60
        E 0 90 1a 60
        E 58 80 19 00
        E 0 80 1a 00
        E 182 90 1a 60
        E 58 80 1a 00
        E 182 90 18 60
        E 0 90 1a 60
        E 58 80 18 00
        E 0 80 1a 00
        E 182 90 1a 60
        E 58 80 1a 00
        E 182 90 1a 60
        E 58 80 1a 00
        E 182 90 1a 60
        E 58 80 1a 00
        E 182 90 18 60
        E 0 90 1a 60
        E 58 80 18 00
        E 0 80 1a 00
        E 182 90 1a 60
        E 58 80 1a 00
        E 182 90 19 60
        E 0 90 1a 60
        E 58 80 19 00
        E 0 80 1a 00
        E 182 90 1a 60
        E 58 80 1a 00
        E 182 90 18 60
        E 0 90 1a 60
        E 58 80 18 00
        E 0 80 1a 00
        E 182 90 1a 60
        E 58 80 1a 00
        E 182 90 18 60
        E 0 90 1a 60
        E 58 80 18 00
        E 0 80 1a 00
        E 182 90 1a 60
        E 58 80 1a 00
        E 182 90 1a 60
        E 58 80 1a 00
        E 182 90 18 60
        E 0 90 1a 60
        E 58 80 18 00
        E 0 80 1a 00
        E 182 90 19 60
        E 0 90 1a 60
        E 58 80 19 00
        E 0 80 1a 00
        E 422 90 1a 60
        E 58 80 1a 00
        E 182 90 18 60
        E 0 90 1a 60
        E 58 80 18 00
        E 0 80 1a 00
        E 182 90 1a 60
        E 58 80 1a 00
        E 422 90 18 60
        E 0 90 1a 60
        E 58 80 18 00
        E 0 80 1a 00
        E 182 90 1a 60
        E 58 80 1a 00
        E 182 90 1a 60
        E 58 80 1a 00
        E 182 90 18 60
        E 58 80 18 00
        E 422 90 18 60
        E 0 90 1a 60
        E 58 80 18 00
        E 0 80 1a 00
        <X 182 0
          /wFbcHJjX3ZlcnNlX2Fd
        >
        <X 0 0
          /wFbY3Jvd2RfbWVsbG93XQ==
        >
        E 0 90 18 60
        E 0 90 1a 60
        E 58 80 18 00
        E 0 80 1a 00
        E 182 90 1a 60
        E 58 80 1a 00
        E 182 90 1a 60
        E 58 80 1a 00
        E 182 90 18 60
        E 0 90 1a 60
        E 58 80 18 00
        E 0 80 1a 00
        E 182 90 19 60
        E 0 90 1a 60
        E 58 80 19 00
        E 0 80 1a 00
        E 182 90 1a 60
        E 58 80 1a 00
        E 182 90 18 60
        E 0 90 1a 60
        E 58 80 18 00
        E 0 80 1a 00
        E 182 90 1a 60
        E 58 80 1a 00
        E 182 90 1a 60
        E 58 80 1a 00
        E 182 90 1a 60
        E 58 80 1a 00
        E 182 90 18 60
        E 0 90 1a 60
        E 58 80 18 00
        E 0 80 1a 00
        E 182 90 1a 60
        E 58 80 1a 00
        E 182 90 19 60
        E 0 90 1a 60
        E 58 80 19 00
        E 0 80 1a 00
        E 182 90 1a 60
        E 58 80 1a 00
        E 182 90 18 60
        E 0 90 1a 60
        E 58 80 18 00
        E 0 80 1a 00
        E 182 90 1a 60
        E 58 80 1a 00
        E 182 90 18 60
        E 0 90 1a 60
        E 58 80 18 00
        E 0 80 1a 00
        E 182 90 1a 60
        E 58 80 1a 00
        E 182 90 1a 60
        E 58 80 1a 00
        E 182 90 18 60
        E 0 90 1a 60
        E 58 80 18 00
        E 0 80 1a 00
        E 182 90 19 60
        E 0 90 1a 60
        E 58 80 19 00
        E 0 80 1a 00
        E 182 90 1a 60
        E 58 80 1a 00
        E 182 90 1a 60
        E 58 80 1a 00
        E 182 90 18 60
        E 0 90 1a 60
        E 58 80 18 00
        E 0 80 1a 00
        E 182 90 1a 60
        E 58 80 1a 00
        E 182 90 1a 60
        E 58 80 1a 00
        E 182 90 18 60
        E 0 90 1a 60
        E 58 80 18 00
        E 0 80 1a 00
        E 182 90 1a 60
        E 58 80 1a 00
        E 182 90 19 60
        E 0 90 1a 60
        E 58 80 19 00
        E 0 80 1a 00
        E 182 90 18 60
        E 58 80 18 00
        E 182 90 1a 60
        E 58 80 1a 00
        E 182 90 18 60
        E 0 90 1a 60
        E 58 80 18 00
        E 0 80 1a 00
        E 182 90 18 60
        E 0 90 1a 60
        E 58 80 18 00
        E 0 80 1a 00
        E 182 90 1a 60
        E 58 80 1a 00
        E 182 90 1a 60
        E 58 80 1a 00
        E 182 90 18 60
        E 0 90 1a 60
        E 58 80 18 00
        E 0 80 1a 00
        E 182 90 19 60
        E 0 90 1a 60
        E 58 80 19 00
        E 0 80 1a 00
        E 182 90 1a 60
        E 58 80 1a 00
        E 182 90 18 60
        E 0 90 1a 60
        E 58 80 18 00
        E 0 80 1a 00
        E 182 90 1a 60
        E 58 80 1a 00
        E 182 90 1a 60
        E 58 80 1a 00
        E 182 90 1a 60
        E 58 80 1a 00
        E 182 90 18 60
        E 0 90 1a 60
        E 58 80 18 00
        E 0 80 1a 00
        E 182 90 1a 60
        E 58 80 1a 00
        E 182 90 19 60
        E 0 90 1a 60
        E 58 80 19 00
        E 0 80 1a 00
        E 182 90 1a 60
        E 58 80 1a 00
        E 182 90 18 60
        E 0 90 1a 60
        E 58 80 18 00
        E 0 80 1a 00
        E 182 90 1a 60
        E 58 80 1a 00
        E 182 90 18 60
        E 0 90 1a 60
        E 58 80 18 00
        E 0 80 1a 00
        E 182 90 1a 60
        E 58 80 1a 00
        E 182 90 1a 60
        E 58 80 1a 00
        E 182 90 18 60
        E 0 90 1a 60
        E 58 80 18 00
        E 0 80 1a 00
        E 182 90 19 60
        E 0 90 1a 60
        E 58 80 19 00
        E 0 80 1a 00
        E 422 90 1a 60
        E 58 80 1a 00
        E 182 90 18 60
        E 0 90 1a 60
        E 58 80 18 00
        E 0 80 1a 00
        E 182 90 1a 60
        E 58 80 1a 00
        E 182 90 1a 60
        E 58 80 1a 00
        E 182 90 18 60
        E 0 90 1a 60
        E 58 80 18 00
        E 0 80 1a 00
        E 182 90 1a 60
        E 58 80 1a 00
        E 182 90 19 60
        E 0 90 1a 60
        E 58 80 19 00
        E 0 80 1a 00
        E 182 90 18 60
        E 0 90 1a 60
        E 58 80 18 00
        E 0 80 1a 00
        E 182 90 1a 60
        E 58 80 1a 00
        E 182 90 18 60
        E 0 90 1a 60
        E 58 80 18 00
        E 0 80 1a 00
        E 182 90 18 60
        E 0 90 1a 60
        E 58 80 18 00
        E 0 80 1a 00
        E 182 90 1a 60
        E 58 80 1a 00
        E 182 90 1a 60
        E 58 80 1a 00
        E 182 90 18 60
        E 0 90 1a 60
        E 58 80 18 00
        E 0 80 1a 00
        E 182 90 19 60
        E 0 90 1a 60
        E 58 80 19 00
        E 0 80 1a 00
        E 182 90 1a 60
        E 58 80 1a 00
        E 182 90 18 60
        E 0 90 1a 60
        E 58 80 18 00
        E 0 80 1a 00
        E 182 90 1a 60
        E 58 80 1a 00
        E 182 90 1a 60
        E 58 80 1a 00
        E 182 90 1a 60
        E 58 80 1a 00
        E 182 90 18 60
        E 0 90 1a 60
        E 58 80 18 00
        E 0 80 1a 00
        E 182 90 1a 60
        E 58 80 1a 00
        E 182 90 19 60
        E 0 90 1a 60
        E 58 80 19 00
        E 0 80 1a 00
        E 182 90 1a 60
        E 58 80 1a 00
        E 182 90 18 60
        E 0 90 1a 60
        E 58 80 18 00
        E 0 80 1a 00
        E 182 90 1a 60
        E 58 80 1a 00
        E 182 90 18 60
        E 0 90 1a 60
        E 58 80 18 00
        E 0 80 1a 00
        E 182 90 1a 60
        E 58 80 1a 00
        E 182 90 1a 60
        E 58 80 1a 00
        E 182 90 18 60
        E 0 90 1a 60
        E 58 80 18 00
        E 0 80 1a 00
        E 182 90 19 60
        E 0 90 1a 60
        E 58 80 19 00
        E 0 80 1a 00
        E 182 90 1a 60
        E 58 80 1a 00
        E 182 90 1a 60
        E 58 80 1a 00
        E 182 90 18 60
        E 0 90 1a 60
        E 58 80 18 00
        E 0 80 1a 00
        E 182 90 1a 60
        E 58 80 1a 00
        E 182 90 1a 60
        E 58 80 1a 00
        E 182 90 18 60
        E 0 90 1a 60
        E 58 80 18 00
        E 0 80 1a 00
        E 182 90 1a 60
        E 58 80 1a 00
        E 182 90 19 60
        E 0 90 1a 60
        E 58 80 19 00
        E 0 80 1a 00
        E 182 90 18 60
        E 58 80 18 00
        E 182 90 1a 60
        E 58 80 1a 00
        E 182 90 18 60
        E 0 90 1a 60
        E 58 80 18 00
        E 0 80 1a 00
        E 182 90 18 60
        E 0 90 1a 60
        E 58 80 18 00
        E 0 80 1a 00
        E 182 90 1a 60
        E 58 80 1a 00
        E 182 90 1a 60
        E 58 80 1a 00
        E 182 90 18 60
        E 0 90 1a 60
        E 58 80 18 00
        E 0 80 1a 00
        E 182 90 19 60
        E 0 90 1a 60
        E 58 80 19 00
        E 0 80 1a 00
        E 182 90 1a 60
        E 58 80 1a 00
        E 182 90 18 60
        E 0 90 1a 60
        E 58 80 18 00
        E 0 80 1a 00
        E 182 90 1a 60
        E 58 80 1a 00
        E 182 90 1a 60
        E 58 80 1a 00
        E 182 90 1a 60
        E 58 80 1a 00
        E 182 90 18 60
        E 0 90 1a 60
        E 58 80 18 00
        E 0 80 1a 00
        E 182 90 1a 60
        E 58 80 1a 00
        E 182 90 19 60
        E 0 90 1a 60
        E 58 80 19 00
        E 0 80 1a 00
        E 182 90 1a 60
        E 58 80 1a 00
        E 182 90 18 60
        E 0 90 1a 60
        E 58 80 18 00
        E 0 80 1a 00
        E 182 90 1a 60
        E 58 80 1a 00
        E 182 90 18 60
        E 0 90 1a 60
        E 58 80 18 00
        E 0 80 1a 00
        E 182 90 1a 60
        E 58 80 1a 00
        E 182 90 1a 60
        E 58 80 1a 00
        E 182 90 18 60
        E 0 90 1a 60
        E 58 80 18 00
        E 0 80 1a 00
        E 182 90 19 60
        E 0 90 1a 60
        E 58 80 19 00
        E 0 80 1a 00
        E 422 90 1a 60
        E 58 80 1a 00
        E 182 90 18 60
        E 0 90 1a 60
        E 58 80 18 00
        E 0 80 1a 00
        E 182 90 1a 60
        E 58 80 1a 00
        E 182 90 1a 60
        E 58 80 1a 00
        E 182 90 18 60
        E 0 90 1a 60
        E 58 80 18 00
        E 0 80 1a 00
        E 182 90 1a 60
        E 58 80 1a 00
        E 182 90 19 60
        E 0 90 1a 60
        E 58 80 19 00
        E 0 80 1a 00
        E 182 90 18 60
        E 0 90 1a 60
        E 58 80 18 00
        E 0 80 1a 00
        E 182 90 1a 60
        E 58 80 1a 00
        E 182 90 18 60
        E 0 90 1a 60
        E 58 80 18 00
        E 0 80 1a 00
        <X 182 0
          /wFbcHJjX2Nob3J1c19hXQ==
        >
        <X 0 0
          /wFbY3Jvd2Rfbm9ybWFsXQ==
        >
        E 0 90 18 60
        E 0 90 1a 60
        E 58 80 18 00
        E 0 80 1a 00
        E 182 90 1a 60
        E 58 80 1a 00
        E 182 90 19 60
        E 0 90 1a 60
        E 58 80 19 00
        E 0 80 1a 00
        E 182 90 18 60
        E 0 90 1a 60
        E 58 80 18 00
        E 0 80 1a 00
        E 182 90 1a 60
        E 58 80 1a 00
        E 182 90 1a 60
        E 58 80 1a 00
        E 182 90 19 60
        E 0 90 1a 60
        E 58 80 19 00
        E 0 80 1a 00
        E 182 90 1a 60
        E 58 80 1a 00
        E 182 90 18 60
        E 0 90 1a 60
        E 58 80 18 00
        E 0 80 1a 00
        E 182 90 1a 60
        E 58 80 1a 00
        E 182 90 19 60
        E 0 90 1a 60
        E 58 80 19 00
        E 0 80 1a 00
        E 182 90 1a 60
        E 58 80 1a 00
        E 182 90 18 60
        E 0 90 1a 60
        E 58 80 18 00
        E 0 80 1a 00
        E 182 90 18 60
        E 0 90 1a 60
        E 58 80 18 00
        E 0 80 1a 00
        E 182 90 19 60
        E 0 90 1a 60
        E 58 80 19 00
        E 0 80 1a 00
        E 182 90 1a 60
        E 58 80 1a 00
        E 182 90 18 60
        E 0 90 1a 60
        E 58 80 18 00
        E 0 80 1a 00
        E 182 90 1a 60
        E 58 80 1a 00
        E 182 90 19 60
        E 0 90 1a 60
        E 58 80 19 00
        E 0 80 1a 00
        E 182 90 18 60
        E 0 90 1a 60
        E 58 80 18 00
        E 0 80 1a 00
        E 182 90 1a 60
        E 58 80 1a 00
        E 422 90 19 60
        E 0 90 1a 60
        E 58 80 19 00
        E 0 80 1a 00
        E 182 90 1a 60
        E 58 80 1a 00
        E 182 90 18 60
        E 0 90 1a 60
        E 58 80 18 00
        E 0 80 1a 00
        E 182 90 1a 60
        E 58 80 1a 00
        E 182 90 19 60
        E 0 90 1a 60
        E 58 80 19 00
        E 0 80 1a 00
        E 182 90 18 60
        E 0 90 1a 60
        E 58 80 18 00
        E 0 80 1a 00
        E 182 90 18 60
        E 0 90 1a 60
        E 58 80 18 00
        E 0 80 1a 00
        E 182 90 1a 60
        E 58 80 1a 00
        E 182 90 19 60
        E 0 90 1a 60
        E 58 80 19 00
        E 0 80 1a 00
        E 182 90 1a 60
        E 58 80 1a 00
        E 182 90 18 60
        E 0 90 1a 60
        E 58 80 18 00
        E 0 80 1a 00
        E 182 90 1a 60
        E 58 80 1a 00
        E 182 90 19 60
        E 0 90 1a 60
        E 58 80 19 00
        E 0 80 1a 00
        E 182 90 18 60
        E 0 90 1a 60
        E 58 80 18 00
        E 0 80 1a 00
        E 182 90 1a 60
        E 58 80 1a 00
        E 182 90 1a 60
        E 58 80 1a 00
        E 182 90 19 60
        E 0 90 1a 60
        E 58 80 19 00
        E 0 80 1a 00
        E 182 90 1a 60
        E 58 80 1a 00
        E 182 90 18 60
        E 0 90 1a 60
        E 58 80 18 00
        E 0 80 1a 00
        E 182 90 1a 60
        E 58 80 1a 00
        E 182 90 19 60
        E 0 90 1a 60
        E 58 80 19 00
        E 0 80 1a 00
        E 182 90 1a 60
        E 58 80 1a 00
        E 182 90 18 60
        E 0 90 1a 60
        E 58 80 18 00
        E 0 80 1a 00
        E 182 90 18 60
        E 0 90 1a 60
        E 58 80 18 00
        E 0 80 1a 00
        E 182 90 19 60
        E 0 90 1a 60
        E 58 80 19 00
        E 0 80 1a 00
        E 182 90 1a 60
        E 58 80 1a 00
        E 182 90 18 60
        E 0 90 1a 60
        E 58 80 18 00
        E 0 80 1a 00
        E 182 90 1a 60
        E 58 80 1a 00
        E 182 90 19 60
        E 0 90 1a 60
        E 58 80 19 00
        E 0 80 1a 00
        E 182 90 18 60
        E 0 90 1a 60
        E 58 80 18 00
        E 0 80 1a 00
        E 182 90 1a 60
        E 58 80 1a 00
        E 422 90 19 60
        E 0 90 1a 60
        E 58 80 19 00
        E 0 80 1a 00
        E 182 90 1a 60
        E 58 80 1a 00
        E 182 90 18 60
        E 0 90 1a 60
        E 58 80 18 00
        E 0 80 1a 00
        E 422 90 19 60
        E 0 90 1a 60
        E 58 80 19 00
        E 0 80 1a 00
        E 182 90 18 60
        E 0 90 1a 60
        E 58 80 18 00
        E 0 80 1a 00
        E 182 90 18 60
        E 0 90 1a 60
        E 58 80 18 00
        E 0 80 1a 00
        E 182 90 19 60
        E 0 90 1a 60
        E 58 80 19 00
        E 0 80 1a 00
        E 182 90 19 60
        E 0 90 1a 60
        E 58 80 19 00
        E 0 80 1a 00
        E 182 90 1a 60
        E 58 80 1a 00
        E 182 90 18 60
        E 0 90 1a 60
        E 58 80 18 00
        E 0 80 1a 00
        E 182 90 1a 60
        E 58 80 1a 00
        E 182 90 19 60
        E 0 90 1a 60
        E 58 80 19 00
        E 0 80 1a 00
        E 182 90 18 60
        E 0 90 1a 60
        E 58 80 18 00
        E 0 80 1a 00
        E 182 90 1a 60
        E 58 80 1a 00
        E 182 90 1a 60
        E 58 80 1a 00
        E 182 90 19 60
        E 0 90 1a 60
        E 58 80 19 00
        E 0 80 1a 00
        E 182 90 1a 60
        E 58 80 1a 00
        E 182 90 18 60
        E 0 90 1a 60
        E 58 80 18 00
        E 0 80 1a 00
        E 182 90 1a 60
        E 58 80 1a 00
        E 182 90 19 60
        E 0 90 1a 60
        E 58 80 19 00
        E 0 80 1a 00
        E 182 90 1a 60
        E 58 80 1a 00
        E 182 90 18 60
        E 0 90 1a 60
        E 58 80 18 00
        E 0 80 1a 00
        E 182 90 18 60
        E 0 90 1a 60
        E 58 80 18 00
        E 0 80 1a 00
        E 182 90 19 60
        E 0 90 1a 60
        E 58 80 19 00
        E 0 80 1a 00
        E 182 90 1a 60
        E 58 80 1a 00
        E 182 90 18 60
        E 0 90 1a 60
        E 58 80 18 00
        E 0 80 1a 00
        E 182 90 1a 60
        E 58 80 1a 00
        E 182 90 19 60
        E 0 90 1a 60
        E 58 80 19 00
        E 0 80 1a 00
        E 182 90 18 60
        E 0 90 1a 60
        E 58 80 18 00
        E 0 80 1a 00
        E 182 90 1a 60
        E 58 80 1a 00
        E 422 90 19 60
        E 0 90 1a 60
        E 58 80 19 00
        E 0 80 1a 00
        E 182 90 1a 60
        E 58 80 1a 00
        E 182 90 18 60
        E 0 90 1a 60
        E 58 80 18 00
        E 0 80 1a 00
        E 182 90 1a 60
        E 58 80 1a 00
        E 182 90 19 60
        E 0 90 1a 60
        E 58 80 19 00
        E 0 80 1a 00
        E 182 90 18 60
        E 0 90 1a 60
        E 58 80 18 00
        E 0 80 1a 00
        E 182 90 18 60
        E 0 90 1a 60
        E 58 80 18 00
        E 0 80 1a 00
        E 182 90 19 60
        E 0 90 1a 60
        E 58 80 19 00
        E 0 80 1a 00
        E 182 90 19 60
        E 0 90 1a 60
        E 58 80 19 00
        E 0 80 1a 00
        E 182 90 1a 60
        E 58 80 1a 00
        E 182 90 18 60
        E 0 90 1a 60
        E 58 80 18 00
        E 0 80 1a 00
        E 182 90 1a 60
        E 58 80 1a 00
        E 182 90 19 60
        E 0 90 1a 60
        E 58 80 19 00
        E 0 80 1a 00
        E 182 90 18 60
        E 0 90 1a 60
        E 58 80 18 00
        E 0 80 1a 00
        E 182 90 1a 60
        E 58 80 1a 00
        E 182 90 1a 60
        E 58 80 1a 00
        E 182 90 19 60
        E 0 90 1a 60
        E 58 80 19 00
        E 0 80 1a 00
        E 182 90 1a 60
        E 58 80 1a 00
        E 182 90 18 60
        E 0 90 1a 60
        E 58 80 18 00
        E 0 80 1a 00
        E 182 90 1a 60
        E 58 80 1a 00
        E 182 90 19 60
        E 0 90 1a 60
        E 58 80 19 00
        E 0 80 1a 00
        E 182 90 1a 60
        E 58 80 1a 00
        E 182 90 18 60
        E 0 90 1a 60
        E 58 80 18 00
        E 0 80 1a 00
        E 182 90 18 60
        E 0 90 1a 60
        E 58 80 18 00
        E 0 80 1a 00
        E 182 90 19 60
        E 0 90 1a 60
        E 58 80 19 00
        E 0 80 1a 00
        E 182 90 1a 60
        E 58 80 1a 00
        E 182 90 18 60
        E 0 90 1a 60
        E 58 80 18 00
        E 0 80 1a 00
        E 182 90 1a 60
        E 58 80 1a 00
        E 182 90 19 60
        E 0 90 1a 60
        E 58 80 19 00
        E 0 80 1a 00
        E 182 90 18 60
        E 0 90 1a 60
        E 58 80 18 00
        E 0 80 1a 00
        E 182 90 1a 60
        E 58 80 1a 00
        E 422 90 19 60
        E 0 90 1a 60
        E 58 80 19 00
        E 0 80 1a 00
        E 182 90 1a 60
        E 58 80 1a 00
        E 182 90 18 60
        E 0 90 1a 60
        E 58 80 18 00
        E 0 80 1a 00
        E 422 90 19 60
        E 0 90 1a 60
        E 58 80 19 00
        E 0 80 1a 00
        E 182 90 18 60
        E 0 90 1a 60
        E 58 80 18 00
        E 0 80 1a 00
        E 182 90 18 60
        E 58 80 18 00
        E 182 90 19 60
        E 0 90 1a 60
        E 58 80 19 00
        E 0 80 1a 00
        E 182 90 19 60
        E 0 90 1a 60
        E 58 80 19 00
        E 0 80 1a 00
        E 182 90 19 60
        E 0 90 1a 60
        E 58 80 19 00
        E 0 80 1a 00
        <X 182 0
          /wFbcHJjX291dHJvXQ==
        >
        <X 0 0
          /wFbY3Jvd2RfaW50ZW5zZV0=
        >
        E 0 90 18 60
        E 0 90 1a 60
        E 58 80 18 00
        E 2 80 1a 00
        E 180 90 18 60
        E 58 80 18 00
        E 182 90 19 60
        E 0 90 1a 60
        E 58 80 19 00
        E 2 80 1a 00
        E 420 90 18 60
        E 0 90 1a 60
        E 58 80 18 00
        E 2 80 1a 00
        E 420 90 19 60
        E 0 90 1a 60
        E 58 80 19 00
        E 2 80 1a 00
        E 420 90 18 60
        E 0 90 1a 60
        E 58 80 18 00
        E 2 80 1a 00
        E 420 90 19 60
        E 0 90 1a 60
        E 58 80 19 00
        E 2 80 1a 00
        E 180 90 18 60
        E 58 80 18 00
        E 182 90 1a 60
        E 60 80 1a 00
        E 180 90 18 60
        E 58 80 18 00
        E 182 90 19 60
        E 0 90 1a 60
        E 58 80 19 00
        E 2 80 1a 00
        E 420 90 18 60
        E 0 90 1a 60
        E 58 80 18 00
        E 2 80 1a 00
        E 180 90 18 60
        E 58 80 18 00
        E 182 90 19 60
        E 0 90 1a 60
        E 58 80 19 00
        E 2 80 1a 00
        E 420 90 18 60
        E 0 90 1a 60
        E 58 80 18 00
        E 2 80 1a 00
        E 420 90 19 60
        E 0 90 1a 60
        E 58 80 19 00
        E 2 80 1a 00
        E 420 90 18 60
        E 0 90 1a 60
        E 58 80 18 00
        E 2 80 1a 00
        E 420 90 19 60
        E 0 90 1a 60
        E 58 80 19 00
        E 2 80 1a 00
        E 180 90 18 60
        E 58 80 18 00
        E 182 90 1a 60
        E 60 80 1a 00
        E 180 90 18 60
        E 58 80 18 00
        E 182 90 19 60
        E 0 90 1a 60
        E 58 80 19 00
        E 2 80 1a 00
        E 420 90 18 60
        E 0 90 1a 60
        E 58 80 18 00
        E 2 80 1a 00
        E 180 90 18 60
        E 58 80 18 00
        E 182 90 19 60
        E 0 90 1a 60
        E 58 80 19 00
        E 2 80 1a 00
        E 420 90 18 60
        E 0 90 1a 60
        E 58 80 18 00
        E 2 80 1a 00
        E 420 90 19 60
        E 0 90 1a 60
        E 58 80 19 00
        E 2 80 1a 00
        E 420 90 18 60
        E 0 90 1a 60
        E 58 80 18 00
        E 2 80 1a 00
        E 420 90 19 60
        E 0 90 1a 60
        E 58 80 19 00
        E 2 80 1a 00
        E 180 90 18 60
        E 58 80 18 00
        E 182 90 1a 60
        E 60 80 1a 00
        E 180 90 18 60
        E 58 80 18 00
        E 182 90 19 60
        E 0 90 1a 60
        E 58 80 19 00
        E 2 80 1a 00
        E 420 90 18 60
        E 0 90 1a 60
        E 58 80 18 00
        E 2 80 1a 00
        E 180 90 18 60
        E 58 80 18 00
        E 182 90 19 60
        E 0 90 1a 60
        E 58 80 19 00
        E 2 80 1a 00
        E 420 90 18 60
        E 0 90 1a 60
        E 58 80 18 00
        E 2 80 1a 00
        E 420 90 19 60
        E 0 90 1a 60
        E 58 80 19 00
        E 2 80 1a 00
        E 420 90 18 60
        E 0 90 1a 60
        E 58 80 18 00
        E 2 80 1a 00
        E 420 90 19 60
        E 0 90 1a 60
        E 58 80 19 00
        E 2 80 1a 00
        E 180 90 18 60
        E 58 80 18 00
        E 182 90 1a 60
        E 60 80 1a 00
        E 180 90 18 60
        E 58 80 18 00
        E 182 90 19 60
        E 0 90 1a 60
        E 58 80 19 00
        E 2 80 1a 00
        E 420 90 18 60
        E 0 90 1a 60
        E 58 80 18 00
        E 2 80 1a 00
        E 180 90 18 60
        E 58 80 18 00
        E 182 90 19 60
        E 0 90 1a 60
        E 58 80 19 00
        E 2 80 1a 00
        E 420 90 18 60
        E 0 90 1a 60
        E 58 80 18 00
        E 2 80 1a 00
        E 420 90 19 60
        E 0 90 1a 60
        E 58 80 19 00
        E 2 80 1a 00
        E 420 90 18 60
        E 0 90 1a 60
        E 58 80 18 00
        E 2 80 1a 00
        E 420 90 19 60
        E 0 90 1a 60
        E 58 80 19 00
        E 2 80 1a 00
        E 180 90 18 60
        E 58 80 18 00
        E 182 90 1a 60
        E 60 80 1a 00
        E 180 90 18 60
        E 58 80 18 00
        E 182 90 19 60
        E 0 90 1a 60
        E 58 80 19 00
        E 2 80 1a 00
        E 420 90 18 60
        E 0 90 1a 60
        E 58 80 18 00
        E 2 80 1a 00
        E 180 90 18 60
        E 58 80 18 00
        E 182 90 19 60
        E 0 90 1a 60
        E 58 80 19 00
        E 2 80 1a 00
        E 420 90 18 60
        E 0 90 1a 60
        E 58 80 18 00
        E 2 80 1a 00
        E 420 90 19 60
        E 0 90 1a 60
        E 58 80 19 00
        E 2 80 1a 00
        E 420 90 18 60
        E 0 90 1a 60
        E 58 80 18 00
        E 2 80 1a 00
        E 180 90 1a 60
        E 60 80 1a 00
        E 180 90 19 60
        E 0 90 1a 60
        E 58 80 19 00
        E 2 80 1a 00
        E 180 90 18 60
        E 58 80 18 00
        E 422 90 18 60
        E 58 80 18 00
        E 182 90 19 60
        E 58 80 19 00
        E 422 90 18 60
        E 0 90 1a 60
        E 58 80 18 00
        E 2 80 1a 00
        E 180 90 18 60
        E 58 80 18 00
        E 182 90 19 60
        E 0 90 1a 60
        E 58 80 19 00
        E 2 80 1a 00
        E 420 90 18 60
        E 0 90 1a 60
        E 58 80 18 00
        E 2 80 1a 00
        E 420 90 19 60
        E 0 90 1a 60
        E 58 80 19 00
        E 2 80 1a 00
        E 420 90 18 60
        E 0 90 1a 60
        E 58 80 18 00
        E 2 80 1a 00
        E 420 90 19 60
        E 0 90 1a 60
        E 58 80 19 00
        E 2 80 1a 00
        E 180 90 18 60
        E 58 80 18 00
        E 182 90 1a 60
        E 60 80 1a 00
        E 180 90 18 60
        E 58 80 18 00
        E 182 90 19 60
        E 0 90 1a 60
        E 58 80 19 00
        E 2 80 1a 00
        E 420 90 18 60
        E 0 90 1a 60
        E 58 80 18 00
        E 2 80 1a 00
        E 180 90 18 60
        E 58 80 18 00
        E 182 90 19 60
        E 0 90 1a 60
        E 58 80 19 00
        E 2 80 1a 00
        E 420 90 18 60
        E 0 90 1a 60
        E 58 80 18 00
        E 2 80 1a 00
        E 420 90 19 60
        E 0 90 1a 60
        E 58 80 19 00
        E 2 80 1a 00
        E 420 90 1a 60
        E 60 80 1a 00
        E 180 90 18 60
        E 58 80 18 00
        E 182 90 19 60
        E 0 90 1a 60
        E 58 80 19 00
        E 2 80 1a 00
        E 60 90 1a 60
        E 60 80 1a 00
        E 300 90 18 60
        E 58 80 18 00
        E 182 90 19 60
        E 58 80 19 00
        E 662 90 18 60
        E 0 90 19 60
        E 58 80 18 00
        E 0 80 19 00
        <X 422 0
          /wFbbXVzaWNfZW5kXQ==
        >
        <X 0 0
          /wFbY3Jvd2RfcmVhbHRpbWVd
        >
        <X 5275 0
          /wFbZW5kXQ==
        >
        E 5 b0 7b 00
        GUID {9A2F5234-CC37-4B0D-8944-1DB326E1E3BC}
        IGNTEMPO 0 120.00000000 4 4
        SRCCOLOR 192
        VELLANE 131 128 60
        COLORMAP "C:\Program Files\REAPER (x64)\Data\color_maps\rockband_guitarbass.png"
        CFGEDITVIEW 160928.396768 69.848485 61 12 0 0 0
        CFGEDIT 1 1 0 1 1 0 1 1 1 1 1 0.25000000 -8 -8 1544 872 0 0 1 1 0.00000000 0 1 0 0 0.500000 0 0 1.000000 64
        KEYSNAP 0 6 "102030050700" 0 "Pentatonic"
        EVTFILTER 0 -1 -1 -1 -1 0 1 0 0 -1.00000000 -1.00000000
      >
    >
  >
  <TRACK '{CDD11737-78E2-42D4-9D7D-0E830FCD23B4}'
    NAME "BEAT"
    PEAKCOL 16576
    BEAT -1
    AUTOMODE 0
    VOLPAN 1.00000000000000 0.00000000000000 -1.00000000000000 -1.00000000000000 1.00000000000000
    MUTESOLO 0 0 0
    IPHASE 0
    ISBUS 0 0
    BUSCOMP 0 0
    SHOWINMIX 1 0.666700 0.500000 1 0.500000 -1 -1 -1
    FREEMODE 0
    SEL 0
    REC 0 0 0 0 0 0 0
    VU 2
    TRACKHEIGHT 0 0
    INQ 0 0 0 0.5000000000 100 0 0 100
    NCHAN 2
    FX 1
    TRACKID {CDD11737-78E2-42D4-9D7D-0E830FCD23B4}
    PERF 0
    MIDIOUT -1
    <MIDINOTENAMES
      0 13 "Up Beats"
      0 12 "Downbeat"
    >
    MAINSEND 1 0
    <FXCHAIN
      SHOW 0
      LASTSEL 0
      DOCKED 0
    >
    <ITEM
      POSITION 0.00000000000000
      SNAPOFFS 0.00000000000000
      LENGTH 128.91399999999999
      LOOP 0
      ALLTAKES 0
      SEL 0
      FADEIN 1 0.000000 0.000000 1 0
      FADEOUT 1 0.000000 0.000000 1 0
      MUTE 0
      IGUID {912B6DCB-2BE6-4D16-9A55-B74FBDB10C4D}
      IID 14
      NAME "BEAT"
      VOLPAN 1.000000 0.000000 1.000000 -1.000000
      SOFFS 0.00000000000000 0.00000000000000
      PLAYRATE 1.00000000000000 1 0.00000000000000 -1
      CHANMODE 0
      GUID {E26C2829-EB1B-4D3F-8719-C56063BD3A2A}
      <SOURCE MIDI
        HASDATA 1 480 QN
        POOLEDEVTS {8922C0D0-30C2-483B-A5A0-4043083FEDFA}
        <X 0 0
          /wNCRUFU
        >
        E 0 96 0c 64
        E 120 86 0c 00
        E 360 96 0d 64
        E 120 86 0d 00
        E 360 96 0d 64
        E 120 86 0d 00
        E 360 96 0d 64
        E 120 86 0d 00
        E 360 96 0c 64
        E 120 86 0c 00
        E 360 96 0d 64
        E 120 86 0d 00
        E 360 96 0d 64
        E 120 86 0d 00
        E 360 96 0d 64
        E 120 86 0d 00
        E 360 96 0c 64
        E 120 86 0c 00
        E 360 96 0d 64
        E 120 86 0d 00
        E 360 96 0d 64
        E 120 86 0d 00
        E 360 96 0d 64
        E 120 86 0d 00
        E 360 96 0c 64
        E 120 86 0c 00
        E 360 96 0d 64
        E 120 86 0d 00
        E 360 96 0d 64
        E 120 86 0d 00
        E 360 96 0d 64
        E 120 86 0d 00
        E 360 96 0c 64
        E 120 86 0c 00
        E 360 96 0d 64
        E 120 86 0d 00
        E 360 96 0d 64
        E 120 86 0d 00
        E 360 96 0d 64
        E 120 86 0d 00
        E 360 96 0c 64
        E 120 86 0c 00
        E 360 96 0d 64
        E 120 86 0d 00
        E 360 96 0d 64
        E 120 86 0d 00
        E 360 96 0d 64
        E 120 86 0d 00
        E 360 96 0c 64
        E 120 86 0c 00
        E 360 96 0d 64
        E 120 86 0d 00
        E 360 96 0d 64
        E 120 86 0d 00
        E 360 96 0d 64
        E 120 86 0d 00
        E 360 96 0c 64
        E 120 86 0c 00
        E 360 96 0d 64
        E 120 86 0d 00
        E 360 96 0d 64
        E 120 86 0d 00
        E 360 96 0d 64
        E 120 86 0d 00
        E 360 96 0c 64
        E 120 86 0c 00
        E 360 96 0d 64
        E 120 86 0d 00
        E 360 96 0d 64
        E 120 86 0d 00
        E 360 96 0d 64
        E 120 86 0d 00
        E 360 96 0c 64
        E 120 86 0c 00
        E 360 96 0d 64
        E 120 86 0d 00
        E 360 96 0d 64
        E 120 86 0d 00
        E 360 96 0d 64
        E 120 86 0d 00
        E 360 96 0c 64
        E 120 86 0c 00
        E 360 96 0d 64
        E 120 86 0d 00
        E 360 96 0d 64
        E 120 86 0d 00
        E 360 96 0d 64
        E 120 86 0d 00
        E 360 96 0c 64
        E 120 86 0c 00
        E 360 96 0d 64
        E 120 86 0d 00
        E 360 96 0d 64
        E 120 86 0d 00
        E 360 96 0d 64
        E 120 86 0d 00
        E 360 96 0c 64
        E 120 86 0c 00
        E 360 96 0d 64
        E 120 86 0d 00
        E 360 96 0d 64
        E 120 86 0d 00
        E 360 96 0d 64
        E 120 86 0d 00
        E 360 96 0c 64
        E 120 86 0c 00
        E 360 96 0d 64
        E 120 86 0d 00
        E 360 96 0d 64
        E 120 86 0d 00
        E 360 96 0d 64
        E 120 86 0d 00
        E 360 96 0c 64
        E 120 86 0c 00
        E 360 96 0d 64
        E 120 86 0d 00
        E 360 96 0d 64
        E 120 86 0d 00
        E 360 96 0d 64
        E 120 86 0d 00
        E 360 96 0c 64
        E 120 86 0c 00
        E 360 96 0d 64
        E 120 86 0d 00
        E 360 96 0d 64
        E 120 86 0d 00
        E 360 96 0d 64
        E 120 86 0d 00
        E 360 96 0c 64
        E 120 86 0c 00
        E 360 96 0d 64
        E 120 86 0d 00
        E 360 96 0d 64
        E 120 86 0d 00
        E 360 96 0d 64
        E 120 86 0d 00
        E 360 96 0c 64
        E 120 86 0c 00
        E 360 96 0d 64
        E 120 86 0d 00
        E 360 96 0d 64
        E 120 86 0d 00
        E 360 96 0d 64
        E 120 86 0d 00
        E 360 96 0c 64
        E 120 86 0c 00
        E 360 96 0d 64
        E 120 86 0d 00
        E 360 96 0d 64
        E 120 86 0d 00
        E 360 96 0d 64
        E 120 86 0d 00
        E 360 96 0c 64
        E 120 86 0c 00
        E 360 96 0d 64
        E 120 86 0d 00
        E 360 96 0d 64
        E 120 86 0d 00
        E 360 96 0d 64
        E 120 86 0d 00
        E 360 96 0c 64
        E 120 86 0c 00
        E 360 96 0d 64
        E 120 86 0d 00
        E 360 96 0d 64
        E 120 86 0d 00
        E 360 96 0d 64
        E 120 86 0d 00
        E 360 96 0c 64
        E 120 86 0c 00
        E 360 96 0d 64
        E 120 86 0d 00
        E 360 96 0d 64
        E 120 86 0d 00
        E 360 96 0d 64
        E 120 86 0d 00
        E 360 96 0c 64
        E 120 86 0c 00
        E 360 96 0d 64
        E 120 86 0d 00
        E 360 96 0d 64
        E 120 86 0d 00
        E 360 96 0d 64
        E 120 86 0d 00
        E 360 96 0c 64
        E 120 86 0c 00
        E 360 96 0d 64
        E 120 86 0d 00
        E 360 96 0d 64
        E 120 86 0d 00
        E 360 96 0d 64
        E 120 86 0d 00
        E 360 96 0c 64
        E 120 86 0c 00
        E 360 96 0d 64
        E 120 86 0d 00
        E 360 96 0d 64
        E 120 86 0d 00
        E 360 96 0d 64
        E 120 86 0d 00
        E 360 96 0c 64
        E 120 86 0c 00
        E 360 96 0d 64
        E 120 86 0d 00
        E 360 96 0d 64
        E 120 86 0d 00
        E 360 96 0d 64
        E 120 86 0d 00
        E 360 96 0c 64
        E 120 86 0c 00
        E 360 96 0d 64
        E 120 86 0d 00
        E 360 96 0d 64
        E 120 86 0d 00
        E 360 96 0d 64
        E 120 86 0d 00
        E 360 96 0c 64
        E 120 86 0c 00
        E 360 96 0d 64
        E 120 86 0d 00
        E 360 96 0d 64
        E 120 86 0d 00
        E 360 96 0d 64
        E 120 86 0d 00
        E 360 96 0c 64
        E 120 86 0c 00
        E 360 96 0d 64
        E 120 86 0d 00
        E 360 96 0d 64
        E 120 86 0d 00
        E 360 96 0d 64
        E 120 86 0d 00
        E 360 96 0c 64
        E 120 86 0c 00
        E 360 96 0d 64
        E 120 86 0d 00
        E 360 96 0d 64
        E 120 86 0d 00
        E 360 96 0d 64
        E 120 86 0d 00
        E 360 96 0c 64
        E 120 86 0c 00
        E 360 96 0d 64
        E 120 86 0d 00
        E 360 96 0d 64
        E 120 86 0d 00
        E 360 96 0d 64
        E 120 86 0d 00
        E 360 96 0c 64
        E 120 86 0c 00
        E 360 96 0d 64
        E 120 86 0d 00
        E 360 96 0d 64
        E 120 86 0d 00
        E 360 96 0d 64
        E 120 86 0d 00
        E 360 96 0c 64
        E 120 86 0c 00
        E 360 96 0d 64
        E 120 86 0d 00
        E 360 96 0d 64
        E 120 86 0d 00
        E 360 96 0d 64
        E 120 86 0d 00
        E 360 96 0c 64
        E 120 86 0c 00
        E 360 96 0d 64
        E 120 86 0d 00
        E 360 96 0d 64
        E 120 86 0d 00
        E 360 96 0d 64
        E 120 86 0d 00
        E 360 96 0c 64
        E 120 86 0c 00
        E 360 96 0d 64
        E 120 86 0d 00
        E 360 96 0d 64
        E 120 86 0d 00
        E 360 96 0d 64
        E 120 86 0d 00
        E 360 96 0c 64
        E 120 86 0c 00
        E 360 96 0d 64
        E 120 86 0d 00
        E 360 96 0d 64
        E 120 86 0d 00
        E 360 96 0d 64
        E 120 86 0d 00
        E 360 96 0c 64
        E 120 86 0c 00
        E 360 96 0d 64
        E 120 86 0d 00
        E 360 96 0d 64
        E 120 86 0d 00
        E 360 96 0d 64
        E 120 86 0d 00
        E 360 96 0c 64
        E 120 86 0c 00
        E 360 96 0d 64
        E 120 86 0d 00
        E 360 96 0d 64
        E 120 86 0d 00
        E 360 96 0d 64
        E 120 86 0d 00
        E 360 96 0c 64
        E 120 86 0c 00
        E 360 96 0d 64
        E 120 86 0d 00
        E 360 96 0d 64
        E 120 86 0d 00
        E 360 96 0d 64
        E 120 86 0d 00
        E 360 96 0c 64
        E 120 86 0c 00
        E 360 96 0d 64
        E 120 86 0d 00
        E 360 96 0d 64
        E 120 86 0d 00
        E 360 96 0d 64
        E 120 86 0d 00
        E 360 96 0c 64
        E 120 86 0c 00
        E 360 96 0d 64
        E 120 86 0d 00
        E 360 96 0d 64
        E 120 86 0d 00
        E 360 96 0d 64
        E 120 86 0d 00
        E 360 96 0c 64
        E 120 86 0c 00
        E 360 96 0d 64
        E 120 86 0d 00
        E 360 96 0d 64
        E 120 86 0d 00
        E 360 96 0d 64
        E 120 86 0d 00
        E 360 96 0c 64
        E 120 86 0c 00
        E 360 96 0d 64
        E 120 86 0d 00
        E 360 96 0d 64
        E 120 86 0d 00
        E 360 96 0d 64
        E 120 86 0d 00
        E 360 96 0c 64
        E 120 86 0c 00
        E 360 96 0d 64
        E 120 86 0d 00
        E 360 96 0d 64
        E 120 86 0d 00
        E 360 96 0d 64
        E 120 86 0d 00
        E 360 96 0c 64
        E 120 86 0c 00
        E 360 96 0d 64
        E 120 86 0d 00
        E 360 96 0d 64
        E 120 86 0d 00
        E 360 96 0d 64
        E 120 86 0d 00
        E 360 96 0c 64
        E 120 86 0c 00
        E 360 96 0d 64
        E 120 86 0d 00
        E 360 96 0d 64
        E 120 86 0d 00
        E 360 96 0d 64
        E 120 86 0d 00
        E 360 96 0c 64
        E 120 86 0c 00
        E 360 96 0d 64
        E 120 86 0d 00
        E 360 96 0d 64
        E 120 86 0d 00
        E 360 96 0d 64
        E 120 86 0d 00
        E 360 96 0c 64
        E 120 86 0c 00
        E 360 96 0d 64
        E 120 86 0d 00
        E 360 96 0d 64
        E 120 86 0d 00
        E 360 96 0d 64
        E 120 86 0d 00
        E 360 96 0c 64
        E 120 86 0c 00
        E 360 96 0d 64
        E 120 86 0d 00
        E 360 96 0d 64
        E 120 86 0d 00
        E 360 96 0d 64
        E 120 86 0d 00
        E 360 96 0c 64
        E 120 86 0c 00
        E 360 96 0d 64
        E 120 86 0d 00
        E 360 96 0d 64
        E 120 86 0d 00
        E 360 96 0d 64
        E 120 86 0d 00
        E 360 96 0c 64
        E 120 86 0c 00
        E 360 96 0d 64
        E 120 86 0d 00
        E 360 96 0d 64
        E 120 86 0d 00
        E 360 96 0d 64
        E 120 86 0d 00
        E 360 96 0c 64
        E 120 86 0c 00
        E 360 96 0d 64
        E 120 86 0d 00
        E 360 96 0d 64
        E 120 86 0d 00
        E 360 96 0d 64
        E 120 86 0d 00
        E 360 96 0c 64
        E 120 86 0c 00
        E 360 96 0d 64
        E 120 86 0d 00
        E 360 96 0d 64
        E 120 86 0d 00
        E 360 96 0d 64
        E 120 86 0d 00
        E 360 96 0c 64
        E 120 86 0c 00
        E 360 96 0d 64
        E 120 86 0d 00
        E 360 96 0d 64
        E 120 86 0d 00
        E 360 96 0d 64
        E 120 86 0d 00
        E 360 96 0c 64
        E 120 86 0c 00
        E 360 96 0d 64
        E 120 86 0d 00
        E 360 96 0d 64
        E 120 86 0d 00
        E 360 96 0d 64
        E 120 86 0d 00
        E 360 96 0c 64
        E 120 86 0c 00
        E 360 96 0d 64
        E 120 86 0d 00
        E 360 96 0d 64
        E 120 86 0d 00
        E 360 96 0d 64
        E 120 86 0d 00
        E 360 96 0c 64
        E 120 86 0c 00
        E 360 96 0d 64
        E 120 86 0d 00
        E 360 96 0d 64
        E 120 86 0d 00
        E 360 96 0d 64
        E 120 86 0d 00
        E 360 96 0c 64
        E 120 86 0c 00
        E 360 96 0d 64
        E 120 86 0d 00
        E 360 96 0d 64
        E 120 86 0d 00
        E 360 96 0d 64
        E 120 86 0d 00
        E 360 96 0c 64
        E 120 86 0c 00
        E 360 96 0d 64
        E 120 86 0d 00
        E 360 96 0d 64
        E 120 86 0d 00
        E 360 96 0d 64
        E 120 86 0d 00
        E 360 96 0c 64
        E 120 86 0c 00
        E 360 96 0d 64
        E 120 86 0d 00
        E 360 96 0d 64
        E 120 86 0d 00
        E 360 96 0d 64
        E 120 86 0d 00
        E 360 96 0c 64
        E 120 86 0c 00
        E 360 96 0d 64
        E 120 86 0d 00
        E 360 96 0d 64
        E 120 86 0d 00
        E 360 96 0d 64
        E 120 86 0d 00
        E 360 96 0c 64
        E 120 86 0c 00
        E 360 96 0d 64
        E 120 86 0d 00
        E 360 96 0d 64
        E 120 86 0d 00
        E 360 96 0d 64
        E 120 86 0d 00
        E 360 96 0c 64
        E 120 86 0c 00
        E 360 96 0d 64
        E 120 86 0d 00
        E 360 96 0d 64
        E 120 86 0d 00
        E 360 96 0d 64
        E 120 86 0d 00
        E 360 96 0c 64
        E 120 86 0c 00
        E 360 96 0d 64
        E 120 86 0d 00
        E 360 96 0d 64
        E 120 86 0d 00
        E 360 96 0d 64
        E 120 86 0d 00
        E 360 96 0c 64
        E 120 86 0c 00
        E 360 96 0d 64
        E 120 86 0d 00
        E 360 96 0d 64
        E 120 86 0d 00
        E 360 96 0d 64
        E 120 86 0d 00
        E 360 96 0c 64
        E 120 86 0c 00
        E 360 96 0d 64
        E 120 86 0d 00
        E 360 96 0d 64
        E 120 86 0d 00
        E 360 96 0d 64
        E 120 86 0d 00
        E 360 96 0c 64
        E 120 86 0c 00
        E 360 96 0d 64
        E 120 86 0d 00
        E 360 96 0d 64
        E 120 86 0d 00
        E 360 96 0d 64
        E 120 86 0d 00
        E 360 96 0c 64
        E 120 86 0c 00
        E 360 96 0d 64
        E 120 86 0d 00
        E 360 96 0d 64
        E 120 86 0d 00
        E 360 96 0d 64
        E 120 86 0d 00
        E 360 96 0c 64
        E 120 86 0c 00
        E 360 96 0d 64
        E 120 86 0d 00
        E 360 96 0d 64
        E 120 86 0d 00
        E 360 96 0d 64
        E 120 86 0d 00
        E 360 96 0c 64
        E 120 86 0c 00
        E 360 96 0d 64
        E 120 86 0d 00
        E 360 96 0d 64
        E 120 86 0d 00
        E 360 96 0d 64
        E 120 86 0d 00
        E 360 96 0c 64
        E 120 86 0c 00
        E 360 96 0d 64
        E 120 86 0d 00
        E 360 96 0d 64
        E 120 86 0d 00
        E 360 96 0d 64
        E 120 86 0d 00
        E 360 96 0c 64
        E 120 86 0c 00
        E 360 96 0d 64
        E 120 86 0d 00
        E 360 96 0d 64
        E 120 86 0d 00
        E 360 96 0d 64
        E 120 86 0d 00
        E 360 96 0c 64
        E 120 86 0c 00
        E 360 96 0d 64
        E 120 86 0d 00
        E 360 96 0d 64
        E 120 86 0d 00
        E 360 96 0d 64
        E 120 86 0d 00
        E 360 96 0c 64
        E 120 86 0c 00
        E 360 96 0d 64
        E 120 86 0d 00
        E 360 96 0d 64
        E 120 86 0d 00
        E 360 96 0d 64
        E 120 86 0d 00
        E 360 96 0c 64
        E 120 86 0c 00
        E 360 96 0d 64
        E 120 86 0d 00
        E 360 96 0d 64
        E 120 86 0d 00
        E 360 96 0d 64
        E 120 86 0d 00
        E 360 96 0c 64
        E 120 86 0c 00
        E 360 96 0d 64
        E 120 86 0d 00
        E 360 96 0d 64
        E 120 86 0d 00
        E 360 96 0d 64
        E 120 86 0d 00
        E 360 96 0c 64
        E 120 86 0c 00
        E 360 96 0d 64
        E 120 86 0d 00
        E 360 96 0d 64
        E 120 86 0d 00
        E 360 96 0d 64
        E 120 86 0d 00
        E 360 96 0c 64
        E 120 86 0c 00
        E 360 96 0d 64
        E 120 86 0d 00
        E 360 96 0d 64
        E 120 86 0d 00
        E 360 96 0d 64
        E 120 86 0d 00
        E 360 96 0c 64
        E 120 86 0c 00
        E 360 96 0d 64
        E 120 86 0d 00
        E 360 96 0d 64
        E 120 86 0d 00
        E 360 96 0d 64
        E 120 86 0d 00
        E 360 96 0c 64
        E 120 86 0c 00
        E 360 96 0d 64
        E 120 86 0d 00
        E 360 96 0d 64
        E 120 86 0d 00
        E 360 96 0d 64
        E 120 86 0d 00
        E 360 96 0c 64
        E 120 86 0c 00
        E 360 96 0d 64
        E 120 86 0d 00
        E 360 96 0d 64
        E 120 86 0d 00
        E 360 96 0d 64
        E 120 86 0d 00
        E 360 96 0c 64
        E 120 86 0c 00
        E 360 96 0d 64
        E 120 86 0d 00
        E 360 96 0d 64
        E 120 86 0d 00
        E 360 96 0d 64
        E 120 86 0d 00
        E 360 96 0c 64
        E 120 86 0c 00
        E 360 96 0d 64
        E 120 86 0d 00
        E 360 96 0d 64
        E 120 86 0d 00
        E 360 96 0d 64
        E 120 86 0d 00
        E 360 96 0c 64
        E 120 86 0c 00
        E 360 96 0d 64
        E 120 86 0d 00
        E 360 96 0d 64
        E 120 86 0d 00
        E 360 96 0d 64
        E 120 86 0d 00
        E 360 96 0c 64
        E 120 86 0c 00
        E 360 96 0d 64
        E 120 86 0d 00
        E 360 96 0d 64
        E 120 86 0d 00
        E 360 96 0d 64
        E 120 86 0d 00
        E 360 96 0c 64
        E 120 86 0c 00
        E 360 96 0d 64
        E 120 86 0d 00
        E 360 96 0d 64
        E 120 86 0d 00
        E 360 96 0d 64
        E 120 86 0d 00
        E 360 96 0c 64
        E 120 86 0c 00
        E 360 96 0d 64
        E 120 86 0d 00
        E 360 96 0d 64
        E 120 86 0d 00
        E 360 96 0d 64
        E 120 86 0d 00
        E 360 96 0c 64
        E 120 86 0c 00
        E 360 96 0d 64
        E 120 86 0d 00
        E 360 96 0d 64
        E 120 86 0d 00
        E 360 96 0d 64
        E 120 86 0d 00
        E 360 96 0c 64
        E 120 86 0c 00
        E 360 96 0d 64
        E 120 86 0d 00
        E 360 96 0d 64
        E 120 86 0d 00
        E 360 96 0d 64
        E 120 86 0d 00
        E 360 96 0c 64
        E 120 86 0c 00
        E 360 96 0d 64
        E 120 86 0d 00
        E 360 96 0d 64
        E 120 86 0d 00
        E 360 96 0d 64
        E 120 86 0d 00
        E 360 96 0c 64
        E 120 86 0c 00
        E 360 96 0d 64
        E 120 86 0d 00
        E 360 96 0d 64
        E 120 86 0d 00
        E 360 96 0d 64
        E 120 86 0d 00
        E 360 96 0c 64
        E 120 86 0c 00
        E 360 96 0d 64
        E 120 86 0d 00
        E 360 96 0d 64
        E 120 86 0d 00
        E 360 96 0d 64
        E 120 86 0d 00
        E 360 96 0c 64
        E 120 86 0c 00
        E 360 96 0d 64
        E 120 86 0d 00
        E 360 96 0d 64
        E 120 86 0d 00
        E 360 96 0d 64
        E 120 86 0d 00
        E 360 96 0c 64
        E 120 86 0c 00
        E 360 96 0d 64
        E 120 86 0d 00
        E 360 96 0d 64
        E 120 86 0d 00
        E 360 96 0d 64
        E 120 86 0d 00
        E 360 b0 7b 00
        GUID {A81A382B-F545-420D-B667-DE9B32B07D6E}
        IGNTEMPO 0 120.00000000 4 4
        SRCCOLOR 193
        VELLANE 131 128 60
        COLORMAP "C:\Program Files\REAPER (x64)\Data\color_maps\rockband_guitarbass.png"
        CFGEDITVIEW -1463.167638 69.848485 0 48 0 0 0
        CFGEDIT 1 1 0 1 1 0 1 1 1 1 1 0.25000000 -8 -8 1544 872 0 2 1 1 0.00000000 0 1 0 0 0.500000 0 0 1.000000 64
        KEYSNAP 0 6 "102030050700" 0 "Pentatonic"
        EVTFILTER 0 -1 -1 -1 -1 0 1 0 0 -1.00000000 -1.00000000
      >
    >
  >
  <TRACK '{BC80B697-4579-4A0E-879B-9A2EE7D75235}'
    NAME "backing"
    PEAKCOL 16576
    BEAT -1
    AUTOMODE 0
    VOLPAN 1.00000000000000 0.00000000000000 -1.00000000000000 -1.00000000000000 1.00000000000000
    MUTESOLO 0 0 0
    IPHASE 0
    ISBUS 0 0
    BUSCOMP 0 0
    SHOWINMIX 1 0.666700 0.500000 1 0.500000 -1 -1 -1
    FREEMODE 0
    SEL 0
    REC 0 0 0 0 0 0 0
    VU 2
    TRACKHEIGHT 0 0
    INQ 0 0 0 0.5000000000 100 0 0 100
    NCHAN 2
    FX 1
    TRACKID {BC80B697-4579-4A0E-879B-9A2EE7D75235}
    PERF 0
    MIDIOUT -1
    MAINSEND 1 0
    <ITEM
      POSITION 0.00000000000000
      SNAPOFFS 0.00000000000000
      LENGTH 128.91399999999999
      LOOP 0
      ALLTAKES 0
      SEL 0
      FADEIN 1 0.000000 0.000000 1 0
      FADEOUT 1 0.000000 0.000000 1 0
      MUTE 0
      IGUID {54CD8241-5915-46FD-947E-718B88152C3B}
      IID 15
      NAME "backing.wav"
      VOLPAN 1.000000 0.000000 1.000000 -1.000000
      SOFFS 0.00000000000000
      PLAYRATE 1.00000000000000 1 0.00000000000000 -1
      CHANMODE 0
      GUID {A812173E-24AB-4648-B4A5-BD48B56CDDF4}
      <SOURCE WAVE
        FILE "C:\Users\Ruggery\Documents\Visual Studio Code\Projects\ruggy-customs-projects\songs\passport\wav\backing.wav"
      >
    >
  >
  <EXTENSIONS
  >
>
