<REAPER_PROJECT 0.1 "4.22/x64"
  RIPPLE 0
  GROUPOVERRIDE 0 0 0
  AUTOXFADE 1
  ENVATTACH 1
  MIXERUIFLAGS 11 48
  PEAKGAIN 1.00000000000000
  FEEDBACK 0
  PANLAW 1.00000000000000
  PROJOFFS 0.00000000000000 0
  MAXPROJLEN 0 600.00000000000000
  GRID 3199 8 1.00000000000000 8 1.00000000000000 0
  TIMEMODE 1 0 3
  PANMODE 3
  CURSOR 0.00000000000000
  ZOOM 7.26305855161787 0 0
  VZOOMEX 6
  USE_REC_CFG 0
  RECMODE 1
  SMPTESYNC 0 23.976024 100 40 1000 300 0 0.000000 1
  LOOP 1
  LOOPGRAN 0 4.00000000000000
  RECORD_PATH "" ""
  <RECORD_CFG
    ZXZhdxAD
  >
  <APPLYFX_CFG
  >
  RENDER_FILE "C:\Users\Ruggery\Desktop\backing.wav"
  RENDER_FMT 0 1 44100
  RENDER_1X 0
  RENDER_RANGE 2 0.00000000000000 0.00000000000000
  RENDER_RESAMPLE 3 0 1
  RENDER_ADDTOPROJ 0
  RENDER_STEMS 0
  RENDER_DITHER 0
  TIMELOCKMODE 0
  ITEMMIX 0
  DEFPITCHMODE 393216
  TAKELANE 1
  SAMPLERATE 44100 0 0
  <RENDER_CFG
    ZXZhdxAD
  >
  LOCK 1
  <METRONOME 6 2.000000
    VOL 0.250000 0.125000
    FREQ 800 1600 1
    BEATLEN 4
    SAMPLES "" ""
  >
  GLOBAL_AUTO -1
  TEMPO 120.00000000000000 4 4
  PLAYRATE 1.00000000000000 0 0.25000 4.00000
  SELECTION 173.10513447432763 0.00000000000000
  SELECTION2 173.10513447432763 0.00000000000000
  MASTERAUTOMODE 0
  MASTERTRACKHEIGHT 0
  MASTERPEAKCOL 16576
  MASTERMUTESOLO 0
  MASTERTRACKVIEW 0 0.666700 0.500000 0.500000 -1 -1 -1
  MASTERHWOUT 0 0 1.00000000000000 0.00000000000000 0 0 0 -1.00000000000000
  MASTER_NCH 2 2
  MASTER_VOLUME 0.21412339328026 0.00000000000000 -1.00000000000000 -1.00000000000000 1.00000000000000
  MASTER_PANMODE -1
  MASTER_FX 1
  MASTER_SEL 0
  <MASTERPLAYSPEEDENV
    ACT 0
    VIS 0 1 1.000000
    LANEHEIGHT 0 0
    ARM 0
    DEFSHAPE 0 -1 -1
  >
  <TEMPOENVEX
    ACT 1
    VIS 1 0 1.000000
    LANEHEIGHT 0 0
    ARM 0
    DEFSHAPE 1 -1 -1
    PT 0.000000000000 81.8000000000 1
  >
  <PROJBAY
  >
  <TRACK '{646512BD-E237-484D-AD60-88B7B00F6E68}'
    NAME "PART BASS"
    PEAKCOL 16576
    BEAT -1
    AUTOMODE 0
    VOLPAN 1.00000000000000 0.00000000000000 -1.00000000000000 -1.00000000000000 1.00000000000000
    MUTESOLO 0 0 0
    IPHASE 0
    ISBUS 1 1
    BUSCOMP 0 0
    SHOWINMIX 1 0.666700 0.500000 1 0.500000 -1 -1 -1
    FREEMODE 0
    SEL 0
    REC 0 0 0 0 0 0 0
    VU 2
    TRACKHEIGHT 0 0
    INQ 0 0 0 0.5000000000 100 0 0 100
    NCHAN 2
    FX 1
    TRACKID {646512BD-E237-484D-AD60-88B7B00F6E68}
    PERF 0
    MIDIOUT -1
    <MIDINOTENAMES
      0 127 "TRILL MARKER"
      0 126 "TREMOLO MARKER"
      0 125 "---"
      0 124 "BRE"
      0 123 "BRE"
      0 122 "BRE"
      0 121 "BRE"
      0 120 "BRE (use all 5)"
      0 119 "----"
      0 116 "OVERDRIVE"
      0 115 "----"
      0 103 "Solo Marker"
      0 102 "Force HOPO Off"
      0 101 "Force HOPO On"
      0 100 "EXPERT Orange"
      0 99 "EXPERT Blue"
      0 98 "EXPERT Yellow"
      0 97 "EXPERT Red"
      0 96 "EXPERT Green"
      0 95 "----"
      0 90 "Force HOPO Off"
      0 89 "Force HOPO On"
      0 88 "HARD Orange"
      0 87 "HARD Blue"
      0 86 "HARD Yellow"
      0 85 "HARD Red"
      0 84 "HARD Green"
      0 77 "----"
      0 76 "MEDIUM Orange"
      0 75 "MEDIUM Blue"
      0 74 "MEDIUM Yellow"
      0 73 "MEDIUM Red"
      0 72 "MEDIUM Green"
      0 65 "----"
      0 64 "EASY Orange"
      0 63 "EASY Blue"
      0 62 "EASY Yellow"
      0 61 "EASY Red"
      0 60 "EASY Green"
      0 59 "Fret 12"
      0 57 "Fret 11"
      0 56 "Fret 10"
      0 55 "Fret 9"
      0 53 "Fret 8"
      0 52 "Fret 7"
      0 50 "Fret 6"
      0 49 "Fret 5"
      0 47 "Fret 4"
      0 45 "Fret 3"
      0 43 "Fret 2"
      0 40 "Fret 1"
    >
    MAINSEND 1 0
    <FXCHAIN
      WNDRECT 325 156 891 559
      SHOW 0
      LASTSEL 0
      DOCKED 0
      BYPASS 0 0
      <VST "VSTi: RBN Preview (RBN)" "rbprev_vst64.dll" 0 ""
        dnBicu5e7f4AAAAAAgAAAAEAAAAAAAAAAgAAAAAAAAAEAAAAAQAAAA==
        AAAQAAMAqgAAABAAAAA=
      >
      FLOATPOS 0 0 0 0
      FXID {48B0FFF9-6192-4ED0-BD78-BDF56D6EF204}
      WAK 0
    >
    <ITEM
      POSITION 0.00000000000000
      SNAPOFFS 0.00000000000000
      LENGTH 173.10513447432763
      LOOP 0
      ALLTAKES 0
      SEL 0
      FADEIN 1 0.000000 0.000000 1 0
      FADEOUT 1 0.000000 0.000000 1 0
      MUTE 0
      IGUID {DCB0A381-9E0A-4F9E-8DE5-81ADBA4C05D8}
      IID 14
      NAME "PART BASS"
      VOLPAN 1.000000 0.000000 1.000000 -1.000000
      SOFFS 0.00000000000000 0.00000000000000
      PLAYRATE 1.00000000000000 1 0.00000000000000 -1
      CHANMODE 0
      GUID {53F475DE-53CD-46DC-8656-A53D061C1CB4}
      <SOURCE MIDI
        HASDATA 1 480 QN
        POOLEDEVTS {E962334F-9FD6-42AA-898D-6576327A0D8B}
        <X 0 0
          /wNQQVJUIEJBU1M=
        >
        E 3840 90 3e 60
        E 0 90 4b 60
        E 0 90 58 60
        E 0 90 64 60
        E 120 80 3e 00
        E 0 80 4b 00
        E 240 80 58 00
        E 0 80 64 00
        E 120 90 3e 60
        E 0 90 4b 60
        E 0 90 57 60
        E 0 90 63 60
        E 120 80 3e 00
        E 0 80 4b 00
        E 240 80 57 00
        E 0 80 63 00
        E 120 90 3d 60
        E 0 90 4a 60
        E 0 90 56 60
        E 0 90 62 60
        E 120 80 3d 00
        E 0 80 4a 00
        E 240 80 56 00
        E 0 80 62 00
        E 120 90 3d 60
        E 0 90 49 60
        E 0 90 55 60
        E 0 90 61 60
        E 120 80 3d 00
        E 0 80 49 00
        E 240 80 55 00
        E 0 80 61 00
        E 120 90 3c 60
        E 0 90 48 60
        E 0 90 54 60
        E 0 90 60 60
        E 120 80 3c 00
        E 0 80 48 00
        E 480 80 54 00
        E 0 80 60 00
        E 120 90 4a 60
        E 0 90 56 60
        E 0 90 62 60
        E 120 80 4a 00
        E 0 80 56 00
        E 0 80 62 00
        E 120 90 3c 60
        E 0 90 48 60
        E 0 90 54 60
        E 0 90 60 60
        E 480 80 3c 00
        E 0 80 48 00
        E 360 80 54 00
        E 0 80 60 00
        E 120 90 3e 60
        E 0 90 4b 60
        E 0 90 58 60
        E 0 90 64 60
        E 120 80 3e 00
        E 0 80 4b 00
        E 240 80 58 00
        E 0 80 64 00
        E 120 90 3e 60
        E 0 90 4b 60
        E 0 90 57 60
        E 0 90 63 60
        E 120 80 3e 00
        E 0 80 4b 00
        E 240 80 57 00
        E 0 80 63 00
        E 120 90 3d 60
        E 0 90 4a 60
        E 0 90 56 60
        E 0 90 62 60
        E 120 80 3d 00
        E 0 80 4a 00
        E 240 80 56 00
        E 0 80 62 00
        E 120 90 3d 60
        E 0 90 49 60
        E 0 90 55 60
        E 0 90 61 60
        E 120 80 3d 00
        E 0 80 49 00
        E 240 80 55 00
        E 0 80 61 00
        E 120 90 3c 60
        E 0 90 48 60
        E 0 90 54 60
        E 0 90 60 60
        E 120 80 3c 00
        E 0 80 48 00
        E 480 80 54 00
        E 0 80 60 00
        E 120 90 4a 60
        E 0 90 56 60
        E 0 90 62 60
        E 120 80 4a 00
        E 0 80 56 00
        E 0 80 62 00
        E 120 90 3c 60
        E 0 90 48 60
        E 0 90 54 60
        E 0 90 60 60
        E 480 80 3c 00
        E 0 80 48 00
        E 359 80 54 00
        E 0 80 60 00
        E 121 90 3d 60
        E 0 90 49 60
        E 0 90 55 60
        E 0 90 61 60
        E 0 90 74 60
        E 1440 80 3d 00
        E 0 80 49 00
        E 360 80 55 00
        E 0 80 61 00
        E 120 90 3e 60
        E 0 90 4b 60
        E 0 90 58 60
        E 0 90 64 60
        E 1440 80 3e 00
        E 0 80 4b 00
        E 360 80 58 00
        E 0 80 64 00
        E 120 80 74 00
        E 0 90 3e 60
        E 0 90 4b 60
        E 0 90 57 60
        E 0 90 63 60
        E 480 80 3e 00
        E 0 80 4b 00
        E 360 80 57 00
        E 0 80 63 00
        E 120 90 3d 60
        E 0 90 4a 60
        E 0 90 56 60
        E 0 90 62 60
        E 480 80 3d 00
        E 0 80 4a 00
        E 360 80 56 00
        E 0 80 62 00
        E 120 90 3c 60
        E 0 90 48 60
        E 0 90 54 60
        E 0 90 60 60
        E 120 80 3c 00
        E 0 80 48 00
        E 240 80 54 00
        E 0 80 60 00
        E 120 90 3d 60
        E 0 90 49 60
        E 0 90 55 60
        E 0 90 61 60
        E 960 80 3d 00
        E 0 80 49 00
        E 360 80 55 00
        E 0 80 61 00
        E 120 90 3e 60
        E 0 90 4b 60
        E 0 90 57 60
        E 0 90 63 60
        E 480 80 3e 00
        E 0 80 4b 00
        E 360 80 57 00
        E 0 80 63 00
        E 120 90 3d 60
        E 0 90 4a 60
        E 0 90 56 60
        E 0 90 62 60
        E 480 80 3d 00
        E 0 80 4a 00
        E 360 80 56 00
        E 0 80 62 00
        E 120 90 3c 60
        E 0 90 48 60
        E 0 90 54 60
        E 0 90 60 60
        E 120 80 3c 00
        E 0 80 48 00
        E 240 80 54 00
        E 0 80 60 00
        E 120 90 3d 60
        E 0 90 49 60
        E 0 90 55 60
        E 0 90 61 60
        E 480 80 3d 00
        E 0 80 49 00
        E 360 80 55 00
        E 0 80 61 00
        E 120 90 3d 60
        E 0 90 4a 60
        E 0 90 56 60
        E 0 90 62 60
        E 120 80 3d 00
        E 0 80 4a 00
        E 240 80 56 00
        E 0 80 62 00
        E 120 90 3e 60
        E 0 90 4b 60
        E 0 90 57 60
        E 0 90 63 60
        E 480 80 3e 00
        E 0 80 4b 00
        E 360 80 57 00
        E 0 80 63 00
        E 120 90 3d 60
        E 0 90 4a 60
        E 0 90 56 60
        E 0 90 62 60
        E 480 80 3d 00
        E 0 80 4a 00
        E 360 80 56 00
        E 0 80 62 00
        E 120 90 3d 60
        E 0 90 49 60
        E 0 90 55 60
        E 0 90 61 60
        E 1440 80 3d 00
        E 0 80 49 00
        E 360 80 55 00
        E 0 80 61 00
        E 120 90 3c 60
        E 0 90 48 60
        E 0 90 54 60
        E 0 90 60 60
        E 3360 80 3c 00
        E 0 80 48 00
        E 360 80 54 00
        E 0 80 60 00
        E 120 90 3e 60
        E 0 90 4b 60
        E 0 90 58 60
        E 0 90 64 60
        E 120 80 3e 00
        E 0 80 4b 00
        E 240 80 58 00
        E 0 80 64 00
        E 120 90 3e 60
        E 0 90 4b 60
        E 0 90 57 60
        E 0 90 63 60
        E 120 80 3e 00
        E 0 80 4b 00
        E 240 80 57 00
        E 0 80 63 00
        E 120 90 3d 60
        E 0 90 4a 60
        E 0 90 56 60
        E 0 90 62 60
        E 120 80 3d 00
        E 0 80 4a 00
        E 240 80 56 00
        E 0 80 62 00
        E 120 90 3d 60
        E 0 90 49 60
        E 0 90 55 60
        E 0 90 61 60
        E 120 80 3d 00
        E 0 80 49 00
        E 240 80 55 00
        E 0 80 61 00
        E 120 90 3c 60
        E 0 90 48 60
        E 0 90 54 60
        E 0 90 60 60
        E 0 90 74 60
        E 120 80 3c 00
        E 0 80 48 00
        E 480 80 54 00
        E 0 80 60 00
        E 120 90 4a 60
        E 0 90 56 60
        E 0 90 62 60
        E 120 80 4a 00
        E 0 80 56 00
        E 0 80 62 00
        E 120 90 3c 60
        E 0 90 48 60
        E 0 90 54 60
        E 0 90 60 60
        E 480 80 3c 00
        E 0 80 48 00
        E 360 80 54 00
        E 0 80 60 00
        E 120 80 74 00
        E 0 90 3e 60
        E 0 90 4b 60
        E 0 90 58 60
        E 0 90 64 60
        E 120 80 3e 00
        E 0 80 4b 00
        E 240 80 58 00
        E 0 80 64 00
        E 120 90 3e 60
        E 0 90 4b 60
        E 0 90 57 60
        E 0 90 63 60
        E 120 80 3e 00
        E 0 80 4b 00
        E 240 80 57 00
        E 0 80 63 00
        E 120 90 3d 60
        E 0 90 4a 60
        E 0 90 56 60
        E 0 90 62 60
        E 120 80 3d 00
        E 0 80 4a 00
        E 240 80 56 00
        E 0 80 62 00
        E 120 90 3d 60
        E 0 90 49 60
        E 0 90 55 60
        E 0 90 61 60
        E 120 80 3d 00
        E 0 80 49 00
        E 240 80 55 00
        E 0 80 61 00
        E 120 90 3c 60
        E 0 90 48 60
        E 0 90 54 60
        E 0 90 60 60
        E 120 80 3c 00
        E 0 80 48 00
        E 480 80 54 00
        E 0 80 60 00
        E 120 90 4a 60
        E 0 90 56 60
        E 0 90 62 60
        E 120 80 4a 00
        E 0 80 56 00
        E 0 80 62 00
        E 120 90 3c 60
        E 0 90 48 60
        E 0 90 54 60
        E 0 90 60 60
        E 480 80 3c 00
        E 0 80 48 00
        E 359 80 54 00
        E 0 80 60 00
        E 121 90 3d 60
        E 0 90 49 60
        E 0 90 55 60
        E 0 90 61 60
        E 1440 80 3d 00
        E 0 80 49 00
        E 360 80 55 00
        E 0 80 61 00
        E 120 90 3e 60
        E 0 90 4b 60
        E 0 90 58 60
        E 0 90 64 60
        E 1440 80 3e 00
        E 0 80 4b 00
        E 360 80 58 00
        E 0 80 64 00
        E 120 90 3e 60
        E 0 90 4b 60
        E 0 90 57 60
        E 0 90 63 60
        E 480 80 3e 00
        E 0 80 4b 00
        E 360 80 57 00
        E 0 80 63 00
        E 120 90 3d 60
        E 0 90 4a 60
        E 0 90 56 60
        E 0 90 62 60
        E 480 80 3d 00
        E 0 80 4a 00
        E 360 80 56 00
        E 0 80 62 00
        E 120 90 3c 60
        E 0 90 48 60
        E 0 90 54 60
        E 0 90 60 60
        E 120 80 3c 00
        E 0 80 48 00
        E 240 80 54 00
        E 0 80 60 00
        E 120 90 3d 60
        E 0 90 49 60
        E 0 90 55 60
        E 0 90 61 60
        E 960 80 3d 00
        E 0 80 49 00
        E 360 80 55 00
        E 0 80 61 00
        E 120 90 3e 60
        E 0 90 4b 60
        E 0 90 57 60
        E 0 90 63 60
        E 480 80 3e 00
        E 0 80 4b 00
        E 360 80 57 00
        E 0 80 63 00
        E 120 90 3d 60
        E 0 90 4a 60
        E 0 90 56 60
        E 0 90 62 60
        E 480 80 3d 00
        E 0 80 4a 00
        E 360 80 56 00
        E 0 80 62 00
        E 120 90 3c 60
        E 0 90 48 60
        E 0 90 54 60
        E 0 90 60 60
        E 120 80 3c 00
        E 0 80 48 00
        E 240 80 54 00
        E 0 80 60 00
        E 120 90 3d 60
        E 0 90 49 60
        E 0 90 55 60
        E 0 90 61 60
        E 480 80 3d 00
        E 0 80 49 00
        E 360 80 55 00
        E 0 80 61 00
        E 120 90 3d 60
        E 0 90 4a 60
        E 0 90 56 60
        E 0 90 62 60
        E 120 80 3d 00
        E 0 80 4a 00
        E 240 80 56 00
        E 0 80 62 00
        E 120 90 3e 60
        E 0 90 4b 60
        E 0 90 57 60
        E 0 90 63 60
        E 480 80 3e 00
        E 0 80 4b 00
        E 360 80 57 00
        E 0 80 63 00
        E 120 90 3d 60
        E 0 90 4a 60
        E 0 90 56 60
        E 0 90 62 60
        E 480 80 3d 00
        E 0 80 4a 00
        E 360 80 56 00
        E 0 80 62 00
        E 120 90 3d 60
        E 0 90 49 60
        E 0 90 55 60
        E 0 90 61 60
        E 1440 80 3d 00
        E 0 80 49 00
        E 360 80 55 00
        E 0 80 61 00
        E 120 90 3c 60
        E 0 90 48 60
        E 0 90 54 60
        E 0 90 60 60
        E 3360 80 3c 00
        E 0 80 48 00
        E 360 80 54 00
        E 0 80 60 00
        E 120 90 3e 60
        E 0 90 4b 60
        E 0 90 58 60
        E 0 90 64 60
        E 0 90 74 60
        E 120 80 3e 00
        E 0 80 4b 00
        E 240 80 58 00
        E 0 80 64 00
        E 120 90 3e 60
        E 0 90 4b 60
        E 0 90 57 60
        E 0 90 63 60
        E 120 80 3e 00
        E 0 80 4b 00
        E 240 80 57 00
        E 0 80 63 00
        E 120 90 3d 60
        E 0 90 4a 60
        E 0 90 56 60
        E 0 90 62 60
        E 120 80 3d 00
        E 0 80 4a 00
        E 240 80 56 00
        E 0 80 62 00
        E 120 90 3d 60
        E 0 90 49 60
        E 0 90 55 60
        E 0 90 61 60
        E 120 80 3d 00
        E 0 80 49 00
        E 240 80 55 00
        E 0 80 61 00
        E 120 90 3c 60
        E 0 90 48 60
        E 0 90 54 60
        E 0 90 60 60
        E 120 80 74 00
        E 0 80 3c 00
        E 0 80 48 00
        E 480 80 54 00
        E 0 80 60 00
        E 120 90 4a 60
        E 0 90 56 60
        E 0 90 62 60
        E 120 80 4a 00
        E 0 80 56 00
        E 0 80 62 00
        E 120 90 3c 60
        E 0 90 48 60
        E 0 90 54 60
        E 0 90 60 60
        E 480 80 3c 00
        E 0 80 48 00
        E 360 80 54 00
        E 0 80 60 00
        E 120 90 3e 60
        E 0 90 4b 60
        E 0 90 58 60
        E 0 90 64 60
        E 120 80 3e 00
        E 0 80 4b 00
        E 240 80 58 00
        E 0 80 64 00
        E 120 90 3e 60
        E 0 90 4b 60
        E 0 90 57 60
        E 0 90 63 60
        E 120 80 3e 00
        E 0 80 4b 00
        E 240 80 57 00
        E 0 80 63 00
        E 120 90 3d 60
        E 0 90 4a 60
        E 0 90 56 60
        E 0 90 62 60
        E 120 80 3d 00
        E 0 80 4a 00
        E 240 80 56 00
        E 0 80 62 00
        E 120 90 3d 60
        E 0 90 49 60
        E 0 90 55 60
        E 0 90 61 60
        E 120 80 3d 00
        E 0 80 49 00
        E 240 80 55 00
        E 0 80 61 00
        E 120 90 3c 60
        E 0 90 48 60
        E 0 90 54 60
        E 0 90 60 60
        E 120 80 3c 00
        E 0 80 48 00
        E 480 80 54 00
        E 0 80 60 00
        E 120 90 4a 60
        E 0 90 56 60
        E 0 90 62 60
        E 120 80 4a 00
        E 0 80 56 00
        E 0 80 62 00
        E 120 90 3c 60
        E 0 90 48 60
        E 0 90 54 60
        E 0 90 60 60
        E 480 80 3c 00
        E 0 80 48 00
        E 359 80 54 00
        E 0 80 60 00
        E 121 90 3d 60
        E 0 90 49 60
        E 0 90 55 60
        E 0 90 61 60
        E 1440 80 3d 00
        E 0 80 49 00
        E 360 80 55 00
        E 0 80 61 00
        E 120 90 3e 60
        E 0 90 4b 60
        E 0 90 58 60
        E 0 90 64 60
        E 1440 80 3e 00
        E 0 80 4b 00
        E 360 80 58 00
        E 0 80 64 00
        E 120 90 3e 60
        E 0 90 4b 60
        E 0 90 57 60
        E 0 90 63 60
        E 0 90 74 60
        E 480 80 3e 00
        E 0 80 4b 00
        E 360 80 57 00
        E 0 80 63 00
        E 120 90 3d 60
        E 0 90 4a 60
        E 0 90 56 60
        E 0 90 62 60
        E 480 80 3d 00
        E 0 80 4a 00
        E 360 80 56 00
        E 0 80 62 00
        E 120 90 3c 60
        E 0 90 48 60
        E 0 90 54 60
        E 0 90 60 60
        E 120 80 3c 00
        E 0 80 48 00
        E 240 80 54 00
        E 0 80 60 00
        E 120 90 3d 60
        E 0 90 49 60
        E 0 90 55 60
        E 0 90 61 60
        E 960 80 3d 00
        E 0 80 49 00
        E 360 80 55 00
        E 0 80 61 00
        E 120 80 74 00
        E 0 90 3e 60
        E 0 90 4b 60
        E 0 90 57 60
        E 0 90 63 60
        E 480 80 3e 00
        E 0 80 4b 00
        E 360 80 57 00
        E 0 80 63 00
        E 120 90 3d 60
        E 0 90 4a 60
        E 0 90 56 60
        E 0 90 62 60
        E 480 80 3d 00
        E 0 80 4a 00
        E 360 80 56 00
        E 0 80 62 00
        E 120 90 3c 60
        E 0 90 48 60
        E 0 90 54 60
        E 0 90 60 60
        E 120 80 3c 00
        E 0 80 48 00
        E 240 80 54 00
        E 0 80 60 00
        E 120 90 3d 60
        E 0 90 49 60
        E 0 90 55 60
        E 0 90 61 60
        E 480 80 3d 00
        E 0 80 49 00
        E 360 80 55 00
        E 0 80 61 00
        E 120 90 3d 60
        E 0 90 4a 60
        E 0 90 56 60
        E 0 90 62 60
        E 120 80 3d 00
        E 0 80 4a 00
        E 240 80 56 00
        E 0 80 62 00
        E 120 90 3e 60
        E 0 90 4b 60
        E 0 90 57 60
        E 0 90 63 60
        E 480 80 3e 00
        E 0 80 4b 00
        E 360 80 57 00
        E 0 80 63 00
        E 120 90 3d 60
        E 0 90 4a 60
        E 0 90 56 60
        E 0 90 62 60
        E 480 80 3d 00
        E 0 80 4a 00
        E 360 80 56 00
        E 0 80 62 00
        E 120 90 3d 60
        E 0 90 49 60
        E 0 90 55 60
        E 0 90 61 60
        E 1440 80 3d 00
        E 0 80 49 00
        E 360 80 55 00
        E 0 80 61 00
        E 120 90 3c 60
        E 0 90 48 60
        E 0 90 54 60
        E 0 90 60 60
        E 3360 80 3c 00
        E 0 80 48 00
        E 360 80 54 00
        E 0 80 60 00
        E 120 90 3e 60
        E 0 90 4b 60
        E 0 90 58 60
        E 0 90 64 60
        E 120 80 3e 00
        E 0 80 4b 00
        E 240 80 58 00
        E 0 80 64 00
        E 120 90 3e 60
        E 0 90 4b 60
        E 0 90 57 60
        E 0 90 63 60
        E 120 80 3e 00
        E 0 80 4b 00
        E 240 80 57 00
        E 0 80 63 00
        E 120 90 3d 60
        E 0 90 4a 60
        E 0 90 56 60
        E 0 90 62 60
        E 120 80 3d 00
        E 0 80 4a 00
        E 240 80 56 00
        E 0 80 62 00
        E 120 90 3d 60
        E 0 90 49 60
        E 0 90 55 60
        E 0 90 61 60
        E 120 80 3d 00
        E 0 80 49 00
        E 240 80 55 00
        E 0 80 61 00
        E 120 90 3c 60
        E 0 90 48 60
        E 0 90 54 60
        E 0 90 60 60
        E 120 80 3c 00
        E 0 80 48 00
        E 480 80 54 00
        E 0 80 60 00
        E 120 90 4a 60
        E 0 90 56 60
        E 0 90 62 60
        E 120 80 4a 00
        E 0 80 56 00
        E 0 80 62 00
        E 120 90 3c 60
        E 0 90 48 60
        E 0 90 54 60
        E 0 90 60 60
        E 480 80 3c 00
        E 0 80 48 00
        E 360 80 54 00
        E 0 80 60 00
        E 120 90 3e 60
        E 0 90 4b 60
        E 0 90 58 60
        E 0 90 64 60
        E 120 80 3e 00
        E 0 80 4b 00
        E 240 80 58 00
        E 0 80 64 00
        E 120 90 3e 60
        E 0 90 4b 60
        E 0 90 57 60
        E 0 90 63 60
        E 120 80 3e 00
        E 0 80 4b 00
        E 240 80 57 00
        E 0 80 63 00
        E 120 90 3d 60
        E 0 90 4a 60
        E 0 90 56 60
        E 0 90 62 60
        E 120 80 3d 00
        E 0 80 4a 00
        E 240 80 56 00
        E 0 80 62 00
        E 120 90 3d 60
        E 0 90 49 60
        E 0 90 55 60
        E 0 90 61 60
        E 120 80 3d 00
        E 0 80 49 00
        E 240 80 55 00
        E 0 80 61 00
        E 120 90 3c 60
        E 0 90 48 60
        E 0 90 54 60
        E 0 90 60 60
        E 0 90 74 60
        E 120 80 3c 00
        E 0 80 48 00
        E 480 80 54 00
        E 0 80 60 00
        E 120 90 4a 60
        E 0 90 56 60
        E 0 90 62 60
        E 120 80 4a 00
        E 0 80 56 00
        E 0 80 62 00
        E 120 90 3c 60
        E 0 90 48 60
        E 0 90 54 60
        E 0 90 60 60
        E 480 80 3c 00
        E 0 80 48 00
        E 359 80 54 00
        E 0 80 60 00
        E 121 80 74 00
        E 0 90 3d 60
        E 0 90 49 60
        E 0 90 55 60
        E 0 90 61 60
        E 1440 80 3d 00
        E 0 80 49 00
        E 360 80 55 00
        E 0 80 61 00
        E 120 90 3e 60
        E 0 90 4b 60
        E 0 90 58 60
        E 0 90 64 60
        E 1440 80 3e 00
        E 0 80 4b 00
        E 360 80 58 00
        E 0 80 64 00
        E 120 90 3e 60
        E 0 90 4b 60
        E 0 90 57 60
        E 0 90 63 60
        E 480 80 3e 00
        E 0 80 4b 00
        E 360 80 57 00
        E 0 80 63 00
        E 120 90 3d 60
        E 0 90 4a 60
        E 0 90 56 60
        E 0 90 62 60
        E 480 80 3d 00
        E 0 80 4a 00
        E 360 80 56 00
        E 0 80 62 00
        E 120 90 3c 60
        E 0 90 48 60
        E 0 90 54 60
        E 0 90 60 60
        E 120 80 3c 00
        E 0 80 48 00
        E 240 80 54 00
        E 0 80 60 00
        E 120 90 3d 60
        E 0 90 49 60
        E 0 90 55 60
        E 0 90 61 60
        E 960 80 3d 00
        E 0 80 49 00
        E 360 80 55 00
        E 0 80 61 00
        E 120 90 3e 60
        E 0 90 4b 60
        E 0 90 57 60
        E 0 90 63 60
        E 480 80 3e 00
        E 0 80 4b 00
        E 360 80 57 00
        E 0 80 63 00
        E 120 90 3d 60
        E 0 90 4a 60
        E 0 90 56 60
        E 0 90 62 60
        E 480 80 3d 00
        E 0 80 4a 00
        E 360 80 56 00
        E 0 80 62 00
        E 120 90 3c 60
        E 0 90 48 60
        E 0 90 54 60
        E 0 90 60 60
        E 120 80 3c 00
        E 0 80 48 00
        E 240 80 54 00
        E 0 80 60 00
        E 120 90 3d 60
        E 0 90 49 60
        E 0 90 55 60
        E 0 90 61 60
        E 480 80 3d 00
        E 0 80 49 00
        E 360 80 55 00
        E 0 80 61 00
        E 120 90 3d 60
        E 0 90 4a 60
        E 0 90 56 60
        E 0 90 62 60
        E 120 80 3d 00
        E 0 80 4a 00
        E 240 80 56 00
        E 0 80 62 00
        E 120 90 3e 60
        E 0 90 4b 60
        E 0 90 57 60
        E 0 90 63 60
        E 480 80 3e 00
        E 0 80 4b 00
        E 360 80 57 00
        E 0 80 63 00
        E 120 90 3d 60
        E 0 90 4a 60
        E 0 90 56 60
        E 0 90 62 60
        E 480 80 3d 00
        E 0 80 4a 00
        E 360 80 56 00
        E 0 80 62 00
        E 120 90 3d 60
        E 0 90 49 60
        E 0 90 55 60
        E 0 90 61 60
        E 1440 80 3d 00
        E 0 80 49 00
        E 360 80 55 00
        E 0 80 61 00
        E 120 90 3c 60
        E 0 90 48 60
        E 0 90 54 60
        E 0 90 60 60
        E 3840 80 3c 00
        E 0 80 48 00
        E 0 80 54 00
        E 0 80 60 00
        E 1920 b0 7b 00
        GUID {E0ACFB00-DF97-4D6E-A46D-B4DA46386A8C}
        IGNTEMPO 0 120.00000000 4 4
        SRCCOLOR 7
        VELLANE 132 128 60
        COLORMAP "C:\Program Files\REAPER (x64)\Data\color_maps\rockband_guitarbass.png"
        CFGEDITVIEW -5664.000000 7.263059 0 14 0 0 0
        CFGEDIT 1 1 0 1 1 0 1 1 1 1 1 0.25000000 -8 -8 1544 872 0 2 1 1 0.00000000 0 1 0 0 0.500000 0 0 1.000000 64
        KEYSNAP 0 6 "102030050700" 0 "Pentatonic"
        EVTFILTER 0 -1 -1 -1 -1 0 1 0 0 -1.00000000 -1.00000000
      >
    >
  >
  <TRACK '{F84D5B36-A9E3-4725-B5D1-17ABBE6C932E}'
    NAME "bass"
    PEAKCOL 16576
    BEAT -1
    AUTOMODE 0
    VOLPAN 1.00000000000000 0.00000000000000 -1.00000000000000 -1.00000000000000 1.00000000000000
    MUTESOLO 0 0 0
    IPHASE 0
    ISBUS 2 -1
    BUSCOMP 0 0
    SHOWINMIX 1 0.666700 0.500000 1 0.500000 -1 -1 -1
    FREEMODE 0
    SEL 0
    REC 0 0 0 0 0 0 0
    VU 2
    TRACKHEIGHT 0 0
    INQ 0 0 0 0.5000000000 100 0 0 100
    NCHAN 2
    FX 1
    TRACKID {F84D5B36-A9E3-4725-B5D1-17ABBE6C932E}
    PERF 0
    MIDIOUT -1
    MAINSEND 1 0
    <ITEM
      POSITION 0.00000000000000
      SNAPOFFS 0.00000000000000
      LENGTH 173.10513447432763
      LOOP 0
      ALLTAKES 0
      SEL 0
      FADEIN 1 0.000000 0.000000 1 0
      FADEOUT 1 0.000000 0.000000 1 0
      MUTE 0
      IGUID {AEECBF24-F2DA-41C4-A334-23B8628FACFC}
      IID 11
      NAME "bass.wav"
      VOLPAN 1.000000 0.000000 1.000000 -1.000000
      SOFFS 0.00000000000000
      PLAYRATE 1.00000000000000 1 0.00000000000000 -1
      CHANMODE 0
      GUID {3FA595F6-41E6-4383-8633-7640BD77B78B}
      <SOURCE WAVE
        FILE "wav\bass.wav"
      >
    >
  >
  <TRACK '{3B6987CC-5A66-4B29-8F89-D4490ADF54E4}'
    NAME "PART GUITAR"
    PEAKCOL 16576
    BEAT -1
    AUTOMODE 0
    VOLPAN 1.00000000000000 0.00000000000000 -1.00000000000000 -1.00000000000000 1.00000000000000
    MUTESOLO 0 0 0
    IPHASE 0
    ISBUS 1 1
    BUSCOMP 0 0
    SHOWINMIX 1 0.666700 0.500000 1 0.500000 -1 -1 -1
    FREEMODE 0
    SEL 0
    REC 0 0 0 0 0 0 0
    VU 2
    TRACKHEIGHT 0 0
    INQ 0 0 0 0.5000000000 100 0 0 100
    NCHAN 2
    FX 1
    TRACKID {3B6987CC-5A66-4B29-8F89-D4490ADF54E4}
    PERF 0
    MIDIOUT -1
    <MIDINOTENAMES
      0 127 "TRILL MARKER"
      0 126 "TREMOLO MARKER"
      0 125 "---"
      0 124 "BRE"
      0 123 "BRE"
      0 122 "BRE"
      0 121 "BRE"
      0 120 "BRE (use all 5)"
      0 119 "----"
      0 116 "OVERDRIVE"
      0 115 "----"
      0 103 "Solo Marker"
      0 102 "Force HOPO Off"
      0 101 "Force HOPO On"
      0 100 "EXPERT Orange"
      0 99 "EXPERT Blue"
      0 98 "EXPERT Yellow"
      0 97 "EXPERT Red"
      0 96 "EXPERT Green"
      0 95 "----"
      0 90 "Force HOPO Off"
      0 89 "Force HOPO On"
      0 88 "HARD Orange"
      0 87 "HARD Blue"
      0 86 "HARD Yellow"
      0 85 "HARD Red"
      0 84 "HARD Green"
      0 77 "----"
      0 76 "MEDIUM Orange"
      0 75 "MEDIUM Blue"
      0 74 "MEDIUM Yellow"
      0 73 "MEDIUM Red"
      0 72 "MEDIUM Green"
      0 65 "----"
      0 64 "EASY Orange"
      0 63 "EASY Blue"
      0 62 "EASY Yellow"
      0 61 "EASY Red"
      0 60 "EASY Green"
      0 59 "Fret 12"
      0 57 "Fret 11"
      0 56 "Fret 10"
      0 55 "Fret 9"
      0 53 "Fret 8"
      0 52 "Fret 7"
      0 50 "Fret 6"
      0 49 "Fret 5"
      0 47 "Fret 4"
      0 45 "Fret 3"
      0 43 "Fret 2"
      0 40 "Fret 1"
    >
    MAINSEND 1 0
    <FXCHAIN
      WNDRECT 560 370 891 559
      SHOW 0
      LASTSEL 0
      DOCKED 0
      BYPASS 0 0
      <VST "VSTi: RBN Preview (RBN)" "rbprev_vst64.dll" 0 ""
        dnBicu5e7f4AAAAAAgAAAAEAAAAAAAAAAgAAAAAAAAAEAAAAAQAAAA==
        AAAQAAAAWgAAABAAAAA=
      >
      FLOATPOS 0 0 0 0
      FXID {20F0B374-3794-4623-BC40-C059BF1CE5D7}
      WAK 0
    >
    <ITEM
      POSITION 0.00000000000000
      SNAPOFFS 0.00000000000000
      LENGTH 173.10513447432763
      LOOP 0
      ALLTAKES 0
      SEL 0
      FADEIN 1 0.000000 0.000000 1 0
      FADEOUT 1 0.000000 0.000000 1 0
      MUTE 0
      IGUID {37BEE5CE-A492-4CD0-9AF3-04B95ED88D93}
      IID 15
      NAME "PART GUITAR"
      VOLPAN 1.000000 0.000000 1.000000 -1.000000
      SOFFS 0.00000000000000 0.00000000000000
      PLAYRATE 1.00000000000000 1 0.00000000000000 -1
      CHANMODE 0
      GUID {7247DB8D-14F8-4160-A2C7-5F8C5C76B5EE}
      <SOURCE MIDI
        HASDATA 1 480 QN
        POOLEDEVTS {4118433C-90E7-444D-A6CD-DE42FD1E9D28}
        <X 0 0
          /wNQQVJUIEdVSVRBUg==
        >
        E 4080 90 3e 60
        E 0 90 4b 60
        E 0 90 58 60
        E 0 90 64 60
        E 120 80 3e 00
        E 0 80 4b 00
        E 0 80 58 00
        E 0 80 64 00
        E 120 90 3e 60
        E 0 90 4b 60
        E 0 90 58 60
        E 0 90 64 60
        E 120 80 3e 00
        E 0 80 4b 00
        E 0 80 58 00
        E 0 80 64 00
        E 0 90 63 60
        E 120 80 63 00
        E 0 90 4a 60
        E 0 90 56 60
        E 0 90 62 60
        E 120 80 4a 00
        E 0 80 56 00
        E 0 80 62 00
        E 0 90 61 60
        E 120 80 61 00
        E 0 90 3d 60
        E 0 90 4a 60
        E 0 90 56 60
        E 0 90 62 60
        E 120 80 3d 00
        E 0 80 4a 00
        E 240 80 56 00
        E 0 80 62 00
        E 120 90 3c 60
        E 0 90 49 60
        E 0 90 55 60
        E 0 90 61 60
        E 480 80 3c 00
        E 0 80 49 00
        E 0 80 55 00
        E 0 80 61 00
        E 480 90 3c 60
        E 0 90 48 60
        E 0 90 54 60
        E 0 90 60 60
        E 120 80 3c 00
        E 0 80 48 00
        E 0 80 54 00
        E 0 80 60 00
        E 0 90 61 60
        E 120 80 61 00
        E 0 90 49 60
        E 0 90 55 60
        E 0 90 61 60
        E 120 80 49 00
        E 0 80 55 00
        E 0 80 61 00
        E 0 90 62 60
        E 120 80 62 00
        E 0 90 3c 60
        E 0 90 49 60
        E 0 90 55 60
        E 0 90 61 60
        E 720 80 3c 00
        E 0 80 49 00
        E 240 80 55 00
        E 0 80 61 00
        E 240 90 3e 60
        E 0 90 4b 60
        E 0 90 58 60
        E 0 90 64 60
        E 120 80 3e 00
        E 0 80 4b 00
        E 0 80 58 00
        E 0 80 64 00
        E 120 90 3e 60
        E 0 90 4b 60
        E 0 90 58 60
        E 0 90 64 60
        E 120 80 3e 00
        E 0 80 4b 00
        E 0 80 58 00
        E 0 80 64 00
        E 0 90 63 60
        E 120 80 63 00
        E 0 90 4a 60
        E 0 90 56 60
        E 0 90 62 60
        E 120 80 4a 00
        E 0 80 56 00
        E 0 80 62 00
        E 0 90 61 60
        E 120 80 61 00
        E 0 90 3d 60
        E 0 90 4a 60
        E 0 90 56 60
        E 0 90 62 60
        E 120 80 3d 00
        E 0 80 4a 00
        E 240 80 56 00
        E 0 80 62 00
        E 120 90 3c 60
        E 0 90 49 60
        E 0 90 55 60
        E 0 90 61 60
        E 480 80 3c 00
        E 0 80 49 00
        E 0 80 55 00
        E 0 80 61 00
        E 480 90 3c 60
        E 0 90 48 60
        E 0 90 54 60
        E 0 90 60 60
        E 120 80 3c 00
        E 0 80 48 00
        E 0 80 54 00
        E 0 80 60 00
        E 0 90 61 60
        E 120 80 61 00
        E 0 90 49 60
        E 0 90 55 60
        E 0 90 61 60
        E 120 80 49 00
        E 0 80 55 00
        E 0 80 61 00
        E 0 90 62 60
        E 120 80 62 00
        E 0 90 3c 60
        E 0 90 49 60
        E 0 90 55 60
        E 0 90 61 60
        E 960 80 3c 00
        E 0 80 49 00
        E 0 80 55 00
        E 0 80 61 00
        E 0 90 74 60
        E 480 90 3d 60
        E 0 90 4a 60
        E 0 90 56 60
        E 0 90 62 60
        E 120 80 3d 00
        E 0 80 4a 00
        E 0 80 56 00
        E 0 80 62 00
        E 0 90 62 60
        E 120 80 62 00
        E 0 90 4a 60
        E 0 90 56 60
        E 0 90 62 60
        E 120 80 4a 00
        E 0 80 56 00
        E 0 80 62 00
        E 0 90 61 60
        E 120 80 61 00
        E 0 90 3e 60
        E 0 90 4b 60
        E 0 90 57 60
        E 0 90 63 60
        E 120 80 3e 00
        E 0 80 4b 00
        E 240 80 57 00
        E 0 80 63 00
        E 120 90 3c 60
        E 0 90 48 60
        E 0 90 54 60
        E 0 90 60 60
        E 360 80 3c 00
        E 0 80 48 00
        E 0 80 54 00
        E 0 80 60 00
        E 600 90 3c 60
        E 0 90 49 60
        E 0 90 55 60
        E 0 90 61 60
        E 120 80 3c 00
        E 0 80 49 00
        E 0 80 55 00
        E 0 80 61 00
        E 0 90 61 60 1
        E 120 80 61 00 1
        E 0 90 49 60 1
        E 0 90 55 60 1
        E 0 90 61 60 1
        E 120 80 49 00 1
        E 0 80 55 00 1
        E 0 80 61 00 1
        E 0 90 62 60
        E 120 80 62 00
        E 0 90 3e 60 1
        E 0 90 4b 60 1
        E 0 90 57 60 1
        E 0 90 63 60 1
        E 120 80 3e 00 1
        E 0 80 4b 00 1
        E 240 80 57 00 1
        E 0 80 63 00 1
        E 120 90 3e 60 1
        E 0 90 4b 60 1
        E 0 90 58 60 1
        E 0 90 64 60 1
        E 360 80 3e 00 1
        E 0 80 4b 00 1
        E 0 80 58 00 1
        E 0 80 64 00 1
        E 120 80 74 00
        E 480 90 3d 60
        E 0 90 4a 60
        E 0 90 56 60
        E 0 90 62 60
        E 120 80 3d 00
        E 0 80 4a 00
        E 0 80 56 00
        E 0 80 62 00
        E 0 90 62 60
        E 120 80 62 00
        E 0 90 4a 60
        E 0 90 56 60
        E 0 90 62 60
        E 120 80 4a 00
        E 0 80 56 00
        E 0 80 62 00
        E 0 90 63 60
        E 120 80 63 00
        E 0 90 3e 60
        E 0 90 4b 60
        E 0 90 58 60
        E 0 90 64 60
        E 120 80 3e 00
        E 0 80 4b 00
        E 240 80 58 00
        E 0 80 64 00
        E 120 90 3d 60
        E 0 90 4a 60
        E 0 90 56 60
        E 0 90 62 60
        E 120 80 3d 00
        E 0 80 4a 00
        E 240 80 56 00
        E 0 80 62 00
        E 120 90 3d 60
        E 0 90 4a 60
        E 0 90 56 60
        E 0 90 62 60
        E 120 80 3d 00
        E 0 80 4a 00
        E 0 80 56 00
        E 0 80 62 00
        E 240 90 4b 60
        E 0 90 57 60
        E 0 90 64 60
        E 120 80 64 00
        E 0 90 63 60
        E 960 80 4b 00
        E 0 80 57 00
        E 0 80 63 00
        E 960 90 3d 60
        E 0 90 4a 60
        E 0 90 56 60
        E 0 90 62 60
        E 120 80 3d 00
        E 0 80 4a 00
        E 0 80 56 00
        E 0 80 62 00
        E 0 90 62 60 1
        E 120 80 62 00 1
        E 0 90 4a 60 1
        E 0 90 56 60 1
        E 0 90 62 60 1
        E 120 80 4a 00 1
        E 0 80 56 00 1
        E 0 80 62 00 1
        E 0 90 63 60 1
        E 120 80 63 00 1
        E 0 90 3e 60 1
        E 0 90 4b 60 1
        E 0 90 58 60 1
        E 0 90 64 60 1
        E 120 80 3e 00 1
        E 0 80 4b 00 1
        E 240 80 58 00 1
        E 0 80 64 00 1
        E 120 90 3d 60 1
        E 0 90 4a 60 1
        E 0 90 56 60 1
        E 0 90 62 60 1
        E 120 80 3d 00 1
        E 0 80 4a 00 1
        E 240 80 56 00 1
        E 0 80 62 00 1
        E 120 90 3d 60 1
        E 0 90 4a 60 1
        E 0 90 56 60 1
        E 0 90 62 60 1
        E 120 80 3d 00 1
        E 0 80 4a 00 1
        E 0 80 56 00 1
        E 0 80 62 00 1
        E 240 90 4b 60 1
        E 0 90 57 60 1
        E 0 90 64 60 1
        E 120 80 64 00 1
        E 0 90 63 60 1
        E 480 80 4b 00
        E 360 80 57 00
        E 0 80 63 00
        E 120 90 3e 60
        E 0 90 4b 60
        E 0 90 57 60
        E 0 90 63 60
        E 120 80 3e 00
        E 0 80 4b 00
        E 0 80 57 00
        E 0 80 63 00
        E 120 90 4b 60
        E 0 90 58 60
        E 0 90 64 60
        E 120 80 4b 00
        E 0 80 58 00
        E 0 80 64 00
        E 120 90 3d 60
        E 0 90 4a 60
        E 0 90 56 60
        E 0 90 62 60
        E 960 80 3d 00
        E 0 80 4a 00
        E 360 80 56 00
        E 0 80 62 00
        E 120 90 3c 60
        E 0 90 49 60
        E 0 90 55 60
        E 0 90 61 60
        E 120 80 3c 00
        E 0 80 49 00
        E 0 80 55 00
        E 0 80 61 00
        E 120 90 4a 60
        E 0 90 56 60
        E 0 90 62 60
        E 120 80 4a 00
        E 0 80 56 00
        E 0 80 62 00
        E 120 90 3c 60
        E 0 90 49 60
        E 0 90 55 60
        E 0 90 61 60
        E 1200 80 3c 00
        E 0 80 49 00
        E 240 80 55 00
        E 0 80 61 00
        E 240 90 48 60
        E 0 90 54 60
        E 0 90 60 60
        E 120 80 48 00
        E 0 80 54 00
        E 0 80 60 00
        E 0 90 49 60
        E 0 90 55 60
        E 0 90 61 60
        E 120 80 49 00
        E 0 80 55 00
        E 0 80 61 00
        E 0 90 3c 60
        E 0 90 48 60
        E 0 90 54 60
        E 0 90 60 60
        E 1920 80 3c 00
        E 0 80 48 00
        E 0 80 54 00
        E 0 80 60 00
        E 2160 90 3e 60
        E 0 90 4b 60
        E 0 90 58 60
        E 0 90 64 60
        E 120 80 3e 00
        E 0 80 4b 00
        E 0 80 58 00
        E 0 80 64 00
        E 120 90 3e 60
        E 0 90 4b 60
        E 0 90 58 60
        E 0 90 64 60
        E 120 80 3e 00
        E 0 80 4b 00
        E 0 80 58 00
        E 0 80 64 00
        E 0 90 63 60
        E 120 80 63 00
        E 0 90 4a 60
        E 0 90 56 60
        E 0 90 62 60
        E 120 80 4a 00
        E 0 80 56 00
        E 0 80 62 00
        E 0 90 61 60
        E 120 80 61 00
        E 0 90 3d 60
        E 0 90 4a 60
        E 0 90 56 60
        E 0 90 62 60
        E 120 80 3d 00
        E 0 80 4a 00
        E 240 80 56 00
        E 0 80 62 00
        E 120 90 3c 60
        E 0 90 49 60
        E 0 90 55 60
        E 0 90 61 60
        E 480 80 3c 00
        E 0 80 49 00
        E 0 80 55 00
        E 0 80 61 00
        E 480 90 3c 60
        E 0 90 48 60
        E 0 90 54 60
        E 0 90 60 60
        E 120 80 3c 00
        E 0 80 48 00
        E 0 80 54 00
        E 0 80 60 00
        E 0 90 61 60
        E 120 80 61 00
        E 0 90 49 60
        E 0 90 55 60
        E 0 90 61 60
        E 120 80 49 00
        E 0 80 55 00
        E 0 80 61 00
        E 0 90 62 60
        E 120 80 62 00
        E 0 90 3c 60
        E 0 90 49 60
        E 0 90 55 60
        E 0 90 61 60
        E 720 80 3c 00
        E 0 80 49 00
        E 240 80 55 00
        E 0 80 61 00
        E 240 90 3e 60
        E 0 90 4b 60
        E 0 90 58 60
        E 0 90 64 60
        E 120 80 3e 00
        E 0 80 4b 00
        E 0 80 58 00
        E 0 80 64 00
        E 120 90 3e 60
        E 0 90 4b 60
        E 0 90 58 60
        E 0 90 64 60
        E 120 80 3e 00
        E 0 80 4b 00
        E 0 80 58 00
        E 0 80 64 00
        E 0 90 63 60
        E 120 80 63 00
        E 0 90 4a 60
        E 0 90 56 60
        E 0 90 62 60
        E 120 80 4a 00
        E 0 80 56 00
        E 0 80 62 00
        E 0 90 61 60
        E 120 80 61 00
        E 0 90 3d 60
        E 0 90 4a 60
        E 0 90 56 60
        E 0 90 62 60
        E 120 80 3d 00
        E 0 80 4a 00
        E 240 80 56 00
        E 0 80 62 00
        E 120 90 3c 60
        E 0 90 49 60
        E 0 90 55 60
        E 0 90 61 60
        E 480 80 3c 00
        E 0 80 49 00
        E 0 80 55 00
        E 0 80 61 00
        E 480 90 3c 60
        E 0 90 48 60
        E 0 90 54 60
        E 0 90 60 60
        E 0 90 74 60
        E 120 80 3c 00
        E 0 80 48 00
        E 0 80 54 00
        E 0 80 60 00
        E 0 90 61 60
        E 120 80 61 00
        E 0 90 49 60
        E 0 90 55 60
        E 0 90 61 60
        E 120 80 49 00
        E 0 80 55 00
        E 0 80 61 00
        E 0 90 62 60
        E 120 80 62 00
        E 0 90 3c 60
        E 0 90 49 60
        E 0 90 55 60
        E 0 90 61 60
        E 960 80 74 00
        E 0 80 3c 00
        E 0 80 49 00
        E 0 80 55 00
        E 0 80 61 00
        E 480 90 3d 60
        E 0 90 4a 60
        E 0 90 56 60
        E 0 90 62 60
        E 120 80 3d 00
        E 0 80 4a 00
        E 0 80 56 00
        E 0 80 62 00
        E 0 90 62 60
        E 120 80 62 00
        E 0 90 4a 60
        E 0 90 56 60
        E 0 90 62 60
        E 120 80 4a 00
        E 0 80 56 00
        E 0 80 62 00
        E 0 90 61 60
        E 120 80 61 00
        E 0 90 3e 60
        E 0 90 4b 60
        E 0 90 57 60
        E 0 90 63 60
        E 120 80 3e 00
        E 0 80 4b 00
        E 240 80 57 00
        E 0 80 63 00
        E 120 90 3c 60
        E 0 90 48 60
        E 0 90 54 60
        E 0 90 60 60
        E 360 80 3c 00
        E 0 80 48 00
        E 0 80 54 00
        E 0 80 60 00
        E 600 90 3c 60
        E 0 90 49 60
        E 0 90 55 60
        E 0 90 61 60
        E 120 80 3c 00
        E 0 80 49 00
        E 0 80 55 00
        E 0 80 61 00
        E 0 90 61 60 1
        E 120 80 61 00 1
        E 0 90 49 60 1
        E 0 90 55 60 1
        E 0 90 61 60 1
        E 120 80 49 00 1
        E 0 80 55 00 1
        E 0 80 61 00 1
        E 0 90 62 60
        E 120 80 62 00
        E 0 90 3e 60 1
        E 0 90 4b 60 1
        E 0 90 57 60 1
        E 0 90 63 60 1
        E 120 80 3e 00 1
        E 0 80 4b 00 1
        E 240 80 57 00 1
        E 0 80 63 00 1
        E 120 90 3e 60 1
        E 0 90 4b 60 1
        E 0 90 58 60 1
        E 0 90 64 60 1
        E 360 80 3e 00 1
        E 0 80 4b 00 1
        E 0 80 58 00 1
        E 0 80 64 00 1
        E 600 90 3d 60
        E 0 90 4a 60
        E 0 90 56 60
        E 0 90 62 60
        E 120 80 3d 00
        E 0 80 4a 00
        E 0 80 56 00
        E 0 80 62 00
        E 0 90 62 60
        E 120 80 62 00
        E 0 90 4a 60
        E 0 90 56 60
        E 0 90 62 60
        E 120 80 4a 00
        E 0 80 56 00
        E 0 80 62 00
        E 0 90 63 60
        E 120 80 63 00
        E 0 90 3e 60
        E 0 90 4b 60
        E 0 90 58 60
        E 0 90 64 60
        E 120 80 3e 00
        E 0 80 4b 00
        E 240 80 58 00
        E 0 80 64 00
        E 120 90 3d 60
        E 0 90 4a 60
        E 0 90 56 60
        E 0 90 62 60
        E 120 80 3d 00
        E 0 80 4a 00
        E 240 80 56 00
        E 0 80 62 00
        E 120 90 3d 60
        E 0 90 4a 60
        E 0 90 56 60
        E 0 90 62 60
        E 120 80 3d 00
        E 0 80 4a 00
        E 0 80 56 00
        E 0 80 62 00
        E 240 90 4b 60
        E 0 90 57 60
        E 0 90 64 60
        E 120 80 64 00
        E 0 90 63 60
        E 960 80 4b 00
        E 0 80 57 00
        E 0 80 63 00
        E 960 90 3d 60
        E 0 90 4a 60
        E 0 90 56 60
        E 0 90 62 60
        E 120 80 3d 00
        E 0 80 4a 00
        E 0 80 56 00
        E 0 80 62 00
        E 0 90 62 60 1
        E 120 80 62 00 1
        E 0 90 4a 60 1
        E 0 90 56 60 1
        E 0 90 62 60 1
        E 120 80 4a 00 1
        E 0 80 56 00 1
        E 0 80 62 00 1
        E 0 90 63 60 1
        E 120 80 63 00 1
        E 0 90 3e 60 1
        E 0 90 4b 60 1
        E 0 90 58 60 1
        E 0 90 64 60 1
        E 120 80 3e 00 1
        E 0 80 4b 00 1
        E 240 80 58 00 1
        E 0 80 64 00 1
        E 120 90 3d 60 1
        E 0 90 4a 60 1
        E 0 90 56 60 1
        E 0 90 62 60 1
        E 120 80 3d 00 1
        E 0 80 4a 00 1
        E 240 80 56 00 1
        E 0 80 62 00 1
        E 120 90 3d 60 1
        E 0 90 4a 60 1
        E 0 90 56 60 1
        E 0 90 62 60 1
        E 120 80 3d 00 1
        E 0 80 4a 00 1
        E 0 80 56 00 1
        E 0 80 62 00 1
        E 240 90 4b 60 1
        E 0 90 57 60 1
        E 0 90 64 60 1
        E 120 80 64 00 1
        E 0 90 63 60 1
        E 480 80 4b 00
        E 360 80 57 00
        E 0 80 63 00
        E 120 90 3e 60
        E 0 90 4b 60
        E 0 90 57 60
        E 0 90 63 60
        E 0 90 74 60
        E 120 80 3e 00
        E 0 80 4b 00
        E 0 80 57 00
        E 0 80 63 00
        E 120 90 4b 60
        E 0 90 58 60
        E 0 90 64 60
        E 120 80 4b 00
        E 0 80 58 00
        E 0 80 64 00
        E 120 90 3d 60
        E 0 90 4a 60
        E 0 90 56 60
        E 0 90 62 60
        E 960 80 3d 00
        E 0 80 4a 00
        E 360 80 56 00
        E 0 80 62 00
        E 120 90 3c 60
        E 0 90 49 60
        E 0 90 55 60
        E 0 90 61 60
        E 120 80 3c 00
        E 0 80 49 00
        E 0 80 55 00
        E 0 80 61 00
        E 120 90 4a 60
        E 0 90 56 60
        E 0 90 62 60
        E 120 80 4a 00
        E 0 80 56 00
        E 0 80 62 00
        E 120 90 3c 60
        E 0 90 49 60
        E 0 90 55 60
        E 0 90 61 60
        E 120 80 74 00
        E 1080 80 3c 00
        E 0 80 49 00
        E 240 80 55 00
        E 0 80 61 00
        E 240 90 48 60
        E 0 90 54 60
        E 0 90 60 60
        E 120 80 48 00
        E 0 80 54 00
        E 0 80 60 00
        E 0 90 49 60
        E 0 90 55 60
        E 0 90 61 60
        E 120 80 49 00
        E 0 80 55 00
        E 0 80 61 00
        E 0 90 3c 60
        E 0 90 48 60
        E 0 90 54 60
        E 0 90 60 60
        E 1920 80 3c 00
        E 0 80 48 00
        E 0 80 54 00
        E 0 80 60 00
        E 2160 90 3e 60
        E 0 90 4b 60
        E 0 90 58 60
        E 0 90 64 60
        E 120 80 3e 00
        E 0 80 4b 00
        E 0 80 58 00
        E 0 80 64 00
        E 120 90 3e 60
        E 0 90 4b 60
        E 0 90 58 60
        E 0 90 64 60
        E 120 80 3e 00
        E 0 80 4b 00
        E 0 80 58 00
        E 0 80 64 00
        E 0 90 63 60
        E 120 80 63 00
        E 0 90 4a 60
        E 0 90 56 60
        E 0 90 62 60
        E 120 80 4a 00
        E 0 80 56 00
        E 0 80 62 00
        E 0 90 61 60
        E 120 80 61 00
        E 0 90 3d 60
        E 0 90 4a 60
        E 0 90 56 60
        E 0 90 62 60
        E 120 80 3d 00
        E 0 80 4a 00
        E 240 80 56 00
        E 0 80 62 00
        E 120 90 3c 60
        E 0 90 49 60
        E 0 90 55 60
        E 0 90 61 60
        E 480 80 3c 00
        E 0 80 49 00
        E 0 80 55 00
        E 0 80 61 00
        E 480 90 3c 60
        E 0 90 48 60
        E 0 90 54 60
        E 0 90 60 60
        E 120 80 3c 00
        E 0 80 48 00
        E 0 80 54 00
        E 0 80 60 00
        E 0 90 61 60
        E 120 80 61 00
        E 0 90 49 60
        E 0 90 55 60
        E 0 90 61 60
        E 120 80 49 00
        E 0 80 55 00
        E 0 80 61 00
        E 0 90 62 60
        E 120 80 62 00
        E 0 90 3c 60
        E 0 90 49 60
        E 0 90 55 60
        E 0 90 61 60
        E 720 80 3c 00
        E 0 80 49 00
        E 240 80 55 00
        E 0 80 61 00
        E 240 90 3e 60
        E 0 90 4b 60
        E 0 90 58 60
        E 0 90 64 60
        E 120 80 3e 00
        E 0 80 4b 00
        E 0 80 58 00
        E 0 80 64 00
        E 120 90 3e 60
        E 0 90 4b 60
        E 0 90 58 60
        E 0 90 64 60
        E 120 80 3e 00
        E 0 80 4b 00
        E 0 80 58 00
        E 0 80 64 00
        E 0 90 63 60
        E 120 80 63 00
        E 0 90 4a 60
        E 0 90 56 60
        E 0 90 62 60
        E 120 80 4a 00
        E 0 80 56 00
        E 0 80 62 00
        E 0 90 61 60
        E 120 80 61 00
        E 0 90 3d 60
        E 0 90 4a 60
        E 0 90 56 60
        E 0 90 62 60
        E 120 80 3d 00
        E 0 80 4a 00
        E 240 80 56 00
        E 0 80 62 00
        E 120 90 3c 60
        E 0 90 49 60
        E 0 90 55 60
        E 0 90 61 60
        E 480 80 3c 00
        E 0 80 49 00
        E 0 80 55 00
        E 0 80 61 00
        E 480 90 3c 60
        E 0 90 48 60
        E 0 90 54 60
        E 0 90 60 60
        E 120 80 3c 00
        E 0 80 48 00
        E 0 80 54 00
        E 0 80 60 00
        E 0 90 61 60
        E 120 80 61 00
        E 0 90 49 60
        E 0 90 55 60
        E 0 90 61 60
        E 120 80 49 00
        E 0 80 55 00
        E 0 80 61 00
        E 0 90 62 60
        E 120 80 62 00
        E 0 90 3c 60
        E 0 90 49 60
        E 0 90 55 60
        E 0 90 61 60
        E 960 80 3c 00
        E 0 80 49 00
        E 0 80 55 00
        E 0 80 61 00
        E 480 90 3d 60
        E 0 90 4a 60
        E 0 90 56 60
        E 0 90 62 60
        E 120 80 3d 00
        E 0 80 4a 00
        E 0 80 56 00
        E 0 80 62 00
        E 0 90 62 60
        E 120 80 62 00
        E 0 90 4a 60
        E 0 90 56 60
        E 0 90 62 60
        E 120 80 4a 00
        E 0 80 56 00
        E 0 80 62 00
        E 0 90 61 60
        E 120 80 61 00
        E 0 90 3e 60
        E 0 90 4b 60
        E 0 90 57 60
        E 0 90 63 60
        E 120 80 3e 00
        E 0 80 4b 00
        E 240 80 57 00
        E 0 80 63 00
        E 120 90 3c 60
        E 0 90 48 60
        E 0 90 54 60
        E 0 90 60 60
        E 360 80 3c 00
        E 0 80 48 00
        E 0 80 54 00
        E 0 80 60 00
        E 600 90 3c 60
        E 0 90 49 60
        E 0 90 55 60
        E 0 90 61 60
        E 120 80 3c 00
        E 0 80 49 00
        E 0 80 55 00
        E 0 80 61 00
        E 0 90 61 60 1
        E 120 80 61 00 1
        E 0 90 49 60 1
        E 0 90 55 60 1
        E 0 90 61 60 1
        E 120 80 49 00 1
        E 0 80 55 00 1
        E 0 80 61 00 1
        E 0 90 62 60
        E 120 80 62 00
        E 0 90 3e 60 1
        E 0 90 4b 60 1
        E 0 90 57 60 1
        E 0 90 63 60 1
        E 120 80 3e 00 1
        E 0 80 4b 00 1
        E 240 80 57 00 1
        E 0 80 63 00 1
        E 120 90 3e 60 1
        E 0 90 4b 60 1
        E 0 90 58 60 1
        E 0 90 64 60 1
        E 360 80 3e 00 1
        E 0 80 4b 00 1
        E 0 80 58 00 1
        E 0 80 64 00 1
        E 120 90 74 60
        E 480 90 3d 60
        E 0 90 4a 60
        E 0 90 56 60
        E 0 90 62 60
        E 120 80 3d 00
        E 0 80 4a 00
        E 0 80 56 00
        E 0 80 62 00
        E 0 90 62 60
        E 120 80 62 00
        E 0 90 4a 60
        E 0 90 56 60
        E 0 90 62 60
        E 120 80 4a 00
        E 0 80 56 00
        E 0 80 62 00
        E 0 90 63 60
        E 120 80 63 00
        E 0 90 3e 60
        E 0 90 4b 60
        E 0 90 58 60
        E 0 90 64 60
        E 120 80 3e 00
        E 0 80 4b 00
        E 240 80 58 00
        E 0 80 64 00
        E 120 90 3d 60
        E 0 90 4a 60
        E 0 90 56 60
        E 0 90 62 60
        E 120 80 3d 00
        E 0 80 4a 00
        E 240 80 56 00
        E 0 80 62 00
        E 120 90 3d 60
        E 0 90 4a 60
        E 0 90 56 60
        E 0 90 62 60
        E 120 80 3d 00
        E 0 80 4a 00
        E 0 80 56 00
        E 0 80 62 00
        E 240 90 4b 60
        E 0 90 57 60
        E 0 90 64 60
        E 120 80 64 00
        E 0 90 63 60
        E 960 80 4b 00
        E 0 80 57 00
        E 0 80 63 00
        E 480 80 74 00
        E 480 90 3d 60
        E 0 90 4a 60
        E 0 90 56 60
        E 0 90 62 60
        E 120 80 3d 00
        E 0 80 4a 00
        E 0 80 56 00
        E 0 80 62 00
        E 0 90 62 60 1
        E 120 80 62 00 1
        E 0 90 4a 60 1
        E 0 90 56 60 1
        E 0 90 62 60 1
        E 120 80 4a 00 1
        E 0 80 56 00 1
        E 0 80 62 00 1
        E 0 90 63 60 1
        E 120 80 63 00 1
        E 0 90 3e 60 1
        E 0 90 4b 60 1
        E 0 90 58 60 1
        E 0 90 64 60 1
        E 120 80 3e 00 1
        E 0 80 4b 00 1
        E 240 80 58 00 1
        E 0 80 64 00 1
        E 120 90 3d 60 1
        E 0 90 4a 60 1
        E 0 90 56 60 1
        E 0 90 62 60 1
        E 120 80 3d 00 1
        E 0 80 4a 00 1
        E 240 80 56 00 1
        E 0 80 62 00 1
        E 120 90 3d 60 1
        E 0 90 4a 60 1
        E 0 90 56 60 1
        E 0 90 62 60 1
        E 120 80 3d 00 1
        E 0 80 4a 00 1
        E 0 80 56 00 1
        E 0 80 62 00 1
        E 240 90 4b 60 1
        E 0 90 57 60 1
        E 0 90 64 60 1
        E 120 80 64 00 1
        E 0 90 63 60 1
        E 480 80 4b 00
        E 360 80 57 00
        E 0 80 63 00
        E 120 90 3e 60
        E 0 90 4b 60
        E 0 90 57 60
        E 0 90 63 60
        E 120 80 3e 00
        E 0 80 4b 00
        E 0 80 57 00
        E 0 80 63 00
        E 120 90 4b 60
        E 0 90 58 60
        E 0 90 64 60
        E 120 80 4b 00
        E 0 80 58 00
        E 0 80 64 00
        E 120 90 3d 60
        E 0 90 4a 60
        E 0 90 56 60
        E 0 90 62 60
        E 960 80 3d 00
        E 0 80 4a 00
        E 360 80 56 00
        E 0 80 62 00
        E 120 90 3c 60
        E 0 90 49 60
        E 0 90 55 60
        E 0 90 61 60
        E 120 80 3c 00
        E 0 80 49 00
        E 0 80 55 00
        E 0 80 61 00
        E 120 90 4a 60
        E 0 90 56 60
        E 0 90 62 60
        E 120 80 4a 00
        E 0 80 56 00
        E 0 80 62 00
        E 120 90 3c 60
        E 0 90 49 60
        E 0 90 55 60
        E 0 90 61 60
        E 1200 80 3c 00
        E 0 80 49 00
        E 240 80 55 00
        E 0 80 61 00
        E 240 90 48 60
        E 0 90 54 60
        E 0 90 60 60
        E 120 80 48 00
        E 0 80 54 00
        E 0 80 60 00
        E 0 90 49 60
        E 0 90 55 60
        E 0 90 61 60
        E 120 80 49 00
        E 0 80 55 00
        E 0 80 61 00
        E 0 90 3c 60
        E 0 90 48 60
        E 0 90 54 60
        E 0 90 60 60
        E 1920 80 3c 00
        E 0 80 48 00
        E 0 80 54 00
        E 0 80 60 00
        E 2160 90 3e 60
        E 0 90 4b 60
        E 0 90 58 60
        E 0 90 64 60
        E 120 80 3e 00
        E 0 80 4b 00
        E 0 80 58 00
        E 0 80 64 00
        E 120 90 3e 60
        E 0 90 4b 60
        E 0 90 58 60
        E 0 90 64 60
        E 120 80 3e 00
        E 0 80 4b 00
        E 0 80 58 00
        E 0 80 64 00
        E 0 90 63 60
        E 120 80 63 00
        E 0 90 4a 60
        E 0 90 56 60
        E 0 90 62 60
        E 120 80 4a 00
        E 0 80 56 00
        E 0 80 62 00
        E 0 90 61 60
        E 120 80 61 00
        E 0 90 3d 60
        E 0 90 4a 60
        E 0 90 56 60
        E 0 90 62 60
        E 120 80 3d 00
        E 0 80 4a 00
        E 240 80 56 00
        E 0 80 62 00
        E 120 90 3c 60
        E 0 90 49 60
        E 0 90 55 60
        E 0 90 61 60
        E 480 80 3c 00
        E 0 80 49 00
        E 0 80 55 00
        E 0 80 61 00
        E 480 90 3c 60
        E 0 90 48 60
        E 0 90 54 60
        E 0 90 60 60
        E 120 80 3c 00
        E 0 80 48 00
        E 0 80 54 00
        E 0 80 60 00
        E 0 90 61 60
        E 120 80 61 00
        E 0 90 49 60
        E 0 90 55 60
        E 0 90 61 60
        E 120 80 49 00
        E 0 80 55 00
        E 0 80 61 00
        E 0 90 62 60
        E 120 80 62 00
        E 0 90 3c 60
        E 0 90 49 60
        E 0 90 55 60
        E 0 90 61 60
        E 720 80 3c 00
        E 0 80 49 00
        E 240 80 55 00
        E 0 80 61 00
        E 240 90 3e 60
        E 0 90 4b 60
        E 0 90 58 60
        E 0 90 64 60
        E 120 80 3e 00
        E 0 80 4b 00
        E 0 80 58 00
        E 0 80 64 00
        E 120 90 3e 60
        E 0 90 4b 60
        E 0 90 58 60
        E 0 90 64 60
        E 120 80 3e 00
        E 0 80 4b 00
        E 0 80 58 00
        E 0 80 64 00
        E 0 90 63 60
        E 120 80 63 00
        E 0 90 4a 60
        E 0 90 56 60
        E 0 90 62 60
        E 120 80 4a 00
        E 0 80 56 00
        E 0 80 62 00
        E 0 90 61 60
        E 120 80 61 00
        E 0 90 3d 60
        E 0 90 4a 60
        E 0 90 56 60
        E 0 90 62 60
        E 120 80 3d 00
        E 0 80 4a 00
        E 240 80 56 00
        E 0 80 62 00
        E 120 90 3c 60
        E 0 90 49 60
        E 0 90 55 60
        E 0 90 61 60
        E 480 80 3c 00
        E 0 80 49 00
        E 0 80 55 00
        E 0 80 61 00
        E 480 90 3c 60
        E 0 90 48 60
        E 0 90 54 60
        E 0 90 60 60
        E 120 80 3c 00
        E 0 80 48 00
        E 0 80 54 00
        E 0 80 60 00
        E 0 90 61 60
        E 120 80 61 00
        E 0 90 49 60
        E 0 90 55 60
        E 0 90 61 60
        E 120 80 49 00
        E 0 80 55 00
        E 0 80 61 00
        E 0 90 62 60
        E 120 80 62 00
        E 0 90 3c 60
        E 0 90 49 60
        E 0 90 55 60
        E 0 90 61 60
        E 960 80 3c 00
        E 0 80 49 00
        E 0 80 55 00
        E 0 80 61 00
        E 0 90 74 60
        E 480 90 3d 60
        E 0 90 4a 60
        E 0 90 56 60
        E 0 90 62 60
        E 120 80 3d 00
        E 0 80 4a 00
        E 0 80 56 00
        E 0 80 62 00
        E 0 90 62 60
        E 120 80 62 00
        E 0 90 4a 60
        E 0 90 56 60
        E 0 90 62 60
        E 120 80 4a 00
        E 0 80 56 00
        E 0 80 62 00
        E 0 90 61 60
        E 120 80 61 00
        E 0 90 3e 60
        E 0 90 4b 60
        E 0 90 57 60
        E 0 90 63 60
        E 120 80 3e 00
        E 0 80 4b 00
        E 240 80 57 00
        E 0 80 63 00
        E 120 90 3c 60
        E 0 90 48 60
        E 0 90 54 60
        E 0 90 60 60
        E 360 80 3c 00
        E 0 80 48 00
        E 0 80 54 00
        E 0 80 60 00
        E 600 90 3c 60
        E 0 90 49 60
        E 0 90 55 60
        E 0 90 61 60
        E 120 80 3c 00
        E 0 80 49 00
        E 0 80 55 00
        E 0 80 61 00
        E 0 90 61 60 1
        E 120 80 61 00 1
        E 0 90 49 60 1
        E 0 90 55 60 1
        E 0 90 61 60 1
        E 120 80 49 00 1
        E 0 80 55 00 1
        E 0 80 61 00 1
        E 0 90 62 60
        E 120 80 62 00
        E 0 90 3e 60 1
        E 0 90 4b 60 1
        E 0 90 57 60 1
        E 0 90 63 60 1
        E 120 80 3e 00 1
        E 0 80 4b 00 1
        E 240 80 57 00 1
        E 0 80 63 00 1
        E 120 90 3e 60 1
        E 0 90 4b 60 1
        E 0 90 58 60 1
        E 0 90 64 60 1
        E 360 80 3e 00 1
        E 0 80 4b 00 1
        E 0 80 58 00 1
        E 0 80 64 00 1
        E 120 80 74 00
        E 480 90 3d 60
        E 0 90 4a 60
        E 0 90 56 60
        E 0 90 62 60
        E 120 80 3d 00
        E 0 80 4a 00
        E 0 80 56 00
        E 0 80 62 00
        E 0 90 62 60
        E 120 80 62 00
        E 0 90 4a 60
        E 0 90 56 60
        E 0 90 62 60
        E 120 80 4a 00
        E 0 80 56 00
        E 0 80 62 00
        E 0 90 63 60
        E 120 80 63 00
        E 0 90 3e 60
        E 0 90 4b 60
        E 0 90 58 60
        E 0 90 64 60
        E 120 80 3e 00
        E 0 80 4b 00
        E 240 80 58 00
        E 0 80 64 00
        E 120 90 3d 60
        E 0 90 4a 60
        E 0 90 56 60
        E 0 90 62 60
        E 120 80 3d 00
        E 0 80 4a 00
        E 240 80 56 00
        E 0 80 62 00
        E 120 90 3d 60
        E 0 90 4a 60
        E 0 90 56 60
        E 0 90 62 60
        E 120 80 3d 00
        E 0 80 4a 00
        E 0 80 56 00
        E 0 80 62 00
        E 240 90 4b 60
        E 0 90 57 60
        E 0 90 64 60
        E 120 80 64 00
        E 0 90 63 60
        E 960 80 4b 00
        E 0 80 57 00
        E 0 80 63 00
        E 960 90 3d 60
        E 0 90 4a 60
        E 0 90 56 60
        E 0 90 62 60
        E 120 80 3d 00
        E 0 80 4a 00
        E 0 80 56 00
        E 0 80 62 00
        E 0 90 62 60 1
        E 120 80 62 00 1
        E 0 90 4a 60 1
        E 0 90 56 60 1
        E 0 90 62 60 1
        E 120 80 4a 00 1
        E 0 80 56 00 1
        E 0 80 62 00 1
        E 0 90 63 60 1
        E 120 80 63 00 1
        E 0 90 3e 60 1
        E 0 90 4b 60 1
        E 0 90 58 60 1
        E 0 90 64 60 1
        E 120 80 3e 00 1
        E 0 80 4b 00 1
        E 240 80 58 00 1
        E 0 80 64 00 1
        E 120 90 3d 60 1
        E 0 90 4a 60 1
        E 0 90 56 60 1
        E 0 90 62 60 1
        E 120 80 3d 00 1
        E 0 80 4a 00 1
        E 240 80 56 00 1
        E 0 80 62 00 1
        E 120 90 3d 60 1
        E 0 90 4a 60 1
        E 0 90 56 60 1
        E 0 90 62 60 1
        E 120 80 3d 00 1
        E 0 80 4a 00 1
        E 0 80 56 00 1
        E 0 80 62 00 1
        E 240 90 4b 60 1
        E 0 90 57 60 1
        E 0 90 64 60 1
        E 120 80 64 00 1
        E 0 90 63 60 1
        E 480 80 4b 00
        E 360 80 57 00
        E 0 80 63 00
        E 120 90 3e 60
        E 0 90 4b 60
        E 0 90 57 60
        E 0 90 63 60
        E 120 80 3e 00
        E 0 80 4b 00
        E 0 80 57 00
        E 0 80 63 00
        E 120 90 4b 60
        E 0 90 58 60
        E 0 90 64 60
        E 120 80 4b 00
        E 0 80 58 00
        E 0 80 64 00
        E 120 90 3d 60
        E 0 90 4a 60
        E 0 90 56 60
        E 0 90 62 60
        E 960 80 3d 00
        E 0 80 4a 00
        E 360 80 56 00
        E 0 80 62 00
        E 120 90 3c 60
        E 0 90 49 60
        E 0 90 55 60
        E 0 90 61 60
        E 120 80 3c 00
        E 0 80 49 00
        E 0 80 55 00
        E 0 80 61 00
        E 120 90 4a 60
        E 0 90 56 60
        E 0 90 62 60
        E 120 80 4a 00
        E 0 80 56 00
        E 0 80 62 00
        E 120 90 3c 60
        E 0 90 49 60
        E 0 90 55 60
        E 0 90 61 60
        E 1200 80 3c 00
        E 0 80 49 00
        E 240 80 55 00
        E 0 80 61 00
        E 240 90 48 60
        E 0 90 54 60
        E 0 90 60 60
        E 120 80 48 00
        E 0 80 54 00
        E 0 80 60 00
        E 0 90 49 60
        E 0 90 55 60
        E 0 90 61 60
        E 120 80 49 00
        E 0 80 55 00
        E 0 80 61 00
        E 0 90 3c 60
        E 0 90 48 60
        E 0 90 54 60
        E 0 90 60 60
        E 1920 80 3c 00
        E 0 80 48 00
        E 0 80 54 00
        E 0 80 60 00
        E 3840 b0 7b 00
        GUID {7CC6F668-6AB7-4B27-A0BF-CB3CCF03FFF2}
        IGNTEMPO 0 120.00000000 4 4
        SRCCOLOR 8
        VELLANE 132 128 60
        COLORMAP "C:\Program Files\REAPER (x64)\Data\color_maps\rockband_guitarbass.png"
        CFGEDITVIEW -5664.000000 7.263059 11 14 0 0 0
        CFGEDIT 1 1 0 1 1 0 1 1 1 1 1 0.25000000 -8 -8 1544 872 0 2 1 1 0.00000000 0 1 0 0 0.500000 0 0 1.000000 64
        KEYSNAP 0 6 "102030050700" 0 "Pentatonic"
        EVTFILTER 0 -1 -1 -1 -1 0 1 0 0 -1.00000000 -1.00000000
      >
    >
  >
  <TRACK '{61F7FC03-81A8-4F00-8718-643359F95EB0}'
    NAME "guitar"
    PEAKCOL 16576
    BEAT -1
    AUTOMODE 0
    VOLPAN 1.00000000000000 0.00000000000000 -1.00000000000000 -1.00000000000000 1.00000000000000
    MUTESOLO 0 0 0
    IPHASE 0
    ISBUS 2 -1
    BUSCOMP 0 0
    SHOWINMIX 1 0.666700 0.500000 1 0.500000 -1 -1 -1
    FREEMODE 0
    SEL 0
    REC 0 0 0 0 0 0 0
    VU 2
    TRACKHEIGHT 0 0
    INQ 0 0 0 0.5000000000 100 0 0 100
    NCHAN 2
    FX 1
    TRACKID {61F7FC03-81A8-4F00-8718-643359F95EB0}
    PERF 0
    MIDIOUT -1
    MAINSEND 1 0
    <ITEM
      POSITION 0.00000000000000
      SNAPOFFS 0.00000000000000
      LENGTH 173.10513447432763
      LOOP 0
      ALLTAKES 0
      SEL 0
      FADEIN 1 0.000000 0.000000 1 0
      FADEOUT 1 0.000000 0.000000 1 0
      MUTE 0
      IGUID {10782700-3FE9-46DA-B1B3-C3CA62C03AB8}
      IID 12
      NAME "guitar.wav"
      VOLPAN 1.000000 0.000000 1.000000 -1.000000
      SOFFS 0.00000000000000
      PLAYRATE 1.00000000000000 1 0.00000000000000 -1
      CHANMODE 0
      GUID {565D2E23-E216-44B0-8292-45AAF5F9FD2B}
      <SOURCE WAVE
        FILE "wav\guitar.wav"
      >
    >
  >
  <TRACK '{F2EBB1D9-BF67-4F40-9B6B-68D81A63DD57}'
    NAME "PART KEYS"
    PEAKCOL 16576
    BEAT -1
    AUTOMODE 0
    VOLPAN 1.00000000000000 0.00000000000000 -1.00000000000000 -1.00000000000000 1.00000000000000
    MUTESOLO 0 0 0
    IPHASE 0
    ISBUS 1 1
    BUSCOMP 0 0
    SHOWINMIX 1 0.666700 0.500000 1 0.500000 -1 -1 -1
    FREEMODE 0
    SEL 0
    REC 0 0 0 0 0 0 0
    VU 2
    TRACKHEIGHT 0 0
    INQ 0 0 0 0.5000000000 100 0 0 100
    NCHAN 2
    FX 1
    TRACKID {F2EBB1D9-BF67-4F40-9B6B-68D81A63DD57}
    PERF 0
    MIDIOUT -1
    <MIDINOTENAMES
      0 127 "TRILL MARKER"
      0 125 "---"
      0 124 "BRE"
      0 123 "BRE"
      0 122 "BRE"
      0 121 "BRE"
      0 120 "BRE (use all 5)"
      0 119 "----"
      0 116 "OVERDRIVE"
      0 115 "----"
      0 103 "Solo Marker"
      0 102 "Force HOPO Off"
      0 101 "Force HOPO On"
      0 100 "EXPERT Orange"
      0 99 "EXPERT Blue"
      0 98 "EXPERT Yellow"
      0 97 "EXPERT Red"
      0 96 "EXPERT Green"
      0 95 "----"
      0 90 "Force HOPO Off"
      0 89 "Force HOPO On"
      0 88 "HARD Orange"
      0 87 "HARD Blue"
      0 86 "HARD Yellow"
      0 85 "HARD Red"
      0 84 "HARD Green"
      0 77 "----"
      0 76 "MEDIUM Orange"
      0 75 "MEDIUM Blue"
      0 74 "MEDIUM Yellow"
      0 73 "MEDIUM Red"
      0 72 "MEDIUM Green"
      0 65 "----"
      0 64 "EASY Orange"
      0 63 "EASY Blue"
      0 62 "EASY Yellow"
      0 61 "EASY Red"
      0 60 "EASY Green"
    >
    MAINSEND 1 0
    <FXCHAIN
      WNDRECT 0 43 891 559
      SHOW 0
      LASTSEL 0
      DOCKED 0
      BYPASS 0 0
      <VST "VSTi: RBN Preview (RBN)" "rbprev_vst64.dll" 0 ""
        dnBicu5e7f4AAAAAAgAAAAEAAAAAAAAAAgAAAAAAAAAEAAAAAQAAAA==
        AAAQAAAAqgAAABAAAAA=
      >
      FLOATPOS 0 0 0 0
      FXID {B91BE50E-AF79-4579-9DBC-47C7FA1D5306}
      WAK 0
    >
    <ITEM
      POSITION 0.00000000000000
      SNAPOFFS 0.00000000000000
      LENGTH 173.10513447432763
      LOOP 0
      ALLTAKES 0
      SEL 0
      FADEIN 1 0.000000 0.000000 1 0
      FADEOUT 1 0.000000 0.000000 1 0
      MUTE 0
      IGUID {D8028449-F1E4-4D15-B559-88A25D94022F}
      IID 18
      NAME "PART KEYS"
      VOLPAN 1.000000 0.000000 1.000000 -1.000000
      SOFFS 0.00000000000000 0.00000000000000
      PLAYRATE 1.00000000000000 1 0.00000000000000 -1
      CHANMODE 0
      GUID {7FB15DB1-602F-4630-888F-6E6BFE051472}
      <SOURCE MIDI
        HASDATA 1 480 QN
        POOLEDEVTS {A514EAA4-DBC3-4198-9B9F-C2DDAC6D032A}
        <X 0 0
          /wNQQVJUIEtFWVM=
        >
        e 3840 90 3e 60
        e 0 90 4b 60
        e 0 90 58 60
        E 0 90 64 60
        e 480 80 3e 00
        e 0 80 4b 00
        e 360 80 58 00
        E 0 80 64 00
        e 120 90 3e 60
        e 0 90 4b 60
        e 0 90 57 60
        E 0 90 63 60
        e 120 80 3e 00
        e 0 80 4b 00
        e 240 80 57 00
        E 0 80 63 00
        e 120 90 4b 60
        e 0 90 58 60
        E 0 90 64 60
        e 120 80 4b 00
        e 240 80 58 00
        E 0 80 64 00
        e 120 90 3c 60
        e 0 90 49 60
        e 0 90 55 60
        E 0 90 61 60
        e 120 80 3c 00
        e 0 80 49 00
        e 240 80 55 00
        E 0 80 61 00
        e 120 90 49 60
        e 0 90 55 60
        E 0 90 61 60
        e 120 80 49 00
        e 0 80 55 00
        E 0 80 61 00
        E 0 90 64 60
        E 120 80 64 00
        e 0 90 55 60
        E 0 90 61 60
        e 120 80 55 00
        E 0 80 61 00
        e 120 90 3e 60
        e 0 90 4b 60
        e 0 90 58 60
        E 0 90 64 60
        e 480 80 3e 00
        e 0 80 4b 00
        e 360 80 58 00
        E 0 80 64 00
        e 120 90 3e 60
        e 0 90 4b 60
        e 0 90 58 60
        E 0 90 64 60
        e 480 80 3e 00
        e 0 80 4b 00
        e 360 80 58 00
        E 0 80 64 00
        e 120 90 3e 60
        e 0 90 4b 60
        e 0 90 57 60
        E 0 90 63 60
        e 120 80 3e 00
        e 0 80 4b 00
        e 240 80 57 00
        E 0 80 63 00
        e 120 90 4b 60
        e 0 90 58 60
        E 0 90 64 60
        e 120 80 4b 00
        e 240 80 58 00
        E 0 80 64 00
        e 120 90 3c 60
        e 0 90 49 60
        e 0 90 55 60
        E 0 90 61 60
        e 120 80 3c 00
        e 0 80 49 00
        e 240 80 55 00
        E 0 80 61 00
        e 120 90 49 60
        e 0 90 55 60
        E 0 90 61 60
        e 120 80 49 00
        e 0 80 55 00
        E 0 80 61 00
        E 0 90 64 60
        E 120 80 64 00
        e 0 90 55 60
        E 0 90 61 60
        e 120 80 55 00
        E 0 80 61 00
        e 120 90 3e 60
        e 0 90 4b 60
        e 0 90 58 60
        E 0 90 64 60
        e 480 80 3e 00
        e 0 80 4b 00
        e 359 80 58 00
        E 0 80 64 00
        e 121 90 3e 60
        e 0 90 4b 60
        e 0 90 57 60
        E 0 90 63 60
        E 0 90 74 60
        e 120 80 3e 00
        e 0 80 4b 00
        e 0 80 57 00
        E 0 80 63 00
        e 120 90 54 60
        E 0 90 60 60
        e 120 80 54 00
        E 0 80 60 00
        e 120 90 4a 60
        e 0 90 56 60
        E 0 90 62 60
        e 120 80 4a 00
        e 0 80 56 00
        E 0 80 62 00
        e 120 90 54 60
        E 0 90 60 60
        e 120 80 54 00
        E 0 80 60 00
        e 120 90 3e 60
        e 0 90 4b 60
        e 0 90 58 60
        E 0 90 64 60
        e 120 80 3e 00
        e 0 80 4b 00
        e 0 80 58 00
        E 0 80 64 00
        e 120 90 54 60
        E 0 90 60 60
        e 120 80 54 00
        E 0 80 60 00
        e 120 90 4a 60
        e 0 90 56 60
        E 0 90 62 60
        e 120 80 4a 00
        e 0 80 56 00
        E 0 80 62 00
        e 120 90 54 60
        E 0 90 60 60
        e 120 80 54 00
        E 0 80 60 00
        e 120 90 3e 60
        e 0 90 4b 60
        e 0 90 58 60
        E 0 90 64 60
        e 120 80 3e 00
        e 0 80 4b 00
        e 0 80 58 00
        E 0 80 64 00
        e 120 90 55 60
        E 0 90 61 60
        e 120 80 55 00
        E 0 80 61 00
        e 120 90 4b 60
        e 0 90 57 60
        E 0 90 63 60
        e 120 80 4b 00
        e 0 80 57 00
        E 0 80 63 00
        e 120 90 55 60
        E 0 90 61 60
        e 120 80 55 00
        E 0 80 61 00
        e 120 90 3d 60
        e 0 90 4a 60
        e 0 90 56 60
        E 0 90 62 60
        e 120 80 3d 00
        e 0 80 4a 00
        e 0 80 56 00
        E 0 80 62 00
        e 120 90 55 60
        E 0 90 61 60
        e 120 80 55 00
        E 0 80 61 00
        e 120 90 4a 60
        e 0 90 56 60
        E 0 90 62 60
        e 120 80 4a 00
        e 0 80 56 00
        E 0 80 62 00
        e 120 90 55 60
        E 0 90 61 60
        e 120 80 55 00
        E 0 80 61 00
        E 120 80 74 00
        e 0 90 3c 60
        e 0 90 48 60
        e 0 90 54 60
        E 0 90 60 60
        e 120 80 3c 00
        e 0 80 48 00
        e 240 80 54 00
        E 0 80 60 00
        e 120 90 4a 60
        e 0 90 56 60
        E 0 90 62 60
        e 120 80 4a 00
        e 0 80 56 00
        E 0 80 62 00
        E 0 90 62 60
        E 120 80 62 00
        e 0 90 56 60
        E 0 90 62 60
        e 120 80 56 00
        E 0 80 62 00
        E 0 90 64 60
        E 120 80 64 00
        e 0 90 3e 60
        e 0 90 4b 60
        e 0 90 57 60
        E 0 90 63 60
        e 120 80 3e 00
        e 0 80 4b 00
        e 240 80 57 00
        E 0 80 63 00
        e 120 90 48 60
        e 0 90 54 60
        E 0 90 60 60
        e 120 80 48 00
        e 240 80 54 00
        E 0 80 60 00
        e 120 90 3d 60
        e 0 90 4a 60
        e 0 90 56 60
        E 0 90 62 60
        e 120 80 3d 00
        e 0 80 4a 00
        e 0 80 56 00
        E 0 80 62 00
        e 240 90 56 60
        E 0 90 63 60
        E 120 80 63 00
        E 0 90 62 60
        e 1320 80 56 00
        E 0 80 62 00
        e 120 90 3c 60
        e 0 90 48 60
        e 0 90 54 60
        E 0 90 60 60
        e 120 80 3c 00
        e 0 80 48 00
        e 239 80 54 00
        E 1 80 60 00
        e 119 90 4a 60
        e 0 90 56 60
        E 0 90 62 60
        e 120 80 4a 00
        e 0 80 56 00
        E 0 80 62 00
        E 1 90 62 60
        E 120 80 62 00
        e 0 90 56 60
        E 0 90 62 60
        e 120 80 56 00
        E 0 80 62 00
        E 0 90 61 60
        E 120 80 61 00
        e 0 90 3e 60
        e 0 90 4b 60
        e 0 90 57 60
        E 0 90 63 60
        e 120 80 3e 00
        e 0 80 4b 00
        e 240 80 57 00
        E 0 80 63 00
        e 120 90 48 60
        e 0 90 54 60
        E 0 90 60 60
        e 120 80 48 00
        e 240 80 54 00
        E 0 80 60 00
        e 120 90 3d 60
        e 0 90 4a 60
        e 0 90 56 60
        E 0 90 62 60
        e 120 80 3d 00
        e 0 80 4a 00
        e 0 80 56 00
        E 0 80 62 00
        e 240 90 56 60
        E 0 90 63 60
        E 120 80 63 00
        E 0 90 62 60
        e 840 80 56 00
        E 0 80 62 00
        e 120 90 4a 60
        e 0 90 56 60
        E 0 90 62 60
        e 120 80 4a 00
        e 0 80 56 00
        E 0 80 62 00
        e 120 90 58 60
        E 0 90 64 60
        e 120 80 58 00
        E 0 80 64 00
        e 120 90 3e 60
        e 0 90 4b 60
        e 0 90 57 60
        E 0 90 63 60
        e 960 80 3e 00
        e 0 80 4b 00
        e 360 80 57 00
        E 0 80 63 00
        e 120 90 4a 60
        e 0 90 56 60
        E 0 90 62 60
        e 120 80 4a 00
        e 0 80 56 00
        E 0 80 62 00
        e 120 90 57 60
        E 0 90 63 60
        e 120 80 57 00
        E 0 80 63 00
        e 120 90 3c 60
        e 0 90 49 60
        e 0 90 55 60
        E 0 90 61 60
        e 1200 80 3c 00
        e 0 80 49 00
        e 240 80 55 00
        E 0 80 61 00
        e 240 90 4b 60
        e 0 90 57 60
        E 0 90 63 60
        e 120 80 4b 00
        e 0 80 57 00
        E 0 80 63 00
        E 0 90 64 60
        E 120 80 64 00
        e 0 90 3e 60
        e 0 90 4b 60
        e 0 90 57 60
        E 0 90 63 60
        E 0 90 74 60
        e 120 80 3e 00
        e 0 80 4b 00
        e 240 80 57 00
        E 0 80 63 00
        e 120 90 4a 60
        e 0 90 56 60
        E 0 90 62 60
        e 120 80 4a 00
        e 240 80 56 00
        E 0 80 62 00
        e 120 90 3c 60
        e 0 90 49 60
        e 0 90 55 60
        E 0 90 61 60
        e 120 80 3c 00
        e 0 80 49 00
        e 240 80 55 00
        E 0 80 61 00
        e 120 90 48 60
        e 0 90 54 60
        E 0 90 60 60
        e 120 80 48 00
        e 240 80 54 00
        E 0 80 60 00
        e 120 90 3e 60
        e 0 90 4b 60
        e 0 90 57 60
        E 0 90 63 60
        e 120 80 3e 00
        e 0 80 4b 00
        e 240 80 57 00
        E 0 80 63 00
        e 120 90 4a 60
        e 0 90 56 60
        E 0 90 62 60
        e 120 80 4a 00
        e 240 80 56 00
        E 0 80 62 00
        e 120 90 3c 60
        e 0 90 49 60
        e 0 90 55 60
        E 0 90 61 60
        e 120 80 3c 00
        e 0 80 49 00
        e 239 80 55 00
        E 0 80 61 00
        e 121 90 48 60
        e 0 90 54 60
        E 0 90 60 60
        e 120 80 48 00
        e 240 80 54 00
        E 0 80 60 00
        E 120 80 74 00
        e 0 90 3e 60
        e 0 90 4b 60
        e 0 90 58 60
        E 0 90 64 60
        e 480 80 3e 00
        e 0 80 4b 00
        e 360 80 58 00
        E 0 80 64 00
        e 120 90 3e 60
        e 0 90 4b 60
        e 0 90 57 60
        E 0 90 63 60
        e 120 80 3e 00
        e 0 80 4b 00
        e 240 80 57 00
        E 0 80 63 00
        e 120 90 4b 60
        e 0 90 58 60
        E 0 90 64 60
        e 120 80 4b 00
        e 240 80 58 00
        E 0 80 64 00
        e 120 90 3c 60
        e 0 90 49 60
        e 0 90 55 60
        E 0 90 61 60
        e 120 80 3c 00
        e 0 80 49 00
        e 240 80 55 00
        E 0 80 61 00
        e 120 90 49 60
        e 0 90 55 60
        E 0 90 61 60
        e 120 80 49 00
        e 0 80 55 00
        E 0 80 61 00
        E 0 90 64 60
        E 120 80 64 00
        e 0 90 55 60
        E 0 90 61 60
        e 120 80 55 00
        E 0 80 61 00
        e 120 90 3e 60
        e 0 90 4b 60
        e 0 90 58 60
        E 0 90 64 60
        e 480 80 3e 00
        e 0 80 4b 00
        e 360 80 58 00
        E 0 80 64 00
        e 120 90 3e 60
        e 0 90 4b 60
        e 0 90 58 60
        E 0 90 64 60
        e 480 80 3e 00
        e 0 80 4b 00
        e 360 80 58 00
        E 0 80 64 00
        e 120 90 3e 60
        e 0 90 4b 60
        e 0 90 57 60
        E 0 90 63 60
        e 120 80 3e 00
        e 0 80 4b 00
        e 240 80 57 00
        E 0 80 63 00
        e 120 90 4b 60
        e 0 90 58 60
        E 0 90 64 60
        e 120 80 4b 00
        e 240 80 58 00
        E 0 80 64 00
        e 120 90 3c 60
        e 0 90 49 60
        e 0 90 55 60
        E 0 90 61 60
        e 120 80 3c 00
        e 0 80 49 00
        e 240 80 55 00
        E 0 80 61 00
        e 120 90 49 60
        e 0 90 55 60
        E 0 90 61 60
        e 120 80 49 00
        e 0 80 55 00
        E 0 80 61 00
        E 0 90 64 60
        E 120 80 64 00
        e 0 90 55 60
        E 0 90 61 60
        e 120 80 55 00
        E 0 80 61 00
        e 120 90 3e 60
        e 0 90 4b 60
        e 0 90 58 60
        E 0 90 64 60
        e 480 80 3e 00
        e 0 80 4b 00
        e 359 80 58 00
        E 0 80 64 00
        e 121 90 3e 60
        e 0 90 4b 60
        e 0 90 57 60
        E 0 90 63 60
        e 120 80 3e 00
        e 0 80 4b 00
        e 0 80 57 00
        E 0 80 63 00
        e 120 90 54 60
        E 0 90 60 60
        e 120 80 54 00
        E 0 80 60 00
        e 120 90 4a 60
        e 0 90 56 60
        E 0 90 62 60
        e 120 80 4a 00
        e 0 80 56 00
        E 0 80 62 00
        e 120 90 54 60
        E 0 90 60 60
        e 120 80 54 00
        E 0 80 60 00
        e 120 90 3e 60
        e 0 90 4b 60
        e 0 90 58 60
        E 0 90 64 60
        e 120 80 3e 00
        e 0 80 4b 00
        e 0 80 58 00
        E 0 80 64 00
        e 120 90 54 60
        E 0 90 60 60
        e 120 80 54 00
        E 0 80 60 00
        e 120 90 4a 60
        e 0 90 56 60
        E 0 90 62 60
        e 120 80 4a 00
        e 0 80 56 00
        E 0 80 62 00
        e 120 90 54 60
        E 0 90 60 60
        e 120 80 54 00
        E 0 80 60 00
        e 120 90 3e 60
        e 0 90 4b 60
        e 0 90 58 60
        E 0 90 64 60
        e 120 80 3e 00
        e 0 80 4b 00
        e 0 80 58 00
        E 0 80 64 00
        e 120 90 55 60
        E 0 90 61 60
        e 120 80 55 00
        E 0 80 61 00
        e 120 90 4b 60
        e 0 90 57 60
        E 0 90 63 60
        e 120 80 4b 00
        e 0 80 57 00
        E 0 80 63 00
        e 120 90 55 60
        E 0 90 61 60
        e 120 80 55 00
        E 0 80 61 00
        e 120 90 3d 60
        e 0 90 4a 60
        e 0 90 56 60
        E 0 90 62 60
        e 120 80 3d 00
        e 0 80 4a 00
        e 0 80 56 00
        E 0 80 62 00
        e 120 90 55 60
        E 0 90 61 60
        e 120 80 55 00
        E 0 80 61 00
        e 120 90 4a 60
        e 0 90 56 60
        E 0 90 62 60
        e 120 80 4a 00
        e 0 80 56 00
        E 0 80 62 00
        e 120 90 55 60
        E 0 90 61 60
        e 120 80 55 00
        E 0 80 61 00
        e 120 90 3c 60
        e 0 90 48 60
        e 0 90 54 60
        E 0 90 60 60
        e 120 80 3c 00
        e 0 80 48 00
        e 240 80 54 00
        E 0 80 60 00
        e 120 90 4a 60
        e 0 90 56 60
        E 0 90 62 60
        e 120 80 4a 00
        e 0 80 56 00
        E 0 80 62 00
        E 0 90 62 60
        E 120 80 62 00
        e 0 90 56 60
        E 0 90 62 60
        e 120 80 56 00
        E 0 80 62 00
        E 0 90 64 60
        E 120 80 64 00
        e 0 90 3e 60
        e 0 90 4b 60
        e 0 90 57 60
        E 0 90 63 60
        e 120 80 3e 00
        e 0 80 4b 00
        e 240 80 57 00
        E 0 80 63 00
        e 120 90 48 60
        e 0 90 54 60
        E 0 90 60 60
        e 120 80 48 00
        e 240 80 54 00
        E 0 80 60 00
        e 120 90 3d 60
        e 0 90 4a 60
        e 0 90 56 60
        E 0 90 62 60
        e 120 80 3d 00
        e 0 80 4a 00
        e 0 80 56 00
        E 0 80 62 00
        e 240 90 56 60
        E 0 90 63 60
        E 120 80 63 00
        E 0 90 62 60
        e 1320 80 56 00
        E 0 80 62 00
        e 120 90 3c 60
        e 0 90 48 60
        e 0 90 54 60
        E 0 90 60 60
        e 120 80 3c 00
        e 0 80 48 00
        e 239 80 54 00
        E 1 80 60 00
        e 119 90 4a 60
        e 0 90 56 60
        E 0 90 62 60
        E 1 90 74 60
        e 119 80 4a 00
        e 0 80 56 00
        E 0 80 62 00
        E 1 90 62 60
        E 120 80 62 00
        e 0 90 56 60
        E 0 90 62 60
        e 120 80 56 00
        E 0 80 62 00
        E 0 90 61 60
        E 120 80 61 00
        e 0 90 3e 60
        e 0 90 4b 60
        e 0 90 57 60
        E 0 90 63 60
        e 120 80 3e 00
        e 0 80 4b 00
        e 240 80 57 00
        E 0 80 63 00
        e 120 90 48 60
        e 0 90 54 60
        E 0 90 60 60
        e 120 80 48 00
        e 240 80 54 00
        E 0 80 60 00
        e 120 90 3d 60
        e 0 90 4a 60
        e 0 90 56 60
        E 0 90 62 60
        e 120 80 3d 00
        e 0 80 4a 00
        e 0 80 56 00
        E 0 80 62 00
        e 240 90 56 60
        E 0 90 63 60
        E 120 80 63 00
        E 0 90 62 60
        E 120 80 74 00
        e 720 80 56 00
        E 0 80 62 00
        e 120 90 4a 60
        e 0 90 56 60
        E 0 90 62 60
        e 120 80 4a 00
        e 0 80 56 00
        E 0 80 62 00
        e 120 90 58 60
        E 0 90 64 60
        e 120 80 58 00
        E 0 80 64 00
        e 120 90 3e 60
        e 0 90 4b 60
        e 0 90 57 60
        E 0 90 63 60
        e 960 80 3e 00
        e 0 80 4b 00
        e 360 80 57 00
        E 0 80 63 00
        e 120 90 4a 60
        e 0 90 56 60
        E 0 90 62 60
        e 120 80 4a 00
        e 0 80 56 00
        E 0 80 62 00
        e 120 90 57 60
        E 0 90 63 60
        e 120 80 57 00
        E 0 80 63 00
        e 120 90 3c 60
        e 0 90 49 60
        e 0 90 55 60
        E 0 90 61 60
        e 1200 80 3c 00
        e 0 80 49 00
        e 240 80 55 00
        E 0 80 61 00
        e 240 90 4b 60
        e 0 90 57 60
        E 0 90 63 60
        e 120 80 4b 00
        e 0 80 57 00
        E 0 80 63 00
        E 0 90 64 60
        E 120 80 64 00
        e 0 90 3e 60
        e 0 90 4b 60
        e 0 90 57 60
        E 0 90 63 60
        e 120 80 3e 00
        e 0 80 4b 00
        e 240 80 57 00
        E 0 80 63 00
        e 120 90 4a 60
        e 0 90 56 60
        E 0 90 62 60
        e 120 80 4a 00
        e 240 80 56 00
        E 0 80 62 00
        e 120 90 3c 60
        e 0 90 49 60
        e 0 90 55 60
        E 0 90 61 60
        e 120 80 3c 00
        e 0 80 49 00
        e 240 80 55 00
        E 0 80 61 00
        e 120 90 48 60
        e 0 90 54 60
        E 0 90 60 60
        e 120 80 48 00
        e 240 80 54 00
        E 0 80 60 00
        e 120 90 3e 60
        e 0 90 4b 60
        e 0 90 57 60
        E 0 90 63 60
        e 120 80 3e 00
        e 0 80 4b 00
        e 240 80 57 00
        E 0 80 63 00
        e 120 90 4a 60
        e 0 90 56 60
        E 0 90 62 60
        e 120 80 4a 00
        e 240 80 56 00
        E 0 80 62 00
        e 120 90 3c 60
        e 0 90 49 60
        e 0 90 55 60
        E 0 90 61 60
        e 120 80 3c 00
        e 0 80 49 00
        e 239 80 55 00
        E 0 80 61 00
        e 121 90 48 60
        e 0 90 54 60
        E 0 90 60 60
        e 120 80 48 00
        e 240 80 54 00
        E 0 80 60 00
        e 120 90 3e 60
        e 0 90 4b 60
        e 0 90 58 60
        E 0 90 64 60
        e 480 80 3e 00
        e 0 80 4b 00
        e 360 80 58 00
        E 0 80 64 00
        e 120 90 3e 60
        e 0 90 4b 60
        e 0 90 57 60
        E 0 90 63 60
        e 120 80 3e 00
        e 0 80 4b 00
        e 240 80 57 00
        E 0 80 63 00
        e 120 90 4b 60
        e 0 90 58 60
        E 0 90 64 60
        e 120 80 4b 00
        e 240 80 58 00
        E 0 80 64 00
        e 120 90 3c 60
        e 0 90 49 60
        e 0 90 55 60
        E 0 90 61 60
        e 120 80 3c 00
        e 0 80 49 00
        e 240 80 55 00
        E 0 80 61 00
        e 120 90 49 60
        e 0 90 55 60
        E 0 90 61 60
        e 120 80 49 00
        e 0 80 55 00
        E 0 80 61 00
        E 0 90 64 60
        E 120 80 64 00
        e 0 90 55 60
        E 0 90 61 60
        e 120 80 55 00
        E 0 80 61 00
        e 120 90 3e 60
        e 0 90 4b 60
        e 0 90 58 60
        E 0 90 64 60
        e 480 80 3e 00
        e 0 80 4b 00
        e 360 80 58 00
        E 0 80 64 00
        e 120 90 3e 60
        e 0 90 4b 60
        e 0 90 58 60
        E 0 90 64 60
        e 480 80 3e 00
        e 0 80 4b 00
        e 360 80 58 00
        E 0 80 64 00
        e 120 90 3e 60
        e 0 90 4b 60
        e 0 90 57 60
        E 0 90 63 60
        e 120 80 3e 00
        e 0 80 4b 00
        e 240 80 57 00
        E 0 80 63 00
        e 120 90 4b 60
        e 0 90 58 60
        E 0 90 64 60
        e 120 80 4b 00
        e 240 80 58 00
        E 0 80 64 00
        e 120 90 3c 60
        e 0 90 49 60
        e 0 90 55 60
        E 0 90 61 60
        e 120 80 3c 00
        e 0 80 49 00
        e 240 80 55 00
        E 0 80 61 00
        e 120 90 49 60
        e 0 90 55 60
        E 0 90 61 60
        e 120 80 49 00
        e 0 80 55 00
        E 0 80 61 00
        E 0 90 64 60
        E 120 80 64 00
        e 0 90 55 60
        E 0 90 61 60
        e 120 80 55 00
        E 0 80 61 00
        e 120 90 3e 60
        e 0 90 4b 60
        e 0 90 58 60
        E 0 90 64 60
        e 480 80 3e 00
        e 0 80 4b 00
        e 359 80 58 00
        E 0 80 64 00
        e 121 90 3e 60
        e 0 90 4b 60
        e 0 90 57 60
        E 0 90 63 60
        e 120 80 3e 00
        e 0 80 4b 00
        e 0 80 57 00
        E 0 80 63 00
        e 120 90 54 60
        E 0 90 60 60
        e 120 80 54 00
        E 0 80 60 00
        e 120 90 4a 60
        e 0 90 56 60
        E 0 90 62 60
        e 120 80 4a 00
        e 0 80 56 00
        E 0 80 62 00
        e 120 90 54 60
        E 0 90 60 60
        e 120 80 54 00
        E 0 80 60 00
        e 120 90 3e 60
        e 0 90 4b 60
        e 0 90 58 60
        E 0 90 64 60
        e 120 80 3e 00
        e 0 80 4b 00
        e 0 80 58 00
        E 0 80 64 00
        e 120 90 54 60
        E 0 90 60 60
        e 120 80 54 00
        E 0 80 60 00
        e 120 90 4a 60
        e 0 90 56 60
        E 0 90 62 60
        e 120 80 4a 00
        e 0 80 56 00
        E 0 80 62 00
        e 120 90 54 60
        E 0 90 60 60
        e 120 80 54 00
        E 0 80 60 00
        e 120 90 3e 60
        e 0 90 4b 60
        e 0 90 58 60
        E 0 90 64 60
        e 120 80 3e 00
        e 0 80 4b 00
        e 0 80 58 00
        E 0 80 64 00
        e 120 90 55 60
        E 0 90 61 60
        e 120 80 55 00
        E 0 80 61 00
        e 120 90 4b 60
        e 0 90 57 60
        E 0 90 63 60
        e 120 80 4b 00
        e 0 80 57 00
        E 0 80 63 00
        e 120 90 55 60
        E 0 90 61 60
        e 120 80 55 00
        E 0 80 61 00
        e 120 90 3d 60
        e 0 90 4a 60
        e 0 90 56 60
        E 0 90 62 60
        e 120 80 3d 00
        e 0 80 4a 00
        e 0 80 56 00
        E 0 80 62 00
        e 120 90 55 60
        E 0 90 61 60
        e 120 80 55 00
        E 0 80 61 00
        e 120 90 4a 60
        e 0 90 56 60
        E 0 90 62 60
        e 120 80 4a 00
        e 0 80 56 00
        E 0 80 62 00
        e 120 90 55 60
        E 0 90 61 60
        e 120 80 55 00
        E 0 80 61 00
        e 120 90 3c 60
        e 0 90 48 60
        e 0 90 54 60
        E 0 90 60 60
        E 0 90 74 60
        e 120 80 3c 00
        e 0 80 48 00
        e 240 80 54 00
        E 0 80 60 00
        e 120 90 4a 60
        e 0 90 56 60
        E 0 90 62 60
        e 120 80 4a 00
        e 0 80 56 00
        E 0 80 62 00
        E 0 90 62 60
        E 120 80 62 00
        e 0 90 56 60
        E 0 90 62 60
        e 120 80 56 00
        E 0 80 62 00
        E 0 90 64 60
        E 120 80 64 00
        e 0 90 3e 60
        e 0 90 4b 60
        e 0 90 57 60
        E 0 90 63 60
        e 120 80 3e 00
        e 0 80 4b 00
        e 240 80 57 00
        E 0 80 63 00
        e 120 90 48 60
        e 0 90 54 60
        E 0 90 60 60
        e 120 80 48 00
        e 240 80 54 00
        E 0 80 60 00
        e 120 90 3d 60
        e 0 90 4a 60
        e 0 90 56 60
        E 0 90 62 60
        e 120 80 3d 00
        e 0 80 4a 00
        e 0 80 56 00
        E 0 80 62 00
        e 240 90 56 60
        E 0 90 63 60
        E 120 80 63 00
        E 0 90 62 60
        e 1320 80 56 00
        E 0 80 62 00
        E 120 80 74 00
        e 0 90 3c 60
        e 0 90 48 60
        e 0 90 54 60
        E 0 90 60 60
        e 120 80 3c 00
        e 0 80 48 00
        e 239 80 54 00
        E 1 80 60 00
        e 119 90 4a 60
        e 0 90 56 60
        E 0 90 62 60
        e 120 80 4a 00
        e 0 80 56 00
        E 0 80 62 00
        E 1 90 62 60
        E 120 80 62 00
        e 0 90 56 60
        E 0 90 62 60
        e 120 80 56 00
        E 0 80 62 00
        E 0 90 61 60
        E 120 80 61 00
        e 0 90 3e 60
        e 0 90 4b 60
        e 0 90 57 60
        E 0 90 63 60
        e 120 80 3e 00
        e 0 80 4b 00
        e 240 80 57 00
        E 0 80 63 00
        e 120 90 48 60
        e 0 90 54 60
        E 0 90 60 60
        e 120 80 48 00
        e 240 80 54 00
        E 0 80 60 00
        e 120 90 3d 60
        e 0 90 4a 60
        e 0 90 56 60
        E 0 90 62 60
        e 120 80 3d 00
        e 0 80 4a 00
        e 0 80 56 00
        E 0 80 62 00
        e 240 90 56 60
        E 0 90 63 60
        E 120 80 63 00
        E 0 90 62 60
        e 840 80 56 00
        E 0 80 62 00
        e 120 90 4a 60
        e 0 90 56 60
        E 0 90 62 60
        e 120 80 4a 00
        e 0 80 56 00
        E 0 80 62 00
        e 120 90 58 60
        E 0 90 64 60
        e 120 80 58 00
        E 0 80 64 00
        e 120 90 3e 60
        e 0 90 4b 60
        e 0 90 57 60
        E 0 90 63 60
        e 960 80 3e 00
        e 0 80 4b 00
        e 360 80 57 00
        E 0 80 63 00
        e 120 90 4a 60
        e 0 90 56 60
        E 0 90 62 60
        e 120 80 4a 00
        e 0 80 56 00
        E 0 80 62 00
        e 120 90 57 60
        E 0 90 63 60
        e 120 80 57 00
        E 0 80 63 00
        e 120 90 3c 60
        e 0 90 49 60
        e 0 90 55 60
        E 0 90 61 60
        e 1200 80 3c 00
        e 0 80 49 00
        e 240 80 55 00
        E 0 80 61 00
        e 240 90 4b 60
        e 0 90 57 60
        E 0 90 63 60
        e 120 80 4b 00
        e 0 80 57 00
        E 0 80 63 00
        E 0 90 64 60
        E 120 80 64 00
        e 0 90 3e 60
        e 0 90 4b 60
        e 0 90 57 60
        E 0 90 63 60
        e 120 80 3e 00
        e 0 80 4b 00
        e 240 80 57 00
        E 0 80 63 00
        e 120 90 4a 60
        e 0 90 56 60
        E 0 90 62 60
        e 120 80 4a 00
        e 240 80 56 00
        E 0 80 62 00
        e 120 90 3c 60
        e 0 90 49 60
        e 0 90 55 60
        E 0 90 61 60
        e 120 80 3c 00
        e 0 80 49 00
        e 240 80 55 00
        E 0 80 61 00
        e 120 90 48 60
        e 0 90 54 60
        E 0 90 60 60
        e 120 80 48 00
        e 240 80 54 00
        E 0 80 60 00
        e 120 90 3e 60
        e 0 90 4b 60
        e 0 90 57 60
        E 0 90 63 60
        e 120 80 3e 00
        e 0 80 4b 00
        e 240 80 57 00
        E 0 80 63 00
        e 120 90 4a 60
        e 0 90 56 60
        E 0 90 62 60
        e 120 80 4a 00
        e 240 80 56 00
        E 0 80 62 00
        e 120 90 3c 60
        e 0 90 49 60
        e 0 90 55 60
        E 0 90 61 60
        e 120 80 3c 00
        e 0 80 49 00
        e 239 80 55 00
        E 0 80 61 00
        e 121 90 48 60
        e 0 90 54 60
        E 0 90 60 60
        e 120 80 48 00
        e 240 80 54 00
        E 0 80 60 00
        e 120 90 3e 60
        e 0 90 4b 60
        e 0 90 58 60
        E 0 90 64 60
        e 480 80 3e 00
        e 0 80 4b 00
        e 360 80 58 00
        E 0 80 64 00
        e 120 90 3e 60
        e 0 90 4b 60
        e 0 90 57 60
        E 0 90 63 60
        e 120 80 3e 00
        e 0 80 4b 00
        e 240 80 57 00
        E 0 80 63 00
        e 120 90 4b 60
        e 0 90 58 60
        E 0 90 64 60
        e 120 80 4b 00
        e 240 80 58 00
        E 0 80 64 00
        e 120 90 3c 60
        e 0 90 49 60
        e 0 90 55 60
        E 0 90 61 60
        e 120 80 3c 00
        e 0 80 49 00
        e 240 80 55 00
        E 0 80 61 00
        e 120 90 49 60
        e 0 90 55 60
        E 0 90 61 60
        e 120 80 49 00
        e 0 80 55 00
        E 0 80 61 00
        E 0 90 64 60
        E 120 80 64 00
        e 0 90 55 60
        E 0 90 61 60
        e 120 80 55 00
        E 0 80 61 00
        e 120 90 3e 60
        e 0 90 4b 60
        e 0 90 58 60
        E 0 90 64 60
        e 480 80 3e 00
        e 0 80 4b 00
        e 360 80 58 00
        E 0 80 64 00
        e 120 90 3e 60
        e 0 90 4b 60
        e 0 90 58 60
        E 0 90 64 60
        e 480 80 3e 00
        e 0 80 4b 00
        e 360 80 58 00
        E 0 80 64 00
        e 120 90 3e 60
        e 0 90 4b 60
        e 0 90 57 60
        E 0 90 63 60
        e 120 80 3e 00
        e 0 80 4b 00
        e 240 80 57 00
        E 0 80 63 00
        e 120 90 4b 60
        e 0 90 58 60
        E 0 90 64 60
        e 120 80 4b 00
        e 240 80 58 00
        E 0 80 64 00
        e 120 90 3c 60
        e 0 90 49 60
        e 0 90 55 60
        E 0 90 61 60
        e 120 80 3c 00
        e 0 80 49 00
        e 240 80 55 00
        E 0 80 61 00
        e 120 90 49 60
        e 0 90 55 60
        E 0 90 61 60
        e 120 80 49 00
        e 0 80 55 00
        E 0 80 61 00
        E 0 90 64 60
        E 120 80 64 00
        e 0 90 55 60
        E 0 90 61 60
        e 120 80 55 00
        E 0 80 61 00
        e 120 90 3e 60
        e 0 90 4b 60
        e 0 90 58 60
        E 0 90 64 60
        e 480 80 3e 00
        e 0 80 4b 00
        e 359 80 58 00
        E 0 80 64 00
        e 121 90 3e 60
        e 0 90 4b 60
        e 0 90 57 60
        E 0 90 63 60
        e 120 80 3e 00
        e 0 80 4b 00
        e 0 80 57 00
        E 0 80 63 00
        e 120 90 54 60
        E 0 90 60 60
        e 120 80 54 00
        E 0 80 60 00
        e 120 90 4a 60
        e 0 90 56 60
        E 0 90 62 60
        e 120 80 4a 00
        e 0 80 56 00
        E 0 80 62 00
        e 120 90 54 60
        E 0 90 60 60
        e 120 80 54 00
        E 0 80 60 00
        e 120 90 3e 60
        e 0 90 4b 60
        e 0 90 58 60
        E 0 90 64 60
        e 120 80 3e 00
        e 0 80 4b 00
        e 0 80 58 00
        E 0 80 64 00
        e 120 90 54 60
        E 0 90 60 60
        e 120 80 54 00
        E 0 80 60 00
        e 120 90 4a 60
        e 0 90 56 60
        E 0 90 62 60
        e 120 80 4a 00
        e 0 80 56 00
        E 0 80 62 00
        e 120 90 54 60
        E 0 90 60 60
        e 120 80 54 00
        E 0 80 60 00
        e 120 90 3e 60
        e 0 90 4b 60
        e 0 90 58 60
        E 0 90 64 60
        e 120 80 3e 00
        e 0 80 4b 00
        e 0 80 58 00
        E 0 80 64 00
        e 120 90 55 60
        E 0 90 61 60
        e 120 80 55 00
        E 0 80 61 00
        e 120 90 4b 60
        e 0 90 57 60
        E 0 90 63 60
        e 120 80 4b 00
        e 0 80 57 00
        E 0 80 63 00
        e 120 90 55 60
        E 0 90 61 60
        e 120 80 55 00
        E 0 80 61 00
        e 120 90 3d 60
        e 0 90 4a 60
        e 0 90 56 60
        E 0 90 62 60
        e 120 80 3d 00
        e 0 80 4a 00
        e 0 80 56 00
        E 0 80 62 00
        e 120 90 55 60
        E 0 90 61 60
        e 120 80 55 00
        E 0 80 61 00
        e 120 90 4a 60
        e 0 90 56 60
        E 0 90 62 60
        e 120 80 4a 00
        e 0 80 56 00
        E 0 80 62 00
        e 120 90 55 60
        E 0 90 61 60
        e 120 80 55 00
        E 0 80 61 00
        e 120 90 3c 60
        e 0 90 48 60
        e 0 90 54 60
        E 0 90 60 60
        E 0 90 74 60
        e 120 80 3c 00
        e 0 80 48 00
        e 240 80 54 00
        E 0 80 60 00
        e 120 90 4a 60
        e 0 90 56 60
        E 0 90 62 60
        e 120 80 4a 00
        e 0 80 56 00
        E 0 80 62 00
        E 0 90 62 60
        E 120 80 62 00
        e 0 90 56 60
        E 0 90 62 60
        e 120 80 56 00
        E 0 80 62 00
        E 0 90 64 60
        E 120 80 64 00
        e 0 90 3e 60
        e 0 90 4b 60
        e 0 90 57 60
        E 0 90 63 60
        e 120 80 3e 00
        e 0 80 4b 00
        e 240 80 57 00
        E 0 80 63 00
        e 120 90 48 60
        e 0 90 54 60
        E 0 90 60 60
        e 120 80 48 00
        e 240 80 54 00
        E 0 80 60 00
        e 120 90 3d 60
        e 0 90 4a 60
        e 0 90 56 60
        E 0 90 62 60
        e 120 80 3d 00
        e 0 80 4a 00
        e 0 80 56 00
        E 0 80 62 00
        e 240 90 56 60
        E 0 90 63 60
        E 120 80 63 00
        E 0 90 62 60
        E 120 80 74 00
        e 1200 80 56 00
        E 0 80 62 00
        e 120 90 3c 60
        e 0 90 48 60
        e 0 90 54 60
        E 0 90 60 60
        e 120 80 3c 00
        e 0 80 48 00
        e 239 80 54 00
        E 1 80 60 00
        e 119 90 4a 60
        e 0 90 56 60
        E 0 90 62 60
        e 120 80 4a 00
        e 0 80 56 00
        E 0 80 62 00
        E 1 90 62 60
        E 120 80 62 00
        e 0 90 56 60
        E 0 90 62 60
        e 120 80 56 00
        E 0 80 62 00
        E 0 90 61 60
        E 120 80 61 00
        e 0 90 3e 60
        e 0 90 4b 60
        e 0 90 57 60
        E 0 90 63 60
        e 120 80 3e 00
        e 0 80 4b 00
        e 240 80 57 00
        E 0 80 63 00
        e 120 90 48 60
        e 0 90 54 60
        E 0 90 60 60
        e 120 80 48 00
        e 240 80 54 00
        E 0 80 60 00
        e 120 90 3d 60
        e 0 90 4a 60
        e 0 90 56 60
        E 0 90 62 60
        e 120 80 3d 00
        e 0 80 4a 00
        e 0 80 56 00
        E 0 80 62 00
        e 240 90 56 60
        E 0 90 63 60
        E 120 80 63 00
        E 0 90 62 60
        e 840 80 56 00
        E 0 80 62 00
        e 120 90 4a 60
        e 0 90 56 60
        E 0 90 62 60
        e 120 80 4a 00
        e 0 80 56 00
        E 0 80 62 00
        e 120 90 58 60
        E 0 90 64 60
        e 120 80 58 00
        E 0 80 64 00
        e 120 90 3e 60
        e 0 90 4b 60
        e 0 90 57 60
        E 0 90 63 60
        e 960 80 3e 00
        e 0 80 4b 00
        e 360 80 57 00
        E 0 80 63 00
        e 120 90 4a 60
        e 0 90 56 60
        E 0 90 62 60
        e 120 80 4a 00
        e 0 80 56 00
        E 0 80 62 00
        e 120 90 57 60
        E 0 90 63 60
        e 120 80 57 00
        E 0 80 63 00
        e 120 90 3c 60
        e 0 90 49 60
        e 0 90 55 60
        E 0 90 61 60
        e 1200 80 3c 00
        e 0 80 49 00
        e 240 80 55 00
        E 0 80 61 00
        e 240 90 4b 60
        e 0 90 57 60
        E 0 90 63 60
        e 120 80 4b 00
        e 0 80 57 00
        E 0 80 63 00
        E 0 90 64 60
        E 120 80 64 00
        e 0 90 3e 60
        e 0 90 4b 60
        e 0 90 57 60
        E 0 90 63 60
        e 120 80 3e 00
        e 0 80 4b 00
        e 240 80 57 00
        E 0 80 63 00
        e 120 90 4a 60
        e 0 90 56 60
        E 0 90 62 60
        e 120 80 4a 00
        e 240 80 56 00
        E 0 80 62 00
        e 120 90 3c 60
        e 0 90 49 60
        e 0 90 55 60
        E 0 90 61 60
        e 120 80 3c 00
        e 0 80 49 00
        e 240 80 55 00
        E 0 80 61 00
        e 120 90 48 60
        e 0 90 54 60
        E 0 90 60 60
        e 120 80 48 00
        e 240 80 54 00
        E 0 80 60 00
        e 120 90 3e 60
        e 0 90 4b 60
        e 0 90 57 60
        E 0 90 63 60
        e 120 80 3e 00
        e 0 80 4b 00
        e 240 80 57 00
        E 0 80 63 00
        e 120 90 4a 60
        e 0 90 56 60
        E 0 90 62 60
        e 120 80 4a 00
        e 240 80 56 00
        E 0 80 62 00
        e 120 90 3c 60
        e 0 90 49 60
        e 0 90 55 60
        E 0 90 61 60
        e 120 80 3c 00
        e 0 80 49 00
        e 239 80 55 00
        E 0 80 61 00
        e 121 90 48 60
        e 0 90 54 60
        E 0 90 60 60
        e 360 80 48 00
        e 0 80 54 00
        E 0 80 60 00
        E 2040 b0 7b 00
        GUID {E4248C3A-C88D-4A74-86B5-590F33821254}
        IGNTEMPO 0 120.00000000 4 4
        SRCCOLOR 11
        VELLANE 132 128 60
        COLORMAP "C:\Program Files\REAPER (x64)\Data\color_maps\rockband_guitarbass.png"
        CFGEDITVIEW -5664.000000 7.263059 0 14 0 0 0
        CFGEDIT 1 1 0 1 1 0 1 1 1 1 1 0.25000000 -8 -8 1544 872 0 2 1 1 0.00000000 0 1 0 0 0.500000 0 0 1.000000 64
        KEYSNAP 0 6 "102030050700" 0 "Pentatonic"
        EVTFILTER 0 -1 -1 -1 -1 0 1 0 0 -1.00000000 -1.00000000
      >
    >
  >
  <TRACK '{045F39F6-C60F-4EA8-A907-8C334BA64050}'
    NAME "PART REAL_KEYS_X"
    PEAKCOL 16576
    BEAT -1
    AUTOMODE 0
    VOLPAN 1.00000000000000 0.00000000000000 -1.00000000000000 -1.00000000000000 1.00000000000000
    MUTESOLO 0 0 0
    IPHASE 0
    ISBUS 0 0
    BUSCOMP 0 0
    SHOWINMIX 1 0.666700 0.500000 1 0.500000 -1 -1 -1
    FREEMODE 0
    SEL 0
    REC 0 0 0 0 0 0 0
    VU 2
    TRACKHEIGHT 0 0
    INQ 0 0 0 0.5000000000 100 0 0 100
    NCHAN 2
    FX 0
    TRACKID {045F39F6-C60F-4EA8-A907-8C334BA64050}
    PERF 0
    MIDIOUT -1
    <MIDINOTENAMES
      0 127 "TRILL MARKER"
      0 126 "GLISSANDO MARKER"
      0 125 "---"
      0 116 "OVERDRIVE"
      0 115 "SOLO"
      0 114 "---"
      0 72 "Highest playable note B#3"
      0 71 "B3"
      0 70 "A#3"
      0 69 "A3"
      0 68 "G#3"
      0 67 "G3"
      0 66 "F#3"
      0 65 "F3"
      0 64 "E3"
      0 63 "D#3"
      0 62 "D3"
      0 61 "C#3"
      0 60 "C3"
      0 59 "B2"
      0 58 "A#2"
      0 57 "A2"
      0 56 "G#2"
      0 55 "G2"
      0 54 "F#2"
      0 53 "F2"
      0 52 "E2"
      0 51 "D#2"
      0 50 "D2"
      0 49 "C#2"
      0 48 "Lowest playable note C2"
      0 10 "---"
      0 9 "Range A2-C4"
      0 8 "Range"
      0 7 "Range"
      0 6 "Range"
      0 5 "Range F2-A3"
      0 4 "Range"
      0 3 "Range"
      0 2 "Range"
      0 1 "Range"
      0 0 "Range C2-E3"
    >
    MAINSEND 1 0
    <FXCHAIN
      WNDRECT 0 43 655 467
      SHOW 0
      LASTSEL 1
      DOCKED 0
      BYPASS 0 0
      <JS "MIDI/midi_note_filter" ""
        48.000000 72.000000 - - - - - - - - - - - - - - - - - - - - - - - - - - - - - - - - - - - - - - - - - - - - - - - - - - - - - - - - - - - - - - 
      >
      FLOATPOS 0 0 0 0
      FXID {DBDF107F-7C87-4099-80F9-75188FD2516E}
      WAK 0
      BYPASS 0 0
      <VST "VSTi: ReaSynth (Cockos)" "reasynth.dll" 0 ""
        eXNlcu9e7f4AAAAAAgAAAAEAAAAAAAAAAgAAAAAAAAA4AAAAAAAAAA==
        AAAQAO++rd4N8K3eppvEOxe30ToAAIA/AAAAAAAAAADMm4A+6WeIPQ==
        AAAAAAAAAD8AAIA/AACAPwAAAD8AABAAAAA=
      >
      FLOATPOS 0 0 0 0
      FXID {25A48FB3-836B-494D-B64B-2EC666444AF3}
      WAK 0
    >
    <ITEM
      POSITION 0.00000000000000
      SNAPOFFS 0.00000000000000
      LENGTH 173.10513447432763
      LOOP 0
      ALLTAKES 0
      SEL 0
      FADEIN 1 0.000000 0.000000 1 0
      FADEOUT 1 0.000000 0.000000 1 0
      MUTE 0
      IGUID {FD61335A-5AF5-40A1-BE80-2EDD2F42D9A6}
      IID 7
      NAME "PART REAL_KEYS_X"
      VOLPAN 1.000000 0.000000 1.000000 -1.000000
      SOFFS 0.00000000000000 0.00000000000000
      PLAYRATE 1.00000000000000 1 0.00000000000000 -1
      CHANMODE 0
      GUID {27E03160-24D6-4DC0-8242-70A1475C1B3F}
      <SOURCE MIDI
        HASDATA 1 480 QN
        POOLEDEVTS {6EB5F942-20A2-4F37-8416-E81CFD016BE8}
        <X 0 0
          /wNQQVJUIFJFQUxfS0VZU19Y
        >
        E 0 90 04 60
        E 120 80 04 00
        E 3720 90 40 60
        E 840 80 40 00
        E 120 90 3c 60
        E 360 80 3c 00
        E 120 90 40 60
        E 360 80 40 00
        E 120 90 37 60
        E 360 80 37 00
        E 120 90 37 60
        E 120 80 37 00
        E 0 90 40 60
        E 120 80 40 00
        E 0 90 3c 60
        E 120 80 3c 00
        E 120 90 40 60
        E 840 80 40 00
        E 120 90 40 60
        E 840 80 40 00
        E 120 90 3c 60
        E 360 80 3c 00
        E 120 90 40 60
        E 360 80 40 00
        E 120 90 37 60
        E 360 80 37 00
        E 120 90 37 60
        E 120 80 37 00
        E 0 90 40 60
        E 120 80 40 00
        E 0 90 3c 60
        E 120 80 3c 00
        E 120 90 40 60
        E 839 80 40 00
        E 121 90 38 60
        E 0 90 74 60
        E 120 80 38 00
        E 120 90 34 60
        E 120 80 34 00
        E 120 90 3b 60
        E 120 80 3b 00
        E 120 90 34 60
        E 120 80 34 00
        E 120 90 3e 60
        E 120 80 3e 00
        E 120 90 38 60
        E 120 80 38 00
        E 120 90 3b 60
        E 120 80 3b 00
        E 120 90 38 60
        E 120 80 38 00
        E 120 90 3c 60
        E 120 80 3c 00
        E 120 90 35 60
        E 120 80 35 00
        E 120 90 39 60
        E 120 80 39 00
        E 120 90 35 60
        E 120 80 35 00
        E 120 90 38 60
        E 120 80 38 00
        E 120 90 35 60
        E 120 80 35 00
        E 120 90 38 60
        E 120 80 38 00
        E 120 90 35 60
        E 120 80 35 00
        E 120 90 34 60
        E 0 80 74 00
        E 360 80 34 00
        E 120 90 37 60
        E 120 80 37 00
        E 0 90 37 60
        E 120 80 37 00
        E 0 90 37 60
        E 120 80 37 00
        E 0 90 41 60
        E 120 80 41 00
        E 0 90 40 60
        E 360 80 40 00
        E 120 90 34 60
        E 360 80 34 00
        E 120 90 39 60
        E 120 80 39 00
        E 240 90 3c 60
        E 120 80 3c 00
        E 0 90 3b 60
        E 1320 80 3b 00
        E 120 90 34 60
        E 360 80 34 00
        E 120 90 37 60
        E 120 80 37 00
        E 0 90 37 60
        E 120 80 37 00
        E 0 90 37 60
        E 120 80 37 00
        E 0 90 39 60
        E 120 80 39 00
        E 0 90 40 60
        E 360 80 40 00
        E 120 90 34 60
        E 360 80 34 00
        E 120 90 39 60
        E 120 80 39 00
        E 240 90 3c 60
        E 120 80 3c 00
        E 0 90 3b 60
        E 840 80 3b 00
        E 120 90 3b 60
        E 120 80 3b 00
        E 120 90 3e 60
        E 120 80 3e 00
        E 120 90 3c 60
        E 1320 80 3c 00
        E 120 90 3b 60
        E 120 80 3b 00
        E 120 90 3c 60
        E 120 80 3c 00
        E 120 90 39 60
        E 1440 80 39 00
        E 240 90 37 60
        E 120 80 37 00
        E 0 90 39 60
        E 120 80 39 00
        E 0 90 40 60
        E 0 90 74 60
        E 360 80 40 00
        E 120 90 3c 60
        E 360 80 3c 00
        E 120 90 39 60
        E 360 80 39 00
        E 120 90 34 60
        E 360 80 34 00
        E 120 90 40 60
        E 360 80 40 00
        E 120 90 3b 60
        E 360 80 3b 00
        E 120 90 38 60
        E 360 80 38 00
        E 120 90 34 60
        E 360 80 34 00
        E 120 90 40 60
        E 0 80 74 00
        E 840 80 40 00
        E 120 90 3c 60
        E 360 80 3c 00
        E 120 90 40 60
        E 360 80 40 00
        E 120 90 37 60
        E 360 80 37 00
        E 120 90 37 60
        E 120 80 37 00
        E 0 90 40 60
        E 120 80 40 00
        E 0 90 3c 60
        E 120 80 3c 00
        E 120 90 40 60
        E 840 80 40 00
        E 120 90 40 60
        E 840 80 40 00
        E 120 90 3c 60
        E 360 80 3c 00
        E 120 90 40 60
        E 360 80 40 00
        E 120 90 37 60
        E 360 80 37 00
        E 120 90 37 60
        E 120 80 37 00
        E 0 90 40 60
        E 120 80 40 00
        E 0 90 3c 60
        E 120 80 3c 00
        E 120 90 40 60
        E 839 80 40 00
        E 121 90 38 60
        E 120 80 38 00
        E 120 90 34 60
        E 120 80 34 00
        E 120 90 3b 60
        E 120 80 3b 00
        E 120 90 34 60
        E 120 80 34 00
        E 120 90 3e 60
        E 120 80 3e 00
        E 120 90 38 60
        E 120 80 38 00
        E 120 90 3b 60
        E 120 80 3b 00
        E 120 90 38 60
        E 120 80 38 00
        E 120 90 3c 60
        E 120 80 3c 00
        E 120 90 35 60
        E 120 80 35 00
        E 120 90 39 60
        E 120 80 39 00
        E 120 90 35 60
        E 120 80 35 00
        E 120 90 38 60
        E 120 80 38 00
        E 120 90 35 60
        E 120 80 35 00
        E 120 90 38 60
        E 120 80 38 00
        E 120 90 35 60
        E 120 80 35 00
        E 120 90 34 60
        E 360 80 34 00
        E 120 90 37 60
        E 120 80 37 00
        E 0 90 37 60
        E 120 80 37 00
        E 0 90 37 60
        E 120 80 37 00
        E 0 90 41 60
        E 120 80 41 00
        E 0 90 40 60
        E 360 80 40 00
        E 120 90 34 60
        E 360 80 34 00
        E 120 90 39 60
        E 120 80 39 00
        E 240 90 3c 60
        E 120 80 3c 00
        E 0 90 3b 60
        E 1320 80 3b 00
        E 120 90 34 60
        E 360 80 34 00
        E 120 90 37 60
        E 0 90 74 60
        E 120 80 37 00
        E 0 90 37 60
        E 120 80 37 00
        E 0 90 37 60
        E 120 80 37 00
        E 0 90 39 60
        E 120 80 39 00
        E 0 90 40 60
        E 360 80 40 00
        E 120 90 34 60
        E 360 80 34 00
        E 120 90 39 60
        E 120 80 39 00
        E 240 90 3c 60
        E 120 80 3c 00
        E 0 90 3b 60
        E 120 80 74 00
        E 720 80 3b 00
        E 120 90 3b 60
        E 120 80 3b 00
        E 120 90 3e 60
        E 120 80 3e 00
        E 120 90 3c 60
        E 1320 80 3c 00
        E 120 90 3b 60
        E 120 80 3b 00
        E 120 90 3c 60
        E 120 80 3c 00
        E 120 90 39 60
        E 1440 80 39 00
        E 240 90 37 60
        E 120 80 37 00
        E 0 90 39 60
        E 120 80 39 00
        E 0 90 40 60
        E 360 80 40 00
        E 120 90 3c 60
        E 360 80 3c 00
        E 120 90 39 60
        E 360 80 39 00
        E 120 90 34 60
        E 360 80 34 00
        E 120 90 40 60
        E 360 80 40 00
        E 120 90 3b 60
        E 360 80 3b 00
        E 120 90 38 60
        E 360 80 38 00
        E 120 90 34 60
        E 360 80 34 00
        E 120 90 40 60
        E 840 80 40 00
        E 120 90 3c 60
        E 360 80 3c 00
        E 120 90 40 60
        E 360 80 40 00
        E 120 90 37 60
        E 360 80 37 00
        E 120 90 37 60
        E 120 80 37 00
        E 0 90 40 60
        E 120 80 40 00
        E 0 90 3c 60
        E 120 80 3c 00
        E 120 90 40 60
        E 840 80 40 00
        E 120 90 40 60
        E 840 80 40 00
        E 120 90 3c 60
        E 360 80 3c 00
        E 120 90 40 60
        E 360 80 40 00
        E 120 90 37 60
        E 360 80 37 00
        E 120 90 37 60
        E 120 80 37 00
        E 0 90 40 60
        E 120 80 40 00
        E 0 90 3c 60
        E 120 80 3c 00
        E 120 90 40 60
        E 839 80 40 00
        E 121 90 38 60
        E 120 80 38 00
        E 120 90 34 60
        E 120 80 34 00
        E 120 90 3b 60
        E 120 80 3b 00
        E 120 90 34 60
        E 120 80 34 00
        E 120 90 3e 60
        E 120 80 3e 00
        E 120 90 38 60
        E 120 80 38 00
        E 120 90 3b 60
        E 120 80 3b 00
        E 120 90 38 60
        E 120 80 38 00
        E 120 90 3c 60
        E 120 80 3c 00
        E 120 90 35 60
        E 120 80 35 00
        E 120 90 39 60
        E 120 80 39 00
        E 120 90 35 60
        E 120 80 35 00
        E 120 90 38 60
        E 120 80 38 00
        E 120 90 35 60
        E 120 80 35 00
        E 120 90 38 60
        E 120 80 38 00
        E 120 90 35 60
        E 120 80 35 00
        E 120 90 34 60
        E 0 90 74 60
        E 360 80 34 00
        E 120 90 37 60
        E 120 80 37 00
        E 0 90 37 60
        E 120 80 37 00
        E 0 90 37 60
        E 120 80 37 00
        E 0 90 41 60
        E 120 80 41 00
        E 0 90 40 60
        E 360 80 40 00
        E 120 90 34 60
        E 360 80 34 00
        E 120 90 39 60
        E 120 80 39 00
        E 240 90 3c 60
        E 120 80 3c 00
        E 0 90 3b 60
        E 1320 80 3b 00
        E 120 90 34 60
        E 0 80 74 00
        E 360 80 34 00
        E 120 90 37 60
        E 120 80 37 00
        E 0 90 37 60
        E 120 80 37 00
        E 0 90 37 60
        E 120 80 37 00
        E 0 90 39 60
        E 120 80 39 00
        E 0 90 40 60
        E 360 80 40 00
        E 120 90 34 60
        E 360 80 34 00
        E 120 90 39 60
        E 120 80 39 00
        E 240 90 3c 60
        E 120 80 3c 00
        E 0 90 3b 60
        E 840 80 3b 00
        E 120 90 3b 60
        E 120 80 3b 00
        E 120 90 3e 60
        E 120 80 3e 00
        E 120 90 3c 60
        E 1320 80 3c 00
        E 120 90 3b 60
        E 120 80 3b 00
        E 120 90 3c 60
        E 120 80 3c 00
        E 120 90 39 60
        E 1440 80 39 00
        E 240 90 37 60
        E 120 80 37 00
        E 0 90 39 60
        E 120 80 39 00
        E 0 90 40 60
        E 360 80 40 00
        E 120 90 3c 60
        E 360 80 3c 00
        E 120 90 39 60
        E 360 80 39 00
        E 120 90 34 60
        E 360 80 34 00
        E 120 90 40 60
        E 360 80 40 00
        E 120 90 3b 60
        E 360 80 3b 00
        E 120 90 38 60
        E 360 80 38 00
        E 120 90 34 60
        E 360 80 34 00
        E 120 90 40 60
        E 840 80 40 00
        E 120 90 3c 60
        E 360 80 3c 00
        E 120 90 40 60
        E 360 80 40 00
        E 120 90 37 60
        E 360 80 37 00
        E 120 90 37 60
        E 120 80 37 00
        E 0 90 40 60
        E 120 80 40 00
        E 0 90 3c 60
        E 120 80 3c 00
        E 120 90 40 60
        E 840 80 40 00
        E 120 90 40 60
        E 840 80 40 00
        E 120 90 3c 60
        E 360 80 3c 00
        E 120 90 40 60
        E 360 80 40 00
        E 120 90 37 60
        E 360 80 37 00
        E 120 90 37 60
        E 120 80 37 00
        E 0 90 40 60
        E 120 80 40 00
        E 0 90 3c 60
        E 120 80 3c 00
        E 120 90 40 60
        E 839 80 40 00
        E 121 90 38 60
        E 120 80 38 00
        E 120 90 34 60
        E 120 80 34 00
        E 120 90 3b 60
        E 120 80 3b 00
        E 120 90 34 60
        E 120 80 34 00
        E 120 90 3e 60
        E 120 80 3e 00
        E 120 90 38 60
        E 120 80 38 00
        E 120 90 3b 60
        E 120 80 3b 00
        E 120 90 38 60
        E 120 80 38 00
        E 120 90 3c 60
        E 120 80 3c 00
        E 120 90 35 60
        E 120 80 35 00
        E 120 90 39 60
        E 120 80 39 00
        E 120 90 35 60
        E 120 80 35 00
        E 120 90 38 60
        E 120 80 38 00
        E 120 90 35 60
        E 120 80 35 00
        E 120 90 38 60
        E 120 80 38 00
        E 120 90 35 60
        E 120 80 35 00
        E 120 90 34 60
        e 0 90 74 60
        E 360 80 34 00
        E 120 90 37 60
        E 120 80 37 00
        E 0 90 37 60
        E 120 80 37 00
        E 0 90 37 60
        E 120 80 37 00
        E 0 90 41 60
        E 120 80 41 00
        E 0 90 40 60
        E 360 80 40 00
        E 120 90 34 60
        E 360 80 34 00
        E 120 90 39 60
        E 120 80 39 00
        E 240 90 3c 60
        E 120 80 3c 00
        E 0 90 3b 60
        e 120 80 74 00
        E 1200 80 3b 00
        E 120 90 34 60
        E 360 80 34 00
        E 120 90 37 60
        E 120 80 37 00
        E 0 90 37 60
        E 120 80 37 00
        E 0 90 37 60
        E 120 80 37 00
        E 0 90 39 60
        E 120 80 39 00
        E 0 90 40 60
        E 360 80 40 00
        E 120 90 34 60
        E 360 80 34 00
        E 120 90 39 60
        E 120 80 39 00
        E 240 90 3c 60
        E 120 80 3c 00
        E 0 90 3b 60
        E 840 80 3b 00
        E 120 90 3b 60
        E 120 80 3b 00
        E 120 90 3e 60
        E 120 80 3e 00
        E 120 90 3c 60
        E 1320 80 3c 00
        E 120 90 3b 60
        E 120 80 3b 00
        E 120 90 3c 60
        E 120 80 3c 00
        E 120 90 39 60
        E 1440 80 39 00
        E 240 90 37 60
        E 120 80 37 00
        E 0 90 39 60
        E 120 80 39 00
        E 0 90 40 60
        E 360 80 40 00
        E 120 90 3c 60
        E 360 80 3c 00
        E 120 90 39 60
        E 360 80 39 00
        E 120 90 34 60
        E 360 80 34 00
        E 120 90 40 60
        E 360 80 40 00
        E 120 90 3b 60
        E 360 80 3b 00
        E 120 90 38 60
        E 360 80 38 00
        E 120 90 34 60
        E 480 80 34 00
        E 1920 b0 7b 00
        GUID {372054A0-7AB3-4279-BF80-426739028EB5}
        IGNTEMPO 0 120.00000000 4 4
        SRCCOLOR 2
        VELLANE 132 128 60
        COLORMAP "C:\Program Files\REAPER (x64)\Data\color_maps\rockband_guitarbass.png"
        CFGEDITVIEW 3065.895959 40.127650 0 13 0 0 0
        CFGEDIT 1 1 0 1 1 0 1 1 1 1 1 0.25000000 -8 -8 1544 872 0 2 1 1 0.00000000 0 1 0 0 0.500000 0 0 1.000000 64
        KEYSNAP 0 6 "102030050700" 0 "Pentatonic"
        EVTFILTER 0 -1 -1 -1 -1 0 1 0 0 -1.00000000 -1.00000000
      >
    >
  >
  <TRACK '{A80FA0A0-F417-4FF7-8EF8-809E51EE1117}'
    NAME "PART REAL_KEYS_H"
    PEAKCOL 16576
    BEAT -1
    AUTOMODE 0
    VOLPAN 1.00000000000000 0.00000000000000 -1.00000000000000 -1.00000000000000 1.00000000000000
    MUTESOLO 0 0 0
    IPHASE 0
    ISBUS 0 0
    BUSCOMP 0 0
    SHOWINMIX 1 0.666700 0.500000 1 0.500000 -1 -1 -1
    FREEMODE 0
    SEL 0
    REC 0 0 0 0 0 0 0
    VU 2
    TRACKHEIGHT 0 0
    INQ 0 0 0 0.5000000000 100 0 0 100
    NCHAN 2
    FX 0
    TRACKID {A80FA0A0-F417-4FF7-8EF8-809E51EE1117}
    PERF 0
    MIDIOUT -1
    <MIDINOTENAMES
      0 127 "TRILL MARKER"
      0 126 "GLISSANDO MARKER"
      0 125 "---"
      0 116 "OVERDRIVE"
      0 115 "SOLO"
      0 114 "---"
      0 72 "Highest playable note B#3"
      0 71 "B3"
      0 70 "A#3"
      0 69 "A3"
      0 68 "G#3"
      0 67 "G3"
      0 66 "F#3"
      0 65 "F3"
      0 64 "E3"
      0 63 "D#3"
      0 62 "D3"
      0 61 "C#3"
      0 60 "C3"
      0 59 "B2"
      0 58 "A#2"
      0 57 "A2"
      0 56 "G#2"
      0 55 "G2"
      0 54 "F#2"
      0 53 "F2"
      0 52 "E2"
      0 51 "D#2"
      0 50 "D2"
      0 49 "C#2"
      0 48 "Lowest playable note C2"
      0 10 "---"
      0 9 "Range A2-C4"
      0 8 "Range"
      0 7 "Range"
      0 6 "Range"
      0 5 "Range F2-A3"
      0 4 "Range"
      0 3 "Range"
      0 2 "Range"
      0 1 "Range"
      0 0 "Range C2-E3"
    >
    MAINSEND 1 0
    <FXCHAIN
      WNDRECT 0 43 655 467
      SHOW 0
      LASTSEL 1
      DOCKED 0
      BYPASS 0 0
      <JS "MIDI/midi_note_filter" ""
        48.000000 72.000000 - - - - - - - - - - - - - - - - - - - - - - - - - - - - - - - - - - - - - - - - - - - - - - - - - - - - - - - - - - - - - - 
      >
      FLOATPOS 0 0 0 0
      FXID {DBDF107F-7C87-4099-80F9-75188FD2516E}
      WAK 0
      BYPASS 0 0
      <VST "VSTi: ReaSynth (Cockos)" "reasynth.dll" 0 ""
        eXNlcu9e7f4AAAAAAgAAAAEAAAAAAAAAAgAAAAAAAAA4AAAAAAAAAA==
        AAAQAO++rd4N8K3eppvEOxe30ToAAIA/AAAAAAAAAADMm4A+6WeIPQ==
        AAAAAAAAAD8AAIA/AACAPwAAAD8AABAAAAA=
      >
      FLOATPOS 0 0 0 0
      FXID {25A48FB3-836B-494D-B64B-2EC666444AF3}
      WAK 0
    >
    <ITEM
      POSITION 0.00000000000000
      SNAPOFFS 0.00000000000000
      LENGTH 173.10513447432763
      LOOP 0
      ALLTAKES 0
      SEL 0
      FADEIN 1 0.000000 0.000000 1 0
      FADEOUT 1 0.000000 0.000000 1 0
      MUTE 0
      IGUID {FD61335A-5AF5-40A1-BE80-2EDD2F42D9A6}
      IID 7
      NAME "PART REAL_KEYS_H"
      VOLPAN 1.000000 0.000000 1.000000 -1.000000
      SOFFS 0.00000000000000 0.00000000000000
      PLAYRATE 1.00000000000000 1 0.00000000000000 -1
      CHANMODE 0
      GUID {27E03160-24D6-4DC0-8242-70A1475C1B3F}
      <SOURCE MIDI
        HASDATA 1 480 QN
        POOLEDEVTS {14390A61-C10C-4900-9420-8A0E29783A58}
        <X 0 0
          /wNQQVJUIFJFQUxfS0VZU19I
        >
        e 0 90 04 60
        e 120 80 04 00
        e 3720 90 40 60
        e 840 80 40 00
        e 120 90 3c 60
        e 360 80 3c 00
        e 120 90 40 60
        e 360 80 40 00
        e 120 90 37 60
        e 360 80 37 00
        e 120 90 37 60
        e 120 80 37 00
        e 120 90 3c 60
        e 120 80 3c 00
        e 120 90 40 60
        e 840 80 40 00
        e 120 90 40 60
        e 840 80 40 00
        e 120 90 3c 60
        e 360 80 3c 00
        e 120 90 40 60
        e 360 80 40 00
        e 120 90 37 60
        e 360 80 37 00
        e 120 90 37 60
        e 120 80 37 00
        e 120 90 3c 60
        e 120 80 3c 00
        e 120 90 40 60
        e 840 80 40 00 -1
        e 120 90 38 60
        e 120 80 38 00
        e 120 90 34 60
        e 120 80 34 00
        e 120 90 3b 60
        e 120 80 3b 00
        e 120 90 34 60
        e 120 80 34 00
        e 120 90 3e 60
        e 120 80 3e 00
        e 120 90 38 60
        e 120 80 38 00
        e 120 90 3b 60
        e 120 80 3b 00
        e 120 90 38 60
        e 120 80 38 00
        e 120 90 3c 60
        e 120 80 3c 00
        e 120 90 35 60
        e 120 80 35 00
        e 120 90 39 60
        e 120 80 39 00
        e 120 90 35 60
        e 120 80 35 00
        e 120 90 38 60
        e 120 80 38 00
        e 120 90 35 60
        e 120 80 35 00
        e 120 90 38 60
        e 120 80 38 00
        e 120 90 35 60
        e 120 80 35 00
        e 120 90 34 60
        e 360 80 34 00
        e 120 90 37 60
        e 120 80 37 00
        e 120 90 37 60
        e 120 80 37 00
        e 120 90 40 60
        e 360 80 40 00
        e 120 90 34 60
        e 360 80 34 00
        e 120 90 39 60
        e 120 80 39 00
        e 240 90 3c 60
        e 120 80 3c 00
        e 1440 90 34 60
        e 360 80 34 00
        e 360 90 37 60
        e 120 80 37 00
        e 120 90 40 60
        e 360 80 40 00
        e 120 90 34 60
        e 360 80 34 00
        e 120 90 39 60
        e 120 80 39 00
        e 240 90 3c 60
        e 120 80 3c 00
        e 960 90 3b 60
        e 120 80 3b 00
        e 120 90 3e 60
        e 120 80 3e 00
        e 120 90 3c 60
        e 1320 80 3c 00
        e 120 90 3b 60
        e 120 80 3b 00
        e 120 90 3c 60
        e 120 80 3c 00
        e 120 90 39 60
        e 1440 80 39 00
        e 240 90 37 60
        e 120 80 37 00
        e 120 90 40 60
        e 360 80 40 00
        e 120 90 3c 60
        e 360 80 3c 00
        e 120 90 39 60
        e 360 80 39 00
        e 120 90 34 60
        e 360 80 34 00
        e 120 90 40 60
        e 360 80 40 00
        e 120 90 3b 60
        e 360 80 3b 00
        e 120 90 38 60
        e 360 80 38 00
        e 120 90 34 60
        e 360 80 34 00
        e 120 90 40 60
        e 840 80 40 00
        e 120 90 3c 60
        e 360 80 3c 00
        e 120 90 40 60
        e 360 80 40 00
        e 120 90 37 60
        e 360 80 37 00
        e 120 90 37 60
        e 120 80 37 00
        e 120 90 3c 60
        e 120 80 3c 00
        e 120 90 40 60
        e 840 80 40 00
        e 120 90 40 60
        e 840 80 40 00
        e 120 90 3c 60
        e 360 80 3c 00
        e 120 90 40 60
        e 360 80 40 00
        e 120 90 37 60
        e 360 80 37 00
        e 120 90 37 60
        e 120 80 37 00
        e 120 90 3c 60
        e 120 80 3c 00
        e 120 90 40 60
        e 840 80 40 00 -1
        e 120 90 38 60
        e 120 80 38 00
        e 120 90 34 60
        e 120 80 34 00
        e 120 90 3b 60
        e 120 80 3b 00
        e 120 90 34 60
        e 120 80 34 00
        e 120 90 3e 60
        e 120 80 3e 00
        e 120 90 38 60
        e 120 80 38 00
        e 120 90 3b 60
        e 120 80 3b 00
        e 120 90 38 60
        e 120 80 38 00
        e 120 90 3c 60
        e 120 80 3c 00
        e 120 90 35 60
        e 120 80 35 00
        e 120 90 39 60
        e 120 80 39 00
        e 120 90 35 60
        e 120 80 35 00
        e 120 90 38 60
        e 120 80 38 00
        e 120 90 35 60
        e 120 80 35 00
        e 120 90 38 60
        e 120 80 38 00
        e 120 90 35 60
        e 120 80 35 00
        e 120 90 34 60
        e 360 80 34 00
        e 120 90 37 60
        e 120 80 37 00
        e 120 90 37 60
        e 120 80 37 00
        e 120 90 40 60
        e 360 80 40 00
        e 120 90 34 60
        e 360 80 34 00
        e 120 90 39 60
        e 120 80 39 00
        e 240 90 3c 60
        e 120 80 3c 00
        e 1440 90 34 60
        e 360 80 34 00
        e 360 90 37 60
        e 120 80 37 00
        e 120 90 40 60
        e 360 80 40 00
        e 120 90 34 60
        e 360 80 34 00
        e 120 90 39 60
        e 120 80 39 00
        e 240 90 3c 60
        e 120 80 3c 00
        e 960 90 3b 60
        e 120 80 3b 00
        e 120 90 3e 60
        e 120 80 3e 00
        e 120 90 3c 60
        e 1320 80 3c 00
        e 120 90 3b 60
        e 120 80 3b 00
        e 120 90 3c 60
        e 120 80 3c 00
        e 120 90 39 60
        e 1440 80 39 00
        e 240 90 37 60
        e 120 80 37 00
        e 120 90 40 60
        e 360 80 40 00
        e 120 90 3c 60
        e 360 80 3c 00
        e 120 90 39 60
        e 360 80 39 00
        e 120 90 34 60
        e 360 80 34 00
        e 120 90 40 60
        e 360 80 40 00
        e 120 90 3b 60
        e 360 80 3b 00
        e 120 90 38 60
        e 360 80 38 00
        e 120 90 34 60
        e 360 80 34 00
        e 120 90 40 60
        e 840 80 40 00
        e 120 90 3c 60
        e 360 80 3c 00
        e 120 90 40 60
        e 360 80 40 00
        e 120 90 37 60
        e 360 80 37 00
        e 120 90 37 60
        e 120 80 37 00
        e 120 90 3c 60
        e 120 80 3c 00
        e 120 90 40 60
        e 840 80 40 00
        e 120 90 40 60
        e 840 80 40 00
        e 120 90 3c 60
        e 360 80 3c 00
        e 120 90 40 60
        e 360 80 40 00
        e 120 90 37 60
        e 360 80 37 00
        e 120 90 37 60
        e 120 80 37 00
        e 120 90 3c 60
        e 120 80 3c 00
        e 120 90 40 60
        e 840 80 40 00 -1
        e 120 90 38 60
        e 120 80 38 00
        e 120 90 34 60
        e 120 80 34 00
        e 120 90 3b 60
        e 120 80 3b 00
        e 120 90 34 60
        e 120 80 34 00
        e 120 90 3e 60
        e 120 80 3e 00
        e 120 90 38 60
        e 120 80 38 00
        e 120 90 3b 60
        e 120 80 3b 00
        e 120 90 38 60
        e 120 80 38 00
        e 120 90 3c 60
        e 120 80 3c 00
        e 120 90 35 60
        e 120 80 35 00
        e 120 90 39 60
        e 120 80 39 00
        e 120 90 35 60
        e 120 80 35 00
        e 120 90 38 60
        e 120 80 38 00
        e 120 90 35 60
        e 120 80 35 00
        e 120 90 38 60
        e 120 80 38 00
        e 120 90 35 60
        e 120 80 35 00
        e 120 90 34 60
        e 360 80 34 00
        e 120 90 37 60
        e 120 80 37 00
        e 120 90 37 60
        e 120 80 37 00
        e 120 90 40 60
        e 360 80 40 00
        e 120 90 34 60
        e 360 80 34 00
        e 120 90 39 60
        e 120 80 39 00
        e 240 90 3c 60
        e 120 80 3c 00
        e 1440 90 34 60
        e 360 80 34 00
        e 360 90 37 60
        e 120 80 37 00
        e 120 90 40 60
        e 360 80 40 00
        e 120 90 34 60
        e 360 80 34 00
        e 120 90 39 60
        e 120 80 39 00
        e 240 90 3c 60
        e 120 80 3c 00
        e 960 90 3b 60
        e 120 80 3b 00
        e 120 90 3e 60
        e 120 80 3e 00
        e 120 90 3c 60
        e 1320 80 3c 00
        e 120 90 3b 60
        e 120 80 3b 00
        e 120 90 3c 60
        e 120 80 3c 00
        e 120 90 39 60
        e 1440 80 39 00
        e 240 90 37 60
        e 120 80 37 00
        e 120 90 40 60
        e 360 80 40 00
        e 120 90 3c 60
        e 360 80 3c 00
        e 120 90 39 60
        e 360 80 39 00
        e 120 90 34 60
        e 360 80 34 00
        e 120 90 40 60
        e 360 80 40 00
        e 120 90 3b 60
        e 360 80 3b 00
        e 120 90 38 60
        e 360 80 38 00
        e 120 90 34 60
        e 360 80 34 00
        e 120 90 40 60
        e 840 80 40 00
        e 120 90 3c 60
        e 360 80 3c 00
        e 120 90 40 60
        e 360 80 40 00
        e 120 90 37 60
        e 360 80 37 00
        e 120 90 37 60
        e 120 80 37 00
        e 120 90 3c 60
        e 120 80 3c 00
        e 120 90 40 60
        e 840 80 40 00
        e 120 90 40 60
        e 840 80 40 00
        e 120 90 3c 60
        e 360 80 3c 00
        e 120 90 40 60
        e 360 80 40 00
        e 120 90 37 60
        e 360 80 37 00
        e 120 90 37 60
        e 120 80 37 00
        e 120 90 3c 60
        e 120 80 3c 00
        e 120 90 40 60
        e 840 80 40 00 -1
        e 120 90 38 60
        e 120 80 38 00
        e 120 90 34 60
        e 120 80 34 00
        e 120 90 3b 60
        e 120 80 3b 00
        e 120 90 34 60
        e 120 80 34 00
        e 120 90 3e 60
        e 120 80 3e 00
        e 120 90 38 60
        e 120 80 38 00
        e 120 90 3b 60
        e 120 80 3b 00
        e 120 90 38 60
        e 120 80 38 00
        e 120 90 3c 60
        e 120 80 3c 00
        e 120 90 35 60
        e 120 80 35 00
        e 120 90 39 60
        e 120 80 39 00
        e 120 90 35 60
        e 120 80 35 00
        e 120 90 38 60
        e 120 80 38 00
        e 120 90 35 60
        e 120 80 35 00
        e 120 90 38 60
        e 120 80 38 00
        e 120 90 35 60
        e 120 80 35 00
        e 120 90 34 60
        e 360 80 34 00
        e 120 90 37 60
        e 120 80 37 00
        e 120 90 37 60
        e 120 80 37 00
        e 120 90 40 60
        e 360 80 40 00
        e 120 90 34 60
        e 360 80 34 00
        e 120 90 39 60
        e 120 80 39 00
        e 240 90 3c 60
        e 120 80 3c 00
        e 1440 90 34 60
        e 360 80 34 00
        e 360 90 37 60
        e 120 80 37 00
        e 120 90 40 60
        e 360 80 40 00
        e 120 90 34 60
        e 360 80 34 00
        e 120 90 39 60
        e 120 80 39 00
        e 240 90 3c 60
        e 120 80 3c 00
        e 960 90 3b 60
        e 120 80 3b 00
        e 120 90 3e 60
        e 120 80 3e 00
        e 120 90 3c 60
        e 1320 80 3c 00
        e 120 90 3b 60
        e 120 80 3b 00
        e 120 90 3c 60
        e 120 80 3c 00
        e 120 90 39 60
        e 1440 80 39 00
        e 240 90 37 60
        e 120 80 37 00
        e 120 90 40 60
        e 360 80 40 00
        e 120 90 3c 60
        e 360 80 3c 00
        e 120 90 39 60
        e 360 80 39 00
        e 120 90 34 60
        e 360 80 34 00
        e 120 90 40 60
        e 360 80 40 00
        e 120 90 3b 60
        e 360 80 3b 00
        e 120 90 38 60
        e 360 80 38 00
        e 120 90 34 60
        e 480 80 34 00
        E 1920 b0 7b 00
        GUID {372054A0-7AB3-4279-BF80-426739028EB5}
        IGNTEMPO 0 120.00000000 4 4
        SRCCOLOR 2
        VELLANE 132 128 60
        COLORMAP "C:\Program Files\REAPER (x64)\Data\color_maps\rockband_guitarbass.png"
        CFGEDITVIEW -672.732625 71.010678 0 13 0 0 0
        CFGEDIT 1 1 0 1 1 0 1 1 1 1 1 0.25000000 -8 -8 1544 872 0 2 1 1 0.00000000 0 1 0 0 0.500000 0 0 1.000000 64
        KEYSNAP 0 6 "102030050700" 0 "Pentatonic"
        EVTFILTER 0 -1 -1 -1 -1 0 1 0 0 -1.00000000 -1.00000000
      >
    >
  >
  <TRACK '{E4B03682-5AFA-4741-B087-611E9D575A24}'
    NAME "PART REAL_KEYS_M"
    PEAKCOL 16576
    BEAT -1
    AUTOMODE 0
    VOLPAN 1.00000000000000 0.00000000000000 -1.00000000000000 -1.00000000000000 1.00000000000000
    MUTESOLO 0 0 0
    IPHASE 0
    ISBUS 0 0
    BUSCOMP 0 0
    SHOWINMIX 1 0.666700 0.500000 1 0.500000 -1 -1 -1
    FREEMODE 0
    SEL 0
    REC 0 0 0 0 0 0 0
    VU 2
    TRACKHEIGHT 0 0
    INQ 0 0 0 0.5000000000 100 0 0 100
    NCHAN 2
    FX 0
    TRACKID {E4B03682-5AFA-4741-B087-611E9D575A24}
    PERF 0
    MIDIOUT -1
    <MIDINOTENAMES
      0 127 "TRILL MARKER"
      0 126 "GLISSANDO MARKER"
      0 125 "---"
      0 116 "OVERDRIVE"
      0 115 "SOLO"
      0 114 "---"
      0 72 "Highest playable note B#3"
      0 71 "B3"
      0 70 "A#3"
      0 69 "A3"
      0 68 "G#3"
      0 67 "G3"
      0 66 "F#3"
      0 65 "F3"
      0 64 "E3"
      0 63 "D#3"
      0 62 "D3"
      0 61 "C#3"
      0 60 "C3"
      0 59 "B2"
      0 58 "A#2"
      0 57 "A2"
      0 56 "G#2"
      0 55 "G2"
      0 54 "F#2"
      0 53 "F2"
      0 52 "E2"
      0 51 "D#2"
      0 50 "D2"
      0 49 "C#2"
      0 48 "Lowest playable note C2"
      0 10 "---"
      0 9 "Range A2-C4"
      0 8 "Range"
      0 7 "Range"
      0 6 "Range"
      0 5 "Range F2-A3"
      0 4 "Range"
      0 3 "Range"
      0 2 "Range"
      0 1 "Range"
      0 0 "Range C2-E3"
    >
    MAINSEND 1 0
    <FXCHAIN
      WNDRECT 0 43 655 467
      SHOW 0
      LASTSEL 1
      DOCKED 0
      BYPASS 0 0
      <JS "MIDI/midi_note_filter" ""
        48.000000 72.000000 - - - - - - - - - - - - - - - - - - - - - - - - - - - - - - - - - - - - - - - - - - - - - - - - - - - - - - - - - - - - - - 
      >
      FLOATPOS 0 0 0 0
      FXID {DBDF107F-7C87-4099-80F9-75188FD2516E}
      WAK 0
      BYPASS 0 0
      <VST "VSTi: ReaSynth (Cockos)" "reasynth.dll" 0 ""
        eXNlcu9e7f4AAAAAAgAAAAEAAAAAAAAAAgAAAAAAAAA4AAAAAAAAAA==
        AAAQAO++rd4N8K3eppvEOxe30ToAAIA/AAAAAAAAAADMm4A+6WeIPQ==
        AAAAAAAAAD8AAIA/AACAPwAAAD8AABAAAAA=
      >
      FLOATPOS 0 0 0 0
      FXID {25A48FB3-836B-494D-B64B-2EC666444AF3}
      WAK 0
    >
    <ITEM
      POSITION 0.00000000000000
      SNAPOFFS 0.00000000000000
      LENGTH 173.10513447432763
      LOOP 0
      ALLTAKES 0
      SEL 0
      FADEIN 1 0.000000 0.000000 1 0
      FADEOUT 1 0.000000 0.000000 1 0
      MUTE 0
      IGUID {FD61335A-5AF5-40A1-BE80-2EDD2F42D9A6}
      IID 7
      NAME "PART REAL_KEYS_M"
      VOLPAN 1.000000 0.000000 1.000000 -1.000000
      SOFFS 0.00000000000000 0.00000000000000
      PLAYRATE 1.00000000000000 1 0.00000000000000 -1
      CHANMODE 0
      GUID {27E03160-24D6-4DC0-8242-70A1475C1B3F}
      <SOURCE MIDI
        HASDATA 1 480 QN
        POOLEDEVTS {7343B93F-5CDF-45A3-A5D3-5C9828793F35}
        <X 0 0
          /wNQQVJUIFJFQUxfS0VZU19N
        >
        e 0 90 04 60
        e 120 80 04 00
        E 3720 90 40 60
        E 840 80 40 00
        E 120 90 3c 60
        E 360 80 3c 00
        E 120 90 40 60
        E 360 80 40 00
        E 120 90 37 60
        E 360 80 37 00
        E 120 90 37 60
        E 120 80 37 00
        E 360 90 40 60
        E 840 80 40 00
        E 120 90 40 60
        E 840 80 40 00
        E 120 90 3c 60
        E 360 80 3c 00
        E 120 90 40 60
        E 360 80 40 00
        E 120 90 37 60
        E 360 80 37 00
        E 120 90 37 60
        E 120 80 37 00
        E 360 90 40 60
        E 840 80 40 00 -1
        E 120 90 38 60
        E 120 80 38 00
        E 360 90 3b 60
        E 120 80 3b 00
        E 360 90 3e 60
        E 120 80 3e 00
        E 360 90 3b 60
        E 120 80 3b 00
        E 360 90 3c 60
        E 120 80 3c 00
        E 360 90 39 60
        E 120 80 39 00
        E 360 90 38 60
        E 120 80 38 00
        E 360 90 38 60
        E 120 80 38 00
        E 360 90 34 60
        E 360 80 34 00
        E 120 90 37 60
        E 120 80 37 00
        E 360 90 40 60
        E 360 80 40 00
        E 120 90 34 60
        E 360 80 34 00
        E 120 90 39 60
        E 120 80 39 00
        E 1800 90 34 60
        E 360 80 34 00
        E 600 90 40 60
        E 360 80 40 00
        E 120 90 34 60
        E 360 80 34 00
        E 120 90 39 60
        E 120 80 39 00
        E 1320 90 3b 60
        E 120 80 3b 00
        E 360 90 3c 60
        E 1320 80 3c 00
        E 120 90 3b 60
        E 120 80 3b 00
        E 360 90 39 60
        E 1440 80 39 00
        E 240 90 37 60
        E 120 80 37 00
        E 120 90 40 60
        E 360 80 40 00
        E 120 90 3c 60
        E 360 80 3c 00
        E 120 90 39 60
        E 360 80 39 00
        E 120 90 34 60
        E 360 80 34 00
        E 120 90 40 60
        E 360 80 40 00
        E 120 90 3b 60
        E 360 80 3b 00
        E 120 90 38 60
        E 360 80 38 00
        E 120 90 34 60
        E 360 80 34 00
        E 120 90 40 60
        E 840 80 40 00
        E 120 90 3c 60
        E 360 80 3c 00
        E 120 90 40 60
        E 360 80 40 00
        E 120 90 37 60
        E 360 80 37 00
        E 120 90 37 60
        E 120 80 37 00
        E 360 90 40 60
        E 840 80 40 00
        E 120 90 40 60
        E 840 80 40 00
        E 120 90 3c 60
        E 360 80 3c 00
        E 120 90 40 60
        E 360 80 40 00
        E 120 90 37 60
        E 360 80 37 00
        E 120 90 37 60
        E 120 80 37 00
        E 360 90 40 60
        E 840 80 40 00 -1
        E 120 90 38 60
        E 120 80 38 00
        E 360 90 3b 60
        E 120 80 3b 00
        E 360 90 3e 60
        E 120 80 3e 00
        E 360 90 3b 60
        E 120 80 3b 00
        E 360 90 3c 60
        E 120 80 3c 00
        E 360 90 39 60
        E 120 80 39 00
        E 360 90 38 60
        E 120 80 38 00
        E 360 90 38 60
        E 120 80 38 00
        E 360 90 34 60
        E 360 80 34 00
        E 120 90 37 60
        E 120 80 37 00
        E 360 90 40 60
        E 360 80 40 00
        E 120 90 34 60
        E 360 80 34 00
        E 120 90 39 60
        E 120 80 39 00
        E 1800 90 34 60
        E 360 80 34 00
        E 600 90 40 60
        E 360 80 40 00
        E 120 90 34 60
        E 360 80 34 00
        E 120 90 39 60
        E 120 80 39 00
        E 1320 90 3b 60
        E 120 80 3b 00
        E 360 90 3c 60
        E 1320 80 3c 00
        E 120 90 3b 60
        E 120 80 3b 00
        E 360 90 39 60
        E 1440 80 39 00
        E 240 90 37 60
        E 120 80 37 00
        E 120 90 40 60
        E 360 80 40 00
        E 120 90 3c 60
        E 360 80 3c 00
        E 120 90 39 60
        E 360 80 39 00
        E 120 90 34 60
        E 360 80 34 00
        E 120 90 40 60
        E 360 80 40 00
        E 120 90 3b 60
        E 360 80 3b 00
        E 120 90 38 60
        E 360 80 38 00
        E 120 90 34 60
        E 360 80 34 00
        E 120 90 40 60
        E 840 80 40 00
        E 120 90 3c 60
        E 360 80 3c 00
        E 120 90 40 60
        E 360 80 40 00
        E 120 90 37 60
        E 360 80 37 00
        E 120 90 37 60
        E 120 80 37 00
        E 360 90 40 60
        E 840 80 40 00
        E 120 90 40 60
        E 840 80 40 00
        E 120 90 3c 60
        E 360 80 3c 00
        E 120 90 40 60
        E 360 80 40 00
        E 120 90 37 60
        E 360 80 37 00
        E 120 90 37 60
        E 120 80 37 00
        E 360 90 40 60
        E 840 80 40 00 -1
        E 120 90 38 60
        E 120 80 38 00
        E 360 90 3b 60
        E 120 80 3b 00
        E 360 90 3e 60
        E 120 80 3e 00
        E 360 90 3b 60
        E 120 80 3b 00
        E 360 90 3c 60
        E 120 80 3c 00
        E 360 90 39 60
        E 120 80 39 00
        E 360 90 38 60
        E 120 80 38 00
        E 360 90 38 60
        E 120 80 38 00
        E 360 90 34 60
        E 360 80 34 00
        E 120 90 37 60
        E 120 80 37 00
        E 360 90 40 60
        E 360 80 40 00
        E 120 90 34 60
        E 360 80 34 00
        E 120 90 39 60
        E 120 80 39 00
        E 1800 90 34 60
        E 360 80 34 00
        E 600 90 40 60
        E 360 80 40 00
        E 120 90 34 60
        E 360 80 34 00
        E 120 90 39 60
        E 120 80 39 00
        E 1320 90 3b 60
        E 120 80 3b 00
        E 360 90 3c 60
        E 1320 80 3c 00
        E 120 90 3b 60
        E 120 80 3b 00
        E 360 90 39 60
        E 1440 80 39 00
        E 240 90 37 60
        E 120 80 37 00
        E 120 90 40 60
        E 360 80 40 00
        E 120 90 3c 60
        E 360 80 3c 00
        E 120 90 39 60
        E 360 80 39 00
        E 120 90 34 60
        E 360 80 34 00
        E 120 90 40 60
        E 360 80 40 00
        E 120 90 3b 60
        E 360 80 3b 00
        E 120 90 38 60
        E 360 80 38 00
        E 120 90 34 60
        E 360 80 34 00
        E 120 90 40 60
        E 840 80 40 00
        E 120 90 3c 60
        E 360 80 3c 00
        E 120 90 40 60
        E 360 80 40 00
        E 120 90 37 60
        E 360 80 37 00
        E 120 90 37 60
        E 120 80 37 00
        E 360 90 40 60
        E 840 80 40 00
        E 120 90 40 60
        E 840 80 40 00
        E 120 90 3c 60
        E 360 80 3c 00
        E 120 90 40 60
        E 360 80 40 00
        E 120 90 37 60
        E 360 80 37 00
        E 120 90 37 60
        E 120 80 37 00
        E 360 90 40 60
        E 840 80 40 00 -1
        E 120 90 38 60
        E 120 80 38 00
        E 360 90 3b 60
        E 120 80 3b 00
        E 360 90 3e 60
        E 120 80 3e 00
        E 360 90 3b 60
        E 120 80 3b 00
        E 360 90 3c 60
        E 120 80 3c 00
        E 360 90 39 60
        E 120 80 39 00
        E 360 90 38 60
        E 120 80 38 00
        E 360 90 38 60
        E 120 80 38 00
        E 360 90 34 60
        E 360 80 34 00
        E 120 90 37 60
        E 120 80 37 00
        E 360 90 40 60
        E 360 80 40 00
        E 120 90 34 60
        E 360 80 34 00
        E 120 90 39 60
        E 120 80 39 00
        E 1800 90 34 60
        E 360 80 34 00
        E 600 90 40 60
        E 360 80 40 00
        E 120 90 34 60
        E 360 80 34 00
        E 120 90 39 60
        E 120 80 39 00
        E 1320 90 3b 60
        E 120 80 3b 00
        E 360 90 3c 60
        E 1320 80 3c 00
        E 120 90 3b 60
        E 120 80 3b 00
        E 360 90 39 60
        E 1440 80 39 00
        E 240 90 37 60
        E 120 80 37 00
        E 120 90 40 60
        E 360 80 40 00
        E 120 90 3c 60
        E 360 80 3c 00
        E 120 90 39 60
        E 360 80 39 00
        E 120 90 34 60
        E 360 80 34 00
        E 120 90 40 60
        E 360 80 40 00
        E 120 90 3b 60
        E 360 80 3b 00
        E 120 90 38 60
        E 360 80 38 00
        E 120 90 34 60
        E 480 80 34 00
        E 1920 b0 7b 00
        GUID {372054A0-7AB3-4279-BF80-426739028EB5}
        IGNTEMPO 0 120.00000000 4 4
        SRCCOLOR 2
        VELLANE 132 128 60
        COLORMAP "C:\Program Files\REAPER (x64)\Data\color_maps\rockband_guitarbass.png"
        CFGEDITVIEW -672.732625 71.010678 0 13 0 0 0
        CFGEDIT 1 1 0 1 1 0 1 1 1 1 1 0.25000000 -8 -8 1544 872 0 2 1 1 0.00000000 0 1 0 0 0.500000 0 0 1.000000 64
        KEYSNAP 0 6 "102030050700" 0 "Pentatonic"
        EVTFILTER 0 -1 -1 -1 -1 0 1 0 0 -1.00000000 -1.00000000
      >
    >
  >
  <TRACK '{600D844D-DA23-4152-B15A-BE65A74C3B1B}'
    NAME "PART REAL_KEYS_E"
    PEAKCOL 16576
    BEAT -1
    AUTOMODE 0
    VOLPAN 1.00000000000000 0.00000000000000 -1.00000000000000 -1.00000000000000 1.00000000000000
    MUTESOLO 0 0 0
    IPHASE 0
    ISBUS 0 0
    BUSCOMP 0 0
    SHOWINMIX 1 0.666700 0.500000 1 0.500000 -1 -1 -1
    FREEMODE 0
    SEL 0
    REC 0 0 0 0 0 0 0
    VU 2
    TRACKHEIGHT 0 0
    INQ 0 0 0 0.5000000000 100 0 0 100
    NCHAN 2
    FX 0
    TRACKID {600D844D-DA23-4152-B15A-BE65A74C3B1B}
    PERF 0
    MIDIOUT -1
    <MIDINOTENAMES
      0 127 "TRILL MARKER"
      0 126 "GLISSANDO MARKER"
      0 125 "---"
      0 116 "OVERDRIVE"
      0 115 "SOLO"
      0 114 "---"
      0 72 "Highest playable note B#3"
      0 71 "B3"
      0 70 "A#3"
      0 69 "A3"
      0 68 "G#3"
      0 67 "G3"
      0 66 "F#3"
      0 65 "F3"
      0 64 "E3"
      0 63 "D#3"
      0 62 "D3"
      0 61 "C#3"
      0 60 "C3"
      0 59 "B2"
      0 58 "A#2"
      0 57 "A2"
      0 56 "G#2"
      0 55 "G2"
      0 54 "F#2"
      0 53 "F2"
      0 52 "E2"
      0 51 "D#2"
      0 50 "D2"
      0 49 "C#2"
      0 48 "Lowest playable note C2"
      0 10 "---"
      0 9 "Range A2-C4"
      0 8 "Range"
      0 7 "Range"
      0 6 "Range"
      0 5 "Range F2-A3"
      0 4 "Range"
      0 3 "Range"
      0 2 "Range"
      0 1 "Range"
      0 0 "Range C2-E3"
    >
    MAINSEND 1 0
    <FXCHAIN
      WNDRECT 0 43 655 467
      SHOW 0
      LASTSEL 1
      DOCKED 0
      BYPASS 0 0
      <JS "MIDI/midi_note_filter" ""
        48.000000 72.000000 - - - - - - - - - - - - - - - - - - - - - - - - - - - - - - - - - - - - - - - - - - - - - - - - - - - - - - - - - - - - - - 
      >
      FLOATPOS 0 0 0 0
      FXID {DBDF107F-7C87-4099-80F9-75188FD2516E}
      WAK 0
      BYPASS 0 0
      <VST "VSTi: ReaSynth (Cockos)" "reasynth.dll" 0 ""
        eXNlcu9e7f4AAAAAAgAAAAEAAAAAAAAAAgAAAAAAAAA4AAAAAAAAAA==
        AAAQAO++rd4N8K3eppvEOxe30ToAAIA/AAAAAAAAAADMm4A+6WeIPQ==
        AAAAAAAAAD8AAIA/AACAPwAAAD8AABAAAAA=
      >
      FLOATPOS 0 0 0 0
      FXID {25A48FB3-836B-494D-B64B-2EC666444AF3}
      WAK 0
    >
    <ITEM
      POSITION 0.00000000000000
      SNAPOFFS 0.00000000000000
      LENGTH 173.10513447432763
      LOOP 0
      ALLTAKES 0
      SEL 0
      FADEIN 1 0.000000 0.000000 1 0
      FADEOUT 1 0.000000 0.000000 1 0
      MUTE 0
      IGUID {FD61335A-5AF5-40A1-BE80-2EDD2F42D9A6}
      IID 7
      NAME "PART REAL_KEYS_E"
      VOLPAN 1.000000 0.000000 1.000000 -1.000000
      SOFFS 0.00000000000000 0.00000000000000
      PLAYRATE 1.00000000000000 1 0.00000000000000 -1
      CHANMODE 0
      GUID {27E03160-24D6-4DC0-8242-70A1475C1B3F}
      <SOURCE MIDI
        HASDATA 1 480 QN
        POOLEDEVTS {CA482647-57AA-4C6E-96B1-B64EA0C6E42B}
        <X 0 0
          /wNQQVJUIFJFQUxfS0VZU19F
        >
        e 0 90 04 60
        e 120 80 04 00
        E 3720 90 40 60
        E 840 80 40 00
        E 120 90 3c 60
        E 360 80 3c 00
        E 600 90 37 60
        E 360 80 37 00
        E 600 90 40 60
        E 840 80 40 00
        E 120 90 40 60
        E 840 80 40 00
        E 120 90 3c 60
        E 360 80 3c 00
        E 600 90 37 60
        E 360 80 37 00
        E 600 90 40 60
        E 840 80 40 00 -1
        E 120 90 38 60
        E 120 80 38 00
        E 840 90 3e 60
        E 120 80 3e 00
        E 840 90 3c 60
        E 120 80 3c 00
        E 840 90 38 60
        E 120 80 38 00
        E 840 90 34 60
        E 360 80 34 00
        E 600 90 40 60
        E 360 80 40 00
        E 600 90 39 60
        E 120 80 39 00
        E 1800 90 34 60
        E 360 80 34 00
        E 600 90 40 60
        E 360 80 40 00
        E 600 90 39 60
        E 120 80 39 00
        E 1800 90 3c 60
        E 1320 80 3c 00
        E 600 90 39 60
        E 1440 80 39 00
        E 480 90 40 60
        E 360 80 40 00
        E 600 90 39 60
        E 360 80 39 00
        E 600 90 40 60
        E 360 80 40 00
        E 600 90 38 60
        E 360 80 38 00
        E 600 90 40 60
        E 840 80 40 00
        E 120 90 3c 60
        E 360 80 3c 00
        E 600 90 37 60
        E 360 80 37 00
        E 600 90 40 60
        E 840 80 40 00
        E 120 90 40 60
        E 840 80 40 00
        E 120 90 3c 60
        E 360 80 3c 00
        E 600 90 37 60
        E 360 80 37 00
        E 600 90 40 60
        E 840 80 40 00 -1
        E 120 90 38 60
        E 120 80 38 00
        E 840 90 3e 60
        E 120 80 3e 00
        E 840 90 3c 60
        E 120 80 3c 00
        E 840 90 38 60
        E 120 80 38 00
        E 840 90 34 60
        E 360 80 34 00
        E 600 90 40 60
        E 360 80 40 00
        E 600 90 39 60
        E 120 80 39 00
        E 1800 90 34 60
        E 360 80 34 00
        E 600 90 40 60
        E 360 80 40 00
        E 600 90 39 60
        E 120 80 39 00
        E 1800 90 3c 60
        E 1320 80 3c 00
        E 600 90 39 60
        E 1440 80 39 00
        E 480 90 40 60
        E 360 80 40 00
        E 600 90 39 60
        E 360 80 39 00
        E 600 90 40 60
        E 360 80 40 00
        E 600 90 38 60
        E 360 80 38 00
        E 600 90 40 60
        E 840 80 40 00
        E 120 90 3c 60
        E 360 80 3c 00
        E 600 90 37 60
        E 360 80 37 00
        E 600 90 40 60
        E 840 80 40 00
        E 120 90 40 60
        E 840 80 40 00
        E 120 90 3c 60
        E 360 80 3c 00
        E 600 90 37 60
        E 360 80 37 00
        E 600 90 40 60
        E 840 80 40 00 -1
        E 120 90 38 60
        E 120 80 38 00
        E 840 90 3e 60
        E 120 80 3e 00
        E 840 90 3c 60
        E 120 80 3c 00
        E 840 90 38 60
        E 120 80 38 00
        E 840 90 34 60
        E 360 80 34 00
        E 600 90 40 60
        E 360 80 40 00
        E 600 90 39 60
        E 120 80 39 00
        E 1800 90 34 60
        E 360 80 34 00
        E 600 90 40 60
        E 360 80 40 00
        E 600 90 39 60
        E 120 80 39 00
        E 1800 90 3c 60
        E 1320 80 3c 00
        E 600 90 39 60
        E 1440 80 39 00
        E 480 90 40 60
        E 360 80 40 00
        E 600 90 39 60
        E 360 80 39 00
        E 600 90 40 60
        E 360 80 40 00
        E 600 90 38 60
        E 360 80 38 00
        E 600 90 40 60
        E 840 80 40 00
        E 120 90 3c 60
        E 360 80 3c 00
        E 600 90 37 60
        E 360 80 37 00
        E 600 90 40 60
        E 840 80 40 00
        E 120 90 40 60
        E 840 80 40 00
        E 120 90 3c 60
        E 360 80 3c 00
        E 600 90 37 60
        E 360 80 37 00
        E 600 90 40 60
        E 840 80 40 00 -1
        E 120 90 38 60
        E 120 80 38 00
        E 840 90 3e 60
        E 120 80 3e 00
        E 840 90 3c 60
        E 120 80 3c 00
        E 840 90 38 60
        E 120 80 38 00
        E 840 90 34 60
        E 360 80 34 00
        E 600 90 40 60
        E 360 80 40 00
        E 600 90 39 60
        E 120 80 39 00
        E 1800 90 34 60
        E 360 80 34 00
        E 600 90 40 60
        E 360 80 40 00
        E 600 90 39 60
        E 120 80 39 00
        E 1800 90 3c 60
        E 1320 80 3c 00
        E 600 90 39 60
        E 1440 80 39 00
        E 480 90 40 60
        E 360 80 40 00
        E 600 90 39 60
        E 360 80 39 00
        E 600 90 40 60
        E 360 80 40 00
        E 600 90 38 60
        E 360 80 38 00
        E 2520 b0 7b 00
        GUID {372054A0-7AB3-4279-BF80-426739028EB5}
        IGNTEMPO 0 120.00000000 4 4
        SRCCOLOR 2
        VELLANE 132 128 60
        COLORMAP "C:\Program Files\REAPER (x64)\Data\color_maps\rockband_guitarbass.png"
        CFGEDITVIEW -672.732625 71.010678 0 13 0 0 0
        CFGEDIT 1 1 0 1 1 0 1 1 1 1 1 0.25000000 -8 -8 1544 872 0 2 1 1 0.00000000 0 1 0 0 0.500000 0 0 1.000000 64
        KEYSNAP 0 6 "102030050700" 0 "Pentatonic"
        EVTFILTER 0 -1 -1 -1 -1 0 1 0 0 -1.00000000 -1.00000000
      >
    >
  >
  <TRACK '{FC1ADDB4-8AD3-42B9-BC47-C212613A26D5}'
    NAME "PART KEYS_ANIM_RH"
    PEAKCOL 16576
    BEAT -1
    AUTOMODE 0
    VOLPAN 1.00000000000000 0.00000000000000 -1.00000000000000 -1.00000000000000 1.00000000000000
    MUTESOLO 0 0 0
    IPHASE 0
    ISBUS 0 0
    BUSCOMP 0 0
    SHOWINMIX 1 0.666700 0.500000 1 0.500000 -1 -1 -1
    FREEMODE 0
    SEL 0
    REC 0 0 0 0 0 0 0
    VU 2
    TRACKHEIGHT 0 0
    INQ 0 0 0 0.5000000000 100 0 0 100
    NCHAN 2
    FX 0
    TRACKID {FC1ADDB4-8AD3-42B9-BC47-C212613A26D5}
    PERF 0
    MIDIOUT -1
    <MIDINOTENAMES
      0 72 "Highest playable note B#3"
      0 71 "B3"
      0 70 "A#3"
      0 69 "A3"
      0 68 "G#3"
      0 67 "G3"
      0 66 "F#3"
      0 65 "F3"
      0 64 "E3"
      0 63 "D#3"
      0 62 "D3"
      0 61 "C#3"
      0 60 "C3"
      0 59 "B2"
      0 58 "A#2"
      0 57 "A2"
      0 56 "G#2"
      0 55 "G2"
      0 54 "F#2"
      0 53 "F2"
      0 52 "E2"
      0 51 "D#2"
      0 50 "D2"
      0 49 "C#2"
      0 48 "Lowest playable note C2"
    >
    MAINSEND 1 0
    <FXCHAIN
      WNDRECT 0 43 655 467
      SHOW 0
      LASTSEL 1
      DOCKED 0
      BYPASS 0 0
      <JS "MIDI/midi_note_filter" ""
        48.000000 72.000000 - - - - - - - - - - - - - - - - - - - - - - - - - - - - - - - - - - - - - - - - - - - - - - - - - - - - - - - - - - - - - - 
      >
      FLOATPOS 0 0 0 0
      FXID {DBDF107F-7C87-4099-80F9-75188FD2516E}
      WAK 0
      BYPASS 0 0
      <VST "VSTi: ReaSynth (Cockos)" "reasynth.dll" 0 ""
        eXNlcu9e7f4AAAAAAgAAAAEAAAAAAAAAAgAAAAAAAAA4AAAAAAAAAA==
        AAAQAO++rd4N8K3eppvEOxe30ToAAIA/AAAAAAAAAADMm4A+6WeIPQ==
        AAAAAAAAAD8AAIA/AACAPwAAAD8AABAAAAA=
      >
      FLOATPOS 0 0 0 0
      FXID {25A48FB3-836B-494D-B64B-2EC666444AF3}
      WAK 0
    >
    <ITEM
      POSITION 0.00000000000000
      SNAPOFFS 0.00000000000000
      LENGTH 173.10513447432763
      LOOP 0
      ALLTAKES 0
      SEL 0
      FADEIN 1 0.000000 0.000000 1 0
      FADEOUT 1 0.000000 0.000000 1 0
      MUTE 0
      IGUID {FD61335A-5AF5-40A1-BE80-2EDD2F42D9A6}
      IID 7
      NAME "PART KEYS_ANIM_RH"
      VOLPAN 1.000000 0.000000 1.000000 -1.000000
      SOFFS 0.00000000000000 0.00000000000000
      PLAYRATE 1.00000000000000 1 0.00000000000000 -1
      CHANMODE 0
      GUID {27E03160-24D6-4DC0-8242-70A1475C1B3F}
      <SOURCE MIDI
        HASDATA 1 480 QN
        POOLEDEVTS {6F257101-6D02-4C51-BFF5-C864C027761B}
        <X 0 0
          /wNQQVJUIEtFWVNfQU5JTV9SSA==
        >
        e 3840 90 40 60
        e 840 80 40 00
        e 120 90 3c 60
        e 360 80 3c 00
        e 120 90 40 60
        e 360 80 40 00
        e 120 90 37 60
        e 360 80 37 00
        e 120 90 37 60
        e 120 80 37 00
        e 0 90 40 60
        e 120 80 40 00
        e 0 90 3c 60
        e 120 80 3c 00
        e 120 90 40 60
        e 840 80 40 00
        e 120 90 40 60
        e 840 80 40 00
        e 120 90 3c 60
        e 360 80 3c 00
        e 120 90 40 60
        e 360 80 40 00
        e 120 90 37 60
        e 360 80 37 00
        e 120 90 37 60
        e 120 80 37 00
        e 0 90 40 60
        e 120 80 40 00
        e 0 90 3c 60
        e 120 80 3c 00
        e 120 90 40 60
        e 840 80 40 00 -1
        e 120 90 38 60
        e 120 80 38 00
        e 120 90 34 60
        e 120 80 34 00
        e 120 90 3b 60
        e 120 80 3b 00
        e 120 90 34 60
        e 120 80 34 00
        e 120 90 3e 60
        e 120 80 3e 00
        e 120 90 38 60
        e 120 80 38 00
        e 120 90 3b 60
        e 120 80 3b 00
        e 120 90 38 60
        e 120 80 38 00
        e 120 90 3c 60
        e 120 80 3c 00
        e 120 90 35 60
        e 120 80 35 00
        e 120 90 39 60
        e 120 80 39 00
        e 120 90 35 60
        e 120 80 35 00
        e 120 90 38 60
        e 120 80 38 00
        e 120 90 35 60
        e 120 80 35 00
        e 120 90 38 60
        e 120 80 38 00
        e 120 90 35 60
        e 120 80 35 00
        e 120 90 34 60
        e 360 80 34 00
        e 120 90 37 60
        e 120 80 37 00
        e 0 90 37 60
        e 120 80 37 00
        e 0 90 37 60
        e 120 80 37 00
        e 0 90 41 60
        e 120 80 41 00
        e 0 90 40 60
        e 360 80 40 00
        e 120 90 34 60
        e 360 80 34 00
        e 120 90 39 60
        e 120 80 39 00
        e 240 90 3c 60
        e 120 80 3c 00
        e 0 90 3b 60
        e 1320 80 3b 00
        e 120 90 34 60
        e 360 80 34 00
        e 120 90 37 60
        e 120 80 37 00
        e 0 90 37 60
        e 120 80 37 00
        e 0 90 37 60
        e 120 80 37 00
        e 0 90 39 60
        e 120 80 39 00
        e 0 90 40 60
        e 360 80 40 00
        e 120 90 34 60
        e 360 80 34 00
        e 120 90 39 60
        e 120 80 39 00
        e 240 90 3c 60
        e 120 80 3c 00
        e 0 90 3b 60
        e 840 80 3b 00
        e 120 90 3b 60
        e 120 80 3b 00
        e 120 90 3e 60
        e 120 80 3e 00
        e 120 90 3c 60
        e 1320 80 3c 00
        e 120 90 3b 60
        e 120 80 3b 00
        e 120 90 3c 60
        e 120 80 3c 00
        e 120 90 39 60
        e 1440 80 39 00
        e 240 90 37 60
        e 120 80 37 00
        e 0 90 39 60
        e 120 80 39 00
        e 0 90 40 60
        e 360 80 40 00
        e 120 90 3c 60
        e 360 80 3c 00
        e 120 90 39 60
        e 360 80 39 00
        e 120 90 34 60
        e 360 80 34 00
        e 120 90 40 60
        e 360 80 40 00
        e 120 90 3b 60
        e 360 80 3b 00
        e 120 90 38 60
        e 360 80 38 00
        e 120 90 34 60
        e 360 80 34 00
        e 120 90 40 60
        e 840 80 40 00
        e 120 90 3c 60
        e 360 80 3c 00
        e 120 90 40 60
        e 360 80 40 00
        e 120 90 37 60
        e 360 80 37 00
        e 120 90 37 60
        e 120 80 37 00
        e 0 90 40 60
        e 120 80 40 00
        e 0 90 3c 60
        e 120 80 3c 00
        e 120 90 40 60
        e 840 80 40 00
        e 120 90 40 60
        e 840 80 40 00
        e 120 90 3c 60
        e 360 80 3c 00
        e 120 90 40 60
        e 360 80 40 00
        e 120 90 37 60
        e 360 80 37 00
        e 120 90 37 60
        e 120 80 37 00
        e 0 90 40 60
        e 120 80 40 00
        e 0 90 3c 60
        e 120 80 3c 00
        e 120 90 40 60
        e 840 80 40 00 -1
        e 120 90 38 60
        e 120 80 38 00
        e 120 90 34 60
        e 120 80 34 00
        e 120 90 3b 60
        e 120 80 3b 00
        e 120 90 34 60
        e 120 80 34 00
        e 120 90 3e 60
        e 120 80 3e 00
        e 120 90 38 60
        e 120 80 38 00
        e 120 90 3b 60
        e 120 80 3b 00
        e 120 90 38 60
        e 120 80 38 00
        e 120 90 3c 60
        e 120 80 3c 00
        e 120 90 35 60
        e 120 80 35 00
        e 120 90 39 60
        e 120 80 39 00
        e 120 90 35 60
        e 120 80 35 00
        e 120 90 38 60
        e 120 80 38 00
        e 120 90 35 60
        e 120 80 35 00
        e 120 90 38 60
        e 120 80 38 00
        e 120 90 35 60
        e 120 80 35 00
        e 120 90 34 60
        e 360 80 34 00
        e 120 90 37 60
        e 120 80 37 00
        e 0 90 37 60
        e 120 80 37 00
        e 0 90 37 60
        e 120 80 37 00
        e 0 90 41 60
        e 120 80 41 00
        e 0 90 40 60
        e 360 80 40 00
        e 120 90 34 60
        e 360 80 34 00
        e 120 90 39 60
        e 120 80 39 00
        e 240 90 3c 60
        e 120 80 3c 00
        e 0 90 3b 60
        e 1320 80 3b 00
        e 120 90 34 60
        e 360 80 34 00
        e 120 90 37 60
        e 120 80 37 00
        e 0 90 37 60
        e 120 80 37 00
        e 0 90 37 60
        e 120 80 37 00
        e 0 90 39 60
        e 120 80 39 00
        e 0 90 40 60
        e 360 80 40 00
        e 120 90 34 60
        e 360 80 34 00
        e 120 90 39 60
        e 120 80 39 00
        e 240 90 3c 60
        e 120 80 3c 00
        e 0 90 3b 60
        e 840 80 3b 00
        e 120 90 3b 60
        e 120 80 3b 00
        e 120 90 3e 60
        e 120 80 3e 00
        e 120 90 3c 60
        e 1320 80 3c 00
        e 120 90 3b 60
        e 120 80 3b 00
        e 120 90 3c 60
        e 120 80 3c 00
        e 120 90 39 60
        e 1440 80 39 00
        e 240 90 37 60
        e 120 80 37 00
        e 0 90 39 60
        e 120 80 39 00
        e 0 90 40 60
        e 360 80 40 00
        e 120 90 3c 60
        e 360 80 3c 00
        e 120 90 39 60
        e 360 80 39 00
        e 120 90 34 60
        e 360 80 34 00
        e 120 90 40 60
        e 360 80 40 00
        e 120 90 3b 60
        e 360 80 3b 00
        e 120 90 38 60
        e 360 80 38 00
        e 120 90 34 60
        e 360 80 34 00
        e 120 90 40 60
        e 840 80 40 00
        e 120 90 3c 60
        e 360 80 3c 00
        e 120 90 40 60
        e 360 80 40 00
        e 120 90 37 60
        e 360 80 37 00
        e 120 90 37 60
        e 120 80 37 00
        e 0 90 40 60
        e 120 80 40 00
        e 0 90 3c 60
        e 120 80 3c 00
        e 120 90 40 60
        e 840 80 40 00
        e 120 90 40 60
        e 840 80 40 00
        e 120 90 3c 60
        e 360 80 3c 00
        e 120 90 40 60
        e 360 80 40 00
        e 120 90 37 60
        e 360 80 37 00
        e 120 90 37 60
        e 120 80 37 00
        e 0 90 40 60
        e 120 80 40 00
        e 0 90 3c 60
        e 120 80 3c 00
        e 120 90 40 60
        e 840 80 40 00 -1
        e 120 90 38 60
        e 120 80 38 00
        e 120 90 34 60
        e 120 80 34 00
        e 120 90 3b 60
        e 120 80 3b 00
        e 120 90 34 60
        e 120 80 34 00
        e 120 90 3e 60
        e 120 80 3e 00
        e 120 90 38 60
        e 120 80 38 00
        e 120 90 3b 60
        e 120 80 3b 00
        e 120 90 38 60
        e 120 80 38 00
        e 120 90 3c 60
        e 120 80 3c 00
        e 120 90 35 60
        e 120 80 35 00
        e 120 90 39 60
        e 120 80 39 00
        e 120 90 35 60
        e 120 80 35 00
        e 120 90 38 60
        e 120 80 38 00
        e 120 90 35 60
        e 120 80 35 00
        e 120 90 38 60
        e 120 80 38 00
        e 120 90 35 60
        e 120 80 35 00
        e 120 90 34 60
        e 360 80 34 00
        e 120 90 37 60
        e 120 80 37 00
        e 0 90 37 60
        e 120 80 37 00
        e 0 90 37 60
        e 120 80 37 00
        e 0 90 41 60
        e 120 80 41 00
        e 0 90 40 60
        e 360 80 40 00
        e 120 90 34 60
        e 360 80 34 00
        e 120 90 39 60
        e 120 80 39 00
        e 240 90 3c 60
        e 120 80 3c 00
        e 0 90 3b 60
        e 1320 80 3b 00
        e 120 90 34 60
        e 360 80 34 00
        e 120 90 37 60
        e 120 80 37 00
        e 0 90 37 60
        e 120 80 37 00
        e 0 90 37 60
        e 120 80 37 00
        e 0 90 39 60
        e 120 80 39 00
        e 0 90 40 60
        e 360 80 40 00
        e 120 90 34 60
        e 360 80 34 00
        e 120 90 39 60
        e 120 80 39 00
        e 240 90 3c 60
        e 120 80 3c 00
        e 0 90 3b 60
        e 840 80 3b 00
        e 120 90 3b 60
        e 120 80 3b 00
        e 120 90 3e 60
        e 120 80 3e 00
        e 120 90 3c 60
        e 1320 80 3c 00
        e 120 90 3b 60
        e 120 80 3b 00
        e 120 90 3c 60
        e 120 80 3c 00
        e 120 90 39 60
        e 1440 80 39 00
        e 240 90 37 60
        e 120 80 37 00
        e 0 90 39 60
        e 120 80 39 00
        e 0 90 40 60
        e 360 80 40 00
        e 120 90 3c 60
        e 360 80 3c 00
        e 120 90 39 60
        e 360 80 39 00
        e 120 90 34 60
        e 360 80 34 00
        e 120 90 40 60
        e 360 80 40 00
        e 120 90 3b 60
        e 360 80 3b 00
        e 120 90 38 60
        e 360 80 38 00
        e 120 90 34 60
        e 360 80 34 00
        e 120 90 40 60
        e 840 80 40 00
        e 120 90 3c 60
        e 360 80 3c 00
        e 120 90 40 60
        e 360 80 40 00
        e 120 90 37 60
        e 360 80 37 00
        e 120 90 37 60
        e 120 80 37 00
        e 0 90 40 60
        e 120 80 40 00
        e 0 90 3c 60
        e 120 80 3c 00
        e 120 90 40 60
        e 840 80 40 00
        e 120 90 40 60
        e 840 80 40 00
        e 120 90 3c 60
        e 360 80 3c 00
        e 120 90 40 60
        e 360 80 40 00
        e 120 90 37 60
        e 360 80 37 00
        e 120 90 37 60
        e 120 80 37 00
        e 0 90 40 60
        e 120 80 40 00
        e 0 90 3c 60
        e 120 80 3c 00
        e 120 90 40 60
        e 840 80 40 00 -1
        e 120 90 38 60
        e 120 80 38 00
        e 120 90 34 60
        e 120 80 34 00
        e 120 90 3b 60
        e 120 80 3b 00
        e 120 90 34 60
        e 120 80 34 00
        e 120 90 3e 60
        e 120 80 3e 00
        e 120 90 38 60
        e 120 80 38 00
        e 120 90 3b 60
        e 120 80 3b 00
        e 120 90 38 60
        e 120 80 38 00
        e 120 90 3c 60
        e 120 80 3c 00
        e 120 90 35 60
        e 120 80 35 00
        e 120 90 39 60
        e 120 80 39 00
        e 120 90 35 60
        e 120 80 35 00
        e 120 90 38 60
        e 120 80 38 00
        e 120 90 35 60
        e 120 80 35 00
        e 120 90 38 60
        e 120 80 38 00
        e 120 90 35 60
        e 120 80 35 00
        e 120 90 34 60
        e 360 80 34 00
        e 120 90 37 60
        e 120 80 37 00
        e 0 90 37 60
        e 120 80 37 00
        e 0 90 37 60
        e 120 80 37 00
        e 0 90 41 60
        e 120 80 41 00
        e 0 90 40 60
        e 360 80 40 00
        e 120 90 34 60
        e 360 80 34 00
        e 120 90 39 60
        e 120 80 39 00
        e 240 90 3c 60
        e 120 80 3c 00
        e 0 90 3b 60
        e 1320 80 3b 00
        e 120 90 34 60
        e 360 80 34 00
        e 120 90 37 60
        e 120 80 37 00
        e 0 90 37 60
        e 120 80 37 00
        e 0 90 37 60
        e 120 80 37 00
        e 0 90 39 60
        e 120 80 39 00
        e 0 90 40 60
        e 360 80 40 00
        e 120 90 34 60
        e 360 80 34 00
        e 120 90 39 60
        e 120 80 39 00
        e 240 90 3c 60
        e 120 80 3c 00
        e 0 90 3b 60
        e 840 80 3b 00
        e 120 90 3b 60
        e 120 80 3b 00
        e 120 90 3e 60
        e 120 80 3e 00
        e 120 90 3c 60
        e 1320 80 3c 00
        e 120 90 3b 60
        e 120 80 3b 00
        e 120 90 3c 60
        e 120 80 3c 00
        e 120 90 39 60
        e 1440 80 39 00
        e 240 90 37 60
        e 120 80 37 00
        e 0 90 39 60
        e 120 80 39 00
        e 0 90 40 60
        e 360 80 40 00
        e 120 90 3c 60
        e 360 80 3c 00
        e 120 90 39 60
        e 360 80 39 00
        e 120 90 34 60
        e 360 80 34 00
        e 120 90 40 60
        e 360 80 40 00
        e 120 90 3b 60
        e 360 80 3b 00
        e 120 90 38 60
        e 360 80 38 00
        e 120 90 34 60
        e 480 80 34 00
        E 1920 b0 7b 00
        GUID {372054A0-7AB3-4279-BF80-426739028EB5}
        IGNTEMPO 0 120.00000000 4 4
        SRCCOLOR 2
        VELLANE 132 128 60
        COLORMAP "C:\Program Files\REAPER (x64)\Data\color_maps\rockband_guitarbass.png"
        CFGEDITVIEW -672.732625 71.010678 0 22 0 0 0
        CFGEDIT 1 1 0 1 1 0 1 1 1 1 1 0.25000000 -8 -8 1544 872 0 2 1 1 0.00000000 0 1 0 0 0.500000 0 0 1.000000 64
        KEYSNAP 0 6 "102030050700" 0 "Pentatonic"
        EVTFILTER 0 -1 -1 -1 -1 0 1 0 0 -1.00000000 -1.00000000
      >
    >
  >
  <TRACK '{8644D71F-86B4-4F69-AED2-4D403FAFE8AC}'
    NAME "keys"
    PEAKCOL 16576
    BEAT -1
    AUTOMODE 0
    VOLPAN 1.00000000000000 0.00000000000000 -1.00000000000000 -1.00000000000000 1.00000000000000
    MUTESOLO 0 0 0
    IPHASE 0
    ISBUS 2 -1
    BUSCOMP 0 0
    SHOWINMIX 1 0.666700 0.500000 1 0.500000 -1 -1 -1
    FREEMODE 0
    SEL 0
    REC 0 0 0 0 0 0 0
    VU 2
    TRACKHEIGHT 0 0
    INQ 0 0 0 0.5000000000 100 0 0 100
    NCHAN 2
    FX 1
    TRACKID {8644D71F-86B4-4F69-AED2-4D403FAFE8AC}
    PERF 0
    MIDIOUT -1
    MAINSEND 1 0
    <ITEM
      POSITION 0.00000000000000
      SNAPOFFS 0.00000000000000
      LENGTH 173.10513447432763
      LOOP 0
      ALLTAKES 0
      SEL 0
      FADEIN 1 0.000000 0.000000 1 0
      FADEOUT 1 0.000000 0.000000 1 0
      MUTE 0
      IGUID {1E9C5225-70A5-4A34-8FBB-4F949499E900}
      IID 13
      NAME "keys.wav"
      VOLPAN 1.000000 0.000000 1.000000 -1.000000
      SOFFS 0.00000000000000
      PLAYRATE 1.00000000000000 1 0.00000000000000 -1
      CHANMODE 0
      GUID {83AC2AE1-A623-413A-A490-A9A1A0599215}
      <SOURCE WAVE
        FILE "wav\keys.wav"
      >
    >
  >
  <TRACK '{D2466A20-7472-4E48-A8E9-A5400B9EA350}'
    NAME "PART REAL_BASS"
    PEAKCOL 16576
    BEAT -1
    AUTOMODE 0
    VOLPAN 1.00000000000000 0.00000000000000 -1.00000000000000 -1.00000000000000 1.00000000000000
    MUTESOLO 0 0 0
    IPHASE 0
    ISBUS 0 0
    BUSCOMP 0 0
    SHOWINMIX 1 0.666700 0.500000 1 0.500000 -1 -1 -1
    FREEMODE 0
    SEL 0
    REC 0 0 0 0 0 0 0
    VU 2
    TRACKHEIGHT 0 0
    INQ 0 0 0 0.5000000000 100 0 0 100
    NCHAN 2
    FX 0
    TRACKID {D2466A20-7472-4E48-A8E9-A5400B9EA350}
    PERF 0
    MIDIOUT -1
    <MIDINOTENAMES
      0 127 "Trill Marker"
      0 126 "Tremolo Marker"
      0 125 "BRE"
      0 124 "BRE"
      0 123 "BRE"
      0 122 "BRE"
      0 121 "BRE"
      0 120 "BRE (use all 6)"
      0 119 "-----------"
      0 116 "OVERDRIVE"
      0 115 "Solo Marker"
      0 109 "-----------"
      0 108 "Fret Hand Position"
      0 107 "Force Chord Numbering"
      0 106 "Loose Strumming"
      0 105 "Strum Direction"
      0 104 "Arpeggio Marker"
      0 103 "Slide Marker"
      0 102 "Force HOPO"
      0 101 "EXPERT e String"
      0 100 "EXPERT B String"
      0 99 "EXPERT G String"
      0 98 "EXPERT D String"
      0 97 "EXPERT A String"
      0 96 "EXPERT E String"
      0 95 "-----------"
      0 82 "Loose Strumming"
      0 81 "Strum Direction"
      0 80 "Arpeggio Marker"
      0 79 "Slide Marker"
      0 78 "Force HOPO"
      0 77 "HARD e String"
      0 76 "HARD B String"
      0 75 "HARD G String"
      0 74 "HARD D String"
      0 73 "HARD A String"
      0 72 "HARD E String"
      0 71 "-----------"
      0 58 "Loose Strumming"
      0 56 "Arpeggio Marker"
      0 55 "Slide Marker"
      0 53 "MEDIUM e String"
      0 52 "MEDIUM B String"
      0 51 "MEDIUM G String"
      0 50 "MEDIUM D String"
      0 49 "MEDIUM A String"
      0 48 "MEDIUM E String"
      0 47 "-----------"
      0 32 "Arpeggio Marker"
      0 31 "Slide Marker"
      0 29 "EASY e String"
      0 28 "EASY B String"
      0 27 "EASY G String"
      0 26 "EASY D String"
      0 25 "EASY A String"
      0 24 "EASY E String"
      0 21 "-----------"
      0 18 "Flat/Sharp Swap"
      0 17 "Hide Chord Names"
      0 16 "Slash Chord"
      0 15 "D#"
      0 14 "D"
      0 13 "C#"
      0 12 "C"
      0 11 "B"
      0 10 "A#"
      0 9 "A"
      0 8 "G#"
      0 7 "G"
      0 6 "F#"
      0 5 "F"
      0 4 "E"
    >
    MAINSEND 1 0
    <FXCHAIN
      WNDRECT 0 43 729 467
      SHOW 0
      LASTSEL 2
      DOCKED 0
      BYPASS 0 0
      <JS "c3/progtr" ""
        0.000000 3.000000 0.000000 0.000000 0.000000 0.000000 0.000000 0.000000 0.000000 1.000000 - - - - - - - - - - - - - - - - - - - - - - - - - - - - - - - - - - - - - - - - - - - - - - - - - - - - - - 
      >
      FLOATPOS 0 0 0 0
      FXID {CFD66180-4FB3-4119-B450-F0085BCD9FBE}
      WAK 0
      BYPASS 0 0
      <JS "MIDI/midi_transpose" ""
        -12.000000 1.000000 0.000000 127.000000 - - - - - - - - - - - - - - - - - - - - - - - - - - - - - - - - - - - - - - - - - - - - - - - - - - - - - - - - - - - - 
      >
      FLOATPOS 0 0 0 0
      FXID {08168023-71AB-45A0-82BD-B1E59B7BC041}
      WAK 0
      BYPASS 0 0
      <VST "VSTi: ReaSynth (Cockos)" "reasynth.dll" 0 ""
        eXNlcu9e7f4AAAAAAgAAAAEAAAAAAAAAAgAAAAAAAAA4AAAAAAAAAA==
        AAAQAO++rd4N8K3eppvEO+gJMjwAAAAAAAAAAAAAgD8AAIA/4jAEPA==
        AAAAAAAAAD+01hM+j8L1PQAAAD8AABAAAAA=
      >
      FLOATPOS 0 0 0 0
      FXID {FDA26B8E-1D29-4E71-8DA8-55B07ED67FC0}
      WAK 0
    >
    <ITEM
      POSITION 0.00000000000000
      SNAPOFFS 0.00000000000000
      LENGTH 173.10513447432763
      LOOP 0
      ALLTAKES 0
      SEL 0
      FADEIN 1 0.000000 0.000000 1 0
      FADEOUT 1 0.000000 0.000000 1 0
      MUTE 0
      IGUID {7CEF03D6-18F9-493D-9688-A8E1A378AEA2}
      IID 5
      NAME "PART REAL_BASS"
      VOLPAN 1.000000 0.000000 1.000000 -1.000000
      SOFFS 0.00000000000000 0.00000000000000
      PLAYRATE 1.00000000000000 1 0.00000000000000 -1
      CHANMODE 0
      GUID {CC55241C-6406-4420-92B1-C91973712D54}
      <SOURCE MIDI
        HASDATA 1 480 QN
        POOLEDEVTS {0F0FC107-58F3-4463-AD9E-140199B35F59}
        <X 0 0
          /wNQQVJUIFJFQUxfQkFTUw==
        >
        E 3840 90 63 72
        E 0 90 6c 70
        E 0 90 4b 72
        E 0 90 33 72
        E 0 90 1b 72
        E 120 80 6c 00
        E 240 80 63 00
        E 0 80 4b 00
        E 0 80 33 00
        E 0 80 1b 00
        E 120 90 63 70
        E 0 90 4b 70
        E 0 90 33 70
        E 0 90 1b 70
        E 360 80 63 00
        E 0 80 4b 00
        E 0 80 33 00
        E 0 80 1b 00
        E 120 90 62 73
        E 0 90 4a 73
        E 0 90 32 73
        E 0 90 1a 73
        E 360 80 62 00
        E 0 80 4a 00
        E 0 80 32 00
        E 0 80 1a 00
        E 120 90 62 72
        E 0 90 4a 72
        E 0 90 32 72
        E 0 90 1a 72
        E 360 80 62 00
        E 0 80 4a 00
        E 0 80 32 00
        E 0 80 1a 00
        E 120 90 61 73
        E 0 90 6c 71
        E 0 90 49 73
        E 0 90 31 73
        E 0 90 19 73
        E 120 80 6c 00
        E 480 80 61 00
        E 0 80 49 00
        E 0 80 31 00
        E 0 80 19 00
        E 120 90 62 73
        E 0 90 4a 73
        E 0 90 32 73
        E 120 80 62 00
        E 0 80 4a 00
        E 0 80 32 00
        E 120 90 61 73
        E 0 90 49 73
        E 0 90 31 73
        E 0 90 19 73
        E 840 80 61 00
        E 0 80 49 00
        E 0 80 31 00
        E 0 80 19 00
        E 120 90 63 72
        E 0 90 6c 70
        E 0 90 4b 72
        E 0 90 33 72
        E 0 90 1b 72
        E 120 80 6c 00
        E 240 80 63 00
        E 0 80 4b 00
        E 0 80 33 00
        E 0 80 1b 00
        E 120 90 63 70
        E 0 90 4b 70
        E 0 90 33 70
        E 0 90 1b 70
        E 360 80 63 00
        E 0 80 4b 00
        E 0 80 33 00
        E 0 80 1b 00
        E 120 90 62 73
        E 0 90 4a 73
        E 0 90 32 73
        E 0 90 1a 73
        E 360 80 62 00
        E 0 80 4a 00
        E 0 80 32 00
        E 0 80 1a 00
        E 120 90 62 72
        E 0 90 4a 72
        E 0 90 32 72
        E 0 90 1a 72
        E 360 80 62 00
        E 0 80 4a 00
        E 0 80 32 00
        E 0 80 1a 00
        E 120 90 61 73
        E 0 90 6c 71
        E 0 90 49 73
        E 0 90 31 73
        E 0 90 19 73
        E 120 80 6c 00
        E 480 80 61 00
        E 0 80 49 00
        E 0 80 31 00
        E 0 80 19 00
        E 120 90 62 73
        E 0 90 4a 73
        E 0 90 32 73
        E 120 80 62 00
        E 0 80 4a 00
        E 0 80 32 00
        E 120 90 61 73
        E 0 90 49 73
        E 0 90 31 73
        E 0 90 19 73
        E 839 80 61 00
        E 0 80 49 00
        E 0 80 31 00
        E 0 80 19 00
        E 121 90 60 70
        E 0 90 6c 70
        E 0 90 48 70
        E 0 90 30 70
        E 0 90 18 70
        E 0 90 74 60
        E 120 80 6c 00
        E 1680 80 60 00
        E 0 80 48 00
        E 0 80 30 00
        E 0 80 18 00
        E 120 90 62 73
        E 0 90 4a 73
        E 0 90 32 73
        E 0 90 1a 73
        E 1800 80 62 00
        E 0 80 4a 00
        E 0 80 32 00
        E 0 80 1a 00
        E 120 90 61 73
        E 0 90 49 73
        E 0 90 31 73
        E 0 90 19 73
        E 0 80 74 00
        E 840 80 61 00
        E 0 80 49 00
        E 0 80 31 00
        E 0 80 19 00
        E 120 90 61 70
        E 0 90 49 70
        E 0 90 31 70
        E 0 90 19 70
        E 840 80 61 00
        E 0 80 49 00
        E 0 80 31 00
        E 0 80 19 00
        E 120 90 60 71
        E 0 90 48 71
        E 0 90 30 71
        E 0 90 18 71
        E 360 80 60 00
        E 0 80 48 00
        E 0 80 30 00
        E 0 80 18 00
        E 120 90 60 73
        E 0 90 48 73
        E 0 90 30 73
        E 0 90 18 73
        E 1320 80 60 00
        E 0 80 48 00
        E 0 80 30 00
        E 0 80 18 00
        E 120 90 61 73
        E 0 90 49 73
        E 0 90 31 73
        E 0 90 19 73
        E 840 80 61 00
        E 0 80 49 00
        E 0 80 31 00
        E 0 80 19 00
        E 120 90 61 70
        E 0 90 49 70
        E 0 90 31 70
        E 0 90 19 70
        E 840 80 61 00
        E 0 80 49 00
        E 0 80 31 00
        E 0 80 19 00
        E 120 90 60 71
        E 0 90 48 71
        E 0 90 30 71
        E 0 90 18 71
        E 360 80 60 00
        E 0 80 48 00
        E 0 80 30 00
        E 0 80 18 00
        E 120 90 60 73
        E 0 90 6c 73
        E 0 90 48 73
        E 0 90 30 73
        E 0 90 18 73
        E 120 80 6c 00
        E 720 80 60 00
        E 0 80 48 00
        E 0 80 30 00
        E 0 80 18 00
        E 120 90 60 74
        E 0 90 48 74
        E 0 90 30 74
        E 0 90 18 74
        E 360 80 60 00
        E 0 80 48 00
        E 0 80 30 00
        E 0 80 18 00
        E 120 90 60 75
        E 0 90 48 75
        E 0 90 30 75
        E 0 90 18 75
        E 840 80 60 00
        E 0 80 48 00
        E 0 80 30 00
        E 0 80 18 00
        E 120 90 60 73
        E 0 90 48 73
        E 0 90 30 73
        E 0 90 18 73
        E 840 80 60 00
        E 0 80 48 00
        E 0 80 30 00
        E 0 80 18 00
        E 120 90 60 71
        E 0 90 6c 71
        E 0 90 48 71
        E 0 90 30 71
        E 0 90 18 71
        E 120 80 6c 00
        E 1680 80 60 00
        E 0 80 48 00
        E 0 80 30 00
        E 0 80 18 00
        E 120 90 60 70
        E 0 90 6c 70
        E 0 90 48 70
        E 0 90 30 70
        E 0 90 18 70
        E 120 80 6c 00
        E 3600 80 60 00
        E 0 80 48 00
        E 0 80 30 00
        E 0 80 18 00
        E 120 90 63 72
        E 0 90 4b 72
        E 0 90 33 72
        E 0 90 1b 72
        E 360 80 63 00
        E 0 80 4b 00
        E 0 80 33 00
        E 0 80 1b 00
        E 120 90 63 70
        E 0 90 4b 70
        E 0 90 33 70
        E 0 90 1b 70
        E 360 80 63 00
        E 0 80 4b 00
        E 0 80 33 00
        E 0 80 1b 00
        E 120 90 62 73
        E 0 90 4a 73
        E 0 90 32 73
        E 0 90 1a 73
        E 360 80 62 00
        E 0 80 4a 00
        E 0 80 32 00
        E 0 80 1a 00
        E 120 90 62 72
        E 0 90 4a 72
        E 0 90 32 72
        E 0 90 1a 72
        E 360 80 62 00
        E 0 80 4a 00
        E 0 80 32 00
        E 0 80 1a 00
        E 120 90 61 73
        E 0 90 6c 71
        E 0 90 49 73
        E 0 90 31 73
        E 0 90 19 73
        E 0 90 74 60
        E 120 80 6c 00
        E 480 80 61 00
        E 0 80 49 00
        E 0 80 31 00
        E 0 80 19 00
        E 120 90 62 73
        E 0 90 4a 73
        E 0 90 32 73
        E 120 80 62 00
        E 0 80 4a 00
        E 0 80 32 00
        E 120 90 61 73
        E 0 90 49 73
        E 0 90 31 73
        E 0 90 19 73
        E 840 80 61 00
        E 0 80 49 00
        E 0 80 31 00
        E 0 80 19 00
        E 120 90 63 72
        E 0 90 6c 70
        E 0 90 4b 72
        E 0 90 33 72
        E 0 90 1b 72
        E 0 80 74 00
        E 120 80 6c 00
        E 240 80 63 00
        E 0 80 4b 00
        E 0 80 33 00
        E 0 80 1b 00
        E 120 90 63 70
        E 0 90 4b 70
        E 0 90 33 70
        E 0 90 1b 70
        E 360 80 63 00
        E 0 80 4b 00
        E 0 80 33 00
        E 0 80 1b 00
        E 120 90 62 73
        E 0 90 4a 73
        E 0 90 32 73
        E 0 90 1a 73
        E 360 80 62 00
        E 0 80 4a 00
        E 0 80 32 00
        E 0 80 1a 00
        E 120 90 62 72
        E 0 90 4a 72
        E 0 90 32 72
        E 0 90 1a 72
        E 360 80 62 00
        E 0 80 4a 00
        E 0 80 32 00
        E 0 80 1a 00
        E 120 90 61 73
        E 0 90 6c 71
        E 0 90 49 73
        E 0 90 31 73
        E 0 90 19 73
        E 120 80 6c 00
        E 480 80 61 00
        E 0 80 49 00
        E 0 80 31 00
        E 0 80 19 00
        E 120 90 62 73
        E 0 90 4a 73
        E 0 90 32 73
        E 120 80 62 00
        E 0 80 4a 00
        E 0 80 32 00
        E 120 90 61 73
        E 0 90 49 73
        E 0 90 31 73
        E 0 90 19 73
        E 839 80 61 00
        E 0 80 49 00
        E 0 80 31 00
        E 0 80 19 00
        E 121 90 60 70
        E 0 90 6c 70
        E 0 90 48 70
        E 0 90 30 70
        E 0 90 18 70
        E 120 80 6c 00
        E 1680 80 60 00
        E 0 80 48 00
        E 0 80 30 00
        E 0 80 18 00
        E 120 90 62 73
        E 0 90 4a 73
        E 0 90 32 73
        E 0 90 1a 73
        E 1800 80 62 00
        E 0 80 4a 00
        E 0 80 32 00
        E 0 80 1a 00
        E 120 90 61 73
        E 0 90 49 73
        E 0 90 31 73
        E 0 90 19 73
        E 840 80 61 00
        E 0 80 49 00
        E 0 80 31 00
        E 0 80 19 00
        E 120 90 61 70
        E 0 90 49 70
        E 0 90 31 70
        E 0 90 19 70
        E 840 80 61 00
        E 0 80 49 00
        E 0 80 31 00
        E 0 80 19 00
        E 120 90 60 71
        E 0 90 48 71
        E 0 90 30 71
        E 0 90 18 71
        E 360 80 60 00
        E 0 80 48 00
        E 0 80 30 00
        E 0 80 18 00
        E 120 90 60 73
        E 0 90 48 73
        E 0 90 30 73
        E 0 90 18 73
        E 1320 80 60 00
        E 0 80 48 00
        E 0 80 30 00
        E 0 80 18 00
        E 120 90 61 73
        E 0 90 49 73
        E 0 90 31 73
        E 0 90 19 73
        E 840 80 61 00
        E 0 80 49 00
        E 0 80 31 00
        E 0 80 19 00
        E 120 90 61 70
        E 0 90 49 70
        E 0 90 31 70
        E 0 90 19 70
        E 840 80 61 00
        E 0 80 49 00
        E 0 80 31 00
        E 0 80 19 00
        E 120 90 60 71
        E 0 90 48 71
        E 0 90 30 71
        E 0 90 18 71
        E 360 80 60 00
        E 0 80 48 00
        E 0 80 30 00
        E 0 80 18 00
        E 120 90 60 73
        E 0 90 6c 73
        E 0 90 48 73
        E 0 90 30 73
        E 0 90 18 73
        E 120 80 6c 00
        E 720 80 60 00
        E 0 80 48 00
        E 0 80 30 00
        E 0 80 18 00
        E 120 90 60 74
        E 0 90 48 74
        E 0 90 30 74
        E 0 90 18 74
        E 360 80 60 00
        E 0 80 48 00
        E 0 80 30 00
        E 0 80 18 00
        E 120 90 60 75
        E 0 90 48 75
        E 0 90 30 75
        E 0 90 18 75
        E 840 80 60 00
        E 0 80 48 00
        E 0 80 30 00
        E 0 80 18 00
        E 120 90 60 73
        E 0 90 48 73
        E 0 90 30 73
        E 0 90 18 73
        E 840 80 60 00
        E 0 80 48 00
        E 0 80 30 00
        E 0 80 18 00
        E 120 90 60 71
        E 0 90 6c 71
        E 0 90 48 71
        E 0 90 30 71
        E 0 90 18 71
        E 120 80 6c 00
        E 1680 80 60 00
        E 0 80 48 00
        E 0 80 30 00
        E 0 80 18 00
        E 120 90 60 70
        E 0 90 6c 70
        E 0 90 48 70
        E 0 90 30 70
        E 0 90 18 70
        E 120 80 6c 00
        E 3600 80 60 00
        E 0 80 48 00
        E 0 80 30 00
        E 0 80 18 00
        E 120 90 63 72
        E 0 90 4b 72
        E 0 90 33 72
        E 0 90 1b 72
        E 0 90 74 60
        E 360 80 63 00
        E 0 80 4b 00
        E 0 80 33 00
        E 0 80 1b 00
        E 120 90 63 70
        E 0 90 4b 70
        E 0 90 33 70
        E 0 90 1b 70
        E 360 80 63 00
        E 0 80 4b 00
        E 0 80 33 00
        E 0 80 1b 00
        E 120 90 62 73
        E 0 90 4a 73
        E 0 90 32 73
        E 0 90 1a 73
        E 360 80 62 00
        E 0 80 4a 00
        E 0 80 32 00
        E 0 80 1a 00
        E 120 90 62 72
        E 0 90 4a 72
        E 0 90 32 72
        E 0 90 1a 72
        E 360 80 62 00
        E 0 80 4a 00
        E 0 80 32 00
        E 0 80 1a 00
        E 120 90 61 73
        E 0 90 6c 71
        E 0 90 49 73
        E 0 90 31 73
        E 0 90 19 73
        E 120 80 6c 00
        E 0 80 74 00
        E 480 80 61 00
        E 0 80 49 00
        E 0 80 31 00
        E 0 80 19 00
        E 120 90 62 73
        E 0 90 4a 73
        E 0 90 32 73
        E 120 80 62 00
        E 0 80 4a 00
        E 0 80 32 00
        E 120 90 61 73
        E 0 90 49 73
        E 0 90 31 73
        E 0 90 19 73
        E 840 80 61 00
        E 0 80 49 00
        E 0 80 31 00
        E 0 80 19 00
        E 120 90 63 72
        E 0 90 6c 70
        E 0 90 4b 72
        E 0 90 33 72
        E 0 90 1b 72
        E 120 80 6c 00
        E 240 80 63 00
        E 0 80 4b 00
        E 0 80 33 00
        E 0 80 1b 00
        E 120 90 63 70
        E 0 90 4b 70
        E 0 90 33 70
        E 0 90 1b 70
        E 360 80 63 00
        E 0 80 4b 00
        E 0 80 33 00
        E 0 80 1b 00
        E 120 90 62 73
        E 0 90 4a 73
        E 0 90 32 73
        E 0 90 1a 73
        E 360 80 62 00
        E 0 80 4a 00
        E 0 80 32 00
        E 0 80 1a 00
        E 120 90 62 72
        E 0 90 4a 72
        E 0 90 32 72
        E 0 90 1a 72
        E 360 80 62 00
        E 0 80 4a 00
        E 0 80 32 00
        E 0 80 1a 00
        E 120 90 61 73
        E 0 90 6c 71
        E 0 90 49 73
        E 0 90 31 73
        E 0 90 19 73
        E 120 80 6c 00
        E 480 80 61 00
        E 0 80 49 00
        E 0 80 31 00
        E 0 80 19 00
        E 120 90 62 73
        E 0 90 4a 73
        E 0 90 32 73
        E 120 80 62 00
        E 0 80 4a 00
        E 0 80 32 00
        E 120 90 61 73
        E 0 90 49 73
        E 0 90 31 73
        E 0 90 19 73
        E 839 80 61 00
        E 0 80 49 00
        E 0 80 31 00
        E 0 80 19 00
        E 121 90 60 70
        E 0 90 6c 70
        E 0 90 48 70
        E 0 90 30 70
        E 0 90 18 70
        E 120 80 6c 00
        E 1680 80 60 00
        E 0 80 48 00
        E 0 80 30 00
        E 0 80 18 00
        E 120 90 62 73
        E 0 90 4a 73
        E 0 90 32 73
        E 0 90 1a 73
        E 1800 80 62 00
        E 0 80 4a 00
        E 0 80 32 00
        E 0 80 1a 00
        E 120 90 61 73
        E 0 90 49 73
        E 0 90 31 73
        E 0 90 19 73
        E 0 90 74 60
        E 840 80 61 00
        E 0 80 49 00
        E 0 80 31 00
        E 0 80 19 00
        E 120 90 61 70
        E 0 90 49 70
        E 0 90 31 70
        E 0 90 19 70
        E 840 80 61 00
        E 0 80 49 00
        E 0 80 31 00
        E 0 80 19 00
        E 120 90 60 71
        E 0 90 48 71
        E 0 90 30 71
        E 0 90 18 71
        E 360 80 60 00
        E 0 80 48 00
        E 0 80 30 00
        E 0 80 18 00
        E 120 90 60 73
        E 0 90 48 73
        E 0 90 30 73
        E 0 90 18 73
        E 1320 80 60 00
        E 0 80 48 00
        E 0 80 30 00
        E 0 80 18 00
        E 120 90 61 73
        E 0 90 49 73
        E 0 90 31 73
        E 0 90 19 73
        E 0 80 74 00
        E 840 80 61 00
        E 0 80 49 00
        E 0 80 31 00
        E 0 80 19 00
        E 120 90 61 70
        E 0 90 49 70
        E 0 90 31 70
        E 0 90 19 70
        E 840 80 61 00
        E 0 80 49 00
        E 0 80 31 00
        E 0 80 19 00
        E 120 90 60 71
        E 0 90 48 71
        E 0 90 30 71
        E 0 90 18 71
        E 360 80 60 00
        E 0 80 48 00
        E 0 80 30 00
        E 0 80 18 00
        E 120 90 60 73
        E 0 90 6c 73
        E 0 90 48 73
        E 0 90 30 73
        E 0 90 18 73
        E 120 80 6c 00
        E 720 80 60 00
        E 0 80 48 00
        E 0 80 30 00
        E 0 80 18 00
        E 120 90 60 74
        E 0 90 48 74
        E 0 90 30 74
        E 0 90 18 74
        E 360 80 60 00
        E 0 80 48 00
        E 0 80 30 00
        E 0 80 18 00
        E 120 90 60 75
        E 0 90 48 75
        E 0 90 30 75
        E 0 90 18 75
        E 840 80 60 00
        E 0 80 48 00
        E 0 80 30 00
        E 0 80 18 00
        E 120 90 60 73
        E 0 90 48 73
        E 0 90 30 73
        E 0 90 18 73
        E 840 80 60 00
        E 0 80 48 00
        E 0 80 30 00
        E 0 80 18 00
        E 120 90 60 71
        E 0 90 6c 71
        E 0 90 48 71
        E 0 90 30 71
        E 0 90 18 71
        E 120 80 6c 00
        E 1680 80 60 00
        E 0 80 48 00
        E 0 80 30 00
        E 0 80 18 00
        E 120 90 60 70
        E 0 90 6c 70
        E 0 90 48 70
        E 0 90 30 70
        E 0 90 18 70
        E 120 80 6c 00
        E 3600 80 60 00
        E 0 80 48 00
        E 0 80 30 00
        E 0 80 18 00
        E 120 90 63 72
        E 0 90 4b 72
        E 0 90 33 72
        E 0 90 1b 72
        E 360 80 63 00
        E 0 80 4b 00
        E 0 80 33 00
        E 0 80 1b 00
        E 120 90 63 70
        E 0 90 4b 70
        E 0 90 33 70
        E 0 90 1b 70
        E 360 80 63 00
        E 0 80 4b 00
        E 0 80 33 00
        E 0 80 1b 00
        E 120 90 62 73
        E 0 90 4a 73
        E 0 90 32 73
        E 0 90 1a 73
        E 360 80 62 00
        E 0 80 4a 00
        E 0 80 32 00
        E 0 80 1a 00
        E 120 90 62 72
        E 0 90 4a 72
        E 0 90 32 72
        E 0 90 1a 72
        E 360 80 62 00
        E 0 80 4a 00
        E 0 80 32 00
        E 0 80 1a 00
        E 120 90 61 73
        E 0 90 6c 71
        E 0 90 49 73
        E 0 90 31 73
        E 0 90 19 73
        E 120 80 6c 00
        E 480 80 61 00
        E 0 80 49 00
        E 0 80 31 00
        E 0 80 19 00
        E 120 90 62 73
        E 0 90 4a 73
        E 0 90 32 73
        E 120 80 62 00
        E 0 80 4a 00
        E 0 80 32 00
        E 120 90 61 73
        E 0 90 49 73
        E 0 90 31 73
        E 0 90 19 73
        E 840 80 61 00
        E 0 80 49 00
        E 0 80 31 00
        E 0 80 19 00
        E 120 90 63 72
        E 0 90 6c 70
        E 0 90 4b 72
        E 0 90 33 72
        E 0 90 1b 72
        E 120 80 6c 00
        E 240 80 63 00
        E 0 80 4b 00
        E 0 80 33 00
        E 0 80 1b 00
        E 120 90 63 70
        E 0 90 4b 70
        E 0 90 33 70
        E 0 90 1b 70
        E 360 80 63 00
        E 0 80 4b 00
        E 0 80 33 00
        E 0 80 1b 00
        E 120 90 62 73
        E 0 90 4a 73
        E 0 90 32 73
        E 0 90 1a 73
        E 360 80 62 00
        E 0 80 4a 00
        E 0 80 32 00
        E 0 80 1a 00
        E 120 90 62 72
        E 0 90 4a 72
        E 0 90 32 72
        E 0 90 1a 72
        E 360 80 62 00
        E 0 80 4a 00
        E 0 80 32 00
        E 0 80 1a 00
        E 120 90 61 73
        E 0 90 6c 71
        E 0 90 49 73
        E 0 90 31 73
        E 0 90 19 73
        E 0 90 74 60
        E 120 80 6c 00
        E 480 80 61 00
        E 0 80 49 00
        E 0 80 31 00
        E 0 80 19 00
        E 120 90 62 73
        E 0 90 4a 73
        E 0 90 32 73
        E 120 80 62 00
        E 0 80 4a 00
        E 0 80 32 00
        E 120 90 61 73
        E 0 90 49 73
        E 0 90 31 73
        E 0 90 19 73
        E 839 80 61 00
        E 0 80 49 00
        E 0 80 31 00
        E 0 80 19 00
        E 121 90 60 70
        E 0 90 6c 70
        E 0 90 48 70
        E 0 90 30 70
        E 0 90 18 70
        E 0 80 74 00
        E 120 80 6c 00
        E 1680 80 60 00
        E 0 80 48 00
        E 0 80 30 00
        E 0 80 18 00
        E 120 90 62 73
        E 0 90 4a 73
        E 0 90 32 73
        E 0 90 1a 73
        E 1800 80 62 00
        E 0 80 4a 00
        E 0 80 32 00
        E 0 80 1a 00
        E 120 90 61 73
        E 0 90 49 73
        E 0 90 31 73
        E 0 90 19 73
        E 840 80 61 00
        E 0 80 49 00
        E 0 80 31 00
        E 0 80 19 00
        E 120 90 61 70
        E 0 90 49 70
        E 0 90 31 70
        E 0 90 19 70
        E 840 80 61 00
        E 0 80 49 00
        E 0 80 31 00
        E 0 80 19 00
        E 120 90 60 71
        E 0 90 48 71
        E 0 90 30 71
        E 0 90 18 71
        E 360 80 60 00
        E 0 80 48 00
        E 0 80 30 00
        E 0 80 18 00
        E 120 90 60 73
        E 0 90 48 73
        E 0 90 30 73
        E 0 90 18 73
        E 1320 80 60 00
        E 0 80 48 00
        E 0 80 30 00
        E 0 80 18 00
        E 120 90 61 73
        E 0 90 49 73
        E 0 90 31 73
        E 0 90 19 73
        E 840 80 61 00
        E 0 80 49 00
        E 0 80 31 00
        E 0 80 19 00
        E 120 90 61 70
        E 0 90 49 70
        E 0 90 31 70
        E 0 90 19 70
        E 840 80 61 00
        E 0 80 49 00
        E 0 80 31 00
        E 0 80 19 00
        E 120 90 60 71
        E 0 90 48 71
        E 0 90 30 71
        E 0 90 18 71
        E 360 80 60 00
        E 0 80 48 00
        E 0 80 30 00
        E 0 80 18 00
        E 120 90 60 73
        E 0 90 6c 73
        E 0 90 48 73
        E 0 90 30 73
        E 0 90 18 73
        E 120 80 6c 00
        E 720 80 60 00
        E 0 80 48 00
        E 0 80 30 00
        E 0 80 18 00
        E 120 90 60 74
        E 0 90 48 74
        E 0 90 30 74
        E 0 90 18 74
        E 360 80 60 00
        E 0 80 48 00
        E 0 80 30 00
        E 0 80 18 00
        E 120 90 60 75
        E 0 90 48 75
        E 0 90 30 75
        E 0 90 18 75
        E 840 80 60 00
        E 0 80 48 00
        E 0 80 30 00
        E 0 80 18 00
        E 120 90 60 73
        E 0 90 48 73
        E 0 90 30 73
        E 0 90 18 73
        E 840 80 60 00
        E 0 80 48 00
        E 0 80 30 00
        E 0 80 18 00
        E 120 90 60 71
        E 0 90 6c 71
        E 0 90 48 71
        E 0 90 30 71
        E 0 90 18 71
        E 120 80 6c 00
        E 1680 80 60 00
        E 0 80 48 00
        E 0 80 30 00
        E 0 80 18 00
        E 120 90 60 70
        E 0 90 6c 70
        E 0 90 48 70
        E 0 90 30 70
        E 0 90 18 70
        E 120 80 6c 00
        E 3720 80 60 00
        E 0 80 48 00
        E 0 80 30 00
        E 0 80 18 00
        E 1920 b0 7b 00
        GUID {89F2D3B4-90A4-40AB-AB4C-350F38C07F72}
        IGNTEMPO 0 120.00000000 4 4
        SRCCOLOR 0
        VELLANE 132 128 60
        COLORMAP "C:\Program Files\REAPER (x64)\Data\color_maps\rockband_guitarbass.png"
        CFGEDITVIEW -5676.286334 7.263059 0 12 0 0 0
        CFGEDIT 1 1 0 1 1 0 1 1 1 1 1 0.25000000 -8 -8 1544 872 0 2 1 1 0.00000000 0 1 0 0 0.500000 0 0 1.000000 64
        KEYSNAP 0 6 "102030050700" 0 "Pentatonic"
        EVTFILTER 0 -1 -1 -1 -1 0 1 0 0 -1.00000000 -1.00000000
      >
    >
  >
  <TRACK '{2B9C2D3F-D87F-4231-918B-0B1C6F1526F7}'
    NAME "PART REAL_GUITAR"
    PEAKCOL 16576
    BEAT -1
    AUTOMODE 0
    VOLPAN 1.00000000000000 0.00000000000000 -1.00000000000000 -1.00000000000000 1.00000000000000
    MUTESOLO 0 0 0
    IPHASE 0
    ISBUS 0 0
    BUSCOMP 0 0
    SHOWINMIX 1 0.666700 0.500000 1 0.500000 -1 -1 -1
    FREEMODE 0
    SEL 0
    REC 0 0 0 0 0 0 0
    VU 2
    TRACKHEIGHT 0 0
    INQ 0 0 0 0.5000000000 100 0 0 100
    NCHAN 2
    FX 0
    TRACKID {2B9C2D3F-D87F-4231-918B-0B1C6F1526F7}
    PERF 0
    MIDIOUT -1
    <MIDINOTENAMES
      0 127 "Trill Marker"
      0 126 "Tremolo Marker"
      0 125 "BRE"
      0 124 "BRE"
      0 123 "BRE"
      0 122 "BRE"
      0 121 "BRE"
      0 120 "BRE (use all 6)"
      0 119 "-----------"
      0 116 "OVERDRIVE"
      0 115 "Solo Marker"
      0 109 "-----------"
      0 108 "Fret Hand Position"
      0 107 "Force Chord Numbering"
      0 106 "Loose Strumming"
      0 105 "Strum Direction"
      0 104 "Arpeggio Marker"
      0 103 "Slide Marker"
      0 102 "Force HOPO"
      0 101 "EXPERT e String"
      0 100 "EXPERT B String"
      0 99 "EXPERT G String"
      0 98 "EXPERT D String"
      0 97 "EXPERT A String"
      0 96 "EXPERT E String"
      0 95 "-----------"
      0 82 "Loose Strumming"
      0 81 "Strum Direction"
      0 80 "Arpeggio Marker"
      0 79 "Slide Marker"
      0 78 "Force HOPO"
      0 77 "HARD e String"
      0 76 "HARD B String"
      0 75 "HARD G String"
      0 74 "HARD D String"
      0 73 "HARD A String"
      0 72 "HARD E String"
      0 71 "-----------"
      0 58 "Loose Strumming"
      0 56 "Arpeggio Marker"
      0 55 "Slide Marker"
      0 53 "MEDIUM e String"
      0 52 "MEDIUM B String"
      0 51 "MEDIUM G String"
      0 50 "MEDIUM D String"
      0 49 "MEDIUM A String"
      0 48 "MEDIUM E String"
      0 47 "-----------"
      0 32 "Arpeggio Marker"
      0 31 "Slide Marker"
      0 29 "EASY e String"
      0 28 "EASY B String"
      0 27 "EASY G String"
      0 26 "EASY D String"
      0 25 "EASY A String"
      0 24 "EASY E String"
      0 21 "-----------"
      0 18 "Flat/Sharp Swap"
      0 17 "Hide Chord Names"
      0 16 "Slash Chord"
      0 15 "D#"
      0 14 "D"
      0 13 "C#"
      0 12 "C"
      0 11 "B"
      0 10 "A#"
      0 9 "A"
      0 8 "G#"
      0 7 "G"
      0 6 "F#"
      0 5 "F"
      0 4 "E"
    >
    MAINSEND 1 0
    <FXCHAIN
      WNDRECT 0 43 655 467
      SHOW 0
      LASTSEL 1
      DOCKED 0
      BYPASS 0 0
      <JS "c3/progtr" ""
        0.000000 3.000000 0.000000 0.000000 0.000000 0.000000 0.000000 0.000000 0.000000 1.000000 - - - - - - - - - - - - - - - - - - - - - - - - - - - - - - - - - - - - - - - - - - - - - - - - - - - - - - 
      >
      FLOATPOS 0 0 0 0
      FXID {0876D337-CA67-4323-8BF6-8FEE1660FBD8}
      WAK 0
      BYPASS 0 0
      <VST "VSTi: ReaSynth (Cockos)" "reasynth.dll" 0 ""
        eXNlcu9e7f4AAAAAAgAAAAEAAAAAAAAAAgAAAAAAAAA4AAAAAAAAAA==
        AAAQAO++rd4N8K3eppvEO+gJMjyHFlk/AAAAAAAAAADMm4A+4jAEPA==
        AAAAAAAAAD+01hM+j8L1PQAAAD8AABAAAAA=
      >
      FLOATPOS 0 0 0 0
      FXID {41734900-DA25-4468-842E-D7989F08981A}
      WAK 0
    >
    <ITEM
      POSITION 0.00000000000000
      SNAPOFFS 0.00000000000000
      LENGTH 173.10513447432763
      LOOP 0
      ALLTAKES 0
      SEL 0
      FADEIN 1 0.000000 0.000000 1 0
      FADEOUT 1 0.000000 0.000000 1 0
      MUTE 0
      IGUID {F525CCE2-610D-4B95-ADD4-762FD0E01F62}
      IID 6
      NAME "PART REAL_GUITAR"
      VOLPAN 1.000000 0.000000 1.000000 -1.000000
      SOFFS 0.00000000000000 0.00000000000000
      PLAYRATE 1.00000000000000 1 0.00000000000000 -1
      CHANMODE 0
      GUID {9041D905-403E-4F65-97B9-F45BD338FCD1}
      <SOURCE MIDI
        HASDATA 1 480 QN
        POOLEDEVTS {98493E0A-592A-40DB-8A7A-1C8F2F08B10D}
        <X 0 0
          /wNQQVJUIFJFQUxfR1VJVEFS
        >
        E 4080 90 64 65
        E 0 90 6c 65
        E 0 90 4c 65
        E 0 90 34 65
        E 0 90 1c 65
        E 120 80 64 00
        E 0 80 6c 00
        E 0 80 4c 00
        E 0 80 34 00
        E 0 80 1c 00
        E 120 90 64 65
        E 0 90 4c 65
        E 0 90 34 65
        E 0 90 1c 65
        E 120 80 64 00
        E 0 80 4c 00
        E 0 80 34 00
        E 0 80 1c 00
        E 0 90 63 68
        E 120 80 63 00
        E 0 90 63 66
        E 0 90 4b 66
        E 0 90 33 66
        E 120 80 63 00
        E 0 80 4b 00
        E 0 80 33 00
        E 0 90 63 64
        E 120 80 63 00
        E 0 90 63 66
        E 0 90 4b 66
        E 0 90 33 66
        E 0 90 1b 66
        E 360 80 63 00
        E 0 80 4b 00
        E 0 80 33 00
        E 0 80 1b 00
        E 120 90 63 64
        E 0 90 4b 64
        E 0 90 33 64
        E 0 90 1b 64
        E 480 80 63 00
        E 0 80 4b 00
        E 0 80 33 00
        E 0 80 1b 00
        E 480 90 62 66
        E 0 90 4a 66
        E 0 90 32 66
        E 0 90 1a 66
        E 120 80 62 00
        E 0 80 4a 00
        E 0 80 32 00
        E 0 80 1a 00
        E 0 90 63 64
        E 120 80 63 00
        E 0 90 63 64
        E 0 90 4b 64
        E 0 90 33 64
        E 120 80 63 00
        E 0 80 4b 00
        E 0 80 33 00
        E 0 90 63 66
        E 120 80 63 00
        E 0 90 63 64
        E 0 90 4b 64
        E 0 90 33 64
        E 0 90 1b 64
        E 960 80 63 00
        E 0 80 4b 00
        E 0 80 33 00
        E 0 80 1b 00
        E 240 90 64 65
        E 0 90 4c 65
        E 0 90 34 65
        E 0 90 1c 65
        E 120 80 64 00
        E 0 80 4c 00
        E 0 80 34 00
        E 0 80 1c 00
        E 120 90 64 65
        E 0 90 4c 65
        E 0 90 34 65
        E 0 90 1c 65
        E 120 80 64 00
        E 0 80 4c 00
        E 0 80 34 00
        E 0 80 1c 00
        E 0 90 63 68
        E 120 80 63 00
        E 0 90 63 66
        E 0 90 4b 66
        E 0 90 33 66
        E 120 80 63 00
        E 0 80 4b 00
        E 0 80 33 00
        E 0 90 63 64
        E 120 80 63 00
        E 0 90 63 66
        E 0 90 4b 66
        E 0 90 33 66
        E 0 90 1b 66
        E 360 80 63 00
        E 0 80 4b 00
        E 0 80 33 00
        E 0 80 1b 00
        E 120 90 63 64
        E 0 90 4b 64
        E 0 90 33 64
        E 0 90 1b 64
        E 480 80 63 00
        E 0 80 4b 00
        E 0 80 33 00
        E 0 80 1b 00
        E 480 90 62 66
        E 0 90 4a 66
        E 0 90 32 66
        E 0 90 1a 66
        E 120 80 62 00
        E 0 80 4a 00
        E 0 80 32 00
        E 0 80 1a 00
        E 0 90 63 64
        E 120 80 63 00
        E 0 90 63 64
        E 0 90 4b 64
        E 0 90 33 64
        E 120 80 63 00
        E 0 80 4b 00
        E 0 80 33 00
        E 0 90 63 66
        E 120 80 63 00
        E 0 90 63 64
        E 0 90 4b 64
        E 0 90 33 64
        E 0 90 1b 64
        E 960 80 63 00
        E 0 80 4b 00
        E 0 80 33 00
        E 0 80 1b 00
        E 0 90 74 60
        E 480 90 63 65
        E 0 90 4b 65
        E 0 90 33 65
        E 0 90 1b 65
        E 120 80 63 00
        E 0 80 4b 00
        E 0 80 33 00
        E 0 80 1b 00
        E 0 90 63 65
        E 120 80 63 00
        E 0 90 63 65
        E 0 90 4b 65
        E 0 90 33 65
        E 120 80 63 00
        E 0 80 4b 00
        E 0 80 33 00
        E 0 90 63 66
        E 120 80 63 00
        E 0 90 64 64
        E 0 90 4c 64
        E 0 90 34 64
        E 0 90 1c 64
        E 360 80 64 00
        E 0 80 4c 00
        E 0 80 34 00
        E 0 80 1c 00
        E 120 90 62 66
        E 0 90 4a 66
        E 0 90 32 66
        E 0 90 1a 66
        E 480 80 62 00
        E 0 80 4a 00
        E 0 80 32 00
        E 0 80 1a 00
        E 480 90 63 66
        E 0 90 4b 66
        E 0 90 33 66
        E 0 90 1b 66
        E 120 80 63 00
        E 0 80 4b 00
        E 0 80 33 00
        E 0 80 1b 00
        E 0 90 63 66
        E 120 80 63 00
        E 0 90 63 66
        E 120 80 63 00
        E 0 90 64 64
        E 120 80 64 00
        E 0 90 64 65
        E 360 80 64 00
        E 120 90 64 67
        E 480 80 64 00
        E 0 80 74 00
        E 480 90 63 6d
        E 0 90 6c 6a
        E 0 90 4b 6d
        E 0 90 33 6d
        E 0 90 1b 6d
        E 120 80 63 00
        E 0 80 6c 00
        E 0 80 4b 00
        E 0 80 33 00
        E 0 80 1b 00
        E 0 90 63 6d
        E 120 80 63 00
        E 0 90 63 6d
        E 0 90 4b 6d
        E 0 90 33 6d
        E 120 80 63 00
        E 0 80 4b 00
        E 0 80 33 00
        E 0 90 64 6a
        E 120 80 64 00
        E 0 90 64 6c
        E 0 90 6c 6b
        E 0 90 4c 6c
        E 0 90 34 6c
        E 0 90 1c 6c
        E 120 80 6c 00
        E 240 80 64 00
        E 0 80 4c 00
        E 0 80 34 00
        E 0 80 1c 00
        E 120 90 62 6e
        E 0 90 4a 6e
        E 0 90 32 6e
        E 0 90 1a 6e
        E 360 80 62 00
        E 0 80 4a 00
        E 0 80 32 00
        E 0 80 1a 00
        E 120 90 62 6e
        E 0 90 4a 6e
        E 0 90 32 6e
        E 0 90 1a 6e
        E 120 80 62 00
        E 0 80 4a 00
        E 0 80 32 00
        E 0 80 1a 00
        E 240 90 63 6d
        E 0 90 4b 6d
        E 0 90 33 6d
        E 120 80 63 00
        E 0 80 4b 00
        E 0 80 33 00
        E 0 90 63 6b
        E 960 80 63 00
        E 960 90 63 6d
        E 0 90 6c 6a
        E 0 90 4b 6d
        E 0 90 33 6d
        E 0 90 1b 6d
        E 120 80 63 00
        E 0 80 6c 00
        E 0 80 4b 00
        E 0 80 33 00
        E 0 80 1b 00
        E 0 90 63 6d
        E 120 80 63 00
        E 0 90 63 6d
        E 120 80 63 00
        E 0 90 64 6a
        E 120 80 64 00
        E 0 90 64 6c
        E 0 90 6c 6b
        E 120 80 6c 00
        E 240 80 64 00
        E 120 90 62 6e
        E 360 80 62 00
        E 120 90 62 6e
        E 120 80 62 00
        E 240 90 63 6d
        E 120 80 63 00
        E 0 90 63 6b
        E 840 80 63 00
        E 120 90 63 6b
        E 0 90 6c 6a
        E 0 90 4b 6b
        E 0 90 33 6b
        E 0 90 1b 6b
        E 120 80 63 00
        E 0 80 6c 00
        E 0 80 4b 00
        E 0 80 33 00
        E 0 80 1b 00
        E 120 90 64 6a
        E 0 90 4c 6a
        E 0 90 34 6a
        E 120 80 64 00
        E 0 80 4c 00
        E 0 80 34 00
        E 120 90 64 69
        E 0 90 6c 69
        E 0 90 4c 69
        E 0 90 34 69
        E 0 90 1c 69
        E 120 80 6c 00
        E 1200 80 64 00
        E 0 80 4c 00
        E 0 80 34 00
        E 0 80 1c 00
        E 120 90 64 67
        E 0 90 6c 67
        E 0 90 4c 67
        E 0 90 34 67
        E 0 90 1c 67
        E 120 80 64 00
        E 0 80 6c 00
        E 0 80 4c 00
        E 0 80 34 00
        E 0 80 1c 00
        E 120 90 64 69
        E 0 90 4c 69
        E 0 90 34 69
        E 120 80 64 00
        E 0 80 4c 00
        E 0 80 34 00
        E 120 90 63 69
        E 0 90 4b 69
        E 0 90 33 69
        E 0 90 1b 69
        E 1440 80 63 00
        E 0 80 4b 00
        E 0 80 33 00
        E 0 80 1b 00
        E 240 90 63 68
        E 0 90 6c 68
        E 0 90 4b 68
        E 0 90 33 68
        E 120 80 63 00
        E 0 80 6c 00
        E 0 80 4b 00
        E 0 80 33 00
        E 0 90 63 69
        E 120 80 63 00
        E 0 90 62 6b
        E 0 90 4a 6b
        E 0 90 32 6b
        E 0 90 1a 6b
        E 1920 80 62 00
        E 0 80 4a 00
        E 0 80 32 00
        E 0 80 1a 00
        E 2160 90 64 65
        E 0 90 6c 65
        E 0 90 4c 65
        E 0 90 34 65
        E 0 90 1c 65
        E 120 80 64 00
        E 0 80 6c 00
        E 0 80 4c 00
        E 0 80 34 00
        E 0 80 1c 00
        E 120 90 64 65
        E 0 90 4c 65
        E 0 90 34 65
        E 0 90 1c 65
        E 120 80 64 00
        E 0 80 4c 00
        E 0 80 34 00
        E 0 80 1c 00
        E 0 90 63 68
        E 120 80 63 00
        E 0 90 63 66
        E 0 90 4b 66
        E 0 90 33 66
        E 120 80 63 00
        E 0 80 4b 00
        E 0 80 33 00
        E 0 90 63 64
        E 120 80 63 00
        E 0 90 63 66
        E 0 90 4b 66
        E 0 90 33 66
        E 0 90 1b 66
        E 360 80 63 00
        E 0 80 4b 00
        E 0 80 33 00
        E 0 80 1b 00
        E 120 90 63 64
        E 0 90 4b 64
        E 0 90 33 64
        E 0 90 1b 64
        E 480 80 63 00
        E 0 80 4b 00
        E 0 80 33 00
        E 0 80 1b 00
        E 480 90 62 66
        E 0 90 4a 66
        E 0 90 32 66
        E 0 90 1a 66
        E 120 80 62 00
        E 0 80 4a 00
        E 0 80 32 00
        E 0 80 1a 00
        E 0 90 63 64
        E 120 80 63 00
        E 0 90 63 64
        E 0 90 4b 64
        E 0 90 33 64
        E 120 80 63 00
        E 0 80 4b 00
        E 0 80 33 00
        E 0 90 63 66
        E 120 80 63 00
        E 0 90 63 64
        E 0 90 4b 64
        E 0 90 33 64
        E 0 90 1b 64
        E 960 80 63 00
        E 0 80 4b 00
        E 0 80 33 00
        E 0 80 1b 00
        E 240 90 64 65
        E 0 90 4c 65
        E 0 90 34 65
        E 0 90 1c 65
        E 120 80 64 00
        E 0 80 4c 00
        E 0 80 34 00
        E 0 80 1c 00
        E 120 90 64 65
        E 0 90 4c 65
        E 0 90 34 65
        E 0 90 1c 65
        E 120 80 64 00
        E 0 80 4c 00
        E 0 80 34 00
        E 0 80 1c 00
        E 0 90 63 68
        E 120 80 63 00
        E 0 90 63 66
        E 0 90 4b 66
        E 0 90 33 66
        E 120 80 63 00
        E 0 80 4b 00
        E 0 80 33 00
        E 0 90 63 64
        E 120 80 63 00
        E 0 90 63 66
        E 0 90 4b 66
        E 0 90 33 66
        E 0 90 1b 66
        E 360 80 63 00
        E 0 80 4b 00
        E 0 80 33 00
        E 0 80 1b 00
        E 120 90 63 64
        E 0 90 4b 64
        E 0 90 33 64
        E 0 90 1b 64
        E 480 80 63 00
        E 0 80 4b 00
        E 0 80 33 00
        E 0 80 1b 00
        E 480 90 62 66
        E 0 90 4a 66
        E 0 90 32 66
        E 0 90 1a 66
        E 0 90 74 60
        E 120 80 62 00
        E 0 80 4a 00
        E 0 80 32 00
        E 0 80 1a 00
        E 0 90 63 64
        E 120 80 63 00
        E 0 90 63 64
        E 0 90 4b 64
        E 0 90 33 64
        E 120 80 63 00
        E 0 80 4b 00
        E 0 80 33 00
        E 0 90 63 66
        E 120 80 63 00
        E 0 90 63 64
        E 0 90 4b 64
        E 0 90 33 64
        E 0 90 1b 64
        E 960 80 63 00
        E 0 80 4b 00
        E 0 80 33 00
        E 0 80 1b 00
        E 0 80 74 00
        E 480 90 63 65
        E 0 90 4b 65
        E 0 90 33 65
        E 0 90 1b 65
        E 120 80 63 00
        E 0 80 4b 00
        E 0 80 33 00
        E 0 80 1b 00
        E 0 90 63 65
        E 120 80 63 00
        E 0 90 63 65
        E 0 90 4b 65
        E 0 90 33 65
        E 120 80 63 00
        E 0 80 4b 00
        E 0 80 33 00
        E 0 90 63 66
        E 120 80 63 00
        E 0 90 64 64
        E 0 90 4c 64
        E 0 90 34 64
        E 0 90 1c 64
        E 360 80 64 00
        E 0 80 4c 00
        E 0 80 34 00
        E 0 80 1c 00
        E 120 90 62 66
        E 0 90 4a 66
        E 0 90 32 66
        E 0 90 1a 66
        E 480 80 62 00
        E 0 80 4a 00
        E 0 80 32 00
        E 0 80 1a 00
        E 480 90 63 66
        E 0 90 4b 66
        E 0 90 33 66
        E 0 90 1b 66
        E 120 80 63 00
        E 0 80 4b 00
        E 0 80 33 00
        E 0 80 1b 00
        E 0 90 63 66
        E 120 80 63 00
        E 0 90 63 66
        E 120 80 63 00
        E 0 90 64 64
        E 120 80 64 00
        E 0 90 64 65
        E 360 80 64 00
        E 120 90 64 67
        E 480 80 64 00
        E 480 90 63 6d
        E 0 90 6c 6a
        E 0 90 4b 6d
        E 0 90 33 6d
        E 0 90 1b 6d
        E 120 80 63 00
        E 0 80 6c 00
        E 0 80 4b 00
        E 0 80 33 00
        E 0 80 1b 00
        E 0 90 63 6d
        E 120 80 63 00
        E 0 90 63 6d
        E 0 90 4b 6d
        E 0 90 33 6d
        E 120 80 63 00
        E 0 80 4b 00
        E 0 80 33 00
        E 0 90 64 6a
        E 120 80 64 00
        E 0 90 64 6c
        E 0 90 6c 6b
        E 0 90 4c 6c
        E 0 90 34 6c
        E 0 90 1c 6c
        E 120 80 6c 00
        E 240 80 64 00
        E 0 80 4c 00
        E 0 80 34 00
        E 0 80 1c 00
        E 120 90 62 6e
        E 0 90 4a 6e
        E 0 90 32 6e
        E 0 90 1a 6e
        E 360 80 62 00
        E 0 80 4a 00
        E 0 80 32 00
        E 0 80 1a 00
        E 120 90 62 6e
        E 0 90 4a 6e
        E 0 90 32 6e
        E 0 90 1a 6e
        E 120 80 62 00
        E 0 80 4a 00
        E 0 80 32 00
        E 0 80 1a 00
        E 240 90 63 6d
        E 0 90 4b 6d
        E 0 90 33 6d
        E 120 80 63 00
        E 0 80 4b 00
        E 0 80 33 00
        E 0 90 63 6b
        E 960 80 63 00
        E 960 90 63 6d
        E 0 90 6c 6a
        E 0 90 4b 6d
        E 0 90 33 6d
        E 0 90 1b 6d
        E 120 80 63 00
        E 0 80 6c 00
        E 0 80 4b 00
        E 0 80 33 00
        E 0 80 1b 00
        E 0 90 63 6d
        E 120 80 63 00
        E 0 90 63 6d
        E 120 80 63 00
        E 0 90 64 6a
        E 120 80 64 00
        E 0 90 64 6c
        E 0 90 6c 6b
        E 120 80 6c 00
        E 240 80 64 00
        E 120 90 62 6e
        E 360 80 62 00
        E 120 90 62 6e
        E 120 80 62 00
        E 240 90 63 6d
        E 120 80 63 00
        E 0 90 63 6b
        E 840 80 63 00
        E 120 90 63 6b
        E 0 90 6c 6a
        E 0 90 4b 6b
        E 0 90 33 6b
        E 0 90 1b 6b
        E 0 90 74 60
        E 120 80 63 00
        E 0 80 6c 00
        E 0 80 4b 00
        E 0 80 33 00
        E 0 80 1b 00
        E 120 90 64 6a
        E 0 90 4c 6a
        E 0 90 34 6a
        E 120 80 64 00
        E 0 80 4c 00
        E 0 80 34 00
        E 120 90 64 69
        E 0 90 6c 69
        E 0 90 4c 69
        E 0 90 34 69
        E 0 90 1c 69
        E 120 80 6c 00
        E 1200 80 64 00
        E 0 80 4c 00
        E 0 80 34 00
        E 0 80 1c 00
        E 120 90 64 67
        E 0 90 6c 67
        E 0 90 4c 67
        E 0 90 34 67
        E 0 90 1c 67
        E 120 80 64 00
        E 0 80 6c 00
        E 0 80 4c 00
        E 0 80 34 00
        E 0 80 1c 00
        E 120 90 64 69
        E 0 90 4c 69
        E 0 90 34 69
        E 120 80 64 00
        E 0 80 4c 00
        E 0 80 34 00
        E 120 90 63 69
        E 0 90 4b 69
        E 0 90 33 69
        E 0 90 1b 69
        E 120 80 74 00
        E 1320 80 63 00
        E 0 80 4b 00
        E 0 80 33 00
        E 0 80 1b 00
        E 240 90 63 68
        E 0 90 6c 68
        E 0 90 4b 68
        E 0 90 33 68
        E 120 80 63 00
        E 0 80 6c 00
        E 0 80 4b 00
        E 0 80 33 00
        E 0 90 63 69
        E 120 80 63 00
        E 0 90 62 6b
        E 0 90 4a 6b
        E 0 90 32 6b
        E 0 90 1a 6b
        E 1920 80 62 00
        E 0 80 4a 00
        E 0 80 32 00
        E 0 80 1a 00
        E 2160 90 64 65
        E 0 90 6c 65
        E 0 90 4c 65
        E 0 90 34 65
        E 0 90 1c 65
        E 120 80 64 00
        E 0 80 6c 00
        E 0 80 4c 00
        E 0 80 34 00
        E 0 80 1c 00
        E 120 90 64 65
        E 0 90 4c 65
        E 0 90 34 65
        E 0 90 1c 65
        E 120 80 64 00
        E 0 80 4c 00
        E 0 80 34 00
        E 0 80 1c 00
        E 0 90 63 68
        E 120 80 63 00
        E 0 90 63 66
        E 0 90 4b 66
        E 0 90 33 66
        E 120 80 63 00
        E 0 80 4b 00
        E 0 80 33 00
        E 0 90 63 64
        E 120 80 63 00
        E 0 90 63 66
        E 0 90 4b 66
        E 0 90 33 66
        E 0 90 1b 66
        E 360 80 63 00
        E 0 80 4b 00
        E 0 80 33 00
        E 0 80 1b 00
        E 120 90 63 64
        E 0 90 4b 64
        E 0 90 33 64
        E 0 90 1b 64
        E 480 80 63 00
        E 0 80 4b 00
        E 0 80 33 00
        E 0 80 1b 00
        E 480 90 62 66
        E 0 90 4a 66
        E 0 90 32 66
        E 0 90 1a 66
        E 120 80 62 00
        E 0 80 4a 00
        E 0 80 32 00
        E 0 80 1a 00
        E 0 90 63 64
        E 120 80 63 00
        E 0 90 63 64
        E 0 90 4b 64
        E 0 90 33 64
        E 120 80 63 00
        E 0 80 4b 00
        E 0 80 33 00
        E 0 90 63 66
        E 120 80 63 00
        E 0 90 63 64
        E 0 90 4b 64
        E 0 90 33 64
        E 0 90 1b 64
        E 960 80 63 00
        E 0 80 4b 00
        E 0 80 33 00
        E 0 80 1b 00
        E 240 90 64 65
        E 0 90 4c 65
        E 0 90 34 65
        E 0 90 1c 65
        E 120 80 64 00
        E 0 80 4c 00
        E 0 80 34 00
        E 0 80 1c 00
        E 120 90 64 65
        E 0 90 4c 65
        E 0 90 34 65
        E 0 90 1c 65
        E 120 80 64 00
        E 0 80 4c 00
        E 0 80 34 00
        E 0 80 1c 00
        E 0 90 63 68
        E 120 80 63 00
        E 0 90 63 66
        E 0 90 4b 66
        E 0 90 33 66
        E 120 80 63 00
        E 0 80 4b 00
        E 0 80 33 00
        E 0 90 63 64
        E 120 80 63 00
        E 0 90 63 66
        E 0 90 4b 66
        E 0 90 33 66
        E 0 90 1b 66
        E 360 80 63 00
        E 0 80 4b 00
        E 0 80 33 00
        E 0 80 1b 00
        E 120 90 63 64
        E 0 90 4b 64
        E 0 90 33 64
        E 0 90 1b 64
        E 480 80 63 00
        E 0 80 4b 00
        E 0 80 33 00
        E 0 80 1b 00
        E 480 90 62 66
        E 0 90 4a 66
        E 0 90 32 66
        E 0 90 1a 66
        E 120 80 62 00
        E 0 80 4a 00
        E 0 80 32 00
        E 0 80 1a 00
        E 0 90 63 64
        E 120 80 63 00
        E 0 90 63 64
        E 0 90 4b 64
        E 0 90 33 64
        E 120 80 63 00
        E 0 80 4b 00
        E 0 80 33 00
        E 0 90 63 66
        E 120 80 63 00
        E 0 90 63 64
        E 0 90 4b 64
        E 0 90 33 64
        E 0 90 1b 64
        E 960 80 63 00
        E 0 80 4b 00
        E 0 80 33 00
        E 0 80 1b 00
        E 480 90 63 65
        E 0 90 4b 65
        E 0 90 33 65
        E 0 90 1b 65
        E 120 80 63 00
        E 0 80 4b 00
        E 0 80 33 00
        E 0 80 1b 00
        E 0 90 63 65
        E 120 80 63 00
        E 0 90 63 65
        E 0 90 4b 65
        E 0 90 33 65
        E 120 80 63 00
        E 0 80 4b 00
        E 0 80 33 00
        E 0 90 63 66
        E 120 80 63 00
        E 0 90 64 64
        E 0 90 4c 64
        E 0 90 34 64
        E 0 90 1c 64
        E 360 80 64 00
        E 0 80 4c 00
        E 0 80 34 00
        E 0 80 1c 00
        E 120 90 62 66
        E 0 90 4a 66
        E 0 90 32 66
        E 0 90 1a 66
        E 480 80 62 00
        E 0 80 4a 00
        E 0 80 32 00
        E 0 80 1a 00
        E 480 90 63 66
        E 0 90 4b 66
        E 0 90 33 66
        E 0 90 1b 66
        E 120 80 63 00
        E 0 80 4b 00
        E 0 80 33 00
        E 0 80 1b 00
        E 0 90 63 66
        E 120 80 63 00
        E 0 90 63 66
        E 120 80 63 00
        E 0 90 64 64
        E 120 80 64 00
        E 0 90 64 65
        E 360 80 64 00
        E 120 90 64 67
        E 480 80 64 00
        E 0 90 74 60
        E 480 90 63 6d
        E 0 90 6c 6a
        E 0 90 4b 6d
        E 0 90 33 6d
        E 0 90 1b 6d
        E 120 80 63 00
        E 0 80 6c 00
        E 0 80 4b 00
        E 0 80 33 00
        E 0 80 1b 00
        E 0 90 63 6d
        E 120 80 63 00
        E 0 90 63 6d
        E 0 90 4b 6d
        E 0 90 33 6d
        E 120 80 63 00
        E 0 80 4b 00
        E 0 80 33 00
        E 0 90 64 6a
        E 120 80 64 00
        E 0 90 64 6c
        E 0 90 6c 6b
        E 0 90 4c 6c
        E 0 90 34 6c
        E 0 90 1c 6c
        E 120 80 6c 00
        E 240 80 64 00
        E 0 80 4c 00
        E 0 80 34 00
        E 0 80 1c 00
        E 120 90 62 6e
        E 0 90 4a 6e
        E 0 90 32 6e
        E 0 90 1a 6e
        E 360 80 62 00
        E 0 80 4a 00
        E 0 80 32 00
        E 0 80 1a 00
        E 120 90 62 6e
        E 0 90 4a 6e
        E 0 90 32 6e
        E 0 90 1a 6e
        E 120 80 62 00
        E 0 80 4a 00
        E 0 80 32 00
        E 0 80 1a 00
        E 240 90 63 6d
        E 0 90 4b 6d
        E 0 90 33 6d
        E 120 80 63 00
        E 0 80 4b 00
        E 0 80 33 00
        E 0 90 63 6b
        E 960 80 63 00
        E 480 80 74 00
        E 480 90 63 6d
        E 0 90 6c 6a
        E 0 90 4b 6d
        E 0 90 33 6d
        E 0 90 1b 6d
        E 120 80 63 00
        E 0 80 6c 00
        E 0 80 4b 00
        E 0 80 33 00
        E 0 80 1b 00
        E 0 90 63 6d
        E 120 80 63 00
        E 0 90 63 6d
        E 120 80 63 00
        E 0 90 64 6a
        E 120 80 64 00
        E 0 90 64 6c
        E 0 90 6c 6b
        E 120 80 6c 00
        E 240 80 64 00
        E 120 90 62 6e
        E 360 80 62 00
        E 120 90 62 6e
        E 120 80 62 00
        E 240 90 63 6d
        E 120 80 63 00
        E 0 90 63 6b
        E 840 80 63 00
        E 120 90 63 6b
        E 0 90 6c 6a
        E 0 90 4b 6b
        E 0 90 33 6b
        E 0 90 1b 6b
        E 120 80 63 00
        E 0 80 6c 00
        E 0 80 4b 00
        E 0 80 33 00
        E 0 80 1b 00
        E 120 90 64 6a
        E 0 90 4c 6a
        E 0 90 34 6a
        E 120 80 64 00
        E 0 80 4c 00
        E 0 80 34 00
        E 120 90 64 69
        E 0 90 6c 69
        E 0 90 4c 69
        E 0 90 34 69
        E 0 90 1c 69
        E 120 80 6c 00
        E 1200 80 64 00
        E 0 80 4c 00
        E 0 80 34 00
        E 0 80 1c 00
        E 120 90 64 67
        E 0 90 6c 67
        E 0 90 4c 67
        E 0 90 34 67
        E 0 90 1c 67
        E 120 80 64 00
        E 0 80 6c 00
        E 0 80 4c 00
        E 0 80 34 00
        E 0 80 1c 00
        E 120 90 64 69
        E 0 90 4c 69
        E 0 90 34 69
        E 120 80 64 00
        E 0 80 4c 00
        E 0 80 34 00
        E 120 90 63 69
        E 0 90 4b 69
        E 0 90 33 69
        E 0 90 1b 69
        E 1440 80 63 00
        E 0 80 4b 00
        E 0 80 33 00
        E 0 80 1b 00
        E 240 90 63 68
        E 0 90 6c 68
        E 0 90 4b 68
        E 0 90 33 68
        E 120 80 63 00
        E 0 80 6c 00
        E 0 80 4b 00
        E 0 80 33 00
        E 0 90 63 69
        E 120 80 63 00
        E 0 90 62 6b
        E 0 90 4a 6b
        E 0 90 32 6b
        E 0 90 1a 6b
        E 1920 80 62 00
        E 0 80 4a 00
        E 0 80 32 00
        E 0 80 1a 00
        E 2160 90 64 65
        E 0 90 6c 65
        E 0 90 4c 65
        E 0 90 34 65
        E 0 90 1c 65
        E 120 80 64 00
        E 0 80 6c 00
        E 0 80 4c 00
        E 0 80 34 00
        E 0 80 1c 00
        E 120 90 64 65
        E 0 90 4c 65
        E 0 90 34 65
        E 0 90 1c 65
        E 120 80 64 00
        E 0 80 4c 00
        E 0 80 34 00
        E 0 80 1c 00
        E 0 90 63 68
        E 120 80 63 00
        E 0 90 63 66
        E 0 90 4b 66
        E 0 90 33 66
        E 120 80 63 00
        E 0 80 4b 00
        E 0 80 33 00
        E 0 90 63 64
        E 120 80 63 00
        E 0 90 63 66
        E 0 90 4b 66
        E 0 90 33 66
        E 0 90 1b 66
        E 360 80 63 00
        E 0 80 4b 00
        E 0 80 33 00
        E 0 80 1b 00
        E 120 90 63 64
        E 0 90 4b 64
        E 0 90 33 64
        E 0 90 1b 64
        E 480 80 63 00
        E 0 80 4b 00
        E 0 80 33 00
        E 0 80 1b 00
        E 480 90 62 66
        E 0 90 4a 66
        E 0 90 32 66
        E 0 90 1a 66
        E 120 80 62 00
        E 0 80 4a 00
        E 0 80 32 00
        E 0 80 1a 00
        E 0 90 63 64
        E 120 80 63 00
        E 0 90 63 64
        E 0 90 4b 64
        E 0 90 33 64
        E 120 80 63 00
        E 0 80 4b 00
        E 0 80 33 00
        E 0 90 63 66
        E 120 80 63 00
        E 0 90 63 64
        E 0 90 4b 64
        E 0 90 33 64
        E 0 90 1b 64
        E 960 80 63 00
        E 0 80 4b 00
        E 0 80 33 00
        E 0 80 1b 00
        E 240 90 64 65
        E 0 90 4c 65
        E 0 90 34 65
        E 0 90 1c 65
        E 120 80 64 00
        E 0 80 4c 00
        E 0 80 34 00
        E 0 80 1c 00
        E 120 90 64 65
        E 0 90 4c 65
        E 0 90 34 65
        E 0 90 1c 65
        E 120 80 64 00
        E 0 80 4c 00
        E 0 80 34 00
        E 0 80 1c 00
        E 0 90 63 68
        E 120 80 63 00
        E 0 90 63 66
        E 0 90 4b 66
        E 0 90 33 66
        E 120 80 63 00
        E 0 80 4b 00
        E 0 80 33 00
        E 0 90 63 64
        E 120 80 63 00
        E 0 90 63 66
        E 0 90 4b 66
        E 0 90 33 66
        E 0 90 1b 66
        E 360 80 63 00
        E 0 80 4b 00
        E 0 80 33 00
        E 0 80 1b 00
        E 120 90 63 64
        E 0 90 4b 64
        E 0 90 33 64
        E 0 90 1b 64
        E 480 80 63 00
        E 0 80 4b 00
        E 0 80 33 00
        E 0 80 1b 00
        E 480 90 62 66
        E 0 90 4a 66
        E 0 90 32 66
        E 0 90 1a 66
        E 120 80 62 00
        E 0 80 4a 00
        E 0 80 32 00
        E 0 80 1a 00
        E 0 90 63 64
        E 120 80 63 00
        E 0 90 63 64
        E 0 90 4b 64
        E 0 90 33 64
        E 120 80 63 00
        E 0 80 4b 00
        E 0 80 33 00
        E 0 90 63 66
        E 120 80 63 00
        E 0 90 63 64
        E 0 90 4b 64
        E 0 90 33 64
        E 0 90 1b 64
        E 960 80 63 00
        E 0 80 4b 00
        E 0 80 33 00
        E 0 80 1b 00
        e 0 90 74 60
        E 480 90 63 65
        E 0 90 4b 65
        E 0 90 33 65
        E 0 90 1b 65
        E 120 80 63 00
        E 0 80 4b 00
        E 0 80 33 00
        E 0 80 1b 00
        E 0 90 63 65
        E 120 80 63 00
        E 0 90 63 65
        E 0 90 4b 65
        E 0 90 33 65
        E 120 80 63 00
        E 0 80 4b 00
        E 0 80 33 00
        E 0 90 63 66
        E 120 80 63 00
        E 0 90 64 64
        E 0 90 4c 64
        E 0 90 34 64
        E 0 90 1c 64
        E 360 80 64 00
        E 0 80 4c 00
        E 0 80 34 00
        E 0 80 1c 00
        E 120 90 62 66
        E 0 90 4a 66
        E 0 90 32 66
        E 0 90 1a 66
        E 480 80 62 00
        E 0 80 4a 00
        E 0 80 32 00
        E 0 80 1a 00
        E 480 90 63 66
        E 0 90 4b 66
        E 0 90 33 66
        E 0 90 1b 66
        E 120 80 63 00
        E 0 80 4b 00
        E 0 80 33 00
        E 0 80 1b 00
        E 0 90 63 66
        E 120 80 63 00
        E 0 90 63 66
        E 120 80 63 00
        E 0 90 64 64
        E 120 80 64 00
        E 0 90 64 65
        E 360 80 64 00
        E 120 90 64 67
        E 480 80 64 00
        e 0 80 74 00
        E 480 90 63 6d
        E 0 90 6c 6a
        E 0 90 4b 6d
        E 0 90 33 6d
        E 0 90 1b 6d
        E 120 80 63 00
        E 0 80 6c 00
        E 0 80 4b 00
        E 0 80 33 00
        E 0 80 1b 00
        E 0 90 63 6d
        E 120 80 63 00
        E 0 90 63 6d
        E 0 90 4b 6d
        E 0 90 33 6d
        E 120 80 63 00
        E 0 80 4b 00
        E 0 80 33 00
        E 0 90 64 6a
        E 120 80 64 00
        E 0 90 64 6c
        E 0 90 6c 6b
        E 0 90 4c 6c
        E 0 90 34 6c
        E 0 90 1c 6c
        E 120 80 6c 00
        E 240 80 64 00
        E 0 80 4c 00
        E 0 80 34 00
        E 0 80 1c 00
        E 120 90 62 6e
        E 0 90 4a 6e
        E 0 90 32 6e
        E 0 90 1a 6e
        E 360 80 62 00
        E 0 80 4a 00
        E 0 80 32 00
        E 0 80 1a 00
        E 120 90 62 6e
        E 0 90 4a 6e
        E 0 90 32 6e
        E 0 90 1a 6e
        E 120 80 62 00
        E 0 80 4a 00
        E 0 80 32 00
        E 0 80 1a 00
        E 240 90 63 6d
        E 0 90 4b 6d
        E 0 90 33 6d
        E 120 80 63 00
        E 0 80 4b 00
        E 0 80 33 00
        E 0 90 63 6b
        E 960 80 63 00
        E 960 90 63 6d
        E 0 90 6c 6a
        E 0 90 4b 6d
        E 0 90 33 6d
        E 0 90 1b 6d
        E 120 80 63 00
        E 0 80 6c 00
        E 0 80 4b 00
        E 0 80 33 00
        E 0 80 1b 00
        E 0 90 63 6d
        E 120 80 63 00
        E 0 90 63 6d
        E 120 80 63 00
        E 0 90 64 6a
        E 120 80 64 00
        E 0 90 64 6c
        E 0 90 6c 6b
        E 120 80 6c 00
        E 240 80 64 00
        E 120 90 62 6e
        E 360 80 62 00
        E 120 90 62 6e
        E 120 80 62 00
        E 240 90 63 6d
        E 120 80 63 00
        E 0 90 63 6b
        E 840 80 63 00
        E 120 90 63 6b
        E 0 90 6c 6a
        E 0 90 4b 6b
        E 0 90 33 6b
        E 0 90 1b 6b
        E 120 80 63 00
        E 0 80 6c 00
        E 0 80 4b 00
        E 0 80 33 00
        E 0 80 1b 00
        E 120 90 64 6a
        E 0 90 4c 6a
        E 0 90 34 6a
        E 120 80 64 00
        E 0 80 4c 00
        E 0 80 34 00
        E 120 90 64 69
        E 0 90 6c 69
        E 0 90 4c 69
        E 0 90 34 69
        E 0 90 1c 69
        E 120 80 6c 00
        E 1200 80 64 00
        E 0 80 4c 00
        E 0 80 34 00
        E 0 80 1c 00
        E 120 90 64 67
        E 0 90 6c 67
        E 0 90 4c 67
        E 0 90 34 67
        E 0 90 1c 67
        E 120 80 64 00
        E 0 80 6c 00
        E 0 80 4c 00
        E 0 80 34 00
        E 0 80 1c 00
        E 120 90 64 69
        E 0 90 4c 69
        E 0 90 34 69
        E 120 80 64 00
        E 0 80 4c 00
        E 0 80 34 00
        E 120 90 63 69
        E 0 90 4b 69
        E 0 90 33 69
        E 0 90 1b 69
        E 1440 80 63 00
        E 0 80 4b 00
        E 0 80 33 00
        E 0 80 1b 00
        E 240 90 63 68
        E 0 90 6c 68
        E 0 90 4b 68
        E 0 90 33 68
        E 120 80 63 00
        E 0 80 6c 00
        E 0 80 4b 00
        E 0 80 33 00
        E 0 90 63 69
        E 120 80 63 00
        E 0 90 62 6b
        E 0 90 4a 6b
        E 0 90 32 6b
        E 0 90 1a 6b
        E 1920 80 62 00
        E 0 80 4a 00
        E 0 80 32 00
        E 0 80 1a 00
        E 3840 b0 7b 00
        GUID {3A345792-0C3C-467F-96C0-7FE10F623828}
        IGNTEMPO 0 120.00000000 4 4
        SRCCOLOR 1
        VELLANE 132 128 60
        COLORMAP "C:\Program Files\REAPER (x64)\Data\color_maps\rockband_guitarbass.png"
        CFGEDITVIEW -5664.000000 7.263059 0 12 0 0 0
        CFGEDIT 1 1 0 1 1 0 1 1 1 1 1 0.25000000 -8 -8 1544 872 0 2 1 1 0.00000000 0 1 0 0 0.500000 0 0 1.000000 64
        KEYSNAP 0 6 "102030050700" 0 "Pentatonic"
        EVTFILTER 0 -1 -1 -1 -1 0 1 0 0 -1.00000000 -1.00000000
      >
    >
  >
  <TRACK '{909EA6D1-1AF3-4F21-AC0F-4D35EDCA2D9B}'
    NAME "EVENTS"
    PEAKCOL 16576
    BEAT -1
    AUTOMODE 0
    VOLPAN 1.00000000000000 0.00000000000000 -1.00000000000000 -1.00000000000000 1.00000000000000
    MUTESOLO 0 0 0
    IPHASE 0
    ISBUS 0 0
    BUSCOMP 0 0
    SHOWINMIX 1 0.666700 0.500000 1 0.500000 -1 -1 -1
    FREEMODE 0
    SEL 0
    REC 0 0 0 0 0 0 0
    VU 2
    TRACKHEIGHT 0 0
    INQ 0 0 0 0.5000000000 100 0 0 100
    NCHAN 2
    FX 1
    TRACKID {909EA6D1-1AF3-4F21-AC0F-4D35EDCA2D9B}
    PERF 0
    MIDIOUT -1
    <MIDINOTENAMES
      0 26 "Hi-Hat"
      0 25 "Snare"
      0 24 "Kick"
    >
    MAINSEND 1 0
    <FXCHAIN
      SHOW 0
      LASTSEL 0
      DOCKED 0
    >
    <ITEM
      POSITION 0.00000000000000
      SNAPOFFS 0.00000000000000
      LENGTH 173.10513447432763
      LOOP 0
      ALLTAKES 0
      SEL 0
      FADEIN 1 0.000000 0.000000 1 0
      FADEOUT 1 0.000000 0.000000 1 0
      MUTE 0
      IGUID {904DC62A-827A-4957-A669-5F9691B05B6A}
      IID 17
      NAME "EVENTS"
      VOLPAN 1.000000 0.000000 1.000000 -1.000000
      SOFFS 0.00000000000000 0.00000000000000
      PLAYRATE 1.00000000000000 1 0.00000000000000 -1
      CHANMODE 0
      GUID {8992A904-E5A4-4A62-AC59-828A01C34177}
      <SOURCE MIDI
        HASDATA 1 480 QN
        POOLEDEVTS {497A3B6F-075C-4A9B-BFF7-55E5C2F4BA6D}
        <X 0 0
          /wNFVkVOVFM=
        >
        e 0 90 1a 60
        e 120 80 1a 00
        e 840 90 1a 60
        e 120 80 1a 00
        e 840 90 1a 60
        e 120 80 1a 00
        e 360 90 1a 60
        e 120 80 1a 00
        e 360 90 1a 60
        e 120 80 1a 00
        e 360 90 1a 60
        e 120 80 1a 00
        <X 360 0
          /wFbcHJjX3ZlcnNlXzFd
        >
        <X 0 0
          /wFbY3Jvd2Rfbm9jbGFwXQ==
        >
        e 0 90 1a 60
        e 120 80 1a 00
        e 360 90 1a 60
        e 120 80 1a 00
        <X 360 0
          /wFbY3Jvd2RfbWVsbG93XQ==
        >
        <X 0 0
          /wFbbXVzaWNfc3RhcnRd
        >
        e 0 90 1a 60
        e 120 80 1a 00
        e 360 90 1a 60
        e 120 80 1a 00
        e 360 90 1a 60
        e 120 80 1a 00
        e 360 90 1a 60
        e 120 80 1a 00
        e 360 90 1a 60
        e 120 80 1a 00
        e 360 90 1a 60
        e 120 80 1a 00
        e 360 90 1a 60
        e 120 80 1a 00
        e 360 90 1a 60
        e 120 80 1a 00
        e 360 90 1a 60
        e 120 80 1a 00
        e 360 90 1a 60
        e 120 80 1a 00
        e 360 90 1a 60
        e 120 80 1a 00
        e 360 90 1a 60
        e 120 80 1a 00
        e 360 90 1a 60
        e 120 80 1a 00
        e 360 90 1a 60
        e 120 80 1a 00
        e 360 90 1a 60
        e 120 80 1a 00
        e 360 90 1a 60
        e 120 80 1a 00
        e 360 90 1a 60
        e 120 80 1a 00
        e 360 90 1a 60
        e 120 80 1a 00
        e 360 90 1a 60
        e 120 80 1a 00
        e 360 90 1a 60
        e 120 80 1a 00
        e 360 90 1a 60
        e 120 80 1a 00
        e 360 90 1a 60
        e 120 80 1a 00
        <X 360 0
          /wFbcHJjX2Nob3J1c18xXQ==
        >
        e 0 90 1a 60
        e 120 80 1a 00
        e 360 90 1a 60
        e 120 80 1a 00
        e 360 90 1a 60
        e 120 80 1a 00
        e 360 90 1a 60
        e 120 80 1a 00
        e 360 90 1a 60
        e 120 80 1a 00
        e 360 90 1a 60
        e 120 80 1a 00
        e 360 90 1a 60
        e 120 80 1a 00
        e 360 90 1a 60
        e 120 80 1a 00
        e 360 90 1a 60
        e 120 80 1a 00
        e 360 90 1a 60
        e 120 80 1a 00
        e 360 90 1a 60
        e 120 80 1a 00
        e 360 90 1a 60
        e 120 80 1a 00
        e 360 90 1a 60
        e 120 80 1a 00
        e 360 90 1a 60
        e 120 80 1a 00
        e 360 90 1a 60
        e 120 80 1a 00
        e 360 90 1a 60
        e 120 80 1a 00
        e 360 90 1a 60
        e 120 80 1a 00
        e 360 90 1a 60
        e 120 80 1a 00
        e 360 90 1a 60
        e 120 80 1a 00
        e 360 90 1a 60
        e 120 80 1a 00
        e 360 90 1a 60
        e 120 80 1a 00
        e 360 90 1a 60
        e 120 80 1a 00
        e 360 90 1a 60
        e 120 80 1a 00
        e 360 90 1a 60
        e 120 80 1a 00
        e 360 90 1a 60
        e 120 80 1a 00
        e 360 90 1a 60
        e 120 80 1a 00
        e 360 90 1a 60
        e 120 80 1a 00
        e 360 90 1a 60
        e 120 80 1a 00
        e 360 90 1a 60
        e 120 80 1a 00
        e 360 90 1a 60
        e 120 80 1a 00
        e 360 90 1a 60
        e 120 80 1a 00
        e 360 90 1a 60
        e 120 80 1a 00
        <X 360 0
          /wFbcHJjX3ZlcnNlXzJd
        >
        e 0 90 1a 60
        e 120 80 1a 00
        e 360 90 1a 60
        e 120 80 1a 00
        e 360 90 1a 60
        e 120 80 1a 00
        e 360 90 1a 60
        e 120 80 1a 00
        e 360 90 1a 60
        e 120 80 1a 00
        e 360 90 1a 60
        e 120 80 1a 00
        e 360 90 1a 60
        e 120 80 1a 00
        e 360 90 1a 60
        e 120 80 1a 00
        e 360 90 1a 60
        e 120 80 1a 00
        e 360 90 1a 60
        e 120 80 1a 00
        e 360 90 1a 60
        e 120 80 1a 00
        e 360 90 1a 60
        e 120 80 1a 00
        e 360 90 1a 60
        e 120 80 1a 00
        e 360 90 1a 60
        e 120 80 1a 00
        e 360 90 1a 60
        e 120 80 1a 00
        e 360 90 1a 60
        e 120 80 1a 00
        e 360 90 1a 60
        e 120 80 1a 00
        e 360 90 1a 60
        e 120 80 1a 00
        e 360 90 1a 60
        e 120 80 1a 00
        e 360 90 1a 60
        e 120 80 1a 00
        e 360 90 1a 60
        e 120 80 1a 00
        e 360 90 1a 60
        e 120 80 1a 00
        e 360 90 1a 60
        e 120 80 1a 00
        e 360 90 1a 60
        e 120 80 1a 00
        <X 360 0
          /wFbcHJjX2Nob3J1c18yXQ==
        >
        e 0 90 1a 60
        e 120 80 1a 00
        e 360 90 1a 60
        e 120 80 1a 00
        e 360 90 1a 60
        e 120 80 1a 00
        e 360 90 1a 60
        e 120 80 1a 00
        e 360 90 1a 60
        e 120 80 1a 00
        e 360 90 1a 60
        e 120 80 1a 00
        e 360 90 1a 60
        e 120 80 1a 00
        e 360 90 1a 60
        e 120 80 1a 00
        e 360 90 1a 60
        e 120 80 1a 00
        e 360 90 1a 60
        e 120 80 1a 00
        e 360 90 1a 60
        e 120 80 1a 00
        e 360 90 1a 60
        e 120 80 1a 00
        e 360 90 1a 60
        e 120 80 1a 00
        e 360 90 1a 60
        e 120 80 1a 00
        e 360 90 1a 60
        e 120 80 1a 00
        e 360 90 1a 60
        e 120 80 1a 00
        e 360 90 1a 60
        e 120 80 1a 00
        e 360 90 1a 60
        e 120 80 1a 00
        e 360 90 1a 60
        e 120 80 1a 00
        e 360 90 1a 60
        e 120 80 1a 00
        e 360 90 1a 60
        e 120 80 1a 00
        e 360 90 1a 60
        e 120 80 1a 00
        e 360 90 1a 60
        e 120 80 1a 00
        e 360 90 1a 60
        e 120 80 1a 00
        e 360 90 1a 60
        e 120 80 1a 00
        e 360 90 1a 60
        e 120 80 1a 00
        e 360 90 1a 60
        e 120 80 1a 00
        e 360 90 1a 60
        e 120 80 1a 00
        e 360 90 1a 60
        e 120 80 1a 00
        e 360 90 1a 60
        e 120 80 1a 00
        e 360 90 1a 60
        e 120 80 1a 00
        e 360 90 1a 60
        e 120 80 1a 00
        <X 360 0
          /wFbcHJjX3ZlcnNlXzNd
        >
        e 0 90 1a 60
        e 120 80 1a 00
        e 360 90 1a 60
        e 120 80 1a 00
        e 360 90 1a 60
        e 120 80 1a 00
        e 360 90 1a 60
        e 120 80 1a 00
        e 360 90 1a 60
        e 120 80 1a 00
        e 360 90 1a 60
        e 120 80 1a 00
        e 360 90 1a 60
        e 120 80 1a 00
        e 360 90 1a 60
        e 120 80 1a 00
        e 360 90 1a 60
        e 120 80 1a 00
        e 360 90 1a 60
        e 120 80 1a 00
        e 360 90 1a 60
        e 120 80 1a 00
        e 360 90 1a 60
        e 120 80 1a 00
        e 360 90 1a 60
        e 120 80 1a 00
        e 360 90 1a 60
        e 120 80 1a 00
        e 360 90 1a 60
        e 120 80 1a 00
        e 360 90 1a 60
        e 120 80 1a 00
        e 360 90 1a 60
        e 120 80 1a 00
        e 360 90 1a 60
        e 120 80 1a 00
        e 360 90 1a 60
        e 120 80 1a 00
        e 360 90 1a 60
        e 120 80 1a 00
        e 360 90 1a 60
        e 120 80 1a 00
        e 360 90 1a 60
        e 120 80 1a 00
        e 360 90 1a 60
        e 120 80 1a 00
        e 360 90 1a 60
        e 120 80 1a 00
        <X 360 0
          /wFbcHJjX2Nob3J1c18zXQ==
        >
        e 0 90 1a 60
        e 120 80 1a 00
        e 360 90 1a 60
        e 120 80 1a 00
        e 360 90 1a 60
        e 120 80 1a 00
        e 360 90 1a 60
        e 120 80 1a 00
        e 360 90 1a 60
        e 120 80 1a 00
        e 360 90 1a 60
        e 120 80 1a 00
        e 360 90 1a 60
        e 120 80 1a 00
        e 360 90 1a 60
        e 120 80 1a 00
        e 360 90 1a 60
        e 120 80 1a 00
        e 360 90 1a 60
        e 120 80 1a 00
        e 360 90 1a 60
        e 120 80 1a 00
        e 360 90 1a 60
        e 120 80 1a 00
        e 360 90 1a 60
        e 120 80 1a 00
        e 360 90 1a 60
        e 120 80 1a 00
        e 360 90 1a 60
        e 120 80 1a 00
        e 360 90 1a 60
        e 120 80 1a 00
        e 360 90 1a 60
        e 120 80 1a 00
        e 360 90 1a 60
        e 120 80 1a 00
        e 360 90 1a 60
        e 120 80 1a 00
        e 360 90 1a 60
        e 120 80 1a 00
        e 360 90 1a 60
        e 120 80 1a 00
        e 360 90 1a 60
        e 120 80 1a 00
        e 360 90 1a 60
        e 120 80 1a 00
        e 360 90 1a 60
        e 120 80 1a 00
        e 360 90 1a 60
        e 120 80 1a 00
        e 360 90 1a 60
        e 120 80 1a 00
        e 360 90 1a 60
        e 120 80 1a 00
        e 360 90 1a 60
        e 120 80 1a 00
        e 360 90 1a 60
        e 120 80 1a 00
        e 360 90 1a 60
        e 120 80 1a 00
        e 360 90 1a 60
        e 120 80 1a 00
        e 360 90 1a 60
        e 120 80 1a 00
        <X 360 0
          /wFbcHJjX3ZlcnNlXzRd
        >
        e 0 90 1a 60
        e 120 80 1a 00
        e 360 90 1a 60
        e 120 80 1a 00
        e 360 90 1a 60
        e 120 80 1a 00
        e 360 90 1a 60
        e 120 80 1a 00
        e 360 90 1a 60
        e 120 80 1a 00
        e 360 90 1a 60
        e 120 80 1a 00
        e 360 90 1a 60
        e 120 80 1a 00
        e 360 90 1a 60
        e 120 80 1a 00
        e 360 90 1a 60
        e 120 80 1a 00
        e 360 90 1a 60
        e 120 80 1a 00
        e 360 90 1a 60
        e 120 80 1a 00
        e 360 90 1a 60
        e 120 80 1a 00
        e 360 90 1a 60
        e 120 80 1a 00
        e 360 90 1a 60
        e 120 80 1a 00
        e 360 90 1a 60
        e 120 80 1a 00
        e 360 90 1a 60
        e 120 80 1a 00
        e 360 90 1a 60
        e 120 80 1a 00
        e 360 90 1a 60
        e 120 80 1a 00
        e 360 90 1a 60
        e 120 80 1a 00
        e 360 90 1a 60
        e 120 80 1a 00
        e 360 90 1a 60
        e 120 80 1a 00
        e 360 90 1a 60
        e 120 80 1a 00
        e 360 90 1a 60
        e 120 80 1a 00
        e 360 90 1a 60
        e 120 80 1a 00
        <X 360 0
          /wFbcHJjX291dHJvX2Nob3J1c10=
        >
        e 0 90 1a 60
        e 120 80 1a 00
        e 360 90 1a 60
        e 120 80 1a 00
        e 360 90 1a 60
        e 120 80 1a 00
        e 360 90 1a 60
        e 120 80 1a 00
        e 360 90 1a 60
        e 120 80 1a 00
        e 360 90 1a 60
        e 120 80 1a 00
        e 360 90 1a 60
        e 120 80 1a 00
        e 360 90 1a 60
        e 120 80 1a 00
        e 360 90 1a 60
        e 120 80 1a 00
        e 360 90 1a 60
        e 120 80 1a 00
        e 360 90 1a 60
        e 120 80 1a 00
        e 360 90 1a 60
        e 120 80 1a 00
        e 360 90 1a 60
        e 120 80 1a 00
        e 360 90 1a 60
        e 120 80 1a 00
        e 360 90 1a 60
        e 120 80 1a 00
        e 360 90 1a 60
        e 120 80 1a 00
        e 360 90 1a 60
        e 120 80 1a 00
        e 360 90 1a 60
        e 120 80 1a 00
        e 360 90 1a 60
        e 120 80 1a 00
        e 360 90 1a 60
        e 120 80 1a 00
        e 360 90 1a 60
        e 120 80 1a 00
        e 360 90 1a 60
        e 120 80 1a 00
        e 360 90 1a 60
        e 120 80 1a 00
        e 360 90 1a 60
        e 120 80 1a 00
        e 360 90 1a 60
        e 120 80 1a 00
        e 360 90 1a 60
        e 120 80 1a 00
        e 360 90 1a 60
        e 120 80 1a 00
        e 360 90 1a 60
        e 120 80 1a 00
        e 360 90 1a 60
        e 120 80 1a 00
        e 360 90 1a 60
        e 120 80 1a 00
        e 360 90 1a 60
        e 120 80 1a 00
        e 360 90 1a 60
        e 120 80 1a 00
        <X 240 0
          /wFbbXVzaWNfZW5kXQ==
        >
        <X 2035 0
          /wFbZW5kXQ==
        >
        E 5 b0 7b 00
        GUID {F17BFD53-12E0-4F10-AC8B-1F0370B18397}
        IGNTEMPO 0 120.00000000 4 4
        SRCCOLOR 10
        VELLANE 132 128 60
        COLORMAP "C:\Program Files\REAPER (x64)\Data\color_maps\rockband_guitarbass.png"
        TEXTSTRINGFILE "C:\Program Files\REAPER (x64)\Data\Text_Strings\Text Events List - Events.txt"
        CFGEDITVIEW -804.222382 50.449727 0 48 0 0 0
        CFGEDIT 1 1 0 1 1 0 1 1 1 1 1 0.25000000 -8 -8 1544 872 0 2 1 1 0.00000000 0 1 0 0 0.500000 0 0 1.000000 64
        KEYSNAP 0 6 "102030050700" 0 "Pentatonic"
        EVTFILTER 0 -1 -1 -1 -1 0 1 0 0 -1.00000000 -1.00000000
      >
    >
  >
  <TRACK '{05EC65B5-1B50-4470-945B-E0E081501520}'
    NAME "BEAT"
    PEAKCOL 16576
    BEAT -1
    AUTOMODE 0
    VOLPAN 1.00000000000000 0.00000000000000 -1.00000000000000 -1.00000000000000 1.00000000000000
    MUTESOLO 0 0 0
    IPHASE 0
    ISBUS 0 0
    BUSCOMP 0 0
    SHOWINMIX 1 0.666700 0.500000 1 0.500000 -1 -1 -1
    FREEMODE 0
    SEL 0
    REC 0 0 0 0 0 0 0
    VU 2
    TRACKHEIGHT 0 0
    INQ 0 0 0 0.5000000000 100 0 0 100
    NCHAN 2
    FX 1
    TRACKID {05EC65B5-1B50-4470-945B-E0E081501520}
    PERF 0
    MIDIOUT -1
    MAINSEND 1 0
    <ITEM
      POSITION 0.00000000000000
      SNAPOFFS 0.00000000000000
      LENGTH 173.10513447432763
      LOOP 0
      ALLTAKES 0
      SEL 0
      FADEIN 1 0.000000 0.000000 1 0
      FADEOUT 1 0.000000 0.000000 1 0
      MUTE 0
      IGUID {1BA50000-9E57-43AF-BE32-71ADBBC58D8D}
      IID 16
      NAME "BEAT"
      VOLPAN 1.000000 0.000000 1.000000 -1.000000
      SOFFS 0.00000000000000 0.00000000000000
      PLAYRATE 1.00000000000000 1 0.00000000000000 -1
      CHANMODE 0
      GUID {F28BA6A8-0A84-4298-8342-FD0FEEF6F606}
      <SOURCE MIDI
        HASDATA 1 480 QN
        POOLEDEVTS {88FB9C30-BC45-4CC7-BB24-5A5DB921E89D}
        <X 0 0
          /wNCRUFU
        >
        e 0 96 0c 64
        e 120 86 0c 00
        e 360 96 0d 64
        e 120 86 0d 00
        e 360 96 0d 64
        e 120 86 0d 00
        e 360 96 0d 64
        e 120 86 0d 00
        e 360 96 0c 64
        e 120 86 0c 00
        e 360 96 0d 64
        e 120 86 0d 00
        e 360 96 0d 64
        e 120 86 0d 00
        e 360 96 0d 64
        e 120 86 0d 00
        e 360 96 0c 64
        e 120 86 0c 00
        e 360 96 0d 64
        e 120 86 0d 00
        e 360 96 0d 64
        e 120 86 0d 00
        e 360 96 0d 64
        e 120 86 0d 00
        e 360 96 0c 64
        e 120 86 0c 00
        e 360 96 0d 64
        e 120 86 0d 00
        e 360 96 0d 64
        e 120 86 0d 00
        e 360 96 0d 64
        e 120 86 0d 00
        e 360 96 0c 64
        e 120 86 0c 00
        e 360 96 0d 64
        e 120 86 0d 00
        e 360 96 0d 64
        e 120 86 0d 00
        e 360 96 0d 64
        e 120 86 0d 00
        e 360 96 0c 64
        e 120 86 0c 00
        e 360 96 0d 64
        e 120 86 0d 00
        e 360 96 0d 64
        e 120 86 0d 00
        e 360 96 0d 64
        e 120 86 0d 00
        e 360 96 0c 64
        e 120 86 0c 00
        e 360 96 0d 64
        e 120 86 0d 00
        e 360 96 0d 64
        e 120 86 0d 00
        e 360 96 0d 64
        e 120 86 0d 00
        e 360 96 0c 64
        e 120 86 0c 00
        e 360 96 0d 64
        e 120 86 0d 00
        e 360 96 0d 64
        e 120 86 0d 00
        e 360 96 0d 64
        e 120 86 0d 00
        e 360 96 0c 64
        e 120 86 0c 00
        e 360 96 0d 64
        e 120 86 0d 00
        e 360 96 0d 64
        e 120 86 0d 00
        e 360 96 0d 64
        e 120 86 0d 00
        e 360 96 0c 64
        e 120 86 0c 00
        e 360 96 0d 64
        e 120 86 0d 00
        e 360 96 0d 64
        e 120 86 0d 00
        e 360 96 0d 64
        e 120 86 0d 00
        e 360 96 0c 64
        e 120 86 0c 00
        e 360 96 0d 64
        e 120 86 0d 00
        e 360 96 0d 64
        e 120 86 0d 00
        e 360 96 0d 64
        e 120 86 0d 00
        e 360 96 0c 64
        e 120 86 0c 00
        e 360 96 0d 64
        e 120 86 0d 00
        e 360 96 0d 64
        e 120 86 0d 00
        e 360 96 0d 64
        e 120 86 0d 00
        e 360 96 0c 64
        e 120 86 0c 00
        e 360 96 0d 64
        e 120 86 0d 00
        e 360 96 0d 64
        e 120 86 0d 00
        e 360 96 0d 64
        e 120 86 0d 00
        e 360 96 0c 64
        e 120 86 0c 00
        e 360 96 0d 64
        e 120 86 0d 00
        e 360 96 0d 64
        e 120 86 0d 00
        e 360 96 0d 64
        e 120 86 0d 00
        e 360 96 0c 64
        e 120 86 0c 00
        e 360 96 0d 64
        e 120 86 0d 00
        e 360 96 0d 64
        e 120 86 0d 00
        e 360 96 0d 64
        e 120 86 0d 00
        e 360 96 0c 64
        e 120 86 0c 00
        e 360 96 0d 64
        e 120 86 0d 00
        e 360 96 0d 64
        e 120 86 0d 00
        e 360 96 0d 64
        e 120 86 0d 00
        e 360 96 0c 64
        e 120 86 0c 00
        e 360 96 0d 64
        e 120 86 0d 00
        e 360 96 0d 64
        e 120 86 0d 00
        e 360 96 0d 64
        e 120 86 0d 00
        e 360 96 0c 64
        e 120 86 0c 00
        e 360 96 0d 64
        e 120 86 0d 00
        e 360 96 0d 64
        e 120 86 0d 00
        e 360 96 0d 64
        e 120 86 0d 00
        e 360 96 0c 64
        e 120 86 0c 00
        e 360 96 0d 64
        e 120 86 0d 00
        e 360 96 0d 64
        e 120 86 0d 00
        e 360 96 0d 64
        e 120 86 0d 00
        e 360 96 0c 64
        e 120 86 0c 00
        e 360 96 0d 64
        e 120 86 0d 00
        e 360 96 0d 64
        e 120 86 0d 00
        e 360 96 0d 64
        e 120 86 0d 00
        e 360 96 0c 64
        e 120 86 0c 00
        e 360 96 0d 64
        e 120 86 0d 00
        e 360 96 0d 64
        e 120 86 0d 00
        e 360 96 0d 64
        e 120 86 0d 00
        e 360 96 0c 64
        e 120 86 0c 00
        e 360 96 0d 64
        e 120 86 0d 00
        e 360 96 0d 64
        e 120 86 0d 00
        e 360 96 0d 64
        e 120 86 0d 00
        e 360 96 0c 64
        e 120 86 0c 00
        e 360 96 0d 64
        e 120 86 0d 00
        e 360 96 0d 64
        e 120 86 0d 00
        e 360 96 0d 64
        e 120 86 0d 00
        e 360 96 0c 64
        e 120 86 0c 00
        e 360 96 0d 64
        e 120 86 0d 00
        e 360 96 0d 64
        e 120 86 0d 00
        e 360 96 0d 64
        e 120 86 0d 00
        e 360 96 0c 64
        e 120 86 0c 00
        e 360 96 0d 64
        e 120 86 0d 00
        e 360 96 0d 64
        e 120 86 0d 00
        e 360 96 0d 64
        e 120 86 0d 00
        e 360 96 0c 64
        e 120 86 0c 00
        e 360 96 0d 64
        e 120 86 0d 00
        e 360 96 0d 64
        e 120 86 0d 00
        e 360 96 0d 64
        e 120 86 0d 00
        e 360 96 0c 64
        e 120 86 0c 00
        e 360 96 0d 64
        e 120 86 0d 00
        e 360 96 0d 64
        e 120 86 0d 00
        e 360 96 0d 64
        e 120 86 0d 00
        e 360 96 0c 64
        e 120 86 0c 00
        e 360 96 0d 64
        e 120 86 0d 00
        e 360 96 0d 64
        e 120 86 0d 00
        e 360 96 0d 64
        e 120 86 0d 00
        e 360 96 0c 64
        e 120 86 0c 00
        e 360 96 0d 64
        e 120 86 0d 00
        e 360 96 0d 64
        e 120 86 0d 00
        e 360 96 0d 64
        e 120 86 0d 00
        e 360 96 0c 64
        e 120 86 0c 00
        e 360 96 0d 64
        e 120 86 0d 00
        e 360 96 0d 64
        e 120 86 0d 00
        e 360 96 0d 64
        e 120 86 0d 00
        e 360 96 0c 64
        e 120 86 0c 00
        e 360 96 0d 64
        e 120 86 0d 00
        e 360 96 0d 64
        e 120 86 0d 00
        e 360 96 0d 64
        e 120 86 0d 00
        e 360 96 0c 64
        e 120 86 0c 00
        e 360 96 0d 64
        e 120 86 0d 00
        e 360 96 0d 64
        e 120 86 0d 00
        e 360 96 0d 64
        e 120 86 0d 00
        e 360 96 0c 64
        e 120 86 0c 00
        e 360 96 0d 64
        e 120 86 0d 00
        e 360 96 0d 64
        e 120 86 0d 00
        e 360 96 0d 64
        e 120 86 0d 00
        e 360 96 0c 64
        e 120 86 0c 00
        e 360 96 0d 64
        e 120 86 0d 00
        e 360 96 0d 64
        e 120 86 0d 00
        e 360 96 0d 64
        e 120 86 0d 00
        e 360 96 0c 64
        e 120 86 0c 00
        e 360 96 0d 64
        e 120 86 0d 00
        e 360 96 0d 64
        e 120 86 0d 00
        e 360 96 0d 64
        e 120 86 0d 00
        e 360 96 0c 64
        e 120 86 0c 00
        e 360 96 0d 64
        e 120 86 0d 00
        e 360 96 0d 64
        e 120 86 0d 00
        e 360 96 0d 64
        e 120 86 0d 00
        e 360 96 0c 64
        e 120 86 0c 00
        e 360 96 0d 64
        e 120 86 0d 00
        e 360 96 0d 64
        e 120 86 0d 00
        e 360 96 0d 64
        e 120 86 0d 00
        e 360 96 0c 64
        e 120 86 0c 00
        e 360 96 0d 64
        e 120 86 0d 00
        e 360 96 0d 64
        e 120 86 0d 00
        e 360 96 0d 64
        e 120 86 0d 00
        e 360 96 0c 64
        e 120 86 0c 00
        e 360 96 0d 64
        e 120 86 0d 00
        e 360 96 0d 64
        e 120 86 0d 00
        e 360 96 0d 64
        e 120 86 0d 00
        e 360 96 0c 64
        e 120 86 0c 00
        e 360 96 0d 64
        e 120 86 0d 00
        e 360 96 0d 64
        e 120 86 0d 00
        e 360 96 0d 64
        e 120 86 0d 00
        e 360 96 0c 64
        e 120 86 0c 00
        e 360 96 0d 64
        e 120 86 0d 00
        e 360 96 0d 64
        e 120 86 0d 00
        e 360 96 0d 64
        e 120 86 0d 00
        e 360 96 0c 64
        e 120 86 0c 00
        e 360 96 0d 64
        e 120 86 0d 00
        e 360 96 0d 64
        e 120 86 0d 00
        e 360 96 0d 64
        e 120 86 0d 00
        e 360 96 0c 64
        e 120 86 0c 00
        e 360 96 0d 64
        e 120 86 0d 00
        e 360 96 0d 64
        e 120 86 0d 00
        e 360 96 0d 64
        e 120 86 0d 00
        e 360 96 0c 64
        e 120 86 0c 00
        e 360 96 0d 64
        e 120 86 0d 00
        e 360 96 0d 64
        e 120 86 0d 00
        e 360 96 0d 64
        e 120 86 0d 00
        e 360 96 0c 64
        e 120 86 0c 00
        e 360 96 0d 64
        e 120 86 0d 00
        e 360 96 0d 64
        e 120 86 0d 00
        e 360 96 0d 64
        e 120 86 0d 00
        e 360 96 0c 64
        e 120 86 0c 00
        e 360 96 0d 64
        e 120 86 0d 00
        e 360 96 0d 64
        e 120 86 0d 00
        e 360 96 0d 64
        e 120 86 0d 00
        e 360 96 0c 64
        e 120 86 0c 00
        e 360 96 0d 64
        e 120 86 0d 00
        e 360 96 0d 64
        e 120 86 0d 00
        e 360 96 0d 64
        e 120 86 0d 00
        e 360 96 0c 64
        e 120 86 0c 00
        e 360 96 0d 64
        e 120 86 0d 00
        e 360 96 0d 64
        e 120 86 0d 00
        e 360 96 0d 64
        e 120 86 0d 00
        e 360 96 0c 64
        e 120 86 0c 00
        e 360 96 0d 64
        e 120 86 0d 00
        e 360 96 0d 64
        e 120 86 0d 00
        e 360 96 0d 64
        e 120 86 0d 00
        e 360 96 0c 64
        e 120 86 0c 00
        e 360 96 0d 64
        e 120 86 0d 00
        e 360 96 0d 64
        e 120 86 0d 00
        e 360 96 0d 64
        e 120 86 0d 00
        e 360 96 0c 64
        e 120 86 0c 00
        e 360 96 0d 64
        e 120 86 0d 00
        e 360 96 0d 64
        e 120 86 0d 00
        e 360 96 0d 64
        e 120 86 0d 00
        e 360 96 0c 64
        e 120 86 0c 00
        e 360 96 0d 64
        e 120 86 0d 00
        e 360 96 0d 64
        e 120 86 0d 00
        e 360 96 0d 64
        e 120 86 0d 00
        e 360 96 0c 64
        e 120 86 0c 00
        e 360 96 0d 64
        e 120 86 0d 00
        e 360 96 0d 64
        e 120 86 0d 00
        e 360 96 0d 64
        e 120 86 0d 00
        e 360 96 0c 64
        e 120 86 0c 00
        e 360 96 0d 64
        e 120 86 0d 00
        e 360 96 0d 64
        e 120 86 0d 00
        e 360 96 0d 64
        e 120 86 0d 00
        e 360 96 0c 64
        e 120 86 0c 00
        e 360 96 0d 64
        e 120 86 0d 00
        e 360 96 0d 64
        e 120 86 0d 00
        e 360 96 0d 64
        e 120 86 0d 00
        e 360 96 0c 64
        e 120 86 0c 00
        e 360 96 0d 64
        e 120 86 0d 00
        e 360 96 0d 64
        e 120 86 0d 00
        e 360 96 0d 64
        e 120 86 0d 00
        e 360 96 0c 64
        e 120 86 0c 00
        e 360 96 0d 64
        e 120 86 0d 00
        e 360 96 0d 64
        e 120 86 0d 00
        e 360 96 0d 64
        e 120 86 0d 00
        e 360 96 0c 64
        e 120 86 0c 00
        e 360 96 0d 64
        e 120 86 0d 00
        e 360 96 0d 64
        e 120 86 0d 00
        e 360 96 0d 64
        e 120 86 0d 00
        e 360 96 0c 64
        e 120 86 0c 00
        e 360 96 0d 64
        e 120 86 0d 00
        e 360 96 0d 64
        e 120 86 0d 00
        e 360 96 0d 64
        e 120 86 0d 00
        E 360 b0 7b 00
        GUID {B446E379-9539-4919-8822-9FA2B72DC4B1}
        IGNTEMPO 0 120.00000000 4 4
        SRCCOLOR 9
        VELLANE 132 128 60
        COLORMAP "C:\Program Files\REAPER (x64)\Data\color_maps\rockband_guitarbass.png"
        CFGEDITVIEW -7363.704363 6.487387 61 12 0 0 0
        CFGEDIT 1 1 0 1 1 0 1 1 1 1 1 0.25000000 -8 -8 1544 872 0 0 1 1 0.00000000 0 1 0 0 0.500000 0 0 1.000000 64
        KEYSNAP 0 6 "102030050700" 0 "Pentatonic"
        EVTFILTER 0 -1 -1 -1 -1 0 1 0 0 -1.00000000 -1.00000000
      >
    >
  >
  <TRACK '{2704878C-1AC9-4136-9C88-62F0BA707D0D}'
    NAME "backing"
    PEAKCOL 16576
    BEAT -1
    AUTOMODE 0
    VOLPAN 1.00000000000000 0.00000000000000 -1.00000000000000 -1.00000000000000 1.00000000000000
    MUTESOLO 0 0 0
    IPHASE 0
    ISBUS 0 0
    BUSCOMP 0 0
    SHOWINMIX 1 0.666700 0.500000 1 0.500000 -1 -1 -1
    FREEMODE 0
    SEL 0
    REC 0 0 0 0 0 0 0
    VU 2
    TRACKHEIGHT 0 0
    INQ 0 0 0 0.5000000000 100 0 0 100
    NCHAN 2
    FX 1
    TRACKID {2704878C-1AC9-4136-9C88-62F0BA707D0D}
    PERF 0
    MIDIOUT -1
    MAINSEND 1 0
    <ITEM
      POSITION 0.00000000000000
      SNAPOFFS 0.00000000000000
      LENGTH 173.10513447432763
      LOOP 0
      ALLTAKES 0
      SEL 0
      FADEIN 1 0.000000 0.000000 1 0
      FADEOUT 1 0.000000 0.000000 1 0
      MUTE 0
      IGUID {CCBEE163-C4CE-477F-B914-7B0C89528A2E}
      IID 10
      NAME "backing.wav"
      VOLPAN 1.000000 0.000000 1.000000 -1.000000
      SOFFS 0.00000000000000
      PLAYRATE 1.00000000000000 1 0.00000000000000 -1
      CHANMODE 0
      GUID {0FD6868E-2AF8-44BB-923A-707793A90919}
      <SOURCE WAVE
        FILE "wav\backing.wav"
      >
    >
  >
  <EXTENSIONS
  >
>
