<REAPER_PROJECT 0.1 "4.22/x64"
  RIPPLE 0
  GROUPOVERRIDE 0 0 0
  AUTOXFADE 1
  ENVATTACH 1
  MIXERUIFLAGS 11 48
  PEAKGAIN 1.00000000000000
  FEEDBACK 0
  PANLAW 1.00000000000000
  PROJOFFS 0.00000000000000 0
  MAXPROJLEN 0 600.00000000000000
  GRID 3199 8 1.00000000000000 8 1.00000000000000 0
  TIMEMODE 1 0 -1
  PANMODE 3
  CURSOR 0.00000000000000
  ZOOM 9.66488947651273 0 0
  VZOOMEX 4
  USE_REC_CFG 0
  RECMODE 1
  SMPTESYNC 0 23.976024 100 40 1000 300 0 0.000000 1
  LOOP 1
  LOOPGRAN 0 4.00000000000000
  RECORD_PATH "" ""
  <RECORD_CFG
  >
  <APPLYFX_CFG
  >
  RENDER_FILE "C:\Users\Ruggery\Desktop\HARM2.wav"
  RENDER_FMT 0 1 16000
  RENDER_1X 0
  RENDER_RANGE 2 0.00000000000000 0.00000000000000
  RENDER_RESAMPLE 3 0 1
  RENDER_ADDTOPROJ 0
  RENDER_STEMS 0
  RENDER_DITHER 0
  TIMELOCKMODE 0
  ITEMMIX 0
  DEFPITCHMODE 393216
  TAKELANE 1
  SAMPLERATE 44100 0 0
  <RENDER_CFG
    ZXZhdxAA
  >
  LOCK 1
  <METRONOME 6 2.000000
    VOL 0.250000 0.125000
    FREQ 800 1600 1
    BEATLEN 4
    SAMPLES "" ""
  >
  GLOBAL_AUTO -1
  TEMPO 120.00000000000000 4 4
  PLAYRATE 1.00000000000000 0 0.25000 4.00000
  SELECTION 0.00000000000000 147.78905973205917
  SELECTION2 0.00000000000000 147.78905973205917
  MASTERAUTOMODE 0
  MASTERTRACKHEIGHT 0
  MASTERPEAKCOL 16576
  MASTERMUTESOLO 0
  MASTERTRACKVIEW 1 0.666700 0.500000 0.500000 -1 -1 -1
  MASTERHWOUT 0 0 1.00000000000000 0.00000000000000 0 0 0 -1.00000000000000
  MASTER_NCH 2 2
  MASTER_VOLUME 1.00000000000000 0.00000000000000 -1.00000000000000 -1.00000000000000 1.00000000000000
  MASTER_PANMODE -1
  MASTER_FX 1
  MASTER_SEL 0
  <MASTERPLAYSPEEDENV
    ACT 0
    VIS 0 1 1.000000
    LANEHEIGHT 0 0
    ARM 0
    DEFSHAPE 0 -1 -1
  >
  <TEMPOENVEX
    ACT 1
    VIS 1 0 1.000000
    LANEHEIGHT 0 0
    ARM 0
    DEFSHAPE 1 -1 -1
    PT 0.000000000000 117.3970000000 1 262148
    PT 4.088686558461 112.3055162560 1 262150
    PT 7.294228120174 115.7001414400 1
    PT 12.480047191475 113.6633663366 1
    PT 13.535796320395 115.3606789250 1
    PT 16.656443696559 117.3974540311 1
    PT 18.189696708608 112.3055162659 1
    PT 19.792467489464 116.0396039604 1
    PT 27.548440185710 111.2871287129 1
    PT 28.087586093183 114.6817538897 1
    PT 29.133960044836 109.2503536068 1
    PT 29.683157351931 121.1315417256 1
    PT 30.178486637311 113.3239038190 1
    PT 34.943588983791 118.0763790665 1
    PT 36.468025974688 111.6265912306 1
    PT 37.543038645747 114.6817538897 1
    PT 40.158973524879 115.7001414427 1
    PT 41.196137339059 109.9292786421 1
    PT 41.741942794541 116.0396039604 1
    PT 49.497915490786 115.3606789250 1
    PT 50.018023386814 110.6082036775 1
    PT 51.102933872747 119.0947666195 1
    PT 52.614335297926 113.6633663366 1
    PT 53.670084426845 106.5346534653 1
    PT 54.233281452868 114.6817538897 1 262147
    PT 55.802842380347 116.0396039604 1
    PT 66.661204155091 110.2687411598 1 262148
    PT 68.837704924716 115.3606789250 1 262150
    PT 71.958352300881 113.6633663366 1
    PT 73.014101429801 117.0579915134 1
    PT 74.551800801478 114.3422913720 1
    PT 78.224982394749 114.6817538897 1
    PT 81.364104249707 115.3606789250 1
    PT 86.565183209981 116.3790664781 1
    PT 87.596296481736 114.6817538897 1 262148
    PT 88.642670433389 112.9844413013 1
    PT 90.766856712808 117.3974540311 1
    PT 91.789025387507 116.3790664781 1 262146
    PT 92.820138659262 113.3239038190 1 262148
    PT 94.408506108089 107.2135785007 1
    PT 94.968136714949 116.0396039604 1 262150
    PT 101.172914871945 113.6633663366 1
    PT 102.228664000865 116.7185289958 1
    PT 103.770835595630 110.6082036775 1
    PT 104.313290838597 115.3606789250 1
    PT 107.433938214762 123.8472418670 1
    PT 107.918406008275 114.0028288543 1
    PT 110.023616926389 109.5898161245 1
    PT 110.571113054422 113.3239038190 1
    PT 112.159480503249 114.0028288543 1
    PT 113.738388691834 116.7185289958 1
    PT 115.794617484854 113.6633663366 1
    PT 117.906115742694 116.0396039604 1
    PT 125.145023592523 114.0028288543 1
    PT 129.355445428752 114.0030000000 1 262148
    PT 130.408050887809 117.0579915134 1
    PT 131.433182263290 118.7553041018 1 262147
    PT 132.443663444805 123.1683168317 1
    PT 132.930801708470 116.3790664781 1
    PT 133.961914980225 106.1951909477 1
    PT 134.526912316400 109.5898161245 1
    PT 135.621904572466 125.2050919378 1
    PT 136.101118309475 121.1315417256 1
    PT 136.596447594855 107.2135785007 1 0 1
  >
  <MASTERVOLENV2
    ACT 1
    VIS 1 1 1.000000
    LANEHEIGHT 0 0
    ARM 1
    DEFSHAPE 0 -1 -1
    PT 0.000000 1.000000 0
    PT 144.431276 1.000000 0
    PT 147.789060 0.000000 0
  >
  <PROJBAY
  >
  <TRACK '{187DA894-56C6-45A5-B6E8-ACE32EE4DDA8}'
    NAME "PART DRUMS"
    PEAKCOL 16576
    BEAT -1
    AUTOMODE 0
    VOLPAN 1.00000000000000 0.00000000000000 -1.00000000000000 -1.00000000000000 1.00000000000000
    MUTESOLO 0 0 0
    IPHASE 0
    ISBUS 0 0
    BUSCOMP 0 0
    SHOWINMIX 1 0.666700 0.500000 1 0.500000 -1 -1 -1
    FREEMODE 0
    SEL 0
    REC 0 0 0 0 0 0 0
    VU 2
    TRACKHEIGHT 0 0
    INQ 0 0 0 0.5000000000 100 0 0 100
    NCHAN 2
    FX 1
    TRACKID {187DA894-56C6-45A5-B6E8-ACE32EE4DDA8}
    PERF 0
    MIDIOUT -1
    <MIDINOTENAMES
      0 127 "CYMBAL SWELLS"
      0 126 "DRUM ROLL"
      0 125 "---"
      0 124 "DRUM FILL"
      0 123 "DRUM FILL"
      0 122 "DRUM FILL"
      0 121 "DRUM FILL"
      0 120 "DRUM FILL (use all 5)"
      0 118 "----"
      0 116 "OVERDRIVE"
      0 114 "----"
      0 112 "TOM GEMS PAD 4"
      0 111 "TOM GEMS PAD 3"
      0 110 "TOM GEMS PAD 2"
      0 103 "Solo Marker"
      0 102 "----"
      0 100 "EXPERT Green"
      0 99 "EXPERT Blue"
      0 98 "EXPERT Yellow"
      0 97 "EXPERT Red"
      0 96 "EXPERT Kick"
      0 92 "----"
      0 88 "HARD Green"
      0 87 "HARD Blue"
      0 86 "HARD Yellow"
      0 85 "HARD Red"
      0 84 "HARD Kick"
      0 80 "----"
      0 76 "MEDIUM Green"
      0 75 "MEDIUM Blue"
      0 74 "MEDIUM Yellow"
      0 73 "MEDIUM Red"
      0 72 "MEDIUM Kick"
      0 68 "----"
      0 64 "EASY Green"
      0 63 "EASY Blue"
      0 62 "EASY Yellow"
      0 61 "EASY Red"
      0 60 "EASY Kick"
      0 56 "----"
      0 52 "-- DRUM ANIMATION --"
      0 51 "FLOOR TOM RH"
      0 50 "FLOOR TOM LH"
      0 49 "TOM2 RH"
      0 48 "TOM2 LH"
      0 47 "TOM1 RH"
      0 46 "TOM1 LH"
      0 45 "SOFT CRASH 2 LH"
      0 44 "CRASH 2 LH"
      0 43 "RIDE LH"
      0 42 "RIDE CYM RH"
      0 41 "CRASH2 CHOKE"
      0 40 "CRASH1 CHOKE"
      0 39 "CRASH2 SOFT RH"
      0 38 "CRASH2 HARD RH"
      0 37 "CRASH1 SOFT RH"
      0 36 "CRASH1 HARD RH"
      0 35 "CRASH1 SOFT LH"
      0 34 "CRASH1 HARD LH"
      0 32 "PERCUSSION RH"
      0 31 "HI-HAT RH"
      0 30 "HI-HAT LH"
      0 29 "SOFT SNARE RH"
      0 28 "SOFT SNARE LH"
      0 27 "SNARE RH"
      0 26 "SNARE LH"
      0 25 "HI-HAT OPEN"
      0 24 "KICK RF"
    >
    MAINSEND 1 0
    <FXCHAIN
      WNDRECT 0 43 878 559
      SHOW 0
      LASTSEL 0
      DOCKED 0
      BYPASS 0 0
      <VST "VSTi: RBN Preview (RBN)" "rbprev_vst64.dll" 0 ""
        dnBicu5e7f4AAAAAAgAAAAEAAAAAAAAAAgAAAAAAAAAEAAAAAQAAAA==
        AAAQAAMBqgAAABAAAAA=
      >
      FLOATPOS 0 0 0 0
      FXID {D9528A47-7DDA-462E-BF7D-F6FEEA724A82}
      WAK 0
    >
    <ITEM
      POSITION 0.00000000000000
      SNAPOFFS 0.00000000000000
      LENGTH 147.78905973205840
      LOOP 0
      ALLTAKES 0
      SEL 0
      FADEIN 1 0.000000 0.000000 1 0
      FADEOUT 1 0.000000 0.000000 1 0
      MUTE 0
      IGUID {815EA578-3F54-4671-8323-3FE5A8D33B50}
      IID 7
      NAME "PART DRUMS"
      VOLPAN 1.000000 0.000000 1.000000 -1.000000
      SOFFS 0.00000000000000 0.00000000000000
      PLAYRATE 1.00000000000000 1 0.00000000000000 -1
      CHANMODE 0
      GUID {8D659077-07BC-4801-9E1D-F119D4F80A75}
      <SOURCE MIDI
        HASDATA 1 480 QN
        POOLEDEVTS {03AA1F70-4080-458D-8549-5C42F61BEBCB}
        <X 0 0
          /wNQQVJUIERSVU1T
        >
        <X 120 0
          /wFbbWl4IDAgZHJ1bXMwXQ==
        >
        <X 120 0
          /wFbbWl4IDEgZHJ1bXMwXQ==
        >
        <X 120 0
          /wFbbWl4IDIgZHJ1bXMwXQ==
        >
        <X 120 0
          /wFbbWl4IDMgZHJ1bXMwXQ==
        >
        <X 3360 0
          /wFbcmlkZV9zaWRlX3RydWVd
        >
        <X 0 0
          /wFbcGxheV0=
        >
        E 0 90 1c 60
        E 0 90 1d 60
        E 0 90 3d 60
        E 0 90 3e 60
        E 0 90 49 60
        E 0 90 4a 60
        E 0 90 55 60
        E 0 90 56 60
        E 0 90 61 60
        E 0 90 62 60
        E 0 90 6e 60 -1
        E 120 80 1c 00
        E 0 80 1d 00
        E 0 80 3d 00
        E 0 80 3e 00
        E 0 80 49 00
        E 0 80 4a 00
        E 0 80 55 00
        E 0 80 56 00
        E 0 80 61 00
        E 0 80 62 00
        E 120 90 1d 60
        E 0 90 56 60
        E 0 90 62 60
        E 120 80 1d 00
        E 0 80 56 00
        E 0 80 62 00
        E 120 90 1c 60
        E 0 90 1d 60
        E 0 90 3d 60
        E 0 90 3e 60
        E 0 90 49 60
        E 0 90 4a 60
        E 0 90 55 60
        E 0 90 56 60
        E 0 90 61 60
        E 0 90 62 60
        E 120 80 1c 00
        E 0 80 1d 00
        E 0 80 3d 00
        E 0 80 3e 00
        E 0 80 49 00
        E 0 80 4a 00
        E 0 80 55 00
        E 0 80 56 00
        E 0 80 61 00
        E 0 80 62 00
        E 120 90 1d 60
        E 0 90 56 60
        E 0 90 62 60
        E 120 80 1d 00
        E 0 80 56 00
        E 0 80 62 00
        E 120 90 1c 60
        E 0 90 1d 60
        E 0 90 3d 60
        E 0 90 3e 60
        E 0 90 49 60
        E 0 90 4a 60
        E 0 90 55 60
        E 0 90 56 60
        E 0 90 61 60
        E 0 90 62 60
        E 120 80 1c 00
        E 0 80 1d 00
        E 0 80 3d 00
        E 0 80 3e 00
        E 0 80 49 00
        E 0 80 4a 00
        E 0 80 55 00
        E 0 80 56 00
        E 0 80 61 00
        E 0 80 62 00
        E 120 90 1d 60
        E 0 90 56 60
        E 0 90 62 60
        E 120 80 1d 00
        E 0 80 56 00
        E 0 80 62 00
        E 120 90 1c 60
        E 0 90 1d 60
        E 0 90 3d 60
        E 0 90 3e 60
        E 0 90 49 60
        E 0 90 4a 60
        E 0 90 55 60
        E 0 90 56 60
        E 0 90 61 60
        E 0 90 62 60
        E 120 80 1c 00
        E 0 80 1d 00
        E 0 80 3d 00
        E 0 80 3e 00
        E 0 80 49 00
        E 0 80 4a 00
        E 0 80 55 00
        E 0 80 56 00
        E 0 80 61 00
        E 0 80 62 00
        E 120 90 1d 60
        E 0 90 56 60
        E 0 90 62 60
        E 120 80 1d 00
        E 0 80 56 00
        E 0 80 62 00
        E 120 90 1c 60
        E 0 90 1d 60
        E 0 90 3d 60
        E 0 90 3e 60
        E 0 90 49 60
        E 0 90 4a 60
        E 0 90 55 60
        E 0 90 56 60
        E 0 90 61 60
        E 0 90 62 60
        E 120 80 1c 00
        E 0 80 1d 00
        E 0 80 3d 00
        E 0 80 3e 00
        E 0 80 49 00
        E 0 80 4a 00
        E 0 80 55 00
        E 0 80 56 00
        E 0 80 61 00
        E 0 80 62 00
        E 120 90 1d 60
        E 0 90 56 60
        E 0 90 62 60
        E 120 80 1d 00
        E 0 80 56 00
        E 0 80 62 00
        E 120 90 1c 60
        E 0 90 1d 60
        E 0 90 3d 60
        E 0 90 3e 60
        E 0 90 49 60
        E 0 90 4a 60
        E 0 90 55 60
        E 0 90 56 60
        E 0 90 61 60
        E 0 90 62 60
        E 120 80 1c 00
        E 0 80 1d 00
        E 0 80 3d 00
        E 0 80 3e 00
        E 0 80 49 00
        E 0 80 4a 00
        E 0 80 55 00
        E 0 80 56 00
        E 0 80 61 00
        E 0 80 62 00
        E 120 90 1d 60
        E 0 90 56 60
        E 0 90 62 60
        E 120 80 1d 00
        E 0 80 56 00
        E 0 80 62 00
        E 120 90 1c 60
        E 0 90 1d 60
        E 0 90 3d 60
        E 0 90 3e 60
        E 0 90 49 60
        E 0 90 4a 60
        E 0 90 55 60
        E 0 90 56 60
        E 0 90 61 60
        E 0 90 62 60
        E 120 80 1c 00
        E 0 80 1d 00
        E 0 80 3d 00
        E 0 80 3e 00
        E 0 80 49 00
        E 0 80 4a 00
        E 0 80 55 00
        E 0 80 56 00
        E 0 80 61 00
        E 0 80 62 00
        E 120 90 1d 60
        E 0 90 56 60
        E 0 90 62 60
        E 120 80 1d 00
        E 0 80 56 00
        E 0 80 62 00
        E 120 90 1c 60
        E 0 90 1d 60
        E 0 90 3d 60
        E 0 90 3e 60
        E 0 90 49 60
        E 0 90 4a 60
        E 0 90 55 60
        E 0 90 56 60
        E 0 90 61 60
        E 0 90 62 60
        E 120 80 1c 00
        E 0 80 1d 00
        E 0 80 3d 00
        E 0 80 3e 00
        E 0 80 49 00
        E 0 80 4a 00
        E 0 80 55 00
        E 0 80 56 00
        E 0 80 61 00
        E 0 80 62 00
        E 120 90 1d 60
        E 0 90 56 60
        E 0 90 62 60
        E 120 80 1d 00
        E 0 80 56 00
        E 0 80 62 00
        E 120 90 1c 60
        E 0 90 1d 60
        E 0 90 3d 60
        E 0 90 3e 60
        E 0 90 49 60
        E 0 90 4a 60
        E 0 90 55 60
        E 0 90 56 60
        E 0 90 61 60
        E 0 90 62 60
        E 120 80 1c 00
        E 0 80 1d 00
        E 0 80 3d 00
        E 0 80 3e 00
        E 0 80 49 00
        E 0 80 4a 00
        E 0 80 55 00
        E 0 80 56 00
        E 0 80 61 00
        E 0 80 62 00
        E 120 90 1d 60
        E 0 90 56 60
        E 0 90 62 60
        E 120 80 1d 00
        E 0 80 56 00
        E 0 80 62 00
        E 120 90 1c 60
        E 0 90 1d 60
        E 0 90 3d 60
        E 0 90 3e 60
        E 0 90 49 60
        E 0 90 4a 60
        E 0 90 55 60
        E 0 90 56 60
        E 0 90 61 60
        E 0 90 62 60
        E 120 80 1c 00
        E 0 80 1d 00
        E 0 80 3d 00
        E 0 80 3e 00
        E 0 80 49 00
        E 0 80 4a 00
        E 0 80 55 00
        E 0 80 56 00
        E 0 80 61 00
        E 0 80 62 00
        E 120 90 1d 60
        E 0 90 56 60
        E 0 90 62 60
        E 120 80 1d 00
        E 0 80 56 00
        E 0 80 62 00
        E 120 90 1c 60
        E 0 90 1d 60
        E 0 90 3d 60
        E 0 90 3e 60
        E 0 90 49 60
        E 0 90 4a 60
        E 0 90 55 60
        E 0 90 56 60
        E 0 90 61 60
        E 0 90 62 60
        E 0 90 78 60
        E 0 90 79 60
        E 0 90 7a 60
        E 0 90 7b 60
        E 0 90 7c 60
        E 120 80 1c 00
        E 0 80 1d 00
        E 0 80 3d 00
        E 0 80 3e 00
        E 0 80 49 00
        E 0 80 4a 00
        E 0 80 55 00
        E 0 80 56 00
        E 0 80 61 00
        E 0 80 62 00
        E 120 90 1d 60
        E 0 90 56 60
        E 0 90 62 60
        E 120 80 1d 00
        E 0 80 56 00
        E 0 80 62 00
        E 120 90 1c 60
        E 0 90 1d 60
        E 0 90 3d 60
        E 0 90 3e 60
        E 0 90 49 60
        E 0 90 4a 60
        E 0 90 55 60
        E 0 90 56 60
        E 0 90 61 60
        E 0 90 62 60
        E 120 80 1c 00
        E 0 80 1d 00
        E 0 80 3d 00
        E 0 80 3e 00
        E 0 80 49 00
        E 0 80 4a 00
        E 0 80 55 00
        E 0 80 56 00
        E 0 80 61 00
        E 0 80 62 00
        E 120 90 1d 60
        E 0 90 56 60
        E 0 90 62 60
        E 120 80 1d 00
        E 0 80 56 00
        E 0 80 62 00
        E 120 80 78 00 -1
        E 0 80 79 00
        E 0 80 7a 00
        E 0 80 7b 00
        E 0 80 7c 00
        E 0 90 1c 60
        E 0 90 1d 60
        E 0 90 3d 60
        E 0 90 3e 60
        E 0 90 49 60
        E 0 90 4a 60
        E 0 90 55 60
        E 0 90 56 60
        E 0 90 61 60
        E 0 90 62 60
        E 120 80 1c 00
        E 0 80 1d 00
        E 0 80 3d 00
        E 0 80 3e 00
        E 0 80 49 00
        E 0 80 4a 00
        E 0 80 55 00
        E 0 80 56 00
        E 0 80 61 00
        E 0 80 62 00
        E 120 90 1d 60
        E 0 90 56 60
        E 0 90 62 60
        E 120 80 1d 00
        E 0 80 56 00
        E 0 80 62 00
        E 120 90 1c 60
        E 0 90 1d 60
        E 0 90 3d 60
        E 0 90 3e 60
        E 0 90 49 60
        E 0 90 4a 60
        E 0 90 55 60
        E 0 90 56 60
        E 0 90 61 60
        E 0 90 62 60
        E 120 80 1c 00
        E 0 80 1d 00
        E 0 80 3d 00
        E 0 80 3e 00
        E 0 80 49 00
        E 0 80 4a 00
        E 0 80 55 00
        E 0 80 56 00
        E 0 80 61 00
        E 0 80 62 00
        E 120 90 1d 60
        E 0 90 56 60
        E 0 90 62 60
        E 120 80 1d 00
        E 0 80 56 00
        E 0 80 62 00
        E 120 90 1c 60
        E 0 90 1d 60
        E 0 90 3d 60
        E 0 90 3e 60
        E 0 90 49 60
        E 0 90 4a 60
        E 0 90 55 60
        E 0 90 56 60
        E 0 90 61 60
        E 0 90 62 60
        E 120 80 1c 00
        E 0 80 1d 00
        E 0 80 3d 00
        E 0 80 3e 00
        E 0 80 49 00
        E 0 80 4a 00
        E 0 80 55 00
        E 0 80 56 00
        E 0 80 61 00
        E 0 80 62 00
        E 120 90 1d 60
        E 0 90 56 60
        E 0 90 62 60
        E 120 80 1d 00
        E 0 80 56 00
        E 0 80 62 00
        E 120 90 1c 60
        E 0 90 1d 60
        E 0 90 3d 60
        E 0 90 3e 60
        E 0 90 49 60
        E 0 90 4a 60
        E 0 90 55 60
        E 0 90 56 60
        E 0 90 61 60
        E 0 90 62 60
        E 120 80 1c 00
        E 0 80 1d 00
        E 0 80 3d 00
        E 0 80 3e 00
        E 0 80 49 00
        E 0 80 4a 00
        E 0 80 55 00
        E 0 80 56 00
        E 0 80 61 00
        E 0 80 62 00
        E 120 90 1d 60
        E 0 90 56 60
        E 0 90 62 60
        E 120 80 1d 00
        E 0 80 56 00
        E 0 80 62 00
        E 120 90 1c 60
        E 0 90 1d 60
        E 0 90 3d 60
        E 0 90 3e 60
        E 0 90 49 60
        E 0 90 4a 60
        E 0 90 55 60
        E 0 90 56 60
        E 0 90 61 60
        E 0 90 62 60
        E 120 80 1c 00
        E 0 80 1d 00
        E 0 80 3d 00
        E 0 80 3e 00
        E 0 80 49 00
        E 0 80 4a 00
        E 0 80 55 00
        E 0 80 56 00
        E 0 80 61 00
        E 0 80 62 00
        E 120 90 1d 60
        E 0 90 56 60
        E 0 90 62 60
        E 120 80 1d 00
        E 0 80 56 00
        E 0 80 62 00
        E 120 90 1c 60
        E 0 90 1d 60
        E 0 90 3d 60
        E 0 90 3e 60
        E 0 90 49 60
        E 0 90 4a 60
        E 0 90 55 60
        E 0 90 56 60
        E 0 90 61 60
        E 0 90 62 60
        E 120 80 1c 00
        E 0 80 1d 00
        E 0 80 3d 00
        E 0 80 3e 00
        E 0 80 49 00
        E 0 80 4a 00
        E 0 80 55 00
        E 0 80 56 00
        E 0 80 61 00
        E 0 80 62 00
        E 120 90 1d 60
        E 0 90 56 60
        E 0 90 62 60
        E 120 80 1d 00
        E 0 80 56 00
        E 0 80 62 00
        E 120 90 1c 60
        E 0 90 1d 60
        E 0 90 3d 60
        E 0 90 3e 60
        E 0 90 49 60
        E 0 90 4a 60
        E 0 90 55 60
        E 0 90 56 60
        E 0 90 61 60
        E 0 90 62 60
        E 120 80 1c 00
        E 0 80 1d 00
        E 0 80 3d 00
        E 0 80 3e 00
        E 0 80 49 00
        E 0 80 4a 00
        E 0 80 55 00
        E 0 80 56 00
        E 0 80 61 00
        E 0 80 62 00
        E 120 90 1d 60
        E 0 90 56 60
        E 0 90 62 60
        E 120 80 1d 00
        E 0 80 56 00
        E 0 80 62 00
        E 120 90 1c 60
        E 0 90 1d 60
        E 0 90 3d 60
        E 0 90 3e 60
        E 0 90 49 60
        E 0 90 4a 60
        E 0 90 55 60
        E 0 90 56 60
        E 0 90 61 60
        E 0 90 62 60
        E 120 80 1c 00
        E 0 80 1d 00
        E 0 80 3d 00
        E 0 80 3e 00
        E 0 80 49 00
        E 0 80 4a 00
        E 0 80 55 00
        E 0 80 56 00
        E 0 80 61 00
        E 0 80 62 00
        E 120 90 1d 60
        E 0 90 56 60
        E 0 90 62 60
        E 120 80 1d 00
        E 0 80 56 00
        E 0 80 62 00
        E 120 90 1c 60
        E 0 90 1d 60
        E 0 90 3d 60
        E 0 90 3e 60
        E 0 90 49 60
        E 0 90 4a 60
        E 0 90 55 60
        E 0 90 56 60
        E 0 90 61 60
        E 0 90 62 60
        E 120 80 1c 00
        E 0 80 1d 00
        E 0 80 3d 00
        E 0 80 3e 00
        E 0 80 49 00
        E 0 80 4a 00
        E 0 80 55 00
        E 0 80 56 00
        E 0 80 61 00
        E 0 80 62 00
        E 120 90 1d 60
        E 0 90 56 60
        E 0 90 62 60
        E 120 80 1d 00
        E 0 80 56 00
        E 0 80 62 00
        E 120 90 1c 60
        E 0 90 1d 60
        E 0 90 3d 60
        E 0 90 3e 60
        E 0 90 49 60
        E 0 90 4a 60
        E 0 90 55 60
        E 0 90 56 60
        E 0 90 61 60
        E 0 90 62 60
        E 120 80 1c 00
        E 0 80 1d 00
        E 0 80 3d 00
        E 0 80 3e 00
        E 0 80 49 00
        E 0 80 4a 00
        E 0 80 55 00
        E 0 80 56 00
        E 0 80 61 00
        E 0 80 62 00
        E 120 90 1d 60
        E 0 90 56 60
        E 0 90 62 60
        E 120 80 1d 00
        E 0 80 56 00
        E 0 80 62 00
        E 120 90 1c 60
        E 0 90 1d 60
        E 0 90 3d 60
        E 0 90 3e 60
        E 0 90 49 60
        E 0 90 4a 60
        E 0 90 55 60
        E 0 90 56 60
        E 0 90 61 60
        E 0 90 62 60
        E 0 90 78 60
        E 0 90 79 60
        E 0 90 7a 60
        E 0 90 7b 60
        E 0 90 7c 60
        E 120 80 1c 00
        E 0 80 1d 00
        E 0 80 3d 00
        E 0 80 3e 00
        E 0 80 49 00
        E 0 80 4a 00
        E 0 80 55 00
        E 0 80 56 00
        E 0 80 61 00
        E 0 80 62 00
        E 120 90 1d 60
        E 0 90 56 60
        E 0 90 62 60
        E 120 80 1d 00
        E 0 80 56 00
        E 0 80 62 00
        E 120 90 1c 60
        E 0 90 1d 60
        E 0 90 3d 60
        E 0 90 3e 60
        E 0 90 49 60
        E 0 90 4a 60
        E 0 90 55 60
        E 0 90 56 60
        E 0 90 61 60
        E 0 90 62 60
        E 120 80 1c 00
        E 0 80 1d 00
        E 0 80 3d 00
        E 0 80 3e 00
        E 0 80 49 00
        E 0 80 4a 00
        E 0 80 55 00
        E 0 80 56 00
        E 0 80 61 00
        E 0 80 62 00
        E 120 90 1d 60
        E 0 90 56 60
        E 0 90 62 60
        E 120 80 1d 00
        E 0 80 56 00
        E 0 80 62 00
        E 120 80 78 00
        E 0 80 79 00
        E 0 80 7a 00
        E 0 80 7b 00
        E 0 80 7c 00
        E 0 90 1a 60
        E 0 90 1d 60
        E 0 90 3d 60
        E 0 90 3e 60
        E 0 90 49 60
        E 0 90 4a 60
        E 0 90 55 60
        E 0 90 56 60
        E 0 90 61 60
        E 0 90 62 60
        E 120 80 1a 00
        E 0 80 1d 00
        E 0 80 3d 00
        E 0 80 3e 00
        E 0 80 49 00
        E 0 80 4a 00
        E 0 80 55 00
        E 0 80 56 00
        E 0 80 61 00
        E 0 80 62 00
        E 120 90 18 60
        E 0 90 1d 60
        E 0 90 54 60
        E 0 90 56 60
        E 0 90 60 60
        E 0 90 62 60
        E 120 80 18 00
        E 0 80 1d 00
        E 0 80 54 00
        E 0 80 56 00
        E 0 80 60 00
        E 0 80 62 00
        E 120 90 18 60
        E 0 90 3e 60 1
        E 0 90 4a 60 1
        E 0 90 54 60
        E 0 90 56 60 1
        E 0 90 60 60
        E 0 90 62 60 1
        E 1 90 1d 60
        E 119 80 18 00
        E 0 80 3e 00 1
        E 0 80 4a 00 1
        E 0 80 54 00
        E 0 80 56 00 1
        E 0 80 60 00
        E 0 80 62 00 1
        E 1 80 1d 00
        E 119 90 1d 60
        E 0 90 56 60
        E 0 90 62 60
        E 120 80 1d 00
        E 0 80 56 00
        E 0 80 62 00
        E 120 90 1a 60
        E 0 90 1d 60
        E 0 90 3d 60
        E 0 90 3e 60
        E 0 90 49 60
        E 0 90 4a 60
        E 0 90 55 60
        E 0 90 56 60
        E 0 90 61 60
        E 0 90 62 60
        E 120 80 1a 00
        E 0 80 1d 00
        E 0 80 3d 00
        E 0 80 3e 00
        E 0 80 49 00
        E 0 80 4a 00
        E 0 80 55 00
        E 0 80 56 00
        E 0 80 61 00
        E 0 80 62 00
        E 120 90 18 60
        E 0 90 1d 60
        E 0 90 54 60
        E 0 90 56 60
        E 0 90 60 60
        E 0 90 62 60
        E 120 80 18 00
        E 0 80 1d 00
        E 0 80 54 00
        E 0 80 56 00
        E 0 80 60 00
        E 0 80 62 00
        E 120 90 18 60
        E 0 90 3e 60 1
        E 0 90 4a 60 1
        E 0 90 54 60
        E 0 90 56 60 1
        E 0 90 60 60
        E 0 90 62 60 1
        E 1 90 1d 60
        E 119 80 18 00
        E 0 80 3e 00 1
        E 0 80 4a 00 1
        E 0 80 54 00
        E 0 80 56 00 1
        E 0 80 60 00
        E 0 80 62 00 1
        E 1 80 1d 00
        E 118 90 1d 60
        E 1 90 56 60 -1
        E 0 90 62 60 -1
        E 119 80 1d 00
        E 1 80 56 00 -1
        E 0 80 62 00 -1
        E 120 90 1a 60
        E 0 90 1d 60
        E 0 90 3d 60
        E 0 90 3e 60
        E 0 90 49 60
        E 0 90 4a 60
        E 0 90 55 60
        E 0 90 56 60
        E 0 90 61 60
        E 0 90 62 60
        E 120 80 1a 00
        E 0 80 1d 00
        E 0 80 3d 00
        E 0 80 3e 00
        E 0 80 49 00
        E 0 80 4a 00
        E 0 80 55 00
        E 0 80 56 00
        E 0 80 61 00
        E 0 80 62 00
        E 120 90 18 60
        E 0 90 1d 60
        E 0 90 54 60
        E 0 90 56 60
        E 0 90 60 60
        E 0 90 62 60
        E 120 80 18 00
        E 0 80 1d 00
        E 0 80 54 00
        E 0 80 56 00
        E 0 80 60 00
        E 0 80 62 00
        E 120 90 18 60
        E 0 90 3e 60 1
        E 0 90 4a 60 1
        E 0 90 54 60
        E 0 90 56 60 1
        E 0 90 60 60
        E 0 90 62 60 1
        E 1 90 1d 60
        E 119 80 18 00
        E 0 80 3e 00 1
        E 0 80 4a 00 1
        E 0 80 54 00
        E 0 80 56 00 1
        E 0 80 60 00
        E 0 80 62 00 1
        E 1 80 1d 00
        E 118 90 1d 60
        E 1 90 56 60 -1
        E 0 90 62 60 -1
        E 119 80 1d 00
        E 1 80 56 00 -1
        E 0 80 62 00 -1
        E 120 90 1a 60
        E 0 90 1d 60
        E 0 90 3d 60
        E 0 90 3e 60
        E 0 90 49 60
        E 0 90 4a 60
        E 0 90 55 60
        E 0 90 56 60
        E 0 90 61 60
        E 0 90 62 60
        E 120 80 1a 00
        E 0 80 1d 00
        E 0 80 3d 00
        E 0 80 3e 00
        E 0 80 49 00
        E 0 80 4a 00
        E 0 80 55 00
        E 0 80 56 00
        E 0 80 61 00
        E 0 80 62 00
        E 120 90 18 60
        E 0 90 1d 60
        E 0 90 54 60
        E 0 90 56 60
        E 0 90 60 60
        E 0 90 62 60
        E 120 80 18 00
        E 0 80 1d 00
        E 0 80 54 00
        E 0 80 56 00
        E 0 80 60 00
        E 0 80 62 00
        E 120 90 18 60
        E 0 90 3e 60 1
        E 0 90 4a 60 1
        E 0 90 54 60
        E 0 90 56 60 1
        E 0 90 60 60
        E 0 90 62 60 1
        E 1 90 1d 60
        E 119 80 18 00
        E 0 80 3e 00 1
        E 0 80 4a 00 1
        E 0 80 54 00
        E 0 80 56 00 1
        E 0 80 60 00
        E 0 80 62 00 1
        E 1 80 1d 00
        E 118 90 1d 60
        E 1 90 56 60 -1
        E 0 90 62 60 -1
        E 119 80 1d 00
        E 1 80 56 00 -1
        E 0 80 62 00 -1
        E 120 90 1a 60
        E 0 90 1d 60
        E 0 90 3d 60
        E 0 90 3e 60
        E 0 90 49 60
        E 0 90 4a 60
        E 0 90 55 60
        E 0 90 56 60
        E 0 90 61 60
        E 0 90 62 60
        E 120 80 1a 00
        E 0 80 1d 00
        E 0 80 3d 00
        E 0 80 3e 00
        E 0 80 49 00
        E 0 80 4a 00
        E 0 80 55 00
        E 0 80 56 00
        E 0 80 61 00
        E 0 80 62 00
        E 120 90 18 60
        E 0 90 1d 60
        E 0 90 54 60
        E 0 90 56 60
        E 0 90 60 60
        E 0 90 62 60
        E 120 80 18 00
        E 0 80 1d 00
        E 0 80 54 00
        E 0 80 56 00
        E 0 80 60 00
        E 0 80 62 00
        E 120 90 18 60
        E 0 90 3e 60 1
        E 0 90 4a 60 1
        E 0 90 54 60
        E 0 90 56 60 1
        E 0 90 60 60
        E 0 90 62 60 1
        E 1 90 1d 60
        E 119 80 18 00
        E 0 80 3e 00 1
        E 0 80 4a 00 1
        E 0 80 54 00
        E 0 80 56 00 1
        E 0 80 60 00
        E 0 80 62 00 1
        E 1 80 1d 00
        E 118 90 1d 60
        E 1 90 56 60 -1
        E 0 90 62 60 -1
        E 119 80 1d 00
        E 1 80 56 00 -1
        E 0 80 62 00 -1
        E 120 90 1a 60
        E 0 90 1d 60
        E 0 90 3d 60
        E 0 90 3e 60
        E 0 90 49 60
        E 0 90 4a 60
        E 0 90 55 60
        E 0 90 56 60
        E 0 90 61 60
        E 0 90 62 60
        E 0 90 78 60
        E 0 90 79 60
        E 0 90 7a 60
        E 0 90 7b 60
        E 0 90 7c 60
        E 120 80 1a 00
        E 0 80 1d 00
        E 0 80 3d 00
        E 0 80 3e 00
        E 0 80 49 00
        E 0 80 4a 00
        E 0 80 55 00
        E 0 80 56 00
        E 0 80 61 00
        E 0 80 62 00
        E 120 90 18 60
        E 0 90 1d 60
        E 0 90 54 60
        E 0 90 56 60
        E 0 90 60 60
        E 0 90 62 60
        E 120 80 18 00
        E 0 80 1d 00
        E 0 80 54 00
        E 0 80 56 00
        E 0 80 60 00
        E 0 80 62 00
        E 120 90 18 60
        E 0 90 3e 60 1
        E 0 90 4a 60 1
        E 0 90 54 60
        E 0 90 56 60 1
        E 0 90 60 60
        E 0 90 62 60 1
        E 1 90 1d 60
        E 119 80 18 00
        E 0 80 3e 00 1
        E 0 80 4a 00 1
        E 0 80 54 00
        E 0 80 56 00 1
        E 0 80 60 00
        E 0 80 62 00 1
        E 1 80 1d 00
        E 118 90 1d 60
        E 1 90 56 60 -1
        E 0 90 62 60 -1
        E 119 80 1d 00
        E 1 80 56 00 -1
        E 0 80 62 00 -1
        E 120 80 78 00 -1
        E 0 80 79 00
        E 0 80 7a 00
        E 0 80 7b 00
        E 0 80 7c 00
        E 0 90 1a 60
        E 0 90 1d 60
        E 0 90 3d 60
        E 0 90 3e 60
        E 0 90 49 60
        E 0 90 4a 60
        E 0 90 55 60
        E 0 90 56 60
        E 0 90 61 60
        E 0 90 62 60
        E 120 80 1a 00
        E 0 80 1d 00
        E 0 80 3d 00
        E 0 80 3e 00
        E 0 80 49 00
        E 0 80 4a 00
        E 0 80 55 00
        E 0 80 56 00
        E 0 80 61 00
        E 0 80 62 00
        E 120 90 18 60
        E 0 90 1d 60
        E 0 90 54 60
        E 0 90 56 60
        E 0 90 60 60
        E 0 90 62 60
        E 120 80 18 00
        E 0 80 1d 00
        E 0 80 54 00
        E 0 80 56 00
        E 0 80 60 00
        E 0 80 62 00
        E 120 90 18 60
        E 0 90 3e 60 1
        E 0 90 4a 60 1
        E 0 90 54 60
        E 0 90 56 60 1
        E 0 90 60 60
        E 0 90 62 60 1
        E 1 90 1d 60
        E 119 80 18 00
        E 0 80 3e 00 1
        E 0 80 4a 00 1
        E 0 80 54 00
        E 0 80 56 00 1
        E 0 80 60 00
        E 0 80 62 00 1
        E 1 80 1d 00
        E 118 90 1d 60
        E 1 90 56 60 -1
        E 0 90 62 60 -1
        E 119 80 1d 00
        E 1 80 56 00 -1
        E 0 80 62 00 -1
        E 120 90 1a 60
        E 0 90 1d 60
        E 0 90 3d 60
        E 0 90 3e 60
        E 0 90 49 60
        E 0 90 4a 60
        E 0 90 55 60
        E 0 90 56 60
        E 0 90 61 60
        E 0 90 62 60
        E 120 80 1a 00
        E 0 80 1d 00
        E 0 80 3d 00
        E 0 80 3e 00
        E 0 80 49 00
        E 0 80 4a 00
        E 0 80 55 00
        E 0 80 56 00
        E 0 80 61 00
        E 0 80 62 00
        E 120 90 18 60
        E 0 90 1d 60
        E 0 90 54 60
        E 0 90 56 60
        E 0 90 60 60
        E 0 90 62 60
        E 120 80 18 00
        E 0 80 1d 00
        E 0 80 54 00
        E 0 80 56 00
        E 0 80 60 00
        E 0 80 62 00
        E 120 90 18 60
        E 0 90 3e 60 1
        E 0 90 4a 60 1
        E 0 90 54 60
        E 0 90 56 60 1
        E 0 90 60 60
        E 0 90 62 60 1
        E 1 90 1d 60
        E 119 80 18 00
        E 0 80 3e 00 1
        E 0 80 4a 00 1
        E 0 80 54 00
        E 0 80 56 00 1
        E 0 80 60 00
        E 0 80 62 00 1
        E 1 80 1d 00
        E 118 90 1d 60
        E 1 90 56 60 -1
        E 0 90 62 60 -1
        E 119 80 1d 00
        E 1 80 56 00 -1
        E 0 80 62 00 -1
        E 120 90 1a 60
        E 0 90 1d 60
        E 0 90 3d 60
        E 0 90 3e 60
        E 0 90 49 60
        E 0 90 4a 60
        E 0 90 55 60
        E 0 90 56 60
        E 0 90 61 60
        E 0 90 62 60
        E 120 80 1a 00
        E 0 80 1d 00
        E 0 80 3d 00
        E 0 80 3e 00
        E 0 80 49 00
        E 0 80 4a 00
        E 0 80 55 00
        E 0 80 56 00
        E 0 80 61 00
        E 0 80 62 00
        E 120 90 18 60
        E 0 90 1d 60
        E 0 90 54 60
        E 0 90 56 60
        E 0 90 60 60
        E 0 90 62 60
        E 120 80 18 00
        E 0 80 1d 00
        E 0 80 54 00
        E 0 80 56 00
        E 0 80 60 00
        E 0 80 62 00
        E 120 90 18 60
        E 0 90 3e 60 1
        E 0 90 4a 60 1
        E 0 90 54 60
        E 0 90 56 60 1
        E 0 90 60 60
        E 0 90 62 60 1
        E 1 90 1d 60
        E 119 80 18 00
        E 0 80 3e 00 1
        E 0 80 4a 00 1
        E 0 80 54 00
        E 0 80 56 00 1
        E 0 80 60 00
        E 0 80 62 00 1
        E 1 80 1d 00
        E 118 90 1d 60
        E 1 90 56 60 -1
        E 0 90 62 60 -1
        E 119 80 1d 00
        E 1 80 56 00 -1
        E 0 80 62 00 -1
        E 120 90 1a 60
        E 0 90 1d 60
        E 0 90 3d 60
        E 0 90 3e 60
        E 0 90 49 60
        E 0 90 4a 60
        E 0 90 55 60
        E 0 90 56 60
        E 0 90 61 60
        E 0 90 62 60
        E 120 80 1a 00
        E 0 80 1d 00
        E 0 80 3d 00
        E 0 80 3e 00
        E 0 80 49 00
        E 0 80 4a 00
        E 0 80 55 00
        E 0 80 56 00
        E 0 80 61 00
        E 0 80 62 00
        E 120 90 18 60
        E 0 90 1d 60
        E 0 90 54 60
        E 0 90 56 60
        E 0 90 60 60
        E 0 90 62 60
        E 120 80 18 00
        E 0 80 1d 00
        E 0 80 54 00
        E 0 80 56 00
        E 0 80 60 00
        E 0 80 62 00
        E 120 90 18 60
        E 0 90 3e 60 1
        E 0 90 4a 60 1
        E 0 90 54 60
        E 0 90 56 60 1
        E 0 90 60 60
        E 0 90 62 60 1
        E 1 90 1d 60
        E 119 80 18 00
        E 0 80 3e 00 1
        E 0 80 4a 00 1
        E 0 80 54 00
        E 0 80 56 00 1
        E 0 80 60 00
        E 0 80 62 00 1
        E 1 80 1d 00
        E 118 90 1d 60
        E 1 90 56 60 -1
        E 0 90 62 60 -1
        E 119 80 1d 00
        E 1 80 56 00 -1
        E 0 80 62 00 -1
        E 120 90 1a 60
        E 0 90 1d 60
        E 0 90 3d 60
        E 0 90 3e 60
        E 0 90 49 60
        E 0 90 4a 60
        E 0 90 55 60
        E 0 90 56 60
        E 0 90 61 60
        E 0 90 62 60
        E 120 80 1a 00
        E 0 80 1d 00
        E 0 80 3d 00
        E 0 80 3e 00
        E 0 80 49 00
        E 0 80 4a 00
        E 0 80 55 00
        E 0 80 56 00
        E 0 80 61 00
        E 0 80 62 00
        E 120 90 18 60
        E 0 90 1d 60
        E 0 90 54 60
        E 0 90 56 60
        E 0 90 60 60
        E 0 90 62 60
        E 120 80 18 00
        E 0 80 1d 00
        E 0 80 54 00
        E 0 80 56 00
        E 0 80 60 00
        E 0 80 62 00
        E 120 90 18 60
        E 0 90 3e 60 1
        E 0 90 4a 60 1
        E 0 90 54 60
        E 0 90 56 60 1
        E 0 90 60 60
        E 0 90 62 60 1
        E 0 90 74 60
        E 1 90 1d 60
        E 119 80 18 00
        E 0 80 3e 00 1
        E 0 80 4a 00 1
        E 0 80 54 00
        E 0 80 56 00 1
        E 0 80 60 00
        E 0 80 62 00 1
        E 1 80 1d 00
        E 119 80 6e 00
        E 240 90 18 60
        E 0 90 25 60
        E 0 90 40 60
        E 0 90 48 60
        E 0 90 4c 60
        E 0 90 54 60
        E 0 90 58 60
        E 0 90 60 60
        E 0 90 64 60
        E 120 80 18 00
        E 0 80 25 00
        E 0 80 40 00
        E 0 80 48 00
        E 0 80 4c 00
        E 0 80 54 00
        E 0 80 58 00
        E 0 80 60 00
        E 0 80 64 00
        E 840 90 18 60
        E 0 90 24 60
        E 0 90 40 60
        E 0 90 48 60
        E 0 90 4c 60
        E 0 90 54 60
        E 0 90 58 60
        E 0 90 60 60
        E 0 90 64 60
        E 120 80 74 00
        E 0 80 18 00
        E 0 80 24 00
        E 0 80 40 00
        E 0 80 48 00
        E 0 80 4c 00
        E 0 80 54 00
        E 0 80 58 00
        E 0 80 60 00
        E 0 80 64 00
        E 120 90 19 60
        E 240 80 19 00
        E 0 90 2a 60
        E 0 90 3f 60
        E 0 90 4b 60
        E 0 90 57 60
        E 0 90 63 60
        E 120 80 2a 00
        E 0 80 3f 00
        E 0 80 4b 00
        E 0 80 57 00
        E 0 80 63 00
        E 120 90 19 60
        E 240 80 19 00
        E 0 90 1a 60
        E 0 90 2a 60
        E 0 90 3d 60
        E 0 90 3f 60
        E 0 90 49 60
        E 0 90 4b 60
        E 0 90 55 60
        E 0 90 57 60
        E 0 90 61 60
        E 0 90 63 60
        E 120 80 1a 00
        E 0 80 2a 00
        E 0 80 3d 00
        E 0 80 3f 00
        E 0 80 49 00
        E 0 80 4b 00
        E 0 80 55 00
        E 0 80 57 00
        E 0 80 61 00
        E 0 80 63 00
        E 120 90 19 60
        E 240 80 19 00
        E 0 90 2a 60
        E 0 90 3f 60
        E 0 90 4b 60
        E 0 90 57 60
        E 0 90 63 60
        E 120 80 2a 00
        E 0 80 3f 00
        E 0 80 4b 00
        E 0 80 57 00
        E 0 80 63 00
        E 120 90 19 60
        E 80 90 1c 60
        E 0 90 61 60
        E 80 80 1c 00
        E 0 80 61 00
        E 0 90 1c 60
        E 0 90 61 60
        E 80 80 19 00
        E 0 80 1c 00
        E 0 80 61 00
        E 0 90 18 60
        E 0 90 2a 60
        E 0 90 3f 60
        E 0 90 48 60
        E 0 90 4b 60
        E 0 90 54 60
        E 0 90 57 60
        E 0 90 60 60
        E 0 90 63 60
        E 120 80 18 00
        E 0 80 2a 00
        E 0 80 3f 00
        E 0 80 48 00
        E 0 80 4b 00
        E 0 80 54 00
        E 0 80 57 00
        E 0 80 60 00
        E 0 80 63 00
        E 120 90 19 60
        E 240 80 19 00
        E 0 90 2a 60
        E 0 90 3f 60
        E 0 90 4b 60
        E 0 90 57 60
        E 0 90 63 60
        E 120 80 2a 00
        E 0 80 3f 00
        E 0 80 4b 00
        E 0 80 57 00
        E 0 80 63 00
        E 120 90 19 60
        E 240 80 19 00
        E 0 90 18 60
        E 0 90 2a 60
        E 0 90 3f 60
        E 0 90 48 60
        E 0 90 4b 60
        E 0 90 54 60
        E 0 90 57 60
        E 0 90 60 60
        E 0 90 63 60
        E 120 80 18 00
        E 0 80 2a 00
        E 0 80 3f 00
        E 0 80 48 00
        E 0 80 4b 00
        E 0 80 54 00
        E 0 80 57 00
        E 0 80 60 00
        E 0 80 63 00
        E 120 90 19 60
        E 240 80 19 00
        E 0 90 2a 60
        E 0 90 3f 60
        E 0 90 4b 60
        E 0 90 57 60
        E 0 90 63 60
        E 120 80 2a 00
        E 0 80 3f 00
        E 0 80 4b 00
        E 0 80 57 00
        E 0 80 63 00
        E 120 90 19 60
        E 240 80 19 00
        E 0 90 1a 60
        E 0 90 2a 60
        E 0 90 3d 60
        E 0 90 3f 60
        E 0 90 49 60
        E 0 90 4b 60
        E 0 90 55 60
        E 0 90 57 60
        E 0 90 61 60
        E 0 90 63 60
        E 120 80 1a 00
        E 0 80 2a 00
        E 0 80 3d 00
        E 0 80 3f 00
        E 0 80 49 00
        E 0 80 4b 00
        E 0 80 55 00
        E 0 80 57 00
        E 0 80 61 00
        E 0 80 63 00
        E 120 90 19 60
        E 240 80 19 00
        E 0 90 2a 60
        E 0 90 3f 60
        E 0 90 4b 60
        E 0 90 57 60
        E 0 90 63 60
        E 120 80 2a 00
        E 0 80 3f 00
        E 0 80 4b 00
        E 0 80 57 00
        E 0 80 63 00
        E 120 90 19 60
        E 80 90 1c 60
        E 0 90 61 60
        E 80 80 1c 00
        E 0 80 61 00
        E 0 90 1c 60
        E 0 90 61 60
        E 80 80 19 00
        E 0 80 1c 00
        E 0 80 61 00
        E 0 90 18 60
        E 0 90 2a 60
        E 0 90 3f 60
        E 0 90 48 60
        E 0 90 4b 60
        E 0 90 54 60
        E 0 90 57 60
        E 0 90 60 60
        E 0 90 63 60
        E 0 90 78 60
        E 0 90 79 60
        E 0 90 7a 60
        E 0 90 7b 60
        E 0 90 7c 60
        E 120 80 18 00
        E 0 80 2a 00
        E 0 80 3f 00
        E 0 80 48 00
        E 0 80 4b 00
        E 0 80 54 00
        E 0 80 57 00
        E 0 80 60 00
        E 0 80 63 00
        E 120 90 19 60
        E 240 80 19 00
        E 0 90 2a 60
        E 0 90 3f 60
        E 0 90 4b 60
        E 0 90 57 60
        E 0 90 63 60
        E 120 80 2a 00
        E 0 80 3f 00
        E 0 80 4b 00
        E 0 80 57 00
        E 0 80 63 00
        E 120 90 19 60
        E 240 80 78 00 -1
        E 0 80 79 00
        E 0 80 7a 00
        E 0 80 7b 00
        E 0 80 7c 00
        E 0 80 19 00
        E 0 90 18 60
        E 0 90 2a 60
        E 0 90 3f 60
        E 0 90 48 60
        E 0 90 4b 60
        E 0 90 54 60
        E 0 90 57 60
        E 0 90 60 60
        E 0 90 63 60
        E 120 80 18 00
        E 0 80 2a 00
        E 0 80 3f 00
        E 0 80 48 00
        E 0 80 4b 00
        E 0 80 54 00
        E 0 80 57 00
        E 0 80 60 00
        E 0 80 63 00
        E 120 90 19 60
        E 240 80 19 00
        E 0 90 2a 60
        E 0 90 3f 60
        E 0 90 4b 60
        E 0 90 57 60
        E 0 90 63 60
        E 120 80 2a 00
        E 0 80 3f 00
        E 0 80 4b 00
        E 0 80 57 00
        E 0 80 63 00
        E 120 90 19 60
        E 240 80 19 00
        E 0 90 1a 60
        E 0 90 2a 60
        E 0 90 3d 60
        E 0 90 3f 60
        E 0 90 49 60
        E 0 90 4b 60
        E 0 90 55 60
        E 0 90 57 60
        E 0 90 61 60
        E 0 90 63 60
        E 120 80 1a 00
        E 0 80 2a 00
        E 0 80 3d 00
        E 0 80 3f 00
        E 0 80 49 00
        E 0 80 4b 00
        E 0 80 55 00
        E 0 80 57 00
        E 0 80 61 00
        E 0 80 63 00
        E 120 90 19 60
        E 240 80 19 00
        E 0 90 2a 60
        E 0 90 3f 60
        E 0 90 4b 60
        E 0 90 57 60
        E 0 90 63 60
        E 120 80 2a 00
        E 0 80 3f 00
        E 0 80 4b 00
        E 0 80 57 00
        E 0 80 63 00
        E 120 90 19 60
        E 80 90 1c 60
        E 0 90 61 60
        E 80 80 1c 00
        E 0 80 61 00
        E 0 90 1c 60
        E 0 90 61 60
        E 80 80 19 00
        E 0 80 1c 00
        E 0 80 61 00
        E 0 90 18 60
        E 0 90 2a 60
        E 0 90 3f 60
        E 0 90 48 60
        E 0 90 4b 60
        E 0 90 54 60
        E 0 90 57 60
        E 0 90 60 60
        E 0 90 63 60
        E 120 80 18 00
        E 0 80 2a 00
        E 0 80 3f 00
        E 0 80 48 00
        E 0 80 4b 00
        E 0 80 54 00
        E 0 80 57 00
        E 0 80 60 00
        E 0 80 63 00
        E 120 90 19 60
        E 240 80 19 00
        E 0 90 2a 60
        E 0 90 3f 60
        E 0 90 4b 60
        E 0 90 57 60
        E 0 90 63 60
        E 120 80 2a 00
        E 0 80 3f 00
        E 0 80 4b 00
        E 0 80 57 00
        E 0 80 63 00
        E 120 90 19 60
        E 240 80 19 00
        E 0 90 18 60
        E 0 90 2a 60
        E 0 90 3f 60
        E 0 90 48 60
        E 0 90 4b 60
        E 0 90 54 60
        E 0 90 57 60
        E 0 90 60 60
        E 0 90 63 60
        E 120 80 18 00
        E 0 80 2a 00
        E 0 80 3f 00
        E 0 80 48 00
        E 0 80 4b 00
        E 0 80 54 00
        E 0 80 57 00
        E 0 80 60 00
        E 0 80 63 00
        E 120 90 19 60
        E 240 80 19 00
        E 0 90 2a 60
        E 0 90 3f 60
        E 0 90 4b 60
        E 0 90 57 60
        E 0 90 63 60
        E 120 80 2a 00
        E 0 80 3f 00
        E 0 80 4b 00
        E 0 80 57 00
        E 0 80 63 00
        E 120 90 19 60
        E 240 80 19 00
        E 0 90 1a 60
        E 0 90 2a 60
        E 0 90 3d 60
        E 0 90 3f 60
        E 0 90 49 60
        E 0 90 4b 60
        E 0 90 55 60
        E 0 90 57 60
        E 0 90 61 60
        E 0 90 63 60
        E 120 80 1a 00
        E 0 80 2a 00
        E 0 80 3d 00
        E 0 80 3f 00
        E 0 80 49 00
        E 0 80 4b 00
        E 0 80 55 00
        E 0 80 57 00
        E 0 80 61 00
        E 0 80 63 00
        E 120 90 19 60
        E 240 80 19 00
        E 0 90 2a 60
        E 0 90 3f 60
        E 0 90 4b 60
        E 0 90 57 60
        E 0 90 63 60
        E 120 80 2a 00
        E 0 80 3f 00
        E 0 80 4b 00
        E 0 80 57 00
        E 0 80 63 00
        E 120 90 19 60
        E 80 90 1c 60
        E 0 90 61 60
        E 80 80 1c 00
        E 0 80 61 00
        E 0 90 1c 60
        E 0 90 61 60
        E 80 80 19 00
        E 0 80 1c 00
        E 0 80 61 00
        E 0 90 18 60
        E 0 90 2a 60
        E 0 90 3f 60
        E 0 90 48 60
        E 0 90 4b 60
        E 0 90 54 60
        E 0 90 57 60
        E 0 90 60 60
        E 0 90 63 60
        E 0 90 78 60
        E 0 90 79 60
        E 0 90 7a 60
        E 0 90 7b 60
        E 0 90 7c 60
        E 120 80 18 00
        E 0 80 2a 00
        E 0 80 3f 00
        E 0 80 48 00
        E 0 80 4b 00
        E 0 80 54 00
        E 0 80 57 00
        E 0 80 60 00
        E 0 80 63 00
        E 120 90 19 60
        E 240 80 19 00
        E 0 90 2a 60
        E 0 90 3f 60
        E 0 90 4b 60
        E 0 90 57 60
        E 0 90 63 60
        E 120 80 2a 00
        E 0 80 3f 00
        E 0 80 4b 00
        E 0 80 57 00
        E 0 80 63 00
        E 120 90 19 60
        E 240 80 78 00 -1
        E 0 80 79 00
        E 0 80 7a 00
        E 0 80 7b 00
        E 0 80 7c 00
        E 0 80 19 00
        E 0 90 18 60
        E 0 90 2a 60
        E 0 90 3f 60
        E 0 90 48 60
        E 0 90 4b 60
        E 0 90 54 60
        E 0 90 57 60
        E 0 90 60 60
        E 0 90 63 60
        E 120 80 18 00
        E 0 80 2a 00
        E 0 80 3f 00
        E 0 80 48 00
        E 0 80 4b 00
        E 0 80 54 00
        E 0 80 57 00
        E 0 80 60 00
        E 0 80 63 00
        E 120 90 19 60
        E 240 80 19 00
        E 0 90 2a 60
        E 0 90 3f 60
        E 0 90 4b 60
        E 0 90 57 60
        E 0 90 63 60
        E 120 80 2a 00
        E 0 80 3f 00
        E 0 80 4b 00
        E 0 80 57 00
        E 0 80 63 00
        E 120 90 19 60
        E 240 80 19 00
        E 0 90 1a 60
        E 0 90 2a 60
        E 0 90 3d 60
        E 0 90 3f 60
        E 0 90 49 60
        E 0 90 4b 60
        E 0 90 55 60
        E 0 90 57 60
        E 0 90 61 60
        E 0 90 63 60
        E 120 80 1a 00
        E 0 80 2a 00
        E 0 80 3d 00
        E 0 80 3f 00
        E 0 80 49 00
        E 0 80 4b 00
        E 0 80 55 00
        E 0 80 57 00
        E 0 80 61 00
        E 0 80 63 00
        E 120 90 19 60
        E 240 80 19 00
        E 0 90 2a 60
        E 0 90 3f 60
        E 0 90 4b 60
        E 0 90 57 60
        E 0 90 63 60
        E 120 80 2a 00
        E 0 80 3f 00
        E 0 80 4b 00
        E 0 80 57 00
        E 0 80 63 00
        E 120 90 19 60
        E 80 90 1c 60
        E 0 90 61 60
        E 80 80 1c 00
        E 0 80 61 00
        E 0 90 1c 60
        E 0 90 61 60
        E 80 80 19 00
        E 0 80 1c 00
        E 0 80 61 00
        E 0 90 18 60
        E 0 90 2a 60
        E 0 90 3f 60
        E 0 90 48 60
        E 0 90 4b 60
        E 0 90 54 60
        E 0 90 57 60
        E 0 90 60 60
        E 0 90 63 60
        E 120 80 18 00
        E 0 80 2a 00
        E 0 80 3f 00
        E 0 80 48 00
        E 0 80 4b 00
        E 0 80 54 00
        E 0 80 57 00
        E 0 80 60 00
        E 0 80 63 00
        E 120 90 19 60
        E 240 80 19 00
        E 0 90 2a 60
        E 0 90 3f 60
        E 0 90 4b 60
        E 0 90 57 60
        E 0 90 63 60
        E 120 80 2a 00
        E 0 80 3f 00
        E 0 80 4b 00
        E 0 80 57 00
        E 0 80 63 00
        E 120 90 19 60
        E 240 80 19 00
        E 0 90 18 60
        E 0 90 2a 60
        E 0 90 3f 60
        E 0 90 48 60
        E 0 90 4b 60
        E 0 90 54 60
        E 0 90 57 60
        E 0 90 60 60
        E 0 90 63 60
        E 120 80 18 00
        E 0 80 2a 00
        E 0 80 3f 00
        E 0 80 48 00
        E 0 80 4b 00
        E 0 80 54 00
        E 0 80 57 00
        E 0 80 60 00
        E 0 80 63 00
        E 120 90 19 60
        E 240 80 19 00
        E 0 90 2a 60
        E 0 90 3f 60
        E 0 90 4b 60
        E 0 90 57 60
        E 0 90 63 60
        E 120 80 2a 00
        E 0 80 3f 00
        E 0 80 4b 00
        E 0 80 57 00
        E 0 80 63 00
        E 120 90 19 60
        E 240 80 19 00
        E 0 90 1a 60
        E 0 90 2a 60
        E 0 90 3d 60
        E 0 90 3f 60
        E 0 90 49 60
        E 0 90 4b 60
        E 0 90 55 60
        E 0 90 57 60
        E 0 90 61 60
        E 0 90 63 60
        E 120 80 1a 00
        E 0 80 2a 00
        E 0 80 3d 00
        E 0 80 3f 00
        E 0 80 49 00
        E 0 80 4b 00
        E 0 80 55 00
        E 0 80 57 00
        E 0 80 61 00
        E 0 80 63 00
        E 120 90 19 60
        E 240 80 19 00
        E 0 90 2a 60
        E 0 90 3f 60
        E 0 90 4b 60
        E 0 90 57 60
        E 0 90 63 60
        E 120 80 2a 00
        E 0 80 3f 00
        E 0 80 4b 00
        E 0 80 57 00
        E 0 80 63 00
        E 120 90 19 60
        E 80 90 1c 60
        E 0 90 61 60
        E 80 80 1c 00
        E 0 80 61 00
        E 0 90 1c 60
        E 0 90 61 60
        E 80 80 19 00
        E 0 80 1c 00
        E 0 80 61 00
        E 0 90 18 60
        E 0 90 2a 60
        E 0 90 3f 60
        E 0 90 48 60
        E 0 90 4b 60
        E 0 90 54 60
        E 0 90 57 60
        E 0 90 60 60
        E 0 90 63 60
        E 0 90 78 60
        E 0 90 79 60
        E 0 90 7a 60
        E 0 90 7b 60
        E 0 90 7c 60
        E 120 80 18 00
        E 0 80 2a 00
        E 0 80 3f 00
        E 0 80 48 00
        E 0 80 4b 00
        E 0 80 54 00
        E 0 80 57 00
        E 0 80 60 00
        E 0 80 63 00
        E 120 90 19 60
        E 80 90 1c 60
        E 0 90 61 60
        E 80 80 1c 00
        E 0 80 61 00
        E 0 90 1c 60
        E 0 90 61 60
        E 80 80 19 00
        E 0 80 1c 00
        E 0 80 61 00
        E 0 90 18 60
        E 0 90 2a 60
        E 0 90 3f 60
        E 0 90 4b 60
        E 0 90 54 60
        E 0 90 57 60
        E 0 90 60 60
        E 0 90 63 60
        E 120 80 18 00
        E 0 80 2a 00
        E 0 80 3f 00
        E 0 80 4b 00
        E 0 80 54 00
        E 0 80 57 00
        E 0 80 60 00
        E 0 80 63 00
        E 120 90 19 60
        E 240 80 78 00
        E 0 80 79 00
        E 0 80 7a 00
        E 0 80 7b 00
        E 0 80 7c 00
        E 0 80 19 00
        E 0 90 18 60
        E 0 90 2a 60
        E 0 90 3f 60
        E 0 90 48 60
        E 0 90 4b 60
        E 0 90 54 60
        E 0 90 57 60
        E 0 90 60 60
        E 0 90 63 60
        E 120 80 18 00
        E 0 80 2a 00
        E 0 80 3f 00
        E 0 80 48 00
        E 0 80 4b 00
        E 0 80 54 00
        E 0 80 57 00
        E 0 80 60 00
        E 0 80 63 00
        E 120 90 19 60
        E 240 80 19 00
        E 0 90 2a 60
        E 0 90 3f 60
        E 0 90 4b 60
        E 0 90 57 60
        E 0 90 63 60
        E 120 80 2a 00
        E 0 80 3f 00
        E 0 80 4b 00
        E 0 80 57 00
        E 0 80 63 00
        E 120 90 19 60
        E 240 80 19 00
        E 0 90 1a 60
        E 0 90 2a 60
        E 0 90 3d 60
        E 0 90 3f 60
        E 0 90 49 60
        E 0 90 4b 60
        E 0 90 55 60
        E 0 90 57 60
        E 0 90 61 60
        E 0 90 63 60
        E 120 80 1a 00
        E 0 80 2a 00
        E 0 80 3d 00
        E 0 80 3f 00
        E 0 80 49 00
        E 0 80 4b 00
        E 0 80 55 00
        E 0 80 57 00
        E 0 80 61 00
        E 0 80 63 00
        E 120 90 19 60
        E 240 80 19 00
        E 0 90 2a 60
        E 0 90 3f 60
        E 0 90 4b 60
        E 0 90 57 60
        E 0 90 63 60
        E 120 80 2a 00
        E 0 80 3f 00
        E 0 80 4b 00
        E 0 80 57 00
        E 0 80 63 00
        E 120 90 19 60
        E 80 90 1c 60
        E 0 90 61 60
        E 80 80 1c 00
        E 0 80 61 00
        E 0 90 1c 60
        E 0 90 61 60
        E 80 80 19 00
        E 0 80 1c 00
        E 0 80 61 00
        E 0 90 18 60
        E 0 90 2a 60
        E 0 90 3f 60
        E 0 90 48 60
        E 0 90 4b 60
        E 0 90 54 60
        E 0 90 57 60
        E 0 90 60 60
        E 0 90 63 60
        E 120 80 18 00
        E 0 80 2a 00
        E 0 80 3f 00
        E 0 80 48 00
        E 0 80 4b 00
        E 0 80 54 00
        E 0 80 57 00
        E 0 80 60 00
        E 0 80 63 00
        E 120 90 19 60
        E 240 80 19 00
        E 0 90 2a 60
        E 0 90 3f 60
        E 0 90 4b 60
        E 0 90 57 60
        E 0 90 63 60
        E 120 80 2a 00
        E 0 80 3f 00
        E 0 80 4b 00
        E 0 80 57 00
        E 0 80 63 00
        E 120 90 19 60
        E 240 80 19 00
        E 0 90 18 60
        E 0 90 2a 60
        E 0 90 3f 60
        E 0 90 48 60
        E 0 90 4b 60
        E 0 90 54 60
        E 0 90 57 60
        E 0 90 60 60
        E 0 90 63 60
        E 120 80 18 00
        E 0 80 2a 00
        E 0 80 3f 00
        E 0 80 48 00
        E 0 80 4b 00
        E 0 80 54 00
        E 0 80 57 00
        E 0 80 60 00
        E 0 80 63 00
        E 120 90 19 60
        E 240 80 19 00
        E 0 90 2a 60
        E 0 90 3f 60
        E 0 90 4b 60
        E 0 90 57 60
        E 0 90 63 60
        E 120 80 2a 00
        E 0 80 3f 00
        E 0 80 4b 00
        E 0 80 57 00
        E 0 80 63 00
        E 120 90 19 60
        E 240 80 19 00
        E 0 90 1a 60
        E 0 90 2a 60
        E 0 90 3d 60
        E 0 90 3f 60
        E 0 90 49 60
        E 0 90 4b 60
        E 0 90 55 60
        E 0 90 57 60
        E 0 90 61 60
        E 0 90 63 60
        E 120 80 1a 00
        E 0 80 2a 00
        E 0 80 3d 00
        E 0 80 3f 00
        E 0 80 49 00
        E 0 80 4b 00
        E 0 80 55 00
        E 0 80 57 00
        E 0 80 61 00
        E 0 80 63 00
        E 120 90 19 60
        E 240 80 19 00
        E 0 90 2a 60
        E 0 90 3f 60
        E 0 90 4b 60
        E 0 90 57 60
        E 0 90 63 60
        E 120 80 2a 00
        E 0 80 3f 00
        E 0 80 4b 00
        E 0 80 57 00
        E 0 80 63 00
        E 120 90 19 60
        E 80 90 1c 60
        E 0 90 61 60
        E 80 80 1c 00
        E 0 80 61 00
        E 0 90 1c 60
        E 0 90 61 60
        E 80 80 19 00
        E 0 80 1c 00
        E 0 80 61 00
        E 0 90 18 60
        E 0 90 2a 60
        E 0 90 3f 60
        E 0 90 48 60
        E 0 90 4b 60
        E 0 90 54 60
        E 0 90 57 60
        E 0 90 60 60
        E 0 90 63 60
        E 0 90 78 60
        E 0 90 79 60
        E 0 90 7a 60
        E 0 90 7b 60
        E 0 90 7c 60
        E 120 80 18 00
        E 0 80 2a 00
        E 0 80 3f 00
        E 0 80 48 00
        E 0 80 4b 00
        E 0 80 54 00
        E 0 80 57 00
        E 0 80 60 00
        E 0 80 63 00
        E 120 90 19 60
        E 240 80 19 00
        E 0 90 2a 60
        E 0 90 3f 60
        E 0 90 4b 60
        E 0 90 57 60
        E 0 90 63 60
        E 120 80 2a 00
        E 0 80 3f 00
        E 0 80 4b 00
        E 0 80 57 00
        E 0 80 63 00
        E 120 90 19 60
        E 240 80 78 00 -1
        E 0 80 79 00
        E 0 80 7a 00
        E 0 80 7b 00
        E 0 80 7c 00
        E 0 80 19 00
        E 0 90 18 60
        E 0 90 24 60
        E 0 90 40 60
        E 0 90 48 60
        E 0 90 4c 60
        E 0 90 54 60
        E 0 90 58 60
        E 0 90 60 60
        E 0 90 64 60
        E 120 80 18 00
        E 0 80 24 00
        E 0 80 40 00
        E 0 80 48 00
        E 0 80 4c 00
        E 0 80 54 00
        E 0 80 58 00
        E 0 80 60 00
        E 0 80 64 00
        E 1160 90 1c 60
        E 0 90 61 60
        E 80 80 1c 00
        E 0 80 61 00
        E 0 90 1c 60
        E 0 90 61 60
        E 80 80 1c 00
        E 0 80 61 00
        E 0 90 18 60
        E 0 90 2a 60
        E 0 90 3f 60
        E 0 90 48 60
        E 0 90 4b 60
        E 0 90 54 60
        E 0 90 57 60
        E 0 90 60 60
        E 0 90 63 60
        E 120 80 18 00
        E 0 80 2a 00
        E 0 80 3f 00
        E 0 80 48 00
        E 0 80 4b 00
        E 0 80 54 00
        E 0 80 57 00
        E 0 80 60 00
        E 0 80 63 00
        E 360 90 1a 60
        E 0 90 2a 60
        E 0 90 3d 60
        E 0 90 3f 60
        E 0 90 49 60
        E 0 90 4b 60
        E 0 90 55 60
        E 0 90 57 60
        E 0 90 61 60
        E 0 90 63 60
        E 120 80 1a 00
        E 0 80 2a 00
        E 0 80 3d 00
        E 0 80 3f 00
        E 0 80 49 00
        E 0 80 4b 00
        E 0 80 55 00
        E 0 80 57 00
        E 0 80 61 00
        E 0 80 63 00
        E 360 90 2a 60
        E 0 90 3f 60
        E 0 90 4b 60
        E 0 90 57 60
        E 0 90 63 60
        E 120 80 2a 00
        E 0 80 3f 00
        E 0 80 4b 00
        E 0 80 57 00
        E 0 80 63 00
        E 200 90 1c 60
        E 0 90 61 60
        E 80 80 1c 00
        E 0 80 61 00
        E 0 90 1c 60
        E 0 90 61 60
        E 80 80 1c 00
        E 0 80 61 00
        E 0 90 18 60
        E 0 90 2a 60
        E 0 90 3f 60
        E 0 90 48 60
        E 0 90 4b 60
        E 0 90 54 60
        E 0 90 57 60
        E 0 90 60 60
        E 0 90 63 60
        E 120 80 18 00
        E 0 80 2a 00
        E 0 80 3f 00
        E 0 80 48 00
        E 0 80 4b 00
        E 0 80 54 00
        E 0 80 57 00
        E 0 80 60 00
        E 0 80 63 00
        E 360 90 1a 60
        E 0 90 2a 60
        E 0 90 3d 60
        E 0 90 3f 60
        E 0 90 49 60
        E 0 90 4b 60
        E 0 90 55 60
        E 0 90 57 60
        E 0 90 61 60
        E 0 90 63 60
        E 120 80 1a 00
        E 0 80 2a 00
        E 0 80 3d 00
        E 0 80 3f 00
        E 0 80 49 00
        E 0 80 4b 00
        E 0 80 55 00
        E 0 80 57 00
        E 0 80 61 00
        E 0 80 63 00
        E 360 90 2a 60
        E 0 90 3f 60
        E 0 90 4b 60
        E 0 90 57 60
        E 0 90 63 60
        E 120 80 2a 00
        E 0 80 3f 00
        E 0 80 4b 00
        E 0 80 57 00
        E 0 80 63 00
        E 200 90 1c 60
        E 0 90 61 60
        E 80 80 1c 00
        E 0 80 61 00
        E 0 90 1c 60
        E 0 90 61 60
        E 80 80 1c 00
        E 0 80 61 00
        E 0 90 18 60
        E 0 90 2a 60
        E 0 90 3f 60
        E 0 90 48 60
        E 0 90 4b 60
        E 0 90 54 60
        E 0 90 57 60
        E 0 90 60 60
        E 0 90 63 60
        E 0 90 74 60
        E 120 80 18 00
        E 0 80 2a 00
        E 0 80 3f 00
        E 0 80 48 00
        E 0 80 4b 00
        E 0 80 54 00
        E 0 80 57 00
        E 0 80 60 00
        E 0 80 63 00
        E 360 90 1a 60
        E 0 90 2a 60
        E 0 90 3d 60
        E 0 90 3f 60
        E 0 90 49 60
        E 0 90 4b 60
        E 0 90 55 60
        E 0 90 57 60
        E 0 90 61 60
        E 0 90 63 60
        E 120 80 1a 00
        E 0 80 2a 00
        E 0 80 3d 00
        E 0 80 3f 00
        E 0 80 49 00
        E 0 80 4b 00
        E 0 80 55 00
        E 0 80 57 00
        E 0 80 61 00
        E 0 80 63 00
        E 360 90 2a 60
        E 0 90 3f 60
        E 0 90 4b 60
        E 0 90 57 60
        E 0 90 63 60
        E 120 80 2a 00
        E 0 80 3f 00
        E 0 80 4b 00
        E 0 80 57 00
        E 0 80 63 00
        E 200 90 1c 60
        E 0 90 61 60
        E 80 80 1c 00
        E 0 80 61 00
        E 0 90 1c 60
        E 0 90 61 60
        E 80 80 1c 00
        E 0 80 61 00
        E 0 90 18 60
        E 0 90 2a 60
        E 0 90 3f 60
        E 0 90 48 60
        E 0 90 4b 60
        E 0 90 54 60
        E 0 90 57 60
        E 0 90 60 60
        E 0 90 63 60
        E 120 80 18 00
        E 0 80 2a 00
        E 0 80 3f 00
        E 0 80 48 00
        E 0 80 4b 00
        E 0 80 54 00
        E 0 80 57 00
        E 0 80 60 00
        E 0 80 63 00
        E 360 90 1a 60
        E 0 90 1b 60
        E 0 90 3d 60
        E 0 90 3e 60
        E 0 90 49 60
        E 0 90 4a 60
        E 0 90 55 60
        E 0 90 56 60
        E 0 90 61 60
        E 0 90 62 60
        E 0 90 6e 60
        E 120 80 1a 00
        E 0 80 1b 00
        E 0 80 3d 00
        E 0 80 3e 00
        E 0 80 49 00
        E 0 80 4a 00
        E 0 80 55 00
        E 0 80 56 00
        E 0 80 61 00
        E 0 80 62 00
        E 0 80 6e 00
        E 120 90 1a 60
        E 0 90 55 60
        E 0 90 61 60
        E 120 80 1a 00
        E 0 80 55 00
        E 0 80 61 00
        E 120 90 31 60
        E 0 90 3f 60
        E 0 90 4b 60
        E 0 90 57 60
        E 0 90 63 60
        E 0 90 6f 60
        E 120 80 31 00
        E 0 80 3f 00
        E 0 80 4b 00
        E 0 80 57 00
        E 0 80 63 00
        E 120 90 30 60
        E 0 90 57 60
        E 0 90 63 60
        E 120 80 6f 00
        E 0 80 30 00
        E 0 80 57 00
        E 0 80 63 00
        E 120 90 18 60
        E 0 90 24 60
        E 0 90 40 60
        E 0 90 48 60
        E 0 90 4c 60
        E 0 90 54 60
        E 0 90 58 60
        E 0 90 60 60
        E 0 90 64 60
        E 120 80 74 00
        E 0 80 18 00
        E 0 80 24 00
        E 0 80 40 00
        E 0 80 48 00
        E 0 80 4c 00
        E 0 80 54 00
        E 0 80 58 00
        E 0 80 60 00
        E 0 80 64 00
        <X 480 0
          /wFbaWRsZV0=
        >
        E 3720 90 78 60
        E 0 90 79 60
        E 0 90 7a 60
        E 0 90 7b 60
        E 0 90 7c 60
        <X 1440 0
          /wFbcGxheV0=
        >
        E 480 80 78 00 -1
        E 0 80 79 00
        E 0 80 7a 00
        E 0 80 7b 00
        E 0 80 7c 00
        E 0 90 1a 60
        E 0 90 1f 60
        E 0 90 3d 60
        E 0 90 3e 60
        E 0 90 49 60
        E 0 90 4a 60
        E 0 90 55 60
        E 0 90 56 60
        E 0 90 61 60
        E 0 90 62 60
        E 120 80 1a 00
        E 0 80 1f 00
        E 0 80 3d 00
        E 0 80 3e 00
        E 0 80 49 00
        E 0 80 4a 00
        E 0 80 55 00
        E 0 80 56 00
        E 0 80 61 00
        E 0 80 62 00
        E 120 90 18 60
        E 0 90 1f 60
        E 0 90 54 60
        E 0 90 56 60
        E 0 90 60 60
        E 0 90 62 60
        E 120 80 18 00
        E 0 80 1f 00
        E 0 80 54 00
        E 0 80 56 00
        E 0 80 60 00
        E 0 80 62 00
        E 120 90 18 60
        E 0 90 1f 60
        E 0 90 3e 60
        E 0 90 48 60
        E 0 90 4a 60
        E 0 90 54 60
        E 0 90 56 60
        E 0 90 60 60
        E 0 90 62 60
        E 120 80 18 00
        E 0 80 1f 00
        E 0 80 3e 00
        E 0 80 48 00
        E 0 80 4a 00
        E 0 80 54 00
        E 0 80 56 00
        E 0 80 60 00
        E 0 80 62 00
        E 120 90 1f 60
        E 0 90 56 60
        E 0 90 62 60
        E 120 80 1f 00
        E 0 80 56 00
        E 0 80 62 00
        E 120 90 1a 60
        E 0 90 1f 60
        E 0 90 3d 60
        E 0 90 3e 60
        E 0 90 49 60
        E 0 90 4a 60
        E 0 90 55 60
        E 0 90 56 60
        E 0 90 61 60
        E 0 90 62 60
        E 120 80 1a 00
        E 0 80 1f 00
        E 0 80 3d 00
        E 0 80 3e 00
        E 0 80 49 00
        E 0 80 4a 00
        E 0 80 55 00
        E 0 80 56 00
        E 0 80 61 00
        E 0 80 62 00
        E 120 90 18 60
        E 0 90 1f 60
        E 0 90 54 60
        E 0 90 56 60
        E 0 90 60 60
        E 0 90 62 60
        E 120 80 18 00
        E 0 80 1f 00
        E 0 80 54 00
        E 0 80 56 00
        E 0 80 60 00
        E 0 80 62 00
        E 120 90 18 60
        E 0 90 1f 60
        E 0 90 3e 60
        E 0 90 48 60
        E 0 90 4a 60
        E 0 90 54 60
        E 0 90 56 60
        E 0 90 60 60
        E 0 90 62 60
        E 120 80 18 00
        E 0 80 1f 00
        E 0 80 3e 00
        E 0 80 48 00
        E 0 80 4a 00
        E 0 80 54 00
        E 0 80 56 00
        E 0 80 60 00
        E 0 80 62 00
        E 120 90 19 60
        E 0 90 1f 60
        E 0 90 57 60
        E 0 90 63 60
        E 120 80 1f 00
        E 0 80 57 00
        E 0 80 63 00
        E 120 80 19 00
        E 0 90 1a 60
        E 0 90 1f 60
        E 0 90 3d 60
        E 0 90 3e 60
        E 0 90 49 60
        E 0 90 4a 60
        E 0 90 55 60
        E 0 90 56 60
        E 0 90 61 60
        E 0 90 62 60
        E 120 80 1a 00
        E 0 80 1f 00
        E 0 80 3d 00
        E 0 80 3e 00
        E 0 80 49 00
        E 0 80 4a 00
        E 0 80 55 00
        E 0 80 56 00
        E 0 80 61 00
        E 0 80 62 00
        E 120 90 18 60
        E 0 90 1f 60
        E 0 90 54 60
        E 0 90 56 60
        E 0 90 60 60
        E 0 90 62 60
        E 120 80 18 00
        E 0 80 1f 00
        E 0 80 54 00
        E 0 80 56 00
        E 0 80 60 00
        E 0 80 62 00
        E 120 90 18 60
        E 0 90 1f 60
        E 0 90 3e 60
        E 0 90 48 60
        E 0 90 4a 60
        E 0 90 54 60
        E 0 90 56 60
        E 0 90 60 60
        E 0 90 62 60
        E 120 80 18 00
        E 0 80 1f 00
        E 0 80 3e 00
        E 0 80 48 00
        E 0 80 4a 00
        E 0 80 54 00
        E 0 80 56 00
        E 0 80 60 00
        E 0 80 62 00
        E 120 90 1f 60
        E 0 90 56 60
        E 0 90 62 60
        E 120 80 1f 00
        E 0 80 56 00
        E 0 80 62 00
        E 120 90 1a 60
        E 0 90 1f 60
        E 0 90 3d 60
        E 0 90 3e 60
        E 0 90 49 60
        E 0 90 4a 60
        E 0 90 55 60
        E 0 90 56 60
        E 0 90 61 60
        E 0 90 62 60
        E 120 80 1a 00
        E 0 80 1f 00
        E 0 80 3d 00
        E 0 80 3e 00
        E 0 80 49 00
        E 0 80 4a 00
        E 0 80 55 00
        E 0 80 56 00
        E 0 80 61 00
        E 0 80 62 00
        E 120 90 18 60
        E 0 90 1f 60
        E 0 90 54 60
        E 0 90 56 60
        E 0 90 60 60
        E 0 90 62 60
        E 120 80 18 00
        E 0 80 1f 00
        E 0 80 54 00
        E 0 80 56 00
        E 0 80 60 00
        E 0 80 62 00
        E 120 90 18 60
        E 0 90 1f 60
        E 0 90 3e 60
        E 0 90 48 60
        E 0 90 4a 60
        E 0 90 54 60
        E 0 90 56 60
        E 0 90 60 60
        E 0 90 62 60
        E 120 80 18 00
        E 0 80 1f 00
        E 0 80 3e 00
        E 0 80 48 00
        E 0 80 4a 00
        E 0 80 54 00
        E 0 80 56 00
        E 0 80 60 00
        E 0 80 62 00
        E 120 90 1f 60
        E 0 90 56 60
        E 0 90 62 60
        E 120 80 1f 00
        E 0 80 56 00
        E 0 80 62 00
        E 120 90 1a 60
        E 0 90 1f 60
        E 0 90 3d 60
        E 0 90 3e 60
        E 0 90 49 60
        E 0 90 4a 60
        E 0 90 55 60
        E 0 90 56 60
        E 0 90 61 60
        E 0 90 62 60
        E 120 80 1a 00
        E 0 80 1f 00
        E 0 80 3d 00
        E 0 80 3e 00
        E 0 80 49 00
        E 0 80 4a 00
        E 0 80 55 00
        E 0 80 56 00
        E 0 80 61 00
        E 0 80 62 00
        E 120 90 18 60
        E 0 90 1f 60
        E 0 90 54 60
        E 0 90 56 60
        E 0 90 60 60
        E 0 90 62 60
        E 120 80 18 00
        E 0 80 1f 00
        E 0 80 54 00
        E 0 80 56 00
        E 0 80 60 00
        E 0 80 62 00
        E 120 90 18 60
        E 0 90 1f 60
        E 0 90 3e 60
        E 0 90 48 60
        E 0 90 4a 60
        E 0 90 54 60
        E 0 90 56 60
        E 0 90 60 60
        E 0 90 62 60
        E 120 80 18 00
        E 0 80 1f 00
        E 0 80 3e 00
        E 0 80 48 00
        E 0 80 4a 00
        E 0 80 54 00
        E 0 80 56 00
        E 0 80 60 00
        E 0 80 62 00
        E 120 90 19 60
        E 0 90 1f 60
        E 0 90 57 60
        E 0 90 63 60
        E 120 80 1f 00
        E 0 80 57 00
        E 0 80 63 00
        E 120 80 19 00
        E 0 90 1a 60
        E 0 90 1f 60
        E 0 90 3d 60
        E 0 90 3e 60
        E 0 90 49 60
        E 0 90 4a 60
        E 0 90 55 60
        E 0 90 56 60
        E 0 90 61 60
        E 0 90 62 60
        E 0 90 78 60
        E 0 90 79 60
        E 0 90 7a 60
        E 0 90 7b 60
        E 0 90 7c 60
        E 120 80 1a 00
        E 0 80 1f 00
        E 0 80 3d 00
        E 0 80 3e 00
        E 0 80 49 00
        E 0 80 4a 00
        E 0 80 55 00
        E 0 80 56 00
        E 0 80 61 00
        E 0 80 62 00
        E 120 90 18 60
        E 0 90 1f 60
        E 0 90 54 60
        E 0 90 56 60
        E 0 90 60 60
        E 0 90 62 60
        E 120 80 18 00
        E 0 80 1f 00
        E 0 80 54 00
        E 0 80 56 00
        E 0 80 60 00
        E 0 80 62 00
        E 120 90 18 60
        E 0 90 1f 60
        E 0 90 3e 60
        E 0 90 48 60
        E 0 90 4a 60
        E 0 90 54 60
        E 0 90 56 60
        E 0 90 60 60
        E 0 90 62 60
        E 120 80 18 00
        E 0 80 1f 00
        E 0 80 3e 00
        E 0 80 48 00
        E 0 80 4a 00
        E 0 80 54 00
        E 0 80 56 00
        E 0 80 60 00
        E 0 80 62 00
        E 120 90 1f 60
        E 0 90 56 60
        E 0 90 62 60
        E 120 80 1f 00
        E 0 80 56 00
        E 0 80 62 00
        E 120 80 78 00 -1
        E 0 80 79 00
        E 0 80 7a 00
        E 0 80 7b 00
        E 0 80 7c 00
        E 0 90 1a 60
        E 0 90 25 60
        E 0 90 3d 60
        E 0 90 40 60
        E 0 90 49 60
        E 0 90 4c 60
        E 0 90 55 60
        E 0 90 58 60
        E 0 90 61 60
        E 0 90 64 60
        E 120 80 1a 00
        E 0 80 25 00
        E 0 80 3d 00
        E 0 80 40 00
        E 0 80 49 00
        E 0 80 4c 00
        E 0 80 55 00
        E 0 80 58 00
        E 0 80 61 00
        E 0 80 64 00
        E 120 90 18 60
        E 0 90 1f 60
        E 0 90 54 60
        E 0 90 56 60
        E 0 90 60 60
        E 0 90 62 60
        E 120 80 18 00
        E 0 80 1f 00
        E 0 80 54 00
        E 0 80 56 00
        E 0 80 60 00
        E 0 80 62 00
        E 120 90 18 60
        E 0 90 1f 60
        E 0 90 3e 60
        E 0 90 48 60
        E 0 90 4a 60
        E 0 90 54 60
        E 0 90 56 60
        E 0 90 60 60
        E 0 90 62 60
        E 120 80 18 00
        E 0 80 1f 00
        E 0 80 3e 00
        E 0 80 48 00
        E 0 80 4a 00
        E 0 80 54 00
        E 0 80 56 00
        E 0 80 60 00
        E 0 80 62 00
        E 120 90 1f 60
        E 0 90 56 60
        E 0 90 62 60
        E 120 80 1f 00
        E 0 80 56 00
        E 0 80 62 00
        E 120 90 1a 60
        E 0 90 1f 60
        E 0 90 3d 60
        E 0 90 3e 60
        E 0 90 49 60
        E 0 90 4a 60
        E 0 90 55 60
        E 0 90 56 60
        E 0 90 61 60
        E 0 90 62 60
        E 120 80 1a 00
        E 0 80 1f 00
        E 0 80 3d 00
        E 0 80 3e 00
        E 0 80 49 00
        E 0 80 4a 00
        E 0 80 55 00
        E 0 80 56 00
        E 0 80 61 00
        E 0 80 62 00
        E 120 90 18 60
        E 0 90 1f 60
        E 0 90 54 60
        E 0 90 56 60
        E 0 90 60 60
        E 0 90 62 60
        E 120 80 18 00
        E 0 80 1f 00
        E 0 80 54 00
        E 0 80 56 00
        E 0 80 60 00
        E 0 80 62 00
        E 120 90 18 60
        E 0 90 1f 60
        E 0 90 3e 60
        E 0 90 48 60
        E 0 90 4a 60
        E 0 90 54 60
        E 0 90 56 60
        E 0 90 60 60
        E 0 90 62 60
        E 120 80 18 00
        E 0 80 1f 00
        E 0 80 3e 00
        E 0 80 48 00
        E 0 80 4a 00
        E 0 80 54 00
        E 0 80 56 00
        E 0 80 60 00
        E 0 80 62 00
        E 120 90 19 60
        E 0 90 1f 60
        E 0 90 57 60
        E 0 90 63 60
        E 120 80 1f 00
        E 0 80 57 00
        E 0 80 63 00
        E 120 80 19 00
        E 0 90 1a 60
        E 0 90 1f 60
        E 0 90 3d 60
        E 0 90 3e 60
        E 0 90 49 60
        E 0 90 4a 60
        E 0 90 55 60
        E 0 90 56 60
        E 0 90 61 60
        E 0 90 62 60
        E 120 80 1a 00
        E 0 80 1f 00
        E 0 80 3d 00
        E 0 80 3e 00
        E 0 80 49 00
        E 0 80 4a 00
        E 0 80 55 00
        E 0 80 56 00
        E 0 80 61 00
        E 0 80 62 00
        E 120 90 18 60
        E 0 90 1f 60
        E 0 90 54 60
        E 0 90 56 60
        E 0 90 60 60
        E 0 90 62 60
        E 120 80 18 00
        E 0 80 1f 00
        E 0 80 54 00
        E 0 80 56 00
        E 0 80 60 00
        E 0 80 62 00
        E 120 90 18 60
        E 0 90 1f 60
        E 0 90 3e 60
        E 0 90 48 60
        E 0 90 4a 60
        E 0 90 54 60
        E 0 90 56 60
        E 0 90 60 60
        E 0 90 62 60
        E 120 80 18 00
        E 0 80 1f 00
        E 0 80 3e 00
        E 0 80 48 00
        E 0 80 4a 00
        E 0 80 54 00
        E 0 80 56 00
        E 0 80 60 00
        E 0 80 62 00
        E 120 90 1f 60
        E 0 90 56 60
        E 0 90 62 60
        E 120 80 1f 00
        E 0 80 56 00
        E 0 80 62 00
        E 120 90 1a 60
        E 0 90 1f 60
        E 0 90 3d 60
        E 0 90 3e 60
        E 0 90 49 60
        E 0 90 4a 60
        E 0 90 55 60
        E 0 90 56 60
        E 0 90 61 60
        E 0 90 62 60
        E 120 80 1a 00
        E 0 80 1f 00
        E 0 80 3d 00
        E 0 80 3e 00
        E 0 80 49 00
        E 0 80 4a 00
        E 0 80 55 00
        E 0 80 56 00
        E 0 80 61 00
        E 0 80 62 00
        E 120 90 18 60
        E 0 90 1f 60
        E 0 90 54 60
        E 0 90 56 60
        E 0 90 60 60
        E 0 90 62 60
        E 120 80 18 00
        E 0 80 1f 00
        E 0 80 54 00
        E 0 80 56 00
        E 0 80 60 00
        E 0 80 62 00
        E 120 90 18 60
        E 0 90 1f 60
        E 0 90 3e 60
        E 0 90 48 60
        E 0 90 4a 60
        E 0 90 54 60
        E 0 90 56 60
        E 0 90 60 60
        E 0 90 62 60
        E 120 80 18 00
        E 0 80 1f 00
        E 0 80 3e 00
        E 0 80 48 00
        E 0 80 4a 00
        E 0 80 54 00
        E 0 80 56 00
        E 0 80 60 00
        E 0 80 62 00
        E 120 90 1f 60
        E 0 90 56 60
        E 0 90 62 60
        E 120 80 1f 00
        E 0 80 56 00
        E 0 80 62 00
        E 120 90 1a 60
        E 0 90 1f 60
        E 0 90 3d 60
        E 0 90 3e 60
        E 0 90 49 60
        E 0 90 4a 60
        E 0 90 55 60
        E 0 90 56 60
        E 0 90 61 60
        E 0 90 62 60
        E 120 80 1a 00
        E 0 80 1f 00
        E 0 80 3d 00
        E 0 80 3e 00
        E 0 80 49 00
        E 0 80 4a 00
        E 0 80 55 00
        E 0 80 56 00
        E 0 80 61 00
        E 0 80 62 00
        E 120 90 18 60
        E 0 90 1f 60
        E 0 90 54 60
        E 0 90 56 60
        E 0 90 60 60
        E 0 90 62 60
        E 120 80 18 00
        E 0 80 1f 00
        E 0 80 54 00
        E 0 80 56 00
        E 0 80 60 00
        E 0 80 62 00
        E 120 90 18 60
        E 0 90 1f 60
        E 0 90 3e 60
        E 0 90 48 60
        E 0 90 4a 60
        E 0 90 54 60
        E 0 90 56 60
        E 0 90 60 60
        E 0 90 62 60
        E 120 80 18 00
        E 0 80 1f 00
        E 0 80 3e 00
        E 0 80 48 00
        E 0 80 4a 00
        E 0 80 54 00
        E 0 80 56 00
        E 0 80 60 00
        E 0 80 62 00
        E 120 90 19 60
        E 0 90 1f 60
        E 0 90 57 60
        E 0 90 63 60
        E 120 80 1f 00
        E 0 80 57 00
        E 0 80 63 00
        E 120 80 19 00
        E 0 90 1a 60
        E 0 90 1f 60
        E 0 90 3d 60
        E 0 90 3e 60
        E 0 90 49 60
        E 0 90 4a 60
        E 0 90 55 60
        E 0 90 56 60
        E 0 90 61 60
        E 0 90 62 60
        E 0 90 78 60
        E 0 90 79 60
        E 0 90 7a 60
        E 0 90 7b 60
        E 0 90 7c 60
        E 120 80 1a 00
        E 0 80 1f 00
        E 0 80 3d 00
        E 0 80 3e 00
        E 0 80 49 00
        E 0 80 4a 00
        E 0 80 55 00
        E 0 80 56 00
        E 0 80 61 00
        E 0 80 62 00
        E 120 90 18 60
        E 0 90 1f 60
        E 0 90 54 60
        E 0 90 56 60
        E 0 90 60 60
        E 0 90 62 60
        E 120 80 18 00
        E 0 80 1f 00
        E 0 80 54 00
        E 0 80 56 00
        E 0 80 60 00
        E 0 80 62 00
        E 120 90 18 60
        E 0 90 1f 60
        E 0 90 3e 60
        E 0 90 48 60
        E 0 90 4a 60
        E 0 90 54 60
        E 0 90 56 60
        E 0 90 60 60
        E 0 90 62 60
        E 120 80 18 00
        E 0 80 1f 00
        E 0 80 3e 00
        E 0 80 48 00
        E 0 80 4a 00
        E 0 80 54 00
        E 0 80 56 00
        E 0 80 60 00
        E 0 80 62 00
        E 120 90 1f 60
        E 0 90 56 60
        E 0 90 62 60
        E 120 80 1f 00
        E 0 80 56 00
        E 0 80 62 00
        E 120 80 78 00 -1
        E 0 80 79 00
        E 0 80 7a 00
        E 0 80 7b 00
        E 0 80 7c 00
        E 0 90 1a 60
        E 0 90 1f 60
        E 0 90 3d 60
        E 0 90 3e 60
        E 0 90 49 60
        E 0 90 4a 60
        E 0 90 55 60
        E 0 90 56 60
        E 0 90 61 60
        E 0 90 62 60
        E 120 80 1a 00
        E 0 80 1f 00
        E 0 80 3d 00
        E 0 80 3e 00
        E 0 80 49 00
        E 0 80 4a 00
        E 0 80 55 00
        E 0 80 56 00
        E 0 80 61 00
        E 0 80 62 00
        E 120 90 18 60
        E 0 90 1f 60
        E 0 90 54 60
        E 0 90 56 60
        E 0 90 60 60
        E 0 90 62 60
        E 120 80 18 00
        E 0 80 1f 00
        E 0 80 54 00
        E 0 80 56 00
        E 0 80 60 00
        E 0 80 62 00
        E 120 90 18 60
        E 0 90 1f 60
        E 0 90 3e 60
        E 0 90 48 60
        E 0 90 4a 60
        E 0 90 54 60
        E 0 90 56 60
        E 0 90 60 60
        E 0 90 62 60
        E 120 80 18 00
        E 0 80 1f 00
        E 0 80 3e 00
        E 0 80 48 00
        E 0 80 4a 00
        E 0 80 54 00
        E 0 80 56 00
        E 0 80 60 00
        E 0 80 62 00
        E 120 90 1f 60
        E 0 90 56 60
        E 0 90 62 60
        E 120 80 1f 00
        E 0 80 56 00
        E 0 80 62 00
        E 120 90 1a 60
        E 0 90 1f 60
        E 0 90 3d 60
        E 0 90 3e 60
        E 0 90 49 60
        E 0 90 4a 60
        E 0 90 55 60
        E 0 90 56 60
        E 0 90 61 60
        E 0 90 62 60
        E 120 80 1a 00
        E 0 80 1f 00
        E 0 80 3d 00
        E 0 80 3e 00
        E 0 80 49 00
        E 0 80 4a 00
        E 0 80 55 00
        E 0 80 56 00
        E 0 80 61 00
        E 0 80 62 00
        E 120 90 18 60
        E 0 90 1f 60
        E 0 90 54 60
        E 0 90 56 60
        E 0 90 60 60
        E 0 90 62 60
        E 120 80 18 00
        E 0 80 1f 00
        E 0 80 54 00
        E 0 80 56 00
        E 0 80 60 00
        E 0 80 62 00
        E 120 90 18 60
        E 0 90 1f 60
        E 0 90 3e 60
        E 0 90 48 60
        E 0 90 4a 60
        E 0 90 54 60
        E 0 90 56 60
        E 0 90 60 60
        E 0 90 62 60
        E 120 80 18 00
        E 0 80 1f 00
        E 0 80 3e 00
        E 0 80 48 00
        E 0 80 4a 00
        E 0 80 54 00
        E 0 80 56 00
        E 0 80 60 00
        E 0 80 62 00
        E 120 90 19 60
        E 0 90 1f 60
        E 0 90 57 60
        E 0 90 63 60
        E 120 80 1f 00
        E 0 80 57 00
        E 0 80 63 00
        E 120 80 19 00
        E 0 90 1a 60
        E 0 90 1f 60
        E 0 90 3d 60
        E 0 90 3e 60
        E 0 90 49 60
        E 0 90 4a 60
        E 0 90 55 60
        E 0 90 56 60
        E 0 90 61 60
        E 0 90 62 60
        E 120 80 1a 00
        E 0 80 1f 00
        E 0 80 3d 00
        E 0 80 3e 00
        E 0 80 49 00
        E 0 80 4a 00
        E 0 80 55 00
        E 0 80 56 00
        E 0 80 61 00
        E 0 80 62 00
        E 120 90 18 60
        E 0 90 1f 60
        E 0 90 54 60
        E 0 90 56 60
        E 0 90 60 60
        E 0 90 62 60
        E 120 80 18 00
        E 0 80 1f 00
        E 0 80 54 00
        E 0 80 56 00
        E 0 80 60 00
        E 0 80 62 00
        E 120 90 18 60
        E 0 90 1f 60
        E 0 90 3e 60
        E 0 90 48 60
        E 0 90 4a 60
        E 0 90 54 60
        E 0 90 56 60
        E 0 90 60 60
        E 0 90 62 60
        E 120 80 18 00
        E 0 80 1f 00
        E 0 80 3e 00
        E 0 80 48 00
        E 0 80 4a 00
        E 0 80 54 00
        E 0 80 56 00
        E 0 80 60 00
        E 0 80 62 00
        E 120 90 1f 60
        E 0 90 56 60
        E 0 90 62 60
        E 120 80 1f 00
        E 0 80 56 00
        E 0 80 62 00
        E 120 90 1a 60
        E 0 90 1f 60
        E 0 90 3d 60
        E 0 90 3e 60
        E 0 90 49 60
        E 0 90 4a 60
        E 0 90 55 60
        E 0 90 56 60
        E 0 90 61 60
        E 0 90 62 60
        E 0 90 74 60
        E 120 80 1a 00
        E 0 80 1f 00
        E 0 80 3d 00
        E 0 80 3e 00
        E 0 80 49 00
        E 0 80 4a 00
        E 0 80 55 00
        E 0 80 56 00
        E 0 80 61 00
        E 0 80 62 00
        E 120 90 18 60
        E 0 90 1f 60
        E 0 90 54 60
        E 0 90 56 60
        E 0 90 60 60
        E 0 90 62 60
        E 120 80 18 00
        E 0 80 1f 00
        E 0 80 54 00
        E 0 80 56 00
        E 0 80 60 00
        E 0 80 62 00
        E 120 90 18 60
        E 0 90 1f 60
        E 0 90 3e 60
        E 0 90 48 60
        E 0 90 4a 60
        E 0 90 54 60
        E 0 90 56 60
        E 0 90 60 60
        E 0 90 62 60
        E 120 80 18 00
        E 0 80 1f 00
        E 0 80 3e 00
        E 0 80 48 00
        E 0 80 4a 00
        E 0 80 54 00
        E 0 80 56 00
        E 0 80 60 00
        E 0 80 62 00
        E 120 90 1f 60
        E 0 90 56 60
        E 0 90 62 60
        E 120 80 1f 00
        E 0 80 56 00
        E 0 80 62 00
        E 120 90 1a 60
        E 0 90 1f 60
        E 0 90 3d 60
        E 0 90 3e 60
        E 0 90 49 60
        E 0 90 4a 60
        E 0 90 55 60
        E 0 90 56 60
        E 0 90 61 60
        E 0 90 62 60
        E 120 80 1a 00
        E 0 80 1f 00
        E 0 80 3d 00
        E 0 80 3e 00
        E 0 80 49 00
        E 0 80 4a 00
        E 0 80 55 00
        E 0 80 56 00
        E 0 80 61 00
        E 0 80 62 00
        E 120 90 18 60
        E 0 90 1f 60
        E 0 90 54 60
        E 0 90 56 60
        E 0 90 60 60
        E 0 90 62 60
        E 120 80 18 00
        E 0 80 1f 00
        E 0 80 54 00
        E 0 80 56 00
        E 0 80 60 00
        E 0 80 62 00
        E 120 90 18 60
        E 0 90 1f 60
        E 0 90 3e 60
        E 0 90 48 60
        E 0 90 4a 60
        E 0 90 54 60
        E 0 90 56 60
        E 0 90 60 60
        E 0 90 62 60
        E 120 80 18 00
        E 0 80 1f 00
        E 0 80 3e 00
        E 0 80 48 00
        E 0 80 4a 00
        E 0 80 54 00
        E 0 80 56 00
        E 0 80 60 00
        E 0 80 62 00
        E 120 90 19 60
        E 0 90 1f 60
        E 0 90 57 60
        E 0 90 63 60
        E 120 80 1f 00
        E 0 80 57 00
        E 0 80 63 00
        E 120 80 19 00
        E 0 90 1a 60
        E 0 90 1f 60
        E 0 90 3d 60
        E 0 90 3e 60
        E 0 90 49 60
        E 0 90 4a 60
        E 0 90 55 60
        E 0 90 56 60
        E 0 90 61 60
        E 0 90 62 60
        E 120 80 1a 00
        E 0 80 1f 00
        E 0 80 3d 00
        E 0 80 3e 00
        E 0 80 49 00
        E 0 80 4a 00
        E 0 80 55 00
        E 0 80 56 00
        E 0 80 61 00
        E 0 80 62 00
        E 120 90 18 60
        E 0 90 1f 60
        E 0 90 54 60
        E 0 90 56 60
        E 0 90 60 60
        E 0 90 62 60
        E 120 80 18 00
        E 0 80 1f 00
        E 0 80 54 00
        E 0 80 56 00
        E 0 80 60 00
        E 0 80 62 00
        E 120 90 18 60
        E 0 90 1f 60
        E 0 90 3e 60
        E 0 90 48 60
        E 0 90 4a 60
        E 0 90 54 60
        E 0 90 56 60
        E 0 90 60 60
        E 0 90 62 60
        E 120 80 18 00
        E 0 80 1f 00
        E 0 80 3e 00
        E 0 80 48 00
        E 0 80 4a 00
        E 0 80 54 00
        E 0 80 56 00
        E 0 80 60 00
        E 0 80 62 00
        E 120 90 1f 60
        E 0 90 56 60
        E 0 90 62 60
        E 120 80 1f 00
        E 0 80 56 00
        E 0 80 62 00
        E 120 90 1a 60
        E 0 90 1f 60
        E 0 90 3d 60
        E 0 90 3e 60
        E 0 90 49 60
        E 0 90 4a 60
        E 0 90 55 60
        E 0 90 56 60
        E 0 90 61 60
        E 0 90 62 60
        E 120 80 74 00
        E 0 80 1a 00
        E 0 80 1f 00
        E 0 80 3d 00
        E 0 80 3e 00
        E 0 80 49 00
        E 0 80 4a 00
        E 0 80 55 00
        E 0 80 56 00
        E 0 80 61 00
        E 0 80 62 00
        E 120 90 18 60
        E 0 90 1f 60
        E 0 90 54 60
        E 0 90 56 60
        E 0 90 60 60
        E 0 90 62 60
        E 120 80 18 00
        E 0 80 1f 00
        E 0 80 54 00
        E 0 80 56 00
        E 0 80 60 00
        E 0 80 62 00
        E 120 90 18 60
        E 0 90 1f 60
        E 0 90 3e 60
        E 0 90 48 60
        E 0 90 4a 60
        E 0 90 54 60
        E 0 90 56 60
        E 0 90 60 60
        E 0 90 62 60
        E 120 80 18 00
        E 0 80 1f 00
        E 0 80 3e 00
        E 0 80 48 00
        E 0 80 4a 00
        E 0 80 54 00
        E 0 80 56 00
        E 0 80 60 00
        E 0 80 62 00
        E 120 90 1f 60
        E 0 90 56 60
        E 0 90 62 60
        E 120 80 1f 00
        E 0 80 56 00
        E 0 80 62 00
        E 120 90 1a 60
        E 0 90 1f 60
        E 0 90 3d 60
        E 0 90 3e 60
        E 0 90 49 60
        E 0 90 4a 60
        E 0 90 55 60
        E 0 90 56 60
        E 0 90 61 60
        E 0 90 62 60
        E 0 90 78 60
        E 0 90 79 60
        E 0 90 7a 60
        E 0 90 7b 60
        E 0 90 7c 60
        E 120 80 1a 00
        E 0 80 1f 00
        E 0 80 3d 00
        E 0 80 3e 00
        E 0 80 49 00
        E 0 80 4a 00
        E 0 80 55 00
        E 0 80 56 00
        E 0 80 61 00
        E 0 80 62 00
        E 120 90 18 60
        E 0 90 1f 60
        E 0 90 54 60
        E 0 90 56 60
        E 0 90 60 60
        E 0 90 62 60
        E 120 80 18 00
        E 0 80 1f 00
        E 0 80 54 00
        E 0 80 56 00
        E 0 80 60 00
        E 0 80 62 00
        E 120 90 19 60
        E 0 90 1f 60
        E 0 90 3f 60
        E 0 90 4b 60
        E 0 90 57 60
        E 0 90 63 60
        E 120 80 1f 00
        E 0 80 3f 00
        E 0 80 4b 00
        E 0 80 57 00
        E 0 80 63 00
        E 360 80 78 00 -1
        E 0 80 79 00
        E 0 80 7a 00
        E 0 80 7b 00
        E 0 80 7c 00
        E 0 80 19 00
        E 0 90 18 60
        E 0 90 24 60
        E 0 90 40 60
        E 0 90 48 60
        E 0 90 4c 60
        E 0 90 54 60
        E 0 90 58 60
        E 0 90 60 60
        E 0 90 64 60
        E 120 80 18 00
        E 0 80 24 00
        E 0 80 40 00
        E 0 80 48 00
        E 0 80 4c 00
        E 0 80 54 00
        E 0 80 58 00
        E 0 80 60 00
        E 0 80 64 00
        E 2760 90 1d 60
        E 0 90 3e 60
        E 0 90 4a 60
        E 0 90 56 60
        E 0 90 62 60
        E 0 90 6e 60
        E 120 80 1d 00
        E 0 80 3e 00
        E 0 80 4a 00
        E 0 80 56 00
        E 0 80 62 00
        E 360 90 1d 60
        E 0 90 3e 60
        E 0 90 4a 60
        E 0 90 56 60
        E 0 90 62 60
        E 120 80 1d 00
        E 0 80 3e 00
        E 0 80 4a 00
        E 0 80 56 00
        E 0 80 62 00
        E 360 90 1d 60
        E 0 90 3e 60
        E 0 90 4a 60
        E 0 90 56 60
        E 0 90 62 60
        E 0 90 78 60
        E 0 90 79 60
        E 0 90 7a 60
        E 0 90 7b 60
        E 0 90 7c 60
        E 120 80 1d 00
        E 0 80 3e 00
        E 0 80 4a 00
        E 0 80 56 00
        E 0 80 62 00
        E 120 90 1a 60
        E 0 90 55 60
        E 0 90 61 60
        E 120 80 1a 00
        E 0 80 55 00
        E 0 80 61 00
        E 0 90 2e 60
        E 0 90 62 60
        E 120 80 2e 00
        E 0 80 62 00
        E 0 90 31 60
        E 0 90 3f 60
        E 0 90 4b 60
        E 0 90 57 60
        E 0 90 63 60
        E 0 90 6f 60
        E 120 80 31 00
        E 0 80 3f 00
        E 0 80 4b 00
        E 0 80 57 00
        E 0 80 63 00
        E 120 80 6e 00
        E 0 80 6f 00
        E 240 80 78 00 -1
        E 0 80 79 00
        E 0 80 7a 00
        E 0 80 7b 00
        E 0 80 7c 00
        E 0 90 18 60
        E 0 90 24 60
        E 0 90 40 60
        E 0 90 48 60
        E 0 90 4c 60
        E 0 90 54 60
        E 0 90 58 60
        E 0 90 60 60
        E 0 90 64 60
        E 120 80 18 00
        E 0 80 24 00
        E 0 80 40 00
        E 0 80 48 00
        E 0 80 4c 00
        E 0 80 54 00
        E 0 80 58 00
        E 0 80 60 00
        E 0 80 64 00
        E 120 90 19 60
        E 240 80 19 00
        E 0 90 1a 60
        E 0 90 2a 60
        E 0 90 3d 60
        E 0 90 3f 60
        E 0 90 49 60
        E 0 90 4b 60
        E 0 90 55 60
        E 0 90 57 60
        E 0 90 61 60
        E 0 90 63 60
        E 120 80 1a 00
        E 0 80 2a 00
        E 0 80 3d 00
        E 0 80 3f 00
        E 0 80 49 00
        E 0 80 4b 00
        E 0 80 55 00
        E 0 80 57 00
        E 0 80 61 00
        E 0 80 63 00
        E 120 90 18 60
        E 0 90 19 60
        E 0 90 54 60
        E 0 90 60 60
        E 120 80 18 00
        E 0 80 54 00
        E 0 80 60 00
        E 120 80 19 00
        E 0 90 18 60
        E 0 90 2a 60
        E 0 90 3f 60
        E 0 90 48 60
        E 0 90 4b 60
        E 0 90 54 60
        E 0 90 57 60
        E 0 90 60 60
        E 0 90 63 60
        E 120 80 18 00
        E 0 80 2a 00
        E 0 80 3f 00
        E 0 80 48 00
        E 0 80 4b 00
        E 0 80 54 00
        E 0 80 57 00
        E 0 80 60 00
        E 0 80 63 00
        E 120 90 19 60
        E 240 80 19 00
        E 0 90 1a 60
        E 0 90 2a 60
        E 0 90 3d 60
        E 0 90 3f 60
        E 0 90 49 60
        E 0 90 4b 60
        E 0 90 55 60
        E 0 90 57 60
        E 0 90 61 60
        E 0 90 63 60
        E 120 80 1a 00
        E 0 80 2a 00
        E 0 80 3d 00
        E 0 80 3f 00
        E 0 80 49 00
        E 0 80 4b 00
        E 0 80 55 00
        E 0 80 57 00
        E 0 80 61 00
        E 0 80 63 00
        E 120 90 18 60
        E 0 90 19 60
        E 0 90 54 60
        E 0 90 60 60
        E 120 80 18 00
        E 0 80 54 00
        E 0 80 60 00
        E 120 80 19 00
        E 0 90 18 60
        E 0 90 2a 60
        E 0 90 3f 60
        E 0 90 48 60
        E 0 90 4b 60
        E 0 90 54 60
        E 0 90 57 60
        E 0 90 60 60
        E 0 90 63 60
        E 120 80 18 00
        E 0 80 2a 00
        E 0 80 3f 00
        E 0 80 48 00
        E 0 80 4b 00
        E 0 80 54 00
        E 0 80 57 00
        E 0 80 60 00
        E 0 80 63 00
        E 120 90 19 60
        E 0 90 1a 60
        E 0 90 55 60
        E 0 90 61 60
        E 120 80 1a 00
        E 0 80 55 00
        E 0 80 61 00
        E 120 80 19 00
        E 0 90 1a 60
        E 0 90 2a 60
        E 0 90 3d 60
        E 0 90 3f 60
        E 0 90 49 60
        E 0 90 4b 60
        E 0 90 55 60
        E 0 90 57 60
        E 0 90 61 60
        E 0 90 63 60
        E 120 80 1a 00
        E 0 80 2a 00
        E 0 80 3d 00
        E 0 80 3f 00
        E 0 80 49 00
        E 0 80 4b 00
        E 0 80 55 00
        E 0 80 57 00
        E 0 80 61 00
        E 0 80 63 00
        E 120 90 19 60
        E 240 80 19 00
        E 0 90 18 60
        E 0 90 2a 60
        E 0 90 3f 60
        E 0 90 48 60
        E 0 90 4b 60
        E 0 90 54 60
        E 0 90 57 60
        E 0 90 60 60
        E 0 90 63 60
        E 120 80 18 00
        E 0 80 2a 00
        E 0 80 3f 00
        E 0 80 48 00
        E 0 80 4b 00
        E 0 80 54 00
        E 0 80 57 00
        E 0 80 60 00
        E 0 80 63 00
        E 120 90 19 60
        E 240 80 19 00
        E 0 90 1a 60
        E 0 90 2a 60
        E 0 90 3d 60
        E 0 90 3f 60
        E 0 90 49 60
        E 0 90 4b 60
        E 0 90 55 60
        E 0 90 57 60
        E 0 90 61 60
        E 0 90 63 60
        E 120 80 1a 00
        E 0 80 2a 00
        E 0 80 3d 00
        E 0 80 3f 00
        E 0 80 49 00
        E 0 80 4b 00
        E 0 80 55 00
        E 0 80 57 00
        E 0 80 61 00
        E 0 80 63 00
        E 120 90 18 60
        E 0 90 19 60
        E 0 90 54 60
        E 0 90 60 60
        E 120 80 18 00
        E 0 80 54 00
        E 0 80 60 00
        E 120 80 19 00
        E 0 90 18 60
        E 0 90 2a 60
        E 0 90 3f 60
        E 0 90 48 60
        E 0 90 4b 60
        E 0 90 54 60
        E 0 90 57 60
        E 0 90 60 60
        E 0 90 63 60
        E 120 80 18 00
        E 0 80 2a 00
        E 0 80 3f 00
        E 0 80 48 00
        E 0 80 4b 00
        E 0 80 54 00
        E 0 80 57 00
        E 0 80 60 00
        E 0 80 63 00
        E 120 90 19 60
        E 240 80 19 00
        E 0 90 1a 60
        E 0 90 2a 60
        E 0 90 3d 60
        E 0 90 3f 60
        E 0 90 49 60
        E 0 90 4b 60
        E 0 90 55 60
        E 0 90 57 60
        E 0 90 61 60
        E 0 90 63 60
        E 120 80 1a 00
        E 0 80 2a 00
        E 0 80 3d 00
        E 0 80 3f 00
        E 0 80 49 00
        E 0 80 4b 00
        E 0 80 55 00
        E 0 80 57 00
        E 0 80 61 00
        E 0 80 63 00
        E 120 90 18 60
        E 0 90 19 60
        E 0 90 54 60
        E 0 90 60 60
        E 120 80 18 00
        E 0 80 54 00
        E 0 80 60 00
        E 120 80 19 00
        E 0 90 18 60
        E 0 90 2a 60
        E 0 90 3f 60
        E 0 90 48 60
        E 0 90 4b 60
        E 0 90 54 60
        E 0 90 57 60
        E 0 90 60 60
        E 0 90 63 60
        E 0 90 78 60
        E 0 90 79 60
        E 0 90 7a 60
        E 0 90 7b 60
        E 0 90 7c 60
        E 120 80 18 00
        E 0 80 2a 00
        E 0 80 3f 00
        E 0 80 48 00
        E 0 80 4b 00
        E 0 80 54 00
        E 0 80 57 00
        E 0 80 60 00
        E 0 80 63 00
        E 120 90 19 60
        E 0 90 1a 60
        E 0 90 55 60
        E 0 90 61 60
        E 120 80 1a 00
        E 0 80 55 00
        E 0 80 61 00
        E 120 80 19 00
        E 0 90 18 60
        E 0 90 2a 60
        E 0 90 3f 60
        E 0 90 48 60
        E 0 90 4b 60
        E 0 90 54 60
        E 0 90 57 60
        E 0 90 60 60
        E 0 90 63 60
        E 120 80 18 00
        E 0 80 2a 00
        E 0 80 3f 00
        E 0 80 48 00
        E 0 80 4b 00
        E 0 80 54 00
        E 0 80 57 00
        E 0 80 60 00
        E 0 80 63 00
        E 120 90 19 60
        E 0 90 1a 60
        E 0 90 55 60
        E 0 90 61 60
        E 120 80 1a 00
        E 0 80 55 00
        E 0 80 61 00
        E 120 80 78 00 -1
        E 0 80 79 00
        E 0 80 7a 00
        E 0 80 7b 00
        E 0 80 7c 00
        E 0 80 19 00
        E 0 90 18 60
        E 0 90 2a 60
        E 0 90 3f 60
        E 0 90 48 60
        E 0 90 4b 60
        E 0 90 54 60
        E 0 90 57 60
        E 0 90 60 60
        E 0 90 63 60
        E 120 80 18 00
        E 0 80 2a 00
        E 0 80 3f 00
        E 0 80 48 00
        E 0 80 4b 00
        E 0 80 54 00
        E 0 80 57 00
        E 0 80 60 00
        E 0 80 63 00
        E 120 90 19 60
        E 240 80 19 00
        E 0 90 1a 60
        E 0 90 2a 60
        E 0 90 3d 60
        E 0 90 3f 60
        E 0 90 49 60
        E 0 90 4b 60
        E 0 90 55 60
        E 0 90 57 60
        E 0 90 61 60
        E 0 90 63 60
        E 120 80 1a 00
        E 0 80 2a 00
        E 0 80 3d 00
        E 0 80 3f 00
        E 0 80 49 00
        E 0 80 4b 00
        E 0 80 55 00
        E 0 80 57 00
        E 0 80 61 00
        E 0 80 63 00
        E 120 90 18 60
        E 0 90 19 60
        E 0 90 54 60
        E 0 90 60 60
        E 120 80 18 00
        E 0 80 54 00
        E 0 80 60 00
        E 120 80 19 00
        E 0 90 18 60
        E 0 90 2a 60
        E 0 90 3f 60
        E 0 90 48 60
        E 0 90 4b 60
        E 0 90 54 60
        E 0 90 57 60
        E 0 90 60 60
        E 0 90 63 60
        E 120 80 18 00
        E 0 80 2a 00
        E 0 80 3f 00
        E 0 80 48 00
        E 0 80 4b 00
        E 0 80 54 00
        E 0 80 57 00
        E 0 80 60 00
        E 0 80 63 00
        E 120 90 19 60
        E 240 80 19 00
        E 0 90 1a 60
        E 0 90 2a 60
        E 0 90 3d 60
        E 0 90 3f 60
        E 0 90 49 60
        E 0 90 4b 60
        E 0 90 55 60
        E 0 90 57 60
        E 0 90 61 60
        E 0 90 63 60
        E 120 80 1a 00
        E 0 80 2a 00
        E 0 80 3d 00
        E 0 80 3f 00
        E 0 80 49 00
        E 0 80 4b 00
        E 0 80 55 00
        E 0 80 57 00
        E 0 80 61 00
        E 0 80 63 00
        E 120 90 18 60
        E 0 90 19 60
        E 0 90 54 60
        E 0 90 60 60
        E 120 80 18 00
        E 0 80 54 00
        E 0 80 60 00
        E 120 80 19 00
        E 0 90 18 60
        E 0 90 2a 60
        E 0 90 3f 60
        E 0 90 48 60
        E 0 90 4b 60
        E 0 90 54 60
        E 0 90 57 60
        E 0 90 60 60
        E 0 90 63 60
        E 120 80 18 00
        E 0 80 2a 00
        E 0 80 3f 00
        E 0 80 48 00
        E 0 80 4b 00
        E 0 80 54 00
        E 0 80 57 00
        E 0 80 60 00
        E 0 80 63 00
        E 120 90 19 60
        E 0 90 1a 60
        E 0 90 55 60
        E 0 90 61 60
        E 120 80 1a 00
        E 0 80 55 00
        E 0 80 61 00
        E 120 80 19 00
        E 0 90 1a 60
        E 0 90 2a 60
        E 0 90 3d 60
        E 0 90 3f 60
        E 0 90 49 60
        E 0 90 4b 60
        E 0 90 55 60
        E 0 90 57 60
        E 0 90 61 60
        E 0 90 63 60
        E 120 80 1a 00
        E 0 80 2a 00
        E 0 80 3d 00
        E 0 80 3f 00
        E 0 80 49 00
        E 0 80 4b 00
        E 0 80 55 00
        E 0 80 57 00
        E 0 80 61 00
        E 0 80 63 00
        E 120 90 19 60
        E 240 80 19 00
        E 0 90 18 60
        E 0 90 2a 60
        E 0 90 3f 60
        E 0 90 48 60
        E 0 90 4b 60
        E 0 90 54 60
        E 0 90 57 60
        E 0 90 60 60
        E 0 90 63 60
        E 120 80 18 00
        E 0 80 2a 00
        E 0 80 3f 00
        E 0 80 48 00
        E 0 80 4b 00
        E 0 80 54 00
        E 0 80 57 00
        E 0 80 60 00
        E 0 80 63 00
        E 120 90 19 60
        E 240 80 19 00
        E 0 90 1a 60
        E 0 90 2a 60
        E 0 90 3d 60
        E 0 90 3f 60
        E 0 90 49 60
        E 0 90 4b 60
        E 0 90 55 60
        E 0 90 57 60
        E 0 90 61 60
        E 0 90 63 60
        E 120 80 1a 00
        E 0 80 2a 00
        E 0 80 3d 00
        E 0 80 3f 00
        E 0 80 49 00
        E 0 80 4b 00
        E 0 80 55 00
        E 0 80 57 00
        E 0 80 61 00
        E 0 80 63 00
        E 120 90 18 60
        E 0 90 19 60
        E 0 90 54 60
        E 0 90 60 60
        E 120 80 18 00
        E 0 80 54 00
        E 0 80 60 00
        E 120 80 19 00
        E 0 90 18 60
        E 0 90 2a 60
        E 0 90 3f 60
        E 0 90 48 60
        E 0 90 4b 60
        E 0 90 54 60
        E 0 90 57 60
        E 0 90 60 60
        E 0 90 63 60
        E 120 80 18 00
        E 0 80 2a 00
        E 0 80 3f 00
        E 0 80 48 00
        E 0 80 4b 00
        E 0 80 54 00
        E 0 80 57 00
        E 0 80 60 00
        E 0 80 63 00
        E 120 90 19 60
        E 240 80 19 00
        E 0 90 1a 60
        E 0 90 2a 60
        E 0 90 3d 60
        E 0 90 3f 60
        E 0 90 49 60
        E 0 90 4b 60
        E 0 90 55 60
        E 0 90 57 60
        E 0 90 61 60
        E 0 90 63 60
        E 120 80 1a 00
        E 0 80 2a 00
        E 0 80 3d 00
        E 0 80 3f 00
        E 0 80 49 00
        E 0 80 4b 00
        E 0 80 55 00
        E 0 80 57 00
        E 0 80 61 00
        E 0 80 63 00
        E 120 90 18 60
        E 0 90 19 60
        E 0 90 54 60
        E 0 90 60 60
        E 120 80 18 00
        E 0 80 54 00
        E 0 80 60 00
        E 120 80 19 00
        E 0 90 18 60
        E 0 90 1a 60
        E 0 90 2a 60
        E 0 90 3f 60
        E 0 90 48 60
        E 0 90 4b 60
        E 0 90 54 60
        E 0 90 57 60
        E 0 90 60 60
        E 0 90 61 60
        E 0 90 63 60
        E 0 90 74 60
        E 120 80 18 00
        E 0 80 1a 00
        E 0 80 2a 00
        E 0 80 3f 00
        E 0 80 48 00
        E 0 80 4b 00
        E 0 80 54 00
        E 0 80 57 00
        E 0 80 60 00
        E 0 80 61 00
        E 0 80 63 00
        E 120 90 18 60
        E 0 90 19 60
        E 0 90 1a 60
        E 0 90 2a 60
        E 0 90 54 60
        E 0 90 55 60
        E 0 90 60 60
        E 0 90 61 60
        E 0 90 63 60
        E 120 80 18 00
        E 0 80 1a 00
        E 0 80 2a 00
        E 0 80 54 00
        E 0 80 55 00
        E 0 80 60 00
        E 0 80 61 00
        E 0 80 63 00
        E 120 80 19 00
        E 0 90 18 60
        E 0 90 1a 60
        E 0 90 2a 60
        E 0 90 3d 60
        E 0 90 3f 60
        E 0 90 49 60
        E 0 90 4b 60
        E 0 90 54 60
        E 0 90 55 60
        E 0 90 57 60
        E 0 90 60 60
        E 0 90 61 60
        E 0 90 63 60
        E 120 80 18 00
        E 0 80 1a 00
        E 0 80 2a 00
        E 0 80 3d 00
        E 0 80 3f 00
        E 0 80 49 00
        E 0 80 4b 00
        E 0 80 54 00
        E 0 80 55 00
        E 0 80 57 00
        E 0 80 60 00
        E 0 80 61 00
        E 0 80 63 00
        E 120 90 18 60
        E 0 90 19 60
        E 0 90 1a 60
        E 0 90 2a 60
        E 0 90 54 60
        E 0 90 55 60
        E 0 90 60 60
        E 0 90 61 60
        E 0 90 63 60
        E 120 80 18 00
        E 0 80 1a 00
        E 0 80 2a 00
        E 0 80 54 00
        E 0 80 55 00
        E 0 80 60 00
        E 0 80 61 00
        E 0 80 63 00
        E 120 80 19 00
        E 0 90 18 60
        E 0 90 25 60
        E 0 90 40 60
        E 0 90 48 60
        E 0 90 4c 60
        E 0 90 54 60
        E 0 90 58 60
        E 0 90 60 60
        E 0 90 64 60
        E 120 80 74 00
        E 0 80 18 00
        E 0 80 25 00
        E 0 80 40 00
        E 0 80 48 00
        E 0 80 4c 00
        E 0 80 54 00
        E 0 80 58 00
        E 0 80 60 00
        E 0 80 64 00
        E 120 90 19 60
        E 240 80 19 00
        E 0 90 2a 60
        E 0 90 3f 60
        E 0 90 4b 60
        E 0 90 57 60
        E 0 90 63 60
        E 120 80 2a 00
        E 0 80 3f 00
        E 0 80 4b 00
        E 0 80 57 00
        E 0 80 63 00
        E 120 90 19 60
        E 240 80 19 00
        E 0 90 1a 60
        E 0 90 2a 60
        E 0 90 3d 60
        E 0 90 3f 60
        E 0 90 49 60
        E 0 90 4b 60
        E 0 90 55 60
        E 0 90 57 60
        E 0 90 61 60
        E 0 90 63 60
        E 120 80 1a 00
        E 0 80 2a 00
        E 0 80 3d 00
        E 0 80 3f 00
        E 0 80 49 00
        E 0 80 4b 00
        E 0 80 55 00
        E 0 80 57 00
        E 0 80 61 00
        E 0 80 63 00
        E 120 90 19 60
        E 240 80 19 00
        E 0 90 2a 60
        E 0 90 3f 60
        E 0 90 4b 60
        E 0 90 57 60
        E 0 90 63 60
        E 120 80 2a 00
        E 0 80 3f 00
        E 0 80 4b 00
        E 0 80 57 00
        E 0 80 63 00
        E 120 90 19 60
        E 80 90 1c 60
        E 0 90 61 60
        E 80 80 1c 00
        E 0 80 61 00
        E 0 90 1c 60
        E 0 90 61 60
        E 80 80 19 00
        E 0 80 1c 00
        E 0 80 61 00
        E 0 90 18 60
        E 0 90 2a 60
        E 0 90 3f 60
        E 0 90 48 60
        E 0 90 4b 60
        E 0 90 54 60
        E 0 90 57 60
        E 0 90 60 60
        E 0 90 63 60
        E 120 80 18 00
        E 0 80 2a 00
        E 0 80 3f 00
        E 0 80 48 00
        E 0 80 4b 00
        E 0 80 54 00
        E 0 80 57 00
        E 0 80 60 00
        E 0 80 63 00
        E 120 90 19 60
        E 240 80 19 00
        E 0 90 2a 60
        E 0 90 3f 60
        E 0 90 4b 60
        E 0 90 57 60
        E 0 90 63 60
        E 120 80 2a 00
        E 0 80 3f 00
        E 0 80 4b 00
        E 0 80 57 00
        E 0 80 63 00
        E 120 90 19 60
        E 240 80 19 00
        E 0 90 18 60
        E 0 90 2a 60
        E 0 90 3f 60
        E 0 90 48 60
        E 0 90 4b 60
        E 0 90 54 60
        E 0 90 57 60
        E 0 90 60 60
        E 0 90 63 60
        E 120 80 18 00
        E 0 80 2a 00
        E 0 80 3f 00
        E 0 80 48 00
        E 0 80 4b 00
        E 0 80 54 00
        E 0 80 57 00
        E 0 80 60 00
        E 0 80 63 00
        E 120 90 19 60
        E 240 80 19 00
        E 0 90 2a 60
        E 0 90 3f 60
        E 0 90 4b 60
        E 0 90 57 60
        E 0 90 63 60
        E 120 80 2a 00
        E 0 80 3f 00
        E 0 80 4b 00
        E 0 80 57 00
        E 0 80 63 00
        E 120 90 19 60
        E 240 80 19 00
        E 0 90 1a 60
        E 0 90 2a 60
        E 0 90 3d 60
        E 0 90 3f 60
        E 0 90 49 60
        E 0 90 4b 60
        E 0 90 55 60
        E 0 90 57 60
        E 0 90 61 60
        E 0 90 63 60
        E 120 80 1a 00
        E 0 80 2a 00
        E 0 80 3d 00
        E 0 80 3f 00
        E 0 80 49 00
        E 0 80 4b 00
        E 0 80 55 00
        E 0 80 57 00
        E 0 80 61 00
        E 0 80 63 00
        E 120 90 19 60
        E 240 80 19 00
        E 0 90 2a 60
        E 0 90 3f 60
        E 0 90 4b 60
        E 0 90 57 60
        E 0 90 63 60
        E 120 80 2a 00
        E 0 80 3f 00
        E 0 80 4b 00
        E 0 80 57 00
        E 0 80 63 00
        E 120 90 19 60
        E 80 90 1c 60
        E 0 90 61 60
        E 80 80 1c 00
        E 0 80 61 00
        E 0 90 1c 60
        E 0 90 61 60
        E 80 80 19 00
        E 0 80 1c 00
        E 0 80 61 00
        E 0 90 18 60
        E 0 90 2a 60
        E 0 90 3f 60
        E 0 90 48 60
        E 0 90 4b 60
        E 0 90 54 60
        E 0 90 57 60
        E 0 90 60 60
        E 0 90 63 60
        E 0 90 78 60
        E 0 90 79 60
        E 0 90 7a 60
        E 0 90 7b 60
        E 0 90 7c 60
        E 120 80 18 00
        E 0 80 2a 00
        E 0 80 3f 00
        E 0 80 48 00
        E 0 80 4b 00
        E 0 80 54 00
        E 0 80 57 00
        E 0 80 60 00
        E 0 80 63 00
        E 120 90 19 60
        E 240 80 19 00
        E 0 90 2a 60
        E 0 90 3f 60
        E 0 90 4b 60
        E 0 90 57 60
        E 0 90 63 60
        E 120 80 2a 00
        E 0 80 3f 00
        E 0 80 4b 00
        E 0 80 57 00
        E 0 80 63 00
        E 120 90 19 60
        E 240 80 78 00 -1
        E 0 80 79 00
        E 0 80 7a 00
        E 0 80 7b 00
        E 0 80 7c 00
        E 0 80 19 00
        E 0 90 18 60
        E 0 90 2a 60
        E 0 90 3f 60
        E 0 90 48 60
        E 0 90 4b 60
        E 0 90 54 60
        E 0 90 57 60
        E 0 90 60 60
        E 0 90 63 60
        E 120 80 18 00
        E 0 80 2a 00
        E 0 80 3f 00
        E 0 80 48 00
        E 0 80 4b 00
        E 0 80 54 00
        E 0 80 57 00
        E 0 80 60 00
        E 0 80 63 00
        E 120 90 19 60
        E 240 80 19 00
        E 0 90 2a 60
        E 0 90 3f 60
        E 0 90 4b 60
        E 0 90 57 60
        E 0 90 63 60
        E 120 80 2a 00
        E 0 80 3f 00
        E 0 80 4b 00
        E 0 80 57 00
        E 0 80 63 00
        E 120 90 19 60
        E 240 80 19 00
        E 0 90 1a 60
        E 0 90 2a 60
        E 0 90 3d 60
        E 0 90 3f 60
        E 0 90 49 60
        E 0 90 4b 60
        E 0 90 55 60
        E 0 90 57 60
        E 0 90 61 60
        E 0 90 63 60
        E 120 80 1a 00
        E 0 80 2a 00
        E 0 80 3d 00
        E 0 80 3f 00
        E 0 80 49 00
        E 0 80 4b 00
        E 0 80 55 00
        E 0 80 57 00
        E 0 80 61 00
        E 0 80 63 00
        E 120 90 19 60
        E 240 80 19 00
        E 0 90 2a 60
        E 0 90 3f 60
        E 0 90 4b 60
        E 0 90 57 60
        E 0 90 63 60
        E 120 80 2a 00
        E 0 80 3f 00
        E 0 80 4b 00
        E 0 80 57 00
        E 0 80 63 00
        E 120 90 19 60
        E 80 90 1c 60
        E 0 90 61 60
        E 80 80 1c 00
        E 0 80 61 00
        E 0 90 1c 60
        E 0 90 61 60
        E 80 80 19 00
        E 0 80 1c 00
        E 0 80 61 00
        E 0 90 18 60
        E 0 90 2a 60
        E 0 90 3f 60
        E 0 90 48 60
        E 0 90 4b 60
        E 0 90 54 60
        E 0 90 57 60
        E 0 90 60 60
        E 0 90 63 60
        E 120 80 18 00
        E 0 80 2a 00
        E 0 80 3f 00
        E 0 80 48 00
        E 0 80 4b 00
        E 0 80 54 00
        E 0 80 57 00
        E 0 80 60 00
        E 0 80 63 00
        E 120 90 19 60
        E 240 80 19 00
        E 0 90 2a 60
        E 0 90 3f 60
        E 0 90 4b 60
        E 0 90 57 60
        E 0 90 63 60
        E 120 80 2a 00
        E 0 80 3f 00
        E 0 80 4b 00
        E 0 80 57 00
        E 0 80 63 00
        E 120 90 19 60
        E 240 80 19 00
        E 0 90 18 60
        E 0 90 2a 60
        E 0 90 3f 60
        E 0 90 48 60
        E 0 90 4b 60
        E 0 90 54 60
        E 0 90 57 60
        E 0 90 60 60
        E 0 90 63 60
        E 120 80 18 00
        E 0 80 2a 00
        E 0 80 3f 00
        E 0 80 48 00
        E 0 80 4b 00
        E 0 80 54 00
        E 0 80 57 00
        E 0 80 60 00
        E 0 80 63 00
        E 120 90 19 60
        E 240 80 19 00
        E 0 90 2a 60
        E 0 90 3f 60
        E 0 90 4b 60
        E 0 90 57 60
        E 0 90 63 60
        E 120 80 2a 00
        E 0 80 3f 00
        E 0 80 4b 00
        E 0 80 57 00
        E 0 80 63 00
        E 120 90 19 60
        E 240 80 19 00
        E 0 90 1a 60
        E 0 90 2a 60
        E 0 90 3d 60
        E 0 90 3f 60
        E 0 90 49 60
        E 0 90 4b 60
        E 0 90 55 60
        E 0 90 57 60
        E 0 90 61 60
        E 0 90 63 60
        E 120 80 1a 00
        E 0 80 2a 00
        E 0 80 3d 00
        E 0 80 3f 00
        E 0 80 49 00
        E 0 80 4b 00
        E 0 80 55 00
        E 0 80 57 00
        E 0 80 61 00
        E 0 80 63 00
        E 120 90 19 60
        E 240 80 19 00
        E 0 90 2a 60
        E 0 90 3f 60
        E 0 90 4b 60
        E 0 90 57 60
        E 0 90 63 60
        E 120 80 2a 00
        E 0 80 3f 00
        E 0 80 4b 00
        E 0 80 57 00
        E 0 80 63 00
        E 120 90 19 60
        E 80 90 1c 60
        E 0 90 61 60
        E 80 80 1c 00
        E 0 80 61 00
        E 0 90 1c 60
        E 0 90 61 60
        E 80 80 19 00
        E 0 80 1c 00
        E 0 80 61 00
        E 0 90 18 60
        E 0 90 2a 60
        E 0 90 3f 60
        E 0 90 48 60
        E 0 90 4b 60
        E 0 90 54 60
        E 0 90 57 60
        E 0 90 60 60
        E 0 90 63 60
        E 0 90 78 60
        E 0 90 79 60
        E 0 90 7a 60
        E 0 90 7b 60
        E 0 90 7c 60
        E 120 80 18 00
        E 0 80 2a 00
        E 0 80 3f 00
        E 0 80 48 00
        E 0 80 4b 00
        E 0 80 54 00
        E 0 80 57 00
        E 0 80 60 00
        E 0 80 63 00
        E 120 90 19 60
        E 240 80 19 00
        E 0 90 2a 60
        E 0 90 3f 60
        E 0 90 4b 60
        E 0 90 57 60
        E 0 90 63 60
        E 120 80 2a 00
        E 0 80 3f 00
        E 0 80 4b 00
        E 0 80 57 00
        E 0 80 63 00
        E 120 90 19 60
        E 240 80 78 00 -1
        E 0 80 79 00
        E 0 80 7a 00
        E 0 80 7b 00
        E 0 80 7c 00
        E 0 80 19 00
        E 0 90 18 60
        E 0 90 2a 60
        E 0 90 3f 60
        E 0 90 48 60
        E 0 90 4b 60
        E 0 90 54 60
        E 0 90 57 60
        E 0 90 60 60
        E 0 90 63 60
        E 0 90 74 60
        E 120 80 18 00
        E 0 80 2a 00
        E 0 80 3f 00
        E 0 80 48 00
        E 0 80 4b 00
        E 0 80 54 00
        E 0 80 57 00
        E 0 80 60 00
        E 0 80 63 00
        E 120 90 19 60
        E 240 80 19 00
        E 0 90 2a 60
        E 0 90 3f 60
        E 0 90 4b 60
        E 0 90 57 60
        E 0 90 63 60
        E 120 80 2a 00
        E 0 80 3f 00
        E 0 80 4b 00
        E 0 80 57 00
        E 0 80 63 00
        E 120 90 19 60
        E 240 80 19 00
        E 0 90 1a 60
        E 0 90 2a 60
        E 0 90 3d 60
        E 0 90 3f 60
        E 0 90 49 60
        E 0 90 4b 60
        E 0 90 55 60
        E 0 90 57 60
        E 0 90 61 60
        E 0 90 63 60
        E 120 80 1a 00
        E 0 80 2a 00
        E 0 80 3d 00
        E 0 80 3f 00
        E 0 80 49 00
        E 0 80 4b 00
        E 0 80 55 00
        E 0 80 57 00
        E 0 80 61 00
        E 0 80 63 00
        E 120 90 19 60
        E 240 80 19 00
        E 0 90 2a 60
        E 0 90 3f 60
        E 0 90 4b 60
        E 0 90 57 60
        E 0 90 63 60
        E 120 80 2a 00
        E 0 80 3f 00
        E 0 80 4b 00
        E 0 80 57 00
        E 0 80 63 00
        E 120 90 19 60
        E 80 90 1c 60
        E 0 90 61 60
        E 80 80 1c 00
        E 0 80 61 00
        E 0 90 1c 60
        E 0 90 61 60
        E 80 80 19 00
        E 0 80 1c 00
        E 0 80 61 00
        E 0 90 18 60
        E 0 90 2a 60
        E 0 90 3f 60
        E 0 90 48 60
        E 0 90 4b 60
        E 0 90 54 60
        E 0 90 57 60
        E 0 90 60 60
        E 0 90 63 60
        E 120 80 18 00
        E 0 80 2a 00
        E 0 80 3f 00
        E 0 80 48 00
        E 0 80 4b 00
        E 0 80 54 00
        E 0 80 57 00
        E 0 80 60 00
        E 0 80 63 00
        E 120 90 19 60
        E 80 90 1c 60
        E 0 90 61 60
        E 80 80 1c 00
        E 0 80 61 00
        E 0 90 1c 60
        E 0 90 61 60
        E 80 80 19 00
        E 0 80 1c 00
        E 0 80 61 00
        E 0 90 18 60
        E 0 90 60 60
        E 0 90 2a 60
        E 0 90 3f 60
        E 0 90 4b 60
        E 0 90 57 60
        E 0 90 63 60
        E 120 80 18 00
        E 0 80 60 00
        E 0 80 2a 00
        E 0 80 3f 00
        E 0 80 4b 00
        E 0 80 57 00
        E 0 80 63 00
        E 120 90 19 60
        E 240 80 19 00
        E 0 90 18 60
        E 0 90 2a 60
        E 0 90 3f 60
        E 0 90 48 60
        E 0 90 4b 60
        E 0 90 54 60
        E 0 90 57 60
        E 0 90 60 60
        E 0 90 63 60
        E 120 80 74 00
        E 0 80 18 00
        E 0 80 2a 00
        E 0 80 3f 00
        E 0 80 48 00
        E 0 80 4b 00
        E 0 80 54 00
        E 0 80 57 00
        E 0 80 60 00
        E 0 80 63 00
        E 120 90 19 60
        E 240 80 19 00
        E 0 90 2a 60
        E 0 90 3f 60
        E 0 90 4b 60
        E 0 90 57 60
        E 0 90 63 60
        E 120 80 2a 00
        E 0 80 3f 00
        E 0 80 4b 00
        E 0 80 57 00
        E 0 80 63 00
        E 120 90 19 60
        E 240 80 19 00
        E 0 90 1a 60
        E 0 90 2a 60
        E 0 90 3d 60
        E 0 90 3f 60
        E 0 90 49 60
        E 0 90 4b 60
        E 0 90 55 60
        E 0 90 57 60
        E 0 90 61 60
        E 0 90 63 60
        E 120 80 1a 00
        E 0 80 2a 00
        E 0 80 3d 00
        E 0 80 3f 00
        E 0 80 49 00
        E 0 80 4b 00
        E 0 80 55 00
        E 0 80 57 00
        E 0 80 61 00
        E 0 80 63 00
        E 120 90 19 60
        E 240 80 19 00
        E 0 90 2a 60
        E 0 90 3f 60
        E 0 90 4b 60
        E 0 90 57 60
        E 0 90 63 60
        E 120 80 2a 00
        E 0 80 3f 00
        E 0 80 4b 00
        E 0 80 57 00
        E 0 80 63 00
        E 120 90 19 60
        e 80 90 1c 60
        E 0 90 61 60
        e 80 80 1c 00
        E 0 80 61 00
        E 0 90 1c 60
        E 0 90 61 60
        E 80 80 19 00
        E 0 80 1c 00
        E 0 80 61 00
        E 0 90 18 60
        E 0 90 2a 60
        E 0 90 3f 60
        E 0 90 48 60
        E 0 90 4b 60
        E 0 90 54 60
        E 0 90 57 60
        E 0 90 60 60
        E 0 90 63 60
        E 0 90 78 60
        E 0 90 79 60
        E 0 90 7a 60
        E 0 90 7b 60
        E 0 90 7c 60
        E 120 80 18 00
        E 0 80 2a 00
        E 0 80 3f 00
        E 0 80 48 00
        E 0 80 4b 00
        E 0 80 54 00
        E 0 80 57 00
        E 0 80 60 00
        E 0 80 63 00
        E 120 90 19 60
        E 240 80 19 00
        E 0 90 2a 60
        E 0 90 3f 60
        E 0 90 4b 60
        E 0 90 57 60
        E 0 90 63 60
        E 120 80 2a 00
        E 0 80 3f 00
        E 0 80 4b 00
        E 0 80 57 00
        E 0 80 63 00
        E 120 90 19 60
        E 240 80 78 00 -1
        E 0 80 79 00
        E 0 80 7a 00
        E 0 80 7b 00
        E 0 80 7c 00
        E 0 80 19 00
        E 0 90 18 60
        E 0 90 2a 60
        E 0 90 3f 60
        E 0 90 48 60
        E 0 90 4b 60
        E 0 90 54 60
        E 0 90 57 60
        E 0 90 60 60
        E 0 90 63 60
        E 120 80 18 00
        E 0 80 2a 00
        E 0 80 3f 00
        E 0 80 48 00
        E 0 80 4b 00
        E 0 80 54 00
        E 0 80 57 00
        E 0 80 60 00
        E 0 80 63 00
        E 120 90 19 60
        E 240 80 19 00
        E 0 90 2a 60
        E 0 90 3f 60
        E 0 90 4b 60
        E 0 90 57 60
        E 0 90 63 60
        E 120 80 2a 00
        E 0 80 3f 00
        E 0 80 4b 00
        E 0 80 57 00
        E 0 80 63 00
        E 120 90 19 60
        E 240 80 19 00
        E 0 90 1a 60
        E 0 90 2a 60
        E 0 90 3d 60
        E 0 90 3f 60
        E 0 90 49 60
        E 0 90 4b 60
        E 0 90 55 60
        E 0 90 57 60
        E 0 90 61 60
        E 0 90 63 60
        E 120 80 1a 00
        E 0 80 2a 00
        E 0 80 3d 00
        E 0 80 3f 00
        E 0 80 49 00
        E 0 80 4b 00
        E 0 80 55 00
        E 0 80 57 00
        E 0 80 61 00
        E 0 80 63 00
        E 120 90 19 60
        E 240 80 19 00
        E 0 90 2a 60
        E 0 90 3f 60
        E 0 90 4b 60
        E 0 90 57 60
        E 0 90 63 60
        E 120 80 2a 00
        E 0 80 3f 00
        E 0 80 4b 00
        E 0 80 57 00
        E 0 80 63 00
        E 120 90 19 60
        E 80 90 1c 60
        E 0 90 61 60
        E 80 80 1c 00
        E 0 80 61 00
        E 0 90 1c 60
        E 0 90 61 60
        E 80 80 19 00
        E 0 80 1c 00
        E 0 80 61 00
        E 0 90 18 60
        E 0 90 2a 60
        E 0 90 3f 60
        E 0 90 48 60
        E 0 90 4b 60
        E 0 90 54 60
        E 0 90 57 60
        E 0 90 60 60
        E 0 90 63 60
        E 120 80 18 00
        E 0 80 2a 00
        E 0 80 3f 00
        E 0 80 48 00
        E 0 80 4b 00
        E 0 80 54 00
        E 0 80 57 00
        E 0 80 60 00
        E 0 80 63 00
        E 120 90 19 60
        E 240 80 19 00
        E 0 90 2a 60
        E 0 90 3f 60
        E 0 90 4b 60
        E 0 90 57 60
        E 0 90 63 60
        E 120 80 2a 00
        E 0 80 3f 00
        E 0 80 4b 00
        E 0 80 57 00
        E 0 80 63 00
        E 120 90 19 60
        E 240 80 19 00
        E 0 90 18 60
        E 0 90 2a 60
        E 0 90 3f 60
        E 0 90 48 60
        E 0 90 4b 60
        E 0 90 54 60
        E 0 90 57 60
        E 0 90 60 60
        E 0 90 63 60
        E 120 80 18 00
        E 0 80 2a 00
        E 0 80 3f 00
        E 0 80 48 00
        E 0 80 4b 00
        E 0 80 54 00
        E 0 80 57 00
        E 0 80 60 00
        E 0 80 63 00
        E 120 90 19 60
        E 240 80 19 00
        E 0 90 2a 60
        E 0 90 3f 60
        E 0 90 4b 60
        E 0 90 57 60
        E 0 90 63 60
        E 120 80 2a 00
        E 0 80 3f 00
        E 0 80 4b 00
        E 0 80 57 00
        E 0 80 63 00
        E 120 90 19 60
        E 240 80 19 00
        E 0 90 1a 60
        E 0 90 2a 60
        E 0 90 3d 60
        E 0 90 3f 60
        E 0 90 49 60
        E 0 90 4b 60
        E 0 90 55 60
        E 0 90 57 60
        E 0 90 61 60
        E 0 90 63 60
        E 0 90 78 60
        E 0 90 79 60
        E 0 90 7a 60
        E 0 90 7b 60
        E 0 90 7c 60
        E 120 80 1a 00
        E 0 80 2a 00
        E 0 80 3d 00
        E 0 80 3f 00
        E 0 80 49 00
        E 0 80 4b 00
        E 0 80 55 00
        E 0 80 57 00
        E 0 80 61 00
        E 0 80 63 00
        E 120 90 19 60
        E 240 80 19 00
        E 0 90 2a 60
        E 0 90 3f 60
        E 0 90 4b 60
        E 0 90 57 60
        E 0 90 63 60
        E 120 80 2a 00
        E 0 80 3f 00
        E 0 80 4b 00
        E 0 80 57 00
        E 0 80 63 00
        E 360 80 78 00 -1
        E 0 80 79 00
        E 0 80 7a 00
        E 0 80 7b 00
        E 0 80 7c 00
        E 0 90 18 60
        E 0 90 19 60
        E 0 90 1f 60
        E 0 90 3e 60
        E 0 90 48 60
        E 0 90 4a 60
        E 0 90 54 60
        E 0 90 56 60
        E 0 90 60 60
        E 0 90 62 60
        E 120 80 18 00
        E 0 80 1f 00
        E 0 80 3e 00
        E 0 80 48 00
        E 0 80 4a 00
        E 0 80 54 00
        E 0 80 56 00
        E 0 80 60 00
        E 0 80 62 00
        E 360 80 19 00
        E 0 90 18 60
        E 0 90 33 60
        E 0 90 40 60
        E 0 90 4c 60
        E 0 90 54 60
        E 0 90 58 60
        E 0 90 60 60
        E 0 90 64 60
        E 0 90 70 60
        E 120 80 18 00
        E 0 80 33 00
        E 0 80 40 00
        E 0 80 4c 00
        E 0 80 54 00
        E 0 80 58 00
        E 0 80 60 00
        E 0 80 64 00
        E 120 90 1a 60
        E 0 90 55 60
        E 0 90 61 60
        E 120 80 1a 00
        E 0 80 55 00
        E 0 80 61 00
        E 120 90 18 60
        E 0 90 33 60
        E 0 90 40 60
        E 0 90 4c 60
        E 0 90 54 60
        E 0 90 58 60
        E 0 90 60 60
        E 0 90 64 60
        E 120 80 18 00
        E 0 80 33 00
        E 0 80 40 00
        E 0 80 4c 00
        E 0 80 54 00
        E 0 80 58 00
        E 0 80 60 00
        E 0 80 64 00
        E 360 90 18 60
        E 0 90 19 60
        E 0 90 1f 60
        E 0 90 3e 60
        E 0 90 48 60
        E 0 90 4a 60
        E 0 90 54 60
        E 0 90 56 60
        E 0 90 60 60
        E 0 90 62 60
        E 120 80 18 00
        E 0 80 1f 00
        E 0 80 3e 00
        E 0 80 48 00
        E 0 80 4a 00
        E 0 80 54 00
        E 0 80 56 00
        E 0 80 60 00
        E 0 80 62 00
        E 360 80 19 00
        E 0 90 18 60
        E 0 90 2a 60 1
        E 0 90 3c 60
        E 0 90 3f 60 1
        E 0 90 48 60
        E 0 90 4b 60 1
        E 0 90 54 60
        E 0 90 57 60 1
        E 0 90 60 60
        E 0 90 63 60 1
        E 120 80 18 00
        E 0 80 2a 00 1
        E 0 80 3c 00
        E 0 80 3f 00 1
        E 0 80 48 00
        E 0 80 4b 00 1
        E 0 80 54 00
        E 0 80 57 00 1
        E 0 80 60 00
        E 0 80 63 00 1
        E 120 90 1a 60
        E 0 90 55 60
        E 0 90 61 60
        E 120 80 1a 00
        E 0 80 55 00
        E 0 80 61 00
        E 120 90 18 60 1
        E 0 90 2a 60 1
        E 0 90 3f 60 1
        E 0 90 48 60 1
        E 0 90 4b 60 1
        E 0 90 54 60 1
        E 0 90 57 60 1
        E 0 90 60 60 1
        E 0 90 63 60 1
        E 120 80 18 00 1
        E 0 80 2a 00 1
        E 0 80 3f 00 1
        E 0 80 48 00 1
        E 0 80 4b 00 1
        E 0 80 54 00 1
        E 0 80 57 00 1
        E 0 80 60 00 1
        E 0 80 63 00 1
        E 360 90 18 60
        E 0 90 19 60
        E 0 90 1f 60
        E 0 90 3e 60
        E 0 90 48 60
        E 0 90 4a 60
        E 0 90 54 60
        E 0 90 56 60
        E 0 90 60 60
        E 0 90 62 60
        E 120 80 18 00
        E 0 80 1f 00
        E 0 80 3e 00
        E 0 80 48 00
        E 0 80 4a 00
        E 0 80 54 00
        E 0 80 56 00
        E 0 80 60 00
        E 0 80 62 00
        E 360 80 19 00
        E 0 90 18 60
        E 0 90 33 60
        E 0 90 40 60
        E 0 90 4c 60
        E 0 90 54 60
        E 0 90 58 60
        E 0 90 60 60
        E 0 90 64 60
        E 120 80 18 00
        E 0 80 33 00
        E 0 80 40 00
        E 0 80 4c 00
        E 0 80 54 00
        E 0 80 58 00
        E 0 80 60 00
        E 0 80 64 00
        E 120 90 1a 60
        E 0 90 55 60
        E 0 90 61 60
        E 120 80 1a 00
        E 0 80 55 00
        E 0 80 61 00
        E 120 90 18 60
        E 0 90 33 60
        E 0 90 40 60
        E 0 90 4c 60
        E 0 90 54 60
        E 0 90 58 60
        E 0 90 60 60
        E 0 90 64 60
        E 120 80 18 00
        E 0 80 33 00
        E 0 80 40 00
        E 0 80 4c 00
        E 0 80 54 00
        E 0 80 58 00
        E 0 80 60 00
        E 0 80 64 00
        E 120 80 70 00
        E 240 90 18 60
        E 0 90 19 60
        E 0 90 1f 60
        E 0 90 3e 60
        E 0 90 48 60
        E 0 90 4a 60
        E 0 90 54 60
        E 0 90 56 60
        E 0 90 60 60
        E 0 90 62 60
        E 120 80 18 00
        E 0 80 1f 00
        E 0 80 3e 00
        E 0 80 48 00
        E 0 80 4a 00
        E 0 80 54 00
        E 0 80 56 00
        E 0 80 60 00
        E 0 80 62 00
        E 360 80 19 00
        E 0 90 18 60
        E 0 90 1a 60
        E 0 90 1b 60
        E 0 90 3d 60
        E 0 90 3e 60
        E 0 90 49 60
        E 0 90 4a 60
        E 0 90 54 60
        E 0 90 55 60
        E 0 90 56 60
        E 0 90 60 60
        E 0 90 61 60
        E 0 90 62 60
        E 0 90 6e 60
        E 120 80 18 00
        E 0 80 1a 00
        E 0 80 1b 00
        E 0 80 3d 00
        E 0 80 3e 00
        E 0 80 49 00
        E 0 80 4a 00
        E 0 80 54 00
        E 0 80 55 00
        E 0 80 56 00
        E 0 80 60 00
        E 0 80 61 00
        E 0 80 62 00
        E 0 80 6e 00
        E 120 90 1a 60
        E 0 90 55 60
        E 0 90 61 60
        E 120 80 1a 00
        E 0 80 55 00
        E 0 80 61 00
        E 120 90 31 60
        E 0 90 3f 60
        E 0 90 4b 60
        E 0 90 57 60
        E 0 90 63 60
        E 0 90 6f 60
        E 120 80 31 00
        E 0 80 3f 00
        E 0 80 4b 00
        E 0 80 57 00
        E 0 80 63 00
        E 120 90 30 60
        E 0 90 57 60
        E 0 90 63 60
        E 120 80 30 00
        E 0 80 57 00
        E 0 80 63 00
        E 120 80 6f 00
        E 0 90 18 60
        E 0 90 24 60
        E 0 90 40 60
        E 0 90 48 60
        E 0 90 4c 60
        E 0 90 54 60
        E 0 90 58 60
        E 0 90 60 60
        E 0 90 64 60
        E 120 80 18 00
        E 0 80 24 00
        E 0 80 40 00
        E 0 80 48 00
        E 0 80 4c 00
        E 0 80 54 00
        E 0 80 58 00
        E 0 80 60 00
        E 0 80 64 00
        <X 480 0
          /wFbaWRsZV9yZWFsdGltZV0=
        >
        E 8040 b0 7b 00
        GUID {1F35FB10-F163-4438-B724-E03144CC8E0A}
        IGNTEMPO 0 120.00000000 4 4
        SRCCOLOR 1
        VELLANE 132 100 0
        COLORMAP "C:\Program Files\REAPER (x64)\Data\color_maps\rockband_drums.png"
        CFGEDITVIEW 120801.576766 0.213761 18 16 0 0 0
        CFGEDIT 1 1 0 1 1 0 1 1 1 1 1 0.25000000 -8 -8 1928 1088 0 2 0 2 0.00000000 0 1 0 0 0.500000 0 0 1.000000 64
        KEYSNAP 0 9 "102034050607" 0 "Major"
        EVTFILTER 0 -1 -1 -1 -1 0 1 0 0 -1.00000000 -1.00000000
      >
    >
  >
  <TRACK '{295F13B1-4165-475A-B8F8-79860A135AA5}'
    NAME "PART GUITAR"
    PEAKCOL 16576
    BEAT -1
    AUTOMODE 0
    VOLPAN 1.00000000000000 0.00000000000000 -1.00000000000000 -1.00000000000000 1.00000000000000
    MUTESOLO 0 0 0
    IPHASE 0
    ISBUS 0 0
    BUSCOMP 0 0
    SHOWINMIX 1 0.666700 0.500000 1 0.500000 -1 -1 -1
    FREEMODE 0
    SEL 0
    REC 0 0 0 0 0 0 0
    VU 2
    TRACKHEIGHT 0 0
    INQ 0 0 0 0.5000000000 100 0 0 100
    NCHAN 2
    FX 1
    TRACKID {295F13B1-4165-475A-B8F8-79860A135AA5}
    PERF 0
    MIDIOUT -1
    <MIDINOTENAMES
      0 127 "TRILL MARKER"
      0 126 "TREMOLO MARKER"
      0 125 "---"
      0 124 "BRE"
      0 123 "BRE"
      0 122 "BRE"
      0 121 "BRE"
      0 120 "BRE (use all 5)"
      0 119 "----"
      0 116 "OVERDRIVE"
      0 115 "----"
      0 103 "Solo Marker"
      0 102 "Force HOPO Off"
      0 101 "Force HOPO On"
      0 100 "EXPERT Orange"
      0 99 "EXPERT Blue"
      0 98 "EXPERT Yellow"
      0 97 "EXPERT Red"
      0 96 "EXPERT Green"
      0 95 "----"
      0 90 "Force HOPO Off"
      0 89 "Force HOPO On"
      0 88 "HARD Orange"
      0 87 "HARD Blue"
      0 86 "HARD Yellow"
      0 85 "HARD Red"
      0 84 "HARD Green"
      0 77 "----"
      0 76 "MEDIUM Orange"
      0 75 "MEDIUM Blue"
      0 74 "MEDIUM Yellow"
      0 73 "MEDIUM Red"
      0 72 "MEDIUM Green"
      0 65 "----"
      0 64 "EASY Orange"
      0 63 "EASY Blue"
      0 62 "EASY Yellow"
      0 61 "EASY Red"
      0 60 "EASY Green"
      0 59 "Fret 12"
      0 57 "Fret 11"
      0 56 "Fret 10"
      0 55 "Fret 9"
      0 53 "Fret 8"
      0 52 "Fret 7"
      0 50 "Fret 6"
      0 49 "Fret 5"
      0 47 "Fret 4"
      0 45 "Fret 3"
      0 43 "Fret 2"
      0 40 "Fret 1"
    >
    MAINSEND 1 0
    <FXCHAIN
      WNDRECT 0 43 878 559
      SHOW 0
      LASTSEL 0
      DOCKED 0
      BYPASS 0 0
      <VST "VSTi: RBN Preview (RBN)" "rbprev_vst64.dll" 0 ""
        dnBicu5e7f4AAAAAAgAAAAEAAAAAAAAAAgAAAAAAAAAEAAAAAQAAAA==
        AAAQAAMAqgAAABAAAAA=
      >
      FLOATPOS 0 0 0 0
      FXID {AA9F2D34-2B4E-4837-B966-21CA0D953F49}
      WAK 0
    >
    <ITEM
      POSITION 0.00000000000000
      SNAPOFFS 0.00000000000000
      LENGTH 150.02758215949996
      LOOP 0
      ALLTAKES 0
      SEL 0
      FADEIN 1 0.000000 0.000000 1 0
      FADEOUT 1 0.000000 0.000000 1 0
      MUTE 0
      IGUID {0CD5BC0E-79E6-4C44-9737-68EC5742C727}
      IID 17
      NAME "PART GUITAR"
      VOLPAN 1.000000 0.000000 1.000000 -1.000000
      SOFFS 0.00000000000000 0.00000000000000
      PLAYRATE 1.00000000000000 1 0.00000000000000 -1
      CHANMODE 0
      GUID {0AF6D0B6-30E5-4F67-893E-F097A8589989}
      <SOURCE MIDI
        HASDATA 1 480 QN
        POOLEDEVTS {EE5ACD1C-4B4F-4208-BB6A-885B5B6C319C}
        <X 0 0
          /wNQQVJUIEdVSVRBUg==
        >
        <X 1920 0
          /wFbcGxheV0=
        >
        E 1200 90 2d 60
        E 0 90 55 60
        E 0 90 61 60
        E 120 80 55 00
        E 0 80 61 00
        E 0 90 62 60
        E 120 80 62 00
        E 0 90 4b 60
        E 0 90 57 60
        E 0 90 63 60
        E 120 80 4b 00
        E 0 80 57 00
        E 0 80 63 00
        E 120 90 58 60
        E 0 90 64 60
        E 120 80 58 00
        E 0 80 64 00
        E 120 90 3e 60
        E 0 90 4a 60
        E 0 90 56 60
        E 0 90 62 60
        E 120 80 3e 00
        E 0 80 4a 00
        E 0 80 56 00
        E 0 80 62 00
        E 120 90 57 60
        E 0 90 63 60
        E 120 80 57 00
        E 0 80 63 00
        E 120 90 4b 60
        E 0 90 58 60
        E 0 90 64 60
        E 120 80 4b 00
        E 0 80 58 00
        E 0 80 64 00
        E 120 90 56 60
        E 0 90 62 60
        E 120 80 56 00
        E 0 80 62 00
        E 120 90 3d 60
        E 0 90 49 60
        E 0 90 55 60
        E 0 90 61 60
        E 0 90 65 60
        E 120 80 3d 00
        E 0 80 49 00
        E 0 80 55 00
        E 0 80 61 00
        E 0 80 65 00
        E 120 90 57 60
        E 0 90 63 60
        E 120 80 57 00
        E 0 80 63 00
        E 120 90 4b 60
        E 0 90 58 60
        E 0 90 64 60
        E 120 80 4b 00
        E 0 80 58 00
        E 0 80 64 00
        E 120 90 55 60
        E 0 90 61 60
        E 120 80 55 00
        E 0 80 61 00
        E 120 90 3c 60
        E 0 90 48 60
        E 0 90 54 60
        E 0 90 60 60
        E 0 90 65 60
        E 120 80 3c 00
        E 0 80 48 00
        E 0 80 54 00
        E 0 80 60 00
        E 0 80 65 00
        E 120 90 54 60
        E 0 90 60 60
        E 120 80 54 00
        E 0 80 60 00
        E 0 90 61 60
        E 120 80 61 00
        E 0 90 4a 60
        E 0 90 56 60
        E 0 90 62 60
        E 120 80 4a 00
        E 0 80 56 00
        E 0 80 62 00
        E 120 90 57 60
        E 0 90 63 60
        E 120 80 57 00
        E 0 80 63 00
        E 120 90 3e 60
        E 0 90 4a 60
        E 0 90 56 60
        E 0 90 62 60
        E 120 80 3e 00
        E 0 80 4a 00
        E 0 80 56 00
        E 0 80 62 00
        E 120 90 57 60
        E 0 90 63 60
        E 120 80 57 00
        E 0 80 63 00
        E 120 90 4b 60
        E 0 90 58 60
        E 0 90 64 60
        E 120 80 4b 00
        E 0 80 58 00
        E 0 80 64 00
        E 120 90 56 60
        E 0 90 62 60
        E 120 80 56 00
        E 0 80 62 00
        E 120 90 3d 60
        E 0 90 49 60
        E 0 90 55 60
        E 0 90 61 60
        E 0 90 65 60
        E 120 80 3d 00
        E 0 80 49 00
        E 0 80 55 00
        E 0 80 61 00
        E 0 80 65 00
        E 120 90 56 60
        E 0 90 62 60
        E 120 80 56 00
        E 0 80 62 00
        E 120 90 4b 60
        E 0 90 57 60
        E 0 90 63 60
        E 120 80 4b 00
        E 0 80 57 00
        E 0 80 63 00
        E 120 90 55 60
        E 0 90 61 60
        E 120 80 55 00
        E 0 80 61 00
        E 120 90 3c 60
        E 0 90 48 60
        E 0 90 54 60
        E 0 90 60 60
        E 0 90 65 60
        E 120 80 3c 00
        E 0 80 48 00
        E 0 80 54 00
        E 0 80 60 00
        E 0 80 65 00
        E 120 90 55 60
        E 0 90 61 60
        E 120 80 55 00
        E 0 80 61 00
        E 0 90 62 60
        E 120 80 62 00
        E 0 90 4b 60
        E 0 90 57 60
        E 0 90 63 60
        E 120 80 4b 00
        E 0 80 57 00
        E 0 80 63 00
        E 120 90 58 60
        E 0 90 64 60
        E 120 80 58 00
        E 0 80 64 00
        E 120 90 3e 60
        E 0 90 4a 60
        E 0 90 56 60
        E 0 90 62 60
        E 0 90 74 60
        E 120 80 3e 00
        E 0 80 4a 00
        E 0 80 56 00
        E 0 80 62 00
        E 120 90 57 60
        E 0 90 63 60
        E 120 80 57 00
        E 0 80 63 00
        E 120 90 4b 60
        E 0 90 58 60
        E 0 90 64 60
        E 120 80 4b 00
        E 0 80 58 00
        E 0 80 64 00
        E 120 90 56 60
        E 0 90 62 60
        E 120 80 56 00
        E 0 80 62 00
        E 120 90 3d 60
        E 0 90 49 60
        E 0 90 55 60
        E 0 90 61 60
        E 0 90 65 60
        E 120 80 3d 00
        E 0 80 49 00
        E 0 80 55 00
        E 0 80 61 00
        E 0 80 65 00
        E 120 90 57 60
        E 0 90 63 60
        E 120 80 57 00
        E 0 80 63 00
        E 120 90 4b 60
        E 0 90 58 60
        E 0 90 64 60
        E 120 80 4b 00
        E 0 80 58 00
        E 0 80 64 00
        E 120 90 55 60
        E 0 90 61 60
        E 120 80 55 00
        E 0 80 61 00
        E 120 90 3c 60
        E 0 90 48 60
        E 0 90 54 60
        E 0 90 60 60
        E 0 90 65 60
        E 120 80 3c 00
        E 0 80 48 00
        E 0 80 54 00
        E 0 80 60 00
        E 0 80 65 00
        E 120 90 54 60
        E 0 90 60 60
        E 120 80 54 00
        E 0 80 60 00
        E 0 90 61 60
        E 120 80 61 00
        E 0 90 4a 60
        E 0 90 56 60
        E 0 90 62 60
        E 120 80 4a 00
        E 0 80 56 00
        E 0 80 62 00
        E 120 90 57 60
        E 0 90 63 60
        E 120 80 57 00
        E 0 80 63 00
        E 120 90 3e 60
        E 0 90 4a 60
        E 0 90 56 60
        E 0 90 62 60
        E 120 80 74 00
        E 0 80 3e 00
        E 0 80 4a 00
        E 0 80 56 00
        E 0 80 62 00
        E 120 90 57 60
        E 0 90 63 60
        E 120 80 57 00
        E 0 80 63 00
        E 120 90 4b 60
        E 0 90 58 60
        E 0 90 64 60
        E 120 80 4b 00
        E 0 80 58 00
        E 0 80 64 00
        E 120 90 56 60
        E 0 90 62 60
        E 120 80 56 00
        E 0 80 62 00
        E 120 90 3d 60
        E 0 90 49 60
        E 0 90 55 60
        E 0 90 61 60
        E 0 90 65 60
        E 120 80 3d 00
        E 0 80 49 00
        E 0 80 55 00
        E 0 80 61 00
        E 0 80 65 00
        E 120 90 56 60
        E 0 90 62 60
        E 120 80 56 00
        E 0 80 62 00
        E 120 90 4b 60
        E 0 90 57 60
        E 0 90 63 60
        E 120 80 4b 00
        E 0 80 57 00
        E 0 80 63 00
        E 120 90 55 60
        E 0 90 61 60
        E 120 80 55 00
        E 0 80 61 00
        E 120 90 3c 60
        E 0 90 48 60
        E 0 90 54 60
        E 0 90 60 60
        E 0 90 65 60
        E 120 80 3c 00
        E 0 80 48 00
        E 0 80 54 00
        E 0 80 60 00
        E 0 80 65 00
        E 120 90 55 60
        E 0 90 61 60
        E 120 80 55 00
        E 0 80 61 00
        E 0 90 62 60
        E 120 80 62 00
        E 0 90 4b 60
        E 0 90 57 60
        E 0 90 63 60
        E 120 80 4b 00
        E 0 80 57 00
        E 0 80 63 00
        E 120 90 58 60
        E 0 90 64 60
        E 120 80 58 00
        E 0 80 64 00
        E 120 90 3e 60
        E 0 90 4a 60
        E 0 90 56 60
        E 0 90 62 60
        E 120 80 3e 00
        E 0 80 4a 00
        E 0 80 56 00
        E 0 80 62 00
        E 120 90 57 60
        E 0 90 63 60
        E 120 80 57 00
        E 0 80 63 00
        E 120 90 4b 60
        E 0 90 58 60
        E 0 90 64 60
        E 120 80 4b 00
        E 240 80 58 00
        E 0 80 64 00
        E 120 90 3d 60
        E 0 90 49 60
        E 0 90 55 60
        E 0 90 61 60
        E 120 80 3d 00
        E 0 80 49 00
        E 0 80 55 00
        E 0 80 61 00
        E 120 90 57 60
        E 0 90 63 60
        E 120 80 57 00
        E 0 80 63 00
        E 120 90 4b 60
        E 0 90 58 60
        E 0 90 64 60
        E 120 80 4b 00
        E 240 80 58 00
        E 0 80 64 00
        E 120 90 3c 60
        E 0 90 48 60
        E 0 90 54 60
        E 0 90 60 60
        E 120 80 3c 00
        E 0 80 48 00
        E 0 80 54 00
        E 0 80 60 00
        E 120 90 54 60
        E 0 90 60 60
        E 120 80 54 00
        E 0 80 60 00
        E 0 90 61 60
        E 120 80 61 00
        E 0 90 4a 60
        E 0 90 56 60
        E 0 90 62 60
        E 120 80 4a 00
        E 0 80 56 00
        E 0 80 62 00
        E 120 90 57 60
        E 0 90 63 60
        E 120 80 57 00
        E 0 80 63 00
        E 120 90 3e 60
        E 0 90 4a 60
        E 0 90 56 60
        E 0 90 62 60
        E 120 80 3e 00
        E 0 80 4a 00
        E 0 80 56 00
        E 0 80 62 00
        E 120 90 57 60
        E 0 90 63 60
        E 120 80 57 00
        E 0 80 63 00
        E 120 90 4b 60
        E 0 90 58 60
        E 0 90 64 60
        E 120 80 4b 00
        E 240 80 58 00
        E 0 80 64 00
        E 120 90 3d 60
        E 0 90 49 60
        E 0 90 55 60
        E 0 90 61 60
        E 120 80 3d 00
        E 0 80 49 00
        E 0 80 55 00
        E 0 80 61 00
        E 120 90 56 60
        E 0 90 62 60
        E 120 80 56 00
        E 0 80 62 00
        E 120 90 4b 60
        E 0 90 57 60
        E 0 90 63 60
        E 120 80 4b 00
        E 240 80 57 00
        E 0 80 63 00
        E 120 90 3c 60
        E 0 90 48 60
        E 0 90 54 60
        E 0 90 60 60
        E 120 80 3c 00
        E 0 80 48 00
        E 0 80 54 00
        E 0 80 60 00
        E 120 90 55 60
        E 0 90 61 60
        E 120 80 55 00
        E 0 80 61 00
        E 0 90 62 60
        E 120 80 62 00
        E 0 90 4b 60
        E 0 90 57 60
        E 0 90 63 60
        E 120 80 4b 00
        E 0 80 57 00
        E 0 80 63 00
        E 120 90 58 60
        E 0 90 64 60
        E 120 80 58 00
        E 0 80 64 00
        E 120 90 3e 60
        E 0 90 4a 60
        E 0 90 56 60
        E 0 90 62 60
        E 120 80 3e 00
        E 0 80 4a 00
        E 0 80 56 00
        E 0 80 62 00
        E 120 90 57 60
        E 0 90 63 60
        E 120 80 57 00
        E 0 80 63 00
        E 120 90 4b 60
        E 0 90 58 60
        E 0 90 64 60
        E 120 80 4b 00
        E 240 80 58 00
        E 0 80 64 00
        E 120 90 3d 60
        E 0 90 49 60
        E 0 90 55 60
        E 0 90 61 60
        E 120 80 3d 00
        E 0 80 49 00
        E 0 80 55 00
        E 0 80 61 00
        E 120 90 57 60
        E 0 90 63 60
        E 120 80 57 00
        E 0 80 63 00
        E 120 90 4b 60
        E 0 90 58 60
        E 0 90 64 60
        E 120 80 4b 00
        E 240 80 58 00
        E 0 80 64 00
        E 120 90 3c 60
        E 0 90 48 60
        E 0 90 54 60
        E 0 90 60 60
        E 120 80 3c 00
        E 0 80 48 00
        E 0 80 54 00
        E 0 80 60 00
        E 120 90 54 60
        E 0 90 60 60
        E 120 80 54 00
        E 0 80 60 00
        E 0 90 61 60
        E 120 80 61 00
        E 0 90 4a 60
        E 0 90 56 60
        E 0 90 62 60
        E 120 80 4a 00
        E 0 80 56 00
        E 0 80 62 00
        E 120 90 57 60
        E 0 90 63 60
        E 120 80 57 00
        E 0 80 63 00
        E 120 90 3e 60
        E 0 90 4a 60
        E 0 90 56 60
        E 0 90 62 60
        E 120 80 3e 00
        E 0 80 4a 00
        E 0 80 56 00
        E 0 80 62 00
        E 120 90 57 60
        E 0 90 63 60
        E 120 80 57 00
        E 0 80 63 00
        E 120 90 4b 60
        E 0 90 58 60
        E 0 90 64 60
        E 120 80 4b 00
        E 240 80 58 00
        E 0 80 64 00
        E 120 90 3d 60
        E 0 90 49 60
        E 0 90 55 60
        E 0 90 61 60
        E 120 80 3d 00
        E 0 80 49 00
        E 0 80 55 00
        E 0 80 61 00
        E 120 90 56 60
        E 0 90 62 60
        E 120 80 56 00
        E 0 80 62 00
        E 120 90 4b 60
        E 0 90 57 60
        E 0 90 63 60
        E 120 80 4b 00
        E 240 80 57 00
        E 0 80 63 00
        E 120 90 3c 60
        E 0 90 48 60
        E 0 90 54 60
        E 0 90 60 60
        E 120 80 3c 00
        E 0 80 48 00
        E 0 80 54 00
        E 0 80 60 00
        E 120 90 55 60
        E 0 90 61 60
        E 120 80 55 00
        E 0 80 61 00
        E 0 90 62 60
        E 120 80 62 00
        E 0 90 4b 60
        E 0 90 57 60
        E 0 90 63 60
        E 120 80 4b 00
        E 0 80 57 00
        E 0 80 63 00
        E 120 90 58 60
        E 0 90 64 60
        E 120 80 58 00
        E 0 80 64 00
        E 120 90 3e 60
        E 0 90 4a 60
        E 0 90 56 60
        E 0 90 62 60
        E 120 80 3e 00
        E 0 80 4a 00
        E 0 80 56 00
        E 0 80 62 00
        E 120 90 57 60
        E 0 90 63 60
        E 120 80 57 00
        E 0 80 63 00
        E 120 90 4b 60
        E 0 90 58 60
        E 0 90 64 60
        E 120 80 4b 00
        E 240 80 58 00
        E 0 80 64 00
        E 120 90 3d 60
        E 0 90 49 60
        E 0 90 55 60
        E 0 90 61 60
        E 120 80 3d 00
        E 0 80 49 00
        E 0 80 55 00
        E 0 80 61 00
        E 120 90 57 60
        E 0 90 63 60
        E 120 80 57 00
        E 0 80 63 00
        E 120 90 4b 60
        E 0 90 58 60
        E 0 90 64 60
        E 120 80 4b 00
        E 240 80 58 00
        E 0 80 64 00
        E 120 90 3c 60
        E 0 90 48 60
        E 0 90 54 60
        E 0 90 60 60
        E 120 80 3c 00
        E 0 80 48 00
        E 0 80 54 00
        E 0 80 60 00
        E 120 90 54 60
        E 0 90 60 60
        E 120 80 54 00
        E 0 80 60 00
        E 0 90 61 60
        E 120 80 61 00
        E 0 90 4a 60
        E 0 90 56 60
        E 0 90 62 60
        E 120 80 4a 00
        E 0 80 56 00
        E 0 80 62 00
        E 120 90 57 60
        E 0 90 63 60
        E 120 80 57 00
        E 0 80 63 00
        E 120 90 3e 60
        E 0 90 4a 60
        E 0 90 56 60
        E 0 90 62 60
        E 120 80 3e 00
        E 0 80 4a 00
        E 0 80 56 00
        E 0 80 62 00
        E 120 90 57 60
        E 0 90 63 60
        E 120 80 57 00
        E 0 80 63 00
        E 120 90 4b 60
        E 0 90 58 60
        E 0 90 64 60
        E 120 80 4b 00
        E 240 80 58 00
        E 0 80 64 00
        E 120 90 3d 60
        E 0 90 49 60
        E 0 90 55 60
        E 0 90 61 60
        E 120 80 3d 00
        E 0 80 49 00
        E 0 80 55 00
        E 0 80 61 00
        E 120 90 56 60
        E 0 90 62 60
        E 120 80 56 00
        E 0 80 62 00
        E 120 90 4b 60
        E 0 90 57 60
        E 0 90 63 60
        E 120 80 4b 00
        E 240 80 57 00
        E 0 80 63 00
        E 120 90 3c 60
        E 0 90 48 60
        E 0 90 54 60
        E 0 90 60 60
        E 120 80 3c 00
        E 0 80 48 00
        E 0 80 54 00
        E 0 80 60 00
        E 120 90 55 60
        E 0 90 61 60
        E 120 80 55 00
        E 0 80 61 00
        E 0 90 62 60
        E 120 80 62 00
        E 0 90 4b 60
        E 0 90 57 60
        E 0 90 63 60
        E 120 80 4b 00
        E 0 80 57 00
        E 0 80 63 00
        E 120 90 58 60
        E 0 90 64 60
        E 120 80 58 00
        E 0 80 64 00
        E 120 90 3e 60
        E 0 90 4a 60
        E 0 90 56 60
        E 0 90 62 60
        E 120 80 3e 00
        E 0 80 4a 00
        E 0 80 56 00
        E 0 80 62 00
        E 120 90 57 60
        E 0 90 63 60
        E 120 80 57 00
        E 0 80 63 00
        E 120 90 4b 60
        E 0 90 58 60
        E 0 90 64 60
        E 120 80 4b 00
        E 240 80 58 00
        E 0 80 64 00
        E 120 90 3d 60
        E 0 90 49 60
        E 0 90 55 60
        E 0 90 61 60
        E 120 80 3d 00
        E 0 80 49 00
        E 0 80 55 00
        E 0 80 61 00
        E 120 90 57 60
        E 0 90 63 60
        E 120 80 57 00
        E 0 80 63 00
        E 120 90 4b 60
        E 0 90 58 60
        E 0 90 64 60
        E 120 80 4b 00
        E 240 80 58 00
        E 0 80 64 00
        E 120 90 3c 60
        E 0 90 48 60
        E 0 90 54 60
        E 0 90 60 60
        E 120 80 3c 00
        E 0 80 48 00
        E 0 80 54 00
        E 0 80 60 00
        E 120 90 54 60
        E 0 90 60 60
        E 120 80 54 00
        E 0 80 60 00
        E 0 90 61 60
        E 120 80 61 00
        E 0 90 4a 60
        E 0 90 56 60
        E 0 90 62 60
        E 120 80 4a 00
        E 0 80 56 00
        E 0 80 62 00
        E 120 90 57 60
        E 0 90 63 60
        E 120 80 57 00
        E 0 80 63 00
        E 120 90 3e 60
        E 0 90 4a 60
        E 0 90 56 60
        E 0 90 62 60
        E 120 80 3e 00
        E 0 80 4a 00
        E 0 80 56 00
        E 0 80 62 00
        E 120 90 57 60
        E 0 90 63 60
        E 120 80 57 00
        E 0 80 63 00
        E 120 90 4b 60
        E 0 90 58 60
        E 0 90 64 60
        E 120 80 4b 00
        E 0 80 58 00
        E 0 80 64 00
        E 120 90 56 60
        E 0 90 62 60
        E 120 80 56 00
        E 0 80 62 00
        E 120 90 3d 60
        E 0 90 49 60
        E 0 90 55 60
        E 0 90 61 60
        E 120 80 3d 00
        E 0 80 49 00
        E 0 80 55 00
        E 0 80 61 00
        E 120 90 56 60
        E 0 90 62 60
        E 120 80 56 00
        E 0 80 62 00
        E 120 90 4b 60
        E 0 90 57 60
        E 0 90 63 60
        E 120 80 4b 00
        E 240 80 57 00
        E 0 80 63 00
        E 120 90 3c 60
        E 0 90 48 60
        E 0 90 54 60
        E 0 90 60 60
        E 120 80 3c 00
        E 0 80 48 00
        E 0 80 54 00
        E 0 80 60 00
        E 120 90 55 60
        E 0 90 61 60
        E 120 80 55 00
        E 0 80 61 00
        E 0 90 62 60
        E 120 80 62 00
        E 0 90 4b 60
        E 0 90 57 60
        E 0 90 63 60
        E 120 80 4b 00
        E 0 80 57 00
        E 0 80 63 00
        E 120 90 58 60
        E 0 90 64 60
        E 120 80 58 00
        E 0 80 64 00
        E 120 90 3e 60
        E 0 90 4a 60
        E 0 90 56 60
        E 0 90 62 60
        E 120 80 3e 00
        E 0 80 4a 00
        E 0 80 56 00
        E 0 80 62 00
        E 120 90 57 60
        E 0 90 63 60
        E 120 80 57 00
        E 0 80 63 00
        E 120 90 4b 60
        E 0 90 58 60
        E 0 90 64 60
        E 120 80 4b 00
        E 0 80 58 00
        E 0 80 64 00
        E 120 90 56 60
        E 0 90 62 60
        E 120 80 56 00
        E 0 80 62 00
        E 120 90 3d 60
        E 0 90 49 60
        E 0 90 55 60
        E 0 90 61 60
        E 120 80 3d 00
        E 0 80 49 00
        E 0 80 55 00
        E 0 80 61 00
        E 120 90 57 60
        E 0 90 63 60
        E 120 80 57 00
        E 0 80 63 00
        E 120 90 4b 60
        E 0 90 58 60
        E 0 90 64 60
        E 120 80 4b 00
        E 240 80 58 00
        E 0 80 64 00
        E 120 90 3c 60
        E 0 90 48 60
        E 0 90 54 60
        E 0 90 60 60
        E 120 80 3c 00
        E 0 80 48 00
        E 0 80 54 00
        E 0 80 60 00
        E 120 90 54 60
        E 0 90 60 60
        E 120 80 54 00
        E 0 80 60 00
        E 0 90 61 60
        E 120 80 61 00
        E 0 90 4a 60
        E 0 90 56 60
        E 0 90 62 60
        E 120 80 4a 00
        E 0 80 56 00
        E 0 80 62 00
        E 120 90 57 60
        E 0 90 63 60
        E 120 80 57 00
        E 0 80 63 00
        E 120 90 3e 60
        E 0 90 4a 60
        E 0 90 56 60
        E 0 90 62 60
        E 120 80 3e 00
        E 0 80 4a 00
        E 0 80 56 00
        E 0 80 62 00
        E 120 90 57 60
        E 0 90 63 60
        E 120 80 57 00
        E 0 80 63 00
        E 120 90 4b 60
        E 0 90 58 60
        E 0 90 64 60
        E 120 80 4b 00
        E 240 80 58 00
        E 0 80 64 00
        E 120 90 3d 60
        E 0 90 49 60
        E 0 90 55 60
        E 0 90 61 60
        E 120 80 3d 00
        E 0 80 49 00
        E 0 80 55 00
        E 0 80 61 00
        E 120 90 56 60
        E 0 90 62 60
        E 120 80 56 00
        E 0 80 62 00
        E 120 90 4b 60
        E 0 90 57 60
        E 0 90 63 60
        E 120 80 4b 00
        E 240 80 57 00
        E 0 80 63 00
        E 120 90 3c 60
        E 0 90 48 60
        E 0 90 54 60
        E 0 90 60 60
        E 120 80 3c 00
        E 0 80 48 00
        E 0 80 54 00
        E 0 80 60 00
        E 120 90 55 60
        E 0 90 61 60
        E 120 80 55 00
        E 0 80 61 00
        E 0 90 62 60
        E 120 80 62 00
        E 0 90 4b 60
        E 0 90 57 60
        E 0 90 63 60
        E 120 80 4b 00
        E 0 80 57 00
        E 0 80 63 00
        E 120 90 58 60
        E 0 90 64 60
        E 120 80 58 00
        E 0 80 64 00
        E 120 90 3e 60
        E 0 90 4a 60
        E 0 90 56 60
        E 0 90 62 60
        E 120 80 3e 00
        E 0 80 4a 00
        E 0 80 56 00
        E 0 80 62 00
        E 120 90 57 60
        E 0 90 63 60
        E 120 80 57 00
        E 0 80 63 00
        E 120 90 4b 60
        E 0 90 58 60
        E 0 90 64 60
        E 120 80 4b 00
        E 0 80 58 00
        E 0 80 64 00
        E 120 90 56 60
        E 0 90 62 60
        E 120 80 56 00
        E 0 80 62 00
        E 120 90 3d 60
        E 0 90 49 60
        E 0 90 55 60
        E 0 90 61 60
        E 120 80 3d 00
        E 0 80 49 00
        E 0 80 55 00
        E 0 80 61 00
        E 120 90 57 60
        E 0 90 63 60
        E 120 80 57 00
        E 0 80 63 00
        E 120 90 4b 60
        E 0 90 58 60
        E 0 90 64 60
        E 120 80 4b 00
        E 240 80 58 00
        E 0 80 64 00
        E 120 90 3c 60
        E 0 90 48 60
        E 0 90 54 60
        E 0 90 60 60
        E 120 80 3c 00
        E 0 80 48 00
        E 0 80 54 00
        E 0 80 60 00
        E 120 90 54 60
        E 0 90 60 60
        E 120 80 54 00
        E 0 80 60 00
        E 0 90 61 60
        E 120 80 61 00
        E 0 90 4a 60
        E 0 90 56 60
        E 0 90 62 60
        E 120 80 4a 00
        E 0 80 56 00
        E 0 80 62 00
        E 120 90 57 60
        E 0 90 63 60
        E 120 80 57 00
        E 0 80 63 00
        E 120 90 3e 60
        E 0 90 4a 60
        E 0 90 56 60
        E 0 90 62 60
        E 120 80 3e 00
        E 0 80 4a 00
        E 0 80 56 00
        E 0 80 62 00
        E 120 90 57 60
        E 0 90 63 60
        E 120 80 57 00
        E 0 80 63 00
        E 120 90 4b 60
        E 0 90 58 60
        E 0 90 64 60
        E 120 80 4b 00
        E 240 80 58 00
        E 0 80 64 00
        E 120 90 3d 60
        E 0 90 49 60
        E 0 90 55 60
        E 0 90 61 60
        E 120 80 3d 00
        E 0 80 49 00
        E 0 80 55 00
        E 0 80 61 00
        E 120 90 56 60
        E 0 90 62 60
        E 120 80 56 00
        E 0 80 62 00
        E 120 90 4b 60
        E 0 90 57 60
        E 0 90 63 60
        E 120 80 4b 00
        E 240 80 57 00
        E 0 80 63 00
        E 120 90 3c 60
        E 0 90 48 60
        E 0 90 54 60
        E 0 90 60 60
        E 120 80 3c 00
        E 0 80 48 00
        E 0 80 54 00
        E 0 80 60 00
        E 120 90 55 60
        E 0 90 61 60
        E 120 80 55 00
        E 0 80 61 00
        E 0 90 62 60
        E 120 80 62 00
        E 0 90 4b 60
        E 0 90 57 60
        E 0 90 63 60
        E 120 80 4b 00
        E 0 80 57 00
        E 0 80 63 00
        E 120 90 58 60
        E 0 90 64 60
        E 120 80 58 00
        E 0 80 64 00
        E 120 90 3e 60
        E 0 90 49 60
        E 0 90 4b 60
        E 0 90 55 60
        E 0 90 57 60
        E 0 90 61 60
        E 0 90 63 60
        E 960 80 2d 00
        E 0 80 3e 00
        E 0 80 49 00
        E 0 80 4b 00
        E 0 80 55 00
        E 0 80 57 00
        E 0 80 61 00
        E 0 80 63 00
        E 480 90 35 60
        E 0 90 3e 60
        E 0 90 4b 60
        E 0 90 58 60
        E 0 90 64 60
        E 960 80 3e 00
        E 0 80 4b 00
        E 240 80 35 00
        E 0 80 58 00
        E 0 80 64 00
        E 240 90 32 60
        E 0 90 3e 60
        E 0 90 4b 60
        E 0 90 57 60
        E 0 90 63 60
        E 960 80 3e 00
        E 0 80 4b 00
        E 240 80 32 00
        E 0 80 57 00
        E 0 80 63 00
        E 240 90 35 60
        E 0 90 3e 60
        E 0 90 4a 60
        E 0 90 4b 60
        E 0 90 56 60
        E 0 90 57 60
        E 0 90 62 60
        E 0 90 63 60
        E 0 90 74 60
        E 960 80 35 00
        E 0 80 3e 00
        E 0 80 4a 00
        E 0 80 4b 00
        E 0 80 56 00
        E 0 80 57 00
        E 0 80 62 00
        E 0 80 63 00
        E 480 90 31 60
        E 0 90 3e 60
        E 0 90 49 60
        E 0 90 4a 60
        E 0 90 55 60
        E 0 90 56 60
        E 0 90 61 60
        E 0 90 62 60
        E 960 80 31 00
        E 0 80 3e 00
        E 0 80 49 00
        E 0 80 4a 00
        E 0 80 55 00
        E 0 80 56 00
        E 0 80 61 00
        E 0 80 62 00
        E 480 90 2d 60
        E 0 90 3d 60
        E 0 90 48 60
        E 0 90 4a 60
        E 0 90 54 60
        E 0 90 57 60
        E 0 90 60 60
        E 0 90 62 60
        E 0 90 63 60
        E 120 80 74 00
        E 5160 80 3d 00
        E 0 80 48 00
        E 0 80 4a 00
        E 0 80 54 00
        E 0 80 57 00
        E 0 80 60 00
        E 0 80 62 00
        E 0 80 63 00
        E 240 90 54 60
        E 0 90 60 60
        E 120 80 54 00
        E 0 80 60 00
        E 0 90 61 60
        E 120 80 61 00
        E 0 90 4a 60
        E 0 90 56 60
        E 0 90 62 60
        E 120 80 4a 00
        E 0 80 56 00
        E 0 80 62 00
        E 120 90 55 60
        E 0 90 61 60
        E 120 80 55 00
        E 0 80 61 00
        E 0 90 63 60
        E 120 80 63 00
        E 0 90 3e 60
        E 0 90 4b 60
        E 0 90 58 60
        E 0 90 64 60
        E 120 80 3e 00
        E 0 80 4b 00
        E 0 80 58 00
        E 0 80 64 00
        E 120 90 57 60
        E 0 90 63 60
        E 120 80 57 00
        E 0 80 63 00
        E 120 90 4a 60
        E 0 90 56 60
        E 0 90 62 60
        E 120 80 4a 00
        E 0 80 56 00
        E 0 80 62 00
        E 360 90 3d 60
        E 0 90 49 60
        E 0 90 55 60
        E 0 90 61 60
        E 120 80 3d 00
        E 0 80 49 00
        E 0 80 55 00
        E 0 80 61 00
        E 120 90 56 60
        E 0 90 62 60
        E 120 80 56 00
        E 0 80 62 00
        E 120 90 4b 60
        E 0 90 57 60
        E 0 90 63 60
        E 120 80 4b 00
        E 0 80 57 00
        E 0 80 63 00
        E 120 90 58 60
        E 0 90 64 60
        E 120 80 58 00
        E 0 80 64 00
        E 120 90 3c 60
        E 0 90 48 60
        E 0 90 54 60
        E 0 90 60 60
        E 120 80 3c 00
        E 0 80 48 00
        E 0 80 54 00
        E 0 80 60 00
        E 120 90 54 60
        E 0 90 60 60
        E 120 80 54 00
        E 0 80 60 00
        E 0 90 61 60
        E 120 80 61 00
        E 0 90 4a 60
        E 0 90 56 60
        E 0 90 62 60
        E 120 80 4a 00
        E 0 80 56 00
        E 0 80 62 00
        E 120 90 55 60
        E 0 90 61 60
        E 120 80 55 00
        E 0 80 61 00
        E 0 90 63 60
        E 120 80 63 00
        E 0 90 3e 60
        E 0 90 4b 60
        E 0 90 58 60
        E 0 90 64 60
        E 120 80 3e 00
        E 0 80 4b 00
        E 0 80 58 00
        E 0 80 64 00
        E 120 90 57 60
        E 0 90 63 60
        E 120 80 57 00
        E 0 80 63 00
        E 120 90 4a 60
        E 0 90 56 60
        E 0 90 62 60
        E 120 80 4a 00
        E 0 80 56 00
        E 0 80 62 00
        E 360 90 3d 60
        E 0 90 49 60
        E 0 90 55 60
        E 0 90 61 60
        E 120 80 3d 00
        E 0 80 49 00
        E 0 80 55 00
        E 0 80 61 00
        E 120 90 56 60
        E 0 90 62 60
        E 120 80 56 00
        E 0 80 62 00
        E 120 90 4b 60
        E 0 90 57 60
        E 0 90 63 60
        E 120 80 4b 00
        E 0 80 57 00
        E 0 80 63 00
        E 120 90 58 60
        E 0 90 64 60
        E 120 80 58 00
        E 0 80 64 00
        E 120 90 3c 60
        E 0 90 48 60
        E 0 90 54 60
        E 0 90 60 60
        E 120 80 3c 00
        E 0 80 48 00
        E 0 80 54 00
        E 0 80 60 00
        E 120 90 54 60
        E 0 90 60 60
        E 120 80 54 00
        E 0 80 60 00
        E 0 90 61 60
        E 120 80 61 00
        E 0 90 4a 60
        E 0 90 56 60
        E 0 90 62 60
        E 120 80 4a 00
        E 0 80 56 00
        E 0 80 62 00
        E 120 90 55 60
        E 0 90 61 60
        E 120 80 55 00
        E 0 80 61 00
        E 0 90 63 60
        E 120 80 63 00
        E 0 90 3e 60
        E 0 90 4b 60
        E 0 90 58 60
        E 0 90 64 60
        E 0 90 74 60
        E 120 80 3e 00
        E 0 80 4b 00
        E 0 80 58 00
        E 0 80 64 00
        E 120 90 57 60
        E 0 90 63 60
        E 120 80 57 00
        E 0 80 63 00
        E 120 90 4a 60
        E 0 90 56 60
        E 0 90 62 60
        E 120 80 4a 00
        E 0 80 56 00
        E 0 80 62 00
        E 360 90 3d 60
        E 0 90 49 60
        E 0 90 55 60
        E 0 90 61 60
        E 120 80 3d 00
        E 0 80 49 00
        E 0 80 55 00
        E 0 80 61 00
        E 120 90 56 60
        E 0 90 62 60
        E 120 80 56 00
        E 0 80 62 00
        E 120 90 4b 60
        E 0 90 57 60
        E 0 90 63 60
        E 120 80 4b 00
        E 0 80 57 00
        E 0 80 63 00
        E 120 90 58 60
        E 0 90 64 60
        E 120 80 58 00
        E 0 80 64 00
        E 120 90 3c 60
        E 0 90 48 60
        E 0 90 54 60
        E 0 90 60 60
        E 120 80 3c 00
        E 0 80 48 00
        E 0 80 54 00
        E 0 80 60 00
        E 120 90 54 60
        E 0 90 60 60
        E 120 80 54 00
        E 0 80 60 00
        E 0 90 61 60
        E 120 80 61 00
        E 0 90 4a 60
        E 0 90 56 60
        E 0 90 62 60
        E 120 80 4a 00
        E 0 80 56 00
        E 0 80 62 00
        E 120 90 55 60
        E 0 90 61 60
        E 120 80 55 00
        E 0 80 61 00
        E 0 90 63 60
        E 120 80 63 00
        E 0 90 3e 60
        E 0 90 4b 60
        E 0 90 58 60
        E 0 90 64 60
        E 120 80 74 00
        E 0 80 3e 00
        E 0 80 4b 00
        E 0 80 58 00
        E 0 80 64 00
        E 120 90 57 60
        E 0 90 63 60
        E 120 80 57 00
        E 0 80 63 00
        E 120 90 4a 60
        E 0 90 56 60
        E 0 90 62 60
        E 120 80 4a 00
        E 0 80 56 00
        E 0 80 62 00
        E 360 90 3d 60
        E 0 90 49 60
        E 0 90 55 60
        E 0 90 61 60
        E 120 80 3d 00
        E 0 80 49 00
        E 0 80 55 00
        E 0 80 61 00
        E 120 90 56 60
        E 0 90 62 60
        E 120 80 56 00
        E 0 80 62 00
        E 120 90 4b 60
        E 0 90 57 60
        E 0 90 63 60
        E 120 80 4b 00
        E 0 80 57 00
        E 0 80 63 00
        E 120 90 58 60
        E 0 90 64 60
        E 120 80 58 00
        E 0 80 64 00
        E 120 90 3c 60
        E 0 90 48 60
        E 0 90 54 60
        E 0 90 60 60
        E 120 80 3c 00
        E 0 80 48 00
        E 0 80 54 00
        E 0 80 60 00
        E 120 90 54 60
        E 0 90 60 60
        E 120 80 54 00
        E 0 80 60 00
        E 0 90 61 60
        E 120 80 61 00
        E 0 90 4a 60
        E 0 90 56 60
        E 0 90 62 60
        E 120 80 4a 00
        E 0 80 56 00
        E 0 80 62 00
        E 120 90 55 60
        E 0 90 61 60
        E 120 80 55 00
        E 0 80 61 00
        E 0 90 63 60
        E 120 80 63 00
        E 0 90 3e 60
        E 0 90 4b 60
        E 0 90 58 60
        E 0 90 64 60
        E 120 80 3e 00
        E 0 80 4b 00
        E 0 80 58 00
        E 0 80 64 00
        E 120 90 57 60
        E 0 90 63 60
        E 120 80 57 00
        E 0 80 63 00
        E 120 90 4a 60
        E 0 90 56 60
        E 0 90 62 60
        E 120 80 4a 00
        E 0 80 56 00
        E 0 80 62 00
        E 360 90 3d 60
        E 0 90 49 60
        E 0 90 55 60
        E 0 90 61 60
        E 120 80 3d 00
        E 0 80 49 00
        E 0 80 55 00
        E 0 80 61 00
        E 120 90 56 60
        E 0 90 62 60
        E 120 80 56 00
        E 0 80 62 00
        E 120 90 4b 60
        E 0 90 57 60
        E 0 90 63 60
        E 120 80 4b 00
        E 0 80 57 00
        E 0 80 63 00
        E 120 90 58 60
        E 0 90 64 60
        E 120 80 58 00
        E 0 80 64 00
        E 120 90 3c 60
        E 0 90 48 60
        E 0 90 54 60
        E 0 90 60 60
        E 120 80 3c 00
        E 0 80 48 00
        E 0 80 54 00
        E 0 80 60 00
        E 120 90 54 60
        E 0 90 60 60
        E 120 80 54 00
        E 0 80 60 00
        E 0 90 61 60
        E 120 80 61 00
        E 0 90 4a 60
        E 0 90 56 60
        E 0 90 62 60
        E 120 80 4a 00
        E 0 80 56 00
        E 0 80 62 00
        E 120 90 55 60
        E 0 90 61 60
        E 120 80 55 00
        E 0 80 61 00
        E 0 90 63 60
        E 120 80 63 00
        E 0 90 3e 60
        E 0 90 4b 60
        E 0 90 58 60
        E 0 90 64 60
        E 120 80 3e 00
        E 0 80 4b 00
        E 0 80 58 00
        E 0 80 64 00
        E 120 90 57 60
        E 0 90 63 60
        E 120 80 57 00
        E 0 80 63 00
        E 120 90 4a 60
        E 0 90 56 60
        E 0 90 62 60
        E 120 80 4a 00
        E 0 80 56 00
        E 0 80 62 00
        E 360 90 3d 60
        E 0 90 49 60
        E 0 90 55 60
        E 0 90 61 60
        E 120 80 3d 00
        E 0 80 49 00
        E 0 80 55 00
        E 0 80 61 00
        E 120 90 56 60
        E 0 90 62 60
        E 120 80 56 00
        E 0 80 62 00
        E 120 90 4b 60
        E 0 90 57 60
        E 0 90 63 60
        E 120 80 4b 00
        E 0 80 57 00
        E 0 80 63 00
        E 120 90 58 60
        E 0 90 64 60
        E 120 80 58 00
        E 0 80 64 00
        E 120 90 3c 60
        E 0 90 48 60
        E 0 90 54 60
        E 0 90 60 60
        E 120 80 3c 00
        E 0 80 48 00
        E 0 80 54 00
        E 0 80 60 00
        E 120 90 54 60
        E 0 90 60 60
        E 120 80 54 00
        E 0 80 60 00
        E 0 90 61 60
        E 120 80 61 00
        E 0 90 4a 60
        E 0 90 56 60
        E 0 90 62 60
        E 120 80 4a 00
        E 0 80 56 00
        E 0 80 62 00
        E 120 90 55 60
        E 0 90 61 60
        E 120 80 55 00
        E 0 80 61 00
        E 0 90 63 60
        E 120 80 63 00
        E 0 90 3e 60
        E 0 90 4b 60
        E 0 90 58 60
        E 0 90 64 60
        E 120 80 3e 00
        E 0 80 4b 00
        E 0 80 58 00
        E 0 80 64 00
        E 120 90 57 60
        E 0 90 63 60
        E 120 80 57 00
        E 0 80 63 00
        E 120 90 4a 60
        E 0 90 56 60
        E 0 90 62 60
        E 120 80 4a 00
        E 0 80 56 00
        E 0 80 62 00
        E 360 90 3d 60
        E 0 90 49 60
        E 0 90 55 60
        E 0 90 61 60
        E 120 80 3d 00
        E 0 80 49 00
        E 0 80 55 00
        E 0 80 61 00
        E 120 90 56 60
        E 0 90 62 60
        E 120 80 56 00
        E 0 80 62 00
        E 120 90 4b 60
        E 0 90 57 60
        E 0 90 63 60
        E 120 80 4b 00
        E 0 80 57 00
        E 0 80 63 00
        E 360 90 3d 60
        E 0 90 48 60
        E 0 90 4a 60
        E 0 90 54 60
        E 0 90 57 60
        E 0 90 60 60
        E 0 90 62 60
        E 0 90 63 60
        E 3600 80 3d 00
        E 0 80 48 00
        E 0 80 4a 00
        E 0 80 54 00
        E 0 80 57 00
        E 0 80 60 00
        E 0 80 62 00
        E 0 80 63 00
        E 480 90 55 60
        E 0 90 61 60
        E 120 80 55 00
        E 0 80 61 00
        E 0 90 62 60
        E 120 80 62 00
        E 0 90 3e 60
        E 0 90 4b 60
        E 0 90 57 60
        E 0 90 63 60
        E 120 80 3e 00
        E 0 80 4b 00
        E 0 80 57 00
        E 0 80 63 00
        E 120 90 55 60
        E 0 90 61 60
        E 120 80 55 00
        E 0 80 61 00
        E 0 90 63 60
        E 120 80 63 00
        E 0 90 3e 60
        E 0 90 4b 60
        E 0 90 58 60
        E 0 90 64 60
        E 120 80 3e 00
        E 0 80 4b 00
        E 0 80 58 00
        E 0 80 64 00
        E 120 90 57 60
        E 0 90 63 60
        E 120 80 57 00
        E 0 80 63 00
        E 120 90 4a 60
        E 0 90 56 60
        E 0 90 62 60
        E 120 80 4a 00
        E 0 80 56 00
        E 0 80 62 00
        E 360 90 3d 60
        E 0 90 49 60
        E 0 90 55 60
        E 0 90 61 60
        E 0 90 74 60
        E 120 80 3d 00
        E 0 80 49 00
        E 0 80 55 00
        E 0 80 61 00
        E 120 90 56 60
        E 0 90 62 60
        E 120 80 56 00
        E 0 80 62 00
        E 120 90 4b 60
        E 0 90 57 60
        E 0 90 63 60
        E 120 80 4b 00
        E 0 80 57 00
        E 0 80 63 00
        E 120 90 58 60
        E 0 90 64 60
        E 120 80 58 00
        E 0 80 64 00
        E 120 90 3c 60
        E 0 90 48 60
        E 0 90 54 60
        E 0 90 60 60
        E 120 80 3c 00
        E 0 80 48 00
        E 0 80 54 00
        E 0 80 60 00
        E 120 90 54 60
        E 0 90 60 60
        E 120 80 54 00
        E 0 80 60 00
        E 0 90 61 60
        E 120 80 61 00
        E 0 90 4a 60
        E 0 90 56 60
        E 0 90 62 60
        E 120 80 4a 00
        E 0 80 56 00
        E 0 80 62 00
        E 120 90 55 60
        E 0 90 61 60
        E 120 80 55 00
        E 0 80 61 00
        E 0 90 63 60
        E 120 80 63 00
        E 0 90 3e 60
        E 0 90 4b 60
        E 0 90 58 60
        E 0 90 64 60
        E 120 80 74 00
        E 0 80 3e 00
        E 0 80 4b 00
        E 0 80 58 00
        E 0 80 64 00
        E 120 90 57 60
        E 0 90 63 60
        E 120 80 57 00
        E 0 80 63 00
        E 120 90 4a 60
        E 0 90 56 60
        E 0 90 62 60
        E 120 80 4a 00
        E 0 80 56 00
        E 0 80 62 00
        E 360 90 3d 60
        E 0 90 49 60
        E 0 90 55 60
        E 0 90 61 60
        E 120 80 3d 00
        E 0 80 49 00
        E 0 80 55 00
        E 0 80 61 00
        E 120 90 56 60
        E 0 90 62 60
        E 120 80 56 00
        E 0 80 62 00
        E 120 90 4b 60
        E 0 90 57 60
        E 0 90 63 60
        E 120 80 4b 00
        E 0 80 57 00
        E 0 80 63 00
        E 120 90 58 60
        E 0 90 64 60
        E 120 80 58 00
        E 0 80 64 00
        E 120 90 3c 60
        E 0 90 48 60
        E 0 90 54 60
        E 0 90 60 60
        E 120 80 3c 00
        E 0 80 48 00
        E 0 80 54 00
        E 0 80 60 00
        E 120 90 55 60
        E 0 90 61 60
        E 120 80 55 00
        E 0 80 61 00
        E 0 90 62 60
        E 120 80 62 00
        E 0 90 4b 60
        E 0 90 57 60
        E 0 90 63 60
        E 120 80 4b 00
        E 0 80 57 00
        E 0 80 63 00
        E 120 90 55 60
        E 0 90 61 60
        E 120 80 55 00
        E 0 80 61 00
        E 0 90 63 60
        E 120 80 63 00
        E 0 90 3e 60
        E 0 90 4b 60
        E 0 90 58 60
        E 0 90 64 60
        E 120 80 3e 00
        E 0 80 4b 00
        E 0 80 58 00
        E 0 80 64 00
        E 120 90 57 60
        E 0 90 63 60
        E 120 80 57 00
        E 0 80 63 00
        E 120 90 4a 60
        E 0 90 56 60
        E 0 90 62 60
        E 120 80 4a 00
        E 0 80 56 00
        E 0 80 62 00
        E 360 90 3d 60
        E 0 90 49 60
        E 0 90 55 60
        E 0 90 61 60
        E 120 80 3d 00
        E 0 80 49 00
        E 0 80 55 00
        E 0 80 61 00
        E 120 90 56 60
        E 0 90 62 60
        E 120 80 56 00
        E 0 80 62 00
        E 120 90 4b 60
        E 0 90 57 60
        E 0 90 63 60
        E 120 80 4b 00
        E 0 80 57 00
        E 0 80 63 00
        E 120 90 58 60
        E 0 90 64 60
        E 120 80 58 00
        E 0 80 64 00
        E 120 90 3c 60
        E 0 90 48 60
        E 0 90 54 60
        E 0 90 60 60
        E 120 80 3c 00
        E 0 80 48 00
        E 0 80 54 00
        E 0 80 60 00
        E 120 90 54 60
        E 0 90 60 60
        E 120 80 54 00
        E 0 80 60 00
        E 0 90 61 60
        E 120 80 61 00
        E 0 90 4a 60
        E 0 90 56 60
        E 0 90 62 60
        E 120 80 4a 00
        E 0 80 56 00
        E 0 80 62 00
        E 120 90 55 60
        E 0 90 61 60
        E 120 80 55 00
        E 0 80 61 00
        E 0 90 63 60
        E 120 80 63 00
        E 0 90 3e 60
        E 0 90 4b 60
        E 0 90 58 60
        E 0 90 64 60
        E 120 80 3e 00
        E 0 80 4b 00
        E 0 80 58 00
        E 0 80 64 00
        E 120 90 57 60
        E 0 90 63 60
        E 120 80 57 00
        E 0 80 63 00
        E 120 90 4a 60
        E 0 90 56 60
        E 0 90 62 60
        E 120 80 4a 00
        E 0 80 56 00
        E 0 80 62 00
        E 360 90 3d 60
        E 0 90 49 60
        E 0 90 55 60
        E 0 90 61 60
        E 120 80 3d 00
        E 0 80 49 00
        E 0 80 55 00
        E 0 80 61 00
        E 120 90 56 60
        E 0 90 62 60
        E 120 80 56 00
        E 0 80 62 00
        E 120 90 4b 60
        E 0 90 57 60
        E 0 90 63 60
        E 120 80 4b 00
        E 0 80 57 00
        E 0 80 63 00
        E 120 90 58 60
        E 0 90 64 60
        E 120 80 58 00
        E 0 80 64 00
        E 120 90 3c 60
        E 0 90 48 60
        E 0 90 54 60
        E 0 90 60 60
        E 120 80 3c 00
        E 0 80 48 00
        E 0 80 54 00
        E 0 80 60 00
        E 120 90 55 60
        E 0 90 61 60
        E 120 80 55 00
        E 0 80 61 00
        E 0 90 62 60
        E 120 80 62 00
        E 0 90 4b 60
        E 0 90 57 60
        E 0 90 63 60
        E 120 80 4b 00
        E 0 80 57 00
        E 0 80 63 00
        E 120 90 55 60
        E 0 90 61 60
        E 120 80 55 00
        E 0 80 61 00
        E 0 90 63 60
        E 120 80 63 00
        E 0 90 3e 60
        E 0 90 4b 60
        E 0 90 58 60
        E 0 90 64 60
        E 120 80 3e 00
        E 0 80 4b 00
        E 0 80 58 00
        E 0 80 64 00
        E 120 90 57 60
        E 0 90 63 60
        E 120 80 57 00
        E 0 80 63 00
        E 120 90 4a 60
        E 0 90 56 60
        E 0 90 62 60
        E 120 80 4a 00
        E 0 80 56 00
        E 0 80 62 00
        E 360 90 3d 60
        E 0 90 49 60
        E 0 90 55 60
        E 0 90 61 60
        E 120 80 3d 00
        E 0 80 49 00
        E 0 80 55 00
        E 0 80 61 00
        E 120 90 56 60
        E 0 90 62 60
        E 120 80 56 00
        E 0 80 62 00
        E 120 90 4b 60
        E 0 90 57 60
        E 0 90 63 60
        E 120 80 4b 00
        E 0 80 57 00
        E 0 80 63 00
        E 120 90 58 60
        E 0 90 64 60
        E 120 80 58 00
        E 0 80 64 00
        E 120 90 3c 60
        E 0 90 48 60
        E 0 90 54 60
        E 0 90 60 60
        E 120 80 3c 00
        E 0 80 48 00
        E 0 80 54 00
        E 0 80 60 00
        E 120 90 54 60
        E 0 90 60 60
        E 120 80 54 00
        E 0 80 60 00
        E 0 90 61 60
        E 120 80 61 00
        E 0 90 4a 60
        E 0 90 56 60
        E 0 90 62 60
        E 120 80 4a 00
        E 0 80 56 00
        E 0 80 62 00
        E 120 90 55 60
        E 0 90 61 60
        E 120 80 55 00
        E 0 80 61 00
        E 0 90 63 60
        E 120 80 63 00
        E 0 90 3e 60
        E 0 90 4b 60
        E 0 90 58 60
        E 0 90 64 60
        E 120 80 3e 00
        E 0 80 4b 00
        E 0 80 58 00
        E 0 80 64 00
        E 120 90 57 60
        E 0 90 63 60
        E 120 80 57 00
        E 0 80 63 00
        E 120 90 4a 60
        E 0 90 56 60
        E 0 90 62 60
        E 120 80 4a 00
        E 0 80 56 00
        E 0 80 62 00
        E 360 90 3d 60
        E 0 90 49 60
        E 0 90 55 60
        E 0 90 61 60
        E 120 80 3d 00
        E 0 80 49 00
        E 0 80 55 00
        E 0 80 61 00
        E 120 90 56 60
        E 0 90 62 60
        E 120 80 56 00
        E 0 80 62 00
        E 120 90 4b 60
        E 0 90 57 60
        E 0 90 63 60
        E 120 80 4b 00
        E 0 80 57 00
        E 0 80 63 00
        E 120 90 58 60
        E 0 90 64 60
        E 120 80 58 00
        E 0 80 64 00
        E 120 90 3c 60
        E 0 90 48 60
        E 0 90 54 60
        E 0 90 60 60
        E 120 80 3c 00
        E 0 80 48 00
        E 0 80 54 00
        E 0 80 60 00
        E 120 90 54 60
        E 0 90 60 60
        E 120 80 54 00
        E 0 80 60 00
        E 0 90 61 60
        E 120 80 61 00
        E 0 90 4a 60
        E 0 90 56 60
        E 0 90 62 60
        E 120 80 4a 00
        E 0 80 56 00
        E 0 80 62 00
        E 120 90 55 60
        E 0 90 61 60
        E 120 80 55 00
        E 0 80 61 00
        E 0 90 63 60
        E 120 80 63 00
        E 0 90 3e 60
        E 0 90 4b 60
        E 0 90 58 60
        E 0 90 64 60
        E 120 80 3e 00
        E 0 80 4b 00
        E 0 80 58 00
        E 0 80 64 00
        E 120 90 57 60
        E 0 90 63 60
        E 120 80 57 00
        E 0 80 63 00
        E 120 90 4a 60
        E 0 90 56 60
        E 0 90 62 60
        E 120 80 4a 00
        E 0 80 56 00
        E 0 80 62 00
        E 360 90 3d 60
        E 0 90 49 60
        E 0 90 55 60
        E 0 90 61 60
        E 120 80 3d 00
        E 0 80 49 00
        E 0 80 55 00
        E 0 80 61 00
        E 120 90 56 60
        E 0 90 62 60
        E 120 80 56 00
        E 0 80 62 00
        E 120 90 4b 60
        E 0 90 57 60
        E 0 90 63 60
        E 120 80 4b 00
        E 0 80 57 00
        E 0 80 63 00
        E 120 90 58 60
        E 0 90 64 60
        E 120 80 58 00
        E 0 80 64 00
        E 120 90 3c 60
        E 0 90 48 60
        E 0 90 54 60
        E 0 90 60 60
        E 120 80 3c 00
        E 0 80 48 00
        E 0 80 54 00
        E 0 80 60 00
        E 120 90 54 60
        E 0 90 60 60
        E 120 80 54 00
        E 0 80 60 00
        E 0 90 61 60
        E 120 80 61 00
        E 0 90 4a 60
        E 0 90 56 60
        E 0 90 62 60
        E 120 80 4a 00
        E 0 80 56 00
        E 0 80 62 00
        E 120 90 55 60
        E 0 90 61 60
        E 120 80 55 00
        E 0 80 61 00
        E 0 90 63 60
        E 120 80 63 00
        E 0 90 3e 60
        E 0 90 4b 60
        E 0 90 58 60
        E 0 90 64 60
        E 120 80 3e 00
        E 0 80 4b 00
        E 0 80 58 00
        E 0 80 64 00
        E 120 90 57 60
        E 0 90 63 60
        E 120 80 57 00
        E 0 80 63 00
        E 120 90 4a 60
        E 0 90 56 60
        E 0 90 62 60
        E 120 80 4a 00
        E 0 80 56 00
        E 0 80 62 00
        E 360 90 3d 60
        E 0 90 49 60
        E 0 90 55 60
        E 0 90 61 60
        E 120 80 3d 00
        E 0 80 49 00
        E 0 80 55 00
        E 0 80 61 00
        E 120 90 56 60
        E 0 90 62 60
        E 120 80 56 00
        E 0 80 62 00
        E 120 90 4b 60
        E 0 90 57 60
        E 0 90 63 60
        E 120 80 4b 00
        E 0 80 57 00
        E 0 80 63 00
        E 120 90 58 60
        E 0 90 64 60
        E 120 80 58 00
        E 0 80 64 00
        E 120 90 3c 60
        E 0 90 48 60
        E 0 90 54 60
        E 0 90 60 60
        E 120 80 3c 00
        E 0 80 48 00
        E 0 80 54 00
        E 0 80 60 00
        E 120 90 54 60
        E 0 90 60 60
        E 120 80 54 00
        E 0 80 60 00
        E 0 90 61 60
        E 120 80 61 00
        E 0 90 4a 60
        E 0 90 56 60
        E 0 90 62 60
        E 120 80 4a 00
        E 0 80 56 00
        E 0 80 62 00
        E 120 90 55 60
        E 0 90 61 60
        E 120 80 55 00
        E 0 80 61 00
        E 0 90 63 60
        E 120 80 63 00
        E 0 90 3e 60
        E 0 90 4b 60
        E 0 90 58 60
        E 0 90 64 60
        E 0 90 74 60
        E 120 80 3e 00
        E 0 80 4b 00
        E 0 80 58 00
        E 0 80 64 00
        E 120 90 57 60
        E 0 90 63 60
        E 120 80 57 00
        E 0 80 63 00
        E 120 90 4a 60
        E 0 90 56 60
        E 0 90 62 60
        E 120 80 4a 00
        E 0 80 56 00
        E 0 80 62 00
        E 360 90 3d 60
        E 0 90 49 60
        E 0 90 55 60
        E 0 90 61 60
        E 120 80 3d 00
        E 0 80 49 00
        E 0 80 55 00
        E 0 80 61 00
        E 120 90 56 60
        E 0 90 62 60
        E 120 80 56 00
        E 0 80 62 00
        E 120 90 4b 60
        E 0 90 57 60
        E 0 90 63 60
        E 120 80 4b 00
        E 0 80 57 00
        E 0 80 63 00
        E 120 90 58 60
        E 0 90 64 60
        E 120 80 58 00
        E 0 80 64 00
        E 120 90 3c 60
        E 0 90 48 60
        E 0 90 54 60
        E 0 90 60 60
        E 120 80 3c 00
        E 0 80 48 00
        E 0 80 54 00
        E 0 80 60 00
        E 120 90 54 60
        E 0 90 60 60
        E 120 80 54 00
        E 0 80 60 00
        E 0 90 61 60
        E 120 80 61 00
        E 0 90 4a 60
        E 0 90 56 60
        E 0 90 62 60
        E 120 80 4a 00
        E 0 80 56 00
        E 0 80 62 00
        E 120 90 55 60
        E 0 90 61 60
        E 120 80 55 00
        E 0 80 61 00
        E 0 90 63 60
        E 120 80 63 00
        E 0 90 3e 60
        E 0 90 4b 60
        E 0 90 58 60
        E 0 90 64 60
        E 120 80 74 00
        E 0 80 3e 00
        E 0 80 4b 00
        E 0 80 58 00
        E 0 80 64 00
        E 120 90 57 60
        E 0 90 63 60
        E 120 80 57 00
        E 0 80 63 00
        E 120 90 4a 60
        E 0 90 56 60
        E 0 90 62 60
        E 120 80 4a 00
        E 0 80 56 00
        E 0 80 62 00
        E 360 90 3d 60
        E 0 90 49 60
        E 0 90 55 60
        E 0 90 61 60
        E 120 80 3d 00
        E 0 80 49 00
        E 0 80 55 00
        E 0 80 61 00
        E 120 90 56 60
        E 0 90 62 60
        E 120 80 56 00
        E 0 80 62 00
        E 120 90 4b 60
        E 0 90 57 60
        E 0 90 63 60
        E 120 80 4b 00
        E 0 80 57 00
        E 0 80 63 00
        E 120 90 58 60
        E 0 90 64 60
        E 120 80 58 00
        E 0 80 64 00
        E 120 90 3c 60
        E 0 90 48 60
        E 0 90 54 60
        E 0 90 60 60
        E 120 80 3c 00
        E 0 80 48 00
        E 0 80 54 00
        E 0 80 60 00
        E 120 90 54 60
        E 0 90 60 60
        E 120 80 54 00
        E 0 80 60 00
        E 0 90 61 60
        E 120 80 61 00
        E 0 90 4a 60
        E 0 90 56 60
        E 0 90 62 60
        E 120 80 4a 00
        E 0 80 56 00
        E 0 80 62 00
        E 120 90 55 60
        E 0 90 61 60
        E 120 80 55 00
        E 0 80 61 00
        E 0 90 63 60
        E 120 80 63 00
        E 0 90 3e 60
        E 0 90 4b 60
        E 0 90 58 60
        E 0 90 64 60
        E 120 80 3e 00
        E 0 80 4b 00
        E 0 80 58 00
        E 0 80 64 00
        E 120 90 57 60
        E 0 90 63 60
        E 120 80 57 00
        E 0 80 63 00
        E 120 90 4a 60
        E 0 90 56 60
        E 0 90 62 60
        E 120 80 4a 00
        E 0 80 56 00
        E 0 80 62 00
        E 360 90 3d 60
        E 0 90 49 60
        E 0 90 55 60
        E 0 90 61 60
        E 120 80 3d 00
        E 0 80 49 00
        E 0 80 55 00
        E 0 80 61 00
        E 120 90 56 60
        E 0 90 62 60
        E 120 80 56 00
        E 0 80 62 00
        E 120 90 4b 60
        E 0 90 57 60
        E 0 90 63 60
        E 120 80 4b 00
        E 0 80 57 00
        E 0 80 63 00
        E 120 90 58 60
        E 0 90 64 60
        E 120 80 58 00
        E 0 80 64 00
        E 120 90 3c 60
        E 0 90 48 60
        E 0 90 54 60
        E 0 90 60 60
        E 120 80 3c 00
        E 0 80 48 00
        E 0 80 54 00
        E 0 80 60 00
        E 120 90 54 60
        E 0 90 60 60
        E 120 80 54 00
        E 0 80 60 00
        E 0 90 61 60
        E 120 80 61 00
        E 0 90 4a 60
        E 0 90 56 60
        E 0 90 62 60
        E 120 80 4a 00
        E 0 80 56 00
        E 0 80 62 00
        E 120 90 55 60
        E 0 90 61 60
        E 120 80 55 00
        E 0 80 61 00
        E 0 90 63 60
        E 120 80 63 00
        E 0 90 3e 60
        E 0 90 4b 60
        E 0 90 58 60
        E 0 90 64 60
        E 120 80 3e 00
        E 0 80 4b 00
        E 0 80 58 00
        E 0 80 64 00
        E 120 90 57 60
        E 0 90 63 60
        E 120 80 57 00
        E 0 80 63 00
        E 120 90 4a 60
        E 0 90 56 60
        E 0 90 62 60
        E 120 80 4a 00
        E 0 80 56 00
        E 0 80 62 00
        E 360 90 3d 60
        E 0 90 49 60
        E 0 90 55 60
        E 0 90 61 60
        E 120 80 3d 00
        E 0 80 49 00
        E 0 80 55 00
        E 0 80 61 00
        E 120 90 56 60
        E 0 90 62 60
        E 120 80 56 00
        E 0 80 62 00
        E 120 90 4b 60
        E 0 90 57 60
        E 0 90 63 60
        E 120 80 4b 00
        E 0 80 57 00
        E 0 80 63 00
        E 120 90 58 60
        E 0 90 64 60
        E 120 80 58 00
        E 0 80 64 00
        E 120 90 3d 60
        E 0 90 49 60
        E 0 90 55 60
        E 0 90 61 60
        E 120 80 3d 00
        E 0 80 49 00
        E 0 80 55 00
        E 0 80 61 00
        E 120 90 56 60
        E 0 90 62 60
        E 120 80 56 00
        E 0 80 62 00
        E 120 90 4b 60
        E 0 90 57 60
        E 0 90 63 60
        E 120 80 4b 00
        E 0 80 57 00
        E 0 80 63 00
        E 120 90 58 60
        E 0 90 64 60
        E 120 80 58 00
        E 0 80 64 00
        E 120 90 3e 60
        E 0 90 4b 60
        E 0 90 57 60
        E 0 90 63 60
        E 120 80 3e 00
        E 0 80 4b 00
        E 0 80 57 00
        E 0 80 63 00
        E 360 90 3c 60
        E 0 90 48 60
        E 0 90 54 60
        E 0 90 60 60
        E 120 80 3c 00
        E 0 80 48 00
        E 0 80 54 00
        E 0 80 60 00
        E 120 90 56 60
        E 0 90 62 60
        E 120 80 56 00
        E 0 80 62 00
        E 120 90 4b 60
        E 0 90 57 60
        E 0 90 63 60
        E 120 80 4b 00
        E 0 80 57 00
        E 0 80 63 00
        E 120 90 58 60
        E 0 90 64 60
        E 120 80 58 00
        E 0 80 64 00
        E 120 90 4b 60
        E 0 90 57 60
        E 0 90 63 60
        E 120 80 4b 00
        E 0 80 57 00
        E 0 80 63 00
        E 360 90 3d 60
        E 0 90 49 60
        E 0 90 55 60
        E 0 90 61 60
        E 120 80 3d 00
        E 0 80 49 00
        E 0 80 55 00
        E 0 80 61 00
        E 120 90 56 60
        E 0 90 62 60
        E 120 80 56 00
        E 0 80 62 00
        E 120 90 4b 60
        E 0 90 57 60
        E 0 90 63 60
        E 120 80 4b 00
        E 0 80 57 00
        E 0 80 63 00
        E 120 90 58 60
        E 0 90 64 60
        E 120 80 58 00
        E 0 80 64 00
        E 120 90 3e 60
        E 0 90 4b 60
        E 0 90 57 60
        E 0 90 63 60
        E 120 80 3e 00
        E 0 80 4b 00
        E 0 80 57 00
        E 0 80 63 00
        E 360 90 3c 60
        E 0 90 48 60
        E 0 90 54 60
        E 0 90 60 60
        E 120 80 3c 00
        E 0 80 48 00
        E 0 80 54 00
        E 0 80 60 00
        E 120 90 56 60
        E 0 90 62 60
        E 120 80 56 00
        E 0 80 62 00
        E 120 90 4b 60
        E 0 90 57 60
        E 0 90 63 60
        E 120 80 4b 00
        E 0 80 57 00
        E 0 80 63 00
        E 120 90 58 60
        E 0 90 64 60
        E 120 80 58 00
        E 0 80 64 00
        E 120 90 3e 60
        E 0 90 4b 60
        E 0 90 57 60
        E 0 90 63 60
        E 120 80 2d 00
        E 0 80 3e 00
        E 0 80 4b 00
        E 0 80 57 00
        E 0 80 63 00
        E 360 90 3b 60
        E 120 90 4b 60
        E 0 90 4c 60
        E 0 90 57 60
        E 0 90 58 60
        E 0 90 62 60
        E 0 90 63 60
        E 0 90 64 60
        E 3000 80 3b 00
        E 0 80 4b 00
        E 0 80 4c 00
        E 0 80 57 00
        E 0 80 58 00
        E 0 80 62 00
        E 0 80 63 00
        E 0 80 64 00
        <X 480 0
          /wFbaWRsZV9yZWFsdGltZV0=
        >
        E 6960 b0 7b 00
        GUID {BB844BA8-0C67-42B8-AEBF-F6EC6283062C}
        IGNTEMPO 0 120.00000000 4 4
        SRCCOLOR 5
        VELLANE 132 100 0
        COLORMAP "C:\Program Files\REAPER (x64)\Data\color_maps\rockband_guitarbass.png"
        CFGEDITVIEW -6864.000000 0.011701 0 16 0 0 0
        CFGEDIT 1 1 0 1 1 0 1 1 1 1 1 0.25000000 -8 -8 1928 1088 0 2 0 2 0.00000000 0 1 0 0 0.500000 0 0 1.000000 64
        KEYSNAP 0 9 "102034050607" 0 "Major"
        EVTFILTER 0 -1 -1 -1 -1 0 1 0 0 -1.00000000 -1.00000000
      >
    >
  >
  <TRACK '{EBD0F44E-108F-4454-8879-820CE8EA0431}'
    NAME "PART BASS"
    PEAKCOL 16576
    BEAT -1
    AUTOMODE 0
    VOLPAN 1.00000000000000 0.00000000000000 -1.00000000000000 -1.00000000000000 1.00000000000000
    MUTESOLO 0 0 0
    IPHASE 0
    ISBUS 0 0
    BUSCOMP 0 0
    SHOWINMIX 1 0.666700 0.500000 1 0.500000 -1 -1 -1
    FREEMODE 0
    SEL 0
    REC 0 0 0 0 0 0 0
    VU 2
    TRACKHEIGHT 0 0
    INQ 0 0 0 0.5000000000 100 0 0 100
    NCHAN 2
    FX 1
    TRACKID {EBD0F44E-108F-4454-8879-820CE8EA0431}
    PERF 0
    MIDIOUT -1
    <MIDINOTENAMES
      0 127 "TRILL MARKER"
      0 126 "TREMOLO MARKER"
      0 125 "---"
      0 124 "BRE"
      0 123 "BRE"
      0 122 "BRE"
      0 121 "BRE"
      0 120 "BRE (use all 5)"
      0 119 "----"
      0 116 "OVERDRIVE"
      0 115 "----"
      0 103 "Solo Marker"
      0 102 "Force HOPO Off"
      0 101 "Force HOPO On"
      0 100 "EXPERT Orange"
      0 99 "EXPERT Blue"
      0 98 "EXPERT Yellow"
      0 97 "EXPERT Red"
      0 96 "EXPERT Green"
      0 95 "----"
      0 90 "Force HOPO Off"
      0 89 "Force HOPO On"
      0 88 "HARD Orange"
      0 87 "HARD Blue"
      0 86 "HARD Yellow"
      0 85 "HARD Red"
      0 84 "HARD Green"
      0 77 "----"
      0 76 "MEDIUM Orange"
      0 75 "MEDIUM Blue"
      0 74 "MEDIUM Yellow"
      0 73 "MEDIUM Red"
      0 72 "MEDIUM Green"
      0 65 "----"
      0 64 "EASY Orange"
      0 63 "EASY Blue"
      0 62 "EASY Yellow"
      0 61 "EASY Red"
      0 60 "EASY Green"
      0 59 "Fret 12"
      0 57 "Fret 11"
      0 56 "Fret 10"
      0 55 "Fret 9"
      0 53 "Fret 8"
      0 52 "Fret 7"
      0 50 "Fret 6"
      0 49 "Fret 5"
      0 47 "Fret 4"
      0 45 "Fret 3"
      0 43 "Fret 2"
      0 40 "Fret 1"
    >
    MAINSEND 1 0
    <FXCHAIN
      WNDRECT 0 43 878 559
      SHOW 0
      LASTSEL 0
      DOCKED 0
      BYPASS 0 0
      <VST "VSTi: RBN Preview (RBN)" "rbprev_vst64.dll" 0 ""
        dnBicu5e7f4AAAAAAgAAAAEAAAAAAAAAAgAAAAAAAAAEAAAAAQAAAA==
        AAAQAAMAqgAAABAAAAA=
      >
      FLOATPOS 0 0 0 0
      FXID {A8748A18-089F-4D02-A8A7-0F3D60F08BDF}
      WAK 0
    >
    <ITEM
      POSITION 0.00000000000000
      SNAPOFFS 0.00000000000000
      LENGTH 147.78905973205917
      LOOP 0
      ALLTAKES 0
      SEL 0
      FADEIN 1 0.000000 0.000000 1 0
      FADEOUT 1 0.000000 0.000000 1 0
      MUTE 0
      IGUID {298AF6DA-4149-4970-A711-96C48515A648}
      IID 23
      NAME "PART BASS"
      VOLPAN 1.000000 0.000000 1.000000 -1.000000
      SOFFS 0.00000000000000 0.00000000000000
      PLAYRATE 1.00000000000000 1 0.00000000000000 -1
      CHANMODE 0
      GUID {07FA1272-DB1E-49A8-8026-E741CFBBC111}
      <SOURCE MIDI
        HASDATA 1 480 QN
        POOLEDEVTS {BF809D22-A8B5-4688-9EE2-5360AFE8F59F}
        <X 0 0
          /wNQQVJUIEJBU1M=
        >
        <X 3840 0
          /wFbcGxheV0=
        >
        E 0 90 28 60
        E 0 90 3e 60
        E 0 90 4a 60
        E 0 90 56 60
        E 0 90 62 60
        E 480 80 3e 00
        E 0 80 4a 00
        E 120 80 56 00
        E 0 80 62 00
        E 120 90 56 60
        E 0 90 62 60
        E 120 80 28 00
        E 0 80 56 00
        E 0 80 62 00
        E 120 90 2d 60
        E 0 90 3d 60
        E 0 90 49 60
        E 0 90 55 60
        E 0 90 59 60
        E 0 90 61 60
        E 0 90 65 60
        E 480 80 3d 00
        E 0 80 49 00
        E 120 80 55 00
        E 0 80 59 00
        E 0 80 61 00
        E 0 80 65 00
        E 120 90 55 60
        E 0 90 61 60
        E 120 80 2d 00
        E 0 80 55 00
        E 0 80 61 00
        E 120 90 28 60
        E 0 90 3c 60
        E 0 90 48 60
        E 0 90 54 60
        E 0 90 59 60
        E 0 90 60 60
        E 0 90 65 60
        E 480 80 3c 00
        E 0 80 48 00
        E 360 80 54 00
        E 0 80 59 00
        E 0 80 60 00
        E 0 80 65 00
        E 120 90 3e 60
        E 0 90 4a 60
        E 0 90 56 60
        E 0 90 62 60
        E 480 80 3e 00
        E 0 80 4a 00
        E 120 80 56 00
        E 0 80 62 00
        E 120 90 56 60
        E 0 90 62 60
        E 120 80 28 00
        E 0 80 56 00
        E 0 80 62 00
        E 120 90 2d 60
        E 0 90 3d 60
        E 0 90 49 60
        E 0 90 55 60
        E 0 90 59 60
        E 0 90 61 60
        E 0 90 65 60
        E 480 80 3d 00
        E 0 80 49 00
        E 120 80 55 00
        E 0 80 59 00
        E 0 80 61 00
        E 0 80 65 00
        E 120 90 55 60
        E 0 90 61 60
        E 120 80 2d 00
        E 0 80 55 00
        E 0 80 61 00
        E 120 90 28 60
        E 0 90 3c 60
        E 0 90 48 60
        E 0 90 54 60
        E 0 90 59 60
        E 0 90 60 60
        E 0 90 65 60
        E 480 80 3c 00
        E 0 80 48 00
        E 360 80 54 00
        E 0 80 59 00
        E 0 80 60 00
        E 0 80 65 00
        E 120 90 3e 60
        E 0 90 4a 60
        E 0 90 56 60
        E 0 90 62 60
        E 480 80 3e 00
        E 0 80 4a 00
        E 120 80 56 00
        E 0 80 62 00
        E 120 90 56 60
        E 0 90 62 60
        E 120 80 28 00
        E 0 80 56 00
        E 0 80 62 00
        E 120 90 2d 60
        E 0 90 3d 60
        E 0 90 49 60
        E 0 90 55 60
        E 0 90 59 60
        E 0 90 61 60
        E 0 90 65 60
        E 480 80 3d 00
        E 0 80 49 00
        E 120 80 55 00
        E 0 80 59 00
        E 0 80 61 00
        E 0 80 65 00
        E 120 90 55 60
        E 0 90 61 60
        E 120 80 2d 00
        E 0 80 55 00
        E 0 80 61 00
        E 120 90 28 60
        E 0 90 3c 60
        E 0 90 48 60
        E 0 90 54 60
        E 0 90 59 60
        E 0 90 60 60
        E 0 90 65 60
        E 480 80 3c 00
        E 0 80 48 00
        E 360 80 54 00
        E 0 80 59 00
        E 0 80 60 00
        E 0 80 65 00
        E 120 90 3e 60
        E 0 90 4a 60
        E 0 90 56 60
        E 0 90 62 60
        E 480 80 3e 00
        E 0 80 4a 00
        E 120 80 56 00
        E 0 80 62 00
        E 120 90 56 60
        E 0 90 62 60
        E 120 80 28 00
        E 0 80 56 00
        E 0 80 62 00
        E 120 90 2d 60
        E 0 90 3d 60
        E 0 90 49 60
        E 0 90 55 60
        E 0 90 59 60
        E 0 90 61 60
        E 0 90 65 60
        E 480 80 3d 00
        E 0 80 49 00
        E 120 80 55 00
        E 0 80 59 00
        E 0 80 61 00
        E 0 80 65 00
        E 120 90 55 60
        E 0 90 61 60
        E 120 80 2d 00
        E 0 80 55 00
        E 0 80 61 00
        E 120 90 28 60
        E 0 90 3c 60
        E 0 90 48 60
        E 0 90 54 60
        E 0 90 59 60
        E 0 90 60 60
        E 0 90 65 60
        E 480 80 3c 00
        E 0 80 48 00
        E 360 80 54 00
        E 0 80 59 00
        E 0 80 60 00
        E 0 80 65 00
        E 120 90 3e 60
        E 0 90 4a 60
        E 0 90 56 60
        E 0 90 62 60
        E 0 90 74 60
        E 480 80 3e 00
        E 0 80 4a 00
        E 360 80 28 00
        E 0 80 56 00
        E 0 80 62 00
        E 120 90 2d 60
        E 0 90 3d 60
        E 0 90 49 60
        E 0 90 55 60
        E 0 90 61 60
        E 480 80 3d 00
        E 0 80 49 00
        E 360 80 2d 00
        E 0 80 55 00
        E 0 80 61 00
        E 120 90 28 60
        E 0 90 3c 60
        E 0 90 48 60
        E 0 90 54 60
        E 0 90 60 60
        E 480 80 3c 00
        E 0 80 48 00
        E 360 80 54 00
        E 0 80 60 00
        E 120 90 3e 60
        E 0 90 4a 60
        E 0 90 56 60
        E 0 90 62 60
        E 120 80 74 00
        E 360 80 3e 00
        E 0 80 4a 00
        E 360 80 28 00
        E 0 80 56 00
        E 0 80 62 00
        E 120 90 2d 60
        E 0 90 3d 60
        E 0 90 49 60
        E 0 90 55 60
        E 0 90 61 60
        E 480 80 3d 00
        E 0 80 49 00
        E 360 80 2d 00
        E 0 80 55 00
        E 1 80 61 00
        E 119 90 28 60
        E 0 90 3c 60
        E 0 90 48 60
        E 0 90 54 60
        E 0 90 60 60
        E 480 80 3c 00
        E 0 80 48 00
        E 360 80 54 00
        E 1 80 60 00
        E 119 90 3e 60
        E 0 90 4a 60
        E 0 90 56 60
        E 0 90 62 60
        E 480 80 3e 00
        E 0 80 4a 00
        E 360 80 28 00
        E 0 80 56 00
        E 0 80 62 00
        E 120 90 2d 60
        E 0 90 3d 60
        E 0 90 49 60
        E 0 90 55 60
        E 0 90 61 60
        E 480 80 3d 00
        E 0 80 49 00
        E 360 80 2d 00
        E 0 80 55 00
        E 1 80 61 00
        E 119 90 28 60
        E 0 90 3c 60
        E 0 90 48 60
        E 0 90 54 60
        E 0 90 60 60
        E 480 80 3c 00
        E 0 80 48 00
        E 360 80 54 00
        E 1 80 60 00
        E 119 90 3e 60
        E 0 90 4a 60
        E 0 90 56 60
        E 0 90 62 60
        E 480 80 3e 00
        E 0 80 4a 00
        E 360 80 28 00
        E 0 80 56 00
        E 0 80 62 00
        E 120 90 2d 60
        E 0 90 3d 60
        E 0 90 49 60
        E 0 90 55 60
        E 0 90 61 60
        E 840 80 2d 00
        E 1 80 3d 00
        E 0 80 49 00
        E 0 80 55 00
        E 0 80 61 00
        E 1079 90 28 60
        E 0 90 3e 60
        E 0 90 4a 60
        E 0 90 56 60
        E 0 90 62 60
        E 480 80 3e 00
        E 0 80 4a 00
        E 120 80 56 00
        E 0 80 62 00
        E 120 90 56 60
        E 0 90 62 60
        E 120 80 28 00
        E 0 80 56 00
        E 0 80 62 00
        E 120 90 2d 60
        E 0 90 3d 60
        E 0 90 49 60
        E 0 90 55 60
        E 0 90 61 60
        E 480 80 3d 00
        E 0 80 49 00
        E 360 80 2d 00
        E 0 80 55 00
        E 1 80 61 00
        E 119 90 28 60
        E 0 90 3c 60
        E 0 90 48 60
        E 0 90 54 60
        E 0 90 60 60
        E 480 80 3c 00
        E 0 80 48 00
        E 360 80 54 00
        E 1 80 60 00
        E 119 90 3e 60
        E 0 90 4a 60
        E 0 90 56 60
        E 0 90 62 60
        E 480 80 3e 00
        E 0 80 4a 00
        E 360 80 28 00
        E 0 80 56 00
        E 0 80 62 00
        E 120 90 2d 60
        E 0 90 3d 60
        E 0 90 49 60
        E 0 90 55 60
        E 0 90 61 60
        E 480 80 3d 00
        E 0 80 49 00
        E 360 80 2d 00
        E 0 80 55 00
        E 1 80 61 00
        E 119 90 28 60
        E 0 90 3c 60
        E 0 90 48 60
        E 0 90 54 60
        E 0 90 60 60
        E 480 80 3c 00
        E 0 80 48 00
        E 360 80 54 00
        E 1 80 60 00
        E 119 90 3e 60
        E 0 90 4a 60
        E 0 90 56 60
        E 0 90 62 60
        E 480 80 3e 00
        E 0 80 4a 00
        E 360 80 28 00
        E 0 80 56 00
        E 0 80 62 00
        E 120 90 2d 60
        E 0 90 3d 60
        E 0 90 49 60
        E 0 90 55 60
        E 0 90 61 60
        E 480 80 3d 00
        E 0 80 49 00
        E 360 80 2d 00
        E 0 80 55 00
        E 1 80 61 00
        E 119 90 28 60
        E 0 90 3c 60
        E 0 90 48 60
        E 0 90 54 60
        E 0 90 60 60
        E 480 80 3c 00
        E 0 80 48 00
        E 360 80 54 00
        E 1 80 60 00
        E 119 90 3e 60
        E 0 90 4a 60
        E 0 90 56 60
        E 0 90 62 60
        E 480 80 3e 00
        E 0 80 4a 00
        E 360 80 28 00
        E 0 80 56 00
        E 0 80 62 00
        E 120 90 2d 60
        E 0 90 3d 60
        E 0 90 49 60
        E 0 90 55 60
        E 0 90 61 60
        E 480 80 3d 00
        E 0 80 49 00
        E 360 80 2d 00
        E 0 80 55 00
        E 1 80 61 00
        E 119 90 28 60
        E 0 90 3c 60
        E 0 90 48 60
        E 0 90 54 60
        E 0 90 60 60
        E 480 80 3c 00
        E 0 80 48 00
        E 360 80 54 00
        E 1 80 60 00
        E 119 90 3e 60
        E 0 90 4a 60
        E 0 90 56 60
        E 0 90 62 60
        E 480 80 3e 00
        E 0 80 4a 00
        E 120 80 56 00
        E 0 80 62 00
        E 120 90 56 60
        E 0 90 62 60
        E 120 80 28 00
        E 0 80 56 00
        E 0 80 62 00
        E 120 90 2d 60
        E 0 90 3d 60
        E 0 90 49 60
        E 0 90 55 60
        E 0 90 61 60
        E 480 80 3d 00
        E 0 80 49 00
        E 360 80 2d 00
        E 0 80 55 00
        E 1 80 61 00
        E 119 90 28 60
        E 0 90 3c 60
        E 0 90 48 60
        E 0 90 54 60
        E 0 90 60 60
        E 480 80 3c 00
        E 0 80 48 00
        E 360 80 54 00
        E 1 80 60 00
        E 119 90 3e 60
        E 0 90 4a 60
        E 0 90 56 60
        E 0 90 62 60
        E 480 80 3e 00
        E 0 80 4a 00
        E 120 80 56 00
        E 0 80 62 00
        E 120 90 56 60
        E 0 90 62 60
        E 120 80 28 00
        E 0 80 56 00
        E 0 80 62 00
        E 120 90 2d 60
        E 0 90 3d 60
        E 0 90 49 60
        E 0 90 55 60
        E 0 90 61 60
        E 480 80 3d 00
        E 0 80 49 00
        E 360 80 2d 00
        E 0 80 55 00
        E 1 80 61 00
        E 119 90 28 60
        E 0 90 3c 60
        E 0 90 48 60
        E 0 90 54 60
        E 0 90 60 60
        E 480 80 3c 00
        E 0 80 48 00
        E 360 80 54 00
        E 1 80 60 00
        E 119 90 3e 60
        E 0 90 4a 60
        E 0 90 56 60
        E 0 90 62 60
        E 480 80 3e 00
        E 0 80 4a 00
        E 120 80 56 00
        E 0 80 62 00
        E 120 90 56 60
        E 0 90 62 60
        E 120 80 28 00
        E 0 80 56 00
        E 0 80 62 00
        E 120 90 2d 60
        E 0 90 3d 60
        E 0 90 49 60
        E 0 90 55 60
        E 0 90 61 60
        E 480 80 3d 00
        E 0 80 49 00
        E 360 80 2d 00
        E 0 80 55 00
        E 1 80 61 00
        E 119 90 28 60
        E 0 90 3c 60
        E 0 90 48 60
        E 0 90 54 60
        E 0 90 60 60
        E 480 80 3c 00
        E 0 80 48 00
        E 360 80 54 00
        E 1 80 60 00
        E 119 90 3e 60
        E 0 90 4a 60
        E 0 90 56 60
        E 0 90 62 60
        E 480 80 3e 00
        E 0 80 4a 00
        E 120 80 56 00
        E 0 80 62 00
        E 120 90 56 60
        E 0 90 62 60
        E 120 80 28 00
        E 0 80 56 00
        E 0 80 62 00
        E 120 90 2d 60
        E 0 90 3d 60
        E 0 90 49 60
        E 0 90 55 60
        E 0 90 61 60
        E 480 80 3d 00
        E 0 80 49 00
        E 360 80 2d 00
        E 0 80 55 00
        E 1 80 61 00
        E 119 90 28 60
        E 0 90 3c 60
        E 0 90 48 60
        E 0 90 54 60
        E 0 90 60 60
        E 480 80 3c 00
        E 0 80 48 00
        E 360 80 28 00
        E 0 80 54 00
        E 1 80 60 00
        E 119 90 35 60
        E 0 90 3f 60
        E 0 90 4b 60
        E 0 90 57 60
        E 0 90 63 60
        E 960 80 3f 00
        E 0 80 4b 00
        E 0 80 57 00
        E 0 80 63 00
        E 480 90 3f 60
        E 0 90 4b 60
        E 0 90 57 60
        E 0 90 63 60
        E 960 80 3f 00
        E 0 80 4b 00
        E 360 80 57 00
        E 0 80 63 00
        E 120 90 3f 60
        E 0 90 4b 60
        E 0 90 57 60
        E 0 90 63 60
        E 960 80 3f 00
        E 0 80 4b 00
        E 360 80 57 00
        E 0 80 63 00
        E 120 90 3f 60
        E 0 90 4b 60
        E 0 90 57 60
        E 0 90 63 60
        E 0 90 74 60
        E 960 80 3f 00
        E 0 80 4b 00
        E 360 80 57 00
        E 0 80 63 00
        E 120 90 3f 60
        E 0 90 4b 60
        E 0 90 57 60
        E 0 90 63 60
        E 960 80 3f 00
        E 0 80 4b 00
        E 360 80 35 00
        E 0 80 57 00
        E 0 80 63 00
        E 120 90 31 60
        E 0 90 3d 60
        E 0 90 49 60
        E 0 90 55 60
        E 0 90 61 60
        E 120 80 74 00
        E 5640 80 31 00
        E 0 80 3d 00
        E 0 80 49 00
        E 360 80 55 00
        E 0 80 61 00
        E 120 90 28 60
        E 0 90 3e 60
        E 0 90 4a 60
        E 0 90 56 60
        E 0 90 62 60
        E 480 80 3e 00
        E 0 80 4a 00
        E 120 80 56 00
        E 0 80 62 00
        E 120 90 56 60
        E 0 90 62 60
        E 120 80 28 00
        E 0 80 56 00
        E 0 80 62 00
        E 120 90 2d 60
        E 0 90 3d 60
        E 0 90 49 60
        E 0 90 55 60
        E 0 90 61 60
        E 480 80 3d 00
        E 0 80 49 00
        E 360 80 2d 00
        E 0 80 55 00
        E 1 80 61 00
        E 119 90 28 60
        E 0 90 3c 60
        E 0 90 48 60
        E 0 90 54 60
        E 0 90 60 60
        E 480 80 3c 00
        E 0 80 48 00
        E 360 80 54 00
        E 1 80 60 00
        E 119 90 3e 60
        E 0 90 4a 60
        E 0 90 56 60
        E 0 90 62 60
        E 480 80 3e 00
        E 0 80 4a 00
        E 120 80 56 00
        E 0 80 62 00
        E 120 90 56 60
        E 0 90 62 60
        E 120 80 28 00
        E 0 80 56 00
        E 0 80 62 00
        E 120 90 2d 60
        E 0 90 3d 60
        E 0 90 49 60
        E 0 90 55 60
        E 0 90 61 60
        E 480 80 3d 00
        E 0 80 49 00
        E 360 80 2d 00
        E 0 80 55 00
        E 1 80 61 00
        E 119 90 28 60
        E 0 90 3c 60
        E 0 90 48 60
        E 0 90 54 60
        E 0 90 60 60
        E 480 80 3c 00
        E 0 80 48 00
        E 360 80 54 00
        E 1 80 60 00
        E 119 90 3e 60
        E 0 90 4a 60
        E 0 90 56 60
        E 0 90 62 60
        E 480 80 3e 00
        E 0 80 4a 00
        E 120 80 56 00
        E 0 80 62 00
        E 120 90 56 60
        E 0 90 62 60
        E 120 80 28 00
        E 0 80 56 00
        E 0 80 62 00
        E 120 90 2d 60
        E 0 90 3d 60
        E 0 90 49 60
        E 0 90 55 60
        E 0 90 61 60
        E 480 80 3d 00
        E 0 80 49 00
        E 360 80 2d 00
        E 0 80 55 00
        E 1 80 61 00
        E 119 90 28 60
        E 0 90 3c 60
        E 0 90 48 60
        E 0 90 54 60
        E 0 90 60 60
        E 480 80 3c 00
        E 0 80 48 00
        E 360 80 54 00
        E 1 80 60 00
        E 119 90 3e 60
        E 0 90 4a 60
        E 0 90 56 60
        E 0 90 62 60
        E 480 80 3e 00
        E 0 80 4a 00
        E 120 80 56 00
        E 0 80 62 00
        E 120 90 56 60
        E 0 90 62 60
        E 120 80 28 00
        E 0 80 56 00
        E 0 80 62 00
        E 120 90 2d 60
        E 0 90 3d 60
        E 0 90 49 60
        E 0 90 55 60
        E 0 90 61 60
        E 480 80 3d 00
        E 0 80 49 00
        E 360 80 2d 00
        E 0 80 55 00
        E 1 80 61 00
        E 119 90 28 60
        E 0 90 3c 60
        E 0 90 48 60
        E 0 90 54 60
        E 0 90 60 60
        E 480 80 3c 00
        E 0 80 48 00
        E 360 80 54 00
        E 1 80 60 00
        E 119 90 3e 60
        E 0 90 4a 60
        E 0 90 56 60
        E 0 90 62 60
        E 0 90 74 60
        E 480 80 3e 00
        E 0 80 4a 00
        E 120 80 56 00
        E 0 80 62 00
        E 120 90 56 60
        E 0 90 62 60
        E 120 80 28 00
        E 0 80 56 00
        E 0 80 62 00
        E 120 90 2d 60
        E 0 90 3d 60
        E 0 90 49 60
        E 0 90 55 60
        E 0 90 61 60
        E 480 80 3d 00
        E 0 80 49 00
        E 360 80 2d 00
        E 0 80 55 00
        E 1 80 61 00
        E 119 90 28 60
        E 0 90 3c 60
        E 0 90 48 60
        E 0 90 54 60
        E 0 90 60 60
        E 480 80 3c 00
        E 0 80 48 00
        E 360 80 54 00
        E 1 80 60 00
        E 119 80 74 00
        E 0 90 3e 60
        E 0 90 4a 60
        E 0 90 56 60
        E 0 90 62 60
        E 480 80 3e 00
        E 0 80 4a 00
        E 120 80 56 00
        E 0 80 62 00
        E 120 90 56 60
        E 0 90 62 60
        E 120 80 28 00
        E 0 80 56 00
        E 0 80 62 00
        E 120 90 2d 60
        E 0 90 3d 60
        E 0 90 49 60
        E 0 90 55 60
        E 0 90 61 60
        E 480 80 3d 00
        E 0 80 49 00
        E 360 80 2d 00
        E 0 80 55 00
        E 1 80 61 00
        E 119 90 28 60
        E 0 90 3c 60
        E 0 90 48 60
        E 0 90 54 60
        E 0 90 60 60
        E 480 80 3c 00
        E 0 80 48 00
        E 360 80 54 00
        E 1 80 60 00
        E 119 90 3e 60
        E 0 90 4a 60
        E 0 90 56 60
        E 0 90 62 60
        E 480 80 3e 00
        E 0 80 4a 00
        E 120 80 56 00
        E 0 80 62 00
        E 120 90 56 60
        E 0 90 62 60
        E 120 80 28 00
        E 0 80 56 00
        E 0 80 62 00
        E 120 90 2d 60
        E 0 90 3d 60
        E 0 90 49 60
        E 0 90 55 60
        E 0 90 61 60
        E 480 80 3d 00
        E 0 80 49 00
        E 360 80 2d 00
        E 0 80 55 00
        E 1 80 61 00
        E 119 90 28 60
        E 0 90 3c 60
        E 0 90 48 60
        E 0 90 54 60
        E 0 90 60 60
        E 4320 80 3c 00
        E 0 80 48 00
        E 0 80 54 00
        E 0 80 60 00
        E 480 90 3e 60
        E 0 90 4a 60
        E 0 90 56 60
        E 0 90 62 60
        E 480 80 3e 00
        E 0 80 4a 00
        E 120 80 56 00
        E 0 80 62 00
        E 120 90 56 60
        E 0 90 62 60
        E 120 80 28 00
        E 0 80 56 00
        E 0 80 62 00
        E 120 90 2d 60
        E 0 90 3d 60
        E 0 90 49 60
        E 0 90 55 60
        E 0 90 61 60
        E 480 80 3d 00
        E 0 80 49 00
        E 360 80 2d 00
        E 0 80 55 00
        E 1 80 61 00
        E 119 90 28 60
        E 0 90 3c 60
        E 0 90 48 60
        E 0 90 54 60
        E 0 90 60 60
        E 480 80 3c 00
        E 0 80 48 00
        E 360 80 54 00
        E 1 80 60 00
        E 119 90 3e 60
        E 0 90 4a 60
        E 0 90 56 60
        E 0 90 62 60
        E 480 80 3e 00
        E 0 80 4a 00
        E 120 80 56 00
        E 0 80 62 00
        E 120 90 56 60
        E 0 90 62 60
        E 120 80 28 00
        E 0 80 56 00
        E 0 80 62 00
        E 120 90 2d 60
        E 0 90 3d 60
        E 0 90 49 60
        E 0 90 55 60
        E 0 90 61 60
        E 480 80 3d 00
        E 0 80 49 00
        E 360 80 2d 00
        E 0 80 55 00
        E 1 80 61 00
        E 119 90 28 60
        E 0 90 3c 60
        E 0 90 48 60
        E 0 90 54 60
        E 0 90 60 60
        E 480 80 3c 00
        E 0 80 48 00
        E 360 80 54 00
        E 1 80 60 00
        E 119 90 3e 60
        E 0 90 4a 60
        E 0 90 56 60
        E 0 90 62 60
        E 0 90 74 60
        E 480 80 3e 00
        E 0 80 4a 00
        E 120 80 56 00
        E 0 80 62 00
        E 120 90 56 60
        E 0 90 62 60
        E 120 80 28 00
        E 0 80 56 00
        E 0 80 62 00
        E 120 90 2d 60
        E 0 90 3d 60
        E 0 90 49 60
        E 0 90 55 60
        E 0 90 61 60
        E 480 80 3d 00
        E 0 80 49 00
        E 360 80 2d 00
        E 0 80 55 00
        E 1 80 61 00
        E 119 90 28 60
        E 0 90 3c 60
        E 0 90 48 60
        E 0 90 54 60
        E 0 90 60 60
        E 480 80 3c 00
        E 0 80 48 00
        E 360 80 54 00
        E 1 80 60 00
        E 119 90 3e 60
        E 0 90 4a 60
        E 0 90 56 60
        E 0 90 62 60
        E 120 80 74 00
        E 360 80 3e 00
        E 0 80 4a 00
        E 120 80 56 00
        E 0 80 62 00
        E 120 90 56 60
        E 0 90 62 60
        E 120 80 28 00
        E 0 80 56 00
        E 0 80 62 00
        E 120 90 2d 60
        E 0 90 3d 60
        E 0 90 49 60
        E 0 90 55 60
        E 0 90 61 60
        E 480 80 3d 00
        E 0 80 49 00
        E 360 80 2d 00
        E 0 80 55 00
        E 1 80 61 00
        E 119 90 28 60
        E 0 90 3c 60
        E 0 90 48 60
        E 0 90 54 60
        E 0 90 60 60
        E 480 80 3c 00
        E 0 80 48 00
        E 360 80 54 00
        E 1 80 60 00
        E 119 90 3e 60
        E 0 90 4a 60
        E 0 90 56 60
        E 0 90 62 60
        E 480 80 3e 00
        E 0 80 4a 00
        E 120 80 56 00
        E 0 80 62 00
        E 120 90 56 60
        E 0 90 62 60
        E 120 80 28 00
        E 0 80 56 00
        E 0 80 62 00
        E 120 90 2d 60
        E 0 90 3d 60
        E 0 90 49 60
        E 0 90 55 60
        E 0 90 61 60
        E 480 80 3d 00
        E 0 80 49 00
        E 360 80 2d 00
        E 0 80 55 00
        E 1 80 61 00
        E 119 90 28 60
        E 0 90 3c 60
        E 0 90 48 60
        E 0 90 54 60
        E 0 90 60 60
        E 480 80 3c 00
        E 0 80 48 00
        E 360 80 54 00
        E 1 80 60 00
        E 119 90 3e 60
        E 0 90 4a 60
        E 0 90 56 60
        E 0 90 62 60
        E 480 80 3e 00
        E 0 80 4a 00
        E 120 80 56 00
        E 0 80 62 00
        E 120 90 56 60
        E 0 90 62 60
        E 120 80 28 00
        E 0 80 56 00
        E 0 80 62 00
        E 120 90 2d 60
        E 0 90 3d 60
        E 0 90 49 60
        E 0 90 55 60
        E 0 90 61 60
        E 480 80 3d 00
        E 0 80 49 00
        E 360 80 2d 00
        E 0 80 55 00
        E 1 80 61 00
        E 119 90 28 60
        E 0 90 3c 60
        E 0 90 48 60
        E 0 90 54 60
        E 0 90 60 60
        E 480 80 3c 00
        E 0 80 48 00
        E 360 80 54 00
        E 1 80 60 00
        E 119 90 3e 60
        E 0 90 4a 60
        E 0 90 56 60
        E 0 90 62 60
        E 480 80 3e 00
        E 0 80 4a 00
        E 120 80 56 00
        E 0 80 62 00
        E 120 90 56 60
        E 0 90 62 60
        E 120 80 28 00
        E 0 80 56 00
        E 0 80 62 00
        E 120 90 2d 60
        E 0 90 3d 60
        E 0 90 49 60
        E 0 90 55 60
        E 0 90 61 60
        E 480 80 3d 00
        E 0 80 49 00
        E 360 80 2d 00
        E 0 80 55 00
        E 1 80 61 00
        E 119 90 28 60
        E 0 90 3c 60
        E 0 90 48 60
        E 0 90 54 60
        E 0 90 60 60
        E 480 80 3c 00
        E 0 80 48 00
        E 360 80 54 00
        E 1 80 60 00
        E 119 90 3e 60
        E 0 90 4a 60
        E 0 90 56 60
        E 0 90 62 60
        E 480 80 3e 00
        E 0 80 4a 00
        E 120 80 56 00
        E 0 80 62 00
        E 120 90 56 60
        E 0 90 62 60
        E 120 80 28 00
        E 0 80 56 00
        E 0 80 62 00
        E 120 90 2d 60
        E 0 90 3d 60
        E 0 90 49 60
        E 0 90 55 60
        E 0 90 61 60
        E 480 80 3d 00
        E 0 80 49 00
        E 360 80 2d 00
        E 0 80 55 00
        E 1 80 61 00
        E 119 90 28 60
        E 0 90 3c 60
        E 0 90 48 60
        E 0 90 54 60
        E 0 90 60 60
        E 480 80 3c 00
        E 0 80 48 00
        E 360 80 54 00
        E 1 80 60 00
        E 119 90 3e 60
        E 0 90 4a 60
        E 0 90 56 60
        E 0 90 62 60
        E 0 90 74 60
        E 480 80 3e 00
        E 0 80 4a 00
        E 120 80 56 00
        E 0 80 62 00
        E 120 90 56 60
        E 0 90 62 60
        E 120 80 28 00
        E 0 80 56 00
        E 0 80 62 00
        E 120 90 2d 60
        E 0 90 3d 60
        E 0 90 49 60
        E 0 90 55 60
        E 0 90 61 60
        E 480 80 3d 00
        E 0 80 49 00
        E 360 80 2d 00
        E 0 80 55 00
        E 1 80 61 00
        E 119 90 28 60
        E 0 90 3c 60
        E 0 90 48 60
        E 0 90 54 60
        E 0 90 60 60
        E 480 80 3c 00
        E 0 80 48 00
        E 360 80 54 00
        E 1 80 60 00
        E 119 90 3e 60
        E 0 90 4a 60
        E 0 90 56 60
        E 0 90 62 60
        E 120 80 74 00
        E 360 80 3e 00
        E 0 80 4a 00
        E 120 80 56 00
        E 0 80 62 00
        E 120 90 56 60
        E 0 90 62 60
        E 120 80 28 00
        E 0 80 56 00
        E 0 80 62 00
        E 120 90 2d 60
        E 0 90 3d 60
        E 0 90 49 60
        E 0 90 55 60
        E 0 90 61 60
        E 480 80 3d 00
        E 0 80 49 00
        E 360 80 2d 00
        E 0 80 55 00
        E 1 80 61 00
        E 119 90 28 60
        E 0 90 3c 60
        E 0 90 48 60
        E 0 90 54 60
        E 0 90 60 60
        E 480 80 3c 00
        E 0 80 48 00
        E 360 80 54 00
        E 1 80 60 00
        E 119 90 3e 60
        E 0 90 4a 60
        E 0 90 56 60
        E 0 90 62 60
        E 480 80 3e 00
        E 0 80 4a 00
        E 120 80 56 00
        E 0 80 62 00
        E 120 90 56 60
        E 0 90 62 60
        E 120 80 28 00
        E 0 80 56 00
        E 0 80 62 00
        E 120 90 2d 60
        E 0 90 3d 60
        E 0 90 49 60
        E 0 90 55 60
        E 0 90 61 60
        E 480 80 3d 00
        E 0 80 49 00
        E 360 80 2d 00
        E 0 80 55 00
        E 1 80 61 00
        E 119 90 28 60
        E 0 90 3c 60
        E 0 90 48 60
        E 0 90 54 60
        E 0 90 60 60
        E 480 80 3c 00
        E 0 80 48 00
        E 360 80 54 00
        E 1 80 60 00
        E 119 90 3e 60
        E 0 90 4a 60
        E 0 90 56 60
        E 0 90 62 60
        E 480 80 3e 00
        E 0 80 4a 00
        E 120 80 56 00
        E 0 80 62 00
        E 120 90 56 60
        E 0 90 62 60
        E 120 80 28 00
        E 0 80 56 00
        E 0 80 62 00
        E 120 90 2d 60
        E 0 90 3d 60
        E 0 90 49 60
        E 0 90 55 60
        E 0 90 61 60
        E 480 80 3d 00
        E 0 80 49 00
        E 360 80 2d 00
        E 0 80 55 00
        E 1 80 61 00
        E 119 90 35 60
        E 0 90 40 60
        E 0 90 4c 60
        E 0 90 58 60
        E 0 90 64 60
        E 960 80 40 00
        E 0 80 4c 00
        E 360 80 35 00
        E 0 80 58 00
        E 0 80 64 00
        E 120 90 34 60
        E 0 90 3f 60
        E 0 90 4b 60
        E 0 90 57 60
        E 0 90 63 60
        E 960 80 3f 00
        E 0 80 4b 00
        E 360 80 34 00
        E 0 80 57 00
        E 0 80 63 00
        E 120 90 31 60
        E 0 90 3e 60
        E 0 90 4a 60
        E 0 90 56 60
        E 0 90 62 60
        E 960 80 3e 00
        E 0 80 4a 00
        E 360 80 31 00
        E 0 80 56 00
        E 0 80 62 00
        E 120 90 2d 60
        E 0 90 3d 60
        E 0 90 49 60
        E 0 90 55 60
        E 0 90 61 60
        E 960 80 3d 00
        E 0 80 49 00
        E 360 80 2d 00
        E 0 80 55 00
        E 0 80 61 00
        E 120 90 28 60
        E 0 90 3c 60
        E 0 90 48 60
        E 0 90 54 60
        E 0 90 60 60
        E 3120 80 28 00
        E 0 80 3c 00
        E 0 80 48 00
        E 0 80 54 00
        E 0 80 60 00
        <X 480 0
          /wFbaWRsZV9yZWFsdGltZV0=
        >
        E 5040 b0 7b 00
        GUID {5ED9F553-00CB-4877-B4B5-5AEB5A441111}
        IGNTEMPO 0 120.00000000 4 4
        SRCCOLOR 9
        VELLANE 132 100 0
        COLORMAP "C:\Program Files\REAPER (x64)\Data\color_maps\rockband_guitarbass.png"
        CFGEDITVIEW 32339.106087 0.083957 0 16 0 0 0
        CFGEDIT 1 1 0 1 1 0 1 1 1 1 1 0.25000000 -8 -8 1928 1088 0 2 0 2 0.00000000 0 1 0 0 0.500000 0 0 1.000000 64
        KEYSNAP 0 9 "102034050607" 0 "Major"
        EVTFILTER 0 -1 -1 -1 -1 0 1 0 0 -1.00000000 -1.00000000
      >
    >
  >
  <TRACK '{6D811D26-E370-49D6-A25D-DC8DE3337FF6}'
    NAME "PART VOCALS"
    PEAKCOL 16576
    BEAT -1
    AUTOMODE 0
    VOLPAN 1.25737358316072 0.00000000000000 -1.00000000000000 -1.00000000000000 1.00000000000000
    MUTESOLO 0 0 0
    IPHASE 0
    ISBUS 0 0
    BUSCOMP 0 0
    SHOWINMIX 1 0.666700 0.500000 1 0.500000 -1 -1 -1
    FREEMODE 0
    SEL 0
    REC 0 0 0 0 0 0 0
    VU 2
    TRACKHEIGHT 0 0
    INQ 0 0 0 0.5000000000 100 0 0 100
    NCHAN 2
    FX 0
    TRACKID {6D811D26-E370-49D6-A25D-DC8DE3337FF6}
    PERF 0
    MIDIOUT -1
    <MIDINOTENAMES
      0 116 "OVERDRIVE"
      0 115 "----"
      0 105 "Phrase Marker"
      0 104 "----"
      0 97 "Non-Displayed Percussion"
      0 96 "Displayed Percussion"
      0 95 "----"
      0 84 "C6 (Unused Highest Note)"
      0 83 "B5"
      0 82 "A#4"
      0 81 "A4"
      0 80 "G#4"
      0 79 "G4"
      0 78 "F#4"
      0 77 "F4"
      0 76 "E4"
      0 75 "D#4"
      0 74 "D4"
      0 73 "C#4"
      0 72 "C4"
      0 71 "B3"
      0 70 "A#3"
      0 69 "A3"
      0 68 "G#3"
      0 67 "G3"
      0 66 "F#3"
      0 65 "F3"
      0 64 "E3"
      0 63 "D#3"
      0 62 "D3"
      0 61 "C#3"
      0 60 "C3"
      0 59 "B2"
      0 58 "A#2"
      0 57 "A2"
      0 56 "G#2"
      0 55 "G2"
      0 54 "F#2"
      0 53 "F2"
      0 52 "E2"
      0 51 "D#2"
      0 50 "D2"
      0 49 "C#2"
      0 48 "C2"
      0 47 "B1"
      0 46 "A#1"
      0 45 "A1"
      0 44 "G#1"
      0 43 "G1"
      0 42 "F#1"
      0 41 "F1"
      0 40 "E1"
      0 39 "D#1"
      0 38 "D1"
      0 37 "C#1"
      0 36 "Lowest Note C1"
      0 2 "---"
      0 1 "Lyric Shift"
      0 0 "Range Shift"
    >
    MAINSEND 1 0
    <FXCHAIN
      WNDRECT 0 43 1268 524
      SHOW 0
      LASTSEL 2
      DOCKED 0
      BYPASS 0 0
      <JS "MIDI/midi_note_filter" ""
        36.000000 84.000000 - - - - - - - - - - - - - - - - - - - - - - - - - - - - - - - - - - - - - - - - - - - - - - - - - - - - - - - - - - - - - - 
      >
      FLOATPOS 0 0 0 0
      FXID {48F9358E-B469-46BB-AEB4-777135699530}
      WAK 0
      BYPASS 0 0
      <VST "VSTi: ReaSynth (Cockos)" "reasynth.dll" 0 ""
        eXNlcu9e7f4AAAAAAgAAAAEAAAAAAAAAAgAAAAAAAAA4AAAAAAAAAA==
        AAAQAO++rd4N8K3eppvEOxe30ToAAAAAAAAAAAAAAADMm4A+6WeIPQ==
        AAAAAAAAAD8AAIA/AACAPwAAAD8AABAAAAA=
      >
      FLOATPOS 0 0 0 0
      FXID {F314502F-837B-4FEC-98F2-03D1A0530E42}
      WAK 0
      BYPASS 0 0
      <VST "VST: Twangstrom (u-he)" "Twangstrom.dll" 0 ""
        V1Rode5e7f4EAAAAAQAAAAAAAAACAAAAAAAAAAQAAAAAAAAACAAAAA==
        AAAAAAIAAAABAAAAAAAAAAIAAAAAAAAAMAYAAAEAAAAAABAAI3BnbQ==
        PWluaXRpYWxpemUKI0FNPVR3YW5nc3Ryb20KI1ZlcnM9MTAwMDAKIw==
        RW5kaWFuPWxpdHRsZQojbm09NwojbXM9bm9uZQojbXM9TW9kV2hsCg==
        I21zPVBpdGNoVwojbXM9Q3RybEEKI21zPUN0cmxCCiNtcz1MRk8KIw==
        bXM9RW52ZWxvcGUKI252PTAKI2NtPW1haW4KQ3JjUj0xCkNyY1IyPQ==
        MQojY209UENvcmUKU1RyaWc9MQpQU29uZz0wClBGb2xkPTAKUEZpbA==
        ZT0xCkdGaWxlPTIKR1NjYWxlPTAKQ2hMYXk9MApTdXJyTz0xClJldg==
        PTgxODkKTEVEPTAuMDAKUEFHRT0wClBhZ2VzT249MApDb3JlTj0zCg==
        U2xpY2U9NApVSV9vcD0xCk1pZGlBPTUKTWlkaVA9NgpERm9sZD03Cg==
        Q3RybEE9MgpDdHJsQj0xMQojY209TU0xCkFjdGl2ZT0xClNvdXJjZQ==
        PTAKRGVzdDE9bm9uZTphc3NpZ25lZApEZXB0aDE9MC4wMApDdXJ2ZQ==
        MT0yClFudHplMT0wClJlY3QxPTAKU2xldzE9MAojY209TU0yCkFjdA==
        aXZlPTEKU291cmNlPTAKRGVzdDE9bm9uZTphc3NpZ25lZApEZXB0aA==
        MT0wLjAwCkN1cnZlMT0yClFudHplMT0wClJlY3QxPTAKU2xldzE9MA==
        CiNjbT1NTTMKQWN0aXZlPTEKU291cmNlPTAKRGVzdDE9bm9uZTphcw==
        c2lnbmVkCkRlcHRoMT0wLjAwCkN1cnZlMT0yClFudHplMT0wClJlYw==
        dDE9MApTbGV3MT0wCiNjbT1MRk8KU3luYz02CldhdmU9MQpSYXRlPQ==
        MC4wMAojY209RW52ClNvdXJjZT0wCk1vZGU9MApUaHJlcz0tMzAuMA==
        MApBdHRhY2s9MjUuMDAKRGVjYXk9NTAuMDAKI2NtPUlucApJbnB1dA==
        PTAuMDAKRHJpdmU9MC4wMApUb25lPTUwLjAwCiNjbT1SZXYKVGVucw==
        aW9uPTAuMDAKRGVjYXk9NTAuMDAKU2hha2VNPTAuMDAKRGVuc2l0eQ==
        PTAuMDAKTENEX25vMT04CkxDRF9ubzI9OQpMQ0Rfbm8zPTEwClR5cA==
        ZT0wCkNvdXBsZT0wCkJyaWdodD0wCiNjbT1GbHQKZnJlcT0xNTAuMA==
        MApzdGVyZW89MC4wMApyZXNvPTAuMDAKYmxlbmQ9MC4wMAp0eXBlPQ==
        MQojY209T3V0Ck1peD01MC4wMApXaWR0aD0zNy4wMApHYWluTWl4PQ==
        MC4wMApCeXBhc3M9MApvdXRjbHA9MAojY209QW1wTW9kClNyYz0wCg==
        RGVwdGg9MC4wMAojY209TE1lbQpMYXlNZW0xPTAKCgoKLy8gU2VjdA==
        aW9uIGZvciB1Z2x5IGNvbXByZXNzZWQgYmluYXJ5IERhdGEKLy8gRA==
        T04nVCBUT1VDSCBUSElTCgokJCQkMTI5OAo/Z2RnY2VuZWI6YWFhYg==
        YWFhYTplYWFhYWFhYTpha2FhYWFhYTphYWFhaWFkcDpnamdvZ2poZQ==
        OmdqZ2JnbWdqOgpoa2dmY29naTpkY2hhYWFhYTpoZ2VpaWVmbDphYQ==
        OmNsOmViOmlhOmFjOmFlOmFsOmNiOmNkOmNlOmRlOmRmOmQKZzpkaQ==
        OmdkOmhhOmtnOmxoOmFrOmFvOmFwOmJiOmNjOmRhOmRkOmRrIU9nYw==
        ZW5DQWFiQTI2NU9nY2VuQ2VhQTEKMGdqZ29namhlZ2pnYmdtZ2poaw==
        Z2Zjb2dpZGNQQTQ5T2djZW5DZWFBNzRPZ2NlbkNlYUExMGhnZWlpZQ==
        ZmxRam4KUmZja2RKSEdqY1dURXBhTFJKaWVqcGdia2Nsak9QRU5uZA==
        b2xtblppaGZlQ2hkZ2hrYmhpbGFwcEdpaUZvY2tvCmZuaWNpb3BlVg==
        TXBnRG5lZ2dlYVFVaGhra2hmTU9nY2VuQ0ZBMTBIUGtmQU9nY2VuQw==
        QWFiQTI2NU9nY2VuQ0RBCjEzOE9nY2VuQ0FhYkEyNjVPZ2NlbkNTQQ==
        OERkcGVlSUJLTkE0T2djZW5DU0E4RGRwZWhCWUtBNU9nY2VuQ1NBOA==
        CkRkcENJQkxYQTQ9NDEyNDUKAAAAABAAAAA=
      >
      FLOATPOS 0 0 0 0
      FXID {CF0C11C6-7FFE-4BDA-BA3A-FA276F5664F9}
      WAK 0
    >
    <ITEM
      POSITION 0.00000000000000
      SNAPOFFS 0.00000000000000
      LENGTH 147.78905973205917
      LOOP 0
      ALLTAKES 0
      SEL 0
      FADEIN 1 0.000000 0.000000 1 0
      FADEOUT 1 0.000000 0.000000 1 0
      MUTE 0
      IGUID {30BDC2BF-2CD5-4C32-8F95-3EEE26C6D8D2}
      IID 18
      NAME "PART VOCALS"
      VOLPAN 1.000000 0.000000 1.000000 -1.000000
      SOFFS 0.00000000000000 0.00000000000000
      PLAYRATE 1.00000000000000 1 0.00000000000000 -1
      CHANMODE 0
      GUID {2A0AAAF0-44D3-4CB6-A6B8-F8960053925D}
      <SOURCE MIDI
        HASDATA 1 480 QN
        POOLEDEVTS {23D627C4-A4AF-44FD-9861-C707C7822B21}
        <X 0 0
          /wNQQVJUIFZPQ0FMUw==
        >
        <X 3840 0
          /wFbaWRsZV0=
        >
        <X 23040 0
          /wFbcGxheV0=
        >
        E 480 90 69 60
        <X 480 0
          /wVTw7M=
        >
        E 0 90 4f 60
        E 180 80 4f 00
        <X 60 0
          /wVubw==
        >
        E 0 90 4d 60
        E 150 80 4d 00
        <X 90 0
          /wVzb20=
        >
        E 0 90 4c 60
        E 930 80 4c 00
        E 30 90 01 60
        E 30 80 01 00
        <X 1410 0
          /wXDqQ==
        >
        E 0 90 4f 60
        E 150 80 4f 00
        <X 90 0
          /wVwb3Mt
        >
        E 0 90 4d 60
        E 150 80 4d 00
        <X 90 0
          /wVzw60t
        >
        E 0 90 4c 60
        E 120 80 4c 00
        <X 120 0
          /wV2ZWw=
        >
        E 0 90 4c 60
        E 120 80 4c 00
        <X 120 0
          /wV2ZXI=
        >
        E 0 90 4a 60
        E 810 80 4a 00
        <X 150 0
          /wVsdXo=
        >
        E 0 90 48 60
        E 960 80 48 00
        E 30 80 69 00
        E 450 90 69 60
        E 0 90 74 60
        <X 240 0
          /wVF
        >
        E 0 90 45 60
        E 180 80 45 00
        <X 60 0
          /wVlbi0=
        >
        E 0 90 4a 60
        E 150 80 4a 00
        <X 90 0
          /wV4ZXIt
        >
        E 0 90 4c 60
        E 180 80 4c 00
        <X 60 0
          /wVnYXI=
        >
        E 0 90 4c 60
        E 840 80 4c 00
        <X 240 0
          /wUr
        >
        E 0 90 48 60
        E 60 80 48 00
        E 30 90 01 60
        <X 30 0
          /wXDqQ==
        >
        E 0 80 01 00
        E 0 90 48 60
        E 90 80 48 00
        <X 150 0
          /wVpbS0=
        >
        E 0 90 4f 60
        E 180 80 4f 00
        <X 60 0
          /wVwb3Mt
        >
        E 0 90 4d 60
        E 180 80 4d 00
        <X 60 0
          /wVzw60t
        >
        E 0 90 4c 60
        E 210 80 4c 00
        <X 30 0
          /wV2ZWw=
        >
        E 0 90 4c 60
        E 120 80 4c 00
        <X 120 0
          /wVzZW0=
        >
        E 0 90 4a 60
        E 840 80 4a 00
        E 120 80 69 00
        E 0 80 74 00
        E 1440 90 69 60
        <X 240 0
          /wVFdQ==
        >
        E 0 90 48 60
        E 180 80 48 00
        <X 60 0
          /wVtZQ==
        >
        E 0 90 4a 60
        E 150 80 4a 00
        <X 90 0
          /wVyZS0=
        >
        E 0 90 4c 60
        E 120 80 4c 00
        <X 120 0
          /wVjdS0=
        >
        E 0 90 4c 60
        E 150 80 4c 00
        <X 90 0
          /wVzb8KnYQ==
        >
        E 0 90 48 60
        E 150 80 48 00
        <X 90 0
          /wVhLQ==
        >
        E 0 90 4a 60
        E 150 80 4a 00
        <X 90 0
          /wVjZWkt
        >
        E 0 90 4c 60
        E 180 80 4c 00
        <X 60 0
          /wV0YXI=
        >
        E 0 90 4c 60
        E 870 80 4c 00
        E 30 80 69 00
        E 60 90 69 60
        <X 240 0
          /wVQcmUt
        >
        E 0 90 48 60
        E 150 80 48 00
        <X 90 0
          /wVmaS0=
        >
        E 0 90 4a 60
        E 180 80 4a 00
        <X 60 0
          /wVybw==
        >
        E 0 90 4c 60
        E 180 80 4c 00
        <X 60 0
          /wVuw6Nv
        >
        E 0 90 4c 60
        E 210 80 4c 00
        <X 30 0
          /wVvLQ==
        >
        E 0 90 48 60
        E 180 80 48 00
        <X 60 0
          /wVsaGFy
        >
        E 0 90 4a 60
        E 180 80 4a 00
        <X 60 0
          /wVwcmE=
        >
        E 0 90 4c 60
        E 120 80 4c 00
        <X 120 0
          /wV0csOhcw==
        >
        E 0 90 4c 60
        E 1050 80 4c 00
        E 390 80 69 00
        E 1440 90 69 60
        <X 240 0
          /wVQcmE=
        >
        E 0 90 48 60
        E 180 80 48 00
        <X 60 0
          /wV1bQ==
        >
        E 0 90 4c 60
        E 150 80 4c 00
        <X 90 0
          /wVwYXMt
        >
        E 0 90 4c 60
        E 150 80 4c 00
        <X 90 0
          /wVzYS0=
        >
        E 0 90 4c 60
        E 180 80 4c 00
        <X 60 0
          /wVkbw==
        >
        E 0 90 4c 60
        E 90 80 4c 00
        <X 150 0
          /wVzZW0=
        >
        E 0 90 4a 60
        E 660 80 4a 00
        <X 300 0
          /wVsdXo=
        >
        E 0 90 48 60
        E 930 80 48 00
        E 30 80 69 00
        E 450 90 69 60
        E 0 90 74 60
        <X 30 0
          /wVOb2lzZQ==
        >
        E 0 90 4c 60
        E 1080 80 4c 00
        <X 120 0
          /wUr
        >
        E 0 90 4a 60
        E 90 80 4a 00
        <X 150 0
          /wVvdQ==
        >
        E 0 90 4c 60
        E 420 80 4c 00
        <X 540 0
          /wUr
        >
        E 0 90 4a 60
        E 240 80 4a 00
        <X 240 0
          /wVzby0=
        >
        E 0 90 4a 60
        E 1050 80 4a 00
        <X 150 0
          /wUr
        >
        E 0 90 48 60
        E 120 80 48 00
        <X 120 0
          /wVsaS0=
        >
        E 0 90 47 60
        E 1080 80 47 00
        <X 120 0
          /wUr
        >
        E 0 90 48 60
        E 120 80 48 00
        <X 120 0
          /wVkw6NvPw==
        >
        E 0 90 45 60
        E 840 80 45 00
        E 120 80 69 00
        E 0 80 74 00
        <X 360 0
          /wFbaWRsZV0=
        >
        <X 11160 0
          /wFbcGxheV0=
        >
        E 0 90 69 60
        <X 480 0
          /wVOYS0=
        >
        E 0 90 4f 60
        E 120 80 4f 00
        <X 120 0
          /wV2ZS0=
        >
        E 0 90 4d 60
        E 150 80 4d 00
        <X 90 0
          /wVnYXI=
        >
        E 0 90 4c 60
        E 1080 80 4c 00
        E 120 90 01 60
        E 30 80 01 00
        <X 930 0
          /wVkZQ==
        >
        E 0 90 48 60
        E 90 80 48 00
        <X 150 0
          /wVtw6Nv
        >
        E 0 90 4f 60
        E 150 80 4f 00
        <X 90 0
          /wVlbQ==
        >
        E 0 90 4d 60
        E 150 80 4d 00
        <X 90 0
          /wVtw6Nv
        >
        E 0 90 4c 60
        E 150 80 4c 00
        <X 90 0
          /wVpbi0=
        >
        E 0 90 4c 60
        E 60 80 4c 00
        <X 180 0
          /wV0ZWkt
        >
        E 0 90 4a 60
        E 480 80 4a 00
        <X 240 0
          /wUr
        >
        E 0 90 48 60
        E 120 80 48 00
        <X 120 0
          /wVybw==
        >
        E 0 90 48 60
        E 960 80 48 00
        E 120 80 69 00
        E 360 90 69 60
        <X 240 0
          /wVTZW0=
        >
        E 0 90 48 60
        E 150 80 48 00
        <X 90 0
          /wVhbi0=
        >
        E 0 90 4a 60
        E 180 80 4a 00
        <X 60 0
          /wVjby0=
        >
        E 0 90 4c 60
        E 150 80 4c 00
        <X 90 0
          /wVyYXI=
        >
        E 0 90 4c 60
        E 630 80 4c 00
        <X 330 0
          /wUr
        >
        E 0 90 48 60
        E 120 80 48 00
        E 30 80 69 00
        E 60 90 69 60
        E 0 90 74 60
        <X 30 0
          /wVFdQ==
        >
        E 0 90 48 60
        E 90 80 48 00
        <X 150 0
          /wVuw6Nv
        >
        E 0 90 4f 60
        E 150 80 4f 00
        <X 90 0
          /wVmdWk=
        >
        E 0 90 4d 60
        E 150 80 4d 00
        <X 90 0
          /wVv
        >
        E 0 90 4c 60
        E 120 80 4c 00
        <X 120 0
          /wVwcmkt
        >
        E 0 90 4c 60
        E 90 80 4c 00
        <X 150 0
          /wVtZWkt
        >
        E 0 90 4a 60
        E 510 80 4a 00
        <X 210 0
          /wUr
        >
        E 0 90 48 60
        E 90 80 48 00
        <X 150 0
          /wVybw==
        >
        E 0 90 48 60
        E 660 80 48 00
        E 30 90 01 60
        <X 30 0
          /wVhwqdhLQ==
        >
        E 0 80 01 00
        E 0 90 48 60
        E 180 80 48 00
        <X 60 0
          /wV0cmEt
        >
        E 0 90 4a 60
        E 150 80 4a 00
        <X 90 0
          /wV2ZXMt
        >
        E 0 90 4c 60
        E 180 80 4c 00
        <X 60 0
          /wVzYXI=
        >
        E 0 90 45 60
        E 1350 80 45 00
        E 90 80 69 00
        E 0 80 74 00
        <X 390 0
          /wFbaWRsZV0=
        >
        <X 2730 0
          /wFbcGxheV0=
        >
        <X 240 0
          /wFbdGFtYm91cmluZV9zdGFydF0=
        >
        E 0 90 69 60
        E 480 90 60 60
        E 120 80 60 00
        E 120 90 61 60
        E 120 80 61 00
        E 120 90 60 60
        E 120 80 60 00
        E 120 90 61 60
        E 120 80 61 00
        E 120 90 60 60
        E 120 80 60 00
        E 120 90 61 60
        E 120 80 61 00
        E 120 90 60 60
        E 120 80 60 00
        E 120 90 61 60
        E 120 80 61 00
        E 120 90 60 60
        E 120 80 60 00
        E 120 90 61 60
        E 120 80 61 00
        E 120 90 60 60
        E 120 80 60 00
        E 120 90 61 60
        E 120 80 61 00
        E 120 90 60 60
        E 120 80 60 00
        E 120 90 61 60
        E 120 80 61 00
        E 120 90 60 60
        E 120 80 60 00
        E 120 90 61 60
        E 120 80 61 00
        E 120 90 60 60
        E 120 80 60 00
        E 120 90 61 60
        E 120 80 61 00
        E 120 90 60 60
        E 120 80 60 00
        E 120 90 61 60
        E 120 80 61 00
        E 120 90 60 60
        E 120 80 60 00
        E 120 90 61 60
        E 120 80 61 00
        E 120 90 60 60
        E 120 80 60 00
        E 120 90 61 60
        E 120 80 61 00
        E 120 90 60 60
        E 120 80 60 00
        E 120 90 61 60
        E 120 80 61 00
        E 120 90 60 60
        E 120 80 60 00
        E 120 90 61 60
        E 120 80 61 00
        E 120 90 60 60
        E 120 80 60 00
        E 120 90 61 60
        E 120 80 61 00
        E 120 90 60 60
        E 120 80 60 00
        E 120 90 61 60
        E 120 80 61 00
        E 120 90 60 60
        E 120 80 60 00
        E 120 90 61 60
        E 120 80 61 00
        E 120 90 60 60
        E 120 80 60 00
        E 120 90 61 60
        E 120 80 61 00
        E 120 90 60 60
        E 120 80 60 00
        E 120 90 61 60
        E 120 80 61 00
        E 120 90 60 60
        E 120 80 60 00
        E 120 90 61 60
        E 120 80 61 00
        E 120 90 60 60
        E 120 80 60 00
        E 120 90 61 60
        E 120 80 61 00
        E 120 90 60 60
        E 120 80 60 00
        E 120 90 61 60
        E 120 80 61 00
        E 120 90 60 60
        E 120 80 60 00
        E 120 90 61 60
        E 120 80 61 00
        E 120 90 60 60
        E 120 80 60 00
        E 120 90 61 60
        E 120 80 61 00
        <X 120 0
          /wFbdGFtYm91cmluZV9lbmRd
        >
        E 0 80 69 00
        E 480 90 69 60
        <X 480 0
          /wVBLQ==
        >
        E 0 90 4f 60
        E 150 80 4f 00
        <X 90 0
          /wVwb3It
        >
        E 0 90 4d 60
        E 180 80 4d 00
        <X 60 0
          /wV0YXI=
        >
        E 0 90 4c 60
        E 1410 80 4c 00
        E 30 90 01 60
        E 30 80 01 00
        <X 930 0
          /wVhbC0=
        >
        E 0 90 4f 60
        E 150 80 4f 00
        <X 90 0
          /wVjYW4t
        >
        E 0 90 4d 60
        E 180 80 4d 00
        <X 60 0
          /wXDp2Fy
        >
        E 0 90 4c 60
        E 180 80 4c 00
        <X 60 0
          /wVv
        >
        E 0 90 4c 60
        E 150 80 4c 00
        <X 90 0
          /wVtZS0=
        >
        E 0 90 4a 60
        E 840 80 4a 00
        <X 120 0
          /wVkbw==
        >
        E 0 90 48 60
        E 690 80 48 00
        E 30 80 69 00
        E 210 90 69 60
        E 0 90 74 60
        <X 30 0
          /wVBLQ==
        >
        E 0 90 4d 60
        E 150 80 4d 00
        <X 90 0
          /wVwb3It
        >
        E 0 90 4d 60
        E 180 80 4d 00
        <X 60 0
          /wV0YXI=
        >
        E 0 90 4c 60
        E 1410 80 4c 00
        E 30 90 01 60
        E 30 80 01 00
        <X 930 0
          /wVhbC0=
        >
        E 0 90 4f 60
        E 150 80 4f 00
        <X 90 0
          /wVjYW4t
        >
        E 0 90 4d 60
        E 180 80 4d 00
        <X 60 0
          /wXDp2Fy
        >
        E 0 90 4c 60
        E 180 80 4c 00
        <X 60 0
          /wVv
        >
        E 0 90 4c 60
        E 150 80 4c 00
        <X 90 0
          /wVtZS0=
        >
        E 0 90 4a 60
        E 840 80 4a 00
        <X 120 0
          /wVkbw==
        >
        E 0 90 48 60
        E 690 80 48 00
        E 30 80 69 00
        E 0 80 74 00
        e 210 90 69 60
        <X 30 0
          /wVBLQ==
        >
        E 0 90 4f 60
        E 120 80 4f 00
        <X 120 0
          /wVwb3It
        >
        E 0 90 4d 60
        E 180 80 4d 00
        <X 60 0
          /wV0YXI=
        >
        E 0 90 4c 60
        E 1410 80 4c 00
        E 30 90 01 60
        E 30 80 01 00
        <X 930 0
          /wVhbC0=
        >
        E 0 90 4f 60
        E 150 80 4f 00
        <X 90 0
          /wVjYW4t
        >
        E 0 90 4d 60
        E 180 80 4d 00
        <X 60 0
          /wXDp2Fy
        >
        E 0 90 4c 60
        E 180 80 4c 00
        <X 60 0
          /wVv
        >
        E 0 90 4c 60
        E 150 80 4c 00
        <X 90 0
          /wVtZS0=
        >
        E 0 90 4a 60
        E 840 80 4a 00
        <X 120 0
          /wVkbw==
        >
        E 0 90 48 60
        E 690 80 48 00
        e 30 80 69 00
        E 210 90 69 60
        <X 30 0
          /wVBLQ==
        >
        E 0 90 4f 60
        E 119 80 4f 00
        <X 121 0
          /wVwb3It
        >
        E 0 90 4d 60
        E 180 80 4d 00
        <X 60 0
          /wV0YXI=
        >
        E 0 90 4c 60
        E 1410 80 4c 00
        E 30 90 01 60
        E 30 80 01 00
        <X 930 0
          /wVhbC0=
        >
        E 0 90 4f 60
        E 150 80 4f 00
        <X 90 0
          /wVjYW4t
        >
        E 0 90 4d 60
        E 180 80 4d 00
        <X 60 0
          /wXDp2Fy
        >
        E 0 90 4c 60
        E 390 80 4c 00
        <X 90 0
          /wUr
        >
        E 0 90 48 60
        E 1200 80 48 00
        E 240 80 69 00
        <X 240 0
          /wFbaWRsZV9yZWFsdGltZV0=
        >
        E 12720 b0 7b 00
        GUID {8B3280E7-D233-4744-A444-05704ECA33D1}
        IGNTEMPO 0 120.00000000 4 4
        SRCCOLOR 6
        VELLANE 132 100 0
        COLORMAP "C:\Program Files\REAPER (x64)\Data\color_maps\rockband_guitarbass.png"
        TEXTSTRINGFILE "C:\Program Files\REAPER (x64)\Data\Text_Strings\Text Events List - Instruments.txt"
        CFGEDITVIEW 71707.642087 0.049716 0 15 0 0 0
        CFGEDIT 1 1 0 1 1 0 1 1 1 1 1 0.06250000 -8 -8 1928 1088 0 2 0 1 0.00000000 0 1 0 0 0.500000 0 0 1.000000 64
        KEYSNAP 0 0 "102034050607" 0 "Major"
        EVTFILTER 0 -1 -1 -1 -1 0 1 0 0 -1.00000000 -1.00000000
      >
    >
  >
  <TRACK '{BD90DBCD-3D3D-4384-9457-7A3E51BF7C02}'
    NAME "HARM1"
    PEAKCOL 16576
    BEAT -1
    AUTOMODE 0
    VOLPAN 1.25737358316072 0.00000000000000 -1.00000000000000 -1.00000000000000 1.00000000000000
    MUTESOLO 0 0 0
    IPHASE 0
    ISBUS 0 0
    BUSCOMP 0 0
    SHOWINMIX 1 0.666700 0.500000 1 0.500000 -1 -1 -1
    FREEMODE 0
    SEL 0
    REC 0 0 0 0 0 0 0
    VU 2
    TRACKHEIGHT 0 0
    INQ 0 0 0 0.5000000000 100 0 0 100
    NCHAN 2
    FX 1
    TRACKID {BD90DBCD-3D3D-4384-9457-7A3E51BF7C02}
    PERF 0
    MIDIOUT -1
    <MIDINOTENAMES
      0 116 "OVERDRIVE"
      0 115 "----"
      0 105 "Phrase Marker"
      0 104 "----"
      0 97 "Non-Displayed Percussion"
      0 96 "Displayed Percussion"
      0 95 "----"
      0 84 "C6 (Unused Highest Note)"
      0 83 "B5"
      0 82 "A#4"
      0 81 "A4"
      0 80 "G#4"
      0 79 "G4"
      0 78 "F#4"
      0 77 "F4"
      0 76 "E4"
      0 75 "D#4"
      0 74 "D4"
      0 73 "C#4"
      0 72 "C4"
      0 71 "B3"
      0 70 "A#3"
      0 69 "A3"
      0 68 "G#3"
      0 67 "G3"
      0 66 "F#3"
      0 65 "F3"
      0 64 "E3"
      0 63 "D#3"
      0 62 "D3"
      0 61 "C#3"
      0 60 "C3"
      0 59 "B2"
      0 58 "A#2"
      0 57 "A2"
      0 56 "G#2"
      0 55 "G2"
      0 54 "F#2"
      0 53 "F2"
      0 52 "E2"
      0 51 "D#2"
      0 50 "D2"
      0 49 "C#2"
      0 48 "C2"
      0 47 "B1"
      0 46 "A#1"
      0 45 "A1"
      0 44 "G#1"
      0 43 "G1"
      0 42 "F#1"
      0 41 "F1"
      0 40 "E1"
      0 39 "D#1"
      0 38 "D1"
      0 37 "C#1"
      0 36 "Lowest Note C1"
      0 2 "---"
      0 1 "Lyric Shift"
      0 0 "Range Shift"
      1 116 "OVERDRIVE"
      1 115 "----"
      1 105 "Phrase Marker"
      1 104 "----"
      1 84 "C6 (Unused Highest Note)"
      1 83 "B5"
      1 82 "A#4"
      1 81 "A4"
      1 80 "G#4"
      1 79 "G4"
      1 78 "F#4"
      1 77 "F4"
      1 76 "E4"
      1 75 "D#4"
      1 74 "D4"
      1 73 "C#4"
      1 72 "C4"
      1 71 "B3"
      1 70 "A#3"
      1 69 "A3"
      1 68 "G#3"
      1 67 "G3"
      1 66 "F#3"
      1 65 "F3"
      1 64 "E3"
      1 63 "D#3"
      1 62 "D3"
      1 61 "C#3"
      1 60 "C3"
      1 59 "B2"
      1 58 "A#2"
      1 57 "A2"
      1 56 "G#2"
      1 55 "G2"
      1 54 "F#2"
      1 53 "F2"
      1 52 "E2"
      1 51 "D#2"
      1 50 "D2"
      1 49 "C#2"
      1 48 "C2"
      1 47 "B1"
      1 46 "A#1"
      1 45 "A1"
      1 44 "G#1"
      1 43 "G1"
      1 42 "F#1"
      1 41 "F1"
      1 40 "E1"
      1 39 "D#1"
      1 38 "D1"
      1 37 "C#1"
      1 36 "Lowest Note C1"
      1 2 "---"
      1 1 "Lyric Shift"
      1 0 "Range Shift"
    >
    MAINSEND 1 0
    <FXCHAIN
      WNDRECT 0 43 1268 524
      SHOW 0
      LASTSEL 2
      DOCKED 0
      BYPASS 0 0
      <JS "MIDI/midi_note_filter" ""
        36.000000 84.000000 - - - - - - - - - - - - - - - - - - - - - - - - - - - - - - - - - - - - - - - - - - - - - - - - - - - - - - - - - - - - - - 
      >
      FLOATPOS 0 0 0 0
      FXID {48F9358E-B469-46BB-AEB4-777135699530}
      WAK 0
      BYPASS 0 0
      <VST "VSTi: ReaSynth (Cockos)" "reasynth.dll" 0 ""
        eXNlcu9e7f4AAAAAAgAAAAEAAAAAAAAAAgAAAAAAAAA4AAAAAAAAAA==
        AAAQAO++rd4N8K3eppvEOxe30ToAAAAAAAAAAAAAAADMm4A+6WeIPQ==
        AAAAAAAAAD8AAIA/AACAPwAAAD8AABAAAAA=
      >
      FLOATPOS 0 0 0 0
      FXID {F314502F-837B-4FEC-98F2-03D1A0530E42}
      WAK 0
      BYPASS 0 0
      <VST "VST: Twangstrom (u-he)" "Twangstrom.dll" 0 ""
        V1Rode5e7f4EAAAAAQAAAAAAAAACAAAAAAAAAAQAAAAAAAAACAAAAA==
        AAAAAAIAAAABAAAAAAAAAAIAAAAAAAAALAYAAAEAAAAAABAAI3BnbQ==
        PWluaXRpYWxpemUKI0FNPVR3YW5nc3Ryb20KI1ZlcnM9MTAwMDAKIw==
        RW5kaWFuPWxpdHRsZQojbm09NwojbXM9bm9uZQojbXM9TW9kV2hsCg==
        I21zPVBpdGNoVwojbXM9Q3RybEEKI21zPUN0cmxCCiNtcz1MRk8KIw==
        bXM9RW52ZWxvcGUKI252PTAKI2NtPW1haW4KQ3JjUj0xCkNyY1IyPQ==
        MQojY209UENvcmUKU1RyaWc9MQpQU29uZz0wClBGb2xkPTAKUEZpbA==
        ZT0xCkdGaWxlPTIKR1NjYWxlPTAKQ2hMYXk9MApTdXJyTz0xClJldg==
        PTgxODkKTEVEPTAuMDAKUEFHRT0wClBhZ2VzT249MApDb3JlTj0zCg==
        U2xpY2U9NApVSV9vcD0xCk1pZGlBPTUKTWlkaVA9NgpERm9sZD03Cg==
        Q3RybEE9MgpDdHJsQj0xMQojY209TU0xCkFjdGl2ZT0xClNvdXJjZQ==
        PTAKRGVzdDE9bm9uZTphc3NpZ25lZApEZXB0aDE9MC4wMApDdXJ2ZQ==
        MT0yClFudHplMT0wClJlY3QxPTAKU2xldzE9MAojY209TU0yCkFjdA==
        aXZlPTEKU291cmNlPTAKRGVzdDE9bm9uZTphc3NpZ25lZApEZXB0aA==
        MT0wLjAwCkN1cnZlMT0yClFudHplMT0wClJlY3QxPTAKU2xldzE9MA==
        CiNjbT1NTTMKQWN0aXZlPTEKU291cmNlPTAKRGVzdDE9bm9uZTphcw==
        c2lnbmVkCkRlcHRoMT0wLjAwCkN1cnZlMT0yClFudHplMT0wClJlYw==
        dDE9MApTbGV3MT0wCiNjbT1MRk8KU3luYz02CldhdmU9MQpSYXRlPQ==
        MC4wMAojY209RW52ClNvdXJjZT0wCk1vZGU9MApUaHJlcz0tMzAuMA==
        MApBdHRhY2s9MjUuMDAKRGVjYXk9NTAuMDAKI2NtPUlucApJbnB1dA==
        PTAuMDAKRHJpdmU9MC4wMApUb25lPTUwLjAwCiNjbT1SZXYKVGVucw==
        aW9uPTAuMDAKRGVjYXk9NTAuMDAKU2hha2VNPTAuMDAKRGVuc2l0eQ==
        PTAuMDAKTENEX25vMT04CkxDRF9ubzI9OQpMQ0Rfbm8zPTEwClR5cA==
        ZT0wCkNvdXBsZT0wCkJyaWdodD0wCiNjbT1GbHQKZnJlcT0xNTAuMA==
        MApzdGVyZW89MC4wMApyZXNvPTAuMDAKYmxlbmQ9MC4wMAp0eXBlPQ==
        MQojY209T3V0Ck1peD01MC4wMApXaWR0aD0zNy4wMApHYWluTWl4PQ==
        MC4wMApCeXBhc3M9MApvdXRjbHA9MAojY209QW1wTW9kClNyYz0wCg==
        RGVwdGg9MC4wMAojY209TE1lbQpMYXlNZW0xPTAKCgoKLy8gU2VjdA==
        aW9uIGZvciB1Z2x5IGNvbXByZXNzZWQgYmluYXJ5IERhdGEKLy8gRA==
        T04nVCBUT1VDSCBUSElTCgokJCQkMTI5OAo/Z2RnY2VuZWI6YWFhYg==
        YWFhYTplYWFhYWFhYTpha2FhYWFhYTphYWFhaWFkcDpnamdvZ2poZQ==
        OmdqZ2JnbWdqOgpoa2dmY29naTpkY2hhYWFhYTpoZ2VpaWVmbDphYQ==
        OmNuOmRpOmlhOmFjOmFlOmFsOmNlOmRkOmRnOmViOmVkOmcKYjpnZA==
        OmtnOmxoOm5lOmFrOmFvOmFwOmJiOmNiOmNjOmRiOmRjOmRmIU5nYw==
        ZW5LQWFiQTI2NU5nY2VuS2VhQTEKMGdqZ29namhlZ2pNZ21namhrZw==
        ZmNvZ2lZaGFBNDlOZ2NlbktlYUE3NE5nY2VuS2VhQTEwaGdlaWllZg==
        bE9qblAKZmNrZEhWR2pjV1NFcGFaUEhpZWpwTWtjbGpOaGFFQ25kbw==
        bG1uZGtpaGZlS2hkZ2hrYmhpbGFwcEdpaUZvY2tvCmZuaWNpb3BlVQ==
        SnBnRFFnZ2VhT1RoaGtraGZKTmdjZW5LRkExME1Rb3BBTmdjZW5LQQ==
        YWJBMjY1TmdjZW5LREExCjM4TmdjZW5LQWFiQTI2NU5nY2VuS1JBOA==
        RGRwTEJZWEE1TmdjZW5LUkE4RGRwZWZCSUNBNU5nY2VuS1JBOERkcA==
        CkxCSUNBNT00MDkzMwoAAAAAEAAAAA==
      >
      FLOATPOS 0 0 0 0
      FXID {CF0C11C6-7FFE-4BDA-BA3A-FA276F5664F9}
      WAK 0
    >
    <ITEM
      POSITION 0.00000000000000
      SNAPOFFS 0.00000000000000
      LENGTH 147.78905973205917
      LOOP 0
      ALLTAKES 0
      SEL 0
      FADEIN 1 0.000000 0.000000 1 0
      FADEOUT 1 0.000000 0.000000 1 0
      MUTE 0
      IGUID {30BDC2BF-2CD5-4C32-8F95-3EEE26C6D8D2}
      IID 18
      NAME "HARM1"
      VOLPAN 1.000000 0.000000 1.000000 -1.000000
      SOFFS 0.00000000000000 0.00000000000000
      PLAYRATE 1.00000000000000 1 0.00000000000000 -1
      CHANMODE 0
      GUID {2A0AAAF0-44D3-4CB6-A6B8-F8960053925D}
      <SOURCE MIDI
        HASDATA 1 480 QN
        POOLEDEVTS {386ED117-4A81-4281-BD8E-B84D210E6E88}
        <X 0 0
          /wNIQVJNMQ==
        >
        <X 3840 0
          /wFbaWRsZV0=
        >
        <X 23040 0
          /wFbcGxheV0=
        >
        E 480 90 69 60
        <X 480 0
          /wVTw7M=
        >
        E 0 90 4f 60
        E 180 80 4f 00
        <X 60 0
          /wVubw==
        >
        E 0 90 4d 60
        E 150 80 4d 00
        <X 90 0
          /wVzb20=
        >
        E 0 90 4c 60
        E 930 80 4c 00
        E 30 90 01 60
        E 30 80 01 00
        <X 1410 0
          /wXDqQ==
        >
        E 0 90 4f 60
        E 150 80 4f 00
        <X 90 0
          /wVwb3Mt
        >
        E 0 90 4d 60
        E 150 80 4d 00
        <X 90 0
          /wVzw60t
        >
        E 0 90 4c 60
        E 120 80 4c 00
        <X 120 0
          /wV2ZWw=
        >
        E 0 90 4c 60
        E 120 80 4c 00
        <X 120 0
          /wV2ZXI=
        >
        E 0 90 4a 60
        E 810 80 4a 00
        <X 150 0
          /wVsdXo=
        >
        E 0 90 48 60
        E 960 80 48 00
        E 30 80 69 00
        E 450 90 69 60
        E 0 90 74 60
        <X 240 0
          /wVF
        >
        E 0 90 45 60
        E 180 80 45 00
        <X 60 0
          /wVlbi0=
        >
        E 0 90 4a 60
        E 150 80 4a 00
        <X 90 0
          /wV4ZXIt
        >
        E 0 90 4c 60
        E 180 80 4c 00
        <X 60 0
          /wVnYXI=
        >
        E 0 90 4c 60
        E 840 80 4c 00
        <X 240 0
          /wUr
        >
        E 0 90 48 60
        E 60 80 48 00
        E 30 90 01 60
        <X 30 0
          /wXDqQ==
        >
        E 0 80 01 00
        E 0 90 48 60
        E 90 80 48 00
        <X 150 0
          /wVpbS0=
        >
        E 0 90 4f 60
        E 180 80 4f 00
        <X 60 0
          /wVwb3Mt
        >
        E 0 90 4d 60
        E 180 80 4d 00
        <X 60 0
          /wVzw60t
        >
        E 0 90 4c 60
        E 210 80 4c 00
        <X 30 0
          /wV2ZWw=
        >
        E 0 90 4c 60
        E 120 80 4c 00
        <X 120 0
          /wVzZW0=
        >
        E 0 90 4a 60
        E 840 80 4a 00
        E 120 80 69 00
        E 0 80 74 00
        E 1440 90 69 60
        <X 240 0
          /wVFdQ==
        >
        E 0 90 48 60
        E 180 80 48 00
        <X 60 0
          /wVtZQ==
        >
        E 0 90 4a 60
        E 150 80 4a 00
        <X 90 0
          /wVyZS0=
        >
        E 0 90 4c 60
        E 120 80 4c 00
        <X 120 0
          /wVjdS0=
        >
        E 0 90 4c 60
        E 150 80 4c 00
        <X 90 0
          /wVzb8KnYQ==
        >
        E 0 90 48 60
        E 150 80 48 00
        <X 90 0
          /wVhLQ==
        >
        E 0 90 4a 60
        E 150 80 4a 00
        <X 90 0
          /wVjZWkt
        >
        E 0 90 4c 60
        E 180 80 4c 00
        <X 60 0
          /wV0YXI=
        >
        E 0 90 4c 60
        E 870 80 4c 00
        E 30 80 69 00
        E 60 90 69 60
        <X 240 0
          /wVQcmUt
        >
        E 0 90 48 60
        E 150 80 48 00
        <X 90 0
          /wVmaS0=
        >
        E 0 90 4a 60
        E 180 80 4a 00
        <X 60 0
          /wVybw==
        >
        E 0 90 4c 60
        E 180 80 4c 00
        <X 60 0
          /wVuw6Nv
        >
        E 0 90 4c 60
        E 210 80 4c 00
        <X 30 0
          /wVvLQ==
        >
        E 0 90 48 60
        E 180 80 48 00
        <X 60 0
          /wVsaGFy
        >
        E 0 90 4a 60
        E 180 80 4a 00
        <X 60 0
          /wVwcmE=
        >
        E 0 90 4c 60
        E 120 80 4c 00
        <X 120 0
          /wV0csOhcw==
        >
        E 0 90 4c 60
        E 1050 80 4c 00
        E 390 80 69 00
        E 1440 90 69 60
        <X 240 0
          /wVQcmE=
        >
        E 0 90 48 60
        E 180 80 48 00
        <X 60 0
          /wV1bQ==
        >
        E 0 90 4c 60
        E 150 80 4c 00
        <X 90 0
          /wVwYXMt
        >
        E 0 90 4c 60
        E 150 80 4c 00
        <X 90 0
          /wVzYS0=
        >
        E 0 90 4c 60
        E 180 80 4c 00
        <X 60 0
          /wVkbw==
        >
        E 0 90 4c 60
        E 90 80 4c 00
        <X 150 0
          /wVzZW0=
        >
        E 0 90 4a 60
        E 660 80 4a 00
        <X 300 0
          /wVsdXo=
        >
        E 0 90 48 60
        E 930 80 48 00
        E 30 80 69 00
        E 450 90 69 60
        E 0 90 74 60
        <X 30 0
          /wVOb2lzZQ==
        >
        E 0 90 4c 60
        E 1080 80 4c 00
        <X 120 0
          /wUr
        >
        E 0 90 4a 60
        E 120 80 4a 00 -30
        <X 120 0
          /wVvdQ==
        >
        E 0 90 4c 60
        E 420 80 4c 00
        <X 540 0
          /wUr
        >
        E 0 90 4a 60
        E 240 80 4a 00
        <X 240 0
          /wVzby0=
        >
        E 0 90 4a 60
        E 1050 80 4a 00
        <X 150 0
          /wUr
        >
        E 0 90 48 60
        E 120 80 48 00
        <X 120 0
          /wVsaS0=
        >
        E 0 90 47 60
        E 1080 80 47 00
        <X 120 0
          /wUr
        >
        E 0 90 48 60
        E 120 80 48 00
        <X 120 0
          /wVkw6NvPw==
        >
        E 0 90 45 60
        E 840 80 45 00
        E 120 80 69 00
        E 0 80 74 00
        <X 360 0
          /wFbaWRsZV0=
        >
        <X 11160 0
          /wFbcGxheV0=
        >
        E 0 90 69 60
        <X 480 0
          /wVOYS0=
        >
        E 0 90 4f 60
        E 120 80 4f 00
        <X 120 0
          /wV2ZS0=
        >
        E 0 90 4d 60
        E 150 80 4d 00
        <X 90 0
          /wVnYXI=
        >
        E 0 90 4c 60
        E 1080 80 4c 00
        E 120 90 01 60
        E 30 80 01 00
        <X 930 0
          /wVkZQ==
        >
        E 0 90 48 60
        E 90 80 48 00
        <X 150 0
          /wVtw6Nv
        >
        E 0 90 4f 60
        E 150 80 4f 00
        <X 90 0
          /wVlbQ==
        >
        E 0 90 4d 60
        E 150 80 4d 00
        <X 90 0
          /wVtw6Nv
        >
        E 0 90 4c 60
        E 150 80 4c 00
        <X 90 0
          /wVpbi0=
        >
        E 0 90 4c 60
        E 60 80 4c 00
        <X 180 0
          /wV0ZWkt
        >
        E 0 90 4a 60
        E 480 80 4a 00
        <X 240 0
          /wUr
        >
        E 0 90 48 60
        E 120 80 48 00
        <X 120 0
          /wVybw==
        >
        E 0 90 48 60
        E 960 80 48 00
        E 120 80 69 00
        E 360 90 69 60
        <X 240 0
          /wVTZW0=
        >
        E 0 90 48 60
        E 150 80 48 00
        <X 90 0
          /wVhbi0=
        >
        E 0 90 4a 60
        E 180 80 4a 00
        <X 60 0
          /wVjby0=
        >
        E 0 90 4c 60
        E 150 80 4c 00
        <X 90 0
          /wVyYXI=
        >
        E 0 90 4c 60
        E 630 80 4c 00
        <X 330 0
          /wUr
        >
        E 0 90 48 60
        E 120 80 48 00
        E 30 80 69 00
        E 60 90 69 60
        E 0 90 74 60
        <X 30 0
          /wVFdQ==
        >
        E 0 90 48 60
        E 90 80 48 00
        <X 150 0
          /wVuw6Nv
        >
        E 0 90 4f 60
        E 150 80 4f 00
        <X 90 0
          /wVmdWk=
        >
        E 0 90 4d 60
        E 150 80 4d 00
        <X 90 0
          /wVv
        >
        E 0 90 4c 60
        E 120 80 4c 00
        <X 120 0
          /wVwcmkt
        >
        E 0 90 4c 60
        E 90 80 4c 00
        <X 150 0
          /wVtZWkt
        >
        E 0 90 4a 60
        E 510 80 4a 00
        <X 210 0
          /wUr
        >
        E 0 90 48 60
        E 90 80 48 00
        <X 150 0
          /wVybw==
        >
        E 0 90 48 60
        E 660 80 48 00
        E 30 90 01 60
        <X 30 0
          /wVhwqdhLQ==
        >
        E 0 80 01 00
        E 0 90 48 60
        E 180 80 48 00
        <X 60 0
          /wV0cmEt
        >
        E 0 90 4a 60
        E 150 80 4a 00
        <X 90 0
          /wV2ZXMt
        >
        E 0 90 4c 60
        E 180 80 4c 00
        <X 60 0
          /wVzYXI=
        >
        E 0 90 45 60
        E 1350 80 45 00
        E 90 80 69 00
        E 0 80 74 00
        <X 390 0
          /wFbaWRsZV0=
        >
        <X 2730 0
          /wFbcGxheV0=
        >
        E 12720 90 69 60
        <X 480 0
          /wVBLQ==
        >
        E 0 90 4f 60
        E 150 80 4f 00
        <X 90 0
          /wVwb3It
        >
        E 0 90 4d 60
        E 180 80 4d 00
        <X 60 0
          /wV0YXI=
        >
        E 0 90 4c 60
        E 1410 80 4c 00
        E 30 90 01 60
        E 30 80 01 00
        <X 930 0
          /wVhbC0=
        >
        E 0 90 4f 60
        E 150 80 4f 00
        <X 90 0
          /wVjYW4t
        >
        E 0 90 4d 60
        E 180 80 4d 00
        <X 60 0
          /wXDp2Fy
        >
        E 0 90 4c 60
        E 180 80 4c 00
        <X 60 0
          /wVv
        >
        E 0 90 4c 60
        E 150 80 4c 00
        <X 90 0
          /wVtZS0=
        >
        E 0 90 4a 60
        E 840 80 4a 00
        <X 120 0
          /wVkbw==
        >
        E 0 90 48 60
        E 690 80 48 00
        E 30 80 69 00
        E 210 90 69 60
        e 0 90 74 60
        <X 30 0
          /wVBLQ==
        >
        E 0 90 4d 60
        E 150 80 4d 00
        <X 90 0
          /wVwb3It
        >
        E 0 90 4d 60
        E 180 80 4d 00
        <X 60 0
          /wV0YXI=
        >
        E 0 90 4c 60
        E 1410 80 4c 00
        E 30 90 01 60
        E 30 80 01 00
        <X 930 0
          /wVhbC0=
        >
        E 0 90 4f 60
        E 150 80 4f 00
        <X 90 0
          /wVjYW4t
        >
        E 0 90 4d 60
        E 180 80 4d 00
        <X 60 0
          /wXDp2Fy
        >
        E 0 90 4c 60
        E 180 80 4c 00
        <X 60 0
          /wVv
        >
        E 0 90 4c 60
        E 150 80 4c 00
        <X 90 0
          /wVtZS0=
        >
        E 0 90 4a 60
        E 840 80 4a 00
        <X 120 0
          /wVkbw==
        >
        E 0 90 48 60
        E 690 80 48 00
        E 30 80 69 00
        e 0 80 74 00
        E 210 90 69 60
        <X 30 0
          /wVBLQ==
        >
        E 0 90 4f 60
        E 120 80 4f 00
        <X 120 0
          /wVwb3It
        >
        E 0 90 4d 60
        E 180 80 4d 00
        <X 60 0
          /wV0YXI=
        >
        E 0 90 4c 60
        E 1410 80 4c 00
        E 30 90 01 60
        E 30 80 01 00
        <X 930 0
          /wVhbC0=
        >
        E 0 90 4f 60
        E 150 80 4f 00
        <X 90 0
          /wVjYW4t
        >
        E 0 90 4d 60
        E 180 80 4d 00
        <X 60 0
          /wXDp2Fy
        >
        E 0 90 4c 60
        E 180 80 4c 00
        <X 60 0
          /wVv
        >
        E 0 90 4c 60
        E 150 80 4c 00
        <X 90 0
          /wVtZS0=
        >
        E 0 90 4a 60
        E 840 80 4a 00
        <X 120 0
          /wVkbw==
        >
        E 0 90 48 60
        E 690 80 48 00
        E 30 80 69 00
        E 210 90 69 60
        <X 30 0
          /wVBLQ==
        >
        E 0 90 4f 60
        E 119 80 4f 00
        <X 121 0
          /wVwb3It
        >
        E 0 90 4d 60
        E 180 80 4d 00
        <X 60 0
          /wV0YXI=
        >
        E 0 90 4c 60
        E 1410 80 4c 00
        E 30 90 01 60
        E 30 80 01 00
        <X 930 0
          /wVhbC0=
        >
        E 0 90 4f 60
        E 150 80 4f 00
        <X 90 0
          /wVjYW4t
        >
        E 0 90 4d 60
        E 180 80 4d 00
        <X 60 0
          /wXDp2Fy
        >
        E 0 90 4c 60
        E 390 80 4c 00
        <X 90 0
          /wUr
        >
        E 0 90 48 60
        E 1200 80 48 00
        E 240 80 69 00
        <X 240 0
          /wFbaWRsZV9yZWFsdGltZV0=
        >
        E 12720 b0 7b 00
        GUID {8B3280E7-D233-4744-A444-05704ECA33D1}
        IGNTEMPO 0 120.00000000 4 4
        SRCCOLOR 6
        VELLANE 132 100 0
        COLORMAP "C:\Program Files\REAPER (x64)\Data\color_maps\rockband_guitarbass.png"
        TEXTSTRINGFILE "C:\Program Files\REAPER (x64)\Data\Text_Strings\Text Events List - Instruments.txt"
        CFGEDITVIEW -6768.000000 0.011867 0 15 0 0 0
        CFGEDIT 1 1 0 1 1 0 1 1 1 1 1 0.06250000 -8 -8 1928 1088 0 2 0 1 0.00000000 0 1 0 0 0.500000 0 0 1.000000 64
        KEYSNAP 0 0 "102034050607" 0 "Major"
        EVTFILTER 0 -1 -1 -1 -1 0 1 0 0 -1.00000000 -1.00000000
      >
    >
  >
  <TRACK '{68A0A9DE-79F8-40AA-90EB-AC8767D45EC1}'
    NAME "HARM2"
    PEAKCOL 16576
    BEAT -1
    AUTOMODE 0
    VOLPAN 1.25737358316072 0.00000000000000 -1.00000000000000 -1.00000000000000 1.00000000000000
    MUTESOLO 0 0 0
    IPHASE 0
    ISBUS 0 0
    BUSCOMP 0 0
    SHOWINMIX 1 0.666700 0.500000 1 0.500000 -1 -1 -1
    FREEMODE 0
    SEL 0
    REC 0 0 0 0 0 0 0
    VU 2
    TRACKHEIGHT 0 0
    INQ 0 0 0 0.5000000000 100 0 0 100
    NCHAN 2
    FX 1
    TRACKID {68A0A9DE-79F8-40AA-90EB-AC8767D45EC1}
    PERF 0
    MIDIOUT -1
    <MIDINOTENAMES
      1 105 "Phrase Marker"
      1 104 "----"
      1 84 "C6 (Unused Highest Note)"
      1 83 "B5"
      1 82 "A#4"
      1 81 "A4"
      1 80 "G#4"
      1 79 "G4"
      1 78 "F#4"
      1 77 "F4"
      1 76 "E4"
      1 75 "D#4"
      1 74 "D4"
      1 73 "C#4"
      1 72 "C4"
      1 71 "B3"
      1 70 "A#3"
      1 69 "A3"
      1 68 "G#3"
      1 67 "G3"
      1 66 "F#3"
      1 65 "F3"
      1 64 "E3"
      1 63 "D#3"
      1 62 "D3"
      1 61 "C#3"
      1 60 "C3"
      1 59 "B2"
      1 58 "A#2"
      1 57 "A2"
      1 56 "G#2"
      1 55 "G2"
      1 54 "F#2"
      1 53 "F2"
      1 52 "E2"
      1 51 "D#2"
      1 50 "D2"
      1 49 "C#2"
      1 48 "C2"
      1 47 "B1"
      1 46 "A#1"
      1 45 "A1"
      1 44 "G#1"
      1 43 "G1"
      1 42 "F#1"
      1 41 "F1"
      1 40 "E1"
      1 39 "D#1"
      1 38 "D1"
      1 37 "C#1"
      1 36 "Lowest Note C1"
      0 105 "Phrase Marker"
      0 104 "----"
      0 84 "C6 (Unused Highest Note)"
      0 83 "B5"
      0 82 "A#4"
      0 81 "A4"
      0 80 "G#4"
      0 79 "G4"
      0 78 "F#4"
      0 77 "F4"
      0 76 "E4"
      0 75 "D#4"
      0 74 "D4"
      0 73 "C#4"
      0 72 "C4"
      0 71 "B3"
      0 70 "A#3"
      0 69 "A3"
      0 68 "G#3"
      0 67 "G3"
      0 66 "F#3"
      0 65 "F3"
      0 64 "E3"
      0 63 "D#3"
      0 62 "D3"
      0 61 "C#3"
      0 60 "C3"
      0 59 "B2"
      0 58 "A#2"
      0 57 "A2"
      0 56 "G#2"
      0 55 "G2"
      0 54 "F#2"
      0 53 "F2"
      0 52 "E2"
      0 51 "D#2"
      0 50 "D2"
      0 49 "C#2"
      0 48 "C2"
      0 47 "B1"
      0 46 "A#1"
      0 45 "A1"
      0 44 "G#1"
      0 43 "G1"
      0 42 "F#1"
      0 41 "F1"
      0 40 "E1"
      0 39 "D#1"
      0 38 "D1"
      0 37 "C#1"
      0 36 "Lowest Note C1"
    >
    MAINSEND 1 0
    <FXCHAIN
      WNDRECT 0 43 1268 524
      SHOW 0
      LASTSEL 2
      DOCKED 0
      BYPASS 0 0
      <JS "MIDI/midi_note_filter" ""
        36.000000 84.000000 - - - - - - - - - - - - - - - - - - - - - - - - - - - - - - - - - - - - - - - - - - - - - - - - - - - - - - - - - - - - - - 
      >
      FLOATPOS 0 0 0 0
      FXID {48F9358E-B469-46BB-AEB4-777135699530}
      WAK 0
      BYPASS 0 0
      <VST "VSTi: ReaSynth (Cockos)" "reasynth.dll" 0 ""
        eXNlcu9e7f4AAAAAAgAAAAEAAAAAAAAAAgAAAAAAAAA4AAAAAAAAAA==
        AAAQAO++rd4N8K3eppvEOxe30ToAAAAAAAAAAAAAAADMm4A+6WeIPQ==
        AAAAAAAAAD8AAIA/AACAPwAAAD8AABAAAAA=
      >
      FLOATPOS 0 0 0 0
      FXID {F314502F-837B-4FEC-98F2-03D1A0530E42}
      WAK 0
      BYPASS 0 0
      <VST "VST: Twangstrom (u-he)" "Twangstrom.dll" 0 ""
        V1Rode5e7f4EAAAAAQAAAAAAAAACAAAAAAAAAAQAAAAAAAAACAAAAA==
        AAAAAAIAAAABAAAAAAAAAAIAAAAAAAAAKwYAAAEAAAAAABAAI3BnbQ==
        PWluaXRpYWxpemUKI0FNPVR3YW5nc3Ryb20KI1ZlcnM9MTAwMDAKIw==
        RW5kaWFuPWxpdHRsZQojbm09NwojbXM9bm9uZQojbXM9TW9kV2hsCg==
        I21zPVBpdGNoVwojbXM9Q3RybEEKI21zPUN0cmxCCiNtcz1MRk8KIw==
        bXM9RW52ZWxvcGUKI252PTAKI2NtPW1haW4KQ3JjUj0xCkNyY1IyPQ==
        MQojY209UENvcmUKU1RyaWc9MQpQU29uZz0wClBGb2xkPTAKUEZpbA==
        ZT0xCkdGaWxlPTIKR1NjYWxlPTAKQ2hMYXk9MApTdXJyTz0xClJldg==
        PTgxODkKTEVEPTAuMDAKUEFHRT0wClBhZ2VzT249MApDb3JlTj0zCg==
        U2xpY2U9NApVSV9vcD0xCk1pZGlBPTUKTWlkaVA9NgpERm9sZD03Cg==
        Q3RybEE9MgpDdHJsQj0xMQojY209TU0xCkFjdGl2ZT0xClNvdXJjZQ==
        PTAKRGVzdDE9bm9uZTphc3NpZ25lZApEZXB0aDE9MC4wMApDdXJ2ZQ==
        MT0yClFudHplMT0wClJlY3QxPTAKU2xldzE9MAojY209TU0yCkFjdA==
        aXZlPTEKU291cmNlPTAKRGVzdDE9bm9uZTphc3NpZ25lZApEZXB0aA==
        MT0wLjAwCkN1cnZlMT0yClFudHplMT0wClJlY3QxPTAKU2xldzE9MA==
        CiNjbT1NTTMKQWN0aXZlPTEKU291cmNlPTAKRGVzdDE9bm9uZTphcw==
        c2lnbmVkCkRlcHRoMT0wLjAwCkN1cnZlMT0yClFudHplMT0wClJlYw==
        dDE9MApTbGV3MT0wCiNjbT1MRk8KU3luYz02CldhdmU9MQpSYXRlPQ==
        MC4wMAojY209RW52ClNvdXJjZT0wCk1vZGU9MApUaHJlcz0tMzAuMA==
        MApBdHRhY2s9MjUuMDAKRGVjYXk9NTAuMDAKI2NtPUlucApJbnB1dA==
        PTAuMDAKRHJpdmU9MC4wMApUb25lPTUwLjAwCiNjbT1SZXYKVGVucw==
        aW9uPTAuMDAKRGVjYXk9NTAuMDAKU2hha2VNPTAuMDAKRGVuc2l0eQ==
        PTAuMDAKTENEX25vMT04CkxDRF9ubzI9OQpMQ0Rfbm8zPTEwClR5cA==
        ZT0wCkNvdXBsZT0wCkJyaWdodD0wCiNjbT1GbHQKZnJlcT0xNTAuMA==
        MApzdGVyZW89MC4wMApyZXNvPTAuMDAKYmxlbmQ9MC4wMAp0eXBlPQ==
        MQojY209T3V0Ck1peD01MC4wMApXaWR0aD0zNy4wMApHYWluTWl4PQ==
        MC4wMApCeXBhc3M9MApvdXRjbHA9MAojY209QW1wTW9kClNyYz0wCg==
        RGVwdGg9MC4wMAojY209TE1lbQpMYXlNZW0xPTAKCgoKLy8gU2VjdA==
        aW9uIGZvciB1Z2x5IGNvbXByZXNzZWQgYmluYXJ5IERhdGEKLy8gRA==
        T04nVCBUT1VDSCBUSElTCgokJCQkMTI5OAo/Z2RnY2VuZWI6YWFhYg==
        YWFhYTplYWFhYWFhYTpha2FhYWFhYTphYWFhaWFkcDpnamdvZ2poZQ==
        OmdqZ2JnbWdqOgpoa2dmY29naTpkY2hhYWFhYTpoZ2VpaWVmbDphYQ==
        OmNuOmRpOmViOmlhOmFjOmFlOmFsOmNlOmRkOmRnOmVkOmcKZDprZA==
        OmtnOmxoOmFiOmFoOmFrOmFvOmFwOmJiOmNiOmNjOmRiOmRjIU1nYw==
        ZW5EQVFBMjY1TWdjZW5EZWFBMTAKZ2pnb2dqaGVnamdiZ21namhrZw==
        ZmNvZ2laaGFBNDlNZ2NlbkRlYUE3NE1nY2VuRGVhQTEwaGdlaWllZg==
        bE9qblAKZmNOSVdIamNYVEZwYWRmUElpZWpwZ2JrY2xqTWhhRkNuZA==
        b2xtbmRraWhmZURoZGdoa2JoaWxhcHBIaWlHb2NrCm9mbmljaW9wZQ==
        VktwZ0VuZWdnZWFPVWhoa2toZktNZ2NlbkRHQTEwRE5SUU1nY2VuRA==
        QVFBMjY1TWdjZW5ERUExCjM4TWdjZW5EQVFBMjY1TWdjZW5EU0E4RQ==
        ZHBMQlpZQTVNZ2NlbkRTQThFZHBlZkJKQ0E1TWdjZW5EU0E4RWRwTA==
        CkJKQ0E1PTQwNzM2CgAAAAAQAAAA
      >
      FLOATPOS 0 0 0 0
      FXID {CF0C11C6-7FFE-4BDA-BA3A-FA276F5664F9}
      WAK 0
    >
    <ITEM
      POSITION 0.00000000000000
      SNAPOFFS 0.00000000000000
      LENGTH 147.78905973205917
      LOOP 0
      ALLTAKES 0
      SEL 0
      FADEIN 1 0.000000 0.000000 1 0
      FADEOUT 1 0.000000 0.000000 1 0
      MUTE 0
      IGUID {30BDC2BF-2CD5-4C32-8F95-3EEE26C6D8D2}
      IID 18
      NAME "HARM2"
      VOLPAN 1.000000 0.000000 1.000000 -1.000000
      SOFFS 0.00000000000000 0.00000000000000
      PLAYRATE 1.00000000000000 1 0.00000000000000 -1
      CHANMODE 0
      GUID {2A0AAAF0-44D3-4CB6-A6B8-F8960053925D}
      <SOURCE MIDI
        HASDATA 1 480 QN
        POOLEDEVTS {CDA2E81C-08EC-46BA-82FB-BDE6E532DC2F}
        <X 0 0
          /wNIQVJNMg==
        >
        E 69600 90 69 60
        <X 480 0
          /wVOYS0=
        >
        E 0 90 43 60
        E 120 80 43 00
        <X 120 0
          /wV2ZS0=
        >
        E 0 90 41 60
        E 150 80 41 00
        <X 90 0
          /wVnYXI=
        >
        E 0 90 40 60
        E 1080 80 40 00
        E 360 80 69 00
        E 480 90 69 60
        <X 240 0
          /wVkZQ==
        >
        E 0 90 3c 60
        E 90 80 3c 00
        <X 150 0
          /wVtw6Nv
        >
        E 0 90 43 60
        E 150 80 43 00
        <X 90 0
          /wVlbQ==
        >
        E 0 90 41 60
        E 150 80 41 00
        <X 90 0
          /wVtw6Nv
        >
        E 0 90 40 60
        E 150 80 40 00
        <X 90 0
          /wVpbi0=
        >
        E 0 90 40 60
        E 60 80 40 00
        <X 180 0
          /wV0ZWkt
        >
        E 0 90 3e 60
        E 480 80 3e 00
        <X 240 0
          /wUr
        >
        E 0 90 3c 60
        E 120 80 3c 00
        <X 120 0
          /wVybw==
        >
        E 0 90 3c 60
        E 960 80 3c 00
        E 30 80 69 00
        E 450 90 69 60
        <X 240 0
          /wVTZW0=
        >
        E 0 90 3c 60
        E 150 80 3c 00
        <X 90 0
          /wVhbi0=
        >
        E 0 90 3e 60
        E 180 80 3e 00
        <X 60 0
          /wVjby0=
        >
        E 0 90 40 60
        E 150 80 40 00
        <X 90 0
          /wVyYXI=
        >
        E 0 90 40 60
        E 630 80 40 00
        <X 330 0
          /wUr
        >
        E 0 90 3c 60
        E 120 80 3c 00
        E 30 80 69 00
        E 60 90 69 60
        <X 30 0
          /wVFdQ==
        >
        E 0 90 3c 60
        E 90 80 3c 00
        <X 150 0
          /wVuw6Nv
        >
        E 0 90 43 60
        E 150 80 43 00
        <X 90 0
          /wVmdWk=
        >
        E 0 90 41 60
        E 150 80 41 00
        <X 90 0
          /wVv
        >
        E 0 90 40 60
        E 120 80 40 00
        <X 120 0
          /wVwcmkt
        >
        E 0 90 40 60
        E 90 80 40 00
        <X 150 0
          /wVtZWkt
        >
        E 0 90 3e 60
        E 510 80 3e 00
        <X 210 0
          /wUr
        >
        E 0 90 3c 60
        E 90 80 3c 00
        <X 150 0
          /wVybw==
        >
        E 0 90 3c 60
        E 660 80 3c 00
        E 30 80 69 00
        E 0 90 69 60
        <X 30 0
          /wVhwqdhLQ==
        >
        E 0 90 3c 60
        E 180 80 3c 00
        <X 60 0
          /wV0cmEt
        >
        E 0 90 3e 60
        E 150 80 3e 00
        <X 90 0
          /wV2ZXMt
        >
        E 0 90 40 60
        E 180 80 40 00
        <X 60 0
          /wVzYXI=
        >
        E 0 90 39 60
        E 1350 80 39 00
        E 90 80 69 00
        E 15840 90 69 60
        <X 480 0
          /wVBLQ==
        >
        e 0 90 40 60
        e 150 80 40 00
        <X 90 0
          /wVwb3It
        >
        E 0 90 40 60
        E 180 80 40 00
        <X 60 0
          /wV0YXI=
        >
        E 0 90 43 60
        E 1410 80 43 00
        E 30 80 69 00
        E 480 90 69 60
        <X 480 0
          /wVhbC0=
        >
        E 0 90 43 60
        E 150 80 43 00
        <X 90 0
          /wVjYW4t
        >
        E 0 90 43 60
        E 180 80 43 00
        <X 60 0
          /wXDp2Fy
        >
        E 0 90 43 60
        E 180 80 43 00
        <X 60 0
          /wVv
        >
        E 0 90 43 60
        E 150 80 43 00
        <X 90 0
          /wVtZS0=
        >
        E 0 90 41 60
        E 840 80 41 00
        <X 120 0
          /wVkbw==
        >
        E 0 90 40 60
        E 690 80 40 00
        E 30 80 69 00
        E 210 90 69 60
        <X 30 0
          /wVBLQ==
        >
        e 0 90 40 60
        e 150 80 40 00
        <X 90 0
          /wVwb3It
        >
        E 0 90 40 60
        E 180 80 40 00
        <X 60 0
          /wV0YXI=
        >
        E 0 90 43 60
        E 1410 80 43 00
        E 30 80 69 00
        E 480 90 69 60
        <X 480 0
          /wVhbC0=
        >
        E 0 90 43 60
        E 150 80 43 00
        <X 90 0
          /wVjYW4t
        >
        E 0 90 43 60
        E 180 80 43 00
        <X 60 0
          /wXDp2Fy
        >
        E 0 90 43 60
        E 180 80 43 00
        <X 60 0
          /wVv
        >
        E 0 90 43 60
        E 150 80 43 00
        <X 90 0
          /wVtZS0=
        >
        E 0 90 41 60
        E 840 80 41 00
        <X 120 0
          /wVkbw==
        >
        E 0 90 40 60
        E 690 80 40 00
        E 30 80 69 00
        E 210 90 69 60
        <X 30 0
          /wVBLQ==
        >
        e 0 90 40 60
        e 120 80 40 00
        <X 120 0
          /wVwb3It
        >
        E 0 90 40 60
        E 180 80 40 00
        <X 60 0
          /wV0YXI=
        >
        E 0 90 43 60
        E 1410 80 43 00
        E 30 80 69 00
        E 480 90 69 60
        <X 480 0
          /wVhbC0=
        >
        E 0 90 43 60
        E 150 80 43 00
        <X 90 0
          /wVjYW4t
        >
        E 0 90 43 60
        E 180 80 43 00
        <X 60 0
          /wXDp2Fy
        >
        E 0 90 43 60
        E 180 80 43 00
        <X 60 0
          /wVv
        >
        E 0 90 43 60
        E 150 80 43 00
        <X 90 0
          /wVtZS0=
        >
        E 0 90 41 60
        E 840 80 41 00
        <X 120 0
          /wVkbw==
        >
        E 0 90 40 60
        E 690 80 40 00
        E 30 80 69 00
        E 210 90 69 60
        <X 30 0
          /wVBLQ==
        >
        e 0 90 40 60
        e 119 80 40 00
        <X 121 0
          /wVwb3It
        >
        E 0 90 40 60
        E 180 80 40 00
        <X 60 0
          /wV0YXI=
        >
        E 0 90 43 60
        E 1410 80 43 00
        E 30 80 69 00
        E 480 90 69 60
        <X 480 0
          /wVhbC0=
        >
        E 0 90 43 60
        E 150 80 43 00
        <X 90 0
          /wVjYW4t
        >
        E 0 90 43 60
        E 180 80 43 00
        <X 60 0
          /wXDp2Fy
        >
        E 0 90 43 60
        E 1680 80 43 00
        E 240 80 69 00
        E 12960 b0 7b 00
        GUID {8B3280E7-D233-4744-A444-05704ECA33D1}
        IGNTEMPO 0 120.00000000 4 4
        SRCCOLOR 6
        VELLANE 132 100 0
        COLORMAP "C:\Program Files\REAPER (x64)\Data\color_maps\rockband_guitarbass.png"
        TEXTSTRINGFILE "C:\Program Files\REAPER (x64)\Data\Text_Strings\Text Events List - Instruments.txt"
        CFGEDITVIEW 108626.035195 0.088175 0 16 0 0 0
        CFGEDIT 1 1 0 1 1 0 1 1 1 1 1 0.06250000 -8 -8 1928 1088 0 2 0 1 0.00000000 0 1 0 0 0.500000 0 0 1.000000 64
        KEYSNAP 1 0 "102034050607" 0 "Major"
        EVTFILTER 0 -1 -1 -1 -1 0 1 0 0 -1.00000000 -1.00000000
      >
    >
  >
  <TRACK '{7ABAED72-303D-4158-8440-180821B8EECC}'
    NAME "EVENTS"
    PEAKCOL 16576
    BEAT -1
    AUTOMODE 0
    VOLPAN 1.00000000000000 0.00000000000000 -1.00000000000000 -1.00000000000000 1.00000000000000
    MUTESOLO 0 0 0
    IPHASE 0
    ISBUS 0 0
    BUSCOMP 0 0
    SHOWINMIX 1 0.666700 0.500000 1 0.500000 -1 -1 -1
    FREEMODE 0
    SEL 0
    REC 0 0 0 0 0 0 0
    VU 2
    TRACKHEIGHT 0 0
    INQ 0 0 0 0.5000000000 100 0 0 100
    NCHAN 2
    FX 1
    TRACKID {7ABAED72-303D-4158-8440-180821B8EECC}
    PERF 0
    MIDIOUT -1
    MAINSEND 1 0
    <ITEM
      POSITION 0.00000000000000
      SNAPOFFS 0.00000000000000
      LENGTH 147.78905973205840
      LOOP 0
      ALLTAKES 0
      SEL 0
      FADEIN 1 0.000000 0.000000 1 0
      FADEOUT 1 0.000000 0.000000 1 0
      MUTE 0
      IGUID {6D91285B-544D-4000-AB8D-BC562C4D5356}
      IID 9
      NAME "EVENTS"
      VOLPAN 1.000000 0.000000 1.000000 -1.000000
      SOFFS 0.00000000000000 0.00000000000000
      PLAYRATE 1.00000000000000 1 0.00000000000000 -1
      CHANMODE 0
      GUID {C42DD3A8-6730-4517-8072-CFFC333EE92E}
      <SOURCE MIDI
        HASDATA 1 480 QN
        POOLEDEVTS {15D93024-9FAA-48B7-A5A2-488CCAAA062E}
        <X 0 0
          /wNFVkVOVFM=
        >
        <X 2880 0
          /wFbcHJjX2ludHJvXQ==
        >
        <X 1440 0
          /wFbbXVzaWNfc3RhcnRd
        >
        <X 0 0
          /wFbY3Jvd2RfbWVsbG93XQ==
        >
        <X 21600 0
          /wFbY3Jvd2Rfbm9jbGFwXQ==
        >
        <X 960 0
          /wFbcHJjX3ZlcnNlXzFd
        >
        <X 24240 0
          /wFbY3Jvd2RfY2xhcF0=
        >
        <X 240 0
          /wFbcHJjX3Bvc3R2ZXJzZV8xXQ==
        >
        <X 6000 0
          /wFbY3Jvd2Rfbm9jbGFwXQ==
        >
        <X 11760 0
          /wFbcHJjX3ZlcnNlXzJd
        >
        <X 18240 0
          /wFbcHJjX2JyaWRnZV0=
        >
        <X 0 0
          /wFbY3Jvd2RfY2xhcF0=
        >
        <X 11520 0
          /wFbcHJjX291dHJvXQ==
        >
        <X 28080 0
          /wFbY3Jvd2Rfbm9jbGFwXQ==
        >
        <X 240 0
          /wFbbXVzaWNfZW5kXQ==
        >
        <X 8155 0
          /wFbZW5kXQ==
        >
        E 5 b0 7b 00
        GUID {6D89897E-6B16-4DF5-9485-B9E706FC3FFD}
        IGNTEMPO 0 120.00000000 4 4
        SRCCOLOR 2
        VELLANE 132 100 0
        COLORMAP "C:\Program Files\REAPER (x64)\Data\color_maps\rockband_guitarbass.png"
        TEXTSTRINGFILE "C:\Program Files\REAPER (x64)\Data\Text_Strings\Text Events List - Events.txt"
        CFGEDITVIEW -6768.000000 0.011867 58 12 0 0 0
        CFGEDIT 1 1 0 1 1 0 1 1 1 1 1 0.25000000 -8 -8 1928 1088 0 0 0 2 0.00000000 0 1 1 0 0.500000 0 0 1.000000 64
        KEYSNAP 0 9 "102034050607" 0 "Major"
        EVTFILTER 0 -1 -1 -1 -1 0 1 0 0 -1.00000000 -1.00000000
      >
    >
  >
  <TRACK '{71D3E10B-5AF1-4583-8260-C62246E12BAE}'
    NAME "VENUE"
    PEAKCOL 16576
    BEAT -1
    AUTOMODE 0
    VOLPAN 1.00000000000000 0.00000000000000 -1.00000000000000 -1.00000000000000 1.00000000000000
    MUTESOLO 0 0 0
    IPHASE 0
    ISBUS 1 1
    BUSCOMP 0 0
    SHOWINMIX 1 0.666700 0.500000 1 0.500000 -1 -1 -1
    FREEMODE 0
    SEL 0
    REC 0 0 0 0 0 0 0
    VU 2
    TRACKHEIGHT 0 0
    INQ 0 0 0 0.5000000000 100 0 0 100
    NCHAN 2
    FX 1
    TRACKID {71D3E10B-5AF1-4583-8260-C62246E12BAE}
    PERF 0
    MIDIOUT -1
    <MIDINOTENAMES
      0 87 "Guitarist Sing Along"
      0 86 "Drummer Sing Along"
      0 85 "Bassist Sing Along"
      0 84 "----"
      0 40 "Spotlight on Vocals"
      0 39 "Spotlight on Guitar"
      0 38 "Spotlight on Drums"
      0 37 "Spotlight on Bass"
    >
    MAINSEND 1 0
    <FXCHAIN
      SHOW 0
      LASTSEL 0
      DOCKED 0
    >
    <ITEM
      POSITION 0.00000000000000
      SNAPOFFS 0.00000000000000
      LENGTH 147.78905973205917
      LOOP 0
      ALLTAKES 0
      SEL 0
      FADEIN 1 0.000000 0.000000 1 0
      FADEOUT 1 0.000000 0.000000 1 0
      MUTE 0
      IGUID {31619F55-6C31-48B5-8612-BBD297B7F6B3}
      IID 30
      NAME "VENUE"
      VOLPAN 1.000000 0.000000 1.000000 -1.000000
      SOFFS 0.00000000000000 0.00000000000000
      PLAYRATE 1.00000000000000 1 0.00000000000000 -1
      CHANMODE 0
      GUID {55281BF7-BFCD-4FA0-9C13-151BC285FEE9}
      <SOURCE MIDI
        HASDATA 1 480 QN
        POOLEDEVTS {C72C972C-4AC5-4B10-8880-64F3CAC51AD0}
        <X 0 0
          /wNWRU5VRQ==
        >
        <X 3840 0
          /wFbY29vcF9kX25lYXJd
        >
        <X 2880 0
          /wFbY29vcF9kX2JlaGluZF0=
        >
        <X 2880 0
          /wFbY29vcF9kX25lYXJd
        >
        <X 2880 0
          /wFbY29vcF9kX2JlaGluZF0=
        >
        <X 2880 0
          /wFbY29vcF9kX2Nsb3NldXBfaGVhZF0=
        >
        <X 2880 0
          /wFbY29vcF9kX2Nsb3NldXBfaGFuZF0=
        >
        <X 2880 0
          /wFbY29vcF9kX2Nsb3NldXBfaGVhZF0=
        >
        <X 2880 0
          /wFbY29vcF9kX2Nsb3NldXBfaGFuZF0=
        >
        <X 2880 0
          /wFbZGlyZWN0ZWRfZHJ1bXNfbnBd
        >
        <X 5760 0
          /wFbZGlyZWN0ZWRfZHJ1bXNfbnBd
        >
        <X 2880 0
          /wFbZGlyZWN0ZWRfZHJ1bXNfbnBd
        >
        <X 1920 0
          /wFbZGlyZWN0ZWRfZHJ1bXNfbnBd
        >
        <X 960 0
          /wFbZGlyZWN0ZWRfZHJ1bXNd
        >
        <X 5760 0
          /wFbZGlyZWN0ZWRfZHJ1bXNd
        >
        <X 2880 0
          /wFbZGlyZWN0ZWRfZHJ1bXNd
        >
        <X 1920 0
          /wFbZGlyZWN0ZWRfZHJ1bXNd
        >
        <X 960 0
          /wFbZGlyZWN0ZWRfZHJ1bXNfbHRd
        >
        <X 5760 0
          /wFbZGlyZWN0ZWRfZHJ1bXNfbHRd
        >
        <X 2880 0
          /wFbZGlyZWN0ZWRfZHJ1bXNfbHRd
        >
        <X 1920 0
          /wFbZGlyZWN0ZWRfZHJ1bXNfbHRd
        >
        <X 960 0
          /wFbY29vcF9hbGxfYmVoaW5kXQ==
        >
        <X 1920 0
          /wFbZGlyZWN0ZWRfZHJ1bXNfa2Rd
        >
        <X 5760 0
          /wFbZGlyZWN0ZWRfZHJ1bXNfa2Rd
        >
        E 480 90 57 60
        <X 2400 0
          /wFbZGlyZWN0ZWRfZHJ1bXNfa2Rd
        >
        <X 1920 0
          /wFbZGlyZWN0ZWRfZHJ1bXNfa2Rd
        >
        <X 960 0
          /wFbZGlyZWN0ZWRfZHJ1bXNfcG50XQ==
        >
        <X 5760 0
          /wFbZGlyZWN0ZWRfZHJ1bXNfcG50XQ==
        >
        <X 2880 0
          /wFbZGlyZWN0ZWRfZHJ1bXNfcG50XQ==
        >
        E 0 80 57 00
        <X 1920 0
          /wFbZGlyZWN0ZWRfZHJ1bXNfcG50XQ==
        >
        <X 960 0
          /wFbZGlyZWN0ZWRfZHVvX2RydW1zXQ==
        >
        <X 5760 0
          /wFbZGlyZWN0ZWRfZHVvX2RydW1zXQ==
        >
        <X 2880 0
          /wFbZGlyZWN0ZWRfZHVvX2RydW1zXQ==
        >
        <X 1920 0
          /wFbZGlyZWN0ZWRfZHVvX2RydW1zXQ==
        >
        <X 960 0
          /wFbY29vcF9hbGxfbmVhcl0=
        >
        E 1440 90 57 60
        E 23040 80 57 00
        E 12960 b0 7b 00
        GUID {D56F2F8E-EE6A-4828-88CB-CD7004996F72}
        IGNTEMPO 0 120.00000000 4 4
        SRCCOLOR 15
        VELLANE 132 100 0
        COLORMAP "C:\Program Files\REAPER (x64)\Data\color_maps\rockband_guitarbass.png"
        CFGEDITVIEW -6768.000000 0.011867 13 12 0 0 0
        CFGEDIT 1 1 0 1 1 0 1 1 1 1 1 0.06250000 -8 -8 1928 1088 0 0 0 1 0.00000000 0 1 1 0 0.500000 0 0 1.000000 64
        KEYSNAP 0 0 "102034050607" 0 "Major"
        EVTFILTER 0 -1 -1 -1 -1 0 1 0 0 -1.00000000 -1.00000000
      >
    >
  >
  <TRACK '{D2E69B84-F86D-4653-B2A9-2EFDDDCBE283}'
    NAME "CAMERA"
    PEAKCOL 16576
    BEAT -1
    AUTOMODE 0
    VOLPAN 1.00000000000000 0.00000000000000 -1.00000000000000 -1.00000000000000 1.00000000000000
    MUTESOLO 1 0 0
    IPHASE 0
    ISBUS 0 0
    BUSCOMP 0 0
    SHOWINMIX 1 0.666700 0.500000 1 0.500000 -1 -1 -1
    FREEMODE 0
    SEL 0
    REC 0 0 0 0 0 0 0
    VU 2
    TRACKHEIGHT 24 0
    INQ 0 0 0 0.5000000000 100 0 0 100
    NCHAN 2
    FX 1
    TRACKID {D2E69B84-F86D-4653-B2A9-2EFDDDCBE283}
    PERF 0
    MIDIOUT -1
    <MIDINOTENAMES
      0 102 "RANDOM"
      0 100 "All_Behind"
      0 99 "All_Far"
      0 98 "All_Near"
      0 96 "Front_Behind"
      0 95 "Front_Near"
      0 93 "D_Behind"
      0 92 "D_Near"
      0 91 "V_Behind"
      0 90 "V_Near"
      0 89 "B_Behind"
      0 88 "B_Near"
      0 87 "G_Behind"
      0 86 "G_Near"
      0 85 "K_Behind"
      0 84 "K_Near"
      0 82 "D_Hand"
      0 81 "D_Head"
      0 80 "V_Closeup"
      0 79 "B_Hand"
      0 78 "B_Head"
      0 77 "G_Hand"
      0 76 "G_Head"
      0 75 "K_Hand"
      0 74 "K_Head"
      0 72 "DV_Near"
      0 71 "BD_Near"
      0 70 "DG_Near"
      0 69 "BV_Behind"
      0 68 "BV_Near"
      0 67 "GV_Behind"
      0 66 "GV_Near"
      0 65 "KV_Behind"
      0 64 "KV_Near"
      0 63 "BG_Behind"
      0 62 "BG_Near"
      0 61 "BK_Behind"
      0 60 "BK_Near"
      0 59 "GK_Behind"
      0 58 "GK_Near"
      0 56 "D_All"
      0 55 "D_All_Cam"
      0 54 "D_All_LT*"
      0 53 "D_All_Yeah"
      0 52 "D_BRE"
      0 51 "D_BRE_Jump"
      0 49 "D_Drums_NP"
      0 48 "D_Bass_NP"
      0 47 "D_Gtr_NP"
      0 46 "D_Vox_NP"
      0 45 "D_Keys_NP"
      0 43 "D_Drums"
      0 42 "D_Drums_LT*"
      0 41 "D_Vocals"
      0 40 "D_Bass"
      0 39 "D_Gtr"
      0 38 "D_Keys"
      0 36 "D_Vox_Cam_PR"
      0 35 "D_Vox_Cam_PT"
      0 34 "D_Gtr_Cam_PR"
      0 33 "D_Gtr_Cam_PT"
      0 32 "D_Keys_Cam"
      0 31 "D_Bass_Cam"
      0 29 "D_Stagedive"
      0 28 "D_Crowdsurf"
      0 26 "D_Vox_CLS"
      0 25 "D_Bass_CLS*"
      0 24 "D_Gtr_CLS*"
      0 23 "D_Drums_KD*"
      0 21 "D_Drums_Point"
      0 20 "D_Crowd_Gtr"
      0 19 "D_Crowd_Bass"
      0 17 "D_Duo_Drums"
      0 16 "D_Duo_Gtr"
      0 15 "D_Duo_Bass"
      0 14 "D_Duo_KV"
      0 13 "D_Duo_GB"
      0 12 "D_Duo_KB"
      0 11 "D_Duo_KG"
      0 10 "D_Crowd*"
    >
    MAINSEND 1 0
    <FXCHAIN
      SHOW 0
      LASTSEL 0
      DOCKED 0
    >
    <ITEM
      POSITION 0.00000000000000
      SNAPOFFS 0.00000000000000
      LENGTH 147.78905973205917
      LOOP 0
      ALLTAKES 0
      SEL 0
      FADEIN 1 0.000000 0.000000 1 0
      FADEOUT 1 0.000000 0.000000 1 0
      MUTE 0
      IGUID {C82C74C4-5EE2-4A07-8EB5-1BF7D2747D62}
      IID 33
      NAME "CAMERA"
      VOLPAN 1.000000 0.000000 1.000000 -1.000000
      SOFFS 0.00000000000000 0.00000000000000
      PLAYRATE 1.00000000000000 1 0.00000000000000 -1
      CHANMODE 0
      GUID {22D82CBF-5ADA-4EBB-9EFB-101D61A932B4}
      <SOURCE MIDI
        HASDATA 1 480 QN
        POOLEDEVTS {5DF6A8C0-963C-47CA-8DF7-89EF376C02D5}
        <X 3840 0
          /wFbY29vcF9kX25lYXJd
        >
        E 0 90 5c 60
        <X 2880 0
          /wFbY29vcF9kX2JlaGluZF0=
        >
        E 0 80 5c 00
        E 0 90 5d 60
        <X 2880 0
          /wFbY29vcF9kX25lYXJd
        >
        E 0 80 5d 00
        E 0 90 5c 60
        <X 2880 0
          /wFbY29vcF9kX2JlaGluZF0=
        >
        E 0 80 5c 00
        E 0 90 5d 60
        <X 2880 0
          /wFbY29vcF9kX2Nsb3NldXBfaGVhZF0=
        >
        E 0 80 5d 00
        E 0 90 51 60
        <X 2880 0
          /wFbY29vcF9kX2Nsb3NldXBfaGFuZF0=
        >
        E 0 80 51 00
        E 0 90 52 60
        <X 2880 0
          /wFbY29vcF9kX2Nsb3NldXBfaGVhZF0=
        >
        E 0 80 52 00
        E 0 90 51 60
        <X 2880 0
          /wFbY29vcF9kX2Nsb3NldXBfaGFuZF0=
        >
        E 0 80 51 00
        E 0 90 52 60
        <X 2880 0
          /wFbZGlyZWN0ZWRfZHJ1bXNfbnBd
        >
        E 0 80 52 00
        E 0 90 31 60
        <X 5760 0
          /wFbZGlyZWN0ZWRfZHJ1bXNfbnBd
        >
        E 0 80 31 00
        E 0 90 31 60
        <X 2880 0
          /wFbZGlyZWN0ZWRfZHJ1bXNfbnBd
        >
        E 0 80 31 00
        E 0 90 31 60
        <X 1920 0
          /wFbZGlyZWN0ZWRfZHJ1bXNfbnBd
        >
        E 0 80 31 00
        E 0 90 31 60
        <X 960 0
          /wFbZGlyZWN0ZWRfZHJ1bXNd
        >
        E 0 80 31 00
        E 0 90 2b 60
        <X 5760 0
          /wFbZGlyZWN0ZWRfZHJ1bXNd
        >
        E 0 80 2b 00
        E 0 90 2b 60
        <X 2880 0
          /wFbZGlyZWN0ZWRfZHJ1bXNd
        >
        E 0 80 2b 00
        E 0 90 2b 60
        <X 1920 0
          /wFbZGlyZWN0ZWRfZHJ1bXNd
        >
        E 0 80 2b 00
        E 0 90 2b 60
        <X 960 0
          /wFbZGlyZWN0ZWRfZHJ1bXNfbHRd
        >
        E 0 80 2b 00
        E 0 90 2a 60
        <X 5760 0
          /wFbZGlyZWN0ZWRfZHJ1bXNfbHRd
        >
        E 0 80 2a 00
        E 0 90 2a 60
        <X 2880 0
          /wFbZGlyZWN0ZWRfZHJ1bXNfbHRd
        >
        E 0 80 2a 00
        E 0 90 2a 60
        <X 1920 0
          /wFbZGlyZWN0ZWRfZHJ1bXNfbHRd
        >
        E 0 80 2a 00
        E 0 90 2a 60
        <X 960 0
          /wFbY29vcF9hbGxfYmVoaW5kXQ==
        >
        E 0 80 2a 00
        E 0 90 64 60
        <X 1920 0
          /wFbZGlyZWN0ZWRfZHJ1bXNfa2Rd
        >
        E 0 80 64 00
        E 0 90 17 60
        <X 5760 0
          /wFbZGlyZWN0ZWRfZHJ1bXNfa2Rd
        >
        E 0 80 17 00
        E 0 90 17 60
        <X 2880 0
          /wFbZGlyZWN0ZWRfZHJ1bXNfa2Rd
        >
        E 0 80 17 00
        E 0 90 17 60
        <X 1920 0
          /wFbZGlyZWN0ZWRfZHJ1bXNfa2Rd
        >
        E 0 80 17 00
        E 0 90 17 60
        <X 960 0
          /wFbZGlyZWN0ZWRfZHJ1bXNfcG50XQ==
        >
        E 0 80 17 00
        E 0 90 15 60
        <X 5760 0
          /wFbZGlyZWN0ZWRfZHJ1bXNfcG50XQ==
        >
        E 0 80 15 00
        E 0 90 15 60
        <X 2880 0
          /wFbZGlyZWN0ZWRfZHJ1bXNfcG50XQ==
        >
        E 0 80 15 00
        E 0 90 15 60
        <X 1920 0
          /wFbZGlyZWN0ZWRfZHJ1bXNfcG50XQ==
        >
        E 0 80 15 00
        E 0 90 15 60
        <X 960 0
          /wFbZGlyZWN0ZWRfZHVvX2RydW1zXQ==
        >
        E 0 80 15 00
        E 0 90 11 60
        <X 5760 0
          /wFbZGlyZWN0ZWRfZHVvX2RydW1zXQ==
        >
        E 0 80 11 00
        E 0 90 11 60
        <X 2880 0
          /wFbZGlyZWN0ZWRfZHVvX2RydW1zXQ==
        >
        E 0 80 11 00
        E 0 90 11 60
        <X 1920 0
          /wFbZGlyZWN0ZWRfZHVvX2RydW1zXQ==
        >
        E 0 80 11 00
        E 0 90 11 60
        <X 960 0
          /wFbY29vcF9hbGxfbmVhcl0=
        >
        E 0 80 11 00
        E 0 90 62 60
        E 37440 80 62 00
        E 0 b0 7b 00
        GUID {586BF933-3F9A-4EA5-918C-F1A46BD28441}
        IGNTEMPO 0 120.00000000 4 4
        SRCCOLOR 17
        VELLANE 132 100 0
        COLORMAP "C:\Program Files\REAPER (x64)\Data\color_maps\rockband_guitarbass.png"
        CFGEDITVIEW -6768.000000 0.011867 0 12 0 0 0
        CFGEDIT 1 1 0 1 1 0 1 1 1 1 1 0.25000000 -8 -8 1928 1088 0 2 0 1 0.00000000 0 1 0 0 0.500000 0 0 1.000000 64
        KEYSNAP 0 0 "102034050607" 0 "Major"
        EVTFILTER 0 -1 -1 -1 -1 0 1 0 0 -1.00000000 -1.00000000
      >
    >
  >
  <TRACK '{CEC70E32-1942-4404-BDF5-67985E023FB1}'
    NAME "LIGHTING"
    PEAKCOL 16576
    BEAT -1
    AUTOMODE 0
    VOLPAN 1.00000000000000 0.00000000000000 -1.00000000000000 -1.00000000000000 1.00000000000000
    MUTESOLO 1 0 0
    IPHASE 0
    ISBUS 2 -1
    BUSCOMP 0 0
    SHOWINMIX 1 0.666700 0.500000 1 0.500000 -1 -1 -1
    FREEMODE 0
    SEL 0
    REC 0 0 0 0 0 0 0
    VU 2
    TRACKHEIGHT 24 0
    INQ 0 0 0 0.5000000000 100 0 0 100
    NCHAN 2
    FX 1
    TRACKID {CEC70E32-1942-4404-BDF5-67985E023FB1}
    PERF 0
    MIDIOUT -1
    <MIDINOTENAMES
      0 71 "Default"
      0 70 "Color_Muted"
      0 69 "Video_Grainy"
      0 68 "16mm Film"
      0 67 "Shitty_TV"
      0 66 "Bloom"
      0 65 "Sepia_Ink"
      0 64 "Silvertone"
      0 63 "Film_BW"
      0 62 "Video_BW"
      0 61 "Contrast BW"
      0 60 "Photocopy"
      0 59 "Blue_Filter"
      0 58 "Desat_Blue"
      0 57 "Video_Security"
      0 55 "Bright"
      0 54 "Posterize"
      0 53 "Clean_Trails"
      0 52 "Video_Trails"
      0 51 "Flicker_Trails"
      0 50 "Desat_Posterize"
      0 49 "Film_Contrast"
      0 48 "Film_Contrast_Blue"
      0 47 "Film_Contrast_Green"
      0 46 "Film_Contrast_Red"
      0 45 "Horror_Movie"
      0 44 "Photo_Negative"
      0 43 "Mirror"
      0 42 "Psych_Blue_Red"
      0 41 "Space_Woosh"
      0 39 "Verse"
      0 38 "Chorus"
      0 37 "Manual_Cool"
      0 36 "Manual_Warm"
      0 35 "Dischord"
      0 34 "Stomp"
      0 32 "first"
      0 31 "prev"
      0 30 "next"
      0 28 "Loop_Cool"
      0 27 "Loop_Warm"
      0 26 "Harmony"
      0 25 "Frenzy"
      0 24 "Silhouettes"
      0 23 "Silhouettes_Spot"
      0 22 "Searchlights"
      0 21 "Sweep"
      0 20 "Strobe_Slow"
      0 19 "Strobe_Fast"
      0 18 "Blackout_Slow"
      0 17 "Blackout_Fast"
      0 16 "Blackout_Spot"
      0 15 "Flare_Slow"
      0 14 "Flare_Fast"
      0 13 "BRE"
      0 11 "BONUSFX"
      0 10 "BONUSFX_Opt"
      0 8 "STROBE"
    >
    MAINSEND 1 0
    <FXCHAIN
      SHOW 0
      LASTSEL 0
      DOCKED 0
    >
    <ITEM
      POSITION 0.00000000000000
      SNAPOFFS 0.00000000000000
      LENGTH 147.78905973205917
      LOOP 0
      ALLTAKES 0
      SEL 0
      FADEIN 1 0.000000 0.000000 1 0
      FADEOUT 1 0.000000 0.000000 1 0
      MUTE 0
      IGUID {0B7AA05B-1569-450B-A71A-D94E9FE30D1F}
      IID 34
      NAME "LIGHTING"
      VOLPAN 1.000000 0.000000 1.000000 -1.000000
      SOFFS 0.00000000000000 0.00000000000000
      PLAYRATE 1.00000000000000 1 0.00000000000000 -1
      CHANMODE 0
      GUID {455DAB6D-1AEE-43C5-8B59-7259D527298F}
      <SOURCE MIDI
        HASDATA 1 480 QN
        POOLEDEVTS {BC719826-9529-4F6E-8CEC-A41C858E7533}
        E 135360 b0 7b 00
        GUID {8A5D4909-A511-4D9B-962D-68FFA708133A}
        IGNTEMPO 0 120.00000000 4 4
        SRCCOLOR 18
        VELLANE 132 100 0
        COLORMAP "C:\Program Files\REAPER (x64)\Data\color_maps\rockband_guitarbass.png"
        CFGEDITVIEW 0.000000 0.005053 0 14 0 0 0
        CFGEDIT 1 1 0 1 1 0 1 1 1 1 1 0.06250000 -8 -8 1928 1088 0 2 0 1 0.00000000 0 1 0 0 0.500000 0 0 1.000000 64
        KEYSNAP 0 0 "102034050607" 0 "Major"
        EVTFILTER 0 -1 -1 -1 -1 0 1 0 0 -1.00000000 -1.00000000
      >
    >
  >
  <TRACK '{30E3C110-453F-4B2E-93D8-E39BF6DBF826}'
    NAME "BEAT"
    PEAKCOL 16576
    BEAT -1
    AUTOMODE 0
    VOLPAN 1.00000000000000 0.00000000000000 -1.00000000000000 -1.00000000000000 1.00000000000000
    MUTESOLO 0 0 0
    IPHASE 0
    ISBUS 0 0
    BUSCOMP 0 0
    SHOWINMIX 1 0.666700 0.500000 1 0.500000 -1 -1 -1
    FREEMODE 0
    SEL 0
    REC 0 0 0 0 0 0 0
    VU 2
    TRACKHEIGHT 0 0
    INQ 0 0 0 0.5000000000 100 0 0 100
    NCHAN 2
    FX 1
    TRACKID {30E3C110-453F-4B2E-93D8-E39BF6DBF826}
    PERF 0
    MIDIOUT -1
    MAINSEND 1 0
    <ITEM
      POSITION 0.00000000000000
      SNAPOFFS 0.00000000000000
      LENGTH 147.78905973205840
      LOOP 0
      ALLTAKES 0
      SEL 0
      FADEIN 1 0.000000 0.000000 1 0
      FADEOUT 1 0.000000 0.000000 1 0
      MUTE 0
      IGUID {A7333E44-8CF3-4652-8902-4D15FA6A54DA}
      IID 10
      NAME "BEAT"
      VOLPAN 1.000000 0.000000 1.000000 -1.000000
      SOFFS 0.00000000000000 0.00000000000000
      PLAYRATE 1.00000000000000 1 0.00000000000000 -1
      CHANMODE 0
      GUID {EAB86C3C-F01F-46F4-BE94-DC78065B6368}
      <SOURCE MIDI
        HASDATA 1 480 QN
        POOLEDEVTS {F592197D-B2DB-4E11-A020-E476041823E4}
        E 0 96 0c 64
        E 120 86 0c 00
        E 360 96 0d 64
        E 120 86 0d 00
        E 360 96 0d 64
        E 120 86 0d 00
        E 360 96 0d 64
        E 120 86 0d 00
        E 360 96 0c 64
        E 120 86 0c 00
        E 360 96 0d 64
        E 120 86 0d 00
        E 360 96 0d 64
        E 120 86 0d 00
        E 360 96 0d 64
        E 120 86 0d 00
        E 360 96 0c 64
        E 120 86 0c 00
        E 360 96 0d 64
        E 120 86 0d 00
        E 360 96 0d 64
        E 120 86 0d 00
        E 360 96 0d 64
        E 120 86 0d 00
        E 360 96 0d 64
        E 120 86 0d 00
        E 360 96 0d 64
        E 120 86 0d 00
        E 360 96 0c 64
        E 120 86 0c 00
        E 360 96 0d 64
        E 120 86 0d 00
        E 360 96 0d 64
        E 120 86 0d 00
        E 360 96 0d 64
        E 120 86 0d 00
        E 360 96 0d 64
        E 120 86 0d 00
        E 360 96 0d 64
        E 120 86 0d 00
        E 360 96 0c 64
        E 120 86 0c 00
        E 360 96 0d 64
        E 120 86 0d 00
        E 360 96 0d 64
        E 120 86 0d 00
        E 360 96 0d 64
        E 120 86 0d 00
        E 360 96 0d 64
        E 120 86 0d 00
        E 360 96 0d 64
        E 120 86 0d 00
        E 360 96 0c 64
        E 120 86 0c 00
        E 360 96 0d 64
        E 120 86 0d 00
        E 360 96 0d 64
        E 120 86 0d 00
        E 360 96 0d 64
        E 120 86 0d 00
        E 360 96 0d 64
        E 120 86 0d 00
        E 360 96 0d 64
        E 120 86 0d 00
        E 360 96 0c 64
        E 120 86 0c 00
        E 360 96 0d 64
        E 120 86 0d 00
        E 360 96 0d 64
        E 120 86 0d 00
        E 360 96 0d 64
        E 120 86 0d 00
        E 360 96 0d 64
        E 120 86 0d 00
        E 360 96 0d 64
        E 120 86 0d 00
        E 360 96 0c 64
        E 120 86 0c 00
        E 360 96 0d 64
        E 120 86 0d 00
        E 360 96 0d 64
        E 120 86 0d 00
        E 360 96 0d 64
        E 120 86 0d 00
        E 360 96 0d 64
        E 120 86 0d 00
        E 360 96 0d 64
        E 120 86 0d 00
        E 360 96 0c 64
        E 120 86 0c 00
        E 360 96 0d 64
        E 120 86 0d 00
        E 360 96 0d 64
        E 120 86 0d 00
        E 360 96 0d 64
        E 120 86 0d 00
        E 360 96 0d 64
        E 120 86 0d 00
        E 360 96 0d 64
        E 120 86 0d 00
        E 360 96 0c 64
        E 120 86 0c 00
        E 360 96 0d 64
        E 120 86 0d 00
        E 360 96 0d 64
        E 120 86 0d 00
        E 360 96 0d 64
        E 120 86 0d 00
        E 360 96 0d 64
        E 120 86 0d 00
        E 360 96 0d 64
        E 120 86 0d 00
        E 360 96 0c 64
        E 120 86 0c 00
        E 360 96 0d 64
        E 120 86 0d 00
        E 360 96 0d 64
        E 120 86 0d 00
        E 360 96 0d 64
        E 120 86 0d 00
        E 360 96 0d 64
        E 120 86 0d 00
        E 360 96 0d 64
        E 120 86 0d 00
        E 360 96 0c 64
        E 120 86 0c 00
        E 360 96 0d 64
        E 120 86 0d 00
        E 360 96 0d 64
        E 120 86 0d 00
        E 360 96 0d 64
        E 120 86 0d 00
        E 360 96 0d 64
        E 120 86 0d 00
        E 360 96 0d 64
        E 120 86 0d 00
        E 360 96 0c 64
        E 120 86 0c 00
        E 360 96 0d 64
        E 120 86 0d 00
        E 360 96 0d 64
        E 120 86 0d 00
        E 360 96 0d 64
        E 120 86 0d 00
        E 360 96 0d 64
        E 120 86 0d 00
        E 360 96 0d 64
        E 120 86 0d 00
        E 360 96 0c 64
        E 120 86 0c 00
        E 360 96 0d 64
        E 120 86 0d 00
        E 360 96 0d 64
        E 120 86 0d 00
        E 360 96 0d 64
        E 120 86 0d 00
        E 360 96 0d 64
        E 120 86 0d 00
        E 360 96 0d 64
        E 120 86 0d 00
        E 360 96 0c 64
        E 120 86 0c 00
        E 360 96 0d 64
        E 120 86 0d 00
        E 360 96 0d 64
        E 120 86 0d 00
        E 360 96 0d 64
        E 120 86 0d 00
        E 360 96 0d 64
        E 120 86 0d 00
        E 360 96 0d 64
        E 120 86 0d 00
        E 360 96 0c 64
        E 120 86 0c 00
        E 360 96 0d 64
        E 120 86 0d 00
        E 360 96 0d 64
        E 120 86 0d 00
        E 360 96 0d 64
        E 120 86 0d 00
        E 360 96 0d 64
        E 120 86 0d 00
        E 360 96 0d 64
        E 120 86 0d 00
        E 360 96 0c 64
        E 120 86 0c 00
        E 360 96 0d 64
        E 120 86 0d 00
        E 360 96 0d 64
        E 120 86 0d 00
        E 360 96 0d 64
        E 120 86 0d 00
        E 360 96 0d 64
        E 120 86 0d 00
        E 360 96 0d 64
        E 120 86 0d 00
        E 360 96 0c 64
        E 120 86 0c 00
        E 360 96 0d 64
        E 120 86 0d 00
        E 360 96 0d 64
        E 120 86 0d 00
        E 360 96 0d 64
        E 120 86 0d 00
        E 360 96 0d 64
        E 120 86 0d 00
        E 360 96 0d 64
        E 120 86 0d 00
        E 360 96 0c 64
        E 120 86 0c 00
        E 360 96 0d 64
        E 120 86 0d 00
        E 360 96 0d 64
        E 120 86 0d 00
        E 360 96 0c 64
        E 120 86 0c 00
        E 360 96 0d 64
        E 120 86 0d 00
        E 360 96 0d 64
        E 120 86 0d 00
        E 360 96 0c 64
        E 120 86 0c 00
        E 360 96 0d 64
        E 120 86 0d 00
        E 360 96 0d 64
        E 120 86 0d 00
        E 360 96 0c 64
        E 120 86 0c 00
        E 360 96 0d 64
        E 120 86 0d 00
        E 360 96 0d 64
        E 120 86 0d 00
        E 360 96 0c 64
        E 120 86 0c 00
        E 360 96 0d 64
        E 120 86 0d 00
        E 360 96 0d 64
        E 120 86 0d 00
        E 360 96 0c 64
        E 120 86 0c 00
        E 360 96 0d 64
        E 120 86 0d 00
        E 360 96 0d 64
        E 120 86 0d 00
        E 360 96 0c 64
        E 120 86 0c 00
        E 360 96 0d 64
        E 120 86 0d 00
        E 360 96 0d 64
        E 120 86 0d 00
        E 360 96 0c 64
        E 120 86 0c 00
        E 360 96 0d 64
        E 120 86 0d 00
        E 360 96 0d 64
        E 120 86 0d 00
        E 360 96 0c 64
        E 120 86 0c 00
        E 360 96 0d 64
        E 120 86 0d 00
        E 360 96 0d 64
        E 120 86 0d 00
        E 360 96 0d 64
        E 120 86 0d 00
        E 360 96 0c 64
        E 120 86 0c 00
        E 360 96 0d 64
        E 120 86 0d 00
        E 360 96 0d 64
        E 120 86 0d 00
        E 360 96 0d 64
        E 120 86 0d 00
        E 360 96 0d 64
        E 120 86 0d 00
        E 360 96 0d 64
        E 120 86 0d 00
        E 360 96 0c 64
        E 120 86 0c 00
        E 360 96 0d 64
        E 120 86 0d 00
        E 360 96 0d 64
        E 120 86 0d 00
        E 360 96 0d 64
        E 120 86 0d 00
        E 360 96 0d 64
        E 120 86 0d 00
        E 360 96 0d 64
        E 120 86 0d 00
        E 360 96 0c 64
        E 120 86 0c 00
        E 360 96 0d 64
        E 120 86 0d 00
        E 360 96 0d 64
        E 120 86 0d 00
        E 360 96 0d 64
        E 120 86 0d 00
        E 360 96 0d 64
        E 120 86 0d 00
        E 360 96 0d 64
        E 120 86 0d 00
        E 360 96 0c 64
        E 120 86 0c 00
        E 360 96 0d 64
        E 120 86 0d 00
        E 360 96 0d 64
        E 120 86 0d 00
        E 360 96 0d 64
        E 120 86 0d 00
        E 360 96 0d 64
        E 120 86 0d 00
        E 360 96 0d 64
        E 120 86 0d 00
        E 360 96 0c 64
        E 120 86 0c 00
        E 360 96 0d 64
        E 120 86 0d 00
        E 360 96 0d 64
        E 120 86 0d 00
        E 360 96 0d 64
        E 120 86 0d 00
        E 360 96 0d 64
        E 120 86 0d 00
        E 360 96 0d 64
        E 120 86 0d 00
        E 360 96 0c 64
        E 120 86 0c 00
        E 360 96 0d 64
        E 120 86 0d 00
        E 360 96 0d 64
        E 120 86 0d 00
        E 360 96 0d 64
        E 120 86 0d 00
        E 360 96 0d 64
        E 120 86 0d 00
        E 360 96 0d 64
        E 120 86 0d 00
        E 360 96 0c 64
        E 120 86 0c 00
        E 360 96 0d 64
        E 120 86 0d 00
        E 360 96 0d 64
        E 120 86 0d 00
        E 360 96 0d 64
        E 120 86 0d 00
        E 360 96 0c 64
        E 120 86 0c 00
        E 360 96 0d 64
        E 120 86 0d 00
        E 360 96 0d 64
        E 120 86 0d 00
        E 360 96 0d 64
        E 120 86 0d 00
        E 360 96 0c 64
        E 120 86 0c 00
        E 360 96 0d 64
        E 120 86 0d 00
        E 360 96 0c 64
        E 120 86 0c 00
        E 360 96 0d 64
        E 120 86 0d 00
        E 360 96 0d 64
        E 120 86 0d 00
        E 360 96 0d 64
        E 120 86 0d 00
        E 360 96 0c 64
        E 120 86 0c 00
        E 360 96 0d 64
        E 120 86 0d 00
        E 360 96 0d 64
        E 120 86 0d 00
        E 360 96 0d 64
        E 120 86 0d 00
        E 360 96 0d 64
        E 120 86 0d 00
        E 360 96 0d 64
        E 120 86 0d 00
        E 360 96 0c 64
        E 120 86 0c 00
        E 360 96 0d 64
        E 120 86 0d 00
        E 360 96 0d 64
        E 120 86 0d 00
        E 360 96 0d 64
        E 120 86 0d 00
        E 360 96 0d 64
        E 120 86 0d 00
        E 360 96 0d 64
        E 120 86 0d 00
        E 360 96 0c 64
        E 120 86 0c 00
        E 360 96 0d 64
        E 120 86 0d 00
        E 360 96 0d 64
        E 120 86 0d 00
        E 360 96 0d 64
        E 120 86 0d 00
        E 360 96 0d 64
        E 120 86 0d 00
        E 360 96 0d 64
        E 120 86 0d 00
        E 360 96 0c 64
        E 120 86 0c 00
        E 360 96 0d 64
        E 120 86 0d 00
        E 360 96 0d 64
        E 120 86 0d 00
        E 360 96 0d 64
        E 120 86 0d 00
        E 360 96 0d 64
        E 120 86 0d 00
        E 360 96 0d 64
        E 120 86 0d 00
        E 360 96 0c 64
        E 120 86 0c 00
        E 360 96 0d 64
        E 120 86 0d 00
        E 360 96 0d 64
        E 120 86 0d 00
        E 360 96 0d 64
        E 120 86 0d 00
        E 360 96 0d 64
        E 120 86 0d 00
        E 360 96 0d 64
        E 120 86 0d 00
        E 360 96 0c 64
        E 120 86 0c 00
        E 360 96 0d 64
        E 120 86 0d 00
        E 360 96 0d 64
        E 120 86 0d 00
        E 360 96 0d 64
        E 120 86 0d 00
        E 360 96 0d 64
        E 120 86 0d 00
        E 360 96 0d 64
        E 120 86 0d 00
        E 360 96 0c 64
        E 120 86 0c 00
        E 360 96 0d 64
        E 120 86 0d 00
        E 360 96 0d 64
        E 120 86 0d 00
        E 360 96 0d 64
        E 120 86 0d 00
        E 360 96 0d 64
        E 120 86 0d 00
        E 360 96 0d 64
        E 120 86 0d 00
        E 360 96 0c 64
        E 120 86 0c 00
        E 360 96 0d 64
        E 120 86 0d 00
        E 360 96 0d 64
        E 120 86 0d 00
        E 360 96 0d 64
        E 120 86 0d 00
        E 360 96 0d 64
        E 120 86 0d 00
        E 360 96 0d 64
        E 120 86 0d 00
        E 360 96 0c 64
        E 120 86 0c 00
        E 360 96 0d 64
        E 120 86 0d 00
        E 360 96 0d 64
        E 120 86 0d 00
        E 360 96 0d 64
        E 120 86 0d 00
        E 360 96 0d 64
        E 120 86 0d 00
        E 360 96 0d 64
        E 120 86 0d 00
        E 360 96 0c 64
        E 120 86 0c 00
        E 360 96 0d 64
        E 120 86 0d 00
        E 360 96 0d 64
        E 120 86 0d 00
        E 360 96 0d 64
        E 120 86 0d 00
        E 360 96 0d 64
        E 120 86 0d 00
        E 360 96 0d 64
        E 120 86 0d 00
        E 360 96 0c 64
        E 120 86 0c 00
        E 360 96 0d 64
        E 120 86 0d 00
        E 360 96 0d 64
        E 120 86 0d 00
        E 360 96 0d 64
        E 120 86 0d 00
        E 360 96 0d 64
        E 120 86 0d 00
        E 360 96 0d 64
        E 120 86 0d 00
        E 360 96 0c 64
        E 120 86 0c 00
        E 360 96 0d 64
        E 120 86 0d 00
        E 360 96 0d 64
        E 120 86 0d 00
        E 360 96 0d 64
        E 120 86 0d 00
        E 360 96 0c 64
        E 120 86 0c 00
        E 360 96 0d 64
        E 120 86 0d 00
        E 360 96 0d 64
        E 120 86 0d 00
        E 360 96 0c 64
        E 120 86 0c 00
        E 360 96 0d 64
        E 120 86 0d 00
        E 360 96 0d 64
        E 120 86 0d 00
        E 360 96 0c 64
        E 120 86 0c 00
        E 360 96 0d 64
        E 120 86 0d 00
        E 360 96 0d 64
        E 120 86 0d 00
        E 360 96 0c 64
        E 120 86 0c 00
        E 360 96 0d 64
        E 120 86 0d 00
        E 360 96 0d 64
        E 120 86 0d 00
        E 360 96 0c 64
        E 120 86 0c 00
        E 360 96 0d 64
        E 120 86 0d 00
        E 360 96 0d 64
        E 120 86 0d 00
        E 360 96 0c 64
        E 120 86 0c 00
        E 360 96 0d 64
        E 120 86 0d 00
        E 360 96 0d 64
        E 120 86 0d 00
        E 360 96 0c 64
        E 120 86 0c 00
        E 360 96 0d 64
        E 120 86 0d 00
        E 360 96 0d 64
        E 120 86 0d 00
        E 360 96 0c 64
        E 120 86 0c 00
        E 360 96 0d 64
        E 120 86 0d 00
        E 360 96 0d 64
        E 120 86 0d 00
        E 360 96 0c 64
        E 120 86 0c 00
        E 360 96 0d 64
        E 120 86 0d 00
        E 360 96 0d 64
        E 120 86 0d 00
        E 360 96 0c 64
        E 120 86 0c 00
        E 360 96 0d 64
        E 120 86 0d 00
        E 360 96 0d 64
        E 120 86 0d 00
        E 360 b0 7b 00
        GUID {DCD6ABAF-0041-45B3-BC41-DE52E64ED14C}
        IGNTEMPO 0 120.00000000 4 4
        SRCCOLOR 3
        VELLANE 132 100 0
        COLORMAP "C:\Program Files\REAPER (x64)\Data\color_maps\rockband_guitarbass.png"
        CFGEDITVIEW -337.848716 0.118106 60 12 0 0 0
        CFGEDIT 1 1 0 1 1 0 1 1 1 1 1 0.25000000 -8 -8 1928 1088 0 0 0 2 0.00000000 0 1 1 0 0.500000 0 0 1.000000 64
        KEYSNAP 0 9 "102034050607" 0 "Major"
        EVTFILTER 0 -1 -1 -1 -1 0 1 0 0 -1.00000000 -1.00000000
      >
    >
  >
  <TRACK '{1047F3B4-014A-4A52-8388-0C965CA74126}'
    NAME "backing"
    PEAKCOL 16576
    BEAT -1
    AUTOMODE 0
    VOLPAN 1.00000000000000 0.00000000000000 -1.00000000000000 -1.00000000000000 1.00000000000000
    MUTESOLO 0 0 0
    IPHASE 0
    ISBUS 0 0
    BUSCOMP 0 0
    SHOWINMIX 1 0.666700 0.500000 1 0.500000 -1 -1 -1
    FREEMODE 0
    SEL 0
    REC 0 0 0 0 0 0 0
    VU 2
    TRACKHEIGHT 0 0
    INQ 0 0 0 0.5000000000 100 0 0 100
    NCHAN 2
    FX 0
    TRACKID {1047F3B4-014A-4A52-8388-0C965CA74126}
    PERF 0
    MIDIOUT -1
    MAINSEND 1 0
    <FXCHAIN
      WNDRECT 0 43 718 767
      SHOW 0
      LASTSEL 0
      DOCKED 0
      BYPASS 0 0
      <VST "VST: RX 8 De-reverb (iZotope, Inc.)" "RX 8 De-reverb.dll" 0 ""
        MFY4cu5e7f4CAAAAAQAAAAAAAAACAAAAAAAAAAIAAAABAAAAAAAAAA==
        AgAAAAAAAADFAQAAAQAAAAAAEAC2AQAAaak2AAMAAACqAQAA6g4AAA==
        eJzNl1FvwiAQx9/7KUifl8Vq5ube5nRmyWbM6vT5qsyyUDBAlxnT7w==
        PttptEqVam3aF9oD7n4U+HMsLYSQ/cyZwr8KuQoUttEjWsbmuGa4mA==
        Jwa7QyaKcAZiYd9sKkdAw1Tz2DgAAYHcs55ydeAw2lZsXpMySnrYHQ==
        d1AIbOynS3GAmboYOWVPnGOBf7DwtLVm7k8G2QuFngIeMoXawKaodg==
        pEcq/AvloLSR9+M7NX2jKKOzHsypKli9qmCNKoF1GXj02HJMEbU5pw==
        RkBKhPgypFXhA5sk27lwvC+g8my+NwyCETarFtUHlmQaAq0Wlcspzw==
        KWBlgxkLWNlgxgJWNpixgJUDNgRCV5uSzZRfvLI2bp1W/DzUWvXmnQ==
        02jen43pCyx9Tqeoz4k0ltwyDoGxh3qgckiaOVQrJ9M6gUN9CIx/kQ==
        q0TMboKzzeNyciWZMBphIVe5nSnY5yszXGUZNBrzge0Q2e5R7mWfBA==
        Baaq156t9UByztV/L9RezEFqbgJ6rKtq1XVXT9a+N1o9VsaX7qb2Dg==
        31zohpEBvaNNu14Iu8iLFVl/SfLoUQcAAABEZWZhdWx0AERlZmF1bA==
        dAAQAAAA
      >
      FLOATPOS 0 0 0 0
      FXID {4CF243B9-2611-4B0A-B239-589A8FAC92F1}
      WAK 0
    >
    <ITEM
      POSITION 0.00000000000000
      SNAPOFFS 0.00000000000000
      LENGTH 147.78907029478458
      LOOP 0
      ALLTAKES 0
      SEL 0
      FADEIN 1 0.000000 0.000000 1 0
      FADEOUT 1 0.000000 0.000000 1 0
      MUTE 0
      IGUID {DC9B767C-53E6-4043-B35A-5BC955B2FE6A}
      IID 37
      NAME "backing.wav"
      VOLPAN 1.000000 0.000000 1.000000 -1.000000
      SOFFS 0.00000000000000
      PLAYRATE 1.00000000000000 1 0.00000000000000 -1
      CHANMODE 0
      GUID {753F91DA-A52A-4C92-BF8A-00FB6AE57A1A}
      <SOURCE WAVE
        FILE "wav\backing.wav"
      >
    >
  >
  <EXTENSIONS
  >
>
