<REAPER_PROJECT 0.1 "4.22/x64"
  RIPPLE 0
  GROUPOVERRIDE 0 0 0
  AUTOXFADE 1
  ENVATTACH 1
  MIXERUIFLAGS 11 48
  PEAKGAIN 1.00000000000000
  FEEDBACK 0
  PANLAW 1.00000000000000
  PROJOFFS 0.00000000000000 0
  MAXPROJLEN 0 600.00000000000000
  GRID 3199 8 0.25000000000000 8 1.00000000000000 0
  TIMEMODE 1 0 -1
  CURSOR 0.00000000000000
  ZOOM 4.57890148175664 0 0
  VZOOMEX 4
  USE_REC_CFG 0
  RECMODE 1
  SMPTESYNC 0 23.976024 100 40 1000 300 0 0.000000 1
  LOOP 1
  LOOPGRAN 0 4.00000000000000
  RECORD_PATH "" ""
  <RECORD_CFG
    ZXZhdxAD
  >
  <APPLYFX_CFG
  >
  RENDER_FILE "C:\Users\Ruggery\Desktop\backing.wav"
  RENDER_FMT 0 2 44100
  RENDER_1X 0
  RENDER_RANGE 2 0.00000000000000 0.00000000000000
  RENDER_RESAMPLE 3 0 1
  RENDER_ADDTOPROJ 0
  RENDER_STEMS 0
  RENDER_DITHER 0
  TIMELOCKMODE 0
  ITEMMIX 0
  DEFPITCHMODE 393216
  TAKELANE 0
  SAMPLERATE 44100 0 0
  <RENDER_CFG
    ZXZhdxAD
  >
  LOCK 1
  <METRONOME 6 2.000000
    VOL 0.250000 0.125000
    FREQ 800 1600 1
    BEATLEN 4
    SAMPLES "" ""
  >
  GLOBAL_AUTO -1
  TEMPO 120.00000000000000 4 4
  PLAYRATE 1.00000000000000 0 0.25000 4.00000
  SELECTION 212.53693832905063 0.00000000000000
  SELECTION2 212.53693832905063 0.00000000000000
  MASTERAUTOMODE 0
  MASTERTRACKHEIGHT 0
  MASTERPEAKCOL 16576
  MASTERMUTESOLO 0
  MASTERTRACKVIEW 1 0.666700 0.500000 0.500000 -1 -1 -1
  MASTERHWOUT 0 0 1.00000000000000 0.00000000000000 0 0 0 -1.00000000000000
  MASTER_NCH 2 2
  MASTER_VOLUME 1.00000000000000 0.00000000000000 -1.00000000000000 -1.00000000000000 1.00000000000000
  MASTER_FX 1
  MASTER_SEL 0
  <MASTERPLAYSPEEDENV
    ACT 0
    VIS 0 1 1.000000
    LANEHEIGHT 0 0
    ARM 0
    DEFSHAPE 0 -1 -1
  >
  <TEMPOENVEX
    ACT 1
    VIS 1 0 1.000000
    LANEHEIGHT 0 0
    ARM 0
    DEFSHAPE 1 -1 -1
    PT 0.000000000000 96.0000000000 1 262148 0 1
    PT 135.000000000000 95.2000000000 1
    PT 140.672268907563 96.0000000000 1
    PT 143.797268907563 96.8000000000 1 0 1
    PT 145.036938329051 96.0000000000 1
  >
  <PROJBAY
  >
  <TRACK '{1E906EBD-C09C-455F-9F7B-B73761D2A6FB}'
    NAME "PART DRUMS"
    PEAKCOL 16576
    BEAT -1
    AUTOMODE 0
    VOLPAN 1.00000000000000 0.00000000000000 -1.00000000000000 -1.00000000000000 1.00000000000000
    MUTESOLO 0 0 0
    IPHASE 0
    ISBUS 1 1
    BUSCOMP 0 0
    SHOWINMIX 1 0.666700 0.500000 1 0.500000 -1 -1 -1
    FREEMODE 0
    SEL 0
    REC 0 0 0 0 0 0 0
    VU 2
    TRACKHEIGHT 0 0
    INQ 0 0 0 0.5000000000 100 0 0 100
    NCHAN 2
    FX 1
    TRACKID {1E906EBD-C09C-455F-9F7B-B73761D2A6FB}
    PERF 0
    MIDIOUT -1
    <MIDINOTENAMES
      0 127 "CYMBAL SWELLS"
      0 126 "DRUM ROLL"
      0 125 "---"
      0 124 "DRUM FILL"
      0 123 "DRUM FILL"
      0 122 "DRUM FILL"
      0 121 "DRUM FILL"
      0 120 "DRUM FILL (use all 5)"
      0 118 "----"
      0 116 "OVERDRIVE"
      0 114 "----"
      0 112 "TOM GEMS PAD 4"
      0 111 "TOM GEMS PAD 3"
      0 110 "TOM GEMS PAD 2"
      0 103 "Solo Marker"
      0 102 "----"
      0 100 "EXPERT Green"
      0 99 "EXPERT Blue"
      0 98 "EXPERT Yellow"
      0 97 "EXPERT Red"
      0 96 "EXPERT Kick"
      0 92 "----"
      0 88 "HARD Green"
      0 87 "HARD Blue"
      0 86 "HARD Yellow"
      0 85 "HARD Red"
      0 84 "HARD Kick"
      0 80 "----"
      0 76 "MEDIUM Green"
      0 75 "MEDIUM Blue"
      0 74 "MEDIUM Yellow"
      0 73 "MEDIUM Red"
      0 72 "MEDIUM Kick"
      0 68 "----"
      0 64 "EASY Green"
      0 63 "EASY Blue"
      0 62 "EASY Yellow"
      0 61 "EASY Red"
      0 60 "EASY Kick"
      0 56 "----"
      0 52 "-- DRUM ANIMATION --"
      0 51 "FLOOR TOM RH"
      0 50 "FLOOR TOM LH"
      0 49 "TOM2 RH"
      0 48 "TOM2 LH"
      0 47 "TOM1 RH"
      0 46 "TOM1 LH"
      0 45 "SOFT CRASH 2 LH"
      0 44 "CRASH 2 LH"
      0 43 "RIDE LH"
      0 42 "RIDE CYM RH"
      0 41 "CRASH2 CHOKE"
      0 40 "CRASH1 CHOKE"
      0 39 "CRASH2 SOFT RH"
      0 38 "CRASH2 HARD RH"
      0 37 "CRASH1 SOFT RH"
      0 36 "CRASH1 HARD RH"
      0 35 "CRASH1 SOFT LH"
      0 34 "CRASH1 HARD LH"
      0 32 "PERCUSSION RH"
      0 31 "HI-HAT RH"
      0 30 "HI-HAT LH"
      0 29 "SOFT SNARE RH"
      0 28 "SOFT SNARE LH"
      0 27 "SNARE RH"
      0 26 "SNARE LH"
      0 25 "HI-HAT OPEN"
      0 24 "KICK RF"
    >
    MAINSEND 1 0
    <FXCHAIN
      WNDRECT 501 219 878 560
      SHOW 0
      LASTSEL 0
      DOCKED 0
      BYPASS 0 0
      <VST "VSTi: RBN Preview (RBN)" "rbprev_vst64.dll" 0 ""
        dnBicu5e7f4AAAAAAgAAAAEAAAAAAAAAAgAAAAAAAAAEAAAAAQAAAA==
        AAAQAAMBqgAAABAAAAA=
      >
      FLOATPOS 0 0 0 0
      FXID {3AD1A6EF-80AE-40AE-9509-F7C449523658}
      WAK 0
    >
    <ITEM
      POSITION 0.00000000000000
      SNAPOFFS 0.00000000000000
      LENGTH 212.53693832905063
      LOOP 0
      ALLTAKES 0
      SEL 0
      FADEIN 1 0.000000 0.000000 1 0
      FADEOUT 1 0.000000 0.000000 1 0
      MUTE 0
      IGUID {513FCE57-A71C-4D5C-86D7-C8A69693F9EA}
      IID 7
      NAME "PART DRUMS"
      VOLPAN 1.000000 0.000000 1.000000 -1.000000
      SOFFS 0.00000000000000 0.00000000000000
      PLAYRATE 1.00000000000000 1 0.00000000000000 -1
      CHANMODE 0
      GUID {B1CD820E-7B16-45F3-8573-D31C67727F4D}
      <SOURCE MIDI
        HASDATA 1 480 QN
        POOLEDEVTS {308B5261-03F4-4033-8E3C-86D11689AA01}
        <X 0 0
          /wNQQVJUIERSVU1T
        >
        E 0 90 19 60
        <X 240 0
          /wFbbWl4IDEgZHJ1bXMwXQ==
        >
        <X 0 0
          /wFbbWl4IDAgZHJ1bXMwXQ==
        >
        <X 120 0
          /wFbbWl4IDIgZHJ1bXMwXQ==
        >
        <X 120 0
          /wFbbWl4IDMgZHJ1bXMwXQ==
        >
        E 960 80 19 00
        E 240 90 19 60
        <X 1920 0
          /wFbcGxheV0=
        >
        E 240 90 18 60
        E 0 90 26 60
        E 0 90 40 60
        E 0 90 48 60
        E 0 90 4c 60
        E 0 90 54 60
        E 0 90 58 60
        E 0 90 60 60
        E 0 90 64 60
        E 80 80 18 00
        E 0 80 26 00
        E 0 80 40 00
        E 0 80 48 00
        E 0 80 4c 00
        E 0 80 54 00
        E 0 80 58 00
        E 0 80 60 00
        E 0 80 64 00
        E 160 90 18 60
        E 0 90 1f 60
        E 0 90 54 60
        E 0 90 56 60
        E 0 90 60 60
        E 0 90 62 60
        E 80 80 18 00
        E 0 80 1f 00
        E 0 80 54 00
        E 0 80 56 00
        E 0 80 60 00
        E 0 80 62 00
        E 160 90 1a 60
        E 0 90 1f 60
        E 0 90 3d 60
        E 0 90 3e 60
        E 0 90 49 60
        E 0 90 4a 60
        E 0 90 55 60
        E 0 90 56 60
        E 0 90 61 60
        E 0 90 62 60
        E 80 80 1a 00
        E 0 80 1f 00
        E 0 80 3d 00
        E 0 80 3e 00
        E 0 80 49 00
        E 0 80 4a 00
        E 0 80 55 00
        E 0 80 56 00
        E 0 80 61 00
        E 0 80 62 00
        E 160 90 1f 60
        E 0 90 56 60
        E 0 90 62 60
        E 80 80 1f 00
        E 0 80 56 00
        E 0 80 62 00
        E 80 90 18 60
        E 0 90 60 60
        E 80 80 18 00
        E 0 80 60 00
        E 0 90 1f 60
        E 0 90 3e 60
        E 0 90 4a 60
        E 0 90 56 60
        E 0 90 62 60
        E 80 80 1f 00
        E 0 80 3e 00
        E 0 80 4a 00
        E 0 80 56 00
        E 0 80 62 00
        E 160 90 18 60
        E 0 90 1f 60
        E 0 90 54 60
        E 0 90 56 60
        E 0 90 60 60
        E 0 90 62 60
        E 80 80 18 00
        E 0 80 1f 00
        E 0 80 54 00
        E 0 80 56 00
        E 0 80 60 00
        E 0 80 62 00
        E 160 90 1a 60
        E 0 90 1f 60
        E 0 90 3d 60
        E 0 90 3e 60
        E 0 90 49 60
        E 0 90 4a 60
        E 0 90 55 60
        E 0 90 56 60
        E 0 90 61 60
        E 0 90 62 60
        E 80 80 1a 00
        E 0 80 1f 00
        E 0 80 3d 00
        E 0 80 3e 00
        E 0 80 49 00
        E 0 80 4a 00
        E 0 80 55 00
        E 0 80 56 00
        E 0 80 61 00
        E 0 80 62 00
        E 160 90 1f 60
        E 0 90 56 60
        E 0 90 62 60
        E 80 80 1f 00
        E 0 80 56 00
        E 0 80 62 00
        E 160 90 18 60
        E 0 90 1f 60
        E 0 90 3e 60
        E 0 90 48 60
        E 0 90 4a 60
        E 0 90 54 60
        E 0 90 56 60
        E 0 90 60 60
        E 0 90 62 60
        E 80 80 18 00
        E 0 80 1f 00
        E 0 80 3e 00
        E 0 80 48 00
        E 0 80 4a 00
        E 0 80 54 00
        E 0 80 56 00
        E 0 80 60 00
        E 0 80 62 00
        E 160 90 18 60
        E 0 90 1f 60
        E 0 90 54 60
        E 0 90 56 60
        E 0 90 60 60
        E 0 90 62 60
        E 80 80 18 00
        E 0 80 1f 00
        E 0 80 54 00
        E 0 80 56 00
        E 0 80 60 00
        E 0 80 62 00
        E 160 90 1a 60
        E 0 90 1f 60
        E 0 90 3d 60
        E 0 90 3e 60
        E 0 90 49 60
        E 0 90 4a 60
        E 0 90 55 60
        E 0 90 56 60
        E 0 90 61 60
        E 0 90 62 60
        E 80 80 1a 00
        E 0 80 1f 00
        E 0 80 3d 00
        E 0 80 3e 00
        E 0 80 49 00
        E 0 80 4a 00
        E 0 80 55 00
        E 0 80 56 00
        E 0 80 61 00
        E 0 80 62 00
        E 160 90 1f 60
        E 0 90 56 60
        E 0 90 62 60
        E 80 80 1f 00
        E 0 80 56 00
        E 0 80 62 00
        E 80 90 18 60
        E 0 90 60 60
        E 80 80 18 00
        E 0 80 60 00
        E 0 90 1f 60
        E 0 90 3e 60
        E 0 90 4a 60
        E 0 90 56 60
        E 0 90 62 60
        E 0 90 78 60
        E 0 90 79 60
        E 0 90 7a 60
        E 0 90 7b 60
        E 0 90 7c 60
        E 80 80 1f 00
        E 0 80 3e 00
        E 0 80 4a 00
        E 0 80 56 00
        E 0 80 62 00
        E 160 90 18 60
        E 0 90 1f 60
        E 0 90 54 60
        E 0 90 56 60
        E 0 90 60 60
        E 0 90 62 60
        E 80 80 18 00
        E 0 80 1f 00
        E 0 80 54 00
        E 0 80 56 00
        E 0 80 60 00
        E 0 80 62 00
        E 160 90 1a 60
        E 0 90 1f 60
        E 0 90 3d 60
        E 0 90 3e 60
        E 0 90 49 60
        E 0 90 4a 60
        E 0 90 55 60
        E 0 90 56 60
        E 0 90 61 60
        E 0 90 62 60
        E 80 80 1a 00
        E 0 80 1f 00
        E 0 80 3d 00
        E 0 80 3e 00
        E 0 80 49 00
        E 0 80 4a 00
        E 0 80 55 00
        E 0 80 56 00
        E 0 80 61 00
        E 0 80 62 00
        E 160 90 1f 60
        E 0 90 56 60
        E 0 90 62 60
        E 80 80 1f 00
        E 0 80 56 00
        E 0 80 62 00
        E 160 80 78 00
        E 0 80 79 00
        E 0 80 7a 00
        E 0 80 7b 00
        E 0 80 7c 00
        E 0 90 18 60
        E 0 90 1f 60
        E 0 90 3e 60
        E 0 90 48 60
        E 0 90 4a 60
        E 0 90 54 60
        E 0 90 56 60
        E 0 90 60 60
        E 0 90 62 60
        E 80 80 18 00
        E 0 80 1f 00
        E 0 80 3e 00
        E 0 80 48 00
        E 0 80 4a 00
        E 0 80 54 00
        E 0 80 56 00
        E 0 80 60 00
        E 0 80 62 00
        E 160 90 18 60
        E 0 90 1f 60
        E 0 90 54 60
        E 0 90 56 60
        E 0 90 60 60
        E 0 90 62 60
        E 80 80 18 00
        E 0 80 1f 00
        E 0 80 54 00
        E 0 80 56 00
        E 0 80 60 00
        E 0 80 62 00
        E 160 90 1a 60
        E 0 90 1f 60
        E 0 90 3d 60
        E 0 90 3e 60
        E 0 90 49 60
        E 0 90 4a 60
        E 0 90 55 60
        E 0 90 56 60
        E 0 90 61 60
        E 0 90 62 60
        E 80 80 1a 00
        E 0 80 1f 00
        E 0 80 3d 00
        E 0 80 3e 00
        E 0 80 49 00
        E 0 80 4a 00
        E 0 80 55 00
        E 0 80 56 00
        E 0 80 61 00
        E 0 80 62 00
        E 160 90 1f 60
        E 0 90 56 60
        E 0 90 62 60
        E 80 80 1f 00
        E 0 80 56 00
        E 0 80 62 00
        E 80 90 18 60
        E 0 90 60 60
        E 80 80 18 00
        E 0 80 60 00
        E 0 90 1f 60
        E 0 90 3e 60
        E 0 90 4a 60
        E 0 90 56 60
        E 0 90 62 60
        E 80 80 1f 00
        E 0 80 3e 00
        E 0 80 4a 00
        E 0 80 56 00
        E 0 80 62 00
        E 160 90 18 60
        E 0 90 1f 60
        E 0 90 54 60
        E 0 90 56 60
        E 0 90 60 60
        E 0 90 62 60
        E 80 80 18 00
        E 0 80 1f 00
        E 0 80 54 00
        E 0 80 56 00
        E 0 80 60 00
        E 0 80 62 00
        E 160 90 1a 60
        E 0 90 1f 60
        E 0 90 3d 60
        E 0 90 3e 60
        E 0 90 49 60
        E 0 90 4a 60
        E 0 90 55 60
        E 0 90 56 60
        E 0 90 61 60
        E 0 90 62 60
        E 80 80 1a 00
        E 0 80 1f 00
        E 0 80 3d 00
        E 0 80 3e 00
        E 0 80 49 00
        E 0 80 4a 00
        E 0 80 55 00
        E 0 80 56 00
        E 0 80 61 00
        E 0 80 62 00
        E 160 90 1f 60
        E 0 90 56 60
        E 0 90 62 60
        E 80 80 1f 00
        E 0 80 56 00
        E 0 80 62 00
        E 160 90 18 60
        E 0 90 1f 60
        E 0 90 3e 60
        E 0 90 48 60
        E 0 90 4a 60
        E 0 90 54 60
        E 0 90 56 60
        E 0 90 60 60
        E 0 90 62 60
        E 80 80 18 00
        E 0 80 1f 00
        E 0 80 3e 00
        E 0 80 48 00
        E 0 80 4a 00
        E 0 80 54 00
        E 0 80 56 00
        E 0 80 60 00
        E 0 80 62 00
        E 160 90 18 60
        E 0 90 1f 60
        E 0 90 54 60
        E 0 90 56 60
        E 0 90 60 60
        E 0 90 62 60
        E 80 80 18 00
        E 0 80 1f 00
        E 0 80 54 00
        E 0 80 56 00
        E 0 80 60 00
        E 0 80 62 00
        E 160 90 1a 60
        E 0 90 1f 60
        E 0 90 3d 60
        E 0 90 3e 60
        E 0 90 49 60
        E 0 90 4a 60
        E 0 90 55 60
        E 0 90 56 60
        E 0 90 61 60
        E 0 90 62 60
        E 80 80 1a 00
        E 0 80 1f 00
        E 0 80 3d 00
        E 0 80 3e 00
        E 0 80 49 00
        E 0 80 4a 00
        E 0 80 55 00
        E 0 80 56 00
        E 0 80 61 00
        E 0 80 62 00
        E 160 90 1f 60
        E 0 90 56 60
        E 0 90 62 60
        E 80 80 1f 00
        E 0 80 56 00
        E 0 80 62 00
        E 80 90 18 60
        E 0 90 60 60
        E 80 80 18 00
        E 0 80 60 00
        E 0 90 1f 60
        E 0 90 3e 60
        E 0 90 4a 60
        E 0 90 56 60
        E 0 90 62 60
        E 0 90 78 60
        E 0 90 79 60
        E 0 90 7a 60
        E 0 90 7b 60
        E 0 90 7c 60
        E 80 80 1f 00
        E 0 80 3e 00
        E 0 80 4a 00
        E 0 80 56 00
        E 0 80 62 00
        E 160 90 18 60
        E 0 90 1f 60
        E 0 90 54 60
        E 0 90 56 60
        E 0 90 60 60
        E 0 90 62 60
        E 80 80 18 00
        E 0 80 1f 00
        E 0 80 54 00
        E 0 80 56 00
        E 0 80 60 00
        E 0 80 62 00
        E 160 90 1a 60
        E 0 90 1f 60
        E 0 90 3d 60
        E 0 90 3e 60
        E 0 90 49 60
        E 0 90 4a 60
        E 0 90 55 60
        E 0 90 56 60
        E 0 90 61 60
        E 0 90 62 60
        E 80 80 1a 00
        E 0 80 1f 00
        E 0 80 3d 00
        E 0 80 3e 00
        E 0 80 49 00
        E 0 80 4a 00
        E 0 80 55 00
        E 0 80 56 00
        E 0 80 61 00
        E 0 80 62 00
        E 160 90 1f 60
        E 0 90 56 60
        E 0 90 62 60
        E 80 80 1f 00
        E 0 80 56 00
        E 0 80 62 00
        E 160 80 78 00
        E 0 80 79 00
        E 0 80 7a 00
        E 0 80 7b 00
        E 0 80 7c 00
        E 0 90 18 60
        E 0 90 1f 60
        E 0 90 3e 60
        E 0 90 48 60
        E 0 90 4a 60
        E 0 90 54 60
        E 0 90 56 60
        E 0 90 60 60
        E 0 90 62 60
        E 80 80 18 00
        E 0 80 1f 00
        E 0 80 3e 00
        E 0 80 48 00
        E 0 80 4a 00
        E 0 80 54 00
        E 0 80 56 00
        E 0 80 60 00
        E 0 80 62 00
        E 160 90 18 60
        E 0 90 1f 60
        E 0 90 54 60
        E 0 90 56 60
        E 0 90 60 60
        E 0 90 62 60
        E 80 80 18 00
        E 0 80 1f 00
        E 0 80 54 00
        E 0 80 56 00
        E 0 80 60 00
        E 0 80 62 00
        E 160 90 1a 60
        E 0 90 1f 60
        E 0 90 3d 60
        E 0 90 3e 60
        E 0 90 49 60
        E 0 90 4a 60
        E 0 90 55 60
        E 0 90 56 60
        E 0 90 61 60
        E 0 90 62 60
        E 80 80 1a 00
        E 0 80 1f 00
        E 0 80 3d 00
        E 0 80 3e 00
        E 0 80 49 00
        E 0 80 4a 00
        E 0 80 55 00
        E 0 80 56 00
        E 0 80 61 00
        E 0 80 62 00
        E 160 90 1f 60
        E 0 90 56 60
        E 0 90 62 60
        E 80 80 1f 00
        E 0 80 56 00
        E 0 80 62 00
        E 80 90 18 60
        E 0 90 60 60
        E 80 80 18 00
        E 0 80 60 00
        E 0 90 1f 60
        E 0 90 3e 60
        E 0 90 4a 60
        E 0 90 56 60
        E 0 90 62 60
        E 80 80 1f 00
        E 0 80 3e 00
        E 0 80 4a 00
        E 0 80 56 00
        E 0 80 62 00
        E 160 90 18 60
        E 0 90 1f 60
        E 0 90 54 60
        E 0 90 56 60
        E 0 90 60 60
        E 0 90 62 60
        E 80 80 18 00
        E 0 80 1f 00
        E 0 80 54 00
        E 0 80 56 00
        E 0 80 60 00
        E 0 80 62 00
        E 160 90 1a 60
        E 0 90 1f 60
        E 0 90 3d 60
        E 0 90 3e 60
        E 0 90 49 60
        E 0 90 4a 60
        E 0 90 55 60
        E 0 90 56 60
        E 0 90 61 60
        E 0 90 62 60
        E 80 80 1a 00
        E 0 80 1f 00
        E 0 80 3d 00
        E 0 80 3e 00
        E 0 80 49 00
        E 0 80 4a 00
        E 0 80 55 00
        E 0 80 56 00
        E 0 80 61 00
        E 0 80 62 00
        E 160 90 1f 60
        E 0 90 56 60
        E 0 90 62 60
        E 80 80 1f 00
        E 0 80 56 00
        E 0 80 62 00
        E 160 90 18 60
        E 0 90 1f 60
        E 0 90 3e 60
        E 0 90 48 60
        E 0 90 4a 60
        E 0 90 54 60
        E 0 90 56 60
        E 0 90 60 60
        E 0 90 62 60
        E 0 90 74 60
        E 80 80 18 00
        E 0 80 1f 00
        E 0 80 3e 00
        E 0 80 48 00
        E 0 80 4a 00
        E 0 80 54 00
        E 0 80 56 00
        E 0 80 60 00
        E 0 80 62 00
        E 160 90 18 60
        E 0 90 1f 60
        E 0 90 54 60
        E 0 90 56 60
        E 0 90 60 60
        E 0 90 62 60
        E 80 80 18 00
        E 0 80 1f 00
        E 0 80 54 00
        E 0 80 56 00
        E 0 80 60 00
        E 0 80 62 00
        E 160 90 1a 60
        E 0 90 1f 60
        E 0 90 3d 60
        E 0 90 3e 60
        E 0 90 49 60
        E 0 90 4a 60
        E 0 90 55 60
        E 0 90 56 60
        E 0 90 61 60
        E 0 90 62 60
        E 80 80 1a 00
        E 0 80 1f 00
        E 0 80 3d 00
        E 0 80 3e 00
        E 0 80 49 00
        E 0 80 4a 00
        E 0 80 55 00
        E 0 80 56 00
        E 0 80 61 00
        E 0 80 62 00
        E 160 90 1f 60
        E 0 90 56 60
        E 0 90 62 60
        E 80 80 1f 00
        E 0 80 56 00
        E 0 80 62 00
        E 80 90 18 60
        E 0 90 60 60
        E 80 80 18 00
        E 0 80 60 00
        E 0 90 1f 60
        E 0 90 3e 60
        E 0 90 4a 60
        E 0 90 56 60
        E 0 90 62 60
        E 80 80 1f 00
        E 0 80 3e 00
        E 0 80 4a 00
        E 0 80 56 00
        E 0 80 62 00
        E 160 90 18 60
        E 0 90 1f 60
        E 0 90 54 60
        E 0 90 56 60
        E 0 90 60 60
        E 0 90 62 60
        E 80 80 18 00
        E 0 80 1f 00
        E 0 80 54 00
        E 0 80 56 00
        E 0 80 60 00
        E 0 80 62 00
        E 160 90 1a 60
        E 0 90 1f 60
        E 0 90 3d 60
        E 0 90 3e 60
        E 0 90 49 60
        E 0 90 4a 60
        E 0 90 55 60
        E 0 90 56 60
        E 0 90 61 60
        E 0 90 62 60
        E 80 80 1a 00
        E 0 80 1f 00
        E 0 80 3d 00
        E 0 80 3e 00
        E 0 80 49 00
        E 0 80 4a 00
        E 0 80 55 00
        E 0 80 56 00
        E 0 80 61 00
        E 0 80 62 00
        E 160 90 1f 60
        E 0 90 56 60
        E 0 90 62 60
        E 80 80 1f 00
        E 0 80 56 00
        E 0 80 62 00
        E 160 80 74 00
        E 0 90 18 60
        E 0 90 1f 60
        E 0 90 3e 60
        E 0 90 48 60
        E 0 90 4a 60
        E 0 90 54 60
        E 0 90 56 60
        E 0 90 60 60
        E 0 90 62 60
        E 80 80 18 00
        E 0 80 1f 00
        E 0 80 3e 00
        E 0 80 48 00
        E 0 80 4a 00
        E 0 80 54 00
        E 0 80 56 00
        E 0 80 60 00
        E 0 80 62 00
        E 160 90 18 60
        E 0 90 1f 60
        E 0 90 54 60
        E 0 90 56 60
        E 0 90 60 60
        E 0 90 62 60
        E 80 80 18 00
        E 0 80 1f 00
        E 0 80 54 00
        E 0 80 56 00
        E 0 80 60 00
        E 0 80 62 00
        E 160 90 1a 60
        E 0 90 1f 60
        E 0 90 3d 60
        E 0 90 3e 60
        E 0 90 49 60
        E 0 90 4a 60
        E 0 90 55 60
        E 0 90 56 60
        E 0 90 61 60
        E 0 90 62 60
        E 80 80 1a 00
        E 0 80 1f 00
        E 0 80 3d 00
        E 0 80 3e 00
        E 0 80 49 00
        E 0 80 4a 00
        E 0 80 55 00
        E 0 80 56 00
        E 0 80 61 00
        E 0 80 62 00
        E 160 90 1f 60
        E 0 90 56 60
        E 0 90 62 60
        E 80 80 1f 00
        E 0 80 56 00
        E 0 80 62 00
        E 80 90 18 60
        E 0 90 60 60
        E 80 80 18 00
        E 0 80 60 00
        E 0 90 1f 60
        E 0 90 3e 60
        E 0 90 4a 60
        E 0 90 56 60
        E 0 90 62 60
        E 80 80 1f 00
        E 0 80 3e 00
        E 0 80 4a 00
        E 0 80 56 00
        E 0 80 62 00
        E 160 90 18 60
        E 0 90 1f 60
        E 0 90 54 60
        E 0 90 56 60
        E 0 90 60 60
        E 0 90 62 60
        E 80 80 18 00
        E 0 80 1f 00
        E 0 80 54 00
        E 0 80 56 00
        E 0 80 60 00
        E 0 80 62 00
        E 160 90 1a 60
        E 0 90 1f 60
        E 0 90 3d 60
        E 0 90 3e 60
        E 0 90 49 60
        E 0 90 4a 60
        E 0 90 55 60
        E 0 90 56 60
        E 0 90 61 60
        E 0 90 62 60
        E 80 80 1a 00
        E 0 80 1f 00
        E 0 80 3d 00
        E 0 80 3e 00
        E 0 80 49 00
        E 0 80 4a 00
        E 0 80 55 00
        E 0 80 56 00
        E 0 80 61 00
        E 0 80 62 00
        E 160 90 1f 60
        E 0 90 56 60
        E 0 90 62 60
        E 80 80 1f 00
        E 0 80 56 00
        E 0 80 62 00
        E 160 90 18 60
        E 0 90 1f 60
        E 0 90 3e 60
        E 0 90 48 60
        E 0 90 4a 60
        E 0 90 54 60
        E 0 90 56 60
        E 0 90 60 60
        E 0 90 62 60
        E 80 80 18 00
        E 0 80 1f 00
        E 0 80 3e 00
        E 0 80 48 00
        E 0 80 4a 00
        E 0 80 54 00
        E 0 80 56 00
        E 0 80 60 00
        E 0 80 62 00
        E 160 90 18 60
        E 0 90 1f 60
        E 0 90 54 60
        E 0 90 56 60
        E 0 90 60 60
        E 0 90 62 60
        E 80 80 18 00
        E 0 80 1f 00
        E 0 80 54 00
        E 0 80 56 00
        E 0 80 60 00
        E 0 80 62 00
        E 160 90 1a 60
        E 0 90 1f 60
        E 0 90 3d 60
        E 0 90 3e 60
        E 0 90 49 60
        E 0 90 4a 60
        E 0 90 55 60
        E 0 90 56 60
        E 0 90 61 60
        E 0 90 62 60
        E 80 80 1a 00
        E 0 80 1f 00
        E 0 80 3d 00
        E 0 80 3e 00
        E 0 80 49 00
        E 0 80 4a 00
        E 0 80 55 00
        E 0 80 56 00
        E 0 80 61 00
        E 0 80 62 00
        E 160 90 1f 60
        E 0 90 56 60
        E 0 90 62 60
        E 80 80 1f 00
        E 0 80 56 00
        E 0 80 62 00
        E 80 90 18 60
        E 0 90 60 60
        E 80 80 18 00
        E 0 80 60 00
        E 0 90 1f 60
        E 0 90 3e 60
        E 0 90 4a 60
        E 0 90 56 60
        E 0 90 62 60
        E 0 90 78 60
        E 0 90 79 60
        E 0 90 7a 60
        E 0 90 7b 60
        E 0 90 7c 60
        E 80 80 1f 00
        E 0 80 3e 00
        E 0 80 4a 00
        E 0 80 56 00
        E 0 80 62 00
        E 160 90 18 60
        E 0 90 1f 60
        E 0 90 54 60
        E 0 90 56 60
        E 0 90 60 60
        E 0 90 62 60
        E 80 80 18 00
        E 0 80 1f 00
        E 0 80 54 00
        E 0 80 56 00
        E 0 80 60 00
        E 0 80 62 00
        E 160 90 1a 60
        E 0 90 1f 60
        E 0 90 3d 60
        E 0 90 3e 60
        E 0 90 49 60
        E 0 90 4a 60
        E 0 90 55 60
        E 0 90 56 60
        E 0 90 61 60
        E 0 90 62 60
        E 80 80 1a 00
        E 0 80 1f 00
        E 0 80 3d 00
        E 0 80 3e 00
        E 0 80 49 00
        E 0 80 4a 00
        E 0 80 55 00
        E 0 80 56 00
        E 0 80 61 00
        E 0 80 62 00
        E 160 90 1f 60
        E 0 90 56 60
        E 0 90 62 60
        E 80 80 1f 00
        E 0 80 56 00
        E 0 80 62 00
        E 160 80 19 00
        E 0 80 78 00
        E 0 80 79 00
        E 0 80 7a 00
        E 0 80 7b 00
        E 0 80 7c 00
        E 0 90 18 60
        E 0 90 26 60
        E 0 90 40 60
        E 0 90 48 60
        E 0 90 4c 60
        E 0 90 54 60
        E 0 90 58 60
        E 0 90 60 60
        E 0 90 64 60
        E 80 80 18 00
        E 0 80 26 00
        E 0 80 40 00
        E 0 80 48 00
        E 0 80 4c 00
        E 0 80 54 00
        E 0 80 58 00
        E 0 80 60 00
        E 0 80 64 00
        <X 400 0
          /wFbaWRsZV0=
        >
        E 2400 90 78 60
        E 0 90 79 60
        E 0 90 7a 60
        E 0 90 7b 60
        E 0 90 7c 60
        <X 720 0
          /wFbaW50ZW5zZV0=
        >
        E 240 80 78 00
        E 0 80 79 00
        E 0 80 7a 00
        E 0 80 7b 00
        E 0 80 7c 00
        E 0 90 18 60
        E 0 90 19 60
        E 0 90 26 60
        E 0 90 40 60
        E 0 90 48 60
        E 0 90 4c 60
        E 0 90 54 60
        E 0 90 58 60
        E 0 90 60 60
        E 0 90 64 60
        E 80 80 18 00
        E 0 80 26 00
        E 0 80 40 00
        E 0 80 48 00
        E 0 80 4c 00
        E 0 80 54 00
        E 0 80 58 00
        E 0 80 60 00
        E 0 80 64 00
        E 160 90 18 60
        E 0 90 1f 60
        E 0 90 54 60
        E 0 90 56 60
        E 0 90 60 60
        E 0 90 62 60
        E 80 80 18 00
        E 0 80 1f 00
        E 0 80 54 00
        E 0 80 56 00
        E 0 80 60 00
        E 0 80 62 00
        E 160 90 1a 60
        E 0 90 1f 60
        E 0 90 3d 60
        E 0 90 3e 60
        E 0 90 49 60
        E 0 90 4a 60
        E 0 90 55 60
        E 0 90 56 60
        E 0 90 61 60
        E 0 90 62 60
        E 80 80 1a 00
        E 0 80 1f 00
        E 0 80 3d 00
        E 0 80 3e 00
        E 0 80 49 00
        E 0 80 4a 00
        E 0 80 55 00
        E 0 80 56 00
        E 0 80 61 00
        E 0 80 62 00
        E 160 90 1f 60
        E 0 90 56 60
        E 0 90 62 60
        E 80 80 1f 00
        E 0 80 56 00
        E 0 80 62 00
        E 80 90 18 60
        E 0 90 60 60
        E 80 80 18 00
        E 0 80 60 00
        E 0 90 1f 60
        E 0 90 3e 60
        E 0 90 4a 60
        E 0 90 56 60
        E 0 90 62 60
        E 80 80 1f 00
        E 0 80 3e 00
        E 0 80 4a 00
        E 0 80 56 00
        E 0 80 62 00
        E 160 90 18 60
        E 0 90 1f 60
        E 0 90 54 60
        E 0 90 56 60
        E 0 90 60 60
        E 0 90 62 60
        E 80 80 18 00
        E 0 80 1f 00
        E 0 80 54 00
        E 0 80 56 00
        E 0 80 60 00
        E 0 80 62 00
        E 160 90 1a 60
        E 0 90 1f 60
        E 0 90 3d 60
        E 0 90 3e 60
        E 0 90 49 60
        E 0 90 4a 60
        E 0 90 55 60
        E 0 90 56 60
        E 0 90 61 60
        E 0 90 62 60
        E 80 80 1a 00
        E 0 80 1f 00
        E 0 80 3d 00
        E 0 80 3e 00
        E 0 80 49 00
        E 0 80 4a 00
        E 0 80 55 00
        E 0 80 56 00
        E 0 80 61 00
        E 0 80 62 00
        E 160 90 1f 60
        E 0 90 56 60
        E 0 90 62 60
        E 80 80 1f 00
        E 0 80 56 00
        E 0 80 62 00
        E 160 90 18 60
        E 0 90 1f 60
        E 0 90 3e 60
        E 0 90 48 60
        E 0 90 4a 60
        E 0 90 54 60
        E 0 90 56 60
        E 0 90 60 60
        E 0 90 62 60
        E 80 80 18 00
        E 0 80 1f 00
        E 0 80 3e 00
        E 0 80 48 00
        E 0 80 4a 00
        E 0 80 54 00
        E 0 80 56 00
        E 0 80 60 00
        E 0 80 62 00
        E 160 90 18 60
        E 0 90 1f 60
        E 0 90 54 60
        E 0 90 56 60
        E 0 90 60 60
        E 0 90 62 60
        E 80 80 18 00
        E 0 80 1f 00
        E 0 80 54 00
        E 0 80 56 00
        E 0 80 60 00
        E 0 80 62 00
        E 160 90 1a 60
        E 0 90 1f 60
        E 0 90 3d 60
        E 0 90 3e 60
        E 0 90 49 60
        E 0 90 4a 60
        E 0 90 55 60
        E 0 90 56 60
        E 0 90 61 60
        E 0 90 62 60
        E 80 80 1a 00
        E 0 80 1f 00
        E 0 80 3d 00
        E 0 80 3e 00
        E 0 80 49 00
        E 0 80 4a 00
        E 0 80 55 00
        E 0 80 56 00
        E 0 80 61 00
        E 0 80 62 00
        E 160 90 1f 60
        E 0 90 56 60
        E 0 90 62 60
        E 80 80 1f 00
        E 0 80 56 00
        E 0 80 62 00
        E 80 90 18 60
        E 0 90 60 60
        E 80 80 18 00
        E 0 80 60 00
        E 0 90 1f 60
        E 0 90 3e 60
        E 0 90 4a 60
        E 0 90 56 60
        E 0 90 62 60
        E 0 90 78 60
        E 0 90 79 60
        E 0 90 7a 60
        E 0 90 7b 60
        E 0 90 7c 60
        E 80 80 1f 00
        E 0 80 3e 00
        E 0 80 4a 00
        E 0 80 56 00
        E 0 80 62 00
        E 160 90 18 60
        E 0 90 1f 60
        E 0 90 54 60
        E 0 90 56 60
        E 0 90 60 60
        E 0 90 62 60
        E 80 80 18 00
        E 0 80 1f 00
        E 0 80 54 00
        E 0 80 56 00
        E 0 80 60 00
        E 0 80 62 00
        E 160 90 1a 60
        E 0 90 1f 60
        E 0 90 3d 60
        E 0 90 3e 60
        E 0 90 49 60
        E 0 90 4a 60
        E 0 90 55 60
        E 0 90 56 60
        E 0 90 61 60
        E 0 90 62 60
        E 80 80 1a 00
        E 0 80 1f 00
        E 0 80 3d 00
        E 0 80 3e 00
        E 0 80 49 00
        E 0 80 4a 00
        E 0 80 55 00
        E 0 80 56 00
        E 0 80 61 00
        E 0 80 62 00
        E 160 90 1f 60
        E 0 90 56 60
        E 0 90 62 60
        E 80 80 1f 00
        E 0 80 56 00
        E 0 80 62 00
        E 160 80 78 00
        E 0 80 79 00
        E 0 80 7a 00
        E 0 80 7b 00
        E 0 80 7c 00
        E 0 90 18 60
        E 0 90 1f 60
        E 0 90 3e 60
        E 0 90 48 60
        E 0 90 4a 60
        E 0 90 54 60
        E 0 90 56 60
        E 0 90 60 60
        E 0 90 62 60
        E 80 80 18 00
        E 0 80 1f 00
        E 0 80 3e 00
        E 0 80 48 00
        E 0 80 4a 00
        E 0 80 54 00
        E 0 80 56 00
        E 0 80 60 00
        E 0 80 62 00
        E 160 90 18 60
        E 0 90 1f 60
        E 0 90 54 60
        E 0 90 56 60
        E 0 90 60 60
        E 0 90 62 60
        E 80 80 18 00
        E 0 80 1f 00
        E 0 80 54 00
        E 0 80 56 00
        E 0 80 60 00
        E 0 80 62 00
        E 160 90 1a 60
        E 0 90 1f 60
        E 0 90 3d 60
        E 0 90 3e 60
        E 0 90 49 60
        E 0 90 4a 60
        E 0 90 55 60
        E 0 90 56 60
        E 0 90 61 60
        E 0 90 62 60
        E 80 80 1a 00
        E 0 80 1f 00
        E 0 80 3d 00
        E 0 80 3e 00
        E 0 80 49 00
        E 0 80 4a 00
        E 0 80 55 00
        E 0 80 56 00
        E 0 80 61 00
        E 0 80 62 00
        E 160 90 1f 60
        E 0 90 56 60
        E 0 90 62 60
        E 80 80 1f 00
        E 0 80 56 00
        E 0 80 62 00
        E 80 90 18 60
        E 0 90 60 60
        E 80 80 18 00
        E 0 80 60 00
        E 0 90 1f 60
        E 0 90 3e 60
        E 0 90 4a 60
        E 0 90 56 60
        E 0 90 62 60
        E 80 80 1f 00
        E 0 80 3e 00
        E 0 80 4a 00
        E 0 80 56 00
        E 0 80 62 00
        E 160 90 18 60
        E 0 90 1f 60
        E 0 90 54 60
        E 0 90 56 60
        E 0 90 60 60
        E 0 90 62 60
        E 80 80 18 00
        E 0 80 1f 00
        E 0 80 54 00
        E 0 80 56 00
        E 0 80 60 00
        E 0 80 62 00
        E 160 90 1a 60
        E 0 90 1f 60
        E 0 90 3d 60
        E 0 90 3e 60
        E 0 90 49 60
        E 0 90 4a 60
        E 0 90 55 60
        E 0 90 56 60
        E 0 90 61 60
        E 0 90 62 60
        E 80 80 1a 00
        E 0 80 1f 00
        E 0 80 3d 00
        E 0 80 3e 00
        E 0 80 49 00
        E 0 80 4a 00
        E 0 80 55 00
        E 0 80 56 00
        E 0 80 61 00
        E 0 80 62 00
        E 160 90 1f 60
        E 0 90 56 60
        E 0 90 62 60
        E 80 80 1f 00
        E 0 80 56 00
        E 0 80 62 00
        E 160 90 18 60
        E 0 90 1f 60
        E 0 90 3e 60
        E 0 90 48 60
        E 0 90 4a 60
        E 0 90 54 60
        E 0 90 56 60
        E 0 90 60 60
        E 0 90 62 60
        E 80 80 18 00
        E 0 80 1f 00
        E 0 80 3e 00
        E 0 80 48 00
        E 0 80 4a 00
        E 0 80 54 00
        E 0 80 56 00
        E 0 80 60 00
        E 0 80 62 00
        E 160 90 18 60
        E 0 90 1f 60
        E 0 90 54 60
        E 0 90 56 60
        E 0 90 60 60
        E 0 90 62 60
        E 80 80 18 00
        E 0 80 1f 00
        E 0 80 54 00
        E 0 80 56 00
        E 0 80 60 00
        E 0 80 62 00
        E 160 90 1a 60
        E 0 90 1f 60
        E 0 90 3d 60
        E 0 90 3e 60
        E 0 90 49 60
        E 0 90 4a 60
        E 0 90 55 60
        E 0 90 56 60
        E 0 90 61 60
        E 0 90 62 60
        E 80 80 1a 00
        E 0 80 1f 00
        E 0 80 3d 00
        E 0 80 3e 00
        E 0 80 49 00
        E 0 80 4a 00
        E 0 80 55 00
        E 0 80 56 00
        E 0 80 61 00
        E 0 80 62 00
        E 160 90 1f 60
        E 0 90 56 60
        E 0 90 62 60
        E 80 80 1f 00
        E 0 80 56 00
        E 0 80 62 00
        E 80 90 18 60
        E 0 90 60 60
        E 80 80 18 00
        E 0 80 60 00
        E 0 90 1f 60
        E 0 90 3e 60
        E 0 90 4a 60
        E 0 90 56 60
        E 0 90 62 60
        E 0 90 78 60
        E 0 90 79 60
        E 0 90 7a 60
        E 0 90 7b 60
        E 0 90 7c 60
        E 80 80 1f 00
        E 0 80 3e 00
        E 0 80 4a 00
        E 0 80 56 00
        E 0 80 62 00
        E 160 90 18 60
        E 0 90 1f 60
        E 0 90 54 60
        E 0 90 56 60
        E 0 90 60 60
        E 0 90 62 60
        E 80 80 18 00
        E 0 80 1f 00
        E 0 80 54 00
        E 0 80 56 00
        E 0 80 60 00
        E 0 80 62 00
        E 160 90 1a 60
        E 0 90 1f 60
        E 0 90 3d 60
        E 0 90 3e 60
        E 0 90 49 60
        E 0 90 4a 60
        E 0 90 55 60
        E 0 90 56 60
        E 0 90 61 60
        E 0 90 62 60
        E 80 80 1a 00
        E 0 80 1f 00
        E 0 80 3d 00
        E 0 80 3e 00
        E 0 80 49 00
        E 0 80 4a 00
        E 0 80 55 00
        E 0 80 56 00
        E 0 80 61 00
        E 0 80 62 00
        E 160 90 1f 60
        E 0 90 56 60
        E 0 90 62 60
        E 80 80 1f 00
        E 0 80 56 00
        E 0 80 62 00
        E 160 80 78 00
        E 0 80 79 00
        E 0 80 7a 00
        E 0 80 7b 00
        E 0 80 7c 00
        E 0 90 18 60
        E 0 90 1f 60
        E 0 90 3e 60
        E 0 90 48 60
        E 0 90 4a 60
        E 0 90 54 60
        E 0 90 56 60
        E 0 90 60 60
        E 0 90 62 60
        E 80 80 18 00
        E 0 80 1f 00
        E 0 80 3e 00
        E 0 80 48 00
        E 0 80 4a 00
        E 0 80 54 00
        E 0 80 56 00
        E 0 80 60 00
        E 0 80 62 00
        E 160 90 18 60
        E 0 90 1f 60
        E 0 90 54 60
        E 0 90 56 60
        E 0 90 60 60
        E 0 90 62 60
        E 80 80 18 00
        E 0 80 1f 00
        E 0 80 54 00
        E 0 80 56 00
        E 0 80 60 00
        E 0 80 62 00
        E 160 90 1a 60
        E 0 90 1f 60
        E 0 90 3d 60
        E 0 90 3e 60
        E 0 90 49 60
        E 0 90 4a 60
        E 0 90 55 60
        E 0 90 56 60
        E 0 90 61 60
        E 0 90 62 60
        E 80 80 1a 00
        E 0 80 1f 00
        E 0 80 3d 00
        E 0 80 3e 00
        E 0 80 49 00
        E 0 80 4a 00
        E 0 80 55 00
        E 0 80 56 00
        E 0 80 61 00
        E 0 80 62 00
        E 160 90 1f 60
        E 0 90 56 60
        E 0 90 62 60
        E 80 80 1f 00
        E 0 80 56 00
        E 0 80 62 00
        E 80 90 18 60
        E 0 90 60 60
        E 80 80 18 00
        E 0 80 60 00
        E 0 90 1f 60
        E 0 90 3e 60
        E 0 90 4a 60
        E 0 90 56 60
        E 0 90 62 60
        E 80 80 1f 00
        E 0 80 3e 00
        E 0 80 4a 00
        E 0 80 56 00
        E 0 80 62 00
        E 160 90 18 60
        E 0 90 1f 60
        E 0 90 54 60
        E 0 90 56 60
        E 0 90 60 60
        E 0 90 62 60
        E 80 80 18 00
        E 0 80 1f 00
        E 0 80 54 00
        E 0 80 56 00
        E 0 80 60 00
        E 0 80 62 00
        E 160 90 1a 60
        E 0 90 1f 60
        E 0 90 3d 60
        E 0 90 3e 60
        E 0 90 49 60
        E 0 90 4a 60
        E 0 90 55 60
        E 0 90 56 60
        E 0 90 61 60
        E 0 90 62 60
        E 80 80 1a 00
        E 0 80 1f 00
        E 0 80 3d 00
        E 0 80 3e 00
        E 0 80 49 00
        E 0 80 4a 00
        E 0 80 55 00
        E 0 80 56 00
        E 0 80 61 00
        E 0 80 62 00
        E 160 90 1f 60
        E 0 90 56 60
        E 0 90 62 60
        E 80 80 1f 00
        E 0 80 56 00
        E 0 80 62 00
        E 160 90 18 60
        E 0 90 1f 60
        E 0 90 3e 60
        E 0 90 48 60
        E 0 90 4a 60
        E 0 90 54 60
        E 0 90 56 60
        E 0 90 60 60
        E 0 90 62 60
        E 80 80 18 00
        E 0 80 1f 00
        E 0 80 3e 00
        E 0 80 48 00
        E 0 80 4a 00
        E 0 80 54 00
        E 0 80 56 00
        E 0 80 60 00
        E 0 80 62 00
        E 160 90 18 60
        E 0 90 1f 60
        E 0 90 54 60
        E 0 90 56 60
        E 0 90 60 60
        E 0 90 62 60
        E 80 80 18 00
        E 0 80 1f 00
        E 0 80 54 00
        E 0 80 56 00
        E 0 80 60 00
        E 0 80 62 00
        E 160 90 1a 60
        E 0 90 1f 60
        E 0 90 3d 60
        E 0 90 3e 60
        E 0 90 49 60
        E 0 90 4a 60
        E 0 90 55 60
        E 0 90 56 60
        E 0 90 61 60
        E 0 90 62 60
        E 80 80 1a 00
        E 0 80 1f 00
        E 0 80 3d 00
        E 0 80 3e 00
        E 0 80 49 00
        E 0 80 4a 00
        E 0 80 55 00
        E 0 80 56 00
        E 0 80 61 00
        E 0 80 62 00
        E 160 90 1f 60
        E 0 90 56 60
        E 0 90 62 60
        E 80 80 1f 00
        E 0 80 56 00
        E 0 80 62 00
        E 80 90 18 60
        E 0 90 60 60
        E 80 80 18 00
        E 0 80 60 00
        E 0 90 1f 60
        E 0 90 3e 60
        E 0 90 4a 60
        E 0 90 56 60
        E 0 90 62 60
        E 0 90 78 60
        E 0 90 79 60
        E 0 90 7a 60
        E 0 90 7b 60
        E 0 90 7c 60
        E 80 80 1f 00
        E 0 80 3e 00
        E 0 80 4a 00
        E 0 80 56 00
        E 0 80 62 00
        E 160 90 18 60
        E 0 90 1f 60
        E 0 90 54 60
        E 0 90 56 60
        E 0 90 60 60
        E 0 90 62 60
        E 80 80 18 00
        E 0 80 1f 00
        E 0 80 54 00
        E 0 80 56 00
        E 0 80 60 00
        E 0 80 62 00
        E 160 90 1a 60
        E 0 90 1f 60
        E 0 90 3d 60
        E 0 90 3e 60
        E 0 90 49 60
        E 0 90 4a 60
        E 0 90 55 60
        E 0 90 56 60
        E 0 90 61 60
        E 0 90 62 60
        E 80 80 1a 00
        E 0 80 1f 00
        E 0 80 3d 00
        E 0 80 3e 00
        E 0 80 49 00
        E 0 80 4a 00
        E 0 80 55 00
        E 0 80 56 00
        E 0 80 61 00
        E 0 80 62 00
        E 160 90 1f 60
        E 0 90 56 60
        E 0 90 62 60
        E 80 80 1f 00
        E 0 80 56 00
        E 0 80 62 00
        E 160 80 78 00
        E 0 80 79 00
        E 0 80 7a 00
        E 0 80 7b 00
        E 0 80 7c 00
        E 0 90 18 60
        E 0 90 1f 60
        E 0 90 3e 60
        E 0 90 48 60
        E 0 90 4a 60
        E 0 90 54 60
        E 0 90 56 60
        E 0 90 60 60
        E 0 90 62 60
        E 0 90 74 60
        E 80 80 18 00
        E 0 80 1f 00
        E 0 80 3e 00
        E 0 80 48 00
        E 0 80 4a 00
        E 0 80 54 00
        E 0 80 56 00
        E 0 80 60 00
        E 0 80 62 00
        E 160 90 18 60
        E 0 90 1f 60
        E 0 90 54 60
        E 0 90 56 60
        E 0 90 60 60
        E 0 90 62 60
        E 80 80 18 00
        E 0 80 1f 00
        E 0 80 54 00
        E 0 80 56 00
        E 0 80 60 00
        E 0 80 62 00
        E 160 90 1a 60
        E 0 90 1f 60
        E 0 90 3d 60
        E 0 90 3e 60
        E 0 90 49 60
        E 0 90 4a 60
        E 0 90 55 60
        E 0 90 56 60
        E 0 90 61 60
        E 0 90 62 60
        E 80 80 1a 00
        E 0 80 1f 00
        E 0 80 3d 00
        E 0 80 3e 00
        E 0 80 49 00
        E 0 80 4a 00
        E 0 80 55 00
        E 0 80 56 00
        E 0 80 61 00
        E 0 80 62 00
        E 160 90 1f 60
        E 0 90 56 60
        E 0 90 62 60
        E 80 80 1f 00
        E 0 80 56 00
        E 0 80 62 00
        E 80 90 18 60
        E 0 90 60 60
        E 80 80 18 00
        E 0 80 60 00
        E 0 90 1f 60
        E 0 90 3e 60
        E 0 90 4a 60
        E 0 90 56 60
        E 0 90 62 60
        E 80 80 1f 00
        E 0 80 3e 00
        E 0 80 4a 00
        E 0 80 56 00
        E 0 80 62 00
        E 160 90 18 60
        E 0 90 1f 60
        E 0 90 54 60
        E 0 90 56 60
        E 0 90 60 60
        E 0 90 62 60
        E 80 80 18 00
        E 0 80 1f 00
        E 0 80 54 00
        E 0 80 56 00
        E 0 80 60 00
        E 0 80 62 00
        E 160 90 1a 60
        E 0 90 1f 60
        E 0 90 3d 60
        E 0 90 3e 60
        E 0 90 49 60
        E 0 90 4a 60
        E 0 90 55 60
        E 0 90 56 60
        E 0 90 61 60
        E 0 90 62 60
        E 80 80 1a 00
        E 0 80 1f 00
        E 0 80 3d 00
        E 0 80 3e 00
        E 0 80 49 00
        E 0 80 4a 00
        E 0 80 55 00
        E 0 80 56 00
        E 0 80 61 00
        E 0 80 62 00
        E 160 90 1f 60
        E 0 90 56 60
        E 0 90 62 60
        E 80 80 1f 00
        E 0 80 56 00
        E 0 80 62 00
        E 160 90 18 60
        E 0 90 1f 60
        E 0 90 3e 60
        E 0 90 48 60
        E 0 90 4a 60
        E 0 90 54 60
        E 0 90 56 60
        E 0 90 60 60
        E 0 90 62 60
        E 80 80 18 00
        E 0 80 1f 00
        E 0 80 3e 00
        E 0 80 48 00
        E 0 80 4a 00
        E 0 80 54 00
        E 0 80 56 00
        E 0 80 60 00
        E 0 80 62 00
        E 160 90 18 60
        E 0 90 1f 60
        E 0 90 54 60
        E 0 90 56 60
        E 0 90 60 60
        E 0 90 62 60
        E 80 80 18 00
        E 0 80 1f 00
        E 0 80 54 00
        E 0 80 56 00
        E 0 80 60 00
        E 0 80 62 00
        E 160 90 1a 60
        E 0 90 1f 60
        E 0 90 3d 60
        E 0 90 3e 60
        E 0 90 49 60
        E 0 90 4a 60
        E 0 90 55 60
        E 0 90 56 60
        E 0 90 61 60
        E 0 90 62 60
        E 80 80 1a 00
        E 0 80 1f 00
        E 0 80 3d 00
        E 0 80 3e 00
        E 0 80 49 00
        E 0 80 4a 00
        E 0 80 55 00
        E 0 80 56 00
        E 0 80 61 00
        E 0 80 62 00
        E 160 90 1f 60
        E 0 90 56 60
        E 0 90 62 60
        E 80 80 1f 00
        E 0 80 56 00
        E 0 80 62 00
        E 80 90 18 60
        E 0 90 60 60
        E 80 80 18 00
        E 0 80 60 00
        E 0 90 1f 60
        E 0 90 3e 60
        E 0 90 4a 60
        E 0 90 56 60
        E 0 90 62 60
        E 80 80 1f 00
        E 0 80 3e 00
        E 0 80 4a 00
        E 0 80 56 00
        E 0 80 62 00
        E 160 90 18 60
        E 0 90 1f 60
        E 0 90 54 60
        E 0 90 56 60
        E 0 90 60 60
        E 0 90 62 60
        E 80 80 18 00
        E 0 80 1f 00
        E 0 80 54 00
        E 0 80 56 00
        E 0 80 60 00
        E 0 80 62 00
        E 160 90 1a 60
        E 0 90 1f 60
        E 0 90 3d 60
        E 0 90 3e 60
        E 0 90 49 60
        E 0 90 4a 60
        E 0 90 55 60
        E 0 90 56 60
        E 0 90 61 60
        E 0 90 62 60
        E 80 80 1a 00
        E 0 80 1f 00
        E 0 80 3d 00
        E 0 80 3e 00
        E 0 80 49 00
        E 0 80 4a 00
        E 0 80 55 00
        E 0 80 56 00
        E 0 80 61 00
        E 0 80 62 00
        E 160 90 1f 60
        E 0 90 56 60
        E 0 90 62 60
        E 80 80 1f 00
        E 0 80 56 00
        E 0 80 62 00
        <X 160 0
          /wFbcGxheV0=
        >
        E 0 80 19 00
        E 0 80 74 00
        E 0 90 18 60
        E 0 90 26 60
        E 0 90 40 60
        E 0 90 48 60
        E 0 90 4c 60
        E 0 90 54 60
        E 0 90 58 60
        E 0 90 60 60
        E 0 90 64 60
        E 80 80 18 00
        E 0 80 26 00
        E 0 80 40 00
        E 0 80 48 00
        E 0 80 4c 00
        E 0 80 54 00
        E 0 80 58 00
        E 0 80 60 00
        E 0 80 64 00
        E 160 90 18 60
        E 0 90 1f 60
        E 0 90 54 60
        E 0 90 56 60
        E 0 90 60 60
        E 0 90 62 60
        E 80 80 18 00
        E 0 80 1f 00
        E 0 80 54 00
        E 0 80 56 00
        E 0 80 60 00
        E 0 80 62 00
        E 160 90 1a 60
        E 0 90 1f 60
        E 0 90 3d 60
        E 0 90 3e 60
        E 0 90 49 60
        E 0 90 4a 60
        E 0 90 55 60
        E 0 90 56 60
        E 0 90 61 60
        E 0 90 62 60
        E 80 80 1a 00
        E 0 80 1f 00
        E 0 80 3d 00
        E 0 80 3e 00
        E 0 80 49 00
        E 0 80 4a 00
        E 0 80 55 00
        E 0 80 56 00
        E 0 80 61 00
        E 0 80 62 00
        E 160 90 1f 60
        E 0 90 56 60
        E 0 90 62 60
        E 80 80 1f 00
        E 0 80 56 00
        E 0 80 62 00
        E 80 90 18 60
        E 0 90 60 60
        E 80 80 18 00
        E 0 80 60 00
        E 0 90 1f 60
        E 0 90 3e 60
        E 0 90 4a 60
        E 0 90 56 60
        E 0 90 62 60
        E 80 80 1f 00
        E 0 80 3e 00
        E 0 80 4a 00
        E 0 80 56 00
        E 0 80 62 00
        E 160 90 18 60
        E 0 90 1f 60
        E 0 90 54 60
        E 0 90 56 60
        E 0 90 60 60
        E 0 90 62 60
        E 80 80 18 00
        E 0 80 1f 00
        E 0 80 54 00
        E 0 80 56 00
        E 0 80 60 00
        E 0 80 62 00
        E 160 90 1a 60
        E 0 90 1f 60
        E 0 90 3d 60
        E 0 90 3e 60
        E 0 90 49 60
        E 0 90 4a 60
        E 0 90 55 60
        E 0 90 56 60
        E 0 90 61 60
        E 0 90 62 60
        E 80 80 1a 00
        E 0 80 1f 00
        E 0 80 3d 00
        E 0 80 3e 00
        E 0 80 49 00
        E 0 80 4a 00
        E 0 80 55 00
        E 0 80 56 00
        E 0 80 61 00
        E 0 80 62 00
        E 160 90 1f 60
        E 0 90 56 60
        E 0 90 62 60
        E 80 80 1f 00
        E 0 80 56 00
        E 0 80 62 00
        E 160 90 18 60
        E 0 90 1f 60
        E 0 90 3e 60
        E 0 90 48 60
        E 0 90 4a 60
        E 0 90 54 60
        E 0 90 56 60
        E 0 90 60 60
        E 0 90 62 60
        E 80 80 18 00
        E 0 80 1f 00
        E 0 80 3e 00
        E 0 80 48 00
        E 0 80 4a 00
        E 0 80 54 00
        E 0 80 56 00
        E 0 80 60 00
        E 0 80 62 00
        E 160 90 18 60
        E 0 90 1f 60
        E 0 90 54 60
        E 0 90 56 60
        E 0 90 60 60
        E 0 90 62 60
        E 80 80 18 00
        E 0 80 1f 00
        E 0 80 54 00
        E 0 80 56 00
        E 0 80 60 00
        E 0 80 62 00
        E 160 90 1a 60
        E 0 90 1f 60
        E 0 90 3d 60
        E 0 90 3e 60
        E 0 90 49 60
        E 0 90 4a 60
        E 0 90 55 60
        E 0 90 56 60
        E 0 90 61 60
        E 0 90 62 60
        E 80 80 1a 00
        E 0 80 1f 00
        E 0 80 3d 00
        E 0 80 3e 00
        E 0 80 49 00
        E 0 80 4a 00
        E 0 80 55 00
        E 0 80 56 00
        E 0 80 61 00
        E 0 80 62 00
        E 160 90 1f 60
        E 0 90 56 60
        E 0 90 62 60
        E 80 80 1f 00
        E 0 80 56 00
        E 0 80 62 00
        E 80 90 18 60
        E 0 90 60 60
        E 80 80 18 00
        E 0 80 60 00
        E 0 90 1f 60
        E 0 90 3e 60
        E 0 90 4a 60
        E 0 90 56 60
        E 0 90 62 60
        E 0 90 78 60
        E 0 90 79 60
        E 0 90 7a 60
        E 0 90 7b 60
        E 0 90 7c 60
        E 80 80 1f 00
        E 0 80 3e 00
        E 0 80 4a 00
        E 0 80 56 00
        E 0 80 62 00
        E 160 90 18 60
        E 0 90 1f 60
        E 0 90 54 60
        E 0 90 56 60
        E 0 90 60 60
        E 0 90 62 60
        E 80 80 18 00
        E 0 80 1f 00
        E 0 80 54 00
        E 0 80 56 00
        E 0 80 60 00
        E 0 80 62 00
        E 160 90 19 60
        E 0 90 1a 60
        E 0 90 1f 60
        E 0 90 3d 60
        E 0 90 3f 60
        E 0 90 49 60
        E 0 90 4b 60
        E 0 90 55 60
        E 0 90 57 60
        E 0 90 61 60
        E 0 90 63 60
        E 80 80 1a 00
        E 0 80 1f 00
        E 0 80 3d 00
        E 0 80 3f 00
        E 0 80 49 00
        E 0 80 4b 00
        E 0 80 55 00
        E 0 80 57 00
        E 0 80 61 00
        E 0 80 63 00
        E 160 90 1f 60
        E 0 90 57 60
        E 0 90 63 60
        E 80 80 1f 00
        E 0 80 57 00
        E 0 80 63 00
        E 160 80 78 00
        E 0 80 79 00
        E 0 80 7a 00
        E 0 80 7b 00
        E 0 80 7c 00
        E 0 80 19 00
        E 0 90 18 60
        E 0 90 1f 60
        E 0 90 3e 60
        E 0 90 48 60
        E 0 90 4a 60
        E 0 90 54 60
        E 0 90 56 60
        E 0 90 60 60
        E 0 90 62 60
        E 80 80 18 00
        E 0 80 1f 00
        E 0 80 3e 00
        E 0 80 48 00
        E 0 80 4a 00
        E 0 80 54 00
        E 0 80 56 00
        E 0 80 60 00
        E 0 80 62 00
        E 160 90 18 60
        E 0 90 1f 60
        E 0 90 54 60
        E 0 90 56 60
        E 0 90 60 60
        E 0 90 62 60
        E 80 80 18 00
        E 0 80 1f 00
        E 0 80 54 00
        E 0 80 56 00
        E 0 80 60 00
        E 0 80 62 00
        E 160 90 1a 60
        E 0 90 1f 60
        E 0 90 3d 60
        E 0 90 3e 60
        E 0 90 49 60
        E 0 90 4a 60
        E 0 90 55 60
        E 0 90 56 60
        E 0 90 61 60
        E 0 90 62 60
        E 80 80 1a 00
        E 0 80 1f 00
        E 0 80 3d 00
        E 0 80 3e 00
        E 0 80 49 00
        E 0 80 4a 00
        E 0 80 55 00
        E 0 80 56 00
        E 0 80 61 00
        E 0 80 62 00
        E 160 90 1f 60
        E 0 90 56 60
        E 0 90 62 60
        E 80 80 1f 00
        E 0 80 56 00
        E 0 80 62 00
        E 80 90 18 60
        E 0 90 60 60
        E 80 80 18 00
        E 0 80 60 00
        E 0 90 1f 60
        E 0 90 3e 60
        E 0 90 4a 60
        E 0 90 56 60
        E 0 90 62 60
        E 80 80 1f 00
        E 0 80 3e 00
        E 0 80 4a 00
        E 0 80 56 00
        E 0 80 62 00
        E 160 90 18 60
        E 0 90 1f 60
        E 0 90 54 60
        E 0 90 56 60
        E 0 90 60 60
        E 0 90 62 60
        E 80 80 18 00
        E 0 80 1f 00
        E 0 80 54 00
        E 0 80 56 00
        E 0 80 60 00
        E 0 80 62 00
        E 160 90 1a 60
        E 0 90 1f 60
        E 0 90 3d 60
        E 0 90 3e 60
        E 0 90 49 60
        E 0 90 4a 60
        E 0 90 55 60
        E 0 90 56 60
        E 0 90 61 60
        E 0 90 62 60
        E 80 80 1a 00
        E 0 80 1f 00
        E 0 80 3d 00
        E 0 80 3e 00
        E 0 80 49 00
        E 0 80 4a 00
        E 0 80 55 00
        E 0 80 56 00
        E 0 80 61 00
        E 0 80 62 00
        E 160 90 1f 60
        E 0 90 56 60
        E 0 90 62 60
        E 80 80 1f 00
        E 0 80 56 00
        E 0 80 62 00
        E 160 90 18 60
        E 0 90 1f 60
        E 0 90 3e 60
        E 0 90 48 60
        E 0 90 4a 60
        E 0 90 54 60
        E 0 90 56 60
        E 0 90 60 60
        E 0 90 62 60
        E 80 80 18 00
        E 0 80 1f 00
        E 0 80 3e 00
        E 0 80 48 00
        E 0 80 4a 00
        E 0 80 54 00
        E 0 80 56 00
        E 0 80 60 00
        E 0 80 62 00
        E 160 90 18 60
        E 0 90 1f 60
        E 0 90 54 60
        E 0 90 56 60
        E 0 90 60 60
        E 0 90 62 60
        E 80 80 18 00
        E 0 80 1f 00
        E 0 80 54 00
        E 0 80 56 00
        E 0 80 60 00
        E 0 80 62 00
        E 160 90 1a 60
        E 0 90 1f 60
        E 0 90 3d 60
        E 0 90 3e 60
        E 0 90 49 60
        E 0 90 4a 60
        E 0 90 55 60
        E 0 90 56 60
        E 0 90 61 60
        E 0 90 62 60
        E 80 80 1a 00
        E 0 80 1f 00
        E 0 80 3d 00
        E 0 80 3e 00
        E 0 80 49 00
        E 0 80 4a 00
        E 0 80 55 00
        E 0 80 56 00
        E 0 80 61 00
        E 0 80 62 00
        E 160 90 1f 60
        E 0 90 56 60
        E 0 90 62 60
        E 80 80 1f 00
        E 0 80 56 00
        E 0 80 62 00
        E 80 90 18 60
        E 0 90 60 60
        E 80 80 18 00
        E 0 80 60 00
        E 0 90 1f 60
        E 0 90 3e 60
        E 0 90 4a 60
        E 0 90 56 60
        E 0 90 62 60
        E 0 90 78 60
        E 0 90 79 60
        E 0 90 7a 60
        E 0 90 7b 60
        E 0 90 7c 60
        E 80 80 1f 00
        E 0 80 3e 00
        E 0 80 4a 00
        E 0 80 56 00
        E 0 80 62 00
        E 160 90 18 60
        E 0 90 1f 60
        E 0 90 54 60
        E 0 90 56 60
        E 0 90 60 60
        E 0 90 62 60
        E 80 80 18 00
        E 0 80 1f 00
        E 0 80 54 00
        E 0 80 56 00
        E 0 80 60 00
        E 0 80 62 00
        E 160 90 19 60
        E 0 90 1a 60
        E 0 90 1f 60
        E 0 90 3d 60
        E 0 90 3f 60
        E 0 90 49 60
        E 0 90 4b 60
        E 0 90 55 60
        E 0 90 57 60
        E 0 90 61 60
        E 0 90 63 60
        E 80 80 1a 00
        E 0 80 1f 00
        E 0 80 3d 00
        E 0 80 3f 00
        E 0 80 49 00
        E 0 80 4b 00
        E 0 80 55 00
        E 0 80 57 00
        E 0 80 61 00
        E 0 80 63 00
        E 160 90 1f 60
        E 0 90 57 60
        E 0 90 63 60
        E 80 80 1f 00
        E 0 80 57 00
        E 0 80 63 00
        E 160 80 78 00
        E 0 80 79 00
        E 0 80 7a 00
        E 0 80 7b 00
        E 0 80 7c 00
        E 0 80 19 00
        E 0 90 18 60
        E 0 90 1f 60
        E 0 90 3e 60
        E 0 90 48 60
        E 0 90 4a 60
        E 0 90 54 60
        E 0 90 56 60
        E 0 90 60 60
        E 0 90 62 60
        E 80 80 18 00
        E 0 80 1f 00
        E 0 80 3e 00
        E 0 80 48 00
        E 0 80 4a 00
        E 0 80 54 00
        E 0 80 56 00
        E 0 80 60 00
        E 0 80 62 00
        E 160 90 18 60
        E 0 90 1f 60
        E 0 90 54 60
        E 0 90 56 60
        E 0 90 60 60
        E 0 90 62 60
        E 80 80 18 00
        E 0 80 1f 00
        E 0 80 54 00
        E 0 80 56 00
        E 0 80 60 00
        E 0 80 62 00
        E 160 90 1a 60
        E 0 90 1f 60
        E 0 90 3d 60
        E 0 90 3e 60
        E 0 90 49 60
        E 0 90 4a 60
        E 0 90 55 60
        E 0 90 56 60
        E 0 90 61 60
        E 0 90 62 60
        E 80 80 1a 00
        E 0 80 1f 00
        E 0 80 3d 00
        E 0 80 3e 00
        E 0 80 49 00
        E 0 80 4a 00
        E 0 80 55 00
        E 0 80 56 00
        E 0 80 61 00
        E 0 80 62 00
        E 160 90 1f 60
        E 0 90 56 60
        E 0 90 62 60
        E 80 80 1f 00
        E 0 80 56 00
        E 0 80 62 00
        E 80 90 18 60
        E 0 90 60 60
        E 80 80 18 00
        E 0 80 60 00
        E 0 90 1f 60
        E 0 90 3e 60
        E 0 90 4a 60
        E 0 90 56 60
        E 0 90 62 60
        E 80 80 1f 00
        E 0 80 3e 00
        E 0 80 4a 00
        E 0 80 56 00
        E 0 80 62 00
        E 160 90 18 60
        E 0 90 1f 60
        E 0 90 54 60
        E 0 90 56 60
        E 0 90 60 60
        E 0 90 62 60
        E 80 80 18 00
        E 0 80 1f 00
        E 0 80 54 00
        E 0 80 56 00
        E 0 80 60 00
        E 0 80 62 00
        E 160 90 1a 60
        E 0 90 1f 60
        E 0 90 3d 60
        E 0 90 3e 60
        E 0 90 49 60
        E 0 90 4a 60
        E 0 90 55 60
        E 0 90 56 60
        E 0 90 61 60
        E 0 90 62 60
        E 80 80 1a 00
        E 0 80 1f 00
        E 0 80 3d 00
        E 0 80 3e 00
        E 0 80 49 00
        E 0 80 4a 00
        E 0 80 55 00
        E 0 80 56 00
        E 0 80 61 00
        E 0 80 62 00
        E 160 90 1f 60
        E 0 90 56 60
        E 0 90 62 60
        E 80 80 1f 00
        E 0 80 56 00
        E 0 80 62 00
        E 160 90 18 60
        E 0 90 1f 60
        E 0 90 3e 60
        E 0 90 48 60
        E 0 90 4a 60
        E 0 90 54 60
        E 0 90 56 60
        E 0 90 60 60
        E 0 90 62 60
        E 80 80 18 00
        E 0 80 1f 00
        E 0 80 3e 00
        E 0 80 48 00
        E 0 80 4a 00
        E 0 80 54 00
        E 0 80 56 00
        E 0 80 60 00
        E 0 80 62 00
        E 160 90 18 60
        E 0 90 1f 60
        E 0 90 54 60
        E 0 90 56 60
        E 0 90 60 60
        E 0 90 62 60
        E 80 80 18 00
        E 0 80 1f 00
        E 0 80 54 00
        E 0 80 56 00
        E 0 80 60 00
        E 0 80 62 00
        E 160 90 1a 60
        E 0 90 1f 60
        E 0 90 3d 60
        E 0 90 3e 60
        E 0 90 49 60
        E 0 90 4a 60
        E 0 90 55 60
        E 0 90 56 60
        E 0 90 61 60
        E 0 90 62 60
        E 80 80 1a 00
        E 0 80 1f 00
        E 0 80 3d 00
        E 0 80 3e 00
        E 0 80 49 00
        E 0 80 4a 00
        E 0 80 55 00
        E 0 80 56 00
        E 0 80 61 00
        E 0 80 62 00
        E 160 90 1f 60
        E 0 90 56 60
        E 0 90 62 60
        E 80 80 1f 00
        E 0 80 56 00
        E 0 80 62 00
        E 80 90 18 60
        E 0 90 60 60
        E 80 80 18 00
        E 0 80 60 00
        E 0 90 1f 60
        E 0 90 3e 60
        E 0 90 4a 60
        E 0 90 56 60
        E 0 90 62 60
        E 0 90 78 60
        E 0 90 79 60
        E 0 90 7a 60
        E 0 90 7b 60
        E 0 90 7c 60
        E 80 80 1f 00
        E 0 80 3e 00
        E 0 80 4a 00
        E 0 80 56 00
        E 0 80 62 00
        E 160 90 18 60
        E 0 90 1f 60
        E 0 90 54 60
        E 0 90 56 60
        E 0 90 60 60
        E 0 90 62 60
        E 80 80 18 00
        E 0 80 1f 00
        E 0 80 54 00
        E 0 80 56 00
        E 0 80 60 00
        E 0 80 62 00
        E 160 90 19 60
        E 0 90 1a 60
        E 0 90 1f 60
        E 0 90 3d 60
        E 0 90 3f 60
        E 0 90 49 60
        E 0 90 4b 60
        E 0 90 55 60
        E 0 90 57 60
        E 0 90 61 60
        E 0 90 63 60
        E 80 80 1a 00
        E 0 80 1f 00
        E 0 80 3d 00
        E 0 80 3f 00
        E 0 80 49 00
        E 0 80 4b 00
        E 0 80 55 00
        E 0 80 57 00
        E 0 80 61 00
        E 0 80 63 00
        E 160 90 1f 60
        E 0 90 57 60
        E 0 90 63 60
        E 80 80 1f 00
        E 0 80 57 00
        E 0 80 63 00
        E 160 80 78 00
        E 0 80 79 00
        E 0 80 7a 00
        E 0 80 7b 00
        E 0 80 7c 00
        E 0 80 19 00
        E 0 90 18 60
        E 0 90 1f 60
        E 0 90 3e 60
        E 0 90 48 60
        E 0 90 4a 60
        E 0 90 54 60
        E 0 90 56 60
        E 0 90 60 60
        E 0 90 62 60
        E 80 80 18 00
        E 0 80 1f 00
        E 0 80 3e 00
        E 0 80 48 00
        E 0 80 4a 00
        E 0 80 54 00
        E 0 80 56 00
        E 0 80 60 00
        E 0 80 62 00
        E 160 90 18 60
        E 0 90 1f 60
        E 0 90 54 60
        E 0 90 56 60
        E 0 90 60 60
        E 0 90 62 60
        E 80 80 18 00
        E 0 80 1f 00
        E 0 80 54 00
        E 0 80 56 00
        E 0 80 60 00
        E 0 80 62 00
        E 160 90 1a 60
        E 0 90 1f 60
        E 0 90 3d 60
        E 0 90 3e 60
        E 0 90 49 60
        E 0 90 4a 60
        E 0 90 55 60
        E 0 90 56 60
        E 0 90 61 60
        E 0 90 62 60
        E 80 80 1a 00
        E 0 80 1f 00
        E 0 80 3d 00
        E 0 80 3e 00
        E 0 80 49 00
        E 0 80 4a 00
        E 0 80 55 00
        E 0 80 56 00
        E 0 80 61 00
        E 0 80 62 00
        E 160 90 1f 60
        E 0 90 56 60
        E 0 90 62 60
        E 80 80 1f 00
        E 0 80 56 00
        E 0 80 62 00
        E 80 90 18 60
        E 0 90 60 60
        E 80 80 18 00
        E 0 80 60 00
        E 0 90 1f 60
        E 0 90 3e 60
        E 0 90 4a 60
        E 0 90 56 60
        E 0 90 62 60
        E 80 80 1f 00
        E 0 80 3e 00
        E 0 80 4a 00
        E 0 80 56 00
        E 0 80 62 00
        E 160 90 18 60
        E 0 90 1f 60
        E 0 90 54 60
        E 0 90 56 60
        E 0 90 60 60
        E 0 90 62 60
        E 80 80 18 00
        E 0 80 1f 00
        E 0 80 54 00
        E 0 80 56 00
        E 0 80 60 00
        E 0 80 62 00
        E 160 90 1a 60
        E 0 90 1f 60
        E 0 90 3d 60
        E 0 90 3e 60
        E 0 90 49 60
        E 0 90 4a 60
        E 0 90 55 60
        E 0 90 56 60
        E 0 90 61 60
        E 0 90 62 60
        E 80 80 1a 00
        E 0 80 1f 00
        E 0 80 3d 00
        E 0 80 3e 00
        E 0 80 49 00
        E 0 80 4a 00
        E 0 80 55 00
        E 0 80 56 00
        E 0 80 61 00
        E 0 80 62 00
        E 160 90 1f 60
        E 0 90 56 60
        E 0 90 62 60
        E 80 80 1f 00
        E 0 80 56 00
        E 0 80 62 00
        E 160 90 18 60
        E 0 90 1f 60
        E 0 90 3e 60
        E 0 90 48 60
        E 0 90 4a 60
        E 0 90 54 60
        E 0 90 56 60
        E 0 90 60 60
        E 0 90 62 60
        E 80 80 18 00
        E 0 80 1f 00
        E 0 80 3e 00
        E 0 80 48 00
        E 0 80 4a 00
        E 0 80 54 00
        E 0 80 56 00
        E 0 80 60 00
        E 0 80 62 00
        E 160 90 18 60
        E 0 90 1f 60
        E 0 90 54 60
        E 0 90 56 60
        E 0 90 60 60
        E 0 90 62 60
        E 80 80 18 00
        E 0 80 1f 00
        E 0 80 54 00
        E 0 80 56 00
        E 0 80 60 00
        E 0 80 62 00
        E 160 90 1a 60
        E 0 90 1f 60
        E 0 90 3d 60
        E 0 90 3e 60
        E 0 90 49 60
        E 0 90 4a 60
        E 0 90 55 60
        E 0 90 56 60
        E 0 90 61 60
        E 0 90 62 60
        E 80 80 1a 00
        E 0 80 1f 00
        E 0 80 3d 00
        E 0 80 3e 00
        E 0 80 49 00
        E 0 80 4a 00
        E 0 80 55 00
        E 0 80 56 00
        E 0 80 61 00
        E 0 80 62 00
        E 160 90 1f 60
        E 0 90 56 60
        E 0 90 62 60
        E 80 80 1f 00
        E 0 80 56 00
        E 0 80 62 00
        E 80 90 18 60
        E 0 90 60 60
        E 80 80 18 00
        E 0 80 60 00
        E 0 90 1f 60
        E 0 90 3e 60
        E 0 90 4a 60
        E 0 90 56 60
        E 0 90 62 60
        E 0 90 78 60
        E 0 90 79 60
        E 0 90 7a 60
        E 0 90 7b 60
        E 0 90 7c 60
        E 80 80 1f 00
        E 0 80 3e 00
        E 0 80 4a 00
        E 0 80 56 00
        E 0 80 62 00
        E 160 90 18 60
        E 0 90 1f 60
        E 0 90 54 60
        E 0 90 56 60
        E 0 90 60 60
        E 0 90 62 60
        E 80 80 18 00
        E 0 80 1f 00
        E 0 80 54 00
        E 0 80 56 00
        E 0 80 60 00
        E 0 80 62 00
        E 160 90 1a 60
        E 0 90 1f 60
        E 0 90 3d 60
        E 0 90 3e 60
        E 0 90 49 60
        E 0 90 4a 60
        E 0 90 55 60
        E 0 90 56 60
        E 0 90 61 60
        E 0 90 62 60
        E 80 80 1a 00
        E 0 80 1f 00
        E 0 80 3d 00
        E 0 80 3e 00
        E 0 80 49 00
        E 0 80 4a 00
        E 0 80 55 00
        E 0 80 56 00
        E 0 80 61 00
        E 0 80 62 00
        E 160 90 1f 60
        E 0 90 56 60
        E 0 90 62 60
        E 80 80 1f 00
        E 0 80 56 00
        E 0 80 62 00
        E 160 80 78 00
        E 0 80 79 00
        E 0 80 7a 00
        E 0 80 7b 00
        E 0 80 7c 00
        E 0 90 18 60
        E 0 90 26 60
        E 0 90 40 60
        E 0 90 48 60
        E 0 90 4c 60
        E 0 90 54 60
        E 0 90 58 60
        E 0 90 60 60
        E 0 90 64 60
        E 80 80 18 00
        E 0 80 26 00
        E 0 80 40 00
        E 0 80 48 00
        E 0 80 4c 00
        E 0 80 54 00
        E 0 80 58 00
        E 0 80 60 00
        E 0 80 64 00
        E 160 90 18 60
        E 0 90 2a 60
        E 0 90 54 60
        E 0 90 57 60
        E 0 90 60 60
        E 0 90 63 60
        E 80 80 18 00
        E 0 80 2a 00
        E 0 80 54 00
        E 0 80 57 00
        E 0 80 60 00
        E 0 80 63 00
        E 160 90 1a 60
        E 0 90 2a 60
        E 0 90 3d 60
        E 0 90 3f 60
        E 0 90 49 60
        E 0 90 4b 60
        E 0 90 55 60
        E 0 90 57 60
        E 0 90 61 60
        E 0 90 63 60
        E 80 80 1a 00
        E 0 80 2a 00
        E 0 80 3d 00
        E 0 80 3f 00
        E 0 80 49 00
        E 0 80 4b 00
        E 0 80 55 00
        E 0 80 57 00
        E 0 80 61 00
        E 0 80 63 00
        E 160 90 2a 60
        E 0 90 57 60
        E 0 90 63 60
        E 80 80 2a 00
        E 0 80 57 00
        E 0 80 63 00
        E 80 90 1c 60
        E 0 90 61 60
        E 40 80 1c 00
        E 0 80 61 00
        E 0 90 1c 60
        E 0 90 61 60
        E 40 80 1c 00
        E 0 80 61 00
        E 0 90 18 60
        E 0 90 2a 60
        E 0 90 3f 60
        E 0 90 48 60
        E 0 90 4b 60
        E 0 90 54 60
        E 0 90 57 60
        E 0 90 60 60
        E 0 90 63 60
        E 80 80 18 00
        E 0 80 2a 00
        E 0 80 3f 00
        E 0 80 48 00
        E 0 80 4b 00
        E 0 80 54 00
        E 0 80 57 00
        E 0 80 60 00
        E 0 80 63 00
        E 160 90 18 60
        E 0 90 2a 60
        E 0 90 54 60
        E 0 90 57 60
        E 0 90 60 60
        E 0 90 63 60
        E 80 80 18 00
        E 0 80 2a 00
        E 0 80 54 00
        E 0 80 57 00
        E 0 80 60 00
        E 0 80 63 00
        E 160 90 1a 60
        E 0 90 2a 60
        E 0 90 3d 60
        E 0 90 3f 60
        E 0 90 49 60
        E 0 90 4b 60
        E 0 90 55 60
        E 0 90 57 60
        E 0 90 61 60
        E 0 90 63 60
        E 80 80 1a 00
        E 0 80 2a 00
        E 0 80 3d 00
        E 0 80 3f 00
        E 0 80 49 00
        E 0 80 4b 00
        E 0 80 55 00
        E 0 80 57 00
        E 0 80 61 00
        E 0 80 63 00
        E 160 90 2a 60
        E 0 90 57 60
        E 0 90 63 60
        E 80 80 2a 00
        E 0 80 57 00
        E 0 80 63 00
        E 80 90 1c 60
        E 0 90 61 60
        E 40 80 1c 00
        E 0 80 61 00
        E 0 90 1c 60
        E 0 90 61 60
        E 40 80 1c 00
        E 0 80 61 00
        E 0 90 18 60
        E 0 90 2a 60
        E 0 90 3f 60
        E 0 90 48 60
        E 0 90 4b 60
        E 0 90 54 60
        E 0 90 57 60
        E 0 90 60 60
        E 0 90 63 60
        E 80 80 18 00
        E 0 80 2a 00
        E 0 80 3f 00
        E 0 80 48 00
        E 0 80 4b 00
        E 0 80 54 00
        E 0 80 57 00
        E 0 80 60 00
        E 0 80 63 00
        E 160 90 18 60
        E 0 90 2a 60
        E 0 90 54 60
        E 0 90 57 60
        E 0 90 60 60
        E 0 90 63 60
        E 80 80 18 00
        E 0 80 2a 00
        E 0 80 54 00
        E 0 80 57 00
        E 0 80 60 00
        E 0 80 63 00
        E 160 90 1a 60
        E 0 90 2a 60
        E 0 90 3d 60
        E 0 90 3f 60
        E 0 90 49 60
        E 0 90 4b 60
        E 0 90 55 60
        E 0 90 57 60
        E 0 90 61 60
        E 0 90 63 60
        E 80 80 1a 00
        E 0 80 2a 00
        E 0 80 3d 00
        E 0 80 3f 00
        E 0 80 49 00
        E 0 80 4b 00
        E 0 80 55 00
        E 0 80 57 00
        E 0 80 61 00
        E 0 80 63 00
        E 160 90 2a 60
        E 0 90 57 60
        E 0 90 63 60
        E 80 80 2a 00
        E 0 80 57 00
        E 0 80 63 00
        E 80 90 1c 60
        E 0 90 61 60
        E 40 80 1c 00
        E 0 80 61 00
        E 0 90 1c 60
        E 0 90 61 60
        E 40 80 1c 00
        E 0 80 61 00
        E 0 90 18 60
        E 0 90 2a 60
        E 0 90 3f 60
        E 0 90 48 60
        E 0 90 4b 60
        E 0 90 54 60
        E 0 90 57 60
        E 0 90 60 60
        E 0 90 63 60
        E 0 90 78 60
        E 0 90 79 60
        E 0 90 7a 60
        E 0 90 7b 60
        E 0 90 7c 60
        E 80 80 18 00
        E 0 80 2a 00
        E 0 80 3f 00
        E 0 80 48 00
        E 0 80 4b 00
        E 0 80 54 00
        E 0 80 57 00
        E 0 80 60 00
        E 0 80 63 00
        E 160 90 18 60
        E 0 90 2a 60
        E 0 90 54 60
        E 0 90 57 60
        E 0 90 60 60
        E 0 90 63 60
        E 80 80 18 00
        E 0 80 2a 00
        E 0 80 54 00
        E 0 80 57 00
        E 0 80 60 00
        E 0 80 63 00
        E 160 90 1a 60
        E 0 90 2a 60
        E 0 90 3d 60
        E 0 90 3f 60
        E 0 90 49 60
        E 0 90 4b 60
        E 0 90 55 60
        E 0 90 57 60
        E 0 90 61 60
        E 0 90 63 60
        E 80 80 1a 00
        E 0 80 2a 00
        E 0 80 3d 00
        E 0 80 3f 00
        E 0 80 49 00
        E 0 80 4b 00
        E 0 80 55 00
        E 0 80 57 00
        E 0 80 61 00
        E 0 80 63 00
        E 160 90 2a 60
        E 0 90 57 60
        E 0 90 63 60
        E 80 80 2a 00
        E 0 80 57 00
        E 0 80 63 00
        E 80 90 1c 60
        E 0 90 61 60
        E 40 80 1c 00
        E 0 80 61 00
        E 0 90 1c 60
        E 0 90 61 60
        E 40 80 78 00
        E 0 80 79 00
        E 0 80 7a 00
        E 0 80 7b 00
        E 0 80 7c 00
        E 0 80 1c 00
        E 0 80 61 00
        E 0 90 18 60
        E 0 90 2a 60
        E 0 90 3f 60
        E 0 90 48 60
        E 0 90 4b 60
        E 0 90 54 60
        E 0 90 57 60
        E 0 90 60 60
        E 0 90 63 60
        E 0 90 74 60
        E 80 80 18 00
        E 0 80 2a 00
        E 0 80 3f 00
        E 0 80 48 00
        E 0 80 4b 00
        E 0 80 54 00
        E 0 80 57 00
        E 0 80 60 00
        E 0 80 63 00
        E 160 90 18 60
        E 0 90 2a 60
        E 0 90 54 60
        E 0 90 57 60
        E 0 90 60 60
        E 0 90 63 60
        E 80 80 18 00
        E 0 80 2a 00
        E 0 80 54 00
        E 0 80 57 00
        E 0 80 60 00
        E 0 80 63 00
        E 160 90 1a 60
        E 0 90 2a 60
        E 0 90 3d 60
        E 0 90 3f 60
        E 0 90 49 60
        E 0 90 4b 60
        E 0 90 55 60
        E 0 90 57 60
        E 0 90 61 60
        E 0 90 63 60
        E 80 80 1a 00
        E 0 80 2a 00
        E 0 80 3d 00
        E 0 80 3f 00
        E 0 80 49 00
        E 0 80 4b 00
        E 0 80 55 00
        E 0 80 57 00
        E 0 80 61 00
        E 0 80 63 00
        E 160 90 2a 60
        E 0 90 57 60
        E 0 90 63 60
        E 80 80 2a 00
        E 0 80 57 00
        E 0 80 63 00
        E 80 90 1c 60
        E 0 90 61 60
        E 40 80 1c 00
        E 0 80 61 00
        E 0 90 1c 60
        E 0 90 61 60
        E 40 80 1c 00
        E 0 80 61 00
        E 0 90 18 60
        E 0 90 2a 60
        E 0 90 3f 60
        E 0 90 48 60
        E 0 90 4b 60
        E 0 90 54 60
        E 0 90 57 60
        E 0 90 60 60
        E 0 90 63 60
        E 80 80 18 00
        E 0 80 2a 00
        E 0 80 3f 00
        E 0 80 48 00
        E 0 80 4b 00
        E 0 80 54 00
        E 0 80 57 00
        E 0 80 60 00
        E 0 80 63 00
        E 160 90 18 60
        E 0 90 2a 60
        E 0 90 54 60
        E 0 90 57 60
        E 0 90 60 60
        E 0 90 63 60
        E 80 80 18 00
        E 0 80 2a 00
        E 0 80 54 00
        E 0 80 57 00
        E 0 80 60 00
        E 0 80 63 00
        E 160 90 1a 60
        E 0 90 2a 60
        E 0 90 3d 60
        E 0 90 3f 60
        E 0 90 49 60
        E 0 90 4b 60
        E 0 90 55 60
        E 0 90 57 60
        E 0 90 61 60
        E 0 90 63 60
        E 80 80 1a 00
        E 0 80 2a 00
        E 0 80 3d 00
        E 0 80 3f 00
        E 0 80 49 00
        E 0 80 4b 00
        E 0 80 55 00
        E 0 80 57 00
        E 0 80 61 00
        E 0 80 63 00
        E 160 90 2a 60
        E 0 90 57 60
        E 0 90 63 60
        E 80 80 2a 00
        E 0 80 57 00
        E 0 80 63 00
        E 80 90 1c 60
        E 0 90 61 60
        E 40 80 1c 00
        E 0 80 61 00
        E 0 90 1c 60
        E 0 90 61 60
        E 40 80 1c 00
        E 0 80 61 00
        E 0 90 18 60
        E 0 90 2a 60
        E 0 90 3f 60
        E 0 90 48 60
        E 0 90 4b 60
        E 0 90 54 60
        E 0 90 57 60
        E 0 90 60 60
        E 0 90 63 60
        E 80 80 18 00
        E 0 80 2a 00
        E 0 80 3f 00
        E 0 80 48 00
        E 0 80 4b 00
        E 0 80 54 00
        E 0 80 57 00
        E 0 80 60 00
        E 0 80 63 00
        E 40 80 74 00
        E 120 90 18 60
        E 0 90 2a 60
        E 0 90 54 60
        E 0 90 57 60
        E 0 90 60 60
        E 0 90 63 60
        E 80 80 18 00
        E 0 80 2a 00
        E 0 80 54 00
        E 0 80 57 00
        E 0 80 60 00
        E 0 80 63 00
        E 160 90 1a 60
        E 0 90 2a 60
        E 0 90 3d 60
        E 0 90 3f 60
        E 0 90 49 60
        E 0 90 4b 60
        E 0 90 55 60
        E 0 90 57 60
        E 0 90 61 60
        E 0 90 63 60
        E 80 80 1a 00
        E 0 80 2a 00
        E 0 80 3d 00
        E 0 80 3f 00
        E 0 80 49 00
        E 0 80 4b 00
        E 0 80 55 00
        E 0 80 57 00
        E 0 80 61 00
        E 0 80 63 00
        E 160 90 2a 60
        E 0 90 57 60
        E 0 90 63 60
        E 80 80 2a 00
        E 0 80 57 00
        E 0 80 63 00
        E 80 90 1c 60
        E 0 90 61 60
        E 40 80 1c 00
        E 0 80 61 00
        E 0 90 1c 60
        E 0 90 61 60
        E 40 80 1c 00
        E 0 80 61 00
        E 0 90 18 60
        E 0 90 2a 60
        E 0 90 3f 60
        E 0 90 48 60
        E 0 90 4b 60
        E 0 90 54 60
        E 0 90 57 60
        E 0 90 60 60
        E 0 90 63 60
        E 0 90 78 60
        E 0 90 79 60
        E 0 90 7a 60
        E 0 90 7b 60
        E 0 90 7c 60
        E 80 80 18 00
        E 0 80 2a 00
        E 0 80 3f 00
        E 0 80 48 00
        E 0 80 4b 00
        E 0 80 54 00
        E 0 80 57 00
        E 0 80 60 00
        E 0 80 63 00
        E 160 90 18 60
        E 0 90 2a 60
        E 0 90 54 60
        E 0 90 57 60
        E 0 90 60 60
        E 0 90 63 60
        E 80 80 18 00
        E 0 80 2a 00
        E 0 80 54 00
        E 0 80 57 00
        E 0 80 60 00
        E 0 80 63 00
        E 160 90 1a 60
        E 0 90 2a 60
        E 0 90 3d 60
        E 0 90 3f 60
        E 0 90 49 60
        E 0 90 4b 60
        E 0 90 55 60
        E 0 90 57 60
        E 0 90 61 60
        E 0 90 63 60
        E 80 80 1a 00
        E 0 80 2a 00
        E 0 80 3d 00
        E 0 80 3f 00
        E 0 80 49 00
        E 0 80 4b 00
        E 0 80 55 00
        E 0 80 57 00
        E 0 80 61 00
        E 0 80 63 00
        E 160 90 2a 60
        E 0 90 57 60
        E 0 90 63 60
        E 80 80 2a 00
        E 0 80 57 00
        E 0 80 63 00
        <X 160 0
          /wFbaW50ZW5zZV0=
        >
        E 0 80 78 00
        E 0 80 79 00
        E 0 80 7a 00
        E 0 80 7b 00
        E 0 80 7c 00
        E 0 90 18 60
        E 0 90 19 60
        E 0 90 26 60
        E 0 90 40 60
        E 0 90 48 60
        E 0 90 4c 60
        E 0 90 54 60
        E 0 90 58 60
        E 0 90 60 60
        E 0 90 64 60
        E 80 80 26 00
        E 0 80 40 00
        E 0 80 4c 00
        E 0 80 58 00
        E 0 80 64 00
        E 40 80 18 00
        E 0 80 48 00
        E 0 80 54 00
        E 0 80 60 00
        E 0 90 18 60
        E 0 90 60 60
        E 120 80 18 00
        E 0 80 60 00
        E 0 90 1a 60
        E 0 90 1f 60
        E 0 90 55 60
        E 0 90 56 60
        E 0 90 61 60
        E 0 90 62 60
        E 120 80 1a 00
        E 0 80 1f 00
        E 0 80 55 00
        E 0 80 56 00
        E 0 80 61 00
        E 0 80 62 00
        E 120 90 1a 60
        E 0 90 1f 60
        E 0 90 3d 60
        E 0 90 3e 60
        E 0 90 49 60
        E 0 90 4a 60
        E 0 90 55 60
        E 0 90 56 60
        E 0 90 61 60
        E 0 90 62 60
        E 120 80 1a 00
        E 0 80 1f 00
        E 0 80 3d 00
        E 0 80 3e 00
        E 0 80 49 00
        E 0 80 4a 00
        E 0 80 55 00
        E 0 80 56 00
        E 0 80 61 00
        E 0 80 62 00
        E 120 90 1f 60
        E 0 90 56 60
        E 0 90 62 60
        E 120 80 1f 00
        E 0 80 56 00
        E 0 80 62 00
        E 0 90 1a 60
        E 0 90 61 60
        E 120 80 1a 00
        E 0 80 61 00
        E 0 90 18 60
        E 0 90 1f 60
        E 0 90 3e 60
        E 0 90 48 60
        E 0 90 4a 60
        E 0 90 54 60
        E 0 90 56 60
        E 0 90 60 60
        E 0 90 62 60
        E 120 80 18 00
        E 0 80 1f 00
        E 0 80 3e 00
        E 0 80 48 00
        E 0 80 4a 00
        E 0 80 54 00
        E 0 80 56 00
        E 0 80 60 00
        E 0 80 62 00
        E 120 90 1b 60
        E 0 90 55 60
        E 0 90 61 60
        E 120 80 1b 00
        E 0 80 55 00
        E 0 80 61 00
        E 0 90 1a 60
        E 0 90 61 60
        E 120 80 1a 00
        E 0 80 61 00
        E 0 90 1b 60
        E 0 90 3d 60
        E 0 90 49 60
        E 0 90 55 60
        E 0 90 61 60
        E 120 80 1b 00
        E 0 80 3d 00
        E 0 80 49 00
        E 0 80 55 00
        E 0 80 61 00
        E 0 90 1a 60
        E 0 90 61 60
        E 120 80 1a 00
        E 0 80 61 00
        E 0 90 1b 60
        E 0 90 55 60
        E 0 90 61 60
        E 120 80 1b 00
        E 0 80 55 00
        E 0 80 61 00
        E 0 90 1a 60
        E 0 90 61 60
        E 120 80 1a 00
        E 0 80 61 00
        E 0 90 18 60
        E 0 90 1f 60
        E 0 90 3e 60
        E 0 90 48 60
        E 0 90 4a 60
        E 0 90 54 60
        E 0 90 56 60
        E 0 90 60 60
        E 0 90 62 60
        E 120 80 18 00
        E 0 80 1f 00
        E 0 80 3e 00
        E 0 80 48 00
        E 0 80 4a 00
        E 0 80 54 00
        E 0 80 56 00
        E 0 80 60 00
        E 0 80 62 00
        E 0 90 18 60
        E 0 90 60 60
        E 120 80 18 00
        E 0 80 60 00
        E 0 90 1a 60
        E 0 90 1f 60
        E 0 90 55 60
        E 0 90 56 60
        E 0 90 61 60
        E 0 90 62 60
        E 120 80 1a 00
        E 0 80 1f 00
        E 0 80 55 00
        E 0 80 56 00
        E 0 80 61 00
        E 0 80 62 00
        E 120 90 1a 60
        E 0 90 1f 60
        E 0 90 3d 60
        E 0 90 3e 60
        E 0 90 49 60
        E 0 90 4a 60
        E 0 90 55 60
        E 0 90 56 60
        E 0 90 61 60
        E 0 90 62 60
        E 120 80 1a 00
        E 0 80 1f 00
        E 0 80 3d 00
        E 0 80 3e 00
        E 0 80 49 00
        E 0 80 4a 00
        E 0 80 55 00
        E 0 80 56 00
        E 0 80 61 00
        E 0 80 62 00
        E 120 90 1f 60
        E 0 90 56 60
        E 0 90 62 60
        E 120 80 1f 00
        E 0 80 56 00
        E 0 80 62 00
        E 0 90 1a 60
        E 0 90 61 60
        E 120 80 1a 00
        E 0 80 61 00
        E 0 90 18 60
        E 0 90 1f 60
        E 0 90 3e 60
        E 0 90 48 60
        E 0 90 4a 60
        E 0 90 54 60
        E 0 90 56 60
        E 0 90 60 60
        E 0 90 62 60
        E 0 90 78 60
        E 0 90 79 60
        E 0 90 7a 60
        E 0 90 7b 60
        E 0 90 7c 60
        E 120 80 18 00
        E 0 80 1f 00
        E 0 80 3e 00
        E 0 80 48 00
        E 0 80 4a 00
        E 0 80 54 00
        E 0 80 56 00
        E 0 80 60 00
        E 0 80 62 00
        E 0 90 18 60
        E 0 90 60 60
        E 120 80 19 00
        E 0 80 18 00
        E 0 80 60 00
        E 0 90 1a 60
        E 0 90 33 60
        E 0 90 55 60
        E 0 90 57 60
        E 0 90 61 60
        E 0 90 63 60
        E 0 90 6f 60
        E 120 80 1a 00
        E 0 80 33 00
        E 0 80 55 00
        E 0 80 57 00
        E 0 80 61 00
        E 0 80 63 00
        E 0 90 1a 60
        E 0 90 33 60
        E 0 90 61 60
        E 0 90 63 60
        E 120 80 1a 00
        E 0 80 33 00
        E 0 80 61 00
        E 0 80 63 00
        E 120 90 18 60
        E 0 90 60 60
        E 120 80 18 00
        E 0 80 60 00
        E 0 90 1a 60
        E 0 90 33 60
        E 0 90 55 60
        E 0 90 57 60
        E 0 90 61 60
        E 0 90 63 60
        E 120 80 1a 00
        E 0 80 33 00
        E 0 80 55 00
        E 0 80 57 00
        E 0 80 61 00
        E 0 80 63 00
        E 0 90 1a 60
        E 0 90 33 60
        E 0 90 61 60
        E 0 90 63 60
        E 120 80 78 00
        E 0 80 79 00
        E 0 80 7a 00
        E 0 80 7b 00
        E 0 80 7c 00
        E 0 80 6f 00
        E 0 80 1a 00
        E 0 80 33 00
        E 0 80 61 00
        E 0 80 63 00
        E 0 90 18 60
        E 0 90 19 60
        E 0 90 26 60
        E 0 90 40 60
        E 0 90 48 60
        E 0 90 4c 60
        E 0 90 54 60
        E 0 90 58 60
        E 0 90 60 60
        E 0 90 64 60
        E 80 80 18 00
        E 0 80 26 00
        E 0 80 40 00
        E 0 80 48 00
        E 0 80 4c 00
        E 0 80 54 00
        E 0 80 58 00
        E 0 80 60 00
        E 0 80 64 00
        E 160 90 18 60
        E 0 90 1f 60
        E 0 90 54 60
        E 0 90 56 60
        E 0 90 60 60
        E 0 90 62 60
        E 80 80 18 00
        E 0 80 1f 00
        E 0 80 54 00
        E 0 80 56 00
        E 0 80 60 00
        E 0 80 62 00
        E 160 90 1a 60
        E 0 90 1f 60
        E 0 90 3d 60
        E 0 90 3e 60
        E 0 90 49 60
        E 0 90 4a 60
        E 0 90 55 60
        E 0 90 56 60
        E 0 90 61 60
        E 0 90 62 60
        E 80 80 1a 00
        E 0 80 1f 00
        E 0 80 3d 00
        E 0 80 3e 00
        E 0 80 49 00
        E 0 80 4a 00
        E 0 80 55 00
        E 0 80 56 00
        E 0 80 61 00
        E 0 80 62 00
        E 160 90 1f 60
        E 0 90 56 60
        E 0 90 62 60
        E 80 80 1f 00
        E 0 80 56 00
        E 0 80 62 00
        E 80 90 18 60
        E 0 90 60 60
        E 80 80 18 00
        E 0 80 60 00
        E 0 90 1f 60
        E 0 90 3e 60
        E 0 90 4a 60
        E 0 90 56 60
        E 0 90 62 60
        E 80 80 1f 00
        E 0 80 3e 00
        E 0 80 4a 00
        E 0 80 56 00
        E 0 80 62 00
        E 160 90 18 60
        E 0 90 1f 60
        E 0 90 54 60
        E 0 90 56 60
        E 0 90 60 60
        E 0 90 62 60
        E 80 80 18 00
        E 0 80 1f 00
        E 0 80 54 00
        E 0 80 56 00
        E 0 80 60 00
        E 0 80 62 00
        E 160 90 1a 60
        E 0 90 1f 60
        E 0 90 3d 60
        E 0 90 3e 60
        E 0 90 49 60
        E 0 90 4a 60
        E 0 90 55 60
        E 0 90 56 60
        E 0 90 61 60
        E 0 90 62 60
        E 80 80 1a 00
        E 0 80 1f 00
        E 0 80 3d 00
        E 0 80 3e 00
        E 0 80 49 00
        E 0 80 4a 00
        E 0 80 55 00
        E 0 80 56 00
        E 0 80 61 00
        E 0 80 62 00
        E 160 90 1f 60
        E 0 90 56 60
        E 0 90 62 60
        E 80 80 1f 00
        E 0 80 56 00
        E 0 80 62 00
        E 160 90 18 60
        E 0 90 1f 60
        E 0 90 3e 60
        E 0 90 48 60
        E 0 90 4a 60
        E 0 90 54 60
        E 0 90 56 60
        E 0 90 60 60
        E 0 90 62 60
        E 80 80 18 00
        E 0 80 1f 00
        E 0 80 3e 00
        E 0 80 48 00
        E 0 80 4a 00
        E 0 80 54 00
        E 0 80 56 00
        E 0 80 60 00
        E 0 80 62 00
        E 160 90 18 60
        E 0 90 1f 60
        E 0 90 54 60
        E 0 90 56 60
        E 0 90 60 60
        E 0 90 62 60
        E 80 80 18 00
        E 0 80 1f 00
        E 0 80 54 00
        E 0 80 56 00
        E 0 80 60 00
        E 0 80 62 00
        E 160 90 1a 60
        E 0 90 1f 60
        E 0 90 3d 60
        E 0 90 3e 60
        E 0 90 49 60
        E 0 90 4a 60
        E 0 90 55 60
        E 0 90 56 60
        E 0 90 61 60
        E 0 90 62 60
        E 80 80 1a 00
        E 0 80 1f 00
        E 0 80 3d 00
        E 0 80 3e 00
        E 0 80 49 00
        E 0 80 4a 00
        E 0 80 55 00
        E 0 80 56 00
        E 0 80 61 00
        E 0 80 62 00
        E 160 90 1f 60
        E 0 90 56 60
        E 0 90 62 60
        E 80 80 1f 00
        E 0 80 56 00
        E 0 80 62 00
        E 80 90 18 60
        E 0 90 60 60
        E 80 80 18 00
        E 0 80 60 00
        E 0 90 1f 60
        E 0 90 3e 60
        E 0 90 4a 60
        E 0 90 56 60
        E 0 90 62 60
        E 0 90 78 60
        E 0 90 79 60
        E 0 90 7a 60
        E 0 90 7b 60
        E 0 90 7c 60
        E 80 80 1f 00
        E 0 80 3e 00
        E 0 80 4a 00
        E 0 80 56 00
        E 0 80 62 00
        E 160 90 18 60
        E 0 90 1f 60
        E 0 90 54 60
        E 0 90 56 60
        E 0 90 60 60
        E 0 90 62 60
        E 80 80 18 00
        E 0 80 1f 00
        E 0 80 54 00
        E 0 80 56 00
        E 0 80 60 00
        E 0 80 62 00
        E 160 90 1a 60
        E 0 90 1f 60
        E 0 90 3d 60
        E 0 90 3e 60
        E 0 90 49 60
        E 0 90 4a 60
        E 0 90 55 60
        E 0 90 56 60
        E 0 90 61 60
        E 0 90 62 60
        E 80 80 1a 00
        E 0 80 1f 00
        E 0 80 3d 00
        E 0 80 3e 00
        E 0 80 49 00
        E 0 80 4a 00
        E 0 80 55 00
        E 0 80 56 00
        E 0 80 61 00
        E 0 80 62 00
        E 160 90 1f 60
        E 0 90 56 60
        E 0 90 62 60
        E 80 80 1f 00
        E 0 80 56 00
        E 0 80 62 00
        E 160 80 78 00
        E 0 80 79 00
        E 0 80 7a 00
        E 0 80 7b 00
        E 0 80 7c 00
        E 0 90 18 60
        E 0 90 1f 60
        E 0 90 3e 60
        E 0 90 48 60
        E 0 90 4a 60
        E 0 90 54 60
        E 0 90 56 60
        E 0 90 60 60
        E 0 90 62 60
        E 80 80 18 00
        E 0 80 1f 00
        E 0 80 3e 00
        E 0 80 48 00
        E 0 80 4a 00
        E 0 80 54 00
        E 0 80 56 00
        E 0 80 60 00
        E 0 80 62 00
        E 160 90 18 60
        E 0 90 1f 60
        E 0 90 54 60
        E 0 90 56 60
        E 0 90 60 60
        E 0 90 62 60
        E 80 80 18 00
        E 0 80 1f 00
        E 0 80 54 00
        E 0 80 56 00
        E 0 80 60 00
        E 0 80 62 00
        E 160 90 1a 60
        E 0 90 1f 60
        E 0 90 3d 60
        E 0 90 3e 60
        E 0 90 49 60
        E 0 90 4a 60
        E 0 90 55 60
        E 0 90 56 60
        E 0 90 61 60
        E 0 90 62 60
        E 80 80 1a 00
        E 0 80 1f 00
        E 0 80 3d 00
        E 0 80 3e 00
        E 0 80 49 00
        E 0 80 4a 00
        E 0 80 55 00
        E 0 80 56 00
        E 0 80 61 00
        E 0 80 62 00
        E 160 90 1f 60
        E 0 90 56 60
        E 0 90 62 60
        E 80 80 1f 00
        E 0 80 56 00
        E 0 80 62 00
        E 80 90 18 60
        E 0 90 60 60
        E 80 80 18 00
        E 0 80 60 00
        E 0 90 1f 60
        E 0 90 3e 60
        E 0 90 4a 60
        E 0 90 56 60
        E 0 90 62 60
        E 80 80 1f 00
        E 0 80 3e 00
        E 0 80 4a 00
        E 0 80 56 00
        E 0 80 62 00
        E 160 90 18 60
        E 0 90 1f 60
        E 0 90 54 60
        E 0 90 56 60
        E 0 90 60 60
        E 0 90 62 60
        E 80 80 18 00
        E 0 80 1f 00
        E 0 80 54 00
        E 0 80 56 00
        E 0 80 60 00
        E 0 80 62 00
        E 160 90 1a 60
        E 0 90 1f 60
        E 0 90 3d 60
        E 0 90 3e 60
        E 0 90 49 60
        E 0 90 4a 60
        E 0 90 55 60
        E 0 90 56 60
        E 0 90 61 60
        E 0 90 62 60
        E 80 80 1a 00
        E 0 80 1f 00
        E 0 80 3d 00
        E 0 80 3e 00
        E 0 80 49 00
        E 0 80 4a 00
        E 0 80 55 00
        E 0 80 56 00
        E 0 80 61 00
        E 0 80 62 00
        E 160 90 1f 60
        E 0 90 56 60
        E 0 90 62 60
        E 80 80 1f 00
        E 0 80 56 00
        E 0 80 62 00
        E 160 90 18 60
        E 0 90 1f 60
        E 0 90 3e 60
        E 0 90 48 60
        E 0 90 4a 60
        E 0 90 54 60
        E 0 90 56 60
        E 0 90 60 60
        E 0 90 62 60
        E 80 80 18 00
        E 0 80 1f 00
        E 0 80 3e 00
        E 0 80 48 00
        E 0 80 4a 00
        E 0 80 54 00
        E 0 80 56 00
        E 0 80 60 00
        E 0 80 62 00
        E 160 90 18 60
        E 0 90 1f 60
        E 0 90 54 60
        E 0 90 56 60
        E 0 90 60 60
        E 0 90 62 60
        E 80 80 18 00
        E 0 80 1f 00
        E 0 80 54 00
        E 0 80 56 00
        E 0 80 60 00
        E 0 80 62 00
        E 160 90 1a 60
        E 0 90 1f 60
        E 0 90 3d 60
        E 0 90 3e 60
        E 0 90 49 60
        E 0 90 4a 60
        E 0 90 55 60
        E 0 90 56 60
        E 0 90 61 60
        E 0 90 62 60
        E 80 80 1a 00
        E 0 80 1f 00
        E 0 80 3d 00
        E 0 80 3e 00
        E 0 80 49 00
        E 0 80 4a 00
        E 0 80 55 00
        E 0 80 56 00
        E 0 80 61 00
        E 0 80 62 00
        E 160 90 1f 60
        E 0 90 56 60
        E 0 90 62 60
        E 80 80 1f 00
        E 0 80 56 00
        E 0 80 62 00
        E 80 90 18 60
        E 0 90 60 60
        E 80 80 18 00
        E 0 80 60 00
        E 0 90 1f 60
        E 0 90 3e 60
        E 0 90 4a 60
        E 0 90 56 60
        E 0 90 62 60
        E 0 90 78 60
        E 0 90 79 60
        E 0 90 7a 60
        E 0 90 7b 60
        E 0 90 7c 60
        E 80 80 1f 00
        E 0 80 3e 00
        E 0 80 4a 00
        E 0 80 56 00
        E 0 80 62 00
        E 160 90 18 60
        E 0 90 1f 60
        E 0 90 54 60
        E 0 90 56 60
        E 0 90 60 60
        E 0 90 62 60
        E 80 80 18 00
        E 0 80 1f 00
        E 0 80 54 00
        E 0 80 56 00
        E 0 80 60 00
        E 0 80 62 00
        E 160 90 1a 60
        E 0 90 1f 60
        E 0 90 3d 60
        E 0 90 3e 60
        E 0 90 49 60
        E 0 90 4a 60
        E 0 90 55 60
        E 0 90 56 60
        E 0 90 61 60
        E 0 90 62 60
        E 80 80 1a 00
        E 0 80 1f 00
        E 0 80 3d 00
        E 0 80 3e 00
        E 0 80 49 00
        E 0 80 4a 00
        E 0 80 55 00
        E 0 80 56 00
        E 0 80 61 00
        E 0 80 62 00
        E 160 90 1f 60
        E 0 90 56 60
        E 0 90 62 60
        E 80 80 1f 00
        E 0 80 56 00
        E 0 80 62 00
        E 160 80 78 00
        E 0 80 79 00
        E 0 80 7a 00
        E 0 80 7b 00
        E 0 80 7c 00
        E 0 90 18 60
        E 0 90 1f 60
        E 0 90 3e 60
        E 0 90 48 60
        E 0 90 4a 60
        E 0 90 54 60
        E 0 90 56 60
        E 0 90 60 60
        E 0 90 62 60
        E 80 80 18 00
        E 0 80 1f 00
        E 0 80 3e 00
        E 0 80 48 00
        E 0 80 4a 00
        E 0 80 54 00
        E 0 80 56 00
        E 0 80 60 00
        E 0 80 62 00
        E 160 90 18 60
        E 0 90 1f 60
        E 0 90 54 60
        E 0 90 56 60
        E 0 90 60 60
        E 0 90 62 60
        E 80 80 18 00
        E 0 80 1f 00
        E 0 80 54 00
        E 0 80 56 00
        E 0 80 60 00
        E 0 80 62 00
        E 160 90 1a 60
        E 0 90 1f 60
        E 0 90 3d 60
        E 0 90 3e 60
        E 0 90 49 60
        E 0 90 4a 60
        E 0 90 55 60
        E 0 90 56 60
        E 0 90 61 60
        E 0 90 62 60
        E 80 80 1a 00
        E 0 80 1f 00
        E 0 80 3d 00
        E 0 80 3e 00
        E 0 80 49 00
        E 0 80 4a 00
        E 0 80 55 00
        E 0 80 56 00
        E 0 80 61 00
        E 0 80 62 00
        E 160 90 1f 60
        E 0 90 56 60
        E 0 90 62 60
        E 80 80 1f 00
        E 0 80 56 00
        E 0 80 62 00
        E 80 90 18 60
        E 0 90 60 60
        E 80 80 18 00
        E 0 80 60 00
        E 0 90 1f 60
        E 0 90 3e 60
        E 0 90 4a 60
        E 0 90 56 60
        E 0 90 62 60
        E 80 80 1f 00
        E 0 80 3e 00
        E 0 80 4a 00
        E 0 80 56 00
        E 0 80 62 00
        E 160 90 18 60
        E 0 90 1f 60
        E 0 90 54 60
        E 0 90 56 60
        E 0 90 60 60
        E 0 90 62 60
        E 80 80 18 00
        E 0 80 1f 00
        E 0 80 54 00
        E 0 80 56 00
        E 0 80 60 00
        E 0 80 62 00
        E 160 90 1a 60
        E 0 90 1f 60
        E 0 90 3d 60
        E 0 90 3e 60
        E 0 90 49 60
        E 0 90 4a 60
        E 0 90 55 60
        E 0 90 56 60
        E 0 90 61 60
        E 0 90 62 60
        E 80 80 1a 00
        E 0 80 1f 00
        E 0 80 3d 00
        E 0 80 3e 00
        E 0 80 49 00
        E 0 80 4a 00
        E 0 80 55 00
        E 0 80 56 00
        E 0 80 61 00
        E 0 80 62 00
        E 160 90 1f 60
        E 0 90 56 60
        E 0 90 62 60
        E 80 80 1f 00
        E 0 80 56 00
        E 0 80 62 00
        E 160 90 18 60
        E 0 90 1f 60
        E 0 90 3e 60
        E 0 90 48 60
        E 0 90 4a 60
        E 0 90 54 60
        E 0 90 56 60
        E 0 90 60 60
        E 0 90 62 60
        E 0 90 74 60
        E 80 80 18 00
        E 0 80 1f 00
        E 0 80 3e 00
        E 0 80 48 00
        E 0 80 4a 00
        E 0 80 54 00
        E 0 80 56 00
        E 0 80 60 00
        E 0 80 62 00
        E 160 90 18 60
        E 0 90 1f 60
        E 0 90 54 60
        E 0 90 56 60
        E 0 90 60 60
        E 0 90 62 60
        E 80 80 18 00
        E 0 80 1f 00
        E 0 80 54 00
        E 0 80 56 00
        E 0 80 60 00
        E 0 80 62 00
        E 160 90 1a 60
        E 0 90 1f 60
        E 0 90 3d 60
        E 0 90 3e 60
        E 0 90 49 60
        E 0 90 4a 60
        E 0 90 55 60
        E 0 90 56 60
        E 0 90 61 60
        E 0 90 62 60
        E 80 80 1a 00
        E 0 80 1f 00
        E 0 80 3d 00
        E 0 80 3e 00
        E 0 80 49 00
        E 0 80 4a 00
        E 0 80 55 00
        E 0 80 56 00
        E 0 80 61 00
        E 0 80 62 00
        E 160 90 1f 60
        E 0 90 56 60
        E 0 90 62 60
        E 80 80 1f 00
        E 0 80 56 00
        E 0 80 62 00
        E 80 90 18 60
        E 0 90 60 60
        E 80 80 18 00
        E 0 80 60 00
        E 0 90 1f 60
        E 0 90 3e 60
        E 0 90 4a 60
        E 0 90 56 60
        E 0 90 62 60
        E 80 80 1f 00
        E 0 80 3e 00
        E 0 80 4a 00
        E 0 80 56 00
        E 0 80 62 00
        E 160 90 18 60
        E 0 90 1f 60
        E 0 90 54 60
        E 0 90 56 60
        E 0 90 60 60
        E 0 90 62 60
        E 80 80 18 00
        E 0 80 1f 00
        E 0 80 54 00
        E 0 80 56 00
        E 0 80 60 00
        E 0 80 62 00
        E 160 90 1a 60
        E 0 90 1f 60
        E 0 90 3d 60
        E 0 90 3e 60
        E 0 90 49 60
        E 0 90 4a 60
        E 0 90 55 60
        E 0 90 56 60
        E 0 90 61 60
        E 0 90 62 60
        E 80 80 1a 00
        E 0 80 1f 00
        E 0 80 3d 00
        E 0 80 3e 00
        E 0 80 49 00
        E 0 80 4a 00
        E 0 80 55 00
        E 0 80 56 00
        E 0 80 61 00
        E 0 80 62 00
        E 160 90 1f 60
        E 0 90 56 60
        E 0 90 62 60
        E 80 80 1f 00
        E 0 80 56 00
        E 0 80 62 00
        E 160 80 74 00
        E 0 90 18 60
        E 0 90 1f 60
        E 0 90 3e 60
        E 0 90 48 60
        E 0 90 4a 60
        E 0 90 54 60
        E 0 90 56 60
        E 0 90 60 60
        E 0 90 62 60
        E 80 80 18 00
        E 0 80 1f 00
        E 0 80 3e 00
        E 0 80 48 00
        E 0 80 4a 00
        E 0 80 54 00
        E 0 80 56 00
        E 0 80 60 00
        E 0 80 62 00
        E 160 90 18 60
        E 0 90 1f 60
        E 0 90 54 60
        E 0 90 56 60
        E 0 90 60 60
        E 0 90 62 60
        E 80 80 18 00
        E 0 80 1f 00
        E 0 80 54 00
        E 0 80 56 00
        E 0 80 60 00
        E 0 80 62 00
        E 160 90 1a 60
        E 0 90 1f 60
        E 0 90 3d 60
        E 0 90 3e 60
        E 0 90 49 60
        E 0 90 4a 60
        E 0 90 55 60
        E 0 90 56 60
        E 0 90 61 60
        E 0 90 62 60
        E 80 80 1a 00
        E 0 80 1f 00
        E 0 80 3d 00
        E 0 80 3e 00
        E 0 80 49 00
        E 0 80 4a 00
        E 0 80 55 00
        E 0 80 56 00
        E 0 80 61 00
        E 0 80 62 00
        E 160 90 1f 60
        E 0 90 56 60
        E 0 90 62 60
        E 80 80 1f 00
        E 0 80 56 00
        E 0 80 62 00
        E 80 90 18 60
        E 0 90 60 60
        E 80 80 18 00
        E 0 80 60 00
        E 0 90 1f 60
        E 0 90 3e 60
        E 0 90 4a 60
        E 0 90 56 60
        E 0 90 62 60
        E 80 80 1f 00
        E 0 80 3e 00
        E 0 80 4a 00
        E 0 80 56 00
        E 0 80 62 00
        E 160 90 18 60
        E 0 90 1f 60
        E 0 90 54 60
        E 0 90 56 60
        E 0 90 60 60
        E 0 90 62 60
        E 80 80 18 00
        E 0 80 1f 00
        E 0 80 54 00
        E 0 80 56 00
        E 0 80 60 00
        E 0 80 62 00
        E 160 90 1a 60
        E 0 90 1f 60
        E 0 90 3d 60
        E 0 90 3e 60
        E 0 90 49 60
        E 0 90 4a 60
        E 0 90 55 60
        E 0 90 56 60
        E 0 90 61 60
        E 0 90 62 60
        E 80 80 1a 00
        E 0 80 1f 00
        E 0 80 3d 00
        E 0 80 3e 00
        E 0 80 49 00
        E 0 80 4a 00
        E 0 80 55 00
        E 0 80 56 00
        E 0 80 61 00
        E 0 80 62 00
        E 160 90 1f 60
        E 0 90 56 60
        E 0 90 62 60
        E 80 80 1f 00
        E 0 80 56 00
        E 0 80 62 00
        E 160 90 18 60
        E 0 90 1f 60
        E 0 90 3e 60
        E 0 90 48 60
        E 0 90 4a 60
        E 0 90 54 60
        E 0 90 56 60
        E 0 90 60 60
        E 0 90 62 60
        E 80 80 18 00
        E 0 80 1f 00
        E 0 80 3e 00
        E 0 80 48 00
        E 0 80 4a 00
        E 0 80 54 00
        E 0 80 56 00
        E 0 80 60 00
        E 0 80 62 00
        E 160 90 18 60
        E 0 90 1f 60
        E 0 90 54 60
        E 0 90 56 60
        E 0 90 60 60
        E 0 90 62 60
        E 80 80 18 00
        E 0 80 1f 00
        E 0 80 54 00
        E 0 80 56 00
        E 0 80 60 00
        E 0 80 62 00
        E 160 90 1a 60
        E 0 90 1f 60
        E 0 90 3d 60
        E 0 90 3e 60
        E 0 90 49 60
        E 0 90 4a 60
        E 0 90 55 60
        E 0 90 56 60
        E 0 90 61 60
        E 0 90 62 60
        E 80 80 1a 00
        E 0 80 1f 00
        E 0 80 3d 00
        E 0 80 3e 00
        E 0 80 49 00
        E 0 80 4a 00
        E 0 80 55 00
        E 0 80 56 00
        E 0 80 61 00
        E 0 80 62 00
        E 160 90 1f 60
        E 0 90 56 60
        E 0 90 62 60
        E 80 80 1f 00
        E 0 80 56 00
        E 0 80 62 00
        E 80 90 18 60
        E 0 90 60 60
        E 80 80 18 00
        E 0 80 60 00
        E 0 90 1f 60
        E 0 90 3e 60
        E 0 90 4a 60
        E 0 90 56 60
        E 0 90 62 60
        E 0 90 78 60
        E 0 90 79 60
        E 0 90 7a 60
        E 0 90 7b 60
        E 0 90 7c 60
        E 80 80 1f 00
        E 0 80 3e 00
        E 0 80 4a 00
        E 0 80 56 00
        E 0 80 62 00
        E 160 90 18 60
        E 0 90 1f 60
        E 0 90 54 60
        E 0 90 56 60
        E 0 90 60 60
        E 0 90 62 60
        E 80 80 18 00
        E 0 80 1f 00
        E 0 80 54 00
        E 0 80 56 00
        E 0 80 60 00
        E 0 80 62 00
        E 160 90 1a 60
        E 0 90 1f 60
        E 0 90 3d 60
        E 0 90 3e 60
        E 0 90 49 60
        E 0 90 4a 60
        E 0 90 55 60
        E 0 90 56 60
        E 0 90 61 60
        E 0 90 62 60
        E 80 80 1a 00
        E 0 80 1f 00
        E 0 80 3d 00
        E 0 80 3e 00
        E 0 80 49 00
        E 0 80 4a 00
        E 0 80 55 00
        E 0 80 56 00
        E 0 80 61 00
        E 0 80 62 00
        E 160 90 1f 60
        E 0 90 56 60
        E 0 90 62 60
        E 80 80 1f 00
        E 0 80 56 00
        E 0 80 62 00
        <X 160 0
          /wFbcGxheV0=
        >
        E 0 80 19 00
        E 0 80 78 00
        E 0 80 79 00
        E 0 80 7a 00
        E 0 80 7b 00
        E 0 80 7c 00
        E 0 90 18 60
        E 0 90 26 60
        E 0 90 40 60
        E 0 90 48 60
        E 0 90 4c 60
        E 0 90 54 60
        E 0 90 58 60
        E 0 90 60 60
        E 0 90 64 60
        E 80 80 18 00
        E 0 80 26 00
        E 0 80 40 00
        E 0 80 48 00
        E 0 80 4c 00
        E 0 80 54 00
        E 0 80 58 00
        E 0 80 60 00
        E 0 80 64 00
        E 160 90 18 60
        E 0 90 1f 60
        E 0 90 54 60
        E 0 90 56 60
        E 0 90 60 60
        E 0 90 62 60
        E 80 80 18 00
        E 0 80 1f 00
        E 0 80 54 00
        E 0 80 56 00
        E 0 80 60 00
        E 0 80 62 00
        E 160 90 1a 60
        E 0 90 1f 60
        E 0 90 3d 60
        E 0 90 3e 60
        E 0 90 49 60
        E 0 90 4a 60
        E 0 90 55 60
        E 0 90 56 60
        E 0 90 61 60
        E 0 90 62 60
        E 80 80 1a 00
        E 0 80 1f 00
        E 0 80 3d 00
        E 0 80 3e 00
        E 0 80 49 00
        E 0 80 4a 00
        E 0 80 55 00
        E 0 80 56 00
        E 0 80 61 00
        E 0 80 62 00
        E 160 90 1f 60
        E 0 90 56 60
        E 0 90 62 60
        E 80 80 1f 00
        E 0 80 56 00
        E 0 80 62 00
        E 80 90 18 60
        E 0 90 60 60
        E 80 80 18 00
        E 0 80 60 00
        E 0 90 1f 60
        E 0 90 3e 60
        E 0 90 4a 60
        E 0 90 56 60
        E 0 90 62 60
        E 80 80 1f 00
        E 0 80 3e 00
        E 0 80 4a 00
        E 0 80 56 00
        E 0 80 62 00
        E 160 90 18 60
        E 0 90 1f 60
        E 0 90 54 60
        E 0 90 56 60
        E 0 90 60 60
        E 0 90 62 60
        E 80 80 18 00
        E 0 80 1f 00
        E 0 80 54 00
        E 0 80 56 00
        E 0 80 60 00
        E 0 80 62 00
        E 160 90 1a 60
        E 0 90 1f 60
        E 0 90 3d 60
        E 0 90 3e 60
        E 0 90 49 60
        E 0 90 4a 60
        E 0 90 55 60
        E 0 90 56 60
        E 0 90 61 60
        E 0 90 62 60
        E 80 80 1a 00
        E 0 80 1f 00
        E 0 80 3d 00
        E 0 80 3e 00
        E 0 80 49 00
        E 0 80 4a 00
        E 0 80 55 00
        E 0 80 56 00
        E 0 80 61 00
        E 0 80 62 00
        E 160 90 1f 60
        E 0 90 56 60
        E 0 90 62 60
        E 80 80 1f 00
        E 0 80 56 00
        E 0 80 62 00
        E 160 90 18 60
        E 0 90 1f 60
        E 0 90 3e 60
        E 0 90 48 60
        E 0 90 4a 60
        E 0 90 54 60
        E 0 90 56 60
        E 0 90 60 60
        E 0 90 62 60
        E 80 80 18 00
        E 0 80 1f 00
        E 0 80 3e 00
        E 0 80 48 00
        E 0 80 4a 00
        E 0 80 54 00
        E 0 80 56 00
        E 0 80 60 00
        E 0 80 62 00
        E 160 90 18 60
        E 0 90 1f 60
        E 0 90 54 60
        E 0 90 56 60
        E 0 90 60 60
        E 0 90 62 60
        E 80 80 18 00
        E 0 80 1f 00
        E 0 80 54 00
        E 0 80 56 00
        E 0 80 60 00
        E 0 80 62 00
        E 160 90 1a 60
        E 0 90 1f 60
        E 0 90 3d 60
        E 0 90 3e 60
        E 0 90 49 60
        E 0 90 4a 60
        E 0 90 55 60
        E 0 90 56 60
        E 0 90 61 60
        E 0 90 62 60
        E 80 80 1a 00
        E 0 80 1f 00
        E 0 80 3d 00
        E 0 80 3e 00
        E 0 80 49 00
        E 0 80 4a 00
        E 0 80 55 00
        E 0 80 56 00
        E 0 80 61 00
        E 0 80 62 00
        E 160 90 1f 60
        E 0 90 56 60
        E 0 90 62 60
        E 80 80 1f 00
        E 0 80 56 00
        E 0 80 62 00
        E 80 90 18 60
        E 0 90 60 60
        E 80 80 18 00
        E 0 80 60 00
        E 0 90 1f 60
        E 0 90 3e 60
        E 0 90 4a 60
        E 0 90 56 60
        E 0 90 62 60
        E 0 90 78 60
        E 0 90 79 60
        E 0 90 7a 60
        E 0 90 7b 60
        E 0 90 7c 60
        E 80 80 1f 00
        E 0 80 3e 00
        E 0 80 4a 00
        E 0 80 56 00
        E 0 80 62 00
        E 160 90 18 60
        E 0 90 1f 60
        E 0 90 54 60
        E 0 90 56 60
        E 0 90 60 60
        E 0 90 62 60
        E 80 80 18 00
        E 0 80 1f 00
        E 0 80 54 00
        E 0 80 56 00
        E 0 80 60 00
        E 0 80 62 00
        E 160 90 19 60
        E 0 90 1a 60
        E 0 90 1f 60
        E 0 90 3d 60
        E 0 90 3f 60
        E 0 90 49 60
        E 0 90 4b 60
        E 0 90 55 60
        E 0 90 57 60
        E 0 90 61 60
        E 0 90 63 60
        E 80 80 1a 00
        E 0 80 1f 00
        E 0 80 3d 00
        E 0 80 3f 00
        E 0 80 49 00
        E 0 80 4b 00
        E 0 80 55 00
        E 0 80 57 00
        E 0 80 61 00
        E 0 80 63 00
        E 160 90 1f 60
        E 0 90 57 60
        E 0 90 63 60
        E 80 80 1f 00
        E 0 80 57 00
        E 0 80 63 00
        E 160 80 78 00
        E 0 80 79 00
        E 0 80 7a 00
        E 0 80 7b 00
        E 0 80 7c 00
        E 0 80 19 00
        E 0 90 18 60
        E 0 90 1f 60
        E 0 90 3e 60
        E 0 90 48 60
        E 0 90 4a 60
        E 0 90 54 60
        E 0 90 56 60
        E 0 90 60 60
        E 0 90 62 60
        E 80 80 18 00
        E 0 80 1f 00
        E 0 80 3e 00
        E 0 80 48 00
        E 0 80 4a 00
        E 0 80 54 00
        E 0 80 56 00
        E 0 80 60 00
        E 0 80 62 00
        E 160 90 18 60
        E 0 90 1f 60
        E 0 90 54 60
        E 0 90 56 60
        E 0 90 60 60
        E 0 90 62 60
        E 80 80 18 00
        E 0 80 1f 00
        E 0 80 54 00
        E 0 80 56 00
        E 0 80 60 00
        E 0 80 62 00
        E 160 90 1a 60
        E 0 90 1f 60
        E 0 90 3d 60
        E 0 90 3e 60
        E 0 90 49 60
        E 0 90 4a 60
        E 0 90 55 60
        E 0 90 56 60
        E 0 90 61 60
        E 0 90 62 60
        E 80 80 1a 00
        E 0 80 1f 00
        E 0 80 3d 00
        E 0 80 3e 00
        E 0 80 49 00
        E 0 80 4a 00
        E 0 80 55 00
        E 0 80 56 00
        E 0 80 61 00
        E 0 80 62 00
        E 160 90 1f 60
        E 0 90 56 60
        E 0 90 62 60
        E 80 80 1f 00
        E 0 80 56 00
        E 0 80 62 00
        E 80 90 18 60
        E 0 90 60 60
        E 80 80 18 00
        E 0 80 60 00
        E 0 90 1f 60
        E 0 90 3e 60
        E 0 90 4a 60
        E 0 90 56 60
        E 0 90 62 60
        E 80 80 1f 00
        E 0 80 3e 00
        E 0 80 4a 00
        E 0 80 56 00
        E 0 80 62 00
        E 160 90 18 60
        E 0 90 1f 60
        E 0 90 54 60
        E 0 90 56 60
        E 0 90 60 60
        E 0 90 62 60
        E 80 80 18 00
        E 0 80 1f 00
        E 0 80 54 00
        E 0 80 56 00
        E 0 80 60 00
        E 0 80 62 00
        E 160 90 1a 60
        E 0 90 1f 60
        E 0 90 3d 60
        E 0 90 3e 60
        E 0 90 49 60
        E 0 90 4a 60
        E 0 90 55 60
        E 0 90 56 60
        E 0 90 61 60
        E 0 90 62 60
        E 80 80 1a 00
        E 0 80 1f 00
        E 0 80 3d 00
        E 0 80 3e 00
        E 0 80 49 00
        E 0 80 4a 00
        E 0 80 55 00
        E 0 80 56 00
        E 0 80 61 00
        E 0 80 62 00
        E 160 90 1f 60
        E 0 90 56 60
        E 0 90 62 60
        E 80 80 1f 00
        E 0 80 56 00
        E 0 80 62 00
        E 160 90 18 60
        E 0 90 1f 60
        E 0 90 3e 60
        E 0 90 48 60
        E 0 90 4a 60
        E 0 90 54 60
        E 0 90 56 60
        E 0 90 60 60
        E 0 90 62 60
        E 80 80 18 00
        E 0 80 1f 00
        E 0 80 3e 00
        E 0 80 48 00
        E 0 80 4a 00
        E 0 80 54 00
        E 0 80 56 00
        E 0 80 60 00
        E 0 80 62 00
        E 160 90 18 60
        E 0 90 1f 60
        E 0 90 54 60
        E 0 90 56 60
        E 0 90 60 60
        E 0 90 62 60
        E 80 80 18 00
        E 0 80 1f 00
        E 0 80 54 00
        E 0 80 56 00
        E 0 80 60 00
        E 0 80 62 00
        E 160 90 1a 60
        E 0 90 1f 60
        E 0 90 3d 60
        E 0 90 3e 60
        E 0 90 49 60
        E 0 90 4a 60
        E 0 90 55 60
        E 0 90 56 60
        E 0 90 61 60
        E 0 90 62 60
        E 80 80 1a 00
        E 0 80 1f 00
        E 0 80 3d 00
        E 0 80 3e 00
        E 0 80 49 00
        E 0 80 4a 00
        E 0 80 55 00
        E 0 80 56 00
        E 0 80 61 00
        E 0 80 62 00
        E 160 90 1f 60
        E 0 90 56 60
        E 0 90 62 60
        E 80 80 1f 00
        E 0 80 56 00
        E 0 80 62 00
        E 80 90 18 60
        E 0 90 60 60
        E 80 80 18 00
        E 0 80 60 00
        E 0 90 1f 60
        E 0 90 3e 60
        E 0 90 4a 60
        E 0 90 56 60
        E 0 90 62 60
        E 0 90 78 60
        E 0 90 79 60
        E 0 90 7a 60
        E 0 90 7b 60
        E 0 90 7c 60
        E 80 80 1f 00
        E 0 80 3e 00
        E 0 80 4a 00
        E 0 80 56 00
        E 0 80 62 00
        E 160 90 18 60
        E 0 90 1f 60
        E 0 90 54 60
        E 0 90 56 60
        E 0 90 60 60
        E 0 90 62 60
        E 80 80 18 00
        E 0 80 1f 00
        E 0 80 54 00
        E 0 80 56 00
        E 0 80 60 00
        E 0 80 62 00
        E 160 90 19 60
        E 0 90 1a 60
        E 0 90 1f 60
        E 0 90 3d 60
        E 0 90 3f 60
        E 0 90 49 60
        E 0 90 4b 60
        E 0 90 55 60
        E 0 90 57 60
        E 0 90 61 60
        E 0 90 63 60
        E 80 80 1a 00
        E 0 80 1f 00
        E 0 80 3d 00
        E 0 80 3f 00
        E 0 80 49 00
        E 0 80 4b 00
        E 0 80 55 00
        E 0 80 57 00
        E 0 80 61 00
        E 0 80 63 00
        E 160 90 1f 60
        E 0 90 57 60
        E 0 90 63 60
        E 80 80 1f 00
        E 0 80 57 00
        E 0 80 63 00
        E 160 80 78 00
        E 0 80 79 00
        E 0 80 7a 00
        E 0 80 7b 00
        E 0 80 7c 00
        E 0 80 19 00
        E 0 90 18 60
        E 0 90 26 60
        E 0 90 40 60
        E 0 90 48 60
        E 0 90 4c 60
        E 0 90 54 60
        E 0 90 58 60
        E 0 90 60 60
        E 0 90 64 60
        E 0 90 74 60
        E 80 80 18 00
        E 0 80 26 00
        E 0 80 40 00
        E 0 80 48 00
        E 0 80 4c 00
        E 0 80 54 00
        E 0 80 58 00
        E 0 80 60 00
        E 0 80 64 00
        E 160 90 18 60
        E 0 90 1f 60
        E 0 90 54 60
        E 0 90 56 60
        E 0 90 60 60
        E 0 90 62 60
        E 80 80 18 00
        E 0 80 1f 00
        E 0 80 54 00
        E 0 80 56 00
        E 0 80 60 00
        E 0 80 62 00
        E 160 90 1a 60
        E 0 90 1f 60
        E 0 90 3d 60
        E 0 90 3e 60
        E 0 90 49 60
        E 0 90 4a 60
        E 0 90 55 60
        E 0 90 56 60
        E 0 90 61 60
        E 0 90 62 60
        E 80 80 1a 00
        E 0 80 1f 00
        E 0 80 3d 00
        E 0 80 3e 00
        E 0 80 49 00
        E 0 80 4a 00
        E 0 80 55 00
        E 0 80 56 00
        E 0 80 61 00
        E 0 80 62 00
        E 160 90 1f 60
        E 0 90 56 60
        E 0 90 62 60
        E 80 80 1f 00
        E 0 80 56 00
        E 0 80 62 00
        E 80 90 18 60
        E 0 90 60 60
        E 80 80 18 00
        E 0 80 60 00
        E 0 90 1f 60
        E 0 90 3e 60
        E 0 90 4a 60
        E 0 90 56 60
        E 0 90 62 60
        E 80 80 1f 00
        E 0 80 3e 00
        E 0 80 4a 00
        E 0 80 56 00
        E 0 80 62 00
        E 160 90 18 60
        E 0 90 1f 60
        E 0 90 54 60
        E 0 90 56 60
        E 0 90 60 60
        E 0 90 62 60
        E 80 80 18 00
        E 0 80 1f 00
        E 0 80 54 00
        E 0 80 56 00
        E 0 80 60 00
        E 0 80 62 00
        E 160 90 1a 60
        E 0 90 1f 60
        E 0 90 3d 60
        E 0 90 3e 60
        E 0 90 49 60
        E 0 90 4a 60
        E 0 90 55 60
        E 0 90 56 60
        E 0 90 61 60
        E 0 90 62 60
        E 80 80 1a 00
        E 0 80 1f 00
        E 0 80 3d 00
        E 0 80 3e 00
        E 0 80 49 00
        E 0 80 4a 00
        E 0 80 55 00
        E 0 80 56 00
        E 0 80 61 00
        E 0 80 62 00
        E 160 90 1f 60
        E 0 90 56 60
        E 0 90 62 60
        E 80 80 1f 00
        E 0 80 56 00
        E 0 80 62 00
        E 160 90 18 60
        E 0 90 1f 60
        E 0 90 3e 60
        E 0 90 48 60
        E 0 90 4a 60
        E 0 90 54 60
        E 0 90 56 60
        E 0 90 60 60
        E 0 90 62 60
        E 80 80 18 00
        E 0 80 1f 00
        E 0 80 3e 00
        E 0 80 48 00
        E 0 80 4a 00
        E 0 80 54 00
        E 0 80 56 00
        E 0 80 60 00
        E 0 80 62 00
        E 40 80 74 00
        E 120 90 18 60
        E 0 90 1f 60
        E 0 90 54 60
        E 0 90 56 60
        E 0 90 60 60
        E 0 90 62 60
        E 80 80 18 00
        E 0 80 1f 00
        E 0 80 54 00
        E 0 80 56 00
        E 0 80 60 00
        E 0 80 62 00
        E 160 90 1a 60
        E 0 90 1f 60
        E 0 90 3d 60
        E 0 90 3e 60
        E 0 90 49 60
        E 0 90 4a 60
        E 0 90 55 60
        E 0 90 56 60
        E 0 90 61 60
        E 0 90 62 60
        E 80 80 1a 00
        E 0 80 1f 00
        E 0 80 3d 00
        E 0 80 3e 00
        E 0 80 49 00
        E 0 80 4a 00
        E 0 80 55 00
        E 0 80 56 00
        E 0 80 61 00
        E 0 80 62 00
        E 160 90 1f 60
        E 0 90 56 60
        E 0 90 62 60
        E 80 80 1f 00
        E 0 80 56 00
        E 0 80 62 00
        E 80 90 18 60
        E 0 90 60 60
        E 80 80 18 00
        E 0 80 60 00
        E 0 90 1f 60
        E 0 90 3e 60
        E 0 90 4a 60
        E 0 90 56 60
        E 0 90 62 60
        E 0 90 78 60
        E 0 90 79 60
        E 0 90 7a 60
        E 0 90 7b 60
        E 0 90 7c 60
        E 80 80 1f 00
        E 0 80 3e 00
        E 0 80 4a 00
        E 0 80 56 00
        E 0 80 62 00
        E 160 90 18 60
        E 0 90 1f 60
        E 0 90 54 60
        E 0 90 56 60
        E 0 90 60 60
        E 0 90 62 60
        E 80 80 18 00
        E 0 80 1f 00
        E 0 80 54 00
        E 0 80 56 00
        E 0 80 60 00
        E 0 80 62 00
        E 160 90 19 60
        E 0 90 1a 60
        E 0 90 1f 60
        E 0 90 3d 60
        E 0 90 3f 60
        E 0 90 49 60
        E 0 90 4b 60
        E 0 90 55 60
        E 0 90 57 60
        E 0 90 61 60
        E 0 90 63 60
        E 80 80 1a 00
        E 0 80 1f 00
        E 0 80 3d 00
        E 0 80 3f 00
        E 0 80 49 00
        E 0 80 4b 00
        E 0 80 55 00
        E 0 80 57 00
        E 0 80 61 00
        E 0 80 63 00
        E 160 90 1f 60
        E 0 90 57 60
        E 0 90 63 60
        E 80 80 1f 00
        E 0 80 57 00
        E 0 80 63 00
        E 160 80 78 00
        E 0 80 79 00
        E 0 80 7a 00
        E 0 80 7b 00
        E 0 80 7c 00
        E 0 80 19 00
        E 0 90 18 60
        E 0 90 1f 60
        E 0 90 3e 60
        E 0 90 48 60
        E 0 90 4a 60
        E 0 90 54 60
        E 0 90 56 60
        E 0 90 60 60
        E 0 90 62 60
        E 80 80 18 00
        E 0 80 1f 00
        E 0 80 3e 00
        E 0 80 48 00
        E 0 80 4a 00
        E 0 80 54 00
        E 0 80 56 00
        E 0 80 60 00
        E 0 80 62 00
        E 160 90 18 60
        E 0 90 1f 60
        E 0 90 54 60
        E 0 90 56 60
        E 0 90 60 60
        E 0 90 62 60
        E 80 80 18 00
        E 0 80 1f 00
        E 0 80 54 00
        E 0 80 56 00
        E 0 80 60 00
        E 0 80 62 00
        E 160 90 1a 60
        E 0 90 1f 60
        E 0 90 3d 60
        E 0 90 3e 60
        E 0 90 49 60
        E 0 90 4a 60
        E 0 90 55 60
        E 0 90 56 60
        E 0 90 61 60
        E 0 90 62 60
        E 80 80 1a 00
        E 0 80 1f 00
        E 0 80 3d 00
        E 0 80 3e 00
        E 0 80 49 00
        E 0 80 4a 00
        E 0 80 55 00
        E 0 80 56 00
        E 0 80 61 00
        E 0 80 62 00
        E 160 90 1f 60
        E 0 90 56 60
        E 0 90 62 60
        E 80 80 1f 00
        E 0 80 56 00
        E 0 80 62 00
        E 80 90 18 60
        E 0 90 60 60
        E 80 80 18 00
        E 0 80 60 00
        E 0 90 1f 60
        E 0 90 3e 60
        E 0 90 4a 60
        E 0 90 56 60
        E 0 90 62 60
        E 80 80 1f 00
        E 0 80 3e 00
        E 0 80 4a 00
        E 0 80 56 00
        E 0 80 62 00
        E 160 90 18 60
        E 0 90 1f 60
        E 0 90 54 60
        E 0 90 56 60
        E 0 90 60 60
        E 0 90 62 60
        E 80 80 18 00
        E 0 80 1f 00
        E 0 80 54 00
        E 0 80 56 00
        E 0 80 60 00
        E 0 80 62 00
        E 160 90 1a 60
        E 0 90 1f 60
        E 0 90 3d 60
        E 0 90 3e 60
        E 0 90 49 60
        E 0 90 4a 60
        E 0 90 55 60
        E 0 90 56 60
        E 0 90 61 60
        E 0 90 62 60
        E 80 80 1a 00
        E 0 80 1f 00
        E 0 80 3d 00
        E 0 80 3e 00
        E 0 80 49 00
        E 0 80 4a 00
        E 0 80 55 00
        E 0 80 56 00
        E 0 80 61 00
        E 0 80 62 00
        E 160 90 1f 60
        E 0 90 56 60
        E 0 90 62 60
        E 80 80 1f 00
        E 0 80 56 00
        E 0 80 62 00
        E 160 90 18 60
        E 0 90 1f 60
        E 0 90 3e 60
        E 0 90 48 60
        E 0 90 4a 60
        E 0 90 54 60
        E 0 90 56 60
        E 0 90 60 60
        E 0 90 62 60
        E 80 80 18 00
        E 0 80 1f 00
        E 0 80 3e 00
        E 0 80 48 00
        E 0 80 4a 00
        E 0 80 54 00
        E 0 80 56 00
        E 0 80 60 00
        E 0 80 62 00
        E 160 90 18 60
        E 0 90 1f 60
        E 0 90 54 60
        E 0 90 56 60
        E 0 90 60 60
        E 0 90 62 60
        E 80 80 18 00
        E 0 80 1f 00
        E 0 80 54 00
        E 0 80 56 00
        E 0 80 60 00
        E 0 80 62 00
        E 160 90 1a 60
        E 0 90 1f 60
        E 0 90 3d 60
        E 0 90 3e 60
        E 0 90 49 60
        E 0 90 4a 60
        E 0 90 55 60
        E 0 90 56 60
        E 0 90 61 60
        E 0 90 62 60
        E 80 80 1a 00
        E 0 80 1f 00
        E 0 80 3d 00
        E 0 80 3e 00
        E 0 80 49 00
        E 0 80 4a 00
        E 0 80 55 00
        E 0 80 56 00
        E 0 80 61 00
        E 0 80 62 00
        E 160 90 1f 60
        E 0 90 56 60
        E 0 90 62 60
        E 80 80 1f 00
        E 0 80 56 00
        E 0 80 62 00
        E 80 90 18 60
        E 0 90 60 60
        E 80 80 18 00
        E 0 80 60 00
        E 0 90 1f 60
        E 0 90 3e 60
        E 0 90 4a 60
        E 0 90 56 60
        E 0 90 62 60
        E 80 80 1f 00
        E 0 80 3e 00
        E 0 80 4a 00
        E 0 80 56 00
        E 0 80 62 00
        E 160 90 18 60
        E 0 90 1f 60
        E 0 90 54 60
        E 0 90 56 60
        E 0 90 60 60
        E 0 90 62 60
        E 80 80 18 00
        E 0 80 1f 00
        E 0 80 54 00
        E 0 80 56 00
        E 0 80 60 00
        E 0 80 62 00
        E 160 90 19 60
        E 0 90 1a 60
        E 0 90 1f 60
        E 0 90 3d 60
        E 0 90 3e 60
        E 0 90 49 60
        E 0 90 4a 60
        E 0 90 55 60
        E 0 90 56 60
        E 0 90 61 60
        E 0 90 62 60
        E 80 80 1a 00
        E 0 80 1f 00
        E 0 80 3d 00
        E 0 80 3e 00
        E 0 80 49 00
        E 0 80 4a 00
        E 0 80 55 00
        E 0 80 56 00
        E 0 80 61 00
        E 0 80 62 00
        E 160 90 1f 60
        E 0 90 56 60
        E 0 90 62 60
        E 80 80 1f 00
        E 0 80 56 00
        E 0 80 62 00
        E 160 80 19 00
        E 0 90 18 60
        E 0 90 26 60
        E 0 90 40 60
        E 0 90 48 60
        E 0 90 4c 60
        E 0 90 54 60
        E 0 90 58 60
        E 0 90 60 60
        E 0 90 64 60
        E 80 80 18 00
        E 0 80 26 00
        E 0 80 40 00
        E 0 80 48 00
        E 0 80 4c 00
        E 0 80 54 00
        E 0 80 58 00
        E 0 80 60 00
        E 0 80 64 00
        E 160 90 18 60
        E 0 90 2a 60
        E 0 90 54 60
        E 0 90 57 60
        E 0 90 60 60
        E 0 90 63 60
        E 80 80 18 00
        E 0 80 2a 00
        E 0 80 54 00
        E 0 80 57 00
        E 0 80 60 00
        E 0 80 63 00
        E 160 90 1a 60
        E 0 90 2a 60
        E 0 90 3d 60
        E 0 90 3f 60
        E 0 90 49 60
        E 0 90 4b 60
        E 0 90 55 60
        E 0 90 57 60
        E 0 90 61 60
        E 0 90 63 60
        E 80 80 1a 00
        E 0 80 2a 00
        E 0 80 3d 00
        E 0 80 3f 00
        E 0 80 49 00
        E 0 80 4b 00
        E 0 80 55 00
        E 0 80 57 00
        E 0 80 61 00
        E 0 80 63 00
        E 160 90 2a 60
        E 0 90 57 60
        E 0 90 63 60
        E 80 80 2a 00
        E 0 80 57 00
        E 0 80 63 00
        E 80 90 1c 60
        E 0 90 61 60
        E 40 80 1c 00
        E 0 80 61 00
        E 0 90 1c 60
        E 0 90 61 60
        E 40 80 1c 00
        E 0 80 61 00
        E 0 90 18 60
        E 0 90 2a 60
        E 0 90 3f 60
        E 0 90 48 60
        E 0 90 4b 60
        E 0 90 54 60
        E 0 90 57 60
        E 0 90 60 60
        E 0 90 63 60
        E 80 80 18 00
        E 0 80 2a 00
        E 0 80 3f 00
        E 0 80 48 00
        E 0 80 4b 00
        E 0 80 54 00
        E 0 80 57 00
        E 0 80 60 00
        E 0 80 63 00
        E 160 90 18 60
        E 0 90 2a 60
        E 0 90 54 60
        E 0 90 57 60
        E 0 90 60 60
        E 0 90 63 60
        E 80 80 18 00
        E 0 80 2a 00
        E 0 80 54 00
        E 0 80 57 00
        E 0 80 60 00
        E 0 80 63 00
        E 160 90 1a 60
        E 0 90 2a 60
        E 0 90 3d 60
        E 0 90 3f 60
        E 0 90 49 60
        E 0 90 4b 60
        E 0 90 55 60
        E 0 90 57 60
        E 0 90 61 60
        E 0 90 63 60
        E 80 80 1a 00
        E 0 80 2a 00
        E 0 80 3d 00
        E 0 80 3f 00
        E 0 80 49 00
        E 0 80 4b 00
        E 0 80 55 00
        E 0 80 57 00
        E 0 80 61 00
        E 0 80 63 00
        E 160 90 2a 60
        E 0 90 57 60
        E 0 90 63 60
        E 80 80 2a 00
        E 0 80 57 00
        E 0 80 63 00
        E 80 90 1c 60
        E 0 90 61 60
        E 40 80 1c 00
        E 0 80 61 00
        E 0 90 1c 60
        E 0 90 61 60
        E 40 80 1c 00
        E 0 80 61 00
        E 0 90 18 60
        E 0 90 2a 60
        E 0 90 3f 60
        E 0 90 48 60
        E 0 90 4b 60
        E 0 90 54 60
        E 0 90 57 60
        E 0 90 60 60
        E 0 90 63 60
        E 80 80 18 00
        E 0 80 2a 00
        E 0 80 3f 00
        E 0 80 48 00
        E 0 80 4b 00
        E 0 80 54 00
        E 0 80 57 00
        E 0 80 60 00
        E 0 80 63 00
        E 160 90 18 60
        E 0 90 2a 60
        E 0 90 54 60
        E 0 90 57 60
        E 0 90 60 60
        E 0 90 63 60
        E 80 80 18 00
        E 0 80 2a 00
        E 0 80 54 00
        E 0 80 57 00
        E 0 80 60 00
        E 0 80 63 00
        E 160 90 1a 60
        E 0 90 2a 60
        E 0 90 3d 60
        E 0 90 3f 60
        E 0 90 49 60
        E 0 90 4b 60
        E 0 90 55 60
        E 0 90 57 60
        E 0 90 61 60
        E 0 90 63 60
        E 80 80 1a 00
        E 0 80 2a 00
        E 0 80 3d 00
        E 0 80 3f 00
        E 0 80 49 00
        E 0 80 4b 00
        E 0 80 55 00
        E 0 80 57 00
        E 0 80 61 00
        E 0 80 63 00
        E 160 90 2a 60
        E 0 90 57 60
        E 0 90 63 60
        E 80 80 2a 00
        E 0 80 57 00
        E 0 80 63 00
        E 80 90 1c 60
        E 0 90 61 60
        E 40 80 1c 00
        E 0 80 61 00
        E 0 90 1c 60
        E 0 90 61 60
        E 40 80 1c 00
        E 0 80 61 00
        E 0 90 18 60
        E 0 90 2a 60
        E 0 90 3f 60
        E 0 90 48 60
        E 0 90 4b 60
        E 0 90 54 60
        E 0 90 57 60
        E 0 90 60 60
        E 0 90 63 60
        E 0 90 78 60
        E 0 90 79 60
        E 0 90 7a 60
        E 0 90 7b 60
        E 0 90 7c 60
        E 80 80 18 00
        E 0 80 2a 00
        E 0 80 3f 00
        E 0 80 48 00
        E 0 80 4b 00
        E 0 80 54 00
        E 0 80 57 00
        E 0 80 60 00
        E 0 80 63 00
        E 160 90 18 60
        E 0 90 2a 60
        E 0 90 54 60
        E 0 90 57 60
        E 0 90 60 60
        E 0 90 63 60
        E 80 80 18 00
        E 0 80 2a 00
        E 0 80 54 00
        E 0 80 57 00
        E 0 80 60 00
        E 0 80 63 00
        E 160 90 1a 60
        E 0 90 2a 60
        E 0 90 3d 60
        E 0 90 3f 60
        E 0 90 49 60
        E 0 90 4b 60
        E 0 90 55 60
        E 0 90 57 60
        E 0 90 61 60
        E 0 90 63 60
        E 80 80 1a 00
        E 0 80 2a 00
        E 0 80 3d 00
        E 0 80 3f 00
        E 0 80 49 00
        E 0 80 4b 00
        E 0 80 55 00
        E 0 80 57 00
        E 0 80 61 00
        E 0 80 63 00
        E 160 90 2a 60
        E 0 90 57 60
        E 0 90 63 60
        E 80 80 2a 00
        E 0 80 57 00
        E 0 80 63 00
        E 80 90 1c 60
        E 0 90 61 60
        E 40 80 1c 00
        E 0 80 61 00
        E 0 90 1c 60
        E 0 90 61 60
        E 40 80 78 00
        E 0 80 79 00
        E 0 80 7a 00
        E 0 80 7b 00
        E 0 80 7c 00
        E 0 80 1c 00
        E 0 80 61 00
        E 0 90 18 60
        E 0 90 2a 60
        E 0 90 3f 60
        E 0 90 48 60
        E 0 90 4b 60
        E 0 90 54 60
        E 0 90 57 60
        E 0 90 60 60
        E 0 90 63 60
        E 80 80 18 00
        E 0 80 2a 00
        E 0 80 3f 00
        E 0 80 48 00
        E 0 80 4b 00
        E 0 80 54 00
        E 0 80 57 00
        E 0 80 60 00
        E 0 80 63 00
        E 160 90 18 60
        E 0 90 2a 60
        E 0 90 54 60
        E 0 90 57 60
        E 0 90 60 60
        E 0 90 63 60
        E 80 80 18 00
        E 0 80 2a 00
        E 0 80 54 00
        E 0 80 57 00
        E 0 80 60 00
        E 0 80 63 00
        E 160 90 1a 60
        E 0 90 2a 60
        E 0 90 3d 60
        E 0 90 3f 60
        E 0 90 49 60
        E 0 90 4b 60
        E 0 90 55 60
        E 0 90 57 60
        E 0 90 61 60
        E 0 90 63 60
        E 80 80 1a 00
        E 0 80 2a 00
        E 0 80 3d 00
        E 0 80 3f 00
        E 0 80 49 00
        E 0 80 4b 00
        E 0 80 55 00
        E 0 80 57 00
        E 0 80 61 00
        E 0 80 63 00
        E 160 90 2a 60
        E 0 90 57 60
        E 0 90 63 60
        E 80 80 2a 00
        E 0 80 57 00
        E 0 80 63 00
        E 80 90 1c 60
        E 0 90 61 60
        E 40 80 1c 00
        E 0 80 61 00
        E 0 90 1c 60
        E 0 90 61 60
        E 40 80 1c 00
        E 0 80 61 00
        E 0 90 18 60
        E 0 90 2a 60
        E 0 90 3f 60
        E 0 90 48 60
        E 0 90 4b 60
        E 0 90 54 60
        E 0 90 57 60
        E 0 90 60 60
        E 0 90 63 60
        E 80 80 18 00
        E 0 80 2a 00
        E 0 80 3f 00
        E 0 80 48 00
        E 0 80 4b 00
        E 0 80 54 00
        E 0 80 57 00
        E 0 80 60 00
        E 0 80 63 00
        E 160 90 18 60
        E 0 90 2a 60
        E 0 90 54 60
        E 0 90 57 60
        E 0 90 60 60
        E 0 90 63 60
        E 80 80 18 00
        E 0 80 2a 00
        E 0 80 54 00
        E 0 80 57 00
        E 0 80 60 00
        E 0 80 63 00
        E 160 90 1a 60
        E 0 90 2a 60
        E 0 90 3d 60
        E 0 90 3f 60
        E 0 90 49 60
        E 0 90 4b 60
        E 0 90 55 60
        E 0 90 57 60
        E 0 90 61 60
        E 0 90 63 60
        E 80 80 1a 00
        E 0 80 2a 00
        E 0 80 3d 00
        E 0 80 3f 00
        E 0 80 49 00
        E 0 80 4b 00
        E 0 80 55 00
        E 0 80 57 00
        E 0 80 61 00
        E 0 80 63 00
        E 160 90 2a 60
        E 0 90 57 60
        E 0 90 63 60
        E 80 80 2a 00
        E 0 80 57 00
        E 0 80 63 00
        E 80 90 1c 60
        E 0 90 61 60
        E 40 80 1c 00
        E 0 80 61 00
        E 0 90 1c 60
        E 0 90 61 60
        E 40 80 1c 00
        E 0 80 61 00
        E 0 90 18 60
        E 0 90 2a 60
        E 0 90 3f 60
        E 0 90 48 60
        E 0 90 4b 60
        E 0 90 54 60
        E 0 90 57 60
        E 0 90 60 60
        E 0 90 63 60
        E 80 80 18 00
        E 0 80 2a 00
        E 0 80 3f 00
        E 0 80 48 00
        E 0 80 4b 00
        E 0 80 54 00
        E 0 80 57 00
        E 0 80 60 00
        E 0 80 63 00
        E 160 90 18 60
        E 0 90 2a 60
        E 0 90 54 60
        E 0 90 57 60
        E 0 90 60 60
        E 0 90 63 60
        E 80 80 18 00
        E 0 80 2a 00
        E 0 80 54 00
        E 0 80 57 00
        E 0 80 60 00
        E 0 80 63 00
        E 160 90 1a 60
        E 0 90 2a 60
        E 0 90 3d 60
        E 0 90 3f 60
        E 0 90 49 60
        E 0 90 4b 60
        E 0 90 55 60
        E 0 90 57 60
        E 0 90 61 60
        E 0 90 63 60
        E 80 80 1a 00
        E 0 80 2a 00
        E 0 80 3d 00
        E 0 80 3f 00
        E 0 80 49 00
        E 0 80 4b 00
        E 0 80 55 00
        E 0 80 57 00
        E 0 80 61 00
        E 0 80 63 00
        E 160 90 2a 60
        E 0 90 57 60
        E 0 90 63 60
        E 80 80 2a 00
        E 0 80 57 00
        E 0 80 63 00
        E 80 90 1c 60
        E 0 90 61 60
        E 40 80 1c 00
        E 0 80 61 00
        E 0 90 1c 60
        E 0 90 61 60
        E 40 80 1c 00
        E 0 80 61 00
        E 0 90 18 60
        E 0 90 2a 60
        E 0 90 3f 60
        E 0 90 48 60
        E 0 90 4b 60
        E 0 90 54 60
        E 0 90 57 60
        E 0 90 60 60
        E 0 90 63 60
        E 0 90 78 60
        E 0 90 79 60
        E 0 90 7a 60
        E 0 90 7b 60
        E 0 90 7c 60
        E 80 80 18 00
        E 0 80 2a 00
        E 0 80 3f 00
        E 0 80 48 00
        E 0 80 4b 00
        E 0 80 54 00
        E 0 80 57 00
        E 0 80 60 00
        E 0 80 63 00
        E 160 90 18 60
        E 0 90 2a 60
        E 0 90 54 60
        E 0 90 57 60
        E 0 90 60 60
        E 0 90 63 60
        E 80 80 18 00
        E 0 80 2a 00
        E 0 80 54 00
        E 0 80 57 00
        E 0 80 60 00
        E 0 80 63 00
        E 160 90 1a 60
        E 0 90 2a 60
        E 0 90 3d 60
        E 0 90 3f 60
        E 0 90 49 60
        E 0 90 4b 60
        E 0 90 55 60
        E 0 90 57 60
        E 0 90 61 60
        E 0 90 63 60
        E 80 80 1a 00
        E 0 80 2a 00
        E 0 80 3d 00
        E 0 80 3f 00
        E 0 80 49 00
        E 0 80 4b 00
        E 0 80 55 00
        E 0 80 57 00
        E 0 80 61 00
        E 0 80 63 00
        E 160 90 2a 60
        E 0 90 57 60
        E 0 90 63 60
        E 80 80 2a 00
        E 0 80 57 00
        E 0 80 63 00
        <X 160 0
          /wFbaW50ZW5zZV0=
        >
        E 0 80 78 00
        E 0 80 79 00
        E 0 80 7a 00
        E 0 80 7b 00
        E 0 80 7c 00
        E 0 90 18 60
        E 0 90 19 60
        E 0 90 26 60
        E 0 90 40 60
        E 0 90 48 60
        E 0 90 4c 60
        E 0 90 54 60
        E 0 90 58 60
        E 0 90 60 60
        E 0 90 64 60
        E 80 80 26 00
        E 0 80 40 00
        E 0 80 4c 00
        E 0 80 58 00
        E 0 80 64 00
        E 40 80 18 00
        E 0 80 48 00
        E 0 80 54 00
        E 0 80 60 00
        E 0 90 18 60
        E 0 90 60 60
        E 120 80 18 00
        E 0 80 60 00
        E 0 90 1a 60
        E 0 90 1f 60
        E 0 90 55 60
        E 0 90 56 60
        E 0 90 61 60
        E 0 90 62 60
        E 120 80 1a 00
        E 0 80 1f 00
        E 0 80 55 00
        E 0 80 56 00
        E 0 80 61 00
        E 0 80 62 00
        E 120 90 1a 60
        E 0 90 1f 60
        E 0 90 3d 60
        E 0 90 3e 60
        E 0 90 49 60
        E 0 90 4a 60
        E 0 90 55 60
        E 0 90 56 60
        E 0 90 61 60
        E 0 90 62 60
        E 120 80 1a 00
        E 0 80 1f 00
        E 0 80 3d 00
        E 0 80 3e 00
        E 0 80 49 00
        E 0 80 4a 00
        E 0 80 55 00
        E 0 80 56 00
        E 0 80 61 00
        E 0 80 62 00
        E 120 90 1f 60
        E 0 90 56 60
        E 0 90 62 60
        E 120 80 1f 00
        E 0 80 56 00
        E 0 80 62 00
        E 0 90 1a 60
        E 0 90 61 60
        E 120 80 1a 00
        E 0 80 61 00
        E 0 90 18 60
        E 0 90 1f 60
        E 0 90 3e 60
        E 0 90 48 60
        E 0 90 4a 60
        E 0 90 54 60
        E 0 90 56 60
        E 0 90 60 60
        E 0 90 62 60
        E 120 80 18 00
        E 0 80 1f 00
        E 0 80 3e 00
        E 0 80 48 00
        E 0 80 4a 00
        E 0 80 54 00
        E 0 80 56 00
        E 0 80 60 00
        E 0 80 62 00
        E 120 90 1b 60
        E 0 90 55 60
        E 0 90 61 60
        E 120 80 1b 00
        E 0 80 55 00
        E 0 80 61 00
        E 0 90 1a 60
        E 0 90 61 60
        E 120 80 1a 00
        E 0 80 61 00
        E 0 90 1b 60
        E 0 90 3d 60
        E 0 90 49 60
        E 0 90 55 60
        E 0 90 61 60
        E 120 80 1b 00
        E 0 80 3d 00
        E 0 80 49 00
        E 0 80 55 00
        E 0 80 61 00
        E 0 90 1a 60
        E 0 90 61 60
        E 120 80 1a 00
        E 0 80 61 00
        E 0 90 1b 60
        E 0 90 55 60
        E 0 90 61 60
        E 120 80 1b 00
        E 0 80 55 00
        E 0 80 61 00
        E 0 90 1a 60
        E 0 90 61 60
        E 120 80 1a 00
        E 0 80 61 00
        E 0 90 18 60
        E 0 90 1f 60
        E 0 90 3e 60
        E 0 90 48 60
        E 0 90 4a 60
        E 0 90 54 60
        E 0 90 56 60
        E 0 90 60 60
        E 0 90 62 60
        E 120 80 18 00
        E 0 80 1f 00
        E 0 80 3e 00
        E 0 80 48 00
        E 0 80 4a 00
        E 0 80 54 00
        E 0 80 56 00
        E 0 80 60 00
        E 0 80 62 00
        E 0 90 18 60
        E 0 90 60 60
        E 120 80 18 00
        E 0 80 60 00
        E 0 90 1a 60
        E 0 90 1f 60
        E 0 90 55 60
        E 0 90 56 60
        E 0 90 61 60
        E 0 90 62 60
        E 120 80 1a 00
        E 0 80 1f 00
        E 0 80 55 00
        E 0 80 56 00
        E 0 80 61 00
        E 0 80 62 00
        E 120 90 1a 60
        E 0 90 1f 60
        E 0 90 3d 60
        E 0 90 3e 60
        E 0 90 49 60
        E 0 90 4a 60
        E 0 90 55 60
        E 0 90 56 60
        E 0 90 61 60
        E 0 90 62 60
        E 120 80 1a 00
        E 0 80 1f 00
        E 0 80 3d 00
        E 0 80 3e 00
        E 0 80 49 00
        E 0 80 4a 00
        E 0 80 55 00
        E 0 80 56 00
        E 0 80 61 00
        E 0 80 62 00
        E 120 90 1f 60
        E 0 90 56 60
        E 0 90 62 60
        E 120 80 1f 00
        E 0 80 56 00
        E 0 80 62 00
        E 0 90 1a 60
        E 0 90 61 60
        E 120 80 1a 00
        E 0 80 61 00
        E 0 90 18 60
        E 0 90 1f 60
        E 0 90 3e 60
        E 0 90 48 60
        E 0 90 4a 60
        E 0 90 54 60
        E 0 90 56 60
        E 0 90 60 60
        E 0 90 62 60
        E 0 90 78 60
        E 0 90 79 60
        E 0 90 7a 60
        E 0 90 7b 60
        E 0 90 7c 60
        E 120 80 18 00
        E 0 80 1f 00
        E 0 80 3e 00
        E 0 80 48 00
        E 0 80 4a 00
        E 0 80 54 00
        E 0 80 56 00
        E 0 80 60 00
        E 0 80 62 00
        E 0 90 18 60
        E 0 90 60 60
        E 120 80 19 00
        E 0 80 18 00
        E 0 80 60 00
        E 0 90 1a 60
        E 0 90 33 60
        E 0 90 55 60
        E 0 90 57 60
        E 0 90 61 60
        E 0 90 63 60
        E 0 90 6f 60
        E 120 80 1a 00
        E 0 80 33 00
        E 0 80 55 00
        E 0 80 57 00
        E 0 80 61 00
        E 0 80 63 00
        E 0 90 1a 60
        E 0 90 33 60
        E 0 90 61 60
        E 0 90 63 60
        E 120 80 1a 00
        E 0 80 33 00
        E 0 80 61 00
        E 0 80 63 00
        E 120 90 18 60
        E 0 90 60 60
        E 120 80 18 00
        E 0 80 60 00
        E 0 90 1a 60
        E 0 90 33 60
        E 0 90 55 60
        E 0 90 57 60
        E 0 90 61 60
        E 0 90 63 60
        E 120 80 1a 00
        E 0 80 33 00
        E 0 80 55 00
        E 0 80 57 00
        E 0 80 61 00
        E 0 80 63 00
        E 0 90 1a 60
        E 0 90 33 60
        E 0 90 61 60
        E 0 90 63 60
        E 120 80 78 00
        E 0 80 79 00
        E 0 80 7a 00
        E 0 80 7b 00
        E 0 80 7c 00
        E 0 80 6f 00
        E 0 80 1a 00
        E 0 80 33 00
        E 0 80 61 00
        E 0 80 63 00
        E 0 90 18 60
        E 0 90 19 60
        E 0 90 26 60
        E 0 90 40 60
        E 0 90 48 60
        E 0 90 4c 60
        E 0 90 54 60
        E 0 90 58 60
        E 0 90 60 60
        E 0 90 64 60
        E 120 80 18 00
        E 0 80 26 00
        E 0 80 40 00
        E 0 80 48 00
        E 0 80 4c 00
        E 0 80 54 00
        E 0 80 58 00
        E 0 80 60 00
        E 0 80 64 00
        E 0 90 18 60
        E 0 90 60 60
        E 120 80 18 00
        E 0 80 60 00
        E 0 90 1a 60
        E 0 90 1f 60
        E 0 90 55 60
        E 0 90 56 60
        E 0 90 61 60
        E 0 90 62 60
        E 120 80 1a 00
        E 0 80 1f 00
        E 0 80 55 00
        E 0 80 56 00
        E 0 80 61 00
        E 0 80 62 00
        E 120 90 1a 60
        E 0 90 1f 60
        E 0 90 3d 60
        E 0 90 3e 60
        E 0 90 49 60
        E 0 90 4a 60
        E 0 90 55 60
        E 0 90 56 60
        E 0 90 61 60
        E 0 90 62 60
        E 120 80 1a 00
        E 0 80 1f 00
        E 0 80 3d 00
        E 0 80 3e 00
        E 0 80 49 00
        E 0 80 4a 00
        E 0 80 55 00
        E 0 80 56 00
        E 0 80 61 00
        E 0 80 62 00
        E 120 90 1f 60
        E 0 90 56 60
        E 0 90 62 60
        E 120 80 1f 00
        E 0 80 56 00
        E 0 80 62 00
        E 0 90 1a 60
        E 0 90 61 60
        E 120 80 1a 00
        E 0 80 61 00
        E 0 90 18 60
        E 0 90 1f 60
        E 0 90 3e 60
        E 0 90 48 60
        E 0 90 4a 60
        E 0 90 54 60
        E 0 90 56 60
        E 0 90 60 60
        E 0 90 62 60
        E 120 80 18 00
        E 0 80 1f 00
        E 0 80 3e 00
        E 0 80 48 00
        E 0 80 4a 00
        E 0 80 54 00
        E 0 80 56 00
        E 0 80 60 00
        E 0 80 62 00
        E 120 90 1b 60
        E 0 90 55 60
        E 0 90 61 60
        E 120 80 1b 00
        E 0 80 55 00
        E 0 80 61 00
        E 0 90 1a 60
        E 0 90 61 60
        E 120 80 1a 00
        E 0 80 61 00
        E 0 90 1b 60
        E 0 90 3d 60
        E 0 90 49 60
        E 0 90 55 60
        E 0 90 61 60
        E 120 80 1b 00
        E 0 80 3d 00
        E 0 80 49 00
        E 0 80 55 00
        E 0 80 61 00
        E 0 90 1a 60
        E 0 90 61 60
        E 120 80 1a 00
        E 0 80 61 00
        E 0 90 1b 60
        E 0 90 55 60
        E 0 90 61 60
        E 120 80 1b 00
        E 0 80 55 00
        E 0 80 61 00
        E 0 90 1a 60
        E 0 90 61 60
        E 120 80 1a 00
        E 0 80 61 00
        E 0 90 18 60
        E 0 90 1f 60
        E 0 90 3e 60
        E 0 90 48 60
        E 0 90 4a 60
        E 0 90 54 60
        E 0 90 56 60
        E 0 90 60 60
        E 0 90 62 60
        E 0 90 74 60
        E 120 80 18 00
        E 0 80 1f 00
        E 0 80 3e 00
        E 0 80 48 00
        E 0 80 4a 00
        E 0 80 54 00
        E 0 80 56 00
        E 0 80 60 00
        E 0 80 62 00
        E 0 90 18 60
        E 0 90 60 60
        E 120 80 18 00
        E 0 80 60 00
        E 0 90 1a 60
        E 0 90 1f 60
        E 0 90 55 60
        E 0 90 56 60
        E 0 90 61 60
        E 0 90 62 60
        E 120 80 1a 00
        E 0 80 1f 00
        E 0 80 55 00
        E 0 80 56 00
        E 0 80 61 00
        E 0 80 62 00
        E 120 90 1a 60
        E 0 90 1f 60
        E 0 90 3d 60
        E 0 90 3e 60
        E 0 90 49 60
        E 0 90 4a 60
        E 0 90 55 60
        E 0 90 56 60
        E 0 90 61 60
        E 0 90 62 60
        E 120 80 1a 00
        E 0 80 1f 00
        E 0 80 3d 00
        E 0 80 3e 00
        E 0 80 49 00
        E 0 80 4a 00
        E 0 80 55 00
        E 0 80 56 00
        E 0 80 61 00
        E 0 80 62 00
        E 120 90 1f 60
        E 0 90 56 60
        E 0 90 62 60
        E 120 80 1f 00
        E 0 80 56 00
        E 0 80 62 00
        E 0 90 1a 60
        E 0 90 61 60
        E 120 80 1a 00
        E 0 80 61 00
        E 0 90 18 60
        E 0 90 1f 60
        E 0 90 3e 60
        E 0 90 48 60
        E 0 90 4a 60
        E 0 90 54 60
        E 0 90 56 60
        E 0 90 60 60
        E 0 90 62 60
        E 120 80 18 00
        E 0 80 1f 00
        E 0 80 3e 00
        E 0 80 48 00
        E 0 80 4a 00
        E 0 80 54 00
        E 0 80 56 00
        E 0 80 60 00
        E 0 80 62 00
        E 0 90 18 60
        E 0 90 60 60
        E 120 80 19 00
        E 0 80 18 00
        E 0 80 60 00
        E 0 90 1a 60
        E 0 90 33 60
        E 0 90 55 60
        E 0 90 57 60
        E 0 90 61 60
        E 0 90 63 60
        E 0 90 6f 60
        E 120 80 1a 00
        E 0 80 33 00
        E 0 80 55 00
        E 0 80 57 00
        E 0 80 61 00
        E 0 80 63 00
        E 0 90 1a 60
        E 0 90 33 60
        E 0 90 61 60
        E 0 90 63 60
        E 120 80 1a 00
        E 0 80 33 00
        E 0 80 61 00
        E 0 80 63 00
        E 120 90 18 60
        E 0 90 60 60
        E 120 80 18 00
        E 0 80 60 00
        E 0 90 1a 60
        E 0 90 33 60
        E 0 90 55 60
        E 0 90 57 60
        E 0 90 61 60
        E 0 90 63 60
        E 120 80 1a 00
        E 0 80 33 00
        E 0 80 55 00
        E 0 80 57 00
        E 0 80 61 00
        E 0 80 63 00
        E 0 90 1a 60
        E 0 90 33 60
        E 0 90 61 60
        E 0 90 63 60
        E 120 80 6f 00
        E 0 80 1a 00
        E 0 80 33 00
        E 0 80 61 00
        E 0 80 63 00
        E 0 90 18 60
        E 0 90 19 60
        E 0 90 26 60
        E 0 90 40 60
        E 0 90 48 60
        E 0 90 4c 60
        E 0 90 54 60
        E 0 90 58 60
        E 0 90 60 60
        E 0 90 64 60
        E 80 80 18 00
        E 0 80 26 00
        E 0 80 40 00
        E 0 80 48 00
        E 0 80 4c 00
        E 0 80 54 00
        E 0 80 58 00
        E 0 80 60 00
        E 0 80 64 00
        E 40 80 74 00
        E 120 90 18 60
        E 0 90 1f 60
        E 0 90 54 60
        E 0 90 56 60
        E 0 90 60 60
        E 0 90 62 60
        E 80 80 18 00
        E 0 80 1f 00
        E 0 80 54 00
        E 0 80 56 00
        E 0 80 60 00
        E 0 80 62 00
        E 160 90 1a 60
        E 0 90 1f 60
        E 0 90 3d 60
        E 0 90 3e 60
        E 0 90 49 60
        E 0 90 4a 60
        E 0 90 55 60
        E 0 90 56 60
        E 0 90 61 60
        E 0 90 62 60
        E 80 80 1a 00
        E 0 80 1f 00
        E 0 80 3d 00
        E 0 80 3e 00
        E 0 80 49 00
        E 0 80 4a 00
        E 0 80 55 00
        E 0 80 56 00
        E 0 80 61 00
        E 0 80 62 00
        E 160 90 1f 60
        E 0 90 56 60
        E 0 90 62 60
        E 80 80 1f 00
        E 0 80 56 00
        E 0 80 62 00
        E 80 90 18 60
        E 0 90 60 60
        E 80 80 18 00
        E 0 80 60 00
        E 0 90 1f 60
        E 0 90 3e 60
        E 0 90 4a 60
        E 0 90 56 60
        E 0 90 62 60
        E 80 80 1f 00
        E 0 80 3e 00
        E 0 80 4a 00
        E 0 80 56 00
        E 0 80 62 00
        E 160 90 18 60
        E 0 90 1f 60
        E 0 90 54 60
        E 0 90 56 60
        E 0 90 60 60
        E 0 90 62 60
        E 80 80 18 00
        E 0 80 1f 00
        E 0 80 54 00
        E 0 80 56 00
        E 0 80 60 00
        E 0 80 62 00
        E 160 90 1a 60
        E 0 90 1f 60
        E 0 90 3d 60
        E 0 90 3e 60
        E 0 90 49 60
        E 0 90 4a 60
        E 0 90 55 60
        E 0 90 56 60
        E 0 90 61 60
        E 0 90 62 60
        E 80 80 1a 00
        E 0 80 1f 00
        E 0 80 3d 00
        E 0 80 3e 00
        E 0 80 49 00
        E 0 80 4a 00
        E 0 80 55 00
        E 0 80 56 00
        E 0 80 61 00
        E 0 80 62 00
        E 160 90 1f 60
        E 0 90 56 60
        E 0 90 62 60
        E 80 80 1f 00
        E 0 80 56 00
        E 0 80 62 00
        E 160 90 18 60
        E 0 90 1f 60
        E 0 90 3e 60
        E 0 90 48 60
        E 0 90 4a 60
        E 0 90 54 60
        E 0 90 56 60
        E 0 90 60 60
        E 0 90 62 60
        E 80 80 18 00
        E 0 80 1f 00
        E 0 80 3e 00
        E 0 80 48 00
        E 0 80 4a 00
        E 0 80 54 00
        E 0 80 56 00
        E 0 80 60 00
        E 0 80 62 00
        E 160 90 18 60
        E 0 90 1f 60
        E 0 90 54 60
        E 0 90 56 60
        E 0 90 60 60
        E 0 90 62 60
        E 80 80 18 00
        E 0 80 1f 00
        E 0 80 54 00
        E 0 80 56 00
        E 0 80 60 00
        E 0 80 62 00
        E 160 90 1a 60
        E 0 90 1f 60
        E 0 90 3d 60
        E 0 90 3e 60
        E 0 90 49 60
        E 0 90 4a 60
        E 0 90 55 60
        E 0 90 56 60
        E 0 90 61 60
        E 0 90 62 60
        E 80 80 1a 00
        E 0 80 1f 00
        E 0 80 3d 00
        E 0 80 3e 00
        E 0 80 49 00
        E 0 80 4a 00
        E 0 80 55 00
        E 0 80 56 00
        E 0 80 61 00
        E 0 80 62 00
        E 160 90 1f 60
        E 0 90 56 60
        E 0 90 62 60
        E 80 80 1f 00
        E 0 80 56 00
        E 0 80 62 00
        E 80 90 18 60
        E 0 90 60 60
        E 80 80 18 00
        E 0 80 60 00
        E 0 90 1f 60
        E 0 90 3e 60
        E 0 90 4a 60
        E 0 90 56 60
        E 0 90 62 60
        E 0 90 78 60
        E 0 90 79 60
        E 0 90 7a 60
        E 0 90 7b 60
        E 0 90 7c 60
        E 80 80 1f 00
        E 0 80 3e 00
        E 0 80 4a 00
        E 0 80 56 00
        E 0 80 62 00
        E 160 90 18 60
        E 0 90 1f 60
        E 0 90 54 60
        E 0 90 56 60
        E 0 90 60 60
        E 0 90 62 60
        E 80 80 18 00
        E 0 80 1f 00
        E 0 80 54 00
        E 0 80 56 00
        E 0 80 60 00
        E 0 80 62 00
        E 160 90 1a 60
        E 0 90 1f 60
        E 0 90 3d 60
        E 0 90 3e 60
        E 0 90 49 60
        E 0 90 4a 60
        E 0 90 55 60
        E 0 90 56 60
        E 0 90 61 60
        E 0 90 62 60
        E 80 80 1a 00
        E 0 80 1f 00
        E 0 80 3d 00
        E 0 80 3e 00
        E 0 80 49 00
        E 0 80 4a 00
        E 0 80 55 00
        E 0 80 56 00
        E 0 80 61 00
        E 0 80 62 00
        E 160 90 1f 60
        E 0 90 56 60
        E 0 90 62 60
        E 80 80 1f 00
        E 0 80 56 00
        E 0 80 62 00
        E 160 80 78 00
        E 0 80 79 00
        E 0 80 7a 00
        E 0 80 7b 00
        E 0 80 7c 00
        E 0 90 18 60
        E 0 90 1f 60
        E 0 90 3e 60
        E 0 90 48 60
        E 0 90 4a 60
        E 0 90 54 60
        E 0 90 56 60
        E 0 90 60 60
        E 0 90 62 60
        E 80 80 18 00
        E 0 80 1f 00
        E 0 80 3e 00
        E 0 80 48 00
        E 0 80 4a 00
        E 0 80 54 00
        E 0 80 56 00
        E 0 80 60 00
        E 0 80 62 00
        E 160 90 18 60
        E 0 90 1f 60
        E 0 90 54 60
        E 0 90 56 60
        E 0 90 60 60
        E 0 90 62 60
        E 80 80 18 00
        E 0 80 1f 00
        E 0 80 54 00
        E 0 80 56 00
        E 0 80 60 00
        E 0 80 62 00
        E 160 90 1a 60
        E 0 90 1f 60
        E 0 90 3d 60
        E 0 90 3e 60
        E 0 90 49 60
        E 0 90 4a 60
        E 0 90 55 60
        E 0 90 56 60
        E 0 90 61 60
        E 0 90 62 60
        E 80 80 1a 00
        E 0 80 1f 00
        E 0 80 3d 00
        E 0 80 3e 00
        E 0 80 49 00
        E 0 80 4a 00
        E 0 80 55 00
        E 0 80 56 00
        E 0 80 61 00
        E 0 80 62 00
        E 160 90 1f 60
        E 0 90 56 60
        E 0 90 62 60
        E 80 80 1f 00
        E 0 80 56 00
        E 0 80 62 00
        E 80 90 18 60
        E 0 90 60 60
        E 80 80 18 00
        E 0 80 60 00
        E 0 90 1f 60
        E 0 90 3e 60
        E 0 90 4a 60
        E 0 90 56 60
        E 0 90 62 60
        E 80 80 1f 00
        E 0 80 3e 00
        E 0 80 4a 00
        E 0 80 56 00
        E 0 80 62 00
        E 160 90 18 60
        E 0 90 1f 60
        E 0 90 54 60
        E 0 90 56 60
        E 0 90 60 60
        E 0 90 62 60
        E 80 80 18 00
        E 0 80 1f 00
        E 0 80 54 00
        E 0 80 56 00
        E 0 80 60 00
        E 0 80 62 00
        E 160 90 1a 60
        E 0 90 1f 60
        E 0 90 3d 60
        E 0 90 3e 60
        E 0 90 49 60
        E 0 90 4a 60
        E 0 90 55 60
        E 0 90 56 60
        E 0 90 61 60
        E 0 90 62 60
        E 80 80 1a 00
        E 0 80 1f 00
        E 0 80 3d 00
        E 0 80 3e 00
        E 0 80 49 00
        E 0 80 4a 00
        E 0 80 55 00
        E 0 80 56 00
        E 0 80 61 00
        E 0 80 62 00
        E 160 90 1f 60
        E 0 90 56 60
        E 0 90 62 60
        E 80 80 1f 00
        E 0 80 56 00
        E 0 80 62 00
        E 160 90 18 60
        E 0 90 1f 60
        E 0 90 3e 60
        E 0 90 48 60
        E 0 90 4a 60
        E 0 90 54 60
        E 0 90 56 60
        E 0 90 60 60
        E 0 90 62 60
        E 80 80 18 00
        E 0 80 1f 00
        E 0 80 3e 00
        E 0 80 48 00
        E 0 80 4a 00
        E 0 80 54 00
        E 0 80 56 00
        E 0 80 60 00
        E 0 80 62 00
        E 160 90 18 60
        E 0 90 1f 60
        E 0 90 54 60
        E 0 90 56 60
        E 0 90 60 60
        E 0 90 62 60
        E 80 80 18 00
        E 0 80 1f 00
        E 0 80 54 00
        E 0 80 56 00
        E 0 80 60 00
        E 0 80 62 00
        E 160 90 1a 60
        E 0 90 1f 60
        E 0 90 3d 60
        E 0 90 3e 60
        E 0 90 49 60
        E 0 90 4a 60
        E 0 90 55 60
        E 0 90 56 60
        E 0 90 61 60
        E 0 90 62 60
        E 80 80 1a 00
        E 0 80 1f 00
        E 0 80 3d 00
        E 0 80 3e 00
        E 0 80 49 00
        E 0 80 4a 00
        E 0 80 55 00
        E 0 80 56 00
        E 0 80 61 00
        E 0 80 62 00
        E 160 90 1f 60
        E 0 90 56 60
        E 0 90 62 60
        E 80 80 1f 00
        E 0 80 56 00
        E 0 80 62 00
        E 80 90 18 60
        E 0 90 60 60
        E 80 80 18 00
        E 0 80 60 00
        E 0 90 1f 60
        E 0 90 3e 60
        E 0 90 4a 60
        E 0 90 56 60
        E 0 90 62 60
        E 0 90 78 60
        E 0 90 79 60
        E 0 90 7a 60
        E 0 90 7b 60
        E 0 90 7c 60
        E 80 80 1f 00
        E 0 80 3e 00
        E 0 80 4a 00
        E 0 80 56 00
        E 0 80 62 00
        E 160 90 18 60
        E 0 90 1f 60
        E 0 90 54 60
        E 0 90 56 60
        E 0 90 60 60
        E 0 90 62 60
        E 80 80 18 00
        E 0 80 1f 00
        E 0 80 54 00
        E 0 80 56 00
        E 0 80 60 00
        E 0 80 62 00
        E 160 90 1a 60
        E 0 90 1f 60
        E 0 90 3d 60
        E 0 90 3e 60
        E 0 90 49 60
        E 0 90 4a 60
        E 0 90 55 60
        E 0 90 56 60
        E 0 90 61 60
        E 0 90 62 60
        E 80 80 1a 00
        E 0 80 1f 00
        E 0 80 3d 00
        E 0 80 3e 00
        E 0 80 49 00
        E 0 80 4a 00
        E 0 80 55 00
        E 0 80 56 00
        E 0 80 61 00
        E 0 80 62 00
        E 160 90 1f 60
        E 0 90 56 60
        E 0 90 62 60
        E 80 80 1f 00
        E 0 80 56 00
        E 0 80 62 00
        E 160 80 78 00
        E 0 80 79 00
        E 0 80 7a 00
        E 0 80 7b 00
        E 0 80 7c 00
        E 0 90 18 60
        E 0 90 26 60
        E 0 90 40 60
        E 0 90 48 60
        E 0 90 4c 60
        E 0 90 54 60
        E 0 90 58 60
        E 0 90 60 60
        E 0 90 64 60
        E 80 80 18 00
        E 0 80 26 00
        E 0 80 40 00
        E 0 80 48 00
        E 0 80 4c 00
        E 0 80 54 00
        E 0 80 58 00
        E 0 80 60 00
        E 0 80 64 00
        E 160 90 18 60
        E 0 90 1f 60
        E 0 90 54 60
        E 0 90 56 60
        E 0 90 60 60
        E 0 90 62 60
        E 80 80 18 00
        E 0 80 1f 00
        E 0 80 54 00
        E 0 80 56 00
        E 0 80 60 00
        E 0 80 62 00
        E 160 90 1a 60
        E 0 90 1f 60
        E 0 90 3d 60
        E 0 90 3e 60
        E 0 90 49 60
        E 0 90 4a 60
        E 0 90 55 60
        E 0 90 56 60
        E 0 90 61 60
        E 0 90 62 60
        E 80 80 1a 00
        E 0 80 1f 00
        E 0 80 3d 00
        E 0 80 3e 00
        E 0 80 49 00
        E 0 80 4a 00
        E 0 80 55 00
        E 0 80 56 00
        E 0 80 61 00
        E 0 80 62 00
        E 160 90 1f 60
        E 0 90 56 60
        E 0 90 62 60
        E 80 80 1f 00
        E 0 80 56 00
        E 0 80 62 00
        E 80 90 18 60
        E 0 90 60 60
        E 80 80 18 00
        E 0 80 60 00
        E 0 90 1f 60
        E 0 90 3e 60
        E 0 90 4a 60
        E 0 90 56 60
        E 0 90 62 60
        E 80 80 1f 00
        E 0 80 3e 00
        E 0 80 4a 00
        E 0 80 56 00
        E 0 80 62 00
        E 160 90 18 60
        E 0 90 1f 60
        E 0 90 54 60
        E 0 90 56 60
        E 0 90 60 60
        E 0 90 62 60
        E 80 80 18 00
        E 0 80 1f 00
        E 0 80 54 00
        E 0 80 56 00
        E 0 80 60 00
        E 0 80 62 00
        E 160 90 1a 60
        E 0 90 1f 60
        E 0 90 3d 60
        E 0 90 3e 60
        E 0 90 49 60
        E 0 90 4a 60
        E 0 90 55 60
        E 0 90 56 60
        E 0 90 61 60
        E 0 90 62 60
        E 80 80 1a 00
        E 0 80 1f 00
        E 0 80 3d 00
        E 0 80 3e 00
        E 0 80 49 00
        E 0 80 4a 00
        E 0 80 55 00
        E 0 80 56 00
        E 0 80 61 00
        E 0 80 62 00
        E 160 90 1f 60
        E 0 90 56 60
        E 0 90 62 60
        E 80 80 1f 00
        E 0 80 56 00
        E 0 80 62 00
        E 160 90 18 60
        E 0 90 1f 60
        E 0 90 3e 60
        E 0 90 48 60
        E 0 90 4a 60
        E 0 90 54 60
        E 0 90 56 60
        E 0 90 60 60
        E 0 90 62 60
        E 80 80 18 00
        E 0 80 1f 00
        E 0 80 3e 00
        E 0 80 48 00
        E 0 80 4a 00
        E 0 80 54 00
        E 0 80 56 00
        E 0 80 60 00
        E 0 80 62 00
        E 160 90 18 60
        E 0 90 1f 60
        E 0 90 54 60
        E 0 90 56 60
        E 0 90 60 60
        E 0 90 62 60
        E 80 80 18 00
        E 0 80 1f 00
        E 0 80 54 00
        E 0 80 56 00
        E 0 80 60 00
        E 0 80 62 00
        E 160 90 1a 60
        E 0 90 1f 60
        E 0 90 3d 60
        E 0 90 3e 60
        E 0 90 49 60
        E 0 90 4a 60
        E 0 90 55 60
        E 0 90 56 60
        E 0 90 61 60
        E 0 90 62 60
        E 80 80 1a 00
        E 0 80 1f 00
        E 0 80 3d 00
        E 0 80 3e 00
        E 0 80 49 00
        E 0 80 4a 00
        E 0 80 55 00
        E 0 80 56 00
        E 0 80 61 00
        E 0 80 62 00
        E 160 90 1f 60
        E 0 90 56 60
        E 0 90 62 60
        E 80 80 1f 00
        E 0 80 56 00
        E 0 80 62 00
        E 80 90 18 60
        E 0 90 60 60
        E 80 80 18 00
        E 0 80 60 00
        E 0 90 1f 60
        E 0 90 3e 60
        E 0 90 4a 60
        E 0 90 56 60
        E 0 90 62 60
        E 0 90 78 60
        E 0 90 79 60
        E 0 90 7a 60
        E 0 90 7b 60
        E 0 90 7c 60
        E 80 80 1f 00
        E 0 80 3e 00
        E 0 80 4a 00
        E 0 80 56 00
        E 0 80 62 00
        E 160 90 18 60
        E 0 90 1f 60
        E 0 90 54 60
        E 0 90 56 60
        E 0 90 60 60
        E 0 90 62 60
        E 80 80 18 00
        E 0 80 1f 00
        E 0 80 54 00
        E 0 80 56 00
        E 0 80 60 00
        E 0 80 62 00
        E 160 90 1a 60
        E 0 90 1f 60
        E 0 90 3d 60
        E 0 90 3e 60
        E 0 90 49 60
        E 0 90 4a 60
        E 0 90 55 60
        E 0 90 56 60
        E 0 90 61 60
        E 0 90 62 60
        E 80 80 1a 00
        E 0 80 1f 00
        E 0 80 3d 00
        E 0 80 3e 00
        E 0 80 49 00
        E 0 80 4a 00
        E 0 80 55 00
        E 0 80 56 00
        E 0 80 61 00
        E 0 80 62 00
        E 160 90 1f 60
        E 0 90 56 60
        E 0 90 62 60
        E 80 80 1f 00
        E 0 80 56 00
        E 0 80 62 00
        E 160 80 78 00
        E 0 80 79 00
        E 0 80 7a 00
        E 0 80 7b 00
        E 0 80 7c 00
        E 0 90 18 60
        E 0 90 1f 60
        E 0 90 3e 60
        E 0 90 48 60
        E 0 90 4a 60
        E 0 90 54 60
        E 0 90 56 60
        E 0 90 60 60
        E 0 90 62 60
        E 80 80 18 00
        E 0 80 1f 00
        E 0 80 3e 00
        E 0 80 48 00
        E 0 80 4a 00
        E 0 80 54 00
        E 0 80 56 00
        E 0 80 60 00
        E 0 80 62 00
        E 160 90 18 60
        E 0 90 1f 60
        E 0 90 54 60
        E 0 90 56 60
        E 0 90 60 60
        E 0 90 62 60
        E 80 80 18 00
        E 0 80 1f 00
        E 0 80 54 00
        E 0 80 56 00
        E 0 80 60 00
        E 0 80 62 00
        E 160 90 1a 60
        E 0 90 1f 60
        E 0 90 3d 60
        E 0 90 3e 60
        E 0 90 49 60
        E 0 90 4a 60
        E 0 90 55 60
        E 0 90 56 60
        E 0 90 61 60
        E 0 90 62 60
        E 80 80 1a 00
        E 0 80 1f 00
        E 0 80 3d 00
        E 0 80 3e 00
        E 0 80 49 00
        E 0 80 4a 00
        E 0 80 55 00
        E 0 80 56 00
        E 0 80 61 00
        E 0 80 62 00
        E 160 90 1f 60
        E 0 90 56 60
        E 0 90 62 60
        E 80 80 1f 00
        E 0 80 56 00
        E 0 80 62 00
        E 80 90 18 60
        E 0 90 60 60
        E 80 80 18 00
        E 0 80 60 00
        E 0 90 1f 60
        E 0 90 3e 60
        E 0 90 4a 60
        E 0 90 56 60
        E 0 90 62 60
        E 80 80 1f 00
        E 0 80 3e 00
        E 0 80 4a 00
        E 0 80 56 00
        E 0 80 62 00
        E 160 90 18 60
        E 0 90 1f 60
        E 0 90 54 60
        E 0 90 56 60
        E 0 90 60 60
        E 0 90 62 60
        E 80 80 18 00
        E 0 80 1f 00
        E 0 80 54 00
        E 0 80 56 00
        E 0 80 60 00
        E 0 80 62 00
        E 160 90 1a 60
        E 0 90 1f 60
        E 0 90 3d 60
        E 0 90 3e 60
        E 0 90 49 60
        E 0 90 4a 60
        E 0 90 55 60
        E 0 90 56 60
        E 0 90 61 60
        E 0 90 62 60
        E 80 80 1a 00
        E 0 80 1f 00
        E 0 80 3d 00
        E 0 80 3e 00
        E 0 80 49 00
        E 0 80 4a 00
        E 0 80 55 00
        E 0 80 56 00
        E 0 80 61 00
        E 0 80 62 00
        E 160 90 1f 60
        E 0 90 56 60
        E 0 90 62 60
        E 80 80 1f 00
        E 0 80 56 00
        E 0 80 62 00
        E 160 90 18 60
        E 0 90 1f 60
        E 0 90 3e 60
        E 0 90 48 60
        E 0 90 4a 60
        E 0 90 54 60
        E 0 90 56 60
        E 0 90 60 60
        E 0 90 62 60
        E 80 80 18 00
        E 0 80 1f 00
        E 0 80 3e 00
        E 0 80 48 00
        E 0 80 4a 00
        E 0 80 54 00
        E 0 80 56 00
        E 0 80 60 00
        E 0 80 62 00
        E 160 90 18 60
        E 0 90 1f 60
        E 0 90 54 60
        E 0 90 56 60
        E 0 90 60 60
        E 0 90 62 60
        E 80 80 18 00
        E 0 80 1f 00
        E 0 80 54 00
        E 0 80 56 00
        E 0 80 60 00
        E 0 80 62 00
        E 160 90 1a 60
        E 0 90 1f 60
        E 0 90 3d 60
        E 0 90 3e 60
        E 0 90 49 60
        E 0 90 4a 60
        E 0 90 55 60
        E 0 90 56 60
        E 0 90 61 60
        E 0 90 62 60
        E 80 80 1a 00
        E 0 80 1f 00
        E 0 80 3d 00
        E 0 80 3e 00
        E 0 80 49 00
        E 0 80 4a 00
        E 0 80 55 00
        E 0 80 56 00
        E 0 80 61 00
        E 0 80 62 00
        E 160 90 1f 60
        E 0 90 56 60
        E 0 90 62 60
        E 80 80 1f 00
        E 0 80 56 00
        E 0 80 62 00
        E 80 90 18 60
        E 0 90 60 60
        E 80 80 18 00
        E 0 80 60 00
        E 0 90 1f 60
        E 0 90 3e 60
        E 0 90 4a 60
        E 0 90 56 60
        E 0 90 62 60
        E 0 90 78 60
        E 0 90 79 60
        E 0 90 7a 60
        E 0 90 7b 60
        E 0 90 7c 60
        E 80 80 1f 00
        E 0 80 3e 00
        E 0 80 4a 00
        E 0 80 56 00
        E 0 80 62 00
        E 160 90 18 60
        E 0 90 1f 60
        E 0 90 54 60
        E 0 90 56 60
        E 0 90 60 60
        E 0 90 62 60
        E 80 80 18 00
        E 0 80 1f 00
        E 0 80 54 00
        E 0 80 56 00
        E 0 80 60 00
        E 0 80 62 00
        E 160 90 1a 60
        E 0 90 1f 60
        E 0 90 3d 60
        E 0 90 3e 60
        E 0 90 49 60
        E 0 90 4a 60
        E 0 90 55 60
        E 0 90 56 60
        E 0 90 61 60
        E 0 90 62 60
        E 80 80 1a 00
        E 0 80 1f 00
        E 0 80 3d 00
        E 0 80 3e 00
        E 0 80 49 00
        E 0 80 4a 00
        E 0 80 55 00
        E 0 80 56 00
        E 0 80 61 00
        E 0 80 62 00
        E 160 90 1f 60
        E 0 90 56 60
        E 0 90 62 60
        E 80 80 1f 00
        E 0 80 56 00
        E 0 80 62 00
        E 160 80 78 00
        E 0 80 79 00
        E 0 80 7a 00
        E 0 80 7b 00
        E 0 80 7c 00
        E 0 90 18 60
        E 0 90 1f 60
        E 0 90 3e 60
        E 0 90 48 60
        E 0 90 4a 60
        E 0 90 54 60
        E 0 90 56 60
        E 0 90 60 60
        E 0 90 62 60
        E 80 80 18 00
        E 0 80 1f 00
        E 0 80 3e 00
        E 0 80 48 00
        E 0 80 4a 00
        E 0 80 54 00
        E 0 80 56 00
        E 0 80 60 00
        E 0 80 62 00
        E 160 90 18 60
        E 0 90 1f 60
        E 0 90 54 60
        E 0 90 56 60
        E 0 90 60 60
        E 0 90 62 60
        E 80 80 18 00
        E 0 80 1f 00
        E 0 80 54 00
        E 0 80 56 00
        E 0 80 60 00
        E 0 80 62 00
        E 160 90 1a 60
        E 0 90 1f 60
        E 0 90 3d 60
        E 0 90 3e 60
        E 0 90 49 60
        E 0 90 4a 60
        E 0 90 55 60
        E 0 90 56 60
        E 0 90 61 60
        E 0 90 62 60
        E 80 80 1a 00
        E 0 80 1f 00
        E 0 80 3d 00
        E 0 80 3e 00
        E 0 80 49 00
        E 0 80 4a 00
        E 0 80 55 00
        E 0 80 56 00
        E 0 80 61 00
        E 0 80 62 00
        E 160 90 1f 60
        E 0 90 56 60
        E 0 90 62 60
        E 80 80 1f 00
        E 0 80 56 00
        E 0 80 62 00
        E 80 90 18 60
        E 0 90 60 60
        E 80 80 18 00
        E 0 80 60 00
        E 0 90 1f 60
        E 0 90 3e 60
        E 0 90 4a 60
        E 0 90 56 60
        E 0 90 62 60
        E 80 80 1f 00
        E 0 80 3e 00
        E 0 80 4a 00
        E 0 80 56 00
        E 0 80 62 00
        E 160 90 18 60
        E 0 90 1f 60
        E 0 90 54 60
        E 0 90 56 60
        E 0 90 60 60
        E 0 90 62 60
        E 80 80 18 00
        E 0 80 1f 00
        E 0 80 54 00
        E 0 80 56 00
        E 0 80 60 00
        E 0 80 62 00
        E 160 90 1a 60
        E 0 90 1f 60
        E 0 90 3d 60
        E 0 90 3e 60
        E 0 90 49 60
        E 0 90 4a 60
        E 0 90 55 60
        E 0 90 56 60
        E 0 90 61 60
        E 0 90 62 60
        E 80 80 1a 00
        E 0 80 1f 00
        E 0 80 3d 00
        E 0 80 3e 00
        E 0 80 49 00
        E 0 80 4a 00
        E 0 80 55 00
        E 0 80 56 00
        E 0 80 61 00
        E 0 80 62 00
        E 160 90 1f 60
        E 0 90 56 60
        E 0 90 62 60
        E 80 80 1f 00
        E 0 80 56 00
        E 0 80 62 00
        E 160 90 18 60
        E 0 90 1f 60
        E 0 90 3e 60
        E 0 90 48 60
        E 0 90 4a 60
        E 0 90 54 60
        E 0 90 56 60
        E 0 90 60 60
        E 0 90 62 60
        E 80 80 18 00
        E 0 80 1f 00
        E 0 80 3e 00
        E 0 80 48 00
        E 0 80 4a 00
        E 0 80 54 00
        E 0 80 56 00
        E 0 80 60 00
        E 0 80 62 00
        E 160 90 18 60
        E 0 90 1f 60
        E 0 90 54 60
        E 0 90 56 60
        E 0 90 60 60
        E 0 90 62 60
        E 80 80 18 00
        E 0 80 1f 00
        E 0 80 54 00
        E 0 80 56 00
        E 0 80 60 00
        E 0 80 62 00
        E 160 90 1a 60
        E 0 90 1f 60
        E 0 90 3d 60
        E 0 90 3e 60
        E 0 90 49 60
        E 0 90 4a 60
        E 0 90 55 60
        E 0 90 56 60
        E 0 90 61 60
        E 0 90 62 60
        E 80 80 1a 00
        E 0 80 1f 00
        E 0 80 3d 00
        E 0 80 3e 00
        E 0 80 49 00
        E 0 80 4a 00
        E 0 80 55 00
        E 0 80 56 00
        E 0 80 61 00
        E 0 80 62 00
        E 160 90 1f 60
        E 0 90 56 60
        E 0 90 62 60
        E 80 80 1f 00
        E 0 80 56 00
        E 0 80 62 00
        E 80 90 18 60
        E 0 90 60 60
        E 80 80 18 00
        E 0 80 60 00
        E 0 90 1f 60
        E 0 90 3e 60
        E 0 90 4a 60
        E 0 90 56 60
        E 0 90 62 60
        E 0 90 78 60
        E 0 90 79 60
        E 0 90 7a 60
        E 0 90 7b 60
        E 0 90 7c 60
        E 80 80 1f 00
        E 0 80 3e 00
        E 0 80 4a 00
        E 0 80 56 00
        E 0 80 62 00
        E 160 90 18 60
        E 0 90 1f 60
        E 0 90 54 60
        E 0 90 56 60
        E 0 90 60 60
        E 0 90 62 60
        E 80 80 18 00
        E 0 80 1f 00
        E 0 80 54 00
        E 0 80 56 00
        E 0 80 60 00
        E 0 80 62 00
        E 160 90 1a 60
        E 0 90 1f 60
        E 0 90 3d 60
        E 0 90 3e 60
        E 0 90 49 60
        E 0 90 4a 60
        E 0 90 55 60
        E 0 90 56 60
        E 0 90 61 60
        E 0 90 62 60
        E 80 80 1a 00
        E 0 80 1f 00
        E 0 80 3d 00
        E 0 80 3e 00
        E 0 80 49 00
        E 0 80 4a 00
        E 0 80 55 00
        E 0 80 56 00
        E 0 80 61 00
        E 0 80 62 00
        E 160 90 1f 60
        E 0 90 56 60
        E 0 90 62 60
        E 80 80 1f 00
        E 0 80 56 00
        E 0 80 62 00
        E 160 80 78 00
        E 0 80 79 00
        E 0 80 7a 00
        E 0 80 7b 00
        E 0 80 7c 00
        E 0 90 18 60
        E 0 90 1f 60
        E 0 90 3e 60
        E 0 90 48 60
        E 0 90 4a 60
        E 0 90 54 60
        E 0 90 56 60
        E 0 90 60 60
        E 0 90 62 60
        E 80 80 18 00
        E 0 80 1f 00
        E 0 80 3e 00
        E 0 80 48 00
        E 0 80 4a 00
        E 0 80 54 00
        E 0 80 56 00
        E 0 80 60 00
        E 0 80 62 00
        E 160 90 18 60
        E 0 90 1f 60
        E 0 90 54 60
        E 0 90 56 60
        E 0 90 60 60
        E 0 90 62 60
        E 80 80 18 00
        E 0 80 1f 00
        E 0 80 54 00
        E 0 80 56 00
        E 0 80 60 00
        E 0 80 62 00
        E 160 90 1a 60
        E 0 90 1f 60
        E 0 90 3d 60
        E 0 90 3e 60
        E 0 90 49 60
        E 0 90 4a 60
        E 0 90 55 60
        E 0 90 56 60
        E 0 90 61 60
        E 0 90 62 60
        E 80 80 1a 00
        E 0 80 1f 00
        E 0 80 3d 00
        E 0 80 3e 00
        E 0 80 49 00
        E 0 80 4a 00
        E 0 80 55 00
        E 0 80 56 00
        E 0 80 61 00
        E 0 80 62 00
        E 160 90 1f 60
        E 0 90 56 60
        E 0 90 62 60
        E 80 80 1f 00
        E 0 80 56 00
        E 0 80 62 00
        E 80 90 18 60
        E 0 90 60 60
        E 80 80 18 00
        E 0 80 60 00
        E 0 90 1f 60
        E 0 90 3e 60
        E 0 90 4a 60
        E 0 90 56 60
        E 0 90 62 60
        E 80 80 1f 00
        E 0 80 3e 00
        E 0 80 4a 00
        E 0 80 56 00
        E 0 80 62 00
        E 160 90 18 60
        E 0 90 1f 60
        E 0 90 54 60
        E 0 90 56 60
        E 0 90 60 60
        E 0 90 62 60
        E 80 80 18 00
        E 0 80 1f 00
        E 0 80 54 00
        E 0 80 56 00
        E 0 80 60 00
        E 0 80 62 00
        E 160 90 1a 60
        E 0 90 1f 60
        E 0 90 3d 60
        E 0 90 3e 60
        E 0 90 49 60
        E 0 90 4a 60
        E 0 90 55 60
        E 0 90 56 60
        E 0 90 61 60
        E 0 90 62 60
        E 80 80 1a 00
        E 0 80 1f 00
        E 0 80 3d 00
        E 0 80 3e 00
        E 0 80 49 00
        E 0 80 4a 00
        E 0 80 55 00
        E 0 80 56 00
        E 0 80 61 00
        E 0 80 62 00
        E 160 90 1f 60
        E 0 90 56 60
        E 0 90 62 60
        E 80 80 1f 00
        E 0 80 56 00
        E 0 80 62 00
        E 160 90 18 60
        E 0 90 1f 60
        E 0 90 3e 60
        E 0 90 48 60
        E 0 90 4a 60
        E 0 90 54 60
        E 0 90 56 60
        E 0 90 60 60
        E 0 90 62 60
        E 0 90 74 60
        E 80 80 18 00
        E 0 80 1f 00
        E 0 80 3e 00
        E 0 80 48 00
        E 0 80 4a 00
        E 0 80 54 00
        E 0 80 56 00
        E 0 80 60 00
        E 0 80 62 00
        E 160 90 18 60
        E 0 90 1f 60
        E 0 90 54 60
        E 0 90 56 60
        E 0 90 60 60
        E 0 90 62 60
        E 80 80 18 00
        E 0 80 1f 00
        E 0 80 54 00
        E 0 80 56 00
        E 0 80 60 00
        E 0 80 62 00
        E 160 90 1a 60
        E 0 90 1f 60
        E 0 90 3d 60
        E 0 90 3e 60
        E 0 90 49 60
        E 0 90 4a 60
        E 0 90 55 60
        E 0 90 56 60
        E 0 90 61 60
        E 0 90 62 60
        E 80 80 1a 00
        E 0 80 1f 00
        E 0 80 3d 00
        E 0 80 3e 00
        E 0 80 49 00
        E 0 80 4a 00
        E 0 80 55 00
        E 0 80 56 00
        E 0 80 61 00
        E 0 80 62 00
        E 160 90 1f 60
        E 0 90 56 60
        E 0 90 62 60
        E 80 80 1f 00
        E 0 80 56 00
        E 0 80 62 00
        E 80 90 18 60
        E 0 90 60 60
        E 80 80 18 00
        E 0 80 60 00
        E 0 90 1f 60
        E 0 90 3e 60
        E 0 90 4a 60
        E 0 90 56 60
        E 0 90 62 60
        E 80 80 1f 00
        E 0 80 3e 00
        E 0 80 4a 00
        E 0 80 56 00
        E 0 80 62 00
        E 160 90 18 60
        E 0 90 1f 60
        E 0 90 54 60
        E 0 90 56 60
        E 0 90 60 60
        E 0 90 62 60
        E 80 80 18 00
        E 0 80 1f 00
        E 0 80 54 00
        E 0 80 56 00
        E 0 80 60 00
        E 0 80 62 00
        E 160 90 1a 60
        E 0 90 1f 60
        E 0 90 3d 60
        E 0 90 3e 60
        E 0 90 49 60
        E 0 90 4a 60
        E 0 90 55 60
        E 0 90 56 60
        E 0 90 61 60
        E 0 90 62 60
        E 80 80 1a 00
        E 0 80 1f 00
        E 0 80 3d 00
        E 0 80 3e 00
        E 0 80 49 00
        E 0 80 4a 00
        E 0 80 55 00
        E 0 80 56 00
        E 0 80 61 00
        E 0 80 62 00
        E 160 90 1f 60
        E 0 90 56 60
        E 0 90 62 60
        E 80 80 1f 00
        E 0 80 56 00
        E 0 80 62 00
        E 160 90 18 60
        E 0 90 26 60
        E 0 90 40 60
        E 0 90 48 60
        E 0 90 4c 60
        E 0 90 54 60
        E 0 90 58 60
        E 0 90 60 60
        E 0 90 64 60
        E 80 80 18 00
        E 0 80 26 00
        E 0 80 40 00
        E 0 80 48 00
        E 0 80 4c 00
        E 0 80 54 00
        E 0 80 58 00
        E 0 80 60 00
        E 0 80 64 00
        E 40 80 74 00
        E 120 90 18 60
        E 0 90 1f 60
        E 0 90 54 60
        E 0 90 56 60
        E 0 90 60 60
        E 0 90 62 60
        E 80 80 18 00
        E 0 80 1f 00
        E 0 80 54 00
        E 0 80 56 00
        E 0 80 60 00
        E 0 80 62 00
        E 160 90 1a 60
        E 0 90 1f 60
        E 0 90 3d 60
        E 0 90 3e 60
        E 0 90 49 60
        E 0 90 4a 60
        E 0 90 55 60
        E 0 90 56 60
        E 0 90 61 60
        E 0 90 62 60
        E 80 80 1a 00
        E 0 80 1f 00
        E 0 80 3d 00
        E 0 80 3e 00
        E 0 80 49 00
        E 0 80 4a 00
        E 0 80 55 00
        E 0 80 56 00
        E 0 80 61 00
        E 0 80 62 00
        E 160 90 1f 60
        E 0 90 56 60
        E 0 90 62 60
        E 80 80 1f 00
        E 0 80 56 00
        E 0 80 62 00
        E 80 90 18 60
        E 0 90 60 60
        E 80 80 18 00
        E 0 80 60 00
        E 0 90 1f 60
        E 0 90 3e 60
        E 0 90 4a 60
        E 0 90 56 60
        E 0 90 62 60
        E 80 80 1f 00
        E 0 80 3e 00
        E 0 80 4a 00
        E 0 80 56 00
        E 0 80 62 00
        E 160 90 18 60
        E 0 90 1f 60
        E 0 90 54 60
        E 0 90 56 60
        E 0 90 60 60
        E 0 90 62 60
        E 80 80 18 00
        E 0 80 1f 00
        E 0 80 54 00
        E 0 80 56 00
        E 0 80 60 00
        E 0 80 62 00
        E 160 90 1a 60
        E 0 90 1f 60
        E 0 90 3d 60
        E 0 90 3e 60
        E 0 90 49 60
        E 0 90 4a 60
        E 0 90 55 60
        E 0 90 56 60
        E 0 90 61 60
        E 0 90 62 60
        E 80 80 1a 00
        E 0 80 1f 00
        E 0 80 3d 00
        E 0 80 3e 00
        E 0 80 49 00
        E 0 80 4a 00
        E 0 80 55 00
        E 0 80 56 00
        E 0 80 61 00
        E 0 80 62 00
        E 160 90 1f 60
        E 0 90 56 60
        E 0 90 62 60
        E 80 80 1f 00
        E 0 80 56 00
        E 0 80 62 00
        E 160 90 18 60
        E 0 90 1f 60
        E 0 90 3e 60
        E 0 90 48 60
        E 0 90 4a 60
        E 0 90 54 60
        E 0 90 56 60
        E 0 90 60 60
        E 0 90 62 60
        E 80 80 18 00
        E 0 80 1f 00
        E 0 80 3e 00
        E 0 80 48 00
        E 0 80 4a 00
        E 0 80 54 00
        E 0 80 56 00
        E 0 80 60 00
        E 0 80 62 00
        E 160 90 18 60
        E 0 90 1f 60
        E 0 90 54 60
        E 0 90 56 60
        E 0 90 60 60
        E 0 90 62 60
        E 80 80 18 00
        E 0 80 1f 00
        E 0 80 54 00
        E 0 80 56 00
        E 0 80 60 00
        E 0 80 62 00
        E 160 90 1a 60
        E 0 90 1f 60
        E 0 90 3d 60
        E 0 90 3e 60
        E 0 90 49 60
        E 0 90 4a 60
        E 0 90 55 60
        E 0 90 56 60
        E 0 90 61 60
        E 0 90 62 60
        E 80 80 1a 00
        E 0 80 1f 00
        E 0 80 3d 00
        E 0 80 3e 00
        E 0 80 49 00
        E 0 80 4a 00
        E 0 80 55 00
        E 0 80 56 00
        E 0 80 61 00
        E 0 80 62 00
        E 160 90 1f 60
        E 0 90 56 60
        E 0 90 62 60
        E 80 80 1f 00
        E 0 80 56 00
        E 0 80 62 00
        E 80 90 18 60
        E 0 90 60 60
        E 80 80 18 00
        E 0 80 60 00
        E 0 90 1f 60
        E 0 90 3e 60
        E 0 90 4a 60
        E 0 90 56 60
        E 0 90 62 60
        E 0 90 78 60
        E 0 90 79 60
        E 0 90 7a 60
        E 0 90 7b 60
        E 0 90 7c 60
        E 80 80 1f 00
        E 0 80 3e 00
        E 0 80 4a 00
        E 0 80 56 00
        E 0 80 62 00
        E 160 90 18 60
        E 0 90 1f 60
        E 0 90 54 60
        E 0 90 56 60
        E 0 90 60 60
        E 0 90 62 60
        E 80 80 18 00
        E 0 80 1f 00
        E 0 80 54 00
        E 0 80 56 00
        E 0 80 60 00
        E 0 80 62 00
        E 160 90 1a 60
        E 0 90 1f 60
        E 0 90 3d 60
        E 0 90 3e 60
        E 0 90 49 60
        E 0 90 4a 60
        E 0 90 55 60
        E 0 90 56 60
        E 0 90 61 60
        E 0 90 62 60
        E 80 80 1a 00
        E 0 80 1f 00
        E 0 80 3d 00
        E 0 80 3e 00
        E 0 80 49 00
        E 0 80 4a 00
        E 0 80 55 00
        E 0 80 56 00
        E 0 80 61 00
        E 0 80 62 00
        E 160 90 1f 60
        E 0 90 56 60
        E 0 90 62 60
        E 80 80 1f 00
        E 0 80 56 00
        E 0 80 62 00
        E 160 80 78 00
        E 0 80 79 00
        E 0 80 7a 00
        E 0 80 7b 00
        E 0 80 7c 00
        E 0 90 18 60
        E 0 90 1f 60
        E 0 90 3e 60
        E 0 90 48 60
        E 0 90 4a 60
        E 0 90 54 60
        E 0 90 56 60
        E 0 90 60 60
        E 0 90 62 60
        E 80 80 18 00
        E 0 80 1f 00
        E 0 80 3e 00
        E 0 80 48 00
        E 0 80 4a 00
        E 0 80 54 00
        E 0 80 56 00
        E 0 80 60 00
        E 0 80 62 00
        E 160 90 18 60
        E 0 90 1f 60
        E 0 90 54 60
        E 0 90 56 60
        E 0 90 60 60
        E 0 90 62 60
        E 80 80 18 00
        E 0 80 1f 00
        E 0 80 54 00
        E 0 80 56 00
        E 0 80 60 00
        E 0 80 62 00
        E 160 90 1a 60
        E 0 90 1f 60
        E 0 90 3d 60
        E 0 90 3e 60
        E 0 90 49 60
        E 0 90 4a 60
        E 0 90 55 60
        E 0 90 56 60
        E 0 90 61 60
        E 0 90 62 60
        E 80 80 1a 00
        E 0 80 1f 00
        E 0 80 3d 00
        E 0 80 3e 00
        E 0 80 49 00
        E 0 80 4a 00
        E 0 80 55 00
        E 0 80 56 00
        E 0 80 61 00
        E 0 80 62 00
        E 160 90 1f 60
        E 0 90 56 60
        E 0 90 62 60
        E 80 80 1f 00
        E 0 80 56 00
        E 0 80 62 00
        E 80 90 18 60
        E 0 90 60 60
        E 80 80 18 00
        E 0 80 60 00
        E 0 90 1f 60
        E 0 90 3e 60
        E 0 90 4a 60
        E 0 90 56 60
        E 0 90 62 60
        E 80 80 1f 00
        E 0 80 3e 00
        E 0 80 4a 00
        E 0 80 56 00
        E 0 80 62 00
        E 160 90 18 60
        E 0 90 1f 60
        E 0 90 54 60
        E 0 90 56 60
        E 0 90 60 60
        E 0 90 62 60
        E 80 80 18 00
        E 0 80 1f 00
        E 0 80 54 00
        E 0 80 56 00
        E 0 80 60 00
        E 0 80 62 00
        E 160 90 1a 60
        E 0 90 1f 60
        E 0 90 3d 60
        E 0 90 3e 60
        E 0 90 49 60
        E 0 90 4a 60
        E 0 90 55 60
        E 0 90 56 60
        E 0 90 61 60
        E 0 90 62 60
        E 80 80 1a 00
        E 0 80 1f 00
        E 0 80 3d 00
        E 0 80 3e 00
        E 0 80 49 00
        E 0 80 4a 00
        E 0 80 55 00
        E 0 80 56 00
        E 0 80 61 00
        E 0 80 62 00
        E 160 90 1f 60
        E 0 90 56 60
        E 0 90 62 60
        E 80 80 1f 00
        E 0 80 56 00
        E 0 80 62 00
        E 160 90 18 60
        E 0 90 1f 60
        E 0 90 3e 60
        E 0 90 48 60
        E 0 90 4a 60
        E 0 90 54 60
        E 0 90 56 60
        E 0 90 60 60
        E 0 90 62 60
        E 80 80 18 00
        E 0 80 1f 00
        E 0 80 3e 00
        E 0 80 48 00
        E 0 80 4a 00
        E 0 80 54 00
        E 0 80 56 00
        E 0 80 60 00
        E 0 80 62 00
        E 160 90 18 60
        E 0 90 1f 60
        E 0 90 54 60
        E 0 90 56 60
        E 0 90 60 60
        E 0 90 62 60
        E 80 80 18 00
        E 0 80 1f 00
        E 0 80 54 00
        E 0 80 56 00
        E 0 80 60 00
        E 0 80 62 00
        E 160 90 1a 60
        E 0 90 1f 60
        E 0 90 3d 60
        E 0 90 3e 60
        E 0 90 49 60
        E 0 90 4a 60
        E 0 90 55 60
        E 0 90 56 60
        E 0 90 61 60
        E 0 90 62 60
        E 80 80 1a 00
        E 0 80 1f 00
        E 0 80 3d 00
        E 0 80 3e 00
        E 0 80 49 00
        E 0 80 4a 00
        E 0 80 55 00
        E 0 80 56 00
        E 0 80 61 00
        E 0 80 62 00
        E 160 90 1f 60
        E 0 90 56 60
        E 0 90 62 60
        E 80 80 1f 00
        E 0 80 56 00
        E 0 80 62 00
        E 80 90 18 60
        E 0 90 60 60
        E 80 80 18 00
        E 0 80 60 00
        E 0 90 1f 60
        E 0 90 3e 60
        E 0 90 4a 60
        E 0 90 56 60
        E 0 90 62 60
        E 0 90 78 60
        E 0 90 79 60
        E 0 90 7a 60
        E 0 90 7b 60
        E 0 90 7c 60
        E 80 80 1f 00
        E 0 80 3e 00
        E 0 80 4a 00
        E 0 80 56 00
        E 0 80 62 00
        E 160 90 18 60
        E 0 90 1f 60
        E 0 90 54 60
        E 0 90 56 60
        E 0 90 60 60
        E 0 90 62 60
        E 80 80 18 00
        E 0 80 1f 00
        E 0 80 54 00
        E 0 80 56 00
        E 0 80 60 00
        E 0 80 62 00
        E 160 90 1a 60
        E 0 90 1f 60
        E 0 90 3d 60
        E 0 90 3e 60
        E 0 90 49 60
        E 0 90 4a 60
        E 0 90 55 60
        E 0 90 56 60
        E 0 90 61 60
        E 0 90 62 60
        E 80 80 1a 00
        E 0 80 1f 00
        E 0 80 3d 00
        E 0 80 3e 00
        E 0 80 49 00
        E 0 80 4a 00
        E 0 80 55 00
        E 0 80 56 00
        E 0 80 61 00
        E 0 80 62 00
        E 160 90 1f 60
        E 0 90 56 60
        E 0 90 62 60
        E 80 80 1f 00
        E 0 80 56 00
        E 0 80 62 00
        E 160 80 78 00
        E 0 80 79 00
        E 0 80 7a 00
        E 0 80 7b 00
        E 0 80 7c 00
        E 0 90 18 60
        E 0 90 1f 60
        E 0 90 3e 60
        E 0 90 48 60
        E 0 90 4a 60
        E 0 90 54 60
        E 0 90 56 60
        E 0 90 60 60
        E 0 90 62 60
        E 80 80 18 00
        E 0 80 1f 00
        E 0 80 3e 00
        E 0 80 48 00
        E 0 80 4a 00
        E 0 80 54 00
        E 0 80 56 00
        E 0 80 60 00
        E 0 80 62 00
        E 160 90 18 60
        E 0 90 1f 60
        E 0 90 54 60
        E 0 90 56 60
        E 0 90 60 60
        E 0 90 62 60
        E 80 80 18 00
        E 0 80 1f 00
        E 0 80 54 00
        E 0 80 56 00
        E 0 80 60 00
        E 0 80 62 00
        E 160 90 1a 60
        E 0 90 1f 60
        E 0 90 3d 60
        E 0 90 3e 60
        E 0 90 49 60
        E 0 90 4a 60
        E 0 90 55 60
        E 0 90 56 60
        E 0 90 61 60
        E 0 90 62 60
        E 80 80 1a 00
        E 0 80 1f 00
        E 0 80 3d 00
        E 0 80 3e 00
        E 0 80 49 00
        E 0 80 4a 00
        E 0 80 55 00
        E 0 80 56 00
        E 0 80 61 00
        E 0 80 62 00
        E 160 90 1f 60
        E 0 90 56 60
        E 0 90 62 60
        E 80 80 1f 00
        E 0 80 56 00
        E 0 80 62 00
        E 80 90 18 60
        E 0 90 60 60
        E 80 80 18 00
        E 0 80 60 00
        E 0 90 1f 60
        E 0 90 3e 60
        E 0 90 4a 60
        E 0 90 56 60
        E 0 90 62 60
        E 80 80 1f 00
        E 0 80 3e 00
        E 0 80 4a 00
        E 0 80 56 00
        E 0 80 62 00
        E 160 90 18 60
        E 0 90 1f 60
        E 0 90 54 60
        E 0 90 56 60
        E 0 90 60 60
        E 0 90 62 60
        E 80 80 18 00
        E 0 80 1f 00
        E 0 80 54 00
        E 0 80 56 00
        E 0 80 60 00
        E 0 80 62 00
        E 160 90 1a 60
        E 0 90 1f 60
        E 0 90 3d 60
        E 0 90 3e 60
        E 0 90 49 60
        E 0 90 4a 60
        E 0 90 55 60
        E 0 90 56 60
        E 0 90 61 60
        E 0 90 62 60
        E 80 80 1a 00
        E 0 80 1f 00
        E 0 80 3d 00
        E 0 80 3e 00
        E 0 80 49 00
        E 0 80 4a 00
        E 0 80 55 00
        E 0 80 56 00
        E 0 80 61 00
        E 0 80 62 00
        E 160 90 1f 60
        E 0 90 56 60
        E 0 90 62 60
        E 80 80 1f 00
        E 0 80 56 00
        E 0 80 62 00
        E 160 90 18 60
        E 0 90 1f 60
        E 0 90 3e 60
        E 0 90 48 60
        E 0 90 4a 60
        E 0 90 54 60
        E 0 90 56 60
        E 0 90 60 60
        E 0 90 62 60
        E 80 80 18 00
        E 0 80 1f 00
        E 0 80 3e 00
        E 0 80 48 00
        E 0 80 4a 00
        E 0 80 54 00
        E 0 80 56 00
        E 0 80 60 00
        E 0 80 62 00
        E 160 90 18 60
        E 0 90 1f 60
        E 0 90 54 60
        E 0 90 56 60
        E 0 90 60 60
        E 0 90 62 60
        E 80 80 18 00
        E 0 80 1f 00
        E 0 80 54 00
        E 0 80 56 00
        E 0 80 60 00
        E 0 80 62 00
        E 160 90 1a 60
        E 0 90 1f 60
        E 0 90 3d 60
        E 0 90 3e 60
        E 0 90 49 60
        E 0 90 4a 60
        E 0 90 55 60
        E 0 90 56 60
        E 0 90 61 60
        E 0 90 62 60
        E 80 80 1a 00
        E 0 80 1f 00
        E 0 80 3d 00
        E 0 80 3e 00
        E 0 80 49 00
        E 0 80 4a 00
        E 0 80 55 00
        E 0 80 56 00
        E 0 80 61 00
        E 0 80 62 00
        E 160 90 1f 60
        E 0 90 56 60
        E 0 90 62 60
        E 80 80 1f 00
        E 0 80 56 00
        E 0 80 62 00
        E 80 90 18 60
        E 0 90 60 60
        E 80 80 18 00
        E 0 80 60 00
        E 0 90 1f 60
        E 0 90 3e 60
        E 0 90 4a 60
        E 0 90 56 60
        E 0 90 62 60
        E 0 90 78 60
        E 0 90 79 60
        E 0 90 7a 60
        E 0 90 7b 60
        E 0 90 7c 60
        E 80 80 1f 00
        E 0 80 3e 00
        E 0 80 4a 00
        E 0 80 56 00
        E 0 80 62 00
        E 160 90 18 60
        E 0 90 1f 60
        E 0 90 54 60
        E 0 90 56 60
        E 0 90 60 60
        E 0 90 62 60
        E 80 80 18 00
        E 0 80 1f 00
        E 0 80 54 00
        E 0 80 56 00
        E 0 80 60 00
        E 0 80 62 00
        E 160 90 1a 60
        E 0 90 1f 60
        E 0 90 3d 60
        E 0 90 3e 60
        E 0 90 49 60
        E 0 90 4a 60
        E 0 90 55 60
        E 0 90 56 60
        E 0 90 61 60
        E 0 90 62 60
        E 80 80 1a 00
        E 0 80 1f 00
        E 0 80 3d 00
        E 0 80 3e 00
        E 0 80 49 00
        E 0 80 4a 00
        E 0 80 55 00
        E 0 80 56 00
        E 0 80 61 00
        E 0 80 62 00
        E 160 90 1f 60
        E 0 90 56 60
        E 0 90 62 60
        E 80 80 1f 00
        E 0 80 56 00
        E 0 80 62 00
        E 160 80 78 00
        E 0 80 79 00
        E 0 80 7a 00
        E 0 80 7b 00
        E 0 80 7c 00
        E 0 90 18 60
        E 0 90 1f 60
        E 0 90 3e 60
        E 0 90 48 60
        E 0 90 4a 60
        E 0 90 54 60
        E 0 90 56 60
        E 0 90 60 60
        E 0 90 62 60
        E 80 80 18 00
        E 0 80 1f 00
        E 0 80 3e 00
        E 0 80 48 00
        E 0 80 4a 00
        E 0 80 54 00
        E 0 80 56 00
        E 0 80 60 00
        E 0 80 62 00
        E 160 90 18 60
        E 0 90 1f 60
        E 0 90 54 60
        E 0 90 56 60
        E 0 90 60 60
        E 0 90 62 60
        E 80 80 18 00
        E 0 80 1f 00
        E 0 80 54 00
        E 0 80 56 00
        E 0 80 60 00
        E 0 80 62 00
        E 160 90 1a 60
        E 0 90 1f 60
        E 0 90 3d 60
        E 0 90 3e 60
        E 0 90 49 60
        E 0 90 4a 60
        E 0 90 55 60
        E 0 90 56 60
        E 0 90 61 60
        E 0 90 62 60
        E 80 80 1a 00
        E 0 80 1f 00
        E 0 80 3d 00
        E 0 80 3e 00
        E 0 80 49 00
        E 0 80 4a 00
        E 0 80 55 00
        E 0 80 56 00
        E 0 80 61 00
        E 0 80 62 00
        E 160 90 1f 60
        E 0 90 56 60
        E 0 90 62 60
        E 80 80 1f 00
        E 0 80 56 00
        E 0 80 62 00
        E 80 90 18 60
        E 0 90 60 60
        E 80 80 18 00
        E 0 80 60 00
        E 0 90 1f 60
        E 0 90 3e 60
        E 0 90 4a 60
        E 0 90 56 60
        E 0 90 62 60
        E 80 80 1f 00
        E 0 80 3e 00
        E 0 80 4a 00
        E 0 80 56 00
        E 0 80 62 00
        E 160 90 18 60
        E 0 90 1f 60
        E 0 90 54 60
        E 0 90 56 60
        E 0 90 60 60
        E 0 90 62 60
        E 80 80 18 00
        E 0 80 1f 00
        E 0 80 54 00
        E 0 80 56 00
        E 0 80 60 00
        E 0 80 62 00
        E 160 90 1a 60
        E 0 90 1f 60
        E 0 90 3d 60
        E 0 90 3e 60
        E 0 90 49 60
        E 0 90 4a 60
        E 0 90 55 60
        E 0 90 56 60
        E 0 90 61 60
        E 0 90 62 60
        E 80 80 1a 00
        E 0 80 1f 00
        E 0 80 3d 00
        E 0 80 3e 00
        E 0 80 49 00
        E 0 80 4a 00
        E 0 80 55 00
        E 0 80 56 00
        E 0 80 61 00
        E 0 80 62 00
        E 160 90 1f 60
        E 0 90 56 60
        E 0 90 62 60
        E 80 80 1f 00
        E 0 80 56 00
        E 0 80 62 00
        E 160 90 18 60
        E 0 90 1f 60
        E 0 90 3e 60
        E 0 90 48 60
        E 0 90 4a 60
        E 0 90 54 60
        E 0 90 56 60
        E 0 90 60 60
        E 0 90 62 60
        E 80 80 18 00
        E 0 80 1f 00
        E 0 80 3e 00
        E 0 80 48 00
        E 0 80 4a 00
        E 0 80 54 00
        E 0 80 56 00
        E 0 80 60 00
        E 0 80 62 00
        E 160 90 18 60
        E 0 90 1f 60
        E 0 90 54 60
        E 0 90 56 60
        E 0 90 60 60
        E 0 90 62 60
        E 80 80 18 00
        E 0 80 1f 00
        E 0 80 54 00
        E 0 80 56 00
        E 0 80 60 00
        E 0 80 62 00
        E 160 90 1a 60
        E 0 90 1f 60
        E 0 90 3d 60
        E 0 90 3e 60
        E 0 90 49 60
        E 0 90 4a 60
        E 0 90 55 60
        E 0 90 56 60
        E 0 90 61 60
        E 0 90 62 60
        E 80 80 1a 00
        E 0 80 1f 00
        E 0 80 3d 00
        E 0 80 3e 00
        E 0 80 49 00
        E 0 80 4a 00
        E 0 80 55 00
        E 0 80 56 00
        E 0 80 61 00
        E 0 80 62 00
        E 160 90 1f 60
        E 0 90 56 60
        E 0 90 62 60
        E 80 80 1f 00
        E 0 80 56 00
        E 0 80 62 00
        E 80 90 18 60
        E 0 90 60 60
        E 80 80 18 00
        E 0 80 60 00
        E 0 90 1f 60
        E 0 90 3e 60
        E 0 90 4a 60
        E 0 90 56 60
        E 0 90 62 60
        E 0 90 78 60
        E 0 90 79 60
        E 0 90 7a 60
        E 0 90 7b 60
        E 0 90 7c 60
        E 80 80 1f 00
        E 0 80 3e 00
        E 0 80 4a 00
        E 0 80 56 00
        E 0 80 62 00
        E 160 90 18 60
        E 0 90 1f 60
        E 0 90 54 60
        E 0 90 56 60
        E 0 90 60 60
        E 0 90 62 60
        E 80 80 18 00
        E 0 80 1f 00
        E 0 80 54 00
        E 0 80 56 00
        E 0 80 60 00
        E 0 80 62 00
        E 160 90 1a 60
        E 0 90 1f 60
        E 0 90 3d 60
        E 0 90 3e 60
        E 0 90 49 60
        E 0 90 4a 60
        E 0 90 55 60
        E 0 90 56 60
        E 0 90 61 60
        E 0 90 62 60
        E 80 80 1a 00
        E 0 80 1f 00
        E 0 80 3d 00
        E 0 80 3e 00
        E 0 80 49 00
        E 0 80 4a 00
        E 0 80 55 00
        E 0 80 56 00
        E 0 80 61 00
        E 0 80 62 00
        E 160 90 1f 60
        E 0 90 56 60
        E 0 90 62 60
        E 80 80 1f 00
        E 0 80 56 00
        E 0 80 62 00
        E 160 80 78 00
        E 0 80 79 00
        E 0 80 7a 00
        E 0 80 7b 00
        E 0 80 7c 00
        E 0 90 18 60
        E 0 90 26 60
        E 0 90 40 60
        E 0 90 48 60
        E 0 90 4c 60
        E 0 90 54 60
        E 0 90 58 60
        E 0 90 60 60
        E 0 90 64 60
        E 80 80 18 00
        E 0 80 26 00
        E 0 80 40 00
        E 0 80 48 00
        E 0 80 4c 00
        E 0 80 54 00
        E 0 80 58 00
        E 0 80 60 00
        E 0 80 64 00
        E 160 90 18 60
        E 0 90 1f 60
        E 0 90 54 60
        E 0 90 56 60
        E 0 90 60 60
        E 0 90 62 60
        E 80 80 18 00
        E 0 80 1f 00
        E 0 80 54 00
        E 0 80 56 00
        E 0 80 60 00
        E 0 80 62 00
        E 160 90 1a 60
        E 0 90 1f 60
        E 0 90 3d 60
        E 0 90 3e 60
        E 0 90 49 60
        E 0 90 4a 60
        E 0 90 55 60
        E 0 90 56 60
        E 0 90 61 60
        E 0 90 62 60
        E 80 80 1a 00
        E 0 80 1f 00
        E 0 80 3d 00
        E 0 80 3e 00
        E 0 80 49 00
        E 0 80 4a 00
        E 0 80 55 00
        E 0 80 56 00
        E 0 80 61 00
        E 0 80 62 00
        E 160 90 1f 60
        E 0 90 56 60
        E 0 90 62 60
        E 80 80 1f 00
        E 0 80 56 00
        E 0 80 62 00
        E 80 90 18 60
        E 0 90 60 60
        E 80 80 18 00
        E 0 80 60 00
        E 0 90 1f 60
        E 0 90 3e 60
        E 0 90 4a 60
        E 0 90 56 60
        E 0 90 62 60
        E 80 80 1f 00
        E 0 80 3e 00
        E 0 80 4a 00
        E 0 80 56 00
        E 0 80 62 00
        E 160 90 18 60
        E 0 90 1f 60
        E 0 90 54 60
        E 0 90 56 60
        E 0 90 60 60
        E 0 90 62 60
        E 80 80 18 00
        E 0 80 1f 00
        E 0 80 54 00
        E 0 80 56 00
        E 0 80 60 00
        E 0 80 62 00
        E 160 90 1a 60
        E 0 90 1f 60
        E 0 90 3d 60
        E 0 90 3e 60
        E 0 90 49 60
        E 0 90 4a 60
        E 0 90 55 60
        E 0 90 56 60
        E 0 90 61 60
        E 0 90 62 60
        E 80 80 1a 00
        E 0 80 1f 00
        E 0 80 3d 00
        E 0 80 3e 00
        E 0 80 49 00
        E 0 80 4a 00
        E 0 80 55 00
        E 0 80 56 00
        E 0 80 61 00
        E 0 80 62 00
        E 160 90 1f 60
        E 0 90 56 60
        E 0 90 62 60
        E 80 80 1f 00
        E 0 80 56 00
        E 0 80 62 00
        E 160 90 18 60
        E 0 90 1f 60
        E 0 90 3e 60
        E 0 90 48 60
        E 0 90 4a 60
        E 0 90 54 60
        E 0 90 56 60
        E 0 90 60 60
        E 0 90 62 60
        E 80 80 18 00
        E 0 80 1f 00
        E 0 80 3e 00
        E 0 80 48 00
        E 0 80 4a 00
        E 0 80 54 00
        E 0 80 56 00
        E 0 80 60 00
        E 0 80 62 00
        E 160 90 18 60
        E 0 90 1f 60
        E 0 90 54 60
        E 0 90 56 60
        E 0 90 60 60
        E 0 90 62 60
        E 80 80 18 00
        E 0 80 1f 00
        E 0 80 54 00
        E 0 80 56 00
        E 0 80 60 00
        E 0 80 62 00
        E 160 90 1a 60
        E 0 90 1f 60
        E 0 90 3d 60
        E 0 90 3e 60
        E 0 90 49 60
        E 0 90 4a 60
        E 0 90 55 60
        E 0 90 56 60
        E 0 90 61 60
        E 0 90 62 60
        E 80 80 1a 00
        E 0 80 1f 00
        E 0 80 3d 00
        E 0 80 3e 00
        E 0 80 49 00
        E 0 80 4a 00
        E 0 80 55 00
        E 0 80 56 00
        E 0 80 61 00
        E 0 80 62 00
        E 160 90 1f 60
        E 0 90 56 60
        E 0 90 62 60
        E 80 80 1f 00
        E 0 80 56 00
        E 0 80 62 00
        E 80 90 18 60
        E 0 90 60 60
        E 80 80 18 00
        E 0 80 60 00
        E 0 90 1f 60
        E 0 90 3e 60
        E 0 90 4a 60
        E 0 90 56 60
        E 0 90 62 60
        E 0 90 78 60
        E 0 90 79 60
        E 0 90 7a 60
        E 0 90 7b 60
        E 0 90 7c 60
        E 80 80 1f 00
        E 0 80 3e 00
        E 0 80 4a 00
        E 0 80 56 00
        E 0 80 62 00
        E 160 90 18 60
        E 0 90 1f 60
        E 0 90 54 60
        E 0 90 56 60
        E 0 90 60 60
        E 0 90 62 60
        E 80 80 18 00
        E 0 80 1f 00
        E 0 80 54 00
        E 0 80 56 00
        E 0 80 60 00
        E 0 80 62 00
        E 160 90 1a 60
        E 0 90 1f 60
        E 0 90 3d 60
        E 0 90 3e 60
        E 0 90 49 60
        E 0 90 4a 60
        E 0 90 55 60
        E 0 90 56 60
        E 0 90 61 60
        E 0 90 62 60
        E 80 80 1a 00
        E 0 80 1f 00
        E 0 80 3d 00
        E 0 80 3e 00
        E 0 80 49 00
        E 0 80 4a 00
        E 0 80 55 00
        E 0 80 56 00
        E 0 80 61 00
        E 0 80 62 00
        E 160 90 1f 60
        E 0 90 56 60
        E 0 90 62 60
        E 80 80 1f 00
        E 0 80 56 00
        E 0 80 62 00
        E 160 80 78 00
        E 0 80 79 00
        E 0 80 7a 00
        E 0 80 7b 00
        E 0 80 7c 00
        E 0 90 18 60
        E 0 90 1f 60
        E 0 90 3e 60
        E 0 90 48 60
        E 0 90 4a 60
        E 0 90 54 60
        E 0 90 56 60
        E 0 90 60 60
        E 0 90 62 60
        E 80 80 18 00
        E 0 80 1f 00
        E 0 80 3e 00
        E 0 80 48 00
        E 0 80 4a 00
        E 0 80 54 00
        E 0 80 56 00
        E 0 80 60 00
        E 0 80 62 00
        E 160 90 18 60
        E 0 90 1f 60
        E 0 90 54 60
        E 0 90 56 60
        E 0 90 60 60
        E 0 90 62 60
        E 80 80 18 00
        E 0 80 1f 00
        E 0 80 54 00
        E 0 80 56 00
        E 0 80 60 00
        E 0 80 62 00
        E 160 90 1a 60
        E 0 90 1f 60
        E 0 90 3d 60
        E 0 90 3e 60
        E 0 90 49 60
        E 0 90 4a 60
        E 0 90 55 60
        E 0 90 56 60
        E 0 90 61 60
        E 0 90 62 60
        E 80 80 1a 00
        E 0 80 1f 00
        E 0 80 3d 00
        E 0 80 3e 00
        E 0 80 49 00
        E 0 80 4a 00
        E 0 80 55 00
        E 0 80 56 00
        E 0 80 61 00
        E 0 80 62 00
        E 160 90 1f 60
        E 0 90 56 60
        E 0 90 62 60
        E 120 80 1f 00
        E 0 80 56 00
        E 0 80 62 00
        E 0 90 1a 60
        E 0 90 61 60
        E 120 80 1a 00
        E 0 80 61 00
        E 0 90 1f 60
        E 0 90 3e 60
        E 0 90 4a 60
        E 0 90 56 60
        E 0 90 62 60
        E 120 80 1f 00
        E 0 80 3e 00
        E 0 80 4a 00
        E 0 80 56 00
        E 0 80 62 00
        E 0 90 1a 60
        E 0 90 61 60
        E 120 80 1a 00
        E 0 80 61 00
        E 0 90 1b 60
        E 0 90 55 60
        E 0 90 61 60
        E 120 80 1b 00
        E 0 80 55 00
        E 0 80 61 00
        E 0 90 1a 60
        E 0 90 61 60
        E 120 80 1a 00
        E 0 80 61 00
        E 0 90 1b 60
        E 0 90 3d 60
        E 0 90 49 60
        E 0 90 55 60
        E 0 90 61 60
        E 120 80 1b 00
        E 0 80 3d 00
        E 0 80 49 00
        E 0 80 55 00
        E 0 80 61 00
        E 0 90 2e 60
        E 0 90 62 60
        E 0 90 6e 60
        E 120 80 2e 00
        E 0 80 62 00
        E 0 80 6e 00
        E 0 90 31 60
        E 0 90 57 60
        E 0 90 63 60
        E 0 90 6f 60
        E 120 80 31 00
        E 0 80 57 00
        E 0 80 63 00
        E 0 90 30 60
        E 0 90 63 60
        E 120 80 19 00
        E 0 80 6f 00
        E 0 80 30 00
        E 0 80 63 00
        E 0 90 18 60
        E 0 90 26 60
        E 0 90 40 60
        E 0 90 48 60
        E 0 90 4c 60
        E 0 90 54 60
        E 0 90 58 60
        E 0 90 60 60
        E 0 90 64 60
        E 80 80 18 00
        E 0 80 26 00
        E 0 80 40 00
        E 0 80 48 00
        E 0 80 4c 00
        E 0 80 54 00
        E 0 80 58 00
        E 0 80 60 00
        E 0 80 64 00
        <X 400 0
          /wFbaWRsZV9yZWFsdGltZV0=
        >
        E 7200 b0 7b 00
        GUID {9933DD4F-5112-457E-AAF1-98E51A9A741F}
        IGNTEMPO 0 120.00000000 4 4
        SRCCOLOR 4
        VELLANE 132 128 60
        COLORMAP "C:\Program Files\REAPER (x64)\Data\color_maps\rockband_guitarbass.png"
        CFGEDITVIEW 75004.582415 43.953026 0 12 0 0 0
        CFGEDIT 1 1 0 1 1 0 1 1 1 1 1 0.25000000 -8 -8 1544 872 0 2 2 2 0.00000000 0 1 0 0 0.500000 0 0 1.000000 64
        KEYSNAP 0 0 "102034050607" 0 "Major"
        EVTFILTER 1 -1 -1 -1 -1 0 1 0 0 -1.00000000 -1.00000000
      >
    >
  >
  <TRACK '{F12DD7DA-E1CC-4063-B2CE-AA0AEAF65C2D}'
    NAME "drums"
    PEAKCOL 16576
    BEAT -1
    AUTOMODE 0
    VOLPAN 1.00000000000000 0.00000000000000 -1.00000000000000 -1.00000000000000 1.00000000000000
    MUTESOLO 0 0 0
    IPHASE 0
    ISBUS 2 -1
    BUSCOMP 0 0
    SHOWINMIX 1 0.666700 0.500000 1 0.500000 -1 -1 -1
    FREEMODE 0
    SEL 0
    REC 0 0 0 0 0 0 0
    VU 2
    TRACKHEIGHT 0 0
    INQ 0 0 0 0.5000000000 100 0 0 100
    NCHAN 2
    FX 1
    TRACKID {F12DD7DA-E1CC-4063-B2CE-AA0AEAF65C2D}
    PERF 0
    MIDIOUT -1
    MAINSEND 1 0
    <ITEM
      POSITION 0.00000000000000
      SNAPOFFS 0.00000000000000
      LENGTH 215.03693877551021
      LOOP 0
      ALLTAKES 0
      SEL 0
      FADEIN 1 0.000000 0.000000 1 0
      FADEOUT 1 0.000000 0.000000 1 0
      MUTE 0
      IGUID {001E8BC6-0994-47A1-BF71-A00EFC0B1120}
      IID 88
      NAME "drums.wav"
      VOLPAN 1.000000 0.000000 1.000000 -1.000000
      SOFFS 0.00000000000000
      PLAYRATE 1.00000000000000 1 0.00000000000000 -1
      CHANMODE 0
      GUID {4F5076AF-2CB6-4C15-80B1-539A050B3524}
      <SOURCE WAVE
        FILE "wav\drums.wav"
      >
    >
  >
  <TRACK '{80CC3CAC-4DEC-4352-8801-FFEFD13CF34D}'
    NAME "PART BASS"
    PEAKCOL 16576
    BEAT -1
    AUTOMODE 0
    VOLPAN 1.00000000000000 0.00000000000000 -1.00000000000000 -1.00000000000000 1.00000000000000
    MUTESOLO 0 0 0
    IPHASE 0
    ISBUS 1 1
    BUSCOMP 0 0
    SHOWINMIX 1 0.666700 0.500000 1 0.500000 -1 -1 -1
    FREEMODE 0
    SEL 0
    REC 0 0 0 0 0 0 0
    VU 2
    TRACKHEIGHT 0 0
    INQ 0 0 0 0.5000000000 100 0 0 100
    NCHAN 2
    FX 1
    TRACKID {80CC3CAC-4DEC-4352-8801-FFEFD13CF34D}
    PERF 0
    MIDIOUT -1
    <MIDINOTENAMES
      0 127 "TRILL MARKER"
      0 126 "TREMOLO MARKER"
      0 125 "---"
      0 124 "BRE"
      0 123 "BRE"
      0 122 "BRE"
      0 121 "BRE"
      0 120 "BRE (use all 5)"
      0 119 "----"
      0 116 "OVERDRIVE"
      0 115 "----"
      0 103 "Solo Marker"
      0 102 "Force HOPO Off"
      0 101 "Force HOPO On"
      0 100 "EXPERT Orange"
      0 99 "EXPERT Blue"
      0 98 "EXPERT Yellow"
      0 97 "EXPERT Red"
      0 96 "EXPERT Green"
      0 95 "----"
      0 90 "Force HOPO Off"
      0 89 "Force HOPO On"
      0 88 "HARD Orange"
      0 87 "HARD Blue"
      0 86 "HARD Yellow"
      0 85 "HARD Red"
      0 84 "HARD Green"
      0 77 "----"
      0 76 "MEDIUM Orange"
      0 75 "MEDIUM Blue"
      0 74 "MEDIUM Yellow"
      0 73 "MEDIUM Red"
      0 72 "MEDIUM Green"
      0 65 "----"
      0 64 "EASY Orange"
      0 63 "EASY Blue"
      0 62 "EASY Yellow"
      0 61 "EASY Red"
      0 60 "EASY Green"
      0 59 "Fret 12"
      0 57 "Fret 11"
      0 56 "Fret 10"
      0 55 "Fret 9"
      0 53 "Fret 8"
      0 52 "Fret 7"
      0 50 "Fret 6"
      0 49 "Fret 5"
      0 47 "Fret 4"
      0 45 "Fret 3"
      0 43 "Fret 2"
      0 40 "Fret 1"
    >
    MAINSEND 1 0
    <FXCHAIN
      WNDRECT 73 196 878 560
      SHOW 0
      LASTSEL 0
      DOCKED 0
      BYPASS 0 0
      <VST "VSTi: RBN Preview (RBN)" "rbprev_vst64.dll" 0 ""
        dnBicu5e7f4AAAAAAgAAAAEAAAAAAAAAAgAAAAAAAAAEAAAAAQAAAA==
        AAAQAAAAqgAAABAAAAA=
      >
      FLOATPOS 0 0 0 0
      FXID {6C36E73A-1126-40A1-BF2E-97F4ADE143B3}
      WAK 0
    >
    <ITEM
      POSITION 0.00000000000000
      SNAPOFFS 0.00000000000000
      LENGTH 212.53693832905063
      LOOP 0
      ALLTAKES 0
      SEL 0
      FADEIN 1 0.000000 0.000000 1 0
      FADEOUT 1 0.000000 0.000000 1 0
      MUTE 0
      IGUID {29956C4C-AD17-4DBE-A9FC-7AF438859067}
      IID 63
      NAME "PART BASS"
      VOLPAN 1.000000 0.000000 1.000000 -1.000000
      SOFFS 0.00000000000000 0.00000000000000
      PLAYRATE 1.00000000000000 1 0.00000000000000 -1
      CHANMODE 0
      GUID {C25E6A9E-DA08-4FAF-B817-F153F019DB38}
      <SOURCE MIDI
        HASDATA 1 480 QN
        POOLEDEVTS {24460713-A530-414C-AB8E-1B166F8AC56B}
        <X 0 0
          /wNQQVJUIEJBU1M=
        >
        <X 3600 0
          /wFbcGxheV0=
        >
        E 240 90 2b 60
        E 0 90 3e 60
        E 0 90 4b 60
        E 0 90 57 60
        E 0 90 63 60
        E 960 80 3e 00
        E 0 80 4b 00
        E 360 80 57 00
        E 0 80 63 00
        E 120 90 4b 60
        E 0 90 57 60
        E 0 90 63 60
        E 120 80 4b 00
        E 0 80 57 00
        E 0 80 63 00
        E 120 90 56 60
        E 0 90 62 60
        E 0 90 65 60
        E 120 80 56 00
        E 0 80 62 00
        E 0 80 65 00
        E 120 90 3c 60
        E 0 90 49 60
        E 0 90 55 60
        E 0 90 61 60
        E 480 80 3c 00
        E 0 80 49 00
        E 360 80 55 00
        E 0 80 61 00
        E 120 90 3d 60
        E 0 90 4a 60
        E 0 90 56 60
        E 0 90 62 60
        E 480 80 3d 00
        E 0 80 4a 00
        E 360 80 56 00
        E 0 80 62 00
        E 120 90 3e 60
        E 0 90 4b 60
        E 0 90 57 60
        E 0 90 63 60
        E 960 80 3e 00
        E 0 80 4b 00
        E 360 80 57 00
        E 0 80 63 00
        E 120 90 4b 60
        E 0 90 57 60
        E 0 90 63 60
        E 120 80 4b 00
        E 0 80 57 00
        E 0 80 63 00
        E 120 90 56 60
        E 0 90 62 60
        E 0 90 65 60
        E 120 80 56 00
        E 0 80 62 00
        E 0 80 65 00
        E 120 90 3c 60
        E 0 90 49 60
        E 0 90 55 60
        E 0 90 61 60
        E 480 80 3c 00
        E 0 80 49 00
        E 360 80 55 00
        E 0 80 61 00
        E 120 90 3d 60
        E 0 90 4a 60
        E 0 90 56 60
        E 0 90 62 60
        E 480 80 3d 00
        E 0 80 4a 00
        E 360 80 56 00
        E 0 80 62 00
        E 120 90 3e 60
        E 0 90 4b 60
        E 0 90 57 60
        E 0 90 63 60
        E 960 80 3e 00
        E 0 80 4b 00
        E 360 80 57 00
        E 0 80 63 00
        E 120 90 4b 60
        E 0 90 57 60
        E 0 90 63 60
        E 120 80 4b 00
        E 0 80 57 00
        E 0 80 63 00
        E 120 90 56 60
        E 0 90 62 60
        E 0 90 65 60
        E 120 80 56 00
        E 0 80 62 00
        E 0 80 65 00
        E 120 90 3c 60
        E 0 90 49 60
        E 0 90 55 60
        E 0 90 61 60
        E 480 80 3c 00
        E 0 80 49 00
        E 360 80 55 00
        E 0 80 61 00
        E 120 90 3d 60
        E 0 90 4a 60
        E 0 90 56 60
        E 0 90 62 60
        E 480 80 3d 00
        E 0 80 4a 00
        E 360 80 56 00
        E 0 80 62 00
        E 120 90 3e 60
        E 0 90 4b 60
        E 0 90 57 60
        E 0 90 63 60
        E 960 80 3e 00
        E 0 80 4b 00
        E 360 80 57 00
        E 0 80 63 00
        E 120 90 4b 60
        E 0 90 57 60
        E 0 90 63 60
        E 120 80 4b 00
        E 0 80 57 00
        E 0 80 63 00
        E 120 90 56 60
        E 0 90 62 60
        E 0 90 65 60
        E 120 80 56 00
        E 0 80 62 00
        E 0 80 65 00
        E 120 90 3c 60
        E 0 90 49 60
        E 0 90 55 60
        E 0 90 61 60
        E 0 90 74 60
        E 480 80 3c 00
        E 0 80 49 00
        E 360 80 55 00
        E 0 80 61 00
        E 120 90 3d 60
        E 0 90 4a 60
        E 0 90 56 60
        E 0 90 62 60
        E 480 80 3d 00
        E 0 80 4a 00
        E 120 80 56 00
        E 0 80 62 00
        E 120 90 56 60
        E 0 90 62 60
        E 120 80 56 00
        E 0 80 62 00
        E 120 90 3e 60
        E 0 90 4b 60
        E 0 90 57 60
        E 0 90 63 60
        E 480 80 74 00
        E 2880 80 3e 00
        E 0 80 4b 00
        E 360 80 57 00
        E 0 80 63 00
        <X 120 0
          /wFbaW50ZW5zZV0=
        >
        E 0 90 3e 60
        E 0 90 4b 60
        E 0 90 57 60
        E 0 90 63 60
        E 120 80 3e 00
        E 0 80 4b 00
        E 240 80 57 00
        E 0 80 63 00
        E 120 90 3e 60
        E 0 90 4b 60
        E 0 90 57 60
        E 0 90 63 60
        E 120 80 3e 00
        E 0 80 4b 00
        E 240 80 57 00
        E 0 80 63 00
        E 120 90 3e 60
        E 0 90 4b 60
        E 0 90 57 60
        E 0 90 63 60
        E 120 80 3e 00
        E 0 80 4b 00
        E 240 80 57 00
        E 0 80 63 00
        E 120 90 4b 60
        E 0 90 57 60
        E 0 90 63 60
        E 120 80 4b 00
        E 240 80 57 00
        E 0 80 63 00
        E 120 90 3c 60
        E 0 90 49 60
        E 0 90 55 60
        E 0 90 61 60
        E 120 80 3c 00
        E 0 80 49 00
        E 240 80 55 00
        E 0 80 61 00
        E 120 90 49 60
        E 0 90 55 60
        E 0 90 61 60
        E 120 80 49 00
        E 240 80 55 00
        E 0 80 61 00
        E 120 90 3d 60
        E 0 90 4a 60
        E 0 90 56 60
        E 0 90 62 60
        E 120 80 3d 00
        E 0 80 4a 00
        E 0 80 56 00
        E 0 80 62 00
        E 120 90 4a 60
        E 0 90 56 60
        E 0 90 62 60
        E 120 80 4a 00
        E 0 80 56 00
        E 0 80 62 00
        E 120 90 4a 60
        E 0 90 56 60
        E 0 90 62 60
        E 120 80 4a 00
        E 240 80 56 00
        E 0 80 62 00
        E 120 90 3e 60
        E 0 90 4b 60
        E 0 90 57 60
        E 0 90 63 60
        E 120 80 3e 00
        E 0 80 4b 00
        E 240 80 57 00
        E 0 80 63 00
        E 120 90 3e 60
        E 0 90 4b 60
        E 0 90 57 60
        E 0 90 63 60
        E 120 80 3e 00
        E 0 80 4b 00
        E 240 80 57 00
        E 0 80 63 00
        E 120 90 3e 60
        E 0 90 4b 60
        E 0 90 57 60
        E 0 90 63 60
        E 120 80 3e 00
        E 0 80 4b 00
        E 240 80 57 00
        E 0 80 63 00
        E 120 90 4b 60
        E 0 90 57 60
        E 0 90 63 60
        E 120 80 4b 00
        E 240 80 57 00
        E 0 80 63 00
        E 120 90 3c 60
        E 0 90 49 60
        E 0 90 55 60
        E 0 90 61 60
        E 120 80 3c 00
        E 0 80 49 00
        E 240 80 55 00
        E 0 80 61 00
        E 120 90 49 60
        E 0 90 55 60
        E 0 90 61 60
        E 120 80 49 00
        E 240 80 55 00
        E 0 80 61 00
        E 120 90 3d 60
        E 0 90 4a 60
        E 0 90 56 60
        E 0 90 62 60
        E 120 80 3d 00
        E 0 80 4a 00
        E 0 80 56 00
        E 0 80 62 00
        E 120 90 4a 60
        E 0 90 56 60
        E 0 90 62 60
        E 120 80 4a 00
        E 0 80 56 00
        E 0 80 62 00
        E 120 90 4a 60
        E 0 90 56 60
        E 0 90 62 60
        E 120 80 4a 00
        E 240 80 56 00
        E 0 80 62 00
        E 120 90 3e 60
        E 0 90 4b 60
        E 0 90 57 60
        E 0 90 63 60
        E 120 80 3e 00
        E 0 80 4b 00
        E 240 80 57 00
        E 0 80 63 00
        E 120 90 3e 60
        E 0 90 4b 60
        E 0 90 57 60
        E 0 90 63 60
        E 120 80 3e 00
        E 0 80 4b 00
        E 240 80 57 00
        E 0 80 63 00
        E 120 90 3e 60
        E 0 90 4b 60
        E 0 90 57 60
        E 0 90 63 60
        E 120 80 3e 00
        E 0 80 4b 00
        E 0 80 57 00
        E 0 80 63 00
        E 120 90 4b 60
        E 0 90 57 60
        E 0 90 63 60
        E 120 80 4b 00
        E 0 80 57 00
        E 0 80 63 00
        E 120 90 4b 60
        E 0 90 57 60
        E 0 90 63 60
        E 120 80 4b 00
        E 240 80 57 00
        E 0 80 63 00
        E 120 90 3c 60
        E 0 90 49 60
        E 0 90 55 60
        E 0 90 61 60
        E 120 80 3c 00
        E 0 80 49 00
        E 240 80 55 00
        E 0 80 61 00
        E 120 90 49 60
        E 0 90 55 60
        E 0 90 61 60
        E 120 80 49 00
        E 240 80 55 00
        E 0 80 61 00
        E 120 90 3d 60
        E 0 90 4a 60
        E 0 90 56 60
        E 0 90 62 60
        E 120 80 3d 00
        E 0 80 4a 00
        E 0 80 56 00
        E 0 80 62 00
        E 120 90 4a 60
        E 0 90 56 60
        E 0 90 62 60
        E 120 80 4a 00
        E 0 80 56 00
        E 0 80 62 00
        E 120 90 4a 60
        E 0 90 56 60
        E 0 90 62 60
        E 120 80 4a 00
        E 240 80 56 00
        E 0 80 62 00
        E 120 90 3e 60
        E 0 90 4b 60
        E 0 90 57 60
        E 0 90 63 60
        E 0 90 74 60
        E 120 80 3e 00
        E 0 80 4b 00
        E 240 80 57 00
        E 0 80 63 00
        E 120 90 3e 60
        E 0 90 4b 60
        E 0 90 57 60
        E 0 90 63 60
        E 120 80 3e 00
        E 0 80 4b 00
        E 240 80 57 00
        E 0 80 63 00
        E 120 90 3e 60
        E 0 90 4b 60
        E 0 90 57 60
        E 0 90 63 60
        E 120 80 3e 00
        E 0 80 4b 00
        E 0 80 57 00
        E 0 80 63 00
        E 120 90 4b 60
        E 0 90 57 60
        E 0 90 63 60
        E 120 80 4b 00
        E 0 80 57 00
        E 0 80 63 00
        E 120 90 4b 60
        E 0 90 57 60
        E 0 90 63 60
        E 120 80 4b 00
        E 240 80 57 00
        E 0 80 63 00
        E 120 90 3c 60
        E 0 90 49 60
        E 0 90 55 60
        E 0 90 61 60
        E 120 80 3c 00
        E 0 80 49 00
        E 240 80 55 00
        E 0 80 61 00
        E 120 90 49 60
        E 0 90 55 60
        E 0 90 61 60
        E 120 80 49 00
        E 240 80 55 00
        E 0 80 61 00
        E 120 90 3d 60
        E 0 90 4a 60
        E 0 90 56 60
        E 0 90 62 60
        E 120 80 3d 00
        E 0 80 4a 00
        E 0 80 56 00
        E 0 80 62 00
        E 120 90 4a 60
        E 0 90 56 60
        E 0 90 62 60
        E 120 80 4a 00
        E 0 80 56 00
        E 0 80 62 00
        E 120 90 3d 60
        E 0 90 4a 60
        E 0 90 56 60
        E 0 90 62 60
        E 120 80 3d 00
        E 0 80 4a 00
        E 240 80 56 00
        E 0 80 62 00
        <X 120 0
          /wFbcGxheV0=
        >
        E 0 80 74 00
        E 0 90 3d 60
        E 0 90 4a 60
        E 0 90 56 60
        E 0 90 62 60
        E 120 80 3d 00
        E 0 80 4a 00
        E 0 80 56 00
        E 0 80 62 00
        E 120 90 57 60
        E 0 90 63 60
        E 120 80 57 00
        E 0 80 63 00
        E 1560 90 3c 60
        E 0 90 48 60
        E 0 90 54 60
        E 0 90 60 60
        E 120 80 3c 00
        E 0 80 48 00
        E 0 80 54 00
        E 0 80 60 00
        E 120 90 48 60
        E 0 90 54 60
        E 0 90 60 60
        E 120 80 48 00
        E 0 80 54 00
        E 0 80 60 00
        E 1560 90 3d 60
        E 0 90 4a 60
        E 0 90 56 60
        E 0 90 62 60
        E 120 80 3d 00
        E 0 80 4a 00
        E 0 80 56 00
        E 0 80 62 00
        E 120 90 57 60
        E 0 90 63 60
        E 120 80 57 00
        E 0 80 63 00
        E 1560 90 3c 60
        E 0 90 48 60
        E 0 90 54 60
        E 0 90 60 60
        E 120 80 3c 00
        E 0 80 48 00
        E 0 80 54 00
        E 0 80 60 00
        E 1800 90 3c 60
        E 0 90 48 60
        E 0 90 54 60
        E 0 90 60 60
        E 120 80 3c 00
        E 0 80 48 00
        E 0 80 54 00
        E 0 80 60 00
        E 120 90 48 60
        E 0 90 54 60
        E 0 90 60 60
        E 720 80 48 00
        E 0 80 54 00
        E 0 80 60 00
        E 120 90 56 60
        E 0 90 62 60
        E 120 80 56 00
        E 0 80 62 00
        E 240 90 4c 60
        E 0 90 58 60
        E 0 90 64 60
        E 120 80 4c 00
        E 0 80 58 00
        E 0 80 64 00
        E 120 90 56 60
        E 0 90 62 60
        E 120 80 2b 00
        E 0 80 56 00
        E 0 80 62 00
        E 120 90 28 60
        E 0 90 3e 60
        E 0 90 4b 60
        E 0 90 57 60
        E 0 90 63 60
        E 120 80 3e 00
        E 0 80 4b 00
        E 0 80 57 00
        E 0 80 63 00
        E 120 90 55 60
        E 0 90 61 60
        E 120 80 55 00
        E 0 80 61 00
        E 1440 80 28 00
        E 120 90 2b 60
        E 0 90 3c 60
        E 0 90 49 60
        E 0 90 55 60
        E 0 90 61 60
        E 120 80 3c 00
        E 0 80 49 00
        E 0 80 55 00
        E 0 80 61 00
        E 120 90 49 60
        E 0 90 55 60
        E 0 90 61 60
        E 720 80 49 00
        E 0 80 55 00
        E 0 80 61 00
        E 120 90 56 60
        E 0 90 62 60
        E 120 80 56 00
        E 0 80 62 00
        E 240 90 4c 60
        E 0 90 58 60
        E 0 90 64 60
        E 120 80 4c 00
        E 0 80 58 00
        E 0 80 64 00
        E 120 90 56 60
        E 0 90 62 60
        E 120 80 56 00
        E 0 80 62 00
        E 120 90 3c 60
        E 0 90 49 60
        E 0 90 55 60
        E 0 90 61 60
        E 0 90 74 60
        E 120 80 3c 00
        E 0 80 49 00
        E 0 80 55 00
        E 0 80 61 00
        E 120 90 56 60
        E 0 90 62 60
        E 120 80 56 00
        E 0 80 62 00
        E 120 90 4b 60
        E 0 90 57 60
        E 0 90 63 60
        E 120 80 4b 00
        E 0 80 57 00
        E 0 80 63 00
        E 120 90 56 60
        E 0 90 62 60
        E 120 80 2b 00
        E 0 80 56 00
        E 0 80 62 00
        E 120 90 2d 60
        E 0 90 40 60
        E 0 90 4c 60
        E 0 90 58 60
        E 0 90 64 60
        E 120 80 40 00
        E 0 80 4c 00
        E 0 80 58 00
        E 0 80 64 00
        E 120 90 57 60
        E 0 90 63 60
        E 120 80 57 00
        E 0 80 63 00
        E 120 90 4a 60
        E 0 90 56 60
        E 0 90 62 60
        E 120 80 4a 00
        E 240 80 2d 00
        E 0 80 56 00
        E 0 80 62 00
        E 120 80 74 00
        E 0 90 2b 60
        E 0 90 3e 60
        E 0 90 4b 60
        E 0 90 57 60
        E 0 90 63 60
        E 120 80 3e 00
        E 0 80 4b 00
        E 0 80 57 00
        E 0 80 63 00
        E 120 90 4b 60
        E 0 90 57 60
        E 0 90 63 60
        E 120 80 4b 00
        E 0 80 57 00
        E 0 80 63 00
        E 120 90 4b 60
        E 0 90 57 60
        E 0 90 63 60
        E 120 80 4b 00
        E 0 80 57 00
        E 0 80 63 00
        E 120 90 57 60
        E 0 90 63 60
        E 120 80 57 00
        E 0 80 63 00
        E 120 90 3d 60
        E 0 90 4a 60
        E 0 90 56 60
        E 0 90 62 60
        E 120 80 3d 00
        E 0 80 4a 00
        E 0 80 56 00
        E 0 80 62 00
        E 120 90 4a 60
        E 0 90 56 60
        E 0 90 62 60
        E 120 80 4a 00
        E 0 80 56 00
        E 0 80 62 00
        E 120 90 4a 60
        E 0 90 56 60
        E 0 90 62 60
        E 120 80 4a 00
        E 0 80 56 00
        E 0 80 62 00
        E 120 90 56 60
        E 0 90 62 60
        E 120 80 56 00
        E 0 80 62 00
        E 120 90 3c 60
        E 0 90 49 60
        E 0 90 55 60
        E 0 90 61 60
        E 120 80 3c 00
        E 0 80 49 00
        E 0 80 55 00
        E 0 80 61 00
        E 120 90 49 60
        E 0 90 55 60
        E 0 90 61 60
        E 120 80 49 00
        E 0 80 55 00
        E 0 80 61 00
        E 120 90 49 60
        E 0 90 55 60
        E 0 90 61 60
        E 120 80 49 00
        E 0 80 55 00
        E 0 80 61 00
        E 120 90 55 60
        E 0 90 61 60
        E 120 80 55 00
        E 0 80 61 00
        E 120 90 3d 60
        E 0 90 4a 60
        E 0 90 56 60
        E 0 90 62 60
        E 120 80 3d 00
        E 0 80 4a 00
        E 0 80 56 00
        E 0 80 62 00
        E 120 90 4a 60
        E 0 90 56 60
        E 0 90 62 60
        E 120 80 4a 00
        E 0 80 56 00
        E 0 80 62 00
        E 120 90 4a 60
        E 0 90 56 60
        E 0 90 62 60
        E 120 80 4a 00
        E 0 80 56 00
        E 0 80 62 00
        E 120 90 54 60
        E 0 90 60 60
        E 120 80 54 00
        E 0 80 60 00
        E 0 90 61 60
        E 120 80 61 00
        E 0 90 3e 60
        E 0 90 4b 60
        E 0 90 57 60
        E 0 90 63 60
        E 120 80 3e 00
        E 0 80 4b 00
        E 0 80 57 00
        E 0 80 63 00
        E 120 90 4b 60
        E 0 90 57 60
        E 0 90 63 60
        E 120 80 4b 00
        E 0 80 57 00
        E 0 80 63 00
        E 120 90 4b 60
        E 0 90 57 60
        E 0 90 63 60
        E 120 80 4b 00
        E 0 80 57 00
        E 0 80 63 00
        E 120 90 57 60
        E 0 90 63 60
        E 120 80 57 00
        E 0 80 63 00
        E 120 90 3d 60
        E 0 90 4a 60
        E 0 90 56 60
        E 0 90 62 60
        E 120 80 3d 00
        E 0 80 4a 00
        E 0 80 56 00
        E 0 80 62 00
        E 120 90 4a 60
        E 0 90 56 60
        E 0 90 62 60
        E 120 80 4a 00
        E 0 80 56 00
        E 0 80 62 00
        E 120 90 4a 60
        E 0 90 56 60
        E 0 90 62 60
        E 120 80 4a 00
        E 0 80 56 00
        E 0 80 62 00
        E 120 90 56 60
        E 0 90 62 60
        E 120 80 56 00
        E 0 80 62 00
        E 120 90 3c 60
        E 0 90 48 60
        E 0 90 54 60
        E 0 90 60 60
        E 120 80 3c 00
        E 0 80 48 00
        E 0 80 54 00
        E 0 80 60 00
        E 120 90 48 60
        E 0 90 54 60
        E 0 90 60 60
        E 120 80 48 00
        E 0 80 54 00
        E 0 80 60 00
        E 120 90 48 60
        E 0 90 54 60
        E 0 90 60 60
        E 120 80 48 00
        E 0 80 54 00
        E 0 80 60 00
        E 120 90 54 60
        E 0 90 60 60
        E 120 80 54 00
        E 0 80 60 00
        E 120 90 3c 60
        E 0 90 49 60
        E 0 90 55 60
        E 0 90 61 60
        E 120 80 3c 00
        E 0 80 49 00
        E 0 80 55 00
        E 0 80 61 00
        E 120 90 49 60
        E 0 90 55 60
        E 0 90 61 60
        E 120 80 49 00
        E 0 80 55 00
        E 0 80 61 00
        E 120 90 3c 60
        E 0 90 49 60
        E 0 90 55 60
        E 0 90 61 60
        E 120 80 3c 00
        E 0 80 49 00
        E 0 80 55 00
        E 0 80 61 00
        E 120 90 49 60
        E 0 90 55 60
        E 0 90 61 60
        E 120 80 49 00
        E 0 80 55 00
        E 0 80 61 00
        <X 120 0
          /wFbaW50ZW5zZV0=
        >
        E 240 90 4b 60
        E 0 90 57 60
        E 0 90 63 60
        E 120 80 4b 00
        E 0 80 57 00
        E 0 80 63 00
        E 120 90 3e 60
        E 0 90 4b 60
        E 0 90 57 60
        E 0 90 63 60
        E 120 80 3e 00
        E 0 80 4b 00
        E 0 80 57 00
        E 0 80 63 00
        E 240 90 57 60
        E 0 90 63 60
        E 120 80 57 00
        E 0 80 63 00
        E 120 90 61 60
        E 120 80 61 00
        E 0 90 49 60
        E 0 90 55 60
        E 0 90 61 60
        E 120 80 49 00
        E 0 80 55 00
        E 0 80 61 00
        E 0 90 61 60
        E 120 80 61 00
        E 0 90 3c 60
        E 0 90 49 60
        E 0 90 55 60
        E 0 90 61 60
        E 120 80 3c 00
        E 0 80 49 00
        E 0 80 55 00
        E 0 80 61 00
        E 0 90 61 60
        E 120 80 61 00
        E 0 90 49 60
        E 0 90 55 60
        E 0 90 61 60
        E 120 80 49 00
        E 0 80 55 00
        E 0 80 61 00
        E 0 90 61 60
        E 120 80 61 00
        E 240 90 4b 60
        E 0 90 57 60
        E 0 90 63 60
        E 120 80 4b 00
        E 0 80 57 00
        E 0 80 63 00
        E 120 90 3e 60
        E 0 90 4b 60
        E 0 90 57 60
        E 0 90 63 60
        E 120 80 3e 00
        E 0 80 4b 00
        E 0 80 57 00
        E 0 80 63 00
        E 240 90 57 60
        E 0 90 63 60
        E 120 80 57 00
        E 0 80 63 00
        E 240 90 49 60
        E 0 90 55 60
        E 0 90 61 60
        E 120 80 49 00
        E 0 80 55 00
        E 0 80 61 00
        E 0 90 61 60
        E 120 80 61 00
        E 240 90 55 60
        E 0 90 61 60
        E 120 80 55 00
        E 0 80 61 00
        E 0 90 61 60
        E 120 80 61 00
        E 0 90 3e 60
        E 0 90 4b 60
        E 0 90 57 60
        E 0 90 63 60
        E 120 80 3e 00
        E 0 80 4b 00
        E 240 80 57 00
        E 0 80 63 00
        E 120 90 3e 60
        E 0 90 4b 60
        E 0 90 57 60
        E 0 90 63 60
        E 120 80 3e 00
        E 0 80 4b 00
        E 240 80 57 00
        E 0 80 63 00
        E 120 90 3e 60
        E 0 90 4b 60
        E 0 90 57 60
        E 0 90 63 60
        E 120 80 3e 00
        E 0 80 4b 00
        E 240 80 57 00
        E 0 80 63 00
        E 120 90 4b 60
        E 0 90 57 60
        E 0 90 63 60
        E 120 80 4b 00
        E 240 80 57 00
        E 0 80 63 00
        E 120 90 3c 60
        E 0 90 49 60
        E 0 90 55 60
        E 0 90 61 60
        E 120 80 3c 00
        E 0 80 49 00
        E 240 80 55 00
        E 0 80 61 00
        E 120 90 49 60
        E 0 90 55 60
        E 0 90 61 60
        E 120 80 49 00
        E 240 80 55 00
        E 0 80 61 00
        E 120 90 3d 60
        E 0 90 4a 60
        E 0 90 56 60
        E 0 90 62 60
        E 120 80 3d 00
        E 0 80 4a 00
        E 0 80 56 00
        E 0 80 62 00
        E 120 90 4a 60
        E 0 90 56 60
        E 0 90 62 60
        E 120 80 4a 00
        E 0 80 56 00
        E 0 80 62 00
        E 120 90 4a 60
        E 0 90 56 60
        E 0 90 62 60
        E 120 80 4a 00
        E 240 80 56 00
        E 0 80 62 00
        E 120 90 3e 60
        E 0 90 4b 60
        E 0 90 57 60
        E 0 90 63 60
        E 120 80 3e 00
        E 0 80 4b 00
        E 240 80 57 00
        E 0 80 63 00
        E 120 90 3e 60
        E 0 90 4b 60
        E 0 90 57 60
        E 0 90 63 60
        E 120 80 3e 00
        E 0 80 4b 00
        E 240 80 57 00
        E 0 80 63 00
        E 120 90 3e 60
        E 0 90 4b 60
        E 0 90 57 60
        E 0 90 63 60
        E 120 80 3e 00
        E 0 80 4b 00
        E 240 80 57 00
        E 0 80 63 00
        E 120 90 4b 60
        E 0 90 57 60
        E 0 90 63 60
        E 120 80 4b 00
        E 240 80 57 00
        E 0 80 63 00
        E 120 90 3c 60
        E 0 90 49 60
        E 0 90 55 60
        E 0 90 61 60
        E 120 80 3c 00
        E 0 80 49 00
        E 240 80 55 00
        E 0 80 61 00
        E 120 90 49 60
        E 0 90 55 60
        E 0 90 61 60
        E 120 80 49 00
        E 240 80 55 00
        E 0 80 61 00
        E 120 90 3d 60
        E 0 90 4a 60
        E 0 90 56 60
        E 0 90 62 60
        E 120 80 3d 00
        E 0 80 4a 00
        E 0 80 56 00
        E 0 80 62 00
        E 120 90 4a 60
        E 0 90 56 60
        E 0 90 62 60
        E 120 80 4a 00
        E 0 80 56 00
        E 0 80 62 00
        E 120 90 4a 60
        E 0 90 56 60
        E 0 90 62 60
        E 120 80 4a 00
        E 240 80 56 00
        E 0 80 62 00
        E 120 90 3e 60
        E 0 90 4b 60
        E 0 90 57 60
        E 0 90 63 60
        E 120 80 3e 00
        E 0 80 4b 00
        E 240 80 57 00
        E 0 80 63 00
        E 120 90 3e 60
        E 0 90 4b 60
        E 0 90 57 60
        E 0 90 63 60
        E 120 80 3e 00
        E 0 80 4b 00
        E 240 80 57 00
        E 0 80 63 00
        E 120 90 3e 60
        E 0 90 4b 60
        E 0 90 57 60
        E 0 90 63 60
        E 120 80 3e 00
        E 0 80 4b 00
        E 240 80 57 00
        E 0 80 63 00
        E 120 90 4b 60
        E 0 90 57 60
        E 0 90 63 60
        E 120 80 4b 00
        E 240 80 57 00
        E 0 80 63 00
        E 120 90 3c 60
        E 0 90 49 60
        E 0 90 55 60
        E 0 90 61 60
        E 120 80 3c 00
        E 0 80 49 00
        E 240 80 55 00
        E 0 80 61 00
        E 120 90 49 60
        E 0 90 55 60
        E 0 90 61 60
        E 120 80 49 00
        E 240 80 55 00
        E 0 80 61 00
        E 120 90 3d 60
        E 0 90 4a 60
        E 0 90 56 60
        E 0 90 62 60
        E 120 80 3d 00
        E 0 80 4a 00
        E 0 80 56 00
        E 0 80 62 00
        E 120 90 4a 60
        E 0 90 56 60
        E 0 90 62 60
        E 120 80 4a 00
        E 0 80 56 00
        E 0 80 62 00
        E 120 90 4a 60
        E 0 90 56 60
        E 0 90 62 60
        E 120 80 4a 00
        E 240 80 56 00
        E 0 80 62 00
        E 120 90 3e 60
        E 0 90 4b 60
        E 0 90 57 60
        E 0 90 63 60
        E 120 80 3e 00
        E 0 80 4b 00
        E 240 80 57 00
        E 0 80 63 00
        E 120 90 3e 60
        E 0 90 4b 60
        E 0 90 57 60
        E 0 90 63 60
        E 120 80 3e 00
        E 0 80 4b 00
        E 240 80 57 00
        E 0 80 63 00
        E 120 90 3e 60
        E 0 90 4b 60
        E 0 90 57 60
        E 0 90 63 60
        E 120 80 3e 00
        E 0 80 4b 00
        E 240 80 57 00
        E 0 80 63 00
        E 120 90 4b 60
        E 0 90 57 60
        E 0 90 63 60
        E 120 80 4b 00
        E 240 80 57 00
        E 0 80 63 00
        E 120 90 3c 60
        E 0 90 49 60
        E 0 90 55 60
        E 0 90 61 60
        E 0 90 74 60
        E 120 80 3c 00
        E 0 80 49 00
        E 240 80 55 00
        E 0 80 61 00
        E 120 90 49 60
        E 0 90 55 60
        E 0 90 61 60
        E 120 80 49 00
        E 240 80 55 00
        E 0 80 61 00
        E 120 90 3d 60
        E 0 90 4a 60
        E 0 90 56 60
        E 0 90 62 60
        E 120 80 3d 00
        E 0 80 4a 00
        E 240 80 56 00
        E 0 80 62 00
        E 120 90 3d 60
        E 0 90 4a 60
        E 0 90 56 60
        E 0 90 62 60
        E 120 80 3d 00
        E 0 80 4a 00
        E 240 80 56 00
        E 0 80 62 00
        <X 120 0
          /wFbcGxheV0=
        >
        E 0 90 3d 60
        E 0 90 4a 60
        E 0 90 56 60
        E 0 90 62 60
        E 120 80 3d 00
        E 0 80 4a 00
        E 0 80 56 00
        E 0 80 62 00
        E 120 90 57 60
        E 0 90 63 60
        E 120 80 74 00
        E 0 80 57 00
        E 0 80 63 00
        E 1560 90 3c 60
        E 0 90 48 60
        E 0 90 54 60
        E 0 90 60 60
        E 120 80 3c 00
        E 0 80 48 00
        E 0 80 54 00
        E 0 80 60 00
        E 120 90 48 60
        E 0 90 54 60
        E 0 90 60 60
        E 120 80 48 00
        E 0 80 54 00
        E 0 80 60 00
        E 1560 90 3d 60
        E 0 90 4a 60
        E 0 90 56 60
        E 0 90 62 60
        E 120 80 3d 00
        E 0 80 4a 00
        E 0 80 56 00
        E 0 80 62 00
        E 120 90 57 60
        E 0 90 63 60
        E 120 80 57 00
        E 0 80 63 00
        E 1560 90 3c 60
        E 0 90 48 60
        E 0 90 54 60
        E 0 90 60 60
        E 120 80 3c 00
        E 0 80 48 00
        E 0 80 54 00
        E 0 80 60 00
        E 120 90 48 60
        E 0 90 54 60
        E 0 90 60 60
        E 120 80 48 00
        E 0 80 54 00
        E 0 80 60 00
        E 1560 90 3c 60
        E 0 90 48 60
        E 0 90 54 60
        E 0 90 60 60
        E 120 80 3c 00
        E 0 80 48 00
        E 0 80 54 00
        E 0 80 60 00
        E 120 90 48 60
        E 0 90 54 60
        E 0 90 60 60
        E 720 80 48 00
        E 0 80 54 00
        E 0 80 60 00
        E 120 90 56 60
        E 0 90 62 60
        E 120 80 56 00
        E 0 80 62 00
        E 240 90 4c 60
        E 0 90 58 60
        E 0 90 64 60
        E 120 80 4c 00
        E 0 80 58 00
        E 0 80 64 00
        E 120 90 56 60
        E 0 90 62 60
        E 120 80 2b 00
        E 0 80 56 00
        E 0 80 62 00
        E 120 90 28 60
        E 0 90 3e 60
        E 0 90 4b 60
        E 0 90 57 60
        E 0 90 63 60
        E 120 80 3e 00
        E 0 80 4b 00
        E 0 80 57 00
        E 0 80 63 00
        E 120 90 55 60
        E 0 90 61 60
        E 120 80 55 00
        E 0 80 61 00
        E 1440 80 28 00
        E 120 90 2b 60
        E 0 90 3c 60
        E 0 90 49 60
        E 0 90 55 60
        E 0 90 61 60
        E 0 90 74 60
        E 120 80 3c 00
        E 0 80 49 00
        E 0 80 55 00
        E 0 80 61 00
        E 120 90 49 60
        E 0 90 55 60
        E 0 90 61 60
        E 720 80 49 00
        E 0 80 55 00
        E 0 80 61 00
        E 120 90 56 60
        E 0 90 62 60
        E 120 80 56 00
        E 0 80 62 00
        E 240 90 4c 60
        E 0 90 58 60
        E 0 90 64 60
        E 120 80 4c 00
        E 0 80 58 00
        E 0 80 64 00
        E 120 90 56 60
        E 0 90 62 60
        E 120 80 56 00
        E 0 80 62 00
        E 120 80 74 00
        E 0 90 3c 60
        E 0 90 49 60
        E 0 90 55 60
        E 0 90 61 60
        E 120 80 3c 00
        E 0 80 49 00
        E 0 80 55 00
        E 0 80 61 00
        E 120 90 56 60
        E 0 90 62 60
        E 120 80 56 00
        E 0 80 62 00
        E 120 90 4b 60
        E 0 90 57 60
        E 0 90 63 60
        E 120 80 4b 00
        E 0 80 57 00
        E 0 80 63 00
        E 120 90 56 60
        E 0 90 62 60
        E 120 80 2b 00
        E 0 80 56 00
        E 0 80 62 00
        E 120 90 2d 60
        E 0 90 40 60
        E 0 90 4c 60
        E 0 90 58 60
        E 0 90 64 60
        E 120 80 40 00
        E 0 80 4c 00
        E 0 80 58 00
        E 0 80 64 00
        E 120 90 57 60
        E 0 90 63 60
        E 120 80 57 00
        E 0 80 63 00
        E 120 90 4a 60
        E 0 90 56 60
        E 0 90 62 60
        E 120 80 4a 00
        E 240 80 2d 00
        E 0 80 56 00
        E 0 80 62 00
        E 120 90 2b 60
        E 0 90 3e 60
        E 0 90 4b 60
        E 0 90 57 60
        E 0 90 63 60
        E 120 80 3e 00
        E 0 80 4b 00
        E 0 80 57 00
        E 0 80 63 00
        E 120 90 4b 60
        E 0 90 57 60
        E 0 90 63 60
        E 120 80 4b 00
        E 0 80 57 00
        E 0 80 63 00
        E 120 90 4b 60
        E 0 90 57 60
        E 0 90 63 60
        E 120 80 4b 00
        E 0 80 57 00
        E 0 80 63 00
        E 120 90 57 60
        E 0 90 63 60
        E 120 80 57 00
        E 0 80 63 00
        E 120 90 3d 60
        E 0 90 4a 60
        E 0 90 56 60
        E 0 90 62 60
        E 120 80 3d 00
        E 0 80 4a 00
        E 0 80 56 00
        E 0 80 62 00
        E 120 90 4a 60
        E 0 90 56 60
        E 0 90 62 60
        E 120 80 4a 00
        E 0 80 56 00
        E 0 80 62 00
        E 120 90 4a 60
        E 0 90 56 60
        E 0 90 62 60
        E 120 80 4a 00
        E 0 80 56 00
        E 0 80 62 00
        E 120 90 56 60
        E 0 90 62 60
        E 120 80 56 00
        E 0 80 62 00
        E 120 90 3c 60
        E 0 90 49 60
        E 0 90 55 60
        E 0 90 61 60
        E 120 80 3c 00
        E 0 80 49 00
        E 0 80 55 00
        E 0 80 61 00
        E 120 90 49 60
        E 0 90 55 60
        E 0 90 61 60
        E 120 80 49 00
        E 0 80 55 00
        E 0 80 61 00
        E 120 90 49 60
        E 0 90 55 60
        E 0 90 61 60
        E 120 80 49 00
        E 0 80 55 00
        E 0 80 61 00
        E 120 90 55 60
        E 0 90 61 60
        E 120 80 55 00
        E 0 80 61 00
        E 120 90 3d 60
        E 0 90 4a 60
        E 0 90 56 60
        E 0 90 62 60
        E 120 80 3d 00
        E 0 80 4a 00
        E 0 80 56 00
        E 0 80 62 00
        E 120 90 4a 60
        E 0 90 56 60
        E 0 90 62 60
        E 120 80 4a 00
        E 0 80 56 00
        E 0 80 62 00
        E 120 90 4a 60
        E 0 90 56 60
        E 0 90 62 60
        E 120 80 4a 00
        E 0 80 56 00
        E 0 80 62 00
        E 120 90 56 60
        E 0 90 62 60
        E 120 80 56 00
        E 0 80 62 00
        E 120 90 3e 60
        E 0 90 4b 60
        E 0 90 57 60
        E 0 90 63 60
        E 120 80 3e 00
        E 0 80 4b 00
        E 0 80 57 00
        E 0 80 63 00
        E 120 90 4b 60
        E 0 90 57 60
        E 0 90 63 60
        E 120 80 4b 00
        E 0 80 57 00
        E 0 80 63 00
        E 120 90 4b 60
        E 0 90 57 60
        E 0 90 63 60
        E 120 80 4b 00
        E 0 80 57 00
        E 0 80 63 00
        E 120 90 57 60
        E 0 90 63 60
        E 120 80 57 00
        E 0 80 63 00
        E 120 90 3d 60
        E 0 90 4a 60
        E 0 90 56 60
        E 0 90 62 60
        E 120 80 3d 00
        E 0 80 4a 00
        E 0 80 56 00
        E 0 80 62 00
        E 120 90 4a 60
        E 0 90 56 60
        E 0 90 62 60
        E 120 80 4a 00
        E 0 80 56 00
        E 0 80 62 00
        E 120 90 4a 60
        E 0 90 56 60
        E 0 90 62 60
        E 120 80 4a 00
        E 0 80 56 00
        E 0 80 62 00
        E 120 90 56 60
        E 0 90 62 60
        E 120 80 56 00
        E 0 80 62 00
        E 120 90 3c 60
        E 0 90 48 60
        E 0 90 54 60
        E 0 90 60 60
        E 120 80 3c 00
        E 0 80 48 00
        E 0 80 54 00
        E 0 80 60 00
        E 120 90 48 60
        E 0 90 54 60
        E 0 90 60 60
        E 120 80 48 00
        E 0 80 54 00
        E 0 80 60 00
        E 120 90 48 60
        E 0 90 54 60
        E 0 90 60 60
        E 120 80 48 00
        E 0 80 54 00
        E 0 80 60 00
        E 120 90 54 60
        E 0 90 60 60
        E 120 80 54 00
        E 0 80 60 00
        E 120 90 3c 60
        E 0 90 49 60
        E 0 90 55 60
        E 0 90 61 60
        E 120 80 3c 00
        E 0 80 49 00
        E 0 80 55 00
        E 0 80 61 00
        E 120 90 49 60
        E 0 90 55 60
        E 0 90 61 60
        E 120 80 49 00
        E 0 80 55 00
        E 0 80 61 00
        E 120 90 3c 60
        E 0 90 49 60
        E 0 90 55 60
        E 0 90 61 60
        E 120 80 3c 00
        E 0 80 49 00
        E 0 80 55 00
        E 0 80 61 00
        E 120 90 49 60
        E 0 90 55 60
        E 0 90 61 60
        E 120 80 49 00
        E 0 80 55 00
        E 0 80 61 00
        <X 120 0
          /wFbaW50ZW5zZV0=
        >
        E 240 90 4b 60
        E 0 90 57 60
        E 0 90 63 60
        E 120 80 4b 00
        E 0 80 57 00
        E 0 80 63 00
        E 120 90 3e 60
        E 0 90 4b 60
        E 0 90 57 60
        E 0 90 63 60
        E 120 80 3e 00
        E 0 80 4b 00
        E 0 80 57 00
        E 0 80 63 00
        E 240 90 57 60
        E 0 90 63 60
        E 120 80 57 00
        E 0 80 63 00
        E 120 90 61 60
        E 120 80 61 00
        E 0 90 49 60
        E 0 90 55 60
        E 0 90 61 60
        E 120 80 49 00
        E 0 80 55 00
        E 0 80 61 00
        E 0 90 61 60
        E 120 80 61 00
        E 0 90 3c 60
        E 0 90 49 60
        E 0 90 55 60
        E 0 90 61 60
        E 120 80 3c 00
        E 0 80 49 00
        E 0 80 55 00
        E 0 80 61 00
        E 0 90 61 60
        E 120 80 61 00
        E 0 90 49 60
        E 0 90 55 60
        E 0 90 61 60
        E 120 80 49 00
        E 0 80 55 00
        E 0 80 61 00
        E 0 90 61 60
        E 120 80 61 00
        E 240 90 4b 60
        E 0 90 57 60
        E 0 90 63 60
        E 120 80 4b 00
        E 0 80 57 00
        E 0 80 63 00
        E 120 90 3e 60
        E 0 90 4b 60
        E 0 90 57 60
        E 0 90 63 60
        E 120 80 3e 00
        E 0 80 4b 00
        E 0 80 57 00
        E 0 80 63 00
        E 240 90 57 60
        E 0 90 63 60
        E 120 80 57 00
        E 0 80 63 00
        E 240 90 49 60
        E 0 90 55 60
        E 0 90 61 60
        E 120 80 49 00
        E 0 80 55 00
        E 0 80 61 00
        E 0 90 61 60
        E 120 80 61 00
        E 240 90 49 60
        E 0 90 55 60
        E 0 90 61 60
        E 120 80 49 00
        E 0 80 55 00
        E 0 80 61 00
        E 0 90 61 60
        E 120 80 61 00
        E 240 90 4b 60
        E 0 90 57 60
        E 0 90 63 60
        E 120 80 4b 00
        E 0 80 57 00
        E 0 80 63 00
        E 120 90 3e 60
        E 0 90 4b 60
        E 0 90 57 60
        E 0 90 63 60
        E 120 80 3e 00
        E 0 80 4b 00
        E 0 80 57 00
        E 0 80 63 00
        E 240 90 57 60
        E 0 90 63 60
        E 120 80 57 00
        E 0 80 63 00
        E 120 90 61 60
        E 120 80 61 00
        E 0 90 49 60
        E 0 90 55 60
        E 0 90 61 60
        E 120 80 49 00
        E 0 80 55 00
        E 0 80 61 00
        E 0 90 61 60
        E 120 80 61 00
        E 0 90 3c 60
        E 0 90 49 60
        E 0 90 55 60
        E 0 90 61 60
        E 120 80 3c 00
        E 0 80 49 00
        E 0 80 55 00
        E 0 80 61 00
        E 0 90 61 60
        E 120 80 61 00
        E 0 90 49 60
        E 0 90 55 60
        E 0 90 61 60
        E 120 80 49 00
        E 0 80 55 00
        E 0 80 61 00
        E 0 90 61 60
        E 120 80 61 00
        E 0 90 74 60
        E 240 90 4b 60
        E 0 90 57 60
        E 0 90 63 60
        E 120 80 4b 00
        E 0 80 57 00
        E 0 80 63 00
        E 120 90 3e 60
        E 0 90 4b 60
        E 0 90 57 60
        E 0 90 63 60
        E 120 80 3e 00
        E 0 80 4b 00
        E 0 80 57 00
        E 0 80 63 00
        E 240 90 57 60
        E 0 90 63 60
        E 120 80 57 00
        E 0 80 63 00
        E 240 90 49 60
        E 0 90 55 60
        E 0 90 61 60
        E 120 80 49 00
        E 0 80 55 00
        E 0 80 61 00
        E 0 90 61 60
        E 120 80 61 00
        E 240 90 55 60
        E 0 90 61 60
        E 120 80 55 00
        E 0 80 61 00
        E 0 90 61 60
        E 120 80 61 00
        E 0 90 3e 60
        E 0 90 4b 60
        E 0 90 57 60
        E 0 90 63 60
        E 120 80 74 00
        E 0 80 3e 00
        E 0 80 4b 00
        E 240 80 57 00
        E 0 80 63 00
        E 120 90 3e 60
        E 0 90 4b 60
        E 0 90 57 60
        E 0 90 63 60
        E 120 80 3e 00
        E 0 80 4b 00
        E 240 80 57 00
        E 0 80 63 00
        E 120 90 3e 60
        E 0 90 4b 60
        E 0 90 57 60
        E 0 90 63 60
        E 120 80 3e 00
        E 0 80 4b 00
        E 240 80 57 00
        E 0 80 63 00
        E 120 90 4b 60
        E 0 90 57 60
        E 0 90 63 60
        E 120 80 4b 00
        E 240 80 57 00
        E 0 80 63 00
        E 120 90 3c 60
        E 0 90 49 60
        E 0 90 55 60
        E 0 90 61 60
        E 120 80 3c 00
        E 0 80 49 00
        E 240 80 55 00
        E 0 80 61 00
        E 120 90 49 60
        E 0 90 55 60
        E 0 90 61 60
        E 120 80 49 00
        E 240 80 55 00
        E 0 80 61 00
        E 120 90 3d 60
        E 0 90 4a 60
        E 0 90 56 60
        E 0 90 62 60
        E 120 80 3d 00
        E 0 80 4a 00
        E 240 80 56 00
        E 0 80 62 00
        E 120 90 4a 60
        E 0 90 56 60
        E 0 90 62 60
        E 120 80 4a 00
        E 240 80 56 00
        E 0 80 62 00
        E 120 90 3e 60
        E 0 90 4b 60
        E 0 90 57 60
        E 0 90 63 60
        E 120 80 3e 00
        E 0 80 4b 00
        E 240 80 57 00
        E 0 80 63 00
        E 120 90 3e 60
        E 0 90 4b 60
        E 0 90 57 60
        E 0 90 63 60
        E 120 80 3e 00
        E 0 80 4b 00
        E 240 80 57 00
        E 0 80 63 00
        E 120 90 3e 60
        E 0 90 4b 60
        E 0 90 57 60
        E 0 90 63 60
        E 120 80 3e 00
        E 0 80 4b 00
        E 240 80 57 00
        E 0 80 63 00
        E 120 90 4b 60
        E 0 90 57 60
        E 0 90 63 60
        E 120 80 4b 00
        E 240 80 57 00
        E 0 80 63 00
        E 120 90 3c 60
        E 0 90 49 60
        E 0 90 55 60
        E 0 90 61 60
        E 120 80 3c 00
        E 0 80 49 00
        E 240 80 55 00
        E 0 80 61 00
        E 120 90 49 60
        E 0 90 55 60
        E 0 90 61 60
        E 120 80 49 00
        E 240 80 55 00
        E 0 80 61 00
        E 120 90 3d 60
        E 0 90 4a 60
        E 0 90 56 60
        E 0 90 62 60
        E 120 80 3d 00
        E 0 80 4a 00
        E 240 80 56 00
        E 0 80 62 00
        E 120 90 4a 60
        E 0 90 56 60
        E 0 90 62 60
        E 120 80 4a 00
        E 240 80 56 00
        E 0 80 62 00
        E 120 90 3e 60
        E 0 90 4b 60
        E 0 90 57 60
        E 0 90 63 60
        E 120 80 3e 00
        E 0 80 4b 00
        E 240 80 57 00
        E 0 80 63 00
        E 120 90 3e 60
        E 0 90 4b 60
        E 0 90 57 60
        E 0 90 63 60
        E 120 80 3e 00
        E 0 80 4b 00
        E 240 80 57 00
        E 0 80 63 00
        E 120 90 3e 60
        E 0 90 4b 60
        E 0 90 57 60
        E 0 90 63 60
        E 120 80 3e 00
        E 0 80 4b 00
        E 240 80 57 00
        E 0 80 63 00
        E 120 90 4b 60
        E 0 90 57 60
        E 0 90 63 60
        E 120 80 4b 00
        E 240 80 57 00
        E 0 80 63 00
        E 120 90 3c 60
        E 0 90 49 60
        E 0 90 55 60
        E 0 90 61 60
        E 120 80 3c 00
        E 0 80 49 00
        E 240 80 55 00
        E 0 80 61 00
        E 120 90 49 60
        E 0 90 55 60
        E 0 90 61 60
        E 120 80 49 00
        E 240 80 55 00
        E 0 80 61 00
        E 120 90 3d 60
        E 0 90 4a 60
        E 0 90 56 60
        E 0 90 62 60
        E 120 80 3d 00
        E 0 80 4a 00
        E 240 80 56 00
        E 0 80 62 00
        E 120 90 4a 60
        E 0 90 56 60
        E 0 90 62 60
        E 120 80 4a 00
        E 240 80 56 00
        E 0 80 62 00
        E 120 90 3e 60
        E 0 90 4b 60
        E 0 90 57 60
        E 0 90 63 60
        E 120 80 3e 00
        E 0 80 4b 00
        E 240 80 57 00
        E 0 80 63 00
        E 120 90 3e 60
        E 0 90 4b 60
        E 0 90 57 60
        E 0 90 63 60
        E 120 80 3e 00
        E 0 80 4b 00
        E 240 80 57 00
        E 0 80 63 00
        E 120 90 3e 60
        E 0 90 4b 60
        E 0 90 57 60
        E 0 90 63 60
        E 120 80 3e 00
        E 0 80 4b 00
        E 240 80 57 00
        E 0 80 63 00
        E 120 90 4b 60
        E 0 90 57 60
        E 0 90 63 60
        E 120 80 4b 00
        E 240 80 57 00
        E 0 80 63 00
        E 120 90 3c 60
        E 0 90 49 60
        E 0 90 55 60
        E 0 90 61 60
        E 120 80 3c 00
        E 0 80 49 00
        E 240 80 55 00
        E 0 80 61 00
        E 120 90 49 60
        E 0 90 55 60
        E 0 90 61 60
        E 120 80 49 00
        E 240 80 2b 00
        E 0 80 55 00
        E 0 80 61 00
        E 120 90 28 60
        E 0 90 40 60
        E 0 90 4c 60
        E 0 90 58 60
        E 0 90 64 60
        E 120 80 40 00
        E 0 80 4c 00
        E 240 80 58 00
        E 0 80 64 00
        E 120 90 4b 60
        E 0 90 57 60
        E 0 90 63 60
        E 120 80 4b 00
        E 240 80 57 00
        E 0 80 63 00
        E 120 90 3d 60
        E 0 90 4a 60
        E 0 90 56 60
        E 0 90 62 60
        E 960 80 3d 00
        E 0 80 4a 00
        E 360 80 56 00
        E 0 80 62 00
        E 120 90 4a 60
        E 0 90 56 60
        E 0 90 62 60
        E 120 80 4a 00
        E 0 80 56 00
        E 0 80 62 00
        E 120 90 55 60
        E 0 90 61 60
        E 0 90 65 60
        E 120 80 55 00
        E 0 80 61 00
        E 0 80 65 00
        E 120 90 3c 60
        E 0 90 48 60
        E 0 90 54 60
        E 0 90 60 60
        E 0 90 74 60
        E 960 80 3c 00
        E 0 80 48 00
        E 360 80 54 00
        E 0 80 60 00
        E 120 90 48 60
        E 0 90 54 60
        E 0 90 60 60
        E 120 80 48 00
        E 0 80 54 00
        E 0 80 60 00
        E 120 90 56 60
        E 0 90 62 60
        E 0 90 65 60
        E 120 80 28 00
        E 0 80 56 00
        E 0 80 62 00
        E 0 80 65 00
        E 120 90 31 60
        E 0 90 3e 60
        E 0 90 4b 60
        E 0 90 57 60
        E 0 90 63 60
        E 120 80 74 00
        E 0 80 3e 00
        E 0 80 4b 00
        E 240 80 57 00
        E 0 80 63 00
        E 120 90 3e 60
        E 0 90 4b 60
        E 0 90 57 60
        E 0 90 63 60
        E 120 80 3e 00
        E 0 80 4b 00
        E 240 80 57 00
        E 0 80 63 00
        E 120 90 3e 60
        E 0 90 4b 60
        E 0 90 57 60
        E 0 90 63 60
        E 120 80 3e 00
        E 0 80 4b 00
        E 240 80 57 00
        E 0 80 63 00
        E 120 90 4b 60
        E 0 90 57 60
        E 0 90 63 60
        E 120 80 4b 00
        E 240 80 57 00
        E 0 80 63 00
        E 120 90 3d 60
        E 0 90 4a 60
        E 0 90 56 60
        E 0 90 62 60
        E 120 80 3d 00
        E 0 80 4a 00
        E 240 80 56 00
        E 0 80 62 00
        E 120 90 4a 60
        E 0 90 56 60
        E 0 90 62 60
        E 120 80 4a 00
        E 240 80 31 00
        E 0 80 56 00
        E 0 80 62 00
        E 120 90 2f 60
        E 0 90 3c 60
        E 0 90 49 60
        E 0 90 55 60
        E 0 90 61 60
        E 480 80 3c 00
        E 0 80 49 00
        E 360 80 55 00
        E 0 80 61 00
        E 120 90 3d 60
        E 0 90 4a 60
        E 0 90 56 60
        E 0 90 62 60
        E 960 80 3d 00
        E 0 80 4a 00
        E 360 80 56 00
        E 0 80 62 00
        E 120 90 4a 60
        E 0 90 56 60
        E 0 90 62 60
        E 120 80 4a 00
        E 0 80 56 00
        E 0 80 62 00
        E 120 90 55 60
        E 0 90 61 60
        E 0 90 65 60
        E 120 80 55 00
        E 0 80 61 00
        E 0 80 65 00
        E 120 90 3c 60
        E 0 90 48 60
        E 0 90 54 60
        E 0 90 60 60
        E 960 80 3c 00
        E 0 80 48 00
        E 360 80 54 00
        E 0 80 60 00
        E 120 90 48 60
        E 0 90 54 60
        E 0 90 60 60
        E 120 80 48 00
        E 0 80 54 00
        E 0 80 60 00
        E 120 90 56 60
        E 0 90 62 60
        E 0 90 65 60
        E 120 80 2f 00
        E 0 80 56 00
        E 0 80 62 00
        E 0 80 65 00
        E 120 90 31 60
        E 0 90 3e 60
        E 0 90 4b 60
        E 0 90 57 60
        E 0 90 63 60
        E 120 80 3e 00
        E 0 80 4b 00
        E 240 80 57 00
        E 0 80 63 00
        E 120 90 3e 60
        E 0 90 4b 60
        E 0 90 57 60
        E 0 90 63 60
        E 120 80 3e 00
        E 0 80 4b 00
        E 240 80 57 00
        E 0 80 63 00
        E 120 90 3e 60
        E 0 90 4b 60
        E 0 90 57 60
        E 0 90 63 60
        E 120 80 3e 00
        E 0 80 4b 00
        E 240 80 57 00
        E 0 80 63 00
        E 120 90 4b 60
        E 0 90 57 60
        E 0 90 63 60
        E 120 80 4b 00
        E 240 80 57 00
        E 0 80 63 00
        E 120 90 3d 60
        E 0 90 4a 60
        E 0 90 56 60
        E 0 90 62 60
        E 120 80 3d 00
        E 0 80 4a 00
        E 240 80 56 00
        E 0 80 62 00
        E 120 90 4a 60
        E 0 90 56 60
        E 0 90 62 60
        E 120 80 4a 00
        E 240 80 31 00
        E 0 80 56 00
        E 0 80 62 00
        E 120 90 2f 60
        E 0 90 3c 60
        E 0 90 49 60
        E 0 90 55 60
        E 0 90 61 60
        E 120 80 3c 00
        E 0 80 49 00
        E 240 80 55 00
        E 0 80 61 00
        E 120 90 49 60
        E 0 90 55 60
        E 0 90 61 60
        E 120 80 49 00
        E 0 80 55 00
        E 0 80 61 00
        E 120 90 56 60
        E 0 90 62 60
        E 0 90 65 60
        E 120 80 56 00
        E 0 80 62 00
        E 0 80 65 00
        E 120 90 3d 60
        E 0 90 4a 60
        E 0 90 56 60
        E 0 90 62 60
        E 960 80 3d 00
        E 0 80 4a 00
        E 360 80 56 00
        E 0 80 62 00
        E 120 90 4a 60
        E 0 90 56 60
        E 0 90 62 60
        E 120 80 4a 00
        E 0 80 56 00
        E 0 80 62 00
        E 120 90 55 60
        E 0 90 61 60
        E 0 90 65 60
        E 120 80 55 00
        E 0 80 61 00
        E 0 80 65 00
        E 120 90 3c 60
        E 0 90 48 60
        E 0 90 54 60
        E 0 90 60 60
        E 960 80 3c 00
        E 0 80 48 00
        E 360 80 54 00
        E 0 80 60 00
        E 120 90 48 60
        E 0 90 54 60
        E 0 90 60 60
        E 120 80 48 00
        E 0 80 54 00
        E 0 80 60 00
        E 120 90 56 60
        E 0 90 62 60
        E 0 90 65 60
        E 120 80 2f 00
        E 0 80 56 00
        E 0 80 62 00
        E 0 80 65 00
        E 120 90 31 60
        E 0 90 3e 60
        E 0 90 4b 60
        E 0 90 57 60
        E 0 90 63 60
        E 120 80 3e 00
        E 0 80 4b 00
        E 240 80 57 00
        E 0 80 63 00
        E 120 90 3e 60
        E 0 90 4b 60
        E 0 90 57 60
        E 0 90 63 60
        E 120 80 3e 00
        E 0 80 4b 00
        E 240 80 57 00
        E 0 80 63 00
        E 120 90 3e 60
        E 0 90 4b 60
        E 0 90 57 60
        E 0 90 63 60
        E 120 80 3e 00
        E 0 80 4b 00
        E 240 80 57 00
        E 0 80 63 00
        E 120 90 4b 60
        E 0 90 57 60
        E 0 90 63 60
        E 120 80 4b 00
        E 240 80 57 00
        E 0 80 63 00
        E 120 90 3d 60
        E 0 90 4a 60
        E 0 90 56 60
        E 0 90 62 60
        E 120 80 3d 00
        E 0 80 4a 00
        E 240 80 56 00
        E 0 80 62 00
        E 120 90 4a 60
        E 0 90 56 60
        E 0 90 62 60
        E 120 80 4a 00
        E 240 80 31 00
        E 0 80 56 00
        E 0 80 62 00
        E 120 90 2f 60
        E 0 90 3c 60
        E 0 90 49 60
        E 0 90 55 60
        E 0 90 61 60
        E 120 80 3c 00
        E 0 80 49 00
        E 240 80 55 00
        E 0 80 61 00
        E 120 90 49 60
        E 0 90 55 60
        E 0 90 61 60
        E 120 80 49 00
        E 0 80 55 00
        E 0 80 61 00
        E 120 90 56 60
        E 0 90 62 60
        E 0 90 65 60
        E 120 80 56 00
        E 0 80 62 00
        E 0 80 65 00
        E 120 90 3d 60
        E 0 90 4a 60
        E 0 90 56 60
        E 0 90 62 60
        E 960 80 3d 00
        E 0 80 4a 00
        E 360 80 56 00
        E 0 80 62 00
        E 120 90 4a 60
        E 0 90 56 60
        E 0 90 62 60
        E 120 80 4a 00
        E 0 80 56 00
        E 0 80 62 00
        E 120 90 55 60
        E 0 90 61 60
        E 0 90 65 60
        E 120 80 55 00
        E 0 80 61 00
        E 0 80 65 00
        E 120 90 3c 60
        E 0 90 48 60
        E 0 90 54 60
        E 0 90 60 60
        E 960 80 3c 00
        E 0 80 48 00
        E 360 80 54 00
        E 0 80 60 00
        E 120 90 48 60
        E 0 90 54 60
        E 0 90 60 60
        E 120 80 48 00
        E 0 80 54 00
        E 0 80 60 00
        E 120 90 56 60
        E 0 90 62 60
        E 120 80 2f 00
        E 0 80 56 00
        E 0 80 62 00
        E 120 90 31 60
        E 0 90 3e 60
        E 0 90 4b 60
        E 0 90 57 60
        E 0 90 63 60
        E 120 80 3e 00
        E 0 80 4b 00
        E 240 80 57 00
        E 0 80 63 00
        E 120 90 3e 60
        E 0 90 4b 60
        E 0 90 57 60
        E 0 90 63 60
        E 120 80 3e 00
        E 0 80 4b 00
        E 240 80 57 00
        E 0 80 63 00
        E 120 90 3e 60
        E 0 90 4b 60
        E 0 90 57 60
        E 0 90 63 60
        E 120 80 3e 00
        E 0 80 4b 00
        E 240 80 57 00
        E 0 80 63 00
        E 120 90 4b 60
        E 0 90 57 60
        E 0 90 63 60
        E 120 80 4b 00
        E 240 80 57 00
        E 0 80 63 00
        E 120 90 3d 60
        E 0 90 4a 60
        E 0 90 56 60
        E 0 90 62 60
        <X 480 0
          /wFbaWRsZV9yZWFsdGltZV0=
        >
        E 4320 80 31 00
        E 0 80 3d 00
        E 0 80 4a 00
        E 0 80 56 00
        E 0 80 62 00
        E 2880 b0 7b 00
        GUID {6813E396-263C-43B5-A00C-BA19785FC4B8}
        IGNTEMPO 0 120.00000000 4 4
        SRCCOLOR 21
        VELLANE 132 128 60
        COLORMAP "C:\Program Files\REAPER (x64)\Data\color_maps\rockband_guitarbass.png"
        CFGEDITVIEW 75004.582415 43.953026 0 12 0 0 0
        CFGEDIT 1 1 0 1 1 0 1 1 1 1 1 0.25000000 -8 -8 1544 872 0 2 2 2 0.00000000 0 1 0 0 0.500000 0 0 1.000000 64
        KEYSNAP 0 0 "102034050607" 0 "Major"
        EVTFILTER 1 -1 -1 -1 -1 0 1 0 0 -1.00000000 -1.00000000
      >
    >
  >
  <TRACK '{1B5D8BE2-AE68-4977-8D3C-64B3D608E9BF}'
    NAME "bass"
    PEAKCOL 16576
    BEAT -1
    AUTOMODE 0
    VOLPAN 1.00000000000000 0.00000000000000 -1.00000000000000 -1.00000000000000 1.00000000000000
    MUTESOLO 0 0 0
    IPHASE 0
    ISBUS 2 -1
    BUSCOMP 0 0
    SHOWINMIX 1 0.666700 0.500000 1 0.500000 -1 -1 -1
    FREEMODE 0
    SEL 0
    REC 0 0 0 0 0 0 0
    VU 2
    TRACKHEIGHT 0 0
    INQ 0 0 0 0.5000000000 100 0 0 100
    NCHAN 2
    FX 1
    TRACKID {1B5D8BE2-AE68-4977-8D3C-64B3D608E9BF}
    PERF 0
    MIDIOUT -1
    MAINSEND 1 0
    <ITEM
      POSITION 0.00000000000000
      SNAPOFFS 0.00000000000000
      LENGTH 215.03693877551021
      LOOP 0
      ALLTAKES 0
      SEL 0
      FADEIN 1 0.000000 0.000000 1 0
      FADEOUT 1 0.000000 0.000000 1 0
      MUTE 0
      IGUID {143F1D5D-180B-4E27-A269-35B6891BCE08}
      IID 87
      NAME "bass.wav"
      VOLPAN 1.000000 0.000000 1.000000 -1.000000
      SOFFS 0.00000000000000
      PLAYRATE 1.00000000000000 1 0.00000000000000 -1
      CHANMODE 0
      GUID {77BFEFCA-390E-4250-9727-1BC5B814A872}
      <SOURCE WAVE
        FILE "wav\bass.wav"
      >
    >
  >
  <TRACK '{27119B03-E0D1-40C7-A6C9-06A0B34219EE}'
    NAME "PART GUITAR"
    PEAKCOL 33523712
    BEAT -1
    AUTOMODE 0
    VOLPAN 1.00000000000000 0.00000000000000 -1.00000000000000 -1.00000000000000 1.00000000000000
    MUTESOLO 0 0 0
    IPHASE 0
    ISBUS 1 1
    BUSCOMP 0 0
    SHOWINMIX 1 0.666700 0.500000 1 0.500000 -1 -1 -1
    FREEMODE 0
    SEL 0
    REC 0 0 0 0 0 0 0
    TRACKHEIGHT 0 0
    INQ 0 0 0 0.5000000000 100 0 0 100
    NCHAN 2
    FX 1
    TRACKID {27119B03-E0D1-40C7-A6C9-06A0B34219EE}
    PERF 0
    MIDIOUT -1
    <MIDINOTENAMES
      0 127 "Trill Marker"
      0 126 "Tremolo Marker"
      0 125 "----"
      0 124 "BRE"
      0 123 "BRE"
      0 122 "BRE"
      0 121 "BRE"
      0 120 "BRE (use all 5)"
      0 118 "----"
      0 116 "OVERDRIVE"
      0 115 "----"
      0 103 "Solo Marker"
      0 102 "Force HOPO Off"
      0 101 "Force HOPO On"
      0 100 "EXPERT Orange"
      0 99 "EXPERT Blue"
      0 98 "EXPERT Yellow"
      0 97 "EXPERT Red"
      0 96 "EXPERT Green"
      0 95 "----"
      0 90 "Force HOPO Off"
      0 89 "Force HOPO On"
      0 88 "HARD Orange"
      0 87 "HARD Blue"
      0 86 "HARD Yellow"
      0 85 "HARD Red"
      0 84 "HARD Green"
      0 77 "----"
      0 76 "MEDIUM Orange"
      0 75 "MEDIUM Blue"
      0 74 "MEDIUM Yellow"
      0 73 "MEDIUM Red"
      0 72 "MEDIUM Green"
      0 65 "----"
      0 64 "EASY Orange"
      0 63 "EASY Blue"
      0 62 "EASY Yellow"
      0 61 "EASY Red"
      0 60 "EASY Green"
      0 59 "Left Hand Highest"
      0 58 "- (12)"
      0 57 "- (11)"
      0 56 "- (10)"
      0 55 "- (9)"
      0 54 "-"
      0 53 "- (8)"
      0 52 "- (7)"
      0 51 "-"
      0 50 "- (6)"
      0 49 "- (5)"
      0 48 "-"
      0 47 "- (4)"
      0 46 "-"
      0 45 "- (3)"
      0 44 "-"
      0 43 "- (2)"
      0 42 "-"
      0 41 "- (1)"
      0 40 "Left Hand Lowest"
    >
    MAINSEND 1 0
    <FXCHAIN
      WNDRECT 516 151 878 560
      SHOW 0
      LASTSEL 0
      DOCKED 0
      BYPASS 0 0
      <VST "VSTi: RBN Preview (RBN)" "rbprev_vst64.dll" 0 "VSTi: RBN Preview (RBN)"
        dnBicu5e7f4AAAAAAgAAAAEAAAAAAAAAAgAAAAAAAAAEAAAAAQAAAA==
        AAAQAAMAqgAAABAAAAA=
      >
      FLOATPOS 0 0 0 0
      FXID {5C0053D7-4284-41BA-89F2-9CAF1ACBDAFF}
      WAK 0
    >
    <ITEM
      POSITION 0.00000000000000
      SNAPOFFS 0.00000000000000
      LENGTH 212.53693832905063
      LOOP 0
      ALLTAKES 0
      SEL 0
      FADEIN 1 0.000000 0.000000 1 0
      FADEOUT 1 0.000000 0.000000 1 0
      MUTE 0
      IGUID {AC42F7DB-8038-4B86-A0F8-22D1766A1721}
      IID 1
      NAME "PART GUITAR"
      VOLPAN 1.000000 0.000000 1.000000 -1.000000
      SOFFS 0.00000000000000 0.00000000000000
      PLAYRATE 1.00000000000000 1 0.00000000000000 -1
      CHANMODE 0
      GUID {564CCE72-52A9-4028-AF87-8DD732FD648A}
      <SOURCE MIDI
        HASDATA 1 480 QN
        POOLEDEVTS {3B3A46EF-EDA8-4C43-A312-D6BF3ACFDFA0}
        <X 0 0
          /wNQQVJUIEdVSVRBUg==
        >
        <X 3600 0
          /wFbcGxheV0=
        >
        E 240 90 61 60
        E 0 90 55 60
        E 0 90 49 60
        E 0 90 3d 60
        E 1440 80 49 00
        E 0 80 3d 00
        E 360 80 61 00
        E 0 80 55 00
        E 120 90 63 60
        E 0 90 57 60
        E 0 90 4b 60
        E 0 90 3f 60
        E 480 80 4b 00
        E 0 80 3f 00
        E 360 80 63 00
        E 0 80 57 00
        E 120 90 62 60
        E 0 90 56 60
        E 0 90 4a 60
        E 0 90 3e 60
        E 480 80 4a 00
        E 0 80 3e 00
        E 360 80 62 00
        E 0 80 56 00
        E 120 90 61 60
        E 0 90 55 60
        E 0 90 49 60
        E 0 90 3d 60
        E 1440 80 49 00
        E 0 80 3d 00
        E 360 80 61 00
        E 0 80 55 00
        E 120 90 63 60
        E 0 90 58 60
        E 0 90 4c 60
        E 0 90 40 60
        E 60 80 63 00
        E 0 90 64 60
        E 0 90 65 60
        E 420 80 4c 00
        E 0 80 40 00
        E 360 80 58 00
        E 0 80 64 00
        E 0 80 65 00
        E 120 90 63 60
        E 0 90 57 60
        E 0 90 4b 60
        E 0 90 3f 60
        E 480 80 4b 00
        E 0 80 3f 00
        E 360 80 63 00
        E 0 80 57 00
        E 120 90 62 60
        E 0 90 56 60
        E 0 90 4a 60
        E 0 90 3e 60
        E 1440 80 4a 00
        E 0 80 3e 00
        E 360 80 62 00
        E 0 80 56 00
        E 120 90 63 60
        E 0 90 57 60
        E 0 90 4b 60
        E 0 90 3f 60
        E 480 80 4b 00
        E 0 80 3f 00
        E 360 80 63 00
        E 0 80 57 00
        E 120 90 62 60
        E 0 90 56 60
        E 0 90 4a 60
        E 0 90 3e 60
        E 480 80 4a 00
        E 0 80 3e 00
        E 360 80 62 00
        E 0 80 56 00
        E 120 90 61 60
        E 0 90 74 60
        E 0 90 56 60
        E 0 90 4a 60
        E 0 90 3e 60
        E 120 80 61 00
        E 0 80 4a 00
        E 0 90 62 60
        E 0 90 65 60
        E 0 80 3e 00
        E 240 80 56 00
        E 0 80 62 00
        E 120 90 61 60
        E 0 90 55 60
        E 0 90 49 60
        E 480 80 49 00
        E 360 80 65 00
        E 0 80 61 00
        E 0 80 55 00
        E 120 90 60 60
        E 0 90 54 60
        E 0 90 48 60
        E 0 90 3c 60
        E 120 80 60 00
        E 0 80 54 00
        E 0 80 48 00
        E 0 80 3c 00
        E 120 90 61 60
        E 0 90 55 60
        E 120 80 61 00
        E 0 80 55 00
        E 0 90 61 60
        E 120 80 74 00
        E 360 80 61 00
        E 120 90 62 60
        E 0 90 56 60
        E 0 90 4a 60
        E 0 90 3e 60
        E 120 80 62 00
        E 0 80 56 00
        E 0 80 4a 00
        E 0 80 3e 00
        E 120 90 60 60
        E 0 90 54 60
        E 1080 80 60 00
        E 0 80 54 00
        E 120 90 63 60
        E 0 90 64 60
        E 0 90 57 60
        E 0 90 58 60
        E 0 90 4b 60
        E 0 90 4c 60
        E 0 90 40 60
        E 120 80 63 00
        E 0 80 64 00
        E 0 80 57 00
        E 0 80 58 00
        E 0 80 4b 00
        E 0 80 4c 00
        E 0 90 63 60
        E 0 80 40 00
        E 120 80 63 00
        E 0 90 63 60
        E 0 90 64 60
        E 0 90 57 60
        E 0 90 58 60
        E 120 80 63 00
        E 0 80 64 00
        E 0 80 57 00
        E 0 80 58 00
        E 0 90 63 60
        E 0 90 64 60
        E 120 80 63 00
        E 0 80 64 00
        E 0 90 62 60
        E 0 90 56 60
        E 0 90 4a 60
        E 120 80 62 00
        E 0 80 56 00
        E 0 80 4a 00
        E 0 90 63 60
        E 0 90 64 60
        E 120 80 63 00
        E 0 80 64 00
        E 120 90 63 60
        E 120 80 63 00
        E 0 90 63 60
        E 0 90 64 60
        E 0 90 57 60
        E 0 90 58 60
        E 0 90 4b 60
        E 0 90 4c 60
        E 0 90 40 60
        E 120 80 63 00
        E 0 80 64 00
        E 0 80 57 00
        E 0 80 58 00
        E 0 80 4b 00
        E 0 80 4c 00
        E 0 90 63 60
        E 0 80 40 00
        E 120 80 63 00
        E 0 90 63 60
        E 0 90 64 60
        E 0 90 57 60
        E 0 90 58 60
        E 120 80 63 00
        E 0 80 64 00
        E 0 80 57 00
        E 0 80 58 00
        E 0 90 63 60
        E 0 90 64 60
        E 120 80 63 00
        E 0 80 64 00
        E 0 90 62 60
        E 0 90 56 60
        E 0 90 4a 60
        E 120 80 62 00
        E 0 80 56 00
        E 0 80 4a 00
        E 0 90 63 60
        E 0 90 64 60
        E 120 80 63 00
        E 0 80 64 00
        E 120 90 63 60
        E 120 80 63 00
        E 0 90 63 60
        E 0 90 64 60
        E 0 90 57 60
        E 0 90 58 60
        E 0 90 4b 60
        E 0 90 4c 60
        E 0 90 40 60
        E 120 80 63 00
        E 0 80 64 00
        E 0 80 57 00
        E 0 80 58 00
        E 0 80 4b 00
        E 0 80 4c 00
        E 0 90 63 60
        E 0 80 40 00
        E 120 80 63 00
        E 0 90 63 60
        E 0 90 64 60
        E 0 90 57 60
        E 0 90 58 60
        E 120 80 63 00
        E 0 80 64 00
        E 0 80 57 00
        E 0 80 58 00
        E 0 90 63 60
        E 0 90 64 60
        E 120 80 63 00
        E 0 80 64 00
        E 0 90 62 60
        E 0 90 56 60
        E 0 90 4a 60
        E 120 80 62 00
        E 0 80 56 00
        E 0 80 4a 00
        E 0 90 63 60
        E 0 90 64 60
        E 120 80 63 00
        E 0 80 64 00
        E 120 90 63 60
        E 120 80 63 00
        E 0 90 63 60
        E 0 90 64 60
        E 0 90 57 60
        E 0 90 58 60
        E 0 90 4b 60
        E 0 90 4c 60
        E 0 90 40 60
        E 120 80 63 00
        E 0 80 64 00
        E 0 80 57 00
        E 0 80 58 00
        E 0 80 4b 00
        E 0 80 4c 00
        E 0 90 63 60
        E 0 80 40 00
        E 120 80 63 00
        E 0 90 63 60
        E 0 90 64 60
        E 0 90 57 60
        E 0 90 58 60
        E 120 80 63 00
        E 0 80 64 00
        E 0 80 57 00
        E 0 80 58 00
        E 0 90 63 60
        E 0 90 64 60
        E 120 80 63 00
        E 0 80 64 00
        E 0 90 62 60
        E 0 90 56 60
        E 0 90 4a 60
        E 120 80 62 00
        E 0 80 56 00
        E 0 80 4a 00
        E 0 90 63 60
        E 0 90 64 60
        <X 120 0
          /wFbaW50ZW5zZV0=
        >
        E 0 80 63 00
        E 0 80 64 00
        E 240 90 62 60
        E 0 90 64 60
        E 0 90 56 60
        E 0 90 58 60
        E 0 90 4a 60
        E 0 90 4b 60
        E 0 90 40 60
        E 120 80 4a 00
        E 0 80 4b 00
        E 0 80 40 00
        E 240 80 62 00
        E 0 80 64 00
        E 0 80 56 00
        E 0 80 58 00
        E 120 90 62 60
        E 0 90 64 60
        E 0 90 56 60
        E 0 90 58 60
        E 0 90 4a 60
        E 0 90 4b 60
        E 0 90 40 60
        E 120 80 62 00
        E 0 80 64 00
        E 0 80 56 00
        E 0 80 58 00
        E 0 80 4a 00
        E 0 80 4b 00
        E 0 80 40 00
        E 240 90 62 60
        E 0 90 64 60
        E 0 90 56 60
        E 0 90 58 60
        E 120 80 62 00
        E 0 80 64 00
        E 0 80 56 00
        E 0 80 58 00
        E 120 90 62 60
        E 0 90 64 60
        E 120 80 62 00
        E 0 80 64 00
        E 0 90 62 60
        E 0 90 64 60
        E 0 90 56 60
        E 0 90 58 60
        E 0 90 4a 60
        E 0 90 4b 60
        E 120 80 62 00
        E 0 80 64 00
        E 0 80 56 00
        E 0 80 58 00
        E 0 80 4a 00
        E 0 80 4b 00
        E 120 90 62 60
        E 0 90 64 60
        E 0 90 56 60
        E 0 90 58 60
        E 0 90 4a 60
        E 0 90 4b 60
        E 120 80 62 00
        E 0 80 64 00
        E 0 80 56 00
        E 0 80 58 00
        E 0 80 4a 00
        E 0 80 4b 00
        E 0 90 62 60
        E 0 90 64 60
        E 120 80 62 00
        E 0 80 64 00
        E 120 90 61 60
        E 120 80 61 00
        E 0 90 61 60
        E 0 90 62 60
        E 0 90 55 60
        E 0 90 56 60
        E 0 90 48 60
        E 0 90 4a 60
        E 0 90 3d 60
        E 120 80 48 00
        E 0 80 4a 00
        E 0 80 3d 00
        E 240 80 61 00
        E 0 80 62 00
        E 0 80 55 00
        E 0 80 56 00
        E 120 90 61 60
        E 0 90 62 60
        E 0 90 55 60
        E 0 90 56 60
        E 0 90 48 60
        E 0 90 4a 60
        E 120 80 61 00
        E 0 80 62 00
        E 0 80 55 00
        E 0 80 56 00
        E 0 80 48 00
        E 0 80 4a 00
        E 240 90 61 60
        E 0 90 63 60
        E 120 80 61 00
        E 0 80 63 00
        E 0 90 61 60
        E 0 90 63 60
        E 0 90 55 60
        E 0 90 57 60
        E 0 90 49 60
        E 0 90 4a 60
        E 0 90 3e 60
        E 120 80 61 00
        E 0 80 63 00
        E 0 80 55 00
        E 0 80 57 00
        E 0 80 49 00
        E 0 80 4a 00
        E 0 90 61 60
        E 0 90 63 60
        E 0 80 3e 00
        E 120 80 61 00
        E 0 80 63 00
        E 0 90 61 60
        E 0 90 63 60
        E 0 90 55 60
        E 0 90 57 60
        E 0 90 49 60
        E 0 90 4a 60
        E 120 80 61 00
        E 0 80 63 00
        E 0 80 55 00
        E 0 80 57 00
        E 0 80 49 00
        E 0 80 4a 00
        E 120 90 61 60
        E 0 90 63 60
        E 0 90 55 60
        E 0 90 57 60
        E 0 90 49 60
        E 0 90 4a 60
        E 120 80 61 00
        E 0 80 63 00
        E 0 80 55 00
        E 0 80 57 00
        E 0 80 49 00
        E 0 80 4a 00
        E 0 90 61 60
        E 0 90 63 60
        E 120 80 61 00
        E 0 80 63 00
        E 120 90 62 60
        E 120 80 62 00
        E 0 90 62 60
        E 0 90 64 60
        E 0 90 56 60
        E 0 90 58 60
        E 0 90 4a 60
        E 0 90 4b 60
        E 0 90 40 60
        E 120 80 4a 00
        E 0 80 4b 00
        E 0 80 40 00
        E 240 80 62 00
        E 0 80 64 00
        E 0 80 56 00
        E 0 80 58 00
        E 120 90 62 60
        E 0 90 64 60
        E 0 90 56 60
        E 0 90 58 60
        E 0 90 4a 60
        E 0 90 4b 60
        E 0 90 40 60
        E 120 80 62 00
        E 0 80 64 00
        E 0 80 56 00
        E 0 80 58 00
        E 0 80 4a 00
        E 0 80 4b 00
        E 0 80 40 00
        E 240 90 62 60
        E 0 90 64 60
        E 0 90 56 60
        E 0 90 58 60
        E 120 80 62 00
        E 0 80 64 00
        E 0 80 56 00
        E 0 80 58 00
        E 120 90 62 60
        E 0 90 64 60
        E 120 80 62 00
        E 0 80 64 00
        E 0 90 62 60
        E 0 90 64 60
        E 0 90 56 60
        E 0 90 58 60
        E 0 90 4a 60
        E 0 90 4b 60
        E 120 80 62 00
        E 0 80 64 00
        E 0 80 56 00
        E 0 80 58 00
        E 0 80 4a 00
        E 0 80 4b 00
        E 120 90 62 60
        E 0 90 64 60
        E 0 90 56 60
        E 0 90 58 60
        E 0 90 4a 60
        E 0 90 4b 60
        E 120 80 62 00
        E 0 80 64 00
        E 0 80 56 00
        E 0 80 58 00
        E 0 80 4a 00
        E 0 80 4b 00
        E 0 90 62 60
        E 0 90 64 60
        E 120 80 62 00
        E 0 80 64 00
        E 120 90 61 60
        E 120 80 61 00
        E 0 90 61 60
        E 0 90 62 60
        E 0 90 55 60
        E 0 90 56 60
        E 0 90 48 60
        E 0 90 4a 60
        E 0 90 3d 60
        E 120 80 48 00
        E 0 80 4a 00
        E 0 80 3d 00
        E 240 80 61 00
        E 0 80 62 00
        E 0 80 55 00
        E 0 80 56 00
        E 120 90 61 60
        E 0 90 62 60
        E 0 90 55 60
        E 0 90 56 60
        E 0 90 48 60
        E 0 90 4a 60
        E 120 80 61 00
        E 0 80 62 00
        E 0 80 55 00
        E 0 80 56 00
        E 0 80 48 00
        E 0 80 4a 00
        E 240 90 61 60
        E 0 90 63 60
        E 120 80 61 00
        E 0 80 63 00
        E 0 90 61 60
        E 0 90 63 60
        E 0 90 55 60
        E 0 90 57 60
        E 0 90 49 60
        E 0 90 4a 60
        E 0 90 3e 60
        E 120 80 61 00
        E 0 80 63 00
        E 0 80 55 00
        E 0 80 57 00
        E 0 80 49 00
        E 0 80 4a 00
        E 0 90 61 60
        E 0 90 63 60
        E 0 80 3e 00
        E 120 80 61 00
        E 0 80 63 00
        E 0 90 61 60
        E 0 90 63 60
        E 0 90 55 60
        E 0 90 57 60
        E 0 90 49 60
        E 0 90 4a 60
        E 120 80 61 00
        E 0 80 63 00
        E 0 80 55 00
        E 0 80 57 00
        E 0 80 49 00
        E 0 80 4a 00
        E 120 90 61 60
        E 0 90 63 60
        E 0 90 55 60
        E 0 90 57 60
        E 0 90 49 60
        E 0 90 4a 60
        E 120 80 61 00
        E 0 80 63 00
        E 0 80 55 00
        E 0 80 57 00
        E 0 80 49 00
        E 0 80 4a 00
        E 0 90 61 60
        E 0 90 63 60
        E 120 80 61 00
        E 0 80 63 00
        E 120 90 62 60
        E 120 80 62 00
        E 0 90 62 60
        E 0 90 64 60
        E 0 90 56 60
        E 0 90 58 60
        E 0 90 4a 60
        E 0 90 4b 60
        E 0 90 40 60
        E 120 80 4a 00
        E 0 80 4b 00
        E 0 80 40 00
        E 240 80 62 00
        E 0 80 64 00
        E 0 80 56 00
        E 0 80 58 00
        E 120 90 62 60
        E 0 90 64 60
        E 0 90 56 60
        E 0 90 58 60
        E 0 90 4a 60
        E 0 90 4b 60
        E 0 90 40 60
        E 120 80 62 00
        E 0 80 64 00
        E 0 80 56 00
        E 0 80 58 00
        E 0 80 4a 00
        E 0 80 4b 00
        E 0 80 40 00
        E 240 90 62 60
        E 0 90 64 60
        E 0 90 56 60
        E 0 90 58 60
        E 120 80 62 00
        E 0 80 64 00
        E 0 80 56 00
        E 0 80 58 00
        E 120 90 62 60
        E 0 90 64 60
        E 120 80 62 00
        E 0 80 64 00
        E 0 90 62 60
        E 0 90 64 60
        E 0 90 56 60
        E 0 90 58 60
        E 0 90 4a 60
        E 0 90 4b 60
        E 120 80 62 00
        E 0 80 64 00
        E 0 80 56 00
        E 0 80 58 00
        E 0 80 4a 00
        E 0 80 4b 00
        E 120 90 62 60
        E 0 90 64 60
        E 0 90 56 60
        E 0 90 58 60
        E 0 90 4a 60
        E 0 90 4b 60
        E 120 80 62 00
        E 0 80 64 00
        E 0 80 56 00
        E 0 80 58 00
        E 0 80 4a 00
        E 0 80 4b 00
        E 0 90 62 60
        E 0 90 64 60
        E 120 80 62 00
        E 0 80 64 00
        E 120 90 61 60
        E 120 80 61 00
        E 0 90 61 60
        E 0 90 62 60
        E 0 90 55 60
        E 0 90 56 60
        E 0 90 48 60
        E 0 90 4a 60
        E 0 90 3d 60
        E 120 80 48 00
        E 0 80 4a 00
        E 0 80 3d 00
        E 240 80 61 00
        E 0 80 62 00
        E 0 80 55 00
        E 0 80 56 00
        E 120 90 61 60
        E 0 90 62 60
        E 0 90 55 60
        E 0 90 56 60
        E 0 90 48 60
        E 0 90 4a 60
        E 120 80 61 00
        E 0 80 62 00
        E 0 80 55 00
        E 0 80 56 00
        E 0 80 48 00
        E 0 80 4a 00
        E 240 90 61 60
        E 0 90 63 60
        E 120 80 61 00
        E 0 80 63 00
        E 0 90 61 60
        E 0 90 63 60
        E 0 90 55 60
        E 0 90 57 60
        E 0 90 49 60
        E 0 90 4a 60
        E 0 90 3e 60
        E 120 80 61 00
        E 0 80 63 00
        E 0 80 55 00
        E 0 80 57 00
        E 0 80 49 00
        E 0 80 4a 00
        E 0 90 61 60
        E 0 90 63 60
        E 0 80 3e 00
        E 120 80 61 00
        E 0 80 63 00
        E 0 90 61 60
        E 0 90 63 60
        E 0 90 55 60
        E 0 90 57 60
        E 0 90 49 60
        E 0 90 4a 60
        E 120 80 61 00
        E 0 80 63 00
        E 0 80 55 00
        E 0 80 57 00
        E 0 80 49 00
        E 0 80 4a 00
        E 120 90 61 60
        E 0 90 63 60
        E 0 90 55 60
        E 0 90 57 60
        E 0 90 49 60
        E 0 90 4a 60
        E 120 80 61 00
        E 0 80 63 00
        E 0 80 55 00
        E 0 80 57 00
        E 0 80 49 00
        E 0 80 4a 00
        E 0 90 61 60
        E 0 90 63 60
        E 120 80 61 00
        E 0 80 63 00
        E 120 90 62 60
        E 120 80 62 00
        E 0 90 62 60
        E 0 90 64 60
        E 0 90 74 60
        E 0 90 56 60
        E 0 90 58 60
        E 0 90 4a 60
        E 0 90 4b 60
        E 0 90 40 60
        E 120 80 4a 00
        E 0 80 4b 00
        E 0 80 40 00
        E 240 80 62 00
        E 0 80 64 00
        E 0 80 56 00
        E 0 80 58 00
        E 120 90 62 60
        E 0 90 64 60
        E 0 90 56 60
        E 0 90 58 60
        E 0 90 4a 60
        E 0 90 4b 60
        E 0 90 40 60
        E 120 80 62 00
        E 0 80 64 00
        E 0 80 56 00
        E 0 80 58 00
        E 0 80 4a 00
        E 0 80 4b 00
        E 0 80 40 00
        E 240 90 62 60
        E 0 90 64 60
        E 0 90 56 60
        E 0 90 58 60
        E 120 80 62 00
        E 0 80 64 00
        E 0 80 56 00
        E 0 80 58 00
        E 120 90 62 60
        E 0 90 64 60
        E 120 80 62 00
        E 0 80 64 00
        E 0 90 62 60
        E 0 90 64 60
        E 0 90 56 60
        E 0 90 58 60
        E 0 90 4a 60
        E 0 90 4b 60
        E 120 80 62 00
        E 0 80 64 00
        E 0 80 56 00
        E 0 80 58 00
        E 0 80 4a 00
        E 0 80 4b 00
        E 120 90 62 60
        E 0 90 64 60
        E 0 90 56 60
        E 0 90 58 60
        E 0 90 4a 60
        E 0 90 4b 60
        E 120 80 62 00
        E 0 80 64 00
        E 0 80 56 00
        E 0 80 58 00
        E 0 80 4a 00
        E 0 80 4b 00
        E 0 90 62 60
        E 0 90 64 60
        E 120 80 62 00
        E 0 80 64 00
        E 120 90 61 60
        E 120 80 61 00
        E 0 90 61 60
        E 0 90 62 60
        E 0 90 55 60
        E 0 90 56 60
        E 0 90 48 60
        E 0 90 4a 60
        E 0 90 3d 60
        E 120 80 48 00
        E 0 80 4a 00
        E 0 80 3d 00
        E 240 80 61 00
        E 0 80 62 00
        E 0 80 55 00
        E 0 80 56 00
        E 120 90 61 60
        E 0 90 62 60
        E 0 90 55 60
        E 0 90 56 60
        E 0 90 48 60
        E 0 90 4a 60
        E 120 80 61 00
        E 0 80 62 00
        E 0 80 55 00
        E 0 80 56 00
        E 0 80 48 00
        E 0 80 4a 00
        E 240 90 61 60
        E 0 90 63 60
        E 120 80 61 00
        E 0 80 63 00
        E 0 90 61 60
        E 0 90 63 60
        E 0 90 55 60
        E 0 90 57 60
        E 0 90 49 60
        E 0 90 4a 60
        E 0 90 3e 60
        E 120 80 61 00
        E 0 80 63 00
        E 0 80 55 00
        E 0 80 57 00
        E 0 80 49 00
        E 0 80 4a 00
        E 0 90 61 60
        E 0 90 63 60
        E 0 80 3e 00
        E 120 80 61 00
        E 0 80 63 00
        E 0 90 61 60
        E 0 90 63 60
        E 0 90 55 60
        E 0 90 57 60
        E 0 90 49 60
        E 0 90 4a 60
        E 120 80 61 00
        E 0 80 63 00
        E 0 80 55 00
        E 0 80 57 00
        E 0 80 49 00
        E 0 80 4a 00
        E 120 90 61 60
        E 0 90 63 60
        E 0 90 55 60
        E 0 90 57 60
        E 0 90 49 60
        E 0 90 4a 60
        E 120 80 61 00
        E 0 80 63 00
        E 0 80 55 00
        E 0 80 57 00
        E 0 80 49 00
        E 0 80 4a 00
        E 0 90 61 60
        E 0 90 63 60
        E 120 80 61 00
        E 0 80 63 00
        E 0 90 61 60
        E 0 90 63 60
        E 0 90 55 60
        E 0 90 57 60
        E 120 80 61 00
        E 0 80 63 00
        E 0 80 55 00
        E 0 80 57 00
        <X 120 0
          /wFbcGxheV0=
        >
        E 0 80 74 00
        E 0 90 62 60
        E 0 90 64 60
        E 0 90 56 60
        E 0 90 58 60
        E 0 90 4a 60
        E 0 90 4b 60
        E 0 90 40 60
        E 120 80 62 00
        E 0 80 64 00
        E 0 80 56 00
        E 0 80 58 00
        E 0 80 4a 00
        E 0 80 4b 00
        E 0 80 40 00
        E 120 90 62 60
        E 0 90 64 60
        E 0 90 56 60
        E 0 90 58 60
        E 120 80 62 00
        E 0 80 64 00
        E 0 80 56 00
        E 0 80 58 00
        E 120 90 63 60
        E 0 90 57 60
        E 0 90 4b 60
        E 120 80 63 00
        E 0 80 57 00
        E 0 80 4b 00
        E 0 90 63 60
        E 120 80 63 00
        E 0 90 63 60
        E 0 90 57 60
        E 120 80 63 00
        E 0 80 57 00
        E 0 90 62 60
        E 120 80 62 00
        E 0 90 62 60
        E 0 90 56 60
        E 0 90 4a 60
        E 0 90 3e 60
        E 120 80 62 00
        E 0 80 56 00
        E 0 80 4a 00
        E 0 90 62 60
        E 0 80 3e 00
        E 120 80 62 00
        E 0 90 61 60
        E 0 90 55 60
        E 120 80 61 00
        E 0 80 55 00
        E 0 90 61 60
        E 120 80 61 00
        E 0 90 61 60
        E 0 90 55 60
        E 0 90 49 60
        E 120 80 61 00
        E 0 80 55 00
        E 0 80 49 00
        E 0 90 61 60
        E 120 80 61 00
        E 0 90 61 60
        E 0 90 55 60
        E 120 80 61 00
        E 0 80 55 00
        E 0 90 61 60
        E 120 80 61 00
        E 0 90 61 60
        E 0 90 62 60
        E 0 90 55 60
        E 0 90 56 60
        E 0 90 48 60
        E 0 90 4a 60
        E 0 90 3d 60
        E 120 80 61 00
        E 0 80 62 00
        E 0 80 55 00
        E 0 80 56 00
        E 0 80 48 00
        E 0 80 4a 00
        E 0 80 3d 00
        E 120 90 61 60
        E 0 90 62 60
        E 0 90 55 60
        E 0 90 56 60
        E 120 80 61 00
        E 0 80 62 00
        E 0 80 55 00
        E 0 80 56 00
        E 120 90 63 60
        E 0 90 57 60
        E 0 90 4b 60
        E 120 80 63 00
        E 0 80 57 00
        E 0 80 4b 00
        E 0 90 63 60
        E 120 80 63 00
        E 0 90 63 60
        E 0 90 57 60
        E 120 80 63 00
        E 0 80 57 00
        E 0 90 62 60
        E 120 80 62 00
        E 0 90 62 60
        E 0 90 56 60
        E 0 90 4a 60
        E 0 90 3e 60
        E 120 80 62 00
        E 0 80 56 00
        E 0 80 4a 00
        E 0 90 62 60
        E 0 80 3e 00
        E 120 80 62 00
        E 0 90 61 60
        E 0 90 55 60
        E 120 80 61 00
        E 0 80 55 00
        E 0 90 61 60
        E 120 80 61 00
        E 0 90 61 60
        E 0 90 55 60
        E 0 90 49 60
        E 120 80 61 00
        E 0 80 55 00
        E 0 80 49 00
        E 0 90 61 60
        E 120 80 61 00
        E 0 90 61 60
        E 0 90 55 60
        E 120 80 61 00
        E 0 80 55 00
        E 0 90 61 60
        E 120 80 61 00
        E 0 90 62 60
        E 0 90 64 60
        E 0 90 56 60
        E 0 90 58 60
        E 0 90 4a 60
        E 0 90 4b 60
        E 0 90 40 60
        E 120 80 62 00
        E 0 80 64 00
        E 0 80 56 00
        E 0 80 58 00
        E 0 80 4a 00
        E 0 80 4b 00
        E 0 80 40 00
        E 120 90 62 60
        E 0 90 64 60
        E 0 90 56 60
        E 0 90 58 60
        E 120 80 62 00
        E 0 80 64 00
        E 0 80 56 00
        E 0 80 58 00
        E 120 90 63 60
        E 0 90 57 60
        E 0 90 4b 60
        E 120 80 63 00
        E 0 80 57 00
        E 0 80 4b 00
        E 0 90 63 60
        E 120 80 63 00
        E 0 90 63 60
        E 0 90 57 60
        E 120 80 63 00
        E 0 80 57 00
        E 0 90 62 60
        E 120 80 62 00
        E 0 90 62 60
        E 0 90 56 60
        E 0 90 4a 60
        E 0 90 3e 60
        E 120 80 62 00
        E 0 80 56 00
        E 0 80 4a 00
        E 0 90 62 60
        E 0 80 3e 00
        E 120 80 62 00
        E 0 90 61 60
        E 0 90 55 60
        E 120 80 61 00
        E 0 80 55 00
        E 0 90 61 60
        E 120 80 61 00
        E 0 90 61 60
        E 0 90 55 60
        E 0 90 49 60
        E 120 80 61 00
        E 0 80 55 00
        E 0 80 49 00
        E 0 90 64 60
        E 120 80 64 00
        E 0 90 63 60
        E 0 90 57 60
        E 120 80 63 00
        E 0 80 57 00
        E 0 90 62 60
        E 120 80 62 00
        E 0 90 61 60
        E 0 90 62 60
        E 0 90 55 60
        E 0 90 56 60
        E 0 90 48 60
        E 0 90 4a 60
        E 0 90 3d 60
        E 120 80 61 00
        E 0 80 62 00
        E 0 80 55 00
        E 0 80 56 00
        E 0 80 48 00
        E 0 80 4a 00
        E 0 80 3d 00
        E 120 90 61 60
        E 0 90 62 60
        E 0 90 55 60
        E 0 90 56 60
        E 120 80 61 00
        E 0 80 62 00
        E 0 80 55 00
        E 0 80 56 00
        E 120 90 63 60
        E 0 90 57 60
        E 0 90 4b 60
        E 120 80 63 00
        E 0 80 57 00
        E 0 80 4b 00
        E 0 90 63 60
        E 120 80 63 00
        E 0 90 63 60
        E 0 90 57 60
        E 120 80 63 00
        E 0 80 57 00
        E 0 90 62 60
        E 120 80 62 00
        E 0 90 62 60
        E 0 90 56 60
        E 0 90 4a 60
        E 0 90 3e 60
        E 120 80 62 00
        E 0 80 56 00
        E 0 80 4a 00
        E 0 90 62 60
        E 0 80 3e 00
        E 120 80 62 00
        E 0 90 60 60
        E 0 90 54 60
        E 120 80 60 00
        E 0 80 54 00
        E 0 90 61 60
        E 120 80 61 00
        E 0 90 60 60
        E 0 90 54 60
        E 0 90 48 60
        E 120 80 48 00
        E 240 80 60 00
        E 0 80 54 00
        E 120 90 61 60
        E 0 90 55 60
        E 0 90 49 60
        E 0 90 3d 60
        E 120 80 61 00
        E 0 80 55 00
        E 0 80 49 00
        E 0 90 61 60
        E 0 80 3d 00
        E 120 80 61 00
        E 0 90 61 60
        E 0 90 55 60
        E 120 80 61 00
        E 0 80 55 00
        E 0 90 61 60
        E 120 80 61 00
        E 0 90 62 60
        E 0 90 56 60
        E 0 90 4a 60
        E 120 80 62 00
        E 0 80 56 00
        E 0 80 4a 00
        E 0 90 62 60
        E 120 80 62 00
        E 0 90 62 60
        E 0 90 56 60
        E 120 80 62 00
        E 0 80 56 00
        E 0 90 62 60
        E 120 80 62 00
        E 0 90 63 60
        E 0 90 57 60
        E 0 90 4b 60
        E 0 90 3f 60
        E 120 80 63 00
        E 0 80 57 00
        E 0 80 4b 00
        E 0 90 63 60
        E 0 80 3f 00
        E 120 80 63 00
        E 0 90 62 60
        E 0 90 56 60
        E 120 80 62 00
        E 0 80 56 00
        E 0 90 62 60
        E 120 80 62 00
        E 0 90 61 60
        E 0 90 55 60
        E 0 90 49 60
        E 120 80 61 00
        E 0 80 55 00
        E 0 80 49 00
        E 0 90 61 60
        E 120 80 61 00
        E 0 90 62 60
        E 0 90 56 60
        E 120 80 62 00
        E 0 80 56 00
        E 0 90 62 60
        E 120 80 62 00
        E 0 90 60 60
        E 0 90 54 60
        E 0 90 48 60
        E 0 90 3c 60
        E 120 80 60 00
        E 0 80 54 00
        E 0 80 48 00
        E 0 90 61 60
        E 0 80 3c 00
        E 120 80 61 00
        E 0 90 61 60
        E 0 90 55 60
        E 120 80 61 00
        E 0 80 55 00
        E 0 90 61 60
        E 120 80 61 00
        E 0 90 60 60
        E 0 90 54 60
        E 0 90 48 60
        E 120 80 60 00
        E 0 80 54 00
        E 0 80 48 00
        E 0 90 60 60
        E 120 80 60 00
        E 0 90 60 60
        E 0 90 54 60
        E 120 80 60 00
        E 0 80 54 00
        E 0 90 60 60
        E 120 80 60 00
        E 0 90 61 60
        E 0 90 65 60
        E 0 90 55 60
        E 0 90 49 60
        E 0 90 3d 60
        E 480 80 49 00
        E 0 80 3d 00
        E 120 80 61 00
        E 0 80 55 00
        E 120 90 60 60
        E 0 90 54 60
        E 120 80 60 00
        E 0 80 54 00
        E 120 80 65 00
        E 0 90 61 60
        E 0 90 55 60
        E 0 90 49 60
        E 0 90 3d 60
        E 120 80 61 00
        E 0 80 55 00
        E 0 80 49 00
        E 0 90 61 60
        E 0 80 3d 00
        E 120 80 61 00
        E 0 90 61 60
        E 0 90 55 60
        E 120 80 61 00
        E 0 80 55 00
        E 0 90 61 60
        E 120 80 61 00
        E 0 90 62 60
        E 0 90 56 60
        E 0 90 4a 60
        E 120 80 62 00
        E 0 80 56 00
        E 0 80 4a 00
        E 0 90 62 60
        E 120 80 62 00
        E 0 90 62 60
        E 0 90 56 60
        E 120 80 62 00
        E 0 80 56 00
        E 0 90 62 60
        E 120 80 62 00
        E 0 90 63 60
        E 0 90 57 60
        E 0 90 4b 60
        E 0 90 3f 60
        E 120 80 63 00
        E 0 80 57 00
        E 0 80 4b 00
        E 0 90 63 60
        E 0 80 3f 00
        E 120 80 63 00
        E 0 90 62 60
        E 0 90 56 60
        E 120 80 62 00
        E 0 80 56 00
        E 0 90 62 60
        E 120 80 62 00
        E 0 90 61 60
        E 0 90 55 60
        E 0 90 49 60
        E 120 80 61 00
        E 0 80 55 00
        E 0 80 49 00
        E 0 90 61 60
        E 120 80 61 00
        E 0 90 62 60
        E 0 90 56 60
        E 120 80 62 00
        E 0 80 56 00
        E 0 90 62 60
        E 120 80 62 00
        E 0 90 60 60
        E 0 90 54 60
        E 0 90 48 60
        E 0 90 3c 60
        E 120 80 60 00
        E 0 80 54 00
        E 0 80 48 00
        E 0 90 60 60
        E 0 80 3c 00
        E 120 80 60 00
        E 0 90 61 60
        E 0 90 55 60
        E 120 80 61 00
        E 0 80 55 00
        E 0 90 61 60
        E 120 80 61 00
        E 0 90 62 60
        E 0 90 56 60
        E 0 90 4a 60
        E 120 80 62 00
        E 0 80 56 00
        E 0 80 4a 00
        E 0 90 62 60
        E 120 80 62 00
        E 0 90 61 60
        E 0 90 55 60
        E 120 80 61 00
        E 0 80 55 00
        E 0 90 61 60
        E 120 80 61 00
        E 0 90 62 60
        E 0 90 56 60
        E 0 90 4a 60
        E 0 90 3e 60
        E 120 80 62 00
        E 0 80 56 00
        E 0 80 4a 00
        E 0 90 62 60
        E 0 80 3e 00
        E 120 80 62 00
        E 0 90 63 60
        E 0 90 57 60
        E 120 80 63 00
        E 0 80 57 00
        E 0 90 63 60
        E 120 80 63 00
        E 0 90 64 60
        E 0 90 58 60
        E 0 90 4c 60
        E 120 80 4c 00
        E 240 80 64 00
        E 0 80 58 00
        E 120 90 61 60
        E 0 90 74 60
        E 0 90 55 60
        E 0 90 49 60
        E 0 90 3d 60
        E 120 80 61 00
        E 0 80 55 00
        E 0 80 49 00
        E 0 80 3d 00
        E 120 90 62 60
        E 0 90 56 60
        E 120 80 62 00
        E 0 80 56 00
        E 120 90 64 60
        E 0 90 58 60
        E 0 90 4c 60
        E 120 80 64 00
        E 0 80 58 00
        E 0 80 4c 00
        E 120 90 62 60
        E 0 90 56 60
        E 120 80 62 00
        E 0 80 56 00
        E 120 90 61 60
        E 0 90 55 60
        E 0 90 49 60
        E 0 90 3d 60
        E 120 80 61 00
        E 0 80 55 00
        E 0 80 49 00
        E 0 80 3d 00
        E 120 90 62 60
        E 0 90 56 60
        E 120 80 62 00
        E 0 80 56 00
        E 120 90 63 60
        E 0 90 57 60
        E 0 90 4b 60
        E 120 80 63 00
        E 0 80 57 00
        E 0 80 4b 00
        E 120 90 62 60
        E 0 90 56 60
        E 120 80 62 00
        E 0 80 56 00
        E 120 80 74 00
        E 0 90 60 60
        E 0 90 54 60
        E 0 90 48 60
        E 0 90 3c 60
        E 120 80 60 00
        E 0 80 54 00
        E 0 80 48 00
        E 0 80 3c 00
        E 120 90 62 60
        E 0 90 56 60
        E 120 80 62 00
        E 0 80 56 00
        E 120 90 63 60
        E 0 90 57 60
        E 0 90 4b 60
        E 120 80 63 00
        E 0 80 57 00
        E 0 80 4b 00
        E 120 90 62 60
        E 0 90 56 60
        E 120 80 62 00
        E 0 80 56 00
        E 120 90 61 60
        E 0 90 55 60
        E 0 90 49 60
        E 0 90 3d 60
        E 120 80 61 00
        E 0 80 55 00
        E 0 80 49 00
        E 0 80 3d 00
        E 120 90 62 60
        E 0 90 56 60
        E 120 80 62 00
        E 0 80 56 00
        E 120 90 63 60
        E 0 90 57 60
        E 0 90 4b 60
        E 120 80 63 00
        E 0 80 57 00
        E 0 80 4b 00
        E 120 90 62 60
        E 0 90 56 60
        E 120 80 62 00
        E 0 80 56 00
        E 120 90 61 60
        E 0 90 55 60
        E 0 90 49 60
        E 0 90 3d 60
        E 120 80 61 00
        E 0 80 55 00
        E 0 80 49 00
        E 0 80 3d 00
        E 120 90 62 60
        E 0 90 56 60
        E 120 80 62 00
        E 0 80 56 00
        E 120 90 64 60
        E 0 90 58 60
        E 0 90 4c 60
        E 120 80 64 00
        E 0 80 58 00
        E 0 80 4c 00
        E 120 90 62 60
        E 0 90 56 60
        E 120 80 62 00
        E 0 80 56 00
        E 120 90 61 60
        E 0 90 55 60
        E 0 90 49 60
        E 0 90 3d 60
        E 120 80 61 00
        E 0 80 55 00
        E 0 80 49 00
        E 0 80 3d 00
        E 120 90 62 60
        E 0 90 56 60
        E 120 80 62 00
        E 0 80 56 00
        E 120 90 63 60
        E 0 90 57 60
        E 0 90 4b 60
        E 120 80 63 00
        E 0 80 57 00
        E 0 80 4b 00
        E 120 90 62 60
        E 0 90 56 60
        E 120 80 62 00
        E 0 80 56 00
        E 120 90 60 60
        E 0 90 54 60
        E 0 90 48 60
        E 0 90 3c 60
        E 120 80 60 00
        E 0 80 54 00
        E 0 80 48 00
        E 0 80 3c 00
        E 120 90 62 60
        E 0 90 56 60
        E 120 80 62 00
        E 0 80 56 00
        E 120 90 63 60
        E 0 90 57 60
        E 0 90 4b 60
        E 120 80 63 00
        E 0 80 57 00
        E 0 80 4b 00
        E 120 90 62 60
        E 0 90 56 60
        E 120 80 62 00
        E 0 80 56 00
        E 120 90 61 60
        E 0 90 55 60
        E 0 90 49 60
        E 0 90 3d 60
        E 120 80 61 00
        E 0 80 55 00
        E 0 80 49 00
        E 0 80 3d 00
        E 120 90 62 60
        E 0 90 56 60
        E 120 80 62 00
        E 0 80 56 00
        E 120 90 63 60
        E 0 90 57 60
        E 0 90 4b 60
        E 120 80 63 00
        E 0 80 57 00
        E 0 80 4b 00
        E 120 90 64 60
        E 0 90 58 60
        E 120 80 64 00
        E 0 80 58 00
        E 0 90 64 60
        <X 120 0
          /wFbaW50ZW5zZV0=
        >
        E 0 80 64 00
        E 0 90 62 60
        E 0 90 56 60
        E 0 90 4a 60
        E 0 90 3e 60
        E 120 80 62 00
        E 0 80 56 00
        E 0 80 4a 00
        E 0 90 62 60
        E 0 80 3e 00
        E 120 80 62 00
        E 0 90 62 60
        E 0 90 64 60
        E 0 90 56 60
        E 0 90 58 60
        E 120 80 62 00
        E 0 80 64 00
        E 0 80 56 00
        E 0 80 58 00
        E 120 90 62 60
        E 0 90 64 60
        E 0 90 56 60
        E 0 90 58 60
        E 0 90 4a 60
        E 0 90 4b 60
        E 120 80 62 00
        E 0 80 64 00
        E 0 80 56 00
        E 0 80 58 00
        E 0 80 4a 00
        E 0 80 4b 00
        E 240 90 62 60
        E 0 90 64 60
        E 120 80 62 00
        E 0 80 64 00
        E 0 90 61 60
        E 0 90 55 60
        E 0 90 49 60
        E 0 90 3d 60
        E 120 80 61 00
        E 0 80 55 00
        E 0 80 49 00
        E 0 90 61 60
        E 0 90 62 60
        E 0 80 3d 00
        E 120 80 61 00
        E 0 80 62 00
        E 0 90 61 60
        E 0 90 62 60
        E 0 90 55 60
        E 0 90 56 60
        E 120 80 61 00
        E 0 80 62 00
        E 0 80 55 00
        E 0 80 56 00
        E 0 90 61 60
        E 0 90 62 60
        E 120 80 61 00
        E 0 80 62 00
        E 0 90 61 60
        E 0 90 62 60
        E 0 90 55 60
        E 0 90 56 60
        E 0 90 48 60
        E 0 90 4a 60
        E 120 80 61 00
        E 0 80 62 00
        E 0 80 55 00
        E 0 80 56 00
        E 0 80 48 00
        E 0 80 4a 00
        E 0 90 61 60
        E 0 90 62 60
        E 120 80 61 00
        E 0 80 62 00
        E 0 90 61 60
        E 0 90 62 60
        E 0 90 55 60
        E 0 90 56 60
        E 120 80 61 00
        E 0 80 62 00
        E 0 80 55 00
        E 0 80 56 00
        E 0 90 61 60
        E 0 90 62 60
        E 120 80 61 00
        E 0 80 62 00
        E 0 90 62 60
        E 0 90 56 60
        E 0 90 4a 60
        E 0 90 3e 60
        E 120 80 62 00
        E 0 80 56 00
        E 0 80 4a 00
        E 0 90 62 60
        E 0 80 3e 00
        E 120 80 62 00
        E 0 90 62 60
        E 0 90 64 60
        E 0 90 56 60
        E 0 90 58 60
        E 120 80 62 00
        E 0 80 64 00
        E 0 80 56 00
        E 0 80 58 00
        E 120 90 62 60
        E 0 90 64 60
        E 0 90 56 60
        E 0 90 58 60
        E 0 90 4a 60
        E 0 90 4b 60
        E 120 80 62 00
        E 0 80 64 00
        E 0 80 56 00
        E 0 80 58 00
        E 0 80 4a 00
        E 0 80 4b 00
        E 240 90 62 60
        E 0 90 64 60
        E 120 80 62 00
        E 0 80 64 00
        E 0 90 61 60
        E 0 90 55 60
        E 0 90 49 60
        E 0 90 3d 60
        E 120 80 61 00
        E 0 80 55 00
        E 0 80 49 00
        E 0 90 61 60
        E 0 80 3d 00
        E 120 80 61 00
        E 0 90 61 60
        E 0 90 62 60
        E 0 90 55 60
        E 0 90 56 60
        E 120 80 61 00
        E 0 80 62 00
        E 0 80 55 00
        E 0 80 56 00
        E 0 90 61 60
        E 0 90 62 60
        E 120 80 61 00
        E 0 80 62 00
        E 0 90 61 60
        E 0 90 55 60
        E 0 90 49 60
        E 120 80 61 00
        E 0 80 55 00
        E 0 80 49 00
        E 0 90 61 60
        E 120 80 61 00
        E 0 90 61 60
        E 0 90 62 60
        E 0 90 55 60
        E 0 90 56 60
        E 120 80 61 00
        E 0 80 62 00
        E 0 80 55 00
        E 0 80 56 00
        E 0 90 61 60
        E 0 90 62 60
        E 120 80 61 00
        E 0 80 62 00
        E 0 90 62 60
        E 0 90 64 60
        E 0 90 56 60
        E 0 90 58 60
        E 0 90 4a 60
        E 0 90 4b 60
        E 0 90 40 60
        E 120 80 4a 00
        E 0 80 4b 00
        E 0 80 40 00
        E 240 80 62 00
        E 0 80 64 00
        E 0 80 56 00
        E 0 80 58 00
        E 120 90 62 60
        E 0 90 64 60
        E 0 90 56 60
        E 0 90 58 60
        E 0 90 4a 60
        E 0 90 4b 60
        E 0 90 40 60
        E 120 80 62 00
        E 0 80 64 00
        E 0 80 56 00
        E 0 80 58 00
        E 0 80 4a 00
        E 0 80 4b 00
        E 0 80 40 00
        E 240 90 62 60
        E 0 90 64 60
        E 0 90 56 60
        E 0 90 58 60
        E 120 80 62 00
        E 0 80 64 00
        E 0 80 56 00
        E 0 80 58 00
        E 120 90 62 60
        E 0 90 64 60
        E 120 80 62 00
        E 0 80 64 00
        E 0 90 62 60
        E 0 90 64 60
        E 0 90 56 60
        E 0 90 58 60
        E 0 90 4a 60
        E 0 90 4b 60
        E 120 80 62 00
        E 0 80 64 00
        E 0 80 56 00
        E 0 80 58 00
        E 0 80 4a 00
        E 0 80 4b 00
        E 120 90 62 60
        E 0 90 64 60
        E 0 90 56 60
        E 0 90 58 60
        E 0 90 4a 60
        E 0 90 4b 60
        E 120 80 62 00
        E 0 80 64 00
        E 0 80 56 00
        E 0 80 58 00
        E 0 80 4a 00
        E 0 80 4b 00
        E 0 90 62 60
        E 0 90 64 60
        E 120 80 62 00
        E 0 80 64 00
        E 120 90 61 60
        E 120 80 61 00
        E 0 90 61 60
        E 0 90 62 60
        E 0 90 55 60
        E 0 90 56 60
        E 0 90 48 60
        E 0 90 4a 60
        E 0 90 3d 60
        E 120 80 48 00
        E 0 80 4a 00
        E 0 80 3d 00
        E 240 80 61 00
        E 0 80 62 00
        E 0 80 55 00
        E 0 80 56 00
        E 120 90 61 60
        E 0 90 62 60
        E 0 90 55 60
        E 0 90 56 60
        E 0 90 48 60
        E 0 90 4a 60
        E 120 80 61 00
        E 0 80 62 00
        E 0 80 55 00
        E 0 80 56 00
        E 0 80 48 00
        E 0 80 4a 00
        E 240 90 61 60
        E 0 90 63 60
        E 120 80 61 00
        E 0 80 63 00
        E 0 90 61 60
        E 0 90 63 60
        E 0 90 55 60
        E 0 90 57 60
        E 0 90 49 60
        E 0 90 4a 60
        E 0 90 3e 60
        E 120 80 61 00
        E 0 80 63 00
        E 0 80 55 00
        E 0 80 57 00
        E 0 80 49 00
        E 0 80 4a 00
        E 0 90 61 60
        E 0 90 63 60
        E 0 80 3e 00
        E 120 80 61 00
        E 0 80 63 00
        E 0 90 61 60
        E 0 90 63 60
        E 0 90 55 60
        E 0 90 57 60
        E 0 90 49 60
        E 0 90 4a 60
        E 120 80 61 00
        E 0 80 63 00
        E 0 80 55 00
        E 0 80 57 00
        E 0 80 49 00
        E 0 80 4a 00
        E 120 90 61 60
        E 0 90 63 60
        E 0 90 55 60
        E 0 90 57 60
        E 0 90 49 60
        E 0 90 4a 60
        E 120 80 61 00
        E 0 80 63 00
        E 0 80 55 00
        E 0 80 57 00
        E 0 80 49 00
        E 0 80 4a 00
        E 0 90 61 60
        E 0 90 63 60
        E 120 80 61 00
        E 0 80 63 00
        E 120 90 62 60
        E 120 80 62 00
        E 0 90 62 60
        E 0 90 64 60
        E 0 90 56 60
        E 0 90 58 60
        E 0 90 4a 60
        E 0 90 4b 60
        E 0 90 40 60
        E 120 80 4a 00
        E 0 80 4b 00
        E 0 80 40 00
        E 240 80 62 00
        E 0 80 64 00
        E 0 80 56 00
        E 0 80 58 00
        E 120 90 62 60
        E 0 90 64 60
        E 0 90 56 60
        E 0 90 58 60
        E 0 90 4a 60
        E 0 90 4b 60
        E 0 90 40 60
        E 120 80 62 00
        E 0 80 64 00
        E 0 80 56 00
        E 0 80 58 00
        E 0 80 4a 00
        E 0 80 4b 00
        E 0 80 40 00
        E 240 90 62 60
        E 0 90 64 60
        E 0 90 56 60
        E 0 90 58 60
        E 120 80 62 00
        E 0 80 64 00
        E 0 80 56 00
        E 0 80 58 00
        E 120 90 62 60
        E 0 90 64 60
        E 120 80 62 00
        E 0 80 64 00
        E 0 90 62 60
        E 0 90 64 60
        E 0 90 56 60
        E 0 90 58 60
        E 0 90 4a 60
        E 0 90 4b 60
        E 120 80 62 00
        E 0 80 64 00
        E 0 80 56 00
        E 0 80 58 00
        E 0 80 4a 00
        E 0 80 4b 00
        E 120 90 62 60
        E 0 90 64 60
        E 0 90 56 60
        E 0 90 58 60
        E 0 90 4a 60
        E 0 90 4b 60
        E 120 80 62 00
        E 0 80 64 00
        E 0 80 56 00
        E 0 80 58 00
        E 0 80 4a 00
        E 0 80 4b 00
        E 0 90 62 60
        E 0 90 64 60
        E 120 80 62 00
        E 0 80 64 00
        E 120 90 61 60
        E 120 80 61 00
        E 0 90 61 60
        E 0 90 62 60
        E 0 90 74 60
        E 0 90 55 60
        E 0 90 56 60
        E 0 90 48 60
        E 0 90 4a 60
        E 0 90 3d 60
        E 120 80 48 00
        E 0 80 4a 00
        E 0 80 3d 00
        E 240 80 61 00
        E 0 80 62 00
        E 0 80 55 00
        E 0 80 56 00
        E 120 90 61 60
        E 0 90 62 60
        E 0 90 55 60
        E 0 90 56 60
        E 0 90 48 60
        E 0 90 4a 60
        E 120 80 61 00
        E 0 80 62 00
        E 0 80 55 00
        E 0 80 56 00
        E 0 80 48 00
        E 0 80 4a 00
        E 240 90 61 60
        E 0 90 63 60
        E 120 80 61 00
        E 0 80 63 00
        E 0 90 61 60
        E 0 90 63 60
        E 0 90 55 60
        E 0 90 57 60
        E 0 90 49 60
        E 0 90 4a 60
        E 0 90 3e 60
        E 120 80 61 00
        E 0 80 63 00
        E 0 80 55 00
        E 0 80 57 00
        E 0 80 49 00
        E 0 80 4a 00
        E 0 90 61 60
        E 0 90 63 60
        E 0 80 3e 00
        E 120 80 61 00
        E 0 80 63 00
        E 0 90 61 60
        E 0 90 63 60
        E 0 90 55 60
        E 0 90 57 60
        E 0 90 49 60
        E 0 90 4a 60
        E 120 80 61 00
        E 0 80 63 00
        E 0 80 55 00
        E 0 80 57 00
        E 0 80 49 00
        E 0 80 4a 00
        E 120 90 61 60
        E 0 90 63 60
        E 0 90 55 60
        E 0 90 57 60
        E 0 90 49 60
        E 0 90 4a 60
        E 120 80 61 00
        E 0 80 63 00
        E 0 80 55 00
        E 0 80 57 00
        E 0 80 49 00
        E 0 80 4a 00
        E 0 90 61 60
        E 0 90 63 60
        E 120 80 61 00
        E 0 80 63 00
        E 120 90 62 60
        E 120 80 62 00
        E 0 90 62 60
        E 0 90 64 60
        E 0 90 56 60
        E 0 90 58 60
        E 0 90 4a 60
        E 0 90 4b 60
        E 0 90 40 60
        E 120 80 74 00
        E 0 80 4a 00
        E 0 80 4b 00
        E 0 80 40 00
        E 240 80 62 00
        E 0 80 64 00
        E 0 80 56 00
        E 0 80 58 00
        E 120 90 62 60
        E 0 90 64 60
        E 0 90 56 60
        E 0 90 58 60
        E 0 90 4a 60
        E 0 90 4b 60
        E 0 90 40 60
        E 120 80 62 00
        E 0 80 64 00
        E 0 80 56 00
        E 0 80 58 00
        E 0 80 4a 00
        E 0 80 4b 00
        E 0 80 40 00
        E 240 90 62 60
        E 0 90 64 60
        E 0 90 56 60
        E 0 90 58 60
        E 120 80 62 00
        E 0 80 64 00
        E 0 80 56 00
        E 0 80 58 00
        E 120 90 62 60
        E 0 90 64 60
        E 120 80 62 00
        E 0 80 64 00
        E 0 90 62 60
        E 0 90 64 60
        E 0 90 56 60
        E 0 90 58 60
        E 0 90 4a 60
        E 0 90 4b 60
        E 120 80 62 00
        E 0 80 64 00
        E 0 80 56 00
        E 0 80 58 00
        E 0 80 4a 00
        E 0 80 4b 00
        E 120 90 62 60
        E 0 90 64 60
        E 0 90 56 60
        E 0 90 58 60
        E 0 90 4a 60
        E 0 90 4b 60
        E 120 80 62 00
        E 0 80 64 00
        E 0 80 56 00
        E 0 80 58 00
        E 0 80 4a 00
        E 0 80 4b 00
        E 0 90 62 60
        E 0 90 64 60
        E 120 80 62 00
        E 0 80 64 00
        E 120 90 61 60
        E 120 80 61 00
        E 0 90 61 60
        E 0 90 62 60
        E 0 90 55 60
        E 0 90 56 60
        E 0 90 48 60
        E 0 90 4a 60
        E 0 90 3d 60
        E 120 80 48 00
        E 0 80 4a 00
        E 0 80 3d 00
        E 240 80 61 00
        E 0 80 62 00
        E 0 80 55 00
        E 0 80 56 00
        E 120 90 61 60
        E 0 90 62 60
        E 0 90 55 60
        E 0 90 56 60
        E 0 90 48 60
        E 0 90 4a 60
        E 120 80 61 00
        E 0 80 62 00
        E 0 80 55 00
        E 0 80 56 00
        E 0 80 48 00
        E 0 80 4a 00
        E 240 90 61 60
        E 0 90 63 60
        E 120 80 61 00
        E 0 80 63 00
        E 0 90 61 60
        E 0 90 63 60
        E 0 90 55 60
        E 0 90 57 60
        E 0 90 49 60
        E 0 90 4a 60
        E 0 90 3e 60
        E 120 80 61 00
        E 0 80 63 00
        E 0 80 55 00
        E 0 80 57 00
        E 0 80 49 00
        E 0 80 4a 00
        E 0 90 61 60
        E 0 90 63 60
        E 0 80 3e 00
        E 120 80 61 00
        E 0 80 63 00
        E 0 90 61 60
        E 0 90 63 60
        E 0 90 55 60
        E 0 90 57 60
        E 0 90 49 60
        E 0 90 4a 60
        E 120 80 61 00
        E 0 80 63 00
        E 0 80 55 00
        E 0 80 57 00
        E 0 80 49 00
        E 0 80 4a 00
        E 120 90 61 60
        E 0 90 63 60
        E 0 90 55 60
        E 0 90 57 60
        E 0 90 49 60
        E 0 90 4a 60
        E 120 80 61 00
        E 0 80 63 00
        E 0 80 55 00
        E 0 80 57 00
        E 0 80 49 00
        E 0 80 4a 00
        E 0 90 61 60
        E 0 90 63 60
        E 120 80 61 00
        E 0 80 63 00
        E 120 90 62 60
        E 120 80 62 00
        E 0 90 62 60
        E 0 90 64 60
        E 0 90 56 60
        E 0 90 58 60
        E 0 90 4a 60
        E 0 90 4b 60
        E 0 90 40 60
        E 120 80 4a 00
        E 0 80 4b 00
        E 0 80 40 00
        E 240 80 62 00
        E 0 80 64 00
        E 0 80 56 00
        E 0 80 58 00
        E 120 90 62 60
        E 0 90 64 60
        E 0 90 56 60
        E 0 90 58 60
        E 0 90 4a 60
        E 0 90 4b 60
        E 0 90 40 60
        E 120 80 62 00
        E 0 80 64 00
        E 0 80 56 00
        E 0 80 58 00
        E 0 80 4a 00
        E 0 80 4b 00
        E 0 80 40 00
        E 240 90 62 60
        E 0 90 64 60
        E 0 90 56 60
        E 0 90 58 60
        E 120 80 62 00
        E 0 80 64 00
        E 0 80 56 00
        E 0 80 58 00
        E 120 90 62 60
        E 0 90 64 60
        E 120 80 62 00
        E 0 80 64 00
        E 0 90 62 60
        E 0 90 64 60
        E 0 90 56 60
        E 0 90 58 60
        E 0 90 4a 60
        E 0 90 4b 60
        E 120 80 62 00
        E 0 80 64 00
        E 0 80 56 00
        E 0 80 58 00
        E 0 80 4a 00
        E 0 80 4b 00
        E 120 90 62 60
        E 0 90 64 60
        E 0 90 56 60
        E 0 90 58 60
        E 0 90 4a 60
        E 0 90 4b 60
        E 120 80 62 00
        E 0 80 64 00
        E 0 80 56 00
        E 0 80 58 00
        E 0 80 4a 00
        E 0 80 4b 00
        E 0 90 62 60
        E 0 90 64 60
        E 120 80 62 00
        E 0 80 64 00
        E 120 90 61 60
        E 120 80 61 00
        E 0 90 61 60
        E 0 90 62 60
        E 0 90 55 60
        E 0 90 56 60
        E 0 90 48 60
        E 0 90 4a 60
        E 0 90 3d 60
        E 120 80 48 00
        E 0 80 4a 00
        E 0 80 3d 00
        E 240 80 61 00
        E 0 80 62 00
        E 0 80 55 00
        E 0 80 56 00
        E 120 90 61 60
        E 0 90 62 60
        E 0 90 55 60
        E 0 90 56 60
        E 0 90 48 60
        E 0 90 4a 60
        E 120 80 61 00
        E 0 80 62 00
        E 0 80 55 00
        E 0 80 56 00
        E 0 80 48 00
        E 0 80 4a 00
        E 240 90 61 60
        E 0 90 63 60
        E 120 80 61 00
        E 0 80 63 00
        E 0 90 61 60
        E 0 90 63 60
        E 0 90 55 60
        E 0 90 57 60
        E 0 90 49 60
        E 0 90 4a 60
        E 0 90 3e 60
        E 120 80 61 00
        E 0 80 63 00
        E 0 80 55 00
        E 0 80 57 00
        E 0 80 49 00
        E 0 80 4a 00
        E 0 90 61 60
        E 0 90 63 60
        E 0 80 3e 00
        E 120 80 61 00
        E 0 80 63 00
        E 0 90 61 60
        E 0 90 63 60
        E 0 90 55 60
        E 0 90 57 60
        E 0 90 49 60
        E 0 90 4a 60
        E 120 80 61 00
        E 0 80 63 00
        E 0 80 55 00
        E 0 80 57 00
        E 0 80 49 00
        E 0 80 4a 00
        E 120 90 61 60
        E 0 90 63 60
        E 0 90 55 60
        E 0 90 57 60
        E 0 90 49 60
        E 0 90 4a 60
        E 120 80 61 00
        E 0 80 63 00
        E 0 80 55 00
        E 0 80 57 00
        E 0 80 49 00
        E 0 80 4a 00
        E 0 90 61 60
        E 0 90 63 60
        E 120 80 61 00
        E 0 80 63 00
        <X 240 0
          /wFbcGxheV0=
        >
        E 0 90 62 60
        E 0 90 64 60
        E 0 90 56 60
        E 0 90 58 60
        E 0 90 4a 60
        E 0 90 4b 60
        E 0 90 40 60
        E 120 80 62 00
        E 0 80 64 00
        E 0 80 56 00
        E 0 80 58 00
        E 0 80 4a 00
        E 0 80 4b 00
        E 0 80 40 00
        E 120 90 62 60
        E 0 90 64 60
        E 0 90 56 60
        E 0 90 58 60
        E 120 80 62 00
        E 0 80 64 00
        E 0 80 56 00
        E 0 80 58 00
        E 120 90 63 60
        E 0 90 57 60
        E 0 90 4b 60
        E 120 80 63 00
        E 0 80 57 00
        E 0 80 4b 00
        E 0 90 63 60
        E 120 80 63 00
        E 0 90 63 60
        E 0 90 57 60
        E 120 80 63 00
        E 0 80 57 00
        E 0 90 62 60
        E 120 80 62 00
        E 0 90 62 60
        E 0 90 56 60
        E 0 90 4a 60
        E 0 90 3e 60
        E 120 80 62 00
        E 0 80 56 00
        E 0 80 4a 00
        E 0 90 62 60
        E 0 80 3e 00
        E 120 80 62 00
        E 0 90 61 60
        E 0 90 55 60
        E 120 80 61 00
        E 0 80 55 00
        E 0 90 61 60
        E 120 80 61 00
        E 0 90 61 60
        E 0 90 55 60
        E 0 90 49 60
        E 120 80 61 00
        E 0 80 55 00
        E 0 80 49 00
        E 0 90 61 60
        E 120 80 61 00
        E 0 90 61 60
        E 0 90 55 60
        E 120 80 61 00
        E 0 80 55 00
        E 0 90 61 60
        E 120 80 61 00
        E 0 90 61 60
        E 0 90 62 60
        E 0 90 55 60
        E 0 90 56 60
        E 0 90 48 60
        E 0 90 4a 60
        E 0 90 3d 60
        E 120 80 61 00
        E 0 80 62 00
        E 0 80 55 00
        E 0 80 56 00
        E 0 80 48 00
        E 0 80 4a 00
        E 0 80 3d 00
        E 120 90 61 60
        E 0 90 62 60
        E 0 90 55 60
        E 0 90 56 60
        E 120 80 61 00
        E 0 80 62 00
        E 0 80 55 00
        E 0 80 56 00
        E 120 90 63 60
        E 0 90 57 60
        E 0 90 4b 60
        E 120 80 63 00
        E 0 80 57 00
        E 0 80 4b 00
        E 0 90 63 60
        E 120 80 63 00
        E 0 90 63 60
        E 0 90 57 60
        E 120 80 63 00
        E 0 80 57 00
        E 0 90 62 60
        E 120 80 62 00
        E 0 90 62 60
        E 0 90 56 60
        E 0 90 4a 60
        E 0 90 3e 60
        E 120 80 62 00
        E 0 80 56 00
        E 0 80 4a 00
        E 0 90 62 60
        E 0 80 3e 00
        E 120 80 62 00
        E 0 90 61 60
        E 0 90 55 60
        E 120 80 61 00
        E 0 80 55 00
        E 0 90 61 60
        E 120 80 61 00
        E 0 90 61 60
        E 0 90 55 60
        E 0 90 49 60
        E 120 80 61 00
        E 0 80 55 00
        E 0 80 49 00
        E 0 90 61 60
        E 120 80 61 00
        E 0 90 61 60
        E 0 90 55 60
        E 120 80 61 00
        E 0 80 55 00
        E 0 90 61 60
        E 120 80 61 00
        E 0 90 62 60
        E 0 90 64 60
        E 0 90 56 60
        E 0 90 58 60
        E 0 90 4a 60
        E 0 90 4b 60
        E 0 90 40 60
        E 120 80 62 00
        E 0 80 64 00
        E 0 80 56 00
        E 0 80 58 00
        E 0 80 4a 00
        E 0 80 4b 00
        E 0 80 40 00
        E 120 90 62 60
        E 0 90 64 60
        E 0 90 56 60
        E 0 90 58 60
        E 120 80 62 00
        E 0 80 64 00
        E 0 80 56 00
        E 0 80 58 00
        E 120 90 63 60
        E 0 90 57 60
        E 0 90 4b 60
        E 120 80 63 00
        E 0 80 57 00
        E 0 80 4b 00
        E 0 90 63 60
        E 120 80 63 00
        E 0 90 63 60
        E 0 90 57 60
        E 120 80 63 00
        E 0 80 57 00
        E 0 90 62 60
        E 120 80 62 00
        E 0 90 62 60
        E 0 90 56 60
        E 0 90 4a 60
        E 0 90 3e 60
        E 120 80 62 00
        E 0 80 56 00
        E 0 80 4a 00
        E 0 90 62 60
        E 0 80 3e 00
        E 120 80 62 00
        E 0 90 61 60
        E 0 90 55 60
        E 120 80 61 00
        E 0 80 55 00
        E 0 90 61 60
        E 120 80 61 00
        E 0 90 61 60
        E 0 90 55 60
        E 0 90 49 60
        E 120 80 61 00
        E 0 80 55 00
        E 0 80 49 00
        E 0 90 64 60
        E 120 80 64 00
        E 0 90 63 60
        E 0 90 57 60
        E 120 80 63 00
        E 0 80 57 00
        E 0 90 62 60
        E 120 80 62 00
        E 0 90 61 60
        E 0 90 62 60
        E 0 90 55 60
        E 0 90 56 60
        E 0 90 48 60
        E 0 90 4a 60
        E 0 90 3d 60
        E 120 80 61 00
        E 0 80 62 00
        E 0 80 55 00
        E 0 80 56 00
        E 0 80 48 00
        E 0 80 4a 00
        E 0 80 3d 00
        E 120 90 61 60
        E 0 90 62 60
        E 0 90 55 60
        E 0 90 56 60
        E 120 80 61 00
        E 0 80 62 00
        E 0 80 55 00
        E 0 80 56 00
        E 120 90 63 60
        E 0 90 57 60
        E 0 90 4b 60
        E 120 80 63 00
        E 0 80 57 00
        E 0 80 4b 00
        E 0 90 63 60
        E 120 80 63 00
        E 0 90 63 60
        E 0 90 57 60
        E 120 80 63 00
        E 0 80 57 00
        E 0 90 62 60
        E 120 80 62 00
        E 0 90 62 60
        E 0 90 56 60
        E 0 90 4a 60
        E 0 90 3e 60
        E 120 80 62 00
        E 0 80 56 00
        E 0 80 4a 00
        E 0 90 62 60
        E 0 80 3e 00
        E 120 80 62 00
        E 0 90 60 60
        E 0 90 54 60
        E 120 80 60 00
        E 0 80 54 00
        E 0 90 61 60
        E 120 80 61 00
        E 0 90 60 60
        E 0 90 54 60
        E 0 90 48 60
        E 120 80 48 00
        E 240 80 60 00
        E 0 80 54 00
        E 120 90 61 60
        E 0 90 55 60
        E 0 90 49 60
        E 0 90 3d 60
        E 120 80 61 00
        E 0 80 55 00
        E 0 80 49 00
        E 0 90 61 60
        E 0 80 3d 00
        E 120 80 61 00
        E 0 90 61 60
        E 0 90 55 60
        E 120 80 61 00
        E 0 80 55 00
        E 0 90 61 60
        E 120 80 61 00
        E 0 90 62 60
        E 0 90 56 60
        E 0 90 4a 60
        E 120 80 62 00
        E 0 80 56 00
        E 0 80 4a 00
        E 0 90 62 60
        E 120 80 62 00
        E 0 90 62 60
        E 0 90 56 60
        E 120 80 62 00
        E 0 80 56 00
        E 0 90 62 60
        E 120 80 62 00
        E 0 90 63 60
        E 0 90 57 60
        E 0 90 4b 60
        E 0 90 3f 60
        E 120 80 63 00
        E 0 80 57 00
        E 0 80 4b 00
        E 0 90 63 60
        E 0 80 3f 00
        E 120 80 63 00
        E 0 90 62 60
        E 0 90 56 60
        E 120 80 62 00
        E 0 80 56 00
        E 0 90 62 60
        E 120 80 62 00
        E 0 90 61 60
        E 0 90 55 60
        E 0 90 49 60
        E 120 80 61 00
        E 0 80 55 00
        E 0 80 49 00
        E 0 90 61 60
        E 120 80 61 00
        E 0 90 62 60
        E 0 90 56 60
        E 120 80 62 00
        E 0 80 56 00
        E 0 90 62 60
        E 120 80 62 00
        E 0 90 60 60
        E 0 90 54 60
        E 0 90 48 60
        E 0 90 3c 60
        E 120 80 60 00
        E 0 80 54 00
        E 0 80 48 00
        E 0 90 61 60
        E 0 80 3c 00
        E 120 80 61 00
        E 0 90 61 60
        E 0 90 55 60
        E 120 80 61 00
        E 0 80 55 00
        E 0 90 61 60
        E 120 80 61 00
        E 0 90 60 60
        E 0 90 54 60
        E 0 90 48 60
        E 120 80 60 00
        E 0 80 54 00
        E 0 80 48 00
        E 0 90 60 60
        E 120 80 60 00
        E 0 90 60 60
        E 0 90 54 60
        E 120 80 60 00
        E 0 80 54 00
        E 0 90 60 60
        E 120 80 60 00
        E 0 90 61 60
        E 0 90 65 60
        E 0 90 55 60
        E 0 90 49 60
        E 0 90 3d 60
        E 480 80 49 00
        E 0 80 3d 00
        E 120 80 61 00
        E 0 80 55 00
        E 120 90 60 60
        E 0 90 54 60
        E 120 80 60 00
        E 0 80 54 00
        E 120 80 65 00
        E 0 90 61 60
        E 0 90 55 60
        E 0 90 49 60
        E 0 90 3d 60
        E 120 80 61 00
        E 0 80 55 00
        E 0 80 49 00
        E 0 90 61 60
        E 0 80 3d 00
        E 120 80 61 00
        E 0 90 61 60
        E 0 90 55 60
        E 120 80 61 00
        E 0 80 55 00
        E 0 90 61 60
        E 120 80 61 00
        E 0 90 62 60
        E 0 90 56 60
        E 0 90 4a 60
        E 120 80 62 00
        E 0 80 56 00
        E 0 80 4a 00
        E 0 90 62 60
        E 120 80 62 00
        E 0 90 62 60
        E 0 90 56 60
        E 120 80 62 00
        E 0 80 56 00
        E 0 90 62 60
        E 120 80 62 00
        E 0 90 63 60
        E 0 90 57 60
        E 0 90 4b 60
        E 0 90 3f 60
        E 120 80 63 00
        E 0 80 57 00
        E 0 80 4b 00
        E 0 90 63 60
        E 0 80 3f 00
        E 120 80 63 00
        E 0 90 62 60
        E 0 90 56 60
        E 120 80 62 00
        E 0 80 56 00
        E 0 90 62 60
        E 120 80 62 00
        E 0 90 61 60
        E 0 90 55 60
        E 0 90 49 60
        E 120 80 61 00
        E 0 80 55 00
        E 0 80 49 00
        E 0 90 61 60
        E 120 80 61 00
        E 0 90 62 60
        E 0 90 56 60
        E 120 80 62 00
        E 0 80 56 00
        E 0 90 62 60
        E 120 80 62 00
        E 0 90 60 60
        E 0 90 74 60
        E 0 90 54 60
        E 0 90 48 60
        E 0 90 3c 60
        E 120 80 60 00
        E 0 80 54 00
        E 0 80 48 00
        E 0 90 60 60
        E 0 80 3c 00
        E 120 80 60 00
        E 0 90 61 60
        E 0 90 55 60
        E 120 80 61 00
        E 0 80 55 00
        E 0 90 61 60
        E 120 80 61 00
        E 0 90 62 60
        E 0 90 56 60
        E 0 90 4a 60
        E 120 80 62 00
        E 0 80 56 00
        E 0 80 4a 00
        E 0 90 62 60
        E 120 80 62 00
        E 0 90 61 60
        E 0 90 55 60
        E 120 80 61 00
        E 0 80 55 00
        E 0 90 61 60
        E 120 80 61 00
        E 0 90 62 60
        E 0 90 56 60
        E 0 90 4a 60
        E 0 90 3e 60
        E 120 80 62 00
        E 0 80 56 00
        E 0 80 4a 00
        E 0 90 62 60
        E 0 80 3e 00
        E 120 80 62 00
        E 0 90 63 60
        E 0 90 57 60
        E 120 80 63 00
        E 0 80 57 00
        E 0 90 63 60
        E 120 80 63 00
        E 0 90 64 60
        E 0 90 58 60
        E 0 90 4c 60
        E 120 80 4c 00
        E 240 80 64 00
        E 0 80 58 00
        E 120 90 61 60
        E 0 90 55 60
        E 0 90 49 60
        E 0 90 3d 60
        E 120 80 74 00
        E 0 80 61 00
        E 0 80 55 00
        E 0 80 49 00
        E 0 80 3d 00
        E 120 90 62 60
        E 0 90 56 60
        E 120 80 62 00
        E 0 80 56 00
        E 120 90 64 60
        E 0 90 58 60
        E 0 90 4c 60
        E 120 80 64 00
        E 0 80 58 00
        E 0 80 4c 00
        E 120 90 62 60
        E 0 90 56 60
        E 120 80 62 00
        E 0 80 56 00
        E 120 90 61 60
        E 0 90 55 60
        E 0 90 49 60
        E 0 90 3d 60
        E 120 80 61 00
        E 0 80 55 00
        E 0 80 49 00
        E 0 80 3d 00
        E 120 90 62 60
        E 0 90 56 60
        E 120 80 62 00
        E 0 80 56 00
        E 120 90 63 60
        E 0 90 57 60
        E 0 90 4b 60
        E 120 80 63 00
        E 0 80 57 00
        E 0 80 4b 00
        E 120 90 62 60
        E 0 90 56 60
        E 120 80 62 00
        E 0 80 56 00
        E 120 90 60 60
        E 0 90 54 60
        E 0 90 48 60
        E 0 90 3c 60
        E 120 80 60 00
        E 0 80 54 00
        E 0 80 48 00
        E 0 80 3c 00
        E 120 90 62 60
        E 0 90 56 60
        E 120 80 62 00
        E 0 80 56 00
        E 120 90 63 60
        E 0 90 57 60
        E 0 90 4b 60
        E 120 80 63 00
        E 0 80 57 00
        E 0 80 4b 00
        E 120 90 62 60
        E 0 90 56 60
        E 120 80 62 00
        E 0 80 56 00
        E 120 90 61 60
        E 0 90 55 60
        E 0 90 49 60
        E 0 90 3d 60
        E 120 80 61 00
        E 0 80 55 00
        E 0 80 49 00
        E 0 80 3d 00
        E 120 90 62 60
        E 0 90 56 60
        E 120 80 62 00
        E 0 80 56 00
        E 120 90 63 60
        E 0 90 57 60
        E 0 90 4b 60
        E 120 80 63 00
        E 0 80 57 00
        E 0 80 4b 00
        E 120 90 62 60
        E 0 90 56 60
        E 120 80 62 00
        E 0 80 56 00
        E 120 90 61 60
        E 0 90 55 60
        E 0 90 49 60
        E 0 90 3d 60
        E 120 80 61 00
        E 0 80 55 00
        E 0 80 49 00
        E 0 80 3d 00
        E 120 90 62 60
        E 0 90 56 60
        E 120 80 62 00
        E 0 80 56 00
        E 120 90 64 60
        E 0 90 58 60
        E 0 90 4c 60
        E 120 80 64 00
        E 0 80 58 00
        E 0 80 4c 00
        E 120 90 62 60
        E 0 90 56 60
        E 120 80 62 00
        E 0 80 56 00
        E 120 90 61 60
        E 0 90 55 60
        E 0 90 49 60
        E 0 90 3d 60
        E 120 80 61 00
        E 0 80 55 00
        E 0 80 49 00
        E 0 80 3d 00
        E 120 90 62 60
        E 0 90 56 60
        E 120 80 62 00
        E 0 80 56 00
        E 120 90 63 60
        E 0 90 57 60
        E 0 90 4b 60
        E 120 80 63 00
        E 0 80 57 00
        E 0 80 4b 00
        E 120 90 62 60
        E 0 90 56 60
        E 120 80 62 00
        E 0 80 56 00
        E 120 90 60 60
        E 0 90 54 60
        E 0 90 48 60
        E 0 90 3c 60
        E 120 80 60 00
        E 0 80 54 00
        E 0 80 48 00
        E 0 80 3c 00
        E 120 90 62 60
        E 0 90 56 60
        E 120 80 62 00
        E 0 80 56 00
        E 120 90 63 60
        E 0 90 57 60
        E 0 90 4b 60
        E 120 80 63 00
        E 0 80 57 00
        E 0 80 4b 00
        E 120 90 62 60
        E 0 90 56 60
        E 120 80 62 00
        E 0 80 56 00
        E 120 90 61 60
        E 0 90 55 60
        E 0 90 49 60
        E 0 90 3d 60
        E 120 80 61 00
        E 0 80 55 00
        E 0 80 49 00
        E 0 80 3d 00
        E 120 90 62 60
        E 0 90 56 60
        E 120 80 62 00
        E 0 80 56 00
        E 120 90 63 60
        E 0 90 57 60
        E 0 90 4b 60
        E 120 80 63 00
        E 0 80 57 00
        E 0 80 4b 00
        E 120 90 64 60
        E 0 90 58 60
        E 120 80 64 00
        E 0 80 58 00
        E 0 90 64 60
        <X 120 0
          /wFbaW50ZW5zZV0=
        >
        E 0 80 64 00
        E 0 90 62 60
        E 0 90 56 60
        E 0 90 4a 60
        E 0 90 3e 60
        E 120 80 62 00
        E 0 80 56 00
        E 0 80 4a 00
        E 0 90 62 60
        E 0 80 3e 00
        E 120 80 62 00
        E 0 90 62 60
        E 0 90 64 60
        E 0 90 56 60
        E 0 90 58 60
        E 120 80 62 00
        E 0 80 64 00
        E 0 80 56 00
        E 0 80 58 00
        E 120 90 62 60
        E 0 90 64 60
        E 0 90 56 60
        E 0 90 58 60
        E 0 90 4a 60
        E 0 90 4b 60
        E 120 80 62 00
        E 0 80 64 00
        E 0 80 56 00
        E 0 80 58 00
        E 0 80 4a 00
        E 0 80 4b 00
        E 240 90 62 60
        E 0 90 64 60
        E 120 80 62 00
        E 0 80 64 00
        E 0 90 61 60
        E 0 90 55 60
        E 0 90 49 60
        E 0 90 3d 60
        E 120 80 61 00
        E 0 80 55 00
        E 0 80 49 00
        E 0 90 61 60
        E 0 90 62 60
        E 0 80 3d 00
        E 120 80 61 00
        E 0 80 62 00
        E 0 90 61 60
        E 0 90 62 60
        E 0 90 55 60
        E 0 90 56 60
        E 120 80 61 00
        E 0 80 62 00
        E 0 80 55 00
        E 0 80 56 00
        E 0 90 61 60
        E 0 90 62 60
        E 120 80 61 00
        E 0 80 62 00
        E 0 90 61 60
        E 0 90 62 60
        E 0 90 55 60
        E 0 90 56 60
        E 0 90 48 60
        E 0 90 4a 60
        E 120 80 61 00
        E 0 80 62 00
        E 0 80 55 00
        E 0 80 56 00
        E 0 80 48 00
        E 0 80 4a 00
        E 0 90 61 60
        E 0 90 62 60
        E 120 80 61 00
        E 0 80 62 00
        E 0 90 61 60
        E 0 90 62 60
        E 0 90 55 60
        E 0 90 56 60
        E 120 80 61 00
        E 0 80 62 00
        E 0 80 55 00
        E 0 80 56 00
        E 0 90 61 60
        E 0 90 62 60
        E 120 80 61 00
        E 0 80 62 00
        E 0 90 62 60
        E 0 90 56 60
        E 0 90 4a 60
        E 0 90 3e 60
        E 120 80 62 00
        E 0 80 56 00
        E 0 80 4a 00
        E 0 90 62 60
        E 0 80 3e 00
        E 120 80 62 00
        E 0 90 62 60
        E 0 90 64 60
        E 0 90 56 60
        E 0 90 58 60
        E 120 80 62 00
        E 0 80 64 00
        E 0 80 56 00
        E 0 80 58 00
        E 120 90 62 60
        E 0 90 64 60
        E 0 90 56 60
        E 0 90 58 60
        E 0 90 4a 60
        E 0 90 4b 60
        E 120 80 62 00
        E 0 80 64 00
        E 0 80 56 00
        E 0 80 58 00
        E 0 80 4a 00
        E 0 80 4b 00
        E 240 90 62 60
        E 0 90 64 60
        E 120 80 62 00
        E 0 80 64 00
        E 0 90 61 60
        E 0 90 55 60
        E 0 90 49 60
        E 0 90 3d 60
        E 120 80 61 00
        E 0 80 55 00
        E 0 80 49 00
        E 0 90 61 60
        E 0 80 3d 00
        E 120 80 61 00
        E 0 90 61 60
        E 0 90 62 60
        E 0 90 55 60
        E 0 90 56 60
        E 120 80 61 00
        E 0 80 62 00
        E 0 80 55 00
        E 0 80 56 00
        E 0 90 61 60
        E 0 90 62 60
        E 120 80 61 00
        E 0 80 62 00
        E 0 90 61 60
        E 0 90 55 60
        E 0 90 49 60
        E 120 80 61 00
        E 0 80 55 00
        E 0 80 49 00
        E 0 90 61 60
        E 120 80 61 00
        E 0 90 61 60
        E 0 90 62 60
        E 0 90 55 60
        E 0 90 56 60
        E 120 80 61 00
        E 0 80 62 00
        E 0 80 55 00
        E 0 80 56 00
        E 0 90 61 60
        E 0 90 62 60
        E 120 80 61 00
        E 0 80 62 00
        E 0 90 62 60
        E 0 90 56 60
        E 0 90 4a 60
        E 0 90 3e 60
        E 120 80 62 00
        E 0 80 56 00
        E 0 80 4a 00
        E 0 90 62 60
        E 0 80 3e 00
        E 120 80 62 00
        E 0 90 62 60
        E 0 90 64 60
        E 0 90 56 60
        E 0 90 58 60
        E 120 80 62 00
        E 0 80 64 00
        E 0 80 56 00
        E 0 80 58 00
        E 120 90 62 60
        E 0 90 64 60
        E 0 90 56 60
        E 0 90 58 60
        E 0 90 4a 60
        E 0 90 4b 60
        E 120 80 62 00
        E 0 80 64 00
        E 0 80 56 00
        E 0 80 58 00
        E 0 80 4a 00
        E 0 80 4b 00
        E 240 90 62 60
        E 0 90 64 60
        E 120 80 62 00
        E 0 80 64 00
        E 0 90 61 60
        E 0 90 55 60
        E 0 90 49 60
        E 0 90 3d 60
        E 120 80 61 00
        E 0 80 55 00
        E 0 80 49 00
        E 0 90 61 60
        E 0 90 62 60
        E 0 80 3d 00
        E 120 80 61 00
        E 0 80 62 00
        E 0 90 61 60
        E 0 90 62 60
        E 0 90 55 60
        E 0 90 56 60
        E 120 80 61 00
        E 0 80 62 00
        E 0 80 55 00
        E 0 80 56 00
        E 0 90 61 60
        E 0 90 62 60
        E 120 80 61 00
        E 0 80 62 00
        E 0 90 61 60
        E 0 90 62 60
        E 0 90 55 60
        E 0 90 56 60
        E 0 90 48 60
        E 0 90 4a 60
        E 120 80 61 00
        E 0 80 62 00
        E 0 80 55 00
        E 0 80 56 00
        E 0 80 48 00
        E 0 80 4a 00
        E 0 90 61 60
        E 0 90 62 60
        E 120 80 61 00
        E 0 80 62 00
        E 0 90 61 60
        E 0 90 62 60
        E 0 90 55 60
        E 0 90 56 60
        E 120 80 61 00
        E 0 80 62 00
        E 0 80 55 00
        E 0 80 56 00
        E 0 90 61 60
        E 0 90 62 60
        E 120 80 61 00
        E 0 80 62 00
        E 0 90 62 60
        E 0 90 74 60
        E 0 90 56 60
        E 0 90 4a 60
        E 0 90 3e 60
        E 120 80 62 00
        E 0 80 56 00
        E 0 80 4a 00
        E 0 90 62 60
        E 0 80 3e 00
        E 120 80 62 00
        E 0 90 62 60
        E 0 90 64 60
        E 0 90 56 60
        E 0 90 58 60
        E 120 80 62 00
        E 0 80 64 00
        E 0 80 56 00
        E 0 80 58 00
        E 120 90 62 60
        E 0 90 64 60
        E 0 90 56 60
        E 0 90 58 60
        E 0 90 4a 60
        E 0 90 4b 60
        E 120 80 62 00
        E 0 80 64 00
        E 0 80 56 00
        E 0 80 58 00
        E 0 80 4a 00
        E 0 80 4b 00
        E 240 90 62 60
        E 0 90 64 60
        E 120 80 62 00
        E 0 80 64 00
        E 0 90 61 60
        E 0 90 55 60
        E 0 90 49 60
        E 0 90 3d 60
        E 120 80 61 00
        E 0 80 55 00
        E 0 80 49 00
        E 0 90 61 60
        E 0 80 3d 00
        E 120 80 61 00
        E 0 90 61 60
        E 0 90 62 60
        E 0 90 55 60
        E 0 90 56 60
        E 120 80 61 00
        E 0 80 62 00
        E 0 80 55 00
        E 0 80 56 00
        E 0 90 61 60
        E 0 90 62 60
        E 120 80 61 00
        E 0 80 62 00
        E 0 90 61 60
        E 0 90 55 60
        E 0 90 49 60
        E 120 80 61 00
        E 0 80 55 00
        E 0 80 49 00
        E 0 90 61 60
        E 120 80 61 00
        E 0 90 61 60
        E 0 90 62 60
        E 0 90 55 60
        E 0 90 56 60
        E 120 80 61 00
        E 0 80 62 00
        E 0 80 55 00
        E 0 80 56 00
        E 0 90 61 60
        E 0 90 62 60
        E 120 80 61 00
        E 0 80 62 00
        E 0 90 62 60
        E 0 90 64 60
        E 0 90 56 60
        E 0 90 58 60
        E 0 90 4a 60
        E 0 90 4b 60
        E 0 90 40 60
        E 120 80 74 00
        E 0 80 4a 00
        E 0 80 4b 00
        E 0 80 40 00
        E 240 80 62 00
        E 0 80 64 00
        E 0 80 56 00
        E 0 80 58 00
        E 120 90 62 60
        E 0 90 64 60
        E 0 90 56 60
        E 0 90 58 60
        E 0 90 4a 60
        E 0 90 4b 60
        E 0 90 40 60
        E 120 80 62 00
        E 0 80 64 00
        E 0 80 56 00
        E 0 80 58 00
        E 0 80 4a 00
        E 0 80 4b 00
        E 0 80 40 00
        E 240 90 62 60
        E 0 90 64 60
        E 0 90 56 60
        E 0 90 58 60
        E 120 80 62 00
        E 0 80 64 00
        E 0 80 56 00
        E 0 80 58 00
        E 120 90 62 60
        E 0 90 64 60
        E 120 80 62 00
        E 0 80 64 00
        E 0 90 62 60
        E 0 90 64 60
        E 0 90 56 60
        E 0 90 58 60
        E 0 90 4a 60
        E 0 90 4b 60
        E 120 80 62 00
        E 0 80 64 00
        E 0 80 56 00
        E 0 80 58 00
        E 0 80 4a 00
        E 0 80 4b 00
        E 120 90 62 60
        E 0 90 64 60
        E 0 90 56 60
        E 0 90 58 60
        E 0 90 4a 60
        E 0 90 4b 60
        E 120 80 62 00
        E 0 80 64 00
        E 0 80 56 00
        E 0 80 58 00
        E 0 80 4a 00
        E 0 80 4b 00
        E 0 90 62 60
        E 0 90 64 60
        E 120 80 62 00
        E 0 80 64 00
        E 120 90 61 60
        E 120 80 61 00
        E 0 90 61 60
        E 0 90 62 60
        E 0 90 55 60
        E 0 90 56 60
        E 0 90 48 60
        E 0 90 4a 60
        E 0 90 3d 60
        E 120 80 48 00
        E 0 80 4a 00
        E 0 80 3d 00
        E 240 80 61 00
        E 0 80 62 00
        E 0 80 55 00
        E 0 80 56 00
        E 120 90 61 60
        E 0 90 62 60
        E 0 90 55 60
        E 0 90 56 60
        E 0 90 48 60
        E 0 90 4a 60
        E 120 80 61 00
        E 0 80 62 00
        E 0 80 55 00
        E 0 80 56 00
        E 0 80 48 00
        E 0 80 4a 00
        E 240 90 61 60
        E 0 90 63 60
        E 120 80 61 00
        E 0 80 63 00
        E 0 90 61 60
        E 0 90 63 60
        E 0 90 55 60
        E 0 90 57 60
        E 0 90 49 60
        E 0 90 4a 60
        E 0 90 3e 60
        E 120 80 61 00
        E 0 80 63 00
        E 0 80 55 00
        E 0 80 57 00
        E 0 80 49 00
        E 0 80 4a 00
        E 0 90 61 60
        E 0 90 63 60
        E 0 80 3e 00
        E 120 80 61 00
        E 0 80 63 00
        E 0 90 61 60
        E 0 90 63 60
        E 0 90 55 60
        E 0 90 57 60
        E 0 90 49 60
        E 0 90 4a 60
        E 120 80 61 00
        E 0 80 63 00
        E 0 80 55 00
        E 0 80 57 00
        E 0 80 49 00
        E 0 80 4a 00
        E 120 90 61 60
        E 0 90 63 60
        E 0 90 55 60
        E 0 90 57 60
        E 0 90 49 60
        E 0 90 4a 60
        E 120 80 61 00
        E 0 80 63 00
        E 0 80 55 00
        E 0 80 57 00
        E 0 80 49 00
        E 0 80 4a 00
        E 0 90 61 60
        E 0 90 63 60
        E 120 80 61 00
        E 0 80 63 00
        E 120 90 62 60
        E 120 80 62 00
        E 0 90 62 60
        E 0 90 64 60
        E 0 90 56 60
        E 0 90 58 60
        E 0 90 4a 60
        E 0 90 4b 60
        E 0 90 40 60
        E 120 80 4a 00
        E 0 80 4b 00
        E 0 80 40 00
        E 240 80 62 00
        E 0 80 64 00
        E 0 80 56 00
        E 0 80 58 00
        E 120 90 62 60
        E 0 90 64 60
        E 0 90 56 60
        E 0 90 58 60
        E 0 90 4a 60
        E 0 90 4b 60
        E 0 90 40 60
        E 120 80 62 00
        E 0 80 64 00
        E 0 80 56 00
        E 0 80 58 00
        E 0 80 4a 00
        E 0 80 4b 00
        E 0 80 40 00
        E 240 90 62 60
        E 0 90 64 60
        E 0 90 56 60
        E 0 90 58 60
        E 120 80 62 00
        E 0 80 64 00
        E 0 80 56 00
        E 0 80 58 00
        E 120 90 62 60
        E 0 90 64 60
        E 120 80 62 00
        E 0 80 64 00
        E 0 90 62 60
        E 0 90 64 60
        E 0 90 56 60
        E 0 90 58 60
        E 0 90 4a 60
        E 0 90 4b 60
        E 120 80 62 00
        E 0 80 64 00
        E 0 80 56 00
        E 0 80 58 00
        E 0 80 4a 00
        E 0 80 4b 00
        E 120 90 62 60
        E 0 90 64 60
        E 0 90 56 60
        E 0 90 58 60
        E 0 90 4a 60
        E 0 90 4b 60
        E 120 80 62 00
        E 0 80 64 00
        E 0 80 56 00
        E 0 80 58 00
        E 0 80 4a 00
        E 0 80 4b 00
        E 0 90 62 60
        E 0 90 64 60
        E 120 80 62 00
        E 0 80 64 00
        E 120 90 61 60
        E 120 80 61 00
        E 0 90 61 60
        E 0 90 62 60
        E 0 90 55 60
        E 0 90 56 60
        E 0 90 48 60
        E 0 90 4a 60
        E 0 90 3d 60
        E 120 80 48 00
        E 0 80 4a 00
        E 0 80 3d 00
        E 240 80 61 00
        E 0 80 62 00
        E 0 80 55 00
        E 0 80 56 00
        E 120 90 61 60
        E 0 90 62 60
        E 0 90 55 60
        E 0 90 56 60
        E 0 90 48 60
        E 0 90 4a 60
        E 120 80 61 00
        E 0 80 62 00
        E 0 80 55 00
        E 0 80 56 00
        E 0 80 48 00
        E 0 80 4a 00
        E 240 90 61 60
        E 0 90 63 60
        E 120 80 61 00
        E 0 80 63 00
        E 0 90 61 60
        E 0 90 63 60
        E 0 90 55 60
        E 0 90 57 60
        E 0 90 49 60
        E 0 90 4a 60
        E 0 90 3e 60
        E 120 80 61 00
        E 0 80 63 00
        E 0 80 55 00
        E 0 80 57 00
        E 0 80 49 00
        E 0 80 4a 00
        E 0 90 61 60
        E 0 90 63 60
        E 0 80 3e 00
        E 120 80 61 00
        E 0 80 63 00
        E 0 90 61 60
        E 0 90 63 60
        E 0 90 55 60
        E 0 90 57 60
        E 0 90 49 60
        E 0 90 4a 60
        E 120 80 61 00
        E 0 80 63 00
        E 0 80 55 00
        E 0 80 57 00
        E 0 80 49 00
        E 0 80 4a 00
        E 120 90 61 60
        E 0 90 63 60
        E 0 90 55 60
        E 0 90 57 60
        E 0 90 49 60
        E 0 90 4a 60
        E 120 80 61 00
        E 0 80 63 00
        E 0 80 55 00
        E 0 80 57 00
        E 0 80 49 00
        E 0 80 4a 00
        E 0 90 61 60
        E 0 90 63 60
        E 120 80 61 00
        E 0 80 63 00
        E 120 90 62 60
        E 120 80 62 00
        E 0 90 62 60
        E 0 90 64 60
        E 0 90 56 60
        E 0 90 58 60
        E 0 90 4a 60
        E 0 90 4b 60
        E 0 90 40 60
        E 120 80 4a 00
        E 0 80 4b 00
        E 0 80 40 00
        E 240 80 62 00
        E 0 80 64 00
        E 0 80 56 00
        E 0 80 58 00
        E 120 90 62 60
        E 0 90 64 60
        E 0 90 56 60
        E 0 90 58 60
        E 0 90 4a 60
        E 0 90 4b 60
        E 0 90 40 60
        E 120 80 62 00
        E 0 80 64 00
        E 0 80 56 00
        E 0 80 58 00
        E 0 80 4a 00
        E 0 80 4b 00
        E 0 80 40 00
        E 240 90 62 60
        E 0 90 64 60
        E 0 90 56 60
        E 0 90 58 60
        E 120 80 62 00
        E 0 80 64 00
        E 0 80 56 00
        E 0 80 58 00
        E 120 90 62 60
        E 0 90 64 60
        E 120 80 62 00
        E 0 80 64 00
        E 0 90 62 60
        E 0 90 64 60
        E 0 90 56 60
        E 0 90 58 60
        E 0 90 4a 60
        E 0 90 4b 60
        E 120 80 62 00
        E 0 80 64 00
        E 0 80 56 00
        E 0 80 58 00
        E 0 80 4a 00
        E 0 80 4b 00
        E 120 90 62 60
        E 0 90 64 60
        E 0 90 56 60
        E 0 90 58 60
        E 0 90 4a 60
        E 0 90 4b 60
        E 120 80 62 00
        E 0 80 64 00
        E 0 80 56 00
        E 0 80 58 00
        E 0 80 4a 00
        E 0 80 4b 00
        E 0 90 62 60
        E 0 90 64 60
        E 120 80 62 00
        E 0 80 64 00
        E 120 90 61 60
        E 120 80 61 00
        E 0 90 61 60
        E 0 90 62 60
        E 0 90 55 60
        E 0 90 56 60
        E 0 90 48 60
        E 0 90 4a 60
        E 0 90 3d 60
        E 120 80 48 00
        E 0 80 4a 00
        E 0 80 3d 00
        E 240 80 61 00
        E 0 80 62 00
        E 0 80 55 00
        E 0 80 56 00
        E 120 90 61 60
        E 0 90 62 60
        E 0 90 55 60
        E 0 90 56 60
        E 0 90 48 60
        E 0 90 4a 60
        E 120 80 61 00
        E 0 80 62 00
        E 0 80 55 00
        E 0 80 56 00
        E 0 80 48 00
        E 0 80 4a 00
        E 240 90 61 60
        E 0 90 63 60
        E 120 80 61 00
        E 0 80 63 00
        E 0 90 61 60
        E 0 90 63 60
        E 0 90 55 60
        E 0 90 57 60
        E 0 90 49 60
        E 0 90 4a 60
        E 0 90 3e 60
        E 120 80 61 00
        E 0 80 63 00
        E 0 80 55 00
        E 0 80 57 00
        E 0 80 49 00
        E 0 80 4a 00
        E 0 90 61 60
        E 0 90 63 60
        E 0 80 3e 00
        E 120 80 61 00
        E 0 80 63 00
        E 0 90 61 60
        E 0 90 63 60
        E 0 90 55 60
        E 0 90 57 60
        E 0 90 49 60
        E 0 90 4a 60
        E 120 80 61 00
        E 0 80 63 00
        E 0 80 55 00
        E 0 80 57 00
        E 0 80 49 00
        E 0 80 4a 00
        E 120 90 61 60
        E 0 90 63 60
        E 0 90 55 60
        E 0 90 57 60
        E 0 90 49 60
        E 0 90 4a 60
        E 120 80 61 00
        E 0 80 63 00
        E 0 80 55 00
        E 0 80 57 00
        E 0 80 49 00
        E 0 80 4a 00
        E 0 90 61 60
        E 0 90 63 60
        E 120 80 61 00
        E 0 80 63 00
        E 120 90 62 60
        E 120 80 62 00
        E 0 90 62 60
        E 0 90 64 60
        E 0 90 56 60
        E 0 90 58 60
        E 0 90 4a 60
        E 0 90 4b 60
        E 0 90 40 60
        E 120 80 4a 00
        E 0 80 4b 00
        E 0 80 40 00
        E 240 80 62 00
        E 0 80 64 00
        E 0 80 56 00
        E 0 80 58 00
        e 120 90 62 60
        e 0 90 64 60
        e 0 90 56 60
        e 0 90 58 60
        e 0 90 4a 60
        e 0 90 4b 60
        e 0 90 40 60
        e 120 80 62 00
        e 0 80 64 00
        e 0 80 56 00
        e 0 80 58 00
        e 0 80 4a 00
        e 0 80 4b 00
        e 0 80 40 00
        e 240 90 62 60
        e 0 90 64 60
        e 0 90 56 60
        e 0 90 58 60
        e 120 80 62 00
        e 0 80 64 00
        e 0 80 56 00
        e 0 80 58 00
        e 120 90 62 60
        e 0 90 64 60
        e 120 80 62 00
        e 0 80 64 00
        e 0 90 62 60
        e 0 90 64 60
        e 0 90 56 60
        e 0 90 58 60
        e 0 90 4a 60
        e 0 90 4b 60
        e 120 80 62 00
        e 0 80 64 00
        e 0 80 56 00
        e 0 80 58 00
        e 0 80 4a 00
        e 0 80 4b 00
        e 120 90 62 60
        e 0 90 64 60
        e 0 90 56 60
        e 0 90 58 60
        e 0 90 4a 60
        e 0 90 4b 60
        e 120 80 62 00
        e 0 80 64 00
        e 0 80 56 00
        e 0 80 58 00
        e 0 80 4a 00
        e 0 80 4b 00
        e 0 90 62 60
        e 0 90 64 60
        e 120 80 62 00
        e 0 80 64 00
        E 120 90 74 60
        e 0 90 61 60
        e 120 80 61 00
        e 0 90 61 60
        e 0 90 62 60
        e 0 90 55 60
        e 0 90 56 60
        e 0 90 48 60
        e 0 90 4a 60
        e 0 90 3d 60
        e 120 80 61 00
        e 0 80 62 00
        e 0 80 55 00
        e 0 80 56 00
        e 0 80 48 00
        e 0 80 4a 00
        e 0 80 3d 00
        e 120 90 61 60
        e 0 90 62 60
        e 0 90 55 60
        e 0 90 56 60
        e 0 90 48 60
        e 0 90 4a 60
        e 120 80 61 00
        e 0 80 62 00
        e 0 80 55 00
        e 0 80 56 00
        e 0 80 48 00
        e 0 80 4a 00
        e 120 90 61 60
        e 0 90 62 60
        e 0 90 55 60
        e 0 90 56 60
        e 0 90 48 60
        e 0 90 4a 60
        e 120 80 61 00
        e 0 80 62 00
        e 0 80 55 00
        e 0 80 56 00
        e 0 80 48 00
        e 0 80 4a 00
        e 0 90 61 60
        e 0 90 62 60
        e 120 80 61 00
        e 0 80 62 00
        e 120 90 62 60
        e 120 80 62 00
        e 0 90 62 60
        e 0 90 64 60
        e 0 90 56 60
        e 0 90 58 60
        e 0 90 4a 60
        e 0 90 4b 60
        e 0 90 40 60
        e 120 80 4a 00
        e 0 80 4b 00
        e 0 80 40 00
        e 240 80 62 00
        e 0 80 64 00
        e 0 80 56 00
        e 0 80 58 00
        e 120 90 62 60
        e 0 90 63 60
        e 0 90 56 60
        e 0 90 57 60
        e 0 90 49 60
        e 0 90 4b 60
        e 120 80 62 00
        e 0 80 63 00
        e 0 80 56 00
        e 0 80 57 00
        e 0 80 49 00
        e 0 80 4b 00
        e 240 90 62 60
        e 120 80 62 00
        e 0 90 62 60
        e 0 90 64 60
        e 0 90 56 60
        e 0 90 58 60
        e 0 90 4a 60
        e 0 90 4b 60
        e 0 90 40 60
        e 120 80 4a 00
        e 0 80 4b 00
        e 0 80 40 00
        e 240 80 62 00
        e 0 80 64 00
        e 0 80 56 00
        e 0 80 58 00
        E 120 80 74 00
        e 0 90 62 60
        e 0 90 64 60
        e 0 90 56 60
        e 0 90 58 60
        e 0 90 4a 60
        e 0 90 4b 60
        e 0 90 40 60
        e 120 80 62 00
        e 0 80 64 00
        e 0 80 56 00
        e 0 80 58 00
        e 0 80 4a 00
        e 0 80 4b 00
        e 0 80 40 00
        e 240 90 62 60
        e 0 90 64 60
        e 0 90 56 60
        e 0 90 58 60
        e 120 80 62 00
        e 0 80 64 00
        e 0 80 56 00
        e 0 80 58 00
        e 120 90 62 60
        e 0 90 64 60
        e 120 80 62 00
        e 0 80 64 00
        e 0 90 62 60
        e 0 90 64 60
        e 0 90 56 60
        e 0 90 58 60
        e 0 90 4a 60
        e 0 90 4b 60
        e 120 80 62 00
        e 0 80 64 00
        e 0 80 56 00
        e 0 80 58 00
        e 0 80 4a 00
        e 0 80 4b 00
        e 120 90 62 60
        e 0 90 64 60
        e 0 90 56 60
        e 0 90 58 60
        e 0 90 4a 60
        e 0 90 4b 60
        e 120 80 62 00
        e 0 80 64 00
        e 0 80 56 00
        e 0 80 58 00
        e 0 80 4a 00
        e 0 80 4b 00
        e 0 90 62 60
        e 0 90 64 60
        e 120 80 62 00
        e 0 80 64 00
        e 120 90 60 60
        e 120 80 60 00
        e 0 90 60 60
        e 0 90 61 60
        e 0 90 54 60
        e 0 90 55 60
        e 0 90 48 60
        e 0 90 49 60
        e 0 90 3c 60
        e 120 80 48 00
        e 0 80 49 00
        e 0 80 3c 00
        e 240 80 60 00
        e 0 80 61 00
        e 0 80 54 00
        e 0 80 55 00
        e 120 90 60 60
        e 0 90 61 60
        e 0 90 54 60
        e 0 90 55 60
        e 0 90 48 60
        e 0 90 49 60
        e 0 90 3c 60
        e 120 80 60 00
        e 0 80 61 00
        e 0 80 54 00
        e 0 80 55 00
        e 0 80 48 00
        e 0 80 49 00
        e 0 80 3c 00
        e 240 90 60 60
        e 0 90 61 60
        e 120 80 60 00
        e 0 80 61 00
        e 0 90 60 60
        e 0 90 61 60
        e 0 90 54 60
        e 0 90 55 60
        e 0 90 48 60
        e 0 90 49 60
        e 0 90 3c 60
        e 120 80 60 00
        e 0 80 61 00
        e 0 80 54 00
        e 0 80 55 00
        e 0 80 48 00
        e 0 80 49 00
        e 0 80 3c 00
        e 120 90 60 60
        e 0 90 61 60
        e 0 90 54 60
        e 0 90 55 60
        e 0 90 48 60
        e 0 90 49 60
        e 120 80 60 00
        e 0 80 61 00
        e 0 80 54 00
        e 0 80 55 00
        e 0 80 48 00
        e 0 80 49 00
        e 120 90 60 60
        e 0 90 61 60
        e 0 90 54 60
        e 0 90 55 60
        e 0 90 48 60
        e 0 90 49 60
        e 120 80 60 00
        e 0 80 61 00
        e 0 80 54 00
        e 0 80 55 00
        e 0 80 48 00
        e 0 80 49 00
        e 0 90 60 60
        e 0 90 61 60
        e 120 80 60 00
        e 0 80 61 00
        e 0 90 60 60
        e 0 90 61 60
        e 0 90 54 60
        e 0 90 55 60
        e 120 80 60 00
        e 0 80 61 00
        e 0 80 54 00
        e 0 80 55 00
        e 0 90 62 60
        e 120 80 62 00
        e 0 90 62 60
        e 0 90 63 60
        e 0 90 56 60
        e 0 90 57 60
        e 0 90 49 60
        e 0 90 4b 60
        e 0 90 3f 60
        e 120 80 49 00
        e 0 80 4b 00
        e 0 80 3f 00
        e 240 80 62 00
        e 0 80 63 00
        e 0 80 56 00
        e 0 80 57 00
        e 120 90 62 60
        e 0 90 63 60
        e 0 90 56 60
        e 0 90 57 60
        e 0 90 49 60
        e 0 90 4b 60
        e 0 90 3f 60
        e 120 80 62 00
        e 0 80 63 00
        e 0 80 56 00
        e 0 80 57 00
        e 0 80 49 00
        e 0 80 4b 00
        e 0 80 3f 00
        e 240 90 62 60
        e 0 90 63 60
        e 0 90 56 60
        e 0 90 57 60
        e 120 80 62 00
        e 0 80 63 00
        e 0 80 56 00
        e 0 80 57 00
        e 120 90 62 60
        e 0 90 63 60
        e 120 80 62 00
        e 0 80 63 00
        e 0 90 62 60
        e 0 90 63 60
        e 0 90 56 60
        e 0 90 57 60
        e 0 90 49 60
        e 0 90 4b 60
        e 120 80 62 00
        e 0 80 63 00
        e 0 80 56 00
        e 0 80 57 00
        e 0 80 49 00
        e 0 80 4b 00
        e 120 90 62 60
        e 0 90 63 60
        e 0 90 56 60
        e 0 90 57 60
        e 0 90 49 60
        e 0 90 4b 60
        e 120 80 62 00
        e 0 80 63 00
        e 0 80 56 00
        e 0 80 57 00
        e 0 80 49 00
        e 0 80 4b 00
        e 0 90 62 60
        e 0 90 63 60
        e 120 80 62 00
        e 0 80 63 00
        e 0 90 62 60
        e 0 90 63 60
        e 0 90 56 60
        e 0 90 57 60
        e 120 80 62 00
        e 0 80 63 00
        e 0 80 56 00
        e 0 80 57 00
        e 0 90 61 60
        e 120 80 61 00
        e 0 90 61 60
        e 0 90 63 60
        e 0 90 55 60
        e 0 90 57 60
        e 0 90 49 60
        e 0 90 4a 60
        e 0 90 3e 60
        e 120 80 49 00
        e 0 80 4a 00
        e 0 80 3e 00
        e 240 80 61 00
        e 0 80 63 00
        e 0 80 55 00
        e 0 80 57 00
        e 120 90 61 60
        e 0 90 63 60
        e 0 90 55 60
        e 0 90 57 60
        e 0 90 49 60
        e 0 90 4a 60
        e 0 90 3e 60
        e 120 80 61 00
        e 0 80 63 00
        e 0 80 55 00
        e 0 80 57 00
        e 0 80 49 00
        e 0 80 4a 00
        e 0 80 3e 00
        e 240 90 61 60
        e 0 90 63 60
        e 120 80 61 00
        e 0 80 63 00
        e 0 90 61 60
        e 0 90 63 60
        e 0 90 55 60
        e 0 90 57 60
        e 0 90 49 60
        e 0 90 4a 60
        e 0 90 3e 60
        e 120 80 61 00
        e 0 80 63 00
        e 0 80 55 00
        e 0 80 57 00
        e 0 80 49 00
        e 0 80 4a 00
        e 0 80 3e 00
        e 120 90 61 60
        e 0 90 63 60
        e 0 90 55 60
        e 0 90 57 60
        e 0 90 49 60
        e 0 90 4a 60
        e 120 80 61 00
        e 0 80 63 00
        e 0 80 55 00
        e 0 80 57 00
        e 0 80 49 00
        e 0 80 4a 00
        e 120 90 61 60
        e 0 90 63 60
        e 0 90 55 60
        e 0 90 57 60
        e 0 90 49 60
        e 0 90 4a 60
        e 120 80 61 00
        e 0 80 63 00
        e 0 80 55 00
        e 0 80 57 00
        e 0 80 49 00
        e 0 80 4a 00
        e 0 90 61 60
        e 0 90 63 60
        e 120 80 61 00
        e 0 80 63 00
        e 0 90 61 60
        e 0 90 63 60
        e 0 90 55 60
        e 0 90 57 60
        e 120 80 61 00
        e 0 80 63 00
        e 0 80 55 00
        e 0 80 57 00
        e 0 90 62 60
        e 120 80 62 00
        e 0 90 62 60
        e 0 90 64 60
        e 0 90 56 60
        e 0 90 58 60
        e 0 90 4a 60
        e 0 90 4b 60
        e 0 90 40 60
        e 120 80 4a 00
        e 0 80 4b 00
        e 0 80 40 00
        e 240 80 62 00
        e 0 80 64 00
        e 0 80 56 00
        e 0 80 58 00
        e 120 90 62 60
        e 0 90 64 60
        e 0 90 56 60
        e 0 90 58 60
        e 0 90 4a 60
        e 0 90 4b 60
        e 0 90 40 60
        e 120 80 62 00
        e 0 80 64 00
        e 0 80 56 00
        e 0 80 58 00
        e 0 80 4a 00
        e 0 80 4b 00
        e 0 80 40 00
        e 240 90 62 60
        e 0 90 64 60
        e 0 90 56 60
        e 0 90 58 60
        e 120 80 62 00
        e 0 80 64 00
        e 0 80 56 00
        e 0 80 58 00
        e 120 90 62 60
        e 0 90 64 60
        e 120 80 62 00
        e 0 80 64 00
        e 0 90 62 60
        e 0 90 64 60
        e 0 90 56 60
        e 0 90 58 60
        e 0 90 4a 60
        e 0 90 4b 60
        e 120 80 62 00
        e 0 80 64 00
        e 0 80 56 00
        e 0 80 58 00
        e 0 80 4a 00
        e 0 80 4b 00
        e 120 90 62 60
        e 0 90 64 60
        e 0 90 56 60
        e 0 90 58 60
        e 0 90 4a 60
        e 0 90 4b 60
        e 120 80 62 00
        e 0 80 64 00
        e 0 80 56 00
        e 0 80 58 00
        e 0 80 4a 00
        e 0 80 4b 00
        e 0 90 62 60
        e 0 90 64 60
        e 120 80 62 00
        e 0 80 64 00
        e 0 90 62 60
        e 0 90 64 60
        e 0 90 56 60
        e 0 90 58 60
        e 120 80 62 00
        e 0 80 64 00
        e 0 80 56 00
        e 0 80 58 00
        e 0 90 60 60
        e 120 80 60 00
        e 0 90 60 60
        e 0 90 61 60
        e 0 90 54 60
        e 0 90 55 60
        e 0 90 48 60
        e 0 90 49 60
        e 0 90 3c 60
        e 120 80 48 00
        e 0 80 49 00
        e 0 80 3c 00
        e 240 80 60 00
        e 0 80 61 00
        e 0 80 54 00
        e 0 80 55 00
        e 120 90 60 60
        e 0 90 61 60
        e 0 90 54 60
        e 0 90 55 60
        e 0 90 48 60
        e 0 90 49 60
        e 0 90 3c 60
        e 120 80 60 00
        e 0 80 61 00
        e 0 80 54 00
        e 0 80 55 00
        e 0 80 48 00
        e 0 80 49 00
        e 0 80 3c 00
        e 240 90 60 60
        e 0 90 61 60
        e 120 80 60 00
        e 0 80 61 00
        e 0 90 60 60
        e 0 90 61 60
        e 0 90 54 60
        e 0 90 55 60
        e 0 90 48 60
        e 0 90 49 60
        e 0 90 3c 60
        e 120 80 60 00
        e 0 80 61 00
        e 0 80 54 00
        e 0 80 55 00
        e 0 80 48 00
        e 0 80 49 00
        e 0 80 3c 00
        e 120 90 60 60
        e 0 90 61 60
        e 0 90 54 60
        e 0 90 55 60
        e 0 90 48 60
        e 0 90 49 60
        e 120 80 60 00
        e 0 80 61 00
        e 0 80 54 00
        e 0 80 55 00
        e 0 80 48 00
        e 0 80 49 00
        e 120 90 60 60
        e 0 90 61 60
        e 0 90 54 60
        e 0 90 55 60
        e 0 90 48 60
        e 0 90 49 60
        e 120 80 60 00
        e 0 80 61 00
        e 0 80 54 00
        e 0 80 55 00
        e 0 80 48 00
        e 0 80 49 00
        e 0 90 60 60
        e 0 90 61 60
        e 120 80 60 00
        e 0 80 61 00
        e 0 90 60 60
        e 0 90 61 60
        e 0 90 54 60
        e 0 90 55 60
        e 120 80 60 00
        e 0 80 61 00
        e 0 80 54 00
        e 0 80 55 00
        e 0 90 62 60
        e 120 80 62 00
        e 0 90 62 60
        e 0 90 63 60
        e 0 90 56 60
        e 0 90 57 60
        e 0 90 49 60
        e 0 90 4b 60
        e 0 90 3f 60
        e 120 80 49 00
        e 0 80 4b 00
        e 0 80 3f 00
        e 240 80 62 00
        e 0 80 63 00
        e 0 80 56 00
        e 0 80 57 00
        e 120 90 62 60
        e 0 90 63 60
        e 0 90 56 60
        e 0 90 57 60
        e 0 90 49 60
        e 0 90 4b 60
        e 0 90 3f 60
        e 120 80 62 00
        e 0 80 63 00
        e 0 80 56 00
        e 0 80 57 00
        e 0 80 49 00
        e 0 80 4b 00
        e 0 80 3f 00
        e 240 90 62 60
        e 0 90 63 60
        e 0 90 56 60
        e 0 90 57 60
        e 120 80 62 00
        e 0 80 63 00
        e 0 80 56 00
        e 0 80 57 00
        e 120 90 62 60
        e 0 90 63 60
        e 120 80 62 00
        e 0 80 63 00
        e 0 90 62 60
        e 0 90 63 60
        e 0 90 56 60
        e 0 90 57 60
        e 0 90 49 60
        e 0 90 4b 60
        e 120 80 62 00
        e 0 80 63 00
        e 0 80 56 00
        e 0 80 57 00
        e 0 80 49 00
        e 0 80 4b 00
        e 120 90 62 60
        e 0 90 63 60
        e 0 90 56 60
        e 0 90 57 60
        e 0 90 49 60
        e 0 90 4b 60
        e 120 80 62 00
        e 0 80 63 00
        e 0 80 56 00
        e 0 80 57 00
        e 0 80 49 00
        e 0 80 4b 00
        e 0 90 62 60
        e 0 90 63 60
        e 120 80 62 00
        e 0 80 63 00
        e 0 90 62 60
        e 0 90 63 60
        e 0 90 56 60
        e 0 90 57 60
        e 120 80 62 00
        e 0 80 63 00
        e 0 80 56 00
        e 0 80 57 00
        e 0 90 61 60
        e 120 80 61 00
        e 0 90 61 60
        e 0 90 63 60
        e 0 90 55 60
        e 0 90 57 60
        e 0 90 49 60
        e 0 90 4a 60
        e 0 90 3e 60
        e 120 80 49 00
        e 0 80 4a 00
        e 0 80 3e 00
        e 240 80 61 00
        e 0 80 63 00
        e 0 80 55 00
        e 0 80 57 00
        e 120 90 61 60
        e 0 90 63 60
        e 0 90 55 60
        e 0 90 57 60
        e 0 90 49 60
        e 0 90 4a 60
        e 0 90 3e 60
        e 120 80 61 00
        e 0 80 63 00
        e 0 80 55 00
        e 0 80 57 00
        e 0 80 49 00
        e 0 80 4a 00
        e 0 80 3e 00
        e 240 90 61 60
        e 0 90 63 60
        e 120 80 61 00
        e 0 80 63 00
        e 0 90 61 60
        e 0 90 63 60
        e 0 90 55 60
        e 0 90 57 60
        e 0 90 49 60
        e 0 90 4a 60
        e 0 90 3e 60
        e 120 80 61 00
        e 0 80 63 00
        e 0 80 55 00
        e 0 80 57 00
        e 0 80 49 00
        e 0 80 4a 00
        e 0 80 3e 00
        e 120 90 61 60
        e 0 90 63 60
        e 0 90 55 60
        e 0 90 57 60
        e 0 90 49 60
        e 0 90 4a 60
        e 120 80 61 00
        e 0 80 63 00
        e 0 80 55 00
        e 0 80 57 00
        e 0 80 49 00
        e 0 80 4a 00
        e 120 90 61 60
        e 0 90 63 60
        e 0 90 55 60
        e 0 90 57 60
        e 0 90 49 60
        e 0 90 4a 60
        e 120 80 61 00
        e 0 80 63 00
        e 0 80 55 00
        e 0 80 57 00
        e 0 80 49 00
        e 0 80 4a 00
        e 0 90 61 60
        e 0 90 63 60
        e 120 80 61 00
        e 0 80 63 00
        e 0 90 61 60
        e 0 90 63 60
        e 0 90 55 60
        e 0 90 57 60
        e 120 80 61 00
        e 0 80 63 00
        e 0 80 55 00
        e 0 80 57 00
        e 0 90 62 60
        e 120 80 62 00
        e 0 90 62 60
        e 0 90 64 60
        e 0 90 56 60
        e 0 90 58 60
        e 0 90 4a 60
        e 0 90 4b 60
        e 0 90 40 60
        e 120 80 4a 00
        e 0 80 4b 00
        e 0 80 40 00
        e 240 80 62 00
        e 0 80 64 00
        e 0 80 56 00
        e 0 80 58 00
        e 120 90 62 60
        e 0 90 64 60
        e 0 90 56 60
        e 0 90 58 60
        e 0 90 4a 60
        e 0 90 4b 60
        e 0 90 40 60
        e 120 80 62 00
        e 0 80 64 00
        e 0 80 56 00
        e 0 80 58 00
        e 0 80 4a 00
        e 0 80 4b 00
        e 0 80 40 00
        e 240 90 62 60
        e 0 90 64 60
        e 0 90 56 60
        e 0 90 58 60
        e 120 80 62 00
        e 0 80 64 00
        e 0 80 56 00
        e 0 80 58 00
        e 120 90 62 60
        e 0 90 64 60
        e 120 80 62 00
        e 0 80 64 00
        e 0 90 62 60
        e 0 90 64 60
        e 0 90 56 60
        e 0 90 58 60
        e 0 90 4a 60
        e 0 90 4b 60
        e 120 80 62 00
        e 0 80 64 00
        e 0 80 56 00
        e 0 80 58 00
        e 0 80 4a 00
        e 0 80 4b 00
        e 120 90 62 60
        e 0 90 64 60
        e 0 90 56 60
        e 0 90 58 60
        e 0 90 4a 60
        e 0 90 4b 60
        e 120 80 62 00
        e 0 80 64 00
        e 0 80 56 00
        e 0 80 58 00
        e 0 80 4a 00
        e 0 80 4b 00
        e 0 90 62 60
        e 0 90 64 60
        e 120 80 62 00
        e 0 80 64 00
        e 0 90 62 60
        e 0 90 64 60
        e 0 90 56 60
        e 0 90 58 60
        e 120 80 62 00
        e 0 80 64 00
        e 0 80 56 00
        e 0 80 58 00
        e 0 90 60 60
        e 120 80 60 00
        e 0 90 60 60
        e 0 90 61 60
        e 0 90 54 60
        e 0 90 55 60
        e 0 90 48 60
        e 0 90 49 60
        e 0 90 3c 60
        e 120 80 48 00
        e 0 80 49 00
        e 0 80 3c 00
        e 240 80 60 00
        e 0 80 61 00
        e 0 80 54 00
        e 0 80 55 00
        e 120 90 60 60
        e 0 90 61 60
        e 0 90 54 60
        e 0 90 55 60
        e 0 90 48 60
        e 0 90 49 60
        e 0 90 3c 60
        e 120 80 60 00
        e 0 80 61 00
        e 0 80 54 00
        e 0 80 55 00
        e 0 80 48 00
        e 0 80 49 00
        e 0 80 3c 00
        e 240 90 60 60
        e 0 90 61 60
        e 120 80 60 00
        e 0 80 61 00
        e 0 90 60 60
        e 0 90 61 60
        e 0 90 54 60
        e 0 90 55 60
        e 0 90 48 60
        e 0 90 49 60
        e 0 90 3c 60
        e 120 80 60 00
        e 0 80 61 00
        e 0 80 54 00
        e 0 80 55 00
        e 0 80 48 00
        e 0 80 49 00
        e 0 80 3c 00
        e 120 90 60 60
        e 0 90 61 60
        e 0 90 54 60
        e 0 90 55 60
        e 0 90 48 60
        e 0 90 49 60
        e 120 80 60 00
        e 0 80 61 00
        e 0 80 54 00
        e 0 80 55 00
        e 0 80 48 00
        e 0 80 49 00
        e 120 90 60 60
        e 0 90 61 60
        e 0 90 54 60
        e 0 90 55 60
        e 0 90 48 60
        e 0 90 49 60
        e 120 80 60 00
        e 0 80 61 00
        e 0 80 54 00
        e 0 80 55 00
        e 0 80 48 00
        e 0 80 49 00
        e 0 90 60 60
        e 0 90 61 60
        e 120 80 60 00
        e 0 80 61 00
        e 0 90 60 60
        e 0 90 61 60
        e 0 90 54 60
        e 0 90 55 60
        e 120 80 60 00
        e 0 80 61 00
        e 0 80 54 00
        e 0 80 55 00
        e 0 90 62 60
        e 120 80 62 00
        e 0 90 62 60
        e 0 90 63 60
        e 0 90 56 60
        e 0 90 57 60
        e 0 90 49 60
        e 0 90 4b 60
        e 0 90 3f 60
        e 120 80 49 00
        e 0 80 4b 00
        e 0 80 3f 00
        e 240 80 62 00
        e 0 80 63 00
        e 0 80 56 00
        e 0 80 57 00
        e 120 90 62 60
        e 0 90 63 60
        e 0 90 56 60
        e 0 90 57 60
        e 0 90 49 60
        e 0 90 4b 60
        e 0 90 3f 60
        e 120 80 62 00
        e 0 80 63 00
        e 0 80 56 00
        e 0 80 57 00
        e 0 80 49 00
        e 0 80 4b 00
        e 0 80 3f 00
        e 240 90 62 60
        e 0 90 63 60
        e 0 90 56 60
        e 0 90 57 60
        e 120 80 62 00
        e 0 80 63 00
        e 0 80 56 00
        e 0 80 57 00
        e 120 90 62 60
        e 0 90 63 60
        e 120 80 62 00
        e 0 80 63 00
        e 0 90 62 60
        e 0 90 63 60
        e 0 90 56 60
        e 0 90 57 60
        e 0 90 49 60
        e 0 90 4b 60
        e 120 80 62 00
        e 0 80 63 00
        e 0 80 56 00
        e 0 80 57 00
        e 0 80 49 00
        e 0 80 4b 00
        e 120 90 62 60
        e 0 90 63 60
        e 0 90 56 60
        e 0 90 57 60
        e 0 90 49 60
        e 0 90 4b 60
        e 120 80 62 00
        e 0 80 63 00
        e 0 80 56 00
        e 0 80 57 00
        e 0 80 49 00
        e 0 80 4b 00
        e 0 90 62 60
        e 0 90 63 60
        e 120 80 62 00
        e 0 80 63 00
        e 0 90 62 60
        e 0 90 63 60
        e 0 90 56 60
        e 0 90 57 60
        e 120 80 62 00
        e 0 80 63 00
        e 0 80 56 00
        e 0 80 57 00
        e 0 90 61 60
        e 120 80 61 00
        e 0 90 61 60
        e 0 90 63 60
        e 0 90 55 60
        e 0 90 57 60
        e 0 90 49 60
        e 0 90 4a 60
        e 0 90 3e 60
        e 120 80 49 00
        e 0 80 4a 00
        e 0 80 3e 00
        e 240 80 61 00
        e 0 80 63 00
        e 0 80 55 00
        e 0 80 57 00
        e 120 90 61 60
        e 0 90 63 60
        e 0 90 55 60
        e 0 90 57 60
        e 0 90 49 60
        e 0 90 4a 60
        e 0 90 3e 60
        e 120 80 61 00
        e 0 80 63 00
        e 0 80 55 00
        e 0 80 57 00
        e 0 80 49 00
        e 0 80 4a 00
        e 0 80 3e 00
        e 240 90 61 60
        e 0 90 63 60
        e 120 80 61 00
        e 0 80 63 00
        e 0 90 61 60
        e 0 90 63 60
        e 0 90 55 60
        e 0 90 57 60
        e 0 90 49 60
        e 0 90 4a 60
        e 0 90 3e 60
        e 120 80 61 00
        e 0 80 63 00
        e 0 80 55 00
        e 0 80 57 00
        e 0 80 49 00
        e 0 80 4a 00
        e 0 80 3e 00
        e 120 90 61 60
        e 0 90 63 60
        e 0 90 55 60
        e 0 90 57 60
        e 0 90 49 60
        e 0 90 4a 60
        e 120 80 61 00
        e 0 80 63 00
        e 0 80 55 00
        e 0 80 57 00
        e 0 80 49 00
        e 0 80 4a 00
        e 120 90 61 60
        e 0 90 63 60
        e 0 90 55 60
        e 0 90 57 60
        e 0 90 49 60
        e 0 90 4a 60
        e 120 80 61 00
        e 0 80 63 00
        e 0 80 55 00
        e 0 80 57 00
        e 0 80 49 00
        e 0 80 4a 00
        e 0 90 61 60
        e 0 90 63 60
        e 120 80 61 00
        e 0 80 63 00
        e 0 90 61 60
        e 0 90 63 60
        e 0 90 55 60
        e 0 90 57 60
        e 120 80 61 00
        e 0 80 63 00
        e 0 80 55 00
        e 0 80 57 00
        e 0 90 62 60
        e 120 80 62 00
        e 0 90 62 60
        e 0 90 64 60
        e 0 90 56 60
        e 0 90 58 60
        e 0 90 4a 60
        e 0 90 4b 60
        e 0 90 40 60
        e 120 80 4a 00
        e 0 80 4b 00
        e 0 80 40 00
        e 240 80 62 00
        e 0 80 64 00
        e 0 80 56 00
        e 0 80 58 00
        e 120 90 62 60
        e 0 90 64 60
        e 0 90 56 60
        e 0 90 58 60
        e 0 90 4a 60
        e 0 90 4b 60
        e 0 90 40 60
        e 120 80 62 00
        e 0 80 64 00
        e 0 80 56 00
        e 0 80 58 00
        e 0 80 4a 00
        e 0 80 4b 00
        e 0 80 40 00
        e 240 90 62 60
        e 0 90 64 60
        e 0 90 56 60
        e 0 90 58 60
        e 120 80 62 00
        e 0 80 64 00
        e 0 80 56 00
        e 0 80 58 00
        e 120 90 62 60
        e 0 90 64 60
        e 120 80 62 00
        e 0 80 64 00
        e 0 90 62 60
        e 0 90 64 60
        e 0 90 56 60
        e 0 90 58 60
        e 0 90 4a 60
        e 0 90 4b 60
        e 120 80 62 00
        e 0 80 64 00
        e 0 80 56 00
        e 0 80 58 00
        e 0 80 4a 00
        e 0 80 4b 00
        e 120 90 62 60
        e 0 90 64 60
        e 0 90 56 60
        e 0 90 58 60
        e 0 90 4a 60
        e 0 90 4b 60
        e 120 80 62 00
        e 0 80 64 00
        e 0 80 56 00
        e 0 80 58 00
        e 0 80 4a 00
        e 0 80 4b 00
        e 0 90 62 60
        e 0 90 64 60
        e 120 80 62 00
        e 0 80 64 00
        e 0 90 62 60
        e 0 90 64 60
        e 0 90 56 60
        e 0 90 58 60
        e 120 80 62 00
        e 0 80 64 00
        e 0 80 56 00
        e 0 80 58 00
        e 0 90 60 60
        e 120 80 60 00
        e 0 90 60 60
        e 0 90 61 60
        e 0 90 54 60
        e 0 90 55 60
        e 0 90 48 60
        e 0 90 49 60
        e 0 90 3c 60
        e 120 80 48 00
        e 0 80 49 00
        e 0 80 3c 00
        e 240 80 60 00
        e 0 80 61 00
        e 0 80 54 00
        e 0 80 55 00
        e 120 90 60 60
        e 0 90 61 60
        e 0 90 54 60
        e 0 90 55 60
        e 0 90 48 60
        e 0 90 49 60
        e 0 90 3c 60
        e 120 80 60 00
        e 0 80 61 00
        e 0 80 54 00
        e 0 80 55 00
        e 0 80 48 00
        e 0 80 49 00
        e 0 80 3c 00
        e 240 90 60 60
        e 0 90 61 60
        e 120 80 60 00
        e 0 80 61 00
        e 0 90 60 60
        e 0 90 61 60
        e 0 90 54 60
        e 0 90 55 60
        e 0 90 48 60
        e 0 90 49 60
        e 0 90 3c 60
        e 120 80 60 00
        e 0 80 61 00
        e 0 80 54 00
        e 0 80 55 00
        e 0 80 48 00
        e 0 80 49 00
        e 0 80 3c 00
        e 120 90 60 60
        e 0 90 61 60
        e 0 90 54 60
        e 0 90 55 60
        e 0 90 48 60
        e 0 90 49 60
        e 120 80 60 00
        e 0 80 61 00
        e 0 80 54 00
        e 0 80 55 00
        e 0 80 48 00
        e 0 80 49 00
        e 120 90 60 60
        e 0 90 61 60
        e 0 90 54 60
        e 0 90 55 60
        e 0 90 48 60
        e 0 90 49 60
        e 120 80 60 00
        e 0 80 61 00
        e 0 80 54 00
        e 0 80 55 00
        e 0 80 48 00
        e 0 80 49 00
        e 0 90 60 60
        e 0 90 61 60
        e 120 80 60 00
        e 0 80 61 00
        e 0 90 60 60
        e 0 90 61 60
        e 0 90 54 60
        e 0 90 55 60
        e 120 80 60 00
        e 0 80 61 00
        e 0 80 54 00
        e 0 80 55 00
        e 0 90 62 60
        e 120 80 62 00
        e 0 90 62 60
        e 0 90 63 60
        e 0 90 56 60
        e 0 90 57 60
        e 0 90 49 60
        e 0 90 4b 60
        e 0 90 3f 60
        e 120 80 49 00
        e 0 80 4b 00
        e 0 80 3f 00
        e 240 80 62 00
        e 0 80 63 00
        e 0 80 56 00
        e 0 80 57 00
        e 120 90 62 60
        e 0 90 63 60
        e 0 90 56 60
        e 0 90 57 60
        e 0 90 49 60
        e 0 90 4b 60
        e 0 90 3f 60
        e 120 80 62 00
        e 0 80 63 00
        e 0 80 56 00
        e 0 80 57 00
        e 0 80 49 00
        e 0 80 4b 00
        e 0 80 3f 00
        e 240 90 62 60
        e 0 90 63 60
        e 0 90 56 60
        e 0 90 57 60
        e 120 80 62 00
        e 0 80 63 00
        e 0 80 56 00
        e 0 80 57 00
        e 120 90 62 60
        e 0 90 63 60
        e 120 80 62 00
        e 0 80 63 00
        e 0 90 62 60
        e 0 90 63 60
        e 0 90 56 60
        e 0 90 57 60
        e 0 90 49 60
        e 0 90 4b 60
        e 120 80 62 00
        e 0 80 63 00
        e 0 80 56 00
        e 0 80 57 00
        e 0 80 49 00
        e 0 80 4b 00
        e 0 90 62 60
        e 0 90 63 60
        e 120 80 62 00
        e 0 80 63 00
        e 0 90 62 60
        e 0 90 63 60
        e 0 90 56 60
        e 0 90 57 60
        e 0 90 49 60
        e 0 90 4b 60
        e 120 80 62 00
        e 0 80 63 00
        e 0 80 56 00
        e 0 80 57 00
        e 0 80 49 00
        e 0 80 4b 00
        e 0 90 62 60
        e 0 90 63 60
        e 120 80 62 00
        e 0 80 63 00
        e 0 90 62 60
        e 0 90 63 60
        e 0 90 56 60
        e 0 90 57 60
        e 120 80 62 00
        e 0 80 63 00
        e 0 80 56 00
        e 0 80 57 00
        e 0 90 61 60
        e 120 80 61 00
        e 0 90 61 60
        e 0 90 63 60
        e 0 90 55 60
        e 0 90 57 60
        e 0 90 49 60
        e 0 90 4a 60
        e 0 90 3e 60
        e 5760 80 61 00
        e 0 80 63 00
        e 0 80 55 00
        e 0 80 57 00
        e 0 80 49 00
        e 0 80 4a 00
        e 0 80 3e 00
        <X 307 0
          /wFbaWRsZV9yZWFsdGltZV0=
        >
        E 1613 b0 7b 00
        GUID {A4AA01F6-70C1-4E7E-880A-8758C5B1D462}
        IGNTEMPO 0 120.00000000 4 4
        SRCCOLOR 0
        VELLANE 132 128 60
        COLORMAP "colormap_grybo.png"
        CFGEDITVIEW -8160.000000 5.915549 0 12 0 0 0
        CFGEDIT 1 1 0 1 1 1 1 1 1 1 1 0.25000000 -8 -8 1544 872 0 2 2 2 0.00000000 0 1 0 0 0.500000 1 0 1.000000 64
        KEYSNAP 0 0 "102034050607" 0 "Major"
        EVTFILTER 1 -1 -1 -1 -1 0 1 0 0 -1.00000000 -1.00000000
      >
    >
  >
  <TRACK '{629831B8-6A78-4A68-9DED-172F1F8F700A}'
    NAME "guitar"
    PEAKCOL 16576
    BEAT -1
    AUTOMODE 0
    VOLPAN 1.00000000000000 0.00000000000000 -1.00000000000000 -1.00000000000000 1.00000000000000
    MUTESOLO 0 0 0
    IPHASE 0
    ISBUS 2 -1
    BUSCOMP 0 0
    SHOWINMIX 1 0.666700 0.500000 1 0.500000 -1 -1 -1
    FREEMODE 0
    SEL 0
    REC 0 0 0 0 0 0 0
    VU 2
    TRACKHEIGHT 0 0
    INQ 0 0 0 0.5000000000 100 0 0 100
    NCHAN 2
    FX 1
    TRACKID {629831B8-6A78-4A68-9DED-172F1F8F700A}
    PERF 0
    MIDIOUT -1
    MAINSEND 1 0
    <ITEM
      POSITION 0.00000000000000
      SNAPOFFS 0.00000000000000
      LENGTH 215.03693877551021
      LOOP 0
      ALLTAKES 0
      SEL 0
      FADEIN 1 0.000000 0.000000 1 0
      FADEOUT 1 0.000000 0.000000 1 0
      MUTE 0
      IGUID {CD41A0EE-6A4F-482A-A11B-6E088B416B60}
      IID 89
      NAME "guitar.wav"
      VOLPAN 1.000000 0.000000 1.000000 -1.000000
      SOFFS 0.00000000000000
      PLAYRATE 1.00000000000000 1 0.00000000000000 -1
      CHANMODE 0
      GUID {7DF600BC-746D-4EB3-A49A-029B72C73B34}
      <SOURCE WAVE
        FILE "wav\guitar.wav"
      >
    >
  >
  <TRACK '{F78BBF18-E765-4D5C-A6C0-7C9FCB7056F3}'
    NAME "PART VOCALS"
    PEAKCOL 16807935
    BEAT -1
    AUTOMODE 0
    VOLPAN 1.00000000000000 0.37000000000000 -1.00000000000000 -1.00000000000000 1.00000000000000
    MUTESOLO 0 0 0
    IPHASE 0
    ISBUS 1 1
    BUSCOMP 0 0
    SHOWINMIX 1 0.666700 0.500000 1 0.500000 -1 -1 -1
    FREEMODE 0
    SEL 0
    REC 0 0 0 0 0 0 0
    TRACKHEIGHT 0 0
    INQ 0 0 0 0.5000000000 100 0 0 100
    NCHAN 2
    FX 0
    TRACKID {F78BBF18-E765-4D5C-A6C0-7C9FCB7056F3}
    PERF 0
    MIDIOUT -1
    <MIDINOTENAMES
      0 116 "OVERDRIVE"
      0 106 "Phrase (Face-Off P2)"
      0 105 "Phrase"
      0 104 "----"
      0 97 "Percussion Sound"
      0 96 "Percussion"
      0 85 "----"
      0 84 "C (highest) (bugged)"
      0 83 "B"
      0 82 "A#"
      0 81 "A"
      0 80 "G#"
      0 79 "G"
      0 78 "F#"
      0 77 "F"
      0 76 "E"
      0 75 "D#"
      0 74 "D"
      0 73 "C#"
      0 72 "C"
      0 71 "B"
      0 70 "A#"
      0 69 "A"
      0 68 "G#"
      0 67 "G"
      0 66 "F#"
      0 65 "F"
      0 64 "E"
      0 63 "D#"
      0 62 "D"
      0 61 "C#"
      0 60 "C"
      0 59 "B"
      0 58 "A#"
      0 57 "A"
      0 56 "G#"
      0 55 "G"
      0 54 "F#"
      0 53 "F"
      0 52 "E"
      0 51 "D#"
      0 50 "D"
      0 49 "C#"
      0 48 "C"
      0 47 "B"
      0 46 "A#"
      0 45 "A"
      0 44 "G#"
      0 43 "G"
      0 42 "F#"
      0 41 "F"
      0 40 "E"
      0 39 "D#"
      0 38 "D"
      0 37 "C#"
      0 36 "C (lowest)"
      0 35 "----"
      0 1 "Lyric Shift"
      0 0 "Range Shift"
    >
    MAINSEND 1 0
    <FXCHAIN
      SHOW 0
      LASTSEL 3
      DOCKED 0
      BYPASS 0 0
      <JS "IX/MIDI_Tool II" ""
        0.000000 0.000000 35.000000 0.000000 0.000000 0.000000 100.000000 0.000000 0.000000 127.000000 0.000000 0.000000 1.000000 0.000000 0.000000 - - - - - - - - - - - - - - - - - - - - - - - - - - - - - - - - - - - - - - - - - - - - - - - - - 
      >
      FLOATPOS 0 0 0 0
      FXID {41BE95BE-CC4F-4130-AA9E-1399B7E1B8BF}
      WAK 0
      BYPASS 0 0
      <JS "IX/MIDI_Tool II" ""
        0.000000 85.000000 127.000000 0.000000 0.000000 0.000000 100.000000 0.000000 0.000000 127.000000 0.000000 0.000000 1.000000 0.000000 0.000000 - - - - - - - - - - - - - - - - - - - - - - - - - - - - - - - - - - - - - - - - - - - - - - - - - 
      >
      FLOATPOS 0 0 0 0
      FXID {9A8226DA-7D5F-45D9-A57F-41B038EBD4C9}
      WAK 0
      BYPASS 0 0
      <JS "MIDI/midi_transpose" ""
        12.000000 1.000000 0.000000 127.000000 - - - - - - - - - - - - - - - - - - - - - - - - - - - - - - - - - - - - - - - - - - - - - - - - - - - - - - - - - - - - 
      >
      FLOATPOS 0 0 0 0
      FXID {5BD0461F-DE7A-4D27-89AB-08CFFB89E173}
      WAK 0
      BYPASS 0 0
      <VST "VSTi: ReaSynth (Cockos)" "reasynth.dll" 0 "VSTi: ReaSynth (Cockos)"
        eXNlcu9e7f4AAAAAAgAAAAEAAAAAAAAAAgAAAAAAAAA4AAAAAAAAAA==
        AAAQAO++rd4N8K3eppvEOxe30TozMxM/AAAAAAAAAAAAAIA/6WeIPQ==
        AAAAAAAAAD8AAIA/AACAPwAAAD8AABAAAAA=
      >
      FLOATPOS 0 0 0 0
      FXID {F2420F07-5EBD-488A-B012-797351EA99B1}
      WAK 0
    >
    <ITEM
      POSITION 0.00000000000000
      SNAPOFFS 0.00000000000000
      LENGTH 212.53693832905063
      LOOP 0
      ALLTAKES 0
      SEL 0
      FADEIN 1 0.000000 0.000000 1 0
      FADEOUT 1 0.000000 0.000000 1 0
      MUTE 0
      IGUID {06B2E3A5-64BB-45BD-ADA9-84845DF57FD2}
      IID 2
      NAME "PART VOCALS"
      VOLPAN 1.000000 0.000000 1.000000 -1.000000
      SOFFS 0.00000000000000 0.00000000000000
      PLAYRATE 1.00000000000000 1 0.00000000000000 -1
      CHANMODE 0
      GUID {8BBAEBF1-4395-44EA-BAD4-B08DB6A08823}
      <SOURCE MIDI
        HASDATA 1 480 QN
        POOLEDEVTS {FF8A17EC-23BB-4843-8992-FD697622ADFB}
        <X 0 0
          /wNQQVJUIFZPQ0FMUw==
        >
        <X 22560 0
          /wFbcGxheV0=
        >
        E 0 90 69 60
        E 0 90 74 60
        <X 240 0
          /wVRdWVt
        >
        E 0 90 3d 60
        E 90 80 3d 00
        <X 30 0
          /wVuw6Nv
        >
        E 0 90 3b 60
        E 60 80 3b 00
        <X 60 0
          /wV0ZW0=
        >
        E 0 90 44 60
        E 90 80 44 00
        <X 30 0
          /wV0ZS0=
        >
        E 0 90 44 60
        E 60 80 44 00
        <X 60 0
          /wV0bw==
        >
        E 0 90 44 60
        E 60 80 44 00
        <X 60 0
          /wVkZQ==
        >
        E 0 90 44 60
        E 30 80 44 00
        <X 90 0
          /wV2aS0=
        >
        E 0 90 44 60
        E 90 80 44 00
        <X 30 0
          /wVkcm8=
        >
        E 0 90 44 60
        E 60 80 44 00
        <X 60 0
          /wVxdWXCp2Et
        >
        E 0 90 44 60
        E 60 80 44 00
        <X 60 0
          /wV0aS0=
        >
        E 0 90 44 60
        E 90 80 44 00
        <X 30 0
          /wVyZcKnYQ==
        >
        E 0 90 44 60
        E 30 80 44 00
        <X 90 0
          /wVwcmkt
        >
        E 0 90 42 60
        E 60 80 42 00
        <X 60 0
          /wVtZWkt
        >
        E 0 90 42 60
        E 60 80 42 00
        <X 60 0
          /wVyYQ==
        >
        E 0 90 42 60
        E 60 80 42 00
        <X 60 0
          /wVwZS0=
        >
        E 0 90 40 60
        E 180 80 40 00
        <X 60 0
          /wVkcmE=
        >
        E 0 90 42 60
        E 180 80 42 00
        <X 60 0
          /wUr
        >
        E 0 90 40 60
        E 870 80 40 00
        <X 90 0
          /wUr
        >
        E 0 90 42 60
        E 240 80 42 00
        E 240 80 69 00
        E 0 80 74 00
        E 0 90 69 60
        <X 240 0
          /wVRdWVt
        >
        E 0 90 3b 60
        E 60 80 3b 00
        <X 60 0
          /wVuw6Nv
        >
        E 0 90 3b 60
        E 60 80 3b 00
        <X 60 0
          /wV0ZW0=
        >
        E 0 90 44 60
        E 90 80 44 00
        <X 30 0
          /wV0ZS0=
        >
        E 0 90 44 60
        E 60 80 44 00
        <X 60 0
          /wV0bw==
        >
        E 0 90 44 60
        E 60 80 44 00
        <X 60 0
          /wVkZQ==
        >
        E 0 90 44 60
        E 30 80 44 00
        <X 90 0
          /wV2aS0=
        >
        E 0 90 44 60
        E 90 80 44 00
        <X 30 0
          /wVkcm8=
        >
        E 0 90 44 60
        E 60 80 44 00
        <X 60 0
          /wVxdWXCp2Et
        >
        E 0 90 44 60
        E 60 80 44 00
        <X 60 0
          /wV0aS0=
        >
        E 0 90 44 60
        E 90 80 44 00
        <X 30 0
          /wVyZcKnYQ==
        >
        E 0 90 44 60
        E 30 80 44 00
        <X 90 0
          /wVwcmkt
        >
        E 0 90 42 60
        E 60 80 42 00
        <X 60 0
          /wVtZWkt
        >
        E 0 90 42 60
        E 60 80 42 00
        <X 60 0
          /wVyYQ==
        >
        E 0 90 42 60
        E 60 80 42 00
        <X 60 0
          /wVwZS0=
        >
        E 0 90 40 60
        E 180 80 40 00
        <X 60 0
          /wVkcmE=
        >
        E 0 90 42 60
        E 180 80 42 00
        <X 60 0
          /wUr
        >
        E 0 90 40 60
        E 870 80 40 00
        <X 90 0
          /wUr
        >
        E 0 90 3b 60
        E 270 80 3b 00
        E 210 80 69 00
        E 0 90 69 60
        <X 240 0
          /wVRdWVt
        >
        E 0 90 3d 60
        E 90 80 3d 00
        <X 30 0
          /wVuw6Nv
        >
        E 0 90 3b 60
        E 60 80 3b 00
        <X 60 0
          /wV0ZW0=
        >
        E 0 90 44 60
        E 90 80 44 00
        <X 30 0
          /wV0ZS0=
        >
        E 0 90 44 60
        E 60 80 44 00
        <X 60 0
          /wV0bw==
        >
        E 0 90 44 60
        E 60 80 44 00
        <X 60 0
          /wVkZQ==
        >
        E 0 90 44 60
        E 30 80 44 00
        <X 90 0
          /wV2aS0=
        >
        E 0 90 44 60
        E 90 80 44 00
        <X 30 0
          /wVkcm8=
        >
        E 0 90 44 60
        E 60 80 44 00
        <X 60 0
          /wVxdWXCp2Et
        >
        E 0 90 47 60
        E 60 80 47 00
        <X 60 0
          /wV0aS0=
        >
        E 0 90 44 60
        E 90 80 44 00
        <X 30 0
          /wVyZcKnYQ==
        >
        E 0 90 44 60
        E 30 80 44 00
        <X 90 0
          /wVwcmkt
        >
        E 0 90 42 60
        E 60 80 42 00
        <X 60 0
          /wVtZWkt
        >
        E 0 90 42 60
        E 60 80 42 00
        <X 60 0
          /wVyYQ==
        >
        E 0 90 42 60
        E 60 80 42 00
        <X 60 0
          /wVwZS0=
        >
        E 0 90 40 60
        E 180 80 40 00
        <X 60 0
          /wVkcmE=
        >
        E 0 90 42 60
        E 180 80 42 00
        <X 60 0
          /wUr
        >
        E 0 90 40 60
        E 870 80 40 00
        <X 90 0
          /wUr
        >
        E 0 90 42 60
        E 240 80 42 00
        E 240 80 69 00
        E 0 90 69 60
        <X 240 0
          /wVRdWVt
        >
        E 0 90 3b 60
        E 60 80 3b 00
        <X 60 0
          /wVuw6Nv
        >
        E 0 90 3b 60
        E 60 80 3b 00
        <X 60 0
          /wV0ZW0=
        >
        E 0 90 44 60
        E 90 80 44 00
        <X 30 0
          /wV0ZS0=
        >
        E 0 90 44 60
        E 60 80 44 00
        <X 60 0
          /wV0bw==
        >
        E 0 90 44 60
        E 60 80 44 00
        <X 60 0
          /wVkZQ==
        >
        E 0 90 44 60
        E 30 80 44 00
        <X 90 0
          /wV2aS0=
        >
        E 0 90 44 60
        E 90 80 44 00
        <X 30 0
          /wVkcm8=
        >
        E 0 90 44 60
        E 60 80 44 00
        <X 60 0
          /wVxdWXCp2Et
        >
        E 0 90 44 60
        E 60 80 44 00
        <X 60 0
          /wV0aS0=
        >
        E 0 90 44 60
        E 90 80 44 00
        <X 30 0
          /wVyZcKnYQ==
        >
        E 0 90 44 60
        E 30 80 44 00
        <X 90 0
          /wVwcmkt
        >
        E 0 90 42 60
        E 60 80 42 00
        <X 60 0
          /wVtZWkt
        >
        E 0 90 42 60
        E 60 80 42 00
        <X 60 0
          /wVyYQ==
        >
        E 0 90 42 60
        E 60 80 42 00
        <X 60 0
          /wVwZS0=
        >
        E 0 90 40 60
        E 180 80 40 00
        <X 60 0
          /wVkcmE=
        >
        E 0 90 42 60
        E 180 80 42 00
        <X 60 0
          /wUr
        >
        E 0 90 40 60
        E 870 80 40 00
        <X 90 0
          /wUr
        >
        E 0 90 3b 60
        E 240 80 3b 00
        E 240 80 69 00
        <X 480 0
          /wVBbi0=
        >
        E 0 90 3d 60
        E 0 90 69 60
        E 150 80 3d 00
        <X 90 0
          /wVkZWk=
        >
        E 0 90 44 60
        E 120 80 44 00
        E 120 90 01 60
        E 30 80 01 00
        <X 90 0
          /wVwb3I=
        >
        E 0 90 44 60
        E 90 80 44 00
        <X 30 0
          /wV0YW4t
        >
        E 0 90 44 60
        E 90 80 44 00
        <X 30 0
          /wV0YXM=
        >
        E 0 90 44 60
        E 60 80 44 00
        <X 60 0
          /wVydS0=
        >
        E 0 90 44 60
        E 90 80 44 00
        <X 30 0
          /wVhcw==
        >
        E 0 90 42 60
        E 90 80 42 00
        <X 30 0
          /wVl
        >
        E 0 90 42 60
        E 90 80 42 00
        <X 30 0
          /wVsdS0=
        >
        E 0 90 40 60
        E 90 80 40 00
        <X 30 0
          /wVnYS0=
        >
        E 0 90 40 60
        E 180 80 40 00
        <X 60 0
          /wVyZXM=
        >
        E 0 90 42 60
        E 120 80 42 00
        E 90 80 69 00
        E 0 90 69 60
        <X 30 0
          /wVQYXMt
        >
        E 0 90 3d 60
        E 180 80 3d 00
        <X 60 0
          /wVzZWk=
        >
        E 0 90 44 60
        E 120 80 44 00
        E 120 90 01 60
        E 30 80 01 00
        <X 90 0
          /wVvLQ==
        >
        E 0 90 44 60
        E 90 80 44 00
        <X 30 0
          /wViLQ==
        >
        E 0 90 44 60
        E 30 80 44 00
        <X 90 0
          /wVzZXIt
        >
        E 0 90 44 60
        E 60 80 44 00
        <X 60 0
          /wV2YW4t
        >
        E 0 90 44 60
        E 90 80 44 00
        <X 30 0
          /wVkbw==
        >
        E 0 90 42 60
        E 90 80 42 00
        <X 30 0
          /wVxdWEt
        >
        E 0 90 42 60
        E 90 80 42 00
        <X 30 0
          /wVzZQ==
        >
        E 0 90 40 60
        E 60 80 40 00
        <X 60 0
          /wV0dS0=
        >
        E 0 90 40 60
        E 180 80 40 00
        <X 60 0
          /wVkbw==
        >
        E 0 90 42 60
        E 120 80 42 00
        E 90 80 69 00
        E 0 90 69 60
        <X 30 0
          /wVNdS0=
        >
        E 0 90 3d 60
        E 180 80 3d 00
        <X 60 0
          /wVkZWk=
        >
        E 0 90 44 60
        E 150 80 44 00
        E 90 90 01 60
        E 30 80 01 00
        <X 90 0
          /wVv
        >
        E 0 90 44 60
        E 90 80 44 00
        <X 30 0
          /wVtdW4t
        >
        E 0 90 44 60
        E 90 80 44 00
        <X 30 0
          /wVkbw==
        >
        E 0 90 44 60
        E 60 80 44 00
        <X 60 0
          /wVnaS0=
        >
        E 0 90 44 60
        E 90 80 44 00
        <X 30 0
          /wVyYQ==
        >
        E 0 90 42 60
        E 90 80 42 00
        <X 30 0
          /wVudW0=
        >
        E 0 90 42 60
        E 60 80 42 00
        <X 60 0
          /wVzZS0=
        >
        E 0 90 40 60
        E 60 80 40 00
        <X 60 0
          /wVndW4t
        >
        E 0 90 40 60
        E 180 80 40 00
        <X 60 0
          /wVkbw==
        >
        E 0 90 42 60
        E 120 80 42 00
        E 90 80 69 00
        E 0 90 69 60
        E 0 90 74 60
        <X 30 0
          /wVCdXMt
        >
        E 0 90 3b 60
        E 150 80 3b 00
        <X 90 0
          /wVxdWVp
        >
        E 0 90 44 60
        E 120 80 44 00
        E 120 90 01 60
        E 30 80 01 00
        <X 90 0
          /wVkZW4t
        >
        E 0 90 44 60
        E 60 80 44 00
        <X 60 0
          /wV0cm8=
        >
        E 0 90 44 60
        E 60 80 44 00
        <X 60 0
          /wVkZQ==
        >
        E 0 90 47 60
        E 60 80 47 00
        <X 60 0
          /wVtaW0=
        >
        E 0 90 44 60
        E 90 80 44 00
        <X 30 0
          /wVvcw==
        >
        E 0 90 42 60
        E 30 80 42 00
        <X 90 0
          /wVtZXVz
        >
        E 0 90 42 60
        E 120 80 42 00
        <X 120 0
          /wVsYS0=
        >
        E 0 90 40 60
        E 180 80 40 00
        <X 60 0
          /wVyZXM=
        >
        E 0 90 42 60
        E 120 80 42 00
        E 90 80 69 00
        E 0 80 74 00
        E 0 90 69 60
        <X 30 0
          /wVFwqdhLQ==
        >
        E 0 90 43 60
        E 150 80 43 00
        <X 90 0
          /wXDrQ==
        >
        E 0 90 42 60
        E 90 80 42 00
        <X 30 0
          /wUr
        >
        E 0 90 40 60
        E 90 80 40 00
        E 30 90 01 60
        E 30 80 01 00
        <X 90 0
          /wV0YW4t
        >
        E 0 90 44 60
        E 90 80 44 00
        <X 30 0
          /wV0YXM=
        >
        E 0 90 44 60
        E 60 80 44 00
        <X 60 0
          /wVwZXMt
        >
        E 0 90 44 60
        E 60 80 44 00
        <X 60 0
          /wVzby0=
        >
        E 0 90 44 60
        E 90 80 44 00
        <X 30 0
          /wVhcw==
        >
        E 0 90 42 60
        E 60 80 42 00
        <X 60 0
          /wVxdWUt
        >
        E 0 90 42 60
        E 180 80 42 00
        <X 60 0
          /wVyZW4t
        >
        E 0 90 40 60
        E 180 80 40 00
        <X 60 0
          /wVkbw==
        >
        E 0 90 42 60
        E 180 80 42 00
        <X 60 0
          /wVzZW4t
        >
        E 0 90 43 60
        E 180 80 43 00
        <X 60 0
          /wV0aXI=
        >
        E 0 90 40 60
        E 180 80 40 00
        E 60 80 69 00
        E 0 90 69 60
        <X 120 0
          /wVTYW4t
        >
        E 0 90 44 60
        E 90 80 44 00
        <X 30 0
          /wVndWU=
        >
        E 0 90 44 60
        E 60 80 44 00
        <X 60 0
          /wVjb3It
        >
        E 0 90 47 60
        E 90 80 47 00
        <X 30 0
          /wVyZW4t
        >
        E 0 90 44 60
        E 90 80 44 00
        <X 30 0
          /wVkbw==
        >
        E 0 90 42 60
        E 60 80 42 00
        <X 60 0
          /wVuYQ==
        >
        E 0 90 42 60
        E 150 80 42 00
        <X 90 0
          /wV2ZS0=
        >
        E 0 90 40 60
        E 180 80 40 00
        <X 60 0
          /wVpYcKnw6k=
        >
        E 0 90 42 60
        E 210 80 42 00
        <X 30 0
          /wVib20=
        >
        E 0 90 3d 60
        E 60 80 3d 00
        <X 60 0
          /wVhcy0=
        >
        E 0 90 3d 60
        E 60 80 3d 00
        <X 60 0
          /wVzaW0=
        >
        E 0 90 44 60
        E 150 80 44 00
        E 90 80 69 00
        E 0 90 69 60
        E 0 90 74 60
        <X 120 0
          /wVTZQ==
        >
        E 0 90 44 60
        E 90 80 44 00
        <X 30 0
          /wVtby0=
        >
        E 0 90 44 60
        E 90 80 44 00
        <X 30 0
          /wV2aS0=
        >
        E 0 90 44 60
        E 60 80 44 00
        <X 60 0
          /wVtZW4t
        >
        E 0 90 44 60
        E 90 80 44 00
        <X 30 0
          /wV0YQ==
        >
        E 0 90 44 60
        E 30 80 44 00
        <X 90 0
          /wV0w6E=
        >
        E 0 90 42 60
        E 150 80 42 00
        <X 90 0
          /wV2aS0=
        >
        E 0 90 40 60
        E 180 80 40 00
        <X 60 0
          /wV2bw==
        >
        E 0 90 42 60
        E 120 80 42 00
        E 90 80 69 00
        E 0 80 74 00
        E 0 90 69 60
        <X 30 0
          /wVPdS0=
        >
        E 0 90 3b 60
        E 180 80 3b 00
        <X 60 0
          /wV2aQ==
        >
        E 0 90 44 60
        E 120 80 44 00
        E 0 90 01 60
        E 30 80 01 00
        <X 210 0
          /wVtaS0=
        >
        E 0 90 44 60
        E 90 80 44 00
        <X 30 0
          /wVsaMO1ZXM=
        >
        E 0 90 44 60
        E 90 80 44 00
        <X 30 0
          /wVkZQ==
        >
        E 0 90 44 60
        E 60 80 44 00
        <X 60 0
          /wV2by0=
        >
        E 0 90 44 60
        E 90 80 44 00
        <X 30 0
          /wV6ZXM=
        >
        E 0 90 42 60
        E 90 80 42 00
        <X 30 0
          /wVncmkt
        >
        E 0 90 42 60
        E 150 80 42 00
        <X 90 0
          /wV0YW4t
        >
        E 0 90 40 60
        E 30 80 40 00
        <X 30 0
          /wUr
        >
        E 0 90 42 60
        E 540 80 42 00
        <X 120 0
          /wVkbw==
        >
        E 0 90 40 60
        E 90 80 40 00
        <X 30 0
          /wUr
        >
        E 0 90 3d 60
        E 120 80 3d 00
        E 240 80 69 00
        E 0 90 69 60
        <X 120 0
          /wVFXg==
        >
        E 0 90 3b 60
        E 30 80 3b 00
        <X 90 0
          /wVldQ==
        >
        E 0 90 40 60
        E 150 80 40 00
        <X 90 0
          /wVxdWUt
        >
        E 0 90 3f 60
        E 180 80 3f 00
        <X 60 0
          /wVybw==
        >
        E 0 90 3f 60
        E 90 80 3f 00
        <X 150 0
          /wV2ZXI=
        >
        E 0 90 42 60
        E 180 80 42 00
        <X 60 0
          /wUr
        >
        E 0 90 40 60
        E 150 80 40 00
        <X 90 0
          /wVxdWVt
        >
        E 0 90 40 60
        E 300 80 40 00
        <X 180 0
          /wXDqQ==
        >
        E 0 90 3d 60
        E 30 80 3d 00
        <X 30 0
          /wUr
        >
        E 0 90 3f 60
        E 150 80 3f 00
        <X 30 0
          /wUr
        >
        E 0 90 3d 60
        E 150 80 3d 00
        <X 90 0
          /wVjYS0=
        >
        E 0 90 3d 60
        E 150 80 3d 00
        <X 90 0
          /wVwYXo=
        >
        E 0 90 3b 60
        E 30 80 3b 00
        <X 30 0
          /wUr
        >
        E 0 90 3d 60
        E 510 80 3d 00
        E 150 80 69 00
        E 480 90 69 60
        E 0 90 74 60
        <X 240 0
          /wVEZQ==
        >
        E 0 90 40 60
        E 90 80 40 00
        <X 150 0
          /wVmZS0=
        >
        E 0 90 3f 60
        E 150 80 3f 00
        <X 90 0
          /wVjaGFy
        >
        E 0 90 3d 60
        E 120 80 3d 00
        <X 120 0
          /wVvcw==
        >
        E 0 90 3f 60
        E 120 80 3f 00
        <X 120 0
          /wVvLQ==
        >
        E 0 90 42 60
        E 180 80 42 00
        <X 60 0
          /wUr
        >
        E 0 90 3b 60
        E 180 80 3b 00
        <X 60 0
          /wVsaG9z
        >
        E 0 90 3b 60
        E 150 80 3b 00
        E 90 90 01 60
        E 30 80 01 00
        <X 90 0
          /wVl
        >
        E 0 90 40 60
        E 30 80 40 00
        <X 90 0
          /wVkZXMt
        >
        E 0 90 42 60
        E 180 80 42 00
        <X 60 0
          /wVjYW4t
        >
        E 0 90 42 60
        E 150 80 42 00
        <X 90 0
          /wVzYXI=
        >
        E 0 90 45 60
        E 150 80 45 00
        <X 90 0
          /wVlbQ==
        >
        E 0 90 42 60
        E 120 80 42 00
        <X 120 0
          /wVwYXoh
        >
        E 0 90 44 60
        E 780 80 44 00
        <X 180 0
          /wFbaWRsZV0=
        >
        E 0 80 69 00
        E 0 80 74 00
        <X 2400 0
          /wFbcGxheV0=
        >
        E 0 90 69 60
        <X 240 0
          /wVRdWVt
        >
        E 0 90 3d 60
        E 90 80 3d 00
        <X 30 0
          /wVuw6Nv
        >
        E 0 90 3b 60
        E 60 80 3b 00
        <X 60 0
          /wV0ZW0=
        >
        E 0 90 44 60
        E 90 80 44 00
        <X 30 0
          /wV0ZS0=
        >
        E 0 90 44 60
        E 60 80 44 00
        <X 60 0
          /wV0bw==
        >
        E 0 90 44 60
        E 60 80 44 00
        <X 60 0
          /wVkZQ==
        >
        E 0 90 44 60
        E 30 80 44 00
        <X 90 0
          /wV2aS0=
        >
        E 0 90 44 60
        E 90 80 44 00
        <X 30 0
          /wVkcm8=
        >
        E 0 90 44 60
        E 60 80 44 00
        <X 60 0
          /wVxdWXCp2Et
        >
        E 0 90 44 60
        E 60 80 44 00
        <X 60 0
          /wV0aS0=
        >
        E 0 90 44 60
        E 90 80 44 00
        <X 30 0
          /wVyZcKnYQ==
        >
        E 0 90 44 60
        E 30 80 44 00
        <X 90 0
          /wVwcmkt
        >
        E 0 90 42 60
        E 60 80 42 00
        <X 60 0
          /wVtZWkt
        >
        E 0 90 42 60
        E 60 80 42 00
        <X 60 0
          /wVyYQ==
        >
        E 0 90 42 60
        E 60 80 42 00
        <X 60 0
          /wVwZS0=
        >
        E 0 90 40 60
        E 180 80 40 00
        <X 60 0
          /wVkcmE=
        >
        E 0 90 42 60
        E 180 80 42 00
        <X 60 0
          /wUr
        >
        E 0 90 40 60
        E 870 80 40 00
        <X 90 0
          /wUr
        >
        E 0 90 42 60
        E 240 80 42 00
        E 240 80 69 00
        E 0 90 69 60
        <X 240 0
          /wVRdWVt
        >
        E 0 90 3b 60
        E 60 80 3b 00
        <X 60 0
          /wVuw6Nv
        >
        E 0 90 3b 60
        E 60 80 3b 00
        <X 60 0
          /wV0ZW0=
        >
        E 0 90 44 60
        E 90 80 44 00
        <X 30 0
          /wV0ZS0=
        >
        E 0 90 44 60
        E 60 80 44 00
        <X 60 0
          /wV0bw==
        >
        E 0 90 44 60
        E 60 80 44 00
        <X 60 0
          /wVkZQ==
        >
        E 0 90 44 60
        E 30 80 44 00
        <X 90 0
          /wV2aS0=
        >
        E 0 90 44 60
        E 90 80 44 00
        <X 30 0
          /wVkcm8=
        >
        E 0 90 44 60
        E 60 80 44 00
        <X 60 0
          /wVxdWXCp2Et
        >
        E 0 90 47 60
        E 60 80 47 00
        <X 60 0
          /wV0aS0=
        >
        E 0 90 44 60
        E 90 80 44 00
        <X 30 0
          /wVyZcKnYQ==
        >
        E 0 90 44 60
        E 30 80 44 00
        <X 90 0
          /wVwcmkt
        >
        E 0 90 42 60
        E 60 80 42 00
        <X 60 0
          /wVtZWkt
        >
        E 0 90 42 60
        E 60 80 42 00
        <X 60 0
          /wVyYQ==
        >
        E 0 90 42 60
        E 60 80 42 00
        <X 60 0
          /wVwZS0=
        >
        E 0 90 40 60
        E 180 80 40 00
        <X 60 0
          /wVkcmE=
        >
        E 0 90 42 60
        E 180 80 42 00
        <X 60 0
          /wUr
        >
        E 0 90 40 60
        E 870 80 40 00
        <X 90 0
          /wUr
        >
        E 0 90 3b 60
        E 270 80 3b 00
        E 210 80 69 00
        E 0 90 69 60
        E 0 90 74 60
        <X 240 0
          /wVRdWVt
        >
        E 0 90 3d 60
        E 90 80 3d 00
        <X 30 0
          /wVuw6Nv
        >
        E 0 90 3b 60
        E 60 80 3b 00
        <X 60 0
          /wV0ZW0=
        >
        E 0 90 44 60
        E 90 80 44 00
        <X 30 0
          /wV0ZS0=
        >
        E 0 90 44 60
        E 60 80 44 00
        <X 60 0
          /wV0bw==
        >
        E 0 90 44 60
        E 60 80 44 00
        <X 60 0
          /wVkZQ==
        >
        E 0 90 44 60
        E 30 80 44 00
        <X 90 0
          /wV2aS0=
        >
        E 0 90 44 60
        E 90 80 44 00
        <X 30 0
          /wVkcm8=
        >
        E 0 90 44 60
        E 60 80 44 00
        <X 60 0
          /wVxdWXCp2Et
        >
        E 0 90 44 60
        E 60 80 44 00
        <X 60 0
          /wV0aS0=
        >
        E 0 90 44 60
        E 90 80 44 00
        <X 30 0
          /wVyZcKnYQ==
        >
        E 0 90 44 60
        E 30 80 44 00
        <X 90 0
          /wVwcmkt
        >
        E 0 90 42 60
        E 60 80 42 00
        <X 60 0
          /wVtZWkt
        >
        E 0 90 42 60
        E 60 80 42 00
        <X 60 0
          /wVyYQ==
        >
        E 0 90 42 60
        E 60 80 42 00
        <X 60 0
          /wVwZS0=
        >
        E 0 90 40 60
        E 180 80 40 00
        <X 60 0
          /wVkcmE=
        >
        E 0 90 42 60
        E 180 80 42 00
        <X 60 0
          /wUr
        >
        E 0 90 40 60
        E 870 80 40 00
        <X 90 0
          /wUr
        >
        E 0 90 42 60
        E 240 80 42 00
        E 240 80 69 00
        E 0 80 74 00
        E 0 90 69 60
        <X 240 0
          /wVRdWVt
        >
        E 0 90 44 60
        E 60 80 44 00
        <X 60 0
          /wVuw6Nv
        >
        E 0 90 42 60
        E 60 80 42 00
        <X 60 0
          /wV0ZW0=
        >
        E 0 90 44 60
        E 90 80 44 00
        <X 30 0
          /wV0ZS0=
        >
        E 0 90 44 60
        E 60 80 44 00
        <X 60 0
          /wV0bw==
        >
        E 0 90 44 60
        E 90 80 44 00
        <X 30 0
          /wVkZQ==
        >
        E 0 90 44 60
        E 30 80 44 00
        <X 90 0
          /wV2aS0=
        >
        E 0 90 44 60
        E 90 80 44 00
        <X 30 0
          /wVkcm8=
        >
        E 0 90 44 60
        E 60 80 44 00
        <X 60 0
          /wVxdWXCp2Et
        >
        E 0 90 47 60
        E 60 80 47 00
        <X 60 0
          /wV0aS0=
        >
        E 0 90 44 60
        E 90 80 44 00
        <X 30 0
          /wVyZcKnYQ==
        >
        E 0 90 44 60
        E 30 80 44 00
        <X 90 0
          /wVwcmkt
        >
        E 0 90 42 60
        E 60 80 42 00
        <X 60 0
          /wVtZWkt
        >
        E 0 90 42 60
        E 60 80 42 00
        <X 60 0
          /wVyYQ==
        >
        E 0 90 42 60
        E 60 80 42 00
        <X 60 0
          /wVwZS0=
        >
        E 0 90 40 60
        E 180 80 40 00
        <X 60 0
          /wVkcmE=
        >
        E 0 90 42 60
        E 180 80 42 00
        <X 60 0
          /wUr
        >
        E 0 90 40 60
        E 870 80 40 00
        <X 90 0
          /wUr
        >
        E 0 90 3b 60
        E 240 80 3b 00
        E 240 80 69 00
        E 240 90 69 60
        <X 240 0
          /wVBbi0=
        >
        E 0 90 44 60
        E 150 80 44 00
        <X 90 0
          /wVkZWk=
        >
        E 0 90 44 60
        E 150 80 44 00
        E 90 90 01 60
        E 30 80 01 00
        <X 90 0
          /wVwb3I=
        >
        E 0 90 44 60
        E 90 80 44 00
        <X 30 0
          /wV0YW4t
        >
        E 0 90 44 60
        E 90 80 44 00
        <X 30 0
          /wV0YXM=
        >
        E 0 90 44 60
        E 60 80 44 00
        <X 60 0
          /wVydS0=
        >
        E 0 90 44 60
        E 90 80 44 00
        <X 30 0
          /wVhcw==
        >
        E 0 90 42 60
        E 60 80 42 00
        <X 60 0
          /wVl
        >
        E 0 90 42 60
        E 90 80 42 00
        <X 30 0
          /wVsdS0=
        >
        E 0 90 40 60
        E 90 80 40 00
        <X 30 0
          /wVnYS0=
        >
        E 0 90 40 60
        E 180 80 40 00
        <X 60 0
          /wVyZXM=
        >
        E 0 90 42 60
        E 180 80 42 00
        E 30 80 69 00
        E 0 90 69 60
        <X 30 0
          /wVQYXMt
        >
        E 0 90 39 60
        E 180 80 39 00
        <X 60 0
          /wVzZWk=
        >
        E 0 90 44 60
        E 120 80 44 00
        E 120 90 01 60
        E 30 80 01 00
        <X 90 0
          /wVvLQ==
        >
        E 0 90 44 60
        E 90 80 44 00
        <X 30 0
          /wViLQ==
        >
        E 0 90 44 60
        E 30 80 44 00
        <X 90 0
          /wVzZXIt
        >
        E 0 90 44 60
        E 60 80 44 00
        <X 60 0
          /wV2YW4t
        >
        E 0 90 44 60
        E 90 80 44 00
        <X 30 0
          /wVkbw==
        >
        E 0 90 42 60
        E 90 80 42 00
        <X 30 0
          /wVxdWEt
        >
        E 0 90 42 60
        E 90 80 42 00
        <X 30 0
          /wVzZQ==
        >
        E 0 90 40 60
        E 60 80 40 00
        <X 60 0
          /wV0dS0=
        >
        E 0 90 40 60
        E 180 80 40 00
        <X 60 0
          /wVkbw==
        >
        E 0 90 42 60
        E 120 80 42 00
        E 90 80 69 00
        E 0 90 69 60
        <X 30 0
          /wVNdS0=
        >
        E 0 90 3d 60
        E 180 80 3d 00
        <X 60 0
          /wVkZWk=
        >
        E 0 90 44 60
        E 150 80 44 00
        E 90 90 01 60
        E 30 80 01 00
        <X 90 0
          /wVv
        >
        E 0 90 44 60
        E 90 80 44 00
        <X 30 0
          /wVtdW4t
        >
        E 0 90 44 60
        E 90 80 44 00
        <X 30 0
          /wVkbw==
        >
        E 0 90 44 60
        E 60 80 44 00
        <X 60 0
          /wVnaS0=
        >
        E 0 90 44 60
        E 90 80 44 00
        <X 30 0
          /wVyYQ==
        >
        E 0 90 42 60
        E 90 80 42 00
        <X 30 0
          /wVudW0=
        >
        E 0 90 42 60
        E 60 80 42 00
        <X 60 0
          /wVzZS0=
        >
        E 0 90 40 60
        E 60 80 40 00
        <X 60 0
          /wVndW4t
        >
        E 0 90 40 60
        E 180 80 40 00
        <X 60 0
          /wVkbw==
        >
        E 0 90 42 60
        E 120 80 42 00
        E 90 80 69 00
        E 0 90 69 60
        E 0 90 74 60
        <X 30 0
          /wVCdXMt
        >
        E 0 90 39 60
        E 150 80 39 00
        <X 90 0
          /wVxdWVp
        >
        E 0 90 44 60
        E 120 80 44 00
        E 120 90 01 60
        E 30 80 01 00
        <X 90 0
          /wVkZW4t
        >
        E 0 90 44 60
        E 60 80 44 00
        <X 60 0
          /wV0cm8=
        >
        E 0 90 44 60
        E 60 80 44 00
        <X 60 0
          /wVkZQ==
        >
        E 0 90 47 60
        E 60 80 47 00
        <X 60 0
          /wVtaW0=
        >
        E 0 90 44 60
        E 90 80 44 00
        <X 30 0
          /wVvcw==
        >
        E 0 90 42 60
        E 30 80 42 00
        <X 90 0
          /wVtZXVz
        >
        E 0 90 42 60
        E 120 80 42 00
        <X 120 0
          /wVsYS0=
        >
        E 0 90 40 60
        E 180 80 40 00
        <X 60 0
          /wVyZXM=
        >
        E 0 90 42 60
        E 120 80 42 00
        E 90 80 69 00
        E 0 80 74 00
        E 0 90 69 60
        <X 30 0
          /wVFwqdhLQ==
        >
        E 0 90 43 60
        E 150 80 43 00
        <X 90 0
          /wXDrQ==
        >
        E 0 90 42 60
        E 90 80 42 00
        <X 30 0
          /wUr
        >
        E 0 90 40 60
        E 90 80 40 00
        E 30 90 01 60
        E 30 80 01 00
        <X 90 0
          /wV0YW4t
        >
        E 0 90 44 60
        E 90 80 44 00
        <X 30 0
          /wV0YXM=
        >
        E 0 90 44 60
        E 60 80 44 00
        <X 60 0
          /wVwZXMt
        >
        E 0 90 44 60
        E 60 80 44 00
        <X 60 0
          /wVzby0=
        >
        E 0 90 44 60
        E 90 80 44 00
        <X 30 0
          /wVhcw==
        >
        E 0 90 42 60
        E 60 80 42 00
        <X 60 0
          /wVxdWUt
        >
        E 0 90 42 60
        E 180 80 42 00
        <X 60 0
          /wVyZW4t
        >
        E 0 90 40 60
        E 180 80 40 00
        <X 60 0
          /wVkbw==
        >
        E 0 90 42 60
        E 180 80 42 00
        <X 60 0
          /wVzZW4t
        >
        E 0 90 43 60
        E 180 80 43 00
        <X 60 0
          /wV0aXI=
        >
        E 0 90 40 60
        E 180 80 40 00
        E 60 80 69 00
        E 0 90 69 60
        <X 120 0
          /wVTYW4t
        >
        E 0 90 44 60
        E 90 80 44 00
        <X 30 0
          /wVndWU=
        >
        E 0 90 44 60
        E 60 80 44 00
        <X 60 0
          /wVjb3It
        >
        E 0 90 47 60
        E 90 80 47 00
        <X 30 0
          /wVyZW4t
        >
        E 0 90 44 60
        E 90 80 44 00
        <X 30 0
          /wVkbw==
        >
        E 0 90 42 60
        E 60 80 42 00
        <X 60 0
          /wVuYQ==
        >
        E 0 90 42 60
        E 150 80 42 00
        <X 90 0
          /wV2ZS0=
        >
        E 0 90 40 60
        E 180 80 40 00
        <X 60 0
          /wVpYcKnw6k=
        >
        E 0 90 42 60
        E 210 80 42 00
        <X 30 0
          /wVib20=
        >
        E 0 90 3d 60
        E 60 80 3d 00
        <X 60 0
          /wVhcy0=
        >
        E 0 90 3d 60
        E 60 80 3d 00
        <X 60 0
          /wVzaW0=
        >
        E 0 90 44 60
        E 150 80 44 00
        E 90 80 69 00
        E 0 90 69 60
        E 0 90 74 60
        <X 120 0
          /wVTZQ==
        >
        E 0 90 44 60
        E 90 80 44 00
        <X 30 0
          /wVtby0=
        >
        E 0 90 44 60
        E 90 80 44 00
        <X 30 0
          /wV2aS0=
        >
        E 0 90 44 60
        E 60 80 44 00
        <X 60 0
          /wVtZW4t
        >
        E 0 90 44 60
        E 90 80 44 00
        <X 30 0
          /wV0YQ==
        >
        E 0 90 44 60
        E 30 80 44 00
        <X 90 0
          /wV0w6E=
        >
        E 0 90 42 60
        E 150 80 42 00
        <X 90 0
          /wV2aS0=
        >
        E 0 90 40 60
        E 180 80 40 00
        <X 60 0
          /wV2bw==
        >
        E 0 90 42 60
        E 120 80 42 00
        E 90 80 69 00
        E 0 80 74 00
        E 0 90 69 60
        <X 30 0
          /wVPdS0=
        >
        E 0 90 3b 60
        E 180 80 3b 00
        <X 60 0
          /wV2aQ==
        >
        E 0 90 44 60
        E 120 80 44 00
        E 0 90 01 60
        E 30 80 01 00
        <X 210 0
          /wVtaS0=
        >
        E 0 90 44 60
        E 90 80 44 00
        <X 30 0
          /wVsaMO1ZXM=
        >
        E 0 90 44 60
        E 90 80 44 00
        <X 30 0
          /wVkZQ==
        >
        E 0 90 44 60
        E 60 80 44 00
        <X 60 0
          /wV2by0=
        >
        E 0 90 49 60
        E 90 80 49 00
        <X 30 0
          /wV6ZXM=
        >
        E 0 90 44 60
        E 90 80 44 00
        <X 30 0
          /wVncmkt
        >
        E 0 90 44 60
        E 150 80 44 00
        <X 90 0
          /wV0YW4t
        >
        E 0 90 42 60
        E 30 80 42 00
        <X 30 0
          /wUr
        >
        E 0 90 44 60
        E 150 80 44 00
        <X 30 0
          /wUr
        >
        E 0 90 42 60
        E 420 80 42 00
        <X 60 0
          /wVkbw==
        >
        E 0 90 44 60
        E 180 80 44 00
        E 300 80 69 00
        E 0 90 69 60
        <X 120 0
          /wVFXg==
        >
        E 0 90 3b 60
        E 30 80 3b 00
        <X 90 0
          /wVldQ==
        >
        E 0 90 40 60
        E 150 80 40 00
        <X 90 0
          /wVxdWUt
        >
        E 0 90 3f 60
        E 180 80 3f 00
        <X 60 0
          /wVybw==
        >
        E 0 90 3f 60
        E 90 80 3f 00
        <X 150 0
          /wV2ZXI=
        >
        E 0 90 42 60
        E 180 80 42 00
        <X 60 0
          /wUr
        >
        E 0 90 40 60
        E 150 80 40 00
        <X 90 0
          /wVxdWVt
        >
        E 0 90 40 60
        E 300 80 40 00
        <X 180 0
          /wXDqQ==
        >
        E 0 90 3d 60
        E 30 80 3d 00
        <X 30 0
          /wUr
        >
        E 0 90 3f 60
        E 150 80 3f 00
        <X 30 0
          /wUr
        >
        E 0 90 3d 60
        E 150 80 3d 00
        <X 90 0
          /wVjYS0=
        >
        E 0 90 3d 60
        E 150 80 3d 00
        <X 90 0
          /wVwYXo=
        >
        E 0 90 3b 60
        E 30 80 3b 00
        <X 30 0
          /wUr
        >
        E 0 90 3d 60
        E 510 80 3d 00
        E 150 80 69 00
        E 480 90 69 60
        E 0 90 74 60
        <X 240 0
          /wVEZQ==
        >
        E 0 90 40 60
        E 90 80 40 00
        <X 150 0
          /wVmZS0=
        >
        E 0 90 3f 60
        E 150 80 3f 00
        <X 90 0
          /wVjaGFy
        >
        E 0 90 3d 60
        E 120 80 3d 00
        <X 120 0
          /wVvcw==
        >
        E 0 90 3f 60
        E 120 80 3f 00
        <X 120 0
          /wVvLQ==
        >
        E 0 90 42 60
        E 180 80 42 00
        <X 60 0
          /wUr
        >
        E 0 90 3b 60
        E 180 80 3b 00
        <X 60 0
          /wVsaG9z
        >
        E 0 90 3b 60
        E 150 80 3b 00
        E 90 90 01 60
        E 30 80 01 00
        <X 90 0
          /wVl
        >
        E 0 90 40 60
        E 30 80 40 00
        <X 90 0
          /wVkZXMt
        >
        E 0 90 42 60
        E 180 80 42 00
        <X 60 0
          /wVjYW4t
        >
        E 0 90 42 60
        E 150 80 42 00
        <X 90 0
          /wVzYXI=
        >
        E 0 90 45 60
        E 150 80 45 00
        <X 90 0
          /wVlbQ==
        >
        E 0 90 42 60
        E 120 80 42 00
        <X 120 0
          /wVwYXoh
        >
        E 0 90 44 60
        E 780 80 44 00
        <X 180 0
          /wFbaWRsZV0=
        >
        E 0 80 69 00
        E 0 80 74 00
        E 6240 90 69 60
        <X 240 0
          /wFbcGxheV0=
        >
        <X 0 0
          /wVRdWVt
        >
        E 0 90 44 60
        E 90 80 44 00
        <X 30 0
          /wVuw6Nv
        >
        E 0 90 43 60
        E 60 80 43 00
        <X 60 0
          /wV0ZW0=
        >
        E 0 90 44 60
        E 90 80 44 00
        <X 30 0
          /wV0ZS0=
        >
        E 0 90 44 60
        E 60 80 44 00
        <X 60 0
          /wV0bw==
        >
        E 0 90 44 60
        E 60 80 44 00
        <X 60 0
          /wVkZQ==
        >
        E 0 90 44 60
        E 30 80 44 00
        <X 90 0
          /wV2aS0=
        >
        E 0 90 44 60
        E 90 80 44 00
        <X 30 0
          /wVkcm8=
        >
        E 0 90 44 60
        E 60 80 44 00
        <X 60 0
          /wVxdWXCp2Et
        >
        E 0 90 44 60
        E 60 80 44 00
        <X 60 0
          /wV0aS0=
        >
        E 0 90 44 60
        E 90 80 44 00
        <X 30 0
          /wVyZcKnYQ==
        >
        E 0 90 44 60
        E 30 80 44 00
        <X 90 0
          /wVwcmkt
        >
        E 0 90 42 60
        E 60 80 42 00
        <X 60 0
          /wVtZWkt
        >
        E 0 90 42 60
        E 60 80 42 00
        <X 60 0
          /wVyYQ==
        >
        E 0 90 42 60
        E 60 80 42 00
        <X 60 0
          /wVwZS0=
        >
        E 0 90 40 60
        E 180 80 40 00
        <X 60 0
          /wVkcmE=
        >
        E 0 90 42 60
        E 180 80 42 00
        <X 60 0
          /wUr
        >
        E 0 90 40 60
        E 870 80 40 00
        <X 90 0
          /wUr
        >
        E 0 90 42 60
        E 240 80 42 00
        E 240 80 69 00
        E 0 90 69 60
        <X 240 0
          /wVRdWVt
        >
        E 0 90 3d 60
        E 60 80 3d 00
        <X 60 0
          /wVuw6Nv
        >
        E 0 90 3b 60
        E 60 80 3b 00
        <X 60 0
          /wV0ZW0=
        >
        E 0 90 44 60
        E 90 80 44 00
        <X 30 0
          /wV0ZS0=
        >
        E 0 90 44 60
        E 60 80 44 00
        <X 60 0
          /wV0bw==
        >
        E 0 90 44 60
        E 60 80 44 00
        <X 60 0
          /wVkZQ==
        >
        E 0 90 44 60
        E 30 80 44 00
        <X 90 0
          /wV2aS0=
        >
        E 0 90 44 60
        E 90 80 44 00
        <X 30 0
          /wVkcm8=
        >
        E 0 90 44 60
        E 60 80 44 00
        <X 60 0
          /wVxdWXCp2Et
        >
        E 0 90 44 60
        E 60 80 44 00
        <X 60 0
          /wV0aS0=
        >
        E 0 90 44 60
        E 90 80 44 00
        <X 30 0
          /wVyZcKnYQ==
        >
        E 0 90 44 60
        E 30 80 44 00
        <X 90 0
          /wVwcmkt
        >
        E 0 90 42 60
        E 60 80 42 00
        <X 60 0
          /wVtZWkt
        >
        E 0 90 42 60
        E 60 80 42 00
        <X 60 0
          /wVyYQ==
        >
        E 0 90 42 60
        E 60 80 42 00
        <X 60 0
          /wVwZS0=
        >
        E 0 90 40 60
        E 180 80 40 00
        <X 60 0
          /wVkcmE=
        >
        E 0 90 42 60
        E 180 80 42 00
        <X 60 0
          /wUr
        >
        E 0 90 40 60
        E 870 80 40 00
        <X 90 0
          /wUr
        >
        E 0 90 3b 60
        E 270 80 3b 00
        E 180 80 69 00
        E 0 90 69 60
        E 0 90 74 60
        <X 30 0
          /wVRdWVtIw==
        >
        E 0 90 44 60
        E 120 80 44 00
        <X 120 0
          /wVuw6NvIw==
        >
        E 0 90 44 60
        E 120 80 44 00
        <X 120 0
          /wV0ZW0=
        >
        E 0 90 44 60
        E 90 80 44 00
        <X 30 0
          /wV0ZS0=
        >
        E 0 90 44 60
        E 60 80 44 00
        <X 60 0
          /wV0bw==
        >
        E 0 90 44 60
        E 60 80 44 00
        <X 60 0
          /wVkZQ==
        >
        E 0 90 44 60
        E 30 80 44 00
        <X 90 0
          /wV2aS0=
        >
        E 0 90 44 60
        E 90 80 44 00
        <X 30 0
          /wVkcm8=
        >
        E 0 90 44 60
        E 60 80 44 00
        <X 60 0
          /wVxdWXCp2Et
        >
        E 0 90 47 60
        E 60 80 47 00
        <X 60 0
          /wV0aS0=
        >
        E 0 90 44 60
        E 90 80 44 00
        <X 30 0
          /wVyZcKnYQ==
        >
        E 0 90 44 60
        E 30 80 44 00
        <X 90 0
          /wVwcmkt
        >
        E 0 90 42 60
        E 60 80 42 00
        <X 60 0
          /wVtZWkt
        >
        E 0 90 42 60
        E 60 80 42 00
        <X 60 0
          /wVyYQ==
        >
        E 0 90 42 60
        E 60 80 42 00
        <X 60 0
          /wVwZS0=
        >
        E 0 90 40 60
        E 180 80 40 00
        <X 60 0
          /wVkcmE=
        >
        E 0 90 42 60
        E 180 80 42 00
        <X 60 0
          /wUr
        >
        E 0 90 40 60
        E 870 80 40 00
        <X 90 0
          /wUr
        >
        E 0 90 42 60
        E 240 80 42 00
        E 240 80 69 00
        E 0 80 74 00
        <X 240 0
          /wVRdWVt
        >
        E 0 90 3d 60
        E 0 90 69 60
        E 60 80 3d 00
        <X 60 0
          /wVuw6Nv
        >
        E 0 90 3b 60
        E 60 80 3b 00
        <X 60 0
          /wV0ZW0=
        >
        E 0 90 44 60
        E 90 80 44 00
        <X 30 0
          /wV0ZS0=
        >
        E 0 90 44 60
        E 60 80 44 00
        <X 60 0
          /wV0bw==
        >
        E 0 90 44 60
        E 90 80 44 00
        <X 30 0
          /wVkZQ==
        >
        E 0 90 44 60
        E 30 80 44 00
        <X 90 0
          /wV2aS0=
        >
        E 0 90 44 60
        E 90 80 44 00
        <X 30 0
          /wVkcm8=
        >
        E 0 90 44 60
        E 60 80 44 00
        <X 60 0
          /wVxdWXCp2Et
        >
        E 0 90 47 60
        E 60 80 47 00
        <X 60 0
          /wV0aS0=
        >
        E 0 90 44 60
        E 90 80 44 00
        <X 30 0
          /wVyZcKnYQ==
        >
        E 0 90 44 60
        E 30 80 44 00
        <X 90 0
          /wVwcmkt
        >
        E 0 90 42 60
        E 60 80 42 00
        <X 60 0
          /wVtZWkt
        >
        E 0 90 42 60
        E 60 80 42 00
        <X 60 0
          /wVyYQ==
        >
        E 0 90 42 60
        E 60 80 42 00
        <X 60 0
          /wVwZS0=
        >
        E 0 90 40 60
        E 180 80 40 00
        <X 60 0
          /wVkcmE=
        >
        E 0 90 42 60
        E 180 80 42 00
        <X 60 0
          /wUr
        >
        E 0 90 40 60
        E 870 80 40 00
        <X 90 0
          /wUr
        >
        E 0 90 3b 60
        E 330 80 3b 00
        E 150 80 69 00
        E 0 90 69 60
        <X 360 0
          /wVOYQ==
        >
        E 0 90 44 60
        E 90 80 44 00
        <X 30 0
          /wVmcmVuLQ==
        >
        E 0 90 44 60
        E 90 80 44 00
        <X 30 0
          /wV0ZQ==
        >
        E 0 90 44 60
        E 60 80 44 00
        <X 60 0
          /wV0w6E=
        >
        E 0 90 44 60
        E 90 80 44 00
        <X 30 0
          /wVv
        >
        E 0 90 44 60
        E 90 80 44 00
        <X 30 0
          /wVhbC0=
        >
        E 0 90 44 60
        E 90 80 44 00
        <X 30 0
          /wV2bw==
        >
        E 0 90 44 60
        E 60 80 44 00
        E 15 90 01 60
        E 15 80 01 00
        <X 30 0
          /wVxdWU=
        >
        E 0 90 44 60
        E 90 80 44 00
        <X 30 0
          /wVzZcKnYXIt
        >
        E 0 90 44 60
        E 90 80 44 00
        <X 30 0
          /wVyaXMt
        >
        E 0 90 44 60
        E 90 80 44 00
        <X 30 0
          /wVjYQ==
        >
        E 0 90 44 60
        E 90 80 44 00
        <X 30 0
          /wVwZS0=
        >
        E 0 90 42 60
        E 90 80 42 00
        <X 30 0
          /wVsYQ==
        >
        E 0 90 42 60
        E 90 80 42 00
        <X 30 0
          /wVsaS0=
        >
        E 0 90 40 60
        E 90 80 40 00
        <X 30 0
          /wVuaGE=
        >
        E 0 90 40 60
        E 60 80 40 00
        E 60 80 69 00
        E 0 90 69 60
        <X 120 0
          /wVOw6Nv
        >
        E 0 90 3b 60
        E 60 80 3b 00
        <X 60 0
          /wXDqQ==
        >
        E 0 90 44 60
        E 90 80 44 00
        <X 30 0
          /wV0w6Nv
        >
        E 0 90 44 60
        E 90 80 44 00
        <X 30 0
          /wVkaS0=
        >
        E 0 90 44 60
        E 90 80 44 00
        <X 30 0
          /wVmZS0=
        >
        E 0 90 44 60
        E 90 80 44 00
        <X 30 0
          /wVyZW4t
        >
        E 0 90 44 60
        E 90 80 44 00
        <X 30 0
          /wV0ZQ==
        >
        E 0 90 44 60
        E 60 80 44 00
        <X 60 0
          /wVkbw==
        >
        E 0 90 44 60
        E 90 80 44 00
        <X 30 0
          /wVxdWXCp2V1Iw==
        >
        E 0 90 47 60
        E 150 80 47 00
        <X 90 0
          /wVqw6E=
        >
        E 0 90 40 60
        E 30 80 40 00
        <X 90 0
          /wVmdWk=
        >
        E 0 90 40 60
        E 60 80 40 00
        <X 60 0
          /wV1bQ==
        >
        E 0 90 3d 60
        E 60 80 3d 00
        <X 60 0
          /wVkaS0=
        >
        E 0 90 40 60
        E 90 80 40 00
        <X 30 0
          /wVh
        >
        E 0 90 40 60
        E 60 80 40 00
        E 60 80 69 00
        E 0 90 69 60
        <X 120 0
          /wVTZQ==
        >
        E 0 90 3b 60
        E 60 80 3b 00
        <X 20 0
          /wV2YWk=
        >
        E 0 90 3d 60
        E 100 80 3d 00
        <X 100 0
          /wVmaS0=
        >
        E 0 90 40 60
        E 50 80 40 00
        <X 30 0
          /wVjYXI=
        >
        E 0 90 40 60
        E 90 80 40 00
        E 150 90 01 60
        E 15 80 01 00
        <X 145 0
          /wVzZQ==
        >
        E 0 90 40 60
        E 30 80 40 00
        <X 50 0
          /wV2YWk=
        >
        E 0 90 40 60
        E 90 80 40 00
        <X 70 0
          /wVwYXMt
        >
        E 0 90 3d 60
        E 30 80 3d 00
        <X 50 0
          /wVzYXI=
        >
        E 0 90 40 60
        E 90 80 40 00
        E 60 90 01 60
        E 15 80 01 00
        <X 75 0
          /wVuw6Nv
        >
        E 0 90 40 60
        E 90 80 40 00
        <X 150 0
          /wVzZWkh
        >
        E 0 90 40 60
        E 90 80 40 00
        E 150 80 69 00
        E 0 90 69 60
        <X 160 0
          /wVF
        >
        E 0 90 40 60
        E 30 80 40 00
        <X 50 0
          /wVudW0=
        >
        E 0 90 40 60
        E 40 80 40 00
        <X 120 0
          /wVwaXMt
        >
        E 0 90 40 60
        E 40 80 40 00
        <X 40 0
          /wVjYXI=
        >
        E 0 90 40 60
        E 30 80 40 00
        <X 130 0
          /wVkZQ==
        >
        E 0 90 40 60
        E 40 80 40 00
        <X 40 0
          /wVvLQ==
        >
        E 0 90 40 60
        E 60 80 40 00
        <X 60 0
          /wVsaG9z
        >
        E 0 90 40 60
        E 60 80 40 00
        E 15 90 01 60
        E 15 80 01 00
        <X 30 0
          /wVsZW0t
        >
        E 0 90 40 60
        E 100 80 40 00
        <X 60 0
          /wVicm8=
        >
        E 0 90 40 60
        E 40 80 40 00
        <X 40 0
          /wV0YW4t
        >
        E 0 90 45 60
        E 80 80 45 00
        <X 80 0
          /wV0bw==
        >
        E 0 90 44 60
        E 30 80 44 00
        <X 50 0
          /wVxdWU=
        >
        E 0 90 44 60
        E 60 80 44 00
        <X 100 0
          /wVmYS0=
        >
        E 0 90 42 60
        E 30 80 42 00
        <X 50 0
          /wVsZWk=
        >
        E 0 90 44 60
        E 40 80 44 00
        E 80 80 69 00
        E 0 90 69 60
        <X 120 0
          /wVEZWkt
        >
        E 0 90 42 60
        E 60 80 42 00
        <X 100 0
          /wV4ZWk=
        >
        E 0 90 44 60
        E 100 80 44 00
        E 40 90 01 60
        E 15 80 01 00
        <X 45 0
          /wVjYS0=
        >
        E 0 90 45 60
        E 60 80 45 00
        <X 60 0
          /wVsZWk=
        >
        E 0 90 44 60
        E 100 80 44 00
        E 140 90 01 60
        E 15 80 01 00
        <X 105 0
          /wVlwqdhLQ==
        >
        E 0 90 44 60
        E 60 80 44 00
        <X 60 0
          /wV0w6k=
        >
        E 0 90 44 60
        E 90 80 44 00
        <X 70 0
          /wVtZQ==
        >
        E 0 90 42 60
        E 30 80 42 00
        <X 50 0
          /wVpbS0=
        >
        E 0 90 44 60
        E 120 80 44 00
        <X 120 0
          /wVwb3It
        >
        E 0 90 45 60
        E 150 80 45 00
        <X 90 0
          /wV0ZWk=
        >
        E 0 90 44 60
        E 60 80 44 00
        E 30 80 69 00
        E 0 90 69 60
        E 0 90 74 60
        <X 30 0
          /wVNYXM=
        >
        E 0 90 44 60
        E 60 80 44 00
        <X 60 0
          /wVuw6Nv
        >
        E 0 90 44 60
        E 60 80 44 00
        <X 100 0
          /wV0ZW0=
        >
        E 0 90 42 60
        E 110 80 42 00
        <X 130 0
          /wVuYS0=
        >
        E 0 90 44 60
        E 110 80 44 00
        <X 90 0
          /wVkYQ==
        >
        E 0 90 3d 60
        E 30 80 3d 00
        E 90 90 01 60
        E 15 80 01 00
        <X 145 0
          /wVldQ==
        >
        E 0 90 44 60
        E 30 80 44 00
        <X 50 0
          /wV0YS0=
        >
        E 0 90 44 60
        E 90 80 44 00
        <X 30 0
          /wV2YQ==
        >
        E 0 90 44 60
        E 60 80 44 00
        <X 60 0
          /wVtZXMt
        >
        E 0 90 43 60
        E 60 80 43 00
        <X 60 0
          /wVtb8KnZXIt
        >
        E 0 90 44 60
        E 90 80 44 00
        <X 30 0
          /wVyYS0=
        >
        E 0 90 44 60
        E 120 80 44 00
        <X 120 0
          /wVkYSM=
        >
        E 0 90 44 60
        E 240 80 44 00
        E 210 80 69 00
        E 0 80 74 00
        E 0 90 69 60
        <X 30 0
          /wVDYS0=
        >
        E 0 90 44 60
        E 60 80 44 00
        <X 60 0
          /wVkYQ==
        >
        E 0 90 44 60
        E 60 80 44 00
        <X 60 0
          /wV1bQ==
        >
        E 0 90 42 60
        E 60 80 42 00
        <X 60 0
          /wVlbQ==
        >
        E 0 90 42 60
        E 45 80 42 00
        <X 75 0
          /wVzZXU=
        >
        E 0 90 40 60
        E 60 80 40 00
        <X 60 0
          /wVjYS0=
        >
        E 0 90 40 60
        E 60 80 40 00
        <X 60 0
          /wVzdS0=
        >
        E 0 90 3d 60
        E 60 80 3d 00
        <X 60 0
          /wVsb8KnZW0=
        >
        E 0 90 3d 60
        E 45 80 3d 00
        <X 75 0
          /wVzdS0=
        >
        E 0 90 44 60
        E 75 80 44 00
        <X 45 0
          /wVh
        >
        E 0 90 44 60
        E 60 80 44 00
        <X 60 0
          /wVkaS0=
        >
        E 0 90 42 60
        E 60 80 42 00
        <X 45 0
          /wVyZS0=
        >
        E 0 90 42 60
        E 60 80 42 00
        <X 75 0
          /wXDp8Ojbw==
        >
        E 0 90 40 60
        E 60 80 40 00
        E 180 80 69 00
        E 0 90 69 60
        <X 120 0
          /wVWZW4t
        >
        E 0 90 40 60
        E 60 80 40 00
        <X 60 0
          /wVkbw==
        >
        E 0 90 40 60
        E 60 80 40 00
        <X 60 0
          /wVkZQ==
        >
        E 0 90 40 60
        E 45 80 40 00
        <X 75 0
          /wVjYS0=
        >
        E 0 90 40 60
        E 75 80 40 00
        <X 45 0
          /wVtYS0=
        >
        E 0 90 40 60
        E 75 80 40 00
        <X 45 0
          /wVyby0=
        >
        E 0 90 3f 60
        E 75 80 3f 00
        <X 45 0
          /wV0ZcKnYQ==
        >
        E 0 90 3d 60
        E 60 80 3d 00
        <X 60 0
          /wVuby0=
        >
        E 0 90 3f 60
        E 90 80 3f 00
        <X 30 0
          /wV2ZS0=
        >
        E 0 90 40 60
        E 90 80 40 00
        <X 30 0
          /wVsYQ==
        >
        E 0 90 40 60
        E 90 80 40 00
        <X 30 0
          /wVkYQ==
        >
        E 0 90 40 60
        E 60 80 40 00
        <X 60 0
          /wV2aS0=
        >
        E 0 90 40 60
        E 75 80 40 00
        <X 45 0
          /wVkYcKnYS0=
        >
        E 0 90 40 60
        E 90 80 40 00
        <X 30 0
          /wVsaGUt
        >
        E 0 90 40 60
        E 75 80 40 00
        <X 45 0
          /wVpYQ==
        >
        E 0 90 40 60
        E 75 80 40 00
        E 30 80 69 00
        E 0 90 69 60
        <X 15 0
          /wVTdS0=
        >
        E 0 90 40 60
        E 75 80 40 00
        <X 45 0
          /wVnZS0=
        >
        E 0 90 3f 60
        E 75 80 3f 00
        <X 45 0
          /wVyaW4t
        >
        E 0 90 40 60
        E 75 80 40 00
        <X 45 0
          /wVkbw==
        >
        E 0 90 40 60
        E 60 80 40 00
        <X 60 0
          /wVzby0=
        >
        E 0 90 40 60
        E 75 80 40 00
        <X 45 0
          /wVsdS0=
        >
        E 0 90 40 60
        E 45 80 40 00
        <X 75 0
          /wXDp8O1ZXM=
        >
        E 0 90 40 60
        E 150 80 40 00
        E 30 90 01 60
        E 15 80 01 00
        <X 45 0
          /wVkaXMt
        >
        E 0 90 40 60
        E 75 80 40 00
        <X 45 0
          /wVjdS0=
        >
        E 0 90 40 60
        E 60 80 40 00
        <X 60 0
          /wV0aW4t
        >
        E 0 90 40 60
        E 120 80 40 00
        <X 40 0
          /wVkbw==
        >
        E 0 90 42 60
        E 35 80 42 00
        <X 45 0
          /wVyZS0=
        >
        E 0 90 40 60
        E 75 80 40 00
        <X 45 0
          /wVsYS0=
        >
        E 0 90 40 60
        E 45 80 40 00
        <X 75 0
          /wXDp8O1ZXM=
        >
        E 0 90 40 60
        E 105 80 40 00
        E 135 80 69 00
        E 0 90 69 60
        <X 160 0
          /wVCZW0=
        >
        E 0 90 3d 60
        E 50 80 3d 00
        <X 30 0
          /wVjZXIt
        >
        E 0 90 44 60
        E 75 80 44 00
        <X 85 0
          /wV0b3M=
        >
        E 0 90 44 60
        E 30 80 44 00
        <X 50 0
          /wVxdWXCp2E=
        >
        E 0 90 44 60
        E 75 80 44 00
        <X 85 0
          /wV2ZXIt
        >
        E 0 90 44 60
        E 30 80 44 00
        <X 50 0
          /wVkYS0=
        >
        E 0 90 44 60
        E 75 80 44 00
        <X 85 0
          /wVkZQ==
        >
        E 0 90 44 60
        E 30 80 44 00
        <X 50 0
          /wVjYS0=
        >
        E 0 90 44 60
        E 75 80 44 00
        <X 85 0
          /wViZQ==
        >
        E 0 90 44 60
        E 30 80 44 00
        <X 50 0
          /wVuYQ==
        >
        E 0 90 44 60
        E 75 80 44 00
        <X 85 0
          /wVwYWwt
        >
        E 0 90 42 60
        E 35 80 42 00
        <X 45 0
          /wVtYQ==
        >
        E 0 90 44 60
        E 135 80 44 00
        <X 60 0
          /wVkYQ==
        >
        E 0 90 42 60
        E 120 80 42 00
        <X 85 0
          /wVtw6Nv
        >
        E 0 90 44 60
        E 80 80 44 00
        E 105 80 69 00
        E 0 90 69 60
        E 0 90 74 60
        <X 15 0
          /wVNYXM=
        >
        E 0 90 3d 60
        E 30 80 3d 00
        <X 90 0
          /wVpcy0=
        >
        E 0 90 44 60
        E 75 80 44 00
        <X 85 0
          /wVzbw==
        >
        E 0 90 44 60
        E 110 80 44 00
        <X 50 0
          /wVuw6Nv
        >
        E 0 90 47 60
        E 55 80 47 00
        <X 105 0
          /wXDqQ==
        >
        E 0 90 44 60
        E 210 80 44 00
        <X 390 0
          /wV1LQ==
        >
        E 0 90 44 60
        E 75 80 44 00
        <X 45 0
          /wVtYQ==
        >
        E 0 90 44 60
        E 75 80 44 00
        <X 45 0
          /wVxdWVzLQ==
        >
        E 0 90 44 60
        E 45 80 44 00
        <X 75 0
          /wV0w6Nv
        >
        E 0 90 44 60
        E 75 80 44 00
        <X 45 0
          /wVkZcKnby0=
        >
        E 0 90 44 60
        E 60 80 44 00
        <X 60 0
          /wVwaS0=
        >
        E 0 90 44 60
        E 75 80 44 00
        <X 45 0
          /wVuaS0=
        >
        E 0 90 42 60
        E 75 80 42 00
        <X 45 0
          /wXDo28=
        >
        E 0 90 44 60
        E 240 80 44 00
        E 240 80 69 00
        E 0 80 74 00
        E 960 90 69 60
        <X 360 0
          /wVNYXM=
        >
        E 0 90 44 60
        E 60 80 44 00
        <X 60 0
          /wVpcy0=
        >
        E 0 90 44 60
        E 105 80 44 00
        <X 55 0
          /wVzbw==
        >
        E 0 90 44 60
        E 80 80 44 00
        <X 80 0
          /wVuw6Nv
        >
        E 0 90 44 60
        E 100 80 44 00
        <X 60 0
          /wXDqQ==
        >
        E 0 90 42 60
        E 30 80 42 00
        <X 30 0
          /wUr
        >
        E 0 90 44 60
        E 180 80 44 00
        <X 360 0
          /wV1LQ==
        >
        E 0 90 44 60
        E 75 80 44 00
        <X 45 0
          /wVtYQ==
        >
        E 0 90 44 60
        E 75 80 44 00
        <X 45 0
          /wVxdWVzLQ==
        >
        E 0 90 44 60
        E 60 80 44 00
        <X 60 0
          /wV0w6Nv
        >
        E 0 90 44 60
        E 75 80 44 00
        <X 45 0
          /wVkZcKnby0=
        >
        E 0 90 45 60
        E 75 80 45 00
        <X 45 0
          /wVwaS0=
        >
        E 0 90 44 60
        E 75 80 44 00
        <X 45 0
          /wVuaS0=
        >
        E 0 90 42 60
        E 75 80 42 00
        <X 45 0
          /wXDo28=
        >
        E 0 90 44 60
        E 255 80 44 00
        E 225 80 69 00
        E 960 90 69 60
        <X 360 0
          /wVF
        >
        E 0 90 44 60
        E 60 80 44 00
        <X 60 0
          /wVpcy0=
        >
        E 0 90 44 60
        E 105 80 44 00
        <X 55 0
          /wVzbw==
        >
        E 0 90 3d 60
        E 30 80 3d 00
        <X 170 0
          /wXDqQ==
        >
        E 0 90 44 60
        E 75 80 44 00
        <X 45 0
          /wVzw7M=
        >
        E 0 90 44 60
        E 165 80 44 00
        <X 435 0
          /wV1LQ==
        >
        E 0 90 44 60
        E 75 80 44 00
        <X 45 0
          /wVtYQ==
        >
        E 0 90 44 60
        E 60 80 44 00
        <X 60 0
          /wVxdWVzLQ==
        >
        E 0 90 44 60
        E 75 80 44 00
        <X 45 0
          /wV0w6Nv
        >
        E 0 90 44 60
        E 75 80 44 00
        <X 45 0
          /wVkZcKnby0=
        >
        E 0 90 44 60
        E 75 80 44 00
        <X 45 0
          /wVwaS0=
        >
        E 0 90 44 60
        E 75 80 44 00
        <X 45 0
          /wVuaS0=
        >
        E 0 90 42 60
        E 60 80 42 00
        <X 60 0
          /wXDo28=
        >
        E 0 90 44 60
        E 195 80 44 00
        <X 292 0
          /wFbaWRsZV9yZWFsdGltZV0=
        >
        E 473 80 69 00
        E 6720 b0 7b 00
        GUID {96B55A8F-921C-435A-AE74-1C9A03E07E56}
        IGNTEMPO 0 120.00000000 4 4
        SRCCOLOR 1
        VELLANE 132 128 60
        COLORMAP "C:\Program Files\REAPER (x64)\Data\color_maps\rockband_guitarbass.png"
        CFGEDITVIEW 148599.421403 103.817794 0 12 0 0 0
        CFGEDIT 1 1 0 0 0 1 1 1 1 1 1 0.06250000 218 89 1318 789 0 2 2 2 0.00000000 0 0 1 0 0.500000 1 0 1.000000 64
        KEYSNAP 0 0 "102034050607" 0 "Major"
        EVTFILTER 1 -1 -1 -1 -1 0 1 0 0 -1.00000000 -1.00000000
      >
    >
  >
  <TRACK '{0041FC9B-9E8A-43E3-B33F-06571A944063}'
    NAME "vocals"
    PEAKCOL 16576
    BEAT -1
    AUTOMODE 0
    VOLPAN 1.00000000000000 0.00000000000000 -1.00000000000000 -1.00000000000000 1.00000000000000
    MUTESOLO 0 0 0
    IPHASE 0
    ISBUS 2 -1
    BUSCOMP 0 0
    SHOWINMIX 1 0.666700 0.500000 1 0.500000 -1 -1 -1
    FREEMODE 0
    SEL 1
    REC 0 0 0 0 0 0 0
    VU 2
    TRACKHEIGHT 0 0
    INQ 0 0 0 0.5000000000 100 0 0 100
    NCHAN 2
    FX 1
    TRACKID {0041FC9B-9E8A-43E3-B33F-06571A944063}
    PERF 0
    MIDIOUT -1
    MAINSEND 1 0
    <ITEM
      POSITION 0.00000000000000
      SNAPOFFS 0.00000000000000
      LENGTH 215.03693877551021
      LOOP 0
      ALLTAKES 0
      SEL 0
      FADEIN 1 0.000000 0.000000 1 0
      FADEOUT 1 0.000000 0.000000 1 0
      MUTE 0
      IGUID {A4493E9A-58EC-4808-97A0-C848E0656E2B}
      IID 90
      NAME "vocals.wav"
      VOLPAN 1.000000 0.000000 1.000000 -1.000000
      SOFFS 0.00000000000000
      PLAYRATE 1.00000000000000 1 0.00000000000000 -1
      CHANMODE 0
      GUID {04152FF1-27C3-4E61-AC1D-6697755280EA}
      <SOURCE WAVE
        FILE "wav\vocals.wav"
      >
    >
  >
  <TRACK '{96682D6E-9DCD-41BF-82A7-FC344911EF3D}'
    NAME "PART REAL_BASS"
    PEAKCOL 16576
    BEAT -1
    AUTOMODE 0
    VOLPAN 1.00000000000000 0.00000000000000 -1.00000000000000 -1.00000000000000 1.00000000000000
    MUTESOLO 1 0 0
    IPHASE 0
    ISBUS 0 0
    BUSCOMP 0 0
    SHOWINMIX 1 0.666700 0.500000 1 0.500000 -1 -1 -1
    FREEMODE 0
    SEL 0
    REC 0 0 0 0 0 0 0
    VU 2
    TRACKHEIGHT 0 0
    INQ 0 0 0 0.5000000000 100 0 0 100
    NCHAN 2
    FX 0
    TRACKID {96682D6E-9DCD-41BF-82A7-FC344911EF3D}
    PERF 0
    MIDIOUT -1
    MAINSEND 1 0
    <FXCHAIN
      WNDRECT 136 24 1176 777
      SHOW 0
      LASTSEL 0
      DOCKED 0
    >
    <ITEM
      POSITION 0.00000000000000
      SNAPOFFS 0.00000000000000
      LENGTH 212.53693832905063
      LOOP 0
      ALLTAKES 0
      SEL 0
      FADEIN 1 0.000000 0.000000 1 0
      FADEOUT 1 0.000000 0.000000 1 0
      MUTE 0
      IGUID {9FCC8D46-644F-4A2C-A968-3AFA8EE810D9}
      IID 34
      NAME "PART REAL_BASS"
      VOLPAN 1.000000 0.000000 1.000000 -1.000000
      SOFFS 0.00000000000000 0.00000000000000
      PLAYRATE 1.00000000000000 1 0.00000000000000 -1
      CHANMODE 0
      GUID {1C243548-E148-4C0A-91EB-E71E7C9A05A7}
      <SOURCE MIDI
        HASDATA 1 480 QN
        POOLEDEVTS {A8892481-25B3-48A0-8964-55F4876EBF72}
        <X 0 0
          /wNQQVJUIFJFQUxfQkFTUw==
        >
        <X 3840 0
          /wFbYmVnaW5fcGIgc29uZ190cmFpbmVyX3BiXzFd
        >
        E 0 90 61 68
        e 0 90 6c 66
        e 120 80 6c 00
        E 1200 80 61 00
        E 120 90 61 68
        E 0 90 67 69
        E 420 80 61 00
        E 0 80 67 00
        <X 60 0
          /wFbcGJfbm9ybSBzb25nX3RyYWluZXJfcGJfMV0=
        >
        E 0 90 61 64
        E 840 80 61 00
        E 120 90 61 66
        E 840 80 61 00
        E 120 90 61 68
        E 1320 80 61 00
        E 120 90 61 68
        E 0 90 67 6b
        E 420 80 61 00
        E 0 80 67 00
        E 60 90 61 64
        E 840 80 61 00
        E 120 90 61 66
        E 840 80 61 00
        <X 120 0
          /wFbZW5kX3BiIHNvbmdfdHJhaW5lcl9wYl8xXQ==
        >
        E 0 90 61 68
        E 1320 80 61 00
        E 120 90 61 68
        E 0 90 67 6b
        E 420 80 61 00
        E 0 80 67 00
        E 60 90 61 64
        E 840 80 61 00
        E 120 90 61 66
        E 840 80 61 00
        E 120 90 61 68
        E 1320 80 61 00
        E 120 90 61 68
        E 0 90 67 6b
        E 420 80 61 00
        E 0 80 67 00
        E 60 90 61 64
        E 840 80 61 00
        E 120 90 61 66
        E 600 80 61 00
        E 120 90 61 66
        E 0 90 67 6b
        E 180 80 61 00
        E 0 80 67 00
        E 60 90 61 68
        E 3720 80 61 00
        <X 120 0
          /wFbYmVnaW5fcGIgc29uZ190cmFpbmVyX3BiXzJd
        >
        E 0 90 61 68
        E 360 80 61 00
        E 120 90 61 68
        E 360 80 61 00
        E 120 90 61 68
        E 360 80 61 00
        E 120 90 61 68
        E 360 80 61 00
        <X 120 0
          /wFbcGJfbm9ybSBzb25nX3RyYWluZXJfcGJfMl0=
        >
        E 0 90 61 64
        E 360 80 61 00
        E 120 90 61 64
        E 360 80 61 00
        E 120 90 61 66
        E 120 80 61 00
        E 120 90 61 66
        E 120 80 61 00
        E 120 90 61 66
        E 360 80 61 00
        E 120 90 61 68
        E 360 80 61 00
        E 120 90 61 68
        E 360 80 61 00
        E 120 90 61 68
        E 360 80 61 00
        E 120 90 61 68
        E 360 80 61 00
        E 120 90 61 64
        E 360 80 61 00
        E 120 90 61 64
        E 360 80 61 00
        E 120 90 61 66
        E 120 80 61 00
        E 120 90 61 66
        E 120 80 61 00
        E 120 90 61 66
        E 360 80 61 00
        <X 120 0
          /wFbZW5kX3BiIHNvbmdfdHJhaW5lcl9wYl8yXQ==
        >
        E 0 90 61 68
        E 360 80 61 00
        E 120 90 61 68
        E 360 80 61 00
        E 120 90 61 68
        E 120 80 61 00
        E 120 90 61 68
        E 120 80 61 00
        E 120 90 61 68
        E 360 80 61 00
        E 120 90 61 64
        E 360 80 61 00
        E 120 90 61 64
        E 360 80 61 00
        E 120 90 61 66
        E 120 80 61 00
        E 120 90 61 66
        E 120 80 61 00
        E 120 90 61 66
        E 360 80 61 00
        E 120 90 61 68
        E 360 80 61 00
        E 120 90 61 68
        E 360 80 61 00
        E 120 90 61 68
        E 120 80 61 00
        E 120 90 61 68
        E 120 80 61 00
        E 120 90 61 68
        E 360 80 61 00
        E 120 90 61 64
        E 360 80 61 00
        E 120 90 61 64
        E 360 80 61 00
        E 120 90 61 66
        E 120 80 61 00
        E 120 90 61 66
        E 120 80 61 00
        E 120 90 61 66
        E 360 80 61 00
        <X 120 0
          /wFbYmVnaW5fcGIgc29uZ190cmFpbmVyX3BiXzNd
        >
        E 0 90 61 66
        E 120 80 61 00
        E 120 90 61 68
        E 120 80 61 00
        <X 1560 0
          /wFbcGJfbm9ybSBzb25nX3RyYWluZXJfcGJfM10=
        >
        E 0 90 61 64
        E 120 80 61 00
        E 120 90 61 64
        E 120 80 61 00
        E 1560 90 61 66
        E 120 80 61 00
        E 120 90 61 68
        E 120 80 61 00
        E 1560 90 61 64
        E 120 80 61 00
        <X 1800 0
          /wFbZW5kX3BiIHNvbmdfdHJhaW5lcl9wYl8zXQ==
        >
        <X 0 0
          /wFbYmVnaW5fcGIgc29uZ190cmFpbmVyX3BiXzRd
        >
        E 0 90 61 64
        E 120 80 61 00
        E 120 90 61 64
        E 720 80 61 00
        E 120 90 62 66
        E 120 80 62 00
        E 240 90 63 68
        E 120 80 63 00
        E 120 90 62 68
        E 120 80 62 00
        <X 120 0
          /wFbcGJfbm9ybSBzb25nX3RyYWluZXJfcGJfNF0=
        >
        E 0 90 63 65
        e 0 90 6c 65
        E 120 80 63 00
        e 0 80 6c 00
        E 120 90 62 65
        E 120 80 62 00
        E 1560 90 61 64
        e 0 90 6c 66
        E 120 80 61 00
        e 0 80 6c 00
        E 120 90 61 64
        E 720 80 61 00
        E 120 90 62 66
        E 120 80 62 00
        E 240 90 63 68
        E 120 80 63 00
        E 120 90 62 68
        E 120 80 62 00
        E 120 90 61 66
        E 120 80 61 00
        E 120 90 62 68
        E 120 80 62 00
        E 120 90 63 68
        E 120 80 63 00
        E 120 90 62 68
        E 120 80 62 00
        E 120 90 63 69
        e 0 90 6c 67
        E 120 80 63 00
        e 0 80 6c 00
        E 120 90 62 69
        E 120 80 62 00
        E 120 90 61 67
        E 360 80 61 00
        <X 120 0
          /wFbZW5kX3BiIHNvbmdfdHJhaW5lcl9wYl80XQ==
        >
        E 0 90 61 68
        e 0 90 6c 66
        E 120 80 61 00
        e 0 80 6c 00
        E 120 90 61 68
        E 120 80 61 00
        E 120 90 61 68
        E 120 80 61 00
        E 120 90 61 68
        E 120 80 61 00
        E 120 90 61 66
        E 120 80 61 00
        E 120 90 61 66
        E 120 80 61 00
        E 120 90 61 66
        E 120 80 61 00
        E 120 90 61 66
        E 120 80 61 00
        E 120 90 61 64
        E 120 80 61 00
        E 120 90 61 64
        E 120 80 61 00
        E 120 90 61 64
        E 120 80 61 00
        E 120 90 61 64
        E 120 80 61 00
        E 120 90 61 66
        E 120 80 61 00
        E 120 90 61 66
        E 120 80 61 00
        E 120 90 61 66
        E 120 80 61 00
        E 120 90 60 68
        E 120 80 60 00
        E 0 90 61 66
        E 120 80 61 00
        E 0 90 61 68
        E 120 80 61 00
        E 120 90 61 68
        E 120 80 61 00
        E 120 90 61 68
        E 120 80 61 00
        E 120 90 61 68
        E 120 80 61 00
        E 120 90 61 66
        E 120 80 61 00
        E 120 90 61 66
        E 120 80 61 00
        E 120 90 61 66
        E 120 80 61 00
        E 120 90 61 66
        E 120 80 61 00
        E 120 90 60 66
        E 120 80 60 00
        E 120 90 60 66
        E 120 80 60 00
        E 120 90 60 66
        E 120 80 60 00
        E 120 90 60 66
        E 120 80 60 00
        E 120 90 60 68
        E 120 80 60 00
        E 120 90 60 68
        E 120 80 60 00
        E 120 90 60 68
        E 120 80 60 00
        E 120 90 60 68
        E 120 80 60 00
        E 360 90 61 68
        E 120 80 61 00
        E 120 90 61 68
        E 120 80 61 00
        E 240 90 61 68
        E 120 80 61 00
        E 120 90 60 69
        E 120 80 60 00
        E 0 90 60 69
        E 120 80 60 00
        E 0 90 60 69
        E 120 80 60 00
        E 0 90 60 69
        E 120 80 60 00
        E 0 90 60 69
        E 120 80 60 00
        E 0 90 60 69
        E 120 80 60 00
        E 0 90 60 69
        E 120 80 60 00
        E 240 90 61 68
        E 120 80 61 00
        E 120 90 61 68
        E 120 80 61 00
        E 240 90 61 68
        E 120 80 61 00
        E 240 90 60 69
        E 120 80 60 00
        E 0 90 60 69
        E 120 80 60 00
        E 240 90 60 69
        E 120 80 60 00
        E 0 90 60 69
        E 120 80 60 00
        E 0 90 61 68
        E 360 80 61 00
        E 120 90 61 68
        E 360 80 61 00
        E 120 90 61 68
        E 360 80 61 00
        E 120 90 61 68
        E 360 80 61 00
        E 120 90 61 64
        E 360 80 61 00
        E 120 90 61 64
        E 360 80 61 00
        E 120 90 61 66
        E 120 80 61 00
        E 120 90 61 66
        E 120 80 61 00
        E 120 90 61 66
        E 360 80 61 00
        E 120 90 61 68
        E 360 80 61 00
        E 120 90 61 68
        E 360 80 61 00
        E 120 90 61 68
        E 360 80 61 00
        E 120 90 61 68
        E 360 80 61 00
        E 120 90 61 64
        E 360 80 61 00
        E 120 90 61 64
        E 360 80 61 00
        E 120 90 61 66
        E 120 80 61 00
        E 120 90 61 66
        E 120 80 61 00
        E 120 90 61 66
        E 360 80 61 00
        E 120 90 61 68
        E 360 80 61 00
        E 120 90 61 68
        E 360 80 61 00
        E 120 90 61 68
        E 360 80 61 00
        E 120 90 61 68
        E 360 80 61 00
        E 120 90 61 64
        E 360 80 61 00
        E 120 90 61 64
        E 360 80 61 00
        E 120 90 61 66
        E 120 80 61 00
        E 120 90 61 66
        E 120 80 61 00
        E 120 90 61 66
        E 360 80 61 00
        E 120 90 61 68
        E 360 80 61 00
        E 120 90 61 68
        E 360 80 61 00
        E 120 90 61 68
        E 360 80 61 00
        E 120 90 61 68
        E 360 80 61 00
        E 120 90 61 64
        E 360 80 61 00
        E 120 90 61 64
        E 360 80 61 00
        E 120 90 61 66
        E 360 80 61 00
        E 120 90 61 66
        E 360 80 61 00
        E 120 90 61 66
        E 120 80 61 00
        E 120 90 61 68
        E 120 80 61 00
        E 1560 90 61 64
        E 120 80 61 00
        E 120 90 61 64
        E 120 80 61 00
        E 1560 90 61 66
        E 120 80 61 00
        E 120 90 61 68
        E 120 80 61 00
        E 1560 90 61 64
        E 120 80 61 00
        E 120 90 61 64
        E 120 80 61 00
        E 1560 90 61 64
        E 120 80 61 00
        E 120 90 61 64
        E 720 80 61 00
        E 120 90 62 66
        E 120 80 62 00
        E 240 90 63 68
        E 120 80 63 00
        E 120 90 62 68
        E 120 80 62 00
        E 120 90 63 65
        e 0 90 6c 65
        E 120 80 63 00
        e 0 80 6c 00
        E 120 90 62 65
        E 120 80 62 00
        E 1560 90 61 64
        e 0 90 6c 66
        E 120 80 61 00
        e 0 80 6c 00
        E 120 90 61 64
        E 720 80 61 00
        E 120 90 62 66
        E 120 80 62 00
        E 240 90 63 68
        E 120 80 63 00
        E 120 90 62 68
        E 120 80 62 00
        E 120 90 61 66
        E 120 80 61 00
        E 120 90 62 68
        E 120 80 62 00
        E 120 90 63 68
        E 120 80 63 00
        E 120 90 62 68
        E 120 80 62 00
        E 120 90 63 69
        e 0 90 6c 67
        E 120 80 63 00
        e 0 80 6c 00
        E 120 90 62 69
        E 120 80 62 00
        E 120 90 61 67
        E 360 80 61 00
        E 120 90 61 68
        e 0 90 6c 66
        E 120 80 61 00
        e 0 80 6c 00
        E 120 90 61 68
        E 120 80 61 00
        E 120 90 61 68
        E 120 80 61 00
        E 120 90 61 68
        E 120 80 61 00
        E 120 90 61 66
        E 120 80 61 00
        E 120 90 61 66
        E 120 80 61 00
        E 120 90 61 66
        E 120 80 61 00
        E 120 90 61 66
        E 120 80 61 00
        E 120 90 61 64
        E 120 80 61 00
        E 120 90 61 64
        E 120 80 61 00
        E 120 90 61 64
        E 120 80 61 00
        E 120 90 61 64
        E 120 80 61 00
        E 120 90 61 66
        E 120 80 61 00
        E 120 90 61 66
        E 120 80 61 00
        E 120 90 61 66
        E 120 80 61 00
        E 120 90 61 66
        E 120 80 61 00
        E 120 90 61 68
        E 120 80 61 00
        E 120 90 61 68
        E 120 80 61 00
        E 120 90 61 68
        E 120 80 61 00
        E 120 90 61 68
        E 120 80 61 00
        E 120 90 61 66
        E 120 80 61 00
        E 120 90 61 66
        E 120 80 61 00
        E 120 90 61 66
        E 120 80 61 00
        E 120 90 61 66
        E 120 80 61 00
        E 120 90 60 66
        E 120 80 60 00
        E 120 90 60 66
        E 120 80 60 00
        E 120 90 60 66
        E 120 80 60 00
        E 120 90 60 66
        E 120 80 60 00
        E 120 90 60 68
        E 120 80 60 00
        E 120 90 60 68
        E 120 80 60 00
        E 120 90 60 68
        E 120 80 60 00
        E 120 90 60 68
        E 120 80 60 00
        <X 120 0
          /wFbYmVnaW5fcGIgc29uZ190cmFpbmVyX3BiXzVd
        >
        E 240 90 61 68
        E 120 80 61 00
        E 120 90 61 68
        E 120 80 61 00
        E 240 90 61 68
        E 120 80 61 00
        E 120 90 60 69
        E 120 80 60 00
        E 0 90 60 69
        E 120 80 60 00
        E 0 90 60 69
        E 120 80 60 00
        E 0 90 60 69
        E 120 80 60 00
        E 0 90 60 69
        E 120 80 60 00
        E 0 90 60 69
        E 120 80 60 00
        E 0 90 60 69
        <X 120 0
          /wFbcGJfbm9ybSBzb25nX3RyYWluZXJfcGJfNV0=
        >
        E 0 80 60 00
        E 240 90 61 68
        E 120 80 61 00
        E 120 90 61 68
        E 120 80 61 00
        E 240 90 61 68
        E 120 80 61 00
        E 240 90 60 69
        E 120 80 60 00
        E 0 90 60 69
        E 120 80 60 00
        E 240 90 60 69
        E 120 80 60 00
        E 0 90 60 69
        E 120 80 60 00
        E 240 90 61 68
        E 120 80 61 00
        E 120 90 61 68
        E 120 80 61 00
        E 240 90 61 68
        E 120 80 61 00
        E 120 90 60 69
        E 120 80 60 00
        E 0 90 60 69
        E 120 80 60 00
        E 0 90 60 69
        E 120 80 60 00
        E 0 90 60 69
        E 120 80 60 00
        E 0 90 60 69
        E 120 80 60 00
        E 0 90 60 69
        E 120 80 60 00
        E 0 90 60 69
        E 120 80 60 00
        E 240 90 61 68
        E 120 80 61 00
        E 120 90 61 68
        E 120 80 61 00
        E 240 90 61 68
        E 120 80 61 00
        E 240 90 60 69
        E 120 80 60 00
        E 0 90 60 69
        E 120 80 60 00
        E 240 90 60 69
        E 120 80 60 00
        E 0 90 60 69
        <X 120 0
          /wFbZW5kX3BiIHNvbmdfdHJhaW5lcl9wYl81XQ==
        >
        E 0 80 60 00
        E 0 90 61 68
        E 360 80 61 00
        E 120 90 61 68
        E 360 80 61 00
        E 120 90 61 68
        E 360 80 61 00
        E 120 90 61 68
        E 360 80 61 00
        E 120 90 61 64
        E 360 80 61 00
        E 120 90 61 64
        E 360 80 61 00
        E 120 90 61 66
        E 360 80 61 00
        E 120 90 61 66
        E 360 80 61 00
        E 120 90 61 68
        E 360 80 61 00
        E 120 90 61 68
        E 360 80 61 00
        E 120 90 61 68
        E 360 80 61 00
        E 120 90 61 68
        E 360 80 61 00
        E 120 90 61 64
        E 360 80 61 00
        E 120 90 61 64
        E 360 80 61 00
        E 120 90 61 66
        E 360 80 61 00
        E 120 90 61 66
        E 360 80 61 00
        E 120 90 61 68
        E 360 80 61 00
        E 120 90 61 68
        E 360 80 61 00
        E 120 90 61 68
        E 360 80 61 00
        E 120 90 61 68
        E 360 80 61 00
        E 120 90 61 64
        E 360 80 61 00
        E 120 90 61 64
        E 360 80 61 00
        E 120 90 61 66
        E 360 80 61 00
        E 120 90 61 66
        E 360 80 61 00
        E 120 90 61 68
        E 360 80 61 00
        E 120 90 61 68
        E 360 80 61 00
        E 120 90 61 68
        E 360 80 61 00
        E 120 90 61 68
        E 360 80 61 00
        E 120 90 61 64
        E 360 80 61 00
        E 120 90 61 64
        E 360 80 61 00
        E 120 90 62 66
        e 0 90 6c 65
        e 120 80 6c 00
        E 240 80 62 00
        E 120 90 62 65
        E 360 80 62 00
        <X 120 0
          /wFbYmVnaW5fcGIgc29uZ190cmFpbmVyX3BiXzZd
        >
        E 0 90 61 68
        E 1320 80 61 00
        E 120 90 61 68
        E 0 90 67 68
        E 420 80 61 00
        E 0 80 67 00
        <X 60 0
          /wFbcGJfbm9ybSBzb25nX3RyYWluZXJfcGJfNl0=
        >
        E 0 90 60 64
        E 1320 80 60 00
        E 120 90 60 64
        E 0 90 67 64
        E 420 80 60 00
        E 0 80 67 00
        E 60 90 60 6b
        e 0 90 6c 69
        e 120 80 6c 00
        E 240 80 60 00
        E 120 90 60 6b
        E 360 80 60 00
        E 120 90 60 6b
        E 360 80 60 00
        E 120 90 60 6b
        E 360 80 60 00
        E 120 90 60 69
        E 360 80 60 00
        E 120 90 60 69
        E 360 80 60 00
        E 120 90 60 68
        e 0 90 6c 68
        e 120 80 6c 00
        E 720 80 60 00
        <X 120 0
          /wFbZW5kX3BiIHNvbmdfdHJhaW5lcl9wYl82XQ==
        >
        E 0 90 61 68
        E 1320 80 61 00
        E 120 90 61 68
        E 0 90 67 68
        E 420 80 61 00
        E 0 80 67 00
        E 60 90 60 64
        E 1320 80 60 00
        E 120 90 60 64
        E 0 90 67 64
        E 420 80 60 00
        E 0 80 67 00
        E 60 90 60 6b
        e 0 90 6c 69
        e 120 80 6c 00
        E 240 80 60 00
        E 120 90 60 6b
        E 360 80 60 00
        E 120 90 60 6b
        E 360 80 60 00
        E 120 90 60 6b
        E 360 80 60 00
        E 120 90 60 69
        E 360 80 60 00
        E 120 90 60 69
        E 360 80 60 00
        E 120 90 60 68
        e 0 90 6c 68
        e 120 80 6c 00
        E 240 80 60 00
        E 120 90 60 68
        E 0 9b 67 60
        E 420 80 60 00
        E 0 8b 67 00
        E 60 90 61 68
        E 1320 80 61 00
        E 120 90 61 68
        E 0 90 67 68
        E 420 80 61 00
        E 0 80 67 00
        E 60 90 60 64
        E 1320 80 60 00
        E 120 90 60 64
        E 0 90 67 60
        E 420 80 60 00
        E 0 80 67 00
        E 60 90 60 6b
        e 0 90 6c 69
        e 120 80 6c 00
        E 240 80 60 00
        E 120 90 60 6b
        E 360 80 60 00
        E 120 90 60 6b
        E 360 80 60 00
        E 120 90 60 6b
        E 360 80 60 00
        E 120 90 60 69
        E 360 80 60 00
        E 120 90 60 69
        E 360 80 60 00
        E 120 90 60 68
        e 0 90 6c 68
        e 120 80 6c 00
        E 240 80 60 00
        E 120 90 60 68
        E 0 90 67 68
        E 420 80 60 00
        E 0 80 67 00
        E 60 90 61 68
        E 1320 80 61 00
        E 120 90 61 68
        E 0 90 67 68
        E 420 80 61 00
        E 0 80 67 00
        E 60 90 60 64
        E 1320 80 60 00
        E 120 90 60 64
        E 0 90 67 60
        E 420 80 60 00
        E 0 80 67 00
        E 60 90 60 6b
        e 0 90 6c 69
        e 120 80 6c 00
        E 240 80 60 00
        E 120 90 60 6b
        E 360 80 60 00
        E 120 90 60 6b
        E 360 80 60 00
        E 120 90 60 6b
        E 360 80 60 00
        E 120 90 60 69
        E 4800 80 60 00
        E 2880 b0 7b 00
        GUID {9500C01B-3A2A-4C8B-A82D-5E4F3C069482}
        IGNTEMPO 0 120.00000000 4 4
        SRCCOLOR 14
        VELLANE 132 128 60
        COLORMAP "C:\Program Files\REAPER (x64)\Data\color_maps\rockband_guitarbass.png"
        TEXTSTRINGFILE "C:\Program Files\REAPER (x64)\Data\Text_Strings\Text Events List - PRO Trainers.txt"
        CFGEDITVIEW -8160.000000 3.982195 11 12 0 0 0
        CFGEDIT 1 1 0 1 1 0 1 1 1 1 1 0.12500000 -9 6 1091 706 0 0 2 1 0.00000000 0 1 0 0 0.500000 0 0 1.000000 64
        KEYSNAP 0 3 "102034050607" 0 "Major"
        EVTFILTER 0 -1 -1 -1 -1 0 1 0 0 -1.00000000 -1.00000000
      >
    >
  >
  <TRACK '{4044A974-C4EE-4FFE-AC06-0C4881FE7D78}'
    NAME "EVENTS"
    PEAKCOL 16576
    BEAT -1
    AUTOMODE 0
    VOLPAN 1.00000000000000 0.00000000000000 -1.00000000000000 -1.00000000000000 1.00000000000000
    MUTESOLO 0 0 0
    IPHASE 0
    ISBUS 0 0
    BUSCOMP 0 0
    SHOWINMIX 1 0.666700 0.500000 1 0.500000 -1 -1 -1
    FREEMODE 0
    SEL 0
    REC 0 0 0 0 0 0 0
    TRACKHEIGHT 0 0
    INQ 0 0 0 0.5000000000 100 0 0 100
    NCHAN 2
    FX 0
    TRACKID {4044A974-C4EE-4FFE-AC06-0C4881FE7D78}
    PERF 0
    MIDIOUT -1
    MAINSEND 1 0
    <FXCHAIN
      SHOW 0
      LASTSEL 0
      DOCKED 0
    >
    <ITEM
      POSITION 0.00000000000000
      SNAPOFFS 0.00000000000000
      LENGTH 212.53693832905063
      LOOP 0
      ALLTAKES 0
      SEL 0
      FADEIN 1 0.000000 0.000000 1 0
      FADEOUT 1 0.000000 0.000000 1 0
      MUTE 0
      IGUID {83D7DE64-291D-4663-A4B8-1044BA2DC0FB}
      IID 3
      NAME "EVENTS"
      VOLPAN 1.000000 0.000000 1.000000 -1.000000
      SOFFS 0.00000000000000 0.00000000000000
      PLAYRATE 1.00000000000000 1 0.00000000000000 -1
      CHANMODE 0
      GUID {5697463A-123E-4555-B3B5-F01FF0346EAC}
      <SOURCE MIDI
        HASDATA 1 480 QN
        POOLEDEVTS {8411B0AF-4EF8-4097-B6CB-7046E6AB75FA}
        <X 0 0
          /wNFVkVOVFM=
        >
        <X 3840 0
          /wFbcHJjX2ludHJvXQ==
        >
        <X 960 0
          /wFbY3Jvd2Rfbm9ybWFsXQ==
        >
        <X 0 0
          /wFbbXVzaWNfc3RhcnRd
        >
        <X 18240 0
          /wFbY3Jvd2Rfbm9jbGFwXQ==
        >
        <X 0 0
          /wFbcHJjX2Nob3J1c18xXQ==
        >
        <X 0 0
          /wFbY3Jvd2RfaW50ZW5zZV0=
        >
        <X 15360 0
          /wFbcHJjX3ZlcnNlXzFhXQ==
        >
        <X 15360 0
          /wFbcHJjX3ZlcnNlXzFiXQ==
        >
        <X 0 0
          /wFbY3Jvd2Rfbm9ybWFsXQ==
        >
        <X 0 0
          /wFbY3Jvd2RfY2xhcF0=
        >
        <X 7680 0
          /wFbY3Jvd2RfaW50ZW5zZV0=
        >
        <X 3840 0
          /wFbcHJjX2Nob3J1c18yXQ==
        >
        <X 15360 0
          /wFbcHJjX3ZlcnNlXzJhXQ==
        >
        <X 0 0
          /wFbY3Jvd2Rfbm9ybWFsXQ==
        >
        <X 15360 0
          /wFbcHJjX3ZlcnNlXzJiXQ==
        >
        <X 7680 0
          /wFbY3Jvd2RfaW50ZW5zZV0=
        >
        <X 0 0
          /wFbY3Jvd2RfY2xhcF0=
        >
        <X 7680 0
          /wFbcHJjX2Nob3J1c18zXQ==
        >
        <X 0 0
          /wFbY3Jvd2Rfbm9jbGFwXQ==
        >
        <X 15360 0
          /wFbcHJjX291dHJvX2Fd
        >
        <X 0 0
          /wFbY3Jvd2RfaW50ZW5zZV0=
        >
        <X 19200 0
          /wFbcHJjX291dHJvX2Jd
        >
        <X 10560 0
          /wFbbXVzaWNfZW5kXQ==
        >
        <X 6715 0
          /wFbZW5kXQ==
        >
        E 5 b0 7b 00
        GUID {41C9BDF9-E2F9-4931-830E-163C12D4715A}
        IGNTEMPO 0 120.00000000 4 4
        SRCCOLOR 2
        VELLANE 132 128 60
        COLORMAP "C:\Program Files\REAPER (x64)\Data\color_maps\rockband_guitarbass.png"
        CFGEDITVIEW -8160.000000 3.982195 61 12 0 0 0
        CFGEDIT 1 1 0 0 0 1 1 1 1 1 1 0.25000000 100 100 1200 800 0 0 2 2 0.00000000 0 0 0 0 0.500000 1 0 1.000000 64
        KEYSNAP 0 0 "102034050607" 0 "Major"
        EVTFILTER 1 -1 -1 -1 -1 0 1 0 0 -1.00000000 -1.00000000
      >
    >
  >
  <TRACK '{D8CC287C-0866-4FF3-977B-21021C145CD1}'
    NAME "BEAT"
    PEAKCOL 16576
    BEAT -1
    AUTOMODE 0
    VOLPAN 1.00000000000000 0.00000000000000 -1.00000000000000 -1.00000000000000 1.00000000000000
    MUTESOLO 0 0 0
    IPHASE 0
    ISBUS 0 0
    BUSCOMP 0 0
    SHOWINMIX 1 0.666700 0.500000 1 0.500000 -1 -1 -1
    FREEMODE 0
    SEL 0
    REC 0 0 0 0 0 0 0
    TRACKHEIGHT 0 0
    INQ 0 0 0 0.5000000000 100 0 0 100
    NCHAN 2
    FX 0
    TRACKID {D8CC287C-0866-4FF3-977B-21021C145CD1}
    PERF 0
    MIDIOUT -1
    <MIDINOTENAMES
      0 13 "Up Beats"
      0 12 "Downbeat"
    >
    MAINSEND 1 0
    <FXCHAIN
      SHOW 0
      LASTSEL 0
      DOCKED 0
    >
    <ITEM
      POSITION 0.00000000000000
      SNAPOFFS 0.00000000000000
      LENGTH 212.53693832905063
      LOOP 0
      ALLTAKES 0
      SEL 0
      FADEIN 1 0.000000 0.000000 1 0
      FADEOUT 1 0.000000 0.000000 1 0
      MUTE 0
      IGUID {458E1279-05EE-41C5-823F-F2675836CFB5}
      IID 4
      NAME "BEAT"
      VOLPAN 1.000000 0.000000 1.000000 -1.000000
      SOFFS 0.00000000000000 0.00000000000000
      PLAYRATE 1.00000000000000 1 0.00000000000000 -1
      CHANMODE 0
      GUID {C5B7FA01-0D8B-4817-80D9-5371062531C1}
      <SOURCE MIDI
        HASDATA 1 480 QN
        POOLEDEVTS {6C07B5AF-3718-40FA-B248-C70BBE302EA2}
        <X 0 0
          /wNCRUFU
        >
        E 0 96 0c 64
        E 120 86 0c 00
        E 360 96 0d 64
        E 120 86 0d 00
        E 360 96 0d 64
        E 120 86 0d 00
        E 360 96 0d 64
        E 120 86 0d 00
        E 360 96 0c 64
        E 120 86 0c 00
        E 360 96 0d 64
        E 120 86 0d 00
        E 360 96 0d 64
        E 120 86 0d 00
        E 360 96 0d 64
        E 120 86 0d 00
        E 360 96 0c 64
        E 120 86 0c 00
        E 360 96 0d 64
        E 120 86 0d 00
        E 360 96 0d 64
        E 120 86 0d 00
        E 360 96 0d 64
        E 120 86 0d 00
        E 360 96 0c 64
        E 120 86 0c 00
        E 360 96 0d 64
        E 120 86 0d 00
        E 360 96 0d 64
        E 120 86 0d 00
        E 360 96 0d 64
        E 120 86 0d 00
        E 360 96 0c 64
        E 120 86 0c 00
        E 360 96 0d 64
        E 120 86 0d 00
        E 360 96 0d 64
        E 120 86 0d 00
        E 360 96 0d 64
        E 120 86 0d 00
        E 360 96 0c 64
        E 120 86 0c 00
        E 360 96 0d 64
        E 120 86 0d 00
        E 360 96 0d 64
        E 120 86 0d 00
        E 360 96 0d 64
        E 120 86 0d 00
        E 360 96 0c 64
        E 120 86 0c 00
        E 360 96 0d 64
        E 120 86 0d 00
        E 360 96 0d 64
        E 120 86 0d 00
        E 360 96 0d 64
        E 120 86 0d 00
        E 360 96 0c 64
        E 120 86 0c 00
        E 360 96 0d 64
        E 120 86 0d 00
        E 360 96 0d 64
        E 120 86 0d 00
        E 360 96 0d 64
        E 120 86 0d 00
        E 360 96 0c 64
        E 120 86 0c 00
        E 360 96 0d 64
        E 120 86 0d 00
        E 360 96 0d 64
        E 120 86 0d 00
        E 360 96 0d 64
        E 120 86 0d 00
        E 360 96 0c 64
        E 120 86 0c 00
        E 360 96 0d 64
        E 120 86 0d 00
        E 360 96 0d 64
        E 120 86 0d 00
        E 360 96 0d 64
        E 120 86 0d 00
        E 360 96 0c 64
        E 120 86 0c 00
        E 360 96 0d 64
        E 120 86 0d 00
        E 360 96 0d 64
        E 120 86 0d 00
        E 360 96 0d 64
        E 120 86 0d 00
        E 360 96 0c 64
        E 120 86 0c 00
        E 360 96 0d 64
        E 120 86 0d 00
        E 360 96 0d 64
        E 120 86 0d 00
        E 360 96 0d 64
        E 120 86 0d 00
        E 360 96 0c 64
        E 120 86 0c 00
        E 360 96 0d 64
        E 120 86 0d 00
        E 360 96 0d 64
        E 120 86 0d 00
        E 360 96 0d 64
        E 120 86 0d 00
        E 360 96 0c 64
        E 120 86 0c 00
        E 360 96 0d 64
        E 120 86 0d 00
        E 360 96 0d 64
        E 120 86 0d 00
        E 360 96 0d 64
        E 120 86 0d 00
        E 360 96 0c 64
        E 120 86 0c 00
        E 360 96 0d 64
        E 120 86 0d 00
        E 360 96 0d 64
        E 120 86 0d 00
        E 360 96 0d 64
        E 120 86 0d 00
        E 360 96 0c 64
        E 120 86 0c 00
        E 360 96 0d 64
        E 120 86 0d 00
        E 360 96 0d 64
        E 120 86 0d 00
        E 360 96 0d 64
        E 120 86 0d 00
        E 360 96 0c 64
        E 120 86 0c 00
        E 360 96 0d 64
        E 120 86 0d 00
        E 360 96 0d 64
        E 120 86 0d 00
        E 360 96 0d 64
        E 120 86 0d 00
        E 360 96 0c 64
        E 120 86 0c 00
        E 360 96 0d 64
        E 120 86 0d 00
        E 360 96 0d 64
        E 120 86 0d 00
        E 360 96 0d 64
        E 120 86 0d 00
        E 360 96 0c 64
        E 120 86 0c 00
        E 360 96 0d 64
        E 120 86 0d 00
        E 360 96 0d 64
        E 120 86 0d 00
        E 360 96 0d 64
        E 120 86 0d 00
        E 360 96 0c 64
        E 120 86 0c 00
        E 360 96 0d 64
        E 120 86 0d 00
        E 360 96 0d 64
        E 120 86 0d 00
        E 360 96 0d 64
        E 120 86 0d 00
        E 360 96 0c 64
        E 120 86 0c 00
        E 360 96 0d 64
        E 120 86 0d 00
        E 360 96 0d 64
        E 120 86 0d 00
        E 360 96 0d 64
        E 120 86 0d 00
        E 360 96 0c 64
        E 120 86 0c 00
        E 360 96 0d 64
        E 120 86 0d 00
        E 360 96 0d 64
        E 120 86 0d 00
        E 360 96 0d 64
        E 120 86 0d 00
        E 360 96 0c 64
        E 120 86 0c 00
        E 360 96 0d 64
        E 120 86 0d 00
        E 360 96 0d 64
        E 120 86 0d 00
        E 360 96 0d 64
        E 120 86 0d 00
        E 360 96 0c 64
        E 120 86 0c 00
        E 360 96 0d 64
        E 120 86 0d 00
        E 360 96 0d 64
        E 120 86 0d 00
        E 360 96 0d 64
        E 120 86 0d 00
        E 360 96 0c 64
        E 120 86 0c 00
        E 360 96 0d 64
        E 120 86 0d 00
        E 360 96 0d 64
        E 120 86 0d 00
        E 360 96 0d 64
        E 120 86 0d 00
        E 360 96 0c 64
        E 120 86 0c 00
        E 360 96 0d 64
        E 120 86 0d 00
        E 360 96 0d 64
        E 120 86 0d 00
        E 360 96 0d 64
        E 120 86 0d 00
        E 360 96 0c 64
        E 120 86 0c 00
        E 360 96 0d 64
        E 120 86 0d 00
        E 360 96 0d 64
        E 120 86 0d 00
        E 360 96 0d 64
        E 120 86 0d 00
        E 360 96 0c 64
        E 120 86 0c 00
        E 360 96 0d 64
        E 120 86 0d 00
        E 360 96 0d 64
        E 120 86 0d 00
        E 360 96 0d 64
        E 120 86 0d 00
        E 360 96 0c 64
        E 120 86 0c 00
        E 360 96 0d 64
        E 120 86 0d 00
        E 360 96 0d 64
        E 120 86 0d 00
        E 360 96 0d 64
        E 120 86 0d 00
        E 360 96 0c 64
        E 120 86 0c 00
        E 360 96 0d 64
        E 120 86 0d 00
        E 360 96 0d 64
        E 120 86 0d 00
        E 360 96 0d 64
        E 120 86 0d 00
        E 360 96 0c 64
        E 120 86 0c 00
        E 360 96 0d 64
        E 120 86 0d 00
        E 360 96 0d 64
        E 120 86 0d 00
        E 360 96 0d 64
        E 120 86 0d 00
        E 360 96 0c 64
        E 120 86 0c 00
        E 360 96 0d 64
        E 120 86 0d 00
        E 360 96 0d 64
        E 120 86 0d 00
        E 360 96 0d 64
        E 120 86 0d 00
        E 360 96 0c 64
        E 120 86 0c 00
        E 360 96 0d 64
        E 120 86 0d 00
        E 360 96 0d 64
        E 120 86 0d 00
        E 360 96 0d 64
        E 120 86 0d 00
        E 360 96 0c 64
        E 120 86 0c 00
        E 360 96 0d 64
        E 120 86 0d 00
        E 360 96 0d 64
        E 120 86 0d 00
        E 360 96 0d 64
        E 120 86 0d 00
        E 360 96 0c 64
        E 120 86 0c 00
        E 360 96 0d 64
        E 120 86 0d 00
        E 360 96 0d 64
        E 120 86 0d 00
        E 360 96 0d 64
        E 120 86 0d 00
        E 360 96 0c 64
        E 120 86 0c 00
        E 360 96 0d 64
        E 120 86 0d 00
        E 360 96 0d 64
        E 120 86 0d 00
        E 360 96 0d 64
        E 120 86 0d 00
        E 360 96 0c 64
        E 120 86 0c 00
        E 360 96 0d 64
        E 120 86 0d 00
        E 360 96 0d 64
        E 120 86 0d 00
        E 360 96 0d 64
        E 120 86 0d 00
        E 360 96 0c 64
        E 120 86 0c 00
        E 360 96 0d 64
        E 120 86 0d 00
        E 360 96 0d 64
        E 120 86 0d 00
        E 360 96 0d 64
        E 120 86 0d 00
        E 360 96 0c 64
        E 120 86 0c 00
        E 360 96 0d 64
        E 120 86 0d 00
        E 360 96 0d 64
        E 120 86 0d 00
        E 360 96 0d 64
        E 120 86 0d 00
        E 360 96 0c 64
        E 120 86 0c 00
        E 360 96 0d 64
        E 120 86 0d 00
        E 360 96 0d 64
        E 120 86 0d 00
        E 360 96 0d 64
        E 120 86 0d 00
        E 360 96 0c 64
        E 120 86 0c 00
        E 360 96 0d 64
        E 120 86 0d 00
        E 360 96 0d 64
        E 120 86 0d 00
        E 360 96 0d 64
        E 120 86 0d 00
        E 360 96 0c 64
        E 120 86 0c 00
        E 360 96 0d 64
        E 120 86 0d 00
        E 360 96 0d 64
        E 120 86 0d 00
        E 360 96 0d 64
        E 120 86 0d 00
        E 360 96 0c 64
        E 120 86 0c 00
        E 360 96 0d 64
        E 120 86 0d 00
        E 360 96 0d 64
        E 120 86 0d 00
        E 360 96 0d 64
        E 120 86 0d 00
        E 360 96 0c 64
        E 120 86 0c 00
        E 360 96 0d 64
        E 120 86 0d 00
        E 360 96 0d 64
        E 120 86 0d 00
        E 360 96 0d 64
        E 120 86 0d 00
        E 360 96 0c 64
        E 120 86 0c 00
        E 360 96 0d 64
        E 120 86 0d 00
        E 360 96 0d 64
        E 120 86 0d 00
        E 360 96 0d 64
        E 120 86 0d 00
        E 360 96 0c 64
        E 120 86 0c 00
        E 360 96 0d 64
        E 120 86 0d 00
        E 360 96 0d 64
        E 120 86 0d 00
        E 360 96 0d 64
        E 120 86 0d 00
        E 360 96 0c 64
        E 120 86 0c 00
        E 360 96 0d 64
        E 120 86 0d 00
        E 360 96 0d 64
        E 120 86 0d 00
        E 360 96 0d 64
        E 120 86 0d 00
        E 360 96 0c 64
        E 120 86 0c 00
        E 360 96 0d 64
        E 120 86 0d 00
        E 360 96 0d 64
        E 120 86 0d 00
        E 360 96 0d 64
        E 120 86 0d 00
        E 360 96 0c 64
        E 120 86 0c 00
        E 360 96 0d 64
        E 120 86 0d 00
        E 360 96 0d 64
        E 120 86 0d 00
        E 360 96 0d 64
        E 120 86 0d 00
        E 360 96 0c 64
        E 120 86 0c 00
        E 360 96 0d 64
        E 120 86 0d 00
        E 360 96 0d 64
        E 120 86 0d 00
        E 360 96 0d 64
        E 120 86 0d 00
        E 360 96 0c 64
        E 120 86 0c 00
        E 360 96 0d 64
        E 120 86 0d 00
        E 360 96 0d 64
        E 120 86 0d 00
        E 360 96 0d 64
        E 120 86 0d 00
        E 360 96 0c 64
        E 120 86 0c 00
        E 360 96 0d 64
        E 120 86 0d 00
        E 360 96 0d 64
        E 120 86 0d 00
        E 360 96 0d 64
        E 120 86 0d 00
        E 360 96 0c 64
        E 120 86 0c 00
        E 360 96 0d 64
        E 120 86 0d 00
        E 360 96 0d 64
        E 120 86 0d 00
        E 360 96 0d 64
        E 120 86 0d 00
        E 360 96 0c 64
        E 120 86 0c 00
        E 360 96 0d 64
        E 120 86 0d 00
        E 360 96 0d 64
        E 120 86 0d 00
        E 360 96 0d 64
        E 120 86 0d 00
        E 360 96 0c 64
        E 120 86 0c 00
        E 360 96 0d 64
        E 120 86 0d 00
        E 360 96 0d 64
        E 120 86 0d 00
        E 360 96 0d 64
        E 120 86 0d 00
        E 360 96 0c 64
        E 120 86 0c 00
        E 360 96 0d 64
        E 120 86 0d 00
        E 360 96 0d 64
        E 120 86 0d 00
        E 360 96 0d 64
        E 120 86 0d 00
        E 360 96 0c 64
        E 120 86 0c 00
        E 360 96 0d 64
        E 120 86 0d 00
        E 360 96 0d 64
        E 120 86 0d 00
        E 360 96 0d 64
        E 120 86 0d 00
        E 360 96 0c 64
        E 120 86 0c 00
        E 360 96 0d 64
        E 120 86 0d 00
        E 360 96 0d 64
        E 120 86 0d 00
        E 360 96 0d 64
        E 120 86 0d 00
        E 360 96 0c 64
        E 120 86 0c 00
        E 360 96 0d 64
        E 120 86 0d 00
        E 360 96 0d 64
        E 120 86 0d 00
        E 360 96 0d 64
        E 120 86 0d 00
        E 360 96 0c 64
        E 120 86 0c 00
        E 360 96 0d 64
        E 120 86 0d 00
        E 360 96 0d 64
        E 120 86 0d 00
        E 360 96 0d 64
        E 120 86 0d 00
        E 360 96 0c 64
        E 120 86 0c 00
        E 360 96 0d 64
        E 120 86 0d 00
        E 360 96 0d 64
        E 120 86 0d 00
        E 360 96 0d 64
        E 120 86 0d 00
        E 360 96 0c 64
        E 120 86 0c 00
        E 360 96 0d 64
        E 120 86 0d 00
        E 360 96 0d 64
        E 120 86 0d 00
        E 360 96 0d 64
        E 120 86 0d 00
        E 360 96 0c 64
        E 120 86 0c 00
        E 360 96 0d 64
        E 120 86 0d 00
        E 360 96 0d 64
        E 120 86 0d 00
        E 360 96 0d 64
        E 120 86 0d 00
        E 360 96 0c 64
        E 120 86 0c 00
        E 360 96 0d 64
        E 120 86 0d 00
        E 360 96 0d 64
        E 120 86 0d 00
        E 360 96 0d 64
        E 120 86 0d 00
        E 360 96 0c 64
        E 120 86 0c 00
        E 360 96 0d 64
        E 120 86 0d 00
        E 360 96 0d 64
        E 120 86 0d 00
        E 360 96 0d 64
        E 120 86 0d 00
        E 360 96 0c 64
        E 120 86 0c 00
        E 360 96 0d 64
        E 120 86 0d 00
        E 360 96 0d 64
        E 120 86 0d 00
        E 360 96 0d 64
        E 120 86 0d 00
        E 360 96 0c 64
        E 120 86 0c 00
        E 360 96 0d 64
        E 120 86 0d 00
        E 360 96 0d 64
        E 120 86 0d 00
        E 360 96 0d 64
        E 120 86 0d 00
        E 360 96 0c 64
        E 120 86 0c 00
        E 360 96 0d 64
        E 120 86 0d 00
        E 360 96 0d 64
        E 120 86 0d 00
        E 360 96 0d 64
        E 120 86 0d 00
        E 360 96 0c 64
        E 120 86 0c 00
        E 360 96 0d 64
        E 120 86 0d 00
        E 360 96 0d 64
        E 120 86 0d 00
        E 360 96 0d 64
        E 120 86 0d 00
        E 360 96 0c 64
        E 120 86 0c 00
        E 360 96 0d 64
        E 120 86 0d 00
        E 360 96 0d 64
        E 120 86 0d 00
        E 360 96 0d 64
        E 120 86 0d 00
        E 360 96 0c 64
        E 120 86 0c 00
        E 360 96 0d 64
        E 120 86 0d 00
        E 360 96 0d 64
        E 120 86 0d 00
        E 360 96 0d 64
        E 120 86 0d 00
        E 360 96 0c 64
        E 120 86 0c 00
        E 360 96 0d 64
        E 120 86 0d 00
        E 360 96 0d 64
        E 120 86 0d 00
        E 360 96 0d 64
        E 120 86 0d 00
        E 360 96 0c 64
        E 120 86 0c 00
        E 360 96 0d 64
        E 120 86 0d 00
        E 360 96 0d 64
        E 120 86 0d 00
        E 360 96 0d 64
        E 120 86 0d 00
        E 360 96 0c 64
        E 120 86 0c 00
        E 360 96 0d 64
        E 120 86 0d 00
        E 360 96 0d 64
        E 120 86 0d 00
        E 360 96 0d 64
        E 120 86 0d 00
        E 360 96 0c 64
        E 120 86 0c 00
        E 360 96 0d 64
        E 120 86 0d 00
        E 360 96 0d 64
        E 120 86 0d 00
        E 360 96 0d 64
        E 120 86 0d 00
        E 360 96 0c 64
        E 120 86 0c 00
        E 360 96 0d 64
        E 120 86 0d 00
        E 360 96 0d 64
        E 120 86 0d 00
        E 360 96 0d 64
        E 120 86 0d 00
        E 360 96 0c 64
        E 120 86 0c 00
        E 360 96 0d 64
        E 120 86 0d 00
        E 360 96 0d 64
        E 120 86 0d 00
        E 360 96 0d 64
        E 120 86 0d 00
        E 360 96 0c 64
        E 120 86 0c 00
        E 360 96 0d 64
        E 120 86 0d 00
        E 360 96 0d 64
        E 120 86 0d 00
        E 360 96 0d 64
        E 120 86 0d 00
        E 360 96 0c 64
        E 120 86 0c 00
        E 360 96 0d 64
        E 120 86 0d 00
        E 360 96 0d 64
        E 120 86 0d 00
        E 360 96 0d 64
        E 120 86 0d 00
        E 360 96 0c 64
        E 120 86 0c 00
        E 360 96 0d 64
        E 120 86 0d 00
        E 360 96 0d 64
        E 120 86 0d 00
        E 360 96 0d 64
        E 120 86 0d 00
        E 360 96 0c 64
        E 120 86 0c 00
        E 360 96 0d 64
        E 120 86 0d 00
        E 360 96 0d 64
        E 120 86 0d 00
        E 360 96 0d 64
        E 120 86 0d 00
        E 360 96 0c 64
        E 120 86 0c 00
        E 360 96 0d 64
        E 120 86 0d 00
        E 360 96 0d 64
        E 120 86 0d 00
        E 360 96 0d 64
        E 120 86 0d 00
        E 360 96 0c 64
        E 120 86 0c 00
        E 360 96 0d 64
        E 120 86 0d 00
        E 360 96 0d 64
        E 120 86 0d 00
        E 360 96 0d 64
        E 120 86 0d 00
        E 360 96 0c 64
        E 120 86 0c 00
        E 360 96 0d 64
        E 120 86 0d 00
        E 360 96 0d 64
        E 120 86 0d 00
        E 360 96 0d 64
        E 120 86 0d 00
        E 360 96 0c 64
        E 120 86 0c 00
        E 360 96 0d 64
        E 120 86 0d 00
        E 360 96 0d 64
        E 120 86 0d 00
        E 360 96 0d 64
        E 120 86 0d 00
        E 360 b0 7b 00
        GUID {404FA232-85C6-4A9C-B495-3DBA52EBBBBD}
        IGNTEMPO 0 120.00000000 4 4
        SRCCOLOR 3
        VELLANE 132 128 60
        COLORMAP "C:\Program Files\REAPER (x64)\Data\color_maps\rockband_guitarbass.png"
        CFGEDITVIEW 159237.815084 54.247165 0 48 0 0 0
        CFGEDIT 1 1 0 0 0 1 1 1 1 1 1 0.25000000 100 100 1200 800 0 2 2 2 0.00000000 0 0 0 0 0.500000 1 0 1.000000 64
        KEYSNAP 0 0 "102034050607" 0 "Major"
        EVTFILTER 1 -1 -1 -1 -1 0 0 0 0 -1.00000000 -1.00000000
      >
    >
  >
  <TRACK '{E33E377C-3989-4367-B0B4-14F7FC6B517D}'
    NAME "backing"
    PEAKCOL 16576
    BEAT -1
    AUTOMODE 0
    VOLPAN 1.00000000000000 0.00000000000000 -1.00000000000000 -1.00000000000000 1.00000000000000
    MUTESOLO 0 0 0
    IPHASE 0
    ISBUS 0 0
    BUSCOMP 0 0
    SHOWINMIX 1 0.666700 0.500000 1 0.500000 -1 -1 -1
    FREEMODE 0
    SEL 0
    REC 0 0 0 0 0 0 0
    VU 2
    TRACKHEIGHT 0 0
    INQ 0 0 0 0.5000000000 100 0 0 100
    NCHAN 2
    FX 1
    TRACKID {E33E377C-3989-4367-B0B4-14F7FC6B517D}
    PERF 0
    MIDIOUT -1
    MAINSEND 1 0
    <ITEM
      POSITION 0.00000000000000
      SNAPOFFS 0.00000000000000
      LENGTH 215.03693877551021
      LOOP 0
      ALLTAKES 0
      SEL 0
      FADEIN 1 0.000000 0.000000 1 0
      FADEOUT 1 0.000000 0.000000 1 0
      MUTE 0
      IGUID {459B3C1A-F481-400A-8116-24BB8606F0FE}
      IID 86
      NAME "backing.wav"
      VOLPAN 1.000000 0.000000 1.000000 -1.000000
      SOFFS 0.00000000000000
      PLAYRATE 1.00000000000000 1 0.00000000000000 -1
      CHANMODE 0
      GUID {2B87209C-32F1-42C4-9A2E-27BB6FF7F037}
      <SOURCE WAVE
        FILE "wav\backing.wav"
      >
    >
  >
  <EXTENSIONS
  >
>
