<REAPER_PROJECT 0.1 "4.22/x64"
  RIPPLE 0
  GROUPOVERRIDE 0 0 0
  AUTOXFADE 1
  ENVATTACH 1
  MIXERUIFLAGS 11 48
  PEAKGAIN 1.00000000000000
  FEEDBACK 0
  PANLAW 1.00000000000000
  PROJOFFS 0.00000000000000 0
  MAXPROJLEN 0 600.00000000000000
  GRID 3199 8 1.00000000000000 8 1.00000000000000 0
  TIMEMODE 1 0 -1
  PANMODE 3
  CURSOR 23.86098200000000
  ZOOM 8.72966532126692 0 0
  VZOOMEX 6
  USE_REC_CFG 0
  RECMODE 1
  SMPTESYNC 0 23.976024 100 40 1000 300 0 0.000000 1
  LOOP 1
  LOOPGRAN 0 4.00000000000000
  RECORD_PATH "" ""
  <RECORD_CFG
    ZXZhdxAD
  >
  <APPLYFX_CFG
  >
  RENDER_FILE ""
  RENDER_PATTERN ""
  RENDER_FMT 0 2 0
  RENDER_1X 0
  RENDER_RANGE 1 0.00000000000000 0.00000000000000
  RENDER_RESAMPLE 3 0 1
  RENDER_ADDTOPROJ 0
  RENDER_STEMS 0
  RENDER_DITHER 0
  TIMELOCKMODE 0
  ITEMMIX 0
  DEFPITCHMODE 393216
  TAKELANE 1
  SAMPLERATE 44100 0 0
  <RENDER_CFG
  >
  LOCK 1
  <METRONOME 6 2.000000
    VOL 0.250000 0.125000
    FREQ 800 1600 1
    BEATLEN 4
    SAMPLES "" ""
  >
  GLOBAL_AUTO -1
  TEMPO 120.00000000000000 4 4
  PLAYRATE 1.00000000000000 0 0.25000 4.00000
  SELECTION 128.64181600000001 0.00000000000000
  SELECTION2 128.64181600000001 0.00000000000000
  MASTERAUTOMODE 0
  MASTERTRACKHEIGHT 0
  MASTERPEAKCOL 16576
  MASTERMUTESOLO 0
  MASTERTRACKVIEW 0 0.666700 0.500000 0.500000 -1 -1 -1
  MASTERHWOUT 0 0 1.00000000000000 0.00000000000000 0 0 0 -1.00000000000000
  MASTER_NCH 2 2
  MASTER_VOLUME 1.00000000000000 0.00000000000000 -1.00000000000000 -1.00000000000000 1.00000000000000
  MASTER_PANMODE -1
  MASTER_FX 1
  MASTER_SEL 0
  <MASTERPLAYSPEEDENV
    ACT 0
    VIS 0 1 1.000000
    LANEHEIGHT 0 0
    ARM 0
    DEFSHAPE 0 -1 -1
  >
  <TEMPOENVEX
    ACT 1
    VIS 1 0 1.000000
    LANEHEIGHT 0 0
    ARM 0
    DEFSHAPE 1 -1 -1
    PT 0.000000000000 115.6700088873 1
    PT 8.299472000000 115.6700088873 1 262146
    PT 9.336906000000 115.6700088873 1 262148
    PT 13.486642000000 115.6700088873 1 262146
    PT 14.524076000000 115.6700088873 1 262148
    PT 18.673812000000 115.6700088873 1 262146
    PT 19.711246000000 115.6700088873 1 262148
    PT 23.860982000000 115.6700088873 1 262146
    PT 24.898416000000 115.6700088873 1 262148
    PT 29.048152000000 115.6700088873 1 262146
    PT 30.085586000000 115.6700088873 1 262148
    PT 46.684530000000 115.6700088873 1 262146
    PT 47.721964000000 115.6700088873 1 262148
    PT 51.871700000000 115.6700088873 1 262146
    PT 52.909134000000 115.6700088873 1 262148
    PT 57.058870000000 115.6700088873 1 262146
    PT 58.096304000000 115.6700088873 1 262148
    PT 62.246040000000 115.6700088873 1 262146
    PT 63.283474000000 115.6700088873 1 262148
    PT 67.433210000000 115.6700088873 1 262146
    PT 68.470644000000 115.6700088873 1 262148
    PT 85.069588000000 115.6700088873 1 262146
    PT 86.107022000000 115.6700088873 1 262148
    PT 90.256758000000 115.6700088873 1 262146
    PT 91.294192000000 115.6700088873 1 262148
    PT 95.443928000000 115.6700088873 1 262146
    PT 96.481362000000 115.6700088873 1 262148
    PT 104.780834000000 115.6700088873 1 262146
    PT 105.818268000000 115.6700088873 1 262148
  >
  <PROJBAY
  >
  <TRACK '{F006BD9A-2BEE-47D6-A8D5-5ED11AA23259}'
    NAME "PART DRUMS"
    PEAKCOL 16576
    BEAT -1
    AUTOMODE 0
    VOLPAN 1.00000000000000 0.00000000000000 -1.00000000000000 -1.00000000000000 1.00000000000000
    MUTESOLO 0 0 0
    IPHASE 0
    ISBUS 0 0
    BUSCOMP 0 0
    SHOWINMIX 1 0.666700 0.500000 1 0.500000 -1 -1 -1
    FREEMODE 0
    SEL 0
    REC 0 0 0 0 0 0 0
    VU 2
    TRACKHEIGHT 0 0
    INQ 0 0 0 0.5000000000 100 0 0 100
    NCHAN 2
    FX 1
    TRACKID {F006BD9A-2BEE-47D6-A8D5-5ED11AA23259}
    PERF 0
    MIDIOUT -1
    <MIDINOTENAMES
      0 127 "CYMBAL SWELLS"
      0 126 "DRUM ROLL"
      0 125 "---"
      0 124 "DRUM FILL"
      0 123 "DRUM FILL"
      0 122 "DRUM FILL"
      0 121 "DRUM FILL"
      0 120 "DRUM FILL (use all 5)"
      0 118 "----"
      0 116 "OVERDRIVE"
      0 114 "----"
      0 112 "TOM GEMS PAD 4"
      0 111 "TOM GEMS PAD 3"
      0 110 "TOM GEMS PAD 2"
      0 103 "Solo Marker"
      0 102 "----"
      0 100 "EXPERT Green"
      0 99 "EXPERT Blue"
      0 98 "EXPERT Yellow"
      0 97 "EXPERT Red"
      0 96 "EXPERT Kick"
      0 92 "----"
      0 88 "HARD Green"
      0 87 "HARD Blue"
      0 86 "HARD Yellow"
      0 85 "HARD Red"
      0 84 "HARD Kick"
      0 80 "----"
      0 76 "MEDIUM Green"
      0 75 "MEDIUM Blue"
      0 74 "MEDIUM Yellow"
      0 73 "MEDIUM Red"
      0 72 "MEDIUM Kick"
      0 68 "----"
      0 64 "EASY Green"
      0 63 "EASY Blue"
      0 62 "EASY Yellow"
      0 61 "EASY Red"
      0 60 "EASY Kick"
      0 56 "----"
      0 52 "-- DRUM ANIMATION --"
      0 51 "FLOOR TOM RH"
      0 50 "FLOOR TOM LH"
      0 49 "TOM2 RH"
      0 48 "TOM2 LH"
      0 47 "TOM1 RH"
      0 46 "TOM1 LH"
      0 45 "SOFT CRASH 2 LH"
      0 44 "CRASH 2 LH"
      0 43 "RIDE LH"
      0 42 "RIDE CYM RH"
      0 41 "CRASH2 CHOKE"
      0 40 "CRASH1 CHOKE"
      0 39 "CRASH2 SOFT RH"
      0 38 "CRASH2 HARD RH"
      0 37 "CRASH1 SOFT RH"
      0 36 "CRASH1 HARD RH"
      0 35 "CRASH1 SOFT LH"
      0 34 "CRASH1 HARD LH"
      0 32 "PERCUSSION RH"
      0 31 "HI-HAT RH"
      0 30 "HI-HAT LH"
      0 29 "SOFT SNARE RH"
      0 28 "SOFT SNARE LH"
      0 27 "SNARE RH"
      0 26 "SNARE LH"
      0 25 "HI-HAT OPEN"
      0 24 "KICK RF"
    >
    MAINSEND 1 0
    <FXCHAIN
      WNDRECT 545 149 891 559
      SHOW 0
      LASTSEL 0
      DOCKED 0
      BYPASS 0 0
      <VST "VSTi: RBN Preview (RBN)" "rbprev_vst64.dll" 0 ""
        dnBicu5e7f4AAAAAAgAAAAEAAAAAAAAAAgAAAAAAAAAEAAAAAQAAAA==
        AAAQAAMBqgAAABAAAAA=
      >
      FLOATPOS 0 0 0 0
      FXID {1107FA44-11CD-497F-A856-9C2ABACE4E3F}
      WAK 0
    >
    <ITEM
      POSITION 0.00000000000000
      SNAPOFFS 0.00000000000000
      LENGTH 128.64099999999999
      LOOP 0
      ALLTAKES 0
      SEL 0
      FADEIN 1 0.000000 0.000000 1 0
      FADEOUT 1 0.000000 0.000000 1 0
      MUTE 0
      IGUID {EBB7322B-718C-4BE6-AFB8-D4196442CBD1}
      IID 1
      NAME "PART DRUMS"
      VOLPAN 1.000000 0.000000 1.000000 -1.000000
      SOFFS 0.00000000000000 0.00000000000000
      PLAYRATE 1.00000000000000 1 0.00000000000000 -1
      CHANMODE 0
      GUID {A6915233-1B69-4FCB-AF08-4CB826945CFF}
      <SOURCE MIDI
        HASDATA 1 480 QN
        POOLEDEVTS {4F6B1FF3-DDF9-4998-8229-4CCCE046683B}
        <X 0 0
          /wNQQVJUIERSVU1T
        >
        E 0 90 1a 60
        E 0 90 1b 60
        <X 120 0
          /wFbbWl4IDAgZHJ1bXMwXQ==
        >
        E 0 80 1a 00
        E 0 80 1b 00
        <X 120 0
          /wFbbWl4IDEgZHJ1bXMwXQ==
        >
        <X 120 0
          /wFbbWl4IDIgZHJ1bXMwXQ==
        >
        <X 120 0
          /wFbbWl4IDMgZHJ1bXMwXQ==
        >
        E 480 90 19 60
        E 960 80 19 00
        <X 1920 0
          /wFbcGxheV0=
        >
        E 0 90 18 60
        E 0 90 3c 60
        E 0 90 48 60
        E 0 90 54 60
        E 0 90 60 60
        E 120 80 18 00
        E 0 80 3c 00
        E 0 80 48 00
        E 0 80 54 00
        E 0 80 60 00
        E 360 90 18 60
        E 0 90 3c 60
        E 0 90 48 60
        E 0 90 54 60
        E 0 90 60 60
        E 120 80 18 00
        E 0 80 3c 00
        E 0 80 48 00
        E 0 80 54 00
        E 0 80 60 00
        E 360 90 18 60
        E 0 90 3c 60
        E 0 90 48 60
        E 0 90 54 60
        E 0 90 60 60
        E 120 80 18 00
        E 0 80 3c 00
        E 0 80 48 00
        E 0 80 54 00
        E 0 80 60 00
        E 360 90 18 60
        E 0 90 3c 60
        E 0 90 48 60
        E 0 90 54 60
        E 0 90 60 60
        E 120 80 18 00
        E 0 80 3c 00
        E 0 80 48 00
        E 0 80 54 00
        E 0 80 60 00
        E 360 90 18 60
        E 0 90 3c 60
        E 0 90 48 60
        E 0 90 54 60
        E 0 90 60 60
        E 120 80 18 00
        E 0 80 3c 00
        E 0 80 48 00
        E 0 80 54 00
        E 0 80 60 00
        E 360 90 18 60
        E 0 90 3c 60
        E 0 90 48 60
        E 0 90 54 60
        E 0 90 60 60
        E 120 80 18 00
        E 0 80 3c 00
        E 0 80 48 00
        E 0 80 54 00
        E 0 80 60 00
        E 360 90 18 60
        E 0 90 3c 60
        E 0 90 48 60
        E 0 90 54 60
        E 0 90 60 60
        E 120 80 18 00
        E 0 80 3c 00
        E 0 80 48 00
        E 0 80 54 00
        E 0 80 60 00
        E 360 90 18 60
        E 0 90 3c 60
        E 0 90 48 60
        E 0 90 54 60
        E 0 90 60 60
        E 120 80 18 00
        E 0 80 3c 00
        E 0 80 48 00
        E 0 80 54 00
        E 0 80 60 00
        E 360 90 18 60
        E 0 90 3c 60
        E 0 90 48 60
        E 0 90 54 60
        E 0 90 60 60
        E 0 90 78 60
        E 0 90 79 60
        E 0 90 7a 60
        E 0 90 7b 60
        E 0 90 7c 60
        E 120 80 18 00
        E 0 80 3c 00
        E 0 80 48 00
        E 0 80 54 00
        E 0 80 60 00
        E 360 90 18 60
        E 0 90 3c 60
        E 0 90 48 60
        E 0 90 54 60
        E 0 90 60 60
        E 120 80 18 00
        E 0 80 3c 00
        E 0 80 48 00
        E 0 80 54 00
        E 0 80 60 00
        E 360 80 78 00
        E 0 80 79 00
        E 0 80 7a 00
        E 0 80 7b 00
        E 0 80 7c 00
        E 0 90 18 60
        E 0 90 3c 60
        E 0 90 48 60
        E 0 90 54 60
        E 0 90 60 60
        E 120 80 18 00
        E 0 80 3c 00
        E 0 80 48 00
        E 0 80 54 00
        E 0 80 60 00
        E 360 90 18 60
        E 0 90 3c 60
        E 0 90 48 60
        E 0 90 54 60
        E 0 90 60 60
        E 120 80 18 00
        E 0 80 3c 00
        E 0 80 48 00
        E 0 80 54 00
        E 0 80 60 00
        E 360 90 18 60
        E 0 90 3c 60
        E 0 90 48 60
        E 0 90 54 60
        E 0 90 60 60
        E 120 80 18 00
        E 0 80 3c 00
        E 0 80 48 00
        E 0 80 54 00
        E 0 80 60 00
        E 360 90 18 60
        E 0 90 3c 60
        E 0 90 48 60
        E 0 90 54 60
        E 0 90 60 60
        E 120 80 18 00
        E 0 80 3c 00
        E 0 80 48 00
        E 0 80 54 00
        E 0 80 60 00
        E 360 90 18 60
        E 0 90 3c 60
        E 0 90 48 60
        E 0 90 54 60
        E 0 90 60 60
        E 120 80 18 00
        E 0 80 3c 00
        E 0 80 48 00
        E 0 80 54 00
        E 0 80 60 00
        E 360 90 18 60
        E 0 90 3c 60
        E 0 90 48 60
        E 0 90 54 60
        E 0 90 60 60
        E 120 80 18 00
        E 0 80 3c 00
        E 0 80 48 00
        E 0 80 54 00
        E 0 80 60 00
        E 360 90 18 60
        E 0 90 3c 60
        E 0 90 48 60
        E 0 90 54 60
        E 0 90 60 60
        E 120 80 18 00
        E 0 80 3c 00
        E 0 80 48 00
        E 0 80 54 00
        E 0 80 60 00
        E 360 90 18 60
        E 0 90 3c 60
        E 0 90 48 60
        E 0 90 54 60
        E 0 90 60 60
        E 120 80 18 00
        E 0 80 3c 00
        E 0 80 48 00
        E 0 80 54 00
        E 0 80 60 00
        E 360 90 18 60
        E 0 90 3c 60
        E 0 90 48 60
        E 0 90 54 60
        E 0 90 60 60
        E 0 90 78 60
        E 0 90 79 60
        E 0 90 7a 60
        E 0 90 7b 60
        E 0 90 7c 60
        E 120 80 18 00
        E 0 80 3c 00
        E 0 80 48 00
        E 0 80 54 00
        E 0 80 60 00
        E 360 90 18 60
        E 0 90 3c 60
        E 0 90 48 60
        E 0 90 54 60
        E 0 90 60 60
        E 120 80 18 00
        E 0 80 3c 00
        E 0 80 48 00
        E 0 80 54 00
        E 0 80 60 00
        E 360 80 78 00
        E 0 80 79 00
        E 0 80 7a 00
        E 0 80 7b 00
        E 0 80 7c 00
        E 0 90 18 60
        E 0 90 3c 60
        E 0 90 48 60
        E 0 90 54 60
        E 0 90 60 60
        E 120 80 18 00
        E 0 80 3c 00
        E 0 80 48 00
        E 0 80 54 00
        E 0 80 60 00
        E 360 90 18 60
        E 0 90 3c 60
        E 0 90 48 60
        E 0 90 54 60
        E 0 90 60 60
        E 120 80 18 00
        E 0 80 3c 00
        E 0 80 48 00
        E 0 80 54 00
        E 0 80 60 00
        E 360 90 18 60
        E 0 90 3c 60
        E 0 90 48 60
        E 0 90 54 60
        E 0 90 60 60
        E 120 80 18 00
        E 0 80 3c 00
        E 0 80 48 00
        E 0 80 54 00
        E 0 80 60 00
        E 360 90 18 60
        E 0 90 3c 60
        E 0 90 48 60
        E 0 90 54 60
        E 0 90 60 60
        E 120 80 18 00
        E 0 80 3c 00
        E 0 80 48 00
        E 0 80 54 00
        E 0 80 60 00
        E 360 90 18 60
        E 0 90 3c 60
        E 0 90 48 60
        E 0 90 54 60
        E 0 90 60 60
        E 120 80 18 00
        E 0 80 3c 00
        E 0 80 48 00
        E 0 80 54 00
        E 0 80 60 00
        E 360 90 18 60
        E 0 90 3c 60
        E 0 90 48 60
        E 0 90 54 60
        E 0 90 60 60
        E 120 80 18 00
        E 0 80 3c 00
        E 0 80 48 00
        E 0 80 54 00
        E 0 80 60 00
        E 360 90 18 60
        E 0 90 3c 60
        E 0 90 48 60
        E 0 90 54 60
        E 0 90 60 60
        E 120 80 18 00
        E 0 80 3c 00
        E 0 80 48 00
        E 0 80 54 00
        E 0 80 60 00
        E 360 90 18 60
        E 0 90 3c 60
        E 0 90 48 60
        E 0 90 54 60
        E 0 90 60 60
        E 120 80 18 00
        E 0 80 3c 00
        E 0 80 48 00
        E 0 80 54 00
        E 0 80 60 00
        E 360 90 18 60
        E 0 90 3c 60
        E 0 90 48 60
        E 0 90 54 60
        E 0 90 60 60
        E 0 90 78 60
        E 0 90 79 60
        E 0 90 7a 60
        E 0 90 7b 60
        E 0 90 7c 60
        E 120 80 18 00
        E 0 80 3c 00
        E 0 80 48 00
        E 0 80 54 00
        E 0 80 60 00
        E 360 90 18 60
        E 0 90 3c 60
        E 0 90 48 60
        E 0 90 54 60
        E 0 90 60 60
        E 120 80 18 00
        E 0 80 3c 00
        E 0 80 48 00
        E 0 80 54 00
        E 0 80 60 00
        E 360 80 78 00
        E 0 80 79 00
        E 0 80 7a 00
        E 0 80 7b 00
        E 0 80 7c 00
        E 0 90 18 60
        E 0 90 3c 60
        E 0 90 48 60
        E 0 90 54 60
        E 0 90 60 60
        E 120 80 18 00
        E 0 80 3c 00
        E 0 80 48 00
        E 0 80 54 00
        E 0 80 60 00
        E 360 90 18 60
        E 0 90 3c 60
        E 0 90 48 60
        E 0 90 54 60
        E 0 90 60 60
        E 120 80 18 00
        E 0 80 3c 00
        E 0 80 48 00
        E 0 80 54 00
        E 0 80 60 00
        E 360 90 18 60
        E 0 90 3c 60
        E 0 90 48 60
        E 0 90 54 60
        E 0 90 60 60
        E 120 80 18 00
        E 0 80 3c 00
        E 0 80 48 00
        E 0 80 54 00
        E 0 80 60 00
        E 360 90 18 60
        E 0 90 3c 60
        E 0 90 48 60
        E 0 90 54 60
        E 0 90 60 60
        E 120 80 18 00
        E 0 80 3c 00
        E 0 80 48 00
        E 0 80 54 00
        E 0 80 60 00
        E 360 90 18 60
        E 0 90 3c 60
        E 0 90 48 60
        E 0 90 54 60
        E 0 90 60 60
        E 120 80 18 00
        E 0 80 3c 00
        E 0 80 48 00
        E 0 80 54 00
        E 0 80 60 00
        E 360 90 18 60
        E 0 90 3c 60
        E 0 90 48 60
        E 0 90 54 60
        E 0 90 60 60
        E 120 80 18 00
        E 0 80 3c 00
        E 0 80 48 00
        E 0 80 54 00
        E 0 80 60 00
        E 360 90 18 60
        E 0 90 3c 60
        E 0 90 48 60
        E 0 90 54 60
        E 0 90 60 60
        E 120 80 18 00
        E 0 80 3c 00
        E 0 80 48 00
        E 0 80 54 00
        E 0 80 60 00
        E 360 90 18 60
        E 0 90 3c 60
        E 0 90 48 60
        E 0 90 54 60
        E 0 90 60 60
        E 120 80 18 00
        E 0 80 3c 00
        E 0 80 48 00
        E 0 80 54 00
        E 0 80 60 00
        E 360 90 18 60
        E 0 90 3c 60
        E 0 90 48 60
        E 0 90 54 60
        E 0 90 60 60
        E 0 90 78 60
        E 0 90 79 60
        E 0 90 7a 60
        E 0 90 7b 60
        E 0 90 7c 60
        E 120 80 18 00
        E 0 80 3c 00
        E 0 80 48 00
        E 0 80 54 00
        E 0 80 60 00
        E 360 90 18 60
        E 0 90 3c 60
        E 0 90 48 60
        E 0 90 54 60
        E 0 90 60 60
        E 120 80 18 00
        E 0 80 3c 00
        E 0 80 48 00
        E 0 80 54 00
        E 0 80 60 00
        E 360 80 78 00
        E 0 80 79 00
        E 0 80 7a 00
        E 0 80 7b 00
        E 0 80 7c 00
        E 0 90 18 60
        E 0 90 3c 60
        E 0 90 48 60
        E 0 90 54 60
        E 0 90 60 60
        E 0 90 74 60
        E 120 80 18 00
        E 0 80 3c 00
        E 0 80 48 00
        E 0 80 54 00
        E 0 80 60 00
        E 360 90 18 60
        E 0 90 3c 60
        E 0 90 48 60
        E 0 90 54 60
        E 0 90 60 60
        E 120 80 18 00
        E 0 80 3c 00
        E 0 80 48 00
        E 0 80 54 00
        E 0 80 60 00
        E 360 90 18 60
        E 0 90 3c 60
        E 0 90 48 60
        E 0 90 54 60
        E 0 90 60 60
        E 120 80 18 00
        E 0 80 3c 00
        E 0 80 48 00
        E 0 80 54 00
        E 0 80 60 00
        E 360 90 18 60
        E 0 90 3c 60
        E 0 90 48 60
        E 0 90 54 60
        E 0 90 60 60
        E 120 80 18 00
        E 0 80 3c 00
        E 0 80 48 00
        E 0 80 54 00
        E 0 80 60 00
        E 360 90 18 60
        E 0 90 3c 60
        E 0 90 48 60
        E 0 90 54 60
        E 0 90 60 60
        E 120 80 18 00
        E 0 80 3c 00
        E 0 80 48 00
        E 0 80 54 00
        E 0 80 60 00
        E 360 90 18 60
        E 0 90 3c 60
        E 0 90 48 60
        E 0 90 54 60
        E 0 90 60 60
        E 120 80 18 00
        E 0 80 3c 00
        E 0 80 48 00
        E 0 80 54 00
        E 0 80 60 00
        E 360 90 18 60
        E 0 90 3c 60
        E 0 90 48 60
        E 0 90 54 60
        E 0 90 60 60
        E 120 80 18 00
        E 0 80 3c 00
        E 0 80 48 00
        E 0 80 54 00
        E 0 80 60 00
        E 360 90 18 60
        E 0 90 3c 60
        E 0 90 48 60
        E 0 90 54 60
        E 0 90 60 60
        E 120 80 18 00
        E 0 80 3c 00
        E 0 80 48 00
        E 0 80 54 00
        E 0 80 60 00
        E 360 90 18 60
        E 0 90 3c 60
        E 0 90 48 60
        E 0 90 54 60
        E 0 90 60 60
        E 120 80 18 00
        E 0 80 3c 00
        E 0 80 48 00
        E 0 80 54 00
        E 0 80 60 00
        E 360 90 18 60
        E 0 90 3c 60
        E 0 90 48 60
        E 0 90 54 60
        E 0 90 60 60
        E 120 80 18 00
        E 0 80 3c 00
        E 0 80 48 00
        E 0 80 54 00
        E 0 80 60 00
        E 360 90 18 60
        E 0 90 3c 60
        E 0 90 48 60
        E 0 90 54 60
        E 0 90 60 60
        E 120 80 74 00
        E 0 80 18 00
        E 0 80 3c 00
        E 0 80 48 00
        E 0 80 54 00
        E 0 80 60 00
        E 360 90 18 60
        E 0 90 3c 60
        E 0 90 48 60
        E 0 90 54 60
        E 0 90 60 60
        E 120 80 18 00
        E 0 80 3c 00
        E 0 80 48 00
        E 0 80 54 00
        E 0 80 60 00
        E 360 90 18 60
        E 0 90 3c 60
        E 0 90 48 60
        E 0 90 54 60
        E 0 90 60 60
        E 120 80 18 00
        E 0 80 3c 00
        E 0 80 48 00
        E 0 80 54 00
        E 0 80 60 00
        E 360 90 18 60
        E 0 90 3c 60
        E 0 90 48 60
        E 0 90 54 60
        E 0 90 60 60
        E 120 80 18 00
        E 0 80 3c 00
        E 0 80 48 00
        E 0 80 54 00
        E 0 80 60 00
        E 360 90 18 60
        E 0 90 3c 60
        E 0 90 48 60
        E 0 90 54 60
        E 0 90 60 60
        E 0 90 78 60
        E 0 90 79 60
        E 0 90 7a 60
        E 0 90 7b 60
        E 0 90 7c 60
        E 120 80 18 00
        E 0 80 3c 00
        E 0 80 48 00
        E 0 80 54 00
        E 0 80 60 00
        E 360 90 18 60
        E 0 90 3c 60
        E 0 90 48 60
        E 0 90 54 60
        E 0 90 60 60
        E 120 80 18 00
        E 0 80 3c 00
        E 0 80 48 00
        E 0 80 54 00
        E 0 80 60 00
        E 360 90 18 60
        E 0 90 3c 60
        E 0 90 48 60
        E 0 90 54 60
        E 0 90 60 60
        E 120 80 18 00
        E 0 80 3c 00
        E 0 80 48 00
        E 0 80 54 00
        E 0 80 60 00
        E 360 90 18 60
        E 0 90 3c 60
        E 0 90 48 60
        E 0 90 54 60
        E 0 90 60 60
        E 120 80 18 00
        E 0 80 3c 00
        E 0 80 48 00
        E 0 80 54 00
        E 0 80 60 00
        E 360 80 78 00
        E 0 80 79 00
        E 0 80 7a 00
        E 0 80 7b 00
        E 0 80 7c 00
        E 0 90 18 60
        E 0 90 3c 60
        E 0 90 48 60
        E 0 90 54 60
        E 0 90 60 60
        E 120 80 18 00
        E 0 80 3c 00
        E 0 80 48 00
        E 0 80 54 00
        E 0 80 60 00
        E 360 90 18 60
        E 0 90 3c 60
        E 0 90 48 60
        E 0 90 54 60
        E 0 90 60 60
        E 120 80 18 00
        E 0 80 3c 00
        E 0 80 48 00
        E 0 80 54 00
        E 0 80 60 00
        E 360 90 18 60
        E 0 90 3c 60
        E 0 90 48 60
        E 0 90 54 60
        E 0 90 60 60
        E 120 80 18 00
        E 0 80 3c 00
        E 0 80 48 00
        E 0 80 54 00
        E 0 80 60 00
        E 360 90 18 60
        E 0 90 3c 60
        E 0 90 48 60
        E 0 90 54 60
        E 0 90 60 60
        E 120 80 18 00
        E 0 80 3c 00
        E 0 80 48 00
        E 0 80 54 00
        E 0 80 60 00
        E 360 90 18 60
        E 0 90 3c 60
        E 0 90 48 60
        E 0 90 54 60
        E 0 90 60 60
        E 120 80 18 00
        E 0 80 3c 00
        E 0 80 48 00
        E 0 80 54 00
        E 0 80 60 00
        E 360 90 18 60
        E 0 90 3c 60
        E 0 90 48 60
        E 0 90 54 60
        E 0 90 60 60
        E 120 80 18 00
        E 0 80 3c 00
        E 0 80 48 00
        E 0 80 54 00
        E 0 80 60 00
        E 360 90 18 60
        E 0 90 3c 60
        E 0 90 48 60
        E 0 90 54 60
        E 0 90 60 60
        E 120 80 18 00
        E 0 80 3c 00
        E 0 80 48 00
        E 0 80 54 00
        E 0 80 60 00
        E 360 90 18 60
        E 0 90 3c 60
        E 0 90 48 60
        E 0 90 54 60
        E 0 90 60 60
        E 120 80 18 00
        E 0 80 3c 00
        E 0 80 48 00
        E 0 80 54 00
        E 0 80 60 00
        E 360 90 18 60
        E 0 90 3c 60
        E 0 90 48 60
        E 0 90 54 60
        E 0 90 60 60
        E 120 80 18 00
        E 0 80 3c 00
        E 0 80 48 00
        E 0 80 54 00
        E 0 80 60 00
        E 360 90 18 60
        E 0 90 3c 60
        E 0 90 48 60
        E 0 90 54 60
        E 0 90 60 60
        E 120 80 18 00
        E 0 80 3c 00
        E 0 80 48 00
        E 0 80 54 00
        E 0 80 60 00
        E 360 90 18 60
        E 0 90 3c 60
        E 0 90 48 60
        E 0 90 54 60
        E 0 90 60 60
        E 120 80 18 00
        E 0 80 3c 00
        E 0 80 48 00
        E 0 80 54 00
        E 0 80 60 00
        E 360 90 18 60
        E 0 90 3c 60
        E 0 90 48 60
        E 0 90 54 60
        E 0 90 60 60
        E 120 80 18 00
        E 0 80 3c 00
        E 0 80 48 00
        E 0 80 54 00
        E 0 80 60 00
        E 360 90 18 60
        E 0 90 3c 60
        E 0 90 48 60
        E 0 90 54 60
        E 0 90 60 60
        E 0 90 78 60
        E 0 90 79 60
        E 0 90 7a 60
        E 0 90 7b 60
        E 0 90 7c 60
        E 120 80 18 00
        E 0 80 3c 00
        E 0 80 48 00
        E 0 80 54 00
        E 0 80 60 00
        E 360 90 18 60
        E 0 90 3c 60
        E 0 90 48 60
        E 0 90 54 60
        E 0 90 60 60
        E 120 80 18 00
        E 0 80 3c 00
        E 0 80 48 00
        E 0 80 54 00
        E 0 80 60 00
        E 360 90 18 60
        E 0 90 3c 60
        E 0 90 48 60
        E 0 90 54 60
        E 0 90 60 60
        E 120 80 18 00
        E 0 80 3c 00
        E 0 80 48 00
        E 0 80 54 00
        E 0 80 60 00
        E 360 90 18 60
        E 0 90 3c 60
        E 0 90 48 60
        E 0 90 54 60
        E 0 90 60 60
        E 120 80 18 00
        E 0 80 3c 00
        E 0 80 48 00
        E 0 80 54 00
        E 0 80 60 00
        E 360 80 78 00
        E 0 80 79 00
        E 0 80 7a 00
        E 0 80 7b 00
        E 0 80 7c 00
        E 0 90 18 60
        E 0 90 3c 60
        E 0 90 48 60
        E 0 90 54 60
        E 0 90 60 60
        E 120 80 18 00
        E 0 80 3c 00
        E 0 80 48 00
        E 0 80 54 00
        E 0 80 60 00
        E 360 90 18 60
        E 0 90 3c 60
        E 0 90 48 60
        E 0 90 54 60
        E 0 90 60 60
        E 120 80 18 00
        E 0 80 3c 00
        E 0 80 48 00
        E 0 80 54 00
        E 0 80 60 00
        E 360 90 18 60
        E 0 90 3c 60
        E 0 90 48 60
        E 0 90 54 60
        E 0 90 60 60
        E 120 80 18 00
        E 0 80 3c 00
        E 0 80 48 00
        E 0 80 54 00
        E 0 80 60 00
        E 360 90 18 60
        E 0 90 3c 60
        E 0 90 48 60
        E 0 90 54 60
        E 0 90 60 60
        E 120 80 18 00
        E 0 80 3c 00
        E 0 80 48 00
        E 0 80 54 00
        E 0 80 60 00
        E 360 90 18 60
        E 0 90 3c 60
        E 0 90 48 60
        E 0 90 54 60
        E 0 90 60 60
        E 0 90 74 60
        E 120 80 18 00
        E 0 80 3c 00
        E 0 80 48 00
        E 0 80 54 00
        E 0 80 60 00
        E 360 90 18 60
        E 0 90 3c 60
        E 0 90 48 60
        E 0 90 54 60
        E 0 90 60 60
        E 120 80 18 00
        E 0 80 3c 00
        E 0 80 48 00
        E 0 80 54 00
        E 0 80 60 00
        E 360 90 18 60
        E 0 90 3c 60
        E 0 90 48 60
        E 0 90 54 60
        E 0 90 60 60
        E 120 80 18 00
        E 0 80 3c 00
        E 0 80 48 00
        E 0 80 54 00
        E 0 80 60 00
        E 360 90 18 60
        E 0 90 3c 60
        E 0 90 48 60
        E 0 90 54 60
        E 0 90 60 60
        E 120 80 18 00
        E 0 80 3c 00
        E 0 80 48 00
        E 0 80 54 00
        E 0 80 60 00
        E 360 90 18 60
        E 0 90 3c 60
        E 0 90 48 60
        E 0 90 54 60
        E 0 90 60 60
        E 120 80 18 00
        E 0 80 3c 00
        E 0 80 48 00
        E 0 80 54 00
        E 0 80 60 00
        E 360 90 18 60
        E 0 90 3c 60
        E 0 90 48 60
        E 0 90 54 60
        E 0 90 60 60
        E 120 80 18 00
        E 0 80 3c 00
        E 0 80 48 00
        E 0 80 54 00
        E 0 80 60 00
        E 360 80 74 00
        E 0 90 18 60
        E 0 90 3c 60
        E 0 90 48 60
        E 0 90 54 60
        E 0 90 60 60
        E 120 80 18 00
        E 0 80 3c 00
        E 0 80 48 00
        E 0 80 54 00
        E 0 80 60 00
        E 360 90 18 60
        E 0 90 3c 60
        E 0 90 48 60
        E 0 90 54 60
        E 0 90 60 60
        E 120 80 18 00
        E 0 80 3c 00
        E 0 80 48 00
        E 0 80 54 00
        E 0 80 60 00
        E 360 90 18 60
        E 0 90 3c 60
        E 0 90 48 60
        E 0 90 54 60
        E 0 90 60 60
        E 120 80 18 00
        E 0 80 3c 00
        E 0 80 48 00
        E 0 80 54 00
        E 0 80 60 00
        E 360 90 18 60
        E 0 90 3c 60
        E 0 90 48 60
        E 0 90 54 60
        E 0 90 60 60
        E 120 80 18 00
        E 0 80 3c 00
        E 0 80 48 00
        E 0 80 54 00
        E 0 80 60 00
        E 360 90 18 60
        E 0 90 3c 60
        E 0 90 48 60
        E 0 90 54 60
        E 0 90 60 60
        E 120 80 18 00
        E 0 80 3c 00
        E 0 80 48 00
        E 0 80 54 00
        E 0 80 60 00
        E 360 90 18 60
        E 0 90 3c 60
        E 0 90 48 60
        E 0 90 54 60
        E 0 90 60 60
        E 120 80 18 00
        E 0 80 3c 00
        E 0 80 48 00
        E 0 80 54 00
        E 0 80 60 00
        E 360 90 18 60
        E 0 90 3c 60
        E 0 90 48 60
        E 0 90 54 60
        E 0 90 60 60
        E 120 80 18 00
        E 0 80 3c 00
        E 0 80 48 00
        E 0 80 54 00
        E 0 80 60 00
        E 360 90 18 60
        E 0 90 3c 60
        E 0 90 48 60
        E 0 90 54 60
        E 0 90 60 60
        E 120 80 18 00
        E 0 80 3c 00
        E 0 80 48 00
        E 0 80 54 00
        E 0 80 60 00
        E 360 90 18 60
        E 0 90 3c 60
        E 0 90 48 60
        E 0 90 54 60
        E 0 90 60 60
        E 0 90 78 60
        E 0 90 79 60
        E 0 90 7a 60
        E 0 90 7b 60
        E 0 90 7c 60
        E 120 80 18 00
        E 0 80 3c 00
        E 0 80 48 00
        E 0 80 54 00
        E 0 80 60 00
        E 360 90 18 60
        E 0 90 3c 60
        E 0 90 48 60
        E 0 90 54 60
        E 0 90 60 60
        E 120 80 18 00
        E 0 80 3c 00
        E 0 80 48 00
        E 0 80 54 00
        E 0 80 60 00
        E 360 80 78 00
        E 0 80 79 00
        E 0 80 7a 00
        E 0 80 7b 00
        E 0 80 7c 00
        E 0 90 18 60
        E 0 90 3c 60
        E 0 90 48 60
        E 0 90 54 60
        E 0 90 60 60
        E 120 80 18 00
        E 0 80 3c 00
        E 0 80 48 00
        E 0 80 54 00
        E 0 80 60 00
        E 360 90 18 60
        E 0 90 3c 60
        E 0 90 48 60
        E 0 90 54 60
        E 0 90 60 60
        E 120 80 18 00
        E 0 80 3c 00
        E 0 80 48 00
        E 0 80 54 00
        E 0 80 60 00
        E 360 90 18 60
        E 0 90 3c 60
        E 0 90 48 60
        E 0 90 54 60
        E 0 90 60 60
        E 120 80 18 00
        E 0 80 3c 00
        E 0 80 48 00
        E 0 80 54 00
        E 0 80 60 00
        E 360 90 18 60
        E 0 90 3c 60
        E 0 90 48 60
        E 0 90 54 60
        E 0 90 60 60
        E 120 80 18 00
        E 0 80 3c 00
        E 0 80 48 00
        E 0 80 54 00
        E 0 80 60 00
        E 360 90 18 60
        E 0 90 3c 60
        E 0 90 48 60
        E 0 90 54 60
        E 0 90 60 60
        E 120 80 18 00
        E 0 80 3c 00
        E 0 80 48 00
        E 0 80 54 00
        E 0 80 60 00
        E 360 90 18 60
        E 0 90 3c 60
        E 0 90 48 60
        E 0 90 54 60
        E 0 90 60 60
        E 120 80 18 00
        E 0 80 3c 00
        E 0 80 48 00
        E 0 80 54 00
        E 0 80 60 00
        E 360 90 18 60
        E 0 90 3c 60
        E 0 90 48 60
        E 0 90 54 60
        E 0 90 60 60
        E 120 80 18 00
        E 0 80 3c 00
        E 0 80 48 00
        E 0 80 54 00
        E 0 80 60 00
        E 360 90 18 60
        E 0 90 3c 60
        E 0 90 48 60
        E 0 90 54 60
        E 0 90 60 60
        E 120 80 18 00
        E 0 80 3c 00
        E 0 80 48 00
        E 0 80 54 00
        E 0 80 60 00
        E 360 90 18 60
        E 0 90 3c 60
        E 0 90 48 60
        E 0 90 54 60
        E 0 90 60 60
        E 0 90 78 60
        E 0 90 79 60
        E 0 90 7a 60
        E 0 90 7b 60
        E 0 90 7c 60
        E 120 80 18 00
        E 0 80 3c 00
        E 0 80 48 00
        E 0 80 54 00
        E 0 80 60 00
        E 360 90 18 60
        E 0 90 3c 60
        E 0 90 48 60
        E 0 90 54 60
        E 0 90 60 60
        E 120 80 18 00
        E 0 80 3c 00
        E 0 80 48 00
        E 0 80 54 00
        E 0 80 60 00
        E 360 80 78 00
        E 0 80 79 00
        E 0 80 7a 00
        E 0 80 7b 00
        E 0 80 7c 00
        E 0 90 18 60
        E 0 90 3c 60
        E 0 90 48 60
        E 0 90 54 60
        E 0 90 60 60
        E 120 80 18 00
        E 0 80 3c 00
        E 0 80 48 00
        E 0 80 54 00
        E 0 80 60 00
        E 360 90 18 60
        E 0 90 3c 60
        E 0 90 48 60
        E 0 90 54 60
        E 0 90 60 60
        E 120 80 18 00
        E 0 80 3c 00
        E 0 80 48 00
        E 0 80 54 00
        E 0 80 60 00
        E 360 90 18 60
        E 0 90 3c 60
        E 0 90 48 60
        E 0 90 54 60
        E 0 90 60 60
        E 120 80 18 00
        E 0 80 3c 00
        E 0 80 48 00
        E 0 80 54 00
        E 0 80 60 00
        E 360 90 18 60
        E 0 90 3c 60
        E 0 90 48 60
        E 0 90 54 60
        E 0 90 60 60
        E 120 80 18 00
        E 0 80 3c 00
        E 0 80 48 00
        E 0 80 54 00
        E 0 80 60 00
        E 360 90 18 60
        E 0 90 3c 60
        E 0 90 48 60
        E 0 90 54 60
        E 0 90 60 60
        E 120 80 18 00
        E 0 80 3c 00
        E 0 80 48 00
        E 0 80 54 00
        E 0 80 60 00
        E 360 90 18 60
        E 0 90 3c 60
        E 0 90 48 60
        E 0 90 54 60
        E 0 90 60 60
        E 120 80 18 00
        E 0 80 3c 00
        E 0 80 48 00
        E 0 80 54 00
        E 0 80 60 00
        E 360 90 18 60
        E 0 90 3c 60
        E 0 90 48 60
        E 0 90 54 60
        E 0 90 60 60
        E 120 80 18 00
        E 0 80 3c 00
        E 0 80 48 00
        E 0 80 54 00
        E 0 80 60 00
        E 360 90 18 60
        E 0 90 3c 60
        E 0 90 48 60
        E 0 90 54 60
        E 0 90 60 60
        E 120 80 18 00
        E 0 80 3c 00
        E 0 80 48 00
        E 0 80 54 00
        E 0 80 60 00
        E 360 90 18 60
        E 0 90 3c 60
        E 0 90 48 60
        E 0 90 54 60
        E 0 90 60 60
        E 120 80 18 00
        E 0 80 3c 00
        E 0 80 48 00
        E 0 80 54 00
        E 0 80 60 00
        E 360 90 18 60
        E 0 90 3c 60
        E 0 90 48 60
        E 0 90 54 60
        E 0 90 60 60
        E 120 80 18 00
        E 0 80 3c 00
        E 0 80 48 00
        E 0 80 54 00
        E 0 80 60 00
        E 360 90 18 60
        E 0 90 3c 60
        E 0 90 48 60
        E 0 90 54 60
        E 0 90 60 60
        E 0 90 74 60
        E 120 80 18 00
        E 0 80 3c 00
        E 0 80 48 00
        E 0 80 54 00
        E 0 80 60 00
        E 360 90 18 60
        E 0 90 3c 60
        E 0 90 48 60
        E 0 90 54 60
        E 0 90 60 60
        E 120 80 18 00
        E 0 80 3c 00
        E 0 80 48 00
        E 0 80 54 00
        E 0 80 60 00
        E 360 90 18 60
        E 0 90 3c 60
        E 0 90 48 60
        E 0 90 54 60
        E 0 90 60 60
        E 120 80 18 00
        E 0 80 3c 00
        E 0 80 48 00
        E 0 80 54 00
        E 0 80 60 00
        E 360 90 18 60
        E 0 90 3c 60
        E 0 90 48 60
        E 0 90 54 60
        E 0 90 60 60
        E 120 80 18 00
        E 0 80 3c 00
        E 0 80 48 00
        E 0 80 54 00
        E 0 80 60 00
        E 360 90 18 60
        E 0 90 3c 60
        E 0 90 48 60
        E 0 90 54 60
        E 0 90 60 60
        E 120 80 18 00
        E 0 80 3c 00
        E 0 80 48 00
        E 0 80 54 00
        E 0 80 60 00
        E 360 90 18 60
        E 0 90 3c 60
        E 0 90 48 60
        E 0 90 54 60
        E 0 90 60 60
        E 120 80 18 00
        E 0 80 3c 00
        E 0 80 48 00
        E 0 80 54 00
        E 0 80 60 00
        E 360 90 18 60
        E 0 90 3c 60
        E 0 90 48 60
        E 0 90 54 60
        E 0 90 60 60
        E 120 80 18 00
        E 0 80 3c 00
        E 0 80 48 00
        E 0 80 54 00
        E 0 80 60 00
        E 360 90 18 60
        E 0 90 3c 60
        E 0 90 48 60
        E 0 90 54 60
        E 0 90 60 60
        E 120 80 18 00
        E 0 80 3c 00
        E 0 80 48 00
        E 0 80 54 00
        E 0 80 60 00
        E 360 90 18 60
        E 0 90 3c 60
        E 0 90 48 60
        E 0 90 54 60
        E 0 90 60 60
        E 120 80 18 00
        E 0 80 3c 00
        E 0 80 48 00
        E 0 80 54 00
        E 0 80 60 00
        E 360 90 18 60
        E 0 90 3c 60
        E 0 90 48 60
        E 0 90 54 60
        E 0 90 60 60
        E 120 80 18 00
        E 0 80 3c 00
        E 0 80 48 00
        E 0 80 54 00
        E 0 80 60 00
        E 360 90 18 60
        E 0 90 3c 60
        E 0 90 48 60
        E 0 90 54 60
        E 0 90 60 60
        E 120 80 74 00
        E 0 80 18 00
        E 0 80 3c 00
        E 0 80 48 00
        E 0 80 54 00
        E 0 80 60 00
        E 360 90 18 60
        E 0 90 3c 60
        E 0 90 48 60
        E 0 90 54 60
        E 0 90 60 60
        E 120 80 18 00
        E 0 80 3c 00
        E 0 80 48 00
        E 0 80 54 00
        E 0 80 60 00
        E 360 90 18 60
        E 0 90 3c 60
        E 0 90 48 60
        E 0 90 54 60
        E 0 90 60 60
        E 120 80 18 00
        E 0 80 3c 00
        E 0 80 48 00
        E 0 80 54 00
        E 0 80 60 00
        E 360 90 18 60
        E 0 90 3c 60
        E 0 90 48 60
        E 0 90 54 60
        E 0 90 60 60
        E 120 80 18 00
        E 0 80 3c 00
        E 0 80 48 00
        E 0 80 54 00
        E 0 80 60 00
        E 360 90 18 60
        E 0 90 3c 60
        E 0 90 48 60
        E 0 90 54 60
        E 0 90 60 60
        E 0 90 78 60
        E 0 90 79 60
        E 0 90 7a 60
        E 0 90 7b 60
        E 0 90 7c 60
        E 120 80 18 00
        E 0 80 3c 00
        E 0 80 48 00
        E 0 80 54 00
        E 0 80 60 00
        E 360 90 18 60
        E 0 90 3c 60
        E 0 90 48 60
        E 0 90 54 60
        E 0 90 60 60
        E 120 80 18 00
        E 0 80 3c 00
        E 0 80 48 00
        E 0 80 54 00
        E 0 80 60 00
        E 360 90 18 60
        E 0 90 3c 60
        E 0 90 48 60
        E 0 90 54 60
        E 0 90 60 60
        E 120 80 18 00
        E 0 80 3c 00
        E 0 80 48 00
        E 0 80 54 00
        E 0 80 60 00
        E 360 90 18 60
        E 0 90 3c 60
        E 0 90 48 60
        E 0 90 54 60
        E 0 90 60 60
        E 120 80 18 00
        E 0 80 3c 00
        E 0 80 48 00
        E 0 80 54 00
        E 0 80 60 00
        E 360 80 78 00
        E 0 80 79 00
        E 0 80 7a 00
        E 0 80 7b 00
        E 0 80 7c 00
        E 0 90 18 60
        E 0 90 3c 60
        E 0 90 48 60
        E 0 90 54 60
        E 0 90 60 60
        E 120 80 18 00
        E 0 80 3c 00
        E 0 80 48 00
        E 0 80 54 00
        E 0 80 60 00
        E 360 90 18 60
        E 0 90 3c 60
        E 0 90 48 60
        E 0 90 54 60
        E 0 90 60 60
        E 120 80 18 00
        E 0 80 3c 00
        E 0 80 48 00
        E 0 80 54 00
        E 0 80 60 00
        E 360 90 18 60
        E 0 90 3c 60
        E 0 90 48 60
        E 0 90 54 60
        E 0 90 60 60
        E 120 80 18 00
        E 0 80 3c 00
        E 0 80 48 00
        E 0 80 54 00
        E 0 80 60 00
        E 360 90 18 60
        E 0 90 3c 60
        E 0 90 48 60
        E 0 90 54 60
        E 0 90 60 60
        E 120 80 18 00
        E 0 80 3c 00
        E 0 80 48 00
        E 0 80 54 00
        E 0 80 60 00
        E 360 90 18 60
        E 0 90 3c 60
        E 0 90 48 60
        E 0 90 54 60
        E 0 90 60 60
        E 120 80 18 00
        E 0 80 3c 00
        E 0 80 48 00
        E 0 80 54 00
        E 0 80 60 00
        E 360 90 18 60
        E 0 90 3c 60
        E 0 90 48 60
        E 0 90 54 60
        E 0 90 60 60
        E 120 80 18 00
        E 0 80 3c 00
        E 0 80 48 00
        E 0 80 54 00
        E 0 80 60 00
        E 360 90 18 60
        E 0 90 3c 60
        E 0 90 48 60
        E 0 90 54 60
        E 0 90 60 60
        E 120 80 18 00
        E 0 80 3c 00
        E 0 80 48 00
        E 0 80 54 00
        E 0 80 60 00
        E 360 90 18 60
        E 0 90 3c 60
        E 0 90 48 60
        E 0 90 54 60
        E 0 90 60 60
        E 120 80 18 00
        E 0 80 3c 00
        E 0 80 48 00
        E 0 80 54 00
        E 0 80 60 00
        E 360 90 18 60
        E 0 90 3c 60
        E 0 90 48 60
        E 0 90 54 60
        E 0 90 60 60
        E 120 80 18 00
        E 0 80 3c 00
        E 0 80 48 00
        E 0 80 54 00
        E 0 80 60 00
        E 360 90 18 60
        E 0 90 3c 60
        E 0 90 48 60
        E 0 90 54 60
        E 0 90 60 60
        E 120 80 18 00
        E 0 80 3c 00
        E 0 80 48 00
        E 0 80 54 00
        E 0 80 60 00
        E 360 90 18 60
        E 0 90 3c 60
        E 0 90 48 60
        E 0 90 54 60
        E 0 90 60 60
        E 120 80 18 00
        E 0 80 3c 00
        E 0 80 48 00
        E 0 80 54 00
        E 0 80 60 00
        E 360 90 18 60
        E 0 90 3c 60
        E 0 90 48 60
        E 0 90 54 60
        E 0 90 60 60
        E 120 80 18 00
        E 0 80 3c 00
        E 0 80 48 00
        E 0 80 54 00
        E 0 80 60 00
        E 360 90 18 60
        E 0 90 3c 60
        E 0 90 48 60
        E 0 90 54 60
        E 0 90 60 60
        E 0 90 74 60
        E 120 80 18 00
        E 0 80 3c 00
        E 0 80 48 00
        E 0 80 54 00
        E 0 80 60 00
        E 360 90 18 60
        E 0 90 3c 60
        E 0 90 48 60
        E 0 90 54 60
        E 0 90 60 60
        E 120 80 18 00
        E 0 80 3c 00
        E 0 80 48 00
        E 0 80 54 00
        E 0 80 60 00
        E 360 90 18 60
        E 0 90 3c 60
        E 0 90 48 60
        E 0 90 54 60
        E 0 90 60 60
        E 120 80 18 00
        E 0 80 3c 00
        E 0 80 48 00
        E 0 80 54 00
        E 0 80 60 00
        E 360 90 18 60
        E 0 90 3c 60
        E 0 90 48 60
        E 0 90 54 60
        E 0 90 60 60
        E 120 80 18 00
        E 0 80 3c 00
        E 0 80 48 00
        E 0 80 54 00
        E 0 80 60 00
        E 360 90 18 60
        E 0 90 3c 60
        E 0 90 48 60
        E 0 90 54 60
        E 0 90 60 60
        E 120 80 74 00
        E 0 80 18 00
        E 0 80 3c 00
        E 0 80 48 00
        E 0 80 54 00
        E 0 80 60 00
        E 360 90 18 60
        E 0 90 3c 60
        E 0 90 48 60
        E 0 90 54 60
        E 0 90 60 60
        E 120 80 18 00
        E 0 80 3c 00
        E 0 80 48 00
        E 0 80 54 00
        E 0 80 60 00
        E 360 90 18 60
        E 0 90 3c 60
        E 0 90 48 60
        E 0 90 54 60
        E 0 90 60 60
        E 120 80 18 00
        E 0 80 3c 00
        E 0 80 48 00
        E 0 80 54 00
        E 0 80 60 00
        E 360 90 18 60
        E 0 90 3c 60
        E 0 90 48 60
        E 0 90 54 60
        E 0 90 60 60
        E 120 80 18 00
        E 0 80 3c 00
        E 0 80 48 00
        E 0 80 54 00
        E 0 80 60 00
        E 360 90 18 60
        E 0 90 3c 60
        E 0 90 48 60
        E 0 90 54 60
        E 0 90 60 60
        E 120 80 18 00
        E 0 80 3c 00
        E 0 80 48 00
        E 0 80 54 00
        E 0 80 60 00
        E 360 90 18 60
        E 0 90 3c 60
        E 0 90 48 60
        E 0 90 54 60
        E 0 90 60 60
        E 120 80 18 00
        E 0 80 3c 00
        E 0 80 48 00
        E 0 80 54 00
        E 0 80 60 00
        E 360 90 18 60
        E 0 90 3c 60
        E 0 90 48 60
        E 0 90 54 60
        E 0 90 60 60
        E 120 80 18 00
        E 0 80 3c 00
        E 0 80 48 00
        E 0 80 54 00
        E 0 80 60 00
        E 360 90 18 60
        E 0 90 3c 60
        E 0 90 48 60
        E 0 90 54 60
        E 0 90 60 60
        E 120 80 18 00
        E 0 80 3c 00
        E 0 80 48 00
        E 0 80 54 00
        E 0 80 60 00
        E 360 90 18 60
        E 0 90 3c 60
        E 0 90 48 60
        E 0 90 54 60
        E 0 90 60 60
        E 0 90 78 60
        E 0 90 79 60
        E 0 90 7a 60
        E 0 90 7b 60
        E 0 90 7c 60
        E 120 80 18 00
        E 0 80 3c 00
        E 0 80 48 00
        E 0 80 54 00
        E 0 80 60 00
        E 360 90 18 60
        E 0 90 3c 60
        E 0 90 48 60
        E 0 90 54 60
        E 0 90 60 60
        E 120 80 18 00
        E 0 80 3c 00
        E 0 80 48 00
        E 0 80 54 00
        E 0 80 60 00
        E 360 80 78 00
        E 0 80 79 00
        E 0 80 7a 00
        E 0 80 7b 00
        E 0 80 7c 00
        E 0 90 18 60
        E 0 90 3c 60
        E 0 90 48 60
        E 0 90 54 60
        E 0 90 60 60
        E 120 80 18 00
        E 0 80 3c 00
        E 0 80 48 00
        E 0 80 54 00
        E 0 80 60 00
        E 360 90 18 60
        E 0 90 3c 60
        E 0 90 48 60
        E 0 90 54 60
        E 0 90 60 60
        E 120 80 18 00
        E 0 80 3c 00
        E 0 80 48 00
        E 0 80 54 00
        E 0 80 60 00
        E 360 90 18 60
        E 0 90 3c 60
        E 0 90 48 60
        E 0 90 54 60
        E 0 90 60 60
        E 120 80 18 00
        E 0 80 3c 00
        E 0 80 48 00
        E 0 80 54 00
        E 0 80 60 00
        E 360 90 18 60
        E 0 90 3c 60
        E 0 90 48 60
        E 0 90 54 60
        E 0 90 60 60
        E 120 80 18 00
        E 0 80 3c 00
        E 0 80 48 00
        E 0 80 54 00
        E 0 80 60 00
        E 360 90 18 60
        E 0 90 3c 60
        E 0 90 48 60
        E 0 90 54 60
        E 0 90 60 60
        E 120 80 18 00
        E 0 80 3c 00
        E 0 80 48 00
        E 0 80 54 00
        E 0 80 60 00
        E 360 90 18 60
        E 0 90 3c 60
        E 0 90 48 60
        E 0 90 54 60
        E 0 90 60 60
        E 120 80 18 00
        E 0 80 3c 00
        E 0 80 48 00
        E 0 80 54 00
        E 0 80 60 00
        E 360 90 18 60
        E 0 90 3c 60
        E 0 90 48 60
        E 0 90 54 60
        E 0 90 60 60
        E 120 80 18 00
        E 0 80 3c 00
        E 0 80 48 00
        E 0 80 54 00
        E 0 80 60 00
        E 360 90 18 60
        E 0 90 3c 60
        E 0 90 48 60
        E 0 90 54 60
        E 0 90 60 60
        E 120 80 18 00
        E 0 80 3c 00
        E 0 80 48 00
        E 0 80 54 00
        E 0 80 60 00
        E 360 90 18 60
        E 0 90 3c 60
        E 0 90 48 60
        E 0 90 54 60
        E 0 90 60 60
        E 0 90 78 60
        E 0 90 79 60
        E 0 90 7a 60
        E 0 90 7b 60
        E 0 90 7c 60
        E 120 80 18 00
        E 0 80 3c 00
        E 0 80 48 00
        E 0 80 54 00
        E 0 80 60 00
        E 360 90 18 60
        E 0 90 3c 60
        E 0 90 48 60
        E 0 90 54 60
        E 0 90 60 60
        E 120 80 18 00
        E 0 80 3c 00
        E 0 80 48 00
        E 0 80 54 00
        E 0 80 60 00
        E 360 80 78 00
        E 0 80 79 00
        E 0 80 7a 00
        E 0 80 7b 00
        E 0 80 7c 00
        E 0 90 18 60
        E 0 90 3c 60
        E 0 90 48 60
        E 0 90 54 60
        E 0 90 60 60
        E 120 80 18 00
        E 0 80 3c 00
        E 0 80 48 00
        E 0 80 54 00
        E 0 80 60 00
        E 360 90 18 60
        E 0 90 3c 60
        E 0 90 48 60
        E 0 90 54 60
        E 0 90 60 60
        E 120 80 18 00
        E 0 80 3c 00
        E 0 80 48 00
        E 0 80 54 00
        E 0 80 60 00
        E 360 90 18 60
        E 0 90 3c 60
        E 0 90 48 60
        E 0 90 54 60
        E 0 90 60 60
        E 120 80 18 00
        E 0 80 3c 00
        E 0 80 48 00
        E 0 80 54 00
        E 0 80 60 00
        E 360 90 18 60
        E 0 90 3c 60
        E 0 90 48 60
        E 0 90 54 60
        E 0 90 60 60
        E 120 80 18 00
        E 0 80 3c 00
        E 0 80 48 00
        E 0 80 54 00
        E 0 80 60 00
        E 360 90 18 60
        E 0 90 3c 60
        E 0 90 48 60
        E 0 90 54 60
        E 0 90 60 60
        E 120 80 18 00
        E 0 80 3c 00
        E 0 80 48 00
        E 0 80 54 00
        E 0 80 60 00
        E 360 90 18 60
        E 0 90 3c 60
        E 0 90 48 60
        E 0 90 54 60
        E 0 90 60 60
        E 120 80 18 00
        E 0 80 3c 00
        E 0 80 48 00
        E 0 80 54 00
        E 0 80 60 00
        E 360 90 18 60
        E 0 90 3c 60
        E 0 90 48 60
        E 0 90 54 60
        E 0 90 60 60
        E 120 80 18 00
        E 0 80 3c 00
        E 0 80 48 00
        E 0 80 54 00
        E 0 80 60 00
        E 360 90 18 60
        E 0 90 3c 60
        E 0 90 48 60
        E 0 90 54 60
        E 0 90 60 60
        E 120 80 18 00
        E 0 80 3c 00
        E 0 80 48 00
        E 0 80 54 00
        E 0 80 60 00
        E 360 90 18 60
        E 0 90 3c 60
        E 0 90 48 60
        E 0 90 54 60
        E 0 90 60 60
        E 0 90 78 60
        E 0 90 79 60
        E 0 90 7a 60
        E 0 90 7b 60
        E 0 90 7c 60
        E 120 80 18 00
        E 0 80 3c 00
        E 0 80 48 00
        E 0 80 54 00
        E 0 80 60 00
        E 360 90 18 60
        E 0 90 3c 60
        E 0 90 48 60
        E 0 90 54 60
        E 0 90 60 60
        E 120 80 18 00
        E 0 80 3c 00
        E 0 80 48 00
        E 0 80 54 00
        E 0 80 60 00
        E 360 80 78 00
        E 0 80 79 00
        E 0 80 7a 00
        E 0 80 7b 00
        E 0 80 7c 00
        E 0 90 18 60
        E 0 90 3c 60
        E 0 90 48 60
        E 0 90 54 60
        E 0 90 60 60
        E 120 80 18 00
        E 0 80 3c 00
        E 0 80 48 00
        E 0 80 54 00
        E 0 80 60 00
        E 360 90 18 60
        E 0 90 3c 60
        E 0 90 48 60
        E 0 90 54 60
        E 0 90 60 60
        E 120 80 18 00
        E 0 80 3c 00
        E 0 80 48 00
        E 0 80 54 00
        E 0 80 60 00
        E 360 90 18 60
        E 0 90 3c 60
        E 0 90 48 60
        E 0 90 54 60
        E 0 90 60 60
        E 120 80 18 00
        E 0 80 3c 00
        E 0 80 48 00
        E 0 80 54 00
        E 0 80 60 00
        E 360 90 18 60
        E 0 90 3c 60
        E 0 90 48 60
        E 0 90 54 60
        E 0 90 60 60
        E 120 80 18 00
        E 0 80 3c 00
        E 0 80 48 00
        E 0 80 54 00
        E 0 80 60 00
        E 360 90 18 60
        E 0 90 3c 60
        E 0 90 48 60
        E 0 90 54 60
        E 0 90 60 60
        E 0 90 74 60
        E 120 80 18 00
        E 0 80 3c 00
        E 0 80 48 00
        E 0 80 54 00
        E 0 80 60 00
        E 360 90 18 60
        E 0 90 3c 60
        E 0 90 48 60
        E 0 90 54 60
        E 0 90 60 60
        E 120 80 18 00
        E 0 80 3c 00
        E 0 80 48 00
        E 0 80 54 00
        E 0 80 60 00
        E 360 90 18 60
        E 0 90 3c 60
        E 0 90 48 60
        E 0 90 54 60
        E 0 90 60 60
        E 120 80 18 00
        E 0 80 3c 00
        E 0 80 48 00
        E 0 80 54 00
        E 0 80 60 00
        E 360 90 18 60
        E 0 90 3c 60
        E 0 90 48 60
        E 0 90 54 60
        E 0 90 60 60
        E 120 80 18 00
        E 0 80 3c 00
        E 0 80 48 00
        E 0 80 54 00
        E 0 80 60 00
        E 360 90 18 60
        E 0 90 3c 60
        E 0 90 48 60
        E 0 90 54 60
        E 0 90 60 60
        E 120 80 18 00
        E 0 80 3c 00
        E 0 80 48 00
        E 0 80 54 00
        E 0 80 60 00
        E 360 90 18 60
        E 0 90 3c 60
        E 0 90 48 60
        E 0 90 54 60
        E 0 90 60 60
        E 120 80 18 00
        E 0 80 3c 00
        E 0 80 48 00
        E 0 80 54 00
        E 0 80 60 00
        E 360 90 18 60
        E 0 90 3c 60
        E 0 90 48 60
        E 0 90 54 60
        E 0 90 60 60
        E 120 80 18 00
        E 0 80 3c 00
        E 0 80 48 00
        E 0 80 54 00
        E 0 80 60 00
        E 360 90 18 60
        E 0 90 3c 60
        E 0 90 48 60
        E 0 90 54 60
        E 0 90 60 60
        E 120 80 18 00
        E 0 80 3c 00
        E 0 80 48 00
        E 0 80 54 00
        E 0 80 60 00
        E 360 90 18 60
        E 0 90 3c 60
        E 0 90 48 60
        E 0 90 54 60
        E 0 90 60 60
        E 120 80 74 00
        E 0 80 18 00
        E 0 80 3c 00
        E 0 80 48 00
        E 0 80 54 00
        E 0 80 60 00
        E 360 90 18 60
        E 0 90 3c 60
        E 0 90 48 60
        E 0 90 54 60
        E 0 90 60 60
        E 120 80 18 00
        E 0 80 3c 00
        E 0 80 48 00
        E 0 80 54 00
        E 0 80 60 00
        E 360 90 18 60
        E 0 90 3c 60
        E 0 90 48 60
        E 0 90 54 60
        E 0 90 60 60
        E 120 80 18 00
        E 0 80 3c 00
        E 0 80 48 00
        E 0 80 54 00
        E 0 80 60 00
        E 360 90 18 60
        E 0 90 3c 60
        E 0 90 48 60
        E 0 90 54 60
        E 0 90 60 60
        E 120 80 18 00
        E 0 80 3c 00
        E 0 80 48 00
        E 0 80 54 00
        E 0 80 60 00
        E 360 90 18 60
        E 0 90 3c 60
        E 0 90 48 60
        E 0 90 54 60
        E 0 90 60 60
        E 0 90 78 60
        E 0 90 79 60
        E 0 90 7a 60
        E 0 90 7b 60
        E 0 90 7c 60
        E 120 80 18 00
        E 0 80 3c 00
        E 0 80 48 00
        E 0 80 54 00
        E 0 80 60 00
        E 360 90 18 60
        E 0 90 3c 60
        E 0 90 48 60
        E 0 90 54 60
        E 0 90 60 60
        E 120 80 18 00
        E 0 80 3c 00
        E 0 80 48 00
        E 0 80 54 00
        E 0 80 60 00
        E 360 80 78 00
        E 0 80 79 00
        E 0 80 7a 00
        E 0 80 7b 00
        E 0 80 7c 00
        E 0 90 18 60
        E 0 90 3c 60
        E 0 90 48 60
        E 0 90 54 60
        E 0 90 60 60
        E 120 80 18 00
        E 0 80 3c 00
        E 0 80 48 00
        E 0 80 54 00
        E 0 80 60 00
        E 360 90 18 60
        E 0 90 3c 60
        E 0 90 48 60
        E 0 90 54 60
        E 0 90 60 60
        E 120 80 18 00
        E 0 80 3c 00
        E 0 80 48 00
        E 0 80 54 00
        E 0 80 60 00
        E 360 90 18 60
        E 0 90 3c 60
        E 0 90 48 60
        E 0 90 54 60
        E 0 90 60 60
        E 120 80 18 00
        E 0 80 3c 00
        E 0 80 48 00
        E 0 80 54 00
        E 0 80 60 00
        E 360 90 18 60
        E 0 90 3c 60
        E 0 90 48 60
        E 0 90 54 60
        E 0 90 60 60
        E 120 80 18 00
        E 0 80 3c 00
        E 0 80 48 00
        E 0 80 54 00
        E 0 80 60 00
        E 360 90 18 60
        E 0 90 3c 60
        E 0 90 48 60
        E 0 90 54 60
        E 0 90 60 60
        E 120 80 18 00
        E 0 80 3c 00
        E 0 80 48 00
        E 0 80 54 00
        E 0 80 60 00
        E 360 90 18 60
        E 0 90 3c 60
        E 0 90 48 60
        E 0 90 54 60
        E 0 90 60 60
        E 120 80 18 00
        E 0 80 3c 00
        E 0 80 48 00
        E 0 80 54 00
        E 0 80 60 00
        E 360 90 18 60
        E 0 90 3c 60
        E 0 90 48 60
        E 0 90 54 60
        E 0 90 60 60
        E 120 80 18 00
        E 0 80 3c 00
        E 0 80 48 00
        E 0 80 54 00
        E 0 80 60 00
        E 360 90 18 60
        E 0 90 3c 60
        E 0 90 48 60
        E 0 90 54 60
        E 0 90 60 60
        E 120 80 18 00
        E 0 80 3c 00
        E 0 80 48 00
        E 0 80 54 00
        E 0 80 60 00
        E 360 90 18 60
        E 0 90 3c 60
        E 0 90 48 60
        E 0 90 54 60
        E 0 90 60 60
        E 120 80 18 00
        E 0 80 3c 00
        E 0 80 48 00
        E 0 80 54 00
        E 0 80 60 00
        E 360 90 18 60
        E 0 90 3c 60
        E 0 90 48 60
        E 0 90 54 60
        E 0 90 60 60
        E 120 80 18 00
        E 0 80 3c 00
        E 0 80 48 00
        E 0 80 54 00
        E 0 80 60 00
        E 360 90 18 60
        E 0 90 3c 60
        E 0 90 48 60
        E 0 90 54 60
        E 0 90 60 60
        E 120 80 18 00
        E 0 80 3c 00
        E 0 80 48 00
        E 0 80 54 00
        E 0 80 60 00
        E 360 90 18 60
        E 0 90 3c 60
        E 0 90 48 60
        E 0 90 54 60
        E 0 90 60 60
        E 120 80 18 00
        E 0 80 3c 00
        E 0 80 48 00
        E 0 80 54 00
        E 0 80 60 00
        E 360 90 18 60
        E 0 90 3c 60
        E 0 90 48 60
        E 0 90 54 60
        E 0 90 60 60
        E 0 90 78 60
        E 0 90 79 60
        E 0 90 7a 60
        E 0 90 7b 60
        E 0 90 7c 60
        E 120 80 18 00
        E 0 80 3c 00
        E 0 80 48 00
        E 0 80 54 00
        E 0 80 60 00
        E 360 90 18 60
        E 0 90 3c 60
        E 0 90 48 60
        E 0 90 54 60
        E 0 90 60 60
        E 120 80 18 00
        E 0 80 3c 00
        E 0 80 48 00
        E 0 80 54 00
        E 0 80 60 00
        E 360 90 18 60
        E 0 90 3c 60
        E 0 90 48 60
        E 0 90 54 60
        E 0 90 60 60
        E 120 80 18 00
        E 0 80 3c 00
        E 0 80 48 00
        E 0 80 54 00
        E 0 80 60 00
        E 360 90 18 60
        E 0 90 3c 60
        E 0 90 48 60
        E 0 90 54 60
        E 0 90 60 60
        E 120 80 18 00
        E 0 80 3c 00
        E 0 80 48 00
        E 0 80 54 00
        E 0 80 60 00
        E 360 80 78 00
        E 0 80 79 00
        E 0 80 7a 00
        E 0 80 7b 00
        E 0 80 7c 00
        E 0 90 18 60
        E 0 90 3c 60
        E 0 90 48 60
        E 0 90 54 60
        E 0 90 60 60
        E 120 80 18 00
        E 0 80 3c 00
        E 0 80 48 00
        E 0 80 54 00
        E 0 80 60 00
        E 360 90 18 60
        E 0 90 3c 60
        E 0 90 48 60
        E 0 90 54 60
        E 0 90 60 60
        E 120 80 18 00
        E 0 80 3c 00
        E 0 80 48 00
        E 0 80 54 00
        E 0 80 60 00
        E 360 90 18 60
        E 0 90 3c 60
        E 0 90 48 60
        E 0 90 54 60
        E 0 90 60 60
        E 120 80 18 00
        E 0 80 3c 00
        E 0 80 48 00
        E 0 80 54 00
        E 0 80 60 00
        E 360 90 18 60
        E 0 90 3c 60
        E 0 90 48 60
        E 0 90 54 60
        E 0 90 60 60
        E 120 80 18 00
        E 0 80 3c 00
        E 0 80 48 00
        E 0 80 54 00
        E 0 80 60 00
        E 360 90 18 60
        E 0 90 3c 60
        E 0 90 48 60
        E 0 90 54 60
        E 0 90 60 60
        E 120 80 18 00
        E 0 80 3c 00
        E 0 80 48 00
        E 0 80 54 00
        E 0 80 60 00
        E 360 90 18 60
        E 0 90 3c 60
        E 0 90 48 60
        E 0 90 54 60
        E 0 90 60 60
        E 120 80 18 00
        E 0 80 3c 00
        E 0 80 48 00
        E 0 80 54 00
        E 0 80 60 00
        E 360 90 18 60
        E 0 90 3c 60
        E 0 90 48 60
        E 0 90 54 60
        E 0 90 60 60
        E 120 80 18 00
        E 0 80 3c 00
        E 0 80 48 00
        E 0 80 54 00
        E 0 80 60 00
        E 360 90 18 60
        E 0 90 3c 60
        E 0 90 48 60
        E 0 90 54 60
        E 0 90 60 60
        E 120 80 18 00
        E 0 80 3c 00
        E 0 80 48 00
        E 0 80 54 00
        E 0 80 60 00
        E 360 90 18 60
        E 0 90 3c 60
        E 0 90 48 60
        E 0 90 54 60
        E 0 90 60 60
        E 120 80 18 00
        E 0 80 3c 00
        E 0 80 48 00
        E 0 80 54 00
        E 0 80 60 00
        E 360 90 18 60
        E 0 90 3c 60
        E 0 90 48 60
        E 0 90 54 60
        E 0 90 60 60
        E 120 80 18 00
        E 0 80 3c 00
        E 0 80 48 00
        E 0 80 54 00
        E 0 80 60 00
        E 360 90 18 60
        E 0 90 3c 60
        E 0 90 48 60
        E 0 90 54 60
        E 0 90 60 60
        E 120 80 18 00
        E 0 80 3c 00
        E 0 80 48 00
        E 0 80 54 00
        E 0 80 60 00
        E 360 90 18 60
        E 0 90 3c 60
        E 0 90 48 60
        E 0 90 54 60
        E 0 90 60 60
        E 120 80 18 00
        E 0 80 3c 00
        E 0 80 48 00
        E 0 80 54 00
        E 0 80 60 00
        <X 480 0
          /wFbaWRsZV9yZWFsdGltZV0=
        >
        E 7559 b0 7b 00
        GUID {D77E10F3-E2A4-4BD3-AEF9-CF7A46859EDF}
        IGNTEMPO 0 120.00000000 4 4
        SRCCOLOR 1
        VELLANE 132 128 60
        COLORMAP "C:\Program Files\REAPER (x64)\Data\color_maps\rockband_guitarbass.png"
        CFGEDITVIEW -967.111675 69.848485 0 12 0 0 0
        CFGEDIT 1 1 0 1 1 0 1 1 1 1 1 0.25000000 -8 -8 1544 872 0 2 1 1 0.00000000 0 1 0 0 0.500000 0 0 1.000000 64
        KEYSNAP 0 6 "102030050700" 0 "Pentatonic"
        EVTFILTER 0 -1 -1 -1 -1 0 1 0 0 -1.00000000 -1.00000000
      >
    >
  >
  <TRACK '{965BB17B-7D3D-46F7-BDD2-922FF1B93DC7}'
    NAME "PART BASS"
    PEAKCOL 16576
    BEAT -1
    AUTOMODE 0
    VOLPAN 1.00000000000000 0.00000000000000 -1.00000000000000 -1.00000000000000 1.00000000000000
    MUTESOLO 0 0 0
    IPHASE 0
    ISBUS 0 0
    BUSCOMP 0 0
    SHOWINMIX 1 0.666700 0.500000 1 0.500000 -1 -1 -1
    FREEMODE 0
    SEL 0
    REC 0 0 0 0 0 0 0
    VU 2
    TRACKHEIGHT 0 0
    INQ 0 0 0 0.5000000000 100 0 0 100
    NCHAN 2
    FX 1
    TRACKID {965BB17B-7D3D-46F7-BDD2-922FF1B93DC7}
    PERF 0
    MIDIOUT -1
    <MIDINOTENAMES
      0 127 "TRILL MARKER"
      0 126 "TREMOLO MARKER"
      0 125 "---"
      0 124 "BRE"
      0 123 "BRE"
      0 122 "BRE"
      0 121 "BRE"
      0 120 "BRE (use all 5)"
      0 119 "----"
      0 116 "OVERDRIVE"
      0 115 "----"
      0 103 "Solo Marker"
      0 102 "Force HOPO Off"
      0 101 "Force HOPO On"
      0 100 "EXPERT Orange"
      0 99 "EXPERT Blue"
      0 98 "EXPERT Yellow"
      0 97 "EXPERT Red"
      0 96 "EXPERT Green"
      0 95 "----"
      0 90 "Force HOPO Off"
      0 89 "Force HOPO On"
      0 88 "HARD Orange"
      0 87 "HARD Blue"
      0 86 "HARD Yellow"
      0 85 "HARD Red"
      0 84 "HARD Green"
      0 77 "----"
      0 76 "MEDIUM Orange"
      0 75 "MEDIUM Blue"
      0 74 "MEDIUM Yellow"
      0 73 "MEDIUM Red"
      0 72 "MEDIUM Green"
      0 65 "----"
      0 64 "EASY Orange"
      0 63 "EASY Blue"
      0 62 "EASY Yellow"
      0 61 "EASY Red"
      0 60 "EASY Green"
      0 59 "Fret 12"
      0 57 "Fret 11"
      0 56 "Fret 10"
      0 55 "Fret 9"
      0 53 "Fret 8"
      0 52 "Fret 7"
      0 50 "Fret 6"
      0 49 "Fret 5"
      0 47 "Fret 4"
      0 45 "Fret 3"
      0 43 "Fret 2"
      0 40 "Fret 1"
    >
    MAINSEND 1 0
    <FXCHAIN
      WNDRECT 0 43 891 559
      SHOW 0
      LASTSEL 0
      DOCKED 0
      BYPASS 0 0
      <VST "VSTi: RBN Preview (RBN)" "rbprev_vst64.dll" 0 ""
        dnBicu5e7f4AAAAAAgAAAAEAAAAAAAAAAgAAAAAAAAAEAAAAAQAAAA==
        AAAQAAMAqgAAABAAAAA=
      >
      FLOATPOS 0 0 0 0
      FXID {80D4C0C7-FEE0-41F6-812F-3C98E95F207C}
      WAK 0
    >
    <ITEM
      POSITION 0.00000000000000
      SNAPOFFS 0.00000000000000
      LENGTH 128.64099999999999
      LOOP 0
      ALLTAKES 0
      SEL 0
      FADEIN 1 0.000000 0.000000 1 0
      FADEOUT 1 0.000000 0.000000 1 0
      MUTE 0
      IGUID {5696DFB0-A694-40AC-8C08-AF0630593367}
      IID 2
      NAME "PART BASS"
      VOLPAN 1.000000 0.000000 1.000000 -1.000000
      SOFFS 0.00000000000000 0.00000000000000
      PLAYRATE 1.00000000000000 1 0.00000000000000 -1
      CHANMODE 0
      GUID {F8A02DB4-5620-4A59-A604-B7A61E73667D}
      <SOURCE MIDI
        HASDATA 1 480 QN
        POOLEDEVTS {F2CBC622-62C9-4208-B71D-38A3B9D079CD}
        <X 0 0
          /wNQQVJUIEJBU1M=
        >
        <X 3840 0
          /wFbcGxheV0=
        >
        <X 0 0
          /wFbbWFwIFN0cnVtTWFwX1BpY2td
        >
        E 0 90 2b 60
        E 0 90 3e 60
        E 0 90 4a 60
        E 0 90 57 60
        E 0 90 63 60
        E 120 80 3e 00
        E 0 80 4a 00
        E 240 80 57 00
        E 0 80 63 00
        E 120 90 3e 60
        E 0 90 4a 60
        E 0 90 57 60
        E 0 90 63 60
        E 120 80 3e 00
        E 0 80 4a 00
        E 240 80 57 00
        E 0 80 63 00
        E 120 90 3e 60
        E 0 90 4a 60
        E 0 90 57 60
        E 0 90 63 60
        E 120 80 3e 00
        E 0 80 4a 00
        E 240 80 57 00
        E 0 80 63 00
        E 120 90 4a 60
        E 0 90 57 60
        E 0 90 63 60
        E 120 80 4a 00
        E 240 80 57 00
        E 0 80 63 00
        E 120 90 3c 60
        E 0 90 48 60
        E 0 90 54 60
        E 0 90 60 60
        E 120 80 3c 00
        E 0 80 48 00
        E 240 80 54 00
        E 0 80 60 00
        E 120 90 48 60
        E 0 90 54 60
        E 0 90 60 60
        E 120 80 48 00
        E 240 80 54 00
        E 0 80 60 00
        E 120 90 3e 60
        E 0 90 4a 60
        E 0 90 57 60
        E 0 90 63 60
        E 120 80 3e 00
        E 0 80 4a 00
        E 240 80 57 00
        E 0 80 63 00
        E 120 90 4a 60
        E 0 90 57 60
        E 0 90 63 60
        E 120 80 4a 00
        E 240 80 57 00
        E 0 80 63 00
        E 120 90 3d 60
        E 0 90 49 60
        E 0 90 55 60
        E 0 90 61 60
        E 120 80 3d 00
        E 0 80 49 00
        E 240 80 55 00
        E 0 80 61 00
        E 120 90 49 60
        E 0 90 55 60
        E 0 90 61 60
        E 120 80 49 00
        E 240 80 55 00
        E 0 80 61 00
        E 120 90 3e 60
        E 0 90 4a 60
        E 0 90 57 60
        E 0 90 63 60
        E 120 80 3e 00
        E 0 80 4a 00
        E 240 80 57 00
        E 0 80 63 00
        E 120 90 3e 60
        E 0 90 4a 60
        E 0 90 57 60
        E 0 90 63 60
        E 120 80 3e 00
        E 0 80 4a 00
        E 240 80 57 00
        E 0 80 63 00
        E 120 90 3e 60
        E 0 90 4a 60
        E 0 90 57 60
        E 0 90 63 60
        E 120 80 3e 00
        E 0 80 4a 00
        E 240 80 57 00
        E 0 80 63 00
        E 120 90 4a 60
        E 0 90 57 60
        E 0 90 63 60
        E 120 80 4a 00
        E 240 80 57 00
        E 0 80 63 00
        E 120 90 3c 60
        E 0 90 48 60
        E 0 90 54 60
        E 0 90 60 60
        E 120 80 3c 00
        E 0 80 48 00
        E 240 80 54 00
        E 0 80 60 00
        E 120 90 48 60
        E 0 90 54 60
        E 0 90 60 60
        E 120 80 48 00
        E 240 80 54 00
        E 0 80 60 00
        E 120 90 3e 60
        E 0 90 4a 60
        E 0 90 57 60
        E 0 90 63 60
        E 120 80 3e 00
        E 0 80 4a 00
        E 240 80 57 00
        E 0 80 63 00
        E 120 90 4a 60
        E 0 90 57 60
        E 0 90 63 60
        E 120 80 4a 00
        E 239 80 57 00
        E 0 80 63 00
        E 121 90 3d 60
        E 0 90 49 60
        E 0 90 55 60
        E 0 90 61 60
        E 120 80 3d 00
        E 0 80 49 00
        E 240 80 55 00
        E 0 80 61 00
        E 120 90 49 60
        E 0 90 55 60
        E 0 90 61 60
        E 120 80 49 00
        E 240 80 55 00
        E 0 80 61 00
        E 120 90 3e 60
        E 0 90 4a 60
        E 0 90 57 60
        E 0 90 63 60
        E 120 80 3e 00
        E 0 80 4a 00
        E 240 80 57 00
        E 0 80 63 00
        E 120 90 3e 60
        E 0 90 4a 60
        E 0 90 57 60
        E 0 90 63 60
        E 120 80 3e 00
        E 0 80 4a 00
        E 240 80 57 00
        E 0 80 63 00
        E 120 90 3e 60
        E 0 90 4a 60
        E 0 90 57 60
        E 0 90 63 60
        E 120 80 3e 00
        E 0 80 4a 00
        E 240 80 57 00
        E 0 80 63 00
        E 120 90 4a 60
        E 0 90 57 60
        E 0 90 63 60
        E 120 80 4a 00
        E 240 80 57 00
        E 0 80 63 00
        E 120 90 3c 60
        E 0 90 48 60
        E 0 90 54 60
        E 0 90 60 60
        E 120 80 3c 00
        E 0 80 48 00
        E 240 80 54 00
        E 0 80 60 00
        E 120 90 48 60
        E 0 90 54 60
        E 0 90 60 60
        E 120 80 48 00
        E 240 80 54 00
        E 0 80 60 00
        E 120 90 3e 60
        E 0 90 4a 60
        E 0 90 57 60
        E 0 90 63 60
        E 120 80 3e 00
        E 0 80 4a 00
        E 240 80 57 00
        E 0 80 63 00
        E 120 90 4a 60
        E 0 90 57 60
        E 0 90 63 60
        E 120 80 4a 00
        E 239 80 57 00
        E 0 80 63 00
        E 121 90 3d 60
        E 0 90 49 60
        E 0 90 55 60
        E 0 90 61 60
        E 120 80 3d 00
        E 0 80 49 00
        E 240 80 55 00
        E 0 80 61 00
        E 120 90 49 60
        E 0 90 55 60
        E 0 90 61 60
        E 120 80 49 00
        E 240 80 55 00
        E 0 80 61 00
        E 120 90 3e 60
        E 0 90 4a 60
        E 0 90 57 60
        E 0 90 63 60
        E 120 80 3e 00
        E 0 80 4a 00
        E 240 80 57 00
        E 0 80 63 00
        E 120 90 3e 60
        E 0 90 4a 60
        E 0 90 57 60
        E 0 90 63 60
        E 120 80 3e 00
        E 0 80 4a 00
        E 240 80 57 00
        E 0 80 63 00
        E 120 90 3e 60
        E 0 90 4a 60
        E 0 90 57 60
        E 0 90 63 60
        E 120 80 3e 00
        E 0 80 4a 00
        E 240 80 57 00
        E 0 80 63 00
        E 120 90 3e 60
        E 0 90 4a 60
        E 0 90 57 60
        E 0 90 63 60
        E 120 80 3e 00
        E 0 80 4a 00
        E 240 80 57 00
        E 0 80 63 00
        E 120 90 3e 60
        E 0 90 4a 60
        E 0 90 56 60
        E 0 90 62 60
        E 120 80 3e 00
        E 0 80 4a 00
        E 240 80 56 00
        E 0 80 62 00
        E 120 90 4a 60
        E 0 90 56 60
        E 0 90 62 60
        E 120 80 4a 00
        E 240 80 56 00
        E 0 80 62 00
        E 120 90 3c 60
        E 0 90 48 60
        E 0 90 54 60
        E 0 90 60 60
        E 120 80 3c 00
        E 0 80 48 00
        E 240 80 54 00
        E 0 80 60 00
        E 120 90 48 60
        E 0 90 54 60
        E 0 90 60 60
        E 120 80 48 00
        E 240 80 54 00
        E 0 80 60 00
        E 120 90 3d 60
        E 0 90 49 60
        E 0 90 55 60
        E 0 90 61 60
        E 120 80 3d 00
        E 0 80 49 00
        E 240 80 55 00
        E 0 80 61 00
        E 120 90 49 60
        E 0 90 55 60
        E 0 90 61 60
        E 120 80 49 00
        E 240 80 2b 00
        E 0 80 55 00
        E 0 80 61 00
        E 120 90 31 60
        E 0 90 3e 60
        E 0 90 4a 60
        E 0 90 57 60
        E 0 90 63 60
        E 0 90 74 60
        E 120 80 3e 00
        E 0 80 4a 00
        E 240 80 57 00
        E 0 80 63 00
        E 120 90 3e 60
        E 0 90 4a 60
        E 0 90 57 60
        E 0 90 63 60
        E 120 80 3e 00
        E 0 80 4a 00
        E 240 80 31 00
        E 0 80 57 00
        E 0 80 63 00
        E 120 90 2f 60
        E 0 90 3e 60
        E 0 90 4a 60
        E 0 90 56 60
        E 0 90 62 60
        E 120 80 3e 00
        E 0 80 4a 00
        E 240 80 56 00
        E 0 80 62 00
        E 120 90 4a 60
        E 0 90 56 60
        E 0 90 62 60
        E 120 80 4a 00
        E 240 80 2f 00
        E 0 80 56 00
        E 0 80 62 00
        E 120 90 2b 60
        E 0 90 3d 60
        E 0 90 49 60
        E 0 90 55 60
        E 0 90 61 60
        E 120 80 3d 00
        E 0 80 49 00
        E 240 80 55 00
        E 0 80 61 00
        E 120 90 49 60
        E 0 90 55 60
        E 0 90 61 60
        E 120 80 49 00
        E 240 80 55 00
        E 0 80 61 00
        E 120 90 3c 60
        E 0 90 48 60
        E 0 90 54 60
        E 0 90 60 60
        E 120 80 3c 00
        E 0 80 48 00
        E 240 80 54 00
        E 0 80 60 00
        E 120 90 48 60
        E 0 90 54 60
        E 0 90 60 60
        E 120 80 48 00
        E 240 80 54 00
        E 0 80 60 00
        E 120 90 3d 60
        E 0 90 49 60
        E 0 90 55 60
        E 0 90 61 60
        E 120 80 3d 00
        E 0 80 49 00
        E 240 80 55 00
        E 0 80 61 00
        E 120 90 49 60
        E 0 90 55 60
        E 0 90 61 60
        E 120 80 49 00
        E 240 80 55 00
        E 0 80 61 00
        E 120 90 3f 60
        E 0 90 4b 60
        E 0 90 58 60
        E 0 90 64 60
        E 120 80 74 00
        E 0 80 3f 00
        E 0 80 4b 00
        E 240 80 58 00
        E 0 80 64 00
        E 120 90 4b 60
        E 0 90 58 60
        E 0 90 64 60
        E 120 80 4b 00
        E 240 80 58 00
        E 0 80 64 00
        E 120 90 3e 60
        E 0 90 4a 60
        E 0 90 57 60
        E 0 90 63 60
        E 120 80 3e 00
        E 0 80 4a 00
        E 240 80 57 00
        E 0 80 63 00
        E 120 90 4a 60
        E 0 90 57 60
        E 0 90 63 60
        E 120 80 4a 00
        E 240 80 57 00
        E 0 80 63 00
        E 120 90 3c 60
        E 0 90 48 60
        E 0 90 54 60
        E 0 90 60 60
        E 120 80 3c 00
        E 0 80 48 00
        E 240 80 54 00
        E 0 80 60 00
        E 120 90 48 60
        E 0 90 54 60
        E 0 90 60 60
        E 120 80 48 00
        E 240 80 54 00
        E 0 80 60 00
        E 120 90 3d 60
        E 0 90 49 60
        E 0 90 55 60
        E 0 90 61 60
        E 120 80 3d 00
        E 0 80 49 00
        E 240 80 55 00
        E 0 80 61 00
        E 120 90 49 60
        E 0 90 55 60
        E 0 90 61 60
        E 120 80 49 00
        E 240 80 55 00
        E 0 80 61 00
        E 120 90 3f 60
        E 0 90 4b 60
        E 0 90 58 60
        E 0 90 64 60
        E 120 80 3f 00
        E 0 80 4b 00
        E 240 80 58 00
        E 0 80 64 00
        E 120 90 4b 60
        E 0 90 58 60
        E 0 90 64 60
        E 120 80 4b 00
        E 240 80 58 00
        E 0 80 64 00
        E 120 90 3e 60
        E 0 90 4a 60
        E 0 90 57 60
        E 0 90 63 60
        E 120 80 3e 00
        E 0 80 4a 00
        E 240 80 57 00
        E 0 80 63 00
        E 120 90 4a 60
        E 0 90 57 60
        E 0 90 63 60
        E 120 80 4a 00
        E 240 80 57 00
        E 0 80 63 00
        E 120 90 3c 60
        E 0 90 48 60
        E 0 90 54 60
        E 0 90 60 60
        E 120 80 3c 00
        E 0 80 48 00
        E 240 80 54 00
        E 0 80 60 00
        E 120 90 48 60
        E 0 90 54 60
        E 0 90 60 60
        E 120 80 48 00
        E 240 80 54 00
        E 0 80 60 00
        E 120 90 3d 60
        E 0 90 49 60
        E 0 90 55 60
        E 0 90 61 60
        E 120 80 3d 00
        E 0 80 49 00
        E 240 80 55 00
        E 0 80 61 00
        E 120 90 49 60
        E 0 90 55 60
        E 0 90 61 60
        E 120 80 49 00
        E 240 80 55 00
        E 0 80 61 00
        E 120 90 3f 60
        E 0 90 4b 60
        E 0 90 58 60
        E 0 90 64 60
        E 0 90 74 60
        E 120 80 3f 00
        E 0 80 4b 00
        E 240 80 58 00
        E 0 80 64 00
        E 120 90 4b 60
        E 0 90 58 60
        E 0 90 64 60
        E 120 80 4b 00
        E 240 80 58 00
        E 0 80 64 00
        E 120 90 3e 60
        E 0 90 4a 60
        E 0 90 57 60
        E 0 90 63 60
        E 120 80 3e 00
        E 0 80 4a 00
        E 240 80 57 00
        E 0 80 63 00
        E 120 90 4a 60
        E 0 90 57 60
        E 0 90 63 60
        E 120 80 4a 00
        E 240 80 57 00
        E 0 80 63 00
        E 120 90 3c 60
        E 0 90 48 60
        E 0 90 54 60
        E 0 90 60 60
        E 120 80 3c 00
        E 0 80 48 00
        E 240 80 54 00
        E 0 80 60 00
        E 120 90 48 60
        E 0 90 54 60
        E 0 90 60 60
        E 120 80 48 00
        E 240 80 54 00
        E 0 80 60 00
        E 120 90 3d 60
        E 0 90 49 60
        E 0 90 55 60
        E 0 90 61 60
        E 120 80 3d 00
        E 0 80 49 00
        E 240 80 55 00
        E 0 80 61 00
        E 120 90 49 60
        E 0 90 55 60
        E 0 90 61 60
        E 120 80 49 00
        E 240 80 55 00
        E 0 80 61 00
        E 120 90 3e 60
        E 0 90 4a 60
        E 0 90 57 60
        E 0 90 63 60
        E 120 80 3e 00
        E 0 80 4a 00
        E 240 80 74 00
        E 0 80 57 00
        E 0 80 63 00
        E 120 90 3e 60
        E 0 90 4a 60
        E 0 90 57 60
        E 0 90 63 60
        E 120 80 3e 00
        E 0 80 4a 00
        E 240 80 57 00
        E 0 80 63 00
        E 120 90 3e 60
        E 0 90 4a 60
        E 0 90 57 60
        E 0 90 63 60
        E 120 80 3e 00
        E 0 80 4a 00
        E 240 80 57 00
        E 0 80 63 00
        E 120 90 4a 60
        E 0 90 57 60
        E 0 90 63 60
        E 120 80 4a 00
        E 240 80 57 00
        E 0 80 63 00
        E 120 90 3c 60
        E 0 90 48 60
        E 0 90 54 60
        E 0 90 60 60
        E 120 80 3c 00
        E 0 80 48 00
        E 240 80 54 00
        E 0 80 60 00
        E 120 90 48 60
        E 0 90 54 60
        E 0 90 60 60
        E 120 80 48 00
        E 240 80 54 00
        E 0 80 60 00
        E 120 90 3e 60
        E 0 90 4a 60
        E 0 90 57 60
        E 0 90 63 60
        E 120 80 3e 00
        E 0 80 4a 00
        E 240 80 57 00
        E 0 80 63 00
        E 120 90 4a 60
        E 0 90 57 60
        E 0 90 63 60
        E 120 80 4a 00
        E 240 80 57 00
        E 0 80 63 00
        E 120 90 3d 60
        E 0 90 49 60
        E 0 90 55 60
        E 0 90 61 60
        E 120 80 3d 00
        E 0 80 49 00
        E 240 80 55 00
        E 0 80 61 00
        E 120 90 49 60
        E 0 90 55 60
        E 0 90 61 60
        E 120 80 49 00
        E 240 80 55 00
        E 0 80 61 00
        E 120 90 3e 60
        E 0 90 4a 60
        E 0 90 57 60
        E 0 90 63 60
        E 120 80 3e 00
        E 0 80 4a 00
        E 240 80 57 00
        E 0 80 63 00
        E 120 90 3e 60
        E 0 90 4a 60
        E 0 90 57 60
        E 0 90 63 60
        E 120 80 3e 00
        E 0 80 4a 00
        E 240 80 57 00
        E 0 80 63 00
        E 120 90 3e 60
        E 0 90 4a 60
        E 0 90 57 60
        E 0 90 63 60
        E 120 80 3e 00
        E 0 80 4a 00
        E 240 80 57 00
        E 0 80 63 00
        E 120 90 4a 60
        E 0 90 57 60
        E 0 90 63 60
        E 120 80 4a 00
        E 240 80 57 00
        E 0 80 63 00
        E 120 90 3c 60
        E 0 90 48 60
        E 0 90 54 60
        E 0 90 60 60
        E 120 80 3c 00
        E 0 80 48 00
        E 240 80 54 00
        E 0 80 60 00
        E 120 90 48 60
        E 0 90 54 60
        E 0 90 60 60
        E 120 80 48 00
        E 240 80 54 00
        E 0 80 60 00
        E 120 90 3e 60
        E 0 90 4a 60
        E 0 90 57 60
        E 0 90 63 60
        E 120 80 3e 00
        E 0 80 4a 00
        E 240 80 57 00
        E 0 80 63 00
        E 120 90 4a 60
        E 0 90 57 60
        E 0 90 63 60
        E 120 80 4a 00
        E 239 80 57 00
        E 0 80 63 00
        E 121 90 3d 60
        E 0 90 49 60
        E 0 90 55 60
        E 0 90 61 60
        E 120 80 3d 00
        E 0 80 49 00
        E 240 80 55 00
        E 0 80 61 00
        E 120 90 49 60
        E 0 90 55 60
        E 0 90 61 60
        E 120 80 49 00
        E 240 80 55 00
        E 0 80 61 00
        E 120 90 3e 60
        E 0 90 4a 60
        E 0 90 57 60
        E 0 90 63 60
        E 120 80 3e 00
        E 0 80 4a 00
        E 240 80 57 00
        E 0 80 63 00
        E 120 90 3e 60
        E 0 90 4a 60
        E 0 90 57 60
        E 0 90 63 60
        E 120 80 3e 00
        E 0 80 4a 00
        E 240 80 57 00
        E 0 80 63 00
        E 120 90 3e 60
        E 0 90 4a 60
        E 0 90 57 60
        E 0 90 63 60
        E 120 80 3e 00
        E 0 80 4a 00
        E 240 80 57 00
        E 0 80 63 00
        E 120 90 4a 60
        E 0 90 57 60
        E 0 90 63 60
        E 120 80 4a 00
        E 240 80 57 00
        E 0 80 63 00
        E 120 90 3c 60
        E 0 90 48 60
        E 0 90 54 60
        E 0 90 60 60
        E 120 80 3c 00
        E 0 80 48 00
        E 240 80 54 00
        E 0 80 60 00
        E 120 90 48 60
        E 0 90 54 60
        E 0 90 60 60
        E 120 80 48 00
        E 240 80 54 00
        E 0 80 60 00
        E 120 90 3e 60
        E 0 90 4a 60
        E 0 90 57 60
        E 0 90 63 60
        E 120 80 3e 00
        E 0 80 4a 00
        E 240 80 57 00
        E 0 80 63 00
        E 120 90 4a 60
        E 0 90 57 60
        E 0 90 63 60
        E 120 80 4a 00
        E 239 80 57 00
        E 0 80 63 00
        E 121 90 3d 60
        E 0 90 49 60
        E 0 90 55 60
        E 0 90 61 60
        E 120 80 3d 00
        E 0 80 49 00
        E 240 80 55 00
        E 0 80 61 00
        E 120 90 49 60
        E 0 90 55 60
        E 0 90 61 60
        E 120 80 49 00
        E 240 80 55 00
        E 0 80 61 00
        E 120 90 3e 60
        E 0 90 4a 60
        E 0 90 57 60
        E 0 90 63 60
        E 120 80 3e 00
        E 0 80 4a 00
        E 240 80 57 00
        E 0 80 63 00
        E 120 90 3e 60
        E 0 90 4a 60
        E 0 90 57 60
        E 0 90 63 60
        E 120 80 3e 00
        E 0 80 4a 00
        E 240 80 57 00
        E 0 80 63 00
        E 120 90 3e 60
        E 0 90 4a 60
        E 0 90 57 60
        E 0 90 63 60
        E 120 80 3e 00
        E 0 80 4a 00
        E 240 80 57 00
        E 0 80 63 00
        E 120 90 3e 60
        E 0 90 4a 60
        E 0 90 57 60
        E 0 90 63 60
        E 120 80 3e 00
        E 0 80 4a 00
        E 240 80 57 00
        E 0 80 63 00
        E 120 90 3e 60
        E 0 90 4a 60
        E 0 90 56 60
        E 0 90 62 60
        E 120 80 3e 00
        E 0 80 4a 00
        E 240 80 56 00
        E 0 80 62 00
        E 120 90 4a 60
        E 0 90 56 60
        E 0 90 62 60
        E 120 80 4a 00
        E 240 80 56 00
        E 0 80 62 00
        E 120 90 3c 60
        E 0 90 48 60
        E 0 90 54 60
        E 0 90 60 60
        E 120 80 3c 00
        E 0 80 48 00
        E 240 80 54 00
        E 0 80 60 00
        E 120 90 48 60
        E 0 90 54 60
        E 0 90 60 60
        E 120 80 48 00
        E 240 80 54 00
        E 0 80 60 00
        E 120 90 3d 60
        E 0 90 49 60
        E 0 90 55 60
        E 0 90 61 60
        E 120 80 3d 00
        E 0 80 49 00
        E 240 80 55 00
        E 0 80 61 00
        E 120 90 49 60
        E 0 90 55 60
        E 0 90 61 60
        E 120 80 49 00
        E 240 80 2b 00
        E 0 80 55 00
        E 0 80 61 00
        E 120 90 31 60
        E 0 90 3e 60
        E 0 90 4a 60
        E 0 90 57 60
        E 0 90 63 60
        E 0 90 74 60
        E 120 80 3e 00
        E 0 80 4a 00
        E 240 80 57 00
        E 0 80 63 00
        E 120 90 3e 60
        E 0 90 4a 60
        E 0 90 57 60
        E 0 90 63 60
        E 120 80 3e 00
        E 0 80 4a 00
        E 240 80 31 00
        E 0 80 57 00
        E 0 80 63 00
        E 120 90 2f 60
        E 0 90 3e 60
        E 0 90 4a 60
        E 0 90 56 60
        E 0 90 62 60
        E 120 80 3e 00
        E 0 80 4a 00
        E 240 80 56 00
        E 0 80 62 00
        E 120 90 4a 60
        E 0 90 56 60
        E 0 90 62 60
        E 120 80 4a 00
        E 240 80 2f 00
        E 0 80 56 00
        E 0 80 62 00
        E 120 90 2b 60
        E 0 90 3d 60
        E 0 90 49 60
        E 0 90 55 60
        E 0 90 61 60
        E 120 80 3d 00
        E 0 80 49 00
        E 240 80 55 00
        E 0 80 61 00
        E 120 90 49 60
        E 0 90 55 60
        E 0 90 61 60
        E 120 80 49 00
        E 240 80 55 00
        E 0 80 61 00
        E 120 90 3c 60
        E 0 90 48 60
        E 0 90 54 60
        E 0 90 60 60
        E 120 80 3c 00
        E 0 80 48 00
        E 240 80 54 00
        E 0 80 60 00
        E 120 90 48 60
        E 0 90 54 60
        E 0 90 60 60
        E 120 80 48 00
        E 240 80 54 00
        E 0 80 60 00
        E 120 90 3d 60
        E 0 90 49 60
        E 0 90 55 60
        E 0 90 61 60
        E 120 80 3d 00
        E 0 80 49 00
        E 240 80 55 00
        E 0 80 61 00
        E 120 90 49 60
        E 0 90 55 60
        E 0 90 61 60
        E 120 80 49 00
        E 240 80 55 00
        E 0 80 61 00
        E 120 90 3f 60
        E 0 90 4b 60
        E 0 90 58 60
        E 0 90 64 60
        E 120 80 74 00
        E 0 80 3f 00
        E 0 80 4b 00
        E 240 80 58 00
        E 0 80 64 00
        E 120 90 4b 60
        E 0 90 58 60
        E 0 90 64 60
        E 120 80 4b 00
        E 240 80 58 00
        E 0 80 64 00
        E 120 90 3e 60
        E 0 90 4a 60
        E 0 90 57 60
        E 0 90 63 60
        E 120 80 3e 00
        E 0 80 4a 00
        E 240 80 57 00
        E 0 80 63 00
        E 120 90 4a 60
        E 0 90 57 60
        E 0 90 63 60
        E 120 80 4a 00
        E 240 80 57 00
        E 0 80 63 00
        E 120 90 3c 60
        E 0 90 48 60
        E 0 90 54 60
        E 0 90 60 60
        E 120 80 3c 00
        E 0 80 48 00
        E 240 80 54 00
        E 0 80 60 00
        E 120 90 48 60
        E 0 90 54 60
        E 0 90 60 60
        E 120 80 48 00
        E 240 80 54 00
        E 0 80 60 00
        E 120 90 3d 60
        E 0 90 49 60
        E 0 90 55 60
        E 0 90 61 60
        E 120 80 3d 00
        E 0 80 49 00
        E 240 80 55 00
        E 0 80 61 00
        E 120 90 49 60
        E 0 90 55 60
        E 0 90 61 60
        E 120 80 49 00
        E 240 80 55 00
        E 0 80 61 00
        E 120 90 3f 60
        E 0 90 4b 60
        E 0 90 58 60
        E 0 90 64 60
        E 120 80 3f 00
        E 0 80 4b 00
        E 240 80 58 00
        E 0 80 64 00
        E 120 90 4b 60
        E 0 90 58 60
        E 0 90 64 60
        E 120 80 4b 00
        E 240 80 58 00
        E 0 80 64 00
        E 120 90 3e 60
        E 0 90 4a 60
        E 0 90 57 60
        E 0 90 63 60
        E 120 80 3e 00
        E 0 80 4a 00
        E 240 80 57 00
        E 0 80 63 00
        E 120 90 4a 60
        E 0 90 57 60
        E 0 90 63 60
        E 120 80 4a 00
        E 240 80 57 00
        E 0 80 63 00
        E 120 90 3c 60
        E 0 90 48 60
        E 0 90 54 60
        E 0 90 60 60
        E 120 80 3c 00
        E 0 80 48 00
        E 240 80 54 00
        E 0 80 60 00
        E 120 90 48 60
        E 0 90 54 60
        E 0 90 60 60
        E 120 80 48 00
        E 240 80 54 00
        E 0 80 60 00
        E 120 90 3d 60
        E 0 90 49 60
        E 0 90 55 60
        E 0 90 61 60
        E 120 80 3d 00
        E 0 80 49 00
        E 240 80 55 00
        E 0 80 61 00
        E 120 90 49 60
        E 0 90 55 60
        E 0 90 61 60
        E 120 80 49 00
        E 240 80 55 00
        E 0 80 61 00
        E 120 90 3f 60
        E 0 90 4b 60
        E 0 90 58 60
        E 0 90 64 60
        E 120 80 3f 00
        E 0 80 4b 00
        E 240 80 58 00
        E 0 80 64 00
        E 120 90 4b 60
        E 0 90 58 60
        E 0 90 64 60
        E 120 80 4b 00
        E 240 80 58 00
        E 0 80 64 00
        E 120 90 3e 60
        E 0 90 4a 60
        E 0 90 57 60
        E 0 90 63 60
        E 120 80 3e 00
        E 0 80 4a 00
        E 240 80 57 00
        E 0 80 63 00
        E 120 90 4a 60
        E 0 90 57 60
        E 0 90 63 60
        E 120 80 4a 00
        E 240 80 57 00
        E 0 80 63 00
        E 120 90 3c 60
        E 0 90 48 60
        E 0 90 54 60
        E 0 90 60 60
        E 120 80 3c 00
        E 0 80 48 00
        E 240 80 54 00
        E 0 80 60 00
        E 120 90 48 60
        E 0 90 54 60
        E 0 90 60 60
        E 120 80 48 00
        E 240 80 54 00
        E 0 80 60 00
        E 120 90 3d 60
        E 0 90 49 60
        E 0 90 55 60
        E 0 90 61 60
        E 120 80 3d 00
        E 0 80 49 00
        E 240 80 55 00
        E 0 80 61 00
        E 120 90 49 60
        E 0 90 55 60
        E 0 90 61 60
        E 120 80 49 00
        E 240 80 55 00
        E 0 80 61 00
        E 120 90 3e 60
        E 0 90 4a 60
        E 0 90 57 60
        E 0 90 63 60
        E 120 80 3e 00
        E 0 80 4a 00
        E 240 80 57 00
        E 0 80 63 00
        E 120 90 3e 60
        E 0 90 4a 60
        E 0 90 57 60
        E 0 90 63 60
        E 120 80 3e 00
        E 0 80 4a 00
        E 240 80 57 00
        E 0 80 63 00
        E 120 90 3e 60
        E 0 90 4a 60
        E 0 90 57 60
        E 0 90 63 60
        E 120 80 3e 00
        E 0 80 4a 00
        E 240 80 57 00
        E 0 80 63 00
        E 120 90 4a 60
        E 0 90 57 60
        E 0 90 63 60
        E 120 80 4a 00
        E 240 80 57 00
        E 0 80 63 00
        E 120 90 3c 60
        E 0 90 48 60
        E 0 90 54 60
        E 0 90 60 60
        E 0 90 74 60
        E 120 80 3c 00
        E 0 80 48 00
        E 240 80 54 00
        E 0 80 60 00
        E 120 90 48 60
        E 0 90 54 60
        E 0 90 60 60
        E 120 80 48 00
        E 240 80 54 00
        E 0 80 60 00
        E 120 90 3e 60
        E 0 90 4a 60
        E 0 90 57 60
        E 0 90 63 60
        E 120 80 3e 00
        E 0 80 4a 00
        E 240 80 57 00
        E 0 80 63 00
        E 120 90 4a 60
        E 0 90 57 60
        E 0 90 63 60
        E 120 80 4a 00
        E 240 80 57 00
        E 0 80 63 00
        E 120 90 3d 60
        E 0 90 49 60
        E 0 90 55 60
        E 0 90 61 60
        E 120 80 3d 00
        E 0 80 49 00
        E 240 80 55 00
        E 0 80 61 00
        E 120 90 49 60
        E 0 90 55 60
        E 0 90 61 60
        E 120 80 49 00
        E 240 80 55 00
        E 0 80 61 00
        E 120 90 3e 60
        E 0 90 4a 60
        E 0 90 57 60
        E 0 90 63 60
        E 120 80 3e 00
        E 0 80 4a 00
        E 240 80 74 00
        E 0 80 57 00
        E 0 80 63 00
        E 120 90 3e 60
        E 0 90 4a 60
        E 0 90 57 60
        E 0 90 63 60
        E 120 80 3e 00
        E 0 80 4a 00
        E 240 80 57 00
        E 0 80 63 00
        E 120 90 3e 60
        E 0 90 4a 60
        E 0 90 57 60
        E 0 90 63 60
        E 120 80 3e 00
        E 0 80 4a 00
        E 240 80 57 00
        E 0 80 63 00
        E 120 90 4a 60
        E 0 90 57 60
        E 0 90 63 60
        E 120 80 4a 00
        E 240 80 57 00
        E 0 80 63 00
        E 120 90 3c 60
        E 0 90 48 60
        E 0 90 54 60
        E 0 90 60 60
        E 120 80 3c 00
        E 0 80 48 00
        E 240 80 54 00
        E 0 80 60 00
        E 120 90 48 60
        E 0 90 54 60
        E 0 90 60 60
        E 120 80 48 00
        E 240 80 54 00
        E 0 80 60 00
        E 120 90 3e 60
        E 0 90 4a 60
        E 0 90 57 60
        E 0 90 63 60
        E 120 80 3e 00
        E 0 80 4a 00
        E 240 80 57 00
        E 0 80 63 00
        E 120 90 4a 60
        E 0 90 57 60
        E 0 90 63 60
        E 120 80 4a 00
        E 239 80 57 00
        E 0 80 63 00
        E 121 90 3d 60
        E 0 90 49 60
        E 0 90 55 60
        E 0 90 61 60
        E 120 80 3d 00
        E 0 80 49 00
        E 240 80 55 00
        E 0 80 61 00
        E 120 90 49 60
        E 0 90 55 60
        E 0 90 61 60
        E 120 80 49 00
        E 240 80 55 00
        E 0 80 61 00
        E 120 90 3e 60
        E 0 90 4a 60
        E 0 90 57 60
        E 0 90 63 60
        E 120 80 3e 00
        E 0 80 4a 00
        E 240 80 57 00
        E 0 80 63 00
        E 120 90 3e 60
        E 0 90 4a 60
        E 0 90 57 60
        E 0 90 63 60
        E 120 80 3e 00
        E 0 80 4a 00
        E 240 80 57 00
        E 0 80 63 00
        E 120 90 3e 60
        E 0 90 4a 60
        E 0 90 57 60
        E 0 90 63 60
        E 120 80 3e 00
        E 0 80 4a 00
        E 240 80 57 00
        E 0 80 63 00
        E 120 90 4a 60
        E 0 90 57 60
        E 0 90 63 60
        E 120 80 4a 00
        E 240 80 57 00
        E 0 80 63 00
        E 120 90 3c 60
        E 0 90 48 60
        E 0 90 54 60
        E 0 90 60 60
        E 120 80 3c 00
        E 0 80 48 00
        E 240 80 54 00
        E 0 80 60 00
        E 120 90 48 60
        E 0 90 54 60
        E 0 90 60 60
        E 120 80 48 00
        E 240 80 54 00
        E 0 80 60 00
        E 120 90 3e 60
        E 0 90 4a 60
        E 0 90 57 60
        E 0 90 63 60
        E 120 80 3e 00
        E 0 80 4a 00
        E 240 80 57 00
        E 0 80 63 00
        E 120 90 4a 60
        E 0 90 57 60
        E 0 90 63 60
        E 120 80 4a 00
        E 239 80 57 00
        E 0 80 63 00
        E 121 90 3d 60
        E 0 90 49 60
        E 0 90 55 60
        E 0 90 61 60
        E 120 80 3d 00
        E 0 80 49 00
        E 240 80 55 00
        E 0 80 61 00
        E 120 90 49 60
        E 0 90 55 60
        E 0 90 61 60
        E 120 80 49 00
        E 240 80 55 00
        E 0 80 61 00
        E 120 90 3e 60
        E 0 90 4a 60
        E 0 90 57 60
        E 0 90 63 60
        E 120 80 3e 00
        E 0 80 4a 00
        E 240 80 57 00
        E 0 80 63 00
        E 120 90 3e 60
        E 0 90 4a 60
        E 0 90 57 60
        E 0 90 63 60
        E 120 80 3e 00
        E 0 80 4a 00
        E 240 80 57 00
        E 0 80 63 00
        E 120 90 3e 60
        E 0 90 4a 60
        E 0 90 57 60
        E 0 90 63 60
        E 120 80 3e 00
        E 0 80 4a 00
        E 240 80 57 00
        E 0 80 63 00
        E 120 90 3e 60
        E 0 90 4a 60
        E 0 90 57 60
        E 0 90 63 60
        E 120 80 3e 00
        E 0 80 4a 00
        E 240 80 57 00
        E 0 80 63 00
        E 120 90 3e 60
        E 0 90 4a 60
        E 0 90 56 60
        E 0 90 62 60
        E 0 90 74 60
        E 120 80 3e 00
        E 0 80 4a 00
        E 240 80 56 00
        E 0 80 62 00
        E 120 90 4a 60
        E 0 90 56 60
        E 0 90 62 60
        E 120 80 4a 00
        E 240 80 56 00
        E 0 80 62 00
        E 120 90 3c 60
        E 0 90 48 60
        E 0 90 54 60
        E 0 90 60 60
        E 120 80 3c 00
        E 0 80 48 00
        E 240 80 54 00
        E 0 80 60 00
        E 120 90 48 60
        E 0 90 54 60
        E 0 90 60 60
        E 120 80 48 00
        E 240 80 54 00
        E 0 80 60 00
        E 120 90 3d 60
        E 0 90 49 60
        E 0 90 55 60
        E 0 90 61 60
        E 120 80 3d 00
        E 0 80 49 00
        E 240 80 55 00
        E 0 80 61 00
        E 120 90 3d 60
        E 0 90 49 60
        E 0 90 55 60
        E 0 90 61 60
        E 120 80 3d 00
        E 0 80 49 00
        E 240 80 55 00
        E 0 80 61 00
        E 120 90 3d 60
        E 0 90 49 60
        E 0 90 55 60
        E 0 90 61 60
        E 120 80 3d 00
        E 0 80 49 00
        E 240 80 55 00
        E 0 80 61 00
        E 120 90 49 60
        E 0 90 55 60
        E 0 90 61 60
        E 120 80 49 00
        E 240 80 2b 00
        E 0 80 55 00
        E 0 80 61 00
        E 120 90 31 60
        E 0 90 3e 60
        E 0 90 4a 60
        E 0 90 57 60
        E 0 90 63 60
        E 120 80 74 00
        E 0 80 3e 00
        E 0 80 4a 00
        E 240 80 57 00
        E 0 80 63 00
        E 120 90 3e 60
        E 0 90 4a 60
        E 0 90 57 60
        E 0 90 63 60
        E 120 80 3e 00
        E 0 80 4a 00
        E 240 80 31 00
        E 0 80 57 00
        E 0 80 63 00
        E 120 90 2f 60
        E 0 90 3e 60
        E 0 90 4a 60
        E 0 90 56 60
        E 0 90 62 60
        E 120 80 3e 00
        E 0 80 4a 00
        E 240 80 56 00
        E 0 80 62 00
        E 120 90 4a 60
        E 0 90 56 60
        E 0 90 62 60
        E 120 80 4a 00
        E 240 80 2f 00
        E 0 80 56 00
        E 0 80 62 00
        E 120 90 2b 60
        E 0 90 3d 60
        E 0 90 49 60
        E 0 90 55 60
        E 0 90 61 60
        E 120 80 3d 00
        E 0 80 49 00
        E 240 80 55 00
        E 0 80 61 00
        E 120 90 49 60
        E 0 90 55 60
        E 0 90 61 60
        E 120 80 49 00
        E 240 80 55 00
        E 0 80 61 00
        E 120 90 3c 60
        E 0 90 48 60
        E 0 90 54 60
        E 0 90 60 60
        E 120 80 3c 00
        E 0 80 48 00
        E 240 80 54 00
        E 0 80 60 00
        E 120 90 48 60
        E 0 90 54 60
        E 0 90 60 60
        E 120 80 48 00
        E 240 80 54 00
        E 0 80 60 00
        E 120 90 3d 60
        E 0 90 49 60
        E 0 90 55 60
        E 0 90 61 60
        E 120 80 3d 00
        E 0 80 49 00
        E 240 80 55 00
        E 0 80 61 00
        E 120 90 49 60
        E 0 90 55 60
        E 0 90 61 60
        E 120 80 49 00
        E 240 80 55 00
        E 0 80 61 00
        E 120 90 3f 60
        E 0 90 4b 60
        E 0 90 58 60
        E 0 90 64 60
        E 120 80 3f 00
        E 0 80 4b 00
        E 240 80 58 00
        E 0 80 64 00
        E 120 90 4b 60
        E 0 90 58 60
        E 0 90 64 60
        E 120 80 4b 00
        E 240 80 58 00
        E 0 80 64 00
        E 120 90 3e 60
        E 0 90 4a 60
        E 0 90 57 60
        E 0 90 63 60
        E 120 80 3e 00
        E 0 80 4a 00
        E 240 80 57 00
        E 0 80 63 00
        E 120 90 4a 60
        E 0 90 57 60
        E 0 90 63 60
        E 120 80 4a 00
        E 240 80 57 00
        E 0 80 63 00
        E 120 90 3c 60
        E 0 90 48 60
        E 0 90 54 60
        E 0 90 60 60
        E 120 80 3c 00
        E 0 80 48 00
        E 240 80 54 00
        E 0 80 60 00
        E 120 90 48 60
        E 0 90 54 60
        E 0 90 60 60
        E 120 80 48 00
        E 240 80 54 00
        E 0 80 60 00
        E 120 90 3d 60
        E 0 90 49 60
        E 0 90 55 60
        E 0 90 61 60
        E 120 80 3d 00
        E 0 80 49 00
        E 240 80 55 00
        E 0 80 61 00
        E 120 90 49 60
        E 0 90 55 60
        E 0 90 61 60
        E 120 80 49 00
        E 240 80 55 00
        E 0 80 61 00
        E 120 90 3f 60
        E 0 90 4b 60
        E 0 90 58 60
        E 0 90 64 60
        E 120 80 3f 00
        E 0 80 4b 00
        E 240 80 58 00
        E 0 80 64 00
        E 120 90 4b 60
        E 0 90 58 60
        E 0 90 64 60
        E 120 80 4b 00
        E 240 80 58 00
        E 0 80 64 00
        E 120 90 3e 60
        E 0 90 4a 60
        E 0 90 57 60
        E 0 90 63 60
        E 120 80 3e 00
        E 0 80 4a 00
        E 240 80 57 00
        E 0 80 63 00
        E 120 90 4a 60
        E 0 90 57 60
        E 0 90 63 60
        E 120 80 4a 00
        E 240 80 57 00
        E 0 80 63 00
        E 120 90 3c 60
        E 0 90 48 60
        E 0 90 54 60
        E 0 90 60 60
        E 120 80 3c 00
        E 0 80 48 00
        E 240 80 54 00
        E 0 80 60 00
        E 120 90 48 60
        E 0 90 54 60
        E 0 90 60 60
        E 120 80 48 00
        E 240 80 54 00
        E 0 80 60 00
        E 120 90 3d 60
        E 0 90 49 60
        E 0 90 55 60
        E 0 90 61 60
        E 120 80 3d 00
        E 0 80 49 00
        E 240 80 55 00
        E 0 80 61 00
        E 120 90 49 60
        E 0 90 55 60
        E 0 90 61 60
        E 120 80 49 00
        E 240 80 55 00
        E 0 80 61 00
        E 120 90 3f 60
        E 0 90 4b 60
        E 0 90 58 60
        E 0 90 64 60
        E 120 80 3f 00
        E 0 80 4b 00
        E 240 80 58 00
        E 0 80 64 00
        E 120 90 4b 60
        E 0 90 58 60
        E 0 90 64 60
        E 120 80 4b 00
        E 240 80 58 00
        E 0 80 64 00
        E 120 90 3e 60
        E 0 90 4a 60
        E 0 90 57 60
        E 0 90 63 60
        E 120 80 3e 00
        E 0 80 4a 00
        E 240 80 57 00
        E 0 80 63 00
        E 120 90 4a 60
        E 0 90 57 60
        E 0 90 63 60
        E 120 80 4a 00
        E 240 80 57 00
        E 0 80 63 00
        E 120 90 3c 60
        E 0 90 48 60
        E 0 90 54 60
        E 0 90 60 60
        E 120 80 3c 00
        E 0 80 48 00
        E 240 80 54 00
        E 0 80 60 00
        E 120 90 48 60
        E 0 90 54 60
        E 0 90 60 60
        E 120 80 48 00
        E 240 80 54 00
        E 0 80 60 00
        E 120 90 3d 60
        E 0 90 49 60
        E 0 90 55 60
        E 0 90 61 60
        E 120 80 3d 00
        E 0 80 49 00
        E 240 80 55 00
        E 0 80 61 00
        E 120 90 49 60
        E 0 90 55 60
        E 0 90 61 60
        E 120 80 49 00
        E 240 80 55 00
        E 0 80 61 00
        E 120 90 3f 60
        E 0 90 4b 60
        E 0 90 58 60
        E 0 90 64 60
        E 3840 80 2b 00
        E 0 80 3f 00
        E 0 80 4b 00
        E 0 80 58 00
        E 0 80 64 00
        <X 479 0
          /wFbaWRsZV9yZWFsdGltZV0=
        >
        E 3360 b0 7b 00
        GUID {B860A174-E9F5-480C-B587-187897FDD328}
        IGNTEMPO 0 120.00000000 4 4
        SRCCOLOR 2
        VELLANE 132 128 60
        COLORMAP "C:\Program Files\REAPER (x64)\Data\color_maps\rockband_guitarbass.png"
        CFGEDITVIEW -967.111675 69.848485 0 12 0 0 0
        CFGEDIT 1 1 0 1 1 0 1 1 1 1 1 0.25000000 -8 -8 1544 872 0 2 1 1 0.00000000 0 1 0 0 0.500000 0 0 1.000000 64
        KEYSNAP 0 6 "102030050700" 0 "Pentatonic"
        EVTFILTER 0 -1 -1 -1 -1 0 1 0 0 -1.00000000 -1.00000000
      >
    >
  >
  <TRACK '{8C4D7233-CE9F-4C5E-A766-72AD320A2CF4}'
    NAME "PART GUITAR"
    PEAKCOL 16576
    BEAT -1
    AUTOMODE 0
    VOLPAN 1.00000000000000 0.00000000000000 -1.00000000000000 -1.00000000000000 1.00000000000000
    MUTESOLO 0 0 0
    IPHASE 0
    ISBUS 0 0
    BUSCOMP 0 0
    SHOWINMIX 1 0.666700 0.500000 1 0.500000 -1 -1 -1
    FREEMODE 0
    SEL 0
    REC 0 0 0 0 0 0 0
    VU 2
    TRACKHEIGHT 0 0
    INQ 0 0 0 0.5000000000 100 0 0 100
    NCHAN 2
    FX 1
    TRACKID {8C4D7233-CE9F-4C5E-A766-72AD320A2CF4}
    PERF 0
    MIDIOUT -1
    <MIDINOTENAMES
      0 127 "TRILL MARKER"
      0 126 "TREMOLO MARKER"
      0 125 "---"
      0 124 "BRE"
      0 123 "BRE"
      0 122 "BRE"
      0 121 "BRE"
      0 120 "BRE (use all 5)"
      0 119 "----"
      0 116 "OVERDRIVE"
      0 115 "----"
      0 103 "Solo Marker"
      0 102 "Force HOPO Off"
      0 101 "Force HOPO On"
      0 100 "EXPERT Orange"
      0 99 "EXPERT Blue"
      0 98 "EXPERT Yellow"
      0 97 "EXPERT Red"
      0 96 "EXPERT Green"
      0 95 "----"
      0 90 "Force HOPO Off"
      0 89 "Force HOPO On"
      0 88 "HARD Orange"
      0 87 "HARD Blue"
      0 86 "HARD Yellow"
      0 85 "HARD Red"
      0 84 "HARD Green"
      0 77 "----"
      0 76 "MEDIUM Orange"
      0 75 "MEDIUM Blue"
      0 74 "MEDIUM Yellow"
      0 73 "MEDIUM Red"
      0 72 "MEDIUM Green"
      0 65 "----"
      0 64 "EASY Orange"
      0 63 "EASY Blue"
      0 62 "EASY Yellow"
      0 61 "EASY Red"
      0 60 "EASY Green"
      0 59 "Fret 12"
      0 57 "Fret 11"
      0 56 "Fret 10"
      0 55 "Fret 9"
      0 53 "Fret 8"
      0 52 "Fret 7"
      0 50 "Fret 6"
      0 49 "Fret 5"
      0 47 "Fret 4"
      0 45 "Fret 3"
      0 43 "Fret 2"
      0 40 "Fret 1"
    >
    MAINSEND 1 0
    <FXCHAIN
      WNDRECT 0 43 891 559
      SHOW 0
      LASTSEL 0
      DOCKED 0
      BYPASS 0 0
      <VST "VSTi: RBN Preview (RBN)" "rbprev_vst64.dll" 0 ""
        dnBicu5e7f4AAAAAAgAAAAEAAAAAAAAAAgAAAAAAAAAEAAAAAQAAAA==
        AAAQAAMAqgAAABAAAAA=
      >
      FLOATPOS 0 0 0 0
      FXID {BB4F7FE4-297A-4046-9628-3FF4A2B891A0}
      WAK 0
    >
    <ITEM
      POSITION 0.00000000000000
      SNAPOFFS 0.00000000000000
      LENGTH 128.64099999999999
      LOOP 0
      ALLTAKES 0
      SEL 0
      FADEIN 1 0.000000 0.000000 1 0
      FADEOUT 1 0.000000 0.000000 1 0
      MUTE 0
      IGUID {A0B30EA5-7EE2-4B58-BE30-0FBCC9EAA0D1}
      IID 4
      NAME "PART GUITAR"
      VOLPAN 1.000000 0.000000 1.000000 -1.000000
      SOFFS 0.00000000000000 0.00000000000000
      PLAYRATE 1.00000000000000 1 0.00000000000000 -1
      CHANMODE 0
      GUID {1CAFCA62-D022-4E3D-94EB-65AE275C5962}
      <SOURCE MIDI
        HASDATA 1 480 QN
        POOLEDEVTS {F091B600-539D-4BBB-82D8-0FA63A2FE26C}
        <X 0 0
          /wNQQVJUIEdVSVRBUg==
        >
        <X 3840 0
          /wFbcGxheV0=
        >
        E 0 90 34 60
        E 0 90 3d 60
        E 0 90 49 60
        E 0 90 55 60
        E 0 90 61 60
        E 120 80 3d 00
        E 0 80 49 00
        E 0 80 55 00
        E 0 80 61 00
        E 120 90 56 60
        E 0 90 57 60
        E 0 90 62 60
        E 0 90 63 60
        E 120 80 56 00
        E 0 80 57 00
        E 0 80 62 00
        E 0 80 63 00
        E 360 90 49 60
        E 0 90 4b 60
        E 0 90 56 60
        E 0 90 57 60
        E 0 90 62 60
        E 0 90 63 60
        E 120 80 49 00
        E 0 80 4b 00
        E 0 80 56 00
        E 0 80 57 00
        E 0 80 62 00
        E 0 80 63 00
        E 360 90 49 60
        E 0 90 4b 60
        E 0 90 56 60
        E 0 90 57 60
        E 0 90 62 60
        E 0 90 63 60
        E 120 80 49 00
        E 0 80 4b 00
        E 0 80 56 00
        E 0 80 57 00
        E 0 80 62 00
        E 0 80 63 00
        E 241 80 34 00
        E 119 90 38 60
        E 0 90 57 60
        E 0 90 58 60
        E 0 90 63 60
        E 0 90 64 60
        E 120 80 57 00
        E 0 80 58 00
        E 0 80 63 00
        E 0 80 64 00
        E 120 90 3e 60
        E 0 90 4a 60
        E 0 90 56 60
        E 0 90 62 60
        E 120 80 3e 00
        E 0 80 4a 00
        E 0 80 56 00
        E 0 80 62 00
        E 1 80 38 00
        E 119 90 34 60
        E 0 90 55 60
        E 0 90 58 60
        E 0 90 61 60
        E 0 90 64 60
        E 120 80 55 00
        E 0 80 58 00
        E 0 80 61 00
        E 0 80 64 00
        E 241 80 34 00
        E 119 90 31 60
        E 0 90 56 60
        E 0 90 57 60
        E 0 90 62 60
        E 0 90 63 60
        E 120 80 56 00
        E 0 80 57 00
        E 0 80 62 00
        E 0 80 63 00
        E 120 90 3d 60
        E 0 90 49 60
        E 0 90 55 60
        E 0 90 61 60
        E 120 80 3d 00
        E 0 80 49 00
        E 0 80 55 00
        E 0 80 61 00
        E 120 90 56 60
        E 0 90 57 60
        E 0 90 62 60
        E 0 90 63 60
        E 120 80 56 00
        E 0 80 57 00
        E 0 80 62 00
        E 0 80 63 00
        E 241 80 31 00
        E 119 90 2d 60
        E 0 90 55 60
        E 0 90 57 60
        E 0 90 61 60
        E 0 90 63 60
        E 120 80 55 00
        E 0 80 57 00
        E 0 80 61 00
        E 0 80 63 00
        E 120 90 3c 60
        E 0 90 48 60
        E 0 90 54 60
        E 0 90 60 60
        E 120 80 3c 00
        E 0 80 48 00
        E 0 80 54 00
        E 0 80 60 00
        E 120 90 55 60
        E 0 90 57 60
        E 0 90 61 60
        E 0 90 63 60
        E 600 80 55 00
        E 0 80 57 00
        E 0 80 61 00
        E 0 80 63 00
        E 1 80 2d 00
        E 119 90 34 60
        E 0 90 3d 60
        E 0 90 49 60
        E 0 90 55 60
        E 0 90 61 60
        E 120 80 3d 00
        E 0 80 49 00
        E 0 80 55 00
        E 0 80 61 00
        E 120 90 56 60
        E 0 90 57 60
        E 0 90 62 60
        E 0 90 63 60
        E 120 80 56 00
        E 0 80 57 00
        E 0 80 62 00
        E 0 80 63 00
        E 360 90 49 60
        E 0 90 4b 60
        E 0 90 56 60
        E 0 90 57 60
        E 0 90 62 60
        E 0 90 63 60
        E 120 80 49 00
        E 0 80 4b 00
        E 0 80 56 00
        E 0 80 57 00
        E 0 80 62 00
        E 0 80 63 00
        E 360 90 49 60
        E 0 90 4b 60
        E 0 90 56 60
        E 0 90 57 60
        E 0 90 62 60
        E 0 90 63 60
        E 120 80 49 00
        E 0 80 4b 00
        E 0 80 56 00
        E 0 80 57 00
        E 0 80 62 00
        E 0 80 63 00
        E 241 80 34 00
        E 119 90 38 60
        E 0 90 57 60
        E 0 90 58 60
        E 0 90 63 60
        E 0 90 64 60
        E 120 80 57 00
        E 0 80 58 00
        E 0 80 63 00
        E 0 80 64 00
        E 120 90 3e 60
        E 0 90 4a 60
        E 0 90 56 60
        E 0 90 62 60
        E 120 80 3e 00
        E 0 80 4a 00
        E 0 80 56 00
        E 0 80 62 00
        E 1 80 38 00
        E 119 90 34 60
        E 0 90 55 60
        E 0 90 58 60
        E 0 90 61 60
        E 0 90 64 60
        E 120 80 55 00
        E 0 80 58 00
        E 0 80 61 00
        E 0 80 64 00
        E 241 80 34 00
        E 119 90 31 60
        E 0 90 56 60
        E 0 90 57 60
        E 0 90 62 60
        E 0 90 63 60
        E 120 80 56 00
        E 0 80 57 00
        E 0 80 62 00
        E 0 80 63 00
        E 120 90 3d 60
        E 0 90 49 60
        E 0 90 55 60
        E 0 90 61 60
        E 120 80 3d 00
        E 0 80 49 00
        E 0 80 55 00
        E 0 80 61 00
        E 120 90 56 60
        E 0 90 57 60
        E 0 90 62 60
        E 0 90 63 60
        E 120 80 56 00
        E 0 80 57 00
        E 0 80 62 00
        E 0 80 63 00
        E 241 80 31 00
        E 119 90 2d 60
        E 0 90 55 60
        E 0 90 57 60
        E 0 90 61 60
        E 0 90 63 60
        E 120 80 55 00
        E 0 80 57 00
        E 0 80 61 00
        E 0 80 63 00
        E 120 90 3c 60
        E 0 90 48 60
        E 0 90 54 60
        E 0 90 60 60
        E 120 80 3c 00
        E 0 80 48 00
        E 0 80 54 00
        E 0 80 60 00
        E 120 90 55 60
        E 0 90 57 60
        E 0 90 61 60
        E 0 90 63 60
        E 600 80 55 00
        E 0 80 57 00
        E 0 80 61 00
        E 0 80 63 00
        E 1 80 2d 00
        E 119 90 34 60
        E 0 90 3d 60
        E 0 90 49 60
        E 0 90 55 60
        E 0 90 61 60
        E 120 80 3d 00
        E 0 80 49 00
        E 0 80 55 00
        E 0 80 61 00
        E 120 90 56 60
        E 0 90 57 60
        E 0 90 62 60
        E 0 90 63 60
        E 120 80 56 00
        E 0 80 57 00
        E 0 80 62 00
        E 0 80 63 00
        E 360 90 49 60
        E 0 90 4b 60
        E 0 90 56 60
        E 0 90 57 60
        E 0 90 62 60
        E 0 90 63 60
        E 120 80 49 00
        E 0 80 4b 00
        E 0 80 56 00
        E 0 80 57 00
        E 0 80 62 00
        E 0 80 63 00
        E 360 90 49 60
        E 0 90 4b 60
        E 0 90 56 60
        E 0 90 57 60
        E 0 90 62 60
        E 0 90 63 60
        E 120 80 49 00
        E 0 80 4b 00
        E 0 80 56 00
        E 0 80 57 00
        E 0 80 62 00
        E 0 80 63 00
        E 241 80 34 00
        E 119 90 38 60
        E 0 90 57 60
        E 0 90 58 60
        E 0 90 63 60
        E 0 90 64 60
        E 120 80 57 00
        E 0 80 58 00
        E 0 80 63 00
        E 0 80 64 00
        E 120 90 3e 60
        E 0 90 4a 60
        E 0 90 56 60
        E 0 90 62 60
        E 120 80 3e 00
        E 0 80 4a 00
        E 0 80 56 00
        E 0 80 62 00
        E 1 80 38 00
        E 119 90 34 60
        E 0 90 55 60
        E 0 90 58 60
        E 0 90 61 60
        E 0 90 64 60
        E 120 80 55 00
        E 0 80 58 00
        E 0 80 61 00
        E 0 80 64 00
        E 241 80 34 00
        E 119 90 31 60
        E 0 90 56 60
        E 0 90 57 60
        E 0 90 62 60
        E 0 90 63 60
        E 120 80 56 00
        E 0 80 57 00
        E 0 80 62 00
        E 0 80 63 00
        E 120 90 3d 60
        E 0 90 49 60
        E 0 90 55 60
        E 0 90 61 60
        E 120 80 3d 00
        E 0 80 49 00
        E 0 80 55 00
        E 0 80 61 00
        E 120 90 56 60
        E 0 90 57 60
        E 0 90 62 60
        E 0 90 63 60
        E 120 80 56 00
        E 0 80 57 00
        E 0 80 62 00
        E 0 80 63 00
        E 241 80 31 00
        E 119 90 2d 60
        E 0 90 55 60
        E 0 90 57 60
        E 0 90 61 60
        E 0 90 63 60
        E 120 80 55 00
        E 0 80 57 00
        E 0 80 61 00
        E 0 80 63 00
        E 120 90 3c 60
        E 0 90 48 60
        E 0 90 54 60
        E 0 90 60 60
        E 120 80 3c 00
        E 0 80 48 00
        E 0 80 54 00
        E 0 80 60 00
        E 120 90 55 60
        E 0 90 57 60
        E 0 90 61 60
        E 0 90 63 60
        E 600 80 55 00
        E 0 80 57 00
        E 0 80 61 00
        E 0 80 63 00
        E 1 80 2d 00
        E 119 90 34 60
        E 0 90 3d 60
        E 0 90 49 60
        E 0 90 55 60
        E 0 90 61 60
        E 120 80 3d 00
        E 0 80 49 00
        E 0 80 55 00
        E 0 80 61 00
        E 120 90 56 60
        E 0 90 57 60
        E 0 90 62 60
        E 0 90 63 60
        E 120 80 56 00
        E 0 80 57 00
        E 0 80 62 00
        E 0 80 63 00
        E 360 90 49 60
        E 0 90 4b 60
        E 0 90 56 60
        E 0 90 57 60
        E 0 90 62 60
        E 0 90 63 60
        E 120 80 49 00
        E 0 80 4b 00
        E 0 80 56 00
        E 0 80 57 00
        E 0 80 62 00
        E 0 80 63 00
        E 360 90 49 60
        E 0 90 4b 60
        E 0 90 56 60
        E 0 90 57 60
        E 0 90 62 60
        E 0 90 63 60
        E 120 80 49 00
        E 0 80 4b 00
        E 0 80 56 00
        E 0 80 57 00
        E 0 80 62 00
        E 0 80 63 00
        E 360 90 56 60
        E 0 90 57 60
        E 0 90 62 60
        E 0 90 63 60
        E 120 80 56 00
        E 0 80 57 00
        E 0 80 62 00
        E 0 80 63 00
        E 1 80 34 00
        E 119 90 2d 60
        E 0 90 3c 60
        E 0 90 48 60
        E 0 90 54 60
        E 0 90 60 60
        E 120 80 3c 00
        E 0 80 48 00
        E 0 80 54 00
        E 0 80 60 00
        E 120 90 55 60
        E 0 90 56 60
        E 0 90 61 60
        E 0 90 62 60
        E 600 80 55 00
        E 0 80 56 00
        E 0 80 61 00
        E 0 80 62 00
        E 1 80 2d 00
        E 119 90 31 60
        E 0 90 3c 60
        E 0 90 48 60
        E 0 90 49 60
        E 0 90 54 60
        E 0 90 56 60
        E 0 90 60 60
        E 0 90 62 60
        E 480 80 3c 00
        E 0 80 48 00
        E 0 80 49 00
        E 360 80 54 00
        E 0 80 56 00
        E 0 80 60 00
        E 0 80 62 00
        E 1 80 31 00
        E 119 90 34 60
        E 0 90 3d 60
        E 0 90 48 60
        E 0 90 4a 60
        E 0 90 55 60
        E 0 90 56 60
        E 0 90 61 60
        E 0 90 62 60
        E 480 80 3d 00
        E 0 80 48 00
        E 0 80 4a 00
        E 360 80 55 00
        E 0 80 56 00
        E 0 80 61 00
        E 0 80 62 00
        E 1 80 34 00
        E 119 90 38 60
        E 0 90 3f 60
        E 0 90 4a 60
        E 0 90 4b 60
        E 0 90 56 60
        E 0 90 58 60
        E 0 90 62 60
        E 0 90 64 60
        E 0 90 74 60
        E 480 80 3f 00
        E 0 80 4a 00
        E 0 80 4b 00
        E 360 80 56 00
        E 0 80 58 00
        E 0 80 62 00
        E 0 80 64 00
        E 1 80 38 00
        E 119 90 37 60
        E 0 90 3e 60
        E 0 90 49 60
        E 0 90 4a 60
        E 0 90 55 60
        E 0 90 57 60
        E 0 90 61 60
        E 0 90 63 60
        E 480 80 3e 00
        E 0 80 49 00
        E 0 80 4a 00
        E 360 80 55 00
        E 0 80 57 00
        E 0 80 61 00
        E 0 80 63 00
        E 1 80 37 00
        E 119 90 34 60
        E 0 90 3d 60
        E 0 90 48 60
        E 0 90 4a 60
        E 0 90 55 60
        E 0 90 56 60
        E 0 90 61 60
        E 0 90 62 60
        E 480 80 3d 00
        E 0 80 48 00
        E 0 80 4a 00
        E 360 80 55 00
        E 0 80 56 00
        E 0 80 61 00
        E 0 80 62 00
        E 1 80 34 00
        E 119 90 31 60
        E 0 90 3c 60
        E 0 90 48 60
        E 0 90 49 60
        E 0 90 54 60
        E 0 90 56 60
        E 0 90 60 60
        E 0 90 62 60
        E 480 80 3c 00
        E 0 80 48 00
        E 0 80 49 00
        E 360 80 54 00
        E 0 80 56 00
        E 0 80 60 00
        E 0 80 62 00
        E 1 80 31 00
        E 119 90 34 60
        E 0 90 3d 60
        E 0 90 48 60
        E 0 90 4a 60
        E 0 90 55 60
        E 0 90 56 60
        E 0 90 61 60
        E 0 90 62 60
        E 480 80 3d 00
        E 0 80 48 00
        E 0 80 4a 00
        E 360 80 55 00
        E 0 80 56 00
        E 0 80 61 00
        E 0 80 62 00
        E 1 80 34 00
        E 119 90 3b 60
        E 0 90 3c 60
        E 0 90 48 60
        E 0 90 54 60
        E 0 90 60 60
        E 120 80 74 00
        E 0 80 3c 00
        E 0 80 48 00
        E 0 80 54 00
        E 0 80 60 00
        E 120 90 56 60
        E 0 90 57 60
        E 0 90 62 60
        E 0 90 63 60
        E 120 80 56 00
        E 0 80 57 00
        E 0 80 62 00
        E 0 80 63 00
        E 360 90 56 60
        E 0 90 57 60
        E 0 90 62 60
        E 0 90 63 60
        E 120 80 56 00
        E 0 80 57 00
        E 0 80 62 00
        E 0 80 63 00
        E 1 80 3b 00
        E 119 90 38 60
        E 0 90 3d 60
        E 0 90 49 60
        E 0 90 55 60
        E 0 90 61 60
        E 120 80 3d 00
        E 0 80 49 00
        E 0 80 55 00
        E 0 80 61 00
        E 120 90 56 60
        E 0 90 58 60
        E 0 90 62 60
        E 0 90 64 60
        E 480 80 56 00
        E 0 80 58 00
        E 0 80 62 00
        E 0 80 64 00
        E 121 80 38 00
        E 119 90 31 60
        E 0 90 3c 60
        E 0 90 48 60
        E 0 90 49 60
        E 0 90 54 60
        E 0 90 56 60
        E 0 90 60 60
        E 0 90 62 60
        E 480 80 3c 00
        E 0 80 48 00
        E 0 80 49 00
        E 360 80 54 00
        E 0 80 56 00
        E 0 80 60 00
        E 0 80 62 00
        E 1 80 31 00
        E 119 90 34 60
        E 0 90 3d 60
        E 0 90 48 60
        E 0 90 4a 60
        E 0 90 55 60
        E 0 90 56 60
        E 0 90 61 60
        E 0 90 62 60
        E 480 80 3d 00
        E 0 80 48 00
        E 0 80 4a 00
        E 360 80 55 00
        E 0 80 56 00
        E 0 80 61 00
        E 0 80 62 00
        E 1 80 34 00
        E 119 90 3b 60
        E 0 90 3c 60
        E 0 90 48 60
        E 0 90 54 60
        E 0 90 60 60
        E 120 80 3c 00
        E 0 80 48 00
        E 0 80 54 00
        E 0 80 60 00
        E 120 90 56 60
        E 0 90 57 60
        E 0 90 62 60
        E 0 90 63 60
        E 120 80 56 00
        E 0 80 57 00
        E 0 80 62 00
        E 0 80 63 00
        E 360 90 56 60
        E 0 90 57 60
        E 0 90 62 60
        E 0 90 63 60
        E 120 80 56 00
        E 0 80 57 00
        E 0 80 62 00
        E 0 80 63 00
        E 1 80 3b 00
        E 119 90 38 60
        E 0 90 3d 60
        E 0 90 49 60
        E 0 90 55 60
        E 0 90 61 60
        E 120 80 3d 00
        E 0 80 49 00
        E 0 80 55 00
        E 0 80 61 00
        E 120 90 56 60
        E 0 90 58 60
        E 0 90 62 60
        E 0 90 64 60
        E 480 80 56 00
        E 0 80 58 00
        E 0 80 62 00
        E 0 80 64 00
        E 121 80 38 00
        E 119 90 31 60
        E 0 90 3c 60
        E 0 90 48 60
        E 0 90 49 60
        E 0 90 54 60
        E 0 90 56 60
        E 0 90 60 60
        E 0 90 62 60
        E 480 80 3c 00
        E 0 80 48 00
        E 0 80 49 00
        E 360 80 54 00
        E 0 80 56 00
        E 0 80 60 00
        E 0 80 62 00
        E 1 80 31 00
        E 119 90 34 60
        E 0 90 3d 60
        E 0 90 48 60
        E 0 90 4a 60
        E 0 90 55 60
        E 0 90 56 60
        E 0 90 61 60
        E 0 90 62 60
        E 480 80 3d 00
        E 0 80 48 00
        E 0 80 4a 00
        E 360 80 55 00
        E 0 80 56 00
        E 0 80 61 00
        E 0 80 62 00
        E 1 80 34 00
        E 119 90 3b 60
        E 0 90 3c 60
        E 0 90 48 60
        E 0 90 54 60
        E 0 90 60 60
        E 120 80 3c 00
        E 0 80 48 00
        E 0 80 54 00
        E 0 80 60 00
        E 120 90 56 60
        E 0 90 57 60
        E 0 90 62 60
        E 0 90 63 60
        E 120 80 56 00
        E 0 80 57 00
        E 0 80 62 00
        E 0 80 63 00
        E 360 90 56 60
        E 0 90 57 60
        E 0 90 62 60
        E 0 90 63 60
        E 120 80 56 00
        E 0 80 57 00
        E 0 80 62 00
        E 0 80 63 00
        E 1 80 3b 00
        E 119 90 38 60
        E 0 90 3d 60
        E 0 90 49 60
        E 0 90 55 60
        E 0 90 61 60
        E 120 80 3d 00
        E 0 80 49 00
        E 0 80 55 00
        E 0 80 61 00
        E 120 90 56 60
        E 0 90 58 60
        E 0 90 62 60
        E 0 90 64 60
        E 120 80 56 00
        E 0 80 58 00
        E 0 80 62 00
        E 0 80 64 00
        E 360 90 56 60
        E 0 90 58 60
        E 0 90 62 60
        E 0 90 64 60
        E 120 80 56 00
        E 0 80 58 00
        E 0 80 62 00
        E 0 80 64 00
        E 1 80 38 00
        E 119 90 31 60
        E 0 90 3c 60
        E 0 90 48 60
        E 0 90 49 60
        E 0 90 54 60
        E 0 90 56 60
        E 0 90 60 60
        E 0 90 62 60
        E 480 80 3c 00
        E 0 80 48 00
        E 0 80 49 00
        E 360 80 54 00
        E 0 80 56 00
        E 0 80 60 00
        E 0 80 62 00
        E 1 80 31 00
        E 119 90 34 60
        E 0 90 3d 60
        E 0 90 48 60
        E 0 90 4a 60
        E 0 90 55 60
        E 0 90 56 60
        E 0 90 61 60
        E 0 90 62 60
        E 480 80 3d 00
        E 0 80 48 00
        E 0 80 4a 00
        E 360 80 55 00
        E 0 80 56 00
        E 0 80 61 00
        E 0 80 62 00
        E 1 80 34 00
        E 119 90 34 60
        E 0 90 3d 60
        E 0 90 49 60
        E 0 90 55 60
        E 0 90 61 60
        E 120 80 3d 00
        E 0 80 49 00
        E 0 80 55 00
        E 0 80 61 00
        E 120 90 56 60
        E 0 90 57 60
        E 0 90 62 60
        E 0 90 63 60
        E 120 80 56 00
        E 0 80 57 00
        E 0 80 62 00
        E 0 80 63 00
        E 360 90 49 60
        E 0 90 4b 60
        E 0 90 56 60
        E 0 90 57 60
        E 0 90 62 60
        E 0 90 63 60
        E 120 80 49 00
        E 0 80 4b 00
        E 0 80 56 00
        E 0 80 57 00
        E 0 80 62 00
        E 0 80 63 00
        E 360 90 49 60
        E 0 90 4b 60
        E 0 90 56 60
        E 0 90 57 60
        E 0 90 62 60
        E 0 90 63 60
        E 120 80 49 00
        E 0 80 4b 00
        E 0 80 56 00
        E 0 80 57 00
        E 0 80 62 00
        E 0 80 63 00
        E 241 80 34 00
        E 119 90 38 60
        E 0 90 57 60
        E 0 90 58 60
        E 0 90 63 60
        E 0 90 64 60
        E 120 80 57 00
        E 0 80 58 00
        E 0 80 63 00
        E 0 80 64 00
        E 120 90 3e 60
        E 0 90 4a 60
        E 0 90 56 60
        E 0 90 62 60
        E 120 80 3e 00
        E 0 80 4a 00
        E 0 80 56 00
        E 0 80 62 00
        E 1 80 38 00
        E 119 90 34 60
        E 0 90 55 60
        E 0 90 58 60
        E 0 90 61 60
        E 0 90 64 60
        E 120 80 55 00
        E 0 80 58 00
        E 0 80 61 00
        E 0 80 64 00
        E 241 80 34 00
        E 119 90 31 60
        E 0 90 56 60
        E 0 90 57 60
        E 0 90 62 60
        E 0 90 63 60
        E 120 80 56 00
        E 0 80 57 00
        E 0 80 62 00
        E 0 80 63 00
        E 120 90 3d 60
        E 0 90 49 60
        E 0 90 55 60
        E 0 90 61 60
        E 120 80 3d 00
        E 0 80 49 00
        E 0 80 55 00
        E 0 80 61 00
        E 120 90 56 60
        E 0 90 57 60
        E 0 90 62 60
        E 0 90 63 60
        E 120 80 56 00
        E 0 80 57 00
        E 0 80 62 00
        E 0 80 63 00
        E 241 80 31 00
        E 119 90 2d 60
        E 0 90 55 60
        E 0 90 57 60
        E 0 90 61 60
        E 0 90 63 60
        E 120 80 55 00
        E 0 80 57 00
        E 0 80 61 00
        E 0 80 63 00
        E 120 90 3c 60
        E 0 90 48 60
        E 0 90 54 60
        E 0 90 60 60
        E 120 80 3c 00
        E 0 80 48 00
        E 0 80 54 00
        E 0 80 60 00
        E 120 90 55 60
        E 0 90 57 60
        E 0 90 61 60
        E 0 90 63 60
        E 600 80 55 00
        E 0 80 57 00
        E 0 80 61 00
        E 0 80 63 00
        E 1 80 2d 00
        E 119 90 34 60
        E 0 90 3d 60
        E 0 90 49 60
        E 0 90 55 60
        E 0 90 61 60
        E 120 80 3d 00
        E 0 80 49 00
        E 0 80 55 00
        E 0 80 61 00
        E 120 90 56 60
        E 0 90 57 60
        E 0 90 62 60
        E 0 90 63 60
        E 120 80 56 00
        E 0 80 57 00
        E 0 80 62 00
        E 0 80 63 00
        E 360 90 49 60
        E 0 90 4b 60
        E 0 90 56 60
        E 0 90 57 60
        E 0 90 62 60
        E 0 90 63 60
        E 120 80 49 00
        E 0 80 4b 00
        E 0 80 56 00
        E 0 80 57 00
        E 0 80 62 00
        E 0 80 63 00
        E 360 90 49 60
        E 0 90 4b 60
        E 0 90 56 60
        E 0 90 57 60
        E 0 90 62 60
        E 0 90 63 60
        E 120 80 49 00
        E 0 80 4b 00
        E 0 80 56 00
        E 0 80 57 00
        E 0 80 62 00
        E 0 80 63 00
        E 241 80 34 00
        E 119 90 38 60
        E 0 90 57 60
        E 0 90 58 60
        E 0 90 63 60
        E 0 90 64 60
        E 0 90 74 60
        E 120 80 57 00
        E 0 80 58 00
        E 0 80 63 00
        E 0 80 64 00
        E 120 90 3e 60
        E 0 90 4a 60
        E 0 90 56 60
        E 0 90 62 60
        E 120 80 3e 00
        E 0 80 4a 00
        E 0 80 56 00
        E 0 80 62 00
        E 1 80 38 00
        E 119 90 34 60
        E 0 90 55 60
        E 0 90 58 60
        E 0 90 61 60
        E 0 90 64 60
        E 120 80 55 00
        E 0 80 58 00
        E 0 80 61 00
        E 0 80 64 00
        E 241 80 34 00
        E 119 90 31 60
        E 0 90 56 60
        E 0 90 57 60
        E 0 90 62 60
        E 0 90 63 60
        E 120 80 56 00
        E 0 80 57 00
        E 0 80 62 00
        E 0 80 63 00
        E 120 90 3d 60
        E 0 90 49 60
        E 0 90 55 60
        E 0 90 61 60
        E 120 80 3d 00
        E 0 80 49 00
        E 0 80 55 00
        E 0 80 61 00
        E 120 90 56 60
        E 0 90 57 60
        E 0 90 62 60
        E 0 90 63 60
        E 120 80 56 00
        E 0 80 57 00
        E 0 80 62 00
        E 0 80 63 00
        E 241 80 31 00
        E 119 90 2d 60
        E 0 90 55 60
        E 0 90 57 60
        E 0 90 61 60
        E 0 90 63 60
        E 120 80 55 00
        E 0 80 57 00
        E 0 80 61 00
        E 0 80 63 00
        E 120 90 3c 60
        E 0 90 48 60
        E 0 90 54 60
        E 0 90 60 60
        E 120 80 3c 00
        E 0 80 48 00
        E 0 80 54 00
        E 0 80 60 00
        E 120 90 55 60
        E 0 90 57 60
        E 0 90 61 60
        E 0 90 63 60
        E 600 80 74 00
        E 0 80 55 00
        E 0 80 57 00
        E 0 80 61 00
        E 0 80 63 00
        E 1 80 2d 00
        E 119 90 34 60
        E 0 90 3d 60
        E 0 90 49 60
        E 0 90 55 60
        E 0 90 61 60
        E 120 80 3d 00
        E 0 80 49 00
        E 0 80 55 00
        E 0 80 61 00
        E 120 90 56 60
        E 0 90 57 60
        E 0 90 62 60
        E 0 90 63 60
        E 120 80 56 00
        E 0 80 57 00
        E 0 80 62 00
        E 0 80 63 00
        E 360 90 49 60
        E 0 90 4b 60
        E 0 90 56 60
        E 0 90 57 60
        E 0 90 62 60
        E 0 90 63 60
        E 120 80 49 00
        E 0 80 4b 00
        E 0 80 56 00
        E 0 80 57 00
        E 0 80 62 00
        E 0 80 63 00
        E 360 90 49 60
        E 0 90 4b 60
        E 0 90 56 60
        E 0 90 57 60
        E 0 90 62 60
        E 0 90 63 60
        E 120 80 49 00
        E 0 80 4b 00
        E 0 80 56 00
        E 0 80 57 00
        E 0 80 62 00
        E 0 80 63 00
        E 241 80 34 00
        E 119 90 38 60
        E 0 90 57 60
        E 0 90 58 60
        E 0 90 63 60
        E 0 90 64 60
        E 120 80 57 00
        E 0 80 58 00
        E 0 80 63 00
        E 0 80 64 00
        E 120 90 3e 60
        E 0 90 4a 60
        E 0 90 56 60
        E 0 90 62 60
        E 120 80 3e 00
        E 0 80 4a 00
        E 0 80 56 00
        E 0 80 62 00
        E 1 80 38 00
        E 119 90 34 60
        E 0 90 55 60
        E 0 90 58 60
        E 0 90 61 60
        E 0 90 64 60
        E 120 80 55 00
        E 0 80 58 00
        E 0 80 61 00
        E 0 80 64 00
        E 241 80 34 00
        E 119 90 31 60
        E 0 90 56 60
        E 0 90 57 60
        E 0 90 62 60
        E 0 90 63 60
        E 120 80 56 00
        E 0 80 57 00
        E 0 80 62 00
        E 0 80 63 00
        E 120 90 3d 60
        E 0 90 49 60
        E 0 90 55 60
        E 0 90 61 60
        E 120 80 3d 00
        E 0 80 49 00
        E 0 80 55 00
        E 0 80 61 00
        E 120 90 56 60
        E 0 90 57 60
        E 0 90 62 60
        E 0 90 63 60
        E 120 80 56 00
        E 0 80 57 00
        E 0 80 62 00
        E 0 80 63 00
        E 241 80 31 00
        E 119 90 2d 60
        E 0 90 55 60
        E 0 90 57 60
        E 0 90 61 60
        E 0 90 63 60
        E 120 80 55 00
        E 0 80 57 00
        E 0 80 61 00
        E 0 80 63 00
        E 120 90 3c 60
        E 0 90 48 60
        E 0 90 54 60
        E 0 90 60 60
        E 120 80 3c 00
        E 0 80 48 00
        E 0 80 54 00
        E 0 80 60 00
        E 120 90 55 60
        E 0 90 57 60
        E 0 90 61 60
        E 0 90 63 60
        E 600 80 55 00
        E 0 80 57 00
        E 0 80 61 00
        E 0 80 63 00
        E 1 80 2d 00
        E 119 90 34 60
        E 0 90 3d 60
        E 0 90 49 60
        E 0 90 55 60
        E 0 90 61 60
        E 120 80 3d 00
        E 0 80 49 00
        E 0 80 55 00
        E 0 80 61 00
        E 120 90 56 60
        E 0 90 57 60
        E 0 90 62 60
        E 0 90 63 60
        E 120 80 56 00
        E 0 80 57 00
        E 0 80 62 00
        E 0 80 63 00
        E 360 90 49 60
        E 0 90 4b 60
        E 0 90 56 60
        E 0 90 57 60
        E 0 90 62 60
        E 0 90 63 60
        E 120 80 49 00
        E 0 80 4b 00
        E 0 80 56 00
        E 0 80 57 00
        E 0 80 62 00
        E 0 80 63 00
        E 360 90 49 60
        E 0 90 4b 60
        E 0 90 56 60
        E 0 90 57 60
        E 0 90 62 60
        E 0 90 63 60
        E 120 80 49 00
        E 0 80 4b 00
        E 0 80 56 00
        E 0 80 57 00
        E 0 80 62 00
        E 0 80 63 00
        E 360 90 56 60
        E 0 90 57 60
        E 0 90 62 60
        E 0 90 63 60
        E 120 80 56 00
        E 0 80 57 00
        E 0 80 62 00
        E 0 80 63 00
        E 1 80 34 00
        E 119 90 2d 60
        E 0 90 3c 60
        E 0 90 48 60
        E 0 90 54 60
        E 0 90 60 60
        E 120 80 3c 00
        E 0 80 48 00
        E 0 80 54 00
        E 0 80 60 00
        E 120 90 55 60
        E 0 90 56 60
        E 0 90 61 60
        E 0 90 62 60
        E 600 80 55 00
        E 0 80 56 00
        E 0 80 61 00
        E 0 80 62 00
        E 1 80 2d 00
        E 119 90 31 60
        E 0 90 3c 60
        E 0 90 48 60
        E 0 90 49 60
        E 0 90 54 60
        E 0 90 56 60
        E 0 90 60 60
        E 0 90 62 60
        E 480 80 3c 00
        E 0 80 48 00
        E 0 80 49 00
        E 360 80 54 00
        E 0 80 56 00
        E 0 80 60 00
        E 0 80 62 00
        E 1 80 31 00
        E 119 90 34 60
        E 0 90 3d 60
        E 0 90 48 60
        E 0 90 4a 60
        E 0 90 55 60
        E 0 90 56 60
        E 0 90 61 60
        E 0 90 62 60
        E 480 80 3d 00
        E 0 80 48 00
        E 0 80 4a 00
        E 360 80 55 00
        E 0 80 56 00
        E 0 80 61 00
        E 0 80 62 00
        E 1 80 34 00
        E 119 90 38 60
        E 0 90 3f 60
        E 0 90 4a 60
        E 0 90 4b 60
        E 0 90 56 60
        E 0 90 58 60
        E 0 90 62 60
        E 0 90 64 60
        E 0 90 74 60
        E 480 80 3f 00
        E 0 80 4a 00
        E 0 80 4b 00
        E 360 80 56 00
        E 0 80 58 00
        E 0 80 62 00
        E 0 80 64 00
        E 1 80 38 00
        E 119 90 37 60
        E 0 90 3e 60
        E 0 90 49 60
        E 0 90 4a 60
        E 0 90 55 60
        E 0 90 57 60
        E 0 90 61 60
        E 0 90 63 60
        E 480 80 3e 00
        E 0 80 49 00
        E 0 80 4a 00
        E 360 80 55 00
        E 0 80 57 00
        E 0 80 61 00
        E 0 80 63 00
        E 1 80 37 00
        E 119 90 34 60
        E 0 90 3d 60
        E 0 90 48 60
        E 0 90 4a 60
        E 0 90 55 60
        E 0 90 56 60
        E 0 90 61 60
        E 0 90 62 60
        E 480 80 3d 00
        E 0 80 48 00
        E 0 80 4a 00
        E 360 80 55 00
        E 0 80 56 00
        E 0 80 61 00
        E 0 80 62 00
        E 1 80 34 00
        E 119 90 31 60
        E 0 90 3c 60
        E 0 90 48 60
        E 0 90 49 60
        E 0 90 54 60
        E 0 90 56 60
        E 0 90 60 60
        E 0 90 62 60
        E 480 80 3c 00
        E 0 80 48 00
        E 0 80 49 00
        E 360 80 54 00
        E 0 80 56 00
        E 0 80 60 00
        E 0 80 62 00
        E 1 80 31 00
        E 119 90 34 60
        E 0 90 3d 60
        E 0 90 48 60
        E 0 90 4a 60
        E 0 90 55 60
        E 0 90 56 60
        E 0 90 61 60
        E 0 90 62 60
        E 480 80 3d 00
        E 0 80 48 00
        E 0 80 4a 00
        E 360 80 55 00
        E 0 80 56 00
        E 0 80 61 00
        E 0 80 62 00
        E 1 80 34 00
        E 119 90 3b 60
        E 0 90 3c 60
        E 0 90 48 60
        E 0 90 54 60
        E 0 90 60 60
        E 120 80 74 00
        E 0 80 3c 00
        E 0 80 48 00
        E 0 80 54 00
        E 0 80 60 00
        E 120 90 56 60
        E 0 90 57 60
        E 0 90 62 60
        E 0 90 63 60
        E 120 80 56 00
        E 0 80 57 00
        E 0 80 62 00
        E 0 80 63 00
        E 360 90 56 60
        E 0 90 57 60
        E 0 90 62 60
        E 0 90 63 60
        E 120 80 56 00
        E 0 80 57 00
        E 0 80 62 00
        E 0 80 63 00
        E 1 80 3b 00
        E 119 90 38 60
        E 0 90 3d 60
        E 0 90 49 60
        E 0 90 55 60
        E 0 90 61 60
        E 120 80 3d 00
        E 0 80 49 00
        E 0 80 55 00
        E 0 80 61 00
        E 120 90 56 60
        E 0 90 58 60
        E 0 90 62 60
        E 0 90 64 60
        E 480 80 56 00
        E 0 80 58 00
        E 0 80 62 00
        E 0 80 64 00
        E 121 80 38 00
        E 119 90 31 60
        E 0 90 3c 60
        E 0 90 48 60
        E 0 90 49 60
        E 0 90 54 60
        E 0 90 56 60
        E 0 90 60 60
        E 0 90 62 60
        E 480 80 3c 00
        E 0 80 48 00
        E 0 80 49 00
        E 360 80 54 00
        E 0 80 56 00
        E 0 80 60 00
        E 0 80 62 00
        E 1 80 31 00
        E 119 90 34 60
        E 0 90 3d 60
        E 0 90 48 60
        E 0 90 4a 60
        E 0 90 55 60
        E 0 90 56 60
        E 0 90 61 60
        E 0 90 62 60
        E 480 80 3d 00
        E 0 80 48 00
        E 0 80 4a 00
        E 360 80 55 00
        E 0 80 56 00
        E 0 80 61 00
        E 0 80 62 00
        E 1 80 34 00
        E 119 90 3b 60
        E 0 90 3c 60
        E 0 90 48 60
        E 0 90 54 60
        E 0 90 60 60
        E 120 80 3c 00
        E 0 80 48 00
        E 0 80 54 00
        E 0 80 60 00
        E 120 90 56 60
        E 0 90 57 60
        E 0 90 62 60
        E 0 90 63 60
        E 120 80 56 00
        E 0 80 57 00
        E 0 80 62 00
        E 0 80 63 00
        E 360 90 56 60
        E 0 90 57 60
        E 0 90 62 60
        E 0 90 63 60
        E 120 80 56 00
        E 0 80 57 00
        E 0 80 62 00
        E 0 80 63 00
        E 1 80 3b 00
        E 119 90 38 60
        E 0 90 3d 60
        E 0 90 49 60
        E 0 90 55 60
        E 0 90 61 60
        E 120 80 3d 00
        E 0 80 49 00
        E 0 80 55 00
        E 0 80 61 00
        E 120 90 56 60
        E 0 90 58 60
        E 0 90 62 60
        E 0 90 64 60
        E 480 80 56 00
        E 0 80 58 00
        E 0 80 62 00
        E 0 80 64 00
        E 121 80 38 00
        E 119 90 31 60
        E 0 90 3c 60
        E 0 90 48 60
        E 0 90 49 60
        E 0 90 54 60
        E 0 90 56 60
        E 0 90 60 60
        E 0 90 62 60
        E 480 80 3c 00
        E 0 80 48 00
        E 0 80 49 00
        E 360 80 54 00
        E 0 80 56 00
        E 0 80 60 00
        E 0 80 62 00
        E 1 80 31 00
        E 119 90 34 60
        E 0 90 3d 60
        E 0 90 48 60
        E 0 90 4a 60
        E 0 90 55 60
        E 0 90 56 60
        E 0 90 61 60
        E 0 90 62 60
        E 480 80 3d 00
        E 0 80 48 00
        E 0 80 4a 00
        E 360 80 55 00
        E 0 80 56 00
        E 0 80 61 00
        E 0 80 62 00
        E 1 80 34 00
        E 119 90 3b 60
        E 0 90 3c 60
        E 0 90 48 60
        E 0 90 54 60
        E 0 90 60 60
        E 120 80 3c 00
        E 0 80 48 00
        E 0 80 54 00
        E 0 80 60 00
        E 120 90 56 60
        E 0 90 57 60
        E 0 90 62 60
        E 0 90 63 60
        E 120 80 56 00
        E 0 80 57 00
        E 0 80 62 00
        E 0 80 63 00
        E 360 90 56 60
        E 0 90 57 60
        E 0 90 62 60
        E 0 90 63 60
        E 120 80 56 00
        E 0 80 57 00
        E 0 80 62 00
        E 0 80 63 00
        E 1 80 3b 00
        E 119 90 38 60
        E 0 90 3d 60
        E 0 90 49 60
        E 0 90 55 60
        E 0 90 61 60
        E 120 80 3d 00
        E 0 80 49 00
        E 0 80 55 00
        E 0 80 61 00
        E 120 90 56 60
        E 0 90 58 60
        E 0 90 62 60
        E 0 90 64 60
        E 120 80 56 00
        E 0 80 58 00
        E 0 80 62 00
        E 0 80 64 00
        E 360 90 56 60
        E 0 90 58 60
        E 0 90 62 60
        E 0 90 64 60
        E 120 80 56 00
        E 0 80 58 00
        E 0 80 62 00
        E 0 80 64 00
        E 1 80 38 00
        E 119 90 31 60
        E 0 90 3c 60
        E 0 90 48 60
        E 0 90 49 60
        E 0 90 54 60
        E 0 90 56 60
        E 0 90 60 60
        E 0 90 62 60
        E 480 80 3c 00
        E 0 80 48 00
        E 0 80 49 00
        E 360 80 54 00
        E 0 80 56 00
        E 0 80 60 00
        E 0 80 62 00
        E 1 80 31 00
        E 119 90 34 60
        E 0 90 3d 60
        E 0 90 48 60
        E 0 90 4a 60
        E 0 90 55 60
        E 0 90 56 60
        E 0 90 61 60
        E 0 90 62 60
        E 480 80 3d 00
        E 0 80 48 00
        E 0 80 4a 00
        E 360 80 55 00
        E 0 80 56 00
        E 0 80 61 00
        E 0 80 62 00
        E 1 80 34 00
        E 119 90 34 60
        E 0 90 3d 60
        E 0 90 49 60
        E 0 90 55 60
        E 0 90 61 60
        E 120 80 3d 00
        E 0 80 49 00
        E 0 80 55 00
        E 0 80 61 00
        E 120 90 56 60
        E 0 90 57 60
        E 0 90 62 60
        E 0 90 63 60
        E 120 80 56 00
        E 0 80 57 00
        E 0 80 62 00
        E 0 80 63 00
        E 360 90 49 60
        E 0 90 4b 60
        E 0 90 56 60
        E 0 90 57 60
        E 0 90 62 60
        E 0 90 63 60
        E 120 80 49 00
        E 0 80 4b 00
        E 0 80 56 00
        E 0 80 57 00
        E 0 80 62 00
        E 0 80 63 00
        E 360 90 49 60
        E 0 90 4b 60
        E 0 90 56 60
        E 0 90 57 60
        E 0 90 62 60
        E 0 90 63 60
        E 120 80 49 00
        E 0 80 4b 00
        E 0 80 56 00
        E 0 80 57 00
        E 0 80 62 00
        E 0 80 63 00
        E 241 80 34 00
        E 119 90 38 60
        E 0 90 57 60
        E 0 90 58 60
        E 0 90 63 60
        E 0 90 64 60
        E 120 80 57 00
        E 0 80 58 00
        E 0 80 63 00
        E 0 80 64 00
        E 120 90 3e 60
        E 0 90 4a 60
        E 0 90 56 60
        E 0 90 62 60
        E 120 80 3e 00
        E 0 80 4a 00
        E 0 80 56 00
        E 0 80 62 00
        E 1 80 38 00
        E 119 90 34 60
        E 0 90 55 60
        E 0 90 58 60
        E 0 90 61 60
        E 0 90 64 60
        E 120 80 55 00
        E 0 80 58 00
        E 0 80 61 00
        E 0 80 64 00
        E 241 80 34 00
        E 119 90 31 60
        E 0 90 56 60
        E 0 90 57 60
        E 0 90 62 60
        E 0 90 63 60
        E 120 80 56 00
        E 0 80 57 00
        E 0 80 62 00
        E 0 80 63 00
        E 120 90 3d 60
        E 0 90 49 60
        E 0 90 55 60
        E 0 90 61 60
        E 120 80 3d 00
        E 0 80 49 00
        E 0 80 55 00
        E 0 80 61 00
        E 120 90 56 60
        E 0 90 57 60
        E 0 90 62 60
        E 0 90 63 60
        E 120 80 56 00
        E 0 80 57 00
        E 0 80 62 00
        E 0 80 63 00
        E 241 80 31 00
        E 119 90 2d 60
        E 0 90 55 60
        E 0 90 57 60
        E 0 90 61 60
        E 0 90 63 60
        E 120 80 55 00
        E 0 80 57 00
        E 0 80 61 00
        E 0 80 63 00
        E 120 90 3c 60
        E 0 90 48 60
        E 0 90 54 60
        E 0 90 60 60
        E 120 80 3c 00
        E 0 80 48 00
        E 0 80 54 00
        E 0 80 60 00
        E 120 90 55 60
        E 0 90 57 60
        E 0 90 61 60
        E 0 90 63 60
        E 600 80 55 00
        E 0 80 57 00
        E 0 80 61 00
        E 0 80 63 00
        E 1 80 2d 00
        E 119 90 34 60
        E 0 90 3d 60
        E 0 90 49 60
        E 0 90 55 60
        E 0 90 61 60
        E 120 80 3d 00
        E 0 80 49 00
        E 0 80 55 00
        E 0 80 61 00
        E 120 90 56 60
        E 0 90 57 60
        E 0 90 62 60
        E 0 90 63 60
        E 120 80 56 00
        E 0 80 57 00
        E 0 80 62 00
        E 0 80 63 00
        E 360 90 49 60
        E 0 90 4b 60
        E 0 90 56 60
        E 0 90 57 60
        E 0 90 62 60
        E 0 90 63 60
        E 120 80 49 00
        E 0 80 4b 00
        E 0 80 56 00
        E 0 80 57 00
        E 0 80 62 00
        E 0 80 63 00
        E 360 90 49 60
        E 0 90 4b 60
        E 0 90 56 60
        E 0 90 57 60
        E 0 90 62 60
        E 0 90 63 60
        E 120 80 49 00
        E 0 80 4b 00
        E 0 80 56 00
        E 0 80 57 00
        E 0 80 62 00
        E 0 80 63 00
        E 241 80 34 00
        E 119 90 38 60
        E 0 90 57 60
        E 0 90 58 60
        E 0 90 63 60
        E 0 90 64 60
        E 0 90 74 60
        E 120 80 57 00
        E 0 80 58 00
        E 0 80 63 00
        E 0 80 64 00
        E 120 90 3e 60
        E 0 90 4a 60
        E 0 90 56 60
        E 0 90 62 60
        E 120 80 3e 00
        E 0 80 4a 00
        E 0 80 56 00
        E 0 80 62 00
        E 1 80 38 00
        E 119 90 34 60
        E 0 90 55 60
        E 0 90 58 60
        E 0 90 61 60
        E 0 90 64 60
        E 120 80 55 00
        E 0 80 58 00
        E 0 80 61 00
        E 0 80 64 00
        E 241 80 34 00
        E 119 90 31 60
        E 0 90 56 60
        E 0 90 57 60
        E 0 90 62 60
        E 0 90 63 60
        E 120 80 74 00
        E 0 80 56 00
        E 0 80 57 00
        E 0 80 62 00
        E 0 80 63 00
        E 120 90 3d 60
        E 0 90 49 60
        E 0 90 55 60
        E 0 90 61 60
        E 120 80 3d 00
        E 0 80 49 00
        E 0 80 55 00
        E 0 80 61 00
        E 120 90 56 60
        E 0 90 57 60
        E 0 90 62 60
        E 0 90 63 60
        E 120 80 56 00
        E 0 80 57 00
        E 0 80 62 00
        E 0 80 63 00
        E 241 80 31 00
        E 119 90 2d 60
        E 0 90 55 60
        E 0 90 57 60
        E 0 90 61 60
        E 0 90 63 60
        E 120 80 55 00
        E 0 80 57 00
        E 0 80 61 00
        E 0 80 63 00
        E 120 90 3c 60
        E 0 90 48 60
        E 0 90 54 60
        E 0 90 60 60
        E 120 80 3c 00
        E 0 80 48 00
        E 0 80 54 00
        E 0 80 60 00
        E 120 90 55 60
        E 0 90 57 60
        E 0 90 61 60
        E 0 90 63 60
        E 600 80 55 00
        E 0 80 57 00
        E 0 80 61 00
        E 0 80 63 00
        E 1 80 2d 00
        E 119 90 34 60
        E 0 90 3d 60
        E 0 90 49 60
        E 0 90 55 60
        E 0 90 61 60
        E 120 80 3d 00
        E 0 80 49 00
        E 0 80 55 00
        E 0 80 61 00
        E 120 90 56 60
        E 0 90 57 60
        E 0 90 62 60
        E 0 90 63 60
        E 120 80 56 00
        E 0 80 57 00
        E 0 80 62 00
        E 0 80 63 00
        E 360 90 49 60
        E 0 90 4b 60
        E 0 90 56 60
        E 0 90 57 60
        E 0 90 62 60
        E 0 90 63 60
        E 120 80 49 00
        E 0 80 4b 00
        E 0 80 56 00
        E 0 80 57 00
        E 0 80 62 00
        E 0 80 63 00
        E 360 90 49 60
        E 0 90 4b 60
        E 0 90 56 60
        E 0 90 57 60
        E 0 90 62 60
        E 0 90 63 60
        E 120 80 49 00
        E 0 80 4b 00
        E 0 80 56 00
        E 0 80 57 00
        E 0 80 62 00
        E 0 80 63 00
        E 241 80 34 00
        E 119 90 38 60
        E 0 90 57 60
        E 0 90 58 60
        E 0 90 63 60
        E 0 90 64 60
        E 120 80 57 00
        E 0 80 58 00
        E 0 80 63 00
        E 0 80 64 00
        E 120 90 3e 60
        E 0 90 4a 60
        E 0 90 56 60
        E 0 90 62 60
        E 120 80 3e 00
        E 0 80 4a 00
        E 0 80 56 00
        E 0 80 62 00
        E 1 80 38 00
        E 119 90 34 60
        E 0 90 55 60
        E 0 90 58 60
        E 0 90 61 60
        E 0 90 64 60
        E 120 80 55 00
        E 0 80 58 00
        E 0 80 61 00
        E 0 80 64 00
        E 241 80 34 00
        E 119 90 31 60
        E 0 90 56 60
        E 0 90 57 60
        E 0 90 62 60
        E 0 90 63 60
        E 120 80 56 00
        E 0 80 57 00
        E 0 80 62 00
        E 0 80 63 00
        E 120 90 3d 60
        E 0 90 49 60
        E 0 90 55 60
        E 0 90 61 60
        E 120 80 3d 00
        E 0 80 49 00
        E 0 80 55 00
        E 0 80 61 00
        E 120 90 56 60
        E 0 90 57 60
        E 0 90 62 60
        E 0 90 63 60
        E 120 80 56 00
        E 0 80 57 00
        E 0 80 62 00
        E 0 80 63 00
        E 241 80 31 00
        E 119 90 2d 60
        E 0 90 55 60
        E 0 90 57 60
        E 0 90 61 60
        E 0 90 63 60
        E 120 80 55 00
        E 0 80 57 00
        E 0 80 61 00
        E 0 80 63 00
        E 120 90 3c 60
        E 0 90 48 60
        E 0 90 54 60
        E 0 90 60 60
        E 120 80 3c 00
        E 0 80 48 00
        E 0 80 54 00
        E 0 80 60 00
        E 120 90 55 60
        E 0 90 57 60
        E 0 90 61 60
        E 0 90 63 60
        E 600 80 55 00
        E 0 80 57 00
        E 0 80 61 00
        E 0 80 63 00
        E 1 80 2d 00
        E 119 90 34 60
        E 0 90 3d 60
        E 0 90 49 60
        E 0 90 55 60
        E 0 90 61 60
        E 120 80 3d 00
        E 0 80 49 00
        E 0 80 55 00
        E 0 80 61 00
        E 120 90 56 60
        E 0 90 57 60
        E 0 90 62 60
        E 0 90 63 60
        E 120 80 56 00
        E 0 80 57 00
        E 0 80 62 00
        E 0 80 63 00
        E 360 90 49 60
        E 0 90 4b 60
        E 0 90 56 60
        E 0 90 57 60
        E 0 90 62 60
        E 0 90 63 60
        E 120 80 49 00
        E 0 80 4b 00
        E 0 80 56 00
        E 0 80 57 00
        E 0 80 62 00
        E 0 80 63 00
        E 360 90 49 60
        E 0 90 4b 60
        E 0 90 56 60
        E 0 90 57 60
        E 0 90 62 60
        E 0 90 63 60
        E 120 80 49 00
        E 0 80 4b 00
        E 0 80 56 00
        E 0 80 57 00
        E 0 80 62 00
        E 0 80 63 00
        E 360 90 56 60
        E 0 90 57 60
        E 0 90 62 60
        E 0 90 63 60
        E 120 80 56 00
        E 0 80 57 00
        E 0 80 62 00
        E 0 80 63 00
        E 1 80 34 00
        E 119 90 2d 60
        E 0 90 3c 60
        E 0 90 48 60
        E 0 90 54 60
        E 0 90 60 60
        E 0 90 74 60
        E 120 80 3c 00
        E 0 80 48 00
        E 0 80 54 00
        E 0 80 60 00
        E 120 90 55 60
        E 0 90 56 60
        E 0 90 61 60
        E 0 90 62 60
        E 600 80 55 00
        E 0 80 56 00
        E 0 80 61 00
        E 0 80 62 00
        E 1 80 2d 00
        E 119 90 31 60
        E 0 90 3c 60
        E 0 90 48 60
        E 0 90 49 60
        E 0 90 54 60
        E 0 90 56 60
        E 0 90 60 60
        E 0 90 62 60
        E 480 80 3c 00
        E 0 80 48 00
        E 0 80 49 00
        E 360 80 54 00
        E 0 80 56 00
        E 0 80 60 00
        E 0 80 62 00
        E 1 80 31 00
        E 119 90 34 60
        E 0 90 3d 60
        E 0 90 49 60
        E 0 90 55 60
        E 0 90 61 60
        E 120 80 3d 00
        E 0 80 49 00
        E 0 80 55 00
        E 0 80 61 00
        E 120 90 56 60
        E 0 90 62 60
        E 120 80 56 00
        E 0 80 62 00
        E 120 90 3d 60
        E 0 90 49 60
        E 0 90 55 60
        E 0 90 61 60
        E 120 80 3d 00
        E 0 80 49 00
        E 0 80 55 00
        E 0 80 61 00
        E 120 90 56 60
        E 0 90 62 60
        E 120 80 56 00
        E 0 80 62 00
        E 120 90 3d 60
        E 0 90 49 60
        E 0 90 55 60
        E 0 90 61 60
        E 120 80 3d 00
        E 0 80 49 00
        E 0 80 55 00
        E 0 80 61 00
        E 120 90 56 60
        E 0 90 62 60
        E 120 80 56 00
        E 0 80 62 00
        E 120 90 49 60
        E 0 90 55 60
        E 0 90 61 60
        E 120 80 49 00
        E 0 80 55 00
        E 0 80 61 00
        E 120 90 56 60
        E 0 90 62 60
        E 120 80 56 00
        E 0 80 62 00
        E 0 90 63 60
        E 0 90 65 60
        E 1 80 34 00
        E 119 80 63 00
        E 0 80 65 00
        E 0 90 38 60
        E 0 90 3f 60
        E 0 90 4a 60
        E 0 90 4b 60
        E 0 90 56 60
        E 0 90 58 60
        E 0 90 62 60
        E 0 90 64 60
        E 120 80 74 00
        E 360 80 3f 00
        E 0 80 4a 00
        E 0 80 4b 00
        E 360 80 56 00
        E 0 80 58 00
        E 0 80 62 00
        E 0 80 64 00
        E 1 80 38 00
        E 119 90 37 60
        E 0 90 3e 60
        E 0 90 49 60
        E 0 90 4a 60
        E 0 90 55 60
        E 0 90 57 60
        E 0 90 61 60
        E 0 90 63 60
        E 480 80 3e 00
        E 0 80 49 00
        E 0 80 4a 00
        E 360 80 55 00
        E 0 80 57 00
        E 0 80 61 00
        E 0 80 63 00
        E 1 80 37 00
        E 119 90 34 60
        E 0 90 3d 60
        E 0 90 48 60
        E 0 90 4a 60
        E 0 90 55 60
        E 0 90 56 60
        E 0 90 61 60
        E 0 90 62 60
        E 480 80 3d 00
        E 0 80 48 00
        E 0 80 4a 00
        E 360 80 55 00
        E 0 80 56 00
        E 0 80 61 00
        E 0 80 62 00
        E 1 80 34 00
        E 119 90 31 60
        E 0 90 3c 60
        E 0 90 48 60
        E 0 90 49 60
        E 0 90 54 60
        E 0 90 56 60
        E 0 90 60 60
        E 0 90 62 60
        E 480 80 3c 00
        E 0 80 48 00
        E 0 80 49 00
        E 360 80 54 00
        E 0 80 56 00
        E 0 80 60 00
        E 0 80 62 00
        E 1 80 31 00
        E 119 90 34 60
        E 0 90 3d 60
        E 0 90 48 60
        E 0 90 4a 60
        E 0 90 55 60
        E 0 90 56 60
        E 0 90 61 60
        E 0 90 62 60
        E 480 80 3d 00
        E 0 80 48 00
        E 0 80 4a 00
        E 360 80 55 00
        E 0 80 56 00
        E 0 80 61 00
        E 0 80 62 00
        E 1 80 34 00
        E 119 90 3b 60
        E 0 90 3c 60
        E 0 90 48 60
        E 0 90 54 60
        E 0 90 60 60
        E 120 80 3c 00
        E 0 80 48 00
        E 0 80 54 00
        E 0 80 60 00
        E 120 90 56 60
        E 0 90 57 60
        E 0 90 62 60
        E 0 90 63 60
        E 120 80 56 00
        E 0 80 57 00
        E 0 80 62 00
        E 0 80 63 00
        E 360 90 56 60
        E 0 90 57 60
        E 0 90 62 60
        E 0 90 63 60
        E 120 80 56 00
        E 0 80 57 00
        E 0 80 62 00
        E 0 80 63 00
        E 1 80 3b 00
        E 119 90 38 60
        E 0 90 3d 60
        E 0 90 49 60
        E 0 90 55 60
        E 0 90 61 60
        E 120 80 3d 00
        E 0 80 49 00
        E 0 80 55 00
        E 0 80 61 00
        E 120 90 56 60
        E 0 90 58 60
        E 0 90 62 60
        E 0 90 64 60
        E 480 80 56 00
        E 0 80 58 00
        E 0 80 62 00
        E 0 80 64 00
        E 121 80 38 00
        E 119 90 31 60
        E 0 90 3c 60
        E 0 90 48 60
        E 0 90 49 60
        E 0 90 54 60
        E 0 90 56 60
        E 0 90 60 60
        E 0 90 62 60
        E 480 80 3c 00
        E 0 80 48 00
        E 0 80 49 00
        E 360 80 54 00
        E 0 80 56 00
        E 0 80 60 00
        E 0 80 62 00
        E 1 80 31 00
        E 119 90 34 60
        E 0 90 3d 60
        E 0 90 48 60
        E 0 90 4a 60
        E 0 90 55 60
        E 0 90 56 60
        E 0 90 61 60
        E 0 90 62 60
        E 480 80 3d 00
        E 0 80 48 00
        E 0 80 4a 00
        E 360 80 55 00
        E 0 80 56 00
        E 0 80 61 00
        E 0 80 62 00
        E 1 80 34 00
        E 119 90 3b 60
        E 0 90 3c 60
        E 0 90 48 60
        E 0 90 54 60
        E 0 90 60 60
        E 120 80 3c 00
        E 0 80 48 00
        E 0 80 54 00
        E 0 80 60 00
        E 120 90 56 60
        E 0 90 57 60
        E 0 90 62 60
        E 0 90 63 60
        E 120 80 56 00
        E 0 80 57 00
        E 0 80 62 00
        E 0 80 63 00
        E 360 90 56 60
        E 0 90 57 60
        E 0 90 62 60
        E 0 90 63 60
        E 120 80 56 00
        E 0 80 57 00
        E 0 80 62 00
        E 0 80 63 00
        E 1 80 3b 00
        E 119 90 38 60
        E 0 90 3d 60
        E 0 90 49 60
        E 0 90 55 60
        E 0 90 61 60
        E 120 80 3d 00
        E 0 80 49 00
        E 0 80 55 00
        E 0 80 61 00
        E 120 90 56 60
        E 0 90 58 60
        E 0 90 62 60
        E 0 90 64 60
        E 480 80 56 00
        E 0 80 58 00
        E 0 80 62 00
        E 0 80 64 00
        E 121 80 38 00
        E 119 90 31 60
        E 0 90 3c 60
        E 0 90 48 60
        E 0 90 49 60
        E 0 90 54 60
        E 0 90 56 60
        E 0 90 60 60
        E 0 90 62 60
        E 480 80 3c 00
        E 0 80 48 00
        E 0 80 49 00
        E 360 80 54 00
        E 0 80 56 00
        E 0 80 60 00
        E 0 80 62 00
        E 1 80 31 00
        E 119 90 34 60
        E 0 90 3d 60
        E 0 90 48 60
        E 0 90 4a 60
        E 0 90 55 60
        E 0 90 56 60
        E 0 90 61 60
        E 0 90 62 60
        E 480 80 3d 00
        E 0 80 48 00
        E 0 80 4a 00
        E 360 80 55 00
        E 0 80 56 00
        E 0 80 61 00
        E 0 80 62 00
        E 1 80 34 00
        E 119 90 3b 60
        E 0 90 3c 60
        E 0 90 48 60
        E 0 90 54 60
        E 0 90 60 60
        E 120 80 3c 00
        E 0 80 48 00
        E 0 80 54 00
        E 0 80 60 00
        E 120 90 56 60
        E 0 90 57 60
        E 0 90 62 60
        E 0 90 63 60
        E 120 80 56 00
        E 0 80 57 00
        E 0 80 62 00
        E 0 80 63 00
        E 360 90 56 60
        E 0 90 57 60
        E 0 90 62 60
        E 0 90 63 60
        E 120 80 56 00
        E 0 80 57 00
        E 0 80 62 00
        E 0 80 63 00
        E 1 80 3b 00
        E 119 90 38 60
        E 0 90 3d 60
        E 0 90 49 60
        E 0 90 55 60
        E 0 90 61 60
        E 120 80 3d 00
        E 0 80 49 00
        E 0 80 55 00
        E 0 80 61 00
        E 120 90 56 60
        E 0 90 58 60
        E 0 90 62 60
        E 0 90 64 60
        E 120 80 56 00
        E 0 80 58 00
        E 0 80 62 00
        E 0 80 64 00
        E 360 90 56 60
        E 0 90 58 60
        E 0 90 62 60
        E 0 90 64 60
        E 120 80 56 00
        E 0 80 58 00
        E 0 80 62 00
        E 0 80 64 00
        E 1 80 38 00
        E 119 90 31 60
        E 0 90 3c 60
        E 0 90 48 60
        E 0 90 49 60
        E 0 90 54 60
        E 0 90 56 60
        E 0 90 60 60
        E 0 90 62 60
        E 480 80 3c 00
        E 0 80 48 00
        E 0 80 49 00
        E 360 80 54 00
        E 0 80 56 00
        E 0 80 60 00
        E 0 80 62 00
        E 1 80 31 00
        E 119 90 34 60
        E 0 90 3d 60
        E 0 90 48 60
        E 0 90 4a 60
        E 0 90 55 60
        E 0 90 56 60
        E 0 90 61 60
        E 0 90 62 60
        E 480 80 3d 00
        E 0 80 48 00
        E 0 80 4a 00
        E 360 80 55 00
        E 0 80 56 00
        E 0 80 61 00
        E 0 80 62 00
        E 1 80 34 00
        E 119 90 3b 60
        E 0 90 40 60
        E 0 90 4b 60
        E 0 90 4c 60
        E 0 90 57 60
        E 0 90 58 60
        E 0 90 62 60
        E 0 90 63 60
        E 0 90 64 60
        E 3840 80 3b 00
        E 0 80 40 00
        E 0 80 4b 00
        E 0 80 4c 00
        E 0 80 57 00
        E 0 80 58 00
        E 0 80 62 00
        E 0 80 63 00
        E 0 80 64 00
        <X 479 0
          /wFbaWRsZV9yZWFsdGltZV0=
        >
        E 3360 b0 7b 00
        GUID {489F442F-570C-42DA-87BD-E9AC05D32B13}
        IGNTEMPO 0 120.00000000 4 4
        SRCCOLOR 4
        VELLANE 132 128 60
        COLORMAP "C:\Program Files\REAPER (x64)\Data\color_maps\rockband_guitarbass.png"
        CFGEDITVIEW -967.111675 69.848485 0 12 0 0 0
        CFGEDIT 1 1 0 1 1 0 1 1 1 1 1 0.25000000 -8 -8 1544 872 0 2 1 1 0.00000000 0 1 0 0 0.500000 0 0 1.000000 64
        KEYSNAP 0 6 "102030050700" 0 "Pentatonic"
        EVTFILTER 0 -1 -1 -1 -1 0 1 0 0 -1.00000000 -1.00000000
      >
    >
  >
  <TRACK '{73BAD949-3C4D-403B-BF95-6FB4203A0347}'
    NAME "PART VOCALS"
    PEAKCOL 16576
    BEAT -1
    AUTOMODE 0
    VOLPAN 1.00000000000000 0.00000000000000 -1.00000000000000 -1.00000000000000 1.00000000000000
    MUTESOLO 0 0 0
    IPHASE 0
    ISBUS 0 0
    BUSCOMP 0 0
    SHOWINMIX 1 0.666700 0.500000 1 0.500000 -1 -1 -1
    FREEMODE 0
    SEL 0
    REC 0 0 0 0 0 0 0
    VU 2
    TRACKHEIGHT 0 0
    INQ 0 0 0 0.5000000000 100 0 0 100
    NCHAN 2
    FX 1
    TRACKID {73BAD949-3C4D-403B-BF95-6FB4203A0347}
    PERF 0
    MIDIOUT -1
    <MIDINOTENAMES
      0 116 "OVERDRIVE"
      0 115 "----"
      0 105 "Phrase Marker"
      0 104 "----"
      0 97 "Non-Displayed Percussion"
      0 96 "Displayed Percussion"
      0 95 "----"
      0 84 "C6 (Unused Highest Note)"
      0 83 "B5"
      0 82 "A#4"
      0 81 "A4"
      0 80 "G#4"
      0 79 "G4"
      0 78 "F#4"
      0 77 "F4"
      0 76 "E4"
      0 75 "D#4"
      0 74 "D4"
      0 73 "C#4"
      0 72 "C4"
      0 71 "B3"
      0 70 "A#3"
      0 69 "A3"
      0 68 "G#3"
      0 67 "G3"
      0 66 "F#3"
      0 65 "F3"
      0 64 "E3"
      0 63 "D#3"
      0 62 "D3"
      0 61 "C#3"
      0 60 "C3"
      0 59 "B2"
      0 58 "A#2"
      0 57 "A2"
      0 56 "G#2"
      0 55 "G2"
      0 54 "F#2"
      0 53 "F2"
      0 52 "E2"
      0 51 "D#2"
      0 50 "D2"
      0 49 "C#2"
      0 48 "C2"
      0 47 "B1"
      0 46 "A#1"
      0 45 "A1"
      0 44 "G#1"
      0 43 "G1"
      0 42 "F#1"
      0 41 "F1"
      0 40 "E1"
      0 39 "D#1"
      0 38 "D1"
      0 37 "C#1"
      0 36 "Lowest Note C1"
      0 2 "---"
      0 1 "Lyric Shift"
      0 0 "Range Shift"
    >
    MAINSEND 1 0
    <FXCHAIN
      SHOW 0
      LASTSEL 0
      DOCKED 0
    >
    <ITEM
      POSITION 0.00000000000000
      SNAPOFFS 0.00000000000000
      LENGTH 128.64099999999999
      LOOP 0
      ALLTAKES 0
      SEL 0
      FADEIN 1 0.000000 0.000000 1 0
      FADEOUT 1 0.000000 0.000000 1 0
      MUTE 0
      IGUID {2706D880-D692-462D-876A-FF71E7E164EB}
      IID 6
      NAME "PART VOCALS"
      VOLPAN 1.000000 0.000000 1.000000 -1.000000
      SOFFS 0.00000000000000 0.00000000000000
      PLAYRATE 1.00000000000000 1 0.00000000000000 -1
      CHANMODE 0
      GUID {F325D165-744C-426B-9FDF-18A1BCD417D9}
      <SOURCE MIDI
        HASDATA 1 480 QN
        POOLEDEVTS {437D1AC8-E5CE-4B96-9D7B-E2CFA68AB024}
        <X 0 0
          /wNQQVJUIFZPQ0FMUw==
        >
        <X 3840 0
          /wFbcGxheV0=
        >
        E 480 90 69 60
        <X 480 0
          /wVXaGVu
        >
        E 0 90 3d 60
        E 180 80 3d 00
        <X 60 0
          /wVteQ==
        >
        E 0 90 40 60
        E 210 80 40 00
        <X 270 0
          /wVzb3Vs
        >
        E 0 90 42 60
        E 270 80 42 00
        <X 210 0
          /wVzdGFydHM=
        >
        E 0 90 40 60
        E 210 80 40 00
        <X 270 0
          /wVncm93LQ==
        >
        E 0 90 3d 60
        E 870 80 3d 00
        <X 90 0
          /wVpbmc=
        >
        E 0 90 3b 60
        E 990 80 3b 00
        E 210 80 69 00
        E 480 90 69 60
        <X 480 0
          /wVXaGVu
        >
        E 0 90 3d 60
        E 180 80 3d 00
        <X 60 0
          /wVteQ==
        >
        E 0 90 40 60
        E 210 80 40 00
        <X 270 0
          /wVzb3Vs
        >
        E 0 90 42 60
        E 270 80 42 00
        <X 210 0
          /wVzdGFydHM=
        >
        E 0 90 40 60
        E 210 80 40 00
        <X 270 0
          /wVncm93LQ==
        >
        E 0 90 3d 60
        E 870 80 3d 00
        <X 90 0
          /wVpbmc=
        >
        E 0 90 3b 60
        E 990 80 3b 00
        E 210 80 69 00
        E 480 90 69 60
        <X 480 0
          /wVXaGVu
        >
        E 0 90 3d 60
        E 180 80 3d 00
        <X 60 0
          /wVteQ==
        >
        E 0 90 40 60
        E 210 80 40 00
        <X 270 0
          /wVzb3Vs
        >
        E 0 90 42 60
        E 270 80 42 00
        <X 210 0
          /wVzdGFydHM=
        >
        E 0 90 40 60
        E 210 80 40 00
        <X 270 0
          /wVncm93LQ==
        >
        E 0 90 3d 60
        E 870 80 3d 00
        <X 90 0
          /wVpbmc=
        >
        E 0 90 3b 60
        E 900 80 3b 00
        <X 60 0
          /wUr
        >
        E 0 90 39 60
        E 540 80 39 00
        E 30 80 69 00
        E 150 90 69 60
        E 0 90 74 60
        <X 240 0
          /wVJ
        >
        E 0 90 3e 60
        E 150 80 3e 00
        <X 90 0
          /wVnZXQ=
        >
        E 0 90 3e 60
        E 120 80 3e 00
        <X 180 0
          /wVzbw==
        >
        E 0 90 3e 60
        E 240 80 3e 00
        <X 60 0
          /wUr
        >
        E 0 90 3d 60
        E 240 80 3d 00
        <X 120 0
          /wVodW4t
        >
        E 0 90 3b 60
        E 660 80 3b 00
        <X 60 0
          /wUr
        >
        E 0 90 39 60
        E 90 80 39 00
        <X 150 0
          /wVncnk=
        >
        E 0 90 39 60
        E 870 80 39 00
        <X 90 0
          /wUr
        >
        E 0 90 3b 60
        E 450 80 3b 00
        E 30 80 69 00
        E 0 80 74 00
        E 450 90 69 60
        <X 30 0
          /wVBbmQ=
        >
        E 0 90 3b 60
        E 900 80 3b 00
        <X 60 0
          /wUr
        >
        E 0 90 39 60
        E 870 80 39 00
        <X 90 0
          /wUr
        >
        E 0 90 38 60
        E 600 80 38 00
        <X 120 0
          /wVJ
        >
        E 0 90 38 60
        E 150 80 38 00
        <X 90 0
          /wV3aXNo
        >
        E 0 90 36 60
        E 240 80 36 00
        <X 210 0
          /wVpdA==
        >
        E 0 90 36 60
        E 300 80 36 00
        <X 210 0
          /wVuZXYt
        >
        E 0 90 38 60
        E 360 80 38 00
        <X 120 0
          /wVlcg==
        >
        E 0 90 38 60
        E 300 80 38 00
        E 30 80 69 00
        E 120 90 69 60
        <X 30 0
          /wVOZXYt
        >
        E 0 90 39 60
        E 330 80 39 00
        <X 150 0
          /wVlcg==
        >
        E 0 90 39 60
        E 360 80 39 00
        <X 120 0
          /wV3b3VsZA==
        >
        E 0 90 37 60
        E 540 80 37 00
        <X 420 0
          /wVuZXYt
        >
        E 0 90 36 60
        E 420 80 36 00
        <X 60 0
          /wVlcg==
        >
        E 0 90 36 60
        E 300 80 36 00
        <X 180 0
          /wV3b3VsZA==
        >
        E 0 90 38 60
        E 660 80 38 00
        E 30 80 69 00
        E 240 90 69 60
        <X 30 0
          /wVOZXYt
        >
        E 0 90 39 60
        E 360 80 39 00
        <X 120 0
          /wVlcg==
        >
        E 0 90 39 60
        E 300 80 39 00
        <X 180 0
          /wV3b3VsZA==
        >
        E 0 90 37 60
        E 480 80 37 00
        <X 480 0
          /wVuZXYt
        >
        E 0 90 36 60
        E 390 80 36 00
        <X 90 0
          /wVlcg==
        >
        E 0 90 36 60
        E 300 80 36 00
        <X 180 0
          /wV3b3VsZA==
        >
        E 0 90 38 60
        E 660 80 38 00
        E 30 80 69 00
        E 240 90 69 60
        E 0 90 74 60
        <X 30 0
          /wVOZXYt
        >
        E 0 90 39 60
        E 390 80 39 00
        <X 90 0
          /wVlcg==
        >
        E 0 90 39 60
        E 300 80 39 00
        <X 180 0
          /wV3b3VsZA==
        >
        E 0 90 37 60
        E 570 80 37 00
        <X 390 0
          /wVuZXYt
        >
        E 0 90 36 60
        E 390 80 36 00
        <X 90 0
          /wVlcg==
        >
        E 0 90 36 60
        E 300 80 36 00
        <X 180 0
          /wV3b3VsZA==
        >
        E 0 90 38 60
        E 300 80 38 00
        <X 180 0
          /wVzdG9w
        >
        E 0 90 38 60
        E 240 80 38 00
        <X 240 0
          /wVncm93LQ==
        >
        E 0 90 39 60
        E 330 80 39 00
        <X 150 0
          /wVpbmc=
        >
        E 0 90 39 60
        E 180 80 39 00
        E 30 80 69 00
        E 0 80 74 00
        E 240 90 69 60
        <X 30 0
          /wVXaGVu
        >
        E 0 90 3d 60
        E 180 80 3d 00
        <X 60 0
          /wVteQ==
        >
        E 0 90 40 60
        E 210 80 40 00
        <X 270 0
          /wVzb3Vs
        >
        E 0 90 42 60
        E 270 80 42 00
        <X 210 0
          /wVzdGFydHM=
        >
        E 0 90 40 60
        E 210 80 40 00
        <X 270 0
          /wVncm93LQ==
        >
        E 0 90 3d 60
        E 840 80 3d 00
        <X 120 0
          /wVpbmc=
        >
        E 0 90 3b 60
        E 840 80 3b 00
        E 360 80 69 00
        E 480 90 69 60
        <X 480 0
          /wVXaGVu
        >
        E 0 90 3d 60
        E 180 80 3d 00
        <X 60 0
          /wVteQ==
        >
        E 0 90 40 60
        E 210 80 40 00
        <X 270 0
          /wVzb3Vs
        >
        E 0 90 40 60
        E 60 80 40 00
        <X 30 0
          /wUr
        >
        E 0 90 42 60
        E 180 80 42 00
        <X 210 0
          /wVzdGFydHM=
        >
        E 0 90 40 60
        E 210 80 40 00
        <X 270 0
          /wVncm93LQ==
        >
        E 0 90 3d 60
        E 870 80 3d 00
        <X 90 0
          /wVpbmc=
        >
        E 0 90 3b 60
        E 840 80 3b 00
        E 360 80 69 00
        E 480 90 69 60
        E 0 90 74 60
        <X 480 0
          /wVXaGVu
        >
        E 0 90 3d 60
        E 180 80 3d 00
        <X 60 0
          /wVteQ==
        >
        E 0 90 40 60
        E 210 80 40 00
        <X 270 0
          /wVzb3Vs
        >
        E 0 90 42 60
        E 270 80 42 00
        <X 210 0
          /wVzdGFydHM=
        >
        E 0 90 40 60
        E 210 80 40 00
        <X 270 0
          /wVncm93LQ==
        >
        E 0 90 3d 60
        E 870 80 3d 00
        <X 90 0
          /wVpbmc=
        >
        E 0 90 3b 60
        E 900 80 3b 00
        <X 60 0
          /wUr
        >
        E 0 90 39 60
        E 540 80 39 00
        E 30 80 69 00
        E 0 80 74 00
        E 150 90 69 60
        <X 240 0
          /wVJ
        >
        E 0 90 3e 60
        E 150 80 3e 00
        <X 90 0
          /wVjYW4ndA==
        >
        E 0 90 3e 60
        E 120 80 3e 00
        <X 180 0
          /wVmZWVs
        >
        E 0 90 3e 60
        E 240 80 3e 00
        <X 120 0
          /wVzbw==
        >
        E 0 90 3d 60
        E 180 80 3d 00
        <X 120 0
          /wVmdWxs
        >
        E 0 90 3b 60
        E 870 80 3b 00
        <X 90 0
          /wUr
        >
        E 0 90 39 60
        E 870 80 39 00
        <X 90 0
          /wUr
        >
        E 0 90 3b 60
        E 450 80 3b 00
        E 30 80 69 00
        E 450 90 69 60
        <X 30 0
          /wVBbmQ=
        >
        E 0 90 3b 60
        E 900 80 3b 00
        <X 60 0
          /wUr
        >
        E 0 90 39 60
        E 870 80 39 00
        <X 90 0
          /wUr
        >
        E 0 90 38 60
        E 600 80 38 00
        <X 90 0
          /wVJ
        >
        E 0 90 38 60
        E 150 80 38 00
        <X 120 0
          /wV3aXNo
        >
        E 0 90 36 60
        E 240 80 36 00
        <X 240 0
          /wVpdA==
        >
        E 0 90 36 60
        E 300 80 36 00
        <X 180 0
          /wVuZXYt
        >
        E 0 90 38 60
        E 360 80 38 00
        <X 120 0
          /wVlcg==
        >
        E 0 90 38 60
        E 300 80 38 00
        E 30 80 69 00
        E 120 90 69 60
        E 0 90 74 60
        <X 30 0
          /wVOZXYt
        >
        E 0 90 39 60
        E 330 80 39 00
        <X 150 0
          /wVlcg==
        >
        E 0 90 39 60
        E 360 80 39 00
        <X 120 0
          /wV3b3VsZA==
        >
        E 0 90 37 60
        E 540 80 37 00
        <X 420 0
          /wVuZXYt
        >
        E 0 90 36 60
        E 420 80 36 00
        <X 60 0
          /wVlcg==
        >
        E 0 90 36 60
        E 300 80 36 00
        <X 180 0
          /wV3b3VsZA==
        >
        E 0 90 38 60
        E 660 80 38 00
        E 30 80 69 00
        E 0 80 74 00
        E 240 90 69 60
        <X 30 0
          /wVOZXYt
        >
        E 0 90 39 60
        E 360 80 39 00
        <X 120 0
          /wVlcg==
        >
        E 0 90 39 60
        E 300 80 39 00
        <X 180 0
          /wV3b3VsZA==
        >
        E 0 90 37 60
        E 600 80 37 00
        <X 360 0
          /wVuZXYt
        >
        E 0 90 36 60
        E 390 80 36 00
        <X 90 0
          /wVlcg==
        >
        E 0 90 36 60
        E 300 80 36 00
        <X 180 0
          /wV3b3VsZA==
        >
        E 0 90 38 60
        E 660 80 38 00
        E 30 80 69 00
        E 240 90 69 60
        <X 30 0
          /wVOZXYt
        >
        E 0 90 39 60
        E 390 80 39 00
        <X 90 0
          /wVlcg==
        >
        E 0 90 39 60
        E 300 80 39 00
        <X 180 0
          /wV3b3VsZA==
        >
        E 0 90 37 60
        E 600 80 37 00
        <X 360 0
          /wVuZXYt
        >
        E 0 90 36 60
        E 390 80 36 00
        <X 90 0
          /wVlcg==
        >
        E 0 90 36 60
        E 300 80 36 00
        <X 180 0
          /wV3b3VsZA==
        >
        E 0 90 38 60
        E 300 80 38 00
        <X 180 0
          /wVzdG9w
        >
        E 0 90 38 60
        E 270 80 38 00
        <X 210 0
          /wVncm93LQ==
        >
        E 0 90 39 60
        E 330 80 39 00
        <X 120 0
          /wVpbmc=
        >
        E 0 90 39 60
        E 180 80 39 00
        E 30 80 69 00
        E 270 90 69 60
        E 0 90 74 60
        <X 30 0
          /wVXaGVu
        >
        E 0 90 3d 60
        E 180 80 3d 00
        <X 60 0
          /wVteQ==
        >
        E 0 90 40 60
        E 210 80 40 00
        <X 270 0
          /wVzb3Vs
        >
        E 0 90 42 60
        E 270 80 42 00
        <X 210 0
          /wVzdGFydHM=
        >
        E 0 90 40 60
        E 210 80 40 00
        <X 270 0
          /wVrbm93LQ==
        >
        E 0 90 3d 60
        E 870 80 3d 00
        <X 90 0
          /wVpbmc=
        >
        E 0 90 3b 60
        E 990 80 3b 00
        E 210 80 69 00
        E 0 80 74 00
        E 480 90 69 60
        <X 480 0
          /wVXaGVu
        >
        E 0 90 3d 60
        E 180 80 3d 00
        <X 60 0
          /wVteQ==
        >
        E 0 90 40 60
        E 210 80 40 00
        <X 270 0
          /wVzb3Vs
        >
        E 0 90 40 60
        E 90 80 40 00
        <X 30 0
          /wUr
        >
        E 0 90 42 60
        E 150 80 42 00
        <X 210 0
          /wVzdGFydHM=
        >
        E 0 90 40 60
        E 210 80 40 00
        <X 270 0
          /wVrbm93LQ==
        >
        E 0 90 3d 60
        E 870 80 3d 00
        <X 90 0
          /wVpbmc=
        >
        E 0 90 3b 60
        E 990 80 3b 00
        E 210 80 69 00
        E 480 90 69 60
        <X 480 0
          /wVXaGVu
        >
        E 0 90 3d 60
        E 180 80 3d 00
        <X 60 0
          /wVteQ==
        >
        E 0 90 40 60
        E 210 80 40 00
        <X 270 0
          /wVzb3Vs
        >
        E 0 90 42 60
        E 270 80 42 00
        <X 210 0
          /wVzdGFydHM=
        >
        E 0 90 40 60
        E 210 80 40 00
        <X 270 0
          /wVrbm93LQ==
        >
        E 0 90 3d 60
        E 870 80 3d 00
        <X 90 0
          /wVpbmc=
        >
        E 0 90 3b 60
        E 900 80 3b 00
        <X 60 0
          /wUr
        >
        E 0 90 39 60
        E 540 80 39 00
        E 30 80 69 00
        E 150 90 69 60
        E 0 90 74 60
        <X 240 0
          /wVJ
        >
        E 0 90 3e 60
        E 150 80 3e 00
        <X 90 0
          /wVhbQ==
        >
        E 0 90 3e 60
        E 120 80 3e 00
        <X 180 0
          /wVhcw==
        >
        E 0 90 3e 60
        E 240 80 3e 00
        <X 60 0
          /wVJJ2Q=
        >
        E 0 90 3d 60
        E 240 80 3d 00
        <X 120 0
          /wV3YW50
        >
        E 0 90 3b 60
        E 720 80 3b 00
        <X 240 0
          /wV0bw==
        >
        E 0 90 39 60
        E 810 80 39 00
        <X 150 0
          /wViZQ==
        >
        E 0 90 3b 60
        E 1500 80 3b 00
        E 30 80 69 00
        E 0 80 74 00
        E 360 90 69 60
        <X 30 0
          /wVBbmQ=
        >
        E 0 90 3b 60
        E 900 80 3b 00
        <X 60 0
          /wUr
        >
        E 0 90 39 60
        E 870 80 39 00
        <X 90 0
          /wUr
        >
        E 0 90 38 60
        E 600 80 38 00
        <X 90 0
          /wVJ
        >
        E 0 90 38 60
        E 150 80 38 00
        <X 120 0
          /wVrbm93
        >
        E 0 90 36 60
        E 360 80 36 00
        <X 90 0
          /wVJ
        >
        E 0 90 36 60
        E 300 80 36 00
        <X 210 0
          /wVuZXYt
        >
        E 0 90 38 60
        E 360 80 38 00
        <X 120 0
          /wVlcg==
        >
        E 0 90 38 60
        E 300 80 38 00
        E 30 80 69 00
        E 120 90 69 60
        <X 30 0
          /wVOZXYt
        >
        E 0 90 39 60
        E 330 80 39 00
        <X 150 0
          /wVlcg==
        >
        E 0 90 39 60
        E 360 80 39 00
        <X 120 0
          /wV3aWxs
        >
        E 0 90 37 60
        E 540 80 37 00
        <X 420 0
          /wVuZXYt
        >
        E 0 90 36 60
        E 420 80 36 00
        <X 60 0
          /wVlcg==
        >
        E 0 90 36 60
        E 300 80 36 00
        <X 180 0
          /wV3aWxs
        >
        E 0 90 38 60
        E 660 80 38 00
        E 30 80 69 00
        E 240 90 69 60
        <X 30 0
          /wVOZXYt
        >
        E 0 90 39 60
        E 360 80 39 00
        <X 120 0
          /wVlcg==
        >
        E 0 90 39 60
        E 300 80 39 00
        <X 180 0
          /wV3aWxs
        >
        E 0 90 37 60
        E 480 80 37 00
        <X 480 0
          /wVuZXYt
        >
        E 0 90 36 60
        E 390 80 36 00
        <X 90 0
          /wVlcg==
        >
        E 0 90 36 60
        E 300 80 36 00
        <X 180 0
          /wV3aWxs
        >
        E 0 90 38 60
        E 660 80 38 00
        E 30 80 69 00
        E 240 90 69 60
        <X 30 0
          /wVOZXYt
        >
        E 0 90 39 60
        E 390 80 39 00
        <X 90 0
          /wVlcg==
        >
        E 0 90 39 60
        E 300 80 39 00
        <X 180 0
          /wV3aWxs
        >
        E 0 90 37 60
        E 570 80 37 00
        <X 390 0
          /wVuZXYt
        >
        E 0 90 36 60
        E 390 80 36 00
        <X 90 0
          /wVlcg==
        >
        E 0 90 36 60
        E 300 80 36 00
        <X 180 0
          /wV3aWxs
        >
        E 0 90 38 60
        E 300 80 38 00
        <X 180 0
          /wVzdG9w
        >
        E 0 90 38 60
        E 240 80 38 00
        <X 240 0
          /wVjYXIt
        >
        E 0 90 39 60
        E 330 80 39 00
        <X 150 0
          /wVpbmc=
        >
        E 0 90 39 60
        E 3360 80 39 00
        <X 479 0
          /wFbaWRsZV9yZWFsdGltZV0=
        >
        E 0 80 69 00
        E 3360 b0 7b 00
        GUID {D836DDCE-CA45-4327-A639-5FE843B7EFE0}
        IGNTEMPO 0 120.00000000 4 4
        SRCCOLOR 6
        VELLANE 132 128 60
        COLORMAP "C:\Program Files\REAPER (x64)\Data\color_maps\rockband_guitarbass.png"
        CFGEDITVIEW -967.111675 69.848485 0 12 0 0 0
        CFGEDIT 1 1 0 1 1 0 1 1 1 1 1 0.25000000 -8 -8 1544 872 0 2 1 1 0.00000000 0 1 0 0 0.500000 0 0 1.000000 64
        KEYSNAP 0 6 "102030050700" 0 "Pentatonic"
        EVTFILTER 0 -1 -1 -1 -1 0 1 0 0 -1.00000000 -1.00000000
      >
    >
  >
  <TRACK '{BDCA5990-413D-47BF-804E-8C6F66D6ECD8}'
    NAME "HARM1"
    PEAKCOL 16576
    BEAT -1
    AUTOMODE 0
    VOLPAN 1.00000000000000 0.00000000000000 -1.00000000000000 -1.00000000000000 1.00000000000000
    MUTESOLO 0 0 0
    IPHASE 0
    ISBUS 0 0
    BUSCOMP 0 0
    SHOWINMIX 1 0.666700 0.500000 1 0.500000 -1 -1 -1
    FREEMODE 0
    SEL 0
    REC 0 0 0 0 0 0 0
    VU 2
    TRACKHEIGHT 0 0
    INQ 0 0 0 0.5000000000 100 0 0 100
    NCHAN 2
    FX 0
    TRACKID {BDCA5990-413D-47BF-804E-8C6F66D6ECD8}
    PERF 0
    MIDIOUT -1
    <MIDINOTENAMES
      0 116 "OVERDRIVE"
      0 115 "----"
      0 105 "Phrase Marker"
      0 104 "----"
      0 84 "C6 (Unused Highest Note)"
      0 83 "B5"
      0 82 "A#4"
      0 81 "A4"
      0 80 "G#4"
      0 79 "G4"
      0 78 "F#4"
      0 77 "F4"
      0 76 "E4"
      0 75 "D#4"
      0 74 "D4"
      0 73 "C#4"
      0 72 "C4"
      0 71 "B3"
      0 70 "A#3"
      0 69 "A3"
      0 68 "G#3"
      0 67 "G3"
      0 66 "F#3"
      0 65 "F3"
      0 64 "E3"
      0 63 "D#3"
      0 62 "D3"
      0 61 "C#3"
      0 60 "C3"
      0 59 "B2"
      0 58 "A#2"
      0 57 "A2"
      0 56 "G#2"
      0 55 "G2"
      0 54 "F#2"
      0 53 "F2"
      0 52 "E2"
      0 51 "D#2"
      0 50 "D2"
      0 49 "C#2"
      0 48 "C2"
      0 47 "B1"
      0 46 "A#1"
      0 45 "A1"
      0 44 "G#1"
      0 43 "G1"
      0 42 "F#1"
      0 41 "F1"
      0 40 "E1"
      0 39 "D#1"
      0 38 "D1"
      0 37 "C#1"
      0 36 "Lowest Note C1"
      0 2 "---"
      0 1 "Lyric Shift"
      0 0 "Range Shift"
    >
    MAINSEND 1 0
    <FXCHAIN
      WNDRECT 0 43 655 467
      SHOW 0
      LASTSEL 1
      DOCKED 0
      BYPASS 0 0
      <JS "MIDI/midi_note_filter" ""
        36.000000 84.000000 - - - - - - - - - - - - - - - - - - - - - - - - - - - - - - - - - - - - - - - - - - - - - - - - - - - - - - - - - - - - - - 
      >
      FLOATPOS 0 0 0 0
      FXID {BD930011-5263-4F67-B8E4-D5D5659680DE}
      WAK 0
      BYPASS 0 0
      <VST "VSTi: ReaSynth (Cockos)" "reasynth.dll" 0 ""
        eXNlcu9e7f4AAAAAAgAAAAEAAAAAAAAAAgAAAAAAAAA4AAAAAAAAAA==
        AAAQAO++rd4N8K3eppvEOxe30ToAAIA/AAAAAAAAAADMm4A+6WeIPQ==
        AAAAAAAAAD8AAIA/AACAPwAAAD8AABAAAAA=
      >
      FLOATPOS 0 0 0 0
      FXID {27B61BC1-C1C3-4F2B-BB3C-4E8A6F425A85}
      WAK 0
    >
    <ITEM
      POSITION 0.00000000000000
      SNAPOFFS 0.00000000000000
      LENGTH 128.64099999999999
      LOOP 0
      ALLTAKES 0
      SEL 0
      FADEIN 1 0.000000 0.000000 1 0
      FADEOUT 1 0.000000 0.000000 1 0
      MUTE 0
      IGUID {56798D6D-F171-48B2-8A44-FA62F6F224F1}
      IID 7
      NAME "HARM1"
      VOLPAN 1.000000 0.000000 1.000000 -1.000000
      SOFFS 0.00000000000000 0.00000000000000
      PLAYRATE 1.00000000000000 1 0.00000000000000 -1
      CHANMODE 0
      GUID {70A26471-77FD-4DC2-83C9-2AD2C83EF905}
      <SOURCE MIDI
        HASDATA 1 480 QN
        POOLEDEVTS {74229C6E-9693-4CF1-ACB2-90007D20D9FF}
        <X 0 0
          /wNIQVJNMQ==
        >
        <X 3840 0
          /wFbcGxheV0=
        >
        E 480 90 69 60
        <X 480 0
          /wVXaGVu
        >
        E 0 90 3d 60
        E 180 80 3d 00
        <X 60 0
          /wVteQ==
        >
        E 0 90 40 60
        E 210 80 40 00
        <X 270 0
          /wVzb3Vs
        >
        E 0 90 42 60
        E 270 80 42 00
        <X 210 0
          /wVzdGFydHM=
        >
        E 0 90 40 60
        E 210 80 40 00
        <X 270 0
          /wVncm93LQ==
        >
        E 0 90 3d 60
        E 870 80 3d 00
        <X 90 0
          /wVpbmc=
        >
        E 0 90 3b 60
        E 990 80 3b 00
        E 210 80 69 00
        E 480 90 69 60
        <X 480 0
          /wVXaGVu
        >
        E 0 90 3d 60
        E 180 80 3d 00
        <X 60 0
          /wVteQ==
        >
        E 0 90 40 60
        E 210 80 40 00
        <X 270 0
          /wVzb3Vs
        >
        E 0 90 42 60
        E 270 80 42 00
        <X 210 0
          /wVzdGFydHM=
        >
        E 0 90 40 60
        E 210 80 40 00
        <X 270 0
          /wVncm93LQ==
        >
        E 0 90 3d 60
        E 870 80 3d 00
        <X 90 0
          /wVpbmc=
        >
        E 0 90 3b 60
        E 990 80 3b 00
        E 210 80 69 00
        E 480 90 69 60
        <X 480 0
          /wVXaGVu
        >
        E 0 90 3d 60
        E 180 80 3d 00
        <X 60 0
          /wVteQ==
        >
        E 0 90 40 60
        E 210 80 40 00
        <X 270 0
          /wVzb3Vs
        >
        E 0 90 42 60
        E 270 80 42 00
        <X 210 0
          /wVzdGFydHM=
        >
        E 0 90 40 60
        E 210 80 40 00
        <X 270 0
          /wVncm93LQ==
        >
        E 0 90 3d 60
        E 870 80 3d 00
        <X 90 0
          /wVpbmc=
        >
        E 0 90 3b 60
        E 900 80 3b 00
        <X 60 0
          /wUr
        >
        E 0 90 39 60
        E 540 80 39 00
        E 30 80 69 00
        E 150 90 69 60
        E 0 90 74 60
        <X 240 0
          /wVJ
        >
        E 0 90 3e 60
        E 150 80 3e 00
        <X 90 0
          /wVnZXQ=
        >
        E 0 90 3e 60
        E 120 80 3e 00
        <X 180 0
          /wVzbw==
        >
        E 0 90 3e 60
        E 240 80 3e 00
        <X 60 0
          /wUr
        >
        E 0 90 3d 60
        E 240 80 3d 00
        <X 120 0
          /wVodW4t
        >
        E 0 90 3b 60
        E 660 80 3b 00
        <X 60 0
          /wUr
        >
        E 0 90 39 60
        E 90 80 39 00
        <X 150 0
          /wVncnk=
        >
        E 0 90 39 60
        E 870 80 39 00
        <X 90 0
          /wUr
        >
        E 0 90 3b 60
        E 450 80 3b 00
        E 30 80 69 00
        E 0 80 74 00
        E 450 90 69 60
        <X 30 0
          /wVBbmQ=
        >
        E 0 90 3b 60
        E 900 80 3b 00
        <X 60 0
          /wUr
        >
        E 0 90 39 60
        E 870 80 39 00
        <X 90 0
          /wUr
        >
        E 0 90 38 60
        E 600 80 38 00
        <X 120 0
          /wVJ
        >
        E 0 90 38 60
        E 150 80 38 00
        <X 90 0
          /wV3aXNo
        >
        E 0 90 36 60
        E 240 80 36 00
        <X 210 0
          /wVpdA==
        >
        E 0 90 36 60
        E 300 80 36 00
        <X 210 0
          /wVuZXYt
        >
        E 0 90 38 60
        E 360 80 38 00
        <X 120 0
          /wVlcg==
        >
        E 0 90 38 60
        E 300 80 38 00
        E 30 80 69 00
        E 120 90 69 60
        <X 30 0
          /wVOZXYt
        >
        E 0 90 39 60
        E 330 80 39 00
        <X 150 0
          /wVlcg==
        >
        E 0 90 39 60
        E 360 80 39 00
        <X 120 0
          /wV3b3VsZA==
        >
        E 0 90 37 60
        E 540 80 37 00
        E 180 90 01 60
        E 30 80 01 00
        <X 210 0
          /wVuZXYt
        >
        E 0 90 36 60
        E 420 80 36 00
        <X 60 0
          /wVlcg==
        >
        E 0 90 36 60
        E 300 80 36 00
        <X 180 0
          /wV3b3VsZA==
        >
        E 0 90 38 60
        E 660 80 38 00
        E 30 80 69 00
        E 240 90 69 60
        <X 30 0
          /wVOZXYt
        >
        E 0 90 39 60
        E 360 80 39 00
        <X 120 0
          /wVlcg==
        >
        E 0 90 39 60
        E 300 80 39 00
        <X 180 0
          /wV3b3VsZA==
        >
        E 0 90 37 60
        E 480 80 37 00
        E 240 90 01 60
        E 30 80 01 00
        <X 210 0
          /wVuZXYt
        >
        E 0 90 36 60
        E 390 80 36 00
        <X 90 0
          /wVlcg==
        >
        E 0 90 36 60
        E 300 80 36 00
        <X 180 0
          /wV3b3VsZA==
        >
        E 0 90 38 60
        E 660 80 38 00
        E 30 80 69 00
        E 240 90 69 60
        E 0 90 74 60
        <X 30 0
          /wVOZXYt
        >
        E 0 90 39 60
        E 390 80 39 00
        <X 90 0
          /wVlcg==
        >
        E 0 90 39 60
        E 300 80 39 00
        <X 180 0
          /wV3b3VsZA==
        >
        E 0 90 37 60
        E 570 80 37 00
        E 150 90 01 60
        E 30 80 01 00
        <X 210 0
          /wVuZXYt
        >
        E 0 90 36 60
        E 390 80 36 00
        <X 90 0
          /wVlcg==
        >
        E 0 90 36 60
        E 300 80 36 00
        <X 180 0
          /wV3b3VsZA==
        >
        E 0 90 38 60
        E 300 80 38 00
        <X 180 0
          /wVzdG9w
        >
        E 0 90 38 60
        E 240 80 38 00
        <X 240 0
          /wVncm93LQ==
        >
        E 0 90 39 60
        E 330 80 39 00
        <X 150 0
          /wVpbmc=
        >
        E 0 90 39 60
        E 180 80 39 00
        E 30 80 69 00
        E 0 80 74 00
        E 240 90 69 60
        <X 30 0
          /wVXaGVu
        >
        E 0 90 3d 60
        E 180 80 3d 00
        <X 60 0
          /wVteQ==
        >
        E 0 90 40 60
        E 210 80 40 00
        <X 270 0
          /wVzb3Vs
        >
        E 0 90 42 60
        E 270 80 42 00
        <X 210 0
          /wVzdGFydHM=
        >
        E 0 90 40 60
        E 210 80 40 00
        <X 270 0
          /wVncm93LQ==
        >
        E 0 90 3d 60
        E 840 80 3d 00
        <X 120 0
          /wVpbmc=
        >
        E 0 90 3b 60
        E 840 80 3b 00
        E 360 80 69 00
        E 480 90 69 60
        <X 480 0
          /wVXaGVu
        >
        E 0 90 3d 60
        E 180 80 3d 00
        <X 60 0
          /wVteQ==
        >
        E 0 90 40 60
        E 210 80 40 00
        <X 270 0
          /wVzb3Vs
        >
        E 0 90 40 60
        E 60 80 40 00
        <X 30 0
          /wUr
        >
        E 0 90 42 60
        E 180 80 42 00
        <X 210 0
          /wVzdGFydHM=
        >
        E 0 90 40 60
        E 210 80 40 00
        <X 270 0
          /wVncm93LQ==
        >
        E 0 90 3d 60
        E 870 80 3d 00
        <X 90 0
          /wVpbmc=
        >
        E 0 90 3b 60
        E 840 80 3b 00
        E 360 80 69 00
        E 480 90 69 60
        E 0 90 74 60
        <X 480 0
          /wVXaGVu
        >
        E 0 90 3d 60
        E 180 80 3d 00
        <X 60 0
          /wVteQ==
        >
        E 0 90 40 60
        E 210 80 40 00
        <X 270 0
          /wVzb3Vs
        >
        E 0 90 42 60
        E 270 80 42 00
        <X 210 0
          /wVzdGFydHM=
        >
        E 0 90 40 60
        E 210 80 40 00
        <X 270 0
          /wVncm93LQ==
        >
        E 0 90 3d 60
        E 870 80 3d 00
        <X 90 0
          /wVpbmc=
        >
        E 0 90 3b 60
        E 900 80 3b 00
        <X 60 0
          /wUr
        >
        E 0 90 39 60
        E 540 80 39 00
        E 30 80 69 00
        E 0 80 74 00
        E 150 90 69 60
        <X 240 0
          /wVJ
        >
        E 0 90 3e 60
        E 150 80 3e 00
        <X 90 0
          /wVjYW4ndA==
        >
        E 0 90 3e 60
        E 120 80 3e 00
        <X 180 0
          /wVmZWVs
        >
        E 0 90 3e 60
        E 240 80 3e 00
        <X 120 0
          /wVzbw==
        >
        E 0 90 3d 60
        E 180 80 3d 00
        <X 120 0
          /wVmdWxs
        >
        E 0 90 3b 60
        E 870 80 3b 00
        <X 90 0
          /wUr
        >
        E 0 90 39 60
        E 870 80 39 00
        <X 90 0
          /wUr
        >
        E 0 90 3b 60
        E 450 80 3b 00
        E 30 80 69 00
        E 450 90 69 60
        <X 30 0
          /wVBbmQ=
        >
        E 0 90 3b 60
        E 900 80 3b 00
        <X 60 0
          /wUr
        >
        E 0 90 39 60
        E 870 80 39 00
        <X 90 0
          /wUr
        >
        E 0 90 38 60
        E 600 80 38 00
        <X 90 0
          /wVJ
        >
        E 0 90 38 60
        E 150 80 38 00
        <X 120 0
          /wV3aXNo
        >
        E 0 90 36 60
        E 240 80 36 00
        <X 240 0
          /wVpdA==
        >
        E 0 90 36 60
        E 300 80 36 00
        <X 180 0
          /wVuZXYt
        >
        E 0 90 38 60
        E 360 80 38 00
        <X 120 0
          /wVlcg==
        >
        E 0 90 38 60
        E 300 80 38 00
        E 30 80 69 00
        E 120 90 69 60
        E 0 90 74 60
        <X 30 0
          /wVOZXYt
        >
        E 0 90 39 60
        E 330 80 39 00
        <X 150 0
          /wVlcg==
        >
        E 0 90 39 60
        E 360 80 39 00
        <X 120 0
          /wV3b3VsZA==
        >
        E 0 90 37 60
        E 540 80 37 00
        E 180 90 01 60
        E 30 80 01 00
        <X 210 0
          /wVuZXYt
        >
        E 0 90 36 60
        E 420 80 36 00
        <X 60 0
          /wVlcg==
        >
        E 0 90 36 60
        E 300 80 36 00
        <X 180 0
          /wV3b3VsZA==
        >
        E 0 90 38 60
        E 660 80 38 00
        E 30 80 69 00
        E 0 80 74 00
        E 240 90 69 60
        <X 30 0
          /wVOZXYt
        >
        E 0 90 39 60
        E 360 80 39 00
        <X 120 0
          /wVlcg==
        >
        E 0 90 39 60
        E 300 80 39 00
        <X 180 0
          /wV3b3VsZA==
        >
        E 0 90 37 60
        E 600 80 37 00
        E 120 90 01 60
        E 30 80 01 00
        <X 210 0
          /wVuZXYt
        >
        E 0 90 36 60
        E 390 80 36 00
        <X 90 0
          /wVlcg==
        >
        E 0 90 36 60
        E 300 80 36 00
        <X 180 0
          /wV3b3VsZA==
        >
        E 0 90 38 60
        E 660 80 38 00
        E 30 80 69 00
        E 240 90 69 60
        <X 30 0
          /wVOZXYt
        >
        E 0 90 39 60
        E 390 80 39 00
        <X 90 0
          /wVlcg==
        >
        E 0 90 39 60
        E 300 80 39 00
        <X 180 0
          /wV3b3VsZA==
        >
        E 0 90 37 60
        E 600 80 37 00
        E 120 90 01 60
        E 30 80 01 00
        <X 210 0
          /wVuZXYt
        >
        E 0 90 36 60
        E 390 80 36 00
        <X 90 0
          /wVlcg==
        >
        E 0 90 36 60
        E 300 80 36 00
        <X 180 0
          /wV3b3VsZA==
        >
        E 0 90 38 60
        E 300 80 38 00
        <X 180 0
          /wVzdG9w
        >
        E 0 90 38 60
        E 270 80 38 00
        <X 210 0
          /wVncm93LQ==
        >
        E 0 90 39 60
        E 330 80 39 00
        <X 120 0
          /wVpbmc=
        >
        E 0 90 39 60
        E 180 80 39 00
        E 30 80 69 00
        E 270 90 69 60
        E 0 90 74 60
        <X 30 0
          /wVXaGVu
        >
        E 0 90 3d 60
        E 180 80 3d 00
        <X 60 0
          /wVteQ==
        >
        E 0 90 40 60
        E 210 80 40 00
        <X 270 0
          /wVzb3Vs
        >
        E 0 90 42 60
        E 270 80 42 00
        <X 210 0
          /wVzdGFydHM=
        >
        E 0 90 40 60
        E 210 80 40 00
        <X 270 0
          /wVrbm93LQ==
        >
        E 0 90 3d 60
        E 870 80 3d 00
        <X 90 0
          /wVpbmc=
        >
        E 0 90 3b 60
        E 990 80 3b 00
        E 210 80 69 00
        E 0 80 74 00
        E 480 90 69 60
        <X 480 0
          /wVXaGVu
        >
        E 0 90 3d 60
        E 180 80 3d 00
        <X 60 0
          /wVteQ==
        >
        E 0 90 40 60
        E 210 80 40 00
        <X 270 0
          /wVzb3Vs
        >
        E 0 90 40 60
        E 90 80 40 00
        <X 30 0
          /wUr
        >
        E 0 90 42 60
        E 150 80 42 00
        <X 210 0
          /wVzdGFydHM=
        >
        E 0 90 40 60
        E 210 80 40 00
        <X 270 0
          /wVrbm93LQ==
        >
        E 0 90 3d 60
        E 870 80 3d 00
        <X 90 0
          /wVpbmc=
        >
        E 0 90 3b 60
        E 990 80 3b 00
        E 210 80 69 00
        E 480 90 69 60
        <X 480 0
          /wVXaGVu
        >
        E 0 90 3d 60
        E 180 80 3d 00
        <X 60 0
          /wVteQ==
        >
        E 0 90 40 60
        E 210 80 40 00
        <X 270 0
          /wVzb3Vs
        >
        E 0 90 42 60
        E 270 80 42 00
        <X 210 0
          /wVzdGFydHM=
        >
        E 0 90 40 60
        E 210 80 40 00
        <X 270 0
          /wVrbm93LQ==
        >
        E 0 90 3d 60
        E 870 80 3d 00
        <X 90 0
          /wVpbmc=
        >
        E 0 90 3b 60
        E 900 80 3b 00
        <X 60 0
          /wUr
        >
        E 0 90 39 60
        E 540 80 39 00
        E 30 80 69 00
        E 150 90 69 60
        E 0 90 74 60
        <X 240 0
          /wVJ
        >
        E 0 90 3e 60
        E 150 80 3e 00
        <X 90 0
          /wVhbQ==
        >
        E 0 90 3e 60
        E 120 80 3e 00
        <X 180 0
          /wVhcw==
        >
        E 0 90 3e 60
        E 240 80 3e 00
        <X 60 0
          /wVJJ2Q=
        >
        E 0 90 3d 60
        E 240 80 3d 00
        <X 120 0
          /wV3YW50
        >
        E 0 90 3b 60
        E 720 80 3b 00
        <X 240 0
          /wV0bw==
        >
        E 0 90 39 60
        E 810 80 39 00
        <X 150 0
          /wViZQ==
        >
        E 0 90 3b 60
        E 1500 80 3b 00
        E 30 80 69 00
        E 0 80 74 00
        E 360 90 69 60
        <X 30 0
          /wVBbmQ=
        >
        E 0 90 3b 60
        E 900 80 3b 00
        <X 60 0
          /wUr
        >
        E 0 90 39 60
        E 870 80 39 00
        <X 90 0
          /wUr
        >
        E 0 90 38 60
        E 600 80 38 00
        <X 90 0
          /wVJ
        >
        E 0 90 38 60
        E 150 80 38 00
        <X 120 0
          /wVrbm93
        >
        E 0 90 36 60
        E 360 80 36 00
        <X 90 0
          /wVJ
        >
        E 0 90 36 60
        E 300 80 36 00
        <X 210 0
          /wVuZXYt
        >
        E 0 90 38 60
        E 360 80 38 00
        <X 120 0
          /wVlcg==
        >
        E 0 90 38 60
        E 300 80 38 00
        E 30 80 69 00
        E 120 90 69 60
        <X 30 0
          /wVOZXYt
        >
        E 0 90 39 60
        E 330 80 39 00
        <X 150 0
          /wVlcg==
        >
        E 0 90 39 60
        E 360 80 39 00
        <X 120 0
          /wV3aWxs
        >
        E 0 90 37 60
        E 540 80 37 00
        E 180 90 01 60
        E 30 80 01 00
        <X 210 0
          /wVuZXYt
        >
        E 0 90 36 60
        E 420 80 36 00
        <X 60 0
          /wVlcg==
        >
        E 0 90 36 60
        E 300 80 36 00
        <X 180 0
          /wV3aWxs
        >
        E 0 90 38 60
        E 660 80 38 00
        E 30 80 69 00
        E 240 90 69 60
        <X 30 0
          /wVOZXYt
        >
        E 0 90 39 60
        E 360 80 39 00
        <X 120 0
          /wVlcg==
        >
        E 0 90 39 60
        E 300 80 39 00
        <X 180 0
          /wV3aWxs
        >
        E 0 90 37 60
        E 480 80 37 00
        E 240 90 01 60
        E 30 80 01 00
        <X 210 0
          /wVuZXYt
        >
        E 0 90 36 60
        E 390 80 36 00
        <X 90 0
          /wVlcg==
        >
        E 0 90 36 60
        E 300 80 36 00
        <X 180 0
          /wV3aWxs
        >
        E 0 90 38 60
        E 660 80 38 00
        E 30 80 69 00
        E 240 90 69 60
        <X 30 0
          /wVOZXYt
        >
        E 0 90 39 60
        E 390 80 39 00
        <X 90 0
          /wVlcg==
        >
        E 0 90 39 60
        E 300 80 39 00
        <X 180 0
          /wV3aWxs
        >
        E 0 90 37 60
        E 570 80 37 00
        E 150 90 01 60
        E 30 80 01 00
        <X 210 0
          /wVuZXYt
        >
        E 0 90 36 60
        E 390 80 36 00
        <X 90 0
          /wVlcg==
        >
        E 0 90 36 60
        E 300 80 36 00
        <X 180 0
          /wV3aWxs
        >
        E 0 90 38 60
        E 300 80 38 00
        <X 180 0
          /wVzdG9w
        >
        E 0 90 38 60
        E 240 80 38 00
        <X 240 0
          /wVjYXIt
        >
        E 0 90 39 60
        E 330 80 39 00
        <X 150 0
          /wVpbmc=
        >
        E 0 90 39 60
        E 3360 80 39 00
        <X 479 0
          /wFbaWRsZV9yZWFsdGltZV0=
        >
        E 0 80 69 00
        E 3360 b0 7b 00
        GUID {B2414C9D-4DDE-4D65-A274-5AE075DA3448}
        IGNTEMPO 0 120.00000000 4 4
        SRCCOLOR 7
        VELLANE 132 128 60
        COLORMAP "C:\Program Files\REAPER (x64)\Data\color_maps\rockband_guitarbass.png"
        CFGEDITVIEW -967.111675 69.848485 0 12 0 0 0
        CFGEDIT 1 1 0 1 1 0 1 1 1 1 1 0.25000000 -8 -8 1544 872 0 2 1 1 0.00000000 0 1 0 0 0.500000 0 0 1.000000 64
        KEYSNAP 0 6 "102030050700" 0 "Pentatonic"
        EVTFILTER 0 -1 -1 -1 -1 0 1 0 0 -1.00000000 -1.00000000
      >
    >
  >
  <TRACK '{3F82EC8A-EF46-4327-89B8-C2B51068CA7A}'
    NAME "HARM2"
    PEAKCOL 16576
    BEAT -1
    AUTOMODE 0
    VOLPAN 1.00000000000000 0.00000000000000 -1.00000000000000 -1.00000000000000 1.00000000000000
    MUTESOLO 0 0 0
    IPHASE 0
    ISBUS 0 0
    BUSCOMP 0 0
    SHOWINMIX 1 0.666700 0.500000 1 0.500000 -1 -1 -1
    FREEMODE 0
    SEL 1
    REC 0 0 0 0 0 0 0
    VU 2
    TRACKHEIGHT 0 0
    INQ 0 0 0 0.5000000000 100 0 0 100
    NCHAN 2
    FX 0
    TRACKID {3F82EC8A-EF46-4327-89B8-C2B51068CA7A}
    PERF 0
    MIDIOUT -1
    <MIDINOTENAMES
      0 105 "Phrase Marker"
      0 104 "----"
      0 84 "C6 (Unused Highest Note)"
      0 83 "B5"
      0 82 "A#4"
      0 81 "A4"
      0 80 "G#4"
      0 79 "G4"
      0 78 "F#4"
      0 77 "F4"
      0 76 "E4"
      0 75 "D#4"
      0 74 "D4"
      0 73 "C#4"
      0 72 "C4"
      0 71 "B3"
      0 70 "A#3"
      0 69 "A3"
      0 68 "G#3"
      0 67 "G3"
      0 66 "F#3"
      0 65 "F3"
      0 64 "E3"
      0 63 "D#3"
      0 62 "D3"
      0 61 "C#3"
      0 60 "C3"
      0 59 "B2"
      0 58 "A#2"
      0 57 "A2"
      0 56 "G#2"
      0 55 "G2"
      0 54 "F#2"
      0 53 "F2"
      0 52 "E2"
      0 51 "D#2"
      0 50 "D2"
      0 49 "C#2"
      0 48 "C2"
      0 47 "B1"
      0 46 "A#1"
      0 45 "A1"
      0 44 "G#1"
      0 43 "G1"
      0 42 "F#1"
      0 41 "F1"
      0 40 "E1"
      0 39 "D#1"
      0 38 "D1"
      0 37 "C#1"
      0 36 "Lowest Note C1"
    >
    MAINSEND 1 0
    <FXCHAIN
      WNDRECT 0 43 655 467
      SHOW 0
      LASTSEL 1
      DOCKED 0
      BYPASS 0 0
      <JS "MIDI/midi_note_filter" ""
        36.000000 84.000000 - - - - - - - - - - - - - - - - - - - - - - - - - - - - - - - - - - - - - - - - - - - - - - - - - - - - - - - - - - - - - - 
      >
      FLOATPOS 0 0 0 0
      FXID {FB9D92B8-ABEB-4C53-908C-7EE86CCF3F78}
      WAK 0
      BYPASS 0 0
      <VST "VSTi: ReaSynth (Cockos)" "reasynth.dll" 0 ""
        eXNlcu9e7f4AAAAAAgAAAAEAAAAAAAAAAgAAAAAAAAA4AAAAAAAAAA==
        AAAQAO++rd4N8K3eppvEOxe30ToAAIA/AAAAAAAAAADMm4A+6WeIPQ==
        AAAAAAAAAD8AAIA/AACAPwAAAD8AABAAAAA=
      >
      FLOATPOS 0 0 0 0
      FXID {767FF756-AC0D-4D84-BE9C-BFA6DDA4120C}
      WAK 0
    >
    <ITEM
      POSITION 0.00000000000000
      SNAPOFFS 0.00000000000000
      LENGTH 128.64099999999999
      LOOP 0
      ALLTAKES 0
      SEL 0
      FADEIN 1 0.000000 0.000000 1 0
      FADEOUT 1 0.000000 0.000000 1 0
      MUTE 0
      IGUID {4BFB35E0-BD86-4799-A527-1493953039A1}
      IID 8
      NAME "HARM2"
      VOLPAN 1.000000 0.000000 1.000000 -1.000000
      SOFFS 0.00000000000000 0.00000000000000
      PLAYRATE 1.00000000000000 1 0.00000000000000 -1
      CHANMODE 0
      GUID {2394D5DA-CC51-4673-9033-0F7C24A94A9E}
      <SOURCE MIDI
        HASDATA 1 480 QN
        POOLEDEVTS {D48D7D98-5ADC-4D01-A95E-37CE67CEDDAF}
        <X 0 0
          /wNIQVJNMg==
        >
        E 22560 90 69 60
        <X 480 0
          /wVBbmQ=
        >
        E 0 90 3e 60
        E 900 80 3e 00
        <X 60 0
          /wUr
        >
        E 0 90 3d 60
        E 870 80 3d 00
        <X 90 0
          /wUr
        >
        E 0 90 3b 60
        E 600 80 3b 00
        <X 120 0
          /wVJ
        >
        E 0 90 3b 60
        E 150 80 3b 00
        <X 90 0
          /wV3aXNo
        >
        E 0 90 39 60
        E 240 80 39 00
        <X 210 0
          /wVpdA==
        >
        E 0 90 39 60
        E 300 80 39 00
        <X 210 0
          /wVuZXYt
        >
        E 0 90 38 60
        E 360 80 38 00
        <X 120 0
          /wVlcg==
        >
        E 0 90 38 60
        E 300 80 38 00
        E 30 80 69 00
        E 120 90 69 60
        <X 30 0
          /wVOZXYt
        >
        E 0 90 39 60
        E 330 80 39 00
        <X 150 0
          /wVlcg==
        >
        E 0 90 39 60
        E 360 80 39 00
        <X 120 0
          /wV3b3VsZA==
        >
        E 0 90 37 60
        E 540 80 37 00
        E 30 80 69 00
        E 360 90 69 60
        <X 30 0
          /wVuZXYt
        >
        E 0 90 36 60
        E 420 80 36 00
        <X 60 0
          /wVlcg==
        >
        E 0 90 36 60
        E 300 80 36 00
        <X 180 0
          /wV3b3VsZA==
        >
        E 0 90 38 60
        E 660 80 38 00
        E 30 80 69 00
        E 240 90 69 60
        <X 30 0
          /wVOZXYt
        >
        E 0 90 39 60
        E 360 80 39 00
        <X 120 0
          /wVlcg==
        >
        E 0 90 39 60
        E 300 80 39 00
        <X 180 0
          /wV3b3VsZA==
        >
        E 0 90 37 60
        E 480 80 37 00
        E 30 80 69 00
        E 420 90 69 60
        <X 30 0
          /wVuZXYt
        >
        E 0 90 36 60
        E 390 80 36 00
        <X 90 0
          /wVlcg==
        >
        E 0 90 36 60
        E 300 80 36 00
        <X 180 0
          /wV3b3VsZA==
        >
        E 0 90 38 60
        E 660 80 38 00
        E 30 80 69 00
        E 240 90 69 60
        <X 30 0
          /wVOZXYt
        >
        E 0 90 39 60
        E 390 80 39 00
        <X 90 0
          /wVlcg==
        >
        E 0 90 39 60
        E 300 80 39 00
        <X 180 0
          /wV3b3VsZA==
        >
        E 0 90 37 60
        E 540 80 69 00
        E 30 80 37 00
        E 360 90 69 60
        <X 30 0
          /wVuZXYt
        >
        E 0 90 36 60
        E 390 80 36 00
        <X 90 0
          /wVlcg==
        >
        E 0 90 36 60
        E 300 80 36 00
        <X 180 0
          /wV3b3VsZA==
        >
        E 0 90 38 60
        E 300 80 38 00
        <X 180 0
          /wVzdG9w
        >
        E 0 90 38 60
        E 240 80 38 00
        <X 240 0
          /wVncm93LQ==
        >
        E 0 90 39 60
        E 330 80 39 00
        <X 150 0
          /wVpbmc=
        >
        E 0 90 39 60
        E 180 80 39 00
        E 300 80 69 00
        E 17760 90 69 60
        <X 480 0
          /wVBbmQ=
        >
        E 0 90 3e 60
        E 900 80 3e 00
        <X 60 0
          /wUr
        >
        E 0 90 3d 60
        E 870 80 3d 00
        <X 90 0
          /wUr
        >
        E 0 90 3b 60
        E 600 80 3b 00
        <X 90 0
          /wVJ
        >
        E 0 90 3b 60
        E 150 80 3b 00
        <X 120 0
          /wV3aXNo
        >
        E 0 90 39 60
        E 240 80 39 00
        <X 240 0
          /wVpdA==
        >
        E 0 90 39 60
        E 300 80 39 00
        <X 180 0
          /wVuZXYt
        >
        E 0 90 38 60
        E 360 80 38 00
        <X 120 0
          /wVlcg==
        >
        E 0 90 38 60
        E 300 80 38 00
        E 30 80 69 00
        E 120 90 69 60
        <X 30 0
          /wVOZXYt
        >
        E 0 90 39 60
        E 330 80 39 00
        <X 150 0
          /wVlcg==
        >
        E 0 90 39 60
        E 360 80 39 00
        <X 120 0
          /wV3b3VsZA==
        >
        E 0 90 37 60
        E 540 80 37 00
        E 30 80 69 00
        E 360 90 69 60
        <X 30 0
          /wVuZXYt
        >
        E 0 90 36 60
        E 420 80 36 00
        <X 60 0
          /wVlcg==
        >
        E 0 90 36 60
        E 300 80 36 00
        <X 180 0
          /wV3b3VsZA==
        >
        E 0 90 38 60
        E 660 80 38 00
        E 30 80 69 00
        E 240 90 69 60
        <X 30 0
          /wVOZXYt
        >
        E 0 90 39 60
        E 360 80 39 00
        <X 120 0
          /wVlcg==
        >
        E 0 90 39 60
        E 300 80 39 00
        <X 180 0
          /wV3b3VsZA==
        >
        E 0 90 37 60
        E 570 80 69 00
        E 30 80 37 00
        E 330 90 69 60
        <X 30 0
          /wVuZXYt
        >
        E 0 90 36 60
        E 390 80 36 00
        <X 90 0
          /wVlcg==
        >
        E 0 90 36 60
        E 300 80 36 00
        <X 180 0
          /wV3b3VsZA==
        >
        E 0 90 38 60
        E 660 80 38 00
        E 30 80 69 00
        E 240 90 69 60
        <X 30 0
          /wVOZXYt
        >
        E 0 90 39 60
        E 390 80 39 00
        <X 90 0
          /wVlcg==
        >
        E 0 90 39 60
        E 300 80 39 00
        <X 180 0
          /wV3b3VsZA==
        >
        E 0 90 37 60
        E 570 80 69 00
        E 30 80 37 00
        E 330 90 69 60
        <X 30 0
          /wVuZXYt
        >
        E 0 90 36 60
        E 390 80 36 00
        <X 90 0
          /wVlcg==
        >
        E 0 90 36 60
        E 300 80 36 00
        <X 180 0
          /wV3b3VsZA==
        >
        E 0 90 38 60
        E 300 80 38 00
        <X 180 0
          /wVzdG9w
        >
        E 0 90 38 60
        E 270 80 38 00
        <X 210 0
          /wVncm93LQ==
        >
        E 0 90 39 60
        E 330 80 39 00
        <X 120 0
          /wVpbmc=
        >
        E 0 90 39 60
        E 180 80 39 00
        E 330 80 69 00
        E 18720 90 69 60
        <X 480 0
          /wVBbmQ=
        >
        E 0 90 3e 60
        E 900 80 3e 00
        <X 60 0
          /wUr
        >
        E 0 90 3d 60
        E 870 80 3d 00
        <X 90 0
          /wUr
        >
        E 0 90 3b 60
        E 600 80 3b 00
        <X 90 0
          /wVJ
        >
        E 0 90 3b 60
        E 150 80 3b 00
        <X 120 0
          /wVrbm93
        >
        E 0 90 39 60
        E 360 80 39 00
        <X 90 0
          /wVJ
        >
        E 0 90 39 60
        E 300 80 39 00
        <X 210 0
          /wVuZXYt
        >
        E 0 90 38 60
        E 360 80 38 00
        <X 120 0
          /wVlcg==
        >
        E 0 90 38 60
        E 300 80 38 00
        E 30 80 69 00
        E 120 90 69 60
        <X 30 0
          /wVOZXYt
        >
        E 0 90 39 60
        E 330 80 39 00
        <X 150 0
          /wVlcg==
        >
        E 0 90 39 60
        E 360 80 39 00
        <X 120 0
          /wV3aWxs
        >
        E 0 90 37 60
        E 540 80 37 00
        E 30 80 69 00
        E 360 90 69 60
        <X 30 0
          /wVuZXYt
        >
        E 0 90 36 60
        E 420 80 36 00
        <X 60 0
          /wVlcg==
        >
        E 0 90 36 60
        E 300 80 36 00
        <X 180 0
          /wV3aWxs
        >
        E 0 90 38 60
        E 660 80 38 00
        E 30 80 69 00
        E 240 90 69 60
        <X 30 0
          /wVOZXYt
        >
        E 0 90 39 60
        E 360 80 39 00
        <X 120 0
          /wVlcg==
        >
        E 0 90 39 60
        E 300 80 39 00
        <X 180 0
          /wV3aWxs
        >
        E 0 90 37 60
        E 480 80 37 00
        E 30 80 69 00
        E 420 90 69 60
        <X 30 0
          /wVuZXYt
        >
        E 0 90 36 60
        E 390 80 36 00
        <X 90 0
          /wVlcg==
        >
        E 0 90 36 60
        E 300 80 36 00
        <X 180 0
          /wV3aWxs
        >
        E 0 90 38 60
        E 660 80 38 00
        E 30 80 69 00
        E 240 90 69 60
        <X 30 0
          /wVOZXYt
        >
        E 0 90 39 60
        E 390 80 39 00
        <X 90 0
          /wVlcg==
        >
        E 0 90 39 60
        E 300 80 39 00
        <X 180 0
          /wV3aWxs
        >
        E 0 90 37 60
        E 570 80 37 00
        E 30 80 69 00
        E 330 90 69 60
        <X 30 0
          /wVuZXYt
        >
        E 0 90 36 60
        E 390 80 36 00
        <X 90 0
          /wVlcg==
        >
        E 0 90 36 60
        E 300 80 36 00
        <X 180 0
          /wV3aWxs
        >
        E 0 90 38 60
        E 300 80 38 00
        <X 180 0
          /wVzdG9w
        >
        E 0 90 38 60
        E 240 80 38 00
        <X 240 0
          /wVjYXIt
        >
        E 0 90 39 60
        E 330 80 39 00
        <X 150 0
          /wVpbmc=
        >
        E 0 90 39 60
        E 3360 80 39 00
        E 479 80 69 00
        E 3360 b0 7b 00
        GUID {D97BFA2C-8D68-459E-A0BB-3AAC8EE23A91}
        IGNTEMPO 0 120.00000000 4 4
        SRCCOLOR 8
        VELLANE 132 128 60
        COLORMAP "C:\Program Files\REAPER (x64)\Data\color_maps\rockband_guitarbass.png"
        CFGEDITVIEW -967.111675 69.848485 0 12 0 0 0
        CFGEDIT 1 1 0 1 1 0 1 1 1 1 1 0.25000000 -8 -8 1544 872 0 2 1 1 0.00000000 0 1 0 0 0.500000 0 0 1.000000 64
        KEYSNAP 0 6 "102030050700" 0 "Pentatonic"
        EVTFILTER 0 -1 -1 -1 -1 0 1 0 0 -1.00000000 -1.00000000
      >
    >
  >
  <TRACK '{A500120B-4D81-4300-AEDB-5676A11C6EF9}'
    NAME "PART REAL_BASS"
    PEAKCOL 16576
    BEAT -1
    AUTOMODE 0
    VOLPAN 1.00000000000000 0.00000000000000 -1.00000000000000 -1.00000000000000 1.00000000000000
    MUTESOLO 0 0 0
    IPHASE 0
    ISBUS 0 0
    BUSCOMP 0 0
    SHOWINMIX 1 0.666700 0.500000 1 0.500000 -1 -1 -1
    FREEMODE 0
    SEL 0
    REC 0 0 0 0 0 0 0
    VU 2
    TRACKHEIGHT 0 0
    INQ 0 0 0 0.5000000000 100 0 0 100
    NCHAN 2
    FX 0
    TRACKID {A500120B-4D81-4300-AEDB-5676A11C6EF9}
    PERF 0
    MIDIOUT -1
    <MIDINOTENAMES
      0 127 "Trill Marker"
      0 126 "Tremolo Marker"
      0 125 "BRE"
      0 124 "BRE"
      0 123 "BRE"
      0 122 "BRE"
      0 121 "BRE"
      0 120 "BRE (use all 6)"
      0 119 "-----------"
      0 116 "OVERDRIVE"
      0 115 "Solo Marker"
      0 109 "-----------"
      0 108 "Fret Hand Position"
      0 107 "Force Chord Numbering"
      0 106 "Loose Strumming"
      0 105 "Strum Direction"
      0 104 "Arpeggio Marker"
      0 103 "Slide Marker"
      0 102 "Force HOPO"
      0 101 "EXPERT e String"
      0 100 "EXPERT B String"
      0 99 "EXPERT G String"
      0 98 "EXPERT D String"
      0 97 "EXPERT A String"
      0 96 "EXPERT E String"
      0 95 "-----------"
      0 82 "Loose Strumming"
      0 81 "Strum Direction"
      0 80 "Arpeggio Marker"
      0 79 "Slide Marker"
      0 78 "Force HOPO"
      0 77 "HARD e String"
      0 76 "HARD B String"
      0 75 "HARD G String"
      0 74 "HARD D String"
      0 73 "HARD A String"
      0 72 "HARD E String"
      0 71 "-----------"
      0 58 "Loose Strumming"
      0 56 "Arpeggio Marker"
      0 55 "Slide Marker"
      0 53 "MEDIUM e String"
      0 52 "MEDIUM B String"
      0 51 "MEDIUM G String"
      0 50 "MEDIUM D String"
      0 49 "MEDIUM A String"
      0 48 "MEDIUM E String"
      0 47 "-----------"
      0 32 "Arpeggio Marker"
      0 31 "Slide Marker"
      0 29 "EASY e String"
      0 28 "EASY B String"
      0 27 "EASY G String"
      0 26 "EASY D String"
      0 25 "EASY A String"
      0 24 "EASY E String"
      0 21 "-----------"
      0 18 "Flat/Sharp Swap"
      0 17 "Hide Chord Names"
      0 16 "Slash Chord"
      0 15 "D#"
      0 14 "D"
      0 13 "C#"
      0 12 "C"
      0 11 "B"
      0 10 "A#"
      0 9 "A"
      0 8 "G#"
      0 7 "G"
      0 6 "F#"
      0 5 "F"
      0 4 "E"
    >
    MAINSEND 1 0
    <FXCHAIN
      WNDRECT 0 43 655 467
      SHOW 0
      LASTSEL 2
      DOCKED 0
      BYPASS 0 0
      <JS "c3/progtr" ""
        0.000000 3.000000 0.000000 0.000000 0.000000 0.000000 0.000000 0.000000 0.000000 1.000000 - - - - - - - - - - - - - - - - - - - - - - - - - - - - - - - - - - - - - - - - - - - - - - - - - - - - - - 
      >
      FLOATPOS 0 0 0 0
      FXID {A46CCEE2-A51D-4682-A067-64090CFB3408}
      WAK 0
      BYPASS 0 0
      <JS "MIDI/midi_transpose" ""
        -12.000000 1.000000 0.000000 127.000000 - - - - - - - - - - - - - - - - - - - - - - - - - - - - - - - - - - - - - - - - - - - - - - - - - - - - - - - - - - - - 
      >
      FLOATPOS 0 0 0 0
      FXID {B3B4553A-B2E0-4173-B953-C59E4119A660}
      WAK 0
      BYPASS 0 0
      <VST "VSTi: ReaSynth (Cockos)" "reasynth.dll" 0 ""
        eXNlcu9e7f4AAAAAAgAAAAEAAAAAAAAAAgAAAAAAAAA4AAAAAAAAAA==
        AAAQAO++rd4N8K3eppvEO+gJMjwAAAAAAAAAAAAAgD8AAIA/4jAEPA==
        AAAAAAAAAD+01hM+j8L1PQAAAD8AABAAAAA=
      >
      FLOATPOS 0 0 0 0
      FXID {EB64865B-A194-49AA-87FD-7E166D1E383C}
      WAK 0
    >
    <ITEM
      POSITION 0.00000000000000
      SNAPOFFS 0.00000000000000
      LENGTH 128.64099999999999
      LOOP 0
      ALLTAKES 0
      SEL 0
      FADEIN 1 0.000000 0.000000 1 0
      FADEOUT 1 0.000000 0.000000 1 0
      MUTE 0
      IGUID {A4F197A6-C146-4250-935B-B2C75779E59C}
      IID 3
      NAME "PART REAL_BASS"
      VOLPAN 1.000000 0.000000 1.000000 -1.000000
      SOFFS 0.00000000000000 0.00000000000000
      PLAYRATE 1.00000000000000 1 0.00000000000000 -1
      CHANMODE 0
      GUID {E3BFA2F4-3822-4787-940D-67BC2653E95C}
      <SOURCE MIDI
        HASDATA 1 480 QN
        POOLEDEVTS {275FC0D3-56C4-4D99-ADEA-79A78C6121DA}
        <X 0 0
          /wNQQVJUIFJFQUxfQkFTUw==
        >
        E 3840 90 1b 66
        E 0 90 33 66
        E 0 90 4b 66
        E 0 90 63 66
        E 0 90 6c 66
        E 120 80 1b 00
        E 0 80 33 00
        E 0 80 6c 00
        E 240 80 4b 00
        E 0 80 63 00
        E 120 90 1b 66
        E 0 90 33 66
        E 0 90 4b 66
        E 0 90 63 66
        E 120 80 1b 00
        E 0 80 33 00
        E 240 80 4b 00
        E 0 80 63 00
        E 120 90 1b 66
        E 0 90 33 66
        E 0 90 4b 66
        E 0 90 63 66
        E 120 80 1b 00
        E 0 80 33 00
        E 240 80 4b 00
        E 0 80 63 00
        E 120 90 33 66
        E 0 90 4b 66
        E 0 90 63 66
        E 120 80 33 00
        E 240 80 4b 00
        E 0 80 63 00
        E 120 90 1a 64
        E 0 90 32 64
        E 0 90 4a 64
        E 0 90 62 64
        E 120 80 1a 00
        E 0 80 32 00
        E 240 80 4a 00
        E 0 80 62 00
        E 120 90 32 64
        E 0 90 4a 64
        E 0 90 62 64
        E 120 80 32 00
        E 240 80 4a 00
        E 0 80 62 00
        E 120 90 1b 66
        E 0 90 33 66
        E 0 90 4b 66
        E 0 90 63 66
        E 120 80 1b 00
        E 0 80 33 00
        E 240 80 4b 00
        E 0 80 63 00
        E 120 90 33 66
        E 0 90 4b 66
        E 0 90 63 66
        E 120 80 33 00
        E 240 80 4b 00
        E 0 80 63 00
        E 120 90 1a 66
        E 0 90 32 66
        E 0 90 4a 66
        E 0 90 62 66
        E 120 80 1a 00
        E 0 80 32 00
        E 240 80 4a 00
        E 0 80 62 00
        E 120 90 32 66
        E 0 90 4a 66
        E 0 90 62 66
        E 120 80 32 00
        E 240 80 4a 00
        E 0 80 62 00
        E 120 90 1b 66
        E 0 90 33 66
        E 0 90 4b 66
        E 0 90 63 66
        E 120 80 1b 00
        E 0 80 33 00
        E 240 80 4b 00
        E 0 80 63 00
        E 120 90 1b 66
        E 0 90 33 66
        E 0 90 4b 66
        E 0 90 63 66
        E 120 80 1b 00
        E 0 80 33 00
        E 240 80 4b 00
        E 0 80 63 00
        E 120 90 1b 66
        E 0 90 33 66
        E 0 90 4b 66
        E 0 90 63 66
        E 120 80 1b 00
        E 0 80 33 00
        E 240 80 4b 00
        E 0 80 63 00
        E 120 90 33 66
        E 0 90 4b 66
        E 0 90 63 66
        E 120 80 33 00
        E 240 80 4b 00
        E 0 80 63 00
        E 120 90 1a 64
        E 0 90 32 64
        E 0 90 4a 64
        E 0 90 62 64
        E 120 80 1a 00
        E 0 80 32 00
        E 240 80 4a 00
        E 0 80 62 00
        E 120 90 32 64
        E 0 90 4a 64
        E 0 90 62 64
        E 120 80 32 00
        E 240 80 4a 00
        E 0 80 62 00
        E 120 90 1b 66
        E 0 90 33 66
        E 0 90 4b 66
        E 0 90 63 66
        E 120 80 1b 00
        E 0 80 33 00
        E 240 80 4b 00
        E 0 80 63 00
        E 120 90 33 66
        E 0 90 4b 66
        E 0 90 63 66
        E 120 80 33 00
        E 239 80 4b 00
        E 0 80 63 00
        E 121 90 1a 66
        E 0 90 32 66
        E 0 90 4a 66
        E 0 90 62 66
        E 120 80 1a 00
        E 0 80 32 00
        E 240 80 4a 00
        E 0 80 62 00
        E 120 90 32 66
        E 0 90 4a 66
        E 0 90 62 66
        E 120 80 32 00
        E 240 80 4a 00
        E 0 80 62 00
        E 120 90 1b 66
        E 0 90 33 66
        E 0 90 4b 66
        E 0 90 63 66
        E 120 80 1b 00
        E 0 80 33 00
        E 240 80 4b 00
        E 0 80 63 00
        E 120 90 1b 66
        E 0 90 33 66
        E 0 90 4b 66
        E 0 90 63 66
        E 120 80 1b 00
        E 0 80 33 00
        E 240 80 4b 00
        E 0 80 63 00
        E 120 90 1b 66
        E 0 90 33 66
        E 0 90 4b 66
        E 0 90 63 66
        E 120 80 1b 00
        E 0 80 33 00
        E 240 80 4b 00
        E 0 80 63 00
        E 120 90 33 66
        E 0 90 4b 66
        E 0 90 63 66
        E 120 80 33 00
        E 240 80 4b 00
        E 0 80 63 00
        E 120 90 1a 64
        E 0 90 32 64
        E 0 90 4a 64
        E 0 90 62 64
        E 120 80 1a 00
        E 0 80 32 00
        E 240 80 4a 00
        E 0 80 62 00
        E 120 90 32 64
        E 0 90 4a 64
        E 0 90 62 64
        E 120 80 32 00
        E 240 80 4a 00
        E 0 80 62 00
        E 120 90 1b 66
        E 0 90 33 66
        E 0 90 4b 66
        E 0 90 63 66
        E 120 80 1b 00
        E 0 80 33 00
        E 240 80 4b 00
        E 0 80 63 00
        E 120 90 33 66
        E 0 90 4b 66
        E 0 90 63 66
        E 120 80 33 00
        E 239 80 4b 00
        E 0 80 63 00
        E 121 90 1a 66
        E 0 90 32 66
        E 0 90 4a 66
        E 0 90 62 66
        E 120 80 1a 00
        E 0 80 32 00
        E 240 80 4a 00
        E 0 80 62 00
        E 120 90 32 66
        E 0 90 4a 66
        E 0 90 62 66
        E 120 80 32 00
        E 240 80 4a 00
        E 0 80 62 00
        E 120 90 1b 66
        E 0 90 33 66
        E 0 90 4b 66
        E 0 90 63 66
        E 120 80 1b 00
        E 0 80 33 00
        E 240 80 4b 00
        E 0 80 63 00
        E 120 90 1b 66
        E 0 90 33 66
        E 0 90 4b 66
        E 0 90 63 66
        E 120 80 1b 00
        E 0 80 33 00
        E 240 80 4b 00
        E 0 80 63 00
        E 120 90 1b 66
        E 0 90 33 66
        E 0 90 4b 66
        E 0 90 63 66
        E 120 80 1b 00
        E 0 80 33 00
        E 240 80 4b 00
        E 0 80 63 00
        E 120 90 1b 66
        E 0 90 33 66
        E 0 90 4b 66
        E 0 90 63 66
        E 120 80 1b 00
        E 0 80 33 00
        E 240 80 4b 00
        E 0 80 63 00
        E 120 90 1b 64
        E 0 90 33 64
        E 0 90 4b 64
        E 0 90 63 64
        E 120 80 1b 00
        E 0 80 33 00
        E 240 80 4b 00
        E 0 80 63 00
        E 120 90 33 64
        E 0 90 4b 64
        E 0 90 63 64
        E 120 80 33 00
        E 240 80 4b 00
        E 0 80 63 00
        E 120 90 1a 64
        E 0 90 32 64
        E 0 90 4a 64
        E 0 90 62 64
        E 120 80 1a 00
        E 0 80 32 00
        E 240 80 4a 00
        E 0 80 62 00
        E 120 90 32 64
        E 0 90 4a 64
        E 0 90 62 64
        E 120 80 32 00
        E 240 80 4a 00
        E 0 80 62 00
        E 120 90 1a 66
        E 0 90 32 66
        E 0 90 4a 66
        E 0 90 62 66
        E 120 80 1a 00
        E 0 80 32 00
        E 240 80 4a 00
        E 0 80 62 00
        E 120 90 32 66
        E 0 90 4a 66
        E 0 90 62 66
        E 120 80 32 00
        E 240 80 4a 00
        E 0 80 62 00
        E 120 90 1a 69
        E 0 90 32 69
        E 0 90 4a 69
        E 0 90 62 69
        E 0 90 74 64
        E 120 80 1a 00
        E 0 80 32 00
        E 240 80 4a 00
        E 0 80 62 00
        E 120 90 1a 69
        E 0 90 32 69
        E 0 90 4a 69
        E 0 90 62 69
        E 120 80 1a 00
        E 0 80 32 00
        E 240 80 4a 00
        E 0 80 62 00
        E 120 90 1a 68
        E 0 90 32 68
        E 0 90 4a 68
        E 0 90 62 68
        E 120 80 1a 00
        E 0 80 32 00
        E 240 80 4a 00
        E 0 80 62 00
        E 120 90 32 68
        E 0 90 4a 68
        E 0 90 62 68
        E 120 80 32 00
        E 240 80 4a 00
        E 0 80 62 00
        E 120 90 1a 66
        E 0 90 32 66
        E 0 90 4a 66
        E 0 90 62 66
        E 120 80 1a 00
        E 0 80 32 00
        E 240 80 4a 00
        E 0 80 62 00
        E 120 90 32 66
        E 0 90 4a 66
        E 0 90 62 66
        E 120 80 32 00
        E 240 80 4a 00
        E 0 80 62 00
        E 120 90 1a 64
        E 0 90 32 64
        E 0 90 4a 64
        E 0 90 62 64
        E 120 80 1a 00
        E 0 80 32 00
        E 240 80 4a 00
        E 0 80 62 00
        E 120 90 32 64
        E 0 90 4a 64
        E 0 90 62 64
        E 120 80 32 00
        E 240 80 4a 00
        E 0 80 62 00
        E 120 90 1a 66
        E 0 90 32 66
        E 0 90 4a 66
        E 0 90 62 66
        E 120 80 1a 00
        E 0 80 32 00
        E 240 80 4a 00
        E 0 80 62 00
        E 120 90 32 66
        E 0 90 4a 66
        E 0 90 62 66
        E 120 80 32 00
        E 240 80 4a 00
        E 0 80 62 00
        E 120 90 33 66
        E 0 90 4b 66
        E 0 90 63 66
        E 120 80 74 00
        E 0 80 33 00
        E 240 80 4b 00
        E 0 80 63 00
        E 120 90 33 66
        E 0 90 4b 66
        E 0 90 63 66
        E 120 80 33 00
        E 240 80 4b 00
        E 0 80 63 00
        E 120 90 1b 64
        E 0 90 33 64
        E 0 90 4b 64
        E 0 90 63 64
        E 120 80 1b 00
        E 0 80 33 00
        E 240 80 4b 00
        E 0 80 63 00
        E 120 90 33 64
        E 0 90 4b 64
        E 0 90 63 64
        E 120 80 33 00
        E 240 80 4b 00
        E 0 80 63 00
        E 120 90 1a 64
        E 0 90 32 64
        E 0 90 4a 64
        E 0 90 62 64
        E 120 80 1a 00
        E 0 80 32 00
        E 240 80 4a 00
        E 0 80 62 00
        E 120 90 32 64
        E 0 90 4a 64
        E 0 90 62 64
        E 120 80 32 00
        E 240 80 4a 00
        E 0 80 62 00
        E 120 90 1a 66
        E 0 90 32 66
        E 0 90 4a 66
        E 0 90 62 66
        E 120 80 1a 00
        E 0 80 32 00
        E 240 80 4a 00
        E 0 80 62 00
        E 120 90 32 66
        E 0 90 4a 66
        E 0 90 62 66
        E 120 80 32 00
        E 240 80 4a 00
        E 0 80 62 00
        E 120 90 33 66
        E 0 90 4b 66
        E 0 90 63 66
        E 120 80 33 00
        E 240 80 4b 00
        E 0 80 63 00
        E 120 90 33 66
        E 0 90 4b 66
        E 0 90 63 66
        E 120 80 33 00
        E 240 80 4b 00
        E 0 80 63 00
        E 120 90 1b 64
        E 0 90 33 64
        E 0 90 4b 64
        E 0 90 63 64
        E 120 80 1b 00
        E 0 80 33 00
        E 240 80 4b 00
        E 0 80 63 00
        E 120 90 33 64
        E 0 90 4b 64
        E 0 90 63 64
        E 120 80 33 00
        E 240 80 4b 00
        E 0 80 63 00
        E 120 90 1a 64
        E 0 90 32 64
        E 0 90 4a 64
        E 0 90 62 64
        E 120 80 1a 00
        E 0 80 32 00
        E 240 80 4a 00
        E 0 80 62 00
        E 120 90 32 64
        E 0 90 4a 64
        E 0 90 62 64
        E 120 80 32 00
        E 240 80 4a 00
        E 0 80 62 00
        E 120 90 1a 66
        E 0 90 32 66
        E 0 90 4a 66
        E 0 90 62 66
        E 120 80 1a 00
        E 0 80 32 00
        E 240 80 4a 00
        E 0 80 62 00
        E 120 90 32 66
        E 0 90 4a 66
        E 0 90 62 66
        E 120 80 32 00
        E 240 80 4a 00
        E 0 80 62 00
        E 120 90 33 66
        E 0 90 4b 66
        E 0 90 63 66
        E 0 90 74 64
        E 120 80 33 00
        E 240 80 4b 00
        E 0 80 63 00
        E 120 90 33 66
        E 0 90 4b 66
        E 0 90 63 66
        E 120 80 33 00
        E 240 80 4b 00
        E 0 80 63 00
        E 120 90 1b 64
        E 0 90 33 64
        E 0 90 4b 64
        E 0 90 63 64
        E 120 80 1b 00
        E 0 80 33 00
        E 240 80 4b 00
        E 0 80 63 00
        E 120 90 33 64
        E 0 90 4b 64
        E 0 90 63 64
        E 120 80 33 00
        E 240 80 4b 00
        E 0 80 63 00
        E 120 90 1a 64
        E 0 90 32 64
        E 0 90 4a 64
        E 0 90 62 64
        E 120 80 1a 00
        E 0 80 32 00
        E 240 80 4a 00
        E 0 80 62 00
        E 120 90 32 64
        E 0 90 4a 64
        E 0 90 62 64
        E 120 80 32 00
        E 240 80 4a 00
        E 0 80 62 00
        E 120 90 1a 66
        E 0 90 32 66
        E 0 90 4a 66
        E 0 90 62 66
        E 120 80 1a 00
        E 0 80 32 00
        E 240 80 4a 00
        E 0 80 62 00
        E 120 90 32 66
        E 0 90 4a 66
        E 0 90 62 66
        E 120 80 32 00
        E 240 80 4a 00
        E 0 80 62 00
        E 120 90 1b 66
        E 0 90 33 66
        E 0 90 4b 66
        E 0 90 63 66
        E 120 80 1b 00
        E 0 80 33 00
        E 240 80 74 00
        E 0 80 4b 00
        E 0 80 63 00
        E 120 90 1b 66
        E 0 90 33 66
        E 0 90 4b 66
        E 0 90 63 66
        E 120 80 1b 00
        E 0 80 33 00
        E 240 80 4b 00
        E 0 80 63 00
        E 120 90 1b 66
        E 0 90 33 66
        E 0 90 4b 66
        E 0 90 63 66
        E 120 80 1b 00
        E 0 80 33 00
        E 240 80 4b 00
        E 0 80 63 00
        E 120 90 33 66
        E 0 90 4b 66
        E 0 90 63 66
        E 120 80 33 00
        E 240 80 4b 00
        E 0 80 63 00
        E 120 90 1a 64
        E 0 90 32 64
        E 0 90 4a 64
        E 0 90 62 64
        E 120 80 1a 00
        E 0 80 32 00
        E 240 80 4a 00
        E 0 80 62 00
        E 120 90 32 64
        E 0 90 4a 64
        E 0 90 62 64
        E 120 80 32 00
        E 240 80 4a 00
        E 0 80 62 00
        E 120 90 1b 66
        E 0 90 33 66
        E 0 90 4b 66
        E 0 90 63 66
        E 120 80 1b 00
        E 0 80 33 00
        E 240 80 4b 00
        E 0 80 63 00
        E 120 90 33 66
        E 0 90 4b 66
        E 0 90 63 66
        E 120 80 33 00
        E 240 80 4b 00
        E 0 80 63 00
        E 120 90 1a 66
        E 0 90 32 66
        E 0 90 4a 66
        E 0 90 62 66
        E 120 80 1a 00
        E 0 80 32 00
        E 240 80 4a 00
        E 0 80 62 00
        E 120 90 32 66
        E 0 90 4a 66
        E 0 90 62 66
        E 120 80 32 00
        E 240 80 4a 00
        E 0 80 62 00
        E 120 90 1b 66
        E 0 90 33 66
        E 0 90 4b 66
        E 0 90 63 66
        E 120 80 1b 00
        E 0 80 33 00
        E 240 80 4b 00
        E 0 80 63 00
        E 120 90 1b 66
        E 0 90 33 66
        E 0 90 4b 66
        E 0 90 63 66
        E 120 80 1b 00
        E 0 80 33 00
        E 240 80 4b 00
        E 0 80 63 00
        E 120 90 1b 66
        E 0 90 33 66
        E 0 90 4b 66
        E 0 90 63 66
        E 120 80 1b 00
        E 0 80 33 00
        E 240 80 4b 00
        E 0 80 63 00
        E 120 90 33 66
        E 0 90 4b 66
        E 0 90 63 66
        E 120 80 33 00
        E 240 80 4b 00
        E 0 80 63 00
        E 120 90 1a 64
        E 0 90 32 64
        E 0 90 4a 64
        E 0 90 62 64
        E 120 80 1a 00
        E 0 80 32 00
        E 240 80 4a 00
        E 0 80 62 00
        E 120 90 32 64
        E 0 90 4a 64
        E 0 90 62 64
        E 120 80 32 00
        E 240 80 4a 00
        E 0 80 62 00
        E 120 90 1b 66
        E 0 90 33 66
        E 0 90 4b 66
        E 0 90 63 66
        E 120 80 1b 00
        E 0 80 33 00
        E 240 80 4b 00
        E 0 80 63 00
        E 120 90 33 66
        E 0 90 4b 66
        E 0 90 63 66
        E 120 80 33 00
        E 239 80 4b 00
        E 0 80 63 00
        E 121 90 1a 66
        E 0 90 32 66
        E 0 90 4a 66
        E 0 90 62 66
        E 120 80 1a 00
        E 0 80 32 00
        E 240 80 4a 00
        E 0 80 62 00
        E 120 90 32 66
        E 0 90 4a 66
        E 0 90 62 66
        E 120 80 32 00
        E 240 80 4a 00
        E 0 80 62 00
        E 120 90 1b 66
        E 0 90 33 66
        E 0 90 4b 66
        E 0 90 63 66
        E 120 80 1b 00
        E 0 80 33 00
        E 240 80 4b 00
        E 0 80 63 00
        E 120 90 1b 66
        E 0 90 33 66
        E 0 90 4b 66
        E 0 90 63 66
        E 120 80 1b 00
        E 0 80 33 00
        E 240 80 4b 00
        E 0 80 63 00
        E 120 90 1b 66
        E 0 90 33 66
        E 0 90 4b 66
        E 0 90 63 66
        E 120 80 1b 00
        E 0 80 33 00
        E 240 80 4b 00
        E 0 80 63 00
        E 120 90 33 66
        E 0 90 4b 66
        E 0 90 63 66
        E 120 80 33 00
        E 240 80 4b 00
        E 0 80 63 00
        E 120 90 1a 64
        E 0 90 32 64
        E 0 90 4a 64
        E 0 90 62 64
        E 120 80 1a 00
        E 0 80 32 00
        E 240 80 4a 00
        E 0 80 62 00
        E 120 90 32 64
        E 0 90 4a 64
        E 0 90 62 64
        E 120 80 32 00
        E 240 80 4a 00
        E 0 80 62 00
        E 120 90 1b 66
        E 0 90 33 66
        E 0 90 4b 66
        E 0 90 63 66
        E 120 80 1b 00
        E 0 80 33 00
        E 240 80 4b 00
        E 0 80 63 00
        E 120 90 33 66
        E 0 90 4b 66
        E 0 90 63 66
        E 120 80 33 00
        E 239 80 4b 00
        E 0 80 63 00
        E 121 90 1a 66
        E 0 90 32 66
        E 0 90 4a 66
        E 0 90 62 66
        E 120 80 1a 00
        E 0 80 32 00
        E 240 80 4a 00
        E 0 80 62 00
        E 120 90 32 66
        E 0 90 4a 66
        E 0 90 62 66
        E 120 80 32 00
        E 240 80 4a 00
        E 0 80 62 00
        E 120 90 1b 66
        E 0 90 33 66
        E 0 90 4b 66
        E 0 90 63 66
        E 120 80 1b 00
        E 0 80 33 00
        E 240 80 4b 00
        E 0 80 63 00
        E 120 90 1b 66
        E 0 90 33 66
        E 0 90 4b 66
        E 0 90 63 66
        E 120 80 1b 00
        E 0 80 33 00
        E 240 80 4b 00
        E 0 80 63 00
        E 120 90 1b 66
        E 0 90 33 66
        E 0 90 4b 66
        E 0 90 63 66
        E 120 80 1b 00
        E 0 80 33 00
        E 240 80 4b 00
        E 0 80 63 00
        E 120 90 1b 66
        E 0 90 33 66
        E 0 90 4b 66
        E 0 90 63 66
        E 120 80 1b 00
        E 0 80 33 00
        E 240 80 4b 00
        E 0 80 63 00
        E 120 90 1b 64
        E 0 90 33 64
        E 0 90 4b 64
        E 0 90 63 64
        E 120 80 1b 00
        E 0 80 33 00
        E 240 80 4b 00
        E 0 80 63 00
        E 120 90 33 64
        E 0 90 4b 64
        E 0 90 63 64
        E 120 80 33 00
        E 240 80 4b 00
        E 0 80 63 00
        E 120 90 1a 64
        E 0 90 32 64
        E 0 90 4a 64
        E 0 90 62 64
        E 120 80 1a 00
        E 0 80 32 00
        E 240 80 4a 00
        E 0 80 62 00
        E 120 90 32 64
        E 0 90 4a 64
        E 0 90 62 64
        E 120 80 32 00
        E 240 80 4a 00
        E 0 80 62 00
        E 120 90 1a 66
        E 0 90 32 66
        E 0 90 4a 66
        E 0 90 62 66
        E 120 80 1a 00
        E 0 80 32 00
        E 240 80 4a 00
        E 0 80 62 00
        E 120 90 32 66
        E 0 90 4a 66
        E 0 90 62 66
        E 120 80 32 00
        E 240 80 4a 00
        E 0 80 62 00
        E 120 90 1a 69
        E 0 90 32 69
        E 0 90 4a 69
        E 0 90 62 69
        E 0 90 74 64
        E 120 80 1a 00
        E 0 80 32 00
        E 240 80 4a 00
        E 0 80 62 00
        E 120 90 1a 69
        E 0 90 32 69
        E 0 90 4a 69
        E 0 90 62 69
        E 120 80 1a 00
        E 0 80 32 00
        E 240 80 4a 00
        E 0 80 62 00
        E 120 90 1a 68
        E 0 90 32 68
        E 0 90 4a 68
        E 0 90 62 68
        E 120 80 1a 00
        E 0 80 32 00
        E 240 80 4a 00
        E 0 80 62 00
        E 120 90 32 68
        E 0 90 4a 68
        E 0 90 62 68
        E 120 80 32 00
        E 240 80 4a 00
        E 0 80 62 00
        E 120 90 1a 66
        E 0 90 32 66
        E 0 90 4a 66
        E 0 90 62 66
        E 120 80 1a 00
        E 0 80 32 00
        E 240 80 4a 00
        E 0 80 62 00
        E 120 90 32 66
        E 0 90 4a 66
        E 0 90 62 66
        E 120 80 32 00
        E 240 80 4a 00
        E 0 80 62 00
        E 120 90 1a 64
        E 0 90 32 64
        E 0 90 4a 64
        E 0 90 62 64
        E 120 80 1a 00
        E 0 80 32 00
        E 240 80 4a 00
        E 0 80 62 00
        E 120 90 32 64
        E 0 90 4a 64
        E 0 90 62 64
        E 120 80 32 00
        E 240 80 4a 00
        E 0 80 62 00
        E 120 90 1a 66
        E 0 90 32 66
        E 0 90 4a 66
        E 0 90 62 66
        E 120 80 1a 00
        E 0 80 32 00
        E 240 80 4a 00
        E 0 80 62 00
        E 120 90 32 66
        E 0 90 4a 66
        E 0 90 62 66
        E 120 80 32 00
        E 240 80 4a 00
        E 0 80 62 00
        E 120 90 33 66
        E 0 90 4b 66
        E 0 90 63 66
        E 120 80 74 00
        E 0 80 33 00
        E 240 80 4b 00
        E 0 80 63 00
        E 120 90 33 66
        E 0 90 4b 66
        E 0 90 63 66
        E 120 80 33 00
        E 240 80 4b 00
        E 0 80 63 00
        E 120 90 1b 64
        E 0 90 33 64
        E 0 90 4b 64
        E 0 90 63 64
        E 120 80 1b 00
        E 0 80 33 00
        E 240 80 4b 00
        E 0 80 63 00
        E 120 90 33 64
        E 0 90 4b 64
        E 0 90 63 64
        E 120 80 33 00
        E 240 80 4b 00
        E 0 80 63 00
        E 120 90 1a 64
        E 0 90 32 64
        E 0 90 4a 64
        E 0 90 62 64
        E 120 80 1a 00
        E 0 80 32 00
        E 240 80 4a 00
        E 0 80 62 00
        E 120 90 32 64
        E 0 90 4a 64
        E 0 90 62 64
        E 120 80 32 00
        E 240 80 4a 00
        E 0 80 62 00
        E 120 90 1a 66
        E 0 90 32 66
        E 0 90 4a 66
        E 0 90 62 66
        E 120 80 1a 00
        E 0 80 32 00
        E 240 80 4a 00
        E 0 80 62 00
        E 120 90 32 66
        E 0 90 4a 66
        E 0 90 62 66
        E 120 80 32 00
        E 240 80 4a 00
        E 0 80 62 00
        E 120 90 33 66
        E 0 90 4b 66
        E 0 90 63 66
        E 120 80 33 00
        E 240 80 4b 00
        E 0 80 63 00
        E 120 90 33 66
        E 0 90 4b 66
        E 0 90 63 66
        E 120 80 33 00
        E 240 80 4b 00
        E 0 80 63 00
        E 120 90 1b 64
        E 0 90 33 64
        E 0 90 4b 64
        E 0 90 63 64
        E 120 80 1b 00
        E 0 80 33 00
        E 240 80 4b 00
        E 0 80 63 00
        E 120 90 33 64
        E 0 90 4b 64
        E 0 90 63 64
        E 120 80 33 00
        E 240 80 4b 00
        E 0 80 63 00
        E 120 90 1a 64
        E 0 90 32 64
        E 0 90 4a 64
        E 0 90 62 64
        E 120 80 1a 00
        E 0 80 32 00
        E 240 80 4a 00
        E 0 80 62 00
        E 120 90 32 64
        E 0 90 4a 64
        E 0 90 62 64
        E 120 80 32 00
        E 240 80 4a 00
        E 0 80 62 00
        E 120 90 1a 66
        E 0 90 32 66
        E 0 90 4a 66
        E 0 90 62 66
        E 120 80 1a 00
        E 0 80 32 00
        E 240 80 4a 00
        E 0 80 62 00
        E 120 90 32 66
        E 0 90 4a 66
        E 0 90 62 66
        E 120 80 32 00
        E 240 80 4a 00
        E 0 80 62 00
        E 120 90 33 66
        E 0 90 4b 66
        E 0 90 63 66
        E 120 80 33 00
        E 240 80 4b 00
        E 0 80 63 00
        E 120 90 33 66
        E 0 90 4b 66
        E 0 90 63 66
        E 120 80 33 00
        E 240 80 4b 00
        E 0 80 63 00
        E 120 90 1b 64
        E 0 90 33 64
        E 0 90 4b 64
        E 0 90 63 64
        E 120 80 1b 00
        E 0 80 33 00
        E 240 80 4b 00
        E 0 80 63 00
        E 120 90 33 64
        E 0 90 4b 64
        E 0 90 63 64
        E 120 80 33 00
        E 240 80 4b 00
        E 0 80 63 00
        E 120 90 1a 64
        E 0 90 32 64
        E 0 90 4a 64
        E 0 90 62 64
        E 120 80 1a 00
        E 0 80 32 00
        E 240 80 4a 00
        E 0 80 62 00
        E 120 90 32 64
        E 0 90 4a 64
        E 0 90 62 64
        E 120 80 32 00
        E 240 80 4a 00
        E 0 80 62 00
        E 120 90 1a 66
        E 0 90 32 66
        E 0 90 4a 66
        E 0 90 62 66
        E 120 80 1a 00
        E 0 80 32 00
        E 240 80 4a 00
        E 0 80 62 00
        E 120 90 32 66
        E 0 90 4a 66
        E 0 90 62 66
        E 120 80 32 00
        E 240 80 4a 00
        E 0 80 62 00
        E 120 90 1b 66
        E 0 90 33 66
        E 0 90 4b 66
        E 0 90 63 66
        E 120 80 1b 00
        E 0 80 33 00
        E 240 80 4b 00
        E 0 80 63 00
        E 120 90 1b 66
        E 0 90 33 66
        E 0 90 4b 66
        E 0 90 63 66
        E 120 80 1b 00
        E 0 80 33 00
        E 240 80 4b 00
        E 0 80 63 00
        E 120 90 1b 66
        E 0 90 33 66
        E 0 90 4b 66
        E 0 90 63 66
        E 120 80 1b 00
        E 0 80 33 00
        E 240 80 4b 00
        E 0 80 63 00
        E 120 90 33 66
        E 0 90 4b 66
        E 0 90 63 66
        E 120 80 33 00
        E 240 80 4b 00
        E 0 80 63 00
        E 120 90 1a 64
        E 0 90 32 64
        E 0 90 4a 64
        E 0 90 62 64
        E 0 90 74 64
        E 120 80 1a 00
        E 0 80 32 00
        E 240 80 4a 00
        E 0 80 62 00
        E 120 90 32 64
        E 0 90 4a 64
        E 0 90 62 64
        E 120 80 32 00
        E 240 80 4a 00
        E 0 80 62 00
        E 120 90 1b 66
        E 0 90 33 66
        E 0 90 4b 66
        E 0 90 63 66
        E 120 80 1b 00
        E 0 80 33 00
        E 240 80 4b 00
        E 0 80 63 00
        E 120 90 33 66
        E 0 90 4b 66
        E 0 90 63 66
        E 120 80 33 00
        E 240 80 4b 00
        E 0 80 63 00
        E 120 90 1a 66
        E 0 90 32 66
        E 0 90 4a 66
        E 0 90 62 66
        E 120 80 1a 00
        E 0 80 32 00
        E 240 80 4a 00
        E 0 80 62 00
        E 120 90 32 66
        E 0 90 4a 66
        E 0 90 62 66
        E 120 80 32 00
        E 240 80 4a 00
        E 0 80 62 00
        E 120 90 1b 66
        E 0 90 33 66
        E 0 90 4b 66
        E 0 90 63 66
        E 120 80 1b 00
        E 0 80 33 00
        E 240 80 74 00
        E 0 80 4b 00
        E 0 80 63 00
        E 120 90 1b 66
        E 0 90 33 66
        E 0 90 4b 66
        E 0 90 63 66
        E 120 80 1b 00
        E 0 80 33 00
        E 240 80 4b 00
        E 0 80 63 00
        E 120 90 1b 66
        E 0 90 33 66
        E 0 90 4b 66
        E 0 90 63 66
        E 120 80 1b 00
        E 0 80 33 00
        E 240 80 4b 00
        E 0 80 63 00
        E 120 90 33 66
        E 0 90 4b 66
        E 0 90 63 66
        E 120 80 33 00
        E 240 80 4b 00
        E 0 80 63 00
        E 120 90 1a 64
        E 0 90 32 64
        E 0 90 4a 64
        E 0 90 62 64
        E 120 80 1a 00
        E 0 80 32 00
        E 240 80 4a 00
        E 0 80 62 00
        E 120 90 32 64
        E 0 90 4a 64
        E 0 90 62 64
        E 120 80 32 00
        E 240 80 4a 00
        E 0 80 62 00
        E 120 90 1b 66
        E 0 90 33 66
        E 0 90 4b 66
        E 0 90 63 66
        E 120 80 1b 00
        E 0 80 33 00
        E 240 80 4b 00
        E 0 80 63 00
        E 120 90 33 66
        E 0 90 4b 66
        E 0 90 63 66
        E 120 80 33 00
        E 239 80 4b 00
        E 0 80 63 00
        E 121 90 1a 66
        E 0 90 32 66
        E 0 90 4a 66
        E 0 90 62 66
        E 120 80 1a 00
        E 0 80 32 00
        E 240 80 4a 00
        E 0 80 62 00
        E 120 90 32 66
        E 0 90 4a 66
        E 0 90 62 66
        E 120 80 32 00
        E 240 80 4a 00
        E 0 80 62 00
        E 120 90 1b 66
        E 0 90 33 66
        E 0 90 4b 66
        E 0 90 63 66
        E 120 80 1b 00
        E 0 80 33 00
        E 240 80 4b 00
        E 0 80 63 00
        E 120 90 1b 66
        E 0 90 33 66
        E 0 90 4b 66
        E 0 90 63 66
        E 120 80 1b 00
        E 0 80 33 00
        E 240 80 4b 00
        E 0 80 63 00
        E 120 90 1b 66
        E 0 90 33 66
        E 0 90 4b 66
        E 0 90 63 66
        E 120 80 1b 00
        E 0 80 33 00
        E 240 80 4b 00
        E 0 80 63 00
        E 120 90 33 66
        E 0 90 4b 66
        E 0 90 63 66
        E 120 80 33 00
        E 240 80 4b 00
        E 0 80 63 00
        E 120 90 1a 64
        E 0 90 32 64
        E 0 90 4a 64
        E 0 90 62 64
        E 120 80 1a 00
        E 0 80 32 00
        E 240 80 4a 00
        E 0 80 62 00
        E 120 90 32 64
        E 0 90 4a 64
        E 0 90 62 64
        E 120 80 32 00
        E 240 80 4a 00
        E 0 80 62 00
        E 120 90 1b 66
        E 0 90 33 66
        E 0 90 4b 66
        E 0 90 63 66
        E 120 80 1b 00
        E 0 80 33 00
        E 240 80 4b 00
        E 0 80 63 00
        E 120 90 33 66
        E 0 90 4b 66
        E 0 90 63 66
        E 120 80 33 00
        E 239 80 4b 00
        E 0 80 63 00
        E 121 90 1a 66
        E 0 90 32 66
        E 0 90 4a 66
        E 0 90 62 66
        E 120 80 1a 00
        E 0 80 32 00
        E 240 80 4a 00
        E 0 80 62 00
        E 120 90 32 66
        E 0 90 4a 66
        E 0 90 62 66
        E 120 80 32 00
        E 240 80 4a 00
        E 0 80 62 00
        E 120 90 1b 66
        E 0 90 33 66
        E 0 90 4b 66
        E 0 90 63 66
        E 120 80 1b 00
        E 0 80 33 00
        E 240 80 4b 00
        E 0 80 63 00
        E 120 90 1b 66
        E 0 90 33 66
        E 0 90 4b 66
        E 0 90 63 66
        E 120 80 1b 00
        E 0 80 33 00
        E 240 80 4b 00
        E 0 80 63 00
        E 120 90 1b 66
        E 0 90 33 66
        E 0 90 4b 66
        E 0 90 63 66
        E 120 80 1b 00
        E 0 80 33 00
        E 240 80 4b 00
        E 0 80 63 00
        E 120 90 1b 66
        E 0 90 33 66
        E 0 90 4b 66
        E 0 90 63 66
        E 120 80 1b 00
        E 0 80 33 00
        E 240 80 4b 00
        E 0 80 63 00
        E 120 90 1b 64
        E 0 90 33 64
        E 0 90 4b 64
        E 0 90 63 64
        E 0 90 74 64
        E 120 80 1b 00
        E 0 80 33 00
        E 240 80 4b 00
        E 0 80 63 00
        E 120 90 33 64
        E 0 90 4b 64
        E 0 90 63 64
        E 120 80 33 00
        E 240 80 4b 00
        E 0 80 63 00
        E 120 90 1a 64
        E 0 90 32 64
        E 0 90 4a 64
        E 0 90 62 64
        E 120 80 1a 00
        E 0 80 32 00
        E 240 80 4a 00
        E 0 80 62 00
        E 120 90 32 64
        E 0 90 4a 64
        E 0 90 62 64
        E 120 80 32 00
        E 240 80 4a 00
        E 0 80 62 00
        E 120 90 1a 66
        E 0 90 32 66
        E 0 90 4a 66
        E 0 90 62 66
        E 120 80 1a 00
        E 0 80 32 00
        E 240 80 4a 00
        E 0 80 62 00
        E 120 90 1a 66
        E 0 90 32 66
        E 0 90 4a 66
        E 0 90 62 66
        E 120 80 1a 00
        E 0 80 32 00
        E 240 80 4a 00
        E 0 80 62 00
        E 120 90 1a 66
        E 0 90 32 66
        E 0 90 4a 66
        E 0 90 62 66
        E 120 80 1a 00
        E 0 80 32 00
        E 240 80 4a 00
        E 0 80 62 00
        E 120 90 32 66
        E 0 90 4a 66
        E 0 90 62 66
        E 120 80 32 00
        E 240 80 4a 00
        E 0 80 62 00
        E 120 90 1a 69
        E 0 90 32 69
        E 0 90 4a 69
        E 0 90 62 69
        E 120 80 74 00
        E 0 80 1a 00
        E 0 80 32 00
        E 240 80 4a 00
        E 0 80 62 00
        E 120 90 1a 69
        E 0 90 32 69
        E 0 90 4a 69
        E 0 90 62 69
        E 120 80 1a 00
        E 0 80 32 00
        E 240 80 4a 00
        E 0 80 62 00
        E 120 90 1a 68
        E 0 90 32 68
        E 0 90 4a 68
        E 0 90 62 68
        E 120 80 1a 00
        E 0 80 32 00
        E 240 80 4a 00
        E 0 80 62 00
        E 120 90 32 68
        E 0 90 4a 68
        E 0 90 62 68
        E 120 80 32 00
        E 240 80 4a 00
        E 0 80 62 00
        E 120 90 1a 66
        E 0 90 32 66
        E 0 90 4a 66
        E 0 90 62 66
        E 120 80 1a 00
        E 0 80 32 00
        E 240 80 4a 00
        E 0 80 62 00
        E 120 90 32 66
        E 0 90 4a 66
        E 0 90 62 66
        E 120 80 32 00
        E 240 80 4a 00
        E 0 80 62 00
        E 120 90 1a 64
        E 0 90 32 64
        E 0 90 4a 64
        E 0 90 62 64
        E 120 80 1a 00
        E 0 80 32 00
        E 240 80 4a 00
        E 0 80 62 00
        E 120 90 32 64
        E 0 90 4a 64
        E 0 90 62 64
        E 120 80 32 00
        E 240 80 4a 00
        E 0 80 62 00
        E 120 90 1a 66
        E 0 90 32 66
        E 0 90 4a 66
        E 0 90 62 66
        E 120 80 1a 00
        E 0 80 32 00
        E 240 80 4a 00
        E 0 80 62 00
        E 120 90 32 66
        E 0 90 4a 66
        E 0 90 62 66
        E 120 80 32 00
        E 240 80 4a 00
        E 0 80 62 00
        E 120 90 33 66
        E 0 90 4b 66
        E 0 90 63 66
        E 120 80 33 00
        E 240 80 4b 00
        E 0 80 63 00
        E 120 90 33 66
        E 0 90 4b 66
        E 0 90 63 66
        E 120 80 33 00
        E 240 80 4b 00
        E 0 80 63 00
        E 120 90 1b 64
        E 0 90 33 64
        E 0 90 4b 64
        E 0 90 63 64
        E 120 80 1b 00
        E 0 80 33 00
        E 240 80 4b 00
        E 0 80 63 00
        E 120 90 33 64
        E 0 90 4b 64
        E 0 90 63 64
        E 120 80 33 00
        E 240 80 4b 00
        E 0 80 63 00
        E 120 90 1a 64
        E 0 90 32 64
        E 0 90 4a 64
        E 0 90 62 64
        E 120 80 1a 00
        E 0 80 32 00
        E 240 80 4a 00
        E 0 80 62 00
        E 120 90 32 64
        E 0 90 4a 64
        E 0 90 62 64
        E 120 80 32 00
        E 240 80 4a 00
        E 0 80 62 00
        E 120 90 1a 66
        E 0 90 32 66
        E 0 90 4a 66
        E 0 90 62 66
        E 120 80 1a 00
        E 0 80 32 00
        E 240 80 4a 00
        E 0 80 62 00
        E 120 90 32 66
        E 0 90 4a 66
        E 0 90 62 66
        E 120 80 32 00
        E 240 80 4a 00
        E 0 80 62 00
        E 120 90 33 66
        E 0 90 4b 66
        E 0 90 63 66
        E 120 80 33 00
        E 240 80 4b 00
        E 0 80 63 00
        E 120 90 33 66
        E 0 90 4b 66
        E 0 90 63 66
        E 120 80 33 00
        E 240 80 4b 00
        E 0 80 63 00
        E 120 90 1b 64
        E 0 90 33 64
        E 0 90 4b 64
        E 0 90 63 64
        E 120 80 1b 00
        E 0 80 33 00
        E 240 80 4b 00
        E 0 80 63 00
        E 120 90 33 64
        E 0 90 4b 64
        E 0 90 63 64
        E 120 80 33 00
        E 240 80 4b 00
        E 0 80 63 00
        E 120 90 1a 64
        E 0 90 32 64
        E 0 90 4a 64
        E 0 90 62 64
        E 120 80 1a 00
        E 0 80 32 00
        E 240 80 4a 00
        E 0 80 62 00
        E 120 90 32 64
        E 0 90 4a 64
        E 0 90 62 64
        E 120 80 32 00
        E 240 80 4a 00
        E 0 80 62 00
        E 120 90 1a 66
        E 0 90 32 66
        E 0 90 4a 66
        E 0 90 62 66
        E 120 80 1a 00
        E 0 80 32 00
        E 240 80 4a 00
        E 0 80 62 00
        E 120 90 32 66
        E 0 90 4a 66
        E 0 90 62 66
        E 120 80 32 00
        E 240 80 4a 00
        E 0 80 62 00
        E 120 90 33 66
        E 0 90 4b 66
        E 0 90 63 66
        E 120 80 33 00
        E 240 80 4b 00
        E 0 80 63 00
        E 120 90 33 66
        E 0 90 4b 66
        E 0 90 63 66
        E 120 80 33 00
        E 240 80 4b 00
        E 0 80 63 00
        E 120 90 1b 64
        E 0 90 33 64
        E 0 90 4b 64
        E 0 90 63 64
        E 120 80 1b 00
        E 0 80 33 00
        E 240 80 4b 00
        E 0 80 63 00
        E 120 90 33 64
        E 0 90 4b 64
        E 0 90 63 64
        E 120 80 33 00
        E 240 80 4b 00
        E 0 80 63 00
        E 120 90 1a 64
        E 0 90 32 64
        E 0 90 4a 64
        E 0 90 62 64
        E 120 80 1a 00
        E 0 80 32 00
        E 240 80 4a 00
        E 0 80 62 00
        E 120 90 32 64
        E 0 90 4a 64
        E 0 90 62 64
        E 120 80 32 00
        E 240 80 4a 00
        E 0 80 62 00
        E 120 90 1a 66
        E 0 90 32 66
        E 0 90 4a 66
        E 0 90 62 66
        E 120 80 1a 00
        E 0 80 32 00
        E 240 80 4a 00
        E 0 80 62 00
        E 120 90 32 66
        E 0 90 4a 66
        E 0 90 62 66
        E 120 80 32 00
        E 240 80 4a 00
        E 0 80 62 00
        E 120 90 33 66
        E 0 90 4b 66
        E 0 90 63 66
        E 3839 80 33 00
        E 0 80 4b 00
        E 0 80 63 00
        E 3840 b0 7b 00
        GUID {C177C17F-9B15-4FC0-8989-0FD2740AC4D1}
        IGNTEMPO 0 120.00000000 4 4
        SRCCOLOR 3
        VELLANE 132 128 60
        COLORMAP "C:\Program Files\REAPER (x64)\Data\color_maps\rockband_guitarbass.png"
        CFGEDITVIEW -967.111675 69.848485 7 12 0 0 0
        CFGEDIT 1 1 0 1 1 0 1 1 1 1 1 0.25000000 -8 -8 1544 872 0 2 1 1 0.00000000 0 1 0 0 0.500000 0 0 1.000000 64
        KEYSNAP 0 6 "102030050700" 0 "Pentatonic"
        EVTFILTER 0 -1 -1 -1 -1 0 1 0 0 -1.00000000 -1.00000000
      >
    >
  >
  <TRACK '{5809B041-BECD-4802-9694-7D72451DF88E}'
    NAME "PART REAL_GUITAR"
    PEAKCOL 16576
    BEAT -1
    AUTOMODE 0
    VOLPAN 1.00000000000000 0.00000000000000 -1.00000000000000 -1.00000000000000 1.00000000000000
    MUTESOLO 0 0 0
    IPHASE 0
    ISBUS 0 0
    BUSCOMP 0 0
    SHOWINMIX 1 0.666700 0.500000 1 0.500000 -1 -1 -1
    FREEMODE 0
    SEL 0
    REC 0 0 0 0 0 0 0
    VU 2
    TRACKHEIGHT 0 0
    INQ 0 0 0 0.5000000000 100 0 0 100
    NCHAN 2
    FX 0
    TRACKID {5809B041-BECD-4802-9694-7D72451DF88E}
    PERF 0
    MIDIOUT -1
    <MIDINOTENAMES
      0 127 "Trill Marker"
      0 126 "Tremolo Marker"
      0 125 "BRE"
      0 124 "BRE"
      0 123 "BRE"
      0 122 "BRE"
      0 121 "BRE"
      0 120 "BRE (use all 6)"
      0 119 "-----------"
      0 116 "OVERDRIVE"
      0 115 "Solo Marker"
      0 109 "-----------"
      0 108 "Fret Hand Position"
      0 107 "Force Chord Numbering"
      0 106 "Loose Strumming"
      0 105 "Strum Direction"
      0 104 "Arpeggio Marker"
      0 103 "Slide Marker"
      0 102 "Force HOPO"
      0 101 "EXPERT e String"
      0 100 "EXPERT B String"
      0 99 "EXPERT G String"
      0 98 "EXPERT D String"
      0 97 "EXPERT A String"
      0 96 "EXPERT E String"
      0 95 "-----------"
      0 82 "Loose Strumming"
      0 81 "Strum Direction"
      0 80 "Arpeggio Marker"
      0 79 "Slide Marker"
      0 78 "Force HOPO"
      0 77 "HARD e String"
      0 76 "HARD B String"
      0 75 "HARD G String"
      0 74 "HARD D String"
      0 73 "HARD A String"
      0 72 "HARD E String"
      0 71 "-----------"
      0 58 "Loose Strumming"
      0 56 "Arpeggio Marker"
      0 55 "Slide Marker"
      0 53 "MEDIUM e String"
      0 52 "MEDIUM B String"
      0 51 "MEDIUM G String"
      0 50 "MEDIUM D String"
      0 49 "MEDIUM A String"
      0 48 "MEDIUM E String"
      0 47 "-----------"
      0 32 "Arpeggio Marker"
      0 31 "Slide Marker"
      0 29 "EASY e String"
      0 28 "EASY B String"
      0 27 "EASY G String"
      0 26 "EASY D String"
      0 25 "EASY A String"
      0 24 "EASY E String"
      0 21 "-----------"
      0 18 "Flat/Sharp Swap"
      0 17 "Hide Chord Names"
      0 16 "Slash Chord"
      0 15 "D#"
      0 14 "D"
      0 13 "C#"
      0 12 "C"
      0 11 "B"
      0 10 "A#"
      0 9 "A"
      0 8 "G#"
      0 7 "G"
      0 6 "F#"
      0 5 "F"
      0 4 "E"
    >
    MAINSEND 1 0
    <FXCHAIN
      WNDRECT 0 43 655 467
      SHOW 0
      LASTSEL 1
      DOCKED 0
      BYPASS 0 0
      <JS "c3/progtr" ""
        0.000000 3.000000 0.000000 0.000000 0.000000 0.000000 0.000000 0.000000 0.000000 1.000000 - - - - - - - - - - - - - - - - - - - - - - - - - - - - - - - - - - - - - - - - - - - - - - - - - - - - - - 
      >
      FLOATPOS 0 0 0 0
      FXID {07BF9EA8-051B-446E-A393-253764B714A7}
      WAK 0
      BYPASS 0 0
      <VST "VSTi: ReaSynth (Cockos)" "reasynth.dll" 0 ""
        eXNlcu9e7f4AAAAAAgAAAAEAAAAAAAAAAgAAAAAAAAA4AAAAAAAAAA==
        AAAQAO++rd4N8K3eppvEOxLMOD6HFlk/AAAAAAAAAADMm4A+4jAEPA==
        AAAAAAAAAD+01hM+j8L1PQAAAD8AABAAAAA=
      >
      FLOATPOS 0 0 0 0
      FXID {5896C68D-3101-49AE-97E8-037DDA3C7103}
      WAK 0
    >
    <ITEM
      POSITION 0.00000000000000
      SNAPOFFS 0.00000000000000
      LENGTH 128.64099999999999
      LOOP 0
      ALLTAKES 0
      SEL 0
      FADEIN 1 0.000000 0.000000 1 0
      FADEOUT 1 0.000000 0.000000 1 0
      MUTE 0
      IGUID {6BF66E3D-1F98-479E-A04C-CFA2EDFC420A}
      IID 5
      NAME "PART REAL_GUITAR"
      VOLPAN 1.000000 0.000000 1.000000 -1.000000
      SOFFS 0.00000000000000 0.00000000000000
      PLAYRATE 1.00000000000000 1 0.00000000000000 -1
      CHANMODE 0
      GUID {12BA706C-EE86-4C9E-81CA-D8F0F17A4A28}
      <SOURCE MIDI
        HASDATA 1 480 QN
        POOLEDEVTS {2B0D1B0F-4A2B-478E-BEDE-3BBFEB012214}
        <X 0 0
          /wNQQVJUIFJFQUxfR1VJVEFS
        >
        E 3840 90 09 64
        E 0 90 19 64
        E 0 90 49 64
        E 0 90 50 64
        E 0 90 61 64
        E 0 90 68 64
        E 0 90 6c 6b
        E 0 91 4a 6b
        E 0 91 4b 6d
        E 0 91 62 6b
        E 0 91 63 6d
        E 120 80 09 00
        E 0 80 19 00
        E 0 80 49 00
        E 0 80 61 00
        E 0 80 6c 00
        E 0 81 4a 00
        E 0 81 4b 00
        E 0 81 62 00
        E 0 81 63 00
        E 120 90 32 6b
        E 0 90 33 6d
        E 0 90 4a 6b
        E 0 90 4b 6d
        E 0 90 62 6b
        E 0 90 63 6d
        E 120 80 32 00
        E 0 80 33 00
        E 0 80 4a 00
        E 0 80 4b 00
        E 0 80 62 00
        E 0 80 63 00
        E 360 90 32 6b
        E 0 90 33 6d
        E 0 90 4a 6b
        E 0 90 4b 6d
        E 0 90 62 6b
        E 0 90 63 6d
        E 120 80 32 00
        E 0 80 33 00
        E 0 80 4a 00
        E 0 80 4b 00
        E 0 80 62 00
        E 0 80 63 00
        E 360 90 32 6b
        E 0 90 33 6d
        E 0 90 4a 6b
        E 0 90 4b 6d
        E 0 90 62 6b
        E 0 90 63 6d
        E 120 80 50 00
        E 0 80 68 00
        E 0 80 32 00
        E 0 80 33 00
        E 0 80 4a 00
        E 0 80 4b 00
        E 0 80 62 00
        E 0 80 63 00
        E 360 90 06 64
        E 0 90 4b 6f
        E 0 90 4c 6e
        E 0 90 63 6f
        E 0 90 64 6e
        E 0 90 6c 6e
        E 120 80 06 00
        E 0 80 4b 00
        E 0 80 4c 00
        E 0 80 63 00
        E 0 80 64 00
        E 0 80 6c 00
        E 120 90 1a 64
        E 0 90 32 64
        E 0 90 4a 64
        E 0 90 62 64
        E 120 80 1a 00
        E 0 80 32 00
        E 0 80 4a 00
        E 0 80 62 00
        E 120 90 04 64
        E 0 90 4b 6d
        E 0 90 4c 6b
        E 0 90 63 6d
        E 0 90 64 6b
        E 0 90 6c 6b
        E 120 80 04 00
        E 0 80 4b 00
        E 0 80 4c 00
        E 0 80 63 00
        E 0 80 64 00
        E 0 80 6c 00
        E 360 90 0d 64
        E 0 90 10 64
        E 0 90 4b 6a
        E 0 90 4c 69
        E 0 90 50 64
        E 0 90 63 6a
        E 0 90 64 69
        E 0 90 68 64
        E 0 90 6c 69
        E 0 91 49 64
        E 0 91 61 64
        E 120 80 0d 00
        E 0 80 4b 00
        E 0 80 4c 00
        E 0 80 63 00
        E 0 80 64 00
        E 0 80 6c 00
        E 0 81 49 00
        E 0 81 61 00
        E 120 90 19 64
        E 0 90 31 64
        E 0 90 49 64
        E 0 90 61 64
        E 120 80 19 00
        E 0 80 31 00
        E 0 80 49 00
        E 0 80 61 00
        E 120 90 4b 6a
        E 0 90 4c 69
        E 0 90 63 6a
        E 0 90 64 69
        E 120 80 50 00
        E 0 80 68 00
        E 0 80 4b 00
        E 0 80 4c 00
        E 0 80 63 00
        E 0 80 64 00
        E 360 90 0b 64
        E 0 90 4b 68
        E 0 90 4c 67
        E 0 90 50 64
        E 0 90 63 68
        E 0 90 64 67
        E 0 90 68 64
        E 0 90 6c 67
        E 0 91 48 64
        E 0 91 60 64
        E 120 80 10 00
        E 0 80 0b 00
        E 0 80 4b 00
        E 0 80 4c 00
        E 0 80 63 00
        E 0 80 64 00
        E 0 80 6c 00
        E 0 81 48 00
        E 0 81 60 00
        E 120 90 18 64
        E 0 90 30 64
        E 0 90 48 64
        E 0 90 60 64
        E 120 80 18 00
        E 0 80 30 00
        E 0 80 48 00
        E 0 80 60 00
        E 120 90 4b 68
        E 0 90 4c 67
        E 0 90 63 68
        E 0 90 64 67
        E 600 80 50 00
        E 0 80 68 00
        E 0 80 4b 00
        E 0 80 4c 00
        E 0 80 63 00
        E 0 80 64 00
        E 120 90 09 64
        E 0 90 19 64
        E 0 90 49 64
        E 0 90 50 64
        E 0 90 61 64
        E 0 90 68 64
        E 0 90 6c 6b
        E 0 91 4a 6b
        E 0 91 4b 6d
        E 0 91 62 6b
        E 0 91 63 6d
        E 120 80 09 00
        E 0 80 19 00
        E 0 80 49 00
        E 0 80 61 00
        E 0 80 6c 00
        E 0 81 4a 00
        E 0 81 4b 00
        E 0 81 62 00
        E 0 81 63 00
        E 120 90 32 6b
        E 0 90 33 6d
        E 0 90 4a 6b
        E 0 90 4b 6d
        E 0 90 62 6b
        E 0 90 63 6d
        E 120 80 32 00
        E 0 80 33 00
        E 0 80 4a 00
        E 0 80 4b 00
        E 0 80 62 00
        E 0 80 63 00
        E 360 90 32 6b
        E 0 90 33 6d
        E 0 90 4a 6b
        E 0 90 4b 6d
        E 0 90 62 6b
        E 0 90 63 6d
        E 120 80 32 00
        E 0 80 33 00
        E 0 80 4a 00
        E 0 80 4b 00
        E 0 80 62 00
        E 0 80 63 00
        E 360 90 32 6b
        E 0 90 33 6d
        E 0 90 4a 6b
        E 0 90 4b 6d
        E 0 90 62 6b
        E 0 90 63 6d
        E 120 80 50 00
        E 0 80 68 00
        E 0 80 32 00
        E 0 80 33 00
        E 0 80 4a 00
        E 0 80 4b 00
        E 0 80 62 00
        E 0 80 63 00
        E 360 90 06 64
        E 0 90 4b 6f
        E 0 90 4c 6e
        E 0 90 63 6f
        E 0 90 64 6e
        E 0 90 6c 6e
        E 120 80 06 00
        E 0 80 4b 00
        E 0 80 4c 00
        E 0 80 63 00
        E 0 80 64 00
        E 0 80 6c 00
        E 120 90 1a 64
        E 0 90 32 64
        E 0 90 4a 64
        E 0 90 62 64
        E 120 80 1a 00
        E 0 80 32 00
        E 0 80 4a 00
        E 0 80 62 00
        E 120 90 04 64
        E 0 90 4b 6d
        E 0 90 4c 6b
        E 0 90 63 6d
        E 0 90 64 6b
        E 0 90 6c 6b
        E 120 80 04 00
        E 0 80 4b 00
        E 0 80 4c 00
        E 0 80 63 00
        E 0 80 64 00
        E 0 80 6c 00
        E 360 90 0d 64
        E 0 90 10 64
        E 0 90 4b 6a
        E 0 90 4c 69
        E 0 90 50 64
        E 0 90 63 6a
        E 0 90 64 69
        E 0 90 68 64
        E 0 90 6c 69
        E 0 91 49 64
        E 0 91 61 64
        E 120 80 0d 00
        E 0 80 4b 00
        E 0 80 4c 00
        E 0 80 63 00
        E 0 80 64 00
        E 0 80 6c 00
        E 0 81 49 00
        E 0 81 61 00
        E 120 90 19 64
        E 0 90 31 64
        E 0 90 49 64
        E 0 90 61 64
        E 120 80 19 00
        E 0 80 31 00
        E 0 80 49 00
        E 0 80 61 00
        E 120 90 4b 6a
        E 0 90 4c 69
        E 0 90 63 6a
        E 0 90 64 69
        E 120 80 50 00
        E 0 80 68 00
        E 0 80 4b 00
        E 0 80 4c 00
        E 0 80 63 00
        E 0 80 64 00
        E 360 90 0b 64
        E 0 90 4b 68
        E 0 90 4c 67
        E 0 90 50 64
        E 0 90 63 68
        E 0 90 64 67
        E 0 90 68 64
        E 0 90 6c 67
        E 0 91 48 64
        E 0 91 60 64
        E 120 80 10 00
        E 0 80 0b 00
        E 0 80 4b 00
        E 0 80 4c 00
        E 0 80 63 00
        E 0 80 64 00
        E 0 80 6c 00
        E 0 81 48 00
        E 0 81 60 00
        E 120 90 18 64
        E 0 90 30 64
        E 0 90 48 64
        E 0 90 60 64
        E 120 80 18 00
        E 0 80 30 00
        E 0 80 48 00
        E 0 80 60 00
        E 120 90 4b 68
        E 0 90 4c 67
        E 0 90 63 68
        E 0 90 64 67
        E 600 80 50 00
        E 0 80 68 00
        E 0 80 4b 00
        E 0 80 4c 00
        E 0 80 63 00
        E 0 80 64 00
        E 120 90 09 64
        E 0 90 19 64
        E 0 90 49 64
        E 0 90 50 64
        E 0 90 61 64
        E 0 90 68 64
        E 0 90 6c 6b
        E 0 91 4a 6b
        E 0 91 4b 6d
        E 0 91 62 6b
        E 0 91 63 6d
        E 120 80 09 00
        E 0 80 19 00
        E 0 80 49 00
        E 0 80 61 00
        E 0 80 6c 00
        E 0 81 4a 00
        E 0 81 4b 00
        E 0 81 62 00
        E 0 81 63 00
        E 120 90 32 6b
        E 0 90 33 6d
        E 0 90 4a 6b
        E 0 90 4b 6d
        E 0 90 62 6b
        E 0 90 63 6d
        E 120 80 32 00
        E 0 80 33 00
        E 0 80 4a 00
        E 0 80 4b 00
        E 0 80 62 00
        E 0 80 63 00
        E 360 90 32 6b
        E 0 90 33 6d
        E 0 90 4a 6b
        E 0 90 4b 6d
        E 0 90 62 6b
        E 0 90 63 6d
        E 120 80 32 00
        E 0 80 33 00
        E 0 80 4a 00
        E 0 80 4b 00
        E 0 80 62 00
        E 0 80 63 00
        E 360 90 32 6b
        E 0 90 33 6d
        E 0 90 4a 6b
        E 0 90 4b 6d
        E 0 90 62 6b
        E 0 90 63 6d
        E 120 80 50 00
        E 0 80 68 00
        E 0 80 32 00
        E 0 80 33 00
        E 0 80 4a 00
        E 0 80 4b 00
        E 0 80 62 00
        E 0 80 63 00
        E 360 90 06 64
        E 0 90 4b 6f
        E 0 90 4c 6e
        E 0 90 63 6f
        E 0 90 64 6e
        E 0 90 6c 6e
        E 120 80 06 00
        E 0 80 4b 00
        E 0 80 4c 00
        E 0 80 63 00
        E 0 80 64 00
        E 0 80 6c 00
        E 120 90 1a 64
        E 0 90 32 64
        E 0 90 4a 64
        E 0 90 62 64
        E 120 80 1a 00
        E 0 80 32 00
        E 0 80 4a 00
        E 0 80 62 00
        E 120 90 04 64
        E 0 90 4b 6d
        E 0 90 4c 6b
        E 0 90 63 6d
        E 0 90 64 6b
        E 0 90 6c 6b
        E 120 80 04 00
        E 0 80 4b 00
        E 0 80 4c 00
        E 0 80 63 00
        E 0 80 64 00
        E 0 80 6c 00
        E 360 90 0d 64
        E 0 90 10 64
        E 0 90 4b 6a
        E 0 90 4c 69
        E 0 90 50 64
        E 0 90 63 6a
        E 0 90 64 69
        E 0 90 68 64
        E 0 90 6c 69
        E 0 91 49 64
        E 0 91 61 64
        E 120 80 0d 00
        E 0 80 4b 00
        E 0 80 4c 00
        E 0 80 63 00
        E 0 80 64 00
        E 0 80 6c 00
        E 0 81 49 00
        E 0 81 61 00
        E 120 90 19 64
        E 0 90 31 64
        E 0 90 49 64
        E 0 90 61 64
        E 120 80 19 00
        E 0 80 31 00
        E 0 80 49 00
        E 0 80 61 00
        E 120 90 4b 6a
        E 0 90 4c 69
        E 0 90 63 6a
        E 0 90 64 69
        E 120 80 50 00
        E 0 80 68 00
        E 0 80 4b 00
        E 0 80 4c 00
        E 0 80 63 00
        E 0 80 64 00
        E 360 90 0b 64
        E 0 90 4b 68
        E 0 90 4c 67
        E 0 90 50 64
        E 0 90 63 68
        E 0 90 64 67
        E 0 90 68 64
        E 0 90 6c 67
        E 0 91 48 64
        E 0 91 60 64
        E 120 80 10 00
        E 0 80 0b 00
        E 0 80 4b 00
        E 0 80 4c 00
        E 0 80 63 00
        E 0 80 64 00
        E 0 80 6c 00
        E 0 81 48 00
        E 0 81 60 00
        E 120 90 18 64
        E 0 90 30 64
        E 0 90 48 64
        E 0 90 60 64
        E 120 80 18 00
        E 0 80 30 00
        E 0 80 48 00
        E 0 80 60 00
        E 120 90 4b 68
        E 0 90 4c 67
        E 0 90 63 68
        E 0 90 64 67
        E 600 80 50 00
        E 0 80 68 00
        E 0 80 4b 00
        E 0 80 4c 00
        E 0 80 63 00
        E 0 80 64 00
        E 120 90 09 64
        E 0 90 19 64
        E 0 90 49 64
        E 0 90 50 64
        E 0 90 61 64
        E 0 90 68 64
        E 0 90 6c 6b
        E 0 91 4a 6b
        E 0 91 4b 6d
        E 0 91 62 6b
        E 0 91 63 6d
        E 120 80 09 00
        E 0 80 19 00
        E 0 80 49 00
        E 0 80 61 00
        E 0 80 6c 00
        E 0 81 4a 00
        E 0 81 4b 00
        E 0 81 62 00
        E 0 81 63 00
        E 120 90 32 6b
        E 0 90 33 6d
        E 0 90 4a 6b
        E 0 90 4b 6d
        E 0 90 62 6b
        E 0 90 63 6d
        E 120 80 32 00
        E 0 80 33 00
        E 0 80 4a 00
        E 0 80 4b 00
        E 0 80 62 00
        E 0 80 63 00
        E 360 90 32 6b
        E 0 90 33 6d
        E 0 90 4a 6b
        E 0 90 4b 6d
        E 0 90 62 6b
        E 0 90 63 6d
        E 120 80 32 00
        E 0 80 33 00
        E 0 80 4a 00
        E 0 80 4b 00
        E 0 80 62 00
        E 0 80 63 00
        E 360 90 32 6b
        E 0 90 33 6d
        E 0 90 4a 6b
        E 0 90 4b 6d
        E 0 90 62 6b
        E 0 90 63 6d
        E 120 80 32 00
        E 0 80 33 00
        E 0 80 4a 00
        E 0 80 4b 00
        E 0 80 62 00
        E 0 80 63 00
        E 360 90 4a 6b
        E 0 90 4b 6d
        E 0 90 62 6b
        E 0 90 63 6d
        E 120 80 50 00
        E 0 80 68 00
        E 0 80 4a 00
        E 0 80 4b 00
        E 0 80 62 00
        E 0 80 63 00
        E 120 90 07 64
        E 0 90 18 67
        E 0 90 30 67
        E 0 90 48 67
        E 0 90 50 64
        E 0 90 60 67
        E 0 90 68 64
        E 0 90 6c 67
        E 0 91 49 69
        E 0 91 4a 69
        E 0 91 4b 68
        E 0 91 4c 67
        E 0 91 4d 67
        E 0 91 61 69
        E 0 91 62 69
        E 0 91 63 68
        E 0 91 64 67
        E 0 91 65 67
        E 120 80 07 00
        E 0 80 18 00
        E 0 80 30 00
        E 0 80 48 00
        E 0 80 60 00
        E 0 80 6c 00
        E 0 81 49 00
        E 0 81 4a 00
        E 0 81 4b 00
        E 0 81 4c 00
        E 0 81 4d 00
        E 0 81 61 00
        E 0 81 62 00
        E 0 81 63 00
        E 0 81 64 00
        E 0 81 65 00
        E 120 90 4b 68
        E 0 90 4c 67
        E 0 90 63 68
        E 0 90 64 67
        E 600 80 50 00
        E 0 80 68 00
        E 0 80 4b 00
        E 0 80 4c 00
        E 0 80 63 00
        E 0 80 64 00
        E 120 90 0e 64
        E 0 90 1a 6b
        E 0 90 32 6b
        E 0 90 33 6b
        E 0 90 4a 6b
        E 0 90 4b 6b
        E 0 90 62 6b
        E 0 90 63 6b
        E 0 90 6c 69
        E 120 80 0e 00
        E 0 80 6c 00
        E 360 80 1a 00
        E 0 80 32 00
        E 0 80 33 00
        E 360 80 4a 00
        E 0 80 4b 00
        E 0 80 62 00
        E 0 80 63 00
        E 120 90 04 64
        E 0 90 1a 6d
        E 0 90 32 6d
        E 0 90 33 6d
        E 0 90 4a 6d
        E 0 90 4b 6d
        E 0 90 62 6d
        E 0 90 63 6d
        E 0 90 6c 6b
        E 120 80 04 00
        E 0 80 6c 00
        E 360 80 1a 00
        E 0 80 32 00
        E 0 80 33 00
        E 360 80 4a 00
        E 0 80 4b 00
        E 0 80 62 00
        E 0 80 63 00
        E 120 90 07 64
        E 0 90 1a 70
        E 0 90 32 70
        E 0 90 33 70
        E 0 90 4a 70
        E 0 90 4b 70
        E 0 90 62 70
        E 0 90 63 70
        E 0 90 6c 6e
        E 0 90 74 64
        E 120 80 07 00
        E 0 80 6c 00
        E 360 80 1a 00
        E 0 80 32 00
        E 0 80 33 00
        E 360 80 4a 00
        E 0 80 4b 00
        E 0 80 62 00
        E 0 80 63 00
        E 120 90 06 64
        E 0 90 1a 6f
        E 0 90 32 6f
        E 0 90 33 6f
        E 0 90 4a 6f
        E 0 90 4b 6f
        E 0 90 62 6f
        E 0 90 63 6f
        E 0 90 6c 6d
        E 120 80 06 00
        E 0 80 6c 00
        E 360 80 1a 00
        E 0 80 32 00
        E 0 80 33 00
        E 360 80 4a 00
        E 0 80 4b 00
        E 0 80 62 00
        E 0 80 63 00
        E 120 90 04 64
        E 0 90 1a 6d
        E 0 90 32 6d
        E 0 90 33 6d
        E 0 90 4a 6d
        E 0 90 4b 6d
        E 0 90 62 6d
        E 0 90 63 6d
        E 0 90 6c 6b
        E 120 80 04 00
        E 0 80 6c 00
        E 360 80 1a 00
        E 0 80 32 00
        E 0 80 33 00
        E 360 80 4a 00
        E 0 80 4b 00
        E 0 80 62 00
        E 0 80 63 00
        E 120 90 0e 64
        E 0 90 1a 6b
        E 0 90 32 6b
        E 0 90 33 6b
        E 0 90 4a 6b
        E 0 90 4b 6b
        E 0 90 62 6b
        E 0 90 63 6b
        E 0 90 6c 69
        E 120 80 0e 00
        E 0 80 6c 00
        E 360 80 1a 00
        E 0 80 32 00
        E 0 80 33 00
        E 360 80 4a 00
        E 0 80 4b 00
        E 0 80 62 00
        E 0 80 63 00
        E 120 90 04 64
        E 0 90 1a 6d
        E 0 90 32 6d
        E 0 90 33 6d
        E 0 90 4a 6d
        E 0 90 4b 6d
        E 0 90 62 6d
        E 0 90 63 6d
        E 0 90 6c 6b
        E 120 80 04 00
        E 0 80 6c 00
        E 360 80 1a 00
        E 0 80 32 00
        E 0 80 33 00
        E 360 80 4a 00
        E 0 80 4b 00
        E 0 80 62 00
        E 0 80 63 00
        E 120 90 09 64
        E 0 90 19 64
        E 0 90 49 64
        E 0 90 50 64
        E 0 90 61 64
        E 0 90 68 64
        E 0 90 6c 70
        E 0 91 4a 72
        E 0 91 4b 72
        E 0 91 62 72
        E 0 91 63 72
        E 120 80 74 00
        E 0 80 09 00
        E 0 80 19 00
        E 0 80 49 00
        E 0 80 61 00
        E 0 80 6c 00
        E 0 81 4a 00
        E 0 81 4b 00
        E 0 81 62 00
        E 0 81 63 00
        E 120 90 32 72
        E 0 90 33 72
        E 0 90 4a 72
        E 0 90 4b 72
        E 0 90 62 72
        E 0 90 63 72
        E 120 80 32 00
        E 0 80 33 00
        E 0 80 4a 00
        E 0 80 4b 00
        E 0 80 62 00
        E 0 80 63 00
        E 360 90 4a 72
        E 0 90 4b 72
        E 0 90 62 72
        E 0 90 63 72
        E 120 80 50 00
        E 0 80 68 00
        E 0 80 4a 00
        E 0 80 4b 00
        E 0 80 62 00
        E 0 80 63 00
        E 120 90 07 64
        E 0 90 19 6e
        E 0 90 31 6e
        E 0 90 49 6e
        E 0 90 50 64
        E 0 90 61 6e
        E 0 90 68 64
        E 0 90 6c 6e
        E 0 91 4a 70
        E 0 91 4b 70
        E 0 91 62 70
        E 0 91 63 70
        E 120 80 07 00
        E 0 80 19 00
        E 0 80 31 00
        E 0 80 49 00
        E 0 80 61 00
        E 0 80 6c 00
        E 0 81 4a 00
        E 0 81 4b 00
        E 0 81 62 00
        E 0 81 63 00
        E 120 90 32 70
        E 0 90 4a 70
        E 0 90 4b 70
        E 0 90 62 70
        E 0 90 63 70
        E 120 80 32 00
        E 360 80 50 00
        E 0 80 68 00
        E 0 80 4a 00
        E 0 80 4b 00
        E 0 80 62 00
        E 0 80 63 00
        E 240 90 0e 64
        E 0 90 1a 6b
        E 0 90 32 6b
        E 0 90 33 6b
        E 0 90 4a 6b
        E 0 90 4b 6b
        E 0 90 62 6b
        E 0 90 63 6b
        E 0 90 6c 69
        E 120 80 0e 00
        E 0 80 6c 00
        E 360 80 1a 00
        E 0 80 32 00
        E 0 80 33 00
        E 360 80 4a 00
        E 0 80 4b 00
        E 0 80 62 00
        E 0 80 63 00
        E 120 90 04 64
        E 0 90 1a 6d
        E 0 90 32 6d
        E 0 90 33 6d
        E 0 90 4a 6d
        E 0 90 4b 6d
        E 0 90 62 6d
        E 0 90 63 6d
        E 0 90 6c 6b
        E 120 80 04 00
        E 0 80 6c 00
        E 360 80 1a 00
        E 0 80 32 00
        E 0 80 33 00
        E 360 80 4a 00
        E 0 80 4b 00
        E 0 80 62 00
        E 0 80 63 00
        E 120 90 09 64
        E 0 90 19 64
        E 0 90 49 64
        E 0 90 50 64
        E 0 90 61 64
        E 0 90 68 64
        E 0 90 6c 70
        E 0 91 4a 72
        E 0 91 4b 72
        E 0 91 62 72
        E 0 91 63 72
        E 120 80 09 00
        E 0 80 19 00
        E 0 80 49 00
        E 0 80 61 00
        E 0 80 6c 00
        E 0 81 4a 00
        E 0 81 4b 00
        E 0 81 62 00
        E 0 81 63 00
        E 120 90 32 72
        E 0 90 33 72
        E 0 90 4a 72
        E 0 90 4b 72
        E 0 90 62 72
        E 0 90 63 72
        E 120 80 32 00
        E 0 80 33 00
        E 0 80 4a 00
        E 0 80 4b 00
        E 0 80 62 00
        E 0 80 63 00
        E 360 90 4a 72
        E 0 90 4b 72
        E 0 90 62 72
        E 0 90 63 72
        E 120 80 50 00
        E 0 80 68 00
        E 0 80 4a 00
        E 0 80 4b 00
        E 0 80 62 00
        E 0 80 63 00
        E 120 90 07 64
        E 0 90 19 6e
        E 0 90 31 6e
        E 0 90 49 6e
        E 0 90 50 64
        E 0 90 61 6e
        E 0 90 68 64
        E 0 90 6c 6e
        E 0 91 4a 70
        E 0 91 4b 70
        E 0 91 62 70
        E 0 91 63 70
        E 120 80 07 00
        E 0 80 19 00
        E 0 80 31 00
        E 0 80 49 00
        E 0 80 61 00
        E 0 80 6c 00
        E 0 81 4a 00
        E 0 81 4b 00
        E 0 81 62 00
        E 0 81 63 00
        E 120 90 32 70
        E 0 90 4a 70
        E 0 90 4b 70
        E 0 90 62 70
        E 0 90 63 70
        E 120 80 32 00
        E 360 80 50 00
        E 0 80 68 00
        E 0 80 4a 00
        E 0 80 4b 00
        E 0 80 62 00
        E 0 80 63 00
        E 240 90 0e 64
        E 0 90 1a 6b
        E 0 90 32 6b
        E 0 90 33 6b
        E 0 90 4a 6b
        E 0 90 4b 6b
        E 0 90 62 6b
        E 0 90 63 6b
        E 0 90 6c 69
        E 120 80 0e 00
        E 0 80 6c 00
        E 360 80 1a 00
        E 0 80 32 00
        E 0 80 33 00
        E 360 80 4a 00
        E 0 80 4b 00
        E 0 80 62 00
        E 0 80 63 00
        E 120 90 04 64
        E 0 90 1a 6d
        E 0 90 32 6d
        E 0 90 33 6d
        E 0 90 4a 6d
        E 0 90 4b 6d
        E 0 90 62 6d
        E 0 90 63 6d
        E 0 90 6c 6b
        E 120 80 04 00
        E 0 80 6c 00
        E 360 80 1a 00
        E 0 80 32 00
        E 0 80 33 00
        E 360 80 4a 00
        E 0 80 4b 00
        E 0 80 62 00
        E 0 80 63 00
        E 120 90 09 64
        E 0 90 19 64
        E 0 90 49 64
        E 0 90 50 64
        E 0 90 61 64
        E 0 90 68 64
        E 0 90 6c 70
        E 0 91 4a 72
        E 0 91 4b 72
        E 0 91 62 72
        E 0 91 63 72
        E 120 80 09 00
        E 0 80 19 00
        E 0 80 49 00
        E 0 80 61 00
        E 0 80 6c 00
        E 0 81 4a 00
        E 0 81 4b 00
        E 0 81 62 00
        E 0 81 63 00
        E 120 90 32 72
        E 0 90 33 72
        E 0 90 4a 72
        E 0 90 4b 72
        E 0 90 62 72
        E 0 90 63 72
        E 120 80 32 00
        E 0 80 33 00
        E 0 80 4a 00
        E 0 80 4b 00
        E 0 80 62 00
        E 0 80 63 00
        E 360 90 4a 72
        E 0 90 4b 72
        E 0 90 62 72
        E 0 90 63 72
        E 120 80 50 00
        E 0 80 68 00
        E 0 80 4a 00
        E 0 80 4b 00
        E 0 80 62 00
        E 0 80 63 00
        E 120 90 07 64
        E 0 90 19 6e
        E 0 90 31 6e
        E 0 90 49 6e
        E 0 90 50 64
        E 0 90 61 6e
        E 0 90 68 64
        E 0 90 6c 6e
        E 0 91 4a 70
        E 0 91 4b 70
        E 0 91 62 70
        E 0 91 63 70
        E 120 80 07 00
        E 0 80 19 00
        E 0 80 31 00
        E 0 80 49 00
        E 0 80 61 00
        E 0 80 6c 00
        E 0 81 4a 00
        E 0 81 4b 00
        E 0 81 62 00
        E 0 81 63 00
        E 120 90 32 70
        E 0 90 4a 70
        E 0 90 4b 70
        E 0 90 62 70
        E 0 90 63 70
        E 120 80 32 00
        E 0 80 4a 00
        E 0 80 4b 00
        E 0 80 62 00
        E 0 80 63 00
        E 360 90 4a 70
        E 0 90 4b 70
        E 0 90 62 70
        E 0 90 63 70
        E 120 80 50 00
        E 0 80 68 00
        E 0 80 4a 00
        E 0 80 4b 00
        E 0 80 62 00
        E 0 80 63 00
        E 120 90 0e 64
        E 0 90 1a 6b
        E 0 90 32 6b
        E 0 90 33 6b
        E 0 90 4a 6b
        E 0 90 4b 6b
        E 0 90 62 6b
        E 0 90 63 6b
        E 0 90 6c 69
        E 120 80 0e 00
        E 0 80 6c 00
        E 360 80 1a 00
        E 0 80 32 00
        E 0 80 33 00
        E 360 80 4a 00
        E 0 80 4b 00
        E 0 80 62 00
        E 0 80 63 00
        E 120 90 04 64
        E 0 90 1a 6d
        E 0 90 32 6d
        E 0 90 33 6d
        E 0 90 4a 6d
        E 0 90 4b 6d
        E 0 90 62 6d
        E 0 90 63 6d
        E 0 90 6c 6b
        E 120 80 04 00
        E 0 80 6c 00
        E 360 80 1a 00
        E 0 80 32 00
        E 0 80 33 00
        E 360 80 4a 00
        E 0 80 4b 00
        E 0 80 62 00
        E 0 80 63 00
        E 120 90 09 64
        E 0 90 19 64
        E 0 90 49 64
        E 0 90 50 64
        E 0 90 61 64
        E 0 90 68 64
        E 0 90 6c 6b
        E 0 91 4a 6b
        E 0 91 4b 6d
        E 0 91 62 6b
        E 0 91 63 6d
        E 120 80 09 00
        E 0 80 19 00
        E 0 80 49 00
        E 0 80 61 00
        E 0 80 6c 00
        E 0 81 4a 00
        E 0 81 4b 00
        E 0 81 62 00
        E 0 81 63 00
        E 120 90 32 6b
        E 0 90 33 6d
        E 0 90 4a 6b
        E 0 90 4b 6d
        E 0 90 62 6b
        E 0 90 63 6d
        E 120 80 32 00
        E 0 80 33 00
        E 0 80 4a 00
        E 0 80 4b 00
        E 0 80 62 00
        E 0 80 63 00
        E 360 90 32 6b
        E 0 90 33 6d
        E 0 90 4a 6b
        E 0 90 4b 6d
        E 0 90 62 6b
        E 0 90 63 6d
        E 120 80 32 00
        E 0 80 33 00
        E 0 80 4a 00
        E 0 80 4b 00
        E 0 80 62 00
        E 0 80 63 00
        E 360 90 32 6b
        E 0 90 33 6d
        E 0 90 4a 6b
        E 0 90 4b 6d
        E 0 90 62 6b
        E 0 90 63 6d
        E 120 80 50 00
        E 0 80 68 00
        E 0 80 32 00
        E 0 80 33 00
        E 0 80 4a 00
        E 0 80 4b 00
        E 0 80 62 00
        E 0 80 63 00
        E 360 90 06 64
        E 0 90 4b 6f
        E 0 90 4c 6e
        E 0 90 63 6f
        E 0 90 64 6e
        E 0 90 6c 6e
        E 120 80 06 00
        E 0 80 4b 00
        E 0 80 4c 00
        E 0 80 63 00
        E 0 80 64 00
        E 0 80 6c 00
        E 120 90 1a 64
        E 0 90 32 64
        E 0 90 4a 64
        E 0 90 62 64
        E 120 80 1a 00
        E 0 80 32 00
        E 0 80 4a 00
        E 0 80 62 00
        E 120 90 04 64
        E 0 90 4b 6d
        E 0 90 4c 6b
        E 0 90 63 6d
        E 0 90 64 6b
        E 0 90 6c 6b
        E 120 80 04 00
        E 0 80 4b 00
        E 0 80 4c 00
        E 0 80 63 00
        E 0 80 64 00
        E 0 80 6c 00
        E 360 90 0d 64
        E 0 90 10 64
        E 0 90 4b 6a
        E 0 90 4c 69
        E 0 90 50 64
        E 0 90 63 6a
        E 0 90 64 69
        E 0 90 68 64
        E 0 90 6c 69
        E 0 91 49 64
        E 0 91 61 64
        E 120 80 0d 00
        E 0 80 4b 00
        E 0 80 4c 00
        E 0 80 63 00
        E 0 80 64 00
        E 0 80 6c 00
        E 0 81 49 00
        E 0 81 61 00
        E 120 90 19 64
        E 0 90 31 64
        E 0 90 49 64
        E 0 90 61 64
        E 120 80 19 00
        E 0 80 31 00
        E 0 80 49 00
        E 0 80 61 00
        E 120 90 4b 6a
        E 0 90 4c 69
        E 0 90 63 6a
        E 0 90 64 69
        E 120 80 50 00
        E 0 80 68 00
        E 0 80 4b 00
        E 0 80 4c 00
        E 0 80 63 00
        E 0 80 64 00
        E 360 90 0b 64
        E 0 90 4b 68
        E 0 90 4c 67
        E 0 90 50 64
        E 0 90 63 68
        E 0 90 64 67
        E 0 90 68 64
        E 0 90 6c 67
        E 0 91 48 64
        E 0 91 60 64
        E 120 80 10 00
        E 0 80 0b 00
        E 0 80 4b 00
        E 0 80 4c 00
        E 0 80 63 00
        E 0 80 64 00
        E 0 80 6c 00
        E 0 81 48 00
        E 0 81 60 00
        E 120 90 18 64
        E 0 90 30 64
        E 0 90 48 64
        E 0 90 60 64
        E 120 80 18 00
        E 0 80 30 00
        E 0 80 48 00
        E 0 80 60 00
        E 120 90 4b 68
        E 0 90 4c 67
        E 0 90 63 68
        E 0 90 64 67
        E 600 80 50 00
        E 0 80 68 00
        E 0 80 4b 00
        E 0 80 4c 00
        E 0 80 63 00
        E 0 80 64 00
        E 120 90 09 64
        E 0 90 19 64
        E 0 90 49 64
        E 0 90 50 64
        E 0 90 61 64
        E 0 90 68 64
        E 0 90 6c 6b
        E 0 91 4a 6b
        E 0 91 4b 6d
        E 0 91 62 6b
        E 0 91 63 6d
        E 120 80 09 00
        E 0 80 19 00
        E 0 80 49 00
        E 0 80 61 00
        E 0 80 6c 00
        E 0 81 4a 00
        E 0 81 4b 00
        E 0 81 62 00
        E 0 81 63 00
        E 120 90 32 6b
        E 0 90 33 6d
        E 0 90 4a 6b
        E 0 90 4b 6d
        E 0 90 62 6b
        E 0 90 63 6d
        E 120 80 32 00
        E 0 80 33 00
        E 0 80 4a 00
        E 0 80 4b 00
        E 0 80 62 00
        E 0 80 63 00
        E 360 90 32 6b
        E 0 90 33 6d
        E 0 90 4a 6b
        E 0 90 4b 6d
        E 0 90 62 6b
        E 0 90 63 6d
        E 120 80 32 00
        E 0 80 33 00
        E 0 80 4a 00
        E 0 80 4b 00
        E 0 80 62 00
        E 0 80 63 00
        E 360 90 32 6b
        E 0 90 33 6d
        E 0 90 4a 6b
        E 0 90 4b 6d
        E 0 90 62 6b
        E 0 90 63 6d
        E 120 80 50 00
        E 0 80 68 00
        E 0 80 32 00
        E 0 80 33 00
        E 0 80 4a 00
        E 0 80 4b 00
        E 0 80 62 00
        E 0 80 63 00
        E 360 90 06 64
        E 0 90 4b 6f
        E 0 90 4c 6e
        E 0 90 63 6f
        E 0 90 64 6e
        E 0 90 6c 6e
        E 0 90 74 64
        E 120 80 06 00
        E 0 80 4b 00
        E 0 80 4c 00
        E 0 80 63 00
        E 0 80 64 00
        E 0 80 6c 00
        E 120 90 1a 64
        E 0 90 32 64
        E 0 90 4a 64
        E 0 90 62 64
        E 120 80 1a 00
        E 0 80 32 00
        E 0 80 4a 00
        E 0 80 62 00
        E 120 90 04 64
        E 0 90 4b 6d
        E 0 90 4c 6b
        E 0 90 63 6d
        E 0 90 64 6b
        E 0 90 6c 6b
        E 120 80 04 00
        E 0 80 4b 00
        E 0 80 4c 00
        E 0 80 63 00
        E 0 80 64 00
        E 0 80 6c 00
        E 360 90 0d 64
        E 0 90 10 64
        E 0 90 4b 6a
        E 0 90 4c 69
        E 0 90 50 64
        E 0 90 63 6a
        E 0 90 64 69
        E 0 90 68 64
        E 0 90 6c 69
        E 0 91 49 64
        E 0 91 61 64
        E 120 80 0d 00
        E 0 80 4b 00
        E 0 80 4c 00
        E 0 80 63 00
        E 0 80 64 00
        E 0 80 6c 00
        E 0 81 49 00
        E 0 81 61 00
        E 120 90 19 64
        E 0 90 31 64
        E 0 90 49 64
        E 0 90 61 64
        E 120 80 19 00
        E 0 80 31 00
        E 0 80 49 00
        E 0 80 61 00
        E 120 90 4b 6a
        E 0 90 4c 69
        E 0 90 63 6a
        E 0 90 64 69
        E 120 80 50 00
        E 0 80 68 00
        E 0 80 4b 00
        E 0 80 4c 00
        E 0 80 63 00
        E 0 80 64 00
        E 360 90 0b 64
        E 0 90 4b 68
        E 0 90 4c 67
        E 0 90 50 64
        E 0 90 63 68
        E 0 90 64 67
        E 0 90 68 64
        E 0 90 6c 67
        E 0 91 48 64
        E 0 91 60 64
        E 120 80 10 00
        E 0 80 0b 00
        E 0 80 4b 00
        E 0 80 4c 00
        E 0 80 63 00
        E 0 80 64 00
        E 0 80 6c 00
        E 0 81 48 00
        E 0 81 60 00
        E 120 90 18 64
        E 0 90 30 64
        E 0 90 48 64
        E 0 90 60 64
        E 120 80 18 00
        E 0 80 30 00
        E 0 80 48 00
        E 0 80 60 00
        E 120 90 4b 68
        E 0 90 4c 67
        E 0 90 63 68
        E 0 90 64 67
        E 600 80 74 00
        E 0 80 50 00
        E 0 80 68 00
        E 0 80 4b 00
        E 0 80 4c 00
        E 0 80 63 00
        E 0 80 64 00
        E 120 90 09 64
        E 0 90 19 64
        E 0 90 49 64
        E 0 90 50 64
        E 0 90 61 64
        E 0 90 68 64
        E 0 90 6c 6b
        E 0 91 4a 6b
        E 0 91 4b 6d
        E 0 91 62 6b
        E 0 91 63 6d
        E 120 80 09 00
        E 0 80 19 00
        E 0 80 49 00
        E 0 80 61 00
        E 0 80 6c 00
        E 0 81 4a 00
        E 0 81 4b 00
        E 0 81 62 00
        E 0 81 63 00
        E 120 90 32 6b
        E 0 90 33 6d
        E 0 90 4a 6b
        E 0 90 4b 6d
        E 0 90 62 6b
        E 0 90 63 6d
        E 120 80 32 00
        E 0 80 33 00
        E 0 80 4a 00
        E 0 80 4b 00
        E 0 80 62 00
        E 0 80 63 00
        E 360 90 32 6b
        E 0 90 33 6d
        E 0 90 4a 6b
        E 0 90 4b 6d
        E 0 90 62 6b
        E 0 90 63 6d
        E 120 80 32 00
        E 0 80 33 00
        E 0 80 4a 00
        E 0 80 4b 00
        E 0 80 62 00
        E 0 80 63 00
        E 360 90 32 6b
        E 0 90 33 6d
        E 0 90 4a 6b
        E 0 90 4b 6d
        E 0 90 62 6b
        E 0 90 63 6d
        E 120 80 50 00
        E 0 80 68 00
        E 0 80 32 00
        E 0 80 33 00
        E 0 80 4a 00
        E 0 80 4b 00
        E 0 80 62 00
        E 0 80 63 00
        E 360 90 06 64
        E 0 90 4b 6f
        E 0 90 4c 6e
        E 0 90 63 6f
        E 0 90 64 6e
        E 0 90 6c 6e
        E 120 80 06 00
        E 0 80 4b 00
        E 0 80 4c 00
        E 0 80 63 00
        E 0 80 64 00
        E 0 80 6c 00
        E 120 90 1a 64
        E 0 90 32 64
        E 0 90 4a 64
        E 0 90 62 64
        E 120 80 1a 00
        E 0 80 32 00
        E 0 80 4a 00
        E 0 80 62 00
        E 120 90 04 64
        E 0 90 4b 6d
        E 0 90 4c 6b
        E 0 90 63 6d
        E 0 90 64 6b
        E 0 90 6c 6b
        E 120 80 04 00
        E 0 80 4b 00
        E 0 80 4c 00
        E 0 80 63 00
        E 0 80 64 00
        E 0 80 6c 00
        E 360 90 0d 64
        E 0 90 10 64
        E 0 90 4b 6a
        E 0 90 4c 69
        E 0 90 50 64
        E 0 90 63 6a
        E 0 90 64 69
        E 0 90 68 64
        E 0 90 6c 69
        E 0 91 49 64
        E 0 91 61 64
        E 120 80 0d 00
        E 0 80 4b 00
        E 0 80 4c 00
        E 0 80 63 00
        E 0 80 64 00
        E 0 80 6c 00
        E 0 81 49 00
        E 0 81 61 00
        E 120 90 19 64
        E 0 90 31 64
        E 0 90 49 64
        E 0 90 61 64
        E 120 80 19 00
        E 0 80 31 00
        E 0 80 49 00
        E 0 80 61 00
        E 120 90 4b 6a
        E 0 90 4c 69
        E 0 90 63 6a
        E 0 90 64 69
        E 120 80 50 00
        E 0 80 68 00
        E 0 80 4b 00
        E 0 80 4c 00
        E 0 80 63 00
        E 0 80 64 00
        E 360 90 0b 64
        E 0 90 4b 68
        E 0 90 4c 67
        E 0 90 50 64
        E 0 90 63 68
        E 0 90 64 67
        E 0 90 68 64
        E 0 90 6c 67
        E 0 91 48 64
        E 0 91 60 64
        E 120 80 10 00
        E 0 80 0b 00
        E 0 80 4b 00
        E 0 80 4c 00
        E 0 80 63 00
        E 0 80 64 00
        E 0 80 6c 00
        E 0 81 48 00
        E 0 81 60 00
        E 120 90 18 64
        E 0 90 30 64
        E 0 90 48 64
        E 0 90 60 64
        E 120 80 18 00
        E 0 80 30 00
        E 0 80 48 00
        E 0 80 60 00
        E 120 90 4b 68
        E 0 90 4c 67
        E 0 90 63 68
        E 0 90 64 67
        E 600 80 50 00
        E 0 80 68 00
        E 0 80 4b 00
        E 0 80 4c 00
        E 0 80 63 00
        E 0 80 64 00
        E 120 90 09 64
        E 0 90 19 64
        E 0 90 49 64
        E 0 90 50 64
        E 0 90 61 64
        E 0 90 68 64
        E 0 90 6c 6b
        E 0 91 4a 6b
        E 0 91 4b 6d
        E 0 91 62 6b
        E 0 91 63 6d
        E 120 80 09 00
        E 0 80 19 00
        E 0 80 49 00
        E 0 80 61 00
        E 0 80 6c 00
        E 0 81 4a 00
        E 0 81 4b 00
        E 0 81 62 00
        E 0 81 63 00
        E 120 90 32 6b
        E 0 90 33 6d
        E 0 90 4a 6b
        E 0 90 4b 6d
        E 0 90 62 6b
        E 0 90 63 6d
        E 120 80 32 00
        E 0 80 33 00
        E 0 80 4a 00
        E 0 80 4b 00
        E 0 80 62 00
        E 0 80 63 00
        E 360 90 32 6b
        E 0 90 33 6d
        E 0 90 4a 6b
        E 0 90 4b 6d
        E 0 90 62 6b
        E 0 90 63 6d
        E 120 80 32 00
        E 0 80 33 00
        E 0 80 4a 00
        E 0 80 4b 00
        E 0 80 62 00
        E 0 80 63 00
        E 360 90 32 6b
        E 0 90 33 6d
        E 0 90 4a 6b
        E 0 90 4b 6d
        E 0 90 62 6b
        E 0 90 63 6d
        E 120 80 32 00
        E 0 80 33 00
        E 0 80 4a 00
        E 0 80 4b 00
        E 0 80 62 00
        E 0 80 63 00
        E 360 90 4a 6b
        E 0 90 4b 6d
        E 0 90 62 6b
        E 0 90 63 6d
        E 120 80 50 00
        E 0 80 68 00
        E 0 80 4a 00
        E 0 80 4b 00
        E 0 80 62 00
        E 0 80 63 00
        E 120 90 07 64
        E 0 90 18 67
        E 0 90 30 67
        E 0 90 48 67
        E 0 90 50 64
        E 0 90 60 67
        E 0 90 68 64
        E 0 90 6c 67
        E 0 91 49 69
        E 0 91 4a 69
        E 0 91 4b 68
        E 0 91 4c 67
        E 0 91 4d 67
        E 0 91 61 69
        E 0 91 62 69
        E 0 91 63 68
        E 0 91 64 67
        E 0 91 65 67
        E 120 80 07 00
        E 0 80 18 00
        E 0 80 30 00
        E 0 80 48 00
        E 0 80 60 00
        E 0 80 6c 00
        E 0 81 49 00
        E 0 81 4a 00
        E 0 81 4b 00
        E 0 81 4c 00
        E 0 81 4d 00
        E 0 81 61 00
        E 0 81 62 00
        E 0 81 63 00
        E 0 81 64 00
        E 0 81 65 00
        E 120 90 4b 68
        E 0 90 4c 67
        E 0 90 63 68
        E 0 90 64 67
        E 600 80 50 00
        E 0 80 68 00
        E 0 80 4b 00
        E 0 80 4c 00
        E 0 80 63 00
        E 0 80 64 00
        E 120 90 0e 64
        E 0 90 1a 6b
        E 0 90 32 6b
        E 0 90 33 6b
        E 0 90 4a 6b
        E 0 90 4b 6b
        E 0 90 62 6b
        E 0 90 63 6b
        E 0 90 6c 69
        E 120 80 0e 00
        E 0 80 6c 00
        E 360 80 1a 00
        E 0 80 32 00
        E 0 80 33 00
        E 360 80 4a 00
        E 0 80 4b 00
        E 0 80 62 00
        E 0 80 63 00
        E 120 90 04 64
        E 0 90 1a 6d
        E 0 90 32 6d
        E 0 90 33 6d
        E 0 90 4a 6d
        E 0 90 4b 6d
        E 0 90 62 6d
        E 0 90 63 6d
        E 0 90 6c 6b
        E 120 80 04 00
        E 0 80 6c 00
        E 360 80 1a 00
        E 0 80 32 00
        E 0 80 33 00
        E 360 80 4a 00
        E 0 80 4b 00
        E 0 80 62 00
        E 0 80 63 00
        E 120 90 07 64
        E 0 90 1a 70
        E 0 90 32 70
        E 0 90 33 70
        E 0 90 4a 70
        E 0 90 4b 70
        E 0 90 62 70
        E 0 90 63 70
        E 0 90 6c 6e
        E 0 90 74 64
        E 120 80 07 00
        E 0 80 6c 00
        E 360 80 1a 00
        E 0 80 32 00
        E 0 80 33 00
        E 360 80 4a 00
        E 0 80 4b 00
        E 0 80 62 00
        E 0 80 63 00
        E 120 90 06 64
        E 0 90 1a 6f
        E 0 90 32 6f
        E 0 90 33 6f
        E 0 90 4a 6f
        E 0 90 4b 6f
        E 0 90 62 6f
        E 0 90 63 6f
        E 0 90 6c 6d
        E 120 80 06 00
        E 0 80 6c 00
        E 360 80 1a 00
        E 0 80 32 00
        E 0 80 33 00
        E 360 80 4a 00
        E 0 80 4b 00
        E 0 80 62 00
        E 0 80 63 00
        E 120 90 04 64
        E 0 90 1a 6d
        E 0 90 32 6d
        E 0 90 33 6d
        E 0 90 4a 6d
        E 0 90 4b 6d
        E 0 90 62 6d
        E 0 90 63 6d
        E 0 90 6c 6b
        E 120 80 04 00
        E 0 80 6c 00
        E 360 80 1a 00
        E 0 80 32 00
        E 0 80 33 00
        E 360 80 4a 00
        E 0 80 4b 00
        E 0 80 62 00
        E 0 80 63 00
        E 120 90 0e 64
        E 0 90 1a 6b
        E 0 90 32 6b
        E 0 90 33 6b
        E 0 90 4a 6b
        E 0 90 4b 6b
        E 0 90 62 6b
        E 0 90 63 6b
        E 0 90 6c 69
        E 120 80 0e 00
        E 0 80 6c 00
        E 360 80 1a 00
        E 0 80 32 00
        E 0 80 33 00
        E 360 80 4a 00
        E 0 80 4b 00
        E 0 80 62 00
        E 0 80 63 00
        E 120 90 04 64
        E 0 90 1a 6d
        E 0 90 32 6d
        E 0 90 33 6d
        E 0 90 4a 6d
        E 0 90 4b 6d
        E 0 90 62 6d
        E 0 90 63 6d
        E 0 90 6c 6b
        E 120 80 04 00
        E 0 80 6c 00
        E 360 80 1a 00
        E 0 80 32 00
        E 0 80 33 00
        E 360 80 4a 00
        E 0 80 4b 00
        E 0 80 62 00
        E 0 80 63 00
        E 120 90 09 64
        E 0 90 19 64
        E 0 90 49 64
        E 0 90 50 64
        E 0 90 61 64
        E 0 90 68 64
        E 0 90 6c 70
        E 0 91 4a 72
        E 0 91 4b 72
        E 0 91 62 72
        E 0 91 63 72
        E 120 80 74 00
        E 0 80 09 00
        E 0 80 19 00
        E 0 80 49 00
        E 0 80 61 00
        E 0 80 6c 00
        E 0 81 4a 00
        E 0 81 4b 00
        E 0 81 62 00
        E 0 81 63 00
        E 120 90 32 72
        E 0 90 33 72
        E 0 90 4a 72
        E 0 90 4b 72
        E 0 90 62 72
        E 0 90 63 72
        E 120 80 32 00
        E 0 80 33 00
        E 0 80 4a 00
        E 0 80 4b 00
        E 0 80 62 00
        E 0 80 63 00
        E 360 90 4a 72
        E 0 90 4b 72
        E 0 90 62 72
        E 0 90 63 72
        E 120 80 50 00
        E 0 80 68 00
        E 0 80 4a 00
        E 0 80 4b 00
        E 0 80 62 00
        E 0 80 63 00
        E 120 90 07 64
        E 0 90 19 6e
        E 0 90 31 6e
        E 0 90 49 6e
        E 0 90 50 64
        E 0 90 61 6e
        E 0 90 68 64
        E 0 90 6c 6e
        E 0 91 4a 70
        E 0 91 4b 70
        E 0 91 62 70
        E 0 91 63 70
        E 120 80 07 00
        E 0 80 19 00
        E 0 80 31 00
        E 0 80 49 00
        E 0 80 61 00
        E 0 80 6c 00
        E 0 81 4a 00
        E 0 81 4b 00
        E 0 81 62 00
        E 0 81 63 00
        E 120 90 32 70
        E 0 90 4a 70
        E 0 90 4b 70
        E 0 90 62 70
        E 0 90 63 70
        E 120 80 32 00
        E 0 80 62 00
        E 0 80 63 00
        E 360 80 4a 00
        E 0 80 4b 00
        E 0 90 62 70
        E 0 90 63 70
        E 120 80 50 00
        E 0 80 68 00
        E 0 80 62 00
        E 0 80 63 00
        E 120 90 0e 64
        E 0 90 1a 6b
        E 0 90 32 6b
        E 0 90 33 6b
        E 0 90 4a 6b
        E 0 90 4b 6b
        E 0 90 62 6b
        E 0 90 63 6b
        E 0 90 6c 69
        E 120 80 0e 00
        E 0 80 6c 00
        E 360 80 1a 00
        E 0 80 32 00
        E 0 80 33 00
        E 360 80 4a 00
        E 0 80 4b 00
        E 0 80 62 00
        E 0 80 63 00
        E 120 90 04 64
        E 0 90 1a 6d
        E 0 90 32 6d
        E 0 90 33 6d
        E 0 90 4a 6d
        E 0 90 4b 6d
        E 0 90 62 6d
        E 0 90 63 6d
        E 0 90 6c 6b
        E 120 80 04 00
        E 0 80 6c 00
        E 360 80 1a 00
        E 0 80 32 00
        E 0 80 33 00
        E 360 80 4a 00
        E 0 80 4b 00
        E 0 80 62 00
        E 0 80 63 00
        E 120 90 09 64
        E 0 90 19 64
        E 0 90 49 64
        E 0 90 50 64
        E 0 90 61 64
        E 0 90 68 64
        E 0 90 6c 70
        E 0 91 4a 72
        E 0 91 4b 72
        E 0 91 62 72
        E 0 91 63 72
        E 120 80 09 00
        E 0 80 19 00
        E 0 80 49 00
        E 0 80 61 00
        E 0 80 6c 00
        E 0 81 4a 00
        E 0 81 4b 00
        E 0 81 62 00
        E 0 81 63 00
        E 120 90 32 72
        E 0 90 33 72
        E 0 90 4a 72
        E 0 90 4b 72
        E 0 90 62 72
        E 0 90 63 72
        E 120 80 32 00
        E 0 80 33 00
        E 0 80 4a 00
        E 0 80 4b 00
        E 0 80 62 00
        E 0 80 63 00
        E 360 90 4a 72
        E 0 90 4b 72
        E 0 90 62 72
        E 0 90 63 72
        E 120 80 50 00
        E 0 80 68 00
        E 0 80 4a 00
        E 0 80 4b 00
        E 0 80 62 00
        E 0 80 63 00
        E 120 90 07 64
        E 0 90 19 6e
        E 0 90 31 6e
        E 0 90 49 6e
        E 0 90 50 64
        E 0 90 61 6e
        E 0 90 68 64
        E 0 90 6c 6e
        E 0 91 4a 70
        E 0 91 4b 70
        E 0 91 62 70
        E 0 91 63 70
        E 120 80 07 00
        E 0 80 19 00
        E 0 80 31 00
        E 0 80 49 00
        E 0 80 61 00
        E 0 80 6c 00
        E 0 81 4a 00
        E 0 81 4b 00
        E 0 81 62 00
        E 0 81 63 00
        E 120 90 32 70
        E 0 90 4a 70
        E 0 90 4b 70
        E 0 90 62 70
        E 0 90 63 70
        E 120 80 32 00
        E 360 80 50 00
        E 0 80 68 00
        E 0 80 4a 00
        E 0 80 4b 00
        E 0 80 62 00
        E 0 80 63 00
        E 240 90 0e 64
        E 0 90 1a 6b
        E 0 90 32 6b
        E 0 90 33 6b
        E 0 90 4a 6b
        E 0 90 4b 6b
        E 0 90 62 6b
        E 0 90 63 6b
        E 0 90 6c 69
        E 120 80 0e 00
        E 0 80 6c 00
        E 360 80 1a 00
        E 0 80 32 00
        E 0 80 33 00
        E 360 80 4a 00
        E 0 80 4b 00
        E 0 80 62 00
        E 0 80 63 00
        E 120 90 04 64
        E 0 90 1a 6d
        E 0 90 32 6d
        E 0 90 33 6d
        E 0 90 4a 6d
        E 0 90 4b 6d
        E 0 90 62 6d
        E 0 90 63 6d
        E 0 90 6c 6b
        E 120 80 04 00
        E 0 80 6c 00
        E 360 80 1a 00
        E 0 80 32 00
        E 0 80 33 00
        E 360 80 4a 00
        E 0 80 4b 00
        E 0 80 62 00
        E 0 80 63 00
        E 120 90 09 64
        E 0 90 19 64
        E 0 90 49 64
        E 0 90 50 64
        E 0 90 61 64
        E 0 90 68 64
        E 0 90 6c 70
        E 0 91 4a 72
        E 0 91 4b 72
        E 0 91 62 72
        E 0 91 63 72
        E 120 80 09 00
        E 0 80 19 00
        E 0 80 49 00
        E 0 80 61 00
        E 0 80 6c 00
        E 0 81 4a 00
        E 0 81 4b 00
        E 0 81 62 00
        E 0 81 63 00
        E 120 90 32 72
        E 0 90 33 72
        E 0 90 4a 72
        E 0 90 4b 72
        E 0 90 62 72
        E 0 90 63 72
        E 120 80 32 00
        E 0 80 33 00
        E 0 80 4a 00
        E 0 80 4b 00
        E 0 80 62 00
        E 0 80 63 00
        E 360 90 4a 72
        E 0 90 4b 72
        E 0 90 62 72
        E 0 90 63 72
        E 120 80 50 00
        E 0 80 68 00
        E 0 80 4a 00
        E 0 80 4b 00
        E 0 80 62 00
        E 0 80 63 00
        E 120 90 07 64
        E 0 90 19 6e
        E 0 90 31 6e
        E 0 90 49 6e
        E 0 90 50 64
        E 0 90 61 6e
        E 0 90 68 64
        E 0 90 6c 6e
        E 0 91 4a 70
        E 0 91 4b 70
        E 0 91 62 70
        E 0 91 63 70
        E 120 80 07 00
        E 0 80 19 00
        E 0 80 31 00
        E 0 80 49 00
        E 0 80 61 00
        E 0 80 6c 00
        E 0 81 4a 00
        E 0 81 4b 00
        E 0 81 62 00
        E 0 81 63 00
        E 120 90 32 70
        E 0 90 4a 70
        E 0 90 4b 70
        E 0 90 62 70
        E 0 90 63 70
        E 120 80 32 00
        E 0 80 4a 00
        E 0 80 4b 00
        E 360 80 50 00
        E 0 80 68 00
        E 0 80 62 00
        E 0 80 63 00
        E 0 90 4a 70
        E 0 90 4b 70
        E 120 80 4a 00
        E 0 80 4b 00
        E 120 90 0e 64
        E 0 90 1a 6b
        E 0 90 32 6b
        E 0 90 33 6b
        E 0 90 4a 6b
        E 0 90 4b 6b
        E 0 90 62 6b
        E 0 90 63 6b
        E 0 90 6c 69
        E 120 80 0e 00
        E 0 80 6c 00
        E 360 80 1a 00
        E 0 80 32 00
        E 0 80 33 00
        E 360 80 4a 00
        E 0 80 4b 00
        E 0 80 62 00
        E 0 80 63 00
        E 120 90 04 64
        E 0 90 1a 6d
        E 0 90 32 6d
        E 0 90 33 6d
        E 0 90 4a 6d
        E 0 90 4b 6d
        E 0 90 62 6d
        E 0 90 63 6d
        E 0 90 6c 6b
        E 120 80 04 00
        E 0 80 6c 00
        E 360 80 1a 00
        E 0 80 32 00
        E 0 80 33 00
        E 360 80 4a 00
        E 0 80 4b 00
        E 0 80 62 00
        E 0 80 63 00
        E 120 90 09 64
        E 0 90 19 64
        E 0 90 49 64
        E 0 90 50 64
        E 0 90 61 64
        E 0 90 68 64
        E 0 90 6c 6b
        E 0 91 4a 6b
        E 0 91 4b 6d
        E 0 91 62 6b
        E 0 91 63 6d
        E 120 80 09 00
        E 0 80 19 00
        E 0 80 49 00
        E 0 80 61 00
        E 0 80 6c 00
        E 0 81 4a 00
        E 0 81 4b 00
        E 0 81 62 00
        E 0 81 63 00
        E 120 90 32 6b
        E 0 90 33 6d
        E 0 90 4a 6b
        E 0 90 4b 6d
        E 0 90 62 6b
        E 0 90 63 6d
        E 120 80 32 00
        E 0 80 33 00
        E 0 80 4a 00
        E 0 80 4b 00
        E 0 80 62 00
        E 0 80 63 00
        E 360 90 32 6b
        E 0 90 33 6d
        E 0 90 4a 6b
        E 0 90 4b 6d
        E 0 90 62 6b
        E 0 90 63 6d
        E 120 80 32 00
        E 0 80 33 00
        E 0 80 4a 00
        E 0 80 4b 00
        E 0 80 62 00
        E 0 80 63 00
        E 360 90 32 6b
        E 0 90 33 6d
        E 0 90 4a 6b
        E 0 90 4b 6d
        E 0 90 62 6b
        E 0 90 63 6d
        E 120 80 50 00
        E 0 80 68 00
        E 0 80 32 00
        E 0 80 33 00
        E 0 80 4a 00
        E 0 80 4b 00
        E 0 80 62 00
        E 0 80 63 00
        E 360 90 06 64
        E 0 90 4b 6f
        E 0 90 4c 6e
        E 0 90 63 6f
        E 0 90 64 6e
        E 0 90 6c 6e
        E 120 80 06 00
        E 0 80 4b 00
        E 0 80 4c 00
        E 0 80 63 00
        E 0 80 64 00
        E 0 80 6c 00
        E 120 90 1a 64
        E 0 90 32 64
        E 0 90 4a 64
        E 0 90 62 64
        E 120 80 1a 00
        E 0 80 32 00
        E 0 80 4a 00
        E 0 80 62 00
        E 120 90 04 64
        E 0 90 4b 6d
        E 0 90 4c 6b
        E 0 90 63 6d
        E 0 90 64 6b
        E 0 90 6c 6b
        E 120 80 04 00
        E 0 80 4b 00
        E 0 80 4c 00
        E 0 80 63 00
        E 0 80 64 00
        E 0 80 6c 00
        E 360 90 0d 64
        E 0 90 10 64
        E 0 90 4b 6a
        E 0 90 4c 69
        E 0 90 50 64
        E 0 90 63 6a
        E 0 90 64 69
        E 0 90 68 64
        E 0 90 6c 69
        E 0 91 49 64
        E 0 91 61 64
        E 120 80 0d 00
        E 0 80 4b 00
        E 0 80 4c 00
        E 0 80 63 00
        E 0 80 64 00
        E 0 80 6c 00
        E 0 81 49 00
        E 0 81 61 00
        E 120 90 19 64
        E 0 90 31 64
        E 0 90 49 64
        E 0 90 61 64
        E 120 80 19 00
        E 0 80 31 00
        E 0 80 49 00
        E 0 80 61 00
        E 120 90 4b 6a
        E 0 90 4c 69
        E 0 90 63 6a
        E 0 90 64 69
        E 120 80 50 00
        E 0 80 68 00
        E 0 80 4b 00
        E 0 80 4c 00
        E 0 80 63 00
        E 0 80 64 00
        E 360 90 0b 64
        E 0 90 4b 68
        E 0 90 4c 67
        E 0 90 50 64
        E 0 90 63 68
        E 0 90 64 67
        E 0 90 68 64
        E 0 90 6c 67
        E 0 91 48 64
        E 0 91 60 64
        E 120 80 10 00
        E 0 80 0b 00
        E 0 80 4b 00
        E 0 80 4c 00
        E 0 80 63 00
        E 0 80 64 00
        E 0 80 6c 00
        E 0 81 48 00
        E 0 81 60 00
        E 120 90 18 64
        E 0 90 30 64
        E 0 90 48 64
        E 0 90 60 64
        E 120 80 18 00
        E 0 80 30 00
        E 0 80 48 00
        E 0 80 60 00
        E 120 90 4b 68
        E 0 90 4c 67
        E 0 90 63 68
        E 0 90 64 67
        E 600 80 50 00
        E 0 80 68 00
        E 0 80 4b 00
        E 0 80 4c 00
        E 0 80 63 00
        E 0 80 64 00
        E 120 90 09 64
        E 0 90 19 64
        E 0 90 49 64
        E 0 90 50 64
        E 0 90 61 64
        E 0 90 68 64
        E 0 90 6c 6b
        E 0 91 4a 6b
        E 0 91 4b 6d
        E 0 91 62 6b
        E 0 91 63 6d
        E 120 80 09 00
        E 0 80 19 00
        E 0 80 49 00
        E 0 80 61 00
        E 0 80 6c 00
        E 0 81 4a 00
        E 0 81 4b 00
        E 0 81 62 00
        E 0 81 63 00
        E 120 90 32 6b
        E 0 90 33 6d
        E 0 90 4a 6b
        E 0 90 4b 6d
        E 0 90 62 6b
        E 0 90 63 6d
        E 120 80 32 00
        E 0 80 33 00
        E 0 80 4a 00
        E 0 80 4b 00
        E 0 80 62 00
        E 0 80 63 00
        E 360 90 32 6b
        E 0 90 33 6d
        E 0 90 4a 6b
        E 0 90 4b 6d
        E 0 90 62 6b
        E 0 90 63 6d
        E 120 80 32 00
        E 0 80 33 00
        E 0 80 4a 00
        E 0 80 4b 00
        E 0 80 62 00
        E 0 80 63 00
        E 360 90 32 6b
        E 0 90 33 6d
        E 0 90 4a 6b
        E 0 90 4b 6d
        E 0 90 62 6b
        E 0 90 63 6d
        E 120 80 50 00
        E 0 80 68 00
        E 0 80 32 00
        E 0 80 33 00
        E 0 80 4a 00
        E 0 80 4b 00
        E 0 80 62 00
        E 0 80 63 00
        E 360 90 06 64
        E 0 90 4b 6f
        E 0 90 4c 6e
        E 0 90 63 6f
        E 0 90 64 6e
        E 0 90 6c 6e
        E 0 90 74 64
        E 120 80 06 00
        E 0 80 4b 00
        E 0 80 4c 00
        E 0 80 63 00
        E 0 80 64 00
        E 0 80 6c 00
        E 120 90 1a 64
        E 0 90 32 64
        E 0 90 4a 64
        E 0 90 62 64
        E 120 80 1a 00
        E 0 80 32 00
        E 0 80 4a 00
        E 0 80 62 00
        E 120 90 04 64
        E 0 90 4b 6d
        E 0 90 4c 6b
        E 0 90 63 6d
        E 0 90 64 6b
        E 0 90 6c 6b
        E 120 80 04 00
        E 0 80 4b 00
        E 0 80 4c 00
        E 0 80 63 00
        E 0 80 64 00
        E 0 80 6c 00
        E 360 90 0d 64
        E 0 90 10 64
        E 0 90 4b 6a
        E 0 90 4c 69
        E 0 90 50 64
        E 0 90 63 6a
        E 0 90 64 69
        E 0 90 68 64
        E 0 90 6c 69
        E 0 91 49 64
        E 0 91 61 64
        E 120 80 74 00
        E 0 80 0d 00
        E 0 80 4b 00
        E 0 80 4c 00
        E 0 80 63 00
        E 0 80 64 00
        E 0 80 6c 00
        E 0 81 49 00
        E 0 81 61 00
        E 120 90 19 64
        E 0 90 31 64
        E 0 90 49 64
        E 0 90 61 64
        E 120 80 19 00
        E 0 80 31 00
        E 0 80 49 00
        E 0 80 61 00
        E 120 90 4b 6a
        E 0 90 4c 69
        E 0 90 63 6a
        E 0 90 64 69
        E 120 80 50 00
        E 0 80 68 00
        E 0 80 4b 00
        E 0 80 4c 00
        E 0 80 63 00
        E 0 80 64 00
        E 360 90 0b 64
        E 0 90 4b 68
        E 0 90 4c 67
        E 0 90 50 64
        E 0 90 63 68
        E 0 90 64 67
        E 0 90 68 64
        E 0 90 6c 67
        E 0 91 48 64
        E 0 91 60 64
        E 120 80 10 00
        E 0 80 0b 00
        E 0 80 4b 00
        E 0 80 4c 00
        E 0 80 63 00
        E 0 80 64 00
        E 0 80 6c 00
        E 0 81 48 00
        E 0 81 60 00
        E 120 90 18 64
        E 0 90 30 64
        E 0 90 48 64
        E 0 90 60 64
        E 120 80 18 00
        E 0 80 30 00
        E 0 80 48 00
        E 0 80 60 00
        E 120 90 4b 68
        E 0 90 4c 67
        E 0 90 63 68
        E 0 90 64 67
        E 600 80 50 00
        E 0 80 68 00
        E 0 80 4b 00
        E 0 80 4c 00
        E 0 80 63 00
        E 0 80 64 00
        E 120 90 09 64
        E 0 90 19 64
        E 0 90 49 64
        E 0 90 50 64
        E 0 90 61 64
        E 0 90 68 64
        E 0 90 6c 6b
        E 0 91 4a 6b
        E 0 91 4b 6d
        E 0 91 62 6b
        E 0 91 63 6d
        E 120 80 09 00
        E 0 80 19 00
        E 0 80 49 00
        E 0 80 61 00
        E 0 80 6c 00
        E 0 81 4a 00
        E 0 81 4b 00
        E 0 81 62 00
        E 0 81 63 00
        E 120 90 32 6b
        E 0 90 33 6d
        E 0 90 4a 6b
        E 0 90 4b 6d
        E 0 90 62 6b
        E 0 90 63 6d
        E 120 80 32 00
        E 0 80 33 00
        E 0 80 4a 00
        E 0 80 4b 00
        E 0 80 62 00
        E 0 80 63 00
        E 360 90 32 6b
        E 0 90 33 6d
        E 0 90 4a 6b
        E 0 90 4b 6d
        E 0 90 62 6b
        E 0 90 63 6d
        E 120 80 32 00
        E 0 80 33 00
        E 0 80 4a 00
        E 0 80 4b 00
        E 0 80 62 00
        E 0 80 63 00
        E 360 90 32 6b
        E 0 90 33 6d
        E 0 90 4a 6b
        E 0 90 4b 6d
        E 0 90 62 6b
        E 0 90 63 6d
        E 120 80 50 00
        E 0 80 68 00
        E 0 80 32 00
        E 0 80 33 00
        E 0 80 4a 00
        E 0 80 4b 00
        E 0 80 62 00
        E 0 80 63 00
        E 360 90 06 64
        E 0 90 4b 6f
        E 0 90 4c 6e
        E 0 90 63 6f
        E 0 90 64 6e
        E 0 90 6c 6e
        E 120 80 06 00
        E 0 80 4b 00
        E 0 80 4c 00
        E 0 80 63 00
        E 0 80 64 00
        E 0 80 6c 00
        E 120 90 1a 64
        E 0 90 32 64
        E 0 90 4a 64
        E 0 90 62 64
        E 120 80 1a 00
        E 0 80 32 00
        E 0 80 4a 00
        E 0 80 62 00
        E 120 90 04 64
        E 0 90 4b 6d
        E 0 90 4c 6b
        E 0 90 63 6d
        E 0 90 64 6b
        E 0 90 6c 6b
        E 120 80 04 00
        E 0 80 4b 00
        E 0 80 4c 00
        E 0 80 63 00
        E 0 80 64 00
        E 0 80 6c 00
        E 360 90 0d 64
        E 0 90 10 64
        E 0 90 4b 6a
        E 0 90 4c 69
        E 0 90 50 64
        E 0 90 63 6a
        E 0 90 64 69
        E 0 90 68 64
        E 0 90 6c 69
        E 0 91 49 64
        E 0 91 61 64
        E 120 80 0d 00
        E 0 80 10 00
        E 0 80 4b 00
        E 0 80 4c 00
        E 0 80 63 00
        E 0 80 64 00
        E 0 80 6c 00
        E 0 81 49 00
        E 0 81 61 00
        E 120 90 19 64
        E 0 90 31 64
        E 0 90 49 64
        E 0 90 61 64
        E 120 80 19 00
        E 0 80 31 00
        E 0 80 49 00
        E 0 80 61 00
        E 120 90 4b 6a
        E 0 90 4c 69
        E 0 90 63 6a
        E 0 90 64 69
        E 120 80 50 00
        E 0 80 68 00
        E 0 80 4b 00
        E 0 80 4c 00
        E 0 80 63 00
        E 0 80 64 00
        E 360 90 0b 64
        E 0 90 10 64
        E 0 90 4b 68
        E 0 90 4c 67
        E 0 90 50 64
        E 0 90 63 68
        E 0 90 64 67
        E 0 90 68 64
        E 0 90 6c 67
        E 0 91 48 64
        E 0 91 60 64
        E 120 80 0b 00
        E 0 80 10 00
        E 0 80 4b 00
        E 0 80 4c 00
        E 0 80 63 00
        E 0 80 64 00
        E 0 80 6c 00
        E 0 81 48 00
        E 0 81 60 00
        E 120 90 18 64
        E 0 90 30 64
        E 0 90 48 64
        E 0 90 60 64
        E 120 80 18 00
        E 0 80 30 00
        E 0 80 48 00
        E 0 80 60 00
        E 120 90 4b 68
        E 0 90 4c 67
        E 0 90 63 68
        E 0 90 64 67
        E 600 80 50 00
        E 0 80 68 00
        E 0 80 4b 00
        E 0 80 4c 00
        E 0 80 63 00
        E 0 80 64 00
        E 120 90 09 64
        E 0 90 19 64
        E 0 90 49 64
        E 0 90 50 64
        E 0 90 61 64
        E 0 90 68 64
        E 0 90 6c 6b
        E 0 91 4a 6b
        E 0 91 4b 6d
        E 0 91 62 6b
        E 0 91 63 6d
        E 120 80 09 00
        E 0 80 19 00
        E 0 80 49 00
        E 0 80 61 00
        E 0 80 6c 00
        E 0 81 4a 00
        E 0 81 4b 00
        E 0 81 62 00
        E 0 81 63 00
        E 120 90 32 6b
        E 0 90 33 6d
        E 0 90 4a 6b
        E 0 90 4b 6d
        E 0 90 62 6b
        E 0 90 63 6d
        E 120 80 32 00
        E 0 80 33 00
        E 0 80 4a 00
        E 0 80 4b 00
        E 0 80 62 00
        E 0 80 63 00
        E 360 90 32 6b
        E 0 90 33 6d
        E 0 90 4a 6b
        E 0 90 4b 6d
        E 0 90 62 6b
        E 0 90 63 6d
        E 120 80 32 00
        E 0 80 33 00
        E 0 80 4a 00
        E 0 80 4b 00
        E 0 80 62 00
        E 0 80 63 00
        E 360 90 32 6b
        E 0 90 33 6d
        E 0 90 4a 6b
        E 0 90 4b 6d
        E 0 90 62 6b
        E 0 90 63 6d
        E 120 80 32 00
        E 0 80 33 00
        E 0 80 4a 00
        E 0 80 4b 00
        E 0 80 62 00
        E 0 80 63 00
        E 360 90 4a 6b
        E 0 90 4b 6d
        E 0 90 62 6b
        E 0 90 63 6d
        E 120 80 50 00
        E 0 80 68 00
        E 0 80 4a 00
        E 0 80 4b 00
        E 0 80 62 00
        E 0 80 63 00
        E 120 90 07 64
        E 0 90 18 67
        E 0 90 30 67
        E 0 90 48 67
        E 0 90 50 64
        E 0 90 60 67
        E 0 90 68 64
        E 0 90 6c 67
        E 0 90 74 64
        E 0 91 49 69
        E 0 91 4a 69
        E 0 91 4b 68
        E 0 91 4c 67
        E 0 91 4d 67
        E 0 91 61 69
        E 0 91 62 69
        E 0 91 63 68
        E 0 91 64 67
        E 0 91 65 67
        E 120 80 07 00
        E 0 80 18 00
        E 0 80 30 00
        E 0 80 48 00
        E 0 80 60 00
        E 0 80 6c 00
        E 0 81 49 00
        E 0 81 4a 00
        E 0 81 4b 00
        E 0 81 4c 00
        E 0 81 4d 00
        E 0 81 61 00
        E 0 81 62 00
        E 0 81 63 00
        E 0 81 64 00
        E 0 81 65 00
        E 120 90 4b 68
        E 0 90 4c 67
        E 0 90 63 68
        E 0 90 64 67
        E 600 80 50 00
        E 0 80 68 00
        E 0 80 4b 00
        E 0 80 4c 00
        E 0 80 63 00
        E 0 80 64 00
        E 120 90 0e 64
        E 0 90 1a 6b
        E 0 90 32 6b
        E 0 90 33 6b
        E 0 90 4a 6b
        E 0 90 4b 6b
        E 0 90 62 6b
        E 0 90 63 6b
        E 0 90 6c 69
        E 120 80 0e 00
        E 0 80 6c 00
        E 360 80 1a 00
        E 0 80 32 00
        E 0 80 33 00
        E 360 80 4a 00
        E 0 80 4b 00
        E 0 80 62 00
        E 0 80 63 00
        E 120 90 04 64
        E 0 90 19 6b
        E 0 90 31 6b
        E 0 90 49 6b
        E 0 90 50 64
        E 0 90 61 6b
        E 0 90 68 64
        E 0 90 6c 6b
        E 0 91 4a 6d
        E 0 91 62 6d
        E 120 80 04 00
        E 0 80 19 00
        E 0 80 31 00
        E 0 80 49 00
        E 0 80 61 00
        E 0 80 6c 00
        E 0 81 4a 00
        E 0 81 62 00
        E 120 90 32 6d
        E 0 90 4a 6d
        E 0 90 62 6d
        E 120 80 32 00
        E 0 80 4a 00
        E 0 80 62 00
        E 120 90 19 6b
        E 0 90 31 6b
        E 0 90 49 6b
        E 0 90 61 6b
        E 120 80 19 00
        E 0 80 31 00
        E 0 80 49 00
        E 0 80 61 00
        E 120 90 4a 6d
        E 0 90 62 6d
        E 120 80 4a 00
        E 0 80 62 00
        E 120 90 19 6b
        E 0 90 31 6b
        E 0 90 49 6b
        E 0 90 61 6b
        E 120 80 19 00
        E 0 80 31 00
        E 0 80 49 00
        E 0 80 61 00
        E 120 90 4a 6d
        E 0 90 62 6d
        E 120 80 4a 00
        E 0 80 62 00
        E 120 90 31 6b
        E 0 90 49 6b
        E 0 90 61 6b
        E 120 80 31 00
        E 0 80 49 00
        E 0 80 61 00
        E 120 90 4a 6d
        E 0 90 4f 64
        E 0 90 62 6d
        E 0 90 67 64
        E 120 80 50 00
        E 0 80 68 00
        E 0 80 4a 00
        E 0 80 4f 00
        E 60 80 62 00
        E 0 80 67 00
        E 60 90 07 64
        E 0 90 1a 70
        E 0 90 32 70
        E 0 90 33 70
        E 0 90 4a 70
        E 0 90 4b 70
        E 0 90 62 70
        E 0 90 63 70
        E 0 90 6c 6e
        E 120 80 74 00
        E 0 80 07 00
        E 0 80 6c 00
        E 360 80 1a 00
        E 0 80 32 00
        E 0 80 33 00
        E 360 80 4a 00
        E 0 80 4b 00
        E 0 80 62 00
        E 0 80 63 00
        E 120 90 06 64
        E 0 90 1a 6f
        E 0 90 32 6f
        E 0 90 33 6f
        E 0 90 4a 6f
        E 0 90 4b 6f
        E 0 90 62 6f
        E 0 90 63 6f
        E 0 90 6c 6d
        E 120 80 06 00
        E 0 80 6c 00
        E 360 80 1a 00
        E 0 80 32 00
        E 0 80 33 00
        E 360 80 4a 00
        E 0 80 4b 00
        E 0 80 62 00
        E 0 80 63 00
        E 120 90 04 64
        E 0 90 1a 6d
        E 0 90 32 6d
        E 0 90 33 6d
        E 0 90 4a 6d
        E 0 90 4b 6d
        E 0 90 62 6d
        E 0 90 63 6d
        E 0 90 6c 6b
        E 120 80 04 00
        E 0 80 6c 00
        E 360 80 1a 00
        E 0 80 32 00
        E 0 80 33 00
        E 360 80 4a 00
        E 0 80 4b 00
        E 0 80 62 00
        E 0 80 63 00
        E 120 90 0e 64
        E 0 90 1a 6b
        E 0 90 32 6b
        E 0 90 33 6b
        E 0 90 4a 6b
        E 0 90 4b 6b
        E 0 90 62 6b
        E 0 90 63 6b
        E 0 90 6c 69
        E 120 80 0e 00
        E 0 80 6c 00
        E 360 80 1a 00
        E 0 80 32 00
        E 0 80 33 00
        E 360 80 4a 00
        E 0 80 4b 00
        E 0 80 62 00
        E 0 80 63 00
        E 120 90 04 64
        E 0 90 1a 6d
        E 0 90 32 6d
        E 0 90 33 6d
        E 0 90 4a 6d
        E 0 90 4b 6d
        E 0 90 62 6d
        E 0 90 63 6d
        E 0 90 6c 6b
        E 120 80 04 00
        E 0 80 6c 00
        E 360 80 1a 00
        E 0 80 32 00
        E 0 80 33 00
        E 360 80 4a 00
        E 0 80 4b 00
        E 0 80 62 00
        E 0 80 63 00
        E 120 90 09 64
        E 0 90 19 64
        E 0 90 49 64
        E 0 90 50 64
        E 0 90 61 64
        E 0 90 68 64
        E 0 90 6c 70
        E 0 91 4a 72
        E 0 91 4b 72
        E 0 91 62 72
        E 0 91 63 72
        E 120 80 09 00
        E 0 80 19 00
        E 0 80 49 00
        E 0 80 61 00
        E 0 80 6c 00
        E 0 81 4a 00
        E 0 81 4b 00
        E 0 81 62 00
        E 0 81 63 00
        E 120 90 32 72
        E 0 90 33 72
        E 0 90 4a 72
        E 0 90 4b 72
        E 0 90 62 72
        E 0 90 63 72
        E 120 80 32 00
        E 0 80 33 00
        E 0 80 4a 00
        E 0 80 4b 00
        E 0 80 62 00
        E 0 80 63 00
        E 360 90 4a 72
        E 0 90 4b 72
        E 0 90 62 72
        E 0 90 63 72
        E 120 80 50 00
        E 0 80 68 00
        E 0 80 4a 00
        E 0 80 4b 00
        E 0 80 62 00
        E 0 80 63 00
        E 120 90 07 64
        E 0 90 19 6e
        E 0 90 31 6e
        E 0 90 49 6e
        E 0 90 50 64
        E 0 90 61 6e
        E 0 90 68 64
        E 0 90 6c 6e
        E 0 91 4a 70
        E 0 91 4b 70
        E 0 91 62 70
        E 0 91 63 70
        E 120 80 07 00
        E 0 80 19 00
        E 0 80 31 00
        E 0 80 49 00
        E 0 80 61 00
        E 0 80 6c 00
        E 0 81 4a 00
        E 0 81 4b 00
        E 0 81 62 00
        E 0 81 63 00
        E 120 90 32 70
        E 0 90 4a 70
        E 0 90 4b 70
        E 0 90 62 70
        E 0 90 63 70
        E 120 80 32 00
        E 360 80 50 00
        E 0 80 68 00
        E 0 80 4a 00
        E 0 80 4b 00
        E 0 80 62 00
        E 0 80 63 00
        E 240 90 0e 64
        E 0 90 1a 6b
        E 0 90 32 6b
        E 0 90 33 6b
        E 0 90 4a 6b
        E 0 90 4b 6b
        E 0 90 62 6b
        E 0 90 63 6b
        E 0 90 6c 69
        E 120 80 0e 00
        E 0 80 6c 00
        E 360 80 1a 00
        E 0 80 32 00
        E 0 80 33 00
        E 360 80 4a 00
        E 0 80 4b 00
        E 0 80 62 00
        E 0 80 63 00
        E 120 90 04 64
        E 0 90 1a 6d
        E 0 90 32 6d
        E 0 90 33 6d
        E 0 90 4a 6d
        E 0 90 4b 6d
        E 0 90 62 6d
        E 0 90 63 6d
        E 0 90 6c 6b
        E 120 80 04 00
        E 0 80 6c 00
        E 360 80 1a 00
        E 0 80 32 00
        E 0 80 33 00
        E 360 80 4a 00
        E 0 80 4b 00
        E 0 80 62 00
        E 0 80 63 00
        E 120 90 09 64
        E 0 90 19 64
        E 0 90 49 64
        E 0 90 50 64
        E 0 90 61 64
        E 0 90 68 64
        E 0 90 6c 70
        E 0 91 4a 72
        E 0 91 4b 72
        E 0 91 62 72
        E 0 91 63 72
        E 120 80 09 00
        E 0 80 19 00
        E 0 80 49 00
        E 0 80 61 00
        E 0 80 6c 00
        E 0 81 4a 00
        E 0 81 4b 00
        E 0 81 62 00
        E 0 81 63 00
        E 120 90 32 72
        E 0 90 33 72
        E 0 90 4a 72
        E 0 90 4b 72
        E 0 90 62 72
        E 0 90 63 72
        E 120 80 32 00
        E 0 80 33 00
        E 0 80 4a 00
        E 0 80 4b 00
        E 0 80 62 00
        E 0 80 63 00
        E 360 90 4a 72
        E 0 90 4b 72
        E 0 90 62 72
        E 0 90 63 72
        E 120 80 50 00
        E 0 80 68 00
        E 0 80 4a 00
        E 0 80 4b 00
        E 0 80 62 00
        E 0 80 63 00
        E 120 90 07 64
        E 0 90 19 6e
        E 0 90 31 6e
        E 0 90 49 6e
        E 0 90 50 64
        E 0 90 61 6e
        E 0 90 68 64
        E 0 90 6c 6e
        E 0 91 4a 70
        E 0 91 4b 70
        E 0 91 62 70
        E 0 91 63 70
        E 120 80 07 00
        E 0 80 19 00
        E 0 80 31 00
        E 0 80 49 00
        E 0 80 61 00
        E 0 80 6c 00
        E 0 81 4a 00
        E 0 81 4b 00
        E 0 81 62 00
        E 0 81 63 00
        E 120 90 32 70
        E 0 90 4a 70
        E 0 90 4b 70
        E 0 90 62 70
        E 0 90 63 70
        E 120 80 32 00
        E 360 80 50 00
        E 0 80 68 00
        E 0 80 4a 00
        E 0 80 4b 00
        E 0 80 62 00
        E 0 80 63 00
        E 240 90 0e 64
        E 0 90 1a 6b
        E 0 90 32 6b
        E 0 90 33 6b
        E 0 90 4a 6b
        E 0 90 4b 6b
        E 0 90 62 6b
        E 0 90 63 6b
        E 0 90 6c 69
        E 120 80 0e 00
        E 0 80 6c 00
        E 360 80 1a 00
        E 0 80 32 00
        E 0 80 33 00
        E 360 80 4a 00
        E 0 80 4b 00
        E 0 80 62 00
        E 0 80 63 00
        E 120 90 04 64
        E 0 90 1a 6d
        E 0 90 32 6d
        E 0 90 33 6d
        E 0 90 4a 6d
        E 0 90 4b 6d
        E 0 90 62 6d
        E 0 90 63 6d
        E 0 90 6c 6b
        E 120 80 04 00
        E 0 80 6c 00
        E 360 80 1a 00
        E 0 80 32 00
        E 0 80 33 00
        E 360 80 4a 00
        E 0 80 4b 00
        E 0 80 62 00
        E 0 80 63 00
        E 120 90 09 64
        E 0 90 19 64
        E 0 90 49 64
        E 0 90 50 64
        E 0 90 61 64
        E 0 90 68 64
        E 0 90 6c 70
        E 0 91 4a 72
        E 0 91 4b 72
        E 0 91 62 72
        E 0 91 63 72
        E 120 80 09 00
        E 0 80 19 00
        E 0 80 49 00
        E 0 80 61 00
        E 0 80 6c 00
        E 0 81 4a 00
        E 0 81 4b 00
        E 0 81 62 00
        E 0 81 63 00
        E 120 90 32 72
        E 0 90 33 72
        E 0 90 4a 72
        E 0 90 4b 72
        E 0 90 62 72
        E 0 90 63 72
        E 120 80 32 00
        E 0 80 33 00
        E 0 80 4a 00
        E 0 80 4b 00
        E 0 80 62 00
        E 0 80 63 00
        E 360 90 4a 72
        E 0 90 4b 72
        E 0 90 62 72
        E 0 90 63 72
        E 120 80 50 00
        E 0 80 68 00
        E 0 80 4a 00
        E 0 80 4b 00
        E 0 80 62 00
        E 0 80 63 00
        E 120 90 07 64
        E 0 90 19 6e
        E 0 90 31 6e
        E 0 90 49 6e
        E 0 90 50 64
        E 0 90 61 6e
        E 0 90 68 64
        E 0 90 6c 6e
        E 0 91 4a 70
        E 0 91 4b 70
        E 0 91 62 70
        E 0 91 63 70
        E 120 80 07 00
        E 0 80 19 00
        E 0 80 31 00
        E 0 80 49 00
        E 0 80 61 00
        E 0 80 6c 00
        E 0 81 4a 00
        E 0 81 4b 00
        E 0 81 62 00
        E 0 81 63 00
        E 120 90 32 70
        E 0 90 4a 70
        E 0 90 4b 70
        E 0 90 62 70
        E 0 90 63 70
        E 120 80 32 00
        E 0 80 4a 00
        E 0 80 4b 00
        E 360 80 50 00
        E 0 80 68 00
        E 0 80 62 00
        E 0 80 63 00
        E 0 90 4a 70
        E 0 90 4b 70
        E 120 80 4a 00
        E 0 80 4b 00
        E 120 90 0e 64
        E 0 90 1a 6b
        E 0 90 32 6b
        E 0 90 33 6b
        E 0 90 4a 6b
        E 0 90 4b 6b
        E 0 90 62 6b
        E 0 90 63 6b
        E 0 90 6c 69
        E 120 80 0e 00
        E 0 80 6c 00
        E 360 80 1a 00
        E 0 80 32 00
        E 0 80 33 00
        E 360 80 4a 00
        E 0 80 4b 00
        E 0 80 62 00
        E 0 80 63 00
        E 120 90 04 64
        E 0 90 1a 6d
        E 0 90 32 6d
        E 0 90 33 6d
        E 0 90 4a 6d
        E 0 90 4b 6d
        E 0 90 62 6d
        E 0 90 63 6d
        E 0 90 6c 6b
        E 120 80 04 00
        E 0 80 6c 00
        E 360 80 1a 00
        E 0 80 32 00
        E 0 80 33 00
        E 360 80 4a 00
        E 0 80 4b 00
        E 0 80 62 00
        E 0 80 63 00
        E 120 90 09 64
        E 0 90 19 64
        E 0 90 32 72
        E 0 90 33 72
        E 0 90 49 64
        E 0 90 4a 72
        E 0 90 4b 72
        E 0 90 4c 72
        E 0 90 61 64
        E 0 90 62 72
        E 0 90 63 72
        E 0 90 64 72
        E 0 90 6c 72
        E 120 80 09 00
        E 0 80 6c 00
        E 3719 80 32 00
        E 0 80 33 00
        E 0 80 49 00
        E 0 80 4a 00
        E 0 80 4b 00
        E 0 80 4c 00
        E 0 80 19 00
        E 0 80 61 00
        E 0 80 62 00
        E 0 80 63 00
        E 0 80 64 00
        E 3840 b0 7b 00
        GUID {5E74629D-D4F6-4E98-A050-0D226E8D52AF}
        IGNTEMPO 0 120.00000000 4 4
        SRCCOLOR 5
        VELLANE 132 128 60
        COLORMAP "C:\Program Files\REAPER (x64)\Data\color_maps\rockband_guitarbass.png"
        CFGEDITVIEW -967.111675 69.848485 7 12 0 0 0
        CFGEDIT 1 1 0 1 1 0 1 1 1 1 1 0.25000000 -8 -8 1544 872 0 2 1 1 0.00000000 0 1 0 0 0.500000 0 0 1.000000 64
        KEYSNAP 0 6 "102030050700" 0 "Pentatonic"
        EVTFILTER 0 -1 -1 -1 -1 0 1 0 0 -1.00000000 -1.00000000
      >
    >
  >
  <TRACK '{023B9AA1-138F-4B7A-8715-C68083FC3804}'
    NAME "EVENTS"
    PEAKCOL 16576
    BEAT -1
    AUTOMODE 0
    VOLPAN 1.00000000000000 0.00000000000000 -1.00000000000000 -1.00000000000000 1.00000000000000
    MUTESOLO 0 0 0
    IPHASE 0
    ISBUS 0 0
    BUSCOMP 0 0
    SHOWINMIX 1 0.666700 0.500000 1 0.500000 -1 -1 -1
    FREEMODE 0
    SEL 0
    REC 0 0 0 0 0 0 0
    VU 2
    TRACKHEIGHT 0 0
    INQ 0 0 0 0.5000000000 100 0 0 100
    NCHAN 2
    FX 1
    TRACKID {023B9AA1-138F-4B7A-8715-C68083FC3804}
    PERF 0
    MIDIOUT -1
    <MIDINOTENAMES
      0 26 "Hi-Hat"
      0 25 "Snare"
      0 24 "Kick"
    >
    MAINSEND 1 0
    <FXCHAIN
      SHOW 0
      LASTSEL 0
      DOCKED 0
    >
    <ITEM
      POSITION 0.00000000000000
      SNAPOFFS 0.00000000000000
      LENGTH 128.64099999999999
      LOOP 0
      ALLTAKES 0
      SEL 0
      FADEIN 1 0.000000 0.000000 1 0
      FADEOUT 1 0.000000 0.000000 1 0
      MUTE 0
      IGUID {573985C2-6B32-45C7-BBC9-FA9E7ADAA0B1}
      IID 9
      NAME "EVENTS"
      VOLPAN 1.000000 0.000000 1.000000 -1.000000
      SOFFS 0.00000000000000 0.00000000000000
      PLAYRATE 1.00000000000000 1 0.00000000000000 -1
      CHANMODE 0
      GUID {FB15C70E-EE5C-47A3-8CD5-A1AFDFEF796B}
      <SOURCE MIDI
        HASDATA 1 480 QN
        POOLEDEVTS {2955C986-F222-4453-9BA6-B11828C0E2B6}
        <X 0 0
          /wNFVkVOVFM=
        >
        <X 3840 0
          /wFbcHJjX3ZlcnNlXzFd
        >
        <X 0 0
          /wFbY3Jvd2Rfbm9ybWFsXQ==
        >
        <X 0 0
          /wFbY3Jvd2Rfbm9jbGFwXQ==
        >
        <X 1920 0
          /wFbbXVzaWNfc3RhcnRd
        >
        <X 17280 0
          /wFbcHJjX2Nob3J1c18xXQ==
        >
        <X 16320 0
          /wFbcHJjX3ZlcnNlXzJd
        >
        <X 19200 0
          /wFbcHJjX2Nob3J1c18yXQ==
        >
        <X 16320 0
          /wFbcHJjX3ZlcnNlXzNd
        >
        <X 20160 0
          /wFbcHJjX291dHJvX2Nob3J1c10=
        >
        <X 20160 0
          /wFbbXVzaWNfZW5kXQ==
        >
        <X 3835 0
          /wFbZW5kXQ==
        >
        E 5 b0 7b 00
        GUID {158C327E-6701-4BB4-BC91-43E17B4A2F0F}
        IGNTEMPO 0 120.00000000 4 4
        SRCCOLOR 9
        VELLANE 132 128 60
        COLORMAP "C:\Program Files\REAPER (x64)\Data\color_maps\rockband_guitarbass.png"
        CFGEDITVIEW -7738.130009 8.729665 0 48 0 0 0
        CFGEDIT 1 1 0 1 1 0 1 1 1 1 1 0.25000000 -8 -8 1544 872 0 2 1 1 0.00000000 0 1 0 0 0.500000 0 0 1.000000 64
        KEYSNAP 0 6 "102030050700" 0 "Pentatonic"
        EVTFILTER 0 -1 -1 -1 -1 0 1 0 0 -1.00000000 -1.00000000
      >
    >
  >
  <TRACK '{2AD0B7AA-A44D-4A88-BD86-D82B166EF358}'
    NAME "VENUE"
    PEAKCOL 16576
    BEAT -1
    AUTOMODE 0
    VOLPAN 1.00000000000000 0.00000000000000 -1.00000000000000 -1.00000000000000 1.00000000000000
    MUTESOLO 0 0 0
    IPHASE 0
    ISBUS 1 1
    BUSCOMP 1 0
    SHOWINMIX 1 0.666700 0.500000 1 0.500000 -1 -1 -1
    FREEMODE 0
    SEL 0
    REC 0 0 0 0 0 0 0
    VU 2
    TRACKHEIGHT 0 0
    INQ 0 0 0 0.5000000000 100 0 0 100
    NCHAN 2
    FX 1
    TRACKID {2AD0B7AA-A44D-4A88-BD86-D82B166EF358}
    PERF 0
    MIDIOUT -1
    <MIDINOTENAMES
      0 87 "Guitarist Sing Along"
      0 86 "Drummer Sing Along"
      0 85 "Bassist Sing Along"
      0 84 "----"
      0 41 "Spotlight on Keys"
      0 40 "Spotlight on Vocals"
      0 39 "Spotlight on Guitar"
      0 38 "Spotlight on Drums"
      0 37 "Spotlight on Bass"
    >
    MAINSEND 1 0
    <FXCHAIN
      SHOW 0
      LASTSEL 0
      DOCKED 0
    >
    <ITEM
      POSITION 0.00000000000000
      SNAPOFFS 0.00000000000000
      LENGTH 128.64099999999999
      LOOP 0
      ALLTAKES 0
      SEL 0
      FADEIN 1 0.000000 0.000000 1 0
      FADEOUT 1 0.000000 0.000000 1 0
      MUTE 0
      IGUID {7F00EAC9-19E4-4F14-820E-68BF28EA6E2A}
      IID 10
      NAME "VENUE"
      VOLPAN 1.000000 0.000000 1.000000 -1.000000
      SOFFS 0.00000000000000 0.00000000000000
      PLAYRATE 1.00000000000000 1 0.00000000000000 -1
      CHANMODE 0
      GUID {90698452-2750-4A6B-8520-195877159ED8}
      <SOURCE MIDI
        HASDATA 1 480 QN
        POOLEDEVTS {B0790748-CE17-4EB6-BF0F-1484C057ADBD}
        <X 0 0
          /wNWRU5VRQ==
        >
        <X 0 0
          /wFbUHJvRmlsbV9hLnBwXQ==
        >
        <X 0 0
          /wFbY29vcF9hbGxfZmFyXQ==
        >
        <X 80 0
          /wFbUHJvRmlsbV9hLnBwXQ==
        >
        <X 3760 0
          /wFbZmlyc3Rd
        >
        <X 0 0
          /wFbbGlnaHRpbmcgKG1hbnVhbF9jb29sKV0=
        >
        <X 0 0
          /wFbUHJvRmlsbV9iLnBwXQ==
        >
        <X 0 0
          /wFbY29vcF9mcm9udF9uZWFyXQ==
        >
        <X 960 0
          /wFbbmV4dF0=
        >
        <X 0 0
          /wFbY29vcF92X2Nsb3NldXBd
        >
        <X 960 0
          /wFbbmV4dF0=
        >
        <X 960 0
          /wFbbmV4dF0=
        >
        <X 960 0
          /wFbbmV4dF0=
        >
        <X 960 0
          /wFbbmV4dF0=
        >
        <X 0 0
          /wFbY29vcF9iX2Nsb3NldXBfaGFuZF0=
        >
        <X 960 0
          /wFbbmV4dF0=
        >
        <X 960 0
          /wFbbmV4dF0=
        >
        <X 960 0
          /wFbbmV4dF0=
        >
        <X 0 0
          /wFbY29vcF9ndl9uZWFyXQ==
        >
        <X 960 0
          /wFbbmV4dF0=
        >
        <X 960 0
          /wFbbmV4dF0=
        >
        <X 0 0
          /wFbY29vcF9iZF9uZWFyXQ==
        >
        <X 960 0
          /wFbbmV4dF0=
        >
        <X 960 0
          /wFbbmV4dF0=
        >
        <X 0 0
          /wFbZGlyZWN0ZWRfZHJ1bXNfa2Rd
        >
        <X 960 0
          /wFbbmV4dF0=
        >
        <X 960 0
          /wFbbmV4dF0=
        >
        <X 960 0
          /wFbbmV4dF0=
        >
        <X 0 0
          /wFbZGlyZWN0ZWRfYWxsX2NhbV0=
        >
        <X 960 0
          /wFbbmV4dF0=
        >
        <X 960 0
          /wFbbmV4dF0=
        >
        <X 960 0
          /wFbbmV4dF0=
        >
        <X 960 0
          /wFbbmV4dF0=
        >
        <X 960 0
          /wFbbmV4dF0=
        >
        <X 0 0
          /wFbY29vcF9iZ19iZWhpbmRd
        >
        <X 960 0
          /wFbbmV4dF0=
        >
        <X 960 0
          /wFbbmV4dF0=
        >
        <X 0 0
          /wFbY29vcF9iZ19uZWFyXQ==
        >
        <X 960 0
          /wFbbmV4dF0=
        >
        <X 960 0
          /wFbbmV4dF0=
        >
        <X 960 0
          /wFbbmV4dF0=
        >
        <X 0 0
          /wFbY29vcF92X25lYXJd
        >
        <X 960 0
          /wFbbmV4dF0=
        >
        <X 960 0
          /wFbbmV4dF0=
        >
        <X 0 0
          /wFbZGlyZWN0ZWRfZHJ1bXNfa2Rd
        >
        <X 960 0
          /wFbbmV4dF0=
        >
        <X 960 0
          /wFbbmV4dF0=
        >
        <X 0 0
          /wFbY29vcF9kX2Nsb3NldXBfaGVhZF0=
        >
        <X 960 0
          /wFbbmV4dF0=
        >
        <X 960 0
          /wFbbmV4dF0=
        >
        <X 0 0
          /wFbY29vcF9nX2Nsb3NldXBfaGVhZF0=
        >
        <X 960 0
          /wFbbmV4dF0=
        >
        <X 960 0
          /wFbbmV4dF0=
        >
        <X 0 0
          /wFbY29vcF9iZF9uZWFyXQ==
        >
        <X 960 0
          /wFbbmV4dF0=
        >
        <X 960 0
          /wFbbmV4dF0=
        >
        <X 0 0
          /wFbZGlyZWN0ZWRfdm9jYWxzXQ==
        >
        <X 960 0
          /wFbbmV4dF0=
        >
        <X 960 0
          /wFbbmV4dF0=
        >
        <X 960 0
          /wFbbmV4dF0=
        >
        <X 0 0
          /wFbY29vcF9hbGxfZmFyXQ==
        >
        <X 960 0
          /wFbbmV4dF0=
        >
        <X 960 0
          /wFbbmV4dF0=
        >
        <X 960 0
          /wFbbmV4dF0=
        >
        <X 960 0
          /wFbbmV4dF0=
        >
        <X 0 0
          /wFbY29vcF9iZ19uZWFyXQ==
        >
        <X 960 0
          /wFbbmV4dF0=
        >
        <X 960 0
          /wFbbmV4dF0=
        >
        <X 960 0
          /wFbbmV4dF0=
        >
        <X 960 0
          /wFbbmV4dF0=
        >
        <X 960 0
          /wFbbmV4dF0=
        >
        <X 0 0
          /wFbY29vcF9kdl9uZWFyXQ==
        >
        <X 960 0
          /wFbbmV4dF0=
        >
        <X 960 0
          /wFbbmV4dF0=
        >
        <X 960 0
          /wFbbmV4dF0=
        >
        <X 960 0
          /wFbbmV4dF0=
        >
        <X 960 0
          /wFbbmV4dF0=
        >
        <X 0 0
          /wFbY29vcF9hbGxfYmVoaW5kXQ==
        >
        <X 960 0
          /wFbbmV4dF0=
        >
        <X 960 0
          /wFbbmV4dF0=
        >
        <X 0 0
          /wFbY29vcF9nX2Nsb3NldXBfaGFuZF0=
        >
        <X 960 0
          /wFbbmV4dF0=
        >
        <X 960 0
          /wFbbmV4dF0=
        >
        <X 960 0
          /wFbbmV4dF0=
        >
        <X 0 0
          /wFbY29vcF9iX2JlaGluZF0=
        >
        <X 960 0
          /wFbbmV4dF0=
        >
        <X 960 0
          /wFbbmV4dF0=
        >
        <X 960 0
          /wFbbmV4dF0=
        >
        <X 0 0
          /wFbY29vcF9ndl9uZWFyXQ==
        >
        <X 960 0
          /wFbbmV4dF0=
        >
        <X 960 0
          /wFbbmV4dF0=
        >
        <X 960 0
          /wFbbmV4dF0=
        >
        <X 960 0
          /wFbbmV4dF0=
        >
        <X 0 0
          /wFbZGlyZWN0ZWRfZHJ1bXNfa2Rd
        >
        <X 960 0
          /wFbbmV4dF0=
        >
        <X 960 0
          /wFbbmV4dF0=
        >
        <X 0 0
          /wFbZGlyZWN0ZWRfZHJ1bXNd
        >
        <X 960 0
          /wFbbmV4dF0=
        >
        <X 960 0
          /wFbbmV4dF0=
        >
        <X 960 0
          /wFbbmV4dF0=
        >
        <X 960 0
          /wFbbmV4dF0=
        >
        <X 0 0
          /wFbZGlyZWN0ZWRfZHVvX2diXQ==
        >
        <X 960 0
          /wFbbmV4dF0=
        >
        <X 960 0
          /wFbbmV4dF0=
        >
        <X 960 0
          /wFbbmV4dF0=
        >
        <X 960 0
          /wFbbmV4dF0=
        >
        <X 0 0
          /wFbY29vcF9hbGxfbmVhcl0=
        >
        <X 960 0
          /wFbbmV4dF0=
        >
        <X 960 0
          /wFbbmV4dF0=
        >
        <X 960 0
          /wFbbmV4dF0=
        >
        <X 960 0
          /wFbbmV4dF0=
        >
        <X 960 0
          /wFbbmV4dF0=
        >
        <X 0 0
          /wFbY29vcF9hbGxfZmFyXQ==
        >
        <X 960 0
          /wFbbmV4dF0=
        >
        <X 960 0
          /wFbbmV4dF0=
        >
        <X 960 0
          /wFbbmV4dF0=
        >
        <X 960 0
          /wFbbmV4dF0=
        >
        <X 960 0
          /wFbbmV4dF0=
        >
        <X 0 0
          /wFbY29vcF9kX2JlaGluZF0=
        >
        <X 960 0
          /wFbbmV4dF0=
        >
        <X 960 0
          /wFbbmV4dF0=
        >
        <X 0 0
          /wFbY29vcF92X25lYXJd
        >
        <X 960 0
          /wFbbmV4dF0=
        >
        <X 960 0
          /wFbbmV4dF0=
        >
        <X 960 0
          /wFbbmV4dF0=
        >
        <X 960 0
          /wFbbmV4dF0=
        >
        <X 960 0
          /wFbbmV4dF0=
        >
        <X 0 0
          /wFbY29vcF9iX2Nsb3NldXBfaGFuZF0=
        >
        <X 960 0
          /wFbbmV4dF0=
        >
        <X 960 0
          /wFbbmV4dF0=
        >
        <X 960 0
          /wFbbmV4dF0=
        >
        <X 960 0
          /wFbbmV4dF0=
        >
        <X 0 0
          /wFbY29vcF9ndl9uZWFyXQ==
        >
        <X 960 0
          /wFbbmV4dF0=
        >
        <X 960 0
          /wFbbmV4dF0=
        >
        <X 960 0
          /wFbbmV4dF0=
        >
        <X 960 0
          /wFbbmV4dF0=
        >
        <X 960 0
          /wFbbmV4dF0=
        >
        <X 0 0
          /wFbZGlyZWN0ZWRfZHVvX2RydW1zXQ==
        >
        <X 960 0
          /wFbbmV4dF0=
        >
        <X 960 0
          /wFbbmV4dF0=
        >
        <X 960 0
          /wFbbmV4dF0=
        >
        <X 960 0
          /wFbbmV4dF0=
        >
        <X 0 0
          /wFbZGlyZWN0ZWRfZHVvX2Jhc3Nd
        >
        <X 960 0
          /wFbbmV4dF0=
        >
        <X 960 0
          /wFbbmV4dF0=
        >
        <X 960 0
          /wFbbmV4dF0=
        >
        <X 960 0
          /wFbbmV4dF0=
        >
        <X 0 0
          /wFbY29vcF9ndl9iZWhpbmRd
        >
        <X 960 0
          /wFbbmV4dF0=
        >
        <X 960 0
          /wFbbmV4dF0=
        >
        <X 0 0
          /wFbY29vcF9ndl9uZWFyXQ==
        >
        <X 960 0
          /wFbbmV4dF0=
        >
        <X 960 0
          /wFbUHJvRmlsbV9iLnBwXQ==
        >
        <X 1920 0
          /wFbY29vcF9hbGxfYmVoaW5kXQ==
        >
        <X 1919 0
          /wFbUHJvRmlsbV9hLnBwXQ==
        >
        E 3840 b0 7b 00
        GUID {781EA1CD-6C6D-454F-ADED-5FD82E66F4CC}
        IGNTEMPO 0 120.00000000 4 4
        SRCCOLOR 10
        VELLANE 132 128 60
        COLORMAP "C:\Program Files\REAPER (x64)\Data\color_maps\rockband_guitarbass.png"
        CFGEDITVIEW -7738.130009 8.729665 0 48 0 0 0
        CFGEDIT 1 1 0 1 1 0 1 1 1 1 1 0.25000000 -8 -8 1544 872 0 2 1 1 0.00000000 0 1 0 0 0.500000 0 0 1.000000 64
        KEYSNAP 0 6 "102030050700" 0 "Pentatonic"
        EVTFILTER 0 -1 -1 -1 -1 0 1 0 0 -1.00000000 -1.00000000
      >
    >
  >
  <TRACK '{82C71C94-CEA9-4B2F-A56D-5B6BDBABED85}'
    NAME "CAMERA"
    PEAKCOL 16576
    BEAT -1
    AUTOMODE 0
    VOLPAN 1.00000000000000 0.00000000000000 -1.00000000000000 -1.00000000000000 1.00000000000000
    MUTESOLO 1 0 0
    IPHASE 0
    ISBUS 0 0
    BUSCOMP 0 0
    SHOWINMIX 1 0.666700 0.500000 1 0.500000 -1 -1 -1
    FREEMODE 0
    SEL 0
    REC 0 0 0 0 0 0 0
    VU 2
    TRACKHEIGHT 0 1
    INQ 0 0 0 0.5000000000 100 0 0 100
    NCHAN 2
    FX 1
    TRACKID {82C71C94-CEA9-4B2F-A56D-5B6BDBABED85}
    PERF 0
    MIDIOUT -1
    <MIDINOTENAMES
      0 102 "RANDOM"
      0 100 "All_Behind"
      0 99 "All_Far"
      0 98 "All_Near"
      0 96 "Front_Behind"
      0 95 "Front_Near"
      0 93 "D_Behind"
      0 92 "D_Near"
      0 91 "V_Behind"
      0 90 "V_Near"
      0 89 "B_Behind"
      0 88 "B_Near"
      0 87 "G_Behind"
      0 86 "G_Near"
      0 85 "K_Behind"
      0 84 "K_Near"
      0 82 "D_Hand"
      0 81 "D_Head"
      0 80 "V_Closeup"
      0 79 "B_Hand"
      0 78 "B_Head"
      0 77 "G_Hand"
      0 76 "G_Head"
      0 75 "K_Hand"
      0 74 "K_Head"
      0 72 "DV_Near"
      0 71 "BD_Near"
      0 70 "DG_Near"
      0 69 "BV_Behind"
      0 68 "BV_Near"
      0 67 "GV_Behind"
      0 66 "GV_Near"
      0 65 "KV_Behind"
      0 64 "KV_Near"
      0 63 "BG_Behind"
      0 62 "BG_Near"
      0 61 "BK_Behind"
      0 60 "BK_Near"
      0 59 "GK_Behind"
      0 58 "GK_Near"
      0 56 "D_All"
      0 55 "D_All_Cam"
      0 54 "D_All_LT*"
      0 53 "D_All_Yeah"
      0 52 "D_BRE"
      0 51 "D_BRE_Jump"
      0 49 "D_Drums_NP"
      0 48 "D_Bass_NP"
      0 47 "D_Gtr_NP"
      0 46 "D_Vox_NP"
      0 45 "D_Keys_NP"
      0 43 "D_Drums"
      0 42 "D_Drums_LT*"
      0 41 "D_Vocals"
      0 40 "D_Bass"
      0 39 "D_Gtr"
      0 38 "D_Keys"
      0 36 "D_Vox_Cam_PR"
      0 35 "D_Vox_Cam_PT"
      0 34 "D_Gtr_Cam_PR"
      0 33 "D_Gtr_Cam_PT"
      0 32 "D_Keys_Cam"
      0 31 "D_Bass_Cam"
      0 29 "D_Stagedive"
      0 28 "D_Crowdsurf"
      0 26 "D_Vox_CLS"
      0 25 "D_Bass_CLS*"
      0 24 "D_Gtr_CLS*"
      0 23 "D_Drums_KD*"
      0 21 "D_Drums_Point"
      0 20 "D_Crowd_Gtr"
      0 19 "D_Crowd_Bass"
      0 17 "D_Duo_Drums"
      0 16 "D_Duo_Gtr"
      0 15 "D_Duo_Bass"
      0 14 "D_Duo_KV"
      0 13 "D_Duo_GB"
      0 12 "D_Duo_KB"
      0 11 "D_Duo_KG"
      0 10 "D_Crowd*"
    >
    MAINSEND 1 0
    <FXCHAIN
      SHOW 0
      LASTSEL 0
      DOCKED 0
    >
    <ITEM
      POSITION 0.00000000000000
      SNAPOFFS 0.00000000000000
      LENGTH 128.64181600000001
      LOOP 0
      ALLTAKES 0
      SEL 0
      FADEIN 1 0.000000 0.000000 1 0
      FADEOUT 1 0.000000 0.000000 1 0
      MUTE 0
      IGUID {F9FC5B14-24A3-432D-B7D2-256C2BA7033B}
      IID 13
      NAME "CAMERA"
      VOLPAN 1.000000 0.000000 1.000000 -1.000000
      SOFFS 0.00000000000000 0.00000000000000
      PLAYRATE 1.00000000000000 1 0.00000000000000 -1
      CHANMODE 0
      GUID {C1D76009-2C39-4272-9E21-9EDB2C3BDEED}
      <SOURCE MIDI
        HASDATA 1 480 QN
        POOLEDEVTS {9B213B34-E582-4F6B-A004-B0DC18E1480F}
        E 0 90 63 40
        E 60 80 63 00
        E 3780 90 5f 40
        E 60 80 5f 00
        E 900 90 50 40
        E 60 80 50 00
        E 3780 90 4f 40
        E 60 80 4f 00
        E 2820 90 42 40
        E 60 80 42 00
        E 1860 90 47 40
        E 60 80 47 00
        E 1860 90 17 40
        E 120 80 17 00
        E 2760 90 37 40
        E 60 80 37 00
        E 4740 90 3f 40
        E 60 80 3f 00
        E 1860 90 3e 40
        E 60 80 3e 00
        E 2820 90 5a 40
        E 60 80 5a 00
        E 3780 90 51 40
        E 60 80 51 00
        E 1860 90 4c 40
        E 60 80 4c 00
        E 1860 90 47 40
        E 60 80 47 00
        E 1860 90 29 40
        E 60 80 29 00
        E 2820 90 63 40
        E 60 80 63 00
        E 3780 90 3e 40
        E 60 80 3e 00
        E 4740 90 48 40
        E 60 80 48 00
        E 4740 90 64 40
        E 60 80 64 00
        E 1860 90 4d 40
        E 60 80 4d 00
        E 2820 90 59 40
        E 60 80 59 00
        E 2820 90 42 40
        E 60 80 42 00
        E 3780 90 17 40
        E 60 80 17 00
        E 1860 90 2b 40
        E 60 80 2b 00
        E 3780 90 0d 40
        E 60 80 0d 00
        E 3780 90 62 40
        E 60 80 62 00
        E 4740 90 63 40
        E 60 80 63 00
        E 4740 90 5d 40
        E 60 80 5d 00
        E 1860 90 5a 40
        E 60 80 5a 00
        E 4740 90 4f 40
        E 60 80 4f 00
        E 3780 90 42 40
        E 60 80 42 00
        E 4740 90 11 40
        E 60 80 11 00
        E 3780 90 0f 40
        E 60 80 0f 00
        E 3780 90 43 40
        E 60 80 43 00
        E 1860 90 42 40
        E 60 80 42 00
        E 3780 90 64 40
        E 60 80 64 00
        E 0 b0 7b 00
        GUID {9169A11F-F00E-40FD-9A11-469B043E8E07}
        IGNTEMPO 0 120.00000000 4 4
        SRCCOLOR 12
        VELLANE 132 128 60
        COLORMAP "C:\Program Files\REAPER (x64)\Data\color_maps\rockband_guitarbass.png"
        CFGEDITVIEW -7738.130009 8.729665 27 12 0 0 0
        CFGEDIT 1 1 0 1 1 0 1 1 1 1 1 0.25000000 -8 -8 1544 872 0 2 1 1 0.00000000 0 1 0 0 0.500000 0 0 1.000000 64
        KEYSNAP 0 6 "102030050700" 0 "Pentatonic"
        EVTFILTER 0 -1 -1 -1 -1 0 1 0 0 -1.00000000 -1.00000000
      >
    >
  >
  <TRACK '{DBD34901-0B72-4E4F-BED7-ED4CA704FD14}'
    NAME "LIGHTING"
    PEAKCOL 16576
    BEAT -1
    AUTOMODE 0
    VOLPAN 1.00000000000000 0.00000000000000 -1.00000000000000 -1.00000000000000 1.00000000000000
    MUTESOLO 1 0 0
    IPHASE 0
    ISBUS 2 -1
    BUSCOMP 0 0
    SHOWINMIX 1 0.666700 0.500000 1 0.500000 -1 -1 -1
    FREEMODE 0
    SEL 0
    REC 0 0 0 0 0 0 0
    VU 2
    TRACKHEIGHT 0 1
    INQ 0 0 0 0.5000000000 100 0 0 100
    NCHAN 2
    FX 1
    TRACKID {DBD34901-0B72-4E4F-BED7-ED4CA704FD14}
    PERF 0
    MIDIOUT -1
    <MIDINOTENAMES
      0 71 "Default"
      0 70 "Color_Muted"
      0 69 "Video_Grainy"
      0 68 "16mm Film"
      0 67 "Shitty_TV"
      0 66 "Bloom"
      0 65 "Sepia_Ink"
      0 64 "Silvertone"
      0 63 "Film_BW"
      0 62 "Video_BW"
      0 61 "Contrast BW"
      0 60 "Photocopy"
      0 59 "Blue_Filter"
      0 58 "Desat_Blue"
      0 57 "Video_Security"
      0 55 "Bright"
      0 54 "Posterize"
      0 53 "Clean_Trails"
      0 52 "Video_Trails"
      0 51 "Flicker_Trails"
      0 50 "Desat_Posterize"
      0 49 "Film_Contrast"
      0 48 "Film_Contrast_Blue"
      0 47 "Film_Contrast_Green"
      0 46 "Film_Contrast_Red"
      0 45 "Horror_Movie"
      0 44 "Photo_Negative"
      0 43 "Mirror"
      0 42 "Psych_Blue_Red"
      0 41 "Space_Woosh"
      0 39 "Verse"
      0 38 "Chorus"
      0 37 "Manual_Cool"
      0 36 "Manual_Warm"
      0 35 "Dischord"
      0 34 "Stomp"
      0 32 "first"
      0 31 "prev"
      0 30 "next"
      0 28 "Loop_Cool"
      0 27 "Loop_Warm"
      0 26 "Harmony"
      0 25 "Frenzy"
      0 24 "Silhouettes"
      0 23 "Silhouettes_Spot"
      0 22 "Searchlights"
      0 21 "Sweep"
      0 20 "Strobe_Slow"
      0 19 "Strobe_Fast"
      0 18 "Blackout_Slow"
      0 17 "Blackout_Fast"
      0 16 "Blackout_Spot"
      0 15 "Flare_Slow"
      0 14 "Flare_Fast"
      0 13 "BRE"
      0 11 "BONUSFX"
      0 10 "BONUSFX_Opt"
      0 8 "STROBE"
    >
    MAINSEND 1 0
    <FXCHAIN
      SHOW 0
      LASTSEL 0
      DOCKED 0
    >
    <ITEM
      POSITION 0.00000000000000
      SNAPOFFS 0.00000000000000
      LENGTH 128.64181600000001
      LOOP 0
      ALLTAKES 0
      SEL 0
      FADEIN 1 0.000000 0.000000 1 0
      FADEOUT 1 0.000000 0.000000 1 0
      MUTE 0
      IGUID {8CAB3330-5EC1-4B98-B91E-2330AF77F311}
      IID 13
      NAME "LIGHTING"
      VOLPAN 1.000000 0.000000 1.000000 -1.000000
      SOFFS 0.00000000000000 0.00000000000000
      PLAYRATE 1.00000000000000 1 0.00000000000000 -1
      CHANMODE 0
      GUID {F253E450-A386-45B5-983A-9C4D702A603F}
      <SOURCE MIDI
        HASDATA 1 480 QN
        POOLEDEVTS {BB3410C5-24A5-4762-8B41-DD481842B551}
        E 0 90 47 40
        E 80 80 47 00
        E 3760 90 25 40
        E 0 90 46 40
        E 0 90 20 40
        E 60 80 20 00
        E 900 90 1e 40
        E 60 80 1e 00
        E 900 90 1e 40
        E 60 80 1e 00
        E 900 90 1e 40
        E 60 80 1e 00
        E 900 90 1e 40
        E 60 80 1e 00
        E 900 90 1e 40
        E 60 80 1e 00
        E 900 90 1e 40
        E 60 80 1e 00
        E 900 90 1e 40
        E 60 80 1e 00
        E 900 90 1e 40
        E 60 80 1e 00
        E 900 90 1e 40
        E 60 80 1e 00
        E 900 90 1e 40
        E 60 80 1e 00
        E 900 90 1e 40
        E 60 80 1e 00
        E 900 90 1e 40
        E 60 80 1e 00
        E 900 90 1e 40
        E 60 80 1e 00
        E 900 90 1e 40
        E 60 80 1e 00
        E 900 90 1e 40
        E 60 80 1e 00
        E 900 90 1e 40
        E 60 80 1e 00
        E 900 90 1e 40
        E 60 80 1e 00
        E 900 90 1e 40
        E 60 80 1e 00
        E 900 90 1e 40
        E 60 80 1e 00
        E 900 90 1e 40
        E 60 80 1e 00
        E 900 90 1e 40
        E 60 80 1e 00
        E 900 90 1e 40
        E 60 80 1e 00
        E 900 90 1e 40
        E 60 80 1e 00
        E 900 90 1e 40
        E 60 80 1e 00
        E 900 90 1e 40
        E 60 80 1e 00
        E 900 90 1e 40
        E 60 80 1e 00
        E 900 90 1e 40
        E 60 80 1e 00
        E 900 90 1e 40
        E 60 80 1e 00
        E 900 90 1e 40
        E 60 80 1e 00
        E 900 90 1e 40
        E 60 80 1e 00
        E 900 90 1e 40
        E 60 80 1e 00
        E 900 90 1e 40
        E 60 80 1e 00
        E 900 90 1e 40
        E 60 80 1e 00
        E 900 90 1e 40
        E 60 80 1e 00
        E 900 90 1e 40
        E 60 80 1e 00
        E 900 90 1e 40
        E 60 80 1e 00
        E 900 90 1e 40
        E 60 80 1e 00
        E 900 90 1e 40
        E 60 80 1e 00
        E 900 90 1e 40
        E 60 80 1e 00
        E 900 90 1e 40
        E 60 80 1e 00
        E 900 90 1e 40
        E 60 80 1e 00
        E 900 90 1e 40
        E 60 80 1e 00
        E 900 90 1e 40
        E 60 80 1e 00
        E 900 90 1e 40
        E 60 80 1e 00
        E 900 90 1e 40
        E 60 80 1e 00
        E 900 90 1e 40
        E 60 80 1e 00
        E 900 90 1e 40
        E 60 80 1e 00
        E 900 90 1e 40
        E 60 80 1e 00
        E 900 90 1e 40
        E 60 80 1e 00
        E 900 90 1e 40
        E 60 80 1e 00
        E 900 90 1e 40
        E 60 80 1e 00
        E 900 90 1e 40
        E 60 80 1e 00
        E 900 90 1e 40
        E 60 80 1e 00
        E 900 90 1e 40
        E 60 80 1e 00
        E 900 90 1e 40
        E 60 80 1e 00
        E 900 90 1e 40
        E 60 80 1e 00
        E 900 90 1e 40
        E 60 80 1e 00
        E 900 90 1e 40
        E 60 80 1e 00
        E 900 90 1e 40
        E 60 80 1e 00
        E 900 90 1e 40
        E 60 80 1e 00
        E 900 90 1e 40
        E 60 80 1e 00
        E 900 90 1e 40
        E 60 80 1e 00
        E 900 90 1e 40
        E 60 80 1e 00
        E 900 90 1e 40
        E 60 80 1e 00
        E 900 90 1e 40
        E 60 80 1e 00
        E 900 90 1e 40
        E 60 80 1e 00
        E 900 90 1e 40
        E 60 80 1e 00
        E 900 90 1e 40
        E 60 80 1e 00
        E 900 90 1e 40
        E 60 80 1e 00
        E 900 90 1e 40
        E 60 80 1e 00
        E 900 90 1e 40
        E 60 80 1e 00
        E 900 90 1e 40
        E 60 80 1e 00
        E 900 90 1e 40
        E 60 80 1e 00
        E 900 90 1e 40
        E 60 80 1e 00
        E 900 90 1e 40
        E 60 80 1e 00
        E 900 90 1e 40
        E 60 80 1e 00
        E 900 90 1e 40
        E 60 80 1e 00
        E 900 90 1e 40
        E 60 80 1e 00
        E 900 90 1e 40
        E 60 80 1e 00
        E 900 90 1e 40
        E 60 80 1e 00
        E 900 90 1e 40
        E 60 80 1e 00
        E 900 90 1e 40
        E 60 80 1e 00
        E 900 90 1e 40
        E 60 80 1e 00
        E 900 90 1e 40
        E 60 80 1e 00
        E 900 90 1e 40
        E 60 80 1e 00
        E 900 90 1e 40
        E 60 80 1e 00
        E 900 90 1e 40
        E 60 80 1e 00
        E 900 90 1e 40
        E 60 80 1e 00
        E 900 90 1e 40
        E 60 80 1e 00
        E 900 90 1e 40
        E 60 80 1e 00
        E 900 90 1e 40
        E 60 80 1e 00
        E 900 90 1e 40
        E 60 80 1e 00
        E 900 90 1e 40
        E 60 80 1e 00
        E 900 90 1e 40
        E 60 80 1e 00
        E 900 90 1e 40
        E 60 80 1e 00
        E 900 90 1e 40
        E 60 80 1e 00
        E 900 90 1e 40
        E 60 80 1e 00
        E 900 90 1e 40
        E 60 80 1e 00
        E 900 90 1e 40
        E 60 80 1e 00
        E 900 90 1e 40
        E 60 80 1e 00
        E 900 90 1e 40
        E 60 80 1e 00
        E 900 90 1e 40
        E 60 80 1e 00
        E 900 90 1e 40
        E 60 80 1e 00
        E 900 90 1e 40
        E 60 80 1e 00
        E 900 90 1e 40
        E 60 80 1e 00
        E 900 90 1e 40
        E 60 80 1e 00
        E 900 90 1e 40
        E 60 80 1e 00
        E 900 90 1e 40
        E 60 80 1e 00
        E 900 90 1e 40
        E 60 80 1e 00
        E 900 90 1e 40
        E 60 80 1e 00
        E 900 90 1e 40
        E 60 80 1e 00
        E 900 80 46 00
        E 3839 90 47 40
        E 60 80 47 00
        GUID {DA1A9F88-A7F9-4142-AF1E-1AA287CC6B54}
        IGNTEMPO 0 120.00000000 4 4
        SRCCOLOR 13
        VELLANE 132 128 60
        COLORMAP "C:\Program Files\REAPER (x64)\Data\color_maps\rockband_guitarbass.png"
        CFGEDITVIEW -7738.130009 8.729665 0 12 0 0 0
        CFGEDIT 1 1 0 1 1 0 1 1 1 1 1 0.25000000 -8 -8 1544 872 0 2 1 1 0.00000000 0 1 0 0 0.500000 0 0 1.000000 64
        KEYSNAP 0 6 "102030050700" 0 "Pentatonic"
        EVTFILTER 0 -1 -1 -1 -1 0 1 0 0 -1.00000000 -1.00000000
      >
    >
  >
  <TRACK '{4D9BF01B-6229-43C4-AFB4-9B09A5B811D9}'
    NAME "BEAT"
    PEAKCOL 16576
    BEAT -1
    AUTOMODE 0
    VOLPAN 1.00000000000000 0.00000000000000 -1.00000000000000 -1.00000000000000 1.00000000000000
    MUTESOLO 0 0 0
    IPHASE 0
    ISBUS 0 0
    BUSCOMP 0 0
    SHOWINMIX 1 0.666700 0.500000 1 0.500000 -1 -1 -1
    FREEMODE 0
    SEL 0
    REC 0 0 0 0 0 0 0
    VU 2
    TRACKHEIGHT 0 0
    INQ 0 0 0 0.5000000000 100 0 0 100
    NCHAN 2
    FX 1
    TRACKID {4D9BF01B-6229-43C4-AFB4-9B09A5B811D9}
    PERF 0
    MIDIOUT -1
    <MIDINOTENAMES
      0 13 "Up Beats"
      0 12 "Downbeat"
    >
    MAINSEND 1 0
    <FXCHAIN
      SHOW 0
      LASTSEL 0
      DOCKED 0
    >
    <ITEM
      POSITION 0.00000000000000
      SNAPOFFS 0.00000000000000
      LENGTH 128.64099999999999
      LOOP 0
      ALLTAKES 0
      SEL 0
      FADEIN 1 0.000000 0.000000 1 0
      FADEOUT 1 0.000000 0.000000 1 0
      MUTE 0
      IGUID {E1AD0745-0D2A-46DD-9748-F38D0C885AF5}
      IID 11
      NAME "BEAT"
      VOLPAN 1.000000 0.000000 1.000000 -1.000000
      SOFFS 0.00000000000000 0.00000000000000
      PLAYRATE 1.00000000000000 1 0.00000000000000 -1
      CHANMODE 0
      GUID {AF798FD4-F7F8-45B6-93D4-8BF7CCDD1F8C}
      <SOURCE MIDI
        HASDATA 1 480 QN
        POOLEDEVTS {B39EA67A-E196-4034-B4A5-0930C5C66A39}
        <X 0 0
          /wNCRUFU
        >
        E 0 96 0c 64
        E 120 86 0c 00
        E 360 96 0d 64
        E 120 86 0d 00
        E 360 96 0d 64
        E 120 86 0d 00
        E 360 96 0d 64
        E 120 86 0d 00
        E 360 96 0c 64
        E 120 86 0c 00
        E 360 96 0d 64
        E 120 86 0d 00
        E 360 96 0d 64
        E 120 86 0d 00
        E 360 96 0d 64
        E 120 86 0d 00
        E 360 96 0c 64
        E 120 86 0c 00
        E 360 96 0d 64
        E 120 86 0d 00
        E 360 96 0d 64
        E 120 86 0d 00
        E 360 96 0d 64
        E 120 86 0d 00
        E 360 96 0c 64
        E 120 86 0c 00
        E 360 96 0d 64
        E 120 86 0d 00
        E 360 96 0d 64
        E 120 86 0d 00
        E 360 96 0d 64
        E 120 86 0d 00
        E 360 96 0c 64
        E 120 86 0c 00
        E 360 96 0d 64
        E 120 86 0d 00
        E 360 96 0c 64
        E 120 86 0c 00
        E 360 96 0d 64
        E 120 86 0d 00
        E 360 96 0d 64
        E 120 86 0d 00
        E 360 96 0d 64
        E 120 86 0d 00
        E 360 96 0c 64
        E 120 86 0c 00
        E 360 96 0d 64
        E 120 86 0d 00
        E 360 96 0d 64
        E 120 86 0d 00
        E 360 96 0d 64
        E 120 86 0d 00
        E 360 96 0c 64
        E 120 86 0c 00
        E 360 96 0d 64
        E 120 86 0d 00
        E 360 96 0c 64
        E 120 86 0c 00
        E 360 96 0d 64
        E 120 86 0d 00
        E 360 96 0d 64
        E 120 86 0d 00
        E 360 96 0d 64
        E 120 86 0d 00
        E 360 96 0c 64
        E 120 86 0c 00
        E 360 96 0d 64
        E 120 86 0d 00
        E 360 96 0d 64
        E 120 86 0d 00
        E 360 96 0d 64
        E 120 86 0d 00
        E 360 96 0c 64
        E 120 86 0c 00
        E 360 96 0d 64
        E 120 86 0d 00
        E 360 96 0c 64
        E 120 86 0c 00
        E 360 96 0d 64
        E 120 86 0d 00
        E 360 96 0d 64
        E 120 86 0d 00
        E 360 96 0d 64
        E 120 86 0d 00
        E 360 96 0c 64
        E 120 86 0c 00
        E 360 96 0d 64
        E 120 86 0d 00
        E 360 96 0d 64
        E 120 86 0d 00
        E 360 96 0d 64
        E 120 86 0d 00
        E 360 96 0c 64
        E 120 86 0c 00
        E 360 96 0d 64
        E 120 86 0d 00
        E 360 96 0c 64
        E 120 86 0c 00
        E 360 96 0d 64
        E 120 86 0d 00
        E 360 96 0d 64
        E 120 86 0d 00
        E 360 96 0d 64
        E 120 86 0d 00
        E 360 96 0c 64
        E 120 86 0c 00
        E 360 96 0d 64
        E 120 86 0d 00
        E 360 96 0d 64
        E 120 86 0d 00
        E 360 96 0d 64
        E 120 86 0d 00
        E 360 96 0c 64
        E 120 86 0c 00
        E 360 96 0d 64
        E 120 86 0d 00
        E 360 96 0c 64
        E 120 86 0c 00
        E 360 96 0d 64
        E 120 86 0d 00
        E 360 96 0d 64
        E 120 86 0d 00
        E 360 96 0d 64
        E 120 86 0d 00
        E 360 96 0c 64
        E 120 86 0c 00
        E 360 96 0d 64
        E 120 86 0d 00
        E 360 96 0d 64
        E 120 86 0d 00
        E 360 96 0d 64
        E 120 86 0d 00
        E 360 96 0c 64
        E 120 86 0c 00
        E 360 96 0d 64
        E 120 86 0d 00
        E 360 96 0d 64
        E 120 86 0d 00
        E 360 96 0d 64
        E 120 86 0d 00
        E 360 96 0c 64
        E 120 86 0c 00
        E 360 96 0d 64
        E 120 86 0d 00
        E 360 96 0d 64
        E 120 86 0d 00
        E 360 96 0d 64
        E 120 86 0d 00
        E 360 96 0c 64
        E 120 86 0c 00
        E 360 96 0d 64
        E 120 86 0d 00
        E 360 96 0d 64
        E 120 86 0d 00
        E 360 96 0d 64
        E 120 86 0d 00
        E 360 96 0c 64
        E 120 86 0c 00
        E 360 96 0d 64
        E 120 86 0d 00
        E 360 96 0d 64
        E 120 86 0d 00
        E 360 96 0d 64
        E 120 86 0d 00
        E 360 96 0c 64
        E 120 86 0c 00
        E 360 96 0d 64
        E 120 86 0d 00
        E 360 96 0d 64
        E 120 86 0d 00
        E 360 96 0d 64
        E 120 86 0d 00
        E 360 96 0c 64
        E 120 86 0c 00
        E 360 96 0d 64
        E 120 86 0d 00
        E 360 96 0d 64
        E 120 86 0d 00
        E 360 96 0d 64
        E 120 86 0d 00
        E 360 96 0c 64
        E 120 86 0c 00
        E 360 96 0d 64
        E 120 86 0d 00
        E 360 96 0c 64
        E 120 86 0c 00
        E 360 96 0d 64
        E 120 86 0d 00
        E 360 96 0d 64
        E 120 86 0d 00
        E 360 96 0d 64
        E 120 86 0d 00
        E 360 96 0c 64
        E 120 86 0c 00
        E 360 96 0d 64
        E 120 86 0d 00
        E 360 96 0d 64
        E 120 86 0d 00
        E 360 96 0d 64
        E 120 86 0d 00
        E 360 96 0c 64
        E 120 86 0c 00
        E 360 96 0d 64
        E 120 86 0d 00
        E 360 96 0c 64
        E 120 86 0c 00
        E 360 96 0d 64
        E 120 86 0d 00
        E 360 96 0d 64
        E 120 86 0d 00
        E 360 96 0d 64
        E 120 86 0d 00
        E 360 96 0c 64
        E 120 86 0c 00
        E 360 96 0d 64
        E 120 86 0d 00
        E 360 96 0d 64
        E 120 86 0d 00
        E 360 96 0d 64
        E 120 86 0d 00
        E 360 96 0c 64
        E 120 86 0c 00
        E 360 96 0d 64
        E 120 86 0d 00
        E 360 96 0c 64
        E 120 86 0c 00
        E 360 96 0d 64
        E 120 86 0d 00
        E 360 96 0d 64
        E 120 86 0d 00
        E 360 96 0d 64
        E 120 86 0d 00
        E 360 96 0c 64
        E 120 86 0c 00
        E 360 96 0d 64
        E 120 86 0d 00
        E 360 96 0d 64
        E 120 86 0d 00
        E 360 96 0d 64
        E 120 86 0d 00
        E 360 96 0c 64
        E 120 86 0c 00
        E 360 96 0d 64
        E 120 86 0d 00
        E 360 96 0c 64
        E 120 86 0c 00
        E 360 96 0d 64
        E 120 86 0d 00
        E 360 96 0d 64
        E 120 86 0d 00
        E 360 96 0d 64
        E 120 86 0d 00
        E 360 96 0c 64
        E 120 86 0c 00
        E 360 96 0d 64
        E 120 86 0d 00
        E 360 96 0d 64
        E 120 86 0d 00
        E 360 96 0d 64
        E 120 86 0d 00
        E 360 96 0c 64
        E 120 86 0c 00
        E 360 96 0d 64
        E 120 86 0d 00
        E 360 96 0c 64
        E 120 86 0c 00
        E 360 96 0d 64
        E 120 86 0d 00
        E 360 96 0d 64
        E 120 86 0d 00
        E 360 96 0d 64
        E 120 86 0d 00
        E 360 96 0c 64
        E 120 86 0c 00
        E 360 96 0d 64
        E 120 86 0d 00
        E 360 96 0d 64
        E 120 86 0d 00
        E 360 96 0d 64
        E 120 86 0d 00
        E 360 96 0c 64
        E 120 86 0c 00
        E 360 96 0d 64
        E 120 86 0d 00
        E 360 96 0d 64
        E 120 86 0d 00
        E 360 96 0d 64
        E 120 86 0d 00
        E 360 96 0c 64
        E 120 86 0c 00
        E 360 96 0d 64
        E 120 86 0d 00
        E 360 96 0d 64
        E 120 86 0d 00
        E 360 96 0d 64
        E 120 86 0d 00
        E 360 96 0c 64
        E 120 86 0c 00
        E 360 96 0d 64
        E 120 86 0d 00
        E 360 96 0d 64
        E 120 86 0d 00
        E 360 96 0d 64
        E 120 86 0d 00
        E 360 96 0c 64
        E 120 86 0c 00
        E 360 96 0d 64
        E 120 86 0d 00
        E 360 96 0d 64
        E 120 86 0d 00
        E 360 96 0d 64
        E 120 86 0d 00
        E 360 96 0c 64
        E 120 86 0c 00
        E 360 96 0d 64
        E 120 86 0d 00
        E 360 96 0d 64
        E 120 86 0d 00
        E 360 96 0d 64
        E 120 86 0d 00
        E 360 96 0c 64
        E 120 86 0c 00
        E 360 96 0d 64
        E 120 86 0d 00
        E 360 96 0d 64
        E 120 86 0d 00
        E 360 96 0d 64
        E 120 86 0d 00
        E 360 96 0c 64
        E 120 86 0c 00
        E 360 96 0d 64
        E 120 86 0d 00
        E 360 96 0c 64
        E 120 86 0c 00
        E 360 96 0d 64
        E 120 86 0d 00
        E 360 96 0d 64
        E 120 86 0d 00
        E 360 96 0d 64
        E 120 86 0d 00
        E 360 96 0c 64
        E 120 86 0c 00
        E 360 96 0d 64
        E 120 86 0d 00
        E 360 96 0d 64
        E 120 86 0d 00
        E 360 96 0d 64
        E 120 86 0d 00
        E 360 96 0c 64
        E 120 86 0c 00
        E 360 96 0d 64
        E 120 86 0d 00
        E 360 96 0c 64
        E 120 86 0c 00
        E 360 96 0d 64
        E 120 86 0d 00
        E 360 96 0d 64
        E 120 86 0d 00
        E 360 96 0d 64
        E 120 86 0d 00
        E 360 96 0c 64
        E 120 86 0c 00
        E 360 96 0d 64
        E 120 86 0d 00
        E 360 96 0d 64
        E 120 86 0d 00
        E 360 96 0d 64
        E 120 86 0d 00
        E 360 96 0c 64
        E 120 86 0c 00
        E 360 96 0d 64
        E 120 86 0d 00
        E 360 96 0c 64
        E 120 86 0c 00
        E 360 96 0d 64
        E 120 86 0d 00
        E 360 96 0d 64
        E 120 86 0d 00
        E 360 96 0d 64
        E 120 86 0d 00
        E 360 96 0c 64
        E 120 86 0c 00
        E 360 96 0d 64
        E 120 86 0d 00
        E 360 96 0d 64
        E 120 86 0d 00
        E 360 96 0d 64
        E 120 86 0d 00
        E 360 96 0c 64
        E 120 86 0c 00
        E 360 96 0d 64
        E 120 86 0d 00
        E 360 96 0d 64
        E 120 86 0d 00
        E 360 96 0d 64
        E 120 86 0d 00
        E 360 96 0c 64
        E 120 86 0c 00
        E 360 96 0d 64
        E 120 86 0d 00
        E 360 96 0d 64
        E 120 86 0d 00
        E 360 96 0d 64
        E 120 86 0d 00
        E 360 96 0c 64
        E 120 86 0c 00
        E 360 96 0d 64
        E 120 86 0d 00
        E 360 96 0c 64
        E 120 86 0c 00
        E 360 96 0d 64
        E 120 86 0d 00
        E 360 96 0d 64
        E 120 86 0d 00
        E 360 96 0d 64
        E 120 86 0d 00
        E 360 96 0c 64
        E 120 86 0c 00
        E 360 96 0d 64
        E 120 86 0d 00
        E 360 96 0d 64
        E 120 86 0d 00
        E 360 96 0d 64
        E 120 86 0d 00
        E 360 96 0c 64
        E 120 86 0c 00
        E 360 96 0d 64
        E 120 86 0d 00
        E 360 96 0d 64
        E 120 86 0d 00
        E 360 96 0d 64
        E 120 86 0d 00
        E 360 96 0c 64
        E 120 86 0c 00
        E 360 96 0d 64
        E 120 86 0d 00
        E 360 96 0d 64
        E 120 86 0d 00
        E 360 96 0d 64
        E 120 86 0d 00
        E 360 96 0c 64
        E 120 86 0c 00
        E 360 96 0d 64
        E 120 86 0d 00
        E 360 96 0d 64
        E 120 86 0d 00
        E 360 96 0d 64
        E 120 86 0d 00
        E 360 96 0c 64
        E 120 86 0c 00
        E 360 96 0d 64
        E 120 86 0d 00
        E 360 96 0d 64
        E 120 86 0d 00
        E 360 96 0d 64
        E 120 86 0d 00
        E 360 96 0c 64
        E 120 86 0c 00
        E 360 96 0d 64
        E 120 86 0d 00
        E 360 96 0d 64
        E 120 86 0d 00
        E 360 96 0d 64
        E 120 86 0d 00
        E 360 96 0c 64
        E 120 86 0c 00
        E 360 96 0d 64
        E 120 86 0d 00
        E 360 96 0d 64
        E 120 86 0d 00
        E 360 96 0d 64
        E 120 86 0d 00
        E 360 96 0c 64
        E 120 86 0c 00
        E 360 96 0d 64
        E 120 86 0d 00
        E 360 96 0d 64
        E 120 86 0d 00
        E 360 96 0d 64
        E 120 86 0d 00
        E 360 96 0c 64
        E 120 86 0c 00
        E 360 96 0d 64
        E 120 86 0d 00
        E 360 96 0d 64
        E 120 86 0d 00
        E 360 96 0d 64
        E 120 86 0d 00
        E 360 96 0c 64
        E 120 86 0c 00
        E 360 96 0d 64
        E 120 86 0d 00
        E 360 96 0d 64
        E 120 86 0d 00
        E 360 96 0d 64
        E 120 86 0d 00
        E 360 b0 7b 00
        GUID {4D2693BD-1029-4ED2-A6F8-9E201542754B}
        IGNTEMPO 0 120.00000000 4 4
        SRCCOLOR 11
        VELLANE 132 128 60
        COLORMAP "C:\Program Files\REAPER (x64)\Data\color_maps\rockband_guitarbass.png"
        CFGEDITVIEW -7738.130009 8.729665 0 48 0 0 0
        CFGEDIT 1 1 0 1 1 0 1 1 1 1 1 0.25000000 -8 -8 1544 872 0 2 1 1 0.00000000 0 1 0 0 0.500000 0 0 1.000000 64
        KEYSNAP 0 6 "102030050700" 0 "Pentatonic"
        EVTFILTER 0 -1 -1 -1 -1 0 1 0 0 -1.00000000 -1.00000000
      >
    >
  >
  <TRACK '{B0580407-F940-4A95-87FA-F61569674EEB}'
    NAME "backing"
    PEAKCOL 16576
    BEAT -1
    AUTOMODE 0
    VOLPAN 1.00000000000000 0.00000000000000 -1.00000000000000 -1.00000000000000 1.00000000000000
    MUTESOLO 0 0 0
    IPHASE 0
    ISBUS 0 0
    BUSCOMP 0 0
    SHOWINMIX 1 0.666700 0.500000 1 0.500000 -1 -1 -1
    FREEMODE 0
    SEL 0
    REC 0 0 0 0 0 0 0
    VU 2
    TRACKHEIGHT 0 0
    INQ 0 0 0 0.5000000000 100 0 0 100
    NCHAN 2
    FX 1
    TRACKID {B0580407-F940-4A95-87FA-F61569674EEB}
    PERF 0
    MIDIOUT -1
    MAINSEND 1 0
    <ITEM
      POSITION 0.00000000000000
      SNAPOFFS 0.00000000000000
      LENGTH 128.64183673469387
      LOOP 0
      ALLTAKES 0
      SEL 0
      FADEIN 1 0.000000 0.000000 1 0
      FADEOUT 1 0.000000 0.000000 1 0
      MUTE 0
      IGUID {B1EEA5AB-EC87-47B2-B04A-DEE9F853E42F}
      IID 12
      NAME "backing.wav"
      VOLPAN 1.000000 0.000000 1.000000 -1.000000
      SOFFS 0.00000000000000
      PLAYRATE 1.00000000000000 1 0.00000000000000 -1
      CHANMODE 0
      GUID {1A7BAFA0-10D3-4A68-83D9-517D330D95CC}
      <SOURCE WAVE
        FILE "wav\backing.wav"
      >
    >
  >
  <EXTENSIONS
  >
>
