<REAPER_PROJECT 0.1 "4.22/x64"
  RIPPLE 0
  GROUPOVERRIDE 0 0 0
  AUTOXFADE 1
  ENVATTACH 1
  MIXERUIFLAGS 11 48
  PEAKGAIN 1.10000000000000
  FEEDBACK 0
  PANLAW 1.00000000000000
  PROJOFFS 0.00000000000000 0
  MAXPROJLEN 0 600.00000000000000
  GRID 3199 8 1.00000000000000 8 1.00000000000000 0
  TIMEMODE 1 0 -1
  PANMODE 3
  CURSOR 0.00000000000000
  ZOOM 4.75403779368118 0 0
  VZOOMEX 5
  USE_REC_CFG 0
  RECMODE 1
  SMPTESYNC 0 23.976024 100 40 1000 300 0 0.000000 1
  LOOP 0
  LOOPGRAN 0 4.00000000000000
  RECORD_PATH "" ""
  <RECORD_CFG
    ZXZhdxAD
  >
  <APPLYFX_CFG
  >
  RENDER_FILE "C:\Users\Ruggery\Desktop\HD\Customs\Songs\WIP\MGMT - Congratulations\stereo.wav"
  RENDER_FMT 0 2 44100
  RENDER_1X 0
  RENDER_RANGE 2 0.00000000000000 0.00000000000000
  RENDER_RESAMPLE 3 0 1
  RENDER_ADDTOPROJ 0
  RENDER_STEMS 0
  RENDER_DITHER 0
  TIMELOCKMODE 0
  ITEMMIX 0
  DEFPITCHMODE 393216
  TAKELANE 1
  SAMPLERATE 44100 0 0
  <RENDER_CFG
    ZXZhdxAD
  >
  LOCK 1
  <METRONOME 6 2.000000
    VOL 0.250000 0.125000
    FREQ 800 1600 1
    BEATLEN 4
    SAMPLES "" ""
  >
  GLOBAL_AUTO -1
  TEMPO 120.00000000000000 4 4
  PLAYRATE 1.00000000000000 0 0.25000 4.00000
  SELECTION 0.00000000000000 236.43059832085180
  SELECTION2 0.00000000000000 236.43059832085180
  MASTERAUTOMODE 0
  MASTERTRACKHEIGHT 0
  MASTERPEAKCOL 16576
  MASTERMUTESOLO 0
  MASTERTRACKVIEW 1 0.666700 0.500000 0.500000 -1 -1 -1
  MASTERHWOUT 0 0 1.00000000000000 0.00000000000000 0 0 0 -1.00000000000000
  MASTER_NCH 2 2
  MASTER_VOLUME 1.00000000000000 0.00000000000000 -1.00000000000000 -1.00000000000000 1.00000000000000
  MASTER_PANMODE -1
  MASTER_FX 1
  MASTER_SEL 0
  <MASTERPLAYSPEEDENV
    ACT 0
    VIS 0 1 1.000000
    LANEHEIGHT 0 0
    ARM 0
    DEFSHAPE 0 -1 -1
  >
  <TEMPOENVEX
    ACT 1
    VIS 1 0 1.000000
    LANEHEIGHT 0 0
    ARM 0
    DEFSHAPE 1 -1 -1
    PT 0.000000000000 121.6670000000 1
    PT 4.931496040563 129.4444444480 1
    PT 5.858534667172 125.0000000080 1
    PT 6.818534667172 129.4444444480 1
    PT 7.745570753839 125.0000000000 1
    PT 8.705570753839 126.6666666667 1
    PT 9.652939174892 123.3333333333 1
    PT 10.625912147865 123.3333333333 1
    PT 12.571858093811 125.5555555556 1
    PT 13.527610306200 122.7777777778 1
    PT 15.482361437422 126.1111111111 1
    PT 17.385445137862 123.8888888889 1
    PT 18.354055003333 126.6666666667 1
    PT 19.301423424386 125.0000000000 1
    PT 22.181423424386 127.2222222222 1
    PT 23.124654865434 124.4444444444 1
    PT 26.017512008291 126.6666666667 1
    PT 26.964880429344 119.4444444444 1
    PT 27.467206010739 121.6666666667 1
    PT 27.960356695671 128.8888888889 1
    PT 28.891391178429 123.8888888889 1
    PT 29.860001043900 126.1111111111 1
    PT 30.811542894120 123.8888888889 1
    PT 33.717372490533 125.0000000000 1
    PT 35.637372490533 128.8888888889 1
    PT 36.568406973292 123.8888888889 1
    PT 37.537016838762 128.8888888889 1
    PT 38.468051321521 121.1111111111 1
    PT 39.458877009594 127.2222222222 1
    PT 40.402108450642 121.6666666667 1
    PT 41.388409820505 128.3333333333 1
    PT 42.323474755570 123.3333333333 1
    PT 43.296447728543 130.0000000000 1
    PT 44.219524651620 126.6666666667 1
    PT 45.166893072673 121.6666666667 1
    PT 47.139495812399 127.7777777778 1
    PT 48.078626247182 121.6666666667 1
    PT 49.064927617045 123.8888888889 1
    PT 49.549232549780 127.7777777778 1
    PT 50.018797767171 122.7777777778 1
    PT 50.996173332782 127.2222222222 1
    PT 51.939404773830 123.8888888889 1
    PT 52.908014639301 126.1111111111 1
    PT 55.286869264851 130.5555555556 1
    PT 55.746443732936 122.7777777778 1
    PT 57.212507081352 127.2222222222 1
    PT 57.684122801877 123.8888888889 1
    PT 58.652732667347 126.1111111111 1
    PT 59.604274517568 124.4444444444 1
    PT 62.014988803282 120.5555555556 1
    PT 62.512684655816 126.6666666667 1
    PT 63.460053076869 125.0000000000 1
    PT 69.220053076869 123.3333333333 1
    PT 70.193026049842 127.2222222222 1
    PT 72.079488931938 124.4444444444 1
    PT 72.561631789081 127.7777777778 1
    PT 73.031197006472 118.8888888889 1
    PT 73.535869903669 122.7777777778 1
    PT 74.513245469279 132.2222222222 1
    PT 74.967026981884 126.1111111111 1
    PT 75.442797906995 121.6666666667 1
    PT 75.935948591926 124.4444444444 1
    PT 77.864520020498 126.6666666667 1
    PT 78.811888441550 123.3333333333 1
    PT 80.271347901010 132.7777777778 1
    PT 80.723230746198 124.4444444444 1
    PT 87.473230746198 126.1111111111 1
    PT 88.424772596418 125.0000000000 1
    PT 91.784772596418 125.8560000000 1
    PT 96.075390445388 121.6666666667 1
    PT 98.047993185114 128.3333333333 1
    PT 98.983058120179 129.4444444444 1
    PT 99.910096746789 120.5555555556 1
    PT 101.403184304393 129.4444444444 1
    PT 101.866703617697 125.0000000000 1
    PT 103.786703617697 123.8888888889 1
    PT 104.755313483168 126.6666666667 1
    PT 106.176366114747 126.1111111111 1
    PT 106.652137039857 125.0000000000 1
    PT 113.372137039857 122.2222222222 1
    PT 113.863046130766 128.8888888889 1
    PT 114.328563372146 122.7777777778 1
    PT 114.817251154951 123.3333333333 1
    PT 118.222656560356 125.5555555556 1
    PT 120.612037091330 130.0000000000 1
    PT 121.073575552868 124.4444444444 1
    PT 124.448575552868 132.2222222222 1
    PT 124.906854916728 124.4444444444 1
    PT 125.866361664056 126.1111111111 1
    PT 128.720987214716 123.3333333333 1
    PT 129.693960187689 125.0000000000 1
    PT 133.533960187689 124.4444444444 1
    PT 134.498245901975 121.6666666667 1
    PT 135.484547271838 127.7777777778 1
    PT 135.954112489229 133.3333333333 1
    PT 136.404112489229 124.4444444444 1
    PT 139.296969632087 126.6666666667 1
    PT 140.244338053139 123.3333333333 1
    PT 141.703797512599 125.1560000000 1
    PT 143.621404339279 127.2222222222 1
    PT 145.036251500851 120.0000000000 1
    PT 145.536251500851 133.3333333333 1
    PT 145.986251500851 121.6666666667 1
    PT 146.972552870714 125.5555555556 1
    PT 149.361933401688 122.2222222222 1
    PT 150.834660674415 126.6666666667 1
    PT 152.729397516520 120.0000000000 1
    PT 153.229397516520 125.0000000000 1
    PT 156.589397516520 125.7560000000 1
    PT 159.452083988736 123.8888888889 1
    PT 161.389303719678 125.5555555556 1
    PT 164.256560356846 123.8888888889 1
    PT 166.678085020523 132.2222222222 1
    PT 167.131866533128 123.3333333333 1
    PT 168.104839506101 126.6666666667 1
    PT 168.578523716627 123.8888888889 1
    PT 170.031438514834 125.5555555556 1
    PT 170.987190727223 122.2222222222 1
    PT 171.969008909041 128.3333333333 1
    PT 172.904073844106 124.4444444444 1
    PT 173.868359558392 129.4444444444 1
    PT 174.795398185001 122.7777777778 1
    PT 175.284085967807 125.0000000000 1
    PT 176.244085967807 131.6666666667 1
    PT 176.699782170338 124.4444444444 1
    PT 178.628353598910 122.7777777778 1
    PT 179.605729164521 126.1111111111 1
    PT 181.508812864961 122.2222222222 1
    PT 183.472449228598 131.1111111111 1
    PT 184.387703465886 118.8888888889 1
    PT 185.397049260278 122.7777777778 1
    PT 185.885737043084 132.7777777778 1
    PT 186.337619888272 122.7777777778 1
    PT 187.314995453883 127.7777777778 1
    PT 187.784560671274 125.0000000000 1
    PT 190.184560671274 126.6666666667 1
    PT 191.605613302853 129.4444444444 1
    PT 192.069132616158 122.7777777778 1
    PT 193.046508181769 123.8888888889 1
    PT 193.530813114504 118.3333333333 1
    PT 194.037855368025 121.1111111111 1
    PT 194.533268212062 125.0000000000 1
    PT 195.013268212062 134.4444444444 1
    PT 195.905830195533 122.2222222222 1
    PT 196.887648377351 123.8888888889 1
    PT 198.824868108293 128.3333333333 1
    PT 199.759933043358 123.3333333333 1
    PT 200.732906016331 123.8888888889 1
    PT 202.670125747272 126.1111111111 1
    PT 204.573209447713 123.3333333333 1
    PT 206.519155393659 126.6666666667 1
    PT 207.466523814712 125.0000000000 1
    PT 211.306523814712 123.8888888889 1
    PT 212.275133680182 125.0000000000 1
    PT 214.195133680182 126.6666666667 1
    PT 217.037238943340 123.3333333333 1
    PT 218.983184889286 123.8888888889 1
    PT 219.951794754757 127.2222222222 1
    PT 220.895026195805 121.1111111111 1
    PT 221.390439039842 126.6666666667 1
    PT 223.758860092473 127.2222222222 1
    PT 224.702091533521 122.7777777778 1 0 1
  >
  <PROJBAY
  >
  <TRACK '{C8E87F18-E5B3-4DCB-A993-6C2A84DD6665}'
    NAME "PART DRUMS"
    PEAKCOL 16576
    BEAT -1
    AUTOMODE 0
    VOLPAN 1.00000000000000 0.00000000000000 -1.00000000000000 -1.00000000000000 1.00000000000000
    MUTESOLO 0 0 0
    IPHASE 0
    ISBUS 0 0
    BUSCOMP 0 0
    SHOWINMIX 1 0.666700 0.500000 1 0.500000 -1 -1 -1
    FREEMODE 0
    SEL 0
    REC 0 0 0 0 0 0 0
    VU 2
    TRACKHEIGHT 0 0
    INQ 0 0 0 0.5000000000 100 0 0 100
    NCHAN 2
    FX 1
    TRACKID {C8E87F18-E5B3-4DCB-A993-6C2A84DD6665}
    PERF 0
    MIDIOUT -1
    <MIDINOTENAMES
      0 127 "Cymbal Swells"
      0 126 "Drum Roll"
      0 125 "---"
      0 124 "DRUM FILL"
      0 123 "DRUM FILL"
      0 122 "DRUM FILL"
      0 121 "DRUM FILL"
      0 120 "DRUM FILL (use all 5)"
      0 118 "----"
      0 116 "OVERDRIVE"
      0 114 "----"
      0 112 "TOM GEMS PAD 4"
      0 111 "TOM GEMS PAD 3"
      0 110 "TOM GEMS PAD 2"
      0 103 "Solo Marker"
      0 102 "----"
      0 100 "EXPERT Green"
      0 99 "EXPERT Blue"
      0 98 "EXPERT Yellow"
      0 97 "EXPERT Red"
      0 96 "EXPERT Kick"
      0 92 "----"
      0 88 "HARD Green"
      0 87 "HARD Blue"
      0 86 "HARD Yellow"
      0 85 "HARD Red"
      0 84 "HARD Kick"
      0 80 "----"
      0 76 "MEDIUM Green"
      0 75 "MEDIUM Blue"
      0 74 "MEDIUM Yellow"
      0 73 "MEDIUM Red"
      0 72 "MEDIUM Kick"
      0 68 "----"
      0 64 "EASY Green"
      0 63 "EASY Blue"
      0 62 "EASY Yellow"
      0 61 "EASY Red"
      0 60 "EASY Kick"
      0 56 "----"
      0 52 "-- DRUM ANIMATION --"
      0 51 "FLOOR TOM RH"
      0 50 "FLOOR TOM LH"
      0 49 "TOM2 RH"
      0 48 "TOM2 LH"
      0 47 "TOM1 RH"
      0 46 "TOM1 LH"
      0 45 "SOFT CRASH 2 LH"
      0 44 "CRASH 2 LH"
      0 43 "RIDE LH"
      0 42 "RIDE CYM RH"
      0 41 "CRASH2 CHOKE"
      0 40 "CRASH1 CHOKE"
      0 39 "CRASH2 SOFT RH"
      0 38 "CRASH2 HARD RH"
      0 37 "CRASH1 SOFT RH"
      0 36 "CRASH1 HARD RH"
      0 35 "CRASH1 SOFT LH"
      0 34 "CRASH1 HARD LH"
      0 32 "PERCUSSION RH"
      0 31 "HI-HAT RH"
      0 30 "HI-HAT LH"
      0 29 "SOFT SNARE RH"
      0 28 "SOFT SNARE LH"
      0 27 "SNARE RH"
      0 26 "SNARE LH"
      0 25 "HI-HAT OPEN"
      0 24 "KICK RF"
    >
    MAINSEND 1 0
    <FXCHAIN
      WNDRECT 0 42 878 554
      SHOW 0
      LASTSEL 0
      DOCKED 0
      BYPASS 0 0
      <VST "VSTi: RBN Preview (RBN)" "rbprev_vst64.dll" 0 ""
        dnBicu5e7f4AAAAAAgAAAAEAAAAAAAAAAgAAAAAAAAAEAAAAAQAAAA==
        AAAQAAMBqgAAABAAAAA=
      >
      FLOATPOS 0 0 0 0
      FXID {D49563EC-9FD0-4BBE-873A-367673F0A0DD}
      WAK 0
    >
    <ITEM
      POSITION 0.00000000000000
      SNAPOFFS 0.00000000000000
      LENGTH 236.43059832085180
      LOOP 0
      ALLTAKES 0
      SEL 0
      FADEIN 1 0.000000 0.000000 1 0
      FADEOUT 1 0.000000 0.000000 1 0
      MUTE 0
      IGUID {8681248C-2041-48F0-8DE6-FA48F86EE5BB}
      IID 9
      NAME "PART DRUMS"
      VOLPAN 1.000000 0.000000 1.000000 -1.000000
      SOFFS 0.00000000000000 0.00000000000000
      PLAYRATE 1.00000000000000 1 0.00000000000000 -1
      CHANMODE 0
      GUID {F0C6E83F-E739-40DD-BD09-CF15743C319C}
      <SOURCE MIDI
        HASDATA 1 480 QN
        POOLEDEVTS {BDDB719F-B30F-4C3F-886E-D2ADA56516D4}
        <X 0 0
          /wNQQVJUIERSVU1T
        >
        <X 120 0
          /wFbbWl4IDAgZHJ1bXMwXQ==
        >
        <X 120 0
          /wFbbWl4IDEgZHJ1bXMwXQ==
        >
        <X 120 0
          /wFbbWl4IDIgZHJ1bXMwXQ==
        >
        <X 120 0
          /wFbbWl4IDMgZHJ1bXMwXQ==
        >
        <X 3360 0
          /wFbbWVsbG93XQ==
        >
        E 0 90 18 60
        E 0 90 1f 60
        E 0 90 3e 60
        E 0 90 48 60
        E 0 90 4a 60
        E 0 90 54 60
        E 0 90 56 60
        E 0 90 60 60
        E 0 90 62 60
        E 120 80 18 00
        E 0 80 1f 00
        E 0 80 3e 00
        E 0 80 48 00
        E 0 80 4a 00
        E 0 80 54 00
        E 0 80 56 00
        E 0 80 60 00
        E 0 80 62 00
        E 360 90 1f 60
        E 0 90 3e 60
        E 0 90 4a 60
        E 0 90 56 60
        E 0 90 62 60
        E 120 80 1f 00
        E 0 80 3e 00
        E 0 80 4a 00
        E 0 80 56 00
        E 0 80 62 00
        E 360 90 1a 60
        E 0 90 1f 60
        E 0 90 3d 60
        E 0 90 3e 60
        E 0 90 49 60
        E 0 90 4a 60
        E 0 90 55 60
        E 0 90 56 60
        E 0 90 61 60
        E 0 90 62 60
        E 120 80 1a 00
        E 0 80 1f 00
        E 0 80 3d 00
        E 0 80 3e 00
        E 0 80 49 00
        E 0 80 4a 00
        E 0 80 55 00
        E 0 80 56 00
        E 0 80 61 00
        E 0 80 62 00
        E 360 90 1f 60
        E 0 90 3e 60
        E 0 90 4a 60
        E 0 90 56 60
        E 0 90 62 60
        E 120 80 1f 00
        E 0 80 3e 00
        E 0 80 4a 00
        E 0 80 56 00
        E 0 80 62 00
        E 120 90 18 60
        E 0 90 54 60
        E 0 90 60 60
        E 120 80 18 00
        E 0 80 54 00
        E 0 80 60 00
        E 120 90 18 60
        E 0 90 1f 60
        E 0 90 3e 60
        E 0 90 48 60
        E 0 90 4a 60
        E 0 90 54 60
        E 0 90 56 60
        E 0 90 60 60
        E 0 90 62 60
        E 120 80 18 00
        E 0 80 1f 00
        E 0 80 3e 00
        E 0 80 48 00
        E 0 80 4a 00
        E 0 80 54 00
        E 0 80 56 00
        E 0 80 60 00
        E 0 80 62 00
        E 360 90 1f 60
        E 0 90 3e 60
        E 0 90 4a 60
        E 0 90 56 60
        E 0 90 62 60
        E 120 80 1f 00
        E 0 80 3e 00
        E 0 80 4a 00
        E 0 80 56 00
        E 0 80 62 00
        E 360 90 1a 60
        E 0 90 1f 60
        E 0 90 3d 60
        E 0 90 3e 60
        E 0 90 49 60
        E 0 90 4a 60
        E 0 90 55 60
        E 0 90 56 60
        E 0 90 61 60
        E 0 90 62 60
        E 120 80 1a 00
        E 0 80 1f 00
        E 0 80 3d 00
        E 0 80 3e 00
        E 0 80 49 00
        E 0 80 4a 00
        E 0 80 55 00
        E 0 80 56 00
        E 0 80 61 00
        E 0 80 62 00
        E 360 90 1f 60
        E 0 90 3e 60
        E 0 90 4a 60
        E 0 90 56 60
        E 0 90 62 60
        E 120 80 1f 00
        E 0 80 3e 00
        E 0 80 4a 00
        E 0 80 56 00
        E 0 80 62 00
        E 120 90 18 60
        E 0 90 54 60
        E 0 90 60 60
        E 120 80 18 00
        E 0 80 54 00
        E 0 80 60 00
        E 120 90 18 60
        E 0 90 1f 60
        E 0 90 3e 60
        E 0 90 48 60
        E 0 90 4a 60
        E 0 90 54 60
        E 0 90 56 60
        E 0 90 60 60
        E 0 90 62 60
        E 120 80 18 00
        E 0 80 1f 00
        E 0 80 3e 00
        E 0 80 48 00
        E 0 80 4a 00
        E 0 80 54 00
        E 0 80 56 00
        E 0 80 60 00
        E 0 80 62 00
        E 360 90 1f 60
        E 0 90 3e 60
        E 0 90 4a 60
        E 0 90 56 60
        E 0 90 62 60
        E 120 80 1f 00
        E 0 80 3e 00
        E 0 80 4a 00
        E 0 80 56 00
        E 0 80 62 00
        E 360 90 1a 60
        E 0 90 1f 60
        E 0 90 3d 60
        E 0 90 3e 60
        E 0 90 49 60
        E 0 90 4a 60
        E 0 90 55 60
        E 0 90 56 60
        E 0 90 61 60
        E 0 90 62 60
        E 120 80 1a 00
        E 0 80 1f 00
        E 0 80 3d 00
        E 0 80 3e 00
        E 0 80 49 00
        E 0 80 4a 00
        E 0 80 55 00
        E 0 80 56 00
        E 0 80 61 00
        E 0 80 62 00
        E 360 90 1f 60
        E 0 90 3e 60
        E 0 90 4a 60
        E 0 90 56 60
        E 0 90 62 60
        E 120 80 1f 00
        E 0 80 3e 00
        E 0 80 4a 00
        E 0 80 56 00
        E 0 80 62 00
        E 120 90 18 60
        E 0 90 54 60
        E 0 90 60 60
        E 120 80 18 00
        E 0 80 54 00
        E 0 80 60 00
        E 120 90 18 60
        E 0 90 1f 60
        E 0 90 3e 60
        E 0 90 48 60
        E 0 90 4a 60
        E 0 90 54 60
        E 0 90 56 60
        E 0 90 60 60
        E 0 90 62 60
        E 0 90 74 60
        E 120 80 18 00
        E 0 80 1f 00
        E 0 80 3e 00
        E 0 80 48 00
        E 0 80 4a 00
        E 0 80 54 00
        E 0 80 56 00
        E 0 80 60 00
        E 0 80 62 00
        E 360 90 1f 60
        E 0 90 3e 60
        E 0 90 4a 60
        E 0 90 56 60
        E 0 90 62 60
        E 120 80 1f 00
        E 0 80 3e 00
        E 0 80 4a 00
        E 0 80 56 00
        E 0 80 62 00
        E 360 90 1a 60
        E 0 90 1f 60
        E 0 90 3d 60
        E 0 90 3e 60
        E 0 90 49 60
        E 0 90 4a 60
        E 0 90 55 60
        E 0 90 56 60
        E 0 90 61 60
        E 0 90 62 60
        E 120 80 1a 00
        E 0 80 1f 00
        E 0 80 3d 00
        E 0 80 3e 00
        E 0 80 49 00
        E 0 80 4a 00
        E 0 80 55 00
        E 0 80 56 00
        E 0 80 61 00
        E 0 80 62 00
        E 360 90 1f 60
        E 0 90 3e 60
        E 0 90 4a 60
        E 0 90 56 60
        E 0 90 62 60
        E 120 80 1f 00
        E 0 80 3e 00
        E 0 80 4a 00
        E 0 80 56 00
        E 0 80 62 00
        E 120 90 18 60
        E 0 90 54 60
        E 0 90 60 60
        E 120 80 18 00
        E 0 80 54 00
        E 0 80 60 00
        E 120 80 74 00
        E 0 90 18 60
        E 0 90 1f 60
        E 0 90 3e 60
        E 0 90 48 60
        E 0 90 4a 60
        E 0 90 54 60
        E 0 90 56 60
        E 0 90 60 60
        E 0 90 62 60
        E 120 80 18 00
        E 0 80 1f 00
        E 0 80 3e 00
        E 0 80 48 00
        E 0 80 4a 00
        E 0 80 54 00
        E 0 80 56 00
        E 0 80 60 00
        E 0 80 62 00
        E 360 90 1f 60
        E 0 90 3e 60
        E 0 90 4a 60
        E 0 90 56 60
        E 0 90 62 60
        E 120 80 1f 00
        E 0 80 3e 00
        E 0 80 4a 00
        E 0 80 56 00
        E 0 80 62 00
        E 360 90 1a 60
        E 0 90 1f 60
        E 0 90 3d 60
        E 0 90 3e 60
        E 0 90 49 60
        E 0 90 4a 60
        E 0 90 55 60
        E 0 90 56 60
        E 0 90 61 60
        E 0 90 62 60
        E 120 80 1a 00
        E 0 80 1f 00
        E 0 80 3d 00
        E 0 80 3e 00
        E 0 80 49 00
        E 0 80 4a 00
        E 0 80 55 00
        E 0 80 56 00
        E 0 80 61 00
        E 0 80 62 00
        E 360 90 1f 60
        E 0 90 3e 60
        E 0 90 4a 60
        E 0 90 56 60
        E 0 90 62 60
        E 120 80 1f 00
        E 0 80 3e 00
        E 0 80 4a 00
        E 0 80 56 00
        E 0 80 62 00
        E 120 90 18 60
        E 0 90 54 60
        E 0 90 60 60
        E 120 80 18 00
        E 0 80 54 00
        E 0 80 60 00
        E 120 90 18 60
        E 0 90 1f 60
        E 0 90 3e 60
        E 0 90 48 60
        E 0 90 4a 60
        E 0 90 54 60
        E 0 90 56 60
        E 0 90 60 60
        E 0 90 62 60
        E 120 80 18 00
        E 0 80 1f 00
        E 0 80 3e 00
        E 0 80 48 00
        E 0 80 4a 00
        E 0 80 54 00
        E 0 80 56 00
        E 0 80 60 00
        E 0 80 62 00
        E 360 90 18 60
        E 0 90 1f 60
        E 0 90 3e 60
        E 0 90 48 60
        E 0 90 4a 60
        E 0 90 54 60
        E 0 90 56 60
        E 0 90 60 60
        E 0 90 62 60
        E 120 80 18 00
        E 0 80 1f 00
        E 0 80 3e 00
        E 0 80 48 00
        E 0 80 4a 00
        E 0 80 54 00
        E 0 80 56 00
        E 0 80 60 00
        E 0 80 62 00
        E 360 90 1a 60
        E 0 90 1f 60
        E 0 90 3d 60
        E 0 90 3e 60
        E 0 90 49 60
        E 0 90 4a 60
        E 0 90 55 60
        E 0 90 56 60
        E 0 90 61 60
        E 0 90 62 60
        E 120 80 1a 00
        E 0 80 1f 00
        E 0 80 3d 00
        E 0 80 3e 00
        E 0 80 49 00
        E 0 80 4a 00
        E 0 80 55 00
        E 0 80 56 00
        E 0 80 61 00
        E 0 80 62 00
        E 360 90 1f 60
        E 0 90 3e 60
        E 0 90 4a 60
        E 0 90 56 60
        E 0 90 62 60
        E 120 80 1f 00
        E 0 80 3e 00
        E 0 80 4a 00
        E 0 80 56 00
        E 0 80 62 00
        E 120 90 18 60
        E 0 90 54 60
        E 0 90 60 60
        E 120 80 18 00
        E 0 80 54 00
        E 0 80 60 00
        E 120 90 18 60
        E 0 90 1f 60
        E 0 90 3e 60
        E 0 90 48 60
        E 0 90 4a 60
        E 0 90 54 60
        E 0 90 56 60
        E 0 90 60 60
        E 0 90 62 60
        E 120 80 18 00
        E 0 80 1f 00
        E 0 80 3e 00
        E 0 80 48 00
        E 0 80 4a 00
        E 0 80 54 00
        E 0 80 56 00
        E 0 80 60 00
        E 0 80 62 00
        E 360 90 1f 60
        E 0 90 3e 60
        E 0 90 4a 60
        E 0 90 56 60
        E 0 90 62 60
        E 120 80 1f 00
        E 0 80 3e 00
        E 0 80 4a 00
        E 0 80 56 00
        E 0 80 62 00
        E 360 90 1a 60
        E 0 90 1f 60
        E 0 90 3d 60
        E 0 90 3e 60
        E 0 90 49 60
        E 0 90 4a 60
        E 0 90 55 60
        E 0 90 56 60
        E 0 90 61 60
        E 0 90 62 60
        E 120 80 1a 00
        E 0 80 1f 00
        E 0 80 3d 00
        E 0 80 3e 00
        E 0 80 49 00
        E 0 80 4a 00
        E 0 80 55 00
        E 0 80 56 00
        E 0 80 61 00
        E 0 80 62 00
        E 360 90 1f 60
        E 0 90 3e 60
        E 0 90 4a 60
        E 0 90 56 60
        E 0 90 62 60
        E 120 80 1f 00
        E 0 80 3e 00
        E 0 80 4a 00
        E 0 80 56 00
        E 0 80 62 00
        E 360 90 18 60
        E 0 90 1f 60
        E 0 90 3e 60
        E 0 90 48 60
        E 0 90 4a 60
        E 0 90 54 60
        E 0 90 56 60
        E 0 90 60 60
        E 0 90 62 60
        E 0 90 78 60
        E 0 90 79 60
        E 0 90 7a 60
        E 0 90 7b 60
        E 0 90 7c 60
        E 120 80 18 00
        E 0 80 1f 00
        E 0 80 3e 00
        E 0 80 48 00
        E 0 80 4a 00
        E 0 80 54 00
        E 0 80 56 00
        E 0 80 60 00
        E 0 80 62 00
        E 120 90 18 60
        E 0 90 54 60
        E 0 90 60 60
        E 120 80 18 00
        E 0 80 54 00
        E 0 80 60 00
        E 120 90 1f 60
        E 0 90 3e 60
        E 0 90 4a 60
        E 0 90 56 60
        E 0 90 62 60
        E 120 80 1f 00
        E 0 80 3e 00
        E 0 80 4a 00
        E 0 80 56 00
        E 0 80 62 00
        E 120 90 18 60
        E 0 90 54 60
        E 0 90 60 60
        E 120 80 18 00
        E 0 80 54 00
        E 0 80 60 00
        E 120 90 1a 60
        E 0 90 1f 60
        E 0 90 3d 60
        E 0 90 3e 60
        E 0 90 49 60
        E 0 90 4a 60
        E 0 90 55 60
        E 0 90 56 60
        E 0 90 61 60
        E 0 90 62 60
        E 120 80 1a 00
        E 0 80 1f 00
        E 0 80 3d 00
        E 0 80 3e 00
        E 0 80 49 00
        E 0 80 4a 00
        E 0 80 55 00
        E 0 80 56 00
        E 0 80 61 00
        E 0 80 62 00
        E 360 90 1f 60
        E 0 90 3e 60
        E 0 90 4a 60
        E 0 90 56 60
        E 0 90 62 60
        E 120 80 1f 00
        E 0 80 3e 00
        E 0 80 4a 00
        E 0 80 56 00
        E 0 80 62 00
        E 120 90 18 60
        E 0 90 54 60
        E 0 90 60 60
        E 120 80 18 00
        E 0 80 54 00
        E 0 80 60 00
        E 120 80 78 00
        E 0 80 79 00
        E 0 80 7a 00
        E 0 80 7b 00
        E 0 80 7c 00
        E 0 90 18 60
        E 0 90 1f 60
        E 0 90 3e 60
        E 0 90 48 60
        E 0 90 4a 60
        E 0 90 54 60
        E 0 90 56 60
        E 0 90 60 60
        E 0 90 62 60
        E 120 80 18 00
        E 0 80 1f 00
        E 0 80 3e 00
        E 0 80 48 00
        E 0 80 4a 00
        E 0 80 54 00
        E 0 80 56 00
        E 0 80 60 00
        E 0 80 62 00
        E 360 90 1f 60
        E 0 90 3e 60
        E 0 90 4a 60
        E 0 90 56 60
        E 0 90 62 60
        E 120 80 1f 00
        E 0 80 3e 00
        E 0 80 4a 00
        E 0 80 56 00
        E 0 80 62 00
        E 120 90 18 60
        E 0 90 54 60
        E 0 90 60 60
        E 120 80 18 00
        E 0 80 54 00
        E 0 80 60 00
        E 120 90 1a 60
        E 0 90 1f 60
        E 0 90 3d 60
        E 0 90 3e 60
        E 0 90 49 60
        E 0 90 4a 60
        E 0 90 55 60
        E 0 90 56 60
        E 0 90 61 60
        E 0 90 62 60
        E 120 80 1a 00
        E 0 80 1f 00
        E 0 80 3d 00
        E 0 80 3e 00
        E 0 80 49 00
        E 0 80 4a 00
        E 0 80 55 00
        E 0 80 56 00
        E 0 80 61 00
        E 0 80 62 00
        E 360 90 1f 60
        E 0 90 3e 60
        E 0 90 4a 60
        E 0 90 56 60
        E 0 90 62 60
        E 120 80 1f 00
        E 0 80 3e 00
        E 0 80 4a 00
        E 0 80 56 00
        E 0 80 62 00
        E 120 90 18 60
        E 0 90 54 60
        E 0 90 60 60
        E 120 80 18 00
        E 0 80 54 00
        E 0 80 60 00
        E 120 90 18 60
        E 0 90 1f 60
        E 0 90 3e 60
        E 0 90 48 60
        E 0 90 4a 60
        E 0 90 54 60
        E 0 90 56 60
        E 0 90 60 60
        E 0 90 62 60
        E 120 80 18 00
        E 0 80 1f 00
        E 0 80 3e 00
        E 0 80 48 00
        E 0 80 4a 00
        E 0 80 54 00
        E 0 80 56 00
        E 0 80 60 00
        E 0 80 62 00
        E 360 90 1f 60
        E 0 90 3e 60
        E 0 90 4a 60
        E 0 90 56 60
        E 0 90 62 60
        E 120 80 1f 00
        E 0 80 3e 00
        E 0 80 4a 00
        E 0 80 56 00
        E 0 80 62 00
        E 360 90 1a 60
        E 0 90 1f 60
        E 0 90 3d 60
        E 0 90 3e 60
        E 0 90 49 60
        E 0 90 4a 60
        E 0 90 55 60
        E 0 90 56 60
        E 0 90 61 60
        E 0 90 62 60
        E 120 80 1a 00
        E 0 80 1f 00
        E 0 80 3d 00
        E 0 80 3e 00
        E 0 80 49 00
        E 0 80 4a 00
        E 0 80 55 00
        E 0 80 56 00
        E 0 80 61 00
        E 0 80 62 00
        E 360 90 1f 60
        E 0 90 3e 60
        E 0 90 4a 60
        E 0 90 56 60
        E 0 90 62 60
        E 120 80 1f 00
        E 0 80 3e 00
        E 0 80 4a 00
        E 0 80 56 00
        E 0 80 62 00
        E 120 90 18 60
        E 0 90 54 60
        E 0 90 60 60
        E 120 80 18 00
        E 0 80 54 00
        E 0 80 60 00
        E 120 90 18 60
        E 0 90 1f 60
        E 0 90 3e 60
        E 0 90 48 60
        E 0 90 4a 60
        E 0 90 54 60
        E 0 90 56 60
        E 0 90 60 60
        E 0 90 62 60
        E 120 80 18 00
        E 0 80 1f 00
        E 0 80 3e 00
        E 0 80 48 00
        E 0 80 4a 00
        E 0 80 54 00
        E 0 80 56 00
        E 0 80 60 00
        E 0 80 62 00
        E 360 90 1f 60
        E 0 90 3e 60
        E 0 90 4a 60
        E 0 90 56 60
        E 0 90 62 60
        E 120 80 1f 00
        E 0 80 3e 00
        E 0 80 4a 00
        E 0 80 56 00
        E 0 80 62 00
        E 360 90 1a 60
        E 0 90 1f 60
        E 0 90 3d 60
        E 0 90 3e 60
        E 0 90 49 60
        E 0 90 4a 60
        E 0 90 55 60
        E 0 90 56 60
        E 0 90 61 60
        E 0 90 62 60
        E 120 80 1a 00
        E 0 80 1f 00
        E 0 80 3d 00
        E 0 80 3e 00
        E 0 80 49 00
        E 0 80 4a 00
        E 0 80 55 00
        E 0 80 56 00
        E 0 80 61 00
        E 0 80 62 00
        E 360 90 1f 60
        E 0 90 3e 60
        E 0 90 4a 60
        E 0 90 56 60
        E 0 90 62 60
        E 120 80 1f 00
        E 0 80 3e 00
        E 0 80 4a 00
        E 0 80 56 00
        E 0 80 62 00
        E 120 90 18 60
        E 0 90 54 60
        E 0 90 60 60
        E 120 80 18 00
        E 0 80 54 00
        E 0 80 60 00
        E 120 90 18 60
        E 0 90 1f 60
        E 0 90 3e 60
        E 0 90 48 60
        E 0 90 4a 60
        E 0 90 54 60
        E 0 90 56 60
        E 0 90 60 60
        E 0 90 62 60
        E 0 90 78 60
        E 0 90 79 60
        E 0 90 7a 60
        E 0 90 7b 60
        E 0 90 7c 60
        E 120 80 18 00
        E 0 80 1f 00
        E 0 80 3e 00
        E 0 80 48 00
        E 0 80 4a 00
        E 0 80 54 00
        E 0 80 56 00
        E 0 80 60 00
        E 0 80 62 00
        E 360 90 1f 60
        E 0 90 3e 60
        E 0 90 4a 60
        E 0 90 56 60
        E 0 90 62 60
        E 120 80 1f 00
        E 0 80 3e 00
        E 0 80 4a 00
        E 0 80 56 00
        E 0 80 62 00
        E 120 90 18 60
        E 0 90 54 60
        E 0 90 60 60
        E 120 80 18 00
        E 0 80 54 00
        E 0 80 60 00
        E 120 90 1a 60
        E 0 90 1f 60
        E 0 90 3d 60
        E 0 90 3e 60
        E 0 90 49 60
        E 0 90 4a 60
        E 0 90 55 60
        E 0 90 56 60
        E 0 90 61 60
        E 0 90 62 60
        E 120 80 1a 00
        E 0 80 1f 00
        E 0 80 3d 00
        E 0 80 3e 00
        E 0 80 49 00
        E 0 80 4a 00
        E 0 80 55 00
        E 0 80 56 00
        E 0 80 61 00
        E 0 80 62 00
        E 360 90 1f 60
        E 0 90 3e 60
        E 0 90 4a 60
        E 0 90 56 60
        E 0 90 62 60
        E 120 80 1f 00
        E 0 80 3e 00
        E 0 80 4a 00
        E 0 80 56 00
        E 0 80 62 00
        E 360 80 78 00
        E 0 80 79 00
        E 0 80 7a 00
        E 0 80 7b 00
        E 0 80 7c 00
        E 0 90 18 60
        E 0 90 1f 60
        E 0 90 3e 60
        E 0 90 48 60
        E 0 90 4a 60
        E 0 90 54 60
        E 0 90 56 60
        E 0 90 60 60
        E 0 90 62 60
        E 0 90 74 60
        E 120 80 18 00
        E 0 80 1f 00
        E 0 80 3e 00
        E 0 80 48 00
        E 0 80 4a 00
        E 0 80 54 00
        E 0 80 56 00
        E 0 80 60 00
        E 0 80 62 00
        E 360 90 1f 60
        E 0 90 3e 60
        E 0 90 4a 60
        E 0 90 56 60
        E 0 90 62 60
        E 120 80 1f 00
        E 0 80 3e 00
        E 0 80 4a 00
        E 0 80 56 00
        E 0 80 62 00
        E 120 90 18 60
        E 0 90 54 60
        E 0 90 60 60
        E 120 80 18 00
        E 0 80 54 00
        E 0 80 60 00
        E 120 90 1a 60
        E 0 90 1f 60
        E 0 90 3d 60
        E 0 90 3e 60
        E 0 90 49 60
        E 0 90 4a 60
        E 0 90 55 60
        E 0 90 56 60
        E 0 90 61 60
        E 0 90 62 60
        E 120 80 1a 00
        E 0 80 1f 00
        E 0 80 3d 00
        E 0 80 3e 00
        E 0 80 49 00
        E 0 80 4a 00
        E 0 80 55 00
        E 0 80 56 00
        E 0 80 61 00
        E 0 80 62 00
        E 360 90 1f 60
        E 0 90 3e 60
        E 0 90 4a 60
        E 0 90 56 60
        E 0 90 62 60
        E 120 80 1f 00
        E 0 80 3e 00
        E 0 80 4a 00
        E 0 80 56 00
        E 0 80 62 00
        E 120 90 18 60
        E 0 90 54 60
        E 0 90 60 60
        E 120 80 18 00
        E 0 80 54 00
        E 0 80 60 00
        E 120 80 74 00
        E 0 90 18 60
        E 0 90 1f 60
        E 0 90 3e 60
        E 0 90 48 60
        E 0 90 4a 60
        E 0 90 54 60
        E 0 90 56 60
        E 0 90 60 60
        E 0 90 62 60
        E 120 80 18 00
        E 0 80 1f 00
        E 0 80 3e 00
        E 0 80 48 00
        E 0 80 4a 00
        E 0 80 54 00
        E 0 80 56 00
        E 0 80 60 00
        E 0 80 62 00
        E 360 90 1f 60
        E 0 90 3e 60
        E 0 90 4a 60
        E 0 90 56 60
        E 0 90 62 60
        E 120 80 1f 00
        E 0 80 3e 00
        E 0 80 4a 00
        E 0 80 56 00
        E 0 80 62 00
        E 120 90 18 60
        E 0 90 54 60
        E 0 90 60 60
        E 120 80 18 00
        E 0 80 54 00
        E 0 80 60 00
        E 120 90 1a 60
        E 0 90 1f 60
        E 0 90 3d 60
        E 0 90 3e 60
        E 0 90 49 60
        E 0 90 4a 60
        E 0 90 55 60
        E 0 90 56 60
        E 0 90 61 60
        E 0 90 62 60
        E 120 80 1a 00
        E 0 80 1f 00
        E 0 80 3d 00
        E 0 80 3e 00
        E 0 80 49 00
        E 0 80 4a 00
        E 0 80 55 00
        E 0 80 56 00
        E 0 80 61 00
        E 0 80 62 00
        E 360 90 1f 60
        E 0 90 3e 60
        E 0 90 4a 60
        E 0 90 56 60
        E 0 90 62 60
        E 120 80 1f 00
        E 0 80 3e 00
        E 0 80 4a 00
        E 0 80 56 00
        E 0 80 62 00
        E 120 90 18 60
        E 0 90 54 60
        E 0 90 60 60
        E 120 80 18 00
        E 0 80 54 00
        E 0 80 60 00
        E 120 90 18 60
        E 0 90 1f 60
        E 0 90 3e 60
        E 0 90 48 60
        E 0 90 4a 60
        E 0 90 54 60
        E 0 90 56 60
        E 0 90 60 60
        E 0 90 62 60
        E 120 80 18 00
        E 0 80 1f 00
        E 0 80 3e 00
        E 0 80 48 00
        E 0 80 4a 00
        E 0 80 54 00
        E 0 80 56 00
        E 0 80 60 00
        E 0 80 62 00
        E 360 90 1f 60
        E 0 90 3e 60
        E 0 90 4a 60
        E 0 90 56 60
        E 0 90 62 60
        E 120 80 1f 00
        E 0 80 3e 00
        E 0 80 4a 00
        E 0 80 56 00
        E 0 80 62 00
        E 120 90 18 60
        E 0 90 54 60
        E 0 90 60 60
        E 120 80 18 00
        E 0 80 54 00
        E 0 80 60 00
        E 120 90 1a 60
        E 0 90 1f 60
        E 0 90 3d 60
        E 0 90 3e 60
        E 0 90 49 60
        E 0 90 4a 60
        E 0 90 55 60
        E 0 90 56 60
        E 0 90 61 60
        E 0 90 62 60
        E 120 80 1a 00
        E 0 80 1f 00
        E 0 80 3d 00
        E 0 80 3e 00
        E 0 80 49 00
        E 0 80 4a 00
        E 0 80 55 00
        E 0 80 56 00
        E 0 80 61 00
        E 0 80 62 00
        E 360 90 1f 60
        E 0 90 3e 60
        E 0 90 4a 60
        E 0 90 56 60
        E 0 90 62 60
        E 120 80 1f 00
        E 0 80 3e 00
        E 0 80 4a 00
        E 0 80 56 00
        E 0 80 62 00
        E 120 90 18 60
        E 0 90 54 60
        E 0 90 60 60
        E 120 80 18 00
        E 0 80 54 00
        E 0 80 60 00
        E 120 90 18 60
        E 0 90 1f 60
        E 0 90 3e 60
        E 0 90 48 60
        E 0 90 4a 60
        E 0 90 54 60
        E 0 90 56 60
        E 0 90 60 60
        E 0 90 62 60
        E 0 90 78 60
        E 0 90 79 60
        E 0 90 7a 60
        E 0 90 7b 60
        E 0 90 7c 60
        E 120 80 18 00
        E 0 80 1f 00
        E 0 80 3e 00
        E 0 80 48 00
        E 0 80 4a 00
        E 0 80 54 00
        E 0 80 56 00
        E 0 80 60 00
        E 0 80 62 00
        E 360 90 1f 60
        E 0 90 3e 60
        E 0 90 4a 60
        E 0 90 56 60
        E 0 90 62 60
        E 120 80 1f 00
        E 0 80 3e 00
        E 0 80 4a 00
        E 0 80 56 00
        E 0 80 62 00
        E 120 90 18 60
        E 0 90 54 60
        E 0 90 60 60
        E 120 80 18 00
        E 0 80 54 00
        E 0 80 60 00
        E 120 90 1a 60
        E 0 90 1f 60
        E 0 90 3d 60
        E 0 90 3e 60
        E 0 90 49 60
        E 0 90 4a 60
        E 0 90 55 60
        E 0 90 56 60
        E 0 90 61 60
        E 0 90 62 60
        E 120 80 1a 00
        E 0 80 1f 00
        E 0 80 3d 00
        E 0 80 3e 00
        E 0 80 49 00
        E 0 80 4a 00
        E 0 80 55 00
        E 0 80 56 00
        E 0 80 61 00
        E 0 80 62 00
        E 120 90 18 60
        E 0 90 54 60
        E 0 90 60 60
        E 120 80 18 00
        E 0 80 54 00
        E 0 80 60 00
        E 120 90 1f 60
        E 0 90 3e 60
        E 0 90 4a 60
        E 0 90 56 60
        E 0 90 62 60
        E 120 80 1f 00
        E 0 80 3e 00
        E 0 80 4a 00
        E 0 80 56 00
        E 0 80 62 00
        E 120 90 18 60
        E 0 90 54 60
        E 0 90 60 60
        E 120 80 18 00
        E 0 80 54 00
        E 0 80 60 00
        E 120 80 78 00
        E 0 80 79 00
        E 0 80 7a 00
        E 0 80 7b 00
        E 0 80 7c 00
        E 0 90 18 60
        E 0 90 1f 60
        E 0 90 3e 60
        E 0 90 48 60
        E 0 90 4a 60
        E 0 90 54 60
        E 0 90 56 60
        E 0 90 60 60
        E 0 90 62 60
        E 120 80 18 00
        E 0 80 1f 00
        E 0 80 3e 00
        E 0 80 48 00
        E 0 80 4a 00
        E 0 80 54 00
        E 0 80 56 00
        E 0 80 60 00
        E 0 80 62 00
        E 360 90 1f 60
        E 0 90 3e 60
        E 0 90 4a 60
        E 0 90 56 60
        E 0 90 62 60
        E 120 80 1f 00
        E 0 80 3e 00
        E 0 80 4a 00
        E 0 80 56 00
        E 0 80 62 00
        E 360 90 1a 60
        E 0 90 1f 60
        E 0 90 3d 60
        E 0 90 3e 60
        E 0 90 49 60
        E 0 90 4a 60
        E 0 90 55 60
        E 0 90 56 60
        E 0 90 61 60
        E 0 90 62 60
        E 120 80 1a 00
        E 0 80 1f 00
        E 0 80 3d 00
        E 0 80 3e 00
        E 0 80 49 00
        E 0 80 4a 00
        E 0 80 55 00
        E 0 80 56 00
        E 0 80 61 00
        E 0 80 62 00
        E 360 90 1f 60
        E 0 90 3e 60
        E 0 90 4a 60
        E 0 90 56 60
        E 0 90 62 60
        E 120 80 1f 00
        E 0 80 3e 00
        E 0 80 4a 00
        E 0 80 56 00
        E 0 80 62 00
        E 120 90 18 60
        E 0 90 54 60
        E 0 90 60 60
        E 120 80 18 00
        E 0 80 54 00
        E 0 80 60 00
        E 120 90 18 60
        E 0 90 1f 60
        E 0 90 3e 60
        E 0 90 48 60
        E 0 90 4a 60
        E 0 90 54 60
        E 0 90 56 60
        E 0 90 60 60
        E 0 90 62 60
        E 120 80 18 00
        E 0 80 1f 00
        E 0 80 3e 00
        E 0 80 48 00
        E 0 80 4a 00
        E 0 80 54 00
        E 0 80 56 00
        E 0 80 60 00
        E 0 80 62 00
        E 360 90 1f 60
        E 0 90 3e 60
        E 0 90 4a 60
        E 0 90 56 60
        E 0 90 62 60
        E 120 80 1f 00
        E 0 80 3e 00
        E 0 80 4a 00
        E 0 80 56 00
        E 0 80 62 00
        E 360 90 1a 60
        E 0 90 1f 60
        E 0 90 3d 60
        E 0 90 3e 60
        E 0 90 49 60
        E 0 90 4a 60
        E 0 90 55 60
        E 0 90 56 60
        E 0 90 61 60
        E 0 90 62 60
        E 120 80 1a 00
        E 0 80 1f 00
        E 0 80 3d 00
        E 0 80 3e 00
        E 0 80 49 00
        E 0 80 4a 00
        E 0 80 55 00
        E 0 80 56 00
        E 0 80 61 00
        E 0 80 62 00
        E 360 90 1f 60
        E 0 90 3e 60
        E 0 90 4a 60
        E 0 90 56 60
        E 0 90 62 60
        E 120 80 1f 00
        E 0 80 3e 00
        E 0 80 4a 00
        E 0 80 56 00
        E 0 80 62 00
        E 120 90 18 60
        E 0 90 54 60
        E 0 90 60 60
        E 120 80 18 00
        E 0 80 54 00
        E 0 80 60 00
        E 120 90 18 60
        E 0 90 1f 60
        E 0 90 3e 60
        E 0 90 48 60
        E 0 90 4a 60
        E 0 90 54 60
        E 0 90 56 60
        E 0 90 60 60
        E 0 90 62 60
        E 120 80 18 00
        E 0 80 1f 00
        E 0 80 3e 00
        E 0 80 48 00
        E 0 80 4a 00
        E 0 80 54 00
        E 0 80 56 00
        E 0 80 60 00
        E 0 80 62 00
        E 360 90 1f 60
        E 0 90 3e 60
        E 0 90 4a 60
        E 0 90 56 60
        E 0 90 62 60
        E 120 80 1f 00
        E 0 80 3e 00
        E 0 80 4a 00
        E 0 80 56 00
        E 0 80 62 00
        E 360 90 1a 60
        E 0 90 1f 60
        E 0 90 3d 60
        E 0 90 3e 60
        E 0 90 49 60
        E 0 90 4a 60
        E 0 90 55 60
        E 0 90 56 60
        E 0 90 61 60
        E 0 90 62 60
        E 120 80 1a 00
        E 0 80 1f 00
        E 0 80 3d 00
        E 0 80 3e 00
        E 0 80 49 00
        E 0 80 4a 00
        E 0 80 55 00
        E 0 80 56 00
        E 0 80 61 00
        E 0 80 62 00
        E 360 90 1f 60
        E 0 90 3e 60
        E 0 90 4a 60
        E 0 90 56 60
        E 0 90 62 60
        E 120 80 1f 00
        E 0 80 3e 00
        E 0 80 4a 00
        E 0 80 56 00
        E 0 80 62 00
        E 120 90 18 60
        E 0 90 54 60
        E 0 90 60 60
        E 120 80 18 00
        E 0 80 54 00
        E 0 80 60 00
        E 120 90 18 60
        E 0 90 1f 60
        E 0 90 3e 60
        E 0 90 48 60
        E 0 90 4a 60
        E 0 90 54 60
        E 0 90 56 60
        E 0 90 60 60
        E 0 90 62 60
        E 0 90 78 60
        E 0 90 79 60
        E 0 90 7a 60
        E 0 90 7b 60
        E 0 90 7c 60
        E 120 80 18 00
        E 0 80 1f 00
        E 0 80 3e 00
        E 0 80 48 00
        E 0 80 4a 00
        E 0 80 54 00
        E 0 80 56 00
        E 0 80 60 00
        E 0 80 62 00
        E 120 90 18 60
        E 0 90 54 60
        E 0 90 60 60
        E 120 80 18 00
        E 0 80 54 00
        E 0 80 60 00
        E 120 90 1f 60
        E 0 90 3e 60
        E 0 90 4a 60
        E 0 90 56 60
        E 0 90 62 60
        E 120 80 1f 00
        E 0 80 3e 00
        E 0 80 4a 00
        E 0 80 56 00
        E 0 80 62 00
        E 120 90 18 60
        E 0 90 54 60
        E 0 90 60 60
        E 120 80 18 00
        E 0 80 54 00
        E 0 80 60 00
        E 120 90 1a 60
        E 0 90 1f 60
        E 0 90 3d 60
        E 0 90 3e 60
        E 0 90 49 60
        E 0 90 4a 60
        E 0 90 55 60
        E 0 90 56 60
        E 0 90 61 60
        E 0 90 62 60
        E 120 80 1a 00
        E 0 80 1f 00
        E 0 80 3d 00
        E 0 80 3e 00
        E 0 80 49 00
        E 0 80 4a 00
        E 0 80 55 00
        E 0 80 56 00
        E 0 80 61 00
        E 0 80 62 00
        E 360 90 1f 60
        E 0 90 3e 60
        E 0 90 4a 60
        E 0 90 56 60
        E 0 90 62 60
        E 120 80 1f 00
        E 0 80 3e 00
        E 0 80 4a 00
        E 0 80 56 00
        E 0 80 62 00
        E 120 90 18 60
        E 0 90 54 60
        E 0 90 60 60
        E 120 80 18 00
        E 0 80 54 00
        E 0 80 60 00
        E 120 80 78 00
        E 0 80 79 00
        E 0 80 7a 00
        E 0 80 7b 00
        E 0 80 7c 00
        E 0 90 18 60
        E 0 90 1f 60
        E 0 90 3e 60
        E 0 90 48 60
        E 0 90 4a 60
        E 0 90 54 60
        E 0 90 56 60
        E 0 90 60 60
        E 0 90 62 60
        E 120 80 18 00
        E 0 80 1f 00
        E 0 80 3e 00
        E 0 80 48 00
        E 0 80 4a 00
        E 0 80 54 00
        E 0 80 56 00
        E 0 80 60 00
        E 0 80 62 00
        E 360 90 1f 60
        E 0 90 3e 60
        E 0 90 4a 60
        E 0 90 56 60
        E 0 90 62 60
        E 120 80 1f 00
        E 0 80 3e 00
        E 0 80 4a 00
        E 0 80 56 00
        E 0 80 62 00
        E 360 90 1a 60
        E 0 90 1f 60
        E 0 90 3d 60
        E 0 90 3e 60
        E 0 90 49 60
        E 0 90 4a 60
        E 0 90 55 60
        E 0 90 56 60
        E 0 90 61 60
        E 0 90 62 60
        E 120 80 1a 00
        E 0 80 1f 00
        E 0 80 3d 00
        E 0 80 3e 00
        E 0 80 49 00
        E 0 80 4a 00
        E 0 80 55 00
        E 0 80 56 00
        E 0 80 61 00
        E 0 80 62 00
        E 360 90 1f 60
        E 0 90 3e 60
        E 0 90 4a 60
        E 0 90 56 60
        E 0 90 62 60
        E 120 80 1f 00
        E 0 80 3e 00
        E 0 80 4a 00
        E 0 80 56 00
        E 0 80 62 00
        E 120 90 18 60
        E 0 90 54 60
        E 0 90 60 60
        E 120 80 18 00
        E 0 80 54 00
        E 0 80 60 00
        E 120 90 18 60
        E 0 90 1f 60
        E 0 90 3e 60
        E 0 90 48 60
        E 0 90 4a 60
        E 0 90 54 60
        E 0 90 56 60
        E 0 90 60 60
        E 0 90 62 60
        E 120 80 18 00
        E 0 80 1f 00
        E 0 80 3e 00
        E 0 80 48 00
        E 0 80 4a 00
        E 0 80 54 00
        E 0 80 56 00
        E 0 80 60 00
        E 0 80 62 00
        E 360 90 1f 60
        E 0 90 3e 60
        E 0 90 4a 60
        E 0 90 56 60
        E 0 90 62 60
        E 120 80 1f 00
        E 0 80 3e 00
        E 0 80 4a 00
        E 0 80 56 00
        E 0 80 62 00
        E 360 90 1a 60
        E 0 90 1f 60
        E 0 90 3d 60
        E 0 90 3e 60
        E 0 90 49 60
        E 0 90 4a 60
        E 0 90 55 60
        E 0 90 56 60
        E 0 90 61 60
        E 0 90 62 60
        E 120 80 1a 00
        E 0 80 1f 00
        E 0 80 3d 00
        E 0 80 3e 00
        E 0 80 49 00
        E 0 80 4a 00
        E 0 80 55 00
        E 0 80 56 00
        E 0 80 61 00
        E 0 80 62 00
        E 360 90 1f 60
        E 0 90 3e 60
        E 0 90 4a 60
        E 0 90 56 60
        E 0 90 62 60
        E 120 80 1f 00
        E 0 80 3e 00
        E 0 80 4a 00
        E 0 80 56 00
        E 0 80 62 00
        E 120 90 18 60
        E 0 90 54 60
        E 0 90 60 60
        E 120 80 18 00
        E 0 80 54 00
        E 0 80 60 00
        E 120 90 18 60
        E 0 90 1f 60
        E 0 90 3e 60
        E 0 90 48 60
        E 0 90 4a 60
        E 0 90 54 60
        E 0 90 56 60
        E 0 90 60 60
        E 0 90 62 60
        E 120 80 18 00
        E 0 80 1f 00
        E 0 80 3e 00
        E 0 80 48 00
        E 0 80 4a 00
        E 0 80 54 00
        E 0 80 56 00
        E 0 80 60 00
        E 0 80 62 00
        E 360 90 1f 60
        E 0 90 3e 60
        E 0 90 4a 60
        E 0 90 56 60
        E 0 90 62 60
        E 120 80 1f 00
        E 0 80 3e 00
        E 0 80 4a 00
        E 0 80 56 00
        E 0 80 62 00
        E 120 90 18 60
        E 0 90 54 60
        E 0 90 60 60
        E 120 80 18 00
        E 0 80 54 00
        E 0 80 60 00
        E 120 90 1a 60
        E 0 90 1f 60
        E 0 90 3d 60
        E 0 90 3e 60
        E 0 90 49 60
        E 0 90 4a 60
        E 0 90 55 60
        E 0 90 56 60
        E 0 90 61 60
        E 0 90 62 60
        E 120 80 1a 00
        E 0 80 1f 00
        E 0 80 3d 00
        E 0 80 3e 00
        E 0 80 49 00
        E 0 80 4a 00
        E 0 80 55 00
        E 0 80 56 00
        E 0 80 61 00
        E 0 80 62 00
        E 360 90 1f 60
        E 0 90 3e 60
        E 0 90 4a 60
        E 0 90 56 60
        E 0 90 62 60
        E 120 80 1f 00
        E 0 80 3e 00
        E 0 80 4a 00
        E 0 80 56 00
        E 0 80 62 00
        E 120 90 18 60
        E 0 90 54 60
        E 0 90 60 60
        E 120 80 18 00
        E 0 80 54 00
        E 0 80 60 00
        E 120 90 18 60
        E 0 90 1f 60
        E 0 90 3e 60
        E 0 90 48 60
        E 0 90 4a 60
        E 0 90 54 60
        E 0 90 56 60
        E 0 90 60 60
        E 0 90 62 60
        E 0 90 74 60
        E 120 80 18 00
        E 0 80 1f 00
        E 0 80 3e 00
        E 0 80 48 00
        E 0 80 4a 00
        E 0 80 54 00
        E 0 80 56 00
        E 0 80 60 00
        E 0 80 62 00
        E 360 90 1f 60
        E 0 90 3e 60
        E 0 90 4a 60
        E 0 90 56 60
        E 0 90 62 60
        E 120 80 1f 00
        E 0 80 3e 00
        E 0 80 4a 00
        E 0 80 56 00
        E 0 80 62 00
        E 120 90 18 60
        E 0 90 54 60
        E 0 90 60 60
        E 120 80 18 00
        E 0 80 54 00
        E 0 80 60 00
        E 120 90 1a 60
        E 0 90 1f 60
        E 0 90 3d 60
        E 0 90 3e 60
        E 0 90 49 60
        E 0 90 4a 60
        E 0 90 55 60
        E 0 90 56 60
        E 0 90 61 60
        E 0 90 62 60
        E 120 80 1a 00
        E 0 80 1f 00
        E 0 80 3d 00
        E 0 80 3e 00
        E 0 80 49 00
        E 0 80 4a 00
        E 0 80 55 00
        E 0 80 56 00
        E 0 80 61 00
        E 0 80 62 00
        E 360 90 1a 60
        E 0 90 3d 60
        E 0 90 49 60
        E 0 90 55 60
        E 0 90 61 60
        E 120 80 1a 00
        E 0 80 3d 00
        E 0 80 49 00
        E 0 80 55 00
        E 0 80 61 00
        E 120 90 1a 60
        E 0 90 55 60
        E 0 90 61 60
        E 120 80 1a 00
        E 0 80 55 00
        E 0 80 61 00
        E 120 80 74 00
        E 0 90 18 60
        E 0 90 1f 60
        E 0 90 3e 60
        E 0 90 48 60
        E 0 90 4a 60
        E 0 90 54 60
        E 0 90 56 60
        E 0 90 60 60
        E 0 90 62 60
        E 120 80 18 00
        E 0 80 1f 00
        E 0 80 3e 00
        E 0 80 48 00
        E 0 80 4a 00
        E 0 80 54 00
        E 0 80 56 00
        E 0 80 60 00
        E 0 80 62 00
        E 360 90 1f 60
        E 0 90 3e 60
        E 0 90 4a 60
        E 0 90 56 60
        E 0 90 62 60
        E 120 80 1f 00
        E 0 80 3e 00
        E 0 80 4a 00
        E 0 80 56 00
        E 0 80 62 00
        E 360 90 1a 60
        E 0 90 1f 60
        E 0 90 3d 60
        E 0 90 3e 60
        E 0 90 49 60
        E 0 90 4a 60
        E 0 90 55 60
        E 0 90 56 60
        E 0 90 61 60
        E 0 90 62 60
        E 120 80 1a 00
        E 0 80 1f 00
        E 0 80 3d 00
        E 0 80 3e 00
        E 0 80 49 00
        E 0 80 4a 00
        E 0 80 55 00
        E 0 80 56 00
        E 0 80 61 00
        E 0 80 62 00
        E 360 90 1f 60
        E 0 90 3e 60
        E 0 90 4a 60
        E 0 90 56 60
        E 0 90 62 60
        E 120 80 1f 00
        E 0 80 3e 00
        E 0 80 4a 00
        E 0 80 56 00
        E 0 80 62 00
        E 120 90 18 60
        E 0 90 54 60
        E 0 90 60 60
        E 120 80 18 00
        E 0 80 54 00
        E 0 80 60 00
        E 120 90 18 60
        E 0 90 1f 60
        E 0 90 3e 60
        E 0 90 48 60
        E 0 90 4a 60
        E 0 90 54 60
        E 0 90 56 60
        E 0 90 60 60
        E 0 90 62 60
        E 120 80 18 00
        E 0 80 1f 00
        E 0 80 3e 00
        E 0 80 48 00
        E 0 80 4a 00
        E 0 80 54 00
        E 0 80 56 00
        E 0 80 60 00
        E 0 80 62 00
        E 360 90 1f 60
        E 0 90 3e 60
        E 0 90 4a 60
        E 0 90 56 60
        E 0 90 62 60
        E 120 80 1f 00
        E 0 80 3e 00
        E 0 80 4a 00
        E 0 80 56 00
        E 0 80 62 00
        E 360 90 1a 60
        E 0 90 1f 60
        E 0 90 3d 60
        E 0 90 3e 60
        E 0 90 49 60
        E 0 90 4a 60
        E 0 90 55 60
        E 0 90 56 60
        E 0 90 61 60
        E 0 90 62 60
        E 120 80 1a 00
        E 0 80 1f 00
        E 0 80 3d 00
        E 0 80 3e 00
        E 0 80 49 00
        E 0 80 4a 00
        E 0 80 55 00
        E 0 80 56 00
        E 0 80 61 00
        E 0 80 62 00
        E 360 90 1f 60
        E 0 90 3e 60
        E 0 90 4a 60
        E 0 90 56 60
        E 0 90 62 60
        E 120 80 1f 00
        E 0 80 3e 00
        E 0 80 4a 00
        E 0 80 56 00
        E 0 80 62 00
        E 120 90 18 60
        E 0 90 54 60
        E 0 90 60 60
        E 120 80 18 00
        E 0 80 54 00
        E 0 80 60 00
        E 120 90 18 60
        E 0 90 1f 60
        E 0 90 3e 60
        E 0 90 48 60
        E 0 90 4a 60
        E 0 90 54 60
        E 0 90 56 60
        E 0 90 60 60
        E 0 90 62 60
        E 120 80 18 00
        E 0 80 1f 00
        E 0 80 3e 00
        E 0 80 48 00
        E 0 80 4a 00
        E 0 80 54 00
        E 0 80 56 00
        E 0 80 60 00
        E 0 80 62 00
        E 360 90 1f 60
        E 0 90 3e 60
        E 0 90 4a 60
        E 0 90 56 60
        E 0 90 62 60
        E 120 80 1f 00
        E 0 80 3e 00
        E 0 80 4a 00
        E 0 80 56 00
        E 0 80 62 00
        E 120 90 18 60
        E 0 90 54 60
        E 0 90 60 60
        E 120 80 18 00
        E 0 80 54 00
        E 0 80 60 00
        E 120 90 1a 60
        E 0 90 1f 60
        E 0 90 3d 60
        E 0 90 3e 60
        E 0 90 49 60
        E 0 90 4a 60
        E 0 90 55 60
        E 0 90 56 60
        E 0 90 61 60
        E 0 90 62 60
        E 120 80 1a 00
        E 0 80 1f 00
        E 0 80 3d 00
        E 0 80 3e 00
        E 0 80 49 00
        E 0 80 4a 00
        E 0 80 55 00
        E 0 80 56 00
        E 0 80 61 00
        E 0 80 62 00
        E 360 90 1f 60
        E 0 90 3e 60
        E 0 90 4a 60
        E 0 90 56 60
        E 0 90 62 60
        E 120 80 1f 00
        E 0 80 3e 00
        E 0 80 4a 00
        E 0 80 56 00
        E 0 80 62 00
        E 120 90 18 60
        E 0 90 54 60
        E 0 90 60 60
        E 120 80 18 00
        E 0 80 54 00
        E 0 80 60 00
        E 120 90 18 60
        E 0 90 1f 60
        E 0 90 3e 60
        E 0 90 48 60
        E 0 90 4a 60
        E 0 90 54 60
        E 0 90 56 60
        E 0 90 60 60
        E 0 90 62 60
        E 0 90 78 60
        E 0 90 79 60
        E 0 90 7a 60
        E 0 90 7b 60
        E 0 90 7c 60
        E 120 80 18 00
        E 0 80 1f 00
        E 0 80 3e 00
        E 0 80 48 00
        E 0 80 4a 00
        E 0 80 54 00
        E 0 80 56 00
        E 0 80 60 00
        E 0 80 62 00
        E 360 90 1f 60
        E 0 90 3e 60
        E 0 90 4a 60
        E 0 90 56 60
        E 0 90 62 60
        E 120 80 1f 00
        E 0 80 3e 00
        E 0 80 4a 00
        E 0 80 56 00
        E 0 80 62 00
        E 360 90 1a 60
        E 0 90 1f 60
        E 0 90 3d 60
        E 0 90 3e 60
        E 0 90 49 60
        E 0 90 4a 60
        E 0 90 55 60
        E 0 90 56 60
        E 0 90 61 60
        E 0 90 62 60
        E 120 80 1a 00
        E 0 80 1f 00
        E 0 80 3d 00
        E 0 80 3e 00
        E 0 80 49 00
        E 0 80 4a 00
        E 0 80 55 00
        E 0 80 56 00
        E 0 80 61 00
        E 0 80 62 00
        E 120 90 18 60
        E 0 90 54 60
        E 0 90 60 60
        E 120 80 18 00
        E 0 80 54 00
        E 0 80 60 00
        E 120 90 1f 60
        E 0 90 3e 60
        E 0 90 4a 60
        E 0 90 56 60
        E 0 90 62 60
        E 120 80 1f 00
        E 0 80 3e 00
        E 0 80 4a 00
        E 0 80 56 00
        E 0 80 62 00
        E 120 90 18 60
        E 0 90 54 60
        E 0 90 60 60
        E 120 80 18 00
        E 0 80 54 00
        E 0 80 60 00
        E 120 80 78 00
        E 0 80 79 00
        E 0 80 7a 00
        E 0 80 7b 00
        E 0 80 7c 00
        E 0 90 18 60
        E 0 90 1f 60
        E 0 90 3e 60
        E 0 90 48 60
        E 0 90 4a 60
        E 0 90 54 60
        E 0 90 56 60
        E 0 90 60 60
        E 0 90 62 60
        E 120 80 18 00
        E 0 80 1f 00
        E 0 80 3e 00
        E 0 80 48 00
        E 0 80 4a 00
        E 0 80 54 00
        E 0 80 56 00
        E 0 80 60 00
        E 0 80 62 00
        E 360 90 1f 60
        E 0 90 3e 60
        E 0 90 4a 60
        E 0 90 56 60
        E 0 90 62 60
        E 120 80 1f 00
        E 0 80 3e 00
        E 0 80 4a 00
        E 0 80 56 00
        E 0 80 62 00
        E 120 90 18 60
        E 0 90 54 60
        E 0 90 60 60
        E 120 80 18 00
        E 0 80 54 00
        E 0 80 60 00
        E 120 90 1a 60
        E 0 90 1f 60
        E 0 90 3d 60
        E 0 90 3e 60
        E 0 90 49 60
        E 0 90 4a 60
        E 0 90 55 60
        E 0 90 56 60
        E 0 90 61 60
        E 0 90 62 60
        E 120 80 1a 00
        E 0 80 1f 00
        E 0 80 3d 00
        E 0 80 3e 00
        E 0 80 49 00
        E 0 80 4a 00
        E 0 80 55 00
        E 0 80 56 00
        E 0 80 61 00
        E 0 80 62 00
        E 360 90 1f 60
        E 0 90 3e 60
        E 0 90 4a 60
        E 0 90 56 60
        E 0 90 62 60
        E 120 80 1f 00
        E 0 80 3e 00
        E 0 80 4a 00
        E 0 80 56 00
        E 0 80 62 00
        E 120 90 18 60
        E 0 90 54 60
        E 0 90 60 60
        E 120 80 18 00
        E 0 80 54 00
        E 0 80 60 00
        E 120 90 18 60
        E 0 90 1f 60
        E 0 90 3e 60
        E 0 90 48 60
        E 0 90 4a 60
        E 0 90 54 60
        E 0 90 56 60
        E 0 90 60 60
        E 0 90 62 60
        E 120 80 18 00
        E 0 80 1f 00
        E 0 80 3e 00
        E 0 80 48 00
        E 0 80 4a 00
        E 0 80 54 00
        E 0 80 56 00
        E 0 80 60 00
        E 0 80 62 00
        E 360 90 1f 60
        E 0 90 3e 60
        E 0 90 4a 60
        E 0 90 56 60
        E 0 90 62 60
        E 120 80 1f 00
        E 0 80 3e 00
        E 0 80 4a 00
        E 0 80 56 00
        E 0 80 62 00
        E 120 90 18 60
        E 0 90 54 60
        E 0 90 60 60
        E 120 80 18 00
        E 0 80 54 00
        E 0 80 60 00
        E 120 90 1a 60
        E 0 90 1f 60
        E 0 90 3d 60
        E 0 90 3e 60
        E 0 90 49 60
        E 0 90 4a 60
        E 0 90 55 60
        E 0 90 56 60
        E 0 90 61 60
        E 0 90 62 60
        E 120 80 1a 00
        E 0 80 1f 00
        E 0 80 3d 00
        E 0 80 3e 00
        E 0 80 49 00
        E 0 80 4a 00
        E 0 80 55 00
        E 0 80 56 00
        E 0 80 61 00
        E 0 80 62 00
        E 360 90 1f 60
        E 0 90 3e 60
        E 0 90 4a 60
        E 0 90 56 60
        E 0 90 62 60
        E 120 80 1f 00
        E 0 80 3e 00
        E 0 80 4a 00
        E 0 80 56 00
        E 0 80 62 00
        E 120 90 18 60
        E 0 90 54 60
        E 0 90 60 60
        E 120 80 18 00
        E 0 80 54 00
        E 0 80 60 00
        E 120 90 18 60
        E 0 90 1f 60
        E 0 90 3e 60
        E 0 90 48 60
        E 0 90 4a 60
        E 0 90 54 60
        E 0 90 56 60
        E 0 90 60 60
        E 0 90 62 60
        E 120 80 18 00
        E 0 80 1f 00
        E 0 80 3e 00
        E 0 80 48 00
        E 0 80 4a 00
        E 0 80 54 00
        E 0 80 56 00
        E 0 80 60 00
        E 0 80 62 00
        E 360 90 1f 60
        E 0 90 3e 60
        E 0 90 4a 60
        E 0 90 56 60
        E 0 90 62 60
        E 120 80 1f 00
        E 0 80 3e 00
        E 0 80 4a 00
        E 0 80 56 00
        E 0 80 62 00
        E 120 90 18 60
        E 0 90 54 60
        E 0 90 60 60
        E 120 80 18 00
        E 0 80 54 00
        E 0 80 60 00
        E 120 90 1a 60
        E 0 90 1f 60
        E 0 90 3d 60
        E 0 90 3e 60
        E 0 90 49 60
        E 0 90 4a 60
        E 0 90 55 60
        E 0 90 56 60
        E 0 90 61 60
        E 0 90 62 60
        E 120 80 1a 00
        E 0 80 1f 00
        E 0 80 3d 00
        E 0 80 3e 00
        E 0 80 49 00
        E 0 80 4a 00
        E 0 80 55 00
        E 0 80 56 00
        E 0 80 61 00
        E 0 80 62 00
        E 360 90 1f 60
        E 0 90 3e 60
        E 0 90 4a 60
        E 0 90 56 60
        E 0 90 62 60
        E 120 80 1f 00
        E 0 80 3e 00
        E 0 80 4a 00
        E 0 80 56 00
        E 0 80 62 00
        E 120 90 18 60
        E 0 90 54 60
        E 0 90 60 60
        E 120 80 18 00
        E 0 80 54 00
        E 0 80 60 00
        E 120 90 18 60
        E 0 90 1f 60
        E 0 90 3e 60
        E 0 90 48 60
        E 0 90 4a 60
        E 0 90 54 60
        E 0 90 56 60
        E 0 90 60 60
        E 0 90 62 60
        E 0 90 78 60
        E 0 90 79 60
        E 0 90 7a 60
        E 0 90 7b 60
        E 0 90 7c 60
        E 120 80 18 00
        E 0 80 1f 00
        E 0 80 3e 00
        E 0 80 48 00
        E 0 80 4a 00
        E 0 80 54 00
        E 0 80 56 00
        E 0 80 60 00
        E 0 80 62 00
        E 360 90 1f 60
        E 0 90 3e 60
        E 0 90 4a 60
        E 0 90 56 60
        E 0 90 62 60
        E 120 80 1f 00
        E 0 80 3e 00
        E 0 80 4a 00
        E 0 80 56 00
        E 0 80 62 00
        E 120 90 18 60
        E 0 90 54 60
        E 0 90 60 60
        E 120 80 18 00
        E 0 80 54 00
        E 0 80 60 00
        E 120 90 1a 60
        E 0 90 1f 60
        E 0 90 3d 60
        E 0 90 3e 60
        E 0 90 49 60
        E 0 90 4a 60
        E 0 90 55 60
        E 0 90 56 60
        E 0 90 61 60
        E 0 90 62 60
        E 120 80 1a 00
        E 0 80 1f 00
        E 0 80 3d 00
        E 0 80 3e 00
        E 0 80 49 00
        E 0 80 4a 00
        E 0 80 55 00
        E 0 80 56 00
        E 0 80 61 00
        E 0 80 62 00
        E 120 90 18 60
        E 0 90 54 60
        E 0 90 60 60
        E 120 80 18 00
        E 0 80 54 00
        E 0 80 60 00
        E 120 90 1a 60
        E 0 90 3d 60
        E 0 90 49 60
        E 0 90 55 60
        E 0 90 61 60
        E 120 80 1a 00
        E 0 80 3d 00
        E 0 80 49 00
        E 0 80 55 00
        E 0 80 61 00
        E 120 90 1a 60
        E 0 90 55 60
        E 0 90 61 60
        E 120 80 1a 00
        E 0 80 55 00
        E 0 80 61 00
        E 120 80 78 00
        E 0 80 79 00
        E 0 80 7a 00
        E 0 80 7b 00
        E 0 80 7c 00
        E 0 90 18 60
        E 0 90 1f 60
        E 0 90 3e 60
        E 0 90 48 60
        E 0 90 4a 60
        E 0 90 54 60
        E 0 90 56 60
        E 0 90 60 60
        E 0 90 62 60
        E 120 80 18 00
        E 0 80 1f 00
        E 0 80 3e 00
        E 0 80 48 00
        E 0 80 4a 00
        E 0 80 54 00
        E 0 80 56 00
        E 0 80 60 00
        E 0 80 62 00
        E 360 90 1f 60
        E 0 90 3e 60
        E 0 90 4a 60
        E 0 90 56 60
        E 0 90 62 60
        E 120 80 1f 00
        E 0 80 3e 00
        E 0 80 4a 00
        E 0 80 56 00
        E 0 80 62 00
        E 120 90 18 60
        E 0 90 54 60
        E 0 90 60 60
        E 120 80 18 00
        E 0 80 54 00
        E 0 80 60 00
        E 120 90 1a 60
        E 0 90 1f 60
        E 0 90 3d 60
        E 0 90 3e 60
        E 0 90 49 60
        E 0 90 4a 60
        E 0 90 55 60
        E 0 90 56 60
        E 0 90 61 60
        E 0 90 62 60
        E 120 80 1a 00
        E 0 80 1f 00
        E 0 80 3d 00
        E 0 80 3e 00
        E 0 80 49 00
        E 0 80 4a 00
        E 0 80 55 00
        E 0 80 56 00
        E 0 80 61 00
        E 0 80 62 00
        E 360 90 1f 60
        E 0 90 3e 60
        E 0 90 4a 60
        E 0 90 56 60
        E 0 90 62 60
        E 120 80 1f 00
        E 0 80 3e 00
        E 0 80 4a 00
        E 0 80 56 00
        E 0 80 62 00
        E 120 90 18 60
        E 0 90 54 60
        E 0 90 60 60
        E 120 80 18 00
        E 0 80 54 00
        E 0 80 60 00
        E 120 90 18 60
        E 0 90 1f 60
        E 0 90 3e 60
        E 0 90 48 60
        E 0 90 4a 60
        E 0 90 54 60
        E 0 90 56 60
        E 0 90 60 60
        E 0 90 62 60
        E 120 80 18 00
        E 0 80 1f 00
        E 0 80 3e 00
        E 0 80 48 00
        E 0 80 4a 00
        E 0 80 54 00
        E 0 80 56 00
        E 0 80 60 00
        E 0 80 62 00
        E 360 90 1f 60
        E 0 90 3e 60
        E 0 90 4a 60
        E 0 90 56 60
        E 0 90 62 60
        E 120 80 1f 00
        E 0 80 3e 00
        E 0 80 4a 00
        E 0 80 56 00
        E 0 80 62 00
        E 360 90 1a 60
        E 0 90 1f 60
        E 0 90 3d 60
        E 0 90 3e 60
        E 0 90 49 60
        E 0 90 4a 60
        E 0 90 55 60
        E 0 90 56 60
        E 0 90 61 60
        E 0 90 62 60
        E 120 80 1a 00
        E 0 80 1f 00
        E 0 80 3d 00
        E 0 80 3e 00
        E 0 80 49 00
        E 0 80 4a 00
        E 0 80 55 00
        E 0 80 56 00
        E 0 80 61 00
        E 0 80 62 00
        E 120 90 18 60
        E 0 90 54 60
        E 0 90 60 60
        E 120 80 18 00
        E 0 80 54 00
        E 0 80 60 00
        E 120 90 1f 60
        E 0 90 3e 60
        E 0 90 4a 60
        E 0 90 56 60
        E 0 90 62 60
        E 120 80 1f 00
        E 0 80 3e 00
        E 0 80 4a 00
        E 0 80 56 00
        E 0 80 62 00
        E 120 90 18 60
        E 0 90 54 60
        E 0 90 60 60
        E 120 80 18 00
        E 0 80 54 00
        E 0 80 60 00
        E 120 90 18 60
        E 0 90 1f 60
        E 0 90 3e 60
        E 0 90 48 60
        E 0 90 4a 60
        E 0 90 54 60
        E 0 90 56 60
        E 0 90 60 60
        E 0 90 62 60
        E 120 80 18 00
        E 0 80 1f 00
        E 0 80 3e 00
        E 0 80 48 00
        E 0 80 4a 00
        E 0 80 54 00
        E 0 80 56 00
        E 0 80 60 00
        E 0 80 62 00
        E 360 90 1f 60
        E 0 90 3e 60
        E 0 90 4a 60
        E 0 90 56 60
        E 0 90 62 60
        E 120 80 1f 00
        E 0 80 3e 00
        E 0 80 4a 00
        E 0 80 56 00
        E 0 80 62 00
        E 120 90 18 60
        E 0 90 54 60
        E 0 90 60 60
        E 120 80 18 00
        E 0 80 54 00
        E 0 80 60 00
        E 120 90 1a 60
        E 0 90 1f 60
        E 0 90 3d 60
        E 0 90 3e 60
        E 0 90 49 60
        E 0 90 4a 60
        E 0 90 55 60
        E 0 90 56 60
        E 0 90 61 60
        E 0 90 62 60
        E 120 80 1a 00
        E 0 80 1f 00
        E 0 80 3d 00
        E 0 80 3e 00
        E 0 80 49 00
        E 0 80 4a 00
        E 0 80 55 00
        E 0 80 56 00
        E 0 80 61 00
        E 0 80 62 00
        E 360 90 1f 60
        E 0 90 3e 60
        E 0 90 4a 60
        E 0 90 56 60
        E 0 90 62 60
        E 120 80 1f 00
        E 0 80 3e 00
        E 0 80 4a 00
        E 0 80 56 00
        E 0 80 62 00
        E 120 90 18 60
        E 0 90 54 60
        E 0 90 60 60
        E 120 80 18 00
        E 0 80 54 00
        E 0 80 60 00
        E 120 90 18 60
        E 0 90 1f 60
        E 0 90 3e 60
        E 0 90 48 60
        E 0 90 4a 60
        E 0 90 54 60
        E 0 90 56 60
        E 0 90 60 60
        E 0 90 62 60
        E 0 90 78 60
        E 0 90 79 60
        E 0 90 7a 60
        E 0 90 7b 60
        E 0 90 7c 60
        E 120 80 18 00
        E 0 80 1f 00
        E 0 80 3e 00
        E 0 80 48 00
        E 0 80 4a 00
        E 0 80 54 00
        E 0 80 56 00
        E 0 80 60 00
        E 0 80 62 00
        E 360 90 1f 60
        E 0 90 3e 60
        E 0 90 4a 60
        E 0 90 56 60
        E 0 90 62 60
        E 120 80 1f 00
        E 0 80 3e 00
        E 0 80 4a 00
        E 0 80 56 00
        E 0 80 62 00
        E 120 90 18 60
        E 0 90 54 60
        E 0 90 60 60
        E 120 80 18 00
        E 0 80 54 00
        E 0 80 60 00
        E 120 90 1a 60
        E 0 90 1f 60
        E 0 90 3d 60
        E 0 90 3e 60
        E 0 90 49 60
        E 0 90 4a 60
        E 0 90 55 60
        E 0 90 56 60
        E 0 90 61 60
        E 0 90 62 60
        E 120 80 1a 00
        E 0 80 1f 00
        E 0 80 3d 00
        E 0 80 3e 00
        E 0 80 49 00
        E 0 80 4a 00
        E 0 80 55 00
        E 0 80 56 00
        E 0 80 61 00
        E 0 80 62 00
        E 360 90 1a 60
        E 0 90 1f 60
        E 0 90 3d 60
        E 0 90 3e 60
        E 0 90 49 60
        E 0 90 4a 60
        E 0 90 55 60
        E 0 90 56 60
        E 0 90 61 60
        E 0 90 62 60
        E 120 80 1a 00
        E 0 80 1f 00
        E 0 80 3d 00
        E 0 80 3e 00
        E 0 80 49 00
        E 0 80 4a 00
        E 0 80 55 00
        E 0 80 56 00
        E 0 80 61 00
        E 0 80 62 00
        E 120 90 18 60
        E 0 90 54 60
        E 0 90 60 60
        E 120 80 18 00
        E 0 80 54 00
        E 0 80 60 00
        E 120 80 78 00
        E 0 80 79 00
        E 0 80 7a 00
        E 0 80 7b 00
        E 0 80 7c 00
        E 0 90 18 60
        E 0 90 1f 60
        E 0 90 3e 60
        E 0 90 48 60
        E 0 90 4a 60
        E 0 90 54 60
        E 0 90 56 60
        E 0 90 60 60
        E 0 90 62 60
        E 120 80 18 00
        E 0 80 1f 00
        E 0 80 3e 00
        E 0 80 48 00
        E 0 80 4a 00
        E 0 80 54 00
        E 0 80 56 00
        E 0 80 60 00
        E 0 80 62 00
        E 360 90 1f 60
        E 0 90 3e 60
        E 0 90 4a 60
        E 0 90 56 60
        E 0 90 62 60
        E 120 80 1f 00
        E 0 80 3e 00
        E 0 80 4a 00
        E 0 80 56 00
        E 0 80 62 00
        E 360 90 1a 60
        E 0 90 1f 60
        E 0 90 3d 60
        E 0 90 3e 60
        E 0 90 49 60
        E 0 90 4a 60
        E 0 90 55 60
        E 0 90 56 60
        E 0 90 61 60
        E 0 90 62 60
        E 120 80 1a 00
        E 0 80 1f 00
        E 0 80 3d 00
        E 0 80 3e 00
        E 0 80 49 00
        E 0 80 4a 00
        E 0 80 55 00
        E 0 80 56 00
        E 0 80 61 00
        E 0 80 62 00
        E 360 90 1f 60
        E 0 90 3e 60
        E 0 90 4a 60
        E 0 90 56 60
        E 0 90 62 60
        E 120 80 1f 00
        E 0 80 3e 00
        E 0 80 4a 00
        E 0 80 56 00
        E 0 80 62 00
        E 120 90 18 60
        E 0 90 54 60
        E 0 90 60 60
        E 120 80 18 00
        E 0 80 54 00
        E 0 80 60 00
        E 120 90 18 60
        E 0 90 1f 60
        E 0 90 3e 60
        E 0 90 48 60
        E 0 90 4a 60
        E 0 90 54 60
        E 0 90 56 60
        E 0 90 60 60
        E 0 90 62 60
        E 120 80 18 00
        E 0 80 1f 00
        E 0 80 3e 00
        E 0 80 48 00
        E 0 80 4a 00
        E 0 80 54 00
        E 0 80 56 00
        E 0 80 60 00
        E 0 80 62 00
        E 360 90 1f 60
        E 0 90 3e 60
        E 0 90 4a 60
        E 0 90 56 60
        E 0 90 62 60
        E 120 80 1f 00
        E 0 80 3e 00
        E 0 80 4a 00
        E 0 80 56 00
        E 0 80 62 00
        E 120 90 18 60
        E 0 90 54 60
        E 0 90 60 60
        E 120 80 18 00
        E 0 80 54 00
        E 0 80 60 00
        E 120 90 1a 60
        E 0 90 1f 60
        E 0 90 3d 60
        E 0 90 3e 60
        E 0 90 49 60
        E 0 90 4a 60
        E 0 90 55 60
        E 0 90 56 60
        E 0 90 61 60
        E 0 90 62 60
        E 120 80 1a 00
        E 0 80 1f 00
        E 0 80 3d 00
        E 0 80 3e 00
        E 0 80 49 00
        E 0 80 4a 00
        E 0 80 55 00
        E 0 80 56 00
        E 0 80 61 00
        E 0 80 62 00
        E 360 90 1f 60
        E 0 90 3e 60
        E 0 90 4a 60
        E 0 90 56 60
        E 0 90 62 60
        E 120 80 1f 00
        E 0 80 3e 00
        E 0 80 4a 00
        E 0 80 56 00
        E 0 80 62 00
        E 120 90 18 60
        E 0 90 54 60
        E 0 90 60 60
        E 120 80 18 00
        E 0 80 54 00
        E 0 80 60 00
        E 120 90 18 60
        E 0 90 1f 60
        E 0 90 3e 60
        E 0 90 48 60
        E 0 90 4a 60
        E 0 90 54 60
        E 0 90 56 60
        E 0 90 60 60
        E 0 90 62 60
        E 120 80 18 00
        E 0 80 1f 00
        E 0 80 3e 00
        E 0 80 48 00
        E 0 80 4a 00
        E 0 80 54 00
        E 0 80 56 00
        E 0 80 60 00
        E 0 80 62 00
        E 360 90 1f 60
        E 0 90 3e 60
        E 0 90 4a 60
        E 0 90 56 60
        E 0 90 62 60
        E 120 80 1f 00
        E 0 80 3e 00
        E 0 80 4a 00
        E 0 80 56 00
        E 0 80 62 00
        E 120 90 18 60
        E 0 90 54 60
        E 0 90 60 60
        E 120 80 18 00
        E 0 80 54 00
        E 0 80 60 00
        E 120 90 1a 60
        E 0 90 1f 60
        E 0 90 3d 60
        E 0 90 3e 60
        E 0 90 49 60
        E 0 90 4a 60
        E 0 90 55 60
        E 0 90 56 60
        E 0 90 61 60
        E 0 90 62 60
        E 120 80 1a 00
        E 0 80 1f 00
        E 0 80 3d 00
        E 0 80 3e 00
        E 0 80 49 00
        E 0 80 4a 00
        E 0 80 55 00
        E 0 80 56 00
        E 0 80 61 00
        E 0 80 62 00
        E 360 90 1f 60
        E 0 90 3e 60
        E 0 90 4a 60
        E 0 90 56 60
        E 0 90 62 60
        E 120 80 1f 00
        E 0 80 3e 00
        E 0 80 4a 00
        E 0 80 56 00
        E 0 80 62 00
        E 120 90 18 60
        E 0 90 54 60
        E 0 90 60 60
        E 120 80 18 00
        E 0 80 54 00
        E 0 80 60 00
        E 120 90 18 60
        E 0 90 1f 60
        E 0 90 3e 60
        E 0 90 48 60
        E 0 90 4a 60
        E 0 90 54 60
        E 0 90 56 60
        E 0 90 60 60
        E 0 90 62 60
        E 0 90 78 60
        E 0 90 79 60
        E 0 90 7a 60
        E 0 90 7b 60
        E 0 90 7c 60
        E 120 80 18 00
        E 0 80 1f 00
        E 0 80 3e 00
        E 0 80 48 00
        E 0 80 4a 00
        E 0 80 54 00
        E 0 80 56 00
        E 0 80 60 00
        E 0 80 62 00
        E 360 90 1f 60
        E 0 90 3e 60
        E 0 90 4a 60
        E 0 90 56 60
        E 0 90 62 60
        E 120 80 1f 00
        E 0 80 3e 00
        E 0 80 4a 00
        E 0 80 56 00
        E 0 80 62 00
        E 120 90 18 60
        E 0 90 54 60
        E 0 90 60 60
        E 120 80 18 00
        E 0 80 54 00
        E 0 80 60 00
        E 120 90 1a 60
        E 0 90 1f 60
        E 0 90 3d 60
        E 0 90 3e 60
        E 0 90 49 60
        E 0 90 4a 60
        E 0 90 55 60
        E 0 90 56 60
        E 0 90 61 60
        E 0 90 62 60
        E 120 80 1a 00
        E 0 80 1f 00
        E 0 80 3d 00
        E 0 80 3e 00
        E 0 80 49 00
        E 0 80 4a 00
        E 0 80 55 00
        E 0 80 56 00
        E 0 80 61 00
        E 0 80 62 00
        E 360 90 1a 60
        E 0 90 3d 60
        E 0 90 49 60
        E 0 90 55 60
        E 0 90 61 60
        E 120 80 1a 00
        E 0 80 3d 00
        E 0 80 49 00
        E 0 80 55 00
        E 0 80 61 00
        E 120 90 19 60
        E 0 90 1a 60
        E 0 90 55 60
        E 0 90 61 60
        E 120 80 1a 00
        E 0 80 55 00
        E 0 80 61 00
        <X 120 0
          /wFbcGxheV0=
        >
        E 0 80 78 00
        E 0 80 79 00
        E 0 80 7a 00
        E 0 80 7b 00
        E 0 80 7c 00
        E 0 80 19 00
        E 0 90 18 60
        E 0 90 2a 60
        E 0 90 3f 60
        E 0 90 48 60
        E 0 90 4b 60
        E 0 90 54 60
        E 0 90 57 60
        E 0 90 60 60
        E 0 90 63 60
        E 120 80 18 00
        E 0 80 2a 00
        E 0 80 3f 00
        E 0 80 48 00
        E 0 80 4b 00
        E 0 80 54 00
        E 0 80 57 00
        E 0 80 60 00
        E 0 80 63 00
        E 360 90 2a 60
        E 0 90 3f 60
        E 0 90 4b 60
        E 0 90 57 60
        E 0 90 63 60
        E 120 80 2a 00
        E 0 80 3f 00
        E 0 80 4b 00
        E 0 80 57 00
        E 0 80 63 00
        E 120 90 19 60
        E 240 80 19 00
        E 0 90 1a 60
        E 0 90 2a 60
        E 0 90 3d 60
        E 0 90 3f 60
        E 0 90 49 60
        E 0 90 4b 60
        E 0 90 55 60
        E 0 90 57 60
        E 0 90 61 60
        E 0 90 63 60
        E 120 80 1a 00
        E 0 80 2a 00
        E 0 80 3d 00
        E 0 80 3f 00
        E 0 80 49 00
        E 0 80 4b 00
        E 0 80 55 00
        E 0 80 57 00
        E 0 80 61 00
        E 0 80 63 00
        E 360 90 2a 60
        E 0 90 3f 60
        E 0 90 4b 60
        E 0 90 57 60
        E 0 90 63 60
        E 120 80 2a 00
        E 0 80 3f 00
        E 0 80 4b 00
        E 0 80 57 00
        E 0 80 63 00
        E 120 90 18 60
        E 0 90 19 60
        E 0 90 54 60
        E 0 90 60 60
        E 120 80 18 00
        E 0 80 54 00
        E 0 80 60 00
        E 120 80 19 00
        E 0 90 18 60
        E 0 90 2a 60
        E 0 90 3f 60
        E 0 90 48 60
        E 0 90 4b 60
        E 0 90 54 60
        E 0 90 57 60
        E 0 90 60 60
        E 0 90 63 60
        E 120 80 18 00
        E 0 80 2a 00
        E 0 80 3f 00
        E 0 80 48 00
        E 0 80 4b 00
        E 0 80 54 00
        E 0 80 57 00
        E 0 80 60 00
        E 0 80 63 00
        E 360 90 18 60
        E 0 90 2a 60
        E 0 90 3f 60
        E 0 90 48 60
        E 0 90 4b 60
        E 0 90 54 60
        E 0 90 57 60
        E 0 90 60 60
        E 0 90 63 60
        E 120 80 18 00
        E 0 80 2a 00
        E 0 80 3f 00
        E 0 80 48 00
        E 0 80 4b 00
        E 0 80 54 00
        E 0 80 57 00
        E 0 80 60 00
        E 0 80 63 00
        E 120 90 19 60
        E 240 80 19 00
        E 0 90 1a 60
        E 0 90 2a 60
        E 0 90 3d 60
        E 0 90 3f 60
        E 0 90 49 60
        E 0 90 4b 60
        E 0 90 55 60
        E 0 90 57 60
        E 0 90 61 60
        E 0 90 63 60
        E 120 80 1a 00
        E 0 80 2a 00
        E 0 80 3d 00
        E 0 80 3f 00
        E 0 80 49 00
        E 0 80 4b 00
        E 0 80 55 00
        E 0 80 57 00
        E 0 80 61 00
        E 0 80 63 00
        E 360 90 2a 60
        E 0 90 3f 60
        E 0 90 4b 60
        E 0 90 57 60
        E 0 90 63 60
        E 120 80 2a 00
        E 0 80 3f 00
        E 0 80 4b 00
        E 0 80 57 00
        E 0 80 63 00
        E 120 90 18 60
        E 0 90 19 60
        E 0 90 54 60
        E 0 90 60 60
        E 120 80 18 00
        E 0 80 54 00
        E 0 80 60 00
        E 120 80 19 00
        E 0 90 18 60
        E 0 90 2a 60
        E 0 90 3f 60
        E 0 90 48 60
        E 0 90 4b 60
        E 0 90 54 60
        E 0 90 57 60
        E 0 90 60 60
        E 0 90 63 60
        E 120 80 18 00
        E 0 80 2a 00
        E 0 80 3f 00
        E 0 80 48 00
        E 0 80 4b 00
        E 0 80 54 00
        E 0 80 57 00
        E 0 80 60 00
        E 0 80 63 00
        E 360 90 2a 60
        E 0 90 3f 60
        E 0 90 4b 60
        E 0 90 57 60
        E 0 90 63 60
        E 120 80 2a 00
        E 0 80 3f 00
        E 0 80 4b 00
        E 0 80 57 00
        E 0 80 63 00
        E 120 90 19 60
        E 240 80 19 00
        E 0 90 1a 60
        E 0 90 2a 60
        E 0 90 3d 60
        E 0 90 3f 60
        E 0 90 49 60
        E 0 90 4b 60
        E 0 90 55 60
        E 0 90 57 60
        E 0 90 61 60
        E 0 90 63 60
        E 120 80 1a 00
        E 0 80 2a 00
        E 0 80 3d 00
        E 0 80 3f 00
        E 0 80 49 00
        E 0 80 4b 00
        E 0 80 55 00
        E 0 80 57 00
        E 0 80 61 00
        E 0 80 63 00
        E 360 90 2a 60
        E 0 90 3f 60
        E 0 90 4b 60
        E 0 90 57 60
        E 0 90 63 60
        E 120 80 2a 00
        E 0 80 3f 00
        E 0 80 4b 00
        E 0 80 57 00
        E 0 80 63 00
        E 120 90 18 60
        E 0 90 19 60
        E 0 90 54 60
        E 0 90 60 60
        E 120 80 18 00
        E 0 80 54 00
        E 0 80 60 00
        E 120 80 19 00
        E 0 90 2a 60
        E 0 90 3f 60
        E 0 90 4b 60
        E 0 90 57 60
        E 0 90 63 60
        E 0 90 78 60
        E 0 90 79 60
        E 0 90 7a 60
        E 0 90 7b 60
        E 0 90 7c 60
        E 120 80 2a 00
        E 0 80 3f 00
        E 0 80 4b 00
        E 0 80 57 00
        E 0 80 63 00
        E 120 90 18 60
        E 0 90 54 60
        E 0 90 60 60
        E 120 80 18 00
        E 0 80 54 00
        E 0 80 60 00
        E 120 90 2a 60
        E 0 90 3f 60
        E 0 90 4b 60
        E 0 90 57 60
        E 0 90 63 60
        E 120 80 2a 00
        E 0 80 3f 00
        E 0 80 4b 00
        E 0 80 57 00
        E 0 80 63 00
        E 120 90 18 60
        E 0 90 19 60
        E 0 90 54 60
        E 0 90 60 60
        E 120 80 18 00
        E 0 80 54 00
        E 0 80 60 00
        E 120 80 19 00
        E 0 90 1a 60
        E 0 90 2a 60
        E 0 90 3d 60
        E 0 90 3f 60
        E 0 90 49 60
        E 0 90 4b 60
        E 0 90 55 60
        E 0 90 57 60
        E 0 90 61 60
        E 0 90 63 60
        E 120 80 1a 00
        E 0 80 2a 00
        E 0 80 3d 00
        E 0 80 3f 00
        E 0 80 49 00
        E 0 80 4b 00
        E 0 80 55 00
        E 0 80 57 00
        E 0 80 61 00
        E 0 80 63 00
        E 360 90 2a 60
        E 0 90 3f 60
        E 0 90 4b 60
        E 0 90 57 60
        E 0 90 63 60
        E 120 80 2a 00
        E 0 80 3f 00
        E 0 80 4b 00
        E 0 80 57 00
        E 0 80 63 00
        E 120 90 18 60
        E 0 90 19 60
        E 0 90 54 60
        E 0 90 60 60
        E 120 80 18 00
        E 0 80 54 00
        E 0 80 60 00
        E 120 80 78 00
        E 0 80 79 00
        E 0 80 7a 00
        E 0 80 7b 00
        E 0 80 7c 00
        E 0 80 19 00
        E 0 90 18 60
        E 0 90 2a 60
        E 0 90 3f 60
        E 0 90 48 60
        E 0 90 4b 60
        E 0 90 54 60
        E 0 90 57 60
        E 0 90 60 60
        E 0 90 63 60
        E 0 90 74 60
        E 120 80 18 00
        E 0 80 2a 00
        E 0 80 3f 00
        E 0 80 48 00
        E 0 80 4b 00
        E 0 80 54 00
        E 0 80 57 00
        E 0 80 60 00
        E 0 80 63 00
        E 360 90 2a 60
        E 0 90 3f 60
        E 0 90 4b 60
        E 0 90 57 60
        E 0 90 63 60
        E 120 80 2a 00
        E 0 80 3f 00
        E 0 80 4b 00
        E 0 80 57 00
        E 0 80 63 00
        E 120 90 18 60
        E 0 90 19 60
        E 0 90 54 60
        E 0 90 60 60
        E 120 80 18 00
        E 0 80 54 00
        E 0 80 60 00
        E 120 80 19 00
        E 0 90 1a 60
        E 0 90 2a 60
        E 0 90 3d 60
        E 0 90 3f 60
        E 0 90 49 60
        E 0 90 4b 60
        E 0 90 55 60
        E 0 90 57 60
        E 0 90 61 60
        E 0 90 63 60
        E 120 80 1a 00
        E 0 80 2a 00
        E 0 80 3d 00
        E 0 80 3f 00
        E 0 80 49 00
        E 0 80 4b 00
        E 0 80 55 00
        E 0 80 57 00
        E 0 80 61 00
        E 0 80 63 00
        E 360 90 2a 60
        E 0 90 3f 60
        E 0 90 4b 60
        E 0 90 57 60
        E 0 90 63 60
        E 120 80 2a 00
        E 0 80 3f 00
        E 0 80 4b 00
        E 0 80 57 00
        E 0 80 63 00
        E 120 90 18 60
        E 0 90 19 60
        E 0 90 54 60
        E 0 90 60 60
        E 120 80 18 00
        E 0 80 54 00
        E 0 80 60 00
        E 120 80 19 00
        E 0 90 18 60
        E 0 90 2a 60
        E 0 90 3f 60
        E 0 90 48 60
        E 0 90 4b 60
        E 0 90 54 60
        E 0 90 57 60
        E 0 90 60 60
        E 0 90 63 60
        E 120 80 18 00
        E 0 80 2a 00
        E 0 80 3f 00
        E 0 80 48 00
        E 0 80 4b 00
        E 0 80 54 00
        E 0 80 57 00
        E 0 80 60 00
        E 0 80 63 00
        E 360 90 18 60
        E 0 90 2a 60
        E 0 90 3f 60
        E 0 90 48 60
        E 0 90 4b 60
        E 0 90 54 60
        E 0 90 57 60
        E 0 90 60 60
        E 0 90 63 60
        E 120 80 18 00
        E 0 80 2a 00
        E 0 80 3f 00
        E 0 80 48 00
        E 0 80 4b 00
        E 0 80 54 00
        E 0 80 57 00
        E 0 80 60 00
        E 0 80 63 00
        E 120 90 19 60
        E 240 80 19 00
        E 0 90 1a 60
        E 0 90 2a 60
        E 0 90 3d 60
        E 0 90 3f 60
        E 0 90 49 60
        E 0 90 4b 60
        E 0 90 55 60
        E 0 90 57 60
        E 0 90 61 60
        E 0 90 63 60
        E 120 80 1a 00
        E 0 80 2a 00
        E 0 80 3d 00
        E 0 80 3f 00
        E 0 80 49 00
        E 0 80 4b 00
        E 0 80 55 00
        E 0 80 57 00
        E 0 80 61 00
        E 0 80 63 00
        E 360 90 2a 60
        E 0 90 3f 60
        E 0 90 4b 60
        E 0 90 57 60
        E 0 90 63 60
        E 120 80 2a 00
        E 0 80 3f 00
        E 0 80 4b 00
        E 0 80 57 00
        E 0 80 63 00
        E 120 90 18 60
        E 0 90 19 60
        E 0 90 54 60
        E 0 90 60 60
        E 120 80 18 00
        E 0 80 54 00
        E 0 80 60 00
        E 120 80 19 00
        E 0 90 18 60
        E 0 90 24 60
        E 0 90 40 60
        E 0 90 48 60
        E 0 90 4c 60
        E 0 90 54 60
        E 0 90 58 60
        E 0 90 60 60
        E 0 90 64 60
        E 120 80 74 00
        E 0 80 18 00
        E 0 80 24 00
        E 0 80 40 00
        E 0 80 48 00
        E 0 80 4c 00
        E 0 80 54 00
        E 0 80 58 00
        E 0 80 60 00
        E 0 80 64 00
        E 600 90 19 60
        E 240 80 19 00
        E 720 90 19 60
        E 240 80 19 00
        E 720 90 19 60
        E 240 80 19 00
        E 720 90 19 60
        E 240 80 19 00
        E 0 90 18 60
        E 0 90 26 60
        E 0 90 40 60
        E 0 90 48 60
        E 0 90 4c 60
        E 0 90 54 60
        E 0 90 58 60
        E 0 90 60 60
        E 0 90 64 60
        E 120 80 18 00
        E 0 80 26 00
        E 0 80 40 00
        E 0 80 48 00
        E 0 80 4c 00
        E 0 80 54 00
        E 0 80 58 00
        E 0 80 60 00
        E 0 80 64 00
        E 600 90 19 60
        E 240 80 19 00
        E 720 90 19 60
        E 240 80 19 00
        E 0 90 1a 60
        E 0 90 3d 60
        E 0 90 49 60
        E 0 90 55 60
        E 0 90 61 60
        E 0 90 78 60
        E 0 90 79 60
        E 0 90 7a 60
        E 0 90 7b 60
        E 0 90 7c 60
        E 120 80 1a 00
        E 0 80 3d 00
        E 0 80 49 00
        E 0 80 55 00
        E 0 80 61 00
        E 120 90 1a 60
        E 0 90 55 60
        E 0 90 61 60
        E 120 80 1a 00
        E 0 80 55 00
        E 0 80 61 00
        E 360 90 19 60
        E 0 90 2f 60
        E 0 90 3e 60
        E 0 90 4a 60
        E 0 90 56 60
        E 0 90 62 60
        E 0 90 6e 60
        E 120 80 2f 00
        E 0 80 3e 00
        E 0 80 4a 00
        E 0 80 56 00
        E 0 80 62 00
        E 0 80 6e 00
        E 120 80 19 00
        E 240 90 31 60
        E 0 90 57 60
        E 0 90 63 60
        E 0 90 6f 60
        E 120 80 31 00
        E 0 80 57 00
        E 0 80 63 00
        E 0 80 6f 00
        E 120 90 31 60
        E 0 90 3f 60
        E 0 90 4b 60
        E 0 90 57 60
        E 0 90 63 60
        E 0 90 6f 60
        E 120 80 31 00
        E 0 80 3f 00
        E 0 80 4b 00
        E 0 80 57 00
        E 0 80 63 00
        E 0 80 6f 00
        E 120 90 18 60
        E 0 90 19 60
        E 0 90 54 60
        E 0 90 60 60
        E 120 80 18 00
        E 0 80 54 00
        E 0 80 60 00
        <X 120 0
          /wFbbWVsbG93XQ==
        >
        E 0 80 78 00
        E 0 80 79 00
        E 0 80 7a 00
        E 0 80 7b 00
        E 0 80 7c 00
        E 0 80 19 00
        E 0 90 18 60
        E 0 90 27 60
        E 0 90 40 60
        E 0 90 48 60
        E 0 90 4c 60
        E 0 90 54 60
        E 0 90 58 60
        E 0 90 60 60
        E 0 90 64 60
        E 120 80 18 00
        E 0 80 27 00
        E 0 80 40 00
        E 0 80 48 00
        E 0 80 4c 00
        E 0 80 54 00
        E 0 80 58 00
        E 0 80 60 00
        E 0 80 64 00
        E 360 90 1f 60
        E 0 90 3e 60
        E 0 90 4a 60
        E 0 90 56 60
        E 0 90 62 60
        E 120 80 1f 00
        E 0 80 3e 00
        E 0 80 4a 00
        E 0 80 56 00
        E 0 80 62 00
        E 360 90 1a 60
        E 0 90 1f 60
        E 0 90 3d 60
        E 0 90 3e 60
        E 0 90 49 60
        E 0 90 4a 60
        E 0 90 55 60
        E 0 90 56 60
        E 0 90 61 60
        E 0 90 62 60
        E 120 80 1a 00
        E 0 80 1f 00
        E 0 80 3d 00
        E 0 80 3e 00
        E 0 80 49 00
        E 0 80 4a 00
        E 0 80 55 00
        E 0 80 56 00
        E 0 80 61 00
        E 0 80 62 00
        E 360 90 1f 60
        E 0 90 3e 60
        E 0 90 4a 60
        E 0 90 56 60
        E 0 90 62 60
        E 120 80 1f 00
        E 0 80 3e 00
        E 0 80 4a 00
        E 0 80 56 00
        E 0 80 62 00
        E 120 90 18 60
        E 0 90 54 60
        E 0 90 60 60
        E 120 80 18 00
        E 0 80 54 00
        E 0 80 60 00
        E 120 90 18 60
        E 0 90 1f 60
        E 0 90 3e 60
        E 0 90 48 60
        E 0 90 4a 60
        E 0 90 54 60
        E 0 90 56 60
        E 0 90 60 60
        E 0 90 62 60
        E 120 80 18 00
        E 0 80 1f 00
        E 0 80 3e 00
        E 0 80 48 00
        E 0 80 4a 00
        E 0 80 54 00
        E 0 80 56 00
        E 0 80 60 00
        E 0 80 62 00
        E 360 90 1f 60
        E 0 90 3e 60
        E 0 90 4a 60
        E 0 90 56 60
        E 0 90 62 60
        E 120 80 1f 00
        E 0 80 3e 00
        E 0 80 4a 00
        E 0 80 56 00
        E 0 80 62 00
        E 360 90 1a 60
        E 0 90 1f 60
        E 0 90 3d 60
        E 0 90 3e 60
        E 0 90 49 60
        E 0 90 4a 60
        E 0 90 55 60
        E 0 90 56 60
        E 0 90 61 60
        E 0 90 62 60
        E 120 80 1a 00
        E 0 80 1f 00
        E 0 80 3d 00
        E 0 80 3e 00
        E 0 80 49 00
        E 0 80 4a 00
        E 0 80 55 00
        E 0 80 56 00
        E 0 80 61 00
        E 0 80 62 00
        E 360 90 1f 60
        E 0 90 3e 60
        E 0 90 4a 60
        E 0 90 56 60
        E 0 90 62 60
        E 120 80 1f 00
        E 0 80 3e 00
        E 0 80 4a 00
        E 0 80 56 00
        E 0 80 62 00
        E 120 90 18 60
        E 0 90 54 60
        E 0 90 60 60
        E 120 80 18 00
        E 0 80 54 00
        E 0 80 60 00
        E 120 90 18 60
        E 0 90 1f 60
        E 0 90 3e 60
        E 0 90 48 60
        E 0 90 4a 60
        E 0 90 54 60
        E 0 90 56 60
        E 0 90 60 60
        E 0 90 62 60
        E 120 80 18 00
        E 0 80 1f 00
        E 0 80 3e 00
        E 0 80 48 00
        E 0 80 4a 00
        E 0 80 54 00
        E 0 80 56 00
        E 0 80 60 00
        E 0 80 62 00
        E 360 90 1f 60
        E 0 90 3e 60
        E 0 90 4a 60
        E 0 90 56 60
        E 0 90 62 60
        E 120 80 1f 00
        E 0 80 3e 00
        E 0 80 4a 00
        E 0 80 56 00
        E 0 80 62 00
        E 360 90 1a 60
        E 0 90 1f 60
        E 0 90 3d 60
        E 0 90 3e 60
        E 0 90 49 60
        E 0 90 4a 60
        E 0 90 55 60
        E 0 90 56 60
        E 0 90 61 60
        E 0 90 62 60
        E 120 80 1a 00
        E 0 80 1f 00
        E 0 80 3d 00
        E 0 80 3e 00
        E 0 80 49 00
        E 0 80 4a 00
        E 0 80 55 00
        E 0 80 56 00
        E 0 80 61 00
        E 0 80 62 00
        E 360 90 1f 60
        E 0 90 3e 60
        E 0 90 4a 60
        E 0 90 56 60
        E 0 90 62 60
        E 120 80 1f 00
        E 0 80 3e 00
        E 0 80 4a 00
        E 0 80 56 00
        E 0 80 62 00
        E 120 90 18 60
        E 0 90 54 60
        E 0 90 60 60
        E 120 80 18 00
        E 0 80 54 00
        E 0 80 60 00
        E 120 90 18 60
        E 0 90 1f 60
        E 0 90 3e 60
        E 0 90 48 60
        E 0 90 4a 60
        E 0 90 54 60
        E 0 90 56 60
        E 0 90 60 60
        E 0 90 62 60
        E 0 90 78 60
        E 0 90 79 60
        E 0 90 7a 60
        E 0 90 7b 60
        E 0 90 7c 60
        E 120 80 18 00
        E 0 80 1f 00
        E 0 80 3e 00
        E 0 80 48 00
        E 0 80 4a 00
        E 0 80 54 00
        E 0 80 56 00
        E 0 80 60 00
        E 0 80 62 00
        E 360 90 1f 60
        E 0 90 3e 60
        E 0 90 4a 60
        E 0 90 56 60
        E 0 90 62 60
        E 120 80 1f 00
        E 0 80 3e 00
        E 0 80 4a 00
        E 0 80 56 00
        E 0 80 62 00
        E 360 90 1a 60
        E 0 90 1f 60
        E 0 90 3d 60
        E 0 90 3e 60
        E 0 90 49 60
        E 0 90 4a 60
        E 0 90 55 60
        E 0 90 56 60
        E 0 90 61 60
        E 0 90 62 60
        E 120 80 1a 00
        E 0 80 1f 00
        E 0 80 3d 00
        E 0 80 3e 00
        E 0 80 49 00
        E 0 80 4a 00
        E 0 80 55 00
        E 0 80 56 00
        E 0 80 61 00
        E 0 80 62 00
        E 120 90 18 60
        E 0 90 54 60
        E 0 90 60 60
        E 120 80 18 00
        E 0 80 54 00
        E 0 80 60 00
        E 120 90 1f 60
        E 0 90 3e 60
        E 0 90 4a 60
        E 0 90 56 60
        E 0 90 62 60
        E 120 80 1f 00
        E 0 80 3e 00
        E 0 80 4a 00
        E 0 80 56 00
        E 0 80 62 00
        E 120 90 18 60
        E 0 90 54 60
        E 0 90 60 60
        E 120 80 18 00
        E 0 80 54 00
        E 0 80 60 00
        E 120 80 78 00
        E 0 80 79 00
        E 0 80 7a 00
        E 0 80 7b 00
        E 0 80 7c 00
        E 0 90 18 60
        E 0 90 1f 60
        E 0 90 3e 60
        E 0 90 48 60
        E 0 90 4a 60
        E 0 90 54 60
        E 0 90 56 60
        E 0 90 60 60
        E 0 90 62 60
        E 120 80 18 00
        E 0 80 1f 00
        E 0 80 3e 00
        E 0 80 48 00
        E 0 80 4a 00
        E 0 80 54 00
        E 0 80 56 00
        E 0 80 60 00
        E 0 80 62 00
        E 360 90 1f 60
        E 0 90 3e 60
        E 0 90 4a 60
        E 0 90 56 60
        E 0 90 62 60
        E 120 80 1f 00
        E 0 80 3e 00
        E 0 80 4a 00
        E 0 80 56 00
        E 0 80 62 00
        E 120 90 18 60
        E 0 90 54 60
        E 0 90 60 60
        E 120 80 18 00
        E 0 80 54 00
        E 0 80 60 00
        E 120 90 1a 60
        E 0 90 1f 60
        E 0 90 3d 60
        E 0 90 3e 60
        E 0 90 49 60
        E 0 90 4a 60
        E 0 90 55 60
        E 0 90 56 60
        E 0 90 61 60
        E 0 90 62 60
        E 120 80 1a 00
        E 0 80 1f 00
        E 0 80 3d 00
        E 0 80 3e 00
        E 0 80 49 00
        E 0 80 4a 00
        E 0 80 55 00
        E 0 80 56 00
        E 0 80 61 00
        E 0 80 62 00
        E 360 90 1f 60
        E 0 90 3e 60
        E 0 90 4a 60
        E 0 90 56 60
        E 0 90 62 60
        E 120 80 1f 00
        E 0 80 3e 00
        E 0 80 4a 00
        E 0 80 56 00
        E 0 80 62 00
        E 360 90 18 60
        E 0 90 1f 60
        E 0 90 3e 60
        E 0 90 48 60
        E 0 90 4a 60
        E 0 90 54 60
        E 0 90 56 60
        E 0 90 60 60
        E 0 90 62 60
        E 120 80 18 00
        E 0 80 1f 00
        E 0 80 3e 00
        E 0 80 48 00
        E 0 80 4a 00
        E 0 80 54 00
        E 0 80 56 00
        E 0 80 60 00
        E 0 80 62 00
        E 120 90 18 60
        E 0 90 54 60
        E 0 90 60 60
        E 120 80 18 00
        E 0 80 54 00
        E 0 80 60 00
        E 120 90 1f 60
        E 0 90 3e 60
        E 0 90 4a 60
        E 0 90 56 60
        E 0 90 62 60
        E 120 80 1f 00
        E 0 80 3e 00
        E 0 80 4a 00
        E 0 80 56 00
        E 0 80 62 00
        E 120 90 18 60
        E 0 90 54 60
        E 0 90 60 60
        E 120 80 18 00
        E 0 80 54 00
        E 0 80 60 00
        E 120 90 1a 60
        E 0 90 1f 60
        E 0 90 3d 60
        E 0 90 3e 60
        E 0 90 49 60
        E 0 90 4a 60
        E 0 90 55 60
        E 0 90 56 60
        E 0 90 61 60
        E 0 90 62 60
        E 120 80 1a 00
        E 0 80 1f 00
        E 0 80 3d 00
        E 0 80 3e 00
        E 0 80 49 00
        E 0 80 4a 00
        E 0 80 55 00
        E 0 80 56 00
        E 0 80 61 00
        E 0 80 62 00
        E 360 90 1f 60
        E 0 90 3e 60
        E 0 90 4a 60
        E 0 90 56 60
        E 0 90 62 60
        E 120 80 1f 00
        E 0 80 3e 00
        E 0 80 4a 00
        E 0 80 56 00
        E 0 80 62 00
        E 120 90 18 60
        E 0 90 54 60
        E 0 90 60 60
        E 120 80 18 00
        E 0 80 54 00
        E 0 80 60 00
        E 120 90 18 60
        E 0 90 1f 60
        E 0 90 3e 60
        E 0 90 48 60
        E 0 90 4a 60
        E 0 90 54 60
        E 0 90 56 60
        E 0 90 60 60
        E 0 90 62 60
        E 120 80 18 00
        E 0 80 1f 00
        E 0 80 3e 00
        E 0 80 48 00
        E 0 80 4a 00
        E 0 80 54 00
        E 0 80 56 00
        E 0 80 60 00
        E 0 80 62 00
        E 360 90 18 60
        E 0 90 1f 60
        E 0 90 3e 60
        E 0 90 48 60
        E 0 90 4a 60
        E 0 90 54 60
        E 0 90 56 60
        E 0 90 60 60
        E 0 90 62 60
        E 120 80 18 00
        E 0 80 1f 00
        E 0 80 3e 00
        E 0 80 48 00
        E 0 80 4a 00
        E 0 80 54 00
        E 0 80 56 00
        E 0 80 60 00
        E 0 80 62 00
        E 360 90 1a 60
        E 0 90 1f 60
        E 0 90 3d 60
        E 0 90 3e 60
        E 0 90 49 60
        E 0 90 4a 60
        E 0 90 55 60
        E 0 90 56 60
        E 0 90 61 60
        E 0 90 62 60
        E 120 80 1a 00
        E 0 80 1f 00
        E 0 80 3d 00
        E 0 80 3e 00
        E 0 80 49 00
        E 0 80 4a 00
        E 0 80 55 00
        E 0 80 56 00
        E 0 80 61 00
        E 0 80 62 00
        E 360 90 1f 60
        E 0 90 3e 60
        E 0 90 4a 60
        E 0 90 56 60
        E 0 90 62 60
        E 120 80 1f 00
        E 0 80 3e 00
        E 0 80 4a 00
        E 0 80 56 00
        E 0 80 62 00
        E 120 90 18 60
        E 0 90 54 60
        E 0 90 60 60
        E 120 80 18 00
        E 0 80 54 00
        E 0 80 60 00
        E 120 90 18 60
        E 0 90 1f 60
        E 0 90 3e 60
        E 0 90 48 60
        E 0 90 4a 60
        E 0 90 54 60
        E 0 90 56 60
        E 0 90 60 60
        E 0 90 62 60
        E 0 90 78 60
        E 0 90 79 60
        E 0 90 7a 60
        E 0 90 7b 60
        E 0 90 7c 60
        E 120 80 18 00
        E 0 80 1f 00
        E 0 80 3e 00
        E 0 80 48 00
        E 0 80 4a 00
        E 0 80 54 00
        E 0 80 56 00
        E 0 80 60 00
        E 0 80 62 00
        E 360 90 1f 60
        E 0 90 3e 60
        E 0 90 4a 60
        E 0 90 56 60
        E 0 90 62 60
        E 120 80 1f 00
        E 0 80 3e 00
        E 0 80 4a 00
        E 0 80 56 00
        E 0 80 62 00
        E 120 90 1a 60
        E 0 90 55 60
        E 0 90 61 60
        E 120 80 1a 00
        E 0 80 55 00
        E 0 80 61 00
        E 120 90 1a 60
        E 0 90 1f 60
        E 0 90 3d 60
        E 0 90 3e 60
        E 0 90 49 60
        E 0 90 4a 60
        E 0 90 55 60
        E 0 90 56 60
        E 0 90 61 60
        E 0 90 62 60
        E 120 80 1a 00
        E 0 80 1f 00
        E 0 80 3d 00
        E 0 80 3e 00
        E 0 80 49 00
        E 0 80 4a 00
        E 0 80 55 00
        E 0 80 56 00
        E 0 80 61 00
        E 0 80 62 00
        E 120 90 18 60
        E 0 90 54 60
        E 0 90 60 60
        E 120 80 18 00
        E 0 80 54 00
        E 0 80 60 00
        E 120 90 1f 60
        E 0 90 3e 60
        E 0 90 4a 60
        E 0 90 56 60
        E 0 90 62 60
        E 120 80 1f 00
        E 0 80 3e 00
        E 0 80 4a 00
        E 0 80 56 00
        E 0 80 62 00
        E 120 90 18 60
        E 0 90 54 60
        E 0 90 60 60
        E 120 80 18 00
        E 0 80 54 00
        E 0 80 60 00
        E 120 80 78 00
        E 0 80 79 00
        E 0 80 7a 00
        E 0 80 7b 00
        E 0 80 7c 00
        E 0 90 18 60
        E 0 90 1f 60
        E 0 90 3e 60
        E 0 90 48 60
        E 0 90 4a 60
        E 0 90 54 60
        E 0 90 56 60
        E 0 90 60 60
        E 0 90 62 60
        E 120 80 18 00
        E 0 80 1f 00
        E 0 80 3e 00
        E 0 80 48 00
        E 0 80 4a 00
        E 0 80 54 00
        E 0 80 56 00
        E 0 80 60 00
        E 0 80 62 00
        E 360 90 1f 60
        E 0 90 3e 60
        E 0 90 4a 60
        E 0 90 56 60
        E 0 90 62 60
        E 120 80 1f 00
        E 0 80 3e 00
        E 0 80 4a 00
        E 0 80 56 00
        E 0 80 62 00
        E 120 90 18 60
        E 0 90 54 60
        E 0 90 60 60
        E 120 80 18 00
        E 0 80 54 00
        E 0 80 60 00
        E 120 90 1a 60
        E 0 90 1f 60
        E 0 90 3d 60
        E 0 90 3e 60
        E 0 90 49 60
        E 0 90 4a 60
        E 0 90 55 60
        E 0 90 56 60
        E 0 90 61 60
        E 0 90 62 60
        E 120 80 1a 00
        E 0 80 1f 00
        E 0 80 3d 00
        E 0 80 3e 00
        E 0 80 49 00
        E 0 80 4a 00
        E 0 80 55 00
        E 0 80 56 00
        E 0 80 61 00
        E 0 80 62 00
        E 360 90 1f 60
        E 0 90 3e 60
        E 0 90 4a 60
        E 0 90 56 60
        E 0 90 62 60
        E 120 80 1f 00
        E 0 80 3e 00
        E 0 80 4a 00
        E 0 80 56 00
        E 0 80 62 00
        E 120 90 18 60
        E 0 90 54 60
        E 0 90 60 60
        E 120 80 18 00
        E 0 80 54 00
        E 0 80 60 00
        E 120 90 18 60
        E 0 90 1f 60
        E 0 90 3e 60
        E 0 90 48 60
        E 0 90 4a 60
        E 0 90 54 60
        E 0 90 56 60
        E 0 90 60 60
        E 0 90 62 60
        E 120 80 18 00
        E 0 80 1f 00
        E 0 80 3e 00
        E 0 80 48 00
        E 0 80 4a 00
        E 0 80 54 00
        E 0 80 56 00
        E 0 80 60 00
        E 0 80 62 00
        E 360 90 1f 60
        E 0 90 3e 60
        E 0 90 4a 60
        E 0 90 56 60
        E 0 90 62 60
        E 120 80 1f 00
        E 0 80 3e 00
        E 0 80 4a 00
        E 0 80 56 00
        E 0 80 62 00
        E 360 90 1a 60
        E 0 90 1f 60
        E 0 90 3d 60
        E 0 90 3e 60
        E 0 90 49 60
        E 0 90 4a 60
        E 0 90 55 60
        E 0 90 56 60
        E 0 90 61 60
        E 0 90 62 60
        E 120 80 1a 00
        E 0 80 1f 00
        E 0 80 3d 00
        E 0 80 3e 00
        E 0 80 49 00
        E 0 80 4a 00
        E 0 80 55 00
        E 0 80 56 00
        E 0 80 61 00
        E 0 80 62 00
        E 360 90 1f 60
        E 0 90 3e 60
        E 0 90 4a 60
        E 0 90 56 60
        E 0 90 62 60
        E 120 80 1f 00
        E 0 80 3e 00
        E 0 80 4a 00
        E 0 80 56 00
        E 0 80 62 00
        E 120 90 18 60
        E 0 90 54 60
        E 0 90 60 60
        E 120 80 18 00
        E 0 80 54 00
        E 0 80 60 00
        E 120 90 18 60
        E 0 90 1f 60
        E 0 90 3e 60
        E 0 90 48 60
        E 0 90 4a 60
        E 0 90 54 60
        E 0 90 56 60
        E 0 90 60 60
        E 0 90 62 60
        E 120 80 18 00
        E 0 80 1f 00
        E 0 80 3e 00
        E 0 80 48 00
        E 0 80 4a 00
        E 0 80 54 00
        E 0 80 56 00
        E 0 80 60 00
        E 0 80 62 00
        E 360 90 1f 60
        E 0 90 3e 60
        E 0 90 4a 60
        E 0 90 56 60
        E 0 90 62 60
        E 120 80 1f 00
        E 0 80 3e 00
        E 0 80 4a 00
        E 0 80 56 00
        E 0 80 62 00
        E 120 90 18 60
        E 0 90 54 60
        E 0 90 60 60
        E 120 80 18 00
        E 0 80 54 00
        E 0 80 60 00
        E 120 90 1a 60
        E 0 90 1f 60
        E 0 90 3d 60
        E 0 90 3e 60
        E 0 90 49 60
        E 0 90 4a 60
        E 0 90 55 60
        E 0 90 56 60
        E 0 90 61 60
        E 0 90 62 60
        E 120 80 1a 00
        E 0 80 1f 00
        E 0 80 3d 00
        E 0 80 3e 00
        E 0 80 49 00
        E 0 80 4a 00
        E 0 80 55 00
        E 0 80 56 00
        E 0 80 61 00
        E 0 80 62 00
        E 360 90 1f 60
        E 0 90 3e 60
        E 0 90 4a 60
        E 0 90 56 60
        E 0 90 62 60
        E 120 80 1f 00
        E 0 80 3e 00
        E 0 80 4a 00
        E 0 80 56 00
        E 0 80 62 00
        E 120 90 18 60
        E 0 90 54 60
        E 0 90 60 60
        E 120 80 18 00
        E 0 80 54 00
        E 0 80 60 00
        E 120 90 18 60
        E 0 90 1f 60
        E 0 90 3e 60
        E 0 90 48 60
        E 0 90 4a 60
        E 0 90 54 60
        E 0 90 56 60
        E 0 90 60 60
        E 0 90 62 60
        E 0 90 78 60
        E 0 90 79 60
        E 0 90 7a 60
        E 0 90 7b 60
        E 0 90 7c 60
        E 120 80 18 00
        E 0 80 1f 00
        E 0 80 3e 00
        E 0 80 48 00
        E 0 80 4a 00
        E 0 80 54 00
        E 0 80 56 00
        E 0 80 60 00
        E 0 80 62 00
        E 360 90 1f 60
        E 0 90 3e 60
        E 0 90 4a 60
        E 0 90 56 60
        E 0 90 62 60
        E 120 80 1f 00
        E 0 80 3e 00
        E 0 80 4a 00
        E 0 80 56 00
        E 0 80 62 00
        E 360 90 1a 60
        E 0 90 1f 60
        E 0 90 3d 60
        E 0 90 3e 60
        E 0 90 49 60
        E 0 90 4a 60
        E 0 90 55 60
        E 0 90 56 60
        E 0 90 61 60
        E 0 90 62 60
        E 120 80 1a 00
        E 0 80 1f 00
        E 0 80 3d 00
        E 0 80 3e 00
        E 0 80 49 00
        E 0 80 4a 00
        E 0 80 55 00
        E 0 80 56 00
        E 0 80 61 00
        E 0 80 62 00
        E 120 90 18 60
        E 0 90 54 60
        E 0 90 60 60
        E 120 80 18 00
        E 0 80 54 00
        E 0 80 60 00
        E 120 90 1f 60
        E 0 90 3e 60
        E 0 90 4a 60
        E 0 90 56 60
        E 0 90 62 60
        E 120 80 1f 00
        E 0 80 3e 00
        E 0 80 4a 00
        E 0 80 56 00
        E 0 80 62 00
        E 120 90 18 60
        E 0 90 54 60
        E 0 90 60 60
        E 120 80 18 00
        E 0 80 54 00
        E 0 80 60 00
        E 120 80 78 00
        E 0 80 79 00
        E 0 80 7a 00
        E 0 80 7b 00
        E 0 80 7c 00
        E 0 90 18 60
        E 0 90 1f 60
        E 0 90 3e 60
        E 0 90 48 60
        E 0 90 4a 60
        E 0 90 54 60
        E 0 90 56 60
        E 0 90 60 60
        E 0 90 62 60
        E 0 90 74 60
        E 120 80 18 00
        E 0 80 1f 00
        E 0 80 3e 00
        E 0 80 48 00
        E 0 80 4a 00
        E 0 80 54 00
        E 0 80 56 00
        E 0 80 60 00
        E 0 80 62 00
        E 360 90 1f 60
        E 0 90 3e 60
        E 0 90 4a 60
        E 0 90 56 60
        E 0 90 62 60
        E 120 80 1f 00
        E 0 80 3e 00
        E 0 80 4a 00
        E 0 80 56 00
        E 0 80 62 00
        E 120 90 18 60
        E 0 90 54 60
        E 0 90 60 60
        E 120 80 18 00
        E 0 80 54 00
        E 0 80 60 00
        E 120 90 1a 60
        E 0 90 1f 60
        E 0 90 3d 60
        E 0 90 3e 60
        E 0 90 49 60
        E 0 90 4a 60
        E 0 90 55 60
        E 0 90 56 60
        E 0 90 61 60
        E 0 90 62 60
        E 120 80 1a 00
        E 0 80 1f 00
        E 0 80 3d 00
        E 0 80 3e 00
        E 0 80 49 00
        E 0 80 4a 00
        E 0 80 55 00
        E 0 80 56 00
        E 0 80 61 00
        E 0 80 62 00
        E 360 90 1f 60
        E 0 90 3e 60
        E 0 90 4a 60
        E 0 90 56 60
        E 0 90 62 60
        E 120 80 1f 00
        E 0 80 3e 00
        E 0 80 4a 00
        E 0 80 56 00
        E 0 80 62 00
        E 120 90 18 60
        E 0 90 54 60
        E 0 90 60 60
        E 120 80 18 00
        E 0 80 54 00
        E 0 80 60 00
        E 120 80 74 00
        E 0 90 18 60
        E 0 90 1f 60
        E 0 90 3e 60
        E 0 90 48 60
        E 0 90 4a 60
        E 0 90 54 60
        E 0 90 56 60
        E 0 90 60 60
        E 0 90 62 60
        E 120 80 18 00
        E 0 80 1f 00
        E 0 80 3e 00
        E 0 80 48 00
        E 0 80 4a 00
        E 0 80 54 00
        E 0 80 56 00
        E 0 80 60 00
        E 0 80 62 00
        E 360 90 1f 60
        E 0 90 3e 60
        E 0 90 4a 60
        E 0 90 56 60
        E 0 90 62 60
        E 120 80 1f 00
        E 0 80 3e 00
        E 0 80 4a 00
        E 0 80 56 00
        E 0 80 62 00
        E 120 90 18 60
        E 0 90 54 60
        E 0 90 60 60
        E 120 80 18 00
        E 0 80 54 00
        E 0 80 60 00
        E 120 90 1a 60
        E 0 90 1f 60
        E 0 90 3d 60
        E 0 90 3e 60
        E 0 90 49 60
        E 0 90 4a 60
        E 0 90 55 60
        E 0 90 56 60
        E 0 90 61 60
        E 0 90 62 60
        E 120 80 1a 00
        E 0 80 1f 00
        E 0 80 3d 00
        E 0 80 3e 00
        E 0 80 49 00
        E 0 80 4a 00
        E 0 80 55 00
        E 0 80 56 00
        E 0 80 61 00
        E 0 80 62 00
        E 360 90 1f 60
        E 0 90 3e 60
        E 0 90 4a 60
        E 0 90 56 60
        E 0 90 62 60
        E 120 80 1f 00
        E 0 80 3e 00
        E 0 80 4a 00
        E 0 80 56 00
        E 0 80 62 00
        E 120 90 18 60
        E 0 90 54 60
        E 0 90 60 60
        E 120 80 18 00
        E 0 80 54 00
        E 0 80 60 00
        E 120 90 18 60
        E 0 90 1f 60
        E 0 90 3e 60
        E 0 90 48 60
        E 0 90 4a 60
        E 0 90 54 60
        E 0 90 56 60
        E 0 90 60 60
        E 0 90 62 60
        E 120 80 18 00
        E 0 80 1f 00
        E 0 80 3e 00
        E 0 80 48 00
        E 0 80 4a 00
        E 0 80 54 00
        E 0 80 56 00
        E 0 80 60 00
        E 0 80 62 00
        E 360 90 1f 60
        E 0 90 3e 60
        E 0 90 4a 60
        E 0 90 56 60
        E 0 90 62 60
        E 120 80 1f 00
        E 0 80 3e 00
        E 0 80 4a 00
        E 0 80 56 00
        E 0 80 62 00
        E 120 90 18 60
        E 0 90 54 60
        E 0 90 60 60
        E 120 80 18 00
        E 0 80 54 00
        E 0 80 60 00
        E 120 90 1a 60
        E 0 90 1f 60
        E 0 90 3d 60
        E 0 90 3e 60
        E 0 90 49 60
        E 0 90 4a 60
        E 0 90 55 60
        E 0 90 56 60
        E 0 90 61 60
        E 0 90 62 60
        E 120 80 1a 00
        E 0 80 1f 00
        E 0 80 3d 00
        E 0 80 3e 00
        E 0 80 49 00
        E 0 80 4a 00
        E 0 80 55 00
        E 0 80 56 00
        E 0 80 61 00
        E 0 80 62 00
        E 360 90 1f 60
        E 0 90 3e 60
        E 0 90 4a 60
        E 0 90 56 60
        E 0 90 62 60
        E 120 80 1f 00
        E 0 80 3e 00
        E 0 80 4a 00
        E 0 80 56 00
        E 0 80 62 00
        E 120 90 18 60
        E 0 90 54 60
        E 0 90 60 60
        E 120 80 18 00
        E 0 80 54 00
        E 0 80 60 00
        E 120 90 18 60
        E 0 90 1f 60
        E 0 90 3e 60
        E 0 90 48 60
        E 0 90 4a 60
        E 0 90 54 60
        E 0 90 56 60
        E 0 90 60 60
        E 0 90 62 60
        E 0 90 78 60
        E 0 90 79 60
        E 0 90 7a 60
        E 0 90 7b 60
        E 0 90 7c 60
        E 120 80 18 00
        E 0 80 1f 00
        E 0 80 3e 00
        E 0 80 48 00
        E 0 80 4a 00
        E 0 80 54 00
        E 0 80 56 00
        E 0 80 60 00
        E 0 80 62 00
        E 360 90 1f 60
        E 0 90 3e 60
        E 0 90 4a 60
        E 0 90 56 60
        E 0 90 62 60
        E 120 80 1f 00
        E 0 80 3e 00
        E 0 80 4a 00
        E 0 80 56 00
        E 0 80 62 00
        E 120 90 18 60
        E 0 90 54 60
        E 0 90 60 60
        E 120 80 18 00
        E 0 80 54 00
        E 0 80 60 00
        E 120 90 1a 60
        E 0 90 1f 60
        E 0 90 3d 60
        E 0 90 3e 60
        E 0 90 49 60
        E 0 90 4a 60
        E 0 90 55 60
        E 0 90 56 60
        E 0 90 61 60
        E 0 90 62 60
        E 120 80 1a 00
        E 0 80 1f 00
        E 0 80 3d 00
        E 0 80 3e 00
        E 0 80 49 00
        E 0 80 4a 00
        E 0 80 55 00
        E 0 80 56 00
        E 0 80 61 00
        E 0 80 62 00
        E 360 90 1f 60
        E 0 90 3e 60
        E 0 90 4a 60
        E 0 90 56 60
        E 0 90 62 60
        E 120 80 1f 00
        E 0 80 3e 00
        E 0 80 4a 00
        E 0 80 56 00
        E 0 80 62 00
        E 120 90 18 60
        E 0 90 54 60
        E 0 90 60 60
        E 120 80 18 00
        E 0 80 54 00
        E 0 80 60 00
        E 120 80 78 00
        E 0 80 79 00
        E 0 80 7a 00
        E 0 80 7b 00
        E 0 80 7c 00
        E 0 90 18 60
        E 0 90 27 60
        E 0 90 40 60
        E 0 90 48 60
        E 0 90 4c 60
        E 0 90 54 60
        E 0 90 58 60
        E 0 90 60 60
        E 0 90 64 60
        E 120 80 18 00
        E 0 80 27 00
        E 0 80 40 00
        E 0 80 48 00
        E 0 80 4c 00
        E 0 80 54 00
        E 0 80 58 00
        E 0 80 60 00
        E 0 80 64 00
        E 360 90 1f 60
        E 0 90 3e 60
        E 0 90 4a 60
        E 0 90 56 60
        E 0 90 62 60
        E 120 80 1f 00
        E 0 80 3e 00
        E 0 80 4a 00
        E 0 80 56 00
        E 0 80 62 00
        E 120 90 18 60
        E 0 90 54 60
        E 0 90 60 60
        E 120 80 18 00
        E 0 80 54 00
        E 0 80 60 00
        E 120 90 1a 60
        E 0 90 1f 60
        E 0 90 3d 60
        E 0 90 3e 60
        E 0 90 49 60
        E 0 90 4a 60
        E 0 90 55 60
        E 0 90 56 60
        E 0 90 61 60
        E 0 90 62 60
        E 120 80 1a 00
        E 0 80 1f 00
        E 0 80 3d 00
        E 0 80 3e 00
        E 0 80 49 00
        E 0 80 4a 00
        E 0 80 55 00
        E 0 80 56 00
        E 0 80 61 00
        E 0 80 62 00
        E 360 90 1f 60
        E 0 90 3e 60
        E 0 90 4a 60
        E 0 90 56 60
        E 0 90 62 60
        E 120 80 1f 00
        E 0 80 3e 00
        E 0 80 4a 00
        E 0 80 56 00
        E 0 80 62 00
        E 120 90 18 60
        E 0 90 54 60
        E 0 90 60 60
        E 120 80 18 00
        E 0 80 54 00
        E 0 80 60 00
        E 120 90 18 60
        E 0 90 1f 60
        E 0 90 3e 60
        E 0 90 48 60
        E 0 90 4a 60
        E 0 90 54 60
        E 0 90 56 60
        E 0 90 60 60
        E 0 90 62 60
        E 120 80 18 00
        E 0 80 1f 00
        E 0 80 3e 00
        E 0 80 48 00
        E 0 80 4a 00
        E 0 80 54 00
        E 0 80 56 00
        E 0 80 60 00
        E 0 80 62 00
        E 360 90 1f 60
        E 0 90 3e 60
        E 0 90 4a 60
        E 0 90 56 60
        E 0 90 62 60
        E 120 80 1f 00
        E 0 80 3e 00
        E 0 80 4a 00
        E 0 80 56 00
        E 0 80 62 00
        E 360 90 1a 60
        E 0 90 1f 60
        E 0 90 3d 60
        E 0 90 3e 60
        E 0 90 49 60
        E 0 90 4a 60
        E 0 90 55 60
        E 0 90 56 60
        E 0 90 61 60
        E 0 90 62 60
        E 120 80 1a 00
        E 0 80 1f 00
        E 0 80 3d 00
        E 0 80 3e 00
        E 0 80 49 00
        E 0 80 4a 00
        E 0 80 55 00
        E 0 80 56 00
        E 0 80 61 00
        E 0 80 62 00
        E 360 90 1f 60
        E 0 90 3e 60
        E 0 90 4a 60
        E 0 90 56 60
        E 0 90 62 60
        E 120 80 1f 00
        E 0 80 3e 00
        E 0 80 4a 00
        E 0 80 56 00
        E 0 80 62 00
        E 120 90 18 60
        E 0 90 54 60
        E 0 90 60 60
        E 120 80 18 00
        E 0 80 54 00
        E 0 80 60 00
        E 120 90 18 60
        E 0 90 1f 60
        E 0 90 3e 60
        E 0 90 48 60
        E 0 90 4a 60
        E 0 90 54 60
        E 0 90 56 60
        E 0 90 60 60
        E 0 90 62 60
        E 120 80 18 00
        E 0 80 1f 00
        E 0 80 3e 00
        E 0 80 48 00
        E 0 80 4a 00
        E 0 80 54 00
        E 0 80 56 00
        E 0 80 60 00
        E 0 80 62 00
        E 360 90 1f 60
        E 0 90 3e 60
        E 0 90 4a 60
        E 0 90 56 60
        E 0 90 62 60
        E 120 80 1f 00
        E 0 80 3e 00
        E 0 80 4a 00
        E 0 80 56 00
        E 0 80 62 00
        E 120 90 18 60
        E 0 90 54 60
        E 0 90 60 60
        E 120 80 18 00
        E 0 80 54 00
        E 0 80 60 00
        E 120 90 1a 60
        E 0 90 1f 60
        E 0 90 3d 60
        E 0 90 3e 60
        E 0 90 49 60
        E 0 90 4a 60
        E 0 90 55 60
        E 0 90 56 60
        E 0 90 61 60
        E 0 90 62 60
        E 120 80 1a 00
        E 0 80 1f 00
        E 0 80 3d 00
        E 0 80 3e 00
        E 0 80 49 00
        E 0 80 4a 00
        E 0 80 55 00
        E 0 80 56 00
        E 0 80 61 00
        E 0 80 62 00
        E 360 90 1f 60
        E 0 90 3e 60
        E 0 90 4a 60
        E 0 90 56 60
        E 0 90 62 60
        E 120 80 1f 00
        E 0 80 3e 00
        E 0 80 4a 00
        E 0 80 56 00
        E 0 80 62 00
        E 120 90 18 60
        E 0 90 54 60
        E 0 90 60 60
        E 120 80 18 00
        E 0 80 54 00
        E 0 80 60 00
        E 120 90 18 60
        E 0 90 1f 60
        E 0 90 3e 60
        E 0 90 48 60
        E 0 90 4a 60
        E 0 90 54 60
        E 0 90 56 60
        E 0 90 60 60
        E 0 90 62 60
        E 0 90 78 60
        E 0 90 79 60
        E 0 90 7a 60
        E 0 90 7b 60
        E 0 90 7c 60
        E 120 80 18 00
        E 0 80 1f 00
        E 0 80 3e 00
        E 0 80 48 00
        E 0 80 4a 00
        E 0 80 54 00
        E 0 80 56 00
        E 0 80 60 00
        E 0 80 62 00
        E 120 90 1a 60
        E 0 90 55 60
        E 0 90 61 60
        E 120 80 1a 00
        E 0 80 55 00
        E 0 80 61 00
        E 120 90 1f 60
        E 0 90 3e 60
        E 0 90 4a 60
        E 0 90 56 60
        E 0 90 62 60
        E 120 80 1f 00
        E 0 80 3e 00
        E 0 80 4a 00
        E 0 80 56 00
        E 0 80 62 00
        E 120 90 18 60
        E 0 90 54 60
        E 0 90 60 60
        E 120 80 18 00
        E 0 80 54 00
        E 0 80 60 00
        E 120 90 1a 60
        E 0 90 1f 60
        E 0 90 3d 60
        E 0 90 3e 60
        E 0 90 49 60
        E 0 90 4a 60
        E 0 90 55 60
        E 0 90 56 60
        E 0 90 61 60
        E 0 90 62 60
        E 120 80 1a 00
        E 0 80 1f 00
        E 0 80 3d 00
        E 0 80 3e 00
        E 0 80 49 00
        E 0 80 4a 00
        E 0 80 55 00
        E 0 80 56 00
        E 0 80 61 00
        E 0 80 62 00
        E 360 90 1f 60
        E 0 90 3e 60
        E 0 90 4a 60
        E 0 90 56 60
        E 0 90 62 60
        E 120 80 1f 00
        E 0 80 3e 00
        E 0 80 4a 00
        E 0 80 56 00
        E 0 80 62 00
        E 120 90 18 60
        E 0 90 54 60
        E 0 90 60 60
        E 120 80 18 00
        E 0 80 54 00
        E 0 80 60 00
        E 120 80 78 00
        E 0 80 79 00
        E 0 80 7a 00
        E 0 80 7b 00
        E 0 80 7c 00
        E 0 90 18 60
        E 0 90 1f 60
        E 0 90 3e 60
        E 0 90 48 60
        E 0 90 4a 60
        E 0 90 54 60
        E 0 90 56 60
        E 0 90 60 60
        E 0 90 62 60
        E 120 80 18 00
        E 0 80 1f 00
        E 0 80 3e 00
        E 0 80 48 00
        E 0 80 4a 00
        E 0 80 54 00
        E 0 80 56 00
        E 0 80 60 00
        E 0 80 62 00
        E 360 90 1f 60
        E 0 90 3e 60
        E 0 90 4a 60
        E 0 90 56 60
        E 0 90 62 60
        E 120 80 1f 00
        E 0 80 3e 00
        E 0 80 4a 00
        E 0 80 56 00
        E 0 80 62 00
        E 360 90 1a 60
        E 0 90 1f 60
        E 0 90 3d 60
        E 0 90 3e 60
        E 0 90 49 60
        E 0 90 4a 60
        E 0 90 55 60
        E 0 90 56 60
        E 0 90 61 60
        E 0 90 62 60
        E 120 80 1a 00
        E 0 80 1f 00
        E 0 80 3d 00
        E 0 80 3e 00
        E 0 80 49 00
        E 0 80 4a 00
        E 0 80 55 00
        E 0 80 56 00
        E 0 80 61 00
        E 0 80 62 00
        E 360 90 1f 60
        E 0 90 3e 60
        E 0 90 4a 60
        E 0 90 56 60
        E 0 90 62 60
        E 120 80 1f 00
        E 0 80 3e 00
        E 0 80 4a 00
        E 0 80 56 00
        E 0 80 62 00
        E 120 90 18 60
        E 0 90 54 60
        E 0 90 60 60
        E 120 80 18 00
        E 0 80 54 00
        E 0 80 60 00
        E 120 90 18 60
        E 0 90 1f 60
        E 0 90 3e 60
        E 0 90 48 60
        E 0 90 4a 60
        E 0 90 54 60
        E 0 90 56 60
        E 0 90 60 60
        E 0 90 62 60
        E 120 80 18 00
        E 0 80 1f 00
        E 0 80 3e 00
        E 0 80 48 00
        E 0 80 4a 00
        E 0 80 54 00
        E 0 80 56 00
        E 0 80 60 00
        E 0 80 62 00
        E 360 90 1f 60
        E 0 90 3e 60
        E 0 90 4a 60
        E 0 90 56 60
        E 0 90 62 60
        E 120 80 1f 00
        E 0 80 3e 00
        E 0 80 4a 00
        E 0 80 56 00
        E 0 80 62 00
        E 120 90 18 60
        E 0 90 54 60
        E 0 90 60 60
        E 120 80 18 00
        E 0 80 54 00
        E 0 80 60 00
        E 120 90 1a 60
        E 0 90 1f 60
        E 0 90 3d 60
        E 0 90 3e 60
        E 0 90 49 60
        E 0 90 4a 60
        E 0 90 55 60
        E 0 90 56 60
        E 0 90 61 60
        E 0 90 62 60
        E 120 80 1a 00
        E 0 80 1f 00
        E 0 80 3d 00
        E 0 80 3e 00
        E 0 80 49 00
        E 0 80 4a 00
        E 0 80 55 00
        E 0 80 56 00
        E 0 80 61 00
        E 0 80 62 00
        E 360 90 1f 60
        E 0 90 3e 60
        E 0 90 4a 60
        E 0 90 56 60
        E 0 90 62 60
        E 120 80 1f 00
        E 0 80 3e 00
        E 0 80 4a 00
        E 0 80 56 00
        E 0 80 62 00
        E 120 90 18 60
        E 0 90 54 60
        E 0 90 60 60
        E 120 80 18 00
        E 0 80 54 00
        E 0 80 60 00
        E 120 90 18 60
        E 0 90 1f 60
        E 0 90 3e 60
        E 0 90 48 60
        E 0 90 4a 60
        E 0 90 54 60
        E 0 90 56 60
        E 0 90 60 60
        E 0 90 62 60
        E 120 80 18 00
        E 0 80 1f 00
        E 0 80 3e 00
        E 0 80 48 00
        E 0 80 4a 00
        E 0 80 54 00
        E 0 80 56 00
        E 0 80 60 00
        E 0 80 62 00
        E 360 90 1f 60
        E 0 90 3e 60
        E 0 90 4a 60
        E 0 90 56 60
        E 0 90 62 60
        E 120 80 1f 00
        E 0 80 3e 00
        E 0 80 4a 00
        E 0 80 56 00
        E 0 80 62 00
        E 120 90 18 60
        E 0 90 54 60
        E 0 90 60 60
        E 120 80 18 00
        E 0 80 54 00
        E 0 80 60 00
        E 120 90 1a 60
        E 0 90 1f 60
        E 0 90 3d 60
        E 0 90 3e 60
        E 0 90 49 60
        E 0 90 4a 60
        E 0 90 55 60
        E 0 90 56 60
        E 0 90 61 60
        E 0 90 62 60
        E 120 80 1a 00
        E 0 80 1f 00
        E 0 80 3d 00
        E 0 80 3e 00
        E 0 80 49 00
        E 0 80 4a 00
        E 0 80 55 00
        E 0 80 56 00
        E 0 80 61 00
        E 0 80 62 00
        E 360 90 1f 60
        E 0 90 3e 60
        E 0 90 4a 60
        E 0 90 56 60
        E 0 90 62 60
        E 120 80 1f 00
        E 0 80 3e 00
        E 0 80 4a 00
        E 0 80 56 00
        E 0 80 62 00
        E 120 90 18 60
        E 0 90 54 60
        E 0 90 60 60
        E 120 80 18 00
        E 0 80 54 00
        E 0 80 60 00
        E 120 90 18 60
        E 0 90 1f 60
        E 0 90 3e 60
        E 0 90 48 60
        E 0 90 4a 60
        E 0 90 54 60
        E 0 90 56 60
        E 0 90 60 60
        E 0 90 62 60
        E 0 90 78 60
        E 0 90 79 60
        E 0 90 7a 60
        E 0 90 7b 60
        E 0 90 7c 60
        E 120 80 18 00
        E 0 80 1f 00
        E 0 80 3e 00
        E 0 80 48 00
        E 0 80 4a 00
        E 0 80 54 00
        E 0 80 56 00
        E 0 80 60 00
        E 0 80 62 00
        E 120 90 1a 60
        E 0 90 55 60
        E 0 90 61 60
        E 120 80 1a 00
        E 0 80 55 00
        E 0 80 61 00
        E 120 90 1f 60
        E 0 90 3e 60
        E 0 90 4a 60
        E 0 90 56 60
        E 0 90 62 60
        E 120 80 1f 00
        E 0 80 3e 00
        E 0 80 4a 00
        E 0 80 56 00
        E 0 80 62 00
        E 120 90 18 60
        E 0 90 54 60
        E 0 90 60 60
        E 120 80 18 00
        E 0 80 54 00
        E 0 80 60 00
        E 120 90 1a 60
        E 0 90 1f 60
        E 0 90 3d 60
        E 0 90 3e 60
        E 0 90 49 60
        E 0 90 4a 60
        E 0 90 55 60
        E 0 90 56 60
        E 0 90 61 60
        E 0 90 62 60
        E 120 80 1a 00
        E 0 80 1f 00
        E 0 80 3d 00
        E 0 80 3e 00
        E 0 80 49 00
        E 0 80 4a 00
        E 0 80 55 00
        E 0 80 56 00
        E 0 80 61 00
        E 0 80 62 00
        E 360 90 1a 60
        E 0 90 3d 60
        E 0 90 49 60
        E 0 90 55 60
        E 0 90 61 60
        E 120 80 1a 00
        E 0 80 3d 00
        E 0 80 49 00
        E 0 80 55 00
        E 0 80 61 00
        E 120 90 1a 60
        E 0 90 55 60
        E 0 90 61 60
        E 120 80 1a 00
        E 0 80 55 00
        E 0 80 61 00
        E 120 80 78 00
        E 0 80 79 00
        E 0 80 7a 00
        E 0 80 7b 00
        E 0 80 7c 00
        E 0 90 18 60
        E 0 90 1f 60
        E 0 90 3e 60
        E 0 90 48 60
        E 0 90 4a 60
        E 0 90 54 60
        E 0 90 56 60
        E 0 90 60 60
        E 0 90 62 60
        E 120 80 18 00
        E 0 80 1f 00
        E 0 80 3e 00
        E 0 80 48 00
        E 0 80 4a 00
        E 0 80 54 00
        E 0 80 56 00
        E 0 80 60 00
        E 0 80 62 00
        E 360 90 1f 60
        E 0 90 3e 60
        E 0 90 4a 60
        E 0 90 56 60
        E 0 90 62 60
        E 120 80 1f 00
        E 0 80 3e 00
        E 0 80 4a 00
        E 0 80 56 00
        E 0 80 62 00
        E 360 90 1a 60
        E 0 90 1f 60
        E 0 90 3d 60
        E 0 90 3e 60
        E 0 90 49 60
        E 0 90 4a 60
        E 0 90 55 60
        E 0 90 56 60
        E 0 90 61 60
        E 0 90 62 60
        E 120 80 1a 00
        E 0 80 1f 00
        E 0 80 3d 00
        E 0 80 3e 00
        E 0 80 49 00
        E 0 80 4a 00
        E 0 80 55 00
        E 0 80 56 00
        E 0 80 61 00
        E 0 80 62 00
        E 360 90 1f 60
        E 0 90 3e 60
        E 0 90 4a 60
        E 0 90 56 60
        E 0 90 62 60
        E 120 80 1f 00
        E 0 80 3e 00
        E 0 80 4a 00
        E 0 80 56 00
        E 0 80 62 00
        E 120 90 18 60
        E 0 90 54 60
        E 0 90 60 60
        E 120 80 18 00
        E 0 80 54 00
        E 0 80 60 00
        E 120 90 18 60
        E 0 90 1f 60
        E 0 90 3e 60
        E 0 90 48 60
        E 0 90 4a 60
        E 0 90 54 60
        E 0 90 56 60
        E 0 90 60 60
        E 0 90 62 60
        E 0 90 74 60
        E 120 80 18 00
        E 0 80 1f 00
        E 0 80 3e 00
        E 0 80 48 00
        E 0 80 4a 00
        E 0 80 54 00
        E 0 80 56 00
        E 0 80 60 00
        E 0 80 62 00
        E 360 90 18 60
        E 0 90 1f 60
        E 0 90 3e 60
        E 0 90 48 60
        E 0 90 4a 60
        E 0 90 54 60
        E 0 90 56 60
        E 0 90 60 60
        E 0 90 62 60
        E 120 80 18 00
        E 0 80 1f 00
        E 0 80 3e 00
        E 0 80 48 00
        E 0 80 4a 00
        E 0 80 54 00
        E 0 80 56 00
        E 0 80 60 00
        E 0 80 62 00
        E 360 90 1a 60
        E 0 90 1f 60
        E 0 90 3d 60
        E 0 90 3e 60
        E 0 90 49 60
        E 0 90 4a 60
        E 0 90 55 60
        E 0 90 56 60
        E 0 90 61 60
        E 0 90 62 60
        E 120 80 1a 00
        E 0 80 1f 00
        E 0 80 3d 00
        E 0 80 3e 00
        E 0 80 49 00
        E 0 80 4a 00
        E 0 80 55 00
        E 0 80 56 00
        E 0 80 61 00
        E 0 80 62 00
        E 360 90 1f 60
        E 0 90 3e 60
        E 0 90 4a 60
        E 0 90 56 60
        E 0 90 62 60
        E 120 80 1f 00
        E 0 80 3e 00
        E 0 80 4a 00
        E 0 80 56 00
        E 0 80 62 00
        E 120 90 18 60
        E 0 90 54 60
        E 0 90 60 60
        E 120 80 18 00
        E 0 80 54 00
        E 0 80 60 00
        E 120 80 74 00
        E 0 90 18 60
        E 0 90 1f 60
        E 0 90 3e 60
        E 0 90 48 60
        E 0 90 4a 60
        E 0 90 54 60
        E 0 90 56 60
        E 0 90 60 60
        E 0 90 62 60
        E 120 80 18 00
        E 0 80 1f 00
        E 0 80 3e 00
        E 0 80 48 00
        E 0 80 4a 00
        E 0 80 54 00
        E 0 80 56 00
        E 0 80 60 00
        E 0 80 62 00
        E 360 90 1f 60
        E 0 90 3e 60
        E 0 90 4a 60
        E 0 90 56 60
        E 0 90 62 60
        E 120 80 1f 00
        E 0 80 3e 00
        E 0 80 4a 00
        E 0 80 56 00
        E 0 80 62 00
        E 120 90 18 60
        E 0 90 54 60
        E 0 90 60 60
        E 120 80 18 00
        E 0 80 54 00
        E 0 80 60 00
        E 120 90 1a 60
        E 0 90 1f 60
        E 0 90 3d 60
        E 0 90 3e 60
        E 0 90 49 60
        E 0 90 4a 60
        E 0 90 55 60
        E 0 90 56 60
        E 0 90 61 60
        E 0 90 62 60
        E 120 80 1a 00
        E 0 80 1f 00
        E 0 80 3d 00
        E 0 80 3e 00
        E 0 80 49 00
        E 0 80 4a 00
        E 0 80 55 00
        E 0 80 56 00
        E 0 80 61 00
        E 0 80 62 00
        E 360 90 1f 60
        E 0 90 3e 60
        E 0 90 4a 60
        E 0 90 56 60
        E 0 90 62 60
        E 120 80 1f 00
        E 0 80 3e 00
        E 0 80 4a 00
        E 0 80 56 00
        E 0 80 62 00
        E 120 90 18 60
        E 0 90 54 60
        E 0 90 60 60
        E 120 80 18 00
        E 0 80 54 00
        E 0 80 60 00
        E 120 90 18 60
        E 0 90 1f 60
        E 0 90 3e 60
        E 0 90 48 60
        E 0 90 4a 60
        E 0 90 54 60
        E 0 90 56 60
        E 0 90 60 60
        E 0 90 62 60
        E 0 90 78 60
        E 0 90 79 60
        E 0 90 7a 60
        E 0 90 7b 60
        E 0 90 7c 60
        E 120 80 18 00
        E 0 80 1f 00
        E 0 80 3e 00
        E 0 80 48 00
        E 0 80 4a 00
        E 0 80 54 00
        E 0 80 56 00
        E 0 80 60 00
        E 0 80 62 00
        E 360 90 1f 60
        E 0 90 3e 60
        E 0 90 4a 60
        E 0 90 56 60
        E 0 90 62 60
        E 120 80 1f 00
        E 0 80 3e 00
        E 0 80 4a 00
        E 0 80 56 00
        E 0 80 62 00
        E 120 90 18 60
        E 0 90 54 60
        E 0 90 60 60
        E 120 80 18 00
        E 0 80 54 00
        E 0 80 60 00
        E 120 90 1a 60
        E 0 90 1f 60
        E 0 90 3d 60
        E 0 90 3e 60
        E 0 90 49 60
        E 0 90 4a 60
        E 0 90 55 60
        E 0 90 56 60
        E 0 90 61 60
        E 0 90 62 60
        E 120 80 1a 00
        E 0 80 1f 00
        E 0 80 3d 00
        E 0 80 3e 00
        E 0 80 49 00
        E 0 80 4a 00
        E 0 80 55 00
        E 0 80 56 00
        E 0 80 61 00
        E 0 80 62 00
        E 360 90 1f 60
        E 0 90 3e 60
        E 0 90 4a 60
        E 0 90 56 60
        E 0 90 62 60
        E 120 80 1f 00
        E 0 80 3e 00
        E 0 80 4a 00
        E 0 80 56 00
        E 0 80 62 00
        E 120 90 18 60
        E 0 90 54 60
        E 0 90 60 60
        E 120 80 18 00
        E 0 80 54 00
        E 0 80 60 00
        E 120 80 78 00
        E 0 80 79 00
        E 0 80 7a 00
        E 0 80 7b 00
        E 0 80 7c 00
        E 0 90 18 60
        E 0 90 1f 60
        E 0 90 3e 60
        E 0 90 48 60
        E 0 90 4a 60
        E 0 90 54 60
        E 0 90 56 60
        E 0 90 60 60
        E 0 90 62 60
        E 120 80 18 00
        E 0 80 1f 00
        E 0 80 3e 00
        E 0 80 48 00
        E 0 80 4a 00
        E 0 80 54 00
        E 0 80 56 00
        E 0 80 60 00
        E 0 80 62 00
        E 360 90 1f 60
        E 0 90 3e 60
        E 0 90 4a 60
        E 0 90 56 60
        E 0 90 62 60
        E 120 80 1f 00
        E 0 80 3e 00
        E 0 80 4a 00
        E 0 80 56 00
        E 0 80 62 00
        E 120 90 18 60
        E 0 90 54 60
        E 0 90 60 60
        E 120 80 18 00
        E 0 80 54 00
        E 0 80 60 00
        E 120 90 1a 60
        E 0 90 1f 60
        E 0 90 3d 60
        E 0 90 3e 60
        E 0 90 49 60
        E 0 90 4a 60
        E 0 90 55 60
        E 0 90 56 60
        E 0 90 61 60
        E 0 90 62 60
        E 120 80 1a 00
        E 0 80 1f 00
        E 0 80 3d 00
        E 0 80 3e 00
        E 0 80 49 00
        E 0 80 4a 00
        E 0 80 55 00
        E 0 80 56 00
        E 0 80 61 00
        E 0 80 62 00
        E 360 90 1f 60
        E 0 90 3e 60
        E 0 90 4a 60
        E 0 90 56 60
        E 0 90 62 60
        E 120 80 1f 00
        E 0 80 3e 00
        E 0 80 4a 00
        E 0 80 56 00
        E 0 80 62 00
        E 120 90 18 60
        E 0 90 54 60
        E 0 90 60 60
        E 120 80 18 00
        E 0 80 54 00
        E 0 80 60 00
        E 120 90 18 60
        E 0 90 1f 60
        E 0 90 3e 60
        E 0 90 48 60
        E 0 90 4a 60
        E 0 90 54 60
        E 0 90 56 60
        E 0 90 60 60
        E 0 90 62 60
        E 120 80 18 00
        E 0 80 1f 00
        E 0 80 3e 00
        E 0 80 48 00
        E 0 80 4a 00
        E 0 80 54 00
        E 0 80 56 00
        E 0 80 60 00
        E 0 80 62 00
        E 360 90 1f 60
        E 0 90 3e 60
        E 0 90 4a 60
        E 0 90 56 60
        E 0 90 62 60
        E 120 80 1f 00
        E 0 80 3e 00
        E 0 80 4a 00
        E 0 80 56 00
        E 0 80 62 00
        E 120 90 18 60
        E 0 90 54 60
        E 0 90 60 60
        E 120 80 18 00
        E 0 80 54 00
        E 0 80 60 00
        E 120 90 1a 60
        E 0 90 1f 60
        E 0 90 3d 60
        E 0 90 3e 60
        E 0 90 49 60
        E 0 90 4a 60
        E 0 90 55 60
        E 0 90 56 60
        E 0 90 61 60
        E 0 90 62 60
        E 120 80 1a 00
        E 0 80 1f 00
        E 0 80 3d 00
        E 0 80 3e 00
        E 0 80 49 00
        E 0 80 4a 00
        E 0 80 55 00
        E 0 80 56 00
        E 0 80 61 00
        E 0 80 62 00
        E 360 90 1f 60
        E 0 90 3e 60
        E 0 90 4a 60
        E 0 90 56 60
        E 0 90 62 60
        E 120 80 1f 00
        E 0 80 3e 00
        E 0 80 4a 00
        E 0 80 56 00
        E 0 80 62 00
        E 120 90 18 60
        E 0 90 54 60
        E 0 90 60 60
        E 120 80 18 00
        E 0 80 54 00
        E 0 80 60 00
        E 120 90 18 60
        E 0 90 1f 60
        E 0 90 3e 60
        E 0 90 48 60
        E 0 90 4a 60
        E 0 90 54 60
        E 0 90 56 60
        E 0 90 60 60
        E 0 90 62 60
        E 120 80 18 00
        E 0 80 1f 00
        E 0 80 3e 00
        E 0 80 48 00
        E 0 80 4a 00
        E 0 80 54 00
        E 0 80 56 00
        E 0 80 60 00
        E 0 80 62 00
        E 360 90 1f 60
        E 0 90 3e 60
        E 0 90 4a 60
        E 0 90 56 60
        E 0 90 62 60
        E 120 80 1f 00
        E 0 80 3e 00
        E 0 80 4a 00
        E 0 80 56 00
        E 0 80 62 00
        E 120 90 18 60
        E 0 90 54 60
        E 0 90 60 60
        E 120 80 18 00
        E 0 80 54 00
        E 0 80 60 00
        E 120 90 1a 60
        E 0 90 1f 60
        E 0 90 3d 60
        E 0 90 3e 60
        E 0 90 49 60
        E 0 90 4a 60
        E 0 90 55 60
        E 0 90 56 60
        E 0 90 61 60
        E 0 90 62 60
        E 120 80 1a 00
        E 0 80 1f 00
        E 0 80 3d 00
        E 0 80 3e 00
        E 0 80 49 00
        E 0 80 4a 00
        E 0 80 55 00
        E 0 80 56 00
        E 0 80 61 00
        E 0 80 62 00
        E 360 90 1f 60
        E 0 90 3e 60
        E 0 90 4a 60
        E 0 90 56 60
        E 0 90 62 60
        E 120 80 1f 00
        E 0 80 3e 00
        E 0 80 4a 00
        E 0 80 56 00
        E 0 80 62 00
        E 120 90 18 60
        E 0 90 54 60
        E 0 90 60 60
        E 120 80 18 00
        E 0 80 54 00
        E 0 80 60 00
        E 120 90 18 60
        E 0 90 1f 60
        E 0 90 3e 60
        E 0 90 48 60
        E 0 90 4a 60
        E 0 90 54 60
        E 0 90 56 60
        E 0 90 60 60
        E 0 90 62 60
        E 0 90 78 60
        E 0 90 79 60
        E 0 90 7a 60
        E 0 90 7b 60
        E 0 90 7c 60
        E 120 80 18 00
        E 0 80 1f 00
        E 0 80 3e 00
        E 0 80 48 00
        E 0 80 4a 00
        E 0 80 54 00
        E 0 80 56 00
        E 0 80 60 00
        E 0 80 62 00
        E 360 90 1f 60
        E 0 90 3e 60
        E 0 90 4a 60
        E 0 90 56 60
        E 0 90 62 60
        E 120 80 1f 00
        E 0 80 3e 00
        E 0 80 4a 00
        E 0 80 56 00
        E 0 80 62 00
        E 120 90 18 60
        E 0 90 54 60
        E 0 90 60 60
        E 120 80 18 00
        E 0 80 54 00
        E 0 80 60 00
        E 120 90 1a 60
        E 0 90 1f 60
        E 0 90 3d 60
        E 0 90 3e 60
        E 0 90 49 60
        E 0 90 4a 60
        E 0 90 55 60
        E 0 90 56 60
        E 0 90 61 60
        E 0 90 62 60
        E 120 80 1a 00
        E 0 80 1f 00
        E 0 80 3d 00
        E 0 80 3e 00
        E 0 80 49 00
        E 0 80 4a 00
        E 0 80 55 00
        E 0 80 56 00
        E 0 80 61 00
        E 0 80 62 00
        E 120 90 18 60
        E 0 90 54 60
        E 0 90 60 60
        E 120 80 18 00
        E 0 80 54 00
        E 0 80 60 00
        E 120 90 1a 60
        E 0 90 3d 60
        E 0 90 49 60
        E 0 90 55 60
        E 0 90 61 60
        E 120 80 1a 00
        E 0 80 3d 00
        E 0 80 49 00
        E 0 80 55 00
        E 0 80 61 00
        E 120 90 1a 60
        E 0 90 55 60
        E 0 90 61 60
        E 120 80 1a 00
        E 0 80 55 00
        E 0 80 61 00
        E 120 80 78 00
        E 0 80 79 00
        E 0 80 7a 00
        E 0 80 7b 00
        E 0 80 7c 00
        E 0 90 18 60
        E 0 90 1f 60
        E 0 90 3e 60
        E 0 90 48 60
        E 0 90 4a 60
        E 0 90 54 60
        E 0 90 56 60
        E 0 90 60 60
        E 0 90 62 60
        E 120 80 18 00
        E 0 80 1f 00
        E 0 80 3e 00
        E 0 80 48 00
        E 0 80 4a 00
        E 0 80 54 00
        E 0 80 56 00
        E 0 80 60 00
        E 0 80 62 00
        E 360 90 1f 60
        E 0 90 3e 60
        E 0 90 4a 60
        E 0 90 56 60
        E 0 90 62 60
        E 120 80 1f 00
        E 0 80 3e 00
        E 0 80 4a 00
        E 0 80 56 00
        E 0 80 62 00
        E 120 90 18 60
        E 0 90 54 60
        E 0 90 60 60
        E 120 80 18 00
        E 0 80 54 00
        E 0 80 60 00
        E 120 90 1a 60
        E 0 90 1f 60
        E 0 90 3d 60
        E 0 90 3e 60
        E 0 90 49 60
        E 0 90 4a 60
        E 0 90 55 60
        E 0 90 56 60
        E 0 90 61 60
        E 0 90 62 60
        E 120 80 1a 00
        E 0 80 1f 00
        E 0 80 3d 00
        E 0 80 3e 00
        E 0 80 49 00
        E 0 80 4a 00
        E 0 80 55 00
        E 0 80 56 00
        E 0 80 61 00
        E 0 80 62 00
        E 360 90 1f 60
        E 0 90 3e 60
        E 0 90 4a 60
        E 0 90 56 60
        E 0 90 62 60
        E 120 80 1f 00
        E 0 80 3e 00
        E 0 80 4a 00
        E 0 80 56 00
        E 0 80 62 00
        E 120 90 18 60
        E 0 90 54 60
        E 0 90 60 60
        E 120 80 18 00
        E 0 80 54 00
        E 0 80 60 00
        E 120 90 18 60
        E 0 90 1f 60
        E 0 90 3e 60
        E 0 90 48 60
        E 0 90 4a 60
        E 0 90 54 60
        E 0 90 56 60
        E 0 90 60 60
        E 0 90 62 60
        E 120 80 18 00
        E 0 80 1f 00
        E 0 80 3e 00
        E 0 80 48 00
        E 0 80 4a 00
        E 0 80 54 00
        E 0 80 56 00
        E 0 80 60 00
        E 0 80 62 00
        E 360 90 18 60
        E 0 90 1f 60
        E 0 90 3e 60
        E 0 90 48 60
        E 0 90 4a 60
        E 0 90 54 60
        E 0 90 56 60
        E 0 90 60 60
        E 0 90 62 60
        E 120 80 18 00
        E 0 80 1f 00
        E 0 80 3e 00
        E 0 80 48 00
        E 0 80 4a 00
        E 0 80 54 00
        E 0 80 56 00
        E 0 80 60 00
        E 0 80 62 00
        E 360 90 1a 60
        E 0 90 1f 60
        E 0 90 3d 60
        E 0 90 3e 60
        E 0 90 49 60
        E 0 90 4a 60
        E 0 90 55 60
        E 0 90 56 60
        E 0 90 61 60
        E 0 90 62 60
        E 120 80 1a 00
        E 0 80 1f 00
        E 0 80 3d 00
        E 0 80 3e 00
        E 0 80 49 00
        E 0 80 4a 00
        E 0 80 55 00
        E 0 80 56 00
        E 0 80 61 00
        E 0 80 62 00
        E 360 90 1f 60
        E 0 90 3e 60
        E 0 90 4a 60
        E 0 90 56 60
        E 0 90 62 60
        E 120 80 1f 00
        E 0 80 3e 00
        E 0 80 4a 00
        E 0 80 56 00
        E 0 80 62 00
        E 120 90 18 60
        E 0 90 54 60
        E 0 90 60 60
        E 120 80 18 00
        E 0 80 54 00
        E 0 80 60 00
        E 120 90 18 60
        E 0 90 1f 60
        E 0 90 3e 60
        E 0 90 48 60
        E 0 90 4a 60
        E 0 90 54 60
        E 0 90 56 60
        E 0 90 60 60
        E 0 90 62 60
        E 120 80 18 00
        E 0 80 1f 00
        E 0 80 3e 00
        E 0 80 48 00
        E 0 80 4a 00
        E 0 80 54 00
        E 0 80 56 00
        E 0 80 60 00
        E 0 80 62 00
        E 360 90 1f 60
        E 0 90 3e 60
        E 0 90 4a 60
        E 0 90 56 60
        E 0 90 62 60
        E 120 80 1f 00
        E 0 80 3e 00
        E 0 80 4a 00
        E 0 80 56 00
        E 0 80 62 00
        E 120 90 18 60
        E 0 90 54 60
        E 0 90 60 60
        E 120 80 18 00
        E 0 80 54 00
        E 0 80 60 00
        E 120 90 1a 60
        E 0 90 1f 60
        E 0 90 3d 60
        E 0 90 3e 60
        E 0 90 49 60
        E 0 90 4a 60
        E 0 90 55 60
        E 0 90 56 60
        E 0 90 61 60
        E 0 90 62 60
        E 120 80 1a 00
        E 0 80 1f 00
        E 0 80 3d 00
        E 0 80 3e 00
        E 0 80 49 00
        E 0 80 4a 00
        E 0 80 55 00
        E 0 80 56 00
        E 0 80 61 00
        E 0 80 62 00
        E 360 90 1f 60
        E 0 90 3e 60
        E 0 90 4a 60
        E 0 90 56 60
        E 0 90 62 60
        E 120 80 1f 00
        E 0 80 3e 00
        E 0 80 4a 00
        E 0 80 56 00
        E 0 80 62 00
        E 120 90 18 60
        E 0 90 54 60
        E 0 90 60 60
        E 120 80 18 00
        E 0 80 54 00
        E 0 80 60 00
        E 120 90 18 60
        E 0 90 1f 60
        E 0 90 3e 60
        E 0 90 48 60
        E 0 90 4a 60
        E 0 90 54 60
        E 0 90 56 60
        E 0 90 60 60
        E 0 90 62 60
        E 120 80 18 00
        E 0 80 1f 00
        E 0 80 3e 00
        E 0 80 48 00
        E 0 80 4a 00
        E 0 80 54 00
        E 0 80 56 00
        E 0 80 60 00
        E 0 80 62 00
        E 120 90 1a 60
        E 0 90 55 60
        E 0 90 61 60
        E 120 80 1a 00
        E 0 80 55 00
        E 0 80 61 00
        E 120 90 1f 60
        E 0 90 3e 60
        E 0 90 4a 60
        E 0 90 56 60
        E 0 90 62 60
        E 120 80 1f 00
        E 0 80 3e 00
        E 0 80 4a 00
        E 0 80 56 00
        E 0 80 62 00
        E 120 90 18 60
        E 0 90 54 60
        E 0 90 60 60
        E 120 80 18 00
        E 0 80 54 00
        E 0 80 60 00
        E 120 90 1a 60
        E 0 90 1f 60
        E 0 90 3d 60
        E 0 90 3e 60
        E 0 90 49 60
        E 0 90 4a 60
        E 0 90 55 60
        E 0 90 56 60
        E 0 90 61 60
        E 0 90 62 60
        E 120 80 1a 00
        E 0 80 1f 00
        E 0 80 3d 00
        E 0 80 3e 00
        E 0 80 49 00
        E 0 80 4a 00
        E 0 80 55 00
        E 0 80 56 00
        E 0 80 61 00
        E 0 80 62 00
        E 360 90 1f 60
        E 0 90 3e 60
        E 0 90 4a 60
        E 0 90 56 60
        E 0 90 62 60
        E 120 80 1f 00
        E 0 80 3e 00
        E 0 80 4a 00
        E 0 80 56 00
        E 0 80 62 00
        E 120 90 18 60
        E 0 90 54 60
        E 0 90 60 60
        E 120 80 18 00
        E 0 80 54 00
        E 0 80 60 00
        E 120 90 18 60
        E 0 90 1f 60
        E 0 90 3e 60
        E 0 90 48 60
        E 0 90 4a 60
        E 0 90 54 60
        E 0 90 56 60
        E 0 90 60 60
        E 0 90 62 60
        E 120 80 18 00
        E 0 80 1f 00
        E 0 80 3e 00
        E 0 80 48 00
        E 0 80 4a 00
        E 0 80 54 00
        E 0 80 56 00
        E 0 80 60 00
        E 0 80 62 00
        E 360 90 1f 60
        E 0 90 3e 60
        E 0 90 4a 60
        E 0 90 56 60
        E 0 90 62 60
        E 120 80 1f 00
        E 0 80 3e 00
        E 0 80 4a 00
        E 0 80 56 00
        E 0 80 62 00
        E 120 90 18 60
        E 0 90 54 60
        E 0 90 60 60
        E 120 80 18 00
        E 0 80 54 00
        E 0 80 60 00
        E 120 90 1a 60
        E 0 90 1f 60
        E 0 90 3d 60
        E 0 90 3e 60
        E 0 90 49 60
        E 0 90 4a 60
        E 0 90 55 60
        E 0 90 56 60
        E 0 90 61 60
        E 0 90 62 60
        E 120 80 1a 00
        E 0 80 1f 00
        E 0 80 3d 00
        E 0 80 3e 00
        E 0 80 49 00
        E 0 80 4a 00
        E 0 80 55 00
        E 0 80 56 00
        E 0 80 61 00
        E 0 80 62 00
        E 360 90 1f 60
        E 0 90 3e 60
        E 0 90 4a 60
        E 0 90 56 60
        E 0 90 62 60
        E 120 80 1f 00
        E 0 80 3e 00
        E 0 80 4a 00
        E 0 80 56 00
        E 0 80 62 00
        E 120 90 18 60
        E 0 90 54 60
        E 0 90 60 60
        E 120 80 18 00
        E 0 80 54 00
        E 0 80 60 00
        E 120 90 18 60
        E 0 90 1f 60
        E 0 90 3e 60
        E 0 90 48 60
        E 0 90 4a 60
        E 0 90 54 60
        E 0 90 56 60
        E 0 90 60 60
        E 0 90 62 60
        E 120 80 18 00
        E 0 80 1f 00
        E 0 80 3e 00
        E 0 80 48 00
        E 0 80 4a 00
        E 0 80 54 00
        E 0 80 56 00
        E 0 80 60 00
        E 0 80 62 00
        E 360 90 1f 60
        E 0 90 3e 60
        E 0 90 4a 60
        E 0 90 56 60
        E 0 90 62 60
        E 120 80 1f 00
        E 0 80 3e 00
        E 0 80 4a 00
        E 0 80 56 00
        E 0 80 62 00
        E 120 90 18 60
        E 0 90 54 60
        E 0 90 60 60
        E 120 80 18 00
        E 0 80 54 00
        E 0 80 60 00
        E 120 90 1a 60
        E 0 90 1f 60
        E 0 90 3d 60
        E 0 90 3e 60
        E 0 90 49 60
        E 0 90 4a 60
        E 0 90 55 60
        E 0 90 56 60
        E 0 90 61 60
        E 0 90 62 60
        E 120 80 1a 00
        E 0 80 1f 00
        E 0 80 3d 00
        E 0 80 3e 00
        E 0 80 49 00
        E 0 80 4a 00
        E 0 80 55 00
        E 0 80 56 00
        E 0 80 61 00
        E 0 80 62 00
        E 360 90 1f 60
        E 0 90 3e 60
        E 0 90 4a 60
        E 0 90 56 60
        E 0 90 62 60
        E 120 80 1f 00
        E 0 80 3e 00
        E 0 80 4a 00
        E 0 80 56 00
        E 0 80 62 00
        E 120 90 18 60
        E 0 90 54 60
        E 0 90 60 60
        E 120 80 18 00
        E 0 80 54 00
        E 0 80 60 00
        E 120 90 18 60
        E 0 90 1f 60
        E 0 90 3e 60
        E 0 90 48 60
        E 0 90 4a 60
        E 0 90 54 60
        E 0 90 56 60
        E 0 90 60 60
        E 0 90 62 60
        E 120 80 18 00
        E 0 80 1f 00
        E 0 80 3e 00
        E 0 80 48 00
        E 0 80 4a 00
        E 0 80 54 00
        E 0 80 56 00
        E 0 80 60 00
        E 0 80 62 00
        E 360 90 1f 60
        E 0 90 3e 60
        E 0 90 4a 60
        E 0 90 56 60
        E 0 90 62 60
        E 120 80 1f 00
        E 0 80 3e 00
        E 0 80 4a 00
        E 0 80 56 00
        E 0 80 62 00
        E 120 90 18 60
        E 0 90 54 60
        E 0 90 60 60
        E 120 80 18 00
        E 0 80 54 00
        E 0 80 60 00
        E 120 90 1a 60
        E 0 90 1f 60
        E 0 90 3d 60
        E 0 90 3e 60
        E 0 90 49 60
        E 0 90 4a 60
        E 0 90 55 60
        E 0 90 56 60
        E 0 90 61 60
        E 0 90 62 60
        E 120 80 1a 00
        E 0 80 1f 00
        E 0 80 3d 00
        E 0 80 3e 00
        E 0 80 49 00
        E 0 80 4a 00
        E 0 80 55 00
        E 0 80 56 00
        E 0 80 61 00
        E 0 80 62 00
        E 360 90 1f 60
        E 0 90 3e 60
        E 0 90 4a 60
        E 0 90 56 60
        E 0 90 62 60
        E 120 80 1f 00
        E 0 80 3e 00
        E 0 80 4a 00
        E 0 80 56 00
        E 0 80 62 00
        E 120 90 18 60
        E 0 90 54 60
        E 0 90 60 60
        E 120 80 18 00
        E 0 80 54 00
        E 0 80 60 00
        E 120 90 18 60
        E 0 90 1f 60
        E 0 90 3e 60
        E 0 90 48 60
        E 0 90 4a 60
        E 0 90 54 60
        E 0 90 56 60
        E 0 90 60 60
        E 0 90 62 60
        E 0 90 78 60
        E 0 90 79 60
        E 0 90 7a 60
        E 0 90 7b 60
        E 0 90 7c 60
        E 120 80 18 00
        E 0 80 1f 00
        E 0 80 3e 00
        E 0 80 48 00
        E 0 80 4a 00
        E 0 80 54 00
        E 0 80 56 00
        E 0 80 60 00
        E 0 80 62 00
        E 120 90 1a 60
        E 0 90 55 60
        E 0 90 61 60
        E 120 80 1a 00
        E 0 80 55 00
        E 0 80 61 00
        E 120 90 1f 60
        E 0 90 3e 60
        E 0 90 4a 60
        E 0 90 56 60
        E 0 90 62 60
        E 120 80 1f 00
        E 0 80 3e 00
        E 0 80 4a 00
        E 0 80 56 00
        E 0 80 62 00
        E 120 90 18 60
        E 0 90 54 60
        E 0 90 60 60
        E 120 80 18 00
        E 0 80 54 00
        E 0 80 60 00
        E 120 90 1a 60
        E 0 90 1f 60
        E 0 90 3d 60
        E 0 90 3e 60
        E 0 90 49 60
        E 0 90 4a 60
        E 0 90 55 60
        E 0 90 56 60
        E 0 90 61 60
        E 0 90 62 60
        E 120 80 1a 00
        E 0 80 1f 00
        E 0 80 3d 00
        E 0 80 3e 00
        E 0 80 49 00
        E 0 80 4a 00
        E 0 80 55 00
        E 0 80 56 00
        E 0 80 61 00
        E 0 80 62 00
        E 120 90 1a 60
        E 0 90 55 60
        E 0 90 61 60
        E 120 80 1a 00
        E 0 80 55 00
        E 0 80 61 00
        E 120 90 1a 60
        E 0 90 3d 60
        E 0 90 49 60
        E 0 90 55 60
        E 0 90 61 60
        E 120 80 1a 00
        E 0 80 3d 00
        E 0 80 49 00
        E 0 80 55 00
        E 0 80 61 00
        E 120 90 18 60
        E 0 90 19 60
        E 0 90 54 60
        E 0 90 60 60
        E 120 80 18 00
        E 0 80 54 00
        E 0 80 60 00
        <X 120 0
          /wFbcGxheV0=
        >
        E 0 80 78 00
        E 0 80 79 00
        E 0 80 7a 00
        E 0 80 7b 00
        E 0 80 7c 00
        E 0 80 19 00
        E 0 90 18 60
        E 0 90 2a 60
        E 0 90 3f 60
        E 0 90 48 60
        E 0 90 4b 60
        E 0 90 54 60
        E 0 90 57 60
        E 0 90 60 60
        E 0 90 63 60
        E 120 80 18 00
        E 0 80 2a 00
        E 0 80 3f 00
        E 0 80 48 00
        E 0 80 4b 00
        E 0 80 54 00
        E 0 80 57 00
        E 0 80 60 00
        E 0 80 63 00
        E 360 90 2a 60
        E 0 90 3f 60
        E 0 90 4b 60
        E 0 90 57 60
        E 0 90 63 60
        E 120 80 2a 00
        E 0 80 3f 00
        E 0 80 4b 00
        E 0 80 57 00
        E 0 80 63 00
        E 120 90 19 60
        E 240 80 19 00
        E 0 90 1a 60
        E 0 90 2a 60
        E 0 90 3d 60
        E 0 90 3f 60
        E 0 90 49 60
        E 0 90 4b 60
        E 0 90 55 60
        E 0 90 57 60
        E 0 90 61 60
        E 0 90 63 60
        E 120 80 1a 00
        E 0 80 2a 00
        E 0 80 3d 00
        E 0 80 3f 00
        E 0 80 49 00
        E 0 80 4b 00
        E 0 80 55 00
        E 0 80 57 00
        E 0 80 61 00
        E 0 80 63 00
        E 360 90 2a 60
        E 0 90 3f 60
        E 0 90 4b 60
        E 0 90 57 60
        E 0 90 63 60
        E 120 80 2a 00
        E 0 80 3f 00
        E 0 80 4b 00
        E 0 80 57 00
        E 0 80 63 00
        E 120 90 18 60
        E 0 90 19 60
        E 0 90 54 60
        E 0 90 60 60
        E 120 80 18 00
        E 0 80 54 00
        E 0 80 60 00
        E 120 80 19 00
        E 0 90 18 60
        E 0 90 2a 60
        E 0 90 3f 60
        E 0 90 48 60
        E 0 90 4b 60
        E 0 90 54 60
        E 0 90 57 60
        E 0 90 60 60
        E 0 90 63 60
        E 120 80 18 00
        E 0 80 2a 00
        E 0 80 3f 00
        E 0 80 48 00
        E 0 80 4b 00
        E 0 80 54 00
        E 0 80 57 00
        E 0 80 60 00
        E 0 80 63 00
        E 360 90 18 60
        E 0 90 2a 60
        E 0 90 3f 60
        E 0 90 48 60
        E 0 90 4b 60
        E 0 90 54 60
        E 0 90 57 60
        E 0 90 60 60
        E 0 90 63 60
        E 120 80 18 00
        E 0 80 2a 00
        E 0 80 3f 00
        E 0 80 48 00
        E 0 80 4b 00
        E 0 80 54 00
        E 0 80 57 00
        E 0 80 60 00
        E 0 80 63 00
        E 120 90 19 60
        E 240 80 19 00
        E 0 90 1a 60
        E 0 90 2a 60
        E 0 90 3d 60
        E 0 90 3f 60
        E 0 90 49 60
        E 0 90 4b 60
        E 0 90 55 60
        E 0 90 57 60
        E 0 90 61 60
        E 0 90 63 60
        E 120 80 1a 00
        E 0 80 2a 00
        E 0 80 3d 00
        E 0 80 3f 00
        E 0 80 49 00
        E 0 80 4b 00
        E 0 80 55 00
        E 0 80 57 00
        E 0 80 61 00
        E 0 80 63 00
        E 360 90 2a 60
        E 0 90 3f 60
        E 0 90 4b 60
        E 0 90 57 60
        E 0 90 63 60
        E 120 80 2a 00
        E 0 80 3f 00
        E 0 80 4b 00
        E 0 80 57 00
        E 0 80 63 00
        E 120 90 18 60
        E 0 90 19 60
        E 0 90 54 60
        E 0 90 60 60
        E 120 80 18 00
        E 0 80 54 00
        E 0 80 60 00
        E 120 80 19 00
        E 0 90 18 60
        E 0 90 27 60
        E 0 90 40 60
        E 0 90 48 60
        E 0 90 4c 60
        E 0 90 54 60
        E 0 90 58 60
        E 0 90 60 60
        E 0 90 64 60
        E 120 80 18 00
        E 0 80 27 00
        E 0 80 40 00
        E 0 80 48 00
        E 0 80 4c 00
        E 0 80 54 00
        E 0 80 58 00
        E 0 80 60 00
        E 0 80 64 00
        E 360 90 2a 60
        E 0 90 3f 60
        E 0 90 4b 60
        E 0 90 57 60
        E 0 90 63 60
        E 120 80 2a 00
        E 0 80 3f 00
        E 0 80 4b 00
        E 0 80 57 00
        E 0 80 63 00
        E 120 90 19 60
        E 240 80 19 00
        E 0 90 1a 60
        E 0 90 2a 60
        E 0 90 3d 60
        E 0 90 3f 60
        E 0 90 49 60
        E 0 90 4b 60
        E 0 90 55 60
        E 0 90 57 60
        E 0 90 61 60
        E 0 90 63 60
        E 120 80 1a 00
        E 0 80 2a 00
        E 0 80 3d 00
        E 0 80 3f 00
        E 0 80 49 00
        E 0 80 4b 00
        E 0 80 55 00
        E 0 80 57 00
        E 0 80 61 00
        E 0 80 63 00
        E 360 90 2a 60
        E 0 90 3f 60
        E 0 90 4b 60
        E 0 90 57 60
        E 0 90 63 60
        E 120 80 2a 00
        E 0 80 3f 00
        E 0 80 4b 00
        E 0 80 57 00
        E 0 80 63 00
        E 120 90 18 60
        E 0 90 19 60
        E 0 90 54 60
        E 0 90 60 60
        E 120 80 18 00
        E 0 80 54 00
        E 0 80 60 00
        E 120 80 19 00
        E 0 90 18 60
        E 0 90 2a 60
        E 0 90 3f 60
        E 0 90 48 60
        E 0 90 4b 60
        E 0 90 54 60
        E 0 90 57 60
        E 0 90 60 60
        E 0 90 63 60
        E 0 90 78 60
        E 0 90 79 60
        E 0 90 7a 60
        E 0 90 7b 60
        E 0 90 7c 60
        E 120 80 18 00
        E 0 80 2a 00
        E 0 80 3f 00
        E 0 80 48 00
        E 0 80 4b 00
        E 0 80 54 00
        E 0 80 57 00
        E 0 80 60 00
        E 0 80 63 00
        E 360 90 2a 60
        E 0 90 3f 60
        E 0 90 4b 60
        E 0 90 57 60
        E 0 90 63 60
        E 120 80 2a 00
        E 0 80 3f 00
        E 0 80 4b 00
        E 0 80 57 00
        E 0 80 63 00
        E 120 90 18 60
        E 0 90 19 60
        E 0 90 54 60
        E 0 90 60 60
        E 120 80 18 00
        E 0 80 54 00
        E 0 80 60 00
        E 120 80 19 00
        E 0 90 1a 60
        E 0 90 2a 60
        E 0 90 3d 60
        E 0 90 3f 60
        E 0 90 49 60
        E 0 90 4b 60
        E 0 90 55 60
        E 0 90 57 60
        E 0 90 61 60
        E 0 90 63 60
        E 120 80 1a 00
        E 0 80 2a 00
        E 0 80 3d 00
        E 0 80 3f 00
        E 0 80 49 00
        E 0 80 4b 00
        E 0 80 55 00
        E 0 80 57 00
        E 0 80 61 00
        E 0 80 63 00
        E 360 90 2a 60
        E 0 90 3f 60
        E 0 90 4b 60
        E 0 90 57 60
        E 0 90 63 60
        E 120 80 2a 00
        E 0 80 3f 00
        E 0 80 4b 00
        E 0 80 57 00
        E 0 80 63 00
        E 120 90 18 60
        E 0 90 19 60
        E 0 90 54 60
        E 0 90 60 60
        E 120 80 18 00
        E 0 80 54 00
        E 0 80 60 00
        E 120 80 78 00
        E 0 80 79 00
        E 0 80 7a 00
        E 0 80 7b 00
        E 0 80 7c 00
        E 0 80 19 00
        E 0 90 18 60
        E 0 90 27 60
        E 0 90 40 60
        E 0 90 48 60
        E 0 90 4c 60
        E 0 90 54 60
        E 0 90 58 60
        E 0 90 60 60
        E 0 90 64 60
        E 120 80 18 00
        E 0 80 27 00
        E 0 80 40 00
        E 0 80 48 00
        E 0 80 4c 00
        E 0 80 54 00
        E 0 80 58 00
        E 0 80 60 00
        E 0 80 64 00
        E 360 90 2a 60
        E 0 90 3f 60
        E 0 90 4b 60
        E 0 90 57 60
        E 0 90 63 60
        E 120 80 2a 00
        E 0 80 3f 00
        E 0 80 4b 00
        E 0 80 57 00
        E 0 80 63 00
        E 120 90 18 60
        E 0 90 19 60
        E 0 90 54 60
        E 0 90 60 60
        E 120 80 18 00
        E 0 80 54 00
        E 0 80 60 00
        E 120 80 19 00
        E 0 90 1a 60
        E 0 90 2a 60
        E 0 90 3d 60
        E 0 90 3f 60
        E 0 90 49 60
        E 0 90 4b 60
        E 0 90 55 60
        E 0 90 57 60
        E 0 90 61 60
        E 0 90 63 60
        E 120 80 1a 00
        E 0 80 2a 00
        E 0 80 3d 00
        E 0 80 3f 00
        E 0 80 49 00
        E 0 80 4b 00
        E 0 80 55 00
        E 0 80 57 00
        E 0 80 61 00
        E 0 80 63 00
        E 360 90 2a 60
        E 0 90 3f 60
        E 0 90 4b 60
        E 0 90 57 60
        E 0 90 63 60
        E 120 80 2a 00
        E 0 80 3f 00
        E 0 80 4b 00
        E 0 80 57 00
        E 0 80 63 00
        E 120 90 18 60
        E 0 90 19 60
        E 0 90 54 60
        E 0 90 60 60
        E 120 80 18 00
        E 0 80 54 00
        E 0 80 60 00
        E 120 80 19 00
        E 0 90 18 60
        E 0 90 2a 60
        E 0 90 3f 60
        E 0 90 48 60
        E 0 90 4b 60
        E 0 90 54 60
        E 0 90 57 60
        E 0 90 60 60
        E 0 90 63 60
        E 120 80 18 00
        E 0 80 2a 00
        E 0 80 3f 00
        E 0 80 48 00
        E 0 80 4b 00
        E 0 80 54 00
        E 0 80 57 00
        E 0 80 60 00
        E 0 80 63 00
        E 360 90 2a 60
        E 0 90 3f 60
        E 0 90 4b 60
        E 0 90 57 60
        E 0 90 63 60
        E 120 80 2a 00
        E 0 80 3f 00
        E 0 80 4b 00
        E 0 80 57 00
        E 0 80 63 00
        E 120 90 18 60
        E 0 90 19 60
        E 0 90 54 60
        E 0 90 60 60
        E 120 80 18 00
        E 0 80 54 00
        E 0 80 60 00
        E 120 80 19 00
        E 0 90 1a 60
        E 0 90 2a 60
        E 0 90 3d 60
        E 0 90 3f 60
        E 0 90 49 60
        E 0 90 4b 60
        E 0 90 55 60
        E 0 90 57 60
        E 0 90 61 60
        E 0 90 63 60
        E 120 80 1a 00
        E 0 80 2a 00
        E 0 80 3d 00
        E 0 80 3f 00
        E 0 80 49 00
        E 0 80 4b 00
        E 0 80 55 00
        E 0 80 57 00
        E 0 80 61 00
        E 0 80 63 00
        E 360 90 2a 60
        E 0 90 3f 60
        E 0 90 4b 60
        E 0 90 57 60
        E 0 90 63 60
        E 120 80 2a 00
        E 0 80 3f 00
        E 0 80 4b 00
        E 0 80 57 00
        E 0 80 63 00
        E 120 90 18 60
        E 0 90 19 60
        E 0 90 54 60
        E 0 90 60 60
        E 120 80 18 00
        E 0 80 54 00
        E 0 80 60 00
        E 120 80 19 00
        E 0 90 18 60
        E 0 90 26 60
        E 0 90 40 60
        E 0 90 48 60
        E 0 90 4c 60
        E 0 90 54 60
        E 0 90 58 60
        E 0 90 60 60
        E 0 90 64 60
        E 120 80 18 00
        E 0 80 26 00
        E 0 80 40 00
        E 0 80 48 00
        E 0 80 4c 00
        E 0 80 54 00
        E 0 80 58 00
        E 0 80 60 00
        E 0 80 64 00
        E 600 90 19 60
        E 240 80 19 00
        E 720 90 19 60
        E 240 80 19 00
        E 720 90 19 60
        E 240 80 19 00
        E 480 90 1a 60
        E 0 90 1b 60
        E 0 90 3d 60
        E 0 90 3e 60
        E 0 90 49 60
        E 0 90 4a 60
        E 0 90 55 60
        E 0 90 56 60
        E 0 90 61 60
        E 0 90 62 60
        E 0 90 6e 60
        E 120 80 1a 00
        E 0 80 1b 00
        E 0 80 3d 00
        E 0 80 3e 00
        E 0 80 49 00
        E 0 80 4a 00
        E 0 80 55 00
        E 0 80 56 00
        E 0 80 61 00
        E 0 80 62 00
        E 0 80 6e 00
        E 120 90 19 60
        E 240 80 19 00
        E 0 90 18 60
        E 0 90 2a 60
        E 0 90 3f 60
        E 0 90 48 60
        E 0 90 4b 60
        E 0 90 54 60
        E 0 90 57 60
        E 0 90 60 60
        E 0 90 63 60
        E 120 80 18 00
        E 0 80 2a 00
        E 0 80 3f 00
        E 0 80 48 00
        E 0 80 4b 00
        E 0 80 54 00
        E 0 80 57 00
        E 0 80 60 00
        E 0 80 63 00
        E 600 90 19 60
        E 240 80 19 00
        E 0 90 1a 60
        E 0 90 3d 60
        E 0 90 49 60
        E 0 90 55 60
        E 0 90 61 60
        E 120 80 1a 00
        E 0 80 3d 00
        E 0 80 49 00
        E 0 80 55 00
        E 0 80 61 00
        E 360 90 18 60
        E 0 90 3c 60
        E 0 90 48 60
        E 0 90 54 60
        E 0 90 60 60
        E 120 80 18 00
        E 0 80 3c 00
        E 0 80 48 00
        E 0 80 54 00
        E 0 80 60 00
        E 120 90 19 60
        E 240 80 19 00
        E 0 90 1a 60
        E 0 90 3d 60
        E 0 90 49 60
        E 0 90 55 60
        E 0 90 61 60
        E 0 90 78 60
        E 0 90 79 60
        E 0 90 7a 60
        E 0 90 7b 60
        E 0 90 7c 60
        E 120 80 1a 00
        E 0 80 3d 00
        E 0 80 49 00
        E 0 80 55 00
        E 0 80 61 00
        E 120 90 1a 60
        E 0 90 55 60
        E 0 90 61 60
        E 120 80 1a 00
        E 0 80 55 00
        E 0 80 61 00
        E 360 90 19 60
        E 0 90 2f 60
        E 0 90 3e 60
        E 0 90 4a 60
        E 0 90 56 60
        E 0 90 62 60
        E 0 90 6e 60
        E 120 80 2f 00
        E 0 80 3e 00
        E 0 80 4a 00
        E 0 80 56 00
        E 0 80 62 00
        E 0 80 6e 00
        E 120 80 19 00
        E 240 90 31 60
        E 0 90 57 60
        E 0 90 63 60
        E 0 90 6f 60
        E 120 80 31 00
        E 0 80 57 00
        E 0 80 63 00
        E 0 80 6f 00
        E 120 90 30 60
        E 0 90 3f 60
        E 0 90 4b 60
        E 0 90 57 60
        E 0 90 63 60
        E 0 90 6f 60
        E 120 80 30 00
        E 0 80 3f 00
        E 0 80 4b 00
        E 0 80 57 00
        E 0 80 63 00
        E 0 80 6f 00
        E 120 90 18 60
        E 0 90 19 60
        E 0 90 54 60
        E 0 90 60 60
        E 120 80 18 00
        E 0 80 54 00
        E 0 80 60 00
        E 120 80 78 00
        E 0 80 79 00
        E 0 80 7a 00
        E 0 80 7b 00
        E 0 80 7c 00
        E 0 80 19 00
        E 0 90 18 60
        E 0 90 26 60
        E 0 90 40 60
        E 0 90 48 60
        E 0 90 4c 60
        E 0 90 54 60
        E 0 90 58 60
        E 0 90 60 60
        E 0 90 64 60
        E 120 80 18 00
        E 0 80 26 00
        E 0 80 40 00
        E 0 80 48 00
        E 0 80 4c 00
        E 0 80 54 00
        E 0 80 58 00
        E 0 80 60 00
        E 0 80 64 00
        E 360 90 1f 60
        E 0 90 3e 60
        E 0 90 4a 60
        E 0 90 56 60
        E 0 90 62 60
        E 120 80 1f 00
        E 0 80 3e 00
        E 0 80 4a 00
        E 0 80 56 00
        E 0 80 62 00
        E 360 90 1a 60
        E 0 90 2a 60
        E 0 90 3d 60
        E 0 90 3f 60
        E 0 90 49 60
        E 0 90 4b 60
        E 0 90 55 60
        E 0 90 57 60
        E 0 90 61 60
        E 0 90 63 60
        E 0 90 74 60
        E 120 80 1a 00
        E 0 80 2a 00
        E 0 80 3d 00
        E 0 80 3f 00
        E 0 80 49 00
        E 0 80 4b 00
        E 0 80 55 00
        E 0 80 57 00
        E 0 80 61 00
        E 0 80 63 00
        E 360 90 1f 60
        E 0 90 3e 60
        E 0 90 4a 60
        E 0 90 56 60
        E 0 90 62 60
        E 120 80 1f 00
        E 0 80 3e 00
        E 0 80 4a 00
        E 0 80 56 00
        E 0 80 62 00
        E 120 90 18 60
        E 0 90 54 60
        E 0 90 60 60
        E 120 80 18 00
        E 0 80 54 00
        E 0 80 60 00
        E 120 90 18 60
        E 0 90 1f 60
        E 0 90 3e 60
        E 0 90 48 60
        E 0 90 4a 60
        E 0 90 54 60
        E 0 90 56 60
        E 0 90 60 60
        E 0 90 62 60
        E 120 80 18 00
        E 0 80 1f 00
        E 0 80 3e 00
        E 0 80 48 00
        E 0 80 4a 00
        E 0 80 54 00
        E 0 80 56 00
        E 0 80 60 00
        E 0 80 62 00
        E 360 90 1f 60
        E 0 90 3e 60
        E 0 90 4a 60
        E 0 90 56 60
        E 0 90 62 60
        E 120 80 1f 00
        E 0 80 3e 00
        E 0 80 4a 00
        E 0 80 56 00
        E 0 80 62 00
        E 120 90 18 60
        E 0 90 54 60
        E 0 90 60 60
        E 120 80 18 00
        E 0 80 54 00
        E 0 80 60 00
        E 120 90 1a 60
        E 0 90 2a 60
        E 0 90 3d 60
        E 0 90 3f 60
        E 0 90 49 60
        E 0 90 4b 60
        E 0 90 55 60
        E 0 90 57 60
        E 0 90 61 60
        E 0 90 63 60
        E 120 80 1a 00
        E 0 80 2a 00
        E 0 80 3d 00
        E 0 80 3f 00
        E 0 80 49 00
        E 0 80 4b 00
        E 0 80 55 00
        E 0 80 57 00
        E 0 80 61 00
        E 0 80 63 00
        E 360 90 1f 60
        E 0 90 3e 60
        E 0 90 4a 60
        E 0 90 56 60
        E 0 90 62 60
        E 120 80 1f 00
        E 0 80 3e 00
        E 0 80 4a 00
        E 0 80 56 00
        E 0 80 62 00
        E 120 90 18 60
        E 0 90 54 60
        E 0 90 60 60
        E 120 80 18 00
        E 0 80 54 00
        E 0 80 60 00
        E 120 90 18 60
        E 0 90 1f 60
        E 0 90 3e 60
        E 0 90 48 60
        E 0 90 4a 60
        E 0 90 54 60
        E 0 90 56 60
        E 0 90 60 60
        E 0 90 62 60
        E 120 80 74 00
        E 0 80 18 00
        E 0 80 1f 00
        E 0 80 3e 00
        E 0 80 48 00
        E 0 80 4a 00
        E 0 80 54 00
        E 0 80 56 00
        E 0 80 60 00
        E 0 80 62 00
        E 360 90 1f 60
        E 0 90 3e 60
        E 0 90 4a 60
        E 0 90 56 60
        E 0 90 62 60
        E 120 80 1f 00
        E 0 80 3e 00
        E 0 80 4a 00
        E 0 80 56 00
        E 0 80 62 00
        E 120 90 18 60
        E 0 90 54 60
        E 0 90 60 60
        E 120 80 18 00
        E 0 80 54 00
        E 0 80 60 00
        E 120 90 1a 60
        E 0 90 2a 60
        E 0 90 3d 60
        E 0 90 3f 60
        E 0 90 49 60
        E 0 90 4b 60
        E 0 90 55 60
        E 0 90 57 60
        E 0 90 61 60
        E 0 90 63 60
        E 120 80 1a 00
        E 0 80 2a 00
        E 0 80 3d 00
        E 0 80 3f 00
        E 0 80 49 00
        E 0 80 4b 00
        E 0 80 55 00
        E 0 80 57 00
        E 0 80 61 00
        E 0 80 63 00
        E 360 90 1f 60
        E 0 90 3e 60
        E 0 90 4a 60
        E 0 90 56 60
        E 0 90 62 60
        E 120 80 1f 00
        E 0 80 3e 00
        E 0 80 4a 00
        E 0 80 56 00
        E 0 80 62 00
        E 120 90 18 60
        E 0 90 54 60
        E 0 90 60 60
        E 120 80 18 00
        E 0 80 54 00
        E 0 80 60 00
        E 120 90 18 60
        E 0 90 1f 60
        E 0 90 3e 60
        E 0 90 48 60
        E 0 90 4a 60
        E 0 90 54 60
        E 0 90 56 60
        E 0 90 60 60
        E 0 90 62 60
        E 0 90 78 60
        E 0 90 79 60
        E 0 90 7a 60
        E 0 90 7b 60
        E 0 90 7c 60
        E 120 80 18 00
        E 0 80 1f 00
        E 0 80 3e 00
        E 0 80 48 00
        E 0 80 4a 00
        E 0 80 54 00
        E 0 80 56 00
        E 0 80 60 00
        E 0 80 62 00
        E 360 90 1f 60
        E 0 90 3e 60
        E 0 90 4a 60
        E 0 90 56 60
        E 0 90 62 60
        E 120 80 1f 00
        E 0 80 3e 00
        E 0 80 4a 00
        E 0 80 56 00
        E 0 80 62 00
        E 120 90 18 60
        E 0 90 54 60
        E 0 90 60 60
        E 120 80 18 00
        E 0 80 54 00
        E 0 80 60 00
        E 120 90 1a 60
        E 0 90 2a 60
        E 0 90 3d 60
        E 0 90 3f 60
        E 0 90 49 60
        E 0 90 4b 60
        E 0 90 55 60
        E 0 90 57 60
        E 0 90 61 60
        E 0 90 63 60
        E 120 80 1a 00
        E 0 80 2a 00
        E 0 80 3d 00
        E 0 80 3f 00
        E 0 80 49 00
        E 0 80 4b 00
        E 0 80 55 00
        E 0 80 57 00
        E 0 80 61 00
        E 0 80 63 00
        E 360 90 1f 60
        E 0 90 3e 60
        E 0 90 4a 60
        E 0 90 56 60
        E 0 90 62 60
        E 120 80 1f 00
        E 0 80 3e 00
        E 0 80 4a 00
        E 0 80 56 00
        E 0 80 62 00
        E 120 90 18 60
        E 0 90 54 60
        E 0 90 60 60
        E 120 80 18 00
        E 0 80 54 00
        E 0 80 60 00
        E 120 80 78 00
        E 0 80 79 00
        E 0 80 7a 00
        E 0 80 7b 00
        E 0 80 7c 00
        E 0 90 18 60
        E 0 90 1f 60
        E 0 90 3e 60
        E 0 90 48 60
        E 0 90 4a 60
        E 0 90 54 60
        E 0 90 56 60
        E 0 90 60 60
        E 0 90 62 60
        E 120 80 18 00
        E 0 80 1f 00
        E 0 80 3e 00
        E 0 80 48 00
        E 0 80 4a 00
        E 0 80 54 00
        E 0 80 56 00
        E 0 80 60 00
        E 0 80 62 00
        E 120 90 1a 60
        E 0 90 55 60
        E 0 90 61 60
        E 120 80 1a 00
        E 0 80 55 00
        E 0 80 61 00
        E 120 90 1a 60
        E 0 90 3d 60
        E 0 90 49 60
        E 0 90 55 60
        E 0 90 61 60
        E 120 80 1a 00
        E 0 80 3d 00
        E 0 80 49 00
        E 0 80 55 00
        E 0 80 61 00
        E 120 90 18 60
        E 0 90 54 60
        E 0 90 60 60
        E 120 80 18 00
        E 0 80 54 00
        E 0 80 60 00
        E 120 90 1a 60
        E 0 90 2a 60
        E 0 90 3d 60
        E 0 90 3f 60
        E 0 90 49 60
        E 0 90 4b 60
        E 0 90 55 60
        E 0 90 57 60
        E 0 90 61 60
        E 0 90 63 60
        E 120 80 1a 00
        E 0 80 2a 00
        E 0 80 3d 00
        E 0 80 3f 00
        E 0 80 49 00
        E 0 80 4b 00
        E 0 80 55 00
        E 0 80 57 00
        E 0 80 61 00
        E 0 80 63 00
        E 360 90 1f 60
        E 0 90 3e 60
        E 0 90 4a 60
        E 0 90 56 60
        E 0 90 62 60
        E 120 80 1f 00
        E 0 80 3e 00
        E 0 80 4a 00
        E 0 80 56 00
        E 0 80 62 00
        E 120 90 18 60
        E 0 90 54 60
        E 0 90 60 60
        E 120 80 18 00
        E 0 80 54 00
        E 0 80 60 00
        E 120 90 18 60
        E 0 90 1f 60
        E 0 90 3e 60
        E 0 90 48 60
        E 0 90 4a 60
        E 0 90 54 60
        E 0 90 56 60
        E 0 90 60 60
        E 0 90 62 60
        E 120 80 18 00
        E 0 80 1f 00
        E 0 80 3e 00
        E 0 80 48 00
        E 0 80 4a 00
        E 0 80 54 00
        E 0 80 56 00
        E 0 80 60 00
        E 0 80 62 00
        E 360 90 1f 60
        E 0 90 3e 60
        E 0 90 4a 60
        E 0 90 56 60
        E 0 90 62 60
        E 120 80 1f 00
        E 0 80 3e 00
        E 0 80 4a 00
        E 0 80 56 00
        E 0 80 62 00
        E 120 90 18 60
        E 0 90 54 60
        E 0 90 60 60
        E 120 80 18 00
        E 0 80 54 00
        E 0 80 60 00
        E 120 90 1a 60
        E 0 90 2a 60
        E 0 90 3d 60
        E 0 90 3f 60
        E 0 90 49 60
        E 0 90 4b 60
        E 0 90 55 60
        E 0 90 57 60
        E 0 90 61 60
        E 0 90 63 60
        E 120 80 1a 00
        E 0 80 2a 00
        E 0 80 3d 00
        E 0 80 3f 00
        E 0 80 49 00
        E 0 80 4b 00
        E 0 80 55 00
        E 0 80 57 00
        E 0 80 61 00
        E 0 80 63 00
        E 360 90 1f 60
        E 0 90 3e 60
        E 0 90 4a 60
        E 0 90 56 60
        E 0 90 62 60
        E 120 80 1f 00
        E 0 80 3e 00
        E 0 80 4a 00
        E 0 80 56 00
        E 0 80 62 00
        E 120 90 18 60
        E 0 90 54 60
        E 0 90 60 60
        E 120 80 18 00
        E 0 80 54 00
        E 0 80 60 00
        E 120 90 18 60
        E 0 90 1f 60
        E 0 90 3e 60
        E 0 90 48 60
        E 0 90 4a 60
        E 0 90 54 60
        E 0 90 56 60
        E 0 90 60 60
        E 0 90 62 60
        E 120 80 18 00
        E 0 80 1f 00
        E 0 80 3e 00
        E 0 80 48 00
        E 0 80 4a 00
        E 0 80 54 00
        E 0 80 56 00
        E 0 80 60 00
        E 0 80 62 00
        E 360 90 1f 60
        E 0 90 3e 60
        E 0 90 4a 60
        E 0 90 56 60
        E 0 90 62 60
        E 120 80 1f 00
        E 0 80 3e 00
        E 0 80 4a 00
        E 0 80 56 00
        E 0 80 62 00
        E 120 90 18 60
        E 0 90 54 60
        E 0 90 60 60
        E 120 80 18 00
        E 0 80 54 00
        E 0 80 60 00
        E 120 90 1a 60
        E 0 90 2a 60
        E 0 90 3d 60
        E 0 90 3f 60
        E 0 90 49 60
        E 0 90 4b 60
        E 0 90 55 60
        E 0 90 57 60
        E 0 90 61 60
        E 0 90 63 60
        E 120 80 1a 00
        E 0 80 2a 00
        E 0 80 3d 00
        E 0 80 3f 00
        E 0 80 49 00
        E 0 80 4b 00
        E 0 80 55 00
        E 0 80 57 00
        E 0 80 61 00
        E 0 80 63 00
        E 360 90 1f 60
        E 0 90 3e 60
        E 0 90 4a 60
        E 0 90 56 60
        E 0 90 62 60
        E 120 80 1f 00
        E 0 80 3e 00
        E 0 80 4a 00
        E 0 80 56 00
        E 0 80 62 00
        E 120 90 18 60
        E 0 90 54 60
        E 0 90 60 60
        E 120 80 18 00
        E 0 80 54 00
        E 0 80 60 00
        E 120 90 18 60
        E 0 90 1f 60
        E 0 90 3e 60
        E 0 90 48 60
        E 0 90 4a 60
        E 0 90 54 60
        E 0 90 56 60
        E 0 90 60 60
        E 0 90 62 60
        E 0 90 78 60
        E 0 90 79 60
        E 0 90 7a 60
        E 0 90 7b 60
        E 0 90 7c 60
        E 120 80 18 00
        E 0 80 1f 00
        E 0 80 3e 00
        E 0 80 48 00
        E 0 80 4a 00
        E 0 80 54 00
        E 0 80 56 00
        E 0 80 60 00
        E 0 80 62 00
        E 360 90 1a 60
        E 0 90 1f 60
        E 0 90 3d 60
        E 0 90 3e 60
        E 0 90 49 60
        E 0 90 4a 60
        E 0 90 55 60
        E 0 90 56 60
        E 0 90 61 60
        E 0 90 62 60
        E 120 80 1a 00
        E 0 80 1f 00
        E 0 80 3d 00
        E 0 80 3e 00
        E 0 80 49 00
        E 0 80 4a 00
        E 0 80 55 00
        E 0 80 56 00
        E 0 80 61 00
        E 0 80 62 00
        E 120 90 18 60
        E 0 90 54 60
        E 0 90 60 60
        E 120 80 18 00
        E 0 80 54 00
        E 0 80 60 00
        E 120 90 1a 60
        E 0 90 2a 60
        E 0 90 3d 60
        E 0 90 3f 60
        E 0 90 49 60
        E 0 90 4b 60
        E 0 90 55 60
        E 0 90 57 60
        E 0 90 61 60
        E 0 90 63 60
        E 120 80 1a 00
        E 0 80 2a 00
        E 0 80 3d 00
        E 0 80 3f 00
        E 0 80 49 00
        E 0 80 4b 00
        E 0 80 55 00
        E 0 80 57 00
        E 0 80 61 00
        E 0 80 63 00
        E 360 90 1f 60
        E 0 90 3e 60
        E 0 90 4a 60
        E 0 90 56 60
        E 0 90 62 60
        E 120 80 1f 00
        E 0 80 3e 00
        E 0 80 4a 00
        E 0 80 56 00
        E 0 80 62 00
        E 120 90 18 60
        E 0 90 54 60
        E 0 90 60 60
        E 120 80 18 00
        E 0 80 54 00
        E 0 80 60 00
        E 120 80 78 00
        E 0 80 79 00
        E 0 80 7a 00
        E 0 80 7b 00
        E 0 80 7c 00
        E 0 90 18 60
        E 0 90 27 60
        E 0 90 40 60
        E 0 90 48 60
        E 0 90 4c 60
        E 0 90 54 60
        E 0 90 58 60
        E 0 90 60 60
        E 0 90 64 60
        E 120 80 18 00
        E 0 80 27 00
        E 0 80 40 00
        E 0 80 48 00
        E 0 80 4c 00
        E 0 80 54 00
        E 0 80 58 00
        E 0 80 60 00
        E 0 80 64 00
        E 360 90 2a 60
        E 0 90 3f 60
        E 0 90 4b 60
        E 0 90 57 60
        E 0 90 63 60
        E 120 80 2a 00
        E 0 80 3f 00
        E 0 80 4b 00
        E 0 80 57 00
        E 0 80 63 00
        E 120 90 18 60
        E 0 90 54 60
        E 0 90 60 60
        E 120 80 18 00
        E 0 80 54 00
        E 0 80 60 00
        E 120 90 1a 60
        E 0 90 2a 60
        E 0 90 3d 60
        E 0 90 3f 60
        E 0 90 49 60
        E 0 90 4b 60
        E 0 90 55 60
        E 0 90 57 60
        E 0 90 61 60
        E 0 90 63 60
        E 120 80 1a 00
        E 0 80 2a 00
        E 0 80 3d 00
        E 0 80 3f 00
        E 0 80 49 00
        E 0 80 4b 00
        E 0 80 55 00
        E 0 80 57 00
        E 0 80 61 00
        E 0 80 63 00
        E 360 90 2a 60
        E 0 90 3f 60
        E 0 90 4b 60
        E 0 90 57 60
        E 0 90 63 60
        E 120 80 2a 00
        E 0 80 3f 00
        E 0 80 4b 00
        E 0 80 57 00
        E 0 80 63 00
        E 120 90 18 60
        E 0 90 54 60
        E 0 90 60 60
        E 120 80 18 00
        E 0 80 54 00
        E 0 80 60 00
        E 120 90 18 60
        E 0 90 2a 60
        E 0 90 3f 60
        E 0 90 48 60
        E 0 90 4b 60
        E 0 90 54 60
        E 0 90 57 60
        E 0 90 60 60
        E 0 90 63 60
        E 120 80 18 00
        E 0 80 2a 00
        E 0 80 3f 00
        E 0 80 48 00
        E 0 80 4b 00
        E 0 80 54 00
        E 0 80 57 00
        E 0 80 60 00
        E 0 80 63 00
        E 360 90 2a 60
        E 0 90 3f 60
        E 0 90 4b 60
        E 0 90 57 60
        E 0 90 63 60
        E 120 80 2a 00
        E 0 80 3f 00
        E 0 80 4b 00
        E 0 80 57 00
        E 0 80 63 00
        E 120 90 18 60
        E 0 90 54 60
        E 0 90 60 60
        E 120 80 18 00
        E 0 80 54 00
        E 0 80 60 00
        E 120 90 1a 60
        E 0 90 2a 60
        E 0 90 3d 60
        E 0 90 3f 60
        E 0 90 49 60
        E 0 90 4b 60
        E 0 90 55 60
        E 0 90 57 60
        E 0 90 61 60
        E 0 90 63 60
        E 120 80 1a 00
        E 0 80 2a 00
        E 0 80 3d 00
        E 0 80 3f 00
        E 0 80 49 00
        E 0 80 4b 00
        E 0 80 55 00
        E 0 80 57 00
        E 0 80 61 00
        E 0 80 63 00
        E 360 90 2a 60
        E 0 90 3f 60
        E 0 90 4b 60
        E 0 90 57 60
        E 0 90 63 60
        E 120 80 2a 00
        E 0 80 3f 00
        E 0 80 4b 00
        E 0 80 57 00
        E 0 80 63 00
        E 120 90 18 60
        E 0 90 54 60
        E 0 90 60 60
        E 120 80 18 00
        E 0 80 54 00
        E 0 80 60 00
        E 120 90 18 60
        E 0 90 2a 60
        E 0 90 3f 60
        E 0 90 48 60
        E 0 90 4b 60
        E 0 90 54 60
        E 0 90 57 60
        E 0 90 60 60
        E 0 90 63 60
        E 120 80 18 00
        E 0 80 2a 00
        E 0 80 3f 00
        E 0 80 48 00
        E 0 80 4b 00
        E 0 80 54 00
        E 0 80 57 00
        E 0 80 60 00
        E 0 80 63 00
        E 360 90 2a 60
        E 0 90 3f 60
        E 0 90 4b 60
        E 0 90 57 60
        E 0 90 63 60
        E 120 80 2a 00
        E 0 80 3f 00
        E 0 80 4b 00
        E 0 80 57 00
        E 0 80 63 00
        E 120 90 18 60
        E 0 90 54 60
        E 0 90 60 60
        E 120 80 18 00
        E 0 80 54 00
        E 0 80 60 00
        E 120 90 1a 60
        E 0 90 2a 60
        E 0 90 3d 60
        E 0 90 3f 60
        E 0 90 49 60
        E 0 90 4b 60
        E 0 90 55 60
        E 0 90 57 60
        E 0 90 61 60
        E 0 90 63 60
        E 120 80 1a 00
        E 0 80 2a 00
        E 0 80 3d 00
        E 0 80 3f 00
        E 0 80 49 00
        E 0 80 4b 00
        E 0 80 55 00
        E 0 80 57 00
        E 0 80 61 00
        E 0 80 63 00
        E 360 90 2a 60
        E 0 90 3f 60
        E 0 90 4b 60
        E 0 90 57 60
        E 0 90 63 60
        E 120 80 2a 00
        E 0 80 3f 00
        E 0 80 4b 00
        E 0 80 57 00
        E 0 80 63 00
        E 120 90 18 60
        E 0 90 54 60
        E 0 90 60 60
        E 120 80 18 00
        E 0 80 54 00
        E 0 80 60 00
        E 120 90 18 60
        E 0 90 2a 60
        E 0 90 3f 60
        E 0 90 48 60
        E 0 90 4b 60
        E 0 90 54 60
        E 0 90 57 60
        E 0 90 60 60
        E 0 90 63 60
        E 0 90 78 60
        E 0 90 79 60
        E 0 90 7a 60
        E 0 90 7b 60
        E 0 90 7c 60
        E 120 80 18 00
        E 0 80 2a 00
        E 0 80 3f 00
        E 0 80 48 00
        E 0 80 4b 00
        E 0 80 54 00
        E 0 80 57 00
        E 0 80 60 00
        E 0 80 63 00
        E 360 90 2a 60
        E 0 90 3f 60
        E 0 90 4b 60
        E 0 90 57 60
        E 0 90 63 60
        E 120 80 2a 00
        E 0 80 3f 00
        E 0 80 4b 00
        E 0 80 57 00
        E 0 80 63 00
        E 120 90 18 60
        E 0 90 54 60
        E 0 90 60 60
        E 120 80 18 00
        E 0 80 54 00
        E 0 80 60 00
        E 120 90 1a 60
        E 0 90 2a 60
        E 0 90 3d 60
        E 0 90 3f 60
        E 0 90 49 60
        E 0 90 4b 60
        E 0 90 55 60
        E 0 90 57 60
        E 0 90 61 60
        E 0 90 63 60
        E 120 80 1a 00
        E 0 80 2a 00
        E 0 80 3d 00
        E 0 80 3f 00
        E 0 80 49 00
        E 0 80 4b 00
        E 0 80 55 00
        E 0 80 57 00
        E 0 80 61 00
        E 0 80 63 00
        E 120 90 18 60
        E 0 90 54 60
        E 0 90 60 60
        E 120 80 18 00
        E 0 80 54 00
        E 0 80 60 00
        E 120 90 2a 60
        E 0 90 3f 60
        E 0 90 4b 60
        E 0 90 57 60
        E 0 90 63 60
        E 120 80 2a 00
        E 0 80 3f 00
        E 0 80 4b 00
        E 0 80 57 00
        E 0 80 63 00
        E 120 90 18 60
        E 0 90 54 60
        E 0 90 60 60
        E 120 80 18 00
        E 0 80 54 00
        E 0 80 60 00
        E 120 80 78 00
        E 0 80 79 00
        E 0 80 7a 00
        E 0 80 7b 00
        E 0 80 7c 00
        E 0 90 18 60
        E 0 90 2a 60
        E 0 90 3f 60
        E 0 90 48 60
        E 0 90 4b 60
        E 0 90 54 60
        E 0 90 57 60
        E 0 90 60 60
        E 0 90 63 60
        E 120 80 18 00
        E 0 80 2a 00
        E 0 80 3f 00
        E 0 80 48 00
        E 0 80 4b 00
        E 0 80 54 00
        E 0 80 57 00
        E 0 80 60 00
        E 0 80 63 00
        E 360 90 2a 60
        E 0 90 3f 60
        E 0 90 4b 60
        E 0 90 57 60
        E 0 90 63 60
        E 120 80 2a 00
        E 0 80 3f 00
        E 0 80 4b 00
        E 0 80 57 00
        E 0 80 63 00
        E 120 90 18 60
        E 0 90 54 60
        E 0 90 60 60
        E 120 80 18 00
        E 0 80 54 00
        E 0 80 60 00
        E 120 90 1a 60
        E 0 90 2a 60
        E 0 90 3d 60
        E 0 90 3f 60
        E 0 90 49 60
        E 0 90 4b 60
        E 0 90 55 60
        E 0 90 57 60
        E 0 90 61 60
        E 0 90 63 60
        E 120 80 1a 00
        E 0 80 2a 00
        E 0 80 3d 00
        E 0 80 3f 00
        E 0 80 49 00
        E 0 80 4b 00
        E 0 80 55 00
        E 0 80 57 00
        E 0 80 61 00
        E 0 80 63 00
        E 360 90 2a 60
        E 0 90 3f 60
        E 0 90 4b 60
        E 0 90 57 60
        E 0 90 63 60
        E 120 80 2a 00
        E 0 80 3f 00
        E 0 80 4b 00
        E 0 80 57 00
        E 0 80 63 00
        E 120 90 18 60
        E 0 90 54 60
        E 0 90 60 60
        E 120 80 18 00
        E 0 80 54 00
        E 0 80 60 00
        E 120 90 18 60
        E 0 90 2a 60
        E 0 90 3f 60
        E 0 90 48 60
        E 0 90 4b 60
        E 0 90 54 60
        E 0 90 57 60
        E 0 90 60 60
        E 0 90 63 60
        E 120 80 18 00
        E 0 80 2a 00
        E 0 80 3f 00
        E 0 80 48 00
        E 0 80 4b 00
        E 0 80 54 00
        E 0 80 57 00
        E 0 80 60 00
        E 0 80 63 00
        E 360 90 2a 60
        E 0 90 3f 60
        E 0 90 4b 60
        E 0 90 57 60
        E 0 90 63 60
        E 120 80 2a 00
        E 0 80 3f 00
        E 0 80 4b 00
        E 0 80 57 00
        E 0 80 63 00
        E 120 90 18 60
        E 0 90 54 60
        E 0 90 60 60
        E 120 80 18 00
        E 0 80 54 00
        E 0 80 60 00
        E 120 90 1a 60
        E 0 90 2a 60
        E 0 90 3d 60
        E 0 90 3f 60
        E 0 90 49 60
        E 0 90 4b 60
        E 0 90 55 60
        E 0 90 57 60
        E 0 90 61 60
        E 0 90 63 60
        E 120 80 1a 00
        E 0 80 2a 00
        E 0 80 3d 00
        E 0 80 3f 00
        E 0 80 49 00
        E 0 80 4b 00
        E 0 80 55 00
        E 0 80 57 00
        E 0 80 61 00
        E 0 80 63 00
        E 360 90 2a 60
        E 0 90 3f 60
        E 0 90 4b 60
        E 0 90 57 60
        E 0 90 63 60
        E 120 80 2a 00
        E 0 80 3f 00
        E 0 80 4b 00
        E 0 80 57 00
        E 0 80 63 00
        E 120 90 18 60
        E 0 90 54 60
        E 0 90 60 60
        E 120 80 18 00
        E 0 80 54 00
        E 0 80 60 00
        E 120 90 18 60
        E 0 90 2a 60
        E 0 90 3f 60
        E 0 90 48 60
        E 0 90 4b 60
        E 0 90 54 60
        E 0 90 57 60
        E 0 90 60 60
        E 0 90 63 60
        E 120 80 18 00
        E 0 80 2a 00
        E 0 80 3f 00
        E 0 80 48 00
        E 0 80 4b 00
        E 0 80 54 00
        E 0 80 57 00
        E 0 80 60 00
        E 0 80 63 00
        E 360 90 1a 60
        E 0 90 2a 60
        E 0 90 3d 60
        E 0 90 3f 60
        E 0 90 49 60
        E 0 90 4b 60
        E 0 90 55 60
        E 0 90 57 60
        E 0 90 61 60
        E 0 90 63 60
        E 120 80 1a 00
        E 0 80 2a 00
        E 0 80 3d 00
        E 0 80 3f 00
        E 0 80 49 00
        E 0 80 4b 00
        E 0 80 55 00
        E 0 80 57 00
        E 0 80 61 00
        E 0 80 63 00
        E 360 90 1a 60
        E 0 90 2a 60
        E 0 90 3d 60
        E 0 90 3f 60
        E 0 90 49 60
        E 0 90 4b 60
        E 0 90 55 60
        E 0 90 57 60
        E 0 90 61 60
        E 0 90 63 60
        E 120 80 1a 00
        E 0 80 2a 00
        E 0 80 3d 00
        E 0 80 3f 00
        E 0 80 49 00
        E 0 80 4b 00
        E 0 80 55 00
        E 0 80 57 00
        E 0 80 61 00
        E 0 80 63 00
        E 120 90 18 60
        E 0 90 54 60
        E 0 90 60 60
        E 120 80 18 00
        E 0 80 54 00
        E 0 80 60 00
        E 120 90 2a 60
        E 0 90 3f 60
        E 0 90 4b 60
        E 0 90 57 60
        E 0 90 63 60
        E 120 80 2a 00
        E 0 80 3f 00
        E 0 80 4b 00
        E 0 80 57 00
        E 0 80 63 00
        E 120 90 18 60
        E 0 90 54 60
        E 0 90 60 60
        E 120 80 18 00
        E 0 80 54 00
        E 0 80 60 00
        E 120 90 18 60
        E 0 90 2a 60
        E 0 90 3f 60
        E 0 90 48 60
        E 0 90 4b 60
        E 0 90 54 60
        E 0 90 57 60
        E 0 90 60 60
        E 0 90 63 60
        E 120 80 18 00
        E 0 80 2a 00
        E 0 80 3f 00
        E 0 80 48 00
        E 0 80 4b 00
        E 0 80 54 00
        E 0 80 57 00
        E 0 80 60 00
        E 0 80 63 00
        E 360 90 2a 60
        E 0 90 3f 60
        E 0 90 4b 60
        E 0 90 57 60
        E 0 90 63 60
        E 120 80 2a 00
        E 0 80 3f 00
        E 0 80 4b 00
        E 0 80 57 00
        E 0 80 63 00
        E 120 90 1a 60
        E 0 90 55 60
        E 0 90 61 60
        E 120 80 1a 00
        E 0 80 55 00
        E 0 80 61 00
        E 120 90 2a 60
        E 0 90 3f 60
        E 0 90 4b 60
        E 0 90 57 60
        E 0 90 63 60
        E 120 80 2a 00
        E 0 80 3f 00
        E 0 80 4b 00
        E 0 80 57 00
        E 0 80 63 00
        E 120 90 2f 60
        E 0 90 56 60
        E 0 90 62 60
        E 0 90 6e 60
        E 120 80 2f 00
        E 0 80 56 00
        E 0 80 62 00
        E 0 80 6e 00
        E 120 90 2e 60
        E 0 90 3e 60
        E 0 90 4a 60
        E 0 90 56 60
        E 0 90 62 60
        E 0 90 6e 60
        E 120 80 2e 00
        E 0 80 3e 00
        E 0 80 4a 00
        E 0 80 56 00
        E 0 80 62 00
        E 0 80 6e 00
        E 120 90 18 60
        E 0 90 54 60
        E 0 90 60 60
        E 120 80 18 00
        E 0 80 54 00
        E 0 80 60 00
        E 120 90 18 60
        E 0 90 26 60
        E 0 90 40 60
        E 0 90 48 60
        E 0 90 4c 60
        E 0 90 54 60
        E 0 90 58 60
        E 0 90 60 60
        E 0 90 64 60
        E 120 80 18 00
        E 0 80 26 00
        E 0 80 40 00
        E 0 80 48 00
        E 0 80 4c 00
        E 0 80 54 00
        E 0 80 58 00
        E 0 80 60 00
        E 0 80 64 00
        <X 120 0
          /wFbaWRsZV9yZWFsdGltZV0=
        >
        E 9360 b0 7b 00
        GUID {9EF7A152-4992-4F4B-9BED-9DEB58E9C761}
        IGNTEMPO 0 120.00000000 4 4
        SRCCOLOR 1
        VELLANE 132 123 128
        COLORMAP "C:\Users\Ruggery\AppData\Roaming\Reaper\Data\color_maps\rockband_drums.png"
        CFGEDITVIEW 216841.422486 0.086546 0 12 0 0 0
        CFGEDIT 1 1 0 1 1 0 1 1 1 1 1 0.25000000 -8 0 1370 744 0 2 0 2 0.00000000 0 1 0 0 0.500000 0 0 1.000000 64
        KEYSNAP 0 7 "102030050700" 0 "Pentatonic"
        EVTFILTER 0 -1 -1 -1 -1 0 1 0 0 -1.00000000 -1.00000000
      >
    >
  >
  <TRACK '{2AFA6F27-38D3-4318-940C-A6E73F0C19BF}'
    NAME "PART BASS"
    PEAKCOL 16576
    BEAT -1
    AUTOMODE 0
    VOLPAN 1.00000000000000 0.00000000000000 -1.00000000000000 -1.00000000000000 1.00000000000000
    MUTESOLO 0 0 0
    IPHASE 0
    ISBUS 0 0
    BUSCOMP 0 0
    SHOWINMIX 1 0.666700 0.500000 1 0.500000 -1 -1 -1
    FREEMODE 0
    SEL 0
    REC 0 0 0 0 0 0 0
    VU 2
    TRACKHEIGHT 0 0
    INQ 0 0 0 0.5000000000 100 0 0 100
    NCHAN 2
    FX 1
    TRACKID {2AFA6F27-38D3-4318-940C-A6E73F0C19BF}
    PERF 0
    MIDIOUT -1
    <MIDINOTENAMES
      0 127 "Trill Marker"
      0 126 "Tremolo Marker"
      0 125 "---"
      0 124 "BRE"
      0 123 "BRE"
      0 122 "BRE"
      0 121 "BRE"
      0 120 "BRE (use all 5)"
      0 119 "----"
      0 116 "OVERDRIVE"
      0 111 "----"
      0 103 "Solo Marker"
      0 102 "Force HOPO Off"
      0 101 "Force HOPO On"
      0 100 "EXPERT Orange"
      0 99 "EXPERT Blue"
      0 98 "EXPERT Yellow"
      0 97 "EXPERT Red"
      0 96 "EXPERT Green"
      0 91 "----"
      0 90 "Force HOPO Off"
      0 89 "Force HOPO On"
      0 88 "HARD Orange"
      0 87 "HARD Blue"
      0 86 "HARD Yellow"
      0 85 "HARD Red"
      0 84 "HARD Green"
      0 80 "----"
      0 76 "MEDIUM Orange"
      0 75 "MEDIUM Blue"
      0 74 "MEDIUM Yellow"
      0 73 "MEDIUM Red"
      0 72 "MEDIUM Green"
      0 68 "----"
      0 64 "EASY Orange"
      0 63 "EASY Blue"
      0 62 "EASY Yellow"
      0 61 "EASY Red"
      0 60 "EASY Green"
      0 59 "Left Hand Highest (Fret 12)"
      0 58 "-"
      0 57 "Fret 11"
      0 56 "Fret 10"
      0 55 "Fret 9"
      0 54 "-"
      0 53 "Fret 8"
      0 52 "Fret 7"
      0 51 "-"
      0 50 "Fret 6"
      0 49 "Fret 5"
      0 48 "-"
      0 47 "Fret 4"
      0 46 "-"
      0 45 "Fret 3"
      0 44 "-"
      0 43 "Fret 2"
      0 42 "-"
      0 41 "-"
      0 40 "Left Hand Lowest (Fret 1)"
    >
    MAINSEND 1 0
    <FXCHAIN
      WNDRECT 292 110 878 554
      SHOW 0
      LASTSEL 0
      DOCKED 0
      BYPASS 0 0
      <VST "VSTi: RBN Preview (RBN)" "rbprev_vst64.dll" 0 ""
        dnBicu5e7f4AAAAAAgAAAAEAAAAAAAAAAgAAAAAAAAAEAAAAAQAAAA==
        AAAQAAMAqgAAABAAAAA=
      >
      FLOATPOS 0 0 0 0
      FXID {A92B250A-F854-4CFD-9604-55B8C62265C5}
      WAK 0
    >
    <ITEM
      POSITION 0.00000000000000
      SNAPOFFS 0.00000000000000
      LENGTH 236.43059832085180
      LOOP 0
      ALLTAKES 0
      SEL 0
      FADEIN 1 0.000000 0.000000 1 0
      FADEOUT 1 0.000000 0.000000 1 0
      MUTE 0
      IGUID {16EF56A8-C9DF-4F13-ACFF-5C8C043FD04A}
      IID 24
      NAME "PART BASS"
      VOLPAN 1.000000 0.000000 1.000000 -1.000000
      SOFFS 0.00000000000000 0.00000000000000
      PLAYRATE 1.00000000000000 1 0.00000000000000 -1
      CHANMODE 0
      GUID {BC340664-DEC4-4E3D-920F-7BC598007E7B}
      <SOURCE MIDI
        HASDATA 1 480 QN
        POOLEDEVTS {F4042C1E-2953-47F8-B22E-33A08B2814D3}
        <X 0 0
          /wNQQVJUIEJBU1M=
        >
        <X 3840 0
          /wFbbWVsbG93XQ==
        >
        E 0 90 35 60
        E 0 90 3e 60
        E 0 90 4b 60
        E 0 90 58 60
        E 0 90 64 60
        E 480 80 3e 00
        E 0 80 4b 00
        E 0 80 58 00
        E 0 80 64 00
        E 480 90 3e 60
        E 0 90 4b 60
        E 0 90 57 60
        E 0 90 63 60
        E 480 80 3e 00
        E 0 80 4b 00
        E 0 80 57 00
        E 0 80 63 00
        E 360 80 35 00
        E 120 90 31 60
        E 0 90 3d 60
        E 0 90 49 60
        E 0 90 55 60
        E 0 90 61 60
        E 480 80 3d 00
        E 0 80 49 00
        E 0 80 55 00
        E 0 80 61 00
        E 480 90 3c 60
        E 0 90 48 60
        E 0 90 54 60
        E 0 90 60 60
        E 480 80 3c 00
        E 0 80 48 00
        E 0 80 54 00
        E 0 80 60 00
        E 360 80 31 00
        E 120 90 2b 60
        E 0 90 3e 60
        E 0 90 4a 60
        E 0 90 56 60
        E 0 90 62 60
        E 480 80 3e 00
        E 0 80 4a 00
        E 0 80 56 00
        E 0 80 62 00
        E 480 90 3d 60
        E 0 90 49 60
        E 0 90 55 60
        E 0 90 61 60
        E 480 80 3d 00
        E 0 80 49 00
        E 0 80 55 00
        E 0 80 61 00
        E 480 90 3c 60
        E 0 90 48 60
        E 0 90 54 60
        E 0 90 60 60
        E 0 90 74 60
        E 1440 80 3c 00
        E 0 80 48 00
        E 0 80 54 00
        E 0 80 60 00
        E 120 80 2b 00
        E 120 90 34 60
        E 0 90 54 60
        E 0 90 60 60
        E 120 80 34 00
        E 0 80 54 00
        E 0 80 60 00
        E 120 80 74 00
        E 0 90 35 60
        E 0 90 3e 60
        E 0 90 4b 60
        E 0 90 58 60
        E 0 90 64 60
        E 480 80 3e 00
        E 0 80 4b 00
        E 0 80 58 00
        E 0 80 64 00
        E 480 90 3e 60
        E 0 90 4b 60
        E 0 90 57 60
        E 0 90 63 60
        E 480 80 3e 00
        E 0 80 4b 00
        E 0 80 57 00
        E 0 80 63 00
        E 360 80 35 00
        E 120 90 31 60
        E 0 90 3d 60
        E 0 90 49 60
        E 0 90 55 60
        E 0 90 61 60
        E 480 80 3d 00
        E 0 80 49 00
        E 0 80 55 00
        E 0 80 61 00
        E 480 90 3c 60
        E 0 90 48 60
        E 0 90 54 60
        E 0 90 60 60
        E 480 80 3c 00
        E 0 80 48 00
        E 0 80 54 00
        E 0 80 60 00
        E 360 80 31 00
        E 120 90 2b 60
        E 0 90 3e 60
        E 0 90 4a 60
        E 0 90 56 60
        E 0 90 62 60
        E 120 80 3e 00
        E 0 80 4a 00
        E 0 80 56 00
        E 0 80 62 00
        E 360 90 4a 60
        E 0 90 56 60
        E 0 90 62 60
        E 120 80 4a 00
        E 0 80 56 00
        E 0 80 62 00
        E 360 90 3d 60
        E 0 90 49 60
        E 0 90 55 60
        E 0 90 61 60
        E 480 80 3d 00
        E 0 80 49 00
        E 0 80 55 00
        E 0 80 61 00
        E 480 90 3c 60
        E 0 90 48 60
        E 0 90 54 60
        E 0 90 60 60
        E 120 80 3c 00
        E 0 80 48 00
        E 0 80 54 00
        E 0 80 60 00
        E 120 90 48 60
        E 0 90 54 60
        E 0 90 60 60
        E 120 80 48 00
        E 0 80 54 00
        E 0 80 60 00
        E 360 90 54 60
        E 0 90 60 60
        E 120 80 2b 00
        E 0 80 54 00
        E 0 80 60 00
        E 120 90 31 60
        E 0 90 3e 60
        E 0 90 4a 60
        E 0 90 56 60
        E 0 90 62 60
        E 120 80 3e 00
        E 0 80 4a 00
        E 0 80 56 00
        E 0 80 62 00
        E 360 90 3e 60
        E 0 90 4a 60
        E 0 90 56 60
        E 0 90 62 60
        E 120 80 3e 00
        E 0 80 4a 00
        E 0 80 56 00
        E 0 80 62 00
        E 240 80 31 00
        E 120 90 35 60
        E 0 90 3e 60
        E 0 90 4b 60
        E 0 90 58 60
        E 0 90 64 60
        E 480 80 3e 00
        E 0 80 4b 00
        E 0 80 58 00
        E 0 80 64 00
        E 480 90 3e 60
        E 0 90 4b 60
        E 0 90 57 60
        E 0 90 63 60
        E 480 80 3e 00
        E 0 80 4b 00
        E 0 80 57 00
        E 0 80 63 00
        E 360 80 35 00
        E 120 90 31 60
        E 0 90 3d 60
        E 0 90 49 60
        E 0 90 55 60
        E 0 90 61 60
        E 720 80 3d 00
        E 0 80 49 00
        E 0 80 55 00
        E 0 80 61 00
        E 480 90 54 60
        E 0 90 60 60
        E 0 90 74 60
        E 120 80 54 00
        E 0 80 60 00
        E 120 90 3e 60
        E 0 90 4b 60
        E 0 90 57 60
        E 0 90 63 60
        E 120 80 3e 00
        E 0 80 4b 00
        E 0 80 57 00
        E 0 80 63 00
        E 120 90 54 60
        E 0 90 60 60
        E 120 80 31 00
        E 0 80 54 00
        E 0 80 60 00
        E 120 90 2b 60
        E 0 90 3e 60
        E 0 90 4a 60
        E 0 90 56 60
        E 0 90 62 60
        E 480 80 3e 00
        E 0 80 4a 00
        E 0 80 56 00
        E 0 80 62 00
        E 480 90 3d 60
        E 0 90 49 60
        E 0 90 55 60
        E 0 90 61 60
        E 480 80 3d 00
        E 0 80 49 00
        E 0 80 55 00
        E 0 80 61 00
        E 480 90 3c 60
        E 0 90 48 60
        E 0 90 54 60
        E 0 90 60 60
        E 120 80 74 00
        E 1320 80 3c 00
        E 0 80 48 00
        E 0 80 54 00
        E 0 80 60 00
        E 360 80 2b 00
        E 120 90 35 60
        E 0 90 3e 60
        E 0 90 4b 60
        E 0 90 58 60
        E 0 90 64 60
        E 480 80 3e 00
        E 0 80 4b 00
        E 0 80 58 00
        E 0 80 64 00
        E 480 90 3e 60
        E 0 90 4b 60
        E 0 90 57 60
        E 0 90 63 60
        E 480 80 3e 00
        E 0 80 4b 00
        E 0 80 57 00
        E 0 80 63 00
        E 360 80 35 00
        E 120 90 31 60
        E 0 90 3d 60
        E 0 90 49 60
        E 0 90 55 60
        E 0 90 61 60
        E 480 80 3d 00
        E 0 80 49 00
        E 0 80 55 00
        E 0 80 61 00
        E 480 90 3c 60
        E 0 90 48 60
        E 0 90 54 60
        E 0 90 60 60
        E 480 80 3c 00
        E 0 80 48 00
        E 0 80 54 00
        E 0 80 60 00
        E 360 80 31 00
        E 120 90 2b 60
        E 0 90 3e 60
        E 0 90 4a 60
        E 0 90 56 60
        E 0 90 62 60
        E 480 80 3e 00
        E 0 80 4a 00
        E 0 80 56 00
        E 0 80 62 00
        E 480 90 3d 60
        E 0 90 49 60
        E 0 90 55 60
        E 0 90 61 60
        E 480 80 3d 00
        E 0 80 49 00
        E 0 80 55 00
        E 0 80 61 00
        E 480 90 3c 60
        E 0 90 48 60
        E 0 90 54 60
        E 0 90 60 60
        E 1440 80 3c 00
        E 0 80 48 00
        E 0 80 54 00
        E 0 80 60 00
        E 120 80 2b 00
        E 120 90 35 60
        E 0 90 54 60
        E 0 90 60 60
        E 120 80 54 00
        E 0 80 60 00
        E 120 90 3e 60
        E 0 90 4b 60
        E 0 90 58 60
        E 0 90 64 60
        E 480 80 3e 00
        E 0 80 4b 00
        E 0 80 58 00
        E 0 80 64 00
        E 480 90 3e 60
        E 0 90 4b 60
        E 0 90 57 60
        E 0 90 63 60
        E 480 80 3e 00
        E 0 80 4b 00
        E 0 80 57 00
        E 0 80 63 00
        E 360 80 35 00
        E 120 90 31 60
        E 0 90 3d 60
        E 0 90 49 60
        E 0 90 55 60
        E 0 90 61 60
        E 960 80 3d 00
        E 0 80 49 00
        E 0 80 55 00
        E 0 80 61 00
        E 240 90 54 60
        E 0 90 60 60
        E 120 80 54 00
        E 0 80 60 00
        E 120 90 3e 60
        E 0 90 4b 60
        E 0 90 57 60
        E 0 90 63 60
        E 120 80 3e 00
        E 0 80 4b 00
        E 0 80 57 00
        E 0 80 63 00
        E 120 90 54 60
        E 0 90 60 60
        E 120 80 31 00
        E 0 80 54 00
        E 0 80 60 00
        E 120 90 2b 60
        E 0 90 3e 60
        E 0 90 4a 60
        E 0 90 56 60
        E 0 90 62 60
        E 1440 80 3e 00
        E 0 80 4a 00
        E 0 80 56 00
        E 0 80 62 00
        E 360 80 2b 00
        E 120 90 31 60
        E 0 90 3e 60
        E 0 90 4b 60
        E 0 90 57 60
        E 0 90 63 60
        E 120 80 3e 00
        E 0 80 4b 00
        E 0 80 57 00
        E 0 80 63 00
        E 120 90 54 60
        E 0 90 60 60
        E 120 80 54 00
        E 0 80 60 00
        E 120 90 3e 60
        E 0 90 4b 60
        E 0 90 57 60
        E 0 90 63 60
        E 960 80 3e 00
        E 0 80 4b 00
        E 0 80 57 00
        E 0 80 63 00
        E 360 80 31 00
        E 120 90 35 60
        E 0 90 3e 60
        E 0 90 4b 60
        E 0 90 58 60
        E 0 90 64 60
        E 480 80 3e 00
        E 0 80 4b 00
        E 0 80 58 00
        E 0 80 64 00
        E 480 90 3e 60
        E 0 90 4b 60
        E 0 90 57 60
        E 0 90 63 60
        E 480 80 3e 00
        E 0 80 4b 00
        E 0 80 57 00
        E 0 80 63 00
        E 360 80 35 00
        E 120 90 31 60
        E 0 90 3d 60
        E 0 90 49 60
        E 0 90 55 60
        E 0 90 61 60
        E 480 80 3d 00
        E 0 80 49 00
        E 0 80 55 00
        E 0 80 61 00
        E 480 90 3c 60
        E 0 90 48 60
        E 0 90 54 60
        E 0 90 60 60
        E 480 80 3c 00
        E 0 80 48 00
        E 0 80 54 00
        E 0 80 60 00
        E 360 80 31 00
        E 120 90 2b 60
        E 0 90 3e 60
        E 0 90 4a 60
        E 0 90 56 60
        E 0 90 62 60
        E 480 80 3e 00
        E 0 80 4a 00
        E 0 80 56 00
        E 0 80 62 00
        E 480 90 3d 60
        E 0 90 49 60
        E 0 90 55 60
        E 0 90 61 60
        E 480 80 3d 00
        E 0 80 49 00
        E 0 80 55 00
        E 0 80 61 00
        E 480 90 3c 60
        E 0 90 48 60
        E 0 90 54 60
        E 0 90 60 60
        E 960 80 3c 00
        E 0 80 48 00
        E 0 80 54 00
        E 0 80 60 00
        E 120 80 2b 00
        E 120 90 31 60
        E 0 90 54 60
        E 0 90 60 60
        E 120 80 54 00
        E 0 80 60 00
        E 120 90 3e 60
        E 0 90 4b 60
        E 0 90 57 60
        E 0 90 63 60
        E 120 80 3e 00
        E 0 80 4b 00
        E 0 80 57 00
        E 0 80 63 00
        E 240 80 31 00
        E 120 90 35 60
        E 0 90 3e 60
        E 0 90 4b 60
        E 0 90 58 60
        E 0 90 64 60
        E 0 90 74 60
        E 480 80 3e 00
        E 0 80 4b 00
        E 0 80 58 00
        E 0 80 64 00
        E 480 90 3e 60
        E 0 90 4b 60
        E 0 90 57 60
        E 0 90 63 60
        E 480 80 3e 00
        E 0 80 4b 00
        E 0 80 57 00
        E 0 80 63 00
        E 360 80 35 00
        E 120 90 31 60
        E 0 90 3d 60
        E 0 90 49 60
        E 0 90 55 60
        E 0 90 61 60
        E 120 80 74 00
        E 1320 80 3d 00
        E 0 80 49 00
        E 0 80 55 00
        E 0 80 61 00
        E 360 80 31 00
        E 120 90 2b 60
        E 0 90 3e 60
        E 0 90 4a 60
        E 0 90 56 60
        E 0 90 62 60
        E 120 80 3e 00
        E 0 80 4a 00
        E 0 80 56 00
        E 0 80 62 00
        E 360 90 4a 60
        E 0 90 56 60
        E 0 90 62 60
        E 120 80 4a 00
        E 0 80 56 00
        E 0 80 62 00
        E 360 90 3d 60
        E 0 90 49 60
        E 0 90 55 60
        E 0 90 61 60
        E 480 80 3d 00
        E 0 80 49 00
        E 0 80 55 00
        E 0 80 61 00
        E 480 90 3c 60
        E 0 90 48 60
        E 0 90 54 60
        E 0 90 60 60
        E 1440 80 3c 00
        E 0 80 48 00
        E 0 80 54 00
        E 0 80 60 00
        E 240 90 54 60
        E 0 90 60 60
        E 120 80 2b 00
        E 0 80 54 00
        E 0 80 60 00
        E 120 90 35 60
        E 0 90 3e 60
        E 0 90 4b 60
        E 0 90 58 60
        E 0 90 64 60
        E 480 80 3e 00
        E 0 80 4b 00
        E 0 80 58 00
        E 0 80 64 00
        E 480 90 3e 60
        E 0 90 4b 60
        E 0 90 57 60
        E 0 90 63 60
        E 480 80 3e 00
        E 0 80 4b 00
        E 0 80 57 00
        E 0 80 63 00
        E 360 80 35 00
        E 120 90 31 60
        E 0 90 3d 60
        E 0 90 49 60
        E 0 90 55 60
        E 0 90 61 60
        E 480 80 3d 00
        E 0 80 49 00
        E 0 80 55 00
        E 0 80 61 00
        E 480 90 3c 60
        E 0 90 48 60
        E 0 90 54 60
        E 0 90 60 60
        E 480 80 3c 00
        E 0 80 48 00
        E 0 80 54 00
        E 0 80 60 00
        E 360 80 31 00
        E 120 90 2b 60
        E 0 90 3e 60
        E 0 90 4a 60
        E 0 90 56 60
        E 0 90 62 60
        E 480 80 3e 00
        E 0 80 4a 00
        E 0 80 56 00
        E 0 80 62 00
        E 480 90 3d 60
        E 0 90 49 60
        E 0 90 55 60
        E 0 90 61 60
        E 480 80 3d 00
        E 0 80 49 00
        E 0 80 55 00
        E 0 80 61 00
        E 480 90 3c 60
        E 0 90 48 60
        E 0 90 54 60
        E 0 90 60 60
        E 1440 80 3c 00
        E 0 80 48 00
        E 0 80 54 00
        E 0 80 60 00
        E 360 80 2b 00
        E 120 90 35 60
        E 0 90 3e 60
        E 0 90 4b 60
        E 0 90 58 60
        E 0 90 64 60
        E 480 80 3e 00
        E 0 80 4b 00
        E 0 80 58 00
        E 0 80 64 00
        E 480 90 3e 60
        E 0 90 4b 60
        E 0 90 57 60
        E 0 90 63 60
        E 480 80 3e 00
        E 0 80 4b 00
        E 0 80 57 00
        E 0 80 63 00
        E 360 80 35 00
        E 120 90 31 60
        E 0 90 3d 60
        E 0 90 49 60
        E 0 90 55 60
        E 0 90 61 60
        E 960 80 3d 00
        E 0 80 49 00
        E 0 80 55 00
        E 0 80 61 00
        E 480 90 48 60
        E 0 90 54 60
        E 0 90 60 60
        E 120 80 48 00
        E 0 80 54 00
        E 0 80 60 00
        E 240 80 31 00
        E 120 90 2d 60
        E 0 90 3e 60
        E 0 90 4a 60
        E 0 90 56 60
        E 0 90 62 60
        E 480 80 3e 00
        E 0 80 4a 00
        E 240 80 56 00
        E 0 80 62 00
        E 240 90 3e 60
        E 0 90 4a 60
        E 0 90 56 60
        E 0 90 62 60
        E 480 80 3e 00
        E 0 80 4a 00
        E 0 80 56 00
        E 0 80 62 00
        E 480 90 3e 60
        E 0 90 4b 60
        E 0 90 57 60
        E 0 90 63 60
        E 120 80 3e 00
        E 0 80 4b 00
        E 0 80 57 00
        E 0 80 63 00
        E 120 90 54 60
        E 0 90 60 60
        E 120 80 54 00
        E 0 80 60 00
        E 120 90 3e 60
        E 0 90 4b 60
        E 0 90 57 60
        E 0 90 63 60
        E 480 80 3e 00
        E 0 80 4b 00
        E 240 80 57 00
        E 0 80 63 00
        E 240 90 3e 60
        E 0 90 4b 60
        E 0 90 57 60
        E 0 90 63 60
        E 120 80 3e 00
        E 0 80 4b 00
        E 0 80 57 00
        E 0 80 63 00
        E 120 90 54 60
        E 0 90 60 60
        E 120 80 2d 00
        E 0 80 54 00
        E 0 80 60 00
        E 120 90 35 60
        E 0 90 3e 60
        E 0 90 4b 60
        E 0 90 58 60
        E 0 90 64 60
        E 1440 80 3e 00
        E 0 80 4b 00
        E 0 80 58 00
        E 0 80 64 00
        E 480 90 3d 60
        E 0 90 49 60
        E 0 90 55 60
        E 0 90 61 60
        E 1440 80 3d 00
        E 0 80 49 00
        E 0 80 55 00
        E 0 80 61 00
        E 480 90 3e 60
        E 0 90 4b 60
        E 0 90 58 60
        E 0 90 64 60
        E 1680 80 3e 00
        E 0 80 4b 00
        E 240 80 58 00
        E 0 80 64 00
        E 120 80 35 00
        E 120 90 2d 60
        E 0 90 48 60
        E 0 90 54 60
        E 0 90 60 60
        E 120 80 48 00
        E 0 80 54 00
        E 0 80 60 00
        E 120 90 3c 60
        E 0 90 48 60
        E 0 90 54 60
        E 0 90 60 60
        E 120 80 3c 00
        E 0 80 48 00
        E 360 80 54 00
        E 0 80 60 00
        E 240 90 48 60
        E 0 90 54 60
        E 0 90 60 60
        E 120 80 48 00
        E 0 80 54 00
        E 0 80 60 00
        E 120 90 48 60
        E 0 90 54 60
        E 0 90 60 60
        E 120 80 48 00
        E 0 80 54 00
        E 0 80 60 00
        E 120 90 54 60
        E 0 90 60 60
        E 120 80 54 00
        E 0 80 60 00
        <X 120 0
          /wFbcGxheV0=
        >
        E 0 90 3e 60
        E 0 90 4a 60
        E 0 90 56 60
        E 0 90 62 60
        E 480 80 3e 00
        E 0 80 4a 00
        E 240 80 56 00
        E 0 80 62 00
        E 240 90 3e 60
        E 0 90 4a 60
        E 0 90 56 60
        E 0 90 62 60
        E 960 80 3e 00
        E 0 80 4a 00
        E 240 80 56 00
        E 0 80 62 00
        E 240 90 3c 60
        E 0 90 48 60
        E 0 90 54 60
        E 0 90 60 60
        E 120 80 3c 00
        E 0 80 48 00
        E 0 80 54 00
        E 0 80 60 00
        E 120 90 55 60
        E 0 90 61 60
        E 120 80 55 00
        E 0 80 61 00
        E 360 90 4a 60
        E 0 90 56 60
        E 0 90 62 60
        E 120 80 4a 00
        E 0 80 56 00
        E 0 80 62 00
        E 360 90 54 60
        E 0 90 60 60
        E 120 80 54 00
        E 0 80 60 00
        E 120 90 3e 60
        E 0 90 4b 60
        E 0 90 57 60
        E 0 90 63 60
        E 480 80 3e 00
        E 0 80 4b 00
        E 240 80 57 00
        E 0 80 63 00
        E 240 90 3e 60
        E 0 90 4b 60
        E 0 90 57 60
        E 0 90 63 60
        E 1920 80 3e 00
        E 0 80 4b 00
        E 0 80 57 00
        E 0 80 63 00
        E 240 90 54 60
        E 0 90 60 60
        E 120 80 54 00
        E 0 80 60 00
        E 120 90 3e 60
        E 0 90 4b 60
        E 0 90 57 60
        E 0 90 63 60
        E 120 80 3e 00
        E 0 80 4b 00
        E 0 80 57 00
        E 0 80 63 00
        E 120 90 54 60
        E 0 90 60 60
        E 120 80 54 00
        E 0 80 60 00
        E 120 90 3e 60
        E 0 90 4a 60
        E 0 90 56 60
        E 0 90 62 60
        E 0 90 74 60
        E 480 80 3e 00
        E 0 80 4a 00
        E 240 80 56 00
        E 0 80 62 00
        E 240 90 3e 60
        E 0 90 4a 60
        E 0 90 56 60
        E 0 90 62 60
        E 1200 80 3e 00
        E 0 80 4a 00
        E 240 80 56 00
        E 0 80 62 00
        E 240 90 3e 60
        E 0 90 4b 60
        E 0 90 58 60
        E 0 90 64 60
        E 120 80 3e 00
        E 0 80 4b 00
        E 0 80 58 00
        E 0 80 64 00
        E 360 90 4a 60
        E 0 90 56 60
        E 0 90 62 60
        E 120 80 4a 00
        E 0 80 56 00
        E 0 80 62 00
        E 480 80 2d 00
        E 120 90 31 60
        E 0 90 3e 60
        E 0 90 4b 60
        E 0 90 57 60
        E 0 90 63 60
        E 120 80 74 00
        E 3240 80 3e 00
        E 0 80 4b 00
        E 0 80 57 00
        E 0 80 63 00
        E 480 90 3e 60
        E 0 90 4b 60
        E 0 90 58 60
        E 0 90 64 60
        E 3360 80 3e 00
        E 0 80 4b 00
        E 0 80 58 00
        E 0 80 64 00
        E 360 80 31 00
        <X 120 0
          /wFbbWVsbG93XQ==
        >
        E 0 90 35 60
        E 0 90 3e 60
        E 0 90 4b 60
        E 0 90 58 60
        E 0 90 64 60
        E 480 80 3e 00
        E 0 80 4b 00
        E 0 80 58 00
        E 0 80 64 00
        E 480 90 3e 60
        E 0 90 4b 60
        E 0 90 57 60
        E 0 90 63 60
        E 480 80 3e 00
        E 0 80 4b 00
        E 0 80 57 00
        E 0 80 63 00
        E 360 80 35 00
        E 120 90 31 60
        E 0 90 3d 60
        E 0 90 49 60
        E 0 90 55 60
        E 0 90 61 60
        E 480 80 3d 00
        E 0 80 49 00
        E 0 80 55 00
        E 0 80 61 00
        E 480 90 3c 60
        E 0 90 48 60
        E 0 90 54 60
        E 0 90 60 60
        E 480 80 3c 00
        E 0 80 48 00
        E 0 80 54 00
        E 0 80 60 00
        E 360 80 31 00
        E 120 90 2b 60
        E 0 90 3e 60
        E 0 90 4a 60
        E 0 90 56 60
        E 0 90 62 60
        E 480 80 3e 00
        E 0 80 4a 00
        E 0 80 56 00
        E 0 80 62 00
        E 480 90 3d 60
        E 0 90 49 60
        E 0 90 55 60
        E 0 90 61 60
        E 480 80 3d 00
        E 0 80 49 00
        E 0 80 55 00
        E 0 80 61 00
        E 480 90 3c 60
        E 0 90 48 60
        E 0 90 54 60
        E 0 90 60 60
        E 960 80 3c 00
        E 0 80 48 00
        E 0 80 54 00
        E 0 80 60 00
        E 360 80 2b 00
        E 120 90 31 60
        E 0 90 48 60
        E 0 90 54 60
        E 0 90 60 60
        E 120 80 48 00
        E 0 80 54 00
        E 0 80 60 00
        E 240 80 31 00
        E 120 90 35 60
        E 0 90 3e 60
        E 0 90 4b 60
        E 0 90 58 60
        E 0 90 64 60
        E 480 80 3e 00
        E 0 80 4b 00
        E 0 80 58 00
        E 0 80 64 00
        E 480 90 3e 60
        E 0 90 4b 60
        E 0 90 57 60
        E 0 90 63 60
        E 480 80 3e 00
        E 0 80 4b 00
        E 0 80 57 00
        E 0 80 63 00
        E 360 80 35 00
        E 120 90 31 60
        E 0 90 3d 60
        E 0 90 49 60
        E 0 90 55 60
        E 0 90 61 60
        E 480 80 3d 00
        E 0 80 49 00
        E 0 80 55 00
        E 0 80 61 00
        E 480 90 3c 60
        E 0 90 48 60
        E 0 90 54 60
        E 0 90 60 60
        E 480 80 3c 00
        E 0 80 48 00
        E 0 80 54 00
        E 0 80 60 00
        E 360 80 31 00
        E 120 90 2b 60
        E 0 90 3e 60
        E 0 90 4a 60
        E 0 90 56 60
        E 0 90 62 60
        E 480 80 3e 00
        E 0 80 4a 00
        E 0 80 56 00
        E 0 80 62 00
        E 480 90 3d 60
        E 0 90 49 60
        E 0 90 55 60
        E 0 90 61 60
        E 480 80 3d 00
        E 0 80 49 00
        E 0 80 55 00
        E 0 80 61 00
        E 480 90 3c 60
        E 0 90 48 60
        E 0 90 54 60
        E 0 90 60 60
        E 120 80 3c 00
        E 0 80 48 00
        E 0 80 54 00
        E 0 80 60 00
        E 360 90 3c 60
        E 0 90 48 60
        E 0 90 54 60
        E 0 90 60 60
        E 960 80 3c 00
        E 0 80 48 00
        E 240 80 54 00
        E 0 80 60 00
        E 120 80 2b 00
        E 120 90 35 60
        E 0 90 3e 60
        E 0 90 4b 60
        E 0 90 58 60
        E 0 90 64 60
        E 480 80 3e 00
        E 0 80 4b 00
        E 0 80 58 00
        E 0 80 64 00
        E 480 90 3e 60
        E 0 90 4b 60
        E 0 90 57 60
        E 0 90 63 60
        E 480 80 3e 00
        E 0 80 4b 00
        E 0 80 57 00
        E 0 80 63 00
        E 360 80 35 00
        E 120 90 31 60
        E 0 90 3d 60
        E 0 90 49 60
        E 0 90 55 60
        E 0 90 61 60
        E 960 80 3d 00
        E 0 80 49 00
        E 0 80 55 00
        E 0 80 61 00
        E 240 90 54 60
        E 0 90 60 60
        E 120 80 54 00
        E 0 80 60 00
        E 120 90 3e 60
        E 0 90 4b 60
        E 0 90 57 60
        E 0 90 63 60
        E 120 80 31 00
        E 0 80 3e 00
        E 0 80 4b 00
        E 0 80 57 00
        E 0 80 63 00
        E 120 90 2b 60
        E 0 90 54 60
        E 0 90 60 60
        E 120 80 54 00
        E 0 80 60 00
        E 120 90 3e 60
        E 0 90 4a 60
        E 0 90 56 60
        E 0 90 62 60
        E 480 80 3e 00
        E 0 80 4a 00
        E 0 80 56 00
        E 0 80 62 00
        E 480 90 3d 60
        E 0 90 49 60
        E 0 90 55 60
        E 0 90 61 60
        E 480 80 3d 00
        E 0 80 49 00
        E 0 80 55 00
        E 0 80 61 00
        E 480 90 3c 60
        E 0 90 48 60
        E 0 90 54 60
        E 0 90 60 60
        E 960 80 3c 00
        E 0 80 48 00
        E 240 80 54 00
        E 0 80 60 00
        E 240 90 48 60
        E 0 90 54 60
        E 0 90 60 60
        E 120 80 48 00
        E 0 80 54 00
        E 0 80 60 00
        E 240 80 2b 00
        E 120 90 35 60
        E 0 90 3e 60
        E 0 90 4b 60
        E 0 90 58 60
        E 0 90 64 60
        E 480 80 3e 00
        E 0 80 4b 00
        E 0 80 58 00
        E 0 80 64 00
        E 480 90 3e 60
        E 0 90 4b 60
        E 0 90 57 60
        E 0 90 63 60
        E 480 80 3e 00
        E 0 80 4b 00
        E 0 80 57 00
        E 0 80 63 00
        E 360 80 35 00
        E 120 90 31 60
        E 0 90 3d 60
        E 0 90 49 60
        E 0 90 55 60
        E 0 90 61 60
        E 480 80 3d 00
        E 0 80 49 00
        E 0 80 55 00
        E 0 80 61 00
        E 480 90 3c 60
        E 0 90 48 60
        E 0 90 54 60
        E 0 90 60 60
        E 480 80 3c 00
        E 0 80 48 00
        E 0 80 54 00
        E 0 80 60 00
        E 360 80 31 00
        E 120 90 2b 60
        E 0 90 3e 60
        E 0 90 4a 60
        E 0 90 56 60
        E 0 90 62 60
        E 480 80 3e 00
        E 0 80 4a 00
        E 0 80 56 00
        E 0 80 62 00
        E 480 90 3d 60
        E 0 90 49 60
        E 0 90 55 60
        E 0 90 61 60
        E 480 80 3d 00
        E 0 80 49 00
        E 0 80 55 00
        E 0 80 61 00
        E 480 90 3c 60
        E 0 90 48 60
        E 0 90 54 60
        E 0 90 60 60
        E 0 90 74 60
        E 120 80 3c 00
        E 0 80 48 00
        E 0 80 54 00
        E 0 80 60 00
        E 360 90 3c 60
        E 0 90 48 60
        E 0 90 54 60
        E 0 90 60 60
        E 480 80 3c 00
        E 0 80 48 00
        E 0 80 54 00
        E 0 80 60 00
        E 240 90 54 60
        E 0 90 60 60
        E 120 80 54 00
        E 0 80 60 00
        E 120 90 3e 60
        E 0 90 4a 60
        E 0 90 56 60
        E 0 90 62 60
        E 120 80 3e 00
        E 0 80 4a 00
        E 0 80 56 00
        E 0 80 62 00
        E 120 90 63 60
        E 120 80 2b 00
        E 0 80 63 00
        E 120 90 35 60
        E 0 90 3e 60
        E 0 90 4b 60
        E 0 90 58 60
        E 0 90 64 60
        E 480 80 74 00
        E 0 80 3e 00
        E 0 80 4b 00
        E 0 80 58 00
        E 0 80 64 00
        E 480 90 3e 60
        E 0 90 4b 60
        E 0 90 57 60
        E 0 90 63 60
        E 480 80 3e 00
        E 0 80 4b 00
        E 0 80 57 00
        E 0 80 63 00
        E 360 80 35 00
        E 120 90 31 60
        E 0 90 3d 60
        E 0 90 49 60
        E 0 90 55 60
        E 0 90 61 60
        E 480 80 3d 00
        E 0 80 49 00
        E 0 80 55 00
        E 0 80 61 00
        E 480 90 3c 60
        E 0 90 48 60
        E 0 90 54 60
        E 0 90 60 60
        E 480 80 3c 00
        E 0 80 48 00
        E 0 80 54 00
        E 0 80 60 00
        E 360 80 31 00
        E 120 90 2d 60
        E 0 90 3e 60
        E 0 90 4a 60
        E 0 90 56 60
        E 0 90 62 60
        E 1440 80 3e 00
        E 0 80 4a 00
        E 0 80 56 00
        E 0 80 62 00
        E 480 90 3e 60
        E 0 90 4b 60
        E 0 90 57 60
        E 0 90 63 60
        E 120 80 3e 00
        E 0 80 4b 00
        E 0 80 57 00
        E 0 80 63 00
        E 360 90 3e 60
        E 0 90 4b 60
        E 0 90 57 60
        E 0 90 63 60
        E 120 80 3e 00
        E 0 80 4b 00
        E 480 80 57 00
        E 0 80 63 00
        E 120 90 4b 60
        E 0 90 57 60
        E 0 90 63 60
        E 120 80 4b 00
        E 0 80 57 00
        E 0 80 63 00
        E 360 90 54 60
        E 0 90 60 60
        E 120 80 2d 00
        E 0 80 54 00
        E 0 80 60 00
        E 120 90 35 60
        E 0 90 3e 60
        E 0 90 4b 60
        E 0 90 58 60
        E 0 90 64 60
        E 480 80 3e 00
        E 0 80 4b 00
        E 0 80 58 00
        E 0 80 64 00
        E 480 90 3e 60
        E 0 90 4b 60
        E 0 90 57 60
        E 0 90 63 60
        E 480 80 3e 00
        E 0 80 4b 00
        E 0 80 57 00
        E 0 80 63 00
        E 360 80 35 00
        E 120 90 31 60
        E 0 90 3d 60
        E 0 90 49 60
        E 0 90 55 60
        E 0 90 61 60
        E 960 80 3d 00
        E 0 80 49 00
        E 0 80 55 00
        E 0 80 61 00
        E 240 90 54 60
        E 0 90 60 60
        E 120 80 54 00
        E 0 80 60 00
        E 120 90 3e 60
        E 0 90 4b 60
        E 0 90 57 60
        E 0 90 63 60
        E 120 80 31 00
        E 0 80 3e 00
        E 0 80 4b 00
        E 0 80 57 00
        E 0 80 63 00
        E 120 90 2b 60
        E 0 90 54 60
        E 0 90 60 60
        E 120 80 54 00
        E 0 80 60 00
        E 120 90 3e 60
        E 0 90 4a 60
        E 0 90 56 60
        E 0 90 62 60
        E 1440 80 3e 00
        E 0 80 4a 00
        E 0 80 56 00
        E 0 80 62 00
        E 240 90 54 60
        E 0 90 60 60
        E 120 80 54 00
        E 0 80 60 00
        E 120 90 3e 60
        E 0 90 4b 60
        E 0 90 57 60
        E 0 90 63 60
        E 1440 80 3e 00
        E 0 80 4b 00
        E 0 80 57 00
        E 0 80 63 00
        E 360 80 2b 00
        E 120 90 35 60
        E 0 90 3e 60
        E 0 90 4b 60
        E 0 90 58 60
        E 0 90 64 60
        E 480 80 3e 00
        E 0 80 4b 00
        E 0 80 58 00
        E 0 80 64 00
        E 480 90 3e 60
        E 0 90 4b 60
        E 0 90 57 60
        E 0 90 63 60
        E 480 80 3e 00
        E 0 80 4b 00
        E 0 80 57 00
        E 0 80 63 00
        E 360 80 35 00
        E 120 90 31 60
        E 0 90 3d 60
        E 0 90 49 60
        E 0 90 55 60
        E 0 90 61 60
        E 960 80 3d 00
        E 0 80 49 00
        E 0 80 55 00
        E 0 80 61 00
        E 240 90 54 60
        E 0 90 60 60
        E 120 80 54 00
        E 0 80 60 00
        E 120 90 3e 60
        E 0 90 4b 60
        E 0 90 57 60
        E 0 90 63 60
        E 120 80 31 00
        E 0 80 3e 00
        E 0 80 4b 00
        E 0 80 57 00
        E 0 80 63 00
        E 120 90 2b 60
        E 0 90 54 60
        E 0 90 60 60
        E 120 80 54 00
        E 0 80 60 00
        E 120 90 3e 60
        E 0 90 4a 60
        E 0 90 56 60
        E 0 90 62 60
        E 480 80 3e 00
        E 0 80 4a 00
        E 0 80 56 00
        E 0 80 62 00
        E 480 90 3d 60
        E 0 90 49 60
        E 0 90 55 60
        E 0 90 61 60
        E 480 80 3d 00
        E 0 80 49 00
        E 0 80 55 00
        E 0 80 61 00
        E 480 90 3c 60
        E 0 90 48 60
        E 0 90 54 60
        E 0 90 60 60
        E 1440 80 3c 00
        E 0 80 48 00
        E 0 80 54 00
        E 0 80 60 00
        E 360 80 2b 00
        E 120 90 35 60
        E 0 90 3e 60
        E 0 90 4b 60
        E 0 90 58 60
        E 0 90 64 60
        E 0 90 74 60
        E 480 80 3e 00
        E 0 80 4b 00
        E 0 80 58 00
        E 0 80 64 00
        E 480 90 3e 60
        E 0 90 4b 60
        E 0 90 57 60
        E 0 90 63 60
        E 480 80 3e 00
        E 0 80 4b 00
        E 0 80 57 00
        E 0 80 63 00
        E 360 80 35 00
        E 120 90 31 60
        E 0 90 3d 60
        E 0 90 49 60
        E 0 90 55 60
        E 0 90 61 60
        E 480 80 3d 00
        E 0 80 49 00
        E 0 80 55 00
        E 0 80 61 00
        E 480 90 3c 60
        E 0 90 48 60
        E 0 90 54 60
        E 0 90 60 60
        E 120 80 74 00
        E 360 80 3c 00
        E 0 80 48 00
        E 0 80 54 00
        E 0 80 60 00
        E 360 80 31 00
        E 120 90 2b 60
        E 0 90 3e 60
        E 0 90 4a 60
        E 0 90 56 60
        E 0 90 62 60
        E 480 80 3e 00
        E 0 80 4a 00
        E 0 80 56 00
        E 0 80 62 00
        E 480 90 3d 60
        E 0 90 49 60
        E 0 90 55 60
        E 0 90 61 60
        E 480 80 3d 00
        E 0 80 49 00
        E 0 80 55 00
        E 0 80 61 00
        E 480 90 3c 60
        E 0 90 48 60
        E 0 90 54 60
        E 0 90 60 60
        E 120 80 3c 00
        E 0 80 48 00
        E 0 80 54 00
        E 0 80 60 00
        E 360 90 3c 60
        E 0 90 48 60
        E 0 90 54 60
        E 0 90 60 60
        E 960 80 3c 00
        E 0 80 48 00
        E 0 80 54 00
        E 0 80 60 00
        E 360 80 2b 00
        E 120 90 35 60
        E 0 90 3e 60
        E 0 90 4b 60
        E 0 90 58 60
        E 0 90 64 60
        E 480 80 3e 00
        E 0 80 4b 00
        E 0 80 58 00
        E 0 80 64 00
        E 480 90 3e 60
        E 0 90 4b 60
        E 0 90 57 60
        E 0 90 63 60
        E 480 80 3e 00
        E 0 80 4b 00
        E 0 80 57 00
        E 0 80 63 00
        E 360 80 35 00
        E 120 90 31 60
        E 0 90 3d 60
        E 0 90 49 60
        E 0 90 55 60
        E 0 90 61 60
        E 480 80 3d 00
        E 0 80 49 00
        E 0 80 55 00
        E 0 80 61 00
        E 480 90 3c 60
        E 0 90 48 60
        E 0 90 54 60
        E 0 90 60 60
        E 480 80 3c 00
        E 0 80 48 00
        E 0 80 54 00
        E 0 80 60 00
        E 360 80 31 00
        E 120 90 2d 60
        E 0 90 3e 60
        E 0 90 4a 60
        E 0 90 56 60
        E 0 90 62 60
        E 480 80 3e 00
        E 0 80 4a 00
        E 240 80 56 00
        E 0 80 62 00
        E 240 90 3e 60
        E 0 90 4a 60
        E 0 90 56 60
        E 0 90 62 60
        E 480 80 3e 00
        E 0 80 4a 00
        E 0 80 56 00
        E 0 80 62 00
        E 480 90 3e 60
        E 0 90 4b 60
        E 0 90 57 60
        E 0 90 63 60
        E 120 80 3e 00
        E 0 80 4b 00
        E 0 80 57 00
        E 0 80 63 00
        E 360 90 3e 60
        E 0 90 4b 60
        E 0 90 57 60
        E 0 90 63 60
        E 960 80 3e 00
        E 0 80 4b 00
        E 0 80 57 00
        E 0 80 63 00
        E 240 90 54 60
        E 0 90 60 60
        E 120 80 2d 00
        E 0 80 54 00
        E 0 80 60 00
        E 120 90 35 60
        E 0 90 3e 60
        E 0 90 49 60
        E 0 90 55 60
        E 0 90 61 60
        E 720 80 49 00
        E 120 80 3e 00
        E 0 80 55 00
        E 0 80 61 00
        E 120 90 4b 60
        E 0 90 58 60
        E 0 90 64 60
        E 480 80 4b 00
        E 0 80 58 00
        E 0 80 64 00
        E 480 90 3d 60
        E 0 90 49 60
        E 0 90 55 60
        E 0 90 61 60
        E 960 80 3d 00
        E 0 80 49 00
        E 0 80 55 00
        E 0 80 61 00
        E 240 90 54 60
        E 0 90 60 60
        E 120 80 54 00
        E 0 80 60 00
        E 120 90 49 60
        E 0 90 55 60
        E 0 90 61 60
        E 120 80 49 00
        E 0 80 55 00
        E 0 80 61 00
        E 120 90 54 60
        E 0 90 60 60
        E 120 80 54 00
        E 0 80 60 00
        E 120 90 3e 60
        E 0 90 4b 60
        E 0 90 58 60
        E 0 90 64 60
        E 2160 80 3e 00
        E 0 80 4b 00
        E 240 80 58 00
        E 0 80 64 00
        E 120 80 35 00
        E 120 90 31 60
        E 0 90 3e 60
        E 0 90 4b 60
        E 0 90 57 60
        E 0 90 63 60
        E 120 80 3e 00
        E 0 80 4b 00
        E 0 80 57 00
        E 0 80 63 00
        E 360 90 4a 60
        E 0 90 56 60
        E 0 90 62 60
        E 120 80 4a 00
        E 0 80 56 00
        E 0 80 62 00
        E 240 80 31 00
        E 120 90 2d 60
        E 0 90 54 60
        E 0 90 60 60
        E 120 80 54 00
        E 0 80 60 00
        <X 120 0
          /wFbcGxheV0=
        >
        E 0 90 3e 60
        E 0 90 4a 60
        E 0 90 56 60
        E 0 90 62 60
        E 480 80 3e 00
        E 0 80 4a 00
        E 360 80 56 00
        E 0 80 62 00
        E 120 90 3e 60
        E 0 90 4a 60
        E 0 90 56 60
        E 0 90 62 60
        E 1440 80 3e 00
        E 0 80 4a 00
        E 240 80 56 00
        E 0 80 62 00
        E 240 90 3c 60
        E 0 90 48 60
        E 0 90 54 60
        E 0 90 60 60
        E 0 90 74 60
        E 120 80 3c 00
        E 0 80 48 00
        E 0 80 54 00
        E 0 80 60 00
        E 120 90 55 60
        E 0 90 61 60
        E 120 80 55 00
        E 0 80 61 00
        E 600 90 3e 60
        E 0 90 4b 60
        E 0 90 57 60
        E 0 90 63 60
        E 480 80 3e 00
        E 0 80 4b 00
        E 360 80 57 00
        E 0 80 63 00
        E 120 90 3e 60
        E 0 90 4b 60
        E 0 90 57 60
        E 0 90 63 60
        E 120 80 74 00
        E 1800 80 3e 00
        E 0 80 4b 00
        E 0 80 57 00
        E 0 80 63 00
        E 960 90 3e 60
        E 0 90 4a 60
        E 0 90 56 60
        E 0 90 62 60
        E 2160 80 3e 00
        E 0 80 4a 00
        E 0 80 56 00
        E 0 80 62 00
        E 480 90 3e 60
        E 0 90 4b 60
        E 0 90 58 60
        E 0 90 64 60
        E 120 80 3e 00
        E 0 80 4b 00
        E 0 80 58 00
        E 0 80 64 00
        E 360 90 48 60
        E 0 90 54 60
        E 0 90 60 60
        E 120 80 48 00
        E 0 80 54 00
        E 0 80 60 00
        E 360 90 54 60
        E 0 90 60 60
        E 120 80 2d 00
        E 0 80 54 00
        E 0 80 60 00
        E 120 90 31 60
        E 0 90 3e 60
        E 0 90 4b 60
        E 0 90 57 60
        E 0 90 63 60
        E 3360 80 3e 00
        E 0 80 4b 00
        E 0 80 57 00
        E 0 80 63 00
        E 480 90 3e 60
        E 0 90 4b 60
        E 0 90 58 60
        E 0 90 64 60
        E 3360 80 3e 00
        E 0 80 4b 00
        E 0 80 58 00
        E 0 80 64 00
        E 120 80 31 00
        E 120 90 35 60
        E 0 90 54 60
        E 0 90 60 60
        E 120 80 54 00
        E 0 80 60 00
        E 120 90 3e 60
        E 0 90 4b 60
        E 0 90 58 60
        E 0 90 64 60
        E 480 80 3e 00
        E 0 80 4b 00
        E 240 80 58 00
        E 0 80 64 00
        E 240 90 3e 60
        E 0 90 4b 60
        E 0 90 57 60
        E 0 90 63 60
        E 0 90 74 60
        E 480 80 3e 00
        E 0 80 4b 00
        E 0 80 57 00
        E 0 80 63 00
        E 360 80 35 00
        E 120 90 31 60
        E 0 90 3d 60
        E 0 90 49 60
        E 0 90 55 60
        E 0 90 61 60
        E 480 80 3d 00
        E 0 80 49 00
        E 0 80 55 00
        E 0 80 61 00
        E 480 90 3c 60
        E 0 90 48 60
        E 0 90 54 60
        E 0 90 60 60
        E 480 80 3c 00
        E 0 80 48 00
        E 0 80 54 00
        E 0 80 60 00
        E 360 80 31 00
        E 120 90 2b 60
        E 0 90 3e 60
        E 0 90 4a 60
        E 0 90 56 60
        E 0 90 62 60
        E 120 80 74 00
        E 360 80 3e 00
        E 0 80 4a 00
        E 0 80 56 00
        E 0 80 62 00
        E 480 90 3d 60
        E 0 90 49 60
        E 0 90 55 60
        E 0 90 61 60
        E 480 80 3d 00
        E 0 80 49 00
        E 0 80 55 00
        E 0 80 61 00
        E 480 90 3c 60
        E 0 90 48 60
        E 0 90 54 60
        E 0 90 60 60
        E 1440 80 3c 00
        E 0 80 48 00
        E 0 80 54 00
        E 0 80 60 00
        E 360 80 2b 00
        E 120 90 35 60
        E 0 90 3e 60
        E 0 90 4b 60
        E 0 90 58 60
        E 0 90 64 60
        E 480 80 3e 00
        E 0 80 4b 00
        E 240 80 58 00
        E 0 80 64 00
        E 240 90 3e 60
        E 0 90 4b 60
        E 0 90 57 60
        E 0 90 63 60
        E 480 80 3e 00
        E 0 80 4b 00
        E 0 80 57 00
        E 0 80 63 00
        E 360 80 35 00
        E 120 90 31 60
        E 0 90 3d 60
        E 0 90 49 60
        E 0 90 55 60
        E 0 90 61 60
        E 480 80 3d 00
        E 0 80 49 00
        E 0 80 55 00
        E 0 80 61 00
        E 480 90 3c 60
        E 0 90 48 60
        E 0 90 54 60
        E 0 90 60 60
        E 480 80 3c 00
        E 0 80 48 00
        E 0 80 54 00
        E 0 80 60 00
        E 360 80 31 00
        E 120 90 2b 60
        E 0 90 3e 60
        E 0 90 4a 60
        E 0 90 56 60
        E 0 90 62 60
        E 480 80 3e 00
        E 0 80 4a 00
        E 0 80 56 00
        E 0 80 62 00
        E 480 90 3d 60
        E 0 90 49 60
        E 0 90 55 60
        E 0 90 61 60
        E 480 80 3d 00
        E 0 80 49 00
        E 0 80 55 00
        E 0 80 61 00
        E 480 90 3c 60
        E 0 90 48 60
        E 0 90 54 60
        E 0 90 60 60
        E 120 80 3c 00
        E 0 80 48 00
        E 0 80 54 00
        E 0 80 60 00
        E 360 90 3c 60
        E 0 90 48 60
        E 0 90 54 60
        E 0 90 60 60
        E 480 80 3c 00
        E 0 80 48 00
        E 0 80 54 00
        E 0 80 60 00
        E 240 90 54 60
        E 0 90 60 60
        E 120 80 2b 00
        E 0 80 54 00
        E 0 80 60 00
        E 120 90 31 60
        E 0 90 3e 60
        E 0 90 4a 60
        E 0 90 56 60
        E 0 90 62 60
        E 120 80 3e 00
        E 0 80 4a 00
        E 0 80 56 00
        E 0 80 62 00
        E 120 90 57 60
        E 0 90 63 60
        E 120 80 57 00
        E 0 80 63 00
        E 120 90 3e 60
        E 0 90 4b 60
        E 0 90 58 60
        E 0 90 64 60
        E 480 80 3e 00
        E 0 80 4b 00
        E 240 80 58 00
        E 0 80 64 00
        E 240 90 3e 60
        E 0 90 4b 60
        E 0 90 57 60
        E 0 90 63 60
        E 480 80 3e 00
        E 0 80 4b 00
        E 0 80 57 00
        E 0 80 63 00
        E 360 80 31 00
        E 120 90 31 60
        E 0 90 3d 60
        E 0 90 49 60
        E 0 90 55 60
        E 0 90 61 60
        E 480 80 3d 00
        E 0 80 49 00
        E 0 80 55 00
        E 0 80 61 00
        E 480 90 3c 60
        E 0 90 48 60
        E 0 90 54 60
        E 0 90 60 60
        E 480 80 3c 00
        E 0 80 48 00
        E 0 80 54 00
        E 0 80 60 00
        E 360 80 31 00
        E 120 90 2b 60
        E 0 90 3e 60
        E 0 90 4a 60
        E 0 90 56 60
        E 0 90 62 60
        E 480 80 3e 00
        E 0 80 4a 00
        E 0 80 56 00
        E 0 80 62 00
        E 480 90 3d 60
        E 0 90 49 60
        E 0 90 55 60
        E 0 90 61 60
        E 480 80 3d 00
        E 0 80 49 00
        E 0 80 55 00
        E 0 80 61 00
        E 480 90 3c 60
        E 0 90 48 60
        E 0 90 54 60
        E 0 90 60 60
        E 1440 80 3c 00
        E 0 80 48 00
        E 0 80 54 00
        E 0 80 60 00
        E 480 90 3e 60
        E 0 90 4b 60
        E 0 90 58 60
        E 0 90 64 60
        E 480 80 3e 00
        E 0 80 4b 00
        E 0 80 58 00
        E 0 80 64 00
        E 480 90 3e 60
        E 0 90 4b 60
        E 0 90 57 60
        E 0 90 63 60
        E 480 80 3e 00
        E 0 80 4b 00
        E 0 80 57 00
        E 0 80 63 00
        E 360 80 2b 00
        E 120 90 31 60
        E 0 90 3d 60
        E 0 90 49 60
        E 0 90 55 60
        E 0 90 61 60
        E 480 80 3d 00
        E 0 80 49 00
        E 0 80 55 00
        E 0 80 61 00
        E 480 90 3c 60
        E 0 90 48 60
        E 0 90 54 60
        E 0 90 60 60
        E 480 80 3c 00
        E 0 80 48 00
        E 0 80 54 00
        E 0 80 60 00
        E 360 80 31 00
        E 120 90 2b 60
        E 0 90 3e 60
        E 0 90 4b 60
        E 0 90 57 60
        E 0 90 63 60
        E 480 80 3e 00
        E 0 80 4b 00
        E 0 80 57 00
        E 0 80 63 00
        E 480 90 3e 60
        E 0 90 4a 60
        E 0 90 56 60
        E 0 90 62 60
        E 480 80 3e 00
        E 0 80 4a 00
        E 0 80 56 00
        E 0 80 62 00
        E 480 90 3d 60
        E 0 90 49 60
        E 0 90 55 60
        E 0 90 61 60
        E 480 80 3d 00
        E 0 80 49 00
        E 0 80 55 00
        E 0 80 61 00
        E 480 90 3e 60
        E 0 90 4a 60
        E 0 90 56 60
        E 0 90 62 60
        E 480 80 3e 00
        E 0 80 4a 00
        E 0 80 56 00
        E 0 80 62 00
        E 360 80 2b 00
        E 120 90 2d 60
        E 0 90 3c 60
        E 0 90 48 60
        E 0 90 54 60
        E 0 90 60 60
        <X 6720 0
          /wFbaWRsZV9yZWFsdGltZV0=
        >
        E 0 80 2d 00
        E 0 80 3c 00
        E 0 80 48 00
        E 0 80 54 00
        E 0 80 60 00
        E 2880 b0 7b 00
        GUID {5308300C-95BD-4525-9070-5E2B877E8907}
        IGNTEMPO 0 120.00000000 4 4
        SRCCOLOR 8
        VELLANE 132 123 128
        COLORMAP "C:\Program Files (x86)\REAPER\Data\color_maps\rockband_guitarbass.png"
        CFGEDITVIEW 2480.740798 0.086546 0 12 0 0 0
        CFGEDIT 1 1 0 1 1 0 1 1 1 1 1 0.25000000 -8 0 1370 744 0 2 0 2 0.00000000 0 1 0 0 0.500000 0 0 1.000000 64
        KEYSNAP 0 7 "102030050700" 0 "Pentatonic"
        EVTFILTER 0 -1 -1 -1 -1 0 1 0 0 -1.00000000 -1.00000000
      >
    >
  >
  <TRACK '{1B8219E3-7445-4659-B9EE-C27438D529FB}'
    NAME "PART GUITAR"
    PEAKCOL 16576
    BEAT -1
    AUTOMODE 0
    VOLPAN 1.00000000000000 0.00000000000000 -1.00000000000000 -1.00000000000000 1.00000000000000
    MUTESOLO 0 0 0
    IPHASE 0
    ISBUS 0 0
    BUSCOMP 0 0
    SHOWINMIX 1 0.666700 0.500000 1 0.500000 -1 -1 -1
    FREEMODE 0
    SEL 0
    REC 0 0 0 0 0 0 0
    VU 2
    TRACKHEIGHT 0 0
    INQ 0 0 0 0.5000000000 100 0 0 100
    NCHAN 2
    FX 1
    TRACKID {1B8219E3-7445-4659-B9EE-C27438D529FB}
    PERF 0
    MIDIOUT -1
    <MIDINOTENAMES
      0 127 "Trill Marker"
      0 126 "Tremolo Marker"
      0 125 "---"
      0 124 "BRE"
      0 123 "BRE"
      0 122 "BRE"
      0 121 "BRE"
      0 120 "BRE (use all 5)"
      0 119 "----"
      0 116 "OVERDRIVE"
      0 111 "----"
      0 103 "Solo Marker"
      0 102 "Force HOPO Off"
      0 101 "Force HOPO On"
      0 100 "EXPERT Orange"
      0 99 "EXPERT Blue"
      0 98 "EXPERT Yellow"
      0 97 "EXPERT Red"
      0 96 "EXPERT Green"
      0 91 "----"
      0 90 "Force HOPO Off"
      0 89 "Force HOPO On"
      0 88 "HARD Orange"
      0 87 "HARD Blue"
      0 86 "HARD Yellow"
      0 85 "HARD Red"
      0 84 "HARD Green"
      0 80 "----"
      0 76 "MEDIUM Orange"
      0 75 "MEDIUM Blue"
      0 74 "MEDIUM Yellow"
      0 73 "MEDIUM Red"
      0 72 "MEDIUM Green"
      0 68 "----"
      0 64 "EASY Orange"
      0 63 "EASY Blue"
      0 62 "EASY Yellow"
      0 61 "EASY Red"
      0 60 "EASY Green"
      0 59 "Left Hand Highest (Fret 12)"
      0 58 "-"
      0 57 "Fret 11"
      0 56 "Fret 10"
      0 55 "Fret 9"
      0 54 "-"
      0 53 "Fret 8"
      0 52 "Fret 7"
      0 51 "-"
      0 50 "Fret 6"
      0 49 "Fret 5"
      0 48 "-"
      0 47 "Fret 4"
      0 46 "-"
      0 45 "Fret 3"
      0 44 "-"
      0 43 "Fret 2"
      0 42 "-"
      0 41 "-"
      0 40 "Left Hand Lowest (Fret 1)"
    >
    MAINSEND 1 0
    <FXCHAIN
      SHOW 0
      LASTSEL 0
      DOCKED 0
    >
    <ITEM
      POSITION 0.00000000000000
      SNAPOFFS 0.00000000000000
      LENGTH 236.43059832085180
      LOOP 0
      ALLTAKES 0
      SEL 0
      FADEIN 1 0.000000 0.000000 1 0
      FADEOUT 1 0.000000 0.000000 1 0
      MUTE 0
      IGUID {E1732603-CD76-4D01-8C21-45C11B14BE10}
      IID 44
      NAME "PART GUITAR"
      VOLPAN 1.000000 0.000000 1.000000 -1.000000
      SOFFS 0.00000000000000 0.00000000000000
      PLAYRATE 1.00000000000000 1 0.00000000000000 -1
      CHANMODE 0
      GUID {DEFB5F62-2F9E-46EC-B53D-E3C0E2AFF355}
      <SOURCE MIDI
        HASDATA 1 480 QN
        POOLEDEVTS {B919B9C7-C687-4242-926B-B2F7CEEFA62E}
        <X 0 0
          /wNQQVJUIEdVSVRBUg==
        >
        <X 3840 0
          /wFbbWVsbG93XQ==
        >
        E 0 90 2b 60
        E 0 90 3e 60
        E 0 90 49 60
        E 0 90 4a 60
        E 0 90 54 60
        E 0 90 57 60
        E 0 90 60 60
        E 0 90 62 60
        E 0 90 63 60
        E 120 80 3e 00
        E 0 80 49 00
        E 0 80 4a 00
        E 240 80 54 00
        E 0 80 57 00
        E 0 80 60 00
        E 0 80 62 00
        E 0 80 63 00
        E 120 90 49 60
        E 0 90 4a 60
        E 0 90 54 60
        E 0 90 57 60
        E 0 90 60 60
        E 0 90 62 60
        E 0 90 63 60
        E 120 80 49 00
        E 0 80 4a 00
        E 0 80 54 00
        E 0 80 57 00
        E 0 80 60 00
        E 0 80 62 00
        E 0 80 63 00
        E 120 90 54 60
        E 0 90 60 60
        E 120 80 54 00
        E 0 80 60 00
        E 120 90 3d 60
        E 0 90 48 60
        E 0 90 4a 60
        E 0 90 54 60
        E 0 90 56 60
        E 0 90 60 60
        E 0 90 61 60
        E 0 90 63 60
        E 120 80 3d 00
        E 0 80 48 00
        E 0 80 4a 00
        E 240 80 54 00
        E 0 80 56 00
        E 0 80 60 00
        E 0 80 61 00
        E 0 80 63 00
        E 120 90 48 60
        E 0 90 4a 60
        E 0 90 54 60
        E 0 90 56 60
        E 0 90 60 60
        E 0 90 61 60
        E 0 90 63 60
        E 120 80 48 00
        E 0 80 4a 00
        E 0 80 54 00
        E 0 80 56 00
        E 0 80 60 00
        E 0 80 61 00
        E 0 80 63 00
        E 120 90 54 60
        E 0 90 60 60
        E 120 80 54 00
        E 0 80 60 00
        E 120 90 3c 60
        E 0 90 48 60
        E 0 90 49 60
        E 0 90 54 60
        E 0 90 55 60
        E 0 90 60 60
        E 0 90 61 60
        E 0 90 62 60
        E 120 80 3c 00
        E 0 80 48 00
        E 0 80 49 00
        E 240 80 54 00
        E 0 80 55 00
        E 0 80 60 00
        E 0 80 61 00
        E 0 80 62 00
        E 120 90 3c 60
        E 0 90 48 60
        E 0 90 49 60
        E 0 90 54 60
        E 0 90 55 60
        E 0 90 60 60
        E 0 90 61 60
        E 0 90 62 60
        E 120 80 3c 00
        E 0 80 48 00
        E 0 80 49 00
        E 240 80 54 00
        E 0 80 55 00
        E 0 80 60 00
        E 0 80 61 00
        E 0 80 62 00
        E 120 90 3c 60
        E 0 90 48 60
        E 0 90 49 60
        E 0 90 54 60
        E 0 90 55 60
        E 0 90 60 60
        E 0 90 61 60
        E 0 90 62 60
        E 120 80 3c 00
        E 0 80 48 00
        E 0 80 49 00
        E 240 80 54 00
        E 0 80 55 00
        E 0 80 60 00
        E 0 80 61 00
        E 0 80 62 00
        E 120 90 48 60
        E 0 90 49 60
        E 0 90 54 60
        E 0 90 55 60
        E 0 90 60 60
        E 0 90 61 60
        E 0 90 62 60
        E 120 80 2b 00
        E 0 80 48 00
        E 0 80 49 00
        E 0 80 54 00
        E 0 80 55 00
        E 0 80 60 00
        E 0 80 61 00
        E 0 80 62 00
        E 120 90 28 60
        E 0 90 55 60
        E 0 90 61 60
        E 120 80 55 00
        E 0 80 61 00
        E 120 90 40 60
        E 0 90 4b 60
        E 0 90 4c 60
        E 0 90 56 60
        E 0 90 58 60
        E 0 90 61 60
        E 0 90 63 60
        E 0 90 64 60
        E 120 80 40 00
        E 0 80 4b 00
        E 0 80 4c 00
        E 240 80 56 00
        E 0 80 58 00
        E 0 80 61 00
        E 0 80 63 00
        E 0 80 64 00
        E 120 90 4b 60
        E 0 90 4c 60
        E 0 90 56 60
        E 0 90 58 60
        E 0 90 61 60
        E 0 90 63 60
        E 0 90 64 60
        E 120 80 4b 00
        E 0 80 4c 00
        E 0 80 56 00
        E 0 80 58 00
        E 0 80 61 00
        E 0 80 63 00
        E 0 80 64 00
        E 120 90 55 60
        E 0 90 61 60
        E 120 80 55 00
        E 0 80 61 00
        E 120 90 3f 60
        E 0 90 4a 60
        E 0 90 4b 60
        E 0 90 55 60
        E 0 90 58 60
        E 0 90 61 60
        E 0 90 62 60
        E 0 90 64 60
        E 120 80 3f 00
        E 0 80 4a 00
        E 0 80 4b 00
        E 0 80 55 00
        E 0 80 58 00
        E 0 80 61 00
        E 0 80 62 00
        E 0 80 64 00
        E 120 90 4a 60
        E 0 90 4b 60
        E 0 90 55 60
        E 0 90 58 60
        E 0 90 61 60
        E 0 90 62 60
        E 0 90 64 60
        E 120 80 4a 00
        E 0 80 4b 00
        E 0 80 55 00
        E 0 80 58 00
        E 0 80 61 00
        E 0 80 62 00
        E 0 80 64 00
        E 120 90 4a 60
        E 0 90 4b 60
        E 0 90 55 60
        E 0 90 58 60
        E 0 90 61 60
        E 0 90 62 60
        E 0 90 64 60
        E 120 80 4a 00
        E 0 80 4b 00
        E 0 80 55 00
        E 0 80 58 00
        E 0 80 61 00
        E 0 80 62 00
        E 0 80 64 00
        E 120 90 55 60
        E 0 90 61 60
        E 120 80 55 00
        E 0 80 61 00
        E 120 90 3e 60
        E 0 90 49 60
        E 0 90 4b 60
        E 0 90 55 60
        E 0 90 57 60
        E 0 90 61 60
        E 0 90 62 60
        E 0 90 63 60
        E 0 90 74 60
        E 120 80 3e 00
        E 0 80 49 00
        E 0 80 4b 00
        E 240 80 55 00
        E 0 80 57 00
        E 0 80 61 00
        E 0 80 62 00
        E 0 80 63 00
        E 120 90 3e 60
        E 0 90 49 60
        E 0 90 4b 60
        E 0 90 55 60
        E 0 90 57 60
        E 0 90 61 60
        E 0 90 62 60
        E 0 90 63 60
        E 120 80 3e 00
        E 0 80 49 00
        E 0 80 4b 00
        E 0 80 55 00
        E 0 80 57 00
        E 0 80 61 00
        E 0 80 62 00
        E 0 80 63 00
        E 120 90 49 60
        E 0 90 4b 60
        E 0 90 55 60
        E 0 90 57 60
        E 0 90 61 60
        E 0 90 62 60
        E 0 90 63 60
        E 120 80 49 00
        E 0 80 4b 00
        E 0 80 55 00
        E 0 80 57 00
        E 0 80 61 00
        E 0 80 62 00
        E 0 80 63 00
        E 120 90 3e 60
        E 0 90 49 60
        E 0 90 4b 60
        E 0 90 55 60
        E 0 90 57 60
        E 0 90 61 60
        E 0 90 62 60
        E 0 90 63 60
        E 120 80 3e 00
        E 0 80 49 00
        E 0 80 4b 00
        E 0 80 55 00
        E 0 80 57 00
        E 0 80 61 00
        E 0 80 62 00
        E 0 80 63 00
        E 120 90 49 60
        E 0 90 4b 60
        E 0 90 55 60
        E 0 90 57 60
        E 0 90 61 60
        E 0 90 62 60
        E 0 90 63 60
        E 120 80 49 00
        E 0 80 4b 00
        E 0 80 55 00
        E 0 80 57 00
        E 0 80 61 00
        E 0 80 62 00
        E 0 80 63 00
        E 120 90 3e 60
        E 0 90 49 60
        E 0 90 4b 60
        E 0 90 55 60
        E 0 90 57 60
        E 0 90 61 60
        E 0 90 62 60
        E 0 90 63 60
        E 120 80 28 00
        E 0 80 3e 00
        E 0 80 49 00
        E 0 80 4b 00
        E 0 80 55 00
        E 0 80 57 00
        E 0 80 61 00
        E 0 80 62 00
        E 0 80 63 00
        E 120 90 2b 60
        E 0 90 54 60
        E 0 90 60 60
        E 120 80 54 00
        E 0 80 60 00
        E 120 80 74 00
        E 0 90 3e 60
        E 0 90 49 60
        E 0 90 4a 60
        E 0 90 54 60
        E 0 90 57 60
        E 0 90 60 60
        E 0 90 62 60
        E 0 90 63 60
        E 120 80 3e 00
        E 0 80 49 00
        E 0 80 4a 00
        E 240 80 54 00
        E 0 80 57 00
        E 0 80 60 00
        E 0 80 62 00
        E 0 80 63 00
        E 120 90 49 60
        E 0 90 4a 60
        E 0 90 54 60
        E 0 90 57 60
        E 0 90 60 60
        E 0 90 62 60
        E 0 90 63 60
        E 120 80 49 00
        E 0 80 4a 00
        E 0 80 54 00
        E 0 80 57 00
        E 0 80 60 00
        E 0 80 62 00
        E 0 80 63 00
        E 120 90 54 60
        E 0 90 60 60
        E 120 80 54 00
        E 0 80 60 00
        E 120 90 3d 60
        E 0 90 48 60
        E 0 90 4a 60
        E 0 90 54 60
        E 0 90 56 60
        E 0 90 60 60
        E 0 90 61 60
        E 0 90 63 60
        E 120 80 3d 00
        E 0 80 48 00
        E 0 80 4a 00
        E 240 80 54 00
        E 0 80 56 00
        E 0 80 60 00
        E 0 80 61 00
        E 0 80 63 00
        E 120 90 48 60
        E 0 90 4a 60
        E 0 90 54 60
        E 0 90 56 60
        E 0 90 60 60
        E 0 90 61 60
        E 0 90 63 60
        E 120 80 48 00
        E 0 80 4a 00
        E 0 80 54 00
        E 0 80 56 00
        E 0 80 60 00
        E 0 80 61 00
        E 0 80 63 00
        E 120 90 54 60
        E 0 90 60 60
        E 120 80 54 00
        E 0 80 60 00
        E 120 90 3c 60
        E 0 90 48 60
        E 0 90 49 60
        E 0 90 54 60
        E 0 90 55 60
        E 0 90 60 60
        E 0 90 61 60
        E 0 90 62 60
        E 120 80 3c 00
        E 0 80 48 00
        E 0 80 49 00
        E 240 80 54 00
        E 0 80 55 00
        E 0 80 60 00
        E 0 80 61 00
        E 0 80 62 00
        E 120 90 3c 60
        E 0 90 48 60
        E 0 90 49 60
        E 0 90 54 60
        E 0 90 55 60
        E 0 90 60 60
        E 0 90 61 60
        E 120 80 3c 00
        E 0 80 48 00
        E 0 80 49 00
        E 0 80 54 00
        E 0 80 55 00
        E 0 80 60 00
        E 0 80 61 00
        E 120 90 48 60
        E 0 90 49 60
        E 0 90 54 60
        E 0 90 55 60
        E 0 90 60 60
        E 0 90 61 60
        E 0 90 62 60
        E 120 80 48 00
        E 0 80 49 00
        E 0 80 54 00
        E 0 80 55 00
        E 0 80 60 00
        E 0 80 61 00
        E 0 80 62 00
        E 120 90 3c 60
        E 0 90 48 60
        E 0 90 49 60
        E 0 90 54 60
        E 0 90 55 60
        E 0 90 60 60
        E 0 90 61 60
        E 120 80 3c 00
        E 0 80 48 00
        E 0 80 49 00
        E 0 80 54 00
        E 0 80 55 00
        E 0 80 60 00
        E 0 80 61 00
        E 120 90 48 60
        E 0 90 49 60
        E 0 90 54 60
        E 0 90 55 60
        E 0 90 60 60
        E 0 90 61 60
        E 0 90 62 60
        E 120 80 48 00
        E 0 80 49 00
        E 0 80 54 00
        E 0 80 55 00
        E 0 80 60 00
        E 0 80 61 00
        E 0 80 62 00
        E 120 90 48 60
        E 0 90 49 60
        E 0 90 54 60
        E 0 90 55 60
        E 0 90 60 60
        E 0 90 61 60
        E 120 80 2b 00
        E 0 80 48 00
        E 0 80 49 00
        E 0 80 54 00
        E 0 80 55 00
        E 0 80 60 00
        E 0 80 61 00
        E 120 90 28 60
        E 0 90 55 60
        E 0 90 61 60
        E 120 80 55 00
        E 0 80 61 00
        E 120 90 40 60
        E 0 90 4b 60
        E 0 90 4c 60
        E 0 90 56 60
        E 0 90 58 60
        E 0 90 61 60
        E 0 90 63 60
        E 0 90 64 60
        E 120 80 40 00
        E 0 80 4b 00
        E 0 80 4c 00
        E 240 80 56 00
        E 0 80 58 00
        E 0 80 61 00
        E 0 80 63 00
        E 0 80 64 00
        E 120 90 4b 60
        E 0 90 4c 60
        E 0 90 56 60
        E 0 90 58 60
        E 0 90 61 60
        E 0 90 63 60
        E 0 90 64 60
        E 120 80 4b 00
        E 0 80 4c 00
        E 0 80 56 00
        E 0 80 58 00
        E 0 80 61 00
        E 0 80 63 00
        E 0 80 64 00
        E 120 90 55 60
        E 0 90 61 60
        E 120 80 55 00
        E 0 80 61 00
        E 120 90 3f 60
        E 0 90 4a 60
        E 0 90 4b 60
        E 0 90 55 60
        E 0 90 58 60
        E 0 90 61 60
        E 0 90 62 60
        E 0 90 64 60
        E 120 80 3f 00
        E 0 80 4a 00
        E 0 80 4b 00
        E 240 80 55 00
        E 0 80 58 00
        E 0 80 61 00
        E 0 80 62 00
        E 0 80 64 00
        E 120 90 4a 60
        E 0 90 4b 60
        E 0 90 55 60
        E 0 90 58 60
        E 0 90 61 60
        E 0 90 62 60
        E 0 90 64 60
        E 120 80 4a 00
        E 0 80 4b 00
        E 0 80 55 00
        E 0 80 58 00
        E 0 80 61 00
        E 0 80 62 00
        E 0 80 64 00
        E 120 90 55 60
        E 0 90 61 60
        E 120 80 55 00
        E 0 80 61 00
        E 120 90 3e 60
        E 0 90 49 60
        E 0 90 4b 60
        E 0 90 55 60
        E 0 90 57 60
        E 0 90 61 60
        E 0 90 62 60
        E 0 90 63 60
        E 120 80 3e 00
        E 0 80 49 00
        E 0 80 4b 00
        E 240 80 55 00
        E 0 80 57 00
        E 0 80 61 00
        E 0 80 62 00
        E 0 80 63 00
        E 120 90 3e 60
        E 0 90 49 60
        E 0 90 4a 60
        E 0 90 55 60
        E 0 90 56 60
        E 0 90 61 60
        E 0 90 62 60
        E 120 80 3e 00
        E 0 80 49 00
        E 0 80 4a 00
        E 0 80 55 00
        E 0 80 56 00
        E 0 80 61 00
        E 0 80 62 00
        E 120 90 49 60
        E 0 90 4a 60
        E 0 90 55 60
        E 0 90 56 60
        E 0 90 61 60
        E 0 90 62 60
        E 120 80 49 00
        E 0 80 4a 00
        E 0 80 55 00
        E 0 80 56 00
        E 0 80 61 00
        E 0 80 62 00
        E 120 90 3e 60
        E 0 90 49 60
        E 0 90 4a 60
        E 0 90 55 60
        E 0 90 56 60
        E 0 90 61 60
        E 0 90 62 60
        E 120 80 3e 00
        E 0 80 49 00
        E 0 80 4a 00
        E 0 80 55 00
        E 0 80 56 00
        E 0 80 61 00
        E 0 80 62 00
        E 120 90 49 60
        E 0 90 4a 60
        E 0 90 55 60
        E 0 90 56 60
        E 0 90 61 60
        E 0 90 62 60
        E 120 80 49 00
        E 0 80 4a 00
        E 0 80 55 00
        E 0 80 56 00
        E 0 80 61 00
        E 0 80 62 00
        E 120 90 3e 60
        E 0 90 49 60
        E 0 90 4a 60
        E 0 90 55 60
        E 0 90 56 60
        E 0 90 61 60
        E 0 90 62 60
        E 120 80 28 00
        E 0 80 3e 00
        E 0 80 49 00
        E 0 80 4a 00
        E 0 80 55 00
        E 0 80 56 00
        E 0 80 61 00
        E 0 80 62 00
        E 120 90 2b 60
        E 0 90 54 60
        E 0 90 60 60
        E 120 80 54 00
        E 0 80 60 00
        E 120 90 3e 60
        E 0 90 49 60
        E 0 90 4a 60
        E 0 90 54 60
        E 0 90 57 60
        E 0 90 60 60
        E 0 90 62 60
        E 0 90 63 60
        E 120 80 3e 00
        E 0 80 49 00
        E 0 80 4a 00
        E 240 80 54 00
        E 0 80 57 00
        E 0 80 60 00
        E 0 80 62 00
        E 0 80 63 00
        E 120 90 49 60
        E 0 90 4a 60
        E 0 90 54 60
        E 0 90 57 60
        E 0 90 60 60
        E 0 90 62 60
        E 0 90 63 60
        E 120 80 49 00
        E 0 80 4a 00
        E 0 80 54 00
        E 0 80 57 00
        E 0 80 60 00
        E 0 80 62 00
        E 0 80 63 00
        E 120 90 54 60
        E 0 90 60 60
        E 120 80 54 00
        E 0 80 60 00
        E 120 90 3d 60
        E 0 90 48 60
        E 0 90 4a 60
        E 0 90 54 60
        E 0 90 56 60
        E 0 90 60 60
        E 0 90 61 60
        E 0 90 63 60
        E 120 80 3d 00
        E 0 80 48 00
        E 0 80 4a 00
        E 0 80 54 00
        E 0 80 56 00
        E 0 80 60 00
        E 0 80 61 00
        E 0 80 63 00
        E 120 90 48 60
        E 0 90 4a 60
        E 0 90 54 60
        E 0 90 56 60
        E 0 90 60 60
        E 0 90 61 60
        E 0 90 63 60
        E 120 80 48 00
        E 0 80 4a 00
        E 0 80 54 00
        E 0 80 56 00
        E 0 80 60 00
        E 0 80 61 00
        E 0 80 63 00
        E 120 90 48 60
        E 0 90 4a 60
        E 0 90 54 60
        E 0 90 56 60
        E 0 90 60 60
        E 0 90 61 60
        E 0 90 63 60
        E 120 80 48 00
        E 0 80 4a 00
        E 0 80 54 00
        E 0 80 56 00
        E 0 80 60 00
        E 0 80 61 00
        E 0 80 63 00
        E 120 90 54 60
        E 0 90 60 60
        E 120 80 54 00
        E 0 80 60 00
        E 120 90 3c 60
        E 0 90 48 60
        E 0 90 49 60
        E 0 90 54 60
        E 0 90 55 60
        E 0 90 60 60
        E 0 90 61 60
        E 0 90 62 60
        E 120 80 3c 00
        E 0 80 48 00
        E 0 80 49 00
        E 240 80 54 00
        E 0 80 55 00
        E 0 80 60 00
        E 0 80 61 00
        E 0 80 62 00
        E 120 90 3c 60
        E 0 90 48 60
        E 0 90 49 60
        E 0 90 54 60
        E 0 90 55 60
        E 0 90 60 60
        E 0 90 61 60
        E 120 80 3c 00
        E 0 80 48 00
        E 0 80 49 00
        E 0 80 54 00
        E 0 80 55 00
        E 0 80 60 00
        E 0 80 61 00
        E 120 90 48 60
        E 0 90 49 60
        E 0 90 54 60
        E 0 90 55 60
        E 0 90 60 60
        E 0 90 61 60
        E 0 90 62 60
        E 120 80 48 00
        E 0 80 49 00
        E 0 80 54 00
        E 0 80 55 00
        E 0 80 60 00
        E 0 80 61 00
        E 0 80 62 00
        E 120 90 3c 60
        E 0 90 48 60
        E 0 90 49 60
        E 0 90 54 60
        E 0 90 55 60
        E 0 90 60 60
        E 0 90 61 60
        E 120 80 3c 00
        E 0 80 48 00
        E 0 80 49 00
        E 0 80 54 00
        E 0 80 55 00
        E 0 80 60 00
        E 0 80 61 00
        E 120 90 48 60
        E 0 90 49 60
        E 0 90 54 60
        E 0 90 55 60
        E 0 90 60 60
        E 0 90 61 60
        E 0 90 62 60
        E 120 80 48 00
        E 0 80 49 00
        E 0 80 54 00
        E 0 80 55 00
        E 0 80 60 00
        E 0 80 61 00
        E 0 80 62 00
        E 120 90 48 60
        E 0 90 49 60
        E 0 90 54 60
        E 0 90 55 60
        E 0 90 60 60
        E 0 90 61 60
        E 120 80 2b 00
        E 0 80 48 00
        E 0 80 49 00
        E 0 80 54 00
        E 0 80 55 00
        E 0 80 60 00
        E 0 80 61 00
        E 120 90 28 60
        E 0 90 55 60
        E 0 90 61 60
        E 120 80 55 00
        E 0 80 61 00
        E 120 90 40 60
        E 0 90 4b 60
        E 0 90 4c 60
        E 0 90 56 60
        E 0 90 58 60
        E 0 90 61 60
        E 0 90 63 60
        E 0 90 64 60
        E 120 80 40 00
        E 0 80 4b 00
        E 0 80 4c 00
        E 240 80 56 00
        E 0 80 58 00
        E 0 80 61 00
        E 0 80 63 00
        E 0 80 64 00
        E 120 90 4b 60
        E 0 90 4c 60
        E 0 90 56 60
        E 0 90 58 60
        E 0 90 61 60
        E 0 90 63 60
        E 0 90 64 60
        E 120 80 4b 00
        E 0 80 4c 00
        E 0 80 56 00
        E 0 80 58 00
        E 0 80 61 00
        E 0 80 63 00
        E 0 80 64 00
        E 120 90 55 60
        E 0 90 61 60
        E 120 80 55 00
        E 0 80 61 00
        E 120 90 3f 60
        E 0 90 4a 60
        E 0 90 4b 60
        E 0 90 55 60
        E 0 90 58 60
        E 0 90 61 60
        E 0 90 62 60
        E 0 90 64 60
        E 120 80 3f 00
        E 0 80 4a 00
        E 0 80 4b 00
        E 240 80 55 00
        E 0 80 58 00
        E 0 80 61 00
        E 0 80 62 00
        E 0 80 64 00
        E 120 90 4a 60
        E 0 90 4b 60
        E 0 90 55 60
        E 0 90 58 60
        E 0 90 61 60
        E 0 90 62 60
        E 0 90 64 60
        E 120 80 4a 00
        E 0 80 4b 00
        E 0 80 55 00
        E 0 80 58 00
        E 0 80 61 00
        E 0 80 62 00
        E 0 80 64 00
        E 120 90 55 60
        E 0 90 61 60
        E 120 80 55 00
        E 0 80 61 00
        E 120 90 3e 60
        E 0 90 49 60
        E 0 90 4b 60
        E 0 90 55 60
        E 0 90 57 60
        E 0 90 61 60
        E 0 90 62 60
        E 0 90 63 60
        E 120 80 3e 00
        E 0 80 49 00
        E 0 80 4b 00
        E 240 80 55 00
        E 0 80 57 00
        E 0 80 61 00
        E 0 80 62 00
        E 0 80 63 00
        E 120 90 3e 60
        E 0 90 49 60
        E 0 90 4a 60
        E 0 90 55 60
        E 0 90 56 60
        E 0 90 61 60
        E 0 90 62 60
        E 120 80 3e 00
        E 0 80 49 00
        E 0 80 4a 00
        E 0 80 55 00
        E 0 80 56 00
        E 0 80 61 00
        E 0 80 62 00
        E 120 90 55 60
        E 0 90 57 60
        E 0 90 61 60
        E 0 90 62 60
        E 0 90 63 60
        E 120 80 55 00
        E 0 80 57 00
        E 0 80 61 00
        E 0 80 62 00
        E 0 80 63 00
        E 120 90 3e 60
        E 0 90 49 60
        E 0 90 4a 60
        E 0 90 55 60
        E 0 90 56 60
        E 0 90 61 60
        E 0 90 62 60
        E 120 80 3e 00
        E 0 80 49 00
        E 0 80 4a 00
        E 0 80 55 00
        E 0 80 56 00
        E 0 80 61 00
        E 0 80 62 00
        E 120 90 54 60
        E 0 90 56 60
        E 0 90 60 60
        E 0 90 62 60
        E 120 80 54 00
        E 0 80 56 00
        E 0 80 60 00
        E 0 80 62 00
        E 120 90 3e 60
        E 0 90 48 60
        E 0 90 4a 60
        E 0 90 54 60
        E 0 90 56 60
        E 0 90 60 60
        E 0 90 62 60
        E 120 80 28 00
        E 0 80 3e 00
        E 0 80 48 00
        E 0 80 4a 00
        E 0 80 54 00
        E 0 80 56 00
        E 0 80 60 00
        E 0 80 62 00
        E 120 90 2b 60
        E 0 90 54 60
        E 0 90 60 60
        E 120 80 54 00
        E 0 80 60 00
        E 120 90 3e 60
        E 0 90 49 60
        E 0 90 4a 60
        E 0 90 54 60
        E 0 90 57 60
        E 0 90 60 60
        E 0 90 62 60
        E 0 90 63 60
        E 120 80 3e 00
        E 0 80 49 00
        E 0 80 4a 00
        E 240 80 54 00
        E 0 80 57 00
        E 0 80 60 00
        E 0 80 62 00
        E 0 80 63 00
        E 120 90 49 60
        E 0 90 4a 60
        E 0 90 54 60
        E 0 90 57 60
        E 0 90 60 60
        E 0 90 62 60
        E 0 90 63 60
        E 120 80 49 00
        E 0 80 4a 00
        E 0 80 54 00
        E 0 80 57 00
        E 0 80 60 00
        E 0 80 62 00
        E 0 80 63 00
        E 120 90 54 60
        E 0 90 60 60
        E 120 80 54 00
        E 0 80 60 00
        E 120 90 3d 60
        E 0 90 48 60
        E 0 90 4a 60
        E 0 90 54 60
        E 0 90 56 60
        E 0 90 60 60
        E 0 90 61 60
        E 0 90 63 60
        E 120 80 3d 00
        E 0 80 48 00
        E 0 80 4a 00
        E 240 80 54 00
        E 0 80 56 00
        E 0 80 60 00
        E 0 80 61 00
        E 0 80 63 00
        E 120 90 48 60
        E 0 90 4a 60
        E 0 90 54 60
        E 0 90 56 60
        E 0 90 60 60
        E 0 90 61 60
        E 0 90 63 60
        E 120 80 48 00
        E 0 80 4a 00
        E 0 80 54 00
        E 0 80 56 00
        E 0 80 60 00
        E 0 80 61 00
        E 0 80 63 00
        E 120 90 54 60
        E 0 90 60 60
        E 120 80 54 00
        E 0 80 60 00
        E 120 90 3c 60
        E 0 90 48 60
        E 0 90 49 60
        E 0 90 54 60
        E 0 90 55 60
        E 0 90 60 60
        E 0 90 61 60
        E 0 90 62 60
        E 0 90 74 60
        E 120 80 3c 00
        E 0 80 48 00
        E 0 80 49 00
        E 240 80 54 00
        E 0 80 55 00
        E 0 80 60 00
        E 0 80 61 00
        E 0 80 62 00
        E 120 90 3c 60
        E 0 90 48 60
        E 0 90 49 60
        E 0 90 54 60
        E 0 90 55 60
        E 0 90 60 60
        E 0 90 61 60
        E 120 80 3c 00
        E 0 80 48 00
        E 0 80 49 00
        E 0 80 54 00
        E 0 80 55 00
        E 0 80 60 00
        E 0 80 61 00
        E 120 90 48 60
        E 0 90 49 60
        E 0 90 54 60
        E 0 90 55 60
        E 0 90 60 60
        E 0 90 61 60
        E 0 90 62 60
        E 120 80 48 00
        E 0 80 49 00
        E 0 80 54 00
        E 0 80 55 00
        E 0 80 60 00
        E 0 80 61 00
        E 0 80 62 00
        E 120 90 3c 60
        E 0 90 48 60
        E 0 90 49 60
        E 0 90 54 60
        E 0 90 55 60
        E 0 90 60 60
        E 0 90 61 60
        E 120 80 3c 00
        E 0 80 48 00
        E 0 80 49 00
        E 0 80 54 00
        E 0 80 55 00
        E 0 80 60 00
        E 0 80 61 00
        E 120 90 48 60
        E 0 90 49 60
        E 0 90 54 60
        E 0 90 55 60
        E 0 90 60 60
        E 0 90 61 60
        E 120 80 48 00
        E 0 80 49 00
        E 0 80 54 00
        E 0 80 55 00
        E 0 80 60 00
        E 0 80 61 00
        E 120 90 48 60
        E 0 90 49 60
        E 0 90 54 60
        E 0 90 55 60
        E 0 90 60 60
        E 0 90 61 60
        E 120 80 2b 00
        E 0 80 48 00
        E 0 80 49 00
        E 0 80 54 00
        E 0 80 55 00
        E 0 80 60 00
        E 0 80 61 00
        E 120 90 28 60
        E 0 90 55 60
        E 0 90 61 60
        E 120 80 55 00
        E 0 80 61 00
        E 120 80 74 00
        E 0 90 40 60
        E 0 90 4b 60
        E 0 90 4c 60
        E 0 90 56 60
        E 0 90 58 60
        E 0 90 61 60
        E 0 90 63 60
        E 0 90 64 60
        E 120 80 40 00
        E 0 80 4b 00
        E 0 80 4c 00
        E 240 80 56 00
        E 0 80 58 00
        E 0 80 61 00
        E 0 80 63 00
        E 0 80 64 00
        E 120 90 4b 60
        E 0 90 4c 60
        E 0 90 56 60
        E 0 90 58 60
        E 0 90 61 60
        E 0 90 63 60
        E 0 90 64 60
        E 120 80 4b 00
        E 0 80 4c 00
        E 0 80 56 00
        E 0 80 58 00
        E 0 80 61 00
        E 0 80 63 00
        E 0 80 64 00
        E 120 90 55 60
        E 0 90 61 60
        E 120 80 55 00
        E 0 80 61 00
        E 120 90 3f 60
        E 0 90 4a 60
        E 0 90 4b 60
        E 0 90 55 60
        E 0 90 58 60
        E 0 90 61 60
        E 0 90 62 60
        E 0 90 64 60
        E 120 80 3f 00
        E 0 80 4a 00
        E 0 80 4b 00
        E 240 80 55 00
        E 0 80 58 00
        E 0 80 61 00
        E 0 80 62 00
        E 0 80 64 00
        E 120 90 4a 60
        E 0 90 4b 60
        E 0 90 55 60
        E 0 90 58 60
        E 0 90 61 60
        E 0 90 62 60
        E 0 90 64 60
        E 120 80 4a 00
        E 0 80 4b 00
        E 0 80 55 00
        E 0 80 58 00
        E 0 80 61 00
        E 0 80 62 00
        E 0 80 64 00
        E 120 90 55 60
        E 0 90 61 60
        E 120 80 55 00
        E 0 80 61 00
        E 120 90 3e 60
        E 0 90 49 60
        E 0 90 4b 60
        E 0 90 55 60
        E 0 90 57 60
        E 0 90 61 60
        E 0 90 62 60
        E 0 90 63 60
        E 120 80 3e 00
        E 0 80 49 00
        E 0 80 4b 00
        E 240 80 55 00
        E 0 80 57 00
        E 0 80 61 00
        E 0 80 62 00
        E 0 80 63 00
        E 120 90 3e 60
        E 0 90 49 60
        E 0 90 4a 60
        E 0 90 55 60
        E 0 90 56 60
        E 0 90 61 60
        E 0 90 62 60
        E 120 80 3e 00
        E 0 80 49 00
        E 0 80 4a 00
        E 0 80 55 00
        E 0 80 56 00
        E 0 80 61 00
        E 0 80 62 00
        E 120 90 55 60
        E 0 90 57 60
        E 0 90 61 60
        E 0 90 62 60
        E 0 90 63 60
        E 120 80 55 00
        E 0 80 57 00
        E 0 80 61 00
        E 0 80 62 00
        E 0 80 63 00
        E 120 90 3e 60
        E 0 90 49 60
        E 0 90 4a 60
        E 0 90 55 60
        E 0 90 56 60
        E 0 90 61 60
        E 0 90 62 60
        E 120 80 3e 00
        E 0 80 49 00
        E 0 80 4a 00
        E 0 80 55 00
        E 0 80 56 00
        E 0 80 61 00
        E 0 80 62 00
        E 120 90 49 60
        E 0 90 4a 60
        E 0 90 55 60
        E 0 90 56 60
        E 0 90 61 60
        E 0 90 62 60
        E 120 80 49 00
        E 0 80 4a 00
        E 0 80 55 00
        E 0 80 56 00
        E 0 80 61 00
        E 0 80 62 00
        E 120 90 3e 60
        E 0 90 49 60
        E 0 90 4a 60
        E 0 90 55 60
        E 0 90 56 60
        E 0 90 61 60
        E 0 90 62 60
        E 120 80 28 00
        E 0 80 3e 00
        E 0 80 49 00
        E 0 80 4a 00
        E 0 80 55 00
        E 0 80 56 00
        E 0 80 61 00
        E 0 80 62 00
        E 120 90 2b 60
        E 0 90 54 60
        E 0 90 60 60
        E 120 80 54 00
        E 0 80 60 00
        E 120 90 3e 60
        E 0 90 49 60
        E 0 90 4a 60
        E 0 90 54 60
        E 0 90 57 60
        E 0 90 60 60
        E 0 90 62 60
        E 0 90 63 60
        E 120 80 3e 00
        E 0 80 49 00
        E 0 80 4a 00
        E 240 80 54 00
        E 0 80 57 00
        E 0 80 60 00
        E 0 80 62 00
        E 0 80 63 00
        E 120 90 49 60
        E 0 90 4a 60
        E 0 90 54 60
        E 0 90 57 60
        E 0 90 60 60
        E 0 90 62 60
        E 0 90 63 60
        E 120 80 49 00
        E 0 80 4a 00
        E 0 80 54 00
        E 0 80 57 00
        E 0 80 60 00
        E 0 80 62 00
        E 0 80 63 00
        E 120 90 54 60
        E 0 90 60 60
        E 120 80 54 00
        E 0 80 60 00
        E 120 90 3d 60
        E 0 90 48 60
        E 0 90 4a 60
        E 0 90 54 60
        E 0 90 56 60
        E 0 90 60 60
        E 0 90 61 60
        E 0 90 63 60
        E 120 80 3d 00
        E 0 80 48 00
        E 0 80 4a 00
        E 0 80 54 00
        E 0 80 56 00
        E 0 80 60 00
        E 0 80 61 00
        E 0 80 63 00
        E 120 90 48 60
        E 0 90 4a 60
        E 0 90 54 60
        E 0 90 56 60
        E 0 90 60 60
        E 0 90 61 60
        E 0 90 63 60
        E 120 80 48 00
        E 0 80 4a 00
        E 0 80 54 00
        E 0 80 56 00
        E 0 80 60 00
        E 0 80 61 00
        E 0 80 63 00
        E 120 90 48 60
        E 0 90 4a 60
        E 0 90 54 60
        E 0 90 56 60
        E 0 90 60 60
        E 0 90 61 60
        E 0 90 63 60
        E 120 80 48 00
        E 0 80 4a 00
        E 0 80 54 00
        E 0 80 56 00
        E 0 80 60 00
        E 0 80 61 00
        E 0 80 63 00
        E 120 90 54 60
        E 0 90 60 60
        E 120 80 54 00
        E 0 80 60 00
        E 120 90 3c 60
        E 0 90 48 60
        E 0 90 49 60
        E 0 90 54 60
        E 0 90 55 60
        E 0 90 60 60
        E 0 90 61 60
        E 0 90 62 60
        E 120 80 3c 00
        E 0 80 48 00
        E 0 80 49 00
        E 240 80 54 00
        E 0 80 55 00
        E 0 80 60 00
        E 0 80 61 00
        E 0 80 62 00
        E 120 90 3c 60
        E 0 90 48 60
        E 0 90 49 60
        E 0 90 54 60
        E 0 90 55 60
        E 0 90 60 60
        E 0 90 61 60
        E 120 80 3c 00
        E 0 80 48 00
        E 0 80 49 00
        E 0 80 54 00
        E 0 80 55 00
        E 0 80 60 00
        E 0 80 61 00
        E 120 90 48 60
        E 0 90 49 60
        E 0 90 54 60
        E 0 90 55 60
        E 0 90 60 60
        E 0 90 61 60
        E 0 90 62 60
        E 120 80 48 00
        E 0 80 49 00
        E 0 80 54 00
        E 0 80 55 00
        E 0 80 60 00
        E 0 80 61 00
        E 0 80 62 00
        E 120 90 3c 60
        E 0 90 48 60
        E 0 90 49 60
        E 0 90 54 60
        E 0 90 55 60
        E 0 90 60 60
        E 0 90 61 60
        E 120 80 3c 00
        E 0 80 48 00
        E 0 80 49 00
        E 0 80 54 00
        E 0 80 55 00
        E 0 80 60 00
        E 0 80 61 00
        E 120 90 48 60
        E 0 90 49 60
        E 0 90 54 60
        E 0 90 55 60
        E 0 90 60 60
        E 0 90 61 60
        E 0 90 62 60
        E 120 80 48 00
        E 0 80 49 00
        E 0 80 54 00
        E 0 80 55 00
        E 0 80 60 00
        E 0 80 61 00
        E 0 80 62 00
        E 120 90 48 60
        E 0 90 49 60
        E 0 90 54 60
        E 0 90 55 60
        E 0 90 60 60
        E 0 90 61 60
        E 120 80 2b 00
        E 0 80 48 00
        E 0 80 49 00
        E 0 80 54 00
        E 0 80 55 00
        E 0 80 60 00
        E 0 80 61 00
        E 120 90 28 60
        E 0 90 55 60
        E 0 90 61 60
        E 120 80 55 00
        E 0 80 61 00
        E 120 90 40 60
        E 0 90 4b 60
        E 0 90 4c 60
        E 0 90 56 60
        E 0 90 58 60
        E 0 90 61 60
        E 0 90 63 60
        E 0 90 64 60
        E 120 80 40 00
        E 0 80 4b 00
        E 0 80 4c 00
        E 240 80 56 00
        E 0 80 58 00
        E 0 80 61 00
        E 0 80 63 00
        E 0 80 64 00
        E 120 90 49 60
        E 0 90 4b 60
        E 0 90 55 60
        E 0 90 57 60
        E 0 90 61 60
        E 0 90 63 60
        E 120 80 49 00
        E 0 80 4b 00
        E 240 80 55 00
        E 0 80 57 00
        E 0 80 61 00
        E 0 80 63 00
        E 120 90 40 60
        E 0 90 4b 60
        E 0 90 4c 60
        E 0 90 56 60
        E 0 90 58 60
        E 0 90 61 60
        E 0 90 63 60
        E 0 90 64 60
        E 120 80 40 00
        E 0 80 4b 00
        E 0 80 4c 00
        E 240 80 56 00
        E 0 80 58 00
        E 0 80 61 00
        E 0 80 63 00
        E 0 80 64 00
        E 120 90 49 60
        E 0 90 4b 60
        E 0 90 55 60
        E 0 90 57 60
        E 0 90 61 60
        E 0 90 63 60
        E 120 80 28 00
        E 0 80 49 00
        E 0 80 4b 00
        E 0 80 55 00
        E 0 80 57 00
        E 0 80 61 00
        E 0 80 63 00
        E 120 90 2b 60
        E 0 90 56 60
        E 0 90 62 60
        E 120 80 56 00
        E 0 80 62 00
        E 120 90 40 60
        E 0 90 4b 60
        E 0 90 4c 60
        E 0 90 57 60
        E 0 90 58 60
        E 0 90 62 60
        E 0 90 63 60
        E 0 90 64 60
        E 120 80 40 00
        E 0 80 4b 00
        E 0 80 4c 00
        E 0 80 57 00
        E 0 80 58 00
        E 0 80 62 00
        E 0 80 63 00
        E 0 80 64 00
        E 120 90 56 60
        E 0 90 57 60
        E 0 90 62 60
        E 0 90 63 60
        E 120 80 56 00
        E 0 80 57 00
        E 0 80 62 00
        E 0 80 63 00
        E 120 90 4a 60
        E 0 90 4b 60
        E 0 90 56 60
        E 0 90 57 60
        E 0 90 62 60
        E 0 90 63 60
        E 120 80 4a 00
        E 0 80 4b 00
        E 240 80 56 00
        E 0 80 57 00
        E 0 80 62 00
        E 0 80 63 00
        E 120 90 40 60
        E 0 90 4b 60
        E 0 90 4c 60
        E 0 90 57 60
        E 0 90 58 60
        E 0 90 62 60
        E 0 90 63 60
        E 0 90 64 60
        E 120 80 40 00
        E 0 80 4b 00
        E 0 80 4c 00
        E 240 80 57 00
        E 0 80 58 00
        E 0 80 62 00
        E 0 80 63 00
        E 0 80 64 00
        E 120 90 4a 60
        E 0 90 4b 60
        E 0 90 56 60
        E 0 90 57 60
        E 0 90 62 60
        E 0 90 63 60
        E 120 80 2b 00
        E 0 80 4a 00
        E 0 80 4b 00
        E 0 80 56 00
        E 0 80 57 00
        E 0 80 62 00
        E 0 80 63 00
        E 120 90 2b 60
        E 0 90 54 60
        E 0 90 60 60
        E 120 80 54 00
        E 0 80 60 00
        E 120 90 3e 60
        E 0 90 49 60
        E 0 90 4a 60
        E 0 90 54 60
        E 0 90 57 60
        E 0 90 60 60
        E 0 90 62 60
        E 0 90 63 60
        E 120 80 3e 00
        E 0 80 49 00
        E 0 80 4a 00
        E 240 80 54 00
        E 0 80 57 00
        E 0 80 60 00
        E 0 80 62 00
        E 0 80 63 00
        E 120 90 49 60
        E 0 90 4a 60
        E 0 90 54 60
        E 0 90 57 60
        E 0 90 60 60
        E 0 90 62 60
        E 0 90 63 60
        E 120 80 49 00
        E 0 80 4a 00
        E 0 80 54 00
        E 0 80 57 00
        E 0 80 60 00
        E 0 80 62 00
        E 0 80 63 00
        E 120 90 54 60
        E 0 90 60 60
        E 120 80 54 00
        E 0 80 60 00
        E 120 90 3d 60
        E 0 90 48 60
        E 0 90 4a 60
        E 0 90 54 60
        E 0 90 56 60
        E 0 90 60 60
        E 0 90 61 60
        E 0 90 63 60
        E 120 80 3d 00
        E 0 80 48 00
        E 0 80 4a 00
        E 0 80 54 00
        E 0 80 56 00
        E 0 80 60 00
        E 0 80 61 00
        E 0 80 63 00
        E 120 90 48 60
        E 0 90 4a 60
        E 0 90 54 60
        E 0 90 56 60
        E 0 90 60 60
        E 0 90 61 60
        E 0 90 63 60
        E 120 80 48 00
        E 0 80 4a 00
        E 0 80 54 00
        E 0 80 56 00
        E 0 80 60 00
        E 0 80 61 00
        E 0 80 63 00
        E 120 90 48 60
        E 0 90 4a 60
        E 0 90 54 60
        E 0 90 56 60
        E 0 90 60 60
        E 0 90 61 60
        E 0 90 63 60
        E 120 80 48 00
        E 0 80 4a 00
        E 0 80 54 00
        E 0 80 56 00
        E 0 80 60 00
        E 0 80 61 00
        E 0 80 63 00
        E 120 90 54 60
        E 0 90 60 60
        E 120 80 54 00
        E 0 80 60 00
        E 120 90 3c 60
        E 0 90 48 60
        E 0 90 49 60
        E 0 90 54 60
        E 0 90 55 60
        E 0 90 60 60
        E 0 90 61 60
        E 0 90 62 60
        E 120 80 3c 00
        E 0 80 48 00
        E 0 80 49 00
        E 240 80 54 00
        E 0 80 55 00
        E 0 80 60 00
        E 0 80 61 00
        E 0 80 62 00
        E 120 90 3c 60
        E 0 90 48 60
        E 0 90 49 60
        E 0 90 54 60
        E 0 90 55 60
        E 0 90 60 60
        E 0 90 61 60
        E 120 80 3c 00
        E 0 80 48 00
        E 0 80 49 00
        E 0 80 54 00
        E 0 80 55 00
        E 0 80 60 00
        E 0 80 61 00
        E 120 90 48 60
        E 0 90 49 60
        E 0 90 54 60
        E 0 90 55 60
        E 0 90 60 60
        E 0 90 61 60
        E 0 90 62 60
        E 120 80 48 00
        E 0 80 49 00
        E 0 80 54 00
        E 0 80 55 00
        E 0 80 60 00
        E 0 80 61 00
        E 0 80 62 00
        E 120 90 3c 60
        E 0 90 48 60
        E 0 90 49 60
        E 0 90 54 60
        E 0 90 55 60
        E 0 90 60 60
        E 0 90 61 60
        E 120 80 3c 00
        E 0 80 48 00
        E 0 80 49 00
        E 0 80 54 00
        E 0 80 55 00
        E 0 80 60 00
        E 0 80 61 00
        E 120 90 48 60
        E 0 90 49 60
        E 0 90 54 60
        E 0 90 55 60
        E 0 90 60 60
        E 0 90 61 60
        E 0 90 62 60
        E 120 80 48 00
        E 0 80 49 00
        E 0 80 54 00
        E 0 80 55 00
        E 0 80 60 00
        E 0 80 61 00
        E 0 80 62 00
        E 120 90 48 60
        E 0 90 49 60
        E 0 90 54 60
        E 0 90 55 60
        E 0 90 60 60
        E 0 90 61 60
        E 120 80 2b 00
        E 0 80 48 00
        E 0 80 49 00
        E 0 80 54 00
        E 0 80 55 00
        E 0 80 60 00
        E 0 80 61 00
        E 120 90 28 60
        E 0 90 55 60
        E 0 90 61 60
        E 120 80 55 00
        E 0 80 61 00
        E 120 90 40 60
        E 0 90 4b 60
        E 0 90 4c 60
        E 0 90 56 60
        E 0 90 58 60
        E 0 90 61 60
        E 0 90 63 60
        E 0 90 64 60
        E 0 90 74 60
        E 120 80 40 00
        E 0 80 4b 00
        E 0 80 4c 00
        E 240 80 56 00
        E 0 80 58 00
        E 0 80 61 00
        E 0 80 63 00
        E 0 80 64 00
        E 120 90 4b 60
        E 0 90 4c 60
        E 0 90 56 60
        E 0 90 58 60
        E 0 90 61 60
        E 0 90 63 60
        E 0 90 64 60
        E 120 80 4b 00
        E 0 80 4c 00
        E 0 80 56 00
        E 0 80 58 00
        E 0 80 61 00
        E 0 80 63 00
        E 0 80 64 00
        E 120 90 55 60
        E 0 90 61 60
        E 120 80 55 00
        E 0 80 61 00
        E 120 90 3f 60
        E 0 90 4a 60
        E 0 90 4b 60
        E 0 90 55 60
        E 0 90 58 60
        E 0 90 61 60
        E 0 90 62 60
        E 0 90 64 60
        E 120 80 3f 00
        E 0 80 4a 00
        E 0 80 4b 00
        E 240 80 55 00
        E 0 80 58 00
        E 0 80 61 00
        E 0 80 62 00
        E 0 80 64 00
        E 120 90 4a 60
        E 0 90 4b 60
        E 0 90 55 60
        E 0 90 58 60
        E 0 90 61 60
        E 0 90 62 60
        E 0 90 64 60
        E 120 80 4a 00
        E 0 80 4b 00
        E 0 80 55 00
        E 0 80 58 00
        E 0 80 61 00
        E 0 80 62 00
        E 0 80 64 00
        E 120 90 55 60
        E 0 90 61 60
        E 120 80 55 00
        E 0 80 61 00
        E 120 80 74 00
        E 0 90 3e 60
        E 0 90 49 60
        E 0 90 4b 60
        E 0 90 55 60
        E 0 90 57 60
        E 0 90 61 60
        E 0 90 62 60
        E 0 90 63 60
        E 120 80 3e 00
        E 0 80 49 00
        E 0 80 4b 00
        E 240 80 55 00
        E 0 80 57 00
        E 0 80 61 00
        E 0 80 62 00
        E 0 80 63 00
        E 120 90 3e 60
        E 0 90 49 60
        E 0 90 4a 60
        E 0 90 55 60
        E 0 90 56 60
        E 0 90 61 60
        E 0 90 62 60
        E 120 80 3e 00
        E 0 80 49 00
        E 0 80 4a 00
        E 0 80 55 00
        E 0 80 56 00
        E 0 80 61 00
        E 0 80 62 00
        E 120 90 55 60
        E 0 90 57 60
        E 0 90 61 60
        E 0 90 62 60
        E 0 90 63 60
        E 120 80 55 00
        E 0 80 57 00
        E 0 80 61 00
        E 0 80 62 00
        E 0 80 63 00
        E 120 90 3e 60
        E 0 90 49 60
        E 0 90 4a 60
        E 0 90 55 60
        E 0 90 56 60
        E 0 90 61 60
        E 0 90 62 60
        E 120 80 3e 00
        E 0 80 49 00
        E 0 80 4a 00
        E 0 80 55 00
        E 0 80 56 00
        E 0 80 61 00
        E 0 80 62 00
        E 120 90 54 60
        E 0 90 56 60
        E 0 90 60 60
        E 0 90 62 60
        E 120 80 54 00
        E 0 80 56 00
        E 0 80 60 00
        E 0 80 62 00
        E 120 90 3e 60
        E 0 90 48 60
        E 0 90 4a 60
        E 0 90 54 60
        E 0 90 56 60
        E 0 90 60 60
        E 0 90 62 60
        E 120 80 28 00
        E 0 80 3e 00
        E 0 80 48 00
        E 0 80 4a 00
        E 0 80 54 00
        E 0 80 56 00
        E 0 80 60 00
        E 0 80 62 00
        E 120 90 2b 60
        E 0 90 54 60
        E 0 90 60 60
        E 120 80 54 00
        E 0 80 60 00
        E 120 90 3e 60
        E 0 90 49 60
        E 0 90 4a 60
        E 0 90 54 60
        E 0 90 57 60
        E 0 90 60 60
        E 0 90 62 60
        E 0 90 63 60
        E 120 80 3e 00
        E 0 80 49 00
        E 0 80 4a 00
        E 240 80 54 00
        E 0 80 57 00
        E 0 80 60 00
        E 0 80 62 00
        E 0 80 63 00
        E 120 90 49 60
        E 0 90 4a 60
        E 0 90 54 60
        E 0 90 57 60
        E 0 90 60 60
        E 0 90 62 60
        E 0 90 63 60
        E 120 80 49 00
        E 0 80 4a 00
        E 0 80 54 00
        E 0 80 57 00
        E 0 80 60 00
        E 0 80 62 00
        E 0 80 63 00
        E 120 90 54 60
        E 0 90 60 60
        E 120 80 54 00
        E 0 80 60 00
        E 120 90 3d 60
        E 0 90 48 60
        E 0 90 4a 60
        E 0 90 54 60
        E 0 90 56 60
        E 0 90 60 60
        E 0 90 61 60
        E 0 90 63 60
        E 120 80 3d 00
        E 0 80 48 00
        E 0 80 4a 00
        E 0 80 54 00
        E 0 80 56 00
        E 0 80 60 00
        E 0 80 61 00
        E 0 80 63 00
        E 120 90 48 60
        E 0 90 4a 60
        E 0 90 54 60
        E 0 90 56 60
        E 0 90 60 60
        E 0 90 61 60
        E 0 90 63 60
        E 120 80 48 00
        E 0 80 4a 00
        E 0 80 54 00
        E 0 80 56 00
        E 0 80 60 00
        E 0 80 61 00
        E 0 80 63 00
        E 120 90 48 60
        E 0 90 4a 60
        E 0 90 54 60
        E 0 90 56 60
        E 0 90 60 60
        E 0 90 61 60
        E 0 90 63 60
        E 120 80 48 00
        E 0 80 4a 00
        E 0 80 54 00
        E 0 80 56 00
        E 0 80 60 00
        E 0 80 61 00
        E 0 80 63 00
        E 120 90 54 60
        E 0 90 60 60
        E 120 80 54 00
        E 0 80 60 00
        E 120 90 3c 60
        E 0 90 48 60
        E 0 90 49 60
        E 0 90 54 60
        E 0 90 55 60
        E 0 90 60 60
        E 0 90 61 60
        E 0 90 62 60
        E 120 80 3c 00
        E 0 80 48 00
        E 0 80 49 00
        E 240 80 54 00
        E 0 80 55 00
        E 0 80 60 00
        E 0 80 61 00
        E 0 80 62 00
        E 120 90 3c 60
        E 0 90 48 60
        E 0 90 49 60
        E 0 90 54 60
        E 0 90 55 60
        E 0 90 60 60
        E 0 90 61 60
        E 120 80 3c 00
        E 0 80 48 00
        E 0 80 49 00
        E 0 80 54 00
        E 0 80 55 00
        E 0 80 60 00
        E 0 80 61 00
        E 120 90 48 60
        E 0 90 49 60
        E 0 90 54 60
        E 0 90 55 60
        E 0 90 60 60
        E 0 90 61 60
        E 0 90 62 60
        E 120 80 48 00
        E 0 80 49 00
        E 0 80 54 00
        E 0 80 55 00
        E 0 80 60 00
        E 0 80 61 00
        E 0 80 62 00
        E 120 90 3c 60
        E 0 90 48 60
        E 0 90 49 60
        E 0 90 54 60
        E 0 90 55 60
        E 0 90 60 60
        E 0 90 61 60
        E 120 80 3c 00
        E 0 80 48 00
        E 0 80 49 00
        E 0 80 54 00
        E 0 80 55 00
        E 0 80 60 00
        E 0 80 61 00
        E 120 90 48 60
        E 0 90 49 60
        E 0 90 54 60
        E 0 90 55 60
        E 0 90 60 60
        E 0 90 61 60
        E 0 90 62 60
        E 120 80 48 00
        E 0 80 49 00
        E 0 80 54 00
        E 0 80 55 00
        E 0 80 60 00
        E 0 80 61 00
        E 0 80 62 00
        E 120 90 48 60
        E 0 90 49 60
        E 0 90 54 60
        E 0 90 55 60
        E 0 90 60 60
        E 0 90 61 60
        E 120 80 2b 00
        E 0 80 48 00
        E 0 80 49 00
        E 0 80 54 00
        E 0 80 55 00
        E 0 80 60 00
        E 0 80 61 00
        E 120 90 28 60
        E 0 90 55 60
        E 0 90 61 60
        E 120 80 55 00
        E 0 80 61 00
        E 120 90 40 60
        E 0 90 4b 60
        E 0 90 4c 60
        E 0 90 56 60
        E 0 90 58 60
        E 0 90 61 60
        E 0 90 63 60
        E 0 90 64 60
        E 120 80 40 00
        E 0 80 4b 00
        E 0 80 4c 00
        E 240 80 56 00
        E 0 80 58 00
        E 0 80 61 00
        E 0 80 63 00
        E 0 80 64 00
        E 120 90 4b 60
        E 0 90 4c 60
        E 0 90 56 60
        E 0 90 58 60
        E 0 90 61 60
        E 0 90 63 60
        E 0 90 64 60
        E 120 80 4b 00
        E 0 80 4c 00
        E 0 80 56 00
        E 0 80 58 00
        E 0 80 61 00
        E 0 80 63 00
        E 0 80 64 00
        E 120 90 55 60
        E 0 90 61 60
        E 120 80 55 00
        E 0 80 61 00
        E 120 90 3f 60
        E 0 90 4a 60
        E 0 90 4b 60
        E 0 90 55 60
        E 0 90 58 60
        E 0 90 61 60
        E 0 90 62 60
        E 0 90 64 60
        E 120 80 3f 00
        E 0 80 4a 00
        E 0 80 4b 00
        E 240 80 55 00
        E 0 80 58 00
        E 0 80 61 00
        E 0 80 62 00
        E 0 80 64 00
        E 120 90 4a 60
        E 0 90 4b 60
        E 0 90 55 60
        E 0 90 58 60
        E 0 90 61 60
        E 0 90 62 60
        E 0 90 64 60
        E 120 80 4a 00
        E 0 80 4b 00
        E 0 80 55 00
        E 0 80 58 00
        E 0 80 61 00
        E 0 80 62 00
        E 0 80 64 00
        E 120 90 55 60
        E 0 90 61 60
        E 120 80 55 00
        E 0 80 61 00
        E 120 90 3e 60
        E 0 90 49 60
        E 0 90 4b 60
        E 0 90 55 60
        E 0 90 57 60
        E 0 90 61 60
        E 0 90 62 60
        E 0 90 63 60
        E 120 80 3e 00
        E 0 80 49 00
        E 0 80 4b 00
        E 240 80 55 00
        E 0 80 57 00
        E 0 80 61 00
        E 0 80 62 00
        E 0 80 63 00
        E 120 90 3e 60
        E 0 90 49 60
        E 0 90 4a 60
        E 0 90 55 60
        E 0 90 56 60
        E 0 90 61 60
        E 0 90 62 60
        E 120 80 3e 00
        E 0 80 49 00
        E 0 80 4a 00
        E 0 80 55 00
        E 0 80 56 00
        E 0 80 61 00
        E 0 80 62 00
        E 120 90 55 60
        E 0 90 57 60
        E 0 90 61 60
        E 0 90 62 60
        E 0 90 63 60
        E 120 80 55 00
        E 0 80 57 00
        E 0 80 61 00
        E 0 80 62 00
        E 0 80 63 00
        E 120 90 3e 60
        E 0 90 49 60
        E 0 90 4a 60
        E 0 90 55 60
        E 0 90 56 60
        E 0 90 61 60
        E 0 90 62 60
        E 120 80 3e 00
        E 0 80 49 00
        E 0 80 4a 00
        E 0 80 55 00
        E 0 80 56 00
        E 0 80 61 00
        E 0 80 62 00
        E 120 90 54 60
        E 0 90 56 60
        E 0 90 60 60
        E 0 90 62 60
        E 120 80 54 00
        E 0 80 56 00
        E 0 80 60 00
        E 0 80 62 00
        E 120 90 3e 60
        E 0 90 48 60
        E 0 90 4a 60
        E 0 90 54 60
        E 0 90 56 60
        E 0 90 60 60
        E 0 90 62 60
        E 120 80 28 00
        E 0 80 3e 00
        E 0 80 48 00
        E 0 80 4a 00
        E 0 80 54 00
        E 0 80 56 00
        E 0 80 60 00
        E 0 80 62 00
        E 120 90 2b 60
        E 0 90 54 60
        E 0 90 60 60
        E 120 80 54 00
        E 0 80 60 00
        E 120 90 3e 60
        E 0 90 49 60
        E 0 90 4a 60
        E 0 90 54 60
        E 0 90 57 60
        E 0 90 60 60
        E 0 90 62 60
        E 0 90 63 60
        E 120 80 3e 00
        E 0 80 49 00
        E 0 80 4a 00
        E 240 80 54 00
        E 0 80 57 00
        E 0 80 60 00
        E 0 80 62 00
        E 0 80 63 00
        E 120 90 49 60
        E 0 90 4a 60
        E 0 90 54 60
        E 0 90 57 60
        E 0 90 60 60
        E 0 90 62 60
        E 0 90 63 60
        E 120 80 49 00
        E 0 80 4a 00
        E 0 80 54 00
        E 0 80 57 00
        E 0 80 60 00
        E 0 80 62 00
        E 0 80 63 00
        E 120 90 54 60
        E 0 90 60 60
        E 120 80 54 00
        E 0 80 60 00
        E 120 90 3d 60
        E 0 90 48 60
        E 0 90 4a 60
        E 0 90 54 60
        E 0 90 56 60
        E 0 90 60 60
        E 0 90 61 60
        E 0 90 63 60
        E 120 80 3d 00
        E 0 80 48 00
        E 0 80 4a 00
        E 0 80 54 00
        E 0 80 56 00
        E 0 80 60 00
        E 0 80 61 00
        E 0 80 63 00
        E 120 90 48 60
        E 0 90 4a 60
        E 0 90 54 60
        E 0 90 56 60
        E 0 90 60 60
        E 0 90 61 60
        E 0 90 63 60
        E 120 80 48 00
        E 0 80 4a 00
        E 0 80 54 00
        E 0 80 56 00
        E 0 80 60 00
        E 0 80 61 00
        E 0 80 63 00
        E 120 90 48 60
        E 0 90 4a 60
        E 0 90 54 60
        E 0 90 56 60
        E 0 90 60 60
        E 0 90 61 60
        E 0 90 63 60
        E 120 80 48 00
        E 0 80 4a 00
        E 0 80 54 00
        E 0 80 56 00
        E 0 80 60 00
        E 0 80 61 00
        E 0 80 63 00
        E 120 90 54 60
        E 0 90 60 60
        E 120 80 54 00
        E 0 80 60 00
        E 120 90 3c 60
        E 0 90 48 60
        E 0 90 49 60
        E 0 90 54 60
        E 0 90 55 60
        E 0 90 60 60
        E 0 90 61 60
        E 0 90 62 60
        E 120 80 3c 00
        E 0 80 48 00
        E 0 80 49 00
        E 240 80 54 00
        E 0 80 55 00
        E 0 80 60 00
        E 0 80 61 00
        E 0 80 62 00
        E 120 90 3c 60
        E 0 90 48 60
        E 0 90 49 60
        E 0 90 54 60
        E 0 90 55 60
        E 0 90 60 60
        E 0 90 61 60
        E 120 80 3c 00
        E 0 80 48 00
        E 0 80 49 00
        E 0 80 54 00
        E 0 80 55 00
        E 0 80 60 00
        E 0 80 61 00
        E 120 90 48 60
        E 0 90 49 60
        E 0 90 54 60
        E 0 90 55 60
        E 0 90 60 60
        E 0 90 61 60
        E 0 90 62 60
        E 120 80 48 00
        E 0 80 49 00
        E 0 80 54 00
        E 0 80 55 00
        E 0 80 60 00
        E 0 80 61 00
        E 0 80 62 00
        E 120 90 3c 60
        E 0 90 48 60
        E 0 90 49 60
        E 0 90 54 60
        E 0 90 55 60
        E 0 90 60 60
        E 0 90 61 60
        E 120 80 3c 00
        E 0 80 48 00
        E 0 80 49 00
        E 0 80 54 00
        E 0 80 55 00
        E 0 80 60 00
        E 0 80 61 00
        E 120 90 48 60
        E 0 90 49 60
        E 0 90 54 60
        E 0 90 55 60
        E 0 90 60 60
        E 0 90 61 60
        E 120 80 48 00
        E 0 80 49 00
        E 0 80 54 00
        E 0 80 55 00
        E 0 80 60 00
        E 0 80 61 00
        E 120 90 48 60
        E 0 90 49 60
        E 0 90 54 60
        E 0 90 55 60
        E 0 90 60 60
        E 0 90 61 60
        E 120 80 2b 00
        E 0 80 48 00
        E 0 80 49 00
        E 0 80 54 00
        E 0 80 55 00
        E 0 80 60 00
        E 0 80 61 00
        E 120 90 28 60
        E 0 90 55 60
        E 0 90 61 60
        E 120 80 55 00
        E 0 80 61 00
        E 120 90 40 60
        E 0 90 4b 60
        E 0 90 4c 60
        E 0 90 56 60
        E 0 90 58 60
        E 0 90 61 60
        E 0 90 63 60
        E 0 90 64 60
        E 120 80 40 00
        E 0 80 4b 00
        E 0 80 4c 00
        E 240 80 56 00
        E 0 80 58 00
        E 0 80 61 00
        E 0 80 63 00
        E 0 80 64 00
        E 120 90 4b 60
        E 0 90 4c 60
        E 0 90 56 60
        E 0 90 58 60
        E 0 90 61 60
        E 0 90 63 60
        E 0 90 64 60
        E 120 80 4b 00
        E 0 80 4c 00
        E 0 80 56 00
        E 0 80 58 00
        E 0 80 61 00
        E 0 80 63 00
        E 0 80 64 00
        E 120 90 55 60
        E 0 90 61 60
        E 120 80 55 00
        E 0 80 61 00
        E 120 90 3f 60
        E 0 90 4a 60
        E 0 90 4b 60
        E 0 90 55 60
        E 0 90 58 60
        E 0 90 61 60
        E 0 90 62 60
        E 0 90 64 60
        E 120 80 3f 00
        E 0 80 4a 00
        E 0 80 4b 00
        E 240 80 55 00
        E 0 80 58 00
        E 0 80 61 00
        E 0 80 62 00
        E 0 80 64 00
        E 120 90 4a 60
        E 0 90 4b 60
        E 0 90 55 60
        E 0 90 58 60
        E 0 90 61 60
        E 0 90 62 60
        E 0 90 64 60
        E 120 80 4a 00
        E 0 80 4b 00
        E 0 80 55 00
        E 0 80 58 00
        E 0 80 61 00
        E 0 80 62 00
        E 0 80 64 00
        E 120 90 55 60
        E 0 90 61 60
        E 120 80 55 00
        E 0 80 61 00
        E 120 90 3e 60
        E 0 90 49 60
        E 0 90 4b 60
        E 0 90 55 60
        E 0 90 57 60
        E 0 90 61 60
        E 0 90 62 60
        E 0 90 63 60
        E 120 80 3e 00
        E 0 80 49 00
        E 0 80 4b 00
        E 240 80 55 00
        E 0 80 57 00
        E 0 80 61 00
        E 0 80 62 00
        E 0 80 63 00
        E 120 90 3e 60
        E 0 90 49 60
        E 0 90 4a 60
        E 0 90 55 60
        E 0 90 56 60
        E 0 90 61 60
        E 0 90 62 60
        E 120 80 3e 00
        E 0 80 49 00
        E 0 80 4a 00
        E 0 80 55 00
        E 0 80 56 00
        E 0 80 61 00
        E 0 80 62 00
        E 120 90 49 60
        E 0 90 4a 60
        E 0 90 55 60
        E 0 90 56 60
        E 0 90 61 60
        E 0 90 62 60
        E 120 80 49 00
        E 0 80 4a 00
        E 0 80 55 00
        E 0 80 56 00
        E 0 80 61 00
        E 0 80 62 00
        E 120 90 3e 60
        E 0 90 49 60
        E 0 90 4a 60
        E 0 90 55 60
        E 0 90 56 60
        E 0 90 61 60
        E 0 90 62 60
        E 120 80 3e 00
        E 0 80 49 00
        E 0 80 4a 00
        E 0 80 55 00
        E 0 80 56 00
        E 0 80 61 00
        E 0 80 62 00
        E 120 90 54 60
        E 0 90 56 60
        E 0 90 60 60
        E 0 90 62 60
        E 120 80 54 00
        E 0 80 56 00
        E 0 80 60 00
        E 0 80 62 00
        E 120 90 3e 60
        E 0 90 48 60
        E 0 90 4a 60
        E 0 90 54 60
        E 0 90 56 60
        E 0 90 60 60
        E 0 90 62 60
        E 120 80 28 00
        E 0 80 3e 00
        E 0 80 48 00
        E 0 80 4a 00
        E 0 80 54 00
        E 0 80 56 00
        E 0 80 60 00
        E 0 80 62 00
        E 120 90 2b 60
        E 0 90 54 60
        E 0 90 60 60
        E 120 80 54 00
        E 0 80 60 00
        E 120 90 3e 60
        E 0 90 49 60
        E 0 90 4a 60
        E 0 90 54 60
        E 0 90 57 60
        E 0 90 60 60
        E 0 90 62 60
        E 0 90 63 60
        E 120 80 3e 00
        E 0 80 49 00
        E 0 80 4a 00
        E 240 80 54 00
        E 0 80 57 00
        E 0 80 60 00
        E 0 80 62 00
        E 0 80 63 00
        E 120 90 49 60
        E 0 90 4a 60
        E 0 90 54 60
        E 0 90 57 60
        E 0 90 60 60
        E 0 90 62 60
        E 0 90 63 60
        E 120 80 49 00
        E 0 80 4a 00
        E 0 80 54 00
        E 0 80 57 00
        E 0 80 60 00
        E 0 80 62 00
        E 0 80 63 00
        E 120 90 54 60
        E 0 90 60 60
        E 120 80 54 00
        E 0 80 60 00
        E 120 90 3d 60
        E 0 90 48 60
        E 0 90 4a 60
        E 0 90 54 60
        E 0 90 56 60
        E 0 90 60 60
        E 0 90 61 60
        E 0 90 63 60
        E 120 80 3d 00
        E 0 80 48 00
        E 0 80 4a 00
        E 0 80 54 00
        E 0 80 56 00
        E 0 80 60 00
        E 0 80 61 00
        E 0 80 63 00
        E 120 90 48 60
        E 0 90 4a 60
        E 0 90 54 60
        E 0 90 56 60
        E 0 90 60 60
        E 0 90 61 60
        E 0 90 63 60
        E 120 80 48 00
        E 0 80 4a 00
        E 0 80 54 00
        E 0 80 56 00
        E 0 80 60 00
        E 0 80 61 00
        E 0 80 63 00
        E 120 90 48 60
        E 0 90 4a 60
        E 0 90 54 60
        E 0 90 56 60
        E 0 90 60 60
        E 0 90 61 60
        E 0 90 63 60
        E 120 80 48 00
        E 0 80 4a 00
        E 0 80 54 00
        E 0 80 56 00
        E 0 80 60 00
        E 0 80 61 00
        E 0 80 63 00
        E 120 90 54 60
        E 0 90 60 60
        E 120 80 54 00
        E 0 80 60 00
        E 120 90 3c 60
        E 0 90 48 60
        E 0 90 49 60
        E 0 90 54 60
        E 0 90 55 60
        E 0 90 60 60
        E 0 90 61 60
        E 0 90 62 60
        E 120 80 3c 00
        E 0 80 48 00
        E 0 80 49 00
        E 240 80 54 00
        E 0 80 55 00
        E 0 80 60 00
        E 0 80 61 00
        E 0 80 62 00
        E 120 90 3c 60
        E 0 90 48 60
        E 0 90 49 60
        E 0 90 54 60
        E 0 90 55 60
        E 0 90 60 60
        E 0 90 61 60
        E 120 80 3c 00
        E 0 80 48 00
        E 0 80 49 00
        E 0 80 54 00
        E 0 80 55 00
        E 0 80 60 00
        E 0 80 61 00
        E 120 90 48 60
        E 0 90 49 60
        E 0 90 54 60
        E 0 90 55 60
        E 0 90 60 60
        E 0 90 61 60
        E 0 90 62 60
        E 120 80 48 00
        E 0 80 49 00
        E 0 80 54 00
        E 0 80 55 00
        E 0 80 60 00
        E 0 80 61 00
        E 0 80 62 00
        E 120 90 3c 60
        E 0 90 48 60
        E 0 90 49 60
        E 0 90 54 60
        E 0 90 55 60
        E 0 90 60 60
        E 0 90 61 60
        E 120 80 3c 00
        E 0 80 48 00
        E 0 80 49 00
        E 0 80 54 00
        E 0 80 55 00
        E 0 80 60 00
        E 0 80 61 00
        E 120 90 48 60
        E 0 90 49 60
        E 0 90 54 60
        E 0 90 55 60
        E 0 90 60 60
        E 0 90 61 60
        E 0 90 62 60
        E 120 80 48 00
        E 0 80 49 00
        E 0 80 54 00
        E 0 80 55 00
        E 0 80 60 00
        E 0 80 61 00
        E 0 80 62 00
        E 120 90 48 60
        E 0 90 49 60
        E 0 90 54 60
        E 0 90 55 60
        E 0 90 60 60
        E 0 90 61 60
        E 120 80 2b 00
        E 0 80 48 00
        E 0 80 49 00
        E 0 80 54 00
        E 0 80 55 00
        E 0 80 60 00
        E 0 80 61 00
        E 120 90 28 60
        E 0 90 55 60
        E 0 90 61 60
        E 120 80 55 00
        E 0 80 61 00
        E 120 90 40 60
        E 0 90 4b 60
        E 0 90 4c 60
        E 0 90 56 60
        E 0 90 58 60
        E 0 90 61 60
        E 0 90 63 60
        E 0 90 64 60
        E 120 80 40 00
        E 0 80 4b 00
        E 0 80 4c 00
        E 240 80 56 00
        E 0 80 58 00
        E 0 80 61 00
        E 0 80 63 00
        E 0 80 64 00
        E 120 90 49 60
        E 0 90 4b 60
        E 0 90 55 60
        E 0 90 57 60
        E 0 90 61 60
        E 0 90 63 60
        E 120 80 49 00
        E 0 80 4b 00
        E 240 80 55 00
        E 0 80 57 00
        E 0 80 61 00
        E 0 80 63 00
        E 120 90 40 60
        E 0 90 4b 60
        E 0 90 4c 60
        E 0 90 56 60
        E 0 90 58 60
        E 0 90 61 60
        E 0 90 63 60
        E 0 90 64 60
        E 120 80 40 00
        E 0 80 4b 00
        E 0 80 4c 00
        E 240 80 56 00
        E 0 80 58 00
        E 0 80 61 00
        E 0 80 63 00
        E 0 80 64 00
        E 120 90 49 60
        E 0 90 4b 60
        E 0 90 55 60
        E 0 90 57 60
        E 0 90 61 60
        E 0 90 63 60
        E 120 80 28 00
        E 0 80 49 00
        E 0 80 4b 00
        E 0 80 55 00
        E 0 80 57 00
        E 0 80 61 00
        E 0 80 63 00
        E 120 90 2b 60
        E 0 90 56 60
        E 0 90 62 60
        E 120 80 56 00
        E 0 80 62 00
        E 120 90 40 60
        E 0 90 4b 60
        E 0 90 4c 60
        E 0 90 57 60
        E 0 90 58 60
        E 0 90 62 60
        E 0 90 63 60
        E 0 90 64 60
        E 120 80 40 00
        E 0 80 4b 00
        E 0 80 4c 00
        E 240 80 57 00
        E 0 80 58 00
        E 0 80 62 00
        E 0 80 63 00
        E 0 80 64 00
        E 120 90 4a 60
        E 0 90 4b 60
        E 0 90 56 60
        E 0 90 57 60
        E 0 90 62 60
        E 0 90 63 60
        E 120 80 4a 00
        E 0 80 4b 00
        E 240 80 56 00
        E 0 80 57 00
        E 0 80 62 00
        E 0 80 63 00
        E 120 90 40 60
        E 0 90 4b 60
        E 0 90 4c 60
        E 0 90 57 60
        E 0 90 58 60
        E 0 90 62 60
        E 0 90 63 60
        E 0 90 64 60
        E 120 80 40 00
        E 0 80 4b 00
        E 0 80 4c 00
        E 240 80 57 00
        E 0 80 58 00
        E 0 80 62 00
        E 0 80 63 00
        E 0 80 64 00
        E 120 90 4a 60
        E 0 90 4b 60
        E 0 90 56 60
        E 0 90 57 60
        E 0 90 62 60
        E 0 90 63 60
        E 120 80 4a 00
        E 0 80 4b 00
        E 0 80 56 00
        E 0 80 57 00
        E 0 80 62 00
        E 0 80 63 00
        E 120 90 54 60
        E 0 90 60 60
        E 120 80 54 00
        E 0 80 60 00
        E 120 90 3e 60
        E 0 90 49 60
        E 0 90 4a 60
        E 0 90 54 60
        E 0 90 57 60
        E 0 90 60 60
        E 0 90 62 60
        E 0 90 63 60
        E 120 80 3e 00
        E 0 80 49 00
        E 0 80 4a 00
        E 240 80 54 00
        E 0 80 57 00
        E 0 80 60 00
        E 0 80 62 00
        E 0 80 63 00
        E 120 90 3e 60
        E 0 90 49 60
        E 0 90 4a 60
        E 0 90 54 60
        E 0 90 57 60
        E 0 90 60 60
        E 0 90 62 60
        E 0 90 63 60
        E 120 80 3e 00
        E 0 80 49 00
        E 0 80 4a 00
        E 240 80 54 00
        E 0 80 57 00
        E 0 80 60 00
        E 0 80 62 00
        E 0 80 63 00
        E 120 90 3e 60
        E 0 90 49 60
        E 0 90 4a 60
        E 0 90 54 60
        E 0 90 57 60
        E 0 90 60 60
        E 0 90 62 60
        E 0 90 63 60
        E 120 80 3e 00
        E 0 80 49 00
        E 0 80 4a 00
        E 240 80 54 00
        E 0 80 57 00
        E 0 80 60 00
        E 0 80 62 00
        E 0 80 63 00
        E 120 90 3e 60
        E 0 90 49 60
        E 0 90 4a 60
        E 0 90 54 60
        E 0 90 57 60
        E 0 90 60 60
        E 0 90 62 60
        E 0 90 63 60
        E 120 80 2b 00
        E 0 80 3e 00
        E 0 80 49 00
        E 0 80 4a 00
        E 0 80 54 00
        E 0 80 57 00
        E 0 80 60 00
        E 0 80 62 00
        E 0 80 63 00
        E 120 90 28 60
        E 0 90 55 60
        E 0 90 61 60
        E 120 80 55 00
        E 0 80 61 00
        E 120 90 3e 60
        E 0 90 49 60
        E 0 90 4b 60
        E 0 90 55 60
        E 0 90 57 60
        E 0 90 61 60
        E 0 90 63 60
        E 120 80 3e 00
        E 0 80 49 00
        E 0 80 4b 00
        E 0 80 55 00
        E 0 80 57 00
        E 0 80 61 00
        E 0 80 63 00
        E 120 90 56 60
        E 0 90 58 60
        E 0 90 61 60
        E 0 90 63 60
        E 0 90 64 60
        E 120 80 56 00
        E 0 80 58 00
        E 0 80 61 00
        E 0 80 63 00
        E 0 80 64 00
        E 120 90 3e 60
        E 0 90 49 60
        E 0 90 4b 60
        E 0 90 55 60
        E 0 90 57 60
        E 0 90 61 60
        E 0 90 63 60
        E 120 80 3e 00
        E 0 80 49 00
        E 0 80 4b 00
        E 240 80 55 00
        E 0 80 57 00
        E 0 80 61 00
        E 0 80 63 00
        E 120 90 3e 60
        E 0 90 49 60
        E 0 90 4b 60
        E 0 90 55 60
        E 0 90 57 60
        E 0 90 61 60
        E 0 90 63 60
        E 120 80 3e 00
        E 0 80 49 00
        E 0 80 4b 00
        E 240 80 55 00
        E 0 80 57 00
        E 0 80 61 00
        E 0 80 63 00
        E 120 90 3e 60
        E 0 90 49 60
        E 0 90 4b 60
        E 0 90 55 60
        E 0 90 57 60
        E 0 90 61 60
        E 0 90 63 60
        E 120 80 28 00
        E 0 80 3e 00
        E 0 80 49 00
        E 0 80 4b 00
        E 0 80 55 00
        E 0 80 57 00
        E 0 80 61 00
        E 0 80 63 00
        E 120 90 2b 60
        E 0 90 56 60
        E 0 90 62 60
        E 120 80 56 00
        E 0 80 62 00
        E 120 90 3e 60
        E 0 90 49 60
        E 0 90 4a 60
        E 0 90 54 60
        E 0 90 57 60
        E 0 90 60 60
        E 0 90 62 60
        E 0 90 63 60
        E 120 80 3e 00
        E 0 80 49 00
        E 0 80 4a 00
        E 240 80 54 00
        E 0 80 57 00
        E 0 80 60 00
        E 0 80 62 00
        E 0 80 63 00
        E 120 90 48 60
        E 0 90 4a 60
        E 0 90 54 60
        E 0 90 56 60
        E 0 90 60 60
        E 0 90 62 60
        E 120 80 48 00
        E 0 80 4a 00
        E 240 80 54 00
        E 0 80 56 00
        E 0 80 60 00
        E 0 80 62 00
        E 120 90 3e 60
        E 0 90 49 60
        E 0 90 4a 60
        E 0 90 54 60
        E 0 90 57 60
        E 0 90 60 60
        E 0 90 62 60
        E 0 90 63 60
        E 120 80 3e 00
        E 0 80 49 00
        E 0 80 4a 00
        E 240 80 54 00
        E 0 80 57 00
        E 0 80 60 00
        E 0 80 62 00
        E 0 80 63 00
        E 120 90 48 60
        E 0 90 4a 60
        E 0 90 54 60
        E 0 90 56 60
        E 0 90 60 60
        E 0 90 62 60
        E 120 80 2b 00
        E 0 80 48 00
        E 0 80 4a 00
        E 0 80 54 00
        E 0 80 56 00
        E 0 80 60 00
        E 0 80 62 00
        E 120 90 28 60
        E 0 90 57 60
        E 0 90 63 60
        E 120 80 57 00
        E 0 80 63 00
        E 120 90 3c 60
        E 0 90 48 60
        E 0 90 49 60
        E 0 90 54 60
        E 0 90 55 60
        E 0 90 60 60
        E 0 90 61 60
        E 120 80 3c 00
        E 0 80 48 00
        E 0 80 49 00
        E 0 80 54 00
        E 0 80 55 00
        E 0 80 60 00
        E 0 80 61 00
        E 120 90 54 60
        E 0 90 56 60
        E 0 90 60 60
        E 0 90 61 60
        E 0 90 63 60
        E 120 80 54 00
        E 0 80 56 00
        E 0 80 60 00
        E 0 80 61 00
        E 0 80 63 00
        E 120 90 3c 60
        E 0 90 48 60
        E 0 90 49 60
        E 0 90 54 60
        E 0 90 55 60
        E 0 90 60 60
        E 0 90 61 60
        E 120 80 3c 00
        E 0 80 48 00
        E 0 80 49 00
        E 0 80 54 00
        E 0 80 55 00
        E 0 80 60 00
        E 0 80 61 00
        E 120 90 54 60
        E 0 90 56 60
        E 0 90 60 60
        E 0 90 61 60
        E 0 90 63 60
        E 120 80 54 00
        E 0 80 56 00
        E 0 80 60 00
        E 0 80 61 00
        E 0 80 63 00
        E 120 90 3c 60
        E 0 90 48 60
        E 0 90 49 60
        E 0 90 54 60
        E 0 90 55 60
        E 0 90 60 60
        E 0 90 61 60
        E 120 80 3c 00
        E 0 80 48 00
        E 0 80 49 00
        E 0 80 54 00
        E 0 80 55 00
        E 0 80 60 00
        E 0 80 61 00
        E 120 90 54 60
        E 0 90 56 60
        E 0 90 60 60
        E 0 90 61 60
        E 0 90 63 60
        E 120 80 54 00
        E 0 80 56 00
        E 0 80 60 00
        E 0 80 61 00
        E 0 80 63 00
        E 120 90 48 60
        E 0 90 49 60
        E 0 90 54 60
        E 0 90 55 60
        E 0 90 60 60
        E 0 90 61 60
        E 120 80 48 00
        E 0 80 49 00
        E 0 80 54 00
        E 0 80 55 00
        E 0 80 60 00
        E 0 80 61 00
        E 120 90 55 60
        E 0 90 61 60
        E 120 80 55 00
        E 0 80 61 00
        <X 120 0
          /wFbcGxheV0=
        >
        E 0 90 40 60
        E 0 90 4b 60
        E 0 90 4c 60
        E 0 90 56 60
        E 0 90 58 60
        E 0 90 61 60
        E 0 90 63 60
        E 0 90 64 60
        E 120 80 40 00
        E 0 80 4b 00
        E 0 80 4c 00
        E 240 80 56 00
        E 0 80 58 00
        E 0 80 61 00
        E 0 80 63 00
        E 0 80 64 00
        E 120 90 4b 60
        E 0 90 4c 60
        E 0 90 56 60
        E 0 90 58 60
        E 0 90 61 60
        E 0 90 63 60
        E 0 90 64 60
        E 120 80 4b 00
        E 0 80 4c 00
        E 240 80 56 00
        E 0 80 58 00
        E 0 80 61 00
        E 0 80 63 00
        E 0 80 64 00
        E 120 90 3e 60
        E 0 90 49 60
        E 0 90 4b 60
        E 0 90 55 60
        E 0 90 57 60
        E 0 90 61 60
        E 0 90 63 60
        E 120 80 3e 00
        E 0 80 49 00
        E 0 80 4b 00
        E 240 80 55 00
        E 0 80 57 00
        E 0 80 61 00
        E 0 80 63 00
        E 120 90 3e 60
        E 0 90 49 60
        E 0 90 4b 60
        E 0 90 55 60
        E 0 90 57 60
        E 0 90 61 60
        E 0 90 63 60
        E 120 80 3e 00
        E 0 80 49 00
        E 0 80 4b 00
        E 0 80 55 00
        E 0 80 57 00
        E 0 80 61 00
        E 0 80 63 00
        E 120 90 56 60
        E 0 90 58 60
        E 0 90 61 60
        E 0 90 63 60
        E 0 90 64 60
        E 120 80 56 00
        E 0 80 58 00
        E 0 80 61 00
        E 0 80 63 00
        E 0 80 64 00
        E 120 90 3e 60
        E 0 90 49 60
        E 0 90 4b 60
        E 0 90 55 60
        E 0 90 57 60
        E 0 90 61 60
        E 0 90 63 60
        E 120 80 3e 00
        E 0 80 49 00
        E 0 80 4b 00
        E 0 80 55 00
        E 0 80 57 00
        E 0 80 61 00
        E 0 80 63 00
        E 120 90 56 60
        E 0 90 58 60
        E 0 90 61 60
        E 0 90 63 60
        E 0 90 64 60
        E 120 80 56 00
        E 0 80 58 00
        E 0 80 61 00
        E 0 80 63 00
        E 0 80 64 00
        E 120 90 49 60
        E 0 90 4b 60
        E 0 90 55 60
        E 0 90 57 60
        E 0 90 61 60
        E 0 90 63 60
        E 120 80 49 00
        E 0 80 4b 00
        E 240 80 55 00
        E 0 80 57 00
        E 0 80 61 00
        E 0 80 63 00
        E 120 90 40 60
        E 0 90 4b 60
        E 0 90 4c 60
        E 0 90 56 60
        E 0 90 58 60
        E 0 90 61 60
        E 0 90 63 60
        E 0 90 64 60
        E 120 80 40 00
        E 0 80 4b 00
        E 0 80 4c 00
        E 0 80 56 00
        E 0 80 58 00
        E 0 80 61 00
        E 0 80 63 00
        E 0 80 64 00
        E 120 90 4b 60
        E 0 90 4c 60
        E 0 90 56 60
        E 0 90 58 60
        E 0 90 61 60
        E 0 90 63 60
        E 0 90 64 60
        E 120 80 4b 00
        E 0 80 4c 00
        E 0 80 56 00
        E 0 80 58 00
        E 0 80 61 00
        E 0 80 63 00
        E 0 80 64 00
        E 120 90 4b 60
        E 0 90 4c 60
        E 0 90 56 60
        E 0 90 58 60
        E 0 90 61 60
        E 0 90 63 60
        E 0 90 64 60
        E 120 80 28 00
        E 0 80 4b 00
        E 0 80 4c 00
        E 0 80 56 00
        E 0 80 58 00
        E 0 80 61 00
        E 0 80 63 00
        E 0 80 64 00
        E 120 90 2b 60
        E 0 90 56 60
        E 0 90 62 60
        E 120 80 56 00
        E 0 80 62 00
        E 120 90 3f 60
        E 0 90 4a 60
        E 0 90 4b 60
        E 0 90 56 60
        E 0 90 57 60
        E 0 90 62 60
        E 0 90 63 60
        E 120 80 3f 00
        E 0 80 4a 00
        E 0 80 4b 00
        E 240 80 56 00
        E 0 80 57 00
        E 0 80 62 00
        E 0 80 63 00
        E 120 90 3f 60
        E 0 90 4a 60
        E 0 90 4b 60
        E 0 90 56 60
        E 0 90 57 60
        E 0 90 62 60
        E 0 90 63 60
        E 120 80 3f 00
        E 0 80 4a 00
        E 0 80 4b 00
        E 240 80 56 00
        E 0 80 57 00
        E 0 80 62 00
        E 0 80 63 00
        E 120 90 3f 60
        E 0 90 4a 60
        E 0 90 4b 60
        E 0 90 56 60
        E 0 90 57 60
        E 0 90 62 60
        E 0 90 63 60
        E 120 80 3f 00
        E 0 80 4a 00
        E 0 80 4b 00
        E 240 80 56 00
        E 0 80 57 00
        E 0 80 62 00
        E 0 80 63 00
        E 120 90 4a 60
        E 0 90 4b 60
        E 0 90 56 60
        E 0 90 57 60
        E 0 90 62 60
        E 0 90 63 60
        E 120 80 4a 00
        E 0 80 4b 00
        E 0 80 56 00
        E 0 80 57 00
        E 0 80 62 00
        E 0 80 63 00
        E 120 90 57 60
        E 0 90 58 60
        E 0 90 62 60
        E 0 90 63 60
        E 0 90 64 60
        E 120 80 57 00
        E 0 80 58 00
        E 0 80 62 00
        E 0 80 63 00
        E 0 80 64 00
        E 120 90 40 60
        E 0 90 4b 60
        E 0 90 4c 60
        E 0 90 57 60
        E 0 90 58 60
        E 0 90 62 60
        E 0 90 63 60
        E 0 90 64 60
        E 120 80 40 00
        E 0 80 4b 00
        E 0 80 4c 00
        E 0 80 57 00
        E 0 80 58 00
        E 0 80 62 00
        E 0 80 63 00
        E 0 80 64 00
        E 120 90 4b 60
        E 0 90 4c 60
        E 0 90 57 60
        E 0 90 58 60
        E 0 90 62 60
        E 0 90 63 60
        E 0 90 64 60
        E 120 80 4b 00
        E 0 80 4c 00
        E 0 80 57 00
        E 0 80 58 00
        E 0 80 62 00
        E 0 80 63 00
        E 0 80 64 00
        E 120 90 40 60
        E 0 90 4b 60
        E 0 90 4c 60
        E 0 90 57 60
        E 0 90 58 60
        E 0 90 62 60
        E 0 90 63 60
        E 0 90 64 60
        E 120 80 40 00
        E 0 80 4b 00
        E 0 80 4c 00
        E 240 80 57 00
        E 0 80 58 00
        E 0 80 62 00
        E 0 80 63 00
        E 0 80 64 00
        E 120 90 40 60
        E 0 90 4b 60
        E 0 90 4c 60
        E 0 90 57 60
        E 0 90 58 60
        E 0 90 62 60
        E 0 90 63 60
        E 0 90 64 60
        E 120 80 40 00
        E 0 80 4b 00
        E 0 80 4c 00
        E 240 80 2b 00
        E 0 80 57 00
        E 0 80 58 00
        E 0 80 62 00
        E 0 80 63 00
        E 0 80 64 00
        E 120 90 28 60
        E 0 90 49 60
        E 0 90 55 60
        E 0 90 61 60
        E 120 80 49 00
        E 0 80 55 00
        E 0 80 61 00
        E 120 90 55 60
        E 0 90 61 60
        E 120 80 55 00
        E 0 80 61 00
        E 120 90 40 60
        E 0 90 4b 60
        E 0 90 4c 60
        E 0 90 56 60
        E 0 90 58 60
        E 0 90 61 60
        E 0 90 63 60
        E 0 90 64 60
        E 0 90 74 60
        E 120 80 40 00
        E 0 80 4b 00
        E 0 80 4c 00
        E 240 80 56 00
        E 0 80 58 00
        E 0 80 61 00
        E 0 80 63 00
        E 0 80 64 00
        E 120 90 4b 60
        E 0 90 4c 60
        E 0 90 56 60
        E 0 90 58 60
        E 0 90 61 60
        E 0 90 63 60
        E 0 90 64 60
        E 120 80 4b 00
        E 0 80 4c 00
        E 240 80 56 00
        E 0 80 58 00
        E 0 80 61 00
        E 0 80 63 00
        E 0 80 64 00
        E 120 90 3e 60
        E 0 90 49 60
        E 0 90 4b 60
        E 0 90 55 60
        E 0 90 57 60
        E 0 90 61 60
        E 0 90 63 60
        E 120 80 3e 00
        E 0 80 49 00
        E 0 80 4b 00
        E 240 80 55 00
        E 0 80 57 00
        E 0 80 61 00
        E 0 80 63 00
        E 120 90 3e 60
        E 0 90 49 60
        E 0 90 4b 60
        E 0 90 55 60
        E 0 90 57 60
        E 0 90 61 60
        E 0 90 63 60
        E 120 80 3e 00
        E 0 80 49 00
        E 0 80 4b 00
        E 0 80 55 00
        E 0 80 57 00
        E 0 80 61 00
        E 0 80 63 00
        E 120 90 56 60
        E 0 90 58 60
        E 0 90 61 60
        E 0 90 63 60
        E 0 90 64 60
        E 120 80 56 00
        E 0 80 58 00
        E 0 80 61 00
        E 0 80 63 00
        E 0 80 64 00
        E 120 90 3e 60
        E 0 90 49 60
        E 0 90 4b 60
        E 0 90 55 60
        E 0 90 57 60
        E 0 90 61 60
        E 0 90 63 60
        E 120 80 3e 00
        E 0 80 49 00
        E 0 80 4b 00
        E 0 80 55 00
        E 0 80 57 00
        E 0 80 61 00
        E 0 80 63 00
        E 120 90 56 60
        E 0 90 58 60
        E 0 90 61 60
        E 0 90 63 60
        E 0 90 64 60
        E 120 80 56 00
        E 0 80 58 00
        E 0 80 61 00
        E 0 80 63 00
        E 0 80 64 00
        E 120 90 49 60
        E 0 90 4b 60
        E 0 90 55 60
        E 0 90 57 60
        E 0 90 61 60
        E 0 90 63 60
        E 120 80 49 00
        E 0 80 4b 00
        E 240 80 55 00
        E 0 80 57 00
        E 0 80 61 00
        E 0 80 63 00
        E 120 90 40 60
        E 0 90 4b 60
        E 0 90 4c 60
        E 0 90 56 60
        E 0 90 58 60
        E 0 90 61 60
        E 0 90 63 60
        E 0 90 64 60
        E 120 80 40 00
        E 0 80 4b 00
        E 0 80 4c 00
        E 0 80 56 00
        E 0 80 58 00
        E 0 80 61 00
        E 0 80 63 00
        E 0 80 64 00
        E 120 90 56 60
        E 0 90 58 60
        E 0 90 61 60
        E 0 90 63 60
        E 0 90 64 60
        E 120 80 56 00
        E 0 80 58 00
        E 0 80 61 00
        E 0 80 63 00
        E 0 80 64 00
        E 120 90 49 60
        E 0 90 55 60
        E 0 90 61 60
        E 120 80 49 00
        E 0 80 55 00
        E 0 80 61 00
        E 240 80 28 00
        E 120 90 2b 60
        E 0 90 40 60
        E 0 90 4b 60
        E 0 90 4c 60
        E 0 90 57 60
        E 0 90 58 60
        E 0 90 62 60
        E 0 90 63 60
        E 0 90 64 60
        E 120 80 74 00
        E 3240 80 40 00
        E 0 80 4b 00
        E 0 80 4c 00
        E 0 80 57 00
        E 0 80 58 00
        E 0 80 62 00
        E 0 80 63 00
        E 0 80 64 00
        E 360 80 2b 00
        E 120 90 28 60
        E 0 90 3f 60
        E 0 90 4a 60
        E 0 90 4b 60
        E 0 90 55 60
        E 0 90 58 60
        E 0 90 61 60
        E 0 90 62 60
        E 0 90 64 60
        E 3360 80 3f 00
        E 0 80 4a 00
        E 0 80 4b 00
        E 0 80 55 00
        E 0 80 58 00
        E 0 80 61 00
        E 0 80 62 00
        E 0 80 64 00
        E 120 80 28 00
        E 120 90 2b 60
        E 0 90 54 60
        E 0 90 60 60
        E 120 80 54 00
        E 0 80 60 00
        <X 120 0
          /wFbbWVsbG93XQ==
        >
        E 0 90 3e 60
        E 0 90 49 60
        E 0 90 4a 60
        E 0 90 54 60
        E 0 90 57 60
        E 0 90 60 60
        E 0 90 62 60
        E 0 90 63 60
        E 120 80 3e 00
        E 0 80 49 00
        E 0 80 4a 00
        E 240 80 54 00
        E 0 80 57 00
        E 0 80 60 00
        E 0 80 62 00
        E 0 80 63 00
        E 120 90 49 60
        E 0 90 4a 60
        E 0 90 54 60
        E 0 90 57 60
        E 0 90 60 60
        E 0 90 62 60
        E 0 90 63 60
        E 120 80 49 00
        E 0 80 4a 00
        E 0 80 54 00
        E 0 80 57 00
        E 0 80 60 00
        E 0 80 62 00
        E 0 80 63 00
        E 120 90 54 60
        E 0 90 60 60
        E 120 80 54 00
        E 0 80 60 00
        E 120 90 3d 60
        E 0 90 48 60
        E 0 90 4a 60
        E 0 90 54 60
        E 0 90 56 60
        E 0 90 60 60
        E 0 90 61 60
        E 0 90 63 60
        E 120 80 3d 00
        E 0 80 48 00
        E 0 80 4a 00
        E 240 80 54 00
        E 0 80 56 00
        E 0 80 60 00
        E 0 80 61 00
        E 0 80 63 00
        E 120 90 48 60
        E 0 90 4a 60
        E 0 90 54 60
        E 0 90 56 60
        E 0 90 60 60
        E 0 90 61 60
        E 0 90 63 60
        E 120 80 48 00
        E 0 80 4a 00
        E 0 80 54 00
        E 0 80 56 00
        E 0 80 60 00
        E 0 80 61 00
        E 0 80 63 00
        E 120 90 54 60
        E 0 90 60 60
        E 120 80 54 00
        E 0 80 60 00
        E 120 90 3c 60
        E 0 90 48 60
        E 0 90 49 60
        E 0 90 54 60
        E 0 90 55 60
        E 0 90 60 60
        E 0 90 61 60
        E 0 90 62 60
        E 120 80 3c 00
        E 0 80 48 00
        E 0 80 49 00
        E 240 80 54 00
        E 0 80 55 00
        E 0 80 60 00
        E 0 80 61 00
        E 0 80 62 00
        E 120 90 3c 60
        E 0 90 48 60
        E 0 90 49 60
        E 0 90 54 60
        E 0 90 55 60
        E 0 90 60 60
        E 0 90 61 60
        E 0 90 62 60
        E 120 80 3c 00
        E 0 80 48 00
        E 0 80 49 00
        E 240 80 54 00
        E 0 80 55 00
        E 0 80 60 00
        E 0 80 61 00
        E 0 80 62 00
        E 120 90 3c 60
        E 0 90 48 60
        E 0 90 49 60
        E 0 90 54 60
        E 0 90 55 60
        E 0 90 60 60
        E 0 90 61 60
        E 0 90 62 60
        E 120 80 3c 00
        E 0 80 48 00
        E 0 80 49 00
        E 240 80 54 00
        E 0 80 55 00
        E 0 80 60 00
        E 0 80 61 00
        E 0 80 62 00
        E 120 90 48 60
        E 0 90 49 60
        E 0 90 54 60
        E 0 90 55 60
        E 0 90 60 60
        E 0 90 61 60
        E 0 90 62 60
        E 120 80 2b 00
        E 0 80 48 00
        E 0 80 49 00
        E 0 80 54 00
        E 0 80 55 00
        E 0 80 60 00
        E 0 80 61 00
        E 0 80 62 00
        E 120 90 28 60
        E 0 90 55 60
        E 0 90 61 60
        E 120 80 55 00
        E 0 80 61 00
        E 120 90 40 60
        E 0 90 4b 60
        E 0 90 4c 60
        E 0 90 56 60
        E 0 90 58 60
        E 0 90 61 60
        E 0 90 63 60
        E 0 90 64 60
        E 120 80 40 00
        E 0 80 4b 00
        E 0 80 4c 00
        E 240 80 56 00
        E 0 80 58 00
        E 0 80 61 00
        E 0 80 63 00
        E 0 80 64 00
        E 120 90 4b 60
        E 0 90 4c 60
        E 0 90 56 60
        E 0 90 58 60
        E 0 90 61 60
        E 0 90 63 60
        E 0 90 64 60
        E 120 80 4b 00
        E 0 80 4c 00
        E 0 80 56 00
        E 0 80 58 00
        E 0 80 61 00
        E 0 80 63 00
        E 0 80 64 00
        E 120 90 55 60
        E 0 90 61 60
        E 120 80 55 00
        E 0 80 61 00
        E 120 90 3f 60
        E 0 90 4a 60
        E 0 90 4b 60
        E 0 90 55 60
        E 0 90 58 60
        E 0 90 61 60
        E 0 90 62 60
        E 0 90 64 60
        E 120 80 3f 00
        E 0 80 4a 00
        E 0 80 4b 00
        E 0 80 55 00
        E 0 80 58 00
        E 0 80 61 00
        E 0 80 62 00
        E 0 80 64 00
        E 120 90 4a 60
        E 0 90 4b 60
        E 0 90 55 60
        E 0 90 58 60
        E 0 90 61 60
        E 0 90 62 60
        E 0 90 64 60
        E 120 80 4a 00
        E 0 80 4b 00
        E 0 80 55 00
        E 0 80 58 00
        E 0 80 61 00
        E 0 80 62 00
        E 0 80 64 00
        E 120 90 4a 60
        E 0 90 4b 60
        E 0 90 55 60
        E 0 90 58 60
        E 0 90 61 60
        E 0 90 62 60
        E 0 90 64 60
        E 120 80 4a 00
        E 0 80 4b 00
        E 0 80 55 00
        E 0 80 58 00
        E 0 80 61 00
        E 0 80 62 00
        E 0 80 64 00
        E 120 90 55 60
        E 0 90 61 60
        E 120 80 55 00
        E 0 80 61 00
        E 120 90 3e 60
        E 0 90 49 60
        E 0 90 4b 60
        E 0 90 55 60
        E 0 90 57 60
        E 0 90 61 60
        E 0 90 62 60
        E 0 90 63 60
        E 120 80 3e 00
        E 0 80 49 00
        E 0 80 4b 00
        E 240 80 55 00
        E 0 80 57 00
        E 0 80 61 00
        E 0 80 62 00
        E 0 80 63 00
        E 120 90 3e 60
        E 0 90 49 60
        E 0 90 4a 60
        E 0 90 55 60
        E 0 90 56 60
        E 0 90 61 60
        E 0 90 62 60
        E 120 80 3e 00
        E 0 80 49 00
        E 0 80 4a 00
        E 0 80 55 00
        E 0 80 56 00
        E 0 80 61 00
        E 0 80 62 00
        E 120 90 55 60
        E 0 90 57 60
        E 0 90 61 60
        E 0 90 62 60
        E 0 90 63 60
        E 120 80 55 00
        E 0 80 57 00
        E 0 80 61 00
        E 0 80 62 00
        E 0 80 63 00
        E 120 90 3e 60
        E 0 90 49 60
        E 0 90 4a 60
        E 0 90 55 60
        E 0 90 56 60
        E 0 90 61 60
        E 0 90 62 60
        E 120 80 3e 00
        E 0 80 49 00
        E 0 80 4a 00
        E 0 80 55 00
        E 0 80 56 00
        E 0 80 61 00
        E 0 80 62 00
        E 120 90 54 60
        E 0 90 56 60
        E 0 90 60 60
        E 0 90 62 60
        E 120 80 54 00
        E 0 80 56 00
        E 0 80 60 00
        E 0 80 62 00
        E 120 90 3e 60
        E 0 90 48 60
        E 0 90 4a 60
        E 0 90 54 60
        E 0 90 56 60
        E 0 90 60 60
        E 0 90 62 60
        E 120 80 28 00
        E 0 80 3e 00
        E 0 80 48 00
        E 0 80 4a 00
        E 0 80 54 00
        E 0 80 56 00
        E 0 80 60 00
        E 0 80 62 00
        E 120 90 2b 60
        E 0 90 54 60
        E 0 90 60 60
        E 120 80 54 00
        E 0 80 60 00
        E 120 90 3e 60
        E 0 90 49 60
        E 0 90 4a 60
        E 0 90 54 60
        E 0 90 57 60
        E 0 90 60 60
        E 0 90 62 60
        E 0 90 63 60
        E 120 80 3e 00
        E 0 80 49 00
        E 0 80 4a 00
        E 240 80 54 00
        E 0 80 57 00
        E 0 80 60 00
        E 0 80 62 00
        E 0 80 63 00
        E 120 90 49 60
        E 0 90 4a 60
        E 0 90 54 60
        E 0 90 57 60
        E 0 90 60 60
        E 0 90 62 60
        E 0 90 63 60
        E 120 80 49 00
        E 0 80 4a 00
        E 0 80 54 00
        E 0 80 57 00
        E 0 80 60 00
        E 0 80 62 00
        E 0 80 63 00
        E 120 90 54 60
        E 0 90 60 60
        E 120 80 54 00
        E 0 80 60 00
        E 120 90 3d 60
        E 0 90 48 60
        E 0 90 4a 60
        E 0 90 54 60
        E 0 90 56 60
        E 0 90 60 60
        E 0 90 61 60
        E 0 90 63 60
        E 120 80 3d 00
        E 0 80 48 00
        E 0 80 4a 00
        E 240 80 54 00
        E 0 80 56 00
        E 0 80 60 00
        E 0 80 61 00
        E 0 80 63 00
        E 120 90 48 60
        E 0 90 4a 60
        E 0 90 54 60
        E 0 90 56 60
        E 0 90 60 60
        E 0 90 61 60
        E 0 90 63 60
        E 120 80 48 00
        E 0 80 4a 00
        E 0 80 54 00
        E 0 80 56 00
        E 0 80 60 00
        E 0 80 61 00
        E 0 80 63 00
        E 120 90 54 60
        E 0 90 60 60
        E 120 80 54 00
        E 0 80 60 00
        E 120 90 3c 60
        E 0 90 48 60
        E 0 90 49 60
        E 0 90 54 60
        E 0 90 55 60
        E 0 90 60 60
        E 0 90 61 60
        E 0 90 62 60
        E 120 80 3c 00
        E 0 80 48 00
        E 0 80 49 00
        E 240 80 54 00
        E 0 80 55 00
        E 0 80 60 00
        E 0 80 61 00
        E 0 80 62 00
        E 120 90 3c 60
        E 0 90 48 60
        E 0 90 49 60
        E 0 90 54 60
        E 0 90 55 60
        E 0 90 60 60
        E 0 90 61 60
        E 120 80 3c 00
        E 0 80 48 00
        E 0 80 49 00
        E 0 80 54 00
        E 0 80 55 00
        E 0 80 60 00
        E 0 80 61 00
        E 120 90 48 60
        E 0 90 49 60
        E 0 90 54 60
        E 0 90 55 60
        E 0 90 60 60
        E 0 90 61 60
        E 0 90 62 60
        E 120 80 48 00
        E 0 80 49 00
        E 0 80 54 00
        E 0 80 55 00
        E 0 80 60 00
        E 0 80 61 00
        E 0 80 62 00
        E 120 90 3c 60
        E 0 90 48 60
        E 0 90 49 60
        E 0 90 54 60
        E 0 90 55 60
        E 0 90 60 60
        E 0 90 61 60
        E 120 80 3c 00
        E 0 80 48 00
        E 0 80 49 00
        E 0 80 54 00
        E 0 80 55 00
        E 0 80 60 00
        E 0 80 61 00
        E 120 90 48 60
        E 0 90 49 60
        E 0 90 54 60
        E 0 90 55 60
        E 0 90 60 60
        E 0 90 61 60
        E 0 90 62 60
        E 120 80 48 00
        E 0 80 49 00
        E 0 80 54 00
        E 0 80 55 00
        E 0 80 60 00
        E 0 80 61 00
        E 0 80 62 00
        E 120 90 48 60
        E 0 90 49 60
        E 0 90 54 60
        E 0 90 55 60
        E 0 90 60 60
        E 0 90 61 60
        E 120 80 2b 00
        E 0 80 48 00
        E 0 80 49 00
        E 0 80 54 00
        E 0 80 55 00
        E 0 80 60 00
        E 0 80 61 00
        E 120 90 28 60
        E 0 90 55 60
        E 0 90 61 60
        E 120 80 55 00
        E 0 80 61 00
        E 120 90 40 60
        E 0 90 4b 60
        E 0 90 4c 60
        E 0 90 56 60
        E 0 90 58 60
        E 0 90 61 60
        E 0 90 63 60
        E 0 90 64 60
        E 120 80 40 00
        E 0 80 4b 00
        E 0 80 4c 00
        E 240 80 56 00
        E 0 80 58 00
        E 0 80 61 00
        E 0 80 63 00
        E 0 80 64 00
        E 120 90 4b 60
        E 0 90 4c 60
        E 0 90 56 60
        E 0 90 58 60
        E 0 90 61 60
        E 0 90 63 60
        E 0 90 64 60
        E 120 80 4b 00
        E 0 80 4c 00
        E 0 80 56 00
        E 0 80 58 00
        E 0 80 61 00
        E 0 80 63 00
        E 0 80 64 00
        E 120 90 55 60
        E 0 90 61 60
        E 120 80 55 00
        E 0 80 61 00
        E 120 90 3f 60
        E 0 90 4a 60
        E 0 90 4b 60
        E 0 90 55 60
        E 0 90 58 60
        E 0 90 61 60
        E 0 90 62 60
        E 0 90 64 60
        E 120 80 3f 00
        E 0 80 4a 00
        E 0 80 4b 00
        E 240 80 55 00
        E 0 80 58 00
        E 0 80 61 00
        E 0 80 62 00
        E 0 80 64 00
        E 120 90 4a 60
        E 0 90 4b 60
        E 0 90 55 60
        E 0 90 58 60
        E 0 90 61 60
        E 0 90 62 60
        E 0 90 64 60
        E 120 80 4a 00
        E 0 80 4b 00
        E 0 80 55 00
        E 0 80 58 00
        E 0 80 61 00
        E 0 80 62 00
        E 0 80 64 00
        E 120 90 55 60
        E 0 90 61 60
        E 120 80 55 00
        E 0 80 61 00
        E 120 90 3e 60
        E 0 90 49 60
        E 0 90 4b 60
        E 0 90 55 60
        E 0 90 57 60
        E 0 90 61 60
        E 0 90 62 60
        E 0 90 63 60
        E 120 80 3e 00
        E 0 80 49 00
        E 0 80 4b 00
        E 240 80 55 00
        E 0 80 57 00
        E 0 80 61 00
        E 0 80 62 00
        E 0 80 63 00
        E 120 90 3e 60
        E 0 90 49 60
        E 0 90 4a 60
        E 0 90 55 60
        E 0 90 56 60
        E 0 90 61 60
        E 0 90 62 60
        E 120 80 3e 00
        E 0 80 49 00
        E 0 80 4a 00
        E 0 80 55 00
        E 0 80 56 00
        E 0 80 61 00
        E 0 80 62 00
        E 120 90 55 60
        E 0 90 57 60
        E 0 90 61 60
        E 0 90 62 60
        E 0 90 63 60
        E 120 80 55 00
        E 0 80 57 00
        E 0 80 61 00
        E 0 80 62 00
        E 0 80 63 00
        E 120 90 3e 60
        E 0 90 49 60
        E 0 90 4a 60
        E 0 90 55 60
        E 0 90 56 60
        E 0 90 61 60
        E 0 90 62 60
        E 120 80 3e 00
        E 0 80 49 00
        E 0 80 4a 00
        E 0 80 55 00
        E 0 80 56 00
        E 0 80 61 00
        E 0 80 62 00
        E 120 90 54 60
        E 0 90 56 60
        E 0 90 60 60
        E 0 90 62 60
        E 120 80 54 00
        E 0 80 56 00
        E 0 80 60 00
        E 0 80 62 00
        E 120 90 3e 60
        E 0 90 48 60
        E 0 90 4a 60
        E 0 90 54 60
        E 0 90 56 60
        E 0 90 60 60
        E 0 90 62 60
        E 120 80 28 00
        E 0 80 3e 00
        E 0 80 48 00
        E 0 80 4a 00
        E 0 80 54 00
        E 0 80 56 00
        E 0 80 60 00
        E 0 80 62 00
        E 120 90 2b 60
        E 0 90 54 60
        E 0 90 60 60
        E 120 80 54 00
        E 0 80 60 00
        E 120 90 3e 60
        E 0 90 49 60
        E 0 90 4a 60
        E 0 90 54 60
        E 0 90 57 60
        E 0 90 60 60
        E 0 90 62 60
        E 0 90 63 60
        E 120 80 3e 00
        E 0 80 49 00
        E 0 80 4a 00
        E 240 80 54 00
        E 0 80 57 00
        E 0 80 60 00
        E 0 80 62 00
        E 0 80 63 00
        E 120 90 49 60
        E 0 90 4a 60
        E 0 90 54 60
        E 0 90 57 60
        E 0 90 60 60
        E 0 90 62 60
        E 0 90 63 60
        E 120 80 49 00
        E 0 80 4a 00
        E 0 80 54 00
        E 0 80 57 00
        E 0 80 60 00
        E 0 80 62 00
        E 0 80 63 00
        E 120 90 54 60
        E 0 90 60 60
        E 120 80 54 00
        E 0 80 60 00
        E 120 90 3d 60
        E 0 90 48 60
        E 0 90 4a 60
        E 0 90 54 60
        E 0 90 56 60
        E 0 90 60 60
        E 0 90 61 60
        E 0 90 63 60
        E 120 80 3d 00
        E 0 80 48 00
        E 0 80 4a 00
        E 0 80 54 00
        E 0 80 56 00
        E 0 80 60 00
        E 0 80 61 00
        E 0 80 63 00
        E 120 90 48 60
        E 0 90 4a 60
        E 0 90 54 60
        E 0 90 56 60
        E 0 90 60 60
        E 0 90 61 60
        E 0 90 63 60
        E 120 80 48 00
        E 0 80 4a 00
        E 0 80 54 00
        E 0 80 56 00
        E 0 80 60 00
        E 0 80 61 00
        E 0 80 63 00
        E 120 90 48 60
        E 0 90 4a 60
        E 0 90 54 60
        E 0 90 56 60
        E 0 90 60 60
        E 0 90 61 60
        E 0 90 63 60
        E 120 80 48 00
        E 0 80 4a 00
        E 0 80 54 00
        E 0 80 56 00
        E 0 80 60 00
        E 0 80 61 00
        E 0 80 63 00
        E 120 90 54 60
        E 0 90 60 60
        E 120 80 54 00
        E 0 80 60 00
        E 120 90 3c 60
        E 0 90 48 60
        E 0 90 49 60
        E 0 90 54 60
        E 0 90 55 60
        E 0 90 60 60
        E 0 90 61 60
        E 0 90 62 60
        E 120 80 3c 00
        E 0 80 48 00
        E 0 80 49 00
        E 240 80 54 00
        E 0 80 55 00
        E 0 80 60 00
        E 0 80 61 00
        E 0 80 62 00
        E 120 90 3c 60
        E 0 90 48 60
        E 0 90 49 60
        E 0 90 54 60
        E 0 90 55 60
        E 0 90 60 60
        E 0 90 61 60
        E 120 80 3c 00
        E 0 80 48 00
        E 0 80 49 00
        E 0 80 54 00
        E 0 80 55 00
        E 0 80 60 00
        E 0 80 61 00
        E 120 90 48 60
        E 0 90 49 60
        E 0 90 54 60
        E 0 90 55 60
        E 0 90 60 60
        E 0 90 61 60
        E 0 90 62 60
        E 120 80 48 00
        E 0 80 49 00
        E 0 80 54 00
        E 0 80 55 00
        E 0 80 60 00
        E 0 80 61 00
        E 0 80 62 00
        E 120 90 3c 60
        E 0 90 48 60
        E 0 90 49 60
        E 0 90 54 60
        E 0 90 55 60
        E 0 90 60 60
        E 0 90 61 60
        E 120 80 3c 00
        E 0 80 48 00
        E 0 80 49 00
        E 0 80 54 00
        E 0 80 55 00
        E 0 80 60 00
        E 0 80 61 00
        E 120 90 48 60
        E 0 90 49 60
        E 0 90 54 60
        E 0 90 55 60
        E 0 90 60 60
        E 0 90 61 60
        E 0 90 62 60
        E 120 80 48 00
        E 0 80 49 00
        E 0 80 54 00
        E 0 80 55 00
        E 0 80 60 00
        E 0 80 61 00
        E 0 80 62 00
        E 120 90 48 60
        E 0 90 49 60
        E 0 90 54 60
        E 0 90 55 60
        E 0 90 60 60
        E 0 90 61 60
        E 120 80 2b 00
        E 0 80 48 00
        E 0 80 49 00
        E 0 80 54 00
        E 0 80 55 00
        E 0 80 60 00
        E 0 80 61 00
        E 120 90 28 60
        E 0 90 55 60
        E 0 90 61 60
        E 120 80 55 00
        E 0 80 61 00
        E 120 90 40 60
        E 0 90 4b 60
        E 0 90 4c 60
        E 0 90 56 60
        E 0 90 58 60
        E 0 90 61 60
        E 0 90 63 60
        E 0 90 64 60
        E 120 80 40 00
        E 0 80 4b 00
        E 0 80 4c 00
        E 240 80 56 00
        E 0 80 58 00
        E 0 80 61 00
        E 0 80 63 00
        E 0 80 64 00
        E 120 90 4b 60
        E 0 90 4c 60
        E 0 90 56 60
        E 0 90 58 60
        E 0 90 61 60
        E 0 90 63 60
        E 0 90 64 60
        E 120 80 4b 00
        E 0 80 4c 00
        E 0 80 56 00
        E 0 80 58 00
        E 0 80 61 00
        E 0 80 63 00
        E 0 80 64 00
        E 120 90 55 60
        E 0 90 61 60
        E 120 80 55 00
        E 0 80 61 00
        E 120 90 3f 60
        E 0 90 4a 60
        E 0 90 4b 60
        E 0 90 55 60
        E 0 90 58 60
        E 0 90 61 60
        E 0 90 62 60
        E 0 90 64 60
        E 120 80 3f 00
        E 0 80 4a 00
        E 0 80 4b 00
        E 240 80 55 00
        E 0 80 58 00
        E 0 80 61 00
        E 0 80 62 00
        E 0 80 64 00
        E 120 90 4a 60
        E 0 90 4b 60
        E 0 90 55 60
        E 0 90 58 60
        E 0 90 61 60
        E 0 90 62 60
        E 0 90 64 60
        E 120 80 4a 00
        E 0 80 4b 00
        E 0 80 55 00
        E 0 80 58 00
        E 0 80 61 00
        E 0 80 62 00
        E 0 80 64 00
        E 120 90 55 60
        E 0 90 61 60
        E 120 80 55 00
        E 0 80 61 00
        E 120 90 3e 60
        E 0 90 49 60
        E 0 90 4b 60
        E 0 90 55 60
        E 0 90 57 60
        E 0 90 61 60
        E 0 90 62 60
        E 0 90 63 60
        E 120 80 3e 00
        E 0 80 49 00
        E 0 80 4b 00
        E 240 80 55 00
        E 0 80 57 00
        E 0 80 61 00
        E 0 80 62 00
        E 0 80 63 00
        E 120 90 3e 60
        E 0 90 49 60
        E 0 90 4a 60
        E 0 90 55 60
        E 0 90 56 60
        E 0 90 61 60
        E 0 90 62 60
        E 120 80 3e 00
        E 0 80 49 00
        E 0 80 4a 00
        E 0 80 55 00
        E 0 80 56 00
        E 0 80 61 00
        E 0 80 62 00
        E 120 90 55 60
        E 0 90 57 60
        E 0 90 61 60
        E 0 90 62 60
        E 0 90 63 60
        E 120 80 55 00
        E 0 80 57 00
        E 0 80 61 00
        E 0 80 62 00
        E 0 80 63 00
        E 120 90 3e 60
        E 0 90 49 60
        E 0 90 4a 60
        E 0 90 55 60
        E 0 90 56 60
        E 0 90 61 60
        E 0 90 62 60
        E 120 80 3e 00
        E 0 80 49 00
        E 0 80 4a 00
        E 0 80 55 00
        E 0 80 56 00
        E 0 80 61 00
        E 0 80 62 00
        E 120 90 54 60
        E 0 90 56 60
        E 0 90 60 60
        E 0 90 62 60
        E 120 80 54 00
        E 0 80 56 00
        E 0 80 60 00
        E 0 80 62 00
        E 120 90 3e 60
        E 0 90 48 60
        E 0 90 4a 60
        E 0 90 54 60
        E 0 90 56 60
        E 0 90 60 60
        E 0 90 62 60
        E 120 80 28 00
        E 0 80 3e 00
        E 0 80 48 00
        E 0 80 4a 00
        E 0 80 54 00
        E 0 80 56 00
        E 0 80 60 00
        E 0 80 62 00
        E 120 90 2b 60
        E 0 90 54 60
        E 0 90 60 60
        E 120 80 54 00
        E 0 80 60 00
        E 120 90 3e 60
        E 0 90 49 60
        E 0 90 4a 60
        E 0 90 54 60
        E 0 90 57 60
        E 0 90 60 60
        E 0 90 62 60
        E 0 90 63 60
        E 120 80 3e 00
        E 0 80 49 00
        E 0 80 4a 00
        E 240 80 54 00
        E 0 80 57 00
        E 0 80 60 00
        E 0 80 62 00
        E 0 80 63 00
        E 120 90 49 60
        E 0 90 4a 60
        E 0 90 54 60
        E 0 90 57 60
        E 0 90 60 60
        E 0 90 62 60
        E 0 90 63 60
        E 120 80 49 00
        E 0 80 4a 00
        E 0 80 54 00
        E 0 80 57 00
        E 0 80 60 00
        E 0 80 62 00
        E 0 80 63 00
        E 120 90 54 60
        E 0 90 60 60
        E 120 80 54 00
        E 0 80 60 00
        E 120 90 3d 60
        E 0 90 48 60
        E 0 90 4a 60
        E 0 90 54 60
        E 0 90 56 60
        E 0 90 60 60
        E 0 90 61 60
        E 0 90 63 60
        E 120 80 3d 00
        E 0 80 48 00
        E 0 80 4a 00
        E 240 80 54 00
        E 0 80 56 00
        E 0 80 60 00
        E 0 80 61 00
        E 0 80 63 00
        E 120 90 48 60
        E 0 90 4a 60
        E 0 90 54 60
        E 0 90 56 60
        E 0 90 60 60
        E 0 90 61 60
        E 0 90 63 60
        E 120 80 48 00
        E 0 80 4a 00
        E 0 80 54 00
        E 0 80 56 00
        E 0 80 60 00
        E 0 80 61 00
        E 0 80 63 00
        E 120 90 54 60
        E 0 90 60 60
        E 120 80 54 00
        E 0 80 60 00
        E 120 90 3c 60
        E 0 90 48 60
        E 0 90 49 60
        E 0 90 54 60
        E 0 90 55 60
        E 0 90 60 60
        E 0 90 61 60
        E 0 90 62 60
        E 0 90 74 60
        E 120 80 3c 00
        E 0 80 48 00
        E 0 80 49 00
        E 240 80 54 00
        E 0 80 55 00
        E 0 80 60 00
        E 0 80 61 00
        E 0 80 62 00
        E 120 90 3c 60
        E 0 90 48 60
        E 0 90 49 60
        E 0 90 54 60
        E 0 90 55 60
        E 0 90 60 60
        E 0 90 61 60
        E 120 80 3c 00
        E 0 80 48 00
        E 0 80 49 00
        E 0 80 54 00
        E 0 80 55 00
        E 0 80 60 00
        E 0 80 61 00
        E 120 90 48 60
        E 0 90 49 60
        E 0 90 54 60
        E 0 90 55 60
        E 0 90 60 60
        E 0 90 61 60
        E 0 90 62 60
        E 120 80 48 00
        E 0 80 49 00
        E 0 80 54 00
        E 0 80 55 00
        E 0 80 60 00
        E 0 80 61 00
        E 0 80 62 00
        E 120 90 3c 60
        E 0 90 48 60
        E 0 90 49 60
        E 0 90 54 60
        E 0 90 55 60
        E 0 90 60 60
        E 0 90 61 60
        E 120 80 3c 00
        E 0 80 48 00
        E 0 80 49 00
        E 0 80 54 00
        E 0 80 55 00
        E 0 80 60 00
        E 0 80 61 00
        E 120 90 48 60
        E 0 90 49 60
        E 0 90 54 60
        E 0 90 55 60
        E 0 90 60 60
        E 0 90 61 60
        E 0 90 62 60
        E 120 80 48 00
        E 0 80 49 00
        E 0 80 54 00
        E 0 80 55 00
        E 0 80 60 00
        E 0 80 61 00
        E 0 80 62 00
        E 120 90 48 60
        E 0 90 49 60
        E 0 90 54 60
        E 0 90 55 60
        E 0 90 60 60
        E 0 90 61 60
        E 120 80 2b 00
        E 0 80 48 00
        E 0 80 49 00
        E 0 80 54 00
        E 0 80 55 00
        E 0 80 60 00
        E 0 80 61 00
        E 120 90 28 60
        E 0 90 55 60
        E 0 90 61 60
        E 120 80 55 00
        E 0 80 61 00
        E 120 90 40 60
        E 0 90 4b 60
        E 0 90 4c 60
        E 0 90 56 60
        E 0 90 58 60
        E 0 90 61 60
        E 0 90 63 60
        E 0 90 64 60
        E 120 80 74 00
        E 0 80 40 00
        E 0 80 4b 00
        E 0 80 4c 00
        E 240 80 56 00
        E 0 80 58 00
        E 0 80 61 00
        E 0 80 63 00
        E 0 80 64 00
        E 120 90 4b 60
        E 0 90 4c 60
        E 0 90 56 60
        E 0 90 58 60
        E 0 90 61 60
        E 0 90 63 60
        E 0 90 64 60
        E 120 80 4b 00
        E 0 80 4c 00
        E 0 80 56 00
        E 0 80 58 00
        E 0 80 61 00
        E 0 80 63 00
        E 0 80 64 00
        E 120 90 55 60
        E 0 90 61 60
        E 120 80 55 00
        E 0 80 61 00
        E 120 90 3f 60
        E 0 90 4a 60
        E 0 90 4b 60
        E 0 90 55 60
        E 0 90 58 60
        E 0 90 61 60
        E 0 90 62 60
        E 0 90 64 60
        E 120 80 3f 00
        E 0 80 4a 00
        E 0 80 4b 00
        E 240 80 55 00
        E 0 80 58 00
        E 0 80 61 00
        E 0 80 62 00
        E 0 80 64 00
        E 120 90 4a 60
        E 0 90 4b 60
        E 0 90 55 60
        E 0 90 58 60
        E 0 90 61 60
        E 0 90 62 60
        E 0 90 64 60
        E 120 80 4a 00
        E 0 80 4b 00
        E 0 80 55 00
        E 0 80 58 00
        E 0 80 61 00
        E 0 80 62 00
        E 0 80 64 00
        E 120 90 55 60
        E 0 90 61 60
        E 120 80 55 00
        E 0 80 61 00
        E 120 90 3e 60
        E 0 90 49 60
        E 0 90 4b 60
        E 0 90 55 60
        E 0 90 57 60
        E 0 90 61 60
        E 0 90 62 60
        E 0 90 63 60
        E 120 80 3e 00
        E 0 80 49 00
        E 0 80 4b 00
        E 240 80 55 00
        E 0 80 57 00
        E 0 80 61 00
        E 0 80 62 00
        E 0 80 63 00
        E 120 90 3e 60
        E 0 90 49 60
        E 0 90 4a 60
        E 0 90 55 60
        E 0 90 56 60
        E 0 90 61 60
        E 0 90 62 60
        E 120 80 3e 00
        E 0 80 49 00
        E 0 80 4a 00
        E 0 80 55 00
        E 0 80 56 00
        E 0 80 61 00
        E 0 80 62 00
        E 120 90 55 60
        E 0 90 57 60
        E 0 90 61 60
        E 0 90 62 60
        E 0 90 63 60
        E 120 80 55 00
        E 0 80 57 00
        E 0 80 61 00
        E 0 80 62 00
        E 0 80 63 00
        E 120 90 3e 60
        E 0 90 49 60
        E 0 90 4a 60
        E 0 90 55 60
        E 0 90 56 60
        E 0 90 61 60
        E 0 90 62 60
        E 120 80 3e 00
        E 0 80 49 00
        E 0 80 4a 00
        E 0 80 55 00
        E 0 80 56 00
        E 0 80 61 00
        E 0 80 62 00
        E 120 90 54 60
        E 0 90 56 60
        E 0 90 60 60
        E 0 90 62 60
        E 120 80 54 00
        E 0 80 56 00
        E 0 80 60 00
        E 0 80 62 00
        E 120 90 3e 60
        E 0 90 48 60
        E 0 90 4a 60
        E 0 90 54 60
        E 0 90 56 60
        E 0 90 60 60
        E 0 90 62 60
        E 120 80 28 00
        E 0 80 3e 00
        E 0 80 48 00
        E 0 80 4a 00
        E 0 80 54 00
        E 0 80 56 00
        E 0 80 60 00
        E 0 80 62 00
        E 120 90 2b 60
        E 0 90 54 60
        E 0 90 60 60
        E 120 80 54 00
        E 0 80 60 00
        E 120 90 3e 60
        E 0 90 49 60
        E 0 90 4a 60
        E 0 90 54 60
        E 0 90 57 60
        E 0 90 60 60
        E 0 90 62 60
        E 0 90 63 60
        E 120 80 3e 00
        E 0 80 49 00
        E 0 80 4a 00
        E 240 80 54 00
        E 0 80 57 00
        E 0 80 60 00
        E 0 80 62 00
        E 0 80 63 00
        E 120 90 49 60
        E 0 90 4a 60
        E 0 90 54 60
        E 0 90 57 60
        E 0 90 60 60
        E 0 90 62 60
        E 0 90 63 60
        E 120 80 49 00
        E 0 80 4a 00
        E 0 80 54 00
        E 0 80 57 00
        E 0 80 60 00
        E 0 80 62 00
        E 0 80 63 00
        E 120 90 54 60
        E 0 90 60 60
        E 120 80 54 00
        E 0 80 60 00
        E 120 90 3d 60
        E 0 90 48 60
        E 0 90 4a 60
        E 0 90 54 60
        E 0 90 56 60
        E 0 90 60 60
        E 0 90 61 60
        E 0 90 63 60
        E 120 80 3d 00
        E 0 80 48 00
        E 0 80 4a 00
        E 0 80 54 00
        E 0 80 56 00
        E 0 80 60 00
        E 0 80 61 00
        E 0 80 63 00
        E 120 90 48 60
        E 0 90 4a 60
        E 0 90 54 60
        E 0 90 56 60
        E 0 90 60 60
        E 0 90 61 60
        E 0 90 63 60
        E 120 80 48 00
        E 0 80 4a 00
        E 0 80 54 00
        E 0 80 56 00
        E 0 80 60 00
        E 0 80 61 00
        E 0 80 63 00
        E 120 90 48 60
        E 0 90 4a 60
        E 0 90 54 60
        E 0 90 56 60
        E 0 90 60 60
        E 0 90 61 60
        E 0 90 63 60
        E 120 80 48 00
        E 0 80 4a 00
        E 0 80 54 00
        E 0 80 56 00
        E 0 80 60 00
        E 0 80 61 00
        E 0 80 63 00
        E 120 90 54 60
        E 0 90 60 60
        E 120 80 54 00
        E 0 80 60 00
        E 120 90 3c 60
        E 0 90 48 60
        E 0 90 49 60
        E 0 90 54 60
        E 0 90 55 60
        E 0 90 60 60
        E 0 90 61 60
        E 0 90 62 60
        E 120 80 3c 00
        E 0 80 48 00
        E 0 80 49 00
        E 240 80 54 00
        E 0 80 55 00
        E 0 80 60 00
        E 0 80 61 00
        E 0 80 62 00
        E 120 90 3c 60
        E 0 90 48 60
        E 0 90 49 60
        E 0 90 54 60
        E 0 90 55 60
        E 0 90 60 60
        E 0 90 61 60
        E 120 80 3c 00
        E 0 80 48 00
        E 0 80 49 00
        E 0 80 54 00
        E 0 80 55 00
        E 0 80 60 00
        E 0 80 61 00
        E 120 90 48 60
        E 0 90 49 60
        E 0 90 54 60
        E 0 90 55 60
        E 0 90 60 60
        E 0 90 61 60
        E 0 90 62 60
        E 120 80 48 00
        E 0 80 49 00
        E 0 80 54 00
        E 0 80 55 00
        E 0 80 60 00
        E 0 80 61 00
        E 0 80 62 00
        E 120 90 3c 60
        E 0 90 48 60
        E 0 90 49 60
        E 0 90 54 60
        E 0 90 55 60
        E 0 90 60 60
        E 0 90 61 60
        E 120 80 3c 00
        E 0 80 48 00
        E 0 80 49 00
        E 0 80 54 00
        E 0 80 55 00
        E 0 80 60 00
        E 0 80 61 00
        E 120 90 48 60
        E 0 90 49 60
        E 0 90 54 60
        E 0 90 55 60
        E 0 90 60 60
        E 0 90 61 60
        E 0 90 62 60
        E 120 80 48 00
        E 0 80 49 00
        E 0 80 54 00
        E 0 80 55 00
        E 0 80 60 00
        E 0 80 61 00
        E 0 80 62 00
        E 120 90 48 60
        E 0 90 49 60
        E 0 90 54 60
        E 0 90 55 60
        E 0 90 60 60
        E 0 90 61 60
        E 120 80 2b 00
        E 0 80 48 00
        E 0 80 49 00
        E 0 80 54 00
        E 0 80 55 00
        E 0 80 60 00
        E 0 80 61 00
        E 120 90 28 60
        E 0 90 55 60
        E 0 90 61 60
        E 120 80 55 00
        E 0 80 61 00
        E 120 90 40 60
        E 0 90 4b 60
        E 0 90 4c 60
        E 0 90 56 60
        E 0 90 58 60
        E 0 90 61 60
        E 0 90 63 60
        E 0 90 64 60
        E 120 80 40 00
        E 0 80 4b 00
        E 0 80 4c 00
        E 240 80 56 00
        E 0 80 58 00
        E 0 80 61 00
        E 0 80 63 00
        E 0 80 64 00
        E 120 90 49 60
        E 0 90 4b 60
        E 0 90 55 60
        E 0 90 57 60
        E 0 90 61 60
        E 0 90 63 60
        E 120 80 49 00
        E 0 80 4b 00
        E 240 80 55 00
        E 0 80 57 00
        E 0 80 61 00
        E 0 80 63 00
        E 120 90 40 60
        E 0 90 4b 60
        E 0 90 4c 60
        E 0 90 56 60
        E 0 90 58 60
        E 0 90 61 60
        E 0 90 63 60
        E 0 90 64 60
        E 120 80 40 00
        E 0 80 4b 00
        E 0 80 4c 00
        E 240 80 56 00
        E 0 80 58 00
        E 0 80 61 00
        E 0 80 63 00
        E 0 80 64 00
        E 120 90 49 60
        E 0 90 4b 60
        E 0 90 55 60
        E 0 90 57 60
        E 0 90 61 60
        E 0 90 63 60
        E 120 80 28 00
        E 0 80 49 00
        E 0 80 4b 00
        E 0 80 55 00
        E 0 80 57 00
        E 0 80 61 00
        E 0 80 63 00
        E 120 90 2b 60
        E 0 90 56 60
        E 0 90 62 60
        E 120 80 56 00
        E 0 80 62 00
        E 120 90 3f 60
        E 0 90 4a 60
        E 0 90 4b 60
        E 0 90 56 60
        E 0 90 57 60
        E 0 90 62 60
        E 0 90 63 60
        E 120 80 3f 00
        E 0 80 4a 00
        E 0 80 4b 00
        E 0 80 56 00
        E 0 80 57 00
        E 0 80 62 00
        E 0 80 63 00
        E 120 90 57 60
        E 0 90 58 60
        E 0 90 62 60
        E 0 90 63 60
        E 0 90 64 60
        E 120 80 57 00
        E 0 80 58 00
        E 0 80 62 00
        E 0 80 63 00
        E 0 80 64 00
        E 120 90 4a 60
        E 0 90 4b 60
        E 0 90 56 60
        E 0 90 57 60
        E 0 90 62 60
        E 0 90 63 60
        E 120 80 4a 00
        E 0 80 4b 00
        E 240 80 56 00
        E 0 80 57 00
        E 0 80 62 00
        E 0 80 63 00
        E 120 90 40 60
        E 0 90 4b 60
        E 0 90 4c 60
        E 0 90 57 60
        E 0 90 58 60
        E 0 90 62 60
        E 0 90 63 60
        E 0 90 64 60
        E 120 80 40 00
        E 0 80 4b 00
        E 0 80 4c 00
        E 240 80 57 00
        E 0 80 58 00
        E 0 80 62 00
        E 0 80 63 00
        E 0 80 64 00
        E 120 90 4a 60
        E 0 90 4b 60
        E 0 90 56 60
        E 0 90 57 60
        E 0 90 62 60
        E 0 90 63 60
        E 120 80 4a 00
        E 0 80 4b 00
        E 0 80 56 00
        E 0 80 57 00
        E 0 80 62 00
        E 0 80 63 00
        E 120 90 54 60
        E 0 90 60 60
        E 120 80 2b 00
        E 0 80 54 00
        E 0 80 60 00
        E 120 90 2b 60
        E 0 90 3e 60
        E 0 90 49 60
        E 0 90 4a 60
        E 0 90 54 60
        E 0 90 57 60
        E 0 90 60 60
        E 0 90 62 60
        E 0 90 63 60
        E 120 80 3e 00
        E 0 80 49 00
        E 0 80 4a 00
        E 240 80 54 00
        E 0 80 57 00
        E 0 80 60 00
        E 0 80 62 00
        E 0 80 63 00
        E 120 90 49 60
        E 0 90 4a 60
        E 0 90 54 60
        E 0 90 57 60
        E 0 90 60 60
        E 0 90 62 60
        E 0 90 63 60
        E 120 80 49 00
        E 0 80 4a 00
        E 0 80 54 00
        E 0 80 57 00
        E 0 80 60 00
        E 0 80 62 00
        E 0 80 63 00
        E 120 90 54 60
        E 0 90 60 60
        E 120 80 54 00
        E 0 80 60 00
        E 120 90 3d 60
        E 0 90 48 60
        E 0 90 4a 60
        E 0 90 54 60
        E 0 90 56 60
        E 0 90 60 60
        E 0 90 61 60
        E 0 90 63 60
        E 120 80 3d 00
        E 0 80 48 00
        E 0 80 4a 00
        E 0 80 54 00
        E 0 80 56 00
        E 0 80 60 00
        E 0 80 61 00
        E 0 80 63 00
        E 120 90 48 60
        E 0 90 4a 60
        E 0 90 54 60
        E 0 90 56 60
        E 0 90 60 60
        E 0 90 61 60
        E 0 90 63 60
        E 120 80 48 00
        E 0 80 4a 00
        E 0 80 54 00
        E 0 80 56 00
        E 0 80 60 00
        E 0 80 61 00
        E 0 80 63 00
        E 120 90 48 60
        E 0 90 4a 60
        E 0 90 54 60
        E 0 90 56 60
        E 0 90 60 60
        E 0 90 61 60
        E 0 90 63 60
        E 120 80 48 00
        E 0 80 4a 00
        E 0 80 54 00
        E 0 80 56 00
        E 0 80 60 00
        E 0 80 61 00
        E 0 80 63 00
        E 120 90 54 60
        E 0 90 60 60
        E 120 80 54 00
        E 0 80 60 00
        E 120 90 3c 60
        E 0 90 48 60
        E 0 90 49 60
        E 0 90 54 60
        E 0 90 55 60
        E 0 90 60 60
        E 0 90 61 60
        E 120 80 3c 00
        E 0 80 48 00
        E 0 80 49 00
        E 240 80 54 00
        E 0 80 55 00
        E 0 80 60 00
        E 0 80 61 00
        E 120 90 3c 60
        E 0 90 48 60
        E 0 90 49 60
        E 0 90 54 60
        E 0 90 55 60
        E 0 90 60 60
        E 0 90 61 60
        E 120 80 3c 00
        E 0 80 48 00
        E 0 80 49 00
        E 240 80 54 00
        E 0 80 55 00
        E 0 80 60 00
        E 0 80 61 00
        E 120 90 3c 60
        E 0 90 48 60
        E 0 90 49 60
        E 0 90 54 60
        E 0 90 55 60
        E 0 90 60 60
        E 0 90 61 60
        E 120 80 3c 00
        E 0 80 48 00
        E 0 80 49 00
        E 0 80 54 00
        E 0 80 55 00
        E 0 80 60 00
        E 0 80 61 00
        E 120 90 48 60
        E 0 90 49 60
        E 0 90 54 60
        E 0 90 55 60
        E 0 90 60 60
        E 0 90 61 60
        E 0 90 62 60
        E 120 80 48 00
        E 0 80 49 00
        E 0 80 54 00
        E 0 80 55 00
        E 0 80 60 00
        E 0 80 61 00
        E 0 80 62 00
        E 120 90 48 60
        E 0 90 49 60
        E 0 90 54 60
        E 0 90 55 60
        E 0 90 60 60
        E 0 90 61 60
        E 120 80 2b 00
        E 0 80 48 00
        E 0 80 49 00
        E 0 80 54 00
        E 0 80 55 00
        E 0 80 60 00
        E 0 80 61 00
        E 120 90 28 60
        E 0 90 55 60
        E 0 90 61 60
        E 120 80 55 00
        E 0 80 61 00
        E 120 90 40 60
        E 0 90 4b 60
        E 0 90 4c 60
        E 0 90 56 60
        E 0 90 58 60
        E 0 90 61 60
        E 0 90 63 60
        E 0 90 64 60
        E 120 80 40 00
        E 0 80 4b 00
        E 0 80 4c 00
        E 240 80 56 00
        E 0 80 58 00
        E 0 80 61 00
        E 0 80 63 00
        E 0 80 64 00
        E 120 90 40 60
        E 0 90 4b 60
        E 0 90 4c 60
        E 0 90 56 60
        E 0 90 58 60
        E 0 90 61 60
        E 0 90 63 60
        E 0 90 64 60
        E 120 80 40 00
        E 0 80 4b 00
        E 0 80 4c 00
        E 240 80 56 00
        E 0 80 58 00
        E 0 80 61 00
        E 0 80 63 00
        E 0 80 64 00
        E 120 90 40 60
        E 0 90 4b 60
        E 0 90 4c 60
        E 0 90 56 60
        E 0 90 58 60
        E 0 90 61 60
        E 0 90 63 60
        E 0 90 64 60
        E 120 80 40 00
        E 0 80 4b 00
        E 0 80 4c 00
        E 0 80 56 00
        E 0 80 58 00
        E 0 80 61 00
        E 0 80 63 00
        E 0 80 64 00
        E 120 90 4b 60
        E 0 90 4c 60
        E 0 90 56 60
        E 0 90 58 60
        E 0 90 61 60
        E 0 90 63 60
        E 0 90 64 60
        E 120 80 4b 00
        E 0 80 4c 00
        E 0 80 56 00
        E 0 80 58 00
        E 0 80 61 00
        E 0 80 63 00
        E 0 80 64 00
        E 120 90 40 60
        E 0 90 4b 60
        E 0 90 4c 60
        E 0 90 56 60
        E 0 90 58 60
        E 0 90 61 60
        E 0 90 63 60
        E 0 90 64 60
        E 120 80 28 00
        E 0 80 40 00
        E 0 80 4b 00
        E 0 80 4c 00
        E 0 80 56 00
        E 0 80 58 00
        E 0 80 61 00
        E 0 80 63 00
        E 0 80 64 00
        E 120 90 2b 60
        E 0 90 56 60
        E 0 90 62 60
        E 120 80 56 00
        E 0 80 62 00
        E 120 90 40 60
        E 0 90 4b 60
        E 0 90 4c 60
        E 0 90 57 60
        E 0 90 58 60
        E 0 90 62 60
        E 0 90 63 60
        E 0 90 64 60
        E 120 80 40 00
        E 0 80 4b 00
        E 0 80 4c 00
        E 240 80 57 00
        E 0 80 58 00
        E 0 80 62 00
        E 0 80 63 00
        E 0 80 64 00
        E 120 90 4b 60
        E 0 90 4c 60
        E 0 90 57 60
        E 0 90 58 60
        E 0 90 62 60
        E 0 90 63 60
        E 0 90 64 60
        E 120 80 4b 00
        E 0 80 4c 00
        E 240 80 2b 00
        E 0 80 57 00
        E 0 80 58 00
        E 0 80 62 00
        E 0 80 63 00
        E 0 80 64 00
        E 120 90 28 60
        E 0 90 3f 60
        E 0 90 4a 60
        E 0 90 4b 60
        E 0 90 55 60
        E 0 90 58 60
        E 0 90 61 60
        E 0 90 62 60
        E 0 90 64 60
        E 120 80 3f 00
        E 0 80 4a 00
        E 0 80 4b 00
        E 0 80 55 00
        E 0 80 58 00
        E 0 80 61 00
        E 0 80 62 00
        E 0 80 64 00
        E 120 90 4a 60
        E 0 90 4b 60
        E 0 90 55 60
        E 0 90 58 60
        E 0 90 61 60
        E 0 90 62 60
        E 0 90 64 60
        E 120 80 4a 00
        E 0 80 4b 00
        E 0 80 55 00
        E 0 80 58 00
        E 0 80 61 00
        E 0 80 62 00
        E 0 80 64 00
        E 120 90 4a 60
        E 0 90 4b 60
        E 0 90 55 60
        E 0 90 58 60
        E 0 90 61 60
        E 0 90 62 60
        E 0 90 64 60
        E 120 80 28 00
        E 0 80 4a 00
        E 0 80 4b 00
        E 0 80 55 00
        E 0 80 58 00
        E 0 80 61 00
        E 0 80 62 00
        E 0 80 64 00
        E 120 90 2b 60
        E 0 90 54 60
        E 0 90 60 60
        E 120 80 54 00
        E 0 80 60 00
        E 120 90 3e 60
        E 0 90 49 60
        E 0 90 4a 60
        E 0 90 54 60
        E 0 90 57 60
        E 0 90 60 60
        E 0 90 62 60
        E 0 90 63 60
        E 120 80 3e 00
        E 0 80 49 00
        E 0 80 4a 00
        E 240 80 54 00
        E 0 80 57 00
        E 0 80 60 00
        E 0 80 62 00
        E 0 80 63 00
        E 120 90 49 60
        E 0 90 4a 60
        E 0 90 54 60
        E 0 90 57 60
        E 0 90 60 60
        E 0 90 62 60
        E 0 90 63 60
        E 120 80 49 00
        E 0 80 4a 00
        E 0 80 54 00
        E 0 80 57 00
        E 0 80 60 00
        E 0 80 62 00
        E 0 80 63 00
        E 120 90 54 60
        E 0 90 60 60
        E 120 80 54 00
        E 0 80 60 00
        E 120 90 3d 60
        E 0 90 48 60
        E 0 90 4a 60
        E 0 90 54 60
        E 0 90 56 60
        E 0 90 60 60
        E 0 90 61 60
        E 0 90 63 60
        E 120 80 3d 00
        E 0 80 48 00
        E 0 80 4a 00
        E 0 80 54 00
        E 0 80 56 00
        E 0 80 60 00
        E 0 80 61 00
        E 0 80 63 00
        E 120 90 48 60
        E 0 90 4a 60
        E 0 90 54 60
        E 0 90 56 60
        E 0 90 60 60
        E 0 90 61 60
        E 0 90 63 60
        E 120 80 48 00
        E 0 80 4a 00
        E 0 80 54 00
        E 0 80 56 00
        E 0 80 60 00
        E 0 80 61 00
        E 0 80 63 00
        E 120 90 48 60
        E 0 90 4a 60
        E 0 90 54 60
        E 0 90 56 60
        E 0 90 60 60
        E 0 90 61 60
        E 0 90 63 60
        E 120 80 48 00
        E 0 80 4a 00
        E 0 80 54 00
        E 0 80 56 00
        E 0 80 60 00
        E 0 80 61 00
        E 0 80 63 00
        E 120 90 54 60
        E 0 90 60 60
        E 120 80 54 00
        E 0 80 60 00
        E 120 90 3c 60
        E 0 90 48 60
        E 0 90 49 60
        E 0 90 54 60
        E 0 90 55 60
        E 0 90 60 60
        E 0 90 61 60
        E 0 90 62 60
        E 120 80 3c 00
        E 0 80 48 00
        E 0 80 49 00
        E 240 80 54 00
        E 0 80 55 00
        E 0 80 60 00
        E 0 80 61 00
        E 0 80 62 00
        E 120 90 3c 60
        E 0 90 48 60
        E 0 90 49 60
        E 0 90 54 60
        E 0 90 55 60
        E 0 90 60 60
        E 0 90 61 60
        E 120 80 3c 00
        E 0 80 48 00
        E 0 80 49 00
        E 0 80 54 00
        E 0 80 55 00
        E 0 80 60 00
        E 0 80 61 00
        E 120 90 48 60
        E 0 90 49 60
        E 0 90 54 60
        E 0 90 55 60
        E 0 90 60 60
        E 0 90 61 60
        E 0 90 62 60
        E 120 80 48 00
        E 0 80 49 00
        E 0 80 54 00
        E 0 80 55 00
        E 0 80 60 00
        E 0 80 61 00
        E 0 80 62 00
        E 120 90 3c 60
        E 0 90 48 60
        E 0 90 49 60
        E 0 90 54 60
        E 0 90 55 60
        E 0 90 60 60
        E 0 90 61 60
        E 120 80 3c 00
        E 0 80 48 00
        E 0 80 49 00
        E 0 80 54 00
        E 0 80 55 00
        E 0 80 60 00
        E 0 80 61 00
        E 120 90 48 60
        E 0 90 49 60
        E 0 90 54 60
        E 0 90 55 60
        E 0 90 60 60
        E 0 90 61 60
        E 0 90 62 60
        E 120 80 48 00
        E 0 80 49 00
        E 0 80 54 00
        E 0 80 55 00
        E 0 80 60 00
        E 0 80 61 00
        E 0 80 62 00
        E 120 90 48 60
        E 0 90 49 60
        E 0 90 54 60
        E 0 90 55 60
        E 0 90 60 60
        E 0 90 61 60
        E 120 80 2b 00
        E 0 80 48 00
        E 0 80 49 00
        E 0 80 54 00
        E 0 80 55 00
        E 0 80 60 00
        E 0 80 61 00
        E 120 90 28 60
        E 0 90 55 60
        E 0 90 61 60
        E 120 80 55 00
        E 0 80 61 00
        E 120 90 40 60
        E 0 90 4b 60
        E 0 90 4c 60
        E 0 90 56 60
        E 0 90 58 60
        E 0 90 61 60
        E 0 90 63 60
        E 0 90 64 60
        E 0 90 74 60
        E 120 80 40 00
        E 0 80 4b 00
        E 0 80 4c 00
        E 240 80 56 00
        E 0 80 58 00
        E 0 80 61 00
        E 0 80 63 00
        E 0 80 64 00
        E 120 90 4b 60
        E 0 90 4c 60
        E 0 90 56 60
        E 0 90 58 60
        E 0 90 61 60
        E 0 90 63 60
        E 0 90 64 60
        E 120 80 4b 00
        E 0 80 4c 00
        E 0 80 56 00
        E 0 80 58 00
        E 0 80 61 00
        E 0 80 63 00
        E 0 80 64 00
        E 120 90 55 60
        E 0 90 61 60
        E 120 80 55 00
        E 0 80 61 00
        E 120 90 3f 60
        E 0 90 4a 60
        E 0 90 4b 60
        E 0 90 55 60
        E 0 90 58 60
        E 0 90 61 60
        E 0 90 62 60
        E 0 90 64 60
        E 120 80 3f 00
        E 0 80 4a 00
        E 0 80 4b 00
        E 0 80 55 00
        E 0 80 58 00
        E 0 80 61 00
        E 0 80 62 00
        E 0 80 64 00
        E 120 90 55 60
        E 0 90 56 60
        E 0 90 61 60
        E 0 90 62 60
        E 120 80 55 00
        E 0 80 56 00
        E 0 80 61 00
        E 0 80 62 00
        E 120 90 4a 60
        E 0 90 4b 60
        E 0 90 55 60
        E 0 90 58 60
        E 0 90 61 60
        E 0 90 62 60
        E 0 90 64 60
        E 120 80 4a 00
        E 0 80 4b 00
        E 0 80 55 00
        E 0 80 58 00
        E 0 80 61 00
        E 0 80 62 00
        E 0 80 64 00
        E 120 90 55 60
        E 0 90 61 60
        E 120 80 55 00
        E 0 80 61 00
        E 120 90 3e 60
        E 0 90 49 60
        E 0 90 4b 60
        E 0 90 55 60
        E 0 90 57 60
        E 0 90 61 60
        E 0 90 62 60
        E 0 90 63 60
        E 120 80 3e 00
        E 0 80 49 00
        E 0 80 4b 00
        E 240 80 55 00
        E 0 80 57 00
        E 0 80 61 00
        E 0 80 62 00
        E 0 80 63 00
        E 120 90 3e 60
        E 0 90 49 60
        E 0 90 4a 60
        E 0 90 55 60
        E 0 90 56 60
        E 0 90 61 60
        E 0 90 62 60
        E 120 80 3e 00
        E 0 80 49 00
        E 0 80 4a 00
        E 0 80 55 00
        E 0 80 56 00
        E 0 80 61 00
        E 0 80 62 00
        E 120 90 55 60
        E 0 90 57 60
        E 0 90 61 60
        E 0 90 62 60
        E 0 90 63 60
        E 120 80 55 00
        E 0 80 57 00
        E 0 80 61 00
        E 0 80 62 00
        E 0 80 63 00
        E 120 90 3e 60
        E 0 90 49 60
        E 0 90 4a 60
        E 0 90 55 60
        E 0 90 56 60
        E 0 90 61 60
        E 0 90 62 60
        E 120 80 3e 00
        E 0 80 49 00
        E 0 80 4a 00
        E 0 80 55 00
        E 0 80 56 00
        E 0 80 61 00
        E 0 80 62 00
        E 120 90 54 60
        E 0 90 56 60
        E 0 90 60 60
        E 0 90 62 60
        E 120 80 54 00
        E 0 80 56 00
        E 0 80 60 00
        E 0 80 62 00
        E 120 90 3e 60
        E 0 90 48 60
        E 0 90 4a 60
        E 0 90 54 60
        E 0 90 56 60
        E 0 90 60 60
        E 0 90 62 60
        E 120 80 28 00
        E 0 80 3e 00
        E 0 80 48 00
        E 0 80 4a 00
        E 0 80 54 00
        E 0 80 56 00
        E 0 80 60 00
        E 0 80 62 00
        E 120 90 2b 60
        E 0 90 54 60
        E 0 90 60 60
        E 120 80 54 00
        E 0 80 60 00
        E 120 80 74 00
        E 0 90 3e 60
        E 0 90 49 60
        E 0 90 4a 60
        E 0 90 54 60
        E 0 90 57 60
        E 0 90 60 60
        E 0 90 62 60
        E 0 90 63 60
        E 120 80 3e 00
        E 0 80 49 00
        E 0 80 4a 00
        E 240 80 54 00
        E 0 80 57 00
        E 0 80 60 00
        E 0 80 62 00
        E 0 80 63 00
        E 120 90 49 60
        E 0 90 4a 60
        E 0 90 54 60
        E 0 90 57 60
        E 0 90 60 60
        E 0 90 62 60
        E 0 90 63 60
        E 120 80 49 00
        E 0 80 4a 00
        E 0 80 54 00
        E 0 80 57 00
        E 0 80 60 00
        E 0 80 62 00
        E 0 80 63 00
        E 120 90 54 60
        E 0 90 60 60
        E 120 80 54 00
        E 0 80 60 00
        E 120 90 3d 60
        E 0 90 48 60
        E 0 90 4a 60
        E 0 90 54 60
        E 0 90 56 60
        E 0 90 60 60
        E 0 90 61 60
        E 0 90 63 60
        E 120 80 3d 00
        E 0 80 48 00
        E 0 80 4a 00
        E 240 80 54 00
        E 0 80 56 00
        E 0 80 60 00
        E 0 80 61 00
        E 0 80 63 00
        E 120 90 48 60
        E 0 90 49 60
        E 0 90 54 60
        E 0 90 55 60
        E 0 90 60 60
        E 0 90 61 60
        E 120 80 48 00
        E 0 80 49 00
        E 0 80 54 00
        E 0 80 55 00
        E 0 80 60 00
        E 0 80 61 00
        E 120 90 54 60
        E 0 90 60 60
        E 120 80 54 00
        E 0 80 60 00
        E 120 90 3c 60
        E 0 90 48 60
        E 0 90 49 60
        E 0 90 54 60
        E 0 90 55 60
        E 0 90 60 60
        E 0 90 61 60
        E 0 90 62 60
        E 120 80 3c 00
        E 0 80 48 00
        E 0 80 49 00
        E 240 80 54 00
        E 0 80 55 00
        E 0 80 60 00
        E 0 80 61 00
        E 0 80 62 00
        E 120 90 3c 60
        E 0 90 48 60
        E 0 90 49 60
        E 0 90 54 60
        E 0 90 55 60
        E 0 90 60 60
        E 0 90 61 60
        E 120 80 3c 00
        E 0 80 48 00
        E 0 80 49 00
        E 0 80 54 00
        E 0 80 55 00
        E 0 80 60 00
        E 0 80 61 00
        E 120 90 48 60
        E 0 90 49 60
        E 0 90 54 60
        E 0 90 55 60
        E 0 90 60 60
        E 0 90 61 60
        E 0 90 62 60
        E 120 80 48 00
        E 0 80 49 00
        E 0 80 54 00
        E 0 80 55 00
        E 0 80 60 00
        E 0 80 61 00
        E 0 80 62 00
        E 120 90 3c 60
        E 0 90 48 60
        E 0 90 49 60
        E 0 90 54 60
        E 0 90 55 60
        E 0 90 60 60
        E 0 90 61 60
        E 120 80 3c 00
        E 0 80 48 00
        E 0 80 49 00
        E 0 80 54 00
        E 0 80 55 00
        E 0 80 60 00
        E 0 80 61 00
        E 120 90 48 60
        E 0 90 49 60
        E 0 90 54 60
        E 0 90 55 60
        E 0 90 60 60
        E 0 90 61 60
        E 120 80 48 00
        E 0 80 49 00
        E 0 80 54 00
        E 0 80 55 00
        E 0 80 60 00
        E 0 80 61 00
        E 120 90 48 60
        E 0 90 49 60
        E 0 90 54 60
        E 0 90 55 60
        E 0 90 60 60
        E 0 90 61 60
        E 120 80 2b 00
        E 0 80 48 00
        E 0 80 49 00
        E 0 80 54 00
        E 0 80 55 00
        E 0 80 60 00
        E 0 80 61 00
        E 120 90 28 60
        E 0 90 55 60
        E 0 90 61 60
        E 120 80 55 00
        E 0 80 61 00
        E 120 90 40 60
        E 0 90 4b 60
        E 0 90 4c 60
        E 0 90 56 60
        E 0 90 58 60
        E 0 90 61 60
        E 0 90 63 60
        E 0 90 64 60
        E 120 80 40 00
        E 0 80 4b 00
        E 0 80 4c 00
        E 240 80 56 00
        E 0 80 58 00
        E 0 80 61 00
        E 0 80 63 00
        E 0 80 64 00
        E 120 90 4b 60
        E 0 90 4c 60
        E 0 90 56 60
        E 0 90 58 60
        E 0 90 61 60
        E 0 90 63 60
        E 0 90 64 60
        E 120 80 4b 00
        E 0 80 4c 00
        E 0 80 56 00
        E 0 80 58 00
        E 0 80 61 00
        E 0 80 63 00
        E 0 80 64 00
        E 120 90 55 60
        E 0 90 61 60
        E 120 80 55 00
        E 0 80 61 00
        E 120 90 3f 60
        E 0 90 4a 60
        E 0 90 4b 60
        E 0 90 55 60
        E 0 90 58 60
        E 0 90 61 60
        E 0 90 62 60
        E 0 90 64 60
        E 120 80 3f 00
        E 0 80 4a 00
        E 0 80 4b 00
        E 240 80 55 00
        E 0 80 58 00
        E 0 80 61 00
        E 0 80 62 00
        E 0 80 64 00
        E 120 90 4a 60
        E 0 90 4b 60
        E 0 90 55 60
        E 0 90 58 60
        E 0 90 61 60
        E 0 90 62 60
        E 0 90 64 60
        E 120 80 4a 00
        E 0 80 4b 00
        E 0 80 55 00
        E 0 80 58 00
        E 0 80 61 00
        E 0 80 62 00
        E 0 80 64 00
        E 120 90 55 60
        E 0 90 61 60
        E 120 80 55 00
        E 0 80 61 00
        E 120 90 3e 60
        E 0 90 49 60
        E 0 90 4b 60
        E 0 90 55 60
        E 0 90 57 60
        E 0 90 61 60
        E 0 90 62 60
        E 0 90 63 60
        E 120 80 3e 00
        E 0 80 49 00
        E 0 80 4b 00
        E 240 80 55 00
        E 0 80 57 00
        E 0 80 61 00
        E 0 80 62 00
        E 0 80 63 00
        E 120 90 3e 60
        E 0 90 49 60
        E 0 90 4a 60
        E 0 90 55 60
        E 0 90 56 60
        E 0 90 61 60
        E 0 90 62 60
        E 120 80 3e 00
        E 0 80 49 00
        E 0 80 4a 00
        E 0 80 55 00
        E 0 80 56 00
        E 0 80 61 00
        E 0 80 62 00
        E 120 90 55 60
        E 0 90 57 60
        E 0 90 61 60
        E 0 90 62 60
        E 0 90 63 60
        E 120 80 55 00
        E 0 80 57 00
        E 0 80 61 00
        E 0 80 62 00
        E 0 80 63 00
        E 120 90 3e 60
        E 0 90 49 60
        E 0 90 4b 60
        E 0 90 55 60
        E 0 90 57 60
        E 0 90 61 60
        E 0 90 63 60
        E 120 80 3e 00
        E 0 80 49 00
        E 0 80 4b 00
        E 0 80 55 00
        E 0 80 57 00
        E 0 80 61 00
        E 0 80 63 00
        E 120 90 54 60
        E 0 90 56 60
        E 0 90 60 60
        E 0 90 62 60
        E 120 80 54 00
        E 0 80 56 00
        E 0 80 60 00
        E 0 80 62 00
        E 120 90 3e 60
        E 0 90 48 60
        E 0 90 4a 60
        E 0 90 54 60
        E 0 90 56 60
        E 0 90 60 60
        E 0 90 62 60
        E 120 80 28 00
        E 0 80 3e 00
        E 0 80 48 00
        E 0 80 4a 00
        E 0 80 54 00
        E 0 80 56 00
        E 0 80 60 00
        E 0 80 62 00
        E 120 90 2b 60
        E 0 90 57 60
        E 0 90 63 60
        E 120 80 57 00
        E 0 80 63 00
        E 120 90 3e 60
        E 0 90 49 60
        E 0 90 4a 60
        E 0 90 54 60
        E 0 90 57 60
        E 0 90 60 60
        E 0 90 62 60
        E 0 90 63 60
        E 120 80 3e 00
        E 0 80 49 00
        E 0 80 4a 00
        E 240 80 54 00
        E 0 80 57 00
        E 0 80 60 00
        E 0 80 62 00
        E 0 80 63 00
        E 120 90 49 60
        E 0 90 4a 60
        E 0 90 54 60
        E 0 90 57 60
        E 0 90 60 60
        E 0 90 62 60
        E 0 90 63 60
        E 120 80 49 00
        E 0 80 4a 00
        E 0 80 54 00
        E 0 80 57 00
        E 0 80 60 00
        E 0 80 62 00
        E 0 80 63 00
        E 120 90 54 60
        E 0 90 60 60
        E 120 80 54 00
        E 0 80 60 00
        E 120 90 3d 60
        E 0 90 48 60
        E 0 90 4a 60
        E 0 90 54 60
        E 0 90 56 60
        E 0 90 60 60
        E 0 90 61 60
        E 0 90 63 60
        E 120 80 3d 00
        E 0 80 48 00
        E 0 80 4a 00
        E 0 80 54 00
        E 0 80 56 00
        E 0 80 60 00
        E 0 80 61 00
        E 0 80 63 00
        E 120 90 48 60
        E 0 90 4a 60
        E 0 90 54 60
        E 0 90 56 60
        E 0 90 60 60
        E 0 90 61 60
        E 0 90 63 60
        E 120 80 48 00
        E 0 80 4a 00
        E 0 80 54 00
        E 0 80 56 00
        E 0 80 60 00
        E 0 80 61 00
        E 0 80 63 00
        E 120 90 48 60
        E 0 90 4a 60
        E 0 90 54 60
        E 0 90 56 60
        E 0 90 60 60
        E 0 90 61 60
        E 0 90 63 60
        E 120 80 48 00
        E 0 80 4a 00
        E 0 80 54 00
        E 0 80 56 00
        E 0 80 60 00
        E 0 80 61 00
        E 0 80 63 00
        E 120 90 54 60
        E 0 90 60 60
        E 120 80 54 00
        E 0 80 60 00
        E 120 90 3c 60
        E 0 90 48 60
        E 0 90 49 60
        E 0 90 54 60
        E 0 90 55 60
        E 0 90 60 60
        E 0 90 61 60
        E 0 90 62 60
        E 120 80 3c 00
        E 0 80 48 00
        E 0 80 49 00
        E 240 80 54 00
        E 0 80 55 00
        E 0 80 60 00
        E 0 80 61 00
        E 0 80 62 00
        E 120 90 3c 60
        E 0 90 48 60
        E 0 90 49 60
        E 0 90 54 60
        E 0 90 55 60
        E 0 90 60 60
        E 0 90 61 60
        E 120 80 3c 00
        E 0 80 48 00
        E 0 80 49 00
        E 0 80 54 00
        E 0 80 55 00
        E 0 80 60 00
        E 0 80 61 00
        E 120 90 48 60
        E 0 90 49 60
        E 0 90 54 60
        E 0 90 55 60
        E 0 90 60 60
        E 0 90 61 60
        E 0 90 62 60
        E 120 80 48 00
        E 0 80 49 00
        E 0 80 54 00
        E 0 80 55 00
        E 0 80 60 00
        E 0 80 61 00
        E 0 80 62 00
        E 120 90 3c 60
        E 0 90 48 60
        E 0 90 49 60
        E 0 90 54 60
        E 0 90 55 60
        E 0 90 60 60
        E 0 90 61 60
        E 120 80 3c 00
        E 0 80 48 00
        E 0 80 49 00
        E 0 80 54 00
        E 0 80 55 00
        E 0 80 60 00
        E 0 80 61 00
        E 120 90 48 60
        E 0 90 49 60
        E 0 90 54 60
        E 0 90 55 60
        E 0 90 60 60
        E 0 90 61 60
        E 0 90 62 60
        E 120 80 48 00
        E 0 80 49 00
        E 0 80 54 00
        E 0 80 55 00
        E 0 80 60 00
        E 0 80 61 00
        E 0 80 62 00
        E 120 90 48 60
        E 0 90 49 60
        E 0 90 54 60
        E 0 90 55 60
        E 0 90 60 60
        E 0 90 61 60
        E 120 80 2b 00
        E 0 80 48 00
        E 0 80 49 00
        E 0 80 54 00
        E 0 80 55 00
        E 0 80 60 00
        E 0 80 61 00
        E 120 90 28 60
        E 0 90 55 60
        E 0 90 61 60
        E 120 80 55 00
        E 0 80 61 00
        E 120 90 40 60
        E 0 90 49 60
        E 0 90 4b 60
        E 0 90 55 60
        E 0 90 57 60
        E 0 90 61 60
        E 0 90 63 60
        E 0 90 64 60
        E 120 80 40 00
        E 600 80 49 00
        E 0 80 4b 00
        E 120 80 55 00
        E 0 80 57 00
        E 0 80 61 00
        E 0 80 63 00
        E 0 80 64 00
        E 120 90 40 60
        E 0 90 49 60
        E 0 90 4b 60
        E 0 90 55 60
        E 0 90 57 60
        E 0 90 61 60
        E 0 90 63 60
        E 0 90 64 60
        E 120 80 40 00
        E 0 80 49 00
        E 0 80 4b 00
        E 240 80 55 00
        E 0 80 57 00
        E 0 80 61 00
        E 0 80 63 00
        E 0 80 64 00
        E 120 90 49 60
        E 0 90 4b 60
        E 0 90 55 60
        E 0 90 57 60
        E 0 90 61 60
        E 0 90 63 60
        E 120 80 28 00
        E 0 80 49 00
        E 0 80 4b 00
        E 0 80 55 00
        E 0 80 57 00
        E 0 80 61 00
        E 0 80 63 00
        E 120 90 2b 60
        E 0 90 56 60
        E 0 90 62 60
        E 120 80 56 00
        E 0 80 62 00
        E 120 90 40 60
        E 0 90 4b 60
        E 0 90 4c 60
        E 0 90 57 60
        E 0 90 58 60
        E 0 90 62 60
        E 0 90 63 60
        E 0 90 64 60
        E 120 80 40 00
        E 0 80 4b 00
        E 0 80 4c 00
        E 240 80 57 00
        E 0 80 58 00
        E 0 80 62 00
        E 0 80 63 00
        E 0 80 64 00
        E 120 90 4a 60
        E 0 90 4b 60
        E 0 90 56 60
        E 0 90 57 60
        E 0 90 62 60
        E 0 90 63 60
        E 120 80 4a 00
        E 0 80 4b 00
        E 240 80 56 00
        E 0 80 57 00
        E 0 80 62 00
        E 0 80 63 00
        E 120 90 40 60
        E 0 90 4b 60
        E 0 90 4c 60
        E 0 90 57 60
        E 0 90 58 60
        E 0 90 62 60
        E 0 90 63 60
        E 0 90 64 60
        E 120 80 40 00
        E 0 80 4b 00
        E 0 80 4c 00
        E 0 80 57 00
        E 0 80 58 00
        E 0 80 62 00
        E 0 80 63 00
        E 0 80 64 00
        E 120 90 57 60
        E 0 90 58 60
        E 0 90 62 60
        E 0 90 63 60
        E 0 90 64 60
        E 120 80 57 00
        E 0 80 58 00
        E 0 80 62 00
        E 0 80 63 00
        E 0 80 64 00
        E 120 90 4a 60
        E 0 90 4b 60
        E 0 90 56 60
        E 0 90 57 60
        E 0 90 62 60
        E 0 90 63 60
        E 120 80 4a 00
        E 0 80 4b 00
        E 0 80 56 00
        E 0 80 57 00
        E 0 80 62 00
        E 0 80 63 00
        E 120 90 54 60
        E 0 90 60 60
        E 120 80 54 00
        E 0 80 60 00
        E 120 90 3e 60
        E 0 90 49 60
        E 0 90 4a 60
        E 0 90 54 60
        E 0 90 57 60
        E 0 90 60 60
        E 0 90 62 60
        E 0 90 63 60
        E 120 80 3e 00
        E 0 80 49 00
        E 0 80 4a 00
        E 240 80 54 00
        E 0 80 57 00
        E 0 80 60 00
        E 0 80 62 00
        E 0 80 63 00
        E 120 90 3e 60
        E 0 90 49 60
        E 0 90 4a 60
        E 0 90 54 60
        E 0 90 57 60
        E 0 90 60 60
        E 0 90 62 60
        E 0 90 63 60
        E 120 80 3e 00
        E 0 80 49 00
        E 0 80 4a 00
        E 240 80 54 00
        E 0 80 57 00
        E 0 80 60 00
        E 0 80 62 00
        E 0 80 63 00
        E 120 90 3e 60
        E 0 90 49 60
        E 0 90 4a 60
        E 0 90 54 60
        E 0 90 57 60
        E 0 90 60 60
        E 0 90 62 60
        E 0 90 63 60
        E 120 80 3e 00
        E 0 80 49 00
        E 0 80 4a 00
        E 240 80 54 00
        E 0 80 57 00
        E 0 80 60 00
        E 0 80 62 00
        E 0 80 63 00
        E 120 90 3e 60
        E 0 90 49 60
        E 0 90 4a 60
        E 0 90 54 60
        E 0 90 57 60
        E 0 90 60 60
        E 0 90 62 60
        E 0 90 63 60
        E 120 80 2b 00
        E 0 80 3e 00
        E 0 80 49 00
        E 0 80 4a 00
        E 0 80 54 00
        E 0 80 57 00
        E 0 80 60 00
        E 0 80 62 00
        E 0 80 63 00
        E 120 90 28 60
        E 0 90 55 60
        E 0 90 61 60
        E 120 80 55 00
        E 0 80 61 00
        E 120 90 3e 60
        E 0 90 49 60
        E 0 90 4b 60
        E 0 90 55 60
        E 0 90 57 60
        E 0 90 61 60
        E 0 90 63 60
        E 120 80 3e 00
        E 0 80 49 00
        E 0 80 4b 00
        E 0 80 55 00
        E 0 80 57 00
        E 0 80 61 00
        E 0 80 63 00
        E 120 90 56 60
        E 0 90 58 60
        E 0 90 61 60
        E 0 90 63 60
        E 0 90 64 60
        E 120 80 56 00
        E 0 80 58 00
        E 0 80 61 00
        E 0 80 63 00
        E 0 80 64 00
        E 120 90 3e 60
        E 0 90 49 60
        E 0 90 4b 60
        E 0 90 55 60
        E 0 90 57 60
        E 0 90 61 60
        E 0 90 63 60
        E 120 80 3e 00
        E 0 80 49 00
        E 0 80 4b 00
        E 240 80 55 00
        E 0 80 57 00
        E 0 80 61 00
        E 0 80 63 00
        E 120 90 3e 60
        E 0 90 49 60
        E 0 90 4b 60
        E 0 90 55 60
        E 0 90 57 60
        E 0 90 61 60
        E 0 90 63 60
        E 120 80 3e 00
        E 0 80 49 00
        E 0 80 4b 00
        E 0 80 55 00
        E 0 80 57 00
        E 0 80 61 00
        E 0 80 63 00
        E 120 90 56 60
        E 0 90 58 60
        E 0 90 61 60
        E 0 90 63 60
        E 0 90 64 60
        E 120 80 56 00
        E 0 80 58 00
        E 0 80 61 00
        E 0 80 63 00
        E 0 80 64 00
        E 120 90 3e 60
        E 0 90 49 60
        E 0 90 4b 60
        E 0 90 55 60
        E 0 90 57 60
        E 0 90 61 60
        E 0 90 63 60
        E 120 80 28 00
        E 0 80 3e 00
        E 0 80 49 00
        E 0 80 4b 00
        E 0 80 55 00
        E 0 80 57 00
        E 0 80 61 00
        E 0 80 63 00
        E 120 90 2b 60
        E 0 90 56 60
        E 0 90 62 60
        E 120 80 56 00
        E 0 80 62 00
        E 120 90 3e 60
        E 0 90 49 60
        E 0 90 4a 60
        E 0 90 54 60
        E 0 90 57 60
        E 0 90 60 60
        E 0 90 62 60
        E 0 90 63 60
        E 120 80 3e 00
        E 0 80 49 00
        E 0 80 4a 00
        E 240 80 54 00
        E 0 80 57 00
        E 0 80 60 00
        E 0 80 62 00
        E 0 80 63 00
        E 120 90 48 60
        E 0 90 4a 60
        E 0 90 54 60
        E 0 90 56 60
        E 0 90 60 60
        E 0 90 62 60
        E 120 80 48 00
        E 0 80 4a 00
        E 240 80 54 00
        E 0 80 56 00
        E 0 80 60 00
        E 0 80 62 00
        E 120 90 3e 60
        E 0 90 49 60
        E 0 90 4a 60
        E 0 90 54 60
        E 0 90 57 60
        E 0 90 60 60
        E 0 90 62 60
        E 0 90 63 60
        E 120 80 3e 00
        E 0 80 49 00
        E 0 80 4a 00
        E 240 80 54 00
        E 0 80 57 00
        E 0 80 60 00
        E 0 80 62 00
        E 0 80 63 00
        E 120 90 48 60
        E 0 90 4a 60
        E 0 90 54 60
        E 0 90 56 60
        E 0 90 60 60
        E 0 90 62 60
        E 120 80 2b 00
        E 0 80 48 00
        E 0 80 4a 00
        E 0 80 54 00
        E 0 80 56 00
        E 0 80 60 00
        E 0 80 62 00
        E 120 90 28 60
        E 0 90 54 60
        E 0 90 60 60
        E 0 90 74 60
        E 120 80 54 00
        E 0 80 60 00
        E 120 90 3f 60
        E 0 90 4b 60
        E 0 90 57 60
        E 0 90 63 60
        E 0 9e 54 60
        E 0 9e 60 60
        E 0 9e 61 60
        E 120 80 3f 00
        E 0 80 4b 00
        E 0 80 57 00
        E 0 80 63 00
        E 0 8e 54 00
        E 0 8e 60 00
        E 0 8e 61 00
        E 120 90 54 60
        E 0 90 56 60
        E 0 90 60 60
        E 0 90 61 60
        E 0 90 63 60
        E 120 80 54 00
        E 0 80 56 00
        E 0 80 60 00
        E 0 80 61 00
        E 0 80 63 00
        E 120 90 3c 60
        E 0 90 48 60
        E 0 90 49 60
        E 0 90 54 60
        E 0 90 55 60
        E 0 90 60 60
        E 0 90 61 60
        E 120 80 3c 00
        E 0 80 48 00
        E 0 80 49 00
        E 0 80 54 00
        E 0 80 55 00
        E 0 80 60 00
        E 0 80 61 00
        E 120 90 54 60
        E 0 90 56 60
        E 0 90 60 60
        E 0 90 61 60
        E 0 90 63 60
        E 120 80 54 00
        E 0 80 56 00
        E 0 80 60 00
        E 0 80 61 00
        E 0 80 63 00
        E 120 90 3c 60
        E 0 90 48 60
        E 0 90 49 60
        E 0 90 54 60
        E 0 90 55 60
        E 0 90 60 60
        E 0 90 61 60
        E 120 80 3c 00
        E 0 80 48 00
        E 0 80 49 00
        E 0 80 54 00
        E 0 80 55 00
        E 0 80 60 00
        E 0 80 61 00
        E 120 90 54 60
        E 0 90 56 60
        E 0 90 60 60
        E 0 90 61 60
        E 0 90 63 60
        E 120 80 54 00
        E 0 80 56 00
        E 0 80 60 00
        E 0 80 61 00
        E 0 80 63 00
        E 120 90 48 60
        E 0 90 49 60
        E 0 90 54 60
        E 0 90 55 60
        E 0 90 60 60
        E 0 90 61 60
        E 120 80 48 00
        E 0 80 49 00
        E 0 80 54 00
        E 0 80 55 00
        E 0 80 60 00
        E 0 80 61 00
        E 120 90 55 60
        E 0 90 61 60
        E 120 80 55 00
        E 0 80 61 00
        <X 120 0
          /wFbcGxheV0=
        >
        E 0 80 74 00
        E 0 90 40 60
        E 0 90 4b 60
        E 0 90 4c 60
        E 0 90 56 60
        E 0 90 58 60
        E 0 90 61 60
        E 0 90 63 60
        E 0 90 64 60
        E 120 80 40 00
        E 0 80 4b 00
        E 0 80 4c 00
        E 240 80 56 00
        E 0 80 58 00
        E 0 80 61 00
        E 0 80 63 00
        E 0 80 64 00
        E 120 90 4b 60
        E 0 90 4c 60
        E 0 90 56 60
        E 0 90 58 60
        E 0 90 61 60
        E 0 90 63 60
        E 0 90 64 60
        E 120 80 4b 00
        E 0 80 4c 00
        E 240 80 56 00
        E 0 80 58 00
        E 0 80 61 00
        E 0 80 63 00
        E 0 80 64 00
        E 120 90 3e 60
        E 0 90 49 60
        E 0 90 4b 60
        E 0 90 55 60
        E 0 90 57 60
        E 0 90 61 60
        E 0 90 63 60
        E 120 80 3e 00
        E 0 80 49 00
        E 0 80 4b 00
        E 240 80 55 00
        E 0 80 57 00
        E 0 80 61 00
        E 0 80 63 00
        E 120 90 3e 60
        E 0 90 49 60
        E 0 90 4b 60
        E 0 90 55 60
        E 0 90 57 60
        E 0 90 61 60
        E 0 90 63 60
        E 120 80 3e 00
        E 0 80 49 00
        E 0 80 4b 00
        E 0 80 55 00
        E 0 80 57 00
        E 0 80 61 00
        E 0 80 63 00
        E 120 90 56 60
        E 0 90 58 60
        E 0 90 61 60
        E 0 90 63 60
        E 0 90 64 60
        E 120 80 56 00
        E 0 80 58 00
        E 0 80 61 00
        E 0 80 63 00
        E 0 80 64 00
        E 120 90 3e 60
        E 0 90 49 60
        E 0 90 4b 60
        E 0 90 55 60
        E 0 90 57 60
        E 0 90 61 60
        E 0 90 63 60
        E 120 80 3e 00
        E 0 80 49 00
        E 0 80 4b 00
        E 0 80 55 00
        E 0 80 57 00
        E 0 80 61 00
        E 0 80 63 00
        E 120 90 56 60
        E 0 90 58 60
        E 0 90 61 60
        E 0 90 63 60
        E 0 90 64 60
        E 120 80 56 00
        E 0 80 58 00
        E 0 80 61 00
        E 0 80 63 00
        E 0 80 64 00
        E 120 90 49 60
        E 0 90 4b 60
        E 0 90 55 60
        E 0 90 57 60
        E 0 90 61 60
        E 0 90 63 60
        E 120 80 49 00
        E 0 80 4b 00
        E 240 80 55 00
        E 0 80 57 00
        E 0 80 61 00
        E 0 80 63 00
        E 120 90 40 60
        E 0 90 4b 60
        E 0 90 4c 60
        E 0 90 56 60
        E 0 90 58 60
        E 0 90 61 60
        E 0 90 63 60
        E 0 90 64 60
        E 120 80 40 00
        E 0 80 4b 00
        E 0 80 4c 00
        E 0 80 56 00
        E 0 80 58 00
        E 0 80 61 00
        E 0 80 63 00
        E 0 80 64 00
        E 120 90 4b 60
        E 0 90 4c 60
        E 0 90 56 60
        E 0 90 58 60
        E 0 90 61 60
        E 0 90 63 60
        E 0 90 64 60
        E 120 80 4b 00
        E 0 80 4c 00
        E 0 80 56 00
        E 0 80 58 00
        E 0 80 61 00
        E 0 80 63 00
        E 0 80 64 00
        E 120 90 40 60
        E 0 90 4b 60
        E 0 90 4c 60
        E 0 90 56 60
        E 0 90 58 60
        E 0 90 61 60
        E 0 90 63 60
        E 0 90 64 60
        E 120 80 28 00
        E 0 80 40 00
        E 0 80 4b 00
        E 0 80 4c 00
        E 0 80 56 00
        E 0 80 58 00
        E 0 80 61 00
        E 0 80 63 00
        E 0 80 64 00
        E 120 90 2b 60
        E 0 90 56 60
        E 0 90 62 60
        E 120 80 56 00
        E 0 80 62 00
        E 120 90 40 60
        E 0 90 4b 60
        E 0 90 4c 60
        E 0 90 57 60
        E 0 90 58 60
        E 0 90 62 60
        E 0 90 63 60
        E 0 90 64 60
        E 120 80 40 00
        E 0 80 4b 00
        E 0 80 4c 00
        E 240 80 57 00
        E 0 80 58 00
        E 0 80 62 00
        E 0 80 63 00
        E 0 80 64 00
        E 120 90 4a 60
        E 0 90 4b 60
        E 0 90 56 60
        E 0 90 57 60
        E 0 90 62 60
        E 0 90 63 60
        E 120 80 4a 00
        E 0 80 4b 00
        E 240 80 56 00
        E 0 80 57 00
        E 0 80 62 00
        E 0 80 63 00
        E 120 90 3f 60
        E 0 90 4a 60
        E 0 90 4b 60
        E 0 90 56 60
        E 0 90 57 60
        E 0 90 62 60
        E 0 90 63 60
        E 120 80 3f 00
        E 0 80 4a 00
        E 0 80 4b 00
        E 240 80 56 00
        E 0 80 57 00
        E 0 80 62 00
        E 0 80 63 00
        E 120 90 3f 60
        E 0 90 4a 60
        E 0 90 4b 60
        E 0 90 56 60
        E 0 90 57 60
        E 0 90 62 60
        E 0 90 63 60
        E 120 80 3f 00
        E 0 80 4a 00
        E 0 80 4b 00
        E 0 80 56 00
        E 0 80 57 00
        E 0 80 62 00
        E 0 80 63 00
        E 120 90 4a 60
        E 0 90 4b 60
        E 0 90 56 60
        E 0 90 57 60
        E 0 90 62 60
        E 0 90 63 60
        E 120 80 4a 00
        E 0 80 4b 00
        E 0 80 56 00
        E 0 80 57 00
        E 0 80 62 00
        E 0 80 63 00
        E 120 90 3f 60
        E 0 90 4a 60
        E 0 90 4b 60
        E 0 90 56 60
        E 0 90 57 60
        E 0 90 62 60
        E 0 90 63 60
        E 120 80 3f 00
        E 0 80 4a 00
        E 0 80 4b 00
        E 0 80 56 00
        E 0 80 57 00
        E 0 80 62 00
        E 0 80 63 00
        E 120 90 57 60
        E 0 90 58 60
        E 0 90 62 60
        E 0 90 63 60
        E 0 90 64 60
        E 120 80 57 00
        E 0 80 58 00
        E 0 80 62 00
        E 0 80 63 00
        E 0 80 64 00
        E 120 90 3f 60
        E 0 90 4a 60
        E 0 90 4b 60
        E 0 90 56 60
        E 0 90 57 60
        E 0 90 62 60
        E 0 90 63 60
        E 120 80 3f 00
        E 0 80 4a 00
        E 0 80 4b 00
        E 0 80 56 00
        E 0 80 57 00
        E 0 80 62 00
        E 0 80 63 00
        E 120 90 57 60
        E 0 90 58 60
        E 0 90 62 60
        E 0 90 63 60
        E 0 90 64 60
        E 120 80 57 00
        E 0 80 58 00
        E 0 80 62 00
        E 0 80 63 00
        E 0 80 64 00
        E 120 90 3f 60
        E 0 90 4a 60
        E 0 90 4b 60
        E 0 90 56 60
        E 0 90 57 60
        E 0 90 62 60
        E 0 90 63 60
        E 120 80 3f 00
        E 0 80 4a 00
        E 0 80 4b 00
        E 0 80 56 00
        E 0 80 57 00
        E 0 80 62 00
        E 0 80 63 00
        E 120 90 57 60
        E 0 90 58 60
        E 0 90 62 60
        E 0 90 63 60
        E 0 90 64 60
        E 120 80 57 00
        E 0 80 58 00
        E 0 80 62 00
        E 0 80 63 00
        E 0 80 64 00
        E 120 90 4a 60
        E 0 90 4b 60
        E 0 90 56 60
        E 0 90 57 60
        E 0 90 62 60
        E 0 90 63 60
        E 120 80 2b 00
        E 0 80 4a 00
        E 0 80 4b 00
        E 0 80 56 00
        E 0 80 57 00
        E 0 80 62 00
        E 0 80 63 00
        E 120 90 28 60
        E 0 90 55 60
        E 0 90 61 60
        E 120 80 55 00
        E 0 80 61 00
        E 120 90 40 60
        E 0 90 4b 60
        E 0 90 4c 60
        E 0 90 56 60
        E 0 90 58 60
        E 0 90 61 60
        E 0 90 63 60
        E 0 90 64 60
        E 120 80 40 00
        E 0 80 4b 00
        E 0 80 4c 00
        E 240 80 56 00
        E 0 80 58 00
        E 0 80 61 00
        E 0 80 63 00
        E 0 80 64 00
        E 120 90 4b 60
        E 0 90 4c 60
        E 0 90 56 60
        E 0 90 58 60
        E 0 90 61 60
        E 0 90 63 60
        E 0 90 64 60
        E 120 80 4b 00
        E 0 80 4c 00
        E 240 80 56 00
        E 0 80 58 00
        E 0 80 61 00
        E 0 80 63 00
        E 0 80 64 00
        E 120 90 3e 60
        E 0 90 49 60
        E 0 90 4b 60
        E 0 90 55 60
        E 0 90 57 60
        E 0 90 61 60
        E 0 90 63 60
        E 120 80 3e 00
        E 0 80 49 00
        E 0 80 4b 00
        E 240 80 55 00
        E 0 80 57 00
        E 0 80 61 00
        E 0 80 63 00
        E 120 90 3e 60
        E 0 90 49 60
        E 0 90 4b 60
        E 0 90 55 60
        E 0 90 57 60
        E 0 90 61 60
        E 0 90 63 60
        E 120 80 3e 00
        E 0 80 49 00
        E 0 80 4b 00
        E 0 80 55 00
        E 0 80 57 00
        E 0 80 61 00
        E 0 80 63 00
        E 120 90 56 60
        E 0 90 58 60
        E 0 90 61 60
        E 0 90 63 60
        E 0 90 64 60
        E 120 80 56 00
        E 0 80 58 00
        E 0 80 61 00
        E 0 80 63 00
        E 0 80 64 00
        E 120 90 3e 60
        E 0 90 49 60
        E 0 90 4b 60
        E 0 90 55 60
        E 0 90 57 60
        E 0 90 61 60
        E 0 90 63 60
        E 120 80 3e 00
        E 0 80 49 00
        E 0 80 4b 00
        E 0 80 55 00
        E 0 80 57 00
        E 0 80 61 00
        E 0 80 63 00
        E 120 90 56 60
        E 0 90 58 60
        E 0 90 61 60
        E 0 90 63 60
        E 0 90 64 60
        E 120 80 56 00
        E 0 80 58 00
        E 0 80 61 00
        E 0 80 63 00
        E 0 80 64 00
        E 120 90 49 60
        E 0 90 4b 60
        E 0 90 55 60
        E 0 90 57 60
        E 0 90 61 60
        E 0 90 63 60
        E 120 80 49 00
        E 0 80 4b 00
        E 240 80 55 00
        E 0 80 57 00
        E 0 80 61 00
        E 0 80 63 00
        E 120 90 40 60
        E 0 90 4b 60
        E 0 90 4c 60
        E 0 90 56 60
        E 0 90 58 60
        E 0 90 61 60
        E 0 90 63 60
        E 0 90 64 60
        E 120 80 40 00
        E 0 80 4b 00
        E 0 80 4c 00
        E 0 80 56 00
        E 0 80 58 00
        E 0 80 61 00
        E 0 80 63 00
        E 0 80 64 00
        E 120 90 56 60
        E 0 90 58 60
        E 0 90 61 60
        E 0 90 63 60
        E 0 90 64 60
        E 120 80 56 00
        E 0 80 58 00
        E 0 80 61 00
        E 0 80 63 00
        E 0 80 64 00
        E 120 90 49 60
        E 0 90 4b 60
        E 0 90 55 60
        E 0 90 57 60
        E 0 90 61 60
        E 0 90 63 60
        E 120 80 49 00
        E 0 80 4b 00
        E 0 80 55 00
        E 0 80 57 00
        E 0 80 61 00
        E 0 80 63 00
        E 240 80 28 00
        E 120 90 2b 60
        E 0 90 40 60
        E 0 90 4b 60
        E 0 90 4c 60
        E 0 90 57 60
        E 0 90 58 60
        E 0 90 62 60
        E 0 90 63 60
        E 0 90 64 60
        E 480 80 40 00
        E 0 80 4b 00
        E 0 80 4c 00
        E 360 80 57 00
        E 0 80 58 00
        E 0 80 62 00
        E 0 80 63 00
        E 0 80 64 00
        E 120 90 40 60
        E 0 90 4b 60
        E 0 90 4c 60
        E 0 90 57 60
        E 0 90 58 60
        E 0 90 62 60
        E 0 90 63 60
        E 0 90 64 60
        E 1920 80 40 00
        E 0 80 4b 00
        E 0 80 4c 00
        E 360 80 2b 00
        E 0 80 57 00
        E 0 80 58 00
        E 0 80 62 00
        E 0 80 63 00
        E 0 80 64 00
        E 120 90 28 60
        E 0 90 49 60
        E 0 90 55 60
        E 0 90 61 60
        E 120 80 49 00
        E 0 80 55 00
        E 0 80 61 00
        E 120 90 55 60
        E 0 90 61 60
        E 120 80 55 00
        E 0 80 61 00
        E 120 90 3f 60
        E 0 90 4a 60
        E 0 90 4b 60
        E 0 90 55 60
        E 0 90 58 60
        E 0 90 61 60
        E 0 90 62 60
        E 0 90 64 60
        E 480 80 3f 00
        E 0 80 4a 00
        E 0 80 4b 00
        E 360 80 55 00
        E 0 80 58 00
        E 0 80 61 00
        E 0 80 62 00
        E 0 80 64 00
        E 120 90 3f 60
        E 0 90 4a 60
        E 0 90 4b 60
        E 0 90 55 60
        E 0 90 58 60
        E 0 90 61 60
        E 0 90 62 60
        E 0 90 64 60
        E 480 80 3f 00
        E 0 80 4a 00
        E 0 80 4b 00
        E 120 80 55 00
        E 0 80 58 00
        E 0 80 61 00
        E 0 80 62 00
        E 0 80 64 00
        E 120 90 55 60
        E 0 90 56 60
        E 0 90 61 60
        E 0 90 62 60
        E 120 80 55 00
        E 0 80 56 00
        E 0 80 61 00
        E 0 80 62 00
        E 120 90 3f 60
        E 0 90 4a 60
        E 0 90 4b 60
        E 0 90 55 60
        E 0 90 58 60
        E 0 90 61 60
        E 0 90 62 60
        E 0 90 64 60
        E 120 80 3f 00
        E 0 80 4a 00
        E 0 80 4b 00
        E 0 80 55 00
        E 0 80 58 00
        E 0 80 61 00
        E 0 80 62 00
        E 0 80 64 00
        E 120 90 55 60
        E 0 90 56 60
        E 0 90 61 60
        E 0 90 62 60
        E 120 80 55 00
        E 0 80 56 00
        E 0 80 61 00
        E 0 80 62 00
        E 120 90 3f 60
        E 0 90 4a 60
        E 0 90 4b 60
        E 0 90 55 60
        E 0 90 58 60
        E 0 90 61 60
        E 0 90 62 60
        E 0 90 64 60
        E 120 80 3f 00
        E 0 80 4a 00
        E 0 80 4b 00
        E 0 80 55 00
        E 0 80 58 00
        E 0 80 61 00
        E 0 80 62 00
        E 0 80 64 00
        E 120 90 55 60
        E 0 90 56 60
        E 0 90 61 60
        E 0 90 62 60
        E 120 80 55 00
        E 0 80 56 00
        E 0 80 61 00
        E 0 80 62 00
        E 120 90 3f 60
        E 0 90 4a 60
        E 0 90 4b 60
        E 0 90 55 60
        E 0 90 58 60
        E 0 90 61 60
        E 0 90 62 60
        E 0 90 64 60
        E 120 80 3f 00
        E 0 80 4a 00
        E 0 80 4b 00
        E 0 80 55 00
        E 0 80 58 00
        E 0 80 61 00
        E 0 80 62 00
        E 0 80 64 00
        E 120 90 55 60
        E 0 90 56 60
        E 0 90 61 60
        E 0 90 62 60
        E 120 80 55 00
        E 0 80 56 00
        E 0 80 61 00
        E 0 80 62 00
        E 120 90 4a 60
        E 0 90 4b 60
        E 0 90 55 60
        E 0 90 58 60
        E 0 90 61 60
        E 0 90 62 60
        E 0 90 64 60
        E 120 80 28 00
        E 0 80 4a 00
        E 0 80 4b 00
        E 0 80 55 00
        E 0 80 58 00
        E 0 80 61 00
        E 0 80 62 00
        E 0 80 64 00
        E 120 90 2b 60
        E 0 90 54 60
        E 0 90 60 60
        E 120 80 54 00
        E 0 80 60 00
        E 120 90 3e 60
        E 0 90 49 60
        E 0 90 4a 60
        E 0 90 54 60
        E 0 90 57 60
        E 0 90 60 60
        E 0 90 62 60
        E 0 90 63 60
        E 120 80 3e 00
        E 0 80 49 00
        E 0 80 4a 00
        E 240 80 54 00
        E 0 80 57 00
        E 0 80 60 00
        E 0 80 62 00
        E 0 80 63 00
        E 120 90 49 60
        E 0 90 4a 60
        E 0 90 54 60
        E 0 90 57 60
        E 0 90 60 60
        E 0 90 62 60
        E 0 90 63 60
        E 120 80 49 00
        E 0 80 4a 00
        E 0 80 54 00
        E 0 80 57 00
        E 0 80 60 00
        E 0 80 62 00
        E 0 80 63 00
        E 120 90 54 60
        E 0 90 60 60
        E 120 80 54 00
        E 0 80 60 00
        E 120 90 3d 60
        E 0 90 48 60
        E 0 90 4a 60
        E 0 90 54 60
        E 0 90 56 60
        E 0 90 60 60
        E 0 90 61 60
        E 0 90 63 60
        E 0 90 74 60
        E 120 80 3d 00
        E 0 80 48 00
        E 0 80 4a 00
        E 0 80 54 00
        E 0 80 56 00
        E 0 80 60 00
        E 0 80 61 00
        E 0 80 63 00
        E 120 90 48 60
        E 0 90 4a 60
        E 0 90 54 60
        E 0 90 56 60
        E 0 90 60 60
        E 0 90 61 60
        E 0 90 63 60
        E 120 80 48 00
        E 0 80 4a 00
        E 0 80 54 00
        E 0 80 56 00
        E 0 80 60 00
        E 0 80 61 00
        E 0 80 63 00
        E 120 90 48 60
        E 0 90 4a 60
        E 0 90 54 60
        E 0 90 56 60
        E 0 90 60 60
        E 0 90 61 60
        E 0 90 63 60
        E 120 80 48 00
        E 0 80 4a 00
        E 0 80 54 00
        E 0 80 56 00
        E 0 80 60 00
        E 0 80 61 00
        E 0 80 63 00
        E 120 90 54 60
        E 0 90 60 60
        E 120 80 54 00
        E 0 80 60 00
        E 120 90 3c 60
        E 0 90 48 60
        E 0 90 49 60
        E 0 90 54 60
        E 0 90 55 60
        E 0 90 60 60
        E 0 90 61 60
        E 0 90 62 60
        E 120 80 3c 00
        E 0 80 48 00
        E 0 80 49 00
        E 240 80 54 00
        E 0 80 55 00
        E 0 80 60 00
        E 0 80 61 00
        E 0 80 62 00
        E 120 90 3c 60
        E 0 90 48 60
        E 0 90 49 60
        E 0 90 54 60
        E 0 90 55 60
        E 0 90 60 60
        E 0 90 61 60
        E 120 80 3c 00
        E 0 80 48 00
        E 0 80 49 00
        E 0 80 54 00
        E 0 80 55 00
        E 0 80 60 00
        E 0 80 61 00
        E 120 90 48 60
        E 0 90 49 60
        E 0 90 54 60
        E 0 90 55 60
        E 0 90 60 60
        E 0 90 61 60
        E 0 90 62 60
        E 120 80 48 00
        E 0 80 49 00
        E 0 80 54 00
        E 0 80 55 00
        E 0 80 60 00
        E 0 80 61 00
        E 0 80 62 00
        E 120 90 3c 60
        E 0 90 48 60
        E 0 90 49 60
        E 0 90 54 60
        E 0 90 55 60
        E 0 90 60 60
        E 0 90 61 60
        E 120 80 3c 00
        E 0 80 48 00
        E 0 80 49 00
        E 240 80 54 00
        E 0 80 55 00
        E 0 80 60 00
        E 0 80 61 00
        E 120 90 48 60
        E 0 90 49 60
        E 0 90 54 60
        E 0 90 55 60
        E 0 90 60 60
        E 0 90 61 60
        E 120 80 2b 00
        E 0 80 48 00
        E 0 80 49 00
        E 0 80 54 00
        E 0 80 55 00
        E 0 80 60 00
        E 0 80 61 00
        E 120 90 28 60
        E 0 90 55 60
        E 0 90 61 60
        E 120 80 55 00
        E 0 80 61 00
        E 120 90 40 60
        E 0 90 4b 60
        E 0 90 4c 60
        E 0 90 56 60
        E 0 90 58 60
        E 0 90 61 60
        E 0 90 63 60
        E 0 90 64 60
        E 120 80 74 00
        E 0 80 40 00
        E 0 80 4b 00
        E 0 80 4c 00
        E 240 80 56 00
        E 0 80 58 00
        E 0 80 61 00
        E 0 80 63 00
        E 0 80 64 00
        E 120 90 4b 60
        E 0 90 4c 60
        E 0 90 56 60
        E 0 90 58 60
        E 0 90 61 60
        E 0 90 63 60
        E 0 90 64 60
        E 120 80 4b 00
        E 0 80 4c 00
        E 0 80 56 00
        E 0 80 58 00
        E 0 80 61 00
        E 0 80 63 00
        E 0 80 64 00
        E 120 90 55 60
        E 0 90 61 60
        E 120 80 55 00
        E 0 80 61 00
        E 120 90 3f 60
        E 0 90 4a 60
        E 0 90 4b 60
        E 0 90 55 60
        E 0 90 58 60
        E 0 90 61 60
        E 0 90 62 60
        E 0 90 64 60
        E 120 80 3f 00
        E 0 80 4a 00
        E 0 80 4b 00
        E 240 80 55 00
        E 0 80 58 00
        E 0 80 61 00
        E 0 80 62 00
        E 0 80 64 00
        E 120 90 4a 60
        E 0 90 4b 60
        E 0 90 55 60
        E 0 90 58 60
        E 0 90 61 60
        E 0 90 62 60
        E 0 90 64 60
        E 120 80 4a 00
        E 0 80 4b 00
        E 0 80 55 00
        E 0 80 58 00
        E 0 80 61 00
        E 0 80 62 00
        E 0 80 64 00
        E 120 90 55 60
        E 0 90 61 60
        E 120 80 55 00
        E 0 80 61 00
        E 120 90 3e 60
        E 0 90 49 60
        E 0 90 4b 60
        E 0 90 55 60
        E 0 90 57 60
        E 0 90 61 60
        E 0 90 62 60
        E 0 90 63 60
        E 120 80 3e 00
        E 0 80 49 00
        E 0 80 4b 00
        E 240 80 55 00
        E 0 80 57 00
        E 0 80 61 00
        E 0 80 62 00
        E 0 80 63 00
        E 120 90 3e 60
        E 0 90 49 60
        E 0 90 4a 60
        E 0 90 55 60
        E 0 90 56 60
        E 0 90 61 60
        E 0 90 62 60
        E 120 80 3e 00
        E 0 80 49 00
        E 0 80 4a 00
        E 0 80 55 00
        E 0 80 56 00
        E 0 80 61 00
        E 0 80 62 00
        E 120 90 55 60
        E 0 90 57 60
        E 0 90 61 60
        E 0 90 62 60
        E 0 90 63 60
        E 120 80 55 00
        E 0 80 57 00
        E 0 80 61 00
        E 0 80 62 00
        E 0 80 63 00
        E 120 90 3e 60
        E 0 90 49 60
        E 0 90 4a 60
        E 0 90 55 60
        E 0 90 56 60
        E 0 90 61 60
        E 0 90 62 60
        E 120 80 3e 00
        E 0 80 49 00
        E 0 80 4a 00
        E 0 80 55 00
        E 0 80 56 00
        E 0 80 61 00
        E 0 80 62 00
        E 120 90 49 60
        E 0 90 4a 60
        E 0 90 55 60
        E 0 90 56 60
        E 0 90 61 60
        E 0 90 62 60
        E 120 80 49 00
        E 0 80 4a 00
        E 0 80 55 00
        E 0 80 56 00
        E 0 80 61 00
        E 0 80 62 00
        E 120 90 3e 60
        E 0 90 49 60
        E 0 90 4a 60
        E 0 90 55 60
        E 0 90 56 60
        E 0 90 61 60
        E 0 90 62 60
        E 120 80 28 00
        E 0 80 3e 00
        E 0 80 49 00
        E 0 80 4a 00
        E 0 80 55 00
        E 0 80 56 00
        E 0 80 61 00
        E 0 80 62 00
        E 120 90 2b 60
        E 0 90 54 60
        E 0 90 60 60
        E 120 80 2b 00
        E 0 80 54 00
        E 0 80 60 00
        E 120 90 2b 60
        E 0 90 3e 60
        E 0 90 49 60
        E 0 90 4a 60
        E 0 90 54 60
        E 0 90 57 60
        E 0 90 60 60
        E 0 90 62 60
        E 0 90 63 60
        E 120 80 3e 00
        E 0 80 49 00
        E 0 80 4a 00
        E 240 80 54 00
        E 0 80 57 00
        E 0 80 60 00
        E 0 80 62 00
        E 0 80 63 00
        E 120 90 49 60
        E 0 90 4a 60
        E 0 90 54 60
        E 0 90 57 60
        E 0 90 60 60
        E 0 90 62 60
        E 0 90 63 60
        E 120 80 49 00
        E 0 80 4a 00
        E 0 80 54 00
        E 0 80 57 00
        E 0 80 60 00
        E 0 80 62 00
        E 0 80 63 00
        E 120 90 54 60
        E 0 90 60 60
        E 120 80 54 00
        E 0 80 60 00
        E 120 90 3d 60
        E 0 90 48 60
        E 0 90 4a 60
        E 0 90 54 60
        E 0 90 56 60
        E 0 90 60 60
        E 0 90 61 60
        E 0 90 63 60
        E 120 80 3d 00
        E 0 80 48 00
        E 0 80 4a 00
        E 240 80 54 00
        E 0 80 56 00
        E 0 80 60 00
        E 0 80 61 00
        E 0 80 63 00
        E 120 90 48 60
        E 0 90 4a 60
        E 0 90 54 60
        E 0 90 56 60
        E 0 90 60 60
        E 0 90 61 60
        E 0 90 63 60
        E 120 80 48 00
        E 0 80 4a 00
        E 0 80 54 00
        E 0 80 56 00
        E 0 80 60 00
        E 0 80 61 00
        E 0 80 63 00
        E 120 90 54 60
        E 0 90 60 60
        E 120 80 54 00
        E 0 80 60 00
        E 120 90 3c 60
        E 0 90 48 60
        E 0 90 49 60
        E 0 90 54 60
        E 0 90 55 60
        E 0 90 60 60
        E 0 90 61 60
        E 0 90 62 60
        E 120 80 3c 00
        E 0 80 48 00
        E 0 80 49 00
        E 240 80 54 00
        E 0 80 55 00
        E 0 80 60 00
        E 0 80 61 00
        E 0 80 62 00
        E 120 90 3c 60
        E 0 90 48 60
        E 0 90 49 60
        E 0 90 54 60
        E 0 90 55 60
        E 0 90 60 60
        E 0 90 61 60
        E 120 80 3c 00
        E 0 80 48 00
        E 0 80 49 00
        E 0 80 54 00
        E 0 80 55 00
        E 0 80 60 00
        E 0 80 61 00
        E 120 90 48 60
        E 0 90 49 60
        E 0 90 54 60
        E 0 90 55 60
        E 0 90 60 60
        E 0 90 61 60
        E 0 90 62 60
        E 120 80 48 00
        E 0 80 49 00
        E 0 80 54 00
        E 0 80 55 00
        E 0 80 60 00
        E 0 80 61 00
        E 0 80 62 00
        E 120 90 3c 60
        E 0 90 48 60
        E 0 90 49 60
        E 0 90 54 60
        E 0 90 55 60
        E 0 90 60 60
        E 0 90 61 60
        E 120 80 3c 00
        E 0 80 48 00
        E 0 80 49 00
        E 240 80 54 00
        E 0 80 55 00
        E 0 80 60 00
        E 0 80 61 00
        E 120 90 48 60
        E 0 90 49 60
        E 0 90 54 60
        E 0 90 55 60
        E 0 90 60 60
        E 0 90 61 60
        E 120 80 2b 00
        E 0 80 48 00
        E 0 80 49 00
        E 0 80 54 00
        E 0 80 55 00
        E 0 80 60 00
        E 0 80 61 00
        E 120 90 28 60
        E 0 90 55 60
        E 0 90 61 60
        E 120 80 55 00
        E 0 80 61 00
        E 120 90 40 60
        E 0 90 4b 60
        E 0 90 4c 60
        E 0 90 56 60
        E 0 90 58 60
        E 0 90 61 60
        E 0 90 63 60
        E 0 90 64 60
        E 120 80 40 00
        E 0 80 4b 00
        E 0 80 4c 00
        E 240 80 56 00
        E 0 80 58 00
        E 0 80 61 00
        E 0 80 63 00
        E 0 80 64 00
        E 120 90 4b 60
        E 0 90 4c 60
        E 0 90 56 60
        E 0 90 58 60
        E 0 90 61 60
        E 0 90 63 60
        E 0 90 64 60
        E 120 80 4b 00
        E 0 80 4c 00
        E 0 80 56 00
        E 0 80 58 00
        E 0 80 61 00
        E 0 80 63 00
        E 0 80 64 00
        E 120 90 55 60
        E 0 90 61 60
        E 120 80 55 00
        E 0 80 61 00
        E 120 90 3f 60
        E 0 90 4a 60
        E 0 90 4b 60
        E 0 90 55 60
        E 0 90 58 60
        E 0 90 61 60
        E 0 90 62 60
        E 0 90 64 60
        E 120 80 3f 00
        E 0 80 4a 00
        E 0 80 4b 00
        E 240 80 55 00
        E 0 80 58 00
        E 0 80 61 00
        E 0 80 62 00
        E 0 80 64 00
        E 120 90 4a 60
        E 0 90 4b 60
        E 0 90 55 60
        E 0 90 58 60
        E 0 90 61 60
        E 0 90 62 60
        E 0 90 64 60
        E 120 80 4a 00
        E 0 80 4b 00
        E 0 80 55 00
        E 0 80 58 00
        E 0 80 61 00
        E 0 80 62 00
        E 0 80 64 00
        E 120 90 55 60
        E 0 90 61 60
        E 120 80 55 00
        E 0 80 61 00
        E 120 90 3e 60
        E 0 90 49 60
        E 0 90 4b 60
        E 0 90 55 60
        E 0 90 57 60
        E 0 90 61 60
        E 0 90 62 60
        E 0 90 63 60
        E 120 80 3e 00
        E 0 80 49 00
        E 0 80 4b 00
        E 240 80 55 00
        E 0 80 57 00
        E 0 80 61 00
        E 0 80 62 00
        E 0 80 63 00
        E 120 90 3e 60
        E 0 90 49 60
        E 0 90 4a 60
        E 0 90 55 60
        E 0 90 56 60
        E 0 90 61 60
        E 0 90 62 60
        E 120 80 3e 00
        E 0 80 49 00
        E 0 80 4a 00
        E 0 80 55 00
        E 0 80 56 00
        E 0 80 61 00
        E 0 80 62 00
        E 120 90 55 60
        E 0 90 57 60
        E 0 90 61 60
        E 0 90 62 60
        E 0 90 63 60
        E 120 80 55 00
        E 0 80 57 00
        E 0 80 61 00
        E 0 80 62 00
        E 0 80 63 00
        E 120 90 3e 60
        E 0 90 49 60
        E 0 90 4a 60
        E 0 90 55 60
        E 0 90 56 60
        E 0 90 61 60
        E 0 90 62 60
        E 120 80 3e 00
        E 0 80 49 00
        E 0 80 4a 00
        E 0 80 55 00
        E 0 80 56 00
        E 0 80 61 00
        E 0 80 62 00
        E 120 90 55 60
        E 0 90 57 60
        E 0 90 61 60
        E 0 90 62 60
        E 0 90 63 60
        E 120 80 55 00
        E 0 80 57 00
        E 0 80 61 00
        E 0 80 62 00
        E 0 80 63 00
        E 120 90 3e 60
        E 0 90 49 60
        E 0 90 4a 60
        E 0 90 55 60
        E 0 90 56 60
        E 0 90 61 60
        E 0 90 62 60
        E 120 80 28 00
        E 0 80 3e 00
        E 0 80 49 00
        E 0 80 4a 00
        E 0 80 55 00
        E 0 80 56 00
        E 0 80 61 00
        E 0 80 62 00
        E 120 90 2b 60
        E 0 90 54 60
        E 0 90 60 60
        E 120 80 2b 00
        E 0 80 54 00
        E 0 80 60 00
        E 120 90 2b 60
        E 0 90 3e 60
        E 0 90 49 60
        E 0 90 4a 60
        E 0 90 54 60
        E 0 90 57 60
        E 0 90 60 60
        E 0 90 62 60
        E 0 90 63 60
        E 120 80 3e 00
        E 0 80 49 00
        E 0 80 4a 00
        E 240 80 54 00
        E 0 80 57 00
        E 0 80 60 00
        E 0 80 62 00
        E 0 80 63 00
        E 120 90 49 60
        E 0 90 4a 60
        E 0 90 54 60
        E 0 90 57 60
        E 0 90 60 60
        E 0 90 62 60
        E 0 90 63 60
        E 120 80 49 00
        E 0 80 4a 00
        E 0 80 54 00
        E 0 80 57 00
        E 0 80 60 00
        E 0 80 62 00
        E 0 80 63 00
        E 120 90 54 60
        E 0 90 60 60
        E 120 80 54 00
        E 0 80 60 00
        E 120 90 3d 60
        E 0 90 48 60
        E 0 90 4a 60
        E 0 90 54 60
        E 0 90 56 60
        E 0 90 60 60
        E 0 90 61 60
        E 0 90 63 60
        E 120 80 3d 00
        E 0 80 48 00
        E 0 80 4a 00
        E 240 80 54 00
        E 0 80 56 00
        E 0 80 60 00
        E 0 80 61 00
        E 0 80 63 00
        E 120 90 48 60
        E 0 90 4a 60
        E 0 90 54 60
        E 0 90 56 60
        E 0 90 60 60
        E 0 90 61 60
        E 0 90 63 60
        E 120 80 48 00
        E 0 80 4a 00
        E 0 80 54 00
        E 0 80 56 00
        E 0 80 60 00
        E 0 80 61 00
        E 0 80 63 00
        E 120 90 54 60
        E 0 90 60 60
        E 120 80 54 00
        E 0 80 60 00
        E 120 90 3c 60
        E 0 90 48 60
        E 0 90 49 60
        E 0 90 54 60
        E 0 90 55 60
        E 0 90 60 60
        E 0 90 61 60
        E 0 90 62 60
        E 120 80 3c 00
        E 0 80 48 00
        E 0 80 49 00
        E 240 80 54 00
        E 0 80 55 00
        E 0 80 60 00
        E 0 80 61 00
        E 0 80 62 00
        E 120 90 3c 60
        E 0 90 48 60
        E 0 90 49 60
        E 0 90 54 60
        E 0 90 55 60
        E 0 90 60 60
        E 0 90 61 60
        E 120 80 3c 00
        E 0 80 48 00
        E 0 80 49 00
        E 0 80 54 00
        E 0 80 55 00
        E 0 80 60 00
        E 0 80 61 00
        E 120 90 48 60
        E 0 90 49 60
        E 0 90 54 60
        E 0 90 55 60
        E 0 90 60 60
        E 0 90 61 60
        E 0 90 62 60
        E 120 80 48 00
        E 0 80 49 00
        E 0 80 54 00
        E 0 80 55 00
        E 0 80 60 00
        E 0 80 61 00
        E 0 80 62 00
        E 120 90 3c 60
        E 0 90 48 60
        E 0 90 49 60
        E 0 90 54 60
        E 0 90 55 60
        E 0 90 60 60
        E 0 90 61 60
        E 120 80 3c 00
        E 0 80 48 00
        E 0 80 49 00
        E 0 80 54 00
        E 0 80 55 00
        E 0 80 60 00
        E 0 80 61 00
        E 120 90 48 60
        E 0 90 49 60
        E 0 90 54 60
        E 0 90 55 60
        E 0 90 60 60
        E 0 90 61 60
        E 0 90 62 60
        E 120 80 48 00
        E 0 80 49 00
        E 0 80 54 00
        E 0 80 55 00
        E 0 80 60 00
        E 0 80 61 00
        E 0 80 62 00
        E 120 90 48 60
        E 0 90 49 60
        E 0 90 54 60
        E 0 90 55 60
        E 0 90 60 60
        E 0 90 61 60
        E 120 80 2b 00
        E 0 80 48 00
        E 0 80 49 00
        E 0 80 54 00
        E 0 80 55 00
        E 0 80 60 00
        E 0 80 61 00
        E 120 90 28 60
        E 0 90 55 60
        E 0 90 61 60
        E 120 80 55 00
        E 0 80 61 00
        E 120 90 40 60
        E 0 90 4b 60
        E 0 90 4c 60
        E 0 90 56 60
        E 0 90 58 60
        E 0 90 61 60
        E 0 90 63 60
        E 0 90 64 60
        E 120 80 40 00
        E 0 80 4b 00
        E 0 80 4c 00
        E 240 80 56 00
        E 0 80 58 00
        E 0 80 61 00
        E 0 80 63 00
        E 0 80 64 00
        E 120 90 4b 60
        E 0 90 4c 60
        E 0 90 56 60
        E 0 90 58 60
        E 0 90 61 60
        E 0 90 63 60
        E 0 90 64 60
        E 120 80 4b 00
        E 0 80 4c 00
        E 0 80 56 00
        E 0 80 58 00
        E 0 80 61 00
        E 0 80 63 00
        E 0 80 64 00
        E 120 90 55 60
        E 0 90 61 60
        E 120 80 55 00
        E 0 80 61 00
        E 120 90 3f 60
        E 0 90 4a 60
        E 0 90 4b 60
        E 0 90 55 60
        E 0 90 58 60
        E 0 90 61 60
        E 0 90 62 60
        E 0 90 64 60
        E 120 80 3f 00
        E 0 80 4a 00
        E 0 80 4b 00
        E 240 80 55 00
        E 0 80 58 00
        E 0 80 61 00
        E 0 80 62 00
        E 0 80 64 00
        E 120 90 4a 60
        E 0 90 4b 60
        E 0 90 55 60
        E 0 90 58 60
        E 0 90 61 60
        E 0 90 62 60
        E 0 90 64 60
        E 120 80 4a 00
        E 0 80 4b 00
        E 0 80 55 00
        E 0 80 58 00
        E 0 80 61 00
        E 0 80 62 00
        E 0 80 64 00
        E 120 90 55 60
        E 0 90 61 60
        E 120 80 55 00
        E 0 80 61 00
        E 120 90 3e 60
        E 0 90 49 60
        E 0 90 4b 60
        E 0 90 55 60
        E 0 90 57 60
        E 0 90 61 60
        E 0 90 62 60
        E 0 90 63 60
        E 120 80 3e 00
        E 0 80 49 00
        E 0 80 4b 00
        E 240 80 55 00
        E 0 80 57 00
        E 0 80 61 00
        E 0 80 62 00
        E 0 80 63 00
        E 120 90 3e 60
        E 0 90 49 60
        E 0 90 4a 60
        E 0 90 55 60
        E 0 90 56 60
        E 0 90 61 60
        E 0 90 62 60
        E 120 80 3e 00
        E 0 80 49 00
        E 0 80 4a 00
        E 0 80 55 00
        E 0 80 56 00
        E 0 80 61 00
        E 0 80 62 00
        E 120 90 49 60
        E 0 90 4a 60
        E 0 90 55 60
        E 0 90 56 60
        E 0 90 61 60
        E 0 90 62 60
        E 120 80 49 00
        E 0 80 4a 00
        E 0 80 55 00
        E 0 80 56 00
        E 0 80 61 00
        E 0 80 62 00
        E 120 90 3e 60
        E 0 90 49 60
        E 0 90 4a 60
        E 0 90 55 60
        E 0 90 56 60
        E 0 90 61 60
        E 0 90 62 60
        E 120 80 3e 00
        E 0 80 49 00
        E 0 80 4a 00
        E 0 80 55 00
        E 0 80 56 00
        E 0 80 61 00
        E 0 80 62 00
        E 120 90 55 60
        E 0 90 57 60
        E 0 90 61 60
        E 0 90 62 60
        E 0 90 63 60
        E 120 80 55 00
        E 0 80 57 00
        E 0 80 61 00
        E 0 80 62 00
        E 0 80 63 00
        E 120 90 3e 60
        E 0 90 49 60
        E 0 90 4a 60
        E 0 90 55 60
        E 0 90 56 60
        E 0 90 61 60
        E 0 90 62 60
        E 120 80 28 00
        E 0 80 3e 00
        E 0 80 49 00
        E 0 80 4a 00
        E 0 80 55 00
        E 0 80 56 00
        E 0 80 61 00
        E 0 80 62 00
        E 120 90 2b 60
        E 0 90 54 60
        E 0 90 60 60
        E 120 80 2b 00
        E 0 80 54 00
        E 0 80 60 00
        E 120 90 2b 60
        E 0 90 3e 60
        E 0 90 49 60
        E 0 90 4a 60
        E 0 90 54 60
        E 0 90 57 60
        E 0 90 60 60
        E 0 90 62 60
        E 0 90 63 60
        E 120 80 3e 00
        E 0 80 49 00
        E 0 80 4a 00
        E 240 80 54 00
        E 0 80 57 00
        E 0 80 60 00
        E 0 80 62 00
        E 0 80 63 00
        E 120 90 49 60
        E 0 90 4a 60
        E 0 90 54 60
        E 0 90 57 60
        E 0 90 60 60
        E 0 90 62 60
        E 0 90 63 60
        E 120 80 49 00
        E 0 80 4a 00
        E 0 80 54 00
        E 0 80 57 00
        E 0 80 60 00
        E 0 80 62 00
        E 0 80 63 00
        E 120 90 54 60
        E 0 90 60 60
        E 120 80 54 00
        E 0 80 60 00
        E 120 90 3d 60
        E 0 90 48 60
        E 0 90 4a 60
        E 0 90 54 60
        E 0 90 56 60
        E 0 90 60 60
        E 0 90 61 60
        E 0 90 63 60
        E 120 80 3d 00
        E 0 80 48 00
        E 0 80 4a 00
        E 240 80 54 00
        E 0 80 56 00
        E 0 80 60 00
        E 0 80 61 00
        E 0 80 63 00
        E 120 90 48 60
        E 0 90 4a 60
        E 0 90 54 60
        E 0 90 56 60
        E 0 90 60 60
        E 0 90 61 60
        E 0 90 63 60
        E 120 80 48 00
        E 0 80 4a 00
        E 0 80 54 00
        E 0 80 56 00
        E 0 80 60 00
        E 0 80 61 00
        E 0 80 63 00
        E 120 90 54 60
        E 0 90 60 60
        E 120 80 54 00
        E 0 80 60 00
        E 120 90 3c 60
        E 0 90 48 60
        E 0 90 49 60
        E 0 90 54 60
        E 0 90 55 60
        E 0 90 60 60
        E 0 90 61 60
        E 0 90 62 60
        E 120 80 3c 00
        E 0 80 48 00
        E 0 80 49 00
        E 240 80 54 00
        E 0 80 55 00
        E 0 80 60 00
        E 0 80 61 00
        E 0 80 62 00
        E 120 90 3c 60
        E 0 90 48 60
        E 0 90 49 60
        E 0 90 54 60
        E 0 90 55 60
        E 0 90 60 60
        E 0 90 61 60
        E 120 80 3c 00
        E 0 80 48 00
        E 0 80 49 00
        E 0 80 54 00
        E 0 80 55 00
        E 0 80 60 00
        E 0 80 61 00
        E 120 90 48 60
        E 0 90 49 60
        E 0 90 54 60
        E 0 90 55 60
        E 0 90 60 60
        E 0 90 61 60
        E 0 90 62 60
        E 120 80 48 00
        E 0 80 49 00
        E 0 80 54 00
        E 0 80 55 00
        E 0 80 60 00
        E 0 80 61 00
        E 0 80 62 00
        E 120 90 3c 60
        E 0 90 48 60
        E 0 90 49 60
        E 0 90 54 60
        E 0 90 55 60
        E 0 90 60 60
        E 0 90 61 60
        E 120 80 3c 00
        E 0 80 48 00
        E 0 80 49 00
        E 0 80 54 00
        E 0 80 55 00
        E 0 80 60 00
        E 0 80 61 00
        E 120 90 48 60
        E 0 90 49 60
        E 0 90 54 60
        E 0 90 55 60
        E 0 90 60 60
        E 0 90 61 60
        E 120 80 48 00
        E 0 80 49 00
        E 0 80 54 00
        E 0 80 55 00
        E 0 80 60 00
        E 0 80 61 00
        E 120 90 48 60
        E 0 90 49 60
        E 0 90 54 60
        E 0 90 55 60
        E 0 90 60 60
        E 0 90 61 60
        E 120 80 2b 00
        E 0 80 48 00
        E 0 80 49 00
        E 0 80 54 00
        E 0 80 55 00
        E 0 80 60 00
        E 0 80 61 00
        E 120 90 28 60
        E 0 90 55 60
        E 0 90 61 60
        E 120 80 55 00
        E 0 80 61 00
        E 120 90 40 60
        E 0 90 4b 60
        E 0 90 4c 60
        E 0 90 56 60
        E 0 90 58 60
        E 0 90 61 60
        E 0 90 63 60
        E 0 90 64 60
        E 120 80 40 00
        E 0 80 4b 00
        E 0 80 4c 00
        E 240 80 56 00
        E 0 80 58 00
        E 0 80 61 00
        E 0 80 63 00
        E 0 80 64 00
        E 120 90 4b 60
        E 0 90 4c 60
        E 0 90 56 60
        E 0 90 58 60
        E 0 90 61 60
        E 0 90 63 60
        E 0 90 64 60
        E 120 80 4b 00
        E 0 80 4c 00
        E 0 80 56 00
        E 0 80 58 00
        E 0 80 61 00
        E 0 80 63 00
        E 0 80 64 00
        E 120 90 55 60
        E 0 90 61 60
        E 120 80 55 00
        E 0 80 61 00
        E 120 90 3f 60
        E 0 90 4a 60
        E 0 90 4b 60
        E 0 90 55 60
        E 0 90 58 60
        E 0 90 61 60
        E 0 90 62 60
        E 0 90 64 60
        E 120 80 3f 00
        E 0 80 4a 00
        E 0 80 4b 00
        E 240 80 55 00
        E 0 80 58 00
        E 0 80 61 00
        E 0 80 62 00
        E 0 80 64 00
        E 120 90 4a 60
        E 0 90 4b 60
        E 0 90 55 60
        E 0 90 58 60
        E 0 90 61 60
        E 0 90 62 60
        E 0 90 64 60
        E 120 80 4a 00
        E 0 80 4b 00
        E 0 80 55 00
        E 0 80 58 00
        E 0 80 61 00
        E 0 80 62 00
        E 0 80 64 00
        E 120 90 55 60
        E 0 90 61 60
        E 120 80 55 00
        E 0 80 61 00
        E 120 90 3e 60
        E 0 90 49 60
        E 0 90 4b 60
        E 0 90 55 60
        E 0 90 57 60
        E 0 90 61 60
        E 0 90 62 60
        E 0 90 63 60
        E 120 80 3e 00
        E 0 80 49 00
        E 0 80 4b 00
        E 240 80 55 00
        E 0 80 57 00
        E 0 80 61 00
        E 0 80 62 00
        E 0 80 63 00
        E 120 90 3e 60
        E 0 90 49 60
        E 0 90 4a 60
        E 0 90 55 60
        E 0 90 56 60
        E 0 90 61 60
        E 0 90 62 60
        E 120 80 3e 00
        E 0 80 49 00
        E 0 80 4a 00
        E 0 80 55 00
        E 0 80 56 00
        E 0 80 61 00
        E 0 80 62 00
        E 120 90 49 60
        E 0 90 4a 60
        E 0 90 55 60
        E 0 90 56 60
        E 0 90 61 60
        E 0 90 62 60
        E 120 80 49 00
        E 0 80 4a 00
        E 0 80 55 00
        E 0 80 56 00
        E 0 80 61 00
        E 0 80 62 00
        E 120 90 3e 60
        E 0 90 49 60
        E 0 90 4a 60
        E 0 90 55 60
        E 0 90 56 60
        E 0 90 61 60
        E 0 90 62 60
        E 120 80 3e 00
        E 0 80 49 00
        E 0 80 4a 00
        E 0 80 55 00
        E 0 80 56 00
        E 0 80 61 00
        E 0 80 62 00
        E 120 90 49 60
        E 0 90 4a 60
        E 0 90 55 60
        E 0 90 56 60
        E 0 90 61 60
        E 0 90 62 60
        E 120 80 49 00
        E 0 80 4a 00
        E 0 80 55 00
        E 0 80 56 00
        E 0 80 61 00
        E 0 80 62 00
        E 120 90 3e 60
        E 0 90 49 60
        E 0 90 4a 60
        E 0 90 55 60
        E 0 90 56 60
        E 0 90 61 60
        E 0 90 62 60
        E 120 80 28 00
        E 0 80 3e 00
        E 0 80 49 00
        E 0 80 4a 00
        E 0 80 55 00
        E 0 80 56 00
        E 0 80 61 00
        E 0 80 62 00
        E 120 90 2b 60
        E 0 90 54 60
        E 0 90 60 60
        E 120 80 54 00
        E 0 80 60 00
        E 120 90 3e 60
        E 0 90 49 60
        E 0 90 4a 60
        E 0 90 54 60
        E 0 90 57 60
        E 0 90 60 60
        E 0 90 62 60
        E 0 90 63 60
        E 5760 80 2b 00
        E 0 80 3e 00
        E 0 80 49 00
        E 0 80 4a 00
        E 0 80 54 00
        E 0 80 57 00
        E 0 80 60 00
        E 0 80 62 00
        E 0 80 63 00
        <X 960 0
          /wFbaWRsZV9yZWFsdGltZV0=
        >
        E 2880 b0 7b 00
        GUID {945C04F6-C56C-424C-824E-E9AE004315F4}
        IGNTEMPO 0 120.00000000 4 4
        SRCCOLOR 25
        VELLANE 132 123 128
        COLORMAP "C:\Program Files (x86)\REAPER\Data\color_maps\rockband_guitarbass.png"
        TEXTSTRINGFILE "C:\Program Files (x86)\REAPER\Data\Text_Strings\Text Events List - Instruments.txt"
        CFGEDITVIEW 162213.219805 0.093852 0 19 0 0 0
        CFGEDIT 1 1 0 1 1 0 1 1 15 1 1 0.25000000 -8 -8 1370 736 0 2 0 2 0.00000000 0 1 0 0 0.500000 0 0 1.000000 64
        KEYSNAP 0 7 "102034050607" 0 "Major"
        EVTFILTER 16384 144 -1 -1 -1 14 0 0 0 -1.00000000 -1.00000000
      >
    >
  >
  <TRACK '{E33A7391-7501-4457-A7AA-0117F62B8DBF}'
    NAME "PART VOCALS"
    PEAKCOL 16576
    BEAT -1
    AUTOMODE 0
    VOLPAN 1.00000000000000 0.00000000000000 -1.00000000000000 -1.00000000000000 1.00000000000000
    MUTESOLO 0 0 0
    IPHASE 0
    ISBUS 0 0
    BUSCOMP 0 0
    SHOWINMIX 1 0.666700 0.500000 1 0.500000 -1 -1 -1
    FREEMODE 0
    SEL 0
    REC 0 0 0 0 0 0 0
    VU 2
    TRACKHEIGHT 0 0
    INQ 0 0 0 0.5000000000 100 0 0 100
    NCHAN 2
    FX 0
    TRACKID {E33A7391-7501-4457-A7AA-0117F62B8DBF}
    PERF 0
    MIDIOUT -1
    <MIDINOTENAMES
      0 116 "OVERDRIVE"
      0 115 "----"
      0 105 "Phrase Marker"
      0 104 "----"
      0 97 "Non-Displayed Percussion"
      0 96 "Displayed Percussion"
      0 95 "----"
      0 84 "UNUSED C5 Note"
      0 83 "Highest Note B4"
      0 82 "A#4"
      0 81 "A4"
      0 80 "G#4"
      0 79 "G4"
      0 78 "F#4"
      0 77 "F4"
      0 76 "E4"
      0 75 "D#4"
      0 74 "D4"
      0 73 "C#4"
      0 72 "C4"
      0 71 "B3"
      0 70 "A#3"
      0 69 "A3"
      0 68 "G#3"
      0 67 "G3"
      0 66 "F#3"
      0 65 "F3"
      0 64 "E3"
      0 63 "D#3"
      0 62 "D3"
      0 61 "C#3"
      0 60 "C3"
      0 59 "B2"
      0 58 "A#2"
      0 57 "A2"
      0 56 "G#2"
      0 55 "G2"
      0 54 "F#2"
      0 53 "F2"
      0 52 "E2"
      0 51 "D#2"
      0 50 "D2"
      0 49 "C#2"
      0 48 "C2"
      0 47 "B1"
      0 46 "A#1"
      0 45 "A1"
      0 44 "G#1"
      0 43 "G1"
      0 42 "F#1"
      0 41 "F1"
      0 40 "E1"
      0 39 "D#1"
      0 38 "D!"
      0 37 "C#1"
      0 36 "Lowest Note C1"
      0 2 "---"
      0 1 "Lyric Shift"
      0 0 "Range Shift"
    >
    MAINSEND 1 0
    <FXCHAIN
      WNDRECT 0 42 878 554
      SHOW 0
      LASTSEL 1
      DOCKED 0
      BYPASS 0 0
      <JS "MIDI/midi_note_filter" ""
        36.000000 84.000000 - - - - - - - - - - - - - - - - - - - - - - - - - - - - - - - - - - - - - - - - - - - - - - - - - - - - - - - - - - - - - - 
      >
      FLOATPOS 0 0 0 0
      FXID {D5D215D0-8CCE-4F11-8E24-EE213A83426C}
      WAK 0
      BYPASS 0 0
      <VST "VSTi: ReaSynth (Cockos)" "reasynth.dll" 0 ""
        eXNlcu9e7f4AAAAAAgAAAAEAAAAAAAAAAgAAAAAAAAA4AAAAAAAAAA==
        AAAQAO++rd4N8K3eppvEOxe30ToAAIA/AAAAAAAAAADMm4A+6WeIPQ==
        AAAAAAAAAD8AAIA/AACAPwAAAD8AABAAAAA=
      >
      FLOATPOS 0 0 0 0
      FXID {36B91826-CF7D-47EF-917E-57D1E556FEEE}
      WAK 0
    >
    <ITEM
      POSITION 0.00000000000000
      SNAPOFFS 0.00000000000000
      LENGTH 236.43059832085180
      LOOP 0
      ALLTAKES 0
      SEL 0
      FADEIN 1 0.000000 0.000000 1 0
      FADEOUT 1 0.000000 0.000000 1 0
      MUTE 0
      IGUID {3F07904D-D2AD-47FA-84C2-7BB7CD1F9817}
      IID 29
      NAME "PART VOCALS"
      VOLPAN 1.000000 0.000000 1.000000 -1.000000
      SOFFS 0.00000000000000 0.00000000000000
      PLAYRATE 1.00000000000000 1 0.00000000000000 -1
      CHANMODE 0
      GUID {A205BDA0-029D-48A3-B472-75AEF3B77ED2}
      <SOURCE MIDI
        HASDATA 1 480 QN
        POOLEDEVTS {663D4856-E729-45CA-9345-ACC5DF745F74}
        <X 0 0
          /wNQQVJUIFZPQ0FMUw==
        >
        <X 3840 0
          /wFbaWRsZV0=
        >
        <X 1920 0
          /wFbbWVsbG93XQ==
        >
        <X 0 0
          /wFbdGFtYm91cmluZV9zdGFydF0=
        >
        E 720 90 69 60
        E 240 90 60 60
        E 120 80 60 00
        E 1800 90 60 60
        E 120 80 60 00
        E 1800 90 60 60
        E 120 80 60 00
        E 120 80 69 00
        E 1440 90 69 60
        E 240 90 60 60
        E 120 80 60 00
        E 1800 90 60 60
        E 120 80 60 00
        E 1800 90 60 60
        E 120 80 60 00
        E 1800 90 60 60
        E 120 80 60 00
        E 120 80 69 00
        <X 720 0
          /wFbdGFtYm91cmluZV9lbmRd
        >
        E 480 90 69 60
        <X 240 0
          /wVEZWFk
        >
        e 0 90 2f 60
        e 390 80 2f 00
        <X 90 0
          /wVpbg==
        >
        e 0 90 2f 60
        e 150 80 2f 00
        <X 90 0
          /wV0aGU=
        >
        e 0 90 2f 60
        e 120 80 2f 00
        <X 120 0
          /wV3YS0=
        >
        e 0 90 2f 60
        e 30 80 2f 00
        <X 60 0
          /wUr
        >
        e 0 90 36 60
        e 270 80 36 00
        <X 120 0
          /wV0ZXI=
        >
        e 0 90 37 60
        e 810 80 37 00
        E 150 80 69 00
        E 720 90 69 60
        <X 240 0
          /wVJdCdz
        >
        e 0 90 37 60
        e 90 80 37 00
        <X 150 0
          /wVub3Q=
        >
        e 0 90 39 60
        e 180 80 39 00
        <X 60 0
          /wVh
        >
        e 0 90 39 60
        e 60 80 39 00
        <X 180 0
          /wVwYWlk
        >
        e 0 90 39 60
        e 120 80 39 00
        <X 360 0
          /wV2YS0=
        >
        e 0 90 39 60
        e 120 80 39 00
        <X 120 0
          /wVjYS0=
        >
        e 0 90 3b 60
        e 210 80 3b 00
        <X 270 0
          /wV0aW9u
        >
        e 0 90 39 60
        e 960 80 39 00
        E 240 80 69 00
        E 960 90 69 60
        E 0 90 74 60
        <X 240 0
          /wVUaGU=
        >
        e 0 90 2f 60
        e 90 80 2f 00
        <X 150 0
          /wVzb25z
        >
        e 0 90 2f 60
        e 390 80 2f 00
        <X 90 0
          /wVhbmQ=
        >
        e 0 90 2f 60
        e 90 80 2f 00
        <X 150 0
          /wVkYXVnaC0=
        >
        e 0 90 39 60
        e 390 80 39 00
        <X 90 0
          /wV0ZXJz
        >
        e 0 90 37 60
        e 420 80 37 00
        <X 60 0
          /wVvZg==
        >
        e 0 90 37 60
        e 90 80 37 00
        <X 150 0
          /wVjaS0=
        >
        e 0 90 39 60
        e 150 80 39 00
        <X 90 0
          /wV0eQ==
        >
        e 0 90 39 60
        e 150 80 39 00
        <X 90 0
          /wVvZi0=
        >
        e 0 90 39 60
        e 120 80 39 00
        <X 120 0
          /wVmaS0=
        >
        e 0 90 3b 60
        e 360 80 3b 00
        <X 120 0
          /wVjaWFscw==
        >
        e 0 90 39 60
        E 150 90 01 60
        E 30 80 01 00
        e 30 80 39 00
        <X 30 0
          /wVhdC0=
        >
        e 0 90 39 60
        e 60 80 39 00
        <X 180 0
          /wV0ZW5k
        >
        e 0 90 39 60
        e 270 80 39 00
        <X 210 0
          /wVkZW0t
        >
        e 0 90 39 60
        e 150 80 39 00
        <X 90 0
          /wVvbi0=
        >
        e 0 90 37 60
        e 90 80 37 00
        <X 150 0
          /wVzdHJhLQ==
        >
        e 0 90 3b 60
        e 330 80 3b 00
        <X 150 0
          /wV0aW9ucw==
        >
        e 0 90 39 60
        e 720 80 39 00
        E 240 80 69 00
        E 0 80 74 00
        E 960 90 69 60
        <X 240 0
          /wVJdCdz
        >
        e 0 90 3b 60
        e 120 80 3b 00
        <X 120 0
          /wVoYXJkLQ==
        >
        e 0 90 3e 60
        e 330 80 3e 00
        <X 150 0
          /wVseQ==
        >
        e 0 90 3e 60
        e 210 80 3e 00
        <X 30 0
          /wVh
        >
        e 0 90 3e 60
        e 30 80 3e 00
        <X 210 0
          /wVzaW5r
        >
        e 0 90 40 60
        e 180 80 40 00
        <X 60 0
          /wUr
        >
        e 0 90 3e 60
        e 30 80 3e 00
        <X 210 0
          /wVvcg==
        >
        e 0 90 3b 60
        e 330 80 3b 00
        <X 150 0
          /wVzd2lt
        >
        e 0 90 3b 60
        E 570 90 01 60
        E 30 80 01 00
        e 30 80 3b 00
        <X 90 0
          /wV3aGVu
        >
        e 0 90 3c 60
        e 150 80 3c 00
        <X 90 0
          /wVhbGw=
        >
        e 0 90 3b 60
        e 420 80 3b 00
        <X 60 0
          /wVpcw==
        >
        e 0 90 39 60
        e 300 80 39 00
        <X 180 0
          /wV3ZWxs
        >
        e 0 90 39 60
        e 570 80 39 00
        <X 150 0
          /wVpZg==
        >
        e 0 90 39 60
        e 90 80 39 00
        <X 150 0
          /wV0aGU=
        >
        e 0 90 39 60
        e 60 80 39 00
        <X 180 0
          /wV0aWNrLQ==
        >
        e 0 90 3b 60
        e 90 80 3b 00
        <X 120 0
          /wVldA==
        >
        e 0 90 39 60
        e 120 80 39 00
        <X 150 0
          /wVzZWxscw==
        >
        e 0 90 39 60
        e 1470 80 39 00
        <X 210 0
          /wFbaWRsZV0=
        >
        E 0 80 69 00
        <X 7440 0
          /wFbbWVsbG93XQ==
        >
        E 480 90 69 60
        <X 240 0
          /wVPdXQ=
        >
        e 0 90 2f 60
        e 360 80 2f 00
        <X 120 0
          /wV3aXRo
        >
        e 0 90 2f 60
        e 90 80 2f 00
        <X 150 0
          /wVh
        >
        e 0 90 2f 60
        e 150 80 2f 00
        <X 90 0
          /wV3aGltLQ==
        >
        e 0 90 36 60
        e 300 80 36 00
        <X 180 0
          /wVwZXI=
        >
        e 0 90 36 60
        e 570 80 36 00
        E 150 80 69 00
        E 960 90 69 60
        <X 240 0
          /wVJdCdz
        >
        e 0 90 37 60
        e 120 80 37 00
        <X 120 0
          /wVub3Q=
        >
        e 0 90 39 60
        e 120 80 39 00
        <X 120 0
          /wVh
        >
        e 0 90 39 60
        e 60 80 39 00
        <X 180 0
          /wVibGF6ZQ==
        >
        e 0 90 39 60
        e 390 80 39 00
        <X 90 0
          /wVmb3I=
        >
        e 0 90 39 60
        e 90 80 39 00
        <X 150 0
          /wVnbG8t
        >
        e 0 90 39 60
        e 60 80 39 00
        <X 60 0
          /wUr
        >
        e 0 90 3b 60
        e 300 80 3b 00
        <X 60 0
          /wVyeQ==
        >
        e 0 90 39 60
        e 690 80 39 00
        E 30 80 69 00
        E 960 90 69 60
        <X 240 0
          /wVZb3U=
        >
        e 0 90 2f 60
        e 120 80 2f 00
        <X 120 0
          /wVsb29r
        >
        e 0 90 2f 60
        e 90 80 2f 00
        <X 150 0
          /wVkb3du
        >
        e 0 90 2f 60
        e 360 80 2f 00
        <X 120 0
          /wVmcm9t
        >
        e 0 90 2f 60
        e 90 80 2f 00
        <X 150 0
          /wV5b3Vy
        >
        e 0 90 2f 60
        e 90 80 2f 00
        <X 150 0
          /wV0ZW0t
        >
        e 0 90 39 60
        e 360 80 39 00
        <X 120 0
          /wVwbGU=
        >
        e 0 90 37 60
        e 360 80 37 00
        E 30 80 69 00
        E 60 90 69 60
        <X 30 0
          /wVBcw==
        >
        e 0 90 32 60
        e 90 80 32 00
        <X 150 0
          /wVwZW8t
        >
        e 0 90 39 60
        e 180 80 39 00
        <X 60 0
          /wVwbGU=
        >
        e 0 90 39 60
        e 150 80 39 00
        <X 90 0
          /wVlbi0=
        >
        e 0 90 39 60
        e 150 80 39 00
        <X 90 0
          /wVkZWF2LQ==
        >
        e 0 90 3b 60
        e 360 80 3b 00
        <X 120 0
          /wVvcg==
        >
        e 0 90 39 60
        e 120 80 39 00
        <X 120 0
          /wV0bw==
        >
        e 0 90 39 60
        e 90 80 39 00
        <X 150 0
          /wVtYWtl
        >
        e 0 90 39 60
        e 360 80 39 00
        <X 120 0
          /wVpdA==
        >
        e 0 90 39 60
        e 60 80 39 00
        <X 180 0
          /wVh
        >
        e 0 90 39 60
        e 120 80 39 00
        <X 120 0
          /wVzdG8t
        >
        e 0 90 39 60
        e 30 80 39 00
        <X 30 0
          /wUr
        >
        e 0 90 3b 60
        e 300 80 3b 00
        <X 120 0
          /wVyeQ==
        >
        e 0 90 39 60
        e 390 80 39 00
        E 90 80 69 00
        E 1440 90 69 60
        E 0 90 74 60
        <X 240 0
          /wVBbmQ=
        >
        e 0 90 3b 60
        e 90 80 3b 00
        <X 150 0
          /wVjaGkt
        >
        e 0 90 3e 60
        e 360 80 3e 00
        <X 120 0
          /wVzZWw=
        >
        e 0 90 3e 60
        e 120 80 3e 00
        <X 120 0
          /wVh
        >
        e 0 90 3e 60
        e 90 80 3e 00
        <X 150 0
          /wVtYXIt
        >
        e 0 90 3e 60
        e 60 80 3e 00
        <X 30 0
          /wUr
        >
        e 0 90 40 60
        e 300 80 40 00
        <X 90 0
          /wVibGU=
        >
        e 0 90 3b 60
        e 330 80 3b 00
        <X 150 0
          /wV3b3Jk
        >
        e 0 90 3b 60
        e 540 80 3b 00
        E 60 90 01 60
        E 30 80 01 00
        <X 90 0
          /wVidXQ=
        >
        e 0 90 3c 60
        e 120 80 3c 00
        <X 120 0
          /wVhbGw=
        >
        e 0 90 3b 60
        e 330 80 3b 00
        <X 150 0
          /wVpcw==
        >
        e 0 90 39 60
        e 330 80 39 00
        <X 150 0
          /wVsb3N0
        >
        e 0 90 39 60
        e 540 80 39 00
        <X 180 0
          /wVpZg==
        >
        e 0 90 39 60
        e 60 80 39 00
        <X 180 0
          /wVpdCdz
        >
        e 0 90 39 60
        e 60 80 39 00
        <X 180 0
          /wVuZXYt
        >
        e 0 90 3b 60
        e 150 80 3b 00
        <X 90 0
          /wVlcg==
        >
        e 0 90 39 60
        e 120 80 39 00
        <X 120 0
          /wVoZWFyZA==
        >
        e 0 90 39 60
        e 600 80 39 00
        <X 120 0
          /wUr
        >
        e 0 90 3b 60
        e 990 80 3b 00
        <X 210 0
          /wFbaWRsZV0=
        >
        E 0 80 69 00
        E 0 80 74 00
        <X 6480 0
          /wFbcGxheV0=
        >
        E 240 90 69 60
        <X 240 0
          /wVCdXQ=
        >
        e 0 90 3c 60
        e 90 80 3c 00
        <X 150 0
          /wVJJ3Zl
        >
        e 0 90 43 60
        e 300 80 43 00
        <X 180 0
          /wVnb3Q=
        >
        e 0 90 43 60
        e 210 80 43 00
        <X 270 0
          /wVzb21lLQ==
        >
        e 0 90 40 60
        e 180 80 40 00
        <X 60 0
          /wVvbmU=
        >
        e 0 90 3e 60
        e 120 80 3e 00
        <X 120 0
          /wV0bw==
        >
        e 0 90 3e 60
        e 68 80 3e 00
        <X 172 0
          /wVtYWtl
        >
        e 0 90 41 60
        e 30 80 41 00
        <X 30 0
          /wUr
        >
        e 0 90 43 60
        e 210 80 43 00
        <X 210 0
          /wVyZS0=
        >
        e 0 90 43 60
        e 300 80 43 00
        <X 180 0
          /wVwb3J0cw==
        >
        e 0 90 40 60
        e 90 80 40 00
        <X 150 0
          /wUr
        >
        e 0 90 3e 60
        e 150 80 3e 00
        E 90 80 69 00
        E 240 90 69 60
        <X 240 0
          /wVBbmRe
        >
        e 0 90 40 60
        e 90 80 40 00
        <X 150 0
          /wV0ZWxs
        >
        e 0 90 40 60
        e 90 80 40 00
        <X 150 0
          /wUr
        >
        e 0 90 39 60
        e 120 80 39 00
        <X 120 0
          /wVtZQ==
        >
        e 0 90 39 60
        e 150 80 39 00
        <X 330 0
          /wVob3c=
        >
        e 0 90 39 60
        e 360 80 39 00
        <X 120 0
          /wVteQ==
        >
        e 0 90 3c 60
        e 150 80 3c 00
        <X 90 0
          /wVtb24t
        >
        e 0 90 3c 60
        e 330 80 3c 00
        <X 150 0
          /wVleSdz
        >
        e 0 90 3e 60
        e 240 80 3e 00
        <X 240 0
          /wVzcGVudA==
        >
        e 0 90 40 60
        e 270 80 40 00
        E 210 80 69 00
        E 240 90 69 60
        <X 240 0
          /wVUbw==
        >
        e 0 90 3c 60
        e 90 80 3c 00
        <X 150 0
          /wVib29r
        >
        e 0 90 43 60
        e 300 80 43 00
        <X 180 0
          /wVteQ==
        >
        e 0 90 43 60
        e 240 80 43 00
        <X 240 0
          /wVzdGF5cw==
        >
        e 0 90 40 60
        e 120 80 40 00
        <X 120 0
          /wUr
        >
        e 0 90 3e 60
        e 120 80 3e 00
        <X 120 0
          /wVhbmQ=
        >
        e 0 90 3e 60
        e 90 80 3e 00
        <X 150 0
          /wVkcmF3
        >
        e 0 90 43 60
        e 270 80 43 00
        <X 210 0
          /wVteQ==
        >
        e 0 90 43 60
        e 300 80 43 00
        <X 180 0
          /wVibGluZHM=
        >
        e 0 90 40 60
        e 90 80 40 00
        <X 150 0
          /wUr
        >
        e 0 90 3e 60
        e 150 80 3e 00
        E 90 80 69 00
        E 240 90 69 60
        <X 240 0
          /wVTbw==
        >
        e 0 90 3e 60
        e 120 80 3e 00
        <X 120 0
          /wVJXg==
        >
        e 0 90 3e 60
        e 150 80 3e 00
        <X 90 0
          /wVjYW4ndA==
        >
        e 0 90 3c 60
        e 180 80 3c 00
        <X 540 0
          /wV0ZWxs
        >
        e 0 90 3c 60
        e 360 80 3c 00
        <X 120 0
          /wV3aGF0J3M=
        >
        e 0 90 3b 60
        e 150 80 3b 00
        <X 90 0
          /wVyZWFsLQ==
        >
        e 0 90 3c 60
        e 330 80 3c 00
        <X 150 0
          /wVseQ==
        >
        e 0 90 3b 60
        e 120 80 3b 00
        <X 120 0
          /wV0aGVyZSM=
        >
        e 0 90 3e 60
        e 450 80 3e 00
        E 30 80 69 00
        E 480 90 69 60
        E 0 90 74 60
        <X 240 0
          /wVBbmQ=
        >
        e 0 90 3e 60
        e 120 80 3e 00
        <X 120 0
          /wVhbGw=
        >
        e 0 90 43 60
        e 330 80 43 00
        <X 120 0
          /wVJ
        >
        e 0 90 43 60
        e 300 80 43 00
        <X 210 0
          /wVuZWVkJ3M=
        >
        e 0 90 3e 60
        e 330 80 3e 00
        <X 150 0
          /wVh
        >
        e 0 90 3e 60
        e 90 80 3e 00
        <X 150 0
          /wVncmVhdCM=
        >
        e 0 90 43 60
        e 390 80 43 00
        <X 90 0
          /wViaWc=
        >
        e 0 90 3c 60
        e 240 80 3c 00
        <X 240 0
          /wVjb24t
        >
        e 0 90 3c 60
        e 180 80 3c 00
        <X 60 0
          /wVncmF0LQ==
        >
        e 0 90 3c 60
        e 330 80 3c 00
        <X 150 0
          /wV1LQ==
        >
        e 0 90 3c 60
        e 150 80 3c 00
        <X 90 0
          /wVsYS0=
        >
        e 0 90 45 60
        e 90 80 45 00
        <X 150 0
          /wUr
        >
        e 0 90 43 60
        e 90 80 43 00
        <X 150 0
          /wV0aW9ucw==
        >
        e 0 90 43 60
        e 1530 80 43 00
        <X 150 0
          /wFbdGFtYm91cmluZV9zdGFydF0=
        >
        <X 0 0
          /wFbbWVsbG93XQ==
        >
        E 0 80 69 00
        E 0 80 74 00
        E 720 90 69 60
        E 240 90 60 60
        E 120 80 60 00
        E 1800 90 60 60
        E 120 80 60 00
        E 1800 90 60 60
        E 120 80 60 00
        E 120 80 69 00
        E 1440 90 69 60
        E 240 90 60 60
        E 120 80 60 00
        E 1800 90 60 60
        E 120 80 60 00
        E 1800 90 60 60
        E 120 80 60 00
        E 1800 90 60 60
        E 120 80 60 00
        E 120 80 69 00
        <X 720 0
          /wFbdGFtYm91cmluZV9lbmRd
        >
        E 480 90 69 60
        <X 240 0
          /wVJJ2xs
        >
        e 0 90 2f 60
        e 120 80 2f 00
        <X 120 0
          /wVrZWVw
        >
        e 0 90 2f 60
        e 390 80 2f 00
        <X 90 0
          /wV5b3Vy
        >
        e 0 90 2f 60
        e 120 80 2f 00
        <X 120 0
          /wVkcmVhbXM=
        >
        e 0 90 36 60
        e 360 80 36 00
        <X 120 0
          /wUr
        >
        e 0 90 37 60
        e 930 80 37 00
        E 270 80 69 00
        E 480 90 69 60
        <X 240 0
          /wVZb3U=
        >
        e 0 90 30 60
        e 90 80 30 00
        <X 150 0
          /wVwYXk=
        >
        e 0 90 39 60
        e 180 80 39 00
        <X 60 0
          /wVhdC0=
        >
        e 0 90 39 60
        e 60 80 39 00
        <X 180 0
          /wV0ZW4t
        >
        e 0 90 39 60
        e 120 80 39 00
        <X 360 0
          /wV0aW9u
        >
        e 0 90 39 60
        e 120 80 39 00
        <X 120 0
          /wVmb3I=
        >
        e 0 90 3b 60
        e 210 80 3b 00
        <X 270 0
          /wVtZQ==
        >
        e 0 90 39 60
        e 1050 80 39 00
        E 150 80 69 00
        E 960 90 69 60
        <X 210 0
          /wVTdHJhbmdl
        >
        e 0 90 2f 60
        e 360 80 2f 00
        <X 150 0
          /wVhcw==
        >
        e 0 90 2f 60
        e 120 80 2f 00
        <X 120 0
          /wVpdA==
        >
        e 0 90 2f 60
        e 90 80 2f 00
        <X 150 0
          /wVzZWVtcw==
        >
        e 0 90 39 60
        e 390 80 39 00
        <X 90 0
          /wUr
        >
        e 0 90 37 60
        e 360 80 37 00
        E 0 90 01 60
        E 30 80 01 00
        <X 90 0
          /wVJJ2Qj
        >
        e 0 90 37 60
        e 90 80 37 00
        <X 150 0
          /wVyYXRoLQ==
        >
        e 0 90 39 60
        e 150 80 39 00
        <X 90 0
          /wVlcg==
        >
        e 0 90 39 60
        e 150 80 39 00
        <X 90 0
          /wVkaXMt
        >
        e 0 90 39 60
        e 120 80 39 00
        <X 120 0
          /wVzb2x2ZQ==
        >
        e 0 90 3b 60
        e 600 80 3b 00
        <X 120 0
          /wV0aGFu
        >
        e 0 90 39 60
        e 60 80 39 00
        <X 180 0
          /wVoYXZl
        >
        e 0 90 39 60
        e 270 80 39 00
        <X 210 0
          /wV5b3U=
        >
        e 0 90 39 60
        e 150 80 39 00
        <X 90 0
          /wVpZy0=
        >
        e 0 90 37 60
        e 90 80 37 00
        <X 150 0
          /wVub3Jl
        >
        e 0 90 39 60
        e 30 80 39 00
        <X 30 0
          /wUr
        >
        e 0 90 3b 60
        e 270 80 3b 00
        <X 120 0
          /wVtZQ==
        >
        e 0 90 39 60
        e 510 80 39 00
        E 240 80 69 00
        E 1200 90 69 60
        <X 240 0
          /wVUaGU=
        >
        e 0 90 3b 60
        e 120 80 3b 00
        <X 120 0
          /wVncm91bmQ=
        >
        e 0 90 3e 60
        e 330 80 3e 00
        <X 150 0
          /wVtYXk=
        >
        e 0 90 3e 60
        e 180 80 3e 00
        <X 60 0
          /wViZQ==
        >
        e 0 90 3e 60
        e 120 80 3e 00
        <X 120 0
          /wVtb3Yt
        >
        e 0 90 40 60
        e 180 80 40 00
        <X 60 0
          /wUr
        >
        e 0 90 3e 60
        e 30 80 3e 00
        <X 210 0
          /wVpbmc=
        >
        e 0 90 3b 60
        e 330 80 3b 00
        <X 150 0
          /wVmYXN0
        >
        e 0 90 3b 60
        e 630 80 3b 00
        E 30 80 69 00
        E 30 90 69 60
        E 0 90 74 60
        <X 30 0
          /wVCdXQ=
        >
        e 0 90 3b 60
        e 150 80 3b 00
        <X 90 0
          /wVJ
        >
        e 0 90 3c 60
        e 120 80 3c 00
        <X 120 0
          /wV0aWVk
        >
        e 0 90 3b 60
        e 330 80 3b 00
        <X 150 0
          /wVteQ==
        >
        e 0 90 39 60
        e 300 80 39 00
        <X 180 0
          /wVib290cw==
        >
        e 0 90 39 60
        e 330 80 39 00
        <X 150 0
          /wV0bw==
        >
        e 0 90 39 60
        e 120 80 39 00
        <X 120 0
          /wVh
        >
        e 0 90 39 60
        e 60 80 39 00
        <X 180 0
          /wVicm8t
        >
        e 0 90 3b 60
        e 90 80 3b 00
        <X 120 0
          /wVrZW4=
        >
        e 0 90 39 60
        e 120 80 39 00
        <X 150 0
          /wVtYXN0
        >
        e 0 90 39 60
        e 1440 80 39 00
        <X 240 0
          /wFbaWRsZV0=
        >
        E 0 80 69 00
        E 0 80 74 00
        <X 7680 0
          /wFbbWVsbG93XQ==
        >
        E 0 90 69 60
        <X 240 0
          /wVUaGU=
        >
        e 0 90 2f 60
        e 90 80 2f 00
        <X 150 0
          /wVkaWYt
        >
        e 0 90 2f 60
        e 360 80 2f 00
        <X 120 0
          /wVmZXJlbmNl
        >
        e 0 90 2f 60
        e 120 80 2f 00
        <X 120 0
          /wVpcw==
        >
        e 0 90 2f 60
        e 120 80 2f 00
        <X 120 0
          /wVjbGVhcg==
        >
        e 0 90 39 60
        e 360 80 39 00
        <X 120 0
          /wUr
        >
        e 0 90 37 60
        e 600 80 37 00
        E 120 80 69 00
        E 960 90 69 60
        <X 240 0
          /wVZb3U=
        >
        e 0 90 37 60
        e 90 80 37 00
        <X 150 0
          /wV0aHJvdw==
        >
        e 0 90 39 60
        e 120 80 39 00
        <X 120 0
          /wVpdA==
        >
        e 0 90 39 60
        e 120 80 39 00
        <X 120 0
          /wVpbg==
        >
        e 0 90 39 60
        e 390 80 39 00
        <X 90 0
          /wV5b3Vy
        >
        e 0 90 39 60
        e 90 80 39 00
        <X 150 0
          /wVjYXVsLQ==
        >
        e 0 90 3b 60
        e 390 80 3b 00
        <X 90 0
          /wVkcm9u
        >
        e 0 90 39 60
        e 870 80 39 00
        E 90 80 69 00
        E 1200 90 69 60
        <X 240 0
          /wVSdXN0
        >
        e 0 90 2f 60
        e 360 80 2f 00
        <X 120 0
          /wVhbmQ=
        >
        e 0 90 2f 60
        e 90 80 2f 00
        <X 150 0
          /wV2ZS0=
        >
        e 0 90 2f 60
        e 90 80 2f 00
        <X 150 0
          /wVuZWVy
        >
        e 0 90 36 60
        e 360 80 36 00
        <X 120 0
          /wUr
        >
        e 0 90 37 60
        e 360 80 37 00
        E 120 90 01 60
        E 30 80 01 00
        <X 210 0
          /wVkdXNr
        >
        e 0 90 39 60
        e 360 80 39 00
        <X 120 0
          /wVhbmQ=
        >
        e 0 90 39 60
        e 150 80 39 00
        <X 90 0
          /wVkYXdu
        >
        e 0 90 3b 60
        e 600 80 3b 00
        E 30 80 69 00
        E 60 90 69 60
        <X 30 0
          /wVTdGVpbi0=
        >
        e 0 90 39 60
        e 390 80 39 00
        <X 90 0
          /wV3YXlz
        >
        e 0 90 39 60
        e 360 80 39 00
        <X 120 0
          /wVhbmQ=
        >
        e 0 90 37 60
        e 120 80 37 00
        <X 120 0
          /wVCYWxkLQ==
        >
        e 0 90 39 60
        e 30 80 39 00
        <X 30 0
          /wUr
        >
        e 0 90 3b 60
        e 300 80 3b 00
        <X 120 0
          /wV3aW5z
        >
        e 0 90 39 60
        e 1080 80 39 00
        E 120 80 69 00
        E 720 90 69 60
        E 0 90 74 60
        <X 240 0
          /wVZb3U=
        >
        e 0 90 3b 60
        e 90 80 3b 00
        <X 150 0
          /wVzdGFydA==
        >
        e 0 90 3e 60
        e 360 80 3e 00
        <X 120 0
          /wV3aXRo
        >
        e 0 90 3e 60
        e 120 80 3e 00
        <X 120 0
          /wVh
        >
        e 0 90 3e 60
        e 90 80 3e 00
        <X 150 0
          /wVzaW0t
        >
        e 0 90 40 60
        e 330 80 40 00
        <X 150 0
          /wVwbGU=
        >
        e 0 90 3b 60
        e 330 80 3b 00
        <X 150 0
          /wVzdG9jaw==
        >
        e 0 90 3b 60
        e 540 80 3b 00
        <X 180 0
          /wVvZg==
        >
        e 0 90 3c 60
        e 120 80 3c 00
        <X 120 0
          /wVhbGw=
        >
        e 0 90 3b 60
        e 600 80 3b 00
        <X 120 0
          /wV0aGU=
        >
        e 0 90 39 60
        e 90 80 39 00
        <X 150 0
          /wV3YXN0ZQ==
        >
        e 0 90 39 60
        e 540 80 39 00
        E 180 90 01 60
        E 30 80 01 00
        <X 210 0
          /wVhbmQ=
        >
        e 0 90 39 60
        e 60 80 39 00
        <X 180 0
          /wVzYWx0
        >
        e 0 90 3b 60
        e 330 80 3b 00
        <X 150 0
          /wV0bw==
        >
        e 0 90 39 60
        e 90 80 39 00
        <X 150 0
          /wV0YXN0ZQ==
        >
        e 0 90 39 60
        e 1170 80 39 00
        E 30 80 69 00
        E 0 80 74 00
        <X 240 0
          /wFbaWRsZV0=
        >
        <X 6720 0
          /wFbcGxheV0=
        >
        E 240 90 69 60
        <X 240 0
          /wVCdXQ=
        >
        e 0 90 3c 60
        e 90 80 3c 00
        <X 150 0
          /wVkYW1u
        >
        e 0 90 43 60
        e 300 80 43 00
        <X 180 0
          /wVteQ==
        >
        e 0 90 43 60
        e 210 80 43 00
        <X 270 0
          /wVsdWNr
        >
        e 0 90 40 60
        e 240 80 40 00
        <X 240 0
          /wVhbmQ=
        >
        e 0 90 3e 60
        e 60 80 3e 00
        <X 180 0
          /wVkYW1u
        >
        e 0 90 43 60
        e 270 80 43 00
        <X 210 0
          /wV0aGVzZQ==
        >
        e 0 90 43 60
        e 300 80 43 00
        <X 180 0
          /wVmcmllbmRz
        >
        e 0 90 40 60
        e 150 80 40 00
        <X 90 0
          /wUr
        >
        e 0 90 3e 60
        e 150 80 3e 00
        E 90 80 69 00
        E 240 90 69 60
        <X 240 0
          /wVUaGF0
        >
        e 0 90 3e 60
        e 90 80 3e 00
        <X 150 0
          /wVrZWVw
        >
        e 0 90 40 60
        e 90 80 40 00
        <X 150 0
          /wVvbg==
        >
        e 0 90 39 60
        e 480 80 39 00
        <X 240 0
          /wVjb21iLQ==
        >
        e 0 90 39 60
        e 360 80 39 00
        <X 120 0
          /wVpbmc=
        >
        e 0 90 3c 60
        e 150 80 3c 00
        <X 90 0
          /wViYWNr
        >
        e 0 90 3c 60
        e 330 80 3c 00
        <X 150 0
          /wV0aGVpcg==
        >
        e 0 90 3e 60
        e 240 80 3e 00
        <X 240 0
          /wVzbWlsZXM=
        >
        e 0 90 40 60
        e 270 80 40 00
        E 210 80 69 00
        E 240 90 69 60
        E 0 90 74 60
        <X 240 0
          /wVJ
        >
        e 0 90 3c 60
        e 90 80 3c 00
        <X 150 0
          /wVzYXZl
        >
        e 0 90 43 60
        e 300 80 43 00
        <X 180 0
          /wVteQ==
        >
        e 0 90 43 60
        e 240 80 43 00
        <X 240 0
          /wVncmFjZQ==
        >
        e 0 90 40 60
        e 120 80 40 00
        <X 120 0
          /wUr
        >
        e 0 90 3e 60
        e 120 80 3e 00
        <X 120 0
          /wV3aXRo
        >
        e 0 90 3e 60
        e 90 80 3e 00
        <X 150 0
          /wVoYWxmPQ==
        >
        e 0 90 43 60
        e 270 80 43 00
        <X 210 0
          /wVhc3NlZA==
        >
        e 0 90 43 60
        e 300 80 43 00
        <X 180 0
          /wVndWlsdA==
        >
        e 0 90 40 60
        e 90 80 40 00
        <X 150 0
          /wUr
        >
        e 0 90 3e 60
        e 150 80 3e 00
        E 90 80 69 00
        E 0 80 74 00
        E 240 90 69 60
        <X 240 0
          /wVBbmQ=
        >
        e 0 90 3e 60
        e 120 80 3e 00
        <X 120 0
          /wVsYXkj
        >
        e 0 90 40 60
        e 150 80 40 00
        <X 90 0
          /wVkb3duIw==
        >
        e 0 90 3c 60
        e 390 80 3c 00
        <X 90 0
          /wV0aGU=
        >
        e 0 90 3b 60
        e 60 80 3b 00
        <X 180 0
          /wVxdWlsdA==
        >
        e 0 90 3c 60
        e 360 80 3c 00
        <X 120 0
          /wV1cC0=
        >
        e 0 90 3b 60
        e 150 80 3b 00
        <X 90 0
          /wVvbg==
        >
        e 0 90 3c 60
        e 330 80 3c 00
        <X 150 0
          /wV0aGU=
        >
        e 0 90 3b 60
        e 120 80 3b 00
        <X 120 0
          /wVsYXdu
        >
        e 0 90 3e 60
        e 630 80 3e 00
        <X 90 0
          /wUr
        >
        e 0 90 40 60
        e 150 80 40 00
        E 90 80 69 00
        E 240 90 69 60
        <X 240 0
          /wVTcHJlYWQ=
        >
        e 0 90 43 60
        e 330 80 43 00
        <X 120 0
          /wVteQ==
        >
        e 0 90 43 60
        e 300 80 43 00
        <X 210 0
          /wVhcm1z
        >
        e 0 90 3e 60
        e 330 80 3e 00
        <X 150 0
          /wVhbmQ=
        >
        e 0 90 3e 60
        e 90 80 3e 00
        <X 150 0
          /wVzb2FrIw==
        >
        e 0 90 43 60
        e 390 80 43 00
        <X 90 0
          /wV1cA==
        >
        e 0 90 3c 60
        e 150 80 3c 00
        E 90 90 01 60
        E 30 80 01 00
        <X 210 0
          /wVjb24t
        >
        e 0 90 3c 60
        e 150 80 3c 00
        <X 90 0
          /wVncmF0LQ==
        >
        e 0 90 3c 60
        e 330 80 3c 00
        <X 150 0
          /wV1LQ==
        >
        e 0 90 3c 60
        e 150 80 3c 00
        <X 90 0
          /wVsYS0=
        >
        e 0 90 45 60
        e 90 80 45 00
        <X 150 0
          /wUr
        >
        e 0 90 43 60
        e 90 80 43 00
        <X 150 0
          /wV0aW9ucw==
        >
        e 0 90 43 60
        e 1530 80 43 00
        <X 150 0
          /wFbdGFtYm91cmluZV9zdGFydF0=
        >
        E 0 80 69 00
        E 720 90 69 60
        E 240 90 60 60
        E 120 80 60 00
        E 1800 90 60 60
        E 120 80 60 00
        E 1800 90 60 60
        E 120 80 60 00
        E 120 80 69 00
        E 1440 90 69 60
        E 240 90 60 60
        E 120 80 60 00
        E 1800 90 60 60
        E 120 80 60 00
        E 1800 90 60 60
        E 120 80 60 00
        E 120 80 69 00
        E 1440 90 69 60
        E 240 90 60 60
        E 120 80 60 00
        E 1800 90 60 60
        E 120 80 60 00
        E 1800 90 60 60
        E 120 80 60 00
        E 120 80 69 00
        E 1440 90 69 60
        E 240 90 60 60
        E 120 80 60 00
        E 1800 90 60 60
        E 120 80 60 00
        E 1800 90 60 60
        E 120 80 60 00
        E 120 80 69 00
        E 1440 90 69 60
        E 240 90 60 60
        E 120 80 60 00
        E 1800 90 60 60
        E 120 80 60 00
        E 1800 90 60 60
        E 120 80 60 00
        <X 1800 0
          /wFbaWRsZV9yZWFsdGltZV0=
        >
        <X 0 0
          /wFbdGFtYm91cmluZV9lbmRd
        >
        E 0 80 69 00
        E 8640 b0 7b 00
        GUID {9CFA4B07-E0BB-4E86-9F22-8A8AA71AD820}
        IGNTEMPO 0 120.00000000 4 4
        SRCCOLOR 12
        VELLANE 132 123 128
        COLORMAP "C:\Program Files (x86)\REAPER\Data\color_maps\rockband_guitarbass.png"
        CFGEDITVIEW -11808.000000 0.004654 8 12 0 0 0
        CFGEDIT 1 1 0 1 1 0 1 1 1 1 1 0.06250000 -8 0 1370 744 0 2 0 2 0.00000000 0 1 0 0 0.500000 0 0 1.000000 64
        KEYSNAP 0 7 "102030050700" 0 "Pentatonic"
        EVTFILTER 0 -1 -1 -1 -1 0 1 0 0 -1.00000000 -1.00000000
      >
    >
  >
  <TRACK '{21B25490-8511-4B5F-979D-603978911D3A}'
    NAME "PART KEYS"
    PEAKCOL 16576
    BEAT -1
    AUTOMODE 0
    VOLPAN 1.00000000000000 0.00000000000000 -1.00000000000000 -1.00000000000000 1.00000000000000
    MUTESOLO 0 0 0
    IPHASE 0
    ISBUS 0 0
    BUSCOMP 0 0
    SHOWINMIX 1 0.666700 0.500000 1 0.500000 -1 -1 -1
    FREEMODE 0
    SEL 0
    REC 0 0 0 0 0 0 0
    VU 2
    TRACKHEIGHT 0 0
    INQ 0 0 0 0.5000000000 100 0 0 100
    NCHAN 2
    FX 1
    TRACKID {21B25490-8511-4B5F-979D-603978911D3A}
    PERF 0
    MIDIOUT -1
    <MIDINOTENAMES
      0 127 "Trill Marker"
      0 125 "---"
      0 124 "BRE"
      0 123 "BRE"
      0 122 "BRE"
      0 121 "BRE"
      0 120 "BRE (use all 5)"
      0 119 "----"
      0 116 "OVERDRIVE"
      0 115 "----"
      0 103 "Solo Marker"
      0 102 "Force HOPO Off"
      0 101 "Force HOPO On"
      0 100 "EXPERT Orange"
      0 99 "EXPERT Blue"
      0 98 "EXPERT Yellow"
      0 97 "EXPERT Red"
      0 96 "EXPERT Green"
      0 95 "----"
      0 90 "Force HOPO Off"
      0 89 "Force HOPO On"
      0 88 "HARD Orange"
      0 87 "HARD Blue"
      0 86 "HARD Yellow"
      0 85 "HARD Red"
      0 84 "HARD Green"
      0 83 "----"
      0 76 "MEDIUM Orange"
      0 75 "MEDIUM Blue"
      0 74 "MEDIUM Yellow"
      0 73 "MEDIUM Red"
      0 72 "MEDIUM Green"
      0 71 "----"
      0 64 "EASY Orange"
      0 63 "EASY Blue"
      0 62 "EASY Yellow"
      0 61 "EASY Red"
      0 60 "EASY Green"
    >
    MAINSEND 1 0
    <FXCHAIN
      WNDRECT 0 42 878 554
      SHOW 0
      LASTSEL 0
      DOCKED 0
      BYPASS 0 0
      <VST "VSTi: RBN Preview (RBN)" "rbprev_vst64.dll" 0 ""
        dnBicu5e7f4AAAAAAgAAAAEAAAAAAAAAAgAAAAAAAAAEAAAAAQAAAA==
        AAAQAAMAqgAAABAAAAA=
      >
      FLOATPOS 0 0 0 0
      FXID {E510D42C-8C0F-4912-AD75-7B4F00D2906B}
      WAK 0
    >
    <ITEM
      POSITION 0.00000000000000
      SNAPOFFS 0.00000000000000
      LENGTH 236.43059832085180
      LOOP 0
      ALLTAKES 0
      SEL 0
      FADEIN 1 0.000000 0.000000 1 0
      FADEOUT 1 0.000000 0.000000 1 0
      MUTE 0
      IGUID {18E8D81F-8BE6-4409-B43F-0231E9B9E1A7}
      IID 34
      NAME "PART KEYS"
      VOLPAN 1.000000 0.000000 1.000000 -1.000000
      SOFFS 0.00000000000000 0.00000000000000
      PLAYRATE 1.00000000000000 1 0.00000000000000 -1
      CHANMODE 0
      GUID {4E5E84C7-8C0B-4E89-BBBD-68C8FF29AD07}
      <SOURCE MIDI
        HASDATA 1 480 QN
        POOLEDEVTS {27E9F280-8EB7-4D72-9640-2AB87FA831F1}
        <X 0 0
          /wNQQVJUIEtFWVM=
        >
        <X 3840 0
          /wFbcGxheV0=
        >
        E 0 90 3e 60
        E 0 90 4b 60
        E 0 90 57 60
        E 0 90 63 60
        E 0 90 67 60
        E 120 80 3e 00
        E 0 80 4b 00
        E 0 80 57 00
        E 0 80 63 00
        E 2760 90 3e 60
        E 0 90 4b 60
        E 0 90 58 60
        E 0 90 64 60
        E 120 80 3e 00
        E 0 80 4b 00
        E 0 80 58 00
        E 0 80 64 00
        E 840 90 3c 60
        E 0 90 48 60
        E 0 90 54 60
        E 0 90 60 60
        E 120 80 3c 00
        E 0 80 48 00
        E 0 80 54 00
        E 0 80 60 00
        E 1800 90 74 60
        E 240 90 3e 60
        E 0 90 4b 60
        E 0 90 58 60
        E 0 90 64 60
        E 120 80 3e 00
        E 0 80 4b 00
        E 0 80 58 00
        E 0 80 64 00
        E 200 90 64 60
        E 80 80 64 00
        E 80 90 4b 60
        E 0 90 57 60
        E 0 90 63 60
        E 0 90 65 60
        E 80 80 4b 00
        E 0 80 57 00
        E 0 80 63 00
        E 0 90 62 60
        E 80 80 62 00
        E 0 90 61 60
        E 80 80 61 00
        E 0 90 3e 60
        E 0 90 4b 60
        E 0 90 58 60
        E 0 90 64 60
        E 120 80 3e 00
        E 0 80 4b 00
        E 0 80 58 00
        E 0 80 64 00
        E 0 90 63 60
        E 120 80 63 00
        E 0 90 56 60
        E 0 90 62 60
        E 120 80 65 00
        E 0 80 56 00
        E 0 80 62 00
        E 360 90 49 60
        E 0 90 55 60
        E 0 90 60 60
        E 120 80 49 00
        E 0 80 55 00
        E 0 80 60 00
        E 0 90 61 60
        E 0 90 65 60
        E 120 80 74 00
        E 0 80 61 00
        E 0 80 65 00
        E 120 90 56 60
        E 0 90 62 60
        E 120 80 56 00
        E 0 80 62 00
        E 3240 90 60 60
        E 120 80 60 00
        E 0 90 55 60
        E 0 90 61 60
        E 0 90 65 60
        E 80 80 55 00
        E 0 80 61 00
        E 0 90 62 60
        E 80 80 62 00
        E 0 90 61 60
        E 80 80 61 00
        E 0 90 3e 60
        E 0 90 4b 60
        E 0 90 57 60
        E 0 90 63 60
        E 120 80 65 00
        E 0 80 3e 00
        E 0 80 4b 00
        E 0 80 57 00
        E 0 80 63 00
        E 1320 90 3e 60
        E 0 90 4b 60
        E 0 90 58 60
        E 0 90 64 60
        E 120 80 3e 00
        E 0 80 4b 00
        E 0 80 58 00
        E 0 80 64 00
        E 360 90 3e 60
        E 0 90 4b 60
        E 0 90 57 60
        E 0 90 63 60
        E 120 80 3e 00
        E 0 80 4b 00
        E 0 80 57 00
        E 0 80 63 00
        E 1080 90 4b 60
        E 0 90 58 60
        E 0 90 64 60
        E 120 80 4b 00
        E 0 80 58 00
        E 0 80 64 00
        E 200 90 64 60
        E 80 80 64 00
        E 80 90 57 60
        E 0 90 63 60
        E 0 90 65 60
        E 80 80 57 00
        E 0 80 63 00
        E 0 90 62 60
        E 80 80 62 00
        E 0 90 61 60
        E 80 80 61 00
        E 0 90 3c 60
        E 0 90 48 60
        E 0 90 54 60
        E 0 90 60 60
        E 80 80 65 00
        E 0 80 3c 00
        E 0 80 48 00
        E 0 80 54 00
        E 0 80 60 00
        <X 880 0
          /wFbaWRsZV0=
        >
        E 0 80 67 00
        <X 60480 0
          /wFbcGxheV0=
        >
        E 0 90 3d 60
        E 0 90 4a 60
        E 0 90 56 60
        E 0 90 62 60
        E 120 80 3d 00
        E 0 80 4a 00
        E 0 80 56 00
        E 0 80 62 00
        <X 240 0
          /wFbaWRsZV0=
        >
        <X 7320 0
          /wFbcGxheV0=
        >
        E 0 90 3d 60
        E 0 90 4a 60
        E 0 90 56 60
        E 0 90 62 60
        E 0 90 74 60
        E 120 80 3d 00
        E 0 80 4a 00
        E 0 80 56 00
        E 0 80 62 00
        <X 360 0
          /wFbaWRsZV0=
        >
        <X 3360 0
          /wFbcGxheV0=
        >
        E 0 90 3e 60
        E 0 90 4b 60
        E 0 90 58 60
        E 0 90 64 60
        E 120 80 74 00
        E 0 80 3e 00
        E 0 80 4b 00
        E 0 80 58 00
        E 0 80 64 00
        <X 240 0
          /wFbaWRsZV0=
        >
        <X 7320 0
          /wFbcGxheV0=
        >
        E 0 90 3d 60
        E 0 90 4a 60
        E 0 90 56 60
        E 0 90 62 60
        E 120 80 3d 00
        E 0 80 4a 00
        E 0 80 56 00
        E 0 80 62 00
        <X 240 0
          /wFbaWRsZV0=
        >
        <X 76440 0
          /wFbcGxheV0=
        >
        E 0 90 3d 60
        E 0 90 4a 60
        E 0 90 56 60
        E 0 90 62 60
        E 120 80 3d 00
        E 0 80 4a 00
        E 0 80 56 00
        E 0 80 62 00
        <X 240 0
          /wFbaWRsZV0=
        >
        <X 6360 0
          /wFbcGxheV0=
        >
        E 0 90 3e 60
        E 0 90 4b 60
        E 0 90 58 60
        E 0 90 64 60
        E 0 90 74 60
        E 120 80 3e 00
        E 0 80 4b 00
        E 0 80 58 00
        E 0 80 64 00
        E 120 90 4b 60
        E 0 90 57 60
        E 0 90 63 60
        E 120 80 4b 00
        E 0 80 57 00
        E 0 80 63 00
        E 600 90 3d 60
        E 0 90 4a 60
        E 0 90 56 60
        E 0 90 62 60
        E 120 80 3d 00
        E 0 80 4a 00
        E 0 80 56 00
        E 0 80 62 00
        <X 120 0
          /wFbaWRsZV0=
        >
        E 240 80 74 00
        <X 3360 0
          /wFbcGxheV0=
        >
        E 0 90 3e 60
        E 0 90 4b 60
        E 0 90 57 60
        E 0 90 63 60
        E 120 80 3e 00
        E 0 80 4b 00
        E 0 80 57 00
        E 0 80 63 00
        <X 240 0
          /wFbaWRsZV0=
        >
        <X 6360 0
          /wFbcGxheV0=
        >
        E 0 90 67 60
        E 480 90 48 60
        E 0 90 54 60
        E 0 90 60 60
        E 120 80 48 00
        E 0 80 54 00
        E 0 80 60 00
        E 0 90 61 60
        E 0 90 65 60
        E 120 80 61 00
        E 0 90 56 60
        E 0 90 62 60
        E 120 80 56 00
        E 0 80 62 00
        E 0 90 63 60
        E 120 80 63 00
        E 0 90 3e 60
        E 0 90 4b 60
        E 0 90 58 60
        E 0 90 64 60
        E 120 80 65 00
        E 0 80 3e 00
        E 0 80 4b 00
        E 0 80 58 00
        E 0 80 64 00
        E 840 90 3e 60
        E 0 90 4b 60
        E 0 90 57 60
        E 0 90 63 60
        E 0 90 74 60
        E 120 80 3e 00
        E 0 80 4b 00
        E 0 80 57 00
        E 0 80 63 00
        E 120 90 58 60
        E 0 90 64 60
        E 120 80 58 00
        E 0 80 64 00
        E 120 90 4a 60
        E 0 90 56 60
        E 0 90 62 60
        E 120 80 4a 00
        E 0 80 56 00
        E 0 80 62 00
        E 120 90 57 60
        E 0 90 63 60
        E 120 80 57 00
        E 0 80 63 00
        E 360 90 54 60
        E 0 90 60 60
        E 120 80 54 00
        E 0 80 60 00
        E 120 90 3c 60
        E 0 90 49 60
        E 0 90 55 60
        E 0 90 61 60
        E 120 80 3c 00
        E 0 80 49 00
        E 0 80 55 00
        E 0 80 61 00
        E 120 90 56 60
        E 0 90 62 60
        E 120 80 56 00
        E 0 80 62 00
        E 360 90 55 60
        E 0 90 61 60
        E 120 80 55 00
        E 0 80 61 00
        E 120 90 4a 60
        E 0 90 56 60
        E 0 90 62 60
        E 120 80 4a 00
        E 0 80 56 00
        E 0 80 62 00
        E 360 90 3e 60
        E 0 90 4b 60
        E 0 90 57 60
        E 0 90 63 60
        E 120 80 74 00
        E 0 80 3e 00
        E 0 80 4b 00
        E 0 80 57 00
        E 0 80 63 00
        E 1560 90 55 60
        E 0 90 61 60
        E 80 80 55 00
        E 0 80 61 00
        E 0 90 62 60
        E 0 90 65 60
        E 80 80 62 00
        E 0 90 63 60
        E 80 80 63 00
        E 0 90 3e 60
        E 0 90 4b 60
        E 0 90 58 60
        E 0 90 64 60
        E 120 80 65 00
        E 0 80 3e 00
        E 0 80 4b 00
        E 0 80 58 00
        E 0 80 64 00
        E 120 90 57 60
        E 0 90 63 60
        E 120 80 57 00
        E 0 80 63 00
        E 120 90 4a 60
        E 0 90 56 60
        E 0 90 62 60
        E 120 80 4a 00
        E 0 80 56 00
        E 0 80 62 00
        E 120 90 55 60
        E 0 90 61 60
        E 120 80 55 00
        E 0 80 61 00
        E 120 90 3c 60
        E 0 90 48 60
        E 0 90 54 60
        E 0 90 60 60
        E 120 80 3c 00
        E 0 80 48 00
        E 0 80 54 00
        E 0 80 60 00
        E 120 90 55 60
        E 0 90 61 60
        E 120 80 55 00
        E 0 80 61 00
        E 120 90 4a 60
        E 0 90 56 60
        E 0 90 62 60
        E 120 80 4a 00
        E 0 80 56 00
        E 0 80 62 00
        E 120 90 54 60
        E 0 90 60 60
        E 120 80 54 00
        E 0 80 60 00
        E 120 90 3c 60
        E 0 90 49 60
        E 0 90 55 60
        E 0 90 61 60
        E 120 80 3c 00
        E 0 80 49 00
        E 0 80 55 00
        E 0 80 61 00
        E 1320 90 3c 60
        E 0 90 48 60
        E 0 90 54 60
        E 0 90 60 60
        E 80 80 3c 00
        E 0 80 48 00
        E 0 80 54 00
        E 0 80 60 00
        E 0 90 61 60
        E 0 90 65 60
        E 80 80 61 00
        E 0 90 62 60
        E 80 80 62 00
        E 0 90 57 60
        E 0 90 63 60
        E 80 80 57 00
        E 0 80 63 00
        E 0 90 64 60
        E 80 80 65 00
        E 0 80 64 00
        E 800 90 3d 60
        E 0 90 4a 60
        E 0 90 56 60
        E 0 90 62 60
        E 120 80 3d 00
        E 0 80 4a 00
        E 0 80 56 00
        E 0 80 62 00
        E 360 90 4b 60
        E 0 90 57 60
        E 0 90 63 60
        E 120 80 4b 00
        E 0 80 57 00
        E 0 80 63 00
        E 280 90 60 60
        E 80 80 60 00
        E 0 90 55 60
        E 0 90 61 60
        E 0 90 65 60
        E 80 80 55 00
        E 0 80 61 00
        E 0 90 62 60
        E 80 80 62 00
        E 0 90 63 60
        E 80 80 63 00
        E 0 90 3e 60
        E 0 90 4b 60
        E 0 90 58 60
        E 0 90 64 60
        E 120 80 65 00
        E 0 80 3e 00
        E 0 80 4b 00
        E 0 80 58 00
        E 0 80 64 00
        E 240 90 57 60
        E 0 90 63 60
        E 120 80 57 00
        E 0 80 63 00
        E 240 90 4a 60
        E 0 90 56 60
        E 0 90 62 60
        E 120 80 4a 00
        E 0 80 56 00
        E 0 80 62 00
        E 360 90 3c 60
        E 0 90 49 60
        E 0 90 55 60
        E 0 90 61 60
        E 120 80 3c 00
        E 0 80 49 00
        E 0 80 55 00
        E 0 80 61 00
        E 360 90 48 60
        E 0 90 54 60
        E 0 90 60 60
        E 120 80 48 00
        E 0 80 54 00
        E 0 80 60 00
        E 280 90 54 60
        E 0 90 60 60
        E 80 80 54 00
        E 0 80 60 00
        E 80 90 61 60
        E 80 80 61 00
        E 80 90 3d 60
        E 0 90 4a 60
        E 0 90 56 60
        E 0 90 62 60
        E 80 80 3d 00
        E 0 80 4a 00
        E 0 80 56 00
        E 0 80 62 00
        E 80 90 60 60
        E 80 80 60 00
        E 0 90 55 60
        E 0 90 61 60
        E 0 90 65 60
        E 80 80 55 00
        E 0 80 61 00
        E 0 90 62 60
        E 80 80 62 00
        E 0 90 63 60
        E 80 80 63 00
        E 0 90 3d 60
        E 0 90 4a 60
        E 0 90 56 60
        E 0 90 62 60
        E 80 80 3d 00
        E 0 80 4a 00
        E 0 80 56 00
        E 0 80 62 00
        E 0 90 63 60
        E 80 80 63 00
        E 0 90 64 60
        E 80 80 64 00
        E 0 90 57 60
        E 0 90 63 60
        E 80 80 57 00
        E 0 80 63 00
        E 0 90 64 60
        E 80 80 64 00
        E 0 90 63 60
        E 80 80 63 00
        E 0 90 3d 60
        E 0 90 4a 60
        E 0 90 56 60
        E 0 90 62 60
        E 80 80 3d 00
        E 0 80 4a 00
        E 0 80 56 00
        E 0 80 62 00
        E 0 90 63 60
        E 80 80 63 00
        E 0 90 62 60
        E 80 80 62 00
        E 0 90 57 60
        E 0 90 63 60
        E 80 80 57 00
        E 0 80 63 00
        E 0 90 64 60
        E 80 80 65 00
        E 0 80 64 00
        E 740 90 3e 60
        E 0 90 4b 60
        E 0 90 58 60
        E 0 90 64 60
        E 60 80 3e 00
        E 0 80 4b 00
        E 0 80 58 00
        E 0 80 64 00
        E 180 90 57 60
        E 0 90 63 60
        E 60 80 57 00
        E 0 80 63 00
        E 240 90 55 60
        E 0 90 61 60
        E 120 80 55 00
        E 0 80 61 00
        E 120 90 48 60
        E 0 90 54 60
        E 0 90 60 60
        E 120 80 48 00
        E 0 80 54 00
        E 0 80 60 00
        E 120 90 56 60
        E 0 90 62 60
        E 120 80 56 00
        E 0 80 62 00
        E 120 90 3c 60
        E 0 90 49 60
        E 0 90 55 60
        E 0 90 61 60
        E 120 80 3c 00
        E 0 80 49 00
        E 0 80 55 00
        E 0 80 61 00
        E 120 90 57 60
        E 0 90 63 60
        E 120 80 57 00
        E 0 80 63 00
        E 120 90 4a 60
        E 0 90 56 60
        E 0 90 62 60
        E 120 80 4a 00
        E 0 80 56 00
        E 0 80 62 00
        E 40 90 62 60
        E 80 80 62 00
        E 0 90 57 60
        E 0 90 63 60
        E 0 90 65 60
        E 80 80 57 00
        E 0 80 63 00
        E 0 90 64 60
        E 80 80 64 00
        E 0 90 63 60
        E 80 80 63 00
        E 0 90 3d 60
        E 0 90 4a 60
        E 0 90 56 60
        E 0 90 62 60
        E 80 80 65 00
        E 0 80 3d 00
        E 0 80 4a 00
        E 0 80 56 00
        E 0 80 62 00
        E 160 90 55 60
        E 0 90 61 60
        E 120 80 55 00
        E 0 80 61 00
        E 120 90 4a 60
        E 0 90 56 60
        E 0 90 62 60
        E 120 80 4a 00
        E 0 80 56 00
        E 0 80 62 00
        E 120 90 54 60
        E 0 90 60 60
        E 120 80 54 00
        E 0 80 60 00
        E 120 90 3c 60
        E 0 90 49 60
        E 0 90 55 60
        E 0 90 61 60
        E 120 80 3c 00
        E 0 80 49 00
        E 0 80 55 00
        E 0 80 61 00
        E 360 90 3c 60
        E 0 90 48 60
        E 0 90 54 60
        E 0 90 60 60
        E 120 80 3c 00
        E 0 80 48 00
        E 0 80 54 00
        E 0 80 60 00
        E 1080 90 54 60
        E 0 90 60 60
        E 80 80 54 00
        E 0 80 60 00
        E 0 90 61 60
        E 0 90 65 60
        E 80 80 61 00
        E 0 90 62 60
        E 80 80 62 00
        E 0 90 3e 60
        E 0 90 4b 60
        E 0 90 57 60
        E 0 90 63 60
        E 80 80 3e 00
        E 0 80 4b 00
        E 0 80 57 00
        E 0 80 63 00
        E 0 90 61 60
        E 80 80 61 00
        E 0 90 62 60
        E 80 80 62 00
        E 0 90 57 60
        E 0 90 63 60
        E 80 80 57 00
        E 0 80 63 00
        E 0 90 64 60
        E 80 80 64 00
        E 0 90 60 60
        E 80 80 60 00
        E 0 90 49 60
        E 0 90 55 60
        E 0 90 61 60
        E 80 80 49 00
        E 0 80 55 00
        E 0 80 61 00
        E 0 90 62 60
        E 80 80 62 00
        E 0 90 63 60
        E 80 80 63 00
        E 0 90 56 60
        E 0 90 62 60
        E 80 80 56 00
        E 0 80 62 00
        E 0 90 63 60
        E 80 80 63 00
        E 0 90 64 60
        E 80 80 64 00
        E 0 90 3c 60
        E 0 90 49 60
        E 0 90 55 60
        E 0 90 61 60
        E 80 80 3c 00
        E 0 80 49 00
        E 0 80 55 00
        E 0 80 61 00
        E 0 90 62 60
        E 80 80 62 00
        E 0 90 63 60
        E 80 80 63 00
        E 0 90 54 60
        E 0 90 60 60
        E 80 80 54 00
        E 0 80 60 00
        E 0 90 61 60
        E 80 80 61 00
        E 0 90 60 60
        E 80 80 60 00
        E 0 90 49 60
        E 0 90 55 60
        E 0 90 61 60
        E 80 80 49 00
        E 0 80 55 00
        E 0 80 61 00
        E 0 90 62 60
        E 80 80 62 00
        E 0 90 63 60
        E 80 80 63 00
        E 0 90 58 60
        E 0 90 64 60
        E 80 80 65 00
        E 0 80 58 00
        E 0 80 64 00
        E 160 90 3d 60
        E 0 90 4a 60
        E 0 90 56 60
        E 0 90 62 60
        E 80 80 3d 00
        E 0 80 4a 00
        E 0 80 56 00
        E 0 80 62 00
        E 1120 90 56 60
        E 0 90 62 60
        E 80 80 56 00
        E 0 80 62 00
        E 160 90 4b 60
        E 0 90 58 60
        E 0 90 64 60
        E 80 80 4b 00
        E 0 80 58 00
        E 0 80 64 00
        E 160 90 56 60
        E 0 90 62 60
        E 80 80 56 00
        E 0 80 62 00
        E 160 90 3c 60
        E 0 90 49 60
        E 0 90 55 60
        E 0 90 61 60
        E 80 80 3c 00
        E 0 80 49 00
        E 0 80 55 00
        E 0 80 61 00
        E 160 90 56 60
        E 0 90 62 60
        E 80 80 56 00
        E 0 80 62 00
        E 160 90 48 60
        E 0 90 54 60
        E 0 90 60 60
        E 80 80 48 00
        E 0 80 54 00
        E 0 80 60 00
        E 160 90 55 60
        E 0 90 61 60
        E 80 80 55 00
        E 0 80 61 00
        E 160 90 3d 60
        E 0 90 4a 60
        E 0 90 56 60
        E 0 90 62 60
        E 80 80 3d 00
        E 0 80 4a 00
        E 0 80 56 00
        E 0 80 62 00
        E 160 90 57 60
        E 0 90 63 60
        E 80 80 57 00
        E 0 80 63 00
        E 160 90 48 60
        E 0 90 54 60
        E 0 90 60 60
        E 80 80 48 00
        E 0 80 54 00
        E 0 80 60 00
        E 160 90 56 60
        E 0 90 62 60
        E 80 80 56 00
        E 0 80 62 00
        E 0 90 61 60
        E 0 90 65 60
        E 80 80 61 00
        E 0 90 60 60
        E 80 80 60 00
        E 0 90 3c 60
        E 0 90 49 60
        E 0 90 55 60
        E 0 90 61 60
        E 80 80 65 00
        E 0 80 3c 00
        E 0 80 49 00
        E 0 80 55 00
        E 0 80 61 00
        E 2080 90 54 60
        E 0 90 60 60
        E 80 80 54 00
        E 0 80 60 00
        E 0 90 61 60
        E 0 90 65 60
        E 80 80 61 00
        E 0 90 62 60
        E 80 80 62 00
        E 0 90 4b 60
        E 0 90 57 60
        E 0 90 63 60
        E 80 80 4b 00
        E 0 80 57 00
        E 0 80 63 00
        E 0 90 60 60
        E 80 80 60 00
        E 0 90 61 60
        E 80 80 61 00
        E 0 90 56 60
        E 0 90 62 60
        E 80 80 56 00
        E 0 80 62 00
        E 0 90 63 60
        E 80 80 63 00
        E 0 90 64 60
        E 80 80 64 00
        E 0 90 3c 60
        E 0 90 49 60
        E 0 90 55 60
        E 0 90 61 60
        E 80 80 3c 00
        E 0 80 49 00
        E 0 80 55 00
        E 0 80 61 00
        E 0 90 62 60
        E 80 80 62 00
        E 0 90 63 60
        E 80 80 63 00
        E 0 90 58 60
        E 0 90 64 60
        E 80 80 58 00
        E 0 80 64 00
        E 0 90 62 60
        E 80 80 62 00
        E 0 90 63 60
        E 80 80 63 00
        E 0 90 4a 60
        E 0 90 56 60
        E 0 90 62 60
        E 80 80 4a 00
        E 0 80 56 00
        E 0 80 62 00
        E 0 90 61 60
        E 80 80 61 00
        E 0 90 62 60
        E 80 80 62 00
        E 0 90 55 60
        E 0 90 61 60
        E 80 80 55 00
        E 0 80 61 00
        E 0 90 62 60
        E 80 80 62 00
        E 0 90 63 60
        E 80 80 63 00
        E 0 90 3d 60
        E 0 90 4a 60
        E 0 90 56 60
        E 0 90 62 60
        E 80 80 65 00
        E 0 80 3d 00
        E 0 80 4a 00
        E 0 80 56 00
        E 0 80 62 00
        E 400 80 67 00
        <X 480 0
          /wFbaWRsZV9yZWFsdGltZV0=
        >
        E 8640 b0 7b 00
        GUID {231D04EE-2132-411A-9D54-F6B3D0A804B4}
        IGNTEMPO 0 120.00000000 4 4
        SRCCOLOR 16
        VELLANE 132 123 128
        COLORMAP "C:\Program Files (x86)\REAPER\Data\color_maps\rockband_guitarbass.png"
        TEXTSTRINGFILE "C:\Program Files (x86)\REAPER\Data\Text_Strings\Text Events List - Instruments.txt"
        CFGEDITVIEW 103915.582627 0.086546 1 12 0 0 0
        CFGEDIT 1 1 0 1 1 0 1 1 1 1 1 0.25000000 -8 0 1370 744 0 2 0 2 0.00000000 0 1 0 0 0.500000 0 0 1.000000 64
        KEYSNAP 0 7 "102030050700" 0 "Pentatonic"
        EVTFILTER 0 -1 -1 -1 -1 0 1 0 0 -1.00000000 -1.00000000
      >
    >
  >
  <TRACK '{63DB4157-1C66-459A-AE55-0E966ACB95CC}'
    NAME "PART REAL_KEYS_X"
    PEAKCOL 16576
    BEAT -1
    AUTOMODE 0
    VOLPAN 1.00000000000000 0.00000000000000 -1.00000000000000 -1.00000000000000 1.00000000000000
    MUTESOLO 0 0 0
    IPHASE 0
    ISBUS 0 0
    BUSCOMP 0 0
    SHOWINMIX 1 0.666700 0.500000 1 0.500000 -1 -1 -1
    FREEMODE 0
    SEL 0
    REC 0 0 0 0 0 0 0
    VU 2
    TRACKHEIGHT 0 0
    INQ 0 0 0 0.5000000000 100 0 0 100
    NCHAN 2
    FX 0
    TRACKID {63DB4157-1C66-459A-AE55-0E966ACB95CC}
    PERF 0
    MIDIOUT -1
    <MIDINOTENAMES
      0 127 "Trill Marker"
      0 126 "Glissando Marker"
      0 125 "---"
      0 120 "BRE"
      0 116 "OVERDRIVE"
      0 115 "Solo Marker"
      0 114 "---"
      0 72 "C4"
      0 71 "B3"
      0 70 "A#3"
      0 69 "A3"
      0 68 "G#3"
      0 67 "G3"
      0 66 "F#3"
      0 65 "F3"
      0 64 "E3"
      0 63 "D#3"
      0 62 "D3"
      0 61 "C#3"
      0 60 "C3"
      0 59 "B2"
      0 58 "A#2"
      0 57 "A2"
      0 56 "G#2"
      0 55 "G2"
      0 54 "F#2"
      0 53 "F2"
      0 52 "E2"
      0 51 "D#2"
      0 50 "D2"
      0 49 "C#2"
      0 48 "C2"
      0 10 "---"
      0 9 "Range A2-C4"
      0 7 "G2-B3"
      0 5 "Range F2-A3"
      0 4 "E2-G3"
      0 2 "D2-F3"
      0 0 "Range C2-E3"
    >
    MAINSEND 1 0
    <FXCHAIN
      WNDRECT 0 42 716 462
      SHOW 0
      LASTSEL 1
      DOCKED 0
      BYPASS 0 0
      <JS "MIDI/midi_note_filter" ""
        48.000000 72.000000 - - - - - - - - - - - - - - - - - - - - - - - - - - - - - - - - - - - - - - - - - - - - - - - - - - - - - - - - - - - - - - 
      >
      FLOATPOS 0 0 0 0
      FXID {A0F0B1F6-51D2-414B-AA7D-6F1AB73DD6B1}
      WAK 0
      BYPASS 1 0
      <JS "MIDI/midi_transpose" ""
        -6.000000 1.000000 0.000000 127.000000 - - - - - - - - - - - - - - - - - - - - - - - - - - - - - - - - - - - - - - - - - - - - - - - - - - - - - - - - - - - - 
      >
      FLOATPOS 0 0 0 0
      FXID {BE935213-7253-49CB-B20B-7D08B1E95D80}
      WAK 0
      BYPASS 0 0
      <VST "VSTi: ReaSynth (Cockos)" "reasynth.dll" 0 ""
        eXNlcu9e7f4AAAAAAgAAAAEAAAAAAAAAAgAAAAAAAAA4AAAAAAAAAA==
        AAAQAO++rd4N8K3eppvEOxe30ToAAIA/AAAAAAAAAADMm4A+6WeIPQ==
        AAAAAAAAAD8AAIA/AACAPwAAAD8AABAAAAA=
      >
      FLOATPOS 0 0 0 0
      FXID {2B855C02-D991-4D25-8881-1CE414994349}
      WAK 0
    >
    <ITEM
      POSITION 0.00000000000000
      SNAPOFFS 0.00000000000000
      LENGTH 236.43059832085180
      LOOP 0
      ALLTAKES 0
      SEL 0
      FADEIN 1 0.000000 0.000000 1 0
      FADEOUT 1 0.000000 0.000000 1 0
      MUTE 0
      IGUID {FC209176-90D4-4796-AED6-C15EF5B7D228}
      IID 25
      NAME "PART REAL_KEYS_X"
      VOLPAN 1.000000 0.000000 1.000000 -1.000000
      SOFFS 0.00000000000000 0.00000000000000
      PLAYRATE 1.00000000000000 1 0.00000000000000 -1
      CHANMODE 0
      GUID {E94EE03F-E98F-48D0-9411-426D5E2B2472}
      <SOURCE MIDI
        HASDATA 1 480 QN
        POOLEDEVTS {6F28CA45-8099-4B14-8DF8-84AB390E3776}
        <X 0 0
          /wNQQVJUIFJFQUxfS0VZU19Y
        >
        E 0 90 00 60
        E 120 80 00 00
        <X 3720 0
          /wFbYmVnaW5fa2V5IHNvbmdfdHJhaW5lcl9rZXlfMV0=
        >
        E 0 90 3e 60
        E 0 90 73 60
        E 120 80 3e 00
        E 2760 90 40 60
        E 120 80 40 00
        E 840 90 37 60
        E 120 80 37 00
        <X 1800 0
          /wFbZW5kX2tleSBzb25nX3RyYWluZXJfa2V5XzFd
        >
        <X 0 0
          /wFbYmVnaW5fa2V5IHNvbmdfdHJhaW5lcl9rZXlfMl0=
        >
        E 0 90 74 60
        E 240 90 37 60
        E 120 80 37 00
        E 200 90 37 60
        E 80 80 37 00
        E 80 90 40 60
        E 80 80 40 00
        E 0 90 3e 60
        E 80 80 3e 00
        E 0 90 3c 60
        E 80 80 3c 00
        E 0 90 37 60
        E 120 80 37 00
        E 0 90 34 60
        E 120 80 34 00
        E 0 90 32 60
        E 120 80 32 00
        E 360 90 09 60
        E 0 90 39 60
        E 120 80 09 00
        E 0 80 39 00
        E 0 90 3b 60
        E 120 80 74 00
        E 0 80 3b 00
        E 120 90 3e 60
        E 120 80 3e 00
        <X 1680 0
          /wFbZW5kX2tleSBzb25nX3RyYWluZXJfa2V5XzJd
        >
        <X 960 0
          /wFbYmVnaW5fa2V5IHNvbmdfdHJhaW5lcl9rZXlfM10=
        >
        E 600 90 3b 60
        E 120 80 3b 00
        E 0 90 3c 60
        E 80 80 3c 00
        E 0 90 3e 60
        E 80 80 3e 00
        E 0 90 43 60
        E 80 80 43 00
        E 0 90 45 60
        E 120 80 45 00
        E 1320 90 47 60
        E 80 80 47 00
        E 400 90 45 60
        E 80 80 45 00
        E 1120 90 47 60
        E 80 80 47 00
        E 240 90 45 60
        E 80 80 45 00
        E 80 90 43 60
        E 80 80 43 00
        E 0 90 40 60
        E 80 80 40 00
        E 0 90 3e 60
        E 80 80 3e 00
        E 0 90 3b 60
        E 80 80 3b 00
        <X 880 0
          /wFbZW5kX2tleSBzb25nX3RyYWluZXJfa2V5XzNd
        >
        E 0 80 73 00
        E 60480 90 43 60
        E 120 80 43 00
        E 7560 90 43 60
        E 0 90 74 60
        E 120 80 43 00
        E 1800 90 00 60
        E 120 80 00 00
        E 1800 90 3e 60
        E 120 80 74 00
        E 0 80 3e 00
        E 7560 90 37 60
        E 120 80 37 00
        E 76680 90 37 60
        E 120 80 37 00
        E 6600 90 40 60
        E 0 90 74 60
        E 120 80 40 00
        E 120 90 3e 60
        E 120 80 3e 00
        E 600 90 37 60
        E 120 80 37 00
        E 360 80 74 00
        E 3360 90 3e 60
        E 120 80 3e 00
        <X 6600 0
          /wFbYmVnaW5fa2V5IHNvbmdfdHJhaW5lcl9rZXlfNF0=
        >
        E 0 90 73 60
        E 480 90 30 60
        E 120 80 30 00
        E 0 90 32 60
        E 120 80 32 00
        E 0 90 34 60
        E 120 80 34 00
        E 0 90 37 60
        E 120 80 37 00
        E 0 90 39 60
        E 120 80 39 00
        E 840 90 37 60
        E 0 90 74 60
        E 120 80 37 00
        E 120 90 39 60
        E 120 80 39 00
        E 120 90 34 60
        E 120 80 34 00
        E 120 90 37 60
        E 120 80 37 00
        E 360 90 30 60
        E 120 80 30 00
        E 120 90 32 60
        E 120 80 32 00
        E 120 90 34 60
        E 120 80 34 00
        E 360 90 32 60
        E 120 80 32 00
        E 120 90 34 60
        E 120 80 34 00
        E 360 90 37 60
        E 120 80 74 00
        E 0 80 37 00
        E 360 90 05 60
        E 120 80 05 00
        E 1080 90 3e 60
        E 80 80 3e 00
        E 0 90 40 60
        E 80 80 40 00
        E 0 90 43 60
        E 80 80 43 00
        E 0 90 45 60
        E 120 80 45 00
        E 120 90 43 60
        E 120 80 43 00
        E 120 90 40 60
        E 120 80 40 00
        E 120 90 3e 60
        E 120 80 3e 00
        E 120 90 00 60
        E 0 90 3b 60
        E 120 80 00 00
        E 0 80 3b 00
        E 120 90 3e 60
        E 120 80 3e 00
        E 120 90 40 60
        E 120 80 40 00
        E 120 90 3b 60
        E 120 80 3b 00
        E 120 90 3e 60
        E 120 80 3e 00
        <X 840 0
          /wFbZW5kX2tleSBzb25nX3RyYWluZXJfa2V5XzRd
        >
        <X 0 0
          /wFbYmVnaW5fa2V5IHNvbmdfdHJhaW5lcl9rZXlfNV0=
        >
        E 480 90 37 60
        E 80 80 37 00
        E 0 90 39 60
        E 80 80 39 00
        E 0 90 3b 60
        E 80 80 3b 00
        E 0 90 3e 60
        E 80 80 3e 00
        E 0 90 40 60
        E 80 80 40 00
        E 800 90 37 60
        E 120 80 37 00
        E 360 90 39 60
        E 120 80 39 00
        E 280 90 34 60
        E 80 80 34 00
        E 0 90 37 60
        E 80 80 37 00
        E 0 90 39 60
        E 80 80 39 00
        E 0 90 3b 60
        E 80 80 3b 00
        E 0 90 3e 60
        E 120 80 3e 00
        E 240 90 3c 60
        E 120 80 3c 00
        E 240 90 39 60
        E 120 80 39 00
        E 360 90 37 60
        E 120 80 37 00
        E 360 90 34 60
        E 120 80 34 00
        E 120 90 09 60
        E 120 80 09 00
        E 40 90 39 60
        E 80 80 39 00
        E 80 90 3b 60
        E 80 80 3b 00
        E 80 90 3e 60
        E 80 80 3e 00
        E 80 90 39 60
        E 80 80 39 00
        E 0 90 3b 60
        E 80 80 3b 00
        E 0 90 3e 60
        E 80 80 3e 00
        E 0 90 40 60
        E 80 80 40 00
        E 0 90 3e 60
        E 80 80 3e 00
        E 0 90 40 60
        E 80 80 40 00
        E 0 90 43 60
        E 80 80 43 00
        E 0 90 40 60
        E 80 80 40 00
        E 0 90 43 60
        E 80 80 43 00
        E 0 90 45 60
        E 80 80 45 00
        E 0 90 43 60
        E 80 80 43 00
        E 0 90 45 60
        E 80 80 45 00
        E 0 90 43 60
        E 80 80 43 00
        E 0 90 45 60
        E 80 80 45 00
        E 0 90 47 60
        E 80 80 47 00
        <X 80 0
          /wFbZW5kX2tleSBzb25nX3RyYWluZXJfa2V5XzVd
        >
        E 0 90 04 60
        E 120 80 04 00
        <X 360 0
          /wFbYmVnaW5fa2V5IHNvbmdfdHJhaW5lcl9rZXlfNl0=
        >
        E 180 90 43 60
        E 60 80 43 00
        E 180 90 40 60
        E 60 80 40 00
        E 240 90 3e 60
        E 120 80 3e 00
        E 120 90 3b 60
        E 120 80 3b 00
        E 120 90 39 60
        E 120 80 39 00
        E 120 90 37 60
        E 120 80 37 00
        E 120 90 40 60
        E 120 80 40 00
        E 120 90 3e 60
        E 120 80 3e 00
        E 40 90 3e 60
        E 80 80 3e 00
        E 0 90 40 60
        E 80 80 40 00
        E 0 90 43 60
        E 80 80 43 00
        E 0 90 40 60
        E 80 80 40 00
        E 0 90 3e 60
        E 120 80 3e 00
        E 120 90 3b 60
        E 120 80 3b 00
        E 120 90 3e 60
        E 120 80 3e 00
        E 120 90 37 60
        E 120 80 37 00
        E 120 90 39 60
        E 120 80 39 00
        E 360 90 37 60
        E 120 80 37 00
        E 360 90 34 60
        E 120 80 34 00
        E 600 90 34 60
        E 80 80 34 00
        E 0 90 37 60
        E 80 80 37 00
        E 0 90 39 60
        E 80 80 39 00
        E 0 90 07 60
        E 0 90 3b 60
        E 80 80 3b 00
        E 0 90 37 60
        E 40 80 07 00
        E 40 80 37 00
        E 0 90 39 60
        E 80 80 39 00
        E 0 90 3b 60
        E 80 80 3b 00
        E 0 90 3e 60
        E 80 80 3e 00
        E 0 90 39 60
        E 80 80 39 00
        E 0 90 3b 60
        E 80 80 3b 00
        E 0 90 3e 60
        E 80 80 3e 00
        E 0 90 40 60
        E 80 80 40 00
        E 0 90 3b 60
        E 80 80 3b 00
        E 0 90 3e 60
        E 80 80 3e 00
        E 0 90 40 60
        E 80 80 40 00
        E 0 90 43 60
        E 80 80 43 00
        E 0 90 40 60
        E 80 80 40 00
        E 0 90 43 60
        E 80 80 43 00
        E 0 90 45 60
        E 80 80 45 00
        E 0 90 43 60
        E 80 80 43 00
        E 0 90 45 60
        E 80 80 45 00
        E 0 90 47 60
        E 80 80 47 00
        E 0 90 39 60
        E 80 80 39 00
        E 0 90 3b 60
        E 80 80 3b 00
        E 0 90 3e 60
        E 80 80 3e 00
        E 160 90 43 60
        E 80 80 43 00
        <X 400 0
          /wFbZW5kX2tleSBzb25nX3RyYWluZXJfa2V5XzZd
        >
        <X 480 0
          /wFbYmVnaW5fa2V5IHNvbmdfdHJhaW5lcl9rZXlfN10=
        >
        E 240 90 43 60
        E 80 80 43 00
        E 160 90 45 60
        E 80 80 45 00
        E 160 90 43 60
        E 80 80 43 00
        E 160 90 40 60
        E 80 80 40 00
        E 160 90 43 60
        E 80 80 43 00
        E 160 90 3e 60
        E 80 80 3e 00
        E 160 90 40 60
        E 80 80 40 00
        E 160 90 3b 60
        E 80 80 3b 00
        E 160 90 3e 60
        E 80 80 3e 00
        E 160 90 39 60
        E 80 80 39 00
        E 160 90 3e 60
        E 80 80 3e 00
        E 0 90 3b 60
        E 80 80 3b 00
        E 0 90 39 60
        E 80 80 39 00
        E 0 90 3b 60
        E 80 80 3b 00
        E 2080 90 37 60
        E 80 80 37 00
        E 0 90 39 60
        E 80 80 39 00
        E 0 90 3b 60
        E 80 80 3b 00
        E 0 90 39 60
        E 80 80 39 00
        E 0 90 3b 60
        E 80 80 3b 00
        E 0 90 3e 60
        E 80 80 3e 00
        E 0 90 3b 60
        E 80 80 3b 00
        E 0 90 3e 60
        E 80 80 3e 00
        E 0 90 40 60
        E 80 80 40 00
        E 0 90 3e 60
        E 80 80 3e 00
        E 0 90 40 60
        E 80 80 40 00
        E 0 90 43 60
        E 80 80 43 00
        E 0 90 40 60
        E 80 80 40 00
        E 0 90 43 60
        E 80 80 43 00
        E 0 90 45 60
        E 80 80 45 00
        E 0 90 43 60
        E 80 80 43 00
        E 0 90 40 60
        E 80 80 40 00
        E 0 90 43 60
        E 80 80 43 00
        E 0 90 40 60
        E 80 80 40 00
        E 0 90 43 60
        E 80 80 43 00
        E 0 90 45 60
        E 80 80 45 00
        E 0 90 43 60
        E 80 80 43 00
        <X 400 0
          /wFbZW5kX2tleSBzb25nX3RyYWluZXJfa2V5Xzdd
        >
        E 0 80 73 00
        E 9120 b0 7b 00
        GUID {193B6F69-19CA-46D7-825B-F26CC19815D6}
        IGNTEMPO 0 120.00000000 4 4
        SRCCOLOR 9
        VELLANE 132 123 128
        COLORMAP "C:\Program Files (x86)\REAPER\Data\color_maps\rockband_guitarbass.png"
        TEXTSTRINGFILE "C:\Program Files (x86)\REAPER\Data\Text_Strings\Text Events List - Pro Trainers.txt"
        CFGEDITVIEW 41547.285494 0.105739 2 12 0 0 0
        CFGEDIT 1 1 0 1 1 0 1 1 1 1 1 0.25000000 -8 0 1370 744 0 2 0 2 0.00000000 0 1 0 0 0.500000 0 0 1.000000 64
        KEYSNAP 0 7 "102030050700" 0 "Pentatonic"
        EVTFILTER 0 -1 -1 -1 -1 0 1 0 0 -1.00000000 -1.00000000
      >
    >
  >
  <TRACK '{6E46AF2A-419F-4795-82CB-5ADF404ADEA3}'
    NAME "PART REAL_KEYS_H"
    PEAKCOL 16576
    BEAT -1
    AUTOMODE 0
    VOLPAN 1.00000000000000 0.00000000000000 -1.00000000000000 -1.00000000000000 1.00000000000000
    MUTESOLO 0 0 0
    IPHASE 0
    ISBUS 0 0
    BUSCOMP 0 0
    SHOWINMIX 1 0.666700 0.500000 1 0.500000 -1 -1 -1
    FREEMODE 0
    SEL 0
    REC 0 0 0 0 0 0 0
    VU 2
    TRACKHEIGHT 0 0
    INQ 0 0 0 0.5000000000 100 0 0 100
    NCHAN 2
    FX 0
    TRACKID {6E46AF2A-419F-4795-82CB-5ADF404ADEA3}
    PERF 0
    MIDIOUT -1
    <MIDINOTENAMES
      0 127 "Trill Marker"
      0 126 "Glissando Marker"
      0 125 "---"
      0 120 "BRE"
      0 116 "OVERDRIVE"
      0 115 "Solo Marker"
      0 114 "---"
      0 72 "C4"
      0 71 "B3"
      0 70 "A#3"
      0 69 "A3"
      0 68 "G#3"
      0 67 "G3"
      0 66 "F#3"
      0 65 "F3"
      0 64 "E3"
      0 63 "D#3"
      0 62 "D3"
      0 61 "C#3"
      0 60 "C3"
      0 59 "B2"
      0 58 "A#2"
      0 57 "A2"
      0 56 "G#2"
      0 55 "G2"
      0 54 "F#2"
      0 53 "F2"
      0 52 "E2"
      0 51 "D#2"
      0 50 "D2"
      0 49 "C#2"
      0 48 "C2"
      0 10 "---"
      0 9 "Range A2-C4"
      0 7 "G2-B3"
      0 5 "Range F2-A3"
      0 4 "E2-G3"
      0 2 "D2-F3"
      0 0 "Range C2-E3"
    >
    MAINSEND 1 0
    <FXCHAIN
      WNDRECT 0 42 716 462
      SHOW 0
      LASTSEL 1
      DOCKED 0
      BYPASS 0 0
      <JS "MIDI/midi_note_filter" ""
        48.000000 72.000000 - - - - - - - - - - - - - - - - - - - - - - - - - - - - - - - - - - - - - - - - - - - - - - - - - - - - - - - - - - - - - - 
      >
      FLOATPOS 0 0 0 0
      FXID {A0F0B1F6-51D2-414B-AA7D-6F1AB73DD6B1}
      WAK 0
      BYPASS 1 0
      <JS "MIDI/midi_transpose" ""
        -6.000000 1.000000 0.000000 127.000000 - - - - - - - - - - - - - - - - - - - - - - - - - - - - - - - - - - - - - - - - - - - - - - - - - - - - - - - - - - - - 
      >
      FLOATPOS 0 0 0 0
      FXID {BE935213-7253-49CB-B20B-7D08B1E95D80}
      WAK 0
      BYPASS 0 0
      <VST "VSTi: ReaSynth (Cockos)" "reasynth.dll" 0 ""
        eXNlcu9e7f4AAAAAAgAAAAEAAAAAAAAAAgAAAAAAAAA4AAAAAAAAAA==
        AAAQAO++rd4N8K3eppvEOxe30ToAAIA/AAAAAAAAAADMm4A+6WeIPQ==
        AAAAAAAAAD8AAIA/AACAPwAAAD8AABAAAAA=
      >
      FLOATPOS 0 0 0 0
      FXID {2B855C02-D991-4D25-8881-1CE414994349}
      WAK 0
    >
    <ITEM
      POSITION 0.00000000000000
      SNAPOFFS 0.00000000000000
      LENGTH 236.43059832085180
      LOOP 0
      ALLTAKES 0
      SEL 0
      FADEIN 1 0.000000 0.000000 1 0
      FADEOUT 1 0.000000 0.000000 1 0
      MUTE 0
      IGUID {FC209176-90D4-4796-AED6-C15EF5B7D228}
      IID 25
      NAME "PART REAL_KEYS_H"
      VOLPAN 1.000000 0.000000 1.000000 -1.000000
      SOFFS 0.00000000000000 0.00000000000000
      PLAYRATE 1.00000000000000 1 0.00000000000000 -1
      CHANMODE 0
      GUID {E94EE03F-E98F-48D0-9411-426D5E2B2472}
      <SOURCE MIDI
        HASDATA 1 480 QN
        POOLEDEVTS {77518922-2A07-4F35-8109-B7F9EE2C3446}
        <X 0 0
          /wNQQVJUIFJFQUxfS0VZU19I
        >
        E 0 90 00 60
        E 120 80 00 00
        E 3720 90 3e 60
        E 120 80 3e 00
        E 2760 90 40 60
        E 120 80 40 00
        E 840 90 37 60
        E 120 80 37 00
        E 2040 90 37 60
        E 120 80 37 00
        E 360 90 40 60
        E 80 80 40 00
        E 160 90 37 60
        E 120 80 37 00
        E 120 90 32 60
        E 120 80 32 00
        E 360 90 09 60
        E 0 90 39 60
        E 120 80 09 00
        E 0 80 39 00
        E 240 90 3e 60
        E 120 80 3e 00
        E 3360 90 3c 60
        E 80 80 3c 00
        E 160 90 45 60
        E 120 80 45 00
        E 1320 90 47 60
        E 80 80 47 00
        E 400 90 45 60
        E 80 80 45 00
        E 1120 90 47 60
        E 80 80 47 00
        E 400 90 43 60
        E 80 80 43 00
        E 160 90 3b 60
        E 80 80 3b 00
        E 61360 90 43 60
        E 120 80 43 00
        E 7560 90 43 60
        E 120 80 43 00
        E 1800 90 00 60
        E 120 80 00 00
        E 1800 90 3e 60
        E 120 80 3e 00
        E 7560 90 37 60
        E 120 80 37 00
        E 76680 90 37 60
        E 120 80 37 00
        E 6600 90 40 60
        E 120 80 40 00
        E 120 90 3e 60
        E 120 80 3e 00
        E 600 90 37 60
        E 120 80 37 00
        E 3720 90 3e 60
        E 120 80 3e 00
        E 7080 90 30 60
        E 120 80 30 00
        E 120 90 34 60
        E 120 80 34 00
        E 120 90 39 60
        E 120 80 39 00
        E 840 90 37 60
        E 120 80 37 00
        E 120 90 39 60
        E 120 80 39 00
        E 120 90 34 60
        E 120 80 34 00
        E 120 90 37 60
        E 120 80 37 00
        E 360 90 30 60
        E 120 80 30 00
        E 120 90 32 60
        E 120 80 32 00
        E 120 90 34 60
        E 120 80 34 00
        E 360 90 32 60
        E 120 80 32 00
        E 120 90 34 60
        E 120 80 34 00
        E 360 90 37 60
        E 120 80 37 00
        E 360 90 05 60
        E 120 80 05 00
        E 1080 90 3e 60
        E 80 80 3e 00
        E 160 90 45 60
        E 120 80 45 00
        E 120 90 43 60
        E 120 80 43 00
        E 120 90 40 60
        E 120 80 40 00
        E 120 90 3e 60
        E 120 80 3e 00
        E 120 90 3b 60
        E 120 80 3b 00
        E 120 90 3e 60
        E 120 80 3e 00
        E 120 90 40 60
        E 120 80 40 00
        E 120 90 3b 60
        E 120 80 3b 00
        E 120 90 00 60
        E 0 90 3e 60
        E 120 80 00 00
        E 0 80 3e 00
        E 1320 90 37 60
        E 80 80 37 00
        E 160 90 3e 60
        E 80 80 3e 00
        E 880 90 37 60
        E 120 80 37 00
        E 360 90 39 60
        E 120 80 39 00
        E 360 90 37 60
        E 80 80 37 00
        E 160 90 3e 60
        E 120 80 3e 00
        E 240 90 3c 60
        E 120 80 3c 00
        E 240 90 39 60
        E 120 80 39 00
        E 360 90 37 60
        E 120 80 37 00
        E 360 90 34 60
        E 120 80 34 00
        E 120 90 09 60
        E 120 80 09 00
        E 40 90 39 60
        E 80 80 39 00
        E 240 90 3e 60
        E 80 80 3e 00
        E 160 90 3b 60
        E 80 80 3b 00
        E 160 90 3e 60
        E 80 80 3e 00
        E 160 90 40 60
        E 80 80 40 00
        E 160 90 43 60
        E 80 80 43 00
        E 160 90 45 60
        E 80 80 45 00
        E 640 90 05 60
        E 120 80 05 00
        E 60 90 43 60
        E 60 80 43 00
        E 180 90 40 60
        E 60 80 40 00
        E 240 90 3e 60
        E 120 80 3e 00
        E 120 90 3b 60
        E 120 80 3b 00
        E 120 90 39 60
        E 120 80 39 00
        E 120 90 37 60
        E 120 80 37 00
        E 120 90 40 60
        E 120 80 40 00
        E 120 90 3e 60
        E 120 80 3e 00
        E 120 90 40 60
        E 80 80 40 00
        E 160 90 3e 60
        E 120 80 3e 00
        E 120 90 3b 60
        E 120 80 3b 00
        E 120 90 00 60
        E 0 90 3e 60
        E 120 80 00 00
        E 0 80 3e 00
        E 120 90 37 60
        E 120 80 37 00
        E 120 90 39 60
        E 120 80 39 00
        E 360 90 37 60
        E 120 80 37 00
        E 1080 90 34 60
        E 80 80 34 00
        E 160 90 3b 60
        E 80 80 3b 00
        E 160 90 3b 60
        E 80 80 3b 00
        E 160 90 05 60
        E 0 90 3b 60
        E 60 80 05 00 20
        E 20 80 3b 00
        E 160 90 3b 60
        E 80 80 3b 00
        E 160 90 43 60
        E 80 80 43 00
        E 160 90 45 60
        E 80 80 45 00
        E 160 90 3b 60
        E 80 80 3b 00
        E 160 90 3e 60
        E 80 80 3e 00
        E 160 90 43 60
        E 80 80 43 00
        E 1120 90 43 60
        E 80 80 43 00
        E 160 90 45 60
        E 80 80 45 00
        E 160 90 43 60
        E 80 80 43 00
        E 160 90 40 60
        E 80 80 40 00
        E 160 90 43 60
        E 80 80 43 00
        E 160 90 3e 60
        E 80 80 3e 00
        E 160 90 40 60
        E 80 80 40 00
        E 160 90 3b 60
        E 80 80 3b 00
        E 160 90 3e 60
        E 80 80 3e 00
        E 160 90 39 60
        E 80 80 39 00
        E 160 90 3e 60
        E 80 80 3e 00
        E 160 90 3b 60
        E 80 80 3b 00
        E 2080 90 37 60
        E 80 80 37 00
        E 160 90 39 60
        E 80 80 39 00
        E 160 90 3b 60
        E 80 80 3b 00
        E 160 90 3e 60
        E 80 80 3e 00
        E 160 90 40 60
        E 80 80 40 00
        E 160 90 43 60
        E 80 80 43 00
        E 160 90 40 60
        E 80 80 40 00
        E 160 90 43 60
        E 80 80 43 00
        E 9520 b0 7b 00
        GUID {193B6F69-19CA-46D7-825B-F26CC19815D6}
        IGNTEMPO 0 120.00000000 4 4
        SRCCOLOR 9
        VELLANE 132 123 128
        COLORMAP "C:\Program Files (x86)\REAPER\Data\color_maps\rockband_guitarbass.png"
        TEXTSTRINGFILE "C:\Program Files (x86)\REAPER\Data\Text_Strings\Text Events List - Pro Trainers.txt"
        CFGEDITVIEW 212891.158022 0.137510 1 12 0 0 0
        CFGEDIT 1 1 0 1 1 0 1 1 1 1 1 0.12500000 -8 0 1370 744 0 2 0 2 0.00000000 0 1 0 0 0.500000 0 0 1.000000 64
        KEYSNAP 0 7 "102030050700" 0 "Pentatonic"
        EVTFILTER 0 -1 -1 -1 -1 0 1 0 0 -1.00000000 -1.00000000
      >
    >
  >
  <TRACK '{63EC06A8-E530-40E4-ACC3-244019B3EC91}'
    NAME "PART REAL_KEYS_M"
    PEAKCOL 16576
    BEAT -1
    AUTOMODE 0
    VOLPAN 1.00000000000000 0.00000000000000 -1.00000000000000 -1.00000000000000 1.00000000000000
    MUTESOLO 0 0 0
    IPHASE 0
    ISBUS 0 0
    BUSCOMP 0 0
    SHOWINMIX 1 0.666700 0.500000 1 0.500000 -1 -1 -1
    FREEMODE 0
    SEL 0
    REC 0 0 0 0 0 0 0
    VU 2
    TRACKHEIGHT 0 0
    INQ 0 0 0 0.5000000000 100 0 0 100
    NCHAN 2
    FX 0
    TRACKID {63EC06A8-E530-40E4-ACC3-244019B3EC91}
    PERF 0
    MIDIOUT -1
    <MIDINOTENAMES
      0 127 "Trill Marker"
      0 126 "Glissando Marker"
      0 125 "---"
      0 120 "BRE"
      0 116 "OVERDRIVE"
      0 115 "Solo Marker"
      0 114 "---"
      0 72 "C4"
      0 71 "B3"
      0 70 "A#3"
      0 69 "A3"
      0 68 "G#3"
      0 67 "G3"
      0 66 "F#3"
      0 65 "F3"
      0 64 "E3"
      0 63 "D#3"
      0 62 "D3"
      0 61 "C#3"
      0 60 "C3"
      0 59 "B2"
      0 58 "A#2"
      0 57 "A2"
      0 56 "G#2"
      0 55 "G2"
      0 54 "F#2"
      0 53 "F2"
      0 52 "E2"
      0 51 "D#2"
      0 50 "D2"
      0 49 "C#2"
      0 48 "C2"
      0 10 "---"
      0 9 "Range A2-C4"
      0 7 "G2-B3"
      0 5 "Range F2-A3"
      0 4 "E2-G3"
      0 2 "D2-F3"
      0 0 "Range C2-E3"
    >
    MAINSEND 1 0
    <FXCHAIN
      WNDRECT 0 42 716 462
      SHOW 0
      LASTSEL 1
      DOCKED 0
      BYPASS 0 0
      <JS "MIDI/midi_note_filter" ""
        48.000000 72.000000 - - - - - - - - - - - - - - - - - - - - - - - - - - - - - - - - - - - - - - - - - - - - - - - - - - - - - - - - - - - - - - 
      >
      FLOATPOS 0 0 0 0
      FXID {A0F0B1F6-51D2-414B-AA7D-6F1AB73DD6B1}
      WAK 0
      BYPASS 1 0
      <JS "MIDI/midi_transpose" ""
        -6.000000 1.000000 0.000000 127.000000 - - - - - - - - - - - - - - - - - - - - - - - - - - - - - - - - - - - - - - - - - - - - - - - - - - - - - - - - - - - - 
      >
      FLOATPOS 0 0 0 0
      FXID {BE935213-7253-49CB-B20B-7D08B1E95D80}
      WAK 0
      BYPASS 0 0
      <VST "VSTi: ReaSynth (Cockos)" "reasynth.dll" 0 ""
        eXNlcu9e7f4AAAAAAgAAAAEAAAAAAAAAAgAAAAAAAAA4AAAAAAAAAA==
        AAAQAO++rd4N8K3eppvEOxe30ToAAIA/AAAAAAAAAADMm4A+6WeIPQ==
        AAAAAAAAAD8AAIA/AACAPwAAAD8AABAAAAA=
      >
      FLOATPOS 0 0 0 0
      FXID {2B855C02-D991-4D25-8881-1CE414994349}
      WAK 0
    >
    <ITEM
      POSITION 0.00000000000000
      SNAPOFFS 0.00000000000000
      LENGTH 236.43059832085180
      LOOP 0
      ALLTAKES 0
      SEL 0
      FADEIN 1 0.000000 0.000000 1 0
      FADEOUT 1 0.000000 0.000000 1 0
      MUTE 0
      IGUID {FC209176-90D4-4796-AED6-C15EF5B7D228}
      IID 25
      NAME "PART REAL_KEYS_M"
      VOLPAN 1.000000 0.000000 1.000000 -1.000000
      SOFFS 0.00000000000000 0.00000000000000
      PLAYRATE 1.00000000000000 1 0.00000000000000 -1
      CHANMODE 0
      GUID {E94EE03F-E98F-48D0-9411-426D5E2B2472}
      <SOURCE MIDI
        HASDATA 1 480 QN
        POOLEDEVTS {B6C6B2D7-CCB0-47E9-AFE8-06FE93821528}
        <X 0 0
          /wNQQVJUIFJFQUxfS0VZU19N
        >
        E 0 90 00 60
        E 120 80 00 00
        E 3720 90 3e 60
        E 120 80 3e 00
        E 2760 90 40 60
        E 120 80 40 00
        E 840 90 37 60
        E 120 80 37 00
        E 2040 90 37 60
        E 120 80 37 00
        E 360 90 40 60
        E 80 80 40 00
        E 160 90 37 60
        E 120 80 37 00
        E 600 90 39 60
        E 120 80 39 00
        E 3960 90 39 60
        E 120 80 39 00
        E 1320 90 3b 60
        E 80 80 3b 00
        E 400 90 39 60
        E 80 80 39 00
        E 1120 90 3b 60
        E 80 80 3b 00
        E 640 90 3b 60
        E 80 80 3b 00
        E 61360 90 37 60
        E 120 80 37 00
        E 7560 90 37 60
        E 120 80 37 00
        E 3720 90 3e 60
        E 120 80 3e 00
        E 7560 90 37 60
        E 120 80 37 00
        E 76680 90 37 60
        E 120 80 37 00
        E 6600 90 40 60
        E 120 80 40 00
        E 120 90 3e 60
        E 120 80 3e 00
        E 600 90 37 60
        E 120 80 37 00
        E 3720 90 3e 60
        E 120 80 3e 00
        E 7080 90 30 60
        E 120 80 30 00
        E 360 90 39 60
        E 120 80 39 00
        E 840 90 37 60
        E 120 80 37 00
        E 360 90 34 60
        E 120 80 34 00
        E 840 90 32 60
        E 120 80 32 00
        E 840 90 34 60
        E 120 80 34 00
        E 360 90 37 60
        E 120 80 37 00
        E 1800 90 39 60
        E 120 80 39 00
        E 360 90 40 60
        E 120 80 40 00
        E 360 90 3b 60
        E 120 80 3b 00
        E 360 90 40 60
        E 120 80 40 00
        E 360 90 3e 60
        E 120 80 3e 00
        E 1320 90 37 60
        E 80 80 37 00
        E 1120 90 37 60
        E 120 80 37 00
        E 360 90 39 60
        E 120 80 39 00
        E 600 90 3e 60
        E 120 80 3e 00
        E 600 90 39 60
        E 120 80 39 00
        E 360 90 37 60
        E 120 80 37 00
        E 360 90 34 60
        E 120 80 34 00
        E 600 90 3e 60
        E 80 80 3e 00
        E 400 90 3e 60
        E 80 80 3e 00
        E 400 90 37 60
        E 80 80 37 00
        E 1060 90 37 60
        E 60 80 37 00
        E 720 90 3b 60
        E 120 80 3b 00
        E 360 90 37 60
        E 120 80 37 00
        E 360 90 3e 60
        E 120 80 3e 00
        E 360 90 3e 60
        E 120 80 3e 00
        E 360 90 3e 60
        E 120 80 3e 00
        E 360 90 39 60
        E 120 80 39 00
        E 360 90 37 60
        E 120 80 37 00
        E 1320 90 3b 60
        E 80 80 3b 00
        E 400 90 3b 60
        E 80 80 3b 00
        E 400 90 37 60
        E 80 80 37 00
        E 400 90 3b 60
        E 80 80 3b 00
        E 400 90 37 60
        E 80 80 37 00
        E 1360 90 39 60
        E 80 80 39 00
        E 400 90 40 60
        E 80 80 40 00
        E 400 90 3e 60
        E 80 80 3e 00
        E 400 90 3b 60
        E 80 80 3b 00
        E 400 90 39 60
        E 80 80 39 00
        E 400 90 3b 60
        E 80 80 3b 00
        E 2320 90 39 60
        E 80 80 39 00
        E 400 90 3e 60
        E 80 80 3e 00
        E 400 90 37 60
        E 80 80 37 00
        E 400 90 37 60
        E 80 80 37 00
        E 9520 b0 7b 00
        GUID {193B6F69-19CA-46D7-825B-F26CC19815D6}
        IGNTEMPO 0 120.00000000 4 4
        SRCCOLOR 9
        VELLANE 132 123 128
        COLORMAP "C:\Program Files (x86)\REAPER\Data\color_maps\rockband_guitarbass.png"
        TEXTSTRINGFILE "C:\Program Files (x86)\REAPER\Data\Text_Strings\Text Events List - Pro Trainers.txt"
        CFGEDITVIEW -11808.000000 0.004654 2 12 0 0 0
        CFGEDIT 1 1 0 1 1 0 1 1 1 1 1 0.12500000 -8 0 1370 744 0 2 0 2 0.00000000 0 1 0 0 0.500000 0 0 1.000000 64
        KEYSNAP 0 7 "102030050700" 0 "Pentatonic"
        EVTFILTER 0 -1 -1 -1 -1 0 1 0 0 -1.00000000 -1.00000000
      >
    >
  >
  <TRACK '{0B59517C-8FB9-4374-8DFE-B55F30E87ACC}'
    NAME "PART REAL_KEYS_E"
    PEAKCOL 16576
    BEAT -1
    AUTOMODE 0
    VOLPAN 1.00000000000000 0.00000000000000 -1.00000000000000 -1.00000000000000 1.00000000000000
    MUTESOLO 0 0 0
    IPHASE 0
    ISBUS 0 0
    BUSCOMP 0 0
    SHOWINMIX 1 0.666700 0.500000 1 0.500000 -1 -1 -1
    FREEMODE 0
    SEL 0
    REC 0 0 0 0 0 0 0
    VU 2
    TRACKHEIGHT 0 0
    INQ 0 0 0 0.5000000000 100 0 0 100
    NCHAN 2
    FX 0
    TRACKID {0B59517C-8FB9-4374-8DFE-B55F30E87ACC}
    PERF 0
    MIDIOUT -1
    <MIDINOTENAMES
      0 127 "Trill Marker"
      0 126 "Glissando Marker"
      0 125 "---"
      0 120 "BRE"
      0 116 "OVERDRIVE"
      0 115 "Solo Marker"
      0 114 "---"
      0 72 "C4"
      0 71 "B3"
      0 70 "A#3"
      0 69 "A3"
      0 68 "G#3"
      0 67 "G3"
      0 66 "F#3"
      0 65 "F3"
      0 64 "E3"
      0 63 "D#3"
      0 62 "D3"
      0 61 "C#3"
      0 60 "C3"
      0 59 "B2"
      0 58 "A#2"
      0 57 "A2"
      0 56 "G#2"
      0 55 "G2"
      0 54 "F#2"
      0 53 "F2"
      0 52 "E2"
      0 51 "D#2"
      0 50 "D2"
      0 49 "C#2"
      0 48 "C2"
      0 10 "---"
      0 9 "Range A2-C4"
      0 7 "G2-B3"
      0 5 "Range F2-A3"
      0 4 "E2-G3"
      0 2 "D2-F3"
      0 0 "Range C2-E3"
    >
    MAINSEND 1 0
    <FXCHAIN
      WNDRECT 0 42 716 462
      SHOW 0
      LASTSEL 1
      DOCKED 0
      BYPASS 0 0
      <JS "MIDI/midi_note_filter" ""
        48.000000 72.000000 - - - - - - - - - - - - - - - - - - - - - - - - - - - - - - - - - - - - - - - - - - - - - - - - - - - - - - - - - - - - - - 
      >
      FLOATPOS 0 0 0 0
      FXID {A0F0B1F6-51D2-414B-AA7D-6F1AB73DD6B1}
      WAK 0
      BYPASS 1 0
      <JS "MIDI/midi_transpose" ""
        -6.000000 1.000000 0.000000 127.000000 - - - - - - - - - - - - - - - - - - - - - - - - - - - - - - - - - - - - - - - - - - - - - - - - - - - - - - - - - - - - 
      >
      FLOATPOS 0 0 0 0
      FXID {BE935213-7253-49CB-B20B-7D08B1E95D80}
      WAK 0
      BYPASS 0 0
      <VST "VSTi: ReaSynth (Cockos)" "reasynth.dll" 0 ""
        eXNlcu9e7f4AAAAAAgAAAAEAAAAAAAAAAgAAAAAAAAA4AAAAAAAAAA==
        AAAQAO++rd4N8K3eppvEOxe30ToAAIA/AAAAAAAAAADMm4A+6WeIPQ==
        AAAAAAAAAD8AAIA/AACAPwAAAD8AABAAAAA=
      >
      FLOATPOS 0 0 0 0
      FXID {2B855C02-D991-4D25-8881-1CE414994349}
      WAK 0
    >
    <ITEM
      POSITION 0.00000000000000
      SNAPOFFS 0.00000000000000
      LENGTH 236.43059832085180
      LOOP 0
      ALLTAKES 0
      SEL 0
      FADEIN 1 0.000000 0.000000 1 0
      FADEOUT 1 0.000000 0.000000 1 0
      MUTE 0
      IGUID {FC209176-90D4-4796-AED6-C15EF5B7D228}
      IID 25
      NAME "PART REAL_KEYS_E"
      VOLPAN 1.000000 0.000000 1.000000 -1.000000
      SOFFS 0.00000000000000 0.00000000000000
      PLAYRATE 1.00000000000000 1 0.00000000000000 -1
      CHANMODE 0
      GUID {E94EE03F-E98F-48D0-9411-426D5E2B2472}
      <SOURCE MIDI
        HASDATA 1 480 QN
        POOLEDEVTS {089E6C8A-CFC8-4E5E-89AD-4FDB8EA147B1}
        <X 0 0
          /wNQQVJUIFJFQUxfS0VZU19F
        >
        E 0 90 00 60
        E 120 80 00 00
        E 3720 90 3e 60
        E 120 80 3e 00
        E 2760 90 40 60
        E 120 80 40 00
        E 840 90 37 60
        E 120 80 37 00
        E 2040 90 37 60
        E 120 80 37 00
        E 600 90 37 60
        E 120 80 37 00
        E 4680 90 39 60
        E 120 80 39 00
        E 1320 90 3b 60
        E 80 80 3b 00
        E 400 90 39 60
        E 80 80 39 00
        E 1840 90 3b 60
        E 80 80 3b 00
        E 61360 90 37 60
        E 120 80 37 00
        E 7560 90 37 60
        E 120 80 37 00
        E 3720 90 3e 60
        E 120 80 3e 00
        E 7560 90 37 60
        E 120 80 37 00
        E 76680 90 37 60
        E 120 80 37 00
        E 6600 90 40 60
        E 120 80 40 00
        E 840 90 37 60
        E 120 80 37 00
        E 3720 90 3e 60
        E 120 80 3e 00
        E 7560 90 39 60
        E 120 80 39 00
        E 840 90 37 60
        E 120 80 37 00
        E 1320 90 32 60
        E 120 80 32 00
        E 1320 90 37 60
        E 120 80 37 00
        E 1800 90 39 60
        E 120 80 39 00
        E 840 90 3b 60
        E 120 80 3b 00
        E 840 90 3e 60
        E 120 80 3e 00
        E 1320 90 37 60
        E 80 80 37 00
        E 1120 90 37 60
        E 120 80 37 00
        E 1080 90 3e 60
        E 120 80 3e 00
        E 1080 90 37 60
        E 120 80 37 00
        E 1080 90 3e 60
        E 80 80 3e 00
        E 400 90 3e 60
        E 80 80 3e 00
        E 400 90 37 60
        E 80 80 37 00
        E 1060 90 37 60
        E 60 80 37 00
        E 1200 90 37 60
        E 120 80 37 00
        E 840 90 3e 60
        E 120 80 3e 00
        E 840 90 39 60
        E 120 80 39 00
        E 360 90 37 60
        E 120 80 37 00
        E 1320 90 3b 60
        E 80 80 3b 00
        E 880 90 37 60
        E 80 80 37 00
        E 880 90 37 60
        E 80 80 37 00
        E 1840 90 40 60
        E 80 80 40 00
        E 880 90 3b 60
        E 80 80 3b 00
        E 880 90 3b 60
        E 80 80 3b 00
        E 2800 90 3e 60
        E 80 80 3e 00
        E 880 90 37 60
        E 80 80 37 00
        E 9520 b0 7b 00
        GUID {193B6F69-19CA-46D7-825B-F26CC19815D6}
        IGNTEMPO 0 120.00000000 4 4
        SRCCOLOR 9
        VELLANE 132 123 128
        COLORMAP "C:\Program Files (x86)\REAPER\Data\color_maps\rockband_guitarbass.png"
        TEXTSTRINGFILE "C:\Program Files (x86)\REAPER\Data\Text_Strings\Text Events List - Pro Trainers.txt"
        CFGEDITVIEW -8370.104218 0.004654 2 12 0 0 0
        CFGEDIT 1 1 0 1 1 0 1 1 1 1 1 0.12500000 -8 0 1370 744 0 2 0 2 0.00000000 0 1 0 0 0.500000 0 0 1.000000 64
        KEYSNAP 0 7 "102030050700" 0 "Pentatonic"
        EVTFILTER 0 -1 -1 -1 -1 0 1 0 0 -1.00000000 -1.00000000
      >
    >
  >
  <TRACK '{948AA874-C64D-4355-8B12-0623A1C5B0FC}'
    NAME "PART KEYS_ANIM_RH"
    PEAKCOL 16576
    BEAT -1
    AUTOMODE 0
    VOLPAN 1.00000000000000 0.00000000000000 -1.00000000000000 -1.00000000000000 1.00000000000000
    MUTESOLO 0 0 0
    IPHASE 0
    ISBUS 0 0
    BUSCOMP 0 0
    SHOWINMIX 1 0.666700 0.500000 1 0.500000 -1 -1 -1
    FREEMODE 0
    SEL 0
    REC 0 0 0 0 0 0 0
    VU 2
    TRACKHEIGHT 0 0
    INQ 0 0 0 0.5000000000 100 0 0 100
    NCHAN 2
    FX 0
    TRACKID {948AA874-C64D-4355-8B12-0623A1C5B0FC}
    PERF 0
    MIDIOUT -1
    <MIDINOTENAMES
      0 127 "Trill Marker"
      0 126 "Glissando Marker"
      0 125 "---"
      0 120 "BRE"
      0 116 "OVERDRIVE"
      0 115 "Solo Marker"
      0 114 "---"
      0 72 "C4"
      0 71 "B3"
      0 70 "A#3"
      0 69 "A3"
      0 68 "G#3"
      0 67 "G3"
      0 66 "F#3"
      0 65 "F3"
      0 64 "E3"
      0 63 "D#3"
      0 62 "D3"
      0 61 "C#3"
      0 60 "C3"
      0 59 "B2"
      0 58 "A#2"
      0 57 "A2"
      0 56 "G#2"
      0 55 "G2"
      0 54 "F#2"
      0 53 "F2"
      0 52 "E2"
      0 51 "D#2"
      0 50 "D2"
      0 49 "C#2"
      0 48 "C2"
      0 10 "---"
      0 9 "Range A2-C4"
      0 7 "G2-B3"
      0 5 "Range F2-A3"
      0 4 "E2-G3"
      0 2 "D2-F3"
      0 0 "Range C2-E3"
    >
    MAINSEND 1 0
    <FXCHAIN
      WNDRECT 0 42 716 462
      SHOW 0
      LASTSEL 1
      DOCKED 0
      BYPASS 0 0
      <JS "MIDI/midi_note_filter" ""
        48.000000 72.000000 - - - - - - - - - - - - - - - - - - - - - - - - - - - - - - - - - - - - - - - - - - - - - - - - - - - - - - - - - - - - - - 
      >
      FLOATPOS 0 0 0 0
      FXID {A0F0B1F6-51D2-414B-AA7D-6F1AB73DD6B1}
      WAK 0
      BYPASS 1 0
      <JS "MIDI/midi_transpose" ""
        -6.000000 1.000000 0.000000 127.000000 - - - - - - - - - - - - - - - - - - - - - - - - - - - - - - - - - - - - - - - - - - - - - - - - - - - - - - - - - - - - 
      >
      FLOATPOS 0 0 0 0
      FXID {BE935213-7253-49CB-B20B-7D08B1E95D80}
      WAK 0
      BYPASS 0 0
      <VST "VSTi: ReaSynth (Cockos)" "reasynth.dll" 0 ""
        eXNlcu9e7f4AAAAAAgAAAAEAAAAAAAAAAgAAAAAAAAA4AAAAAAAAAA==
        AAAQAO++rd4N8K3eppvEOxe30ToAAIA/AAAAAAAAAADMm4A+6WeIPQ==
        AAAAAAAAAD8AAIA/AACAPwAAAD8AABAAAAA=
      >
      FLOATPOS 0 0 0 0
      FXID {2B855C02-D991-4D25-8881-1CE414994349}
      WAK 0
    >
    <ITEM
      POSITION 0.00000000000000
      SNAPOFFS 0.00000000000000
      LENGTH 236.43059832085180
      LOOP 0
      ALLTAKES 0
      SEL 0
      FADEIN 1 0.000000 0.000000 1 0
      FADEOUT 1 0.000000 0.000000 1 0
      MUTE 0
      IGUID {FC209176-90D4-4796-AED6-C15EF5B7D228}
      IID 25
      NAME "PART KEYS_ANIM_RH"
      VOLPAN 1.000000 0.000000 1.000000 -1.000000
      SOFFS 0.00000000000000 0.00000000000000
      PLAYRATE 1.00000000000000 1 0.00000000000000 -1
      CHANMODE 0
      GUID {E94EE03F-E98F-48D0-9411-426D5E2B2472}
      <SOURCE MIDI
        HASDATA 1 480 QN
        POOLEDEVTS {AA920455-CA3F-41E2-BC44-F10BF023AD8A}
        <X 0 0
          /wNQQVJUIEtFWVNfQU5JTV9SSA==
        >
        E 3840 90 3e 60
        E 120 80 3e 00
        E 2760 90 40 60
        E 120 80 40 00
        E 840 90 37 60
        E 120 80 37 00
        E 2040 90 37 60
        E 120 80 37 00
        E 200 90 37 60
        E 80 80 37 00
        E 80 90 40 60
        E 80 80 40 00
        E 0 90 3e 60
        E 80 80 3e 00
        E 0 90 3c 60
        E 80 80 3c 00
        E 0 90 37 60
        E 120 80 37 00
        E 0 90 34 60
        E 120 80 34 00
        E 0 90 32 60
        E 120 80 32 00
        E 360 90 39 60
        E 120 80 39 00
        E 0 90 3b 60
        E 120 80 3b 00
        E 120 90 3e 60
        E 120 80 3e 00
        E 3240 90 3b 60
        E 120 80 3b 00
        E 0 90 3c 60
        E 80 80 3c 00
        E 0 90 3e 60
        E 80 80 3e 00
        E 0 90 43 60
        E 80 80 43 00
        E 0 90 45 60
        E 120 80 45 00
        E 1320 90 47 60
        E 80 80 47 00
        E 400 90 45 60
        E 80 80 45 00
        E 1120 90 47 60
        E 80 80 47 00
        E 240 90 45 60
        E 80 80 45 00
        E 80 90 43 60
        E 80 80 43 00
        E 0 90 40 60
        E 80 80 40 00
        E 0 90 3e 60
        E 80 80 3e 00
        E 0 90 3b 60
        E 80 80 3b 00
        E 61360 90 43 60
        E 120 80 43 00
        E 7560 90 43 60
        E 120 80 43 00
        E 3720 90 3e 60
        E 120 80 3e 00
        E 7560 90 37 60
        E 120 80 37 00
        E 76680 90 37 60
        E 120 80 37 00
        E 6600 90 40 60
        E 120 80 40 00
        E 120 90 3e 60
        E 120 80 3e 00
        E 600 90 37 60
        E 120 80 37 00
        E 3720 90 3e 60
        E 120 80 3e 00
        E 7080 90 30 60
        E 120 80 30 00
        E 0 90 32 60
        E 120 80 32 00
        E 0 90 34 60
        E 120 80 34 00
        E 0 90 37 60
        E 120 80 37 00
        E 0 90 39 60
        E 120 80 39 00
        E 840 90 37 60
        E 120 80 37 00
        E 120 90 39 60
        E 120 80 39 00
        E 120 90 34 60
        E 120 80 34 00
        E 120 90 37 60
        E 120 80 37 00
        E 360 90 30 60
        E 120 80 30 00
        E 120 90 32 60
        E 120 80 32 00
        E 120 90 34 60
        E 120 80 34 00
        E 360 90 32 60
        E 120 80 32 00
        E 120 90 34 60
        E 120 80 34 00
        E 360 90 37 60
        E 120 80 37 00
        E 1560 90 3e 60
        E 80 80 3e 00
        E 0 90 40 60
        E 80 80 40 00
        E 0 90 43 60
        E 80 80 43 00
        E 0 90 45 60
        E 120 80 45 00
        E 120 90 43 60
        E 120 80 43 00
        E 120 90 40 60
        E 120 80 40 00
        E 120 90 3e 60
        E 120 80 3e 00
        E 120 90 3b 60
        E 120 80 3b 00
        E 120 90 3e 60
        E 120 80 3e 00
        E 120 90 40 60
        E 120 80 40 00
        E 120 90 3b 60
        E 120 80 3b 00
        E 120 90 3e 60
        E 120 80 3e 00
        E 1320 90 37 60
        E 80 80 37 00
        E 0 90 39 60
        E 80 80 39 00
        E 0 90 3b 60
        E 80 80 3b 00
        E 0 90 3e 60
        E 80 80 3e 00
        E 0 90 40 60
        E 80 80 40 00
        E 800 90 37 60
        E 120 80 37 00
        E 360 90 39 60
        E 120 80 39 00
        E 280 90 34 60
        E 80 80 34 00
        E 0 90 37 60
        E 80 80 37 00
        E 0 90 39 60
        E 80 80 39 00
        E 0 90 3b 60
        E 80 80 3b 00
        E 0 90 3e 60
        E 120 80 3e 00
        E 240 90 3c 60
        E 120 80 3c 00
        E 240 90 39 60
        E 120 80 39 00
        E 360 90 37 60
        E 120 80 37 00
        E 360 90 34 60
        E 120 80 34 00
        E 280 90 39 60
        E 80 80 39 00
        E 80 90 3b 60
        E 80 80 3b 00
        E 80 90 3e 60
        E 80 80 3e 00
        E 80 90 39 60
        E 80 80 39 00
        E 0 90 3b 60
        E 80 80 3b 00
        E 0 90 3e 60
        E 80 80 3e 00
        E 0 90 40 60
        E 80 80 40 00
        E 0 90 3e 60
        E 80 80 3e 00
        E 0 90 40 60
        E 80 80 40 00
        E 0 90 43 60
        E 80 80 43 00
        E 0 90 40 60
        E 80 80 40 00
        E 0 90 43 60
        E 80 80 43 00
        E 0 90 45 60
        E 80 80 45 00
        E 0 90 43 60
        E 80 80 43 00
        E 0 90 45 60
        E 80 80 45 00
        E 0 90 43 60
        E 80 80 43 00
        E 0 90 45 60
        E 80 80 45 00
        E 0 90 47 60
        E 80 80 47 00
        E 740 90 43 60
        E 60 80 43 00
        E 180 90 40 60
        E 60 80 40 00
        E 240 90 3e 60
        E 120 80 3e 00
        E 120 90 3b 60
        E 120 80 3b 00
        E 120 90 39 60
        E 120 80 39 00
        E 120 90 37 60
        E 120 80 37 00
        E 120 90 40 60
        E 120 80 40 00
        E 120 90 3e 60
        E 120 80 3e 00
        E 40 90 3e 60
        E 80 80 3e 00
        E 0 90 40 60
        E 80 80 40 00
        E 0 90 43 60
        E 80 80 43 00
        E 0 90 40 60
        E 80 80 40 00
        E 0 90 3e 60
        E 120 80 3e 00
        E 120 90 3b 60
        E 120 80 3b 00
        E 120 90 3e 60
        E 120 80 3e 00
        E 120 90 37 60
        E 120 80 37 00
        E 120 90 39 60
        E 120 80 39 00
        E 360 90 37 60
        E 120 80 37 00
        E 360 90 34 60
        E 120 80 34 00
        E 600 90 34 60
        E 80 80 34 00
        E 0 90 37 60
        E 80 80 37 00
        E 0 90 39 60
        E 80 80 39 00
        E 0 90 3b 60
        E 80 80 3b 00
        E 0 90 37 60
        E 80 80 37 00
        E 0 90 39 60
        E 80 80 39 00
        E 0 90 3b 60
        E 80 80 3b 00
        E 0 90 3e 60
        E 80 80 3e 00
        E 0 90 39 60
        E 80 80 39 00
        E 0 90 3b 60
        E 80 80 3b 00
        E 0 90 3e 60
        E 80 80 3e 00
        E 0 90 40 60
        E 80 80 40 00
        E 0 90 3b 60
        E 80 80 3b 00
        E 0 90 3e 60
        E 80 80 3e 00
        E 0 90 40 60
        E 80 80 40 00
        E 0 90 43 60
        E 80 80 43 00
        E 0 90 40 60
        E 80 80 40 00
        E 0 90 43 60
        E 80 80 43 00
        E 0 90 45 60
        E 80 80 45 00
        E 0 90 43 60
        E 80 80 43 00
        E 0 90 45 60
        E 80 80 45 00
        E 0 90 47 60
        E 80 80 47 00
        E 0 90 39 60
        E 80 80 39 00
        E 0 90 3b 60
        E 80 80 3b 00
        E 0 90 3e 60
        E 80 80 3e 00
        E 160 90 43 60
        E 80 80 43 00
        E 1120 90 43 60
        E 80 80 43 00
        E 160 90 45 60
        E 80 80 45 00
        E 160 90 43 60
        E 80 80 43 00
        E 160 90 40 60
        E 80 80 40 00
        E 160 90 43 60
        E 80 80 43 00
        E 160 90 3e 60
        E 80 80 3e 00
        E 160 90 40 60
        E 80 80 40 00
        E 160 90 3b 60
        E 80 80 3b 00
        E 160 90 3e 60
        E 80 80 3e 00
        E 160 90 39 60
        E 80 80 39 00
        E 160 90 3e 60
        E 80 80 3e 00
        E 0 90 3b 60
        E 80 80 3b 00
        E 0 90 39 60
        E 80 80 39 00
        E 0 90 3b 60
        E 80 80 3b 00
        E 2080 90 37 60
        E 80 80 37 00
        E 0 90 39 60
        E 80 80 39 00
        E 0 90 3b 60
        E 80 80 3b 00
        E 0 90 39 60
        E 80 80 39 00
        E 0 90 3b 60
        E 80 80 3b 00
        E 0 90 3e 60
        E 80 80 3e 00
        E 0 90 3b 60
        E 80 80 3b 00
        E 0 90 3e 60
        E 80 80 3e 00
        E 0 90 40 60
        E 80 80 40 00
        E 0 90 3e 60
        E 80 80 3e 00
        E 0 90 40 60
        E 80 80 40 00
        E 0 90 43 60
        E 80 80 43 00
        E 0 90 40 60
        E 80 80 40 00
        E 0 90 43 60
        E 80 80 43 00
        E 0 90 45 60
        E 80 80 45 00
        E 0 90 43 60
        E 80 80 43 00
        E 0 90 40 60
        E 80 80 40 00
        E 0 90 43 60
        E 80 80 43 00
        E 0 90 40 60
        E 80 80 40 00
        E 0 90 43 60
        E 80 80 43 00
        E 0 90 45 60
        E 80 80 45 00
        E 0 90 43 60
        E 80 80 43 00
        E 9520 b0 7b 00
        GUID {193B6F69-19CA-46D7-825B-F26CC19815D6}
        IGNTEMPO 0 120.00000000 4 4
        SRCCOLOR 9
        VELLANE 132 123 128
        COLORMAP "C:\Program Files (x86)\REAPER\Data\color_maps\rockband_guitarbass.png"
        TEXTSTRINGFILE "C:\Program Files (x86)\REAPER\Data\Text_Strings\Text Events List - Pro Trainers.txt"
        CFGEDITVIEW -11808.000000 0.004654 2 12 0 0 0
        CFGEDIT 1 1 0 1 1 0 1 1 1 1 1 0.12500000 -8 0 1370 744 0 2 0 2 0.00000000 0 1 0 0 0.500000 0 0 1.000000 64
        KEYSNAP 0 7 "102030050700" 0 "Pentatonic"
        EVTFILTER 0 -1 -1 -1 -1 0 1 0 0 -1.00000000 -1.00000000
      >
    >
  >
  <TRACK '{70EE20D6-EF63-4E08-A544-D0A183BC4ED6}'
    NAME "PART KEYS_ANIM_LH"
    PEAKCOL 16576
    BEAT -1
    AUTOMODE 0
    VOLPAN 1.00000000000000 0.00000000000000 -1.00000000000000 -1.00000000000000 1.00000000000000
    MUTESOLO 0 0 0
    IPHASE 0
    ISBUS 0 0
    BUSCOMP 0 0
    SHOWINMIX 1 0.666700 0.500000 1 0.500000 -1 -1 -1
    FREEMODE 0
    SEL 0
    REC 0 0 0 0 0 0 0
    VU 2
    TRACKHEIGHT 0 0
    INQ 0 0 0 0.5000000000 100 0 0 100
    NCHAN 2
    FX 0
    TRACKID {70EE20D6-EF63-4E08-A544-D0A183BC4ED6}
    PERF 0
    MIDIOUT -1
    <MIDINOTENAMES
      0 72 "C4"
      0 71 "B3"
      0 70 "A#3"
      0 69 "A3"
      0 68 "G#3"
      0 67 "G3"
      0 66 "F#3"
      0 65 "F3"
      0 64 "E3"
      0 63 "D#3"
      0 62 "D3"
      0 61 "C#3"
      0 60 "C3"
      0 59 "B2"
      0 58 "A#2"
      0 57 "A2"
      0 56 "G#2"
      0 55 "G2"
      0 54 "F#2"
      0 53 "F2"
      0 52 "E2"
      0 51 "D#2"
      0 50 "D2"
      0 49 "C#2"
      0 48 "C2"
    >
    MAINSEND 1 0
    <FXCHAIN
      WNDRECT 0 42 716 462
      SHOW 0
      LASTSEL 1
      DOCKED 0
      BYPASS 0 0
      <JS "MIDI/midi_note_filter" ""
        48.000000 72.000000 - - - - - - - - - - - - - - - - - - - - - - - - - - - - - - - - - - - - - - - - - - - - - - - - - - - - - - - - - - - - - - 
      >
      FLOATPOS 0 0 0 0
      FXID {A0F0B1F6-51D2-414B-AA7D-6F1AB73DD6B1}
      WAK 0
      BYPASS 1 0
      <JS "MIDI/midi_transpose" ""
        -6.000000 1.000000 0.000000 127.000000 - - - - - - - - - - - - - - - - - - - - - - - - - - - - - - - - - - - - - - - - - - - - - - - - - - - - - - - - - - - - 
      >
      FLOATPOS 0 0 0 0
      FXID {BE935213-7253-49CB-B20B-7D08B1E95D80}
      WAK 0
      BYPASS 0 0
      <VST "VSTi: ReaSynth (Cockos)" "reasynth.dll" 0 ""
        eXNlcu9e7f4AAAAAAgAAAAEAAAAAAAAAAgAAAAAAAAA4AAAAAAAAAA==
        AAAQAO++rd4N8K3eppvEOxe30ToAAIA/AAAAAAAAAADMm4A+6WeIPQ==
        AAAAAAAAAD8AAIA/AACAPwAAAD8AABAAAAA=
      >
      FLOATPOS 0 0 0 0
      FXID {2B855C02-D991-4D25-8881-1CE414994349}
      WAK 0
    >
    <ITEM
      POSITION 0.00000000000000
      SNAPOFFS 0.00000000000000
      LENGTH 236.43059832085180
      LOOP 0
      ALLTAKES 0
      SEL 0
      FADEIN 1 0.000000 0.000000 1 0
      FADEOUT 1 0.000000 0.000000 1 0
      MUTE 0
      IGUID {FC209176-90D4-4796-AED6-C15EF5B7D228}
      IID 25
      NAME "PART KEYS_ANIM_LH"
      VOLPAN 1.000000 0.000000 1.000000 -1.000000
      SOFFS 0.00000000000000 0.00000000000000
      PLAYRATE 1.00000000000000 1 0.00000000000000 -1
      CHANMODE 0
      GUID {E94EE03F-E98F-48D0-9411-426D5E2B2472}
      <SOURCE MIDI
        HASDATA 1 480 QN
        POOLEDEVTS {F2F027E9-6E74-463C-BE35-88074081D9D8}
        <X 0 0
          /wNQQVJUIEtFWVNfQU5JTV9MSA==
        >
        E 236160 b0 7b 00
        GUID {193B6F69-19CA-46D7-825B-F26CC19815D6}
        IGNTEMPO 0 120.00000000 4 4
        SRCCOLOR 9
        VELLANE 132 123 128
        COLORMAP "C:\Program Files (x86)\REAPER\Data\color_maps\rockband_guitarbass.png"
        TEXTSTRINGFILE "C:\Program Files (x86)\REAPER\Data\Text_Strings\Text Events List - Pro Trainers.txt"
        CFGEDITVIEW -11808.000000 0.004654 0 15 0 0 0
        CFGEDIT 1 1 0 1 1 0 1 1 1 1 1 0.12500000 -8 0 1370 744 0 2 0 2 0.00000000 0 1 0 0 0.500000 0 0 1.000000 64
        KEYSNAP 0 7 "102030050700" 0 "Pentatonic"
        EVTFILTER 0 -1 -1 -1 -1 0 1 0 0 -1.00000000 -1.00000000
      >
    >
  >
  <TRACK '{ADB33F5D-995E-4887-8350-813A5E29961E}'
    NAME "PART REAL_BASS"
    PEAKCOL 16576
    BEAT -1
    AUTOMODE 0
    VOLPAN 1.00000000000000 0.00000000000000 -1.00000000000000 -1.00000000000000 1.00000000000000
    MUTESOLO 0 0 0
    IPHASE 0
    ISBUS 0 0
    BUSCOMP 0 0
    SHOWINMIX 1 0.666700 0.500000 1 0.500000 -1 -1 -1
    FREEMODE 0
    SEL 0
    REC 0 0 0 0 0 0 0
    VU 2
    TRACKHEIGHT 0 0
    INQ 0 0 0 0.5000000000 100 0 0 100
    NCHAN 2
    FX 1
    TRACKID {ADB33F5D-995E-4887-8350-813A5E29961E}
    PERF 0
    MIDIOUT -1
    <MIDINOTENAMES
      0 127 "Trill Marker"
      0 126 "Tremolo Marker"
      0 125 "BRE"
      0 124 "BRE"
      0 123 "BRE"
      0 122 "BRE"
      0 121 "BRE"
      0 120 "BRE (use all 6)"
      0 119 "-----------"
      0 116 "OVERDRIVE"
      0 115 "Solo Marker"
      0 109 "-----------"
      0 108 "Left Hand Position"
      0 107 "Force Chord Numbering"
      0 105 "Strum Direction"
      0 104 "Arpeggio Marker"
      0 103 "Slide Marker"
      0 102 "Force HOPO"
      0 101 "EXPERT e String"
      0 100 "EXPERT B String"
      0 99 "EXPERT G String"
      0 98 "EXPERT D String"
      0 97 "EXPERT A String"
      0 96 "EXPERT E String"
      0 21 "-----------"
      0 18 "Flat/Sharp Swap"
      0 17 "Hide Chord Names"
      0 16 "Slash Chord"
      0 15 "D#"
      0 14 "D"
      0 13 "C#"
      0 12 "C"
      0 11 "B"
      0 10 "A#"
      0 9 "A"
      0 8 "G#"
      0 7 "G"
      0 6 "F#"
      0 5 "F"
      0 4 "E"
      0 95 "-----------"
      0 81 "Strum Direction"
      0 80 "Arpeggio Marker"
      0 79 "Slide Marker"
      0 78 "Force HOPO"
      0 77 "HARD e String"
      0 76 "HARD B String"
      0 75 "HARD G String"
      0 74 "HARD D String"
      0 73 "HARD A String"
      0 72 "HARD E String"
      0 71 "-----------"
      0 56 "Arpeggio Marker"
      0 55 "Slide Marker"
      0 53 "MEDIUM e String"
      0 52 "MEDIUM B String"
      0 51 "MEDIUM G String"
      0 50 "MEDIUM D String"
      0 49 "MEDIUM A String"
      0 48 "MEDIUM E String"
      0 47 "-----------"
      0 32 "Arpeggio Marker"
      0 31 "Slide Marker"
      0 29 "EASY e String"
      0 28 "EASY B String"
      0 27 "EASY G String"
      0 26 "EASY D String"
      0 25 "EASY A String"
      0 24 "EASY E String"
    >
    MAINSEND 1 0
    <FXCHAIN
      WNDRECT 0 42 716 462
      SHOW 0
      LASTSEL 0
      DOCKED 0
      BYPASS 0 0
      <JS "c3/progtr" ""
        0.000000 3.000000 0.000000 0.000000 0.000000 0.000000 0.000000 0.000000 0.000000 1.000000 - - - - - - - - - - - - - - - - - - - - - - - - - - - - - - - - - - - - - - - - - - - - - - - - - - - - - - 
      >
      FLOATPOS 0 0 0 0
      FXID {11F1838A-503E-46DB-A4B4-F696FB5B476E}
      WAK 0
      BYPASS 1 0
      <JS "MIDI/midi_transpose" ""
        -12.000000 1.000000 0.000000 127.000000 - - - - - - - - - - - - - - - - - - - - - - - - - - - - - - - - - - - - - - - - - - - - - - - - - - - - - - - - - - - - 
      >
      FLOATPOS 0 0 0 0
      FXID {BDE3B384-87CA-423B-B124-A8575B270C99}
      WAK 0
      BYPASS 0 0
      <VST "VSTi: ReaSynth (Cockos)" "reasynth.dll" 0 ""
        eXNlcu9e7f4AAAAAAgAAAAEAAAAAAAAAAgAAAAAAAAA4AAAAAAAAAA==
        AAAQAO++rd4N8K3eppvEO+gJMjwK16M+AAAAAAAAgD8AAIA/4jAEPA==
        AAAAAAAAAD+01hM+j8L1PQAAAD8AABAAAAA=
      >
      FLOATPOS 0 0 0 0
      FXID {7E526773-F905-4DEF-8DF7-4EFFDC63E6C0}
      WAK 0
    >
    <ITEM
      POSITION 0.00000000000000
      SNAPOFFS 0.00000000000000
      LENGTH 236.43059832085180
      LOOP 0
      ALLTAKES 0
      SEL 0
      FADEIN 1 0.000000 0.000000 1 0
      FADEOUT 1 0.000000 0.000000 1 0
      MUTE 0
      IGUID {2B05E893-3C92-435D-802F-B43478732ABA}
      IID 20
      NAME "PART REAL_BASS"
      VOLPAN 1.000000 0.000000 1.000000 -1.000000
      SOFFS 0.00000000000000 0.00000000000000
      PLAYRATE 1.00000000000000 1 0.00000000000000 -1
      CHANMODE 0
      GUID {E9EF103D-ABCA-48AD-8BAD-A452C0DE4473}
      <SOURCE MIDI
        HASDATA 1 480 QN
        POOLEDEVTS {62D65BC0-EBA9-46EC-BFFC-80B9C0D0519D}
        <X 0 0
          /wNQQVJUIFJFQUxfQkFTUw==
        >
        <X 3840 0
          /wFbYmVnaW5fcGIgc29uZ190cmFpbmVyX3BiXzFd
        >
        E 0 90 19 6e
        E 0 90 31 6e
        E 0 90 49 6e
        E 0 90 61 6e
        E 0 90 6c 6c
        E 120 80 6c 00
        E 360 80 19 00
        E 0 80 31 00
        E 0 80 49 00
        E 0 80 61 00
        E 480 90 19 6d
        E 0 90 31 6d
        E 0 90 49 6d
        E 0 90 61 6d
        E 480 80 19 00
        E 0 80 31 00
        E 0 80 49 00
        E 0 80 61 00
        <X 480 0
          /wFbcGJfbm9ybSBzb25nX3RyYWluZXJfcGJfMV0=
        >
        E 0 90 19 6b
        E 0 90 31 6b
        E 0 90 49 6b
        E 0 90 61 6b
        E 0 90 6c 69
        E 120 80 6c 00
        E 360 80 19 00
        E 0 80 31 00
        E 0 80 49 00
        E 0 80 61 00
        E 480 90 19 69
        E 0 90 31 69
        E 0 90 49 69
        E 0 90 61 69
        E 480 80 19 00
        E 0 80 31 00
        E 0 80 49 00
        E 0 80 61 00
        E 480 90 19 67
        E 0 90 31 67
        E 0 90 49 67
        E 0 90 61 67
        E 0 90 6c 66
        E 120 80 6c 00
        E 360 80 19 00
        E 0 80 31 00
        E 0 80 49 00
        E 0 80 61 00
        E 480 90 19 66
        E 0 90 31 66
        E 0 90 49 66
        E 0 90 61 66
        E 480 80 19 00
        E 0 80 31 00
        E 0 80 49 00
        E 0 80 61 00
        E 480 90 19 64
        E 0 90 31 64
        E 0 90 49 64
        E 0 90 61 64
        E 0 90 74 60
        E 1440 80 19 00
        E 0 80 31 00
        E 0 80 49 00
        E 0 80 61 00
        E 240 90 6c 6b
        E 0 93 49 6b
        E 0 93 61 6b
        E 120 80 6c 00
        E 0 83 49 00
        E 0 83 61 00
        <X 120 0
          /wFbZW5kX3BiIHNvbmdfdHJhaW5lcl9wYl8xXQ==
        >
        E 0 80 74 00
        E 0 90 19 6e
        E 0 90 31 6e
        E 0 90 49 6e
        E 0 90 61 6e
        E 0 90 6c 6c
        E 120 80 6c 00
        E 360 80 19 00
        E 0 80 31 00
        E 0 80 49 00
        E 0 80 61 00
        E 480 90 19 6d
        E 0 90 31 6d
        E 0 90 49 6d
        E 0 90 61 6d
        E 480 80 19 00
        E 0 80 31 00
        E 0 80 49 00
        E 0 80 61 00
        E 480 90 19 6b
        E 0 90 31 6b
        E 0 90 49 6b
        E 0 90 61 6b
        E 0 90 6c 69 -1
        E 120 80 6c 00 -1
        E 360 80 19 00
        E 0 80 31 00
        E 0 80 49 00
        E 0 80 61 00
        E 480 90 19 69
        E 0 90 31 69
        E 0 90 49 69
        E 0 90 61 69
        E 480 80 19 00
        E 0 80 31 00
        E 0 80 49 00
        E 0 80 61 00
        E 480 90 19 67
        E 0 90 31 67
        E 0 90 49 67
        E 0 90 61 67
        E 0 90 6c 66
        E 120 80 19 00
        E 0 80 31 00
        E 0 80 49 00
        E 0 80 61 00
        E 0 80 6c 00
        E 360 90 31 67
        E 0 90 49 67
        E 0 90 61 67
        E 120 80 31 00
        E 0 80 49 00
        E 0 80 61 00
        E 360 90 19 66
        E 0 90 31 66
        E 0 90 49 66
        E 0 90 61 66
        E 480 80 19 00
        E 0 80 31 00
        E 0 80 49 00
        E 0 80 61 00
        E 480 90 19 64
        E 0 90 31 64
        E 0 90 49 64
        E 0 90 61 64
        E 120 80 19 00
        E 0 80 31 00
        E 0 80 49 00
        E 0 80 61 00
        E 120 90 31 64
        E 0 90 49 64
        E 0 90 61 64
        E 120 80 31 00
        E 0 80 49 00
        E 0 80 61 00
        E 360 93 49 64
        E 0 93 61 64
        E 120 83 49 00
        E 0 83 61 00
        E 120 90 19 69
        E 0 90 31 69
        E 0 90 49 69
        E 0 90 61 69
        E 0 90 6c 69
        E 120 80 19 00
        E 0 80 31 00
        E 0 80 49 00
        E 0 80 61 00
        E 0 80 6c 00
        E 360 90 19 69
        E 0 90 31 69
        E 0 90 49 69
        E 0 90 61 69
        E 120 80 19 00
        E 0 80 31 00
        E 0 80 49 00
        E 0 80 61 00
        E 360 90 19 6e
        E 0 90 31 6e
        E 0 90 49 6e
        E 0 90 61 6e
        E 0 90 6c 6c
        E 120 80 6c 00
        E 360 80 19 00
        E 0 80 31 00
        E 0 80 49 00
        E 0 80 61 00
        E 480 90 19 6d
        E 0 90 31 6d
        E 0 90 49 6d
        E 0 90 61 6d
        E 480 80 19 00
        E 0 80 31 00
        E 0 80 49 00
        E 0 80 61 00
        E 480 90 19 6b
        E 0 90 31 6b
        E 0 90 49 6b
        E 0 90 61 6b
        E 0 90 6c 69
        E 120 80 6c 00
        E 600 80 19 00
        E 0 80 31 00
        E 0 80 49 00
        E 0 80 61 00
        E 480 90 74 60
        E 0 93 49 69
        E 0 93 61 69
        E 120 83 49 00
        E 0 83 61 00
        E 120 90 19 69
        E 0 90 31 69
        E 0 90 49 69
        E 0 90 61 69
        E 120 80 19 00
        E 0 80 31 00
        E 0 80 49 00
        E 0 80 61 00
        E 120 90 6c 66
        E 0 93 49 67
        E 0 93 61 67
        E 120 80 6c 00
        E 0 83 49 00
        E 0 83 61 00
        E 120 90 19 67
        E 0 90 31 67
        E 0 90 49 67
        E 0 90 61 67
        E 480 80 19 00
        E 0 80 31 00
        E 0 80 49 00
        E 0 80 61 00
        E 480 90 19 66
        E 0 90 31 66
        E 0 90 49 66
        E 0 90 61 66
        E 480 80 19 00
        E 0 80 31 00
        E 0 80 49 00
        E 0 80 61 00
        E 480 90 19 64
        E 0 90 31 64
        E 0 90 49 64
        E 0 90 61 64
        E 120 80 74 00
        E 1320 80 19 00
        E 0 80 31 00
        E 0 80 49 00
        E 0 80 61 00
        E 480 90 19 6e
        E 0 90 31 6e
        E 0 90 49 6e
        E 0 90 61 6e
        E 0 90 6c 6c
        E 120 80 6c 00
        E 360 80 19 00
        E 0 80 31 00
        E 0 80 49 00
        E 0 80 61 00
        E 480 90 19 6d
        E 0 90 31 6d
        E 0 90 49 6d
        E 0 90 61 6d
        E 480 80 19 00
        E 0 80 31 00
        E 0 80 49 00
        E 0 80 61 00
        E 480 90 19 6b
        E 0 90 31 6b
        E 0 90 49 6b
        E 0 90 61 6b
        E 0 90 6c 69
        E 120 80 6c 00
        E 360 80 19 00
        E 0 80 31 00
        E 0 80 49 00
        E 0 80 61 00
        E 480 90 19 69
        E 0 90 31 69
        E 0 90 49 69
        E 0 90 61 69
        E 480 80 19 00
        E 0 80 31 00
        E 0 80 49 00
        E 0 80 61 00
        E 480 90 19 67
        E 0 90 31 67
        E 0 90 49 67
        E 0 90 61 67
        E 0 90 6c 66
        E 120 80 6c 00
        E 360 80 19 00
        E 0 80 31 00
        E 0 80 49 00
        E 0 80 61 00
        E 480 90 19 66
        E 0 90 31 66
        E 0 90 49 66
        E 0 90 61 66
        E 480 80 19 00
        E 0 80 31 00
        E 0 80 49 00
        E 0 80 61 00
        E 480 90 19 64
        E 0 90 31 64
        E 0 90 49 64
        E 0 90 61 64
        E 1440 80 19 00
        E 0 80 31 00
        E 0 80 49 00
        E 0 80 61 00
        E 240 90 6c 6c
        E 0 93 49 6e
        E 0 93 61 6e
        E 120 80 6c 00
        E 0 83 49 00
        E 0 83 61 00
        E 120 90 19 6e
        E 0 90 31 6e
        E 0 90 49 6e
        E 0 90 61 6e
        E 480 80 19 00
        E 0 80 31 00
        E 0 80 49 00
        E 0 80 61 00
        E 480 90 19 6d
        E 0 90 31 6d
        E 0 90 49 6d
        E 0 90 61 6d
        E 480 80 19 00
        E 0 80 31 00
        E 0 80 49 00
        E 0 80 61 00
        E 480 90 19 6b
        E 0 90 31 6b
        E 0 90 49 6b
        E 0 90 61 6b
        E 0 90 6c 69
        E 120 80 6c 00
        E 840 80 19 00
        E 0 80 31 00
        E 0 80 49 00
        E 0 80 61 00
        E 240 93 49 69
        E 0 93 61 69
        E 120 83 49 00
        E 0 83 61 00
        E 120 90 19 69
        E 0 90 31 69
        E 0 90 49 69
        E 0 90 61 69
        E 120 80 19 00
        E 0 80 31 00
        E 0 80 49 00
        E 0 80 61 00
        E 120 93 49 69
        E 0 93 61 69
        E 120 83 49 00
        E 0 83 61 00
        E 120 90 19 67
        E 0 90 31 67
        E 0 90 49 67
        E 0 90 61 67
        E 0 90 6c 66
        E 120 80 6c 00
        E 1320 80 19 00
        E 0 80 31 00
        E 0 80 49 00
        E 0 80 61 00
        E 480 90 19 69
        E 0 90 31 69
        E 0 90 49 69
        E 0 90 61 69
        E 0 90 6c 69
        E 120 80 19 00
        E 0 80 31 00
        E 0 80 49 00
        E 0 80 61 00
        E 0 80 6c 00
        E 120 93 49 69
        E 0 93 61 69
        E 120 83 49 00
        E 0 83 61 00
        E 120 90 19 69
        E 0 90 31 69
        E 0 90 49 69
        E 0 90 61 69
        E 960 80 19 00
        E 0 80 31 00
        E 0 80 49 00
        E 0 80 61 00
        E 480 90 19 6e
        E 0 90 31 6e
        E 0 90 49 6e
        E 0 90 61 6e
        E 0 90 6c 6c
        E 120 80 6c 00
        E 360 80 19 00
        E 0 80 31 00
        E 0 80 49 00
        E 0 80 61 00
        E 480 90 19 6d
        E 0 90 31 6d
        E 0 90 49 6d
        E 0 90 61 6d
        E 480 80 19 00
        E 0 80 31 00
        E 0 80 49 00
        E 0 80 61 00
        E 480 90 19 6b
        E 0 90 31 6b
        E 0 90 49 6b
        E 0 90 61 6b
        E 0 90 6c 69
        E 120 80 6c 00
        E 360 80 19 00
        E 0 80 31 00
        E 0 80 49 00
        E 0 80 61 00
        E 480 90 19 69
        E 0 90 31 69
        E 0 90 49 69
        E 0 90 61 69
        E 480 80 19 00
        E 0 80 31 00
        E 0 80 49 00
        E 0 80 61 00
        E 480 90 19 67
        E 0 90 31 67
        E 0 90 49 67
        E 0 90 61 67
        E 0 90 6c 66
        E 120 80 6c 00
        E 360 80 19 00
        E 0 80 31 00
        E 0 80 49 00
        E 0 80 61 00
        E 480 90 19 66
        E 0 90 31 66
        E 0 90 49 66
        E 0 90 61 66
        E 480 80 19 00
        E 0 80 31 00
        E 0 80 49 00
        E 0 80 61 00
        E 480 90 19 64
        E 0 90 31 64
        E 0 90 49 64
        E 0 90 61 64
        E 960 80 19 00
        E 0 80 31 00
        E 0 80 49 00
        E 0 80 61 00
        E 240 90 49 69
        E 0 90 61 69
        E 0 90 6c 69
        E 120 80 49 00
        E 0 80 61 00
        E 0 80 6c 00
        E 120 90 19 6b
        E 0 90 31 6b
        E 0 90 49 6b
        E 0 90 61 6b
        E 120 80 19 00
        E 0 80 31 00
        E 0 80 49 00
        E 0 80 61 00
        E 360 90 19 6e
        E 0 90 31 6e
        E 0 90 49 6e
        E 0 90 61 6e
        E 0 90 6c 6c
        E 0 90 74 60
        E 120 80 6c 00
        E 360 80 19 00
        E 0 80 31 00
        E 0 80 49 00
        E 0 80 61 00
        E 480 90 19 6d
        E 0 90 31 6d
        E 0 90 49 6d
        E 0 90 61 6d
        E 480 80 19 00
        E 0 80 31 00
        E 0 80 49 00
        E 0 80 61 00
        E 480 90 19 6b
        E 0 90 31 6b
        E 0 90 49 6b
        E 0 90 61 6b
        E 0 90 6c 69
        E 120 80 74 00
        E 0 80 6c 00
        E 1320 80 19 00
        E 0 80 31 00
        E 0 80 49 00
        E 0 80 61 00
        E 480 90 19 67
        E 0 90 31 67
        E 0 90 49 67
        E 0 90 61 67
        E 0 90 6c 66
        E 120 80 19 00
        E 0 80 31 00
        E 0 80 49 00
        E 0 80 61 00
        E 0 80 6c 00
        E 360 90 31 67
        E 0 90 49 67
        E 0 90 61 67
        E 120 80 31 00
        E 0 80 49 00
        E 0 80 61 00
        E 360 90 19 66
        E 0 90 31 66
        E 0 90 49 66
        E 0 90 61 66
        E 480 80 19 00
        E 0 80 31 00
        E 0 80 49 00
        E 0 80 61 00
        E 480 90 19 64
        E 0 90 31 64
        E 0 90 49 64
        E 0 90 61 64
        E 1440 80 19 00
        E 0 80 31 00
        E 0 80 49 00
        E 0 80 61 00
        E 240 93 49 6b
        E 0 93 61 6b
        E 120 83 49 00
        E 0 83 61 00
        E 120 90 19 6e
        E 0 90 31 6e
        E 0 90 49 6e
        E 0 90 61 6e
        E 0 90 6c 6c
        E 120 80 6c 00
        E 360 80 19 00
        E 0 80 31 00
        E 0 80 49 00
        E 0 80 61 00
        E 480 90 19 6d
        E 0 90 31 6d
        E 0 90 49 6d
        E 0 90 61 6d
        E 480 80 19 00
        E 0 80 31 00
        E 0 80 49 00
        E 0 80 61 00
        E 480 90 19 6b
        E 0 90 31 6b
        E 0 90 49 6b
        E 0 90 61 6b
        E 0 90 6c 69
        E 120 80 6c 00
        E 360 80 19 00
        E 0 80 31 00
        E 0 80 49 00
        E 0 80 61 00
        E 480 90 19 69
        E 0 90 31 69
        E 0 90 49 69
        E 0 90 61 69
        E 480 80 19 00
        E 0 80 31 00
        E 0 80 49 00
        E 0 80 61 00
        E 480 90 19 67
        E 0 90 31 67
        E 0 90 49 67
        E 0 90 61 67
        E 0 90 6c 66
        E 120 80 6c 00
        E 360 80 19 00
        E 0 80 31 00
        E 0 80 49 00
        E 0 80 61 00
        E 480 90 19 66
        E 0 90 31 66
        E 0 90 49 66
        E 0 90 61 66
        E 480 80 19 00
        E 0 80 31 00
        E 0 80 49 00
        E 0 80 61 00
        E 480 90 19 64
        E 0 90 31 64
        E 0 90 49 64
        E 0 90 61 64
        E 1440 80 19 00
        E 0 80 31 00
        E 0 80 49 00
        E 0 80 61 00
        E 480 90 19 6e
        E 0 90 31 6e
        E 0 90 49 6e
        E 0 90 61 6e
        E 0 90 6c 6c
        E 120 80 6c 00
        E 360 80 19 00
        E 0 80 31 00
        E 0 80 49 00
        E 0 80 61 00
        E 480 90 19 6d
        E 0 90 31 6d
        E 0 90 49 6d
        E 0 90 61 6d
        E 480 80 19 00
        E 0 80 31 00
        E 0 80 49 00
        E 0 80 61 00
        E 480 90 19 6b
        E 0 90 31 6b
        E 0 90 49 6b
        E 0 90 61 6b
        E 0 90 6c 69
        E 120 80 6c 00
        E 840 80 19 00
        E 0 80 31 00
        E 0 80 49 00
        E 0 80 61 00
        E 480 90 31 69
        E 0 90 49 69
        E 0 90 61 69
        E 120 80 31 00
        E 0 80 49 00
        E 0 80 61 00
        E 360 90 19 67
        E 0 90 31 67
        E 0 90 49 67
        E 0 90 61 67
        E 0 90 6c 67
        E 120 80 6c 00
        E 360 80 19 00
        E 0 80 31 00
        E 240 80 49 00
        E 0 80 61 00
        E 240 90 19 67
        E 0 90 31 67
        E 0 90 49 67
        E 0 90 61 67
        E 480 80 19 00
        E 0 80 31 00
        E 0 80 49 00
        E 0 80 61 00
        E 480 90 19 69
        E 0 90 31 69
        E 0 90 49 69
        E 0 90 61 69
        E 120 80 19 00
        E 0 80 31 00
        E 0 80 49 00
        E 0 80 61 00
        E 120 93 49 69
        E 0 93 61 69
        E 120 83 49 00
        E 0 83 61 00
        E 120 90 19 69
        E 0 90 31 69
        E 0 90 49 69
        E 0 90 61 69
        E 480 80 19 00
        E 0 80 31 00
        E 240 80 49 00
        E 0 80 61 00
        E 240 90 19 69
        E 0 90 31 69
        E 0 90 49 69
        E 0 90 61 69
        E 120 80 19 00
        E 0 80 31 00
        E 0 80 49 00
        E 0 80 61 00
        <X 360 0
          /wFbYmVnaW5fcGIgc29uZ190cmFpbmVyX3BiXzJd
        >
        E 0 90 19 6e
        E 0 90 31 6e
        E 0 90 49 6e
        E 0 90 61 6e
        E 0 90 6c 6c
        E 120 80 6c 00
        E 1320 80 19 00
        E 0 80 31 00
        E 0 80 49 00
        E 0 80 61 00
        <X 480 0
          /wFbcGJfbm9ybSBzb25nX3RyYWluZXJfcGJfMl0=
        >
        E 0 90 18 6c
        E 0 90 30 6c
        E 0 90 48 6c
        E 0 90 60 6c
        E 1440 80 18 00
        E 0 80 30 00
        E 0 80 48 00
        E 0 80 60 00
        E 480 90 19 6e
        E 0 90 31 6e
        E 0 90 49 6e
        E 0 90 61 6e
        E 1680 80 19 00
        E 0 80 31 00
        E 240 80 49 00
        E 0 80 61 00
        E 240 90 6c 67
        E 0 93 30 67
        E 0 93 48 67
        E 0 93 60 67
        E 120 80 6c 00
        E 0 83 30 00
        E 0 83 48 00
        E 0 83 60 00
        E 120 90 18 67
        E 0 90 30 67
        E 0 90 48 67
        E 0 90 60 67
        E 120 80 18 00
        E 0 80 30 00
        E 360 80 48 00
        E 0 80 60 00
        E 240 93 30 67
        E 0 93 48 67
        E 0 93 60 67
        E 120 83 30 00
        E 0 83 48 00
        E 0 83 60 00
        E 120 93 30 67
        E 0 93 48 67
        E 0 93 60 67
        E 120 83 30 00
        E 0 83 48 00
        E 0 83 60 00
        E 120 93 48 67
        E 0 93 60 67
        E 120 83 48 00
        E 0 83 60 00
        <X 120 0
          /wFbZW5kX3BiIHNvbmdfdHJhaW5lcl9wYl8yXQ==
        >
        <X 0 0
          /wFbYmVnaW5fcGIgc29uZ190cmFpbmVyX3BiXzNd
        >
        E 0 90 19 67
        E 0 90 31 67
        E 0 90 49 67
        E 0 90 61 67
        E 480 80 19 00
        E 0 80 31 00
        E 240 80 49 00
        E 0 80 61 00
        E 240 90 19 67
        E 0 90 31 67
        E 0 90 49 67
        E 0 90 61 67
        <X 960 0
          /wFbcGJfbm9ybSBzb25nX3RyYWluZXJfcGJfM10=
        >
        E 0 80 19 00
        E 0 80 31 00
        E 240 80 49 00
        E 0 80 61 00
        E 240 90 18 67
        E 0 90 30 67
        E 0 90 48 67
        E 0 90 60 67
        E 120 80 18 00
        E 0 80 30 00
        E 0 80 48 00
        E 0 80 60 00
        E 120 90 48 69
        E 0 90 60 69
        E 120 80 48 00
        E 0 80 60 00
        E 360 90 31 67
        E 0 90 49 67
        E 0 90 61 67
        E 120 80 31 00
        E 0 80 49 00
        E 0 80 61 00
        E 360 93 49 69
        E 0 93 61 69
        E 120 83 49 00
        E 0 83 61 00
        E 120 90 19 69
        E 0 90 31 69
        E 0 90 49 69
        E 0 90 61 69
        E 480 80 19 00
        E 0 80 31 00
        E 240 80 49 00
        E 0 80 61 00
        E 240 90 19 69
        E 0 90 31 69
        E 0 90 49 69
        E 0 90 61 69
        E 1920 80 19 00
        E 0 80 31 00
        E 0 80 49 00
        E 0 80 61 00
        E 240 93 49 69
        E 0 93 61 69
        E 120 83 49 00
        E 0 83 61 00
        E 120 90 19 69
        E 0 90 31 69
        E 0 90 49 69
        E 0 90 61 69
        E 120 80 19 00
        E 0 80 31 00
        E 0 80 49 00
        E 0 80 61 00
        E 120 93 49 67
        E 0 93 61 67
        E 120 83 49 00
        E 0 83 61 00
        <X 120 0
          /wFbYmVnaW5fcGIgc29uZ190cmFpbmVyX3BiXzRd
        >
        <X 0 0
          /wFbZW5kX3BiIHNvbmdfdHJhaW5lcl9wYl8zXQ==
        >
        E 0 90 19 67
        E 0 90 31 67
        E 0 90 49 67
        E 0 90 61 67
        E 0 90 74 60
        E 480 80 19 00
        E 0 80 31 00
        E 240 80 49 00
        E 0 80 61 00
        E 240 90 19 67
        E 0 90 31 67
        E 0 90 49 67
        E 0 90 61 67
        E 1200 80 19 00
        E 0 80 31 00
        <X 240 0
          /wFbcGJfbm9ybSBzb25nX3RyYWluZXJfcGJfNF0=
        >
        E 0 80 49 00
        E 0 80 61 00
        E 240 90 1b 69
        E 0 90 33 69
        E 0 90 4b 69
        E 0 90 63 69
        E 120 80 1b 00
        E 0 80 33 00
        E 0 80 4b 00
        E 0 80 63 00
        E 360 90 31 67
        E 0 90 49 67
        E 0 90 61 67
        E 120 80 31 00
        E 0 80 49 00
        E 0 80 61 00
        E 600 90 19 69
        E 0 90 31 69
        E 0 90 49 69
        E 0 90 61 69
        E 0 90 6c 69
        E 120 80 74 00
        E 0 80 6c 00
        E 3240 80 19 00
        E 0 80 31 00
        E 0 80 49 00
        E 0 80 61 00
        E 480 90 1b 6b
        E 0 90 33 6b
        E 0 90 4b 6b
        E 0 90 63 6b
        E 3360 80 1b 00
        E 0 80 33 00
        E 0 80 4b 00
        E 0 80 63 00
        <X 480 0
          /wFbZW5kX3BiIHNvbmdfdHJhaW5lcl9wYl80XQ==
        >
        E 0 90 19 6e
        E 0 90 31 6e
        E 0 90 49 6e
        E 0 90 61 6e
        E 0 90 6c 6c
        E 120 80 6c 00
        E 360 80 19 00
        E 0 80 31 00
        E 0 80 49 00
        E 0 80 61 00
        E 480 90 19 6d
        E 0 90 31 6d
        E 0 90 49 6d
        E 0 90 61 6d
        E 480 80 19 00
        E 0 80 31 00
        E 0 80 49 00
        E 0 80 61 00
        E 480 90 19 6b
        E 0 90 31 6b
        E 0 90 49 6b
        E 0 90 61 6b
        E 0 90 6c 69
        E 120 80 6c 00
        E 360 80 19 00
        E 0 80 31 00
        E 0 80 49 00
        E 0 80 61 00
        E 480 90 19 69
        E 0 90 31 69
        E 0 90 49 69
        E 0 90 61 69
        E 480 80 19 00
        E 0 80 31 00
        E 0 80 49 00
        E 0 80 61 00
        E 480 90 19 67
        E 0 90 31 67
        E 0 90 49 67
        E 0 90 61 67
        E 0 90 6c 66
        E 120 80 6c 00
        E 360 80 19 00
        E 0 80 31 00
        E 0 80 49 00
        E 0 80 61 00
        E 480 90 19 66
        E 0 90 31 66
        E 0 90 49 66
        E 0 90 61 66
        E 480 80 19 00
        E 0 80 31 00
        E 0 80 49 00
        E 0 80 61 00
        E 480 90 19 64
        E 0 90 31 64
        E 0 90 49 64
        E 0 90 61 64
        E 960 80 19 00
        E 0 80 31 00
        E 0 80 49 00
        E 0 80 61 00
        E 480 90 31 69
        E 0 90 49 69
        E 0 90 61 69
        E 0 90 6c 69
        E 120 80 31 00
        E 0 80 49 00
        E 0 80 61 00
        E 0 80 6c 00
        E 360 90 19 6e
        E 0 90 31 6e
        E 0 90 49 6e
        E 0 90 61 6e
        E 0 90 6c 6c
        E 120 80 6c 00
        E 360 80 19 00
        E 0 80 31 00
        E 0 80 49 00
        E 0 80 61 00
        E 480 90 19 6d
        E 0 90 31 6d
        E 0 90 49 6d
        E 0 90 61 6d
        E 480 80 19 00
        E 0 80 31 00
        E 0 80 49 00
        E 0 80 61 00
        E 480 90 19 6b
        E 0 90 31 6b
        E 0 90 49 6b
        E 0 90 61 6b
        E 0 90 6c 69
        E 120 80 6c 00
        E 360 80 19 00
        E 0 80 31 00
        E 0 80 49 00
        E 0 80 61 00
        E 480 90 19 69
        E 0 90 31 69
        E 0 90 49 69
        E 0 90 61 69
        E 480 80 19 00
        E 0 80 31 00
        E 0 80 49 00
        E 0 80 61 00
        E 480 90 19 67
        E 0 90 31 67
        E 0 90 49 67
        E 0 90 61 67
        E 0 90 6c 66
        E 120 80 6c 00
        E 360 80 19 00
        E 0 80 31 00
        E 0 80 49 00
        E 0 80 61 00
        E 480 90 19 66
        E 0 90 31 66
        E 0 90 49 66
        E 0 90 61 66
        E 480 80 19 00
        E 0 80 31 00
        E 0 80 49 00
        E 0 80 61 00
        E 480 90 19 64
        E 0 90 31 64
        E 0 90 49 64
        E 0 90 61 64
        E 120 80 19 00
        E 0 80 31 00
        E 0 80 49 00
        E 0 80 61 00
        E 360 90 19 64
        E 0 90 31 64
        E 0 90 49 64
        E 0 90 61 64
        E 960 80 19 00
        E 0 80 31 00
        E 240 80 49 00
        E 0 80 61 00
        E 240 90 19 6e
        E 0 90 31 6e
        E 0 90 49 6e
        E 0 90 61 6e
        E 0 90 6c 6c
        E 120 80 6c 00
        E 360 80 19 00
        E 0 80 31 00
        E 0 80 49 00
        E 0 80 61 00
        E 480 90 19 6d
        E 0 90 31 6d
        E 0 90 49 6d
        E 0 90 61 6d
        E 480 80 19 00
        E 0 80 31 00
        E 0 80 49 00
        E 0 80 61 00
        E 480 90 19 6b
        E 0 90 31 6b
        E 0 90 49 6b
        E 0 90 61 6b
        E 0 90 6c 69
        E 120 80 6c 00
        E 840 80 19 00
        E 0 80 31 00
        E 0 80 49 00
        E 0 80 61 00
        E 240 93 49 69
        E 0 93 61 69
        E 120 83 49 00
        E 0 83 61 00
        E 120 90 19 69
        E 0 90 31 69
        E 0 90 49 69
        E 0 90 61 69
        E 120 80 19 00
        E 0 80 31 00
        E 0 80 49 00
        E 0 80 61 00
        E 120 90 6c 66
        E 0 93 49 67
        E 0 93 61 67
        E 120 80 6c 00
        E 0 83 49 00
        E 0 83 61 00
        E 120 90 19 67
        E 0 90 31 67
        E 0 90 49 67
        E 0 90 61 67
        E 480 80 19 00
        E 0 80 31 00
        E 0 80 49 00
        E 0 80 61 00
        E 480 90 19 66
        E 0 90 31 66
        E 0 90 49 66
        E 0 90 61 66
        E 480 80 19 00
        E 0 80 31 00
        E 0 80 49 00
        E 0 80 61 00
        E 480 90 19 64
        E 0 90 31 64
        E 0 90 49 64
        E 0 90 61 64
        E 960 80 19 00
        E 0 80 31 00
        E 240 80 49 00
        E 0 80 61 00
        E 240 93 31 64
        E 0 93 49 64
        E 0 93 61 64
        E 120 83 31 00
        E 0 83 49 00
        E 0 83 61 00
        E 360 90 19 6e
        E 0 90 31 6e
        E 0 90 49 6e
        E 0 90 61 6e
        E 0 90 6c 6c
        E 120 80 6c 00
        E 360 80 19 00
        E 0 80 31 00
        E 0 80 49 00
        E 0 80 61 00
        E 480 90 19 6d
        E 0 90 31 6d
        E 0 90 49 6d
        E 0 90 61 6d
        E 480 80 19 00
        E 0 80 31 00
        E 0 80 49 00
        E 0 80 61 00
        E 480 90 19 6b
        E 0 90 31 6b
        E 0 90 49 6b
        E 0 90 61 6b
        E 0 90 6c 69
        E 120 80 6c 00
        E 360 80 19 00
        E 0 80 31 00
        E 0 80 49 00
        E 0 80 61 00
        E 480 90 19 69
        E 0 90 31 69
        E 0 90 49 69
        E 0 90 61 69
        E 480 80 19 00
        E 0 80 31 00
        E 0 80 49 00
        E 0 80 61 00
        E 480 90 19 67
        E 0 90 31 67
        E 0 90 49 67
        E 0 90 61 67
        E 0 90 6c 66
        E 120 80 6c 00
        E 360 80 19 00
        E 0 80 31 00
        E 0 80 49 00
        E 0 80 61 00
        E 480 90 19 66
        E 0 90 31 66
        E 0 90 49 66
        E 0 90 61 66
        E 480 80 19 00
        E 0 80 31 00
        E 0 80 49 00
        E 0 80 61 00
        E 480 90 19 64
        E 0 90 31 64
        E 0 90 49 64
        E 0 90 61 64
        E 0 90 6c 69
        E 0 90 74 60
        E 120 80 19 00
        E 0 80 31 00
        E 0 80 49 00
        E 0 80 61 00
        E 0 80 6c 00
        E 360 90 19 64
        E 0 90 31 64
        E 0 90 49 64
        E 0 90 61 64
        E 480 80 19 00
        E 0 80 31 00
        E 0 80 49 00
        E 0 80 61 00
        E 240 93 49 64
        E 0 93 61 64
        E 120 83 49 00
        E 0 83 61 00
        E 120 90 19 69
        E 0 90 31 69
        E 0 90 49 69
        E 0 90 61 69
        E 120 80 19 00
        E 0 80 31 00
        E 0 80 49 00
        E 0 80 61 00
        E 120 90 49 69
        E 0 90 61 6b
        E 120 80 49 00
        E 0 80 61 00
        E 120 90 19 6e
        E 0 90 31 6e
        E 0 90 49 6e
        E 0 90 61 6e
        E 0 90 6c 6c
        E 120 80 6c 00
        E 360 80 74 00
        E 0 80 19 00
        E 0 80 31 00
        E 0 80 49 00
        E 0 80 61 00
        E 480 90 19 6d
        E 0 90 31 6d
        E 0 90 49 6d
        E 0 90 61 6d
        E 480 80 19 00
        E 0 80 31 00
        E 0 80 49 00
        E 0 80 61 00
        E 480 90 19 6b
        E 0 90 31 6b
        E 0 90 49 6b
        E 0 90 61 6b
        E 0 90 6c 69
        E 120 80 6c 00
        E 360 80 19 00
        E 0 80 31 00
        E 0 80 49 00
        E 0 80 61 00
        E 480 90 19 69
        E 0 90 31 69
        E 0 90 49 69
        E 0 90 61 69
        E 480 80 19 00
        E 0 80 31 00
        E 0 80 49 00
        E 0 80 61 00
        E 480 90 19 67
        E 0 90 31 67
        E 0 90 49 67
        E 0 90 61 67
        E 0 90 6c 67
        E 120 80 6c 00
        E 1320 80 19 00
        E 0 80 31 00
        E 0 80 49 00
        E 0 80 61 00
        E 480 90 19 69
        E 0 90 31 69
        E 0 90 49 69
        E 0 90 61 69
        E 120 80 19 00
        E 0 80 31 00
        E 0 80 49 00
        E 0 80 61 00
        E 360 90 19 69
        E 0 90 31 69
        E 0 90 49 69
        E 0 90 61 69
        E 120 80 19 00
        E 0 80 31 00
        E 480 80 49 00
        E 0 80 61 00
        E 120 90 31 69
        E 0 90 49 69
        E 0 90 61 69
        E 120 80 31 00
        E 0 80 49 00
        E 0 80 61 00
        E 360 93 49 69
        E 0 93 61 69
        E 120 83 49 00
        E 0 83 61 00
        E 120 90 19 6e
        E 0 90 31 6e
        E 0 90 49 6e
        E 0 90 61 6e
        E 0 90 6c 6c
        E 120 80 6c 00
        E 360 80 19 00
        E 0 80 31 00
        E 0 80 49 00
        E 0 80 61 00
        E 480 90 19 6d
        E 0 90 31 6d
        E 0 90 49 6d
        E 0 90 61 6d
        E 480 80 19 00
        E 0 80 31 00
        E 0 80 49 00
        E 0 80 61 00
        E 480 90 19 6b
        E 0 90 31 6b
        E 0 90 49 6b
        E 0 90 61 6b
        E 0 90 6c 69
        E 120 80 6c 00
        E 840 80 19 00
        E 0 80 31 00
        E 0 80 49 00
        E 0 80 61 00
        E 240 93 49 69
        E 0 93 61 69
        E 120 83 49 00
        E 0 83 61 00
        E 120 90 19 69
        E 0 90 31 69
        E 0 90 49 69
        E 0 90 61 69
        E 120 80 19 00
        E 0 80 31 00
        E 0 80 49 00
        E 0 80 61 00
        E 120 90 6c 67
        E 0 93 49 67
        E 0 93 61 67
        E 120 80 6c 00
        E 0 83 49 00
        E 0 83 61 00
        E 120 90 19 67
        E 0 90 31 67
        E 0 90 49 67
        E 0 90 61 67
        E 1440 80 19 00
        E 0 80 31 00
        E 0 80 49 00
        E 0 80 61 00
        E 240 93 49 69
        E 0 93 61 69
        E 120 83 49 00
        E 0 83 61 00
        E 120 90 19 69
        E 0 90 31 69
        E 0 90 49 69
        E 0 90 61 69
        E 1440 80 19 00
        E 0 80 31 00
        E 0 80 49 00
        E 0 80 61 00
        E 480 90 19 6e
        E 0 90 31 6e
        E 0 90 49 6e
        E 0 90 61 6e
        E 0 90 6c 6c
        E 120 80 6c 00
        E 360 80 19 00
        E 0 80 31 00
        E 0 80 49 00
        E 0 80 61 00
        E 480 90 19 6d
        E 0 90 31 6d
        E 0 90 49 6d
        E 0 90 61 6d
        E 480 80 19 00
        E 0 80 31 00
        E 0 80 49 00
        E 0 80 61 00
        E 480 90 19 6b
        E 0 90 31 6b
        E 0 90 49 6b
        E 0 90 61 6b
        E 0 90 6c 69
        E 120 80 6c 00
        E 840 80 19 00
        E 0 80 31 00
        E 0 80 49 00
        E 0 80 61 00
        E 240 93 49 69
        E 0 93 61 69
        E 120 83 49 00
        E 0 83 61 00
        E 120 90 19 69
        E 0 90 31 69
        E 0 90 49 69
        E 0 90 61 69
        E 120 80 19 00
        E 0 80 31 00
        E 0 80 49 00
        E 0 80 61 00
        E 120 90 6c 66
        E 0 93 49 67
        E 0 93 61 67
        E 120 80 6c 00
        E 0 83 49 00
        E 0 83 61 00
        E 120 90 19 67
        E 0 90 31 67
        E 0 90 49 67
        E 0 90 61 67
        E 480 80 19 00
        E 0 80 31 00
        E 0 80 49 00
        E 0 80 61 00
        E 480 90 19 66
        E 0 90 31 66
        E 0 90 49 66
        E 0 90 61 66
        E 480 80 19 00
        E 0 80 31 00
        E 0 80 49 00
        E 0 80 61 00
        E 480 90 19 64
        E 0 90 31 64
        E 0 90 49 64
        E 0 90 61 64
        E 1440 80 19 00
        E 0 80 31 00
        E 0 80 49 00
        E 0 80 61 00
        E 480 90 19 6e
        E 0 90 31 6e
        E 0 90 49 6e
        E 0 90 61 6e
        E 0 90 6c 6c
        E 0 90 74 60
        E 120 80 6c 00
        E 360 80 19 00
        E 0 80 31 00
        E 0 80 49 00
        E 0 80 61 00
        E 480 90 19 6d
        E 0 90 31 6d
        E 0 90 49 6d
        E 0 90 61 6d
        E 480 80 19 00
        E 0 80 31 00
        E 0 80 49 00
        E 0 80 61 00
        E 480 90 19 6b
        E 0 90 31 6b
        E 0 90 49 6b
        E 0 90 61 6b
        E 0 90 6c 69
        E 120 80 6c 00
        E 360 80 19 00
        E 0 80 31 00
        E 0 80 49 00
        E 0 80 61 00
        E 480 90 19 69
        E 0 90 31 69
        E 0 90 49 69
        E 0 90 61 69
        E 120 80 74 00
        E 360 80 19 00
        E 0 80 31 00
        E 0 80 49 00
        E 0 80 61 00
        E 480 90 19 67
        E 0 90 31 67
        E 0 90 49 67
        E 0 90 61 67
        E 0 90 6c 66
        E 120 80 6c 00
        E 360 80 19 00
        E 0 80 31 00
        E 0 80 49 00
        E 0 80 61 00
        E 480 90 19 66
        E 0 90 31 66
        E 0 90 49 66
        E 0 90 61 66
        E 480 80 19 00
        E 0 80 31 00
        E 0 80 49 00
        E 0 80 61 00
        E 480 90 19 64
        E 0 90 31 64
        E 0 90 49 64
        E 0 90 61 64
        E 120 80 19 00
        E 0 80 31 00
        E 0 80 49 00
        E 0 80 61 00
        E 360 90 19 64
        E 0 90 31 64
        E 0 90 49 64
        E 0 90 61 64
        E 960 80 19 00
        E 0 80 31 00
        E 0 80 49 00
        E 0 80 61 00
        E 480 90 19 6e
        E 0 90 31 6e
        E 0 90 49 6e
        E 0 90 61 6e
        E 0 90 6c 6c
        E 120 80 6c 00
        E 360 80 19 00
        E 0 80 31 00
        E 0 80 49 00
        E 0 80 61 00
        E 480 90 19 6d
        E 0 90 31 6d
        E 0 90 49 6d
        E 0 90 61 6d
        E 480 80 19 00
        E 0 80 31 00
        E 0 80 49 00
        E 0 80 61 00
        E 480 90 19 6b
        E 0 90 31 6b
        E 0 90 49 6b
        E 0 90 61 6b
        E 0 90 6c 69
        E 120 80 6c 00
        E 360 80 19 00
        E 0 80 31 00
        E 0 80 49 00
        E 0 80 61 00
        E 480 90 19 69
        E 0 90 31 69
        E 0 90 49 69
        E 0 90 61 69
        E 480 80 19 00
        E 0 80 31 00
        E 0 80 49 00
        E 0 80 61 00
        E 480 90 19 67
        E 0 90 31 67
        E 0 90 49 67
        E 0 90 61 67
        E 0 90 6c 67
        E 120 80 6c 00
        E 360 80 19 00
        E 0 80 31 00
        E 240 80 49 00
        E 0 80 61 00
        E 240 90 19 67
        E 0 90 31 67
        E 0 90 49 67
        E 0 90 61 67
        E 480 80 19 00
        E 0 80 31 00
        E 0 80 49 00
        E 0 80 61 00
        E 480 90 19 69
        E 0 90 31 69
        E 0 90 49 69
        E 0 90 61 69
        E 120 80 19 00
        E 0 80 31 00
        E 0 80 49 00
        E 0 80 61 00
        E 360 90 19 69
        E 0 90 31 69
        E 0 90 49 69
        E 0 90 61 69
        E 960 80 19 00
        E 0 80 31 00
        E 0 80 49 00
        E 0 80 61 00
        E 240 90 61 69
        E 0 93 49 69
        E 120 80 61 00
        E 0 83 49 00
        E 120 90 18 67
        E 0 90 30 67
        E 0 90 48 67
        E 0 90 60 67
        E 0 90 6c 67
        E 120 80 6c 00
        E 360 80 18 00
        E 240 80 30 00
        E 120 80 48 00
        E 0 80 60 00
        E 120 90 1a 69
        E 0 90 32 69
        E 0 90 4a 69
        E 0 90 62 69
        E 480 80 1a 00
        E 0 80 32 00
        E 0 80 4a 00
        E 0 80 62 00
        E 480 90 18 6c
        E 0 90 30 6c
        E 0 90 48 6c
        E 0 90 60 6c
        E 0 90 6c 6c
        E 120 80 6c 00
        E 840 80 18 00
        E 0 80 30 00
        E 0 80 48 00
        E 0 80 60 00
        E 240 93 48 6e
        E 0 93 60 6e
        E 120 83 48 00
        E 0 83 60 00
        E 120 90 30 6e
        E 0 90 48 6e
        E 0 90 60 6e
        E 120 80 30 00
        E 0 80 48 00
        E 0 80 60 00
        E 120 93 48 6e
        E 0 93 60 6e
        E 120 83 48 00
        E 0 83 60 00
        E 120 90 19 6e
        E 0 90 31 6e
        E 0 90 49 6e
        E 0 90 61 6e
        E 2160 80 19 00
        E 0 80 31 00
        E 240 80 49 00
        E 0 80 61 00
        E 240 90 19 6b
        E 0 90 31 6b
        E 0 90 49 6b
        E 0 90 61 6b
        E 0 90 6c 69
        E 120 80 19 00
        E 0 80 31 00
        E 0 80 49 00
        E 0 80 61 00
        E 0 80 6c 00
        E 360 90 31 69
        E 0 90 49 69
        E 0 90 61 69
        E 120 80 31 00
        E 0 80 49 00
        E 0 80 61 00
        E 360 90 6c 67
        E 0 93 49 67
        E 0 93 61 67
        E 120 80 6c 00
        E 0 83 49 00
        E 0 83 61 00
        E 120 90 19 67
        E 0 90 31 67
        E 0 90 49 67
        E 0 90 61 67
        E 480 80 19 00
        E 0 80 31 00
        E 360 80 49 00
        E 0 80 61 00
        E 120 90 19 67
        E 0 90 31 67
        E 0 90 49 67
        E 0 90 61 67
        E 1440 80 19 00
        E 0 80 31 00
        E 240 80 49 00
        E 0 80 61 00
        E 240 90 74 60
        E 0 90 18 67
        E 0 90 30 67
        E 0 90 48 67
        E 0 90 60 67
        E 120 80 18 00
        E 0 80 30 00
        E 0 80 48 00
        E 0 80 60 00
        E 120 90 48 69
        E 0 90 60 69
        E 120 80 48 00
        E 0 80 60 00
        E 600 90 19 69
        E 0 90 31 69
        E 0 90 49 69
        E 0 90 61 69
        E 480 80 19 00
        E 0 80 31 00
        E 360 80 49 00
        E 0 80 61 00
        E 120 90 19 69
        E 0 90 31 69
        E 0 90 49 69
        E 0 90 61 69
        E 120 80 74 00
        E 1800 80 19 00
        E 0 80 31 00
        E 0 80 49 00
        E 0 80 61 00
        E 960 90 19 67
        E 0 90 31 67
        E 0 90 49 67
        E 0 90 61 67
        E 2160 80 19 00
        E 0 80 31 00
        E 0 80 49 00
        E 0 80 61 00
        E 480 90 1b 69
        E 0 90 33 69
        E 0 90 4b 69
        E 0 90 63 69
        E 120 80 1b 00
        E 0 80 33 00
        E 0 80 4b 00
        E 0 80 63 00
        E 360 93 31 67
        E 0 93 49 67
        E 0 93 61 67
        E 120 83 31 00
        E 0 83 49 00
        E 0 83 61 00
        E 360 93 49 67
        E 0 93 61 67
        E 120 83 49 00
        E 0 83 61 00
        E 120 90 19 69
        E 0 90 31 69
        E 0 90 49 69
        E 0 90 61 69
        E 0 90 6c 69
        E 120 80 6c 00
        E 3240 80 19 00
        E 0 80 31 00
        E 0 80 49 00
        E 0 80 61 00
        E 480 90 1b 6b
        E 0 90 33 6b
        E 0 90 4b 6b
        E 0 90 63 6b
        E 3360 80 1b 00
        E 0 80 33 00
        E 0 80 4b 00
        E 0 80 63 00
        E 240 90 6c 6c
        E 0 93 49 6e
        E 0 93 61 6e
        E 120 80 6c 00
        E 0 83 49 00
        E 0 83 61 00
        E 120 90 19 6e
        E 0 90 31 6e
        E 0 90 49 6e
        E 0 90 61 6e
        E 480 80 19 00
        E 0 80 31 00
        E 240 80 49 00
        E 0 80 61 00
        E 240 90 74 60
        E 0 90 19 6d
        E 0 90 31 6d
        E 0 90 49 6d
        E 0 90 61 6d
        E 480 80 19 00
        E 0 80 31 00
        E 0 80 49 00
        E 0 80 61 00
        E 480 90 19 6b
        E 0 90 31 6b
        E 0 90 49 6b
        E 0 90 61 6b
        E 0 90 6c 69
        E 120 80 6c 00
        E 360 80 19 00
        E 0 80 31 00
        E 0 80 49 00
        E 0 80 61 00
        E 480 90 19 69
        E 0 90 31 69
        E 0 90 49 69
        E 0 90 61 69
        E 480 80 19 00
        E 0 80 31 00
        E 0 80 49 00
        E 0 80 61 00
        E 480 90 19 67
        E 0 90 31 67
        E 0 90 49 67
        E 0 90 61 67
        E 0 90 6c 66
        E 120 80 74 00
        E 0 80 6c 00
        E 360 80 19 00
        E 0 80 31 00
        E 0 80 49 00
        E 0 80 61 00
        E 480 90 19 66
        E 0 90 31 66
        E 0 90 49 66
        E 0 90 61 66
        E 480 80 19 00
        E 0 80 31 00
        E 0 80 49 00
        E 0 80 61 00
        E 480 90 19 64
        E 0 90 31 64
        E 0 90 49 64
        E 0 90 61 64
        E 1440 80 19 00
        E 0 80 31 00
        E 0 80 49 00
        E 0 80 61 00
        E 480 90 19 6e
        E 0 90 31 6e
        E 0 90 49 6e
        E 0 90 61 6e
        E 0 90 6c 6c
        E 120 80 6c 00
        E 360 80 19 00
        E 0 80 31 00
        E 240 80 49 00
        E 0 80 61 00 -1
        E 240 90 19 6d
        E 0 90 31 6d
        E 0 90 49 6d
        E 0 90 61 6d
        E 480 80 19 00
        E 0 80 31 00
        E 0 80 49 00
        E 0 80 61 00
        E 480 90 19 6b
        E 0 90 31 6b
        E 0 90 49 6b
        E 0 90 61 6b
        E 0 90 6c 69
        E 120 80 6c 00
        E 360 80 19 00
        E 0 80 31 00
        E 0 80 49 00
        E 0 80 61 00
        E 480 90 19 69
        E 0 90 31 69
        E 0 90 49 69
        E 0 90 61 69
        E 480 80 19 00
        E 0 80 31 00
        E 0 80 49 00
        E 0 80 61 00
        E 480 90 19 67
        E 0 90 31 67
        E 0 90 49 67
        E 0 90 61 67
        E 0 90 6c 66
        E 120 80 6c 00
        E 360 80 19 00
        E 0 80 31 00
        E 0 80 49 00
        E 0 80 61 00
        E 480 90 19 66
        E 0 90 31 66
        E 0 90 49 66
        E 0 90 61 66
        E 480 80 19 00
        E 0 80 31 00
        E 0 80 49 00
        E 0 80 61 00
        E 480 90 19 64
        E 0 90 31 64
        E 0 90 49 64
        E 0 90 61 64
        E 120 80 19 00
        E 0 80 31 00
        E 0 80 49 00
        E 0 80 61 00
        E 360 90 19 64
        E 0 90 31 64
        E 0 90 49 64
        E 0 90 61 64
        E 480 80 19 00
        E 0 80 31 00
        E 0 80 49 00
        E 0 80 61 00
        E 240 93 49 64
        E 0 93 61 64
        E 120 83 49 00
        E 0 83 61 00
        E 120 90 19 69
        E 0 90 31 69
        E 0 90 49 69
        E 0 90 61 69
        E 0 90 6c 69
        E 120 80 19 00
        E 0 80 31 00
        E 0 80 49 00
        E 0 80 61 00
        E 0 80 6c 00
        E 120 90 49 6b
        E 0 90 61 6b
        E 120 80 49 00
        E 0 80 61 00
        E 120 90 19 6e
        E 0 90 31 6e
        E 0 90 49 6e
        E 0 90 61 6e
        E 480 80 19 00
        E 0 80 31 00
        E 240 80 49 00
        E 0 80 61 00
        E 240 90 19 6d
        E 0 90 31 6d
        E 0 90 49 6d
        E 0 90 61 6d
        E 480 80 19 00
        E 0 80 31 00
        E 0 80 49 00
        E 0 80 61 00
        E 480 90 19 6b
        E 0 90 31 6b
        E 0 90 49 6b
        E 0 90 61 6b
        E 0 90 6c 69
        E 120 80 6c 00
        E 360 80 19 00
        E 0 80 31 00
        E 0 80 49 00
        E 0 80 61 00
        E 480 90 19 69
        E 0 90 31 69
        E 0 90 49 69
        E 0 90 61 69
        E 480 80 19 00
        E 0 80 31 00
        E 0 80 49 00
        E 0 80 61 00
        E 480 90 19 67
        E 0 90 31 67
        E 0 90 49 67
        E 0 90 61 67
        E 0 90 6c 66
        E 120 80 6c 00
        E 360 80 19 00
        E 0 80 31 00
        E 0 80 49 00
        E 0 80 61 00
        E 480 90 19 66
        E 0 90 31 66
        E 0 90 49 66
        E 0 90 61 66
        E 480 80 19 00
        E 0 80 31 00
        E 0 80 49 00
        E 0 80 61 00
        E 480 90 19 64
        E 0 90 31 64
        E 0 90 49 64
        E 0 90 61 64
        E 1440 80 19 00
        E 0 80 31 00
        E 0 80 49 00
        E 0 80 61 00
        E 480 90 19 6e
        E 0 90 31 6e
        E 0 90 49 6e
        E 0 90 61 6e
        E 480 80 19 00
        E 0 80 31 00
        E 0 80 49 00
        E 240 80 61 00 -1
        E 240 90 19 6d
        E 0 90 31 6d
        E 0 90 49 6d
        E 0 90 61 6d
        E 480 80 19 00
        E 0 80 31 00
        E 0 80 49 00
        E 0 80 61 00
        E 480 90 19 6b
        E 0 90 31 6b
        E 0 90 49 6b
        E 0 90 61 6b
        E 0 90 6c 69
        E 120 80 6c 00
        E 360 80 19 00
        E 0 80 31 00
        E 0 80 49 00
        E 0 80 61 00
        E 480 90 19 69
        E 0 90 31 69
        E 0 90 49 69
        E 0 90 61 69
        E 480 80 19 00
        E 0 80 31 00
        E 0 80 49 00
        E 0 80 61 00
        E 480 90 19 67
        E 0 90 31 67
        E 0 90 49 67
        E 0 90 61 67
        E 0 90 6c 66
        E 120 80 6c 00
        E 360 80 19 00
        E 0 80 31 00
        E 0 80 49 00
        E 0 80 61 00
        E 480 90 19 66
        E 0 90 31 66
        E 0 90 49 66
        E 0 90 61 66
        E 480 80 19 00
        E 0 80 31 00
        E 0 80 49 00
        E 0 80 61 00
        E 480 90 19 64
        E 0 90 31 64
        E 0 90 49 64
        E 0 90 61 64
        E 480 80 19 00
        E 0 80 31 00
        E 0 80 49 00
        E 0 80 61 00
        E 480 90 1a 64
        E 0 90 32 64
        E 0 90 4a 64
        E 0 90 62 64
        E 480 80 1a 00
        E 0 80 32 00
        E 0 80 4a 00
        E 0 80 62 00
        E 480 90 18 67
        E 0 90 30 67
        E 0 90 48 67
        E 0 90 60 67
        E 0 90 6c 67
        E 120 80 6c 00
        E 6600 80 18 00 -1
        E 0 80 30 00 -1
        E 0 80 48 00 -1
        E 0 80 60 00
        E 2880 b0 7b 00
        GUID {B2220D6F-4BCE-4025-A7A2-B079546CF47A}
        IGNTEMPO 0 120.00000000 4 4
        SRCCOLOR 5
        VELLANE 132 123 128
        COLORMAP "C:\Users\Ruggery\AppData\Roaming\Reaper\Data\color_maps\rockband_proguitarbass.png"
        TEXTSTRINGFILE "C:\Program Files (x86)\REAPER\Data\Text_Strings\Text Events List - Pro Trainers.txt"
        CFGEDITVIEW -11808.000000 0.004654 0 12 0 0 0
        CFGEDIT 1 1 0 1 1 0 1 1 1 1 1 0.25000000 -8 -8 1370 736 0 2 0 2 0.00000000 0 1 0 0 0.500000 0 0 1.000000 64
        KEYSNAP 0 7 "102034050607" 0 "Major"
        EVTFILTER 0 -1 -1 100 114 0 0 0 0 -1.00000000 -1.00000000
      >
    >
  >
  <TRACK '{CF03B50E-9CAC-4C66-8B18-8DB7AEF0B91D}'
    NAME "PART REAL_GUITAR"
    PEAKCOL 16576
    BEAT -1
    AUTOMODE 0
    VOLPAN 1.00000000000000 0.00000000000000 -1.00000000000000 -1.00000000000000 1.00000000000000
    MUTESOLO 0 0 0
    IPHASE 0
    ISBUS 0 0
    BUSCOMP 0 0
    SHOWINMIX 1 0.666700 0.500000 1 0.500000 -1 -1 -1
    FREEMODE 0
    SEL 0
    REC 0 0 0 0 0 0 0
    VU 2
    TRACKHEIGHT 0 0
    INQ 0 0 0 0.5000000000 100 0 0 100
    NCHAN 2
    FX 0
    TRACKID {CF03B50E-9CAC-4C66-8B18-8DB7AEF0B91D}
    PERF 0
    MIDIOUT -1
    <MIDINOTENAMES
      0 127 "Trill Marker"
      0 126 "Tremolo Marker"
      0 125 "BRE"
      0 124 "BRE"
      0 123 "BRE"
      0 122 "BRE"
      0 121 "BRE"
      0 120 "BRE (use all 6)"
      0 119 "-----------"
      0 116 "OVERDRIVE"
      0 115 "Solo Marker"
      0 109 "-----------"
      0 108 "Left Hand Position"
      0 107 "Force Chord Numbering"
      0 105 "Strum Direction"
      0 104 "Arpeggio Marker"
      0 103 "Slide Marker"
      0 102 "Force HOPO"
      0 101 "EXPERT e String"
      0 100 "EXPERT B String"
      0 99 "EXPERT G String"
      0 98 "EXPERT D String"
      0 97 "EXPERT A String"
      0 96 "EXPERT E String"
      0 21 "-----------"
      0 18 "Flat/Sharp Swap"
      0 17 "Hide Chord Names"
      0 16 "Slash Chord"
      0 15 "D#"
      0 14 "D"
      0 13 "C#"
      0 12 "C"
      0 11 "B"
      0 10 "A#"
      0 9 "A"
      0 8 "G#"
      0 7 "G"
      0 6 "F#"
      0 5 "F"
      0 4 "E"
      0 95 "-----------"
      0 81 "Strum Direction"
      0 80 "Arpeggio Marker"
      0 79 "Slide Marker"
      0 78 "Force HOPO"
      0 77 "HARD e String"
      0 76 "HARD B String"
      0 75 "HARD G String"
      0 74 "HARD D String"
      0 73 "HARD A String"
      0 72 "HARD E String"
      0 71 "-----------"
      0 56 "Arpeggio Marker"
      0 55 "Slide Marker"
      0 53 "MEDIUM e String"
      0 52 "MEDIUM B String"
      0 51 "MEDIUM G String"
      0 50 "MEDIUM D String"
      0 49 "MEDIUM A String"
      0 48 "MEDIUM E String"
      0 47 "-----------"
      0 32 "Arpeggio Marker"
      0 31 "Slide Marker"
      0 29 "EASY e String"
      0 28 "EASY B String"
      0 27 "EASY G String"
      0 26 "EASY D String"
      0 25 "EASY A String"
      0 24 "EASY E String"
      14 127 "Trill Marker"
      14 126 "Tremolo Marker"
      14 125 "BRE"
      14 124 "BRE"
      14 123 "BRE"
      14 122 "BRE"
      14 121 "BRE"
      14 120 "BRE (use all 6)"
      14 119 "-----------"
      14 116 "OVERDRIVE"
      14 115 "Solo Marker"
      14 109 "-----------"
      14 108 "Left Hand Position"
      14 107 "Force Chord Numbering"
      14 105 "Strum Direction"
      14 104 "Arpeggio Marker"
      14 103 "Slide Marker"
      14 102 "Force HOPO"
      14 101 "EXPERT e String"
      14 100 "EXPERT B String"
      14 99 "EXPERT G String"
      14 98 "EXPERT D String"
      14 97 "EXPERT A String"
      14 96 "EXPERT E String"
      14 95 "-----------"
      14 81 "Strum Direction"
      14 80 "Arpeggio Marker"
      14 79 "Slide Marker"
      14 78 "Force HOPO"
      14 77 "HARD e String"
      14 76 "HARD B String"
      14 75 "HARD G String"
      14 74 "HARD D String"
      14 73 "HARD A String"
      14 72 "HARD E String"
      14 71 "-----------"
      14 56 "Arpeggio Marker"
      14 55 "Slide Marker"
      14 53 "MEDIUM e String"
      14 52 "MEDIUM B String"
      14 51 "MEDIUM G String"
      14 50 "MEDIUM D String"
      14 49 "MEDIUM A String"
      14 48 "MEDIUM E String"
      14 47 "-----------"
      14 32 "Arpeggio Marker"
      14 31 "Slide Marker"
      14 29 "EASY e String"
      14 28 "EASY B String"
      14 27 "EASY G String"
      14 26 "EASY D String"
      14 25 "EASY A String"
      14 24 "EASY E String"
      14 21 "-----------"
      14 18 "Flat/Sharp Swap"
      14 17 "Hide Chord Names"
      14 16 "Slash Chord"
      14 15 "D#"
      14 14 "D"
      14 13 "C#"
      14 12 "C"
      14 11 "B"
      14 10 "A#"
      14 9 "A"
      14 8 "G#"
      14 7 "G"
      14 6 "F#"
      14 5 "F"
      14 4 "E"
    >
    MAINSEND 1 0
    <FXCHAIN
      WNDRECT 0 42 655 462
      SHOW 0
      LASTSEL 1
      DOCKED 0
      BYPASS 0 0
      <JS "c3/progtr" ""
        0.000000 3.000000 0.000000 0.000000 0.000000 0.000000 0.000000 0.000000 0.000000 1.000000 - - - - - - - - - - - - - - - - - - - - - - - - - - - - - - - - - - - - - - - - - - - - - - - - - - - - - - 
      >
      FLOATPOS 0 0 0 0
      FXID {970289C6-A9F3-4E5E-B58E-4B187EC31901}
      WAK 0
      BYPASS 0 0
      <VST "VSTi: ReaSynth (Cockos)" "reasynth.dll" 0 ""
        eXNlcu9e7f4AAAAAAgAAAAEAAAAAAAAAAgAAAAAAAAA4AAAAAAAAAA==
        AAAQAO++rd4N8K3eppvEO2mhYD2kcH0/AAAAAClcjz6m+zw9miAvPA==
        AAAAAAAAAD87nNM8j8L1PQAAAD8AABAAAAA=
      >
      FLOATPOS 0 0 0 0
      FXID {75467FF5-A239-4A43-8D96-D2D92B6C8247}
      WAK 0
    >
    <ITEM
      POSITION 0.00000000000000
      SNAPOFFS 0.00000000000000
      LENGTH 236.43059832085180
      LOOP 0
      ALLTAKES 0
      SEL 0
      FADEIN 1 0.000000 0.000000 1 0
      FADEOUT 1 0.000000 0.000000 1 0
      MUTE 0
      IGUID {C69CC644-428D-479B-A23D-CBA9BF1C4F67}
      IID 2
      NAME "PART REAL_GUITAR"
      VOLPAN 1.000000 0.000000 1.000000 -1.000000
      SOFFS 0.00000000000000 0.00000000000000
      PLAYRATE 1.00000000000000 1 0.00000000000000 -1
      CHANMODE 0
      GUID {E6A2A01B-770A-4906-A914-1D25A504DF0E}
      <SOURCE MIDI
        HASDATA 1 480 QN
        POOLEDEVTS {0A807C46-DDD0-45EF-AAC7-1B9182351852}
        <X 0 0
          /wNQQVJUIFJFQUxfR1VJVEFS
        >
        <X 3840 0
          /wFbYmVnaW5fcGcgc29uZ190cmFpbmVyX3BnXzFd
        >
        E 0 90 07 64
        E 0 90 18 67
        E 0 90 30 67
        E 0 90 31 66
        E 0 90 48 67
        E 0 90 49 66
        E 0 90 4a 64
        E 0 90 4b 64
        E 0 90 4c 64
        E 0 90 4d 67
        E 0 90 60 67
        E 0 90 61 66
        E 0 90 62 64
        E 0 90 63 64
        E 0 90 64 64
        E 0 90 65 67
        E 0 90 6c 66
        E 0 9f 51 64
        E 0 9f 69 64
        E 120 80 07 00
        E 0 80 18 00
        E 0 80 30 00
        E 0 80 31 00
        E 0 80 6c 00
        E 240 80 48 00
        E 0 80 49 00
        E 0 80 4a 00
        E 0 80 4b 00
        E 0 80 4c 00
        E 0 80 4d 00
        E 0 80 60 00
        E 0 80 61 00
        E 0 80 62 00
        E 0 80 63 00
        E 0 80 64 00
        E 0 80 65 00
        E 0 8f 51 00
        E 0 8f 69 00
        E 120 90 30 67
        E 0 90 31 66
        E 0 90 48 67
        E 0 90 49 66
        E 0 90 4a 64
        E 0 90 4b 64
        E 0 90 4c 64
        E 0 90 4d 67
        E 0 90 60 67
        E 0 90 61 66
        E 0 90 62 64
        E 0 90 63 64
        E 0 90 64 64
        E 0 90 65 67
        E 0 9f 51 64
        E 0 9f 69 64
        E 120 80 30 00
        E 0 80 31 00
        E 0 80 48 00
        E 0 80 49 00
        E 0 80 4a 00
        E 0 80 4b 00
        E 0 80 4c 00
        E 0 80 4d 00
        E 0 80 60 00
        E 0 80 61 00
        E 0 80 62 00
        E 0 80 63 00
        E 0 80 64 00
        E 0 80 65 00
        E 0 8f 51 00
        E 0 8f 69 00
        E 120 93 48 66
        E 0 93 49 66
        E 0 93 4a 64
        E 0 93 4b 64
        E 0 93 4c 64
        E 0 93 4d 67
        E 0 93 60 66
        E 0 93 61 66
        E 0 93 62 64
        E 0 93 63 64
        E 0 93 64 64
        E 0 93 65 67
        E 120 83 48 00
        E 0 83 49 00
        E 0 83 4a 00
        E 0 83 4b 00
        E 0 83 4c 00
        E 0 83 4d 00
        E 0 83 60 00
        E 0 83 61 00
        E 0 83 62 00
        E 0 83 63 00
        E 0 83 64 00
        E 0 83 65 00
        E 120 90 07 64
        E 0 90 10 64
        E 0 90 18 66
        E 0 90 30 66
        E 0 90 31 66
        E 0 90 48 66
        E 0 90 49 66
        E 0 90 4a 64
        E 0 90 4b 64
        E 0 90 4c 64
        E 0 90 4d 67
        E 0 90 60 66
        E 0 90 61 66
        E 0 90 62 64
        E 0 90 63 64
        E 0 90 64 64
        E 0 90 65 67
        E 0 9f 51 64
        E 0 9f 69 64
        E 120 80 07 00
        E 0 80 10 00
        E 0 80 18 00
        E 0 80 30 00
        E 0 80 31 00
        E 240 80 48 00
        E 0 80 49 00
        E 0 80 4a 00
        E 0 80 4b 00
        E 0 80 4c 00
        E 0 80 4d 00
        E 0 80 60 00
        E 0 80 61 00
        E 0 80 62 00
        E 0 80 63 00
        E 0 80 64 00
        E 0 80 65 00
        E 0 8f 51 00
        E 0 8f 69 00
        E 120 90 30 66
        E 0 90 31 66
        E 0 90 48 66
        E 0 90 49 66
        E 0 90 4a 64
        E 0 90 4b 64
        E 0 90 4c 64
        E 0 90 4d 67
        E 0 90 60 66
        E 0 90 61 66
        E 0 90 62 64
        E 0 90 63 64
        E 0 90 64 64
        E 0 90 65 67
        E 0 9f 51 64
        E 0 9f 69 64
        E 120 80 30 00
        E 0 80 31 00
        E 0 80 48 00
        E 0 80 49 00
        E 0 80 4a 00
        E 0 80 4b 00
        E 0 80 4c 00
        E 0 80 4d 00
        E 0 80 60 00
        E 0 80 61 00
        E 0 80 62 00
        E 0 80 63 00
        E 0 80 64 00
        E 0 80 65 00
        E 0 8f 51 00
        E 0 8f 69 00
        E 120 93 48 64
        E 0 93 49 66
        E 0 93 4a 66
        E 0 93 4b 64
        E 0 93 4c 64
        E 0 93 4d 64
        E 0 93 60 64
        E 0 93 61 66
        E 0 93 62 66
        E 0 93 63 64
        E 0 93 64 64
        E 0 93 65 64
        E 120 83 48 00
        E 0 83 49 00
        E 0 83 4a 00
        E 0 83 4b 00
        E 0 83 4c 00
        E 0 83 4d 00
        E 0 83 60 00
        E 0 83 61 00
        E 0 83 62 00
        E 0 83 63 00
        E 0 83 64 00
        E 0 83 65 00
        <X 120 0
          /wFbcGdfbm9ybSBzb25nX3RyYWluZXJfcGdfMV0=
        >
        E 0 90 04 64
        E 0 90 19 66
        E 0 90 31 66
        E 0 90 32 66
        E 0 90 48 64
        E 0 90 49 66
        E 0 90 4a 66
        E 0 90 4b 64
        E 0 90 4c 64
        E 0 90 4d 64
        E 0 90 60 64
        E 0 90 61 66
        E 0 90 62 66
        E 0 90 63 64
        E 0 90 64 64
        E 0 90 65 64
        E 0 9f 51 64
        E 0 9f 69 64
        E 120 80 04 00
        E 0 80 19 00
        E 0 80 31 00
        E 0 80 32 00
        E 240 80 48 00
        E 0 80 49 00
        E 0 80 4a 00
        E 0 80 4b 00
        E 0 80 4c 00
        E 0 80 4d 00
        E 0 80 60 00
        E 0 80 61 00
        E 0 80 62 00
        E 0 80 63 00
        E 0 80 64 00
        E 0 80 65 00
        E 0 8f 51 00
        E 0 8f 69 00
        E 120 90 19 66
        E 0 90 31 66
        E 0 90 32 66
        E 0 90 48 64
        E 0 90 49 66
        E 0 90 4a 66
        E 0 90 4b 64
        E 0 90 4c 64
        E 0 90 4d 64
        E 0 90 60 64
        E 0 90 61 66
        E 0 90 62 66
        E 0 90 63 64
        E 0 90 64 64
        E 0 90 65 64
        E 0 9f 51 64
        E 0 9f 69 64
        E 120 80 19 00
        E 0 80 31 00
        E 0 80 32 00
        E 240 80 48 00
        E 0 80 49 00
        E 0 80 4a 00
        E 0 80 4b 00
        E 0 80 4c 00
        E 0 80 4d 00
        E 0 80 60 00
        E 0 80 61 00
        E 0 80 62 00
        E 0 80 63 00
        E 0 80 64 00
        E 0 80 65 00
        E 0 8f 51 00
        E 0 8f 69 00
        E 120 90 19 66
        E 0 90 31 66
        E 0 90 32 66
        E 0 90 48 64
        E 0 90 49 66
        E 0 90 4a 66
        E 0 90 4b 64
        E 0 90 4c 64
        E 0 90 4d 64
        E 0 90 60 64
        E 0 90 61 66
        E 0 90 62 66
        E 0 90 63 64
        E 0 90 64 64
        E 0 90 65 64
        E 0 9f 51 64
        E 0 9f 69 64
        E 120 80 19 00
        E 0 80 31 00
        E 0 80 32 00
        E 240 80 48 00
        E 0 80 49 00
        E 0 80 4a 00
        E 0 80 4b 00
        E 0 80 4c 00
        E 0 80 4d 00
        E 0 80 60 00
        E 0 80 61 00
        E 0 80 62 00
        E 0 80 63 00
        E 0 80 64 00
        E 0 80 65 00
        E 0 8f 51 00
        E 0 8f 69 00
        E 120 90 31 66
        E 0 90 32 66
        E 0 90 48 64
        E 0 90 49 66
        E 0 90 4a 66
        E 0 90 4b 64
        E 0 90 4c 64
        E 0 90 4d 64
        E 0 90 60 64
        E 0 90 61 66
        E 0 90 62 66
        E 0 90 63 64
        E 0 90 64 64
        E 0 90 65 64
        E 0 9f 51 64
        E 0 9f 69 64
        E 120 80 31 00
        E 0 80 32 00
        E 0 80 48 00
        E 0 80 49 00
        E 0 80 4a 00
        E 0 80 4b 00
        E 0 80 4c 00
        E 0 80 4d 00
        E 0 80 60 00
        E 0 80 61 00
        E 0 80 62 00
        E 0 80 63 00
        E 0 80 64 00
        E 0 80 65 00
        E 0 8f 51 00
        E 0 8f 69 00
        E 120 90 6c 65
        E 0 93 49 67
        E 0 93 4a 66
        E 0 93 4b 64
        E 0 93 4c 65
        E 0 93 4d 64
        E 0 93 61 67
        E 0 93 62 66
        E 0 93 63 64
        E 0 93 64 65
        E 0 93 65 64
        E 120 80 6c 00
        E 0 83 49 00
        E 0 83 4a 00
        E 0 83 4b 00
        E 0 83 4c 00
        E 0 83 4d 00
        E 0 83 61 00
        E 0 83 62 00
        E 0 83 63 00
        E 0 83 64 00
        E 0 83 65 00
        E 120 90 0c 64
        E 0 90 31 67
        E 0 90 32 66
        E 0 90 49 67
        E 0 90 4a 66
        E 0 90 4b 64
        E 0 90 4c 65
        E 0 90 4d 64
        E 0 90 61 67
        E 0 90 62 66
        E 0 90 63 64
        E 0 90 64 65
        E 0 90 65 64
        E 0 9f 51 64
        E 0 9f 69 64
        E 120 80 0c 00
        E 0 80 31 00
        E 0 80 32 00
        E 240 80 49 00
        E 0 80 4a 00
        E 0 80 4b 00
        E 0 80 4c 00
        E 0 80 4d 00
        E 0 80 61 00
        E 0 80 62 00
        E 0 80 63 00
        E 0 80 64 00
        E 0 80 65 00
        E 0 8f 51 00
        E 0 8f 69 00
        E 120 90 31 67
        E 0 90 32 66
        E 0 90 49 67
        E 0 90 4a 66
        E 0 90 4b 64
        E 0 90 4c 65
        E 0 90 4d 64
        E 0 90 61 67
        E 0 90 62 66
        E 0 90 63 64
        E 0 90 64 65
        E 0 90 65 64
        E 0 9f 51 64
        E 0 9f 69 64
        E 120 80 31 00
        E 0 80 32 00
        E 0 80 49 00
        E 0 80 4a 00
        E 0 80 4b 00
        E 0 80 4c 00
        E 0 80 4d 00
        E 0 80 61 00
        E 0 80 62 00
        E 0 80 63 00
        E 0 80 64 00
        E 0 80 65 00
        E 0 8f 51 00
        E 0 8f 69 00
        E 120 93 49 67
        E 0 93 4a 66
        E 0 93 4b 64
        E 0 93 4c 65
        E 0 93 4d 64
        E 0 93 61 67
        E 0 93 62 66
        E 0 93 63 64
        E 0 93 64 65
        E 0 93 65 64
        E 120 83 49 00
        E 0 83 4a 00
        E 0 83 4b 00
        E 0 83 4c 00
        E 0 83 4d 00
        E 0 83 61 00
        E 0 83 62 00
        E 0 83 63 00
        E 0 83 64 00
        E 0 83 65 00
        E 120 90 0c 64
        E 0 90 10 64
        E 0 90 31 66
        E 0 90 32 66
        E 0 90 49 66
        E 0 90 4a 66
        E 0 90 4b 64
        E 0 90 4c 65
        E 0 90 4d 64
        E 0 90 61 66
        E 0 90 62 66
        E 0 90 63 64
        E 0 90 64 65
        E 0 90 65 64
        E 0 9f 51 64
        E 0 9f 69 64
        E 120 80 0c 00
        E 0 80 10 00
        E 0 80 31 00
        E 0 80 32 00
        E 0 80 49 00
        E 0 80 4a 00
        E 0 80 4b 00
        E 0 80 4c 00
        E 0 80 4d 00
        E 0 80 61 00
        E 0 80 62 00
        E 0 80 63 00
        E 0 80 64 00
        E 0 80 65 00
        E 0 8f 51 00
        E 0 8f 69 00
        E 120 90 31 66
        E 0 90 32 66
        E 0 90 49 66
        E 0 90 4a 66
        E 0 90 4b 64
        E 0 90 4c 65
        E 0 90 4d 64
        E 0 90 61 66
        E 0 90 62 66
        E 0 90 63 64
        E 0 90 64 65
        E 0 90 65 64
        E 0 9d 51 64
        E 0 9d 69 64
        E 120 80 31 00
        E 0 80 32 00
        E 0 80 49 00
        E 0 80 4a 00
        E 0 80 4b 00
        E 0 80 4c 00
        E 0 80 4d 00
        E 0 80 61 00
        E 0 80 62 00
        E 0 80 63 00
        E 0 80 64 00
        E 0 80 65 00
        E 0 8d 51 00
        E 0 8d 69 00
        E 120 90 31 66
        E 0 90 32 66
        E 0 90 49 66
        E 0 90 4a 66
        E 0 90 4b 64
        E 0 90 4c 65
        E 0 90 4d 64
        E 0 90 61 66
        E 0 90 62 66
        E 0 90 63 64
        E 0 90 64 65
        E 0 90 65 64
        E 0 9f 51 64
        E 0 9f 69 64
        E 120 80 31 00
        E 0 80 32 00
        E 0 80 49 00
        E 0 80 4a 00
        E 0 80 4b 00
        E 0 80 4c 00
        E 0 80 4d 00
        E 0 80 61 00
        E 0 80 62 00
        E 0 80 63 00
        E 0 80 64 00
        E 0 80 65 00
        E 0 8f 51 00
        E 0 8f 69 00
        E 120 93 49 66
        E 0 93 4a 66
        E 0 93 4b 64
        E 0 93 4c 65
        E 0 93 4d 64
        E 0 93 61 66
        E 0 93 62 66
        E 0 93 63 64
        E 0 93 64 65
        E 0 93 65 64
        E 120 83 49 00
        E 0 83 4a 00
        E 0 83 4b 00
        E 0 83 4c 00
        E 0 83 4d 00
        E 0 83 61 00
        E 0 83 62 00
        E 0 83 63 00
        E 0 83 64 00
        E 0 83 65 00
        E 120 90 09 64
        E 0 90 1a 66
        E 0 90 32 66
        E 0 90 33 66
        E 0 90 49 64
        E 0 90 4a 66
        E 0 90 4b 66
        E 0 90 4c 65
        E 0 90 4d 64
        E 0 90 61 64
        E 0 90 62 66
        E 0 90 63 66
        E 0 90 64 65
        E 0 90 65 64
        E 0 90 74 60
        E 0 9f 51 64
        E 0 9f 69 64
        E 120 80 09 00
        E 0 80 1a 00
        E 0 80 32 00
        E 0 80 33 00
        E 240 80 49 00
        E 0 80 4a 00
        E 0 80 4b 00
        E 0 80 4c 00
        E 0 80 4d 00
        E 0 80 61 00
        E 0 80 62 00
        E 0 80 63 00
        E 0 80 64 00
        E 0 80 65 00
        E 0 8f 51 00
        E 0 8f 69 00
        E 120 90 1a 66
        E 0 90 32 66
        E 0 90 33 66
        E 0 90 49 64
        E 0 90 4a 66
        E 0 90 4b 66
        E 0 90 4c 65
        E 0 90 4d 64
        E 0 90 61 64
        E 0 90 62 66
        E 0 90 63 66
        E 0 90 64 65
        E 0 90 65 64
        E 0 9f 51 64
        E 0 9f 69 64
        E 120 80 1a 00
        E 0 80 32 00
        E 0 80 33 00
        E 0 80 49 00
        E 0 80 4a 00
        E 0 80 4b 00
        E 0 80 4c 00
        E 0 80 4d 00
        E 0 80 61 00
        E 0 80 62 00
        E 0 80 63 00
        E 0 80 64 00
        E 0 80 65 00
        E 0 8f 51 00
        E 0 8f 69 00
        E 120 90 32 66
        E 0 90 33 66
        E 0 90 49 64
        E 0 90 4a 66
        E 0 90 4b 66
        E 0 90 4c 65
        E 0 90 4d 64
        E 0 90 61 64
        E 0 90 62 66
        E 0 90 63 66
        E 0 90 64 65
        E 0 90 65 64
        E 0 9d 51 64
        E 0 9d 69 64
        E 120 80 32 00
        E 0 80 33 00
        E 0 80 49 00
        E 0 80 4a 00
        E 0 80 4b 00
        E 0 80 4c 00
        E 0 80 4d 00
        E 0 80 61 00
        E 0 80 62 00
        E 0 80 63 00
        E 0 80 64 00
        E 0 80 65 00
        E 0 8d 51 00
        E 0 8d 69 00
        E 120 90 1a 66
        E 0 90 32 66
        E 0 90 33 66
        E 0 90 49 64
        E 0 90 4a 66
        E 0 90 4b 66
        E 0 90 4c 65
        E 0 90 4d 64
        E 0 90 61 64
        E 0 90 62 66
        E 0 90 63 66
        E 0 90 64 65
        E 0 90 65 64
        E 0 9f 51 64
        E 0 9f 69 64
        E 120 80 1a 00
        E 0 80 32 00
        E 0 80 33 00
        E 0 80 49 00
        E 0 80 4a 00
        E 0 80 4b 00
        E 0 80 4c 00
        E 0 80 4d 00
        E 0 80 61 00
        E 0 80 62 00
        E 0 80 63 00
        E 0 80 64 00
        E 0 80 65 00
        E 0 8f 51 00
        E 0 8f 69 00
        E 120 90 32 66
        E 0 90 33 66
        E 0 90 49 64
        E 0 90 4a 66
        E 0 90 4b 66
        E 0 90 4c 65
        E 0 90 4d 64
        E 0 90 61 64
        E 0 90 62 66
        E 0 90 63 66
        E 0 90 64 65
        E 0 90 65 64
        E 0 9d 51 64
        E 0 9d 69 64
        E 120 80 32 00
        E 0 80 33 00
        E 0 80 49 00
        E 0 80 4a 00
        E 0 80 4b 00
        E 0 80 4c 00
        E 0 80 4d 00
        E 0 80 61 00
        E 0 80 62 00
        E 0 80 63 00
        E 0 80 64 00
        E 0 80 65 00
        E 0 8d 51 00
        E 0 8d 69 00
        E 120 90 1a 66
        E 0 90 32 66
        E 0 90 33 66
        E 0 90 49 64
        E 0 90 4a 66
        E 0 90 4b 66
        E 0 90 4c 65
        E 0 90 4d 64
        E 0 90 61 64
        E 0 90 62 66
        E 0 90 63 66
        E 0 90 64 65
        E 0 90 65 64
        E 0 9f 51 64
        E 0 9f 69 64
        E 120 80 1a 00
        E 0 80 32 00
        E 0 80 33 00
        E 0 80 49 00
        E 0 80 4a 00
        E 0 80 4b 00
        E 0 80 4c 00
        E 0 80 4d 00
        E 0 80 61 00
        E 0 80 62 00
        E 0 80 63 00
        E 0 80 64 00
        E 0 80 65 00
        E 0 8f 51 00
        E 0 8f 69 00
        E 120 90 6c 66
        E 0 93 48 67
        E 0 93 49 66
        E 0 93 4a 64
        E 0 93 4b 64
        E 0 93 4c 64
        E 0 93 4d 67
        E 0 93 60 67
        E 0 93 61 66
        E 0 93 62 64
        E 0 93 63 64
        E 0 93 64 64
        E 0 93 65 67
        E 120 80 6c 00
        E 0 83 48 00
        E 0 83 49 00
        E 0 83 4a 00
        E 0 83 4b 00
        E 0 83 4c 00
        E 0 83 4d 00
        E 0 83 60 00
        E 0 83 61 00
        E 0 83 62 00
        E 0 83 63 00
        E 0 83 64 00
        E 0 83 65 00
        <X 120 0
          /wFbZW5kX3BnIHNvbmdfdHJhaW5lcl9wZ18xXQ==
        >
        E 0 80 74 00
        E 0 90 07 64
        E 0 90 18 67
        E 0 90 30 67
        E 0 90 31 66
        E 0 90 48 67
        E 0 90 49 66
        E 0 90 4a 64
        E 0 90 4b 64
        E 0 90 4c 64
        E 0 90 4d 67
        E 0 90 60 67
        E 0 90 61 66
        E 0 90 62 64
        E 0 90 63 64
        E 0 90 64 64
        E 0 90 65 67
        E 0 9f 51 64
        E 0 9f 69 64
        E 120 80 07 00
        E 0 80 18 00
        E 0 80 30 00
        E 0 80 31 00
        E 240 80 48 00
        E 0 80 49 00
        E 0 80 4a 00
        E 0 80 4b 00
        E 0 80 4c 00
        E 0 80 4d 00
        E 0 80 60 00
        E 0 80 61 00
        E 0 80 62 00
        E 0 80 63 00
        E 0 80 64 00
        E 0 80 65 00
        E 0 8f 51 00
        E 0 8f 69 00
        E 120 90 30 67
        E 0 90 31 66
        E 0 90 48 67
        E 0 90 49 66
        E 0 90 4a 64
        E 0 90 4b 64
        E 0 90 4c 64
        E 0 90 4d 67
        E 0 90 60 67
        E 0 90 61 66
        E 0 90 62 64
        E 0 90 63 64
        E 0 90 64 64
        E 0 90 65 67
        E 0 9f 51 64
        E 0 9f 69 64
        E 120 80 30 00
        E 0 80 31 00
        E 0 80 48 00
        E 0 80 49 00
        E 0 80 4a 00
        E 0 80 4b 00
        E 0 80 4c 00
        E 0 80 4d 00
        E 0 80 60 00
        E 0 80 61 00
        E 0 80 62 00
        E 0 80 63 00
        E 0 80 64 00
        E 0 80 65 00
        E 0 8f 51 00
        E 0 8f 69 00
        E 120 93 48 66
        E 0 93 49 66
        E 0 93 4a 64
        E 0 93 4b 64
        E 0 93 4c 64
        E 0 93 4d 67
        E 0 93 60 66
        E 0 93 61 66
        E 0 93 62 64
        E 0 93 63 64
        E 0 93 64 64
        E 0 93 65 67
        E 120 83 48 00
        E 0 83 49 00
        E 0 83 4a 00
        E 0 83 4b 00
        E 0 83 4c 00
        E 0 83 4d 00
        E 0 83 60 00
        E 0 83 61 00
        E 0 83 62 00
        E 0 83 63 00
        E 0 83 64 00
        E 0 83 65 00
        E 120 90 07 64
        E 0 90 10 64
        E 0 90 18 66
        E 0 90 30 66
        E 0 90 31 66
        E 0 90 48 66
        E 0 90 49 66
        E 0 90 4a 64
        E 0 90 4b 64
        E 0 90 4c 64
        E 0 90 4d 67
        E 0 90 60 66
        E 0 90 61 66
        E 0 90 62 64
        E 0 90 63 64
        E 0 90 64 64
        E 0 90 65 67
        E 0 9f 51 64
        E 0 9f 69 64
        E 120 80 07 00
        E 0 80 10 00
        E 0 80 18 00
        E 0 80 30 00
        E 0 80 31 00
        E 240 80 48 00
        E 0 80 49 00
        E 0 80 4a 00
        E 0 80 4b 00
        E 0 80 4c 00
        E 0 80 4d 00
        E 0 80 60 00
        E 0 80 61 00
        E 0 80 62 00
        E 0 80 63 00
        E 0 80 64 00
        E 0 80 65 00
        E 0 8f 51 00
        E 0 8f 69 00
        E 120 90 30 66
        E 0 90 31 66
        E 0 90 48 66
        E 0 90 49 66
        E 0 90 4a 64
        E 0 90 4b 64
        E 0 90 4c 64
        E 0 90 4d 67
        E 0 90 60 66
        E 0 90 61 66
        E 0 90 62 64
        E 0 90 63 64
        E 0 90 64 64
        E 0 90 65 67
        E 0 9f 51 64
        E 0 9f 69 64
        E 120 80 30 00
        E 0 80 31 00
        E 0 80 48 00
        E 0 80 49 00
        E 0 80 4a 00
        E 0 80 4b 00
        E 0 80 4c 00
        E 0 80 4d 00
        E 0 80 60 00
        E 0 80 61 00
        E 0 80 62 00
        E 0 80 63 00
        E 0 80 64 00
        E 0 80 65 00
        E 0 8f 51 00
        E 0 8f 69 00
        E 120 93 48 64
        E 0 93 49 66
        E 0 93 4a 66
        E 0 93 4b 64
        E 0 93 4c 64
        E 0 93 4d 64
        E 0 93 60 64
        E 0 93 61 66
        E 0 93 62 66
        E 0 93 63 64
        E 0 93 64 64
        E 0 93 65 64
        E 120 83 48 00
        E 0 83 49 00
        E 0 83 4a 00
        E 0 83 4b 00
        E 0 83 4c 00
        E 0 83 4d 00
        E 0 83 60 00
        E 0 83 61 00
        E 0 83 62 00
        E 0 83 63 00
        E 0 83 64 00
        E 0 83 65 00
        E 120 90 04 64
        E 0 90 19 66
        E 0 90 31 66
        E 0 90 32 66
        E 0 90 48 64
        E 0 90 49 66
        E 0 90 4a 66
        E 0 90 4b 64
        E 0 90 4c 64
        E 0 90 4d 64
        E 0 90 60 64
        E 0 90 61 66
        E 0 90 62 66
        E 0 90 63 64
        E 0 90 64 64
        E 0 90 65 64
        E 0 9f 51 64
        E 0 9f 69 64
        E 120 80 04 00
        E 0 80 19 00
        E 0 80 31 00
        E 0 80 32 00
        E 240 80 48 00
        E 0 80 49 00
        E 0 80 4a 00
        E 0 80 4b 00
        E 0 80 4c 00
        E 0 80 4d 00
        E 0 80 60 00
        E 0 80 61 00
        E 0 80 62 00
        E 0 80 63 00
        E 0 80 64 00
        E 0 80 65 00
        E 0 8f 51 00
        E 0 8f 69 00
        E 120 90 19 66
        E 0 90 31 66
        E 0 90 32 66
        E 0 90 48 64
        E 0 90 49 66
        E 0 90 4a 66
        E 0 90 4b 64
        E 0 90 4c 64
        E 0 90 4d 64
        E 0 90 60 64
        E 0 90 61 66
        E 0 90 62 66
        E 0 90 63 64
        E 0 90 64 64
        E 0 90 65 64
        E 0 9f 51 64
        E 0 9f 69 64
        E 120 80 19 00
        E 0 80 31 00
        E 0 80 32 00
        E 0 80 48 00
        E 0 80 49 00
        E 0 80 4a 00
        E 0 80 4b 00
        E 0 80 4c 00
        E 0 80 4d 00
        E 0 80 60 00
        E 0 80 61 00
        E 0 80 62 00
        E 0 80 63 00
        E 0 80 64 00
        E 0 80 65 00
        E 0 8f 51 00
        E 0 8f 69 00
        E 120 90 31 66
        E 0 90 32 66
        E 0 90 48 64
        E 0 90 49 66
        E 0 90 4a 66
        E 0 90 4b 64
        E 0 90 4c 64
        E 0 90 4d 64
        E 0 90 60 64
        E 0 90 61 66
        E 0 90 62 66
        E 0 90 63 64
        E 0 90 64 64
        E 0 90 65 64
        E 0 9d 51 64
        E 0 9d 69 64
        E 120 80 31 00
        E 0 80 32 00
        E 0 80 48 00
        E 0 80 49 00
        E 0 80 4a 00
        E 0 80 4b 00
        E 0 80 4c 00
        E 0 80 4d 00
        E 0 80 60 00
        E 0 80 61 00
        E 0 80 62 00
        E 0 80 63 00
        E 0 80 64 00
        E 0 80 65 00
        E 0 8d 51 00
        E 0 8d 69 00
        E 120 90 19 66
        E 0 90 31 66
        E 0 90 32 66
        E 0 90 48 64
        E 0 90 49 66
        E 0 90 4a 66
        E 0 90 4b 64
        E 0 90 4c 64
        E 0 90 4d 64
        E 0 90 60 64
        E 0 90 61 66
        E 0 90 62 66
        E 0 90 63 64
        E 0 90 64 64
        E 0 90 65 64
        E 0 9f 51 64
        E 0 9f 69 64
        E 120 80 19 00
        E 0 80 31 00
        E 0 80 32 00
        E 0 80 48 00
        E 0 80 49 00
        E 0 80 4a 00
        E 0 80 4b 00
        E 0 80 4c 00
        E 0 80 4d 00
        E 0 80 60 00
        E 0 80 61 00
        E 0 80 62 00
        E 0 80 63 00
        E 0 80 64 00
        E 0 80 65 00
        E 0 8f 51 00
        E 0 8f 69 00
        E 120 90 31 66
        E 0 90 32 66
        E 0 90 48 64
        E 0 90 49 66
        E 0 90 4a 66
        E 0 90 4b 64
        E 0 90 4c 64
        E 0 90 4d 64
        E 0 90 60 64
        E 0 90 61 66
        E 0 90 62 66
        E 0 90 63 64
        E 0 90 64 64
        E 0 90 65 64
        E 0 9d 51 64
        E 0 9d 69 64
        E 120 80 31 00
        E 0 80 32 00
        E 0 80 48 00
        E 0 80 49 00
        E 0 80 4a 00
        E 0 80 4b 00
        E 0 80 4c 00
        E 0 80 4d 00
        E 0 80 60 00
        E 0 80 61 00
        E 0 80 62 00
        E 0 80 63 00
        E 0 80 64 00
        E 0 80 65 00
        E 0 8d 51 00
        E 0 8d 69 00
        E 120 90 31 66
        E 0 90 32 66
        E 0 90 48 64
        E 0 90 49 66
        E 0 90 4a 66
        E 0 90 4b 64
        E 0 90 4c 64
        E 0 90 4d 64
        E 0 90 60 64
        E 0 90 61 66
        E 0 90 62 66
        E 0 90 63 64
        E 0 90 64 64
        E 0 90 65 64
        E 0 9f 51 64
        E 0 9f 69 64
        E 120 80 31 00
        E 0 80 32 00
        E 0 80 48 00
        E 0 80 49 00
        E 0 80 4a 00
        E 0 80 4b 00
        E 0 80 4c 00
        E 0 80 4d 00
        E 0 80 60 00
        E 0 80 61 00
        E 0 80 62 00
        E 0 80 63 00
        E 0 80 64 00
        E 0 80 65 00
        E 0 8f 51 00
        E 0 8f 69 00
        E 120 90 6c 65
        E 0 93 49 67
        E 0 93 4a 66
        E 0 93 4b 64
        E 0 93 4c 65
        E 0 93 4d 64
        E 0 93 61 67
        E 0 93 62 66
        E 0 93 63 64
        E 0 93 64 65
        E 0 93 65 64
        E 0 9d 51 64
        E 0 9d 69 64
        E 120 80 6c 00
        E 0 83 49 00
        E 0 83 4a 00
        E 0 83 4b 00
        E 0 83 4c 00
        E 0 83 4d 00
        E 0 83 61 00
        E 0 83 62 00
        E 0 83 63 00
        E 0 83 64 00
        E 0 83 65 00
        E 0 8d 51 00
        E 0 8d 69 00
        E 120 90 0c 64
        E 0 90 31 67
        E 0 90 32 66
        E 0 90 49 67
        E 0 90 4a 66
        E 0 90 4b 64
        E 0 90 4c 65
        E 0 90 4d 64
        E 0 90 61 67
        E 0 90 62 66
        E 0 90 63 64
        E 0 90 64 65
        E 0 90 65 64
        E 0 9f 51 64
        E 0 9f 69 64
        E 120 80 0c 00
        E 0 80 31 00
        E 0 80 32 00
        E 240 80 49 00
        E 0 80 4a 00
        E 0 80 4b 00
        E 0 80 4c 00
        E 0 80 4d 00
        E 0 80 61 00
        E 0 80 62 00
        E 0 80 63 00
        E 0 80 64 00
        E 0 80 65 00
        E 0 8f 51 00
        E 0 8f 69 00
        E 120 90 31 67
        E 0 90 32 66
        E 0 90 49 67
        E 0 90 4a 66
        E 0 90 4b 64
        E 0 90 4c 65
        E 0 90 4d 64
        E 0 90 61 67
        E 0 90 62 66
        E 0 90 63 64
        E 0 90 64 65
        E 0 90 65 64
        E 0 9f 51 64
        E 0 9f 69 64
        E 120 80 31 00
        E 0 80 32 00
        E 0 80 49 00
        E 0 80 4a 00
        E 0 80 4b 00
        E 0 80 4c 00
        E 0 80 4d 00
        E 0 80 61 00
        E 0 80 62 00
        E 0 80 63 00
        E 0 80 64 00
        E 0 80 65 00
        E 0 8f 51 00
        E 0 8f 69 00
        E 120 93 49 67
        E 0 93 4a 66
        E 0 93 4b 64
        E 0 93 4c 65
        E 0 93 4d 64
        E 0 93 61 67
        E 0 93 62 66
        E 0 93 63 64
        E 0 93 64 65
        E 0 93 65 64
        E 120 83 49 00
        E 0 83 4a 00
        E 0 83 4b 00
        E 0 83 4c 00
        E 0 83 4d 00
        E 0 83 61 00
        E 0 83 62 00
        E 0 83 63 00
        E 0 83 64 00
        E 0 83 65 00
        E 120 90 0c 64
        E 0 90 10 64
        E 0 90 31 66
        E 0 90 32 66
        E 0 90 49 66
        E 0 90 4a 66
        E 0 90 4b 64
        E 0 90 4c 65
        E 0 90 4d 64
        E 0 90 61 66
        E 0 90 62 66
        E 0 90 63 64
        E 0 90 64 65
        E 0 90 65 64
        E 0 9f 51 64
        E 0 9f 69 64
        E 120 80 0c 00
        E 0 80 10 00
        E 0 80 31 00
        E 0 80 32 00
        E 240 80 49 00
        E 0 80 4a 00
        E 0 80 4b 00
        E 0 80 4c 00
        E 0 80 4d 00
        E 0 80 61 00
        E 0 80 62 00
        E 0 80 63 00
        E 0 80 64 00
        E 0 80 65 00
        E 0 8f 51 00
        E 0 8f 69 00
        E 120 90 31 66
        E 0 90 32 66
        E 0 90 49 66
        E 0 90 4a 66
        E 0 90 4b 64
        E 0 90 4c 65
        E 0 90 4d 64
        E 0 90 61 66
        E 0 90 62 66
        E 0 90 63 64
        E 0 90 64 65
        E 0 90 65 64
        E 0 9f 51 64
        E 0 9f 69 64
        E 120 80 31 00
        E 0 80 32 00
        E 0 80 49 00
        E 0 80 4a 00
        E 0 80 4b 00
        E 0 80 4c 00
        E 0 80 4d 00
        E 0 80 61 00
        E 0 80 62 00
        E 0 80 63 00
        E 0 80 64 00
        E 0 80 65 00
        E 0 8f 51 00
        E 0 8f 69 00
        E 120 93 49 66
        E 0 93 4a 66
        E 0 93 4b 64
        E 0 93 4c 65
        E 0 93 4d 64
        E 0 93 61 66
        E 0 93 62 66
        E 0 93 63 64
        E 0 93 64 65
        E 0 93 65 64
        E 120 83 49 00
        E 0 83 4a 00
        E 0 83 4b 00
        E 0 83 4c 00
        E 0 83 4d 00
        E 0 83 61 00
        E 0 83 62 00
        E 0 83 63 00
        E 0 83 64 00
        E 0 83 65 00
        E 120 90 09 64
        E 0 90 1a 66
        E 0 90 32 66
        E 0 90 33 66
        E 0 90 49 64
        E 0 90 4a 66
        E 0 90 4b 66
        E 0 90 4c 65
        E 0 90 4d 64
        E 0 90 61 64
        E 0 90 62 66
        E 0 90 63 66
        E 0 90 64 65
        E 0 90 65 64
        E 0 9f 51 64
        E 0 9f 69 64
        E 120 80 09 00
        E 0 80 1a 00
        E 0 80 32 00
        E 0 80 33 00
        E 240 80 49 00
        E 0 80 4a 00
        E 0 80 4b 00
        E 0 80 4c 00
        E 0 80 4d 00
        E 0 80 61 00
        E 0 80 62 00
        E 0 80 63 00
        E 0 80 64 00
        E 0 80 65 00
        E 0 8f 51 00
        E 0 8f 69 00
        E 120 90 1a 66
        E 0 90 32 66
        E 0 90 33 66
        E 0 90 49 64
        E 0 90 4a 66
        E 0 90 4b 66
        E 0 90 4c 65
        E 0 90 4d 64
        E 0 90 61 64
        E 0 90 62 66
        E 0 90 63 66
        E 0 90 64 65
        E 0 90 65 64
        E 0 9f 51 64
        E 0 9f 69 64
        E 120 80 1a 00
        E 0 80 32 00
        E 0 80 33 00
        E 0 80 49 00
        E 0 80 4a 00
        E 0 80 4b 00
        E 0 80 4c 00
        E 0 80 4d 00
        E 0 80 61 00
        E 0 80 62 00
        E 0 80 63 00
        E 0 80 64 00
        E 0 80 65 00
        E 0 8f 51 00
        E 0 8f 69 00
        E 120 90 32 66
        E 0 90 33 66
        E 0 90 49 64
        E 0 90 4a 66
        E 0 90 4b 66
        E 0 90 4c 65
        E 0 90 4d 64
        E 0 90 61 64
        E 0 90 62 66
        E 0 90 63 66
        E 0 90 64 65
        E 0 90 65 64
        E 0 9d 51 64
        E 0 9d 69 64
        E 120 80 32 00
        E 0 80 33 00
        E 0 80 49 00
        E 0 80 4a 00
        E 0 80 4b 00
        E 0 80 4c 00
        E 0 80 4d 00
        E 0 80 61 00
        E 0 80 62 00
        E 0 80 63 00
        E 0 80 64 00
        E 0 80 65 00
        E 0 8d 51 00
        E 0 8d 69 00
        E 120 90 1a 66
        E 0 90 32 66
        E 0 90 33 66
        E 0 90 49 64
        E 0 90 4a 66
        E 0 90 4b 66
        E 0 90 4c 65
        E 0 90 4d 64
        E 0 90 61 64
        E 0 90 62 66
        E 0 90 63 66
        E 0 90 64 65
        E 0 90 65 64
        E 0 9f 51 64
        E 0 9f 69 64
        E 120 80 1a 00
        E 0 80 32 00
        E 0 80 33 00
        E 0 80 49 00
        E 0 80 4a 00
        E 0 80 4b 00
        E 0 80 4c 00
        E 0 80 4d 00
        E 0 80 61 00
        E 0 80 62 00
        E 0 80 63 00
        E 0 80 64 00
        E 0 80 65 00
        E 0 8f 51 00
        E 0 8f 69 00
        E 120 90 32 66
        E 0 90 33 66
        E 0 90 49 64
        E 0 90 4a 66
        E 0 90 4b 66
        E 0 90 4c 65
        E 0 90 4d 64
        E 0 90 61 64
        E 0 90 62 66
        E 0 90 63 66
        E 0 90 64 65
        E 0 90 65 64
        E 0 9d 51 64
        E 0 9d 69 64
        E 120 80 32 00
        E 0 80 33 00
        E 0 80 49 00
        E 0 80 4a 00
        E 0 80 4b 00
        E 0 80 4c 00
        E 0 80 4d 00
        E 0 80 61 00
        E 0 80 62 00
        E 0 80 63 00
        E 0 80 64 00
        E 0 80 65 00
        E 0 8d 51 00
        E 0 8d 69 00
        E 120 90 1a 66
        E 0 90 32 66
        E 0 90 33 66
        E 0 90 49 64
        E 0 90 4a 66
        E 0 90 4b 66
        E 0 90 4c 65
        E 0 90 4d 64
        E 0 90 61 64
        E 0 90 62 66
        E 0 90 63 66
        E 0 90 64 65
        E 0 90 65 64
        E 0 9f 51 64
        E 0 9f 69 64
        E 120 80 1a 00
        E 0 80 32 00
        E 0 80 33 00
        E 0 80 49 00
        E 0 80 4a 00
        E 0 80 4b 00
        E 0 80 4c 00
        E 0 80 4d 00
        E 0 80 61 00
        E 0 80 62 00
        E 0 80 63 00
        E 0 80 64 00
        E 0 80 65 00
        E 0 8f 51 00
        E 0 8f 69 00
        E 120 90 6c 66
        E 0 93 48 67
        E 0 93 49 66
        E 0 93 4a 64
        E 0 93 4b 64
        E 0 93 4c 64
        E 0 93 4d 67
        E 0 93 60 67
        E 0 93 61 66
        E 0 93 62 64
        E 0 93 63 64
        E 0 93 64 64
        E 0 93 65 67
        E 120 80 6c 00
        E 0 83 48 00
        E 0 83 49 00
        E 0 83 4a 00
        E 0 83 4b 00
        E 0 83 4c 00
        E 0 83 4d 00
        E 0 83 60 00
        E 0 83 61 00
        E 0 83 62 00
        E 0 83 63 00
        E 0 83 64 00
        E 0 83 65 00
        E 120 90 07 64
        E 0 90 18 67
        E 0 90 30 67
        E 0 90 31 66
        E 0 90 48 67
        E 0 90 49 66
        E 0 90 4a 64
        E 0 90 4b 64
        E 0 90 4c 64
        E 0 90 4d 67
        E 0 90 60 67
        E 0 90 61 66
        E 0 90 62 64
        E 0 90 63 64
        E 0 90 64 64
        E 0 90 65 67
        E 0 9f 51 64
        E 0 9f 69 64
        E 120 80 07 00
        E 0 80 18 00
        E 0 80 30 00
        E 0 80 31 00
        E 240 80 48 00
        E 0 80 49 00
        E 0 80 4a 00
        E 0 80 4b 00
        E 0 80 4c 00
        E 0 80 4d 00
        E 0 80 60 00
        E 0 80 61 00
        E 0 80 62 00
        E 0 80 63 00
        E 0 80 64 00
        E 0 80 65 00
        E 0 8f 51 00
        E 0 8f 69 00
        E 120 90 30 67
        E 0 90 31 66
        E 0 90 48 67
        E 0 90 49 66
        E 0 90 4a 64
        E 0 90 4b 64
        E 0 90 4c 64
        E 0 90 4d 67
        E 0 90 60 67
        E 0 90 61 66
        E 0 90 62 64
        E 0 90 63 64
        E 0 90 64 64
        E 0 90 65 67
        E 0 9f 51 64
        E 0 9f 69 64
        E 120 80 30 00
        E 0 80 31 00
        E 0 80 48 00
        E 0 80 49 00
        E 0 80 4a 00
        E 0 80 4b 00
        E 0 80 4c 00
        E 0 80 4d 00
        E 0 80 60 00
        E 0 80 61 00
        E 0 80 62 00
        E 0 80 63 00
        E 0 80 64 00
        E 0 80 65 00
        E 0 8f 51 00
        E 0 8f 69 00
        E 120 93 48 66
        E 0 93 49 66
        E 0 93 4a 64
        E 0 93 4b 64
        E 0 93 4c 64
        E 0 93 4d 67
        E 0 93 60 66
        E 0 93 61 66
        E 0 93 62 64
        E 0 93 63 64
        E 0 93 64 64
        E 0 93 65 67
        E 120 83 48 00
        E 0 83 49 00
        E 0 83 4a 00
        E 0 83 4b 00
        E 0 83 4c 00
        E 0 83 4d 00
        E 0 83 60 00
        E 0 83 61 00
        E 0 83 62 00
        E 0 83 63 00
        E 0 83 64 00
        E 0 83 65 00
        E 120 90 07 64
        E 0 90 10 64
        E 0 90 18 66
        E 0 90 30 66
        E 0 90 31 66
        E 0 90 48 66
        E 0 90 49 66
        E 0 90 4a 64
        E 0 90 4b 64
        E 0 90 4c 64
        E 0 90 4d 67
        E 0 90 60 66
        E 0 90 61 66
        E 0 90 62 64
        E 0 90 63 64
        E 0 90 64 64
        E 0 90 65 67
        E 0 9f 51 64
        E 0 9f 69 64
        E 120 80 07 00
        E 0 80 10 00
        E 0 80 18 00
        E 0 80 30 00
        E 0 80 31 00
        E 0 80 48 00
        E 0 80 49 00
        E 0 80 4a 00
        E 0 80 4b 00
        E 0 80 4c 00
        E 0 80 4d 00
        E 0 80 60 00
        E 0 80 61 00
        E 0 80 62 00
        E 0 80 63 00
        E 0 80 64 00
        E 0 80 65 00
        E 0 8f 51 00
        E 0 8f 69 00
        E 120 90 30 66
        E 0 90 31 66
        E 0 90 48 66
        E 0 90 49 66
        E 0 90 4a 64
        E 0 90 4b 64
        E 0 90 4c 64
        E 0 90 4d 67
        E 0 90 60 66
        E 0 90 61 66
        E 0 90 62 64
        E 0 90 63 64
        E 0 90 64 64
        E 0 90 65 67
        E 0 9d 51 64
        E 0 9d 69 64
        E 120 80 30 00
        E 0 80 31 00
        E 0 80 48 00
        E 0 80 49 00
        E 0 80 4a 00
        E 0 80 4b 00
        E 0 80 4c 00
        E 0 80 4d 00
        E 0 80 60 00
        E 0 80 61 00
        E 0 80 62 00
        E 0 80 63 00
        E 0 80 64 00
        E 0 80 65 00
        E 0 8d 51 00
        E 0 8d 69 00
        E 120 90 30 66
        E 0 90 31 66
        E 0 90 48 66
        E 0 90 49 66
        E 0 90 4a 64
        E 0 90 4b 64
        E 0 90 4c 64
        E 0 90 4d 67
        E 0 90 60 66
        E 0 90 61 66
        E 0 90 62 64
        E 0 90 63 64
        E 0 90 64 64
        E 0 90 65 67
        E 0 9f 51 64
        E 0 9f 69 64
        E 120 80 30 00
        E 0 80 31 00
        E 0 80 48 00
        E 0 80 49 00
        E 0 80 4a 00
        E 0 80 4b 00
        E 0 80 4c 00
        E 0 80 4d 00
        E 0 80 60 00
        E 0 80 61 00
        E 0 80 62 00
        E 0 80 63 00
        E 0 80 64 00
        E 0 80 65 00
        E 0 8f 51 00
        E 0 8f 69 00
        E 120 93 48 64
        E 0 93 49 66
        E 0 93 4a 66
        E 0 93 4b 64
        E 0 93 4c 64
        E 0 93 4d 64
        E 0 93 60 64
        E 0 93 61 66
        E 0 93 62 66
        E 0 93 63 64
        E 0 93 64 64
        E 0 93 65 64
        E 120 83 48 00
        E 0 83 49 00
        E 0 83 4a 00
        E 0 83 4b 00
        E 0 83 4c 00
        E 0 83 4d 00
        E 0 83 60 00
        E 0 83 61 00
        E 0 83 62 00
        E 0 83 63 00
        E 0 83 64 00
        E 0 83 65 00
        E 120 90 04 64
        E 0 90 19 66
        E 0 90 31 66
        E 0 90 32 66
        E 0 90 48 64
        E 0 90 49 66
        E 0 90 4a 66
        E 0 90 4b 64
        E 0 90 4c 64
        E 0 90 4d 64
        E 0 90 60 64
        E 0 90 61 66
        E 0 90 62 66
        E 0 90 63 64
        E 0 90 64 64
        E 0 90 65 64
        E 0 9f 51 64
        E 0 9f 69 64
        E 120 80 04 00
        E 0 80 19 00
        E 0 80 31 00
        E 0 80 32 00
        E 240 80 48 00
        E 0 80 49 00
        E 0 80 4a 00
        E 0 80 4b 00
        E 0 80 4c 00
        E 0 80 4d 00
        E 0 80 60 00
        E 0 80 61 00
        E 0 80 62 00
        E 0 80 63 00
        E 0 80 64 00
        E 0 80 65 00
        E 0 8f 51 00
        E 0 8f 69 00
        E 120 90 19 66
        E 0 90 31 66
        E 0 90 32 66
        E 0 90 48 64
        E 0 90 49 66
        E 0 90 4a 66
        E 0 90 4b 64
        E 0 90 4c 64
        E 0 90 4d 64
        E 0 90 60 64
        E 0 90 61 66
        E 0 90 62 66
        E 0 90 63 64
        E 0 90 64 64
        E 0 90 65 64
        E 0 9f 51 64
        E 0 9f 69 64
        E 120 80 19 00
        E 0 80 31 00
        E 0 80 32 00
        E 0 80 48 00
        E 0 80 49 00
        E 0 80 4a 00
        E 0 80 4b 00
        E 0 80 4c 00
        E 0 80 4d 00
        E 0 80 60 00
        E 0 80 61 00
        E 0 80 62 00
        E 0 80 63 00
        E 0 80 64 00
        E 0 80 65 00
        E 0 8f 51 00
        E 0 8f 69 00
        E 120 90 31 66
        E 0 90 32 66
        E 0 90 48 64
        E 0 90 49 66
        E 0 90 4a 66
        E 0 90 4b 64
        E 0 90 4c 64
        E 0 90 4d 64
        E 0 90 60 64
        E 0 90 61 66
        E 0 90 62 66
        E 0 90 63 64
        E 0 90 64 64
        E 0 90 65 64
        E 0 9d 51 64
        E 0 9d 69 64
        E 120 80 31 00
        E 0 80 32 00
        E 0 80 48 00
        E 0 80 49 00
        E 0 80 4a 00
        E 0 80 4b 00
        E 0 80 4c 00
        E 0 80 4d 00
        E 0 80 60 00
        E 0 80 61 00
        E 0 80 62 00
        E 0 80 63 00
        E 0 80 64 00
        E 0 80 65 00
        E 0 8d 51 00
        E 0 8d 69 00
        E 120 90 19 66
        E 0 90 31 66
        E 0 90 32 66
        E 0 90 48 64
        E 0 90 49 66
        E 0 90 4a 66
        E 0 90 4b 64
        E 0 90 4c 64
        E 0 90 4d 64
        E 0 90 60 64
        E 0 90 61 66
        E 0 90 62 66
        E 0 90 63 64
        E 0 90 64 64
        E 0 90 65 64
        E 0 9f 51 64
        E 0 9f 69 64
        E 120 80 19 00
        E 0 80 31 00
        E 0 80 32 00
        E 0 80 48 00
        E 0 80 49 00
        E 0 80 4a 00
        E 0 80 4b 00
        E 0 80 4c 00
        E 0 80 4d 00
        E 0 80 60 00
        E 0 80 61 00
        E 0 80 62 00
        E 0 80 63 00
        E 0 80 64 00
        E 0 80 65 00
        E 0 8f 51 00
        E 0 8f 69 00
        E 120 90 31 66
        E 0 90 32 66
        E 0 90 48 64
        E 0 90 49 66
        E 0 90 4a 66
        E 0 90 4b 64
        E 0 90 4c 64
        E 0 90 4d 64
        E 0 90 60 64
        E 0 90 61 66
        E 0 90 62 66
        E 0 90 63 64
        E 0 90 64 64
        E 0 90 65 64
        E 0 9d 51 64
        E 0 9d 69 64
        E 120 80 31 00
        E 0 80 32 00
        E 0 80 48 00
        E 0 80 49 00
        E 0 80 4a 00
        E 0 80 4b 00
        E 0 80 4c 00
        E 0 80 4d 00
        E 0 80 60 00
        E 0 80 61 00
        E 0 80 62 00
        E 0 80 63 00
        E 0 80 64 00
        E 0 80 65 00
        E 0 8d 51 00
        E 0 8d 69 00
        E 120 90 31 66
        E 0 90 32 66
        E 0 90 48 64
        E 0 90 49 66
        E 0 90 4a 66
        E 0 90 4b 64
        E 0 90 4c 64
        E 0 90 4d 64
        E 0 90 60 64
        E 0 90 61 66
        E 0 90 62 66
        E 0 90 63 64
        E 0 90 64 64
        E 0 90 65 64
        E 0 9f 51 64
        E 0 9f 69 64
        E 120 80 31 00
        E 0 80 32 00
        E 0 80 48 00
        E 0 80 49 00
        E 0 80 4a 00
        E 0 80 4b 00
        E 0 80 4c 00
        E 0 80 4d 00
        E 0 80 60 00
        E 0 80 61 00
        E 0 80 62 00
        E 0 80 63 00
        E 0 80 64 00
        E 0 80 65 00
        E 0 8f 51 00
        E 0 8f 69 00
        E 120 90 6c 65
        E 0 93 49 67
        E 0 93 4a 66
        E 0 93 4b 64
        E 0 93 4c 65
        E 0 93 4d 64
        E 0 93 61 67
        E 0 93 62 66
        E 0 93 63 64
        E 0 93 64 65
        E 0 93 65 64
        E 120 80 6c 00
        E 0 83 49 00
        E 0 83 4a 00
        E 0 83 4b 00
        E 0 83 4c 00
        E 0 83 4d 00
        E 0 83 61 00
        E 0 83 62 00
        E 0 83 63 00
        E 0 83 64 00
        E 0 83 65 00
        E 120 90 0c 64
        E 0 90 31 67
        E 0 90 32 66
        E 0 90 49 67
        E 0 90 4a 66
        E 0 90 4b 64
        E 0 90 4c 65
        E 0 90 4d 64
        E 0 90 61 67
        E 0 90 62 66
        E 0 90 63 64
        E 0 90 64 65
        E 0 90 65 64
        E 0 9f 51 64
        E 0 9f 69 64
        E 120 80 0c 00
        E 0 80 31 00
        E 0 80 32 00
        E 240 80 49 00
        E 0 80 4a 00
        E 0 80 4b 00
        E 0 80 4c 00
        E 0 80 4d 00
        E 0 80 61 00
        E 0 80 62 00
        E 0 80 63 00
        E 0 80 64 00
        E 0 80 65 00
        E 0 8f 51 00
        E 0 8f 69 00
        E 120 90 31 67
        E 0 90 32 66
        E 0 90 49 67
        E 0 90 4a 66
        E 0 90 4b 64
        E 0 90 4c 65
        E 0 90 4d 64
        E 0 90 61 67
        E 0 90 62 66
        E 0 90 63 64
        E 0 90 64 65
        E 0 90 65 64
        E 0 9f 51 64
        E 0 9f 69 64
        E 120 80 31 00
        E 0 80 32 00
        E 0 80 49 00
        E 0 80 4a 00
        E 0 80 4b 00
        E 0 80 4c 00
        E 0 80 4d 00
        E 0 80 61 00
        E 0 80 62 00
        E 0 80 63 00
        E 0 80 64 00
        E 0 80 65 00
        E 0 8f 51 00
        E 0 8f 69 00
        E 120 93 49 67
        E 0 93 4a 66
        E 0 93 4b 64
        E 0 93 4c 65
        E 0 93 4d 64
        E 0 93 61 67
        E 0 93 62 66
        E 0 93 63 64
        E 0 93 64 65
        E 0 93 65 64
        E 120 83 49 00
        E 0 83 4a 00
        E 0 83 4b 00
        E 0 83 4c 00
        E 0 83 4d 00
        E 0 83 61 00
        E 0 83 62 00
        E 0 83 63 00
        E 0 83 64 00
        E 0 83 65 00
        E 120 90 0c 64
        E 0 90 10 64
        E 0 90 31 66
        E 0 90 32 66
        E 0 90 49 66
        E 0 90 4a 66
        E 0 90 4b 64
        E 0 90 4c 65
        E 0 90 4d 64
        E 0 90 61 66
        E 0 90 62 66
        E 0 90 63 64
        E 0 90 64 65
        E 0 90 65 64
        E 0 9f 51 64
        E 0 9f 69 64
        E 120 80 0c 00
        E 0 80 10 00
        E 0 80 31 00
        E 0 80 32 00
        E 240 80 49 00
        E 0 80 4a 00
        E 0 80 4b 00
        E 0 80 4c 00
        E 0 80 4d 00
        E 0 80 61 00
        E 0 80 62 00
        E 0 80 63 00
        E 0 80 64 00
        E 0 80 65 00
        E 0 8f 51 00
        E 0 8f 69 00
        E 120 90 31 66
        E 0 90 32 66
        E 0 90 49 66
        E 0 90 4a 66
        E 0 90 4b 64
        E 0 90 4c 65
        E 0 90 4d 64
        E 0 90 61 66
        E 0 90 62 66
        E 0 90 63 64
        E 0 90 64 65
        E 0 90 65 64
        E 0 9f 51 64
        E 0 9f 69 64
        E 120 80 31 00
        E 0 80 32 00
        E 0 80 49 00
        E 0 80 4a 00
        E 0 80 4b 00
        E 0 80 4c 00
        E 0 80 4d 00
        E 0 80 61 00
        E 0 80 62 00
        E 0 80 63 00
        E 0 80 64 00
        E 0 80 65 00
        E 0 8f 51 00
        E 0 8f 69 00
        E 120 93 49 66
        E 0 93 4a 66
        E 0 93 4b 64
        E 0 93 4c 65
        E 0 93 4d 64
        E 0 93 61 66
        E 0 93 62 66
        E 0 93 63 64
        E 0 93 64 65
        E 0 93 65 64
        E 120 83 49 00
        E 0 83 4a 00
        E 0 83 4b 00
        E 0 83 4c 00
        E 0 83 4d 00
        E 0 83 61 00
        E 0 83 62 00
        E 0 83 63 00
        E 0 83 64 00
        E 0 83 65 00
        E 120 90 09 64
        E 0 90 1a 66
        E 0 90 32 66
        E 0 90 33 66
        E 0 90 49 64
        E 0 90 4a 66
        E 0 90 4b 66
        E 0 90 4c 65
        E 0 90 4d 64
        E 0 90 61 64
        E 0 90 62 66
        E 0 90 63 66
        E 0 90 64 65
        E 0 90 65 64
        E 0 9f 51 64
        E 0 9f 69 64
        E 120 80 09 00
        E 0 80 1a 00
        E 0 80 32 00
        E 0 80 33 00
        E 240 80 49 00
        E 0 80 4a 00
        E 0 80 4b 00
        E 0 80 4c 00
        E 0 80 4d 00
        E 0 80 61 00
        E 0 80 62 00
        E 0 80 63 00
        E 0 80 64 00
        E 0 80 65 00
        E 0 8f 51 00
        E 0 8f 69 00
        E 120 90 1a 66
        E 0 90 32 66
        E 0 90 33 66
        E 0 90 49 64
        E 0 90 4a 66
        E 0 90 4b 66
        E 0 90 4c 65
        E 0 90 4d 64
        E 0 90 61 64
        E 0 90 62 66
        E 0 90 63 66
        E 0 90 64 65
        E 0 90 65 64
        E 0 9f 51 64
        E 0 9f 69 64
        E 120 80 1a 00
        E 0 80 32 00
        E 0 80 33 00
        E 0 80 49 00
        E 0 80 4a 00
        E 0 80 4b 00
        E 0 80 4c 00
        E 0 80 4d 00
        E 0 80 61 00
        E 0 80 62 00
        E 0 80 63 00
        E 0 80 64 00
        E 0 80 65 00
        E 0 8f 51 00
        E 0 8f 69 00
        E 120 90 49 64
        E 0 90 4a 66
        E 0 90 4b 66
        E 0 90 4c 65
        E 0 90 4d 64
        E 0 90 61 64
        E 0 90 62 66
        E 0 90 63 66
        E 0 90 64 65
        E 0 90 65 64
        E 0 9d 51 64
        E 0 9d 69 64
        E 120 80 49 00
        E 0 80 4a 00
        E 0 80 4b 00
        E 0 80 4c 00
        E 0 80 4d 00
        E 0 80 61 00
        E 0 80 62 00
        E 0 80 63 00
        E 0 80 64 00
        E 0 80 65 00
        E 0 8d 51 00
        E 0 8d 69 00
        E 120 90 1a 66
        E 0 90 32 66
        E 0 90 33 66
        E 0 90 49 64
        E 0 90 4a 66
        E 0 90 4b 66
        E 0 90 4c 65
        E 0 90 4d 64
        E 0 90 61 64
        E 0 90 62 66
        E 0 90 63 66
        E 0 90 64 65
        E 0 90 65 64
        E 0 9f 51 64
        E 0 9f 69 64
        E 120 80 1a 00
        E 0 80 32 00
        E 0 80 33 00
        E 0 80 49 00
        E 0 80 4a 00
        E 0 80 4b 00
        E 0 80 4c 00
        E 0 80 4d 00
        E 0 80 61 00
        E 0 80 62 00
        E 0 80 63 00
        E 0 80 64 00
        E 0 80 65 00
        E 0 8f 51 00
        E 0 8f 69 00
        E 120 90 32 66
        E 0 90 33 66
        E 0 90 49 64
        E 0 90 4a 66
        E 0 90 4b 66
        E 0 90 4c 64
        E 0 90 4d 64
        E 0 90 61 64
        E 0 90 62 66
        E 0 90 63 66
        E 0 90 64 64
        E 0 90 65 64
        E 0 9f 51 64
        E 0 9f 69 64
        E 120 80 32 00
        E 0 80 33 00
        E 0 80 49 00
        E 0 80 4a 00
        E 0 80 4b 00
        E 0 80 4c 00
        E 0 80 4d 00
        E 0 80 61 00
        E 0 80 62 00
        E 0 80 63 00
        E 0 80 64 00
        E 0 80 65 00
        E 0 8f 51 00
        E 0 8f 69 00
        E 120 90 1a 66
        E 0 90 32 66
        E 0 90 33 66
        E 0 90 49 64
        E 0 90 4a 66
        E 0 90 4b 66
        E 0 90 4c 64
        E 0 90 4d 64
        E 0 90 61 64
        E 0 90 62 66
        E 0 90 63 66
        E 0 90 64 64
        E 0 90 65 64
        E 0 9f 51 64
        E 0 9f 69 64
        E 120 80 1a 00
        E 0 80 32 00
        E 0 80 33 00
        E 0 80 49 00
        E 0 80 4a 00
        E 0 80 4b 00
        E 0 80 4c 00
        E 0 80 4d 00
        E 0 80 61 00
        E 0 80 62 00
        E 0 80 63 00
        E 0 80 64 00
        E 0 80 65 00
        E 0 8f 51 00
        E 0 8f 69 00
        E 120 90 6c 66
        E 0 93 48 67
        E 0 93 49 66
        E 0 93 4a 64
        E 0 93 4b 64
        E 0 93 4c 64
        E 0 93 4d 67
        E 0 93 60 67
        E 0 93 61 66
        E 0 93 62 64
        E 0 93 63 64
        E 0 93 64 64
        E 0 93 65 67
        E 120 80 6c 00
        E 0 83 48 00
        E 0 83 49 00
        E 0 83 4a 00
        E 0 83 4b 00
        E 0 83 4c 00
        E 0 83 4d 00
        E 0 83 60 00
        E 0 83 61 00
        E 0 83 62 00
        E 0 83 63 00
        E 0 83 64 00
        E 0 83 65 00
        E 120 90 07 64
        E 0 90 18 67
        E 0 90 30 67
        E 0 90 31 66
        E 0 90 48 67
        E 0 90 49 66
        E 0 90 4a 64
        E 0 90 4b 64
        E 0 90 4c 64
        E 0 90 4d 67
        E 0 90 60 67
        E 0 90 61 66
        E 0 90 62 64
        E 0 90 63 64
        E 0 90 64 64
        E 0 90 65 67
        E 0 9f 51 64
        E 0 9f 69 64
        E 120 80 07 00
        E 0 80 18 00
        E 0 80 30 00
        E 0 80 31 00
        E 240 80 48 00
        E 0 80 49 00
        E 0 80 4a 00
        E 0 80 4b 00
        E 0 80 4c 00
        E 0 80 4d 00
        E 0 80 60 00
        E 0 80 61 00
        E 0 80 62 00
        E 0 80 63 00
        E 0 80 64 00
        E 0 80 65 00
        E 0 8f 51 00
        E 0 8f 69 00
        E 120 90 30 67
        E 0 90 31 66
        E 0 90 48 67
        E 0 90 49 66
        E 0 90 4a 64
        E 0 90 4b 64
        E 0 90 4c 64
        E 0 90 4d 67
        E 0 90 60 67
        E 0 90 61 66
        E 0 90 62 64
        E 0 90 63 64
        E 0 90 64 64
        E 0 90 65 67
        E 0 9f 51 64
        E 0 9f 69 64
        E 120 80 30 00
        E 0 80 31 00
        E 0 80 48 00
        E 0 80 49 00
        E 0 80 4a 00
        E 0 80 4b 00
        E 0 80 4c 00
        E 0 80 4d 00
        E 0 80 60 00
        E 0 80 61 00
        E 0 80 62 00
        E 0 80 63 00
        E 0 80 64 00
        E 0 80 65 00
        E 0 8f 51 00
        E 0 8f 69 00
        E 120 93 48 66
        E 0 93 49 66
        E 0 93 4a 64
        E 0 93 4b 64
        E 0 93 4c 64
        E 0 93 4d 67
        E 0 93 60 66
        E 0 93 61 66
        E 0 93 62 64
        E 0 93 63 64
        E 0 93 64 64
        E 0 93 65 67
        E 120 83 48 00
        E 0 83 49 00
        E 0 83 4a 00
        E 0 83 4b 00
        E 0 83 4c 00
        E 0 83 4d 00
        E 0 83 60 00
        E 0 83 61 00
        E 0 83 62 00
        E 0 83 63 00
        E 0 83 64 00
        E 0 83 65 00
        E 120 90 07 64
        E 0 90 10 64
        E 0 90 18 66
        E 0 90 30 66
        E 0 90 31 66
        E 0 90 48 66
        E 0 90 49 66
        E 0 90 4a 64
        E 0 90 4b 64
        E 0 90 4c 64
        E 0 90 4d 67
        E 0 90 60 66
        E 0 90 61 66
        E 0 90 62 64
        E 0 90 63 64
        E 0 90 64 64
        E 0 90 65 67
        E 0 9f 51 64
        E 0 9f 69 64
        E 120 80 07 00
        E 0 80 10 00
        E 0 80 18 00
        E 0 80 30 00
        E 0 80 31 00
        E 240 80 48 00
        E 0 80 49 00
        E 0 80 4a 00
        E 0 80 4b 00
        E 0 80 4c 00
        E 0 80 4d 00
        E 0 80 60 00
        E 0 80 61 00
        E 0 80 62 00
        E 0 80 63 00
        E 0 80 64 00
        E 0 80 65 00
        E 0 8f 51 00
        E 0 8f 69 00
        E 120 90 30 66
        E 0 90 31 66
        E 0 90 48 66
        E 0 90 49 66
        E 0 90 4a 64
        E 0 90 4b 64
        E 0 90 4c 64
        E 0 90 4d 67
        E 0 90 60 66
        E 0 90 61 66
        E 0 90 62 64
        E 0 90 63 64
        E 0 90 64 64
        E 0 90 65 67
        E 0 9f 51 64
        E 0 9f 69 64
        E 120 80 30 00
        E 0 80 31 00
        E 0 80 48 00
        E 0 80 49 00
        E 0 80 4a 00
        E 0 80 4b 00
        E 0 80 4c 00
        E 0 80 4d 00
        E 0 80 60 00
        E 0 80 61 00
        E 0 80 62 00
        E 0 80 63 00
        E 0 80 64 00
        E 0 80 65 00
        E 0 8f 51 00
        E 0 8f 69 00
        E 120 93 48 64
        E 0 93 49 66
        E 0 93 4a 66
        E 0 93 4b 64
        E 0 93 4c 64
        E 0 93 4d 64
        E 0 93 60 64
        E 0 93 61 66
        E 0 93 62 66
        E 0 93 63 64
        E 0 93 64 64
        E 0 93 65 64
        E 120 83 48 00
        E 0 83 49 00
        E 0 83 4a 00
        E 0 83 4b 00
        E 0 83 4c 00
        E 0 83 4d 00
        E 0 83 60 00
        E 0 83 61 00
        E 0 83 62 00
        E 0 83 63 00
        E 0 83 64 00
        E 0 83 65 00
        E 120 90 04 64
        E 0 90 19 66
        E 0 90 31 66
        E 0 90 32 66
        E 0 90 48 64
        E 0 90 49 66
        E 0 90 4a 66
        E 0 90 4b 64
        E 0 90 4c 64
        E 0 90 4d 64
        E 0 90 60 64
        E 0 90 61 66
        E 0 90 62 66
        E 0 90 63 64
        E 0 90 64 64
        E 0 90 65 64
        E 0 90 74 60
        E 0 9f 51 64
        E 0 9f 69 64
        E 120 80 04 00
        E 0 80 19 00
        E 0 80 31 00
        E 0 80 32 00
        E 240 80 48 00
        E 0 80 49 00
        E 0 80 4a 00
        E 0 80 4b 00
        E 0 80 4c 00
        E 0 80 4d 00
        E 0 80 60 00
        E 0 80 61 00
        E 0 80 62 00
        E 0 80 63 00
        E 0 80 64 00
        E 0 80 65 00
        E 0 8f 51 00
        E 0 8f 69 00
        E 120 90 19 66
        E 0 90 31 66
        E 0 90 32 66
        E 0 90 48 64
        E 0 90 49 66
        E 0 90 4a 66
        E 0 90 4b 64
        E 0 90 4c 64
        E 0 90 4d 64
        E 0 90 60 64
        E 0 90 61 66
        E 0 90 62 66
        E 0 90 63 64
        E 0 90 64 64
        E 0 90 65 64
        E 0 9f 51 64
        E 0 9f 69 64
        E 120 80 19 00
        E 0 80 31 00
        E 0 80 32 00
        E 0 80 48 00
        E 0 80 49 00
        E 0 80 4a 00
        E 0 80 4b 00
        E 0 80 4c 00
        E 0 80 4d 00
        E 0 80 60 00
        E 0 80 61 00
        E 0 80 62 00
        E 0 80 63 00
        E 0 80 64 00
        E 0 80 65 00
        E 0 8f 51 00
        E 0 8f 69 00
        E 120 90 31 66
        E 0 90 32 66
        E 0 90 48 64
        E 0 90 49 66
        E 0 90 4a 66
        E 0 90 4b 64
        E 0 90 4c 64
        E 0 90 4d 64
        E 0 90 60 64
        E 0 90 61 66
        E 0 90 62 66
        E 0 90 63 64
        E 0 90 64 64
        E 0 90 65 64
        E 0 9d 51 64
        E 0 9d 69 64
        E 120 80 31 00
        E 0 80 32 00
        E 0 80 48 00
        E 0 80 49 00
        E 0 80 4a 00
        E 0 80 4b 00
        E 0 80 4c 00
        E 0 80 4d 00
        E 0 80 60 00
        E 0 80 61 00
        E 0 80 62 00
        E 0 80 63 00
        E 0 80 64 00
        E 0 80 65 00
        E 0 8d 51 00
        E 0 8d 69 00
        E 120 90 19 66
        E 0 90 31 66
        E 0 90 32 66
        E 0 90 48 64
        E 0 90 49 66
        E 0 90 4a 66
        E 0 90 4b 64
        E 0 90 4c 64
        E 0 90 4d 64
        E 0 90 60 64
        E 0 90 61 66
        E 0 90 62 66
        E 0 90 63 64
        E 0 90 64 64
        E 0 90 65 64
        E 0 9f 51 64
        E 0 9f 69 64
        E 120 80 19 00
        E 0 80 31 00
        E 0 80 32 00
        E 0 80 48 00
        E 0 80 49 00
        E 0 80 4a 00
        E 0 80 4b 00
        E 0 80 4c 00
        E 0 80 4d 00
        E 0 80 60 00
        E 0 80 61 00
        E 0 80 62 00
        E 0 80 63 00
        E 0 80 64 00
        E 0 80 65 00
        E 0 8f 51 00
        E 0 8f 69 00
        E 120 90 31 66
        E 0 90 32 66
        E 0 90 48 64
        E 0 90 49 66
        E 0 90 4a 66
        E 0 90 4b 64
        E 0 90 4c 64
        E 0 90 4d 64
        E 0 90 60 64
        E 0 90 61 66
        E 0 90 62 66
        E 0 90 63 64
        E 0 90 64 64
        E 0 90 65 64
        E 0 9d 51 64
        E 0 9d 69 64
        E 120 80 31 00
        E 0 80 32 00
        E 0 80 48 00
        E 0 80 49 00
        E 0 80 4a 00
        E 0 80 4b 00
        E 0 80 4c 00
        E 0 80 4d 00
        E 0 80 60 00
        E 0 80 61 00
        E 0 80 62 00
        E 0 80 63 00
        E 0 80 64 00
        E 0 80 65 00
        E 0 8d 51 00
        E 0 8d 69 00
        E 120 90 31 66
        E 0 90 32 66
        E 0 90 48 64
        E 0 90 49 66
        E 0 90 4a 66
        E 0 90 4b 64
        E 0 90 4c 64
        E 0 90 4d 64
        E 0 90 60 64
        E 0 90 61 66
        E 0 90 62 66
        E 0 90 63 64
        E 0 90 64 64
        E 0 90 65 64
        E 0 9f 51 64
        E 0 9f 69 64
        E 120 80 31 00
        E 0 80 32 00
        E 0 80 48 00
        E 0 80 49 00
        E 0 80 4a 00
        E 0 80 4b 00
        E 0 80 4c 00
        E 0 80 4d 00
        E 0 80 60 00
        E 0 80 61 00
        E 0 80 62 00
        E 0 80 63 00
        E 0 80 64 00
        E 0 80 65 00
        E 0 8f 51 00
        E 0 8f 69 00
        E 120 90 6c 65
        E 0 93 49 67
        E 0 93 4a 66
        E 0 93 4b 64
        E 0 93 4c 65
        E 0 93 4d 64
        E 0 93 61 67
        E 0 93 62 66
        E 0 93 63 64
        E 0 93 64 65
        E 0 93 65 64
        E 120 80 6c 00
        E 0 83 49 00
        E 0 83 4a 00
        E 0 83 4b 00
        E 0 83 4c 00
        E 0 83 4d 00
        E 0 83 61 00
        E 0 83 62 00
        E 0 83 63 00
        E 0 83 64 00
        E 0 83 65 00
        E 120 80 74 00
        E 0 90 0c 64
        E 0 90 31 67
        E 0 90 32 66
        E 0 90 49 67
        E 0 90 4a 66
        E 0 90 4b 64
        E 0 90 4c 65
        E 0 90 4d 64
        E 0 90 61 67
        E 0 90 62 66
        E 0 90 63 64
        E 0 90 64 65
        E 0 90 65 64
        E 0 9f 51 64
        E 0 9f 69 64
        E 120 80 0c 00
        E 0 80 31 00
        E 0 80 32 00
        E 240 80 49 00
        E 0 80 4a 00
        E 0 80 4b 00
        E 0 80 4c 00
        E 0 80 4d 00
        E 0 80 61 00
        E 0 80 62 00
        E 0 80 63 00
        E 0 80 64 00
        E 0 80 65 00
        E 0 8f 51 00 -1
        E 0 8f 69 00
        E 120 90 31 67
        E 0 90 32 66
        E 0 90 49 67
        E 0 90 4a 66
        E 0 90 4b 64
        E 0 90 4c 65
        E 0 90 4d 64
        E 0 90 61 67
        E 0 90 62 66
        E 0 90 63 64
        E 0 90 64 65
        E 0 90 65 64
        E 0 9f 51 64
        E 0 9f 69 64
        E 120 80 31 00
        E 0 80 32 00
        E 0 80 49 00
        E 0 80 4a 00
        E 0 80 4b 00
        E 0 80 4c 00
        E 0 80 4d 00
        E 0 80 61 00
        E 0 80 62 00
        E 0 80 63 00
        E 0 80 64 00
        E 0 80 65 00
        E 0 8f 51 00
        E 0 8f 69 00
        E 120 93 49 67
        E 0 93 4a 66
        E 0 93 4b 64
        E 0 93 4c 65
        E 0 93 4d 64
        E 0 93 61 67
        E 0 93 62 66
        E 0 93 63 64
        E 0 93 64 65
        E 0 93 65 64
        E 120 83 49 00
        E 0 83 4a 00
        E 0 83 4b 00
        E 0 83 4c 00
        E 0 83 4d 00
        E 0 83 61 00
        E 0 83 62 00
        E 0 83 63 00
        E 0 83 64 00
        E 0 83 65 00
        E 120 90 0c 64
        E 0 90 10 64
        E 0 90 31 66
        E 0 90 32 66
        E 0 90 49 66
        E 0 90 4a 66
        E 0 90 4b 64
        E 0 90 4c 65
        E 0 90 4d 64
        E 0 90 61 66
        E 0 90 62 66
        E 0 90 63 64
        E 0 90 64 65
        E 0 90 65 64
        E 0 9f 51 64
        E 0 9f 69 64
        E 120 80 0c 00
        E 0 80 10 00
        E 0 80 31 00
        E 0 80 32 00
        E 0 80 61 00
        E 0 80 62 00
        E 0 80 63 00
        E 0 80 64 00
        E 0 80 65 00
        E 0 8f 51 00
        E 0 8f 69 00
        E 120 90 61 66
        E 0 90 62 66
        E 0 90 63 64
        E 0 90 64 65
        E 0 90 65 64
        E 0 9d 51 64
        E 0 9d 69 64
        E 120 80 49 00
        E 0 80 4a 00
        E 0 80 4b 00
        E 0 80 4c 00
        E 0 80 4d 00
        E 0 80 61 00
        E 0 80 62 00
        E 0 80 63 00
        E 0 80 64 00
        E 0 80 65 00
        E 0 8d 51 00
        E 0 8d 69 00
        E 120 90 31 66
        E 0 90 32 66
        E 0 90 49 66
        E 0 90 4a 66
        E 0 90 4b 64
        E 0 90 4c 65
        E 0 90 4d 64
        E 0 90 61 66
        E 0 90 62 66
        E 0 90 63 64
        E 0 90 64 65
        E 0 90 65 64
        E 0 9f 51 64
        E 0 9f 69 64
        E 120 80 31 00
        E 0 80 32 00
        E 0 80 49 00
        E 0 80 4a 00
        E 0 80 4b 00
        E 0 80 4c 00
        E 0 80 4d 00
        E 0 80 61 00
        E 0 80 62 00
        E 0 80 63 00
        E 0 80 64 00
        E 0 80 65 00
        E 0 8f 51 00
        E 0 8f 69 00
        E 120 93 49 66
        E 0 93 4a 66
        E 0 93 4b 64
        E 0 93 4c 65
        E 0 93 4d 64
        E 0 93 61 66
        E 0 93 62 66
        E 0 93 63 64
        E 0 93 64 65
        E 0 93 65 64
        E 120 83 49 00
        E 0 83 4a 00
        E 0 83 4b 00
        E 0 83 4c 00
        E 0 83 4d 00
        E 0 83 61 00
        E 0 83 62 00
        E 0 83 63 00
        E 0 83 64 00
        E 0 83 65 00
        E 120 90 09 64
        E 0 90 1a 66
        E 0 90 32 66
        E 0 90 33 66
        E 0 90 49 64
        E 0 90 4a 66
        E 0 90 4b 66
        E 0 90 4c 65
        E 0 90 4d 64
        E 0 90 61 64
        E 0 90 62 66
        E 0 90 63 66
        E 0 90 64 65
        E 0 90 65 64
        E 0 9f 51 64
        E 0 9f 69 64
        E 120 80 09 00
        E 0 80 1a 00
        E 0 80 32 00
        E 0 80 33 00
        E 240 80 49 00
        E 0 80 4a 00
        E 0 80 4b 00
        E 0 80 4c 00
        E 0 80 4d 00
        E 0 80 61 00
        E 0 80 62 00
        E 0 80 63 00
        E 0 80 64 00
        E 0 80 65 00
        E 0 8f 51 00
        E 0 8f 69 00
        E 120 90 1a 66
        E 0 90 32 66
        E 0 90 33 66
        E 0 90 49 64
        E 0 90 4a 66
        E 0 90 4b 66
        E 0 90 4c 65
        E 0 90 4d 64
        E 0 90 61 64
        E 0 90 62 66
        E 0 90 63 66
        E 0 90 64 65
        E 0 90 65 64
        E 0 9f 51 64 -1
        E 0 9f 69 64
        E 120 80 1a 00
        E 0 80 32 00
        E 0 80 33 00
        E 0 80 49 00
        E 0 80 4a 00
        E 0 80 4b 00
        E 0 80 4c 00
        E 0 80 4d 00
        E 0 80 61 00
        E 0 80 62 00
        E 0 80 63 00
        E 0 80 64 00
        E 0 80 65 00
        E 0 8f 51 00 -1
        E 0 8f 69 00
        E 120 90 49 64
        E 0 90 4a 66
        E 0 90 4b 66
        E 0 90 4c 65
        E 0 90 4d 64
        E 0 90 61 64
        E 0 90 62 66
        E 0 90 63 66
        E 0 90 64 65
        E 0 90 65 64
        E 0 9d 51 64
        E 0 9d 69 64
        E 120 80 49 00
        E 0 80 4a 00
        E 0 80 4b 00
        E 0 80 4c 00
        E 0 80 4d 00
        E 0 80 61 00
        E 0 80 62 00
        E 0 80 63 00
        E 0 80 64 00
        E 0 80 65 00
        E 0 8d 51 00
        E 0 8d 69 00
        E 120 90 1a 66
        E 0 90 32 66
        E 0 90 33 66
        E 0 90 49 64
        E 0 90 4a 66
        E 0 90 4b 66
        E 0 90 4c 65
        E 0 90 4d 64
        E 0 90 61 64
        E 0 90 62 66
        E 0 90 63 66
        E 0 90 64 65
        E 0 90 65 64
        E 0 9f 51 64
        E 0 9f 69 64
        E 120 80 1a 00
        E 0 80 32 00
        E 0 80 33 00
        E 0 80 49 00
        E 0 80 4a 00
        E 0 80 4b 00
        E 0 80 4c 00
        E 0 80 4d 00
        E 0 80 61 00
        E 0 80 62 00
        E 0 80 63 00
        E 0 80 64 00
        E 0 80 65 00
        E 0 8f 51 00
        E 0 8f 69 00
        E 120 90 32 66
        E 0 90 33 66
        E 0 90 49 64
        E 0 90 4a 66
        E 0 90 4b 66
        E 0 90 4c 65
        E 0 90 4d 64
        E 0 90 61 64
        E 0 90 62 66
        E 0 90 63 66
        E 0 90 64 65
        E 0 90 65 64
        E 0 9d 51 64
        E 0 9d 69 64
        E 120 80 32 00
        E 0 80 33 00
        E 0 80 49 00
        E 0 80 4a 00
        E 0 80 4b 00
        E 0 80 4c 00
        E 0 80 4d 00
        E 0 80 61 00
        E 0 80 62 00
        E 0 80 63 00
        E 0 80 64 00
        E 0 80 65 00
        E 0 8d 51 00
        E 0 8d 69 00
        E 120 90 1a 66
        E 0 90 32 66
        E 0 90 33 66
        E 0 90 49 64
        E 0 90 4a 66
        E 0 90 4b 66
        E 0 90 4c 65
        E 0 90 4d 64
        E 0 90 61 64
        E 0 90 62 66
        E 0 90 63 66
        E 0 90 64 65
        E 0 90 65 64
        E 0 9f 51 64
        E 0 9f 69 64
        E 120 80 1a 00
        E 0 80 32 00
        E 0 80 33 00
        E 0 80 49 00
        E 0 80 4a 00
        E 0 80 4b 00
        E 0 80 4c 00
        E 0 80 4d 00
        E 0 80 61 00
        E 0 80 62 00
        E 0 80 63 00
        E 0 80 64 00
        E 0 80 65 00
        E 0 8f 51 00
        E 0 8f 69 00
        E 120 90 6c 66
        E 0 93 48 67
        E 0 93 49 66
        E 0 93 4a 64
        E 0 93 4b 64
        E 0 93 4c 64
        E 0 93 4d 67
        E 0 93 60 67
        E 0 93 61 66
        E 0 93 62 64
        E 0 93 63 64
        E 0 93 64 64
        E 0 93 65 67
        E 0 9d 51 64
        E 0 9d 69 64
        E 120 80 6c 00
        E 0 83 48 00
        E 0 83 49 00
        E 0 83 4a 00
        E 0 83 4b 00
        E 0 83 4c 00
        E 0 83 4d 00
        E 0 83 60 00
        E 0 83 61 00
        E 0 83 62 00
        E 0 83 63 00
        E 0 83 64 00
        E 0 83 65 00
        E 0 8d 51 00
        E 0 8d 69 00
        <X 120 0
          /wFbYmVnaW5fcGcgc29uZ190cmFpbmVyX3BnXzJd
        >
        E 0 90 07 64
        E 0 90 18 67
        E 0 90 30 67
        E 0 90 31 66
        E 0 90 48 67
        E 0 90 49 66
        E 0 90 4a 64
        E 0 90 4b 64
        E 0 90 4c 64
        E 0 90 4d 67
        E 0 90 60 67
        E 0 90 61 66
        E 0 90 62 64
        E 0 90 63 64
        E 0 90 64 64
        E 0 90 65 67
        E 0 9f 51 64
        E 0 9f 69 64
        E 120 80 07 00
        E 0 80 18 00
        E 0 80 30 00
        E 0 80 31 00
        E 240 80 48 00
        E 0 80 49 00
        E 0 80 4a 00
        E 0 80 4b 00
        E 0 80 4c 00
        E 0 80 4d 00
        E 0 80 60 00
        E 0 80 61 00
        E 0 80 62 00
        E 0 80 63 00
        E 0 80 64 00
        E 0 80 65 00
        E 0 8f 51 00
        E 0 8f 69 00
        E 120 90 30 67
        E 0 90 31 66
        E 0 90 48 67
        E 0 90 49 66
        E 0 90 4a 64
        E 0 90 4b 64
        E 0 90 4c 64
        E 0 90 4d 67
        E 0 90 60 67
        E 0 90 61 66
        E 0 90 62 64
        E 0 90 63 64
        E 0 90 64 64
        E 0 90 65 67
        E 0 9f 51 64
        E 0 9f 69 64
        E 120 80 30 00
        E 0 80 31 00
        E 0 80 48 00
        E 0 80 49 00
        E 0 80 4a 00
        E 0 80 4b 00
        E 0 80 4c 00
        E 0 80 4d 00
        E 0 80 60 00
        E 0 80 61 00
        E 0 80 62 00
        E 0 80 63 00
        E 0 80 64 00
        E 0 80 65 00
        E 0 8f 51 00
        E 0 8f 69 00
        E 120 93 48 66
        E 0 93 49 66
        E 0 93 4a 64
        E 0 93 4b 64
        E 0 93 4c 64
        E 0 93 4d 67
        E 0 93 60 66
        E 0 93 61 66
        E 0 93 62 64
        E 0 93 63 64
        E 0 93 64 64
        E 0 93 65 67
        E 120 83 48 00
        E 0 83 49 00
        E 0 83 4a 00
        E 0 83 4b 00
        E 0 83 4c 00
        E 0 83 4d 00
        E 0 83 60 00
        E 0 83 61 00
        E 0 83 62 00
        E 0 83 63 00
        E 0 83 64 00
        E 0 83 65 00
        E 120 90 07 64
        E 0 90 10 64
        E 0 90 18 66
        E 0 90 30 66
        E 0 90 31 66
        E 0 90 48 66
        E 0 90 49 66
        E 0 90 4a 64
        E 0 90 4b 64
        E 0 90 4c 64
        E 0 90 4d 67
        E 0 90 60 66
        E 0 90 61 66
        E 0 90 62 64
        E 0 90 63 64
        E 0 90 64 64
        E 0 90 65 67
        E 0 9f 51 64
        E 0 9f 69 64
        E 120 80 07 00
        E 0 80 10 00
        E 0 80 18 00
        E 0 80 30 00
        E 0 80 31 00
        E 0 80 48 00
        E 0 80 49 00
        E 0 80 4a 00
        E 0 80 4b 00
        E 0 80 4c 00
        E 0 80 4d 00
        E 0 80 60 00
        E 0 80 61 00
        E 0 80 62 00
        E 0 80 63 00
        E 0 80 64 00
        E 0 80 65 00
        E 0 8f 51 00
        E 0 8f 69 00
        E 120 90 30 66
        E 0 90 31 66
        E 0 90 48 66
        E 0 90 49 66
        E 0 90 4a 64
        E 0 90 4b 64
        E 0 90 4c 64
        E 0 90 4d 67
        E 0 90 60 66
        E 0 90 61 66
        E 0 90 62 64
        E 0 90 63 64
        E 0 90 64 64
        E 0 90 65 67
        E 0 9d 51 64
        E 0 9d 69 64
        E 120 80 30 00
        E 0 80 31 00
        E 0 80 48 00
        E 0 80 49 00
        E 0 80 4a 00
        E 0 80 4b 00
        E 0 80 4c 00
        E 0 80 4d 00
        E 0 80 60 00
        E 0 80 61 00
        E 0 80 62 00
        E 0 80 63 00
        E 0 80 64 00
        E 0 80 65 00
        E 0 8d 51 00
        E 0 8d 69 00
        E 120 90 30 66
        E 0 90 31 66
        E 0 90 48 66
        E 0 90 49 66
        E 0 90 4a 64
        E 0 90 4b 64
        E 0 90 4c 64
        E 0 90 4d 67
        E 0 90 60 66
        E 0 90 61 66
        E 0 90 62 64
        E 0 90 63 64
        E 0 90 64 64
        E 0 90 65 67
        E 0 9f 51 64
        E 0 9f 69 64
        E 120 80 30 00
        E 0 80 31 00
        E 0 80 48 00
        E 0 80 49 00
        E 0 80 4a 00
        E 0 80 4b 00
        E 0 80 4c 00
        E 0 80 4d 00
        E 0 80 60 00
        E 0 80 61 00
        E 0 80 62 00
        E 0 80 63 00
        E 0 80 64 00
        E 0 80 65 00
        E 0 8f 51 00
        E 0 8f 69 00
        E 120 93 48 64
        E 0 93 49 66
        E 0 93 4a 66
        E 0 93 4b 64
        E 0 93 4c 64
        E 0 93 4d 64
        E 0 93 60 64
        E 0 93 61 66
        E 0 93 62 66
        E 0 93 63 64
        E 0 93 64 64
        E 0 93 65 64
        E 120 83 48 00
        E 0 83 49 00
        E 0 83 4a 00
        E 0 83 4b 00
        E 0 83 4c 00
        E 0 83 4d 00
        E 0 83 60 00
        E 0 83 61 00
        E 0 83 62 00
        E 0 83 63 00
        E 0 83 64 00
        E 0 83 65 00
        <X 120 0
          /wFbcGdfbm9ybSBzb25nX3RyYWluZXJfcGdfMl0=
        >
        E 0 90 04 64
        E 0 90 19 66
        E 0 90 31 66
        E 0 90 32 66
        E 0 90 48 64
        E 0 90 49 66
        E 0 90 4a 66
        E 0 90 4b 64
        E 0 90 4c 64
        E 0 90 4d 64
        E 0 90 60 64
        E 0 90 61 66
        E 0 90 62 66
        E 0 90 63 64
        E 0 90 64 64
        E 0 90 65 64
        E 0 9f 51 64
        E 0 9f 69 64
        E 120 80 04 00
        E 0 80 19 00
        E 0 80 31 00
        E 0 80 32 00
        E 240 80 48 00
        E 0 80 49 00
        E 0 80 4a 00
        E 0 80 4b 00
        E 0 80 4c 00
        E 0 80 4d 00
        E 0 80 60 00
        E 0 80 61 00
        E 0 80 62 00
        E 0 80 63 00
        E 0 80 64 00
        E 0 80 65 00
        E 0 8f 51 00
        E 0 8f 69 00
        E 120 90 19 66
        E 0 90 31 66
        E 0 90 32 66
        E 0 90 48 64
        E 0 90 49 66
        E 0 90 4a 66
        E 0 90 4b 64
        E 0 90 4c 64
        E 0 90 4d 64
        E 0 90 60 64
        E 0 90 61 66
        E 0 90 62 66
        E 0 90 63 64
        E 0 90 64 64
        E 0 90 65 64
        E 0 9f 51 64
        E 0 9f 69 64
        E 120 80 19 00
        E 0 80 31 00
        E 0 80 32 00
        E 0 80 48 00
        E 0 80 49 00
        E 0 80 4a 00
        E 0 80 4b 00
        E 0 80 4c 00
        E 0 80 4d 00
        E 0 80 60 00
        E 0 80 61 00
        E 0 80 62 00
        E 0 80 63 00
        E 0 80 64 00
        E 0 80 65 00
        E 0 8f 51 00
        E 0 8f 69 00
        E 120 90 31 66
        E 0 90 32 66
        E 0 90 48 64
        E 0 90 49 66
        E 0 90 4a 66
        E 0 90 4b 64
        E 0 90 4c 64
        E 0 90 4d 64
        E 0 90 60 64
        E 0 90 61 66
        E 0 90 62 66
        E 0 90 63 64
        E 0 90 64 64
        E 0 90 65 64
        E 0 9d 51 64
        E 0 9d 69 64
        E 120 80 31 00
        E 0 80 32 00
        E 0 80 48 00
        E 0 80 49 00
        E 0 80 4a 00
        E 0 80 4b 00
        E 0 80 4c 00
        E 0 80 4d 00
        E 0 80 60 00
        E 0 80 61 00
        E 0 80 62 00
        E 0 80 63 00
        E 0 80 64 00
        E 0 80 65 00
        E 0 8d 51 00
        E 0 8d 69 00
        E 120 90 19 66
        E 0 90 31 66
        E 0 90 32 66
        E 0 90 48 64
        E 0 90 49 66
        E 0 90 4a 66
        E 0 90 4b 64
        E 0 90 4c 64
        E 0 90 4d 64
        E 0 90 60 64
        E 0 90 61 66
        E 0 90 62 66
        E 0 90 63 64
        E 0 90 64 64
        E 0 90 65 64
        E 0 9f 51 64
        E 0 9f 69 64
        E 120 80 19 00
        E 0 80 31 00
        E 0 80 32 00
        E 0 80 48 00
        E 0 80 49 00
        E 0 80 4a 00
        E 0 80 4b 00
        E 0 80 4c 00
        E 0 80 4d 00
        E 0 80 60 00
        E 0 80 61 00
        E 0 80 62 00
        E 0 80 63 00
        E 0 80 64 00
        E 0 80 65 00
        E 0 8f 51 00
        E 0 8f 69 00
        E 120 90 31 66
        E 0 90 32 66
        E 0 90 48 64
        E 0 90 49 66
        E 0 90 4a 66
        E 0 90 4b 64
        E 0 90 4c 64
        E 0 90 4d 64
        E 0 90 60 64
        E 0 90 61 66
        E 0 90 62 66
        E 0 90 63 64
        E 0 90 64 64
        E 0 90 65 64
        E 0 9d 51 64
        E 0 9d 69 64
        E 120 80 31 00
        E 0 80 32 00
        E 0 80 48 00
        E 0 80 49 00
        E 0 80 4a 00
        E 0 80 4b 00
        E 0 80 4c 00
        E 0 80 4d 00
        E 0 80 60 00
        E 0 80 61 00
        E 0 80 62 00
        E 0 80 63 00
        E 0 80 64 00
        E 0 80 65 00
        E 0 8d 51 00
        E 0 8d 69 00
        E 120 90 31 66
        E 0 90 32 66
        E 0 90 48 64
        E 0 90 49 66
        E 0 90 4a 66
        E 0 90 4b 64
        E 0 90 4c 64
        E 0 90 4d 64
        E 0 90 60 64
        E 0 90 61 66
        E 0 90 62 66
        E 0 90 63 64
        E 0 90 64 64
        E 0 90 65 64
        E 0 9f 51 64
        E 0 9f 69 64
        E 120 80 31 00
        E 0 80 32 00
        E 0 80 48 00
        E 0 80 49 00
        E 0 80 4a 00
        E 0 80 4b 00
        E 0 80 4c 00
        E 0 80 4d 00
        E 0 80 60 00
        E 0 80 61 00
        E 0 80 62 00
        E 0 80 63 00
        E 0 80 64 00
        E 0 80 65 00
        E 0 8f 51 00
        E 0 8f 69 00
        E 120 90 6c 65
        E 0 93 49 67
        E 0 93 4a 66
        E 0 93 4b 64
        E 0 93 4c 65
        E 0 93 4d 64
        E 0 93 61 67
        E 0 93 62 66
        E 0 93 63 64
        E 0 93 64 65
        E 0 93 65 64
        E 120 80 6c 00
        E 0 83 49 00
        E 0 83 4a 00
        E 0 83 4b 00
        E 0 83 4c 00
        E 0 83 4d 00
        E 0 83 61 00
        E 0 83 62 00
        E 0 83 63 00
        E 0 83 64 00
        E 0 83 65 00
        E 120 90 0c 64
        E 0 90 31 67
        E 0 90 32 66
        E 0 90 49 67
        E 0 90 4a 66
        E 0 90 4b 64
        E 0 90 4c 65
        E 0 90 4d 64
        E 0 90 61 67
        E 0 90 62 66
        E 0 90 63 64
        E 0 90 64 65
        E 0 90 65 64
        E 0 9f 51 64
        E 0 9f 69 64
        E 120 80 0c 00
        E 0 80 31 00
        E 0 80 32 00
        E 240 80 49 00
        E 0 80 4a 00
        E 0 80 4b 00
        E 0 80 4c 00
        E 0 80 4d 00
        E 0 80 61 00
        E 0 80 62 00
        E 0 80 63 00
        E 0 80 64 00
        E 0 80 65 00
        E 0 8f 51 00
        E 0 8f 69 00
        E 120 90 31 67
        E 0 90 32 66
        E 0 90 49 67
        E 0 90 4a 66
        E 0 90 4b 64
        E 0 90 4c 65
        E 0 90 4d 64
        E 0 90 61 67
        E 0 90 62 66
        E 0 90 63 64
        E 0 90 64 65
        E 0 90 65 64
        E 0 9f 51 64
        E 0 9f 69 64
        E 120 80 31 00
        E 0 80 32 00
        E 240 80 49 00
        E 0 80 4a 00
        E 0 80 4b 00
        E 0 80 4c 00
        E 0 80 4d 00
        E 0 80 61 00
        E 0 80 62 00
        E 0 80 63 00
        E 0 80 64 00
        E 0 80 65 00
        E 0 8f 51 00
        E 0 8f 69 00
        E 120 90 31 67
        E 0 90 32 66
        E 0 90 49 67
        E 0 90 4a 66
        E 0 90 4b 64
        E 0 90 4c 65
        E 0 90 4d 64
        E 0 90 61 67
        E 0 90 62 66
        E 0 90 63 64
        E 0 90 64 65
        E 0 90 65 64
        E 0 9f 51 64
        E 0 9f 69 64
        E 120 80 31 00
        E 0 80 32 00
        E 240 80 49 00
        E 0 80 4a 00
        E 0 80 4b 00
        E 0 80 4c 00
        E 0 80 4d 00
        E 0 80 61 00
        E 0 80 62 00
        E 0 80 63 00
        E 0 80 64 00
        E 0 80 65 00
        E 0 8f 51 00
        E 0 8f 69 00
        E 120 90 31 67
        E 0 90 32 66
        E 0 90 49 67
        E 0 90 4a 66
        E 0 90 4b 64
        E 0 90 4c 65
        E 0 90 4d 64
        E 0 90 61 67
        E 0 90 62 66
        E 0 90 63 64
        E 0 90 64 65
        E 0 90 65 64
        E 0 9f 51 64
        E 0 9f 69 64
        E 120 80 31 00
        E 0 80 32 00
        E 0 80 49 00
        E 0 80 4a 00
        E 0 80 4b 00
        E 0 80 4c 00
        E 0 80 4d 00
        E 0 80 61 00
        E 0 80 62 00
        E 0 80 63 00
        E 0 80 64 00
        E 0 80 65 00
        E 0 8f 51 00
        E 0 8f 69 00
        E 120 90 6c 66
        E 0 93 4a 64
        E 0 93 4b 66
        E 0 93 4c 67
        E 0 93 4d 66
        E 0 93 62 64
        E 0 93 63 66
        E 0 93 64 67
        E 0 93 65 66
        E 120 80 6c 00
        E 0 83 4a 00
        E 0 83 4b 00
        E 0 83 4c 00
        E 0 83 4d 00
        E 0 83 62 00
        E 0 83 63 00
        E 0 83 64 00
        E 0 83 65 00
        E 120 90 0e 64
        E 0 90 33 66
        E 0 90 34 67
        E 0 90 4a 64
        E 0 90 4b 66
        E 0 90 4c 67
        E 0 90 4d 66
        E 0 90 62 64
        E 0 90 63 66
        E 0 90 64 67
        E 0 90 65 66
        E 0 9f 51 64
        E 0 9f 69 64
        E 120 80 0e 00
        E 0 80 33 00
        E 0 80 34 00
        E 0 80 4a 00
        E 0 80 4b 00
        E 0 80 4c 00
        E 0 80 4d 00
        E 0 80 62 00
        E 0 80 63 00
        E 0 80 64 00
        E 0 80 65 00
        E 0 8f 51 00
        E 0 8f 69 00
        E 120 90 4a 64
        E 0 90 4b 66
        E 0 90 4c 67
        E 0 90 4d 66
        E 0 90 62 64
        E 0 90 63 66
        E 0 90 64 67
        E 0 90 65 66
        E 0 9d 51 64
        E 0 9d 69 64
        E 120 80 4a 00
        E 0 80 4b 00
        E 0 80 4c 00
        E 0 80 4d 00
        E 0 80 62 00
        E 0 80 63 00
        E 0 80 64 00
        E 0 80 65 00
        E 0 8d 51 00
        E 0 8d 69 00
        E 120 90 33 66
        E 0 90 34 67
        E 0 90 4a 64
        E 0 90 4b 66
        E 0 90 4c 67
        E 0 90 4d 66
        E 0 90 62 64
        E 0 90 63 66
        E 0 90 64 67
        E 0 90 65 66
        E 0 9f 51 64
        E 0 9f 69 64
        E 120 80 33 00
        E 0 80 34 00
        E 240 80 4a 00
        E 0 80 4b 00
        E 0 80 4c 00
        E 0 80 4d 00
        E 0 80 62 00
        E 0 80 63 00
        E 0 80 64 00
        E 0 80 65 00
        E 0 8f 51 00
        E 0 8f 69 00
        E 120 90 33 66
        E 0 90 34 67
        E 0 90 4a 64
        E 0 90 4b 66
        E 0 90 4c 67
        E 0 90 4d 66
        E 0 90 62 64
        E 0 90 63 66
        E 0 90 64 67
        E 0 90 65 66
        E 0 9f 51 64
        E 0 9f 69 64
        E 120 80 33 00
        E 0 80 34 00
        E 240 80 4a 00
        E 0 80 4b 00
        E 0 80 4c 00
        E 0 80 4d 00
        E 0 80 62 00
        E 0 80 63 00
        E 0 80 64 00
        E 0 80 65 00
        E 0 8f 51 00
        E 0 8f 69 00
        E 120 90 33 66
        E 0 90 34 67
        E 0 90 4a 64
        E 0 90 4b 66
        E 0 90 4c 67
        E 0 90 4d 66
        E 0 90 62 64
        E 0 90 63 66
        E 0 90 64 67
        E 0 90 65 66
        E 0 9f 51 64
        E 0 9f 69 64
        E 120 80 33 00
        E 0 80 34 00
        E 0 80 4a 00
        E 0 80 4b 00
        E 0 80 4c 00
        E 0 80 4d 00
        E 0 80 62 00
        E 0 80 63 00
        E 0 80 64 00
        E 0 80 65 00
        E 0 8f 51 00
        E 0 8f 69 00
        E 120 90 6c 66
        E 0 93 48 67
        E 0 93 49 66
        E 0 93 4a 64
        E 0 93 4b 64
        E 0 93 4c 64
        E 0 93 4d 67
        E 0 93 60 67
        E 0 93 61 66
        E 0 93 62 64
        E 0 93 63 64
        E 0 93 64 64
        E 0 93 65 67
        E 120 80 6c 00
        E 0 83 48 00
        E 0 83 49 00
        E 0 83 4a 00
        E 0 83 4b 00
        E 0 83 4c 00
        E 0 83 4d 00
        E 0 83 60 00
        E 0 83 61 00
        E 0 83 62 00
        E 0 83 63 00
        E 0 83 64 00
        E 0 83 65 00
        <X 120 0
          /wFbZW5kX3BnIHNvbmdfdHJhaW5lcl9wZ18yXQ==
        >
        E 0 90 07 64
        E 0 90 18 67
        E 0 90 30 67
        E 0 90 31 66
        E 0 90 48 67
        E 0 90 49 66
        E 0 90 4a 64
        E 0 90 4b 64
        E 0 90 4c 64
        E 0 90 4d 67
        E 0 90 60 67
        E 0 90 61 66
        E 0 90 62 64
        E 0 90 63 64
        E 0 90 64 64
        E 0 90 65 67
        E 0 9f 51 64
        E 0 9f 69 64
        E 120 80 07 00
        E 0 80 18 00
        E 0 80 30 00
        E 0 80 31 00
        E 240 80 48 00
        E 0 80 49 00
        E 0 80 4a 00
        E 0 80 4b 00
        E 0 80 4c 00
        E 0 80 4d 00
        E 0 80 60 00
        E 0 80 61 00
        E 0 80 62 00
        E 0 80 63 00
        E 0 80 64 00
        E 0 80 65 00
        E 0 8f 51 00
        E 0 8f 69 00
        E 120 90 30 67
        E 0 90 31 66
        E 0 90 48 67
        E 0 90 49 66
        E 0 90 4a 64
        E 0 90 4b 64
        E 0 90 4c 64
        E 0 90 4d 67
        E 0 90 60 67
        E 0 90 61 66
        E 0 90 62 64
        E 0 90 63 64
        E 0 90 64 64
        E 0 90 65 67
        E 0 9f 51 64
        E 0 9f 69 64
        E 120 80 30 00
        E 0 80 31 00
        E 0 80 48 00
        E 0 80 49 00
        E 0 80 4a 00
        E 0 80 4b 00
        E 0 80 4c 00
        E 0 80 4d 00
        E 0 80 60 00
        E 0 80 61 00
        E 0 80 62 00
        E 0 80 63 00
        E 0 80 64 00
        E 0 80 65 00
        E 0 8f 51 00
        E 0 8f 69 00
        E 120 93 48 66
        E 0 93 49 66
        E 0 93 4a 64
        E 0 93 4b 64
        E 0 93 4c 64
        E 0 93 4d 67
        E 0 93 60 66
        E 0 93 61 66
        E 0 93 62 64
        E 0 93 63 64
        E 0 93 64 64
        E 0 93 65 67
        E 120 83 48 00
        E 0 83 49 00
        E 0 83 4a 00
        E 0 83 4b 00
        E 0 83 4c 00
        E 0 83 4d 00
        E 0 83 60 00
        E 0 83 61 00
        E 0 83 62 00
        E 0 83 63 00
        E 0 83 64 00
        E 0 83 65 00
        E 120 90 07 64
        E 0 90 10 64
        E 0 90 18 66
        E 0 90 30 66
        E 0 90 31 66
        E 0 90 48 66
        E 0 90 49 66
        E 0 90 4a 64
        E 0 90 4b 64
        E 0 90 4c 64
        E 0 90 4d 67
        E 0 90 60 66
        E 0 90 61 66
        E 0 90 62 64
        E 0 90 63 64
        E 0 90 64 64
        E 0 90 65 67
        E 0 9f 51 64
        E 0 9f 69 64
        E 120 80 07 00
        E 0 80 10 00
        E 0 80 18 00
        E 0 80 30 00
        E 0 80 31 00
        E 0 80 48 00
        E 0 80 49 00
        E 0 80 4a 00
        E 0 80 4b 00
        E 0 80 4c 00
        E 0 80 4d 00
        E 0 80 60 00
        E 0 80 61 00
        E 0 80 62 00
        E 0 80 63 00
        E 0 80 64 00
        E 0 80 65 00
        E 0 8f 51 00
        E 0 8f 69 00
        E 120 90 30 66
        E 0 90 31 66
        E 0 90 48 66
        E 0 90 49 66
        E 0 90 4a 64
        E 0 90 4b 64
        E 0 90 4c 64
        E 0 90 4d 67
        E 0 90 60 66
        E 0 90 61 66
        E 0 90 62 64
        E 0 90 63 64
        E 0 90 64 64
        E 0 90 65 67
        E 0 9d 51 64
        E 0 9d 69 64
        E 120 80 30 00
        E 0 80 31 00
        E 0 80 48 00
        E 0 80 49 00
        E 0 80 4a 00
        E 0 80 4b 00
        E 0 80 4c 00
        E 0 80 4d 00
        E 0 80 60 00
        E 0 80 61 00
        E 0 80 62 00
        E 0 80 63 00
        E 0 80 64 00
        E 0 80 65 00
        E 0 8d 51 00
        E 0 8d 69 00
        E 120 90 30 66
        E 0 90 31 66
        E 0 90 48 66
        E 0 90 49 66
        E 0 90 4a 64
        E 0 90 4b 64
        E 0 90 4c 64
        E 0 90 4d 67
        E 0 90 60 66
        E 0 90 61 66
        E 0 90 62 64
        E 0 90 63 64
        E 0 90 64 64
        E 0 90 65 67
        E 0 9f 51 64
        E 0 9f 69 64
        E 120 80 30 00
        E 0 80 31 00
        E 0 80 48 00
        E 0 80 49 00
        E 0 80 4a 00
        E 0 80 4b 00
        E 0 80 4c 00
        E 0 80 4d 00
        E 0 80 60 00
        E 0 80 61 00
        E 0 80 62 00
        E 0 80 63 00
        E 0 80 64 00
        E 0 80 65 00
        E 0 8f 51 00
        E 0 8f 69 00
        E 120 93 48 64
        E 0 93 49 66
        E 0 93 4a 66
        E 0 93 4b 64
        E 0 93 4c 64
        E 0 93 4d 64
        E 0 93 60 64
        E 0 93 61 66
        E 0 93 62 66
        E 0 93 63 64
        E 0 93 64 64
        E 0 93 65 64
        E 120 83 48 00
        E 0 83 49 00
        E 0 83 4a 00
        E 0 83 4b 00
        E 0 83 4c 00
        E 0 83 4d 00
        E 0 83 60 00
        E 0 83 61 00
        E 0 83 62 00
        E 0 83 63 00
        E 0 83 64 00
        E 0 83 65 00
        E 120 90 04 64
        E 0 90 19 66
        E 0 90 31 66
        E 0 90 32 66
        E 0 90 48 64
        E 0 90 49 66
        E 0 90 4a 66
        E 0 90 4b 64
        E 0 90 4c 64
        E 0 90 4d 64
        E 0 90 60 64
        E 0 90 61 66
        E 0 90 62 66
        E 0 90 63 64
        E 0 90 64 64
        E 0 90 65 64
        E 0 9f 51 64
        E 0 9f 69 64
        E 120 80 04 00
        E 0 80 19 00
        E 0 80 31 00
        E 0 80 32 00
        E 240 80 48 00
        E 0 80 49 00
        E 0 80 4a 00
        E 0 80 4b 00
        E 0 80 4c 00
        E 0 80 4d 00
        E 0 80 60 00
        E 0 80 61 00
        E 0 80 62 00
        E 0 80 63 00
        E 0 80 64 00
        E 0 80 65 00
        E 0 8f 51 00
        E 0 8f 69 00
        E 120 90 19 66
        E 0 90 31 66
        E 0 90 32 66
        E 0 90 48 64
        E 0 90 49 66
        E 0 90 4a 66
        E 0 90 4b 64
        E 0 90 4c 64
        E 0 90 4d 64
        E 0 90 60 64
        E 0 90 61 66
        E 0 90 62 66
        E 0 90 63 64
        E 0 90 64 64
        E 0 90 65 64
        E 0 9f 51 64
        E 0 9f 69 64
        E 120 80 19 00
        E 0 80 31 00
        E 0 80 32 00
        E 0 80 48 00
        E 0 80 49 00
        E 0 80 4a 00
        E 0 80 4b 00
        E 0 80 4c 00
        E 0 80 4d 00
        E 0 80 60 00
        E 0 80 61 00
        E 0 80 62 00
        E 0 80 63 00
        E 0 80 64 00
        E 0 80 65 00
        E 0 8f 51 00
        E 0 8f 69 00
        E 120 90 31 66
        E 0 90 32 66
        E 0 90 48 64
        E 0 90 49 66
        E 0 90 4a 66
        E 0 90 4b 64
        E 0 90 4c 64
        E 0 90 4d 64
        E 0 90 60 64
        E 0 90 61 66
        E 0 90 62 66
        E 0 90 63 64
        E 0 90 64 64
        E 0 90 65 64
        E 0 9d 51 64
        E 0 9d 69 64
        E 120 80 31 00
        E 0 80 32 00
        E 0 80 48 00
        E 0 80 49 00
        E 0 80 4a 00
        E 0 80 4b 00
        E 0 80 4c 00
        E 0 80 4d 00
        E 0 80 60 00
        E 0 80 61 00
        E 0 80 62 00
        E 0 80 63 00
        E 0 80 64 00
        E 0 80 65 00
        E 0 8d 51 00
        E 0 8d 69 00
        E 120 90 19 66
        E 0 90 31 66
        E 0 90 32 66
        E 0 90 48 64
        E 0 90 49 66
        E 0 90 4a 66
        E 0 90 4b 64
        E 0 90 4c 64
        E 0 90 4d 64
        E 0 90 60 64
        E 0 90 61 66
        E 0 90 62 66
        E 0 90 63 64
        E 0 90 64 64
        E 0 90 65 64
        E 0 9f 51 64
        E 0 9f 69 64
        E 120 80 19 00
        E 0 80 31 00
        E 0 80 32 00
        E 0 80 48 00
        E 0 80 49 00
        E 0 80 4a 00
        E 0 80 4b 00
        E 0 80 4c 00
        E 0 80 4d 00
        E 0 80 60 00
        E 0 80 61 00
        E 0 80 62 00
        E 0 80 63 00
        E 0 80 64 00
        E 0 80 65 00
        E 0 8f 51 00
        E 0 8f 69 00
        E 120 90 31 66
        E 0 90 32 66
        E 0 90 48 64
        E 0 90 49 66
        E 0 90 4a 66
        E 0 90 4b 64
        E 0 90 4c 64
        E 0 90 4d 64
        E 0 90 60 64
        E 0 90 61 66
        E 0 90 62 66
        E 0 90 63 64
        E 0 90 64 64
        E 0 90 65 64
        E 0 9d 51 64
        E 0 9d 69 64
        E 120 80 31 00
        E 0 80 32 00
        E 0 80 48 00
        E 0 80 49 00
        E 0 80 4a 00
        E 0 80 4b 00
        E 0 80 4c 00
        E 0 80 4d 00
        E 0 80 60 00
        E 0 80 61 00
        E 0 80 62 00
        E 0 80 63 00
        E 0 80 64 00
        E 0 80 65 00
        E 0 8d 51 00
        E 0 8d 69 00
        E 120 90 31 66
        E 0 90 32 66
        E 0 90 48 64
        E 0 90 49 66
        E 0 90 4a 66
        E 0 90 4b 64
        E 0 90 4c 64
        E 0 90 4d 64
        E 0 90 60 64
        E 0 90 61 66
        E 0 90 62 66
        E 0 90 63 64
        E 0 90 64 64
        E 0 90 65 64
        E 0 9f 51 64
        E 0 9f 69 64
        E 120 80 31 00
        E 0 80 32 00
        E 0 80 48 00
        E 0 80 49 00
        E 0 80 4a 00
        E 0 80 4b 00
        E 0 80 4c 00
        E 0 80 4d 00
        E 0 80 60 00
        E 0 80 61 00
        E 0 80 62 00
        E 0 80 63 00
        E 0 80 64 00
        E 0 80 65 00
        E 0 8f 51 00
        E 0 8f 69 00
        E 120 90 6c 65
        E 0 93 49 67
        E 0 93 4a 66
        E 0 93 4b 64
        E 0 93 4c 65
        E 0 93 4d 64
        E 0 93 61 67
        E 0 93 62 66
        E 0 93 63 64
        E 0 93 64 65
        E 0 93 65 64
        E 120 80 6c 00
        E 0 83 49 00
        E 0 83 4a 00
        E 0 83 4b 00
        E 0 83 4c 00
        E 0 83 4d 00
        E 0 83 61 00
        E 0 83 62 00
        E 0 83 63 00
        E 0 83 64 00
        E 0 83 65 00
        E 120 90 0c 64
        E 0 90 19 67
        E 0 90 31 67
        E 0 90 32 66
        E 0 90 49 67
        E 0 90 4a 66
        E 0 90 4b 64
        E 0 90 4c 65
        E 0 90 4d 64
        E 0 90 61 67
        E 0 90 62 66
        E 0 90 63 64
        E 0 90 64 65
        E 0 90 65 64
        E 0 90 74 60
        E 0 9f 51 64
        E 0 9f 69 64
        E 120 80 0c 00
        E 0 80 19 00
        E 0 80 31 00
        E 0 80 32 00
        E 240 80 49 00
        E 0 80 4a 00
        E 0 80 4b 00
        E 0 80 4c 00
        E 0 80 4d 00
        E 0 80 61 00
        E 0 80 62 00
        E 0 80 63 00
        E 0 80 64 00
        E 0 80 65 00
        E 0 8f 51 00
        E 0 8f 69 00
        E 120 90 31 67
        E 0 90 32 66
        E 0 90 49 67
        E 0 90 4a 66
        E 0 90 4b 64
        E 0 90 4c 65
        E 0 90 4d 64
        E 0 90 61 67
        E 0 90 62 66
        E 0 90 63 64
        E 0 90 64 65
        E 0 90 65 64
        E 0 9f 51 64
        E 0 9f 69 64
        E 120 80 31 00
        E 0 80 32 00
        E 0 80 49 00
        E 0 80 4a 00
        E 0 80 4b 00
        E 0 80 4c 00
        E 0 80 4d 00
        E 0 80 61 00
        E 0 80 62 00
        E 0 80 63 00
        E 0 80 64 00
        E 0 80 65 00
        E 0 8f 51 00
        E 0 8f 69 00
        E 120 93 49 67
        E 0 93 4a 66
        E 0 93 4b 64
        E 0 93 4c 65
        E 0 93 4d 64
        E 0 93 61 67
        E 0 93 62 66
        E 0 93 63 64
        E 0 93 64 65
        E 0 93 65 64
        E 120 83 49 00
        E 0 83 4a 00
        E 0 83 4b 00
        E 0 83 4c 00
        E 0 83 4d 00
        E 0 83 61 00
        E 0 83 62 00
        E 0 83 63 00
        E 0 83 64 00
        E 0 83 65 00
        E 120 90 0c 64
        E 0 90 10 64
        E 0 90 19 66
        E 0 90 31 66
        E 0 90 32 66
        E 0 90 49 66
        E 0 90 4a 66
        E 0 90 4b 64
        E 0 90 4c 65
        E 0 90 4d 64
        E 0 90 61 66
        E 0 90 62 66
        E 0 90 63 64
        E 0 90 64 65
        E 0 90 65 64
        E 0 9f 51 64
        E 0 9f 69 64
        E 120 80 0c 00
        E 0 80 10 00
        E 0 80 19 00
        E 0 80 31 00
        E 0 80 32 00
        E 0 80 61 00
        E 0 80 62 00
        E 0 80 63 00
        E 0 80 64 00
        E 0 80 65 00
        E 0 8f 51 00
        E 0 8f 69 00
        E 120 90 61 66
        E 0 90 62 66
        E 0 90 63 64
        E 0 90 64 65
        E 0 90 65 64
        E 0 9d 51 64
        E 0 9d 69 64
        E 120 80 49 00
        E 0 80 4a 00
        E 0 80 4b 00
        E 0 80 4c 00
        E 0 80 4d 00
        E 0 80 61 00
        E 0 80 62 00
        E 0 80 63 00
        E 0 80 64 00
        E 0 80 65 00
        E 0 8d 51 00
        E 0 8d 69 00
        E 120 90 31 66
        E 0 90 32 66
        E 0 90 49 66
        E 0 90 4a 66
        E 0 90 4b 64
        E 0 90 4c 65
        E 0 90 4d 64
        E 0 90 61 66
        E 0 90 62 66
        E 0 90 63 64
        E 0 90 64 65
        E 0 90 65 64
        E 0 9f 51 64
        E 0 9f 69 64
        E 120 80 31 00
        E 0 80 32 00
        E 0 80 49 00
        E 0 80 4a 00
        E 0 80 4b 00
        E 0 80 4c 00
        E 0 80 4d 00
        E 0 80 61 00
        E 0 80 62 00
        E 0 80 63 00
        E 0 80 64 00
        E 0 80 65 00
        E 0 8f 51 00
        E 0 8f 69 00
        E 120 93 49 66
        E 0 93 4a 66
        E 0 93 4b 64
        E 0 93 4c 65
        E 0 93 4d 64
        E 0 93 61 66
        E 0 93 62 66
        E 0 93 63 64
        E 0 93 64 65
        E 0 93 65 64
        E 120 83 49 00
        E 0 83 4a 00
        E 0 83 4b 00
        E 0 83 4c 00
        E 0 83 4d 00
        E 0 83 61 00
        E 0 83 62 00
        E 0 83 63 00
        E 0 83 64 00
        E 0 83 65 00
        E 120 80 74 00
        E 0 90 09 64
        E 0 90 1a 66
        E 0 90 32 66
        E 0 90 33 66
        E 0 90 49 64
        E 0 90 4a 66
        E 0 90 4b 66
        E 0 90 4c 65
        E 0 90 4d 64
        E 0 90 61 64
        E 0 90 62 66
        E 0 90 63 66
        E 0 90 64 65
        E 0 90 65 64
        E 0 9f 51 64
        E 0 9f 69 64
        E 120 80 09 00
        E 0 80 1a 00
        E 0 80 32 00
        E 0 80 33 00
        E 240 80 49 00
        E 0 80 4a 00
        E 0 80 4b 00
        E 0 80 4c 00
        E 0 80 4d 00
        E 0 80 61 00
        E 0 80 62 00
        E 0 80 63 00
        E 0 80 64 00
        E 0 80 65 00
        E 0 8f 51 00
        E 0 8f 69 00
        E 120 90 1a 66
        E 0 90 32 66
        E 0 90 33 66
        E 0 90 49 64
        E 0 90 4a 66
        E 0 90 4b 66
        E 0 90 4c 65
        E 0 90 4d 64
        E 0 90 61 64
        E 0 90 62 66
        E 0 90 63 66
        E 0 90 64 65
        E 0 90 65 64
        E 0 9f 51 64
        E 0 9f 69 64
        E 120 80 1a 00
        E 0 80 32 00
        E 0 80 33 00
        E 0 80 49 00
        E 0 80 4a 00
        E 0 80 4b 00
        E 0 80 4c 00
        E 0 80 4d 00
        E 0 80 61 00
        E 0 80 62 00
        E 0 80 63 00
        E 0 80 64 00
        E 0 80 65 00
        E 0 8f 51 00
        E 0 8f 69 00
        E 120 90 49 64
        E 0 90 4a 66
        E 0 90 4b 66
        E 0 90 4c 65
        E 0 90 4d 64
        E 0 90 61 64
        E 0 90 62 66
        E 0 90 63 66
        E 0 90 64 65
        E 0 90 65 64
        E 0 9d 51 64
        E 0 9d 69 64
        E 120 80 49 00
        E 0 80 4a 00
        E 0 80 4b 00
        E 0 80 4c 00
        E 0 80 4d 00
        E 0 80 61 00
        E 0 80 62 00
        E 0 80 63 00
        E 0 80 64 00
        E 0 80 65 00
        E 0 8d 51 00
        E 0 8d 69 00
        E 120 90 1a 66
        E 0 90 32 66
        E 0 90 33 66
        E 0 90 49 64
        E 0 90 4a 66
        E 0 90 4b 66
        E 0 90 4c 65
        E 0 90 4d 64
        E 0 90 61 64
        E 0 90 62 66
        E 0 90 63 66
        E 0 90 64 65
        E 0 90 65 64
        E 0 9f 51 64
        E 0 9f 69 64
        E 120 80 1a 00
        E 0 80 32 00
        E 0 80 33 00
        E 0 80 49 00
        E 0 80 4a 00
        E 0 80 4b 00
        E 0 80 4c 00
        E 0 80 4d 00
        E 0 80 61 00
        E 0 80 62 00
        E 0 80 63 00
        E 0 80 64 00
        E 0 80 65 00
        E 0 8f 51 00
        E 0 8f 69 00
        E 120 90 49 64
        E 0 90 4a 66
        E 0 90 4b 66
        E 0 90 4c 64
        E 0 90 4d 64
        E 0 90 61 64
        E 0 90 62 66
        E 0 90 63 66
        E 0 90 64 64
        E 0 90 65 64
        E 0 9d 51 64
        E 0 9d 69 64
        E 120 80 49 00
        E 0 80 4a 00
        E 0 80 4b 00
        E 0 80 4c 00
        E 0 80 4d 00
        E 0 80 61 00
        E 0 80 62 00
        E 0 80 63 00
        E 0 80 64 00
        E 0 80 65 00
        E 0 8d 51 00
        E 0 8d 69 00
        E 120 90 1a 66
        E 0 90 32 66
        E 0 90 33 66
        E 0 90 49 64
        E 0 90 4a 66
        E 0 90 4b 66
        E 0 90 4c 64
        E 0 90 4d 64
        E 0 90 61 64
        E 0 90 62 66
        E 0 90 63 66
        E 0 90 64 64
        E 0 90 65 64
        E 0 9f 51 64
        E 0 9f 69 64
        E 120 80 1a 00
        E 0 80 32 00
        E 0 80 33 00
        E 0 80 49 00
        E 0 80 4a 00
        E 0 80 4b 00
        E 0 80 4c 00
        E 0 80 4d 00
        E 0 80 61 00
        E 0 80 62 00
        E 0 80 63 00
        E 0 80 64 00
        E 0 80 65 00
        E 0 8f 51 00
        E 0 8f 69 00
        E 120 90 6c 66
        E 0 93 48 67
        E 0 93 49 66
        E 0 93 4a 64
        E 0 93 4b 64
        E 0 93 4c 64
        E 0 93 4d 67
        E 0 93 60 67
        E 0 93 61 66
        E 0 93 62 64
        E 0 93 63 64
        E 0 93 64 64
        E 0 93 65 67
        E 120 80 6c 00
        E 0 83 48 00
        E 0 83 49 00
        E 0 83 4a 00
        E 0 83 4b 00
        E 0 83 4c 00
        E 0 83 4d 00
        E 0 83 60 00
        E 0 83 61 00
        E 0 83 62 00
        E 0 83 63 00
        E 0 83 64 00
        E 0 83 65 00
        E 120 90 07 64
        E 0 90 18 67
        E 0 90 30 67
        E 0 90 31 66
        E 0 90 48 67
        E 0 90 49 66
        E 0 90 4a 64
        E 0 90 4b 64
        E 0 90 4c 64
        E 0 90 4d 67
        E 0 90 60 67
        E 0 90 61 66
        E 0 90 62 64
        E 0 90 63 64
        E 0 90 64 64
        E 0 90 65 67
        E 0 9f 51 64
        E 0 9f 69 64
        E 120 80 07 00
        E 0 80 18 00
        E 0 80 30 00
        E 0 80 31 00
        E 240 80 48 00
        E 0 80 49 00
        E 0 80 4a 00
        E 0 80 4b 00
        E 0 80 4c 00
        E 0 80 4d 00
        E 0 80 60 00
        E 0 80 61 00
        E 0 80 62 00
        E 0 80 63 00
        E 0 80 64 00
        E 0 80 65 00
        E 0 8f 51 00
        E 0 8f 69 00
        E 120 90 30 67
        E 0 90 31 66
        E 0 90 48 67
        E 0 90 49 66
        E 0 90 4a 64
        E 0 90 4b 64
        E 0 90 4c 64
        E 0 90 4d 67
        E 0 90 60 67
        E 0 90 61 66
        E 0 90 62 64
        E 0 90 63 64
        E 0 90 64 64
        E 0 90 65 67
        E 0 9f 51 64
        E 0 9f 69 64
        E 120 80 30 00
        E 0 80 31 00
        E 0 80 48 00
        E 0 80 49 00
        E 0 80 4a 00
        E 0 80 4b 00
        E 0 80 4c 00
        E 0 80 4d 00
        E 0 80 60 00
        E 0 80 61 00
        E 0 80 62 00
        E 0 80 63 00
        E 0 80 64 00
        E 0 80 65 00
        E 0 8f 51 00
        E 0 8f 69 00
        E 120 93 48 66
        E 0 93 49 66
        E 0 93 4a 64
        E 0 93 4b 64
        E 0 93 4c 64
        E 0 93 4d 67
        E 0 93 60 66
        E 0 93 61 66
        E 0 93 62 64
        E 0 93 63 64
        E 0 93 64 64
        E 0 93 65 67
        E 120 83 48 00
        E 0 83 49 00
        E 0 83 4a 00
        E 0 83 4b 00
        E 0 83 4c 00
        E 0 83 4d 00
        E 0 83 60 00
        E 0 83 61 00
        E 0 83 62 00
        E 0 83 63 00
        E 0 83 64 00
        E 0 83 65 00
        E 120 90 07 64
        E 0 90 10 64
        E 0 90 18 66
        E 0 90 30 66
        E 0 90 31 66
        E 0 90 48 66
        E 0 90 49 66
        E 0 90 4a 64
        E 0 90 4b 64
        E 0 90 4c 64
        E 0 90 4d 67
        E 0 90 60 66
        E 0 90 61 66
        E 0 90 62 64
        E 0 90 63 64
        E 0 90 64 64
        E 0 90 65 67
        E 0 9f 51 64
        E 0 9f 69 64
        E 120 80 07 00
        E 0 80 10 00
        E 0 80 18 00
        E 0 80 30 00
        E 0 80 31 00
        E 0 80 48 00
        E 0 80 49 00
        E 0 80 4a 00
        E 0 80 4b 00
        E 0 80 4c 00
        E 0 80 4d 00
        E 0 80 60 00
        E 0 80 61 00
        E 0 80 62 00
        E 0 80 63 00
        E 0 80 64 00
        E 0 80 65 00
        E 0 8f 51 00
        E 0 8f 69 00
        E 120 90 30 66
        E 0 90 31 66
        E 0 90 48 66
        E 0 90 49 66
        E 0 90 4a 64
        E 0 90 4b 64
        E 0 90 4c 64
        E 0 90 4d 67
        E 0 90 60 66
        E 0 90 61 66
        E 0 90 62 64
        E 0 90 63 64
        E 0 90 64 64
        E 0 90 65 67
        E 0 9d 51 64
        E 0 9d 69 64
        E 120 80 30 00
        E 0 80 31 00
        E 0 80 48 00
        E 0 80 49 00
        E 0 80 4a 00
        E 0 80 4b 00
        E 0 80 4c 00
        E 0 80 4d 00
        E 0 80 60 00
        E 0 80 61 00
        E 0 80 62 00
        E 0 80 63 00
        E 0 80 64 00
        E 0 80 65 00
        E 0 8d 51 00
        E 0 8d 69 00
        E 120 90 30 66
        E 0 90 31 66
        E 0 90 48 66
        E 0 90 49 66
        E 0 90 4a 64
        E 0 90 4b 64
        E 0 90 4c 64
        E 0 90 4d 67
        E 0 90 60 66
        E 0 90 61 66
        E 0 90 62 64
        E 0 90 63 64
        E 0 90 64 64
        E 0 90 65 67
        E 0 9f 51 64
        E 0 9f 69 64
        E 120 80 30 00
        E 0 80 31 00
        E 0 80 48 00
        E 0 80 49 00
        E 0 80 4a 00
        E 0 80 4b 00
        E 0 80 4c 00
        E 0 80 4d 00
        E 0 80 60 00
        E 0 80 61 00
        E 0 80 62 00
        E 0 80 63 00
        E 0 80 64 00
        E 0 80 65 00
        E 0 8f 51 00
        E 0 8f 69 00
        E 120 93 48 64
        E 0 93 49 66
        E 0 93 4a 66
        E 0 93 4b 64
        E 0 93 4c 64
        E 0 93 4d 64
        E 0 93 60 64
        E 0 93 61 66
        E 0 93 62 66
        E 0 93 63 64
        E 0 93 64 64
        E 0 93 65 64
        E 120 83 48 00
        E 0 83 49 00
        E 0 83 4a 00
        E 0 83 4b 00
        E 0 83 4c 00
        E 0 83 4d 00
        E 0 83 60 00
        E 0 83 61 00
        E 0 83 62 00
        E 0 83 63 00
        E 0 83 64 00
        E 0 83 65 00
        E 120 90 04 64
        E 0 90 19 66
        E 0 90 31 66
        E 0 90 32 66
        E 0 90 48 64
        E 0 90 49 66
        E 0 90 4a 66
        E 0 90 4b 64
        E 0 90 4c 64
        E 0 90 4d 64
        E 0 90 60 64
        E 0 90 61 66
        E 0 90 62 66
        E 0 90 63 64
        E 0 90 64 64
        E 0 90 65 64
        E 0 9f 51 64
        E 0 9f 69 64
        E 120 80 04 00
        E 0 80 19 00
        E 0 80 31 00
        E 0 80 32 00
        E 240 80 48 00
        E 0 80 49 00
        E 0 80 4a 00
        E 0 80 4b 00
        E 0 80 4c 00
        E 0 80 4d 00
        E 0 80 60 00
        E 0 80 61 00
        E 0 80 62 00
        E 0 80 63 00
        E 0 80 64 00
        E 0 80 65 00
        E 0 8f 51 00
        E 0 8f 69 00
        E 120 90 19 66
        E 0 90 31 66
        E 0 90 32 66
        E 0 90 48 64
        E 0 90 49 66
        E 0 90 4a 66
        E 0 90 4b 64
        E 0 90 4c 64
        E 0 90 4d 64
        E 0 90 60 64 -1
        E 0 90 61 66 -1
        E 0 90 62 66 -1
        E 0 90 63 64 -1
        E 0 90 64 64 -1
        E 0 90 65 64 -1
        E 0 9f 51 64
        E 0 9f 69 64
        E 120 80 19 00
        E 0 80 31 00
        E 0 80 32 00
        E 0 80 48 00
        E 0 80 49 00
        E 0 80 4a 00
        E 0 80 4b 00
        E 0 80 4c 00
        E 0 80 4d 00
        E 0 80 60 00 -1
        E 0 80 61 00 -1
        E 0 80 62 00 -1
        E 0 80 63 00 -1
        E 0 80 64 00 -1
        E 0 80 65 00 -1
        E 0 8f 51 00
        E 0 8f 69 00
        E 120 90 31 66
        E 0 90 32 66
        E 0 90 48 64
        E 0 90 49 66
        E 0 90 4a 66
        E 0 90 4b 64
        E 0 90 4c 64
        E 0 90 4d 64
        E 0 90 60 64
        E 0 90 61 66
        E 0 90 62 66
        E 0 90 63 64
        E 0 90 64 64
        E 0 90 65 64
        E 0 9d 51 64
        E 0 9d 69 64
        E 120 80 31 00
        E 0 80 32 00
        E 0 80 48 00
        E 0 80 49 00
        E 0 80 4a 00
        E 0 80 4b 00
        E 0 80 4c 00
        E 0 80 4d 00
        E 0 80 60 00
        E 0 80 61 00
        E 0 80 62 00
        E 0 80 63 00
        E 0 80 64 00
        E 0 80 65 00
        E 0 8d 51 00
        E 0 8d 69 00
        E 120 90 19 66
        E 0 90 31 66
        E 0 90 32 66
        E 0 90 48 64
        E 0 90 49 66
        E 0 90 4a 66
        E 0 90 4b 64
        E 0 90 4c 64
        E 0 90 4d 64
        E 0 90 60 64
        E 0 90 61 66
        E 0 90 62 66
        E 0 90 63 64
        E 0 90 64 64
        E 0 90 65 64
        E 0 9f 51 64
        E 0 9f 69 64
        E 120 80 19 00
        E 0 80 31 00
        E 0 80 32 00
        E 0 80 48 00
        E 0 80 49 00
        E 0 80 4a 00
        E 0 80 4b 00
        E 0 80 4c 00
        E 0 80 4d 00
        E 0 80 60 00
        E 0 80 61 00
        E 0 80 62 00
        E 0 80 63 00
        E 0 80 64 00
        E 0 80 65 00
        E 0 8f 51 00
        E 0 8f 69 00
        E 120 90 31 66
        E 0 90 32 66
        E 0 90 48 64
        E 0 90 49 66
        E 0 90 4a 66
        E 0 90 4b 64
        E 0 90 4c 64
        E 0 90 4d 64
        E 0 90 60 64
        E 0 90 61 66
        E 0 90 62 66
        E 0 90 63 64
        E 0 90 64 64
        E 0 90 65 64
        E 0 9d 51 64
        E 0 9d 69 64
        E 120 80 31 00
        E 0 80 32 00
        E 0 80 48 00
        E 0 80 49 00
        E 0 80 4a 00
        E 0 80 4b 00
        E 0 80 4c 00
        E 0 80 4d 00
        E 0 80 60 00
        E 0 80 61 00
        E 0 80 62 00
        E 0 80 63 00
        E 0 80 64 00
        E 0 80 65 00
        E 0 8d 51 00
        E 0 8d 69 00
        E 120 90 31 66
        E 0 90 32 66
        E 0 90 48 64
        E 0 90 49 66
        E 0 90 4a 66
        E 0 90 4b 64
        E 0 90 4c 64
        E 0 90 4d 64
        E 0 90 60 64
        E 0 90 61 66
        E 0 90 62 66
        E 0 90 63 64
        E 0 90 64 64
        E 0 90 65 64
        E 0 9f 51 64
        E 0 9f 69 64
        E 120 80 31 00
        E 0 80 32 00
        E 0 80 48 00
        E 0 80 49 00
        E 0 80 4a 00
        E 0 80 4b 00
        E 0 80 4c 00
        E 0 80 4d 00
        E 0 80 60 00
        E 0 80 61 00
        E 0 80 62 00
        E 0 80 63 00
        E 0 80 64 00
        E 0 80 65 00
        E 0 8f 51 00
        E 0 8f 69 00
        E 120 90 6c 65
        E 0 93 49 67
        E 0 93 4a 66
        E 0 93 4b 64
        E 0 93 4c 65
        E 0 93 4d 64
        E 0 93 61 67
        E 0 93 62 66
        E 0 93 63 64
        E 0 93 64 65
        E 0 93 65 64
        E 120 80 6c 00
        E 0 83 49 00
        E 0 83 4a 00
        E 0 83 4b 00
        E 0 83 4c 00
        E 0 83 4d 00
        E 0 83 61 00
        E 0 83 62 00
        E 0 83 63 00
        E 0 83 64 00
        E 0 83 65 00
        E 120 90 0c 64
        E 0 90 31 67
        E 0 90 32 66
        E 0 90 49 67
        E 0 90 4a 66
        E 0 90 4b 64
        E 0 90 4c 65
        E 0 90 4d 64
        E 0 90 61 67
        E 0 90 62 66
        E 0 90 63 64
        E 0 90 64 65
        E 0 90 65 64
        E 0 9f 51 64
        E 0 9f 69 64
        E 120 80 0c 00
        E 0 80 31 00
        E 0 80 32 00
        E 240 80 49 00
        E 0 80 4a 00
        E 0 80 4b 00
        E 0 80 4c 00
        E 0 80 4d 00
        E 0 80 61 00
        E 0 80 62 00
        E 0 80 63 00
        E 0 80 64 00
        E 0 80 65 00
        E 0 8f 51 00
        E 0 8f 69 00
        E 120 90 31 67
        E 0 90 32 66
        E 0 90 49 67
        E 0 90 4a 66
        E 0 90 4b 64
        E 0 90 4c 65
        E 0 90 4d 64
        E 0 90 61 67
        E 0 90 62 66
        E 0 90 63 64
        E 0 90 64 65
        E 0 90 65 64
        E 0 9f 51 64
        E 0 9f 69 64
        E 120 80 31 00
        E 0 80 32 00
        E 0 80 49 00
        E 0 80 4a 00
        E 0 80 4b 00
        E 0 80 4c 00
        E 0 80 4d 00
        E 0 80 61 00
        E 0 80 62 00
        E 0 80 63 00
        E 0 80 64 00
        E 0 80 65 00
        E 0 8f 51 00
        E 0 8f 69 00
        E 120 93 49 67
        E 0 93 4a 66
        E 0 93 4b 64
        E 0 93 4c 65
        E 0 93 4d 64
        E 0 93 61 67
        E 0 93 62 66
        E 0 93 63 64
        E 0 93 64 65
        E 0 93 65 64
        E 120 83 49 00
        E 0 83 4a 00
        E 0 83 4b 00
        E 0 83 4c 00
        E 0 83 4d 00
        E 0 83 61 00
        E 0 83 62 00
        E 0 83 63 00
        E 0 83 64 00
        E 0 83 65 00
        E 120 90 0c 64
        E 0 90 10 64
        E 0 90 31 66
        E 0 90 32 66
        E 0 90 49 66
        E 0 90 4a 66
        E 0 90 4b 64
        E 0 90 4c 65
        E 0 90 4d 64
        E 0 90 61 66
        E 0 90 62 66
        E 0 90 63 64
        E 0 90 64 65
        E 0 90 65 64
        E 0 9f 51 64
        E 0 9f 69 64
        E 120 80 0c 00
        E 0 80 10 00
        E 0 80 31 00
        E 0 80 32 00
        E 0 80 61 00
        E 0 80 62 00
        E 0 80 63 00
        E 0 80 64 00
        E 0 80 65 00
        E 0 8f 51 00
        E 0 8f 69 00
        E 120 90 61 66
        E 0 90 62 66
        E 0 90 63 64
        E 0 90 64 65
        E 0 90 65 64
        E 0 9d 51 64
        E 0 9d 69 64
        E 120 80 49 00
        E 0 80 4a 00
        E 0 80 4b 00
        E 0 80 4c 00
        E 0 80 4d 00
        E 0 80 61 00
        E 0 80 62 00
        E 0 80 63 00
        E 0 80 64 00
        E 0 80 65 00
        E 0 8d 51 00
        E 0 8d 69 00
        E 120 90 31 66
        E 0 90 32 66
        E 0 90 49 66
        E 0 90 4a 66
        E 0 90 4b 64
        E 0 90 4c 65
        E 0 90 4d 64
        E 0 90 61 66
        E 0 90 62 66
        E 0 90 63 64
        E 0 90 64 65
        E 0 90 65 64
        E 0 9f 51 64
        E 0 9f 69 64
        E 120 80 31 00
        E 0 80 32 00
        E 0 80 49 00
        E 0 80 4a 00
        E 0 80 4b 00
        E 0 80 4c 00
        E 0 80 4d 00
        E 0 80 61 00
        E 0 80 62 00
        E 0 80 63 00
        E 0 80 64 00
        E 0 80 65 00
        E 0 8f 51 00
        E 0 8f 69 00
        E 120 93 49 66
        E 0 93 4a 66
        E 0 93 4b 64
        E 0 93 4c 65
        E 0 93 4d 64
        E 0 93 61 66
        E 0 93 62 66
        E 0 93 63 64
        E 0 93 64 65
        E 0 93 65 64
        E 120 83 49 00
        E 0 83 4a 00
        E 0 83 4b 00
        E 0 83 4c 00
        E 0 83 4d 00
        E 0 83 61 00
        E 0 83 62 00
        E 0 83 63 00
        E 0 83 64 00
        E 0 83 65 00
        E 120 90 09 64
        E 0 90 1a 66
        E 0 90 32 66
        E 0 90 33 66
        E 0 90 49 64
        E 0 90 4a 66
        E 0 90 4b 66
        E 0 90 4c 65
        E 0 90 4d 64
        E 0 90 61 64
        E 0 90 62 66
        E 0 90 63 66
        E 0 90 64 65
        E 0 90 65 64
        E 0 9f 51 64
        E 0 9f 69 64
        E 120 80 09 00
        E 0 80 1a 00
        E 0 80 32 00
        E 0 80 33 00
        E 240 80 49 00
        E 0 80 4a 00
        E 0 80 4b 00
        E 0 80 4c 00
        E 0 80 4d 00
        E 0 80 61 00
        E 0 80 62 00
        E 0 80 63 00
        E 0 80 64 00
        E 0 80 65 00
        E 0 8f 51 00
        E 0 8f 69 00
        E 120 90 1a 66
        E 0 90 32 66
        E 0 90 33 66
        E 0 90 49 64
        E 0 90 4a 66
        E 0 90 4b 66
        E 0 90 4c 65
        E 0 90 4d 64
        E 0 90 61 64
        E 0 90 62 66
        E 0 90 63 66
        E 0 90 64 65
        E 0 90 65 64
        E 0 9f 51 64
        E 0 9f 69 64
        E 120 80 1a 00
        E 0 80 32 00
        E 0 80 33 00
        E 0 80 49 00
        E 0 80 4a 00
        E 0 80 4b 00
        E 0 80 4c 00
        E 0 80 4d 00
        E 0 80 61 00
        E 0 80 62 00
        E 0 80 63 00
        E 0 80 64 00
        E 0 80 65 00
        E 0 8f 51 00
        E 0 8f 69 00
        E 120 90 49 64
        E 0 90 4a 66
        E 0 90 4b 66
        E 0 90 4c 65
        E 0 90 4d 64
        E 0 90 61 64
        E 0 90 62 66
        E 0 90 63 66
        E 0 90 64 65
        E 0 90 65 64
        E 0 9d 51 64
        E 0 9d 69 64
        E 120 80 49 00
        E 0 80 4a 00
        E 0 80 4b 00
        E 0 80 4c 00
        E 0 80 4d 00
        E 0 80 61 00
        E 0 80 62 00
        E 0 80 63 00
        E 0 80 64 00
        E 0 80 65 00
        E 0 8d 51 00
        E 0 8d 69 00
        E 120 90 1a 66
        E 0 90 32 66
        E 0 90 33 66
        E 0 90 49 64
        E 0 90 4a 66
        E 0 90 4b 66
        E 0 90 4c 65
        E 0 90 4d 64
        E 0 90 61 64
        E 0 90 62 66
        E 0 90 63 66
        E 0 90 64 65
        E 0 90 65 64
        E 0 9f 51 64
        E 0 9f 69 64
        E 120 80 1a 00
        E 0 80 32 00
        E 0 80 33 00
        E 0 80 49 00
        E 0 80 4a 00
        E 0 80 4b 00
        E 0 80 4c 00
        E 0 80 4d 00
        E 0 80 61 00
        E 0 80 62 00
        E 0 80 63 00
        E 0 80 64 00
        E 0 80 65 00
        E 0 8f 51 00
        E 0 8f 69 00
        E 120 90 49 64
        E 0 90 4a 66
        E 0 90 4b 66
        E 0 90 4c 64
        E 0 90 4d 64
        E 0 90 61 64
        E 0 90 62 66
        E 0 90 63 66
        E 0 90 64 64
        E 0 90 65 64
        E 0 9d 51 64
        E 0 9d 69 64
        E 120 80 49 00
        E 0 80 4a 00
        E 0 80 4b 00
        E 0 80 4c 00
        E 0 80 4d 00
        E 0 80 61 00
        E 0 80 62 00
        E 0 80 63 00
        E 0 80 64 00
        E 0 80 65 00
        E 0 8d 51 00
        E 0 8d 69 00
        E 120 90 1a 66
        E 0 90 32 66
        E 0 90 33 66
        E 0 90 49 64
        E 0 90 4a 66
        E 0 90 4b 66
        E 0 90 4c 64
        E 0 90 4d 64
        E 0 90 61 64
        E 0 90 62 66
        E 0 90 63 66
        E 0 90 64 64
        E 0 90 65 64
        E 0 9f 51 64
        E 0 9f 69 64
        E 120 80 1a 00
        E 0 80 32 00
        E 0 80 33 00
        E 0 80 49 00
        E 0 80 4a 00
        E 0 80 4b 00
        E 0 80 4c 00
        E 0 80 4d 00
        E 0 80 61 00
        E 0 80 62 00
        E 0 80 63 00
        E 0 80 64 00
        E 0 80 65 00
        E 0 8f 51 00
        E 0 8f 69 00
        E 120 90 6c 66
        E 0 93 48 67
        E 0 93 49 66
        E 0 93 4a 64
        E 0 93 4b 64
        E 0 93 4c 64
        E 0 93 4d 67
        E 0 93 60 67
        E 0 93 61 66
        E 0 93 62 64
        E 0 93 63 64
        E 0 93 64 64
        E 0 93 65 67
        E 0 9d 51 64
        E 0 9d 69 64
        E 120 80 6c 00
        E 0 83 48 00
        E 0 83 49 00
        E 0 83 4a 00
        E 0 83 4b 00
        E 0 83 4c 00
        E 0 83 4d 00
        E 0 83 60 00
        E 0 83 61 00
        E 0 83 62 00
        E 0 83 63 00
        E 0 83 64 00
        E 0 83 65 00
        E 0 8d 51 00
        E 0 8d 69 00
        E 120 90 07 64
        E 0 90 18 67
        E 0 90 30 67
        E 0 90 31 66
        E 0 90 48 67
        E 0 90 49 66
        E 0 90 4a 64
        E 0 90 4b 64
        E 0 90 4c 64
        E 0 90 4d 67
        E 0 90 60 67
        E 0 90 61 66
        E 0 90 62 64
        E 0 90 63 64
        E 0 90 64 64
        E 0 90 65 67
        E 0 9f 51 64
        E 0 9f 69 64
        E 120 80 07 00
        E 0 80 18 00
        E 0 80 30 00
        E 0 80 31 00
        E 240 80 48 00
        E 0 80 49 00
        E 0 80 4a 00
        E 0 80 4b 00
        E 0 80 4c 00
        E 0 80 4d 00
        E 0 80 60 00
        E 0 80 61 00
        E 0 80 62 00
        E 0 80 63 00
        E 0 80 64 00
        E 0 80 65 00
        E 0 8f 51 00
        E 0 8f 69 00
        E 120 90 30 67
        E 0 90 31 66
        E 0 90 48 67
        E 0 90 49 66
        E 0 90 4a 64
        E 0 90 4b 64
        E 0 90 4c 64
        E 0 90 4d 67
        E 0 90 60 67
        E 0 90 61 66
        E 0 90 62 64
        E 0 90 63 64
        E 0 90 64 64
        E 0 90 65 67
        E 0 9f 51 64
        E 0 9f 69 64
        E 120 80 30 00
        E 0 80 31 00
        E 0 80 48 00
        E 0 80 49 00
        E 0 80 4a 00
        E 0 80 4b 00
        E 0 80 4c 00
        E 0 80 4d 00
        E 0 80 60 00
        E 0 80 61 00
        E 0 80 62 00
        E 0 80 63 00
        E 0 80 64 00
        E 0 80 65 00
        E 0 8f 51 00
        E 0 8f 69 00
        E 120 93 48 66
        E 0 93 49 66
        E 0 93 4a 64
        E 0 93 4b 64
        E 0 93 4c 64
        E 0 93 4d 67
        E 0 93 60 66
        E 0 93 61 66
        E 0 93 62 64
        E 0 93 63 64
        E 0 93 64 64
        E 0 93 65 67
        E 120 83 48 00
        E 0 83 49 00
        E 0 83 4a 00
        E 0 83 4b 00
        E 0 83 4c 00
        E 0 83 4d 00
        E 0 83 60 00
        E 0 83 61 00
        E 0 83 62 00
        E 0 83 63 00
        E 0 83 64 00
        E 0 83 65 00
        E 120 90 07 64
        E 0 90 10 64
        E 0 90 18 66
        E 0 90 30 66
        E 0 90 31 66
        E 0 90 48 66
        E 0 90 49 66
        E 0 90 4a 64
        E 0 90 4b 64
        E 0 90 4c 64
        E 0 90 4d 67
        E 0 90 60 66
        E 0 90 61 66
        E 0 90 62 64
        E 0 90 63 64
        E 0 90 64 64
        E 0 90 65 67
        E 0 9f 51 64
        E 0 9f 69 64
        E 120 80 07 00
        E 0 80 10 00
        E 0 80 18 00
        E 0 80 30 00
        E 0 80 31 00
        E 0 80 48 00
        E 0 80 49 00
        E 0 80 4a 00
        E 0 80 4b 00
        E 0 80 4c 00
        E 0 80 4d 00
        E 0 80 60 00
        E 0 80 61 00
        E 0 80 62 00
        E 0 80 63 00
        E 0 80 64 00
        E 0 80 65 00
        E 0 8f 51 00
        E 0 8f 69 00
        E 120 90 30 66
        E 0 90 31 66
        E 0 90 48 66
        E 0 90 49 66
        E 0 90 4a 64
        E 0 90 4b 64
        E 0 90 4c 64
        E 0 90 4d 67
        E 0 90 60 66
        E 0 90 61 66
        E 0 90 62 64
        E 0 90 63 64
        E 0 90 64 64
        E 0 90 65 67
        E 0 9d 51 64
        E 0 9d 69 64
        E 120 80 30 00
        E 0 80 31 00
        E 0 80 48 00
        E 0 80 49 00
        E 0 80 4a 00
        E 0 80 4b 00
        E 0 80 4c 00
        E 0 80 4d 00
        E 0 80 60 00
        E 0 80 61 00
        E 0 80 62 00
        E 0 80 63 00
        E 0 80 64 00
        E 0 80 65 00
        E 0 8d 51 00
        E 0 8d 69 00
        E 120 90 30 66
        E 0 90 31 66
        E 0 90 48 66
        E 0 90 49 66
        E 0 90 4a 64
        E 0 90 4b 64
        E 0 90 4c 64
        E 0 90 4d 67
        E 0 90 60 66
        E 0 90 61 66
        E 0 90 62 64
        E 0 90 63 64
        E 0 90 64 64
        E 0 90 65 67
        E 0 9f 51 64
        E 0 9f 69 64
        E 120 80 30 00
        E 0 80 31 00
        E 0 80 48 00
        E 0 80 49 00
        E 0 80 4a 00
        E 0 80 4b 00
        E 0 80 4c 00
        E 0 80 4d 00
        E 0 80 60 00
        E 0 80 61 00
        E 0 80 62 00
        E 0 80 63 00
        E 0 80 64 00
        E 0 80 65 00
        E 0 8f 51 00
        E 0 8f 69 00
        E 120 93 48 64
        E 0 93 49 66
        E 0 93 4a 66
        E 0 93 4b 64
        E 0 93 4c 64
        E 0 93 4d 64
        E 0 93 60 64
        E 0 93 61 66
        E 0 93 62 66
        E 0 93 63 64
        E 0 93 64 64
        E 0 93 65 64
        E 120 83 48 00
        E 0 83 49 00
        E 0 83 4a 00
        E 0 83 4b 00
        E 0 83 4c 00
        E 0 83 4d 00
        E 0 83 60 00
        E 0 83 61 00
        E 0 83 62 00
        E 0 83 63 00
        E 0 83 64 00
        E 0 83 65 00
        E 120 90 04 64
        E 0 90 19 66
        E 0 90 31 66
        E 0 90 32 66
        E 0 90 48 64
        E 0 90 49 66
        E 0 90 4a 66
        E 0 90 4b 64
        E 0 90 4c 64
        E 0 90 4d 64
        E 0 90 60 64
        E 0 90 61 66
        E 0 90 62 66
        E 0 90 63 64
        E 0 90 64 64
        E 0 90 65 64
        E 0 9f 51 64
        E 0 9f 69 64
        E 120 80 04 00
        E 0 80 19 00
        E 0 80 31 00
        E 0 80 32 00
        E 240 80 48 00
        E 0 80 49 00
        E 0 80 4a 00
        E 0 80 4b 00
        E 0 80 4c 00
        E 0 80 4d 00
        E 0 80 60 00
        E 0 80 61 00
        E 0 80 62 00
        E 0 80 63 00
        E 0 80 64 00
        E 0 80 65 00
        E 0 8f 51 00
        E 0 8f 69 00
        E 120 90 19 66
        E 0 90 31 66
        E 0 90 32 66
        E 0 90 48 64
        E 0 90 49 66
        E 0 90 4a 66
        E 0 90 4b 64
        E 0 90 4c 64
        E 0 90 4d 64
        E 0 90 60 64 -1
        E 0 90 61 66 -1
        E 0 90 62 66 -1
        E 0 90 63 64 -1
        E 0 90 64 64 -1
        E 0 90 65 64 -1
        E 0 9f 51 64
        E 0 9f 69 64
        E 120 80 19 00
        E 0 80 31 00
        E 0 80 32 00
        E 0 80 48 00
        E 0 80 49 00
        E 0 80 4a 00
        E 0 80 4b 00
        E 0 80 4c 00
        E 0 80 4d 00
        E 0 80 60 00 -1
        E 0 80 61 00 -1
        E 0 80 62 00 -1
        E 0 80 63 00 -1
        E 0 80 64 00 -1
        E 0 80 65 00 -1
        E 0 8f 51 00
        E 0 8f 69 00
        E 120 90 31 66
        E 0 90 32 66
        E 0 90 48 64
        E 0 90 49 66
        E 0 90 4a 66
        E 0 90 4b 64
        E 0 90 4c 64
        E 0 90 4d 64
        E 0 90 60 64
        E 0 90 61 66
        E 0 90 62 66
        E 0 90 63 64
        E 0 90 64 64
        E 0 90 65 64
        E 0 9d 51 64
        E 0 9d 69 64
        E 120 80 31 00
        E 0 80 32 00
        E 0 80 48 00
        E 0 80 49 00
        E 0 80 4a 00
        E 0 80 4b 00
        E 0 80 4c 00
        E 0 80 4d 00
        E 0 80 60 00
        E 0 80 61 00
        E 0 80 62 00
        E 0 80 63 00
        E 0 80 64 00
        E 0 80 65 00
        E 0 8d 51 00
        E 0 8d 69 00
        E 120 90 19 66
        E 0 90 31 66
        E 0 90 32 66
        E 0 90 48 64
        E 0 90 49 66
        E 0 90 4a 66
        E 0 90 4b 64
        E 0 90 4c 64
        E 0 90 4d 64
        E 0 90 60 64
        E 0 90 61 66
        E 0 90 62 66
        E 0 90 63 64
        E 0 90 64 64
        E 0 90 65 64
        E 0 9f 51 64
        E 0 9f 69 64
        E 120 80 19 00
        E 0 80 31 00
        E 0 80 32 00
        E 0 80 48 00
        E 0 80 49 00
        E 0 80 4a 00
        E 0 80 4b 00
        E 0 80 4c 00
        E 0 80 4d 00
        E 0 80 60 00
        E 0 80 61 00
        E 0 80 62 00
        E 0 80 63 00
        E 0 80 64 00
        E 0 80 65 00
        E 0 8f 51 00
        E 0 8f 69 00
        E 120 90 31 66
        E 0 90 32 66
        E 0 90 48 64
        E 0 90 49 66
        E 0 90 4a 66
        E 0 90 4b 64
        E 0 90 4c 64
        E 0 90 4d 64
        E 0 90 60 64
        E 0 90 61 66
        E 0 90 62 66
        E 0 90 63 64
        E 0 90 64 64
        E 0 90 65 64
        E 0 9d 51 64
        E 0 9d 69 64
        E 120 80 31 00
        E 0 80 32 00
        E 0 80 48 00
        E 0 80 49 00
        E 0 80 4a 00
        E 0 80 4b 00
        E 0 80 4c 00
        E 0 80 4d 00
        E 0 80 60 00
        E 0 80 61 00
        E 0 80 62 00
        E 0 80 63 00
        E 0 80 64 00
        E 0 80 65 00
        E 0 8d 51 00
        E 0 8d 69 00
        E 120 90 31 66
        E 0 90 32 66
        E 0 90 48 64
        E 0 90 49 66
        E 0 90 4a 66
        E 0 90 4b 64
        E 0 90 4c 64
        E 0 90 4d 64
        E 0 90 60 64
        E 0 90 61 66
        E 0 90 62 66
        E 0 90 63 64
        E 0 90 64 64
        E 0 90 65 64
        E 0 9f 51 64
        E 0 9f 69 64
        E 120 80 31 00
        E 0 80 32 00
        E 0 80 48 00
        E 0 80 49 00
        E 0 80 4a 00
        E 0 80 4b 00
        E 0 80 4c 00
        E 0 80 4d 00
        E 0 80 60 00
        E 0 80 61 00
        E 0 80 62 00
        E 0 80 63 00
        E 0 80 64 00
        E 0 80 65 00
        E 0 8f 51 00
        E 0 8f 69 00
        E 120 90 6c 65
        E 0 93 49 67
        E 0 93 4a 66
        E 0 93 4b 64
        E 0 93 4c 65
        E 0 93 4d 64
        E 0 93 61 67
        E 0 93 62 66
        E 0 93 63 64
        E 0 93 64 65
        E 0 93 65 64
        E 120 80 6c 00
        E 0 83 49 00
        E 0 83 4a 00
        E 0 83 4b 00
        E 0 83 4c 00
        E 0 83 4d 00
        E 0 83 61 00
        E 0 83 62 00
        E 0 83 63 00
        E 0 83 64 00
        E 0 83 65 00
        E 120 90 0c 64
        E 0 90 31 67
        E 0 90 32 66
        E 0 90 49 67
        E 0 90 4a 66
        E 0 90 4b 64
        E 0 90 4c 65
        E 0 90 4d 64
        E 0 90 61 67
        E 0 90 62 66
        E 0 90 63 64
        E 0 90 64 65
        E 0 90 65 64
        E 0 9f 51 64
        E 0 9f 69 64
        E 120 80 0c 00
        E 0 80 31 00
        E 0 80 32 00
        E 240 80 49 00
        E 0 80 4a 00
        E 0 80 4b 00
        E 0 80 4c 00
        E 0 80 4d 00
        E 0 80 61 00
        E 0 80 62 00
        E 0 80 63 00
        E 0 80 64 00
        E 0 80 65 00
        E 0 8f 51 00
        E 0 8f 69 00
        E 120 90 31 67
        E 0 90 32 66
        E 0 90 49 67
        E 0 90 4a 66
        E 0 90 4b 64
        E 0 90 4c 65
        E 0 90 4d 64
        E 0 90 61 67
        E 0 90 62 66
        E 0 90 63 64
        E 0 90 64 65
        E 0 90 65 64
        E 0 9f 51 64
        E 0 9f 69 64
        E 120 80 31 00
        E 0 80 32 00
        E 0 80 49 00
        E 0 80 4a 00
        E 0 80 4b 00
        E 0 80 4c 00
        E 0 80 4d 00
        E 0 80 61 00
        E 0 80 62 00
        E 0 80 63 00
        E 0 80 64 00
        E 0 80 65 00
        E 0 8f 51 00
        E 0 8f 69 00
        E 120 93 49 67
        E 0 93 4a 66
        E 0 93 4b 64
        E 0 93 4c 65
        E 0 93 4d 64
        E 0 93 61 67
        E 0 93 62 66
        E 0 93 63 64
        E 0 93 64 65
        E 0 93 65 64
        E 120 83 49 00
        E 0 83 4a 00
        E 0 83 4b 00
        E 0 83 4c 00
        E 0 83 4d 00
        E 0 83 61 00
        E 0 83 62 00
        E 0 83 63 00
        E 0 83 64 00
        E 0 83 65 00
        E 120 90 0c 64
        E 0 90 10 64
        E 0 90 31 66
        E 0 90 32 66
        E 0 90 49 66
        E 0 90 4a 66
        E 0 90 4b 64
        E 0 90 4c 65
        E 0 90 4d 64
        E 0 90 61 66
        E 0 90 62 66
        E 0 90 63 64
        E 0 90 64 65
        E 0 90 65 64
        E 0 9f 51 64
        E 0 9f 69 64
        E 120 80 0c 00
        E 0 80 10 00
        E 0 80 31 00
        E 0 80 32 00
        E 240 80 49 00
        E 0 80 4a 00
        E 0 80 4b 00
        E 0 80 4c 00
        E 0 80 4d 00
        E 0 80 61 00
        E 0 80 62 00
        E 0 80 63 00
        E 0 80 64 00
        E 0 80 65 00
        E 0 8f 51 00
        E 0 8f 69 00
        E 120 90 31 66
        E 0 90 32 66
        E 0 90 49 66
        E 0 90 4a 66
        E 0 90 4b 64
        E 0 90 4c 65
        E 0 90 4d 64
        E 0 90 61 66
        E 0 90 62 66
        E 0 90 63 64
        E 0 90 64 65
        E 0 90 65 64
        E 0 9f 51 64
        E 0 9f 69 64
        E 120 80 31 00
        E 0 80 32 00
        E 0 80 49 00
        E 0 80 4a 00
        E 0 80 4b 00
        E 0 80 4c 00
        E 0 80 4d 00
        E 0 80 61 00
        E 0 80 62 00
        E 0 80 63 00
        E 0 80 64 00
        E 0 80 65 00
        E 0 8f 51 00
        E 0 8f 69 00
        E 120 93 49 66
        E 0 93 4a 66
        E 0 93 4b 64
        E 0 93 4c 65
        E 0 93 4d 64
        E 0 93 61 66
        E 0 93 62 66
        E 0 93 63 64
        E 0 93 64 65
        E 0 93 65 64
        E 120 83 49 00
        E 0 83 4a 00
        E 0 83 4b 00
        E 0 83 4c 00
        E 0 83 4d 00
        E 0 83 61 00
        E 0 83 62 00
        E 0 83 63 00
        E 0 83 64 00
        E 0 83 65 00
        E 120 90 09 64
        E 0 90 1a 66
        E 0 90 32 66
        E 0 90 33 66
        E 0 90 49 64
        E 0 90 4a 66
        E 0 90 4b 66
        E 0 90 4c 65
        E 0 90 4d 64
        E 0 90 61 64
        E 0 90 62 66
        E 0 90 63 66
        E 0 90 64 65
        E 0 90 65 64
        E 0 9f 51 64
        E 0 9f 69 64
        E 120 80 09 00
        E 0 80 1a 00
        E 0 80 32 00
        E 0 80 33 00
        E 240 80 49 00
        E 0 80 4a 00
        E 0 80 4b 00
        E 0 80 4c 00
        E 0 80 4d 00
        E 0 80 61 00
        E 0 80 62 00
        E 0 80 63 00
        E 0 80 64 00
        E 0 80 65 00
        E 0 8f 51 00
        E 0 8f 69 00
        E 120 90 1a 66
        E 0 90 32 66
        E 0 90 33 66
        E 0 90 49 64
        E 0 90 4a 66
        E 0 90 4b 66
        E 0 90 4c 65
        E 0 90 4d 64
        E 0 90 61 64
        E 0 90 62 66
        E 0 90 63 66
        E 0 90 64 65
        E 0 90 65 64
        E 0 9f 51 64
        E 0 9f 69 64
        E 120 80 1a 00
        E 0 80 32 00
        E 0 80 33 00
        E 0 80 49 00
        E 0 80 4a 00
        E 0 80 4b 00
        E 0 80 4c 00
        E 0 80 4d 00
        E 0 80 61 00
        E 0 80 62 00
        E 0 80 63 00
        E 0 80 64 00
        E 0 80 65 00
        E 0 8f 51 00
        E 0 8f 69 00
        E 120 90 32 66
        E 0 90 33 66
        E 0 90 49 64
        E 0 90 4a 66
        E 0 90 4b 66
        E 0 90 4c 65
        E 0 90 4d 64
        E 0 90 61 64
        E 0 90 62 66
        E 0 90 63 66
        E 0 90 64 65
        E 0 90 65 64
        E 0 9d 51 64
        E 0 9d 69 64
        E 120 80 32 00
        E 0 80 33 00
        E 0 80 49 00
        E 0 80 4a 00
        E 0 80 4b 00
        E 0 80 4c 00
        E 0 80 4d 00
        E 0 80 61 00
        E 0 80 62 00
        E 0 80 63 00
        E 0 80 64 00
        E 0 80 65 00
        E 0 8d 51 00
        E 0 8d 69 00
        E 120 90 1a 66
        E 0 90 32 66
        E 0 90 33 66
        E 0 90 49 64
        E 0 90 4a 66
        E 0 90 4b 66
        E 0 90 4c 65
        E 0 90 4d 64
        E 0 90 61 64
        E 0 90 62 66
        E 0 90 63 66
        E 0 90 64 65
        E 0 90 65 64
        E 0 9f 51 64
        E 0 9f 69 64
        E 120 80 1a 00
        E 0 80 32 00
        E 0 80 33 00
        E 0 80 49 00
        E 0 80 4a 00
        E 0 80 4b 00
        E 0 80 4c 00
        E 0 80 4d 00
        E 0 80 61 00
        E 0 80 62 00
        E 0 80 63 00
        E 0 80 64 00
        E 0 80 65 00
        E 0 8f 51 00
        E 0 8f 69 00
        E 120 90 49 64
        E 0 90 4a 66
        E 0 90 4b 66
        E 0 90 4c 64
        E 0 90 4d 64
        E 0 90 61 64
        E 0 90 62 66
        E 0 90 63 66
        E 0 90 64 64
        E 0 90 65 64
        E 0 9d 51 64
        E 0 9d 69 64
        E 120 80 49 00
        E 0 80 4a 00
        E 0 80 4b 00
        E 0 80 4c 00
        E 0 80 4d 00
        E 0 80 61 00
        E 0 80 62 00
        E 0 80 63 00
        E 0 80 64 00
        E 0 80 65 00
        E 0 8d 51 00
        E 0 8d 69 00
        E 120 90 1a 66
        E 0 90 32 66
        E 0 90 33 66
        E 0 90 49 64
        E 0 90 4a 66
        E 0 90 4b 66
        E 0 90 4c 64
        E 0 90 4d 64
        E 0 90 61 64
        E 0 90 62 66
        E 0 90 63 66
        E 0 90 64 64
        E 0 90 65 64
        E 0 9f 51 64
        E 0 9f 69 64
        E 120 80 1a 00
        E 0 80 32 00
        E 0 80 33 00
        E 0 80 49 00
        E 0 80 4a 00
        E 0 80 4b 00
        E 0 80 4c 00
        E 0 80 4d 00
        E 0 80 61 00
        E 0 80 62 00
        E 0 80 63 00
        E 0 80 64 00
        E 0 80 65 00
        E 0 8f 51 00
        E 0 8f 69 00
        E 120 90 6c 66
        E 0 93 48 67
        E 0 93 49 66
        E 0 93 4a 64
        E 0 93 4b 64
        E 0 93 4c 64
        E 0 93 4d 67
        E 0 93 60 67
        E 0 93 61 66
        E 0 93 62 64
        E 0 93 63 64
        E 0 93 64 64
        E 0 93 65 67
        E 120 80 6c 00
        E 0 83 48 00
        E 0 83 49 00
        E 0 83 4a 00
        E 0 83 4b 00
        E 0 83 4c 00
        E 0 83 4d 00
        E 0 83 60 00
        E 0 83 61 00
        E 0 83 62 00
        E 0 83 63 00
        E 0 83 64 00
        E 0 83 65 00
        E 120 90 07 64
        E 0 90 18 67
        E 0 90 30 67
        E 0 90 31 66
        E 0 90 48 67
        E 0 90 49 66
        E 0 90 4a 64
        E 0 90 4b 64
        E 0 90 4c 64
        E 0 90 4d 67
        E 0 90 60 67
        E 0 90 61 66
        E 0 90 62 64
        E 0 90 63 64
        E 0 90 64 64
        E 0 90 65 67
        E 0 9f 51 64
        E 0 9f 69 64
        E 120 80 07 00
        E 0 80 18 00
        E 0 80 30 00
        E 0 80 31 00
        E 240 80 48 00
        E 0 80 49 00
        E 0 80 4a 00
        E 0 80 4b 00
        E 0 80 4c 00
        E 0 80 4d 00
        E 0 80 60 00
        E 0 80 61 00
        E 0 80 62 00
        E 0 80 63 00
        E 0 80 64 00
        E 0 80 65 00
        E 0 8f 51 00
        E 0 8f 69 00
        E 120 90 30 67
        E 0 90 31 66
        E 0 90 48 67
        E 0 90 49 66
        E 0 90 4a 64
        E 0 90 4b 64
        E 0 90 4c 64
        E 0 90 4d 67
        E 0 90 60 67
        E 0 90 61 66
        E 0 90 62 64
        E 0 90 63 64
        E 0 90 64 64
        E 0 90 65 67
        E 0 9f 51 64
        E 0 9f 69 64
        E 120 80 30 00
        E 0 80 31 00
        E 0 80 48 00
        E 0 80 49 00
        E 0 80 4a 00
        E 0 80 4b 00
        E 0 80 4c 00
        E 0 80 4d 00
        E 0 80 60 00
        E 0 80 61 00
        E 0 80 62 00
        E 0 80 63 00
        E 0 80 64 00
        E 0 80 65 00
        E 0 8f 51 00
        E 0 8f 69 00
        E 120 93 48 66
        E 0 93 49 66
        E 0 93 4a 64
        E 0 93 4b 64
        E 0 93 4c 64
        E 0 93 4d 67
        E 0 93 60 66
        E 0 93 61 66
        E 0 93 62 64
        E 0 93 63 64
        E 0 93 64 64
        E 0 93 65 67
        E 120 83 48 00
        E 0 83 49 00
        E 0 83 4a 00
        E 0 83 4b 00
        E 0 83 4c 00
        E 0 83 4d 00
        E 0 83 60 00
        E 0 83 61 00
        E 0 83 62 00
        E 0 83 63 00
        E 0 83 64 00
        E 0 83 65 00
        E 120 90 07 64
        E 0 90 10 64
        E 0 90 18 66
        E 0 90 30 66
        E 0 90 31 66
        E 0 90 48 66
        E 0 90 49 66
        E 0 90 4a 64
        E 0 90 4b 64
        E 0 90 4c 64
        E 0 90 4d 67
        E 0 90 60 66
        E 0 90 61 66
        E 0 90 62 64
        E 0 90 63 64
        E 0 90 64 64
        E 0 90 65 67
        E 0 9f 51 64
        E 0 9f 69 64
        E 120 80 07 00
        E 0 80 10 00
        E 0 80 18 00
        E 0 80 30 00
        E 0 80 31 00
        E 0 80 48 00
        E 0 80 49 00
        E 0 80 4a 00
        E 0 80 4b 00
        E 0 80 4c 00
        E 0 80 4d 00
        E 0 80 60 00
        E 0 80 61 00
        E 0 80 62 00
        E 0 80 63 00
        E 0 80 64 00
        E 0 80 65 00
        E 0 8f 51 00
        E 0 8f 69 00
        E 120 90 30 66
        E 0 90 31 66
        E 0 90 48 66
        E 0 90 49 66
        E 0 90 4a 64
        E 0 90 4b 64
        E 0 90 4c 64
        E 0 90 4d 67
        E 0 90 60 66
        E 0 90 61 66
        E 0 90 62 64
        E 0 90 63 64
        E 0 90 64 64
        E 0 90 65 67
        E 0 9d 51 64
        E 0 9d 69 64
        E 120 80 30 00
        E 0 80 31 00
        E 0 80 48 00
        E 0 80 49 00
        E 0 80 4a 00
        E 0 80 4b 00
        E 0 80 4c 00
        E 0 80 4d 00
        E 0 80 60 00
        E 0 80 61 00
        E 0 80 62 00
        E 0 80 63 00
        E 0 80 64 00
        E 0 80 65 00
        E 0 8d 51 00
        E 0 8d 69 00
        E 120 90 30 66
        E 0 90 31 66
        E 0 90 48 66
        E 0 90 49 66
        E 0 90 4a 64
        E 0 90 4b 64
        E 0 90 4c 64
        E 0 90 4d 67
        E 0 90 60 66
        E 0 90 61 66
        E 0 90 62 64
        E 0 90 63 64
        E 0 90 64 64
        E 0 90 65 67
        E 0 9f 51 64
        E 0 9f 69 64
        E 120 80 30 00
        E 0 80 31 00
        E 0 80 48 00
        E 0 80 49 00
        E 0 80 4a 00
        E 0 80 4b 00
        E 0 80 4c 00
        E 0 80 4d 00
        E 0 80 60 00
        E 0 80 61 00
        E 0 80 62 00
        E 0 80 63 00
        E 0 80 64 00
        E 0 80 65 00
        E 0 8f 51 00
        E 0 8f 69 00
        E 120 93 48 64
        E 0 93 49 66
        E 0 93 4a 66
        E 0 93 4b 64
        E 0 93 4c 64
        E 0 93 4d 64
        E 0 93 60 64
        E 0 93 61 66
        E 0 93 62 66
        E 0 93 63 64
        E 0 93 64 64
        E 0 93 65 64
        E 120 83 48 00
        E 0 83 49 00
        E 0 83 4a 00
        E 0 83 4b 00
        E 0 83 4c 00
        E 0 83 4d 00
        E 0 83 60 00
        E 0 83 61 00
        E 0 83 62 00
        E 0 83 63 00
        E 0 83 64 00
        E 0 83 65 00
        E 120 90 04 64
        E 0 90 19 66
        E 0 90 31 66
        E 0 90 32 66
        E 0 90 48 64
        E 0 90 49 66
        E 0 90 4a 66
        E 0 90 4b 64
        E 0 90 4c 64
        E 0 90 4d 64
        E 0 90 60 64
        E 0 90 61 66
        E 0 90 62 66
        E 0 90 63 64
        E 0 90 64 64
        E 0 90 65 64
        E 0 9f 51 64
        E 0 9f 69 64
        E 120 80 04 00
        E 0 80 19 00
        E 0 80 31 00
        E 0 80 32 00
        E 240 80 48 00
        E 0 80 49 00
        E 0 80 4a 00
        E 0 80 4b 00
        E 0 80 4c 00
        E 0 80 4d 00
        E 0 80 60 00
        E 0 80 61 00
        E 0 80 62 00
        E 0 80 63 00
        E 0 80 64 00
        E 0 80 65 00
        E 0 8f 51 00
        E 0 8f 69 00
        E 120 90 19 66
        E 0 90 31 66
        E 0 90 32 66
        E 0 90 48 64
        E 0 90 49 66
        E 0 90 4a 66
        E 0 90 4b 64
        E 0 90 4c 64
        E 0 90 4d 64
        E 0 90 60 64
        E 0 90 61 66
        E 0 90 62 66
        E 0 90 63 64
        E 0 90 64 64
        E 0 90 65 64
        E 0 9f 51 64
        E 0 9f 69 64
        E 120 80 19 00
        E 0 80 31 00
        E 0 80 32 00
        E 0 80 48 00
        E 0 80 49 00
        E 0 80 4a 00
        E 0 80 4b 00
        E 0 80 4c 00
        E 0 80 4d 00
        E 0 80 60 00
        E 0 80 61 00
        E 0 80 62 00
        E 0 80 63 00
        E 0 80 64 00
        E 0 80 65 00
        E 0 8f 51 00
        E 0 8f 69 00
        E 120 90 31 66
        E 0 90 32 66
        E 0 90 48 64
        E 0 90 49 66
        E 0 90 4a 66
        E 0 90 4b 64
        E 0 90 4c 64
        E 0 90 4d 64
        E 0 90 60 64
        E 0 90 61 66
        E 0 90 62 66
        E 0 90 63 64
        E 0 90 64 64
        E 0 90 65 64
        E 0 9d 51 64
        E 0 9d 69 64
        E 120 80 31 00
        E 0 80 32 00
        E 0 80 48 00
        E 0 80 49 00
        E 0 80 4a 00
        E 0 80 4b 00
        E 0 80 4c 00
        E 0 80 4d 00
        E 0 80 60 00
        E 0 80 61 00
        E 0 80 62 00
        E 0 80 63 00
        E 0 80 64 00
        E 0 80 65 00
        E 0 8d 51 00
        E 0 8d 69 00
        E 120 90 19 66
        E 0 90 31 66
        E 0 90 32 66
        E 0 90 48 64
        E 0 90 49 66
        E 0 90 4a 66
        E 0 90 4b 64
        E 0 90 4c 64
        E 0 90 4d 64
        E 0 90 60 64
        E 0 90 61 66
        E 0 90 62 66
        E 0 90 63 64
        E 0 90 64 64
        E 0 90 65 64
        E 0 9f 51 64
        E 0 9f 69 64
        E 120 80 19 00
        E 0 80 31 00
        E 0 80 32 00
        E 0 80 48 00
        E 0 80 49 00
        E 0 80 4a 00
        E 0 80 4b 00
        E 0 80 4c 00
        E 0 80 4d 00
        E 0 80 60 00
        E 0 80 61 00
        E 0 80 62 00
        E 0 80 63 00
        E 0 80 64 00
        E 0 80 65 00
        E 0 8f 51 00
        E 0 8f 69 00
        E 120 90 31 66
        E 0 90 32 66
        E 0 90 48 64
        E 0 90 49 66
        E 0 90 4a 66
        E 0 90 4b 64
        E 0 90 4c 64
        E 0 90 4d 64
        E 0 90 60 64
        E 0 90 61 66
        E 0 90 62 66
        E 0 90 63 64
        E 0 90 64 64
        E 0 90 65 64
        E 0 9d 51 64
        E 0 9d 69 64
        E 120 80 31 00
        E 0 80 32 00
        E 0 80 48 00
        E 0 80 49 00
        E 0 80 4a 00
        E 0 80 4b 00
        E 0 80 4c 00
        E 0 80 4d 00
        E 0 80 60 00
        E 0 80 61 00
        E 0 80 62 00
        E 0 80 63 00
        E 0 80 64 00
        E 0 80 65 00
        E 0 8d 51 00
        E 0 8d 69 00
        E 120 90 31 66
        E 0 90 32 66
        E 0 90 48 64
        E 0 90 49 66
        E 0 90 4a 66
        E 0 90 4b 64
        E 0 90 4c 64
        E 0 90 4d 64
        E 0 90 60 64
        E 0 90 61 66
        E 0 90 62 66
        E 0 90 63 64
        E 0 90 64 64
        E 0 90 65 64
        E 0 9f 51 64
        E 0 9f 69 64
        E 120 80 31 00
        E 0 80 32 00
        E 0 80 48 00
        E 0 80 49 00
        E 0 80 4a 00
        E 0 80 4b 00
        E 0 80 4c 00
        E 0 80 4d 00
        E 0 80 60 00
        E 0 80 61 00
        E 0 80 62 00
        E 0 80 63 00
        E 0 80 64 00
        E 0 80 65 00
        E 0 8f 51 00
        E 0 8f 69 00
        E 120 90 6c 65
        E 0 93 49 67
        E 0 93 4a 66
        E 0 93 4b 64
        E 0 93 4c 65
        E 0 93 4d 64
        E 0 93 61 67
        E 0 93 62 66
        E 0 93 63 64
        E 0 93 64 65
        E 0 93 65 64
        E 120 80 6c 00
        E 0 83 49 00
        E 0 83 4a 00
        E 0 83 4b 00
        E 0 83 4c 00
        E 0 83 4d 00
        E 0 83 61 00
        E 0 83 62 00
        E 0 83 63 00
        E 0 83 64 00
        E 0 83 65 00
        E 120 90 0c 64
        E 0 90 31 67
        E 0 90 32 66
        E 0 90 49 67
        E 0 90 4a 66
        E 0 90 4b 64
        E 0 90 4c 65
        E 0 90 4d 64
        E 0 90 61 67
        E 0 90 62 66
        E 0 90 63 64
        E 0 90 64 65
        E 0 90 65 64
        E 0 9f 51 64
        E 0 9f 69 64
        E 120 80 0c 00
        E 0 80 31 00
        E 0 80 32 00
        E 240 80 49 00
        E 0 80 4a 00
        E 0 80 4b 00
        E 0 80 4c 00
        E 0 80 4d 00
        E 0 80 61 00
        E 0 80 62 00
        E 0 80 63 00
        E 0 80 64 00
        E 0 80 65 00
        E 0 8f 51 00
        E 0 8f 69 00
        E 120 90 31 67
        E 0 90 32 66
        E 0 90 49 67
        E 0 90 4a 66
        E 0 90 4b 64
        E 0 90 4c 65
        E 0 90 4d 64
        E 0 90 61 67
        E 0 90 62 66
        E 0 90 63 64
        E 0 90 64 65
        E 0 90 65 64
        E 0 9f 51 64
        E 0 9f 69 64
        E 120 80 31 00
        E 0 80 32 00
        E 240 80 49 00
        E 0 80 4a 00
        E 0 80 4b 00
        E 0 80 4c 00
        E 0 80 4d 00
        E 0 80 61 00
        E 0 80 62 00
        E 0 80 63 00
        E 0 80 64 00
        E 0 80 65 00
        E 0 8f 51 00
        E 0 8f 69 00
        E 120 90 31 67
        E 0 90 32 66
        E 0 90 49 67
        E 0 90 4a 66
        E 0 90 4b 64
        E 0 90 4c 65
        E 0 90 4d 64
        E 0 90 61 67
        E 0 90 62 66
        E 0 90 63 64
        E 0 90 64 65
        E 0 90 65 64
        E 0 9f 51 64
        E 0 9f 69 64
        E 120 80 31 00
        E 0 80 32 00
        E 240 80 49 00
        E 0 80 4a 00
        E 0 80 4b 00
        E 0 80 4c 00
        E 0 80 4d 00
        E 0 80 61 00
        E 0 80 62 00
        E 0 80 63 00
        E 0 80 64 00
        E 0 80 65 00
        E 0 8f 51 00
        E 0 8f 69 00
        E 120 90 31 67
        E 0 90 32 66
        E 0 90 49 67
        E 0 90 4a 66
        E 0 90 4b 64
        E 0 90 4c 65
        E 0 90 4d 64
        E 0 90 61 67
        E 0 90 62 66
        E 0 90 63 64
        E 0 90 64 65
        E 0 90 65 64
        E 0 9f 51 64
        E 0 9f 69 64
        E 120 80 31 00
        E 0 80 32 00
        E 0 80 49 00
        E 0 80 4a 00
        E 0 80 4b 00
        E 0 80 4c 00
        E 0 80 4d 00
        E 0 80 61 00
        E 0 80 62 00
        E 0 80 63 00
        E 0 80 64 00
        E 0 80 65 00
        E 0 8f 51 00
        E 0 8f 69 00
        E 120 90 6c 66
        E 0 93 4a 64
        E 0 93 4b 66
        E 0 93 4c 67
        E 0 93 4d 66
        E 0 93 62 64
        E 0 93 63 66
        E 0 93 64 67
        E 0 93 65 66
        E 120 80 6c 00
        E 0 83 4a 00
        E 0 83 4b 00
        E 0 83 4c 00
        E 0 83 4d 00
        E 0 83 62 00
        E 0 83 63 00
        E 0 83 64 00
        E 0 83 65 00
        E 120 90 0e 64
        E 0 90 33 66
        E 0 90 34 67
        E 0 90 4a 64
        E 0 90 4b 66
        E 0 90 4c 67
        E 0 90 4d 66
        E 0 90 62 64
        E 0 90 63 66
        E 0 90 64 67
        E 0 90 65 66
        E 0 9d 51 64
        E 0 9d 69 64
        E 120 80 0e 00
        E 0 80 33 00
        E 0 80 34 00
        E 240 80 4a 00
        E 0 80 4b 00
        E 0 80 4c 00
        E 0 80 4d 00
        E 0 80 62 00
        E 0 80 63 00
        E 0 80 64 00
        E 0 80 65 00
        E 0 8d 51 00
        E 0 8d 69 00
        E 120 90 33 66
        E 0 90 34 67
        E 0 90 4a 64
        E 0 90 4b 66
        E 0 90 4c 67
        E 0 90 4d 66
        E 0 90 62 64
        E 0 90 63 66
        E 0 90 64 67
        E 0 90 65 66
        E 0 9f 51 64
        E 0 9f 69 64
        E 120 80 33 00
        E 0 80 34 00
        E 240 80 4a 00
        E 0 80 4b 00
        E 0 80 4c 00
        E 0 80 4d 00
        E 0 80 62 00
        E 0 80 63 00
        E 0 80 64 00
        E 0 80 65 00
        E 0 8f 51 00
        E 0 8f 69 00
        E 120 90 33 66
        E 0 90 34 67
        E 0 90 4a 64
        E 0 90 4b 66
        E 0 90 4c 67
        E 0 90 4d 66
        E 0 90 62 64
        E 0 90 63 66
        E 0 90 64 67
        E 0 90 65 66
        E 0 9f 51 64
        E 0 9f 69 64
        E 120 80 33 00
        E 0 80 34 00
        E 240 80 4a 00
        E 0 80 4b 00
        E 0 80 4c 00
        E 0 80 4d 00
        E 0 80 62 00
        E 0 80 63 00
        E 0 80 64 00
        E 0 80 65 00
        E 0 8f 51 00
        E 0 8f 69 00
        E 120 90 33 66
        E 0 90 34 67
        E 0 90 4a 64
        E 0 90 4b 66
        E 0 90 4c 67
        E 0 90 4d 66
        E 0 90 62 64
        E 0 90 63 66
        E 0 90 64 67
        E 0 90 65 66
        E 0 9f 51 64
        E 0 9f 69 64
        E 120 80 33 00
        E 0 80 34 00
        E 0 80 4a 00
        E 0 80 4b 00
        E 0 80 4c 00
        E 0 80 4d 00
        E 0 80 62 00
        E 0 80 63 00
        E 0 80 64 00
        E 0 80 65 00
        E 0 8f 51 00
        E 0 8f 69 00
        E 120 93 48 67
        E 0 93 49 66
        E 0 93 4a 64
        E 0 93 4b 64
        E 0 93 4c 64
        E 0 93 4d 67
        E 0 93 60 67
        E 0 93 61 66
        E 0 93 62 64
        E 0 93 63 64
        E 0 93 64 64
        E 0 93 65 67
        E 0 9d 51 64
        E 0 9d 69 64
        E 120 83 48 00
        E 0 83 49 00
        E 0 83 4a 00
        E 0 83 4b 00
        E 0 83 4c 00
        E 0 83 4d 00
        E 0 83 60 00
        E 0 83 61 00
        E 0 83 62 00
        E 0 83 63 00
        E 0 83 64 00
        E 0 83 65 00
        E 0 8d 51 00
        E 0 8d 69 00
        <X 120 0
          /wFbYmVnaW5fcGcgc29uZ190cmFpbmVyX3BnXzNd
        >
        E 0 90 07 64
        E 0 90 18 67
        E 0 90 30 67
        E 0 90 31 66
        E 0 90 48 67
        E 0 90 49 66
        E 0 90 4a 64
        E 0 90 4b 64
        E 0 90 4c 64
        E 0 90 4d 67
        E 0 90 60 67
        E 0 90 61 66
        E 0 90 62 64
        E 0 90 63 64
        E 0 90 64 64
        E 0 90 65 67
        E 0 9f 51 64
        E 0 9f 69 64
        E 120 80 07 00
        E 0 80 18 00
        E 0 80 30 00
        E 0 80 31 00
        E 240 80 48 00
        E 0 80 49 00
        E 0 80 4a 00
        E 0 80 4b 00
        E 0 80 4c 00
        E 0 80 4d 00
        E 0 80 60 00
        E 0 80 61 00
        E 0 80 62 00
        E 0 80 63 00
        E 0 80 64 00
        E 0 80 65 00
        E 0 8f 51 00
        E 0 8f 69 00
        E 120 90 18 67
        E 0 90 30 67
        E 0 90 31 66
        E 0 90 48 67
        E 0 90 49 66
        E 0 90 4a 64
        E 0 90 4b 64
        E 0 90 4c 64
        E 0 90 4d 67
        E 0 90 60 67
        E 0 90 61 66
        E 0 90 62 64
        E 0 90 63 64
        E 0 90 64 64
        E 0 90 65 67
        E 0 9f 51 64
        E 0 9f 69 64
        E 120 80 18 00
        E 0 80 30 00
        E 0 80 31 00
        E 240 80 48 00
        E 0 80 49 00
        E 0 80 4a 00
        E 0 80 4b 00
        E 0 80 4c 00
        E 0 80 4d 00
        E 0 80 60 00
        E 0 80 61 00
        E 0 80 62 00
        E 0 80 63 00
        E 0 80 64 00
        E 0 80 65 00
        E 0 8f 51 00
        E 0 8f 69 00
        E 120 90 18 67
        E 0 90 30 67
        E 0 90 31 66
        E 0 90 48 67
        E 0 90 49 66
        E 0 90 4a 64
        E 0 90 4b 64
        E 0 90 4c 64
        E 0 90 4d 67
        E 0 90 60 67
        E 0 90 61 66
        E 0 90 62 64
        E 0 90 63 64
        E 0 90 64 64
        E 0 90 65 67
        E 0 9f 51 64
        E 0 9f 69 64
        E 120 80 18 00
        E 0 80 30 00
        E 0 80 31 00
        E 240 80 48 00
        E 0 80 49 00
        E 0 80 4a 00
        E 0 80 4b 00
        E 0 80 4c 00
        E 0 80 4d 00
        E 0 80 60 00
        E 0 80 61 00
        E 0 80 62 00
        E 0 80 63 00
        E 0 80 64 00
        E 0 80 65 00
        E 0 8f 51 00
        E 0 8f 69 00
        E 120 90 18 67
        E 0 90 30 67
        E 0 90 31 66
        E 0 90 48 67
        E 0 90 49 66
        E 0 90 4a 64
        E 0 90 4b 64
        E 0 90 4c 64
        E 0 90 4d 67
        E 0 90 60 67
        E 0 90 61 66
        E 0 90 62 64
        E 0 90 63 64
        E 0 90 64 64
        E 0 90 65 67
        E 0 9f 51 64
        E 0 9f 69 64
        E 120 80 18 00
        E 0 80 30 00
        E 0 80 31 00
        E 0 80 48 00
        E 0 80 49 00
        E 0 80 4a 00
        E 0 80 4b 00
        E 0 80 4c 00
        E 0 80 4d 00
        E 0 80 60 00
        E 0 80 61 00
        E 0 80 62 00
        E 0 80 63 00
        E 0 80 64 00
        E 0 80 65 00
        E 0 8f 51 00
        E 0 8f 69 00
        E 120 90 6c 65
        E 0 93 49 67
        E 0 93 4a 66
        E 0 93 4b 64
        E 0 93 4c 65
        E 0 93 4d 64
        E 0 93 61 67
        E 0 93 62 66
        E 0 93 63 64
        E 0 93 64 65
        E 0 93 65 64
        E 120 80 6c 00
        E 0 83 49 00
        E 0 83 4a 00
        E 0 83 4b 00
        E 0 83 4c 00
        E 0 83 4d 00
        E 0 83 61 00
        E 0 83 62 00
        E 0 83 63 00
        E 0 83 64 00
        E 0 83 65 00
        <X 120 0
          /wFbcGdfbm9ybSBzb25nX3RyYWluZXJfcGdfM10=
        >
        E 0 90 0c 64
        E 0 90 19 67
        E 0 90 31 67
        E 0 90 32 66
        E 0 90 49 67
        E 0 90 4a 66
        E 0 90 4b 64
        E 0 90 4c 65
        E 0 90 4d 64
        E 0 90 61 67
        E 0 90 62 66
        E 0 90 63 64
        E 0 90 64 65
        E 0 90 65 64
        E 0 9f 51 64
        E 0 9f 69 64
        E 120 80 0c 00
        E 0 80 19 00
        E 0 80 31 00
        E 0 80 32 00
        E 0 80 49 00
        E 0 80 4a 00
        E 0 80 4b 00
        E 0 80 4c 00
        E 0 80 4d 00
        E 0 80 61 00
        E 0 80 62 00
        E 0 80 63 00
        E 0 80 64 00
        E 0 80 65 00
        E 0 8f 51 00
        E 0 8f 69 00
        E 120 90 49 67
        E 0 90 4a 66
        E 0 90 4b 64
        E 0 90 4c 65
        E 0 90 4d 64
        E 0 90 61 67
        E 0 90 62 66
        E 0 90 63 64
        E 0 90 64 65
        E 0 90 65 64
        E 0 9d 51 64
        E 0 9d 69 64
        E 120 80 49 00
        E 0 80 4a 00
        E 0 80 4b 00
        E 0 80 4c 00
        E 0 80 4d 00
        E 0 80 61 00
        E 0 80 62 00
        E 0 80 63 00
        E 0 80 64 00
        E 0 80 65 00
        E 0 8d 51 00
        E 0 8d 69 00
        E 120 90 19 67
        E 0 90 31 67
        E 0 90 32 66
        E 0 90 49 67
        E 0 90 4a 66
        E 0 90 4b 64
        E 0 90 4c 65
        E 0 90 4d 64
        E 0 90 61 67
        E 0 90 62 66
        E 0 90 63 64
        E 0 90 64 65
        E 0 90 65 64
        E 0 9f 51 64
        E 0 9f 69 64
        E 120 80 19 00
        E 0 80 31 00
        E 0 80 32 00
        E 240 80 49 00
        E 0 80 4a 00
        E 0 80 4b 00
        E 0 80 4c 00
        E 0 80 4d 00
        E 0 80 61 00
        E 0 80 62 00
        E 0 80 63 00
        E 0 80 64 00
        E 0 80 65 00
        E 0 8f 51 00
        E 0 8f 69 00
        E 120 90 19 67
        E 0 90 31 67
        E 0 90 32 66
        E 0 90 49 67
        E 0 90 4a 66
        E 0 90 4b 64
        E 0 90 4c 65
        E 0 90 4d 64
        E 0 90 61 67
        E 0 90 62 66
        E 0 90 63 64
        E 0 90 64 65
        E 0 90 65 64
        E 0 9f 51 64
        E 0 9f 69 64
        E 120 80 19 00
        E 0 80 31 00
        E 0 80 32 00
        E 240 80 49 00
        E 0 80 4a 00
        E 0 80 4b 00
        E 0 80 4c 00
        E 0 80 4d 00
        E 0 80 61 00
        E 0 80 62 00
        E 0 80 63 00
        E 0 80 64 00
        E 0 80 65 00
        E 0 8f 51 00
        E 0 8f 69 00
        E 120 90 19 67
        E 0 90 31 67
        E 0 90 32 66
        E 0 90 49 67
        E 0 90 4a 66
        E 0 90 4b 64
        E 0 90 4c 65
        E 0 90 4d 64
        E 0 90 61 67
        E 0 90 62 66
        E 0 90 63 64
        E 0 90 64 65
        E 0 90 65 64
        E 0 9f 51 64
        E 0 9f 69 64
        E 120 80 19 00
        E 0 80 31 00
        E 0 80 32 00
        E 0 80 49 00
        E 0 80 4a 00
        E 0 80 4b 00
        E 0 80 4c 00
        E 0 80 4d 00
        E 0 80 61 00
        E 0 80 62 00
        E 0 80 63 00
        E 0 80 64 00
        E 0 80 65 00
        E 0 8f 51 00
        E 0 8f 69 00
        E 120 90 6c 66
        E 0 93 48 67
        E 0 93 49 66
        E 0 93 4a 64
        E 0 93 4b 64
        E 0 93 4c 64
        E 0 93 4d 67
        E 0 93 60 67
        E 0 93 61 66
        E 0 93 62 64
        E 0 93 63 64
        E 0 93 64 64
        E 0 93 65 67
        E 120 80 6c 00
        E 0 83 48 00
        E 0 83 49 00
        E 0 83 4a 00
        E 0 83 4b 00
        E 0 83 4c 00
        E 0 83 4d 00
        E 0 83 60 00
        E 0 83 61 00
        E 0 83 62 00
        E 0 83 63 00
        E 0 83 64 00
        E 0 83 65 00
        E 120 90 07 64
        E 0 90 18 67
        E 0 90 30 67
        E 0 90 31 66
        E 0 90 48 67
        E 0 90 49 66
        E 0 90 4a 64
        E 0 90 4b 64
        E 0 90 4c 64
        E 0 90 4d 67
        E 0 90 60 67
        E 0 90 61 66
        E 0 90 62 64
        E 0 90 63 64
        E 0 90 64 64
        E 0 90 65 67
        E 0 9f 51 64
        E 0 9f 69 64
        E 120 80 07 00
        E 0 80 18 00
        E 0 80 30 00
        E 0 80 31 00
        E 240 80 48 00
        E 0 80 49 00
        E 0 80 4a 00
        E 0 80 4b 00
        E 0 80 4c 00
        E 0 80 4d 00
        E 0 80 60 00
        E 0 80 61 00
        E 0 80 62 00
        E 0 80 63 00
        E 0 80 64 00
        E 0 80 65 00
        E 0 8f 51 00
        E 0 8f 69 00
        E 120 90 30 67
        E 0 90 31 66
        E 0 90 48 67
        E 0 90 49 66
        E 0 90 4a 64
        E 0 90 4b 64
        E 0 90 4c 64
        E 0 90 4d 67
        E 0 90 60 67
        E 0 90 61 66
        E 0 90 62 64
        E 0 90 63 64
        E 0 90 64 64
        E 0 90 65 67
        E 0 9f 51 64
        E 0 9f 69 64
        E 120 80 30 00
        E 0 80 31 00
        E 240 80 48 00
        E 0 80 49 00
        E 0 80 4a 00
        E 0 80 4b 00
        E 0 80 4c 00
        E 0 80 4d 00
        E 0 80 60 00
        E 0 80 61 00
        E 0 80 62 00
        E 0 80 63 00
        E 0 80 64 00
        E 0 80 65 00
        E 0 8f 51 00
        E 0 8f 69 00
        E 120 90 18 67
        E 0 90 30 67
        E 0 90 31 66
        E 0 90 48 67
        E 0 90 49 66
        E 0 90 4a 64
        E 0 90 4b 64
        E 0 90 4c 64
        E 0 90 4d 67
        E 0 90 60 67
        E 0 90 61 66
        E 0 90 62 64
        E 0 90 63 64
        E 0 90 64 64
        E 0 90 65 67
        E 0 9f 51 64
        E 0 9f 69 64
        E 120 80 18 00
        E 0 80 30 00
        E 0 80 31 00
        E 240 80 48 00
        E 0 80 49 00
        E 0 80 4a 00
        E 0 80 4b 00
        E 0 80 4c 00
        E 0 80 4d 00
        E 0 80 60 00
        E 0 80 61 00
        E 0 80 62 00
        E 0 80 63 00
        E 0 80 64 00
        E 0 80 65 00
        E 0 8f 51 00
        E 0 8f 69 00
        E 120 90 30 67
        E 0 90 31 66
        E 0 90 48 67
        E 0 90 49 66
        E 0 90 4a 64
        E 0 90 4b 64
        E 0 90 4c 64
        E 0 90 4d 67
        E 0 90 60 67
        E 0 90 61 66
        E 0 90 62 64
        E 0 90 63 64
        E 0 90 64 64
        E 0 90 65 67
        E 0 9f 51 64
        E 0 9f 69 64
        E 120 80 30 00
        E 0 80 31 00
        E 0 80 48 00
        E 0 80 49 00
        E 0 80 4a 00
        E 0 80 4b 00
        E 0 80 4c 00
        E 0 80 4d 00
        E 0 80 60 00
        E 0 80 61 00
        E 0 80 62 00
        E 0 80 63 00
        E 0 80 64 00
        E 0 80 65 00
        E 0 8f 51 00
        E 0 8f 69 00
        E 120 90 6c 65
        E 0 93 48 67
        E 0 93 49 66
        E 0 93 4a 64
        E 0 93 4b 64
        E 0 93 4c 64
        E 0 93 4d 65
        E 0 93 60 67
        E 0 93 61 66
        E 0 93 62 64
        E 0 93 63 64
        E 0 93 64 64
        E 0 93 65 65
        E 120 80 6c 00
        E 0 83 48 00
        E 0 83 49 00
        E 0 83 4a 00
        E 0 83 4b 00
        E 0 83 4c 00
        E 0 83 4d 00
        E 0 83 60 00
        E 0 83 61 00
        E 0 83 62 00
        E 0 83 63 00
        E 0 83 64 00
        E 0 83 65 00
        E 120 90 18 67
        E 0 90 30 67
        E 0 90 31 66
        E 0 90 48 67
        E 0 90 49 66
        E 0 90 4a 64
        E 0 90 4b 64
        E 0 90 4c 64
        E 0 90 4d 65
        E 0 90 60 67
        E 0 90 61 66
        E 0 90 62 64
        E 0 90 63 64
        E 0 90 64 64
        E 0 90 65 65
        E 0 9f 51 64
        E 0 9f 69 64
        E 120 80 18 00
        E 0 80 30 00
        E 0 80 31 00
        E 0 80 48 00
        E 0 80 49 00
        E 0 80 4a 00
        E 0 80 4b 00
        E 0 80 4c 00
        E 0 80 4d 00
        E 0 80 60 00
        E 0 80 61 00
        E 0 80 62 00
        E 0 80 63 00
        E 0 80 64 00
        E 0 80 65 00
        E 0 8f 51 00
        E 0 8f 69 00
        E 120 90 48 67
        E 0 90 49 66
        E 0 90 4a 64
        E 0 90 4b 64
        E 0 90 4c 64
        E 0 90 4d 65
        E 0 90 60 67
        E 0 90 61 66
        E 0 90 62 64
        E 0 90 63 64
        E 0 90 64 64
        E 0 90 65 65
        E 0 9d 51 64
        E 0 9d 69 64
        E 120 80 48 00
        E 0 80 49 00
        E 0 80 4a 00
        E 0 80 4b 00
        E 0 80 4c 00
        E 0 80 4d 00
        E 0 80 60 00
        E 0 80 61 00
        E 0 80 62 00
        E 0 80 63 00
        E 0 80 64 00
        E 0 80 65 00
        E 0 8d 51 00
        E 0 8d 69 00
        E 120 90 18 67
        E 0 90 30 67
        E 0 90 31 66
        E 0 90 48 67
        E 0 90 49 66
        E 0 90 4a 64
        E 0 90 4b 64
        E 0 90 4c 64
        E 0 90 4d 65
        E 0 90 60 67
        E 0 90 61 66
        E 0 90 62 64
        E 0 90 63 64
        E 0 90 64 64
        E 0 90 65 65
        E 0 9f 51 64
        E 0 9f 69 64
        E 120 80 18 00
        E 0 80 30 00
        E 0 80 31 00
        E 0 80 48 00
        E 0 80 49 00
        E 0 80 4a 00
        E 0 80 4b 00
        E 0 80 4c 00
        E 0 80 4d 00
        E 0 80 60 00
        E 0 80 61 00
        E 0 80 62 00
        E 0 80 63 00
        E 0 80 64 00
        E 0 80 65 00
        E 0 8f 51 00
        E 0 8f 69 00
        E 120 90 48 67
        E 0 90 49 66
        E 0 90 4a 64
        E 0 90 4b 64
        E 0 90 4c 64
        E 0 90 4d 65
        E 0 90 60 67
        E 0 90 61 66
        E 0 90 62 64
        E 0 90 63 64
        E 0 90 64 64
        E 0 90 65 65
        E 0 9d 51 64
        E 0 9d 69 64
        E 120 80 48 00
        E 0 80 49 00
        E 0 80 4a 00
        E 0 80 4b 00
        E 0 80 4c 00
        E 0 80 4d 00
        E 0 80 60 00
        E 0 80 61 00
        E 0 80 62 00
        E 0 80 63 00
        E 0 80 64 00
        E 0 80 65 00
        E 0 8d 51 00
        E 0 8d 69 00
        E 120 90 18 67
        E 0 90 30 67
        E 0 90 31 66
        E 0 90 48 67
        E 0 90 49 66
        E 0 90 4a 64
        E 0 90 4b 64
        E 0 90 4c 64
        E 0 90 4d 65
        E 0 90 60 67
        E 0 90 61 66
        E 0 90 62 64
        E 0 90 63 64
        E 0 90 64 64
        E 0 90 65 65
        E 0 9f 51 64
        E 0 9f 69 64
        E 120 80 18 00
        E 0 80 30 00
        E 0 80 31 00
        E 0 80 48 00
        E 0 80 49 00
        E 0 80 4a 00
        E 0 80 4b 00
        E 0 80 4c 00
        E 0 80 4d 00
        E 0 80 60 00
        E 0 80 61 00
        E 0 80 62 00
        E 0 80 63 00
        E 0 80 64 00
        E 0 80 65 00
        E 0 8f 51 00
        E 0 8f 69 00
        E 120 90 48 67
        E 0 90 49 66
        E 0 90 4a 64
        E 0 90 4b 64
        E 0 90 4c 64
        E 0 90 4d 65
        E 0 90 60 67
        E 0 90 61 66
        E 0 90 62 64
        E 0 90 63 64
        E 0 90 64 64
        E 0 90 65 65
        E 0 9d 51 64
        E 0 9d 69 64
        E 120 80 48 00
        E 0 80 49 00
        E 0 80 4a 00
        E 0 80 4b 00
        E 0 80 4c 00
        E 0 80 4d 00
        E 0 80 60 00
        E 0 80 61 00
        E 0 80 62 00
        E 0 80 63 00
        E 0 80 64 00
        E 0 80 65 00
        E 0 8d 51 00
        E 0 8d 69 00
        E 120 90 30 67
        E 0 90 31 66
        E 0 90 48 67
        E 0 90 49 66
        E 0 90 4a 64
        E 0 90 4b 64
        E 0 90 4c 64
        E 0 90 4d 65
        E 0 90 60 67
        E 0 90 61 66
        E 0 90 62 64
        E 0 90 63 64
        E 0 90 64 64
        E 0 90 65 65
        E 0 9f 51 64
        E 0 9f 69 64
        E 120 80 30 00
        E 0 80 31 00
        E 0 80 48 00
        E 0 80 49 00
        E 0 80 4a 00
        E 0 80 4b 00
        E 0 80 4c 00
        E 0 80 4d 00
        E 0 80 60 00
        E 0 80 61 00
        E 0 80 62 00
        E 0 80 63 00
        E 0 80 64 00
        E 0 80 65 00
        E 0 8f 51 00
        E 0 8f 69 00
        E 120 93 49 67
        E 0 93 4a 66
        E 0 93 4b 64
        E 0 93 4c 65
        E 0 93 4d 64
        E 0 93 61 67
        E 0 93 62 66
        E 0 93 63 64
        E 0 93 64 65
        E 0 93 65 64
        E 120 83 49 00
        E 0 83 4a 00
        E 0 83 4b 00
        E 0 83 4c 00
        E 0 83 4d 00
        E 0 83 61 00
        E 0 83 62 00
        E 0 83 63 00
        E 0 83 64 00
        E 0 83 65 00
        <X 120 0
          /wFbZW5kX3BnIHNvbmdfdHJhaW5lcl9wZ18zXQ==
        >
        <X 0 0
          /wFbYmVnaW5fcGcgc29uZ190cmFpbmVyX3BnXzRd
        >
        E 0 90 0c 64
        E 0 90 31 67
        E 0 90 32 66
        E 0 90 49 67
        E 0 90 4a 66
        E 0 90 4b 64
        E 0 90 4c 65
        E 0 90 4d 64
        E 0 90 61 67
        E 0 90 62 66
        E 0 90 63 64
        E 0 90 64 65
        E 0 90 65 64
        E 0 9f 51 64
        E 0 9f 69 64
        E 120 80 0c 00
        E 0 80 31 00
        E 0 80 32 00
        E 240 80 49 00
        E 0 80 4a 00
        E 0 80 4b 00
        E 0 80 4c 00
        E 0 80 4d 00
        E 0 80 61 00
        E 0 80 62 00
        E 0 80 63 00
        E 0 80 64 00
        E 0 80 65 00
        E 0 8f 51 00
        E 0 8f 69 00
        E 120 90 31 67
        E 0 90 32 66
        E 0 90 49 67
        E 0 90 4a 66
        E 0 90 4b 64
        E 0 90 4c 65
        E 0 90 4d 64
        E 0 90 61 67
        E 0 90 62 66
        E 0 90 63 64
        E 0 90 64 65
        E 0 90 65 64
        E 0 9f 51 64
        E 0 9f 69 64
        E 120 80 31 00
        E 0 80 32 00
        E 240 80 49 00
        E 0 80 4a 00
        E 0 80 4b 00
        E 0 80 4c 00
        E 0 80 4d 00
        E 0 80 61 00
        E 0 80 62 00
        E 0 80 63 00
        E 0 80 64 00
        E 0 80 65 00
        E 0 8f 51 00
        E 0 8f 69 00
        E 120 90 19 67
        E 0 90 31 67
        E 0 90 32 66
        E 0 90 49 67
        E 0 90 4a 66
        E 0 90 4b 64
        E 0 90 4c 65
        E 0 90 4d 64
        E 0 90 61 67
        E 0 90 62 66
        E 0 90 63 64
        E 0 90 64 65
        E 0 90 65 64
        E 0 9f 51 64
        E 0 9f 69 64
        E 120 80 19 00
        E 0 80 31 00
        E 0 80 32 00
        E 240 80 49 00
        E 0 80 4a 00
        E 0 80 4b 00
        E 0 80 4c 00
        E 0 80 4d 00
        E 0 80 61 00
        E 0 80 62 00
        E 0 80 63 00
        E 0 80 64 00
        E 0 80 65 00
        E 0 8f 51 00
        E 0 8f 69 00
        E 120 90 19 67
        E 0 90 31 67
        E 0 90 32 66
        E 0 90 49 67
        E 0 90 4a 66
        E 0 90 4b 64
        E 0 90 4c 65
        E 0 90 4d 64
        E 0 90 61 67
        E 0 90 62 66
        E 0 90 63 64
        E 0 90 64 65
        E 0 90 65 64
        E 0 9f 51 64
        E 0 9f 69 64
        E 120 80 19 00
        E 0 80 31 00
        E 0 80 32 00
        E 0 80 49 00
        E 0 80 4a 00
        E 0 80 4b 00
        E 0 80 4c 00
        E 0 80 4d 00
        E 0 80 61 00
        E 0 80 62 00
        E 0 80 63 00
        E 0 80 64 00
        E 0 80 65 00
        E 0 8f 51 00
        E 0 8f 69 00
        E 120 90 49 67
        E 0 90 4a 66
        E 0 90 4b 64
        E 0 90 4c 65
        E 0 90 4d 64
        E 0 90 61 67
        E 0 90 62 66
        E 0 90 63 64
        E 0 90 64 65
        E 0 90 65 64
        E 0 9d 51 64
        E 0 9d 69 64
        E 120 80 49 00
        E 0 80 4a 00
        E 0 80 4b 00
        E 0 80 4c 00
        E 0 80 4d 00
        E 0 80 61 00
        E 0 80 62 00
        E 0 80 63 00
        E 0 80 64 00
        E 0 80 65 00
        E 0 8d 51 00
        E 0 8d 69 00
        <X 120 0
          /wFbcGdfbm9ybSBzb25nX3RyYWluZXJfcGdfNF0=
        >
        E 0 90 19 67
        E 0 90 31 67
        E 0 90 32 66
        E 0 90 49 67
        E 0 90 4a 66
        E 0 90 4b 64
        E 0 90 4c 65
        E 0 90 4d 64
        E 0 90 61 67
        E 0 90 62 66
        E 0 90 63 64
        E 0 90 64 65
        E 0 90 65 64
        E 0 9f 51 64
        E 0 9f 69 64
        E 120 80 19 00
        E 0 80 31 00
        E 0 80 32 00
        E 0 80 49 00
        E 0 80 4a 00
        E 0 80 4b 00
        E 0 80 4c 00
        E 0 80 4d 00
        E 0 80 61 00
        E 0 80 62 00
        E 0 80 63 00
        E 0 80 64 00
        E 0 80 65 00
        E 0 8f 51 00
        E 0 8f 69 00
        E 120 90 49 67
        E 0 90 4a 66
        E 0 90 4b 64
        E 0 90 4c 65
        E 0 90 4d 64
        E 0 90 61 67
        E 0 90 62 66
        E 0 90 63 64
        E 0 90 64 65
        E 0 90 65 64
        E 0 9d 51 64
        E 0 9d 69 64
        E 120 80 49 00
        E 0 80 4a 00
        E 0 80 4b 00
        E 0 80 4c 00
        E 0 80 4d 00
        E 0 80 61 00
        E 0 80 62 00
        E 0 80 63 00
        E 0 80 64 00
        E 0 80 65 00
        E 0 8d 51 00
        E 0 8d 69 00
        E 120 90 31 67
        E 0 90 32 66
        E 0 90 49 67
        E 0 90 4a 66
        E 0 90 4b 64
        E 0 90 4c 65
        E 0 90 4d 64
        E 0 90 61 67
        E 0 90 62 66
        E 0 90 63 64
        E 0 90 64 65
        E 0 90 65 64
        E 0 9f 51 64
        E 0 9f 69 64
        E 120 80 31 00
        E 0 80 32 00
        E 240 80 49 00
        E 0 80 4a 00
        E 0 80 4b 00
        E 0 80 4c 00
        E 0 80 4d 00
        E 0 80 61 00
        E 0 80 62 00
        E 0 80 63 00
        E 0 80 64 00
        E 0 80 65 00
        E 0 8f 51 00
        E 0 8f 69 00
        E 120 90 31 67
        E 0 90 32 66
        E 0 90 49 67
        E 0 90 4a 66
        E 0 90 4b 64
        E 0 90 4c 65
        E 0 90 4d 64
        E 0 90 61 67
        E 0 90 62 66
        E 0 90 63 64
        E 0 90 64 65
        E 0 90 65 64
        E 0 9f 51 64
        E 0 9f 69 64
        E 120 80 31 00
        E 0 80 32 00
        E 0 80 49 00
        E 0 80 4a 00
        E 0 80 4b 00
        E 0 80 4c 00
        E 0 80 4d 00
        E 0 80 61 00
        E 0 80 62 00
        E 0 80 63 00
        E 0 80 64 00
        E 0 80 65 00
        E 0 8f 51 00
        E 0 8f 69 00
        E 120 90 31 67
        E 0 90 32 66
        E 0 90 49 67
        E 0 90 4a 66
        E 0 90 4b 64
        E 0 90 4c 65
        E 0 90 4d 64
        E 0 90 61 67
        E 0 90 62 66
        E 0 90 63 64
        E 0 90 64 65
        E 0 90 65 64
        E 0 9d 51 64
        E 0 9d 69 64
        E 120 80 31 00
        E 0 80 32 00
        E 0 80 49 00
        E 0 80 4a 00
        E 0 80 4b 00
        E 0 80 4c 00
        E 0 80 4d 00
        E 0 80 61 00
        E 0 80 62 00
        E 0 80 63 00
        E 0 80 64 00
        E 0 80 65 00
        E 0 8d 51 00
        E 0 8d 69 00
        E 120 90 31 67
        E 0 90 32 66
        E 0 90 49 67
        E 0 90 4a 66
        E 0 90 4b 64
        E 0 90 4c 65
        E 0 90 4d 64
        E 0 90 61 67
        E 0 90 62 66
        E 0 90 63 64
        E 0 90 64 65
        E 0 90 65 64
        E 0 9f 51 64
        E 0 9f 69 64
        E 120 80 31 00
        E 0 80 32 00
        E 0 80 49 00
        E 0 80 4a 00
        E 0 80 4b 00
        E 0 80 4c 00
        E 0 80 4d 00
        E 0 80 61 00
        E 0 80 62 00
        E 0 80 63 00
        E 0 80 64 00
        E 0 80 65 00
        E 0 8f 51 00
        E 0 8f 69 00
        E 120 90 6c 66
        E 0 93 4a 64
        E 0 93 4b 66
        E 0 93 4c 67
        E 0 93 4d 66
        E 0 93 62 64
        E 0 93 63 66
        E 0 93 64 67
        E 0 93 65 66
        E 120 80 6c 00
        E 0 83 4a 00
        E 0 83 4b 00
        E 0 83 4c 00
        E 0 83 4d 00
        E 0 83 62 00
        E 0 83 63 00
        E 0 83 64 00
        E 0 83 65 00
        E 120 90 0e 64
        E 0 90 33 66
        E 0 90 34 67
        E 0 90 4a 64
        E 0 90 4b 66
        E 0 90 4c 67
        E 0 90 4d 66
        E 0 90 62 64
        E 0 90 63 66
        E 0 90 64 67
        E 0 90 65 66
        E 0 9f 51 64
        E 0 9f 69 64
        E 120 80 0e 00
        E 0 80 33 00
        E 0 80 34 00
        E 240 80 4a 00
        E 0 80 4b 00
        E 0 80 4c 00
        E 0 80 4d 00
        E 0 80 62 00
        E 0 80 63 00
        E 0 80 64 00
        E 0 80 65 00
        E 0 8f 51 00
        E 0 8f 69 00
        E 120 90 33 66
        E 0 90 34 67
        E 0 90 4a 64
        E 0 90 4b 66
        E 0 90 4c 67
        E 0 90 4d 66
        E 0 90 62 64
        E 0 90 63 66
        E 0 90 64 67
        E 0 90 65 66
        E 0 9f 51 64
        E 0 9f 69 64
        E 120 80 33 00
        E 0 80 34 00
        E 240 80 4a 00
        E 0 80 4b 00
        E 0 80 4c 00
        E 0 80 4d 00
        E 0 80 62 00
        E 0 80 63 00
        E 0 80 64 00
        E 0 80 65 00
        E 0 8f 51 00
        E 0 8f 69 00
        E 120 90 33 66
        E 0 90 34 67
        E 0 90 4a 64
        E 0 90 4b 66
        E 0 90 4c 67
        E 0 90 4d 66
        E 0 90 62 64
        E 0 90 63 66
        E 0 90 64 67
        E 0 90 65 66
        E 0 9f 51 64
        E 0 9f 69 64
        E 120 80 33 00
        E 0 80 34 00
        E 240 80 4a 00
        E 0 80 4b 00
        E 0 80 4c 00
        E 0 80 4d 00
        E 0 80 62 00
        E 0 80 63 00
        E 0 80 64 00
        E 0 80 65 00
        E 0 8f 51 00
        E 0 8f 69 00
        E 120 90 33 66
        E 0 90 34 67
        E 0 90 4a 64
        E 0 90 4b 66
        E 0 90 4c 67
        E 0 90 4d 66
        E 0 90 62 64
        E 0 90 63 66
        E 0 90 64 67
        E 0 90 65 66
        E 0 9f 51 64
        E 0 9f 69 64
        E 120 80 33 00
        E 0 80 34 00
        E 0 80 4a 00
        E 0 80 4b 00
        E 0 80 4c 00
        E 0 80 4d 00
        E 0 80 62 00
        E 0 80 63 00
        E 0 80 64 00
        E 0 80 65 00
        E 0 8f 51 00
        E 0 8f 69 00
        E 120 90 4a 64
        E 0 90 4b 66
        E 0 90 4c 67
        E 0 90 4d 66
        E 0 90 62 64
        E 0 90 63 66
        E 0 90 64 67
        E 0 90 65 66
        E 0 9d 51 64
        E 0 9d 69 64
        E 120 80 4a 00
        E 0 80 4b 00
        E 0 80 4c 00
        E 0 80 4d 00
        E 0 80 62 00
        E 0 80 63 00
        E 0 80 64 00
        E 0 80 65 00
        E 0 8d 51 00
        E 0 8d 69 00
        E 120 90 33 66
        E 0 90 34 67
        E 0 90 4a 64
        E 0 90 4b 66
        E 0 90 4c 67
        E 0 90 4d 66
        E 0 90 62 64
        E 0 90 63 66
        E 0 90 64 67
        E 0 90 65 66
        E 0 9f 51 64
        E 0 9f 69 64
        E 120 80 33 00
        E 0 80 34 00
        E 0 80 4a 00
        E 0 80 4b 00
        E 0 80 4c 00
        E 0 80 4d 00
        E 0 80 62 00
        E 0 80 63 00
        E 0 80 64 00
        E 0 80 65 00
        E 0 8f 51 00
        E 0 8f 69 00
        E 120 90 33 66
        E 0 90 34 67
        E 0 90 4a 64
        E 0 90 4b 66
        E 0 90 4c 67
        E 0 90 4d 66
        E 0 90 62 64
        E 0 90 63 66
        E 0 90 64 67
        E 0 90 65 66
        E 0 9d 51 64
        E 0 9d 69 64
        E 120 80 33 00
        E 0 80 34 00
        E 0 80 4a 00
        E 0 80 4b 00
        E 0 80 4c 00
        E 0 80 4d 00
        E 0 80 62 00
        E 0 80 63 00
        E 0 80 64 00
        E 0 80 65 00
        E 0 8d 51 00
        E 0 8d 69 00
        E 120 90 33 66
        E 0 90 34 67
        E 0 90 4a 64
        E 0 90 4b 66
        E 0 90 4c 67
        E 0 90 4d 66
        E 0 90 62 64
        E 0 90 63 66
        E 0 90 64 67
        E 0 90 65 66
        E 0 9f 51 64
        E 0 9f 69 64
        E 120 80 33 00
        E 0 80 34 00
        E 240 80 4a 00
        E 0 80 4b 00
        E 0 80 4c 00
        E 0 80 4d 00
        E 0 80 62 00
        E 0 80 63 00
        E 0 80 64 00
        E 0 80 65 00
        E 0 8f 51 00
        E 0 8f 69 00
        E 120 90 33 66
        E 0 90 34 67
        E 0 90 4a 64
        E 0 90 4b 66
        E 0 90 4c 67
        E 0 90 4d 66
        E 0 90 62 64
        E 0 90 63 66
        E 0 90 64 67
        E 0 90 65 66
        E 0 9f 51 64
        E 0 9f 69 64
        E 120 80 33 00
        E 0 80 34 00
        E 240 80 4a 00
        E 0 80 4b 00
        E 0 80 4c 00
        E 0 80 4d 00
        E 0 80 62 00
        E 0 80 63 00
        E 0 80 64 00
        E 0 80 65 00
        E 0 8f 51 00
        E 0 8f 69 00
        E 120 90 6c 65
        E 0 93 31 67
        E 0 93 32 66
        E 0 93 49 67
        E 0 93 4a 66
        E 0 93 4b 64
        E 0 93 4c 65
        E 0 93 4d 64
        E 0 93 61 67
        E 0 93 62 66
        E 0 93 63 64
        E 0 93 64 65
        E 0 93 65 64
        E 120 80 6c 00
        E 0 83 31 00
        E 0 83 32 00
        E 0 83 49 00
        E 0 83 4a 00
        E 0 83 4b 00
        E 0 83 4c 00
        E 0 83 4d 00
        E 0 83 61 00
        E 0 83 62 00
        E 0 83 63 00
        E 0 83 64 00
        E 0 83 65 00
        E 120 93 49 67
        E 0 93 4a 66
        E 0 93 4b 64
        E 0 93 4c 65
        E 0 93 4d 64
        E 0 93 61 67
        E 0 93 62 66
        E 0 93 63 64
        E 0 93 64 65
        E 0 93 65 64
        E 120 83 49 00
        E 0 83 4a 00
        E 0 83 4b 00
        E 0 83 4c 00
        E 0 83 4d 00
        E 0 83 61 00
        E 0 83 62 00
        E 0 83 63 00
        E 0 83 64 00
        E 0 83 65 00
        <X 120 0
          /wFbYmVnaW5fcGcgc29uZ190cmFpbmVyX3BnXzVd
        >
        <X 0 0
          /wFbZW5kX3BnIHNvbmdfdHJhaW5lcl9wZ180XQ==
        >
        E 0 90 0c 64
        E 0 90 31 67
        E 0 90 32 66
        E 0 90 49 67
        E 0 90 4a 66
        E 0 90 4b 64
        E 0 90 4c 65
        E 0 90 4d 64
        E 0 90 61 67
        E 0 90 62 66
        E 0 90 63 64
        E 0 90 64 65
        E 0 90 65 64
        E 0 90 74 60
        E 0 9f 51 64
        E 0 9f 69 64
        E 120 80 0c 00
        E 0 80 31 00
        E 0 80 32 00
        E 240 80 49 00
        E 0 80 4a 00
        E 0 80 4b 00
        E 0 80 4c 00
        E 0 80 4d 00
        E 0 80 61 00
        E 0 80 62 00
        E 0 80 63 00
        E 0 80 64 00
        E 0 80 65 00
        E 0 8f 51 00
        E 0 8f 69 00
        E 120 90 31 67
        E 0 90 32 66
        E 0 90 49 67
        E 0 90 4a 66
        E 0 90 4b 64
        E 0 90 4c 65
        E 0 90 4d 64
        E 0 90 61 67
        E 0 90 62 66
        E 0 90 63 64
        E 0 90 64 65
        E 0 90 65 64
        E 0 9f 51 64
        E 0 9f 69 64
        E 120 80 31 00
        E 0 80 32 00
        E 240 80 49 00
        E 0 80 4a 00
        E 0 80 4b 00
        E 0 80 4c 00
        E 0 80 4d 00
        E 0 80 61 00
        E 0 80 62 00
        E 0 80 63 00
        E 0 80 64 00
        E 0 80 65 00
        E 0 8f 51 00
        E 0 8f 69 00
        E 120 90 19 67
        E 0 90 31 67
        E 0 90 32 66
        E 0 90 49 67
        E 0 90 4a 66
        E 0 90 4b 64
        E 0 90 4c 65
        E 0 90 4d 64
        E 0 90 61 67
        E 0 90 62 66
        E 0 90 63 64
        E 0 90 64 65
        E 0 90 65 64
        E 0 9f 51 64
        E 0 9f 69 64
        E 120 80 19 00
        E 0 80 31 00
        E 0 80 32 00
        E 240 80 49 00
        E 0 80 4a 00
        E 0 80 4b 00
        E 0 80 4c 00
        E 0 80 4d 00
        E 0 80 61 00
        E 0 80 62 00
        E 0 80 63 00
        E 0 80 64 00
        E 0 80 65 00
        E 0 8f 51 00
        E 0 8f 69 00
        E 120 90 19 67
        E 0 90 31 67
        E 0 90 32 66
        E 0 90 49 67
        E 0 90 4a 66
        E 0 90 4b 64
        E 0 90 4c 65
        E 0 90 4d 64
        E 0 90 61 67
        E 0 90 62 66
        E 0 90 63 64
        E 0 90 64 65
        E 0 90 65 64
        E 0 9f 51 64
        E 0 9f 69 64
        E 120 80 19 00
        E 0 80 31 00
        E 0 80 32 00
        E 0 80 49 00
        E 0 80 4a 00
        E 0 80 4b 00
        E 0 80 4c 00
        E 0 80 4d 00
        E 0 80 61 00
        E 0 80 62 00
        E 0 80 63 00
        E 0 80 64 00
        E 0 80 65 00
        E 0 8f 51 00
        E 0 8f 69 00
        E 120 90 49 67
        E 0 90 4a 66
        E 0 90 4b 64
        E 0 90 4c 65
        E 0 90 4d 64
        E 0 90 61 67
        E 0 90 62 66
        E 0 90 63 64
        E 0 90 64 65
        E 0 90 65 64
        E 0 9d 51 64
        E 0 9d 69 64
        E 120 80 49 00
        E 0 80 4a 00
        E 0 80 4b 00
        E 0 80 4c 00
        E 0 80 4d 00
        E 0 80 61 00
        E 0 80 62 00
        E 0 80 63 00
        E 0 80 64 00
        E 0 80 65 00
        E 0 8d 51 00
        E 0 8d 69 00
        <X 120 0
          /wFbcGdfbm9ybSBzb25nX3RyYWluZXJfcGdfNV0=
        >
        E 0 90 19 67
        E 0 90 31 67
        E 0 90 32 66
        E 0 90 49 67
        E 0 90 4a 66
        E 0 90 4b 64
        E 0 90 4c 65
        E 0 90 4d 64
        E 0 90 61 67
        E 0 90 62 66
        E 0 90 63 64
        E 0 90 64 65
        E 0 90 65 64
        E 0 9f 51 64
        E 0 9f 69 64
        E 120 80 19 00
        E 0 80 31 00
        E 0 80 32 00
        E 0 80 49 00
        E 0 80 4a 00
        E 0 80 4b 00
        E 0 80 4c 00
        E 0 80 4d 00
        E 0 80 61 00
        E 0 80 62 00
        E 0 80 63 00
        E 0 80 64 00
        E 0 80 65 00
        E 0 8f 51 00
        E 0 8f 69 00
        E 120 90 49 67
        E 0 90 4a 66
        E 0 90 4b 64
        E 0 90 4c 65
        E 0 90 4d 64
        E 0 90 61 67
        E 0 90 62 66
        E 0 90 63 64
        E 0 90 64 65
        E 0 90 65 64
        E 0 9d 51 64
        E 0 9d 69 64
        E 120 80 49 00
        E 0 80 4a 00
        E 0 80 4b 00
        E 0 80 4c 00
        E 0 80 4d 00
        E 0 80 61 00
        E 0 80 62 00
        E 0 80 63 00
        E 0 80 64 00
        E 0 80 65 00
        E 0 8d 51 00
        E 0 8d 69 00
        E 120 90 31 67
        E 0 90 32 66
        E 0 90 49 67
        E 0 90 4a 66
        E 0 90 4b 64
        E 0 90 4c 65
        E 0 90 4d 64
        E 0 90 61 67
        E 0 90 62 66
        E 0 90 63 64
        E 0 90 64 65
        E 0 90 65 64
        E 0 9f 51 64
        E 0 9f 69 64
        E 120 80 31 00
        E 0 80 32 00
        E 240 80 49 00
        E 0 80 4a 00
        E 0 80 4b 00
        E 0 80 4c 00
        E 0 80 4d 00
        E 0 80 61 00
        E 0 80 62 00
        E 0 80 63 00
        E 0 80 64 00
        E 0 80 65 00
        E 0 8f 51 00
        E 0 8f 69 00
        E 120 90 31 67
        E 0 90 32 66
        E 0 90 49 67
        E 0 90 4a 66
        E 0 90 4b 64
        E 0 90 4c 65
        E 0 90 4d 64
        E 0 90 61 67
        E 0 90 62 66
        E 0 90 63 64
        E 0 90 64 65
        E 0 90 65 64
        E 0 9f 51 64
        E 0 9f 69 64
        E 120 80 31 00
        E 0 80 32 00
        E 0 80 49 00
        E 0 80 4a 00
        E 0 80 4b 00
        E 0 80 4c 00
        E 0 80 4d 00
        E 0 80 61 00
        E 0 80 62 00
        E 0 80 63 00
        E 0 80 64 00
        E 0 80 65 00
        E 0 8f 51 00
        E 0 8f 69 00
        E 120 90 49 67
        E 0 90 4a 66
        E 0 90 4b 64
        E 0 90 4c 65
        E 0 90 4d 64
        E 0 90 61 67
        E 0 90 62 66
        E 0 90 63 64
        E 0 90 64 65
        E 0 90 65 64
        E 0 9d 51 64
        E 0 9d 69 64
        E 120 80 49 00
        E 0 80 4a 00
        E 0 80 4b 00
        E 0 80 4c 00
        E 0 80 4d 00
        E 0 80 61 00
        E 0 80 62 00
        E 0 80 63 00
        E 0 80 64 00
        E 0 80 65 00
        E 0 8d 51 00
        E 0 8d 69 00
        E 120 90 31 67
        E 0 90 32 66
        E 0 90 49 67
        E 0 90 4a 66
        E 0 90 4b 64
        E 0 90 4c 65
        E 0 90 4d 64
        E 0 90 61 67
        E 0 90 62 66
        E 0 90 63 64
        E 0 90 64 65
        E 0 90 65 64
        E 120 80 31 00
        E 0 80 32 00
        E 0 80 49 00
        E 0 80 4a 00
        E 0 80 4b 00
        E 0 80 4c 00
        E 0 80 4d 00
        E 0 80 61 00
        E 0 80 62 00
        E 0 80 63 00
        E 0 80 64 00
        E 0 80 65 00
        E 360 90 0e 64
        E 0 90 33 66
        E 0 90 34 67
        E 0 90 4a 64
        E 0 90 4b 66
        E 0 90 4c 67
        E 0 90 4d 66
        E 0 90 62 64
        E 0 90 63 66
        E 0 90 64 67
        E 0 90 65 66
        E 0 90 6c 66
        E 0 9f 51 64
        E 0 9f 69 64
        E 120 80 74 00
        E 0 80 0e 00
        E 0 80 6c 00
        E 3240 80 33 00
        E 0 80 34 00
        E 0 80 4a 00
        E 0 80 4b 00
        E 0 80 4c 00
        E 0 80 4d 00
        E 0 80 62 00
        E 0 80 63 00
        E 0 80 64 00
        E 0 80 65 00
        E 0 8f 51 00
        E 0 8f 69 00
        E 480 90 33 66
        E 0 90 34 65
        E 0 90 4a 64
        E 0 90 4b 66
        E 0 90 4c 65
        E 0 90 4d 66
        E 0 90 62 64
        E 0 90 63 66
        E 0 90 64 65
        E 0 90 65 66
        E 0 90 6c 65
        E 0 9f 51 64
        E 0 9f 69 64
        E 120 80 6c 00
        E 3240 80 33 00
        E 0 80 34 00
        E 0 80 4a 00
        E 0 80 4b 00
        E 0 80 4c 00
        E 0 80 4d 00
        E 0 80 62 00 1
        E 0 80 63 00 1
        E 0 80 64 00 1
        E 0 80 65 00 1
        E 0 8f 51 00 1
        E 0 8f 69 00
        E 240 90 6c 66
        E 0 93 48 67
        E 0 93 49 66
        E 0 93 4a 64
        E 0 93 4b 64
        E 0 93 4c 64
        E 0 93 4d 67
        E 0 93 60 67
        E 0 93 61 66
        E 0 93 62 64
        E 0 93 63 64
        E 0 93 64 64
        E 0 93 65 67
        E 120 80 6c 00
        E 0 83 48 00
        E 0 83 49 00
        E 0 83 4a 00
        E 0 83 4b 00
        E 0 83 4c 00
        E 0 83 4d 00
        E 0 83 60 00
        E 0 83 61 00
        E 0 83 62 00
        E 0 83 63 00
        E 0 83 64 00
        E 0 83 65 00
        <X 120 0
          /wFbZW5kX3BnIHNvbmdfdHJhaW5lcl9wZ181XQ==
        >
        E 0 90 07 64
        E 0 90 18 67
        E 0 90 30 67
        E 0 90 31 66
        E 0 90 48 67
        E 0 90 49 66
        E 0 90 4a 64
        E 0 90 4b 64
        E 0 90 4c 64
        E 0 90 4d 67
        E 0 90 60 67
        E 0 90 61 66
        E 0 90 62 64
        E 0 90 63 64
        E 0 90 64 64
        E 0 90 65 67
        E 0 9f 51 64
        E 0 9f 69 64
        E 120 80 07 00 -1
        E 0 80 18 00
        E 0 80 30 00
        E 0 80 31 00
        E 240 80 48 00
        E 0 80 49 00
        E 0 80 4a 00
        E 0 80 4b 00
        E 0 80 4c 00
        E 0 80 4d 00
        E 0 80 60 00
        E 0 80 61 00
        E 0 80 62 00
        E 0 80 63 00
        E 0 80 64 00
        E 0 80 65 00
        E 0 8f 51 00
        E 0 8f 69 00
        E 120 90 30 67
        E 0 90 31 66
        E 0 90 48 67
        E 0 90 49 66
        E 0 90 4a 64
        E 0 90 4b 64
        E 0 90 4c 64
        E 0 90 4d 67
        E 0 90 60 67
        E 0 90 61 66
        E 0 90 62 64
        E 0 90 63 64
        E 0 90 64 64
        E 0 90 65 67
        E 0 9f 51 64
        E 0 9f 69 64
        E 120 80 30 00
        E 0 80 31 00
        E 0 80 48 00
        E 0 80 49 00
        E 0 80 4a 00
        E 0 80 4b 00
        E 0 80 4c 00
        E 0 80 4d 00
        E 0 80 60 00
        E 0 80 61 00
        E 0 80 62 00
        E 0 80 63 00
        E 0 80 64 00
        E 0 80 65 00
        E 0 8f 51 00
        E 0 8f 69 00
        E 120 93 48 66
        E 0 93 49 66
        E 0 93 4a 64
        E 0 93 4b 64
        E 0 93 4c 64
        E 0 93 4d 67
        E 0 93 60 66
        E 0 93 61 66
        E 0 93 62 64
        E 0 93 63 64
        E 0 93 64 64
        E 0 93 65 67
        E 120 83 48 00
        E 0 83 49 00
        E 0 83 4a 00
        E 0 83 4b 00
        E 0 83 4c 00
        E 0 83 4d 00
        E 0 83 60 00
        E 0 83 61 00
        E 0 83 62 00
        E 0 83 63 00
        E 0 83 64 00
        E 0 83 65 00
        E 120 90 07 64
        E 0 90 10 64
        E 0 90 18 66
        E 0 90 30 66
        E 0 90 31 66
        E 0 90 48 66
        E 0 90 49 66
        E 0 90 4a 64
        E 0 90 4b 64
        E 0 90 4c 64
        E 0 90 4d 67
        E 0 90 60 66
        E 0 90 61 66
        E 0 90 62 64
        E 0 90 63 64
        E 0 90 64 64
        E 0 90 65 67
        E 0 9f 51 64
        E 0 9f 69 64
        E 120 80 07 00
        E 0 80 10 00
        E 0 80 18 00
        E 0 80 30 00
        E 0 80 31 00
        E 240 80 48 00
        E 0 80 49 00
        E 0 80 4a 00
        E 0 80 4b 00
        E 0 80 4c 00
        E 0 80 4d 00
        E 0 80 60 00
        E 0 80 61 00
        E 0 80 62 00
        E 0 80 63 00
        E 0 80 64 00
        E 0 80 65 00
        E 0 8f 51 00
        E 0 8f 69 00
        E 120 90 30 66
        E 0 90 31 66
        E 0 90 48 66
        E 0 90 49 66
        E 0 90 4a 64
        E 0 90 4b 64
        E 0 90 4c 64
        E 0 90 4d 67
        E 0 90 60 66
        E 0 90 61 66
        E 0 90 62 64
        E 0 90 63 64
        E 0 90 64 64
        E 0 90 65 67
        E 0 9f 51 64
        E 0 9f 69 64
        E 120 80 30 00
        E 0 80 31 00
        E 0 80 48 00
        E 0 80 49 00
        E 0 80 4a 00
        E 0 80 4b 00
        E 0 80 4c 00
        E 0 80 4d 00
        E 0 80 60 00
        E 0 80 61 00
        E 0 80 62 00
        E 0 80 63 00
        E 0 80 64 00
        E 0 80 65 00
        E 0 8f 51 00
        E 0 8f 69 00
        E 120 93 48 64
        E 0 93 49 66
        E 0 93 4a 66
        E 0 93 4b 64
        E 0 93 4c 64
        E 0 93 4d 64
        E 0 93 60 64
        E 0 93 61 66
        E 0 93 62 66
        E 0 93 63 64
        E 0 93 64 64
        E 0 93 65 64
        E 120 83 48 00
        E 0 83 49 00
        E 0 83 4a 00
        E 0 83 4b 00
        E 0 83 4c 00
        E 0 83 4d 00
        E 0 83 60 00
        E 0 83 61 00
        E 0 83 62 00
        E 0 83 63 00
        E 0 83 64 00
        E 0 83 65 00
        E 120 90 04 64 -1
        E 0 90 19 66
        E 0 90 31 66
        E 0 90 32 66
        E 0 90 48 64
        E 0 90 49 66
        E 0 90 4a 66
        E 0 90 4b 64
        E 0 90 4c 64
        E 0 90 4d 64
        E 0 90 60 64 -1
        E 0 90 61 66 -1
        E 0 90 62 66 -1
        E 0 90 63 64 -1
        E 0 90 64 64 -1
        E 0 90 65 64 -1
        E 0 9f 51 64
        E 0 9f 69 64
        E 120 80 04 00
        E 0 80 19 00
        E 0 80 31 00
        E 0 80 32 00
        E 240 80 48 00
        E 0 80 49 00
        E 0 80 4a 00
        E 0 80 4b 00
        E 0 80 4c 00
        E 0 80 4d 00
        E 0 80 60 00
        E 0 80 61 00
        E 0 80 62 00
        E 0 80 63 00
        E 0 80 64 00
        E 0 80 65 00
        E 0 8f 51 00
        E 0 8f 69 00
        E 120 90 19 66
        E 0 90 31 66
        E 0 90 32 66
        E 0 90 48 64
        E 0 90 49 66
        E 0 90 4a 66
        E 0 90 4b 64
        E 0 90 4c 64
        E 0 90 4d 64
        E 0 90 60 64
        E 0 90 61 66
        E 0 90 62 66
        E 0 90 63 64
        E 0 90 64 64
        E 0 90 65 64
        E 0 9f 51 64
        E 0 9f 69 64
        E 120 80 19 00
        E 0 80 31 00
        E 0 80 32 00
        E 240 80 48 00
        E 0 80 49 00
        E 0 80 4a 00
        E 0 80 4b 00
        E 0 80 4c 00
        E 0 80 4d 00
        E 0 80 60 00
        E 0 80 61 00
        E 0 80 62 00
        E 0 80 63 00
        E 0 80 64 00
        E 0 80 65 00
        E 0 8f 51 00
        E 0 8f 69 00
        E 120 90 19 66
        E 0 90 31 66
        E 0 90 32 66
        E 0 90 48 64
        E 0 90 49 66
        E 0 90 4a 66
        E 0 90 4b 64
        E 0 90 4c 64
        E 0 90 4d 64
        E 0 90 60 64
        E 0 90 61 66
        E 0 90 62 66
        E 0 90 63 64
        E 0 90 64 64
        E 0 90 65 64
        E 0 9f 51 64
        E 0 9f 69 64
        E 120 80 19 00
        E 0 80 31 00
        E 0 80 32 00
        E 0 80 60 00
        E 0 80 61 00
        E 0 80 62 00
        E 0 80 63 00
        E 0 80 64 00
        E 0 80 65 00
        E 0 8f 51 00
        E 0 8f 69 00
        E 120 90 60 64
        E 0 90 61 66
        E 0 90 62 66
        E 0 90 63 64
        E 0 90 64 64
        E 0 90 65 64
        E 0 9d 51 64
        E 0 9d 69 64
        E 120 80 48 00
        E 0 80 49 00
        E 0 80 4a 00
        E 0 80 4b 00
        E 0 80 4c 00
        E 0 80 4d 00
        E 0 80 60 00
        E 0 80 61 00
        E 0 80 62 00
        E 0 80 63 00
        E 0 80 64 00
        E 0 80 65 00
        E 0 8d 51 00
        E 0 8d 69 00
        E 120 90 31 66
        E 0 90 32 66
        E 0 90 48 64
        E 0 90 49 66
        E 0 90 4a 66
        E 0 90 4b 64
        E 0 90 4c 64
        E 0 90 4d 64
        E 0 90 60 64
        E 0 90 61 66
        E 0 90 62 66
        E 0 90 63 64
        E 0 90 64 64
        E 0 90 65 64
        E 0 9f 51 64
        E 0 9f 69 64
        E 120 80 31 00
        E 0 80 32 00
        E 0 80 48 00
        E 0 80 49 00
        E 0 80 4a 00
        E 0 80 4b 00
        E 0 80 4c 00
        E 0 80 4d 00
        E 0 80 60 00
        E 0 80 61 00
        E 0 80 62 00
        E 0 80 63 00
        E 0 80 64 00
        E 0 80 65 00
        E 0 8f 51 00
        E 0 8f 69 00
        E 120 90 6c 65
        E 0 93 49 67
        E 0 93 4a 66
        E 0 93 4b 64
        E 0 93 4c 65
        E 0 93 4d 64
        E 0 93 61 67
        E 0 93 62 66
        E 0 93 63 64
        E 0 93 64 65
        E 0 93 65 64
        E 120 80 6c 00
        E 0 83 49 00
        E 0 83 4a 00
        E 0 83 4b 00
        E 0 83 4c 00
        E 0 83 4d 00
        E 0 83 61 00
        E 0 83 62 00
        E 0 83 63 00
        E 0 83 64 00
        E 0 83 65 00
        E 120 90 0c 64
        E 0 90 31 67
        E 0 90 32 66
        E 0 90 49 67
        E 0 90 4a 66
        E 0 90 4b 64
        E 0 90 4c 65
        E 0 90 4d 64
        E 0 90 61 67
        E 0 90 62 66
        E 0 90 63 64
        E 0 90 64 65
        E 0 90 65 64
        E 0 9f 51 64
        E 0 9f 69 64
        E 120 80 0c 00
        E 0 80 31 00
        E 0 80 32 00
        E 240 80 49 00
        E 0 80 4a 00
        E 0 80 4b 00
        E 0 80 4c 00
        E 0 80 4d 00
        E 0 80 61 00
        E 0 80 62 00
        E 0 80 63 00
        E 0 80 64 00
        E 0 80 65 00
        E 0 8f 51 00
        E 0 8f 69 00
        E 120 90 31 67
        E 0 90 32 66
        E 0 90 49 67
        E 0 90 4a 66
        E 0 90 4b 64
        E 0 90 4c 65
        E 0 90 4d 64
        E 0 90 61 67
        E 0 90 62 66
        E 0 90 63 64
        E 0 90 64 65
        E 0 90 65 64
        E 0 9f 51 64
        E 0 9f 69 64
        E 120 80 31 00
        E 0 80 32 00
        E 0 80 49 00
        E 0 80 4a 00
        E 0 80 4b 00
        E 0 80 4c 00
        E 0 80 4d 00
        E 0 80 61 00
        E 0 80 62 00
        E 0 80 63 00
        E 0 80 64 00
        E 0 80 65 00
        E 0 8f 51 00
        E 0 8f 69 00
        E 120 93 49 67
        E 0 93 4a 66
        E 0 93 4b 64
        E 0 93 4c 65
        E 0 93 4d 64
        E 0 93 61 67
        E 0 93 62 66
        E 0 93 63 64
        E 0 93 64 65
        E 0 93 65 64
        E 120 83 49 00
        E 0 83 4a 00
        E 0 83 4b 00
        E 0 83 4c 00
        E 0 83 4d 00
        E 0 83 61 00
        E 0 83 62 00
        E 0 83 63 00
        E 0 83 64 00
        E 0 83 65 00
        E 120 90 0c 64
        E 0 90 10 64
        E 0 90 31 66
        E 0 90 32 66
        E 0 90 49 66
        E 0 90 4a 66
        E 0 90 4b 64
        E 0 90 4c 65
        E 0 90 4d 64
        E 0 90 61 66
        E 0 90 62 66
        E 0 90 63 64
        E 0 90 64 65
        E 0 90 65 64
        E 0 9f 51 64
        E 0 9f 69 64
        E 120 80 0c 00
        E 0 80 10 00
        E 0 80 31 00
        E 0 80 32 00
        E 0 80 49 00
        E 0 80 4a 00
        E 0 80 4b 00
        E 0 80 4c 00
        E 0 80 4d 00
        E 0 80 61 00
        E 0 80 62 00
        E 0 80 63 00
        E 0 80 64 00
        E 0 80 65 00
        E 0 8f 51 00
        E 0 8f 69 00
        E 120 90 31 66
        E 0 90 32 66
        E 0 90 49 66
        E 0 90 4a 66
        E 0 90 4b 64
        E 0 90 4c 65
        E 0 90 4d 64
        E 0 90 61 66
        E 0 90 62 66
        E 0 90 63 64
        E 0 90 64 65
        E 0 90 65 64
        E 0 9d 51 64
        E 0 9d 69 64
        E 120 80 31 00
        E 0 80 32 00
        E 0 80 49 00
        E 0 80 4a 00
        E 0 80 4b 00
        E 0 80 4c 00
        E 0 80 4d 00
        E 0 80 61 00
        E 0 80 62 00
        E 0 80 63 00
        E 0 80 64 00
        E 0 80 65 00
        E 0 8d 51 00
        E 0 8d 69 00
        E 120 90 31 66
        E 0 90 32 66
        E 0 90 49 66
        E 0 90 4a 66
        E 0 90 4b 64
        E 0 90 4c 65
        E 0 90 4d 64
        E 0 90 61 66
        E 0 90 62 66
        E 0 90 63 64
        E 0 90 64 65
        E 0 90 65 64
        E 0 9f 51 64
        E 0 9f 69 64
        E 120 80 31 00
        E 0 80 32 00
        E 0 80 49 00
        E 0 80 4a 00
        E 0 80 4b 00
        E 0 80 4c 00
        E 0 80 4d 00
        E 0 80 61 00
        E 0 80 62 00
        E 0 80 63 00
        E 0 80 64 00
        E 0 80 65 00
        E 0 8f 51 00
        E 0 8f 69 00
        E 120 93 49 66
        E 0 93 4a 66
        E 0 93 4b 64
        E 0 93 4c 65
        E 0 93 4d 64
        E 0 93 61 66
        E 0 93 62 66
        E 0 93 63 64
        E 0 93 64 65
        E 0 93 65 64
        E 120 83 49 00
        E 0 83 4a 00
        E 0 83 4b 00
        E 0 83 4c 00
        E 0 83 4d 00
        E 0 83 61 00
        E 0 83 62 00
        E 0 83 63 00
        E 0 83 64 00
        E 0 83 65 00
        E 120 90 09 64
        E 0 90 1a 66
        E 0 90 32 66
        E 0 90 33 66
        E 0 90 49 64
        E 0 90 4a 66
        E 0 90 4b 66
        E 0 90 4c 65
        E 0 90 4d 64
        E 0 90 61 64
        E 0 90 62 66
        E 0 90 63 66
        E 0 90 64 65
        E 0 90 65 64
        E 0 9f 51 64
        E 0 9f 69 64
        E 120 80 09 00
        E 0 80 1a 00
        E 0 80 32 00
        E 0 80 33 00
        E 240 80 49 00
        E 0 80 4a 00
        E 0 80 4b 00
        E 0 80 4c 00
        E 0 80 4d 00
        E 0 80 61 00
        E 0 80 62 00
        E 0 80 63 00
        E 0 80 64 00
        E 0 80 65 00
        E 0 8f 51 00
        E 0 8f 69 00
        E 120 90 1a 66
        E 0 90 32 66
        E 0 90 33 66
        E 0 90 49 64
        E 0 90 4a 66
        E 0 90 4b 66
        E 0 90 4c 65
        E 0 90 4d 64
        E 0 90 61 64
        E 0 90 62 66
        E 0 90 63 66
        E 0 90 64 65
        E 0 90 65 64
        E 0 9f 51 64
        E 0 9f 69 64
        E 120 80 1a 00
        E 0 80 32 00
        E 0 80 33 00
        E 0 80 49 00
        E 0 80 4a 00
        E 0 80 4b 00
        E 0 80 4c 00
        E 0 80 4d 00
        E 0 80 61 00
        E 0 80 62 00
        E 0 80 63 00
        E 0 80 64 00
        E 0 80 65 00
        E 0 8f 51 00
        E 0 8f 69 00
        E 120 90 49 64
        E 0 90 4a 66
        E 0 90 4b 66
        E 0 90 4c 65
        E 0 90 4d 64
        E 0 90 61 64
        E 0 90 62 66
        E 0 90 63 66
        E 0 90 64 65
        E 0 90 65 64
        E 0 9d 51 64
        E 0 9d 69 64
        E 120 80 49 00
        E 0 80 4a 00
        E 0 80 4b 00
        E 0 80 4c 00
        E 0 80 4d 00
        E 0 80 61 00
        E 0 80 62 00
        E 0 80 63 00
        E 0 80 64 00
        E 0 80 65 00
        E 0 8d 51 00
        E 0 8d 69 00
        E 120 90 1a 66
        E 0 90 32 66
        E 0 90 33 66
        E 0 90 49 64
        E 0 90 4a 66
        E 0 90 4b 66
        E 0 90 4c 65
        E 0 90 4d 64
        E 0 90 61 64
        E 0 90 62 66
        E 0 90 63 66
        E 0 90 64 65
        E 0 90 65 64
        E 0 9f 51 64
        E 0 9f 69 64
        E 120 80 1a 00
        E 0 80 32 00
        E 0 80 33 00
        E 0 80 49 00
        E 0 80 4a 00
        E 0 80 4b 00
        E 0 80 4c 00
        E 0 80 4d 00
        E 0 80 61 00
        E 0 80 62 00
        E 0 80 63 00
        E 0 80 64 00
        E 0 80 65 00
        E 0 8f 51 00
        E 0 8f 69 00
        E 120 90 49 64
        E 0 90 4a 66
        E 0 90 4b 66
        E 0 90 4c 64
        E 0 90 4d 64
        E 0 90 61 64
        E 0 90 62 66
        E 0 90 63 66
        E 0 90 64 64
        E 0 90 65 64
        E 0 9d 51 64
        E 0 9d 69 64
        E 120 80 49 00
        E 0 80 4a 00
        E 0 80 4b 00
        E 0 80 4c 00
        E 0 80 4d 00
        E 0 80 61 00
        E 0 80 62 00
        E 0 80 63 00
        E 0 80 64 00
        E 0 80 65 00
        E 0 8d 51 00
        E 0 8d 69 00
        E 120 90 1a 66
        E 0 90 32 66
        E 0 90 33 66
        E 0 90 49 64
        E 0 90 4a 66
        E 0 90 4b 66
        E 0 90 4c 64
        E 0 90 4d 64
        E 0 90 61 64
        E 0 90 62 66
        E 0 90 63 66
        E 0 90 64 64
        E 0 90 65 64
        E 0 9f 51 64
        E 0 9f 69 64
        E 120 80 1a 00
        E 0 80 32 00
        E 0 80 33 00
        E 0 80 49 00
        E 0 80 4a 00
        E 0 80 4b 00
        E 0 80 4c 00
        E 0 80 4d 00
        E 0 80 61 00
        E 0 80 62 00
        E 0 80 63 00
        E 0 80 64 00
        E 0 80 65 00
        E 0 8f 51 00
        E 0 8f 69 00
        E 120 90 6c 66
        E 0 93 48 67
        E 0 93 49 66
        E 0 93 4a 64
        E 0 93 4b 64
        E 0 93 4c 64
        E 0 93 4d 67
        E 0 93 60 67
        E 0 93 61 66
        E 0 93 62 64
        E 0 93 63 64
        E 0 93 64 64
        E 0 93 65 67
        E 120 80 6c 00
        E 0 83 48 00
        E 0 83 49 00
        E 0 83 4a 00
        E 0 83 4b 00
        E 0 83 4c 00
        E 0 83 4d 00
        E 0 83 60 00
        E 0 83 61 00
        E 0 83 62 00
        E 0 83 63 00
        E 0 83 64 00
        E 0 83 65 00
        E 120 90 07 64
        E 0 90 18 67
        E 0 90 30 67
        E 0 90 31 66
        E 0 90 48 67
        E 0 90 49 66
        E 0 90 4a 64
        E 0 90 4b 64
        E 0 90 4c 64
        E 0 90 4d 67
        E 0 90 60 67
        E 0 90 61 66
        E 0 90 62 64
        E 0 90 63 64
        E 0 90 64 64
        E 0 90 65 67
        E 0 9f 51 64
        E 0 9f 69 64
        E 120 80 07 00 -1
        E 0 80 18 00
        E 0 80 30 00
        E 0 80 31 00
        E 240 80 48 00
        E 0 80 49 00
        E 0 80 4a 00
        E 0 80 4b 00
        E 0 80 4c 00
        E 0 80 4d 00
        E 0 80 60 00
        E 0 80 61 00
        E 0 80 62 00
        E 0 80 63 00
        E 0 80 64 00
        E 0 80 65 00
        E 0 8f 51 00
        E 0 8f 69 00
        E 120 90 30 67
        E 0 90 31 66
        E 0 90 48 67
        E 0 90 49 66
        E 0 90 4a 64
        E 0 90 4b 64
        E 0 90 4c 64
        E 0 90 4d 67
        E 0 90 60 67
        E 0 90 61 66
        E 0 90 62 64
        E 0 90 63 64
        E 0 90 64 64
        E 0 90 65 67
        E 0 9f 51 64
        E 0 9f 69 64
        E 120 80 30 00
        E 0 80 31 00
        E 0 80 48 00
        E 0 80 49 00
        E 0 80 4a 00
        E 0 80 4b 00
        E 0 80 4c 00
        E 0 80 4d 00
        E 0 80 60 00
        E 0 80 61 00
        E 0 80 62 00
        E 0 80 63 00
        E 0 80 64 00
        E 0 80 65 00
        E 0 8f 51 00
        E 0 8f 69 00
        E 120 93 48 66
        E 0 93 49 66
        E 0 93 4a 64
        E 0 93 4b 64
        E 0 93 4c 64
        E 0 93 4d 67
        E 0 93 60 66
        E 0 93 61 66
        E 0 93 62 64
        E 0 93 63 64
        E 0 93 64 64
        E 0 93 65 67
        E 120 83 48 00
        E 0 83 49 00
        E 0 83 4a 00
        E 0 83 4b 00
        E 0 83 4c 00
        E 0 83 4d 00
        E 0 83 60 00
        E 0 83 61 00
        E 0 83 62 00
        E 0 83 63 00
        E 0 83 64 00
        E 0 83 65 00
        E 120 90 07 64
        E 0 90 10 64
        E 0 90 18 66
        E 0 90 30 66
        E 0 90 31 66
        E 0 90 48 66
        E 0 90 49 66
        E 0 90 4a 64
        E 0 90 4b 64
        E 0 90 4c 64
        E 0 90 4d 67
        E 0 90 60 66
        E 0 90 61 66
        E 0 90 62 64
        E 0 90 63 64
        E 0 90 64 64
        E 0 90 65 67
        E 0 9f 51 64
        E 0 9f 69 64
        E 120 80 07 00
        E 0 80 10 00
        E 0 80 18 00
        E 0 80 30 00
        E 0 80 31 00
        E 240 80 48 00
        E 0 80 49 00
        E 0 80 4a 00
        E 0 80 4b 00
        E 0 80 4c 00
        E 0 80 4d 00
        E 0 80 60 00
        E 0 80 61 00
        E 0 80 62 00
        E 0 80 63 00
        E 0 80 64 00
        E 0 80 65 00
        E 0 8f 51 00
        E 0 8f 69 00
        E 120 90 30 66
        E 0 90 31 66
        E 0 90 48 66
        E 0 90 49 66
        E 0 90 4a 64
        E 0 90 4b 64
        E 0 90 4c 64
        E 0 90 4d 67
        E 0 90 60 66
        E 0 90 61 66
        E 0 90 62 64
        E 0 90 63 64
        E 0 90 64 64
        E 0 90 65 67
        E 0 9f 51 64
        E 0 9f 69 64
        E 120 80 30 00
        E 0 80 31 00
        E 0 80 48 00
        E 0 80 49 00
        E 0 80 4a 00
        E 0 80 4b 00
        E 0 80 4c 00
        E 0 80 4d 00
        E 0 80 60 00
        E 0 80 61 00
        E 0 80 62 00
        E 0 80 63 00
        E 0 80 64 00
        E 0 80 65 00
        E 0 8f 51 00
        E 0 8f 69 00
        E 120 93 48 64
        E 0 93 49 66
        E 0 93 4a 66
        E 0 93 4b 64
        E 0 93 4c 64
        E 0 93 4d 64
        E 0 93 60 64
        E 0 93 61 66
        E 0 93 62 66
        E 0 93 63 64
        E 0 93 64 64
        E 0 93 65 64
        E 120 83 48 00
        E 0 83 49 00
        E 0 83 4a 00
        E 0 83 4b 00
        E 0 83 4c 00
        E 0 83 4d 00
        E 0 83 60 00
        E 0 83 61 00
        E 0 83 62 00
        E 0 83 63 00
        E 0 83 64 00
        E 0 83 65 00
        E 120 90 04 64 -1
        E 0 90 19 66
        E 0 90 31 66
        E 0 90 32 66
        E 0 90 48 64
        E 0 90 49 66
        E 0 90 4a 66
        E 0 90 4b 64
        E 0 90 4c 64
        E 0 90 4d 64
        E 0 90 60 64 -1
        E 0 90 61 66 -1
        E 0 90 62 66 -1
        E 0 90 63 64 -1
        E 0 90 64 64 -1
        E 0 90 65 64 -1
        E 0 9f 51 64
        E 0 9f 69 64
        E 120 80 04 00
        E 0 80 19 00
        E 0 80 31 00
        E 0 80 32 00
        E 240 80 48 00
        E 0 80 49 00
        E 0 80 4a 00
        E 0 80 4b 00
        E 0 80 4c 00
        E 0 80 4d 00
        E 0 80 60 00
        E 0 80 61 00
        E 0 80 62 00
        E 0 80 63 00
        E 0 80 64 00
        E 0 80 65 00
        E 0 8f 51 00
        E 0 8f 69 00
        E 120 90 19 66
        E 0 90 31 66
        E 0 90 32 66
        E 0 90 48 64
        E 0 90 49 66
        E 0 90 4a 66
        E 0 90 4b 64
        E 0 90 4c 64
        E 0 90 4d 64
        E 0 90 60 64
        E 0 90 61 66
        E 0 90 62 66
        E 0 90 63 64
        E 0 90 64 64
        E 0 90 65 64
        E 0 9f 51 64
        E 0 9f 69 64
        E 120 80 19 00
        E 0 80 31 00
        E 0 80 32 00
        E 0 80 48 00
        E 0 80 49 00
        E 0 80 4a 00
        E 0 80 4b 00
        E 0 80 4c 00
        E 0 80 4d 00
        E 0 80 60 00
        E 0 80 61 00
        E 0 80 62 00
        E 0 80 63 00
        E 0 80 64 00
        E 0 80 65 00
        E 0 8f 51 00
        E 0 8f 69 00
        E 120 90 31 66
        E 0 90 32 66
        E 0 90 48 64
        E 0 90 49 66
        E 0 90 4a 66
        E 0 90 4b 64
        E 0 90 4c 64
        E 0 90 4d 64
        E 0 90 60 64
        E 0 90 61 66
        E 0 90 62 66
        E 0 90 63 64
        E 0 90 64 64
        E 0 90 65 64
        E 0 9d 51 64
        E 0 9d 69 64
        E 120 80 31 00
        E 0 80 32 00
        E 0 80 48 00
        E 0 80 49 00
        E 0 80 4a 00
        E 0 80 4b 00
        E 0 80 4c 00
        E 0 80 4d 00
        E 0 80 60 00
        E 0 80 61 00
        E 0 80 62 00
        E 0 80 63 00
        E 0 80 64 00
        E 0 80 65 00
        E 0 8d 51 00
        E 0 8d 69 00
        E 120 90 19 66
        E 0 90 31 66
        E 0 90 32 66
        E 0 90 48 64
        E 0 90 49 66
        E 0 90 4a 66
        E 0 90 4b 64
        E 0 90 4c 64
        E 0 90 4d 64
        E 0 90 60 64
        E 0 90 61 66
        E 0 90 62 66
        E 0 90 63 64
        E 0 90 64 64
        E 0 90 65 64
        E 0 9f 51 64
        E 0 9f 69 64
        E 120 80 19 00
        E 0 80 31 00
        E 0 80 32 00
        E 0 80 48 00
        E 0 80 49 00
        E 0 80 4a 00
        E 0 80 4b 00
        E 0 80 4c 00
        E 0 80 4d 00
        E 0 80 60 00
        E 0 80 61 00
        E 0 80 62 00
        E 0 80 63 00
        E 0 80 64 00
        E 0 80 65 00
        E 0 8f 51 00
        E 0 8f 69 00
        E 120 90 31 66
        E 0 90 32 66
        E 0 90 48 64
        E 0 90 49 66
        E 0 90 4a 66
        E 0 90 4b 64
        E 0 90 4c 64
        E 0 90 4d 64
        E 0 90 60 64
        E 0 90 61 66
        E 0 90 62 66
        E 0 90 63 64
        E 0 90 64 64
        E 0 90 65 64
        E 0 9d 51 64
        E 0 9d 69 64
        E 120 80 31 00
        E 0 80 32 00
        E 0 80 48 00
        E 0 80 49 00
        E 0 80 4a 00
        E 0 80 4b 00
        E 0 80 4c 00
        E 0 80 4d 00
        E 0 80 60 00
        E 0 80 61 00
        E 0 80 62 00
        E 0 80 63 00
        E 0 80 64 00
        E 0 80 65 00
        E 0 8d 51 00
        E 0 8d 69 00
        E 120 90 31 66
        E 0 90 32 66
        E 0 90 48 64
        E 0 90 49 66
        E 0 90 4a 66
        E 0 90 4b 64
        E 0 90 4c 64
        E 0 90 4d 64
        E 0 90 60 64
        E 0 90 61 66
        E 0 90 62 66
        E 0 90 63 64
        E 0 90 64 64
        E 0 90 65 64
        E 0 9f 51 64
        E 0 9f 69 64
        E 120 80 31 00
        E 0 80 32 00
        E 0 80 48 00
        E 0 80 49 00
        E 0 80 4a 00
        E 0 80 4b 00
        E 0 80 4c 00
        E 0 80 4d 00
        E 0 80 60 00
        E 0 80 61 00
        E 0 80 62 00
        E 0 80 63 00
        E 0 80 64 00
        E 0 80 65 00
        E 0 8f 51 00
        E 0 8f 69 00
        E 120 90 6c 65
        E 0 93 49 67
        E 0 93 4a 66
        E 0 93 4b 64
        E 0 93 4c 65
        E 0 93 4d 64
        E 0 93 61 67
        E 0 93 62 66
        E 0 93 63 64
        E 0 93 64 65
        E 0 93 65 64
        E 120 80 6c 00
        E 0 83 49 00
        E 0 83 4a 00
        E 0 83 4b 00
        E 0 83 4c 00
        E 0 83 4d 00
        E 0 83 61 00
        E 0 83 62 00
        E 0 83 63 00
        E 0 83 64 00
        E 0 83 65 00
        E 120 90 0c 64
        E 0 90 31 67
        E 0 90 32 66
        E 0 90 49 67
        E 0 90 4a 66
        E 0 90 4b 64
        E 0 90 4c 65
        E 0 90 4d 64
        E 0 90 61 67
        E 0 90 62 66
        E 0 90 63 64
        E 0 90 64 65
        E 0 90 65 64
        E 0 9f 51 64
        E 0 9f 69 64
        E 120 80 0c 00
        E 0 80 31 00
        E 0 80 32 00
        E 240 80 49 00
        E 0 80 4a 00
        E 0 80 4b 00
        E 0 80 4c 00
        E 0 80 4d 00
        E 0 80 61 00
        E 0 80 62 00
        E 0 80 63 00
        E 0 80 64 00
        E 0 80 65 00
        E 0 8f 51 00
        E 0 8f 69 00
        E 120 90 31 67
        E 0 90 32 66
        E 0 90 49 67
        E 0 90 4a 66
        E 0 90 4b 64
        E 0 90 4c 65
        E 0 90 4d 64
        E 0 90 61 67
        E 0 90 62 66
        E 0 90 63 64
        E 0 90 64 65
        E 0 90 65 64
        E 0 9f 51 64
        E 0 9f 69 64
        E 120 80 31 00
        E 0 80 32 00
        E 0 80 49 00
        E 0 80 4a 00
        E 0 80 4b 00
        E 0 80 4c 00
        E 0 80 4d 00
        E 0 80 61 00
        E 0 80 62 00
        E 0 80 63 00
        E 0 80 64 00
        E 0 80 65 00
        E 0 8f 51 00
        E 0 8f 69 00
        E 120 93 49 67
        E 0 93 4a 66
        E 0 93 4b 64
        E 0 93 4c 65
        E 0 93 4d 64
        E 0 93 61 67
        E 0 93 62 66
        E 0 93 63 64
        E 0 93 64 65
        E 0 93 65 64
        E 120 83 49 00
        E 0 83 4a 00
        E 0 83 4b 00
        E 0 83 4c 00
        E 0 83 4d 00
        E 0 83 61 00
        E 0 83 62 00
        E 0 83 63 00
        E 0 83 64 00
        E 0 83 65 00
        E 120 90 0c 64
        E 0 90 10 64
        E 0 90 31 66
        E 0 90 32 66
        E 0 90 49 66
        E 0 90 4a 66
        E 0 90 4b 64
        E 0 90 4c 65
        E 0 90 4d 64
        E 0 90 61 66
        E 0 90 62 66
        E 0 90 63 64
        E 0 90 64 65
        E 0 90 65 64
        E 0 9f 51 64
        E 0 9f 69 64
        E 120 80 0c 00
        E 0 80 10 00
        E 0 80 31 00
        E 0 80 32 00
        E 0 80 61 00
        E 0 80 62 00
        E 0 80 63 00
        E 0 80 64 00
        E 0 80 65 00
        E 0 8f 51 00
        E 0 8f 69 00
        E 120 90 61 66
        E 0 90 62 66
        E 0 90 63 64
        E 0 90 64 65
        E 0 90 65 64
        E 0 9d 51 64
        E 0 9d 69 64
        E 120 80 49 00
        E 0 80 4a 00
        E 0 80 4b 00
        E 0 80 4c 00
        E 0 80 4d 00
        E 0 80 61 00
        E 0 80 62 00
        E 0 80 63 00
        E 0 80 64 00
        E 0 80 65 00
        E 0 8d 51 00
        E 0 8d 69 00
        E 120 90 31 66
        E 0 90 32 66
        E 0 90 49 66
        E 0 90 4a 66
        E 0 90 4b 64
        E 0 90 4c 65
        E 0 90 4d 64
        E 0 90 61 66
        E 0 90 62 66
        E 0 90 63 64
        E 0 90 64 65
        E 0 90 65 64
        E 0 9f 51 64
        E 0 9f 69 64
        E 120 80 31 00
        E 0 80 32 00
        E 0 80 49 00
        E 0 80 4a 00
        E 0 80 4b 00
        E 0 80 4c 00
        E 0 80 4d 00
        E 0 80 61 00
        E 0 80 62 00
        E 0 80 63 00
        E 0 80 64 00
        E 0 80 65 00
        E 0 8f 51 00
        E 0 8f 69 00
        E 120 93 49 66
        E 0 93 4a 66
        E 0 93 4b 64
        E 0 93 4c 65
        E 0 93 4d 64
        E 0 93 61 66
        E 0 93 62 66
        E 0 93 63 64
        E 0 93 64 65
        E 0 93 65 64
        E 120 83 49 00
        E 0 83 4a 00
        E 0 83 4b 00
        E 0 83 4c 00
        E 0 83 4d 00
        E 0 83 61 00
        E 0 83 62 00
        E 0 83 63 00
        E 0 83 64 00
        E 0 83 65 00
        E 120 90 09 64
        E 0 90 1a 66
        E 0 90 32 66
        E 0 90 33 66
        E 0 90 49 64
        E 0 90 4a 66
        E 0 90 4b 66
        E 0 90 4c 65
        E 0 90 4d 64
        E 0 90 61 64
        E 0 90 62 66
        E 0 90 63 66
        E 0 90 64 65
        E 0 90 65 64
        E 0 9f 51 64
        E 0 9f 69 64
        E 120 80 09 00
        E 0 80 1a 00
        E 0 80 32 00
        E 0 80 33 00
        E 240 80 49 00
        E 0 80 4a 00
        E 0 80 4b 00
        E 0 80 4c 00
        E 0 80 4d 00
        E 0 80 61 00
        E 0 80 62 00
        E 0 80 63 00
        E 0 80 64 00
        E 0 80 65 00
        E 0 8f 51 00
        E 0 8f 69 00
        E 120 90 1a 66
        E 0 90 32 66
        E 0 90 33 66
        E 0 90 49 64
        E 0 90 4a 66
        E 0 90 4b 66
        E 0 90 4c 65
        E 0 90 4d 64
        E 0 90 61 64
        E 0 90 62 66
        E 0 90 63 66
        E 0 90 64 65
        E 0 90 65 64
        E 0 9f 51 64
        E 0 9f 69 64
        E 120 80 1a 00
        E 0 80 32 00
        E 0 80 33 00
        E 0 80 49 00
        E 0 80 4a 00
        E 0 80 4b 00
        E 0 80 4c 00
        E 0 80 4d 00
        E 0 80 61 00
        E 0 80 62 00
        E 0 80 63 00
        E 0 80 64 00
        E 0 80 65 00
        E 0 8f 51 00
        E 0 8f 69 00
        E 120 90 49 64
        E 0 90 4a 66
        E 0 90 4b 66
        E 0 90 4c 65
        E 0 90 4d 64
        E 0 90 61 64
        E 0 90 62 66
        E 0 90 63 66
        E 0 90 64 65
        E 0 90 65 64
        E 0 9d 51 64
        E 0 9d 69 64
        E 120 80 49 00
        E 0 80 4a 00
        E 0 80 4b 00
        E 0 80 4c 00
        E 0 80 4d 00
        E 0 80 61 00
        E 0 80 62 00
        E 0 80 63 00
        E 0 80 64 00
        E 0 80 65 00
        E 0 8d 51 00
        E 0 8d 69 00
        E 120 90 1a 66
        E 0 90 32 66
        E 0 90 33 66
        E 0 90 49 64
        E 0 90 4a 66
        E 0 90 4b 66
        E 0 90 4c 65
        E 0 90 4d 64
        E 0 90 61 64
        E 0 90 62 66
        E 0 90 63 66
        E 0 90 64 65
        E 0 90 65 64
        E 0 9f 51 64
        E 0 9f 69 64
        E 120 80 1a 00
        E 0 80 32 00
        E 0 80 33 00
        E 0 80 49 00
        E 0 80 4a 00
        E 0 80 4b 00
        E 0 80 4c 00
        E 0 80 4d 00
        E 0 80 61 00
        E 0 80 62 00
        E 0 80 63 00
        E 0 80 64 00
        E 0 80 65 00
        E 0 8f 51 00
        E 0 8f 69 00
        E 120 90 49 64
        E 0 90 4a 66
        E 0 90 4b 66
        E 0 90 4c 64
        E 0 90 4d 64
        E 0 90 61 64
        E 0 90 62 66
        E 0 90 63 66
        E 0 90 64 64
        E 0 90 65 64
        E 0 9d 51 64
        E 0 9d 69 64
        E 120 80 49 00
        E 0 80 4a 00
        E 0 80 4b 00
        E 0 80 4c 00
        E 0 80 4d 00
        E 0 80 61 00
        E 0 80 62 00
        E 0 80 63 00
        E 0 80 64 00
        E 0 80 65 00
        E 0 8d 51 00
        E 0 8d 69 00
        E 120 90 1a 66
        E 0 90 32 66
        E 0 90 33 66
        E 0 90 49 64
        E 0 90 4a 66
        E 0 90 4b 66
        E 0 90 4c 64
        E 0 90 4d 64
        E 0 90 61 64
        E 0 90 62 66
        E 0 90 63 66
        E 0 90 64 64
        E 0 90 65 64
        E 0 9f 51 64
        E 0 9f 69 64
        E 120 80 1a 00
        E 0 80 32 00
        E 0 80 33 00
        E 0 80 49 00
        E 0 80 4a 00
        E 0 80 4b 00
        E 0 80 4c 00
        E 0 80 4d 00
        E 0 80 61 00
        E 0 80 62 00
        E 0 80 63 00
        E 0 80 64 00
        E 0 80 65 00
        E 0 8f 51 00
        E 0 8f 69 00
        E 120 90 6c 66
        E 0 93 48 67
        E 0 93 49 66
        E 0 93 4a 64
        E 0 93 4b 64
        E 0 93 4c 64
        E 0 93 4d 67
        E 0 93 60 67
        E 0 93 61 66
        E 0 93 62 64
        E 0 93 63 64
        E 0 93 64 64
        E 0 93 65 67
        E 120 80 6c 00
        E 0 83 48 00
        E 0 83 49 00
        E 0 83 4a 00
        E 0 83 4b 00
        E 0 83 4c 00
        E 0 83 4d 00
        E 0 83 60 00
        E 0 83 61 00
        E 0 83 62 00
        E 0 83 63 00
        E 0 83 64 00
        E 0 83 65 00
        E 120 90 07 64
        E 0 90 18 67
        E 0 90 30 67
        E 0 90 31 66
        E 0 90 48 67
        E 0 90 49 66
        E 0 90 4a 64
        E 0 90 4b 64
        E 0 90 4c 64
        E 0 90 4d 67
        E 0 90 60 67
        E 0 90 61 66
        E 0 90 62 64
        E 0 90 63 64
        E 0 90 64 64
        E 0 90 65 67
        E 0 9f 51 64
        E 0 9f 69 64
        E 120 80 07 00 -1
        E 0 80 18 00
        E 0 80 30 00
        E 0 80 31 00
        E 240 80 48 00
        E 0 80 49 00
        E 0 80 4a 00
        E 0 80 4b 00
        E 0 80 4c 00
        E 0 80 4d 00
        E 0 80 60 00
        E 0 80 61 00
        E 0 80 62 00
        E 0 80 63 00
        E 0 80 64 00
        E 0 80 65 00
        E 0 8f 51 00
        E 0 8f 69 00
        E 120 90 30 67
        E 0 90 31 66
        E 0 90 48 67
        E 0 90 49 66
        E 0 90 4a 64
        E 0 90 4b 64
        E 0 90 4c 64
        E 0 90 4d 67
        E 0 90 60 67
        E 0 90 61 66
        E 0 90 62 64
        E 0 90 63 64
        E 0 90 64 64
        E 0 90 65 67
        E 0 9f 51 64
        E 0 9f 69 64
        E 120 80 30 00
        E 0 80 31 00
        E 0 80 48 00
        E 0 80 49 00
        E 0 80 4a 00
        E 0 80 4b 00
        E 0 80 4c 00
        E 0 80 4d 00
        E 0 80 60 00
        E 0 80 61 00
        E 0 80 62 00
        E 0 80 63 00
        E 0 80 64 00
        E 0 80 65 00
        E 0 8f 51 00
        E 0 8f 69 00
        E 120 93 48 66
        E 0 93 49 66
        E 0 93 4a 64
        E 0 93 4b 64
        E 0 93 4c 64
        E 0 93 4d 67
        E 0 93 60 66
        E 0 93 61 66
        E 0 93 62 64
        E 0 93 63 64
        E 0 93 64 64
        E 0 93 65 67
        E 120 83 48 00
        E 0 83 49 00
        E 0 83 4a 00
        E 0 83 4b 00
        E 0 83 4c 00
        E 0 83 4d 00
        E 0 83 60 00
        E 0 83 61 00
        E 0 83 62 00
        E 0 83 63 00
        E 0 83 64 00
        E 0 83 65 00
        E 120 90 07 64
        E 0 90 10 64
        E 0 90 18 66
        E 0 90 30 66
        E 0 90 31 66
        E 0 90 48 66
        E 0 90 49 66
        E 0 90 4a 64
        E 0 90 4b 64
        E 0 90 4c 64
        E 0 90 4d 67
        E 0 90 60 66
        E 0 90 61 66
        E 0 90 62 64
        E 0 90 63 64
        E 0 90 64 64
        E 0 90 65 67
        E 0 9f 51 64
        E 0 9f 69 64
        E 120 80 07 00
        E 0 80 10 00
        E 0 80 18 00
        E 0 80 30 00
        E 0 80 31 00
        E 0 80 48 00
        E 0 80 49 00
        E 0 80 4a 00
        E 0 80 4b 00
        E 0 80 4c 00
        E 0 80 4d 00
        E 0 80 60 00
        E 0 80 61 00
        E 0 80 62 00
        E 0 80 63 00
        E 0 80 64 00
        E 0 80 65 00
        E 0 8f 51 00
        E 0 8f 69 00
        E 120 90 30 66
        E 0 90 31 66
        E 0 90 48 66
        E 0 90 49 66
        E 0 90 4a 64
        E 0 90 4b 64
        E 0 90 4c 64
        E 0 90 4d 67
        E 0 90 60 66
        E 0 90 61 66
        E 0 90 62 64
        E 0 90 63 64
        E 0 90 64 64
        E 0 90 65 67
        E 0 9d 51 64
        E 0 9d 69 64
        E 120 80 30 00
        E 0 80 31 00
        E 0 80 48 00
        E 0 80 49 00
        E 0 80 4a 00
        E 0 80 4b 00
        E 0 80 4c 00
        E 0 80 4d 00
        E 0 80 60 00
        E 0 80 61 00
        E 0 80 62 00
        E 0 80 63 00
        E 0 80 64 00
        E 0 80 65 00
        E 0 8d 51 00
        E 0 8d 69 00
        E 120 90 30 66
        E 0 90 31 66
        E 0 90 48 66
        E 0 90 49 66
        E 0 90 4a 64
        E 0 90 4b 64
        E 0 90 4c 64
        E 0 90 4d 67
        E 0 90 60 66
        E 0 90 61 66
        E 0 90 62 64
        E 0 90 63 64
        E 0 90 64 64
        E 0 90 65 67
        E 0 9f 51 64
        E 0 9f 69 64
        E 120 80 30 00
        E 0 80 31 00
        E 0 80 48 00
        E 0 80 49 00
        E 0 80 4a 00
        E 0 80 4b 00
        E 0 80 4c 00
        E 0 80 4d 00
        E 0 80 60 00
        E 0 80 61 00
        E 0 80 62 00
        E 0 80 63 00
        E 0 80 64 00
        E 0 80 65 00
        E 0 8f 51 00
        E 0 8f 69 00
        E 120 93 48 64
        E 0 93 49 66
        E 0 93 4a 66
        E 0 93 4b 64
        E 0 93 4c 64
        E 0 93 4d 64
        E 0 93 60 64
        E 0 93 61 66
        E 0 93 62 66
        E 0 93 63 64
        E 0 93 64 64
        E 0 93 65 64
        E 120 83 48 00
        E 0 83 49 00
        E 0 83 4a 00
        E 0 83 4b 00
        E 0 83 4c 00
        E 0 83 4d 00
        E 0 83 60 00
        E 0 83 61 00
        E 0 83 62 00
        E 0 83 63 00
        E 0 83 64 00
        E 0 83 65 00
        E 120 90 04 64 -1
        E 0 90 19 66
        E 0 90 31 66
        E 0 90 32 66
        E 0 90 48 64
        E 0 90 49 66
        E 0 90 4a 66
        E 0 90 4b 64
        E 0 90 4c 64
        E 0 90 4d 64
        E 0 90 60 64 -1
        E 0 90 61 66 -1
        E 0 90 62 66 -1
        E 0 90 63 64 -1
        E 0 90 64 64 -1
        E 0 90 65 64 -1
        E 0 9f 51 64
        E 0 9f 69 64
        E 120 80 04 00
        E 0 80 19 00
        E 0 80 31 00
        E 0 80 32 00
        E 240 80 48 00
        E 0 80 49 00
        E 0 80 4a 00
        E 0 80 4b 00
        E 0 80 4c 00
        E 0 80 4d 00
        E 0 80 60 00
        E 0 80 61 00
        E 0 80 62 00
        E 0 80 63 00
        E 0 80 64 00
        E 0 80 65 00
        E 0 8f 51 00
        E 0 8f 69 00
        E 120 90 19 66
        E 0 90 31 66
        E 0 90 32 66
        E 0 90 48 64
        E 0 90 49 66
        E 0 90 4a 66
        E 0 90 4b 64
        E 0 90 4c 64
        E 0 90 4d 64
        E 0 90 60 64
        E 0 90 61 66
        E 0 90 62 66
        E 0 90 63 64
        E 0 90 64 64
        E 0 90 65 64
        E 0 9f 51 64
        E 0 9f 69 64
        E 120 80 19 00
        E 0 80 31 00
        E 0 80 32 00
        E 0 80 48 00
        E 0 80 49 00
        E 0 80 4a 00
        E 0 80 4b 00
        E 0 80 4c 00
        E 0 80 4d 00
        E 0 80 60 00
        E 0 80 61 00
        E 0 80 62 00
        E 0 80 63 00
        E 0 80 64 00
        E 0 80 65 00
        E 0 8f 51 00
        E 0 8f 69 00
        E 120 90 31 66
        E 0 90 32 66
        E 0 90 48 64
        E 0 90 49 66
        E 0 90 4a 66
        E 0 90 4b 64
        E 0 90 4c 64
        E 0 90 4d 64
        E 0 90 60 64
        E 0 90 61 66
        E 0 90 62 66
        E 0 90 63 64
        E 0 90 64 64
        E 0 90 65 64
        E 0 9d 51 64
        E 0 9d 69 64
        E 120 80 31 00
        E 0 80 32 00
        E 0 80 48 00
        E 0 80 49 00
        E 0 80 4a 00
        E 0 80 4b 00
        E 0 80 4c 00
        E 0 80 4d 00
        E 0 80 60 00
        E 0 80 61 00
        E 0 80 62 00
        E 0 80 63 00
        E 0 80 64 00
        E 0 80 65 00
        E 0 8d 51 00
        E 0 8d 69 00
        E 120 90 19 66
        E 0 90 31 66
        E 0 90 32 66
        E 0 90 48 64
        E 0 90 49 66
        E 0 90 4a 66
        E 0 90 4b 64
        E 0 90 4c 64
        E 0 90 4d 64
        E 0 90 60 64
        E 0 90 61 66
        E 0 90 62 66
        E 0 90 63 64
        E 0 90 64 64
        E 0 90 65 64
        E 0 9f 51 64
        E 0 9f 69 64
        E 120 80 19 00
        E 0 80 31 00
        E 0 80 32 00
        E 0 80 48 00
        E 0 80 49 00
        E 0 80 4a 00
        E 0 80 4b 00
        E 0 80 4c 00
        E 0 80 4d 00
        E 0 80 60 00
        E 0 80 61 00
        E 0 80 62 00
        E 0 80 63 00
        E 0 80 64 00
        E 0 80 65 00
        E 0 8f 51 00
        E 0 8f 69 00
        E 120 90 31 66
        E 0 90 32 66
        E 0 90 48 64
        E 0 90 49 66
        E 0 90 4a 66
        E 0 90 4b 64
        E 0 90 4c 64
        E 0 90 4d 64
        E 0 90 60 64
        E 0 90 61 66
        E 0 90 62 66
        E 0 90 63 64
        E 0 90 64 64
        E 0 90 65 64
        E 0 9d 51 64
        E 0 9d 69 64
        E 120 80 31 00
        E 0 80 32 00
        E 0 80 48 00
        E 0 80 49 00
        E 0 80 4a 00
        E 0 80 4b 00
        E 0 80 4c 00
        E 0 80 4d 00
        E 0 80 60 00
        E 0 80 61 00
        E 0 80 62 00
        E 0 80 63 00
        E 0 80 64 00
        E 0 80 65 00
        E 0 8d 51 00
        E 0 8d 69 00
        E 120 90 31 66
        E 0 90 32 66
        E 0 90 48 64
        E 0 90 49 66
        E 0 90 4a 66
        E 0 90 4b 64
        E 0 90 4c 64
        E 0 90 4d 64
        E 0 90 60 64
        E 0 90 61 66
        E 0 90 62 66
        E 0 90 63 64
        E 0 90 64 64
        E 0 90 65 64
        E 0 9f 51 64
        E 0 9f 69 64
        E 120 80 31 00
        E 0 80 32 00
        E 0 80 48 00
        E 0 80 49 00
        E 0 80 4a 00
        E 0 80 4b 00
        E 0 80 4c 00
        E 0 80 4d 00
        E 0 80 60 00
        E 0 80 61 00
        E 0 80 62 00
        E 0 80 63 00
        E 0 80 64 00
        E 0 80 65 00
        E 0 8f 51 00
        E 0 8f 69 00
        E 120 90 6c 65
        E 0 93 49 67
        E 0 93 4a 66
        E 0 93 4b 64
        E 0 93 4c 65
        E 0 93 4d 64
        E 0 93 61 67
        E 0 93 62 66
        E 0 93 63 64
        E 0 93 64 65
        E 0 93 65 64
        E 120 80 6c 00
        E 0 83 49 00
        E 0 83 4a 00
        E 0 83 4b 00
        E 0 83 4c 00
        E 0 83 4d 00
        E 0 83 61 00
        E 0 83 62 00
        E 0 83 63 00
        E 0 83 64 00
        E 0 83 65 00
        E 120 90 0c 64
        E 0 90 31 67
        E 0 90 32 66
        E 0 90 49 67
        E 0 90 4a 66
        E 0 90 4b 64
        E 0 90 4c 65
        E 0 90 4d 64
        E 0 90 61 67
        E 0 90 62 66
        E 0 90 63 64
        E 0 90 64 65
        E 0 90 65 64
        E 0 9f 51 64
        E 0 9f 69 64
        E 120 80 0c 00
        E 0 80 31 00
        E 0 80 32 00
        E 240 80 49 00
        E 0 80 4a 00
        E 0 80 4b 00
        E 0 80 4c 00
        E 0 80 4d 00
        E 0 80 61 00
        E 0 80 62 00
        E 0 80 63 00
        E 0 80 64 00
        E 0 80 65 00
        E 0 8f 51 00
        E 0 8f 69 00
        E 120 90 31 67
        E 0 90 32 66
        E 0 90 49 67
        E 0 90 4a 66
        E 0 90 4b 64
        E 0 90 4c 65
        E 0 90 4d 64
        E 0 90 61 67
        E 0 90 62 66
        E 0 90 63 64
        E 0 90 64 65
        E 0 90 65 64
        E 0 9f 51 64
        E 0 9f 69 64
        E 120 80 31 00
        E 0 80 32 00
        E 0 80 49 00
        E 0 80 4a 00
        E 0 80 4b 00
        E 0 80 4c 00
        E 0 80 4d 00
        E 0 80 61 00
        E 0 80 62 00
        E 0 80 63 00
        E 0 80 64 00
        E 0 80 65 00
        E 0 8f 51 00
        E 0 8f 69 00
        E 120 93 49 67
        E 0 93 4a 66
        E 0 93 4b 64
        E 0 93 4c 65
        E 0 93 4d 64
        E 0 93 61 67
        E 0 93 62 66
        E 0 93 63 64
        E 0 93 64 65
        E 0 93 65 64
        E 120 83 49 00
        E 0 83 4a 00
        E 0 83 4b 00
        E 0 83 4c 00
        E 0 83 4d 00
        E 0 83 61 00
        E 0 83 62 00
        E 0 83 63 00
        E 0 83 64 00
        E 0 83 65 00
        E 120 90 0c 64
        E 0 90 10 64
        E 0 90 31 66
        E 0 90 32 66
        E 0 90 49 66
        E 0 90 4a 66
        E 0 90 4b 64
        E 0 90 4c 65
        E 0 90 4d 64
        E 0 90 61 66
        E 0 90 62 66
        E 0 90 63 64
        E 0 90 64 65
        E 0 90 65 64
        E 0 9f 51 64
        E 0 9f 69 64
        E 120 80 0c 00
        E 0 80 10 00
        E 0 80 31 00
        E 0 80 32 00
        E 0 80 61 00
        E 0 80 62 00
        E 0 80 63 00
        E 0 80 64 00
        E 0 80 65 00
        E 0 8f 51 00
        E 0 8f 69 00
        E 120 90 61 66
        E 0 90 62 66
        E 0 90 63 64
        E 0 90 64 65
        E 0 90 65 64
        E 0 9d 51 64
        E 0 9d 69 64
        E 120 80 49 00
        E 0 80 4a 00
        E 0 80 4b 00
        E 0 80 4c 00
        E 0 80 4d 00
        E 0 80 61 00
        E 0 80 62 00
        E 0 80 63 00
        E 0 80 64 00
        E 0 80 65 00
        E 0 8d 51 00
        E 0 8d 69 00
        E 120 90 31 66
        E 0 90 32 66
        E 0 90 49 66
        E 0 90 4a 66
        E 0 90 4b 64
        E 0 90 4c 65
        E 0 90 4d 64
        E 0 90 61 66
        E 0 90 62 66
        E 0 90 63 64
        E 0 90 64 65
        E 0 90 65 64
        E 0 9f 51 64
        E 0 9f 69 64
        E 120 80 31 00
        E 0 80 32 00
        E 0 80 49 00
        E 0 80 4a 00
        E 0 80 4b 00
        E 0 80 4c 00
        E 0 80 4d 00
        E 0 80 61 00
        E 0 80 62 00
        E 0 80 63 00
        E 0 80 64 00
        E 0 80 65 00
        E 0 8f 51 00
        E 0 8f 69 00
        E 120 93 49 66
        E 0 93 4a 66
        E 0 93 4b 64
        E 0 93 4c 65
        E 0 93 4d 64
        E 0 93 61 66
        E 0 93 62 66
        E 0 93 63 64
        E 0 93 64 65
        E 0 93 65 64
        E 120 83 49 00
        E 0 83 4a 00
        E 0 83 4b 00
        E 0 83 4c 00
        E 0 83 4d 00
        E 0 83 61 00
        E 0 83 62 00
        E 0 83 63 00
        E 0 83 64 00
        E 0 83 65 00
        E 120 90 09 64
        E 0 90 1a 66
        E 0 90 32 66
        E 0 90 33 66
        E 0 90 49 64
        E 0 90 4a 66
        E 0 90 4b 66
        E 0 90 4c 65
        E 0 90 4d 64
        E 0 90 61 64
        E 0 90 62 66
        E 0 90 63 66
        E 0 90 64 65
        E 0 90 65 64
        E 0 9f 51 64
        E 0 9f 69 64
        E 120 80 09 00
        E 0 80 1a 00
        E 0 80 32 00
        E 0 80 33 00
        E 240 80 49 00
        E 0 80 4a 00
        E 0 80 4b 00
        E 0 80 4c 00
        E 0 80 4d 00
        E 0 80 61 00
        E 0 80 62 00
        E 0 80 63 00
        E 0 80 64 00
        E 0 80 65 00
        E 0 8f 51 00
        E 0 8f 69 00
        E 120 90 1a 66
        E 0 90 32 66
        E 0 90 33 66
        E 0 90 49 64
        E 0 90 4a 66
        E 0 90 4b 66
        E 0 90 4c 65
        E 0 90 4d 64
        E 0 90 61 64
        E 0 90 62 66
        E 0 90 63 66
        E 0 90 64 65
        E 0 90 65 64
        E 0 9f 51 64
        E 0 9f 69 64
        E 120 80 1a 00
        E 0 80 32 00
        E 0 80 33 00
        E 0 80 49 00
        E 0 80 4a 00
        E 0 80 4b 00
        E 0 80 4c 00
        E 0 80 4d 00
        E 0 80 61 00
        E 0 80 62 00
        E 0 80 63 00
        E 0 80 64 00
        E 0 80 65 00
        E 0 8f 51 00
        E 0 8f 69 00
        E 120 90 49 64
        E 0 90 4a 66
        E 0 90 4b 66
        E 0 90 4c 65
        E 0 90 4d 64
        E 0 90 61 64
        E 0 90 62 66
        E 0 90 63 66
        E 0 90 64 65
        E 0 90 65 64
        E 0 9d 51 64
        E 0 9d 69 64
        E 120 80 49 00
        E 0 80 4a 00
        E 0 80 4b 00
        E 0 80 4c 00
        E 0 80 4d 00
        E 0 80 61 00
        E 0 80 62 00
        E 0 80 63 00
        E 0 80 64 00
        E 0 80 65 00
        E 0 8d 51 00
        E 0 8d 69 00
        E 120 90 1a 66
        E 0 90 32 66
        E 0 90 33 66
        E 0 90 49 64
        E 0 90 4a 66
        E 0 90 4b 66
        E 0 90 4c 65
        E 0 90 4d 64
        E 0 90 61 64
        E 0 90 62 66
        E 0 90 63 66
        E 0 90 64 65
        E 0 90 65 64
        E 0 9f 51 64
        E 0 9f 69 64
        E 120 80 1a 00
        E 0 80 32 00
        E 0 80 33 00
        E 0 80 49 00
        E 0 80 4a 00
        E 0 80 4b 00
        E 0 80 4c 00
        E 0 80 4d 00
        E 0 80 61 00
        E 0 80 62 00
        E 0 80 63 00
        E 0 80 64 00
        E 0 80 65 00
        E 0 8f 51 00
        E 0 8f 69 00
        E 120 90 32 66
        E 0 90 33 66
        E 0 90 49 64
        E 0 90 4a 66
        E 0 90 4b 66
        E 0 90 4c 64
        E 0 90 4d 64
        E 0 90 61 64
        E 0 90 62 66
        E 0 90 63 66
        E 0 90 64 64
        E 0 90 65 64
        E 0 9d 51 64
        E 0 9d 69 64
        E 120 80 32 00
        E 0 80 33 00
        E 0 80 49 00
        E 0 80 4a 00
        E 0 80 4b 00
        E 0 80 4c 00
        E 0 80 4d 00
        E 0 80 61 00
        E 0 80 62 00
        E 0 80 63 00
        E 0 80 64 00
        E 0 80 65 00
        E 0 8d 51 00
        E 0 8d 69 00
        E 120 90 1a 66
        E 0 90 32 66
        E 0 90 33 66
        E 0 90 49 64
        E 0 90 4a 66
        E 0 90 4b 66
        E 0 90 4c 64
        E 0 90 4d 64
        E 0 90 61 64
        E 0 90 62 66
        E 0 90 63 66
        E 0 90 64 64
        E 0 90 65 64
        E 0 9f 51 64
        E 0 9f 69 64
        E 120 80 1a 00
        E 0 80 32 00
        E 0 80 33 00
        E 0 80 49 00
        E 0 80 4a 00
        E 0 80 4b 00
        E 0 80 4c 00
        E 0 80 4d 00
        E 0 80 61 00
        E 0 80 62 00
        E 0 80 63 00
        E 0 80 64 00
        E 0 80 65 00
        E 0 8f 51 00
        E 0 8f 69 00
        E 120 90 6c 66
        E 0 93 48 67
        E 0 93 49 66
        E 0 93 4a 64
        E 0 93 4b 64
        E 0 93 4c 64
        E 0 93 4d 67
        E 0 93 60 67
        E 0 93 61 66
        E 0 93 62 64
        E 0 93 63 64
        E 0 93 64 64
        E 0 93 65 67
        E 120 80 6c 00
        E 0 83 48 00
        E 0 83 49 00
        E 0 83 4a 00
        E 0 83 4b 00
        E 0 83 4c 00
        E 0 83 4d 00
        E 0 83 60 00
        E 0 83 61 00
        E 0 83 62 00
        E 0 83 63 00
        E 0 83 64 00
        E 0 83 65 00
        E 120 90 07 64
        E 0 90 18 67
        E 0 90 30 67
        E 0 90 31 66
        E 0 90 48 67
        E 0 90 49 66
        E 0 90 4a 64
        E 0 90 4b 64
        E 0 90 4c 64
        E 0 90 4d 67
        E 0 90 60 67
        E 0 90 61 66
        E 0 90 62 64
        E 0 90 63 64
        E 0 90 64 64
        E 0 90 65 67
        E 0 9f 51 64
        E 0 9f 69 64
        E 120 80 07 00 -1
        E 0 80 18 00
        E 0 80 30 00
        E 0 80 31 00
        E 240 80 48 00
        E 0 80 49 00
        E 0 80 4a 00
        E 0 80 4b 00
        E 0 80 4c 00
        E 0 80 4d 00
        E 0 80 60 00
        E 0 80 61 00
        E 0 80 62 00
        E 0 80 63 00
        E 0 80 64 00
        E 0 80 65 00
        E 0 8f 51 00
        E 0 8f 69 00
        E 120 90 30 67
        E 0 90 31 66
        E 0 90 48 67
        E 0 90 49 66
        E 0 90 4a 64
        E 0 90 4b 64
        E 0 90 4c 64
        E 0 90 4d 67
        E 0 90 60 67
        E 0 90 61 66
        E 0 90 62 64
        E 0 90 63 64
        E 0 90 64 64
        E 0 90 65 67
        E 0 9f 51 64
        E 0 9f 69 64
        E 120 80 30 00
        E 0 80 31 00
        E 0 80 48 00
        E 0 80 49 00
        E 0 80 4a 00
        E 0 80 4b 00
        E 0 80 4c 00
        E 0 80 4d 00
        E 0 80 60 00
        E 0 80 61 00
        E 0 80 62 00
        E 0 80 63 00
        E 0 80 64 00
        E 0 80 65 00
        E 0 8f 51 00
        E 0 8f 69 00
        E 120 93 48 66
        E 0 93 49 66
        E 0 93 4a 64
        E 0 93 4b 64
        E 0 93 4c 64
        E 0 93 4d 67
        E 0 93 60 66
        E 0 93 61 66
        E 0 93 62 64
        E 0 93 63 64
        E 0 93 64 64
        E 0 93 65 67
        E 120 83 48 00
        E 0 83 49 00
        E 0 83 4a 00
        E 0 83 4b 00
        E 0 83 4c 00
        E 0 83 4d 00
        E 0 83 60 00
        E 0 83 61 00
        E 0 83 62 00
        E 0 83 63 00
        E 0 83 64 00
        E 0 83 65 00
        E 120 90 07 64
        E 0 90 10 64
        E 0 90 18 66
        E 0 90 30 66
        E 0 90 31 66
        E 0 90 48 66
        E 0 90 49 66
        E 0 90 4a 64
        E 0 90 4b 64
        E 0 90 4c 64
        E 0 90 4d 67
        E 0 90 60 66
        E 0 90 61 66
        E 0 90 62 64
        E 0 90 63 64
        E 0 90 64 64
        E 0 90 65 67
        E 0 9f 51 64
        E 0 9f 69 64
        E 120 80 07 00
        E 0 80 10 00
        E 0 80 18 00
        E 0 80 30 00
        E 0 80 31 00
        E 240 80 48 00
        E 0 80 49 00
        E 0 80 4a 00
        E 0 80 4b 00
        E 0 80 4c 00
        E 0 80 4d 00
        E 0 80 60 00
        E 0 80 61 00
        E 0 80 62 00
        E 0 80 63 00
        E 0 80 64 00
        E 0 80 65 00
        E 0 8f 51 00
        E 0 8f 69 00
        E 120 90 30 66
        E 0 90 31 66
        E 0 90 48 66
        E 0 90 49 66
        E 0 90 4a 64
        E 0 90 4b 64
        E 0 90 4c 64
        E 0 90 4d 67
        E 0 90 60 66
        E 0 90 61 66
        E 0 90 62 64
        E 0 90 63 64
        E 0 90 64 64
        E 0 90 65 67
        E 0 9f 51 64
        E 0 9f 69 64
        E 120 80 30 00
        E 0 80 31 00
        E 0 80 48 00
        E 0 80 49 00
        E 0 80 4a 00
        E 0 80 4b 00
        E 0 80 4c 00
        E 0 80 4d 00
        E 0 80 60 00
        E 0 80 61 00
        E 0 80 62 00
        E 0 80 63 00
        E 0 80 64 00
        E 0 80 65 00
        E 0 8f 51 00
        E 0 8f 69 00
        E 120 93 48 64
        E 0 93 49 66
        E 0 93 4a 66
        E 0 93 4b 64
        E 0 93 4c 64
        E 0 93 4d 64
        E 0 93 60 64
        E 0 93 61 66
        E 0 93 62 66
        E 0 93 63 64
        E 0 93 64 64
        E 0 93 65 64
        E 120 83 48 00
        E 0 83 49 00
        E 0 83 4a 00
        E 0 83 4b 00
        E 0 83 4c 00
        E 0 83 4d 00
        E 0 83 60 00
        E 0 83 61 00
        E 0 83 62 00
        E 0 83 63 00
        E 0 83 64 00
        E 0 83 65 00
        E 120 90 04 64 -1
        E 0 90 19 66
        E 0 90 31 66
        E 0 90 32 66
        E 0 90 48 64
        E 0 90 49 66
        E 0 90 4a 66
        E 0 90 4b 64
        E 0 90 4c 64
        E 0 90 4d 64
        E 0 90 60 64 -1
        E 0 90 61 66 -1
        E 0 90 62 66 -1
        E 0 90 63 64 -1
        E 0 90 64 64 -1
        E 0 90 65 64 -1
        E 0 90 74 60
        E 0 9f 51 64
        E 0 9f 69 64
        E 120 80 04 00
        E 0 80 19 00
        E 0 80 31 00
        E 0 80 32 00
        E 240 80 48 00
        E 0 80 49 00
        E 0 80 4a 00
        E 0 80 4b 00
        E 0 80 4c 00
        E 0 80 4d 00
        E 0 80 60 00
        E 0 80 61 00
        E 0 80 62 00
        E 0 80 63 00
        E 0 80 64 00
        E 0 80 65 00
        E 0 8f 51 00
        E 0 8f 69 00
        E 120 90 19 66
        E 0 90 31 66
        E 0 90 32 66
        E 0 90 48 64
        E 0 90 49 66
        E 0 90 4a 66
        E 0 90 4b 64
        E 0 90 4c 64
        E 0 90 4d 64
        E 0 90 60 64
        E 0 90 61 66
        E 0 90 62 66
        E 0 90 63 64
        E 0 90 64 64
        E 0 90 65 64
        E 0 9f 51 64
        E 0 9f 69 64
        E 120 80 19 00
        E 0 80 31 00
        E 0 80 32 00
        E 0 80 48 00
        E 0 80 49 00
        E 0 80 4a 00
        E 0 80 4b 00
        E 0 80 4c 00
        E 0 80 4d 00
        E 0 80 60 00
        E 0 80 61 00
        E 0 80 62 00
        E 0 80 63 00
        E 0 80 64 00
        E 0 80 65 00
        E 0 8f 51 00
        E 0 8f 69 00
        E 120 90 31 66
        E 0 90 32 66
        E 0 90 48 64
        E 0 90 49 66
        E 0 90 4a 66
        E 0 90 4b 64
        E 0 90 4c 64
        E 0 90 4d 64
        E 0 90 60 64
        E 0 90 61 66
        E 0 90 62 66
        E 0 90 63 64
        E 0 90 64 64
        E 0 90 65 64
        E 0 9d 51 64
        E 0 9d 69 64
        E 120 80 31 00
        E 0 80 32 00
        E 0 80 48 00
        E 0 80 49 00
        E 0 80 4a 00
        E 0 80 4b 00
        E 0 80 4c 00
        E 0 80 4d 00
        E 0 80 60 00
        E 0 80 61 00
        E 0 80 62 00
        E 0 80 63 00
        E 0 80 64 00
        E 0 80 65 00
        E 0 8d 51 00
        E 0 8d 69 00
        E 120 90 19 66
        E 0 90 31 66
        E 0 90 32 66
        E 0 90 48 64
        E 0 90 49 66
        E 0 90 4a 66
        E 0 90 4b 64
        E 0 90 4c 64
        E 0 90 4d 64
        E 0 90 60 64
        E 0 90 61 66
        E 0 90 62 66
        E 0 90 63 64
        E 0 90 64 64
        E 0 90 65 64
        E 0 9f 51 64
        E 0 9f 69 64
        E 120 80 19 00
        E 0 80 31 00
        E 0 80 32 00
        E 0 80 48 00
        E 0 80 49 00
        E 0 80 4a 00
        E 0 80 4b 00
        E 0 80 4c 00
        E 0 80 4d 00
        E 0 80 60 00
        E 0 80 61 00
        E 0 80 62 00
        E 0 80 63 00
        E 0 80 64 00
        E 0 80 65 00
        E 0 8f 51 00
        E 0 8f 69 00
        E 120 90 31 66
        E 0 90 32 66
        E 0 90 48 64
        E 0 90 49 66
        E 0 90 4a 66
        E 0 90 4b 64
        E 0 90 4c 64
        E 0 90 4d 64
        E 0 90 60 64
        E 0 90 61 66
        E 0 90 62 66
        E 0 90 63 64
        E 0 90 64 64
        E 0 90 65 64
        E 0 9d 51 64
        E 0 9d 69 64
        E 120 80 31 00
        E 0 80 32 00
        E 0 80 48 00
        E 0 80 49 00
        E 0 80 4a 00
        E 0 80 4b 00
        E 0 80 4c 00
        E 0 80 4d 00
        E 0 80 60 00
        E 0 80 61 00
        E 0 80 62 00
        E 0 80 63 00
        E 0 80 64 00
        E 0 80 65 00
        E 0 8d 51 00
        E 0 8d 69 00
        E 120 90 31 66
        E 0 90 32 66
        E 0 90 48 64
        E 0 90 49 66
        E 0 90 4a 66
        E 0 90 4b 64
        E 0 90 4c 64
        E 0 90 4d 64
        E 0 90 60 64
        E 0 90 61 66
        E 0 90 62 66
        E 0 90 63 64
        E 0 90 64 64
        E 0 90 65 64
        E 0 9f 51 64
        E 0 9f 69 64
        E 120 80 31 00
        E 0 80 32 00
        E 0 80 48 00
        E 0 80 49 00
        E 0 80 4a 00
        E 0 80 4b 00
        E 0 80 4c 00
        E 0 80 4d 00
        E 0 80 60 00
        E 0 80 61 00
        E 0 80 62 00
        E 0 80 63 00
        E 0 80 64 00
        E 0 80 65 00
        E 0 8f 51 00
        E 0 8f 69 00
        E 120 90 6c 65
        E 0 93 49 67
        E 0 93 4a 66
        E 0 93 4b 64
        E 0 93 4c 65
        E 0 93 4d 64
        E 0 93 61 67
        E 0 93 62 66
        E 0 93 63 64
        E 0 93 64 65
        E 0 93 65 64
        E 120 80 6c 00
        E 0 83 49 00
        E 0 83 4a 00
        E 0 83 4b 00
        E 0 83 4c 00
        E 0 83 4d 00
        E 0 83 61 00
        E 0 83 62 00
        E 0 83 63 00
        E 0 83 64 00
        E 0 83 65 00
        E 120 90 0c 64
        E 0 90 31 67
        E 0 90 32 66
        E 0 90 49 67
        E 0 90 4a 66
        E 0 90 4b 64
        E 0 90 4c 65
        E 0 90 4d 64
        E 0 90 61 67
        E 0 90 62 66
        E 0 90 63 64
        E 0 90 64 65
        E 0 90 65 64
        E 0 9f 51 64
        E 0 9f 69 64
        E 120 80 74 00
        E 0 80 0c 00
        E 0 80 31 00
        E 0 80 32 00
        E 240 80 49 00
        E 0 80 4a 00
        E 0 80 4b 00
        E 0 80 4c 00
        E 0 80 4d 00
        E 0 80 61 00
        E 0 80 62 00
        E 0 80 63 00
        E 0 80 64 00
        E 0 80 65 00
        E 0 8f 51 00
        E 0 8f 69 00
        E 120 90 31 67
        E 0 90 32 66
        E 0 90 49 67
        E 0 90 4a 66
        E 0 90 4b 64
        E 0 90 4c 65
        E 0 90 4d 64
        E 0 90 61 67
        E 0 90 62 66
        E 0 90 63 64
        E 0 90 64 65
        E 0 90 65 64
        E 0 9f 51 64
        E 0 9f 69 64
        E 120 80 31 00
        E 0 80 32 00
        E 0 80 49 00
        E 0 80 4a 00
        E 0 80 4b 00
        E 0 80 4c 00
        E 0 80 4d 00
        E 0 80 61 00
        E 0 80 62 00
        E 0 80 63 00
        E 0 80 64 00
        E 0 80 65 00
        E 0 8f 51 00
        E 0 8f 69 00
        E 120 93 49 67
        E 0 93 4a 66
        E 0 93 4b 64
        E 0 93 4c 65
        E 0 93 4d 64
        E 0 93 61 67
        E 0 93 62 66
        E 0 93 63 64
        E 0 93 64 65
        E 0 93 65 64
        E 120 83 49 00
        E 0 83 4a 00
        E 0 83 4b 00
        E 0 83 4c 00
        E 0 83 4d 00
        E 0 83 61 00
        E 0 83 62 00
        E 0 83 63 00
        E 0 83 64 00
        E 0 83 65 00
        E 120 90 0c 64
        E 0 90 10 64
        E 0 90 31 66
        E 0 90 32 66
        E 0 90 49 66
        E 0 90 4a 66
        E 0 90 4b 64
        E 0 90 4c 65
        E 0 90 4d 64
        E 0 90 61 66
        E 0 90 62 66
        E 0 90 63 64
        E 0 90 64 65
        E 0 90 65 64
        E 0 9f 51 64
        E 0 9f 69 64
        E 120 80 0c 00
        E 0 80 10 00
        E 0 80 31 00
        E 0 80 32 00
        E 0 80 61 00
        E 0 80 62 00
        E 0 80 63 00
        E 0 80 64 00
        E 0 80 65 00
        E 0 8f 51 00
        E 0 8f 69 00
        E 120 90 61 66
        E 0 90 62 66
        E 0 90 63 64
        E 0 90 64 65
        E 0 90 65 64
        E 0 9d 51 64
        E 0 9d 69 64
        E 120 80 49 00
        E 0 80 4a 00
        E 0 80 4b 00
        E 0 80 4c 00
        E 0 80 4d 00
        E 0 80 61 00
        E 0 80 62 00
        E 0 80 63 00
        E 0 80 64 00
        E 0 80 65 00
        E 0 8d 51 00
        E 0 8d 69 00
        E 120 90 31 66
        E 0 90 32 66
        E 0 90 49 66
        E 0 90 4a 66
        E 0 90 4b 64
        E 0 90 4c 65
        E 0 90 4d 64
        E 0 90 61 66
        E 0 90 62 66
        E 0 90 63 64
        E 0 90 64 65
        E 0 90 65 64
        E 0 9f 51 64
        E 0 9f 69 64
        E 120 80 31 00
        E 0 80 32 00
        E 0 80 49 00
        E 0 80 4a 00
        E 0 80 4b 00
        E 0 80 4c 00
        E 0 80 4d 00
        E 0 80 61 00
        E 0 80 62 00
        E 0 80 63 00
        E 0 80 64 00
        E 0 80 65 00
        E 0 8f 51 00
        E 0 8f 69 00
        E 120 93 49 66
        E 0 93 4a 66
        E 0 93 4b 64
        E 0 93 4c 65
        E 0 93 4d 64
        E 0 93 61 66
        E 0 93 62 66
        E 0 93 63 64
        E 0 93 64 65
        E 0 93 65 64
        E 120 83 49 00
        E 0 83 4a 00
        E 0 83 4b 00
        E 0 83 4c 00
        E 0 83 4d 00
        E 0 83 61 00
        E 0 83 62 00
        E 0 83 63 00
        E 0 83 64 00
        E 0 83 65 00
        E 120 90 09 64
        E 0 90 1a 66
        E 0 90 32 66
        E 0 90 33 66
        E 0 90 49 64
        E 0 90 4a 66
        E 0 90 4b 66
        E 0 90 4c 65
        E 0 90 4d 64
        E 0 90 61 64
        E 0 90 62 66
        E 0 90 63 66
        E 0 90 64 65
        E 0 90 65 64
        E 0 9f 51 64
        E 0 9f 69 64
        E 120 80 09 00
        E 0 80 1a 00
        E 0 80 32 00
        E 0 80 33 00
        E 240 80 49 00
        E 0 80 4a 00
        E 0 80 4b 00
        E 0 80 4c 00
        E 0 80 4d 00
        E 0 80 61 00
        E 0 80 62 00
        E 0 80 63 00
        E 0 80 64 00
        E 0 80 65 00
        E 0 8f 51 00
        E 0 8f 69 00
        E 120 90 1a 66
        E 0 90 32 66
        E 0 90 33 66
        E 0 90 49 64
        E 0 90 4a 66
        E 0 90 4b 66
        E 0 90 4c 65
        E 0 90 4d 64
        E 0 90 61 64
        E 0 90 62 66
        E 0 90 63 66
        E 0 90 64 65
        E 0 90 65 64
        E 0 9f 51 64
        E 0 9f 69 64
        E 120 80 1a 00
        E 0 80 32 00
        E 0 80 33 00
        E 0 80 49 00
        E 0 80 4a 00
        E 0 80 4b 00
        E 0 80 4c 00
        E 0 80 4d 00
        E 0 80 61 00
        E 0 80 62 00
        E 0 80 63 00
        E 0 80 64 00
        E 0 80 65 00
        E 0 8f 51 00
        E 0 8f 69 00
        E 120 90 49 64
        E 0 90 4a 66
        E 0 90 4b 66
        E 0 90 4c 65
        E 0 90 4d 64
        E 0 90 61 64
        E 0 90 62 66
        E 0 90 63 66
        E 0 90 64 65
        E 0 90 65 64
        E 0 9d 51 64
        E 0 9d 69 64
        E 120 80 49 00
        E 0 80 4a 00
        E 0 80 4b 00
        E 0 80 4c 00
        E 0 80 4d 00
        E 0 80 61 00
        E 0 80 62 00
        E 0 80 63 00
        E 0 80 64 00
        E 0 80 65 00
        E 0 8d 51 00
        E 0 8d 69 00
        E 120 90 1a 66
        E 0 90 32 66
        E 0 90 33 66
        E 0 90 49 64
        E 0 90 4a 66
        E 0 90 4b 66
        E 0 90 4c 65
        E 0 90 4d 64
        E 0 90 61 64
        E 0 90 62 66
        E 0 90 63 66
        E 0 90 64 65
        E 0 90 65 64
        E 0 9f 51 64
        E 0 9f 69 64
        E 120 80 1a 00
        E 0 80 32 00
        E 0 80 33 00
        E 0 80 49 00
        E 0 80 4a 00
        E 0 80 4b 00
        E 0 80 4c 00
        E 0 80 4d 00
        E 0 80 61 00
        E 0 80 62 00
        E 0 80 63 00
        E 0 80 64 00
        E 0 80 65 00
        E 0 8f 51 00
        E 0 8f 69 00
        E 120 90 32 66
        E 0 90 33 66
        E 0 90 49 64
        E 0 90 4a 66
        E 0 90 4b 66
        E 0 90 4c 64
        E 0 90 4d 64
        E 0 90 61 64
        E 0 90 62 66
        E 0 90 63 66
        E 0 90 64 64
        E 0 90 65 64
        E 0 9d 51 64
        E 0 9d 69 64
        E 120 80 32 00
        E 0 80 33 00
        E 0 80 49 00
        E 0 80 4a 00
        E 0 80 4b 00
        E 0 80 4c 00
        E 0 80 4d 00
        E 0 80 61 00
        E 0 80 62 00
        E 0 80 63 00
        E 0 80 64 00
        E 0 80 65 00
        E 0 8d 51 00
        E 0 8d 69 00
        E 120 90 1a 66
        E 0 90 32 66
        E 0 90 33 66
        E 0 90 49 64
        E 0 90 4a 66
        E 0 90 4b 66
        E 0 90 4c 64
        E 0 90 4d 64
        E 0 90 61 64
        E 0 90 62 66
        E 0 90 63 66
        E 0 90 64 64
        E 0 90 65 64
        E 0 9f 51 64
        E 0 9f 69 64
        E 120 80 1a 00
        E 0 80 32 00
        E 0 80 33 00
        E 0 80 49 00
        E 0 80 4a 00
        E 0 80 4b 00
        E 0 80 4c 00
        E 0 80 4d 00
        E 0 80 61 00
        E 0 80 62 00
        E 0 80 63 00
        E 0 80 64 00
        E 0 80 65 00
        E 0 8f 51 00
        E 0 8f 69 00
        E 120 90 6c 66
        E 0 93 48 67
        E 0 93 49 66
        E 0 93 4a 64
        E 0 93 4b 64
        E 0 93 4c 64
        E 0 93 4d 67
        E 0 93 60 67
        E 0 93 61 66
        E 0 93 62 64
        E 0 93 63 64
        E 0 93 64 64
        E 0 93 65 67
        E 120 80 6c 00
        E 0 83 48 00
        E 0 83 49 00
        E 0 83 4a 00
        E 0 83 4b 00
        E 0 83 4c 00
        E 0 83 4d 00
        E 0 83 60 00
        E 0 83 61 00
        E 0 83 62 00
        E 0 83 63 00
        E 0 83 64 00
        E 0 83 65 00
        E 120 90 07 64
        E 0 90 18 67
        E 0 90 30 67
        E 0 90 31 66
        E 0 90 48 67
        E 0 90 49 66
        E 0 90 4a 64
        E 0 90 4b 64
        E 0 90 4c 64
        E 0 90 4d 67
        E 0 90 60 67
        E 0 90 61 66
        E 0 90 62 64
        E 0 90 63 64
        E 0 90 64 64
        E 0 90 65 67
        E 0 9f 51 64
        E 0 9f 69 64
        E 120 80 07 00 -1
        E 0 80 18 00
        E 0 80 30 00
        E 0 80 31 00
        E 240 80 48 00
        E 0 80 49 00
        E 0 80 4a 00
        E 0 80 4b 00
        E 0 80 4c 00
        E 0 80 4d 00
        E 0 80 60 00
        E 0 80 61 00
        E 0 80 62 00
        E 0 80 63 00
        E 0 80 64 00
        E 0 80 65 00
        E 0 8f 51 00
        E 0 8f 69 00
        E 120 90 30 67
        E 0 90 31 66
        E 0 90 48 67
        E 0 90 49 66
        E 0 90 4a 64
        E 0 90 4b 64
        E 0 90 4c 64
        E 0 90 4d 67
        E 0 90 60 67
        E 0 90 61 66
        E 0 90 62 64
        E 0 90 63 64
        E 0 90 64 64
        E 0 90 65 67
        E 0 9f 51 64
        E 0 9f 69 64
        E 120 80 30 00
        E 0 80 31 00
        E 0 80 48 00
        E 0 80 49 00
        E 0 80 4a 00
        E 0 80 4b 00
        E 0 80 4c 00
        E 0 80 4d 00
        E 0 80 60 00
        E 0 80 61 00
        E 0 80 62 00
        E 0 80 63 00
        E 0 80 64 00
        E 0 80 65 00
        E 0 8f 51 00
        E 0 8f 69 00
        E 120 93 48 66
        E 0 93 49 66
        E 0 93 4a 64
        E 0 93 4b 64
        E 0 93 4c 64
        E 0 93 4d 67
        E 0 93 60 66
        E 0 93 61 66
        E 0 93 62 64
        E 0 93 63 64
        E 0 93 64 64
        E 0 93 65 67
        E 120 83 48 00
        E 0 83 49 00
        E 0 83 4a 00
        E 0 83 4b 00
        E 0 83 4c 00
        E 0 83 4d 00
        E 0 83 60 00
        E 0 83 61 00
        E 0 83 62 00
        E 0 83 63 00
        E 0 83 64 00
        E 0 83 65 00
        E 120 90 07 64
        E 0 90 10 64
        E 0 90 18 66
        E 0 90 30 66
        E 0 90 31 66
        E 0 90 48 66
        E 0 90 49 66
        E 0 90 4a 64
        E 0 90 4b 64
        E 0 90 4c 64
        E 0 90 4d 67
        E 0 90 60 66
        E 0 90 61 66
        E 0 90 62 64
        E 0 90 63 64
        E 0 90 64 64
        E 0 90 65 67
        E 0 9f 51 64
        E 0 9f 69 64
        E 120 80 07 00
        E 0 80 10 00
        E 0 80 18 00
        E 0 80 30 00
        E 0 80 31 00
        E 0 80 48 00
        E 0 80 49 00
        E 0 80 4a 00
        E 0 80 4b 00
        E 0 80 4c 00
        E 0 80 4d 00
        E 0 80 60 00
        E 0 80 61 00
        E 0 80 62 00
        E 0 80 63 00
        E 0 80 64 00
        E 0 80 65 00
        E 0 8f 51 00
        E 0 8f 69 00
        E 120 90 30 66
        E 0 90 31 66
        E 0 90 48 66
        E 0 90 49 66
        E 0 90 4a 64
        E 0 90 4b 64
        E 0 90 4c 64
        E 0 90 4d 67
        E 0 90 60 66
        E 0 90 61 66
        E 0 90 62 64
        E 0 90 63 64
        E 0 90 64 64
        E 0 90 65 67
        E 0 9d 51 64
        E 0 9d 69 64
        E 120 80 30 00
        E 0 80 31 00
        E 0 80 48 00
        E 0 80 49 00
        E 0 80 4a 00
        E 0 80 4b 00
        E 0 80 4c 00
        E 0 80 4d 00
        E 0 80 60 00
        E 0 80 61 00
        E 0 80 62 00
        E 0 80 63 00
        E 0 80 64 00
        E 0 80 65 00
        E 0 8d 51 00
        E 0 8d 69 00
        E 120 90 30 66
        E 0 90 31 66
        E 0 90 48 66
        E 0 90 49 66
        E 0 90 4a 64
        E 0 90 4b 64
        E 0 90 4c 64
        E 0 90 4d 67
        E 0 90 60 66
        E 0 90 61 66
        E 0 90 62 64
        E 0 90 63 64
        E 0 90 64 64
        E 0 90 65 67
        E 0 9f 51 64
        E 0 9f 69 64
        E 120 80 30 00
        E 0 80 31 00
        E 0 80 48 00
        E 0 80 49 00
        E 0 80 4a 00
        E 0 80 4b 00
        E 0 80 4c 00
        E 0 80 4d 00
        E 0 80 60 00
        E 0 80 61 00
        E 0 80 62 00
        E 0 80 63 00
        E 0 80 64 00
        E 0 80 65 00
        E 0 8f 51 00
        E 0 8f 69 00
        E 120 93 48 64
        E 0 93 49 66
        E 0 93 4a 66
        E 0 93 4b 64
        E 0 93 4c 64
        E 0 93 4d 64
        E 0 93 60 64
        E 0 93 61 66
        E 0 93 62 66
        E 0 93 63 64
        E 0 93 64 64
        E 0 93 65 64
        E 120 83 48 00
        E 0 83 49 00
        E 0 83 4a 00
        E 0 83 4b 00
        E 0 83 4c 00
        E 0 83 4d 00
        E 0 83 60 00
        E 0 83 61 00
        E 0 83 62 00
        E 0 83 63 00
        E 0 83 64 00
        E 0 83 65 00
        E 120 90 04 64 -1
        E 0 90 19 66
        E 0 90 31 66
        E 0 90 32 66
        E 0 90 48 64
        E 0 90 49 66
        E 0 90 4a 66
        E 0 90 4b 64
        E 0 90 4c 64
        E 0 90 4d 64
        E 0 90 60 64 -1
        E 0 90 61 66 -1
        E 0 90 62 66 -1
        E 0 90 63 64 -1
        E 0 90 64 64 -1
        E 0 90 65 64 -1
        E 0 9f 51 64
        E 0 9f 69 64
        E 120 80 04 00
        E 0 80 19 00
        E 0 80 31 00
        E 0 80 32 00
        E 240 80 48 00
        E 0 80 49 00
        E 0 80 4a 00
        E 0 80 4b 00
        E 0 80 4c 00
        E 0 80 4d 00
        E 0 80 60 00
        E 0 80 61 00
        E 0 80 62 00
        E 0 80 63 00
        E 0 80 64 00
        E 0 80 65 00
        E 0 8f 51 00
        E 0 8f 69 00
        E 120 90 19 66
        E 0 90 31 66
        E 0 90 32 66
        E 0 90 48 64
        E 0 90 49 66
        E 0 90 4a 66
        E 0 90 4b 64
        E 0 90 4c 64
        E 0 90 4d 64
        E 0 90 60 64
        E 0 90 61 66
        E 0 90 62 66
        E 0 90 63 64
        E 0 90 64 64
        E 0 90 65 64
        E 0 9f 51 64
        E 0 9f 69 64
        E 120 80 19 00
        E 0 80 31 00
        E 0 80 32 00
        E 0 80 48 00
        E 0 80 49 00
        E 0 80 4a 00
        E 0 80 4b 00
        E 0 80 4c 00
        E 0 80 4d 00
        E 0 80 60 00
        E 0 80 61 00
        E 0 80 62 00
        E 0 80 63 00
        E 0 80 64 00
        E 0 80 65 00
        E 0 8f 51 00
        E 0 8f 69 00
        E 120 90 31 66
        E 0 90 32 66
        E 0 90 48 64
        E 0 90 49 66
        E 0 90 4a 66
        E 0 90 4b 64
        E 0 90 4c 64
        E 0 90 4d 64
        E 0 90 60 64
        E 0 90 61 66
        E 0 90 62 66
        E 0 90 63 64
        E 0 90 64 64
        E 0 90 65 64
        E 0 9d 51 64
        E 0 9d 69 64
        E 120 80 31 00
        E 0 80 32 00
        E 0 80 48 00
        E 0 80 49 00
        E 0 80 4a 00
        E 0 80 4b 00
        E 0 80 4c 00
        E 0 80 4d 00
        E 0 80 60 00
        E 0 80 61 00
        E 0 80 62 00
        E 0 80 63 00
        E 0 80 64 00
        E 0 80 65 00
        E 0 8d 51 00
        E 0 8d 69 00
        E 120 90 19 66
        E 0 90 31 66
        E 0 90 32 66
        E 0 90 48 64
        E 0 90 49 66
        E 0 90 4a 66
        E 0 90 4b 64
        E 0 90 4c 64
        E 0 90 4d 64
        E 0 90 60 64
        E 0 90 61 66
        E 0 90 62 66
        E 0 90 63 64
        E 0 90 64 64
        E 0 90 65 64
        E 0 9f 51 64
        E 0 9f 69 64
        E 120 80 19 00
        E 0 80 31 00
        E 0 80 32 00
        E 0 80 48 00
        E 0 80 49 00
        E 0 80 4a 00
        E 0 80 4b 00
        E 0 80 4c 00
        E 0 80 4d 00
        E 0 80 60 00
        E 0 80 61 00
        E 0 80 62 00
        E 0 80 63 00
        E 0 80 64 00
        E 0 80 65 00
        E 0 8f 51 00
        E 0 8f 69 00
        E 120 90 31 66
        E 0 90 32 66
        E 0 90 48 64
        E 0 90 49 66
        E 0 90 4a 66
        E 0 90 4b 64
        E 0 90 4c 64
        E 0 90 4d 64
        E 0 90 60 64
        E 0 90 61 66
        E 0 90 62 66
        E 0 90 63 64
        E 0 90 64 64
        E 0 90 65 64
        E 0 9d 51 64
        E 0 9d 69 64
        E 120 80 31 00
        E 0 80 32 00
        E 0 80 48 00
        E 0 80 49 00
        E 0 80 4a 00
        E 0 80 4b 00
        E 0 80 4c 00
        E 0 80 4d 00
        E 0 80 60 00
        E 0 80 61 00
        E 0 80 62 00
        E 0 80 63 00
        E 0 80 64 00
        E 0 80 65 00
        E 0 8d 51 00
        E 0 8d 69 00
        E 120 90 31 66
        E 0 90 32 66
        E 0 90 48 64
        E 0 90 49 66
        E 0 90 4a 66
        E 0 90 4b 64
        E 0 90 4c 64
        E 0 90 4d 64
        E 0 90 60 64
        E 0 90 61 66
        E 0 90 62 66
        E 0 90 63 64
        E 0 90 64 64
        E 0 90 65 64
        E 0 9f 51 64
        E 0 9f 69 64
        E 120 80 31 00
        E 0 80 32 00
        E 0 80 48 00
        E 0 80 49 00
        E 0 80 4a 00
        E 0 80 4b 00
        E 0 80 4c 00
        E 0 80 4d 00
        E 0 80 60 00
        E 0 80 61 00
        E 0 80 62 00
        E 0 80 63 00
        E 0 80 64 00
        E 0 80 65 00
        E 0 8f 51 00
        E 0 8f 69 00
        E 120 90 6c 65
        E 0 93 49 67
        E 0 93 4a 66
        E 0 93 4b 64
        E 0 93 4c 65
        E 0 93 4d 64
        E 0 93 61 67
        E 0 93 62 66
        E 0 93 63 64
        E 0 93 64 65
        E 0 93 65 64
        E 120 80 6c 00
        E 0 83 49 00
        E 0 83 4a 00
        E 0 83 4b 00
        E 0 83 4c 00
        E 0 83 4d 00
        E 0 83 61 00
        E 0 83 62 00
        E 0 83 63 00
        E 0 83 64 00
        E 0 83 65 00
        E 120 90 0c 64
        E 0 90 31 67
        E 0 90 32 66
        E 0 90 49 67
        E 0 90 4a 66
        E 0 90 4b 64
        E 0 90 4c 65
        E 0 90 4d 64
        E 0 90 61 67
        E 0 90 62 66
        E 0 90 63 64
        E 0 90 64 65
        E 0 90 65 64
        E 0 9f 51 64
        E 0 9f 69 64
        E 120 80 0c 00
        E 0 80 31 00
        E 0 80 32 00
        E 240 80 49 00
        E 0 80 4a 00
        E 0 80 4b 00
        E 0 80 4c 00
        E 0 80 4d 00
        E 0 80 61 00
        E 0 80 62 00
        E 0 80 63 00
        E 0 80 64 00
        E 0 80 65 00
        E 0 8f 51 00
        E 0 8f 69 00
        E 120 90 31 67
        E 0 90 32 66
        E 0 90 49 67
        E 0 90 4a 66
        E 0 90 4b 64
        E 0 90 4c 65
        E 0 90 4d 64
        E 0 90 61 67
        E 0 90 62 66
        E 0 90 63 64
        E 0 90 64 65
        E 0 90 65 64
        E 0 9f 51 64
        E 0 9f 69 64
        E 120 80 31 00
        E 0 80 32 00
        E 240 80 49 00
        E 0 80 4a 00
        E 0 80 4b 00
        E 0 80 4c 00
        E 0 80 4d 00
        E 0 80 61 00
        E 0 80 62 00
        E 0 80 63 00
        E 0 80 64 00
        E 0 80 65 00
        E 0 8f 51 00
        E 0 8f 69 00
        E 120 90 31 67
        E 0 90 32 66
        E 0 90 49 67
        E 0 90 4a 66
        E 0 90 4b 64
        E 0 90 4c 65
        E 0 90 4d 64
        E 0 90 61 67
        E 0 90 62 66
        E 0 90 63 64
        E 0 90 64 65
        E 0 90 65 64
        E 0 9f 51 64
        E 0 9f 69 64
        E 120 80 31 00
        E 0 80 32 00
        E 240 80 49 00
        E 0 80 4a 00
        E 0 80 4b 00
        E 0 80 4c 00
        E 0 80 4d 00
        E 0 80 61 00
        E 0 80 62 00
        E 0 80 63 00
        E 0 80 64 00
        E 0 80 65 00
        E 0 8f 51 00
        E 0 8f 69 00
        E 120 90 31 67
        E 0 90 32 66
        E 0 90 49 67
        E 0 90 4a 66
        E 0 90 4b 64
        E 0 90 4c 65
        E 0 90 4d 64
        E 0 90 61 67
        E 0 90 62 66
        E 0 90 63 64
        E 0 90 64 65
        E 0 90 65 64
        E 0 9f 51 64
        E 0 9f 69 64
        E 120 80 31 00
        E 0 80 32 00
        E 0 80 49 00
        E 0 80 4a 00
        E 0 80 4b 00
        E 0 80 4c 00
        E 0 80 4d 00
        E 0 80 61 00
        E 0 80 62 00
        E 0 80 63 00
        E 0 80 64 00
        E 0 80 65 00
        E 0 8f 51 00
        E 0 8f 69 00
        E 120 90 6c 66
        E 0 93 4a 64
        E 0 93 4b 66
        E 0 93 4c 67
        E 0 93 4d 66
        E 0 93 62 64
        E 0 93 63 66
        E 0 93 64 67
        E 0 93 65 66
        E 120 80 6c 00
        E 0 83 4a 00
        E 0 83 4b 00
        E 0 83 4c 00
        E 0 83 4d 00
        E 0 83 62 00
        E 0 83 63 00
        E 0 83 64 00
        E 0 83 65 00
        E 120 90 0e 64
        E 0 90 33 66
        E 0 90 34 67
        E 0 90 4a 64
        E 0 90 4b 66
        E 0 90 4c 67
        E 0 90 4d 66
        E 0 90 62 64
        E 0 90 63 66
        E 0 90 64 67
        E 0 90 65 66
        E 0 9f 51 64
        E 0 9f 69 64
        E 120 80 0e 00
        E 0 80 33 00
        E 0 80 34 00
        E 0 80 4a 00
        E 0 80 4b 00
        E 0 80 4c 00
        E 0 80 4d 00
        E 0 80 62 00
        E 0 80 63 00
        E 0 80 64 00
        E 0 80 65 00
        E 0 8f 51 00
        E 0 8f 69 00
        E 120 90 4a 64
        E 0 90 4b 66
        E 0 90 4c 67
        E 0 90 4d 66
        E 0 90 62 64
        E 0 90 63 66
        E 0 90 64 67
        E 0 90 65 66
        E 0 9d 51 64
        E 0 9d 69 64
        E 120 80 4a 00
        E 0 80 4b 00
        E 0 80 4c 00
        E 0 80 4d 00
        E 0 80 62 00
        E 0 80 63 00
        E 0 80 64 00
        E 0 80 65 00
        E 0 8d 51 00
        E 0 8d 69 00
        E 120 90 33 66
        E 0 90 34 67
        E 0 90 4a 64
        E 0 90 4b 66
        E 0 90 4c 67
        E 0 90 4d 66
        E 0 90 62 64
        E 0 90 63 66
        E 0 90 64 67
        E 0 90 65 66
        E 0 9f 51 64
        E 0 9f 69 64
        E 120 80 33 00
        E 0 80 34 00
        E 240 80 4a 00
        E 0 80 4b 00
        E 0 80 4c 00
        E 0 80 4d 00
        E 0 80 62 00
        E 0 80 63 00
        E 0 80 64 00
        E 0 80 65 00
        E 0 8f 51 00
        E 0 8f 69 00
        E 120 90 33 66
        E 0 90 34 67
        E 0 90 4a 64
        E 0 90 4b 66
        E 0 90 4c 67
        E 0 90 4d 66
        E 0 90 62 64
        E 0 90 63 66
        E 0 90 64 67
        E 0 90 65 66
        E 0 9f 51 64
        E 0 9f 69 64
        E 120 80 33 00
        E 0 80 34 00
        E 240 80 4a 00
        E 0 80 4b 00
        E 0 80 4c 00
        E 0 80 4d 00
        E 0 80 62 00
        E 0 80 63 00
        E 0 80 64 00
        E 0 80 65 00
        E 0 8f 51 00
        E 0 8f 69 00
        E 120 90 33 66
        E 0 90 34 67
        E 0 90 4a 64
        E 0 90 4b 66
        E 0 90 4c 67
        E 0 90 4d 66
        E 0 90 62 64
        E 0 90 63 66
        E 0 90 64 67
        E 0 90 65 66
        E 0 9f 51 64
        E 0 9f 69 64
        E 120 80 33 00
        E 0 80 34 00
        E 0 80 4a 00
        E 0 80 4b 00
        E 0 80 4c 00
        E 0 80 4d 00
        E 0 80 62 00
        E 0 80 63 00
        E 0 80 64 00
        E 0 80 65 00
        E 0 8f 51 00
        E 0 8f 69 00
        E 120 93 48 67
        E 0 93 49 66
        E 0 93 4a 64
        E 0 93 4b 64
        E 0 93 4c 64
        E 0 93 4d 67
        E 0 93 60 67
        E 0 93 61 66
        E 0 93 62 64
        E 0 93 63 64
        E 0 93 64 64
        E 0 93 65 67
        E 120 83 48 00
        E 0 83 49 00
        E 0 83 4a 00
        E 0 83 4b 00
        E 0 83 4c 00
        E 0 83 4d 00
        E 0 83 60 00
        E 0 83 61 00
        E 0 83 62 00
        E 0 83 63 00
        E 0 83 64 00
        E 0 83 65 00
        E 120 90 07 64
        E 0 90 18 67
        E 0 90 30 67
        E 0 90 31 66
        E 0 90 48 67
        E 0 90 49 66
        E 0 90 4a 64
        E 0 90 4b 64
        E 0 90 4c 64
        E 0 90 4d 67
        E 0 90 60 67
        E 0 90 61 66
        E 0 90 62 64
        E 0 90 63 64
        E 0 90 64 64
        E 0 90 65 67
        E 0 90 6c 66
        E 0 9f 51 64
        E 0 9f 69 64
        E 120 80 07 00 -1
        E 0 80 18 00
        E 0 80 30 00
        E 0 80 31 00
        E 0 80 6c 00 -1
        E 240 80 48 00
        E 0 80 49 00
        E 0 80 4a 00
        E 0 80 4b 00
        E 0 80 4c 00
        E 0 80 4d 00
        E 0 80 60 00
        E 0 80 61 00
        E 0 80 62 00
        E 0 80 63 00
        E 0 80 64 00
        E 0 80 65 00
        E 0 8f 51 00
        E 0 8f 69 00
        E 120 90 30 67
        E 0 90 31 66
        E 0 90 48 67
        E 0 90 49 66
        E 0 90 4a 64
        E 0 90 4b 64
        E 0 90 4c 64
        E 0 90 4d 67
        E 0 90 60 67
        E 0 90 61 66
        E 0 90 62 64
        E 0 90 63 64
        E 0 90 64 64
        E 0 90 65 67
        E 0 9f 51 64
        E 0 9f 69 64
        E 120 80 30 00
        E 0 80 31 00
        E 0 80 48 00
        E 0 80 49 00
        E 0 80 4a 00
        E 0 80 4b 00
        E 0 80 4c 00
        E 0 80 4d 00
        E 0 80 60 00
        E 0 80 61 00
        E 0 80 62 00
        E 0 80 63 00
        E 0 80 64 00
        E 0 80 65 00
        E 0 8f 51 00
        E 0 8f 69 00
        E 120 93 48 66
        E 0 93 49 66
        E 0 93 4a 64
        E 0 93 4b 64
        E 0 93 4c 64
        E 0 93 4d 67
        E 0 93 60 66
        E 0 93 61 66
        E 0 93 62 64
        E 0 93 63 64
        E 0 93 64 64
        E 0 93 65 67
        E 120 83 48 00
        E 0 83 49 00
        E 0 83 4a 00
        E 0 83 4b 00
        E 0 83 4c 00
        E 0 83 4d 00
        E 0 83 60 00
        E 0 83 61 00
        E 0 83 62 00
        E 0 83 63 00
        E 0 83 64 00
        E 0 83 65 00
        E 120 90 07 64
        E 0 90 10 64
        E 0 90 18 66
        E 0 90 30 66
        E 0 90 31 66
        E 0 90 48 66
        E 0 90 49 66
        E 0 90 4a 64
        E 0 90 4b 64
        E 0 90 4c 64
        E 0 90 4d 67
        E 0 90 60 66
        E 0 90 61 66
        E 0 90 62 64
        E 0 90 63 64
        E 0 90 64 64
        E 0 90 65 67
        E 0 9f 51 64
        E 0 9f 69 64
        E 120 80 07 00
        E 0 80 10 00
        E 0 80 18 00
        E 0 80 30 00
        E 0 80 31 00
        E 0 80 48 00
        E 0 80 49 00
        E 0 80 4a 00
        E 0 80 4b 00
        E 0 80 4c 00
        E 0 80 4d 00
        E 0 8f 51 00
        E 0 8f 69 00
        E 120 90 30 66
        E 0 90 31 66
        E 0 90 48 66
        E 0 90 49 66
        E 0 90 4a 64
        E 0 90 4b 64
        E 0 90 4c 64
        E 0 90 4d 67
        E 0 9d 51 64
        E 0 9d 69 64
        E 120 80 60 00
        E 0 80 61 00
        E 0 80 62 00
        E 0 80 63 00
        E 0 80 64 00
        E 0 80 65 00
        E 0 80 30 00
        E 0 80 31 00
        E 0 80 48 00
        E 0 80 49 00
        E 0 80 4a 00
        E 0 80 4b 00
        E 0 80 4c 00
        E 0 80 4d 00
        E 0 8d 51 00
        E 0 8d 69 00
        E 120 90 30 66
        E 0 90 31 66
        E 0 90 48 66
        E 0 90 49 66
        E 0 90 4a 64
        E 0 90 4b 64
        E 0 90 4c 64
        E 0 90 4d 67
        E 0 90 60 66
        E 0 90 61 66
        E 0 90 62 64
        E 0 90 63 64
        E 0 90 64 64
        E 0 90 65 67
        E 0 9f 51 64
        E 0 9f 69 64
        E 120 80 30 00
        E 0 80 31 00
        E 0 80 48 00
        E 0 80 49 00
        E 0 80 4a 00
        E 0 80 4b 00
        E 0 80 4c 00
        E 0 80 4d 00
        E 0 80 60 00
        E 0 80 61 00
        E 0 80 62 00
        E 0 80 63 00
        E 0 80 64 00
        E 0 80 65 00
        E 0 8f 51 00
        E 0 8f 69 00
        E 120 93 48 64
        E 0 93 49 66
        E 0 93 4a 66
        E 0 93 4b 64
        E 0 93 4c 64
        E 0 93 4d 64
        E 0 93 60 64
        E 0 93 61 66
        E 0 93 62 66
        E 0 93 63 64
        E 0 93 64 64
        E 0 93 65 64
        E 120 83 48 00
        E 0 83 49 00
        E 0 83 4a 00
        E 0 83 4b 00
        E 0 83 4c 00
        E 0 83 4d 00
        E 0 83 60 00
        E 0 83 61 00
        E 0 83 62 00
        E 0 83 63 00
        E 0 83 64 00
        E 0 83 65 00
        E 120 90 04 64 -1
        E 0 90 19 66
        E 0 90 31 66
        E 0 90 32 66
        E 0 90 48 64
        E 0 90 49 66
        E 0 90 4a 66
        E 0 90 4b 64
        E 0 90 4c 64
        E 0 90 4d 64
        E 0 90 60 64 -1
        E 0 90 61 66 -1
        E 0 90 62 66 -1
        E 0 90 63 64 -1
        E 0 90 64 64 -1
        E 0 90 65 64 -1
        E 0 9f 51 64
        E 0 9f 69 64
        E 120 80 04 00
        E 0 80 19 00
        E 0 80 31 00
        E 0 80 32 00
        E 240 80 48 00
        E 0 80 49 00
        E 0 80 4a 00
        E 0 80 4b 00
        E 0 80 4c 00
        E 0 80 4d 00
        E 0 80 60 00
        E 0 80 61 00
        E 0 80 62 00
        E 0 80 63 00
        E 0 80 64 00
        E 0 80 65 00
        E 0 8f 51 00
        E 0 8f 69 00
        E 120 90 19 66
        E 0 90 31 66
        E 0 90 32 66
        E 0 90 48 64
        E 0 90 49 66
        E 0 90 4a 66
        E 0 90 4b 64
        E 0 90 4c 64
        E 0 90 4d 64
        E 0 90 60 64
        E 0 90 61 66
        E 0 90 62 66
        E 0 90 63 64
        E 0 90 64 64
        E 0 90 65 64
        E 0 9f 51 64
        E 0 9f 69 64
        E 120 80 19 00
        E 0 80 31 00
        E 0 80 32 00
        E 240 80 48 00
        E 0 80 49 00
        E 0 80 4a 00
        E 0 80 4b 00
        E 0 80 4c 00
        E 0 80 4d 00
        E 0 80 60 00
        E 0 80 61 00
        E 0 80 62 00
        E 0 80 63 00
        E 0 80 64 00
        E 0 80 65 00
        E 0 8f 51 00
        E 0 8f 69 00
        E 120 90 19 66
        E 0 90 31 66
        E 0 90 32 66
        E 0 90 48 64
        E 0 90 49 66
        E 0 90 4a 66
        E 0 90 4b 64
        E 0 90 4c 64
        E 0 90 4d 64
        E 0 90 60 64
        E 0 90 61 66
        E 0 90 62 66
        E 0 90 63 64
        E 0 90 64 64
        E 0 90 65 64
        E 0 9d 51 64
        E 0 9d 69 64
        E 120 80 19 00
        E 0 80 31 00
        E 0 80 32 00
        E 0 80 48 00
        E 0 80 49 00
        E 0 80 4a 00
        E 0 80 4b 00
        E 0 80 4c 00
        E 0 80 4d 00
        E 0 80 60 00
        E 0 80 61 00
        E 0 80 62 00
        E 0 80 63 00
        E 0 80 64 00
        E 0 80 65 00
        E 0 8d 51 00
        E 0 8d 69 00
        E 120 90 31 66
        E 0 90 32 66
        E 0 90 48 64
        E 0 90 49 66
        E 0 90 4a 66
        E 0 90 4b 64
        E 0 90 4c 64
        E 0 90 4d 64
        E 0 90 60 64
        E 0 90 61 66
        E 0 90 62 66
        E 0 90 63 64
        E 0 90 64 64
        E 0 90 65 64
        E 0 9d 51 64
        E 0 9d 69 64
        E 120 80 31 00
        E 0 80 32 00
        E 0 80 48 00
        E 0 80 49 00
        E 0 80 4a 00
        E 0 80 4b 00
        E 0 80 4c 00
        E 0 80 4d 00
        E 0 80 60 00
        E 0 80 61 00
        E 0 80 62 00
        E 0 80 63 00
        E 0 80 64 00
        E 0 80 65 00
        E 0 8d 51 00
        E 0 8d 69 00
        E 120 90 31 66
        E 0 90 32 66
        E 0 90 48 64
        E 0 90 49 66
        E 0 90 4a 66
        E 0 90 4b 64
        E 0 90 4c 64
        E 0 90 4d 64
        E 0 90 60 64
        E 0 90 61 66
        E 0 90 62 66
        E 0 90 63 64
        E 0 90 64 64
        E 0 90 65 64
        E 0 9f 51 64
        E 0 9f 69 64
        E 120 80 31 00
        E 0 80 32 00
        E 0 80 48 00
        E 0 80 49 00
        E 0 80 4a 00
        E 0 80 4b 00
        E 0 80 4c 00
        E 0 80 4d 00
        E 0 80 60 00
        E 0 80 61 00
        E 0 80 62 00
        E 0 80 63 00
        E 0 80 64 00
        E 0 80 65 00
        E 0 8f 51 00
        E 0 8f 69 00
        E 120 90 6c 65
        E 0 93 49 67
        E 0 93 4a 66
        E 0 93 4b 64
        E 0 93 4c 65
        E 0 93 4d 64
        E 0 93 61 67
        E 0 93 62 66
        E 0 93 63 64
        E 0 93 64 65
        E 0 93 65 64
        E 120 80 6c 00
        E 0 83 49 00
        E 0 83 4a 00
        E 0 83 4b 00
        E 0 83 4c 00
        E 0 83 4d 00
        E 0 83 61 00
        E 0 83 62 00
        E 0 83 63 00
        E 0 83 64 00
        E 0 83 65 00
        E 120 90 0c 64
        E 0 90 31 67
        E 0 90 32 66
        E 0 90 49 67
        E 0 90 4a 66
        E 0 90 4b 64
        E 0 90 4c 65
        E 0 90 4d 64
        E 0 90 61 67
        E 0 90 62 66
        E 0 90 63 64
        E 0 90 64 65
        E 0 90 65 64
        E 0 9f 51 64
        E 0 9f 69 64
        E 120 80 0c 00
        E 0 80 31 00
        E 0 80 32 00
        E 240 80 49 00
        E 0 80 4a 00
        E 0 80 4b 00
        E 0 80 4c 00
        E 0 80 4d 00
        E 0 80 61 00
        E 0 80 62 00
        E 0 80 63 00
        E 0 80 64 00
        E 0 80 65 00
        E 0 8f 51 00
        E 0 8f 69 00
        E 120 90 31 67
        E 0 90 32 66
        E 0 90 49 67
        E 0 90 4a 66
        E 0 90 4b 64
        E 0 90 4c 65
        E 0 90 4d 64
        E 0 90 61 67
        E 0 90 62 66
        E 0 90 63 64
        E 0 90 64 65
        E 0 90 65 64
        E 0 9f 51 64
        E 0 9f 69 64
        E 120 80 31 00
        E 0 80 32 00
        E 240 80 49 00
        E 0 80 4a 00
        E 0 80 4b 00
        E 0 80 4c 00
        E 0 80 4d 00
        E 0 80 61 00
        E 0 80 62 00
        E 0 80 63 00
        E 0 80 64 00
        E 0 80 65 00
        E 0 8f 51 00
        E 0 8f 69 00
        E 120 90 31 67
        E 0 90 32 66
        E 0 90 49 67
        E 0 90 4a 66
        E 0 90 4b 64
        E 0 90 4c 65
        E 0 90 4d 64
        E 0 90 61 67
        E 0 90 62 66
        E 0 90 63 64
        E 0 90 64 65
        E 0 90 65 64
        E 0 9f 51 64
        E 0 9f 69 64
        E 120 80 31 00
        E 0 80 32 00
        E 0 80 49 00
        E 0 80 4a 00
        E 0 80 4b 00
        E 0 80 4c 00
        E 0 80 4d 00
        E 0 80 61 00
        E 0 80 62 00
        E 0 80 63 00
        E 0 80 64 00
        E 0 80 65 00
        E 0 8f 51 00
        E 0 8f 69 00
        E 120 90 31 67
        E 0 90 32 66
        E 0 90 49 67
        E 0 90 4a 66
        E 0 90 4b 64
        E 0 90 4c 65
        E 0 90 4d 64
        E 0 90 61 67
        E 0 90 62 66
        E 0 90 63 64
        E 0 90 64 65
        E 0 90 65 64
        E 0 9d 51 64
        E 0 9d 69 64
        E 120 80 31 00
        E 0 80 32 00
        E 0 80 49 00
        E 0 80 4a 00
        E 0 80 4b 00
        E 0 80 4c 00
        E 0 80 4d 00
        E 0 80 61 00
        E 0 80 62 00
        E 0 80 63 00
        E 0 80 64 00
        E 0 80 65 00
        E 0 8d 51 00
        E 0 8d 69 00
        E 120 90 31 67
        E 0 90 32 66
        E 0 90 49 67
        E 0 90 4a 66
        E 0 90 4b 64
        E 0 90 4c 65
        E 0 90 4d 64
        E 0 90 61 67
        E 0 90 62 66
        E 0 90 63 64
        E 0 90 64 65
        E 0 90 65 64
        E 0 9f 51 64
        E 0 9f 69 64
        E 120 80 31 00
        E 0 80 32 00
        E 0 80 49 00
        E 0 80 4a 00
        E 0 80 4b 00
        E 0 80 4c 00
        E 0 80 4d 00
        E 0 80 61 00
        E 0 80 62 00
        E 0 80 63 00
        E 0 80 64 00
        E 0 80 65 00
        E 0 8f 51 00
        E 0 8f 69 00
        E 120 90 6c 66
        E 0 93 4a 64
        E 0 93 4b 66
        E 0 93 4c 67
        E 0 93 4d 66
        E 0 93 62 64
        E 0 93 63 66
        E 0 93 64 67
        E 0 93 65 66
        E 120 80 6c 00
        E 0 83 4a 00
        E 0 83 4b 00
        E 0 83 4c 00
        E 0 83 4d 00
        E 0 83 62 00
        E 0 83 63 00
        E 0 83 64 00
        E 0 83 65 00
        E 120 90 0e 64
        E 0 90 33 66
        E 0 90 34 67
        E 0 90 4a 64
        E 0 90 4b 66
        E 0 90 4c 67
        E 0 90 4d 66
        E 0 90 62 64
        E 0 90 63 66
        E 0 90 64 67
        E 0 90 65 66
        E 0 9f 51 64
        E 0 9f 69 64
        E 120 80 0e 00
        E 0 80 33 00
        E 0 80 34 00
        E 240 80 4a 00
        E 0 80 4b 00
        E 0 80 4c 00
        E 0 80 4d 00
        E 0 80 62 00
        E 0 80 63 00
        E 0 80 64 00
        E 0 80 65 00
        E 0 8f 51 00
        E 0 8f 69 00
        E 120 90 33 66
        E 0 90 34 67
        E 0 90 4a 64
        E 0 90 4b 66
        E 0 90 4c 67
        E 0 90 4d 66
        E 0 90 62 64
        E 0 90 63 66
        E 0 90 64 67
        E 0 90 65 66
        E 0 9f 51 64
        E 0 9f 69 64
        E 120 80 33 00
        E 0 80 34 00
        E 240 80 4a 00
        E 0 80 4b 00
        E 0 80 4c 00
        E 0 80 4d 00
        E 0 80 62 00
        E 0 80 63 00
        E 0 80 64 00
        E 0 80 65 00
        E 0 8f 51 00
        E 0 8f 69 00
        E 120 90 33 66
        E 0 90 34 65
        E 0 90 4a 64
        E 0 90 4b 66
        E 0 90 4c 65
        E 0 90 4d 66
        E 0 90 62 64
        E 0 90 63 66
        E 0 90 64 65
        E 0 90 65 66
        E 0 90 6c 65
        E 0 9f 51 64
        E 0 9f 69 64
        E 120 80 33 00
        E 0 80 34 00
        E 0 80 4a 00
        E 0 80 4b 00
        E 0 80 4c 00
        E 0 80 4d 00
        E 0 80 62 00
        E 0 80 63 00
        E 0 80 64 00
        E 0 80 65 00
        E 0 80 6c 00
        E 0 8f 51 00
        E 0 8f 69 00
        E 120 90 33 66
        E 0 90 34 65
        E 0 90 4a 64
        E 0 90 4b 66
        E 0 90 4c 65
        E 0 90 4d 66
        E 0 90 62 64
        E 0 90 63 66
        E 0 90 64 65
        E 0 90 65 66
        E 0 9d 51 64
        E 0 9d 69 64
        E 120 80 33 00
        E 0 80 34 00
        E 0 80 4a 00
        E 0 80 4b 00
        E 0 80 4c 00
        E 0 80 4d 00
        E 0 80 62 00
        E 0 80 63 00
        E 0 80 64 00
        E 0 80 65 00
        E 0 8d 51 00
        E 0 8d 69 00
        E 120 90 33 66
        E 0 90 34 65
        E 0 90 4a 64
        E 0 90 4b 66
        E 0 90 4c 65
        E 0 90 4d 66
        E 0 90 62 64
        E 0 90 63 66
        E 0 90 64 65
        E 0 90 65 66
        E 0 9f 51 64
        E 0 9f 69 64
        E 120 80 33 00
        E 0 80 34 00
        E 0 80 4a 00
        E 0 80 4b 00
        E 0 80 4c 00
        E 0 80 4d 00
        E 0 80 62 00
        E 0 80 63 00
        E 0 80 64 00
        E 0 80 65 00
        E 0 8f 51 00
        E 0 8f 69 00
        E 120 90 6c 66
        E 0 93 48 67
        E 0 93 49 66
        E 0 93 4a 64
        E 0 93 4b 64
        E 0 93 4c 64
        E 0 93 4d 67
        E 0 93 60 67
        E 0 93 61 66
        E 0 93 62 64
        E 0 93 63 64
        E 0 93 64 64
        E 0 93 65 67
        E 120 80 6c 00
        E 0 83 48 00
        E 0 83 49 00
        E 0 83 4a 00
        E 0 83 4b 00
        E 0 83 4c 00
        E 0 83 4d 00
        E 0 83 60 00
        E 0 83 61 00
        E 0 83 62 00
        E 0 83 63 00
        E 0 83 64 00
        E 0 83 65 00
        E 120 90 07 64
        E 0 90 18 67
        E 0 90 30 67
        E 0 90 31 66
        E 0 90 48 67
        E 0 90 49 66
        E 0 90 4a 64
        E 0 90 4b 64
        E 0 90 4c 64
        E 0 90 4d 67
        E 0 90 60 67
        E 0 90 61 66
        E 0 90 62 64
        E 0 90 63 64
        E 0 90 64 64
        E 0 90 65 67
        E 0 9f 51 64
        E 0 9f 69 64
        E 120 80 07 00 -1
        E 0 80 18 00
        E 0 80 30 00
        E 0 80 31 00
        E 240 80 48 00
        E 0 80 49 00
        E 0 80 4a 00
        E 0 80 4b 00
        E 0 80 4c 00
        E 0 80 4d 00
        E 0 80 60 00
        E 0 80 61 00
        E 0 80 62 00
        E 0 80 63 00
        E 0 80 64 00
        E 0 80 65 00
        E 0 8f 51 00
        E 0 8f 69 00
        E 120 90 30 67
        E 0 90 31 66
        E 0 90 48 67
        E 0 90 49 66
        E 0 90 4a 64
        E 0 90 4b 64
        E 0 90 4c 64
        E 0 90 4d 67
        E 0 90 60 67
        E 0 90 61 66
        E 0 90 62 64
        E 0 90 63 64
        E 0 90 64 64
        E 0 90 65 67
        E 0 9f 51 64
        E 0 9f 69 64
        E 120 80 30 00
        E 0 80 31 00
        E 0 80 48 00
        E 0 80 49 00
        E 0 80 4a 00
        E 0 80 4b 00
        E 0 80 4c 00
        E 0 80 4d 00
        E 0 80 60 00
        E 0 80 61 00
        E 0 80 62 00
        E 0 80 63 00
        E 0 80 64 00
        E 0 80 65 00
        E 0 8f 51 00
        E 0 8f 69 00
        E 120 93 48 66
        E 0 93 49 66
        E 0 93 4a 64
        E 0 93 4b 64
        E 0 93 4c 64
        E 0 93 4d 67
        E 0 93 60 66
        E 0 93 61 66
        E 0 93 62 64
        E 0 93 63 64
        E 0 93 64 64
        E 0 93 65 67
        E 120 83 48 00
        E 0 83 49 00
        E 0 83 4a 00
        E 0 83 4b 00
        E 0 83 4c 00
        E 0 83 4d 00
        E 0 83 60 00
        E 0 83 61 00
        E 0 83 62 00
        E 0 83 63 00
        E 0 83 64 00
        E 0 83 65 00
        E 120 90 07 64
        E 0 90 10 64
        E 0 90 18 66
        E 0 90 30 66
        E 0 90 31 66
        E 0 90 48 66
        E 0 90 49 66
        E 0 90 4a 64
        E 0 90 4b 64
        E 0 90 4c 64
        E 0 90 4d 67
        E 0 90 60 66
        E 0 90 61 66
        E 0 90 62 64
        E 0 90 63 64
        E 0 90 64 64
        E 0 90 65 67
        E 0 9f 51 64
        E 0 9f 69 64
        E 120 80 07 00
        E 0 80 10 00
        E 0 80 18 00
        E 0 80 30 00
        E 0 80 31 00
        E 0 80 48 00
        E 0 80 49 00
        E 0 80 4a 00
        E 0 80 4b 00
        E 0 80 4c 00
        E 0 80 4d 00
        E 120 90 30 66
        E 0 90 31 66
        E 0 90 48 66
        E 0 90 49 66
        E 0 90 4a 64
        E 0 90 4b 64
        E 0 90 4c 64
        E 0 90 4d 67
        E 120 80 60 00
        E 0 80 61 00
        E 0 80 62 00
        E 0 80 63 00
        E 0 80 64 00
        E 0 80 65 00
        E 0 80 30 00
        E 0 80 31 00
        E 0 80 48 00
        E 0 80 49 00
        E 0 80 4a 00
        E 0 80 4b 00
        E 0 80 4c 00
        E 0 80 4d 00
        E 0 8f 51 00
        E 0 8f 69 00
        E 120 90 30 66
        E 0 90 31 66
        E 0 90 48 66
        E 0 90 49 66
        E 0 90 4a 64
        E 0 90 4b 64
        E 0 90 4c 64
        E 0 90 4d 67
        E 0 90 60 66
        E 0 90 61 66
        E 0 90 62 64
        E 0 90 63 64
        E 0 90 64 64
        E 0 90 65 67
        E 0 9f 51 64
        E 0 9f 69 64
        E 120 80 30 00
        E 0 80 31 00
        E 0 80 48 00
        E 0 80 49 00
        E 0 80 4a 00
        E 0 80 4b 00
        E 0 80 4c 00
        E 0 80 4d 00
        E 0 80 60 00
        E 0 80 61 00
        E 0 80 62 00
        E 0 80 63 00
        E 0 80 64 00
        E 0 80 65 00
        E 0 8f 51 00
        E 0 8f 69 00
        E 120 93 48 64
        E 0 93 49 66
        E 0 93 4a 66
        E 0 93 4b 64
        E 0 93 4c 64
        E 0 93 4d 64
        E 0 93 60 64
        E 0 93 61 66
        E 0 93 62 66
        E 0 93 63 64
        E 0 93 64 64
        E 0 93 65 64
        E 120 83 48 00
        E 0 83 49 00
        E 0 83 4a 00
        E 0 83 4b 00
        E 0 83 4c 00
        E 0 83 4d 00
        E 0 83 60 00
        E 0 83 61 00
        E 0 83 62 00
        E 0 83 63 00
        E 0 83 64 00
        E 0 83 65 00
        E 120 90 04 64 -1
        E 0 90 19 66
        E 0 90 31 66
        E 0 90 32 66
        E 0 90 48 64
        E 0 90 49 66
        E 0 90 4a 66
        E 0 90 4b 64
        E 0 90 4c 64
        E 0 90 4d 64
        E 0 90 60 64 -1
        E 0 90 61 66 -1
        E 0 90 62 66 -1
        E 0 90 63 64 -1
        E 0 90 64 64 -1
        E 0 90 65 64 -1
        E 0 9f 51 64
        E 0 9f 69 64
        E 120 80 04 00
        E 0 80 19 00
        E 0 80 31 00
        E 0 80 32 00
        E 240 80 48 00
        E 0 80 49 00
        E 0 80 4a 00
        E 0 80 4b 00
        E 0 80 4c 00
        E 0 80 4d 00
        E 0 80 60 00
        E 0 80 61 00
        E 0 80 62 00
        E 0 80 63 00
        E 0 80 64 00
        E 0 80 65 00
        E 0 8f 51 00
        E 0 8f 69 00
        E 120 90 19 66
        E 0 90 31 66
        E 0 90 32 66
        E 0 90 48 64
        E 0 90 49 66
        E 0 90 4a 66
        E 0 90 4b 64
        E 0 90 4c 64
        E 0 90 4d 64
        E 0 90 60 64
        E 0 90 61 66
        E 0 90 62 66
        E 0 90 63 64
        E 0 90 64 64
        E 0 90 65 64
        E 0 9f 51 64
        E 0 9f 69 64
        E 120 80 19 00
        E 0 80 31 00
        E 0 80 32 00
        E 0 80 48 00
        E 0 80 49 00
        E 0 80 4a 00
        E 0 80 4b 00
        E 0 80 4c 00
        E 0 80 4d 00
        E 0 80 60 00
        E 0 80 61 00
        E 0 80 62 00
        E 0 80 63 00
        E 0 80 64 00
        E 0 80 65 00
        E 0 8f 51 00
        E 0 8f 69 00
        E 120 90 31 66
        E 0 90 32 66
        E 0 90 48 64
        E 0 90 49 66
        E 0 90 4a 66
        E 0 90 4b 64
        E 0 90 4c 64
        E 0 90 4d 64
        E 0 90 60 64
        E 0 90 61 66
        E 0 90 62 66
        E 0 90 63 64
        E 0 90 64 64
        E 0 90 65 64
        E 0 9d 51 64
        E 0 9d 69 64
        E 120 80 31 00
        E 0 80 32 00
        E 0 80 48 00
        E 0 80 49 00
        E 0 80 4a 00
        E 0 80 4b 00
        E 0 80 4c 00
        E 0 80 4d 00
        E 0 80 60 00
        E 0 80 61 00
        E 0 80 62 00
        E 0 80 63 00
        E 0 80 64 00
        E 0 80 65 00
        E 0 8d 51 00
        E 0 8d 69 00
        E 120 90 19 66
        E 0 90 31 66
        E 0 90 32 66
        E 0 90 48 64
        E 0 90 49 66
        E 0 90 4a 66
        E 0 90 4b 64
        E 0 90 4c 64
        E 0 90 4d 64
        E 0 90 60 64
        E 0 90 61 66
        E 0 90 62 66
        E 0 90 63 64
        E 0 90 64 64
        E 0 90 65 64
        E 0 9f 51 64
        E 0 9f 69 64
        E 120 80 19 00
        E 0 80 31 00
        E 0 80 32 00
        E 0 80 48 00
        E 0 80 49 00
        E 0 80 4a 00
        E 0 80 4b 00
        E 0 80 4c 00
        E 0 80 4d 00
        E 0 80 60 00
        E 0 80 61 00
        E 0 80 62 00
        E 0 80 63 00
        E 0 80 64 00
        E 0 80 65 00
        E 0 8f 51 00
        E 0 8f 69 00
        E 120 90 31 66
        E 0 90 32 66
        E 0 90 48 64
        E 0 90 49 66
        E 0 90 4a 66
        E 0 90 4b 64
        E 0 90 4c 64
        E 0 90 4d 64
        E 0 90 60 64
        E 0 90 61 66
        E 0 90 62 66
        E 0 90 63 64
        E 0 90 64 64
        E 0 90 65 64
        E 0 9d 51 64
        E 0 9d 69 64
        E 120 80 31 00
        E 0 80 32 00
        E 0 80 48 00
        E 0 80 49 00
        E 0 80 4a 00
        E 0 80 4b 00
        E 0 80 4c 00
        E 0 80 4d 00
        E 0 80 60 00
        E 0 80 61 00
        E 0 80 62 00
        E 0 80 63 00
        E 0 80 64 00
        E 0 80 65 00
        E 0 8d 51 00
        E 0 8d 69 00
        E 120 90 31 66
        E 0 90 32 66
        E 0 90 48 64
        E 0 90 49 66
        E 0 90 4a 66
        E 0 90 4b 64
        E 0 90 4c 64
        E 0 90 4d 64
        E 0 90 60 64
        E 0 90 61 66
        E 0 90 62 66
        E 0 90 63 64
        E 0 90 64 64
        E 0 90 65 64
        E 0 9f 51 64
        E 0 9f 69 64
        E 120 80 31 00
        E 0 80 32 00
        E 0 80 48 00
        E 0 80 49 00
        E 0 80 4a 00
        E 0 80 4b 00
        E 0 80 4c 00
        E 0 80 4d 00
        E 0 80 60 00
        E 0 80 61 00
        E 0 80 62 00
        E 0 80 63 00
        E 0 80 64 00
        E 0 80 65 00
        E 0 8f 51 00
        E 0 8f 69 00
        E 120 90 6c 65
        E 0 93 49 67
        E 0 93 4a 66
        E 0 93 4b 64
        E 0 93 4c 65
        E 0 93 4d 64
        E 0 93 61 67
        E 0 93 62 66
        E 0 93 63 64
        E 0 93 64 65
        E 0 93 65 64
        E 120 80 6c 00
        E 0 83 49 00
        E 0 83 4a 00
        E 0 83 4b 00
        E 0 83 4c 00
        E 0 83 4d 00
        E 0 83 61 00
        E 0 83 62 00
        E 0 83 63 00
        E 0 83 64 00
        E 0 83 65 00
        E 120 90 0c 64
        E 0 90 31 67
        E 0 90 32 66
        E 0 90 49 67
        E 0 90 4a 66
        E 0 90 4b 64
        E 0 90 4c 65
        E 0 90 4d 64
        E 0 90 61 67
        E 0 90 62 66
        E 0 90 63 64
        E 0 90 64 65
        E 0 90 65 64
        E 0 90 74 60
        E 0 9f 51 64
        E 0 9f 69 64
        E 120 80 0c 00
        E 0 80 31 00
        E 0 80 32 00
        E 240 80 49 00
        E 0 80 4a 00
        E 0 80 4b 00
        E 0 80 4c 00
        E 0 80 4d 00
        E 0 80 61 00
        E 0 80 62 00
        E 0 80 63 00
        E 0 80 64 00
        E 0 80 65 00
        E 0 8f 51 00
        E 0 8f 69 00
        E 120 90 31 67
        E 0 90 32 66
        E 0 90 49 67
        E 0 90 4a 66
        E 0 90 4b 64
        E 0 90 4c 65
        E 0 90 4d 64
        E 0 90 61 67
        E 0 90 62 66
        E 0 90 63 64
        E 0 90 64 65
        E 0 90 65 64
        E 0 9f 51 64
        E 0 9f 69 64
        E 120 80 31 00
        E 0 80 32 00
        E 0 80 49 00
        E 0 80 4a 00
        E 0 80 4b 00
        E 0 80 4c 00
        E 0 80 4d 00
        E 0 80 61 00
        E 0 80 62 00
        E 0 80 63 00
        E 0 80 64 00
        E 0 80 65 00
        E 0 8f 51 00
        E 0 8f 69 00
        E 120 93 49 67
        E 0 93 4a 66
        E 0 93 4b 64
        E 0 93 4c 65
        E 0 93 4d 64
        E 0 93 61 67
        E 0 93 62 66
        E 0 93 63 64
        E 0 93 64 65
        E 0 93 65 64
        E 120 83 49 00
        E 0 83 4a 00
        E 0 83 4b 00
        E 0 83 4c 00
        E 0 83 4d 00
        E 0 83 61 00
        E 0 83 62 00
        E 0 83 63 00
        E 0 83 64 00
        E 0 83 65 00
        E 120 90 0c 64
        E 0 90 10 64
        E 0 90 31 66
        E 0 90 32 66
        E 0 90 49 66
        E 0 90 4a 66
        E 0 90 4b 64
        E 0 90 4c 65
        E 0 90 4d 64
        E 0 90 61 66
        E 0 90 62 66
        E 0 90 63 64
        E 0 90 64 65
        E 0 90 65 64
        E 0 9f 51 64
        E 0 9f 69 64
        E 120 80 0c 00
        E 0 80 10 00
        E 0 80 31 00
        E 0 80 32 00
        E 0 80 49 00
        E 0 80 4a 00
        E 0 80 4b 00
        E 0 80 4c 00
        E 0 80 4d 00
        E 0 80 61 00
        E 0 80 62 00
        E 0 80 63 00
        E 0 80 64 00
        E 0 80 65 00
        E 0 8f 51 00
        E 0 8f 69 00
        E 120 90 49 66
        E 0 90 4a 66
        E 0 90 4b 64
        E 0 90 4c 65
        E 0 90 4d 64
        E 0 90 61 66
        E 0 90 62 66
        E 0 90 63 64
        E 0 90 64 65
        E 0 90 65 64
        E 0 9d 51 64
        E 0 9d 69 64
        E 120 80 49 00
        E 0 80 4a 00
        E 0 80 4b 00
        E 0 80 4c 00
        E 0 80 4d 00
        E 0 80 61 00
        E 0 80 62 00
        E 0 80 63 00
        E 0 80 64 00
        E 0 80 65 00
        E 0 8d 51 00
        E 0 8d 69 00
        E 120 90 31 66
        E 0 90 32 66
        E 0 90 49 66
        E 0 90 4a 66
        E 0 90 4b 64
        E 0 90 4c 65
        E 0 90 4d 64
        E 0 90 61 66
        E 0 90 62 66
        E 0 90 63 64
        E 0 90 64 65
        E 0 90 65 64
        E 0 9f 51 64
        E 0 9f 69 64
        E 120 80 31 00
        E 0 80 32 00
        E 0 80 49 00
        E 0 80 4a 00
        E 0 80 4b 00
        E 0 80 4c 00
        E 0 80 4d 00
        E 0 80 61 00
        E 0 80 62 00
        E 0 80 63 00
        E 0 80 64 00
        E 0 80 65 00
        E 0 8f 51 00
        E 0 8f 69 00
        E 120 93 49 66
        E 0 93 4a 66
        E 0 93 4b 64
        E 0 93 4c 65
        E 0 93 4d 64
        E 0 93 61 66
        E 0 93 62 66
        E 0 93 63 64
        E 0 93 64 65
        E 0 93 65 64
        E 120 83 49 00
        E 0 83 4a 00
        E 0 83 4b 00
        E 0 83 4c 00
        E 0 83 4d 00
        E 0 83 61 00
        E 0 83 62 00
        E 0 83 63 00
        E 0 83 64 00
        E 0 83 65 00
        E 120 90 09 64
        E 0 90 1a 66
        E 0 90 32 66
        E 0 90 33 66
        E 0 90 49 64
        E 0 90 4a 66
        E 0 90 4b 66
        E 0 90 4c 65
        E 0 90 4d 64
        E 0 90 61 64
        E 0 90 62 66
        E 0 90 63 66
        E 0 90 64 65
        E 0 90 65 64
        E 0 9f 51 64
        E 0 9f 69 64
        E 120 80 09 00
        E 0 80 1a 00
        E 0 80 32 00
        E 0 80 33 00
        E 240 80 49 00
        E 0 80 4a 00
        E 0 80 4b 00
        E 0 80 4c 00
        E 0 80 4d 00
        E 0 80 61 00
        E 0 80 62 00
        E 0 80 63 00
        E 0 80 64 00
        E 0 80 65 00
        E 0 8f 51 00
        E 0 8f 69 00
        E 120 90 1a 66
        E 0 90 32 66
        E 0 90 33 66
        E 0 90 49 64
        E 0 90 4a 66
        E 0 90 4b 66
        E 0 90 4c 65
        E 0 90 4d 64
        E 0 90 61 64
        E 0 90 62 66
        E 0 90 63 66
        E 0 90 64 65
        E 0 90 65 64
        E 0 9f 51 64
        E 0 9f 69 64
        E 120 80 1a 00
        E 0 80 32 00
        E 0 80 33 00
        E 0 80 49 00
        E 0 80 4a 00
        E 0 80 4b 00
        E 0 80 4c 00
        E 0 80 4d 00
        E 0 80 61 00
        E 0 80 62 00
        E 0 80 63 00
        E 0 80 64 00
        E 0 80 65 00
        E 0 8f 51 00
        E 0 8f 69 00
        E 120 90 49 64
        E 0 90 4a 66
        E 0 90 4b 66
        E 0 90 4c 65
        E 0 90 4d 64
        E 0 90 61 64
        E 0 90 62 66
        E 0 90 63 66
        E 0 90 64 65
        E 0 90 65 64
        E 0 9d 51 64
        E 0 9d 69 64
        E 120 80 49 00
        E 0 80 4a 00
        E 0 80 4b 00
        E 0 80 4c 00
        E 0 80 4d 00
        E 0 80 61 00
        E 0 80 62 00
        E 0 80 63 00
        E 0 80 64 00
        E 0 80 65 00
        E 0 8d 51 00
        E 0 8d 69 00
        E 120 90 1a 66
        E 0 90 32 66
        E 0 90 33 66
        E 0 90 49 64
        E 0 90 4a 66
        E 0 90 4b 66
        E 0 90 4c 65
        E 0 90 4d 64
        E 0 90 61 64
        E 0 90 62 66
        E 0 90 63 66
        E 0 90 64 65
        E 0 90 65 64
        E 0 9f 51 64
        E 0 9f 69 64
        E 120 80 1a 00
        E 0 80 32 00
        E 0 80 33 00
        E 0 80 49 00
        E 0 80 4a 00
        E 0 80 4b 00
        E 0 80 4c 00
        E 0 80 4d 00
        E 0 80 61 00
        E 0 80 62 00
        E 0 80 63 00
        E 0 80 64 00
        E 0 80 65 00
        E 0 8f 51 00
        E 0 8f 69 00
        E 120 90 49 64
        E 0 90 4a 66
        E 0 90 4b 66
        E 0 90 4c 64
        E 0 90 4d 64
        E 0 90 61 64
        E 0 90 62 66
        E 0 90 63 66
        E 0 90 64 64
        E 0 90 65 64
        E 0 9d 51 64
        E 0 9d 69 64
        E 120 80 49 00
        E 0 80 4a 00
        E 0 80 4b 00
        E 0 80 4c 00
        E 0 80 4d 00
        E 0 80 61 00
        E 0 80 62 00
        E 0 80 63 00
        E 0 80 64 00
        E 0 80 65 00
        E 0 8d 51 00
        E 0 8d 69 00
        E 120 90 1a 66
        E 0 90 32 66
        E 0 90 33 66
        E 0 90 49 64
        E 0 90 4a 66
        E 0 90 4b 66
        E 0 90 4c 64
        E 0 90 4d 64
        E 0 90 61 64
        E 0 90 62 66
        E 0 90 63 66
        E 0 90 64 64
        E 0 90 65 64
        E 0 9d 51 64
        E 0 9d 69 64
        E 120 80 1a 00
        E 0 80 32 00
        E 0 80 33 00
        E 0 80 49 00
        E 0 80 4a 00
        E 0 80 4b 00
        E 0 80 4c 00
        E 0 80 4d 00
        E 0 80 61 00
        E 0 80 62 00
        E 0 80 63 00
        E 0 80 64 00
        E 0 80 65 00
        E 0 8d 51 00
        E 0 8d 69 00
        E 120 90 6c 66
        E 0 93 48 67
        E 0 93 49 66
        E 0 93 4a 64
        E 0 93 4b 64
        E 0 93 4c 64
        E 0 93 4d 67
        E 0 93 60 67
        E 0 93 61 66
        E 0 93 62 64
        E 0 93 63 64
        E 0 93 64 64
        E 0 93 65 67
        E 120 80 6c 00
        E 0 83 48 00
        E 0 83 49 00
        E 0 83 4a 00
        E 0 83 4b 00
        E 0 83 4c 00
        E 0 83 4d 00
        E 0 83 60 00
        E 0 83 61 00
        E 0 83 62 00
        E 0 83 63 00
        E 0 83 64 00
        E 0 83 65 00
        E 120 80 74 00
        E 0 90 07 64
        E 0 90 18 67
        E 0 90 30 67
        E 0 90 31 66
        E 0 90 48 67
        E 0 90 49 66
        E 0 90 4a 64
        E 0 90 4b 64
        E 0 90 4c 64
        E 0 90 4d 67
        E 0 90 60 67
        E 0 90 61 66
        E 0 90 62 64
        E 0 90 63 64
        E 0 90 64 64
        E 0 90 65 67
        E 0 9f 51 64
        E 0 9f 69 64
        E 120 80 07 00 -1
        E 0 80 18 00
        E 0 80 30 00
        E 0 80 31 00
        E 240 80 48 00
        E 0 80 49 00
        E 0 80 4a 00
        E 0 80 4b 00
        E 0 80 4c 00
        E 0 80 4d 00
        E 0 80 60 00
        E 0 80 61 00
        E 0 80 62 00
        E 0 80 63 00
        E 0 80 64 00
        E 0 80 65 00
        E 0 8f 51 00
        E 0 8f 69 00
        E 120 90 30 67
        E 0 90 31 66
        E 0 90 48 67
        E 0 90 49 66
        E 0 90 4a 64
        E 0 90 4b 64
        E 0 90 4c 64
        E 0 90 4d 67
        E 0 90 60 67
        E 0 90 61 66
        E 0 90 62 64
        E 0 90 63 64
        E 0 90 64 64
        E 0 90 65 67
        E 0 9f 51 64
        E 0 9f 69 64
        E 120 80 30 00
        E 0 80 31 00
        E 0 80 48 00
        E 0 80 49 00
        E 0 80 4a 00
        E 0 80 4b 00
        E 0 80 4c 00
        E 0 80 4d 00
        E 0 80 60 00
        E 0 80 61 00
        E 0 80 62 00
        E 0 80 63 00
        E 0 80 64 00
        E 0 80 65 00
        E 0 8f 51 00
        E 0 8f 69 00
        E 120 93 48 66
        E 0 93 49 66
        E 0 93 4a 64
        E 0 93 4b 64
        E 0 93 4c 64
        E 0 93 4d 67
        E 0 93 60 66
        E 0 93 61 66
        E 0 93 62 64
        E 0 93 63 64
        E 0 93 64 64
        E 0 93 65 67
        E 120 83 48 00
        E 0 83 49 00
        E 0 83 4a 00
        E 0 83 4b 00
        E 0 83 4c 00
        E 0 83 4d 00
        E 0 83 60 00
        E 0 83 61 00
        E 0 83 62 00
        E 0 83 63 00
        E 0 83 64 00
        E 0 83 65 00
        E 120 90 07 64
        E 0 90 10 64
        E 0 90 18 66
        E 0 90 30 66
        E 0 90 31 66
        E 0 90 48 66
        E 0 90 49 66
        E 0 90 4a 64
        E 0 90 4b 64
        E 0 90 4c 64
        E 0 90 4d 67
        E 0 90 60 66
        E 0 90 61 66
        E 0 90 62 64
        E 0 90 63 64
        E 0 90 64 64
        E 0 90 65 67
        E 0 9f 51 64
        E 0 9f 69 64
        E 120 80 07 00
        E 0 80 10 00
        E 0 80 18 00
        E 0 80 30 00
        E 0 80 31 00
        E 240 80 48 00
        E 0 80 49 00
        E 0 80 4a 00
        E 0 80 4b 00
        E 0 80 4c 00
        E 0 80 4d 00
        E 0 80 60 00
        E 0 80 61 00
        E 0 80 62 00
        E 0 80 63 00
        E 0 80 64 00
        E 0 80 65 00
        E 0 8f 51 00
        E 0 8f 69 00
        E 120 90 30 66
        E 0 90 31 66
        E 0 90 48 66
        E 0 90 49 66
        E 0 90 4a 64
        E 0 90 4b 64
        E 0 90 4c 64
        E 0 90 4d 67
        E 0 90 60 66
        E 0 90 61 66
        E 0 90 62 64
        E 0 90 63 64
        E 0 90 64 64
        E 0 90 65 67
        E 0 9f 51 64
        E 0 9f 69 64
        E 120 80 30 00
        E 0 80 31 00
        E 0 80 48 00
        E 0 80 49 00
        E 0 80 4a 00
        E 0 80 4b 00
        E 0 80 4c 00
        E 0 80 4d 00
        E 0 80 60 00
        E 0 80 61 00
        E 0 80 62 00
        E 0 80 63 00
        E 0 80 64 00
        E 0 80 65 00
        E 0 8f 51 00
        E 0 8f 69 00
        E 120 93 48 64
        E 0 93 49 66
        E 0 93 4a 66
        E 0 93 4b 64
        E 0 93 4c 64
        E 0 93 4d 64
        E 0 93 60 64
        E 0 93 61 66
        E 0 93 62 66
        E 0 93 63 64
        E 0 93 64 64
        E 0 93 65 64
        E 120 83 48 00
        E 0 83 49 00
        E 0 83 4a 00
        E 0 83 4b 00
        E 0 83 4c 00
        E 0 83 4d 00
        E 0 83 60 00
        E 0 83 61 00
        E 0 83 62 00
        E 0 83 63 00
        E 0 83 64 00
        E 0 83 65 00
        E 120 90 04 64 -1
        E 0 90 19 66
        E 0 90 31 66
        E 0 90 32 66
        E 0 90 48 64
        E 0 90 49 66
        E 0 90 4a 66
        E 0 90 4b 64
        E 0 90 4c 64
        E 0 90 4d 64
        E 0 90 60 64 -1
        E 0 90 61 66 -1
        E 0 90 62 66 -1
        E 0 90 63 64 -1
        E 0 90 64 64 -1
        E 0 90 65 64 -1
        E 0 9f 51 64
        E 0 9f 69 64
        E 120 80 04 00
        E 0 80 19 00
        E 0 80 31 00
        E 0 80 32 00
        E 240 80 48 00
        E 0 80 49 00
        E 0 80 4a 00
        E 0 80 4b 00
        E 0 80 4c 00
        E 0 80 4d 00
        E 0 80 60 00
        E 0 80 61 00
        E 0 80 62 00
        E 0 80 63 00
        E 0 80 64 00
        E 0 80 65 00
        E 0 8f 51 00
        E 0 8f 69 00
        E 120 90 19 66
        E 0 90 31 66
        E 0 90 32 66
        E 0 90 48 64
        E 0 90 49 66
        E 0 90 4a 66
        E 0 90 4b 64
        E 0 90 4c 64
        E 0 90 4d 64
        E 0 90 60 64
        E 0 90 61 66
        E 0 90 62 66
        E 0 90 63 64
        E 0 90 64 64
        E 0 90 65 64
        E 0 9f 51 64
        E 0 9f 69 64
        E 120 80 19 00
        E 0 80 31 00
        E 0 80 32 00
        E 0 80 48 00
        E 0 80 49 00
        E 0 80 4a 00
        E 0 80 4b 00
        E 0 80 4c 00
        E 0 80 4d 00
        E 0 80 60 00
        E 0 80 61 00
        E 0 80 62 00
        E 0 80 63 00
        E 0 80 64 00
        E 0 80 65 00
        E 0 8f 51 00
        E 0 8f 69 00
        E 120 90 31 66
        E 0 90 32 66
        E 0 90 48 64
        E 0 90 49 66
        E 0 90 4a 66
        E 0 90 4b 64
        E 0 90 4c 64
        E 0 90 4d 64
        E 0 90 60 64
        E 0 90 61 66
        E 0 90 62 66
        E 0 90 63 64
        E 0 90 64 64
        E 0 90 65 64
        E 0 9d 51 64
        E 0 9d 69 64
        E 120 80 31 00
        E 0 80 32 00
        E 0 80 48 00
        E 0 80 49 00
        E 0 80 4a 00
        E 0 80 4b 00
        E 0 80 4c 00
        E 0 80 4d 00
        E 0 80 60 00
        E 0 80 61 00
        E 0 80 62 00
        E 0 80 63 00
        E 0 80 64 00
        E 0 80 65 00
        E 0 8d 51 00
        E 0 8d 69 00
        E 120 90 19 66
        E 0 90 31 66
        E 0 90 32 66
        E 0 90 48 64
        E 0 90 49 66
        E 0 90 4a 66
        E 0 90 4b 64
        E 0 90 4c 64
        E 0 90 4d 64
        E 0 90 60 64
        E 0 90 61 66
        E 0 90 62 66
        E 0 90 63 64
        E 0 90 64 64
        E 0 90 65 64
        E 0 9f 51 64
        E 0 9f 69 64
        E 120 80 19 00
        E 0 80 31 00
        E 0 80 32 00
        E 0 80 48 00
        E 0 80 49 00
        E 0 80 4a 00
        E 0 80 4b 00
        E 0 80 4c 00
        E 0 80 4d 00
        E 120 90 31 66
        E 0 90 32 66
        E 0 90 48 64
        E 0 90 49 66
        E 0 90 4a 66
        E 0 90 4b 64
        E 0 90 4c 64
        E 0 90 4d 64
        E 120 80 60 00
        E 0 80 61 00
        E 0 80 62 00
        E 0 80 63 00
        E 0 80 64 00
        E 0 80 65 00
        E 0 80 31 00
        E 0 80 32 00
        E 0 80 48 00
        E 0 80 49 00
        E 0 80 4a 00
        E 0 80 4b 00
        E 0 80 4c 00
        E 0 80 4d 00
        E 0 8f 51 00
        E 0 8f 69 00
        E 120 90 31 66
        E 0 90 32 66
        E 0 90 48 64
        E 0 90 49 66
        E 0 90 4a 66
        E 0 90 4b 64
        E 0 90 4c 64
        E 0 90 4d 64
        E 0 90 60 64
        E 0 90 61 66
        E 0 90 62 66
        E 0 90 63 64
        E 0 90 64 64
        E 0 90 65 64
        E 0 9f 51 64
        E 0 9f 69 64
        E 120 80 31 00
        E 0 80 32 00
        E 0 80 48 00
        E 0 80 49 00
        E 0 80 4a 00
        E 0 80 4b 00
        E 0 80 4c 00
        E 0 80 4d 00
        E 0 80 60 00
        E 0 80 61 00
        E 0 80 62 00
        E 0 80 63 00
        E 0 80 64 00
        E 0 80 65 00
        E 0 8f 51 00
        E 0 8f 69 00
        E 120 90 6c 65
        E 0 93 49 67
        E 0 93 4a 66
        E 0 93 4b 64
        E 0 93 4c 65
        E 0 93 4d 64
        E 0 93 61 67
        E 0 93 62 66
        E 0 93 63 64
        E 0 93 64 65
        E 0 93 65 64
        E 120 80 6c 00
        E 0 83 49 00
        E 0 83 4a 00
        E 0 83 4b 00
        E 0 83 4c 00
        E 0 83 4d 00
        E 0 83 61 00
        E 0 83 62 00
        E 0 83 63 00
        E 0 83 64 00
        E 0 83 65 00
        E 120 90 0c 64
        E 0 90 31 67
        E 0 90 32 66
        E 0 90 49 67
        E 0 90 4a 66
        E 0 90 4b 64
        E 0 90 4c 65
        E 0 90 4d 64
        E 0 90 61 67
        E 0 90 62 66
        E 0 90 63 64
        E 0 90 64 65
        E 0 90 65 64
        E 0 9f 51 64
        E 0 9f 69 64
        E 120 80 0c 00
        E 0 80 31 00
        E 0 80 32 00
        E 240 80 49 00
        E 0 80 4a 00
        E 0 80 4b 00
        E 0 80 4c 00
        E 0 80 4d 00
        E 0 80 61 00
        E 0 80 62 00
        E 0 80 63 00
        E 0 80 64 00
        E 0 80 65 00
        E 0 8f 51 00
        E 0 8f 69 00
        E 120 90 31 67
        E 0 90 32 66
        E 0 90 49 67
        E 0 90 4a 66
        E 0 90 4b 64
        E 0 90 4c 65
        E 0 90 4d 64
        E 0 90 61 67
        E 0 90 62 66
        E 0 90 63 64
        E 0 90 64 65
        E 0 90 65 64
        E 0 9f 51 64
        E 0 9f 69 64
        E 120 80 31 00
        E 0 80 32 00
        E 0 80 49 00
        E 0 80 4a 00
        E 0 80 4b 00
        E 0 80 4c 00
        E 0 80 4d 00
        E 0 80 61 00
        E 0 80 62 00
        E 0 80 63 00
        E 0 80 64 00
        E 0 80 65 00
        E 0 8f 51 00
        E 0 8f 69 00
        E 120 93 49 67
        E 0 93 4a 66
        E 0 93 4b 64
        E 0 93 4c 65
        E 0 93 4d 64
        E 0 93 61 67
        E 0 93 62 66
        E 0 93 63 64
        E 0 93 64 65
        E 0 93 65 64
        E 120 83 49 00
        E 0 83 4a 00
        E 0 83 4b 00
        E 0 83 4c 00
        E 0 83 4d 00
        E 0 83 61 00
        E 0 83 62 00
        E 0 83 63 00
        E 0 83 64 00
        E 0 83 65 00
        E 120 90 0c 64
        E 0 90 10 64
        E 0 90 31 66
        E 0 90 32 66
        E 0 90 49 66
        E 0 90 4a 66
        E 0 90 4b 64
        E 0 90 4c 65
        E 0 90 4d 64
        E 0 90 61 66
        E 0 90 62 66
        E 0 90 63 64
        E 0 90 64 65
        E 0 90 65 64
        E 0 9f 51 64
        E 0 9f 69 64
        E 120 80 0c 00
        E 0 80 10 00
        E 0 80 31 00
        E 0 80 32 00
        E 0 80 61 00
        E 0 80 62 00
        E 0 80 63 00
        E 0 80 64 00
        E 0 80 65 00
        E 0 8f 51 00
        E 0 8f 69 00
        E 120 90 61 66
        E 0 90 62 66
        E 0 90 63 64
        E 0 90 64 65
        E 0 90 65 64
        E 0 9d 51 64
        E 0 9d 69 64
        E 120 80 49 00
        E 0 80 4a 00
        E 0 80 4b 00
        E 0 80 4c 00
        E 0 80 4d 00
        E 0 80 61 00
        E 0 80 62 00
        E 0 80 63 00
        E 0 80 64 00
        E 0 80 65 00
        E 0 8d 51 00
        E 0 8d 69 00
        E 120 90 31 66
        E 0 90 32 66
        E 0 90 49 66
        E 0 90 4a 66
        E 0 90 4b 64
        E 0 90 4c 65
        E 0 90 4d 64
        E 0 90 61 66
        E 0 90 62 66
        E 0 90 63 64
        E 0 90 64 65
        E 0 90 65 64
        E 0 9f 51 64
        E 0 9f 69 64
        E 120 80 31 00
        E 0 80 32 00
        E 0 80 49 00
        E 0 80 4a 00
        E 0 80 4b 00
        E 0 80 4c 00
        E 0 80 4d 00
        E 0 80 61 00
        E 0 80 62 00
        E 0 80 63 00
        E 0 80 64 00
        E 0 80 65 00
        E 0 8f 51 00
        E 0 8f 69 00
        E 120 93 49 66
        E 0 93 4a 66
        E 0 93 4b 64
        E 0 93 4c 65
        E 0 93 4d 64
        E 0 93 61 66
        E 0 93 62 66
        E 0 93 63 64
        E 0 93 64 65
        E 0 93 65 64
        E 120 83 49 00
        E 0 83 4a 00
        E 0 83 4b 00
        E 0 83 4c 00
        E 0 83 4d 00
        E 0 83 61 00
        E 0 83 62 00
        E 0 83 63 00
        E 0 83 64 00
        E 0 83 65 00
        E 120 90 09 64
        E 0 90 1a 66
        E 0 90 32 66
        E 0 90 33 66
        E 0 90 49 64
        E 0 90 4a 66
        E 0 90 4b 66
        E 0 90 4c 65
        E 0 90 4d 64
        E 0 90 61 64
        E 0 90 62 66
        E 0 90 63 66
        E 0 90 64 65
        E 0 90 65 64
        E 0 9f 51 64
        E 0 9f 69 64
        E 120 80 09 00
        E 0 80 1a 00
        E 0 80 32 00
        E 0 80 33 00
        E 240 80 49 00
        E 0 80 4a 00
        E 0 80 4b 00
        E 0 80 4c 00
        E 0 80 4d 00
        E 0 80 61 00
        E 0 80 62 00
        E 0 80 63 00
        E 0 80 64 00
        E 0 80 65 00
        E 0 8f 51 00
        E 0 8f 69 00
        E 120 90 1a 66
        E 0 90 32 66
        E 0 90 33 66
        E 0 90 49 64
        E 0 90 4a 66
        E 0 90 4b 66
        E 0 90 4c 65
        E 0 90 4d 64
        E 0 90 61 64
        E 0 90 62 66
        E 0 90 63 66
        E 0 90 64 65
        E 0 90 65 64
        E 0 9f 51 64
        E 0 9f 69 64
        E 120 80 1a 00
        E 0 80 32 00
        E 0 80 33 00
        E 0 80 49 00
        E 0 80 4a 00
        E 0 80 4b 00
        E 0 80 4c 00
        E 0 80 4d 00
        E 0 80 61 00
        E 0 80 62 00
        E 0 80 63 00
        E 0 80 64 00
        E 0 80 65 00
        E 0 8f 51 00
        E 0 8f 69 00
        E 120 90 49 64
        E 0 90 4a 66
        E 0 90 4b 66
        E 0 90 4c 65
        E 0 90 4d 64
        E 0 90 61 64
        E 0 90 62 66
        E 0 90 63 66
        E 0 90 64 65
        E 0 90 65 64
        E 0 9d 51 64
        E 0 9d 69 64
        E 120 80 49 00
        E 0 80 4a 00
        E 0 80 4b 00
        E 0 80 4c 00
        E 0 80 4d 00
        E 0 80 61 00
        E 0 80 62 00
        E 0 80 63 00
        E 0 80 64 00
        E 0 80 65 00
        E 0 8d 51 00
        E 0 8d 69 00
        E 120 90 1a 66
        E 0 90 32 66
        E 0 90 33 66
        E 0 90 49 64
        E 0 90 4a 66
        E 0 90 4b 66
        E 0 90 4c 65
        E 0 90 4d 64
        E 0 90 61 64
        E 0 90 62 66
        E 0 90 63 66
        E 0 90 64 65
        E 0 90 65 64
        E 0 9d 51 64
        E 0 9d 69 64
        E 120 80 1a 00
        E 0 80 32 00
        E 0 80 33 00
        E 0 80 49 00
        E 0 80 4a 00
        E 0 80 4b 00
        E 0 80 4c 00
        E 0 80 4d 00
        E 0 80 61 00
        E 0 80 62 00
        E 0 80 63 00
        E 0 80 64 00
        E 0 80 65 00
        E 0 8d 51 00
        E 0 8d 69 00
        E 120 90 49 64
        E 0 90 4a 66
        E 0 90 4b 66
        E 0 90 4c 64
        E 0 90 4d 64
        E 0 90 61 64
        E 0 90 62 66
        E 0 90 63 66
        E 0 90 64 64
        E 0 90 65 64
        E 0 9d 51 64
        E 0 9d 69 64
        E 120 80 49 00
        E 0 80 4a 00
        E 0 80 4b 00
        E 0 80 4c 00
        E 0 80 4d 00
        E 0 80 61 00
        E 0 80 62 00
        E 0 80 63 00
        E 0 80 64 00
        E 0 80 65 00
        E 0 8d 51 00
        E 0 8d 69 00
        E 120 90 1a 66
        E 0 90 32 66
        E 0 90 33 66
        E 0 90 49 64
        E 0 90 4a 66
        E 0 90 4b 66
        E 0 90 4c 64
        E 0 90 4d 64
        E 0 90 61 64
        E 0 90 62 66
        E 0 90 63 66
        E 0 90 64 64
        E 0 90 65 64
        E 0 9f 51 64
        E 0 9f 69 64
        E 120 80 1a 00
        E 0 80 32 00
        E 0 80 33 00
        E 0 80 49 00
        E 0 80 4a 00
        E 0 80 4b 00
        E 0 80 4c 00
        E 0 80 4d 00
        E 0 80 61 00
        E 0 80 62 00
        E 0 80 63 00
        E 0 80 64 00
        E 0 80 65 00
        E 0 8f 51 00
        E 0 8f 69 00
        E 120 90 6c 66
        E 0 93 48 67
        E 0 93 49 66
        E 0 93 4a 64
        E 0 93 4b 64
        E 0 93 4c 64
        E 0 93 4d 67
        E 0 93 60 67
        E 0 93 61 66
        E 0 93 62 64
        E 0 93 63 64
        E 0 93 64 64
        E 0 93 65 67
        E 120 80 6c 00
        E 0 83 48 00
        E 0 83 49 00
        E 0 83 4a 00
        E 0 83 4b 00
        E 0 83 4c 00
        E 0 83 4d 00
        E 0 83 60 00
        E 0 83 61 00
        E 0 83 62 00
        E 0 83 63 00
        E 0 83 64 00
        E 0 83 65 00
        E 120 90 07 64
        E 0 90 18 67
        E 0 90 30 67
        E 0 90 31 66
        E 0 90 48 67
        E 0 90 49 66
        E 0 90 4a 64
        E 0 90 4b 64
        E 0 90 4c 64
        E 0 90 4d 67
        E 0 90 60 67
        E 0 90 61 66
        E 0 90 62 64
        E 0 90 63 64
        E 0 90 64 64
        E 0 90 65 67
        E 0 9f 51 64
        E 0 9f 69 64
        E 120 80 07 00 -1
        E 0 80 18 00
        E 0 80 30 00
        E 0 80 31 00
        E 240 80 48 00
        E 0 80 49 00
        E 0 80 4a 00
        E 0 80 4b 00
        E 0 80 4c 00
        E 0 80 4d 00
        E 0 80 60 00
        E 0 80 61 00
        E 0 80 62 00
        E 0 80 63 00
        E 0 80 64 00
        E 0 80 65 00
        E 0 8f 51 00
        E 0 8f 69 00
        E 120 90 30 67
        E 0 90 31 66
        E 0 90 48 67
        E 0 90 49 66
        E 0 90 4a 64
        E 0 90 4b 64
        E 0 90 4c 64
        E 0 90 4d 67
        E 0 90 60 67
        E 0 90 61 66
        E 0 90 62 64
        E 0 90 63 64
        E 0 90 64 64
        E 0 90 65 67
        E 0 9f 51 64
        E 0 9f 69 64
        E 120 80 30 00
        E 0 80 31 00
        E 0 80 48 00
        E 0 80 49 00
        E 0 80 4a 00
        E 0 80 4b 00
        E 0 80 4c 00
        E 0 80 4d 00
        E 0 80 60 00
        E 0 80 61 00
        E 0 80 62 00
        E 0 80 63 00
        E 0 80 64 00
        E 0 80 65 00
        E 0 8f 51 00
        E 0 8f 69 00
        E 120 93 48 66
        E 0 93 49 66
        E 0 93 4a 64
        E 0 93 4b 64
        E 0 93 4c 64
        E 0 93 4d 67
        E 0 93 60 66
        E 0 93 61 66
        E 0 93 62 64
        E 0 93 63 64
        E 0 93 64 64
        E 0 93 65 67
        E 120 83 48 00
        E 0 83 49 00
        E 0 83 4a 00
        E 0 83 4b 00
        E 0 83 4c 00
        E 0 83 4d 00
        E 0 83 60 00
        E 0 83 61 00
        E 0 83 62 00
        E 0 83 63 00
        E 0 83 64 00
        E 0 83 65 00
        E 120 90 07 64
        E 0 90 10 64
        E 0 90 18 66
        E 0 90 30 66
        E 0 90 31 66
        E 0 90 48 66
        E 0 90 49 66
        E 0 90 4a 64
        E 0 90 4b 64
        E 0 90 4c 64
        E 0 90 4d 67
        E 0 90 60 66
        E 0 90 61 66
        E 0 90 62 64
        E 0 90 63 64
        E 0 90 64 64
        E 0 90 65 67
        E 0 9f 51 64
        E 0 9f 69 64
        E 120 80 07 00
        E 0 80 10 00
        E 0 80 18 00
        E 0 80 30 00
        E 0 80 31 00
        E 0 80 48 00
        E 0 80 49 00
        E 0 80 4a 00
        E 0 80 4b 00
        E 0 80 4c 00
        E 0 80 4d 00
        E 0 80 60 00
        E 0 80 61 00
        E 0 80 62 00
        E 0 80 63 00
        E 0 80 64 00
        E 0 80 65 00
        E 0 8f 51 00
        E 0 8f 69 00
        E 120 90 30 66
        E 0 90 31 66
        E 0 90 48 66
        E 0 90 49 66
        E 0 90 4a 64
        E 0 90 4b 64
        E 0 90 4c 64
        E 0 90 4d 67
        E 0 90 60 66
        E 0 90 61 66
        E 0 90 62 64
        E 0 90 63 64
        E 0 90 64 64
        E 0 90 65 67
        E 0 9d 51 64
        E 0 9d 69 64
        E 120 80 30 00
        E 0 80 31 00
        E 0 80 48 00
        E 0 80 49 00
        E 0 80 4a 00
        E 0 80 4b 00
        E 0 80 4c 00
        E 0 80 4d 00
        E 0 80 60 00
        E 0 80 61 00
        E 0 80 62 00
        E 0 80 63 00
        E 0 80 64 00
        E 0 80 65 00
        E 0 8d 51 00
        E 0 8d 69 00
        E 120 90 30 66
        E 0 90 31 66
        E 0 90 48 66
        E 0 90 49 66
        E 0 90 4a 64
        E 0 90 4b 64
        E 0 90 4c 64
        E 0 90 4d 67
        E 0 90 60 66
        E 0 90 61 66
        E 0 90 62 64
        E 0 90 63 64
        E 0 90 64 64
        E 0 90 65 67
        E 0 9f 51 64
        E 0 9f 69 64
        E 120 80 30 00
        E 0 80 31 00
        E 0 80 48 00
        E 0 80 49 00
        E 0 80 4a 00
        E 0 80 4b 00
        E 0 80 4c 00
        E 0 80 4d 00
        E 0 80 60 00
        E 0 80 61 00
        E 0 80 62 00
        E 0 80 63 00
        E 0 80 64 00
        E 0 80 65 00
        E 0 8f 51 00
        E 0 8f 69 00
        E 120 93 48 64
        E 0 93 49 66
        E 0 93 4a 66
        E 0 93 4b 64
        E 0 93 4c 64
        E 0 93 4d 64
        E 0 93 60 64
        E 0 93 61 66
        E 0 93 62 66
        E 0 93 63 64
        E 0 93 64 64
        E 0 93 65 64
        E 120 83 48 00
        E 0 83 49 00
        E 0 83 4a 00
        E 0 83 4b 00
        E 0 83 4c 00
        E 0 83 4d 00
        E 0 83 60 00
        E 0 83 61 00
        E 0 83 62 00
        E 0 83 63 00
        E 0 83 64 00
        E 0 83 65 00
        E 120 90 04 64 -1
        E 0 90 19 66
        E 0 90 31 66
        E 0 90 32 66
        E 0 90 48 64
        E 0 90 49 66
        E 0 90 4a 66
        E 0 90 4b 64
        E 0 90 4c 64
        E 0 90 4d 64
        E 0 90 60 64 -1
        E 0 90 61 66 -1
        E 0 90 62 66 -1
        E 0 90 63 64 -1
        E 0 90 64 64 -1
        E 0 90 65 64 -1
        E 0 9f 51 64
        E 0 9f 69 64
        E 120 80 04 00
        E 0 80 19 00
        E 0 80 31 00
        E 0 80 32 00
        E 240 80 48 00
        E 0 80 49 00
        E 0 80 4a 00
        E 0 80 4b 00
        E 0 80 4c 00
        E 0 80 4d 00
        E 0 80 60 00
        E 0 80 61 00
        E 0 80 62 00
        E 0 80 63 00
        E 0 80 64 00
        E 0 80 65 00
        E 0 8f 51 00
        E 0 8f 69 00
        E 120 90 19 66
        E 0 90 31 66
        E 0 90 32 66
        E 0 90 48 64
        E 0 90 49 66
        E 0 90 4a 66
        E 0 90 4b 64
        E 0 90 4c 64
        E 0 90 4d 64
        E 0 90 60 64
        E 0 90 61 66
        E 0 90 62 66
        E 0 90 63 64
        E 0 90 64 64
        E 0 90 65 64
        E 0 9f 51 64
        E 0 9f 69 64
        E 120 80 19 00
        E 0 80 31 00
        E 0 80 32 00
        E 0 80 48 00
        E 0 80 49 00
        E 0 80 4a 00
        E 0 80 4b 00
        E 0 80 4c 00
        E 0 80 4d 00
        E 0 80 60 00
        E 0 80 61 00
        E 0 80 62 00
        E 0 80 63 00
        E 0 80 64 00
        E 0 80 65 00
        E 0 8f 51 00
        E 0 8f 69 00
        E 120 90 31 66
        E 0 90 32 66
        E 0 90 48 64
        E 0 90 49 66
        E 0 90 4a 66
        E 0 90 4b 64
        E 0 90 4c 64
        E 0 90 4d 64
        E 0 90 60 64
        E 0 90 61 66
        E 0 90 62 66
        E 0 90 63 64
        E 0 90 64 64
        E 0 90 65 64
        E 0 9d 51 64
        E 0 9d 69 64
        E 120 80 31 00
        E 0 80 32 00
        E 0 80 48 00
        E 0 80 49 00
        E 0 80 4a 00
        E 0 80 4b 00
        E 0 80 4c 00
        E 0 80 4d 00
        E 0 80 60 00
        E 0 80 61 00
        E 0 80 62 00
        E 0 80 63 00
        E 0 80 64 00
        E 0 80 65 00
        E 0 8d 51 00
        E 0 8d 69 00
        E 120 90 19 66
        E 0 90 31 66
        E 0 90 32 66
        E 0 90 48 64
        E 0 90 49 66
        E 0 90 4a 66
        E 0 90 4b 64
        E 0 90 4c 64
        E 0 90 4d 64
        E 0 90 60 64
        E 0 90 61 66
        E 0 90 62 66
        E 0 90 63 64
        E 0 90 64 64
        E 0 90 65 64
        E 0 9f 51 64
        E 0 9f 69 64
        E 120 80 19 00
        E 0 80 31 00
        E 0 80 32 00
        E 0 80 48 00
        E 0 80 49 00
        E 0 80 4a 00
        E 0 80 4b 00
        E 0 80 4c 00
        E 0 80 4d 00
        E 0 80 60 00
        E 0 80 61 00
        E 0 80 62 00
        E 0 80 63 00
        E 0 80 64 00
        E 0 80 65 00
        E 0 8f 51 00
        E 0 8f 69 00
        E 120 90 31 66
        E 0 90 32 66
        E 0 90 48 64
        E 0 90 49 66
        E 0 90 4a 66
        E 0 90 4b 64
        E 0 90 4c 64
        E 0 90 4d 64
        E 0 90 60 64
        E 0 90 61 66
        E 0 90 62 66
        E 0 90 63 64
        E 0 90 64 64
        E 0 90 65 64
        E 0 9d 51 64
        E 0 9d 69 64
        E 120 80 31 00
        E 0 80 32 00
        E 0 80 48 00
        E 0 80 49 00
        E 0 80 4a 00
        E 0 80 4b 00
        E 0 80 4c 00
        E 0 80 4d 00
        E 0 80 60 00
        E 0 80 61 00
        E 0 80 62 00
        E 0 80 63 00
        E 0 80 64 00
        E 0 80 65 00
        E 0 8d 51 00
        E 0 8d 69 00
        E 120 90 31 66
        E 0 90 32 66
        E 0 90 48 64
        E 0 90 49 66
        E 0 90 4a 66
        E 0 90 4b 64
        E 0 90 4c 64
        E 0 90 4d 64
        E 0 90 60 64
        E 0 90 61 66
        E 0 90 62 66
        E 0 90 63 64
        E 0 90 64 64
        E 0 90 65 64
        E 0 9f 51 64
        E 0 9f 69 64
        E 120 80 31 00
        E 0 80 32 00
        E 0 80 48 00
        E 0 80 49 00
        E 0 80 4a 00
        E 0 80 4b 00
        E 0 80 4c 00
        E 0 80 4d 00
        E 0 80 60 00
        E 0 80 61 00
        E 0 80 62 00
        E 0 80 63 00
        E 0 80 64 00
        E 0 80 65 00
        E 0 8f 51 00
        E 0 8f 69 00
        E 120 90 6c 65
        E 0 93 49 67
        E 0 93 4a 66
        E 0 93 4b 64
        E 0 93 4c 65
        E 0 93 4d 64
        E 0 93 61 67
        E 0 93 62 66
        E 0 93 63 64
        E 0 93 64 65
        E 0 93 65 64
        E 120 80 6c 00
        E 0 83 49 00
        E 0 83 4a 00
        E 0 83 4b 00
        E 0 83 4c 00
        E 0 83 4d 00
        E 0 83 61 00
        E 0 83 62 00
        E 0 83 63 00
        E 0 83 64 00
        E 0 83 65 00
        E 120 90 0c 64
        E 0 90 31 67
        E 0 90 32 66
        E 0 90 49 67
        E 0 90 4a 66
        E 0 90 4b 64
        E 0 90 4c 65
        E 0 90 4d 64
        E 0 90 61 67
        E 0 90 62 66
        E 0 90 63 64
        E 0 90 64 65
        E 0 90 65 64
        E 0 9f 51 64
        E 0 9f 69 64
        E 120 80 0c 00
        E 480 80 31 00
        E 0 80 32 00
        E 240 80 49 00
        E 0 80 4a 00
        E 0 80 4b 00
        E 0 80 4c 00
        E 0 80 4d 00
        E 0 80 61 00
        E 0 80 62 00
        E 0 80 63 00
        E 0 80 64 00
        E 0 80 65 00
        E 0 8f 51 00
        E 0 8f 69 00
        E 120 90 31 67
        E 0 90 32 66
        E 0 90 49 67
        E 0 90 4a 66
        E 0 90 4b 64
        E 0 90 4c 65
        E 0 90 4d 64
        E 0 90 61 67
        E 0 90 62 66
        E 0 90 63 64
        E 0 90 64 65
        E 0 90 65 64
        E 0 9f 51 64
        E 0 9f 69 64
        E 120 80 31 00
        E 0 80 32 00
        E 240 80 49 00
        E 0 80 4a 00
        E 0 80 4b 00
        E 0 80 4c 00
        E 0 80 4d 00
        E 0 80 61 00
        E 0 80 62 00
        E 0 80 63 00
        E 0 80 64 00
        E 0 80 65 00
        E 0 8f 51 00
        E 0 8f 69 00
        E 120 90 31 67
        E 0 90 32 66
        E 0 90 49 67
        E 0 90 4a 66
        E 0 90 4b 64
        E 0 90 4c 65
        E 0 90 4d 64
        E 0 90 61 67
        E 0 90 62 66
        E 0 90 63 64
        E 0 90 64 65
        E 0 90 65 64
        E 0 9f 51 64
        E 0 9f 69 64
        E 120 80 31 00
        E 0 80 32 00
        E 0 80 49 00
        E 0 80 4a 00
        E 0 80 4b 00
        E 0 80 4c 00
        E 0 80 4d 00
        E 0 80 61 00
        E 0 80 62 00
        E 0 80 63 00
        E 0 80 64 00
        E 0 80 65 00
        E 0 8f 51 00
        E 0 8f 69 00
        E 120 90 6c 66
        E 0 93 4a 64
        E 0 93 4b 66
        E 0 93 4c 67
        E 0 93 4d 66
        E 0 93 62 64
        E 0 93 63 66
        E 0 93 64 67
        E 0 93 65 66
        E 120 80 6c 00
        E 0 83 4a 00
        E 0 83 4b 00
        E 0 83 4c 00
        E 0 83 4d 00
        E 0 83 62 00
        E 0 83 63 00
        E 0 83 64 00
        E 0 83 65 00
        E 120 90 33 66
        E 0 90 34 67
        E 0 90 4a 64
        E 0 90 4b 66
        E 0 90 4c 67
        E 0 90 4d 66
        E 0 90 62 64
        E 0 90 63 66
        E 0 90 64 67
        E 0 90 65 66
        E 0 9e 0e 64
        E 0 9f 51 64
        E 0 9f 69 64
        E 120 80 33 00
        E 0 80 34 00
        E 0 8e 0e 00
        E 240 80 4a 00
        E 0 80 4b 00
        E 0 80 4c 00
        E 0 80 4d 00
        E 0 80 62 00
        E 0 80 63 00
        E 0 80 64 00
        E 0 80 65 00
        E 0 8f 51 00
        E 0 8f 69 00
        E 120 90 33 66
        E 0 90 34 67
        E 0 90 4a 64
        E 0 90 4b 66
        E 0 90 4c 67
        E 0 90 4d 66
        E 0 90 62 64
        E 0 90 63 66
        E 0 90 64 67
        E 0 90 65 66
        E 0 9f 51 64
        E 0 9f 69 64
        E 120 80 33 00
        E 0 80 34 00
        E 240 80 4a 00
        E 0 80 4b 00
        E 0 80 4c 00
        E 0 80 4d 00
        E 0 80 62 00
        E 0 80 63 00
        E 0 80 64 00
        E 0 80 65 00
        E 0 8f 51 00
        E 0 8f 69 00
        E 120 90 33 66
        E 0 90 34 67
        E 0 90 4a 64
        E 0 90 4b 66
        E 0 90 4c 67
        E 0 90 4d 66
        E 0 90 62 64
        E 0 90 63 66
        E 0 90 64 67
        E 0 90 65 66
        E 0 9f 51 64
        E 0 9f 69 64
        E 120 80 33 00
        E 0 80 34 00
        E 0 80 62 00
        E 0 80 63 00
        E 0 80 64 00
        E 0 80 65 00
        E 0 8f 51 00
        E 0 8f 69 00
        E 120 90 62 64
        E 0 90 63 66
        E 0 90 64 67
        E 0 90 65 66
        E 0 9d 51 64
        E 0 9d 69 64
        E 120 80 4a 00
        E 0 80 4b 00
        E 0 80 4c 00
        E 0 80 4d 00
        E 0 80 62 00
        E 0 80 63 00
        E 0 80 64 00
        E 0 80 65 00
        E 0 8d 51 00
        E 0 8d 69 00
        E 120 93 60 67
        E 0 93 61 66
        E 0 93 62 64
        E 0 93 63 64
        E 0 93 64 64
        E 0 93 65 67
        E 0 93 30 67
        E 0 93 31 66
        E 0 93 48 67
        E 0 93 49 66
        E 0 93 4a 64
        E 0 93 4b 64
        E 0 93 4c 64
        E 0 93 4d 67
        E 120 83 60 00
        E 0 83 61 00
        E 0 83 62 00
        E 0 83 63 00
        E 0 83 64 00
        E 0 83 65 00
        E 0 83 30 00
        E 0 83 31 00
        E 0 83 48 00
        E 0 83 49 00
        E 0 83 4a 00
        E 0 83 4b 00
        E 0 83 4c 00
        E 0 83 4d 00
        E 120 93 60 67
        E 0 93 61 66
        E 0 93 62 64
        E 0 93 63 64
        E 0 93 64 64
        E 0 93 65 67
        E 0 93 48 67
        E 0 93 49 66
        E 0 93 4a 64
        E 0 93 4b 64
        E 0 93 4c 64
        E 0 93 4d 67
        E 120 83 60 00
        E 0 83 61 00
        E 0 83 62 00
        E 0 83 63 00
        E 0 83 64 00
        E 0 83 65 00
        E 0 83 48 00
        E 0 83 49 00
        E 0 83 4a 00
        E 0 83 4b 00
        E 0 83 4c 00
        E 0 83 4d 00
        E 120 90 07 64
        E 0 90 18 67
        E 0 90 30 67
        E 0 90 31 66
        E 0 90 48 67
        E 0 90 49 66
        E 0 90 4a 64
        E 0 90 4b 64
        E 0 90 4c 64
        E 0 90 4d 67
        E 0 90 60 67
        E 0 90 61 66
        E 0 90 62 64
        E 0 90 63 64
        E 0 90 64 64
        E 0 90 65 67
        E 0 9f 51 64
        E 0 9f 69 64
        E 120 80 07 00
        E 0 80 18 00
        E 0 80 30 00
        E 0 80 31 00
        E 240 80 48 00
        E 0 80 49 00
        E 0 80 4a 00
        E 0 80 4b 00
        E 0 80 4c 00
        E 0 80 4d 00
        E 0 80 60 00
        E 0 80 61 00
        E 0 80 62 00
        E 0 80 63 00
        E 0 80 64 00
        E 0 80 65 00
        E 0 8f 51 00
        E 0 8f 69 00
        E 120 90 18 67
        E 0 90 30 67
        E 0 90 31 66
        E 0 90 48 67
        E 0 90 49 66
        E 0 90 4a 64
        E 0 90 4b 64
        E 0 90 4c 64
        E 0 90 4d 67
        E 0 90 60 67
        E 0 90 61 66
        E 0 90 62 64
        E 0 90 63 64
        E 0 90 64 64
        E 0 90 65 67
        E 0 9f 51 64
        E 0 9f 69 64
        E 120 80 18 00
        E 0 80 30 00
        E 0 80 31 00
        E 240 80 48 00
        E 0 80 49 00
        E 0 80 4a 00
        E 0 80 4b 00
        E 0 80 4c 00
        E 0 80 4d 00
        E 0 80 60 00
        E 0 80 61 00
        E 0 80 62 00
        E 0 80 63 00
        E 0 80 64 00
        E 0 80 65 00
        E 0 8f 51 00
        E 0 8f 69 00
        E 120 90 18 67
        E 0 90 30 67
        E 0 90 31 66
        E 0 90 48 67
        E 0 90 49 66
        E 0 90 4a 64
        E 0 90 4b 64
        E 0 90 4c 64
        E 0 90 4d 67
        E 0 90 60 67
        E 0 90 61 66
        E 0 90 62 64
        E 0 90 63 64
        E 0 90 64 64
        E 0 90 65 67
        E 0 9f 51 64
        E 0 9f 69 64
        E 120 80 18 00
        E 0 80 30 00
        E 0 80 31 00
        E 240 80 48 00
        E 0 80 49 00
        E 0 80 4a 00
        E 0 80 4b 00
        E 0 80 4c 00
        E 0 80 4d 00
        E 0 80 60 00
        E 0 80 61 00
        E 0 80 62 00
        E 0 80 63 00
        E 0 80 64 00
        E 0 80 65 00
        E 0 8f 51 00
        E 0 8f 69 00
        E 120 90 18 67
        E 0 90 30 67
        E 0 90 31 66
        E 0 90 48 67
        E 0 90 49 66
        E 0 90 4a 64
        E 0 90 4b 64
        E 0 90 4c 64
        E 0 90 4d 67
        E 0 90 60 67
        E 0 90 61 66
        E 0 90 62 64
        E 0 90 63 64
        E 0 90 64 64
        E 0 90 65 67
        E 0 9f 51 64
        E 0 9f 69 64
        E 120 80 18 00
        E 0 80 30 00
        E 0 80 31 00
        E 0 80 48 00
        E 0 80 49 00
        E 0 80 4a 00
        E 0 80 4b 00
        E 0 80 4c 00
        E 0 80 4d 00
        E 0 80 60 00
        E 0 80 61 00
        E 0 80 62 00
        E 0 80 63 00
        E 0 80 64 00
        E 0 80 65 00
        E 0 8f 51 00
        E 0 8f 69 00
        E 120 90 6c 65
        E 0 93 49 67
        E 0 93 4a 66
        E 0 93 4b 64
        E 0 93 4c 65
        E 0 93 4d 64
        E 0 93 61 67
        E 0 93 62 66
        E 0 93 63 64
        E 0 93 64 65
        E 0 93 65 64
        E 120 80 6c 00
        E 0 83 49 00
        E 0 83 4a 00
        E 0 83 4b 00
        E 0 83 4c 00
        E 0 83 4d 00
        E 0 83 61 00
        E 0 83 62 00
        E 0 83 63 00
        E 0 83 64 00
        E 0 83 65 00
        E 120 90 0c 64
        E 0 90 19 67
        E 0 90 31 67
        E 0 90 32 66
        E 0 90 49 67
        E 0 90 4a 66
        E 0 90 4b 64
        E 0 90 4c 65
        E 0 90 4d 64
        E 0 90 61 67
        E 0 90 62 66
        E 0 90 63 64
        E 0 90 64 65
        E 0 90 65 64
        E 0 9f 51 64
        E 0 9f 69 64
        E 120 80 0c 00
        E 0 80 19 00
        E 0 80 31 00
        E 0 80 32 00
        E 0 80 49 00
        E 0 80 4a 00
        E 0 80 4b 00
        E 0 80 4c 00
        E 0 80 4d 00
        E 0 80 61 00
        E 0 80 62 00
        E 0 80 63 00
        E 0 80 64 00
        E 0 80 65 00
        E 0 8f 51 00
        E 0 8f 69 00
        E 120 90 49 67
        E 0 90 4a 66
        E 0 90 4b 64
        E 0 90 4c 65
        E 0 90 4d 64
        E 0 90 61 67
        E 0 90 62 66
        E 0 90 63 64
        E 0 90 64 65
        E 0 90 65 64
        E 0 9d 51 64
        E 0 9d 69 64
        E 120 80 49 00
        E 0 80 4a 00
        E 0 80 4b 00
        E 0 80 4c 00
        E 0 80 4d 00
        E 0 80 61 00
        E 0 80 62 00
        E 0 80 63 00
        E 0 80 64 00
        E 0 80 65 00
        E 0 8d 51 00
        E 0 8d 69 00
        E 120 90 19 67
        E 0 90 31 67
        E 0 90 32 66
        E 0 90 49 67
        E 0 90 4a 66
        E 0 90 4b 64
        E 0 90 4c 65
        E 0 90 4d 64
        E 0 90 61 67
        E 0 90 62 66
        E 0 90 63 64
        E 0 90 64 65
        E 0 90 65 64
        E 0 9f 51 64
        E 0 9f 69 64
        E 120 80 19 00
        E 0 80 31 00
        E 0 80 32 00
        E 240 80 49 00
        E 0 80 4a 00
        E 0 80 4b 00
        E 0 80 4c 00
        E 0 80 4d 00
        E 0 80 61 00
        E 0 80 62 00
        E 0 80 63 00
        E 0 80 64 00
        E 0 80 65 00
        E 0 8f 51 00
        E 0 8f 69 00
        E 120 90 19 67
        E 0 90 31 67
        E 0 90 32 66
        E 0 90 49 67
        E 0 90 4a 66
        E 0 90 4b 64
        E 0 90 4c 65
        E 0 90 4d 64
        E 0 90 61 67
        E 0 90 62 66
        E 0 90 63 64
        E 0 90 64 65
        E 0 90 65 64
        E 0 9f 51 64
        E 0 9f 69 64
        E 120 80 19 00
        E 0 80 31 00
        E 0 80 32 00
        E 0 80 49 00
        E 0 80 4a 00
        E 0 80 4b 00
        E 0 80 4c 00
        E 0 80 4d 00
        E 0 80 61 00
        E 0 80 62 00
        E 0 80 63 00
        E 0 80 64 00
        E 0 80 65 00
        E 0 8f 51 00
        E 0 8f 69 00
        E 120 90 49 67
        E 0 90 4a 66
        E 0 90 4b 64
        E 0 90 4c 65
        E 0 90 4d 64
        E 0 90 61 67
        E 0 90 62 66
        E 0 90 63 64
        E 0 90 64 65
        E 0 90 65 64
        E 0 9d 51 64
        E 0 9d 69 64
        E 120 80 49 00
        E 0 80 4a 00
        E 0 80 4b 00
        E 0 80 4c 00
        E 0 80 4d 00
        E 0 80 61 00
        E 0 80 62 00
        E 0 80 63 00
        E 0 80 64 00
        E 0 80 65 00
        E 0 8d 51 00
        E 0 8d 69 00
        E 120 90 19 67
        E 0 90 31 67
        E 0 90 32 66
        E 0 90 49 67
        E 0 90 4a 66
        E 0 90 4b 64
        E 0 90 4c 65
        E 0 90 4d 64
        E 0 90 61 67
        E 0 90 62 66
        E 0 90 63 64
        E 0 90 64 65
        E 0 90 65 64
        E 0 9f 51 64
        E 0 9f 69 64
        E 120 80 19 00
        E 0 80 31 00
        E 0 80 32 00
        E 0 80 49 00
        E 0 80 4a 00
        E 0 80 4b 00
        E 0 80 4c 00
        E 0 80 4d 00
        E 0 80 61 00
        E 0 80 62 00
        E 0 80 63 00
        E 0 80 64 00
        E 0 80 65 00
        E 0 8f 51 00
        E 0 8f 69 00
        E 120 90 6c 66
        E 0 93 48 67
        E 0 93 49 66
        E 0 93 4a 64
        E 0 93 4b 64
        E 0 93 4c 64
        E 0 93 4d 67
        E 0 93 60 67
        E 0 93 61 66
        E 0 93 62 64
        E 0 93 63 64
        E 0 93 64 64
        E 0 93 65 67
        E 120 80 6c 00
        E 0 83 48 00
        E 0 83 49 00
        E 0 83 4a 00
        E 0 83 4b 00
        E 0 83 4c 00
        E 0 83 4d 00
        E 0 83 60 00
        E 0 83 61 00
        E 0 83 62 00
        E 0 83 63 00
        E 0 83 64 00
        E 0 83 65 00
        E 120 90 07 64
        E 0 90 18 67
        E 0 90 30 67
        E 0 90 31 66
        E 0 90 48 67
        E 0 90 49 66
        E 0 90 4a 64
        E 0 90 4b 64
        E 0 90 4c 64
        E 0 90 4d 67
        E 0 90 60 67
        E 0 90 61 66
        E 0 90 62 64
        E 0 90 63 64
        E 0 90 64 64
        E 0 90 65 67
        E 0 9f 51 64
        E 0 9f 69 64
        E 120 80 07 00
        E 0 80 18 00
        E 0 80 30 00
        E 0 80 31 00
        E 240 80 48 00
        E 0 80 49 00
        E 0 80 4a 00
        E 0 80 4b 00
        E 0 80 4c 00
        E 0 80 4d 00
        E 0 80 60 00
        E 0 80 61 00
        E 0 80 62 00
        E 0 80 63 00
        E 0 80 64 00
        E 0 80 65 00
        E 0 8f 51 00
        E 0 8f 69 00
        E 120 90 30 67
        E 0 90 31 66
        E 0 90 48 67
        E 0 90 49 66
        E 0 90 4a 64
        E 0 90 4b 64
        E 0 90 4c 64
        E 0 90 4d 67
        E 0 90 60 67
        E 0 90 61 66
        E 0 90 62 64
        E 0 90 63 64
        E 0 90 64 64
        E 0 90 65 67
        E 0 9f 51 64
        E 0 9f 69 64
        E 120 80 30 00
        E 0 80 31 00
        E 240 80 48 00
        E 0 80 49 00
        E 0 80 4a 00
        E 0 80 4b 00
        E 0 80 4c 00
        E 0 80 4d 00
        E 0 80 60 00
        E 0 80 61 00
        E 0 80 62 00
        E 0 80 63 00
        E 0 80 64 00
        E 0 80 65 00
        E 0 8f 51 00
        E 0 8f 69 00
        E 120 90 18 67
        E 0 90 30 67
        E 0 90 31 66
        E 0 90 48 67
        E 0 90 49 66
        E 0 90 4a 64
        E 0 90 4b 64
        E 0 90 4c 64
        E 0 90 4d 67
        E 0 90 60 67
        E 0 90 61 66
        E 0 90 62 64
        E 0 90 63 64
        E 0 90 64 64
        E 0 90 65 67
        E 0 9f 51 64
        E 0 9f 69 64
        E 120 80 18 00
        E 0 80 30 00
        E 0 80 31 00
        E 240 80 48 00
        E 0 80 49 00
        E 0 80 4a 00
        E 0 80 4b 00
        E 0 80 4c 00
        E 0 80 4d 00
        E 0 80 60 00
        E 0 80 61 00
        E 0 80 62 00
        E 0 80 63 00
        E 0 80 64 00
        E 0 80 65 00
        E 0 8f 51 00
        E 0 8f 69 00
        E 120 90 30 67
        E 0 90 31 66
        E 0 90 48 67
        E 0 90 49 66
        E 0 90 4a 64
        E 0 90 4b 64
        E 0 90 4c 64
        E 0 90 4d 67
        E 0 90 60 67
        E 0 90 61 66
        E 0 90 62 64
        E 0 90 63 64
        E 0 90 64 64
        E 0 90 65 67
        E 0 9f 51 64
        E 0 9f 69 64
        E 120 80 30 00
        E 0 80 31 00
        E 0 80 48 00
        E 0 80 49 00
        E 0 80 4a 00
        E 0 80 4b 00
        E 0 80 4c 00
        E 0 80 4d 00
        E 0 80 60 00
        E 0 80 61 00
        E 0 80 62 00
        E 0 80 63 00
        E 0 80 64 00
        E 0 80 65 00
        E 0 8f 51 00
        E 0 8f 69 00
        E 120 90 74 60
        E 0 93 48 67
        E 0 93 49 66
        E 0 93 4a 64
        E 0 93 4b 64
        E 0 93 4c 64
        E 0 93 4d 67
        E 0 93 60 67
        E 0 93 61 66
        E 0 93 62 64
        E 0 93 63 64
        E 0 93 64 64
        E 0 93 65 67
        E 120 83 48 00
        E 0 83 49 00
        E 0 83 4a 00
        E 0 83 4b 00
        E 0 83 4c 00
        E 0 83 4d 00
        E 0 83 60 00
        E 0 83 61 00
        E 0 83 62 00
        E 0 83 63 00
        E 0 83 64 00
        E 0 83 65 00
        E 120 90 18 67
        E 0 90 30 67
        E 0 90 31 66
        E 0 90 48 67
        E 0 90 49 66
        E 0 90 4a 64
        E 0 90 4b 64
        E 0 90 4c 64
        E 0 90 4d 65
        E 0 90 60 67
        E 0 90 61 66
        E 0 90 62 64
        E 0 90 63 64
        E 0 90 64 64
        E 0 90 65 65
        E 0 90 6c 65
        E 0 9f 51 64
        E 0 9f 69 64
        E 120 80 18 00
        E 0 80 30 00
        E 0 80 31 00
        E 0 80 48 00
        E 0 80 49 00
        E 0 80 4a 00
        E 0 80 4b 00
        E 0 80 4c 00
        E 0 80 4d 00
        E 0 80 60 00
        E 0 80 61 00
        E 0 80 62 00
        E 0 80 63 00
        E 0 80 64 00
        E 0 80 65 00
        E 0 80 6c 00
        E 0 8f 51 00
        E 0 8f 69 00
        E 120 90 48 67
        E 0 90 49 66
        E 0 90 4a 64
        E 0 90 4b 64
        E 0 90 4c 64
        E 0 90 4d 65
        E 0 90 60 67
        E 0 90 61 66
        E 0 90 62 64
        E 0 90 63 64
        E 0 90 64 64
        E 0 90 65 65
        E 0 9d 51 64
        E 0 9d 69 64
        E 120 80 48 00
        E 0 80 49 00
        E 0 80 4a 00
        E 0 80 4b 00
        E 0 80 4c 00
        E 0 80 4d 00
        E 0 80 60 00
        E 0 80 61 00
        E 0 80 62 00
        E 0 80 63 00
        E 0 80 64 00
        E 0 80 65 00
        E 0 8d 51 00
        E 0 8d 69 00
        E 120 90 18 67
        E 0 90 30 67
        E 0 90 31 66
        E 0 90 48 67
        E 0 90 49 66
        E 0 90 4a 64
        E 0 90 4b 64
        E 0 90 4c 64
        E 0 90 4d 65
        E 0 90 60 67
        E 0 90 61 66
        E 0 90 62 64
        E 0 90 63 64
        E 0 90 64 64
        E 0 90 65 65
        E 0 9f 51 64
        E 0 9f 69 64
        E 120 80 18 00
        E 0 80 30 00
        E 0 80 31 00
        E 0 80 48 00
        E 0 80 49 00
        E 0 80 4a 00
        E 0 80 4b 00
        E 0 80 4c 00
        E 0 80 4d 00
        E 0 80 60 00
        E 0 80 61 00
        E 0 80 62 00
        E 0 80 63 00
        E 0 80 64 00
        E 0 80 65 00
        E 0 8f 51 00
        E 0 8f 69 00
        E 120 90 48 67
        E 0 90 49 66
        E 0 90 4a 64
        E 0 90 4b 64
        E 0 90 4c 64
        E 0 90 4d 65
        E 0 90 60 67
        E 0 90 61 66
        E 0 90 62 64
        E 0 90 63 64
        E 0 90 64 64
        E 0 90 65 65
        E 0 9d 51 64
        E 0 9d 69 64
        E 120 80 48 00
        E 0 80 49 00
        E 0 80 4a 00
        E 0 80 4b 00
        E 0 80 4c 00
        E 0 80 4d 00
        E 0 80 60 00
        E 0 80 61 00
        E 0 80 62 00
        E 0 80 63 00
        E 0 80 64 00
        E 0 80 65 00
        E 0 8d 51 00
        E 0 8d 69 00
        E 120 90 18 67
        E 0 90 30 67
        E 0 90 31 66
        E 0 90 48 67
        E 0 90 49 66
        E 0 90 4a 64
        E 0 90 4b 64
        E 0 90 4c 64
        E 0 90 4d 65
        E 0 90 60 67
        E 0 90 61 66
        E 0 90 62 64
        E 0 90 63 64
        E 0 90 64 64
        E 0 90 65 65
        E 0 9f 51 64
        E 0 9f 69 64
        E 120 80 18 00
        E 0 80 30 00
        E 0 80 31 00
        E 0 80 48 00
        E 0 80 49 00
        E 0 80 4a 00
        E 0 80 4b 00
        E 0 80 4c 00
        E 0 80 4d 00
        E 0 80 60 00
        E 0 80 61 00
        E 0 80 62 00
        E 0 80 63 00
        E 0 80 64 00
        E 0 80 65 00
        E 0 8f 51 00
        E 0 8f 69 00
        E 120 90 48 67
        E 0 90 49 66
        E 0 90 4a 64
        E 0 90 4b 64
        E 0 90 4c 64
        E 0 90 4d 65
        E 0 90 60 67
        E 0 90 61 66
        E 0 90 62 64
        E 0 90 63 64
        E 0 90 64 64
        E 0 90 65 65
        E 0 9d 51 64
        E 0 9d 69 64
        E 120 80 48 00
        E 0 80 49 00
        E 0 80 4a 00
        E 0 80 4b 00
        E 0 80 4c 00
        E 0 80 4d 00
        E 0 80 60 00
        E 0 80 61 00
        E 0 80 62 00
        E 0 80 63 00
        E 0 80 64 00
        E 0 80 65 00
        E 0 8d 51 00
        E 0 8d 69 00
        E 120 90 30 67
        E 0 90 31 66
        E 0 90 48 67
        E 0 90 49 66
        E 0 90 4a 64
        E 0 90 4b 64
        E 0 90 4c 64
        E 0 90 4d 65
        E 0 90 60 67
        E 0 90 61 66
        E 0 90 62 64
        E 0 90 63 64
        E 0 90 64 64
        E 0 90 65 65
        E 0 9f 51 64
        E 0 9f 69 64
        E 120 80 30 00
        E 0 80 31 00
        E 0 80 48 00
        E 0 80 49 00
        E 0 80 4a 00
        E 0 80 4b 00
        E 0 80 4c 00
        E 0 80 4d 00
        E 0 80 60 00
        E 0 80 61 00
        E 0 80 62 00
        E 0 80 63 00
        E 0 80 64 00
        E 0 80 65 00
        E 0 8f 51 00
        E 0 8f 69 00
        E 120 93 49 67
        E 0 93 4a 66
        E 0 93 4b 64
        E 0 93 4c 65
        E 0 93 4d 64
        E 0 93 61 67
        E 0 93 62 66
        E 0 93 63 64
        E 0 93 64 65
        E 0 93 65 64
        E 120 83 49 00
        E 0 83 4a 00
        E 0 83 4b 00
        E 0 83 4c 00
        E 0 83 4d 00
        E 0 83 61 00
        E 0 83 62 00
        E 0 83 63 00
        E 0 83 64 00
        E 0 83 65 00
        E 120 80 74 00
        E 0 90 0c 64
        E 0 90 31 67
        E 0 90 32 66
        E 0 90 49 67
        E 0 90 4a 66
        E 0 90 4b 64
        E 0 90 4c 65
        E 0 90 4d 64
        E 0 90 61 67
        E 0 90 62 66
        E 0 90 63 64
        E 0 90 64 65
        E 0 90 65 64
        E 0 9f 51 64
        E 0 9f 69 64
        E 120 80 0c 00
        E 0 80 31 00
        E 0 80 32 00
        E 240 80 49 00
        E 0 80 4a 00
        E 0 80 4b 00
        E 0 80 4c 00
        E 0 80 4d 00
        E 0 80 61 00
        E 0 80 62 00
        E 0 80 63 00
        E 0 80 64 00
        E 0 80 65 00
        E 0 8f 51 00
        E 0 8f 69 00
        E 120 90 31 67
        E 0 90 32 66
        E 0 90 49 67
        E 0 90 4a 66
        E 0 90 4b 64
        E 0 90 4c 65
        E 0 90 4d 64
        E 0 90 61 67
        E 0 90 62 66
        E 0 90 63 64
        E 0 90 64 65
        E 0 90 65 64
        E 0 9f 51 64
        E 0 9f 69 64
        E 120 80 31 00
        E 0 80 32 00
        E 240 80 49 00
        E 0 80 4a 00
        E 0 80 4b 00
        E 0 80 4c 00
        E 0 80 4d 00
        E 0 80 61 00
        E 0 80 62 00
        E 0 80 63 00
        E 0 80 64 00
        E 0 80 65 00
        E 0 8f 51 00
        E 0 8f 69 00
        E 120 90 19 67
        E 0 90 31 67
        E 0 90 32 66
        E 0 90 49 67
        E 0 90 4a 66
        E 0 90 4b 64
        E 0 90 4c 65
        E 0 90 4d 64
        E 0 90 61 67
        E 0 90 62 66
        E 0 90 63 64
        E 0 90 64 65
        E 0 90 65 64
        E 0 9f 51 64
        E 0 9f 69 64
        E 120 80 19 00
        E 0 80 31 00
        E 0 80 32 00
        E 240 80 49 00
        E 0 80 4a 00
        E 0 80 4b 00
        E 0 80 4c 00
        E 0 80 4d 00
        E 0 80 61 00
        E 0 80 62 00
        E 0 80 63 00
        E 0 80 64 00
        E 0 80 65 00
        E 0 8f 51 00
        E 0 8f 69 00
        E 120 90 19 67
        E 0 90 31 67
        E 0 90 32 66
        E 0 90 49 67
        E 0 90 4a 66
        E 0 90 4b 64
        E 0 90 4c 65
        E 0 90 4d 64
        E 0 90 61 67
        E 0 90 62 66
        E 0 90 63 64
        E 0 90 64 65
        E 0 90 65 64
        E 0 9f 51 64
        E 0 9f 69 64
        E 120 80 19 00
        E 0 80 31 00
        E 0 80 32 00
        E 0 80 49 00
        E 0 80 4a 00
        E 0 80 4b 00
        E 0 80 4c 00
        E 0 80 4d 00
        E 0 80 61 00
        E 0 80 62 00
        E 0 80 63 00
        E 0 80 64 00
        E 0 80 65 00
        E 0 8f 51 00
        E 0 8f 69 00
        E 120 90 49 67
        E 0 90 4a 66
        E 0 90 4b 64
        E 0 90 4c 65
        E 0 90 4d 64
        E 0 90 61 67
        E 0 90 62 66
        E 0 90 63 64
        E 0 90 64 65
        E 0 90 65 64
        E 0 9d 51 64
        E 0 9d 69 64
        E 120 80 49 00
        E 0 80 4a 00
        E 0 80 4b 00
        E 0 80 4c 00
        E 0 80 4d 00
        E 0 80 61 00
        E 0 80 62 00
        E 0 80 63 00
        E 0 80 64 00
        E 0 80 65 00
        E 0 8d 51 00
        E 0 8d 69 00
        E 120 90 19 67
        E 0 90 31 67
        E 0 90 32 66
        E 0 90 49 67
        E 0 90 4a 66
        E 0 90 4b 64
        E 0 90 4c 65
        E 0 90 4d 64
        E 0 90 61 67
        E 0 90 62 66
        E 0 90 63 64
        E 0 90 64 65
        E 0 90 65 64
        E 0 9f 51 64
        E 0 9f 69 64
        E 120 80 19 00
        E 0 80 31 00
        E 0 80 32 00
        E 0 80 49 00
        E 0 80 4a 00
        E 0 80 4b 00
        E 0 80 4c 00
        E 0 80 4d 00
        E 0 80 61 00
        E 0 80 62 00
        E 0 80 63 00
        E 0 80 64 00
        E 0 80 65 00
        E 0 8f 51 00
        E 0 8f 69 00
        E 120 90 49 67
        E 0 90 4a 66
        E 0 90 4b 64
        E 0 90 4c 65
        E 0 90 4d 64
        E 0 90 61 67
        E 0 90 62 66
        E 0 90 63 64
        E 0 90 64 65
        E 0 90 65 64
        E 0 9d 51 64
        E 0 9d 69 64
        E 120 80 49 00
        E 0 80 4a 00
        E 0 80 4b 00
        E 0 80 4c 00
        E 0 80 4d 00
        E 0 80 61 00
        E 0 80 62 00
        E 0 80 63 00
        E 0 80 64 00
        E 0 80 65 00
        E 0 8d 51 00
        E 0 8d 69 00
        E 120 90 31 67
        E 0 90 32 66
        E 0 90 49 67
        E 0 90 4a 66
        E 0 90 4b 64
        E 0 90 4c 65
        E 0 90 4d 64
        E 0 90 61 67
        E 0 90 62 66
        E 0 90 63 64
        E 0 90 64 65
        E 0 90 65 64
        E 0 9f 51 64
        E 0 9f 69 64
        E 120 80 31 00
        E 0 80 32 00
        E 240 80 49 00
        E 0 80 4a 00
        E 0 80 4b 00
        E 0 80 4c 00
        E 0 80 4d 00
        E 0 80 61 00
        E 0 80 62 00
        E 0 80 63 00
        E 0 80 64 00
        E 0 80 65 00
        E 0 8f 51 00
        E 0 8f 69 00
        E 120 90 31 67
        E 0 90 32 66
        E 0 90 49 67
        E 0 90 4a 66
        E 0 90 4b 64
        E 0 90 4c 65
        E 0 90 4d 64
        E 0 90 61 67
        E 0 90 62 66
        E 0 90 63 64
        E 0 90 64 65
        E 0 90 65 64
        E 0 9f 51 64
        E 0 9f 69 64
        E 120 80 31 00
        E 0 80 32 00
        E 0 80 49 00
        E 0 80 4a 00
        E 0 80 4b 00
        E 0 80 4c 00
        E 0 80 4d 00
        E 0 80 61 00
        E 0 80 62 00
        E 0 80 63 00
        E 0 80 64 00
        E 0 80 65 00
        E 0 8f 51 00
        E 0 8f 69 00
        E 120 90 31 67
        E 0 90 32 66
        E 0 90 49 67
        E 0 90 4a 66
        E 0 90 4b 64
        E 0 90 4c 65
        E 0 90 4d 64
        E 0 90 61 67
        E 0 90 62 66
        E 0 90 63 64
        E 0 90 64 65
        E 0 90 65 64
        E 0 9d 51 64
        E 0 9d 69 64
        E 120 80 31 00
        E 0 80 32 00
        E 0 80 49 00
        E 0 80 4a 00
        E 0 80 4b 00
        E 0 80 4c 00
        E 0 80 4d 00
        E 0 80 61 00
        E 0 80 62 00
        E 0 80 63 00
        E 0 80 64 00
        E 0 80 65 00
        E 0 8d 51 00
        E 0 8d 69 00
        E 120 90 31 67
        E 0 90 32 66
        E 0 90 49 67
        E 0 90 4a 66
        E 0 90 4b 64
        E 0 90 4c 65
        E 0 90 4d 64
        E 0 90 61 67
        E 0 90 62 66
        E 0 90 63 64
        E 0 90 64 65
        E 0 90 65 64
        E 0 9f 51 64
        E 0 9f 69 64
        E 120 80 31 00
        E 0 80 32 00
        E 0 80 49 00
        E 0 80 4a 00
        E 0 80 4b 00
        E 0 80 4c 00
        E 0 80 4d 00
        E 0 80 61 00
        E 0 80 62 00
        E 0 80 63 00
        E 0 80 64 00
        E 0 80 65 00
        E 0 8f 51 00
        E 0 8f 69 00
        E 120 90 6c 66
        E 0 93 4a 64
        E 0 93 4b 66
        E 0 93 4c 67
        E 0 93 4d 66
        E 0 93 62 64
        E 0 93 63 66
        E 0 93 64 67
        E 0 93 65 66
        E 120 80 6c 00
        E 0 83 4a 00
        E 0 83 4b 00
        E 0 83 4c 00
        E 0 83 4d 00
        E 0 83 62 00
        E 0 83 63 00
        E 0 83 64 00
        E 0 83 65 00
        E 120 90 0e 64
        E 0 90 33 66
        E 0 90 34 67
        E 0 90 4a 64
        E 0 90 4b 66
        E 0 90 4c 67
        E 0 90 4d 66
        E 0 90 62 64
        E 0 90 63 66
        E 0 90 64 67
        E 0 90 65 66
        E 0 9f 51 64
        E 0 9f 69 64
        E 120 80 0e 00
        E 0 80 33 00
        E 0 80 34 00
        E 240 80 4a 00
        E 0 80 4b 00
        E 0 80 4c 00
        E 0 80 4d 00
        E 0 80 62 00
        E 0 80 63 00
        E 0 80 64 00
        E 0 80 65 00
        E 0 8f 51 00
        E 0 8f 69 00
        E 120 90 33 66
        E 0 90 34 67
        E 0 90 4a 64
        E 0 90 4b 66
        E 0 90 4c 67
        E 0 90 4d 66
        E 0 90 62 64
        E 0 90 63 66
        E 0 90 64 67
        E 0 90 65 66
        E 0 9f 51 64
        E 0 9f 69 64
        E 120 80 33 00
        E 0 80 34 00
        E 240 80 4a 00
        E 0 80 4b 00
        E 0 80 4c 00
        E 0 80 4d 00
        E 0 80 62 00
        E 0 80 63 00
        E 0 80 64 00
        E 0 80 65 00
        E 0 8f 51 00
        E 0 8f 69 00
        E 120 90 33 66
        E 0 90 34 67
        E 0 90 4a 64
        E 0 90 4b 66
        E 0 90 4c 67
        E 0 90 4d 66
        E 0 90 62 64
        E 0 90 63 66
        E 0 90 64 67
        E 0 90 65 66
        E 0 9f 51 64
        E 0 9f 69 64
        E 120 80 33 00
        E 0 80 34 00
        E 240 80 4a 00
        E 0 80 4b 00
        E 0 80 4c 00
        E 0 80 4d 00
        E 0 80 62 00
        E 0 80 63 00
        E 0 80 64 00
        E 0 80 65 00
        E 0 8f 51 00
        E 0 8f 69 00
        E 120 90 33 66
        E 0 90 34 67
        E 0 90 4a 64
        E 0 90 4b 66
        E 0 90 4c 67
        E 0 90 4d 66
        E 0 90 62 64
        E 0 90 63 66
        E 0 90 64 67
        E 0 90 65 66
        E 0 9f 51 64
        E 0 9f 69 64
        E 120 80 33 00
        E 0 80 34 00
        E 0 80 4a 00
        E 0 80 4b 00
        E 0 80 4c 00
        E 0 80 4d 00
        E 0 80 62 00
        E 0 80 63 00
        E 0 80 64 00
        E 0 80 65 00
        E 0 8f 51 00
        E 0 8f 69 00
        E 120 90 33 66
        E 0 90 34 67
        E 0 90 4a 64
        E 0 90 4b 66
        E 0 90 4c 67
        E 0 90 4d 66
        E 0 90 62 64
        E 0 90 63 66
        E 0 90 64 67
        E 0 90 65 66
        E 0 9d 51 64
        E 0 9d 69 64
        E 120 80 33 00
        E 0 80 34 00
        E 0 80 4a 00
        E 0 80 4b 00
        E 0 80 4c 00
        E 0 80 4d 00
        E 0 80 62 00
        E 0 80 63 00
        E 0 80 64 00
        E 0 80 65 00
        E 0 8d 51 00
        E 0 8d 69 00
        E 120 90 33 66
        E 0 90 34 67
        E 0 90 4a 64
        E 0 90 4b 66
        E 0 90 4c 67
        E 0 90 4d 66
        E 0 90 62 64
        E 0 90 63 66
        E 0 90 64 67
        E 0 90 65 66
        E 0 9f 51 64
        E 0 9f 69 64
        E 120 80 33 00
        E 0 80 34 00
        E 0 80 4a 00
        E 0 80 4b 00
        E 0 80 4c 00
        E 0 80 4d 00
        E 0 80 62 00
        E 0 80 63 00
        E 0 80 64 00
        E 0 80 65 00
        E 0 8f 51 00
        E 0 8f 69 00
        E 120 90 4a 64
        E 0 90 4b 66
        E 0 90 4c 67
        E 0 90 4d 66
        E 0 90 62 64
        E 0 90 63 66
        E 0 90 64 67
        E 0 90 65 66
        E 0 9d 51 64
        E 0 9d 69 64
        E 120 80 4a 00
        E 0 80 4b 00
        E 0 80 4c 00
        E 0 80 4d 00
        E 0 80 62 00
        E 0 80 63 00
        E 0 80 64 00
        E 0 80 65 00
        E 0 8d 51 00
        E 0 8d 69 00
        E 120 90 33 66
        E 0 90 34 67
        E 0 90 4a 64
        E 0 90 4b 66
        E 0 90 4c 67
        E 0 90 4d 66
        E 0 90 62 64
        E 0 90 63 66
        E 0 90 64 67
        E 0 90 65 66
        E 0 9f 51 64
        E 0 9f 69 64
        E 120 80 33 00
        E 0 80 34 00
        E 0 80 4a 00
        E 0 80 4b 00
        E 0 80 4c 00
        E 0 80 4d 00
        E 0 80 62 00
        E 0 80 63 00
        E 0 80 64 00
        E 0 80 65 00
        E 0 8f 51 00
        E 0 8f 69 00
        E 120 90 4a 64
        E 0 90 4b 66
        E 0 90 4c 67
        E 0 90 4d 66
        E 0 9d 51 64
        E 0 9d 62 64
        E 0 9d 63 66
        E 0 9d 64 67
        E 0 9d 65 66
        E 0 9d 69 64
        E 120 80 4a 00
        E 0 80 4b 00
        E 0 80 4c 00
        E 0 80 4d 00
        E 0 8d 51 00
        E 0 8d 62 00
        E 0 8d 63 00
        E 0 8d 64 00
        E 0 8d 65 00
        E 0 8d 69 00
        E 120 90 33 66
        E 0 90 34 67
        E 0 90 4a 64
        E 0 90 4b 66
        E 0 90 4c 67
        E 0 90 4d 66
        E 0 90 62 64
        E 0 90 63 66
        E 0 90 64 67
        E 0 90 65 66
        E 0 9f 51 64
        E 0 9f 69 64
        E 120 80 33 00
        E 0 80 34 00
        E 0 80 4a 00
        E 0 80 4b 00
        E 0 80 4c 00
        E 0 80 4d 00
        E 0 80 62 00
        E 0 80 63 00
        E 0 80 64 00
        E 0 80 65 00
        E 0 8f 51 00
        E 0 8f 69 00
        E 120 90 4a 64
        E 0 90 4b 66
        E 0 90 4c 67
        E 0 90 4d 66
        E 0 9d 51 64
        E 0 9d 62 64
        E 0 9d 63 66
        E 0 9d 64 67
        E 0 9d 65 66
        E 0 9d 69 64
        E 120 80 4a 00
        E 0 80 4b 00
        E 0 80 4c 00
        E 0 80 4d 00
        E 0 8d 51 00
        E 0 8d 62 00
        E 0 8d 63 00
        E 0 8d 64 00
        E 0 8d 65 00
        E 0 8d 69 00
        E 120 90 33 66
        E 0 90 34 67
        E 0 90 4a 64
        E 0 90 4b 66
        E 0 90 4c 67
        E 0 90 4d 66
        E 0 90 62 64
        E 0 90 63 66
        E 0 90 64 67
        E 0 90 65 66
        E 0 9f 51 64
        E 0 9f 69 64
        E 120 80 33 00
        E 0 80 34 00
        E 0 80 4a 00
        E 0 80 4b 00
        E 0 80 4c 00
        E 0 80 4d 00
        E 0 80 62 00
        E 0 80 63 00
        E 0 80 64 00
        E 0 80 65 00
        E 0 8f 51 00
        E 0 8f 69 00
        E 120 90 6c 65
        E 0 93 49 67
        E 0 93 4a 66
        E 0 93 4b 64
        E 0 93 4c 65
        E 0 93 4d 64
        E 0 93 61 67
        E 0 93 62 66
        E 0 93 63 64
        E 0 93 64 65
        E 0 93 65 64
        E 120 80 6c 00
        E 0 83 49 00
        E 0 83 4a 00
        E 0 83 4b 00
        E 0 83 4c 00
        E 0 83 4d 00
        E 0 83 61 00
        E 0 83 62 00
        E 0 83 63 00
        E 0 83 64 00
        E 0 83 65 00
        E 120 90 0c 64
        E 0 90 31 67
        E 0 90 32 66
        E 0 90 49 67
        E 0 90 4a 66
        E 0 90 4b 64
        E 0 90 4c 65
        E 0 90 4d 64
        E 0 90 61 67
        E 0 90 62 66
        E 0 90 63 64
        E 0 90 64 65
        E 0 90 65 64
        E 0 9f 51 64
        E 0 9f 69 64
        E 120 80 0c 00
        E 0 80 31 00
        E 0 80 32 00
        E 240 80 49 00
        E 0 80 4a 00
        E 0 80 4b 00
        E 0 80 4c 00
        E 0 80 4d 00
        E 0 80 61 00
        E 0 80 62 00
        E 0 80 63 00
        E 0 80 64 00
        E 0 80 65 00
        E 0 8f 51 00
        E 0 8f 69 00
        E 120 90 31 67
        E 0 90 32 66
        E 0 90 49 67
        E 0 90 4a 66
        E 0 90 4b 64
        E 0 90 4c 65
        E 0 90 4d 64
        E 0 90 61 67
        E 0 90 62 66
        E 0 90 63 64
        E 0 90 64 65
        E 0 90 65 64
        E 0 9f 51 64
        E 0 9f 69 64
        E 120 80 31 00
        E 0 80 32 00
        E 240 80 49 00
        E 0 80 4a 00
        E 0 80 4b 00
        E 0 80 4c 00
        E 0 80 4d 00
        E 0 80 61 00
        E 0 80 62 00
        E 0 80 63 00
        E 0 80 64 00
        E 0 80 65 00
        E 0 8f 51 00
        E 0 8f 69 00
        E 120 90 19 67
        E 0 90 31 67
        E 0 90 32 66
        E 0 90 49 67
        E 0 90 4a 66
        E 0 90 4b 64
        E 0 90 4c 65
        E 0 90 4d 64
        E 0 90 61 67
        E 0 90 62 66
        E 0 90 63 64
        E 0 90 64 65
        E 0 90 65 64
        E 0 9f 51 64
        E 0 9f 69 64
        E 120 80 19 00
        E 0 80 31 00
        E 0 80 32 00
        E 240 80 49 00
        E 0 80 4a 00
        E 0 80 4b 00
        E 0 80 4c 00
        E 0 80 4d 00
        E 0 80 61 00
        E 0 80 62 00
        E 0 80 63 00
        E 0 80 64 00
        E 0 80 65 00
        E 0 8f 51 00
        E 0 8f 69 00
        E 120 90 19 67
        E 0 90 31 67
        E 0 90 32 66
        E 0 90 49 67
        E 0 90 4a 66
        E 0 90 4b 64
        E 0 90 4c 65
        E 0 90 4d 64
        E 0 90 61 67
        E 0 90 62 66
        E 0 90 63 64
        E 0 90 64 65
        E 0 90 65 64
        E 0 9f 51 64
        E 0 9f 69 64
        E 120 80 19 00
        E 0 80 31 00
        E 0 80 32 00
        E 0 80 49 00
        E 0 80 4a 00
        E 0 80 4b 00
        E 0 80 4c 00
        E 0 80 4d 00
        E 0 80 61 00
        E 0 80 62 00
        E 0 80 63 00
        E 0 80 64 00
        E 0 80 65 00
        E 0 8f 51 00
        E 0 8f 69 00
        E 120 90 49 67
        E 0 90 4a 66
        E 0 90 4b 64
        E 0 90 4c 65
        E 0 90 4d 64
        E 0 90 61 67
        E 0 90 62 66
        E 0 90 63 64
        E 0 90 64 65
        E 0 90 65 64
        E 0 9d 51 64
        E 0 9d 69 64
        E 120 80 49 00
        E 0 80 4a 00
        E 0 80 4b 00
        E 0 80 4c 00
        E 0 80 4d 00
        E 0 80 61 00
        E 0 80 62 00
        E 0 80 63 00
        E 0 80 64 00
        E 0 80 65 00
        E 0 8d 51 00
        E 0 8d 69 00
        E 120 90 19 67
        E 0 90 31 67
        E 0 90 32 66
        E 0 90 49 67
        E 0 90 4a 66
        E 0 90 4b 64
        E 0 90 4c 65
        E 0 90 4d 64
        E 0 90 61 67
        E 0 90 62 66
        E 0 90 63 64
        E 0 90 64 65
        E 0 90 65 64
        E 0 9f 51 64
        E 0 9f 69 64
        E 120 80 19 00
        E 0 80 31 00
        E 0 80 32 00
        E 0 80 49 00
        E 0 80 4a 00
        E 0 80 4b 00
        E 0 80 4c 00
        E 0 80 4d 00
        E 0 80 61 00
        E 0 80 62 00
        E 0 80 63 00
        E 0 80 64 00
        E 0 80 65 00
        E 0 8f 51 00
        E 0 8f 69 00
        E 120 90 49 67
        E 0 90 4a 66
        E 0 90 4b 64
        E 0 90 4c 65
        E 0 90 4d 64
        E 0 90 61 67
        E 0 90 62 66
        E 0 90 63 64
        E 0 90 64 65
        E 0 90 65 64
        E 0 9d 51 64
        E 0 9d 69 64
        E 120 80 49 00
        E 0 80 4a 00
        E 0 80 4b 00
        E 0 80 4c 00
        E 0 80 4d 00
        E 0 80 61 00
        E 0 80 62 00
        E 0 80 63 00
        E 0 80 64 00
        E 0 80 65 00
        E 0 8d 51 00
        E 0 8d 69 00
        E 120 90 31 67
        E 0 90 32 66
        E 0 90 49 67
        E 0 90 4a 66
        E 0 90 4b 64
        E 0 90 4c 65
        E 0 90 4d 64
        E 0 90 61 67
        E 0 90 62 66
        E 0 90 63 64
        E 0 90 64 65
        E 0 90 65 64
        E 0 9f 51 64
        E 0 9f 69 64
        E 120 80 31 00
        E 0 80 32 00
        E 240 80 49 00
        E 0 80 4a 00
        E 0 80 4b 00
        E 0 80 4c 00
        E 0 80 4d 00
        E 0 80 61 00
        E 0 80 62 00
        E 0 80 63 00
        E 0 80 64 00
        E 0 80 65 00
        E 0 8f 51 00
        E 0 8f 69 00
        E 120 90 31 67
        E 0 90 32 66
        E 0 90 49 67
        E 0 90 4a 66
        E 0 90 4b 64
        E 0 90 4c 65
        E 0 90 4d 64
        E 0 90 61 67
        E 0 90 62 66
        E 0 90 63 64
        E 0 90 64 65
        E 0 90 65 64
        E 0 9f 51 64
        E 0 9f 69 64
        E 120 80 31 00
        E 0 80 32 00
        E 0 80 49 00
        E 0 80 4a 00
        E 0 80 4b 00
        E 0 80 4c 00
        E 0 80 4d 00
        E 0 80 61 00
        E 0 80 62 00
        E 0 80 63 00
        E 0 80 64 00
        E 0 80 65 00
        E 0 8f 51 00
        E 0 8f 69 00
        E 120 90 49 67
        E 0 90 4a 66
        E 0 90 4b 64
        E 0 90 4c 65
        E 0 90 4d 64
        E 0 90 61 67
        E 0 90 62 66
        E 0 90 63 64
        E 0 90 64 65
        E 0 90 65 64
        E 0 9d 51 64
        E 0 9d 69 64
        E 120 80 49 00
        E 0 80 4a 00
        E 0 80 4b 00
        E 0 80 4c 00
        E 0 80 4d 00
        E 0 80 61 00
        E 0 80 62 00
        E 0 80 63 00
        E 0 80 64 00
        E 0 80 65 00
        E 0 8d 51 00
        E 0 8d 69 00
        E 120 90 31 67
        E 0 90 32 66
        E 0 90 49 67
        E 0 90 4a 66
        E 0 90 4b 64
        E 0 90 4c 65
        E 0 90 4d 64
        E 0 90 61 67
        E 0 90 62 66
        E 0 90 63 64
        E 0 90 64 65
        E 0 90 65 64
        E 0 9f 51 64
        E 0 9f 69 64
        E 120 80 31 00
        E 0 80 32 00
        E 0 80 49 00
        E 0 80 4a 00
        E 0 80 4b 00
        E 0 80 4c 00
        E 0 80 4d 00
        E 0 80 61 00
        E 0 80 62 00
        E 0 80 63 00
        E 0 80 64 00
        E 0 80 65 00
        E 0 8f 51 00
        E 0 8f 69 00
        E 360 90 0e 64
        E 0 90 33 66
        E 0 90 34 67
        E 0 90 4a 64
        E 0 90 4b 66
        E 0 90 4c 67
        E 0 90 4d 66
        E 0 90 62 64
        E 0 90 63 66
        E 0 90 64 67
        E 0 90 65 66
        E 0 90 6c 66
        E 0 9f 51 64
        E 0 9f 69 64
        E 120 80 0e 00
        E 0 80 6c 00
        E 360 80 33 00
        E 0 80 34 00
        E 360 80 4a 00
        E 0 80 4b 00
        E 0 80 4c 00
        E 0 80 4d 00
        E 0 80 62 00
        E 0 80 63 00
        E 0 80 64 00
        E 0 80 65 00
        E 0 8f 51 00
        E 0 8f 69 00
        E 120 90 33 66
        E 0 90 34 67
        E 0 90 4a 64
        E 0 90 4b 66
        E 0 90 4c 67
        E 0 90 4d 66
        E 0 90 62 64
        E 0 90 63 66
        E 0 90 64 67
        E 0 90 65 66
        E 0 9f 51 64
        E 0 9f 69 64
        E 1920 80 33 00
        E 0 80 34 00
        E 360 80 4a 00
        E 0 80 4b 00
        E 0 80 4c 00
        E 0 80 4d 00
        E 0 80 62 00
        E 0 80 63 00
        E 0 80 64 00
        E 0 80 65 00
        E 0 8f 51 00
        E 0 8f 69 00
        E 120 90 6c 65
        E 0 93 33 66
        E 0 93 34 65
        E 0 93 4a 64
        E 0 93 4b 66
        E 0 93 4c 65
        E 0 93 4d 66
        E 0 93 62 64
        E 0 93 63 66
        E 0 93 64 65
        E 0 93 65 66
        E 120 80 6c 00
        E 0 83 33 00
        E 0 83 34 00
        E 0 83 4a 00
        E 0 83 4b 00
        E 0 83 4c 00
        E 0 83 4d 00
        E 0 83 62 00
        E 0 83 63 00
        E 0 83 64 00
        E 0 83 65 00
        E 120 93 4a 64
        E 0 93 4b 66
        E 0 93 4c 65
        E 0 93 4d 66
        E 0 93 62 64
        E 0 93 63 66
        E 0 93 64 65
        E 0 93 65 66
        E 120 83 4a 00
        E 0 83 4b 00
        E 0 83 4c 00
        E 0 83 4d 00
        E 0 83 62 00
        E 0 83 63 00
        E 0 83 64 00
        E 0 83 65 00
        E 120 90 33 66
        E 0 90 34 65
        E 0 90 4a 64
        E 0 90 4b 66
        E 0 90 4c 65
        E 0 90 4d 66
        E 0 90 62 64
        E 0 90 63 66
        E 0 90 64 65
        E 0 90 65 66
        E 0 9f 51 64
        E 0 9f 69 64
        E 480 80 33 00
        E 0 80 34 00
        E 360 80 4a 00
        E 0 80 4b 00
        E 0 80 4c 00
        E 0 80 4d 00
        E 0 80 62 00
        E 0 80 63 00
        E 0 80 64 00
        E 0 80 65 00
        E 0 8f 51 00
        E 0 8f 69 00
        E 120 90 33 66
        E 0 90 34 65
        E 0 90 4a 64
        E 0 90 4b 66
        E 0 90 4c 65
        E 0 90 4d 66
        E 0 90 62 64
        E 0 90 63 66
        E 0 90 64 65
        E 0 90 65 66
        E 0 9f 51 64
        E 0 9f 69 64
        E 480 80 33 00
        E 0 80 34 00
        E 120 80 4a 00
        E 0 80 4b 00
        E 0 80 4c 00
        E 0 80 4d 00
        E 0 80 62 00
        E 0 80 63 00
        E 0 80 64 00
        E 0 80 65 00
        E 0 8f 51 00
        E 0 8f 69 00
        E 120 90 4a 64
        E 0 90 4b 66
        E 0 90 4c 65
        E 0 90 4d 66
        E 0 90 62 64
        E 0 90 63 66
        E 0 90 64 65
        E 0 90 65 66
        E 0 9d 51 64
        E 0 9d 69 64
        E 120 80 4a 00
        E 0 80 4b 00
        E 0 80 4c 00
        E 0 80 4d 00
        E 0 80 62 00
        E 0 80 63 00
        E 0 80 64 00
        E 0 80 65 00
        E 0 8d 51 00
        E 0 8d 69 00
        E 120 90 33 66
        E 0 90 34 65
        E 0 90 4a 64
        E 0 90 4b 66
        E 0 90 4c 65
        E 0 90 4d 66
        E 0 90 62 64
        E 0 90 63 66
        E 0 90 64 65
        E 0 90 65 66
        E 0 9f 51 64
        E 0 9f 69 64
        E 120 80 33 00
        E 0 80 34 00
        E 0 80 4a 00
        E 0 80 4b 00
        E 0 80 4c 00
        E 0 80 4d 00
        E 0 80 62 00
        E 0 80 63 00
        E 0 80 64 00
        E 0 80 65 00
        E 0 8f 51 00
        E 0 8f 69 00
        E 120 90 4a 64
        E 0 90 4b 66
        E 0 90 4c 65
        E 0 90 4d 66
        E 0 90 62 64
        E 0 90 63 66
        E 0 90 64 65
        E 0 90 65 66
        E 0 9d 51 64
        E 0 9d 69 64
        E 120 80 4a 00
        E 0 80 4b 00
        E 0 80 4c 00
        E 0 80 4d 00
        E 0 80 62 00
        E 0 80 63 00
        E 0 80 64 00
        E 0 80 65 00
        E 0 8d 51 00
        E 0 8d 69 00
        E 120 90 33 66
        E 0 90 34 65
        E 0 90 4a 64
        E 0 90 4b 66
        E 0 90 4c 65
        E 0 90 4d 66
        E 0 90 62 64
        E 0 90 63 66
        E 0 90 64 65
        E 0 90 65 66
        E 0 9f 51 64
        E 0 9f 69 64
        E 120 80 33 00
        E 0 80 34 00
        E 0 80 4a 00
        E 0 80 4b 00
        E 0 80 4c 00
        E 0 80 4d 00
        E 0 80 62 00
        E 0 80 63 00
        E 0 80 64 00
        E 0 80 65 00
        E 0 8f 51 00
        E 0 8f 69 00
        E 120 90 4a 64
        E 0 90 4b 66
        E 0 90 4c 65
        E 0 90 4d 66
        E 0 90 62 64
        E 0 90 63 66
        E 0 90 64 65
        E 0 90 65 66
        E 0 9d 51 64
        E 0 9d 69 64
        E 120 80 4a 00
        E 0 80 4b 00
        E 0 80 4c 00
        E 0 80 4d 00
        E 0 80 62 00
        E 0 80 63 00
        E 0 80 64 00
        E 0 80 65 00
        E 0 8d 51 00
        E 0 8d 69 00
        E 120 90 33 66
        E 0 90 34 65
        E 0 90 4a 64
        E 0 90 4b 66
        E 0 90 4c 65
        E 0 90 4d 66
        E 0 90 62 64
        E 0 90 63 66
        E 0 90 64 65
        E 0 90 65 66
        E 0 9f 51 64
        E 0 9f 69 64
        E 120 80 33 00
        E 0 80 34 00
        E 0 80 4a 00
        E 0 80 4b 00
        E 0 80 4c 00
        E 0 80 4d 00
        E 0 80 62 00
        E 0 80 63 00
        E 0 80 64 00
        E 0 80 65 00
        E 0 8f 51 00
        E 0 8f 69 00
        E 120 90 4a 64
        E 0 90 4b 66
        E 0 90 4c 65
        E 0 90 4d 66
        E 0 90 62 64
        E 0 90 63 66
        E 0 90 64 65
        E 0 90 65 66
        E 0 9d 51 64
        E 0 9d 69 64
        E 120 80 4a 00
        E 0 80 4b 00
        E 0 80 4c 00
        E 0 80 4d 00
        E 0 80 62 00
        E 0 80 63 00
        E 0 80 64 00
        E 0 80 65 00
        E 0 8d 51 00
        E 0 8d 69 00
        E 120 90 33 66
        E 0 90 34 65
        E 0 90 4a 64
        E 0 90 4b 66
        E 0 90 4c 65
        E 0 90 4d 66
        E 0 90 62 64
        E 0 90 63 66
        E 0 90 64 65
        E 0 90 65 66
        E 0 9f 51 64
        E 0 9f 69 64
        E 120 80 33 00
        E 0 80 34 00
        E 0 80 4a 00
        E 0 80 4b 00
        E 0 80 4c 00
        E 0 80 4d 00
        E 0 80 62 00
        E 0 80 63 00
        E 0 80 64 00
        E 0 80 65 00
        E 0 8f 51 00
        E 0 8f 69 00
        E 120 90 6c 66
        E 0 93 48 67
        E 0 93 49 66
        E 0 93 4a 64
        E 0 93 4b 64
        E 0 93 4c 64
        E 0 93 4d 67
        E 0 93 60 67
        E 0 93 61 66
        E 0 93 62 64
        E 0 93 63 64
        E 0 93 64 64
        E 0 93 65 67
        E 120 80 6c 00
        E 0 83 48 00
        E 0 83 49 00
        E 0 83 4a 00
        E 0 83 4b 00
        E 0 83 4c 00
        E 0 83 4d 00
        E 0 83 60 00
        E 0 83 61 00
        E 0 83 62 00
        E 0 83 63 00
        E 0 83 64 00
        E 0 83 65 00
        E 120 90 07 64
        E 0 90 18 67
        E 0 90 30 67
        E 0 90 31 66
        E 0 90 48 67
        E 0 90 49 66
        E 0 90 4a 64
        E 0 90 4b 64
        E 0 90 4c 64
        E 0 90 4d 67
        E 0 90 60 67
        E 0 90 61 66
        E 0 90 62 64
        E 0 90 63 64
        E 0 90 64 64
        E 0 90 65 67
        E 0 9f 51 64
        E 0 9f 69 64
        E 120 80 07 00 -1
        E 0 80 18 00
        E 0 80 30 00
        E 0 80 31 00
        E 240 80 48 00
        E 0 80 49 00
        E 0 80 4a 00
        E 0 80 4b 00
        E 0 80 4c 00
        E 0 80 4d 00
        E 0 80 60 00
        E 0 80 61 00
        E 0 80 62 00
        E 0 80 63 00
        E 0 80 64 00
        E 0 80 65 00
        E 0 8f 51 00
        E 0 8f 69 00
        E 120 90 30 67
        E 0 90 31 66
        E 0 90 48 67
        E 0 90 49 66
        E 0 90 4a 64
        E 0 90 4b 64
        E 0 90 4c 64
        E 0 90 4d 67
        E 0 90 60 67
        E 0 90 61 66
        E 0 90 62 64
        E 0 90 63 64
        E 0 90 64 64
        E 0 90 65 67
        E 0 9f 51 64
        E 0 9f 69 64
        E 120 80 30 00
        E 0 80 31 00
        E 0 80 48 00
        E 0 80 49 00
        E 0 80 4a 00
        E 0 80 4b 00
        E 0 80 4c 00
        E 0 80 4d 00
        E 0 80 60 00
        E 0 80 61 00
        E 0 80 62 00
        E 0 80 63 00
        E 0 80 64 00
        E 0 80 65 00
        E 0 8f 51 00
        E 0 8f 69 00
        E 120 93 48 66
        E 0 93 49 66
        E 0 93 4a 64
        E 0 93 4b 64
        E 0 93 4c 64
        E 0 93 4d 67
        E 0 93 60 66
        E 0 93 61 66
        E 0 93 62 64
        E 0 93 63 64
        E 0 93 64 64
        E 0 93 65 67
        E 120 83 48 00
        E 0 83 49 00
        E 0 83 4a 00
        E 0 83 4b 00
        E 0 83 4c 00
        E 0 83 4d 00
        E 0 83 60 00
        E 0 83 61 00
        E 0 83 62 00
        E 0 83 63 00
        E 0 83 64 00
        E 0 83 65 00
        E 120 90 07 64
        E 0 90 10 64
        E 0 90 18 66
        E 0 90 30 66
        E 0 90 31 66
        E 0 90 48 66
        E 0 90 49 66
        E 0 90 4a 64
        E 0 90 4b 64
        E 0 90 4c 64
        E 0 90 4d 67
        E 0 90 60 66
        E 0 90 61 66
        E 0 90 62 64
        E 0 90 63 64
        E 0 90 64 64
        E 0 90 65 67
        E 0 90 74 60
        E 0 9f 51 64
        E 0 9f 69 64
        E 120 80 07 00
        E 0 80 10 00
        E 0 80 18 00
        E 0 80 30 00
        E 0 80 31 00
        E 0 80 48 00
        E 0 80 49 00
        E 0 80 4a 00
        E 0 80 4b 00
        E 0 80 4c 00
        E 0 80 4d 00
        E 0 80 60 00
        E 0 80 61 00
        E 0 80 62 00
        E 0 80 63 00
        E 0 80 64 00
        E 0 80 65 00
        E 0 8f 51 00
        E 0 8f 69 00
        E 120 90 30 66
        E 0 90 31 66
        E 0 90 48 66
        E 0 90 49 66
        E 0 90 4a 64
        E 0 90 4b 64
        E 0 90 4c 64
        E 0 90 4d 67
        E 0 90 60 66
        E 0 90 61 66
        E 0 90 62 64
        E 0 90 63 64
        E 0 90 64 64
        E 0 90 65 67
        E 0 9d 51 64
        E 0 9d 69 64
        E 120 80 30 00
        E 0 80 31 00
        E 0 80 48 00
        E 0 80 49 00
        E 0 80 4a 00
        E 0 80 4b 00
        E 0 80 4c 00
        E 0 80 4d 00
        E 0 80 60 00
        E 0 80 61 00
        E 0 80 62 00
        E 0 80 63 00
        E 0 80 64 00
        E 0 80 65 00
        E 0 8d 51 00
        E 0 8d 69 00
        E 120 90 30 66
        E 0 90 31 66
        E 0 90 48 66
        E 0 90 49 66
        E 0 90 4a 64
        E 0 90 4b 64
        E 0 90 4c 64
        E 0 90 4d 67
        E 0 90 60 66
        E 0 90 61 66
        E 0 90 62 64
        E 0 90 63 64
        E 0 90 64 64
        E 0 90 65 67
        E 0 9f 51 64
        E 0 9f 69 64
        E 120 80 30 00
        E 0 80 31 00
        E 0 80 48 00
        E 0 80 49 00
        E 0 80 4a 00
        E 0 80 4b 00
        E 0 80 4c 00
        E 0 80 4d 00
        E 0 80 60 00
        E 0 80 61 00
        E 0 80 62 00
        E 0 80 63 00
        E 0 80 64 00
        E 0 80 65 00
        E 0 8f 51 00
        E 0 8f 69 00
        E 120 93 48 64
        E 0 93 49 66
        E 0 93 4a 66
        E 0 93 4b 64
        E 0 93 4c 64
        E 0 93 4d 64
        E 0 93 60 64
        E 0 93 61 66
        E 0 93 62 66
        E 0 93 63 64
        E 0 93 64 64
        E 0 93 65 64
        E 120 83 48 00
        E 0 83 49 00
        E 0 83 4a 00
        E 0 83 4b 00
        E 0 83 4c 00
        E 0 83 4d 00
        E 0 83 60 00
        E 0 83 61 00
        E 0 83 62 00
        E 0 83 63 00
        E 0 83 64 00
        E 0 83 65 00
        E 120 90 04 64 -1
        E 0 90 19 66
        E 0 90 31 66
        E 0 90 32 66
        E 0 90 48 64
        E 0 90 49 66
        E 0 90 4a 66
        E 0 90 4b 64
        E 0 90 4c 64
        E 0 90 4d 64
        E 0 90 60 64 -1
        E 0 90 61 66 -1
        E 0 90 62 66 -1
        E 0 90 63 64 -1
        E 0 90 64 64 -1
        E 0 90 65 64 -1
        E 0 9f 51 64
        E 0 9f 69 64
        E 120 80 04 00
        E 0 80 19 00
        E 0 80 31 00
        E 0 80 32 00
        E 240 80 48 00
        E 0 80 49 00
        E 0 80 4a 00
        E 0 80 4b 00
        E 0 80 4c 00
        E 0 80 4d 00
        E 0 80 60 00
        E 0 80 61 00
        E 0 80 62 00
        E 0 80 63 00
        E 0 80 64 00
        E 0 80 65 00
        E 0 8f 51 00
        E 0 8f 69 00
        E 120 90 19 66
        E 0 90 31 66
        E 0 90 32 66
        E 0 90 48 64
        E 0 90 49 66
        E 0 90 4a 66
        E 0 90 4b 64
        E 0 90 4c 64
        E 0 90 4d 64
        E 0 90 60 64
        E 0 90 61 66
        E 0 90 62 66
        E 0 90 63 64
        E 0 90 64 64
        E 0 90 65 64
        E 0 9f 51 64
        E 0 9f 69 64
        E 120 80 19 00
        E 0 80 31 00
        E 0 80 32 00
        E 0 80 48 00
        E 0 80 49 00
        E 0 80 4a 00
        E 0 80 4b 00
        E 0 80 4c 00
        E 0 80 4d 00
        E 0 80 60 00
        E 0 80 61 00
        E 0 80 62 00
        E 0 80 63 00
        E 0 80 64 00
        E 0 80 65 00
        E 0 8f 51 00
        E 0 8f 69 00
        E 120 90 31 66
        E 0 90 32 66
        E 0 90 48 64
        E 0 90 49 66
        E 0 90 4a 66
        E 0 90 4b 64
        E 0 90 4c 64
        E 0 90 4d 64
        E 0 90 60 64
        E 0 90 61 66
        E 0 90 62 66
        E 0 90 63 64
        E 0 90 64 64
        E 0 90 65 64
        E 0 9d 51 64
        E 0 9d 69 64
        E 120 80 31 00
        E 0 80 32 00
        E 0 80 48 00
        E 0 80 49 00
        E 0 80 4a 00
        E 0 80 4b 00
        E 0 80 4c 00
        E 0 80 4d 00
        E 0 80 60 00
        E 0 80 61 00
        E 0 80 62 00
        E 0 80 63 00
        E 0 80 64 00
        E 0 80 65 00
        E 0 8d 51 00
        E 0 8d 69 00
        E 120 90 19 66
        E 0 90 31 66
        E 0 90 32 66
        E 0 90 48 64
        E 0 90 49 66
        E 0 90 4a 66
        E 0 90 4b 64
        E 0 90 4c 64
        E 0 90 4d 64
        E 0 90 60 64
        E 0 90 61 66
        E 0 90 62 66
        E 0 90 63 64
        E 0 90 64 64
        E 0 90 65 64
        E 0 9f 51 64
        E 0 9f 69 64
        E 120 80 19 00
        E 0 80 31 00
        E 0 80 32 00
        E 240 80 48 00
        E 0 80 49 00
        E 0 80 4a 00
        E 0 80 4b 00
        E 0 80 4c 00
        E 0 80 4d 00
        E 0 80 60 00
        E 0 80 61 00
        E 0 80 62 00
        E 0 80 63 00
        E 0 80 64 00
        E 0 80 65 00
        E 0 8f 51 00
        E 0 8f 69 00
        E 120 90 31 66
        E 0 90 32 66
        E 0 90 48 64
        E 0 90 49 66
        E 0 90 4a 66
        E 0 90 4b 64
        E 0 90 4c 64
        E 0 90 4d 64
        E 0 90 60 64
        E 0 90 61 66
        E 0 90 62 66
        E 0 90 63 64
        E 0 90 64 64
        E 0 90 65 64
        E 0 9f 51 64
        E 0 9f 69 64
        E 120 80 31 00
        E 0 80 32 00
        E 0 80 48 00
        E 0 80 49 00
        E 0 80 4a 00
        E 0 80 4b 00
        E 0 80 4c 00
        E 0 80 4d 00
        E 0 80 60 00
        E 0 80 61 00
        E 0 80 62 00
        E 0 80 63 00
        E 0 80 64 00
        E 0 80 65 00
        E 0 8f 51 00
        E 0 8f 69 00
        E 120 90 6c 65
        E 0 93 49 67
        E 0 93 4a 66
        E 0 93 4b 64
        E 0 93 4c 65
        E 0 93 4d 64
        E 0 93 61 67
        E 0 93 62 66
        E 0 93 63 64
        E 0 93 64 65
        E 0 93 65 64
        E 120 80 6c 00
        E 0 83 49 00
        E 0 83 4a 00
        E 0 83 4b 00
        E 0 83 4c 00
        E 0 83 4d 00
        E 0 83 61 00
        E 0 83 62 00
        E 0 83 63 00
        E 0 83 64 00
        E 0 83 65 00
        E 120 90 0c 64
        E 0 90 31 67
        E 0 90 32 66
        E 0 90 49 67
        E 0 90 4a 66
        E 0 90 4b 64
        E 0 90 4c 65
        E 0 90 4d 64
        E 0 90 61 67
        E 0 90 62 66
        E 0 90 63 64
        E 0 90 64 65
        E 0 90 65 64
        E 0 9f 51 64
        E 0 9f 69 64
        E 120 80 74 00
        E 0 80 0c 00
        E 0 80 31 00
        E 0 80 32 00
        E 240 80 49 00
        E 0 80 4a 00
        E 0 80 4b 00
        E 0 80 4c 00
        E 0 80 4d 00
        E 0 80 61 00
        E 0 80 62 00
        E 0 80 63 00
        E 0 80 64 00
        E 0 80 65 00
        E 0 8f 51 00
        E 0 8f 69 00
        E 120 90 31 67
        E 0 90 32 66
        E 0 90 49 67
        E 0 90 4a 66
        E 0 90 4b 64
        E 0 90 4c 65
        E 0 90 4d 64
        E 0 90 61 67
        E 0 90 62 66
        E 0 90 63 64
        E 0 90 64 65
        E 0 90 65 64
        E 0 9f 51 64
        E 0 9f 69 64
        E 120 80 31 00
        E 0 80 32 00
        E 0 80 49 00
        E 0 80 4a 00
        E 0 80 4b 00
        E 0 80 4c 00
        E 0 80 4d 00
        E 0 80 61 00
        E 0 80 62 00
        E 0 80 63 00
        E 0 80 64 00
        E 0 80 65 00
        E 0 8f 51 00
        E 0 8f 69 00
        E 120 93 49 67
        E 0 93 4a 66
        E 0 93 4b 64
        E 0 93 4c 65
        E 0 93 4d 64
        E 0 93 61 67
        E 0 93 62 66
        E 0 93 63 64
        E 0 93 64 65
        E 0 93 65 64
        E 120 83 49 00
        E 0 83 4a 00
        E 0 83 4b 00
        E 0 83 4c 00
        E 0 83 4d 00
        E 0 83 61 00
        E 0 83 62 00
        E 0 83 63 00
        E 0 83 64 00
        E 0 83 65 00
        E 120 90 0c 64
        E 0 90 10 64
        E 0 90 31 66
        E 0 90 32 66
        E 0 90 49 66
        E 0 90 4a 66
        E 0 90 4b 64
        E 0 90 4c 65
        E 0 90 4d 64
        E 0 90 61 66
        E 0 90 62 66
        E 0 90 63 64
        E 0 90 64 65
        E 0 90 65 64
        E 0 9f 51 64
        E 0 9f 69 64
        E 120 80 0c 00
        E 0 80 10 00
        E 0 80 31 00
        E 0 80 32 00
        E 240 80 49 00
        E 0 80 4a 00
        E 0 80 4b 00
        E 0 80 4c 00
        E 0 80 4d 00
        E 0 80 61 00
        E 0 80 62 00
        E 0 80 63 00
        E 0 80 64 00
        E 0 80 65 00
        E 0 8f 51 00
        E 0 8f 69 00
        E 120 90 31 66
        E 0 90 32 66
        E 0 90 49 66
        E 0 90 4a 66
        E 0 90 4b 64
        E 0 90 4c 65
        E 0 90 4d 64
        E 0 90 61 66
        E 0 90 62 66
        E 0 90 63 64
        E 0 90 64 65
        E 0 90 65 64
        E 0 9f 51 64
        E 0 9f 69 64
        E 120 80 31 00
        E 0 80 32 00
        E 0 80 49 00
        E 0 80 4a 00
        E 0 80 4b 00
        E 0 80 4c 00
        E 0 80 4d 00
        E 0 80 61 00
        E 0 80 62 00
        E 0 80 63 00
        E 0 80 64 00
        E 0 80 65 00
        E 0 8f 51 00
        E 0 8f 69 00
        E 120 93 49 66
        E 0 93 4a 66
        E 0 93 4b 64
        E 0 93 4c 65
        E 0 93 4d 64
        E 0 93 61 66
        E 0 93 62 66
        E 0 93 63 64
        E 0 93 64 65
        E 0 93 65 64
        E 120 83 49 00
        E 0 83 4a 00
        E 0 83 4b 00
        E 0 83 4c 00
        E 0 83 4d 00
        E 0 83 61 00
        E 0 83 62 00
        E 0 83 63 00
        E 0 83 64 00
        E 0 83 65 00
        E 120 90 09 64
        E 0 90 1a 66
        E 0 90 32 66
        E 0 90 33 66
        E 0 90 49 64
        E 0 90 4a 66
        E 0 90 4b 66
        E 0 90 4c 65
        E 0 90 4d 64
        E 0 90 61 64
        E 0 90 62 66
        E 0 90 63 66
        E 0 90 64 65
        E 0 90 65 64
        E 0 9f 51 64
        E 0 9f 69 64
        E 120 80 09 00
        E 0 80 1a 00
        E 0 80 32 00
        E 0 80 33 00
        E 240 80 49 00
        E 0 80 4a 00
        E 0 80 4b 00
        E 0 80 4c 00
        E 0 80 4d 00
        E 0 80 61 00
        E 0 80 62 00
        E 0 80 63 00
        E 0 80 64 00
        E 0 80 65 00
        E 0 8f 51 00
        E 0 8f 69 00
        E 120 90 1a 66
        E 0 90 32 66
        E 0 90 33 66
        E 0 90 49 64
        E 0 90 4a 66
        E 0 90 4b 66
        E 0 90 4c 65
        E 0 90 4d 64
        E 0 90 61 64
        E 0 90 62 66
        E 0 90 63 66
        E 0 90 64 65
        E 0 90 65 64
        E 0 9f 51 64
        E 0 9f 69 64
        E 120 80 1a 00
        E 0 80 32 00
        E 0 80 33 00
        E 0 80 49 00
        E 0 80 4a 00
        E 0 80 4b 00
        E 0 80 4c 00
        E 0 80 4d 00
        E 0 80 61 00
        E 0 80 62 00
        E 0 80 63 00
        E 0 80 64 00
        E 0 80 65 00
        E 0 8f 51 00
        E 0 8f 69 00
        E 120 90 49 64
        E 0 90 4a 66
        E 0 90 4b 66
        E 0 90 4c 65
        E 0 90 4d 64
        E 0 90 61 64
        E 0 90 62 66
        E 0 90 63 66
        E 0 90 64 65
        E 0 90 65 64
        E 0 9d 51 64
        E 0 9d 69 64
        E 120 80 49 00
        E 0 80 4a 00
        E 0 80 4b 00
        E 0 80 4c 00
        E 0 80 4d 00
        E 0 80 61 00
        E 0 80 62 00
        E 0 80 63 00
        E 0 80 64 00
        E 0 80 65 00
        E 0 8d 51 00
        E 0 8d 69 00
        E 120 90 1a 66
        E 0 90 32 66
        E 0 90 33 66
        E 0 90 49 64
        E 0 90 4a 66
        E 0 90 4b 66
        E 0 90 4c 65
        E 0 90 4d 64
        E 0 90 61 64
        E 0 90 62 66
        E 0 90 63 66
        E 0 90 64 65
        E 0 90 65 64
        E 0 9f 51 64
        E 0 9f 69 64
        E 120 80 1a 00
        E 0 80 32 00
        E 0 80 33 00
        E 0 80 49 00
        E 0 80 4a 00
        E 0 80 4b 00
        E 0 80 4c 00
        E 0 80 4d 00
        E 0 80 61 00
        E 0 80 62 00
        E 0 80 63 00
        E 0 80 64 00
        E 0 80 65 00
        E 0 8f 51 00
        E 0 8f 69 00
        E 120 90 32 66
        E 0 90 33 66
        E 0 90 49 64
        E 0 90 4a 66
        E 0 90 4b 66
        E 0 90 4c 65
        E 0 90 4d 64
        E 0 90 61 64
        E 0 90 62 66
        E 0 90 63 66
        E 0 90 64 65
        E 0 90 65 64
        E 0 9d 51 64
        E 0 9d 69 64
        E 120 80 32 00
        E 0 80 33 00
        E 0 80 49 00
        E 0 80 4a 00
        E 0 80 4b 00
        E 0 80 4c 00
        E 0 80 4d 00
        E 0 80 61 00
        E 0 80 62 00
        E 0 80 63 00
        E 0 80 64 00
        E 0 80 65 00
        E 0 8d 51 00
        E 0 8d 69 00
        E 120 90 1a 66
        E 0 90 32 66
        E 0 90 33 66
        E 0 90 49 64
        E 0 90 4a 66
        E 0 90 4b 66
        E 0 90 4c 65
        E 0 90 4d 64
        E 0 90 61 64
        E 0 90 62 66
        E 0 90 63 66
        E 0 90 64 65
        E 0 90 65 64
        E 0 9f 51 64
        E 0 9f 69 64
        E 120 80 1a 00
        E 0 80 32 00
        E 0 80 33 00
        E 0 80 49 00
        E 0 80 4a 00
        E 0 80 4b 00
        E 0 80 4c 00
        E 0 80 4d 00
        E 0 80 61 00
        E 0 80 62 00
        E 0 80 63 00
        E 0 80 64 00
        E 0 80 65 00
        E 0 8f 51 00
        E 0 8f 69 00
        E 120 90 6c 66
        E 0 93 48 67
        E 0 93 49 66
        E 0 93 4a 64
        E 0 93 4b 64
        E 0 93 4c 64
        E 0 93 4d 67
        E 0 93 60 67
        E 0 93 61 66
        E 0 93 62 64
        E 0 93 63 64
        E 0 93 64 64
        E 0 93 65 67
        E 120 80 6c 00
        E 0 83 48 00
        E 0 83 49 00
        E 0 83 4a 00
        E 0 83 4b 00
        E 0 83 4c 00
        E 0 83 4d 00
        E 0 83 60 00
        E 0 83 61 00
        E 0 83 62 00
        E 0 83 63 00
        E 0 83 64 00
        E 0 83 65 00
        E 120 90 07 64
        E 0 90 18 67
        E 0 90 30 67
        E 0 90 31 66
        E 0 90 48 67
        E 0 90 49 66
        E 0 90 4a 64
        E 0 90 4b 64
        E 0 90 4c 64
        E 0 90 4d 67
        E 0 90 60 67
        E 0 90 61 66
        E 0 90 62 64
        E 0 90 63 64
        E 0 90 64 64
        E 0 90 65 67
        E 0 90 6c 66
        E 0 9f 51 64
        E 0 9f 69 64
        E 120 80 07 00 -1
        E 0 80 18 00
        E 0 80 30 00
        E 0 80 31 00
        E 0 80 6c 00 -1
        E 240 80 48 00
        E 0 80 49 00
        E 0 80 4a 00
        E 0 80 4b 00
        E 0 80 4c 00
        E 0 80 4d 00
        E 0 80 60 00
        E 0 80 61 00
        E 0 80 62 00
        E 0 80 63 00
        E 0 80 64 00
        E 0 80 65 00
        E 0 8f 51 00
        E 0 8f 69 00
        E 120 90 30 67
        E 0 90 31 66
        E 0 90 48 67
        E 0 90 49 66
        E 0 90 4a 64
        E 0 90 4b 64
        E 0 90 4c 64
        E 0 90 4d 67
        E 0 90 60 67
        E 0 90 61 66
        E 0 90 62 64
        E 0 90 63 64
        E 0 90 64 64
        E 0 90 65 67
        E 0 9f 51 64
        E 0 9f 69 64
        E 120 80 30 00
        E 0 80 31 00
        E 0 80 48 00
        E 0 80 49 00
        E 0 80 4a 00
        E 0 80 4b 00
        E 0 80 4c 00
        E 0 80 4d 00
        E 0 80 60 00
        E 0 80 61 00
        E 0 80 62 00
        E 0 80 63 00
        E 0 80 64 00
        E 0 80 65 00
        E 0 8f 51 00
        E 0 8f 69 00
        E 120 93 48 66
        E 0 93 49 66
        E 0 93 4a 64
        E 0 93 4b 64
        E 0 93 4c 64
        E 0 93 4d 67
        E 0 93 60 66
        E 0 93 61 66
        E 0 93 62 64
        E 0 93 63 64
        E 0 93 64 64
        E 0 93 65 67
        E 120 83 48 00
        E 0 83 49 00
        E 0 83 4a 00
        E 0 83 4b 00
        E 0 83 4c 00
        E 0 83 4d 00
        E 0 83 60 00
        E 0 83 61 00
        E 0 83 62 00
        E 0 83 63 00
        E 0 83 64 00
        E 0 83 65 00
        E 120 90 07 64
        E 0 90 10 64
        E 0 90 18 66
        E 0 90 30 66
        E 0 90 31 66
        E 0 90 48 66
        E 0 90 49 66
        E 0 90 4a 64
        E 0 90 4b 64
        E 0 90 4c 64
        E 0 90 4d 67
        E 0 90 60 66
        E 0 90 61 66
        E 0 90 62 64
        E 0 90 63 64
        E 0 90 64 64
        E 0 90 65 67
        E 0 9f 51 64
        E 0 9f 69 64
        E 120 80 07 00
        E 0 80 10 00
        E 0 80 18 00
        E 0 80 30 00
        E 0 80 31 00
        E 240 80 48 00
        E 0 80 49 00
        E 0 80 4a 00
        E 0 80 4b 00
        E 0 80 4c 00
        E 0 80 4d 00
        E 0 80 60 00
        E 0 80 61 00
        E 0 80 62 00
        E 0 80 63 00
        E 0 80 64 00
        E 0 80 65 00
        E 0 8f 51 00
        E 0 8f 69 00
        E 120 90 30 66
        E 0 90 31 66
        E 0 90 48 66
        E 0 90 49 66
        E 0 90 4a 64
        E 0 90 4b 64
        E 0 90 4c 64
        E 0 90 4d 67
        E 0 90 60 66
        E 0 90 61 66
        E 0 90 62 64
        E 0 90 63 64
        E 0 90 64 64
        E 0 90 65 67
        E 0 9f 51 64
        E 0 9f 69 64
        E 120 80 30 00
        E 0 80 31 00
        E 0 80 48 00
        E 0 80 49 00
        E 0 80 4a 00
        E 0 80 4b 00
        E 0 80 4c 00
        E 0 80 4d 00
        E 0 80 60 00
        E 0 80 61 00
        E 0 80 62 00
        E 0 80 63 00
        E 0 80 64 00
        E 0 80 65 00
        E 0 8f 51 00
        E 0 8f 69 00
        E 120 93 48 64
        E 0 93 49 66
        E 0 93 4a 66
        E 0 93 4b 64
        E 0 93 4c 64
        E 0 93 4d 64
        E 0 93 60 64
        E 0 93 61 66
        E 0 93 62 66
        E 0 93 63 64
        E 0 93 64 64
        E 0 93 65 64
        E 120 83 48 00
        E 0 83 49 00
        E 0 83 4a 00
        E 0 83 4b 00
        E 0 83 4c 00
        E 0 83 4d 00
        E 0 83 60 00
        E 0 83 61 00
        E 0 83 62 00
        E 0 83 63 00
        E 0 83 64 00
        E 0 83 65 00
        E 120 90 04 64 -1
        E 0 90 19 66
        E 0 90 31 66
        E 0 90 32 66
        E 0 90 48 64
        E 0 90 49 66
        E 0 90 4a 66
        E 0 90 4b 64
        E 0 90 4c 64
        E 0 90 4d 64
        E 0 90 60 64 -1
        E 0 90 61 66 -1
        E 0 90 62 66 -1
        E 0 90 63 64 -1
        E 0 90 64 64 -1
        E 0 90 65 64 -1
        E 0 9f 51 64
        E 0 9f 69 64
        E 120 80 04 00
        E 0 80 19 00
        E 0 80 31 00
        E 0 80 32 00
        E 240 80 48 00
        E 0 80 49 00
        E 0 80 4a 00
        E 0 80 4b 00
        E 0 80 4c 00
        E 0 80 4d 00
        E 0 80 60 00
        E 0 80 61 00
        E 0 80 62 00
        E 0 80 63 00
        E 0 80 64 00
        E 0 80 65 00
        E 0 8f 51 00
        E 0 8f 69 00
        E 120 90 19 66
        E 0 90 31 66
        E 0 90 32 66
        E 0 90 48 64
        E 0 90 49 66
        E 0 90 4a 66
        E 0 90 4b 64
        E 0 90 4c 64
        E 0 90 4d 64
        E 0 90 60 64
        E 0 90 61 66
        E 0 90 62 66
        E 0 90 63 64
        E 0 90 64 64
        E 0 90 65 64
        E 0 9f 51 64
        E 0 9f 69 64
        E 120 80 19 00
        E 0 80 31 00
        E 0 80 32 00
        E 0 80 48 00
        E 0 80 49 00
        E 0 80 4a 00
        E 0 80 4b 00
        E 0 80 4c 00
        E 0 80 4d 00
        E 0 80 60 00
        E 0 80 61 00
        E 0 80 62 00
        E 0 80 63 00
        E 0 80 64 00
        E 0 80 65 00
        E 0 8f 51 00
        E 0 8f 69 00
        E 120 90 31 66
        E 0 90 32 66
        E 0 90 48 64
        E 0 90 49 66
        E 0 90 4a 66
        E 0 90 4b 64
        E 0 90 4c 64
        E 0 90 4d 64
        E 0 90 60 64
        E 0 90 61 66
        E 0 90 62 66
        E 0 90 63 64
        E 0 90 64 64
        E 0 90 65 64
        E 0 9d 51 64
        E 0 9d 69 64
        E 120 80 31 00
        E 0 80 32 00
        E 0 80 48 00
        E 0 80 49 00
        E 0 80 4a 00
        E 0 80 4b 00
        E 0 80 4c 00
        E 0 80 4d 00
        E 0 80 60 00
        E 0 80 61 00
        E 0 80 62 00
        E 0 80 63 00
        E 0 80 64 00
        E 0 80 65 00
        E 0 8d 51 00
        E 0 8d 69 00
        E 120 90 19 66
        E 0 90 31 66
        E 0 90 32 66
        E 0 90 48 64
        E 0 90 49 66
        E 0 90 4a 66
        E 0 90 4b 64
        E 0 90 4c 64
        E 0 90 4d 64
        E 0 90 60 64
        E 0 90 61 66
        E 0 90 62 66
        E 0 90 63 64
        E 0 90 64 64
        E 0 90 65 64
        E 0 9f 51 64
        E 0 9f 69 64
        E 120 80 19 00
        E 0 80 31 00
        E 0 80 32 00
        E 240 80 48 00
        E 0 80 49 00
        E 0 80 4a 00
        E 0 80 4b 00
        E 0 80 4c 00
        E 0 80 4d 00
        E 0 80 60 00
        E 0 80 61 00
        E 0 80 62 00
        E 0 80 63 00
        E 0 80 64 00
        E 0 80 65 00
        E 0 8f 51 00
        E 0 8f 69 00
        E 120 90 31 66
        E 0 90 32 66
        E 0 90 48 64
        E 0 90 49 66
        E 0 90 4a 66
        E 0 90 4b 64
        E 0 90 4c 64
        E 0 90 4d 64
        E 0 90 60 64
        E 0 90 61 66
        E 0 90 62 66
        E 0 90 63 64
        E 0 90 64 64
        E 0 90 65 64
        E 0 9f 51 64
        E 0 9f 69 64
        E 120 80 31 00
        E 0 80 32 00
        E 0 80 48 00
        E 0 80 49 00
        E 0 80 4a 00
        E 0 80 4b 00
        E 0 80 4c 00
        E 0 80 4d 00
        E 0 80 60 00
        E 0 80 61 00
        E 0 80 62 00
        E 0 80 63 00
        E 0 80 64 00
        E 0 80 65 00
        E 0 8f 51 00
        E 0 8f 69 00
        E 120 90 6c 65
        E 0 93 49 67
        E 0 93 4a 66
        E 0 93 4b 64
        E 0 93 4c 65
        E 0 93 4d 64
        E 0 93 61 67
        E 0 93 62 66
        E 0 93 63 64
        E 0 93 64 65
        E 0 93 65 64
        E 120 80 6c 00
        E 0 83 49 00
        E 0 83 4a 00
        E 0 83 4b 00
        E 0 83 4c 00
        E 0 83 4d 00
        E 0 83 61 00
        E 0 83 62 00
        E 0 83 63 00
        E 0 83 64 00
        E 0 83 65 00
        E 120 90 0c 64
        E 0 90 31 67
        E 0 90 32 66
        E 0 90 49 67
        E 0 90 4a 66
        E 0 90 4b 64
        E 0 90 4c 65
        E 0 90 4d 64
        E 0 90 61 67
        E 0 90 62 66
        E 0 90 63 64
        E 0 90 64 65
        E 0 90 65 64
        E 0 9f 51 64
        E 0 9f 69 64
        E 120 80 0c 00
        E 0 80 31 00
        E 0 80 32 00
        E 240 80 49 00
        E 0 80 4a 00
        E 0 80 4b 00
        E 0 80 4c 00
        E 0 80 4d 00
        E 0 80 61 00
        E 0 80 62 00
        E 0 80 63 00
        E 0 80 64 00
        E 0 80 65 00
        E 0 8f 51 00
        E 0 8f 69 00
        E 120 90 31 67
        E 0 90 32 66
        E 0 90 49 67
        E 0 90 4a 66
        E 0 90 4b 64
        E 0 90 4c 65
        E 0 90 4d 64
        E 0 90 61 67
        E 0 90 62 66
        E 0 90 63 64
        E 0 90 64 65
        E 0 90 65 64
        E 0 9f 51 64
        E 0 9f 69 64
        E 120 80 31 00
        E 0 80 32 00
        E 0 80 49 00
        E 0 80 4a 00
        E 0 80 4b 00
        E 0 80 4c 00
        E 0 80 4d 00
        E 0 80 61 00
        E 0 80 62 00
        E 0 80 63 00
        E 0 80 64 00
        E 0 80 65 00
        E 0 8f 51 00
        E 0 8f 69 00
        E 120 93 49 67
        E 0 93 4a 66
        E 0 93 4b 64
        E 0 93 4c 65
        E 0 93 4d 64
        E 0 93 61 67
        E 0 93 62 66
        E 0 93 63 64
        E 0 93 64 65
        E 0 93 65 64
        E 120 83 49 00
        E 0 83 4a 00
        E 0 83 4b 00
        E 0 83 4c 00
        E 0 83 4d 00
        E 0 83 61 00
        E 0 83 62 00
        E 0 83 63 00
        E 0 83 64 00
        E 0 83 65 00
        E 120 90 0c 64
        E 0 90 10 64
        E 0 90 31 66
        E 0 90 32 66
        E 0 90 49 66
        E 0 90 4a 66
        E 0 90 4b 64
        E 0 90 4c 65
        E 0 90 4d 64
        E 0 90 61 66
        E 0 90 62 66
        E 0 90 63 64
        E 0 90 64 65
        E 0 90 65 64
        E 0 9f 51 64
        E 0 9f 69 64
        E 120 80 0c 00
        E 0 80 10 00
        E 0 80 31 00
        E 0 80 32 00
        E 240 80 49 00
        E 0 80 4a 00
        E 0 80 4b 00
        E 0 80 4c 00
        E 0 80 4d 00
        E 0 80 61 00
        E 0 80 62 00
        E 0 80 63 00
        E 0 80 64 00
        E 0 80 65 00
        E 0 8f 51 00
        E 0 8f 69 00
        E 120 90 31 66
        E 0 90 32 66
        E 0 90 49 66
        E 0 90 4a 66
        E 0 90 4b 64
        E 0 90 4c 65
        E 0 90 4d 64
        E 0 90 61 66
        E 0 90 62 66
        E 0 90 63 64
        E 0 90 64 65
        E 0 90 65 64
        E 0 9f 51 64
        E 0 9f 69 64
        E 120 80 31 00
        E 0 80 32 00
        E 0 80 49 00
        E 0 80 4a 00
        E 0 80 4b 00
        E 0 80 4c 00
        E 0 80 4d 00
        E 0 80 61 00
        E 0 80 62 00
        E 0 80 63 00
        E 0 80 64 00
        E 0 80 65 00
        E 0 8f 51 00
        E 0 8f 69 00
        E 120 93 49 66
        E 0 93 4a 66
        E 0 93 4b 64
        E 0 93 4c 65
        E 0 93 4d 64
        E 0 93 61 66
        E 0 93 62 66
        E 0 93 63 64
        E 0 93 64 65
        E 0 93 65 64
        E 120 83 49 00
        E 0 83 4a 00
        E 0 83 4b 00
        E 0 83 4c 00
        E 0 83 4d 00
        E 0 83 61 00
        E 0 83 62 00
        E 0 83 63 00
        E 0 83 64 00
        E 0 83 65 00
        E 120 90 09 64
        E 0 90 1a 66
        E 0 90 32 66
        E 0 90 33 66
        E 0 90 49 64
        E 0 90 4a 66
        E 0 90 4b 66
        E 0 90 4c 65
        E 0 90 4d 64
        E 0 90 61 64
        E 0 90 62 66
        E 0 90 63 66
        E 0 90 64 65
        E 0 90 65 64
        E 0 9f 51 64
        E 0 9f 69 64
        E 120 80 09 00
        E 0 80 1a 00
        E 0 80 32 00
        E 0 80 33 00
        E 240 80 49 00
        E 0 80 4a 00
        E 0 80 4b 00
        E 0 80 4c 00
        E 0 80 4d 00
        E 0 80 61 00
        E 0 80 62 00
        E 0 80 63 00
        E 0 80 64 00
        E 0 80 65 00
        E 0 8f 51 00
        E 0 8f 69 00
        E 120 90 1a 66
        E 0 90 32 66
        E 0 90 33 66
        E 0 90 49 64
        E 0 90 4a 66
        E 0 90 4b 66
        E 0 90 4c 65
        E 0 90 4d 64
        E 0 90 61 64
        E 0 90 62 66
        E 0 90 63 66
        E 0 90 64 65
        E 0 90 65 64
        E 0 9f 51 64
        E 0 9f 69 64
        E 120 80 1a 00
        E 0 80 32 00
        E 0 80 33 00
        E 0 80 49 00
        E 0 80 4a 00
        E 0 80 4b 00
        E 0 80 4c 00
        E 0 80 4d 00
        E 0 80 61 00
        E 0 80 62 00
        E 0 80 63 00
        E 0 80 64 00
        E 0 80 65 00
        E 0 8f 51 00
        E 0 8f 69 00
        E 120 90 49 64
        E 0 90 4a 66
        E 0 90 4b 66
        E 0 90 4c 65
        E 0 90 4d 64
        E 0 90 61 64
        E 0 90 62 66
        E 0 90 63 66
        E 0 90 64 65
        E 0 90 65 64
        E 0 9d 51 64
        E 0 9d 69 64
        E 120 80 49 00
        E 0 80 4a 00
        E 0 80 4b 00
        E 0 80 4c 00
        E 0 80 4d 00
        E 0 80 61 00
        E 0 80 62 00
        E 0 80 63 00
        E 0 80 64 00
        E 0 80 65 00
        E 0 8d 51 00
        E 0 8d 69 00
        E 120 90 1a 66
        E 0 90 32 66
        E 0 90 33 66
        E 0 90 49 64
        E 0 90 4a 66
        E 0 90 4b 66
        E 0 90 4c 65
        E 0 90 4d 64
        E 0 90 61 64
        E 0 90 62 66
        E 0 90 63 66
        E 0 90 64 65
        E 0 90 65 64
        E 0 9f 51 64
        E 0 9f 69 64
        E 120 80 1a 00
        E 0 80 32 00
        E 0 80 33 00
        E 0 80 49 00
        E 0 80 4a 00
        E 0 80 4b 00
        E 0 80 4c 00
        E 0 80 4d 00
        E 0 80 61 00
        E 0 80 62 00
        E 0 80 63 00
        E 0 80 64 00
        E 0 80 65 00
        E 0 8f 51 00
        E 0 8f 69 00
        E 120 90 49 64
        E 0 90 4a 66
        E 0 90 4b 66
        E 0 90 4c 65
        E 0 90 4d 64
        E 0 90 61 64
        E 0 90 62 66
        E 0 90 63 66
        E 0 90 64 65
        E 0 90 65 64
        E 0 9d 51 64
        E 0 9d 69 64
        E 120 80 49 00
        E 0 80 4a 00
        E 0 80 4b 00
        E 0 80 4c 00
        E 0 80 4d 00
        E 0 80 61 00
        E 0 80 62 00
        E 0 80 63 00
        E 0 80 64 00
        E 0 80 65 00
        E 0 8d 51 00
        E 0 8d 69 00
        E 120 90 1a 66
        E 0 90 32 66
        E 0 90 33 66
        E 0 90 49 64
        E 0 90 4a 66
        E 0 90 4b 66
        E 0 90 4c 65
        E 0 90 4d 64
        E 0 90 61 64
        E 0 90 62 66
        E 0 90 63 66
        E 0 90 64 65
        E 0 90 65 64
        E 0 9f 51 64
        E 0 9f 69 64
        E 120 80 1a 00
        E 0 80 32 00
        E 0 80 33 00
        E 0 80 49 00
        E 0 80 4a 00
        E 0 80 4b 00
        E 0 80 4c 00
        E 0 80 4d 00
        E 0 80 61 00
        E 0 80 62 00
        E 0 80 63 00
        E 0 80 64 00
        E 0 80 65 00
        E 0 8f 51 00
        E 0 8f 69 00
        E 120 90 6c 66
        E 0 93 48 67
        E 0 93 49 66
        E 0 93 4a 64
        E 0 93 4b 64
        E 0 93 4c 64
        E 0 93 4d 67
        E 0 93 60 67
        E 0 93 61 66
        E 0 93 62 64
        E 0 93 63 64
        E 0 93 64 64
        E 0 93 65 67
        E 120 80 6c 00
        E 0 83 48 00
        E 0 83 49 00
        E 0 83 4a 00
        E 0 83 4b 00
        E 0 83 4c 00
        E 0 83 4d 00
        E 0 83 60 00
        E 0 83 61 00
        E 0 83 62 00
        E 0 83 63 00
        E 0 83 64 00
        E 0 83 65 00
        E 120 90 07 64
        E 0 90 18 67
        E 0 90 30 67
        E 0 90 31 66
        E 0 90 48 67
        E 0 90 49 66
        E 0 90 4a 64
        E 0 90 4b 64
        E 0 90 4c 64
        E 0 90 4d 67
        E 0 90 60 67
        E 0 90 61 66
        E 0 90 62 64
        E 0 90 63 64
        E 0 90 64 64
        E 0 90 65 67
        E 0 90 6c 66
        E 0 9f 51 64
        E 0 9f 69 64
        E 120 80 07 00 -1
        E 0 80 18 00
        E 0 80 30 00
        E 0 80 31 00
        E 0 80 6c 00 -1
        E 240 80 48 00
        E 0 80 49 00
        E 0 80 4a 00
        E 0 80 4b 00
        E 0 80 4c 00
        E 0 80 4d 00
        E 0 80 60 00
        E 0 80 61 00
        E 0 80 62 00
        E 0 80 63 00
        E 0 80 64 00
        E 0 80 65 00
        E 0 8f 51 00
        E 0 8f 69 00
        E 120 90 30 67
        E 0 90 31 66
        E 0 90 48 67
        E 0 90 49 66
        E 0 90 4a 64
        E 0 90 4b 64
        E 0 90 4c 64
        E 0 90 4d 67
        E 0 90 60 67
        E 0 90 61 66
        E 0 90 62 64
        E 0 90 63 64
        E 0 90 64 64
        E 0 90 65 67
        E 0 9f 51 64
        E 0 9f 69 64
        E 120 80 30 00
        E 0 80 31 00
        E 0 80 48 00
        E 0 80 49 00
        E 0 80 4a 00
        E 0 80 4b 00
        E 0 80 4c 00
        E 0 80 4d 00
        E 0 80 60 00
        E 0 80 61 00
        E 0 80 62 00
        E 0 80 63 00
        E 0 80 64 00
        E 0 80 65 00
        E 0 8f 51 00
        E 0 8f 69 00
        E 120 93 48 66
        E 0 93 49 66
        E 0 93 4a 64
        E 0 93 4b 64
        E 0 93 4c 64
        E 0 93 4d 67
        E 0 93 60 66
        E 0 93 61 66
        E 0 93 62 64
        E 0 93 63 64
        E 0 93 64 64
        E 0 93 65 67
        E 120 83 48 00
        E 0 83 49 00
        E 0 83 4a 00
        E 0 83 4b 00
        E 0 83 4c 00
        E 0 83 4d 00
        E 0 83 60 00
        E 0 83 61 00
        E 0 83 62 00
        E 0 83 63 00
        E 0 83 64 00
        E 0 83 65 00
        E 120 90 07 64
        E 0 90 10 64
        E 0 90 18 66
        E 0 90 30 66
        E 0 90 31 66
        E 0 90 48 66
        E 0 90 49 66
        E 0 90 4a 64
        E 0 90 4b 64
        E 0 90 4c 64
        E 0 90 4d 67
        E 0 90 60 66
        E 0 90 61 66
        E 0 90 62 64
        E 0 90 63 64
        E 0 90 64 64
        E 0 90 65 67
        E 0 9f 51 64
        E 0 9f 69 64
        E 120 80 07 00
        E 0 80 10 00
        E 0 80 18 00
        E 0 80 30 00
        E 0 80 31 00
        E 240 80 48 00
        E 0 80 49 00
        E 0 80 4a 00
        E 0 80 4b 00
        E 0 80 4c 00
        E 0 80 4d 00
        E 0 80 60 00
        E 0 80 61 00
        E 0 80 62 00
        E 0 80 63 00
        E 0 80 64 00
        E 0 80 65 00
        E 0 8f 51 00
        E 0 8f 69 00
        E 120 90 30 66
        E 0 90 31 66
        E 0 90 48 66
        E 0 90 49 66
        E 0 90 4a 64
        E 0 90 4b 64
        E 0 90 4c 64
        E 0 90 4d 67
        E 0 90 60 66
        E 0 90 61 66
        E 0 90 62 64
        E 0 90 63 64
        E 0 90 64 64
        E 0 90 65 67
        E 0 9f 51 64
        E 0 9f 69 64
        E 120 80 30 00
        E 0 80 31 00
        E 0 80 48 00
        E 0 80 49 00
        E 0 80 4a 00
        E 0 80 4b 00
        E 0 80 4c 00
        E 0 80 4d 00
        E 0 80 60 00
        E 0 80 61 00
        E 0 80 62 00
        E 0 80 63 00
        E 0 80 64 00
        E 0 80 65 00
        E 0 8f 51 00
        E 0 8f 69 00
        E 120 93 48 64
        E 0 93 49 66
        E 0 93 4a 66
        E 0 93 4b 64
        E 0 93 4c 64
        E 0 93 4d 64
        E 0 93 60 64
        E 0 93 61 66
        E 0 93 62 66
        E 0 93 63 64
        E 0 93 64 64
        E 0 93 65 64
        E 120 83 48 00
        E 0 83 49 00
        E 0 83 4a 00
        E 0 83 4b 00
        E 0 83 4c 00
        E 0 83 4d 00
        E 0 83 60 00
        E 0 83 61 00
        E 0 83 62 00
        E 0 83 63 00
        E 0 83 64 00
        E 0 83 65 00
        E 120 90 04 64 -1
        E 0 90 19 66
        E 0 90 31 66
        E 0 90 32 66
        E 0 90 48 64
        E 0 90 49 66
        E 0 90 4a 66
        E 0 90 4b 64
        E 0 90 4c 64
        E 0 90 4d 64
        E 0 90 60 64 -1
        E 0 90 61 66 -1
        E 0 90 62 66 -1
        E 0 90 63 64 -1
        E 0 90 64 64 -1
        E 0 90 65 64 -1
        E 0 9f 51 64
        E 0 9f 69 64
        E 120 80 04 00
        E 0 80 19 00
        E 0 80 31 00
        E 0 80 32 00
        E 240 80 48 00
        E 0 80 49 00
        E 0 80 4a 00
        E 0 80 4b 00
        E 0 80 4c 00
        E 0 80 4d 00
        E 0 80 60 00
        E 0 80 61 00
        E 0 80 62 00
        E 0 80 63 00
        E 0 80 64 00
        E 0 80 65 00
        E 0 8f 51 00
        E 0 8f 69 00
        E 120 90 19 66
        E 0 90 31 66
        E 0 90 32 66
        E 0 90 48 64
        E 0 90 49 66
        E 0 90 4a 66
        E 0 90 4b 64
        E 0 90 4c 64
        E 0 90 4d 64
        E 0 90 60 64
        E 0 90 61 66
        E 0 90 62 66
        E 0 90 63 64
        E 0 90 64 64
        E 0 90 65 64
        E 0 9f 51 64
        E 0 9f 69 64
        E 120 80 19 00
        E 0 80 31 00
        E 0 80 32 00
        E 0 80 48 00
        E 0 80 49 00
        E 0 80 4a 00
        E 0 80 4b 00
        E 0 80 4c 00
        E 0 80 4d 00
        E 0 80 60 00
        E 0 80 61 00
        E 0 80 62 00
        E 0 80 63 00
        E 0 80 64 00
        E 0 80 65 00
        E 0 8f 51 00
        E 0 8f 69 00
        E 120 90 31 66
        E 0 90 32 66
        E 0 90 48 64
        E 0 90 49 66
        E 0 90 4a 66
        E 0 90 4b 64
        E 0 90 4c 64
        E 0 90 4d 64
        E 0 90 60 64
        E 0 90 61 66
        E 0 90 62 66
        E 0 90 63 64
        E 0 90 64 64
        E 0 90 65 64
        E 0 9d 51 64
        E 0 9d 69 64
        E 120 80 31 00
        E 0 80 32 00
        E 0 80 48 00
        E 0 80 49 00
        E 0 80 4a 00
        E 0 80 4b 00
        E 0 80 4c 00
        E 0 80 4d 00
        E 0 80 60 00
        E 0 80 61 00
        E 0 80 62 00
        E 0 80 63 00
        E 0 80 64 00
        E 0 80 65 00
        E 0 8d 51 00
        E 0 8d 69 00
        E 120 90 19 66
        E 0 90 31 66
        E 0 90 32 66
        E 0 90 48 64
        E 0 90 49 66
        E 0 90 4a 66
        E 0 90 4b 64
        E 0 90 4c 64
        E 0 90 4d 64
        E 0 90 60 64
        E 0 90 61 66
        E 0 90 62 66
        E 0 90 63 64
        E 0 90 64 64
        E 0 90 65 64
        E 0 9f 51 64
        E 0 9f 69 64
        E 120 80 19 00
        E 0 80 31 00
        E 0 80 32 00
        E 0 80 48 00
        E 0 80 49 00
        E 0 80 4a 00
        E 0 80 4b 00
        E 0 80 4c 00
        E 0 80 4d 00
        E 0 80 60 00
        E 0 80 61 00
        E 0 80 62 00
        E 0 80 63 00
        E 0 80 64 00
        E 0 80 65 00
        E 0 8f 51 00
        E 0 8f 69 00
        E 120 90 31 66
        E 0 90 32 66
        E 0 90 48 64
        E 0 90 49 66
        E 0 90 4a 66
        E 0 90 4b 64
        E 0 90 4c 64
        E 0 90 4d 64
        E 0 90 60 64
        E 0 90 61 66
        E 0 90 62 66
        E 0 90 63 64
        E 0 90 64 64
        E 0 90 65 64
        E 0 9d 51 64
        E 0 9d 69 64
        E 120 80 31 00
        E 0 80 32 00
        E 0 80 48 00
        E 0 80 49 00
        E 0 80 4a 00
        E 0 80 4b 00
        E 0 80 4c 00
        E 0 80 4d 00
        E 0 80 60 00
        E 0 80 61 00
        E 0 80 62 00
        E 0 80 63 00
        E 0 80 64 00
        E 0 80 65 00
        E 0 8d 51 00
        E 0 8d 69 00
        E 120 90 31 66
        E 0 90 32 66
        E 0 90 48 64
        E 0 90 49 66
        E 0 90 4a 66
        E 0 90 4b 64
        E 0 90 4c 64
        E 0 90 4d 64
        E 0 90 60 64
        E 0 90 61 66
        E 0 90 62 66
        E 0 90 63 64
        E 0 90 64 64
        E 0 90 65 64
        E 0 9f 51 64
        E 0 9f 69 64
        E 120 80 31 00
        E 0 80 32 00
        E 0 80 48 00
        E 0 80 49 00
        E 0 80 4a 00
        E 0 80 4b 00
        E 0 80 4c 00
        E 0 80 4d 00
        E 0 80 60 00
        E 0 80 61 00
        E 0 80 62 00
        E 0 80 63 00
        E 0 80 64 00
        E 0 80 65 00
        E 0 8f 51 00
        E 0 8f 69 00
        E 120 90 6c 65
        E 0 93 49 67
        E 0 93 4a 66
        E 0 93 4b 64
        E 0 93 4c 65
        E 0 93 4d 64
        E 0 93 61 67
        E 0 93 62 66
        E 0 93 63 64
        E 0 93 64 65
        E 0 93 65 64
        E 120 80 6c 00
        E 0 83 49 00
        E 0 83 4a 00
        E 0 83 4b 00
        E 0 83 4c 00
        E 0 83 4d 00
        E 0 83 61 00
        E 0 83 62 00
        E 0 83 63 00
        E 0 83 64 00
        E 0 83 65 00
        E 120 90 0c 64
        E 0 90 31 67
        E 0 90 32 66
        E 0 90 49 67
        E 0 90 4a 66
        E 0 90 4b 64
        E 0 90 4c 65
        E 0 90 4d 64
        E 0 90 61 67
        E 0 90 62 66
        E 0 90 63 64
        E 0 90 64 65
        E 0 90 65 64
        E 0 9f 51 64
        E 0 9f 69 64
        E 120 80 0c 00
        E 0 80 31 00
        E 0 80 32 00
        E 240 80 49 00
        E 0 80 4a 00
        E 0 80 4b 00
        E 0 80 4c 00
        E 0 80 4d 00
        E 0 80 61 00
        E 0 80 62 00
        E 0 80 63 00
        E 0 80 64 00
        E 0 80 65 00
        E 0 8f 51 00
        E 0 8f 69 00
        E 120 90 31 67
        E 0 90 32 66
        E 0 90 49 67
        E 0 90 4a 66
        E 0 90 4b 64
        E 0 90 4c 65
        E 0 90 4d 64
        E 0 90 61 67
        E 0 90 62 66
        E 0 90 63 64
        E 0 90 64 65
        E 0 90 65 64
        E 0 9f 51 64
        E 0 9f 69 64
        E 120 80 31 00
        E 0 80 32 00
        E 0 80 49 00
        E 0 80 4a 00
        E 0 80 4b 00
        E 0 80 4c 00
        E 0 80 4d 00
        E 0 80 61 00
        E 0 80 62 00
        E 0 80 63 00
        E 0 80 64 00
        E 0 80 65 00
        E 0 8f 51 00
        E 0 8f 69 00
        E 120 93 49 67
        E 0 93 4a 66
        E 0 93 4b 64
        E 0 93 4c 65
        E 0 93 4d 64
        E 0 93 61 67
        E 0 93 62 66
        E 0 93 63 64
        E 0 93 64 65
        E 0 93 65 64
        E 120 83 49 00
        E 0 83 4a 00
        E 0 83 4b 00
        E 0 83 4c 00
        E 0 83 4d 00
        E 0 83 61 00
        E 0 83 62 00
        E 0 83 63 00
        E 0 83 64 00
        E 0 83 65 00
        E 120 90 0c 64
        E 0 90 10 64
        E 0 90 31 66
        E 0 90 32 66
        E 0 90 49 66
        E 0 90 4a 66
        E 0 90 4b 64
        E 0 90 4c 65
        E 0 90 4d 64
        E 0 90 61 66
        E 0 90 62 66
        E 0 90 63 64
        E 0 90 64 65
        E 0 90 65 64
        E 0 9f 51 64
        E 0 9f 69 64
        E 120 80 0c 00
        E 0 80 10 00
        E 0 80 31 00
        E 0 80 32 00
        E 240 80 49 00
        E 0 80 4a 00
        E 0 80 4b 00
        E 0 80 4c 00
        E 0 80 4d 00
        E 0 80 61 00
        E 0 80 62 00
        E 0 80 63 00
        E 0 80 64 00
        E 0 80 65 00
        E 0 8f 51 00
        E 0 8f 69 00
        E 120 90 31 66
        E 0 90 32 66
        E 0 90 49 66
        E 0 90 4a 66
        E 0 90 4b 64
        E 0 90 4c 65
        E 0 90 4d 64
        E 0 90 61 66
        E 0 90 62 66
        E 0 90 63 64
        E 0 90 64 65
        E 0 90 65 64
        E 0 9f 51 64
        E 0 9f 69 64
        E 120 80 31 00
        E 0 80 32 00
        E 0 80 49 00
        E 0 80 4a 00
        E 0 80 4b 00
        E 0 80 4c 00
        E 0 80 4d 00
        E 0 80 61 00
        E 0 80 62 00
        E 0 80 63 00
        E 0 80 64 00
        E 0 80 65 00
        E 0 8f 51 00
        E 0 8f 69 00
        E 120 93 49 66
        E 0 93 4a 66
        E 0 93 4b 64
        E 0 93 4c 65
        E 0 93 4d 64
        E 0 93 61 66
        E 0 93 62 66
        E 0 93 63 64
        E 0 93 64 65
        E 0 93 65 64
        E 120 83 49 00
        E 0 83 4a 00
        E 0 83 4b 00
        E 0 83 4c 00
        E 0 83 4d 00
        E 0 83 61 00
        E 0 83 62 00
        E 0 83 63 00
        E 0 83 64 00
        E 0 83 65 00
        E 120 90 09 64
        E 0 90 1a 66
        E 0 90 32 66
        E 0 90 33 66
        E 0 90 49 64
        E 0 90 4a 66
        E 0 90 4b 66
        E 0 90 4c 65
        E 0 90 4d 64
        E 0 90 61 64
        E 0 90 62 66
        E 0 90 63 66
        E 0 90 64 65
        E 0 90 65 64
        E 0 9f 51 64
        E 0 9f 69 64
        E 120 80 09 00
        E 0 80 1a 00
        E 0 80 32 00
        E 0 80 33 00
        E 240 80 49 00
        E 0 80 4a 00
        E 0 80 4b 00
        E 0 80 4c 00
        E 0 80 4d 00
        E 0 80 61 00
        E 0 80 62 00
        E 0 80 63 00
        E 0 80 64 00
        E 0 80 65 00
        E 0 8f 51 00
        E 0 8f 69 00
        E 120 90 1a 66
        E 0 90 32 66
        E 0 90 33 66
        E 0 90 49 64
        E 0 90 4a 66
        E 0 90 4b 66
        E 0 90 4c 65
        E 0 90 4d 64
        E 0 90 61 64
        E 0 90 62 66
        E 0 90 63 66
        E 0 90 64 65
        E 0 90 65 64
        E 0 9f 51 64
        E 0 9f 69 64
        E 120 80 1a 00
        E 0 80 32 00
        E 0 80 33 00
        E 0 80 49 00
        E 0 80 4a 00
        E 0 80 4b 00
        E 0 80 4c 00
        E 0 80 4d 00
        E 0 80 61 00
        E 0 80 62 00
        E 0 80 63 00
        E 0 80 64 00
        E 0 80 65 00
        E 0 8f 51 00
        E 0 8f 69 00
        E 120 90 32 66
        E 0 90 33 66
        E 0 90 49 64
        E 0 90 4a 66
        E 0 90 4b 66
        E 0 90 4c 65
        E 0 90 4d 64
        E 0 90 61 64
        E 0 90 62 66
        E 0 90 63 66
        E 0 90 64 65
        E 0 90 65 64
        E 0 9d 51 64
        E 0 9d 69 64
        E 120 80 32 00
        E 0 80 33 00
        E 0 80 49 00
        E 0 80 4a 00
        E 0 80 4b 00
        E 0 80 4c 00
        E 0 80 4d 00
        E 0 80 61 00
        E 0 80 62 00
        E 0 80 63 00
        E 0 80 64 00
        E 0 80 65 00
        E 0 8d 51 00
        E 0 8d 69 00
        E 120 90 1a 66
        E 0 90 32 66
        E 0 90 33 66
        E 0 90 49 64
        E 0 90 4a 66
        E 0 90 4b 66
        E 0 90 4c 65
        E 0 90 4d 64
        E 0 90 61 64
        E 0 90 62 66
        E 0 90 63 66
        E 0 90 64 65
        E 0 90 65 64
        E 0 9f 51 64
        E 0 9f 69 64
        E 120 80 1a 00
        E 0 80 32 00
        E 0 80 33 00
        E 0 80 49 00
        E 0 80 4a 00
        E 0 80 4b 00
        E 0 80 4c 00
        E 0 80 4d 00
        E 0 80 61 00
        E 0 80 62 00
        E 0 80 63 00
        E 0 80 64 00
        E 0 80 65 00
        E 0 8f 51 00
        E 0 8f 69 00
        E 120 90 49 64
        E 0 90 4a 66
        E 0 90 4b 66
        E 0 90 4c 65
        E 0 90 4d 64
        E 0 90 61 64
        E 0 90 62 66
        E 0 90 63 66
        E 0 90 64 65
        E 0 90 65 64
        E 0 9d 51 64
        E 0 9d 69 64
        E 120 80 49 00
        E 0 80 4a 00
        E 0 80 4b 00
        E 0 80 4c 00
        E 0 80 4d 00
        E 0 80 61 00
        E 0 80 62 00
        E 0 80 63 00
        E 0 80 64 00
        E 0 80 65 00
        E 0 8d 51 00
        E 0 8d 69 00
        E 120 90 1a 66
        E 0 90 32 66
        E 0 90 33 66
        E 0 90 49 64
        E 0 90 4a 66
        E 0 90 4b 66
        E 0 90 4c 65
        E 0 90 4d 64
        E 0 90 61 64
        E 0 90 62 66
        E 0 90 63 66
        E 0 90 64 65
        E 0 90 65 64
        E 0 9f 51 64
        E 0 9f 69 64
        E 120 80 1a 00
        E 0 80 32 00
        E 0 80 33 00
        E 0 80 49 00
        E 0 80 4a 00
        E 0 80 4b 00
        E 0 80 4c 00
        E 0 80 4d 00
        E 0 80 61 00
        E 0 80 62 00
        E 0 80 63 00
        E 0 80 64 00
        E 0 80 65 00
        E 0 8f 51 00
        E 0 8f 69 00
        E 120 90 6c 66
        E 0 93 48 67
        E 0 93 49 66
        E 0 93 4a 64
        E 0 93 4b 64
        E 0 93 4c 64
        E 0 93 4d 67
        E 0 93 60 67
        E 0 93 61 66
        E 0 93 62 64
        E 0 93 63 64
        E 0 93 64 64
        E 0 93 65 67
        E 120 80 6c 00
        E 0 83 48 00
        E 0 83 49 00
        E 0 83 4a 00
        E 0 83 4b 00
        E 0 83 4c 00
        E 0 83 4d 00
        E 0 83 60 00
        E 0 83 61 00
        E 0 83 62 00
        E 0 83 63 00
        E 0 83 64 00
        E 0 83 65 00
        E 120 90 07 64
        E 0 90 18 67
        E 0 90 30 67
        E 0 90 31 66
        E 0 90 48 67
        E 0 90 49 66
        E 0 90 4a 64
        E 0 90 4b 64
        E 0 90 4c 64
        E 0 90 4d 67
        E 0 90 60 67
        E 0 90 61 66
        E 0 90 62 64
        E 0 90 63 64
        E 0 90 64 64
        E 0 90 65 67
        E 0 90 6c 66
        E 0 9f 51 64
        E 0 9f 69 64
        E 120 80 07 00 -1
        E 0 80 18 00
        E 0 80 30 00
        E 0 80 31 00
        E 0 80 6c 00 -1
        E 240 80 48 00
        E 0 80 49 00
        E 0 80 4a 00
        E 0 80 4b 00
        E 0 80 4c 00
        E 0 80 4d 00
        E 0 80 60 00
        E 0 80 61 00
        E 0 80 62 00
        E 0 80 63 00
        E 0 80 64 00
        E 0 80 65 00
        E 0 8f 51 00
        E 0 8f 69 00
        E 120 90 30 67
        E 0 90 31 66
        E 0 90 48 67
        E 0 90 49 66
        E 0 90 4a 64
        E 0 90 4b 64
        E 0 90 4c 64
        E 0 90 4d 67
        E 0 90 60 67
        E 0 90 61 66
        E 0 90 62 64
        E 0 90 63 64
        E 0 90 64 64
        E 0 90 65 67
        E 0 9f 51 64
        E 0 9f 69 64
        E 120 80 30 00
        E 0 80 31 00
        E 0 80 48 00
        E 0 80 49 00
        E 0 80 4a 00
        E 0 80 4b 00
        E 0 80 4c 00
        E 0 80 4d 00
        E 0 80 60 00
        E 0 80 61 00
        E 0 80 62 00
        E 0 80 63 00
        E 0 80 64 00
        E 0 80 65 00
        E 0 8f 51 00
        E 0 8f 69 00
        E 120 93 48 66
        E 0 93 49 66
        E 0 93 4a 64
        E 0 93 4b 64
        E 0 93 4c 64
        E 0 93 4d 67
        E 0 93 60 66
        E 0 93 61 66
        E 0 93 62 64
        E 0 93 63 64
        E 0 93 64 64
        E 0 93 65 67
        E 120 83 48 00
        E 0 83 49 00
        E 0 83 4a 00
        E 0 83 4b 00
        E 0 83 4c 00
        E 0 83 4d 00
        E 0 83 60 00
        E 0 83 61 00
        E 0 83 62 00
        E 0 83 63 00
        E 0 83 64 00
        E 0 83 65 00
        E 120 90 07 64
        E 0 90 10 64
        E 0 90 18 66
        E 0 90 30 66
        E 0 90 31 66
        E 0 90 48 66
        E 0 90 49 66
        E 0 90 4a 64
        E 0 90 4b 64
        E 0 90 4c 64
        E 0 90 4d 67
        E 0 90 60 66
        E 0 90 61 66
        E 0 90 62 64
        E 0 90 63 64
        E 0 90 64 64
        E 0 90 65 67
        E 0 9f 51 64
        E 0 9f 69 64
        E 120 80 07 00
        E 0 80 10 00
        E 0 80 18 00
        E 0 80 30 00
        E 0 80 31 00
        E 240 80 48 00
        E 0 80 49 00
        E 0 80 4a 00
        E 0 80 4b 00
        E 0 80 4c 00
        E 0 80 4d 00
        E 0 80 60 00
        E 0 80 61 00
        E 0 80 62 00
        E 0 80 63 00
        E 0 80 64 00
        E 0 80 65 00
        E 0 8f 51 00
        E 0 8f 69 00
        E 120 90 30 66
        E 0 90 31 66
        E 0 90 48 66
        E 0 90 49 66
        E 0 90 4a 64
        E 0 90 4b 64
        E 0 90 4c 64
        E 0 90 4d 67
        E 0 90 60 66
        E 0 90 61 66
        E 0 90 62 64
        E 0 90 63 64
        E 0 90 64 64
        E 0 90 65 67
        E 0 9f 51 64
        E 0 9f 69 64
        E 120 80 30 00
        E 0 80 31 00
        E 0 80 48 00
        E 0 80 49 00
        E 0 80 4a 00
        E 0 80 4b 00
        E 0 80 4c 00
        E 0 80 4d 00
        E 0 80 60 00
        E 0 80 61 00
        E 0 80 62 00
        E 0 80 63 00
        E 0 80 64 00
        E 0 80 65 00
        E 0 8f 51 00
        E 0 8f 69 00
        E 120 93 48 64
        E 0 93 49 66
        E 0 93 4a 66
        E 0 93 4b 64
        E 0 93 4c 64
        E 0 93 4d 64
        E 0 93 60 64
        E 0 93 61 66
        E 0 93 62 66
        E 0 93 63 64
        E 0 93 64 64
        E 0 93 65 64
        E 120 83 48 00
        E 0 83 49 00
        E 0 83 4a 00
        E 0 83 4b 00
        E 0 83 4c 00
        E 0 83 4d 00
        E 0 83 60 00
        E 0 83 61 00
        E 0 83 62 00
        E 0 83 63 00
        E 0 83 64 00
        E 0 83 65 00
        E 120 90 04 64 -1
        E 0 90 19 66
        E 0 90 31 66
        E 0 90 32 66
        E 0 90 48 64
        E 0 90 49 66
        E 0 90 4a 66
        E 0 90 4b 64
        E 0 90 4c 64
        E 0 90 4d 64
        E 0 90 60 64 -1
        E 0 90 61 66 -1
        E 0 90 62 66 -1
        E 0 90 63 64 -1
        E 0 90 64 64 -1
        E 0 90 65 64 -1
        E 0 9f 51 64
        E 0 9f 69 64
        E 120 80 04 00
        E 0 80 19 00
        E 0 80 31 00
        E 0 80 32 00
        E 240 80 48 00
        E 0 80 49 00
        E 0 80 4a 00
        E 0 80 4b 00
        E 0 80 4c 00
        E 0 80 4d 00
        E 0 80 60 00
        E 0 80 61 00
        E 0 80 62 00
        E 0 80 63 00
        E 0 80 64 00
        E 0 80 65 00
        E 0 8f 51 00
        E 0 8f 69 00
        E 120 90 19 66
        E 0 90 31 66
        E 0 90 32 66
        E 0 90 48 64
        E 0 90 49 66
        E 0 90 4a 66
        E 0 90 4b 64
        E 0 90 4c 64
        E 0 90 4d 64
        E 0 90 60 64
        E 0 90 61 66
        E 0 90 62 66
        E 0 90 63 64
        E 0 90 64 64
        E 0 90 65 64
        E 0 9f 51 64
        E 0 9f 69 64
        E 120 80 19 00
        E 0 80 31 00
        E 0 80 32 00
        E 0 80 48 00
        E 0 80 49 00
        E 0 80 4a 00
        E 0 80 4b 00
        E 0 80 4c 00
        E 0 80 4d 00
        E 0 80 60 00
        E 0 80 61 00
        E 0 80 62 00
        E 0 80 63 00
        E 0 80 64 00
        E 0 80 65 00
        E 0 8f 51 00
        E 0 8f 69 00
        E 120 90 31 66
        E 0 90 32 66
        E 0 90 48 64
        E 0 90 49 66
        E 0 90 4a 66
        E 0 90 4b 64
        E 0 90 4c 64
        E 0 90 4d 64
        E 0 90 60 64
        E 0 90 61 66
        E 0 90 62 66
        E 0 90 63 64
        E 0 90 64 64
        E 0 90 65 64
        E 0 9d 51 64
        E 0 9d 69 64
        E 120 80 31 00
        E 0 80 32 00
        E 0 80 48 00
        E 0 80 49 00
        E 0 80 4a 00
        E 0 80 4b 00
        E 0 80 4c 00
        E 0 80 4d 00
        E 0 80 60 00
        E 0 80 61 00
        E 0 80 62 00
        E 0 80 63 00
        E 0 80 64 00
        E 0 80 65 00
        E 0 8d 51 00
        E 0 8d 69 00
        E 120 90 19 66
        E 0 90 31 66
        E 0 90 32 66
        E 0 90 48 64
        E 0 90 49 66
        E 0 90 4a 66
        E 0 90 4b 64
        E 0 90 4c 64
        E 0 90 4d 64
        E 0 90 60 64
        E 0 90 61 66
        E 0 90 62 66
        E 0 90 63 64
        E 0 90 64 64
        E 0 90 65 64
        E 0 9f 51 64
        E 0 9f 69 64
        E 120 80 19 00
        E 0 80 31 00
        E 0 80 32 00
        E 0 80 48 00
        E 0 80 49 00
        E 0 80 4a 00
        E 0 80 4b 00
        E 0 80 4c 00
        E 0 80 4d 00
        E 0 80 60 00
        E 0 80 61 00
        E 0 80 62 00
        E 0 80 63 00
        E 0 80 64 00
        E 0 80 65 00
        E 0 8f 51 00
        E 0 8f 69 00
        E 120 90 31 66
        E 0 90 32 66
        E 0 90 48 64
        E 0 90 49 66
        E 0 90 4a 66
        E 0 90 4b 64
        E 0 90 4c 64
        E 0 90 4d 64
        E 0 90 60 64
        E 0 90 61 66
        E 0 90 62 66
        E 0 90 63 64
        E 0 90 64 64
        E 0 90 65 64
        E 0 9d 51 64
        E 0 9d 69 64
        E 120 80 31 00
        E 0 80 32 00
        E 0 80 48 00
        E 0 80 49 00
        E 0 80 4a 00
        E 0 80 4b 00
        E 0 80 4c 00
        E 0 80 4d 00
        E 0 80 60 00
        E 0 80 61 00
        E 0 80 62 00
        E 0 80 63 00
        E 0 80 64 00
        E 0 80 65 00
        E 0 8d 51 00
        E 0 8d 69 00
        E 120 90 31 66
        E 0 90 32 66
        E 0 90 48 64
        E 0 90 49 66
        E 0 90 4a 66
        E 0 90 4b 64
        E 0 90 4c 64
        E 0 90 4d 64
        E 0 90 60 64
        E 0 90 61 66
        E 0 90 62 66
        E 0 90 63 64
        E 0 90 64 64
        E 0 90 65 64
        E 0 9f 51 64
        E 0 9f 69 64
        E 120 80 31 00
        E 0 80 32 00
        E 0 80 48 00
        E 0 80 49 00
        E 0 80 4a 00
        E 0 80 4b 00
        E 0 80 4c 00
        E 0 80 4d 00
        E 0 80 60 00
        E 0 80 61 00
        E 0 80 62 00
        E 0 80 63 00
        E 0 80 64 00
        E 0 80 65 00
        E 0 8f 51 00
        E 0 8f 69 00
        E 120 90 6c 65
        E 0 93 49 67
        E 0 93 4a 66
        E 0 93 4b 64
        E 0 93 4c 65
        E 0 93 4d 64
        E 0 93 61 67
        E 0 93 62 66
        E 0 93 63 64
        E 0 93 64 65
        E 0 93 65 64
        E 120 80 6c 00
        E 0 83 49 00
        E 0 83 4a 00
        E 0 83 4b 00
        E 0 83 4c 00
        E 0 83 4d 00
        E 0 83 61 00
        E 0 83 62 00
        E 0 83 63 00
        E 0 83 64 00
        E 0 83 65 00
        E 120 90 0c 64
        E 0 90 31 67
        E 0 90 32 66
        E 0 90 49 67
        E 0 90 4a 66
        E 0 90 4b 64
        E 0 90 4c 65
        E 0 90 4d 64
        E 0 90 61 67
        E 0 90 62 66
        E 0 90 63 64
        E 0 90 64 65
        E 0 90 65 64
        E 0 9f 51 64
        E 0 9f 69 64
        E 120 80 0c 00
        E 0 80 31 00
        E 0 80 32 00
        E 240 80 49 00
        E 0 80 4a 00
        E 0 80 4b 00
        E 0 80 4c 00
        E 0 80 4d 00
        E 0 80 61 00
        E 0 80 62 00
        E 0 80 63 00
        E 0 80 64 00
        E 0 80 65 00
        E 0 8f 51 00
        E 0 8f 69 00
        E 120 90 31 67
        E 0 90 32 66
        E 0 90 49 67
        E 0 90 4a 66
        E 0 90 4b 64
        E 0 90 4c 65
        E 0 90 4d 64
        E 0 90 61 67
        E 0 90 62 66
        E 0 90 63 64
        E 0 90 64 65
        E 0 90 65 64
        E 0 9f 51 64
        E 0 9f 69 64
        E 120 80 31 00
        E 0 80 32 00
        E 0 80 49 00
        E 0 80 4a 00
        E 0 80 4b 00
        E 0 80 4c 00
        E 0 80 4d 00
        E 0 80 61 00
        E 0 80 62 00
        E 0 80 63 00
        E 0 80 64 00
        E 0 80 65 00
        E 0 8f 51 00
        E 0 8f 69 00
        E 120 93 49 67
        E 0 93 4a 66
        E 0 93 4b 64
        E 0 93 4c 65
        E 0 93 4d 64
        E 0 93 61 67
        E 0 93 62 66
        E 0 93 63 64
        E 0 93 64 65
        E 0 93 65 64
        E 120 83 49 00
        E 0 83 4a 00
        E 0 83 4b 00
        E 0 83 4c 00
        E 0 83 4d 00
        E 0 83 61 00
        E 0 83 62 00
        E 0 83 63 00
        E 0 83 64 00
        E 0 83 65 00
        E 120 90 0c 64
        E 0 90 10 64
        E 0 90 31 66
        E 0 90 32 66
        E 0 90 49 66
        E 0 90 4a 66
        E 0 90 4b 64
        E 0 90 4c 65
        E 0 90 4d 64
        E 0 90 61 66
        E 0 90 62 66
        E 0 90 63 64
        E 0 90 64 65
        E 0 90 65 64
        E 0 9f 51 64
        E 0 9f 69 64
        E 120 80 0c 00
        E 0 80 10 00
        E 0 80 31 00
        E 0 80 32 00
        E 240 80 49 00
        E 0 80 4a 00
        E 0 80 4b 00
        E 0 80 4c 00
        E 0 80 4d 00
        E 0 80 61 00
        E 0 80 62 00
        E 0 80 63 00
        E 0 80 64 00
        E 0 80 65 00
        E 0 8f 51 00
        E 0 8f 69 00
        E 120 90 31 66
        E 0 90 32 66
        E 0 90 49 66
        E 0 90 4a 66
        E 0 90 4b 64
        E 0 90 4c 65
        E 0 90 4d 64
        E 0 90 61 66
        E 0 90 62 66
        E 0 90 63 64
        E 0 90 64 65
        E 0 90 65 64
        E 0 9f 51 64
        E 0 9f 69 64
        E 120 80 31 00
        E 0 80 32 00
        E 0 80 49 00
        E 0 80 4a 00
        E 0 80 4b 00
        E 0 80 4c 00
        E 0 80 4d 00
        E 0 80 61 00
        E 0 80 62 00
        E 0 80 63 00
        E 0 80 64 00
        E 0 80 65 00
        E 0 8f 51 00
        E 0 8f 69 00
        E 120 93 49 66
        E 0 93 4a 66
        E 0 93 4b 64
        E 0 93 4c 65
        E 0 93 4d 64
        E 0 93 61 66
        E 0 93 62 66
        E 0 93 63 64
        E 0 93 64 65
        E 0 93 65 64
        E 120 83 49 00
        E 0 83 4a 00
        E 0 83 4b 00
        E 0 83 4c 00
        E 0 83 4d 00
        E 0 83 61 00
        E 0 83 62 00
        E 0 83 63 00
        E 0 83 64 00
        E 0 83 65 00
        E 120 90 09 64
        E 0 90 1a 66
        E 0 90 32 66
        E 0 90 33 66
        E 0 90 49 64
        E 0 90 4a 66
        E 0 90 4b 66
        E 0 90 4c 65
        E 0 90 4d 64
        E 0 90 61 64
        E 0 90 62 66
        E 0 90 63 66
        E 0 90 64 65
        E 0 90 65 64
        E 0 9f 51 64
        E 0 9f 69 64
        E 120 80 09 00
        E 0 80 1a 00
        E 0 80 32 00
        E 0 80 33 00
        E 240 80 49 00
        E 0 80 4a 00
        E 0 80 4b 00
        E 0 80 4c 00
        E 0 80 4d 00
        E 0 80 61 00
        E 0 80 62 00
        E 0 80 63 00
        E 0 80 64 00
        E 0 80 65 00
        E 0 8f 51 00
        E 0 8f 69 00
        E 120 90 1a 66
        E 0 90 32 66
        E 0 90 33 66
        E 0 90 49 64
        E 0 90 4a 66
        E 0 90 4b 66
        E 0 90 4c 65
        E 0 90 4d 64
        E 0 90 61 64
        E 0 90 62 66
        E 0 90 63 66
        E 0 90 64 65
        E 0 90 65 64
        E 0 9f 51 64
        E 0 9f 69 64
        E 120 80 1a 00
        E 0 80 32 00
        E 0 80 33 00
        E 0 80 49 00
        E 0 80 4a 00
        E 0 80 4b 00
        E 0 80 4c 00
        E 0 80 4d 00
        E 0 80 61 00
        E 0 80 62 00
        E 0 80 63 00
        E 0 80 64 00
        E 0 80 65 00
        E 0 8f 51 00
        E 0 8f 69 00
        E 120 90 32 66
        E 0 90 33 66
        E 0 90 49 64
        E 0 90 4a 66
        E 0 90 4b 66
        E 0 90 4c 65
        E 0 90 4d 64
        E 0 90 61 64
        E 0 90 62 66
        E 0 90 63 66
        E 0 90 64 65
        E 0 90 65 64
        E 0 9d 51 64
        E 0 9d 69 64
        E 120 80 32 00
        E 0 80 33 00
        E 0 80 49 00
        E 0 80 4a 00
        E 0 80 4b 00
        E 0 80 4c 00
        E 0 80 4d 00
        E 0 80 61 00
        E 0 80 62 00
        E 0 80 63 00
        E 0 80 64 00
        E 0 80 65 00
        E 0 8d 51 00
        E 0 8d 69 00
        E 120 90 1a 66
        E 0 90 32 66
        E 0 90 33 66
        E 0 90 49 64
        E 0 90 4a 66
        E 0 90 4b 66
        E 0 90 4c 65
        E 0 90 4d 64
        E 0 90 61 64
        E 0 90 62 66
        E 0 90 63 66
        E 0 90 64 65
        E 0 90 65 64
        E 0 9f 51 64
        E 0 9f 69 64
        E 120 80 1a 00
        E 0 80 32 00
        E 0 80 33 00
        E 0 80 49 00
        E 0 80 4a 00
        E 0 80 4b 00
        E 0 80 4c 00
        E 0 80 4d 00
        E 0 80 61 00
        E 0 80 62 00
        E 0 80 63 00
        E 0 80 64 00
        E 0 80 65 00
        E 0 8f 51 00
        E 0 8f 69 00
        E 120 90 32 66
        E 0 90 33 66
        E 0 90 49 64
        E 0 90 4a 66
        E 0 90 4b 66
        E 0 90 4c 65
        E 0 90 4d 64
        E 0 90 61 64
        E 0 90 62 66
        E 0 90 63 66
        E 0 90 64 65
        E 0 90 65 64
        E 0 9d 51 64
        E 0 9d 69 64
        E 120 80 32 00
        E 0 80 33 00
        E 0 80 49 00
        E 0 80 4a 00
        E 0 80 4b 00
        E 0 80 4c 00
        E 0 80 4d 00
        E 0 80 61 00
        E 0 80 62 00
        E 0 80 63 00
        E 0 80 64 00
        E 0 80 65 00
        E 0 8d 51 00
        E 0 8d 69 00
        E 120 90 1a 66
        E 0 90 32 66
        E 0 90 33 66
        E 0 90 49 64
        E 0 90 4a 66
        E 0 90 4b 66
        E 0 90 4c 65
        E 0 90 4d 64
        E 0 90 61 64
        E 0 90 62 66
        E 0 90 63 66
        E 0 90 64 65
        E 0 90 65 64
        E 0 9f 51 64
        E 0 9f 69 64
        E 120 80 1a 00
        E 0 80 32 00
        E 0 80 33 00
        E 0 80 49 00
        E 0 80 4a 00
        E 0 80 4b 00
        E 0 80 4c 00
        E 0 80 4d 00
        E 0 80 61 00
        E 0 80 62 00
        E 0 80 63 00
        E 0 80 64 00
        E 0 80 65 00
        E 0 8f 51 00
        E 0 8f 69 00
        E 120 90 6c 66
        E 0 93 48 67
        E 0 93 49 66
        E 0 93 4a 64
        E 0 93 4b 64
        E 0 93 4c 64
        E 0 93 4d 67
        E 0 93 60 67
        E 0 93 61 66
        E 0 93 62 64
        E 0 93 63 64
        E 0 93 64 64
        E 0 93 65 67
        E 120 80 6c 00
        E 0 83 48 00
        E 0 83 49 00
        E 0 83 4a 00
        E 0 83 4b 00
        E 0 83 4c 00
        E 0 83 4d 00
        E 0 83 60 00
        E 0 83 61 00
        E 0 83 62 00
        E 0 83 63 00
        E 0 83 64 00
        E 0 83 65 00
        E 120 90 07 64
        E 0 90 18 67
        E 0 90 30 67
        E 0 90 31 66
        E 0 90 48 67
        E 0 90 49 66
        E 0 90 4a 64
        E 0 90 4b 64
        E 0 90 4c 64
        E 0 90 4d 67
        E 0 90 60 67
        E 0 90 61 66
        E 0 90 62 64
        E 0 90 63 64
        E 0 90 64 64
        E 0 90 65 67
        E 0 9f 51 64
        E 0 9f 69 64
        E 120 80 07 00
        E 5640 80 18 00 -1
        E 0 80 30 00 -1
        E 0 80 31 00 -1
        E 0 80 48 00 -1
        E 0 80 49 00 -1
        E 0 80 4a 00 -1
        E 0 80 4b 00 -1
        E 0 80 4c 00 -1
        E 0 80 4d 00 -1
        E 0 80 60 00
        E 0 80 61 00
        E 0 80 62 00
        E 0 80 63 00
        E 0 80 64 00
        E 0 80 65 00
        E 0 8f 51 00
        E 0 8f 69 00
        E 3840 b0 7b 00
        GUID {EB0BB48E-438F-4FF5-889E-404346230657}
        IGNTEMPO 0 120.00000000 4 4
        SRCCOLOR 0
        VELLANE 132 123 128
        COLORMAP "C:\Users\Ruggery\AppData\Roaming\Reaper\Data\color_maps\rockband_proguitarbass.png"
        TEXTSTRINGFILE "C:\Program Files (x86)\REAPER\Data\Text_Strings\Text Events List - Pro Trainers.txt"
        CFGEDITVIEW 162006.843582 0.093852 1 12 0 0 0
        CFGEDIT 1 1 0 1 1 0 1 1 15 1 1 0.25000000 -8 -8 1370 736 0 2 0 2 0.00000000 0 1 0 0 0.500000 0 0 1.000000 64
        KEYSNAP 0 7 "102034050607" 0 "Major"
        EVTFILTER 16384 144 -1 -1 -1 14 0 0 0 -1.00000000 -1.00000000
      >
    >
  >
  <TRACK '{448C738E-A1D9-4C81-B7FB-C777B87FB095}'
    NAME "EVENTS"
    PEAKCOL 16576
    BEAT -1
    AUTOMODE 0
    VOLPAN 1.00000000000000 0.00000000000000 -1.00000000000000 -1.00000000000000 1.00000000000000
    MUTESOLO 0 0 0
    IPHASE 0
    ISBUS 0 0
    BUSCOMP 0 0
    SHOWINMIX 1 0.666700 0.500000 1 0.500000 -1 -1 -1
    FREEMODE 0
    SEL 0
    REC 0 0 0 0 0 0 0
    VU 2
    TRACKHEIGHT 0 0
    INQ 0 0 0 0.5000000000 100 0 0 100
    NCHAN 2
    FX 1
    TRACKID {448C738E-A1D9-4C81-B7FB-C777B87FB095}
    PERF 0
    MIDIOUT -1
    MAINSEND 1 0
    <ITEM
      POSITION 0.00000000000000
      SNAPOFFS 0.00000000000000
      LENGTH 236.43059832085538
      LOOP 0
      ALLTAKES 0
      SEL 0
      FADEIN 1 0.000000 0.000000 1 0
      FADEOUT 1 0.000000 0.000000 1 0
      MUTE 0
      IGUID {B7E6129B-BEF8-412F-A10F-BE482F63FAD9}
      IID 18
      NAME "EVENTS"
      VOLPAN 1.000000 0.000000 1.000000 -1.000000
      SOFFS 0.00000000000000 0.00000000000000
      PLAYRATE 1.00000000000000 1 0.00000000000000 -1
      CHANMODE 0
      GUID {C98E6E7E-B442-4334-A5B4-4FF90D2592A2}
      <SOURCE MIDI
        HASDATA 1 480 QN
        POOLEDEVTS {7754DA8D-02E2-46CB-B816-55FB4581A748}
        <X 0 0
          /wNFVkVOVFM=
        >
        <X 3840 0
          /wFbcHJjX2ludHJvXQ==
        >
        <X 0 0
          /wFbY3Jvd2RfbWVsbG93XQ==
        >
        <X 0 0
          /wFbY3Jvd2Rfbm9jbGFwXQ==
        >
        <X 480 0
          /wFbbXVzaWNfc3RhcnRd
        >
        <X 14880 0
          /wFbcHJjX3ZlcnNlXzFhXQ==
        >
        <X 30720 0
          /wFbcHJjX3ZlcnNlXzFiXQ==
        >
        <X 30720 0
          /wFbcHJjX2Nob3J1c18xXQ==
        >
        <X 0 0
          /wFbY3Jvd2RfY2xhcF0=
        >
        <X 0 0
          /wFbY3Jvd2Rfbm9ybWFsXQ==
        >
        <X 19200 0
          /wFbcHJjX2JyaWRnZV0=
        >
        <X 0 0
          /wFbY3Jvd2RfbWVsbG93XQ==
        >
        <X 15360 0
          /wFbcHJjX3ZlcnNlXzJhXQ==
        >
        <X 0 0
          /wFbY3Jvd2Rfbm9jbGFwXQ==
        >
        <X 30720 0
          /wFbcHJjX3ZlcnNlXzJiXQ==
        >
        <X 30720 0
          /wFbcHJjX2Nob3J1c18yXQ==
        >
        <X 0 0
          /wFbY3Jvd2RfY2xhcF0=
        >
        <X 0 0
          /wFbY3Jvd2Rfbm9ybWFsXQ==
        >
        <X 19200 0
          /wFbcHJjX291dHJvX2Fd
        >
        <X 15360 0
          /wFbcHJjX291dHJvX2Jd
        >
        <X 15840 0
          /wFbbXVzaWNfZW5kXQ==
        >
        <X 9115 0
          /wFbZW5kXQ==
        >
        E 5 b0 7b 00
        GUID {7EC1AC92-83FF-49AC-8B3F-ADE80360F138}
        IGNTEMPO 0 120.00000000 4 4
        SRCCOLOR 3
        VELLANE 132 123 128
        COLORMAP "C:\Program Files (x86)\REAPER\Data\color_maps\rockband_guitarbass.png"
        TEXTSTRINGFILE "C:\Program Files (x86)\REAPER\Data\Text_Strings\Text Events List - Events.txt"
        CFGEDITVIEW 221370.751279 0.078910 0 12 0 0 0
        CFGEDIT 1 1 0 1 1 0 1 1 1 1 1 0.25000000 -8 -8 1370 736 0 0 0 2 0.00000000 0 1 0 0 0.500000 0 0 1.000000 64
        KEYSNAP 0 7 "102034050607" 0 "Major"
        EVTFILTER 0 -1 -1 -1 -1 0 1 0 0 -1.00000000 -1.00000000
      >
    >
  >
  <TRACK '{22A9F6FD-17C9-48DA-9500-2F568396F523}'
    NAME "BEAT"
    PEAKCOL 16576
    BEAT -1
    AUTOMODE 0
    VOLPAN 1.00000000000000 0.00000000000000 -1.00000000000000 -1.00000000000000 1.00000000000000
    MUTESOLO 0 0 0
    IPHASE 0
    ISBUS 0 0
    BUSCOMP 0 0
    SHOWINMIX 1 0.666700 0.500000 1 0.500000 -1 -1 -1
    FREEMODE 0
    SEL 0
    REC 0 0 0 0 0 0 0
    VU 2
    TRACKHEIGHT 0 0
    INQ 0 0 0 0.5000000000 100 0 0 100
    NCHAN 2
    FX 1
    TRACKID {22A9F6FD-17C9-48DA-9500-2F568396F523}
    PERF 0
    MIDIOUT -1
    MAINSEND 1 0
    <ITEM
      POSITION 0.00000000000000
      SNAPOFFS 0.00000000000000
      LENGTH 236.43059832085180
      LOOP 0
      ALLTAKES 0
      SEL 0
      FADEIN 1 0.000000 0.000000 1 0
      FADEOUT 1 0.000000 0.000000 1 0
      MUTE 0
      IGUID {FF962E3A-B6B6-412C-9A11-EC634C95C40F}
      IID 19
      NAME "BEAT"
      VOLPAN 1.000000 0.000000 1.000000 -1.000000
      SOFFS 0.00000000000000 0.00000000000000
      PLAYRATE 1.00000000000000 1 0.00000000000000 -1
      CHANMODE 0
      GUID {E39A9756-FA63-4141-B77C-3D18EE92A157}
      <SOURCE MIDI
        HASDATA 1 480 QN
        POOLEDEVTS {C3F6672F-A13E-4481-AE61-FE5D3FEF8F30}
        <X 0 0
          /wNCRUFU
        >
        e 0 96 0c 64
        e 120 86 0c 00
        e 360 96 0d 64
        e 120 86 0d 00
        e 360 96 0d 64
        e 120 86 0d 00
        e 360 96 0d 64
        e 120 86 0d 00
        e 360 96 0c 64
        e 120 86 0c 00
        e 360 96 0d 64
        e 120 86 0d 00
        e 360 96 0d 64
        e 120 86 0d 00
        e 360 96 0d 64
        e 120 86 0d 00
        e 360 96 0c 64
        e 120 86 0c 00
        e 360 96 0d 64
        e 120 86 0d 00
        e 360 96 0d 64
        e 120 86 0d 00
        e 360 96 0d 64
        e 120 86 0d 00
        e 360 96 0c 64
        e 120 86 0c 00
        e 360 96 0d 64
        e 120 86 0d 00
        e 360 96 0d 64
        e 120 86 0d 00
        e 360 96 0d 64
        e 120 86 0d 00
        e 360 96 0c 64
        e 120 86 0c 00
        e 360 96 0d 64
        e 120 86 0d 00
        e 360 96 0d 64
        e 120 86 0d 00
        e 360 96 0d 64
        e 120 86 0d 00
        e 360 96 0c 64
        e 120 86 0c 00
        e 360 96 0d 64
        e 120 86 0d 00
        e 360 96 0d 64
        e 120 86 0d 00
        e 360 96 0d 64
        e 120 86 0d 00
        e 360 96 0c 64
        e 120 86 0c 00
        e 360 96 0d 64
        e 120 86 0d 00
        e 360 96 0d 64
        e 120 86 0d 00
        e 360 96 0d 64
        e 120 86 0d 00
        e 360 96 0c 64
        e 120 86 0c 00
        e 360 96 0d 64
        e 120 86 0d 00
        e 360 96 0d 64
        e 120 86 0d 00
        e 360 96 0d 64
        e 120 86 0d 00
        e 360 96 0c 64
        e 120 86 0c 00
        e 360 96 0d 64
        e 120 86 0d 00
        e 360 96 0d 64
        e 120 86 0d 00
        e 360 96 0d 64
        e 120 86 0d 00
        e 360 96 0c 64
        e 120 86 0c 00
        e 360 96 0d 64
        e 120 86 0d 00
        e 360 96 0d 64
        e 120 86 0d 00
        e 360 96 0d 64
        e 120 86 0d 00
        e 360 96 0c 64
        e 120 86 0c 00
        e 360 96 0d 64
        e 120 86 0d 00
        e 360 96 0d 64
        e 120 86 0d 00
        e 360 96 0d 64
        e 120 86 0d 00
        e 360 96 0c 64
        e 120 86 0c 00
        e 360 96 0d 64
        e 120 86 0d 00
        e 360 96 0d 64
        e 120 86 0d 00
        e 360 96 0d 64
        e 120 86 0d 00
        e 360 96 0c 64
        e 120 86 0c 00
        e 360 96 0d 64
        e 120 86 0d 00
        e 360 96 0d 64
        e 120 86 0d 00
        e 360 96 0d 64
        e 120 86 0d 00
        e 360 96 0c 64
        e 120 86 0c 00
        e 360 96 0d 64
        e 120 86 0d 00
        e 360 96 0d 64
        e 120 86 0d 00
        e 360 96 0d 64
        e 120 86 0d 00
        e 360 96 0c 64
        e 120 86 0c 00
        e 360 96 0d 64
        e 120 86 0d 00
        e 360 96 0d 64
        e 120 86 0d 00
        e 360 96 0d 64
        e 120 86 0d 00
        e 360 96 0c 64
        e 120 86 0c 00
        e 360 96 0d 64
        e 120 86 0d 00
        e 360 96 0d 64
        e 120 86 0d 00
        e 360 96 0d 64
        e 120 86 0d 00
        e 360 96 0c 64
        e 120 86 0c 00
        e 360 96 0d 64
        e 120 86 0d 00
        e 360 96 0d 64
        e 120 86 0d 00
        e 360 96 0d 64
        e 120 86 0d 00
        e 360 96 0c 64
        e 120 86 0c 00
        e 360 96 0d 64
        e 120 86 0d 00
        e 360 96 0d 64
        e 120 86 0d 00
        e 360 96 0d 64
        e 120 86 0d 00
        e 360 96 0c 64
        e 120 86 0c 00
        e 360 96 0d 64
        e 120 86 0d 00
        e 360 96 0d 64
        e 120 86 0d 00
        e 360 96 0d 64
        e 120 86 0d 00
        e 360 96 0c 64
        e 120 86 0c 00
        e 360 96 0d 64
        e 120 86 0d 00
        e 360 96 0d 64
        e 120 86 0d 00
        e 360 96 0d 64
        e 120 86 0d 00
        e 360 96 0c 64
        e 120 86 0c 00
        e 360 96 0d 64
        e 120 86 0d 00
        e 360 96 0d 64
        e 120 86 0d 00
        e 360 96 0d 64
        e 120 86 0d 00
        e 360 96 0c 64
        e 120 86 0c 00
        e 360 96 0d 64
        e 120 86 0d 00
        e 360 96 0d 64
        e 120 86 0d 00
        e 360 96 0d 64
        e 120 86 0d 00
        e 360 96 0c 64
        e 120 86 0c 00
        e 360 96 0d 64
        e 120 86 0d 00
        e 360 96 0d 64
        e 120 86 0d 00
        e 360 96 0d 64
        e 120 86 0d 00
        e 360 96 0c 64
        e 120 86 0c 00
        e 360 96 0d 64
        e 120 86 0d 00
        e 360 96 0d 64
        e 120 86 0d 00
        e 360 96 0d 64
        e 120 86 0d 00
        e 360 96 0c 64
        e 120 86 0c 00
        e 360 96 0d 64
        e 120 86 0d 00
        e 360 96 0d 64
        e 120 86 0d 00
        e 360 96 0d 64
        e 120 86 0d 00
        e 360 96 0c 64
        e 120 86 0c 00
        e 360 96 0d 64
        e 120 86 0d 00
        e 360 96 0d 64
        e 120 86 0d 00
        e 360 96 0d 64
        e 120 86 0d 00
        e 360 96 0c 64
        e 120 86 0c 00
        e 360 96 0d 64
        e 120 86 0d 00
        e 360 96 0d 64
        e 120 86 0d 00
        e 360 96 0d 64
        e 120 86 0d 00
        e 360 96 0c 64
        e 120 86 0c 00
        e 360 96 0d 64
        e 120 86 0d 00
        e 360 96 0d 64
        e 120 86 0d 00
        e 360 96 0d 64
        e 120 86 0d 00
        e 360 96 0c 64
        e 120 86 0c 00
        e 360 96 0d 64
        e 120 86 0d 00
        e 360 96 0d 64
        e 120 86 0d 00
        e 360 96 0d 64
        e 120 86 0d 00
        e 360 96 0c 64
        e 120 86 0c 00
        e 360 96 0d 64
        e 120 86 0d 00
        e 360 96 0d 64
        e 120 86 0d 00
        e 360 96 0d 64
        e 120 86 0d 00
        e 360 96 0c 64
        e 120 86 0c 00
        e 360 96 0d 64
        e 120 86 0d 00
        e 360 96 0d 64
        e 120 86 0d 00
        e 360 96 0d 64
        e 120 86 0d 00
        e 360 96 0c 64
        e 120 86 0c 00
        e 360 96 0d 64
        e 120 86 0d 00
        e 360 96 0d 64
        e 120 86 0d 00
        e 360 96 0d 64
        e 120 86 0d 00
        e 360 96 0c 64
        e 120 86 0c 00
        e 360 96 0d 64
        e 120 86 0d 00
        e 360 96 0d 64
        e 120 86 0d 00
        e 360 96 0d 64
        e 120 86 0d 00
        e 360 96 0c 64
        e 120 86 0c 00
        e 360 96 0d 64
        e 120 86 0d 00
        e 360 96 0d 64
        e 120 86 0d 00
        e 360 96 0d 64
        e 120 86 0d 00
        e 360 96 0c 64
        e 120 86 0c 00
        e 360 96 0d 64
        e 120 86 0d 00
        e 360 96 0d 64
        e 120 86 0d 00
        e 360 96 0d 64
        e 120 86 0d 00
        e 360 96 0c 64
        e 120 86 0c 00
        e 360 96 0d 64
        e 120 86 0d 00
        e 360 96 0d 64
        e 120 86 0d 00
        e 360 96 0d 64
        e 120 86 0d 00
        e 360 96 0c 64
        e 120 86 0c 00
        e 360 96 0d 64
        e 120 86 0d 00
        e 360 96 0d 64
        e 120 86 0d 00
        e 360 96 0d 64
        e 120 86 0d 00
        e 360 96 0c 64
        e 120 86 0c 00
        e 360 96 0d 64
        e 120 86 0d 00
        e 360 96 0d 64
        e 120 86 0d 00
        e 360 96 0d 64
        e 120 86 0d 00
        e 360 96 0c 64
        e 120 86 0c 00
        e 360 96 0d 64
        e 120 86 0d 00
        e 360 96 0d 64
        e 120 86 0d 00
        e 360 96 0d 64
        e 120 86 0d 00
        e 360 96 0c 64
        e 120 86 0c 00
        e 360 96 0d 64
        e 120 86 0d 00
        e 360 96 0d 64
        e 120 86 0d 00
        e 360 96 0d 64
        e 120 86 0d 00
        e 360 96 0c 64
        e 120 86 0c 00
        e 360 96 0d 64
        e 120 86 0d 00
        e 360 96 0d 64
        e 120 86 0d 00
        e 360 96 0d 64
        e 120 86 0d 00
        e 360 96 0c 64
        e 120 86 0c 00
        e 360 96 0d 64
        e 120 86 0d 00
        e 360 96 0d 64
        e 120 86 0d 00
        e 360 96 0d 64
        e 120 86 0d 00
        e 360 96 0c 64
        e 120 86 0c 00
        e 360 96 0d 64
        e 120 86 0d 00
        e 360 96 0d 64
        e 120 86 0d 00
        e 360 96 0d 64
        e 120 86 0d 00
        e 360 96 0c 64
        e 120 86 0c 00
        e 360 96 0d 64
        e 120 86 0d 00
        e 360 96 0d 64
        e 120 86 0d 00
        e 360 96 0d 64
        e 120 86 0d 00
        e 360 96 0c 64
        e 120 86 0c 00
        e 360 96 0d 64
        e 120 86 0d 00
        e 360 96 0d 64
        e 120 86 0d 00
        e 360 96 0d 64
        e 120 86 0d 00
        e 360 96 0c 64
        e 120 86 0c 00
        e 360 96 0d 64
        e 120 86 0d 00
        e 360 96 0d 64
        e 120 86 0d 00
        e 360 96 0d 64
        e 120 86 0d 00
        e 360 96 0c 64
        e 120 86 0c 00
        e 360 96 0d 64
        e 120 86 0d 00
        e 360 96 0d 64
        e 120 86 0d 00
        e 360 96 0d 64
        e 120 86 0d 00
        e 360 96 0c 64
        e 120 86 0c 00
        e 360 96 0d 64
        e 120 86 0d 00
        e 360 96 0d 64
        e 120 86 0d 00
        e 360 96 0d 64
        e 120 86 0d 00
        e 360 96 0c 64
        e 120 86 0c 00
        e 360 96 0d 64
        e 120 86 0d 00
        e 360 96 0d 64
        e 120 86 0d 00
        e 360 96 0d 64
        e 120 86 0d 00
        e 360 96 0c 64
        e 120 86 0c 00
        e 360 96 0d 64
        e 120 86 0d 00
        e 360 96 0d 64
        e 120 86 0d 00
        e 360 96 0d 64
        e 120 86 0d 00
        e 360 96 0c 64
        e 120 86 0c 00
        e 360 96 0d 64
        e 120 86 0d 00
        e 360 96 0d 64
        e 120 86 0d 00
        e 360 96 0d 64
        e 120 86 0d 00
        e 360 96 0c 64
        e 120 86 0c 00
        e 360 96 0d 64
        e 120 86 0d 00
        e 360 96 0d 64
        e 120 86 0d 00
        e 360 96 0d 64
        e 120 86 0d 00
        e 360 96 0c 64
        e 120 86 0c 00
        e 360 96 0d 64
        e 120 86 0d 00
        e 360 96 0d 64
        e 120 86 0d 00
        e 360 96 0d 64
        e 120 86 0d 00
        e 360 96 0c 64
        e 120 86 0c 00
        e 360 96 0d 64
        e 120 86 0d 00
        e 360 96 0d 64
        e 120 86 0d 00
        e 360 96 0d 64
        e 120 86 0d 00
        e 360 96 0c 64
        e 120 86 0c 00
        e 360 96 0d 64
        e 120 86 0d 00
        e 360 96 0d 64
        e 120 86 0d 00
        e 360 96 0d 64
        e 120 86 0d 00
        e 360 96 0c 64
        e 120 86 0c 00
        e 360 96 0d 64
        e 120 86 0d 00
        e 360 96 0d 64
        e 120 86 0d 00
        e 360 96 0d 64
        e 120 86 0d 00
        e 360 96 0c 64
        e 120 86 0c 00
        e 360 96 0d 64
        e 120 86 0d 00
        e 360 96 0d 64
        e 120 86 0d 00
        e 360 96 0d 64
        e 120 86 0d 00
        e 360 96 0c 64
        e 120 86 0c 00
        e 360 96 0d 64
        e 120 86 0d 00
        e 360 96 0d 64
        e 120 86 0d 00
        e 360 96 0d 64
        e 120 86 0d 00
        e 360 96 0c 64
        e 120 86 0c 00
        e 360 96 0d 64
        e 120 86 0d 00
        e 360 96 0d 64
        e 120 86 0d 00
        e 360 96 0d 64
        e 120 86 0d 00
        e 360 96 0c 64
        e 120 86 0c 00
        e 360 96 0d 64
        e 120 86 0d 00
        e 360 96 0d 64
        e 120 86 0d 00
        e 360 96 0d 64
        e 120 86 0d 00
        e 360 96 0c 64
        e 120 86 0c 00
        e 360 96 0d 64
        e 120 86 0d 00
        e 360 96 0d 64
        e 120 86 0d 00
        e 360 96 0d 64
        e 120 86 0d 00
        e 360 96 0c 64
        e 120 86 0c 00
        e 360 96 0d 64
        e 120 86 0d 00
        e 360 96 0d 64
        e 120 86 0d 00
        e 360 96 0d 64
        e 120 86 0d 00
        e 360 96 0c 64
        e 120 86 0c 00
        e 360 96 0d 64
        e 120 86 0d 00
        e 360 96 0d 64
        e 120 86 0d 00
        e 360 96 0d 64
        e 120 86 0d 00
        e 360 96 0c 64
        e 120 86 0c 00
        e 360 96 0d 64
        e 120 86 0d 00
        e 360 96 0d 64
        e 120 86 0d 00
        e 360 96 0d 64
        e 120 86 0d 00
        e 360 96 0c 64
        e 120 86 0c 00
        e 360 96 0d 64
        e 120 86 0d 00
        e 360 96 0d 64
        e 120 86 0d 00
        e 360 96 0d 64
        e 120 86 0d 00
        e 360 96 0c 64
        e 120 86 0c 00
        e 360 96 0d 64
        e 120 86 0d 00
        e 360 96 0d 64
        e 120 86 0d 00
        e 360 96 0d 64
        e 120 86 0d 00
        e 360 96 0c 64
        e 120 86 0c 00
        e 360 96 0d 64
        e 120 86 0d 00
        e 360 96 0d 64
        e 120 86 0d 00
        e 360 96 0d 64
        e 120 86 0d 00
        e 360 96 0c 64
        e 120 86 0c 00
        e 360 96 0d 64
        e 120 86 0d 00
        e 360 96 0d 64
        e 120 86 0d 00
        e 360 96 0d 64
        e 120 86 0d 00
        e 360 96 0c 64
        e 120 86 0c 00
        e 360 96 0d 64
        e 120 86 0d 00
        e 360 96 0d 64
        e 120 86 0d 00
        e 360 96 0d 64
        e 120 86 0d 00
        e 360 96 0c 64
        e 120 86 0c 00
        e 360 96 0d 64
        e 120 86 0d 00
        e 360 96 0d 64
        e 120 86 0d 00
        e 360 96 0d 64
        e 120 86 0d 00
        e 360 96 0c 64
        e 120 86 0c 00
        e 360 96 0d 64
        e 120 86 0d 00
        e 360 96 0d 64
        e 120 86 0d 00
        e 360 96 0d 64
        e 120 86 0d 00
        e 360 96 0c 64
        e 120 86 0c 00
        e 360 96 0d 64
        e 120 86 0d 00
        e 360 96 0d 64
        e 120 86 0d 00
        e 360 96 0d 64
        e 120 86 0d 00
        e 360 96 0c 64
        e 120 86 0c 00
        e 360 96 0d 64
        e 120 86 0d 00
        e 360 96 0d 64
        e 120 86 0d 00
        e 360 96 0d 64
        e 120 86 0d 00
        e 360 96 0c 64
        e 120 86 0c 00
        e 360 96 0d 64
        e 120 86 0d 00
        e 360 96 0d 64
        e 120 86 0d 00
        e 360 96 0d 64
        e 120 86 0d 00
        e 360 96 0c 64
        e 120 86 0c 00
        e 360 96 0d 64
        e 120 86 0d 00
        e 360 96 0d 64
        e 120 86 0d 00
        e 360 96 0d 64
        e 120 86 0d 00
        e 360 96 0c 64
        e 120 86 0c 00
        e 360 96 0d 64
        e 120 86 0d 00
        e 360 96 0d 64
        e 120 86 0d 00
        e 360 96 0d 64
        e 120 86 0d 00
        e 360 96 0c 64
        e 120 86 0c 00
        e 360 96 0d 64
        e 120 86 0d 00
        e 360 96 0d 64
        e 120 86 0d 00
        e 360 96 0d 64
        e 120 86 0d 00
        e 360 96 0c 64
        e 120 86 0c 00
        e 360 96 0d 64
        e 120 86 0d 00
        e 360 96 0d 64
        e 120 86 0d 00
        e 360 96 0d 64
        e 120 86 0d 00
        e 360 96 0c 64
        e 120 86 0c 00
        e 360 96 0d 64
        e 120 86 0d 00
        e 360 96 0d 64
        e 120 86 0d 00
        e 360 96 0d 64
        e 120 86 0d 00
        e 360 96 0c 64
        e 120 86 0c 00
        e 360 96 0d 64
        e 120 86 0d 00
        e 360 96 0d 64
        e 120 86 0d 00
        e 360 96 0d 64
        e 120 86 0d 00
        e 360 96 0c 64
        e 120 86 0c 00
        e 360 96 0d 64
        e 120 86 0d 00
        e 360 96 0d 64
        e 120 86 0d 00
        e 360 96 0d 64
        e 120 86 0d 00
        e 360 96 0c 64
        e 120 86 0c 00
        e 360 96 0d 64
        e 120 86 0d 00
        e 360 96 0d 64
        e 120 86 0d 00
        e 360 96 0d 64
        e 120 86 0d 00
        e 360 96 0c 64
        e 120 86 0c 00
        e 360 96 0d 64
        e 120 86 0d 00
        e 360 96 0d 64
        e 120 86 0d 00
        e 360 96 0d 64
        e 120 86 0d 00
        e 360 96 0c 64
        e 120 86 0c 00
        e 360 96 0d 64
        e 120 86 0d 00
        e 360 96 0d 64
        e 120 86 0d 00
        e 360 96 0d 64
        e 120 86 0d 00
        e 360 96 0c 64
        e 120 86 0c 00
        e 360 96 0d 64
        e 120 86 0d 00
        e 360 96 0d 64
        e 120 86 0d 00
        e 360 96 0d 64
        e 120 86 0d 00
        e 360 96 0c 64
        e 120 86 0c 00
        e 360 96 0d 64
        e 120 86 0d 00
        e 360 96 0d 64
        e 120 86 0d 00
        e 360 96 0d 64
        e 120 86 0d 00
        e 360 96 0c 64
        e 120 86 0c 00
        e 360 96 0d 64
        e 120 86 0d 00
        e 360 96 0d 64
        e 120 86 0d 00
        e 360 96 0d 64
        e 120 86 0d 00
        e 360 96 0c 64
        e 120 86 0c 00
        e 360 96 0d 64
        e 120 86 0d 00
        e 360 96 0d 64
        e 120 86 0d 00
        e 360 96 0d 64
        e 120 86 0d 00
        e 360 96 0c 64
        e 120 86 0c 00
        e 360 96 0d 64
        e 120 86 0d 00
        e 360 96 0d 64
        e 120 86 0d 00
        e 360 96 0d 64
        e 120 86 0d 00
        e 360 96 0c 64
        e 120 86 0c 00
        e 360 96 0d 64
        e 120 86 0d 00
        e 360 96 0d 64
        e 120 86 0d 00
        e 360 96 0d 64
        e 120 86 0d 00
        e 360 96 0c 64
        e 120 86 0c 00
        e 360 96 0d 64
        e 120 86 0d 00
        e 360 96 0d 64
        e 120 86 0d 00
        e 360 96 0d 64
        e 120 86 0d 00
        e 360 96 0c 64
        e 120 86 0c 00
        e 360 96 0d 64
        e 120 86 0d 00
        e 360 96 0d 64
        e 120 86 0d 00
        e 360 96 0d 64
        e 120 86 0d 00
        e 360 96 0c 64
        e 120 86 0c 00
        e 360 96 0d 64
        e 120 86 0d 00
        e 360 96 0d 64
        e 120 86 0d 00
        e 360 96 0d 64
        e 120 86 0d 00
        e 360 96 0c 64
        e 120 86 0c 00
        e 360 96 0d 64
        e 120 86 0d 00
        e 360 96 0d 64
        e 120 86 0d 00
        e 360 96 0d 64
        e 120 86 0d 00
        e 360 96 0c 64
        e 120 86 0c 00
        e 360 96 0d 64
        e 120 86 0d 00
        e 360 96 0d 64
        e 120 86 0d 00
        e 360 96 0d 64
        e 120 86 0d 00
        e 360 96 0c 64
        e 120 86 0c 00
        e 360 96 0d 64
        e 120 86 0d 00
        e 360 96 0d 64
        e 120 86 0d 00
        e 360 96 0d 64
        e 120 86 0d 00
        e 360 96 0c 64
        e 120 86 0c 00
        e 360 96 0d 64
        e 120 86 0d 00
        e 360 96 0d 64
        e 120 86 0d 00
        e 360 96 0d 64
        e 120 86 0d 00
        e 360 96 0c 64
        e 120 86 0c 00
        e 360 96 0d 64
        e 120 86 0d 00
        e 360 96 0d 64
        e 120 86 0d 00
        e 360 96 0d 64
        e 120 86 0d 00
        e 360 96 0c 64
        e 120 86 0c 00
        e 360 96 0d 64
        e 120 86 0d 00
        e 360 96 0d 64
        e 120 86 0d 00
        e 360 96 0d 64
        e 120 86 0d 00
        e 360 96 0c 64
        e 120 86 0c 00
        e 360 96 0d 64
        e 120 86 0d 00
        e 360 96 0d 64
        e 120 86 0d 00
        e 360 96 0d 64
        e 120 86 0d 00
        e 360 96 0c 64
        e 120 86 0c 00
        e 360 96 0d 64
        e 120 86 0d 00
        e 360 96 0d 64
        e 120 86 0d 00
        e 360 96 0d 64
        e 120 86 0d 00
        e 360 96 0c 64
        e 120 86 0c 00
        e 360 96 0d 64
        e 120 86 0d 00
        e 360 96 0d 64
        e 120 86 0d 00
        e 360 96 0d 64
        e 120 86 0d 00
        e 360 96 0c 64
        e 120 86 0c 00
        e 360 96 0d 64
        e 120 86 0d 00
        e 360 96 0d 64
        e 120 86 0d 00
        e 360 96 0d 64
        e 120 86 0d 00
        e 360 96 0c 64
        e 120 86 0c 00
        e 360 96 0d 64
        e 120 86 0d 00
        e 360 96 0d 64
        e 120 86 0d 00
        e 360 96 0d 64
        e 120 86 0d 00
        e 360 96 0c 64
        e 120 86 0c 00
        e 360 96 0d 64
        e 120 86 0d 00
        e 360 96 0d 64
        e 120 86 0d 00
        e 360 96 0d 64
        e 120 86 0d 00
        e 360 96 0c 64
        e 120 86 0c 00
        e 360 96 0d 64
        e 120 86 0d 00
        e 360 96 0d 64
        e 120 86 0d 00
        e 360 96 0d 64
        e 120 86 0d 00
        e 360 96 0c 64
        e 120 86 0c 00
        e 360 96 0d 64
        e 120 86 0d 00
        e 360 96 0d 64
        e 120 86 0d 00
        e 360 96 0d 64
        e 120 86 0d 00
        e 360 96 0c 64
        e 120 86 0c 00
        e 360 96 0d 64
        e 120 86 0d 00
        e 360 96 0d 64
        e 120 86 0d 00
        e 360 96 0d 64
        e 120 86 0d 00
        e 360 96 0c 64
        e 120 86 0c 00
        e 360 96 0d 64
        e 120 86 0d 00
        e 360 96 0d 64
        e 120 86 0d 00
        e 360 96 0d 64
        e 120 86 0d 00
        e 360 96 0c 64
        e 120 86 0c 00
        e 360 96 0d 64
        e 120 86 0d 00
        e 360 96 0d 64
        e 120 86 0d 00
        e 360 96 0d 64
        e 120 86 0d 00
        e 360 96 0c 64
        e 120 86 0c 00
        e 360 96 0d 64
        e 120 86 0d 00
        e 360 96 0d 64
        e 120 86 0d 00
        e 360 96 0d 64
        e 120 86 0d 00
        e 360 96 0c 64
        e 120 86 0c 00
        e 360 96 0d 64
        e 120 86 0d 00
        e 360 96 0d 64
        e 120 86 0d 00
        e 360 96 0d 64
        e 120 86 0d 00
        e 360 96 0c 64
        e 120 86 0c 00
        e 360 96 0d 64
        e 120 86 0d 00
        e 360 96 0d 64
        e 120 86 0d 00
        e 360 96 0d 64
        e 120 86 0d 00
        e 360 96 0c 64
        e 120 86 0c 00
        e 360 96 0d 64
        e 120 86 0d 00
        e 360 96 0d 64
        e 120 86 0d 00
        e 360 96 0d 64
        e 120 86 0d 00
        e 360 96 0c 64
        e 120 86 0c 00
        e 360 96 0d 64
        e 120 86 0d 00
        e 360 96 0d 64
        e 120 86 0d 00
        e 360 96 0d 64
        e 120 86 0d 00
        e 360 96 0c 64
        e 120 86 0c 00
        e 360 96 0d 64
        e 120 86 0d 00
        e 360 96 0d 64
        e 120 86 0d 00
        e 360 96 0d 64
        e 120 86 0d 00
        e 360 96 0c 64
        e 120 86 0c 00
        e 360 96 0d 64
        e 120 86 0d 00
        e 360 96 0d 64
        e 120 86 0d 00
        e 360 96 0d 64
        e 120 86 0d 00
        e 360 96 0c 64
        e 120 86 0c 00
        e 360 96 0d 64
        e 120 86 0d 00
        e 360 96 0d 64
        e 120 86 0d 00
        e 360 96 0d 64
        e 120 86 0d 00
        e 360 96 0c 64
        e 120 86 0c 00
        e 360 96 0d 64
        e 120 86 0d 00
        e 360 96 0d 64
        e 120 86 0d 00
        e 360 96 0d 64
        e 120 86 0d 00
        e 360 96 0c 64
        e 120 86 0c 00
        e 360 96 0d 64
        e 120 86 0d 00
        e 360 96 0d 64
        e 120 86 0d 00
        e 360 96 0d 64
        e 120 86 0d 00
        e 360 96 0c 64
        e 120 86 0c 00
        e 360 96 0d 64
        e 120 86 0d 00
        e 360 96 0d 64
        e 120 86 0d 00
        e 360 96 0d 64
        e 120 86 0d 00
        e 360 96 0c 64
        e 120 86 0c 00
        e 360 96 0d 64
        e 120 86 0d 00
        e 360 96 0d 64
        e 120 86 0d 00
        e 360 96 0d 64
        e 120 86 0d 00
        e 360 96 0c 64
        e 120 86 0c 00
        e 360 96 0d 64
        e 120 86 0d 00
        e 360 96 0d 64
        e 120 86 0d 00
        e 360 96 0d 64
        e 120 86 0d 00
        E 360 b0 7b 00
        GUID {30632B43-0B23-46B5-AA7E-30463D1E3999}
        IGNTEMPO 0 120.00000000 4 4
        SRCCOLOR 4
        VELLANE 132 123 128
        COLORMAP "C:\Program Files (x86)\REAPER\Data\color_maps\rockband_guitarbass.png"
        CFGEDITVIEW 0.000000 0.002896 61 12 0 0 0
        CFGEDIT 1 1 0 1 1 0 1 1 1 1 1 0.25000000 -8 -8 1370 736 0 0 0 2 0.00000000 0 1 0 0 0.500000 0 0 1.000000 64
        KEYSNAP 0 7 "102034050607" 0 "Major"
        EVTFILTER 0 -1 -1 -1 -1 0 1 0 0 -1.00000000 -1.00000000
      >
    >
  >
  <TRACK '{BC9DE223-926E-45E9-82CD-936BC8CCDBDC}'
    NAME "backing"
    PEAKCOL 16576
    BEAT -1
    AUTOMODE 0
    VOLPAN 1.00000000000000 0.00000000000000 -1.00000000000000 -1.00000000000000 1.00000000000000
    MUTESOLO 0 0 0
    IPHASE 0
    ISBUS 0 0
    BUSCOMP 0 0
    SHOWINMIX 1 0.666700 0.500000 1 0.500000 -1 -1 -1
    FREEMODE 0
    SEL 0
    REC 0 0 0 0 0 0 0
    VU 2
    TRACKHEIGHT 0 0
    INQ 0 0 0 0.5000000000 100 0 0 100
    NCHAN 2
    FX 1
    TRACKID {BC9DE223-926E-45E9-82CD-936BC8CCDBDC}
    PERF 0
    MIDIOUT -1
    MAINSEND 1 0
    <ITEM
      POSITION 0.00000000000000
      SNAPOFFS 0.00000000000000
      LENGTH 236.43058956916099
      LOOP 0
      ALLTAKES 0
      SEL 0
      FADEIN 1 0.000000 0.000000 1 0
      FADEOUT 1 0.000000 0.000000 1 0
      MUTE 0
      IGUID {2D3905A8-1E28-41B7-BBB9-B4A1764AD5AD}
      IID 58
      NAME "backing.wav"
      VOLPAN 1.000000 0.000000 1.000000 -1.000000
      SOFFS 0.00000000000000
      PLAYRATE 1.00000000000000 1 0.00000000000000 -1
      CHANMODE 0
      GUID {49195AC2-5E88-4230-932E-908F0D422263}
      <SOURCE WAVE
        FILE "wav\backing.wav"
      >
    >
  >
  <EXTENSIONS
  >
>
