<REAPER_PROJECT 0.1 "4.22/x64"
  RIPPLE 0
  GROUPOVERRIDE 0 0 0
  AUTOXFADE 1
  ENVATTACH 1
  MIXERUIFLAGS 11 48
  PEAKGAIN 1.00000000000000
  FEEDBACK 0
  PANLAW 1.00000000000000
  PROJOFFS 0.00000000000000 0
  MAXPROJLEN 0 600.00000000000000
  GRID 3199 8 1.00000000000000 8 1.00000000000000 0
  TIMEMODE 1 0 -1
  PANMODE 3
  CURSOR 0.00000000000000
  ZOOM 7.79861111111111 0 0
  VZOOMEX 6
  USE_REC_CFG 0
  RECMODE 1
  SMPTESYNC 0 23.976024 100 40 1000 300 0 0.000000 1
  LOOP 1
  LOOPGRAN 0 4.00000000000000
  RECORD_PATH "" ""
  <RECORD_CFG
    ZXZhdxAD
  >
  <APPLYFX_CFG
  >
  RENDER_FILE ""
  RENDER_PATTERN ""
  RENDER_FMT 0 2 0
  RENDER_1X 0
  RENDER_RANGE 1 0.00000000000000 0.00000000000000
  RENDER_RESAMPLE 3 0 1
  RENDER_ADDTOPROJ 0
  RENDER_STEMS 0
  RENDER_DITHER 0
  TIMELOCKMODE 0
  ITEMMIX 0
  DEFPITCHMODE 393216
  TAKELANE 1
  SAMPLERATE 44100 0 0
  <RENDER_CFG
  >
  LOCK 1
  <METRONOME 6 2.000000
    VOL 0.250000 0.125000
    FREQ 800 1600 1
    BEATLEN 4
    SAMPLES "" ""
  >
  GLOBAL_AUTO -1
  TEMPO 120.00000000000000 4 4
  PLAYRATE 1.00000000000000 0 0.25000 4.00000
  SELECTION 144.00000000000000 0.00000000000000
  SELECTION2 144.00000000000000 0.00000000000000
  MASTERAUTOMODE 0
  MASTERTRACKHEIGHT 0
  MASTERPEAKCOL 16576
  MASTERMUTESOLO 0
  MASTERTRACKVIEW 0 0.666700 0.500000 0.500000 -1 -1 -1
  MASTERHWOUT 0 0 1.00000000000000 0.00000000000000 0 0 0 -1.00000000000000
  MASTER_NCH 2 2
  MASTER_VOLUME 0.40342496148317 0.00000000000000 -1.00000000000000 -1.00000000000000 1.00000000000000
  MASTER_PANMODE -1
  MASTER_FX 1
  MASTER_SEL 0
  <MASTERPLAYSPEEDENV
    ACT 0
    VIS 0 1 1.000000
    LANEHEIGHT 0 0
    ARM 0
    DEFSHAPE 0 -1 -1
  >
  <TEMPOENVEX
    ACT 1
    VIS 1 0 1.000000
    LANEHEIGHT 0 0
    ARM 0
    DEFSHAPE 1 -1 -1
    PT 0.000000000000 120.0000000000 1
    PT 26.000000000000 120.0000000000 1 262150
    PT 29.000000000000 120.0000000000 1 262148
    PT 35.000000000000 120.0000000000 1 262150
    PT 38.000000000000 120.0000000000 1 262148
    PT 74.000000000000 120.0000000000 1 262150
    PT 77.000000000000 120.0000000000 1 262148
    PT 83.000000000000 120.0000000000 1 262150
    PT 86.000000000000 120.0000000000 1 262148
  >
  <PROJBAY
  >
  <TRACK '{063EF78D-DA24-4355-84ED-8B26AC7B9FD6}'
    NAME "PART DRUMS"
    PEAKCOL 16576
    BEAT -1
    AUTOMODE 0
    VOLPAN 1.00000000000000 0.00000000000000 -1.00000000000000 -1.00000000000000 1.00000000000000
    MUTESOLO 0 0 0
    IPHASE 0
    ISBUS 0 0
    BUSCOMP 0 0
    SHOWINMIX 1 0.666700 0.500000 1 0.500000 -1 -1 -1
    FREEMODE 0
    SEL 0
    REC 0 0 0 0 0 0 0
    VU 2
    TRACKHEIGHT 0 0
    INQ 0 0 0 0.5000000000 100 0 0 100
    NCHAN 2
    FX 1
    TRACKID {063EF78D-DA24-4355-84ED-8B26AC7B9FD6}
    PERF 0
    MIDIOUT -1
    <MIDINOTENAMES
      0 127 "CYMBAL SWELLS"
      0 126 "DRUM ROLL"
      0 125 "---"
      0 124 "DRUM FILL"
      0 123 "DRUM FILL"
      0 122 "DRUM FILL"
      0 121 "DRUM FILL"
      0 120 "DRUM FILL (use all 5)"
      0 118 "----"
      0 116 "OVERDRIVE"
      0 114 "----"
      0 112 "TOM GEMS PAD 4"
      0 111 "TOM GEMS PAD 3"
      0 110 "TOM GEMS PAD 2"
      0 103 "Solo Marker"
      0 102 "----"
      0 100 "EXPERT Green"
      0 99 "EXPERT Blue"
      0 98 "EXPERT Yellow"
      0 97 "EXPERT Red"
      0 96 "EXPERT Kick"
      0 92 "----"
      0 88 "HARD Green"
      0 87 "HARD Blue"
      0 86 "HARD Yellow"
      0 85 "HARD Red"
      0 84 "HARD Kick"
      0 80 "----"
      0 76 "MEDIUM Green"
      0 75 "MEDIUM Blue"
      0 74 "MEDIUM Yellow"
      0 73 "MEDIUM Red"
      0 72 "MEDIUM Kick"
      0 68 "----"
      0 64 "EASY Green"
      0 63 "EASY Blue"
      0 62 "EASY Yellow"
      0 61 "EASY Red"
      0 60 "EASY Kick"
      0 56 "----"
      0 52 "-- DRUM ANIMATION --"
      0 51 "FLOOR TOM RH"
      0 50 "FLOOR TOM LH"
      0 49 "TOM2 RH"
      0 48 "TOM2 LH"
      0 47 "TOM1 RH"
      0 46 "TOM1 LH"
      0 45 "SOFT CRASH 2 LH"
      0 44 "CRASH 2 LH"
      0 43 "RIDE LH"
      0 42 "RIDE CYM RH"
      0 41 "CRASH2 CHOKE"
      0 40 "CRASH1 CHOKE"
      0 39 "CRASH2 SOFT RH"
      0 38 "CRASH2 HARD RH"
      0 37 "CRASH1 SOFT RH"
      0 36 "CRASH1 HARD RH"
      0 35 "CRASH1 SOFT LH"
      0 34 "CRASH1 HARD LH"
      0 32 "PERCUSSION RH"
      0 31 "HI-HAT RH"
      0 30 "HI-HAT LH"
      0 29 "SOFT SNARE RH"
      0 28 "SOFT SNARE LH"
      0 27 "SNARE RH"
      0 26 "SNARE LH"
      0 25 "HI-HAT OPEN"
      0 24 "KICK RF"
    >
    MAINSEND 1 0
    <FXCHAIN
      WNDRECT 0 43 891 559
      SHOW 0
      LASTSEL 0
      DOCKED 0
      BYPASS 0 0
      <VST "VSTi: RBN Preview (RBN)" "rbprev_vst64.dll" 0 ""
        dnBicu5e7f4AAAAAAgAAAAEAAAAAAAAAAgAAAAAAAAAEAAAAAQAAAA==
        AAAQAAMBqgAAABAAAAA=
      >
      FLOATPOS 0 0 0 0
      FXID {3D1337B5-3B51-453B-BFE3-F92786D79D05}
      WAK 0
    >
    <ITEM
      POSITION 0.00000000000000
      SNAPOFFS 0.00000000000000
      LENGTH 144.00000000000000
      LOOP 0
      ALLTAKES 0
      SEL 0
      FADEIN 1 0.000000 0.000000 1 0
      FADEOUT 1 0.000000 0.000000 1 0
      MUTE 0
      IGUID {7F3B6A24-7E99-4ED0-8A5E-DF1262BBF1B1}
      IID 1
      NAME "PART DRUMS"
      VOLPAN 1.000000 0.000000 1.000000 -1.000000
      SOFFS 0.00000000000000 0.00000000000000
      PLAYRATE 1.00000000000000 1 0.00000000000000 -1
      CHANMODE 0
      GUID {BB888764-7DD5-4914-AC76-56C4947DAA86}
      <SOURCE MIDI
        HASDATA 1 480 QN
        POOLEDEVTS {05AC81A0-2A57-43BB-90C2-C5BCEF67B41F}
        <X 0 0
          /wNQQVJUIERSVU1T
        >
        E 0 90 19 60
        <X 240 0
          /wFbbWl4IDEgZHJ1bXMwXQ==
        >
        <X 0 0
          /wFbbWl4IDAgZHJ1bXMwXQ==
        >
        <X 120 0
          /wFbbWl4IDIgZHJ1bXMwXQ==
        >
        <X 120 0
          /wFbbWl4IDMgZHJ1bXMwXQ==
        >
        E 1920 80 19 00
        E 480 90 19 60
        <X 960 0
          /wFbaWRsZV0=
        >
        E 1440 80 19 00
        <X 480 0
          /wFbcGxheV0=
        >
        E 0 90 18 60
        E 0 90 3c 60
        E 0 90 48 60
        E 0 90 54 60
        E 0 90 60 60
        E 120 80 18 00
        E 0 80 3c 00
        E 0 80 48 00
        E 0 80 54 00
        E 0 80 60 00
        E 120 90 1f 60
        E 0 90 56 60
        E 0 90 62 60
        E 120 80 1f 00
        E 0 80 56 00
        E 0 80 62 00
        E 120 90 1a 60
        E 0 90 3d 60
        E 0 90 49 60
        E 0 90 55 60
        E 0 90 61 60
        E 120 80 1a 00
        E 0 80 3d 00
        E 0 80 49 00
        E 0 80 55 00
        E 0 80 61 00
        E 120 90 1f 60
        E 0 90 56 60
        E 0 90 62 60
        E 120 80 1f 00
        E 0 80 56 00
        E 0 80 62 00
        E 120 90 18 60
        E 0 90 3c 60
        E 0 90 48 60
        E 0 90 54 60
        E 0 90 60 60
        E 120 80 18 00
        E 0 80 3c 00
        E 0 80 48 00
        E 0 80 54 00
        E 0 80 60 00
        E 120 90 1f 60
        E 0 90 56 60
        E 0 90 62 60
        E 120 80 1f 00
        E 0 80 56 00
        E 0 80 62 00
        E 120 90 1a 60
        E 0 90 3d 60
        E 0 90 49 60
        E 0 90 55 60
        E 0 90 61 60
        E 120 80 1a 00
        E 0 80 3d 00
        E 0 80 49 00
        E 0 80 55 00
        E 0 80 61 00
        E 120 90 1f 60
        E 0 90 56 60
        E 0 90 62 60
        E 120 80 1f 00
        E 0 80 56 00
        E 0 80 62 00
        E 120 90 18 60
        E 0 90 3c 60
        E 0 90 48 60
        E 0 90 54 60
        E 0 90 60 60
        E 120 80 18 00
        E 0 80 3c 00
        E 0 80 48 00
        E 0 80 54 00
        E 0 80 60 00
        E 120 90 1f 60
        E 0 90 56 60
        E 0 90 62 60
        E 120 80 1f 00
        E 0 80 56 00
        E 0 80 62 00
        E 120 90 1a 60
        E 0 90 3d 60
        E 0 90 49 60
        E 0 90 55 60
        E 0 90 61 60
        E 120 80 1a 00
        E 0 80 3d 00
        E 0 80 49 00
        E 0 80 55 00
        E 0 80 61 00
        E 120 90 1f 60
        E 0 90 56 60
        E 0 90 62 60
        E 120 80 1f 00
        E 0 80 56 00
        E 0 80 62 00
        E 120 90 18 60
        E 0 90 3c 60
        E 0 90 48 60
        E 0 90 54 60
        E 0 90 60 60
        E 120 80 18 00
        E 0 80 3c 00
        E 0 80 48 00
        E 0 80 54 00
        E 0 80 60 00
        E 120 90 1f 60
        E 0 90 56 60
        E 0 90 62 60
        E 120 80 1f 00
        E 0 80 56 00
        E 0 80 62 00
        E 120 90 1a 60
        E 0 90 3d 60
        E 0 90 49 60
        E 0 90 55 60
        E 0 90 61 60
        E 120 80 1a 00
        E 0 80 3d 00
        E 0 80 49 00
        E 0 80 55 00
        E 0 80 61 00
        E 120 90 1f 60
        E 0 90 56 60
        E 0 90 62 60
        E 120 80 1f 00
        E 0 80 56 00
        E 0 80 62 00
        E 120 90 18 60
        E 0 90 3c 60
        E 0 90 48 60
        E 0 90 54 60
        E 0 90 60 60
        E 120 80 18 00
        E 0 80 3c 00
        E 0 80 48 00
        E 0 80 54 00
        E 0 80 60 00
        E 120 90 1f 60
        E 0 90 56 60
        E 0 90 62 60
        E 120 80 1f 00
        E 0 80 56 00
        E 0 80 62 00
        E 120 90 1a 60
        E 0 90 3d 60
        E 0 90 49 60
        E 0 90 55 60
        E 0 90 61 60
        E 120 80 1a 00
        E 0 80 3d 00
        E 0 80 49 00
        E 0 80 55 00
        E 0 80 61 00
        E 120 90 1f 60
        E 0 90 56 60
        E 0 90 62 60
        E 120 80 1f 00
        E 0 80 56 00
        E 0 80 62 00
        E 120 90 18 60
        E 0 90 3c 60
        E 0 90 48 60
        E 0 90 54 60
        E 0 90 60 60
        E 120 80 18 00
        E 0 80 3c 00
        E 0 80 48 00
        E 0 80 54 00
        E 0 80 60 00
        E 120 90 1f 60
        E 0 90 56 60
        E 0 90 62 60
        E 120 80 1f 00
        E 0 80 56 00
        E 0 80 62 00
        E 120 90 1a 60
        E 0 90 3d 60
        E 0 90 49 60
        E 0 90 55 60
        E 0 90 61 60
        E 120 80 1a 00
        E 0 80 3d 00
        E 0 80 49 00
        E 0 80 55 00
        E 0 80 61 00
        E 120 90 1f 60
        E 0 90 56 60
        E 0 90 62 60
        E 120 80 1f 00
        E 0 80 56 00
        E 0 80 62 00
        E 120 90 18 60
        E 0 90 3c 60
        E 0 90 48 60
        E 0 90 54 60
        E 0 90 60 60
        E 120 80 18 00
        E 0 80 3c 00
        E 0 80 48 00
        E 0 80 54 00
        E 0 80 60 00
        E 120 90 1f 60
        E 0 90 56 60
        E 0 90 62 60
        E 120 80 1f 00
        E 0 80 56 00
        E 0 80 62 00
        E 120 90 1a 60
        E 0 90 3d 60
        E 0 90 49 60
        E 0 90 55 60
        E 0 90 61 60
        E 120 80 1a 00
        E 0 80 3d 00
        E 0 80 49 00
        E 0 80 55 00
        E 0 80 61 00
        E 120 90 1f 60
        E 0 90 56 60
        E 0 90 62 60
        E 120 80 1f 00
        E 0 80 56 00
        E 0 80 62 00
        E 120 90 18 60
        E 0 90 3c 60
        E 0 90 48 60
        E 0 90 54 60
        E 0 90 60 60
        E 120 80 18 00
        E 0 80 3c 00
        E 0 80 48 00
        E 0 80 54 00
        E 0 80 60 00
        E 120 90 1f 60
        E 0 90 56 60
        E 0 90 62 60
        E 120 80 1f 00
        E 0 80 56 00
        E 0 80 62 00
        E 120 90 1a 60
        E 0 90 3d 60
        E 0 90 49 60
        E 0 90 55 60
        E 0 90 61 60
        E 120 80 1a 00
        E 0 80 3d 00
        E 0 80 49 00
        E 0 80 55 00
        E 0 80 61 00
        E 120 90 1f 60
        E 0 90 56 60
        E 0 90 62 60
        E 120 80 1f 00
        E 0 80 56 00
        E 0 80 62 00
        E 120 90 18 60
        E 0 90 3c 60
        E 0 90 48 60
        E 0 90 54 60
        E 0 90 60 60
        E 120 80 18 00
        E 0 80 3c 00
        E 0 80 48 00
        E 0 80 54 00
        E 0 80 60 00
        E 120 90 1f 60
        E 0 90 56 60
        E 0 90 62 60
        E 120 80 1f 00
        E 0 80 56 00
        E 0 80 62 00
        E 120 90 1a 60
        E 0 90 3d 60
        E 0 90 49 60
        E 0 90 55 60
        E 0 90 61 60
        E 120 80 1a 00
        E 0 80 3d 00
        E 0 80 49 00
        E 0 80 55 00
        E 0 80 61 00
        E 120 90 1f 60
        E 0 90 56 60
        E 0 90 62 60
        E 120 80 1f 00
        E 0 80 56 00
        E 0 80 62 00
        E 120 90 18 60
        E 0 90 3c 60
        E 0 90 48 60
        E 0 90 54 60
        E 0 90 60 60
        E 120 80 18 00
        E 0 80 3c 00
        E 0 80 48 00
        E 0 80 54 00
        E 0 80 60 00
        E 120 90 1f 60
        E 0 90 56 60
        E 0 90 62 60
        E 120 80 1f 00
        E 0 80 56 00
        E 0 80 62 00
        E 120 90 1a 60
        E 0 90 3d 60
        E 0 90 49 60
        E 0 90 55 60
        E 0 90 61 60
        E 120 80 1a 00
        E 0 80 3d 00
        E 0 80 49 00
        E 0 80 55 00
        E 0 80 61 00
        E 120 90 1f 60
        E 0 90 56 60
        E 0 90 62 60
        E 120 80 1f 00
        E 0 80 56 00
        E 0 80 62 00
        E 120 90 18 60
        E 0 90 3c 60
        E 0 90 48 60
        E 0 90 54 60
        E 0 90 60 60
        E 0 90 78 60
        E 0 90 79 60
        E 0 90 7a 60
        E 0 90 7b 60
        E 0 90 7c 60
        E 120 80 18 00
        E 0 80 3c 00
        E 0 80 48 00
        E 0 80 54 00
        E 0 80 60 00
        E 120 90 1f 60
        E 0 90 56 60
        E 0 90 62 60
        E 120 80 1f 00
        E 0 80 56 00
        E 0 80 62 00
        E 120 90 1a 60
        E 0 90 3d 60
        E 0 90 49 60
        E 0 90 55 60
        E 0 90 61 60
        E 120 80 1a 00
        E 0 80 3d 00
        E 0 80 49 00
        E 0 80 55 00
        E 0 80 61 00
        E 120 90 1f 60
        E 0 90 56 60
        E 0 90 62 60
        E 120 80 1f 00
        E 0 80 56 00
        E 0 80 62 00
        E 120 90 18 60
        E 0 90 3c 60
        E 0 90 48 60
        E 0 90 54 60
        E 0 90 60 60
        E 120 80 18 00
        E 0 80 3c 00
        E 0 80 48 00
        E 0 80 54 00
        E 0 80 60 00
        E 120 90 1f 60
        E 0 90 56 60
        E 0 90 62 60
        E 120 80 1f 00
        E 0 80 56 00
        E 0 80 62 00
        E 120 90 1a 60
        E 0 90 3d 60
        E 0 90 49 60
        E 0 90 55 60
        E 0 90 61 60
        E 120 80 1a 00
        E 0 80 3d 00
        E 0 80 49 00
        E 0 80 55 00
        E 0 80 61 00
        E 120 90 1f 60
        E 0 90 56 60
        E 0 90 62 60
        E 120 80 1f 00
        E 0 80 56 00
        E 0 80 62 00
        E 120 80 78 00
        E 0 80 79 00
        E 0 80 7a 00
        E 0 80 7b 00
        E 0 80 7c 00
        E 0 90 18 60
        E 0 90 33 60
        E 0 90 40 60
        E 0 90 4c 60
        E 0 90 54 60
        E 0 90 58 60
        E 0 90 60 60
        E 0 90 64 60
        E 0 90 70 60
        E 0 90 74 60
        E 120 80 18 00
        E 0 80 33 00
        E 0 80 40 00
        E 0 80 4c 00
        E 0 80 54 00
        E 0 80 58 00
        E 0 80 60 00
        E 0 80 64 00
        E 120 90 1f 60
        E 0 90 56 60
        E 0 90 62 60
        E 120 80 1f 00
        E 0 80 56 00
        E 0 80 62 00
        E 120 90 1a 60
        E 0 90 33 60
        E 0 90 3d 60
        E 0 90 40 60
        E 0 90 49 60
        E 0 90 4c 60
        E 0 90 55 60
        E 0 90 58 60
        E 0 90 61 60
        E 0 90 64 60
        E 120 80 1a 00
        E 0 80 33 00
        E 0 80 3d 00
        E 0 80 40 00
        E 0 80 49 00
        E 0 80 4c 00
        E 0 80 55 00
        E 0 80 58 00
        E 0 80 61 00
        E 0 80 64 00
        E 120 90 1f 60
        E 0 90 56 60
        E 0 90 62 60
        E 120 80 1f 00
        E 0 80 56 00
        E 0 80 62 00
        E 120 90 18 60
        E 0 90 33 60
        E 0 90 40 60
        E 0 90 48 60
        E 0 90 4c 60
        E 0 90 54 60
        E 0 90 58 60
        E 0 90 60 60
        E 0 90 64 60
        E 120 80 18 00
        E 0 80 33 00
        E 0 80 40 00
        E 0 80 48 00
        E 0 80 4c 00
        E 0 80 54 00
        E 0 80 58 00
        E 0 80 60 00
        E 0 80 64 00
        E 120 90 1f 60
        E 0 90 56 60
        E 0 90 62 60
        E 120 80 1f 00
        E 0 80 56 00
        E 0 80 62 00
        E 120 90 1a 60
        E 0 90 33 60
        E 0 90 3d 60
        E 0 90 40 60
        E 0 90 49 60
        E 0 90 4c 60
        E 0 90 55 60
        E 0 90 58 60
        E 0 90 61 60
        E 0 90 64 60
        E 120 80 1a 00
        E 0 80 33 00
        E 0 80 3d 00
        E 0 80 40 00
        E 0 80 49 00
        E 0 80 4c 00
        E 0 80 55 00
        E 0 80 58 00
        E 0 80 61 00
        E 0 80 64 00
        E 120 90 1f 60
        E 0 90 56 60
        E 0 90 62 60
        E 120 80 1f 00
        E 0 80 56 00
        E 0 80 62 00
        E 120 90 18 60
        E 0 90 33 60
        E 0 90 40 60
        E 0 90 48 60
        E 0 90 4c 60
        E 0 90 54 60
        E 0 90 58 60
        E 0 90 60 60
        E 0 90 64 60
        E 120 80 18 00
        E 0 80 33 00
        E 0 80 40 00
        E 0 80 48 00
        E 0 80 4c 00
        E 0 80 54 00
        E 0 80 58 00
        E 0 80 60 00
        E 0 80 64 00
        E 120 90 1f 60
        E 0 90 56 60
        E 0 90 62 60
        E 120 80 1f 00
        E 0 80 56 00
        E 0 80 62 00
        E 120 90 1a 60
        E 0 90 33 60
        E 0 90 3d 60
        E 0 90 40 60
        E 0 90 49 60
        E 0 90 4c 60
        E 0 90 55 60
        E 0 90 58 60
        E 0 90 61 60
        E 0 90 64 60
        E 120 80 1a 00
        E 0 80 33 00
        E 0 80 3d 00
        E 0 80 40 00
        E 0 80 49 00
        E 0 80 4c 00
        E 0 80 55 00
        E 0 80 58 00
        E 0 80 61 00
        E 0 80 64 00
        E 120 90 1f 60
        E 0 90 56 60
        E 0 90 62 60
        E 120 80 1f 00
        E 0 80 56 00
        E 0 80 62 00
        E 120 90 18 60
        E 0 90 33 60
        E 0 90 40 60
        E 0 90 48 60
        E 0 90 4c 60
        E 0 90 54 60
        E 0 90 58 60
        E 0 90 60 60
        E 0 90 64 60
        E 120 80 18 00
        E 0 80 33 00
        E 0 80 40 00
        E 0 80 48 00
        E 0 80 4c 00
        E 0 80 54 00
        E 0 80 58 00
        E 0 80 60 00
        E 0 80 64 00
        E 120 90 1f 60
        E 0 90 56 60
        E 0 90 62 60
        E 120 80 1f 00
        E 0 80 56 00
        E 0 80 62 00
        E 120 90 1a 60
        E 0 90 33 60
        E 0 90 3d 60
        E 0 90 40 60
        E 0 90 49 60
        E 0 90 4c 60
        E 0 90 55 60
        E 0 90 58 60
        E 0 90 61 60
        E 0 90 64 60
        E 120 80 1a 00
        E 0 80 33 00
        E 0 80 3d 00
        E 0 80 40 00
        E 0 80 49 00
        E 0 80 4c 00
        E 0 80 55 00
        E 0 80 58 00
        E 0 80 61 00
        E 0 80 64 00
        E 120 90 1f 60
        E 0 90 56 60
        E 0 90 62 60
        E 120 80 1f 00
        E 0 80 56 00
        E 0 80 62 00
        E 120 90 18 60
        E 0 90 33 60
        E 0 90 40 60
        E 0 90 48 60
        E 0 90 4c 60
        E 0 90 54 60
        E 0 90 58 60
        E 0 90 60 60
        E 0 90 64 60
        E 120 80 74 00
        E 0 80 18 00
        E 0 80 33 00
        E 0 80 40 00
        E 0 80 48 00
        E 0 80 4c 00
        E 0 80 54 00
        E 0 80 58 00
        E 0 80 60 00
        E 0 80 64 00
        E 120 90 1f 60
        E 0 90 56 60
        E 0 90 62 60
        E 120 80 1f 00
        E 0 80 56 00
        E 0 80 62 00
        E 120 90 1a 60
        E 0 90 33 60
        E 0 90 3d 60
        E 0 90 40 60
        E 0 90 49 60
        E 0 90 4c 60
        E 0 90 55 60
        E 0 90 58 60
        E 0 90 61 60
        E 0 90 64 60
        E 120 80 1a 00
        E 0 80 33 00
        E 0 80 3d 00
        E 0 80 40 00
        E 0 80 49 00
        E 0 80 4c 00
        E 0 80 55 00
        E 0 80 58 00
        E 0 80 61 00
        E 0 80 64 00
        E 120 90 1f 60
        E 0 90 56 60
        E 0 90 62 60
        E 120 80 1f 00
        E 0 80 56 00
        E 0 80 62 00
        E 120 90 18 60
        E 0 90 33 60
        E 0 90 40 60
        E 0 90 48 60
        E 0 90 4c 60
        E 0 90 54 60
        E 0 90 58 60
        E 0 90 60 60
        E 0 90 64 60
        E 120 80 18 00
        E 0 80 33 00
        E 0 80 40 00
        E 0 80 48 00
        E 0 80 4c 00
        E 0 80 54 00
        E 0 80 58 00
        E 0 80 60 00
        E 0 80 64 00
        E 120 90 1f 60
        E 0 90 56 60
        E 0 90 62 60
        E 120 80 1f 00
        E 0 80 56 00
        E 0 80 62 00
        E 120 90 1a 60
        E 0 90 33 60
        E 0 90 3d 60
        E 0 90 40 60
        E 0 90 49 60
        E 0 90 4c 60
        E 0 90 55 60
        E 0 90 58 60
        E 0 90 61 60
        E 0 90 64 60
        E 120 80 1a 00
        E 0 80 33 00
        E 0 80 3d 00
        E 0 80 40 00
        E 0 80 49 00
        E 0 80 4c 00
        E 0 80 55 00
        E 0 80 58 00
        E 0 80 61 00
        E 0 80 64 00
        E 120 90 1f 60
        E 0 90 56 60
        E 0 90 62 60
        E 120 80 1f 00
        E 0 80 56 00
        E 0 80 62 00
        E 120 90 18 60
        E 0 90 33 60
        E 0 90 40 60
        E 0 90 48 60
        E 0 90 4c 60
        E 0 90 54 60
        E 0 90 58 60
        E 0 90 60 60
        E 0 90 64 60
        E 0 90 78 60
        E 0 90 79 60
        E 0 90 7a 60
        E 0 90 7b 60
        E 0 90 7c 60
        E 120 80 18 00
        E 0 80 33 00
        E 0 80 40 00
        E 0 80 48 00
        E 0 80 4c 00
        E 0 80 54 00
        E 0 80 58 00
        E 0 80 60 00
        E 0 80 64 00
        E 120 90 1f 60
        E 0 90 56 60
        E 0 90 62 60
        E 120 80 1f 00
        E 0 80 56 00
        E 0 80 62 00
        E 120 90 1a 60
        E 0 90 33 60
        E 0 90 3d 60
        E 0 90 40 60
        E 0 90 49 60
        E 0 90 4c 60
        E 0 90 55 60
        E 0 90 58 60
        E 0 90 61 60
        E 0 90 64 60
        E 120 80 1a 00
        E 0 80 33 00
        E 0 80 3d 00
        E 0 80 40 00
        E 0 80 49 00
        E 0 80 4c 00
        E 0 80 55 00
        E 0 80 58 00
        E 0 80 61 00
        E 0 80 64 00
        E 120 90 1f 60
        E 0 90 56 60
        E 0 90 62 60
        E 120 80 1f 00
        E 0 80 56 00
        E 0 80 62 00
        E 120 90 18 60
        E 0 90 33 60
        E 0 90 40 60
        E 0 90 48 60
        E 0 90 4c 60
        E 0 90 54 60
        E 0 90 58 60
        E 0 90 60 60
        E 0 90 64 60
        E 120 80 18 00
        E 0 80 33 00
        E 0 80 40 00
        E 0 80 48 00
        E 0 80 4c 00
        E 0 80 54 00
        E 0 80 58 00
        E 0 80 60 00
        E 0 80 64 00
        E 120 90 1f 60
        E 0 90 56 60
        E 0 90 62 60
        E 120 80 1f 00
        E 0 80 56 00
        E 0 80 62 00
        E 120 90 1a 60
        E 0 90 33 60
        E 0 90 3d 60
        E 0 90 40 60
        E 0 90 49 60
        E 0 90 4c 60
        E 0 90 55 60
        E 0 90 58 60
        E 0 90 61 60
        E 0 90 64 60
        E 120 80 1a 00
        E 0 80 33 00
        E 0 80 3d 00
        E 0 80 40 00
        E 0 80 49 00
        E 0 80 4c 00
        E 0 80 55 00
        E 0 80 58 00
        E 0 80 61 00
        E 0 80 64 00
        E 120 90 1f 60
        E 0 90 56 60
        E 0 90 62 60
        E 120 80 1f 00
        E 0 80 56 00
        E 0 80 62 00
        E 120 80 78 00
        E 0 80 79 00
        E 0 80 7a 00
        E 0 80 7b 00
        E 0 80 7c 00
        E 0 90 18 60
        E 0 90 33 60
        E 0 90 40 60
        E 0 90 48 60
        E 0 90 4c 60
        E 0 90 54 60
        E 0 90 58 60
        E 0 90 60 60
        E 0 90 64 60
        E 120 80 70 00
        E 0 80 18 00
        E 0 80 33 00
        E 0 80 40 00
        E 0 80 48 00
        E 0 80 4c 00
        E 0 80 54 00
        E 0 80 58 00
        E 0 80 60 00
        E 0 80 64 00
        E 120 90 1f 60
        E 0 90 56 60
        E 0 90 62 60
        E 120 80 1f 00
        E 0 80 56 00
        E 0 80 62 00
        E 120 90 1a 60
        E 0 90 3d 60
        E 0 90 49 60
        E 0 90 55 60
        E 0 90 61 60
        E 120 80 1a 00
        E 0 80 3d 00
        E 0 80 49 00
        E 0 80 55 00
        E 0 80 61 00
        E 120 90 1f 60
        E 0 90 56 60
        E 0 90 62 60
        E 120 80 1f 00
        E 0 80 56 00
        E 0 80 62 00
        E 120 90 18 60
        E 0 90 3c 60
        E 0 90 48 60
        E 0 90 54 60
        E 0 90 60 60
        E 120 80 18 00
        E 0 80 3c 00
        E 0 80 48 00
        E 0 80 54 00
        E 0 80 60 00
        E 120 90 1f 60
        E 0 90 56 60
        E 0 90 62 60
        E 120 80 1f 00
        E 0 80 56 00
        E 0 80 62 00
        E 120 90 1a 60
        E 0 90 3d 60
        E 0 90 49 60
        E 0 90 55 60
        E 0 90 61 60
        E 120 80 1a 00
        E 0 80 3d 00
        E 0 80 49 00
        E 0 80 55 00
        E 0 80 61 00
        E 120 90 1f 60
        E 0 90 56 60
        E 0 90 62 60
        E 120 80 1f 00
        E 0 80 56 00
        E 0 80 62 00
        E 120 90 18 60
        E 0 90 3c 60
        E 0 90 48 60
        E 0 90 54 60
        E 0 90 60 60
        E 120 80 18 00
        E 0 80 3c 00
        E 0 80 48 00
        E 0 80 54 00
        E 0 80 60 00
        E 120 90 1f 60
        E 0 90 56 60
        E 0 90 62 60
        E 120 80 1f 00
        E 0 80 56 00
        E 0 80 62 00
        E 120 90 1a 60
        E 0 90 3d 60
        E 0 90 49 60
        E 0 90 55 60
        E 0 90 61 60
        E 120 80 1a 00
        E 0 80 3d 00
        E 0 80 49 00
        E 0 80 55 00
        E 0 80 61 00
        E 120 90 1f 60
        E 0 90 56 60
        E 0 90 62 60
        E 120 80 1f 00
        E 0 80 56 00
        E 0 80 62 00
        E 120 90 18 60
        E 0 90 3c 60
        E 0 90 48 60
        E 0 90 54 60
        E 0 90 60 60
        E 120 80 18 00
        E 0 80 3c 00
        E 0 80 48 00
        E 0 80 54 00
        E 0 80 60 00
        E 120 90 1f 60
        E 0 90 56 60
        E 0 90 62 60
        E 120 80 1f 00
        E 0 80 56 00
        E 0 80 62 00
        E 120 90 1a 60
        E 0 90 3d 60
        E 0 90 49 60
        E 0 90 55 60
        E 0 90 61 60
        E 120 80 1a 00
        E 0 80 3d 00
        E 0 80 49 00
        E 0 80 55 00
        E 0 80 61 00
        E 120 90 1f 60
        E 0 90 56 60
        E 0 90 62 60
        E 120 80 1f 00
        E 0 80 56 00
        E 0 80 62 00
        E 120 90 18 60
        E 0 90 3c 60
        E 0 90 48 60
        E 0 90 54 60
        E 0 90 60 60
        E 120 80 18 00
        E 0 80 3c 00
        E 0 80 48 00
        E 0 80 54 00
        E 0 80 60 00
        E 120 90 1a 60
        E 0 90 1f 60
        E 0 90 55 60
        E 0 90 56 60
        E 0 90 61 60
        E 0 90 62 60
        E 120 80 1a 00
        E 0 80 1f 00
        E 0 80 55 00
        E 0 80 56 00
        E 0 80 61 00
        E 0 80 62 00
        E 120 90 1a 60
        E 0 90 3d 60
        E 0 90 49 60
        E 0 90 55 60
        E 0 90 61 60
        E 120 80 1a 00
        E 0 80 3d 00
        E 0 80 49 00
        E 0 80 55 00
        E 0 80 61 00
        E 120 90 1f 60
        E 0 90 56 60
        E 0 90 62 60
        E 120 80 1f 00
        E 0 80 56 00
        E 0 80 62 00
        E 120 90 18 60
        E 0 90 3c 60
        E 0 90 48 60
        E 0 90 54 60
        E 0 90 60 60
        E 120 80 18 00
        E 0 80 3c 00
        E 0 80 48 00
        E 0 80 54 00
        E 0 80 60 00
        E 120 90 1f 60
        E 0 90 56 60
        E 0 90 62 60
        E 120 80 1f 00
        E 0 80 56 00
        E 0 80 62 00
        E 120 90 1a 60
        E 0 90 3d 60
        E 0 90 49 60
        E 0 90 55 60
        E 0 90 61 60
        E 120 80 1a 00
        E 0 80 3d 00
        E 0 80 49 00
        E 0 80 55 00
        E 0 80 61 00
        E 120 90 1f 60
        E 0 90 56 60
        E 0 90 62 60
        E 120 80 1f 00
        E 0 80 56 00
        E 0 80 62 00
        E 120 90 18 60
        E 0 90 3c 60
        E 0 90 48 60
        E 0 90 54 60
        E 0 90 60 60
        E 120 80 18 00
        E 0 80 3c 00
        E 0 80 48 00
        E 0 80 54 00
        E 0 80 60 00
        E 120 90 1f 60
        E 0 90 56 60
        E 0 90 62 60
        E 120 80 1f 00
        E 0 80 56 00
        E 0 80 62 00
        E 120 90 1a 60
        E 0 90 3d 60
        E 0 90 49 60
        E 0 90 55 60
        E 0 90 61 60
        E 120 80 1a 00
        E 0 80 3d 00
        E 0 80 49 00
        E 0 80 55 00
        E 0 80 61 00
        E 120 90 1f 60
        E 0 90 56 60
        E 0 90 62 60
        E 120 80 1f 00
        E 0 80 56 00
        E 0 80 62 00
        E 120 90 18 60
        E 0 90 3c 60
        E 0 90 48 60
        E 0 90 54 60
        E 0 90 60 60
        E 120 80 18 00
        E 0 80 3c 00
        E 0 80 48 00
        E 0 80 54 00
        E 0 80 60 00
        E 120 90 1f 60
        E 0 90 56 60
        E 0 90 62 60
        E 120 80 1f 00
        E 0 80 56 00
        E 0 80 62 00
        E 120 90 1a 60
        E 0 90 3d 60
        E 0 90 49 60
        E 0 90 55 60
        E 0 90 61 60
        E 120 80 1a 00
        E 0 80 3d 00
        E 0 80 49 00
        E 0 80 55 00
        E 0 80 61 00
        E 120 90 1f 60
        E 0 90 56 60
        E 0 90 62 60
        E 120 80 1f 00
        E 0 80 56 00
        E 0 80 62 00
        E 120 90 18 60
        E 0 90 3c 60
        E 0 90 48 60
        E 0 90 54 60
        E 0 90 60 60
        E 120 80 18 00
        E 0 80 3c 00
        E 0 80 48 00
        E 0 80 54 00
        E 0 80 60 00
        E 120 90 1a 60
        E 0 90 1f 60
        E 0 90 55 60
        E 0 90 56 60
        E 0 90 61 60
        E 0 90 62 60
        E 120 80 1a 00
        E 0 80 1f 00
        E 0 80 55 00
        E 0 80 56 00
        E 0 80 61 00
        E 0 80 62 00
        E 120 90 1a 60
        E 0 90 3d 60
        E 0 90 49 60
        E 0 90 55 60
        E 0 90 61 60
        E 120 80 1a 00
        E 0 80 3d 00
        E 0 80 49 00
        E 0 80 55 00
        E 0 80 61 00
        E 120 90 1f 60
        E 0 90 56 60
        E 0 90 62 60
        E 120 80 1f 00
        E 0 80 56 00
        E 0 80 62 00
        E 120 90 18 60
        E 0 90 3c 60
        E 0 90 48 60
        E 0 90 54 60
        E 0 90 60 60
        E 120 80 18 00
        E 0 80 3c 00
        E 0 80 48 00
        E 0 80 54 00
        E 0 80 60 00
        E 120 90 1f 60
        E 0 90 56 60
        E 0 90 62 60
        E 120 80 1f 00
        E 0 80 56 00
        E 0 80 62 00
        E 120 90 1a 60
        E 0 90 3d 60
        E 0 90 49 60
        E 0 90 55 60
        E 0 90 61 60
        E 120 80 1a 00
        E 0 80 3d 00
        E 0 80 49 00
        E 0 80 55 00
        E 0 80 61 00
        E 120 90 1f 60
        E 0 90 56 60
        E 0 90 62 60
        E 120 80 1f 00
        E 0 80 56 00
        E 0 80 62 00
        E 120 90 18 60
        E 0 90 3c 60
        E 0 90 48 60
        E 0 90 54 60
        E 0 90 60 60
        E 120 80 18 00
        E 0 80 3c 00
        E 0 80 48 00
        E 0 80 54 00
        E 0 80 60 00
        E 120 90 1f 60
        E 0 90 56 60
        E 0 90 62 60
        E 120 80 1f 00
        E 0 80 56 00
        E 0 80 62 00
        E 120 90 1a 60
        E 0 90 3d 60
        E 0 90 49 60
        E 0 90 55 60
        E 0 90 61 60
        E 120 80 1a 00
        E 0 80 3d 00
        E 0 80 49 00
        E 0 80 55 00
        E 0 80 61 00
        E 120 90 1f 60
        E 0 90 56 60
        E 0 90 62 60
        E 120 80 1f 00
        E 0 80 56 00
        E 0 80 62 00
        E 120 90 18 60
        E 0 90 3c 60
        E 0 90 48 60
        E 0 90 54 60
        E 0 90 60 60
        E 0 90 78 60
        E 0 90 79 60
        E 0 90 7a 60
        E 0 90 7b 60
        E 0 90 7c 60
        E 120 80 18 00
        E 0 80 3c 00
        E 0 80 48 00
        E 0 80 54 00
        E 0 80 60 00
        E 120 90 1f 60
        E 0 90 56 60
        E 0 90 62 60
        E 120 80 1f 00
        E 0 80 56 00
        E 0 80 62 00
        E 120 90 18 60
        E 0 90 3c 60
        E 0 90 48 60
        E 0 90 54 60
        E 0 90 60 60
        E 120 80 18 00
        E 0 80 3c 00
        E 0 80 48 00
        E 0 80 54 00
        E 0 80 60 00
        E 120 90 1f 60
        E 0 90 56 60
        E 0 90 62 60
        E 120 80 1f 00
        E 0 80 56 00
        E 0 80 62 00
        E 120 80 78 00
        E 0 80 79 00
        E 0 80 7a 00
        E 0 80 7b 00
        E 0 80 7c 00
        E 0 90 18 60
        E 0 90 3c 60
        E 0 90 48 60
        E 0 90 54 60
        E 0 90 60 60
        E 0 90 74 60
        E 120 80 18 00
        E 0 80 3c 00
        E 0 80 48 00
        E 0 80 54 00
        E 0 80 60 00
        E 120 90 1f 60
        E 0 90 56 60
        E 0 90 62 60
        E 120 80 1f 00
        E 0 80 56 00
        E 0 80 62 00
        E 120 90 1a 60
        E 0 90 3d 60
        E 0 90 49 60
        E 0 90 55 60
        E 0 90 61 60
        E 120 80 1a 00
        E 0 80 3d 00
        E 0 80 49 00
        E 0 80 55 00
        E 0 80 61 00
        E 120 90 1f 60
        E 0 90 56 60
        E 0 90 62 60
        E 120 80 1f 00
        E 0 80 56 00
        E 0 80 62 00
        E 120 90 18 60
        E 0 90 3c 60
        E 0 90 48 60
        E 0 90 54 60
        E 0 90 60 60
        E 120 80 18 00
        E 0 80 3c 00
        E 0 80 48 00
        E 0 80 54 00
        E 0 80 60 00
        E 120 90 1f 60
        E 0 90 56 60
        E 0 90 62 60
        E 120 80 1f 00
        E 0 80 56 00
        E 0 80 62 00
        E 120 90 1a 60
        E 0 90 3d 60
        E 0 90 49 60
        E 0 90 55 60
        E 0 90 61 60
        E 120 80 1a 00
        E 0 80 3d 00
        E 0 80 49 00
        E 0 80 55 00
        E 0 80 61 00
        E 120 90 1f 60
        E 0 90 56 60
        E 0 90 62 60
        E 120 80 1f 00
        E 0 80 56 00
        E 0 80 62 00
        E 120 90 18 60
        E 0 90 3c 60
        E 0 90 48 60
        E 0 90 54 60
        E 0 90 60 60
        E 120 80 18 00
        E 0 80 3c 00
        E 0 80 48 00
        E 0 80 54 00
        E 0 80 60 00
        E 120 90 1f 60
        E 0 90 56 60
        E 0 90 62 60
        E 120 80 1f 00
        E 0 80 56 00
        E 0 80 62 00
        E 120 90 1a 60
        E 0 90 3d 60
        E 0 90 49 60
        E 0 90 55 60
        E 0 90 61 60
        E 120 80 1a 00
        E 0 80 3d 00
        E 0 80 49 00
        E 0 80 55 00
        E 0 80 61 00
        E 120 90 1f 60
        E 0 90 56 60
        E 0 90 62 60
        E 120 80 1f 00
        E 0 80 56 00
        E 0 80 62 00
        E 120 90 18 60
        E 0 90 3c 60
        E 0 90 48 60
        E 0 90 54 60
        E 0 90 60 60
        E 120 80 18 00
        E 0 80 3c 00
        E 0 80 48 00
        E 0 80 54 00
        E 0 80 60 00
        E 120 90 1a 60
        E 0 90 1f 60
        E 0 90 55 60
        E 0 90 56 60
        E 0 90 61 60
        E 0 90 62 60
        E 120 80 1a 00
        E 0 80 1f 00
        E 0 80 55 00
        E 0 80 56 00
        E 0 80 61 00
        E 0 80 62 00
        E 120 90 1a 60
        E 0 90 3d 60
        E 0 90 49 60
        E 0 90 55 60
        E 0 90 61 60
        E 120 80 1a 00
        E 0 80 3d 00
        E 0 80 49 00
        E 0 80 55 00
        E 0 80 61 00
        E 120 90 1f 60
        E 0 90 56 60
        E 0 90 62 60
        E 120 80 1f 00
        E 0 80 56 00
        E 0 80 62 00
        E 0 90 1f 60
        E 0 90 62 60
        E 120 80 74 00
        E 0 80 1f 00
        E 0 80 62 00
        E 0 90 18 60
        E 0 90 3c 60
        E 0 90 48 60
        E 0 90 54 60
        E 0 90 60 60
        E 120 80 18 00
        E 0 80 3c 00
        E 0 80 48 00
        E 0 80 54 00
        E 0 80 60 00
        E 120 90 1f 60
        E 0 90 56 60
        E 0 90 62 60
        E 120 80 1f 00
        E 0 80 56 00
        E 0 80 62 00
        E 0 90 1f 60
        E 0 90 62 60
        E 120 80 1f 00
        E 0 80 62 00
        E 0 90 1a 60
        E 0 90 3d 60
        E 0 90 49 60
        E 0 90 55 60
        E 0 90 61 60
        E 120 80 1a 00
        E 0 80 3d 00
        E 0 80 49 00
        E 0 80 55 00
        E 0 80 61 00
        E 120 90 1f 60
        E 0 90 56 60
        E 0 90 62 60
        E 120 80 1f 00
        E 0 80 56 00
        E 0 80 62 00
        E 120 90 18 60
        E 0 90 3c 60
        E 0 90 48 60
        E 0 90 54 60
        E 0 90 60 60
        E 120 80 18 00
        E 0 80 3c 00
        E 0 80 48 00
        E 0 80 54 00
        E 0 80 60 00
        E 120 90 1f 60
        E 0 90 56 60
        E 0 90 62 60
        E 120 80 1f 00
        E 0 80 56 00
        E 0 80 62 00
        E 120 90 1a 60
        E 0 90 3d 60
        E 0 90 49 60
        E 0 90 55 60
        E 0 90 61 60
        E 120 80 1a 00
        E 0 80 3d 00
        E 0 80 49 00
        E 0 80 55 00
        E 0 80 61 00
        E 120 90 1f 60
        E 0 90 56 60
        E 0 90 62 60
        E 120 80 1f 00
        E 0 80 56 00
        E 0 80 62 00
        E 120 90 18 60
        E 0 90 3c 60
        E 0 90 48 60
        E 0 90 54 60
        E 0 90 60 60
        E 120 80 18 00
        E 0 80 3c 00
        E 0 80 48 00
        E 0 80 54 00
        E 0 80 60 00
        E 120 90 1f 60
        E 0 90 56 60
        E 0 90 62 60
        E 120 80 1f 00
        E 0 80 56 00
        E 0 80 62 00
        E 120 90 1a 60
        E 0 90 3d 60
        E 0 90 49 60
        E 0 90 55 60
        E 0 90 61 60
        E 120 80 1a 00
        E 0 80 3d 00
        E 0 80 49 00
        E 0 80 55 00
        E 0 80 61 00
        E 120 90 1f 60
        E 0 90 56 60
        E 0 90 62 60
        E 120 80 1f 00
        E 0 80 56 00
        E 0 80 62 00
        E 120 90 18 60
        E 0 90 3c 60
        E 0 90 48 60
        E 0 90 54 60
        E 0 90 60 60
        E 120 80 18 00
        E 0 80 3c 00
        E 0 80 48 00
        E 0 80 54 00
        E 0 80 60 00
        E 120 90 1a 60
        E 0 90 1f 60
        E 0 90 55 60
        E 0 90 56 60
        E 0 90 61 60
        E 0 90 62 60
        E 120 80 1a 00
        E 0 80 1f 00
        E 0 80 55 00
        E 0 80 56 00
        E 0 80 61 00
        E 0 80 62 00
        E 120 90 1a 60
        E 0 90 3d 60
        E 0 90 49 60
        E 0 90 55 60
        E 0 90 61 60
        E 120 80 1a 00
        E 0 80 3d 00
        E 0 80 49 00
        E 0 80 55 00
        E 0 80 61 00
        E 120 90 1f 60
        E 0 90 56 60
        E 0 90 62 60
        E 120 80 1f 00
        E 0 80 56 00
        E 0 80 62 00
        E 0 90 1f 60
        E 0 90 62 60
        E 120 80 1f 00
        E 0 80 62 00
        E 0 90 18 60
        E 0 90 3c 60
        E 0 90 48 60
        E 0 90 54 60
        E 0 90 60 60
        E 120 80 18 00
        E 0 80 3c 00
        E 0 80 48 00
        E 0 80 54 00
        E 0 80 60 00
        E 0 90 1f 60
        E 0 90 62 60
        E 120 80 1f 00
        E 0 80 62 00
        E 0 90 1f 60
        E 0 90 56 60
        E 0 90 62 60
        E 120 80 1f 00
        E 0 80 56 00
        E 0 80 62 00
        E 120 90 1a 60
        E 0 90 3d 60
        E 0 90 49 60
        E 0 90 55 60
        E 0 90 61 60
        E 120 80 1a 00
        E 0 80 3d 00
        E 0 80 49 00
        E 0 80 55 00
        E 0 80 61 00
        E 120 90 1f 60
        E 0 90 56 60
        E 0 90 62 60
        E 120 80 1f 00
        E 0 80 56 00
        E 0 80 62 00
        E 120 90 18 60
        E 0 90 3c 60
        E 0 90 48 60
        E 0 90 54 60
        E 0 90 60 60
        E 120 80 18 00
        E 0 80 3c 00
        E 0 80 48 00
        E 0 80 54 00
        E 0 80 60 00
        E 120 90 1f 60
        E 0 90 56 60
        E 0 90 62 60
        E 120 80 1f 00
        E 0 80 56 00
        E 0 80 62 00
        E 120 90 1a 60
        E 0 90 3d 60
        E 0 90 49 60
        E 0 90 55 60
        E 0 90 61 60
        E 120 80 1a 00
        E 0 80 3d 00
        E 0 80 49 00
        E 0 80 55 00
        E 0 80 61 00
        E 120 90 1f 60
        E 0 90 56 60
        E 0 90 62 60
        E 120 80 1f 00
        E 0 80 56 00
        E 0 80 62 00
        E 120 90 18 60
        E 0 90 3c 60
        E 0 90 48 60
        E 0 90 54 60
        E 0 90 60 60
        E 0 90 78 60
        E 0 90 79 60
        E 0 90 7a 60
        E 0 90 7b 60
        E 0 90 7c 60
        E 120 80 18 00
        E 0 80 3c 00
        E 0 80 48 00
        E 0 80 54 00
        E 0 80 60 00
        E 120 90 1f 60
        E 0 90 56 60
        E 0 90 62 60
        E 120 80 1f 00
        E 0 80 56 00
        E 0 80 62 00
        E 120 90 1a 60
        E 0 90 3d 60
        E 0 90 49 60
        E 0 90 55 60
        E 0 90 61 60
        E 120 80 1a 00
        E 0 80 3d 00
        E 0 80 49 00
        E 0 80 55 00
        E 0 80 61 00
        E 120 90 1f 60
        E 0 90 56 60
        E 0 90 62 60
        E 120 80 1f 00
        E 0 80 56 00
        E 0 80 62 00
        E 120 90 18 60
        E 0 90 3c 60
        E 0 90 48 60
        E 0 90 54 60
        E 0 90 60 60
        E 120 80 18 00
        E 0 80 3c 00
        E 0 80 48 00
        E 0 80 54 00
        E 0 80 60 00
        E 120 90 1a 60
        E 0 90 1f 60
        E 0 90 55 60
        E 0 90 56 60
        E 0 90 61 60
        E 0 90 62 60
        E 120 80 1a 00
        E 0 80 1f 00
        E 0 80 55 00
        E 0 80 56 00
        E 0 80 61 00
        E 0 80 62 00
        E 120 90 1a 60
        E 0 90 3d 60
        E 0 90 49 60
        E 0 90 55 60
        E 0 90 61 60
        E 120 80 1a 00
        E 0 80 3d 00
        E 0 80 49 00
        E 0 80 55 00
        E 0 80 61 00
        E 120 90 1f 60
        E 0 90 56 60
        E 0 90 62 60
        E 120 80 1f 00
        E 0 80 56 00
        E 0 80 62 00
        E 0 90 1f 60
        E 0 90 62 60
        E 120 80 78 00
        E 0 80 79 00
        E 0 80 7a 00
        E 0 80 7b 00
        E 0 80 7c 00
        E 0 80 1f 00
        E 0 80 62 00
        E 0 90 18 60
        E 0 90 3c 60
        E 0 90 48 60
        E 0 90 54 60
        E 0 90 60 60
        E 120 80 18 00
        E 0 80 3c 00
        E 0 80 48 00
        E 0 80 54 00
        E 0 80 60 00
        E 120 90 1f 60
        E 0 90 56 60
        E 0 90 62 60
        E 120 80 1f 00
        E 0 80 56 00
        E 0 80 62 00
        E 120 90 1a 60
        E 0 90 3d 60
        E 0 90 49 60
        E 0 90 55 60
        E 0 90 61 60
        E 120 80 1a 00
        E 0 80 3d 00
        E 0 80 49 00
        E 0 80 55 00
        E 0 80 61 00
        E 120 90 1f 60
        E 0 90 56 60
        E 0 90 62 60
        E 120 80 1f 00
        E 0 80 56 00
        E 0 80 62 00
        E 120 90 18 60
        E 0 90 3c 60
        E 0 90 48 60
        E 0 90 54 60
        E 0 90 60 60
        E 120 80 18 00
        E 0 80 3c 00
        E 0 80 48 00
        E 0 80 54 00
        E 0 80 60 00
        E 120 90 1f 60
        E 0 90 56 60
        E 0 90 62 60
        E 120 80 1f 00
        E 0 80 56 00
        E 0 80 62 00
        E 120 90 1a 60
        E 0 90 3d 60
        E 0 90 49 60
        E 0 90 55 60
        E 0 90 61 60
        E 120 80 1a 00
        E 0 80 3d 00
        E 0 80 49 00
        E 0 80 55 00
        E 0 80 61 00
        E 120 90 1f 60
        E 0 90 56 60
        E 0 90 62 60
        E 120 80 1f 00
        E 0 80 56 00
        E 0 80 62 00
        E 120 90 18 60
        E 0 90 3c 60
        E 0 90 48 60
        E 0 90 54 60
        E 0 90 60 60
        E 120 80 18 00
        E 0 80 3c 00
        E 0 80 48 00
        E 0 80 54 00
        E 0 80 60 00
        E 120 90 1f 60
        E 0 90 56 60
        E 0 90 62 60
        E 120 80 1f 00
        E 0 80 56 00
        E 0 80 62 00
        E 120 90 1a 60
        E 0 90 3d 60
        E 0 90 49 60
        E 0 90 55 60
        E 0 90 61 60
        E 120 80 1a 00
        E 0 80 3d 00
        E 0 80 49 00
        E 0 80 55 00
        E 0 80 61 00
        E 120 90 1f 60
        E 0 90 56 60
        E 0 90 62 60
        E 120 80 1f 00
        E 0 80 56 00
        E 0 80 62 00
        E 120 90 18 60
        E 0 90 3c 60
        E 0 90 48 60
        E 0 90 54 60
        E 0 90 60 60
        E 120 80 18 00
        E 0 80 3c 00
        E 0 80 48 00
        E 0 80 54 00
        E 0 80 60 00
        E 120 90 1f 60
        E 0 90 56 60
        E 0 90 62 60
        E 120 80 1f 00
        E 0 80 56 00
        E 0 80 62 00
        E 120 90 1a 60
        E 0 90 3d 60
        E 0 90 49 60
        E 0 90 55 60
        E 0 90 61 60
        E 120 80 1a 00
        E 0 80 3d 00
        E 0 80 49 00
        E 0 80 55 00
        E 0 80 61 00
        E 120 90 1f 60
        E 0 90 56 60
        E 0 90 62 60
        E 120 80 1f 00
        E 0 80 56 00
        E 0 80 62 00
        E 0 90 1f 60
        E 0 90 62 60
        E 120 80 1f 00
        E 0 80 62 00
        E 0 90 18 60
        E 0 90 3c 60
        E 0 90 48 60
        E 0 90 54 60
        E 0 90 60 60
        E 120 80 18 00
        E 0 80 3c 00
        E 0 80 48 00
        E 0 80 54 00
        E 0 80 60 00
        E 120 90 1f 60
        E 0 90 56 60
        E 0 90 62 60
        E 120 80 1f 00
        E 0 80 56 00
        E 0 80 62 00
        E 120 90 1a 60
        E 0 90 3d 60
        E 0 90 49 60
        E 0 90 55 60
        E 0 90 61 60
        E 120 80 1a 00
        E 0 80 3d 00
        E 0 80 49 00
        E 0 80 55 00
        E 0 80 61 00
        E 120 90 1f 60
        E 0 90 56 60
        E 0 90 62 60
        E 120 80 1f 00
        E 0 80 56 00
        E 0 80 62 00
        E 120 90 18 60
        E 0 90 3c 60
        E 0 90 48 60
        E 0 90 54 60
        E 0 90 60 60
        E 120 80 18 00
        E 0 80 3c 00
        E 0 80 48 00
        E 0 80 54 00
        E 0 80 60 00
        E 120 90 1f 60
        E 0 90 56 60
        E 0 90 62 60
        E 120 80 1f 00
        E 0 80 56 00
        E 0 80 62 00
        E 120 90 1a 60
        E 0 90 3d 60
        E 0 90 49 60
        E 0 90 55 60
        E 0 90 61 60
        E 120 80 1a 00
        E 0 80 3d 00
        E 0 80 49 00
        E 0 80 55 00
        E 0 80 61 00
        E 120 90 1f 60
        E 0 90 56 60
        E 0 90 62 60
        E 120 80 1f 00
        E 0 80 56 00
        E 0 80 62 00
        E 120 90 18 60
        E 0 90 3c 60
        E 0 90 48 60
        E 0 90 54 60
        E 0 90 60 60
        E 120 80 18 00
        E 0 80 3c 00
        E 0 80 48 00
        E 0 80 54 00
        E 0 80 60 00
        E 120 90 1f 60
        E 0 90 56 60
        E 0 90 62 60
        E 120 80 1f 00
        E 0 80 56 00
        E 0 80 62 00
        E 120 90 1a 60
        E 0 90 3d 60
        E 0 90 49 60
        E 0 90 55 60
        E 0 90 61 60
        E 120 80 1a 00
        E 0 80 3d 00
        E 0 80 49 00
        E 0 80 55 00
        E 0 80 61 00
        E 120 90 1f 60
        E 0 90 56 60
        E 0 90 62 60
        E 120 80 1f 00
        E 0 80 56 00
        E 0 80 62 00
        E 120 90 18 60
        E 0 90 3c 60
        E 0 90 48 60
        E 0 90 54 60
        E 0 90 60 60
        E 120 80 18 00
        E 0 80 3c 00
        E 0 80 48 00
        E 0 80 54 00
        E 0 80 60 00
        E 120 90 1f 60
        E 0 90 56 60
        E 0 90 62 60
        E 120 80 1f 00
        E 0 80 56 00
        E 0 80 62 00
        E 120 90 1a 60
        E 0 90 3d 60
        E 0 90 49 60
        E 0 90 55 60
        E 0 90 61 60
        E 120 80 1a 00
        E 0 80 3d 00
        E 0 80 49 00
        E 0 80 55 00
        E 0 80 61 00
        E 120 90 1f 60
        E 0 90 56 60
        E 0 90 62 60
        E 120 80 1f 00
        E 0 80 56 00
        E 0 80 62 00
        E 0 90 1f 60
        E 0 90 62 60
        E 120 80 1f 00
        E 0 80 62 00
        E 0 90 18 60
        E 0 90 3c 60
        E 0 90 48 60
        E 0 90 54 60
        E 0 90 60 60
        E 120 80 18 00
        E 0 80 3c 00
        E 0 80 48 00
        E 0 80 54 00
        E 0 80 60 00
        E 120 90 1f 60
        E 0 90 56 60
        E 0 90 62 60
        E 120 80 1f 00
        E 0 80 56 00
        E 0 80 62 00
        E 120 90 1a 60
        E 0 90 3d 60
        E 0 90 49 60
        E 0 90 55 60
        E 0 90 61 60
        E 120 80 1a 00
        E 0 80 3d 00
        E 0 80 49 00
        E 0 80 55 00
        E 0 80 61 00
        E 120 90 1f 60
        E 0 90 56 60
        E 0 90 62 60
        E 120 80 1f 00
        E 0 80 56 00
        E 0 80 62 00
        E 120 90 18 60
        E 0 90 3c 60
        E 0 90 48 60
        E 0 90 54 60
        E 0 90 60 60
        E 120 80 18 00
        E 0 80 3c 00
        E 0 80 48 00
        E 0 80 54 00
        E 0 80 60 00
        E 120 90 1f 60
        E 0 90 56 60
        E 0 90 62 60
        E 120 80 1f 00
        E 0 80 56 00
        E 0 80 62 00
        E 120 90 1a 60
        E 0 90 3d 60
        E 0 90 49 60
        E 0 90 55 60
        E 0 90 61 60
        E 120 80 1a 00
        E 0 80 3d 00
        E 0 80 49 00
        E 0 80 55 00
        E 0 80 61 00
        E 120 90 1f 60
        E 0 90 56 60
        E 0 90 62 60
        E 120 80 1f 00
        E 0 80 56 00
        E 0 80 62 00
        E 120 90 18 60
        E 0 90 3c 60
        E 0 90 48 60
        E 0 90 54 60
        E 0 90 60 60
        E 0 90 78 60
        E 0 90 79 60
        E 0 90 7a 60
        E 0 90 7b 60
        E 0 90 7c 60
        E 120 80 18 00
        E 0 80 3c 00
        E 0 80 48 00
        E 0 80 54 00
        E 0 80 60 00
        E 120 90 1f 60
        E 0 90 56 60
        E 0 90 62 60
        E 120 80 1f 00
        E 0 80 56 00
        E 0 80 62 00
        E 120 90 1a 60
        E 0 90 3d 60
        E 0 90 49 60
        E 0 90 55 60
        E 0 90 61 60
        E 120 80 1a 00
        E 0 80 3d 00
        E 0 80 49 00
        E 0 80 55 00
        E 0 80 61 00
        E 120 90 1f 60
        E 0 90 56 60
        E 0 90 62 60
        E 120 80 1f 00
        E 0 80 56 00
        E 0 80 62 00
        E 120 90 18 60
        E 0 90 3c 60
        E 0 90 48 60
        E 0 90 54 60
        E 0 90 60 60
        E 120 80 18 00
        E 0 80 3c 00
        E 0 80 48 00
        E 0 80 54 00
        E 0 80 60 00
        E 120 90 1f 60
        E 0 90 56 60
        E 0 90 62 60
        E 120 80 1f 00
        E 0 80 56 00
        E 0 80 62 00
        E 120 90 1a 60
        E 0 90 3d 60
        E 0 90 49 60
        E 0 90 55 60
        E 0 90 61 60
        E 120 80 1a 00
        E 0 80 3d 00
        E 0 80 49 00
        E 0 80 55 00
        E 0 80 61 00
        E 120 90 1f 60
        E 0 90 56 60
        E 0 90 62 60
        E 120 80 1f 00
        E 0 80 56 00
        E 0 80 62 00
        E 0 90 1f 60
        E 0 90 62 60
        E 120 80 78 00
        E 0 80 79 00
        E 0 80 7a 00
        E 0 80 7b 00
        E 0 80 7c 00
        E 0 80 1f 00
        E 0 80 62 00
        E 0 90 1a 60
        E 0 90 33 60
        E 0 90 3d 60
        E 0 90 40 60
        E 0 90 49 60
        E 0 90 4c 60
        E 0 90 55 60
        E 0 90 58 60
        E 0 90 61 60
        E 0 90 64 60
        E 0 90 70 60
        E 0 90 74 60
        E 120 80 1a 00
        E 0 80 33 00
        E 0 80 3d 00
        E 0 80 40 00
        E 0 80 49 00
        E 0 80 4c 00
        E 0 80 55 00
        E 0 80 58 00
        E 0 80 61 00
        E 0 80 64 00
        E 120 90 1f 60
        E 0 90 56 60
        E 0 90 62 60
        E 120 80 1f 00
        E 0 80 56 00
        E 0 80 62 00
        E 120 90 1a 60
        E 0 90 33 60
        E 0 90 3d 60
        E 0 90 40 60
        E 0 90 49 60
        E 0 90 4c 60
        E 0 90 55 60
        E 0 90 58 60
        E 0 90 61 60
        E 0 90 64 60
        E 120 80 1a 00
        E 0 80 33 00
        E 0 80 3d 00
        E 0 80 40 00
        E 0 80 49 00
        E 0 80 4c 00
        E 0 80 55 00
        E 0 80 58 00
        E 0 80 61 00
        E 0 80 64 00
        E 120 90 1f 60
        E 0 90 56 60
        E 0 90 62 60
        E 120 80 1f 00
        E 0 80 56 00
        E 0 80 62 00
        E 120 90 1a 60
        E 0 90 33 60
        E 0 90 3d 60
        E 0 90 40 60
        E 0 90 49 60
        E 0 90 4c 60
        E 0 90 55 60
        E 0 90 58 60
        E 0 90 61 60
        E 0 90 64 60
        E 120 80 1a 00
        E 0 80 33 00
        E 0 80 3d 00
        E 0 80 40 00
        E 0 80 49 00
        E 0 80 4c 00
        E 0 80 55 00
        E 0 80 58 00
        E 0 80 61 00
        E 0 80 64 00
        E 120 90 1f 60
        E 0 90 56 60
        E 0 90 62 60
        E 120 80 1f 00
        E 0 80 56 00
        E 0 80 62 00
        E 120 90 1a 60
        E 0 90 33 60
        E 0 90 3d 60
        E 0 90 40 60
        E 0 90 49 60
        E 0 90 4c 60
        E 0 90 55 60
        E 0 90 58 60
        E 0 90 61 60
        E 0 90 64 60
        E 120 80 1a 00
        E 0 80 33 00
        E 0 80 3d 00
        E 0 80 40 00
        E 0 80 49 00
        E 0 80 4c 00
        E 0 80 55 00
        E 0 80 58 00
        E 0 80 61 00
        E 0 80 64 00
        E 120 90 1f 60
        E 0 90 56 60
        E 0 90 62 60
        E 120 80 1f 00
        E 0 80 56 00
        E 0 80 62 00
        E 120 90 1a 60
        E 0 90 33 60
        E 0 90 3d 60
        E 0 90 40 60
        E 0 90 49 60
        E 0 90 4c 60
        E 0 90 55 60
        E 0 90 58 60
        E 0 90 61 60
        E 0 90 64 60
        E 120 80 1a 00
        E 0 80 33 00
        E 0 80 3d 00
        E 0 80 40 00
        E 0 80 49 00
        E 0 80 4c 00
        E 0 80 55 00
        E 0 80 58 00
        E 0 80 61 00
        E 0 80 64 00
        E 120 90 1f 60
        E 0 90 56 60
        E 0 90 62 60
        E 120 80 1f 00
        E 0 80 56 00
        E 0 80 62 00
        E 120 90 1a 60
        E 0 90 33 60
        E 0 90 3d 60
        E 0 90 40 60
        E 0 90 49 60
        E 0 90 4c 60
        E 0 90 55 60
        E 0 90 58 60
        E 0 90 61 60
        E 0 90 64 60
        E 120 80 1a 00
        E 0 80 33 00
        E 0 80 3d 00
        E 0 80 40 00
        E 0 80 49 00
        E 0 80 4c 00
        E 0 80 55 00
        E 0 80 58 00
        E 0 80 61 00
        E 0 80 64 00
        E 120 90 1f 60
        E 0 90 56 60
        E 0 90 62 60
        E 120 80 1f 00
        E 0 80 56 00
        E 0 80 62 00
        E 120 90 1a 60
        E 0 90 33 60
        E 0 90 3d 60
        E 0 90 40 60
        E 0 90 49 60
        E 0 90 4c 60
        E 0 90 55 60
        E 0 90 58 60
        E 0 90 61 60
        E 0 90 64 60
        E 120 80 1a 00
        E 0 80 33 00
        E 0 80 3d 00
        E 0 80 40 00
        E 0 80 49 00
        E 0 80 4c 00
        E 0 80 55 00
        E 0 80 58 00
        E 0 80 61 00
        E 0 80 64 00
        E 120 90 1f 60
        E 0 90 56 60
        E 0 90 62 60
        E 120 80 1f 00
        E 0 80 56 00
        E 0 80 62 00
        E 120 90 1a 60
        E 0 90 33 60
        E 0 90 3d 60
        E 0 90 40 60
        E 0 90 49 60
        E 0 90 4c 60
        E 0 90 55 60
        E 0 90 58 60
        E 0 90 61 60
        E 0 90 64 60
        E 120 80 1a 00
        E 0 80 33 00
        E 0 80 3d 00
        E 0 80 40 00
        E 0 80 49 00
        E 0 80 4c 00
        E 0 80 55 00
        E 0 80 58 00
        E 0 80 61 00
        E 0 80 64 00
        E 120 90 1f 60
        E 0 90 56 60
        E 0 90 62 60
        E 120 80 1f 00
        E 0 80 56 00
        E 0 80 62 00
        E 120 90 1a 60
        E 0 90 33 60
        E 0 90 3d 60
        E 0 90 40 60
        E 0 90 49 60
        E 0 90 4c 60
        E 0 90 55 60
        E 0 90 58 60
        E 0 90 61 60
        E 0 90 64 60
        E 120 80 74 00
        E 0 80 1a 00
        E 0 80 33 00
        E 0 80 3d 00
        E 0 80 40 00
        E 0 80 49 00
        E 0 80 4c 00
        E 0 80 55 00
        E 0 80 58 00
        E 0 80 61 00
        E 0 80 64 00
        E 120 90 1f 60
        E 0 90 56 60
        E 0 90 62 60
        E 120 80 1f 00
        E 0 80 56 00
        E 0 80 62 00
        E 120 90 1a 60
        E 0 90 33 60
        E 0 90 3d 60
        E 0 90 40 60
        E 0 90 49 60
        E 0 90 4c 60
        E 0 90 55 60
        E 0 90 58 60
        E 0 90 61 60
        E 0 90 64 60
        E 120 80 1a 00
        E 0 80 33 00
        E 0 80 3d 00
        E 0 80 40 00
        E 0 80 49 00
        E 0 80 4c 00
        E 0 80 55 00
        E 0 80 58 00
        E 0 80 61 00
        E 0 80 64 00
        E 120 90 1f 60
        E 0 90 56 60
        E 0 90 62 60
        E 120 80 1f 00
        E 0 80 56 00
        E 0 80 62 00
        E 120 90 1a 60
        E 0 90 33 60
        E 0 90 3d 60
        E 0 90 40 60
        E 0 90 49 60
        E 0 90 4c 60
        E 0 90 55 60
        E 0 90 58 60
        E 0 90 61 60
        E 0 90 64 60
        E 120 80 1a 00
        E 0 80 33 00
        E 0 80 3d 00
        E 0 80 40 00
        E 0 80 49 00
        E 0 80 4c 00
        E 0 80 55 00
        E 0 80 58 00
        E 0 80 61 00
        E 0 80 64 00
        E 120 90 1f 60
        E 0 90 56 60
        E 0 90 62 60
        E 120 80 1f 00
        E 0 80 56 00
        E 0 80 62 00
        E 120 90 1a 60
        E 0 90 33 60
        E 0 90 3d 60
        E 0 90 40 60
        E 0 90 49 60
        E 0 90 4c 60
        E 0 90 55 60
        E 0 90 58 60
        E 0 90 61 60
        E 0 90 64 60
        E 120 80 1a 00
        E 0 80 33 00
        E 0 80 3d 00
        E 0 80 40 00
        E 0 80 49 00
        E 0 80 4c 00
        E 0 80 55 00
        E 0 80 58 00
        E 0 80 61 00
        E 0 80 64 00
        E 120 90 1f 60
        E 0 90 56 60
        E 0 90 62 60
        E 120 80 1f 00
        E 0 80 56 00
        E 0 80 62 00
        E 120 90 1a 60
        E 0 90 33 60
        E 0 90 3d 60
        E 0 90 40 60
        E 0 90 49 60
        E 0 90 4c 60
        E 0 90 55 60
        E 0 90 58 60
        E 0 90 61 60
        E 0 90 64 60
        E 0 90 78 60
        E 0 90 79 60
        E 0 90 7a 60
        E 0 90 7b 60
        E 0 90 7c 60
        E 120 80 1a 00
        E 0 80 33 00
        E 0 80 3d 00
        E 0 80 40 00
        E 0 80 49 00
        E 0 80 4c 00
        E 0 80 55 00
        E 0 80 58 00
        E 0 80 61 00
        E 0 80 64 00
        E 120 90 1f 60
        E 0 90 56 60
        E 0 90 62 60
        E 120 80 1f 00
        E 0 80 56 00
        E 0 80 62 00
        E 120 90 1a 60
        E 0 90 33 60
        E 0 90 3d 60
        E 0 90 40 60
        E 0 90 49 60
        E 0 90 4c 60
        E 0 90 55 60
        E 0 90 58 60
        E 0 90 61 60
        E 0 90 64 60
        E 120 80 1a 00
        E 0 80 33 00
        E 0 80 3d 00
        E 0 80 40 00
        E 0 80 49 00
        E 0 80 4c 00
        E 0 80 55 00
        E 0 80 58 00
        E 0 80 61 00
        E 0 80 64 00
        E 120 90 1f 60
        E 0 90 56 60
        E 0 90 62 60
        E 120 80 1f 00
        E 0 80 56 00
        E 0 80 62 00
        E 120 90 1a 60
        E 0 90 33 60
        E 0 90 3d 60
        E 0 90 40 60
        E 0 90 49 60
        E 0 90 4c 60
        E 0 90 55 60
        E 0 90 58 60
        E 0 90 61 60
        E 0 90 64 60
        E 120 80 1a 00
        E 0 80 33 00
        E 0 80 3d 00
        E 0 80 40 00
        E 0 80 49 00
        E 0 80 4c 00
        E 0 80 55 00
        E 0 80 58 00
        E 0 80 61 00
        E 0 80 64 00
        E 120 90 1f 60
        E 0 90 56 60
        E 0 90 62 60
        E 120 80 1f 00
        E 0 80 56 00
        E 0 80 62 00
        E 120 90 1a 60
        E 0 90 33 60
        E 0 90 3d 60
        E 0 90 40 60
        E 0 90 49 60
        E 0 90 4c 60
        E 0 90 55 60
        E 0 90 58 60
        E 0 90 61 60
        E 0 90 64 60
        E 120 80 70 00
        E 0 80 1a 00
        E 0 80 33 00
        E 0 80 3d 00
        E 0 80 40 00
        E 0 80 49 00
        E 0 80 4c 00
        E 0 80 55 00
        E 0 80 58 00
        E 0 80 61 00
        E 0 80 64 00
        E 120 90 1f 60
        E 0 90 56 60
        E 0 90 62 60
        E 120 80 1f 00
        E 0 80 56 00
        E 0 80 62 00
        E 120 80 78 00
        E 0 80 79 00
        E 0 80 7a 00
        E 0 80 7b 00
        E 0 80 7c 00
        E 0 90 1d 60
        E 0 90 3d 60
        E 0 90 49 60
        E 0 90 55 60
        E 0 90 61 60
        E 120 80 1d 00
        E 0 80 3d 00
        E 0 80 49 00
        E 0 80 55 00
        E 0 80 61 00
        E 0 90 1c 60
        E 0 90 61 60
        E 120 80 1c 00
        E 0 80 61 00
        E 0 90 1f 60
        E 0 90 56 60
        E 0 90 62 60
        E 120 80 1f 00
        E 0 80 56 00
        E 0 80 62 00
        E 0 90 1c 60
        E 0 90 61 60
        E 120 80 1c 00
        E 0 80 61 00
        E 0 90 1d 60
        E 0 90 3d 60
        E 0 90 49 60
        E 0 90 55 60
        E 0 90 61 60
        E 120 80 1d 00
        E 0 80 3d 00
        E 0 80 49 00
        E 0 80 55 00
        E 0 80 61 00
        E 0 90 1c 60
        E 0 90 61 60
        E 120 80 1c 00
        E 0 80 61 00
        E 0 90 1f 60
        E 0 90 56 60
        E 0 90 62 60
        E 120 80 1f 00
        E 0 80 56 00
        E 0 80 62 00
        E 0 90 1c 60
        E 0 90 61 60
        E 120 80 1c 00
        E 0 80 61 00
        E 0 90 1d 60
        E 0 90 3d 60
        E 0 90 49 60
        E 0 90 55 60
        E 0 90 61 60
        E 120 80 1d 00
        E 0 80 3d 00
        E 0 80 49 00
        E 0 80 55 00
        E 0 80 61 00
        E 0 90 1c 60
        E 0 90 61 60
        E 120 80 1c 00
        E 0 80 61 00
        E 0 90 1f 60
        E 0 90 56 60
        E 0 90 62 60
        E 120 80 1f 00
        E 0 80 56 00
        E 0 80 62 00
        E 0 90 1c 60
        E 0 90 61 60
        E 120 80 1c 00
        E 0 80 61 00
        E 0 90 1d 60
        E 0 90 3d 60
        E 0 90 49 60
        E 0 90 55 60
        E 0 90 61 60
        E 120 80 1d 00
        E 0 80 3d 00
        E 0 80 49 00
        E 0 80 55 00
        E 0 80 61 00
        E 0 90 1c 60
        E 0 90 61 60
        E 120 80 1c 00
        E 0 80 61 00
        E 0 90 1f 60
        E 0 90 56 60
        E 0 90 62 60
        E 120 80 1f 00
        E 0 80 56 00
        E 0 80 62 00
        E 0 90 1c 60
        E 0 90 61 60
        E 120 80 1c 00
        E 0 80 61 00
        E 0 90 1b 60
        E 0 90 3d 60
        E 0 90 49 60
        E 0 90 55 60
        E 0 90 61 60
        E 120 80 1b 00
        E 0 80 3d 00
        E 0 80 49 00
        E 0 80 55 00
        E 0 80 61 00
        E 0 90 1a 60
        E 0 90 61 60
        E 120 80 1a 00
        E 0 80 61 00
        E 0 90 1f 60
        E 0 90 56 60
        E 0 90 62 60
        E 120 80 1f 00
        E 0 80 56 00
        E 0 80 62 00
        E 0 90 1a 60
        E 0 90 61 60
        E 120 80 1a 00
        E 0 80 61 00
        E 0 90 1b 60
        E 0 90 3d 60
        E 0 90 49 60
        E 0 90 55 60
        E 0 90 61 60
        E 120 80 1b 00
        E 0 80 3d 00
        E 0 80 49 00
        E 0 80 55 00
        E 0 80 61 00
        E 0 90 1a 60
        E 0 90 61 60
        E 120 80 1a 00
        E 0 80 61 00
        E 0 90 1f 60
        E 0 90 56 60
        E 0 90 62 60
        E 120 80 1f 00
        E 0 80 56 00
        E 0 80 62 00
        E 0 90 1a 60
        E 0 90 61 60
        E 120 80 1a 00
        E 0 80 61 00
        E 0 90 1b 60
        E 0 90 3d 60
        E 0 90 49 60
        E 0 90 55 60
        E 0 90 61 60
        E 120 80 1b 00
        E 0 80 3d 00
        E 0 80 49 00
        E 0 80 55 00
        E 0 80 61 00
        E 0 90 1a 60
        E 0 90 61 60
        E 120 80 1a 00
        E 0 80 61 00
        E 0 90 1f 60
        E 0 90 56 60
        E 0 90 62 60
        E 120 80 1f 00
        E 0 80 56 00
        E 0 80 62 00
        E 0 90 1a 60
        E 0 90 61 60
        E 120 80 1a 00
        E 0 80 61 00
        E 0 90 1b 60
        E 0 90 3d 60
        E 0 90 49 60
        E 0 90 55 60
        E 0 90 61 60
        E 120 80 1b 00
        E 0 80 3d 00
        E 0 80 49 00
        E 0 80 55 00
        E 0 80 61 00
        E 0 90 1a 60
        E 0 90 61 60
        E 120 80 1a 00
        E 0 80 61 00
        E 0 90 1f 60
        E 0 90 56 60
        E 0 90 62 60
        E 120 80 1f 00
        E 0 80 56 00
        E 0 80 62 00
        E 0 90 18 60
        E 0 90 1a 60
        E 0 90 60 60
        E 0 90 61 60
        E 120 80 18 00
        E 0 80 1a 00
        E 0 80 60 00
        E 0 80 61 00
        E 0 90 18 60
        E 0 90 1b 60
        E 0 90 3d 60
        E 0 90 49 60
        E 0 90 54 60
        E 0 90 55 60
        E 0 90 60 60
        E 0 90 61 60
        E 120 80 18 00
        E 0 80 1b 00
        E 0 80 3d 00
        E 0 80 49 00
        E 0 80 54 00
        E 0 80 55 00
        E 0 80 60 00
        E 0 80 61 00
        E 120 90 1f 60
        E 0 90 56 60
        E 0 90 62 60
        E 120 80 1f 00
        E 0 80 56 00
        E 0 80 62 00
        E 120 90 1a 60
        E 0 90 3d 60
        E 0 90 49 60
        E 0 90 55 60
        E 0 90 61 60
        E 120 80 1a 00
        E 0 80 3d 00
        E 0 80 49 00
        E 0 80 55 00
        E 0 80 61 00
        E 120 90 1f 60
        E 0 90 56 60
        E 0 90 62 60
        E 120 80 1f 00
        E 0 80 56 00
        E 0 80 62 00
        E 120 90 18 60
        E 0 90 3c 60
        E 0 90 48 60
        E 0 90 54 60
        E 0 90 60 60
        E 120 80 18 00
        E 0 80 3c 00
        E 0 80 48 00
        E 0 80 54 00
        E 0 80 60 00
        E 120 90 1f 60
        E 0 90 56 60
        E 0 90 62 60
        E 120 80 1f 00
        E 0 80 56 00
        E 0 80 62 00
        E 120 90 1a 60
        E 0 90 3d 60
        E 0 90 49 60
        E 0 90 55 60
        E 0 90 61 60
        E 120 80 1a 00
        E 0 80 3d 00
        E 0 80 49 00
        E 0 80 55 00
        E 0 80 61 00
        E 120 90 1f 60
        E 0 90 56 60
        E 0 90 62 60
        E 120 80 1f 00
        E 0 80 56 00
        E 0 80 62 00
        E 120 90 18 60
        E 0 90 3c 60
        E 0 90 48 60
        E 0 90 54 60
        E 0 90 60 60
        E 120 80 18 00
        E 0 80 3c 00
        E 0 80 48 00
        E 0 80 54 00
        E 0 80 60 00
        E 120 90 1f 60
        E 0 90 56 60
        E 0 90 62 60
        E 120 80 1f 00
        E 0 80 56 00
        E 0 80 62 00
        E 120 90 1a 60
        E 0 90 3d 60
        E 0 90 49 60
        E 0 90 55 60
        E 0 90 61 60
        E 120 80 1a 00
        E 0 80 3d 00
        E 0 80 49 00
        E 0 80 55 00
        E 0 80 61 00
        E 120 90 1f 60
        E 0 90 56 60
        E 0 90 62 60
        E 120 80 1f 00
        E 0 80 56 00
        E 0 80 62 00
        E 120 90 18 60
        E 0 90 3c 60
        E 0 90 48 60
        E 0 90 54 60
        E 0 90 60 60
        E 120 80 18 00
        E 0 80 3c 00
        E 0 80 48 00
        E 0 80 54 00
        E 0 80 60 00
        E 120 90 1f 60
        E 0 90 56 60
        E 0 90 62 60
        E 120 80 1f 00
        E 0 80 56 00
        E 0 80 62 00
        E 120 90 1a 60
        E 0 90 3d 60
        E 0 90 49 60
        E 0 90 55 60
        E 0 90 61 60
        E 120 80 1a 00
        E 0 80 3d 00
        E 0 80 49 00
        E 0 80 55 00
        E 0 80 61 00
        E 120 90 1f 60
        E 0 90 56 60
        E 0 90 62 60
        E 120 80 1f 00
        E 0 80 56 00
        E 0 80 62 00
        E 120 90 18 60
        E 0 90 3c 60
        E 0 90 48 60
        E 0 90 54 60
        E 0 90 60 60
        E 120 80 18 00
        E 0 80 3c 00
        E 0 80 48 00
        E 0 80 54 00
        E 0 80 60 00
        E 120 90 1a 60
        E 0 90 1f 60
        E 0 90 55 60
        E 0 90 56 60
        E 0 90 61 60
        E 0 90 62 60
        E 120 80 1a 00
        E 0 80 1f 00
        E 0 80 55 00
        E 0 80 56 00
        E 0 80 61 00
        E 0 80 62 00
        E 120 90 1a 60
        E 0 90 3d 60
        E 0 90 49 60
        E 0 90 55 60
        E 0 90 61 60
        E 120 80 1a 00
        E 0 80 3d 00
        E 0 80 49 00
        E 0 80 55 00
        E 0 80 61 00
        E 120 90 1f 60
        E 0 90 56 60
        E 0 90 62 60
        E 120 80 1f 00
        E 0 80 56 00
        E 0 80 62 00
        E 120 90 18 60
        E 0 90 3c 60
        E 0 90 48 60
        E 0 90 54 60
        E 0 90 60 60
        E 120 80 18 00
        E 0 80 3c 00
        E 0 80 48 00
        E 0 80 54 00
        E 0 80 60 00
        E 120 90 1f 60
        E 0 90 56 60
        E 0 90 62 60
        E 120 80 1f 00
        E 0 80 56 00
        E 0 80 62 00
        E 120 90 1a 60
        E 0 90 3d 60
        E 0 90 49 60
        E 0 90 55 60
        E 0 90 61 60
        E 120 80 1a 00
        E 0 80 3d 00
        E 0 80 49 00
        E 0 80 55 00
        E 0 80 61 00
        E 120 90 1f 60
        E 0 90 56 60
        E 0 90 62 60
        E 120 80 1f 00
        E 0 80 56 00
        E 0 80 62 00
        E 120 90 18 60
        E 0 90 3c 60
        E 0 90 48 60
        E 0 90 54 60
        E 0 90 60 60
        E 120 80 18 00
        E 0 80 3c 00
        E 0 80 48 00
        E 0 80 54 00
        E 0 80 60 00
        E 120 90 1f 60
        E 0 90 56 60
        E 0 90 62 60
        E 120 80 1f 00
        E 0 80 56 00
        E 0 80 62 00
        E 120 90 1a 60
        E 0 90 3d 60
        E 0 90 49 60
        E 0 90 55 60
        E 0 90 61 60
        E 120 80 1a 00
        E 0 80 3d 00
        E 0 80 49 00
        E 0 80 55 00
        E 0 80 61 00
        E 120 90 1f 60
        E 0 90 56 60
        E 0 90 62 60
        E 120 80 1f 00
        E 0 80 56 00
        E 0 80 62 00
        E 120 90 18 60
        E 0 90 3c 60
        E 0 90 48 60
        E 0 90 54 60
        E 0 90 60 60
        E 120 80 18 00
        E 0 80 3c 00
        E 0 80 48 00
        E 0 80 54 00
        E 0 80 60 00
        E 120 90 1f 60
        E 0 90 56 60
        E 0 90 62 60
        E 120 80 1f 00
        E 0 80 56 00
        E 0 80 62 00
        E 120 90 1a 60
        E 0 90 3d 60
        E 0 90 49 60
        E 0 90 55 60
        E 0 90 61 60
        E 120 80 1a 00
        E 0 80 3d 00
        E 0 80 49 00
        E 0 80 55 00
        E 0 80 61 00
        E 120 90 1f 60
        E 0 90 56 60
        E 0 90 62 60
        E 120 80 1f 00
        E 0 80 56 00
        E 0 80 62 00
        E 120 90 18 60
        E 0 90 3c 60
        E 0 90 48 60
        E 0 90 54 60
        E 0 90 60 60
        E 120 80 18 00
        E 0 80 3c 00
        E 0 80 48 00
        E 0 80 54 00
        E 0 80 60 00
        E 120 90 1a 60
        E 0 90 1f 60
        E 0 90 55 60
        E 0 90 56 60
        E 0 90 61 60
        E 0 90 62 60
        E 120 80 1a 00
        E 0 80 1f 00
        E 0 80 55 00
        E 0 80 56 00
        E 0 80 61 00
        E 0 80 62 00
        E 120 90 1a 60
        E 0 90 3d 60
        E 0 90 49 60
        E 0 90 55 60
        E 0 90 61 60
        E 120 80 1a 00
        E 0 80 3d 00
        E 0 80 49 00
        E 0 80 55 00
        E 0 80 61 00
        E 120 90 1f 60
        E 0 90 56 60
        E 0 90 62 60
        E 120 80 1f 00
        E 0 80 56 00
        E 0 80 62 00
        E 120 90 18 60
        E 0 90 3c 60
        E 0 90 48 60
        E 0 90 54 60
        E 0 90 60 60
        E 120 80 18 00
        E 0 80 3c 00
        E 0 80 48 00
        E 0 80 54 00
        E 0 80 60 00
        E 120 90 1f 60
        E 0 90 56 60
        E 0 90 62 60
        E 120 80 1f 00
        E 0 80 56 00
        E 0 80 62 00
        E 120 90 1a 60
        E 0 90 3d 60
        E 0 90 49 60
        E 0 90 55 60
        E 0 90 61 60
        E 120 80 1a 00
        E 0 80 3d 00
        E 0 80 49 00
        E 0 80 55 00
        E 0 80 61 00
        E 120 90 1f 60
        E 0 90 56 60
        E 0 90 62 60
        E 120 80 1f 00
        E 0 80 56 00
        E 0 80 62 00
        E 120 90 18 60
        E 0 90 3c 60
        E 0 90 48 60
        E 0 90 54 60
        E 0 90 60 60
        E 120 80 18 00
        E 0 80 3c 00
        E 0 80 48 00
        E 0 80 54 00
        E 0 80 60 00
        E 120 90 1f 60
        E 0 90 56 60
        E 0 90 62 60
        E 120 80 1f 00
        E 0 80 56 00
        E 0 80 62 00
        E 120 90 1a 60
        E 0 90 3d 60
        E 0 90 49 60
        E 0 90 55 60
        E 0 90 61 60
        E 120 80 1a 00
        E 0 80 3d 00
        E 0 80 49 00
        E 0 80 55 00
        E 0 80 61 00
        E 120 90 1f 60
        E 0 90 56 60
        E 0 90 62 60
        E 120 80 1f 00
        E 0 80 56 00
        E 0 80 62 00
        E 120 90 18 60
        E 0 90 3c 60
        E 0 90 48 60
        E 0 90 54 60
        E 0 90 60 60
        E 0 90 78 60
        E 0 90 79 60
        E 0 90 7a 60
        E 0 90 7b 60
        E 0 90 7c 60
        E 120 80 18 00
        E 0 80 3c 00
        E 0 80 48 00
        E 0 80 54 00
        E 0 80 60 00
        E 120 90 1f 60
        E 0 90 56 60
        E 0 90 62 60
        E 120 80 1f 00
        E 0 80 56 00
        E 0 80 62 00
        E 120 90 18 60
        E 0 90 3c 60
        E 0 90 48 60
        E 0 90 54 60
        E 0 90 60 60
        E 120 80 18 00
        E 0 80 3c 00
        E 0 80 48 00
        E 0 80 54 00
        E 0 80 60 00
        E 120 90 1f 60
        E 0 90 56 60
        E 0 90 62 60
        E 120 80 1f 00
        E 0 80 56 00
        E 0 80 62 00
        E 120 80 78 00
        E 0 80 79 00
        E 0 80 7a 00
        E 0 80 7b 00
        E 0 80 7c 00
        E 0 90 18 60
        E 0 90 3c 60
        E 0 90 48 60
        E 0 90 54 60
        E 0 90 60 60
        E 120 80 18 00
        E 0 80 3c 00
        E 0 80 48 00
        E 0 80 54 00
        E 0 80 60 00
        E 120 90 1f 60
        E 0 90 56 60
        E 0 90 62 60
        E 120 80 1f 00
        E 0 80 56 00
        E 0 80 62 00
        E 120 90 1a 60
        E 0 90 3d 60
        E 0 90 49 60
        E 0 90 55 60
        E 0 90 61 60
        E 120 80 1a 00
        E 0 80 3d 00
        E 0 80 49 00
        E 0 80 55 00
        E 0 80 61 00
        E 120 90 1f 60
        E 0 90 56 60
        E 0 90 62 60
        E 120 80 1f 00
        E 0 80 56 00
        E 0 80 62 00
        E 120 90 18 60
        E 0 90 3c 60
        E 0 90 48 60
        E 0 90 54 60
        E 0 90 60 60
        E 120 80 18 00
        E 0 80 3c 00
        E 0 80 48 00
        E 0 80 54 00
        E 0 80 60 00
        E 120 90 1f 60
        E 0 90 56 60
        E 0 90 62 60
        E 120 80 1f 00
        E 0 80 56 00
        E 0 80 62 00
        E 120 90 1a 60
        E 0 90 3d 60
        E 0 90 49 60
        E 0 90 55 60
        E 0 90 61 60
        E 120 80 1a 00
        E 0 80 3d 00
        E 0 80 49 00
        E 0 80 55 00
        E 0 80 61 00
        E 120 90 1f 60
        E 0 90 56 60
        E 0 90 62 60
        E 120 80 1f 00
        E 0 80 56 00
        E 0 80 62 00
        E 120 90 18 60
        E 0 90 3c 60
        E 0 90 48 60
        E 0 90 54 60
        E 0 90 60 60
        E 120 80 18 00
        E 0 80 3c 00
        E 0 80 48 00
        E 0 80 54 00
        E 0 80 60 00
        E 120 90 1f 60
        E 0 90 56 60
        E 0 90 62 60
        E 120 80 1f 00
        E 0 80 56 00
        E 0 80 62 00
        E 120 90 1a 60
        E 0 90 3d 60
        E 0 90 49 60
        E 0 90 55 60
        E 0 90 61 60
        E 120 80 1a 00
        E 0 80 3d 00
        E 0 80 49 00
        E 0 80 55 00
        E 0 80 61 00
        E 120 90 1f 60
        E 0 90 56 60
        E 0 90 62 60
        E 120 80 1f 00
        E 0 80 56 00
        E 0 80 62 00
        E 120 90 18 60
        E 0 90 3c 60
        E 0 90 48 60
        E 0 90 54 60
        E 0 90 60 60
        E 120 80 18 00
        E 0 80 3c 00
        E 0 80 48 00
        E 0 80 54 00
        E 0 80 60 00
        E 120 90 1a 60
        E 0 90 1f 60
        E 0 90 55 60
        E 0 90 56 60
        E 0 90 61 60
        E 0 90 62 60
        E 120 80 1a 00
        E 0 80 1f 00
        E 0 80 55 00
        E 0 80 56 00
        E 0 80 61 00
        E 0 80 62 00
        E 120 90 1a 60
        E 0 90 3d 60
        E 0 90 49 60
        E 0 90 55 60
        E 0 90 61 60
        E 120 80 1a 00
        E 0 80 3d 00
        E 0 80 49 00
        E 0 80 55 00
        E 0 80 61 00
        E 120 90 1f 60
        E 0 90 56 60
        E 0 90 62 60
        E 120 80 1f 00
        E 0 80 56 00
        E 0 80 62 00
        E 0 90 1f 60
        E 0 90 62 60
        E 120 80 1f 00
        E 0 80 62 00
        E 0 90 18 60
        E 0 90 3c 60
        E 0 90 48 60
        E 0 90 54 60
        E 0 90 60 60
        E 0 90 74 60
        E 120 80 18 00
        E 0 80 3c 00
        E 0 80 48 00
        E 0 80 54 00
        E 0 80 60 00
        E 120 90 1f 60
        E 0 90 56 60
        E 0 90 62 60
        E 120 80 1f 00
        E 0 80 56 00
        E 0 80 62 00
        E 120 90 1a 60
        E 0 90 3d 60
        E 0 90 49 60
        E 0 90 55 60
        E 0 90 61 60
        E 120 80 1a 00
        E 0 80 3d 00
        E 0 80 49 00
        E 0 80 55 00
        E 0 80 61 00
        E 120 90 1f 60
        E 0 90 56 60
        E 0 90 62 60
        E 120 80 1f 00
        E 0 80 56 00
        E 0 80 62 00
        E 120 90 18 60
        E 0 90 3c 60
        E 0 90 48 60
        E 0 90 54 60
        E 0 90 60 60
        E 120 80 18 00
        E 0 80 3c 00
        E 0 80 48 00
        E 0 80 54 00
        E 0 80 60 00
        E 120 90 1f 60
        E 0 90 56 60
        E 0 90 62 60
        E 120 80 1f 00
        E 0 80 56 00
        E 0 80 62 00
        E 120 90 1a 60
        E 0 90 3d 60
        E 0 90 49 60
        E 0 90 55 60
        E 0 90 61 60
        E 120 80 1a 00
        E 0 80 3d 00
        E 0 80 49 00
        E 0 80 55 00
        E 0 80 61 00
        E 120 90 1f 60
        E 0 90 56 60
        E 0 90 62 60
        E 120 80 1f 00
        E 0 80 56 00
        E 0 80 62 00
        E 120 90 18 60
        E 0 90 3c 60
        E 0 90 48 60
        E 0 90 54 60
        E 0 90 60 60
        E 0 90 78 60
        E 0 90 79 60
        E 0 90 7a 60
        E 0 90 7b 60
        E 0 90 7c 60
        E 120 80 18 00
        E 0 80 3c 00
        E 0 80 48 00
        E 0 80 54 00
        E 0 80 60 00
        E 120 90 1f 60
        E 0 90 56 60
        E 0 90 62 60
        E 120 80 1f 00
        E 0 80 56 00
        E 0 80 62 00
        E 120 90 1a 60
        E 0 90 3d 60
        E 0 90 49 60
        E 0 90 55 60
        E 0 90 61 60
        E 120 80 1a 00
        E 0 80 3d 00
        E 0 80 49 00
        E 0 80 55 00
        E 0 80 61 00
        E 120 90 1f 60
        E 0 90 56 60
        E 0 90 62 60
        E 120 80 1f 00
        E 0 80 56 00
        E 0 80 62 00
        E 120 90 18 60
        E 0 90 3c 60
        E 0 90 48 60
        E 0 90 54 60
        E 0 90 60 60
        E 120 80 18 00
        E 0 80 3c 00
        E 0 80 48 00
        E 0 80 54 00
        E 0 80 60 00
        E 120 90 1a 60
        E 0 90 1f 60
        E 0 90 55 60
        E 0 90 56 60
        E 0 90 61 60
        E 0 90 62 60
        E 120 80 1a 00
        E 0 80 1f 00
        E 0 80 55 00
        E 0 80 56 00
        E 0 80 61 00
        E 0 80 62 00
        E 120 90 1a 60
        E 0 90 3d 60
        E 0 90 49 60
        E 0 90 55 60
        E 0 90 61 60
        E 120 80 1a 00
        E 0 80 3d 00
        E 0 80 49 00
        E 0 80 55 00
        E 0 80 61 00
        E 120 90 1f 60
        E 0 90 56 60
        E 0 90 62 60
        E 120 80 1f 00
        E 0 80 56 00
        E 0 80 62 00
        E 0 90 1f 60
        E 0 90 62 60
        E 120 80 78 00
        E 0 80 79 00
        E 0 80 7a 00
        E 0 80 7b 00
        E 0 80 7c 00
        E 0 80 1f 00
        E 0 80 62 00
        E 0 90 18 60
        E 0 90 3c 60
        E 0 90 48 60
        E 0 90 54 60
        E 0 90 60 60
        E 120 80 74 00
        E 0 80 18 00
        E 0 80 3c 00
        E 0 80 48 00
        E 0 80 54 00
        E 0 80 60 00
        E 120 90 1f 60
        E 0 90 56 60
        E 0 90 62 60
        E 120 80 1f 00
        E 0 80 56 00
        E 0 80 62 00
        E 120 90 1a 60
        E 0 90 3d 60
        E 0 90 49 60
        E 0 90 55 60
        E 0 90 61 60
        E 120 80 1a 00
        E 0 80 3d 00
        E 0 80 49 00
        E 0 80 55 00
        E 0 80 61 00
        E 120 90 1f 60
        E 0 90 56 60
        E 0 90 62 60
        E 120 80 1f 00
        E 0 80 56 00
        E 0 80 62 00
        E 120 90 18 60
        E 0 90 3c 60
        E 0 90 48 60
        E 0 90 54 60
        E 0 90 60 60
        E 120 80 18 00
        E 0 80 3c 00
        E 0 80 48 00
        E 0 80 54 00
        E 0 80 60 00
        E 120 90 1f 60
        E 0 90 56 60
        E 0 90 62 60
        E 120 80 1f 00
        E 0 80 56 00
        E 0 80 62 00
        E 120 90 1a 60
        E 0 90 3d 60
        E 0 90 49 60
        E 0 90 55 60
        E 0 90 61 60
        E 120 80 1a 00
        E 0 80 3d 00
        E 0 80 49 00
        E 0 80 55 00
        E 0 80 61 00
        E 120 90 1f 60
        E 0 90 56 60
        E 0 90 62 60
        E 120 80 1f 00
        E 0 80 56 00
        E 0 80 62 00
        E 120 90 18 60
        E 0 90 3c 60
        E 0 90 48 60
        E 0 90 54 60
        E 0 90 60 60
        E 120 80 18 00
        E 0 80 3c 00
        E 0 80 48 00
        E 0 80 54 00
        E 0 80 60 00
        E 120 90 1f 60
        E 0 90 56 60
        E 0 90 62 60
        E 120 80 1f 00
        E 0 80 56 00
        E 0 80 62 00
        E 120 90 1a 60
        E 0 90 3d 60
        E 0 90 49 60
        E 0 90 55 60
        E 0 90 61 60
        E 120 80 1a 00
        E 0 80 3d 00
        E 0 80 49 00
        E 0 80 55 00
        E 0 80 61 00
        E 120 90 1f 60
        E 0 90 56 60
        E 0 90 62 60
        E 120 80 1f 00
        E 0 80 56 00
        E 0 80 62 00
        E 120 90 18 60
        E 0 90 3c 60
        E 0 90 48 60
        E 0 90 54 60
        E 0 90 60 60
        E 120 80 18 00
        E 0 80 3c 00
        E 0 80 48 00
        E 0 80 54 00
        E 0 80 60 00
        E 120 90 1a 60
        E 0 90 1f 60
        E 0 90 55 60
        E 0 90 56 60
        E 0 90 61 60
        E 0 90 62 60
        E 120 80 1a 00
        E 0 80 1f 00
        E 0 80 55 00
        E 0 80 56 00
        E 0 80 61 00
        E 0 80 62 00
        E 120 90 1a 60
        E 0 90 3d 60
        E 0 90 49 60
        E 0 90 55 60
        E 0 90 61 60
        E 120 80 1a 00
        E 0 80 3d 00
        E 0 80 49 00
        E 0 80 55 00
        E 0 80 61 00
        E 120 90 1f 60
        E 0 90 56 60
        E 0 90 62 60
        E 120 80 1f 00
        E 0 80 56 00
        E 0 80 62 00
        E 0 90 1f 60
        E 0 90 62 60
        E 120 80 1f 00
        E 0 80 62 00
        E 0 90 18 60
        E 0 90 3c 60
        E 0 90 48 60
        E 0 90 54 60
        E 0 90 60 60
        E 120 80 18 00
        E 0 80 3c 00
        E 0 80 48 00
        E 0 80 54 00
        E 0 80 60 00
        E 120 90 1f 60
        E 0 90 56 60
        E 0 90 62 60
        E 120 80 1f 00
        E 0 80 56 00
        E 0 80 62 00
        E 120 90 1a 60
        E 0 90 3d 60
        E 0 90 49 60
        E 0 90 55 60
        E 0 90 61 60
        E 120 80 1a 00
        E 0 80 3d 00
        E 0 80 49 00
        E 0 80 55 00
        E 0 80 61 00
        E 120 90 1f 60
        E 0 90 56 60
        E 0 90 62 60
        E 120 80 1f 00
        E 0 80 56 00
        E 0 80 62 00
        E 120 90 18 60
        E 0 90 3c 60
        E 0 90 48 60
        E 0 90 54 60
        E 0 90 60 60
        E 120 80 18 00
        E 0 80 3c 00
        E 0 80 48 00
        E 0 80 54 00
        E 0 80 60 00
        E 120 90 1f 60
        E 0 90 56 60
        E 0 90 62 60
        E 120 80 1f 00
        E 0 80 56 00
        E 0 80 62 00
        E 120 90 1a 60
        E 0 90 3d 60
        E 0 90 49 60
        E 0 90 55 60
        E 0 90 61 60
        E 120 80 1a 00
        E 0 80 3d 00
        E 0 80 49 00
        E 0 80 55 00
        E 0 80 61 00
        E 120 90 1f 60
        E 0 90 56 60
        E 0 90 62 60
        E 120 80 1f 00
        E 0 80 56 00
        E 0 80 62 00
        E 120 90 18 60
        E 0 90 3c 60
        E 0 90 48 60
        E 0 90 54 60
        E 0 90 60 60
        E 0 90 78 60
        E 0 90 79 60
        E 0 90 7a 60
        E 0 90 7b 60
        E 0 90 7c 60
        E 120 80 18 00
        E 0 80 3c 00
        E 0 80 48 00
        E 0 80 54 00
        E 0 80 60 00
        E 120 90 1f 60
        E 0 90 56 60
        E 0 90 62 60
        E 120 80 1f 00
        E 0 80 56 00
        E 0 80 62 00
        E 120 90 1a 60
        E 0 90 3d 60
        E 0 90 49 60
        E 0 90 55 60
        E 0 90 61 60
        E 120 80 1a 00
        E 0 80 3d 00
        E 0 80 49 00
        E 0 80 55 00
        E 0 80 61 00
        E 120 90 1f 60
        E 0 90 56 60
        E 0 90 62 60
        E 120 80 1f 00
        E 0 80 56 00
        E 0 80 62 00
        E 120 90 18 60
        E 0 90 3c 60
        E 0 90 48 60
        E 0 90 54 60
        E 0 90 60 60
        E 120 80 18 00
        E 0 80 3c 00
        E 0 80 48 00
        E 0 80 54 00
        E 0 80 60 00
        E 120 90 1a 60
        E 0 90 1f 60
        E 0 90 55 60
        E 0 90 56 60
        E 0 90 61 60
        E 0 90 62 60
        E 120 80 1a 00
        E 0 80 1f 00
        E 0 80 55 00
        E 0 80 56 00
        E 0 80 61 00
        E 0 80 62 00
        E 120 90 1a 60
        E 0 90 3d 60
        E 0 90 49 60
        E 0 90 55 60
        E 0 90 61 60
        E 120 80 1a 00
        E 0 80 3d 00
        E 0 80 49 00
        E 0 80 55 00
        E 0 80 61 00
        E 120 90 1a 60
        E 0 90 1f 60
        E 0 90 55 60
        E 0 90 56 60
        E 0 90 61 60
        E 0 90 62 60
        E 120 80 1a 00
        E 0 80 1f 00
        E 0 80 55 00
        E 0 80 56 00
        E 0 80 61 00
        E 0 80 62 00
        E 0 90 1a 60
        E 0 90 61 60
        <X 120 0
          /wFbaW50ZW5zZV0=
        >
        E 0 80 78 00
        E 0 80 79 00
        E 0 80 7a 00
        E 0 80 7b 00
        E 0 80 7c 00
        E 0 80 1a 00
        E 0 80 61 00
        E 0 90 18 60
        E 0 90 2a 60
        E 0 90 3f 60
        E 0 90 48 60
        E 0 90 4b 60
        E 0 90 54 60
        E 0 90 57 60
        E 0 90 60 60
        E 0 90 63 60
        E 0 90 74 60
        E 120 80 18 00
        E 0 80 2a 00
        E 0 80 3f 00
        E 0 80 48 00
        E 0 80 4b 00
        E 0 80 54 00
        E 0 80 57 00
        E 0 80 60 00
        E 0 80 63 00
        E 120 90 19 60
        E 240 80 19 00
        E 0 90 1a 60
        E 0 90 2a 60
        E 0 90 3d 60
        E 0 90 3f 60
        E 0 90 49 60
        E 0 90 4b 60
        E 0 90 55 60
        E 0 90 57 60
        E 0 90 61 60
        E 0 90 63 60
        E 120 80 1a 00
        E 0 80 2a 00
        E 0 80 3d 00
        E 0 80 3f 00
        E 0 80 49 00
        E 0 80 4b 00
        E 0 80 55 00
        E 0 80 57 00
        E 0 80 61 00
        E 0 80 63 00
        E 120 90 19 60
        E 0 90 2a 60
        E 0 90 57 60
        E 0 90 63 60
        E 120 80 2a 00
        E 0 80 57 00
        E 0 80 63 00
        E 120 80 19 00
        E 0 90 18 60
        E 0 90 2a 60
        E 0 90 3f 60
        E 0 90 48 60
        E 0 90 4b 60
        E 0 90 54 60
        E 0 90 57 60
        E 0 90 60 60
        E 0 90 63 60
        E 120 80 18 00
        E 0 80 2a 00
        E 0 80 3f 00
        E 0 80 48 00
        E 0 80 4b 00
        E 0 80 54 00
        E 0 80 57 00
        E 0 80 60 00
        E 0 80 63 00
        E 120 90 18 60
        E 0 90 19 60
        E 0 90 2a 60
        E 0 90 54 60
        E 0 90 57 60
        E 0 90 60 60
        E 0 90 63 60
        E 120 80 18 00
        E 0 80 2a 00
        E 0 80 54 00
        E 0 80 57 00
        E 0 80 60 00
        E 0 80 63 00
        E 120 80 19 00
        E 0 90 1a 60
        E 0 90 2a 60
        E 0 90 3d 60
        E 0 90 3f 60
        E 0 90 49 60
        E 0 90 4b 60
        E 0 90 55 60
        E 0 90 57 60
        E 0 90 61 60
        E 0 90 63 60
        E 120 80 1a 00
        E 0 80 2a 00
        E 0 80 3d 00
        E 0 80 3f 00
        E 0 80 49 00
        E 0 80 4b 00
        E 0 80 55 00
        E 0 80 57 00
        E 0 80 61 00
        E 0 80 63 00
        E 120 90 19 60
        E 0 90 2a 60
        E 0 90 57 60
        E 0 90 63 60
        E 120 80 2a 00
        E 0 80 57 00
        E 0 80 63 00
        E 120 80 19 00
        E 0 90 18 60
        E 0 90 2a 60
        E 0 90 3f 60
        E 0 90 48 60
        E 0 90 4b 60
        E 0 90 54 60
        E 0 90 57 60
        E 0 90 60 60
        E 0 90 63 60
        E 120 80 74 00
        E 0 80 18 00
        E 0 80 2a 00
        E 0 80 3f 00
        E 0 80 48 00
        E 0 80 4b 00
        E 0 80 54 00
        E 0 80 57 00
        E 0 80 60 00
        E 0 80 63 00
        E 120 90 19 60
        E 0 90 2a 60
        E 0 90 57 60
        E 0 90 63 60
        E 120 80 2a 00
        E 0 80 57 00
        E 0 80 63 00
        E 120 80 19 00
        E 0 90 1a 60
        E 0 90 2a 60
        E 0 90 3d 60
        E 0 90 3f 60
        E 0 90 49 60
        E 0 90 4b 60
        E 0 90 55 60
        E 0 90 57 60
        E 0 90 61 60
        E 0 90 63 60
        E 120 80 1a 00
        E 0 80 2a 00
        E 0 80 3d 00
        E 0 80 3f 00
        E 0 80 49 00
        E 0 80 4b 00
        E 0 80 55 00
        E 0 80 57 00
        E 0 80 61 00
        E 0 80 63 00
        E 120 90 19 60
        E 0 90 2a 60
        E 0 90 57 60
        E 0 90 63 60
        E 120 80 2a 00
        E 0 80 57 00
        E 0 80 63 00
        E 120 80 19 00
        E 0 90 18 60
        E 0 90 2a 60
        E 0 90 3f 60
        E 0 90 48 60
        E 0 90 4b 60
        E 0 90 54 60
        E 0 90 57 60
        E 0 90 60 60
        E 0 90 63 60
        E 120 80 18 00
        E 0 80 2a 00
        E 0 80 3f 00
        E 0 80 48 00
        E 0 80 4b 00
        E 0 80 54 00
        E 0 80 57 00
        E 0 80 60 00
        E 0 80 63 00
        E 120 90 18 60
        E 0 90 19 60
        E 0 90 2a 60
        E 0 90 54 60
        E 0 90 57 60
        E 0 90 60 60
        E 0 90 63 60
        E 120 80 18 00
        E 0 80 2a 00
        E 0 80 54 00
        E 0 80 57 00
        E 0 80 60 00
        E 0 80 63 00
        E 120 80 19 00
        E 0 90 1a 60
        E 0 90 2a 60
        E 0 90 3d 60
        E 0 90 3f 60
        E 0 90 49 60
        E 0 90 4b 60
        E 0 90 55 60
        E 0 90 57 60
        E 0 90 61 60
        E 0 90 63 60
        E 120 80 1a 00
        E 0 80 2a 00
        E 0 80 3d 00
        E 0 80 3f 00
        E 0 80 49 00
        E 0 80 4b 00
        E 0 80 55 00
        E 0 80 57 00
        E 0 80 61 00
        E 0 80 63 00
        E 120 90 19 60
        E 0 90 2a 60
        E 0 90 57 60
        E 0 90 63 60
        E 120 80 2a 00
        E 0 80 57 00
        E 0 80 63 00
        E 120 80 19 00
        E 0 90 18 60
        E 0 90 2a 60
        E 0 90 3f 60
        E 0 90 48 60
        E 0 90 4b 60
        E 0 90 54 60
        E 0 90 57 60
        E 0 90 60 60
        E 0 90 63 60
        E 120 80 18 00
        E 0 80 2a 00
        E 0 80 3f 00
        E 0 80 48 00
        E 0 80 4b 00
        E 0 80 54 00
        E 0 80 57 00
        E 0 80 60 00
        E 0 80 63 00
        E 120 90 19 60
        E 0 90 2a 60
        E 0 90 57 60
        E 0 90 63 60
        E 120 80 2a 00
        E 0 80 57 00
        E 0 80 63 00
        E 120 80 19 00
        E 0 90 1a 60
        E 0 90 2a 60
        E 0 90 3d 60
        E 0 90 3f 60
        E 0 90 49 60
        E 0 90 4b 60
        E 0 90 55 60
        E 0 90 57 60
        E 0 90 61 60
        E 0 90 63 60
        E 120 80 1a 00
        E 0 80 2a 00
        E 0 80 3d 00
        E 0 80 3f 00
        E 0 80 49 00
        E 0 80 4b 00
        E 0 80 55 00
        E 0 80 57 00
        E 0 80 61 00
        E 0 80 63 00
        E 120 90 19 60
        E 0 90 2a 60
        E 0 90 57 60
        E 0 90 63 60
        E 120 80 2a 00
        E 0 80 57 00
        E 0 80 63 00
        E 120 80 19 00
        E 0 90 18 60
        E 0 90 2a 60
        E 0 90 3f 60
        E 0 90 48 60
        E 0 90 4b 60
        E 0 90 54 60
        E 0 90 57 60
        E 0 90 60 60
        E 0 90 63 60
        E 120 80 18 00
        E 0 80 2a 00
        E 0 80 3f 00
        E 0 80 48 00
        E 0 80 4b 00
        E 0 80 54 00
        E 0 80 57 00
        E 0 80 60 00
        E 0 80 63 00
        E 120 90 18 60
        E 0 90 19 60
        E 0 90 2a 60
        E 0 90 54 60
        E 0 90 57 60
        E 0 90 60 60
        E 0 90 63 60
        E 120 80 18 00
        E 0 80 2a 00
        E 0 80 54 00
        E 0 80 57 00
        E 0 80 60 00
        E 0 80 63 00
        E 120 80 19 00
        E 0 90 1a 60
        E 0 90 2a 60
        E 0 90 3d 60
        E 0 90 3f 60
        E 0 90 49 60
        E 0 90 4b 60
        E 0 90 55 60
        E 0 90 57 60
        E 0 90 61 60
        E 0 90 63 60
        E 120 80 1a 00
        E 0 80 2a 00
        E 0 80 3d 00
        E 0 80 3f 00
        E 0 80 49 00
        E 0 80 4b 00
        E 0 80 55 00
        E 0 80 57 00
        E 0 80 61 00
        E 0 80 63 00
        E 120 90 19 60
        E 0 90 2a 60
        E 0 90 57 60
        E 0 90 63 60
        E 120 80 2a 00
        E 0 80 57 00
        E 0 80 63 00
        E 120 80 19 00
        E 0 90 18 60
        E 0 90 2a 60
        E 0 90 3f 60
        E 0 90 48 60
        E 0 90 4b 60
        E 0 90 54 60
        E 0 90 57 60
        E 0 90 60 60
        E 0 90 63 60
        E 0 90 78 60
        E 0 90 79 60
        E 0 90 7a 60
        E 0 90 7b 60
        E 0 90 7c 60
        E 120 80 18 00
        E 0 80 2a 00
        E 0 80 3f 00
        E 0 80 48 00
        E 0 80 4b 00
        E 0 80 54 00
        E 0 80 57 00
        E 0 80 60 00
        E 0 80 63 00
        E 120 90 19 60
        E 0 90 2a 60
        E 0 90 57 60
        E 0 90 63 60
        E 120 80 2a 00
        E 0 80 57 00
        E 0 80 63 00
        E 120 80 19 00
        E 0 90 1a 60
        E 0 90 2a 60
        E 0 90 3d 60
        E 0 90 3f 60
        E 0 90 49 60
        E 0 90 4b 60
        E 0 90 55 60
        E 0 90 57 60
        E 0 90 61 60
        E 0 90 63 60
        E 120 80 1a 00
        E 0 80 2a 00
        E 0 80 3d 00
        E 0 80 3f 00
        E 0 80 49 00
        E 0 80 4b 00
        E 0 80 55 00
        E 0 80 57 00
        E 0 80 61 00
        E 0 80 63 00
        E 120 90 19 60
        E 0 90 2a 60
        E 0 90 57 60
        E 0 90 63 60
        E 120 80 2a 00
        E 0 80 57 00
        E 0 80 63 00
        E 120 80 19 00
        E 0 90 18 60
        E 0 90 2a 60
        E 0 90 3f 60
        E 0 90 48 60
        E 0 90 4b 60
        E 0 90 54 60
        E 0 90 57 60
        E 0 90 60 60
        E 0 90 63 60
        E 120 80 18 00
        E 0 80 2a 00
        E 0 80 3f 00
        E 0 80 48 00
        E 0 80 4b 00
        E 0 80 54 00
        E 0 80 57 00
        E 0 80 60 00
        E 0 80 63 00
        E 120 90 18 60
        E 0 90 19 60
        E 0 90 2a 60
        E 0 90 54 60
        E 0 90 57 60
        E 0 90 60 60
        E 0 90 63 60
        E 120 80 18 00
        E 0 80 2a 00
        E 0 80 54 00
        E 0 80 57 00
        E 0 80 60 00
        E 0 80 63 00
        E 120 80 19 00
        E 0 90 1a 60
        E 0 90 2a 60
        E 0 90 3d 60
        E 0 90 3f 60
        E 0 90 49 60
        E 0 90 4b 60
        E 0 90 55 60
        E 0 90 57 60
        E 0 90 61 60
        E 0 90 63 60
        E 120 80 1a 00
        E 0 80 2a 00
        E 0 80 3d 00
        E 0 80 3f 00
        E 0 80 49 00
        E 0 80 4b 00
        E 0 80 55 00
        E 0 80 57 00
        E 0 80 61 00
        E 0 80 63 00
        E 120 90 19 60
        E 0 90 2a 60
        E 0 90 57 60
        E 0 90 63 60
        E 120 80 2a 00
        E 0 80 57 00
        E 0 80 63 00
        E 120 80 78 00
        E 0 80 79 00
        E 0 80 7a 00
        E 0 80 7b 00
        E 0 80 7c 00
        E 0 80 19 00
        E 0 90 18 60
        E 0 90 2a 60
        E 0 90 3f 60
        E 0 90 48 60
        E 0 90 4b 60
        E 0 90 54 60
        E 0 90 57 60
        E 0 90 60 60
        E 0 90 63 60
        E 120 80 18 00
        E 0 80 2a 00
        E 0 80 3f 00
        E 0 80 48 00
        E 0 80 4b 00
        E 0 80 54 00
        E 0 80 57 00
        E 0 80 60 00
        E 0 80 63 00
        E 120 90 19 60
        E 0 90 2a 60
        E 0 90 57 60
        E 0 90 63 60
        E 120 80 2a 00
        E 0 80 57 00
        E 0 80 63 00
        E 120 80 19 00
        E 0 90 1a 60
        E 0 90 2a 60
        E 0 90 3d 60
        E 0 90 3f 60
        E 0 90 49 60
        E 0 90 4b 60
        E 0 90 55 60
        E 0 90 57 60
        E 0 90 61 60
        E 0 90 63 60
        E 120 80 1a 00
        E 0 80 2a 00
        E 0 80 3d 00
        E 0 80 3f 00
        E 0 80 49 00
        E 0 80 4b 00
        E 0 80 55 00
        E 0 80 57 00
        E 0 80 61 00
        E 0 80 63 00
        E 120 90 19 60
        E 0 90 2a 60
        E 0 90 57 60
        E 0 90 63 60
        E 120 80 2a 00
        E 0 80 57 00
        E 0 80 63 00
        E 120 80 19 00
        E 0 90 18 60
        E 0 90 2a 60
        E 0 90 3f 60
        E 0 90 48 60
        E 0 90 4b 60
        E 0 90 54 60
        E 0 90 57 60
        E 0 90 60 60
        E 0 90 63 60
        E 120 80 18 00
        E 0 80 2a 00
        E 0 80 3f 00
        E 0 80 48 00
        E 0 80 4b 00
        E 0 80 54 00
        E 0 80 57 00
        E 0 80 60 00
        E 0 80 63 00
        E 120 90 18 60
        E 0 90 19 60
        E 0 90 2a 60
        E 0 90 54 60
        E 0 90 57 60
        E 0 90 60 60
        E 0 90 63 60
        E 120 80 18 00
        E 0 80 2a 00
        E 0 80 54 00
        E 0 80 57 00
        E 0 80 60 00
        E 0 80 63 00
        E 120 80 19 00
        E 0 90 1a 60
        E 0 90 2a 60
        E 0 90 3d 60
        E 0 90 3f 60
        E 0 90 49 60
        E 0 90 4b 60
        E 0 90 55 60
        E 0 90 57 60
        E 0 90 61 60
        E 0 90 63 60
        E 120 80 1a 00
        E 0 80 2a 00
        E 0 80 3d 00
        E 0 80 3f 00
        E 0 80 49 00
        E 0 80 4b 00
        E 0 80 55 00
        E 0 80 57 00
        E 0 80 61 00
        E 0 80 63 00
        E 120 90 19 60
        E 0 90 2a 60
        E 0 90 57 60
        E 0 90 63 60
        E 120 80 2a 00
        E 0 80 57 00
        E 0 80 63 00
        E 120 80 19 00
        E 0 90 18 60
        E 0 90 2a 60
        E 0 90 3f 60
        E 0 90 48 60
        E 0 90 4b 60
        E 0 90 54 60
        E 0 90 57 60
        E 0 90 60 60
        E 0 90 63 60
        E 120 80 18 00
        E 0 80 2a 00
        E 0 80 3f 00
        E 0 80 48 00
        E 0 80 4b 00
        E 0 80 54 00
        E 0 80 57 00
        E 0 80 60 00
        E 0 80 63 00
        E 120 90 19 60
        E 0 90 2a 60
        E 0 90 57 60
        E 0 90 63 60
        E 120 80 2a 00
        E 0 80 57 00
        E 0 80 63 00
        E 120 80 19 00
        E 0 90 1a 60
        E 0 90 2a 60
        E 0 90 3d 60
        E 0 90 3f 60
        E 0 90 49 60
        E 0 90 4b 60
        E 0 90 55 60
        E 0 90 57 60
        E 0 90 61 60
        E 0 90 63 60
        E 120 80 1a 00
        E 0 80 2a 00
        E 0 80 3d 00
        E 0 80 3f 00
        E 0 80 49 00
        E 0 80 4b 00
        E 0 80 55 00
        E 0 80 57 00
        E 0 80 61 00
        E 0 80 63 00
        E 120 90 19 60
        E 0 90 2a 60
        E 0 90 57 60
        E 0 90 63 60
        E 120 80 2a 00
        E 0 80 57 00
        E 0 80 63 00
        E 120 80 19 00
        E 0 90 18 60
        E 0 90 2a 60
        E 0 90 3f 60
        E 0 90 48 60
        E 0 90 4b 60
        E 0 90 54 60
        E 0 90 57 60
        E 0 90 60 60
        E 0 90 63 60
        E 120 80 18 00
        E 0 80 2a 00
        E 0 80 3f 00
        E 0 80 48 00
        E 0 80 4b 00
        E 0 80 54 00
        E 0 80 57 00
        E 0 80 60 00
        E 0 80 63 00
        E 120 90 18 60
        E 0 90 19 60
        E 0 90 2a 60
        E 0 90 54 60
        E 0 90 57 60
        E 0 90 60 60
        E 0 90 63 60
        E 120 80 18 00
        E 0 80 2a 00
        E 0 80 54 00
        E 0 80 57 00
        E 0 80 60 00
        E 0 80 63 00
        E 120 80 19 00
        E 0 90 1a 60
        E 0 90 2a 60
        E 0 90 3d 60
        E 0 90 3f 60
        E 0 90 49 60
        E 0 90 4b 60
        E 0 90 55 60
        E 0 90 57 60
        E 0 90 61 60
        E 0 90 63 60
        E 120 80 1a 00
        E 0 80 2a 00
        E 0 80 3d 00
        E 0 80 3f 00
        E 0 80 49 00
        E 0 80 4b 00
        E 0 80 55 00
        E 0 80 57 00
        E 0 80 61 00
        E 0 80 63 00
        E 120 90 19 60
        E 0 90 2a 60
        E 0 90 57 60
        E 0 90 63 60
        E 120 80 2a 00
        E 0 80 57 00
        E 0 80 63 00
        E 120 80 19 00
        E 0 90 18 60
        E 0 90 2a 60
        E 0 90 3f 60
        E 0 90 48 60
        E 0 90 4b 60
        E 0 90 54 60
        E 0 90 57 60
        E 0 90 60 60
        E 0 90 63 60
        E 120 80 18 00
        E 0 80 2a 00
        E 0 80 3f 00
        E 0 80 48 00
        E 0 80 4b 00
        E 0 80 54 00
        E 0 80 57 00
        E 0 80 60 00
        E 0 80 63 00
        E 120 90 19 60
        E 0 90 2a 60
        E 0 90 57 60
        E 0 90 63 60
        E 120 80 2a 00
        E 0 80 57 00
        E 0 80 63 00
        E 120 80 19 00
        E 0 90 1a 60
        E 0 90 2a 60
        E 0 90 3d 60
        E 0 90 3f 60
        E 0 90 49 60
        E 0 90 4b 60
        E 0 90 55 60
        E 0 90 57 60
        E 0 90 61 60
        E 0 90 63 60
        E 120 80 1a 00
        E 0 80 2a 00
        E 0 80 3d 00
        E 0 80 3f 00
        E 0 80 49 00
        E 0 80 4b 00
        E 0 80 55 00
        E 0 80 57 00
        E 0 80 61 00
        E 0 80 63 00
        E 120 90 19 60
        E 0 90 2a 60
        E 0 90 57 60
        E 0 90 63 60
        E 120 80 2a 00
        E 0 80 57 00
        E 0 80 63 00
        E 120 80 19 00
        E 0 90 18 60
        E 0 90 2a 60
        E 0 90 3f 60
        E 0 90 48 60
        E 0 90 4b 60
        E 0 90 54 60
        E 0 90 57 60
        E 0 90 60 60
        E 0 90 63 60
        E 120 80 18 00
        E 0 80 2a 00
        E 0 80 3f 00
        E 0 80 48 00
        E 0 80 4b 00
        E 0 80 54 00
        E 0 80 57 00
        E 0 80 60 00
        E 0 80 63 00
        E 120 90 18 60
        E 0 90 19 60
        E 0 90 2a 60
        E 0 90 54 60
        E 0 90 57 60
        E 0 90 60 60
        E 0 90 63 60
        E 120 80 18 00
        E 0 80 2a 00
        E 0 80 54 00
        E 0 80 57 00
        E 0 80 60 00
        E 0 80 63 00
        E 120 80 19 00
        E 0 90 1a 60
        E 0 90 2a 60
        E 0 90 3d 60
        E 0 90 3f 60
        E 0 90 49 60
        E 0 90 4b 60
        E 0 90 55 60
        E 0 90 57 60
        E 0 90 61 60
        E 0 90 63 60
        E 120 80 1a 00
        E 0 80 2a 00
        E 0 80 3d 00
        E 0 80 3f 00
        E 0 80 49 00
        E 0 80 4b 00
        E 0 80 55 00
        E 0 80 57 00
        E 0 80 61 00
        E 0 80 63 00
        E 120 90 19 60
        E 0 90 2a 60
        E 0 90 57 60
        E 0 90 63 60
        E 120 80 2a 00
        E 0 80 57 00
        E 0 80 63 00
        E 120 80 19 00
        E 0 90 18 60
        E 0 90 2a 60
        E 0 90 3f 60
        E 0 90 48 60
        E 0 90 4b 60
        E 0 90 54 60
        E 0 90 57 60
        E 0 90 60 60
        E 0 90 63 60
        E 120 80 18 00
        E 0 80 2a 00
        E 0 80 3f 00
        E 0 80 48 00
        E 0 80 4b 00
        E 0 80 54 00
        E 0 80 57 00
        E 0 80 60 00
        E 0 80 63 00
        E 120 90 19 60
        E 0 90 2a 60
        E 0 90 57 60
        E 0 90 63 60
        E 120 80 2a 00
        E 0 80 57 00
        E 0 80 63 00
        E 120 80 19 00
        E 0 90 1a 60
        E 0 90 2a 60
        E 0 90 3d 60
        E 0 90 3f 60
        E 0 90 49 60
        E 0 90 4b 60
        E 0 90 55 60
        E 0 90 57 60
        E 0 90 61 60
        E 0 90 63 60
        E 120 80 1a 00
        E 0 80 2a 00
        E 0 80 3d 00
        E 0 80 3f 00
        E 0 80 49 00
        E 0 80 4b 00
        E 0 80 55 00
        E 0 80 57 00
        E 0 80 61 00
        E 0 80 63 00
        E 120 90 19 60
        E 0 90 2a 60
        E 0 90 57 60
        E 0 90 63 60
        E 120 80 2a 00
        E 0 80 57 00
        E 0 80 63 00
        E 120 80 19 00
        E 0 90 18 60
        E 0 90 2a 60
        E 0 90 3f 60
        E 0 90 48 60
        E 0 90 4b 60
        E 0 90 54 60
        E 0 90 57 60
        E 0 90 60 60
        E 0 90 63 60
        E 120 80 18 00
        E 0 80 2a 00
        E 0 80 3f 00
        E 0 80 48 00
        E 0 80 4b 00
        E 0 80 54 00
        E 0 80 57 00
        E 0 80 60 00
        E 0 80 63 00
        E 120 90 18 60
        E 0 90 19 60
        E 0 90 2a 60
        E 0 90 54 60
        E 0 90 57 60
        E 0 90 60 60
        E 0 90 63 60
        E 120 80 18 00
        E 0 80 2a 00
        E 0 80 54 00
        E 0 80 57 00
        E 0 80 60 00
        E 0 80 63 00
        E 120 80 19 00
        E 0 90 1a 60
        E 0 90 2a 60
        E 0 90 3d 60
        E 0 90 3f 60
        E 0 90 49 60
        E 0 90 4b 60
        E 0 90 55 60
        E 0 90 57 60
        E 0 90 61 60
        E 0 90 63 60
        E 120 80 1a 00
        E 0 80 2a 00
        E 0 80 3d 00
        E 0 80 3f 00
        E 0 80 49 00
        E 0 80 4b 00
        E 0 80 55 00
        E 0 80 57 00
        E 0 80 61 00
        E 0 80 63 00
        E 120 90 18 60
        E 0 90 19 60
        E 0 90 2a 60
        E 0 90 54 60
        E 0 90 57 60
        E 0 90 60 60
        E 0 90 63 60
        E 120 80 18 00
        E 0 80 2a 00
        E 0 80 54 00
        E 0 80 57 00
        E 0 80 60 00
        E 0 80 63 00
        E 120 80 19 00
        E 0 90 18 60
        E 0 90 2a 60
        E 0 90 3f 60
        E 0 90 48 60
        E 0 90 4b 60
        E 0 90 54 60
        E 0 90 57 60
        E 0 90 60 60
        E 0 90 63 60
        E 120 80 18 00
        E 0 80 2a 00
        E 0 80 3f 00
        E 0 80 48 00
        E 0 80 4b 00
        E 0 80 54 00
        E 0 80 57 00
        E 0 80 60 00
        E 0 80 63 00
        E 120 90 19 60
        E 0 90 2a 60
        E 0 90 57 60
        E 0 90 63 60
        E 120 80 2a 00
        E 0 80 57 00
        E 0 80 63 00
        E 120 80 19 00
        E 0 90 1a 60
        E 0 90 2a 60
        E 0 90 3d 60
        E 0 90 3f 60
        E 0 90 49 60
        E 0 90 4b 60
        E 0 90 55 60
        E 0 90 57 60
        E 0 90 61 60
        E 0 90 63 60
        E 120 80 1a 00
        E 0 80 2a 00
        E 0 80 3d 00
        E 0 80 3f 00
        E 0 80 49 00
        E 0 80 4b 00
        E 0 80 55 00
        E 0 80 57 00
        E 0 80 61 00
        E 0 80 63 00
        E 120 90 19 60
        E 0 90 2a 60
        E 0 90 57 60
        E 0 90 63 60
        E 120 80 2a 00
        E 0 80 57 00
        E 0 80 63 00
        E 120 80 19 00
        E 0 90 18 60
        E 0 90 2a 60
        E 0 90 3f 60
        E 0 90 48 60
        E 0 90 4b 60
        E 0 90 54 60
        E 0 90 57 60
        E 0 90 60 60
        E 0 90 63 60
        E 120 80 18 00
        E 0 80 2a 00
        E 0 80 3f 00
        E 0 80 48 00
        E 0 80 4b 00
        E 0 80 54 00
        E 0 80 57 00
        E 0 80 60 00
        E 0 80 63 00
        E 120 90 18 60
        E 0 90 19 60
        E 0 90 2a 60
        E 0 90 54 60
        E 0 90 57 60
        E 0 90 60 60
        E 0 90 63 60
        E 120 80 18 00
        E 0 80 2a 00
        E 0 80 54 00
        E 0 80 57 00
        E 0 80 60 00
        E 0 80 63 00
        E 120 80 19 00
        E 0 90 1a 60
        E 0 90 2a 60
        E 0 90 3d 60
        E 0 90 3f 60
        E 0 90 49 60
        E 0 90 4b 60
        E 0 90 55 60
        E 0 90 57 60
        E 0 90 61 60
        E 0 90 63 60
        E 120 80 1a 00
        E 0 80 2a 00
        E 0 80 3d 00
        E 0 80 3f 00
        E 0 80 49 00
        E 0 80 4b 00
        E 0 80 55 00
        E 0 80 57 00
        E 0 80 61 00
        E 0 80 63 00
        E 120 90 19 60
        E 0 90 2a 60
        E 0 90 57 60
        E 0 90 63 60
        E 120 80 2a 00
        E 0 80 57 00
        E 0 80 63 00
        E 120 80 19 00
        E 0 90 18 60
        E 0 90 2a 60
        E 0 90 3f 60
        E 0 90 48 60
        E 0 90 4b 60
        E 0 90 54 60
        E 0 90 57 60
        E 0 90 60 60
        E 0 90 63 60
        E 0 90 78 60
        E 0 90 79 60
        E 0 90 7a 60
        E 0 90 7b 60
        E 0 90 7c 60
        E 120 80 18 00
        E 0 80 2a 00
        E 0 80 3f 00
        E 0 80 48 00
        E 0 80 4b 00
        E 0 80 54 00
        E 0 80 57 00
        E 0 80 60 00
        E 0 80 63 00
        E 120 90 19 60
        E 0 90 2a 60
        E 0 90 57 60
        E 0 90 63 60
        E 120 80 2a 00
        E 0 80 57 00
        E 0 80 63 00
        E 120 80 19 00
        E 0 90 1a 60
        E 0 90 2a 60
        E 0 90 3d 60
        E 0 90 3f 60
        E 0 90 49 60
        E 0 90 4b 60
        E 0 90 55 60
        E 0 90 57 60
        E 0 90 61 60
        E 0 90 63 60
        E 120 80 1a 00
        E 0 80 2a 00
        E 0 80 3d 00
        E 0 80 3f 00
        E 0 80 49 00
        E 0 80 4b 00
        E 0 80 55 00
        E 0 80 57 00
        E 0 80 61 00
        E 0 80 63 00
        E 120 90 19 60
        E 0 90 2a 60
        E 0 90 57 60
        E 0 90 63 60
        E 120 80 2a 00
        E 0 80 57 00
        E 0 80 63 00
        E 120 80 19 00
        E 0 90 18 60
        E 0 90 2a 60
        E 0 90 3f 60
        E 0 90 48 60
        E 0 90 4b 60
        E 0 90 54 60
        E 0 90 57 60
        E 0 90 60 60
        E 0 90 63 60
        E 120 80 18 00
        E 0 80 2a 00
        E 0 80 3f 00
        E 0 80 48 00
        E 0 80 4b 00
        E 0 80 54 00
        E 0 80 57 00
        E 0 80 60 00
        E 0 80 63 00
        E 120 90 18 60
        E 0 90 19 60
        E 0 90 2a 60
        E 0 90 54 60
        E 0 90 57 60
        E 0 90 60 60
        E 0 90 63 60
        E 120 80 18 00
        E 0 80 2a 00
        E 0 80 54 00
        E 0 80 57 00
        E 0 80 60 00
        E 0 80 63 00
        E 120 80 19 00
        E 0 90 1a 60
        E 0 90 2a 60
        E 0 90 3d 60
        E 0 90 3f 60
        E 0 90 49 60
        E 0 90 4b 60
        E 0 90 55 60
        E 0 90 57 60
        E 0 90 61 60
        E 0 90 63 60
        E 120 80 1a 00
        E 0 80 2a 00
        E 0 80 3d 00
        E 0 80 3f 00
        E 0 80 49 00
        E 0 80 4b 00
        E 0 80 55 00
        E 0 80 57 00
        E 0 80 61 00
        E 0 80 63 00
        E 120 90 18 60
        E 0 90 19 60
        E 0 90 2a 60
        E 0 90 54 60
        E 0 90 57 60
        E 0 90 60 60
        E 0 90 63 60
        E 120 80 18 00
        E 0 80 2a 00
        E 0 80 54 00
        E 0 80 57 00
        E 0 80 60 00
        E 0 80 63 00
        E 120 80 78 00
        E 0 80 79 00
        E 0 80 7a 00
        E 0 80 7b 00
        E 0 80 7c 00
        E 0 80 19 00
        E 0 90 18 60
        E 0 90 1a 60
        E 0 90 2a 60
        E 0 90 3d 60
        E 0 90 3f 60
        E 0 90 49 60
        E 0 90 4b 60
        E 0 90 54 60
        E 0 90 55 60
        E 0 90 57 60
        E 0 90 60 60
        E 0 90 61 60
        E 0 90 63 60
        E 120 80 18 00
        E 0 80 1a 00
        E 0 80 2a 00
        E 0 80 3d 00
        E 0 80 3f 00
        E 0 80 49 00
        E 0 80 4b 00
        E 0 80 54 00
        E 0 80 55 00
        E 0 80 57 00
        E 0 80 60 00
        E 0 80 61 00
        E 0 80 63 00
        E 120 90 18 60
        E 0 90 19 60
        E 0 90 2a 60
        E 0 90 54 60
        E 0 90 57 60
        E 0 90 60 60
        E 0 90 63 60
        E 120 80 18 00
        E 0 80 2a 00
        E 0 80 54 00
        E 0 80 57 00
        E 0 80 60 00
        E 0 80 63 00
        E 120 80 19 00
        E 0 90 1a 60
        E 0 90 2a 60
        E 0 90 3d 60
        E 0 90 3f 60
        E 0 90 49 60
        E 0 90 4b 60
        E 0 90 55 60
        E 0 90 57 60
        E 0 90 61 60
        E 0 90 63 60
        E 120 80 1a 00
        E 0 80 2a 00
        E 0 80 3d 00
        E 0 80 3f 00
        E 0 80 49 00
        E 0 80 4b 00
        E 0 80 55 00
        E 0 80 57 00
        E 0 80 61 00
        E 0 80 63 00
        E 120 90 18 60
        E 0 90 19 60
        E 0 90 2a 60
        E 0 90 54 60
        E 0 90 57 60
        E 0 90 60 60
        E 0 90 63 60
        E 120 80 18 00
        E 0 80 2a 00
        E 0 80 54 00
        E 0 80 57 00
        E 0 80 60 00
        E 0 80 63 00
        E 120 80 19 00
        E 0 90 1a 60
        E 0 90 2a 60
        E 0 90 3d 60
        E 0 90 3f 60
        E 0 90 49 60
        E 0 90 4b 60
        E 0 90 55 60
        E 0 90 57 60
        E 0 90 61 60
        E 0 90 63 60
        E 120 80 1a 00
        E 0 80 2a 00
        E 0 80 3d 00
        E 0 80 3f 00
        E 0 80 49 00
        E 0 80 4b 00
        E 0 80 55 00
        E 0 80 57 00
        E 0 80 61 00
        E 0 80 63 00
        E 120 90 18 60
        E 0 90 19 60
        E 0 90 2a 60
        E 0 90 54 60
        E 0 90 57 60
        E 0 90 60 60
        E 0 90 63 60
        E 120 80 18 00
        E 0 80 2a 00
        E 0 80 54 00
        E 0 80 57 00
        E 0 80 60 00
        E 0 80 63 00
        E 120 80 19 00
        E 0 90 1a 60
        E 0 90 2a 60
        E 0 90 3d 60
        E 0 90 3f 60
        E 0 90 49 60
        E 0 90 4b 60
        E 0 90 55 60
        E 0 90 57 60
        E 0 90 61 60
        E 0 90 63 60
        E 120 80 1a 00
        E 0 80 2a 00
        E 0 80 3d 00
        E 0 80 3f 00
        E 0 80 49 00
        E 0 80 4b 00
        E 0 80 55 00
        E 0 80 57 00
        E 0 80 61 00
        E 0 80 63 00
        E 120 90 18 60
        E 0 90 19 60
        E 0 90 2a 60
        E 0 90 54 60
        E 0 90 57 60
        E 0 90 60 60
        E 0 90 63 60
        E 120 80 18 00
        E 0 80 2a 00
        E 0 80 54 00
        E 0 80 57 00
        E 0 80 60 00
        E 0 80 63 00
        E 120 80 19 00
        E 0 90 18 60
        E 0 90 1a 60
        E 0 90 2a 60
        E 0 90 3d 60
        E 0 90 3f 60
        E 0 90 49 60
        E 0 90 4b 60
        E 0 90 54 60
        E 0 90 55 60
        E 0 90 57 60
        E 0 90 60 60
        E 0 90 61 60
        E 0 90 63 60
        E 120 80 18 00
        E 0 80 1a 00
        E 0 80 2a 00
        E 0 80 3d 00
        E 0 80 3f 00
        E 0 80 49 00
        E 0 80 4b 00
        E 0 80 54 00
        E 0 80 55 00
        E 0 80 57 00
        E 0 80 60 00
        E 0 80 61 00
        E 0 80 63 00
        E 120 90 18 60
        E 0 90 19 60
        E 0 90 2a 60
        E 0 90 54 60
        E 0 90 57 60
        E 0 90 60 60
        E 0 90 63 60
        E 120 80 18 00
        E 0 80 2a 00
        E 0 80 54 00
        E 0 80 57 00
        E 0 80 60 00
        E 0 80 63 00
        E 120 80 19 00
        E 0 90 1a 60
        E 0 90 2a 60
        E 0 90 3d 60
        E 0 90 3f 60
        E 0 90 49 60
        E 0 90 4b 60
        E 0 90 55 60
        E 0 90 57 60
        E 0 90 61 60
        E 0 90 63 60
        E 120 80 1a 00
        E 0 80 2a 00
        E 0 80 3d 00
        E 0 80 3f 00
        E 0 80 49 00
        E 0 80 4b 00
        E 0 80 55 00
        E 0 80 57 00
        E 0 80 61 00
        E 0 80 63 00
        E 120 90 18 60
        E 0 90 19 60
        E 0 90 2a 60
        E 0 90 54 60
        E 0 90 57 60
        E 0 90 60 60
        E 0 90 63 60
        E 120 80 18 00
        E 0 80 2a 00
        E 0 80 54 00
        E 0 80 57 00
        E 0 80 60 00
        E 0 80 63 00
        E 120 80 19 00
        E 0 90 18 60
        E 0 90 2a 60
        E 0 90 3f 60
        E 0 90 48 60
        E 0 90 4b 60
        E 0 90 54 60
        E 0 90 57 60
        E 0 90 60 60
        E 0 90 63 60
        E 120 80 18 00
        E 0 80 2a 00
        E 0 80 3f 00
        E 0 80 48 00
        E 0 80 4b 00
        E 0 80 54 00
        E 0 80 57 00
        E 0 80 60 00
        E 0 80 63 00
        E 120 90 19 60
        E 0 90 1a 60
        E 0 90 2a 60
        E 0 90 55 60
        E 0 90 57 60
        E 0 90 61 60
        E 0 90 63 60
        E 120 80 1a 00
        E 0 80 2a 00
        E 0 80 55 00
        E 0 80 57 00
        E 0 80 61 00
        E 0 80 63 00
        E 120 80 19 00
        E 0 90 1a 60
        E 0 90 2a 60
        E 0 90 3d 60
        E 0 90 3f 60
        E 0 90 49 60
        E 0 90 4b 60
        E 0 90 55 60
        E 0 90 57 60
        E 0 90 61 60
        E 0 90 63 60
        E 120 80 1a 00
        E 0 80 2a 00
        E 0 80 3d 00
        E 0 80 3f 00
        E 0 80 49 00
        E 0 80 4b 00
        E 0 80 55 00
        E 0 80 57 00
        E 0 80 61 00
        E 0 80 63 00
        E 120 90 18 60
        E 0 90 19 60
        E 0 90 2a 60
        E 0 90 54 60
        E 0 90 57 60
        E 0 90 60 60
        E 0 90 63 60
        E 120 80 18 00
        E 0 80 2a 00
        E 0 80 54 00
        E 0 80 57 00
        E 0 80 60 00
        E 0 80 63 00
        E 120 80 19 00
        E 0 90 18 60
        E 0 90 1a 60
        E 0 90 2a 60
        E 0 90 3d 60
        E 0 90 3f 60
        E 0 90 49 60
        E 0 90 4b 60
        E 0 90 54 60
        E 0 90 55 60
        E 0 90 57 60
        E 0 90 60 60
        E 0 90 61 60
        E 0 90 63 60
        E 0 90 74 60
        E 120 80 18 00
        E 0 80 1a 00
        E 0 80 2a 00
        E 0 80 3d 00
        E 0 80 3f 00
        E 0 80 49 00
        E 0 80 4b 00
        E 0 80 54 00
        E 0 80 55 00
        E 0 80 57 00
        E 0 80 60 00
        E 0 80 61 00
        E 0 80 63 00
        E 120 90 18 60
        E 0 90 19 60
        E 0 90 2a 60
        E 0 90 54 60
        E 0 90 57 60
        E 0 90 60 60
        E 0 90 63 60
        E 120 80 18 00
        E 0 80 2a 00
        E 0 80 54 00
        E 0 80 57 00
        E 0 80 60 00
        E 0 80 63 00
        E 120 80 19 00
        E 0 90 1a 60
        E 0 90 2a 60
        E 0 90 3d 60
        E 0 90 3f 60
        E 0 90 49 60
        E 0 90 4b 60
        E 0 90 55 60
        E 0 90 57 60
        E 0 90 61 60
        E 0 90 63 60
        E 120 80 1a 00
        E 0 80 2a 00
        E 0 80 3d 00
        E 0 80 3f 00
        E 0 80 49 00
        E 0 80 4b 00
        E 0 80 55 00
        E 0 80 57 00
        E 0 80 61 00
        E 0 80 63 00
        E 120 90 18 60
        E 0 90 19 60
        E 0 90 2a 60
        E 0 90 54 60
        E 0 90 57 60
        E 0 90 60 60
        E 0 90 63 60
        E 120 80 18 00
        E 0 80 2a 00
        E 0 80 54 00
        E 0 80 57 00
        E 0 80 60 00
        E 0 80 63 00
        E 120 80 19 00
        E 0 90 1a 60
        E 0 90 2a 60
        E 0 90 3d 60
        E 0 90 3f 60
        E 0 90 49 60
        E 0 90 4b 60
        E 0 90 55 60
        E 0 90 57 60
        E 0 90 61 60
        E 0 90 63 60
        E 120 80 1a 00
        E 0 80 2a 00
        E 0 80 3d 00
        E 0 80 3f 00
        E 0 80 49 00
        E 0 80 4b 00
        E 0 80 55 00
        E 0 80 57 00
        E 0 80 61 00
        E 0 80 63 00
        E 120 90 18 60
        E 0 90 19 60
        E 0 90 2a 60
        E 0 90 54 60
        E 0 90 57 60
        E 0 90 60 60
        E 0 90 63 60
        E 120 80 18 00
        E 0 80 2a 00
        E 0 80 54 00
        E 0 80 57 00
        E 0 80 60 00
        E 0 80 63 00
        E 120 80 19 00
        E 0 90 1a 60
        E 0 90 2a 60
        E 0 90 3d 60
        E 0 90 3f 60
        E 0 90 49 60
        E 0 90 4b 60
        E 0 90 55 60
        E 0 90 57 60
        E 0 90 61 60
        E 0 90 63 60
        E 120 80 1a 00
        E 0 80 2a 00
        E 0 80 3d 00
        E 0 80 3f 00
        E 0 80 49 00
        E 0 80 4b 00
        E 0 80 55 00
        E 0 80 57 00
        E 0 80 61 00
        E 0 80 63 00
        E 120 90 18 60
        E 0 90 19 60
        E 0 90 2a 60
        E 0 90 54 60
        E 0 90 57 60
        E 0 90 60 60
        E 0 90 63 60
        E 120 80 18 00
        E 0 80 2a 00
        E 0 80 54 00
        E 0 80 57 00
        E 0 80 60 00
        E 0 80 63 00
        E 120 80 19 00
        E 0 90 18 60
        E 0 90 1a 60
        E 0 90 2a 60
        E 0 90 3d 60
        E 0 90 3f 60
        E 0 90 49 60
        E 0 90 4b 60
        E 0 90 54 60
        E 0 90 55 60
        E 0 90 57 60
        E 0 90 60 60
        E 0 90 61 60
        E 0 90 63 60
        E 0 90 78 60
        E 0 90 79 60
        E 0 90 7a 60
        E 0 90 7b 60
        E 0 90 7c 60
        E 120 80 74 00
        E 0 80 18 00
        E 0 80 1a 00
        E 0 80 2a 00
        E 0 80 3d 00
        E 0 80 3f 00
        E 0 80 49 00
        E 0 80 4b 00
        E 0 80 54 00
        E 0 80 55 00
        E 0 80 57 00
        E 0 80 60 00
        E 0 80 61 00
        E 0 80 63 00
        E 120 90 18 60
        E 0 90 19 60
        E 0 90 2a 60
        E 0 90 54 60
        E 0 90 57 60
        E 0 90 60 60
        E 0 90 63 60
        E 120 80 18 00
        E 0 80 2a 00
        E 0 80 54 00
        E 0 80 57 00
        E 0 80 60 00
        E 0 80 63 00
        E 120 80 19 00
        E 0 90 1a 60
        E 0 90 2a 60
        E 0 90 3d 60
        E 0 90 3f 60
        E 0 90 49 60
        E 0 90 4b 60
        E 0 90 55 60
        E 0 90 57 60
        E 0 90 61 60
        E 0 90 63 60
        E 120 80 1a 00
        E 0 80 2a 00
        E 0 80 3d 00
        E 0 80 3f 00
        E 0 80 49 00
        E 0 80 4b 00
        E 0 80 55 00
        E 0 80 57 00
        E 0 80 61 00
        E 0 80 63 00
        E 120 90 18 60
        E 0 90 19 60
        E 0 90 2a 60
        E 0 90 54 60
        E 0 90 57 60
        E 0 90 60 60
        E 0 90 63 60
        E 120 80 18 00
        E 0 80 2a 00
        E 0 80 54 00
        E 0 80 57 00
        E 0 80 60 00
        E 0 80 63 00
        E 120 80 19 00
        E 0 90 18 60
        E 0 90 2a 60
        E 0 90 3f 60
        E 0 90 48 60
        E 0 90 4b 60
        E 0 90 54 60
        E 0 90 57 60
        E 0 90 60 60
        E 0 90 63 60
        E 120 80 18 00
        E 0 80 2a 00
        E 0 80 3f 00
        E 0 80 48 00
        E 0 80 4b 00
        E 0 80 54 00
        E 0 80 57 00
        E 0 80 60 00
        E 0 80 63 00
        E 120 90 19 60
        E 0 90 1a 60
        E 0 90 2a 60
        E 0 90 55 60
        E 0 90 57 60
        E 0 90 61 60
        E 0 90 63 60
        E 120 80 1a 00
        E 0 80 2a 00
        E 0 80 55 00
        E 0 80 57 00
        E 0 80 61 00
        E 0 80 63 00
        E 120 80 19 00
        E 0 90 1a 60
        E 0 90 2a 60
        E 0 90 3d 60
        E 0 90 3f 60
        E 0 90 49 60
        E 0 90 4b 60
        E 0 90 55 60
        E 0 90 57 60
        E 0 90 61 60
        E 0 90 63 60
        E 120 80 1a 00
        E 0 80 2a 00
        E 0 80 3d 00
        E 0 80 3f 00
        E 0 80 49 00
        E 0 80 4b 00
        E 0 80 55 00
        E 0 80 57 00
        E 0 80 61 00
        E 0 80 63 00
        E 120 90 18 60
        E 0 90 19 60
        E 0 90 2a 60
        E 0 90 54 60
        E 0 90 57 60
        E 0 90 60 60
        E 0 90 63 60
        E 120 80 18 00
        E 0 80 2a 00
        E 0 80 54 00
        E 0 80 57 00
        E 0 80 60 00
        E 0 80 63 00
        E 120 80 78 00
        E 0 80 79 00
        E 0 80 7a 00
        E 0 80 7b 00
        E 0 80 7c 00
        E 0 80 19 00
        E 0 90 18 60
        E 0 90 1a 60
        E 0 90 2a 60
        E 0 90 3d 60
        E 0 90 3f 60
        E 0 90 49 60
        E 0 90 4b 60
        E 0 90 54 60
        E 0 90 55 60
        E 0 90 57 60
        E 0 90 60 60
        E 0 90 61 60
        E 0 90 63 60
        E 120 80 18 00
        E 0 80 1a 00
        E 0 80 2a 00
        E 0 80 3d 00
        E 0 80 3f 00
        E 0 80 49 00
        E 0 80 4b 00
        E 0 80 54 00
        E 0 80 55 00
        E 0 80 57 00
        E 0 80 60 00
        E 0 80 61 00
        E 0 80 63 00
        E 120 90 18 60
        E 0 90 19 60
        E 0 90 2a 60
        E 0 90 54 60
        E 0 90 57 60
        E 0 90 60 60
        E 0 90 63 60
        E 120 80 18 00
        E 0 80 2a 00
        E 0 80 54 00
        E 0 80 57 00
        E 0 80 60 00
        E 0 80 63 00
        E 120 80 19 00
        E 0 90 1a 60
        E 0 90 2a 60
        E 0 90 3d 60
        E 0 90 3f 60
        E 0 90 49 60
        E 0 90 4b 60
        E 0 90 55 60
        E 0 90 57 60
        E 0 90 61 60
        E 0 90 63 60
        E 120 80 1a 00
        E 0 80 2a 00
        E 0 80 3d 00
        E 0 80 3f 00
        E 0 80 49 00
        E 0 80 4b 00
        E 0 80 55 00
        E 0 80 57 00
        E 0 80 61 00
        E 0 80 63 00
        E 120 90 18 60
        E 0 90 19 60
        E 0 90 2a 60
        E 0 90 54 60
        E 0 90 57 60
        E 0 90 60 60
        E 0 90 63 60
        E 120 80 18 00
        E 0 80 2a 00
        E 0 80 54 00
        E 0 80 57 00
        E 0 80 60 00
        E 0 80 63 00
        E 120 80 19 00
        E 0 90 1a 60
        E 0 90 2a 60
        E 0 90 3d 60
        E 0 90 3f 60
        E 0 90 49 60
        E 0 90 4b 60
        E 0 90 55 60
        E 0 90 57 60
        E 0 90 61 60
        E 0 90 63 60
        E 120 80 1a 00
        E 0 80 2a 00
        E 0 80 3d 00
        E 0 80 3f 00
        E 0 80 49 00
        E 0 80 4b 00
        E 0 80 55 00
        E 0 80 57 00
        E 0 80 61 00
        E 0 80 63 00
        E 120 90 18 60
        E 0 90 19 60
        E 0 90 2a 60
        E 0 90 54 60
        E 0 90 57 60
        E 0 90 60 60
        E 0 90 63 60
        E 120 80 18 00
        E 0 80 2a 00
        E 0 80 54 00
        E 0 80 57 00
        E 0 80 60 00
        E 0 80 63 00
        E 120 80 19 00
        E 0 90 1a 60
        E 0 90 2a 60
        E 0 90 3d 60
        E 0 90 3f 60
        E 0 90 49 60
        E 0 90 4b 60
        E 0 90 55 60
        E 0 90 57 60
        E 0 90 61 60
        E 0 90 63 60
        E 120 80 1a 00
        E 0 80 2a 00
        E 0 80 3d 00
        E 0 80 3f 00
        E 0 80 49 00
        E 0 80 4b 00
        E 0 80 55 00
        E 0 80 57 00
        E 0 80 61 00
        E 0 80 63 00
        E 120 90 18 60
        E 0 90 19 60
        E 0 90 2a 60
        E 0 90 54 60
        E 0 90 57 60
        E 0 90 60 60
        E 0 90 63 60
        E 120 80 18 00
        E 0 80 2a 00
        E 0 80 54 00
        E 0 80 57 00
        E 0 80 60 00
        E 0 80 63 00
        E 120 80 19 00
        E 0 90 18 60
        E 0 90 1a 60
        E 0 90 2a 60
        E 0 90 3d 60
        E 0 90 3f 60
        E 0 90 49 60
        E 0 90 4b 60
        E 0 90 54 60
        E 0 90 55 60
        E 0 90 57 60
        E 0 90 60 60
        E 0 90 61 60
        E 0 90 63 60
        E 120 80 18 00
        E 0 80 1a 00
        E 0 80 2a 00
        E 0 80 3d 00
        E 0 80 3f 00
        E 0 80 49 00
        E 0 80 4b 00
        E 0 80 54 00
        E 0 80 55 00
        E 0 80 57 00
        E 0 80 60 00
        E 0 80 61 00
        E 0 80 63 00
        E 120 90 18 60
        E 0 90 19 60
        E 0 90 2a 60
        E 0 90 54 60
        E 0 90 57 60
        E 0 90 60 60
        E 0 90 63 60
        E 120 80 18 00
        E 0 80 2a 00
        E 0 80 54 00
        E 0 80 57 00
        E 0 80 60 00
        E 0 80 63 00
        E 120 80 19 00
        E 0 90 1a 60
        E 0 90 2a 60
        E 0 90 3d 60
        E 0 90 3f 60
        E 0 90 49 60
        E 0 90 4b 60
        E 0 90 55 60
        E 0 90 57 60
        E 0 90 61 60
        E 0 90 63 60
        E 120 80 1a 00
        E 0 80 2a 00
        E 0 80 3d 00
        E 0 80 3f 00
        E 0 80 49 00
        E 0 80 4b 00
        E 0 80 55 00
        E 0 80 57 00
        E 0 80 61 00
        E 0 80 63 00
        E 120 90 18 60
        E 0 90 19 60
        E 0 90 2a 60
        E 0 90 54 60
        E 0 90 57 60
        E 0 90 60 60
        E 0 90 63 60
        E 120 80 18 00
        E 0 80 2a 00
        E 0 80 54 00
        E 0 80 57 00
        E 0 80 60 00
        E 0 80 63 00
        E 120 80 19 00
        E 0 90 18 60
        E 0 90 2a 60
        E 0 90 3f 60
        E 0 90 48 60
        E 0 90 4b 60
        E 0 90 54 60
        E 0 90 57 60
        E 0 90 60 60
        E 0 90 63 60
        E 120 80 18 00
        E 0 80 2a 00
        E 0 80 3f 00
        E 0 80 48 00
        E 0 80 4b 00
        E 0 80 54 00
        E 0 80 57 00
        E 0 80 60 00
        E 0 80 63 00
        E 120 90 19 60
        E 0 90 1a 60
        E 0 90 2a 60
        E 0 90 55 60
        E 0 90 57 60
        E 0 90 61 60
        E 0 90 63 60
        E 120 80 1a 00
        E 0 80 2a 00
        E 0 80 55 00
        E 0 80 57 00
        E 0 80 61 00
        E 0 80 63 00
        E 120 80 19 00
        E 0 90 1a 60
        E 0 90 2a 60
        E 0 90 3d 60
        E 0 90 3f 60
        E 0 90 49 60
        E 0 90 4b 60
        E 0 90 55 60
        E 0 90 57 60
        E 0 90 61 60
        E 0 90 63 60
        E 120 80 1a 00
        E 0 80 2a 00
        E 0 80 3d 00
        E 0 80 3f 00
        E 0 80 49 00
        E 0 80 4b 00
        E 0 80 55 00
        E 0 80 57 00
        E 0 80 61 00
        E 0 80 63 00
        E 120 90 18 60
        E 0 90 19 60
        E 0 90 2a 60
        E 0 90 54 60
        E 0 90 57 60
        E 0 90 60 60
        E 0 90 63 60
        E 120 80 18 00
        E 0 80 2a 00
        E 0 80 54 00
        E 0 80 57 00
        E 0 80 60 00
        E 0 80 63 00
        E 120 80 19 00
        E 0 90 18 60
        E 0 90 2a 60
        E 0 90 3f 60
        E 0 90 48 60
        E 0 90 4b 60
        E 0 90 54 60
        E 0 90 57 60
        E 0 90 60 60
        E 0 90 63 60
        E 120 80 18 00
        E 0 80 2a 00
        E 0 80 3f 00
        E 0 80 48 00
        E 0 80 4b 00
        E 0 80 54 00
        E 0 80 57 00
        E 0 80 60 00
        E 0 80 63 00
        E 120 90 19 60
        E 0 90 2a 60
        E 0 90 57 60
        E 0 90 63 60
        E 120 80 2a 00
        E 0 80 57 00
        E 0 80 63 00
        E 120 80 19 00
        E 0 90 1a 60
        E 0 90 2a 60
        E 0 90 3d 60
        E 0 90 3f 60
        E 0 90 49 60
        E 0 90 4b 60
        E 0 90 55 60
        E 0 90 57 60
        E 0 90 61 60
        E 0 90 63 60
        E 120 80 1a 00
        E 0 80 2a 00
        E 0 80 3d 00
        E 0 80 3f 00
        E 0 80 49 00
        E 0 80 4b 00
        E 0 80 55 00
        E 0 80 57 00
        E 0 80 61 00
        E 0 80 63 00
        E 120 90 19 60
        E 0 90 2a 60
        E 0 90 57 60
        E 0 90 63 60
        E 120 80 2a 00
        E 0 80 57 00
        E 0 80 63 00
        E 120 80 19 00
        E 0 90 18 60
        E 0 90 2a 60
        E 0 90 3f 60
        E 0 90 48 60
        E 0 90 4b 60
        E 0 90 54 60
        E 0 90 57 60
        E 0 90 60 60
        E 0 90 63 60
        E 120 80 18 00
        E 0 80 2a 00
        E 0 80 3f 00
        E 0 80 48 00
        E 0 80 4b 00
        E 0 80 54 00
        E 0 80 57 00
        E 0 80 60 00
        E 0 80 63 00
        E 120 90 18 60
        E 0 90 19 60
        E 0 90 2a 60
        E 0 90 54 60
        E 0 90 57 60
        E 0 90 60 60
        E 0 90 63 60
        E 120 80 18 00
        E 0 80 2a 00
        E 0 80 54 00
        E 0 80 57 00
        E 0 80 60 00
        E 0 80 63 00
        E 120 80 19 00
        E 0 90 1a 60
        E 0 90 2a 60
        E 0 90 3d 60
        E 0 90 3f 60
        E 0 90 49 60
        E 0 90 4b 60
        E 0 90 55 60
        E 0 90 57 60
        E 0 90 61 60
        E 0 90 63 60
        E 120 80 1a 00
        E 0 80 2a 00
        E 0 80 3d 00
        E 0 80 3f 00
        E 0 80 49 00
        E 0 80 4b 00
        E 0 80 55 00
        E 0 80 57 00
        E 0 80 61 00
        E 0 80 63 00
        E 120 90 18 60
        E 0 90 19 60
        E 0 90 2a 60
        E 0 90 54 60
        E 0 90 57 60
        E 0 90 60 60
        E 0 90 63 60
        E 120 80 18 00
        E 0 80 2a 00
        E 0 80 54 00
        E 0 80 57 00
        E 0 80 60 00
        E 0 80 63 00
        E 120 80 19 00
        E 0 90 18 60
        E 0 90 2a 60
        E 0 90 3f 60
        E 0 90 48 60
        E 0 90 4b 60
        E 0 90 54 60
        E 0 90 57 60
        E 0 90 60 60
        E 0 90 63 60
        E 120 80 18 00
        E 0 80 2a 00
        E 0 80 3f 00
        E 0 80 48 00
        E 0 80 4b 00
        E 0 80 54 00
        E 0 80 57 00
        E 0 80 60 00
        E 0 80 63 00
        E 120 90 19 60
        E 0 90 1a 60
        E 0 90 2a 60
        E 0 90 55 60
        E 0 90 57 60
        E 0 90 61 60
        E 0 90 63 60
        E 120 80 1a 00
        E 0 80 2a 00
        E 0 80 55 00
        E 0 80 57 00
        E 0 80 61 00
        E 0 80 63 00
        E 120 80 19 00
        E 0 90 1a 60
        E 0 90 2a 60
        E 0 90 3d 60
        E 0 90 3f 60
        E 0 90 49 60
        E 0 90 4b 60
        E 0 90 55 60
        E 0 90 57 60
        E 0 90 61 60
        E 0 90 63 60
        E 120 80 1a 00
        E 0 80 2a 00
        E 0 80 3d 00
        E 0 80 3f 00
        E 0 80 49 00
        E 0 80 4b 00
        E 0 80 55 00
        E 0 80 57 00
        E 0 80 61 00
        E 0 80 63 00
        E 120 90 18 60
        E 0 90 19 60
        E 0 90 2a 60
        E 0 90 54 60
        E 0 90 57 60
        E 0 90 60 60
        E 0 90 63 60
        E 120 80 18 00
        E 0 80 2a 00
        E 0 80 54 00
        E 0 80 57 00
        E 0 80 60 00
        E 0 80 63 00
        E 120 80 19 00
        E 0 90 18 60
        E 0 90 2a 60
        E 0 90 3f 60
        E 0 90 48 60
        E 0 90 4b 60
        E 0 90 54 60
        E 0 90 57 60
        E 0 90 60 60
        E 0 90 63 60
        E 120 80 18 00
        E 0 80 2a 00
        E 0 80 3f 00
        E 0 80 48 00
        E 0 80 4b 00
        E 0 80 54 00
        E 0 80 57 00
        E 0 80 60 00
        E 0 80 63 00
        E 120 90 19 60
        E 0 90 1a 60
        E 0 90 2a 60
        E 0 90 55 60
        E 0 90 57 60
        E 0 90 61 60
        E 0 90 63 60
        E 120 80 1a 00
        E 0 80 2a 00
        E 0 80 55 00
        E 0 80 57 00
        E 0 80 61 00
        E 0 80 63 00
        E 120 80 19 00
        E 0 90 1a 60
        E 0 90 2a 60
        E 0 90 3d 60
        E 0 90 3f 60
        E 0 90 49 60
        E 0 90 4b 60
        E 0 90 55 60
        E 0 90 57 60
        E 0 90 61 60
        E 0 90 63 60
        E 120 80 1a 00
        E 0 80 2a 00
        E 0 80 3d 00
        E 0 80 3f 00
        E 0 80 49 00
        E 0 80 4b 00
        E 0 80 55 00
        E 0 80 57 00
        E 0 80 61 00
        E 0 80 63 00
        <X 359 0
          /wFbaWRsZV9yZWFsdGltZV0=
        >
        E 5761 b0 7b 00
        GUID {3FA5D5A6-17CB-4392-985A-AE3FD1519AD4}
        IGNTEMPO 0 120.00000000 4 4
        SRCCOLOR 1
        VELLANE 132 71 60
        COLORMAP "C:\Program Files\REAPER (x64)\Data\color_maps\rockband_guitarbass.png"
        CFGEDITVIEW 0.000000 4.956522 0 12 0 0 0
        CFGEDIT 1 1 0 1 1 0 1 1 1 1 1 0.25000000 100 100 1200 800 0 2 2 1 0.00000000 0 1 1 0 0.500000 0 0 1.000000 64
        KEYSNAP 0 6 "102030050700" 0 "Pentatonic"
        EVTFILTER 0 -1 -1 -1 -1 0 1 0 0 -1.00000000 -1.00000000
      >
    >
  >
  <TRACK '{B8364F77-3F5E-43A3-B1E2-0C1F153F7B99}'
    NAME "PART BASS"
    PEAKCOL 16576
    BEAT -1
    AUTOMODE 0
    VOLPAN 1.00000000000000 0.00000000000000 -1.00000000000000 -1.00000000000000 1.00000000000000
    MUTESOLO 0 0 0
    IPHASE 0
    ISBUS 0 0
    BUSCOMP 0 0
    SHOWINMIX 1 0.666700 0.500000 1 0.500000 -1 -1 -1
    FREEMODE 0
    SEL 0
    REC 0 0 0 0 0 0 0
    VU 2
    TRACKHEIGHT 0 0
    INQ 0 0 0 0.5000000000 100 0 0 100
    NCHAN 2
    FX 1
    TRACKID {B8364F77-3F5E-43A3-B1E2-0C1F153F7B99}
    PERF 0
    MIDIOUT -1
    <MIDINOTENAMES
      0 127 "TRILL MARKER"
      0 126 "TREMOLO MARKER"
      0 125 "---"
      0 124 "BRE"
      0 123 "BRE"
      0 122 "BRE"
      0 121 "BRE"
      0 120 "BRE (use all 5)"
      0 119 "----"
      0 116 "OVERDRIVE"
      0 115 "----"
      0 103 "Solo Marker"
      0 102 "Force HOPO Off"
      0 101 "Force HOPO On"
      0 100 "EXPERT Orange"
      0 99 "EXPERT Blue"
      0 98 "EXPERT Yellow"
      0 97 "EXPERT Red"
      0 96 "EXPERT Green"
      0 95 "----"
      0 90 "Force HOPO Off"
      0 89 "Force HOPO On"
      0 88 "HARD Orange"
      0 87 "HARD Blue"
      0 86 "HARD Yellow"
      0 85 "HARD Red"
      0 84 "HARD Green"
      0 77 "----"
      0 76 "MEDIUM Orange"
      0 75 "MEDIUM Blue"
      0 74 "MEDIUM Yellow"
      0 73 "MEDIUM Red"
      0 72 "MEDIUM Green"
      0 65 "----"
      0 64 "EASY Orange"
      0 63 "EASY Blue"
      0 62 "EASY Yellow"
      0 61 "EASY Red"
      0 60 "EASY Green"
      0 59 "Fret 12"
      0 57 "Fret 11"
      0 56 "Fret 10"
      0 55 "Fret 9"
      0 53 "Fret 8"
      0 52 "Fret 7"
      0 50 "Fret 6"
      0 49 "Fret 5"
      0 47 "Fret 4"
      0 45 "Fret 3"
      0 43 "Fret 2"
      0 40 "Fret 1"
    >
    MAINSEND 1 0
    <FXCHAIN
      WNDRECT 0 43 891 559
      SHOW 0
      LASTSEL 0
      DOCKED 0
      BYPASS 0 0
      <VST "VSTi: RBN Preview (RBN)" "rbprev_vst64.dll" 0 ""
        dnBicu5e7f4AAAAAAgAAAAEAAAAAAAAAAgAAAAAAAAAEAAAAAQAAAA==
        AAAQAAMAqgAAABAAAAA=
      >
      FLOATPOS 0 0 0 0
      FXID {ED4B8234-04BF-48B7-A8DC-15016D8BAB06}
      WAK 0
    >
    <ITEM
      POSITION 0.00000000000000
      SNAPOFFS 0.00000000000000
      LENGTH 144.00000000000000
      LOOP 0
      ALLTAKES 0
      SEL 0
      FADEIN 1 0.000000 0.000000 1 0
      FADEOUT 1 0.000000 0.000000 1 0
      MUTE 0
      IGUID {3CCC7059-0DB0-4B12-8EE4-7D2D4BABF098}
      IID 2
      NAME "PART BASS"
      VOLPAN 1.000000 0.000000 1.000000 -1.000000
      SOFFS 0.00000000000000 0.00000000000000
      PLAYRATE 1.00000000000000 1 0.00000000000000 -1
      CHANMODE 0
      GUID {7E63A497-DC1C-4ABE-BBCB-01E4BC3C8C2D}
      <SOURCE MIDI
        HASDATA 1 480 QN
        POOLEDEVTS {3EE07D18-6090-46E0-9108-916C089E15CE}
        <X 0 0
          /wNQQVJUIEJBU1M=
        >
        <X 0 0
          /wFbbWFwIFN0cnVtTWFwX1BpY2td
        >
        <X 3720 0
          /wFbcGxheV0=
        >
        E 120 90 2f 60
        E 0 90 3c 60
        E 0 90 49 60
        E 0 90 55 60
        E 0 90 61 60
        E 120 80 3c 00
        E 0 80 49 00
        E 0 80 55 00
        E 0 80 61 00
        E 0 90 61 60
        E 120 80 61 00
        E 0 90 49 60
        E 0 90 55 60
        E 0 90 61 60
        E 120 80 49 00
        E 0 80 55 00
        E 0 80 61 00
        E 0 90 61 60
        E 120 80 61 00
        E 0 90 3c 60
        E 0 90 49 60
        E 0 90 55 60
        E 0 90 61 60
        E 120 80 3c 00
        E 0 80 49 00
        E 0 80 55 00
        E 0 80 61 00
        E 0 90 61 60
        E 120 80 61 00
        E 0 90 49 60
        E 0 90 55 60
        E 0 90 61 60
        E 120 80 49 00
        E 0 80 55 00
        E 0 80 61 00
        E 0 90 61 60
        E 120 80 61 00
        E 0 90 3c 60
        E 0 90 49 60
        E 0 90 55 60
        E 0 90 61 60
        E 120 80 3c 00
        E 0 80 49 00
        E 0 80 55 00
        E 0 80 61 00
        E 0 90 61 60
        E 120 80 61 00
        E 0 90 49 60
        E 0 90 55 60
        E 0 90 61 60
        E 120 80 49 00
        E 0 80 55 00
        E 0 80 61 00
        E 0 90 61 60
        E 120 80 61 00
        E 0 90 3c 60
        E 0 90 49 60
        E 0 90 55 60
        E 0 90 61 60
        E 120 80 3c 00
        E 0 80 49 00
        E 0 80 55 00
        E 0 80 61 00
        E 0 90 61 60
        E 120 80 61 00
        E 0 90 49 60
        E 0 90 55 60
        E 0 90 61 60
        E 120 80 49 00
        E 0 80 55 00
        E 0 80 61 00
        E 0 90 61 60
        E 120 80 61 00
        E 0 90 3c 60
        E 0 90 49 60
        E 0 90 55 60
        E 0 90 61 60
        E 120 80 3c 00
        E 0 80 49 00
        E 0 80 55 00
        E 0 80 61 00
        E 0 90 61 60
        E 120 80 61 00
        E 0 90 49 60
        E 0 90 55 60
        E 0 90 61 60
        E 120 80 49 00
        E 0 80 55 00
        E 0 80 61 00
        E 0 90 61 60
        E 120 80 61 00
        E 0 90 49 60
        E 0 90 55 60
        E 0 90 61 60
        E 120 80 49 00
        E 0 80 55 00
        E 0 80 61 00
        E 0 90 61 60
        E 120 80 61 00
        E 0 90 55 60
        E 0 90 61 60
        E 120 80 55 00
        E 0 80 61 00
        E 0 90 61 60
        E 120 80 61 00
        E 0 90 3d 60
        E 0 90 4a 60
        E 0 90 56 60
        E 0 90 62 60
        E 120 80 3d 00
        E 0 80 4a 00
        E 0 80 56 00
        E 0 80 62 00
        E 0 90 62 60
        E 120 80 62 00
        E 0 90 4a 60
        E 0 90 56 60
        E 0 90 62 60
        E 120 80 4a 00
        E 0 80 56 00
        E 0 80 62 00
        E 0 90 62 60
        E 120 80 62 00
        E 0 90 3d 60
        E 0 90 4a 60
        E 0 90 56 60
        E 0 90 62 60
        E 120 80 3d 00
        E 0 80 4a 00
        E 0 80 56 00
        E 0 80 62 00
        E 0 90 62 60
        E 120 80 62 00
        E 0 90 4a 60
        E 0 90 56 60
        E 0 90 62 60
        E 120 80 4a 00
        E 0 80 56 00
        E 0 80 62 00
        E 0 90 62 60
        E 120 80 62 00
        E 0 90 3d 60
        E 0 90 4a 60
        E 0 90 56 60
        E 0 90 62 60
        E 120 80 3d 00
        E 0 80 4a 00
        E 0 80 56 00
        E 0 80 62 00
        E 0 90 62 60
        E 120 80 62 00
        E 0 90 4a 60
        E 0 90 56 60
        E 0 90 62 60
        E 120 80 4a 00
        E 0 80 56 00
        E 0 80 62 00
        E 0 90 62 60
        E 120 80 62 00
        E 0 90 4a 60
        E 0 90 56 60
        E 0 90 62 60
        E 120 80 4a 00
        E 0 80 56 00
        E 0 80 62 00
        E 0 90 62 60
        E 120 80 62 00
        E 0 90 56 60
        E 0 90 62 60
        E 120 80 56 00
        E 0 80 62 00
        E 0 90 62 60
        E 120 80 62 00
        E 0 90 3c 60
        E 0 90 48 60
        E 0 90 54 60
        E 0 90 60 60
        E 120 80 3c 00
        E 0 80 48 00
        E 0 80 54 00
        E 0 80 60 00
        E 0 90 60 60
        E 120 80 60 00
        E 0 90 48 60
        E 0 90 54 60
        E 0 90 60 60
        E 120 80 48 00
        E 0 80 54 00
        E 0 80 60 00
        E 0 90 60 60
        E 120 80 60 00
        E 0 90 48 60
        E 0 90 54 60
        E 0 90 60 60
        E 120 80 48 00
        E 0 80 54 00
        E 0 80 60 00
        E 0 90 60 60
        E 120 80 60 00
        E 0 90 54 60
        E 0 90 60 60
        E 120 80 54 00
        E 0 80 60 00
        E 0 90 60 60
        E 120 80 60 00
        E 0 90 3d 60
        E 0 90 4a 60
        E 0 90 56 60
        E 0 90 62 60
        E 120 80 3d 00
        E 0 80 4a 00
        E 0 80 56 00
        E 0 80 62 00
        E 0 90 62 60
        E 120 80 62 00
        E 0 90 4a 60
        E 0 90 56 60
        E 0 90 62 60
        E 120 80 4a 00
        E 0 80 56 00
        E 0 80 62 00
        E 0 90 62 60
        E 120 80 62 00
        E 0 90 4a 60
        E 0 90 56 60
        E 0 90 62 60
        E 120 80 4a 00
        E 0 80 56 00
        E 0 80 62 00
        E 0 90 62 60
        E 120 80 62 00
        E 0 90 56 60
        E 0 90 62 60
        E 120 80 56 00
        E 0 80 62 00
        E 0 90 62 60
        E 120 80 62 00
        E 0 90 3e 60
        E 0 90 4b 60
        E 0 90 57 60
        E 0 90 63 60
        E 120 80 3e 00
        E 0 80 4b 00
        E 0 80 57 00
        E 0 80 63 00
        E 0 90 63 60
        E 120 80 63 00
        E 0 90 4b 60
        E 0 90 57 60
        E 0 90 63 60
        E 120 80 4b 00
        E 0 80 57 00
        E 0 80 63 00
        E 0 90 63 60
        E 120 80 63 00
        E 0 90 3e 60
        E 0 90 4b 60
        E 0 90 57 60
        E 0 90 63 60
        E 120 80 3e 00
        E 0 80 4b 00
        E 0 80 57 00
        E 0 80 63 00
        E 0 90 63 60
        E 120 80 63 00
        E 0 90 4b 60
        E 0 90 57 60
        E 0 90 63 60
        E 120 80 4b 00
        E 0 80 57 00
        E 0 80 63 00
        E 0 90 63 60
        E 120 80 63 00
        E 0 90 3e 60
        E 0 90 4b 60
        E 0 90 57 60
        E 0 90 63 60
        E 120 80 3e 00
        E 0 80 4b 00
        E 0 80 57 00
        E 0 80 63 00
        E 0 90 63 60
        E 120 80 63 00
        E 0 90 4b 60
        E 0 90 57 60
        E 0 90 63 60
        E 120 80 4b 00
        E 0 80 57 00
        E 0 80 63 00
        E 0 90 63 60
        E 120 80 63 00
        E 0 90 4b 60
        E 0 90 57 60
        E 0 90 63 60
        E 120 80 4b 00
        E 0 80 57 00
        E 0 80 63 00
        E 0 90 63 60
        E 120 80 63 00
        E 0 90 57 60
        E 0 90 63 60
        E 120 80 57 00
        E 0 80 63 00
        E 0 90 63 60
        E 120 80 63 00
        E 0 90 3c 60
        E 0 90 49 60
        E 0 90 55 60
        E 0 90 61 60
        E 120 80 3c 00
        E 0 80 49 00
        E 0 80 55 00
        E 0 80 61 00
        E 0 90 61 60
        E 120 80 61 00
        E 0 90 49 60
        E 0 90 55 60
        E 0 90 61 60
        E 120 80 49 00
        E 0 80 55 00
        E 0 80 61 00
        E 0 90 61 60
        E 120 80 61 00
        E 0 90 49 60
        E 0 90 55 60
        E 0 90 61 60
        E 120 80 49 00
        E 0 80 55 00
        E 0 80 61 00
        E 0 90 61 60
        E 120 80 61 00
        E 0 90 55 60
        E 0 90 61 60
        E 120 80 55 00
        E 0 80 61 00
        E 0 90 61 60
        E 120 80 61 00
        E 0 90 3e 60
        E 0 90 4b 60
        E 0 90 57 60
        E 0 90 63 60
        E 0 90 74 60
        E 120 80 3e 00
        E 0 80 4b 00
        E 0 80 57 00
        E 0 80 63 00
        E 0 90 63 60
        E 120 80 63 00
        E 0 90 4b 60
        E 0 90 57 60
        E 0 90 63 60
        E 120 80 4b 00
        E 0 80 57 00
        E 0 80 63 00
        E 0 90 63 60
        E 120 80 63 00
        E 0 90 3e 60
        E 0 90 4b 60
        E 0 90 57 60
        E 0 90 63 60
        E 120 80 3e 00
        E 0 80 4b 00
        E 0 80 57 00
        E 0 80 63 00
        E 0 90 63 60
        E 120 80 63 00
        E 0 90 4b 60
        E 0 90 57 60
        E 0 90 63 60
        E 120 80 4b 00
        E 0 80 57 00
        E 0 80 63 00
        E 0 90 63 60
        E 120 80 63 00
        E 0 90 3e 60
        E 0 90 4b 60
        E 0 90 58 60
        E 0 90 64 60
        E 120 80 3e 00
        E 0 80 4b 00
        E 0 80 58 00
        E 0 80 64 00
        E 0 90 64 60
        E 120 80 64 00
        E 0 90 4b 60
        E 0 90 58 60
        E 0 90 64 60
        E 120 80 4b 00
        E 0 80 58 00
        E 0 80 64 00
        E 0 90 64 60
        E 120 80 64 00
        E 0 90 4b 60
        E 0 90 58 60
        E 0 90 64 60
        E 120 80 4b 00
        E 0 80 58 00
        E 0 80 64 00
        E 0 90 64 60
        E 120 80 64 00
        E 0 90 58 60
        E 0 90 64 60
        E 120 80 58 00
        E 0 80 64 00
        E 0 90 64 60
        E 120 80 64 00
        E 0 90 3c 60
        E 0 90 49 60
        E 0 90 55 60
        E 0 90 61 60
        E 120 80 74 00
        E 0 80 3c 00
        E 0 80 49 00
        E 0 80 55 00
        E 0 80 61 00
        E 0 90 61 60
        E 120 80 61 00
        E 0 90 49 60
        E 0 90 55 60
        E 0 90 61 60
        E 120 80 49 00
        E 0 80 55 00
        E 0 80 61 00
        E 0 90 61 60
        E 120 80 61 00
        E 0 90 3c 60
        E 0 90 49 60
        E 0 90 55 60
        E 0 90 61 60
        E 120 80 3c 00
        E 0 80 49 00
        E 0 80 55 00
        E 0 80 61 00
        E 0 90 61 60
        E 120 80 61 00
        E 0 90 55 60
        E 0 90 61 60
        E 120 80 55 00
        E 0 80 61 00
        E 0 90 61 60
        E 120 80 61 00
        E 0 90 3c 60
        E 0 90 48 60
        E 0 90 54 60
        E 0 90 60 60
        E 120 80 3c 00
        E 0 80 48 00
        E 0 80 54 00
        E 0 80 60 00
        E 0 90 60 60
        E 120 80 60 00
        E 0 90 48 60
        E 0 90 54 60
        E 0 90 60 60
        E 120 80 48 00
        E 0 80 54 00
        E 0 80 60 00
        E 0 90 60 60
        E 120 80 60 00
        E 0 90 3c 60
        E 0 90 48 60
        E 0 90 54 60
        E 0 90 60 60
        E 120 80 3c 00
        E 0 80 48 00
        E 0 80 54 00
        E 0 80 60 00
        E 0 90 60 60
        E 120 80 60 00
        E 0 90 54 60
        E 0 90 60 60
        E 120 80 54 00
        E 0 80 60 00
        E 0 90 60 60
        E 120 80 60 00
        E 0 90 3c 60
        E 0 90 49 60
        E 0 90 55 60
        E 0 90 61 60
        E 120 80 3c 00
        E 0 80 49 00
        E 0 80 55 00
        E 0 80 61 00
        E 0 90 61 60
        E 120 80 61 00
        E 0 90 49 60
        E 0 90 55 60
        E 0 90 61 60
        E 120 80 49 00
        E 0 80 55 00
        E 0 80 61 00
        E 0 90 61 60
        E 120 80 61 00
        E 0 90 49 60
        E 0 90 55 60
        E 0 90 61 60
        E 120 80 49 00
        E 0 80 55 00
        E 0 80 61 00
        E 0 90 61 60
        E 120 80 61 00
        E 0 90 55 60
        E 0 90 61 60
        E 120 80 55 00
        E 0 80 61 00
        E 0 90 61 60
        E 120 80 61 00
        E 0 90 3d 60
        E 0 90 4a 60
        E 0 90 56 60
        E 0 90 62 60
        E 120 80 3d 00
        E 0 80 4a 00
        E 0 80 56 00
        E 0 80 62 00
        E 0 90 62 60
        E 120 80 62 00
        E 0 90 4a 60
        E 0 90 56 60
        E 0 90 62 60
        E 120 80 4a 00
        E 0 80 56 00
        E 0 80 62 00
        E 0 90 62 60
        E 120 80 62 00
        E 0 90 4a 60
        E 0 90 56 60
        E 0 90 62 60
        E 120 80 4a 00
        E 0 80 56 00
        E 0 80 62 00
        E 0 90 62 60
        E 120 80 62 00
        E 0 90 56 60
        E 0 90 62 60
        E 120 80 56 00
        E 0 80 62 00
        E 0 90 62 60
        E 120 80 62 00
        E 0 90 3e 60
        E 0 90 4b 60
        E 0 90 57 60
        E 0 90 63 60
        E 120 80 3e 00
        E 0 80 4b 00
        E 0 80 57 00
        E 0 80 63 00
        E 0 90 63 60
        E 120 80 63 00
        E 0 90 4b 60
        E 0 90 57 60
        E 0 90 63 60
        E 120 80 4b 00
        E 0 80 57 00
        E 0 80 63 00
        E 0 90 63 60
        E 120 80 63 00
        E 0 90 4b 60
        E 0 90 57 60
        E 0 90 63 60
        E 120 80 4b 00
        E 0 80 57 00
        E 0 80 63 00
        E 0 90 63 60
        E 120 80 63 00
        E 0 90 57 60
        E 0 90 63 60
        E 120 80 57 00
        E 0 80 63 00
        E 0 90 63 60
        E 120 80 63 00
        E 0 90 3c 60
        E 0 90 48 60
        E 0 90 54 60
        E 0 90 60 60
        E 120 80 3c 00
        E 0 80 48 00
        E 0 80 54 00
        E 0 80 60 00
        E 0 90 60 60
        E 120 80 60 00
        E 0 90 48 60
        E 0 90 54 60
        E 0 90 60 60
        E 120 80 48 00
        E 0 80 54 00
        E 0 80 60 00
        E 0 90 60 60
        E 120 80 60 00
        E 0 90 3c 60
        E 0 90 48 60
        E 0 90 54 60
        E 0 90 60 60
        E 120 80 3c 00
        E 0 80 48 00
        E 0 80 54 00
        E 0 80 60 00
        E 0 90 60 60
        E 120 80 60 00
        E 0 90 54 60
        E 0 90 60 60
        E 120 80 54 00
        E 0 80 60 00
        E 0 90 60 60
        E 120 80 60 00
        E 0 90 3c 60
        E 0 90 49 60
        E 0 90 55 60
        E 0 90 61 60
        E 120 80 3c 00
        E 0 80 49 00
        E 0 80 55 00
        E 0 80 61 00
        E 0 90 61 60
        E 120 80 61 00
        E 0 90 49 60
        E 0 90 55 60
        E 0 90 61 60
        E 120 80 49 00
        E 0 80 55 00
        E 0 80 61 00
        E 0 90 61 60
        E 120 80 61 00
        E 0 90 49 60
        E 0 90 55 60
        E 0 90 61 60
        E 120 80 49 00
        E 0 80 55 00
        E 0 80 61 00
        E 0 90 61 60
        E 120 80 61 00
        E 0 90 55 60
        E 0 90 61 60
        E 120 80 55 00
        E 0 80 61 00
        E 0 90 61 60
        E 120 80 61 00
        E 0 90 3d 60
        E 0 90 4a 60
        E 0 90 56 60
        E 0 90 62 60
        E 120 80 3d 00
        E 0 80 4a 00
        E 0 80 56 00
        E 0 80 62 00
        E 0 90 62 60
        E 120 80 62 00
        E 0 90 4a 60
        E 0 90 56 60
        E 0 90 62 60
        E 120 80 4a 00
        E 0 80 56 00
        E 0 80 62 00
        E 0 90 62 60
        E 120 80 62 00
        E 0 90 4a 60
        E 0 90 56 60
        E 0 90 62 60
        E 120 80 4a 00
        E 0 80 56 00
        E 0 80 62 00
        E 0 90 62 60
        E 120 80 62 00
        E 0 90 56 60
        E 0 90 62 60
        E 120 80 56 00
        E 0 80 62 00
        E 0 90 62 60
        E 120 80 62 00
        E 0 90 3e 60
        E 0 90 4b 60
        E 0 90 57 60
        E 0 90 63 60
        E 120 80 3e 00
        E 0 80 4b 00
        E 0 80 57 00
        E 0 80 63 00
        E 0 90 63 60
        E 120 80 63 00
        E 0 90 4b 60
        E 0 90 57 60
        E 0 90 63 60
        E 120 80 4b 00
        E 0 80 57 00
        E 0 80 63 00
        E 0 90 63 60
        E 120 80 63 00
        E 0 90 4b 60
        E 0 90 57 60
        E 0 90 63 60
        E 120 80 4b 00
        E 0 80 57 00
        E 0 80 63 00
        E 0 90 63 60
        E 120 80 63 00
        E 0 90 57 60
        E 0 90 63 60
        E 120 80 57 00
        E 0 80 63 00
        E 0 90 63 60
        E 120 80 63 00
        E 0 90 3c 60
        E 0 90 48 60
        E 0 90 54 60
        E 0 90 60 60
        E 120 80 3c 00
        E 0 80 48 00
        E 0 80 54 00
        E 0 80 60 00
        E 0 90 60 60
        E 120 80 60 00
        E 0 90 48 60
        E 0 90 54 60
        E 0 90 60 60
        E 120 80 48 00
        E 0 80 54 00
        E 0 80 60 00
        E 0 90 60 60
        E 120 80 60 00
        E 0 90 3c 60
        E 0 90 48 60
        E 0 90 54 60
        E 0 90 60 60
        E 120 80 3c 00
        E 0 80 48 00
        E 0 80 54 00
        E 0 80 60 00
        E 0 90 60 60
        E 120 80 60 00
        E 0 90 48 60
        E 0 90 54 60
        E 0 90 60 60
        E 120 80 48 00
        E 0 80 54 00
        E 0 80 60 00
        E 0 90 60 60
        E 120 80 60 00
        E 0 90 3c 60
        E 0 90 48 60
        E 0 90 54 60
        E 0 90 60 60
        E 120 80 3c 00
        E 0 80 48 00
        E 0 80 54 00
        E 0 80 60 00
        E 0 90 60 60
        E 120 80 60 00
        E 0 90 48 60
        E 0 90 54 60
        E 0 90 60 60
        E 120 80 48 00
        E 0 80 54 00
        E 0 80 60 00
        E 0 90 60 60
        E 120 80 60 00
        E 0 90 3c 60
        E 0 90 48 60
        E 0 90 54 60
        E 0 90 60 60
        E 120 80 3c 00
        E 0 80 48 00
        E 0 80 54 00
        E 0 80 60 00
        E 0 90 60 60
        E 120 80 60 00
        E 0 90 48 60
        E 0 90 54 60
        E 0 90 60 60
        E 120 80 48 00
        E 0 80 54 00
        E 0 80 60 00
        E 0 90 60 60
        E 120 80 60 00
        E 0 90 3c 60
        E 0 90 48 60
        E 0 90 54 60
        E 0 90 60 60
        E 120 80 3c 00
        E 0 80 48 00
        E 0 80 54 00
        E 0 80 60 00
        E 0 90 60 60
        E 120 80 60 00
        E 0 90 48 60
        E 0 90 54 60
        E 0 90 60 60
        E 120 80 48 00
        E 0 80 54 00
        E 0 80 60 00
        E 0 90 60 60
        E 120 80 60 00
        E 0 90 48 60
        E 0 90 54 60
        E 0 90 60 60
        E 120 80 48 00
        E 0 80 54 00
        E 0 80 60 00
        E 0 90 60 60
        E 120 80 60 00
        E 0 90 54 60
        E 0 90 60 60
        E 120 80 54 00
        E 0 80 60 00
        E 0 90 60 60
        E 120 80 60 00
        E 0 90 3e 60
        E 0 90 4b 60
        E 0 90 58 60
        E 0 90 64 60
        E 120 80 3e 00
        E 0 80 4b 00
        E 0 80 58 00
        E 0 80 64 00
        E 0 90 64 60
        E 120 80 64 00
        E 0 90 4b 60
        E 0 90 58 60
        E 0 90 64 60
        E 120 80 4b 00
        E 0 80 58 00
        E 0 80 64 00
        E 0 90 64 60
        E 120 80 64 00
        E 0 90 3e 60
        E 0 90 4b 60
        E 0 90 58 60
        E 0 90 64 60
        E 120 80 3e 00
        E 0 80 4b 00
        E 0 80 58 00
        E 0 80 64 00
        E 0 90 64 60
        E 120 80 64 00
        E 0 90 4b 60
        E 0 90 58 60
        E 0 90 64 60
        E 120 80 4b 00
        E 0 80 58 00
        E 0 80 64 00
        E 0 90 64 60
        E 120 80 64 00
        E 0 90 3e 60
        E 0 90 4b 60
        E 0 90 58 60
        E 0 90 64 60
        E 120 80 3e 00
        E 0 80 4b 00
        E 0 80 58 00
        E 0 80 64 00
        E 0 90 64 60
        E 120 80 64 00
        E 0 90 4b 60
        E 0 90 58 60
        E 0 90 64 60
        E 120 80 4b 00
        E 0 80 58 00
        E 0 80 64 00
        E 0 90 64 60
        E 120 80 64 00
        E 0 90 3e 60
        E 0 90 4b 60
        E 0 90 58 60
        E 0 90 64 60
        E 120 80 3e 00
        E 0 80 4b 00
        E 0 80 58 00
        E 0 80 64 00
        E 0 90 64 60
        E 120 80 64 00
        E 0 90 4b 60
        E 0 90 57 60
        E 0 90 63 60
        E 120 80 4b 00
        E 0 80 57 00
        E 0 80 63 00
        E 0 90 63 60
        E 120 80 63 00
        E 0 90 3e 60
        E 0 90 4b 60
        E 0 90 57 60
        E 0 90 63 60
        E 120 80 3e 00
        E 0 80 4b 00
        E 0 80 57 00
        E 0 80 63 00
        E 0 90 63 60
        E 120 80 63 00
        E 0 90 4b 60
        E 0 90 57 60
        E 0 90 63 60
        E 120 80 4b 00
        E 0 80 57 00
        E 0 80 63 00
        E 0 90 63 60
        E 120 80 63 00
        E 0 90 4b 60
        E 0 90 57 60
        E 0 90 63 60
        E 120 80 4b 00
        E 0 80 57 00
        E 0 80 63 00
        E 0 90 63 60
        E 120 80 63 00
        E 0 90 57 60
        E 0 90 63 60
        E 120 80 57 00
        E 0 80 63 00
        E 0 90 63 60
        E 120 80 63 00
        E 0 90 3d 60
        E 0 90 4a 60
        E 0 90 56 60
        E 0 90 62 60
        E 120 80 3d 00
        E 0 80 4a 00
        E 0 80 56 00
        E 0 80 62 00
        E 0 90 62 60
        E 120 80 62 00
        E 0 90 4a 60
        E 0 90 56 60
        E 0 90 62 60
        E 120 80 4a 00
        E 0 80 56 00
        E 0 80 62 00
        E 0 90 62 60
        E 120 80 62 00
        E 0 90 4a 60
        E 0 90 56 60
        E 0 90 62 60
        E 120 80 4a 00
        E 0 80 56 00
        E 0 80 62 00
        E 0 90 62 60
        E 120 80 62 00
        E 0 90 55 60
        E 0 90 61 60
        E 120 80 55 00
        E 0 80 61 00
        E 0 90 61 60
        E 120 80 61 00
        E 0 90 3c 60
        E 0 90 49 60
        E 0 90 55 60
        E 0 90 61 60
        E 120 80 3c 00
        E 0 80 49 00
        E 0 80 55 00
        E 0 80 61 00
        E 0 90 61 60
        E 120 80 61 00
        E 0 90 49 60
        E 0 90 55 60
        E 0 90 61 60
        E 120 80 49 00
        E 0 80 55 00
        E 0 80 61 00
        E 0 90 61 60
        E 120 80 61 00
        E 0 90 49 60
        E 0 90 55 60
        E 0 90 61 60
        E 120 80 49 00
        E 0 80 55 00
        E 0 80 61 00
        E 0 90 61 60
        E 120 80 61 00
        E 0 90 55 60
        E 0 90 61 60
        E 120 80 55 00
        E 0 80 61 00
        E 0 90 61 60
        E 120 80 61 00
        E 0 90 3e 60
        E 0 90 4b 60
        E 0 90 58 60
        E 0 90 64 60
        E 120 80 3e 00
        E 0 80 4b 00
        E 0 80 58 00
        E 0 80 64 00
        E 0 90 64 60
        E 120 80 64 00
        E 0 90 4b 60
        E 0 90 58 60
        E 0 90 64 60
        E 120 80 4b 00
        E 0 80 58 00
        E 0 80 64 00
        E 0 90 64 60
        E 120 80 64 00
        E 0 90 3e 60
        E 0 90 4b 60
        E 0 90 58 60
        E 0 90 64 60
        E 120 80 3e 00
        E 0 80 4b 00
        E 0 80 58 00
        E 0 80 64 00
        E 0 90 64 60
        E 120 80 64 00
        E 0 90 4b 60
        E 0 90 57 60
        E 0 90 63 60
        E 120 80 4b 00
        E 0 80 57 00
        E 0 80 63 00
        E 0 90 63 60
        E 120 80 63 00
        E 0 90 3e 60
        E 0 90 4b 60
        E 0 90 57 60
        E 0 90 63 60
        E 120 80 3e 00
        E 0 80 4b 00
        E 0 80 57 00
        E 0 80 63 00
        E 0 90 63 60
        E 120 80 63 00
        E 0 90 4b 60
        E 0 90 57 60
        E 0 90 63 60
        E 120 80 4b 00
        E 0 80 57 00
        E 0 80 63 00
        E 0 90 63 60
        E 120 80 63 00
        E 0 90 4b 60
        E 0 90 57 60
        E 0 90 63 60
        E 120 80 4b 00
        E 0 80 57 00
        E 0 80 63 00
        E 0 90 63 60
        E 120 80 63 00
        E 0 90 57 60
        E 0 90 63 60
        E 120 80 57 00
        E 0 80 63 00
        E 0 90 63 60
        E 120 80 63 00
        E 0 90 3c 60
        E 0 90 49 60
        E 0 90 55 60
        E 0 90 61 60
        E 120 80 3c 00
        E 0 80 49 00
        E 0 80 55 00
        E 0 80 61 00
        E 0 90 61 60
        E 120 80 61 00
        E 0 90 49 60
        E 0 90 55 60
        E 0 90 61 60
        E 120 80 49 00
        E 0 80 55 00
        E 0 80 61 00
        E 0 90 61 60
        E 120 80 61 00
        E 0 90 3c 60
        E 0 90 49 60
        E 0 90 55 60
        E 0 90 61 60
        E 120 80 3c 00
        E 0 80 49 00
        E 0 80 55 00
        E 0 80 61 00
        E 0 90 61 60
        E 120 80 61 00
        E 0 90 54 60
        E 0 90 60 60
        E 120 80 54 00
        E 0 80 60 00
        E 0 90 60 60
        E 120 80 60 00
        E 0 90 3c 60
        E 0 90 48 60
        E 0 90 54 60
        E 0 90 60 60
        E 120 80 3c 00
        E 0 80 48 00
        E 0 80 54 00
        E 0 80 60 00
        E 0 90 60 60
        E 120 80 60 00
        E 0 90 48 60
        E 0 90 54 60
        E 0 90 60 60
        E 120 80 48 00
        E 0 80 54 00
        E 0 80 60 00
        E 0 90 60 60
        E 120 80 60 00
        E 0 90 3c 60
        E 0 90 48 60
        E 0 90 54 60
        E 0 90 60 60
        E 120 80 3c 00
        E 0 80 48 00
        E 0 80 54 00
        E 0 80 60 00
        E 0 90 60 60
        E 120 80 60 00
        E 0 90 48 60
        E 0 90 54 60
        E 0 90 60 60
        E 120 80 48 00
        E 0 80 54 00
        E 0 80 60 00
        E 0 90 60 60
        E 120 80 60 00
        E 0 90 3c 60
        E 0 90 48 60
        E 0 90 54 60
        E 0 90 60 60
        E 120 80 3c 00
        E 0 80 48 00
        E 0 80 54 00
        E 0 80 60 00
        E 0 90 60 60
        E 120 80 60 00
        E 0 90 48 60
        E 0 90 54 60
        E 0 90 60 60
        E 120 80 48 00
        E 0 80 54 00
        E 0 80 60 00
        E 0 90 60 60
        E 120 80 60 00
        E 0 90 48 60
        E 0 90 54 60
        E 0 90 60 60
        E 120 80 48 00
        E 0 80 54 00
        E 0 80 60 00
        E 0 90 60 60
        E 120 80 60 00
        E 0 90 54 60
        E 0 90 60 60
        E 120 80 54 00
        E 0 80 60 00
        E 0 90 60 60
        E 120 80 60 00
        E 0 90 3e 60
        E 0 90 4b 60
        E 0 90 58 60
        E 0 90 64 60
        E 0 90 74 60
        E 120 80 3e 00
        E 0 80 4b 00
        E 0 80 58 00
        E 0 80 64 00
        E 0 90 64 60
        E 120 80 64 00
        E 0 90 4b 60
        E 0 90 58 60
        E 0 90 64 60
        E 120 80 4b 00
        E 0 80 58 00
        E 0 80 64 00
        E 0 90 64 60
        E 120 80 64 00
        E 0 90 3e 60
        E 0 90 4b 60
        E 0 90 58 60
        E 0 90 64 60
        E 120 80 3e 00
        E 0 80 4b 00
        E 0 80 58 00
        E 0 80 64 00
        E 0 90 64 60
        E 120 80 64 00
        E 0 90 4b 60
        E 0 90 58 60
        E 0 90 64 60
        E 120 80 4b 00
        E 0 80 58 00
        E 0 80 64 00
        E 0 90 64 60
        E 120 80 64 00
        E 0 90 3e 60
        E 0 90 4b 60
        E 0 90 57 60
        E 0 90 63 60
        E 120 80 3e 00
        E 0 80 4b 00
        E 0 80 57 00
        E 0 80 63 00
        E 0 90 63 60
        E 120 80 63 00
        E 0 90 4b 60
        E 0 90 57 60
        E 0 90 63 60
        E 120 80 4b 00
        E 0 80 57 00
        E 0 80 63 00
        E 0 90 63 60
        E 120 80 63 00
        E 0 90 4b 60
        E 0 90 57 60
        E 0 90 63 60
        E 120 80 4b 00
        E 0 80 57 00
        E 0 80 63 00
        E 0 90 63 60
        E 120 80 63 00
        E 0 90 57 60
        E 0 90 63 60
        E 120 80 57 00
        E 0 80 63 00
        E 0 90 63 60
        E 120 80 63 00
        E 0 90 3c 60
        E 0 90 49 60
        E 0 90 55 60
        E 0 90 61 60
        E 120 80 3c 00
        E 0 80 49 00
        E 0 80 55 00
        E 0 80 61 00
        E 0 90 61 60
        E 120 80 61 00
        E 0 90 49 60
        E 0 90 55 60
        E 0 90 61 60
        E 120 80 49 00
        E 0 80 55 00
        E 0 80 61 00
        E 0 90 61 60
        E 120 80 61 00
        E 0 90 3c 60
        E 0 90 49 60
        E 0 90 55 60
        E 0 90 61 60
        E 120 80 3c 00
        E 0 80 49 00
        E 0 80 55 00
        E 0 80 61 00
        E 0 90 61 60
        E 120 80 61 00
        E 0 90 49 60
        E 0 90 55 60
        E 0 90 61 60
        E 120 80 49 00
        E 0 80 55 00
        E 0 80 61 00
        E 0 90 61 60
        E 120 80 61 00
        E 0 90 3c 60
        E 0 90 49 60
        E 0 90 55 60
        E 0 90 61 60
        E 120 80 3c 00
        E 0 80 49 00
        E 0 80 55 00
        E 0 80 61 00
        E 0 90 61 60
        E 120 80 61 00
        E 0 90 49 60
        E 0 90 55 60
        E 0 90 61 60
        E 120 80 49 00
        E 0 80 55 00
        E 0 80 61 00
        E 0 90 61 60
        E 120 80 61 00
        E 0 90 49 60
        E 0 90 55 60
        E 0 90 61 60
        E 120 80 49 00
        E 0 80 55 00
        E 0 80 61 00
        E 0 90 61 60
        E 120 80 61 00
        E 0 90 55 60
        E 0 90 61 60
        E 120 80 55 00
        E 0 80 61 00
        E 0 90 61 60
        E 120 80 74 00
        E 0 80 61 00
        E 0 90 3e 60
        E 0 90 4b 60
        E 0 90 58 60
        E 0 90 64 60
        E 120 80 3e 00
        E 0 80 4b 00
        E 0 80 58 00
        E 0 80 64 00
        E 0 90 64 60
        E 120 80 64 00
        E 0 90 4b 60
        E 0 90 58 60
        E 0 90 64 60
        E 120 80 4b 00
        E 0 80 58 00
        E 0 80 64 00
        E 0 90 64 60
        E 120 80 64 00
        E 0 90 3e 60
        E 0 90 4b 60
        E 0 90 58 60
        E 0 90 64 60
        E 120 80 3e 00
        E 0 80 4b 00
        E 0 80 58 00
        E 0 80 64 00
        E 0 90 64 60
        E 120 80 64 00
        E 0 90 4b 60
        E 0 90 58 60
        E 0 90 64 60
        E 120 80 4b 00
        E 0 80 58 00
        E 0 80 64 00
        E 0 90 64 60
        E 120 80 64 00
        E 0 90 3e 60
        E 0 90 4b 60
        E 0 90 57 60
        E 0 90 63 60
        E 120 80 3e 00
        E 0 80 4b 00
        E 0 80 57 00
        E 0 80 63 00
        E 0 90 63 60
        E 120 80 63 00
        E 0 90 4b 60
        E 0 90 57 60
        E 0 90 63 60
        E 120 80 4b 00
        E 0 80 57 00
        E 0 80 63 00
        E 0 90 63 60
        E 120 80 63 00
        E 0 90 4b 60
        E 0 90 57 60
        E 0 90 63 60
        E 120 80 4b 00
        E 0 80 57 00
        E 0 80 63 00
        E 0 90 63 60
        E 120 80 63 00
        E 0 90 57 60
        E 0 90 63 60
        E 120 80 57 00
        E 0 80 63 00
        E 0 90 63 60
        E 120 80 63 00
        E 0 90 3c 60
        E 0 90 49 60
        E 0 90 55 60
        E 0 90 61 60
        E 120 80 3c 00
        E 0 80 49 00
        E 0 80 55 00
        E 0 80 61 00
        E 0 90 61 60
        E 120 80 61 00
        E 0 90 49 60
        E 0 90 55 60
        E 0 90 61 60
        E 120 80 49 00
        E 0 80 55 00
        E 0 80 61 00
        E 0 90 61 60
        E 120 80 61 00
        E 0 90 3c 60
        E 0 90 49 60
        E 0 90 55 60
        E 0 90 61 60
        E 120 80 3c 00
        E 0 80 49 00
        E 0 80 55 00
        E 0 80 61 00
        E 0 90 61 60
        E 120 80 61 00
        E 0 90 49 60
        E 0 90 55 60
        E 0 90 61 60
        E 120 80 49 00
        E 0 80 55 00
        E 0 80 61 00
        E 0 90 61 60
        E 120 80 61 00
        E 0 90 3c 60
        E 0 90 49 60
        E 0 90 55 60
        E 0 90 61 60
        E 120 80 3c 00
        E 0 80 49 00
        E 0 80 55 00
        E 0 80 61 00
        E 0 90 61 60
        E 120 80 61 00
        E 0 90 49 60
        E 0 90 55 60
        E 0 90 61 60
        E 120 80 49 00
        E 0 80 55 00
        E 0 80 61 00
        E 0 90 61 60
        E 120 80 61 00
        E 0 90 49 60
        E 0 90 55 60
        E 0 90 61 60
        E 120 80 49 00
        E 0 80 55 00
        E 0 80 61 00
        E 0 90 61 60
        E 120 80 61 00
        E 0 90 55 60
        E 0 90 61 60
        E 120 80 55 00
        E 0 80 61 00
        E 0 90 61 60
        E 1 80 2f 00
        E 119 80 61 00
        E 0 90 31 60
        E 0 90 3e 60
        E 0 90 4b 60
        E 0 90 58 60
        E 0 90 64 60
        E 120 80 3e 00
        E 0 80 4b 00
        E 0 80 58 00
        E 0 80 64 00
        E 0 90 64 60
        E 120 80 64 00
        E 0 90 4b 60
        E 0 90 58 60
        E 0 90 64 60
        E 120 80 4b 00
        E 0 80 58 00
        E 0 80 64 00
        E 0 90 64 60
        E 120 80 64 00
        E 0 90 4b 60
        E 0 90 58 60
        E 0 90 64 60
        E 120 80 4b 00
        E 0 80 58 00
        E 0 80 64 00
        E 0 90 64 60
        E 120 80 64 00
        E 0 90 58 60
        E 0 90 64 60
        E 120 80 58 00
        E 0 80 64 00
        E 0 90 64 60
        E 120 80 64 00
        E 0 90 3d 60
        E 0 90 4a 60
        E 0 90 56 60
        E 0 90 62 60
        E 120 80 3d 00
        E 0 80 4a 00
        E 0 80 56 00
        E 0 80 62 00
        E 0 90 62 60
        E 120 80 62 00
        E 0 90 4a 60
        E 0 90 56 60
        E 0 90 62 60
        E 120 80 4a 00
        E 0 80 56 00
        E 0 80 62 00
        E 0 90 62 60
        E 120 80 62 00
        E 0 90 4a 60
        E 0 90 56 60
        E 0 90 62 60
        E 120 80 4a 00
        E 0 80 56 00
        E 0 80 62 00
        E 0 90 62 60
        E 120 80 62 00
        E 0 90 56 60
        E 0 90 62 60
        E 120 80 56 00
        E 0 80 62 00
        E 0 90 62 60
        E 1 80 31 00
        E 119 80 62 00
        E 0 90 28 60
        E 0 90 3c 60
        E 0 90 49 60
        E 0 90 55 60
        E 0 90 61 60
        E 120 80 3c 00
        E 0 80 49 00
        E 0 80 55 00
        E 0 80 61 00
        E 0 90 61 60
        E 120 80 61 00
        E 0 90 49 60
        E 0 90 55 60
        E 0 90 61 60
        E 120 80 49 00
        E 0 80 55 00
        E 0 80 61 00
        E 0 90 61 60
        E 120 80 61 00
        E 0 90 3c 60
        E 0 90 49 60
        E 0 90 55 60
        E 0 90 61 60
        E 120 80 3c 00
        E 0 80 49 00
        E 0 80 55 00
        E 0 80 61 00
        E 0 90 61 60
        E 120 80 61 00
        E 0 90 49 60
        E 0 90 55 60
        E 0 90 61 60
        E 120 80 49 00
        E 0 80 55 00
        E 0 80 61 00
        E 0 90 61 60
        E 120 80 61 00
        E 0 90 3c 60
        E 0 90 49 60
        E 0 90 55 60
        E 0 90 61 60
        E 120 80 3c 00
        E 0 80 49 00
        E 0 80 55 00
        E 0 80 61 00
        E 0 90 61 60
        E 120 80 61 00
        E 0 90 49 60
        E 0 90 55 60
        E 0 90 61 60
        E 120 80 49 00
        E 0 80 55 00
        E 0 80 61 00
        E 0 90 61 60
        E 120 80 61 00
        E 0 90 3c 60
        E 0 90 49 60
        E 0 90 55 60
        E 0 90 61 60
        E 120 80 3c 00
        E 0 80 49 00
        E 0 80 55 00
        E 0 80 61 00
        E 0 90 61 60
        E 120 80 61 00
        E 0 90 49 60
        E 0 90 55 60
        E 0 90 61 60
        E 120 80 49 00
        E 0 80 55 00
        E 0 80 61 00
        E 0 90 61 60
        E 120 80 61 00
        E 0 90 3c 60
        E 0 90 49 60
        E 0 90 55 60
        E 0 90 61 60
        E 120 80 3c 00
        E 0 80 49 00
        E 0 80 55 00
        E 0 80 61 00
        E 0 90 61 60
        E 120 80 61 00
        E 0 90 49 60
        E 0 90 55 60
        E 0 90 61 60
        E 120 80 49 00
        E 0 80 55 00
        E 0 80 61 00
        E 0 90 61 60
        E 120 80 61 00
        E 0 90 49 60
        E 0 90 55 60
        E 0 90 61 60
        E 120 80 49 00
        E 0 80 55 00
        E 0 80 61 00
        E 0 90 61 60
        E 120 80 61 00
        E 0 90 55 60
        E 0 90 61 60
        E 120 80 55 00
        E 0 80 61 00
        E 0 90 61 60
        E 120 80 61 00
        E 0 90 3d 60
        E 0 90 4a 60
        E 0 90 56 60
        E 0 90 62 60
        E 120 80 3d 00
        E 0 80 4a 00
        E 0 80 56 00
        E 0 80 62 00
        E 0 90 62 60
        E 120 80 62 00
        E 0 90 4a 60
        E 0 90 56 60
        E 0 90 62 60
        E 120 80 4a 00
        E 0 80 56 00
        E 0 80 62 00
        E 0 90 62 60
        E 120 80 62 00
        E 0 90 3d 60
        E 0 90 4a 60
        E 0 90 56 60
        E 0 90 62 60
        E 120 80 3d 00
        E 0 80 4a 00
        E 0 80 56 00
        E 0 80 62 00
        E 0 90 62 60
        E 120 80 62 00
        E 0 90 4a 60
        E 0 90 56 60
        E 0 90 62 60
        E 120 80 4a 00
        E 0 80 56 00
        E 0 80 62 00
        E 0 90 62 60
        E 120 80 62 00
        E 0 90 3d 60
        E 0 90 4a 60
        E 0 90 56 60
        E 0 90 62 60
        E 120 80 3d 00
        E 0 80 4a 00
        E 0 80 56 00
        E 0 80 62 00
        E 0 90 62 60
        E 120 80 62 00
        E 0 90 4a 60
        E 0 90 56 60
        E 0 90 62 60
        E 120 80 4a 00
        E 0 80 56 00
        E 0 80 62 00
        E 0 90 62 60
        E 120 80 62 00
        E 0 90 4a 60
        E 0 90 56 60
        E 0 90 62 60
        E 120 80 4a 00
        E 0 80 56 00
        E 0 80 62 00
        E 0 90 62 60
        E 120 80 62 00
        E 0 90 56 60
        E 0 90 62 60
        E 120 80 56 00
        E 0 80 62 00
        E 0 90 62 60
        E 120 80 62 00
        E 0 90 3c 60
        E 0 90 48 60
        E 0 90 54 60
        E 0 90 60 60
        E 120 80 3c 00
        E 0 80 48 00
        E 0 80 54 00
        E 0 80 60 00
        E 0 90 60 60
        E 120 80 60 00
        E 0 90 48 60
        E 0 90 54 60
        E 0 90 60 60
        E 120 80 48 00
        E 0 80 54 00
        E 0 80 60 00
        E 0 90 60 60
        E 120 80 60 00
        E 0 90 48 60
        E 0 90 54 60
        E 0 90 60 60
        E 120 80 48 00
        E 0 80 54 00
        E 0 80 60 00
        E 0 90 60 60
        E 120 80 60 00
        E 0 90 54 60
        E 0 90 60 60
        E 120 80 54 00
        E 0 80 60 00
        E 0 90 60 60
        E 120 80 60 00
        E 0 90 3d 60
        E 0 90 4a 60
        E 0 90 56 60
        E 0 90 62 60
        E 120 80 3d 00
        E 0 80 4a 00
        E 0 80 56 00
        E 0 80 62 00
        E 0 90 62 60
        E 120 80 62 00
        E 0 90 4a 60
        E 0 90 56 60
        E 0 90 62 60
        E 120 80 4a 00
        E 0 80 56 00
        E 0 80 62 00
        E 0 90 62 60
        E 120 80 62 00
        E 0 90 4a 60
        E 0 90 56 60
        E 0 90 62 60
        E 120 80 4a 00
        E 0 80 56 00
        E 0 80 62 00
        E 0 90 62 60
        E 120 80 62 00
        E 0 90 56 60
        E 0 90 62 60
        E 120 80 56 00
        E 0 80 62 00
        E 0 90 62 60
        E 120 80 62 00
        E 0 90 3e 60
        E 0 90 4b 60
        E 0 90 57 60
        E 0 90 63 60
        E 120 80 3e 00
        E 0 80 4b 00
        E 0 80 57 00
        E 0 80 63 00
        E 0 90 63 60
        E 120 80 63 00
        E 0 90 4b 60
        E 0 90 57 60
        E 0 90 63 60
        E 120 80 4b 00
        E 0 80 57 00
        E 0 80 63 00
        E 0 90 63 60
        E 120 80 63 00
        E 0 90 3e 60
        E 0 90 4b 60
        E 0 90 57 60
        E 0 90 63 60
        E 120 80 3e 00
        E 0 80 4b 00
        E 0 80 57 00
        E 0 80 63 00
        E 0 90 63 60
        E 120 80 63 00
        E 0 90 4b 60
        E 0 90 57 60
        E 0 90 63 60
        E 120 80 4b 00
        E 0 80 57 00
        E 0 80 63 00
        E 0 90 63 60
        E 120 80 63 00
        E 0 90 3e 60
        E 0 90 4b 60
        E 0 90 57 60
        E 0 90 63 60
        E 120 80 3e 00
        E 0 80 4b 00
        E 0 80 57 00
        E 0 80 63 00
        E 0 90 63 60
        E 120 80 63 00
        E 0 90 4b 60
        E 0 90 57 60
        E 0 90 63 60
        E 120 80 4b 00
        E 0 80 57 00
        E 0 80 63 00
        E 0 90 63 60
        E 120 80 63 00
        E 0 90 4b 60
        E 0 90 57 60
        E 0 90 63 60
        E 120 80 4b 00
        E 0 80 57 00
        E 0 80 63 00
        E 0 90 63 60
        E 120 80 63 00
        E 0 90 57 60
        E 0 90 63 60
        E 120 80 57 00
        E 0 80 63 00
        E 0 90 63 60
        E 120 80 63 00
        E 0 90 3c 60
        E 0 90 49 60
        E 0 90 55 60
        E 0 90 61 60
        E 120 80 3c 00
        E 0 80 49 00
        E 0 80 55 00
        E 0 80 61 00
        E 0 90 61 60
        E 120 80 61 00
        E 0 90 49 60
        E 0 90 55 60
        E 0 90 61 60
        E 120 80 49 00
        E 0 80 55 00
        E 0 80 61 00
        E 0 90 61 60
        E 120 80 61 00
        E 0 90 49 60
        E 0 90 55 60
        E 0 90 61 60
        E 120 80 49 00
        E 0 80 55 00
        E 0 80 61 00
        E 0 90 61 60
        E 120 80 61 00
        E 0 90 55 60
        E 0 90 61 60
        E 120 80 55 00
        E 0 80 61 00
        E 0 90 61 60
        E 120 80 61 00
        E 0 90 3e 60
        E 0 90 4b 60
        E 0 90 57 60
        E 0 90 63 60
        E 120 80 3e 00
        E 0 80 4b 00
        E 0 80 57 00
        E 0 80 63 00
        E 0 90 63 60
        E 120 80 63 00
        E 0 90 4b 60
        E 0 90 57 60
        E 0 90 63 60
        E 120 80 4b 00
        E 0 80 57 00
        E 0 80 63 00
        E 0 90 63 60
        E 120 80 63 00
        E 0 90 3e 60
        E 0 90 4b 60
        E 0 90 57 60
        E 0 90 63 60
        E 120 80 3e 00
        E 0 80 4b 00
        E 0 80 57 00
        E 0 80 63 00
        E 0 90 63 60
        E 120 80 63 00
        E 0 90 4b 60
        E 0 90 57 60
        E 0 90 63 60
        E 120 80 4b 00
        E 0 80 57 00
        E 0 80 63 00
        E 0 90 63 60
        E 120 80 63 00
        E 0 90 3e 60
        E 0 90 4b 60
        E 0 90 58 60
        E 0 90 64 60
        E 120 80 3e 00
        E 0 80 4b 00
        E 0 80 58 00
        E 0 80 64 00
        E 0 90 64 60
        E 120 80 64 00
        E 0 90 4b 60
        E 0 90 58 60
        E 0 90 64 60
        E 120 80 4b 00
        E 0 80 58 00
        E 0 80 64 00
        E 0 90 64 60
        E 120 80 64 00
        E 0 90 4b 60
        E 0 90 58 60
        E 0 90 64 60
        E 120 80 4b 00
        E 0 80 58 00
        E 0 80 64 00
        E 0 90 64 60
        E 120 80 64 00
        E 0 90 58 60
        E 0 90 64 60
        E 120 80 58 00
        E 0 80 64 00
        E 0 90 64 60
        E 120 80 64 00
        E 0 90 3c 60
        E 0 90 49 60
        E 0 90 55 60
        E 0 90 61 60
        E 120 80 3c 00
        E 0 80 49 00
        E 0 80 55 00
        E 0 80 61 00
        E 0 90 61 60
        E 120 80 61 00
        E 0 90 49 60
        E 0 90 55 60
        E 0 90 61 60
        E 120 80 49 00
        E 0 80 55 00
        E 0 80 61 00
        E 0 90 61 60
        E 120 80 61 00
        E 0 90 3c 60
        E 0 90 49 60
        E 0 90 55 60
        E 0 90 61 60
        E 120 80 3c 00
        E 0 80 49 00
        E 0 80 55 00
        E 0 80 61 00
        E 0 90 61 60
        E 120 80 61 00
        E 0 90 55 60
        E 0 90 61 60
        E 120 80 55 00
        E 0 80 61 00
        E 0 90 61 60
        E 120 80 61 00
        E 0 90 3c 60
        E 0 90 48 60
        E 0 90 54 60
        E 0 90 60 60
        E 120 80 3c 00
        E 0 80 48 00
        E 0 80 54 00
        E 0 80 60 00
        E 0 90 60 60
        E 120 80 60 00
        E 0 90 48 60
        E 0 90 54 60
        E 0 90 60 60
        E 120 80 48 00
        E 0 80 54 00
        E 0 80 60 00
        E 0 90 60 60
        E 120 80 60 00
        E 0 90 3c 60
        E 0 90 48 60
        E 0 90 54 60
        E 0 90 60 60
        E 120 80 3c 00
        E 0 80 48 00
        E 0 80 54 00
        E 0 80 60 00
        E 0 90 60 60
        E 120 80 60 00
        E 0 90 54 60
        E 0 90 60 60
        E 120 80 54 00
        E 0 80 60 00
        E 0 90 60 60
        E 120 80 60 00
        E 0 90 3c 60
        E 0 90 49 60
        E 0 90 55 60
        E 0 90 61 60
        E 120 80 3c 00
        E 0 80 49 00
        E 0 80 55 00
        E 0 80 61 00
        E 0 90 61 60
        E 120 80 61 00
        E 0 90 49 60
        E 0 90 55 60
        E 0 90 61 60
        E 120 80 49 00
        E 0 80 55 00
        E 0 80 61 00
        E 0 90 61 60
        E 120 80 61 00
        E 0 90 49 60
        E 0 90 55 60
        E 0 90 61 60
        E 120 80 49 00
        E 0 80 55 00
        E 0 80 61 00
        E 0 90 61 60
        E 120 80 61 00
        E 0 90 55 60
        E 0 90 61 60
        E 120 80 55 00
        E 0 80 61 00
        E 0 90 61 60
        E 120 80 61 00
        E 0 90 3d 60
        E 0 90 4a 60
        E 0 90 56 60
        E 0 90 62 60
        E 120 80 3d 00
        E 0 80 4a 00
        E 0 80 56 00
        E 0 80 62 00
        E 0 90 62 60
        E 120 80 62 00
        E 0 90 4a 60
        E 0 90 56 60
        E 0 90 62 60
        E 120 80 4a 00
        E 0 80 56 00
        E 0 80 62 00
        E 0 90 62 60
        E 120 80 62 00
        E 0 90 4a 60
        E 0 90 56 60
        E 0 90 62 60
        E 120 80 4a 00
        E 0 80 56 00
        E 0 80 62 00
        E 0 90 62 60
        E 120 80 62 00
        E 0 90 56 60
        E 0 90 62 60
        E 120 80 56 00
        E 0 80 62 00
        E 0 90 62 60
        E 120 80 62 00
        E 0 90 3e 60
        E 0 90 4b 60
        E 0 90 57 60
        E 0 90 63 60
        E 120 80 3e 00
        E 0 80 4b 00
        E 0 80 57 00
        E 0 80 63 00
        E 0 90 63 60
        E 120 80 63 00
        E 0 90 4b 60
        E 0 90 57 60
        E 0 90 63 60
        E 120 80 4b 00
        E 0 80 57 00
        E 0 80 63 00
        E 0 90 63 60
        E 120 80 63 00
        E 0 90 4b 60
        E 0 90 57 60
        E 0 90 63 60
        E 120 80 4b 00
        E 0 80 57 00
        E 0 80 63 00
        E 0 90 63 60
        E 120 80 63 00
        E 0 90 57 60
        E 0 90 63 60
        E 120 80 57 00
        E 0 80 63 00
        E 0 90 63 60
        E 120 80 63 00
        E 0 90 3c 60
        E 0 90 48 60
        E 0 90 54 60
        E 0 90 60 60
        E 120 80 3c 00
        E 0 80 48 00
        E 0 80 54 00
        E 0 80 60 00
        E 0 90 60 60
        E 120 80 60 00
        E 0 90 48 60
        E 0 90 54 60
        E 0 90 60 60
        E 120 80 48 00
        E 0 80 54 00
        E 0 80 60 00
        E 0 90 60 60
        E 120 80 60 00
        E 0 90 3c 60
        E 0 90 48 60
        E 0 90 54 60
        E 0 90 60 60
        E 120 80 3c 00
        E 0 80 48 00
        E 0 80 54 00
        E 0 80 60 00
        E 0 90 60 60
        E 120 80 60 00
        E 0 90 54 60
        E 0 90 60 60
        E 120 80 54 00
        E 0 80 60 00
        E 0 90 60 60
        E 120 80 60 00
        E 0 90 3c 60
        E 0 90 49 60
        E 0 90 55 60
        E 0 90 61 60
        E 120 80 3c 00
        E 0 80 49 00
        E 0 80 55 00
        E 0 80 61 00
        E 0 90 61 60
        E 120 80 61 00
        E 0 90 49 60
        E 0 90 55 60
        E 0 90 61 60
        E 120 80 49 00
        E 0 80 55 00
        E 0 80 61 00
        E 0 90 61 60
        E 120 80 61 00
        E 0 90 49 60
        E 0 90 55 60
        E 0 90 61 60
        E 120 80 49 00
        E 0 80 55 00
        E 0 80 61 00
        E 0 90 61 60
        E 120 80 61 00
        E 0 90 55 60
        E 0 90 61 60
        E 120 80 55 00
        E 0 80 61 00
        E 0 90 61 60
        E 120 80 61 00
        E 0 90 3d 60
        E 0 90 4a 60
        E 0 90 56 60
        E 0 90 62 60
        E 120 80 3d 00
        E 0 80 4a 00
        E 0 80 56 00
        E 0 80 62 00
        E 0 90 62 60
        E 120 80 62 00
        E 0 90 4a 60
        E 0 90 56 60
        E 0 90 62 60
        E 120 80 4a 00
        E 0 80 56 00
        E 0 80 62 00
        E 0 90 62 60
        E 120 80 62 00
        E 0 90 4a 60
        E 0 90 56 60
        E 0 90 62 60
        E 120 80 4a 00
        E 0 80 56 00
        E 0 80 62 00
        E 0 90 62 60
        E 120 80 62 00
        E 0 90 56 60
        E 0 90 62 60
        E 120 80 56 00
        E 0 80 62 00
        E 0 90 62 60
        E 120 80 62 00
        E 0 90 3e 60
        E 0 90 4b 60
        E 0 90 57 60
        E 0 90 63 60
        E 120 80 3e 00
        E 0 80 4b 00
        E 0 80 57 00
        E 0 80 63 00
        E 0 90 63 60
        E 120 80 63 00
        E 0 90 4b 60
        E 0 90 57 60
        E 0 90 63 60
        E 120 80 4b 00
        E 0 80 57 00
        E 0 80 63 00
        E 0 90 63 60
        E 120 80 63 00
        E 0 90 4b 60
        E 0 90 57 60
        E 0 90 63 60
        E 120 80 4b 00
        E 0 80 57 00
        E 0 80 63 00
        E 0 90 63 60
        E 120 80 63 00
        E 0 90 57 60
        E 0 90 63 60
        E 120 80 57 00
        E 0 80 63 00
        E 0 90 63 60
        E 120 80 63 00
        E 0 90 3c 60
        E 0 90 48 60
        E 0 90 54 60
        E 0 90 60 60
        E 120 80 3c 00
        E 0 80 48 00
        E 0 80 54 00
        E 0 80 60 00
        E 0 90 60 60
        E 120 80 60 00
        E 0 90 48 60
        E 0 90 54 60
        E 0 90 60 60
        E 120 80 48 00
        E 0 80 54 00
        E 0 80 60 00
        E 0 90 60 60
        E 120 80 60 00
        E 0 90 48 60
        E 0 90 54 60
        E 0 90 60 60
        E 120 80 48 00
        E 0 80 54 00
        E 0 80 60 00
        E 0 90 60 60
        E 120 80 60 00
        E 0 90 54 60
        E 0 90 60 60
        E 120 80 54 00
        E 0 80 60 00
        E 0 90 60 60
        E 120 80 60 00
        E 0 90 3e 60
        E 0 90 4b 60
        E 0 90 57 60
        E 0 90 63 60
        E 0 90 74 60
        E 120 80 3e 00
        E 0 80 4b 00
        E 0 80 57 00
        E 0 80 63 00
        E 0 90 63 60
        E 120 80 63 00
        E 0 90 4b 60
        E 0 90 57 60
        E 0 90 63 60
        E 120 80 4b 00
        E 0 80 57 00
        E 0 80 63 00
        E 0 90 63 60
        E 120 80 63 00
        E 0 90 4b 60
        E 0 90 57 60
        E 0 90 63 60
        E 120 80 4b 00
        E 0 80 57 00
        E 0 80 63 00
        E 0 90 63 60
        E 120 80 63 00
        E 0 90 57 60
        E 0 90 63 60
        E 120 80 57 00
        E 0 80 63 00
        E 0 90 63 60
        E 120 80 63 00
        E 0 90 3d 60
        E 0 90 4a 60
        E 0 90 56 60
        E 0 90 62 60
        E 120 80 3d 00
        E 0 80 4a 00
        E 0 80 56 00
        E 0 80 62 00
        E 0 90 62 60
        E 120 80 62 00
        E 0 90 4a 60
        E 0 90 56 60
        E 0 90 62 60
        E 120 80 4a 00
        E 0 80 56 00
        E 0 80 62 00
        E 0 90 62 60
        E 120 80 62 00
        E 0 90 4a 60
        E 0 90 56 60
        E 0 90 62 60
        E 120 80 4a 00
        E 0 80 56 00
        E 0 80 62 00
        E 0 90 62 60
        E 120 80 62 00
        E 0 90 56 60
        E 0 90 62 60
        E 120 80 56 00
        E 0 80 62 00
        E 0 90 62 60
        E 1 80 28 00
        E 119 80 62 00
        E 0 90 31 60
        E 0 90 3c 60
        E 0 90 49 60
        E 0 90 55 60
        E 0 90 61 60
        E 120 80 3c 00
        E 0 80 49 00
        E 0 80 55 00
        E 0 80 61 00
        E 0 90 61 60
        E 120 80 61 00
        E 0 90 49 60
        E 0 90 55 60
        E 0 90 61 60
        E 120 80 49 00
        E 0 80 55 00
        E 0 80 61 00
        E 0 90 61 60
        E 120 80 61 00
        E 0 90 49 60
        E 0 90 55 60
        E 0 90 61 60
        E 120 80 49 00
        E 0 80 55 00
        E 0 80 61 00
        E 0 90 61 60
        E 120 80 61 00
        E 0 90 55 60
        E 0 90 61 60
        E 120 80 55 00
        E 0 80 61 00
        E 0 90 61 60
        E 120 80 61 00
        E 0 90 3e 60
        E 0 90 4b 60
        E 0 90 57 60
        E 0 90 63 60
        E 120 80 3e 00
        E 0 80 4b 00
        E 0 80 57 00
        E 0 80 63 00
        E 0 90 63 60
        E 120 80 63 00
        E 0 90 4b 60
        E 0 90 57 60
        E 0 90 63 60
        E 120 80 4b 00
        E 0 80 57 00
        E 0 80 63 00
        E 0 90 63 60
        E 120 80 63 00
        E 0 90 3e 60
        E 0 90 4b 60
        E 0 90 57 60
        E 0 90 63 60
        E 120 80 3e 00
        E 0 80 4b 00
        E 0 80 57 00
        E 0 80 63 00
        E 0 90 63 60
        E 120 80 63 00
        E 0 90 4b 60
        E 0 90 57 60
        E 0 90 63 60
        E 120 80 4b 00
        E 0 80 57 00
        E 0 80 63 00
        E 0 90 63 60
        E 120 80 63 00
        E 0 90 3e 60
        E 0 90 4b 60
        E 0 90 57 60
        E 0 90 63 60
        E 120 80 74 00
        E 0 80 3e 00
        E 0 80 4b 00
        E 0 80 57 00
        E 0 80 63 00
        E 0 90 63 60
        E 120 80 63 00
        E 0 90 4b 60
        E 0 90 57 60
        E 0 90 63 60
        E 120 80 4b 00
        E 0 80 57 00
        E 0 80 63 00
        E 0 90 63 60
        E 120 80 63 00
        E 0 90 3e 60
        E 0 90 4b 60
        E 0 90 57 60
        E 0 90 63 60
        E 120 80 3e 00
        E 0 80 4b 00
        E 0 80 57 00
        E 0 80 63 00
        E 0 90 63 60
        E 120 80 63 00
        E 0 90 4b 60
        E 0 90 57 60
        E 0 90 63 60
        E 120 80 4b 00
        E 0 80 57 00
        E 0 80 63 00
        E 0 90 63 60
        E 120 80 63 00
        E 0 90 3e 60
        E 0 90 4b 60
        E 0 90 57 60
        E 0 90 63 60
        E 120 80 3e 00
        E 0 80 4b 00
        E 0 80 57 00
        E 0 80 63 00
        E 0 90 63 60
        E 120 80 63 00
        E 0 90 4b 60
        E 0 90 57 60
        E 0 90 63 60
        E 120 80 4b 00
        E 0 80 57 00
        E 0 80 63 00
        E 0 90 63 60
        E 120 80 63 00
        E 0 90 3e 60
        E 0 90 4b 60
        E 0 90 57 60
        E 0 90 63 60
        E 120 80 3e 00
        E 0 80 4b 00
        E 0 80 57 00
        E 0 80 63 00
        E 0 90 63 60
        E 120 80 63 00
        E 0 90 4b 60
        E 0 90 57 60
        E 0 90 63 60
        E 120 80 4b 00
        E 0 80 57 00
        E 0 80 63 00
        E 0 90 63 60
        E 120 80 63 00
        E 0 90 3e 60
        E 0 90 4b 60
        E 0 90 58 60
        E 0 90 64 60
        E 120 80 3e 00
        E 0 80 4b 00
        E 0 80 58 00
        E 0 80 64 00
        E 0 90 64 60
        E 120 80 64 00
        E 0 90 4b 60
        E 0 90 58 60
        E 0 90 64 60
        E 120 80 4b 00
        E 0 80 58 00
        E 0 80 64 00
        E 0 90 64 60
        E 120 80 64 00
        E 0 90 3e 60
        E 0 90 4b 60
        E 0 90 58 60
        E 0 90 64 60
        E 120 80 3e 00
        E 0 80 4b 00
        E 0 80 58 00
        E 0 80 64 00
        E 0 90 64 60
        E 120 80 64 00
        E 0 90 4b 60
        E 0 90 58 60
        E 0 90 64 60
        E 120 80 4b 00
        E 0 80 58 00
        E 0 80 64 00
        E 0 90 64 60
        E 120 80 64 00
        E 0 90 3e 60
        E 0 90 4b 60
        E 0 90 58 60
        E 0 90 64 60
        E 120 80 3e 00
        E 0 80 4b 00
        E 0 80 58 00
        E 0 80 64 00
        E 0 90 64 60
        E 120 80 64 00
        E 0 90 4b 60
        E 0 90 58 60
        E 0 90 64 60
        E 120 80 4b 00
        E 0 80 58 00
        E 0 80 64 00
        E 0 90 64 60
        E 120 80 64 00
        E 0 90 3e 60
        E 0 90 4b 60
        E 0 90 58 60
        E 0 90 64 60
        E 120 80 3e 00
        E 0 80 4b 00
        E 0 80 58 00
        E 0 80 64 00
        E 0 90 64 60
        E 120 80 64 00
        E 0 90 4b 60
        E 0 90 57 60
        E 0 90 63 60
        E 120 80 4b 00
        E 0 80 57 00
        E 0 80 63 00
        E 0 90 63 60
        E 120 80 63 00
        E 0 90 3e 60
        E 0 90 4b 60
        E 0 90 57 60
        E 0 90 63 60
        E 120 80 3e 00
        E 0 80 4b 00
        E 0 80 57 00
        E 0 80 63 00
        E 0 90 63 60
        E 120 80 63 00
        E 0 90 4b 60
        E 0 90 57 60
        E 0 90 63 60
        E 120 80 4b 00
        E 0 80 57 00
        E 0 80 63 00
        E 0 90 63 60
        E 120 80 63 00
        E 0 90 4b 60
        E 0 90 57 60
        E 0 90 63 60
        E 120 80 4b 00
        E 0 80 57 00
        E 0 80 63 00
        E 0 90 63 60
        E 120 80 63 00
        E 0 90 57 60
        E 0 90 63 60
        E 120 80 57 00
        E 0 80 63 00
        E 0 90 63 60
        E 120 80 63 00
        E 0 90 3d 60
        E 0 90 4a 60
        E 0 90 56 60
        E 0 90 62 60
        E 120 80 3d 00
        E 0 80 4a 00
        E 0 80 56 00
        E 0 80 62 00
        E 0 90 62 60
        E 120 80 62 00
        E 0 90 4a 60
        E 0 90 56 60
        E 0 90 62 60
        E 120 80 4a 00
        E 0 80 56 00
        E 0 80 62 00
        E 0 90 62 60
        E 120 80 62 00
        E 0 90 4a 60
        E 0 90 56 60
        E 0 90 62 60
        E 120 80 4a 00
        E 0 80 56 00
        E 0 80 62 00
        E 0 90 62 60
        E 120 80 62 00
        E 0 90 55 60
        E 0 90 61 60
        E 120 80 55 00
        E 0 80 61 00
        E 0 90 61 60
        E 120 80 61 00
        E 0 90 3c 60
        E 0 90 49 60
        E 0 90 55 60
        E 0 90 61 60
        E 120 80 3c 00
        E 0 80 49 00
        E 0 80 55 00
        E 0 80 61 00
        E 0 90 61 60
        E 120 80 61 00
        E 0 90 49 60
        E 0 90 55 60
        E 0 90 61 60
        E 120 80 49 00
        E 0 80 55 00
        E 0 80 61 00
        E 0 90 61 60
        E 120 80 61 00
        E 0 90 49 60
        E 0 90 55 60
        E 0 90 61 60
        E 120 80 49 00
        E 0 80 55 00
        E 0 80 61 00
        E 0 90 61 60
        E 120 80 61 00
        E 0 90 55 60
        E 0 90 61 60
        E 120 80 55 00
        E 0 80 61 00
        E 0 90 61 60
        E 120 80 61 00
        E 0 90 3e 60
        E 0 90 4b 60
        E 0 90 58 60
        E 0 90 64 60
        E 120 80 3e 00
        E 0 80 4b 00
        E 0 80 58 00
        E 0 80 64 00
        E 0 90 64 60
        E 120 80 64 00
        E 0 90 4b 60
        E 0 90 58 60
        E 0 90 64 60
        E 120 80 4b 00
        E 0 80 58 00
        E 0 80 64 00
        E 0 90 64 60
        E 120 80 64 00
        E 0 90 3e 60
        E 0 90 4b 60
        E 0 90 58 60
        E 0 90 64 60
        E 120 80 3e 00
        E 0 80 4b 00
        E 0 80 58 00
        E 0 80 64 00
        E 0 90 64 60
        E 120 80 64 00
        E 0 90 4b 60
        E 0 90 57 60
        E 0 90 63 60
        E 120 80 4b 00
        E 0 80 57 00
        E 0 80 63 00
        E 0 90 63 60
        E 120 80 63 00
        E 0 90 3e 60
        E 0 90 4b 60
        E 0 90 57 60
        E 0 90 63 60
        E 120 80 3e 00
        E 0 80 4b 00
        E 0 80 57 00
        E 0 80 63 00
        E 0 90 63 60
        E 120 80 63 00
        E 0 90 4b 60
        E 0 90 57 60
        E 0 90 63 60
        E 120 80 4b 00
        E 0 80 57 00
        E 0 80 63 00
        E 0 90 63 60
        E 120 80 63 00
        E 0 90 4b 60
        E 0 90 57 60
        E 0 90 63 60
        E 120 80 4b 00
        E 0 80 57 00
        E 0 80 63 00
        E 0 90 63 60
        E 120 80 63 00
        E 0 90 57 60
        E 0 90 63 60
        E 120 80 57 00
        E 0 80 63 00
        E 0 90 63 60
        E 120 80 63 00
        E 0 90 3c 60
        E 0 90 49 60
        E 0 90 55 60
        E 0 90 61 60
        E 120 80 3c 00
        E 0 80 49 00
        E 0 80 55 00
        E 0 80 61 00
        E 0 90 61 60
        E 120 80 61 00
        E 0 90 49 60
        E 0 90 55 60
        E 0 90 61 60
        E 120 80 49 00
        E 0 80 55 00
        E 0 80 61 00
        E 0 90 61 60
        E 120 80 61 00
        E 0 90 3c 60
        E 0 90 49 60
        E 0 90 55 60
        E 0 90 61 60
        E 120 80 3c 00
        E 0 80 49 00
        E 0 80 55 00
        E 0 80 61 00
        E 0 90 61 60
        E 120 80 61 00
        E 0 90 54 60
        E 0 90 60 60
        E 120 80 54 00
        E 0 80 60 00
        E 0 90 60 60
        E 120 80 60 00
        E 0 90 3c 60
        E 0 90 48 60
        E 0 90 54 60
        E 0 90 60 60
        E 120 80 3c 00
        E 0 80 48 00
        E 0 80 54 00
        E 0 80 60 00
        E 0 90 60 60
        E 120 80 60 00
        E 0 90 48 60
        E 0 90 54 60
        E 0 90 60 60
        E 120 80 48 00
        E 0 80 54 00
        E 0 80 60 00
        E 0 90 60 60
        E 120 80 60 00
        E 0 90 3c 60
        E 0 90 48 60
        E 0 90 54 60
        E 0 90 60 60
        E 120 80 3c 00
        E 0 80 48 00
        E 0 80 54 00
        E 0 80 60 00
        E 0 90 60 60
        E 120 80 60 00
        E 0 90 48 60
        E 0 90 54 60
        E 0 90 60 60
        E 120 80 48 00
        E 0 80 54 00
        E 0 80 60 00
        E 0 90 60 60
        E 120 80 60 00
        E 0 90 3c 60
        E 0 90 48 60
        E 0 90 54 60
        E 0 90 60 60
        E 120 80 3c 00
        E 0 80 48 00
        E 0 80 54 00
        E 0 80 60 00
        E 0 90 60 60
        E 120 80 60 00
        E 0 90 48 60
        E 0 90 54 60
        E 0 90 60 60
        E 120 80 48 00
        E 0 80 54 00
        E 0 80 60 00
        E 0 90 60 60
        E 120 80 60 00
        E 0 90 48 60
        E 0 90 54 60
        E 0 90 60 60
        E 120 80 48 00
        E 0 80 54 00
        E 0 80 60 00
        E 0 90 60 60
        E 120 80 60 00
        E 0 90 54 60
        E 0 90 60 60
        E 120 80 54 00
        E 0 80 60 00
        E 0 90 60 60
        E 1 80 31 00
        E 119 80 60 00
        E 0 90 28 60
        E 0 90 3e 60
        E 0 90 4b 60
        E 0 90 58 60
        E 0 90 64 60
        E 120 80 3e 00
        E 0 80 4b 00
        E 0 80 58 00
        E 0 80 64 00
        E 0 90 64 60
        E 120 80 64 00
        E 0 90 4b 60
        E 0 90 58 60
        E 0 90 64 60
        E 120 80 4b 00
        E 0 80 58 00
        E 0 80 64 00
        E 0 90 64 60
        E 120 80 64 00
        E 0 90 3e 60
        E 0 90 4b 60
        E 0 90 58 60
        E 0 90 64 60
        E 120 80 3e 00
        E 0 80 4b 00
        E 0 80 58 00
        E 0 80 64 00
        E 0 90 64 60
        E 120 80 64 00
        E 0 90 4b 60
        E 0 90 58 60
        E 0 90 64 60
        E 120 80 4b 00
        E 0 80 58 00
        E 0 80 64 00
        E 0 90 64 60
        E 120 80 64 00
        E 0 90 3e 60
        E 0 90 4b 60
        E 0 90 57 60
        E 0 90 63 60
        E 120 80 3e 00
        E 0 80 4b 00
        E 0 80 57 00
        E 0 80 63 00
        E 0 90 63 60
        E 120 80 63 00
        E 0 90 4b 60
        E 0 90 57 60
        E 0 90 63 60
        E 120 80 4b 00
        E 0 80 57 00
        E 0 80 63 00
        E 0 90 63 60
        E 120 80 63 00
        E 0 90 4b 60
        E 0 90 57 60
        E 0 90 63 60
        E 120 80 4b 00
        E 0 80 57 00
        E 0 80 63 00
        E 0 90 63 60
        E 120 80 63 00
        E 0 90 57 60
        E 0 90 63 60
        E 120 80 57 00
        E 0 80 63 00
        E 0 90 63 60
        E 120 80 63 00
        E 0 90 3c 60
        E 0 90 49 60
        E 0 90 55 60
        E 0 90 61 60
        E 120 80 3c 00
        E 0 80 49 00
        E 0 80 55 00
        E 0 80 61 00
        E 0 90 61 60
        E 120 80 61 00
        E 0 90 49 60
        E 0 90 55 60
        E 0 90 61 60
        E 120 80 49 00
        E 0 80 55 00
        E 0 80 61 00
        E 0 90 61 60
        E 120 80 61 00
        E 0 90 3c 60
        E 0 90 49 60
        E 0 90 55 60
        E 0 90 61 60
        E 120 80 3c 00
        E 0 80 49 00
        E 0 80 55 00
        E 0 80 61 00
        E 0 90 61 60
        E 120 80 61 00
        E 0 90 49 60
        E 0 90 55 60
        E 0 90 61 60
        E 120 80 49 00
        E 0 80 55 00
        E 0 80 61 00
        E 0 90 61 60
        E 120 80 61 00
        E 0 90 3c 60
        E 0 90 49 60
        E 0 90 55 60
        E 0 90 61 60
        E 120 80 3c 00
        E 0 80 49 00
        E 0 80 55 00
        E 0 80 61 00
        E 0 90 61 60
        E 120 80 61 00
        E 0 90 49 60
        E 0 90 55 60
        E 0 90 61 60
        E 120 80 49 00
        E 0 80 55 00
        E 0 80 61 00
        E 0 90 61 60
        E 120 80 61 00
        E 0 90 49 60
        E 0 90 55 60
        E 0 90 61 60
        E 120 80 49 00
        E 0 80 55 00
        E 0 80 61 00
        E 0 90 61 60
        E 120 80 61 00
        E 0 90 55 60
        E 0 90 61 60
        E 120 80 55 00
        E 0 80 61 00
        E 0 90 61 60
        E 120 80 61 00
        E 0 90 3e 60
        E 0 90 4b 60
        E 0 90 58 60
        E 0 90 64 60
        E 0 90 74 60
        E 120 80 3e 00
        E 0 80 4b 00
        E 0 80 58 00
        E 0 80 64 00
        E 0 90 64 60
        E 120 80 64 00
        E 0 90 4b 60
        E 0 90 58 60
        E 0 90 64 60
        E 120 80 4b 00
        E 0 80 58 00
        E 0 80 64 00
        E 0 90 64 60
        E 120 80 64 00
        E 0 90 3e 60
        E 0 90 4b 60
        E 0 90 58 60
        E 0 90 64 60
        E 120 80 3e 00
        E 0 80 4b 00
        E 0 80 58 00
        E 0 80 64 00
        E 0 90 64 60
        E 120 80 64 00
        E 0 90 4b 60
        E 0 90 58 60
        E 0 90 64 60
        E 120 80 4b 00
        E 0 80 58 00
        E 0 80 64 00
        E 0 90 64 60
        E 120 80 64 00
        E 0 90 3e 60
        E 0 90 4b 60
        E 0 90 57 60
        E 0 90 63 60
        E 120 80 3e 00
        E 0 80 4b 00
        E 0 80 57 00
        E 0 80 63 00
        E 0 90 63 60
        E 120 80 63 00
        E 0 90 4b 60
        E 0 90 57 60
        E 0 90 63 60
        E 120 80 4b 00
        E 0 80 57 00
        E 0 80 63 00
        E 0 90 63 60
        E 120 80 63 00
        E 0 90 4b 60
        E 0 90 57 60
        E 0 90 63 60
        E 120 80 4b 00
        E 0 80 57 00
        E 0 80 63 00
        E 0 90 63 60
        E 120 80 63 00
        E 0 90 57 60
        E 0 90 63 60
        E 120 80 57 00
        E 0 80 63 00
        E 0 90 63 60
        E 120 80 63 00
        E 0 90 3c 60
        E 0 90 49 60
        E 0 90 55 60
        E 0 90 61 60
        E 120 80 3c 00
        E 0 80 49 00
        E 0 80 55 00
        E 0 80 61 00
        E 0 90 61 60
        E 120 80 61 00
        E 0 90 49 60
        E 0 90 55 60
        E 0 90 61 60
        E 120 80 49 00
        E 0 80 55 00
        E 0 80 61 00
        E 0 90 61 60
        E 120 80 61 00
        E 0 90 3c 60
        E 0 90 49 60
        E 0 90 55 60
        E 0 90 61 60
        E 120 80 3c 00
        E 0 80 49 00
        E 0 80 55 00
        E 0 80 61 00
        E 0 90 61 60
        E 120 80 61 00
        E 0 90 49 60
        E 0 90 55 60
        E 0 90 61 60
        E 120 80 49 00
        E 0 80 55 00
        E 0 80 61 00
        E 0 90 61 60
        E 120 80 61 00
        E 0 90 3c 60
        E 0 90 49 60
        E 0 90 55 60
        E 0 90 61 60
        E 120 80 3c 00
        E 0 80 49 00
        E 0 80 55 00
        E 0 80 61 00
        E 0 90 61 60
        E 120 80 61 00
        E 0 90 49 60
        E 0 90 55 60
        E 0 90 61 60
        E 120 80 49 00
        E 0 80 55 00
        E 0 80 61 00
        E 0 90 61 60
        E 120 80 61 00
        E 0 90 49 60
        E 0 90 55 60
        E 0 90 61 60
        E 120 80 49 00
        E 0 80 55 00
        E 0 80 61 00
        E 0 90 61 60
        E 120 80 61 00
        E 0 90 55 60
        E 0 90 61 60
        E 120 80 55 00
        E 0 80 61 00
        E 0 90 61 60
        E 120 80 61 00
        E 0 90 3e 60
        E 0 90 4b 60
        E 0 90 58 60
        E 0 90 64 60
        E 120 80 74 00
        E 0 80 3e 00
        E 0 80 4b 00
        E 0 80 58 00
        E 0 80 64 00
        E 0 90 64 60
        E 120 80 64 00
        E 0 90 4b 60
        E 0 90 58 60
        E 0 90 64 60
        E 120 80 4b 00
        E 0 80 58 00
        E 0 80 64 00
        E 0 90 64 60
        E 120 80 64 00
        E 0 90 4b 60
        E 0 90 58 60
        E 0 90 64 60
        E 120 80 4b 00
        E 0 80 58 00
        E 0 80 64 00
        E 0 90 64 60
        E 120 80 64 00
        E 0 90 58 60
        E 0 90 64 60
        E 120 80 58 00
        E 0 80 64 00
        E 0 90 64 60
        E 120 80 64 00
        E 0 90 3d 60
        E 0 90 4a 60
        E 0 90 56 60
        E 0 90 62 60
        E 120 80 3d 00
        E 0 80 4a 00
        E 0 80 56 00
        E 0 80 62 00
        E 0 90 62 60
        E 120 80 62 00
        E 0 90 4a 60
        E 0 90 56 60
        E 0 90 62 60
        E 120 80 4a 00
        E 0 80 56 00
        E 0 80 62 00
        E 0 90 62 60
        E 120 80 62 00
        E 0 90 4a 60
        E 0 90 56 60
        E 0 90 62 60
        E 120 80 4a 00
        E 0 80 56 00
        E 0 80 62 00
        E 0 90 62 60
        E 120 80 62 00
        E 0 90 56 60
        E 0 90 62 60
        E 120 80 56 00
        E 0 80 62 00
        E 0 90 62 60
        E 120 80 62 00
        E 0 90 3c 60
        E 0 90 49 60
        E 0 90 55 60
        E 0 90 61 60
        E 120 80 3c 00
        E 0 80 49 00
        E 0 80 55 00
        E 0 80 61 00
        E 0 90 61 60
        E 120 80 61 00
        E 0 90 49 60
        E 0 90 55 60
        E 0 90 61 60
        E 120 80 49 00
        E 0 80 55 00
        E 0 80 61 00
        E 0 90 61 60
        E 120 80 61 00
        E 0 90 3c 60
        E 0 90 49 60
        E 0 90 55 60
        E 0 90 61 60
        E 120 80 3c 00
        E 0 80 49 00
        E 0 80 55 00
        E 0 80 61 00
        E 0 90 61 60
        E 120 80 61 00
        E 0 90 49 60
        E 0 90 55 60
        E 0 90 61 60
        E 120 80 49 00
        E 0 80 55 00
        E 0 80 61 00
        E 0 90 61 60
        E 120 80 61 00
        E 0 90 3c 60
        E 0 90 49 60
        E 0 90 55 60
        E 0 90 61 60
        E 120 80 3c 00
        E 0 80 49 00
        E 0 80 55 00
        E 0 80 61 00
        E 0 90 61 60
        E 120 80 61 00
        E 0 90 49 60
        E 0 90 55 60
        E 0 90 61 60
        E 120 80 49 00
        E 0 80 55 00
        E 0 80 61 00
        E 0 90 61 60
        E 120 80 61 00
        E 0 90 49 60
        E 0 90 55 60
        E 0 90 61 60
        E 120 80 49 00
        E 0 80 55 00
        E 0 80 61 00
        E 0 90 61 60
        E 120 80 61 00
        E 0 90 55 60
        E 0 90 61 60
        E 120 80 55 00
        E 0 80 61 00
        E 0 90 61 60
        E 120 80 61 00
        E 0 90 3e 60
        E 0 90 4b 60
        E 0 90 58 60
        E 0 90 64 60
        E 120 80 3e 00
        E 0 80 4b 00
        E 0 80 58 00
        E 0 80 64 00
        E 0 90 64 60
        E 120 80 64 00
        E 0 90 4b 60
        E 0 90 58 60
        E 0 90 64 60
        E 120 80 4b 00
        E 0 80 58 00
        E 0 80 64 00
        E 0 90 64 60
        E 120 80 64 00
        E 0 90 3e 60
        E 0 90 4b 60
        E 0 90 58 60
        E 0 90 64 60
        E 120 80 3e 00
        E 0 80 4b 00
        E 0 80 58 00
        E 0 80 64 00
        E 0 90 64 60
        E 120 80 64 00
        E 0 90 4b 60
        E 0 90 58 60
        E 0 90 64 60
        E 120 80 4b 00
        E 0 80 58 00
        E 0 80 64 00
        E 0 90 64 60
        E 120 80 64 00
        E 0 90 3e 60
        E 0 90 4b 60
        E 0 90 57 60
        E 0 90 63 60
        E 120 80 3e 00
        E 0 80 4b 00
        E 0 80 57 00
        E 0 80 63 00
        E 0 90 63 60
        E 120 80 63 00
        E 0 90 4b 60
        E 0 90 57 60
        E 0 90 63 60
        E 120 80 4b 00
        E 0 80 57 00
        E 0 80 63 00
        E 0 90 63 60
        E 120 80 63 00
        E 0 90 4b 60
        E 0 90 57 60
        E 0 90 63 60
        E 120 80 4b 00
        E 0 80 57 00
        E 0 80 63 00
        E 0 90 63 60
        E 120 80 63 00
        E 0 90 57 60
        E 0 90 63 60
        E 120 80 57 00
        E 0 80 63 00
        E 0 90 63 60
        E 120 80 63 00
        E 0 90 3c 60
        E 0 90 49 60
        E 0 90 55 60
        E 0 90 61 60
        E 120 80 3c 00
        E 0 80 49 00
        E 0 80 55 00
        E 0 80 61 00
        E 0 90 61 60
        E 120 80 61 00
        E 0 90 49 60
        E 0 90 55 60
        E 0 90 61 60
        E 120 80 49 00
        E 0 80 55 00
        E 0 80 61 00
        E 0 90 61 60
        E 120 80 61 00
        E 0 90 3c 60
        E 0 90 49 60
        E 0 90 55 60
        E 0 90 61 60
        E 120 80 3c 00
        E 0 80 49 00
        E 0 80 55 00
        E 0 80 61 00
        E 0 90 61 60
        E 120 80 61 00
        E 0 90 49 60
        E 0 90 55 60
        E 0 90 61 60
        E 120 80 49 00
        E 0 80 55 00
        E 0 80 61 00
        E 0 90 61 60
        E 120 80 61 00
        E 0 90 3c 60
        E 0 90 49 60
        E 0 90 55 60
        E 0 90 61 60
        E 120 80 3c 00
        E 0 80 49 00
        E 0 80 55 00
        E 0 80 61 00
        E 0 90 61 60
        E 120 80 61 00
        E 0 90 49 60
        E 0 90 55 60
        E 0 90 61 60
        E 120 80 49 00
        E 0 80 55 00
        E 0 80 61 00
        E 0 90 61 60
        E 120 80 61 00
        E 0 90 3c 60
        E 0 90 49 60
        E 0 90 55 60
        E 0 90 61 60
        E 120 80 3c 00
        E 0 80 49 00
        E 0 80 55 00
        E 0 80 61 00
        E 0 90 61 60
        E 120 80 61 00
        E 0 90 49 60
        E 0 90 55 60
        E 0 90 61 60
        E 120 80 49 00
        E 0 80 55 00
        E 0 80 61 00
        E 0 90 61 60
        <X 120 0
          /wFbaW50ZW5zZV0=
        >
        E 0 80 61 00
        E 0 90 3c 60
        E 0 90 49 60
        E 0 90 55 60
        E 0 90 61 60
        E 120 80 3c 00
        E 0 80 49 00
        E 0 80 55 00
        E 0 80 61 00
        E 0 90 61 60
        E 120 80 61 00
        E 0 90 49 60
        E 0 90 55 60
        E 0 90 61 60
        E 120 80 49 00
        E 0 80 55 00
        E 0 80 61 00
        E 0 90 61 60
        E 120 80 61 00
        E 0 90 3c 60
        E 0 90 49 60
        E 0 90 55 60
        E 0 90 61 60
        E 120 80 3c 00
        E 0 80 49 00
        E 0 80 55 00
        E 0 80 61 00
        E 0 90 61 60
        E 120 80 61 00
        E 0 90 49 60
        E 0 90 55 60
        E 0 90 61 60
        E 120 80 49 00
        E 0 80 55 00
        E 0 80 61 00
        E 0 90 61 60
        E 120 80 61 00
        E 0 90 3c 60
        E 0 90 49 60
        E 0 90 55 60
        E 0 90 61 60
        E 120 80 3c 00
        E 0 80 49 00
        E 0 80 55 00
        E 0 80 61 00
        E 0 90 61 60
        E 120 80 61 00
        E 0 90 49 60
        E 0 90 55 60
        E 0 90 61 60
        E 120 80 49 00
        E 0 80 55 00
        E 0 80 61 00
        E 0 90 61 60
        E 120 80 61 00
        E 0 90 49 60
        E 0 90 55 60
        E 0 90 61 60
        E 120 80 49 00
        E 0 80 55 00
        E 0 80 61 00
        E 0 90 61 60
        E 120 80 61 00
        E 0 90 55 60
        E 0 90 61 60
        E 120 80 55 00
        E 0 80 61 00
        E 0 90 61 60
        E 120 80 61 00
        E 0 90 3d 60
        E 0 90 4a 60
        E 0 90 56 60
        E 0 90 62 60
        E 120 80 3d 00
        E 0 80 4a 00
        E 0 80 56 00
        E 0 80 62 00
        E 0 90 62 60
        E 120 80 62 00
        E 0 90 4a 60
        E 0 90 56 60
        E 0 90 62 60
        E 120 80 4a 00
        E 0 80 56 00
        E 0 80 62 00
        E 0 90 62 60
        E 120 80 62 00
        E 0 90 3d 60
        E 0 90 4a 60
        E 0 90 56 60
        E 0 90 62 60
        E 120 80 3d 00
        E 0 80 4a 00
        E 0 80 56 00
        E 0 80 62 00
        E 0 90 62 60
        E 120 80 62 00
        E 0 90 4a 60
        E 0 90 56 60
        E 0 90 62 60
        E 120 80 4a 00
        E 0 80 56 00
        E 0 80 62 00
        E 0 90 62 60
        E 120 80 62 00
        E 0 90 3d 60
        E 0 90 4a 60
        E 0 90 56 60
        E 0 90 62 60
        E 120 80 3d 00
        E 0 80 4a 00
        E 0 80 56 00
        E 0 80 62 00
        E 0 90 62 60
        E 120 80 62 00
        E 0 90 4a 60
        E 0 90 56 60
        E 0 90 62 60
        E 120 80 4a 00
        E 0 80 56 00
        E 0 80 62 00
        E 0 90 62 60
        E 120 80 62 00
        E 0 90 4a 60
        E 0 90 56 60
        E 0 90 62 60
        E 120 80 4a 00
        E 0 80 56 00
        E 0 80 62 00
        E 0 90 62 60
        E 120 80 62 00
        E 0 90 56 60
        E 0 90 62 60
        E 120 80 56 00
        E 0 80 62 00
        E 0 90 62 60
        E 120 80 62 00
        E 0 90 3e 60
        E 0 90 4b 60
        E 0 90 57 60
        E 0 90 63 60
        E 120 80 3e 00
        E 0 80 4b 00
        E 0 80 57 00
        E 0 80 63 00
        E 0 90 63 60
        E 120 80 63 00
        E 0 90 4b 60
        E 0 90 57 60
        E 0 90 63 60
        E 120 80 4b 00
        E 0 80 57 00
        E 0 80 63 00
        E 0 90 63 60
        E 120 80 63 00
        E 0 90 3e 60
        E 0 90 4b 60
        E 0 90 57 60
        E 0 90 63 60
        E 120 80 3e 00
        E 0 80 4b 00
        E 0 80 57 00
        E 0 80 63 00
        E 0 90 63 60
        E 120 80 63 00
        E 0 90 4b 60
        E 0 90 57 60
        E 0 90 63 60
        E 120 80 4b 00
        E 0 80 57 00
        E 0 80 63 00
        E 0 90 63 60
        E 120 80 63 00
        E 0 90 3e 60
        E 0 90 4b 60
        E 0 90 57 60
        E 0 90 63 60
        E 120 80 3e 00
        E 0 80 4b 00
        E 0 80 57 00
        E 0 80 63 00
        E 0 90 63 60
        E 120 80 63 00
        E 0 90 4b 60
        E 0 90 57 60
        E 0 90 63 60
        E 120 80 4b 00
        E 0 80 57 00
        E 0 80 63 00
        E 0 90 63 60
        E 120 80 63 00
        E 0 90 4b 60
        E 0 90 57 60
        E 0 90 63 60
        E 120 80 4b 00
        E 0 80 57 00
        E 0 80 63 00
        E 0 90 63 60
        E 120 80 63 00
        E 0 90 57 60
        E 0 90 63 60
        E 120 80 57 00
        E 0 80 63 00
        E 0 90 63 60
        E 120 80 63 00
        E 0 90 3c 60
        E 0 90 48 60
        E 0 90 54 60
        E 0 90 60 60
        E 120 80 3c 00
        E 0 80 48 00
        E 0 80 54 00
        E 0 80 60 00
        E 0 90 60 60
        E 120 80 60 00
        E 0 90 48 60
        E 0 90 54 60
        E 0 90 60 60
        E 120 80 48 00
        E 0 80 54 00
        E 0 80 60 00
        E 0 90 60 60
        E 120 80 60 00
        E 0 90 3c 60
        E 0 90 48 60
        E 0 90 54 60
        E 0 90 60 60
        E 120 80 3c 00
        E 0 80 48 00
        E 0 80 54 00
        E 0 80 60 00
        E 0 90 60 60
        E 120 80 60 00
        E 0 90 48 60
        E 0 90 54 60
        E 0 90 60 60
        E 120 80 48 00
        E 0 80 54 00
        E 0 80 60 00
        E 0 90 60 60
        E 120 80 60 00
        E 0 90 3c 60
        E 0 90 48 60
        E 0 90 54 60
        E 0 90 60 60
        E 120 80 3c 00
        E 0 80 48 00
        E 0 80 54 00
        E 0 80 60 00
        E 0 90 60 60
        E 120 80 60 00
        E 0 90 48 60
        E 0 90 54 60
        E 0 90 60 60
        E 120 80 48 00
        E 0 80 54 00
        E 0 80 60 00
        E 0 90 60 60
        E 120 80 60 00
        E 0 90 3c 60
        E 0 90 48 60
        E 0 90 54 60
        E 0 90 60 60
        E 120 80 3c 00
        E 0 80 48 00
        E 0 80 54 00
        E 0 80 60 00
        E 0 90 60 60
        E 120 80 60 00
        E 0 90 54 60
        E 0 90 60 60
        E 120 80 54 00
        E 0 80 60 00
        E 0 90 60 60
        E 120 80 60 00
        E 0 90 3c 60
        E 0 90 49 60
        E 0 90 55 60
        E 0 90 61 60
        E 0 90 74 60
        E 120 80 3c 00
        E 0 80 49 00
        E 0 80 55 00
        E 0 80 61 00
        E 0 90 61 60
        E 120 80 61 00
        E 0 90 49 60
        E 0 90 55 60
        E 0 90 61 60
        E 120 80 49 00
        E 0 80 55 00
        E 0 80 61 00
        E 0 90 61 60
        E 120 80 61 00
        E 0 90 3c 60
        E 0 90 49 60
        E 0 90 55 60
        E 0 90 61 60
        E 120 80 3c 00
        E 0 80 49 00
        E 0 80 55 00
        E 0 80 61 00
        E 0 90 61 60
        E 120 80 61 00
        E 0 90 49 60
        E 0 90 55 60
        E 0 90 61 60
        E 120 80 49 00
        E 0 80 55 00
        E 0 80 61 00
        E 0 90 61 60
        E 120 80 61 00
        E 0 90 3c 60
        E 0 90 49 60
        E 0 90 55 60
        E 0 90 61 60
        E 120 80 3c 00
        E 0 80 49 00
        E 0 80 55 00
        E 0 80 61 00
        E 0 90 61 60
        E 120 80 61 00
        E 0 90 49 60
        E 0 90 55 60
        E 0 90 61 60
        E 120 80 49 00
        E 0 80 55 00
        E 0 80 61 00
        E 0 90 61 60
        E 120 80 61 00
        E 0 90 49 60
        E 0 90 55 60
        E 0 90 61 60
        E 120 80 49 00
        E 0 80 55 00
        E 0 80 61 00
        E 0 90 61 60
        E 120 80 61 00
        E 0 90 55 60
        E 0 90 61 60
        E 120 80 55 00
        E 0 80 61 00
        E 0 90 61 60
        E 120 80 61 00
        E 0 90 3d 60
        E 0 90 4a 60
        E 0 90 56 60
        E 0 90 62 60
        E 120 80 74 00
        E 0 80 3d 00
        E 0 80 4a 00
        E 0 80 56 00
        E 0 80 62 00
        E 0 90 62 60
        E 120 80 62 00
        E 0 90 4a 60
        E 0 90 56 60
        E 0 90 62 60
        E 120 80 4a 00
        E 0 80 56 00
        E 0 80 62 00
        E 0 90 62 60
        E 120 80 62 00
        E 0 90 3d 60
        E 0 90 4a 60
        E 0 90 56 60
        E 0 90 62 60
        E 120 80 3d 00
        E 0 80 4a 00
        E 0 80 56 00
        E 0 80 62 00
        E 0 90 62 60
        E 120 80 62 00
        E 0 90 4a 60
        E 0 90 56 60
        E 0 90 62 60
        E 120 80 4a 00
        E 0 80 56 00
        E 0 80 62 00
        E 0 90 62 60
        E 120 80 62 00
        E 0 90 3d 60
        E 0 90 4a 60
        E 0 90 56 60
        E 0 90 62 60
        E 120 80 3d 00
        E 0 80 4a 00
        E 0 80 56 00
        E 0 80 62 00
        E 0 90 62 60
        E 120 80 62 00
        E 0 90 4a 60
        E 0 90 56 60
        E 0 90 62 60
        E 120 80 4a 00
        E 0 80 56 00
        E 0 80 62 00
        E 0 90 62 60
        E 120 80 62 00
        E 0 90 4a 60
        E 0 90 56 60
        E 0 90 62 60
        E 120 80 4a 00
        E 0 80 56 00
        E 0 80 62 00
        E 0 90 62 60
        E 120 80 62 00
        E 0 90 56 60
        E 0 90 62 60
        E 120 80 56 00
        E 0 80 62 00
        E 0 90 62 60
        E 120 80 62 00
        E 0 90 3e 60
        E 0 90 4b 60
        E 0 90 57 60
        E 0 90 63 60
        E 120 80 3e 00
        E 0 80 4b 00
        E 0 80 57 00
        E 0 80 63 00
        E 0 90 63 60
        E 120 80 63 00
        E 0 90 4b 60
        E 0 90 57 60
        E 0 90 63 60
        E 120 80 4b 00
        E 0 80 57 00
        E 0 80 63 00
        E 0 90 63 60
        E 120 80 63 00
        E 0 90 3e 60
        E 0 90 4b 60
        E 0 90 57 60
        E 0 90 63 60
        E 120 80 3e 00
        E 0 80 4b 00
        E 0 80 57 00
        E 0 80 63 00
        E 0 90 63 60
        E 120 80 63 00
        E 0 90 4b 60
        E 0 90 57 60
        E 0 90 63 60
        E 120 80 4b 00
        E 0 80 57 00
        E 0 80 63 00
        E 0 90 63 60
        E 120 80 63 00
        E 0 90 3e 60
        E 0 90 4b 60
        E 0 90 57 60
        E 0 90 63 60
        E 120 80 3e 00
        E 0 80 4b 00
        E 0 80 57 00
        E 0 80 63 00
        E 0 90 63 60
        E 120 80 63 00
        E 0 90 4b 60
        E 0 90 57 60
        E 0 90 63 60
        E 120 80 4b 00
        E 0 80 57 00
        E 0 80 63 00
        E 0 90 63 60
        E 120 80 63 00
        E 0 90 4b 60
        E 0 90 57 60
        E 0 90 63 60
        E 120 80 4b 00
        E 0 80 57 00
        E 0 80 63 00
        E 0 90 63 60
        E 120 80 63 00
        E 0 90 57 60
        E 0 90 63 60
        E 120 80 57 00
        E 0 80 63 00
        E 0 90 63 60
        E 120 80 63 00
        E 0 90 3c 60
        E 0 90 48 60
        E 0 90 54 60
        E 0 90 60 60
        E 120 80 3c 00
        E 0 80 48 00
        E 0 80 54 00
        E 0 80 60 00
        E 0 90 60 60
        E 120 80 60 00
        E 0 90 48 60
        E 0 90 54 60
        E 0 90 60 60
        E 120 80 48 00
        E 0 80 54 00
        E 0 80 60 00
        E 0 90 60 60
        E 120 80 60 00
        E 0 90 3c 60
        E 0 90 48 60
        E 0 90 54 60
        E 0 90 60 60
        E 120 80 3c 00
        E 0 80 48 00
        E 0 80 54 00
        E 0 80 60 00
        E 0 90 60 60
        E 120 80 60 00
        E 0 90 48 60
        E 0 90 54 60
        E 0 90 60 60
        E 120 80 48 00
        E 0 80 54 00
        E 0 80 60 00
        E 0 90 60 60
        E 120 80 60 00
        E 0 90 3c 60
        E 0 90 48 60
        E 0 90 54 60
        E 0 90 60 60
        E 120 80 3c 00
        E 0 80 48 00
        E 0 80 54 00
        E 0 80 60 00
        E 0 90 60 60
        E 120 80 60 00
        E 0 90 48 60
        E 0 90 54 60
        E 0 90 60 60
        E 120 80 48 00
        E 0 80 54 00
        E 0 80 60 00
        E 0 90 60 60
        E 120 80 60 00
        E 0 90 3c 60
        E 0 90 48 60
        E 0 90 54 60
        E 0 90 60 60
        E 120 80 3c 00
        E 0 80 48 00
        E 0 80 54 00
        E 0 80 60 00
        E 0 90 60 60
        E 120 80 60 00
        E 0 90 54 60
        E 0 90 60 60
        E 120 80 54 00
        E 0 80 60 00
        E 0 90 60 60
        E 120 80 60 00
        E 0 90 3c 60
        E 0 90 49 60
        E 0 90 55 60
        E 0 90 61 60
        E 120 80 3c 00
        E 0 80 49 00
        E 0 80 55 00
        E 0 80 61 00
        E 0 90 61 60
        E 120 80 61 00
        E 0 90 49 60
        E 0 90 55 60
        E 0 90 61 60
        E 120 80 49 00
        E 0 80 55 00
        E 0 80 61 00
        E 0 90 61 60
        E 120 80 61 00
        E 0 90 49 60
        E 0 90 55 60
        E 0 90 61 60
        E 120 80 49 00
        E 0 80 55 00
        E 0 80 61 00
        E 0 90 61 60
        E 120 80 61 00
        E 0 90 55 60
        E 0 90 61 60
        E 120 80 55 00
        E 0 80 61 00
        E 0 90 61 60
        E 120 80 61 00
        E 0 90 3e 60
        E 0 90 4b 60
        E 0 90 57 60
        E 0 90 63 60
        E 120 80 3e 00
        E 0 80 4b 00
        E 0 80 57 00
        E 0 80 63 00
        E 0 90 63 60
        E 120 80 63 00
        E 0 90 4b 60
        E 0 90 57 60
        E 0 90 63 60
        E 120 80 4b 00
        E 0 80 57 00
        E 0 80 63 00
        E 0 90 63 60
        E 120 80 63 00
        E 0 90 4b 60
        E 0 90 57 60
        E 0 90 63 60
        E 120 80 4b 00
        E 0 80 57 00
        E 0 80 63 00
        E 0 90 63 60
        E 120 80 63 00
        E 0 90 57 60
        E 0 90 63 60
        E 120 80 57 00
        E 0 80 63 00
        E 0 90 63 60
        E 1 80 28 00
        E 119 80 63 00
        E 0 90 2f 60
        E 0 90 3d 60
        E 0 90 4a 60
        E 0 90 56 60
        E 0 90 62 60
        E 120 80 3d 00
        E 0 80 4a 00
        E 0 80 56 00
        E 0 80 62 00
        E 0 90 62 60
        E 120 80 62 00
        E 0 90 4a 60
        E 0 90 56 60
        E 0 90 62 60
        E 120 80 4a 00
        E 0 80 56 00
        E 0 80 62 00
        E 0 90 62 60
        E 120 80 62 00
        E 0 90 4a 60
        E 0 90 56 60
        E 0 90 62 60
        E 120 80 4a 00
        E 0 80 56 00
        E 0 80 62 00
        E 0 90 62 60
        E 120 80 62 00
        E 0 90 56 60
        E 0 90 62 60
        E 120 80 56 00
        E 0 80 62 00
        E 0 90 62 60
        E 120 80 62 00
        E 0 90 3e 60
        E 0 90 4b 60
        E 0 90 57 60
        E 0 90 63 60
        E 120 80 3e 00
        E 0 80 4b 00
        E 0 80 57 00
        E 0 80 63 00
        E 0 90 63 60
        E 120 80 63 00
        E 0 90 4b 60
        E 0 90 57 60
        E 0 90 63 60
        E 120 80 4b 00
        E 0 80 57 00
        E 0 80 63 00
        E 0 90 63 60
        E 120 80 63 00
        E 0 90 3e 60
        E 0 90 4b 60
        E 0 90 57 60
        E 0 90 63 60
        E 120 80 3e 00
        E 0 80 4b 00
        E 0 80 57 00
        E 0 80 63 00
        E 0 90 63 60
        E 120 80 63 00
        E 0 90 4b 60
        E 0 90 57 60
        E 0 90 63 60
        E 120 80 4b 00
        E 0 80 57 00
        E 0 80 63 00
        E 0 90 63 60
        E 1 80 2f 00
        E 119 80 63 00
        E 0 90 28 60
        E 0 90 3e 60
        E 0 90 4b 60
        E 0 90 58 60
        E 0 90 64 60
        E 120 80 3e 00
        E 0 80 4b 00
        E 0 80 58 00
        E 0 80 64 00
        E 0 90 64 60
        E 120 80 64 00
        E 0 90 4b 60
        E 0 90 58 60
        E 0 90 64 60
        E 120 80 4b 00
        E 0 80 58 00
        E 0 80 64 00
        E 0 90 64 60
        E 120 80 64 00
        E 0 90 4b 60
        E 0 90 58 60
        E 0 90 64 60
        E 120 80 4b 00
        E 0 80 58 00
        E 0 80 64 00
        E 0 90 64 60
        E 120 80 64 00
        E 0 90 58 60
        E 0 90 64 60
        E 120 80 58 00
        E 0 80 64 00
        E 0 90 64 60
        E 120 80 64 00
        E 0 90 3d 60
        E 0 90 4a 60
        E 0 90 56 60
        E 0 90 62 60
        E 120 80 3d 00
        E 0 80 4a 00
        E 0 80 56 00
        E 0 80 62 00
        E 0 90 62 60
        E 120 80 62 00
        E 0 90 4a 60
        E 0 90 56 60
        E 0 90 62 60
        E 120 80 4a 00
        E 0 80 56 00
        E 0 80 62 00
        E 0 90 62 60
        E 120 80 62 00
        E 0 90 4a 60
        E 0 90 56 60
        E 0 90 62 60
        E 120 80 4a 00
        E 0 80 56 00
        E 0 80 62 00
        E 0 90 62 60
        E 120 80 62 00
        E 0 90 56 60
        E 0 90 62 60
        E 120 80 56 00
        E 0 80 62 00
        E 0 90 62 60
        E 120 80 62 00
        E 0 90 3c 60
        E 0 90 49 60
        E 0 90 55 60
        E 0 90 61 60
        E 120 80 3c 00
        E 0 80 49 00
        E 0 80 55 00
        E 0 80 61 00
        E 0 90 61 60
        E 120 80 61 00
        E 0 90 49 60
        E 0 90 55 60
        E 0 90 61 60
        E 120 80 49 00
        E 0 80 55 00
        E 0 80 61 00
        E 0 90 61 60
        E 120 80 61 00
        E 0 90 3c 60
        E 0 90 49 60
        E 0 90 55 60
        E 0 90 61 60
        E 120 80 3c 00
        E 0 80 49 00
        E 0 80 55 00
        E 0 80 61 00
        E 0 90 61 60
        E 120 80 61 00
        E 0 90 49 60
        E 0 90 55 60
        E 0 90 61 60
        E 120 80 49 00
        E 0 80 55 00
        E 0 80 61 00
        E 0 90 61 60
        E 120 80 61 00
        E 0 90 3c 60
        E 0 90 49 60
        E 0 90 55 60
        E 0 90 61 60
        E 120 80 3c 00
        E 0 80 49 00
        E 0 80 55 00
        E 0 80 61 00
        E 0 90 61 60
        E 120 80 61 00
        E 0 90 49 60
        E 0 90 55 60
        E 0 90 61 60
        E 120 80 49 00
        E 0 80 55 00
        E 0 80 61 00
        E 0 90 61 60
        E 120 80 61 00
        E 0 90 49 60
        E 0 90 55 60
        E 0 90 61 60
        E 120 80 49 00
        E 0 80 55 00
        E 0 80 61 00
        E 0 90 61 60
        E 120 80 61 00
        E 0 90 55 60
        E 0 90 61 60
        E 120 80 55 00
        E 0 80 61 00
        E 0 90 61 60
        E 120 80 61 00
        E 0 90 3e 60
        E 0 90 4b 60
        E 0 90 58 60
        E 0 90 64 60
        E 0 90 74 60
        E 120 80 3e 00
        E 0 80 4b 00
        E 0 80 58 00
        E 0 80 64 00
        E 0 90 64 60
        E 120 80 64 00
        E 0 90 4b 60
        E 0 90 58 60
        E 0 90 64 60
        E 120 80 4b 00
        E 0 80 58 00
        E 0 80 64 00
        E 0 90 64 60
        E 120 80 64 00
        E 0 90 4b 60
        E 0 90 58 60
        E 0 90 64 60
        E 120 80 4b 00
        E 0 80 58 00
        E 0 80 64 00
        E 0 90 64 60
        E 120 80 64 00
        E 0 90 58 60
        E 0 90 64 60
        E 120 80 58 00
        E 0 80 64 00
        E 0 90 64 60
        E 120 80 64 00
        E 0 90 3d 60
        E 0 90 4a 60
        E 0 90 56 60
        E 0 90 62 60
        E 120 80 3d 00
        E 0 80 4a 00
        E 0 80 56 00
        E 0 80 62 00
        E 0 90 62 60
        E 120 80 62 00
        E 0 90 4a 60
        E 0 90 56 60
        E 0 90 62 60
        E 120 80 4a 00
        E 0 80 56 00
        E 0 80 62 00
        E 0 90 62 60
        E 120 80 62 00
        E 0 90 4a 60
        E 0 90 56 60
        E 0 90 62 60
        E 120 80 4a 00
        E 0 80 56 00
        E 0 80 62 00
        E 0 90 62 60
        E 120 80 62 00
        E 0 90 56 60
        E 0 90 62 60
        E 120 80 56 00
        E 0 80 62 00
        E 0 90 62 60
        E 120 80 62 00
        E 0 90 3c 60
        E 0 90 49 60
        E 0 90 55 60
        E 0 90 61 60
        E 120 80 74 00
        E 0 80 3c 00
        E 0 80 49 00
        E 0 80 55 00
        E 0 80 61 00
        E 0 90 61 60
        E 120 80 61 00
        E 0 90 49 60
        E 0 90 55 60
        E 0 90 61 60
        E 120 80 49 00
        E 0 80 55 00
        E 0 80 61 00
        E 0 90 61 60
        E 120 80 61 00
        E 0 90 3c 60
        E 0 90 49 60
        E 0 90 55 60
        E 0 90 61 60
        E 120 80 3c 00
        E 0 80 49 00
        E 0 80 55 00
        E 0 80 61 00
        E 0 90 61 60
        E 120 80 61 00
        E 0 90 49 60
        E 0 90 55 60
        E 0 90 61 60
        E 120 80 49 00
        E 0 80 55 00
        E 0 80 61 00
        E 0 90 61 60
        E 120 80 61 00
        E 0 90 3c 60
        E 0 90 49 60
        E 0 90 55 60
        E 0 90 61 60
        E 120 80 3c 00
        E 0 80 49 00
        E 0 80 55 00
        E 0 80 61 00
        E 0 90 61 60
        E 120 80 61 00
        E 0 90 49 60
        E 0 90 55 60
        E 0 90 61 60
        E 120 80 49 00
        E 0 80 55 00
        E 0 80 61 00
        E 0 90 61 60
        E 120 80 61 00
        E 0 90 49 60
        E 0 90 55 60
        E 0 90 61 60
        E 120 80 49 00
        E 0 80 55 00
        E 0 80 61 00
        E 0 90 61 60
        E 120 80 61 00
        E 0 90 55 60
        E 0 90 61 60
        E 120 80 55 00
        E 0 80 61 00
        E 0 90 61 60
        E 120 80 61 00
        E 0 90 3e 60
        E 0 90 4b 60
        E 0 90 58 60
        E 0 90 64 60
        E 120 80 3e 00
        E 0 80 4b 00
        E 0 80 58 00
        E 0 80 64 00
        E 0 90 64 60
        E 120 80 64 00
        E 0 90 4b 60
        E 0 90 58 60
        E 0 90 64 60
        E 120 80 4b 00
        E 0 80 58 00
        E 0 80 64 00
        E 0 90 64 60
        E 120 80 64 00
        E 0 90 3e 60
        E 0 90 4b 60
        E 0 90 58 60
        E 0 90 64 60
        E 120 80 3e 00
        E 0 80 4b 00
        E 0 80 58 00
        E 0 80 64 00
        E 0 90 64 60
        E 120 80 64 00
        E 0 90 4b 60
        E 0 90 58 60
        E 0 90 64 60
        E 120 80 4b 00
        E 0 80 58 00
        E 0 80 64 00
        E 0 90 64 60
        E 120 80 64 00
        E 0 90 3e 60
        E 0 90 4b 60
        E 0 90 57 60
        E 0 90 63 60
        E 120 80 3e 00
        E 0 80 4b 00
        E 0 80 57 00
        E 0 80 63 00
        E 0 90 63 60
        E 120 80 63 00
        E 0 90 4b 60
        E 0 90 57 60
        E 0 90 63 60
        E 120 80 4b 00
        E 0 80 57 00
        E 0 80 63 00
        E 0 90 63 60
        E 120 80 63 00
        E 0 90 4b 60
        E 0 90 57 60
        E 0 90 63 60
        E 120 80 4b 00
        E 0 80 57 00
        E 0 80 63 00
        E 0 90 63 60
        E 120 80 63 00
        E 0 90 57 60
        E 0 90 63 60
        E 120 80 57 00
        E 0 80 63 00
        E 0 90 63 60
        E 120 80 63 00
        E 0 90 3c 60
        E 0 90 49 60
        E 0 90 55 60
        E 0 90 61 60
        E 120 80 3c 00
        E 0 80 49 00
        E 0 80 55 00
        E 0 80 61 00
        E 0 90 61 60
        E 120 80 61 00
        E 0 90 49 60
        E 0 90 55 60
        E 0 90 61 60
        E 120 80 49 00
        E 0 80 55 00
        E 0 80 61 00
        E 0 90 61 60
        E 120 80 61 00
        E 0 90 3c 60
        E 0 90 49 60
        E 0 90 55 60
        E 0 90 61 60
        E 120 80 3c 00
        E 0 80 49 00
        E 0 80 55 00
        E 0 80 61 00
        E 0 90 61 60
        E 120 80 61 00
        E 0 90 49 60
        E 0 90 55 60
        E 0 90 61 60
        E 120 80 49 00
        E 0 80 55 00
        E 0 80 61 00
        E 0 90 61 60
        E 120 80 61 00
        E 0 90 3c 60
        E 0 90 49 60
        E 0 90 55 60
        E 0 90 61 60
        E 120 80 3c 00
        E 0 80 49 00
        E 0 80 55 00
        E 0 80 61 00
        E 0 90 61 60
        E 120 80 61 00
        E 0 90 49 60
        E 0 90 55 60
        E 0 90 61 60
        E 120 80 49 00
        E 0 80 55 00
        E 0 80 61 00
        E 0 90 61 60
        E 120 80 61 00
        E 0 90 49 60
        E 0 90 55 60
        E 0 90 61 60
        E 120 80 49 00
        E 0 80 55 00
        E 0 80 61 00
        E 0 90 61 60
        E 120 80 61 00
        E 0 90 55 60
        E 0 90 61 60
        E 120 80 55 00
        E 0 80 61 00
        E 0 90 61 60
        E 120 80 61 00
        E 0 90 3e 60
        E 0 90 4b 60
        E 0 90 58 60
        E 0 90 64 60
        E 120 80 3e 00
        E 0 80 4b 00
        E 0 80 58 00
        E 0 80 64 00
        E 0 90 64 60
        E 120 80 64 00
        E 0 90 4b 60
        E 0 90 58 60
        E 0 90 64 60
        E 120 80 4b 00
        E 0 80 58 00
        E 0 80 64 00
        E 0 90 64 60
        E 120 80 64 00
        E 0 90 4b 60
        E 0 90 58 60
        E 0 90 64 60
        E 120 80 4b 00
        E 0 80 58 00
        E 0 80 64 00
        E 0 90 64 60
        E 120 80 64 00
        E 0 90 58 60
        E 0 90 64 60
        E 120 80 58 00
        E 0 80 64 00
        E 0 90 64 60
        E 120 80 64 00
        E 0 90 3d 60
        E 0 90 4a 60
        E 0 90 56 60
        E 0 90 62 60
        E 120 80 3d 00
        E 0 80 4a 00
        E 0 80 56 00
        E 0 80 62 00
        E 0 90 62 60
        E 120 80 62 00
        E 0 90 4a 60
        E 0 90 56 60
        E 0 90 62 60
        E 120 80 4a 00
        E 0 80 56 00
        E 0 80 62 00
        E 0 90 62 60
        E 120 80 62 00
        E 0 90 4a 60
        E 0 90 56 60
        E 0 90 62 60
        E 120 80 4a 00
        E 0 80 56 00
        E 0 80 62 00
        E 0 90 62 60
        E 120 80 62 00
        E 0 90 56 60
        E 0 90 62 60
        E 120 80 56 00
        E 0 80 62 00
        E 0 90 62 60
        E 120 80 62 00
        E 0 90 3c 60
        E 0 90 49 60
        E 0 90 55 60
        E 0 90 61 60
        E 120 80 3c 00
        E 0 80 49 00
        E 0 80 55 00
        E 0 80 61 00
        E 0 90 61 60
        E 120 80 61 00
        E 0 90 49 60
        E 0 90 55 60
        E 0 90 61 60
        E 120 80 49 00
        E 0 80 55 00
        E 0 80 61 00
        E 0 90 61 60
        E 120 80 61 00
        E 0 90 3c 60
        E 0 90 49 60
        E 0 90 55 60
        E 0 90 61 60
        E 120 80 3c 00
        E 0 80 49 00
        E 0 80 55 00
        E 0 80 61 00
        E 0 90 61 60
        E 120 80 61 00
        E 0 90 49 60
        E 0 90 55 60
        E 0 90 61 60
        E 120 80 49 00
        E 0 80 55 00
        E 0 80 61 00
        E 0 90 61 60
        E 120 80 61 00
        E 0 90 3c 60
        E 0 90 49 60
        E 0 90 55 60
        E 0 90 61 60
        E 120 80 3c 00
        E 0 80 49 00
        E 0 80 55 00
        E 0 80 61 00
        E 0 90 61 60
        E 120 80 61 00
        E 0 90 49 60
        E 0 90 55 60
        E 0 90 61 60
        E 120 80 49 00
        E 0 80 55 00
        E 0 80 61 00
        E 0 90 61 60
        E 120 80 61 00
        E 0 90 3c 60
        E 0 90 49 60
        E 0 90 55 60
        E 0 90 61 60
        E 120 80 3c 00
        E 0 80 49 00
        E 0 80 55 00
        E 0 80 61 00
        E 0 90 61 60
        E 120 80 61 00
        E 0 90 49 60
        E 0 90 55 60
        E 0 90 61 60
        E 120 80 49 00
        E 0 80 55 00
        E 0 80 61 00
        E 0 90 61 60
        E 120 80 61 00
        E 0 90 3c 60
        E 0 90 49 60
        E 0 90 55 60
        E 0 90 61 60
        E 120 80 3c 00
        E 0 80 49 00
        E 0 80 55 00
        E 0 80 61 00
        E 0 90 61 60
        E 120 80 61 00
        E 0 90 49 60
        E 0 90 55 60
        E 0 90 61 60
        E 120 80 49 00
        E 0 80 55 00
        E 0 80 61 00
        E 0 90 61 60
        E 120 80 61 00
        E 0 90 3c 60
        E 0 90 49 60
        E 0 90 55 60
        E 0 90 61 60
        E 120 80 3c 00
        E 0 80 49 00
        E 0 80 55 00
        E 0 80 61 00
        E 0 90 61 60
        E 120 80 61 00
        E 0 90 49 60
        E 0 90 55 60
        E 0 90 61 60
        E 120 80 49 00
        E 0 80 55 00
        E 0 80 61 00
        E 0 90 61 60
        E 120 80 61 00
        E 0 90 3c 60
        E 0 90 49 60
        E 0 90 55 60
        E 0 90 61 60
        E 120 80 3c 00
        E 0 80 49 00
        E 0 80 55 00
        E 0 80 61 00
        E 0 90 61 60
        E 120 80 61 00
        E 0 90 49 60
        E 0 90 55 60
        E 0 90 61 60
        E 120 80 49 00
        E 0 80 55 00
        E 0 80 61 00
        E 0 90 61 60
        E 120 80 61 00
        E 0 90 3c 60
        E 0 90 49 60
        E 0 90 55 60
        E 0 90 61 60
        E 120 80 3c 00
        E 0 80 49 00
        E 0 80 55 00
        E 0 80 61 00
        E 0 90 61 60
        E 120 80 61 00
        E 0 90 49 60
        E 0 90 55 60
        E 0 90 61 60
        E 120 80 49 00
        E 0 80 55 00
        E 0 80 61 00
        E 0 90 61 60
        E 120 80 28 00
        E 0 80 61 00
        <X 120 0
          /wFbaWRsZV9yZWFsdGltZV0=
        >
        E 3720 b0 7b 00
        GUID {49E33CF9-7119-4226-9F4E-001AC8EB4BC8}
        IGNTEMPO 0 120.00000000 4 4
        SRCCOLOR 2
        VELLANE 132 71 60
        COLORMAP "C:\Program Files\REAPER (x64)\Data\color_maps\rockband_guitarbass.png"
        CFGEDITVIEW 0.000000 4.868327 0 12 0 0 0
        CFGEDIT 1 1 0 1 1 0 1 1 1 1 1 0.25000000 100 100 1200 800 0 2 2 1 0.00000000 0 1 1 0 0.500000 0 0 1.000000 64
        KEYSNAP 0 6 "102030050700" 0 "Pentatonic"
        EVTFILTER 0 -1 -1 -1 -1 0 1 0 0 -1.00000000 -1.00000000
      >
    >
  >
  <TRACK '{FC2CBD1B-93EA-4684-AEA9-576BB7578C6E}'
    NAME "PART GUITAR"
    PEAKCOL 16576
    BEAT -1
    AUTOMODE 0
    VOLPAN 1.00000000000000 0.00000000000000 -1.00000000000000 -1.00000000000000 1.00000000000000
    MUTESOLO 0 0 0
    IPHASE 0
    ISBUS 0 0
    BUSCOMP 0 0
    SHOWINMIX 1 0.666700 0.500000 1 0.500000 -1 -1 -1
    FREEMODE 0
    SEL 0
    REC 0 0 0 0 0 0 0
    VU 2
    TRACKHEIGHT 0 0
    INQ 0 0 0 0.5000000000 100 0 0 100
    NCHAN 2
    FX 1
    TRACKID {FC2CBD1B-93EA-4684-AEA9-576BB7578C6E}
    PERF 0
    MIDIOUT -1
    <MIDINOTENAMES
      0 127 "TRILL MARKER"
      0 126 "TREMOLO MARKER"
      0 125 "---"
      0 124 "BRE"
      0 123 "BRE"
      0 122 "BRE"
      0 121 "BRE"
      0 120 "BRE (use all 5)"
      0 119 "----"
      0 116 "OVERDRIVE"
      0 115 "----"
      0 103 "Solo Marker"
      0 102 "Force HOPO Off"
      0 101 "Force HOPO On"
      0 100 "EXPERT Orange"
      0 99 "EXPERT Blue"
      0 98 "EXPERT Yellow"
      0 97 "EXPERT Red"
      0 96 "EXPERT Green"
      0 95 "----"
      0 90 "Force HOPO Off"
      0 89 "Force HOPO On"
      0 88 "HARD Orange"
      0 87 "HARD Blue"
      0 86 "HARD Yellow"
      0 85 "HARD Red"
      0 84 "HARD Green"
      0 77 "----"
      0 76 "MEDIUM Orange"
      0 75 "MEDIUM Blue"
      0 74 "MEDIUM Yellow"
      0 73 "MEDIUM Red"
      0 72 "MEDIUM Green"
      0 65 "----"
      0 64 "EASY Orange"
      0 63 "EASY Blue"
      0 62 "EASY Yellow"
      0 61 "EASY Red"
      0 60 "EASY Green"
      0 59 "Fret 12"
      0 57 "Fret 11"
      0 56 "Fret 10"
      0 55 "Fret 9"
      0 53 "Fret 8"
      0 52 "Fret 7"
      0 50 "Fret 6"
      0 49 "Fret 5"
      0 47 "Fret 4"
      0 45 "Fret 3"
      0 43 "Fret 2"
      0 40 "Fret 1"
    >
    MAINSEND 1 0
    <FXCHAIN
      WNDRECT 0 43 891 559
      SHOW 0
      LASTSEL 0
      DOCKED 0
      BYPASS 0 0
      <VST "VSTi: RBN Preview (RBN)" "rbprev_vst64.dll" 0 ""
        dnBicu5e7f4AAAAAAgAAAAEAAAAAAAAAAgAAAAAAAAAEAAAAAQAAAA==
        AAAQAAMAqgAAABAAAAA=
      >
      FLOATPOS 0 0 0 0
      FXID {95473A7B-A716-48F3-BB90-A107107AAFF5}
      WAK 0
    >
    <ITEM
      POSITION 0.00000000000000
      SNAPOFFS 0.00000000000000
      LENGTH 144.00000000000000
      LOOP 0
      ALLTAKES 0
      SEL 0
      FADEIN 1 0.000000 0.000000 1 0
      FADEOUT 1 0.000000 0.000000 1 0
      MUTE 0
      IGUID {D1FDA5BF-41DC-42C7-9D8F-36C808647A64}
      IID 4
      NAME "PART GUITAR"
      VOLPAN 1.000000 0.000000 1.000000 -1.000000
      SOFFS 0.00000000000000 0.00000000000000
      PLAYRATE 1.00000000000000 1 0.00000000000000 -1
      CHANMODE 0
      GUID {762559C7-4AFF-4F23-988E-7DAFCB0B39EA}
      <SOURCE MIDI
        HASDATA 1 480 QN
        POOLEDEVTS {68FD9154-E114-4B3F-9C00-DFDF6B94F345}
        <X 0 0
          /wNQQVJUIEdVSVRBUg==
        >
        <X 3840 0
          /wFbaWRsZV0=
        >
        <X 13320 0
          /wFbcGxheV0=
        >
        E 120 90 2f 60
        E 0 90 3c 60
        E 0 90 48 60
        E 0 90 54 60
        E 0 90 60 60
        E 120 80 3c 00
        E 0 80 48 00
        E 0 80 54 00
        E 0 80 60 00
        E 120 90 56 60
        E 0 90 62 60
        E 120 80 56 00
        E 0 80 62 00
        E 120 90 4b 60
        E 0 90 57 60
        E 0 90 63 60
        E 120 80 4b 00
        E 0 80 57 00
        E 0 80 63 00
        E 120 90 56 60
        E 0 90 62 60
        E 120 80 2f 00
        E 0 80 56 00
        E 0 80 62 00
        E 120 90 31 60
        E 0 90 3c 60
        E 0 90 49 60
        E 0 90 55 60
        E 0 90 61 60
        E 120 80 3c 00
        E 0 80 49 00
        E 0 80 55 00
        E 0 80 61 00
        E 120 90 56 60
        E 0 90 62 60
        E 120 80 56 00
        E 0 80 62 00
        E 120 90 4b 60
        E 0 90 57 60
        E 0 90 63 60
        E 120 80 4b 00
        E 0 80 57 00
        E 0 80 63 00
        E 120 90 56 60
        E 0 90 62 60
        E 120 80 31 00
        E 0 80 56 00
        E 0 80 62 00
        E 120 90 34 60
        E 0 90 3c 60
        E 0 90 49 60
        E 0 90 55 60
        E 0 90 61 60
        E 120 80 3c 00
        E 0 80 49 00
        E 0 80 55 00
        E 0 80 61 00
        E 120 90 57 60
        E 0 90 63 60
        E 120 80 57 00
        E 0 80 63 00
        E 120 90 4b 60
        E 0 90 58 60
        E 0 90 64 60
        E 120 80 4b 00
        E 0 80 58 00
        E 0 80 64 00
        E 120 90 57 60
        E 0 90 63 60
        E 120 80 57 00
        E 0 80 63 00
        E 120 90 3c 60
        E 0 90 48 60
        E 0 90 54 60
        E 0 90 60 60
        E 120 80 3c 00
        E 0 80 48 00
        E 0 80 54 00
        E 0 80 60 00
        E 120 90 55 60
        E 0 90 61 60
        E 120 80 55 00
        E 0 80 61 00
        E 120 90 4a 60
        E 0 90 56 60
        E 0 90 62 60
        E 120 80 4a 00
        E 0 80 56 00
        E 0 80 62 00
        E 240 80 34 00
        E 120 90 2f 60
        E 0 90 3c 60
        E 0 90 48 60
        E 0 90 54 60
        E 0 90 60 60
        E 120 80 3c 00
        E 0 80 48 00
        E 0 80 54 00
        E 0 80 60 00
        E 120 90 56 60
        E 0 90 62 60
        E 120 80 56 00
        E 0 80 62 00
        E 120 90 4b 60
        E 0 90 57 60
        E 0 90 63 60
        E 120 80 4b 00
        E 0 80 57 00
        E 0 80 63 00
        E 120 90 56 60
        E 0 90 62 60
        E 120 80 2f 00
        E 0 80 56 00
        E 0 80 62 00
        E 120 90 31 60
        E 0 90 3c 60
        E 0 90 49 60
        E 0 90 55 60
        E 0 90 61 60
        E 120 80 3c 00
        E 0 80 49 00
        E 0 80 55 00
        E 0 80 61 00
        E 120 90 56 60
        E 0 90 62 60
        E 120 80 56 00
        E 0 80 62 00
        E 120 90 4b 60
        E 0 90 57 60
        E 0 90 63 60
        E 120 80 4b 00
        E 0 80 57 00
        E 0 80 63 00
        E 120 90 56 60
        E 0 90 62 60
        E 120 80 31 00
        E 0 80 56 00
        E 0 80 62 00
        E 120 90 34 60
        E 0 90 3e 60
        E 0 90 4b 60
        E 0 90 58 60
        E 0 90 64 60
        E 0 90 74 60
        E 120 80 3e 00
        E 0 80 4b 00
        E 0 80 58 00
        E 0 80 64 00
        E 120 90 4b 60
        E 0 90 57 60
        E 0 90 63 60
        E 120 80 4b 00
        E 0 80 57 00
        E 0 80 63 00
        E 120 90 4b 60
        E 0 90 58 60
        E 0 90 64 60
        E 120 80 4b 00
        E 0 80 58 00
        E 0 80 64 00
        E 120 90 57 60
        E 0 90 63 60
        E 120 80 57 00
        E 0 80 63 00
        E 120 90 3f 60
        E 0 90 4a 60
        E 0 90 4b 60
        E 0 90 56 60
        E 0 90 58 60
        E 0 90 62 60
        E 0 90 64 60
        E 120 80 3f 00
        E 0 80 4a 00
        E 0 80 4b 00
        E 0 80 56 00
        E 0 80 58 00
        E 0 80 62 00
        E 0 80 64 00
        E 120 90 4a 60
        E 0 90 4b 60
        E 0 90 56 60
        E 0 90 58 60
        E 0 90 62 60
        E 0 90 64 60
        E 120 80 4a 00
        E 0 80 4b 00
        E 0 80 56 00
        E 0 80 58 00
        E 0 80 62 00
        E 0 80 64 00
        E 120 90 3f 60
        E 0 90 4a 60
        E 0 90 4b 60
        E 0 90 56 60
        E 0 90 58 60
        E 0 90 62 60
        E 0 90 64 60
        E 120 80 3f 00
        E 0 80 4a 00
        E 0 80 4b 00
        E 0 80 56 00
        E 0 80 58 00
        E 0 80 62 00
        E 0 80 64 00
        E 120 90 4a 60
        E 0 90 4b 60
        E 0 90 56 60
        E 0 90 58 60
        E 0 90 62 60
        E 0 90 64 60
        E 120 80 4a 00
        E 0 80 4b 00
        E 0 80 56 00
        E 0 80 58 00
        E 0 80 62 00
        E 0 80 64 00
        E 120 90 3f 60
        E 0 90 4a 60
        E 0 90 4b 60
        E 0 90 56 60
        E 0 90 58 60
        E 0 90 62 60
        E 0 90 64 60
        E 120 80 74 00
        E 0 80 3f 00
        E 0 80 4a 00
        E 0 80 4b 00
        E 0 80 56 00
        E 0 80 58 00
        E 0 80 62 00
        E 0 80 64 00
        E 2640 80 34 00
        E 120 90 3b 60
        E 0 90 40 60
        E 0 90 4b 60
        E 0 90 4c 60
        E 0 90 57 60
        E 0 90 58 60
        E 0 90 63 60
        E 0 90 64 60
        E 120 80 40 00
        E 0 80 4b 00
        E 0 80 4c 00
        E 480 80 3b 00
        E 0 80 57 00
        E 0 80 58 00
        E 0 80 63 00
        E 0 80 64 00
        E 120 90 39 60
        E 0 90 4a 60
        E 0 90 4b 60
        E 0 90 56 60
        E 0 90 58 60
        E 0 90 62 60
        E 0 90 64 60
        E 720 80 4a 00
        E 0 80 4b 00
        E 360 80 39 00
        E 0 80 56 00
        E 0 80 58 00
        E 0 80 62 00
        E 0 80 64 00
        E 120 90 37 60
        E 0 90 3f 60
        E 0 90 49 60
        E 0 90 4b 60
        E 0 90 56 60
        E 0 90 57 60
        E 0 90 62 60
        E 0 90 63 60
        E 120 80 3f 00
        E 0 80 49 00
        E 0 80 4b 00
        E 480 80 37 00
        E 0 80 56 00
        E 0 80 57 00
        E 0 80 62 00
        E 0 80 63 00
        E 120 90 34 60
        E 0 90 48 60
        E 0 90 4a 60
        E 0 90 55 60
        E 0 90 56 60
        E 0 90 61 60
        E 0 90 62 60
        E 720 80 48 00
        E 0 80 4a 00
        E 360 80 34 00
        E 0 80 55 00
        E 0 80 56 00
        E 0 80 61 00
        E 0 80 62 00
        E 120 90 3b 60
        E 0 90 40 60
        E 0 90 4b 60
        E 0 90 4c 60
        E 0 90 57 60
        E 0 90 58 60
        E 0 90 63 60
        E 0 90 64 60
        E 120 80 40 00
        E 0 80 4b 00
        E 0 80 4c 00
        E 480 80 3b 00
        E 0 80 57 00
        E 0 80 58 00
        E 0 80 63 00
        E 0 80 64 00
        E 120 90 39 60
        E 0 90 4a 60
        E 0 90 4b 60
        E 0 90 56 60
        E 0 90 58 60
        E 0 90 62 60
        E 0 90 64 60
        E 720 80 4a 00
        E 0 80 4b 00
        E 360 80 56 00
        E 0 80 58 00
        E 0 80 62 00
        E 0 80 64 00
        E 120 90 3d 60
        E 0 90 48 60
        E 0 90 4a 60
        E 0 90 55 60
        E 0 90 56 60
        E 0 90 61 60
        E 0 90 62 60
        E 120 80 3d 00
        E 0 80 48 00
        E 0 80 4a 00
        E 480 80 39 00
        E 0 80 55 00
        E 0 80 56 00
        E 0 80 61 00
        E 0 80 62 00
        E 120 90 37 60
        E 0 90 48 60
        E 0 90 49 60
        E 0 90 54 60
        E 0 90 55 60
        E 0 90 60 60
        E 0 90 61 60
        E 600 80 37 00
        E 120 90 35 60
        E 600 80 35 00
        E 120 90 34 60
        E 240 80 48 00
        E 0 80 49 00
        E 360 80 54 00
        E 0 80 55 00
        E 0 80 60 00
        E 0 80 61 00
        E 0 80 34 00
        E 120 90 2f 60
        E 0 90 3e 60
        E 0 90 4b 60
        E 0 90 58 60
        E 0 90 64 60
        E 0 90 74 60
        E 120 80 3e 00
        E 0 80 4b 00
        E 0 80 58 00
        E 0 80 64 00
        E 120 90 4b 60
        E 0 90 58 60
        E 0 90 64 60
        E 120 80 4b 00
        E 0 80 58 00
        E 0 80 64 00
        E 120 90 3e 60
        E 0 90 4b 60
        E 0 90 57 60
        E 0 90 63 60
        E 120 80 3e 00
        E 0 80 4b 00
        E 0 80 57 00
        E 0 80 63 00
        E 120 90 56 60
        E 0 90 62 60
        E 120 80 56 00
        E 0 80 62 00
        E 120 90 3e 60
        E 0 90 4b 60
        E 0 90 57 60
        E 0 90 63 60
        E 120 80 3e 00
        E 0 80 4b 00
        E 0 80 57 00
        E 0 80 63 00
        E 120 90 57 60
        E 0 90 63 60
        E 120 80 57 00
        E 0 80 63 00
        E 120 90 4a 60
        E 0 90 56 60
        E 0 90 62 60
        E 120 80 4a 00
        E 0 80 56 00
        E 0 80 62 00
        E 120 90 55 60
        E 0 90 61 60
        E 120 80 2f 00
        E 0 80 55 00
        E 0 80 61 00
        E 120 90 2b 60
        E 0 90 3d 60
        E 0 90 4a 60
        E 0 90 56 60
        E 0 90 62 60
        E 120 80 3d 00
        E 0 80 4a 00
        E 0 80 56 00
        E 0 80 62 00
        E 120 90 56 60
        E 0 90 62 60
        E 120 80 56 00
        E 0 80 62 00
        E 120 90 49 60
        E 0 90 55 60
        E 0 90 61 60
        E 120 80 49 00
        E 0 80 55 00
        E 0 80 61 00
        E 120 90 54 60
        E 0 90 60 60
        E 840 80 2b 00
        E 0 80 54 00
        E 0 80 60 00
        E 120 90 2f 60
        E 0 90 3e 60
        E 0 90 4b 60
        E 0 90 58 60
        E 0 90 64 60
        E 120 80 3e 00
        E 0 80 4b 00
        E 0 80 58 00
        E 0 80 64 00
        E 120 80 74 00
        E 240 90 4b 60
        E 0 90 58 60
        E 0 90 64 60
        E 120 80 4b 00
        E 0 80 58 00
        E 0 80 64 00
        E 120 90 3e 60
        E 0 90 4b 60
        E 0 90 57 60
        E 0 90 63 60
        E 120 80 3e 00
        E 0 80 4b 00
        E 0 80 57 00
        E 0 80 63 00
        E 120 90 56 60
        E 0 90 62 60
        E 120 80 56 00
        E 0 80 62 00
        E 120 90 3e 60
        E 0 90 4b 60
        E 0 90 57 60
        E 0 90 63 60
        E 120 80 3e 00
        E 0 80 4b 00
        E 0 80 57 00
        E 0 80 63 00
        E 120 90 57 60
        E 0 90 63 60
        E 120 80 57 00
        E 0 80 63 00
        E 120 90 4a 60
        E 0 90 56 60
        E 0 90 62 60
        E 120 80 4a 00
        E 0 80 56 00
        E 0 80 62 00
        E 120 90 55 60
        E 0 90 61 60
        E 120 80 2f 00
        E 0 80 55 00
        E 0 80 61 00
        E 120 90 2b 60
        E 0 90 3d 60
        E 0 90 4a 60
        E 0 90 56 60
        E 0 90 62 60
        E 120 80 3d 00
        E 0 80 4a 00
        E 0 80 56 00
        E 0 80 62 00
        E 120 90 56 60
        E 0 90 62 60
        E 120 80 56 00
        E 0 80 62 00
        E 120 90 49 60
        E 0 90 55 60
        E 0 90 61 60
        E 120 80 49 00
        E 0 80 55 00
        E 0 80 61 00
        E 120 90 54 60
        E 0 90 60 60
        E 1080 80 2b 00
        E 0 80 54 00
        E 0 80 60 00
        E 120 90 32 60
        E 0 90 3e 60
        E 0 90 4b 60
        E 0 90 58 60
        E 0 90 64 60
        E 120 80 3e 00
        E 0 80 4b 00
        E 0 80 58 00
        E 0 80 64 00
        E 120 90 4b 60
        E 0 90 58 60
        E 0 90 64 60
        E 120 80 4b 00
        E 0 80 58 00
        E 0 80 64 00
        E 120 90 3e 60
        E 0 90 4b 60
        E 0 90 57 60
        E 0 90 63 60
        E 120 80 3e 00
        E 0 80 4b 00
        E 0 80 57 00
        E 0 80 63 00
        E 120 90 56 60
        E 0 90 62 60
        E 120 80 32 00
        E 0 80 56 00
        E 0 80 62 00
        E 120 90 2d 60
        E 0 90 3e 60
        E 0 90 4b 60
        E 0 90 57 60
        E 0 90 63 60
        E 120 80 3e 00
        E 0 80 4b 00
        E 0 80 57 00
        E 0 80 63 00
        E 120 90 57 60
        E 0 90 63 60
        E 120 80 57 00
        E 0 80 63 00
        E 120 90 49 60
        E 0 90 55 60
        E 0 90 61 60
        E 120 80 49 00
        E 0 80 55 00
        E 0 80 61 00
        E 120 90 54 60
        E 0 90 60 60
        E 120 80 2d 00
        E 0 80 54 00
        E 0 80 60 00
        E 120 90 2b 60
        E 0 90 3d 60
        E 0 90 4a 60
        E 0 90 56 60
        E 0 90 62 60
        E 120 80 3d 00
        E 0 80 4a 00
        E 0 80 56 00
        E 0 80 62 00
        E 120 90 56 60
        E 0 90 62 60
        E 120 80 56 00
        E 0 80 62 00
        E 120 90 49 60
        E 0 90 55 60
        E 0 90 61 60
        E 120 80 49 00
        E 0 80 55 00
        E 0 80 61 00
        E 120 90 54 60
        E 0 90 60 60
        E 1080 80 2b 00
        E 0 80 54 00
        E 0 80 60 00
        E 120 90 2b 60
        E 0 90 3d 60
        E 0 90 48 60
        E 0 90 4a 60
        E 0 90 55 60
        E 0 90 56 60
        E 0 90 61 60
        E 0 90 62 60
        E 120 80 3d 00
        E 0 80 48 00
        E 0 80 4a 00
        E 0 80 55 00
        E 0 80 56 00
        E 0 80 61 00
        E 0 80 62 00
        E 120 90 48 60
        E 0 90 4a 60
        E 0 90 55 60
        E 0 90 56 60
        E 0 90 61 60
        E 0 90 62 60
        E 120 80 48 00
        E 0 80 4a 00
        E 0 80 55 00
        E 0 80 56 00
        E 0 80 61 00
        E 0 80 62 00
        E 120 90 48 60
        E 0 90 4a 60
        E 0 90 55 60
        E 0 90 56 60
        E 0 90 61 60
        E 0 90 62 60
        E 120 80 48 00
        E 0 80 4a 00
        E 0 80 55 00
        E 0 80 56 00
        E 0 80 61 00
        E 0 80 62 00
        E 120 90 55 60
        E 0 90 56 60
        E 0 90 61 60
        E 0 90 62 60
        E 120 80 2b 00
        E 0 80 55 00
        E 0 80 56 00
        E 0 80 61 00
        E 0 80 62 00
        E 120 90 28 60
        E 0 90 3e 60
        E 0 90 49 60
        E 0 90 4a 60
        E 0 90 55 60
        E 0 90 57 60
        E 0 90 61 60
        E 0 90 63 60
        E 120 80 3e 00
        E 0 80 49 00
        E 0 80 4a 00
        E 0 80 55 00
        E 0 80 57 00
        E 0 80 61 00
        E 0 80 63 00
        E 120 90 49 60
        E 0 90 4a 60
        E 0 90 55 60
        E 0 90 57 60
        E 0 90 61 60
        E 0 90 63 60
        E 120 80 49 00
        E 0 80 4a 00
        E 0 80 55 00
        E 0 80 57 00
        E 0 80 61 00
        E 0 80 63 00
        E 120 90 3e 60
        E 0 90 49 60
        E 0 90 4a 60
        E 0 90 55 60
        E 0 90 57 60
        E 0 90 61 60
        E 0 90 63 60
        E 120 80 3e 00
        E 0 80 49 00
        E 0 80 4a 00
        E 0 80 55 00
        E 0 80 57 00
        E 0 80 61 00
        E 0 80 63 00
        E 120 90 49 60
        E 0 90 4a 60
        E 0 90 55 60
        E 0 90 57 60
        E 0 90 61 60
        E 0 90 63 60
        E 120 80 49 00
        E 0 80 4a 00
        E 0 80 55 00
        E 0 80 57 00
        E 0 80 61 00
        E 0 80 63 00
        E 120 90 3e 60
        E 0 90 49 60
        E 0 90 4a 60
        E 0 90 55 60
        E 0 90 57 60
        E 0 90 61 60
        E 0 90 63 60
        E 120 80 3e 00
        E 0 80 49 00
        E 0 80 4a 00
        E 0 80 55 00
        E 0 80 57 00
        E 0 80 61 00
        E 0 80 63 00
        E 120 90 49 60
        E 0 90 4a 60
        E 0 90 55 60
        E 0 90 57 60
        E 0 90 61 60
        E 0 90 63 60
        E 120 80 49 00
        E 0 80 4a 00
        E 0 80 55 00
        E 0 80 57 00
        E 0 80 61 00
        E 0 80 63 00
        E 120 90 49 60
        E 0 90 4a 60
        E 0 90 55 60
        E 0 90 57 60
        E 0 90 61 60
        E 0 90 63 60
        E 120 80 49 00
        E 0 80 4a 00
        E 0 80 55 00
        E 0 80 57 00
        E 0 80 61 00
        E 0 80 63 00
        E 120 90 55 60
        E 0 90 57 60
        E 0 90 61 60
        E 0 90 63 60
        E 120 80 55 00
        E 0 80 57 00
        E 0 80 61 00
        E 0 80 63 00
        E 120 90 3c 60
        E 0 90 48 60
        E 0 90 49 60
        E 0 90 54 60
        E 0 90 55 60
        E 0 90 60 60
        E 0 90 61 60
        E 120 80 3c 00
        E 0 80 48 00
        E 0 80 49 00
        E 0 80 54 00
        E 0 80 55 00
        E 0 80 60 00
        E 0 80 61 00
        E 120 90 48 60
        E 0 90 49 60
        E 0 90 54 60
        E 0 90 55 60
        E 0 90 60 60
        E 0 90 61 60
        E 120 80 48 00
        E 0 80 49 00
        E 0 80 54 00
        E 0 80 55 00
        E 0 80 60 00
        E 0 80 61 00
        E 120 90 48 60
        E 0 90 49 60
        E 0 90 54 60
        E 0 90 55 60
        E 0 90 60 60
        E 0 90 61 60
        E 120 80 48 00
        E 0 80 49 00
        E 0 80 54 00
        E 0 80 55 00
        E 0 80 60 00
        E 0 80 61 00
        E 120 90 54 60
        E 0 90 55 60
        E 0 90 60 60
        E 0 90 61 60
        E 120 80 28 00
        E 0 80 54 00
        E 0 80 55 00
        E 0 80 60 00
        E 0 80 61 00
        E 0 90 62 60
        E 120 80 62 00
        E 0 90 2d 60
        E 0 90 3f 60
        E 0 90 49 60
        E 0 90 4b 60
        E 0 90 56 60
        E 0 90 57 60
        E 0 90 62 60
        E 0 90 63 60
        E 120 80 3f 00
        E 0 80 49 00
        E 0 80 4b 00
        E 0 80 56 00
        E 0 80 57 00
        E 0 80 62 00
        E 0 80 63 00
        E 120 90 49 60
        E 0 90 4b 60
        E 0 90 56 60
        E 0 90 57 60
        E 0 90 62 60
        E 0 90 63 60
        E 120 80 49 00
        E 0 80 4b 00
        E 0 80 56 00
        E 0 80 57 00
        E 0 80 62 00
        E 0 80 63 00
        E 120 90 3f 60
        E 0 90 49 60
        E 0 90 4b 60
        E 0 90 56 60
        E 0 90 57 60
        E 0 90 62 60
        E 0 90 63 60
        E 120 80 3f 00
        E 0 80 49 00
        E 0 80 4b 00
        E 0 80 56 00
        E 0 80 57 00
        E 0 80 62 00
        E 0 80 63 00
        E 120 90 56 60
        E 0 90 57 60
        E 0 90 62 60
        E 0 90 63 60
        E 120 80 2d 00
        E 0 80 56 00
        E 0 80 57 00
        E 0 80 62 00
        E 0 80 63 00
        E 120 90 31 60
        E 0 90 3f 60
        E 0 90 4a 60
        E 0 90 4b 60
        E 0 90 56 60
        E 0 90 58 60
        E 0 90 62 60
        E 0 90 64 60
        E 120 80 3f 00
        E 0 80 4a 00
        E 0 80 4b 00
        E 0 80 56 00
        E 0 80 58 00
        E 0 80 62 00
        E 0 80 64 00
        E 120 90 4a 60
        E 0 90 4b 60
        E 0 90 56 60
        E 0 90 58 60
        E 0 90 62 60
        E 0 90 64 60
        E 120 80 4a 00
        E 0 80 4b 00
        E 0 80 56 00
        E 0 80 58 00
        E 0 80 62 00
        E 0 80 64 00
        E 120 90 3f 60
        E 0 90 4a 60
        E 0 90 4b 60
        E 0 90 56 60
        E 0 90 58 60
        E 0 90 62 60
        E 0 90 64 60
        E 120 80 3f 00
        E 0 80 4a 00
        E 0 80 4b 00
        E 0 80 56 00
        E 0 80 58 00
        E 0 80 62 00
        E 0 80 64 00
        E 120 90 4a 60
        E 0 90 4b 60
        E 0 90 56 60
        E 0 90 58 60
        E 0 90 62 60
        E 0 90 64 60
        E 120 80 4a 00
        E 0 80 4b 00
        E 0 80 56 00
        E 0 80 58 00
        E 0 80 62 00
        E 0 80 64 00
        E 120 90 3f 60
        E 0 90 4a 60
        E 0 90 4b 60
        E 0 90 56 60
        E 0 90 58 60
        E 0 90 62 60
        E 0 90 64 60
        E 0 90 74 60
        E 120 80 3f 00
        E 0 80 4a 00
        E 0 80 4b 00
        E 0 80 56 00
        E 0 80 58 00
        E 0 80 62 00
        E 0 80 64 00
        E 120 90 4a 60
        E 0 90 4b 60
        E 0 90 56 60
        E 0 90 58 60
        E 0 90 62 60
        E 0 90 64 60
        E 120 80 4a 00
        E 0 80 4b 00
        E 0 80 56 00
        E 0 80 58 00
        E 0 80 62 00
        E 0 80 64 00
        E 120 90 4a 60
        E 0 90 4b 60
        E 0 90 56 60
        E 0 90 58 60
        E 0 90 62 60
        E 0 90 64 60
        E 120 80 4a 00
        E 0 80 4b 00
        E 0 80 56 00
        E 0 80 58 00
        E 0 80 62 00
        E 0 80 64 00
        E 120 90 56 60
        E 0 90 58 60
        E 0 90 62 60
        E 0 90 64 60
        E 120 80 31 00
        E 0 80 56 00
        E 0 80 58 00
        E 0 80 62 00
        E 0 80 64 00
        E 0 90 61 60
        E 120 80 61 00
        E 0 90 32 60
        E 0 90 3d 60
        E 0 90 48 60
        E 0 90 4a 60
        E 0 90 55 60
        E 0 90 56 60
        E 0 90 61 60
        E 0 90 62 60
        E 120 80 3d 00
        E 0 80 48 00
        E 0 80 4a 00
        E 0 80 55 00
        E 0 80 56 00
        E 0 80 61 00
        E 0 80 62 00
        E 120 90 48 60
        E 0 90 4a 60
        E 0 90 55 60
        E 0 90 56 60
        E 0 90 61 60
        E 0 90 62 60
        E 120 80 48 00
        E 0 80 4a 00
        E 0 80 55 00
        E 0 80 56 00
        E 0 80 61 00
        E 0 80 62 00
        E 120 90 48 60
        E 0 90 4a 60
        E 0 90 55 60
        E 0 90 56 60
        E 0 90 61 60
        E 0 90 62 60
        E 120 80 48 00
        E 0 80 4a 00
        E 0 80 55 00
        E 0 80 56 00
        E 0 80 61 00
        E 0 80 62 00
        E 120 90 55 60
        E 0 90 56 60
        E 0 90 61 60
        E 0 90 62 60
        E 120 80 32 00
        E 0 80 55 00
        E 0 80 56 00
        E 0 80 61 00
        E 0 80 62 00
        E 120 90 31 60
        E 0 90 3f 60
        E 0 90 4a 60
        E 0 90 4b 60
        E 0 90 56 60
        E 0 90 58 60
        E 0 90 62 60
        E 0 90 64 60
        E 120 80 74 00
        E 0 80 3f 00
        E 0 80 4a 00
        E 0 80 4b 00
        E 0 80 56 00
        E 0 80 58 00
        E 0 80 62 00
        E 0 80 64 00
        E 120 90 4a 60
        E 0 90 4b 60
        E 0 90 56 60
        E 0 90 58 60
        E 0 90 62 60
        E 0 90 64 60
        E 120 80 4a 00
        E 0 80 4b 00
        E 0 80 56 00
        E 0 80 58 00
        E 0 80 62 00
        E 0 80 64 00
        E 120 90 4a 60
        E 0 90 4b 60
        E 0 90 56 60
        E 0 90 58 60
        E 0 90 62 60
        E 0 90 64 60
        E 120 80 4a 00
        E 0 80 4b 00
        E 0 80 56 00
        E 0 80 58 00
        E 0 80 62 00
        E 0 80 64 00
        E 120 90 56 60
        E 0 90 58 60
        E 0 90 62 60
        E 0 90 64 60
        E 120 80 31 00
        E 0 80 56 00
        E 0 80 58 00
        E 0 80 62 00
        E 0 80 64 00
        E 120 90 32 60
        E 0 90 40 60
        E 0 90 4b 60
        E 0 90 4c 60
        E 0 90 57 60
        E 0 90 58 60
        E 0 90 63 60
        E 0 90 64 60
        E 120 80 40 00
        E 0 80 4b 00
        E 0 80 4c 00
        E 0 80 57 00
        E 0 80 58 00
        E 0 80 63 00
        E 0 80 64 00
        E 120 90 4b 60
        E 0 90 4c 60
        E 0 90 57 60
        E 0 90 58 60
        E 0 90 63 60
        E 0 90 64 60
        E 120 80 4b 00
        E 0 80 4c 00
        E 0 80 57 00
        E 0 80 58 00
        E 0 80 63 00
        E 0 80 64 00
        E 120 90 4b 60
        E 0 90 4c 60
        E 0 90 57 60
        E 0 90 58 60
        E 0 90 63 60
        E 0 90 64 60
        E 120 80 4b 00
        E 0 80 4c 00
        E 0 80 57 00
        E 0 80 58 00
        E 0 80 63 00
        E 0 80 64 00
        E 120 90 57 60
        E 0 90 58 60
        E 0 90 63 60
        E 0 90 64 60
        E 120 80 57 00
        E 0 80 58 00
        E 0 80 63 00
        E 0 80 64 00
        E 0 90 61 60
        E 120 80 61 00
        E 0 90 3d 60
        E 0 90 48 60
        E 0 90 4a 60
        E 0 90 55 60
        E 0 90 56 60
        E 0 90 61 60
        E 0 90 62 60
        E 120 80 3d 00
        E 0 80 48 00
        E 0 80 4a 00
        E 0 80 55 00
        E 0 80 56 00
        E 0 80 61 00
        E 0 80 62 00
        E 120 90 48 60
        E 0 90 4a 60
        E 0 90 55 60
        E 0 90 56 60
        E 0 90 61 60
        E 0 90 62 60
        E 120 80 48 00
        E 0 80 4a 00
        E 0 80 55 00
        E 0 80 56 00
        E 0 80 61 00
        E 0 80 62 00
        E 120 90 48 60
        E 0 90 4a 60
        E 0 90 55 60
        E 0 90 56 60
        E 0 90 61 60
        E 0 90 62 60
        E 120 80 48 00
        E 0 80 4a 00
        E 0 80 55 00
        E 0 80 56 00
        E 0 80 61 00
        E 0 80 62 00
        E 120 90 55 60
        E 0 90 56 60
        E 0 90 61 60
        E 0 90 62 60
        E 120 80 32 00
        E 0 80 55 00
        E 0 80 56 00
        E 0 80 61 00
        E 0 80 62 00
        E 120 90 28 60
        E 0 90 3c 60
        E 0 90 48 60
        E 0 90 49 60
        E 0 90 54 60
        E 0 90 55 60
        E 0 90 60 60
        E 0 90 61 60
        E 120 80 3c 00
        E 0 80 48 00
        E 0 80 49 00
        E 0 80 54 00
        E 0 80 55 00
        E 0 80 60 00
        E 0 80 61 00
        E 120 90 48 60
        E 0 90 49 60
        E 0 90 54 60
        E 0 90 55 60
        E 0 90 60 60
        E 0 90 61 60
        E 120 80 48 00
        E 0 80 49 00
        E 0 80 54 00
        E 0 80 55 00
        E 0 80 60 00
        E 0 80 61 00
        E 120 90 3c 60
        E 0 90 48 60
        E 0 90 49 60
        E 0 90 54 60
        E 0 90 55 60
        E 0 90 60 60
        E 0 90 61 60
        E 120 80 3c 00
        E 0 80 48 00
        E 0 80 49 00
        E 0 80 54 00
        E 0 80 55 00
        E 0 80 60 00
        E 0 80 61 00
        E 120 90 54 60
        E 0 90 55 60
        E 0 90 60 60
        E 0 90 61 60
        E 120 80 28 00
        E 0 80 54 00
        E 0 80 55 00
        E 0 80 60 00
        E 0 80 61 00
        E 120 90 2b 60
        E 0 90 3c 60
        E 0 90 48 60
        E 0 90 54 60
        E 0 90 60 60
        E 120 80 3c 00
        E 0 80 48 00
        E 0 80 54 00
        E 0 80 60 00
        E 120 90 55 60
        E 0 90 61 60
        E 120 80 55 00
        E 0 80 61 00
        E 120 90 4a 60
        E 0 90 56 60
        E 0 90 62 60
        E 120 80 4a 00
        E 0 80 56 00
        E 0 80 62 00
        E 120 90 57 60
        E 0 90 63 60
        E 120 80 2b 00
        E 0 80 57 00
        E 0 80 63 00
        E 120 90 28 60
        E 0 90 3c 60
        E 0 90 48 60
        E 0 90 54 60
        E 0 90 60 60
        E 120 80 3c 00
        E 0 80 48 00
        E 0 80 54 00
        E 0 80 60 00
        E 120 90 56 60
        E 0 90 62 60
        E 120 80 56 00
        E 0 80 62 00
        E 120 90 4b 60
        E 0 90 57 60
        E 0 90 63 60
        E 120 80 4b 00
        E 0 80 57 00
        E 0 80 63 00
        E 120 90 58 60
        E 0 90 64 60
        E 120 80 28 00
        E 0 80 58 00
        E 0 80 64 00
        E 120 90 2d 60
        E 0 90 3c 60
        E 0 90 49 60
        E 0 90 55 60
        E 0 90 61 60
        E 120 80 3c 00
        E 0 80 49 00
        E 0 80 55 00
        E 0 80 61 00
        E 120 90 56 60
        E 0 90 62 60
        E 120 80 56 00
        E 0 80 62 00
        E 120 90 4b 60
        E 0 90 57 60
        E 0 90 63 60
        E 120 80 4b 00
        E 0 80 57 00
        E 0 80 63 00
        E 120 90 58 60
        E 0 90 64 60
        E 120 80 2d 00
        E 0 80 58 00
        E 0 80 64 00
        E 120 90 28 60
        E 0 90 3c 60
        E 0 90 48 60
        E 0 90 54 60
        E 0 90 60 60
        E 120 80 3c 00
        E 0 80 48 00
        E 0 80 54 00
        E 0 80 60 00
        E 120 90 55 60
        E 0 90 61 60
        E 120 80 55 00
        E 0 80 61 00
        E 120 90 4b 60
        E 0 90 57 60
        E 0 90 63 60
        E 120 80 4b 00
        E 0 80 57 00
        E 0 80 63 00
        E 120 90 56 60
        E 0 90 62 60
        E 120 80 28 00
        E 0 80 56 00
        E 0 80 62 00
        E 120 90 2b 60
        E 0 90 3c 60
        E 0 90 48 60
        E 0 90 54 60
        E 0 90 60 60
        E 120 80 3c 00
        E 0 80 48 00
        E 0 80 54 00
        E 0 80 60 00
        E 120 90 55 60
        E 0 90 61 60
        E 120 80 55 00
        E 0 80 61 00
        E 120 90 4a 60
        E 0 90 56 60
        E 0 90 62 60
        E 120 80 4a 00
        E 0 80 56 00
        E 0 80 62 00
        E 120 90 57 60
        E 0 90 63 60
        E 120 80 2b 00
        E 0 80 57 00
        E 0 80 63 00
        E 120 90 28 60
        E 0 90 3c 60
        E 0 90 48 60
        E 0 90 54 60
        E 0 90 60 60
        E 120 80 3c 00
        E 0 80 48 00
        E 0 80 54 00
        E 0 80 60 00
        E 120 90 56 60
        E 0 90 62 60
        E 120 80 56 00
        E 0 80 62 00
        E 120 90 4b 60
        E 0 90 57 60
        E 0 90 63 60
        E 120 80 4b 00
        E 0 80 57 00
        E 0 80 63 00
        E 120 90 58 60
        E 0 90 64 60
        E 120 80 28 00
        E 0 80 58 00
        E 0 80 64 00
        E 120 90 2d 60
        E 0 90 3c 60
        E 0 90 49 60
        E 0 90 55 60
        E 0 90 61 60
        E 120 80 3c 00
        E 0 80 49 00
        E 0 80 55 00
        E 0 80 61 00
        E 120 90 56 60
        E 0 90 62 60
        E 120 80 56 00
        E 0 80 62 00
        E 120 90 4b 60
        E 0 90 58 60
        E 0 90 64 60
        E 120 80 4b 00
        E 0 80 58 00
        E 0 80 64 00
        E 120 90 56 60
        E 0 90 62 60
        E 120 80 2d 00
        E 0 80 56 00
        E 0 80 62 00
        E 120 90 28 60
        E 0 90 3c 60
        E 0 90 48 60
        E 0 90 54 60
        E 0 90 60 60
        E 120 80 3c 00
        E 0 80 48 00
        E 0 80 54 00
        E 0 80 60 00
        E 120 90 55 60
        E 0 90 61 60
        E 120 80 55 00
        E 0 80 61 00
        E 120 90 4b 60
        E 0 90 57 60
        E 0 90 63 60
        E 120 80 4b 00
        E 0 80 57 00
        E 0 80 63 00
        E 120 90 56 60
        E 0 90 62 60
        E 120 80 28 00
        E 0 80 56 00
        E 0 80 62 00
        E 120 90 31 60
        E 0 90 3c 60
        E 0 90 49 60
        E 0 90 55 60
        E 0 90 61 60
        E 120 80 3c 00
        E 0 80 49 00
        E 0 80 55 00
        E 0 80 61 00
        E 120 90 56 60
        E 0 90 62 60
        E 120 80 56 00
        E 0 80 62 00
        E 120 90 4b 60
        E 0 90 57 60
        E 0 90 63 60
        E 120 80 4b 00
        E 0 80 57 00
        E 0 80 63 00
        E 240 80 31 00
        E 120 90 2d 60
        E 0 90 3c 60
        E 0 90 48 60
        E 0 90 54 60
        E 0 90 60 60
        E 120 80 3c 00
        E 0 80 48 00
        E 0 80 54 00
        E 0 80 60 00
        E 120 90 56 60
        E 0 90 62 60
        E 120 80 56 00
        E 0 80 62 00
        E 120 90 4b 60
        E 0 90 57 60
        E 0 90 63 60
        E 120 80 4b 00
        E 0 80 57 00
        E 0 80 63 00
        E 240 80 2d 00
        E 120 90 28 60
        E 0 90 3c 60
        E 0 90 48 60
        E 0 90 54 60
        E 0 90 60 60
        E 120 80 3c 00
        E 0 80 48 00
        E 0 80 54 00
        E 0 80 60 00
        E 120 90 55 60
        E 0 90 61 60
        E 120 80 55 00
        E 0 80 61 00
        E 120 90 4a 60
        E 0 90 56 60
        E 0 90 62 60
        E 120 80 4a 00
        E 0 80 56 00
        E 0 80 62 00
        E 360 90 3d 60
        E 0 90 48 60
        E 0 90 4a 60
        E 0 90 54 60
        E 0 90 56 60
        E 0 90 60 60
        E 0 90 62 60
        E 120 80 3d 00
        E 0 80 48 00
        E 0 80 4a 00
        E 0 80 54 00
        E 0 80 56 00
        E 0 80 60 00
        E 0 80 62 00
        E 120 90 48 60
        E 0 90 4a 60
        E 0 90 54 60
        E 0 90 56 60
        E 0 90 60 60
        E 0 90 62 60
        E 120 80 48 00
        E 0 80 4a 00
        E 0 80 54 00
        E 0 80 56 00
        E 0 80 60 00
        E 0 80 62 00
        E 120 90 3d 60
        E 0 90 48 60
        E 0 90 4a 60
        E 0 90 54 60
        E 0 90 56 60
        E 0 90 60 60
        E 0 90 62 60
        E 120 80 3d 00
        E 0 80 48 00
        E 0 80 4a 00
        E 0 80 54 00
        E 0 80 56 00
        E 0 80 60 00
        E 0 80 62 00
        E 120 90 48 60
        E 0 90 4a 60
        E 0 90 54 60
        E 0 90 56 60
        E 0 90 60 60
        E 0 90 62 60
        E 120 80 48 00
        E 0 80 4a 00
        E 0 80 54 00
        E 0 80 56 00
        E 0 80 60 00
        E 0 80 62 00
        E 120 90 3d 60
        E 0 90 48 60
        E 0 90 4a 60
        E 0 90 54 60
        E 0 90 56 60
        E 0 90 60 60
        E 0 90 62 60
        E 120 80 3d 00
        E 0 80 48 00
        E 0 80 4a 00
        E 0 80 54 00
        E 0 80 56 00
        E 0 80 60 00
        E 0 80 62 00
        E 360 80 28 00
        E 2400 90 37 60
        E 0 90 40 60
        E 0 90 4b 60
        E 0 90 4c 60
        E 0 90 57 60
        E 0 90 58 60
        E 0 90 63 60
        E 0 90 64 60
        E 120 80 40 00
        E 0 80 4b 00
        E 0 80 4c 00
        E 480 80 37 00
        E 0 80 57 00
        E 0 80 58 00
        E 0 80 63 00
        E 0 80 64 00
        E 120 90 3b 60
        E 0 90 4a 60
        E 0 90 4b 60
        E 0 90 56 60
        E 0 90 58 60
        E 0 90 62 60
        E 0 90 64 60
        E 720 80 4a 00
        E 0 80 4b 00
        E 360 80 3b 00
        E 0 80 56 00
        E 0 80 58 00
        E 0 80 62 00
        E 0 80 64 00
        E 120 90 38 60
        E 0 90 3f 60
        E 0 90 49 60
        E 0 90 4b 60
        E 0 90 56 60
        E 0 90 57 60
        E 0 90 62 60
        E 0 90 63 60
        E 120 80 3f 00
        E 0 80 49 00
        E 0 80 4b 00
        E 480 80 38 00
        E 0 80 56 00
        E 0 80 57 00
        E 0 80 62 00
        E 0 80 63 00
        E 120 90 35 60
        E 0 90 48 60
        E 0 90 4a 60
        E 0 90 55 60
        E 0 90 56 60
        E 0 90 61 60
        E 0 90 62 60
        E 720 80 48 00
        E 0 80 4a 00
        E 360 80 35 00
        E 0 80 55 00
        E 0 80 56 00
        E 0 80 61 00
        E 0 80 62 00
        E 120 90 37 60
        E 0 90 40 60
        E 0 90 4b 60
        E 0 90 4c 60
        E 0 90 57 60
        E 0 90 58 60
        E 0 90 63 60
        E 0 90 64 60
        E 120 80 40 00
        E 0 80 4b 00
        E 0 80 4c 00
        E 480 80 37 00
        E 0 80 57 00
        E 0 80 58 00
        E 0 80 63 00
        E 0 80 64 00
        E 120 90 3b 60
        E 0 90 4a 60
        E 0 90 4b 60
        E 0 90 56 60
        E 0 90 58 60
        E 0 90 62 60
        E 0 90 64 60
        E 720 80 4a 00
        E 0 80 4b 00
        E 360 80 56 00
        E 0 80 58 00
        E 0 80 62 00
        E 0 80 64 00
        E 120 90 3d 60
        E 0 90 48 60
        E 0 90 4a 60
        E 0 90 55 60
        E 0 90 56 60
        E 0 90 61 60
        E 0 90 62 60
        E 120 80 3d 00
        E 0 80 48 00
        E 0 80 4a 00
        E 480 80 3b 00
        E 0 80 55 00
        E 0 80 56 00
        E 0 80 61 00
        E 0 80 62 00
        E 120 90 38 60
        E 0 90 48 60
        E 0 90 49 60
        E 0 90 54 60
        E 0 90 55 60
        E 0 90 60 60
        E 0 90 61 60
        E 600 80 38 00
        E 120 90 37 60
        E 600 80 37 00
        E 120 90 35 60
        E 240 80 48 00
        E 0 80 49 00
        E 360 80 54 00
        E 0 80 55 00
        E 0 80 60 00
        E 0 80 61 00
        E 0 80 35 00
        E 120 90 31 60
        E 0 90 3e 60
        E 0 90 4b 60
        E 0 90 58 60
        E 0 90 64 60
        E 120 80 3e 00
        E 0 80 4b 00
        E 0 80 58 00
        E 0 80 64 00
        E 120 90 4b 60
        E 0 90 58 60
        E 0 90 64 60
        E 120 80 4b 00
        E 0 80 58 00
        E 0 80 64 00
        E 120 90 3e 60
        E 0 90 4b 60
        E 0 90 57 60
        E 0 90 63 60
        E 120 80 3e 00
        E 0 80 4b 00
        E 0 80 57 00
        E 0 80 63 00
        E 120 90 56 60
        E 0 90 62 60
        E 120 80 56 00
        E 0 80 62 00
        E 120 90 3e 60
        E 0 90 4b 60
        E 0 90 57 60
        E 0 90 63 60
        E 120 80 3e 00
        E 0 80 4b 00
        E 0 80 57 00
        E 0 80 63 00
        E 120 90 57 60
        E 0 90 63 60
        E 120 80 57 00
        E 0 80 63 00
        E 120 90 4a 60
        E 0 90 56 60
        E 0 90 62 60
        E 120 80 4a 00
        E 0 80 56 00
        E 0 80 62 00
        E 120 90 55 60
        E 0 90 61 60
        E 120 80 31 00
        E 0 80 55 00
        E 0 80 61 00
        E 120 90 28 60
        E 0 90 3d 60
        E 0 90 4a 60
        E 0 90 56 60
        E 0 90 62 60
        E 120 80 3d 00
        E 0 80 4a 00
        E 0 80 56 00
        E 0 80 62 00
        E 120 90 56 60
        E 0 90 62 60
        E 120 80 56 00
        E 0 80 62 00
        E 120 90 49 60
        E 0 90 55 60
        E 0 90 61 60
        E 120 80 49 00
        E 0 80 55 00
        E 0 80 61 00
        E 120 90 54 60
        E 0 90 60 60
        E 840 80 28 00
        E 0 80 54 00
        E 0 80 60 00
        E 120 90 31 60
        E 0 90 3e 60
        E 0 90 4b 60
        E 0 90 58 60
        E 0 90 64 60
        E 120 80 3e 00
        E 0 80 4b 00
        E 0 80 58 00
        E 0 80 64 00
        E 120 90 74 60
        E 240 90 4b 60
        E 0 90 58 60
        E 0 90 64 60
        E 120 80 4b 00
        E 0 80 58 00
        E 0 80 64 00
        E 120 90 3e 60
        E 0 90 4b 60
        E 0 90 57 60
        E 0 90 63 60
        E 120 80 3e 00
        E 0 80 4b 00
        E 0 80 57 00
        E 0 80 63 00
        E 120 90 56 60
        E 0 90 62 60
        E 120 80 56 00
        E 0 80 62 00
        E 120 90 3e 60
        E 0 90 4b 60
        E 0 90 57 60
        E 0 90 63 60
        E 120 80 3e 00
        E 0 80 4b 00
        E 0 80 57 00
        E 0 80 63 00
        E 120 90 57 60
        E 0 90 63 60
        E 120 80 57 00
        E 0 80 63 00
        E 120 90 4a 60
        E 0 90 56 60
        E 0 90 62 60
        E 120 80 4a 00
        E 0 80 56 00
        E 0 80 62 00
        E 120 90 55 60
        E 0 90 61 60
        E 120 80 31 00
        E 0 80 55 00
        E 0 80 61 00
        E 120 90 28 60
        E 0 90 3d 60
        E 0 90 4a 60
        E 0 90 56 60
        E 0 90 62 60
        E 120 80 3d 00
        E 0 80 4a 00
        E 0 80 56 00
        E 0 80 62 00
        E 120 90 56 60
        E 0 90 62 60
        E 120 80 56 00
        E 0 80 62 00
        E 120 90 49 60
        E 0 90 55 60
        E 0 90 61 60
        E 120 80 49 00
        E 0 80 55 00
        E 0 80 61 00
        E 120 90 54 60
        E 0 90 60 60
        E 1080 80 28 00
        E 0 80 54 00
        E 0 80 60 00
        E 120 90 34 60
        E 0 90 3e 60
        E 0 90 4b 60
        E 0 90 58 60
        E 0 90 64 60
        E 120 80 74 00
        E 0 80 3e 00
        E 0 80 4b 00
        E 0 80 58 00
        E 0 80 64 00
        E 120 90 4b 60
        E 0 90 58 60
        E 0 90 64 60
        E 120 80 4b 00
        E 0 80 58 00
        E 0 80 64 00
        E 120 90 3e 60
        E 0 90 4b 60
        E 0 90 57 60
        E 0 90 63 60
        E 120 80 3e 00
        E 0 80 4b 00
        E 0 80 57 00
        E 0 80 63 00
        E 120 90 56 60
        E 0 90 62 60
        E 120 80 34 00
        E 0 80 56 00
        E 0 80 62 00
        E 120 90 2f 60
        E 0 90 3e 60
        E 0 90 4b 60
        E 0 90 57 60
        E 0 90 63 60
        E 120 80 3e 00
        E 0 80 4b 00
        E 0 80 57 00
        E 0 80 63 00
        E 120 90 57 60
        E 0 90 63 60
        E 120 80 57 00
        E 0 80 63 00
        E 120 90 49 60
        E 0 90 55 60
        E 0 90 61 60
        E 120 80 49 00
        E 0 80 55 00
        E 0 80 61 00
        E 120 90 54 60
        E 0 90 60 60
        E 120 80 2f 00
        E 0 80 54 00
        E 0 80 60 00
        E 120 90 2d 60
        E 0 90 3d 60
        E 0 90 4a 60
        E 0 90 56 60
        E 0 90 62 60
        E 120 80 3d 00
        E 0 80 4a 00
        E 0 80 56 00
        E 0 80 62 00
        E 120 90 56 60
        E 0 90 62 60
        E 120 80 56 00
        E 0 80 62 00
        E 120 90 49 60
        E 0 90 55 60
        E 0 90 61 60
        E 120 80 49 00
        E 0 80 55 00
        E 0 80 61 00
        E 120 90 54 60
        E 0 90 60 60
        E 840 80 2d 00
        E 0 80 54 00
        E 0 80 60 00
        E 120 90 31 60
        E 0 90 3e 60
        E 0 90 4b 60
        E 0 90 58 60
        E 0 90 64 60
        E 120 80 3e 00
        E 0 80 4b 00
        E 0 80 58 00
        E 0 80 64 00
        E 360 90 4b 60
        E 0 90 58 60
        E 0 90 64 60
        E 120 80 4b 00
        E 0 80 58 00
        E 0 80 64 00
        E 120 90 3e 60
        E 0 90 4b 60
        E 0 90 57 60
        E 0 90 63 60
        E 120 80 3e 00
        E 0 80 4b 00
        E 0 80 57 00
        E 0 80 63 00
        E 120 90 56 60
        E 0 90 62 60
        E 120 80 56 00
        E 0 80 62 00
        E 120 90 3e 60
        E 0 90 4b 60
        E 0 90 57 60
        E 0 90 63 60
        E 120 80 3e 00
        E 0 80 4b 00
        E 0 80 57 00
        E 0 80 63 00
        E 120 90 57 60
        E 0 90 63 60
        E 120 80 57 00
        E 0 80 63 00
        E 120 90 4a 60
        E 0 90 56 60
        E 0 90 62 60
        E 120 80 4a 00
        E 0 80 56 00
        E 0 80 62 00
        E 120 90 55 60
        E 0 90 61 60
        E 120 80 31 00
        E 0 80 55 00
        E 0 80 61 00
        E 120 90 28 60
        E 0 90 3d 60
        E 0 90 4a 60
        E 0 90 56 60
        E 0 90 62 60
        E 120 80 3d 00
        E 0 80 4a 00
        E 0 80 56 00
        E 0 80 62 00
        E 120 90 56 60
        E 0 90 62 60
        E 120 80 56 00
        E 0 80 62 00
        E 120 90 49 60
        E 0 90 55 60
        E 0 90 61 60
        E 120 80 49 00
        E 0 80 55 00
        E 0 80 61 00
        E 120 90 54 60
        E 0 90 60 60
        E 1080 80 28 00
        E 0 80 54 00
        E 0 80 60 00
        <X 120 0
          /wFbaW50ZW5zZV0=
        >
        E 0 90 32 60
        E 0 90 3c 60
        E 0 90 49 60
        E 0 90 55 60
        E 0 90 61 60
        E 0 90 67 60
        E 1440 80 3c 00
        E 0 80 49 00
        E 360 80 55 00
        E 0 80 61 00
        E 120 90 3d 60
        E 0 90 4a 60
        E 0 90 56 60
        E 0 90 62 60
        E 960 80 3d 00
        E 0 80 4a 00
        E 360 80 32 00
        E 0 80 56 00
        E 0 80 62 00
        E 120 90 2d 60
        E 0 90 3e 60
        E 0 90 4b 60
        E 0 90 58 60
        E 0 90 64 60
        E 0 90 74 60
        E 120 80 3e 00
        E 0 80 4b 00
        E 480 80 58 00
        E 0 80 64 00
        E 120 90 4b 60
        E 0 90 57 60
        E 0 90 63 60
        E 120 80 4b 00
        E 480 80 57 00
        E 0 80 63 00
        E 120 90 3d 60
        E 0 90 4a 60
        E 0 90 56 60
        E 0 90 62 60
        E 120 80 3d 00
        E 0 80 4a 00
        E 240 80 56 00
        E 0 80 62 00
        E 120 90 4b 60
        E 0 90 57 60
        E 0 90 63 60
        E 120 80 4b 00
        E 0 80 57 00
        E 0 80 63 00
        E 120 90 56 60
        E 0 90 62 60
        E 240 80 74 00
        E 120 80 56 00
        E 0 80 62 00
        E 120 90 3c 60
        E 0 90 49 60
        E 0 90 55 60
        E 0 90 61 60
        E 120 80 3c 00
        E 0 80 49 00
        E 240 80 55 00
        E 0 80 61 00
        E 120 90 48 60
        E 0 90 54 60
        E 0 90 60 60
        E 720 80 48 00
        E 360 80 2d 00
        E 0 80 54 00
        E 0 80 60 00
        E 120 90 32 60
        E 0 90 3c 60
        E 0 90 49 60
        E 0 90 55 60
        E 0 90 61 60
        E 1440 80 3c 00
        E 0 80 49 00
        E 360 80 55 00
        E 0 80 61 00
        E 120 90 3d 60
        E 0 90 4a 60
        E 0 90 56 60
        E 0 90 62 60
        E 960 80 3d 00
        E 0 80 4a 00
        E 360 80 32 00
        E 0 80 56 00
        E 0 80 62 00
        E 120 90 2d 60
        E 0 90 3e 60
        E 0 90 4b 60
        E 0 90 58 60
        E 0 90 64 60
        E 120 80 3e 00
        E 0 80 4b 00
        E 480 80 58 00
        E 0 80 64 00
        E 120 90 4b 60
        E 0 90 57 60
        E 0 90 63 60
        E 120 80 4b 00
        E 480 80 57 00
        E 0 80 63 00
        E 120 90 3d 60
        E 0 90 4a 60
        E 0 90 56 60
        E 0 90 62 60
        E 120 80 3d 00
        E 0 80 4a 00
        E 240 80 56 00
        E 0 80 62 00
        E 120 90 4b 60
        E 0 90 57 60
        E 0 90 63 60
        E 120 80 4b 00
        E 0 80 57 00
        E 0 80 63 00
        E 120 90 56 60
        E 0 90 62 60
        E 360 80 56 00
        E 0 80 62 00
        E 120 90 3c 60
        E 0 90 49 60
        E 0 90 55 60
        E 0 90 61 60
        E 120 80 3c 00
        E 0 80 49 00
        E 240 80 55 00
        E 0 80 61 00
        E 120 90 48 60
        E 0 90 54 60
        E 0 90 60 60
        E 120 80 48 00
        E 480 80 2d 00
        E 0 80 54 00
        E 0 80 60 00
        E 120 90 32 60
        E 0 90 3c 60
        E 0 90 49 60
        E 0 90 55 60
        E 0 90 61 60
        E 120 80 3c 00
        E 0 80 49 00
        E 0 80 55 00
        E 0 80 61 00
        E 120 90 54 60
        E 0 90 60 60
        E 600 80 54 00
        E 0 80 60 00
        E 120 90 3c 60
        E 0 90 49 60
        E 0 90 55 60
        E 0 90 61 60
        E 120 80 3c 00
        E 0 80 49 00
        E 0 80 55 00
        E 0 80 61 00
        E 120 90 56 60
        E 0 90 61 60
        E 60 80 61 00
        E 0 90 62 60
        E 540 80 56 00
        E 0 80 62 00
        E 120 90 3d 60
        E 0 90 4a 60
        E 0 90 56 60
        E 0 90 62 60
        E 120 80 3d 00
        E 0 80 4a 00
        E 0 80 56 00
        E 0 80 62 00
        E 120 90 57 60
        E 0 90 62 60
        E 60 80 62 00
        E 0 90 63 60
        E 60 80 57 00
        E 240 80 63 00
        E 120 90 4b 60
        E 0 90 57 60
        E 0 90 63 60
        E 120 80 4b 00
        E 240 80 57 00
        E 0 80 63 00
        E 120 90 3e 60
        E 0 90 4b 60
        E 0 90 58 60
        E 0 90 63 60
        E 60 80 63 00
        E 0 90 64 60
        E 4260 80 3e 00
        E 0 80 4b 00
        E 240 80 67 00
        E 0 80 32 00
        E 0 80 58 00
        E 0 80 64 00
        E 240 90 34 60
        E 0 90 3e 60
        E 0 90 4b 60
        E 0 90 58 60
        E 0 90 64 60
        E 120 80 3e 00
        E 0 80 4b 00
        E 0 80 58 00
        E 0 80 64 00
        E 120 90 74 60
        E 240 90 4b 60
        E 0 90 58 60
        E 0 90 64 60
        E 120 80 4b 00
        E 0 80 58 00
        E 0 80 64 00
        E 120 90 3e 60
        E 0 90 4b 60
        E 0 90 57 60
        E 0 90 63 60
        E 120 80 3e 00
        E 0 80 4b 00
        E 0 80 57 00
        E 0 80 63 00
        E 120 90 56 60
        E 0 90 62 60
        E 120 80 34 00
        E 0 80 56 00
        E 0 80 62 00
        E 120 90 2f 60
        E 0 90 3e 60
        E 0 90 4b 60
        E 0 90 57 60
        E 0 90 63 60
        E 120 80 3e 00
        E 0 80 4b 00
        E 0 80 57 00
        E 0 80 63 00
        E 120 90 57 60
        E 0 90 63 60
        E 120 80 57 00
        E 0 80 63 00
        E 120 90 49 60
        E 0 90 55 60
        E 0 90 61 60
        E 120 80 49 00
        E 0 80 55 00
        E 0 80 61 00
        E 120 90 54 60
        E 0 90 60 60
        E 120 80 2f 00
        E 0 80 54 00
        E 0 80 60 00
        E 120 90 28 60
        E 0 90 3d 60
        E 0 90 4a 60
        E 0 90 56 60
        E 0 90 62 60
        E 120 80 74 00
        E 0 80 3d 00
        E 0 80 4a 00
        E 0 80 56 00
        E 0 80 62 00
        E 120 90 56 60
        E 0 90 62 60
        E 120 80 56 00
        E 0 80 62 00
        E 120 90 49 60
        E 0 90 55 60
        E 0 90 61 60
        E 120 80 49 00
        E 0 80 55 00
        E 0 80 61 00
        E 120 90 54 60
        E 0 90 60 60
        E 1080 80 28 00
        E 0 80 54 00
        E 0 80 60 00
        E 120 90 31 60
        E 0 90 3e 60
        E 0 90 4b 60
        E 0 90 58 60
        E 0 90 64 60
        E 120 80 3e 00
        E 0 80 4b 00
        E 0 80 58 00
        E 0 80 64 00
        E 120 90 4b 60
        E 0 90 58 60
        E 0 90 64 60
        E 120 80 4b 00
        E 0 80 58 00
        E 0 80 64 00
        E 120 90 3e 60
        E 0 90 4b 60
        E 0 90 57 60
        E 0 90 63 60
        E 120 80 3e 00
        E 0 80 4b 00
        E 0 80 57 00
        E 0 80 63 00
        E 120 90 56 60
        E 0 90 62 60
        E 120 80 56 00
        E 0 80 62 00
        E 120 90 3e 60
        E 0 90 4b 60
        E 0 90 57 60
        E 0 90 63 60
        E 120 80 3e 00
        E 0 80 4b 00
        E 0 80 57 00
        E 0 80 63 00
        E 120 90 57 60
        E 0 90 63 60
        E 120 80 57 00
        E 0 80 63 00
        E 120 90 4a 60
        E 0 90 56 60
        E 0 90 62 60
        E 120 80 4a 00
        E 0 80 56 00
        E 0 80 62 00
        E 120 90 55 60
        E 0 90 61 60
        E 120 80 31 00
        E 0 80 55 00
        E 0 80 61 00
        E 120 90 28 60
        E 0 90 3d 60
        E 0 90 4a 60
        E 0 90 56 60
        E 0 90 62 60
        E 120 80 3d 00
        E 0 80 4a 00
        E 0 80 56 00
        E 0 80 62 00
        E 120 90 56 60
        E 0 90 62 60
        E 120 80 56 00
        E 0 80 62 00
        E 120 90 49 60
        E 0 90 55 60
        E 0 90 61 60
        E 120 80 49 00
        E 0 80 55 00
        E 0 80 61 00
        E 120 90 54 60
        E 0 90 60 60
        E 840 80 28 00
        E 0 80 54 00
        E 0 80 60 00
        E 120 90 34 60
        E 0 90 3e 60
        E 0 90 4b 60
        E 0 90 58 60
        E 0 90 64 60
        E 120 80 3e 00
        E 0 80 4b 00
        E 0 80 58 00
        E 0 80 64 00
        E 360 90 4b 60
        E 0 90 58 60
        E 0 90 64 60
        E 120 80 4b 00
        E 0 80 58 00
        E 0 80 64 00
        E 120 90 3e 60
        E 0 90 4b 60
        E 0 90 57 60
        E 0 90 63 60
        E 120 80 3e 00
        E 0 80 4b 00
        E 0 80 57 00
        E 0 80 63 00
        E 120 90 56 60
        E 0 90 62 60
        E 120 80 34 00
        E 0 80 56 00
        E 0 80 62 00
        E 120 90 2f 60
        E 0 90 3e 60
        E 0 90 4b 60
        E 0 90 57 60
        E 0 90 63 60
        E 120 80 3e 00
        E 0 80 4b 00
        E 0 80 57 00
        E 0 80 63 00
        E 120 90 57 60
        E 0 90 63 60
        E 120 80 57 00
        E 0 80 63 00
        E 120 90 49 60
        E 0 90 55 60
        E 0 90 61 60
        E 120 80 49 00
        E 0 80 55 00
        E 0 80 61 00
        E 120 90 54 60
        E 0 90 60 60
        E 120 80 2f 00
        E 0 80 54 00
        E 0 80 60 00
        E 120 90 28 60
        E 0 90 3d 60
        E 0 90 4a 60
        E 0 90 56 60
        E 0 90 62 60
        E 120 80 3d 00
        E 0 80 4a 00
        E 0 80 56 00
        E 0 80 62 00
        E 120 90 56 60
        E 0 90 62 60
        E 120 80 56 00
        E 0 80 62 00
        E 120 90 49 60
        E 0 90 55 60
        E 0 90 61 60
        E 120 80 49 00
        E 0 80 55 00
        E 0 80 61 00
        E 120 90 54 60
        E 0 90 60 60
        <X 3120 0
          /wFbcGxheV0=
        >
        E 1200 80 54 00
        E 0 80 60 00
        E 240 80 28 00
        <X 120 0
          /wFbaWRsZV9yZWFsdGltZV0=
        >
        E 2280 b0 7b 00
        GUID {B0CA7A16-7952-45E5-ACFD-B0EF6B73512B}
        IGNTEMPO 0 120.00000000 4 4
        SRCCOLOR 4
        VELLANE 132 71 60
        COLORMAP "C:\Program Files\REAPER (x64)\Data\color_maps\rockband_guitarbass.png"
        CFGEDITVIEW 0.000000 4.816901 0 12 0 0 0
        CFGEDIT 1 1 0 1 1 0 1 1 1 1 1 0.25000000 100 100 1200 800 0 2 2 1 0.00000000 0 1 1 0 0.500000 0 0 1.000000 64
        KEYSNAP 0 6 "102030050700" 0 "Pentatonic"
        EVTFILTER 0 -1 -1 -1 -1 0 1 0 0 -1.00000000 -1.00000000
      >
    >
  >
  <TRACK '{CB00A42C-21A6-44EE-AA1D-B8A9D70CA563}'
    NAME "PART VOCALS"
    PEAKCOL 16576
    BEAT -1
    AUTOMODE 0
    VOLPAN 1.00000000000000 0.00000000000000 -1.00000000000000 -1.00000000000000 1.00000000000000
    MUTESOLO 0 0 0
    IPHASE 0
    ISBUS 0 0
    BUSCOMP 0 0
    SHOWINMIX 1 0.666700 0.500000 1 0.500000 -1 -1 -1
    FREEMODE 0
    SEL 0
    REC 0 0 0 0 0 0 0
    VU 2
    TRACKHEIGHT 0 0
    INQ 0 0 0 0.5000000000 100 0 0 100
    NCHAN 2
    FX 0
    TRACKID {CB00A42C-21A6-44EE-AA1D-B8A9D70CA563}
    PERF 0
    MIDIOUT -1
    <MIDINOTENAMES
      0 116 "OVERDRIVE"
      0 115 "----"
      0 105 "Phrase Marker"
      0 104 "----"
      0 97 "Non-Displayed Percussion"
      0 96 "Displayed Percussion"
      0 95 "----"
      0 84 "C6 (Unused Highest Note)"
      0 83 "B5"
      0 82 "A#4"
      0 81 "A4"
      0 80 "G#4"
      0 79 "G4"
      0 78 "F#4"
      0 77 "F4"
      0 76 "E4"
      0 75 "D#4"
      0 74 "D4"
      0 73 "C#4"
      0 72 "C4"
      0 71 "B3"
      0 70 "A#3"
      0 69 "A3"
      0 68 "G#3"
      0 67 "G3"
      0 66 "F#3"
      0 65 "F3"
      0 64 "E3"
      0 63 "D#3"
      0 62 "D3"
      0 61 "C#3"
      0 60 "C3"
      0 59 "B2"
      0 58 "A#2"
      0 57 "A2"
      0 56 "G#2"
      0 55 "G2"
      0 54 "F#2"
      0 53 "F2"
      0 52 "E2"
      0 51 "D#2"
      0 50 "D2"
      0 49 "C#2"
      0 48 "C2"
      0 47 "B1"
      0 46 "A#1"
      0 45 "A1"
      0 44 "G#1"
      0 43 "G1"
      0 42 "F#1"
      0 41 "F1"
      0 40 "E1"
      0 39 "D#1"
      0 38 "D1"
      0 37 "C#1"
      0 36 "Lowest Note C1"
      0 2 "---"
      0 1 "Lyric Shift"
      0 0 "Range Shift"
    >
    MAINSEND 1 0
    <FXCHAIN
      WNDRECT 0 43 655 467
      SHOW 0
      LASTSEL 1
      DOCKED 0
      BYPASS 0 0
      <JS "MIDI/midi_note_filter" ""
        36.000000 84.000000 - - - - - - - - - - - - - - - - - - - - - - - - - - - - - - - - - - - - - - - - - - - - - - - - - - - - - - - - - - - - - - 
      >
      FLOATPOS 0 0 0 0
      FXID {0B5C98D8-1C68-46F6-86FB-EBDE74C4D23A}
      WAK 0
      BYPASS 0 0
      <VST "VSTi: ReaSynth (Cockos)" "reasynth.dll" 0 ""
        eXNlcu9e7f4AAAAAAgAAAAEAAAAAAAAAAgAAAAAAAAA4AAAAAAAAAA==
        AAAQAO++rd4N8K3eppvEOxe30ToAAIA/AAAAAAAAAADMm4A+6WeIPQ==
        AAAAAAAAAD8AAIA/AACAPwAAAD8AABAAAAA=
      >
      FLOATPOS 0 0 0 0
      FXID {A235B7A5-8730-4EAB-83E5-49AEF401119A}
      WAK 0
    >
    <ITEM
      POSITION 0.00000000000000
      SNAPOFFS 0.00000000000000
      LENGTH 144.00000000000000
      LOOP 0
      ALLTAKES 0
      SEL 0
      FADEIN 1 0.000000 0.000000 1 0
      FADEOUT 1 0.000000 0.000000 1 0
      MUTE 0
      IGUID {16E42FA1-01FA-47A4-A659-0882C932001F}
      IID 6
      NAME "PART VOCALS"
      VOLPAN 1.000000 0.000000 1.000000 -1.000000
      SOFFS 0.00000000000000 0.00000000000000
      PLAYRATE 1.00000000000000 1 0.00000000000000 -1
      CHANMODE 0
      GUID {FE5CFD4B-3330-4D46-9835-E6C2E4ED6207}
      <SOURCE MIDI
        HASDATA 1 480 QN
        POOLEDEVTS {6357BB7F-50D4-4870-8C59-ADE2A6AD8124}
        <X 0 0
          /wNQQVJUIFZPQ0FMUw==
        >
        <X 5760 0
          /wFbcGxheV0=
        >
        E 0 90 69 60
        <X 240 0
          /wVJ
        >
        E 0 90 4c 60
        E 600 80 4c 00
        <X 120 0
          /wVrbm93
        >
        E 0 90 4b 60
        E 150 80 4b 00
        <X 90 0
          /wUr
        >
        E 0 90 4c 60
        E 120 80 4c 00
        <X 120 0
          /wV0aGF0
        >
        E 0 90 4b 60
        E 120 80 4b 00
        <X 120 0
          /wVJ
        >
        E 0 90 49 60
        E 420 80 49 00
        <X 60 0
          /wVlbmQt
        >
        E 0 90 49 60
        E 300 80 49 00
        <X 180 0
          /wVlZA==
        >
        E 0 90 47 60
        E 120 80 47 00
        <X 120 0
          /wVpdA==
        >
        E 0 90 44 60
        E 270 80 44 00
        <X 210 0
          /wVidXQ=
        >
        E 0 90 47 60
        E 240 80 47 00
        E 240 80 69 00
        E 0 90 69 60
        E 0 90 74 60
        <X 240 0
          /wVXaHk=
        >
        E 0 90 4e 60
        E 30 80 4e 00
        <X 30 0
          /wUr
        >
        E 0 90 50 60
        E 540 80 50 00
        <X 120 0
          /wV3b24ndA==
        >
        E 0 90 4e 60
        E 270 80 4e 00
        <X 90 0
          /wV5b3U=
        >
        E 0 90 50 60
        E 150 80 50 00
        <X 210 0
          /wVjaGFzZQ==
        >
        E 0 90 4e 60
        E 360 80 4e 00
        <X 120 0
          /wVhZi0=
        >
        E 0 90 4e 60
        E 360 80 4e 00
        <X 120 0
          /wV0ZXI=
        >
        E 0 90 4c 60
        E 90 80 4c 00
        <X 150 0
          /wVtZT8=
        >
        E 0 90 49 60
        E 300 80 49 00
        E 180 80 69 00
        E 0 80 74 00
        E 0 90 69 60
        <X 240 0
          /wVZb3U=
        >
        E 0 90 4e 60
        E 60 80 4e 00
        <X 30 0
          /wUr
        >
        E 0 90 50 60
        E 300 80 50 00
        <X 90 0
          /wVrbm93
        >
        E 0 90 4e 60
        E 300 80 4e 00
        <X 180 0
          /wVtZQ==
        >
        E 0 90 4e 60
        E 570 80 4e 00
        <X 150 0
          /wViZXQt
        >
        E 0 90 50 60
        E 60 80 50 00
        <X 60 0
          /wV0ZXI=
        >
        E 0 90 4e 60
        E 60 80 4e 00
        <X 120 0
          /wV0aGFu
        >
        E 0 90 4c 60
        E 300 80 4c 00
        <X 120 0
          /wVJ
        >
        E 0 90 49 60
        E 180 80 49 00
        <X 60 0
          /wUr
        >
        E 0 90 47 60
        E 90 80 47 00
        <X 150 0
          /wVkbw==
        >
        E 0 90 47 60
        E 330 80 47 00
        E 150 80 69 00
        E 0 90 69 60
        <X 240 0
          /wVTbw==
        >
        E 0 90 49 60
        E 120 80 49 00
        <X 120 0
          /wV3aHk=
        >
        E 0 90 4c 60
        E 780 80 4c 00
        <X 180 0
          /wVkaWQt
        >
        E 0 90 4b 60
        E 420 80 4b 00
        <X 60 0
          /wVuJ3Q=
        >
        E 0 90 4c 60
        E 390 80 4c 00
        <X 90 0
          /wV5b3U=
        >
        E 0 90 4b 60
        E 120 80 4b 00
        <X 360 0
          /wVzdG9w
        >
        E 0 90 49 60
        E 750 80 49 00
        <X 210 0
          /wVtZT8=
        >
        E 0 90 47 60
        E 390 80 47 00
        E 90 80 69 00
        E 0 90 69 60
        E 0 90 74 60
        <X 240 0
          /wVXaHk=
        >
        E 0 90 4c 60
        E 810 80 4c 00
        <X 150 0
          /wVkaWQt
        >
        E 0 90 4b 60
        E 330 80 4b 00
        <X 30 0
          /wVuJ3Q=
        >
        E 0 90 4c 60
        E 270 80 4c 00
        <X 90 0
          /wV5b3U=
        >
        E 0 90 4b 60
        E 210 80 4b 00
        <X 270 0
          /wVzdG9w
        >
        E 0 90 49 60
        E 750 80 49 00
        <X 210 0
          /wVtZQ==
        >
        E 0 90 47 60
        E 390 80 47 00
        E 330 80 69 00
        E 0 80 74 00
        E 0 90 69 60
        <X 240 0
          /wVBbmQ=
        >
        E 0 90 47 60
        E 90 80 47 00
        <X 150 0
          /wVwYWludA==
        >
        E 0 90 4c 60
        E 630 80 4c 00
        <X 120 0
          /wUr
        >
        E 0 90 47 60
        E 60 80 47 00
        <X 150 0
          /wVpdA==
        >
        E 0 90 47 60
        E 150 80 47 00
        <X 90 0
          /wVvLQ==
        >
        E 0 90 49 60
        E 30 80 49 00
        <X 60 0
          /wUr
        >
        E 0 90 4b 60
        E 270 80 4b 00
        <X 120 0
          /wV2ZXI/
        >
        E 0 90 49 60
        E 900 80 49 00
        E 300 80 69 00
        <X 30 0
          /wFbaWRsZV0=
        >
        <X 18690 0
          /wFbcGxheV0=
        >
        E 0 90 69 60
        <X 480 0
          /wVJ
        >
        E 0 90 4d 60
        E 1050 80 4d 00
        <X 150 0
          /wVsb29r
        >
        E 0 90 4c 60
        E 270 80 4c 00
        <X 210 0
          /wVmb3I=
        >
        E 0 90 4d 60
        E 180 80 4d 00
        <X 60 0
          /wVh
        >
        E 0 90 4c 60
        E 90 80 4c 00
        <X 150 0
          /wVwaWMt
        >
        E 0 90 4a 60
        E 180 80 4a 00
        <X 300 0
          /wV0dXJl
        >
        E 0 90 4a 60
        E 390 80 4a 00
        <X 90 0
          /wVvZg==
        >
        E 0 90 48 60
        E 150 80 48 00
        <X 90 0
          /wV5b3U=
        >
        E 0 90 45 60
        E 600 80 45 00
        E 90 80 69 00
        E 0 90 69 60
        E 0 90 74 60
        <X 30 0
          /wVUbw==
        >
        E 0 90 48 60
        E 210 80 48 00
        <X 270 0
          /wVrZWVw
        >
        E 0 90 4f 60
        E 180 80 4f 00
        <X 60 0
          /wUr
        >
        E 0 90 51 60
        E 360 80 51 00
        <X 120 0
          /wVpbg==
        >
        E 0 90 4f 60
        E 150 80 4f 00
        <X 210 0
          /wVteQ==
        >
        E 0 90 51 60
        E 180 80 51 00
        <X 180 0
          /wVwb2NrLQ==
        >
        E 0 90 4f 60
        E 180 80 4f 00
        <X 60 0
          /wUr
        >
        E 0 90 4d 60
        E 90 80 4d 00
        <X 150 0
          /wVldA==
        >
        E 0 90 4d 60
        E 270 80 4d 00
        E 210 80 69 00
        E 0 80 74 00
        E 0 90 69 60
        <X 240 0
          /wVCdXQ=
        >
        E 0 90 4a 60
        E 150 80 4a 00
        <X 210 0
          /wVJ
        >
        E 0 90 48 60
        E 240 80 48 00
        <X 150 0
          /wUr
        >
        E 0 90 51 60
        E 330 80 51 00
        <X 120 0
          /wVjYW4ndA==
        >
        E 0 90 4f 60
        E 210 80 4f 00
        <X 270 0
          /wVzZWVt
        >
        E 0 90 4f 60
        E 600 80 4f 00
        <X 120 0
          /wV0bw==
        >
        E 0 90 51 60
        E 90 80 51 00
        <X 30 0
          /wUr
        >
        E 0 90 4f 60
        E 120 80 4f 00
        <X 120 0
          /wVmaW5k
        >
        E 0 90 4d 60
        E 240 80 4d 00
        <X 120 0
          /wVvbmU=
        >
        E 0 90 4a 60
        E 180 80 4a 00
        <X 60 0
          /wUr
        >
        E 0 90 48 60
        E 120 80 48 00
        E 30 80 69 00
        E 0 90 69 60
        E 0 90 74 60
        <X 90 0
          /wVXaGVyZQ==
        >
        E 0 90 48 60
        E 390 80 48 00
        <X 90 0
          /wV5b3U=
        >
        E 0 90 4a 60
        E 390 80 4a 00
        <X 90 0
          /wVsb29r
        >
        E 0 90 4d 60
        E 780 80 4d 00
        <X 420 0
          /wVob3c=
        >
        E 0 90 4c 60
        E 270 80 4c 00
        <X 90 0
          /wVJ
        >
        E 0 90 4d 60
        E 270 80 4d 00
        <X 90 0
          /wVyZS0=
        >
        E 0 90 4c 60
        E 300 80 4c 00
        <X 180 0
          /wVtZW0t
        >
        E 0 90 4a 60
        E 780 80 4a 00
        <X 180 0
          /wViZXI=
        >
        E 0 90 48 60
        E 450 80 48 00
        E 30 80 69 00
        E 0 80 74 00
        E 0 90 69 60
        <X 240 0
          /wVMb29r
        >
        E 0 90 4d 60
        E 750 80 4d 00
        <X 210 0
          /wVob3c=
        >
        E 0 90 4c 60
        E 270 80 4c 00
        <X 90 0
          /wVJ
        >
        E 0 90 4d 60
        E 300 80 4d 00
        <X 60 0
          /wVyZS0=
        >
        E 0 90 4c 60
        E 270 80 4c 00
        <X 210 0
          /wVtZW0t
        >
        E 0 90 4a 60
        E 750 80 4a 00
        <X 210 0
          /wViZXI=
        >
        E 0 90 48 60
        E 390 80 48 00
        E 60 80 69 00
        E 0 90 69 60
        <X 30 0
          /wVMb29r
        >
        E 0 90 4c 60
        E 30 80 4c 00
        <X 30 0
          /wUr
        >
        E 0 90 4d 60
        E 510 80 4d 00
        <X 630 0
          /wVob3c=
        >
        E 0 90 4c 60
        E 240 80 4c 00
        <X 120 0
          /wVJ
        >
        E 0 90 4d 60
        E 270 80 4d 00
        <X 90 0
          /wVyZS0=
        >
        E 0 90 4c 60
        E 240 80 4c 00
        <X 240 0
          /wVtZW0t
        >
        E 0 90 4a 60
        E 810 80 4a 00
        <X 150 0
          /wViZXI=
        >
        E 0 90 48 60
        E 540 80 48 00
        E 180 80 69 00
        E 0 90 69 60
        <X 480 0
          /wVQYWludA==
        >
        E 0 90 4d 60
        E 630 80 4d 00
        <X 120 0
          /wUr
        >
        E 0 90 48 60
        E 60 80 48 00
        <X 150 0
          /wVpdA==
        >
        E 0 90 48 60
        E 120 80 48 00
        <X 120 0
          /wVvLQ==
        >
        E 0 90 4a 60
        E 60 80 4a 00
        <X 60 0
          /wUr
        >
        E 0 90 4c 60
        E 270 80 4c 00
        <X 90 0
          /wV2ZXI=
        >
        E 0 90 4a 60
        E 780 80 4a 00
        <X 420 0
          /wFbaWRsZV0=
        >
        E 0 80 69 00
        <X 23520 0
          /wFbaWRsZV9pbnRlbnNlXQ==
        >
        <X 17760 0
          /wFbaW50ZW5zZV0=
        >
        <X 0 0
          /wFbdGFtYm91cmluZV9zdGFydF0=
        >
        E 0 90 69 60
        E 480 90 60 60
        E 120 80 60 00
        E 0 90 61 60
        E 120 80 61 00
        E 0 90 61 60
        E 120 80 61 00
        E 0 90 61 60
        E 120 80 61 00
        E 0 90 60 60
        E 120 80 60 00
        E 0 90 61 60
        E 120 80 61 00
        E 0 90 61 60
        E 120 80 61 00
        E 0 90 61 60
        E 120 80 61 00
        E 0 90 60 60
        E 120 80 60 00
        E 0 90 61 60
        E 120 80 61 00
        E 0 90 61 60
        E 120 80 61 00
        E 0 90 61 60
        E 120 80 61 00
        E 0 90 60 60
        E 120 80 60 00
        E 0 90 61 60
        E 120 80 61 00
        E 0 90 61 60
        E 120 80 61 00
        E 0 90 61 60
        E 120 80 61 00
        E 0 90 60 60
        E 120 80 60 00
        E 0 90 61 60
        E 120 80 61 00
        E 0 90 61 60
        E 120 80 61 00
        E 0 90 61 60
        E 120 80 61 00
        E 0 90 60 60
        E 120 80 60 00
        E 0 90 61 60
        E 120 80 61 00
        E 0 90 61 60
        E 120 80 61 00
        E 0 90 61 60
        E 120 80 61 00
        E 0 90 60 60
        E 120 80 60 00
        E 0 90 61 60
        E 120 80 61 00
        E 0 90 61 60
        E 120 80 61 00
        E 0 90 61 60
        E 120 80 61 00
        E 0 90 60 60
        E 120 80 60 00
        E 0 90 61 60
        E 120 80 61 00
        E 0 90 61 60
        E 120 80 61 00
        E 0 90 61 60
        E 120 80 61 00
        E 0 90 60 60
        E 120 80 60 00
        E 0 90 61 60
        E 120 80 61 00
        E 0 90 61 60
        E 120 80 61 00
        E 0 90 61 60
        E 120 80 61 00
        E 0 90 60 60
        E 120 80 60 00
        E 0 90 61 60
        E 120 80 61 00
        E 0 90 61 60
        E 120 80 61 00
        E 0 90 61 60
        E 120 80 61 00
        E 0 90 60 60
        E 120 80 60 00
        E 0 90 61 60
        E 120 80 61 00
        E 0 90 61 60
        E 120 80 61 00
        E 0 90 61 60
        E 120 80 61 00
        E 0 90 60 60
        E 120 80 60 00
        E 0 90 61 60
        E 120 80 61 00
        E 0 90 61 60
        E 120 80 61 00
        E 0 90 61 60
        E 120 80 61 00
        E 0 90 60 60
        E 120 80 60 00
        E 0 90 61 60
        E 120 80 61 00
        E 0 90 61 60
        E 120 80 61 00
        E 0 90 61 60
        E 120 80 61 00
        E 0 90 60 60
        E 120 80 60 00
        E 0 90 61 60
        E 120 80 61 00
        E 0 90 61 60
        E 120 80 61 00
        E 0 90 61 60
        E 120 80 61 00
        E 0 90 60 60
        E 120 80 60 00
        E 0 90 61 60
        E 120 80 61 00
        E 0 90 61 60
        E 120 80 61 00
        E 0 90 61 60
        E 120 80 61 00
        E 0 90 60 60
        E 120 80 60 00
        E 0 90 61 60
        E 120 80 61 00
        E 0 90 61 60
        E 120 80 61 00
        E 0 90 61 60
        E 120 80 61 00
        E 0 90 60 60
        E 120 80 60 00
        E 0 90 61 60
        E 120 80 61 00
        E 0 90 61 60
        E 120 80 61 00
        E 0 90 61 60
        E 120 80 61 00
        E 0 90 60 60
        E 120 80 60 00
        E 0 90 61 60
        E 120 80 61 00
        E 0 90 61 60
        E 120 80 61 00
        E 0 90 61 60
        E 120 80 61 00
        E 0 90 60 60
        E 120 80 60 00
        E 0 90 61 60
        E 120 80 61 00
        E 0 90 61 60
        E 120 80 61 00
        E 0 90 61 60
        E 120 80 61 00
        E 0 90 60 60
        E 120 80 60 00
        E 0 90 61 60
        E 120 80 61 00
        E 0 90 61 60
        E 120 80 61 00
        E 0 90 61 60
        E 120 80 61 00
        E 0 90 60 60
        E 120 80 60 00
        E 0 90 61 60
        E 120 80 61 00
        E 0 90 61 60
        E 120 80 61 00
        E 0 90 61 60
        E 120 80 61 00
        E 0 90 60 60
        E 120 80 60 00
        E 0 90 61 60
        E 120 80 61 00
        E 0 90 61 60
        E 120 80 61 00
        E 0 90 61 60
        E 120 80 61 00
        E 0 90 60 60
        E 120 80 60 00
        E 0 90 61 60
        E 120 80 61 00
        E 0 90 61 60
        E 120 80 61 00
        E 0 90 61 60
        E 120 80 61 00
        E 0 90 60 60
        E 120 80 60 00
        E 0 90 61 60
        E 120 80 61 00
        E 0 90 61 60
        E 120 80 61 00
        E 0 90 61 60
        E 120 80 61 00
        E 0 90 60 60
        E 120 80 60 00
        E 0 90 61 60
        E 120 80 61 00
        E 0 90 61 60
        E 120 80 61 00
        E 0 90 61 60
        E 120 80 61 00
        E 0 90 60 60
        E 120 80 60 00
        E 0 90 61 60
        E 120 80 61 00
        E 0 90 61 60
        E 120 80 61 00
        E 0 90 61 60
        E 120 80 61 00
        E 0 90 60 60
        E 120 80 60 00
        E 0 90 61 60
        E 120 80 61 00
        E 0 90 61 60
        E 120 80 61 00
        E 0 90 61 60
        E 120 80 61 00
        E 0 90 60 60
        E 120 80 60 00
        E 0 90 61 60
        E 120 80 61 00
        E 0 90 61 60
        E 120 80 61 00
        E 0 90 61 60
        E 120 80 61 00
        E 0 90 60 60
        E 120 80 60 00
        E 0 90 61 60
        E 120 80 61 00
        E 0 90 61 60
        E 120 80 61 00
        E 0 90 61 60
        E 120 80 61 00
        E 0 90 60 60
        E 120 80 60 00
        E 0 90 61 60
        E 120 80 61 00
        E 0 90 61 60
        E 120 80 61 00
        E 0 90 61 60
        E 120 80 61 00
        E 0 90 60 60
        E 120 80 60 00
        E 0 90 61 60
        E 120 80 61 00
        E 0 90 61 60
        E 120 80 61 00
        E 0 90 61 60
        E 120 80 61 00
        E 0 90 60 60
        E 120 80 60 00
        E 0 90 61 60
        E 120 80 61 00
        E 0 90 61 60
        E 120 80 61 00
        E 0 90 61 60
        E 120 80 61 00
        E 0 90 60 60
        E 120 80 60 00
        E 0 90 61 60
        E 120 80 61 00
        E 0 90 61 60
        E 120 80 61 00
        E 0 90 61 60
        E 120 80 61 00
        E 0 90 60 60
        E 120 80 60 00
        E 0 90 61 60
        E 120 80 61 00
        E 0 90 61 60
        E 120 80 61 00
        E 0 90 61 60
        <X 120 0
          /wFbdGFtYm91cmluZV9lbmRd
        >
        E 0 80 69 00
        E 0 80 61 00
        <X 1919 0
          /wFbaWRsZV9yZWFsdGltZV0=
        >
        E 3841 b0 7b 00
        GUID {8026CBF1-DE8A-4422-9211-56EC56720503}
        IGNTEMPO 0 120.00000000 4 4
        SRCCOLOR 6
        VELLANE 132 71 60
        COLORMAP "C:\Program Files\REAPER (x64)\Data\color_maps\rockband_guitarbass.png"
        CFGEDITVIEW 0.000000 4.885714 0 12 0 0 0
        CFGEDIT 1 1 0 1 1 0 1 1 1 1 1 0.25000000 100 100 1200 800 0 2 2 1 0.00000000 0 1 1 0 0.500000 0 0 1.000000 64
        KEYSNAP 0 6 "102030050700" 0 "Pentatonic"
        EVTFILTER 0 -1 -1 -1 -1 0 1 0 0 -1.00000000 -1.00000000
      >
    >
  >
  <TRACK '{259F5FCA-F576-4704-A711-F1C9144E32A7}'
    NAME "PART KEYS"
    PEAKCOL 16576
    BEAT -1
    AUTOMODE 0
    VOLPAN 1.00000000000000 0.00000000000000 -1.00000000000000 -1.00000000000000 1.00000000000000
    MUTESOLO 0 0 0
    IPHASE 0
    ISBUS 1 1
    BUSCOMP 0 0
    SHOWINMIX 1 0.666700 0.500000 1 0.500000 -1 -1 -1
    FREEMODE 0
    SEL 0
    REC 0 0 0 0 0 0 0
    VU 2
    TRACKHEIGHT 0 0
    INQ 0 0 0 0.5000000000 100 0 0 100
    NCHAN 2
    FX 1
    TRACKID {259F5FCA-F576-4704-A711-F1C9144E32A7}
    PERF 0
    MIDIOUT -1
    <MIDINOTENAMES
      0 127 "TRILL MARKER"
      0 125 "---"
      0 124 "BRE"
      0 123 "BRE"
      0 122 "BRE"
      0 121 "BRE"
      0 120 "BRE (use all 5)"
      0 119 "----"
      0 116 "OVERDRIVE"
      0 115 "----"
      0 103 "Solo Marker"
      0 102 "Force HOPO Off"
      0 101 "Force HOPO On"
      0 100 "EXPERT Orange"
      0 99 "EXPERT Blue"
      0 98 "EXPERT Yellow"
      0 97 "EXPERT Red"
      0 96 "EXPERT Green"
      0 95 "----"
      0 90 "Force HOPO Off"
      0 89 "Force HOPO On"
      0 88 "HARD Orange"
      0 87 "HARD Blue"
      0 86 "HARD Yellow"
      0 85 "HARD Red"
      0 84 "HARD Green"
      0 77 "----"
      0 76 "MEDIUM Orange"
      0 75 "MEDIUM Blue"
      0 74 "MEDIUM Yellow"
      0 73 "MEDIUM Red"
      0 72 "MEDIUM Green"
      0 65 "----"
      0 64 "EASY Orange"
      0 63 "EASY Blue"
      0 62 "EASY Yellow"
      0 61 "EASY Red"
      0 60 "EASY Green"
    >
    MAINSEND 1 0
    <FXCHAIN
      WNDRECT 0 43 891 559
      SHOW 0
      LASTSEL 0
      DOCKED 0
      BYPASS 0 0
      <VST "VSTi: RBN Preview (RBN)" "rbprev_vst64.dll" 0 ""
        dnBicu5e7f4AAAAAAgAAAAEAAAAAAAAAAgAAAAAAAAAEAAAAAQAAAA==
        AAAQAAMAqgAAABAAAAA=
      >
      FLOATPOS 0 0 0 0
      FXID {C089781E-426B-4FB7-B7BC-8FE3602D739D}
      WAK 0
    >
    <ITEM
      POSITION 0.00000000000000
      SNAPOFFS 0.00000000000000
      LENGTH 144.00000000000000
      LOOP 0
      ALLTAKES 0
      SEL 0
      FADEIN 1 0.000000 0.000000 1 0
      FADEOUT 1 0.000000 0.000000 1 0
      MUTE 0
      IGUID {A0B9DB1E-585B-473B-A521-DBDDD52DF362}
      IID 7
      NAME "PART KEYS"
      VOLPAN 1.000000 0.000000 1.000000 -1.000000
      SOFFS 0.00000000000000 0.00000000000000
      PLAYRATE 1.00000000000000 1 0.00000000000000 -1
      CHANMODE 0
      GUID {9E494515-8B3D-42BB-82E6-8A6AD04D4C10}
      <SOURCE MIDI
        HASDATA 1 480 QN
        POOLEDEVTS {EB28AE08-F987-45CB-B8EC-A9C5867C6D74}
        <X 0 0
          /wNQQVJUIEtFWVM=
        >
        <X 3840 0
          /wFbaWRsZV0=
        >
        <X 32520 0
          /wFbcGxheV0=
        >
        E 120 90 3e 60
        E 0 90 4b 60
        E 0 90 58 60
        E 0 90 64 60
        E 0 90 74 60
        E 120 80 3e 00
        E 0 80 4b 00
        E 0 80 58 00
        E 0 80 64 00
        E 120 90 4b 60
        E 0 90 58 60
        E 0 90 64 60
        E 120 80 4b 00
        E 0 80 58 00
        E 0 80 64 00
        E 120 90 3e 60
        E 0 90 4b 60
        E 0 90 57 60
        E 0 90 63 60
        E 120 80 3e 00
        E 0 80 4b 00
        E 0 80 57 00
        E 0 80 63 00
        E 120 90 56 60
        E 0 90 62 60
        E 120 80 56 00
        E 0 80 62 00
        E 120 90 3e 60
        E 0 90 4b 60
        E 0 90 57 60
        E 0 90 63 60
        E 120 80 3e 00
        E 0 80 4b 00
        E 0 80 57 00
        E 0 80 63 00
        E 120 90 57 60
        E 0 90 63 60
        E 120 80 57 00
        E 0 80 63 00
        E 120 90 4a 60
        E 0 90 56 60
        E 0 90 62 60
        E 120 80 4a 00
        E 0 80 56 00
        E 0 80 62 00
        E 120 90 55 60
        E 0 90 61 60
        E 120 80 55 00
        E 0 80 61 00
        E 120 90 3d 60
        E 0 90 4a 60
        E 0 90 56 60
        E 0 90 62 60
        E 120 80 3d 00
        E 0 80 4a 00
        E 0 80 56 00
        E 0 80 62 00
        E 120 90 56 60
        E 0 90 62 60
        E 120 80 56 00
        E 0 80 62 00
        E 120 90 49 60
        E 0 90 55 60
        E 0 90 61 60
        E 120 80 49 00
        E 0 80 55 00
        E 0 80 61 00
        E 120 90 54 60
        E 0 90 60 60
        E 840 80 54 00
        E 0 80 60 00
        E 120 90 3e 60
        E 0 90 4b 60
        E 0 90 58 60
        E 0 90 64 60
        E 120 80 3e 00
        E 0 80 4b 00
        E 0 80 58 00
        E 0 80 64 00
        E 120 80 74 00
        E 240 90 4b 60
        E 0 90 58 60
        E 0 90 64 60
        E 120 80 4b 00
        E 0 80 58 00
        E 0 80 64 00
        E 120 90 3e 60
        E 0 90 4b 60
        E 0 90 57 60
        E 0 90 63 60
        E 120 80 3e 00
        E 0 80 4b 00
        E 0 80 57 00
        E 0 80 63 00
        E 120 90 56 60
        E 0 90 62 60
        E 120 80 56 00
        E 0 80 62 00
        E 120 90 3e 60
        E 0 90 4b 60
        E 0 90 57 60
        E 0 90 63 60
        E 120 80 3e 00
        E 0 80 4b 00
        E 0 80 57 00
        E 0 80 63 00
        E 120 90 57 60
        E 0 90 63 60
        E 120 80 57 00
        E 0 80 63 00
        E 120 90 4a 60
        E 0 90 56 60
        E 0 90 62 60
        E 120 80 4a 00
        E 0 80 56 00
        E 0 80 62 00
        E 120 90 55 60
        E 0 90 61 60
        E 120 80 55 00
        E 0 80 61 00
        E 120 90 3d 60
        E 0 90 4a 60
        E 0 90 56 60
        E 0 90 62 60
        E 120 80 3d 00
        E 0 80 4a 00
        E 0 80 56 00
        E 0 80 62 00
        E 120 90 56 60
        E 0 90 62 60
        E 120 80 56 00
        E 0 80 62 00
        E 120 90 49 60
        E 0 90 55 60
        E 0 90 61 60
        E 120 80 49 00
        E 0 80 55 00
        E 0 80 61 00
        E 120 90 54 60
        E 0 90 60 60
        E 1080 80 54 00
        E 0 80 60 00
        E 120 90 3e 60
        E 0 90 4b 60
        E 0 90 58 60
        E 0 90 64 60
        E 120 80 3e 00
        E 0 80 4b 00
        E 0 80 58 00
        E 0 80 64 00
        E 120 90 4b 60
        E 0 90 58 60
        E 0 90 64 60
        E 120 80 4b 00
        E 0 80 58 00
        E 0 80 64 00
        E 120 90 3e 60
        E 0 90 4b 60
        E 0 90 57 60
        E 0 90 63 60
        E 120 80 3e 00
        E 0 80 4b 00
        E 0 80 57 00
        E 0 80 63 00
        E 120 90 56 60
        E 0 90 62 60
        E 120 80 56 00
        E 0 80 62 00
        E 120 90 3e 60
        E 0 90 4b 60
        E 0 90 57 60
        E 0 90 63 60
        E 120 80 3e 00
        E 0 80 4b 00
        E 0 80 57 00
        E 0 80 63 00
        E 120 90 57 60
        E 0 90 63 60
        E 120 80 57 00
        E 0 80 63 00
        E 120 90 49 60
        E 0 90 55 60
        E 0 90 61 60
        E 120 80 49 00
        E 0 80 55 00
        E 0 80 61 00
        E 120 90 54 60
        E 0 90 60 60
        E 120 80 54 00
        E 0 80 60 00
        E 120 90 3d 60
        E 0 90 4a 60
        E 0 90 56 60
        E 0 90 62 60
        E 120 80 3d 00
        E 0 80 4a 00
        E 0 80 56 00
        E 0 80 62 00
        E 120 90 56 60
        E 0 90 62 60
        E 120 80 56 00
        E 0 80 62 00
        E 120 90 49 60
        E 0 90 55 60
        E 0 90 61 60
        E 120 80 49 00
        E 0 80 55 00
        E 0 80 61 00
        E 120 90 54 60
        E 0 90 60 60
        E 1080 80 54 00
        E 0 80 60 00
        <X 120 0
          /wFbaWRsZV0=
        >
        <X 34440 0
          /wFbcGxheV0=
        >
        E 120 90 3e 60
        E 0 90 4b 60
        E 0 90 58 60
        E 0 90 64 60
        E 120 80 3e 00
        E 0 80 4b 00
        E 0 80 58 00
        E 0 80 64 00
        E 120 90 4b 60
        E 0 90 58 60
        E 0 90 64 60
        E 120 80 4b 00
        E 0 80 58 00
        E 0 80 64 00
        E 120 90 3e 60
        E 0 90 4b 60
        E 0 90 57 60
        E 0 90 63 60
        E 120 80 3e 00
        E 0 80 4b 00
        E 0 80 57 00
        E 0 80 63 00
        E 120 90 56 60
        E 0 90 62 60
        E 120 80 56 00
        E 0 80 62 00
        E 120 90 3e 60
        E 0 90 4b 60
        E 0 90 57 60
        E 0 90 63 60
        E 120 80 3e 00
        E 0 80 4b 00
        E 0 80 57 00
        E 0 80 63 00
        E 120 90 57 60
        E 0 90 63 60
        E 120 80 57 00
        E 0 80 63 00
        E 120 90 4a 60
        E 0 90 56 60
        E 0 90 62 60
        E 120 80 4a 00
        E 0 80 56 00
        E 0 80 62 00
        E 120 90 55 60
        E 0 90 61 60
        E 120 80 55 00
        E 0 80 61 00
        E 120 90 3d 60
        E 0 90 4a 60
        E 0 90 56 60
        E 0 90 62 60
        E 120 80 3d 00
        E 0 80 4a 00
        E 0 80 56 00
        E 0 80 62 00
        E 120 90 56 60
        E 0 90 62 60
        E 120 80 56 00
        E 0 80 62 00
        E 120 90 49 60
        E 0 90 55 60
        E 0 90 61 60
        E 120 80 49 00
        E 0 80 55 00
        E 0 80 61 00
        E 120 90 54 60
        E 0 90 60 60
        E 840 80 54 00
        E 0 80 60 00
        E 120 90 3e 60
        E 0 90 4b 60
        E 0 90 58 60
        E 0 90 64 60
        E 120 80 3e 00
        E 0 80 4b 00
        E 0 80 58 00
        E 0 80 64 00
        E 120 90 74 60
        E 240 90 4b 60
        E 0 90 58 60
        E 0 90 64 60
        E 120 80 4b 00
        E 0 80 58 00
        E 0 80 64 00
        E 120 90 3e 60
        E 0 90 4b 60
        E 0 90 57 60
        E 0 90 63 60
        E 120 80 3e 00
        E 0 80 4b 00
        E 0 80 57 00
        E 0 80 63 00
        E 120 90 56 60
        E 0 90 62 60
        E 120 80 56 00
        E 0 80 62 00
        E 120 90 3e 60
        E 0 90 4b 60
        E 0 90 57 60
        E 0 90 63 60
        E 120 80 3e 00
        E 0 80 4b 00
        E 0 80 57 00
        E 0 80 63 00
        E 120 90 57 60
        E 0 90 63 60
        E 120 80 57 00
        E 0 80 63 00
        E 120 90 4a 60
        E 0 90 56 60
        E 0 90 62 60
        E 120 80 4a 00
        E 0 80 56 00
        E 0 80 62 00
        E 120 90 55 60
        E 0 90 61 60
        E 120 80 55 00
        E 0 80 61 00
        E 120 90 3d 60
        E 0 90 4a 60
        E 0 90 56 60
        E 0 90 62 60
        E 120 80 3d 00
        E 0 80 4a 00
        E 0 80 56 00
        E 0 80 62 00
        E 120 90 56 60
        E 0 90 62 60
        E 120 80 56 00
        E 0 80 62 00
        E 120 90 49 60
        E 0 90 55 60
        E 0 90 61 60
        E 120 80 49 00
        E 0 80 55 00
        E 0 80 61 00
        E 120 90 54 60
        E 0 90 60 60
        E 1080 80 54 00
        E 0 80 60 00
        E 120 90 3e 60
        E 0 90 4b 60
        E 0 90 58 60
        E 0 90 64 60
        E 120 80 74 00
        E 0 80 3e 00
        E 0 80 4b 00
        E 0 80 58 00
        E 0 80 64 00
        E 120 90 4b 60
        E 0 90 58 60
        E 0 90 64 60
        E 120 80 4b 00
        E 0 80 58 00
        E 0 80 64 00
        E 120 90 3e 60
        E 0 90 4b 60
        E 0 90 57 60
        E 0 90 63 60
        E 120 80 3e 00
        E 0 80 4b 00
        E 0 80 57 00
        E 0 80 63 00
        E 120 90 56 60
        E 0 90 62 60
        E 120 80 56 00
        E 0 80 62 00
        E 120 90 3e 60
        E 0 90 4b 60
        E 0 90 57 60
        E 0 90 63 60
        E 120 80 3e 00
        E 0 80 4b 00
        E 0 80 57 00
        E 0 80 63 00
        E 120 90 57 60
        E 0 90 63 60
        E 120 80 57 00
        E 0 80 63 00
        E 120 90 49 60
        E 0 90 55 60
        E 0 90 61 60
        E 120 80 49 00
        E 0 80 55 00
        E 0 80 61 00
        E 120 90 54 60
        E 0 90 60 60
        E 120 80 54 00
        E 0 80 60 00
        E 120 90 3d 60
        E 0 90 4a 60
        E 0 90 56 60
        E 0 90 62 60
        E 120 80 3d 00
        E 0 80 4a 00
        E 0 80 56 00
        E 0 80 62 00
        E 120 90 56 60
        E 0 90 62 60
        E 120 80 56 00
        E 0 80 62 00
        E 120 90 49 60
        E 0 90 55 60
        E 0 90 61 60
        E 120 80 49 00
        E 0 80 55 00
        E 0 80 61 00
        E 120 90 54 60
        E 0 90 60 60
        E 840 80 54 00
        E 0 80 60 00
        E 120 90 3e 60
        E 0 90 4b 60
        E 0 90 58 60
        E 0 90 64 60
        E 120 80 3e 00
        E 0 80 4b 00
        E 0 80 58 00
        E 0 80 64 00
        E 360 90 4b 60
        E 0 90 58 60
        E 0 90 64 60
        E 120 80 4b 00
        E 0 80 58 00
        E 0 80 64 00
        E 120 90 3e 60
        E 0 90 4b 60
        E 0 90 57 60
        E 0 90 63 60
        E 120 80 3e 00
        E 0 80 4b 00
        E 0 80 57 00
        E 0 80 63 00
        E 120 90 56 60
        E 0 90 62 60
        E 120 80 56 00
        E 0 80 62 00
        E 120 90 3e 60
        E 0 90 4b 60
        E 0 90 57 60
        E 0 90 63 60
        E 120 80 3e 00
        E 0 80 4b 00
        E 0 80 57 00
        E 0 80 63 00
        E 120 90 57 60
        E 0 90 63 60
        E 120 80 57 00
        E 0 80 63 00
        E 120 90 4a 60
        E 0 90 56 60
        E 0 90 62 60
        E 120 80 4a 00
        E 0 80 56 00
        E 0 80 62 00
        E 120 90 55 60
        E 0 90 61 60
        E 120 80 55 00
        E 0 80 61 00
        E 120 90 3d 60
        E 0 90 4a 60
        E 0 90 56 60
        E 0 90 62 60
        E 120 80 3d 00
        E 0 80 4a 00
        E 0 80 56 00
        E 0 80 62 00
        E 120 90 56 60
        E 0 90 62 60
        E 120 80 56 00
        E 0 80 62 00
        E 120 90 49 60
        E 0 90 55 60
        E 0 90 61 60
        E 120 80 49 00
        E 0 80 55 00
        E 0 80 61 00
        E 120 90 54 60
        E 0 90 60 60
        E 1080 80 54 00
        E 0 80 60 00
        <X 120 0
          /wFbaWRsZV9pbnRlbnNlXQ==
        >
        <X 19080 0
          /wFbaW50ZW5zZV0=
        >
        E 120 90 3e 60
        E 0 90 4b 60
        E 0 90 58 60
        E 0 90 64 60
        E 120 80 3e 00
        E 0 80 4b 00
        E 0 80 58 00
        E 0 80 64 00
        E 120 90 4b 60
        E 0 90 58 60
        E 0 90 64 60
        E 120 80 4b 00
        E 0 80 58 00
        E 0 80 64 00
        E 120 90 3e 60
        E 0 90 4b 60
        E 0 90 57 60
        E 0 90 63 60
        E 120 80 3e 00
        E 0 80 4b 00
        E 0 80 57 00
        E 0 80 63 00
        E 120 90 56 60
        E 0 90 62 60
        E 120 80 56 00
        E 0 80 62 00
        E 120 90 3e 60
        E 0 90 4b 60
        E 0 90 57 60
        E 0 90 63 60
        E 120 80 3e 00
        E 0 80 4b 00
        E 0 80 57 00
        E 0 80 63 00
        E 120 90 57 60
        E 0 90 63 60
        E 120 80 57 00
        E 0 80 63 00
        E 120 90 49 60
        E 0 90 55 60
        E 0 90 61 60
        E 120 80 49 00
        E 0 80 55 00
        E 0 80 61 00
        E 120 90 54 60
        E 0 90 60 60
        E 120 80 54 00
        E 0 80 60 00
        E 120 90 3d 60
        E 0 90 4a 60
        E 0 90 56 60
        E 0 90 62 60
        E 120 80 3d 00
        E 0 80 4a 00
        E 0 80 56 00
        E 0 80 62 00
        E 120 90 56 60
        E 0 90 62 60
        E 120 80 56 00
        E 0 80 62 00
        E 120 90 49 60
        E 0 90 55 60
        E 0 90 61 60
        E 120 80 49 00
        E 0 80 55 00
        E 0 80 61 00
        E 120 90 54 60
        E 0 90 60 60
        E 840 80 54 00
        E 0 80 60 00
        E 120 90 3e 60
        E 0 90 4b 60
        E 0 90 58 60
        E 0 90 64 60
        E 120 80 3e 00
        E 0 80 4b 00
        E 0 80 58 00
        E 0 80 64 00
        E 120 90 74 60
        E 240 90 4b 60
        E 0 90 58 60
        E 0 90 64 60
        E 120 80 4b 00
        E 0 80 58 00
        E 0 80 64 00
        E 120 90 3e 60
        E 0 90 4b 60
        E 0 90 57 60
        E 0 90 63 60
        E 120 80 3e 00
        E 0 80 4b 00
        E 0 80 57 00
        E 0 80 63 00
        E 120 90 56 60
        E 0 90 62 60
        E 120 80 56 00
        E 0 80 62 00
        E 120 90 3e 60
        E 0 90 4b 60
        E 0 90 57 60
        E 0 90 63 60
        E 120 80 3e 00
        E 0 80 4b 00
        E 0 80 57 00
        E 0 80 63 00
        E 120 90 57 60
        E 0 90 63 60
        E 120 80 57 00
        E 0 80 63 00
        E 120 90 49 60
        E 0 90 55 60
        E 0 90 61 60
        E 120 80 49 00
        E 0 80 55 00
        E 0 80 61 00
        E 120 90 54 60
        E 0 90 60 60
        E 120 80 54 00
        E 0 80 60 00
        E 120 90 3d 60
        E 0 90 4a 60
        E 0 90 56 60
        E 0 90 62 60
        E 120 80 74 00
        E 0 80 3d 00
        E 0 80 4a 00
        E 0 80 56 00
        E 0 80 62 00
        E 120 90 56 60
        E 0 90 62 60
        E 120 80 56 00
        E 0 80 62 00
        E 120 90 49 60
        E 0 90 55 60
        E 0 90 61 60
        E 120 80 49 00
        E 0 80 55 00
        E 0 80 61 00
        E 120 90 54 60
        E 0 90 60 60
        E 1080 80 54 00
        E 0 80 60 00
        E 120 90 3e 60
        E 0 90 4b 60
        E 0 90 58 60
        E 0 90 64 60
        E 120 80 3e 00
        E 0 80 4b 00
        E 0 80 58 00
        E 0 80 64 00
        E 120 90 4b 60
        E 0 90 58 60
        E 0 90 64 60
        E 120 80 4b 00
        E 0 80 58 00
        E 0 80 64 00
        E 120 90 3e 60
        E 0 90 4b 60
        E 0 90 57 60
        E 0 90 63 60
        E 120 80 3e 00
        E 0 80 4b 00
        E 0 80 57 00
        E 0 80 63 00
        E 120 90 56 60
        E 0 90 62 60
        E 120 80 56 00
        E 0 80 62 00
        E 120 90 3e 60
        E 0 90 4b 60
        E 0 90 57 60
        E 0 90 63 60
        E 120 80 3e 00
        E 0 80 4b 00
        E 0 80 57 00
        E 0 80 63 00
        E 120 90 57 60
        E 0 90 63 60
        E 120 80 57 00
        E 0 80 63 00
        E 120 90 4a 60
        E 0 90 56 60
        E 0 90 62 60
        E 120 80 4a 00
        E 0 80 56 00
        E 0 80 62 00
        E 120 90 55 60
        E 0 90 61 60
        E 120 80 55 00
        E 0 80 61 00
        E 120 90 3d 60
        E 0 90 4a 60
        E 0 90 56 60
        E 0 90 62 60
        E 120 80 3d 00
        E 0 80 4a 00
        E 0 80 56 00
        E 0 80 62 00
        E 120 90 56 60
        E 0 90 62 60
        E 120 80 56 00
        E 0 80 62 00
        E 120 90 49 60
        E 0 90 55 60
        E 0 90 61 60
        E 120 80 49 00
        E 0 80 55 00
        E 0 80 61 00
        E 120 90 54 60
        E 0 90 60 60
        E 840 80 54 00
        E 0 80 60 00
        E 120 90 3e 60
        E 0 90 4b 60
        E 0 90 58 60
        E 0 90 64 60
        E 120 80 3e 00
        E 0 80 4b 00
        E 0 80 58 00
        E 0 80 64 00
        E 360 90 4b 60
        E 0 90 58 60
        E 0 90 64 60
        E 120 80 4b 00
        E 0 80 58 00
        E 0 80 64 00
        E 120 90 3e 60
        E 0 90 4b 60
        E 0 90 57 60
        E 0 90 63 60
        E 120 80 3e 00
        E 0 80 4b 00
        E 0 80 57 00
        E 0 80 63 00
        E 120 90 56 60
        E 0 90 62 60
        E 120 80 56 00
        E 0 80 62 00
        E 120 90 3e 60
        E 0 90 4b 60
        E 0 90 57 60
        E 0 90 63 60
        E 120 80 3e 00
        E 0 80 4b 00
        E 0 80 57 00
        E 0 80 63 00
        E 120 90 57 60
        E 0 90 63 60
        E 120 80 57 00
        E 0 80 63 00
        E 120 90 49 60
        E 0 90 55 60
        E 0 90 61 60
        E 120 80 49 00
        E 0 80 55 00
        E 0 80 61 00
        E 120 90 54 60
        E 0 90 60 60
        E 120 80 54 00
        E 0 80 60 00
        E 120 90 3d 60
        E 0 90 4a 60
        E 0 90 56 60
        E 0 90 62 60
        E 120 80 3d 00
        E 0 80 4a 00
        E 0 80 56 00
        E 0 80 62 00
        E 120 90 56 60
        E 0 90 62 60
        E 120 80 56 00
        E 0 80 62 00
        E 120 90 49 60
        E 0 90 55 60
        E 0 90 61 60
        E 120 80 49 00
        E 0 80 55 00
        E 0 80 61 00
        E 120 90 54 60
        E 0 90 60 60
        <X 2159 0
          /wFbaWRsZV9yZWFsdGltZV0=
        >
        E 0 80 54 00
        E 0 80 60 00
        E 4801 b0 7b 00
        GUID {66E9033A-F6B6-44C6-A1F8-6A3BCB7FE5FE}
        IGNTEMPO 0 120.00000000 4 4
        SRCCOLOR 7
        VELLANE 132 71 60
        COLORMAP "C:\Program Files\REAPER (x64)\Data\color_maps\rockband_guitarbass.png"
        CFGEDITVIEW 0.000000 4.920863 0 16 0 0 0
        CFGEDIT 1 1 0 1 1 0 1 1 1 1 1 0.25000000 100 100 1200 800 0 2 2 1 0.00000000 0 1 1 0 0.500000 0 0 1.000000 64
        KEYSNAP 0 6 "102030050700" 0 "Pentatonic"
        EVTFILTER 0 -1 -1 -1 -1 0 1 0 0 -1.00000000 -1.00000000
      >
    >
  >
  <TRACK '{6C7257A2-1901-4F97-B179-F7A4258AF78D}'
    NAME "PART REAL_KEYS_X"
    PEAKCOL 16576
    BEAT -1
    AUTOMODE 0
    VOLPAN 1.00000000000000 0.00000000000000 -1.00000000000000 -1.00000000000000 1.00000000000000
    MUTESOLO 0 0 0
    IPHASE 0
    ISBUS 0 0
    BUSCOMP 0 0
    SHOWINMIX 1 0.666700 0.500000 1 0.500000 -1 -1 -1
    FREEMODE 0
    SEL 0
    REC 0 0 0 0 0 0 0
    VU 2
    TRACKHEIGHT 0 0
    INQ 0 0 0 0.5000000000 100 0 0 100
    NCHAN 2
    FX 0
    TRACKID {6C7257A2-1901-4F97-B179-F7A4258AF78D}
    PERF 0
    MIDIOUT -1
    <MIDINOTENAMES
      0 127 "TRILL MARKER"
      0 126 "GLISSANDO MARKER"
      0 125 "---"
      0 116 "OVERDRIVE"
      0 115 "SOLO"
      0 114 "---"
      0 72 "Highest playable note B#3"
      0 71 "B3"
      0 70 "A#3"
      0 69 "A3"
      0 68 "G#3"
      0 67 "G3"
      0 66 "F#3"
      0 65 "F3"
      0 64 "E3"
      0 63 "D#3"
      0 62 "D3"
      0 61 "C#3"
      0 60 "C3"
      0 59 "B2"
      0 58 "A#2"
      0 57 "A2"
      0 56 "G#2"
      0 55 "G2"
      0 54 "F#2"
      0 53 "F2"
      0 52 "E2"
      0 51 "D#2"
      0 50 "D2"
      0 49 "C#2"
      0 48 "Lowest playable note C2"
      0 10 "---"
      0 9 "Range A2-C4"
      0 8 "Range"
      0 7 "Range"
      0 6 "Range"
      0 5 "Range F2-A3"
      0 4 "Range"
      0 3 "Range"
      0 2 "Range"
      0 1 "Range"
      0 0 "Range C2-E3"
    >
    MAINSEND 1 0
    <FXCHAIN
      WNDRECT 0 43 655 467
      SHOW 0
      LASTSEL 1
      DOCKED 0
      BYPASS 0 0
      <JS "MIDI/midi_note_filter" ""
        48.000000 72.000000 - - - - - - - - - - - - - - - - - - - - - - - - - - - - - - - - - - - - - - - - - - - - - - - - - - - - - - - - - - - - - - 
      >
      FLOATPOS 0 0 0 0
      FXID {36C2D72E-86D4-48B2-9A2D-2552C674D9B1}
      WAK 0
      BYPASS 0 0
      <VST "VSTi: ReaSynth (Cockos)" "reasynth.dll" 0 ""
        eXNlcu9e7f4AAAAAAgAAAAEAAAAAAAAAAgAAAAAAAAA4AAAAAAAAAA==
        AAAQAO++rd4N8K3eppvEOxe30ToAAIA/AAAAAAAAAADMm4A+6WeIPQ==
        AAAAAAAAAD8AAIA/AACAPwAAAD8AABAAAAA=
      >
      FLOATPOS 0 0 0 0
      FXID {6F8E8924-5ED7-4D5E-992D-73B3B0E1C79F}
      WAK 0
    >
    <ITEM
      POSITION 0.00000000000000
      SNAPOFFS 0.00000000000000
      LENGTH 144.00000000000000
      LOOP 0
      ALLTAKES 0
      SEL 0
      FADEIN 1 0.000000 0.000000 1 0
      FADEOUT 1 0.000000 0.000000 1 0
      MUTE 0
      IGUID {3CAF5D7F-294F-4BEB-AE27-5C2D90D69BEC}
      IID 8
      NAME "PART REAL_KEYS_X"
      VOLPAN 1.000000 0.000000 1.000000 -1.000000
      SOFFS 0.00000000000000 0.00000000000000
      PLAYRATE 1.00000000000000 1 0.00000000000000 -1
      CHANMODE 0
      GUID {62EF2FDF-0FBC-4448-9201-11CA3DA8DCE7}
      <SOURCE MIDI
        HASDATA 1 480 QN
        POOLEDEVTS {2FCBF7BD-C200-4D3A-B49C-D19099869A09}
        <X 0 0
          /wNQQVJUIFJFQUxfS0VZU19Y
        >
        E 0 90 00 60
        E 120 80 00 00
        <X 36360 0
          /wFbYmVnaW5fa2V5IHNvbmdfdHJhaW5lcl9rZXlfMV0=
        >
        E 0 90 40 60
        E 0 90 74 60
        E 120 80 40 00
        E 120 90 40 60
        E 120 80 40 00
        E 120 90 3f 60
        E 120 80 3f 00
        E 120 90 3b 60
        E 120 80 3b 00
        E 120 90 3f 60
        E 120 80 3f 00
        E 120 90 3f 60
        E 120 80 3f 00
        E 120 90 3d 60
        E 120 80 3d 00
        E 120 90 38 60
        E 120 80 38 00
        E 120 90 3b 60
        E 120 80 3b 00
        E 120 90 3b 60
        E 120 80 3b 00
        E 120 90 39 60
        E 120 80 39 00
        E 120 90 34 60
        E 840 80 34 00
        E 120 90 40 60
        E 120 80 40 00
        E 120 80 74 00
        E 240 90 40 60
        E 120 80 40 00
        E 120 90 3f 60
        E 120 80 3f 00
        E 120 90 3b 60
        E 120 80 3b 00
        E 120 90 3f 60
        E 120 80 3f 00
        E 120 90 3f 60
        E 120 80 3f 00
        E 120 90 3d 60
        E 120 80 3d 00
        E 120 90 38 60
        E 120 80 38 00
        E 120 90 3b 60
        E 120 80 3b 00
        E 120 90 3b 60
        E 120 80 3b 00
        E 120 90 39 60
        E 120 80 39 00
        E 120 90 34 60
        E 1080 80 34 00
        E 120 90 40 60
        E 120 80 40 00
        E 120 90 40 60
        E 120 80 40 00
        E 120 90 3f 60
        E 120 80 3f 00
        E 120 90 3b 60
        E 120 80 3b 00
        E 120 90 3e 60
        E 120 80 3e 00
        E 120 90 3e 60
        E 120 80 3e 00
        E 120 90 3c 60
        E 120 80 3c 00
        E 120 90 37 60
        E 120 80 37 00
        E 120 90 3b 60
        E 120 80 3b 00
        E 120 90 3b 60
        E 120 80 3b 00
        E 120 90 39 60
        E 120 80 39 00
        E 120 90 34 60
        E 1080 80 34 00
        <X 120 0
          /wFbZW5kX2tleSBzb25nX3RyYWluZXJfa2V5XzFd
        >
        E 0 90 05 60
        E 120 80 05 00
        <X 34440 0
          /wFbYmVnaW5fa2V5IHNvbmdfdHJhaW5lcl9rZXlfMl0=
        >
        E 0 90 41 60
        E 120 80 41 00
        E 120 90 41 60
        E 120 80 41 00
        E 120 90 40 60
        E 120 80 40 00
        E 120 90 3c 60
        E 120 80 3c 00
        E 120 90 40 60
        E 120 80 40 00
        E 120 90 40 60
        E 120 80 40 00
        E 120 90 3e 60
        E 120 80 3e 00
        E 120 90 39 60
        E 120 80 39 00
        E 120 90 3c 60
        E 120 80 3c 00
        E 120 90 3c 60
        E 120 80 3c 00
        E 120 90 3a 60
        E 120 80 3a 00
        E 120 90 35 60
        E 840 80 35 00
        E 120 90 41 60
        E 120 80 41 00
        <X 120 0
          /wFba2V5X25vcm0gc29uZ190cmFpbmVyX2tleV8yXQ==
        >
        E 0 90 74 60
        E 240 90 41 60
        E 120 80 41 00
        E 120 90 40 60
        E 120 80 40 00
        E 120 90 3c 60
        E 120 80 3c 00
        E 120 90 40 60
        E 120 80 40 00
        E 120 90 40 60
        E 120 80 40 00
        E 120 90 3e 60
        E 120 80 3e 00
        E 120 90 39 60
        E 120 80 39 00
        E 120 90 3c 60
        E 120 80 3c 00
        E 120 90 3c 60
        E 120 80 3c 00
        E 120 90 3a 60
        E 120 80 3a 00
        E 120 90 35 60
        E 1080 80 35 00
        E 120 90 41 60
        E 120 80 41 00
        E 0 80 74 00
        E 120 90 41 60
        E 120 80 41 00
        E 120 90 40 60
        E 120 80 40 00
        E 120 90 3c 60
        E 120 80 3c 00
        E 120 90 3f 60
        E 120 80 3f 00
        E 120 90 3f 60
        E 120 80 3f 00
        E 120 90 3d 60
        E 120 80 3d 00
        E 120 90 38 60
        E 120 80 38 00
        E 120 90 3c 60
        E 120 80 3c 00
        E 120 90 3c 60
        E 120 80 3c 00
        E 120 90 3a 60
        E 120 80 3a 00
        E 120 90 35 60
        E 840 80 35 00
        E 120 90 41 60
        E 120 80 41 00
        E 360 90 41 60
        E 120 80 41 00
        E 120 90 40 60
        E 120 80 40 00
        E 120 90 3c 60
        E 120 80 3c 00
        E 120 90 40 60
        E 120 80 40 00
        E 120 90 40 60
        E 120 80 40 00
        E 120 90 3e 60
        E 120 80 3e 00
        E 120 90 39 60
        E 120 80 39 00
        E 120 90 3c 60
        E 120 80 3c 00
        E 120 90 3c 60
        E 120 80 3c 00
        E 120 90 3a 60
        E 120 80 3a 00
        E 120 90 35 60
        E 960 80 35 00
        <X 240 0
          /wFbZW5kX2tleSBzb25nX3RyYWluZXJfa2V5XzJd
        >
        E 19200 90 41 60
        E 120 80 41 00
        E 120 90 41 60
        E 120 80 41 00
        E 120 90 40 60
        E 120 80 40 00
        E 120 90 3c 60
        E 120 80 3c 00
        E 120 90 3f 60
        E 120 80 3f 00
        E 120 90 3f 60
        E 120 80 3f 00
        E 120 90 3d 60
        E 120 80 3d 00
        E 120 90 38 60
        E 120 80 38 00
        E 120 90 3c 60
        E 120 80 3c 00
        E 120 90 3c 60
        E 120 80 3c 00
        E 120 90 3a 60
        E 120 80 3a 00
        E 120 90 35 60
        E 840 80 35 00
        E 120 90 41 60
        E 240 90 74 60
        E 120 80 41 00
        E 120 90 41 60
        E 120 80 41 00
        E 120 90 40 60
        E 120 80 40 00
        E 120 90 3c 60
        E 120 80 3c 00
        E 120 90 3f 60
        E 120 80 3f 00
        E 120 90 3f 60
        E 120 80 3f 00
        E 120 90 3d 60
        E 120 80 3d 00
        E 120 90 38 60
        E 120 80 38 00
        E 120 90 3c 60
        E 120 80 3c 00
        E 0 80 74 00
        E 120 90 3c 60
        E 120 80 3c 00
        E 120 90 3a 60
        E 120 80 3a 00
        E 120 90 35 60
        E 1080 80 35 00
        E 120 90 41 60
        E 120 80 41 00
        E 120 90 41 60
        E 120 80 41 00
        E 120 90 40 60
        E 120 80 40 00
        E 120 90 3c 60
        E 120 80 3c 00
        E 120 90 40 60
        E 120 80 40 00
        E 120 90 40 60
        E 120 80 40 00
        E 120 90 3e 60
        E 120 80 3e 00
        E 120 90 39 60
        E 120 80 39 00
        E 120 90 3c 60
        E 120 80 3c 00
        E 120 90 3c 60
        E 120 80 3c 00
        E 120 90 3a 60
        E 120 80 3a 00
        E 120 90 35 60
        E 840 80 35 00
        E 120 90 41 60
        E 360 80 41 00
        E 120 90 41 60
        E 120 80 41 00
        E 120 90 40 60
        E 120 80 40 00
        E 120 90 3c 60
        E 120 80 3c 00
        E 120 90 3f 60
        E 120 80 3f 00
        E 120 90 3f 60
        E 120 80 3f 00
        E 120 90 3d 60
        E 120 80 3d 00
        E 120 90 38 60
        E 120 80 38 00
        E 120 90 3c 60
        E 120 80 3c 00
        E 120 90 3c 60
        E 120 80 3c 00
        E 120 90 3a 60
        E 120 80 3a 00
        E 120 90 35 60
        E 2159 80 35 00
        E 4801 b0 7b 00
        GUID {86EFDDD4-B9B8-4B09-98D9-D11CF03D1F19}
        IGNTEMPO 0 120.00000000 4 4
        SRCCOLOR 8
        VELLANE 132 71 60
        COLORMAP "C:\Program Files\REAPER (x64)\Data\color_maps\rockband_guitarbass.png"
        CFGEDITVIEW 0.000000 4.920863 0 14 0 0 0
        CFGEDIT 1 1 0 1 1 0 1 1 1 1 1 0.25000000 100 100 1200 800 0 2 2 1 0.00000000 0 1 1 0 0.500000 0 0 1.000000 64
        KEYSNAP 0 6 "102030050700" 0 "Pentatonic"
        EVTFILTER 0 -1 -1 -1 -1 0 1 0 0 -1.00000000 -1.00000000
      >
    >
  >
  <TRACK '{F3385A24-0B57-4619-BF11-AD272023C595}'
    NAME "PART REAL_KEYS_H"
    PEAKCOL 16576
    BEAT -1
    AUTOMODE 0
    VOLPAN 1.00000000000000 0.00000000000000 -1.00000000000000 -1.00000000000000 1.00000000000000
    MUTESOLO 0 0 0
    IPHASE 0
    ISBUS 0 0
    BUSCOMP 0 0
    SHOWINMIX 1 0.666700 0.500000 1 0.500000 -1 -1 -1
    FREEMODE 0
    SEL 0
    REC 0 0 0 0 0 0 0
    VU 2
    TRACKHEIGHT 0 0
    INQ 0 0 0 0.5000000000 100 0 0 100
    NCHAN 2
    FX 1
    TRACKID {F3385A24-0B57-4619-BF11-AD272023C595}
    PERF 0
    MIDIOUT -1
    <MIDINOTENAMES
      0 72 "Highest playable note B#3"
      0 71 "B3"
      0 70 "A#3"
      0 69 "A3"
      0 68 "G#3"
      0 67 "G3"
      0 66 "F#3"
      0 65 "F3"
      0 64 "E3"
      0 63 "D#3"
      0 62 "D3"
      0 61 "C#3"
      0 60 "C3"
      0 59 "B2"
      0 58 "A#2"
      0 57 "A2"
      0 56 "G#2"
      0 55 "G2"
      0 54 "F#2"
      0 53 "F2"
      0 52 "E2"
      0 51 "D#2"
      0 50 "D2"
      0 49 "C#2"
      0 48 "Lowest playable note C2"
      0 10 "---"
      0 9 "Range A2-C4"
      0 8 "Range"
      0 7 "Range"
      0 6 "Range"
      0 5 "Range F2-A3"
      0 4 "Range"
      0 3 "Range"
      0 2 "Range"
      0 1 "Range"
      0 0 "Range C2-E3"
    >
    MAINSEND 1 0
    <FXCHAIN
      SHOW 0
      LASTSEL 0
      DOCKED 0
    >
    <ITEM
      POSITION 0.00000000000000
      SNAPOFFS 0.00000000000000
      LENGTH 144.00000000000000
      LOOP 0
      ALLTAKES 0
      SEL 0
      FADEIN 1 0.000000 0.000000 1 0
      FADEOUT 1 0.000000 0.000000 1 0
      MUTE 0
      IGUID {961C7D3E-D936-4680-B1CE-A804FA5A351B}
      IID 9
      NAME "PART REAL_KEYS_H"
      VOLPAN 1.000000 0.000000 1.000000 -1.000000
      SOFFS 0.00000000000000 0.00000000000000
      PLAYRATE 1.00000000000000 1 0.00000000000000 -1
      CHANMODE 0
      GUID {4697C099-D93D-4085-95B2-0FD99C66ADC3}
      <SOURCE MIDI
        HASDATA 1 480 QN
        POOLEDEVTS {CA79DE22-75EE-48A7-9635-A970227A46E3}
        <X 0 0
          /wNQQVJUIFJFQUxfS0VZU19I
        >
        E 0 90 04 60
        E 120 80 04 00
        E 36360 90 40 60
        E 120 80 40 00
        E 120 90 40 60
        E 120 80 40 00
        E 120 90 3f 60
        E 120 80 3f 00
        E 120 90 3b 60
        E 120 80 3b 00
        E 120 90 3f 60
        E 120 80 3f 00
        E 120 90 3f 60
        E 120 80 3f 00
        E 120 90 3d 60
        E 120 80 3d 00
        E 120 90 38 60
        E 120 80 38 00
        E 120 90 3b 60
        E 120 80 3b 00
        E 120 90 3b 60
        E 120 80 3b 00
        E 120 90 39 60
        E 120 80 39 00
        E 120 90 34 60
        E 840 80 34 00
        E 120 90 40 60
        E 120 80 40 00
        E 360 90 40 60
        E 120 80 40 00
        E 120 90 3f 60
        E 120 80 3f 00
        E 120 90 3b 60
        E 120 80 3b 00
        E 120 90 3f 60
        E 120 80 3f 00
        E 120 90 3f 60
        E 120 80 3f 00
        E 120 90 3d 60
        E 120 80 3d 00
        E 120 90 38 60
        E 120 80 38 00
        E 120 90 3b 60
        E 120 80 3b 00
        E 120 90 3b 60
        E 120 80 3b 00
        E 120 90 39 60
        E 120 80 39 00
        E 120 90 34 60
        E 1080 80 34 00
        E 120 90 40 60
        E 120 80 40 00
        E 120 90 40 60
        E 120 80 40 00
        E 120 90 3f 60
        E 120 80 3f 00
        E 120 90 3b 60
        E 120 80 3b 00
        E 120 90 3e 60
        E 120 80 3e 00
        E 120 90 3e 60
        E 120 80 3e 00
        E 120 90 3c 60
        E 120 80 3c 00
        E 120 90 37 60
        E 120 80 37 00
        E 120 90 3b 60
        E 120 80 3b 00
        E 120 90 3b 60
        E 120 80 3b 00
        E 120 90 39 60
        E 120 80 39 00
        E 120 90 34 60
        E 1080 80 34 00
        E 34680 90 41 60
        E 120 80 41 00
        E 120 90 41 60
        E 120 80 41 00
        E 120 90 40 60
        E 120 80 40 00
        E 120 90 3c 60
        E 120 80 3c 00
        E 120 90 40 60
        E 120 80 40 00
        E 120 90 40 60
        E 120 80 40 00
        E 120 90 3e 60
        E 120 80 3e 00
        E 120 90 39 60
        E 120 80 39 00
        E 120 90 3c 60
        E 120 80 3c 00
        E 120 90 3c 60
        E 120 80 3c 00
        E 120 90 3a 60
        E 120 80 3a 00
        E 120 90 35 60
        E 840 80 35 00
        E 120 90 41 60
        E 120 80 41 00
        E 360 90 41 60
        E 120 80 41 00
        E 120 90 40 60
        E 120 80 40 00
        E 120 90 3c 60
        E 120 80 3c 00
        E 120 90 40 60
        E 120 80 40 00
        E 120 90 40 60
        E 120 80 40 00
        E 120 90 3e 60
        E 120 80 3e 00
        E 120 90 39 60
        E 120 80 39 00
        E 120 90 3c 60
        E 120 80 3c 00
        E 120 90 3c 60
        E 120 80 3c 00
        E 120 90 3a 60
        E 120 80 3a 00
        E 120 90 35 60
        E 1080 80 35 00
        E 120 90 41 60
        E 120 80 41 00
        E 120 90 41 60
        E 120 80 41 00
        E 120 90 40 60
        E 120 80 40 00
        E 120 90 3c 60
        E 120 80 3c 00
        E 120 90 3f 60
        E 120 80 3f 00
        E 120 90 3f 60
        E 120 80 3f 00
        E 120 90 3d 60
        E 120 80 3d 00
        E 120 90 38 60
        E 120 80 38 00
        E 120 90 3c 60
        E 120 80 3c 00
        E 120 90 3c 60
        E 120 80 3c 00
        E 120 90 3a 60
        E 120 80 3a 00
        E 120 90 35 60
        E 840 80 35 00
        E 120 90 41 60
        E 120 80 41 00
        E 360 90 41 60
        E 120 80 41 00
        E 120 90 40 60
        E 120 80 40 00
        E 120 90 3c 60
        E 120 80 3c 00
        E 120 90 40 60
        E 120 80 40 00
        E 120 90 40 60
        E 120 80 40 00
        E 120 90 3e 60
        E 120 80 3e 00
        E 120 90 39 60
        E 120 80 39 00
        E 120 90 3c 60
        E 120 80 3c 00
        E 120 90 3c 60
        E 120 80 3c 00
        E 120 90 3a 60
        E 120 80 3a 00
        E 120 90 35 60
        E 960 80 35 00
        E 19440 90 41 60
        E 120 80 41 00
        E 120 90 41 60
        E 120 80 41 00
        E 120 90 40 60
        E 120 80 40 00
        E 120 90 3c 60
        E 120 80 3c 00
        E 120 90 3f 60
        E 120 80 3f 00
        E 120 90 3f 60
        E 120 80 3f 00
        E 120 90 3d 60
        E 120 80 3d 00
        E 120 90 38 60
        E 120 80 38 00
        E 120 90 3c 60
        E 120 80 3c 00
        E 120 90 3c 60
        E 120 80 3c 00
        E 120 90 3a 60
        E 120 80 3a 00
        E 120 90 35 60
        E 840 80 35 00
        E 120 90 41 60
        E 360 80 41 00
        E 120 90 41 60
        E 120 80 41 00
        E 120 90 40 60
        E 120 80 40 00
        E 120 90 3c 60
        E 120 80 3c 00
        E 120 90 3f 60
        E 120 80 3f 00
        E 120 90 3f 60
        E 120 80 3f 00
        E 120 90 3d 60
        E 120 80 3d 00
        E 120 90 38 60
        E 120 80 38 00
        E 120 90 3c 60
        E 120 80 3c 00
        E 120 90 3c 60
        E 120 80 3c 00
        E 120 90 3a 60
        E 120 80 3a 00
        E 120 90 35 60
        E 1080 80 35 00
        E 120 90 41 60
        E 120 80 41 00
        E 120 90 41 60
        E 120 80 41 00
        E 120 90 40 60
        E 120 80 40 00
        E 120 90 3c 60
        E 120 80 3c 00
        E 120 90 40 60
        E 120 80 40 00
        E 120 90 40 60
        E 120 80 40 00
        E 120 90 3e 60
        E 120 80 3e 00
        E 120 90 39 60
        E 120 80 39 00
        E 120 90 3c 60
        E 120 80 3c 00
        E 120 90 3c 60
        E 120 80 3c 00
        E 120 90 3a 60
        E 120 80 3a 00
        E 120 90 35 60
        E 840 80 35 00
        E 120 90 41 60
        E 360 80 41 00
        E 120 90 41 60
        E 120 80 41 00
        E 120 90 40 60
        E 120 80 40 00
        E 120 90 3c 60
        E 120 80 3c 00
        E 120 90 3f 60
        E 120 80 3f 00
        E 120 90 3f 60
        E 120 80 3f 00
        E 120 90 3d 60
        E 120 80 3d 00
        E 120 90 38 60
        E 120 80 38 00
        E 120 90 3c 60
        E 120 80 3c 00
        E 120 90 3c 60
        E 120 80 3c 00
        E 120 90 3a 60
        E 120 80 3a 00
        E 120 90 35 60
        E 2159 80 35 00
        E 4801 b0 7b 00
        GUID {11CF3818-462F-4598-8400-8623600F766E}
        IGNTEMPO 0 120.00000000 4 4
        SRCCOLOR 9
        VELLANE 132 71 60
        COLORMAP "C:\Program Files\REAPER (x64)\Data\color_maps\rockband_guitarbass.png"
        CFGEDITVIEW 0.000000 4.920863 7 17 0 0 0
        CFGEDIT 1 1 0 1 1 0 1 1 1 1 1 0.25000000 100 100 1200 800 0 2 2 1 0.00000000 0 1 1 0 0.500000 0 0 1.000000 64
        KEYSNAP 0 6 "102030050700" 0 "Pentatonic"
        EVTFILTER 0 -1 -1 -1 -1 0 1 0 0 -1.00000000 -1.00000000
      >
    >
  >
  <TRACK '{4B622417-E480-4B73-A456-1F0847A75FAF}'
    NAME "PART REAL_KEYS_M"
    PEAKCOL 16576
    BEAT -1
    AUTOMODE 0
    VOLPAN 1.00000000000000 0.00000000000000 -1.00000000000000 -1.00000000000000 1.00000000000000
    MUTESOLO 0 0 0
    IPHASE 0
    ISBUS 0 0
    BUSCOMP 0 0
    SHOWINMIX 1 0.666700 0.500000 1 0.500000 -1 -1 -1
    FREEMODE 0
    SEL 0
    REC 0 0 0 0 0 0 0
    VU 2
    TRACKHEIGHT 0 0
    INQ 0 0 0 0.5000000000 100 0 0 100
    NCHAN 2
    FX 1
    TRACKID {4B622417-E480-4B73-A456-1F0847A75FAF}
    PERF 0
    MIDIOUT -1
    <MIDINOTENAMES
      0 72 "Highest playable note B#3"
      0 71 "B3"
      0 70 "A#3"
      0 69 "A3"
      0 68 "G#3"
      0 67 "G3"
      0 66 "F#3"
      0 65 "F3"
      0 64 "E3"
      0 63 "D#3"
      0 62 "D3"
      0 61 "C#3"
      0 60 "C3"
      0 59 "B2"
      0 58 "A#2"
      0 57 "A2"
      0 56 "G#2"
      0 55 "G2"
      0 54 "F#2"
      0 53 "F2"
      0 52 "E2"
      0 51 "D#2"
      0 50 "D2"
      0 49 "C#2"
      0 48 "Lowest playable note C2"
      0 10 "---"
      0 9 "Range A2-C4"
      0 8 "Range"
      0 7 "Range"
      0 6 "Range"
      0 5 "Range F2-A3"
      0 4 "Range"
      0 3 "Range"
      0 2 "Range"
      0 1 "Range"
      0 0 "Range C2-E3"
    >
    MAINSEND 1 0
    <FXCHAIN
      SHOW 0
      LASTSEL 0
      DOCKED 0
    >
    <ITEM
      POSITION 0.00000000000000
      SNAPOFFS 0.00000000000000
      LENGTH 144.00000000000000
      LOOP 0
      ALLTAKES 0
      SEL 0
      FADEIN 1 0.000000 0.000000 1 0
      FADEOUT 1 0.000000 0.000000 1 0
      MUTE 0
      IGUID {8F060340-2AC8-4AC8-B13A-E1DBB1ADF3AE}
      IID 10
      NAME "PART REAL_KEYS_M"
      VOLPAN 1.000000 0.000000 1.000000 -1.000000
      SOFFS 0.00000000000000 0.00000000000000
      PLAYRATE 1.00000000000000 1 0.00000000000000 -1
      CHANMODE 0
      GUID {B9226B63-B744-490C-92A3-CBD94CE58500}
      <SOURCE MIDI
        HASDATA 1 480 QN
        POOLEDEVTS {FA34BA11-A0AF-4254-B1F3-68AB15B882F0}
        <X 0 0
          /wNQQVJUIFJFQUxfS0VZU19N
        >
        E 0 90 04 60
        E 120 80 04 00
        E 36360 90 40 60
        E 120 80 40 00
        E 120 90 40 60
        E 120 80 40 00
        E 120 90 3f 60
        E 120 80 3f 00
        E 360 90 3f 60
        E 120 80 3f 00
        E 360 90 3d 60
        E 120 80 3d 00
        E 360 90 3b 60
        E 120 80 3b 00
        E 360 90 39 60
        E 120 80 39 00
        E 1080 90 40 60
        E 120 80 40 00
        E 360 90 40 60
        E 120 80 40 00
        E 120 90 3f 60
        E 120 80 3f 00
        E 360 90 3f 60
        E 120 80 3f 00
        E 360 90 3d 60
        E 120 80 3d 00
        E 360 90 3b 60
        E 120 80 3b 00
        E 360 90 39 60
        E 120 80 39 00
        E 1320 90 40 60
        E 120 80 40 00
        E 120 90 40 60
        E 120 80 40 00
        E 120 90 3f 60
        E 120 80 3f 00
        E 360 90 3e 60
        E 120 80 3e 00
        E 360 90 3c 60
        E 120 80 3c 00
        E 360 90 3b 60
        E 120 80 3b 00
        E 360 90 39 60
        E 120 80 39 00
        E 35880 90 41 60
        E 120 80 41 00
        E 120 90 41 60
        E 120 80 41 00
        E 120 90 40 60
        E 120 80 40 00
        E 360 90 40 60
        E 120 80 40 00
        E 360 90 3e 60
        E 120 80 3e 00
        E 360 90 3c 60
        E 120 80 3c 00
        E 360 90 3a 60
        E 120 80 3a 00
        E 1080 90 41 60
        E 120 80 41 00
        E 360 90 41 60
        E 120 80 41 00
        E 120 90 40 60
        E 120 80 40 00
        E 360 90 40 60
        E 120 80 40 00
        E 360 90 3e 60
        E 120 80 3e 00
        E 360 90 3c 60
        E 120 80 3c 00
        E 360 90 3a 60
        E 120 80 3a 00
        E 1320 90 41 60
        E 120 80 41 00
        E 120 90 41 60
        E 120 80 41 00
        E 120 90 40 60
        E 120 80 40 00
        E 360 90 3f 60
        E 120 80 3f 00
        E 360 90 3d 60
        E 120 80 3d 00
        E 360 90 3c 60
        E 120 80 3c 00
        E 360 90 3a 60
        E 120 80 3a 00
        E 1080 90 41 60
        E 120 80 41 00
        E 360 90 41 60
        E 120 80 41 00
        E 120 90 40 60
        E 120 80 40 00
        E 360 90 40 60
        E 120 80 40 00
        E 360 90 3e 60
        E 120 80 3e 00
        E 360 90 3c 60
        E 120 80 3c 00
        E 360 90 3a 60
        E 120 80 3a 00
        E 20520 90 41 60
        E 120 80 41 00
        E 120 90 41 60
        E 120 80 41 00
        E 120 90 40 60
        E 120 80 40 00
        E 360 90 3f 60
        E 120 80 3f 00
        E 360 90 3d 60
        E 120 80 3d 00
        E 360 90 3c 60
        E 120 80 3c 00
        E 360 90 3a 60
        E 120 80 3a 00
        E 1080 90 41 60
        E 360 80 41 00
        E 120 90 41 60
        E 120 80 41 00
        E 120 90 40 60
        E 120 80 40 00
        E 360 90 3f 60
        E 120 80 3f 00
        E 360 90 3d 60
        E 120 80 3d 00
        E 360 90 3c 60
        E 120 80 3c 00
        E 360 90 3a 60
        E 120 80 3a 00
        E 1320 90 41 60
        E 120 80 41 00
        E 120 90 41 60
        E 120 80 41 00
        E 120 90 40 60
        E 120 80 40 00
        E 360 90 40 60
        E 120 80 40 00
        E 360 90 3e 60
        E 120 80 3e 00
        E 360 90 3c 60
        E 120 80 3c 00
        E 360 90 3a 60
        E 120 80 3a 00
        E 1080 90 41 60
        E 360 80 41 00
        E 120 90 41 60
        E 120 80 41 00
        E 120 90 40 60
        E 120 80 40 00
        E 360 90 3f 60
        E 120 80 3f 00
        E 360 90 3d 60
        E 120 80 3d 00
        E 360 90 3c 60
        E 120 80 3c 00
        E 360 90 3a 60
        E 120 80 3a 00
        E 7080 b0 7b 00
        GUID {D5D8B797-1141-4DFD-B417-FFBAFCD1CA70}
        IGNTEMPO 0 120.00000000 4 4
        SRCCOLOR 10
        VELLANE 132 71 60
        COLORMAP "C:\Program Files\REAPER (x64)\Data\color_maps\rockband_guitarbass.png"
        CFGEDITVIEW 0.000000 4.992701 7 17 0 0 0
        CFGEDIT 1 1 0 1 1 0 1 1 1 1 1 0.25000000 100 100 1200 800 0 2 2 1 0.00000000 0 1 1 0 0.500000 0 0 1.000000 64
        KEYSNAP 0 6 "102030050700" 0 "Pentatonic"
        EVTFILTER 0 -1 -1 -1 -1 0 1 0 0 -1.00000000 -1.00000000
      >
    >
  >
  <TRACK '{CD18B264-1347-48EE-95E6-4EE482FCA09D}'
    NAME "PART REAL_KEYS_E"
    PEAKCOL 16576
    BEAT -1
    AUTOMODE 0
    VOLPAN 1.00000000000000 0.00000000000000 -1.00000000000000 -1.00000000000000 1.00000000000000
    MUTESOLO 0 0 0
    IPHASE 0
    ISBUS 0 0
    BUSCOMP 0 0
    SHOWINMIX 1 0.666700 0.500000 1 0.500000 -1 -1 -1
    FREEMODE 0
    SEL 0
    REC 0 0 0 0 0 0 0
    VU 2
    TRACKHEIGHT 0 0
    INQ 0 0 0 0.5000000000 100 0 0 100
    NCHAN 2
    FX 1
    TRACKID {CD18B264-1347-48EE-95E6-4EE482FCA09D}
    PERF 0
    MIDIOUT -1
    <MIDINOTENAMES
      0 72 "Highest playable note B#3"
      0 71 "B3"
      0 70 "A#3"
      0 69 "A3"
      0 68 "G#3"
      0 67 "G3"
      0 66 "F#3"
      0 65 "F3"
      0 64 "E3"
      0 63 "D#3"
      0 62 "D3"
      0 61 "C#3"
      0 60 "C3"
      0 59 "B2"
      0 58 "A#2"
      0 57 "A2"
      0 56 "G#2"
      0 55 "G2"
      0 54 "F#2"
      0 53 "F2"
      0 52 "E2"
      0 51 "D#2"
      0 50 "D2"
      0 49 "C#2"
      0 48 "Lowest playable note C2"
      0 10 "---"
      0 9 "Range A2-C4"
      0 8 "Range"
      0 7 "Range"
      0 6 "Range"
      0 5 "Range F2-A3"
      0 4 "Range"
      0 3 "Range"
      0 2 "Range"
      0 1 "Range"
      0 0 "Range C2-E3"
    >
    MAINSEND 1 0
    <FXCHAIN
      SHOW 0
      LASTSEL 0
      DOCKED 0
    >
    <ITEM
      POSITION 0.00000000000000
      SNAPOFFS 0.00000000000000
      LENGTH 144.00000000000000
      LOOP 0
      ALLTAKES 0
      SEL 0
      FADEIN 1 0.000000 0.000000 1 0
      FADEOUT 1 0.000000 0.000000 1 0
      MUTE 0
      IGUID {F84E7ACA-59F3-48D8-BB3D-B723011DC4A8}
      IID 11
      NAME "PART REAL_KEYS_E"
      VOLPAN 1.000000 0.000000 1.000000 -1.000000
      SOFFS 0.00000000000000 0.00000000000000
      PLAYRATE 1.00000000000000 1 0.00000000000000 -1
      CHANMODE 0
      GUID {E4AC7F8F-4519-4180-8B92-EE6D9F0FE7AD}
      <SOURCE MIDI
        HASDATA 1 480 QN
        POOLEDEVTS {89FBE1EA-DE76-45AD-9371-BEF33F4E7BAD}
        <X 0 0
          /wNQQVJUIFJFQUxfS0VZU19F
        >
        E 0 90 04 60
        E 120 80 04 00
        E 36360 90 40 60
        E 120 80 40 00
        E 360 90 3f 60
        E 120 80 3f 00
        E 360 90 3f 60
        E 120 80 3f 00
        E 840 90 3b 60
        E 120 80 3b 00
        E 1560 90 40 60
        E 120 80 40 00
        E 600 90 3f 60
        E 120 80 3f 00
        E 360 90 3f 60
        E 120 80 3f 00
        E 840 90 3b 60
        E 120 80 3b 00
        E 1800 90 40 60
        E 120 80 40 00
        E 360 90 3f 60
        E 120 80 3f 00
        E 360 90 3e 60
        E 120 80 3e 00
        E 840 90 3b 60
        E 120 80 3b 00
        E 36360 90 41 60
        E 120 80 41 00
        E 360 90 40 60
        E 120 80 40 00
        E 360 90 40 60
        E 120 80 40 00
        E 840 90 3c 60
        E 120 80 3c 00
        E 1560 90 41 60
        E 120 80 41 00
        E 600 90 40 60
        E 120 80 40 00
        E 360 90 40 60
        E 120 80 40 00
        E 840 90 3c 60
        E 120 80 3c 00
        E 1800 90 41 60
        E 120 80 41 00
        E 360 90 40 60
        E 120 80 40 00
        E 360 90 3f 60
        E 120 80 3f 00
        E 840 90 3c 60
        E 120 80 3c 00
        E 1560 90 41 60
        E 120 80 41 00
        E 600 90 40 60
        E 120 80 40 00
        E 360 90 40 60
        E 120 80 40 00
        E 840 90 3c 60
        E 120 80 3c 00
        E 21000 90 41 60
        E 120 80 41 00
        E 360 90 40 60
        E 120 80 40 00
        E 360 90 3f 60
        E 120 80 3f 00
        E 840 90 3c 60
        E 120 80 3c 00
        E 1560 90 41 60
        E 360 80 41 00
        E 360 90 40 60
        E 120 80 40 00
        E 360 90 3f 60
        E 120 80 3f 00
        E 840 90 3c 60
        E 120 80 3c 00
        E 1800 90 41 60
        E 120 80 41 00
        E 360 90 40 60
        E 120 80 40 00
        E 360 90 40 60
        E 120 80 40 00
        E 840 90 3c 60
        E 120 80 3c 00
        E 1560 90 41 60
        E 360 80 41 00
        E 360 90 40 60
        E 120 80 40 00
        E 360 90 3f 60
        E 120 80 3f 00
        E 840 90 3c 60
        E 120 80 3c 00
        E 7560 b0 7b 00
        GUID {E844E19E-CEDF-4C6C-BA59-41B26DA892D7}
        IGNTEMPO 0 120.00000000 4 4
        SRCCOLOR 11
        VELLANE 132 71 60
        COLORMAP "C:\Program Files\REAPER (x64)\Data\color_maps\rockband_guitarbass.png"
        CFGEDITVIEW 0.000000 5.010989 7 17 0 0 0
        CFGEDIT 1 1 0 1 1 0 1 1 1 1 1 0.25000000 100 100 1200 800 0 2 2 1 0.00000000 0 1 1 0 0.500000 0 0 1.000000 64
        KEYSNAP 0 6 "102030050700" 0 "Pentatonic"
        EVTFILTER 0 -1 -1 -1 -1 0 1 0 0 -1.00000000 -1.00000000
      >
    >
  >
  <TRACK '{4F3783CB-CB98-4CDF-B3CF-7F6284B5D9A2}'
    NAME "PART KEYS_ANIM_RH"
    PEAKCOL 16576
    BEAT -1
    AUTOMODE 0
    VOLPAN 1.00000000000000 0.00000000000000 -1.00000000000000 -1.00000000000000 1.00000000000000
    MUTESOLO 0 0 0
    IPHASE 0
    ISBUS 2 -1
    BUSCOMP 0 0
    SHOWINMIX 1 0.666700 0.500000 1 0.500000 -1 -1 -1
    FREEMODE 0
    SEL 0
    REC 0 0 0 0 0 0 0
    VU 2
    TRACKHEIGHT 0 0
    INQ 0 0 0 0.5000000000 100 0 0 100
    NCHAN 2
    FX 1
    TRACKID {4F3783CB-CB98-4CDF-B3CF-7F6284B5D9A2}
    PERF 0
    MIDIOUT -1
    <MIDINOTENAMES
      0 72 "Highest playable note B#3"
      0 71 "B3"
      0 70 "A#3"
      0 69 "A3"
      0 68 "G#3"
      0 67 "G3"
      0 66 "F#3"
      0 65 "F3"
      0 64 "E3"
      0 63 "D#3"
      0 62 "D3"
      0 61 "C#3"
      0 60 "C3"
      0 59 "B2"
      0 58 "A#2"
      0 57 "A2"
      0 56 "G#2"
      0 55 "G2"
      0 54 "F#2"
      0 53 "F2"
      0 52 "E2"
      0 51 "D#2"
      0 50 "D2"
      0 49 "C#2"
      0 48 "Lowest playable note C2"
    >
    MAINSEND 1 0
    <FXCHAIN
      SHOW 0
      LASTSEL 0
      DOCKED 0
    >
    <ITEM
      POSITION 0.00000000000000
      SNAPOFFS 0.00000000000000
      LENGTH 144.00000000000000
      LOOP 0
      ALLTAKES 0
      SEL 0
      FADEIN 1 0.000000 0.000000 1 0
      FADEOUT 1 0.000000 0.000000 1 0
      MUTE 0
      IGUID {AA1CF2B8-F97F-4D3E-A402-12009ABD846B}
      IID 12
      NAME "PART KEYS_ANIM_RH"
      VOLPAN 1.000000 0.000000 1.000000 -1.000000
      SOFFS 0.00000000000000 0.00000000000000
      PLAYRATE 1.00000000000000 1 0.00000000000000 -1
      CHANMODE 0
      GUID {0C2FF7CC-4CB2-43E0-A9FD-0BAA66ED6DD2}
      <SOURCE MIDI
        HASDATA 1 480 QN
        POOLEDEVTS {E54C1862-1DE8-4BDC-B07D-B7F8BE08A3B8}
        <X 0 0
          /wNQQVJUIEtFWVNfQU5JTV9SSA==
        >
        E 36480 90 40 60
        E 120 80 40 00
        E 120 90 40 60
        E 120 80 40 00
        E 120 90 3f 60
        E 120 80 3f 00
        E 120 90 3b 60
        E 120 80 3b 00
        E 120 90 3f 60
        E 120 80 3f 00
        E 120 90 3f 60
        E 120 80 3f 00
        E 120 90 3d 60
        E 120 80 3d 00
        E 120 90 38 60
        E 120 80 38 00
        E 120 90 3b 60
        E 120 80 3b 00
        E 120 90 3b 60
        E 120 80 3b 00
        E 120 90 39 60
        E 120 80 39 00
        E 120 90 34 60
        E 840 80 34 00
        E 120 90 40 60
        E 120 80 40 00
        E 360 90 40 60
        E 120 80 40 00
        E 120 90 3f 60
        E 120 80 3f 00
        E 120 90 3b 60
        E 120 80 3b 00
        E 120 90 3f 60
        E 120 80 3f 00
        E 120 90 3f 60
        E 120 80 3f 00
        E 120 90 3d 60
        E 120 80 3d 00
        E 120 90 38 60
        E 120 80 38 00
        E 120 90 3b 60
        E 120 80 3b 00
        E 120 90 3b 60
        E 120 80 3b 00
        E 120 90 39 60
        E 120 80 39 00
        E 120 90 34 60
        E 1080 80 34 00
        E 120 90 40 60
        E 120 80 40 00
        E 120 90 40 60
        E 120 80 40 00
        E 120 90 3f 60
        E 120 80 3f 00
        E 120 90 3b 60
        E 120 80 3b 00
        E 120 90 3e 60
        E 120 80 3e 00
        E 120 90 3e 60
        E 120 80 3e 00
        E 120 90 3c 60
        E 120 80 3c 00
        E 120 90 37 60
        E 120 80 37 00
        E 120 90 3b 60
        E 120 80 3b 00
        E 120 90 3b 60
        E 120 80 3b 00
        E 120 90 39 60
        E 120 80 39 00
        E 120 90 34 60
        E 1080 80 34 00
        E 34680 90 41 60
        E 120 80 41 00
        E 120 90 41 60
        E 120 80 41 00
        E 120 90 40 60
        E 120 80 40 00
        E 120 90 3c 60
        E 120 80 3c 00
        E 120 90 40 60
        E 120 80 40 00
        E 120 90 40 60
        E 120 80 40 00
        E 120 90 3e 60
        E 120 80 3e 00
        E 120 90 39 60
        E 120 80 39 00
        E 120 90 3c 60
        E 120 80 3c 00
        E 120 90 3c 60
        E 120 80 3c 00
        E 120 90 3a 60
        E 120 80 3a 00
        E 120 90 35 60
        E 840 80 35 00
        E 120 90 41 60
        E 120 80 41 00
        E 360 90 41 60
        E 120 80 41 00
        E 120 90 40 60
        E 120 80 40 00
        E 120 90 3c 60
        E 120 80 3c 00
        E 120 90 40 60
        E 120 80 40 00
        E 120 90 40 60
        E 120 80 40 00
        E 120 90 3e 60
        E 120 80 3e 00
        E 120 90 39 60
        E 120 80 39 00
        E 120 90 3c 60
        E 120 80 3c 00
        E 120 90 3c 60
        E 120 80 3c 00
        E 120 90 3a 60
        E 120 80 3a 00
        E 120 90 35 60
        E 1080 80 35 00
        E 120 90 41 60
        E 120 80 41 00
        E 120 90 41 60
        E 120 80 41 00
        E 120 90 40 60
        E 120 80 40 00
        E 120 90 3c 60
        E 120 80 3c 00
        E 120 90 3f 60
        E 120 80 3f 00
        E 120 90 3f 60
        E 120 80 3f 00
        E 120 90 3d 60
        E 120 80 3d 00
        E 120 90 38 60
        E 120 80 38 00
        E 120 90 3c 60
        E 120 80 3c 00
        E 120 90 3c 60
        E 120 80 3c 00
        E 120 90 3a 60
        E 120 80 3a 00
        E 120 90 35 60
        E 840 80 35 00
        E 120 90 41 60
        E 120 80 41 00
        E 360 90 41 60
        E 120 80 41 00
        E 120 90 40 60
        E 120 80 40 00
        E 120 90 3c 60
        E 120 80 3c 00
        E 120 90 40 60
        E 120 80 40 00
        E 120 90 40 60
        E 120 80 40 00
        E 120 90 3e 60
        E 120 80 3e 00
        E 120 90 39 60
        E 120 80 39 00
        E 120 90 3c 60
        E 120 80 3c 00
        E 120 90 3c 60
        E 120 80 3c 00
        E 120 90 3a 60
        E 120 80 3a 00
        E 120 90 35 60
        E 960 80 35 00
        E 19440 90 41 60
        E 120 80 41 00
        E 120 90 41 60
        E 120 80 41 00
        E 120 90 40 60
        E 120 80 40 00
        E 120 90 3c 60
        E 120 80 3c 00
        E 120 90 3f 60
        E 120 80 3f 00
        E 120 90 3f 60
        E 120 80 3f 00
        E 120 90 3d 60
        E 120 80 3d 00
        E 120 90 38 60
        E 120 80 38 00
        E 120 90 3c 60
        E 120 80 3c 00
        E 120 90 3c 60
        E 120 80 3c 00
        E 120 90 3a 60
        E 120 80 3a 00
        E 120 90 35 60
        E 840 80 35 00
        E 120 90 41 60
        E 360 80 41 00
        E 120 90 41 60
        E 120 80 41 00
        E 120 90 40 60
        E 120 80 40 00
        E 120 90 3c 60
        E 120 80 3c 00
        E 120 90 3f 60
        E 120 80 3f 00
        E 120 90 3f 60
        E 120 80 3f 00
        E 120 90 3d 60
        E 120 80 3d 00
        E 120 90 38 60
        E 120 80 38 00
        E 120 90 3c 60
        E 120 80 3c 00
        E 120 90 3c 60
        E 120 80 3c 00
        E 120 90 3a 60
        E 120 80 3a 00
        E 120 90 35 60
        E 1080 80 35 00
        E 120 90 41 60
        E 120 80 41 00
        E 120 90 41 60
        E 120 80 41 00
        E 120 90 40 60
        E 120 80 40 00
        E 120 90 3c 60
        E 120 80 3c 00
        E 120 90 40 60
        E 120 80 40 00
        E 120 90 40 60
        E 120 80 40 00
        E 120 90 3e 60
        E 120 80 3e 00
        E 120 90 39 60
        E 120 80 39 00
        E 120 90 3c 60
        E 120 80 3c 00
        E 120 90 3c 60
        E 120 80 3c 00
        E 120 90 3a 60
        E 120 80 3a 00
        E 120 90 35 60
        E 840 80 35 00
        E 120 90 41 60
        E 360 80 41 00
        E 120 90 41 60
        E 120 80 41 00
        E 120 90 40 60
        E 120 80 40 00
        E 120 90 3c 60
        E 120 80 3c 00
        E 120 90 3f 60
        E 120 80 3f 00
        E 120 90 3f 60
        E 120 80 3f 00
        E 120 90 3d 60
        E 120 80 3d 00
        E 120 90 38 60
        E 120 80 38 00
        E 120 90 3c 60
        E 120 80 3c 00
        E 120 90 3c 60
        E 120 80 3c 00
        E 120 90 3a 60
        E 120 80 3a 00
        E 120 90 35 60
        E 2159 80 35 00
        E 4801 b0 7b 00
        GUID {0D185D0F-1B82-4E64-B916-FBCA58667799}
        IGNTEMPO 0 120.00000000 4 4
        SRCCOLOR 12
        VELLANE 132 71 60
        COLORMAP "C:\Program Files\REAPER (x64)\Data\color_maps\rockband_guitarbass.png"
        CFGEDITVIEW 0.000000 4.920863 7 25 0 0 0
        CFGEDIT 1 1 0 1 1 0 1 1 1 1 1 0.25000000 100 100 1200 800 0 2 2 1 0.00000000 0 1 1 0 0.500000 0 0 1.000000 64
        KEYSNAP 0 6 "102030050700" 0 "Pentatonic"
        EVTFILTER 0 -1 -1 -1 -1 0 1 0 0 -1.00000000 -1.00000000
      >
    >
  >
  <TRACK '{79245CF2-C9F5-460C-B698-B03C21D912B2}'
    NAME "PART REAL_BASS"
    PEAKCOL 16576
    BEAT -1
    AUTOMODE 0
    VOLPAN 1.00000000000000 0.00000000000000 -1.00000000000000 -1.00000000000000 1.00000000000000
    MUTESOLO 0 0 0
    IPHASE 0
    ISBUS 0 0
    BUSCOMP 0 0
    SHOWINMIX 1 0.666700 0.500000 1 0.500000 -1 -1 -1
    FREEMODE 0
    SEL 0
    REC 0 0 0 0 0 0 0
    VU 2
    TRACKHEIGHT 0 0
    INQ 0 0 0 0.5000000000 100 0 0 100
    NCHAN 2
    FX 0
    TRACKID {79245CF2-C9F5-460C-B698-B03C21D912B2}
    PERF 0
    MIDIOUT -1
    <MIDINOTENAMES
      0 127 "Trill Marker"
      0 126 "Tremolo Marker"
      0 125 "BRE"
      0 124 "BRE"
      0 123 "BRE"
      0 122 "BRE"
      0 121 "BRE"
      0 120 "BRE (use all 6)"
      0 119 "-----------"
      0 116 "OVERDRIVE"
      0 115 "Solo Marker"
      0 109 "-----------"
      0 108 "Fret Hand Position"
      0 107 "Force Chord Numbering"
      0 106 "Loose Strumming"
      0 105 "Strum Direction"
      0 104 "Arpeggio Marker"
      0 103 "Slide Marker"
      0 102 "Force HOPO"
      0 101 "EXPERT e String"
      0 100 "EXPERT B String"
      0 99 "EXPERT G String"
      0 98 "EXPERT D String"
      0 97 "EXPERT A String"
      0 96 "EXPERT E String"
      0 95 "-----------"
      0 82 "Loose Strumming"
      0 81 "Strum Direction"
      0 80 "Arpeggio Marker"
      0 79 "Slide Marker"
      0 78 "Force HOPO"
      0 77 "HARD e String"
      0 76 "HARD B String"
      0 75 "HARD G String"
      0 74 "HARD D String"
      0 73 "HARD A String"
      0 72 "HARD E String"
      0 71 "-----------"
      0 58 "Loose Strumming"
      0 56 "Arpeggio Marker"
      0 55 "Slide Marker"
      0 53 "MEDIUM e String"
      0 52 "MEDIUM B String"
      0 51 "MEDIUM G String"
      0 50 "MEDIUM D String"
      0 49 "MEDIUM A String"
      0 48 "MEDIUM E String"
      0 47 "-----------"
      0 32 "Arpeggio Marker"
      0 31 "Slide Marker"
      0 29 "EASY e String"
      0 28 "EASY B String"
      0 27 "EASY G String"
      0 26 "EASY D String"
      0 25 "EASY A String"
      0 24 "EASY E String"
      0 21 "-----------"
      0 18 "Flat/Sharp Swap"
      0 17 "Hide Chord Names"
      0 16 "Slash Chord"
      0 15 "D#"
      0 14 "D"
      0 13 "C#"
      0 12 "C"
      0 11 "B"
      0 10 "A#"
      0 9 "A"
      0 8 "G#"
      0 7 "G"
      0 6 "F#"
      0 5 "F"
      0 4 "E"
    >
    MAINSEND 1 0
    <FXCHAIN
      WNDRECT 0 43 655 467
      SHOW 0
      LASTSEL 2
      DOCKED 0
      BYPASS 0 0
      <JS "c3/progtr" ""
        0.000000 3.000000 0.000000 0.000000 0.000000 0.000000 0.000000 0.000000 0.000000 1.000000 - - - - - - - - - - - - - - - - - - - - - - - - - - - - - - - - - - - - - - - - - - - - - - - - - - - - - - 
      >
      FLOATPOS 0 0 0 0
      FXID {BDC89A20-CE64-433C-BF6C-E948AD4B7EBD}
      WAK 0
      BYPASS 0 0
      <JS "MIDI/midi_transpose" ""
        -12.000000 1.000000 0.000000 127.000000 - - - - - - - - - - - - - - - - - - - - - - - - - - - - - - - - - - - - - - - - - - - - - - - - - - - - - - - - - - - - 
      >
      FLOATPOS 0 0 0 0
      FXID {46D803EE-8428-46DC-BFA0-747DF6131D4C}
      WAK 0
      BYPASS 0 0
      <VST "VSTi: ReaSynth (Cockos)" "reasynth.dll" 0 ""
        eXNlcu9e7f4AAAAAAgAAAAEAAAAAAAAAAgAAAAAAAAA4AAAAAAAAAA==
        AAAQAO++rd4N8K3eppvEO+gJMjwAAAAAAAAAAAAAgD8AAIA/4jAEPA==
        AAAAAAAAAD+01hM+j8L1PQAAAD8AABAAAAA=
      >
      FLOATPOS 0 0 0 0
      FXID {9222EB24-30C2-46E0-8D90-4380326C400B}
      WAK 0
    >
    <ITEM
      POSITION 0.00000000000000
      SNAPOFFS 0.00000000000000
      LENGTH 144.00000000000000
      LOOP 0
      ALLTAKES 0
      SEL 0
      FADEIN 1 0.000000 0.000000 1 0
      FADEOUT 1 0.000000 0.000000 1 0
      MUTE 0
      IGUID {094586CB-FD06-41D4-ACFB-C944D471A2C4}
      IID 3
      NAME "PART REAL_BASS"
      VOLPAN 1.000000 0.000000 1.000000 -1.000000
      SOFFS 0.00000000000000 0.00000000000000
      PLAYRATE 1.00000000000000 1 0.00000000000000 -1
      CHANMODE 0
      GUID {0B29215B-B625-4236-93FA-00B4DA9CDEB2}
      <SOURCE MIDI
        HASDATA 1 480 QN
        POOLEDEVTS {514E442A-5DB9-4F3A-BC8D-FC6C6F7037C7}
        <X 0 0
          /wNQQVJUIFJFQUxfQkFTUw==
        >
        E 3840 90 1a 6a
        E 0 90 32 6a
        E 0 90 4a 6a
        E 0 90 62 6a
        E 0 90 6c 68
        E 120 80 1a 00
        E 0 80 32 00
        E 0 80 4a 00
        E 0 80 62 00
        E 0 80 6c 00
        E 0 90 62 6a
        E 120 80 62 00
        E 0 90 32 6a
        E 0 90 4a 6a
        E 0 90 62 6a
        E 120 80 32 00
        E 0 80 4a 00
        E 0 80 62 00
        E 0 90 62 6a
        E 120 80 62 00
        E 0 90 1a 6a
        E 0 90 32 6a
        E 0 90 4a 6a
        E 0 90 62 6a
        E 120 80 1a 00
        E 0 80 32 00
        E 0 80 4a 00
        E 0 80 62 00
        E 0 90 62 6a
        E 120 80 62 00
        E 0 90 32 6a
        E 0 90 4a 6a
        E 0 90 62 6a
        E 120 80 32 00
        E 0 80 4a 00
        E 0 80 62 00
        E 0 90 62 6a
        E 120 80 62 00
        E 0 90 1a 6a
        E 0 90 32 6a
        E 0 90 4a 6a
        E 0 90 62 6a
        E 120 80 1a 00
        E 0 80 32 00
        E 0 80 4a 00
        E 0 80 62 00
        E 0 90 62 6a
        E 120 80 62 00
        E 0 90 32 6a
        E 0 90 4a 6a
        E 0 90 62 6a
        E 120 80 32 00
        E 0 80 4a 00
        E 0 80 62 00
        E 0 90 62 6a
        E 120 80 62 00
        E 0 90 1a 6a
        E 0 90 32 6a
        E 0 90 4a 6a
        E 0 90 62 6a
        E 120 80 1a 00
        E 0 80 32 00
        E 0 80 4a 00
        E 0 80 62 00
        E 0 90 62 6a
        E 120 80 62 00
        E 0 90 32 6a
        E 0 90 4a 6a
        E 0 90 62 6a
        E 120 80 32 00
        E 0 80 4a 00
        E 0 80 62 00
        E 0 90 62 6a
        <X 120 0
          /wFbYmVnaW5fcGIgc29uZ190cmFpbmVyX3BiXzFd
        >
        E 0 80 62 00
        E 0 90 1a 6a
        E 0 90 32 6a
        E 0 90 4a 6a
        E 0 90 62 6a
        E 120 80 1a 00
        E 0 80 32 00
        E 0 80 4a 00
        E 0 80 62 00
        E 0 90 62 6a
        E 120 80 62 00
        E 0 90 32 6a
        E 0 90 4a 6a
        E 0 90 62 6a
        E 120 80 32 00
        E 0 80 4a 00
        E 0 80 62 00
        E 0 90 62 6a
        E 120 80 62 00
        E 0 90 32 6a
        E 0 90 4a 6a
        E 0 90 62 6a
        E 120 80 32 00
        E 0 80 4a 00
        E 0 80 62 00
        E 0 90 62 6a
        E 120 80 62 00
        E 0 90 4a 6a
        E 0 90 62 6a
        E 120 80 4a 00
        E 0 80 62 00
        E 0 90 62 6a
        E 120 80 62 00
        E 0 90 1a 6b
        E 0 90 32 6b
        E 0 90 4a 6b
        E 0 90 62 6b
        E 120 80 1a 00
        E 0 80 32 00
        E 0 80 4a 00
        E 0 80 62 00
        E 0 90 62 6b
        E 120 80 62 00
        E 0 90 32 6b
        E 0 90 4a 6b
        E 0 90 62 6b
        E 120 80 32 00
        E 0 80 4a 00
        E 0 80 62 00
        E 0 90 62 6b
        E 120 80 62 00
        E 0 90 1a 6b
        E 0 90 32 6b
        E 0 90 4a 6b
        E 0 90 62 6b
        E 120 80 1a 00
        E 0 80 32 00
        E 0 80 4a 00
        E 0 80 62 00
        E 0 90 62 6b
        E 120 80 62 00
        E 0 90 32 6b
        E 0 90 4a 6b
        E 0 90 62 6b
        E 120 80 32 00
        E 0 80 4a 00
        E 0 80 62 00
        E 0 90 62 6b
        E 120 80 62 00
        E 0 90 1a 6b
        E 0 90 32 6b
        E 0 90 4a 6b
        E 0 90 62 6b
        E 120 80 1a 00
        E 0 80 32 00
        E 0 80 4a 00
        E 0 80 62 00
        E 0 90 62 6b
        E 120 80 62 00
        E 0 90 32 6b
        E 0 90 4a 6b
        E 0 90 62 6b
        E 120 80 32 00
        E 0 80 4a 00
        E 0 80 62 00
        E 0 90 62 6b
        E 120 80 62 00
        E 0 90 32 6b
        E 0 90 4a 6b
        E 0 90 62 6b
        E 120 80 32 00
        E 0 80 4a 00
        E 0 80 62 00
        E 0 90 62 6b
        E 120 80 62 00
        E 0 90 4a 6b
        E 0 90 62 6b
        E 120 80 4a 00
        E 0 80 62 00
        E 0 90 62 6b
        E 120 80 62 00
        E 0 90 19 6b
        E 0 90 31 6b
        E 0 90 49 6b
        E 0 90 61 6b
        E 120 80 19 00
        E 0 80 31 00
        E 0 80 49 00
        E 0 80 61 00
        E 0 90 61 6b
        E 120 80 61 00
        E 0 90 31 6b
        E 0 90 49 6b
        E 0 90 61 6b
        E 120 80 31 00
        E 0 80 49 00
        E 0 80 61 00
        E 0 90 61 6b
        E 120 80 61 00
        E 0 90 31 6b
        E 0 90 49 6b
        E 0 90 61 6b
        E 120 80 31 00
        E 0 80 49 00
        E 0 80 61 00
        E 0 90 61 6b
        E 120 80 61 00
        E 0 90 49 6b
        E 0 90 61 6b
        E 120 80 49 00
        E 0 80 61 00
        E 0 90 61 6b
        E 120 80 61 00
        E 0 90 1b 68
        E 0 90 33 68
        E 0 90 4b 68
        E 0 90 63 68
        E 120 80 1b 00
        E 0 80 33 00
        E 0 80 4b 00
        E 0 80 63 00
        E 0 90 63 68
        E 120 80 63 00
        E 0 90 33 68
        E 0 90 4b 68
        E 0 90 63 68
        E 120 80 33 00
        E 0 80 4b 00
        E 0 80 63 00
        E 0 90 63 68
        E 120 80 63 00
        E 0 90 33 68
        E 0 90 4b 68
        E 0 90 63 68
        E 120 80 33 00
        E 0 80 4b 00
        E 0 80 63 00
        E 0 90 63 68
        E 120 80 63 00
        E 0 90 4b 68
        E 0 90 63 68
        E 120 80 4b 00
        E 0 80 63 00
        E 0 90 63 68
        E 120 80 63 00
        E 0 90 1b 6a
        E 0 90 33 6a
        E 0 90 4b 6a
        E 0 90 63 6a
        E 120 80 1b 00
        E 0 80 33 00
        E 0 80 4b 00
        E 0 80 63 00
        E 0 90 63 6a
        E 120 80 63 00
        E 0 90 33 6a
        E 0 90 4b 6a
        E 0 90 63 6a
        E 120 80 33 00
        E 0 80 4b 00
        E 0 80 63 00
        E 0 90 63 6a
        E 120 80 63 00
        E 0 90 1b 6a
        E 0 90 33 6a
        E 0 90 4b 6a
        E 0 90 63 6a
        E 120 80 1b 00
        E 0 80 33 00
        E 0 80 4b 00
        E 0 80 63 00
        E 0 90 63 6a
        E 120 80 63 00
        E 0 90 33 6a
        E 0 90 4b 6a
        E 0 90 63 6a
        E 120 80 33 00
        E 0 80 4b 00
        E 0 80 63 00
        E 0 90 63 6a
        E 120 80 63 00
        E 0 90 1b 6a
        E 0 90 33 6a
        E 0 90 4b 6a
        E 0 90 63 6a
        E 120 80 1b 00
        E 0 80 33 00
        E 0 80 4b 00
        E 0 80 63 00
        E 0 90 63 6a
        E 120 80 63 00
        E 0 90 33 6a
        E 0 90 4b 6a
        E 0 90 63 6a
        E 120 80 33 00
        E 0 80 4b 00
        E 0 80 63 00
        E 0 90 63 6a
        E 120 80 63 00
        E 0 90 33 6a
        E 0 90 4b 6a
        E 0 90 63 6a
        E 120 80 33 00
        E 0 80 4b 00
        E 0 80 63 00
        E 0 90 63 6a
        E 120 80 63 00
        E 0 90 4b 6a
        E 0 90 63 6a
        E 120 80 4b 00
        E 0 80 63 00
        E 0 90 63 6a
        E 120 80 63 00
        E 0 90 1a 6b
        E 0 90 32 6b
        E 0 90 4a 6b
        E 0 90 62 6b
        E 120 80 1a 00
        E 0 80 32 00
        E 0 80 4a 00
        E 0 80 62 00
        E 0 90 62 6b
        E 120 80 62 00
        E 0 90 32 6b
        E 0 90 4a 6b
        E 0 90 62 6b
        E 120 80 32 00
        E 0 80 4a 00
        E 0 80 62 00
        E 0 90 62 6b
        E 120 80 62 00
        E 0 90 32 6b
        E 0 90 4a 6b
        E 0 90 62 6b
        E 120 80 32 00
        E 0 80 4a 00
        E 0 80 62 00
        E 0 90 62 6b
        E 120 80 62 00
        E 0 90 4a 6b
        E 0 90 62 6b
        E 120 80 4a 00
        E 0 80 62 00
        E 0 90 62 6b
        E 120 80 62 00
        E 0 90 1b 6a
        E 0 90 33 6a
        E 0 90 4b 6a
        E 0 90 63 6a
        E 0 90 74 64
        E 120 80 1b 00
        E 0 80 33 00
        E 0 80 4b 00
        E 0 80 63 00
        E 0 90 63 6a
        E 120 80 63 00
        E 0 90 33 6a
        E 0 90 4b 6a
        E 0 90 63 6a
        E 120 80 33 00
        E 0 80 4b 00
        E 0 80 63 00
        E 0 90 63 6a
        E 120 80 63 00
        E 0 90 1b 6a
        E 0 90 33 6a
        E 0 90 4b 6a
        E 0 90 63 6a
        E 120 80 1b 00
        E 0 80 33 00
        E 0 80 4b 00
        E 0 80 63 00
        E 0 90 63 6a
        E 120 80 63 00
        E 0 90 33 6a
        E 0 90 4b 6a
        E 0 90 63 6a
        E 120 80 33 00
        E 0 80 4b 00
        E 0 80 63 00
        E 0 90 63 6a
        E 120 80 63 00
        E 0 90 1b 6b
        E 0 90 33 6b
        E 0 90 4b 6b
        E 0 90 63 6b
        E 120 80 1b 00
        E 0 80 33 00
        E 0 80 4b 00
        E 0 80 63 00
        E 0 90 63 6b
        E 120 80 63 00
        E 0 90 33 6b
        E 0 90 4b 6b
        E 0 90 63 6b
        E 120 80 33 00
        E 0 80 4b 00
        E 0 80 63 00
        E 0 90 63 6b
        E 120 80 63 00
        E 0 90 33 6b
        E 0 90 4b 6b
        E 0 90 63 6b
        E 120 80 33 00
        E 0 80 4b 00
        E 0 80 63 00
        E 0 90 63 6b
        E 120 80 63 00
        E 0 90 4b 6b
        E 0 90 63 6b
        E 120 80 4b 00
        E 0 80 63 00
        E 0 90 63 6b
        E 120 80 63 00
        E 0 90 1a 6b
        E 0 90 32 6b
        E 0 90 4a 6b
        E 0 90 62 6b
        E 120 80 74 00
        E 0 80 1a 00
        E 0 80 32 00
        E 0 80 4a 00
        E 0 80 62 00
        E 0 90 62 6b
        E 120 80 62 00
        E 0 90 32 6b
        E 0 90 4a 6b
        E 0 90 62 6b
        E 120 80 32 00
        E 0 80 4a 00
        E 0 80 62 00
        E 0 90 62 6b
        E 120 80 62 00
        E 0 90 1a 6b
        E 0 90 32 6b
        E 0 90 4a 6b
        E 0 90 62 6b
        E 120 80 1a 00
        E 0 80 32 00
        E 0 80 4a 00
        E 0 80 62 00
        E 0 90 62 6b
        E 120 80 62 00
        E 0 90 4a 6b
        E 0 90 62 6b
        E 120 80 4a 00
        E 0 80 62 00
        E 0 90 62 6b
        E 120 80 62 00
        E 0 90 19 6b
        E 0 90 31 6b
        E 0 90 49 6b
        E 0 90 61 6b
        E 120 80 19 00
        E 0 80 31 00
        E 0 80 49 00
        E 0 80 61 00
        E 0 90 61 6b
        E 120 80 61 00
        E 0 90 31 6b
        E 0 90 49 6b
        E 0 90 61 6b
        E 120 80 31 00
        E 0 80 49 00
        E 0 80 61 00
        E 0 90 61 6b
        E 120 80 61 00
        E 0 90 19 6b
        E 0 90 31 6b
        E 0 90 49 6b
        E 0 90 61 6b
        E 120 80 19 00
        E 0 80 31 00
        E 0 80 49 00
        E 0 80 61 00
        E 0 90 61 6b
        E 120 80 61 00
        E 0 90 49 6b
        E 0 90 61 6b
        E 120 80 49 00
        E 0 80 61 00
        E 0 90 61 6b
        <X 120 0
          /wFbZW5kX3BiIHNvbmdfdHJhaW5lcl9wYl8xXQ==
        >
        <X 0 0
          /wFbYmVnaW5fcGcgc29uZ190cmFpbmVyX3BnXzJd
        >
        E 0 80 61 00
        E 0 90 1a 6a
        E 0 90 32 6a
        E 0 90 4a 6a
        E 0 90 62 6a
        E 120 80 1a 00
        E 0 80 32 00
        E 0 80 4a 00
        E 0 80 62 00
        E 0 90 62 6a
        E 120 80 62 00
        E 0 90 32 6a
        E 0 90 4a 6a
        E 0 90 62 6a
        E 120 80 32 00
        E 0 80 4a 00
        E 0 80 62 00
        E 0 90 62 6a
        E 120 80 62 00
        E 0 90 32 6a
        E 0 90 4a 6a
        E 0 90 62 6a
        E 120 80 32 00
        E 0 80 4a 00
        E 0 80 62 00
        E 0 90 62 6a
        E 120 80 62 00
        E 0 90 4a 6a
        E 0 90 62 6a
        E 120 80 4a 00
        E 0 80 62 00
        E 0 90 62 6a
        E 120 80 62 00
        E 0 90 1a 6b
        E 0 90 32 6b
        E 0 90 4a 6b
        E 0 90 62 6b
        E 120 80 1a 00
        E 0 80 32 00
        E 0 80 4a 00
        E 0 80 62 00
        E 0 90 62 6b
        E 120 80 62 00
        E 0 90 32 6b
        E 0 90 4a 6b
        E 0 90 62 6b
        E 120 80 32 00
        E 0 80 4a 00
        E 0 80 62 00
        E 0 90 62 6b
        E 120 80 62 00
        E 0 90 32 6b
        E 0 90 4a 6b
        E 0 90 62 6b
        E 120 80 32 00
        E 0 80 4a 00
        E 0 80 62 00
        E 0 90 62 6b
        E 120 80 62 00
        E 0 90 4a 6b
        E 0 90 62 6b
        E 120 80 4a 00
        E 0 80 62 00
        E 0 90 62 6b
        E 120 80 62 00
        E 0 90 1b 68
        E 0 90 33 68
        E 0 90 4b 68
        E 0 90 63 68
        E 120 80 1b 00
        E 0 80 33 00
        E 0 80 4b 00
        E 0 80 63 00
        E 0 90 63 68
        E 120 80 63 00
        E 0 90 33 68
        E 0 90 4b 68
        E 0 90 63 68
        E 120 80 33 00
        E 0 80 4b 00
        E 0 80 63 00
        E 0 90 63 68
        E 120 80 63 00
        E 0 90 33 68
        E 0 90 4b 68
        E 0 90 63 68
        E 120 80 33 00
        E 0 80 4b 00
        E 0 80 63 00
        E 0 90 63 68
        E 120 80 63 00
        E 0 90 4b 68
        E 0 90 63 68
        E 120 80 4b 00
        E 0 80 63 00
        E 0 90 63 68
        E 120 80 63 00
        E 0 90 19 6b
        E 0 90 31 6b
        E 0 90 49 6b
        E 0 90 61 6b
        E 120 80 19 00
        E 0 80 31 00
        E 0 80 49 00
        E 0 80 61 00
        E 0 90 61 6b
        E 120 80 61 00
        E 0 90 31 6b
        E 0 90 49 6b
        E 0 90 61 6b
        E 120 80 31 00
        E 0 80 49 00
        E 0 80 61 00
        E 0 90 61 6b
        E 120 80 61 00
        E 0 90 19 6b
        E 0 90 31 6b
        E 0 90 49 6b
        E 0 90 61 6b
        E 120 80 19 00
        E 0 80 31 00
        E 0 80 49 00
        E 0 80 61 00
        E 0 90 61 6b
        E 120 80 61 00
        E 0 90 49 6b
        E 0 90 61 6b
        E 120 80 49 00
        E 0 80 61 00
        E 0 90 61 6b
        E 120 80 61 00
        E 0 90 1a 6a
        E 0 90 32 6a
        E 0 90 4a 6a
        E 0 90 62 6a
        E 120 80 1a 00
        E 0 80 32 00
        E 0 80 4a 00
        E 0 80 62 00
        E 0 90 62 6a
        E 120 80 62 00
        E 0 90 32 6a
        E 0 90 4a 6a
        E 0 90 62 6a
        E 120 80 32 00
        E 0 80 4a 00
        E 0 80 62 00
        E 0 90 62 6a
        E 120 80 62 00
        E 0 90 32 6a
        E 0 90 4a 6a
        E 0 90 62 6a
        E 120 80 32 00
        E 0 80 4a 00
        E 0 80 62 00
        E 0 90 62 6a
        E 120 80 62 00
        E 0 90 4a 6a
        E 0 90 62 6a
        E 120 80 4a 00
        E 0 80 62 00
        E 0 90 62 6a
        E 120 80 62 00
        E 0 90 1a 6b
        E 0 90 32 6b
        E 0 90 4a 6b
        E 0 90 62 6b
        E 120 80 1a 00
        E 0 80 32 00
        E 0 80 4a 00
        E 0 80 62 00
        E 0 90 62 6b
        E 120 80 62 00
        E 0 90 32 6b
        E 0 90 4a 6b
        E 0 90 62 6b
        E 120 80 32 00
        E 0 80 4a 00
        E 0 80 62 00
        E 0 90 62 6b
        E 120 80 62 00
        E 0 90 32 6b
        E 0 90 4a 6b
        E 0 90 62 6b
        E 120 80 32 00
        E 0 80 4a 00
        E 0 80 62 00
        E 0 90 62 6b
        E 120 80 62 00
        E 0 90 4a 6b
        E 0 90 62 6b
        E 120 80 4a 00
        E 0 80 62 00
        E 0 90 62 6b
        E 120 80 62 00
        E 0 90 1b 68
        E 0 90 33 68
        E 0 90 4b 68
        E 0 90 63 68
        E 120 80 1b 00
        E 0 80 33 00
        E 0 80 4b 00
        E 0 80 63 00
        E 0 90 63 68
        E 120 80 63 00
        E 0 90 33 68
        E 0 90 4b 68
        E 0 90 63 68
        E 120 80 33 00
        E 0 80 4b 00
        E 0 80 63 00
        E 0 90 63 68
        E 120 80 63 00
        E 0 90 33 68
        E 0 90 4b 68
        E 0 90 63 68
        E 120 80 33 00
        E 0 80 4b 00
        E 0 80 63 00
        E 0 90 63 68
        E 120 80 63 00
        E 0 90 4b 68
        E 0 90 63 68
        E 120 80 4b 00
        E 0 80 63 00
        E 0 90 63 68
        E 120 80 63 00
        E 0 90 19 6b
        E 0 90 31 6b
        E 0 90 49 6b
        E 0 90 61 6b
        E 120 80 19 00
        E 0 80 31 00
        E 0 80 49 00
        E 0 80 61 00
        E 0 90 61 6b
        E 120 80 61 00
        E 0 90 31 6b
        E 0 90 49 6b
        E 0 90 61 6b
        E 120 80 31 00
        E 0 80 49 00
        E 0 80 61 00
        E 0 90 61 6b
        E 120 80 61 00
        E 0 90 19 6b
        E 0 90 31 6b
        E 0 90 49 6b
        E 0 90 61 6b
        E 120 80 19 00
        E 0 80 31 00
        E 0 80 49 00
        E 0 80 61 00
        E 0 90 61 6b
        E 120 80 61 00
        E 0 90 31 6b
        E 0 90 49 6b
        E 0 90 61 6b
        E 120 80 31 00
        E 0 80 49 00
        E 0 80 61 00
        E 0 90 61 6b
        E 120 80 61 00
        E 0 90 19 6b
        E 0 90 31 6b
        E 0 90 49 6b
        E 0 90 61 6b
        E 120 80 19 00
        E 0 80 31 00
        E 0 80 49 00
        E 0 80 61 00
        E 0 90 61 6b
        E 120 80 61 00
        E 0 90 31 6b
        E 0 90 49 6b
        E 0 90 61 6b
        E 120 80 31 00
        E 0 80 49 00
        E 0 80 61 00
        E 0 90 61 6b
        E 120 80 61 00
        E 0 90 19 6b
        E 0 90 31 6b
        E 0 90 49 6b
        E 0 90 61 6b
        E 120 80 19 00
        E 0 80 31 00
        E 0 80 49 00
        E 0 80 61 00
        E 0 90 61 6b
        E 120 80 61 00
        E 0 90 31 6b
        E 0 90 49 6b
        E 0 90 61 6b
        E 120 80 31 00
        E 0 80 49 00
        E 0 80 61 00
        E 0 90 61 6b
        E 120 80 61 00
        E 0 90 19 6b
        E 0 90 31 6b
        E 0 90 49 6b
        E 0 90 61 6b
        E 120 80 19 00
        E 0 80 31 00
        E 0 80 49 00
        E 0 80 61 00
        E 0 90 61 6b
        E 120 80 61 00
        E 0 90 31 6b
        E 0 90 49 6b
        E 0 90 61 6b
        E 120 80 31 00
        E 0 80 49 00
        E 0 80 61 00
        E 0 90 61 6b
        E 120 80 61 00
        E 0 90 31 6b
        E 0 90 49 6b
        E 0 90 61 6b
        E 120 80 31 00
        E 0 80 49 00
        E 0 80 61 00
        E 0 90 61 6b
        E 120 80 61 00
        E 0 90 49 6b
        E 0 90 61 6b
        E 120 80 49 00
        E 0 80 61 00
        E 0 90 61 6b
        E 120 80 61 00
        E 0 90 1a 6b
        E 0 90 32 6b
        E 0 90 4a 6b
        E 0 90 62 6b
        E 120 80 1a 00
        E 0 80 32 00
        E 0 80 4a 00
        E 0 80 62 00
        E 0 90 62 6b
        E 120 80 62 00
        E 0 90 32 6b
        E 0 90 4a 6b
        E 0 90 62 6b
        E 120 80 32 00
        E 0 80 4a 00
        E 0 80 62 00
        E 0 90 62 6b
        E 120 80 62 00
        E 0 90 1a 6b
        E 0 90 32 6b
        E 0 90 4a 6b
        E 0 90 62 6b
        E 120 80 1a 00
        E 0 80 32 00
        E 0 80 4a 00
        E 0 80 62 00
        E 0 90 62 6b
        E 120 80 62 00
        E 0 90 32 6b
        E 0 90 4a 6b
        E 0 90 62 6b
        E 120 80 32 00
        E 0 80 4a 00
        E 0 80 62 00
        E 0 90 62 6b
        <X 120 0
          /wFbYmVnaW5fcGIgc29uZ190cmFpbmVyX3BiXzNd
        >
        <X 0 0
          /wFbZW5kX3BiIHNvbmdfdHJhaW5lcl9wYl8yXQ==
        >
        E 0 80 62 00
        E 0 90 1a 6b
        E 0 90 32 6b
        E 0 90 4a 6b
        E 0 90 62 6b
        E 120 80 1a 00
        E 0 80 32 00
        E 0 80 4a 00
        E 0 80 62 00
        E 0 90 62 6b
        E 120 80 62 00
        E 0 90 32 6b
        E 0 90 4a 6b
        E 0 90 62 6b
        E 120 80 32 00
        E 0 80 4a 00
        E 0 80 62 00
        E 0 90 62 6b
        E 120 80 62 00
        E 0 90 1a 6b
        E 0 90 32 6b
        E 0 90 4a 6b
        E 0 90 62 6b
        E 120 80 1a 00
        E 0 80 32 00
        E 0 80 4a 00
        E 0 80 62 00
        E 0 90 62 6b
        E 120 80 62 00
        E 0 90 32 6a
        E 0 90 4a 6a
        E 0 90 62 6a
        E 120 80 32 00
        E 0 80 4a 00
        E 0 80 62 00
        E 0 90 62 6a
        E 120 80 62 00
        E 0 90 1a 6a
        E 0 90 32 6a
        E 0 90 4a 6a
        E 0 90 62 6a
        E 120 80 1a 00
        E 0 80 32 00
        E 0 80 4a 00
        E 0 80 62 00
        E 0 90 62 6a
        E 120 80 62 00
        E 0 90 32 6a
        E 0 90 4a 6a
        E 0 90 62 6a
        E 120 80 32 00
        E 0 80 4a 00
        E 0 80 62 00
        E 0 90 62 6a
        E 120 80 62 00
        E 0 90 32 6a
        E 0 90 4a 6a
        E 0 90 62 6a
        E 120 80 32 00
        E 0 80 4a 00
        E 0 80 62 00
        E 0 90 62 6a
        E 120 80 62 00
        E 0 90 4a 6a
        E 0 90 62 6a
        E 120 80 4a 00
        E 0 80 62 00
        E 0 90 62 6a
        E 120 80 62 00
        E 0 90 1a 68
        E 0 90 32 68
        E 0 90 4a 68
        E 0 90 62 68
        E 120 80 1a 00
        E 0 80 32 00
        E 0 80 4a 00
        E 0 80 62 00
        E 0 90 62 68
        E 120 80 62 00
        E 0 90 32 68
        E 0 90 4a 68
        E 0 90 62 68
        E 120 80 32 00
        E 0 80 4a 00
        E 0 80 62 00
        E 0 90 62 68
        E 120 80 62 00
        E 0 90 32 68
        E 0 90 4a 68
        E 0 90 62 68
        E 120 80 32 00
        E 0 80 4a 00
        E 0 80 62 00
        E 0 90 62 68
        E 120 80 62 00
        E 0 90 49 6b
        E 0 90 61 6b
        E 120 80 49 00
        E 0 80 61 00
        E 0 90 61 6b
        E 120 80 61 00
        E 0 90 19 6b
        E 0 90 31 6b
        E 0 90 49 6b
        E 0 90 61 6b
        E 120 80 19 00
        E 0 80 31 00
        E 0 80 49 00
        E 0 80 61 00
        E 0 90 61 6b
        E 120 80 61 00
        E 0 90 31 6b
        E 0 90 49 6b
        E 0 90 61 6b
        E 120 80 31 00
        E 0 80 49 00
        E 0 80 61 00
        E 0 90 61 6b
        E 120 80 61 00
        E 0 90 31 6b
        E 0 90 49 6b
        E 0 90 61 6b
        E 120 80 31 00
        E 0 80 49 00
        E 0 80 61 00
        E 0 90 61 6b
        E 120 80 61 00
        E 0 90 49 6b
        E 0 90 61 6b
        E 120 80 49 00
        E 0 80 61 00
        E 0 90 61 6b
        E 120 80 61 00
        E 0 90 1a 6b
        E 0 90 32 6b
        E 0 90 4a 6b
        E 0 90 62 6b
        E 120 80 1a 00
        E 0 80 32 00
        E 0 80 4a 00
        E 0 80 62 00
        E 0 90 62 6b
        E 120 80 62 00
        E 0 90 32 6b
        E 0 90 4a 6b
        E 0 90 62 6b
        E 120 80 32 00
        E 0 80 4a 00
        E 0 80 62 00
        E 0 90 62 6b
        E 120 80 62 00
        E 0 90 1a 6b
        E 0 90 32 6b
        E 0 90 4a 6b
        E 0 90 62 6b
        E 120 80 1a 00
        E 0 80 32 00
        E 0 80 4a 00
        E 0 80 62 00
        E 0 90 62 6b
        E 120 80 62 00
        E 0 90 32 6a
        E 0 90 4a 6a
        E 0 90 62 6a
        E 120 80 32 00
        E 0 80 4a 00
        E 0 80 62 00
        E 0 90 62 6a
        E 120 80 62 00
        E 0 90 1a 6a
        E 0 90 32 6a
        E 0 90 4a 6a
        E 0 90 62 6a
        E 120 80 1a 00
        E 0 80 32 00
        E 0 80 4a 00
        E 0 80 62 00
        E 0 90 62 6a
        E 120 80 62 00
        E 0 90 32 6a
        E 0 90 4a 6a
        E 0 90 62 6a
        E 120 80 32 00
        E 0 80 4a 00
        E 0 80 62 00
        E 0 90 62 6a
        E 120 80 62 00
        E 0 90 32 6a
        E 0 90 4a 6a
        E 0 90 62 6a
        E 120 80 32 00
        E 0 80 4a 00
        E 0 80 62 00
        E 0 90 62 6a
        E 120 80 62 00
        E 0 90 4a 6a
        E 0 90 62 6a
        E 120 80 4a 00
        E 0 80 62 00
        E 0 90 62 6a
        E 120 80 62 00
        E 0 90 19 6a
        E 0 90 31 6a
        E 0 90 49 6a
        E 0 90 61 6a
        E 120 80 19 00
        E 0 80 31 00
        E 0 80 49 00
        E 0 80 61 00
        E 0 90 61 6a
        E 120 80 61 00
        E 0 90 31 6a
        E 0 90 49 6a
        E 0 90 61 6a
        E 120 80 31 00
        E 0 80 49 00
        E 0 80 61 00
        E 0 90 61 6a
        E 120 80 61 00
        E 0 90 19 6a
        E 0 90 31 6a
        E 0 90 49 6a
        E 0 90 61 6a
        E 120 80 19 00
        E 0 80 31 00
        E 0 80 49 00
        E 0 80 61 00
        E 0 90 61 6a
        E 120 80 61 00
        E 0 90 49 68
        E 0 90 61 68
        E 120 80 49 00
        E 0 80 61 00
        E 0 90 61 68
        E 120 80 61 00
        E 0 90 19 68
        E 0 90 31 68
        E 0 90 49 68
        E 0 90 61 68
        E 120 80 19 00
        E 0 80 31 00
        E 0 80 49 00
        E 0 80 61 00
        E 0 90 61 68
        E 120 80 61 00
        E 0 90 31 68
        E 0 90 49 68
        E 0 90 61 68
        E 120 80 31 00
        E 0 80 49 00
        E 0 80 61 00
        E 0 90 61 68
        E 120 80 61 00
        E 0 90 19 68
        E 0 90 31 68
        E 0 90 49 68
        E 0 90 61 68
        E 120 80 19 00
        E 0 80 31 00
        E 0 80 49 00
        E 0 80 61 00
        E 0 90 61 68
        E 120 80 61 00
        E 0 90 31 68
        E 0 90 49 68
        E 0 90 61 68
        E 120 80 31 00
        E 0 80 49 00
        E 0 80 61 00
        E 0 90 61 68
        E 120 80 61 00
        E 0 90 19 68
        E 0 90 31 68
        E 0 90 49 68
        E 0 90 61 68
        E 120 80 19 00
        E 0 80 31 00
        E 0 80 49 00
        E 0 80 61 00
        E 0 90 61 68
        E 120 80 61 00
        E 0 90 31 68
        E 0 90 49 68
        E 0 90 61 68
        E 120 80 31 00
        E 0 80 49 00
        E 0 80 61 00
        E 0 90 61 68
        E 120 80 61 00
        E 0 90 31 68
        E 0 90 49 68
        E 0 90 61 68
        E 120 80 31 00
        E 0 80 49 00
        E 0 80 61 00
        E 0 90 61 68
        E 120 80 61 00
        E 0 90 49 68
        E 0 90 61 68
        E 120 80 49 00
        E 0 80 61 00
        E 0 90 61 68
        <X 120 0
          /wFbZW5kX3BiIHNvbmdfdHJhaW5lcl9wYl8zXQ==
        >
        <X 0 0
          /wFbYmVnaW5fcGIgc29uZ190cmFpbmVyX3BiXzRd
        >
        E 0 80 61 00
        E 0 90 19 6b
        E 0 90 31 6b
        E 0 90 49 6b
        E 0 90 61 6b
        E 0 90 74 64
        E 120 80 19 00
        E 0 80 31 00
        E 0 80 49 00
        E 0 80 61 00
        E 0 90 61 6b
        E 120 80 61 00
        E 0 90 31 6b
        E 0 90 49 6b
        E 0 90 61 6b
        E 120 80 31 00
        E 0 80 49 00
        E 0 80 61 00
        E 0 90 61 6b
        E 120 80 61 00
        E 0 90 19 6b
        E 0 90 31 6b
        E 0 90 49 6b
        E 0 90 61 6b
        E 120 80 19 00
        E 0 80 31 00
        E 0 80 49 00
        E 0 80 61 00
        E 0 90 61 6b
        E 120 80 61 00
        E 0 90 31 6b
        E 0 90 49 6b
        E 0 90 61 6b
        E 120 80 31 00
        E 0 80 49 00
        E 0 80 61 00
        E 0 90 61 6b
        <X 120 0
          /wFbcGJfbm9ybSBzb25nX3RyYWluZXJfcGJfNF0=
        >
        E 0 80 61 00
        E 0 90 19 68
        E 0 90 31 68
        E 0 90 49 68
        E 0 90 61 68
        E 120 80 19 00
        E 0 80 31 00
        E 0 80 49 00
        E 0 80 61 00
        E 0 90 61 68
        E 120 80 61 00
        E 0 90 31 68
        E 0 90 49 68
        E 0 90 61 68
        E 120 80 31 00
        E 0 80 49 00
        E 0 80 61 00
        E 0 90 61 68
        E 120 80 61 00
        E 0 90 31 68
        E 0 90 49 68
        E 0 90 61 68
        E 120 80 31 00
        E 0 80 49 00
        E 0 80 61 00
        E 0 90 61 68
        E 120 80 61 00
        E 0 90 49 68
        E 0 90 61 68
        E 120 80 49 00
        E 0 80 61 00
        E 0 90 61 68
        E 120 80 61 00
        E 0 90 19 64
        E 0 90 31 64
        E 0 90 49 64
        E 0 90 61 64
        E 120 80 19 00
        E 0 80 31 00
        E 0 80 49 00
        E 0 80 61 00
        E 0 90 61 64
        E 120 80 61 00
        E 0 90 31 64
        E 0 90 49 64
        E 0 90 61 64
        E 120 80 31 00
        E 0 80 49 00
        E 0 80 61 00
        E 0 90 61 64
        E 120 80 61 00
        E 0 90 19 64
        E 0 90 31 64
        E 0 90 49 64
        E 0 90 61 64
        E 120 80 19 00
        E 0 80 31 00
        E 0 80 49 00
        E 0 80 61 00
        E 0 90 61 64
        E 120 80 61 00
        E 0 90 31 64
        E 0 90 49 64
        E 0 90 61 64
        E 120 80 31 00
        E 0 80 49 00
        E 0 80 61 00
        E 0 90 61 64
        E 120 80 61 00
        E 0 90 19 64
        E 0 90 31 64
        E 0 90 49 64
        E 0 90 61 64
        E 120 80 19 00
        E 0 80 31 00
        E 0 80 49 00
        E 0 80 61 00
        E 0 90 61 64
        E 120 80 61 00
        E 0 90 31 64
        E 0 90 49 64
        E 0 90 61 64
        E 120 80 31 00
        E 0 80 49 00
        E 0 80 61 00
        E 0 90 61 64
        E 120 80 61 00
        E 0 90 31 64
        E 0 90 49 64
        E 0 90 61 64
        E 120 80 31 00
        E 0 80 49 00
        E 0 80 61 00
        E 0 90 61 64
        E 120 80 61 00
        E 0 90 49 64
        E 0 90 61 64
        E 120 80 49 00
        E 0 80 61 00
        E 0 90 61 64
        <X 120 0
          /wFbZW5kX3BiIHNvbmdfdHJhaW5lcl9wYl80XQ==
        >
        E 0 80 74 00
        E 0 80 61 00
        E 0 90 19 6b
        E 0 90 31 6b
        E 0 90 49 6b
        E 0 90 61 6b
        E 120 80 19 00
        E 0 80 31 00
        E 0 80 49 00
        E 0 80 61 00
        E 0 90 61 6b
        E 120 80 61 00
        E 0 90 31 6b
        E 0 90 49 6b
        E 0 90 61 6b
        E 120 80 31 00
        E 0 80 49 00
        E 0 80 61 00
        E 0 90 61 6b
        E 120 80 61 00
        E 0 90 19 6b
        E 0 90 31 6b
        E 0 90 49 6b
        E 0 90 61 6b
        E 120 80 19 00
        E 0 80 31 00
        E 0 80 49 00
        E 0 80 61 00
        E 0 90 61 6b
        E 120 80 61 00
        E 0 90 31 6b
        E 0 90 49 6b
        E 0 90 61 6b
        E 120 80 31 00
        E 0 80 49 00
        E 0 80 61 00
        E 0 90 61 6b
        E 120 80 61 00
        E 0 90 19 68
        E 0 90 31 68
        E 0 90 49 68
        E 0 90 61 68
        E 120 80 19 00
        E 0 80 31 00
        E 0 80 49 00
        E 0 80 61 00
        E 0 90 61 68
        E 120 80 61 00
        E 0 90 31 68
        E 0 90 49 68
        E 0 90 61 68
        E 120 80 31 00
        E 0 80 49 00
        E 0 80 61 00
        E 0 90 61 68
        E 120 80 61 00
        E 0 90 31 68
        E 0 90 49 68
        E 0 90 61 68
        E 120 80 31 00
        E 0 80 49 00
        E 0 80 61 00
        E 0 90 61 68
        E 120 80 61 00
        E 0 90 49 68
        E 0 90 61 68
        E 120 80 49 00
        E 0 80 61 00
        E 0 90 61 68
        E 120 80 61 00
        E 0 90 19 64
        E 0 90 31 64
        E 0 90 49 64
        E 0 90 61 64
        E 120 80 19 00
        E 0 80 31 00
        E 0 80 49 00
        E 0 80 61 00
        E 0 90 61 64
        E 120 80 61 00
        E 0 90 31 64
        E 0 90 49 64
        E 0 90 61 64
        E 120 80 31 00
        E 0 80 49 00
        E 0 80 61 00
        E 0 90 61 64
        E 120 80 61 00
        E 0 90 19 64
        E 0 90 31 64
        E 0 90 49 64
        E 0 90 61 64
        E 120 80 19 00
        E 0 80 31 00
        E 0 80 49 00
        E 0 80 61 00
        E 0 90 61 64
        E 120 80 61 00
        E 0 90 31 64
        E 0 90 49 64
        E 0 90 61 64
        E 120 80 31 00
        E 0 80 49 00
        E 0 80 61 00
        E 0 90 61 64
        E 120 80 61 00
        E 0 90 19 64
        E 0 90 31 64
        E 0 90 49 64
        E 0 90 61 64
        E 120 80 19 00
        E 0 80 31 00
        E 0 80 49 00
        E 0 80 61 00
        E 0 90 61 64
        E 120 80 61 00
        E 0 90 31 64
        E 0 90 49 64
        E 0 90 61 64
        E 120 80 31 00
        E 0 80 49 00
        E 0 80 61 00
        E 0 90 61 64
        E 120 80 61 00
        E 0 90 31 64
        E 0 90 49 64
        E 0 90 61 64
        E 120 80 31 00
        E 0 80 49 00
        E 0 80 61 00
        E 0 90 61 64
        E 120 80 61 00
        E 0 90 49 64
        E 0 90 61 64
        E 120 80 49 00
        E 0 80 61 00
        E 0 90 61 64
        <X 120 0
          /wFbYmVnaW5fcGIgc29uZ190cmFpbmVyX3BiXzVd
        >
        E 0 80 61 00
        E 0 90 19 6b
        E 0 90 31 6b
        E 0 90 49 6b
        E 0 90 61 6b
        E 0 90 6c 69
        E 120 80 19 00
        E 0 80 31 00
        E 0 80 49 00
        E 0 80 61 00
        E 0 80 6c 00
        E 0 90 61 6b
        E 120 80 61 00
        E 0 90 31 6b
        E 0 90 49 6b
        E 0 90 61 6b
        E 120 80 31 00
        E 0 80 49 00
        E 0 80 61 00
        E 0 90 61 6b
        E 120 80 61 00
        E 0 90 31 6b
        E 0 90 49 6b
        E 0 90 61 6b
        E 120 80 31 00
        E 0 80 49 00
        E 0 80 61 00
        E 0 90 61 6b
        E 120 80 61 00
        E 0 90 49 6b
        E 0 90 61 6b
        E 120 80 49 00
        E 0 80 61 00
        E 0 90 61 6b
        <X 120 0
          /wFbcGJfbm9ybSBzb25nX3RyYWluZXJfcGJfNV0=
        >
        E 0 80 61 00
        E 0 90 18 6c
        E 0 90 30 6c
        E 0 90 48 6c
        E 0 90 60 6c
        E 120 80 18 00
        E 0 80 30 00
        E 0 80 48 00
        E 0 80 60 00
        E 0 90 60 6c
        E 120 80 60 00
        E 0 90 30 6c
        E 0 90 48 6c
        E 0 90 60 6c
        E 120 80 30 00
        E 0 80 48 00
        E 0 80 60 00
        E 0 90 60 6c
        E 120 80 60 00
        E 0 90 30 6c
        E 0 90 48 6c
        E 0 90 60 6c
        E 120 80 30 00
        E 0 80 48 00
        E 0 80 60 00
        E 0 90 60 6c
        E 120 80 60 00
        E 0 90 48 6c
        E 0 90 60 6c
        E 120 80 48 00
        E 0 80 60 00
        E 0 90 60 6c
        E 120 80 60 00
        E 0 90 19 64
        E 0 90 31 64
        E 0 90 49 64
        E 0 90 61 64
        E 0 90 6c 65
        E 120 80 19 00
        E 0 80 31 00
        E 0 80 49 00
        E 0 80 61 00
        E 0 80 6c 00
        E 0 90 61 64
        E 120 80 61 00
        E 0 90 31 64
        E 0 90 49 64
        E 0 90 61 64
        E 120 80 31 00
        E 0 80 49 00
        E 0 80 61 00
        E 0 90 61 64
        E 120 80 61 00
        E 0 90 19 64
        E 0 90 31 64
        E 0 90 49 64
        E 0 90 61 64
        E 120 80 19 00
        E 0 80 31 00
        E 0 80 49 00
        E 0 80 61 00
        E 0 90 61 64
        E 120 80 61 00
        E 0 90 31 64
        E 0 90 49 64
        E 0 90 61 64
        E 120 80 31 00
        E 0 80 49 00
        E 0 80 61 00
        E 0 90 61 64
        E 120 80 61 00
        E 0 90 19 64
        E 0 90 31 64
        E 0 90 49 64
        E 0 90 61 64
        E 120 80 19 00
        E 0 80 31 00
        E 0 80 49 00
        E 0 80 61 00
        E 0 90 61 64
        E 120 80 61 00
        E 0 90 31 64
        E 0 90 49 64
        E 0 90 61 64
        E 120 80 31 00
        E 0 80 49 00
        E 0 80 61 00
        E 0 90 61 64
        E 120 80 61 00
        E 0 90 19 64
        E 0 90 31 64
        E 0 90 49 64
        E 0 90 61 64
        E 120 80 19 00
        E 0 80 31 00
        E 0 80 49 00
        E 0 80 61 00
        E 0 90 61 64
        E 120 80 61 00
        E 0 90 31 64
        E 0 90 49 64
        E 0 90 61 64
        E 120 80 31 00
        E 0 80 49 00
        E 0 80 61 00
        E 0 90 61 64
        <X 120 0
          /wFbZW5kX3BiIHNvbmdfdHJhaW5lcl9wYl81XQ==
        >
        <X 0 0
          /wFbYmVnaW5fcGIgc29uZ190cmFpbmVyX3BiXzZd
        >
        E 0 80 61 00
        E 0 90 19 64
        E 0 90 31 64
        E 0 90 49 64
        E 0 90 61 64
        E 120 80 19 00
        E 0 80 31 00
        E 0 80 49 00
        E 0 80 61 00
        E 0 90 61 64
        E 120 80 61 00
        E 0 90 31 64
        E 0 90 49 64
        E 0 90 61 64
        E 120 80 31 00
        E 0 80 49 00
        E 0 80 61 00
        E 0 90 61 64
        E 120 80 61 00
        E 0 90 31 64
        E 0 90 49 64
        E 0 90 61 64
        E 120 80 31 00
        E 0 80 49 00
        E 0 80 61 00
        E 0 90 61 64
        E 120 80 61 00
        E 0 90 49 64
        E 0 90 61 64
        E 120 80 49 00
        E 0 80 61 00
        E 0 90 61 64
        E 120 80 61 00
        E 0 90 19 65
        E 0 90 31 65
        E 0 90 49 65
        E 0 90 61 65
        E 120 80 19 00
        E 0 80 31 00
        E 0 80 49 00
        E 0 80 61 00
        E 0 90 61 65
        E 120 80 61 00
        E 0 90 31 65
        E 0 90 49 65
        E 0 90 61 65
        E 120 80 31 00
        E 0 80 49 00
        E 0 80 61 00
        E 0 90 61 65
        E 120 80 61 00
        E 0 90 19 65
        E 0 90 31 65
        E 0 90 49 65
        E 0 90 61 65
        E 120 80 19 00
        E 0 80 31 00
        E 0 80 49 00
        E 0 80 61 00
        E 0 90 61 65
        E 120 80 61 00
        E 0 90 31 65
        E 0 90 49 65
        E 0 90 61 65
        E 120 80 31 00
        E 0 80 49 00
        E 0 80 61 00
        E 0 90 61 65
        E 120 80 61 00
        E 0 90 19 65
        E 0 90 31 65
        E 0 90 49 65
        E 0 90 61 65
        E 120 80 19 00
        E 0 80 31 00
        E 0 80 49 00
        E 0 80 61 00
        E 0 90 61 65
        E 120 80 61 00
        E 0 90 31 65
        E 0 90 49 65
        E 0 90 61 65
        E 120 80 31 00
        E 0 80 49 00
        E 0 80 61 00
        E 0 90 61 65
        E 120 80 61 00
        E 0 90 31 65
        E 0 90 49 65
        E 0 90 61 65
        E 120 80 31 00
        E 0 80 49 00
        E 0 80 61 00
        E 0 90 61 65
        E 120 80 61 00
        E 0 90 49 65
        E 0 90 61 65
        E 120 80 49 00
        E 0 80 61 00
        E 0 90 61 65
        E 120 80 61 00
        E 0 90 18 65
        E 0 90 30 65
        E 0 90 48 65
        E 0 90 60 65
        E 120 80 18 00
        E 0 80 30 00
        E 0 80 48 00
        E 0 80 60 00
        E 0 90 60 65
        E 120 80 60 00
        E 0 90 30 65
        E 0 90 48 65
        E 0 90 60 65
        E 120 80 30 00
        E 0 80 48 00
        E 0 80 60 00
        E 0 90 60 65
        E 120 80 60 00
        E 0 90 30 65
        E 0 90 48 65
        E 0 90 60 65
        E 120 80 30 00
        E 0 80 48 00
        E 0 80 60 00
        E 0 90 60 65
        E 120 80 60 00
        E 0 90 48 65
        E 0 90 60 65
        E 120 80 48 00
        E 0 80 60 00
        E 0 90 60 65
        E 120 80 60 00
        E 0 90 19 67
        E 0 90 31 67
        E 0 90 49 67
        E 0 90 61 67
        E 120 80 19 00
        E 0 80 31 00
        E 0 80 49 00
        E 0 80 61 00
        E 0 90 61 67
        E 120 80 61 00
        E 0 90 31 67
        E 0 90 49 67
        E 0 90 61 67
        E 120 80 31 00
        E 0 80 49 00
        E 0 80 61 00
        E 0 90 61 67
        E 120 80 61 00
        E 0 90 31 67
        E 0 90 49 67
        E 0 90 61 67
        E 120 80 31 00
        E 0 80 49 00
        E 0 80 61 00
        E 0 90 61 67
        E 120 80 61 00
        E 0 90 49 67
        E 0 90 61 67
        E 120 80 49 00
        E 0 80 61 00
        E 0 90 61 67
        E 120 80 61 00
        E 0 90 1a 64
        E 0 90 32 64
        E 0 90 4a 64
        E 0 90 62 64
        E 120 80 1a 00
        E 0 80 32 00
        E 0 80 4a 00
        E 0 80 62 00
        E 0 90 62 64
        E 120 80 62 00
        E 0 90 32 64
        E 0 90 4a 64
        E 0 90 62 64
        E 120 80 32 00
        E 0 80 4a 00
        E 0 80 62 00
        E 0 90 62 64
        E 120 80 62 00
        E 0 90 1a 64
        E 0 90 32 64
        E 0 90 4a 64
        E 0 90 62 64
        E 120 80 1a 00
        E 0 80 32 00
        E 0 80 4a 00
        E 0 80 62 00
        E 0 90 62 64
        E 120 80 62 00
        E 0 90 32 64
        E 0 90 4a 64
        E 0 90 62 64
        E 120 80 32 00
        E 0 80 4a 00
        E 0 80 62 00
        E 0 90 62 64
        E 120 80 62 00
        E 0 90 1a 64
        E 0 90 32 64
        E 0 90 4a 64
        E 0 90 62 64
        E 120 80 1a 00
        E 0 80 32 00
        E 0 80 4a 00
        E 0 80 62 00
        E 0 90 62 64
        E 120 80 62 00
        E 0 90 32 64
        E 0 90 4a 64
        E 0 90 62 64
        E 120 80 32 00
        E 0 80 4a 00
        E 0 80 62 00
        E 0 90 62 64
        E 120 80 62 00
        E 0 90 32 64
        E 0 90 4a 64
        E 0 90 62 64
        E 120 80 32 00
        E 0 80 4a 00
        E 0 80 62 00
        E 0 90 62 64
        E 120 80 62 00
        E 0 90 4a 64
        E 0 90 62 64
        E 120 80 4a 00
        E 0 80 62 00
        E 0 90 62 64
        E 120 80 62 00
        E 0 90 19 65
        E 0 90 31 65
        E 0 90 49 65
        E 0 90 61 65
        E 120 80 19 00
        E 0 80 31 00
        E 0 80 49 00
        E 0 80 61 00
        E 0 90 61 65
        E 120 80 61 00
        E 0 90 31 65
        E 0 90 49 65
        E 0 90 61 65
        E 120 80 31 00
        E 0 80 49 00
        E 0 80 61 00
        E 0 90 61 65
        E 120 80 61 00
        E 0 90 31 65
        E 0 90 49 65
        E 0 90 61 65
        E 120 80 31 00
        E 0 80 49 00
        E 0 80 61 00
        E 0 90 61 65
        E 120 80 61 00
        E 0 90 49 65
        E 0 90 61 65
        E 120 80 49 00
        E 0 80 61 00
        E 0 90 61 65
        E 120 80 61 00
        E 0 90 1a 64
        E 0 90 32 64
        E 0 90 4a 64
        E 0 90 62 64
        E 120 80 1a 00
        E 0 80 32 00
        E 0 80 4a 00
        E 0 80 62 00
        E 0 90 62 64
        E 120 80 62 00
        E 0 90 32 64
        E 0 90 4a 64
        E 0 90 62 64
        E 120 80 32 00
        E 0 80 4a 00
        E 0 80 62 00
        E 0 90 62 64
        E 120 80 62 00
        E 0 90 1a 64
        E 0 90 32 64
        E 0 90 4a 64
        E 0 90 62 64
        E 120 80 1a 00
        E 0 80 32 00
        E 0 80 4a 00
        E 0 80 62 00
        E 0 90 62 64
        E 120 80 62 00
        E 0 90 32 64
        E 0 90 4a 64
        E 0 90 62 64
        E 120 80 32 00
        E 0 80 4a 00
        E 0 80 62 00
        E 0 90 62 64
        E 120 80 62 00
        E 0 90 1a 65
        E 0 90 32 65
        E 0 90 4a 65
        E 0 90 62 65
        E 120 80 1a 00
        E 0 80 32 00
        E 0 80 4a 00
        E 0 80 62 00
        E 0 90 62 65
        E 120 80 62 00
        E 0 90 32 65
        E 0 90 4a 65
        E 0 90 62 65
        E 120 80 32 00
        E 0 80 4a 00
        E 0 80 62 00
        E 0 90 62 65
        E 120 80 62 00
        E 0 90 32 65
        E 0 90 4a 65
        E 0 90 62 65
        E 120 80 32 00
        E 0 80 4a 00
        E 0 80 62 00
        E 0 90 62 65
        E 120 80 62 00
        E 0 90 4a 65
        E 0 90 62 65
        E 120 80 4a 00
        E 0 80 62 00
        E 0 90 62 65
        E 120 80 62 00
        E 0 90 19 65
        E 0 90 31 65
        E 0 90 49 65
        E 0 90 61 65
        E 120 80 19 00
        E 0 80 31 00
        E 0 80 49 00
        E 0 80 61 00
        E 0 90 61 65
        E 120 80 61 00
        E 0 90 31 65
        E 0 90 49 65
        E 0 90 61 65
        E 120 80 31 00
        E 0 80 49 00
        E 0 80 61 00
        E 0 90 61 65
        E 120 80 61 00
        E 0 90 19 65
        E 0 90 31 65
        E 0 90 49 65
        E 0 90 61 65
        E 120 80 19 00
        E 0 80 31 00
        E 0 80 49 00
        E 0 80 61 00
        E 0 90 61 65
        E 120 80 61 00
        E 0 90 49 65
        E 0 90 61 65
        E 120 80 49 00
        E 0 80 61 00
        E 0 90 61 65
        E 120 80 61 00
        E 0 90 18 65
        E 0 90 30 65
        E 0 90 48 65
        E 0 90 60 65
        E 120 80 18 00
        E 0 80 30 00
        E 0 80 48 00
        E 0 80 60 00
        E 0 90 60 65
        E 120 80 60 00
        E 0 90 30 65
        E 0 90 48 65
        E 0 90 60 65
        E 120 80 30 00
        E 0 80 48 00
        E 0 80 60 00
        E 0 90 60 65
        E 120 80 60 00
        E 0 90 18 65
        E 0 90 30 65
        E 0 90 48 65
        E 0 90 60 65
        E 120 80 18 00
        E 0 80 30 00
        E 0 80 48 00
        E 0 80 60 00
        E 0 90 60 65
        E 120 80 60 00
        E 0 90 48 65
        E 0 90 60 65
        E 120 80 48 00
        E 0 80 60 00
        E 0 90 60 65
        <X 120 0
          /wFbZW5kX3BiIHNvbmdfdHJhaW5lcl9wYl82XQ==
        >
        E 0 80 60 00
        E 0 90 19 64
        E 0 90 31 64
        E 0 90 49 64
        E 0 90 61 64
        E 120 80 19 00
        E 0 80 31 00
        E 0 80 49 00
        E 0 80 61 00
        E 0 90 61 64
        E 120 80 61 00
        E 0 90 31 64
        E 0 90 49 64
        E 0 90 61 64
        E 120 80 31 00
        E 0 80 49 00
        E 0 80 61 00
        E 0 90 61 64
        E 120 80 61 00
        E 0 90 31 64
        E 0 90 49 64
        E 0 90 61 64
        E 120 80 31 00
        E 0 80 49 00
        E 0 80 61 00
        E 0 90 61 64
        E 120 80 61 00
        E 0 90 49 64
        E 0 90 61 64
        E 120 80 49 00
        E 0 80 61 00
        E 0 90 61 64
        E 120 80 61 00
        E 0 90 19 65
        E 0 90 31 65
        E 0 90 49 65
        E 0 90 61 65
        E 120 80 19 00
        E 0 80 31 00
        E 0 80 49 00
        E 0 80 61 00
        E 0 90 61 65
        E 120 80 61 00
        E 0 90 31 65
        E 0 90 49 65
        E 0 90 61 65
        E 120 80 31 00
        E 0 80 49 00
        E 0 80 61 00
        E 0 90 61 65
        E 120 80 61 00
        E 0 90 31 65
        E 0 90 49 65
        E 0 90 61 65
        E 120 80 31 00
        E 0 80 49 00
        E 0 80 61 00
        E 0 90 61 65
        E 120 80 61 00
        E 0 90 49 65
        E 0 90 61 65
        E 120 80 49 00
        E 0 80 61 00
        E 0 90 61 65
        E 120 80 61 00
        E 0 90 19 67
        E 0 90 31 67
        E 0 90 49 67
        E 0 90 61 67
        E 120 80 19 00
        E 0 80 31 00
        E 0 80 49 00
        E 0 80 61 00
        E 0 90 61 67
        E 120 80 61 00
        E 0 90 31 67
        E 0 90 49 67
        E 0 90 61 67
        E 120 80 31 00
        E 0 80 49 00
        E 0 80 61 00
        E 0 90 61 67
        E 120 80 61 00
        E 0 90 31 67
        E 0 90 49 67
        E 0 90 61 67
        E 120 80 31 00
        E 0 80 49 00
        E 0 80 61 00
        E 0 90 61 67
        E 120 80 61 00
        E 0 90 49 67
        E 0 90 61 67
        E 120 80 49 00
        E 0 80 61 00
        E 0 90 61 67
        E 120 80 61 00
        E 0 90 18 65
        E 0 90 30 65
        E 0 90 48 65
        E 0 90 60 65
        E 120 80 18 00
        E 0 80 30 00
        E 0 80 48 00
        E 0 80 60 00
        E 0 90 60 65
        E 120 80 60 00
        E 0 90 30 65
        E 0 90 48 65
        E 0 90 60 65
        E 120 80 30 00
        E 0 80 48 00
        E 0 80 60 00
        E 0 90 60 65
        E 120 80 60 00
        E 0 90 18 65
        E 0 90 30 65
        E 0 90 48 65
        E 0 90 60 65
        E 120 80 18 00
        E 0 80 30 00
        E 0 80 48 00
        E 0 80 60 00
        E 0 90 60 65
        E 120 80 60 00
        E 0 90 48 65
        E 0 90 60 65
        E 120 80 48 00
        E 0 80 60 00
        E 0 90 60 65
        <X 120 0
          /wFbYmVnaW5fcGIgc29uZ190cmFpbmVyX3BiXzdd
        >
        E 0 80 60 00
        E 0 90 19 64
        E 0 90 31 64
        E 0 90 49 64
        E 0 90 61 64
        E 120 80 19 00
        E 0 80 31 00
        E 0 80 49 00
        E 0 80 61 00
        E 0 90 61 64
        E 120 80 61 00
        E 0 90 31 64
        E 0 90 49 64
        E 0 90 61 64
        E 120 80 31 00
        E 0 80 49 00
        E 0 80 61 00
        E 0 90 61 64
        E 120 80 61 00
        E 0 90 31 64
        E 0 90 49 64
        E 0 90 61 64
        E 120 80 31 00
        E 0 80 49 00
        E 0 80 61 00
        E 0 90 61 64
        E 120 80 61 00
        E 0 90 49 64
        E 0 90 61 64
        E 120 80 49 00
        E 0 80 61 00
        E 0 90 61 64
        E 120 80 61 00
        E 0 90 19 65
        E 0 90 31 65
        E 0 90 49 65
        E 0 90 61 65
        E 120 80 19 00
        E 0 80 31 00
        E 0 80 49 00
        E 0 80 61 00
        E 0 90 61 65
        E 120 80 61 00
        E 0 90 31 65
        E 0 90 49 65
        E 0 90 61 65
        E 120 80 31 00
        E 0 80 49 00
        E 0 80 61 00
        E 0 90 61 65
        E 120 80 61 00
        E 0 90 31 65
        E 0 90 49 65
        E 0 90 61 65
        E 120 80 31 00
        E 0 80 49 00
        E 0 80 61 00
        E 0 90 61 65
        E 120 80 61 00
        E 0 90 49 65
        E 0 90 61 65
        E 120 80 49 00
        E 0 80 61 00
        E 0 90 61 65
        E 120 80 61 00
        E 0 90 19 67
        E 0 90 31 67
        E 0 90 49 67
        E 0 90 61 67
        E 120 80 19 00
        E 0 80 31 00
        E 0 80 49 00
        E 0 80 61 00
        E 0 90 61 67
        E 120 80 61 00
        E 0 90 31 67
        E 0 90 49 67
        E 0 90 61 67
        E 120 80 31 00
        E 0 80 49 00
        E 0 80 61 00
        E 0 90 61 67
        E 120 80 61 00
        E 0 90 31 67
        E 0 90 49 67
        E 0 90 61 67
        E 120 80 31 00
        E 0 80 49 00
        E 0 80 61 00
        E 0 90 61 67
        E 120 80 61 00
        E 0 90 49 67
        E 0 90 61 67
        E 120 80 49 00
        E 0 80 61 00
        E 0 90 61 67
        E 120 80 61 00
        E 0 90 18 65
        E 0 90 30 65
        E 0 90 48 65
        E 0 90 60 65
        E 120 80 18 00
        E 0 80 30 00
        E 0 80 48 00
        E 0 80 60 00
        E 0 90 60 65
        E 120 80 60 00
        E 0 90 30 65
        E 0 90 48 65
        E 0 90 60 65
        E 120 80 30 00
        E 0 80 48 00
        E 0 80 60 00
        E 0 90 60 65
        E 120 80 60 00
        E 0 90 30 65
        E 0 90 48 65
        E 0 90 60 65
        E 120 80 30 00
        E 0 80 48 00
        E 0 80 60 00
        E 0 90 60 65
        E 120 80 60 00
        E 0 90 48 65
        E 0 90 60 65
        E 120 80 48 00
        E 0 80 60 00
        E 0 90 60 65
        E 120 80 60 00
        E 0 90 1a 64
        E 0 90 32 64
        E 0 90 4a 64
        E 0 90 62 64
        E 0 90 74 64
        E 120 80 1a 00
        E 0 80 32 00
        E 0 80 4a 00
        E 0 80 62 00
        E 0 90 62 64
        E 120 80 62 00
        E 0 90 32 64
        E 0 90 4a 64
        E 0 90 62 64
        E 120 80 32 00
        E 0 80 4a 00
        E 0 80 62 00
        E 0 90 62 64
        E 120 80 62 00
        E 0 90 32 64
        E 0 90 4a 64
        E 0 90 62 64
        E 120 80 32 00
        E 0 80 4a 00
        E 0 80 62 00
        E 0 90 62 64
        E 120 80 62 00
        E 0 90 4a 64
        E 0 90 62 64
        E 120 80 4a 00
        E 0 80 62 00
        E 0 90 62 64
        E 120 80 62 00
        E 0 90 19 67
        E 0 90 31 67
        E 0 90 49 67
        E 0 90 61 67
        E 120 80 19 00
        E 0 80 31 00
        E 0 80 49 00
        E 0 80 61 00
        E 0 90 61 67
        E 120 80 61 00
        E 0 90 31 67
        E 0 90 49 67
        E 0 90 61 67
        E 120 80 31 00
        E 0 80 49 00
        E 0 80 61 00
        E 0 90 61 67
        E 120 80 61 00
        E 0 90 31 67
        E 0 90 49 67
        E 0 90 61 67
        E 120 80 31 00
        E 0 80 49 00
        E 0 80 61 00
        E 0 90 61 67
        E 120 80 61 00
        E 0 90 49 67
        E 0 90 61 67
        E 120 80 49 00
        E 0 80 61 00
        E 0 90 61 67
        E 120 80 61 00
        E 0 90 18 6a
        E 0 90 30 6a
        E 0 90 48 6a
        E 0 90 60 6a
        E 0 90 6c 69
        E 120 80 18 00
        E 0 80 30 00
        E 0 80 48 00
        E 0 80 60 00
        E 0 80 6c 00
        E 0 90 60 6a
        E 120 80 60 00
        E 0 90 30 6a
        E 0 90 48 6a
        E 0 90 60 6a
        E 120 80 30 00
        E 0 80 48 00
        E 0 80 60 00
        E 0 90 60 6a
        E 120 80 60 00
        E 0 90 30 6a
        E 0 90 48 6a
        E 0 90 60 6a
        E 120 80 30 00
        E 0 80 48 00
        E 0 80 60 00
        E 0 90 60 6a
        E 120 80 60 00
        E 0 90 48 6a
        E 0 90 60 6a
        E 120 80 48 00
        E 0 80 60 00
        E 0 90 60 6a
        E 120 80 60 00
        E 0 90 19 6c
        E 0 90 31 6c
        E 0 90 49 6c
        E 0 90 61 6c
        E 120 80 19 00
        E 0 80 31 00
        E 0 80 49 00
        E 0 80 61 00
        E 0 90 61 6c
        E 120 80 61 00
        E 0 90 31 6c
        E 0 90 49 6c
        E 0 90 61 6c
        E 120 80 31 00
        E 0 80 49 00
        E 0 80 61 00
        E 0 90 61 6c
        E 120 80 61 00
        E 0 90 19 6c
        E 0 90 31 6c
        E 0 90 49 6c
        E 0 90 61 6c
        E 120 80 19 00
        E 0 80 31 00
        E 0 80 49 00
        E 0 80 61 00
        E 0 90 61 6c
        E 120 80 61 00
        E 0 90 31 6c
        E 0 90 49 6c
        E 0 90 61 6c
        E 120 80 31 00
        E 0 80 49 00
        E 0 80 61 00
        E 0 90 61 6c
        E 120 80 61 00
        E 0 90 19 6c
        E 0 90 31 6c
        E 0 90 49 6c
        E 0 90 61 6c
        E 120 80 74 00
        E 0 80 19 00
        E 0 80 31 00
        E 0 80 49 00
        E 0 80 61 00
        E 0 90 61 6c
        E 120 80 61 00
        E 0 90 31 6c
        E 0 90 49 6c
        E 0 90 61 6c
        E 120 80 31 00
        E 0 80 49 00
        E 0 80 61 00
        E 0 90 61 6c
        E 120 80 61 00
        E 0 90 19 6c
        E 0 90 31 6c
        E 0 90 49 6c
        E 0 90 61 6c
        E 120 80 19 00
        E 0 80 31 00
        E 0 80 49 00
        E 0 80 61 00
        E 0 90 61 6c
        E 120 80 61 00
        E 0 90 31 6c
        E 0 90 49 6c
        E 0 90 61 6c
        E 120 80 31 00
        E 0 80 49 00
        E 0 80 61 00
        E 0 90 61 6c
        E 120 80 61 00
        E 0 90 19 6c
        E 0 90 31 6c
        E 0 90 49 6c
        E 0 90 61 6c
        E 120 80 19 00
        E 0 80 31 00
        E 0 80 49 00
        E 0 80 61 00
        E 0 90 61 6c
        E 120 80 61 00
        E 0 90 31 6c
        E 0 90 49 6c
        E 0 90 61 6c
        E 120 80 31 00
        E 0 80 49 00
        E 0 80 61 00
        E 0 90 61 6c
        E 120 80 61 00
        E 0 90 19 6c
        E 0 90 31 6c
        E 0 90 49 6c
        E 0 90 61 6c
        E 120 80 19 00
        E 0 80 31 00
        E 0 80 49 00
        E 0 80 61 00
        E 0 90 61 6c
        E 120 80 61 00
        E 0 90 31 6c
        E 0 90 49 6c
        E 0 90 61 6c
        E 120 80 31 00
        E 0 80 49 00
        E 0 80 61 00
        E 0 90 61 6c
        E 120 80 61 00
        E 0 90 1a 6c
        E 0 90 32 6c
        E 0 90 4a 6c
        E 0 90 62 6c
        E 120 80 1a 00
        E 0 80 32 00
        E 0 80 4a 00
        E 0 80 62 00
        E 0 90 62 6c
        E 120 80 62 00
        E 0 90 32 6c
        E 0 90 4a 6c
        E 0 90 62 6c
        E 120 80 32 00
        E 0 80 4a 00
        E 0 80 62 00
        E 0 90 62 6c
        E 120 80 62 00
        E 0 90 1a 6c
        E 0 90 32 6c
        E 0 90 4a 6c
        E 0 90 62 6c
        E 120 80 1a 00
        E 0 80 32 00
        E 0 80 4a 00
        E 0 80 62 00
        E 0 90 62 6c
        E 120 80 62 00
        E 0 90 32 6c
        E 0 90 4a 6c
        E 0 90 62 6c
        E 120 80 32 00
        E 0 80 4a 00
        E 0 80 62 00
        E 0 90 62 6c
        <X 120 0
          /wFbZW5kX3BiIHNvbmdfdHJhaW5lcl9wYl83XQ==
        >
        <X 0 0
          /wFbYmVnaW5fcGIgc29uZ190cmFpbmVyX3BiXzhd
        >
        E 0 80 62 00
        E 0 90 1a 6c
        E 0 90 32 6c
        E 0 90 4a 6c
        E 0 90 62 6c
        E 120 80 1a 00
        E 0 80 32 00
        E 0 80 4a 00
        E 0 80 62 00
        E 0 90 62 6c
        E 120 80 62 00
        E 0 90 32 6c
        E 0 90 4a 6c
        E 0 90 62 6c
        E 120 80 32 00
        E 0 80 4a 00
        E 0 80 62 00
        E 0 90 62 6c
        E 120 80 62 00
        E 0 90 1a 6c
        E 0 90 32 6c
        E 0 90 4a 6c
        E 0 90 62 6c
        E 120 80 1a 00
        E 0 80 32 00
        E 0 80 4a 00
        E 0 80 62 00
        E 0 90 62 6c
        E 120 80 62 00
        E 0 90 32 6b
        E 0 90 4a 6b
        E 0 90 62 6b
        E 120 80 32 00
        E 0 80 4a 00
        E 0 80 62 00
        E 0 90 62 6b
        E 120 80 62 00
        E 0 90 1a 6b
        E 0 90 32 6b
        E 0 90 4a 6b
        E 0 90 62 6b
        E 120 80 1a 00
        E 0 80 32 00
        E 0 80 4a 00
        E 0 80 62 00
        E 0 90 62 6b
        E 120 80 62 00
        E 0 90 32 6b
        E 0 90 4a 6b
        E 0 90 62 6b
        E 120 80 32 00
        E 0 80 4a 00
        E 0 80 62 00
        E 0 90 62 6b
        E 120 80 62 00
        E 0 90 32 6b
        E 0 90 4a 6b
        E 0 90 62 6b
        E 120 80 32 00
        E 0 80 4a 00
        E 0 80 62 00
        E 0 90 62 6b
        E 120 80 62 00
        E 0 90 4a 6b
        E 0 90 62 6b
        E 120 80 4a 00
        E 0 80 62 00
        E 0 90 62 6b
        E 120 80 62 00
        E 0 90 1a 69
        E 0 90 32 69
        E 0 90 4a 69
        E 0 90 62 69
        E 120 80 1a 00
        E 0 80 32 00
        E 0 80 4a 00
        E 0 80 62 00
        E 0 90 62 69
        E 120 80 62 00
        E 0 90 32 69
        E 0 90 4a 69
        E 0 90 62 69
        E 120 80 32 00
        E 0 80 4a 00
        E 0 80 62 00
        E 0 90 62 69
        E 120 80 62 00
        E 0 90 32 69
        E 0 90 4a 69
        E 0 90 62 69
        E 120 80 32 00
        E 0 80 4a 00
        E 0 80 62 00
        E 0 90 62 69
        E 120 80 62 00
        E 0 90 49 6c
        E 0 90 61 6c
        E 120 80 49 00
        E 0 80 61 00
        E 0 90 61 6c
        E 120 80 61 00
        E 0 90 19 6c
        E 0 90 31 6c
        E 0 90 49 6c
        E 0 90 61 6c
        E 120 80 19 00
        E 0 80 31 00
        E 0 80 49 00
        E 0 80 61 00
        E 0 90 61 6c
        E 120 80 61 00
        E 0 90 31 6c
        E 0 90 49 6c
        E 0 90 61 6c
        E 120 80 31 00
        E 0 80 49 00
        E 0 80 61 00
        E 0 90 61 6c
        E 120 80 61 00
        E 0 90 31 6c
        E 0 90 49 6c
        E 0 90 61 6c
        E 120 80 31 00
        E 0 80 49 00
        E 0 80 61 00
        E 0 90 61 6c
        E 120 80 61 00
        E 0 90 49 6c
        E 0 90 61 6c
        E 120 80 49 00
        E 0 80 61 00
        E 0 90 61 6c
        E 120 80 61 00
        E 0 90 1a 6c
        E 0 90 32 6c
        E 0 90 4a 6c
        E 0 90 62 6c
        E 120 80 1a 00
        E 0 80 32 00
        E 0 80 4a 00
        E 0 80 62 00
        E 0 90 62 6c
        E 120 80 62 00
        E 0 90 32 6c
        E 0 90 4a 6c
        E 0 90 62 6c
        E 120 80 32 00
        E 0 80 4a 00
        E 0 80 62 00
        E 0 90 62 6c
        E 120 80 62 00
        E 0 90 1a 6c
        E 0 90 32 6c
        E 0 90 4a 6c
        E 0 90 62 6c
        E 120 80 1a 00
        E 0 80 32 00
        E 0 80 4a 00
        E 0 80 62 00
        E 0 90 62 6c
        E 120 80 62 00
        E 0 90 32 6b
        E 0 90 4a 6b
        E 0 90 62 6b
        E 120 80 32 00
        E 0 80 4a 00
        E 0 80 62 00
        E 0 90 62 6b
        E 120 80 62 00
        E 0 90 1a 6b
        E 0 90 32 6b
        E 0 90 4a 6b
        E 0 90 62 6b
        E 120 80 1a 00
        E 0 80 32 00
        E 0 80 4a 00
        E 0 80 62 00
        E 0 90 62 6b
        E 120 80 62 00
        E 0 90 32 6b
        E 0 90 4a 6b
        E 0 90 62 6b
        E 120 80 32 00
        E 0 80 4a 00
        E 0 80 62 00
        E 0 90 62 6b
        E 120 80 62 00
        E 0 90 32 6b
        E 0 90 4a 6b
        E 0 90 62 6b
        E 120 80 32 00
        E 0 80 4a 00
        E 0 80 62 00
        E 0 90 62 6b
        E 120 80 62 00
        E 0 90 4a 6b
        E 0 90 62 6b
        E 120 80 4a 00
        E 0 80 62 00
        E 0 90 62 6b
        E 120 80 62 00
        E 0 90 19 6b
        E 0 90 31 6b
        E 0 90 49 6b
        E 0 90 61 6b
        E 120 80 19 00
        E 0 80 31 00
        E 0 80 49 00
        E 0 80 61 00
        E 0 90 61 6b
        E 120 80 61 00
        E 0 90 31 6b
        E 0 90 49 6b
        E 0 90 61 6b
        E 120 80 31 00
        E 0 80 49 00
        E 0 80 61 00
        E 0 90 61 6b
        E 120 80 61 00
        E 0 90 19 6b
        E 0 90 31 6b
        E 0 90 49 6b
        E 0 90 61 6b
        E 120 80 19 00
        E 0 80 31 00
        E 0 80 49 00
        E 0 80 61 00
        E 0 90 61 6b
        E 120 80 61 00
        E 0 90 49 69
        E 0 90 61 69
        E 120 80 49 00
        E 0 80 61 00
        E 0 90 61 69
        E 120 80 61 00
        E 0 90 19 69
        E 0 90 31 69
        E 0 90 49 69
        E 0 90 61 69
        E 120 80 19 00
        E 0 80 31 00
        E 0 80 49 00
        E 0 80 61 00
        E 0 90 61 69
        E 120 80 61 00
        E 0 90 31 69
        E 0 90 49 69
        E 0 90 61 69
        E 120 80 31 00
        E 0 80 49 00
        E 0 80 61 00
        E 0 90 61 69
        E 120 80 61 00
        E 0 90 19 69
        E 0 90 31 69
        E 0 90 49 69
        E 0 90 61 69
        E 120 80 19 00
        E 0 80 31 00
        E 0 80 49 00
        E 0 80 61 00
        E 0 90 61 69
        E 120 80 61 00
        E 0 90 31 69
        E 0 90 49 69
        E 0 90 61 69
        E 120 80 31 00
        E 0 80 49 00
        E 0 80 61 00
        E 0 90 61 69
        E 120 80 61 00
        E 0 90 19 69
        E 0 90 31 69
        E 0 90 49 69
        E 0 90 61 69
        E 120 80 19 00
        E 0 80 31 00
        E 0 80 49 00
        E 0 80 61 00
        E 0 90 61 69
        E 120 80 61 00
        E 0 90 31 69
        E 0 90 49 69
        E 0 90 61 69
        E 120 80 31 00
        E 0 80 49 00
        E 0 80 61 00
        E 0 90 61 69
        E 120 80 61 00
        E 0 90 31 69
        E 0 90 49 69
        E 0 90 61 69
        E 120 80 31 00
        E 0 80 49 00
        E 0 80 61 00
        E 0 90 61 69
        E 120 80 61 00
        E 0 90 49 69
        E 0 90 61 69
        E 120 80 49 00
        E 0 80 61 00
        E 0 90 61 69
        <X 120 0
          /wFbZW5kX3BiIHNvbmdfdHJhaW5lcl9wYl84XQ==
        >
        E 0 80 61 00
        E 0 90 1a 67
        E 0 90 32 67
        E 0 90 4a 67
        E 0 90 62 67
        E 0 90 6c 65
        E 120 80 1a 00
        E 0 80 32 00
        E 0 80 4a 00
        E 0 80 62 00
        E 0 80 6c 00
        E 0 90 62 67
        E 120 80 62 00
        E 0 90 32 67
        E 0 90 4a 67
        E 0 90 62 67
        E 120 80 32 00
        E 0 80 4a 00
        E 0 80 62 00
        E 0 90 62 67
        E 120 80 62 00
        E 0 90 1a 67
        E 0 90 32 67
        E 0 90 4a 67
        E 0 90 62 67
        E 120 80 1a 00
        E 0 80 32 00
        E 0 80 4a 00
        E 0 80 62 00
        E 0 90 62 67
        E 120 80 62 00
        E 0 90 32 67
        E 0 90 4a 67
        E 0 90 62 67
        E 120 80 32 00
        E 0 80 4a 00
        E 0 80 62 00
        E 0 90 62 67
        E 120 80 62 00
        E 0 90 1a 64
        E 0 90 32 64
        E 0 90 4a 64
        E 0 90 62 64
        E 120 80 1a 00
        E 0 80 32 00
        E 0 80 4a 00
        E 0 80 62 00
        E 0 90 62 64
        E 120 80 62 00
        E 0 90 32 64
        E 0 90 4a 64
        E 0 90 62 64
        E 120 80 32 00
        E 0 80 4a 00
        E 0 80 62 00
        E 0 90 62 64
        E 120 80 62 00
        E 0 90 32 64
        E 0 90 4a 64
        E 0 90 62 64
        E 120 80 32 00
        E 0 80 4a 00
        E 0 80 62 00
        E 0 90 62 64
        E 120 80 62 00
        E 0 90 4a 64
        E 0 90 62 64
        E 120 80 4a 00
        E 0 80 62 00
        E 0 90 62 64
        E 120 80 62 00
        E 0 90 19 65
        E 0 90 31 65
        E 0 90 49 65
        E 0 90 61 65
        E 120 80 19 00
        E 0 80 31 00
        E 0 80 49 00
        E 0 80 61 00
        E 0 90 61 65
        E 120 80 61 00
        E 0 90 31 65
        E 0 90 49 65
        E 0 90 61 65
        E 120 80 31 00
        E 0 80 49 00
        E 0 80 61 00
        E 0 90 61 65
        E 120 80 61 00
        E 0 90 19 65
        E 0 90 31 65
        E 0 90 49 65
        E 0 90 61 65
        E 120 80 19 00
        E 0 80 31 00
        E 0 80 49 00
        E 0 80 61 00
        E 0 90 61 65
        E 120 80 61 00
        E 0 90 31 65
        E 0 90 49 65
        E 0 90 61 65
        E 120 80 31 00
        E 0 80 49 00
        E 0 80 61 00
        E 0 90 61 65
        E 120 80 61 00
        E 0 90 19 65
        E 0 90 31 65
        E 0 90 49 65
        E 0 90 61 65
        E 120 80 19 00
        E 0 80 31 00
        E 0 80 49 00
        E 0 80 61 00
        E 0 90 61 65
        E 120 80 61 00
        E 0 90 31 65
        E 0 90 49 65
        E 0 90 61 65
        E 120 80 31 00
        E 0 80 49 00
        E 0 80 61 00
        E 0 90 61 65
        E 120 80 61 00
        E 0 90 31 65
        E 0 90 49 65
        E 0 90 61 65
        E 120 80 31 00
        E 0 80 49 00
        E 0 80 61 00
        E 0 90 61 65
        E 120 80 61 00
        E 0 90 49 65
        E 0 90 61 65
        E 120 80 49 00
        E 0 80 61 00
        E 0 90 61 65
        <X 120 0
          /wFbYmVnaW5fcGIgc29uZ190cmFpbmVyX3BiXzld
        >
        E 0 80 61 00
        E 0 90 1a 67
        E 0 90 32 67
        E 0 90 4a 67
        E 0 90 62 67
        E 0 90 74 64
        E 120 80 1a 00
        E 0 80 32 00
        E 0 80 4a 00
        E 0 80 62 00
        E 0 90 62 67
        E 120 80 62 00
        E 0 90 32 67
        E 0 90 4a 67
        E 0 90 62 67
        E 120 80 32 00
        E 0 80 4a 00
        E 0 80 62 00
        E 0 90 62 67
        E 120 80 62 00
        E 0 90 1a 67
        E 0 90 32 67
        E 0 90 4a 67
        E 0 90 62 67
        E 120 80 1a 00
        E 0 80 32 00
        E 0 80 4a 00
        E 0 80 62 00
        E 0 90 62 67
        E 120 80 62 00
        E 0 90 32 67
        E 0 90 4a 67
        E 0 90 62 67
        E 120 80 32 00
        E 0 80 4a 00
        E 0 80 62 00
        E 0 90 62 67
        <X 120 0
          /wFbcGJfbm9ybSBzb25nX3RyYWluZXJfcGJfOV0=
        >
        E 0 80 62 00
        E 0 90 1a 64
        E 0 90 32 64
        E 0 90 4a 64
        E 0 90 62 64
        E 120 80 1a 00
        E 0 80 32 00
        E 0 80 4a 00
        E 0 80 62 00
        E 0 90 62 64
        E 120 80 62 00
        E 0 90 32 64
        E 0 90 4a 64
        E 0 90 62 64
        E 120 80 32 00
        E 0 80 4a 00
        E 0 80 62 00
        E 0 90 62 64
        E 120 80 62 00
        E 0 90 32 64
        E 0 90 4a 64
        E 0 90 62 64
        E 120 80 32 00
        E 0 80 4a 00
        E 0 80 62 00
        E 0 90 62 64
        E 120 80 62 00
        E 0 90 4a 64
        E 0 90 62 64
        E 120 80 4a 00
        E 0 80 62 00
        E 0 90 62 64
        E 120 80 62 00
        E 0 90 19 65
        E 0 90 31 65
        E 0 90 49 65
        E 0 90 61 65
        E 120 80 19 00
        E 0 80 31 00
        E 0 80 49 00
        E 0 80 61 00
        E 0 90 61 65
        E 120 80 61 00
        E 0 90 31 65
        E 0 90 49 65
        E 0 90 61 65
        E 120 80 31 00
        E 0 80 49 00
        E 0 80 61 00
        E 0 90 61 65
        E 120 80 61 00
        E 0 90 19 65
        E 0 90 31 65
        E 0 90 49 65
        E 0 90 61 65
        E 120 80 19 00
        E 0 80 31 00
        E 0 80 49 00
        E 0 80 61 00
        E 0 90 61 65
        E 120 80 61 00
        E 0 90 31 65
        E 0 90 49 65
        E 0 90 61 65
        E 120 80 31 00
        E 0 80 49 00
        E 0 80 61 00
        E 0 90 61 65
        E 120 80 61 00
        E 0 90 19 65
        E 0 90 31 65
        E 0 90 49 65
        E 0 90 61 65
        E 120 80 19 00
        E 0 80 31 00
        E 0 80 49 00
        E 0 80 61 00
        E 0 90 61 65
        E 120 80 61 00
        E 0 90 31 65
        E 0 90 49 65
        E 0 90 61 65
        E 120 80 31 00
        E 0 80 49 00
        E 0 80 61 00
        E 0 90 61 65
        E 120 80 61 00
        E 0 90 31 65
        E 0 90 49 65
        E 0 90 61 65
        E 120 80 31 00
        E 0 80 49 00
        E 0 80 61 00
        E 0 90 61 65
        E 120 80 61 00
        E 0 90 49 65
        E 0 90 61 65
        E 120 80 49 00
        E 0 80 61 00
        E 0 90 61 65
        <X 120 0
          /wFbZW5kX3BiIHNvbmdfdHJhaW5lcl9wYl85XQ==
        >
        <X 0 0
          /wFbYmVnaW5fcGIgc29uZ190cmFpbmVyX3BiXzEwXQ==
        >
        E 0 80 61 00
        E 0 90 1a 67
        E 0 90 32 67
        E 0 90 4a 67
        E 0 90 62 67
        E 120 80 74 00
        E 0 80 1a 00
        E 0 80 32 00
        E 0 80 4a 00
        E 0 80 62 00
        E 0 90 62 67
        E 120 80 62 00
        E 0 90 32 67
        E 0 90 4a 67
        E 0 90 62 67
        E 120 80 32 00
        E 0 80 4a 00
        E 0 80 62 00
        E 0 90 62 67
        E 120 80 62 00
        E 0 90 32 67
        E 0 90 4a 67
        E 0 90 62 67
        E 120 80 32 00
        E 0 80 4a 00
        E 0 80 62 00
        E 0 90 62 67
        E 120 80 62 00
        E 0 90 4a 67
        E 0 90 62 67
        E 120 80 4a 00
        E 0 80 62 00
        E 0 90 62 67
        <X 120 0
          /wFbcGJfbm9ybSBzb25nX3RyYWluZXJfcGJfMTBd
        >
        E 0 80 62 00
        E 0 90 1a 65
        E 0 90 32 65
        E 0 90 4a 65
        E 0 90 62 65
        E 120 80 1a 00
        E 0 80 32 00
        E 0 80 4a 00
        E 0 80 62 00
        E 0 90 62 65
        E 120 80 62 00
        E 0 90 32 65
        E 0 90 4a 65
        E 0 90 62 65
        E 120 80 32 00
        E 0 80 4a 00
        E 0 80 62 00
        E 0 90 62 65
        E 120 80 62 00
        E 0 90 32 65
        E 0 90 4a 65
        E 0 90 62 65
        E 120 80 32 00
        E 0 80 4a 00
        E 0 80 62 00
        E 0 90 62 65
        E 120 80 62 00
        E 0 90 4a 65
        E 0 90 62 65
        E 120 80 4a 00
        E 0 80 62 00
        E 0 90 62 65
        E 120 80 62 00
        E 0 90 19 65
        E 0 90 31 65
        E 0 90 49 65
        E 0 90 61 65
        E 120 80 19 00
        E 0 80 31 00
        E 0 80 49 00
        E 0 80 61 00
        E 0 90 61 65
        E 120 80 61 00
        E 0 90 31 65
        E 0 90 49 65
        E 0 90 61 65
        E 120 80 31 00
        E 0 80 49 00
        E 0 80 61 00
        E 0 90 61 65
        E 120 80 61 00
        E 0 90 19 65
        E 0 90 31 65
        E 0 90 49 65
        E 0 90 61 65
        E 120 80 19 00
        E 0 80 31 00
        E 0 80 49 00
        E 0 80 61 00
        E 0 90 61 65
        E 120 80 61 00
        E 0 90 31 65
        E 0 90 49 65
        E 0 90 61 65
        E 120 80 31 00
        E 0 80 49 00
        E 0 80 61 00
        E 0 90 61 65
        E 120 80 61 00
        E 0 90 19 65
        E 0 90 31 65
        E 0 90 49 65
        E 0 90 61 65
        E 120 80 19 00
        E 0 80 31 00
        E 0 80 49 00
        E 0 80 61 00
        E 0 90 61 65
        E 120 80 61 00
        E 0 90 31 65
        E 0 90 49 65
        E 0 90 61 65
        E 120 80 31 00
        E 0 80 49 00
        E 0 80 61 00
        E 0 90 61 65
        E 120 80 61 00
        E 0 90 31 65
        E 0 90 49 65
        E 0 90 61 65
        E 120 80 31 00
        E 0 80 49 00
        E 0 80 61 00
        E 0 90 61 65
        E 120 80 61 00
        E 0 90 49 65
        E 0 90 61 65
        E 120 80 49 00
        E 0 80 61 00
        E 0 90 61 65
        <X 120 0
          /wFbZW5kX3BiIHNvbmdfdHJhaW5lcl9wYl8xMF0=
        >
        E 0 80 61 00
        E 0 90 1a 67
        E 0 90 32 67
        E 0 90 4a 67
        E 0 90 62 67
        E 120 80 1a 00
        E 0 80 32 00
        E 0 80 4a 00
        E 0 80 62 00
        E 0 90 62 67
        E 120 80 62 00
        E 0 90 32 67
        E 0 90 4a 67
        E 0 90 62 67
        E 120 80 32 00
        E 0 80 4a 00
        E 0 80 62 00
        E 0 90 62 67
        E 120 80 62 00
        E 0 90 1a 67
        E 0 90 32 67
        E 0 90 4a 67
        E 0 90 62 67
        E 120 80 1a 00
        E 0 80 32 00
        E 0 80 4a 00
        E 0 80 62 00
        E 0 90 62 67
        E 120 80 62 00
        E 0 90 32 67
        E 0 90 4a 67
        E 0 90 62 67
        E 120 80 32 00
        E 0 80 4a 00
        E 0 80 62 00
        E 0 90 62 67
        E 120 80 62 00
        E 0 90 1a 64
        E 0 90 32 64
        E 0 90 4a 64
        E 0 90 62 64
        E 120 80 1a 00
        E 0 80 32 00
        E 0 80 4a 00
        E 0 80 62 00
        E 0 90 62 64
        E 120 80 62 00
        E 0 90 32 64
        E 0 90 4a 64
        E 0 90 62 64
        E 120 80 32 00
        E 0 80 4a 00
        E 0 80 62 00
        E 0 90 62 64
        E 120 80 62 00
        E 0 90 32 64
        E 0 90 4a 64
        E 0 90 62 64
        E 120 80 32 00
        E 0 80 4a 00
        E 0 80 62 00
        E 0 90 62 64
        E 120 80 62 00
        E 0 90 4a 64
        E 0 90 62 64
        E 120 80 4a 00
        E 0 80 62 00
        E 0 90 62 64
        E 120 80 62 00
        E 0 90 19 65
        E 0 90 31 65
        E 0 90 49 65
        E 0 90 61 65
        E 120 80 19 00
        E 0 80 31 00
        E 0 80 49 00
        E 0 80 61 00
        E 0 90 61 65
        E 120 80 61 00
        E 0 90 31 65
        E 0 90 49 65
        E 0 90 61 65
        E 120 80 31 00
        E 0 80 49 00
        E 0 80 61 00
        E 0 90 61 65
        E 120 80 61 00
        E 0 90 19 65
        E 0 90 31 65
        E 0 90 49 65
        E 0 90 61 65
        E 120 80 19 00
        E 0 80 31 00
        E 0 80 49 00
        E 0 80 61 00
        E 0 90 61 65
        E 120 80 61 00
        E 0 90 31 65
        E 0 90 49 65
        E 0 90 61 65
        E 120 80 31 00
        E 0 80 49 00
        E 0 80 61 00
        E 0 90 61 65
        E 120 80 61 00
        E 0 90 19 65
        E 0 90 31 65
        E 0 90 49 65
        E 0 90 61 65
        E 120 80 19 00
        E 0 80 31 00
        E 0 80 49 00
        E 0 80 61 00
        E 0 90 61 65
        E 120 80 61 00
        E 0 90 31 65
        E 0 90 49 65
        E 0 90 61 65
        E 120 80 31 00
        E 0 80 49 00
        E 0 80 61 00
        E 0 90 61 65
        E 120 80 61 00
        E 0 90 19 65
        E 0 90 31 65
        E 0 90 49 65
        E 0 90 61 65
        E 120 80 19 00
        E 0 80 31 00
        E 0 80 49 00
        E 0 80 61 00
        E 0 90 61 65
        E 120 80 61 00
        E 0 90 31 65
        E 0 90 49 65
        E 0 90 61 65
        E 120 80 31 00
        E 0 80 49 00
        E 0 80 61 00
        E 0 90 61 65
        <X 120 0
          /wFbYmVnaW5fcGIgc29uZ190cmFpbmVyX3BiXzExXQ==
        >
        E 0 80 61 00
        E 0 90 19 65
        E 0 90 31 65
        E 0 90 49 65
        E 0 90 61 65
        E 120 80 19 00
        E 0 80 31 00
        E 0 80 49 00
        E 0 80 61 00
        E 0 90 61 65
        E 120 80 61 00
        E 0 90 31 65
        E 0 90 49 65
        E 0 90 61 65
        E 120 80 31 00
        E 0 80 49 00
        E 0 80 61 00
        E 0 90 61 65
        E 120 80 61 00
        E 0 90 19 65
        E 0 90 31 65
        E 0 90 49 65
        E 0 90 61 65
        E 120 80 19 00
        E 0 80 31 00
        E 0 80 49 00
        E 0 80 61 00
        E 0 90 61 65
        E 120 80 61 00
        E 0 90 31 65
        E 0 90 49 65
        E 0 90 61 65
        E 120 80 31 00
        E 0 80 49 00
        E 0 80 61 00
        E 0 90 61 65
        E 120 80 61 00
        E 0 90 19 65
        E 0 90 31 65
        E 0 90 49 65
        E 0 90 61 65
        E 120 80 19 00
        E 0 80 31 00
        E 0 80 49 00
        E 0 80 61 00
        E 0 90 61 65
        E 120 80 61 00
        E 0 90 31 65
        E 0 90 49 65
        E 0 90 61 65
        E 120 80 31 00
        E 0 80 49 00
        E 0 80 61 00
        E 0 90 61 65
        E 120 80 61 00
        E 0 90 31 65
        E 0 90 49 65
        E 0 90 61 65
        E 120 80 31 00
        E 0 80 49 00
        E 0 80 61 00
        E 0 90 61 65
        E 120 80 61 00
        E 0 90 49 65
        E 0 90 61 65
        E 120 80 49 00
        E 0 80 61 00
        E 0 90 61 65
        <X 120 0
          /wFbcGJfbm9ybSBzb25nX3RyYWluZXJfcGJfMTFd
        >
        E 0 80 61 00
        E 0 90 19 67
        E 0 90 31 67
        E 0 90 49 67
        E 0 90 61 67
        E 120 80 19 00
        E 0 80 31 00
        E 0 80 49 00
        E 0 80 61 00
        E 0 90 61 67
        E 120 80 61 00
        E 0 90 31 67
        E 0 90 49 67
        E 0 90 61 67
        E 120 80 31 00
        E 0 80 49 00
        E 0 80 61 00
        E 0 90 61 67
        E 120 80 61 00
        E 0 90 19 67
        E 0 90 31 67
        E 0 90 49 67
        E 0 90 61 67
        E 120 80 19 00
        E 0 80 31 00
        E 0 80 49 00
        E 0 80 61 00
        E 0 90 61 67
        E 120 80 61 00
        E 0 90 31 67
        E 0 90 49 67
        E 0 90 61 67
        E 120 80 31 00
        E 0 80 49 00
        E 0 80 61 00
        E 0 90 61 67
        E 120 80 61 00
        E 0 90 19 67
        E 0 90 31 67
        E 0 90 49 67
        E 0 90 61 67
        E 120 80 19 00
        E 0 80 31 00
        E 0 80 49 00
        E 0 80 61 00
        E 0 90 61 67
        E 120 80 61 00
        E 0 90 31 67
        E 0 90 49 67
        E 0 90 61 67
        E 120 80 31 00
        E 0 80 49 00
        E 0 80 61 00
        E 0 90 61 67
        E 120 80 61 00
        E 0 90 31 67
        E 0 90 49 67
        E 0 90 61 67
        E 120 80 31 00
        E 0 80 49 00
        E 0 80 61 00
        E 0 90 61 67
        E 120 80 61 00
        E 0 90 49 67
        E 0 90 61 67
        E 120 80 49 00
        E 0 80 61 00
        E 0 90 61 67
        E 120 80 61 00
        E 0 90 19 68
        E 0 90 31 68
        E 0 90 49 68
        E 0 90 61 68
        E 120 80 19 00
        E 0 80 31 00
        E 0 80 49 00
        E 0 80 61 00
        E 0 90 61 68
        E 120 80 61 00
        E 0 90 31 68
        E 0 90 49 68
        E 0 90 61 68
        E 120 80 31 00
        E 0 80 49 00
        E 0 80 61 00
        E 0 90 61 68
        E 120 80 61 00
        E 0 90 19 68
        E 0 90 31 68
        E 0 90 49 68
        E 0 90 61 68
        E 120 80 19 00
        E 0 80 31 00
        E 0 80 49 00
        E 0 80 61 00
        E 0 90 61 68
        E 120 80 61 00
        E 0 90 31 68
        E 0 90 49 68
        E 0 90 61 68
        E 120 80 31 00
        E 0 80 49 00
        E 0 80 61 00
        E 0 90 61 68
        E 120 80 61 00
        E 0 90 19 68
        E 0 90 31 68
        E 0 90 49 68
        E 0 90 61 68
        E 120 80 19 00
        E 0 80 31 00
        E 0 80 49 00
        E 0 80 61 00
        E 0 90 61 68
        E 120 80 61 00
        E 0 90 31 68
        E 0 90 49 68
        E 0 90 61 68
        E 120 80 31 00
        E 0 80 49 00
        E 0 80 61 00
        E 0 90 61 68
        E 120 80 61 00
        E 0 90 31 68
        E 0 90 49 68
        E 0 90 61 68
        E 120 80 31 00
        E 0 80 49 00
        E 0 80 61 00
        E 0 90 61 68
        E 120 80 61 00
        E 0 90 49 68
        E 0 90 61 68
        E 120 80 49 00
        E 0 80 61 00
        E 0 90 61 68
        E 120 80 61 00
        E 0 90 18 65
        E 0 90 30 65
        E 0 90 48 65
        E 0 90 60 65
        E 120 80 18 00
        E 0 80 30 00
        E 0 80 48 00
        E 0 80 60 00
        E 0 90 60 65
        E 120 80 60 00
        E 0 90 30 65
        E 0 90 48 65
        E 0 90 60 65
        E 120 80 30 00
        E 0 80 48 00
        E 0 80 60 00
        E 0 90 60 65
        E 120 80 60 00
        E 0 90 18 65
        E 0 90 30 65
        E 0 90 48 65
        E 0 90 60 65
        E 120 80 18 00
        E 0 80 30 00
        E 0 80 48 00
        E 0 80 60 00
        E 0 90 60 65
        E 120 80 60 00
        E 0 90 30 65
        E 0 90 48 65
        E 0 90 60 65
        E 120 80 30 00
        E 0 80 48 00
        E 0 80 60 00
        E 0 90 60 65
        E 120 80 60 00
        E 0 90 18 65
        E 0 90 30 65
        E 0 90 48 65
        E 0 90 60 65
        E 120 80 18 00
        E 0 80 30 00
        E 0 80 48 00
        E 0 80 60 00
        E 0 90 60 65
        E 120 80 60 00
        E 0 90 30 65
        E 0 90 48 65
        E 0 90 60 65
        E 120 80 30 00
        E 0 80 48 00
        E 0 80 60 00
        E 0 90 60 65
        E 120 80 60 00
        E 0 90 18 65
        E 0 90 30 65
        E 0 90 48 65
        E 0 90 60 65
        E 120 80 18 00
        E 0 80 30 00
        E 0 80 48 00
        E 0 80 60 00
        E 0 90 60 65
        E 120 80 60 00
        E 0 90 48 65
        E 0 90 60 65
        E 120 80 48 00
        E 0 80 60 00
        E 0 90 60 65
        <X 120 0
          /wFbZW5kX3BiIHNvbmdfdHJhaW5lcl9wYl8xMV0=
        >
        <X 0 0
          /wFbYmVnaW5fcGIgc29uZ190cmFpbmVyX3BiXzEyXQ==
        >
        E 0 80 60 00
        E 0 90 19 65
        E 0 90 31 65
        E 0 90 49 65
        E 0 90 61 65
        E 0 90 74 64
        E 120 80 19 00
        E 0 80 31 00
        E 0 80 49 00
        E 0 80 61 00
        E 0 90 61 65
        E 120 80 61 00
        E 0 90 31 65
        E 0 90 49 65
        E 0 90 61 65
        E 120 80 31 00
        E 0 80 49 00
        E 0 80 61 00
        E 0 90 61 65
        E 120 80 61 00
        E 0 90 19 65
        E 0 90 31 65
        E 0 90 49 65
        E 0 90 61 65
        E 120 80 19 00
        E 0 80 31 00
        E 0 80 49 00
        E 0 80 61 00
        E 0 90 61 65
        E 120 80 61 00
        E 0 90 31 65
        E 0 90 49 65
        E 0 90 61 65
        E 120 80 31 00
        E 0 80 49 00
        E 0 80 61 00
        E 0 90 61 65
        E 120 80 61 00
        E 0 90 19 65
        E 0 90 31 65
        E 0 90 49 65
        E 0 90 61 65
        E 120 80 19 00
        E 0 80 31 00
        E 0 80 49 00
        E 0 80 61 00
        E 0 90 61 65
        E 120 80 61 00
        E 0 90 31 65
        E 0 90 49 65
        E 0 90 61 65
        E 120 80 31 00
        E 0 80 49 00
        E 0 80 61 00
        E 0 90 61 65
        E 120 80 61 00
        E 0 90 31 65
        E 0 90 49 65
        E 0 90 61 65
        E 120 80 31 00
        E 0 80 49 00
        E 0 80 61 00
        E 0 90 61 65
        E 120 80 61 00
        E 0 90 49 65
        E 0 90 61 65
        E 120 80 49 00
        E 0 80 61 00
        E 0 90 61 65
        E 120 80 61 00
        E 0 90 19 67
        E 0 90 31 67
        E 0 90 49 67
        E 0 90 61 67
        E 120 80 74 00
        E 0 80 19 00
        E 0 80 31 00
        E 0 80 49 00
        E 0 80 61 00
        E 0 90 61 67
        E 120 80 61 00
        E 0 90 31 67
        E 0 90 49 67
        E 0 90 61 67
        E 120 80 31 00
        E 0 80 49 00
        E 0 80 61 00
        E 0 90 61 67
        E 120 80 61 00
        E 0 90 19 67
        E 0 90 31 67
        E 0 90 49 67
        E 0 90 61 67
        E 120 80 19 00
        E 0 80 31 00
        E 0 80 49 00
        E 0 80 61 00
        E 0 90 61 67
        E 120 80 61 00
        E 0 90 31 67
        E 0 90 49 67
        E 0 90 61 67
        E 120 80 31 00
        E 0 80 49 00
        E 0 80 61 00
        E 0 90 61 67
        E 120 80 61 00
        E 0 90 19 67
        E 0 90 31 67
        E 0 90 49 67
        E 0 90 61 67
        E 120 80 19 00
        E 0 80 31 00
        E 0 80 49 00
        E 0 80 61 00
        E 0 90 61 67
        E 120 80 61 00
        E 0 90 31 67
        E 0 90 49 67
        E 0 90 61 67
        E 120 80 31 00
        E 0 80 49 00
        E 0 80 61 00
        E 0 90 61 67
        E 120 80 61 00
        E 0 90 31 67
        E 0 90 49 67
        E 0 90 61 67
        E 120 80 31 00
        E 0 80 49 00
        E 0 80 61 00
        E 0 90 61 67
        E 120 80 61 00
        E 0 90 49 67
        E 0 90 61 67
        E 120 80 49 00
        E 0 80 61 00
        E 0 90 61 67
        E 120 80 61 00
        E 0 90 19 68
        E 0 90 31 68
        E 0 90 49 68
        E 0 90 61 68
        E 120 80 19 00
        E 0 80 31 00
        E 0 80 49 00
        E 0 80 61 00
        E 0 90 61 68
        E 120 80 61 00
        E 0 90 31 68
        E 0 90 49 68
        E 0 90 61 68
        E 120 80 31 00
        E 0 80 49 00
        E 0 80 61 00
        E 0 90 61 68
        E 120 80 61 00
        E 0 90 19 68
        E 0 90 31 68
        E 0 90 49 68
        E 0 90 61 68
        E 120 80 19 00
        E 0 80 31 00
        E 0 80 49 00
        E 0 80 61 00
        E 0 90 61 68
        E 120 80 61 00
        E 0 90 31 68
        E 0 90 49 68
        E 0 90 61 68
        E 120 80 31 00
        E 0 80 49 00
        E 0 80 61 00
        E 0 90 61 68
        E 120 80 61 00
        E 0 90 19 68
        E 0 90 31 68
        E 0 90 49 68
        E 0 90 61 68
        E 120 80 19 00
        E 0 80 31 00
        E 0 80 49 00
        E 0 80 61 00
        E 0 90 61 68
        E 120 80 61 00
        E 0 90 31 68
        E 0 90 49 68
        E 0 90 61 68
        E 120 80 31 00
        E 0 80 49 00
        E 0 80 61 00
        E 0 90 61 68
        E 120 80 61 00
        E 0 90 31 68
        E 0 90 49 68
        E 0 90 61 68
        E 120 80 31 00
        E 0 80 49 00
        E 0 80 61 00
        E 0 90 61 68
        E 120 80 61 00
        E 0 90 49 68
        E 0 90 61 68
        E 120 80 49 00
        E 0 80 61 00
        E 0 90 61 68
        E 120 80 61 00
        E 0 90 18 68
        E 0 90 30 68
        E 0 90 48 68
        E 0 90 60 68
        E 120 80 18 00
        E 0 80 30 00
        E 0 80 48 00
        E 0 80 60 00
        E 0 90 60 68
        E 120 80 60 00
        E 0 90 30 68
        E 0 90 48 68
        E 0 90 60 68
        E 120 80 30 00
        E 0 80 48 00
        E 0 80 60 00
        E 0 90 60 68
        E 120 80 60 00
        E 0 90 18 68
        E 0 90 30 68
        E 0 90 48 68
        E 0 90 60 68
        E 120 80 18 00
        E 0 80 30 00
        E 0 80 48 00
        E 0 80 60 00
        E 0 90 60 68
        E 120 80 60 00
        E 0 90 30 68
        E 0 90 48 68
        E 0 90 60 68
        E 120 80 30 00
        E 0 80 48 00
        E 0 80 60 00
        E 0 90 60 68
        E 120 80 60 00
        E 0 90 18 68
        E 0 90 30 68
        E 0 90 48 68
        E 0 90 60 68
        E 120 80 18 00
        E 0 80 30 00
        E 0 80 48 00
        E 0 80 60 00
        E 0 90 60 68
        E 120 80 60 00
        E 0 90 30 68
        E 0 90 48 68
        E 0 90 60 68
        E 120 80 30 00
        E 0 80 48 00
        E 0 80 60 00
        E 0 90 60 68
        E 120 80 60 00
        E 0 90 18 68
        E 0 90 30 68
        E 0 90 48 68
        E 0 90 60 68
        E 120 80 18 00
        E 0 80 30 00
        E 0 80 48 00
        E 0 80 60 00
        E 0 90 60 68
        E 120 80 60 00
        E 0 90 48 68
        E 0 90 60 68
        E 120 80 48 00
        E 0 80 60 00
        E 0 90 60 68
        E 120 80 60 00
        E 0 90 19 65
        E 0 90 31 65
        E 0 90 49 65
        E 0 90 61 65
        E 120 80 19 00
        E 0 80 31 00
        E 0 80 49 00
        E 0 80 61 00
        E 0 90 61 65
        E 120 80 61 00
        E 0 90 31 65
        E 0 90 49 65
        E 0 90 61 65
        E 120 80 31 00
        E 0 80 49 00
        E 0 80 61 00
        E 0 90 61 65
        E 120 80 61 00
        E 0 90 31 65
        E 0 90 49 65
        E 0 90 61 65
        E 120 80 31 00
        E 0 80 49 00
        E 0 80 61 00
        E 0 90 61 65
        E 120 80 61 00
        E 0 90 49 65
        E 0 90 61 65
        E 120 80 49 00
        E 0 80 61 00
        E 0 90 61 65
        E 120 80 61 00
        E 0 90 19 67
        E 0 90 31 67
        E 0 90 49 67
        E 0 90 61 67
        E 120 80 19 00
        E 0 80 31 00
        E 0 80 49 00
        E 0 80 61 00
        E 0 90 61 67
        E 120 80 61 00
        E 0 90 31 67
        E 0 90 49 67
        E 0 90 61 67
        E 120 80 31 00
        E 0 80 49 00
        E 0 80 61 00
        E 0 90 61 67
        E 120 80 61 00
        E 0 90 31 67
        E 0 90 49 67
        E 0 90 61 67
        E 120 80 31 00
        E 0 80 49 00
        E 0 80 61 00
        E 0 90 61 67
        E 120 80 61 00
        E 0 90 49 67
        E 0 90 61 67
        E 120 80 49 00
        E 0 80 61 00
        E 0 90 61 67
        E 120 80 61 00
        E 0 90 19 68
        E 0 90 31 68
        E 0 90 49 68
        E 0 90 61 68
        E 0 90 6c 68
        E 120 80 19 00
        E 0 80 31 00
        E 0 80 49 00
        E 0 80 61 00
        E 0 80 6c 00
        E 0 90 61 68
        E 120 80 61 00
        E 0 90 31 68
        E 0 90 49 68
        E 0 90 61 68
        E 120 80 31 00
        E 0 80 49 00
        E 0 80 61 00
        E 0 90 61 68
        E 120 80 61 00
        E 0 90 31 68
        E 0 90 49 68
        E 0 90 61 68
        E 120 80 31 00
        E 0 80 49 00
        E 0 80 61 00
        E 0 90 61 68
        E 120 80 61 00
        E 0 90 49 68
        E 0 90 61 68
        E 120 80 49 00
        E 0 80 61 00
        E 0 90 61 68
        E 120 80 61 00
        E 0 90 19 6a
        E 0 90 31 6a
        E 0 90 49 6a
        E 0 90 61 6a
        E 120 80 19 00
        E 0 80 31 00
        E 0 80 49 00
        E 0 80 61 00
        E 0 90 61 6a
        E 120 80 61 00
        E 0 90 31 6a
        E 0 90 49 6a
        E 0 90 61 6a
        E 120 80 31 00
        E 0 80 49 00
        E 0 80 61 00
        E 0 90 61 6a
        E 120 80 61 00
        E 0 90 19 6a
        E 0 90 31 6a
        E 0 90 49 6a
        E 0 90 61 6a
        E 120 80 19 00
        E 0 80 31 00
        E 0 80 49 00
        E 0 80 61 00
        E 0 90 61 6a
        E 120 80 61 00
        E 0 90 31 6a
        E 0 90 49 6a
        E 0 90 61 6a
        E 120 80 31 00
        E 0 80 49 00
        E 0 80 61 00
        E 0 90 61 6a
        <X 120 0
          /wFbZW5kX3BiIHNvbmdfdHJhaW5lcl9wYl8xMl0=
        >
        E 0 80 61 00
        E 0 90 1a 67
        E 0 90 32 67
        E 0 90 4a 67
        E 0 90 62 67
        E 0 90 6c 65
        E 120 80 1a 00
        E 0 80 32 00
        E 0 80 4a 00
        E 0 80 62 00
        E 0 80 6c 00
        E 0 90 62 67
        E 120 80 62 00
        E 0 90 32 67
        E 0 90 4a 67
        E 0 90 62 67
        E 120 80 32 00
        E 0 80 4a 00
        E 0 80 62 00
        E 0 90 62 67
        E 120 80 62 00
        E 0 90 32 67
        E 0 90 4a 67
        E 0 90 62 67
        E 120 80 32 00
        E 0 80 4a 00
        E 0 80 62 00
        E 0 90 62 67
        E 120 80 62 00
        E 0 90 4a 67
        E 0 90 62 67
        E 120 80 4a 00
        E 0 80 62 00
        E 0 90 62 67
        E 120 80 62 00
        E 0 90 1a 65
        E 0 90 32 65
        E 0 90 4a 65
        E 0 90 62 65
        E 120 80 1a 00
        E 0 80 32 00
        E 0 80 4a 00
        E 0 80 62 00
        E 0 90 62 65
        E 120 80 62 00
        E 0 90 32 65
        E 0 90 4a 65
        E 0 90 62 65
        E 120 80 32 00
        E 0 80 4a 00
        E 0 80 62 00
        E 0 90 62 65
        E 120 80 62 00
        E 0 90 32 65
        E 0 90 4a 65
        E 0 90 62 65
        E 120 80 32 00
        E 0 80 4a 00
        E 0 80 62 00
        E 0 90 62 65
        E 120 80 62 00
        E 0 90 4a 65
        E 0 90 62 65
        E 120 80 4a 00
        E 0 80 62 00
        E 0 90 62 65
        E 120 80 62 00
        E 0 90 19 65
        E 0 90 31 65
        E 0 90 49 65
        E 0 90 61 65
        E 120 80 19 00
        E 0 80 31 00
        E 0 80 49 00
        E 0 80 61 00
        E 0 90 61 65
        E 120 80 61 00
        E 0 90 31 65
        E 0 90 49 65
        E 0 90 61 65
        E 120 80 31 00
        E 0 80 49 00
        E 0 80 61 00
        E 0 90 61 65
        E 120 80 61 00
        E 0 90 19 65
        E 0 90 31 65
        E 0 90 49 65
        E 0 90 61 65
        E 120 80 19 00
        E 0 80 31 00
        E 0 80 49 00
        E 0 80 61 00
        E 0 90 61 65
        E 120 80 61 00
        E 0 90 31 65
        E 0 90 49 65
        E 0 90 61 65
        E 120 80 31 00
        E 0 80 49 00
        E 0 80 61 00
        E 0 90 61 65
        E 120 80 61 00
        E 0 90 19 65
        E 0 90 31 65
        E 0 90 49 65
        E 0 90 61 65
        E 120 80 19 00
        E 0 80 31 00
        E 0 80 49 00
        E 0 80 61 00
        E 0 90 61 65
        E 120 80 61 00
        E 0 90 31 65
        E 0 90 49 65
        E 0 90 61 65
        E 120 80 31 00
        E 0 80 49 00
        E 0 80 61 00
        E 0 90 61 65
        E 120 80 61 00
        E 0 90 31 65
        E 0 90 49 65
        E 0 90 61 65
        E 120 80 31 00
        E 0 80 49 00
        E 0 80 61 00
        E 0 90 61 65
        E 120 80 61 00
        E 0 90 49 65
        E 0 90 61 65
        E 120 80 49 00
        E 0 80 61 00
        E 0 90 61 65
        E 120 80 61 00
        E 0 90 1a 67
        E 0 90 32 67
        E 0 90 4a 67
        E 0 90 62 67
        E 0 90 74 64
        E 120 80 1a 00
        E 0 80 32 00
        E 0 80 4a 00
        E 0 80 62 00
        E 0 90 62 67
        E 120 80 62 00
        E 0 90 32 67
        E 0 90 4a 67
        E 0 90 62 67
        E 120 80 32 00
        E 0 80 4a 00
        E 0 80 62 00
        E 0 90 62 67
        E 120 80 62 00
        E 0 90 32 67
        E 0 90 4a 67
        E 0 90 62 67
        E 120 80 32 00
        E 0 80 4a 00
        E 0 80 62 00
        E 0 90 62 67
        E 120 80 62 00
        E 0 90 4a 67
        E 0 90 62 67
        E 120 80 4a 00
        E 0 80 62 00
        E 0 90 62 67
        E 120 80 62 00
        E 0 90 1a 65
        E 0 90 32 65
        E 0 90 4a 65
        E 0 90 62 65
        E 120 80 1a 00
        E 0 80 32 00
        E 0 80 4a 00
        E 0 80 62 00
        E 0 90 62 65
        E 120 80 62 00
        E 0 90 32 65
        E 0 90 4a 65
        E 0 90 62 65
        E 120 80 32 00
        E 0 80 4a 00
        E 0 80 62 00
        E 0 90 62 65
        E 120 80 62 00
        E 0 90 32 65
        E 0 90 4a 65
        E 0 90 62 65
        E 120 80 32 00
        E 0 80 4a 00
        E 0 80 62 00
        E 0 90 62 65
        E 120 80 62 00
        E 0 90 4a 65
        E 0 90 62 65
        E 120 80 4a 00
        E 0 80 62 00
        E 0 90 62 65
        E 120 80 62 00
        E 0 90 19 65
        E 0 90 31 65
        E 0 90 49 65
        E 0 90 61 65
        E 120 80 74 00
        E 0 80 19 00
        E 0 80 31 00
        E 0 80 49 00
        E 0 80 61 00
        E 0 90 61 65
        E 120 80 61 00
        E 0 90 31 65
        E 0 90 49 65
        E 0 90 61 65
        E 120 80 31 00
        E 0 80 49 00
        E 0 80 61 00
        E 0 90 61 65
        E 120 80 61 00
        E 0 90 19 65
        E 0 90 31 65
        E 0 90 49 65
        E 0 90 61 65
        E 120 80 19 00
        E 0 80 31 00
        E 0 80 49 00
        E 0 80 61 00
        E 0 90 61 65
        E 120 80 61 00
        E 0 90 31 65
        E 0 90 49 65
        E 0 90 61 65
        E 120 80 31 00
        E 0 80 49 00
        E 0 80 61 00
        E 0 90 61 65
        E 120 80 61 00
        E 0 90 19 65
        E 0 90 31 65
        E 0 90 49 65
        E 0 90 61 65
        E 120 80 19 00
        E 0 80 31 00
        E 0 80 49 00
        E 0 80 61 00
        E 0 90 61 65
        E 120 80 61 00
        E 0 90 31 65
        E 0 90 49 65
        E 0 90 61 65
        E 120 80 31 00
        E 0 80 49 00
        E 0 80 61 00
        E 0 90 61 65
        E 120 80 61 00
        E 0 90 31 65
        E 0 90 49 65
        E 0 90 61 65
        E 120 80 31 00
        E 0 80 49 00
        E 0 80 61 00
        E 0 90 61 65
        E 120 80 61 00
        E 0 90 49 65
        E 0 90 61 65
        E 120 80 49 00
        E 0 80 61 00
        E 0 90 61 65
        E 120 80 61 00
        E 0 90 1a 67
        E 0 90 32 67
        E 0 90 4a 67
        E 0 90 62 67
        E 120 80 1a 00
        E 0 80 32 00
        E 0 80 4a 00
        E 0 80 62 00
        E 0 90 62 67
        E 120 80 62 00
        E 0 90 32 67
        E 0 90 4a 67
        E 0 90 62 67
        E 120 80 32 00
        E 0 80 4a 00
        E 0 80 62 00
        E 0 90 62 67
        E 120 80 62 00
        E 0 90 1a 67
        E 0 90 32 67
        E 0 90 4a 67
        E 0 90 62 67
        E 120 80 1a 00
        E 0 80 32 00
        E 0 80 4a 00
        E 0 80 62 00
        E 0 90 62 67
        E 120 80 62 00
        E 0 90 32 67
        E 0 90 4a 67
        E 0 90 62 67
        E 120 80 32 00
        E 0 80 4a 00
        E 0 80 62 00
        E 0 90 62 67
        E 120 80 62 00
        E 0 90 1a 64
        E 0 90 32 64
        E 0 90 4a 64
        E 0 90 62 64
        E 120 80 1a 00
        E 0 80 32 00
        E 0 80 4a 00
        E 0 80 62 00
        E 0 90 62 64
        E 120 80 62 00
        E 0 90 32 64
        E 0 90 4a 64
        E 0 90 62 64
        E 120 80 32 00
        E 0 80 4a 00
        E 0 80 62 00
        E 0 90 62 64
        E 120 80 62 00
        E 0 90 32 64
        E 0 90 4a 64
        E 0 90 62 64
        E 120 80 32 00
        E 0 80 4a 00
        E 0 80 62 00
        E 0 90 62 64
        E 120 80 62 00
        E 0 90 4a 64
        E 0 90 62 64
        E 120 80 4a 00
        E 0 80 62 00
        E 0 90 62 64
        E 120 80 62 00
        E 0 90 19 65
        E 0 90 31 65
        E 0 90 49 65
        E 0 90 61 65
        E 120 80 19 00
        E 0 80 31 00
        E 0 80 49 00
        E 0 80 61 00
        E 0 90 61 65
        E 120 80 61 00
        E 0 90 31 65
        E 0 90 49 65
        E 0 90 61 65
        E 120 80 31 00
        E 0 80 49 00
        E 0 80 61 00
        E 0 90 61 65
        E 120 80 61 00
        E 0 90 19 65
        E 0 90 31 65
        E 0 90 49 65
        E 0 90 61 65
        E 120 80 19 00
        E 0 80 31 00
        E 0 80 49 00
        E 0 80 61 00
        E 0 90 61 65
        E 120 80 61 00
        E 0 90 31 65
        E 0 90 49 65
        E 0 90 61 65
        E 120 80 31 00
        E 0 80 49 00
        E 0 80 61 00
        E 0 90 61 65
        E 120 80 61 00
        E 0 90 19 65
        E 0 90 31 65
        E 0 90 49 65
        E 0 90 61 65
        E 120 80 19 00
        E 0 80 31 00
        E 0 80 49 00
        E 0 80 61 00
        E 0 90 61 65
        E 120 80 61 00
        E 0 90 31 65
        E 0 90 49 65
        E 0 90 61 65
        E 120 80 31 00
        E 0 80 49 00
        E 0 80 61 00
        E 0 90 61 65
        E 120 80 61 00
        E 0 90 31 65
        E 0 90 49 65
        E 0 90 61 65
        E 120 80 31 00
        E 0 80 49 00
        E 0 80 61 00
        E 0 90 61 65
        E 120 80 61 00
        E 0 90 49 65
        E 0 90 61 65
        E 120 80 49 00
        E 0 80 61 00
        E 0 90 61 65
        E 120 80 61 00
        E 0 90 1a 67
        E 0 90 32 67
        E 0 90 4a 67
        E 0 90 62 67
        E 120 80 1a 00
        E 0 80 32 00
        E 0 80 4a 00
        E 0 80 62 00
        E 0 90 62 67
        E 120 80 62 00
        E 0 90 32 67
        E 0 90 4a 67
        E 0 90 62 67
        E 120 80 32 00
        E 0 80 4a 00
        E 0 80 62 00
        E 0 90 62 67
        E 120 80 62 00
        E 0 90 32 67
        E 0 90 4a 67
        E 0 90 62 67
        E 120 80 32 00
        E 0 80 4a 00
        E 0 80 62 00
        E 0 90 62 67
        E 120 80 62 00
        E 0 90 4a 67
        E 0 90 62 67
        E 120 80 4a 00
        E 0 80 62 00
        E 0 90 62 67
        E 120 80 62 00
        E 0 90 1a 65
        E 0 90 32 65
        E 0 90 4a 65
        E 0 90 62 65
        E 120 80 1a 00
        E 0 80 32 00
        E 0 80 4a 00
        E 0 80 62 00
        E 0 90 62 65
        E 120 80 62 00
        E 0 90 32 65
        E 0 90 4a 65
        E 0 90 62 65
        E 120 80 32 00
        E 0 80 4a 00
        E 0 80 62 00
        E 0 90 62 65
        E 120 80 62 00
        E 0 90 32 65
        E 0 90 4a 65
        E 0 90 62 65
        E 120 80 32 00
        E 0 80 4a 00
        E 0 80 62 00
        E 0 90 62 65
        E 120 80 62 00
        E 0 90 4a 65
        E 0 90 62 65
        E 120 80 4a 00
        E 0 80 62 00
        E 0 90 62 65
        E 120 80 62 00
        E 0 90 19 65
        E 0 90 31 65
        E 0 90 49 65
        E 0 90 61 65
        E 120 80 19 00
        E 0 80 31 00
        E 0 80 49 00
        E 0 80 61 00
        E 0 90 61 65
        E 120 80 61 00
        E 0 90 31 65
        E 0 90 49 65
        E 0 90 61 65
        E 120 80 31 00
        E 0 80 49 00
        E 0 80 61 00
        E 0 90 61 65
        E 120 80 61 00
        E 0 90 19 65
        E 0 90 31 65
        E 0 90 49 65
        E 0 90 61 65
        E 120 80 19 00
        E 0 80 31 00
        E 0 80 49 00
        E 0 80 61 00
        E 0 90 61 65
        E 120 80 61 00
        E 0 90 31 65
        E 0 90 49 65
        E 0 90 61 65
        E 120 80 31 00
        E 0 80 49 00
        E 0 80 61 00
        E 0 90 61 65
        E 120 80 61 00
        E 0 90 19 65
        E 0 90 31 65
        E 0 90 49 65
        E 0 90 61 65
        E 120 80 19 00
        E 0 80 31 00
        E 0 80 49 00
        E 0 80 61 00
        E 0 90 61 65
        E 120 80 61 00
        E 0 90 31 65
        E 0 90 49 65
        E 0 90 61 65
        E 120 80 31 00
        E 0 80 49 00
        E 0 80 61 00
        E 0 90 61 65
        E 120 80 61 00
        E 0 90 19 65
        E 0 90 31 65
        E 0 90 49 65
        E 0 90 61 65
        E 120 80 19 00
        E 0 80 31 00
        E 0 80 49 00
        E 0 80 61 00
        E 0 90 61 65
        E 120 80 61 00
        E 0 90 31 65
        E 0 90 49 65
        E 0 90 61 65
        E 120 80 31 00
        E 0 80 49 00
        E 0 80 61 00
        E 0 90 61 65
        E 120 80 61 00
        E 0 90 19 65
        E 0 90 31 65
        E 0 90 49 65
        E 0 90 61 65
        E 120 80 19 00
        E 0 80 31 00
        E 0 80 49 00
        E 0 80 61 00
        E 0 90 61 65
        E 120 80 61 00
        E 0 90 31 65
        E 0 90 49 65
        E 0 90 61 65
        E 120 80 31 00
        E 0 80 49 00
        E 0 80 61 00
        E 0 90 61 65
        E 120 80 61 00
        E 0 90 19 65
        E 0 90 31 65
        E 0 90 49 65
        E 0 90 61 65
        E 120 80 19 00
        E 0 80 31 00
        E 0 80 49 00
        E 0 80 61 00
        E 0 90 61 65
        E 120 80 61 00
        E 0 90 31 65
        E 0 90 49 65
        E 0 90 61 65
        E 120 80 31 00
        E 0 80 49 00
        E 0 80 61 00
        E 0 90 61 65
        E 120 80 61 00
        E 0 90 19 65
        E 0 90 31 65
        E 0 90 49 65
        E 0 90 61 65
        E 120 80 19 00
        E 0 80 31 00
        E 0 80 49 00
        E 0 80 61 00
        E 0 90 61 65
        E 120 80 61 00
        E 0 90 31 65
        E 0 90 49 65
        E 0 90 61 65
        E 120 80 31 00
        E 0 80 49 00
        E 0 80 61 00
        E 0 90 61 65
        E 120 80 61 00
        E 0 90 19 65
        E 0 90 31 65
        E 0 90 49 65
        E 0 90 61 65
        E 120 80 19 00
        E 0 80 31 00
        E 0 80 49 00
        E 0 80 61 00
        E 0 90 61 65
        E 120 80 61 00
        E 0 90 31 65
        E 0 90 49 65
        E 0 90 61 65
        E 120 80 31 00
        E 0 80 49 00
        E 0 80 61 00
        E 0 90 61 65
        E 119 80 61 00
        E 3841 b0 7b 00
        GUID {B16A0F53-738B-4E83-A858-BAA2C2A017C3}
        IGNTEMPO 0 120.00000000 4 4
        SRCCOLOR 3
        VELLANE 132 71 60
        COLORMAP "C:\Program Files\REAPER (x64)\Data\color_maps\rockband_guitarbass.png"
        CFGEDITVIEW 0.000000 4.885714 7 12 0 0 0
        CFGEDIT 1 1 0 1 1 0 1 1 1 1 1 0.25000000 100 100 1200 800 0 2 2 1 0.00000000 0 1 1 0 0.500000 0 0 1.000000 64
        KEYSNAP 0 6 "102030050700" 0 "Pentatonic"
        EVTFILTER 0 -1 -1 -1 -1 0 1 0 0 -1.00000000 -1.00000000
      >
    >
  >
  <TRACK '{6A4F63E9-CA54-49B0-8697-D69BF377F047}'
    NAME "PART REAL_GUITAR"
    PEAKCOL 16576
    BEAT -1
    AUTOMODE 0
    VOLPAN 1.00000000000000 0.00000000000000 -1.00000000000000 -1.00000000000000 1.00000000000000
    MUTESOLO 0 0 0
    IPHASE 0
    ISBUS 0 0
    BUSCOMP 0 0
    SHOWINMIX 1 0.666700 0.500000 1 0.500000 -1 -1 -1
    FREEMODE 0
    SEL 0
    REC 0 0 0 0 0 0 0
    VU 2
    TRACKHEIGHT 0 0
    INQ 0 0 0 0.5000000000 100 0 0 100
    NCHAN 2
    FX 0
    TRACKID {6A4F63E9-CA54-49B0-8697-D69BF377F047}
    PERF 0
    MIDIOUT -1
    <MIDINOTENAMES
      0 127 "Trill Marker"
      0 126 "Tremolo Marker"
      0 125 "BRE"
      0 124 "BRE"
      0 123 "BRE"
      0 122 "BRE"
      0 121 "BRE"
      0 120 "BRE (use all 6)"
      0 119 "-----------"
      0 116 "OVERDRIVE"
      0 115 "Solo Marker"
      0 109 "-----------"
      0 108 "Fret Hand Position"
      0 107 "Force Chord Numbering"
      0 106 "Loose Strumming"
      0 105 "Strum Direction"
      0 104 "Arpeggio Marker"
      0 103 "Slide Marker"
      0 102 "Force HOPO"
      0 101 "EXPERT e String"
      0 100 "EXPERT B String"
      0 99 "EXPERT G String"
      0 98 "EXPERT D String"
      0 97 "EXPERT A String"
      0 96 "EXPERT E String"
      0 95 "-----------"
      0 82 "Loose Strumming"
      0 81 "Strum Direction"
      0 80 "Arpeggio Marker"
      0 79 "Slide Marker"
      0 78 "Force HOPO"
      0 77 "HARD e String"
      0 76 "HARD B String"
      0 75 "HARD G String"
      0 74 "HARD D String"
      0 73 "HARD A String"
      0 72 "HARD E String"
      0 71 "-----------"
      0 58 "Loose Strumming"
      0 56 "Arpeggio Marker"
      0 55 "Slide Marker"
      0 53 "MEDIUM e String"
      0 52 "MEDIUM B String"
      0 51 "MEDIUM G String"
      0 50 "MEDIUM D String"
      0 49 "MEDIUM A String"
      0 48 "MEDIUM E String"
      0 47 "-----------"
      0 32 "Arpeggio Marker"
      0 31 "Slide Marker"
      0 29 "EASY e String"
      0 28 "EASY B String"
      0 27 "EASY G String"
      0 26 "EASY D String"
      0 25 "EASY A String"
      0 24 "EASY E String"
      0 21 "-----------"
      0 18 "Flat/Sharp Swap"
      0 17 "Hide Chord Names"
      0 16 "Slash Chord"
      0 15 "D#"
      0 14 "D"
      0 13 "C#"
      0 12 "C"
      0 11 "B"
      0 10 "A#"
      0 9 "A"
      0 8 "G#"
      0 7 "G"
      0 6 "F#"
      0 5 "F"
      0 4 "E"
    >
    MAINSEND 1 0
    <FXCHAIN
      WNDRECT 0 43 655 467
      SHOW 0
      LASTSEL 1
      DOCKED 0
      BYPASS 0 0
      <JS "c3/progtr" ""
        0.000000 3.000000 0.000000 0.000000 0.000000 0.000000 0.000000 0.000000 0.000000 1.000000 - - - - - - - - - - - - - - - - - - - - - - - - - - - - - - - - - - - - - - - - - - - - - - - - - - - - - - 
      >
      FLOATPOS 0 0 0 0
      FXID {9C197DE4-2272-47CF-9D11-2C9A7C765E9E}
      WAK 0
      BYPASS 0 0
      <VST "VSTi: ReaSynth (Cockos)" "reasynth.dll" 0 ""
        eXNlcu9e7f4AAAAAAgAAAAEAAAAAAAAAAgAAAAAAAAA4AAAAAAAAAA==
        AAAQAO++rd4N8K3eppvEO8Iexz2HFlk/AAAAAAAAAADMm4A+4jAEPA==
        AAAAAAAAAD+01hM+j8L1PQAAAD8AABAAAAA=
      >
      FLOATPOS 0 0 0 0
      FXID {2A59269D-C929-4AF7-992B-C751B759C438}
      WAK 0
    >
    <ITEM
      POSITION 0.00000000000000
      SNAPOFFS 0.00000000000000
      LENGTH 144.00000000000000
      LOOP 0
      ALLTAKES 0
      SEL 0
      FADEIN 1 0.000000 0.000000 1 0
      FADEOUT 1 0.000000 0.000000 1 0
      MUTE 0
      IGUID {DAE66835-6C11-4FDA-8C0C-D69607CFA79E}
      IID 5
      NAME "PART REAL_GUITAR"
      VOLPAN 1.000000 0.000000 1.000000 -1.000000
      SOFFS 0.00000000000000 0.00000000000000
      PLAYRATE 1.00000000000000 1 0.00000000000000 -1
      CHANMODE 0
      GUID {85BAD936-2A8E-4715-9023-76CD1849C4F3}
      <SOURCE MIDI
        HASDATA 1 480 QN
        POOLEDEVTS {768E0CB8-C521-4AFA-AB83-90C1AA6C739C}
        <X 0 0
          /wNQQVJUIFJFQUxfR1VJVEFS
        >
        <X 17280 0
          /wFbYmVnaW5fcGcgc29uZ190cmFpbmVyX3BnXzFd
        >
        E 0 90 08 64
        E 0 90 1a 6a
        E 0 90 32 6a
        E 0 90 4a 6a
        E 0 90 50 64
        E 0 90 62 6a
        E 0 90 68 64
        E 0 90 6c 68
        E 0 91 4b 69
        E 0 91 4c 68
        E 0 91 63 69
        E 0 91 64 68
        E 120 80 08 00
        E 0 80 1a 00
        E 0 80 32 00
        E 0 80 4a 00
        E 0 80 62 00
        E 0 80 6c 00
        E 0 81 4b 00
        E 0 81 4c 00
        E 0 81 63 00
        E 0 81 64 00
        E 120 90 4b 69
        E 0 90 63 69
        E 120 80 4b 00
        E 0 80 63 00
        E 120 90 34 68
        E 0 90 4c 68
        E 0 90 64 68
        E 120 80 34 00
        E 0 80 4c 00
        E 0 80 64 00
        E 120 90 4b 69
        E 0 90 63 69
        E 120 80 50 00
        E 0 80 68 00
        E 0 80 4b 00
        E 0 80 63 00
        E 120 90 09 64
        E 0 90 1a 6b
        E 0 90 32 6b
        E 0 90 4a 6b
        E 0 90 50 64
        E 0 90 62 6b
        E 0 90 68 64
        E 0 90 6c 69
        E 0 91 4b 6a
        E 0 91 4c 69
        E 0 91 63 6a
        E 0 91 64 69
        E 120 80 09 00
        E 0 80 1a 00
        E 0 80 32 00
        E 0 80 4a 00
        E 0 80 62 00
        E 0 80 6c 00
        E 0 81 4b 00
        E 0 81 4c 00
        E 0 81 63 00
        E 0 81 64 00
        E 120 90 4b 6a
        E 0 90 63 6a
        E 120 80 4b 00
        E 0 80 63 00
        E 120 90 34 69
        E 0 90 4c 69
        E 0 90 64 69
        E 120 80 34 00
        E 0 80 4c 00
        E 0 80 64 00
        E 120 90 4b 6a
        E 0 90 63 6a
        E 120 80 50 00
        E 0 80 68 00
        E 0 80 4b 00
        E 0 80 63 00
        E 120 90 0b 64
        E 0 90 1a 6d
        E 0 90 32 6d
        E 0 90 4a 6d
        E 0 90 50 64
        E 0 90 62 6d
        E 0 90 68 64
        E 0 90 6c 6b
        E 0 91 4b 6c
        E 0 91 4c 6b
        E 0 91 63 6c
        E 0 91 64 6b
        E 120 80 0b 00
        E 0 80 1a 00
        E 0 80 32 00
        E 0 80 4a 00
        E 0 80 62 00
        E 0 80 6c 00
        E 0 81 4b 00
        E 0 81 4c 00
        E 0 81 63 00
        E 0 81 64 00
        E 120 90 4b 6c
        E 0 90 63 6c
        E 120 80 4b 00
        E 0 80 63 00
        E 120 90 34 6b
        E 0 90 4c 6b
        E 0 90 64 6b
        E 120 80 34 00
        E 0 80 4c 00
        E 0 80 64 00
        E 120 90 4b 6c
        E 0 90 63 6c
        E 120 80 50 00
        E 0 80 68 00
        E 0 80 4b 00
        E 0 80 63 00
        E 120 90 04 64
        E 0 90 19 6b
        E 0 90 31 6b
        E 0 90 49 6b
        E 0 90 50 64
        E 0 90 61 6b
        E 0 90 68 64
        E 0 91 4a 6d
        E 0 91 4b 6d
        E 0 91 62 6d
        E 0 91 63 6d
        E 120 80 04 00
        E 0 80 19 00
        E 0 80 31 00
        E 0 80 49 00
        E 0 80 61 00
        E 0 81 4a 00
        E 0 81 4b 00
        E 0 81 62 00
        E 0 81 63 00
        E 120 90 4a 6d
        E 0 90 62 6d
        E 120 80 4a 00
        E 0 80 62 00
        E 120 90 33 6d
        E 0 90 4b 6d
        E 0 90 63 6d
        E 120 80 50 00
        E 0 80 68 00
        E 0 80 33 00
        E 0 80 4b 00
        E 0 80 63 00
        E 360 90 08 64
        E 0 90 1a 6a
        E 0 90 32 6a
        E 0 90 4a 6a
        E 0 90 50 64
        E 0 90 62 6a
        E 0 90 68 64
        E 0 90 6c 68
        E 0 91 4b 69
        E 0 91 4c 68
        E 0 91 63 69
        E 0 91 64 68
        E 120 80 08 00
        E 0 80 1a 00
        E 0 80 32 00
        E 0 80 4a 00
        E 0 80 62 00
        E 0 80 6c 00
        E 0 81 4b 00
        E 0 81 4c 00
        E 0 81 63 00
        E 0 81 64 00
        E 120 90 4b 69
        E 0 90 63 69
        E 120 80 4b 00
        E 0 80 63 00
        E 120 90 34 68
        E 0 90 4c 68
        E 0 90 64 68
        E 120 80 34 00
        E 0 80 4c 00
        E 0 80 64 00
        E 120 90 4b 69
        E 0 90 63 69
        E 120 80 50 00
        E 0 80 68 00
        E 0 80 4b 00
        E 0 80 63 00
        E 120 90 09 64
        E 0 90 1a 6b
        E 0 90 32 6b
        E 0 90 4a 6b
        E 0 90 50 64
        E 0 90 62 6b
        E 0 90 68 64
        E 0 90 6c 69
        E 0 91 4b 6a
        E 0 91 4c 69
        E 0 91 63 6a
        E 0 91 64 69
        E 120 80 09 00
        E 0 80 1a 00
        E 0 80 32 00
        E 0 80 4a 00
        E 0 80 62 00
        E 0 80 6c 00
        E 0 81 4b 00
        E 0 81 4c 00
        E 0 81 63 00
        E 0 81 64 00
        E 120 90 4b 6a
        E 0 90 63 6a
        E 120 80 4b 00
        E 0 80 63 00
        E 120 90 34 69
        E 0 90 4c 69
        E 0 90 64 69
        E 120 80 34 00
        E 0 80 4c 00
        E 0 80 64 00
        E 120 90 4b 6a
        E 0 90 63 6a
        E 120 80 50 00
        E 0 80 68 00
        E 0 80 4b 00
        E 0 80 63 00
        E 120 90 0b 64
        E 0 90 1c 6b
        E 0 90 4c 6b
        E 0 90 50 64
        E 0 90 64 6b
        E 0 90 68 64
        E 0 90 6c 6b
        E 0 90 74 64
        E 0 91 4a 6d
        E 0 91 4b 6c
        E 0 91 62 6d
        E 0 91 63 6c
        E 120 80 0b 00
        E 0 80 1c 00
        E 0 80 4c 00
        E 0 80 64 00
        E 0 80 6c 00
        E 0 81 4a 00
        E 0 81 4b 00
        E 0 81 62 00
        E 0 81 63 00
        E 120 90 33 6c
        E 0 90 4b 6c
        E 0 90 63 6c
        E 120 80 33 00
        E 0 80 4b 00
        E 0 80 63 00
        E 120 90 34 6b
        E 0 90 4c 6b
        E 0 90 64 6b
        E 120 80 34 00
        E 0 80 4c 00
        E 0 80 64 00
        E 120 90 4b 6c
        E 0 90 63 6c
        E 120 80 50 00
        E 0 80 68 00
        E 0 80 4b 00
        E 0 80 63 00
        E 120 90 04 64
        E 0 90 1c 6d
        E 0 90 31 6b
        E 0 90 32 6d
        E 0 90 49 6b
        E 0 90 4a 6d
        E 0 90 4b 6d
        E 0 90 4c 6d
        E 0 90 61 6b
        E 0 90 62 6d
        E 0 90 63 6d
        E 0 90 64 6d
        E 120 80 04 00
        E 0 80 1c 00
        E 0 80 31 00
        E 0 80 32 00
        E 0 80 49 00
        E 0 80 4a 00
        E 0 80 4b 00
        E 0 80 4c 00
        E 0 80 61 00
        E 0 80 62 00
        E 0 80 63 00
        E 0 80 64 00
        E 120 90 31 6b
        E 0 90 32 6d
        E 0 90 49 6b
        E 0 90 4a 6d
        E 0 90 4b 6d
        E 0 90 4c 6d
        E 0 90 61 6b
        E 0 90 62 6d
        E 0 90 63 6d
        E 0 90 64 6d
        E 120 80 31 00
        E 0 80 32 00
        E 0 80 49 00
        E 0 80 4a 00
        E 0 80 4b 00
        E 0 80 4c 00
        E 0 80 61 00
        E 0 80 62 00
        E 0 80 63 00
        E 0 80 64 00
        E 120 90 31 6b
        E 0 90 32 6d
        E 0 90 49 6b
        E 0 90 4a 6d
        E 0 90 4b 6d
        E 0 90 4c 6d
        E 0 90 61 6b
        E 0 90 62 6d
        E 0 90 63 6d
        E 0 90 64 6d
        E 120 80 31 00
        E 0 80 32 00
        E 0 80 49 00
        E 0 80 4a 00
        E 0 80 4b 00
        E 0 80 4c 00
        E 0 80 61 00
        E 0 80 62 00
        E 0 80 63 00
        E 0 80 64 00
        E 120 90 31 6b
        E 0 90 32 6d
        E 0 90 49 6b
        E 0 90 4a 6d
        E 0 90 4b 6d
        E 0 90 4c 6d
        E 0 90 61 6b
        E 0 90 62 6d
        E 0 90 63 6d
        E 0 90 64 6d
        E 120 80 31 00
        E 0 80 32 00
        E 0 80 49 00
        E 0 80 4a 00
        E 0 80 4b 00
        E 0 80 4c 00
        E 0 80 61 00
        E 0 80 62 00
        E 0 80 63 00
        E 0 80 64 00
        E 120 90 1c 6d
        E 0 90 31 6b
        E 0 90 32 6d
        E 0 90 49 6b
        E 0 90 4a 6d
        E 0 90 4b 6d
        E 0 90 4c 6d
        E 0 90 61 6b
        E 0 90 62 6d
        E 0 90 63 6d
        E 0 90 64 6d
        E 120 80 74 00
        E 0 80 1c 00
        E 0 80 31 00
        E 0 80 32 00
        E 0 80 49 00
        E 0 80 4a 00
        E 0 80 4b 00
        E 0 80 4c 00
        E 0 80 61 00
        E 0 80 62 00
        E 0 80 63 00
        E 0 80 64 00
        <X 360 0
          /wFbZW5kX3BnIHNvbmdfdHJhaW5lcl9wZ18xXQ==
        >
        <X 2400 0
          /wFbYmVnaW5fcGcgc29uZ190cmFpbmVyX3BnXzJd
        >
        E 0 90 09 64
        E 0 90 31 70
        E 0 90 32 72
        E 0 90 49 70
        E 0 90 4a 72
        E 0 90 4b 72
        E 0 90 61 70
        E 0 90 62 72
        E 0 90 63 72
        E 0 90 6c 70
        E 120 80 09 00
        E 0 80 31 00
        E 0 80 32 00
        E 0 80 6c 00
        E 480 80 49 00
        E 0 80 4a 00
        E 0 80 4b 00
        E 0 80 61 00
        E 0 80 62 00
        E 0 80 63 00
        E 120 90 08 64
        E 0 90 31 6f
        E 0 90 32 71
        E 0 90 49 6f
        E 0 90 4a 71
        E 0 90 4b 71
        E 0 90 61 6f
        E 0 90 62 71
        E 0 90 63 71
        E 0 90 6c 6f
        E 120 80 08 00
        E 0 80 6c 00
        E 600 80 31 00
        E 0 80 32 00
        E 240 80 61 00
        E 0 80 62 00
        E 0 80 63 00
        E 120 80 49 00
        E 0 80 4a 00
        E 0 80 4b 00
        E 120 90 06 64
        E 0 90 31 6d
        E 0 90 32 6f
        E 0 90 49 6d
        E 0 90 4a 6f
        E 0 90 4b 6f
        E 0 90 61 6d
        E 0 90 62 6f
        E 0 90 63 6f
        E 0 90 6c 6d
        E 120 80 06 00
        E 0 80 31 00
        E 0 80 32 00
        E 0 80 6c 00
        E 480 80 49 00
        E 0 80 4a 00
        E 0 80 4b 00
        E 0 80 61 00
        E 0 80 62 00
        E 0 80 63 00
        E 120 90 04 64
        E 0 90 31 6b
        E 0 90 32 6d
        E 0 90 49 6b
        E 0 90 4a 6d
        E 0 90 4b 6d
        E 0 90 61 6b
        E 0 90 62 6d
        E 0 90 63 6d
        E 0 90 6c 6b
        E 120 80 04 00
        E 0 80 6c 00
        E 600 80 31 00
        E 0 80 32 00
        E 240 80 61 00
        E 0 80 62 00
        E 0 80 63 00
        E 120 80 49 00
        E 0 80 4a 00
        E 0 80 4b 00
        E 120 90 09 64
        E 0 90 31 70
        E 0 90 32 72
        E 0 90 49 70
        E 0 90 4a 72
        E 0 90 4b 72
        E 0 90 61 70
        E 0 90 62 72
        E 0 90 63 72
        E 0 90 6c 70
        E 120 80 09 00
        E 0 80 31 00
        E 0 80 32 00
        E 0 80 6c 00
        E 480 80 49 00
        E 0 80 4a 00
        E 0 80 4b 00
        E 0 80 61 00
        E 0 80 62 00
        E 0 80 63 00
        E 120 90 08 64
        E 0 90 31 6f
        E 0 90 32 71
        E 0 90 49 6f
        E 0 90 4a 71
        E 0 90 4b 71
        E 0 90 61 6f
        E 0 90 62 71
        E 0 90 63 71
        E 0 90 6c 6f
        E 120 80 08 00
        E 0 80 6c 00
        E 600 80 31 00
        E 0 80 32 00
        E 240 80 61 00
        E 0 80 62 00
        E 0 80 63 00
        E 120 80 49 00
        E 0 80 4a 00
        E 0 80 4b 00
        E 120 90 0f 64
        E 0 90 18 6f
        E 0 90 30 6f
        E 0 90 31 71
        E 0 90 48 6f
        E 0 90 49 71
        E 0 90 4a 71
        E 0 90 60 6f
        E 0 90 61 71
        E 0 90 62 71
        E 120 80 0f 00
        E 0 80 18 00
        E 0 80 30 00
        E 0 80 31 00
        E 480 80 48 00
        E 0 80 49 00
        E 0 80 4a 00
        E 0 80 60 00
        E 0 80 61 00
        E 0 80 62 00
        E 120 90 0d 64
        E 0 90 30 6d
        E 0 90 31 6f
        E 0 90 37 64
        E 0 90 48 6d
        E 0 90 49 6f
        E 0 90 4a 6f
        E 0 90 4f 64
        E 0 90 60 6d
        E 0 90 61 6f
        E 0 90 62 6f
        E 0 90 67 64
        E 0 90 6c 6d
        E 120 80 0d 00
        E 0 80 6c 00
        E 1560 80 30 00
        E 0 80 31 00
        E 0 80 37 00
        E 360 80 48 00
        E 0 80 49 00
        E 0 80 4a 00
        E 0 80 4f 00
        E 0 80 60 00
        E 0 80 61 00
        E 0 80 62 00
        E 0 80 67 00
        <X 120 0
          /wFbZW5kX3BnIHNvbmdfdHJhaW5lcl9wZ18yXQ==
        >
        <X 0 0
          /wFbYmVnaW5fcGcgc29uZ190cmFpbmVyX3BnXzNd
        >
        E 0 90 19 6b
        E 0 90 31 6b
        E 0 90 49 6b
        E 0 90 61 6b
        E 0 90 6c 68
        E 0 90 74 64
        E 120 80 19 00
        E 0 80 31 00
        E 0 80 49 00
        E 0 80 61 00
        E 0 80 6c 00
        E 120 90 31 6b
        E 0 90 49 6b
        E 0 90 61 6b
        E 120 80 31 00
        E 0 80 49 00
        E 0 80 61 00
        E 120 90 19 6a
        E 0 90 31 6a
        E 0 90 49 6a
        E 0 90 61 6a
        E 120 80 19 00
        E 0 80 31 00
        E 0 80 49 00
        E 0 80 61 00
        E 120 90 48 6b
        E 0 90 60 6b
        E 120 80 48 00
        E 0 80 60 00
        E 120 90 19 6a
        E 0 90 31 6a
        E 0 90 49 6a
        E 0 90 61 6a
        E 120 80 19 00
        E 0 80 31 00
        E 0 80 49 00
        E 0 80 61 00
        E 120 90 49 6a
        E 0 90 61 6a
        E 120 80 49 00
        E 0 80 61 00
        E 120 90 31 68
        E 0 90 49 68
        E 0 90 61 68
        E 120 80 31 00
        E 0 80 49 00
        E 0 80 61 00
        E 120 90 48 68
        E 0 90 60 68
        E 120 80 48 00
        E 0 80 60 00
        E 120 90 19 66
        E 0 90 31 66
        E 0 90 49 66
        E 0 90 61 66
        E 0 90 6c 66
        E 120 80 19 00
        E 0 80 31 00
        E 0 80 49 00
        E 0 80 61 00
        E 0 80 6c 00
        E 120 90 49 66
        E 0 90 61 66
        E 120 80 49 00
        E 0 80 61 00
        E 120 90 31 64
        E 0 90 49 64
        E 0 90 61 64
        E 120 80 31 00
        E 0 80 49 00
        E 0 80 61 00
        E 120 90 48 64
        E 0 90 60 64
        E 840 80 48 00
        E 0 80 60 00
        E 120 90 19 6b
        E 0 90 31 6b
        E 0 90 49 6b
        E 0 90 61 6b
        E 0 90 6c 68
        E 120 80 19 00
        E 0 80 31 00
        E 0 80 49 00
        E 0 80 61 00
        E 0 80 6c 00
        E 120 80 74 00
        E 240 90 31 6b
        E 0 90 49 6b
        E 0 90 61 6b
        E 120 80 31 00
        E 0 80 49 00
        E 0 80 61 00
        E 120 90 19 6a
        E 0 90 31 6a
        E 0 90 49 6a
        E 0 90 61 6a
        E 120 80 19 00
        E 0 80 31 00
        E 0 80 49 00
        E 0 80 61 00
        E 120 90 48 6b
        E 0 90 60 6b
        E 120 80 48 00
        E 0 80 60 00
        E 120 90 19 6a
        E 0 90 31 6a
        E 0 90 49 6a
        E 0 90 61 6a
        E 120 80 19 00
        E 0 80 31 00
        E 0 80 49 00
        E 0 80 61 00
        E 120 90 49 6a
        E 0 90 61 6a
        E 120 80 49 00
        E 0 80 61 00
        E 120 90 31 68
        E 0 90 49 68
        E 0 90 61 68
        E 120 80 31 00
        E 0 80 49 00
        E 0 80 61 00
        E 120 90 48 68
        E 0 90 60 68
        E 120 80 48 00
        E 0 80 60 00
        E 120 90 19 66
        E 0 90 31 66
        E 0 90 49 66
        E 0 90 61 66
        E 0 90 6c 66
        E 120 80 19 00
        E 0 80 31 00
        E 0 80 49 00
        E 0 80 61 00
        E 0 80 6c 00
        E 120 90 49 66
        E 0 90 61 66
        E 120 80 49 00
        E 0 80 61 00
        E 120 90 31 64
        E 0 90 49 64
        E 0 90 61 64
        E 120 80 31 00
        E 0 80 49 00
        E 0 80 61 00
        E 120 90 48 64
        E 0 90 60 64
        E 1080 80 48 00
        E 0 80 60 00
        E 120 90 19 6b
        E 0 90 31 6b
        E 0 90 49 6b
        E 0 90 61 6b
        E 0 90 6c 6a
        E 120 80 19 00
        E 0 80 31 00
        E 0 80 49 00
        E 0 80 61 00
        E 0 80 6c 00
        E 120 90 31 6b
        E 0 90 49 6b
        E 0 90 61 6b
        E 120 80 31 00
        E 0 80 49 00
        E 0 80 61 00
        E 120 90 19 6a
        E 0 90 31 6a
        E 0 90 49 6a
        E 0 90 61 6a
        E 120 80 19 00
        E 0 80 31 00
        E 0 80 49 00
        E 0 80 61 00
        E 120 90 48 6b
        E 0 90 60 6b
        E 120 80 48 00
        E 0 80 60 00
        E 120 90 19 69
        E 0 90 31 69
        E 0 90 49 69
        E 0 90 61 69
        E 0 90 6c 67
        E 120 80 19 00
        E 0 80 31 00
        E 0 80 49 00
        E 0 80 61 00
        E 0 80 6c 00
        E 120 90 49 69
        E 0 90 61 69
        E 120 80 49 00
        E 0 80 61 00
        E 120 90 31 67
        E 0 90 49 67
        E 0 90 61 67
        E 120 80 31 00
        E 0 80 49 00
        E 0 80 61 00
        E 120 90 48 67
        E 0 90 60 67
        E 120 80 48 00
        E 0 80 60 00
        E 120 90 19 66
        E 0 90 31 66
        E 0 90 49 66
        E 0 90 61 66
        E 0 90 6c 66
        E 120 80 19 00
        E 0 80 31 00
        E 0 80 49 00
        E 0 80 61 00
        E 0 80 6c 00
        E 120 90 49 66
        E 0 90 61 66
        E 120 80 49 00
        E 0 80 61 00
        E 120 90 31 64
        E 0 90 49 64
        E 0 90 61 64
        E 120 80 31 00
        E 0 80 49 00
        E 0 80 61 00
        E 120 90 48 64
        E 0 90 60 64
        E 1080 80 48 00
        E 0 80 60 00
        <X 120 0
          /wFbZW5kX3BnIHNvbmdfdHJhaW5lcl9wZ18zXQ==
        >
        <X 0 0
          /wFbYmVnaW5fcGcgc29uZ190cmFpbmVyX3BnXzRd
        >
        E 0 90 09 64
        E 0 90 12 64
        E 0 90 1a 66
        E 0 90 32 66
        E 0 90 49 64
        E 0 90 4a 66
        E 0 90 61 64
        E 0 90 62 66
        E 0 90 6c 66
        E 120 80 09 00
        E 0 80 1a 00
        E 0 80 32 00
        E 0 80 49 00
        E 0 80 4a 00
        E 0 80 61 00
        E 0 80 62 00
        E 0 80 6c 00
        E 120 90 32 66
        E 0 90 49 64
        E 0 90 4a 66
        E 0 90 61 64
        E 0 90 62 66
        E 120 80 32 00
        E 0 80 49 00
        E 0 80 4a 00
        E 0 80 61 00
        E 0 80 62 00
        E 120 90 32 66
        E 0 90 49 64
        E 0 90 4a 66
        E 0 90 61 64
        E 0 90 62 66
        E 120 80 32 00
        E 0 80 49 00
        E 0 80 4a 00
        E 0 80 61 00
        E 0 80 62 00
        E 120 90 49 64
        E 0 90 4a 66
        E 0 90 61 64
        E 0 90 62 66
        E 120 80 49 00
        E 0 80 4a 00
        E 0 80 61 00
        E 0 80 62 00
        E 120 90 0a 64
        E 0 90 19 65
        E 0 90 31 65
        E 0 90 32 67
        E 0 90 49 65
        E 0 90 4a 67
        E 0 90 61 65
        E 0 90 62 67
        E 0 90 6c 65
        E 120 80 0a 00
        E 0 80 19 00
        E 0 80 31 00
        E 0 80 32 00
        E 0 80 49 00
        E 0 80 4a 00
        E 0 80 61 00
        E 0 80 62 00
        E 0 80 6c 00
        E 120 90 31 65
        E 0 90 32 67
        E 0 90 49 65
        E 0 90 4a 67
        E 0 90 61 65
        E 0 90 62 67
        E 120 80 31 00
        E 0 80 32 00
        E 0 80 49 00
        E 0 80 4a 00
        E 0 80 61 00
        E 0 80 62 00
        E 120 90 19 65
        E 0 90 31 65
        E 0 90 32 67
        E 0 90 49 65
        E 0 90 4a 67
        E 0 90 61 65
        E 0 90 62 67
        E 120 80 19 00
        E 0 80 31 00
        E 0 80 32 00
        E 0 80 49 00
        E 0 80 4a 00
        E 0 80 61 00
        E 0 80 62 00
        E 120 90 31 65
        E 0 90 32 67
        E 0 90 49 65
        E 0 90 4a 67
        E 0 90 61 65
        E 0 90 62 67
        E 120 80 31 00
        E 0 80 32 00
        E 0 80 49 00
        E 0 80 4a 00
        E 0 80 61 00
        E 0 80 62 00
        E 120 90 19 65
        E 0 90 31 65
        E 0 90 32 67
        E 0 90 49 65
        E 0 90 4a 67
        E 0 90 61 65
        E 0 90 62 67
        E 120 80 19 00
        E 0 80 31 00
        E 0 80 32 00
        E 0 80 49 00
        E 0 80 4a 00
        E 0 80 61 00
        E 0 80 62 00
        E 120 90 31 65
        E 0 90 32 67
        E 0 90 49 65
        E 0 90 4a 67
        E 0 90 61 65
        E 0 90 62 67
        E 120 80 31 00
        E 0 80 32 00
        E 0 80 49 00
        E 0 80 4a 00
        E 0 80 61 00
        E 0 80 62 00
        E 120 90 31 65
        E 0 90 32 67
        E 0 90 49 65
        E 0 90 4a 67
        E 0 90 61 65
        E 0 90 62 67
        E 120 80 31 00
        E 0 80 32 00
        E 0 80 49 00
        E 0 80 4a 00
        E 0 80 61 00
        E 0 80 62 00
        E 120 90 49 65
        E 0 90 4a 67
        E 0 90 61 65
        E 0 90 62 67
        E 120 80 49 00
        E 0 80 4a 00
        E 0 80 61 00
        E 0 80 62 00
        E 120 90 05 64
        E 0 90 18 65
        E 0 90 30 65
        E 0 90 31 67
        E 0 90 48 65
        E 0 90 49 67
        E 0 90 60 65
        E 0 90 61 67
        E 120 80 05 00
        E 0 80 18 00
        E 0 80 30 00
        E 0 80 31 00
        E 0 80 48 00
        E 0 80 49 00
        E 0 80 60 00
        E 0 80 61 00
        E 120 90 30 65
        E 0 90 31 67
        E 0 90 48 65
        E 0 90 49 67
        E 0 90 60 65
        E 0 90 61 67
        E 120 80 30 00
        E 0 80 31 00
        E 0 80 48 00
        E 0 80 49 00
        E 0 80 60 00
        E 0 80 61 00
        E 120 90 30 65
        E 0 90 31 67
        E 0 90 48 65
        E 0 90 49 67
        E 0 90 60 65
        E 0 90 61 67
        E 120 80 30 00
        E 0 80 31 00
        E 0 80 48 00
        E 0 80 49 00
        E 0 80 60 00
        E 0 80 61 00
        E 120 90 48 65
        E 0 90 49 67
        E 0 90 60 65
        E 0 90 61 67
        E 120 80 48 00
        E 0 80 49 00
        E 0 80 60 00
        E 0 80 61 00
        E 120 90 0c 64
        E 0 90 31 67
        E 0 90 32 69
        E 0 90 49 67
        E 0 90 4a 69
        E 0 90 61 67
        E 0 90 62 69
        E 0 90 6c 67
        E 120 80 0c 00
        E 0 80 31 00
        E 0 80 32 00
        E 0 80 49 00
        E 0 80 4a 00
        E 0 80 61 00
        E 0 80 62 00
        E 0 80 6c 00
        E 120 90 31 67
        E 0 90 32 69
        E 0 90 49 67
        E 0 90 4a 69
        E 0 90 61 67
        E 0 90 62 69
        E 120 80 31 00
        E 0 80 32 00
        E 0 80 49 00
        E 0 80 4a 00
        E 0 80 61 00
        E 0 80 62 00
        E 120 90 31 67
        E 0 90 32 69
        E 0 90 49 67
        E 0 90 4a 69
        E 0 90 61 67
        E 0 90 62 69
        E 120 80 31 00
        E 0 80 32 00
        E 0 80 49 00
        E 0 80 4a 00
        E 0 80 61 00
        E 0 80 62 00
        E 120 90 49 67
        E 0 90 4a 69
        E 0 90 61 67
        E 0 90 62 69
        E 120 80 49 00
        E 0 80 4a 00
        E 0 80 61 00
        E 0 80 62 00
        E 120 90 0e 64
        E 0 90 31 69
        E 0 90 32 6b
        E 0 90 49 69
        E 0 90 4a 6b
        E 0 90 61 69
        E 0 90 62 6b
        E 0 90 6c 69
        E 120 80 0e 00
        E 0 80 31 00
        E 0 80 32 00
        E 0 80 49 00
        E 0 80 4a 00
        E 0 80 61 00
        E 0 80 62 00
        E 0 80 6c 00
        E 120 90 31 69
        E 0 90 32 6b
        E 0 90 49 69
        E 0 90 4a 6b
        E 0 90 61 69
        E 0 90 62 6b
        E 120 80 31 00
        E 0 80 32 00
        E 0 80 49 00
        E 0 80 4a 00
        E 0 80 61 00
        E 0 80 62 00
        E 120 90 31 69
        E 0 90 32 6b
        E 0 90 49 69
        E 0 90 4a 6b
        E 0 90 61 69
        E 0 90 62 6b
        E 120 80 31 00
        E 0 80 32 00
        E 0 80 49 00
        E 0 80 4a 00
        E 0 80 61 00
        E 0 80 62 00
        E 120 90 31 69
        E 0 90 32 6b
        E 0 90 49 69
        E 0 90 4a 6b
        E 0 90 61 69
        E 0 90 62 6b
        E 120 80 31 00
        E 0 80 32 00
        E 0 80 49 00
        E 0 80 4a 00
        E 0 80 61 00
        E 0 80 62 00
        E 120 90 31 69
        E 0 90 32 6b
        E 0 90 49 69
        E 0 90 4a 6b
        E 0 90 61 69
        E 0 90 62 6b
        E 0 90 74 64
        E 120 80 31 00
        E 0 80 32 00
        E 0 80 49 00
        E 0 80 4a 00
        E 0 80 61 00
        E 0 80 62 00
        E 120 90 31 69
        E 0 90 32 6b
        E 0 90 49 69
        E 0 90 4a 6b
        E 0 90 61 69
        E 0 90 62 6b
        E 120 80 31 00
        E 0 80 32 00
        E 0 80 49 00
        E 0 80 4a 00
        E 0 80 61 00
        E 0 80 62 00
        E 120 90 31 69
        E 0 90 32 6b
        E 0 90 49 69
        E 0 90 4a 6b
        E 0 90 61 69
        E 0 90 62 6b
        E 120 80 31 00
        E 0 80 32 00
        E 0 80 49 00
        E 0 80 4a 00
        E 0 80 61 00
        E 0 80 62 00
        E 120 90 49 69
        E 0 90 4a 6b
        E 0 90 61 69
        E 0 90 62 6b
        E 120 80 49 00
        E 0 80 4a 00
        E 0 80 61 00
        E 0 80 62 00
        E 120 90 0a 64
        E 0 90 18 6a
        E 0 90 30 6a
        E 0 90 31 6c
        E 0 90 48 6a
        E 0 90 49 6c
        E 0 90 60 6a
        E 0 90 61 6c
        E 0 90 6c 6a
        E 120 80 0a 00
        E 0 80 18 00
        E 0 80 30 00
        E 0 80 31 00
        E 0 80 48 00
        E 0 80 49 00
        E 0 80 60 00
        E 0 80 61 00
        E 0 80 6c 00
        E 120 90 30 6a
        E 0 90 31 6c
        E 0 90 48 6a
        E 0 90 49 6c
        E 0 90 60 6a
        E 0 90 61 6c
        E 120 80 30 00
        E 0 80 31 00
        E 0 80 48 00
        E 0 80 49 00
        E 0 80 60 00
        E 0 80 61 00
        E 120 90 30 6a
        E 0 90 31 6c
        E 0 90 48 6a
        E 0 90 49 6c
        E 0 90 60 6a
        E 0 90 61 6c
        E 120 80 30 00
        E 0 80 31 00
        E 0 80 48 00
        E 0 80 49 00
        E 0 80 60 00
        E 0 80 61 00
        E 120 90 48 6a
        E 0 90 49 6c
        E 0 90 60 6a
        E 0 90 61 6c
        E 120 80 48 00
        E 0 80 49 00
        E 0 80 60 00
        E 0 80 61 00
        E 120 90 0e 64
        E 0 90 31 69
        E 0 90 32 6b
        E 0 90 49 69
        E 0 90 4a 6b
        E 0 90 61 69
        E 0 90 62 6b
        E 0 90 6c 69
        E 120 80 74 00
        E 0 80 0e 00
        E 0 80 31 00
        E 0 80 32 00
        E 0 80 49 00
        E 0 80 4a 00
        E 0 80 61 00
        E 0 80 62 00
        E 0 80 6c 00
        E 120 90 31 69
        E 0 90 32 6b
        E 0 90 49 69
        E 0 90 4a 6b
        E 0 90 61 69
        E 0 90 62 6b
        E 120 80 31 00
        E 0 80 32 00
        E 0 80 49 00
        E 0 80 4a 00
        E 0 80 61 00
        E 0 80 62 00
        E 120 90 31 69
        E 0 90 32 6b
        E 0 90 49 69
        E 0 90 4a 6b
        E 0 90 61 69
        E 0 90 62 6b
        E 120 80 31 00
        E 0 80 32 00
        E 0 80 49 00
        E 0 80 4a 00
        E 0 80 61 00
        E 0 80 62 00
        E 120 90 49 69
        E 0 90 4a 6b
        E 0 90 61 69
        E 0 90 62 6b
        E 120 80 49 00
        E 0 80 4a 00
        E 0 80 61 00
        E 0 80 62 00
        E 120 90 0f 64
        E 0 90 31 6a
        E 0 90 32 6c
        E 0 90 49 6a
        E 0 90 4a 6c
        E 0 90 61 6a
        E 0 90 62 6c
        E 0 90 6c 6a
        E 120 80 0f 00
        E 0 80 31 00
        E 0 80 32 00
        E 0 80 49 00
        E 0 80 4a 00
        E 0 80 61 00
        E 0 80 62 00
        E 0 80 6c 00
        E 120 90 31 6a
        E 0 90 32 6c
        E 0 90 49 6a
        E 0 90 4a 6c
        E 0 90 61 6a
        E 0 90 62 6c
        E 120 80 31 00
        E 0 80 32 00
        E 0 80 49 00
        E 0 80 4a 00
        E 0 80 61 00
        E 0 80 62 00
        E 120 90 31 6a
        E 0 90 32 6c
        E 0 90 49 6a
        E 0 90 4a 6c
        E 0 90 61 6a
        E 0 90 62 6c
        E 120 80 31 00
        E 0 80 32 00
        E 0 80 49 00
        E 0 80 4a 00
        E 0 80 61 00
        E 0 80 62 00
        E 120 90 49 6a
        E 0 90 4a 6c
        E 0 90 61 6a
        E 0 90 62 6c
        E 120 80 49 00
        E 0 80 4a 00
        E 0 80 61 00
        E 0 80 62 00
        E 120 90 0a 64
        E 0 90 18 6a
        E 0 90 30 6a
        E 0 90 31 6c
        E 0 90 48 6a
        E 0 90 49 6c
        E 0 90 60 6a
        E 0 90 61 6c
        E 120 80 0a 00
        E 0 80 18 00
        E 0 80 30 00
        E 0 80 31 00
        E 0 80 48 00
        E 0 80 49 00
        E 0 80 60 00
        E 0 80 61 00
        E 120 90 30 6a
        E 0 90 31 6c
        E 0 90 48 6a
        E 0 90 49 6c
        E 0 90 60 6a
        E 0 90 61 6c
        E 120 80 30 00
        E 0 80 31 00
        E 0 80 48 00
        E 0 80 49 00
        E 0 80 60 00
        E 0 80 61 00
        E 120 90 30 6a
        E 0 90 31 6c
        E 0 90 48 6a
        E 0 90 49 6c
        E 0 90 60 6a
        E 0 90 61 6c
        E 120 80 30 00
        E 0 80 31 00
        E 0 80 48 00
        E 0 80 49 00
        E 0 80 60 00
        E 0 80 61 00
        E 120 90 48 6a
        E 0 90 49 6c
        E 0 90 60 6a
        E 0 90 61 6c
        E 120 80 48 00
        E 0 80 49 00
        E 0 80 60 00
        E 0 80 61 00
        E 120 90 05 64
        E 0 90 18 65
        E 0 90 30 65
        E 0 90 31 67
        E 0 90 48 65
        E 0 90 49 67
        E 0 90 60 65
        E 0 90 61 67
        E 0 90 6c 65
        E 120 80 05 00
        E 0 80 18 00
        E 0 80 30 00
        E 0 80 31 00
        E 0 80 48 00
        E 0 80 49 00
        E 0 80 60 00
        E 0 80 61 00
        E 0 80 6c 00
        E 120 90 30 65
        E 0 90 31 67
        E 0 90 48 65
        E 0 90 49 67
        E 0 90 60 65
        E 0 90 61 67
        E 120 80 30 00
        E 0 80 31 00
        E 0 80 48 00
        E 0 80 49 00
        E 0 80 60 00
        E 0 80 61 00
        E 120 90 18 65
        E 0 90 30 65
        E 0 90 31 67
        E 0 90 48 65
        E 0 90 49 67
        E 0 90 60 65
        E 0 90 61 67
        E 120 80 18 00
        E 0 80 30 00
        E 0 80 31 00
        E 0 80 48 00
        E 0 80 49 00
        E 0 80 60 00
        E 0 80 61 00
        E 120 90 48 65
        E 0 90 49 67
        E 0 90 60 65
        E 0 90 61 67
        E 120 80 48 00
        E 0 80 49 00
        E 0 80 60 00
        E 0 80 61 00
        <X 120 0
          /wFbYmVnaW5fcGcgc29uZ190cmFpbmVyX3BnXzVd
        >
        <X 0 0
          /wFbZW5kX3BnIHNvbmdfdHJhaW5lcl9wZ180XQ==
        >
        E 0 90 09 64
        E 0 90 19 64
        E 0 90 31 64
        E 0 90 49 64
        E 0 90 50 64
        E 0 90 61 64
        E 0 90 68 64
        E 0 90 6c 66
        E 0 91 4a 66
        E 0 91 4b 66
        E 0 91 4c 66
        E 0 91 62 66
        E 0 91 63 66
        E 0 91 64 66
        E 120 80 09 00
        E 0 80 19 00
        E 0 80 31 00
        E 0 80 49 00
        E 0 80 61 00
        E 0 80 6c 00
        E 0 81 4a 00
        E 0 81 4b 00
        E 0 81 4c 00
        E 0 81 62 00
        E 0 81 63 00
        E 0 81 64 00
        E 120 90 4a 66
        E 0 90 62 66
        E 120 80 4a 00
        E 0 80 62 00
        E 120 90 33 66
        E 0 90 4b 66
        E 0 90 63 66
        E 120 80 33 00
        E 0 80 4b 00
        E 0 80 63 00
        E 120 90 4c 66
        E 0 90 64 66
        E 120 80 50 00
        E 0 80 68 00
        E 0 80 4c 00
        E 0 80 64 00
        E 120 90 0a 64
        E 0 90 19 65
        E 0 90 31 65
        E 0 90 49 65
        E 0 90 50 64
        E 0 90 61 65
        E 0 90 68 64
        E 0 90 6c 65
        E 0 91 4a 67
        E 0 91 4b 67
        E 0 91 4c 67
        E 0 91 4d 65
        E 0 91 62 67
        E 0 91 63 67
        E 0 91 64 67
        E 0 91 65 65
        E 120 80 0a 00
        E 0 80 19 00
        E 0 80 31 00
        E 0 80 49 00
        E 0 80 61 00
        E 0 80 6c 00
        E 0 81 4a 00
        E 0 81 4b 00
        E 0 81 4c 00
        E 0 81 4d 00
        E 0 81 62 00
        E 0 81 63 00
        E 0 81 64 00
        E 0 81 65 00
        E 120 90 4a 67
        E 0 90 62 67
        E 120 80 4a 00
        E 0 80 62 00
        E 120 90 33 67
        E 0 90 4b 67
        E 0 90 63 67
        E 120 80 33 00
        E 0 80 4b 00
        E 0 80 63 00
        E 120 90 4d 65
        E 0 90 65 65
        E 120 80 50 00
        E 0 80 68 00
        E 0 80 4d 00
        E 0 80 65 00
        E 120 90 0c 64
        E 0 90 19 67
        E 0 90 31 67
        E 0 90 49 67
        E 0 90 50 64
        E 0 90 61 67
        E 0 90 68 64
        E 0 90 6c 67
        E 0 91 4a 69
        E 0 91 4b 69
        E 0 91 4c 69
        E 0 91 62 69
        E 0 91 63 69
        E 0 91 64 69
        E 120 80 0c 00
        E 0 80 19 00
        E 0 80 31 00
        E 0 80 49 00
        E 0 80 61 00
        E 0 80 6c 00
        E 0 81 4a 00
        E 0 81 4b 00
        E 0 81 4c 00
        E 0 81 62 00
        E 0 81 63 00
        E 0 81 64 00
        E 120 90 4a 69
        E 0 90 62 69
        E 120 80 4a 00
        E 0 80 62 00
        E 120 90 33 69
        E 0 90 4b 69
        E 0 90 63 69
        E 120 80 33 00
        E 0 80 4b 00
        E 0 80 63 00
        E 120 90 4c 69
        E 0 90 64 69
        E 120 80 50 00
        E 0 80 68 00
        E 0 80 4c 00
        E 0 80 64 00
        E 120 90 05 64
        E 0 90 18 65
        E 0 90 30 65
        E 0 90 48 65
        E 0 90 50 64
        E 0 90 60 65
        E 0 90 68 64
        E 0 90 6c 65
        E 0 91 49 67
        E 0 91 4a 67
        E 0 91 4b 66
        E 0 91 4c 65
        E 0 91 61 67
        E 0 91 62 67
        E 0 91 63 66
        E 0 91 64 65
        E 120 80 05 00
        E 0 80 18 00
        E 0 80 30 00
        E 0 80 48 00
        E 0 80 60 00
        E 0 80 6c 00
        E 0 81 49 00
        E 0 81 4a 00
        E 0 81 4b 00
        E 0 81 4c 00
        E 0 81 61 00
        E 0 81 62 00
        E 0 81 63 00
        E 0 81 64 00
        E 120 90 4a 67
        E 0 90 62 67
        E 120 80 4a 00
        E 0 80 62 00
        E 120 90 34 65
        E 0 90 4c 65
        E 0 90 64 65
        E 120 80 34 00
        E 0 80 4c 00
        E 0 80 64 00
        E 120 90 4b 66
        E 0 90 63 66
        E 120 80 50 00
        E 0 80 68 00
        E 0 80 4b 00
        E 0 80 63 00
        E 120 90 09 64
        E 0 90 19 64
        E 0 90 31 64
        E 0 90 49 64
        E 0 90 50 64
        E 0 90 61 64
        E 0 90 68 64
        E 0 90 6c 66
        E 0 91 4a 66
        E 0 91 4b 66
        E 0 91 4c 66
        E 0 91 62 66
        E 0 91 63 66
        E 0 91 64 66
        E 120 80 09 00
        E 0 80 19 00
        E 0 80 31 00
        E 0 80 49 00
        E 0 80 61 00
        E 0 80 6c 00
        E 0 81 4a 00
        E 0 81 4b 00
        E 0 81 4c 00
        E 0 81 62 00
        E 0 81 63 00
        E 0 81 64 00
        E 120 90 4a 66
        E 0 90 62 66
        E 120 80 4a 00
        E 0 80 62 00
        E 120 90 33 66
        E 0 90 4b 66
        E 0 90 63 66
        E 120 80 33 00
        E 0 80 4b 00
        E 0 80 63 00
        E 120 90 4c 66
        E 0 90 64 66
        E 120 80 50 00
        E 0 80 68 00
        E 0 80 4c 00
        E 0 80 64 00
        E 120 90 0a 64
        E 0 90 19 65
        E 0 90 31 65
        E 0 90 49 65
        E 0 90 50 64
        E 0 90 61 65
        E 0 90 68 64
        E 0 90 6c 65
        E 0 91 4a 67
        E 0 91 4b 67
        E 0 91 4c 67
        E 0 91 4d 65
        E 0 91 62 67
        E 0 91 63 67
        E 0 91 64 67
        E 0 91 65 65
        E 120 80 0a 00
        E 0 80 19 00
        E 0 80 31 00
        E 0 80 49 00
        E 0 80 61 00
        E 0 80 6c 00
        E 0 81 4a 00
        E 0 81 4b 00
        E 0 81 4c 00
        E 0 81 4d 00
        E 0 81 62 00
        E 0 81 63 00
        E 0 81 64 00
        E 0 81 65 00
        E 120 90 4a 67
        E 0 90 62 67
        E 120 80 4a 00
        E 0 80 62 00
        E 120 90 33 67
        E 0 90 4b 67
        E 0 90 63 67
        E 120 80 33 00
        E 0 80 4b 00
        E 0 80 63 00
        E 120 90 4d 65
        E 0 90 65 65
        E 120 80 50 00
        E 0 80 68 00
        E 0 80 4d 00
        E 0 80 65 00
        E 120 90 0c 64
        E 0 90 19 67
        E 0 90 31 67
        E 0 90 49 67
        E 0 90 50 64
        E 0 90 61 67
        E 0 90 68 64
        E 0 90 6c 67
        E 0 91 4a 69
        E 0 91 4b 69
        E 0 91 4c 69
        E 0 91 4d 67
        E 0 91 62 69
        E 0 91 63 69
        E 0 91 64 69
        E 0 91 65 67
        E 120 80 0c 00
        E 0 80 19 00
        E 0 80 31 00
        E 0 80 49 00
        E 0 80 61 00
        E 0 80 6c 00
        E 0 81 4a 00
        E 0 81 4b 00
        E 0 81 4c 00
        E 0 81 4d 00
        E 0 81 62 00
        E 0 81 63 00
        E 0 81 64 00
        E 0 81 65 00
        E 120 90 4b 69
        E 0 90 63 69
        E 120 80 4b 00
        E 0 80 63 00
        E 120 90 35 67
        E 0 90 4d 67
        E 0 90 65 67
        E 120 80 35 00
        E 0 80 4d 00
        E 0 80 65 00
        E 120 90 4b 69
        E 0 90 63 69
        E 120 80 50 00
        E 0 80 68 00
        E 0 80 4b 00
        E 0 80 63 00
        E 120 90 05 64
        E 0 90 18 65
        E 0 90 30 65
        E 0 90 48 65
        E 0 90 50 64
        E 0 90 60 65
        E 0 90 68 64
        E 0 90 6c 65
        E 0 91 49 67
        E 0 91 4a 67
        E 0 91 4b 66
        E 0 91 4c 65
        E 0 91 61 67
        E 0 91 62 67
        E 0 91 63 66
        E 0 91 64 65
        E 120 80 05 00
        E 0 80 18 00
        E 0 80 30 00
        E 0 80 48 00
        E 0 80 60 00
        E 0 80 6c 00
        E 0 81 49 00
        E 0 81 4a 00
        E 0 81 4b 00
        E 0 81 4c 00
        E 0 81 61 00
        E 0 81 62 00
        E 0 81 63 00
        E 0 81 64 00
        E 120 90 4a 67
        E 0 90 62 67
        E 120 80 4a 00
        E 0 80 62 00
        E 120 90 34 65
        E 0 90 4c 65
        E 0 90 64 65
        E 120 80 34 00
        E 0 80 4c 00
        E 0 80 64 00
        E 120 90 4b 66
        E 0 90 63 66
        E 120 80 50 00
        E 0 80 68 00
        E 0 80 4b 00
        E 0 80 63 00
        E 120 90 0e 64
        E 0 90 19 69
        E 0 90 31 69
        E 0 90 49 69
        E 0 90 50 64
        E 0 90 61 69
        E 0 90 68 64
        E 0 90 6c 69
        E 0 91 4a 6b
        E 0 91 4b 6b
        E 0 91 62 6b
        E 0 91 63 6b
        E 120 80 0e 00
        E 0 80 19 00
        E 0 80 31 00
        E 0 80 49 00
        E 0 80 61 00
        E 0 80 6c 00
        E 0 81 4a 00
        E 0 81 4b 00
        E 0 81 62 00
        E 0 81 63 00
        E 120 90 4a 6b
        E 0 90 62 6b
        E 120 80 4a 00
        E 0 80 62 00
        E 120 90 33 6b
        E 0 90 4b 6b
        E 0 90 63 6b
        E 120 80 50 00
        E 0 80 68 00
        E 0 80 33 00
        E 0 80 4b 00
        E 0 80 63 00
        E 360 90 0c 64
        E 0 90 19 67
        E 0 90 31 67
        E 0 90 49 67
        E 0 90 50 64
        E 0 90 61 67
        E 0 90 68 64
        E 0 90 6c 67
        E 0 91 4a 69
        E 0 91 4b 69
        E 0 91 62 69
        E 0 91 63 69
        E 120 80 0c 00
        E 0 80 19 00
        E 0 80 31 00
        E 0 80 49 00
        E 0 80 61 00
        E 0 80 6c 00
        E 0 81 4a 00
        E 0 81 4b 00
        E 0 81 62 00
        E 0 81 63 00
        E 120 90 4a 69
        E 0 90 62 69
        E 120 80 4a 00
        E 0 80 62 00
        E 120 90 33 69
        E 0 90 4b 69
        E 0 90 63 69
        E 120 80 50 00
        E 0 80 68 00
        E 0 80 33 00
        E 0 80 4b 00
        E 0 80 63 00
        E 360 90 0a 64
        E 0 90 19 65
        E 0 90 31 65
        E 0 90 49 65
        E 0 90 50 64
        E 0 90 61 65
        E 0 90 68 64
        E 0 90 6c 65
        E 0 91 4a 67
        E 0 91 4b 67
        E 0 91 62 67
        E 0 91 63 67
        E 120 80 0a 00
        E 0 80 19 00
        E 0 80 31 00
        E 0 80 49 00
        E 0 80 61 00
        E 0 80 6c 00
        E 0 81 4a 00
        E 0 81 4b 00
        E 0 81 62 00
        E 0 81 63 00
        E 120 90 4a 67
        E 0 90 62 67
        E 120 80 4a 00
        E 0 80 62 00
        E 120 90 33 67
        E 0 90 4b 67
        E 0 90 63 67
        E 120 80 50 00
        E 0 80 68 00
        E 0 80 33 00
        E 0 80 4b 00
        E 0 80 63 00
        E 360 90 05 64
        E 0 90 18 65
        E 0 90 30 65
        E 0 90 31 67
        E 0 90 48 65
        E 0 90 49 67
        E 0 90 4a 67
        E 0 90 4b 66
        E 0 90 60 65
        E 0 90 61 67
        E 0 90 62 67
        E 0 90 63 66
        E 120 80 05 00
        E 0 80 18 00
        E 0 80 30 00
        E 0 80 31 00
        E 0 80 48 00
        E 0 80 49 00
        E 0 80 4a 00
        E 0 80 4b 00
        E 0 80 60 00
        E 0 80 61 00
        E 0 80 62 00
        E 0 80 63 00
        E 120 90 30 65
        E 0 90 31 67
        E 0 90 48 65
        E 0 90 49 67
        E 0 90 4a 67
        E 0 90 4b 66
        E 0 90 60 65
        E 0 90 61 67
        E 0 90 62 67
        E 0 90 63 66
        E 120 80 30 00
        E 0 80 31 00
        E 0 80 48 00
        E 0 80 49 00
        E 0 80 4a 00
        E 0 80 4b 00
        E 0 80 60 00
        E 0 80 61 00
        E 0 80 62 00
        E 0 80 63 00
        E 120 90 18 65
        E 0 90 30 65
        E 0 90 31 67
        E 0 90 48 65
        E 0 90 49 67
        E 0 90 4a 67
        E 0 90 4b 66
        E 0 90 60 65
        E 0 90 61 67
        E 0 90 62 67
        E 0 90 63 66
        E 120 80 18 00
        E 0 80 30 00
        E 0 80 31 00
        E 0 80 48 00
        E 0 80 49 00
        E 0 80 4a 00
        E 0 80 4b 00
        E 0 80 60 00
        E 0 80 61 00
        E 0 80 62 00
        E 0 80 63 00
        E 120 90 30 65
        E 0 90 31 67
        E 0 90 48 65
        E 0 90 49 67
        E 0 90 4a 67
        E 0 90 4b 66
        E 0 90 60 65
        E 0 90 61 67
        E 0 90 62 67
        E 0 90 63 66
        E 120 80 30 00
        E 0 80 31 00
        E 0 80 48 00
        E 0 80 49 00
        E 0 80 4a 00
        E 0 80 4b 00
        E 0 80 60 00
        E 0 80 61 00
        E 0 80 62 00
        E 0 80 63 00
        E 120 90 18 65
        E 0 90 30 65
        E 0 90 31 67
        E 0 90 48 65
        E 0 90 49 67
        E 0 90 4a 67
        E 0 90 4b 66
        E 0 90 60 65
        E 0 90 61 67
        E 0 90 62 67
        E 0 90 63 66
        E 120 80 18 00
        E 0 80 30 00
        E 0 80 31 00
        E 0 80 48 00
        E 0 80 49 00
        E 0 80 4a 00
        E 0 80 4b 00
        E 0 80 60 00
        E 0 80 61 00
        E 0 80 62 00
        E 0 80 63 00
        <X 360 0
          /wFbZW5kX3BnIHNvbmdfdHJhaW5lcl9wZ181XQ==
        >
        <X 2400 0
          /wFbYmVnaW5fcGcgc29uZ190cmFpbmVyX3BnXzZd
        >
        E 0 90 0a 64
        E 0 90 31 71
        E 0 90 32 73
        E 0 90 49 71
        E 0 90 4a 73
        E 0 90 4b 73
        E 0 90 61 71
        E 0 90 62 73
        E 0 90 63 73
        E 0 90 6c 71
        E 120 80 0a 00
        E 0 80 31 00
        E 0 80 32 00
        E 0 80 6c 00
        E 480 80 49 00
        E 0 80 4a 00
        E 0 80 4b 00
        E 0 80 61 00
        E 0 80 62 00
        E 0 80 63 00
        E 120 90 09 64
        E 0 90 31 70
        E 0 90 32 72
        E 0 90 49 70
        E 0 90 4a 72
        E 0 90 4b 72
        E 0 90 61 70
        E 0 90 62 72
        E 0 90 63 72
        E 0 90 6c 70
        E 120 80 09 00
        E 0 80 6c 00
        E 600 80 31 00
        E 0 80 32 00
        E 240 80 61 00
        E 0 80 62 00
        E 0 80 63 00
        E 120 80 49 00
        E 0 80 4a 00
        E 0 80 4b 00
        E 120 90 07 64
        E 0 90 31 6e
        E 0 90 32 70
        E 0 90 49 6e
        E 0 90 4a 70
        E 0 90 4b 70
        E 0 90 61 6e
        E 0 90 62 70
        E 0 90 63 70
        E 0 90 6c 6e
        E 120 80 07 00
        E 0 80 31 00
        E 0 80 32 00
        E 0 80 6c 00
        E 480 80 49 00
        E 0 80 4a 00
        E 0 80 4b 00
        E 0 80 61 00
        E 0 80 62 00
        E 0 80 63 00
        E 120 90 05 64
        E 0 90 31 6c
        E 0 90 32 6e
        E 0 90 49 6c
        E 0 90 4a 6e
        E 0 90 4b 6e
        E 0 90 61 6c
        E 0 90 62 6e
        E 0 90 63 6e
        E 0 90 6c 6c
        E 120 80 05 00
        E 0 80 6c 00
        E 600 80 31 00
        E 0 80 32 00
        E 240 80 61 00
        E 0 80 62 00
        E 0 80 63 00
        E 120 80 49 00
        E 0 80 4a 00
        E 0 80 4b 00
        E 120 90 0a 64
        E 0 90 31 71
        E 0 90 32 73
        E 0 90 49 71
        E 0 90 4a 73
        E 0 90 4b 73
        E 0 90 61 71
        E 0 90 62 73
        E 0 90 63 73
        E 0 90 6c 71
        E 120 80 0a 00
        E 0 80 31 00
        E 0 80 32 00
        E 0 80 6c 00
        E 480 80 49 00
        E 0 80 4a 00
        E 0 80 4b 00
        E 0 80 61 00
        E 0 80 62 00
        E 0 80 63 00
        E 120 90 09 64
        E 0 90 31 70
        E 0 90 32 72
        E 0 90 49 70
        E 0 90 4a 72
        E 0 90 4b 72
        E 0 90 61 70
        E 0 90 62 72
        E 0 90 63 72
        E 0 90 6c 70
        E 120 80 09 00
        E 0 80 6c 00
        E 600 80 31 00
        E 0 80 32 00
        E 240 80 61 00
        E 0 80 62 00
        E 0 80 63 00
        E 120 80 49 00
        E 0 80 4a 00
        E 0 80 4b 00
        E 120 90 04 64
        E 0 90 18 70
        E 0 90 30 70
        E 0 90 31 72
        E 0 90 48 70
        E 0 90 49 72
        E 0 90 4a 72
        E 0 90 60 70
        E 0 90 61 72
        E 0 90 62 72
        E 120 80 04 00
        E 0 80 18 00
        E 0 80 30 00
        E 0 80 31 00
        E 480 80 48 00
        E 0 80 49 00
        E 0 80 4a 00
        E 0 80 60 00
        E 0 80 61 00
        E 0 80 62 00
        E 120 90 0e 64
        E 0 90 30 6e
        E 0 90 31 70
        E 0 90 37 64
        E 0 90 48 6e
        E 0 90 49 70
        E 0 90 4a 70
        E 0 90 4f 64
        E 0 90 60 6e
        E 0 90 61 70
        E 0 90 62 70
        E 0 90 67 64
        E 0 90 6c 6e
        E 120 80 0e 00
        E 0 80 6c 00
        E 1560 80 30 00
        E 0 80 31 00
        E 0 80 37 00
        E 360 80 48 00
        E 0 80 49 00
        E 0 80 4a 00
        E 0 80 4f 00
        E 0 80 60 00
        E 0 80 61 00
        E 0 80 62 00
        E 0 80 67 00
        <X 120 0
          /wFbZW5kX3BnIHNvbmdfdHJhaW5lcl9wZ182XQ==
        >
        <X 0 0
          /wFbYmVnaW5fcGcgc29uZ190cmFpbmVyX3BnXzdd
        >
        E 0 90 19 6c
        E 0 90 31 6c
        E 0 90 49 6c
        E 0 90 61 6c
        E 0 90 6c 69
        E 120 80 19 00
        E 0 80 31 00
        E 0 80 49 00
        E 0 80 61 00
        E 0 80 6c 00
        E 120 90 31 6c
        E 0 90 49 6c
        E 0 90 61 6c
        E 120 80 31 00
        E 0 80 49 00
        E 0 80 61 00
        E 120 90 19 6b
        E 0 90 31 6b
        E 0 90 49 6b
        E 0 90 61 6b
        E 120 80 19 00
        E 0 80 31 00
        E 0 80 49 00
        E 0 80 61 00
        E 120 90 48 6c
        E 0 90 60 6c
        E 120 80 48 00
        E 0 80 60 00
        E 120 90 19 6b
        E 0 90 31 6b
        E 0 90 49 6b
        E 0 90 61 6b
        E 120 80 19 00
        E 0 80 31 00
        E 0 80 49 00
        E 0 80 61 00
        E 120 90 49 6b
        E 0 90 61 6b
        E 120 80 49 00
        E 0 80 61 00
        E 120 90 31 69
        E 0 90 49 69
        E 0 90 61 69
        E 120 80 31 00
        E 0 80 49 00
        E 0 80 61 00
        E 120 90 48 69
        E 0 90 60 69
        E 120 80 48 00
        E 0 80 60 00
        E 120 90 19 67
        E 0 90 31 67
        E 0 90 49 67
        E 0 90 61 67
        E 0 90 6c 65
        E 120 80 19 00
        E 0 80 31 00
        E 0 80 49 00
        E 0 80 61 00
        E 0 80 6c 00
        E 120 90 49 67
        E 0 90 61 67
        E 120 80 49 00
        E 0 80 61 00
        E 120 90 31 65
        E 0 90 49 65
        E 0 90 61 65
        E 120 80 31 00
        E 0 80 49 00
        E 0 80 61 00
        E 120 90 48 65
        E 0 90 60 65
        E 840 80 48 00
        E 0 80 60 00
        E 120 90 19 6c
        E 0 90 31 6c
        E 0 90 49 6c
        E 0 90 61 6c
        E 0 90 6c 69
        E 120 80 19 00
        E 0 80 31 00
        E 0 80 49 00
        E 0 80 61 00
        E 0 80 6c 00
        E 120 90 74 64
        E 240 90 31 6c
        E 0 90 49 6c
        E 0 90 61 6c
        E 120 80 31 00
        E 0 80 49 00
        E 0 80 61 00
        E 120 90 19 6b
        E 0 90 31 6b
        E 0 90 49 6b
        E 0 90 61 6b
        E 120 80 19 00
        E 0 80 31 00
        E 0 80 49 00
        E 0 80 61 00
        E 120 90 48 6c
        E 0 90 60 6c
        E 120 80 48 00
        E 0 80 60 00
        E 120 90 19 6b
        E 0 90 31 6b
        E 0 90 49 6b
        E 0 90 61 6b
        E 120 80 19 00
        E 0 80 31 00
        E 0 80 49 00
        E 0 80 61 00
        E 120 90 49 6b
        E 0 90 61 6b
        E 120 80 49 00
        E 0 80 61 00
        E 120 90 31 69
        E 0 90 49 69
        E 0 90 61 69
        E 120 80 31 00
        E 0 80 49 00
        E 0 80 61 00
        E 120 90 48 69
        E 0 90 60 69
        E 120 80 48 00
        E 0 80 60 00
        E 120 90 19 67
        E 0 90 31 67
        E 0 90 49 67
        E 0 90 61 67
        E 0 90 6c 65
        E 120 80 19 00
        E 0 80 31 00
        E 0 80 49 00
        E 0 80 61 00
        E 0 80 6c 00
        E 120 90 49 67
        E 0 90 61 67
        E 120 80 49 00
        E 0 80 61 00
        E 120 90 31 65
        E 0 90 49 65
        E 0 90 61 65
        E 120 80 31 00
        E 0 80 49 00
        E 0 80 61 00
        E 120 90 48 65
        E 0 90 60 65
        E 1080 80 48 00
        E 0 80 60 00
        E 120 90 19 6c
        E 0 90 31 6c
        E 0 90 49 6c
        E 0 90 61 6c
        E 0 90 6c 6b
        E 120 80 74 00
        E 0 80 19 00
        E 0 80 31 00
        E 0 80 49 00
        E 0 80 61 00
        E 0 80 6c 00
        E 120 90 31 6c
        E 0 90 49 6c
        E 0 90 61 6c
        E 120 80 31 00
        E 0 80 49 00
        E 0 80 61 00
        E 120 90 19 6b
        E 0 90 31 6b
        E 0 90 49 6b
        E 0 90 61 6b
        E 120 80 19 00
        E 0 80 31 00
        E 0 80 49 00
        E 0 80 61 00
        E 120 90 48 6c
        E 0 90 60 6c
        E 120 80 48 00
        E 0 80 60 00
        E 120 90 19 6a
        E 0 90 31 6a
        E 0 90 49 6a
        E 0 90 61 6a
        E 0 90 6c 68
        E 120 80 19 00
        E 0 80 31 00
        E 0 80 49 00
        E 0 80 61 00
        E 0 80 6c 00
        E 120 90 49 6a
        E 0 90 61 6a
        E 120 80 49 00
        E 0 80 61 00
        E 120 90 31 68
        E 0 90 49 68
        E 0 90 61 68
        E 120 80 31 00
        E 0 80 49 00
        E 0 80 61 00
        E 120 90 48 68
        E 0 90 60 68
        E 120 80 48 00
        E 0 80 60 00
        E 120 90 19 67
        E 0 90 31 67
        E 0 90 49 67
        E 0 90 61 67
        E 0 90 6c 65
        E 120 80 19 00
        E 0 80 31 00
        E 0 80 49 00
        E 0 80 61 00
        E 0 80 6c 00
        E 120 90 49 67
        E 0 90 61 67
        E 120 80 49 00
        E 0 80 61 00
        E 120 90 31 65
        E 0 90 49 65
        E 0 90 61 65
        E 120 80 31 00
        E 0 80 49 00
        E 0 80 61 00
        E 120 90 48 65
        E 0 90 60 65
        E 840 80 48 00
        E 0 80 60 00
        E 120 90 19 6c
        E 0 90 31 6c
        E 0 90 49 6c
        E 0 90 61 6c
        E 0 90 6c 69
        E 120 80 19 00
        E 0 80 31 00
        E 0 80 49 00
        E 0 80 61 00
        E 0 80 6c 00
        E 360 90 31 6c
        E 0 90 49 6c
        E 0 90 61 6c
        E 120 80 31 00
        E 0 80 49 00
        E 0 80 61 00
        E 120 90 19 6b
        E 0 90 31 6b
        E 0 90 49 6b
        E 0 90 61 6b
        E 120 80 19 00
        E 0 80 31 00
        E 0 80 49 00
        E 0 80 61 00
        E 120 90 48 6c
        E 0 90 60 6c
        E 120 80 48 00
        E 0 80 60 00
        E 120 90 19 6b
        E 0 90 31 6b
        E 0 90 49 6b
        E 0 90 61 6b
        E 120 80 19 00
        E 0 80 31 00
        E 0 80 49 00
        E 0 80 61 00
        E 120 90 49 6b
        E 0 90 61 6b
        E 120 80 49 00
        E 0 80 61 00
        E 120 90 31 69
        E 0 90 49 69
        E 0 90 61 69
        E 120 80 31 00
        E 0 80 49 00
        E 0 80 61 00
        E 120 90 48 69
        E 0 90 60 69
        E 120 80 48 00
        E 0 80 60 00
        E 120 90 19 67
        E 0 90 31 67
        E 0 90 49 67
        E 0 90 61 67
        E 0 90 6c 65
        E 120 80 19 00
        E 0 80 31 00
        E 0 80 49 00
        E 0 80 61 00
        E 0 80 6c 00
        E 120 90 49 67
        E 0 90 61 67
        E 120 80 49 00
        E 0 80 61 00
        E 120 90 31 65
        E 0 90 49 65
        E 0 90 61 65
        E 120 80 31 00
        E 0 80 49 00
        E 0 80 61 00
        E 120 90 48 65
        E 0 90 60 65
        E 960 80 60 00
        E 120 80 48 00
        <X 120 0
          /wFbZW5kX3BnIHNvbmdfdHJhaW5lcl9wZ183XQ==
        >
        E 0 90 1c 6a
        E 0 90 34 6a
        E 0 90 4c 6a
        E 0 90 64 6a
        E 0 90 6c 6a
        E 0 90 73 64
        E 120 80 6c 00
        E 1320 80 1c 00
        E 0 80 34 00
        E 360 80 4c 00
        E 0 80 64 00
        E 120 90 1c 6c
        E 0 90 34 6c
        E 0 90 4c 6c
        E 0 90 64 6c
        E 960 80 1c 00
        E 0 80 34 00
        E 360 80 4c 00
        E 0 80 64 00
        E 120 90 1d 6a
        E 0 90 35 6a
        E 0 90 4d 6a
        E 0 90 65 6a
        E 0 90 6c 67
        E 0 90 74 64
        E 120 80 1d 00
        E 0 80 35 00
        E 0 80 6c 00
        E 480 80 4d 00
        E 0 80 65 00
        E 120 90 35 68
        E 0 90 4d 68
        E 0 90 65 68
        E 120 80 35 00
        E 480 80 4d 00
        E 0 80 65 00
        E 120 90 1d 67
        E 0 90 35 67
        E 0 90 4d 67
        E 0 90 65 67
        E 120 80 1d 00
        E 0 80 35 00
        E 240 80 4d 00
        E 0 80 65 00
        E 120 90 35 68
        E 0 90 4d 68
        E 0 90 65 68
        E 120 80 35 00
        E 0 80 4d 00
        E 0 80 65 00
        E 120 90 4d 67
        E 0 90 65 67
        E 240 80 74 00
        E 120 80 4d 00
        E 0 80 65 00
        E 120 90 1b 6a
        E 0 90 33 6a
        E 0 90 4b 6a
        E 0 90 63 6a
        E 120 80 1b 00
        E 0 80 33 00
        E 240 80 4b 00
        E 0 80 63 00
        E 120 90 33 69
        E 0 90 4b 69
        E 0 90 63 69
        E 720 80 33 00
        E 360 80 4b 00
        E 0 80 63 00
        <X 120 0
          /wFbYmVnaW5fcGcgc29uZ190cmFpbmVyX3BnXzhd
        >
        E 0 90 1c 6a
        E 0 90 34 6a
        E 0 90 4c 6a
        E 0 90 64 6a
        E 0 90 6c 6a
        E 120 80 6c 00
        E 1320 80 1c 00
        E 0 80 34 00
        E 360 80 4c 00
        E 0 80 64 00
        E 120 90 1c 6c
        E 0 90 34 6c
        E 0 90 4c 6c
        E 0 90 64 6c
        E 960 80 1c 00
        E 0 80 34 00
        E 360 80 4c 00
        E 0 80 64 00
        E 120 90 1d 6a
        E 0 90 35 6a
        E 0 90 4d 6a
        E 0 90 65 6a
        E 0 90 6c 67
        E 120 80 1d 00
        E 0 80 35 00
        E 0 80 6c 00
        E 480 80 4d 00
        E 0 80 65 00
        E 120 90 35 68
        E 0 90 4d 68
        E 0 90 65 68
        E 120 80 35 00
        E 480 80 4d 00
        E 0 80 65 00
        E 120 90 1d 67
        E 0 90 35 67
        E 0 90 4d 67
        E 0 90 65 67
        E 120 80 1d 00
        E 0 80 35 00
        E 240 80 4d 00
        E 0 80 65 00
        E 120 90 35 68
        E 0 90 4d 68
        E 0 90 65 68
        E 120 80 35 00
        E 0 80 4d 00
        E 0 80 65 00
        E 120 90 4d 67
        E 0 90 65 67
        E 360 80 4d 00
        E 0 80 65 00
        E 120 90 1b 6a
        E 0 90 33 6a
        E 0 90 4b 6a
        E 0 90 63 6a
        E 120 80 1b 00
        E 0 80 33 00
        E 240 80 4b 00
        E 0 80 63 00
        E 120 90 33 69
        E 0 90 4b 69
        E 0 90 63 69
        E 120 80 33 00
        E 480 80 4b 00
        E 0 80 63 00
        E 120 90 1a 6c
        E 0 90 32 6c
        E 0 90 4a 6c
        E 0 90 62 6c
        E 0 90 6c 6a
        E 120 80 1a 00
        E 0 80 32 00
        E 0 80 4a 00
        E 0 80 62 00
        E 0 80 6c 00
        E 120 90 4a 6a
        E 0 90 62 6a
        E 600 80 4a 00
        E 0 80 62 00
        E 120 90 1b 67
        E 0 90 33 67
        E 0 90 4b 67
        E 0 90 63 67
        E 0 90 6c 67
        E 120 80 1b 00
        E 0 80 33 00
        E 0 80 4b 00
        E 0 80 63 00
        E 0 80 6c 00
        E 120 90 4b 67
        E 0 90 63 67
        E 60 80 63 00
        E 0 90 63 69
        E 540 80 4b 00
        E 0 80 63 00
        E 120 90 1b 6a
        E 0 90 33 6a
        E 0 90 4b 6a
        E 0 90 63 6a
        E 0 90 6c 6a
        E 120 80 1b 00
        E 0 80 33 00
        E 0 80 4b 00
        E 0 80 63 00
        E 0 80 6c 00
        E 120 90 4b 6a
        E 0 90 63 6a
        E 60 80 63 00
        E 0 90 63 6c
        E 60 80 4b 00
        E 240 80 63 00
        E 120 90 33 6e
        E 0 90 4b 6e
        E 0 90 63 6e
        E 0 90 6c 6e
        E 120 80 33 00
        E 0 80 6c 00
        E 240 80 4b 00
        E 0 80 63 00
        E 120 90 1b 6e
        E 0 90 33 6e
        E 0 90 4b 6e
        E 0 90 63 6e
        E 60 80 63 00
        E 0 90 63 70
        E 4260 80 1b 00
        E 0 80 33 00
        <X 240 0
          /wFbZW5kX3BnIHNvbmdfdHJhaW5lcl9wZ184XQ==
        >
        E 0 80 73 00
        E 0 80 4b 00
        E 0 80 63 00
        E 240 90 19 6c
        E 0 90 31 6c
        E 0 90 49 6c
        E 0 90 61 6c
        E 0 90 6c 6b
        E 120 80 19 00
        E 0 80 31 00
        E 0 80 49 00
        E 0 80 61 00
        E 0 80 6c 00
        E 120 90 74 64
        E 240 90 31 6c
        E 0 90 49 6c
        E 0 90 61 6c
        E 120 80 31 00
        E 0 80 49 00
        E 0 80 61 00
        E 120 90 19 6b
        E 0 90 31 6b
        E 0 90 49 6b
        E 0 90 61 6b
        E 120 80 19 00
        E 0 80 31 00
        E 0 80 49 00
        E 0 80 61 00
        E 120 90 48 6c
        E 0 90 60 6c
        E 120 80 48 00
        E 0 80 60 00
        E 120 90 19 6a
        E 0 90 31 6a
        E 0 90 49 6a
        E 0 90 61 6a
        E 0 90 6c 68
        E 120 80 19 00
        E 0 80 31 00
        E 0 80 49 00
        E 0 80 61 00
        E 0 80 6c 00
        E 120 90 49 6a
        E 0 90 61 6a
        E 120 80 49 00
        E 0 80 61 00
        E 120 90 31 68
        E 0 90 49 68
        E 0 90 61 68
        E 120 80 31 00
        E 0 80 49 00
        E 0 80 61 00
        E 120 90 48 68
        E 0 90 60 68
        E 120 80 48 00
        E 0 80 60 00
        E 120 90 19 67
        E 0 90 31 67
        E 0 90 49 67
        E 0 90 61 67
        E 0 90 6c 65
        E 120 80 74 00
        E 0 80 19 00
        E 0 80 31 00
        E 0 80 49 00
        E 0 80 61 00
        E 0 80 6c 00
        E 120 90 49 67
        E 0 90 61 67
        E 120 80 49 00
        E 0 80 61 00
        E 120 90 31 65
        E 0 90 49 65
        E 0 90 61 65
        E 120 80 31 00
        E 0 80 49 00
        E 0 80 61 00
        E 120 90 48 65
        E 0 90 60 65
        E 1080 80 48 00
        E 0 80 60 00
        E 120 90 19 6c
        E 0 90 31 6c
        E 0 90 49 6c
        E 0 90 61 6c
        E 0 90 6c 69
        E 120 80 19 00
        E 0 80 31 00
        E 0 80 49 00
        E 0 80 61 00
        E 0 80 6c 00
        E 120 90 31 6c
        E 0 90 49 6c
        E 0 90 61 6c
        E 120 80 31 00
        E 0 80 49 00
        E 0 80 61 00
        E 120 90 19 6b
        E 0 90 31 6b
        E 0 90 49 6b
        E 0 90 61 6b
        E 120 80 19 00
        E 0 80 31 00
        E 0 80 49 00
        E 0 80 61 00
        E 120 90 48 6c
        E 0 90 60 6c
        E 120 80 48 00
        E 0 80 60 00
        E 120 90 19 6b
        E 0 90 31 6b
        E 0 90 49 6b
        E 0 90 61 6b
        E 120 80 19 00
        E 0 80 31 00
        E 0 80 49 00
        E 0 80 61 00
        E 120 90 49 6b
        E 0 90 61 6b
        E 120 80 49 00
        E 0 80 61 00
        E 120 90 31 69
        E 0 90 49 69
        E 0 90 61 69
        E 120 80 31 00
        E 0 80 49 00
        E 0 80 61 00
        E 120 90 48 69
        E 0 90 60 69
        E 120 80 48 00
        E 0 80 60 00
        E 120 90 19 67
        E 0 90 31 67
        E 0 90 49 67
        E 0 90 61 67
        E 0 90 6c 65
        E 120 80 19 00
        E 0 80 31 00
        E 0 80 49 00
        E 0 80 61 00
        E 0 80 6c 00
        E 120 90 49 67
        E 0 90 61 67
        E 120 80 49 00
        E 0 80 61 00
        E 120 90 31 65
        E 0 90 49 65
        E 0 90 61 65
        E 120 80 31 00
        E 0 80 49 00
        E 0 80 61 00
        E 120 90 48 65
        E 0 90 60 65
        E 840 80 48 00
        E 0 80 60 00
        E 120 90 19 6c
        E 0 90 31 6c
        E 0 90 49 6c
        E 0 90 61 6c
        E 0 90 6c 6b
        E 120 80 19 00
        E 0 80 31 00
        E 0 80 49 00
        E 0 80 61 00
        E 0 80 6c 00
        E 360 90 31 6c
        E 0 90 49 6c
        E 0 90 61 6c
        E 120 80 31 00
        E 0 80 49 00
        E 0 80 61 00
        E 120 90 19 6b
        E 0 90 31 6b
        E 0 90 49 6b
        E 0 90 61 6b
        E 120 80 19 00
        E 0 80 31 00
        E 0 80 49 00
        E 0 80 61 00
        E 120 90 48 6c
        E 0 90 60 6c
        E 120 80 48 00
        E 0 80 60 00
        E 120 90 19 6a
        E 0 90 31 6a
        E 0 90 49 6a
        E 0 90 61 6a
        E 0 90 6c 68
        E 120 80 19 00
        E 0 80 31 00
        E 0 80 49 00
        E 0 80 61 00
        E 0 80 6c 00
        E 120 90 49 6a
        E 0 90 61 6a
        E 120 80 49 00
        E 0 80 61 00
        E 120 90 31 68
        E 0 90 49 68
        E 0 90 61 68
        E 120 80 31 00
        E 0 80 49 00
        E 0 80 61 00
        E 120 90 48 68
        E 0 90 60 68
        E 120 80 48 00
        E 0 80 60 00
        E 120 90 19 67
        E 0 90 31 67
        E 0 90 49 67
        E 0 90 61 67
        E 0 90 6c 65
        E 120 80 19 00
        E 0 80 31 00
        E 0 80 49 00
        E 0 80 61 00
        E 0 80 6c 00
        E 120 90 49 67
        E 0 90 61 67
        E 120 80 49 00
        E 0 80 61 00
        E 120 90 31 65
        E 0 90 49 65
        E 0 90 61 65
        E 120 80 31 00
        E 0 80 49 00
        E 0 80 61 00
        E 120 90 48 65
        E 0 90 60 65
        E 4320 80 12 00
        E 0 80 48 00
        E 0 80 60 00
        E 2640 b0 7b 00
        GUID {3E22826A-C16C-4DED-B86F-D57A0FDA5D41}
        IGNTEMPO 0 120.00000000 4 4
        SRCCOLOR 5
        VELLANE 132 71 60
        COLORMAP "C:\Program Files\REAPER (x64)\Data\color_maps\rockband_guitarbass.png"
        CFGEDITVIEW 0.000000 4.833922 7 12 0 0 0
        CFGEDIT 1 1 0 1 1 0 1 1 1 1 1 0.25000000 100 100 1200 800 0 2 2 1 0.00000000 0 1 1 0 0.500000 0 0 1.000000 64
        KEYSNAP 0 6 "102030050700" 0 "Pentatonic"
        EVTFILTER 0 -1 -1 -1 -1 0 1 0 0 -1.00000000 -1.00000000
      >
    >
  >
  <TRACK '{D638EB9E-9D3E-4804-BF6B-4159E82C0C0E}'
    NAME "EVENTS"
    PEAKCOL 16576
    BEAT -1
    AUTOMODE 0
    VOLPAN 1.00000000000000 0.00000000000000 -1.00000000000000 -1.00000000000000 1.00000000000000
    MUTESOLO 0 0 0
    IPHASE 0
    ISBUS 0 0
    BUSCOMP 0 0
    SHOWINMIX 1 0.666700 0.500000 1 0.500000 -1 -1 -1
    FREEMODE 0
    SEL 0
    REC 0 0 0 0 0 0 0
    VU 2
    TRACKHEIGHT 0 0
    INQ 0 0 0 0.5000000000 100 0 0 100
    NCHAN 2
    FX 1
    TRACKID {D638EB9E-9D3E-4804-BF6B-4159E82C0C0E}
    PERF 0
    MIDIOUT -1
    <MIDINOTENAMES
      0 26 "Hi-Hat"
      0 25 "Snare"
      0 24 "Kick"
    >
    MAINSEND 1 0
    <FXCHAIN
      SHOW 0
      LASTSEL 0
      DOCKED 0
    >
    <ITEM
      POSITION 0.00000000000000
      SNAPOFFS 0.00000000000000
      LENGTH 144.00000000000000
      LOOP 0
      ALLTAKES 0
      SEL 0
      FADEIN 1 0.000000 0.000000 1 0
      FADEOUT 1 0.000000 0.000000 1 0
      MUTE 0
      IGUID {F66322EC-EC82-4645-BDE1-518AF157B892}
      IID 14
      NAME "EVENTS"
      VOLPAN 1.000000 0.000000 1.000000 -1.000000
      SOFFS 0.00000000000000 0.00000000000000
      PLAYRATE 1.00000000000000 1 0.00000000000000 -1
      CHANMODE 0
      GUID {22A29D2C-B4AA-47F0-9CF8-0482837B1F0B}
      <SOURCE MIDI
        HASDATA 1 480 QN
        POOLEDEVTS {F495DA7E-2465-4878-8CD3-CB8DB2EF198D}
        <X 0 0
          /wNFVkVOVFM=
        >
        <X 3840 0
          /wFbcHJjX3ZlcnNlXzFd
        >
        <X 2640 0
          /wFbbXVzaWNfc3RhcnRd
        >
        <X 10800 0
          /wFbcHJjX3ByZWNob3J1c18xXQ==
        >
        <X 19200 0
          /wFbcHJjX2Nob3J1c18xXQ==
        >
        <X 11520 0
          /wFbcHJjX3ZlcnNlXzJd
        >
        <X 11520 0
          /wFbcHJjX3ByZWNob3J1c18yXQ==
        >
        <X 23040 0
          /wFbcHJjX2Nob3J1c18yXQ==
        >
        <X 15360 0
          /wFbcHJjX2JyaWRnZV0=
        >
        <X 19200 0
          /wFbcHJjX291dHJvX2Nob3J1c10=
        >
        <X 15840 0
          /wFbbXVzaWNfZW5kXQ==
        >
        <X 5275 0
          /wFbZW5kXQ==
        >
        E 5 b0 7b 00
        GUID {9640B2D5-CB7C-44A1-B271-E0C8D8FF6F04}
        IGNTEMPO 0 120.00000000 4 4
        SRCCOLOR 14
        VELLANE 132 71 60
        COLORMAP "C:\Program Files\REAPER (x64)\Data\color_maps\rockband_guitarbass.png"
        CFGEDITVIEW 0.000000 4.750000 0 48 0 0 0
        CFGEDIT 1 1 0 1 1 0 1 1 1 1 1 0.25000000 100 100 1200 800 0 2 2 1 0.00000000 0 1 1 0 0.500000 0 0 1.000000 64
        KEYSNAP 0 6 "102030050700" 0 "Pentatonic"
        EVTFILTER 0 -1 -1 -1 -1 0 1 0 0 -1.00000000 -1.00000000
      >
    >
  >
  <TRACK '{FBC968D1-0E97-44FD-B3E8-92F92C0CF2C8}'
    NAME "BEAT"
    PEAKCOL 16576
    BEAT -1
    AUTOMODE 0
    VOLPAN 1.00000000000000 0.00000000000000 -1.00000000000000 -1.00000000000000 1.00000000000000
    MUTESOLO 0 0 0
    IPHASE 0
    ISBUS 0 0
    BUSCOMP 0 0
    SHOWINMIX 1 0.666700 0.500000 1 0.500000 -1 -1 -1
    FREEMODE 0
    SEL 0
    REC 0 0 0 0 0 0 0
    VU 2
    TRACKHEIGHT 0 0
    INQ 0 0 0 0.5000000000 100 0 0 100
    NCHAN 2
    FX 1
    TRACKID {FBC968D1-0E97-44FD-B3E8-92F92C0CF2C8}
    PERF 0
    MIDIOUT -1
    <MIDINOTENAMES
      0 13 "Up Beats"
      0 12 "Downbeat"
    >
    MAINSEND 1 0
    <FXCHAIN
      SHOW 0
      LASTSEL 0
      DOCKED 0
    >
    <ITEM
      POSITION 0.00000000000000
      SNAPOFFS 0.00000000000000
      LENGTH 144.00000000000000
      LOOP 0
      ALLTAKES 0
      SEL 0
      FADEIN 1 0.000000 0.000000 1 0
      FADEOUT 1 0.000000 0.000000 1 0
      MUTE 0
      IGUID {DEFE6F05-FB81-44B2-8E39-B1B2A3D67029}
      IID 15
      NAME "BEAT"
      VOLPAN 1.000000 0.000000 1.000000 -1.000000
      SOFFS 0.00000000000000 0.00000000000000
      PLAYRATE 1.00000000000000 1 0.00000000000000 -1
      CHANMODE 0
      GUID {1B80F38D-6E74-4F8A-80DC-CCFB5447A895}
      <SOURCE MIDI
        HASDATA 1 480 QN
        POOLEDEVTS {56706384-F213-40EF-BF03-DA1334510C18}
        <X 0 0
          /wNCRUFU
        >
        E 0 96 0c 64
        E 120 86 0c 00
        E 360 96 0d 64
        E 120 86 0d 00
        E 360 96 0d 64
        E 120 86 0d 00
        E 360 96 0d 64
        E 120 86 0d 00
        E 360 96 0c 64
        E 120 86 0c 00
        E 360 96 0d 64
        E 120 86 0d 00
        E 360 96 0d 64
        E 120 86 0d 00
        E 360 96 0d 64
        E 120 86 0d 00
        E 360 96 0c 64
        E 120 86 0c 00
        E 360 96 0d 64
        E 120 86 0d 00
        E 360 96 0d 64
        E 120 86 0d 00
        E 360 96 0d 64
        E 120 86 0d 00
        E 360 96 0c 64
        E 120 86 0c 00
        E 360 96 0d 64
        E 120 86 0d 00
        E 360 96 0d 64
        E 120 86 0d 00
        E 360 96 0d 64
        E 120 86 0d 00
        E 360 96 0c 64
        E 120 86 0c 00
        E 360 96 0d 64
        E 120 86 0d 00
        E 360 96 0d 64
        E 120 86 0d 00
        E 360 96 0d 64
        E 120 86 0d 00
        E 360 96 0c 64
        E 120 86 0c 00
        E 360 96 0d 64
        E 120 86 0d 00
        E 360 96 0d 64
        E 120 86 0d 00
        E 360 96 0d 64
        E 120 86 0d 00
        E 360 96 0c 64
        E 120 86 0c 00
        E 360 96 0d 64
        E 120 86 0d 00
        E 360 96 0d 64
        E 120 86 0d 00
        E 360 96 0d 64
        E 120 86 0d 00
        E 360 96 0c 64
        E 120 86 0c 00
        E 360 96 0d 64
        E 120 86 0d 00
        E 360 96 0d 64
        E 120 86 0d 00
        E 360 96 0d 64
        E 120 86 0d 00
        E 360 96 0c 64
        E 120 86 0c 00
        E 360 96 0d 64
        E 120 86 0d 00
        E 360 96 0d 64
        E 120 86 0d 00
        E 360 96 0d 64
        E 120 86 0d 00
        E 360 96 0c 64
        E 120 86 0c 00
        E 360 96 0d 64
        E 120 86 0d 00
        E 360 96 0d 64
        E 120 86 0d 00
        E 360 96 0d 64
        E 120 86 0d 00
        E 360 96 0c 64
        E 120 86 0c 00
        E 360 96 0d 64
        E 120 86 0d 00
        E 360 96 0d 64
        E 120 86 0d 00
        E 360 96 0d 64
        E 120 86 0d 00
        E 360 96 0c 64
        E 120 86 0c 00
        E 360 96 0d 64
        E 120 86 0d 00
        E 360 96 0d 64
        E 120 86 0d 00
        E 360 96 0d 64
        E 120 86 0d 00
        E 360 96 0c 64
        E 120 86 0c 00
        E 360 96 0d 64
        E 120 86 0d 00
        E 360 96 0d 64
        E 120 86 0d 00
        E 360 96 0d 64
        E 120 86 0d 00
        E 360 96 0c 64
        E 120 86 0c 00
        E 360 96 0d 64
        E 120 86 0d 00
        E 360 96 0d 64
        E 120 86 0d 00
        E 360 96 0d 64
        E 120 86 0d 00
        E 360 96 0d 64
        E 120 86 0d 00
        E 360 96 0d 64
        E 120 86 0d 00
        E 360 96 0c 64
        E 120 86 0c 00
        E 360 96 0d 64
        E 120 86 0d 00
        E 360 96 0d 64
        E 120 86 0d 00
        E 360 96 0d 64
        E 120 86 0d 00
        E 360 96 0c 64
        E 120 86 0c 00
        E 360 96 0d 64
        E 120 86 0d 00
        E 360 96 0d 64
        E 120 86 0d 00
        E 360 96 0d 64
        E 120 86 0d 00
        E 360 96 0c 64
        E 120 86 0c 00
        E 360 96 0d 64
        E 120 86 0d 00
        E 360 96 0d 64
        E 120 86 0d 00
        E 360 96 0d 64
        E 120 86 0d 00
        E 360 96 0c 64
        E 120 86 0c 00
        E 360 96 0d 64
        E 120 86 0d 00
        E 360 96 0d 64
        E 120 86 0d 00
        E 360 96 0d 64
        E 120 86 0d 00
        E 360 96 0d 64
        E 120 86 0d 00
        E 360 96 0d 64
        E 120 86 0d 00
        E 360 96 0c 64
        E 120 86 0c 00
        E 360 96 0d 64
        E 120 86 0d 00
        E 360 96 0d 64
        E 120 86 0d 00
        E 360 96 0d 64
        E 120 86 0d 00
        E 360 96 0c 64
        E 120 86 0c 00
        E 360 96 0d 64
        E 120 86 0d 00
        E 360 96 0d 64
        E 120 86 0d 00
        E 360 96 0d 64
        E 120 86 0d 00
        E 360 96 0c 64
        E 120 86 0c 00
        E 360 96 0d 64
        E 120 86 0d 00
        E 360 96 0d 64
        E 120 86 0d 00
        E 360 96 0d 64
        E 120 86 0d 00
        E 360 96 0c 64
        E 120 86 0c 00
        E 360 96 0d 64
        E 120 86 0d 00
        E 360 96 0d 64
        E 120 86 0d 00
        E 360 96 0d 64
        E 120 86 0d 00
        E 360 96 0c 64
        E 120 86 0c 00
        E 360 96 0d 64
        E 120 86 0d 00
        E 360 96 0d 64
        E 120 86 0d 00
        E 360 96 0d 64
        E 120 86 0d 00
        E 360 96 0c 64
        E 120 86 0c 00
        E 360 96 0d 64
        E 120 86 0d 00
        E 360 96 0d 64
        E 120 86 0d 00
        E 360 96 0d 64
        E 120 86 0d 00
        E 360 96 0c 64
        E 120 86 0c 00
        E 360 96 0d 64
        E 120 86 0d 00
        E 360 96 0d 64
        E 120 86 0d 00
        E 360 96 0d 64
        E 120 86 0d 00
        E 360 96 0c 64
        E 120 86 0c 00
        E 360 96 0d 64
        E 120 86 0d 00
        E 360 96 0d 64
        E 120 86 0d 00
        E 360 96 0d 64
        E 120 86 0d 00
        E 360 96 0c 64
        E 120 86 0c 00
        E 360 96 0d 64
        E 120 86 0d 00
        E 360 96 0d 64
        E 120 86 0d 00
        E 360 96 0d 64
        E 120 86 0d 00
        E 360 96 0c 64
        E 120 86 0c 00
        E 360 96 0d 64
        E 120 86 0d 00
        E 360 96 0d 64
        E 120 86 0d 00
        E 360 96 0d 64
        E 120 86 0d 00
        E 360 96 0c 64
        E 120 86 0c 00
        E 360 96 0d 64
        E 120 86 0d 00
        E 360 96 0d 64
        E 120 86 0d 00
        E 360 96 0d 64
        E 120 86 0d 00
        E 360 96 0c 64
        E 120 86 0c 00
        E 360 96 0d 64
        E 120 86 0d 00
        E 360 96 0d 64
        E 120 86 0d 00
        E 360 96 0d 64
        E 120 86 0d 00
        E 360 96 0c 64
        E 120 86 0c 00
        E 360 96 0d 64
        E 120 86 0d 00
        E 360 96 0d 64
        E 120 86 0d 00
        E 360 96 0d 64
        E 120 86 0d 00
        E 360 96 0c 64
        E 120 86 0c 00
        E 360 96 0d 64
        E 120 86 0d 00
        E 360 96 0d 64
        E 120 86 0d 00
        E 360 96 0d 64
        E 120 86 0d 00
        E 360 96 0c 64
        E 120 86 0c 00
        E 360 96 0d 64
        E 120 86 0d 00
        E 360 96 0d 64
        E 120 86 0d 00
        E 360 96 0d 64
        E 120 86 0d 00
        E 360 96 0c 64
        E 120 86 0c 00
        E 360 96 0d 64
        E 120 86 0d 00
        E 360 96 0d 64
        E 120 86 0d 00
        E 360 96 0d 64
        E 120 86 0d 00
        E 360 96 0c 64
        E 120 86 0c 00
        E 360 96 0d 64
        E 120 86 0d 00
        E 360 96 0d 64
        E 120 86 0d 00
        E 360 96 0d 64
        E 120 86 0d 00
        E 360 96 0c 64
        E 120 86 0c 00
        E 360 96 0d 64
        E 120 86 0d 00
        E 360 96 0d 64
        E 120 86 0d 00
        E 360 96 0d 64
        E 120 86 0d 00
        E 360 96 0c 64
        E 120 86 0c 00
        E 360 96 0d 64
        E 120 86 0d 00
        E 360 96 0d 64
        E 120 86 0d 00
        E 360 96 0d 64
        E 120 86 0d 00
        E 360 96 0d 64
        E 120 86 0d 00
        E 360 96 0d 64
        E 120 86 0d 00
        E 360 96 0c 64
        E 120 86 0c 00
        E 360 96 0d 64
        E 120 86 0d 00
        E 360 96 0d 64
        E 120 86 0d 00
        E 360 96 0d 64
        E 120 86 0d 00
        E 360 96 0c 64
        E 120 86 0c 00
        E 360 96 0d 64
        E 120 86 0d 00
        E 360 96 0d 64
        E 120 86 0d 00
        E 360 96 0d 64
        E 120 86 0d 00
        E 360 96 0c 64
        E 120 86 0c 00
        E 360 96 0d 64
        E 120 86 0d 00
        E 360 96 0d 64
        E 120 86 0d 00
        E 360 96 0d 64
        E 120 86 0d 00
        E 360 96 0c 64
        E 120 86 0c 00
        E 360 96 0d 64
        E 120 86 0d 00
        E 360 96 0d 64
        E 120 86 0d 00
        E 360 96 0d 64
        E 120 86 0d 00
        E 360 96 0d 64
        E 120 86 0d 00
        E 360 96 0d 64
        E 120 86 0d 00
        E 360 96 0c 64
        E 120 86 0c 00
        E 360 96 0d 64
        E 120 86 0d 00
        E 360 96 0d 64
        E 120 86 0d 00
        E 360 96 0d 64
        E 120 86 0d 00
        E 360 96 0c 64
        E 120 86 0c 00
        E 360 96 0d 64
        E 120 86 0d 00
        E 360 96 0d 64
        E 120 86 0d 00
        E 360 96 0d 64
        E 120 86 0d 00
        E 360 96 0c 64
        E 120 86 0c 00
        E 360 96 0d 64
        E 120 86 0d 00
        E 360 96 0d 64
        E 120 86 0d 00
        E 360 96 0d 64
        E 120 86 0d 00
        E 360 96 0c 64
        E 120 86 0c 00
        E 360 96 0d 64
        E 120 86 0d 00
        E 360 96 0d 64
        E 120 86 0d 00
        E 360 96 0d 64
        E 120 86 0d 00
        E 360 96 0c 64
        E 120 86 0c 00
        E 360 96 0d 64
        E 120 86 0d 00
        E 360 96 0d 64
        E 120 86 0d 00
        E 360 96 0d 64
        E 120 86 0d 00
        E 360 96 0c 64
        E 120 86 0c 00
        E 360 96 0d 64
        E 120 86 0d 00
        E 360 96 0d 64
        E 120 86 0d 00
        E 360 96 0d 64
        E 120 86 0d 00
        E 360 96 0c 64
        E 120 86 0c 00
        E 360 96 0d 64
        E 120 86 0d 00
        E 360 96 0d 64
        E 120 86 0d 00
        E 360 96 0d 64
        E 120 86 0d 00
        E 360 96 0c 64
        E 120 86 0c 00
        E 360 96 0d 64
        E 120 86 0d 00
        E 360 96 0d 64
        E 120 86 0d 00
        E 360 96 0d 64
        E 120 86 0d 00
        E 360 96 0c 64
        E 120 86 0c 00
        E 360 96 0d 64
        E 120 86 0d 00
        E 360 96 0d 64
        E 120 86 0d 00
        E 360 96 0d 64
        E 120 86 0d 00
        E 360 96 0c 64
        E 120 86 0c 00
        E 360 96 0d 64
        E 120 86 0d 00
        E 360 96 0d 64
        E 120 86 0d 00
        E 360 96 0d 64
        E 120 86 0d 00
        E 360 96 0c 64
        E 120 86 0c 00
        E 360 96 0d 64
        E 120 86 0d 00
        E 360 96 0d 64
        E 120 86 0d 00
        E 360 96 0d 64
        E 120 86 0d 00
        E 360 96 0c 64
        E 120 86 0c 00
        E 360 96 0d 64
        E 120 86 0d 00
        E 360 96 0d 64
        E 120 86 0d 00
        E 360 96 0d 64
        E 120 86 0d 00
        E 360 96 0c 64
        E 120 86 0c 00
        E 360 96 0d 64
        E 120 86 0d 00
        E 360 96 0d 64
        E 120 86 0d 00
        E 360 96 0d 64
        E 120 86 0d 00
        E 360 96 0c 64
        E 120 86 0c 00
        E 360 96 0d 64
        E 120 86 0d 00
        E 360 96 0d 64
        E 120 86 0d 00
        E 360 96 0d 64
        E 120 86 0d 00
        E 360 96 0c 64
        E 120 86 0c 00
        E 360 96 0d 64
        E 120 86 0d 00
        E 360 96 0d 64
        E 120 86 0d 00
        E 360 96 0d 64
        E 120 86 0d 00
        E 360 96 0c 64
        E 120 86 0c 00
        E 360 96 0d 64
        E 120 86 0d 00
        E 360 96 0d 64
        E 120 86 0d 00
        E 360 96 0d 64
        E 120 86 0d 00
        E 360 96 0c 64
        E 120 86 0c 00
        E 360 96 0d 64
        E 120 86 0d 00
        E 360 96 0d 64
        E 120 86 0d 00
        E 360 96 0d 64
        E 120 86 0d 00
        E 360 96 0c 64
        E 120 86 0c 00
        E 360 96 0d 64
        E 120 86 0d 00
        E 360 96 0d 64
        E 120 86 0d 00
        E 360 96 0d 64
        E 120 86 0d 00
        E 360 96 0c 64
        E 120 86 0c 00
        E 360 96 0d 64
        E 120 86 0d 00
        E 360 96 0d 64
        E 120 86 0d 00
        E 360 96 0d 64
        E 120 86 0d 00
        E 360 96 0c 64
        E 120 86 0c 00
        E 360 96 0d 64
        E 120 86 0d 00
        E 360 96 0d 64
        E 120 86 0d 00
        E 360 96 0d 64
        E 120 86 0d 00
        E 360 96 0c 64
        E 120 86 0c 00
        E 360 96 0d 64
        E 120 86 0d 00
        E 360 96 0d 64
        E 120 86 0d 00
        E 360 96 0d 64
        E 120 86 0d 00
        E 360 96 0c 64
        E 120 86 0c 00
        E 360 96 0d 64
        E 120 86 0d 00
        E 360 96 0d 64
        E 120 86 0d 00
        E 360 96 0d 64
        E 120 86 0d 00
        E 360 96 0c 64
        E 120 86 0c 00
        E 360 96 0d 64
        E 120 86 0d 00
        E 360 96 0d 64
        E 120 86 0d 00
        E 360 96 0d 64
        E 120 86 0d 00
        E 360 96 0c 64
        E 120 86 0c 00
        E 360 96 0d 64
        E 120 86 0d 00
        E 360 96 0d 64
        E 120 86 0d 00
        E 360 96 0d 64
        E 120 86 0d 00
        E 360 96 0c 64
        E 120 86 0c 00
        E 360 96 0d 64
        E 120 86 0d 00
        E 360 96 0d 64
        E 120 86 0d 00
        E 360 96 0d 64
        E 120 86 0d 00
        E 360 96 0c 64
        E 120 86 0c 00
        E 360 96 0d 64
        E 120 86 0d 00
        E 360 96 0d 64
        E 120 86 0d 00
        E 360 96 0d 64
        E 120 86 0d 00
        E 360 96 0c 64
        E 120 86 0c 00
        E 360 96 0d 64
        E 120 86 0d 00
        E 360 96 0d 64
        E 120 86 0d 00
        E 360 96 0d 64
        E 120 86 0d 00
        E 360 96 0c 64
        E 120 86 0c 00
        E 360 96 0d 64
        E 120 86 0d 00
        E 360 96 0d 64
        E 120 86 0d 00
        E 360 96 0d 64
        E 120 86 0d 00
        E 360 96 0c 64
        E 120 86 0c 00
        E 360 96 0d 64
        E 120 86 0d 00
        E 360 96 0d 64
        E 120 86 0d 00
        E 360 96 0d 64
        E 120 86 0d 00
        E 360 b0 7b 00
        GUID {F4D390C3-6042-42D7-8F57-F7282D21DD6F}
        IGNTEMPO 0 120.00000000 4 4
        SRCCOLOR 15
        VELLANE 132 71 60
        COLORMAP "C:\Program Files\REAPER (x64)\Data\color_maps\rockband_guitarbass.png"
        CFGEDITVIEW 0.000000 4.750000 0 48 0 0 0
        CFGEDIT 1 1 0 1 1 0 1 1 1 1 1 0.25000000 100 100 1200 800 0 2 2 1 0.00000000 0 1 1 0 0.500000 0 0 1.000000 64
        KEYSNAP 0 6 "102030050700" 0 "Pentatonic"
        EVTFILTER 0 -1 -1 -1 -1 0 1 0 0 -1.00000000 -1.00000000
      >
    >
  >
  <TRACK '{B48E8034-F54B-4C63-A1DA-378CC19AD67A}'
    NAME "backing"
    PEAKCOL 16576
    BEAT -1
    AUTOMODE 0
    VOLPAN 1.00000000000000 0.00000000000000 -1.00000000000000 -1.00000000000000 1.00000000000000
    MUTESOLO 0 0 0
    IPHASE 0
    ISBUS 0 0
    BUSCOMP 0 0
    SHOWINMIX 1 0.666700 0.500000 1 0.500000 -1 -1 -1
    FREEMODE 0
    SEL 0
    REC 0 0 0 0 0 0 0
    VU 2
    TRACKHEIGHT 0 0
    INQ 0 0 0 0.5000000000 100 0 0 100
    NCHAN 2
    FX 1
    TRACKID {B48E8034-F54B-4C63-A1DA-378CC19AD67A}
    PERF 0
    MIDIOUT -1
    MAINSEND 1 0
    <ITEM
      POSITION 0.00000000000000
      SNAPOFFS 0.00000000000000
      LENGTH 144.00000000000000
      LOOP 0
      ALLTAKES 0
      SEL 0
      FADEIN 1 0.000000 0.000000 1 0
      FADEOUT 1 0.000000 0.000000 1 0
      MUTE 0
      IGUID {04A006DB-864C-4CA8-94F1-61B4B8AB1984}
      IID 16
      NAME "backing.wav"
      VOLPAN 1.000000 0.000000 1.000000 -1.000000
      SOFFS 0.00000000000000
      PLAYRATE 1.00000000000000 1 0.00000000000000 -1
      CHANMODE 0
      GUID {982DF5A8-0987-4EB1-8235-B662A55DA93A}
      <SOURCE WAVE
        FILE "wav\backing.wav"
      >
    >
  >
  <EXTENSIONS
  >
>
