<REAPER_PROJECT 0.1 "4.22/x64"
  RIPPLE 0
  GROUPOVERRIDE 0 0 0
  AUTOXFADE 1
  ENVATTACH 1
  MIXERUIFLAGS 11 48
  PEAKGAIN 1.00000000000000
  FEEDBACK 0
  PANLAW 1.00000000000000
  PROJOFFS 0.00000000000000 0
  MAXPROJLEN 0 600.00000000000000
  GRID 3199 8 1.00000000000000 8 1.00000000000000 0
  TIMEMODE 1 0 -1
  PANMODE 3
  CURSOR 9.28765740724305
  ZOOM 7.68738664499193 0 0
  VZOOMEX 5
  USE_REC_CFG 0
  RECMODE 1
  SMPTESYNC 0 23.976024 100 40 1000 300 0 0.000000 1
  LOOP 1
  LOOPGRAN 0 4.00000000000000
  RECORD_PATH "" ""
  <RECORD_CFG
    ZXZhdxAD
  >
  <APPLYFX_CFG
  >
  RENDER_FILE "C:\Users\Ruggery\Desktop\backing.wav"
  RENDER_FMT 0 2 44100
  RENDER_1X 0
  RENDER_RANGE 2 0.00000000000000 0.00000000000000
  RENDER_RESAMPLE 3 0 1
  RENDER_ADDTOPROJ 0
  RENDER_STEMS 0
  RENDER_DITHER 0
  TIMELOCKMODE 0
  ITEMMIX 0
  DEFPITCHMODE 393216
  TAKELANE 1
  SAMPLERATE 44100 0 0
  <RENDER_CFG
    ZXZhdxAD
  >
  LOCK 1
  <METRONOME 6 2.000000
    VOL 0.250000 0.125000
    FREQ 800 1600 1
    BEATLEN 4
    SAMPLES "" ""
  >
  GLOBAL_AUTO -1
  TEMPO 113.00000000000000 3 4
  PLAYRATE 1.00000000000000 0 0.25000 4.00000
  SELECTION 145.04278159266019 0.00000000000000
  SELECTION2 145.04278159266019 0.00000000000000
  MASTERAUTOMODE 0
  MASTERTRACKHEIGHT 66
  MASTERPEAKCOL 16576
  MASTERMUTESOLO 0
  MASTERTRACKVIEW 1 0.666700 0.500000 0.500000 -1 -1 -1
  MASTERHWOUT 0 0 1.00000000000000 0.00000000000000 0 0 0 -1.00000000000000
  MASTER_NCH 2 2
  MASTER_VOLUME 1.00000000000000 0.00000000000000 -1.00000000000000 -1.00000000000000 1.00000000000000
  MASTER_PANMODE -1
  MASTER_FX 1
  MASTER_SEL 0
  <MASTERPLAYSPEEDENV
    ACT 0
    VIS 0 1 1.000000
    LANEHEIGHT 0 0
    ARM 0
    DEFSHAPE 0 -1 -1
  >
  <TEMPOENVEX
    ACT 1
    VIS 1 0 1.000000
    LANEHEIGHT 0 0
    ARM 0
    DEFSHAPE 1 -1 -1
    PT 0.000000000000 118.1180000000 1
    PT 4.063735912949 105.8823529360 1
    PT 4.630402579616 112.4705882353 1
    PT 6.230817801599 119.0588235294 1
    PT 7.742675509109 113.4117647059 1
    PT 8.271721152263 118.1176470588 1
    PT 8.779689279753 118.1176470588 1
    PT 9.287657407243 113.4117647059 1
    PT 10.874794336704 122.8235294118 1
    PT 12.340311578083 115.2941176480 1
    PT 13.901536067879 119.9999999920 1
    PT 15.401536067879 116.2352941120 1
    PT 20.047285055733 118.1176470640 1
    PT 21.571189438203 107.7647058880 1
    PT 22.127957997155 117.1764706000 1
    PT 23.152054382697 111.5294117680 1
    PT 23.690029066241 116.2352941120 1
    PT 25.754806394177 117.1764706000 1
    PT 26.266854586948 119.9999999920 1
    PT 27.266854586948 113.4117646960 1
    PT 27.795900230101 118.1176470640 1
    PT 28.811836485081 112.4705882320 1
    PT 29.345309288429 116.2352941120 1
    PT 30.377697952396 119.0588235280 1
    PT 30.881650521566 117.1764706000 1
    PT 31.905746907108 115.2941176480 1
    PT 32.426155070374 120.9411764800 1
    PT 33.418372969206 118.1176470640 1
    PT 34.942277351676 123.7647058720 1
    PT 44.153303967646 119.9999999920 1
    PT 45.653303967646 115.2941176480 1
    PT 55.020650906422 119.0588235280 1
    PT 60.564129167291 122.8235294080 1
    PT 66.914703879935 120.9411764800 1
    PT 69.891357576433 116.2352941120 1
    PT 71.439940572384 119.0588235280 1
    PT 72.951798279894 109.6470588160 1
    PT 73.499008580323 122.8235294080 1
    PT 74.476020074576 114.3529411840 1
    PT 75.525402790626 124.7058823600 1
    PT 76.006531991707 119.0588235280 1
    PT 77.014437130047 119.9999999920 1
    PT 79.014437130047 117.1764706000 1
    PT 80.550581708360 119.0588235280 1
    PT 82.062439415870 115.2941176480 1
    PT 83.623663905666 110.5882353040 1
    PT 85.251323480134 119.0588235280 1
    PT 86.259231630031 124.7058823529 1
    PT 87.702627856446 122.8235294118 1
    PT 88.191133603572 116.2352941120 1
    PT 97.482631579280 119.0588235280 1
    PT 98.994489286790 120.9411764800 1
    PT 104.947796679786 124.7058823600 1
    PT 106.391192906202 120.9411764800 1
    PT 109.367846602700 122.8235294080 1
    PT 110.833363844079 120.9411764800 1
    PT 121.251651781822 121.8823529440 1
    PT 127.158987689158 118.1176470640 1
    PT 128.682892071628 119.9999999920 1
    PT 130.182892071628 121.8823529440 1
    PT 131.659726048462 121.8823529440 1
    PT 134.613394002130 118.1176470640 1
    PT 136.137298384533 120.4255319200 1
    PT 139.126697677820 121.7021276560 1
  >
  <PROJBAY
  >
  <TRACK '{B66BEEE9-226F-4AB9-BCC0-D4FFBB07DC3A}'
    NAME "PART DRUMS"
    PEAKCOL 16576
    BEAT -1
    AUTOMODE 0
    VOLPAN 1.00000000000000 0.00000000000000 -1.00000000000000 -1.00000000000000 1.00000000000000
    MUTESOLO 0 0 0
    IPHASE 0
    ISBUS 0 0
    BUSCOMP 0 0
    SHOWINMIX 1 0.666700 0.500000 1 0.500000 -1 -1 -1
    FREEMODE 0
    SEL 0
    REC 0 0 0 0 0 0 0
    VU 2
    TRACKHEIGHT 0 0
    INQ 0 0 0 0.5000000000 100 0 0 100
    NCHAN 2
    FX 1
    TRACKID {B66BEEE9-226F-4AB9-BCC0-D4FFBB07DC3A}
    PERF 0
    MIDIOUT -1
    <MIDINOTENAMES
      0 127 "CYMBAL SWELLS"
      0 126 "DRUM ROLL"
      0 125 "---"
      0 124 "DRUM FILL"
      0 123 "DRUM FILL"
      0 122 "DRUM FILL"
      0 121 "DRUM FILL"
      0 120 "DRUM FILL (use all 5)"
      0 118 "----"
      0 116 "OVERDRIVE"
      0 114 "----"
      0 112 "TOM GEMS PAD 4"
      0 111 "TOM GEMS PAD 3"
      0 110 "TOM GEMS PAD 2"
      0 103 "Solo Marker"
      0 102 "----"
      0 100 "EXPERT Green"
      0 99 "EXPERT Blue"
      0 98 "EXPERT Yellow"
      0 97 "EXPERT Red"
      0 96 "EXPERT Kick"
      0 92 "----"
      0 88 "HARD Green"
      0 87 "HARD Blue"
      0 86 "HARD Yellow"
      0 85 "HARD Red"
      0 84 "HARD Kick"
      0 80 "----"
      0 76 "MEDIUM Green"
      0 75 "MEDIUM Blue"
      0 74 "MEDIUM Yellow"
      0 73 "MEDIUM Red"
      0 72 "MEDIUM Kick"
      0 68 "----"
      0 64 "EASY Green"
      0 63 "EASY Blue"
      0 62 "EASY Yellow"
      0 61 "EASY Red"
      0 60 "EASY Kick"
      0 56 "----"
      0 52 "-- DRUM ANIMATION --"
      0 51 "FLOOR TOM RH"
      0 50 "FLOOR TOM LH"
      0 49 "TOM2 RH"
      0 48 "TOM2 LH"
      0 47 "TOM1 RH"
      0 46 "TOM1 LH"
      0 45 "SOFT CRASH 2 LH"
      0 44 "CRASH 2 LH"
      0 43 "RIDE LH"
      0 42 "RIDE CYM RH"
      0 41 "CRASH2 CHOKE"
      0 40 "CRASH1 CHOKE"
      0 39 "CRASH2 SOFT RH"
      0 38 "CRASH2 HARD RH"
      0 37 "CRASH1 SOFT RH"
      0 36 "CRASH1 HARD RH"
      0 35 "CRASH1 SOFT LH"
      0 34 "CRASH1 HARD LH"
      0 32 "PERCUSSION RH"
      0 31 "HI-HAT RH"
      0 30 "HI-HAT LH"
      0 29 "SOFT SNARE RH"
      0 28 "SOFT SNARE LH"
      0 27 "SNARE RH"
      0 26 "SNARE LH"
      0 25 "HI-HAT OPEN"
      0 24 "KICK RF"
    >
    MAINSEND 1 0
    <FXCHAIN
      WNDRECT 423 151 878 559
      SHOW 0
      LASTSEL 2
      DOCKED 0
      BYPASS 0 0
      <JS "MIDI/midi_note_filter" ""
        96.000000 100.000000 - - - - - - - - - - - - - - - - - - - - - - - - - - - - - - - - - - - - - - - - - - - - - - - - - - - - - - - - - - - - - - 
      >
      FLOATPOS 0 0 0 0
      FXID {97B664C1-D47C-421D-A662-3466FD5D066C}
      WAK 0
      BYPASS 1 0
      <VST "VSTi: ReaSynth (Cockos)" "reasynth.dll" 0 ""
        eXNlcu9e7f4AAAAAAgAAAAEAAAAAAAAAAgAAAAAAAAA4AAAAAAAAAA==
        AAAQAO++rd4N8K3eppvEOxe30ToAAAAAAAAAAAAAAADOTQA/OsauOQ==
        AAAAAAAAAAAAAAAAAAAAAAAAAAAAABAAAAA=
      >
      FLOATPOS 0 0 0 0
      FXID {74F45898-C4AE-4328-A327-E447B7F08B11}
      WAK 0
      BYPASS 0 0
      <VST "VSTi: RBN Preview (RBN)" "rbprev_vst64.dll" 0 ""
        dnBicu5e7f4AAAAAAgAAAAEAAAAAAAAAAgAAAAAAAAAEAAAAAQAAAA==
        AAAQAAIBqgAAABAAAAA=
      >
      FLOATPOS 0 0 0 0
      FXID {661981EA-AD0C-4A8B-8C15-5D1BC7A1DDC2}
      WAK 0
    >
    <ITEM
      POSITION 0.00000000000000
      SNAPOFFS 0.00000000011175
      LENGTH 145.04278159266019
      LOOP 0
      ALLTAKES 0
      SEL 0
      FADEIN 1 0.000000 0.000000 1 0
      FADEOUT 1 0.000000 0.000000 1 0
      MUTE 0
      IGUID {123A1AE3-D126-4139-B636-BCE86E0737FC}
      IID 12
      NAME "PART DRUMS"
      VOLPAN 1.000000 0.000000 1.000000 -1.000000
      SOFFS -0.00000000011175 -0.00000000021999
      PLAYRATE 1.00000000000000 1 0.00000000000000 -1
      CHANMODE 0
      GUID {B8358AA3-F191-40B6-B18E-9CCAAD72B53B}
      <SOURCE MIDI
        HASDATA 1 480 QN
        POOLEDEVTS {9B28FE1B-156B-4917-9949-9185A6C6DD83}
        <X 0 0
          /wNQQVJUIERSVU1T
        >
        E 0 90 19 60
        <X 120 0
          /wFbbWl4IDEgZHJ1bXMwXQ==
        >
        <X 0 0
          /wFbbWl4IDAgZHJ1bXMwXQ==
        >
        <X 120 0
          /wFbbWl4IDIgZHJ1bXMwXQ==
        >
        <X 120 0
          /wFbbWl4IDMgZHJ1bXMwXQ==
        >
        E 2520 80 19 00
        <X 360 0
          /wFbbWVsbG93XQ==
        >
        E 0 90 2f 64
        E 0 90 56 60
        E 0 90 62 64
        E 0 90 6e 64
        E 0 90 6f 64
        E 120 80 2f 00
        E 0 80 56 00
        E 0 80 62 00
        E 0 90 31 64
        E 0 90 4b 64
        E 0 90 57 64
        E 0 90 63 64
        E 120 80 31 00
        E 0 80 4b 00
        E 0 80 57 00
        E 0 80 63 00
        E 0 90 31 64
        E 0 90 63 64
        E 120 80 31 00
        E 0 80 63 00
        E 240 90 2f 64
        E 0 90 3e 64
        E 0 90 4a 64
        E 0 90 56 64
        E 0 90 62 64
        E 120 80 2f 00
        E 0 80 3e 00
        E 0 80 4a 00
        E 0 80 56 00
        E 0 80 62 00
        E 720 90 2f 64
        E 0 90 56 60
        E 0 90 62 64
        E 120 80 2f 00
        E 0 80 56 00
        E 0 80 62 00
        E 0 90 31 64
        E 0 90 4b 64
        E 0 90 57 64
        E 0 90 63 64
        E 120 80 31 00
        E 0 80 4b 00
        E 0 80 57 00
        E 0 80 63 00
        E 0 90 31 64
        E 0 90 63 64
        E 120 80 31 00
        E 0 80 63 00
        E 240 90 2f 64
        E 0 90 3e 64
        E 0 90 4a 64
        E 0 90 56 64
        E 0 90 62 64
        E 120 80 2f 00
        E 0 80 3e 00
        E 0 80 4a 00
        E 0 80 56 00
        E 0 80 62 00
        E 720 90 2f 64
        E 0 90 56 60
        E 0 90 62 64
        E 120 80 2f 00
        E 0 80 56 00
        E 0 80 62 00
        E 0 90 31 64
        E 0 90 4b 64
        E 0 90 57 64
        E 0 90 63 64
        E 120 80 31 00
        E 0 80 4b 00
        E 0 80 57 00
        E 0 80 63 00
        E 0 90 31 64
        E 0 90 63 64
        E 120 80 31 00
        E 0 80 63 00
        E 240 90 2f 64
        E 0 90 3e 64
        E 0 90 4a 64
        E 0 90 56 64
        E 0 90 62 64
        E 120 80 2f 00
        E 0 80 3e 00
        E 0 80 4a 00
        E 0 80 56 00
        E 0 80 62 00
        E 360 90 78 64
        E 0 90 79 64
        E 0 90 7a 64
        E 0 90 7b 64
        E 0 90 7c 64
        E 360 90 2f 64
        E 0 90 56 60
        E 0 90 62 64
        E 120 80 2f 00
        E 0 80 56 00
        E 0 80 62 00
        E 0 90 31 64
        E 0 90 4b 64
        E 0 90 57 64
        E 0 90 63 64
        E 120 80 31 00
        E 0 80 4b 00
        E 0 80 57 00
        E 0 80 63 00
        E 0 90 31 64
        E 0 90 63 64
        E 120 80 31 00
        E 0 80 63 00
        E 240 90 2f 64
        E 0 90 3e 64
        E 0 90 4a 64
        E 0 90 56 64
        E 0 90 62 64
        E 120 80 2f 00
        E 0 80 3e 00
        E 0 80 4a 00
        E 0 80 56 00
        E 0 80 62 00
        E 360 80 78 00
        E 0 80 79 00
        E 0 80 7a 00
        E 0 80 7b 00
        E 0 80 7c 00
        E 0 90 74 64
        E 360 90 2f 64
        E 0 90 56 60
        E 0 90 62 64
        E 120 80 2f 00
        E 0 80 56 00
        E 0 80 62 00
        E 0 90 31 64
        E 0 90 4b 64
        E 0 90 57 64
        E 0 90 63 64
        E 120 80 31 00
        E 0 80 4b 00
        E 0 80 57 00
        E 0 80 63 00
        E 0 90 31 64
        E 0 90 63 64
        E 120 80 31 00
        E 0 80 63 00
        E 240 90 2f 64
        E 0 90 3e 64
        E 0 90 4a 64
        E 0 90 56 64
        E 0 90 62 64
        E 120 80 2f 00
        E 0 80 3e 00
        E 0 80 4a 00
        E 0 80 56 00
        E 0 80 62 00
        E 720 90 2f 64
        E 0 90 56 60
        E 0 90 62 64
        E 120 80 2f 00
        E 0 80 56 00
        E 0 80 62 00
        E 0 90 31 64
        E 0 90 4b 64
        E 0 90 57 64
        E 0 90 63 64
        E 120 80 31 00
        E 0 80 4b 00
        E 0 80 57 00
        E 0 80 63 00
        E 0 90 31 64
        E 0 90 63 64
        E 120 80 31 00
        E 0 80 63 00
        E 240 90 2f 64
        E 0 90 3e 64
        E 0 90 4a 64
        E 0 90 56 64
        E 0 90 62 64
        E 120 80 74 00
        E 0 80 2f 00
        E 0 80 3e 00
        E 0 80 4a 00
        E 0 80 56 00
        E 0 80 62 00
        E 720 90 2f 64
        E 0 90 56 60
        E 0 90 62 64
        E 120 80 2f 00
        E 0 80 56 00
        E 0 80 62 00
        E 0 90 31 64
        E 0 90 4b 64
        E 0 90 57 64
        E 0 90 63 64
        E 120 80 31 00
        E 0 80 4b 00
        E 0 80 57 00
        E 0 80 63 00
        E 0 90 31 64
        E 0 90 63 64
        E 120 80 31 00
        E 0 80 63 00
        E 240 90 2f 64
        E 0 90 3e 64
        E 0 90 4a 64
        E 0 90 56 64
        E 0 90 62 64
        E 120 80 2f 00
        E 0 80 3e 00
        E 0 80 4a 00
        E 0 80 56 00
        E 0 80 62 00
        E 360 90 78 64
        E 0 90 79 64
        E 0 90 7a 64
        E 0 90 7b 64
        E 0 90 7c 64
        E 360 90 2f 64
        E 0 90 56 60
        E 0 90 62 64
        E 120 80 2f 00
        E 0 80 56 00
        E 0 80 62 00
        E 0 90 31 64
        E 0 90 4b 64
        E 0 90 57 64
        E 0 90 63 64
        E 120 80 31 00
        E 0 80 4b 00
        E 0 80 57 00
        E 0 80 63 00
        E 0 90 31 64
        E 0 90 63 64
        E 120 80 31 00
        E 0 80 63 00
        E 240 90 2f 64
        E 0 90 3e 64
        E 0 90 4a 64
        E 0 90 56 64
        E 0 90 62 64
        E 120 80 2f 00
        E 0 80 3e 00
        E 0 80 4a 00
        E 0 80 56 00
        E 0 80 62 00
        E 360 80 78 00
        E 0 80 79 00
        E 0 80 7a 00
        E 0 80 7b 00
        E 0 80 7c 00
        E 360 90 2f 64
        E 0 90 56 60
        E 0 90 62 64
        E 120 80 2f 00
        E 0 80 56 00
        E 0 80 62 00
        E 0 90 31 64
        E 0 90 4b 64
        E 0 90 57 64
        E 0 90 63 64
        E 120 80 31 00
        E 0 80 4b 00
        E 0 80 57 00
        E 0 80 63 00
        E 0 90 31 64
        E 0 90 63 64
        E 120 80 31 00
        E 0 80 63 00
        E 240 90 2f 64
        E 0 90 3e 64
        E 0 90 4a 64
        E 0 90 56 64
        E 0 90 62 64
        E 120 80 2f 00
        E 0 80 3e 00
        E 0 80 4a 00
        E 0 80 56 00
        E 0 80 62 00
        E 720 90 2f 64
        E 0 90 56 60
        E 0 90 62 64
        E 120 80 2f 00
        E 0 80 56 00
        E 0 80 62 00
        E 0 90 31 64
        E 0 90 4b 64
        E 0 90 57 64
        E 0 90 63 64
        E 120 80 31 00
        E 0 80 4b 00
        E 0 80 57 00
        E 0 80 63 00
        E 0 90 31 64
        E 0 90 63 64
        E 120 80 31 00
        E 0 80 63 00
        E 240 90 2f 64
        E 0 90 3e 64
        E 0 90 4a 64
        E 0 90 56 64
        E 0 90 62 64
        E 120 80 2f 00
        E 0 80 3e 00
        E 0 80 4a 00
        E 0 80 56 00
        E 0 80 62 00
        E 720 90 2f 64
        E 0 90 56 60
        E 0 90 62 64
        E 120 80 2f 00
        E 0 80 56 00
        E 0 80 62 00
        E 0 90 31 64
        E 0 90 4b 64
        E 0 90 57 64
        E 0 90 63 64
        E 120 80 31 00
        E 0 80 4b 00
        E 0 80 57 00
        E 0 80 63 00
        E 0 90 31 64
        E 0 90 63 64
        E 120 80 31 00
        E 0 80 63 00
        E 240 90 2f 64
        E 0 90 3e 64
        E 0 90 4a 64
        E 0 90 56 64
        E 0 90 62 64
        E 120 80 2f 00
        E 0 80 3e 00
        E 0 80 4a 00
        E 0 80 56 00
        E 0 80 62 00
        E 360 90 78 64
        E 0 90 79 64
        E 0 90 7a 64
        E 0 90 7b 64
        E 0 90 7c 64
        E 360 90 2f 64
        E 0 90 56 60
        E 0 90 62 64
        E 120 80 2f 00
        E 0 80 56 00
        E 0 80 62 00
        E 0 90 31 64
        E 0 90 4b 64
        E 0 90 57 64
        E 0 90 63 64
        E 120 80 31 00
        E 0 80 4b 00
        E 0 80 57 00
        E 0 80 63 00
        E 0 90 31 64
        E 0 90 63 64
        E 120 80 31 00
        E 0 80 63 00
        E 240 90 2f 64
        E 0 90 3e 64
        E 0 90 4a 64
        E 0 90 56 64
        E 0 90 62 64
        E 120 80 2f 00
        E 0 80 3e 00
        E 0 80 4a 00
        E 0 80 56 00
        E 0 80 62 00
        E 360 80 78 00
        E 0 80 79 00
        E 0 80 7a 00
        E 0 80 7b 00
        E 0 80 7c 00
        E 360 90 2f 64
        E 0 90 62 64
        E 120 80 2f 00
        E 0 80 62 00
        E 0 90 1c 64
        E 0 90 31 64
        E 0 90 49 64
        E 0 90 4b 64
        E 0 90 55 64
        E 0 90 57 64
        E 0 90 61 64
        E 0 90 63 64
        E 120 80 1c 00
        E 0 80 31 00
        E 0 80 49 00
        E 0 80 4b 00
        E 0 80 55 00
        E 0 80 57 00
        E 0 80 61 00
        E 0 80 63 00
        E 0 90 31 64
        E 0 90 63 64
        E 120 80 31 00
        E 0 80 63 00
        E 240 90 1c 64
        E 0 90 2f 64
        E 0 90 3d 64
        E 0 90 3e 64
        E 0 90 49 64
        E 0 90 4a 64
        E 0 90 55 64
        E 0 90 56 64
        E 0 90 61 64
        E 0 90 62 64
        E 120 80 1c 00
        E 0 80 2f 00
        E 0 80 3d 00
        E 0 80 3e 00
        E 0 80 49 00
        E 0 80 4a 00
        E 0 80 55 00
        E 0 80 56 00
        E 0 80 61 00
        E 0 80 62 00
        E 360 90 1c 64
        E 0 90 49 60
        E 0 90 55 64
        E 0 90 61 64
        E 0 90 74 64
        E 120 80 1c 00
        E 0 80 49 00
        E 0 80 55 00
        E 0 80 61 00
        E 240 90 2f 64
        E 0 90 56 60
        E 0 90 62 64
        E 120 80 2f 00
        E 0 80 56 00
        E 0 80 62 00
        E 0 90 1c 64
        E 0 90 31 64
        E 0 90 49 64
        E 0 90 4b 64
        E 0 90 55 64
        E 0 90 57 64
        E 0 90 61 64
        E 0 90 63 64
        E 120 80 1c 00
        E 0 80 31 00
        E 0 80 49 00
        E 0 80 4b 00
        E 0 80 55 00
        E 0 80 57 00
        E 0 80 61 00
        E 0 80 63 00
        E 0 90 31 64
        E 0 90 63 64
        E 120 80 31 00
        E 0 80 63 00
        E 240 90 1c 64
        E 0 90 2f 64
        E 0 90 3d 64
        E 0 90 3e 64
        E 0 90 49 64
        E 0 90 4a 64
        E 0 90 55 64
        E 0 90 56 64
        E 0 90 61 64
        E 0 90 62 64
        E 120 80 1c 00
        E 0 80 2f 00
        E 0 80 3d 00
        E 0 80 3e 00
        E 0 80 49 00
        E 0 80 4a 00
        E 0 80 55 00
        E 0 80 56 00
        E 0 80 61 00
        E 0 80 62 00
        E 360 90 1c 64
        E 0 90 55 64
        E 0 90 61 64
        E 120 80 1c 00
        E 0 80 55 00
        E 0 80 61 00
        E 240 90 2f 64
        E 0 90 56 60
        E 0 90 62 64
        E 120 80 2f 00
        E 0 80 56 00
        E 0 80 62 00
        E 0 90 1c 64
        E 0 90 31 64
        E 0 90 49 64
        E 0 90 4b 64
        E 0 90 55 64
        E 0 90 57 64
        E 0 90 61 64
        E 0 90 63 64
        E 120 80 1c 00
        E 0 80 31 00
        E 0 80 49 00
        E 0 80 4b 00
        E 0 80 55 00
        E 0 80 57 00
        E 0 80 61 00
        E 0 80 63 00
        E 0 90 31 64
        E 0 90 63 64
        E 120 80 31 00
        E 0 80 63 00
        E 240 90 1c 64
        E 0 90 2f 64
        E 0 90 3d 64
        E 0 90 3e 64
        E 0 90 49 64
        E 0 90 4a 64
        E 0 90 55 64
        E 0 90 56 64
        E 0 90 61 64
        E 0 90 62 64
        E 120 80 74 00
        E 0 80 1c 00
        E 0 80 2f 00
        E 0 80 3d 00
        E 0 80 3e 00
        E 0 80 49 00
        E 0 80 4a 00
        E 0 80 55 00
        E 0 80 56 00
        E 0 80 61 00
        E 0 80 62 00
        E 360 90 1c 64
        E 0 90 49 64
        E 0 90 55 64
        E 0 90 61 64
        E 0 90 78 64
        E 0 90 79 64
        E 0 90 7a 64
        E 0 90 7b 64
        E 0 90 7c 64
        E 120 80 1c 00
        E 0 80 49 00
        E 0 80 55 00
        E 0 80 61 00
        E 240 90 2f 64
        E 0 90 56 60
        E 0 90 62 64
        E 120 80 2f 00
        E 0 80 56 00
        E 0 80 62 00
        E 0 90 1c 64
        E 0 90 31 64
        E 0 90 49 64
        E 0 90 4b 64
        E 0 90 55 64
        E 0 90 57 64
        E 0 90 61 64
        E 0 90 63 64
        E 120 80 1c 00
        E 0 80 31 00
        E 0 80 49 00
        E 0 80 4b 00
        E 0 80 55 00
        E 0 80 57 00
        E 0 80 61 00
        E 0 80 63 00
        E 0 90 31 64
        E 0 90 63 64
        E 120 80 31 00
        E 0 80 63 00
        E 240 90 1c 64
        E 0 90 2f 64
        E 0 90 3d 64
        E 0 90 3e 64
        E 0 90 49 64
        E 0 90 4a 64
        E 0 90 55 64
        E 0 90 56 64
        E 0 90 61 64
        E 0 90 62 64
        E 120 80 1c 00
        E 0 80 2f 00
        E 0 80 3d 00
        E 0 80 3e 00
        E 0 80 49 00
        E 0 80 4a 00
        E 0 80 55 00
        E 0 80 56 00
        E 0 80 61 00
        E 0 80 62 00
        E 360 80 78 00
        E 0 80 79 00
        E 0 80 7a 00
        E 0 80 7b 00
        E 0 80 7c 00
        E 0 90 1c 64
        E 0 90 49 64
        E 0 90 55 64
        E 0 90 61 64
        E 120 80 1c 00
        E 0 80 49 00
        E 0 80 55 00
        E 0 80 61 00
        E 240 90 2f 64
        E 0 90 56 60
        E 0 90 62 64
        E 120 80 2f 00
        E 0 80 56 00
        E 0 80 62 00
        E 0 90 1c 64
        E 0 90 31 64
        E 0 90 49 64
        E 0 90 4b 64
        E 0 90 55 64
        E 0 90 57 64
        E 0 90 61 64
        E 0 90 63 64
        E 120 80 1c 00
        E 0 80 31 00
        E 0 80 49 00
        E 0 80 4b 00
        E 0 80 55 00
        E 0 80 57 00
        E 0 80 61 00
        E 0 80 63 00
        E 0 90 31 64
        E 0 90 63 64
        E 120 80 31 00
        E 0 80 63 00
        E 240 90 1c 64
        E 0 90 2f 64
        E 0 90 3d 64
        E 0 90 3e 64
        E 0 90 49 64
        E 0 90 4a 64
        E 0 90 55 64
        E 0 90 56 64
        E 0 90 61 64
        E 0 90 62 64
        E 120 80 1c 00
        E 0 80 2f 00
        E 0 80 3d 00
        E 0 80 3e 00
        E 0 80 49 00
        E 0 80 4a 00
        E 0 80 55 00
        E 0 80 56 00
        E 0 80 61 00
        E 0 80 62 00
        E 360 90 1c 64
        E 0 90 49 64
        E 0 90 55 64
        E 0 90 61 64
        E 120 80 1c 00
        E 0 80 49 00
        E 0 80 55 00
        E 0 80 61 00
        E 240 90 2f 64
        E 0 90 56 60
        E 0 90 62 64
        E 120 80 2f 00
        E 0 80 56 00
        E 0 80 62 00
        E 0 90 1c 64
        E 0 90 31 64
        E 0 90 49 64
        E 0 90 4b 64
        E 0 90 55 64
        E 0 90 57 64
        E 0 90 61 64
        E 0 90 63 64
        E 120 80 1c 00
        E 0 80 31 00
        E 0 80 49 00
        E 0 80 4b 00
        E 0 80 55 00
        E 0 80 57 00
        E 0 80 61 00
        E 0 80 63 00
        E 0 90 31 64
        E 0 90 63 64
        E 120 80 31 00
        E 0 80 63 00
        E 240 90 1c 64
        E 0 90 2f 64
        E 0 90 3d 64
        E 0 90 3e 64
        E 0 90 49 64
        E 0 90 4a 64
        E 0 90 55 64
        E 0 90 56 64
        E 0 90 61 64
        E 0 90 62 64
        E 120 80 1c 00
        E 0 80 2f 00
        E 0 80 3d 00
        E 0 80 3e 00
        E 0 80 49 00
        E 0 80 4a 00
        E 0 80 55 00
        E 0 80 56 00
        E 0 80 61 00
        E 0 80 62 00
        E 360 90 1c 64
        E 0 90 49 64
        E 0 90 55 64
        E 0 90 61 64
        E 120 80 1c 00
        E 0 80 49 00
        E 0 80 55 00
        E 0 80 61 00
        E 240 90 2f 64
        E 0 90 56 60
        E 0 90 62 64
        E 120 80 2f 00
        E 0 80 56 00
        E 0 80 62 00
        E 0 90 1c 64
        E 0 90 31 64
        E 0 90 49 64
        E 0 90 4b 64
        E 0 90 55 64
        E 0 90 57 64
        E 0 90 61 64
        E 0 90 63 64
        E 120 80 1c 00
        E 0 80 31 00
        E 0 80 49 00
        E 0 80 4b 00
        E 0 80 55 00
        E 0 80 57 00
        E 0 80 61 00
        E 0 80 63 00
        E 0 90 31 64
        E 0 90 63 64
        E 120 80 31 00
        E 0 80 63 00
        E 240 90 1c 64
        E 0 90 2f 64
        E 0 90 3d 64
        E 0 90 3e 64
        E 0 90 49 64
        E 0 90 4a 64
        E 0 90 55 64
        E 0 90 56 64
        E 0 90 61 64
        E 0 90 62 64
        E 120 80 1c 00
        E 0 80 2f 00
        E 0 80 3d 00
        E 0 80 3e 00
        E 0 80 49 00
        E 0 80 4a 00
        E 0 80 55 00
        E 0 80 56 00
        E 0 80 61 00
        E 0 80 62 00
        <X 360 0
          /wFbcGxheV0=
        >
        E 0 90 1d 64
        E 0 90 49 64
        E 0 90 55 64
        E 0 90 61 64
        E 0 90 78 64
        E 0 90 79 64
        E 0 90 7a 64
        E 0 90 7b 64
        E 0 90 7c 64
        E 120 80 1d 00
        E 0 80 49 00
        E 0 80 55 00
        E 0 80 61 00
        E 0 90 2e 64
        E 0 90 62 64
        E 120 80 2e 00
        E 0 80 62 00
        E 120 90 2f 64
        E 0 90 62 64
        E 120 80 2f 00
        E 0 80 62 00
        E 0 90 2e 64
        E 0 90 3e 64
        E 0 90 4a 64
        E 0 90 56 64
        E 0 90 62 64
        E 120 80 2e 00
        E 0 80 3e 00
        E 0 80 4a 00
        E 0 80 56 00
        E 0 80 62 00
        E 0 90 31 64
        E 0 90 63 64
        E 120 80 31 00
        E 0 80 63 00
        E 120 90 30 64
        E 0 90 63 64
        E 120 80 30 00
        E 0 80 63 00
        E 0 90 33 64
        E 0 90 4c 64
        E 0 90 58 64
        E 0 90 64 64
        E 0 90 70 64
        E 120 80 33 00
        E 0 80 4c 00
        E 0 80 58 00
        E 0 80 64 00
        E 0 80 70 00
        E 120 90 30 64
        E 0 90 57 64
        E 0 90 63 64
        E 120 80 30 00
        E 0 80 57 00
        E 0 80 63 00
        <X 120 0
          /wFbaW50ZW5zZV0=
        >
        E 0 80 78 00
        E 0 80 79 00
        E 0 80 7a 00
        E 0 80 7b 00
        E 0 80 7c 00
        E 0 90 18 64
        E 0 90 26 64
        E 0 90 40 64
        E 0 90 48 64
        E 0 90 4c 64
        E 0 90 54 64
        E 0 90 58 64
        E 0 90 60 64
        E 0 90 64 64
        E 120 80 18 00
        E 0 80 26 00
        E 0 80 40 00
        E 0 80 48 00
        E 0 80 4c 00
        E 0 80 54 00
        E 0 80 58 00
        E 0 80 60 00
        E 0 80 64 00
        E 120 90 19 60
        E 240 80 19 00
        E 0 90 18 64
        E 0 90 2f 64
        E 0 90 3e 64
        E 0 90 4a 64
        E 0 90 54 64
        E 0 90 56 64
        E 0 90 60 64
        E 0 90 62 64
        E 120 80 18 00
        E 0 80 2f 00
        E 0 80 3e 00
        E 0 80 4a 00
        E 0 80 54 00
        E 0 80 56 00
        E 0 80 60 00
        E 0 80 62 00
        E 0 90 2e 64
        E 0 90 62 64
        E 120 80 2e 00
        E 0 80 62 00
        E 0 90 19 60
        E 120 90 30 64
        E 0 90 63 64
        E 120 80 19 00
        E 0 80 30 00
        E 0 80 63 00
        E 0 90 18 64
        E 0 90 33 64
        E 0 90 4c 64
        E 0 90 54 64
        E 0 90 58 64
        E 0 90 60 64
        E 0 90 64 64
        E 0 90 70 64
        E 120 80 18 00
        E 0 80 33 00
        E 0 80 4c 00
        E 0 80 54 00
        E 0 80 58 00
        E 0 80 60 00
        E 0 80 64 00
        E 0 80 70 00
        E 120 90 19 60
        E 0 90 30 64
        E 0 90 57 64
        E 0 90 63 64
        E 120 80 30 00
        E 0 80 57 00
        E 0 80 63 00
        E 120 80 19 00
        E 0 90 18 64
        E 0 90 26 64
        E 0 90 40 64
        E 0 90 4c 64
        E 0 90 54 64
        E 0 90 58 64
        E 0 90 60 64
        E 0 90 64 64
        E 120 80 18 00
        E 0 80 26 00
        E 0 80 40 00
        E 0 80 4c 00
        E 0 80 54 00
        E 0 80 58 00
        E 0 80 60 00
        E 0 80 64 00
        E 0 90 2e 64
        E 0 90 62 64
        E 120 80 2e 00
        E 0 80 62 00
        E 0 90 19 60
        E 120 90 2f 64
        E 0 90 62 64
        E 120 80 19 00
        E 0 80 2f 00
        E 0 80 62 00
        E 0 90 18 64
        E 0 90 2e 64
        E 0 90 3e 64
        E 0 90 4a 64
        E 0 90 54 64
        E 0 90 56 64
        E 0 90 60 64
        E 0 90 62 64
        E 120 80 18 00
        E 0 80 2e 00
        E 0 80 3e 00
        E 0 80 4a 00
        E 0 80 54 00
        E 0 80 56 00
        E 0 80 60 00
        E 0 80 62 00
        E 0 90 31 64
        E 0 90 63 64
        E 120 80 31 00
        E 0 80 63 00
        E 0 90 19 60
        E 120 90 30 64
        E 0 90 63 64
        E 120 80 19 00
        E 0 80 30 00
        E 0 80 63 00
        E 0 90 18 64
        E 0 90 33 64
        E 0 90 4c 64
        E 0 90 54 64
        E 0 90 58 64
        E 0 90 60 64
        E 0 90 64 64
        E 0 90 70 64
        E 120 80 18 00
        E 0 80 33 00
        E 0 80 4c 00
        E 0 80 54 00
        E 0 80 58 00
        E 0 80 60 00
        E 0 80 64 00
        E 0 80 70 00
        E 120 90 19 60
        E 0 90 30 64
        E 0 90 57 64
        E 0 90 63 64
        E 120 80 30 00
        E 0 80 57 00
        E 0 80 63 00
        E 120 80 19 00
        E 0 90 18 64
        E 0 90 26 64
        E 0 90 40 64
        E 0 90 48 64
        E 0 90 4c 64
        E 0 90 54 64
        E 0 90 58 64
        E 0 90 60 64
        E 0 90 64 64
        E 120 80 18 00
        E 0 80 26 00
        E 0 80 40 00
        E 0 80 48 00
        E 0 80 4c 00
        E 0 80 54 00
        E 0 80 58 00
        E 0 80 60 00
        E 0 80 64 00
        E 0 90 2e 64
        E 0 90 62 64
        E 120 80 2e 00
        E 0 80 62 00
        E 0 90 19 60
        E 120 90 2f 64
        E 0 90 62 64
        E 120 80 19 00
        E 0 80 2f 00
        E 0 80 62 00
        E 0 90 18 64
        E 0 90 2e 64
        E 0 90 3e 64
        E 0 90 4a 64
        E 0 90 54 64
        E 0 90 56 64
        E 0 90 60 64
        E 0 90 62 64
        E 120 80 18 00
        E 0 80 2e 00
        E 0 80 3e 00
        E 0 80 4a 00
        E 0 80 54 00
        E 0 80 56 00
        E 0 80 60 00
        E 0 80 62 00
        E 0 90 31 64
        E 0 90 63 64
        E 120 80 31 00
        E 0 80 63 00
        E 0 90 19 60
        E 120 90 30 64
        E 0 90 63 64
        E 120 80 19 00
        E 0 80 30 00
        E 0 80 63 00
        E 0 90 18 64
        E 0 90 33 64
        E 0 90 4c 64
        E 0 90 54 64
        E 0 90 58 64
        E 0 90 60 64
        E 0 90 64 64
        E 0 90 70 64
        E 120 80 18 00
        E 0 80 33 00
        E 0 80 4c 00
        E 0 80 54 00
        E 0 80 58 00
        E 0 80 60 00
        E 0 80 64 00
        E 0 80 70 00
        E 120 90 19 60
        E 0 90 30 64
        E 0 90 57 64
        E 0 90 63 64
        E 120 80 30 00
        E 0 80 57 00
        E 0 80 63 00
        E 120 80 19 00
        E 0 90 18 64
        E 0 90 26 64
        E 0 90 40 64
        E 0 90 4c 64
        E 0 90 54 64
        E 0 90 58 64
        E 0 90 60 64
        E 0 90 64 64
        E 0 90 78 64
        E 0 90 79 64
        E 0 90 7a 64
        E 0 90 7b 64
        E 0 90 7c 64
        E 120 80 18 00
        E 0 80 26 00
        E 0 80 40 00
        E 0 80 4c 00
        E 0 80 54 00
        E 0 80 58 00
        E 0 80 60 00
        E 0 80 64 00
        E 0 90 2e 64
        E 0 90 62 64
        E 120 80 2e 00
        E 0 80 62 00
        E 0 90 19 60
        E 120 90 2f 64
        E 0 90 62 64
        E 120 80 19 00
        E 0 80 2f 00
        E 0 80 62 00
        E 0 90 18 64
        E 0 90 2e 64
        E 0 90 3e 64
        E 0 90 4a 64
        E 0 90 54 64
        E 0 90 56 64
        E 0 90 60 64
        E 0 90 62 64
        E 120 80 18 00
        E 0 80 2e 00
        E 0 80 3e 00
        E 0 80 4a 00
        E 0 80 54 00
        E 0 80 56 00
        E 0 80 60 00
        E 0 80 62 00
        E 0 90 31 64
        E 0 90 63 64
        E 120 80 31 00
        E 0 80 63 00
        E 0 90 19 60
        E 120 90 30 64
        E 0 90 63 64
        E 120 80 19 00
        E 0 80 30 00
        E 0 80 63 00
        E 0 90 18 64
        E 0 90 33 64
        E 0 90 4c 64
        E 0 90 54 64
        E 0 90 58 64
        E 0 90 60 64
        E 0 90 64 64
        E 0 90 70 64
        E 120 80 18 00
        E 0 80 33 00
        E 0 80 4c 00
        E 0 80 54 00
        E 0 80 58 00
        E 0 80 60 00
        E 0 80 64 00
        E 0 80 70 00
        E 120 90 19 60
        E 0 90 30 64
        E 0 90 57 64
        E 0 90 63 64
        E 120 80 30 00
        E 0 80 57 00
        E 0 80 63 00
        E 120 80 78 00
        E 0 80 79 00
        E 0 80 7a 00
        E 0 80 7b 00
        E 0 80 7c 00
        E 0 80 19 00
        E 0 90 18 64
        E 0 90 26 64
        E 0 90 40 64
        E 0 90 48 64
        E 0 90 4c 64
        E 0 90 54 64
        E 0 90 58 64
        E 0 90 60 64
        E 0 90 64 64
        E 120 80 18 00
        E 0 80 26 00
        E 0 80 40 00
        E 0 80 48 00
        E 0 80 4c 00
        E 0 80 54 00
        E 0 80 58 00
        E 0 80 60 00
        E 0 80 64 00
        E 0 90 2e 64
        E 0 90 62 64
        E 120 80 2e 00
        E 0 80 62 00
        E 0 90 19 60
        E 120 90 2f 64
        E 0 90 62 64
        E 120 80 19 00
        E 0 80 2f 00
        E 0 80 62 00
        E 0 90 18 64
        E 0 90 2e 64
        E 0 90 3e 64
        E 0 90 4a 64
        E 0 90 54 64
        E 0 90 56 64
        E 0 90 60 64
        E 0 90 62 64
        E 120 80 18 00
        E 0 80 2e 00
        E 0 80 3e 00
        E 0 80 4a 00
        E 0 80 54 00
        E 0 80 56 00
        E 0 80 60 00
        E 0 80 62 00
        E 0 90 31 64
        E 0 90 63 64
        E 120 80 31 00
        E 0 80 63 00
        E 0 90 19 60
        E 120 90 30 64
        E 0 90 63 64
        E 120 80 19 00
        E 0 80 30 00
        E 0 80 63 00
        E 0 90 18 64
        E 0 90 33 64
        E 0 90 4c 64
        E 0 90 54 64
        E 0 90 58 64
        E 0 90 60 64
        E 0 90 64 64
        E 0 90 70 64
        E 120 80 18 00
        E 0 80 33 00
        E 0 80 4c 00
        E 0 80 54 00
        E 0 80 58 00
        E 0 80 60 00
        E 0 80 64 00
        E 0 80 70 00
        E 120 90 19 60
        E 0 90 30 64
        E 0 90 57 64
        E 0 90 63 64
        E 120 80 30 00
        E 0 80 57 00
        E 0 80 63 00
        E 120 80 19 00
        E 0 90 18 64
        E 0 90 26 64
        E 0 90 40 64
        E 0 90 4c 64
        E 0 90 54 64
        E 0 90 58 64
        E 0 90 60 64
        E 0 90 64 64
        E 0 90 74 64
        E 120 80 18 00
        E 0 80 26 00
        E 0 80 40 00
        E 0 80 4c 00
        E 0 80 54 00
        E 0 80 58 00
        E 0 80 60 00
        E 0 80 64 00
        E 0 90 2e 64
        E 0 90 62 64
        E 120 80 2e 00
        E 0 80 62 00
        E 0 90 19 60
        E 120 90 2f 64
        E 0 90 62 64
        E 120 80 19 00
        E 0 80 2f 00
        E 0 80 62 00
        E 0 90 18 64
        E 0 90 2e 64
        E 0 90 3e 64
        E 0 90 4a 64
        E 0 90 54 64
        E 0 90 56 64
        E 0 90 60 64
        E 0 90 62 64
        E 120 80 18 00
        E 0 80 2e 00
        E 0 80 3e 00
        E 0 80 4a 00
        E 0 80 54 00
        E 0 80 56 00
        E 0 80 60 00
        E 0 80 62 00
        E 0 90 31 64
        E 0 90 63 64
        E 120 80 31 00
        E 0 80 63 00
        E 0 90 19 60
        E 120 90 30 64
        E 0 90 63 64
        E 120 80 19 00
        E 0 80 30 00
        E 0 80 63 00
        E 0 90 18 64
        E 0 90 33 64
        E 0 90 4c 64
        E 0 90 54 64
        E 0 90 58 64
        E 0 90 60 64
        E 0 90 64 64
        E 0 90 70 64
        E 120 80 18 00
        E 0 80 33 00
        E 0 80 4c 00
        E 0 80 54 00
        E 0 80 58 00
        E 0 80 60 00
        E 0 80 64 00
        E 0 80 70 00
        E 120 90 19 60
        E 0 90 30 64
        E 0 90 57 64
        E 0 90 63 64
        E 120 80 30 00
        E 0 80 57 00
        E 0 80 63 00
        E 120 80 19 00
        E 0 90 18 64
        E 0 90 26 64
        E 0 90 40 64
        E 0 90 48 64
        E 0 90 4c 64
        E 0 90 54 64
        E 0 90 58 64
        E 0 90 60 64
        E 0 90 64 64
        E 60 80 74 00
        E 60 80 18 00
        E 0 80 26 00
        E 0 80 40 00
        E 0 80 48 00
        E 0 80 4c 00
        E 0 80 54 00
        E 0 80 58 00
        E 0 80 60 00
        E 0 80 64 00
        E 0 90 2e 64
        E 0 90 62 64
        E 120 80 2e 00
        E 0 80 62 00
        E 0 90 19 60
        E 120 90 2f 64
        E 0 90 62 64
        E 120 80 19 00
        E 0 80 2f 00
        E 0 80 62 00
        E 0 90 18 64
        E 0 90 2e 64
        E 0 90 3e 64
        E 0 90 4a 64
        E 0 90 54 64
        E 0 90 56 64
        E 0 90 60 64
        E 0 90 62 64
        E 120 80 18 00
        E 0 80 2e 00
        E 0 80 3e 00
        E 0 80 4a 00
        E 0 80 54 00
        E 0 80 56 00
        E 0 80 60 00
        E 0 80 62 00
        E 0 90 31 64
        E 0 90 63 64
        E 120 80 31 00
        E 0 80 63 00
        E 0 90 19 60
        E 120 90 30 64
        E 0 90 63 64
        E 120 80 19 00
        E 0 80 30 00
        E 0 80 63 00
        E 0 90 18 64
        E 0 90 33 64
        E 0 90 4c 64
        E 0 90 54 64
        E 0 90 58 64
        E 0 90 60 64
        E 0 90 64 64
        E 0 90 70 64
        E 120 80 18 00
        E 0 80 33 00
        E 0 80 4c 00
        E 0 80 54 00
        E 0 80 58 00
        E 0 80 60 00
        E 0 80 64 00
        E 0 80 70 00
        E 120 90 19 60
        E 0 90 30 64
        E 0 90 57 64
        E 0 90 63 64
        E 120 80 30 00
        E 0 80 57 00
        E 0 80 63 00
        E 120 80 19 00
        E 0 90 18 64
        E 0 90 26 64
        E 0 90 40 64
        E 0 90 4c 64
        E 0 90 54 64
        E 0 90 58 64
        E 0 90 60 64
        E 0 90 64 64
        E 0 90 78 64
        E 0 90 79 64
        E 0 90 7a 64
        E 0 90 7b 64
        E 0 90 7c 64
        E 120 80 18 00
        E 0 80 26 00
        E 0 80 40 00
        E 0 80 4c 00
        E 0 80 54 00
        E 0 80 58 00
        E 0 80 60 00
        E 0 80 64 00
        E 0 90 2e 64
        E 0 90 62 64
        E 120 80 2e 00
        E 0 80 62 00
        E 0 90 19 60
        E 120 90 2f 64
        E 0 90 62 64
        E 120 80 19 00
        E 0 80 2f 00
        E 0 80 62 00
        E 0 90 18 64
        E 0 90 2e 64
        E 0 90 3e 64
        E 0 90 4a 64
        E 0 90 54 64
        E 0 90 56 64
        E 0 90 60 64
        E 0 90 62 64
        E 120 80 18 00
        E 0 80 2e 00
        E 0 80 3e 00
        E 0 80 4a 00
        E 0 80 54 00
        E 0 80 56 00
        E 0 80 60 00
        E 0 80 62 00
        E 0 90 31 64
        E 0 90 63 64
        E 120 80 31 00
        E 0 80 63 00
        E 0 90 19 60
        E 120 90 30 64
        E 0 90 63 64
        E 120 80 19 00
        E 0 80 30 00
        E 0 80 63 00
        E 0 90 18 64
        E 0 90 33 64
        E 0 90 4c 60
        E 0 90 54 64
        E 0 90 58 64
        E 0 90 60 64
        E 0 90 64 64
        E 0 90 70 64
        E 120 80 18 00
        E 0 80 33 00
        E 0 80 4c 00
        E 0 80 54 00
        E 0 80 58 00
        E 0 80 60 00
        E 0 80 64 00
        E 0 80 70 00
        E 240 80 6e 00
        <X 120 0
          /wFbbWl4IDMgZHJ1bXMwZF0=
        >
        <X 0 0
          /wFbcGxheV0=
        >
        E 0 80 78 00
        E 0 80 79 00
        E 0 80 7a 00
        E 0 80 7b 00
        E 0 80 7c 00
        E 0 90 1d 64
        E 0 90 3d 64
        E 0 90 3e 64
        E 0 90 49 64
        E 0 90 4a 64
        E 0 90 55 64
        E 0 90 56 64
        E 0 90 62 64
        E 120 80 1d 00
        E 0 80 3d 00
        E 0 80 3e 00
        E 0 80 49 00
        E 0 80 4a 00
        E 0 80 55 00
        E 0 80 56 00
        E 0 80 62 00
        E 0 90 1e 64
        E 0 90 61 64
        E 120 80 1e 00
        E 0 80 61 00
        E 0 90 1f 64
        E 0 90 56 64
        E 0 90 61 64
        E 120 80 1f 00
        E 0 80 56 00
        E 0 80 61 00
        E 0 90 1e 64
        E 0 90 61 64
        E 120 80 1e 00
        E 0 80 61 00
        E 0 90 1d 64
        E 0 90 49 64
        E 0 90 4a 64
        E 0 90 55 64
        E 0 90 56 64
        E 0 90 62 64
        E 120 80 1d 00
        E 0 80 49 00
        E 0 80 4a 00
        E 0 80 55 00
        E 0 80 56 00
        E 0 80 62 00
        E 0 90 1e 64
        E 0 90 61 64
        E 120 80 1e 00
        E 0 80 61 00
        E 0 90 1f 64
        E 0 90 56 64
        E 0 90 61 64
        E 120 80 1f 00
        E 0 80 56 00
        E 0 80 61 00
        E 0 90 1e 64
        E 0 90 61 64
        E 120 80 1e 00
        E 0 80 61 00
        E 0 90 1d 64
        E 0 90 49 64
        E 0 90 4a 64
        E 0 90 55 64
        E 0 90 56 64
        E 0 90 62 64
        E 120 80 1d 00
        E 0 80 49 00
        E 0 80 4a 00
        E 0 80 55 00
        E 0 80 56 00
        E 0 80 62 00
        E 0 90 1e 64
        E 0 90 61 64
        E 120 80 1e 00
        E 0 80 61 00
        E 0 90 18 64
        E 0 90 1f 64
        E 0 90 54 64
        E 0 90 56 64
        E 0 90 60 64
        E 0 90 61 64
        E 120 80 18 00
        E 0 80 1f 00
        E 0 80 54 00
        E 0 80 56 00
        E 0 80 60 00
        E 0 80 61 00
        E 0 90 1e 64
        E 0 90 61 64
        E 120 80 1e 00
        E 0 80 61 00
        E 0 90 1d 64
        E 0 90 3d 64
        E 0 90 3e 64
        E 0 90 49 64
        E 0 90 4a 64
        E 0 90 55 64
        E 0 90 56 64
        E 0 90 62 64
        E 120 80 1d 00
        E 0 80 3d 00
        E 0 80 3e 00
        E 0 80 49 00
        E 0 80 4a 00
        E 0 80 55 00
        E 0 80 56 00
        E 0 80 62 00
        E 0 90 1e 64
        E 0 90 61 64
        E 120 80 1e 00
        E 0 80 61 00
        E 0 90 1f 64
        E 0 90 56 64
        E 0 90 61 64
        E 120 80 1f 00
        E 0 80 56 00
        E 0 80 61 00
        E 0 90 1e 64
        E 0 90 61 64
        E 120 80 1e 00
        E 0 80 61 00
        E 0 90 1d 64
        E 0 90 49 64
        E 0 90 4a 64
        E 0 90 55 64
        E 0 90 56 64
        E 0 90 62 64
        E 120 80 1d 00
        E 0 80 49 00
        E 0 80 4a 00
        E 0 80 55 00
        E 0 80 56 00
        E 0 80 62 00
        E 0 90 1e 64
        E 0 90 61 64
        E 120 80 1e 00
        E 0 80 61 00
        E 0 90 1f 64
        E 0 90 56 64
        E 0 90 61 64
        E 120 80 1f 00
        E 0 80 56 00
        E 0 80 61 00
        E 0 90 1e 64
        E 0 90 61 64
        E 120 80 1e 00
        E 0 80 61 00
        E 0 90 1d 64
        E 0 90 49 64
        E 0 90 4a 64
        E 0 90 55 64
        E 0 90 56 64
        E 0 90 62 64
        E 120 80 1d 00
        E 0 80 49 00
        E 0 80 4a 00
        E 0 80 55 00
        E 0 80 56 00
        E 0 80 62 00
        E 0 90 1e 64
        E 0 90 61 64
        E 120 80 1e 00
        E 0 80 61 00
        E 0 90 18 64
        E 0 90 1f 64
        E 0 90 54 64
        E 0 90 56 64
        E 0 90 60 64
        E 0 90 61 64
        E 120 80 18 00
        E 0 80 1f 00
        E 0 80 54 00
        E 0 80 56 00
        E 0 80 60 00
        E 0 80 61 00
        E 0 90 1e 64
        E 0 90 61 64
        E 120 80 1e 00
        E 0 80 61 00
        E 0 90 1d 64
        E 0 90 3d 64
        E 0 90 3e 64
        E 0 90 49 64
        E 0 90 4a 64
        E 0 90 55 64
        E 0 90 56 64
        E 0 90 62 64
        E 120 80 1d 00
        E 0 80 3d 00
        E 0 80 3e 00
        E 0 80 49 00
        E 0 80 4a 00
        E 0 80 55 00
        E 0 80 56 00
        E 0 80 62 00
        E 0 90 1e 64
        E 0 90 61 64
        E 120 80 1e 00
        E 0 80 61 00
        E 0 90 1f 64
        E 0 90 56 64
        E 0 90 61 64
        E 120 80 1f 00
        E 0 80 56 00
        E 0 80 61 00
        E 0 90 1e 64
        E 0 90 61 64
        E 120 80 1e 00
        E 0 80 61 00
        E 0 90 1d 64
        E 0 90 49 64
        E 0 90 4a 64
        E 0 90 55 64
        E 0 90 56 64
        E 0 90 62 64
        E 120 80 1d 00
        E 0 80 49 00
        E 0 80 4a 00
        E 0 80 55 00
        E 0 80 56 00
        E 0 80 62 00
        E 0 90 1e 64
        E 0 90 61 64
        E 120 80 1e 00
        E 0 80 61 00
        E 0 90 1f 64
        E 0 90 56 64
        E 0 90 61 64
        E 120 80 1f 00
        E 0 80 56 00
        E 0 80 61 00
        E 0 90 1e 64
        E 0 90 61 64
        E 120 80 1e 00
        E 0 80 61 00
        E 0 90 1d 64
        E 0 90 49 64
        E 0 90 4a 64
        E 0 90 55 64
        E 0 90 56 64
        E 0 90 62 64
        E 120 80 1d 00
        E 0 80 49 00
        E 0 80 4a 00
        E 0 80 55 00
        E 0 80 56 00
        E 0 80 62 00
        E 0 90 1e 64
        E 0 90 61 64
        E 120 80 1e 00
        E 0 80 61 00
        E 0 90 18 64
        E 0 90 1f 64
        E 0 90 54 64
        E 0 90 56 64
        E 0 90 60 64
        E 0 90 61 64
        E 120 80 18 00
        E 0 80 1f 00
        E 0 80 54 00
        E 0 80 56 00
        E 0 80 60 00
        E 0 80 61 00
        E 0 90 1e 64
        E 0 90 61 64
        E 120 80 1e 00
        E 0 80 61 00
        E 0 90 1d 64
        E 0 90 3d 64
        E 0 90 3e 64
        E 0 90 49 64
        E 0 90 4a 64
        E 0 90 55 64
        E 0 90 56 64
        E 0 90 62 64
        E 0 90 78 64
        E 0 90 79 64
        E 0 90 7a 64
        E 0 90 7b 64
        E 0 90 7c 64
        E 120 80 1d 00
        E 0 80 3d 00
        E 0 80 3e 00
        E 0 80 49 00
        E 0 80 4a 00
        E 0 80 55 00
        E 0 80 56 00
        E 0 80 62 00
        E 0 90 1e 64
        E 0 90 61 64
        E 120 80 1e 00
        E 0 80 61 00
        E 0 90 1f 64
        E 0 90 56 64
        E 0 90 61 64
        E 120 80 1f 00
        E 0 80 56 00
        E 0 80 61 00
        E 0 90 1e 64
        E 0 90 61 64
        E 120 80 1e 00
        E 0 80 61 00
        E 0 90 1d 64
        E 0 90 49 64
        E 0 90 4a 64
        E 0 90 55 64
        E 0 90 56 64
        E 0 90 62 64
        E 120 80 1d 00
        E 0 80 49 00
        E 0 80 4a 00
        E 0 80 55 00
        E 0 80 56 00
        E 0 80 62 00
        E 0 90 1e 64
        E 0 90 61 64
        E 120 80 1e 00
        E 0 80 61 00
        E 0 90 1f 64
        E 0 90 56 64
        E 0 90 61 64
        E 120 80 1f 00
        E 0 80 56 00
        E 0 80 61 00
        E 0 90 1e 64
        E 0 90 61 64
        E 120 80 1e 00
        E 0 80 61 00
        E 0 90 1d 64
        E 0 90 49 64
        E 0 90 4a 64
        E 0 90 55 64
        E 0 90 56 64
        E 0 90 62 64
        E 120 80 1d 00
        E 0 80 49 00
        E 0 80 4a 00
        E 0 80 55 00
        E 0 80 56 00
        E 0 80 62 00
        E 0 90 1e 64
        E 0 90 61 64
        E 120 80 1e 00
        E 0 80 61 00
        E 0 90 18 64
        E 0 90 1f 64
        E 0 90 54 64
        E 0 90 56 64
        E 0 90 60 64
        E 0 90 61 64
        E 120 80 18 00
        E 0 80 1f 00
        E 0 80 54 00
        E 0 80 56 00
        E 0 80 60 00
        E 0 80 61 00
        E 0 90 1e 64
        E 0 90 61 64
        E 120 80 78 00
        E 0 80 79 00
        E 0 80 7a 00
        E 0 80 7b 00
        E 0 80 7c 00
        E 0 80 1e 00
        E 0 80 61 00
        E 0 90 1d 64
        E 0 90 3d 64
        E 0 90 3e 64
        E 0 90 49 64
        E 0 90 4a 64
        E 0 90 55 64
        E 0 90 56 64
        E 0 90 62 64
        E 120 80 1d 00
        E 0 80 3d 00
        E 0 80 3e 00
        E 0 80 49 00
        E 0 80 4a 00
        E 0 80 55 00
        E 0 80 56 00
        E 0 80 62 00
        E 0 90 1e 64
        E 0 90 61 64
        E 120 80 1e 00
        E 0 80 61 00
        E 0 90 1f 64
        E 0 90 56 64
        E 0 90 61 64
        E 120 80 1f 00
        E 0 80 56 00
        E 0 80 61 00
        E 0 90 1e 64
        E 0 90 61 64
        E 120 80 1e 00
        E 0 80 61 00
        E 0 90 1d 64
        E 0 90 49 64
        E 0 90 4a 64
        E 0 90 55 64
        E 0 90 56 64
        E 0 90 62 64
        E 120 80 1d 00
        E 0 80 49 00
        E 0 80 4a 00
        E 0 80 55 00
        E 0 80 56 00
        E 0 80 62 00
        E 0 90 1e 64
        E 0 90 61 64
        E 120 80 1e 00
        E 0 80 61 00
        E 0 90 1f 64
        E 0 90 56 64
        E 0 90 61 64
        E 120 80 1f 00
        E 0 80 56 00
        E 0 80 61 00
        E 0 90 1e 64
        E 0 90 61 64
        E 120 80 1e 00
        E 0 80 61 00
        E 0 90 1d 64
        E 0 90 49 64
        E 0 90 4a 64
        E 0 90 55 64
        E 0 90 56 64
        E 0 90 62 64
        E 120 80 1d 00
        E 0 80 49 00
        E 0 80 4a 00
        E 0 80 55 00
        E 0 80 56 00
        E 0 80 62 00
        E 0 90 1e 64
        E 0 90 61 64
        E 120 80 1e 00
        E 0 80 61 00
        E 0 90 18 64
        E 0 90 1f 64
        E 0 90 54 64
        E 0 90 56 64
        E 0 90 60 64
        E 0 90 61 64
        E 120 80 18 00
        E 0 80 1f 00
        E 0 80 54 00
        E 0 80 56 00
        E 0 80 60 00
        E 0 80 61 00
        E 0 90 1e 64
        E 0 90 61 64
        E 120 80 1e 00
        E 0 80 61 00
        E 0 90 1d 64
        E 0 90 3d 64
        E 0 90 3e 64
        E 0 90 49 64
        E 0 90 4a 64
        E 0 90 55 64
        E 0 90 56 64
        E 0 90 62 64
        E 120 80 1d 00
        E 0 80 3d 00
        E 0 80 3e 00
        E 0 80 49 00
        E 0 80 4a 00
        E 0 80 55 00
        E 0 80 56 00
        E 0 80 62 00
        E 0 90 1e 64
        E 0 90 61 64
        E 120 80 1e 00
        E 0 80 61 00
        E 0 90 1f 64
        E 0 90 56 64
        E 0 90 61 64
        E 120 80 1f 00
        E 0 80 56 00
        E 0 80 61 00
        E 0 90 1e 64
        E 0 90 61 64
        E 120 80 1e 00
        E 0 80 61 00
        E 0 90 1d 64
        E 0 90 49 64
        E 0 90 4a 64
        E 0 90 55 64
        E 0 90 56 64
        E 0 90 62 64
        E 120 80 1d 00
        E 0 80 49 00
        E 0 80 4a 00
        E 0 80 55 00
        E 0 80 56 00
        E 0 80 62 00
        E 0 90 1e 64
        E 0 90 61 64
        E 120 80 1e 00
        E 0 80 61 00
        E 0 90 1f 64
        E 0 90 56 64
        E 0 90 61 64
        E 120 80 1f 00
        E 0 80 56 00
        E 0 80 61 00
        E 0 90 1e 64
        E 0 90 61 64
        E 120 80 1e 00
        E 0 80 61 00
        E 0 90 1d 64
        E 0 90 49 64
        E 0 90 4a 64
        E 0 90 55 64
        E 0 90 56 64
        E 0 90 62 64
        E 120 80 1d 00
        E 0 80 49 00
        E 0 80 4a 00
        E 0 80 55 00
        E 0 80 56 00
        E 0 80 62 00
        E 0 90 1e 64
        E 0 90 61 64
        E 120 80 1e 00
        E 0 80 61 00
        E 0 90 18 64
        E 0 90 1f 64
        E 0 90 54 64
        E 0 90 56 64
        E 0 90 60 64
        E 0 90 61 64
        E 120 80 18 00
        E 0 80 1f 00
        E 0 80 54 00
        E 0 80 56 00
        E 0 80 60 00
        E 0 80 61 00
        E 0 90 1e 64
        E 0 90 61 64
        E 120 80 1e 00
        E 0 80 61 00
        E 0 90 1d 64
        E 0 90 3d 64
        E 0 90 3e 64
        E 0 90 49 64
        E 0 90 4a 64
        E 0 90 55 64
        E 0 90 56 64
        E 0 90 62 64
        E 120 80 1d 00
        E 0 80 3d 00
        E 0 80 3e 00
        E 0 80 49 00
        E 0 80 4a 00
        E 0 80 55 00
        E 0 80 56 00
        E 0 80 62 00
        E 0 90 1e 64
        E 0 90 61 64
        E 120 80 1e 00
        E 0 80 61 00
        E 0 90 1f 64
        E 0 90 56 64
        E 0 90 61 64
        E 120 80 1f 00
        E 0 80 56 00
        E 0 80 61 00
        E 0 90 1e 64
        E 0 90 61 64
        E 120 80 1e 00
        E 0 80 61 00
        E 0 90 1d 64
        E 0 90 49 64
        E 0 90 4a 64
        E 0 90 55 64
        E 0 90 56 64
        E 0 90 62 64
        E 120 80 1d 00
        E 0 80 49 00
        E 0 80 4a 00
        E 0 80 55 00
        E 0 80 56 00
        E 0 80 62 00
        E 0 90 1e 64
        E 0 90 61 64
        E 120 80 1e 00
        E 0 80 61 00
        E 0 90 1f 64
        E 0 90 56 64
        E 0 90 61 64
        E 120 80 1f 00
        E 0 80 56 00
        E 0 80 61 00
        E 0 90 1e 64
        E 0 90 61 64
        E 120 80 1e 00
        E 0 80 61 00
        E 0 90 1d 64
        E 0 90 49 64
        E 0 90 4a 64
        E 0 90 55 64
        E 0 90 56 64
        E 0 90 62 64
        E 120 80 1d 00
        E 0 80 49 00
        E 0 80 4a 00
        E 0 80 55 00
        E 0 80 56 00
        E 0 80 62 00
        E 0 90 1e 64
        E 0 90 61 64
        E 120 80 1e 00
        E 0 80 61 00
        E 0 90 18 64
        E 0 90 1f 64
        E 0 90 54 64
        E 0 90 56 64
        E 0 90 60 64
        E 0 90 61 64
        E 120 80 18 00
        E 0 80 1f 00
        E 0 80 54 00
        E 0 80 56 00
        E 0 80 60 00
        E 0 80 61 00
        <X 120 0
          /wFbbWl4IDMgZHJ1bXMwXQ==
        >
        E 0 90 2f 64
        E 0 90 3e 60
        E 0 90 4a 64
        E 0 90 56 64
        E 0 90 62 64
        E 0 90 6e 64
        E 0 90 78 64
        E 0 90 79 64
        E 0 90 7a 64
        E 0 90 7b 64
        E 0 90 7c 64
        E 120 80 2f 00
        E 0 80 3e 00
        E 0 80 4a 00
        E 0 80 56 00
        E 0 80 62 00
        E 0 90 2e 64
        E 0 90 62 64
        E 120 80 2e 00
        E 0 80 62 00
        E 120 90 2f 64
        E 0 90 62 64
        E 120 80 2f 00
        E 0 80 62 00
        E 0 90 2e 64
        E 0 90 56 64
        E 0 90 62 64
        E 120 80 2e 00
        E 0 80 56 00
        E 0 80 62 00
        E 0 90 31 64
        E 0 90 63 64
        E 120 80 31 00
        E 0 80 63 00
        E 120 90 30 64
        E 0 90 63 64
        E 120 80 30 00
        E 0 80 63 00
        E 0 90 33 64
        E 0 90 4c 64
        E 0 90 58 64
        E 0 90 64 64
        E 0 90 70 64
        E 120 80 33 00
        E 0 80 4c 00
        E 0 80 58 00
        E 0 80 64 00
        E 0 80 70 00
        E 120 90 31 64
        E 0 90 57 64
        E 0 90 63 64
        E 120 80 31 00
        E 0 80 57 00
        E 0 80 63 00
        <X 120 0
          /wFbaW50ZW5zZV0=
        >
        E 0 80 78 00
        E 0 80 79 00
        E 0 80 7a 00
        E 0 80 7b 00
        E 0 80 7c 00
        E 0 90 18 64
        E 0 90 26 64
        E 0 90 40 64
        E 0 90 48 64
        E 0 90 4c 64
        E 0 90 54 64
        E 0 90 58 64
        E 0 90 60 64
        E 0 90 64 64
        E 120 80 18 00
        E 0 80 26 00
        E 0 80 40 00
        E 0 80 48 00
        E 0 80 4c 00
        E 0 80 54 00
        E 0 80 58 00
        E 0 80 60 00
        E 0 80 64 00
        E 120 90 19 60
        E 240 80 19 00
        E 0 90 18 64
        E 0 90 2f 64
        E 0 90 3e 64
        E 0 90 4a 64
        E 0 90 54 64
        E 0 90 56 64
        E 0 90 60 64
        E 0 90 62 64
        E 0 90 74 64
        E 120 80 18 00
        E 0 80 2f 00
        E 0 80 3e 00
        E 0 80 4a 00
        E 0 80 54 00
        E 0 80 56 00
        E 0 80 60 00
        E 0 80 62 00
        E 0 90 2e 64
        E 0 90 62 64
        E 120 80 2e 00
        E 0 80 62 00
        E 0 90 19 60
        E 120 90 30 64
        E 0 90 63 64
        E 120 80 19 00
        E 0 80 30 00
        E 0 80 63 00
        E 0 90 18 64
        E 0 90 33 64
        E 0 90 4c 64
        E 0 90 54 64
        E 0 90 58 64
        E 0 90 60 64
        E 0 90 64 64
        E 0 90 70 64
        E 120 80 18 00
        E 0 80 33 00
        E 0 80 4c 00
        E 0 80 54 00
        E 0 80 58 00
        E 0 80 60 00
        E 0 80 64 00
        E 0 80 70 00
        E 120 90 19 60
        E 0 90 30 64
        E 0 90 57 64
        E 0 90 63 64
        E 120 80 30 00
        E 0 80 57 00
        E 0 80 63 00
        E 120 80 19 00
        E 0 90 18 64
        E 0 90 26 64
        E 0 90 40 64
        E 0 90 4c 64
        E 0 90 54 64
        E 0 90 58 64
        E 0 90 60 64
        E 0 90 64 64
        E 120 80 18 00
        E 0 80 26 00
        E 0 80 40 00
        E 0 80 4c 00
        E 0 80 54 00
        E 0 80 58 00
        E 0 80 60 00
        E 0 80 64 00
        E 0 90 2e 64
        E 0 90 62 64
        E 120 80 2e 00
        E 0 80 62 00
        E 0 90 19 60
        E 120 90 2f 64
        E 0 90 62 64
        E 120 80 19 00
        E 0 80 2f 00
        E 0 80 62 00
        E 0 90 18 64
        E 0 90 2e 64
        E 0 90 3e 64
        E 0 90 4a 64
        E 0 90 54 64
        E 0 90 56 64
        E 0 90 60 64
        E 0 90 62 64
        E 120 80 18 00
        E 0 80 2e 00
        E 0 80 3e 00
        E 0 80 4a 00
        E 0 80 54 00
        E 0 80 56 00
        E 0 80 60 00
        E 0 80 62 00
        E 0 90 31 64
        E 0 90 63 64
        E 120 80 31 00
        E 0 80 63 00
        E 0 90 19 60
        E 120 90 30 64
        E 0 90 63 64
        E 120 80 19 00
        E 0 80 30 00
        E 0 80 63 00
        E 0 90 18 64
        E 0 90 33 64
        E 0 90 4c 64
        E 0 90 54 64
        E 0 90 58 64
        E 0 90 60 64
        E 0 90 64 64
        E 0 90 70 64
        E 120 80 18 00
        E 0 80 33 00
        E 0 80 4c 00
        E 0 80 54 00
        E 0 80 58 00
        E 0 80 60 00
        E 0 80 64 00
        E 0 80 70 00
        E 120 90 19 60
        E 0 90 30 64
        E 0 90 57 64
        E 0 90 63 64
        E 120 80 30 00
        E 0 80 57 00
        E 0 80 63 00
        E 120 80 19 00
        E 0 90 18 64
        E 0 90 26 64
        E 0 90 40 64
        E 0 90 48 64
        E 0 90 4c 64
        E 0 90 54 64
        E 0 90 58 64
        E 0 90 60 64
        E 0 90 64 64
        E 120 80 74 00
        E 0 80 18 00
        E 0 80 26 00
        E 0 80 40 00
        E 0 80 48 00
        E 0 80 4c 00
        E 0 80 54 00
        E 0 80 58 00
        E 0 80 60 00
        E 0 80 64 00
        E 0 90 2e 64
        E 0 90 62 64
        E 120 80 2e 00
        E 0 80 62 00
        E 0 90 19 60
        E 120 90 2f 64
        E 0 90 62 64
        E 120 80 19 00
        E 0 80 2f 00
        E 0 80 62 00
        E 0 90 18 64
        E 0 90 2e 64
        E 0 90 3e 64
        E 0 90 4a 64
        E 0 90 54 64
        E 0 90 56 64
        E 0 90 60 64
        E 0 90 62 64
        E 120 80 18 00
        E 0 80 2e 00
        E 0 80 3e 00
        E 0 80 4a 00
        E 0 80 54 00
        E 0 80 56 00
        E 0 80 60 00
        E 0 80 62 00
        E 0 90 31 64
        E 0 90 63 64
        E 120 80 31 00
        E 0 80 63 00
        E 0 90 19 60
        E 120 90 30 64
        E 0 90 63 64
        E 120 80 19 00
        E 0 80 30 00
        E 0 80 63 00
        E 0 90 18 64
        E 0 90 33 64
        E 0 90 4c 64
        E 0 90 54 64
        E 0 90 58 64
        E 0 90 60 64
        E 0 90 64 64
        E 0 90 70 64
        E 120 80 18 00
        E 0 80 33 00
        E 0 80 4c 00
        E 0 80 54 00
        E 0 80 58 00
        E 0 80 60 00
        E 0 80 64 00
        E 0 80 70 00
        E 120 90 19 60
        E 0 90 30 64
        E 0 90 57 64
        E 0 90 63 64
        E 120 80 30 00
        E 0 80 57 00
        E 0 80 63 00
        E 120 80 19 00
        E 0 90 18 64
        E 0 90 26 64
        E 0 90 40 64
        E 0 90 4c 64
        E 0 90 54 64
        E 0 90 58 64
        E 0 90 60 64
        E 0 90 64 64
        E 0 90 78 64
        E 0 90 79 64
        E 0 90 7a 64
        E 0 90 7b 64
        E 0 90 7c 64
        E 120 80 18 00
        E 0 80 26 00
        E 0 80 40 00
        E 0 80 4c 00
        E 0 80 54 00
        E 0 80 58 00
        E 0 80 60 00
        E 0 80 64 00
        E 0 90 2e 64
        E 0 90 62 64
        E 120 80 2e 00
        E 0 80 62 00
        E 0 90 19 60
        E 120 90 2f 64
        E 0 90 62 64
        E 120 80 19 00
        E 0 80 2f 00
        E 0 80 62 00
        E 0 90 18 64
        E 0 90 2e 64
        E 0 90 3e 64
        E 0 90 4a 64
        E 0 90 54 64
        E 0 90 56 64
        E 0 90 60 64
        E 0 90 62 64
        E 120 80 18 00
        E 0 80 2e 00
        E 0 80 3e 00
        E 0 80 4a 00
        E 0 80 54 00
        E 0 80 56 00
        E 0 80 60 00
        E 0 80 62 00
        E 0 90 31 64
        E 0 90 63 64
        E 120 80 31 00
        E 0 80 63 00
        E 0 90 19 60
        E 120 90 30 64
        E 0 90 63 64
        E 120 80 19 00
        E 0 80 30 00
        E 0 80 63 00
        E 0 90 18 64
        E 0 90 33 64
        E 0 90 4c 64
        E 0 90 54 64
        E 0 90 58 64
        E 0 90 60 64
        E 0 90 64 64
        E 0 90 70 64
        E 120 80 18 00
        E 0 80 33 00
        E 0 80 4c 00
        E 0 80 54 00
        E 0 80 58 00
        E 0 80 60 00
        E 0 80 64 00
        E 0 80 70 00
        E 120 90 19 60
        E 0 90 30 64
        E 0 90 57 64
        E 0 90 63 64
        E 120 80 30 00
        E 0 80 57 00
        E 0 80 63 00
        E 120 80 78 00
        E 0 80 79 00
        E 0 80 7a 00
        E 0 80 7b 00
        E 0 80 7c 00
        E 0 80 19 00
        E 0 90 18 64
        E 0 90 26 64
        E 0 90 40 64
        E 0 90 48 64
        E 0 90 4c 64
        E 0 90 54 64
        E 0 90 58 64
        E 0 90 60 64
        E 0 90 64 64
        E 120 80 18 00
        E 0 80 26 00
        E 0 80 40 00
        E 0 80 48 00
        E 0 80 4c 00
        E 0 80 54 00
        E 0 80 58 00
        E 0 80 60 00
        E 0 80 64 00
        E 0 90 2e 64
        E 0 90 62 64
        E 120 80 2e 00
        E 0 80 62 00
        E 0 90 19 60
        E 120 90 2f 64
        E 0 90 62 64
        E 120 80 19 00
        E 0 80 2f 00
        E 0 80 62 00
        E 0 90 18 64
        E 0 90 2e 64
        E 0 90 3e 64
        E 0 90 4a 64
        E 0 90 54 64
        E 0 90 56 64
        E 0 90 60 64
        E 0 90 62 64
        E 120 80 18 00
        E 0 80 2e 00
        E 0 80 3e 00
        E 0 80 4a 00
        E 0 80 54 00
        E 0 80 56 00
        E 0 80 60 00
        E 0 80 62 00
        E 0 90 31 64
        E 0 90 63 64
        E 120 80 31 00
        E 0 80 63 00
        E 0 90 19 60
        E 120 90 30 64
        E 0 90 63 64
        E 120 80 19 00
        E 0 80 30 00
        E 0 80 63 00
        E 0 90 18 64
        E 0 90 33 64
        E 0 90 4c 64
        E 0 90 54 64
        E 0 90 58 64
        E 0 90 60 64
        E 0 90 64 64
        E 0 90 70 64
        E 120 80 18 00
        E 0 80 33 00
        E 0 80 4c 00
        E 0 80 54 00
        E 0 80 58 00
        E 0 80 60 00
        E 0 80 64 00
        E 0 80 70 00
        E 120 90 19 60
        E 0 90 30 64
        E 0 90 57 64
        E 0 90 63 64
        E 120 80 30 00
        E 0 80 57 00
        E 0 80 63 00
        E 120 80 19 00
        E 0 90 18 64
        E 0 90 26 64
        E 0 90 40 64
        E 0 90 4c 64
        E 0 90 54 64
        E 0 90 58 64
        E 0 90 60 64
        E 0 90 64 64
        E 120 80 18 00
        E 0 80 26 00
        E 0 80 40 00
        E 0 80 4c 00
        E 0 80 54 00
        E 0 80 58 00
        E 0 80 60 00
        E 0 80 64 00
        E 0 90 2e 64
        E 0 90 62 64
        E 120 80 2e 00
        E 0 80 62 00
        E 0 90 19 60
        E 120 90 2f 64
        E 0 90 62 64
        E 120 80 19 00
        E 0 80 2f 00
        E 0 80 62 00
        E 0 90 18 64
        E 0 90 2e 64
        E 0 90 3e 64
        E 0 90 4a 64
        E 0 90 54 64
        E 0 90 56 64
        E 0 90 60 64
        E 0 90 62 64
        E 120 80 18 00
        E 0 80 2e 00
        E 0 80 3e 00
        E 0 80 4a 00
        E 0 80 54 00
        E 0 80 56 00
        E 0 80 60 00
        E 0 80 62 00
        E 0 90 31 64
        E 0 90 63 64
        E 120 80 31 00
        E 0 80 63 00
        E 0 90 19 60
        E 120 90 30 64
        E 0 90 63 64
        E 120 80 19 00
        E 0 80 30 00
        E 0 80 63 00
        E 0 90 18 64
        E 0 90 33 64
        E 0 90 4c 64
        E 0 90 54 64
        E 0 90 58 64
        E 0 90 60 64
        E 0 90 64 64
        E 0 90 70 64
        E 120 80 18 00
        E 0 80 33 00
        E 0 80 4c 00
        E 0 80 54 00
        E 0 80 58 00
        E 0 80 60 00
        E 0 80 64 00
        E 0 80 70 00
        E 120 90 19 60
        E 0 90 30 64
        E 0 90 57 64
        E 0 90 63 64
        E 120 80 30 00
        E 0 80 57 00
        E 0 80 63 00
        E 120 80 19 00
        E 0 90 18 64
        E 0 90 26 64
        E 0 90 40 64
        E 0 90 48 64
        E 0 90 4c 64
        E 0 90 54 64
        E 0 90 58 64
        E 0 90 60 64
        E 0 90 64 64
        E 120 80 18 00
        E 0 80 26 00
        E 0 80 40 00
        E 0 80 48 00
        E 0 80 4c 00
        E 0 80 54 00
        E 0 80 58 00
        E 0 80 60 00
        E 0 80 64 00
        E 0 90 2e 64
        E 0 90 62 64
        E 120 80 2e 00
        E 0 80 62 00
        E 0 90 19 60
        E 120 90 2f 64
        E 0 90 62 64
        E 120 80 19 00
        E 0 80 2f 00
        E 0 80 62 00
        E 0 90 18 64
        E 0 90 2e 64
        E 0 90 3e 64
        E 0 90 4a 64
        E 0 90 54 64
        E 0 90 56 64
        E 0 90 60 64
        E 0 90 62 64
        E 120 80 18 00
        E 0 80 2e 00
        E 0 80 3e 00
        E 0 80 4a 00
        E 0 80 54 00
        E 0 80 56 00
        E 0 80 60 00
        E 0 80 62 00
        E 0 90 31 64
        E 0 90 63 64
        E 120 80 31 00
        E 0 80 63 00
        E 0 90 19 60
        E 120 90 30 64
        E 0 90 63 64
        E 120 80 19 00
        E 0 80 30 00
        E 0 80 63 00
        E 0 90 18 64
        E 0 90 33 64
        E 0 90 4c 64
        E 0 90 54 64
        E 0 90 58 64
        E 0 90 60 64
        E 0 90 64 64
        E 0 90 70 64
        E 120 80 18 00
        E 0 80 33 00
        E 0 80 4c 00
        E 0 80 54 00
        E 0 80 58 00
        E 0 80 60 00
        E 0 80 64 00
        E 0 80 70 00
        E 120 90 19 60
        E 0 90 30 64
        E 0 90 57 64
        E 0 90 63 64
        E 120 80 30 00
        E 0 80 57 00
        E 0 80 63 00
        E 120 80 19 00
        E 0 90 18 64
        E 0 90 26 64
        E 0 90 40 64
        E 0 90 4c 64
        E 0 90 54 64
        E 0 90 58 64
        E 0 90 60 64
        E 0 90 64 64
        E 0 90 78 64
        E 0 90 79 64
        E 0 90 7a 64
        E 0 90 7b 64
        E 0 90 7c 64
        E 120 80 18 00
        E 0 80 26 00
        E 0 80 40 00
        E 0 80 4c 00
        E 0 80 54 00
        E 0 80 58 00
        E 0 80 60 00
        E 0 80 64 00
        E 0 90 2e 64
        E 0 90 62 64
        E 120 80 2e 00
        E 0 80 62 00
        E 0 90 19 60
        E 120 90 2f 64
        E 0 90 62 64
        E 120 80 19 00
        E 0 80 2f 00
        E 0 80 62 00
        E 0 90 18 64
        E 0 90 2e 64
        E 0 90 3e 64
        E 0 90 4a 64
        E 0 90 54 64
        E 0 90 56 64
        E 0 90 60 64
        E 0 90 62 64
        E 120 80 18 00
        E 0 80 2e 00
        E 0 80 3e 00
        E 0 80 4a 00
        E 0 80 54 00
        E 0 80 56 00
        E 0 80 60 00
        E 0 80 62 00
        E 0 90 31 64
        E 0 90 63 64
        E 120 80 31 00
        E 0 80 63 00
        E 0 90 19 60
        E 120 90 30 64
        E 0 90 63 64
        E 120 80 19 00
        E 0 80 30 00
        E 0 80 63 00
        E 0 90 18 64
        E 0 90 33 64
        E 0 90 4c 64
        E 0 90 54 64
        E 0 90 58 64
        E 0 90 60 64
        E 0 90 64 64
        E 0 90 70 64
        E 120 80 18 00
        E 0 80 33 00
        E 0 80 4c 00
        E 0 80 54 00
        E 0 80 58 00
        E 0 80 60 00
        E 0 80 64 00
        E 0 80 70 00
        E 120 90 19 60
        E 240 80 78 00
        E 0 80 79 00
        E 0 80 7a 00
        E 0 80 7b 00
        E 0 80 7c 00
        E 0 80 19 00
        E 0 90 18 64
        E 0 90 3c 64
        E 0 90 48 64
        E 0 90 54 64
        E 0 90 60 64
        E 120 80 18 00
        E 0 80 3c 00
        E 0 80 48 00
        E 0 80 54 00
        E 0 80 60 00
        <X 240 0
          /wFbbWVsbG93XQ==
        >
        E 0 90 56 60
        E 0 90 2f 64
        E 0 90 62 64
        E 120 80 56 00
        E 0 80 2f 00
        E 0 80 62 00
        E 0 90 31 64
        E 0 90 4b 64
        E 0 90 57 64
        E 0 90 63 64
        E 120 80 31 00
        E 0 80 4b 00
        E 0 80 57 00
        E 0 80 63 00
        E 0 90 31 64
        E 0 90 63 64
        E 120 80 31 00
        E 0 80 63 00
        E 240 90 2f 64
        E 0 90 3e 64
        E 0 90 4a 64
        E 0 90 56 64
        E 0 90 62 64
        E 120 80 2f 00
        E 0 80 3e 00
        E 0 80 4a 00
        E 0 80 56 00
        E 0 80 62 00
        E 720 90 56 60
        E 0 90 2f 64
        E 0 90 62 64
        E 120 80 56 00
        E 0 80 2f 00
        E 0 80 62 00
        E 0 90 31 64
        E 0 90 4b 64
        E 0 90 57 64
        E 0 90 63 64
        E 120 80 31 00
        E 0 80 4b 00
        E 0 80 57 00
        E 0 80 63 00
        E 0 90 31 64
        E 0 90 63 64
        E 120 80 31 00
        E 0 80 63 00
        E 240 90 2f 64
        E 0 90 3e 64
        E 0 90 4a 64
        E 0 90 56 64
        E 0 90 62 64
        E 120 80 2f 00
        E 0 80 3e 00
        E 0 80 4a 00
        E 0 80 56 00
        E 0 80 62 00
        E 720 90 56 60
        E 0 90 2f 64
        E 0 90 62 64
        E 120 80 56 00
        E 0 80 2f 00
        E 0 80 62 00
        E 0 90 31 64
        E 0 90 4b 64
        E 0 90 57 64
        E 0 90 63 64
        E 120 80 31 00
        E 0 80 4b 00
        E 0 80 57 00
        E 0 80 63 00
        E 0 90 31 64
        E 0 90 63 64
        E 120 80 31 00
        E 0 80 63 00
        E 240 90 2f 64
        E 0 90 3e 64
        E 0 90 4a 64
        E 0 90 56 64
        E 0 90 62 64
        E 120 80 2f 00
        E 0 80 3e 00
        E 0 80 4a 00
        E 0 80 56 00
        E 0 80 62 00
        E 360 90 78 64
        E 0 90 79 64
        E 0 90 7a 64
        E 0 90 7b 64
        E 0 90 7c 64
        E 360 90 56 60
        E 0 90 2f 64
        E 0 90 62 64
        E 120 80 56 00
        E 0 80 2f 00
        E 0 80 62 00
        E 0 90 31 64
        E 0 90 4b 64
        E 0 90 57 64
        E 0 90 63 64
        E 120 80 31 00
        E 0 80 4b 00
        E 0 80 57 00
        E 0 80 63 00
        E 0 90 31 64
        E 0 90 63 64
        E 120 80 31 00
        E 0 80 63 00
        E 240 90 2f 64
        E 0 90 3e 64
        E 0 90 4a 64
        E 0 90 56 64
        E 0 90 62 64
        E 120 80 2f 00
        E 0 80 3e 00
        E 0 80 4a 00
        E 0 80 56 00
        E 0 80 62 00
        E 360 80 78 00
        E 0 80 79 00
        E 0 80 7a 00
        E 0 80 7b 00
        E 0 80 7c 00
        E 240 90 74 64
        E 120 90 56 60
        E 0 90 2f 64
        E 0 90 62 64
        E 120 80 56 00
        E 0 80 2f 00
        E 0 80 62 00
        E 0 90 31 64
        E 0 90 4b 64
        E 0 90 57 64
        E 0 90 63 64
        E 120 80 31 00
        E 0 80 4b 00
        E 0 80 57 00
        E 0 80 63 00
        E 0 90 31 64
        E 0 90 63 64
        E 120 80 31 00
        E 0 80 63 00
        E 240 90 2f 64
        E 0 90 3e 64
        E 0 90 4a 64
        E 0 90 56 64
        E 0 90 62 64
        E 120 80 2f 00
        E 0 80 3e 00
        E 0 80 4a 00
        E 0 80 56 00
        E 0 80 62 00
        E 720 90 56 60
        E 0 90 2f 64
        E 0 90 62 64
        E 120 80 56 00
        E 0 80 2f 00
        E 0 80 62 00
        E 0 90 31 64
        E 0 90 4b 64
        E 0 90 57 64
        E 0 90 63 64
        E 120 80 31 00
        E 0 80 4b 00
        E 0 80 57 00
        E 0 80 63 00
        E 0 90 31 64
        E 0 90 63 64
        E 120 80 31 00
        E 0 80 63 00
        E 240 90 2f 64
        E 0 90 3e 64
        E 0 90 4a 64
        E 0 90 56 64
        E 0 90 62 64
        E 120 80 2f 00
        E 0 80 3e 00
        E 0 80 4a 00
        E 0 80 56 00
        E 0 80 62 00
        E 360 80 74 00
        E 360 90 56 60
        E 0 90 2f 64
        E 0 90 62 64
        E 120 80 56 00
        E 0 80 2f 00
        E 0 80 62 00
        E 0 90 31 64
        E 0 90 4b 64
        E 0 90 57 64
        E 0 90 63 64
        E 120 80 31 00
        E 0 80 4b 00
        E 0 80 57 00
        E 0 80 63 00
        E 0 90 31 64
        E 0 90 63 64
        E 120 80 31 00
        E 0 80 63 00
        E 240 90 2f 64
        E 0 90 3e 64
        E 0 90 4a 64
        E 0 90 56 64
        E 0 90 62 64
        E 120 80 2f 00
        E 0 80 3e 00
        E 0 80 4a 00
        E 0 80 56 00
        E 0 80 62 00
        E 360 90 78 64
        E 0 90 79 64
        E 0 90 7a 64
        E 0 90 7b 64
        E 0 90 7c 64
        E 360 90 56 60
        E 0 90 2f 64
        E 0 90 62 64
        E 120 80 56 00
        E 0 80 2f 00
        E 0 80 62 00
        E 0 90 31 64
        E 0 90 4b 64
        E 0 90 57 64
        E 0 90 63 64
        E 120 80 31 00
        E 0 80 4b 00
        E 0 80 57 00
        E 0 80 63 00
        E 0 90 31 64
        E 0 90 63 64
        E 120 80 31 00
        E 0 80 63 00
        E 240 90 2f 64
        E 0 90 3e 64
        E 0 90 4a 64
        E 0 90 56 64
        E 0 90 62 64
        E 120 80 2f 00
        E 0 80 3e 00
        E 0 80 4a 00
        E 0 80 56 00
        E 0 80 62 00
        E 360 80 78 00
        E 0 80 79 00
        E 0 80 7a 00
        E 0 80 7b 00
        E 0 80 7c 00
        E 360 90 56 60
        E 0 90 2f 64
        E 0 90 62 64
        E 120 80 56 00
        E 0 80 2f 00
        E 0 80 62 00
        E 0 90 31 64
        E 0 90 4b 64
        E 0 90 57 64
        E 0 90 63 64
        E 120 80 31 00
        E 0 80 4b 00
        E 0 80 57 00
        E 0 80 63 00
        E 0 90 31 64
        E 0 90 63 64
        E 120 80 31 00
        E 0 80 63 00
        E 240 90 2f 64
        E 0 90 3e 64
        E 0 90 4a 64
        E 0 90 56 64
        E 0 90 62 64
        E 120 80 2f 00
        E 0 80 3e 00
        E 0 80 4a 00
        E 0 80 56 00
        E 0 80 62 00
        E 720 90 56 60
        E 0 90 2f 64
        E 0 90 62 64
        E 120 80 56 00
        E 0 80 2f 00
        E 0 80 62 00
        E 0 90 31 64
        E 0 90 4b 64
        E 0 90 57 64
        E 0 90 63 64
        E 120 80 31 00
        E 0 80 4b 00
        E 0 80 57 00
        E 0 80 63 00
        E 0 90 31 64
        E 0 90 63 64
        E 120 80 31 00
        E 0 80 63 00
        E 240 90 2f 64
        E 0 90 3e 64
        E 0 90 4a 64
        E 0 90 56 64
        E 0 90 62 64
        E 120 80 2f 00
        E 0 80 3e 00
        E 0 80 4a 00
        E 0 80 56 00
        E 0 80 62 00
        E 720 90 56 60
        E 0 90 2f 64
        E 0 90 62 64
        E 120 80 56 00
        E 0 80 2f 00
        E 0 80 62 00
        E 0 90 31 64
        E 0 90 4b 64
        E 0 90 57 64
        E 0 90 63 64
        E 120 80 31 00
        E 0 80 4b 00
        E 0 80 57 00
        E 0 80 63 00
        E 0 90 31 64
        E 0 90 63 64
        E 120 80 31 00
        E 0 80 63 00
        E 240 90 2f 64
        E 0 90 3e 64
        E 0 90 4a 64
        E 0 90 56 64
        E 0 90 62 64
        E 120 80 2f 00
        E 0 80 3e 00
        E 0 80 4a 00
        E 0 80 56 00
        E 0 80 62 00
        E 360 90 78 64
        E 0 90 79 64
        E 0 90 7a 64
        E 0 90 7b 64
        E 0 90 7c 64
        E 360 90 56 60
        E 0 90 2f 64
        E 0 90 62 64
        E 120 80 56 00
        E 0 80 2f 00
        E 0 80 62 00
        E 0 90 31 64
        E 0 90 4b 64
        E 0 90 57 64
        E 0 90 63 64
        E 120 80 31 00
        E 0 80 4b 00
        E 0 80 57 00
        E 0 80 63 00
        E 0 90 31 64
        E 0 90 63 64
        E 120 80 31 00
        E 0 80 63 00
        E 240 90 2f 64
        E 0 90 3e 64
        E 0 90 4a 64
        E 0 90 56 64
        E 0 90 62 64
        E 120 80 6e 00
        E 0 80 2f 00
        E 0 80 3e 00
        E 0 80 4a 00
        E 0 80 56 00
        E 0 80 62 00
        <X 360 0
          /wFbbWl4IDMgZHJ1bXMwZF0=
        >
        <X 0 0
          /wFbcGxheV0=
        >
        E 0 80 78 00
        E 0 80 79 00
        E 0 80 7a 00
        E 0 80 7b 00
        E 0 80 7c 00
        E 0 90 1d 64
        E 0 90 3d 64
        E 0 90 3e 64
        E 0 90 49 64
        E 0 90 4a 64
        E 0 90 55 64
        E 0 90 56 64
        E 0 90 62 64
        E 120 80 1d 00
        E 0 80 3d 00
        E 0 80 3e 00
        E 0 80 49 00
        E 0 80 4a 00
        E 0 80 55 00
        E 0 80 56 00
        E 0 80 62 00
        E 0 90 1e 64
        E 0 90 61 64
        E 120 80 1e 00
        E 0 80 61 00
        E 0 90 1f 64
        E 0 90 56 64
        E 0 90 61 64
        E 120 80 1f 00
        E 0 80 56 00
        E 0 80 61 00
        E 0 90 1e 64
        E 0 90 61 64
        E 120 80 1e 00
        E 0 80 61 00
        E 0 90 1d 64
        E 0 90 49 64
        E 0 90 4a 64
        E 0 90 55 64
        E 0 90 56 64
        E 0 90 62 64
        E 120 80 1d 00
        E 0 80 49 00
        E 0 80 4a 00
        E 0 80 55 00
        E 0 80 56 00
        E 0 80 62 00
        E 0 90 1e 64
        E 0 90 61 64
        E 120 80 1e 00
        E 0 80 61 00
        E 0 90 1f 64
        E 0 90 56 64
        E 0 90 61 64
        E 120 80 1f 00
        E 0 80 56 00
        E 0 80 61 00
        E 0 90 1e 64
        E 0 90 61 64
        E 120 80 1e 00
        E 0 80 61 00
        E 0 90 1d 64
        E 0 90 49 64
        E 0 90 4a 64
        E 0 90 55 64
        E 0 90 56 64
        E 0 90 62 64
        E 120 80 1d 00
        E 0 80 49 00
        E 0 80 4a 00
        E 0 80 55 00
        E 0 80 56 00
        E 0 80 62 00
        E 0 90 1e 64
        E 0 90 61 64
        E 120 80 1e 00
        E 0 80 61 00
        E 0 90 18 64
        E 0 90 1f 64
        E 0 90 54 64
        E 0 90 56 64
        E 0 90 60 64
        E 0 90 61 64
        E 120 80 18 00
        E 0 80 1f 00
        E 0 80 54 00
        E 0 80 56 00
        E 0 80 60 00
        E 0 80 61 00
        E 0 90 1e 64
        E 0 90 61 64
        E 120 80 1e 00
        E 0 80 61 00
        E 0 90 1d 64
        E 0 90 3d 64
        E 0 90 3e 64
        E 0 90 49 64
        E 0 90 4a 64
        E 0 90 55 64
        E 0 90 56 64
        E 0 90 62 64
        E 120 80 1d 00
        E 0 80 3d 00
        E 0 80 3e 00
        E 0 80 49 00
        E 0 80 4a 00
        E 0 80 55 00
        E 0 80 56 00
        E 0 80 62 00
        E 0 90 1e 64
        E 0 90 61 64
        E 120 80 1e 00
        E 0 80 61 00
        E 0 90 1f 64
        E 0 90 56 64
        E 0 90 61 64
        E 120 80 1f 00
        E 0 80 56 00
        E 0 80 61 00
        E 0 90 1e 64
        E 0 90 61 64
        E 120 80 1e 00
        E 0 80 61 00
        E 0 90 1d 64
        E 0 90 49 64
        E 0 90 4a 64
        E 0 90 55 64
        E 0 90 56 64
        E 0 90 62 64
        E 120 80 1d 00
        E 0 80 49 00
        E 0 80 4a 00
        E 0 80 55 00
        E 0 80 56 00
        E 0 80 62 00
        E 0 90 1e 64
        E 0 90 61 64
        E 120 80 1e 00
        E 0 80 61 00
        E 0 90 1f 64
        E 0 90 56 64
        E 0 90 61 64
        E 120 80 1f 00
        E 0 80 56 00
        E 0 80 61 00
        E 0 90 1e 64
        E 0 90 61 64
        E 120 80 1e 00
        E 0 80 61 00
        E 0 90 1d 64
        E 0 90 49 64
        E 0 90 4a 64
        E 0 90 55 64
        E 0 90 56 64
        E 0 90 62 64
        E 120 80 1d 00
        E 0 80 49 00
        E 0 80 4a 00
        E 0 80 55 00
        E 0 80 56 00
        E 0 80 62 00
        E 0 90 1e 64
        E 0 90 61 64
        E 120 80 1e 00
        E 0 80 61 00
        E 0 90 18 64
        E 0 90 1f 64
        E 0 90 54 64
        E 0 90 56 64
        E 0 90 60 64
        E 0 90 61 64
        E 120 80 18 00
        E 0 80 1f 00
        E 0 80 54 00
        E 0 80 56 00
        E 0 80 60 00
        E 0 80 61 00
        E 0 90 1e 64
        E 0 90 61 64
        E 120 80 1e 00
        E 0 80 61 00
        E 0 90 1d 64
        E 0 90 3d 64
        E 0 90 3e 64
        E 0 90 49 64
        E 0 90 4a 64
        E 0 90 55 64
        E 0 90 56 64
        E 0 90 62 64
        E 120 80 1d 00
        E 0 80 3d 00
        E 0 80 3e 00
        E 0 80 49 00
        E 0 80 4a 00
        E 0 80 55 00
        E 0 80 56 00
        E 0 80 62 00
        E 0 90 1e 64
        E 0 90 61 64
        E 120 80 1e 00
        E 0 80 61 00
        E 0 90 1f 64
        E 0 90 56 64
        E 0 90 61 64
        E 120 80 1f 00
        E 0 80 56 00
        E 0 80 61 00
        E 0 90 1e 64
        E 0 90 61 64
        E 120 80 1e 00
        E 0 80 61 00
        E 0 90 1d 64
        E 0 90 49 64
        E 0 90 4a 64
        E 0 90 55 64
        E 0 90 56 64
        E 0 90 62 64
        E 120 80 1d 00
        E 0 80 49 00
        E 0 80 4a 00
        E 0 80 55 00
        E 0 80 56 00
        E 0 80 62 00
        E 0 90 1e 64
        E 0 90 61 64
        E 120 80 1e 00
        E 0 80 61 00
        E 0 90 1f 64
        E 0 90 56 64
        E 0 90 61 64
        E 120 80 1f 00
        E 0 80 56 00
        E 0 80 61 00
        E 0 90 1e 64
        E 0 90 61 64
        E 120 80 1e 00
        E 0 80 61 00
        E 0 90 1d 64
        E 0 90 49 64
        E 0 90 4a 64
        E 0 90 55 64
        E 0 90 56 64
        E 0 90 62 64
        E 120 80 1d 00
        E 0 80 49 00
        E 0 80 4a 00
        E 0 80 55 00
        E 0 80 56 00
        E 0 80 62 00
        E 0 90 1e 64
        E 0 90 61 64
        E 120 80 1e 00
        E 0 80 61 00
        E 0 90 18 64
        E 0 90 1f 64
        E 0 90 54 64
        E 0 90 56 64
        E 0 90 60 64
        E 0 90 61 64
        E 120 80 18 00
        E 0 80 1f 00
        E 0 80 54 00
        E 0 80 56 00
        E 0 80 60 00
        E 0 80 61 00
        E 0 90 1e 64
        E 0 90 61 64
        E 120 80 1e 00
        E 0 80 61 00
        E 0 90 1d 64
        E 0 90 3d 64
        E 0 90 3e 64
        E 0 90 49 64
        E 0 90 4a 64
        E 0 90 55 64
        E 0 90 56 64
        E 0 90 62 64
        E 0 90 78 64
        E 0 90 79 64
        E 0 90 7a 64
        E 0 90 7b 64
        E 0 90 7c 64
        E 120 80 1d 00
        E 0 80 3d 00
        E 0 80 3e 00
        E 0 80 49 00
        E 0 80 4a 00
        E 0 80 55 00
        E 0 80 56 00
        E 0 80 62 00
        E 0 90 1e 64
        E 0 90 61 64
        E 120 80 1e 00
        E 0 80 61 00
        E 0 90 1f 64
        E 0 90 56 64
        E 0 90 61 64
        E 120 80 1f 00
        E 0 80 56 00
        E 0 80 61 00
        E 0 90 1e 64
        E 0 90 61 64
        E 120 80 1e 00
        E 0 80 61 00
        E 0 90 1d 64
        E 0 90 49 64
        E 0 90 4a 64
        E 0 90 55 64
        E 0 90 56 64
        E 0 90 62 64
        E 120 80 1d 00
        E 0 80 49 00
        E 0 80 4a 00
        E 0 80 55 00
        E 0 80 56 00
        E 0 80 62 00
        E 0 90 1e 64
        E 0 90 61 64
        E 120 80 1e 00
        E 0 80 61 00
        E 0 90 1f 64
        E 0 90 56 64
        E 0 90 61 64
        E 120 80 1f 00
        E 0 80 56 00
        E 0 80 61 00
        E 0 90 1e 64
        E 0 90 61 64
        E 120 80 1e 00
        E 0 80 61 00
        E 0 90 1d 64
        E 0 90 49 64
        E 0 90 4a 64
        E 0 90 55 64
        E 0 90 56 64
        E 0 90 62 64
        E 120 80 1d 00
        E 0 80 49 00
        E 0 80 4a 00
        E 0 80 55 00
        E 0 80 56 00
        E 0 80 62 00
        E 0 90 1e 64
        E 0 90 61 64
        E 120 80 1e 00
        E 0 80 61 00
        E 0 90 18 64
        E 0 90 1f 64
        E 0 90 54 64
        E 0 90 56 64
        E 0 90 60 64
        E 0 90 61 64
        E 120 80 18 00
        E 0 80 1f 00
        E 0 80 54 00
        E 0 80 56 00
        E 0 80 60 00
        E 0 80 61 00
        E 0 90 1e 64
        E 0 90 61 64
        E 120 80 78 00
        E 0 80 79 00
        E 0 80 7a 00
        E 0 80 7b 00
        E 0 80 7c 00
        E 0 80 1e 00
        E 0 80 61 00
        E 0 90 1d 64
        E 0 90 3d 64
        E 0 90 3e 64
        E 0 90 49 64
        E 0 90 4a 64
        E 0 90 55 64
        E 0 90 56 64
        E 0 90 62 64
        E 0 90 74 64
        E 120 80 1d 00
        E 0 80 3d 00
        E 0 80 3e 00
        E 0 80 49 00
        E 0 80 4a 00
        E 0 80 55 00
        E 0 80 56 00
        E 0 80 62 00
        E 0 90 1e 64
        E 0 90 61 64
        E 120 80 1e 00
        E 0 80 61 00
        E 0 90 1f 64
        E 0 90 56 64
        E 0 90 61 64
        E 120 80 1f 00
        E 0 80 56 00
        E 0 80 61 00
        E 0 90 1e 64
        E 0 90 61 64
        E 120 80 1e 00
        E 0 80 61 00
        E 0 90 1d 64
        E 0 90 49 64
        E 0 90 4a 64
        E 0 90 55 64
        E 0 90 56 64
        E 0 90 62 64
        E 120 80 1d 00
        E 0 80 49 00
        E 0 80 4a 00
        E 0 80 55 00
        E 0 80 56 00
        E 0 80 62 00
        E 0 90 1e 64
        E 0 90 61 64
        E 120 80 1e 00
        E 0 80 61 00
        E 0 90 1f 64
        E 0 90 56 64
        E 0 90 61 64
        E 120 80 1f 00
        E 0 80 56 00
        E 0 80 61 00
        E 0 90 1e 64
        E 0 90 61 64
        E 120 80 1e 00
        E 0 80 61 00
        E 0 90 1d 64
        E 0 90 49 64
        E 0 90 4a 64
        E 0 90 55 64
        E 0 90 56 64
        E 0 90 62 64
        E 120 80 1d 00
        E 0 80 49 00
        E 0 80 4a 00
        E 0 80 55 00
        E 0 80 56 00
        E 0 80 62 00
        E 0 90 1e 64
        E 0 90 61 64
        E 120 80 1e 00
        E 0 80 61 00
        E 0 90 18 64
        E 0 90 1f 64
        E 0 90 54 64
        E 0 90 56 64
        E 0 90 60 64
        E 0 90 61 64
        E 120 80 18 00
        E 0 80 1f 00
        E 0 80 54 00
        E 0 80 56 00
        E 0 80 60 00
        E 0 80 61 00
        E 0 90 1e 64
        E 0 90 61 64
        E 120 80 1e 00
        E 0 80 61 00
        E 0 90 1d 64
        E 0 90 3d 64
        E 0 90 3e 64
        E 0 90 49 64
        E 0 90 4a 64
        E 0 90 55 64
        E 0 90 56 64
        E 0 90 62 64
        E 120 80 1d 00
        E 0 80 3d 00
        E 0 80 3e 00
        E 0 80 49 00
        E 0 80 4a 00
        E 0 80 55 00
        E 0 80 56 00
        E 0 80 62 00
        E 0 90 1e 64
        E 0 90 61 64
        E 120 80 1e 00
        E 0 80 61 00
        E 0 90 1f 64
        E 0 90 56 64
        E 0 90 61 64
        E 120 80 1f 00
        E 0 80 56 00
        E 0 80 61 00
        E 0 90 1e 64
        E 0 90 61 64
        E 120 80 1e 00
        E 0 80 61 00
        E 0 90 1d 64
        E 0 90 49 64
        E 0 90 4a 64
        E 0 90 55 64
        E 0 90 56 64
        E 0 90 62 64
        E 120 80 1d 00
        E 0 80 49 00
        E 0 80 4a 00
        E 0 80 55 00
        E 0 80 56 00
        E 0 80 62 00
        E 0 90 1e 64
        E 0 90 61 64
        E 120 80 1e 00
        E 0 80 61 00
        E 0 90 1f 64
        E 0 90 56 64
        E 0 90 61 64
        E 120 80 1f 00
        E 0 80 56 00
        E 0 80 61 00
        E 0 90 1e 64
        E 0 90 61 64
        E 120 80 1e 00
        E 0 80 61 00
        E 0 90 1d 64
        E 0 90 49 64
        E 0 90 4a 64
        E 0 90 55 64
        E 0 90 56 64
        E 0 90 62 64
        E 120 80 1d 00
        E 0 80 49 00
        E 0 80 4a 00
        E 0 80 55 00
        E 0 80 56 00
        E 0 80 62 00
        E 0 90 1e 64
        E 0 90 61 64
        E 120 80 1e 00
        E 0 80 61 00
        E 0 90 18 64
        E 0 90 1f 64
        E 0 90 54 64
        E 0 90 56 64
        E 0 90 60 64
        E 0 90 61 64
        E 120 80 18 00
        E 0 80 1f 00
        E 0 80 54 00
        E 0 80 56 00
        E 0 80 60 00
        E 0 80 61 00
        E 0 90 1e 64
        E 0 90 61 64
        E 120 80 74 00
        E 0 80 1e 00
        E 0 80 61 00
        E 0 90 1d 64
        E 0 90 3d 64
        E 0 90 3e 64
        E 0 90 49 64
        E 0 90 4a 64
        E 0 90 55 64
        E 0 90 56 64
        E 0 90 62 64
        E 120 80 1d 00
        E 0 80 3d 00
        E 0 80 3e 00
        E 0 80 49 00
        E 0 80 4a 00
        E 0 80 55 00
        E 0 80 56 00
        E 0 80 62 00
        E 0 90 1e 64
        E 0 90 61 64
        E 120 80 1e 00
        E 0 80 61 00
        E 0 90 1f 64
        E 0 90 56 64
        E 0 90 61 64
        E 120 80 1f 00
        E 0 80 56 00
        E 0 80 61 00
        E 0 90 1e 64
        E 0 90 61 64
        E 120 80 1e 00
        E 0 80 61 00
        E 0 90 1d 64
        E 0 90 49 64
        E 0 90 4a 64
        E 0 90 55 64
        E 0 90 56 64
        E 0 90 62 64
        E 120 80 1d 00
        E 0 80 49 00
        E 0 80 4a 00
        E 0 80 55 00
        E 0 80 56 00
        E 0 80 62 00
        E 0 90 1e 64
        E 0 90 61 64
        E 120 80 1e 00
        E 0 80 61 00
        E 0 90 1f 64
        E 0 90 56 64
        E 0 90 61 64
        E 120 80 1f 00
        E 0 80 56 00
        E 0 80 61 00
        E 0 90 1e 64
        E 0 90 61 64
        E 120 80 1e 00
        E 0 80 61 00
        E 0 90 1d 64
        E 0 90 49 64
        E 0 90 4a 64
        E 0 90 55 64
        E 0 90 56 64
        E 0 90 62 64
        E 120 80 1d 00
        E 0 80 49 00
        E 0 80 4a 00
        E 0 80 55 00
        E 0 80 56 00
        E 0 80 62 00
        E 0 90 1e 64
        E 0 90 61 64
        E 120 80 1e 00
        E 0 80 61 00
        E 0 90 18 64
        E 0 90 1f 64
        E 0 90 54 64
        E 0 90 56 64
        E 0 90 60 64
        E 0 90 61 64
        E 120 80 18 00
        E 0 80 1f 00
        E 0 80 54 00
        E 0 80 56 00
        E 0 80 60 00
        E 0 80 61 00
        <X 120 0
          /wFbbWl4IDMgZHJ1bXMwXQ==
        >
        E 0 90 2f 64
        E 0 90 3e 64
        E 0 90 4a 64
        E 0 90 56 64
        E 0 90 62 64
        E 0 90 6e 64
        E 0 90 78 64
        E 0 90 79 64
        E 0 90 7a 64
        E 0 90 7b 64
        E 0 90 7c 64
        E 120 80 2f 00
        E 0 80 3e 00
        E 0 80 4a 00
        E 0 80 56 00
        E 0 80 62 00
        E 0 90 2e 64
        E 0 90 62 64
        E 120 80 2e 00
        E 0 80 62 00
        E 120 90 2f 64
        E 0 90 62 64
        E 120 80 2f 00
        E 0 80 62 00
        E 0 90 2e 64
        E 0 90 56 64
        E 0 90 62 64
        E 120 80 2e 00
        E 0 80 56 00
        E 0 80 62 00
        E 0 90 31 64
        E 0 90 63 64
        E 120 80 31 00
        E 0 80 63 00
        E 120 90 30 64
        E 0 90 63 64
        E 120 80 30 00
        E 0 80 63 00
        E 0 90 33 64
        E 0 90 4c 64
        E 0 90 58 64
        E 0 90 64 64
        E 0 90 70 64
        E 120 80 33 00
        E 0 80 4c 00
        E 0 80 58 00
        E 0 80 64 00
        E 0 80 70 00
        E 120 90 31 64
        E 0 90 57 64
        E 0 90 63 64
        E 120 80 31 00
        E 0 80 57 00
        E 0 80 63 00
        <X 120 0
          /wFbaW50ZW5zZV0=
        >
        E 0 80 78 00
        E 0 80 79 00
        E 0 80 7a 00
        E 0 80 7b 00
        E 0 80 7c 00
        E 0 90 18 64
        E 0 90 26 64
        E 0 90 40 64
        E 0 90 48 64
        E 0 90 4c 64
        E 0 90 54 64
        E 0 90 58 64
        E 0 90 60 64
        E 0 90 64 64
        E 120 80 18 00
        E 0 80 26 00
        E 0 80 40 00
        E 0 80 48 00
        E 0 80 4c 00
        E 0 80 54 00
        E 0 80 58 00
        E 0 80 60 00
        E 0 80 64 00
        E 120 90 19 60
        E 240 80 19 00
        E 0 90 18 64
        E 0 90 2f 64
        E 0 90 3e 64
        E 0 90 4a 64
        E 0 90 54 64
        E 0 90 56 64
        E 0 90 60 64
        E 0 90 62 64
        E 120 80 18 00
        E 0 80 2f 00
        E 0 80 3e 00
        E 0 80 4a 00
        E 0 80 54 00
        E 0 80 56 00
        E 0 80 60 00
        E 0 80 62 00
        E 0 90 2e 64
        E 0 90 62 64
        E 120 80 2e 00
        E 0 80 62 00
        E 0 90 19 60
        E 120 90 30 64
        E 0 90 63 64
        E 120 80 19 00
        E 0 80 30 00
        E 0 80 63 00
        E 0 90 18 64
        E 0 90 33 64
        E 0 90 4c 64
        E 0 90 54 64
        E 0 90 58 64
        E 0 90 60 64
        E 0 90 64 64
        E 0 90 70 64
        E 120 80 18 00
        E 0 80 33 00
        E 0 80 4c 00
        E 0 80 54 00
        E 0 80 58 00
        E 0 80 60 00
        E 0 80 64 00
        E 0 80 70 00
        E 120 90 19 60
        E 0 90 30 64
        E 0 90 57 64
        E 0 90 63 64
        E 120 80 30 00
        E 0 80 57 00
        E 0 80 63 00
        E 120 80 19 00
        E 0 90 18 64
        E 0 90 26 64
        E 0 90 40 64
        E 0 90 4c 64
        E 0 90 54 64
        E 0 90 58 64
        E 0 90 60 64
        E 0 90 64 64
        E 120 80 18 00
        E 0 80 26 00
        E 0 80 40 00
        E 0 80 4c 00
        E 0 80 54 00
        E 0 80 58 00
        E 0 80 60 00
        E 0 80 64 00
        E 0 90 2e 64
        E 0 90 62 64
        E 120 80 2e 00
        E 0 80 62 00
        E 0 90 19 60
        E 120 90 2f 64
        E 0 90 62 64
        E 120 80 19 00
        E 0 80 2f 00
        E 0 80 62 00
        E 0 90 18 64
        E 0 90 2e 64
        E 0 90 3e 64
        E 0 90 4a 64
        E 0 90 54 64
        E 0 90 56 64
        E 0 90 60 64
        E 0 90 62 64
        E 120 80 18 00
        E 0 80 2e 00
        E 0 80 3e 00
        E 0 80 4a 00
        E 0 80 54 00
        E 0 80 56 00
        E 0 80 60 00
        E 0 80 62 00
        E 0 90 31 64
        E 0 90 63 64
        E 120 80 31 00
        E 0 80 63 00
        E 0 90 19 60
        E 120 90 30 64
        E 0 90 63 64
        E 120 80 19 00
        E 0 80 30 00
        E 0 80 63 00
        E 0 90 18 64
        E 0 90 33 64
        E 0 90 4c 64
        E 0 90 54 64
        E 0 90 58 64
        E 0 90 60 64
        E 0 90 64 64
        E 0 90 70 64
        E 120 80 18 00
        E 0 80 33 00
        E 0 80 4c 00
        E 0 80 54 00
        E 0 80 58 00
        E 0 80 60 00
        E 0 80 64 00
        E 0 80 70 00
        E 120 90 19 60
        E 0 90 30 64
        E 0 90 57 64
        E 0 90 63 64
        E 120 80 30 00
        E 0 80 57 00
        E 0 80 63 00
        E 120 80 19 00
        E 0 90 18 64
        E 0 90 26 64
        E 0 90 40 64
        E 0 90 48 64
        E 0 90 4c 64
        E 0 90 54 64
        E 0 90 58 64
        E 0 90 60 64
        E 0 90 64 64
        E 120 80 18 00
        E 0 80 26 00
        E 0 80 40 00
        E 0 80 48 00
        E 0 80 4c 00
        E 0 80 54 00
        E 0 80 58 00
        E 0 80 60 00
        E 0 80 64 00
        E 0 90 2e 64
        E 0 90 62 64
        E 120 80 2e 00
        E 0 80 62 00
        E 0 90 19 60
        E 120 90 2f 64
        E 0 90 62 64
        E 120 80 19 00
        E 0 80 2f 00
        E 0 80 62 00
        E 0 90 18 64
        E 0 90 2e 64
        E 0 90 3e 64
        E 0 90 4a 64
        E 0 90 54 64
        E 0 90 56 64
        E 0 90 60 64
        E 0 90 62 64
        E 120 80 18 00
        E 0 80 2e 00
        E 0 80 3e 00
        E 0 80 4a 00
        E 0 80 54 00
        E 0 80 56 00
        E 0 80 60 00
        E 0 80 62 00
        E 0 90 31 64
        E 0 90 63 64
        E 120 80 31 00
        E 0 80 63 00
        E 0 90 19 60
        E 120 90 30 64
        E 0 90 63 64
        E 120 80 19 00
        E 0 80 30 00
        E 0 80 63 00
        E 0 90 18 64
        E 0 90 33 64
        E 0 90 4c 64
        E 0 90 54 64
        E 0 90 58 64
        E 0 90 60 64
        E 0 90 64 64
        E 0 90 70 64
        E 120 80 18 00
        E 0 80 33 00
        E 0 80 4c 00
        E 0 80 54 00
        E 0 80 58 00
        E 0 80 60 00
        E 0 80 64 00
        E 0 80 70 00
        E 120 90 19 60
        E 0 90 30 64
        E 0 90 57 64
        E 0 90 63 64
        E 120 80 30 00
        E 0 80 57 00
        E 0 80 63 00
        E 120 80 19 00
        E 0 90 18 64
        E 0 90 26 64
        E 0 90 40 64
        E 0 90 4c 64
        E 0 90 54 64
        E 0 90 58 64
        E 0 90 60 64
        E 0 90 64 64
        E 0 90 78 64
        E 0 90 79 64
        E 0 90 7a 64
        E 0 90 7b 64
        E 0 90 7c 64
        E 120 80 18 00
        E 0 80 26 00
        E 0 80 40 00
        E 0 80 4c 00
        E 0 80 54 00
        E 0 80 58 00
        E 0 80 60 00
        E 0 80 64 00
        E 0 90 2e 64
        E 0 90 62 64
        E 120 80 2e 00
        E 0 80 62 00
        E 0 90 19 60
        E 120 90 2f 64
        E 0 90 62 64
        E 120 80 19 00
        E 0 80 2f 00
        E 0 80 62 00
        E 0 90 18 64
        E 0 90 2e 64
        E 0 90 3e 64
        E 0 90 4a 64
        E 0 90 54 64
        E 0 90 56 64
        E 0 90 60 64
        E 0 90 62 64
        E 120 80 18 00
        E 0 80 2e 00
        E 0 80 3e 00
        E 0 80 4a 00
        E 0 80 54 00
        E 0 80 56 00
        E 0 80 60 00
        E 0 80 62 00
        E 0 90 31 64
        E 0 90 63 64
        E 120 80 31 00
        E 0 80 63 00
        E 0 90 19 60
        E 120 90 30 64
        E 0 90 63 64
        E 120 80 19 00
        E 0 80 30 00
        E 0 80 63 00
        E 0 90 18 64
        E 0 90 33 64
        E 0 90 4c 64
        E 0 90 54 64
        E 0 90 58 64
        E 0 90 60 64
        E 0 90 64 64
        E 0 90 70 64
        E 120 80 18 00
        E 0 80 33 00
        E 0 80 4c 00
        E 0 80 54 00
        E 0 80 58 00
        E 0 80 60 00
        E 0 80 64 00
        E 0 80 70 00
        E 120 90 19 60
        E 0 90 30 64
        E 0 90 57 64
        E 0 90 63 64
        E 120 80 30 00
        E 0 80 57 00
        E 0 80 63 00
        E 120 80 78 00
        E 0 80 79 00
        E 0 80 7a 00
        E 0 80 7b 00
        E 0 80 7c 00
        E 0 80 19 00
        E 0 90 18 64
        E 0 90 26 64
        E 0 90 40 64
        E 0 90 48 64
        E 0 90 4c 64
        E 0 90 54 64
        E 0 90 58 64
        E 0 90 60 64
        E 0 90 64 64
        E 120 80 18 00
        E 0 80 26 00
        E 0 80 40 00
        E 0 80 48 00
        E 0 80 4c 00
        E 0 80 54 00
        E 0 80 58 00
        E 0 80 60 00
        E 0 80 64 00
        E 0 90 2e 64
        E 0 90 62 64
        E 120 80 2e 00
        E 0 80 62 00
        E 0 90 19 60
        E 120 90 2f 64
        E 0 90 62 64
        E 120 80 19 00
        E 0 80 2f 00
        E 0 80 62 00
        E 0 90 18 64
        E 0 90 2e 64
        E 0 90 3e 64
        E 0 90 4a 64
        E 0 90 54 64
        E 0 90 56 64
        E 0 90 60 64
        E 0 90 62 64
        E 120 80 18 00
        E 0 80 2e 00
        E 0 80 3e 00
        E 0 80 4a 00
        E 0 80 54 00
        E 0 80 56 00
        E 0 80 60 00
        E 0 80 62 00
        E 0 90 31 64
        E 0 90 63 64
        E 120 80 31 00
        E 0 80 63 00
        E 0 90 19 60
        E 120 90 30 64
        E 0 90 63 64
        E 120 80 19 00
        E 0 80 30 00
        E 0 80 63 00
        E 0 90 18 64
        E 0 90 33 64
        E 0 90 4c 64
        E 0 90 54 64
        E 0 90 58 64
        E 0 90 60 64
        E 0 90 64 64
        E 0 90 70 64
        E 120 80 18 00
        E 0 80 33 00
        E 0 80 4c 00
        E 0 80 54 00
        E 0 80 58 00
        E 0 80 60 00
        E 0 80 64 00
        E 0 80 70 00
        E 120 90 19 60
        E 0 90 30 64
        E 0 90 57 64
        E 0 90 63 64
        E 120 80 30 00
        E 0 80 57 00
        E 0 80 63 00
        E 120 80 19 00
        E 0 90 18 64
        E 0 90 26 64
        E 0 90 40 64
        E 0 90 4c 64
        E 0 90 54 64
        E 0 90 58 64
        E 0 90 60 64
        E 0 90 64 64
        E 120 80 18 00
        E 0 80 26 00
        E 0 80 40 00
        E 0 80 4c 00
        E 0 80 54 00
        E 0 80 58 00
        E 0 80 60 00
        E 0 80 64 00
        E 0 90 2e 64
        E 0 90 62 64
        E 120 80 2e 00
        E 0 80 62 00
        E 0 90 19 60
        E 120 90 2f 64
        E 0 90 62 64
        E 120 80 19 00
        E 0 80 2f 00
        E 0 80 62 00
        E 0 90 18 64
        E 0 90 2e 64
        E 0 90 3e 64
        E 0 90 4a 64
        E 0 90 54 64
        E 0 90 56 64
        E 0 90 60 64
        E 0 90 62 64
        E 120 80 18 00
        E 0 80 2e 00
        E 0 80 3e 00
        E 0 80 4a 00
        E 0 80 54 00
        E 0 80 56 00
        E 0 80 60 00
        E 0 80 62 00
        E 0 90 31 64
        E 0 90 63 64
        E 120 80 31 00
        E 0 80 63 00
        E 0 90 19 60
        E 120 90 30 64
        E 0 90 63 64
        E 120 80 19 00
        E 0 80 30 00
        E 0 80 63 00
        E 0 90 18 64
        E 0 90 33 64
        E 0 90 4c 64
        E 0 90 54 64
        E 0 90 58 64
        E 0 90 60 64
        E 0 90 64 64
        E 0 90 70 64
        E 120 80 18 00
        E 0 80 33 00
        E 0 80 4c 00
        E 0 80 54 00
        E 0 80 58 00
        E 0 80 60 00
        E 0 80 64 00
        E 0 80 70 00
        E 120 90 19 60
        E 0 90 30 64
        E 0 90 57 64
        E 0 90 63 64
        E 120 80 30 00
        E 0 80 57 00
        E 0 80 63 00
        E 120 80 19 00
        E 0 90 18 64
        E 0 90 26 64
        E 0 90 40 64
        E 0 90 48 64
        E 0 90 4c 64
        E 0 90 54 64
        E 0 90 58 64
        E 0 90 60 64
        E 0 90 64 64
        E 0 90 78 64
        E 0 90 79 64
        E 0 90 7a 64
        E 0 90 7b 64
        E 0 90 7c 64
        E 120 80 18 00
        E 0 80 26 00
        E 0 80 40 00
        E 0 80 48 00
        E 0 80 4c 00
        E 0 80 54 00
        E 0 80 58 00
        E 0 80 60 00
        E 0 80 64 00
        E 0 90 2e 64
        E 0 90 62 64
        E 120 80 2e 00
        E 0 80 62 00
        E 0 90 19 60
        E 120 90 2f 64
        E 0 90 62 64
        E 120 80 19 00
        E 0 80 2f 00
        E 0 80 62 00
        E 0 90 18 64
        E 0 90 2e 64
        E 0 90 3e 64
        E 0 90 4a 64
        E 0 90 54 64
        E 0 90 56 64
        E 0 90 60 64
        E 0 90 62 64
        E 120 80 18 00
        E 0 80 2e 00
        E 0 80 3e 00
        E 0 80 4a 00
        E 0 80 54 00
        E 0 80 56 00
        E 0 80 60 00
        E 0 80 62 00
        E 0 90 31 64
        E 0 90 63 64
        E 120 80 31 00
        E 0 80 63 00
        E 0 90 19 60
        E 120 90 30 64
        E 0 90 63 64
        E 120 80 19 00
        E 0 80 30 00
        E 0 80 63 00
        E 0 90 18 64
        E 0 90 33 64
        E 0 90 4c 64
        E 0 90 54 64
        E 0 90 58 64
        E 0 90 60 64
        E 0 90 64 64
        E 0 90 70 64
        E 120 80 18 00
        E 0 80 33 00
        E 0 80 4c 00
        E 0 80 54 00
        E 0 80 58 00
        E 0 80 60 00
        E 0 80 64 00
        E 0 80 70 00
        E 120 90 19 60
        E 0 90 30 64
        E 0 90 57 64
        E 0 90 63 64
        E 120 80 30 00
        E 0 80 57 00
        E 0 80 63 00
        E 120 80 78 00
        E 0 80 79 00
        E 0 80 7a 00
        E 0 80 7b 00
        E 0 80 7c 00
        E 0 80 19 00
        E 0 90 18 64
        E 0 90 26 64
        E 0 90 40 64
        E 0 90 48 60
        E 0 90 4c 64
        E 0 90 54 64
        E 0 90 58 64
        E 0 90 60 64
        E 0 90 64 64
        E 0 90 74 64
        E 120 80 18 00
        E 0 80 26 00
        E 0 80 40 00
        E 0 80 48 00
        E 0 80 4c 00
        E 0 80 54 00
        E 0 80 58 00
        E 0 80 60 00
        E 0 80 64 00
        E 0 90 2e 64
        E 0 90 62 64
        E 120 80 2e 00
        E 0 80 62 00
        E 0 90 19 60
        E 120 90 2f 64
        E 0 90 62 64
        E 120 80 19 00
        E 0 80 2f 00
        E 0 80 62 00
        E 0 90 18 64
        E 0 90 2e 64
        E 0 90 3e 64
        E 0 90 4a 64
        E 0 90 54 64
        E 0 90 56 64
        E 0 90 60 64
        E 0 90 62 64
        E 120 80 18 00
        E 0 80 2e 00
        E 0 80 3e 00
        E 0 80 4a 00
        E 0 80 54 00
        E 0 80 56 00
        E 0 80 60 00
        E 0 80 62 00
        E 0 90 31 64
        E 0 90 63 64
        E 120 80 31 00
        E 0 80 63 00
        E 0 90 19 60
        E 120 90 30 64
        E 0 90 63 64
        E 120 80 19 00
        E 0 80 30 00
        E 0 80 63 00
        E 0 90 18 64
        E 0 90 33 64
        E 0 90 4c 64
        E 0 90 54 64
        E 0 90 58 64
        E 0 90 60 64
        E 0 90 64 64
        E 0 90 70 64
        E 120 80 18 00
        E 0 80 33 00
        E 0 80 4c 00
        E 0 80 54 00
        E 0 80 58 00
        E 0 80 60 00
        E 0 80 64 00
        E 0 80 70 00
        E 120 90 19 60
        E 0 90 30 64
        E 0 90 57 64
        E 0 90 63 64
        E 120 80 30 00
        E 0 80 57 00
        E 0 80 63 00
        E 120 80 19 00
        E 0 90 18 64
        E 0 90 26 64
        E 0 90 40 64
        E 0 90 4c 64
        E 0 90 54 64
        E 0 90 58 64
        E 0 90 60 64
        E 0 90 64 64
        E 120 80 74 00
        E 0 80 18 00
        E 0 80 26 00
        E 0 80 40 00
        E 0 80 4c 00
        E 0 80 54 00
        E 0 80 58 00
        E 0 80 60 00
        E 0 80 64 00
        E 0 90 2e 64
        E 0 90 62 64
        E 120 80 2e 00
        E 0 80 62 00
        E 0 90 19 60
        E 120 90 2f 64
        E 0 90 62 64
        E 120 80 19 00
        E 0 80 2f 00
        E 0 80 62 00
        E 0 90 18 64
        E 0 90 2e 64
        E 0 90 3e 64
        E 0 90 4a 64
        E 0 90 54 64
        E 0 90 56 64
        E 0 90 60 64
        E 0 90 62 64
        E 120 80 18 00
        E 0 80 2e 00
        E 0 80 3e 00
        E 0 80 4a 00
        E 0 80 54 00
        E 0 80 56 00
        E 0 80 60 00
        E 0 80 62 00
        E 0 90 31 64
        E 0 90 63 64
        E 120 80 31 00
        E 0 80 63 00
        E 0 90 19 60
        E 120 90 30 64
        E 0 90 63 64
        E 120 80 19 00
        E 0 80 30 00
        E 0 80 63 00
        E 0 90 18 64
        E 0 90 33 64
        E 0 90 4c 64
        E 0 90 54 64
        E 0 90 58 64
        E 0 90 60 64
        E 0 90 64 64
        E 0 90 70 64
        E 120 80 18 00
        E 0 80 33 00
        E 0 80 4c 00
        E 0 80 54 00
        E 0 80 58 00
        E 0 80 60 00
        E 0 80 64 00
        E 0 80 70 00
        E 120 90 19 60
        E 0 90 30 64
        E 0 90 57 64
        E 0 90 63 64
        E 120 80 30 00
        E 0 80 57 00
        E 0 80 63 00
        E 120 80 19 00
        E 0 90 18 64
        E 0 90 26 64
        E 0 90 40 64
        E 0 90 48 60
        E 0 90 4c 64
        E 0 90 54 64
        E 0 90 58 64
        E 0 90 60 64
        E 0 90 64 64
        E 120 80 18 00
        E 0 80 26 00
        E 0 80 40 00
        E 0 80 48 00
        E 0 80 4c 00
        E 0 80 54 00
        E 0 80 58 00
        E 0 80 60 00
        E 0 80 64 00
        E 0 90 2e 64
        E 0 90 62 64
        E 120 80 2e 00
        E 0 80 62 00
        E 0 90 19 60
        E 120 90 2f 64
        E 0 90 62 64
        E 120 80 19 00
        E 0 80 2f 00
        E 0 80 62 00
        E 0 90 18 64
        E 0 90 2e 64
        E 0 90 3e 64
        E 0 90 4a 64
        E 0 90 54 64
        E 0 90 56 64
        E 0 90 60 64
        E 0 90 62 64
        E 120 80 18 00
        E 0 80 2e 00
        E 0 80 3e 00
        E 0 80 4a 00
        E 0 80 54 00
        E 0 80 56 00
        E 0 80 60 00
        E 0 80 62 00
        E 0 90 31 64
        E 0 90 63 64
        E 120 80 31 00
        E 0 80 63 00
        E 0 90 19 60
        E 120 90 30 64
        E 0 90 63 64
        E 120 80 19 00
        E 0 80 30 00
        E 0 80 63 00
        E 0 90 18 64
        E 0 90 33 64
        E 0 90 4c 64
        E 0 90 54 64
        E 0 90 58 64
        E 0 90 60 64
        E 0 90 64 64
        E 0 90 70 64
        E 120 80 18 00
        E 0 80 33 00
        E 0 80 4c 00
        E 0 80 54 00
        E 0 80 58 00
        E 0 80 60 00
        E 0 80 64 00
        E 0 80 70 00
        E 120 90 19 60
        E 0 90 30 64
        E 0 90 57 64
        E 0 90 63 64
        E 120 80 30 00
        E 0 80 57 00
        E 0 80 63 00
        E 120 80 19 00
        E 0 90 18 64
        E 0 90 26 64
        E 0 90 40 64
        E 0 90 4c 64
        E 0 90 54 64
        E 0 90 58 64
        E 0 90 60 64
        E 0 90 64 64
        E 0 90 78 64
        E 0 90 79 64
        E 0 90 7a 64
        E 0 90 7b 64
        E 0 90 7c 64
        E 120 80 18 00
        E 0 80 26 00
        E 0 80 40 00
        E 0 80 4c 00
        E 0 80 54 00
        E 0 80 58 00
        E 0 80 60 00
        E 0 80 64 00
        E 0 90 2e 64
        E 0 90 62 64
        E 120 80 2e 00
        E 0 80 62 00
        E 0 90 19 60
        E 120 90 2f 64
        E 0 90 62 64
        E 120 80 19 00
        E 0 80 2f 00
        E 0 80 62 00
        E 0 90 18 64
        E 0 90 2e 64
        E 0 90 3e 64
        E 0 90 4a 64
        E 0 90 54 64
        E 0 90 56 64
        E 0 90 60 64
        E 0 90 62 64
        E 120 80 18 00
        E 0 80 2e 00
        E 0 80 3e 00
        E 0 80 4a 00
        E 0 80 54 00
        E 0 80 56 00
        E 0 80 60 00
        E 0 80 62 00
        E 0 90 31 64
        E 0 90 63 64
        E 120 80 31 00
        E 0 80 63 00
        E 0 90 19 60
        E 120 90 30 64
        E 0 90 63 64
        E 120 80 19 00
        E 0 80 30 00
        E 0 80 63 00
        E 0 90 18 64
        E 0 90 33 64
        E 0 90 4c 64
        E 0 90 54 64
        E 0 90 58 64
        E 0 90 60 64
        E 0 90 64 64
        E 0 90 70 64
        E 120 80 18 00
        E 0 80 33 00
        E 0 80 4c 00
        E 0 80 54 00
        E 0 80 58 00
        E 0 80 60 00
        E 0 80 64 00
        E 0 80 70 00
        E 120 90 19 60
        E 0 90 30 64
        E 0 90 57 64
        E 0 90 63 64
        E 120 80 30 00
        E 0 80 57 00
        E 0 80 63 00
        E 120 80 78 00
        E 0 80 79 00
        E 0 80 7a 00
        E 0 80 7b 00
        E 0 80 7c 00
        E 0 80 19 00
        E 0 90 18 64
        E 0 90 26 64
        E 0 90 40 64
        E 0 90 48 60
        E 0 90 4c 64
        E 0 90 54 64
        E 0 90 58 64
        E 0 90 60 64
        E 0 90 64 64
        E 120 80 18 00
        E 0 80 26 00
        E 0 80 40 00
        E 0 80 48 00
        E 0 80 4c 00
        E 0 80 54 00
        E 0 80 58 00
        E 0 80 60 00
        E 0 80 64 00
        E 0 90 2e 64
        E 0 90 62 64
        E 120 80 2e 00
        E 0 80 62 00
        E 0 90 19 60
        E 120 90 2f 64
        E 0 90 62 64
        E 120 80 19 00
        E 0 80 2f 00
        E 0 80 62 00
        E 0 90 18 64
        E 0 90 2e 64
        E 0 90 3e 64
        E 0 90 4a 64
        E 0 90 54 64
        E 0 90 56 64
        E 0 90 60 64
        E 0 90 62 64
        E 120 80 18 00
        E 0 80 2e 00
        E 0 80 3e 00
        E 0 80 4a 00
        E 0 80 54 00
        E 0 80 56 00
        E 0 80 60 00
        E 0 80 62 00
        E 0 90 31 64
        E 0 90 63 64
        E 120 80 31 00
        E 0 80 63 00
        E 0 90 19 60
        E 120 90 30 64
        E 0 90 63 64
        E 120 80 19 00
        E 0 80 30 00
        E 0 80 63 00
        E 0 90 18 64
        E 0 90 33 64
        E 0 90 4c 64
        E 0 90 54 64
        E 0 90 58 64
        E 0 90 60 64
        E 0 90 64 64
        E 0 90 70 64
        E 120 80 18 00
        E 0 80 33 00
        E 0 80 4c 00
        E 0 80 54 00
        E 0 80 58 00
        E 0 80 60 00
        E 0 80 64 00
        E 0 80 70 00
        E 120 90 19 60
        E 0 90 30 64
        E 0 90 57 64
        E 0 90 63 64
        E 120 80 30 00
        E 0 80 57 00
        E 0 80 63 00
        E 120 80 19 00
        E 0 90 18 64
        E 0 90 26 64
        E 0 90 40 64
        E 0 90 4c 64
        E 0 90 54 64
        E 0 90 58 64
        E 0 90 60 64
        E 0 90 64 64
        E 120 80 18 00
        E 0 80 26 00
        E 0 80 40 00
        E 0 80 4c 00
        E 0 80 54 00
        E 0 80 58 00
        E 0 80 60 00
        E 0 80 64 00
        E 0 90 2e 64
        E 0 90 62 64
        E 120 80 2e 00
        E 0 80 62 00
        E 0 90 19 60
        E 120 90 2f 64
        E 0 90 62 64
        E 120 80 19 00
        E 0 80 2f 00
        E 0 80 62 00
        E 0 90 18 64
        E 0 90 2e 64
        E 0 90 3e 64
        E 0 90 4a 64
        E 0 90 54 64
        E 0 90 56 64
        E 0 90 60 64
        E 0 90 62 64
        E 120 80 18 00
        E 0 80 2e 00
        E 0 80 3e 00
        E 0 80 4a 00
        E 0 80 54 00
        E 0 80 56 00
        E 0 80 60 00
        E 0 80 62 00
        E 0 90 31 64
        E 0 90 63 64
        E 120 80 31 00
        E 0 80 63 00
        E 0 90 19 60
        E 120 90 30 64
        E 0 90 63 64
        E 120 80 19 00
        E 0 80 30 00
        E 0 80 63 00
        E 0 90 18 64
        E 0 90 33 64
        E 0 90 4c 64
        E 0 90 54 64
        E 0 90 58 64
        E 0 90 60 64
        E 0 90 64 64
        E 0 90 70 64
        E 120 80 18 00
        E 0 80 33 00
        E 0 80 4c 00
        E 0 80 54 00
        E 0 80 58 00
        E 0 80 60 00
        E 0 80 64 00
        E 0 80 70 00
        E 120 90 19 60
        E 0 90 30 64
        E 0 90 57 64
        E 0 90 63 64
        E 120 80 30 00
        E 0 80 57 00
        E 0 80 63 00
        E 120 80 19 00
        E 0 90 18 64
        E 0 90 26 64
        E 0 90 40 64
        E 0 90 48 60
        E 0 90 4c 64
        E 0 90 54 64
        E 0 90 58 64
        E 0 90 60 64
        E 0 90 64 64
        E 0 90 78 64
        E 0 90 79 64
        E 0 90 7a 64
        E 0 90 7b 64
        E 0 90 7c 64
        E 120 80 18 00
        E 0 80 26 00
        E 0 80 40 00
        E 0 80 48 00
        E 0 80 4c 00
        E 0 80 54 00
        E 0 80 58 00
        E 0 80 60 00
        E 0 80 64 00
        E 0 90 2e 64
        E 0 90 62 64
        E 120 80 2e 00
        E 0 80 62 00
        E 0 90 19 60
        E 120 90 2f 64
        E 0 90 62 64
        E 120 80 19 00
        E 0 80 2f 00
        E 0 80 62 00
        E 0 90 18 64
        E 0 90 2e 64
        E 0 90 3e 64
        E 0 90 4a 64
        E 0 90 54 64
        E 0 90 56 64
        E 0 90 60 64
        E 0 90 62 64
        E 120 80 18 00
        E 0 80 2e 00
        E 0 80 3e 00
        E 0 80 4a 00
        E 0 80 54 00
        E 0 80 56 00
        E 0 80 60 00
        E 0 80 62 00
        E 0 90 31 64
        E 0 90 63 64
        E 120 80 31 00
        E 0 80 63 00
        E 0 90 19 60
        E 120 90 30 64
        E 0 90 63 64
        E 120 80 19 00
        E 0 80 30 00
        E 0 80 63 00
        E 0 90 18 64
        E 0 90 33 64
        E 0 90 4c 64
        E 0 90 54 64
        E 0 90 58 64
        E 0 90 60 64
        E 0 90 64 64
        E 0 90 70 64
        E 120 80 18 00
        E 0 80 33 00
        E 0 80 4c 00
        E 0 80 54 00
        E 0 80 58 00
        E 0 80 60 00
        E 0 80 64 00
        E 0 80 70 00
        E 120 90 19 60
        E 0 90 30 64
        E 0 90 57 64
        E 0 90 63 64
        E 120 80 30 00
        E 0 80 57 00
        E 0 80 63 00
        E 120 80 78 00
        E 0 80 79 00
        E 0 80 7a 00
        E 0 80 7b 00
        E 0 80 7c 00
        E 0 80 19 00
        E 0 90 18 64
        E 0 90 26 64
        E 0 90 40 64
        E 0 90 48 64
        E 0 90 4c 64
        E 0 90 54 64
        E 0 90 58 64
        E 0 90 60 64
        E 0 90 64 64
        E 120 80 18 00
        E 0 80 26 00
        E 0 80 40 00
        E 0 80 48 00
        E 0 80 4c 00
        E 0 80 54 00
        E 0 80 58 00
        E 0 80 60 00
        E 0 80 64 00
        E 0 90 2e 64
        E 0 90 62 64
        E 120 80 2e 00
        E 0 80 62 00
        E 0 90 19 60
        E 120 90 2f 64
        E 0 90 62 64
        E 120 80 19 00
        E 0 80 2f 00
        E 0 80 62 00
        E 0 90 18 64
        E 0 90 2e 64
        E 0 90 3e 64
        E 0 90 4a 64
        E 0 90 54 64
        E 0 90 56 64
        E 0 90 60 64
        E 0 90 62 64
        E 120 80 18 00
        E 0 80 2e 00
        E 0 80 3e 00
        E 0 80 4a 00
        E 0 80 54 00
        E 0 80 56 00
        E 0 80 60 00
        E 0 80 62 00
        E 0 90 31 64
        E 0 90 63 64
        E 120 80 31 00
        E 0 80 63 00
        E 0 90 19 60
        E 120 90 30 64
        E 0 90 63 64
        E 120 80 19 00
        E 0 80 30 00
        E 0 80 63 00
        E 0 90 18 64
        E 0 90 33 64
        E 0 90 4c 64
        E 0 90 54 64
        E 0 90 58 64
        E 0 90 60 64
        E 0 90 64 64
        E 0 90 70 64
        E 120 80 18 00
        E 0 80 33 00
        E 0 80 4c 00
        E 0 80 54 00
        E 0 80 58 00
        E 0 80 60 00
        E 0 80 64 00
        E 0 80 70 00
        E 120 90 19 60
        E 0 90 30 64
        E 0 90 57 64
        E 0 90 63 64
        E 120 80 30 00
        E 0 80 57 00
        E 0 80 63 00
        E 120 80 19 00
        E 0 90 18 64
        E 0 90 26 64
        E 0 90 40 64
        E 0 90 4c 64
        E 0 90 54 64
        E 0 90 58 64
        E 0 90 60 64
        E 0 90 64 64
        E 0 90 74 64
        E 120 80 18 00
        E 0 80 26 00
        E 0 80 40 00
        E 0 80 4c 00
        E 0 80 54 00
        E 0 80 58 00
        E 0 80 60 00
        E 0 80 64 00
        E 0 90 2e 64
        E 0 90 62 64
        E 120 80 2e 00
        E 0 80 62 00
        E 0 90 19 60
        E 120 90 2f 64
        E 0 90 62 64
        E 120 80 19 00
        E 0 80 2f 00
        E 0 80 62 00
        E 0 90 18 64
        E 0 90 2e 64
        E 0 90 3e 64
        E 0 90 4a 64
        E 0 90 54 64
        E 0 90 56 64
        E 0 90 60 64
        E 0 90 62 64
        E 120 80 18 00
        E 0 80 2e 00
        E 0 80 3e 00
        E 0 80 4a 00
        E 0 80 54 00
        E 0 80 56 00
        E 0 80 60 00
        E 0 80 62 00
        E 0 90 31 64
        E 0 90 63 64
        E 120 80 31 00
        E 0 80 63 00
        E 0 90 19 60
        E 120 90 30 64
        E 0 90 63 64
        E 120 80 19 00
        E 0 80 30 00
        E 0 80 63 00
        E 0 90 18 64
        E 0 90 33 64
        E 0 90 4c 64
        E 0 90 54 64
        E 0 90 58 64
        E 0 90 60 64
        E 0 90 64 64
        E 0 90 70 64
        E 120 80 18 00
        E 0 80 33 00
        E 0 80 4c 00
        E 0 80 54 00
        E 0 80 58 00
        E 0 80 60 00
        E 0 80 64 00
        E 0 80 70 00
        E 120 90 19 60
        E 0 90 30 64
        E 0 90 57 64
        E 0 90 63 64
        E 120 80 30 00
        E 0 80 57 00
        E 0 80 63 00
        E 120 80 19 00
        E 0 90 18 64
        E 0 90 26 64
        E 0 90 40 64
        E 0 90 48 64
        E 0 90 4c 64
        E 0 90 54 64
        E 0 90 58 64
        E 0 90 60 64
        E 0 90 64 64
        E 120 80 74 00
        E 0 80 18 00
        E 0 80 26 00
        E 0 80 40 00
        E 0 80 48 00
        E 0 80 4c 00
        E 0 80 54 00
        E 0 80 58 00
        E 0 80 60 00
        E 0 80 64 00
        E 0 90 2e 64
        E 0 90 62 64
        E 120 80 2e 00
        E 0 80 62 00
        E 0 90 19 60
        E 120 90 2f 64
        E 0 90 62 64
        E 120 80 19 00
        E 0 80 2f 00
        E 0 80 62 00
        E 0 90 18 64
        E 0 90 2e 64
        E 0 90 3e 64
        E 0 90 4a 64
        E 0 90 54 64
        E 0 90 56 64
        E 0 90 60 64
        E 0 90 62 64
        E 120 80 18 00
        E 0 80 2e 00
        E 0 80 3e 00
        E 0 80 4a 00
        E 0 80 54 00
        E 0 80 56 00
        E 0 80 60 00
        E 0 80 62 00
        E 0 90 31 64
        E 0 90 63 64
        E 120 80 31 00
        E 0 80 63 00
        E 0 90 19 60
        E 120 90 30 64
        E 0 90 63 64
        E 120 80 19 00
        E 0 80 30 00
        E 0 80 63 00
        E 0 90 18 64
        E 0 90 33 64
        E 0 90 4c 64
        E 0 90 54 64
        E 0 90 58 64
        E 0 90 60 64
        E 0 90 64 64
        E 0 90 70 64
        E 120 80 18 00
        E 0 80 33 00
        E 0 80 4c 00
        E 0 80 54 00
        E 0 80 58 00
        E 0 80 60 00
        E 0 80 64 00
        E 0 80 70 00
        E 120 90 19 60
        E 0 90 30 64
        E 0 90 57 64
        E 0 90 63 64
        E 120 80 30 00
        E 0 80 57 00
        E 0 80 63 00
        E 120 80 19 00
        E 0 90 18 64
        E 0 90 26 64
        E 0 90 40 64
        E 0 90 4c 64
        E 0 90 54 64
        E 0 90 58 64
        E 0 90 60 64
        E 0 90 64 64
        E 0 90 78 64
        E 0 90 79 64
        E 0 90 7a 64
        E 0 90 7b 64
        E 0 90 7c 64
        E 120 80 18 00
        E 0 80 26 00
        E 0 80 40 00
        E 0 80 4c 00
        E 0 80 54 00
        E 0 80 58 00
        E 0 80 60 00
        E 0 80 64 00
        E 0 90 2e 64
        E 0 90 62 64
        E 120 80 2e 00
        E 0 80 62 00
        E 0 90 19 60
        E 120 90 2f 64
        E 0 90 62 64
        E 120 80 19 00
        E 0 80 2f 00
        E 0 80 62 00
        E 0 90 18 64
        E 0 90 2e 64
        E 0 90 3e 64
        E 0 90 4a 64
        E 0 90 54 64
        E 0 90 56 64
        E 0 90 60 64
        E 0 90 62 64
        E 120 80 18 00
        E 0 80 2e 00
        E 0 80 3e 00
        E 0 80 4a 00
        E 0 80 54 00
        E 0 80 56 00
        E 0 80 60 00
        E 0 80 62 00
        E 0 90 31 64
        E 0 90 63 64
        E 120 80 31 00
        E 0 80 63 00
        E 0 90 19 60
        E 120 90 30 64
        E 0 90 63 64
        E 120 80 19 00
        E 0 80 30 00
        E 0 80 63 00
        E 0 90 18 64
        E 0 90 33 64
        E 0 90 4c 64
        E 0 90 54 64
        E 0 90 58 64
        E 0 90 60 64
        E 0 90 64 64
        E 0 90 70 64
        E 120 80 18 00
        E 0 80 33 00
        E 0 80 4c 00
        E 0 80 54 00
        E 0 80 58 00
        E 0 80 60 00
        E 0 80 64 00
        E 0 80 70 00
        E 120 90 19 60
        E 0 90 30 64
        E 0 90 57 64
        E 0 90 63 64
        E 120 80 30 00
        E 0 80 57 00
        E 0 80 63 00
        E 120 80 78 00
        E 0 80 79 00
        E 0 80 7a 00
        E 0 80 7b 00
        E 0 80 7c 00
        E 0 80 19 00
        E 0 90 18 64
        E 0 90 26 64
        E 0 90 40 64
        E 0 90 48 64
        E 0 90 4c 64
        E 0 90 54 64
        E 0 90 58 64
        E 0 90 60 64
        E 0 90 64 64
        E 120 80 18 00
        E 0 80 26 00
        E 0 80 40 00
        E 0 80 48 00
        E 0 80 4c 00
        E 0 80 54 00
        E 0 80 58 00
        E 0 80 60 00
        E 0 80 64 00
        E 0 90 2e 64
        E 0 90 62 64
        E 120 80 2e 00
        E 0 80 62 00
        E 0 90 19 60
        E 120 90 2f 64
        E 0 90 62 64
        E 120 80 19 00
        E 0 80 2f 00
        E 0 80 62 00
        E 0 90 18 64
        E 0 90 2e 64
        E 0 90 3e 64
        E 0 90 4a 64
        E 0 90 54 64
        E 0 90 56 64
        E 0 90 60 64
        E 0 90 62 64
        E 120 80 18 00
        E 0 80 2e 00
        E 0 80 3e 00
        E 0 80 4a 00
        E 0 80 54 00
        E 0 80 56 00
        E 0 80 60 00
        E 0 80 62 00
        E 0 90 31 64
        E 0 90 63 64
        E 120 80 31 00
        E 0 80 63 00
        E 0 90 19 60
        E 120 90 30 64
        E 0 90 63 64
        E 120 80 19 00
        E 0 80 30 00
        E 0 80 63 00
        E 0 90 18 64
        E 0 90 33 64
        E 0 90 4c 64
        E 0 90 54 64
        E 0 90 58 64
        E 0 90 60 64
        E 0 90 64 64
        E 0 90 70 64
        E 120 80 18 00
        E 0 80 33 00
        E 0 80 4c 00
        E 0 80 54 00
        E 0 80 58 00
        E 0 80 60 00
        E 0 80 64 00
        E 0 80 70 00
        E 120 90 19 60
        E 0 90 30 64
        E 0 90 57 64
        E 0 90 63 64
        E 120 80 30 00
        E 0 80 57 00
        E 0 80 63 00
        E 120 80 19 00
        E 0 90 18 64
        E 0 90 26 64
        E 0 90 40 64
        E 0 90 4c 64
        E 0 90 54 64
        E 0 90 58 64
        E 0 90 60 64
        E 0 90 64 64
        E 120 80 18 00
        E 0 80 26 00
        E 0 80 40 00
        E 0 80 4c 00
        E 0 80 54 00
        E 0 80 58 00
        E 0 80 60 00
        E 0 80 64 00
        E 0 90 2e 64
        E 0 90 62 64
        E 120 80 2e 00
        E 0 80 62 00
        E 0 90 19 60
        E 120 90 2f 64
        E 0 90 62 64
        E 120 80 19 00
        E 0 80 2f 00
        E 0 80 62 00
        E 0 90 18 64
        E 0 90 2e 64
        E 0 90 3e 64
        E 0 90 4a 64
        E 0 90 54 64
        E 0 90 56 64
        E 0 90 60 64
        E 0 90 62 64
        E 120 80 18 00
        E 0 80 2e 00
        E 0 80 3e 00
        E 0 80 4a 00
        E 0 80 54 00
        E 0 80 56 00
        E 0 80 60 00
        E 0 80 62 00
        E 0 90 31 64
        E 0 90 63 64
        E 120 80 31 00
        E 0 80 63 00
        E 0 90 19 60
        E 120 90 30 64
        E 0 90 63 64
        E 120 80 19 00
        E 0 80 30 00
        E 0 80 63 00
        E 0 90 18 64
        E 0 90 33 64
        E 0 90 4c 64
        E 0 90 54 64
        E 0 90 58 64
        E 0 90 60 64
        E 0 90 64 64
        E 0 90 70 64
        E 120 80 18 00
        E 0 80 33 00
        E 0 80 4c 00
        E 0 80 54 00
        E 0 80 58 00
        E 0 80 60 00
        E 0 80 64 00
        E 0 80 70 00
        E 120 90 19 60
        E 0 90 30 64
        E 0 90 57 64
        E 0 90 63 64
        E 120 80 30 00
        E 0 80 57 00
        E 0 80 63 00
        E 120 80 19 00
        E 0 90 18 64
        E 0 90 26 64
        E 0 90 40 64
        E 0 90 48 64
        E 0 90 4c 64
        E 0 90 54 64
        E 0 90 58 64
        E 0 90 60 64
        E 0 90 64 64
        E 0 90 78 64
        E 0 90 79 64
        E 0 90 7a 64
        E 0 90 7b 64
        E 0 90 7c 64
        E 120 80 18 00
        E 0 80 26 00
        E 0 80 40 00
        E 0 80 48 00
        E 0 80 4c 00
        E 0 80 54 00
        E 0 80 58 00
        E 0 80 60 00
        E 0 80 64 00
        E 0 90 2e 64
        E 0 90 62 64
        E 120 80 2e 00
        E 0 80 62 00
        E 0 90 19 60
        E 120 90 2f 64
        E 0 90 62 64
        E 120 80 19 00
        E 0 80 2f 00
        E 0 80 62 00
        E 0 90 18 64
        E 0 90 2e 64
        E 0 90 3e 64
        E 0 90 4a 64
        E 0 90 54 64
        E 0 90 56 64
        E 0 90 60 64
        E 0 90 62 64
        E 120 80 18 00
        E 0 80 2e 00
        E 0 80 3e 00
        E 0 80 4a 00
        E 0 80 54 00
        E 0 80 56 00
        E 0 80 60 00
        E 0 80 62 00
        E 0 90 31 64
        E 0 90 63 64
        E 120 80 31 00
        E 0 80 63 00
        E 0 90 19 60
        E 120 90 30 64
        E 0 90 63 64
        E 120 80 19 00
        E 0 80 30 00
        E 0 80 63 00
        E 0 90 18 64
        E 0 90 33 64
        E 0 90 4c 64
        E 0 90 54 64
        E 0 90 58 64
        E 0 90 60 64
        E 0 90 64 64
        E 0 90 70 64
        E 120 80 18 00
        E 0 80 33 00
        E 0 80 4c 00
        E 0 80 54 00
        E 0 80 58 00
        E 0 80 60 00
        E 0 80 64 00
        E 0 80 70 00
        E 120 90 19 60
        E 0 90 30 64
        E 0 90 57 64
        E 0 90 63 64
        E 120 80 30 00
        E 0 80 57 00
        E 0 80 63 00
        E 120 80 78 00
        E 0 80 79 00
        E 0 80 7a 00
        E 0 80 7b 00
        E 0 80 7c 00
        E 0 80 19 00
        E 0 90 18 64
        E 0 90 26 64
        E 0 90 40 64
        E 0 90 48 64
        E 0 90 4c 64
        E 0 90 54 64
        E 0 90 58 64
        E 0 90 60 64
        E 0 90 64 64
        E 120 80 18 00
        E 0 80 26 00
        E 0 80 40 00
        E 0 80 48 00
        E 0 80 4c 00
        E 0 80 54 00
        E 0 80 58 00
        E 0 80 60 00
        E 0 80 64 00
        E 0 90 2e 64
        E 0 90 62 64
        E 120 80 2e 00
        E 0 80 62 00
        E 0 90 19 60
        E 120 90 2f 64
        E 0 90 62 64
        E 120 80 19 00
        E 0 80 2f 00
        E 0 80 62 00
        E 0 90 18 64
        E 0 90 2e 64
        E 0 90 3e 64
        E 0 90 4a 64
        E 0 90 54 64
        E 0 90 56 64
        E 0 90 60 64
        E 0 90 62 64
        E 120 80 18 00
        E 0 80 2e 00
        E 0 80 3e 00
        E 0 80 4a 00
        E 0 80 54 00
        E 0 80 56 00
        E 0 80 60 00
        E 0 80 62 00
        E 0 90 31 64
        E 0 90 63 64
        E 120 80 31 00
        E 0 80 63 00
        E 0 90 19 60
        E 120 90 30 64
        E 0 90 63 64
        E 120 80 19 00
        E 0 80 30 00
        E 0 80 63 00
        E 0 90 18 64
        E 0 90 33 64
        E 0 90 4c 64
        E 0 90 54 64
        E 0 90 58 64
        E 0 90 60 64
        E 0 90 64 64
        E 0 90 70 64
        E 120 80 18 00
        E 0 80 33 00
        E 0 80 4c 00
        E 0 80 54 00
        E 0 80 58 00
        E 0 80 60 00
        E 0 80 64 00
        E 0 80 70 00
        E 120 90 19 60
        E 0 90 30 64
        E 0 90 57 64
        E 0 90 63 64
        E 120 80 30 00
        E 0 80 57 00
        E 0 80 63 00
        E 120 80 19 00
        E 0 90 18 64
        E 0 90 26 64
        E 0 90 40 64
        E 0 90 4c 64
        E 0 90 54 64
        E 0 90 58 64
        E 0 90 60 64
        E 0 90 64 64
        E 120 80 18 00
        E 0 80 26 00
        E 0 80 40 00
        E 0 80 4c 00
        E 0 80 54 00
        E 0 80 58 00
        E 0 80 60 00
        E 0 80 64 00
        E 0 90 2e 64
        E 0 90 62 64
        E 120 80 2e 00
        E 0 80 62 00
        E 0 90 19 60
        E 120 90 2f 64
        E 0 90 62 64
        E 120 80 19 00
        E 0 80 2f 00
        E 0 80 62 00
        E 0 90 18 64
        E 0 90 2e 64
        E 0 90 3e 64
        E 0 90 4a 64
        E 0 90 54 64
        E 0 90 56 64
        E 0 90 60 64
        E 0 90 62 64
        E 120 80 18 00
        E 0 80 2e 00
        E 0 80 3e 00
        E 0 80 4a 00
        E 0 80 54 00
        E 0 80 56 00
        E 0 80 60 00
        E 0 80 62 00
        E 0 90 31 64
        E 0 90 63 64
        E 120 80 31 00
        E 0 80 63 00
        E 0 90 19 60
        E 120 90 30 64
        E 0 90 63 64
        E 120 80 19 00
        E 0 80 30 00
        E 0 80 63 00
        E 0 90 18 64
        E 0 90 33 64
        E 0 90 4c 64
        E 0 90 54 64
        E 0 90 58 64
        E 0 90 60 64
        E 0 90 64 64
        E 0 90 70 64
        E 120 80 18 00
        E 0 80 33 00
        E 0 80 4c 00
        E 0 80 54 00
        E 0 80 58 00
        E 0 80 60 00
        E 0 80 64 00
        E 0 80 70 00
        E 120 90 19 60
        E 0 90 30 64
        E 0 90 57 64
        E 0 90 63 64
        E 120 80 30 00
        E 0 80 57 00
        E 0 80 63 00
        E 120 80 19 00
        E 0 90 18 64
        E 0 90 26 64
        E 0 90 40 64
        E 0 90 48 64
        E 0 90 4c 64
        E 0 90 54 64
        E 0 90 58 64
        E 0 90 60 64
        E 0 90 64 64
        E 120 80 18 00
        E 0 80 26 00
        E 0 80 40 00
        E 0 80 48 00
        E 0 80 4c 00
        E 0 80 54 00
        E 0 80 58 00
        E 0 80 60 00
        E 0 80 64 00
        E 0 90 2e 64
        E 0 90 62 64
        E 120 80 2e 00
        E 0 80 62 00
        E 0 90 19 60
        E 120 90 2f 64
        E 0 90 62 64
        E 120 80 19 00
        E 0 80 2f 00
        E 0 80 62 00
        E 0 90 18 64
        E 0 90 2e 64
        E 0 90 3e 64
        E 0 90 4a 64
        E 0 90 54 64
        E 0 90 56 64
        E 0 90 60 64
        E 0 90 62 64
        E 120 80 18 00
        E 0 80 2e 00
        E 0 80 3e 00
        E 0 80 4a 00
        E 0 80 54 00
        E 0 80 56 00
        E 0 80 60 00
        E 0 80 62 00
        E 0 90 31 64
        E 0 90 63 64
        E 120 80 31 00
        E 0 80 63 00
        E 0 90 19 60
        E 120 90 30 64
        E 0 90 63 64
        E 120 80 19 00
        E 0 80 30 00
        E 0 80 63 00
        E 0 90 18 64
        E 0 90 33 64
        E 0 90 4c 64
        E 0 90 54 64
        E 0 90 58 64
        E 0 90 60 64
        E 0 90 64 64
        E 0 90 70 64
        E 120 80 18 00
        E 0 80 33 00
        E 0 80 4c 00
        E 0 80 54 00
        E 0 80 58 00
        E 0 80 60 00
        E 0 80 64 00
        E 0 80 70 00
        E 120 90 19 60
        E 0 90 30 64
        E 0 90 57 64
        E 0 90 63 64
        E 120 80 30 00
        E 0 80 57 00
        E 0 80 63 00
        E 120 80 19 00
        E 0 90 18 64
        E 0 90 26 64
        E 0 90 40 64
        E 0 90 4c 64
        E 0 90 54 64
        E 0 90 58 64
        E 0 90 60 64
        E 0 90 64 64
        E 0 90 78 64
        E 0 90 79 64
        E 0 90 7a 64
        E 0 90 7b 64
        E 0 90 7c 64
        E 120 80 18 00
        E 0 80 26 00
        E 0 80 40 00
        E 0 80 4c 00
        E 0 80 54 00
        E 0 80 58 00
        E 0 80 60 00
        E 0 80 64 00
        E 0 90 2e 64
        E 0 90 62 64
        E 120 80 2e 00
        E 0 80 62 00
        E 0 90 19 60
        E 120 90 2f 64
        E 0 90 62 64
        E 120 80 19 00
        E 0 80 2f 00
        E 0 80 62 00
        E 0 90 18 64
        E 0 90 2e 64
        E 0 90 3e 64
        E 0 90 4a 64
        E 0 90 54 64
        E 0 90 56 64
        E 0 90 60 64
        E 0 90 62 64
        E 120 80 18 00
        E 0 80 2e 00
        E 0 80 3e 00
        E 0 80 4a 00
        E 0 80 54 00
        E 0 80 56 00
        E 0 80 60 00
        E 0 80 62 00
        E 0 90 31 64
        E 0 90 63 64
        E 120 80 31 00
        E 0 80 63 00
        E 0 90 19 60
        E 120 90 30 64
        E 0 90 63 64
        E 120 80 19 00
        E 0 80 30 00
        E 0 80 63 00
        E 0 90 18 64
        E 0 90 33 64
        E 0 90 4c 64
        E 0 90 54 64
        E 0 90 58 64
        E 0 90 60 64
        E 0 90 64 64
        E 0 90 70 64
        E 120 80 18 00
        E 0 80 33 00
        E 0 80 4c 00
        E 0 80 54 00
        E 0 80 58 00
        E 0 80 60 00
        E 0 80 64 00
        E 0 80 70 00
        E 120 90 19 60
        E 0 90 30 64
        E 0 90 57 64
        E 0 90 63 64
        E 120 80 30 00
        E 0 80 57 00
        E 0 80 63 00
        E 120 80 78 00
        E 0 80 79 00
        E 0 80 7a 00
        E 0 80 7b 00
        E 0 80 7c 00
        E 0 80 19 00
        E 0 90 18 64
        E 0 90 26 64
        E 0 90 40 64
        E 0 90 48 64
        E 0 90 4c 64
        E 0 90 54 64
        E 0 90 58 64
        E 0 90 60 64
        E 0 90 64 64
        E 120 80 18 00
        E 0 80 26 00
        E 0 80 40 00
        E 0 80 48 00
        E 0 80 4c 00
        E 0 80 54 00
        E 0 80 58 00
        E 0 80 60 00
        E 0 80 64 00
        E 0 90 2e 64
        E 0 90 62 64
        E 120 80 2e 00
        E 0 80 62 00
        E 0 90 19 60
        E 120 90 2f 64
        E 0 90 62 64
        E 120 80 19 00
        E 0 80 2f 00
        E 0 80 62 00
        E 0 90 18 64
        E 0 90 2e 64
        E 0 90 3e 64
        E 0 90 4a 64
        E 0 90 54 64
        E 0 90 56 64
        E 0 90 60 64
        E 0 90 62 64
        E 120 80 18 00
        E 0 80 2e 00
        E 0 80 3e 00
        E 0 80 4a 00
        E 0 80 54 00
        E 0 80 56 00
        E 0 80 60 00
        E 0 80 62 00
        E 0 90 31 64
        E 0 90 63 64
        E 120 80 31 00
        E 0 80 63 00
        E 0 90 19 60
        E 120 90 30 64
        E 0 90 63 64
        E 120 80 19 00
        E 0 80 30 00
        E 0 80 63 00
        E 0 90 18 64
        E 0 90 33 64
        E 0 90 4c 64
        E 0 90 54 64
        E 0 90 58 64
        E 0 90 60 64
        E 0 90 64 64
        E 0 90 70 64
        E 120 80 18 00
        E 0 80 33 00
        E 0 80 4c 00
        E 0 80 54 00
        E 0 80 58 00
        E 0 80 60 00
        E 0 80 64 00
        E 0 80 70 00
        E 120 90 19 60
        E 0 90 30 64
        E 0 90 57 64
        E 0 90 63 64
        E 120 80 30 00
        E 0 80 57 00
        E 0 80 63 00
        E 120 80 19 00
        E 0 90 18 64
        E 0 90 26 64
        E 0 90 40 64
        E 0 90 4c 64
        E 0 90 54 64
        E 0 90 58 64
        E 0 90 60 64
        E 0 90 64 64
        E 120 80 18 00
        E 0 80 26 00
        E 0 80 40 00
        E 0 80 4c 00
        E 0 80 54 00
        E 0 80 58 00
        E 0 80 60 00
        E 0 80 64 00
        E 0 90 2e 64
        E 0 90 62 64
        E 120 80 2e 00
        E 0 80 62 00
        E 0 90 19 60
        E 120 90 2f 64
        E 0 90 62 64
        E 120 80 19 00
        E 0 80 2f 00
        E 0 80 62 00
        E 0 90 18 64
        E 0 90 2e 64
        E 0 90 3e 64
        E 0 90 4a 64
        E 0 90 54 64
        E 0 90 56 64
        E 0 90 60 64
        E 0 90 62 64
        E 120 80 18 00
        E 0 80 2e 00
        E 0 80 3e 00
        E 0 80 4a 00
        E 0 80 54 00
        E 0 80 56 00
        E 0 80 60 00
        E 0 80 62 00
        E 0 90 31 64
        E 0 90 63 64
        E 120 80 31 00
        E 0 80 63 00
        E 0 90 19 60
        E 120 90 30 64
        E 0 90 63 64
        E 120 80 19 00
        E 0 80 30 00
        E 0 80 63 00
        E 0 90 18 64
        E 0 90 33 64
        E 0 90 4c 64
        E 0 90 54 64
        E 0 90 58 64
        E 0 90 60 64
        E 0 90 64 64
        E 0 90 70 64
        E 120 80 18 00
        E 0 80 33 00
        E 0 80 4c 00
        E 0 80 54 00
        E 0 80 58 00
        E 0 80 60 00
        E 0 80 64 00
        E 0 80 70 00
        E 120 90 19 60
        E 0 90 30 64
        E 0 90 57 64
        E 0 90 63 64
        E 120 80 30 00
        E 0 80 57 00
        E 0 80 63 00
        E 120 80 19 00
        E 0 90 18 64
        E 0 90 26 64
        E 0 90 40 64
        E 0 90 48 64
        E 0 90 4c 64
        E 0 90 54 64
        E 0 90 58 64
        E 0 90 60 64
        E 0 90 64 64
        E 120 80 18 00
        E 0 80 26 00
        E 0 80 40 00
        E 0 80 48 00
        E 0 80 4c 00
        E 0 80 54 00
        E 0 80 58 00
        E 0 80 60 00
        E 0 80 64 00
        E 0 90 2e 64
        E 0 90 62 64
        E 120 80 2e 00
        E 0 80 62 00
        E 0 90 19 60
        E 120 90 2f 64
        E 0 90 62 64
        E 120 80 19 00
        E 0 80 2f 00
        E 0 80 62 00
        E 0 90 18 64
        E 0 90 2e 64
        E 0 90 3e 64
        E 0 90 4a 64
        E 0 90 54 64
        E 0 90 56 64
        E 0 90 60 64
        E 0 90 62 64
        E 120 80 18 00
        E 0 80 2e 00
        E 0 80 3e 00
        E 0 80 4a 00
        E 0 80 54 00
        E 0 80 56 00
        E 0 80 60 00
        E 0 80 62 00
        E 0 90 31 64
        E 0 90 63 64
        E 120 80 31 00
        E 0 80 63 00
        E 0 90 19 60
        E 120 90 30 64
        E 0 90 63 64
        E 120 80 19 00
        E 0 80 30 00
        E 0 80 63 00
        E 0 90 18 64
        E 0 90 33 64
        E 0 90 4c 64
        E 0 90 54 64
        E 0 90 58 64
        E 0 90 60 64
        E 0 90 64 64
        E 0 90 70 64
        E 120 80 18 00
        E 0 80 33 00
        E 0 80 4c 00
        E 0 80 54 00
        E 0 80 58 00
        E 0 80 60 00
        E 0 80 64 00
        E 0 80 70 00
        E 120 90 19 60
        E 0 90 30 64
        E 0 90 57 64
        E 0 90 63 64
        E 120 80 30 00
        E 0 80 57 00
        E 0 80 63 00
        E 120 80 6f 00
        E 0 80 6e 00
        E 0 80 19 00
        E 0 90 18 64
        E 0 90 26 64
        E 0 90 40 64
        E 0 90 48 60
        E 0 90 4c 64
        E 0 90 54 64
        E 0 90 58 64
        E 0 90 60 64
        E 0 90 64 64
        <X 120 0
          /wFbaWRsZV9yZWFsdGltZV0=
        >
        E 0 80 18 00
        E 0 80 26 00
        E 0 80 40 00
        E 0 80 48 00
        E 0 80 4c 00
        E 0 80 54 00
        E 0 80 58 00
        E 0 80 60 00
        E 0 80 64 00
        E 2760 b0 7b 00
        GUID {1C9AA4AF-D8DA-48A2-8A58-D665F18A9FB9}
        IGNTEMPO 0 120.00000000 4 4
        SRCCOLOR 5
        VELLANE 132 128 60
        COLORMAP "C:\Program Files (x86)\REAPER\Data\color_maps\rockband_guitarbass.png"
        CFGEDITVIEW -10552.365922 7.432490 8 12 0 0 0
        CFGEDIT 1 1 0 1 1 1 1 1 1 1 1 0.25000000 -8 -8 1370 736 0 0 1 2 0.00000000 0 1 0 0 0.500000 0 0 1.000000 64
        KEYSNAP 0 0 "102034050607" 0 "Major"
        EVTFILTER 0 -1 -1 -1 -1 0 1 0 0 -1.00000000 -1.00000000
      >
    >
  >
  <TRACK '{443EEEE0-61C8-492C-BFCF-13C611843749}'
    NAME "PART BASS"
    PEAKCOL 16576
    BEAT -1
    AUTOMODE 0
    VOLPAN 1.00000000000000 0.00000000000000 -1.00000000000000 -1.00000000000000 1.00000000000000
    MUTESOLO 0 0 0
    IPHASE 0
    ISBUS 0 0
    BUSCOMP 0 0
    SHOWINMIX 1 0.666700 0.500000 1 0.500000 -1 -1 -1
    FREEMODE 0
    SEL 0
    REC 0 0 0 0 0 0 0
    VU 2
    TRACKHEIGHT 0 0
    INQ 0 0 0 0.5000000000 100 0 0 100
    NCHAN 2
    FX 1
    TRACKID {443EEEE0-61C8-492C-BFCF-13C611843749}
    PERF 0
    MIDIOUT -1
    <MIDINOTENAMES
      0 127 "TRILL MARKER"
      0 126 "TREMOLO MARKER"
      0 125 "---"
      0 124 "BRE"
      0 123 "BRE"
      0 122 "BRE"
      0 121 "BRE"
      0 120 "BRE (use all 5)"
      0 119 "----"
      0 116 "OVERDRIVE"
      0 115 "----"
      0 103 "Solo Marker"
      0 102 "Force HOPO Off"
      0 101 "Force HOPO On"
      0 100 "EXPERT Orange"
      0 99 "EXPERT Blue"
      0 98 "EXPERT Yellow"
      0 97 "EXPERT Red"
      0 96 "EXPERT Green"
      0 95 "----"
      0 90 "Force HOPO Off"
      0 89 "Force HOPO On"
      0 88 "HARD Orange"
      0 87 "HARD Blue"
      0 86 "HARD Yellow"
      0 85 "HARD Red"
      0 84 "HARD Green"
      0 77 "----"
      0 76 "MEDIUM Orange"
      0 75 "MEDIUM Blue"
      0 74 "MEDIUM Yellow"
      0 73 "MEDIUM Red"
      0 72 "MEDIUM Green"
      0 65 "----"
      0 64 "EASY Orange"
      0 63 "EASY Blue"
      0 62 "EASY Yellow"
      0 61 "EASY Red"
      0 60 "EASY Green"
      0 59 "Left Hand Highest"
      0 58 "-"
      0 57 "-"
      0 56 "-"
      0 55 "-"
      0 54 "-"
      0 53 "-"
      0 52 "-"
      0 51 "-"
      0 50 "-"
      0 49 "-"
      0 48 "-"
      0 47 "-"
      0 46 "-"
      0 45 "-"
      0 44 "-"
      0 43 "-"
      0 42 "-"
      0 41 "-"
      0 40 "Left Hand Lowest"
    >
    MAINSEND 1 0
    <FXCHAIN
      WNDRECT 476 119 878 559
      SHOW 0
      LASTSEL 2
      DOCKED 0
      BYPASS 0 0
      <JS "MIDI/midi_note_filter" ""
        96.000000 100.000000 - - - - - - - - - - - - - - - - - - - - - - - - - - - - - - - - - - - - - - - - - - - - - - - - - - - - - - - - - - - - - - 
      >
      FLOATPOS 0 0 0 0
      FXID {B7C20831-7893-44EB-B88C-B65B78730A9C}
      WAK 0
      BYPASS 1 0
      <VST "VSTi: ReaSynth (Cockos)" "reasynth.dll" 0 ""
        eXNlcu9e7f4AAAAAAgAAAAEAAAAAAAAAAgAAAAAAAAA4AAAAAAAAAA==
        AAAQAO++rd4N8K3eppvEOxe30ToAAAAAAAAAAAAAAADOTQA/OsauOQ==
        AAAAAAAAAAAAAAAAAAAAAAAAAAAAABAAAAA=
      >
      FLOATPOS 0 0 0 0
      FXID {7D6481E8-E546-4048-9269-347A78EE2E5C}
      WAK 0
      BYPASS 0 0
      <VST "VSTi: RBN Preview (RBN)" "rbprev_vst64.dll" 0 ""
        dnBicu5e7f4AAAAAAgAAAAEAAAAAAAAAAgAAAAAAAAAEAAAAAQAAAA==
        AAAQAAMAqgAAABAAAAA=
      >
      FLOATPOS 0 0 0 0
      FXID {921A5188-24B8-4AE0-97BA-5A9F0B8BAA3D}
      WAK 0
    >
    <ITEM
      POSITION 0.00000000000000
      SNAPOFFS 0.00000000000000
      LENGTH 145.04278159266019
      LOOP 0
      ALLTAKES 0
      SEL 0
      FADEIN 1 0.000000 0.000000 1 0
      FADEOUT 1 0.000000 0.000000 1 0
      MUTE 0
      IGUID {886348C2-D2C8-4F92-A16A-C68FB771CF10}
      IID 15
      NAME "PART BASS"
      VOLPAN 1.000000 0.000000 1.000000 -1.000000
      SOFFS 0.00000000000000 0.00000000000000
      PLAYRATE 1.00000000000000 1 0.00000000000000 -1
      CHANMODE 0
      GUID {BE757155-A57C-4197-A7D2-47C8B519431B}
      <SOURCE MIDI
        HASDATA 1 480 QN
        POOLEDEVTS {131BA1BB-DA25-4226-BD22-318D5366CBD8}
        <X 0 0
          /wNQQVJUIEJBU1M=
        >
        <X 2880 0
          /wFbaWRsZV0=
        >
        <X 26880 0
          /wFbcGxheV0=
        >
        E 120 90 4a 60
        E 0 90 56 60
        E 0 90 62 60
        E 120 80 4a 00
        E 0 80 56 00
        E 0 80 62 00
        E 240 90 3c 60
        E 0 90 48 60
        E 0 90 54 60
        E 0 90 60 60
        E 120 80 3c 00
        E 0 80 48 00
        E 240 80 54 00
        E 0 80 60 00
        E 120 90 48 60
        E 0 90 54 60
        E 0 90 60 60
        E 120 80 48 00
        E 240 80 54 00
        E 0 80 60 00
        E 120 90 54 60
        E 0 90 60 60
        E 360 80 54 00
        E 0 80 60 00
        <X 120 0
          /wFbaW50ZW5zZV0=
        >
        E 0 90 32 60
        E 0 90 3d 60
        E 0 90 4a 60
        E 0 90 56 60
        E 0 90 62 60
        E 120 80 3d 00
        E 0 80 4a 00
        E 0 80 56 00
        E 0 80 62 00
        E 240 80 32 00
        E 0 90 60 60
        E 120 80 60 00
        E 0 90 2a 60
        E 0 90 48 60
        E 0 90 54 60
        E 0 90 60 60
        E 120 80 48 00
        E 0 80 54 00
        E 0 80 60 00
        E 120 90 54 60
        E 0 90 60 60
        E 120 80 2a 00
        E 0 80 54 00
        E 0 80 60 00
        E 120 90 35 60
        E 0 90 3e 60
        E 0 90 4b 60
        E 0 90 57 60
        E 0 90 63 60
        E 120 80 3e 00
        E 0 80 4b 00
        E 0 80 57 00
        E 0 80 63 00
        E 120 90 57 60
        E 0 90 63 60
        E 120 80 35 00
        E 0 80 57 00
        E 0 80 63 00
        E 120 90 32 60
        E 0 90 3d 60
        E 0 90 4a 60
        E 0 90 56 60
        E 0 90 62 60
        E 120 80 3d 00
        E 0 80 4a 00
        E 0 80 56 00
        E 0 80 62 00
        E 240 80 32 00
        E 0 90 60 60
        E 120 80 60 00
        E 0 90 2a 60
        E 0 90 48 60
        E 0 90 54 60
        E 0 90 60 60
        E 120 80 48 00
        E 0 80 54 00
        E 0 80 60 00
        E 120 90 54 60
        E 0 90 60 60
        E 120 80 2a 00
        E 0 80 54 00
        E 0 80 60 00
        E 120 90 35 60
        E 0 90 3e 60
        E 0 90 4b 60
        E 0 90 57 60
        E 0 90 63 60
        E 120 80 3e 00
        E 0 80 4b 00
        E 0 80 57 00
        E 0 80 63 00
        E 120 90 57 60
        E 0 90 63 60
        E 120 80 35 00
        E 0 80 57 00
        E 0 80 63 00
        E 120 90 32 60
        E 0 90 3d 60
        E 0 90 4a 60
        E 0 90 56 60
        E 0 90 62 60
        E 120 80 3d 00
        E 0 80 4a 00
        E 0 80 56 00
        E 0 80 62 00
        E 240 80 32 00
        E 0 90 60 60
        E 120 80 60 00
        E 0 90 2a 60
        E 0 90 48 60
        E 0 90 54 60
        E 0 90 60 60
        E 120 80 48 00
        E 0 80 54 00
        E 0 80 60 00
        E 120 90 54 60
        E 0 90 60 60
        E 120 80 2a 00
        E 0 80 54 00
        E 0 80 60 00
        E 120 90 35 60
        E 0 90 3e 60
        E 0 90 4b 60
        E 0 90 57 60
        E 0 90 63 60
        E 120 80 3e 00
        E 0 80 4b 00
        E 0 80 57 00
        E 0 80 63 00
        E 120 90 57 60
        E 0 90 63 60
        E 120 80 35 00
        E 0 80 57 00
        E 0 80 63 00
        E 120 90 32 60
        E 0 90 3d 60
        E 0 90 4a 60
        E 0 90 56 60
        E 0 90 62 60
        E 120 80 3d 00
        E 0 80 4a 00
        E 0 80 56 00
        E 0 80 62 00
        E 240 80 32 00
        E 0 90 60 60
        E 120 80 60 00
        E 0 90 2a 60
        E 0 90 48 60
        E 0 90 54 60
        E 0 90 60 60
        E 120 80 48 00
        E 0 80 54 00
        E 0 80 60 00
        E 120 90 54 60
        E 0 90 60 60
        E 120 80 2a 00
        E 0 80 54 00
        E 0 80 60 00
        E 120 90 35 60
        E 0 90 3e 60
        E 0 90 4b 60
        E 0 90 57 60
        E 0 90 63 60
        E 120 80 3e 00
        E 0 80 4b 00
        E 0 80 57 00
        E 0 80 63 00
        E 120 90 57 60
        E 0 90 63 60
        E 120 80 35 00
        E 0 80 57 00
        E 0 80 63 00
        E 120 90 32 60
        E 0 90 3d 60
        E 0 90 4a 60
        E 0 90 56 60
        E 0 90 62 60
        E 120 80 3d 00
        E 0 80 4a 00
        E 0 80 56 00
        E 0 80 62 00
        E 240 80 32 00
        E 0 90 60 60
        E 120 80 60 00
        E 0 90 2a 60
        E 0 90 48 60
        E 0 90 54 60
        E 0 90 60 60
        E 120 80 48 00
        E 0 80 54 00
        E 0 80 60 00
        E 120 90 54 60
        E 0 90 60 60
        E 120 80 2a 00
        E 0 80 54 00
        E 0 80 60 00
        E 120 90 35 60
        E 0 90 3e 60
        E 0 90 4b 60
        E 0 90 57 60
        E 0 90 63 60
        E 120 80 3e 00
        E 0 80 4b 00
        E 0 80 57 00
        E 0 80 63 00
        E 120 90 57 60
        E 0 90 63 60
        E 120 80 35 00
        E 0 80 57 00
        E 0 80 63 00
        E 120 90 32 60
        E 0 90 3d 60
        E 0 90 4a 60
        E 0 90 56 60
        E 0 90 62 60
        E 0 90 74 60
        E 120 80 3d 00
        E 0 80 4a 00
        E 0 80 56 00
        E 0 80 62 00
        E 240 80 32 00
        E 0 90 60 60
        E 120 80 60 00
        E 0 90 2a 60
        E 0 90 48 60
        E 0 90 54 60
        E 0 90 60 60
        E 120 80 48 00
        E 0 80 54 00
        E 0 80 60 00
        E 120 90 54 60
        E 0 90 60 60
        E 120 80 2a 00
        E 0 80 54 00
        E 0 80 60 00
        E 120 90 35 60
        E 0 90 3e 60
        E 0 90 4b 60
        E 0 90 57 60
        E 0 90 63 60
        E 120 80 3e 00
        E 0 80 4b 00
        E 0 80 57 00
        E 0 80 63 00
        E 120 90 57 60
        E 0 90 63 60
        E 120 80 35 00
        E 0 80 57 00
        E 0 80 63 00
        E 120 90 32 60
        E 0 90 3d 60
        E 0 90 4a 60
        E 0 90 56 60
        E 0 90 62 60
        E 120 80 74 00
        E 0 80 3d 00
        E 0 80 4a 00
        E 0 80 56 00
        E 0 80 62 00
        E 240 80 32 00
        E 0 90 60 60
        E 120 80 60 00
        E 0 90 2a 60
        E 0 90 48 60
        E 0 90 54 60
        E 0 90 60 60
        E 120 80 48 00
        E 0 80 54 00
        E 0 80 60 00
        E 120 90 54 60
        E 0 90 60 60
        E 120 80 2a 00
        E 0 80 54 00
        E 0 80 60 00
        E 120 90 35 60
        E 0 90 3e 60
        E 0 90 4b 60
        E 0 90 57 60
        E 0 90 63 60
        E 120 80 3e 00
        E 0 80 4b 00
        E 0 80 57 00
        E 0 80 63 00
        E 120 90 57 60
        E 0 90 63 60
        E 120 80 35 00
        E 0 80 57 00
        E 0 80 63 00
        E 120 90 32 60
        E 0 90 3d 60
        E 0 90 4a 60
        E 0 90 56 60
        E 0 90 62 60
        E 120 80 3d 00
        E 0 80 4a 00
        E 0 80 56 00
        E 0 80 62 00
        E 240 80 32 00
        E 0 90 60 60
        E 120 80 60 00
        E 0 90 2a 60
        E 0 90 48 60
        E 0 90 54 60
        E 0 90 60 60
        E 120 80 48 00
        E 0 80 54 00
        E 0 80 60 00
        E 120 90 54 60
        E 0 90 60 60
        E 120 80 2a 00
        E 0 80 54 00
        E 0 80 60 00
        E 120 90 35 60
        E 0 90 3e 60
        E 0 90 4b 60
        E 0 90 57 60
        E 0 90 63 60
        E 120 80 3e 00
        E 0 80 4b 00
        E 0 80 57 00
        E 0 80 63 00
        E 240 80 35 00
        <X 120 0
          /wFbcGxheV0=
        >
        E 0 90 32 60
        E 0 90 3e 60
        E 0 90 4a 60
        E 0 90 56 60
        E 0 90 62 60
        E 120 80 3e 00
        E 0 80 4a 00
        E 240 80 56 00
        E 0 80 62 00
        E 120 90 3e 60
        E 0 90 4a 60
        E 0 90 56 60
        E 0 90 62 60
        E 120 80 3e 00
        E 0 80 4a 00
        E 0 80 56 00
        E 0 80 62 00
        E 240 90 61 60
        E 120 80 61 00
        E 0 90 4a 60
        E 0 90 56 60
        E 0 90 62 60
        E 120 80 4a 00
        E 0 80 56 00
        E 0 80 62 00
        E 120 90 54 60
        E 0 90 60 60
        E 120 80 32 00
        E 0 80 54 00
        E 0 80 60 00
        E 120 90 36 60
        E 0 90 3d 60
        E 0 90 49 60
        E 0 90 55 60
        E 0 90 61 60
        E 120 80 3d 00
        E 0 80 49 00
        E 240 80 55 00
        E 0 80 61 00
        E 120 90 3d 60
        E 0 90 49 60
        E 0 90 55 60
        E 0 90 61 60
        E 120 80 3d 00
        E 0 80 49 00
        E 0 80 55 00
        E 0 80 61 00
        E 240 90 4b 60
        E 0 90 57 60
        E 0 90 63 60
        E 120 80 4b 00 -60
        E 0 80 57 00
        E 0 80 63 00
        E 0 90 61 60
        E 120 80 61 00
        E 120 90 57 60
        E 0 90 63 60
        E 120 80 36 00
        E 0 80 57 00
        E 0 80 63 00
        E 120 90 34 60
        E 0 90 3c 60
        E 0 90 48 60
        E 0 90 54 60
        E 0 90 60 60
        E 120 80 3c 00
        E 0 80 48 00
        E 240 80 54 00
        E 0 80 60 00
        E 120 90 3c 60
        E 0 90 48 60
        E 0 90 54 60
        E 0 90 60 60
        E 120 80 3c 00
        E 0 80 48 00
        E 0 80 54 00
        E 0 80 60 00
        E 240 90 4a 60
        E 0 90 56 60
        E 0 90 62 60
        E 120 80 4a 00 -60
        E 0 80 56 00
        E 0 80 62 00
        E 0 90 60 60
        E 120 80 60 00
        E 120 90 56 60
        E 0 90 62 60
        E 120 80 34 00
        E 0 80 56 00
        E 0 80 62 00
        E 120 90 36 60
        E 0 90 3d 60
        E 0 90 49 60
        E 0 90 55 60
        E 0 90 61 60
        E 120 80 3d 00
        E 0 80 49 00
        E 240 80 55 00
        E 0 80 61 00
        E 120 90 3d 60
        E 0 90 49 60
        E 0 90 55 60
        E 0 90 61 60
        E 120 80 3d 00
        E 0 80 49 00
        E 0 80 55 00
        E 0 80 61 00
        E 240 90 4b 60
        E 0 90 57 60
        E 0 90 63 60
        E 120 80 4b 00 -60
        E 0 80 57 00
        E 0 80 63 00
        E 0 90 61 60
        E 120 80 61 00
        E 120 90 57 60
        E 0 90 63 60
        E 120 80 36 00
        E 0 80 57 00
        E 0 80 63 00
        E 120 90 38 60
        E 0 90 3e 60
        E 0 90 4a 60
        E 0 90 56 60
        E 0 90 62 60
        E 120 80 3e 00
        E 0 80 4a 00
        E 240 80 56 00
        E 0 80 62 00
        E 120 90 3e 60
        E 0 90 4a 60
        E 0 90 56 60
        E 0 90 62 60
        E 120 80 3e 00
        E 0 80 4a 00
        E 0 80 56 00
        E 0 80 62 00
        E 240 90 4b 60
        E 0 90 58 60
        E 0 90 64 60
        E 120 80 4b 00 -60
        E 0 80 58 00
        E 0 80 64 00
        E 0 90 62 60
        E 120 80 62 00
        E 120 90 58 60
        E 0 90 64 60
        E 120 80 38 00
        E 0 80 58 00
        E 0 80 64 00
        E 120 90 36 60
        E 0 90 3d 60
        E 0 90 49 60
        E 0 90 55 60
        E 0 90 61 60
        E 120 80 3d 00
        E 0 80 49 00
        E 240 80 55 00
        E 0 80 61 00
        E 120 90 3d 60
        E 0 90 49 60
        E 0 90 55 60
        E 0 90 61 60
        E 120 80 3d 00
        E 0 80 49 00
        E 0 80 55 00
        E 0 80 61 00
        E 240 90 4b 60
        E 0 90 57 60
        E 0 90 63 60
        E 120 80 4b 00
        E 0 80 57 00
        E 0 80 63 00
        E 0 90 61 60
        E 120 80 61 00
        E 120 90 57 60
        E 0 90 63 60
        E 120 80 36 00
        E 0 80 57 00
        E 0 80 63 00
        E 120 90 34 60
        E 0 90 3c 60
        E 0 90 48 60
        E 0 90 54 60
        E 0 90 60 60
        E 120 80 3c 00
        E 0 80 48 00
        E 240 80 54 00
        E 0 80 60 00
        E 120 90 3c 60
        E 0 90 48 60
        E 0 90 54 60
        E 0 90 60 60
        E 120 80 3c 00
        E 0 80 48 00
        E 0 80 54 00
        E 0 80 60 00
        E 240 90 4a 60
        E 0 90 56 60
        E 0 90 62 60
        E 120 80 4a 00 -60
        E 0 80 56 00
        E 0 80 62 00
        E 0 90 60 60
        E 120 80 60 00
        E 120 90 56 60
        E 0 90 62 60
        E 120 80 34 00
        E 0 80 56 00
        E 0 80 62 00
        E 120 90 36 60
        E 0 90 3d 60
        E 0 90 49 60
        E 0 90 55 60
        E 0 90 61 60
        E 120 80 3d 00
        E 0 80 49 00
        E 240 80 55 00
        E 0 80 61 00
        E 120 90 3d 60
        E 0 90 49 60
        E 0 90 55 60
        E 0 90 61 60
        E 120 80 3d 00
        E 0 80 49 00
        E 0 80 55 00
        E 0 80 61 00
        E 240 90 4b 60
        E 0 90 57 60
        E 0 90 63 60
        E 120 80 4b 00 -60
        E 0 80 57 00
        E 0 80 63 00
        E 0 90 61 60
        E 120 80 61 00
        E 120 90 57 60
        E 0 90 63 60
        E 120 80 36 00
        E 0 80 57 00
        E 0 80 63 00
        <X 120 0
          /wFbaW50ZW5zZV0=
        >
        E 0 90 32 60
        E 0 90 3d 60
        E 0 90 4a 60
        E 0 90 56 60
        E 0 90 62 60
        E 120 80 3d 00
        E 0 80 4a 00
        E 0 80 56 00
        E 0 80 62 00
        E 240 80 32 00
        E 0 90 60 60
        E 120 80 60 00
        E 0 90 2a 60
        E 0 90 48 60
        E 0 90 54 60
        E 0 90 60 60
        E 0 90 74 60
        E 120 80 48 00
        E 0 80 54 00
        E 0 80 60 00
        E 120 90 54 60
        E 0 90 60 60
        E 120 80 2a 00
        E 0 80 54 00
        E 0 80 60 00
        E 120 90 35 60
        E 0 90 3e 60
        E 0 90 4b 60
        E 0 90 57 60
        E 0 90 63 60
        E 120 80 3e 00
        E 0 80 4b 00
        E 0 80 57 00
        E 0 80 63 00
        E 120 90 57 60
        E 0 90 63 60
        E 120 80 35 00
        E 0 80 57 00
        E 0 80 63 00
        E 120 90 32 60
        E 0 90 3d 60
        E 0 90 4a 60
        E 0 90 56 60
        E 0 90 62 60
        E 120 80 3d 00
        E 0 80 4a 00
        E 0 80 56 00
        E 0 80 62 00
        E 240 80 32 00
        E 0 90 60 60
        E 120 80 60 00
        E 0 90 2a 60
        E 0 90 48 60
        E 0 90 54 60
        E 0 90 60 60
        E 120 80 48 00
        E 0 80 54 00
        E 0 80 60 00
        E 120 90 54 60
        E 0 90 60 60
        E 120 80 2a 00
        E 0 80 54 00
        E 0 80 60 00
        E 120 90 35 60
        E 0 90 3e 60
        E 0 90 4b 60
        E 0 90 57 60
        E 0 90 63 60
        E 120 80 3e 00
        E 0 80 4b 00
        E 0 80 57 00
        E 0 80 63 00
        E 120 90 57 60
        E 0 90 63 60
        E 120 80 35 00
        E 0 80 57 00
        E 0 80 63 00
        E 120 90 32 60
        E 0 90 3d 60
        E 0 90 4a 60
        E 0 90 56 60
        E 0 90 62 60
        E 120 80 74 00
        E 0 80 3d 00
        E 0 80 4a 00
        E 0 80 56 00
        E 0 80 62 00
        E 240 80 32 00
        E 0 90 60 60
        E 120 80 60 00
        E 0 90 2a 60
        E 0 90 48 60
        E 0 90 54 60
        E 0 90 60 60
        E 120 80 48 00
        E 0 80 54 00
        E 0 80 60 00
        E 120 90 54 60
        E 0 90 60 60
        E 120 80 2a 00
        E 0 80 54 00
        E 0 80 60 00
        E 120 90 35 60
        E 0 90 3e 60
        E 0 90 4b 60
        E 0 90 57 60
        E 0 90 63 60
        E 120 80 3e 00
        E 0 80 4b 00
        E 0 80 57 00
        E 0 80 63 00
        E 120 90 57 60
        E 0 90 63 60
        E 120 80 35 00
        E 0 80 57 00
        E 0 80 63 00
        E 120 90 32 60
        E 0 90 3d 60
        E 0 90 4a 60
        E 0 90 56 60
        E 0 90 62 60
        E 120 80 3d 00
        E 0 80 4a 00
        E 0 80 56 00
        E 0 80 62 00
        E 240 80 32 00
        E 0 90 60 60
        E 120 80 60 00
        E 0 90 2a 60
        E 0 90 48 60
        E 0 90 54 60
        E 0 90 60 60
        E 120 80 48 00
        E 0 80 54 00
        E 0 80 60 00
        E 120 90 54 60
        E 0 90 60 60
        E 120 80 2a 00
        E 0 80 54 00
        E 0 80 60 00
        E 120 90 35 60
        E 0 90 3e 60
        E 0 90 4b 60
        E 0 90 57 60
        E 0 90 63 60
        E 120 80 3e 00
        E 0 80 4b 00
        E 0 80 57 00
        E 0 80 63 00
        E 120 90 57 60
        E 0 90 63 60
        E 120 80 35 00
        E 0 80 57 00
        E 0 80 63 00
        E 120 90 32 60
        E 0 90 3d 60
        E 0 90 4a 60
        E 0 90 56 60
        E 0 90 62 60
        E 120 80 3d 00
        E 0 80 4a 00
        E 0 80 56 00
        E 0 80 62 00
        E 240 80 32 00
        E 0 90 60 60
        E 120 80 60 00
        E 0 90 2a 60
        E 0 90 48 60
        E 0 90 54 60
        E 0 90 60 60
        E 120 80 48 00
        E 0 80 54 00
        E 0 80 60 00
        E 120 90 54 60
        E 0 90 60 60
        E 120 80 2a 00
        E 0 80 54 00
        E 0 80 60 00
        E 120 90 35 60
        E 0 90 3e 60
        E 0 90 4b 60
        E 0 90 57 60
        E 0 90 63 60
        E 120 80 3e 00
        E 0 80 4b 00
        E 0 80 57 00
        E 0 80 63 00
        E 120 90 57 60
        E 0 90 63 60
        E 120 80 35 00
        E 0 80 57 00
        E 0 80 63 00
        E 120 90 32 60
        E 0 90 3d 60
        E 0 90 4a 60
        E 0 90 56 60
        E 0 90 62 60
        E 120 80 3d 00
        E 0 80 4a 00
        E 0 80 56 00
        E 0 80 62 00
        E 240 80 32 00
        E 0 90 60 60
        E 120 80 60 00
        E 0 90 2a 60
        E 0 90 48 60
        E 0 90 54 60
        E 0 90 60 60
        E 120 80 48 00
        E 0 80 54 00
        E 0 80 60 00
        E 120 90 54 60
        E 0 90 60 60
        E 120 80 2a 00
        E 0 80 54 00
        E 0 80 60 00
        E 120 90 35 60
        E 0 90 3e 60
        E 0 90 4b 60
        E 0 90 57 60
        E 0 90 63 60
        E 120 80 3e 00
        E 0 80 4b 00
        E 0 80 57 00
        E 0 80 63 00
        E 120 90 57 60
        E 0 90 63 60
        E 120 80 35 00
        E 0 80 57 00
        E 0 80 63 00
        E 120 90 32 60
        E 0 90 3d 60
        E 0 90 4a 60
        E 0 90 56 60
        E 0 90 62 60
        E 120 80 3d 00
        E 0 80 4a 00
        E 0 80 56 00
        E 0 80 62 00
        E 240 80 32 00
        E 0 90 60 60
        E 120 80 60 00
        E 0 90 2a 60
        E 0 90 48 60
        E 0 90 54 60
        E 0 90 60 60
        E 120 80 48 00
        E 0 80 54 00
        E 0 80 60 00
        E 120 90 54 60
        E 0 90 60 60
        E 120 80 2a 00
        E 0 80 54 00
        E 0 80 60 00
        E 120 90 35 60
        E 0 90 3e 60
        E 0 90 4b 60
        E 0 90 57 60
        E 0 90 63 60
        E 120 80 3e 00
        E 0 80 4b 00
        E 0 80 57 00
        E 0 80 63 00
        E 120 90 57 60
        E 0 90 63 60
        E 120 80 35 00
        E 0 80 57 00
        E 0 80 63 00
        E 120 90 32 60
        E 0 90 3d 60
        E 0 90 4a 60
        E 0 90 56 60
        E 0 90 62 60
        E 120 80 3d 00
        E 0 80 4a 00
        E 0 80 56 00
        E 0 80 62 00
        E 240 80 32 00
        E 0 90 60 60
        E 120 80 60 00
        E 0 90 2a 60
        E 0 90 48 60
        E 0 90 54 60
        E 0 90 60 60
        E 120 80 48 00
        E 0 80 54 00
        E 0 80 60 00
        E 120 90 54 60
        E 0 90 60 60
        E 120 80 2a 00
        E 0 80 54 00
        E 0 80 60 00
        E 120 90 35 60
        E 0 90 3e 60
        E 0 90 4b 60
        E 0 90 57 60
        E 0 90 63 60
        E 120 80 3e 00
        E 0 80 4b 00
        E 0 80 57 00
        E 0 80 63 00
        E 240 80 35 00
        <X 120 0
          /wFbaWRsZV0=
        >
        <X 17280 0
          /wFbcGxheV0=
        >
        E 0 90 32 60
        E 0 90 3e 60
        E 0 90 4a 60
        E 0 90 56 60
        E 0 90 62 60
        E 0 90 74 60
        E 120 80 3e 00
        E 0 80 4a 00
        E 240 80 56 00
        E 0 80 62 00
        E 120 90 3e 60
        E 0 90 4a 60
        E 0 90 56 60
        E 0 90 62 60
        E 120 80 3e 00
        E 0 80 4a 00
        E 0 80 56 00
        E 0 80 62 00
        E 240 90 61 60
        E 120 80 61 00
        E 0 90 4a 60
        E 0 90 56 60
        E 0 90 62 60
        E 120 80 4a 00
        E 0 80 56 00
        E 0 80 62 00
        E 120 90 54 60
        E 0 90 60 60
        E 120 80 32 00
        E 0 80 54 00
        E 0 80 60 00
        E 120 90 36 60
        E 0 90 3d 60
        E 0 90 49 60
        E 0 90 55 60
        E 0 90 61 60
        E 120 80 3d 00
        E 0 80 49 00
        E 240 80 55 00
        E 0 80 61 00
        E 120 90 3d 60
        E 0 90 49 60
        E 0 90 55 60
        E 0 90 61 60
        E 120 80 3d 00
        E 0 80 49 00
        E 0 80 55 00
        E 0 80 61 00
        E 240 90 4b 60
        E 0 90 57 60
        E 0 90 63 60
        E 120 80 4b 00 -60
        E 0 80 57 00
        E 0 80 63 00
        E 0 90 61 60
        E 120 80 61 00
        E 120 90 57 60
        E 0 90 63 60
        E 120 80 36 00
        E 0 80 57 00
        E 0 80 63 00
        E 120 80 74 00
        E 0 90 34 60
        E 0 90 3c 60
        E 0 90 48 60
        E 0 90 54 60
        E 0 90 60 60
        E 120 80 3c 00
        E 0 80 48 00
        E 240 80 54 00
        E 0 80 60 00
        E 120 90 3c 60
        E 0 90 48 60
        E 0 90 54 60
        E 0 90 60 60
        E 120 80 3c 00
        E 0 80 48 00
        E 0 80 54 00
        E 0 80 60 00
        E 240 90 4a 60
        E 0 90 56 60
        E 0 90 62 60
        E 120 80 4a 00 -60
        E 0 80 56 00
        E 0 80 62 00
        E 0 90 60 60
        E 120 80 60 00
        E 120 90 56 60
        E 0 90 62 60
        E 120 80 34 00
        E 0 80 56 00
        E 0 80 62 00
        E 120 90 36 60
        E 0 90 3d 60
        E 0 90 49 60
        E 0 90 55 60
        E 0 90 61 60
        E 120 80 3d 00
        E 0 80 49 00
        E 240 80 55 00
        E 0 80 61 00
        E 120 90 3d 60
        E 0 90 49 60
        E 0 90 55 60
        E 0 90 61 60
        E 120 80 3d 00
        E 0 80 49 00
        E 0 80 55 00
        E 0 80 61 00
        E 240 90 4b 60
        E 0 90 57 60
        E 0 90 63 60
        E 120 80 4b 00 -60
        E 0 80 57 00
        E 0 80 63 00
        E 0 90 61 60
        E 120 80 61 00
        E 120 90 57 60
        E 0 90 63 60
        E 120 80 36 00
        E 0 80 57 00
        E 0 80 63 00
        E 120 90 38 60
        E 0 90 3e 60
        E 0 90 4a 60
        E 0 90 56 60
        E 0 90 62 60
        E 120 80 3e 00
        E 0 80 4a 00
        E 240 80 56 00
        E 0 80 62 00
        E 120 90 3e 60
        E 0 90 4a 60
        E 0 90 56 60
        E 0 90 62 60
        E 120 80 3e 00
        E 0 80 4a 00
        E 0 80 56 00
        E 0 80 62 00
        E 240 90 4b 60
        E 0 90 58 60
        E 0 90 64 60
        E 120 80 4b 00 -60
        E 0 80 58 00
        E 0 80 64 00
        E 0 90 62 60
        E 120 80 62 00
        E 120 90 58 60
        E 0 90 64 60
        E 120 80 38 00
        E 0 80 58 00
        E 0 80 64 00
        E 120 90 36 60
        E 0 90 3d 60
        E 0 90 49 60
        E 0 90 55 60
        E 0 90 61 60
        E 120 80 3d 00
        E 0 80 49 00
        E 240 80 55 00
        E 0 80 61 00
        E 120 90 3d 60
        E 0 90 49 60
        E 0 90 55 60
        E 0 90 61 60
        E 120 80 3d 00
        E 0 80 49 00
        E 0 80 55 00
        E 0 80 61 00
        E 240 90 4b 60
        E 0 90 57 60
        E 0 90 63 60
        E 120 80 4b 00
        E 0 80 57 00
        E 0 80 63 00
        E 0 90 61 60
        E 120 80 61 00
        E 120 90 57 60
        E 0 90 63 60
        E 120 80 36 00
        E 0 80 57 00
        E 0 80 63 00
        E 120 90 34 60
        E 0 90 3c 60
        E 0 90 48 60
        E 0 90 54 60
        E 0 90 60 60
        E 120 80 3c 00
        E 0 80 48 00
        E 240 80 54 00
        E 0 80 60 00
        E 120 90 3c 60
        E 0 90 48 60
        E 0 90 54 60
        E 0 90 60 60
        E 120 80 3c 00
        E 0 80 48 00
        E 0 80 54 00
        E 0 80 60 00
        E 240 90 4a 60
        E 0 90 56 60
        E 0 90 62 60
        E 120 80 4a 00 -60
        E 0 80 56 00
        E 0 80 62 00
        E 0 90 60 60
        E 120 80 60 00
        E 120 90 56 60
        E 0 90 62 60
        E 120 80 34 00
        E 0 80 56 00
        E 0 80 62 00
        E 120 90 36 60
        E 0 90 3d 60
        E 0 90 49 60
        E 0 90 55 60
        E 0 90 61 60
        E 120 80 3d 00
        E 240 80 49 00
        E 0 80 55 00
        E 0 80 61 00
        E 120 90 3d 60
        E 0 90 49 60
        E 0 90 55 60
        E 0 90 61 60
        E 120 80 3d 00
        E 0 80 49 00
        E 0 80 55 00
        E 0 80 61 00
        E 240 90 4b 60
        E 0 90 57 60
        E 0 90 63 60
        E 120 80 4b 00 -60
        E 0 80 57 00
        E 0 80 63 00
        E 0 90 61 60
        E 120 80 61 00
        E 120 90 57 60
        E 0 90 63 60
        E 120 80 36 00
        E 0 80 57 00
        E 0 80 63 00
        <X 119 0
          /wFbaW50ZW5zZV0=
        >
        E 1 90 32 60
        E 0 90 3d 60
        E 0 90 4a 60
        E 0 90 56 60
        E 0 90 62 60
        E 120 80 3d 00
        E 0 80 4a 00
        E 0 80 56 00
        E 0 80 62 00
        E 240 80 32 00
        E 0 90 56 60
        E 0 90 62 60
        E 120 80 56 00
        E 0 80 62 00
        E 0 90 2a 60
        E 0 90 48 60
        E 0 90 54 60
        E 0 90 60 60
        E 120 80 48 00
        E 0 80 54 00
        E 0 80 60 00
        E 120 90 60 60
        E 120 80 2a 00
        E 0 80 60 00
        E 0 90 57 60
        E 0 90 63 60
        E 120 80 57 00
        E 0 80 63 00
        E 0 90 35 60
        E 0 90 3e 60
        E 0 90 4b 60
        E 0 90 57 60
        E 0 90 63 60
        E 120 80 3e 00
        E 0 80 4b 00
        E 0 80 57 00
        E 0 80 63 00
        E 120 90 57 60
        E 0 90 63 60
        E 120 80 35 00
        E 0 80 57 00
        E 0 80 63 00
        E 120 90 32 60
        E 0 90 3d 60
        E 0 90 4a 60
        E 0 90 56 60
        E 0 90 62 60
        E 120 80 3d 00
        E 0 80 4a 00
        E 0 80 56 00
        E 0 80 62 00
        E 240 80 32 00
        E 0 90 56 60
        E 0 90 62 60
        E 120 80 56 00
        E 0 80 62 00
        E 0 90 2a 60
        E 0 90 48 60
        E 0 90 54 60
        E 0 90 60 60
        E 120 80 48 00
        E 0 80 54 00
        E 0 80 60 00
        E 120 90 60 60
        E 120 80 2a 00
        E 0 80 60 00
        E 0 90 57 60
        E 0 90 63 60
        E 120 80 57 00
        E 0 80 63 00
        E 0 90 35 60
        E 0 90 3e 60
        E 0 90 4b 60
        E 0 90 57 60
        E 0 90 63 60
        E 120 80 3e 00
        E 0 80 4b 00
        E 0 80 57 00
        E 0 80 63 00
        E 120 90 57 60
        E 0 90 63 60
        E 120 80 35 00
        E 0 80 57 00
        E 0 80 63 00
        E 120 90 32 60
        E 0 90 3d 60
        E 0 90 4a 60
        E 0 90 56 60
        E 0 90 62 60
        E 120 80 3d 00
        E 0 80 4a 00
        E 0 80 56 00
        E 0 80 62 00
        E 240 80 32 00
        E 0 90 56 60
        E 0 90 62 60
        E 120 80 56 00
        E 0 80 62 00
        E 0 90 2a 60
        E 0 90 48 60
        E 0 90 54 60
        E 0 90 60 60
        E 120 80 48 00
        E 0 80 54 00
        E 0 80 60 00
        E 120 90 60 60
        E 120 80 2a 00
        E 0 80 60 00
        E 0 90 57 60
        E 0 90 63 60
        E 120 80 57 00
        E 0 80 63 00
        E 0 90 35 60
        E 0 90 3e 60
        E 0 90 4b 60
        E 0 90 57 60
        E 0 90 63 60
        E 120 80 3e 00
        E 0 80 4b 00
        E 0 80 57 00
        E 0 80 63 00
        E 120 90 57 60
        E 0 90 63 60
        E 120 80 35 00
        E 0 80 57 00
        E 0 80 63 00
        E 120 90 32 60
        E 0 90 3d 60
        E 0 90 4a 60
        E 0 90 56 60
        E 0 90 62 60
        E 0 90 74 60
        E 120 80 3d 00
        E 0 80 4a 00
        E 0 80 56 00
        E 0 80 62 00
        E 240 80 32 00
        E 0 90 56 60
        E 0 90 62 60
        E 120 80 56 00
        E 0 80 62 00
        E 0 90 2a 60
        E 0 90 48 60
        E 0 90 54 60
        E 0 90 60 60
        E 120 80 48 00
        E 0 80 54 00
        E 0 80 60 00
        E 120 90 60 60
        E 120 80 2a 00
        E 0 80 60 00
        E 0 90 57 60
        E 0 90 63 60
        E 120 80 57 00
        E 0 80 63 00
        E 0 90 35 60
        E 0 90 3e 60
        E 0 90 4b 60
        E 0 90 57 60
        E 0 90 63 60
        E 120 80 3e 00
        E 0 80 4b 00
        E 0 80 57 00
        E 0 80 63 00
        E 120 90 57 60
        E 0 90 63 60
        E 120 80 74 00
        E 0 80 35 00
        E 0 80 57 00
        E 0 80 63 00
        E 120 90 32 60
        E 0 90 3d 60
        E 0 90 4a 60
        E 0 90 56 60
        E 0 90 62 60
        E 120 80 3d 00
        E 0 80 4a 00
        E 0 80 56 00
        E 0 80 62 00
        E 240 80 32 00
        E 0 90 56 60
        E 0 90 62 60
        E 120 80 56 00
        E 0 80 62 00
        E 0 90 2a 60
        E 0 90 48 60
        E 0 90 54 60
        E 0 90 60 60
        E 120 80 48 00
        E 0 80 54 00
        E 0 80 60 00
        E 120 90 60 60
        E 120 80 2a 00
        E 0 80 60 00
        E 0 90 57 60
        E 0 90 63 60
        E 120 80 57 00
        E 0 80 63 00
        E 0 90 35 60
        E 0 90 3e 60
        E 0 90 4b 60
        E 0 90 57 60
        E 0 90 63 60
        E 120 80 3e 00
        E 0 80 4b 00
        E 0 80 57 00
        E 0 80 63 00
        E 120 90 57 60
        E 0 90 63 60
        E 120 80 35 00
        E 0 80 57 00
        E 0 80 63 00
        E 120 90 32 60
        E 0 90 3d 60
        E 0 90 4a 60
        E 0 90 56 60
        E 0 90 62 60
        E 120 80 3d 00
        E 0 80 4a 00
        E 0 80 56 00
        E 0 80 62 00
        E 240 80 32 00
        E 0 90 56 60
        E 0 90 62 60
        E 120 80 56 00
        E 0 80 62 00
        E 0 90 2a 60
        E 0 90 48 60
        E 0 90 54 60
        E 0 90 60 60
        E 120 80 48 00
        E 0 80 54 00
        E 0 80 60 00
        E 120 90 60 60
        E 120 80 2a 00
        E 0 80 60 00
        E 0 90 57 60
        E 0 90 63 60
        E 120 80 57 00
        E 0 80 63 00
        E 0 90 35 60
        E 0 90 3e 60
        E 0 90 4b 60
        E 0 90 57 60
        E 0 90 63 60
        E 120 80 3e 00
        E 0 80 4b 00
        E 0 80 57 00
        E 0 80 63 00
        E 120 90 57 60
        E 0 90 63 60
        E 120 80 35 00
        E 0 80 57 00
        E 0 80 63 00
        E 120 90 32 60
        E 0 90 3d 60
        E 0 90 4a 60
        E 0 90 56 60
        E 0 90 62 60
        E 120 80 3d 00
        E 0 80 4a 00
        E 0 80 56 00
        E 0 80 62 00
        E 240 80 32 00
        E 0 90 56 60
        E 0 90 62 60
        E 120 80 56 00
        E 0 80 62 00
        E 0 90 2a 60
        E 0 90 48 60
        E 0 90 54 60
        E 0 90 60 60
        E 120 80 48 00
        E 0 80 54 00
        E 0 80 60 00
        E 120 90 60 60
        E 120 80 2a 00
        E 0 80 60 00
        E 0 90 57 60
        E 0 90 63 60
        E 120 80 57 00
        E 0 80 63 00
        E 0 90 35 60
        E 0 90 3e 60
        E 0 90 4b 60
        E 0 90 57 60
        E 0 90 63 60
        E 120 80 3e 00
        E 0 80 4b 00
        E 0 80 57 00
        E 0 80 63 00
        E 120 90 57 60
        E 0 90 63 60
        E 120 80 35 00
        E 0 80 57 00
        E 0 80 63 00
        E 120 90 32 60
        E 0 90 3d 60
        E 0 90 4a 60
        E 0 90 56 60
        E 0 90 62 60
        E 120 80 3d 00
        E 0 80 4a 00
        E 0 80 56 00
        E 0 80 62 00
        E 240 80 32 00
        E 0 90 56 60
        E 0 90 62 60
        E 120 80 56 00
        E 0 80 62 00
        E 0 90 2a 60
        E 0 90 48 60
        E 0 90 54 60
        E 0 90 60 60
        E 120 80 48 00
        E 0 80 54 00
        E 0 80 60 00
        E 120 90 60 60
        E 120 80 2a 00
        E 0 80 60 00
        E 0 90 57 60
        E 0 90 63 60
        E 120 80 57 00
        E 0 80 63 00
        E 0 90 35 60
        E 0 90 3e 60
        E 0 90 4b 60
        E 0 90 57 60
        E 0 90 63 60
        E 120 80 3e 00
        E 0 80 4b 00
        E 0 80 57 00
        E 0 80 63 00
        E 120 90 57 60
        E 0 90 63 60
        E 120 80 35 00
        E 0 80 57 00
        E 0 80 63 00
        E 120 90 32 60
        E 0 90 3d 60
        E 0 90 4a 60
        E 0 90 56 60
        E 0 90 62 60
        E 120 80 3d 00
        E 0 80 4a 00
        E 0 80 56 00
        E 0 80 62 00
        E 240 80 32 00
        E 0 90 56 60
        E 0 90 62 60
        E 120 80 56 00
        E 0 80 62 00
        E 0 90 2a 60
        E 0 90 48 60
        E 0 90 54 60
        E 0 90 60 60
        E 120 80 48 00
        E 0 80 54 00
        E 0 80 60 00
        E 120 90 60 60
        E 120 80 2a 00
        E 0 80 60 00
        E 0 90 57 60
        E 0 90 63 60
        E 120 80 57 00
        E 0 80 63 00
        E 0 90 35 60
        E 0 90 3e 60
        E 0 90 4b 60
        E 0 90 57 60
        E 0 90 63 60
        E 120 80 3e 00
        E 0 80 4b 00
        E 0 80 57 00
        E 0 80 63 00
        E 120 90 57 60
        E 0 90 63 60
        E 120 80 35 00
        E 0 80 57 00
        E 0 80 63 00
        E 120 90 32 60
        E 0 90 3d 60
        E 0 90 4a 60
        E 0 90 56 60
        E 0 90 62 60
        E 120 80 3d 00
        E 0 80 4a 00
        E 0 80 56 00
        E 0 80 62 00
        E 240 80 32 00
        E 0 90 56 60
        E 0 90 62 60
        E 120 80 56 00
        E 0 80 62 00
        E 0 90 2a 60
        E 0 90 48 60
        E 0 90 54 60
        E 0 90 60 60
        E 120 80 48 00
        E 0 80 54 00
        E 0 80 60 00
        E 120 90 60 60
        E 120 80 2a 00
        E 0 80 60 00
        E 0 90 57 60
        E 0 90 63 60
        E 120 80 57 00
        E 0 80 63 00
        E 0 90 35 60
        E 0 90 3e 60
        E 0 90 4b 60
        E 0 90 57 60
        E 0 90 63 60
        E 120 80 3e 00
        E 0 80 4b 00
        E 0 80 57 00
        E 0 80 63 00
        E 120 90 57 60
        E 0 90 63 60
        E 120 80 35 00
        E 0 80 57 00
        E 0 80 63 00
        E 120 90 32 60
        E 0 90 3d 60
        E 0 90 4a 60
        E 0 90 56 60
        E 0 90 62 60
        E 120 80 3d 00
        E 0 80 4a 00
        E 0 80 56 00
        E 0 80 62 00
        E 240 80 32 00
        E 0 90 56 60
        E 0 90 62 60
        E 120 80 56 00
        E 0 80 62 00
        E 0 90 2a 60
        E 0 90 48 60
        E 0 90 54 60
        E 0 90 60 60
        E 120 80 48 00
        E 0 80 54 00
        E 0 80 60 00
        E 120 90 60 60
        E 120 80 2a 00
        E 0 80 60 00
        E 0 90 57 60
        E 0 90 63 60
        E 120 80 57 00
        E 0 80 63 00
        E 0 90 35 60
        E 0 90 3e 60
        E 0 90 4b 60
        E 0 90 57 60
        E 0 90 63 60
        E 120 80 3e 00
        E 0 80 4b 00
        E 0 80 57 00
        E 0 80 63 00
        E 120 90 57 60
        E 0 90 63 60
        E 120 80 35 00
        E 0 80 57 00
        E 0 80 63 00
        E 120 90 32 60
        E 0 90 3d 60
        E 0 90 4a 60
        E 0 90 56 60
        E 0 90 62 60
        E 120 80 3d 00
        E 0 80 4a 00
        E 0 80 56 00
        E 0 80 62 00
        E 240 80 32 00
        E 0 90 56 60
        E 0 90 62 60
        E 120 80 56 00
        E 0 80 62 00
        E 0 90 2a 60
        E 0 90 48 60
        E 0 90 54 60
        E 0 90 60 60
        E 120 80 48 00
        E 0 80 54 00
        E 0 80 60 00
        E 120 90 60 60
        E 120 80 2a 00
        E 0 80 60 00
        E 0 90 57 60
        E 0 90 63 60
        E 120 80 57 00
        E 0 80 63 00
        E 0 90 35 60
        E 0 90 3e 60
        E 0 90 4b 60
        E 0 90 57 60
        E 0 90 63 60
        E 120 80 3e 00
        E 0 80 4b 00
        E 0 80 57 00
        E 0 80 63 00
        E 120 90 57 60
        E 0 90 63 60
        E 120 80 35 00
        E 0 80 57 00
        E 0 80 63 00
        E 120 90 32 60
        E 0 90 3d 60
        E 0 90 4a 60
        E 0 90 56 60
        E 0 90 62 60
        E 120 80 3d 00
        E 0 80 4a 00
        E 0 80 56 00
        E 0 80 62 00
        E 240 80 32 00
        E 0 90 56 60
        E 0 90 62 60
        E 120 80 56 00
        E 0 80 62 00
        E 0 90 2a 60
        E 0 90 48 60
        E 0 90 54 60
        E 0 90 60 60
        E 120 80 48 00
        E 0 80 54 00
        E 0 80 60 00
        E 120 90 60 60
        E 120 80 2a 00
        E 0 80 60 00
        E 0 90 57 60
        E 0 90 63 60
        E 120 80 57 00
        E 0 80 63 00
        E 0 90 35 60
        E 0 90 3e 60
        E 0 90 4b 60
        E 0 90 57 60
        E 0 90 63 60
        E 120 80 3e 00
        E 0 80 4b 00
        E 0 80 57 00
        E 0 80 63 00
        E 120 90 57 60
        E 0 90 63 60
        E 120 80 35 00
        E 0 80 57 00
        E 0 80 63 00
        E 120 90 32 60
        E 0 90 3d 60
        E 0 90 4a 60
        E 0 90 56 60
        E 0 90 62 60
        E 120 80 3d 00
        E 0 80 4a 00
        E 0 80 56 00
        E 0 80 62 00
        E 240 80 32 00
        E 0 90 56 60
        E 0 90 62 60
        E 120 80 56 00
        E 0 80 62 00
        E 0 90 2a 60
        E 0 90 48 60
        E 0 90 54 60
        E 0 90 60 60
        E 120 80 48 00
        E 0 80 54 00
        E 0 80 60 00
        E 120 90 60 60
        E 120 80 2a 00
        E 0 80 60 00
        E 0 90 57 60
        E 0 90 63 60
        E 120 80 57 00
        E 0 80 63 00
        E 0 90 35 60
        E 0 90 3e 60
        E 0 90 4b 60
        E 0 90 57 60
        E 0 90 63 60
        E 120 80 3e 00
        E 0 80 4b 00
        E 0 80 57 00
        E 0 80 63 00
        E 120 90 57 60
        E 0 90 63 60
        E 120 80 35 00
        E 0 80 57 00
        E 0 80 63 00
        E 120 90 32 60
        E 0 90 3d 60
        E 0 90 4a 60
        E 0 90 56 60
        E 0 90 62 60
        E 120 80 3d 00
        E 0 80 4a 00
        E 0 80 56 00
        E 0 80 62 00
        E 240 80 32 00
        E 0 90 56 60
        E 0 90 62 60
        E 120 80 56 00
        E 0 80 62 00
        E 0 90 2a 60
        E 0 90 48 60
        E 0 90 54 60
        E 0 90 60 60
        E 120 80 48 00
        E 0 80 54 00
        E 0 80 60 00
        E 120 90 60 60
        E 120 80 2a 00
        E 0 80 60 00
        E 0 90 57 60
        E 0 90 63 60
        E 120 80 57 00
        E 0 80 63 00
        E 0 90 35 60
        E 0 90 3e 60
        E 0 90 4b 60
        E 0 90 57 60
        E 0 90 63 60
        E 120 80 3e 00
        E 0 80 4b 00
        E 0 80 57 00
        E 0 80 63 00
        E 120 90 57 60
        E 0 90 63 60
        E 120 80 35 00
        E 0 80 57 00
        E 0 80 63 00
        E 120 90 32 60
        E 0 90 3d 60
        E 0 90 4a 60
        E 0 90 56 60
        E 0 90 62 60
        E 0 90 74 60
        E 120 80 3d 00
        E 0 80 4a 00
        E 0 80 56 00
        E 0 80 62 00
        E 240 80 32 00
        E 0 90 56 60
        E 0 90 62 60
        E 120 80 56 00
        E 0 80 62 00
        E 0 90 2a 60
        E 0 90 48 60
        E 0 90 54 60
        E 0 90 60 60
        E 120 80 48 00
        E 0 80 54 00
        E 0 80 60 00
        E 120 90 60 60
        E 120 80 2a 00
        E 0 80 60 00
        E 0 90 57 60
        E 0 90 63 60
        E 120 80 57 00
        E 0 80 63 00
        E 0 90 35 60
        E 0 90 3e 60
        E 0 90 4b 60
        E 0 90 57 60
        E 0 90 63 60
        E 120 80 3e 00
        E 0 80 4b 00
        E 0 80 57 00
        E 0 80 63 00
        E 120 90 57 60
        E 0 90 63 60
        E 120 80 35 00
        E 0 80 57 00
        E 0 80 63 00
        E 120 90 32 60
        E 0 90 3d 60
        E 0 90 4a 60
        E 0 90 56 60
        E 0 90 62 60
        E 120 80 74 00
        E 0 80 3d 00
        E 0 80 4a 00
        E 0 80 56 00
        E 0 80 62 00
        E 240 80 32 00
        E 0 90 56 60
        E 0 90 62 60
        E 120 80 56 00
        E 0 80 62 00
        E 0 90 2a 60
        E 0 90 48 60
        E 0 90 54 60
        E 0 90 60 60
        E 120 80 48 00
        E 0 80 54 00
        E 0 80 60 00
        E 120 90 60 60
        E 120 80 2a 00
        E 0 80 60 00
        E 0 90 57 60
        E 0 90 63 60
        E 120 80 57 00
        E 0 80 63 00
        E 0 90 35 60
        E 0 90 3e 60
        E 0 90 4b 60
        E 0 90 57 60
        E 0 90 63 60
        E 120 80 3e 00
        E 0 80 4b 00
        E 0 80 57 00
        E 0 80 63 00
        E 120 90 57 60
        E 0 90 63 60
        E 120 80 35 00
        E 0 80 57 00
        E 0 80 63 00
        E 120 90 32 60
        E 0 90 3d 60
        E 0 90 4a 60
        E 0 90 56 60
        E 0 90 62 60
        E 120 80 3d 00
        E 0 80 4a 00
        E 0 80 56 00
        E 0 80 62 00
        E 240 80 32 00
        E 0 90 56 60
        E 0 90 62 60
        E 120 80 56 00
        E 0 80 62 00
        E 0 90 2a 60
        E 0 90 48 60
        E 0 90 54 60
        E 0 90 60 60
        E 120 80 48 00
        E 0 80 54 00
        E 0 80 60 00
        E 120 90 60 60
        E 120 80 2a 00
        E 0 80 60 00
        E 0 90 57 60
        E 0 90 63 60
        E 120 80 57 00
        E 0 80 63 00
        E 0 90 35 60
        E 0 90 3e 60
        E 0 90 4b 60
        E 0 90 57 60
        E 0 90 63 60
        E 120 80 3e 00
        E 0 80 4b 00
        E 0 80 57 00
        E 0 80 63 00
        E 120 90 57 60
        E 0 90 63 60
        E 120 80 35 00
        E 0 80 57 00
        E 0 80 63 00
        E 120 90 32 60
        E 0 90 3d 60
        E 0 90 4a 60
        E 0 90 56 60
        E 0 90 62 60
        E 120 80 3d 00
        E 0 80 4a 00
        E 0 80 56 00
        E 0 80 62 00
        E 240 80 32 00
        E 0 90 56 60
        E 0 90 62 60
        E 120 80 56 00
        E 0 80 62 00
        E 0 90 2a 60
        E 0 90 48 60
        E 0 90 54 60
        E 0 90 60 60
        E 120 80 48 00
        E 0 80 54 00
        E 0 80 60 00
        E 120 90 60 60
        E 120 80 2a 00
        E 0 80 60 00
        E 0 90 57 60
        E 0 90 63 60
        E 120 80 57 00
        E 0 80 63 00
        E 0 90 35 60
        E 0 90 3e 60
        E 0 90 4b 60
        E 0 90 57 60
        E 0 90 63 60
        E 120 80 3e 00
        E 0 80 4b 00
        E 0 80 57 00
        E 0 80 63 00
        E 120 90 57 60
        E 0 90 63 60
        E 120 80 35 00
        E 0 80 57 00
        E 0 80 63 00
        E 120 90 32 60
        E 0 90 3d 60
        E 0 90 4a 60
        E 0 90 56 60
        E 0 90 62 60
        E 120 80 3d 00
        E 0 80 4a 00
        E 0 80 56 00
        E 0 80 62 00
        E 240 80 32 00
        E 0 90 56 60
        E 0 90 62 60
        E 120 80 56 00
        E 0 80 62 00
        E 0 90 2a 60
        E 0 90 48 60
        E 0 90 54 60
        E 0 90 60 60
        E 120 80 48 00
        E 0 80 54 00
        E 0 80 60 00
        E 120 90 60 60
        E 120 80 2a 00
        E 0 80 60 00
        E 0 90 57 60
        E 0 90 63 60
        E 120 80 57 00
        E 0 80 63 00
        E 0 90 35 60
        E 0 90 3e 60
        E 0 90 4b 60
        E 0 90 57 60
        E 0 90 63 60
        E 120 80 3e 00
        E 0 80 4b 00
        E 0 80 57 00
        E 0 80 63 00
        E 120 90 57 60
        E 0 90 63 60
        E 120 80 35 00
        E 0 80 57 00
        E 0 80 63 00
        E 120 90 32 60
        E 0 90 3d 60
        E 0 90 4a 60
        E 0 90 56 60
        E 0 90 62 60
        E 120 80 3d 00
        E 0 80 4a 00
        E 0 80 56 00
        E 0 80 62 00
        E 240 80 32 00
        E 0 90 56 60
        E 0 90 62 60
        E 120 80 56 00
        E 0 80 62 00
        E 0 90 2a 60
        E 0 90 48 60
        E 0 90 54 60
        E 0 90 60 60
        E 120 80 48 00
        E 0 80 54 00
        E 0 80 60 00
        E 120 90 60 60
        E 120 80 2a 00
        E 0 80 60 00
        E 0 90 57 60
        E 0 90 63 60
        E 120 80 57 00
        E 0 80 63 00
        E 0 90 35 60
        E 0 90 3e 60
        E 0 90 4b 60
        E 0 90 57 60
        E 0 90 63 60
        E 120 80 3e 00
        E 0 80 4b 00
        E 0 80 57 00
        E 0 80 63 00
        E 120 90 57 60
        E 0 90 63 60
        E 120 80 35 00
        E 0 80 57 00
        E 0 80 63 00
        E 120 90 32 60
        E 0 90 3d 60
        E 0 90 4a 60
        E 0 90 56 60
        E 0 90 62 60
        E 120 80 3d 00
        E 0 80 4a 00
        E 0 80 56 00
        E 0 80 62 00
        E 240 80 32 00
        E 0 90 56 60
        E 0 90 62 60
        E 120 80 56 00
        E 0 80 62 00
        E 0 90 2a 60
        E 0 90 48 60
        E 0 90 54 60
        E 0 90 60 60
        E 120 80 48 00
        E 0 80 54 00
        E 0 80 60 00
        E 120 90 60 60
        E 120 80 2a 00
        E 0 80 60 00
        E 0 90 57 60
        E 0 90 63 60
        E 120 80 57 00
        E 0 80 63 00
        E 0 90 35 60
        E 0 90 3e 60
        E 0 90 4b 60
        E 0 90 57 60
        E 0 90 63 60
        E 120 80 3e 00
        E 0 80 4b 00
        E 0 80 57 00
        E 0 80 63 00
        E 120 90 57 60
        E 0 90 63 60
        E 120 80 35 00
        E 0 80 57 00
        E 0 80 63 00
        E 120 90 32 60
        E 0 90 3d 60
        E 0 90 4a 60
        E 0 90 56 60
        E 0 90 62 60
        E 120 80 3d 00
        E 0 80 4a 00
        E 0 80 56 00
        E 0 80 62 00
        E 240 80 32 00
        E 0 90 56 60
        E 0 90 62 60
        E 120 80 56 00
        E 0 80 62 00
        E 0 90 2a 60
        E 0 90 48 60
        E 0 90 54 60
        E 0 90 60 60
        E 120 80 48 00
        E 0 80 54 00
        E 0 80 60 00
        E 120 90 60 60
        E 120 80 2a 00
        E 0 80 60 00
        E 0 90 57 60
        E 0 90 63 60
        E 120 80 57 00
        E 0 80 63 00
        E 0 90 35 60
        E 0 90 3e 60
        E 0 90 4b 60
        E 0 90 57 60
        E 0 90 63 60
        E 120 80 3e 00
        E 0 80 4b 00
        E 0 80 57 00
        E 0 80 63 00
        E 120 90 57 60
        E 0 90 63 60
        E 120 80 35 00
        E 0 80 57 00
        E 0 80 63 00
        E 120 90 32 60
        E 0 90 3d 60
        E 0 90 4a 60
        E 0 90 56 60
        E 0 90 62 60
        E 120 80 3d 00
        E 0 80 4a 00
        E 0 80 56 00
        E 0 80 62 00
        E 240 80 32 00
        E 0 90 56 60
        E 0 90 62 60
        E 120 80 56 00
        E 0 80 62 00
        E 0 90 2a 60
        E 0 90 48 60
        E 0 90 54 60
        E 0 90 60 60
        E 120 80 48 00
        E 0 80 54 00
        E 0 80 60 00
        E 120 90 60 60
        E 120 80 2a 00
        E 0 80 60 00
        E 0 90 57 60
        E 0 90 63 60
        E 120 80 57 00
        E 0 80 63 00
        E 0 90 35 60
        E 0 90 3e 60
        E 0 90 4b 60
        E 0 90 57 60
        E 0 90 63 60
        E 120 80 3e 00
        E 0 80 4b 00
        E 0 80 57 00
        E 0 80 63 00
        E 120 90 57 60
        E 0 90 63 60
        E 120 80 35 00
        E 0 80 57 00
        E 0 80 63 00
        E 120 90 32 60
        E 0 90 3d 60
        E 0 90 4a 60
        E 0 90 56 60
        E 0 90 62 60
        E 120 80 3d 00
        E 0 80 4a 00
        E 0 80 56 00
        E 0 80 62 00
        E 240 80 32 00
        E 0 90 56 60
        E 0 90 62 60
        E 120 80 56 00
        E 0 80 62 00
        E 0 90 2a 60
        E 0 90 48 60
        E 0 90 54 60
        E 0 90 60 60
        E 120 80 48 00
        E 0 80 54 00
        E 0 80 60 00
        E 120 90 60 60
        E 120 80 2a 00
        E 0 80 60 00
        E 0 90 57 60
        E 0 90 63 60
        E 120 80 57 00
        E 0 80 63 00
        E 0 90 35 60
        E 0 90 3e 60
        E 0 90 4b 60
        E 0 90 57 60
        E 0 90 63 60
        E 120 80 3e 00
        E 0 80 4b 00
        E 0 80 57 00
        E 0 80 63 00
        E 120 90 57 60
        E 0 90 63 60
        E 120 80 35 00
        E 0 80 57 00
        E 0 80 63 00
        E 120 90 32 60
        E 0 90 3d 60
        E 0 90 4a 60
        E 0 90 56 60
        E 0 90 62 60
        E 120 80 3d 00
        E 0 80 4a 00
        E 0 80 56 00
        E 0 80 62 00
        E 240 80 32 00
        E 0 90 56 60
        E 0 90 62 60
        E 120 80 56 00
        E 0 80 62 00
        E 0 90 2a 60
        E 0 90 48 60
        E 0 90 54 60
        E 0 90 60 60
        E 120 80 48 00
        E 0 80 54 00
        E 0 80 60 00
        E 120 90 60 60
        E 120 80 2a 00
        E 0 80 60 00
        E 0 90 57 60
        E 0 90 63 60
        E 120 80 57 00
        E 0 80 63 00
        E 0 90 35 60
        E 0 90 3e 60
        E 0 90 4b 60
        E 0 90 57 60
        E 0 90 63 60
        E 120 80 3e 00
        E 0 80 4b 00
        E 0 80 57 00
        E 0 80 63 00
        E 120 90 57 60
        E 0 90 63 60
        E 120 80 35 00
        E 0 80 57 00
        E 0 80 63 00
        E 120 90 32 60
        E 0 90 3d 60
        E 0 90 4a 60
        E 0 90 56 60
        E 0 90 62 60
        E 120 80 3d 00
        E 0 80 4a 00
        E 0 80 56 00
        E 0 80 62 00
        E 240 80 32 00
        E 0 90 56 60
        E 0 90 62 60
        E 120 80 56 00
        E 0 80 62 00
        E 0 90 2a 60
        E 0 90 48 60
        E 0 90 54 60
        E 0 90 60 60
        E 120 80 48 00
        E 0 80 54 00
        E 0 80 60 00
        E 120 90 60 60
        E 120 80 2a 00
        E 0 80 60 00
        E 0 90 57 60
        E 0 90 63 60
        E 120 80 57 00
        E 0 80 63 00
        E 0 90 35 60
        E 0 90 3e 60
        E 0 90 4b 60
        E 0 90 57 60
        E 0 90 63 60
        E 120 80 3e 00
        E 0 80 4b 00
        E 0 80 57 00
        E 0 80 63 00
        E 120 90 57 60
        E 0 90 63 60
        E 120 80 35 00
        E 0 80 57 00
        E 0 80 63 00
        E 120 90 32 60
        E 0 90 3d 60
        E 0 90 4a 60
        E 0 90 56 60
        E 0 90 62 60
        E 120 80 3d 00
        E 0 80 4a 00
        E 0 80 56 00
        E 0 80 62 00
        E 240 80 32 00
        E 0 90 56 60
        E 0 90 62 60
        E 120 80 56 00
        E 0 80 62 00
        E 0 90 2a 60
        E 0 90 48 60
        E 0 90 54 60
        E 0 90 60 60
        E 120 80 48 00
        E 0 80 54 00
        E 0 80 60 00
        E 120 90 60 60
        E 120 80 2a 00
        E 0 80 60 00
        E 0 90 57 60
        E 0 90 63 60
        E 120 80 57 00
        E 0 80 63 00
        E 0 90 35 60
        E 0 90 3e 60
        E 0 90 4b 60
        E 0 90 57 60
        E 0 90 63 60
        E 120 80 3e 00
        E 0 80 4b 00
        E 0 80 57 00
        E 0 80 63 00
        E 120 90 57 60
        E 0 90 63 60
        E 120 80 35 00
        E 0 80 57 00
        E 0 80 63 00
        E 120 90 32 60
        E 0 90 3d 60
        E 0 90 4a 60
        E 0 90 56 60
        E 0 90 62 60
        E 120 80 3d 00
        E 0 80 4a 00
        E 0 80 56 00
        E 0 80 62 00
        E 240 80 32 00
        E 2520 b0 7b 00
        GUID {FFC9EAF6-6D28-474C-81BB-5F7D628FBD4A}
        IGNTEMPO 0 120.00000000 4 4
        SRCCOLOR 8
        VELLANE 132 128 60
        COLORMAP "C:\Program Files (x86)\REAPER\Data\color_maps\rockband_guitarbass.png"
        CFGEDITVIEW -10552.365922 7.432490 6 12 0 0 0
        CFGEDIT 1 1 0 1 1 1 1 1 1 1 1 0.25000000 -8 -8 1370 736 0 2 1 1 0.00000000 0 1 0 0 0.500000 0 0 1.000000 64
        KEYSNAP 0 0 "102034050607" 0 "Major"
        EVTFILTER 0 -1 -1 -1 -1 0 1 0 0 -1.00000000 -1.00000000
      >
    >
  >
  <TRACK '{D1793E9A-79C6-4C3F-BC48-E1B6B18F4C24}'
    NAME "PART GUITAR"
    PEAKCOL 16576
    BEAT -1
    AUTOMODE 0
    VOLPAN 1.00000000000000 0.00000000000000 -1.00000000000000 -1.00000000000000 1.00000000000000
    MUTESOLO 0 0 0
    IPHASE 0
    ISBUS 0 0
    BUSCOMP 0 0
    SHOWINMIX 1 0.666700 0.500000 1 0.500000 -1 -1 -1
    FREEMODE 0
    SEL 0
    REC 0 0 0 0 0 0 0
    VU 2
    TRACKHEIGHT 0 0
    INQ 0 0 0 0.5000000000 100 0 0 100
    NCHAN 2
    FX 1
    TRACKID {D1793E9A-79C6-4C3F-BC48-E1B6B18F4C24}
    PERF 0
    MIDIOUT -1
    <MIDINOTENAMES
      0 127 "TRILL MARKER"
      0 126 "TREMOLO MARKER"
      0 125 "---"
      0 124 "BRE"
      0 123 "BRE"
      0 122 "BRE"
      0 121 "BRE"
      0 120 "BRE (use all 5)"
      0 119 "----"
      0 116 "OVERDRIVE"
      0 115 "----"
      0 103 "Solo Marker"
      0 102 "Force HOPO Off"
      0 101 "Force HOPO On"
      0 100 "EXPERT Orange"
      0 99 "EXPERT Blue"
      0 98 "EXPERT Yellow"
      0 97 "EXPERT Red"
      0 96 "EXPERT Green"
      0 95 "----"
      0 90 "Force HOPO Off"
      0 89 "Force HOPO On"
      0 88 "HARD Orange"
      0 87 "HARD Blue"
      0 86 "HARD Yellow"
      0 85 "HARD Red"
      0 84 "HARD Green"
      0 77 "----"
      0 76 "MEDIUM Orange"
      0 75 "MEDIUM Blue"
      0 74 "MEDIUM Yellow"
      0 73 "MEDIUM Red"
      0 72 "MEDIUM Green"
      0 65 "----"
      0 64 "EASY Orange"
      0 63 "EASY Blue"
      0 62 "EASY Yellow"
      0 61 "EASY Red"
      0 60 "EASY Green"
      0 59 "Left Hand Highest"
      0 58 "-"
      0 57 "-"
      0 56 "-"
      0 55 "-"
      0 54 "-"
      0 53 "-"
      0 52 "-"
      0 51 "-"
      0 50 "-"
      0 49 "-"
      0 48 "-"
      0 47 "-"
      0 46 "-"
      0 45 "-"
      0 44 "-"
      0 43 "-"
      0 42 "-"
      0 41 "-"
      0 40 "Left Hand Lowest"
    >
    MAINSEND 1 0
    <FXCHAIN
      WNDRECT 378 125 878 554
      SHOW 0
      LASTSEL 2
      DOCKED 0
      BYPASS 0 0
      <JS "MIDI/midi_note_filter" ""
        96.000000 100.000000 - - - - - - - - - - - - - - - - - - - - - - - - - - - - - - - - - - - - - - - - - - - - - - - - - - - - - - - - - - - - - - 
      >
      FLOATPOS 0 0 0 0
      FXID {D2AF9093-4B25-4B27-8ED7-C4CB7F935A56}
      WAK 0
      BYPASS 1 0
      <VST "VSTi: ReaSynth (Cockos)" "reasynth.dll" 0 ""
        eXNlcu9e7f4AAAAAAgAAAAEAAAAAAAAAAgAAAAAAAAA4AAAAAAAAAA==
        AAAQAO++rd4N8K3eppvEOxe30ToAAAAAAAAAAAAAAADOTQA/OsauOQ==
        AAAAAAAAAAAAAAAAAAAAAAAAAAAAABAAAAA=
      >
      FLOATPOS 0 0 0 0
      FXID {E99F000A-D9F5-4FF4-9D63-5C327BD3C971}
      WAK 0
      BYPASS 0 0
      <VST "VSTi: RBN Preview (RBN)" "rbprev_vst64.dll" 0 ""
        dnBicu5e7f4AAAAAAgAAAAEAAAAAAAAAAgAAAAAAAAAEAAAAAQAAAA==
        AAAQAAAAqgAAABAAAAA=
      >
      FLOATPOS 0 0 0 0
      FXID {A69FAA54-347E-44F0-BC10-5D44E47EF425}
      WAK 0
    >
    <ITEM
      POSITION 0.00000000000000
      SNAPOFFS 0.00000000025906
      LENGTH 145.04278159266019
      LOOP 0
      ALLTAKES 0
      SEL 0
      FADEIN 1 0.000000 0.000000 1 0
      FADEOUT 1 0.000000 0.000000 1 0
      MUTE 0
      IGUID {27473DCB-B722-4F35-8ADE-7C57FAD49FB0}
      IID 6
      NAME "PART GUITAR"
      VOLPAN 1.000000 0.000000 1.000000 -1.000000
      SOFFS -0.00000000025906 -0.00000000050999
      PLAYRATE 1.00000000000000 1 0.00000000000000 -1
      CHANMODE 0
      GUID {3E7924C1-1664-4D97-891F-F3F54044154E}
      <SOURCE MIDI
        HASDATA 1 480 QN
        POOLEDEVTS {8E46869B-D64C-4FF8-AA48-4373C62A3CC5}
        <X 0 0
          /wNQQVJUIEdVSVRBUg==
        >
        <X 2880 0
          /wFbbWVsbG93XQ==
        >
        E 0 90 33 64
        E 0 90 3c 60
        E 0 90 48 64
        E 0 90 49 64
        E 0 90 54 64
        E 0 90 56 64
        E 0 90 60 64
        E 0 90 62 64
        E 120 80 3c 00
        E 0 80 48 00
        E 0 80 49 00
        E 0 80 54 00
        E 0 80 56 00
        E 0 80 60 00
        E 0 80 62 00
        E 120 80 33 00
        E 120 90 2d 64
        E 0 90 56 64
        E 0 90 57 64
        E 0 90 62 64
        E 0 90 63 64
        E 120 80 56 00
        E 0 80 57 00
        E 0 80 62 00
        E 0 80 63 00
        E 120 90 56 64
        E 0 90 57 64
        E 0 90 62 64
        E 0 90 63 64
        E 120 80 56 00
        E 0 80 57 00
        E 0 80 62 00
        E 0 80 63 00
        E 120 90 62 64
        E 0 90 63 64
        E 120 80 2d 00
        E 0 80 62 00
        E 0 80 63 00
        E 0 90 36 64
        E 0 90 3d 60
        E 0 90 49 64
        E 0 90 4a 64
        E 0 90 55 64
        E 0 90 57 64
        E 0 90 61 64
        E 0 90 63 64
        E 120 80 3d 00
        E 0 80 49 00
        E 0 80 4a 00
        E 0 80 55 00
        E 0 80 57 00
        E 0 80 61 00
        E 0 80 63 00
        E 120 90 55 64
        E 0 90 57 64
        E 0 90 61 64
        E 0 90 63 64
        E 120 80 36 00
        E 0 80 55 00
        E 0 80 57 00
        E 0 80 61 00
        E 0 80 63 00
        E 120 90 33 64
        E 0 90 3c 60
        E 0 90 48 64
        E 0 90 49 64
        E 0 90 54 64
        E 0 90 56 64
        E 0 90 60 64
        E 0 90 62 64
        E 120 80 3c 00
        E 0 80 48 00
        E 0 80 49 00
        E 0 80 54 00
        E 0 80 56 00
        E 0 80 60 00
        E 0 80 62 00
        E 120 80 33 00
        E 120 90 2d 64
        E 0 90 56 64
        E 0 90 57 64
        E 0 90 62 64
        E 0 90 63 64
        E 120 80 56 00
        E 0 80 57 00
        E 0 80 62 00
        E 0 80 63 00
        E 120 90 56 64
        E 0 90 57 64
        E 0 90 62 64
        E 0 90 63 64
        E 120 80 56 00
        E 0 80 57 00
        E 0 80 62 00
        E 0 80 63 00
        E 120 90 62 64
        E 0 90 63 64
        E 120 80 2d 00
        E 0 80 62 00
        E 0 80 63 00
        E 0 90 36 64
        E 0 90 3d 60
        E 0 90 49 64
        E 0 90 4a 64
        E 0 90 55 64
        E 0 90 57 64
        E 0 90 61 64
        E 0 90 63 64
        E 120 80 3d 00
        E 0 80 49 00
        E 0 80 4a 00
        E 0 80 55 00
        E 0 80 57 00
        E 0 80 61 00
        E 0 80 63 00
        E 240 80 36 00
        E 120 90 33 64
        E 0 90 3c 60
        E 0 90 48 64
        E 0 90 49 64
        E 0 90 54 64
        E 0 90 56 64
        E 0 90 60 64
        E 0 90 62 64
        E 0 90 74 64
        E 120 80 3c 00
        E 0 80 48 00
        E 0 80 49 00
        E 0 80 54 00
        E 0 80 56 00
        E 0 80 60 00
        E 0 80 62 00
        E 120 80 33 00
        E 120 90 2d 64
        E 0 90 56 64
        E 0 90 57 64
        E 0 90 62 64
        E 0 90 63 64
        E 120 80 56 00
        E 0 80 57 00
        E 0 80 62 00
        E 0 80 63 00
        E 120 90 56 64
        E 0 90 57 64
        E 0 90 62 64
        E 0 90 63 64
        E 120 80 56 00
        E 0 80 57 00
        E 0 80 62 00
        E 0 80 63 00
        E 120 90 62 64
        E 0 90 63 64
        E 120 80 2d 00
        E 0 80 62 00
        E 0 80 63 00
        E 0 90 36 64
        E 0 90 3d 60
        E 0 90 49 64
        E 0 90 4a 64
        E 0 90 55 64
        E 0 90 57 64
        E 0 90 59 60
        E 0 90 61 64
        E 0 90 63 64
        E 0 90 65 64
        E 120 80 3d 00
        E 0 80 49 00
        E 0 80 4a 00
        E 0 80 55 00
        E 0 80 57 00
        E 0 80 59 00
        E 0 80 61 00
        E 0 80 63 00
        E 0 80 65 00
        E 120 90 55 64
        E 0 90 57 64
        E 0 90 61 64
        E 0 90 63 64
        E 120 80 74 00
        E 0 80 36 00
        E 0 80 55 00
        E 0 80 57 00
        E 0 80 61 00
        E 0 80 63 00
        E 120 90 33 64
        E 0 90 3c 60
        E 0 90 48 64
        E 0 90 49 64
        E 0 90 54 64
        E 0 90 56 64
        E 0 90 60 64
        E 0 90 62 64
        E 120 80 3c 00
        E 0 80 48 00
        E 0 80 49 00
        E 0 80 54 00
        E 0 80 56 00
        E 0 80 60 00
        E 0 80 62 00
        E 120 80 33 00
        E 120 90 2d 64
        E 0 90 56 64
        E 0 90 57 64
        E 0 90 62 64
        E 0 90 63 64
        E 120 80 56 00
        E 0 80 57 00
        E 0 80 62 00
        E 0 80 63 00
        E 120 90 56 64
        E 0 90 57 64
        E 0 90 62 64
        E 0 90 63 64
        E 120 80 56 00
        E 0 80 57 00
        E 0 80 62 00
        E 0 80 63 00
        E 120 90 62 64
        E 0 90 63 64
        E 120 80 2d 00
        E 0 80 62 00
        E 0 80 63 00
        E 0 90 36 64
        E 0 90 3d 60
        E 0 90 49 64
        E 0 90 4a 64
        E 0 90 55 64
        E 0 90 57 64
        E 0 90 61 64
        E 0 90 63 64
        E 120 80 3d 00
        E 0 80 49 00
        E 0 80 4a 00
        E 0 80 55 00
        E 0 80 57 00
        E 0 80 61 00
        E 0 80 63 00
        E 240 80 36 00
        E 120 90 33 64
        E 0 90 3c 60
        E 0 90 48 64
        E 0 90 49 64
        E 0 90 54 64
        E 0 90 56 64
        E 0 90 60 64
        E 0 90 62 64
        E 120 80 3c 00
        E 0 80 48 00
        E 0 80 49 00
        E 0 80 54 00
        E 0 80 56 00
        E 0 80 60 00
        E 0 80 62 00
        E 120 80 33 00
        E 120 90 2d 64
        E 0 90 56 64
        E 0 90 57 64
        E 0 90 62 64
        E 0 90 63 64
        E 120 80 56 00
        E 0 80 57 00
        E 0 80 62 00
        E 0 80 63 00
        E 120 90 56 64
        E 0 90 57 64
        E 0 90 62 64
        E 0 90 63 64
        E 120 80 56 00
        E 0 80 57 00
        E 0 80 62 00
        E 0 80 63 00
        E 120 90 62 64
        E 0 90 63 64
        E 120 80 2d 00
        E 0 80 62 00
        E 0 80 63 00
        E 0 90 36 64
        E 0 90 3d 60
        E 0 90 49 64
        E 0 90 4a 64
        E 0 90 55 64
        E 0 90 57 64
        E 0 90 59 60
        E 0 90 61 64
        E 0 90 63 64
        E 0 90 65 64
        E 120 80 3d 00
        E 0 80 49 00
        E 0 80 4a 00
        E 0 80 55 00
        E 0 80 57 00
        E 0 80 59 00
        E 0 80 61 00
        E 0 80 63 00
        E 0 80 65 00
        E 120 90 55 64
        E 0 90 57 64
        E 0 90 61 64
        E 0 90 63 64
        E 120 80 36 00
        E 0 80 55 00
        E 0 80 57 00
        E 0 80 61 00
        E 0 80 63 00
        E 120 90 33 64
        E 0 90 3c 60
        E 0 90 48 64
        E 0 90 49 64
        E 0 90 54 64
        E 0 90 56 64
        E 0 90 60 64
        E 0 90 62 64
        E 120 80 3c 00
        E 0 80 48 00
        E 0 80 49 00
        E 0 80 54 00
        E 0 80 56 00
        E 0 80 60 00
        E 0 80 62 00
        E 120 80 33 00
        E 120 90 2d 64
        E 0 90 56 64
        E 0 90 57 64
        E 0 90 62 64
        E 0 90 63 64
        E 120 80 56 00
        E 0 80 57 00
        E 0 80 62 00
        E 0 80 63 00
        E 120 90 56 64
        E 0 90 57 64
        E 0 90 62 64
        E 0 90 63 64
        E 120 80 56 00
        E 0 80 57 00
        E 0 80 62 00
        E 0 80 63 00
        E 120 90 62 64
        E 0 90 63 64
        E 120 80 2d 00
        E 0 80 62 00
        E 0 80 63 00
        E 0 90 36 64
        E 0 90 3d 60
        E 0 90 49 64
        E 0 90 4a 64
        E 0 90 55 64
        E 0 90 57 64
        E 0 90 59 60
        E 0 90 61 64
        E 0 90 63 64
        E 0 90 65 64
        E 120 80 3d 00
        E 0 80 49 00
        E 0 80 4a 00
        E 0 80 55 00
        E 0 80 57 00
        E 0 80 59 00
        E 0 80 61 00
        E 0 80 63 00
        E 0 80 65 00
        E 240 80 36 00
        E 120 90 33 64
        E 0 90 3c 60
        E 0 90 48 64
        E 0 90 49 64
        E 0 90 54 64
        E 0 90 56 64
        E 0 90 60 64
        E 0 90 62 64
        E 120 80 3c 00
        E 0 80 48 00
        E 0 80 49 00
        E 0 80 54 00
        E 0 80 56 00
        E 0 80 60 00
        E 0 80 62 00
        E 120 80 33 00
        E 120 90 2d 64
        E 0 90 56 64
        E 0 90 57 64
        E 0 90 62 64
        E 0 90 63 64
        E 120 80 56 00
        E 0 80 57 00
        E 0 80 62 00
        E 0 80 63 00
        E 120 90 56 64
        E 0 90 57 64
        E 0 90 62 64
        E 0 90 63 64
        E 120 80 56 00
        E 0 80 57 00
        E 0 80 62 00
        E 0 80 63 00
        E 120 90 62 64
        E 0 90 63 64
        E 120 80 2d 00
        E 0 80 62 00
        E 0 80 63 00
        E 0 90 36 64
        E 0 90 3d 60
        E 0 90 49 64
        E 0 90 4a 64
        E 0 90 55 64
        E 0 90 57 64
        E 0 90 59 60
        E 0 90 61 64
        E 0 90 63 64
        E 0 90 65 64
        E 120 80 3d 00
        E 0 80 49 00
        E 0 80 4a 00
        E 0 80 55 00
        E 0 80 57 00
        E 0 80 59 00
        E 0 80 61 00
        E 0 80 63 00
        E 0 80 65 00
        E 120 90 55 64
        E 0 90 57 64
        E 0 90 61 64
        E 0 90 63 64
        E 120 80 36 00
        E 0 80 55 00
        E 0 80 57 00
        E 0 80 61 00
        E 0 80 63 00
        E 120 90 33 64
        E 0 90 3c 60
        E 0 90 48 64
        E 0 90 49 64
        E 0 90 54 64
        E 0 90 56 64
        E 0 90 60 64
        E 0 90 62 64
        E 120 80 3c 00
        E 0 80 48 00
        E 0 80 49 00
        E 0 80 54 00
        E 0 80 56 00
        E 0 80 60 00
        E 0 80 62 00
        E 120 80 33 00
        E 120 90 2d 64
        E 0 90 56 64
        E 0 90 57 64
        E 0 90 62 64
        E 0 90 63 64
        E 120 80 56 00
        E 0 80 57 00
        E 0 80 62 00
        E 0 80 63 00
        E 120 90 56 64
        E 0 90 57 64
        E 0 90 62 64
        E 0 90 63 64
        E 120 80 56 00
        E 0 80 57 00
        E 0 80 62 00
        E 0 80 63 00
        E 120 90 62 64
        E 0 90 63 64
        E 120 80 2d 00
        E 0 80 62 00
        E 0 80 63 00
        E 0 90 36 64
        E 0 90 3d 60
        E 0 90 49 64
        E 0 90 4a 64
        E 0 90 55 64
        E 0 90 57 64
        E 0 90 61 64
        E 0 90 63 64
        E 120 80 3d 00
        E 0 80 49 00
        E 0 80 4a 00
        E 0 80 55 00
        E 0 80 57 00
        E 0 80 61 00
        E 0 80 63 00
        E 240 80 36 00
        E 120 90 33 64
        E 0 90 3c 60
        E 0 90 48 64
        E 0 90 49 64
        E 0 90 54 64
        E 0 90 56 64
        E 0 90 60 64
        E 0 90 62 64
        E 120 80 3c 00
        E 0 80 48 00
        E 0 80 49 00
        E 0 80 54 00
        E 0 80 56 00
        E 0 80 60 00
        E 0 80 62 00
        E 120 80 33 00
        E 120 90 2d 64
        E 0 90 56 64
        E 0 90 57 64
        E 0 90 62 64
        E 0 90 63 64
        E 120 80 56 00
        E 0 80 57 00
        E 0 80 62 00
        E 0 80 63 00
        E 120 90 56 64
        E 0 90 57 64
        E 0 90 62 64
        E 0 90 63 64
        E 120 80 56 00
        E 0 80 57 00
        E 0 80 62 00
        E 0 80 63 00
        E 120 90 62 64
        E 0 90 63 64
        E 120 80 2d 00
        E 0 80 62 00
        E 0 80 63 00
        E 0 90 36 64
        E 0 90 3d 60
        E 0 90 49 64
        E 0 90 4a 64
        E 0 90 55 64
        E 0 90 57 64
        E 0 90 59 60
        E 0 90 61 64
        E 0 90 63 64
        E 0 90 65 64
        E 120 80 3d 00
        E 0 80 49 00
        E 0 80 4a 00
        E 0 80 55 00
        E 0 80 57 00
        E 0 80 59 00
        E 0 80 61 00
        E 0 80 63 00
        E 0 80 65 00
        E 120 90 55 64
        E 0 90 57 64
        E 0 90 61 64
        E 0 90 63 64
        E 120 80 36 00
        E 0 80 55 00
        E 0 80 57 00
        E 0 80 61 00
        E 0 80 63 00
        E 120 90 33 64
        E 0 90 3c 60
        E 0 90 48 64
        E 0 90 49 64
        E 0 90 54 64
        E 0 90 56 64
        E 0 90 60 64
        E 0 90 62 64
        E 120 80 3c 00
        E 0 80 48 00
        E 0 80 49 00
        E 0 80 54 00
        E 0 80 56 00
        E 0 80 60 00
        E 0 80 62 00
        E 120 80 33 00
        E 120 90 2d 64
        E 0 90 56 64
        E 0 90 57 64
        E 0 90 62 64
        E 0 90 63 64
        E 120 80 56 00
        E 0 80 57 00
        E 0 80 62 00
        E 0 80 63 00
        E 120 90 56 64
        E 0 90 57 64
        E 0 90 62 64
        E 0 90 63 64
        E 120 80 56 00
        E 0 80 57 00
        E 0 80 62 00
        E 0 80 63 00
        E 120 90 62 64
        E 0 90 63 64
        E 120 80 2d 00
        E 0 80 62 00
        E 0 80 63 00
        E 0 90 36 64
        E 0 90 3d 60
        E 0 90 49 64
        E 0 90 4a 64
        E 0 90 55 64
        E 0 90 57 64
        E 0 90 61 64
        E 0 90 63 64
        E 120 80 3d 00
        E 0 80 49 00
        E 0 80 4a 00
        E 0 80 55 00
        E 0 80 57 00
        E 0 80 61 00
        E 0 80 63 00
        E 240 80 36 00
        E 120 90 33 64
        E 0 90 3c 60
        E 0 90 48 64
        E 0 90 49 64
        E 0 90 54 64
        E 0 90 56 64
        E 0 90 60 64
        E 0 90 62 64
        E 120 80 3c 00
        E 0 80 48 00
        E 0 80 49 00
        E 0 80 54 00
        E 0 80 56 00
        E 0 80 60 00
        E 0 80 62 00
        E 120 80 33 00
        E 120 90 2d 64
        E 0 90 56 64
        E 0 90 57 64
        E 0 90 62 64
        E 0 90 63 64
        E 120 80 56 00
        E 0 80 57 00
        E 0 80 62 00
        E 0 80 63 00
        E 120 90 56 64
        E 0 90 57 64
        E 0 90 62 64
        E 0 90 63 64
        E 120 80 56 00
        E 0 80 57 00
        E 0 80 62 00
        E 0 80 63 00
        E 120 90 62 64
        E 0 90 63 64
        E 120 80 2d 00
        E 0 80 62 00
        E 0 80 63 00
        E 0 90 36 64
        E 0 90 3d 60
        E 0 90 49 64
        E 0 90 4a 64
        E 0 90 55 64
        E 0 90 57 64
        E 0 90 59 60
        E 0 90 61 64
        E 0 90 63 64
        E 0 90 65 64
        E 120 80 3d 00
        E 0 80 49 00
        E 0 80 4a 00
        E 0 80 55 00
        E 0 80 57 00
        E 0 80 59 00
        E 0 80 61 00
        E 0 80 63 00
        E 0 80 65 00
        E 120 90 55 64
        E 0 90 57 64
        E 0 90 61 64
        E 0 90 63 64
        E 120 80 36 00
        E 0 80 55 00
        E 0 80 57 00
        E 0 80 61 00
        E 0 80 63 00
        E 120 90 33 64
        E 0 90 3c 60
        E 0 90 48 64
        E 0 90 49 64
        E 0 90 54 64
        E 0 90 56 64
        E 0 90 60 64
        E 0 90 62 64
        E 120 80 3c 00
        E 0 80 48 00
        E 0 80 49 00
        E 0 80 54 00
        E 0 80 56 00
        E 0 80 60 00
        E 0 80 62 00
        E 120 80 33 00
        E 120 90 2d 64
        E 0 90 56 64
        E 0 90 57 64
        E 0 90 62 64
        E 0 90 63 64
        E 120 80 56 00
        E 0 80 57 00
        E 0 80 62 00
        E 0 80 63 00
        E 120 90 56 64
        E 0 90 57 64
        E 0 90 62 64
        E 0 90 63 64
        E 120 80 56 00
        E 0 80 57 00
        E 0 80 62 00
        E 0 80 63 00
        E 120 90 62 64
        E 0 90 63 64
        E 120 80 2d 00
        E 0 80 62 00
        E 0 80 63 00
        E 0 90 36 64
        E 0 90 3d 60
        E 0 90 49 64
        E 0 90 4a 64
        E 0 90 55 64
        E 0 90 57 64
        E 0 90 61 64
        E 0 90 63 64
        E 120 80 3d 00
        E 0 80 49 00
        E 0 80 4a 00
        E 0 80 55 00
        E 0 80 57 00
        E 0 80 61 00
        E 0 80 63 00
        E 240 80 36 00
        E 120 90 34 64
        E 0 90 3d 60
        E 0 90 48 64
        E 0 90 4a 64
        E 0 90 56 64
        E 0 90 58 64
        E 0 90 62 64
        E 0 90 64 64
        E 120 80 3d 00
        E 0 80 48 00
        E 0 80 4a 00
        E 0 80 56 00
        E 0 80 58 00
        E 0 80 62 00
        E 0 80 64 00
        E 120 90 62 64
        E 120 80 62 00
        E 0 90 56 64
        E 0 90 58 64
        E 0 90 62 64
        E 0 90 64 64
        E 120 80 56 00
        E 0 80 58 00
        E 0 80 62 00
        E 0 80 64 00
        E 120 90 62 64
        E 120 80 62 00
        E 0 90 3d 60
        E 0 90 48 64
        E 0 90 4a 64
        E 0 90 56 64
        E 0 90 58 64
        E 0 90 62 64
        E 0 90 64 64
        E 120 80 3d 00
        E 0 80 48 00
        E 0 80 4a 00
        E 0 80 56 00
        E 0 80 58 00
        E 0 80 62 00
        E 0 80 64 00
        E 120 90 62 64
        E 120 80 62 00
        E 0 90 56 64
        E 0 90 58 64
        E 0 90 62 64
        E 0 90 64 64
        E 120 80 56 00
        E 0 80 58 00
        E 0 80 62 00
        E 0 80 64 00
        E 120 80 34 00
        E 0 90 62 64
        E 120 80 62 00
        E 0 90 36 64
        E 0 90 57 64
        E 0 90 58 64
        E 0 90 63 64
        E 0 90 64 64
        E 120 80 57 00
        E 0 80 58 00
        E 0 80 63 00
        E 0 80 64 00
        E 120 90 3e 60
        E 0 90 4a 64
        E 0 90 4b 64
        E 0 90 57 64
        E 0 90 58 64
        E 0 90 63 64
        E 0 90 64 64
        E 120 80 3e 00
        E 0 80 4a 00
        E 0 80 4b 00
        E 0 80 57 00
        E 0 80 58 00
        E 0 80 63 00
        E 0 80 64 00
        E 120 90 63 64
        E 120 80 63 00
        E 0 90 57 64
        E 0 90 58 64
        E 0 90 63 64
        E 0 90 64 64
        E 120 80 57 00
        E 0 80 58 00
        E 0 80 63 00
        E 0 80 64 00
        E 120 90 63 64
        E 120 80 63 00
        E 0 90 4a 64
        E 0 90 4b 64
        E 0 90 57 64
        E 0 90 58 64
        E 0 90 63 64
        E 0 90 64 64
        E 120 80 4a 00
        E 0 80 4b 00
        E 0 80 57 00
        E 0 80 58 00
        E 0 80 63 00
        E 0 80 64 00
        E 120 90 62 64
        E 120 80 36 00
        E 0 80 62 00
        E 0 90 56 64
        E 0 90 58 64
        E 0 90 62 64
        E 0 90 64 64
        E 120 80 56 00
        E 0 80 58 00
        E 0 80 62 00
        E 0 80 64 00
        E 0 90 34 64
        E 120 90 62 64
        E 120 80 62 00
        E 0 90 3d 60
        E 0 90 48 64
        E 0 90 4a 64
        E 0 90 56 64
        E 0 90 58 64
        E 0 90 62 64
        E 0 90 64 64
        E 120 80 3d 00
        E 0 80 48 00
        E 0 80 4a 00
        E 0 80 56 00
        E 0 80 58 00
        E 0 80 62 00
        E 0 80 64 00
        E 120 90 62 64
        E 120 80 62 00
        E 0 90 56 64
        E 0 90 58 64
        E 0 90 62 64
        E 0 90 64 64
        E 120 80 56 00
        E 0 80 58 00
        E 0 80 62 00
        E 0 80 64 00
        E 120 90 56 64
        E 0 90 58 64
        E 0 90 62 64
        E 0 90 64 64
        E 120 80 56 00
        E 0 80 58 00
        E 0 80 62 00
        E 0 80 64 00
        E 120 90 56 64
        E 0 90 58 64
        E 0 90 62 64
        E 0 90 64 64
        E 120 80 56 00
        E 0 80 58 00
        E 0 80 62 00
        E 0 80 64 00
        E 120 80 34 00
        E 0 90 3e 60
        E 0 90 4a 64
        E 0 90 4b 64
        E 0 90 57 64
        E 0 90 58 64
        E 0 90 63 64
        E 0 90 64 64
        E 120 80 3e 00
        E 0 80 4a 00
        E 0 80 4b 00
        E 0 80 57 00
        E 0 80 58 00
        E 0 80 63 00
        E 0 80 64 00
        E 0 90 36 64
        E 240 90 57 64
        E 0 90 58 64
        E 0 90 63 64
        E 0 90 64 64
        E 120 80 57 00
        E 0 80 58 00
        E 0 80 63 00
        E 0 80 64 00
        E 240 90 3e 60
        E 0 90 4a 64
        E 0 90 4b 64
        E 0 90 57 64
        E 0 90 58 64
        E 0 90 63 64
        E 0 90 64 64
        E 120 80 3e 00
        E 0 80 4a 00
        E 0 80 4b 00
        E 0 80 57 00
        E 0 80 58 00
        E 0 80 63 00
        E 0 80 64 00
        E 240 90 57 64
        E 0 90 58 64
        E 0 90 63 64
        E 0 90 64 64
        E 120 80 57 00
        E 0 80 58 00
        E 0 80 63 00
        E 0 80 64 00
        E 120 90 56 64
        E 0 90 62 64
        E 120 80 36 00
        E 0 80 56 00
        E 0 80 62 00
        E 0 90 48 64
        E 0 90 56 64
        E 0 90 62 64
        E 120 80 48 00
        E 0 80 56 00
        E 0 80 62 00
        E 0 90 34 64
        E 0 90 74 64
        E 120 90 62 64
        E 120 80 62 00
        E 0 90 3d 60
        E 0 90 48 64
        E 0 90 4a 64
        E 0 90 56 64
        E 0 90 58 64
        E 0 90 62 64
        E 0 90 64 64
        E 120 80 3d 00
        E 0 80 48 00
        E 0 80 4a 00
        E 0 80 56 00
        E 0 80 58 00
        E 0 80 62 00
        E 0 80 64 00
        E 120 90 62 64
        E 120 80 62 00
        E 0 90 56 64
        E 0 90 58 64
        E 0 90 62 64
        E 0 90 64 64
        E 120 80 56 00
        E 0 80 58 00
        E 0 80 62 00
        E 0 80 64 00
        E 120 90 62 64
        E 120 80 62 00
        E 0 90 3d 60
        E 0 90 48 64
        E 0 90 4a 64
        E 0 90 56 64
        E 0 90 58 64
        E 0 90 62 64
        E 0 90 64 64
        E 120 80 3d 00
        E 0 80 48 00
        E 0 80 4a 00
        E 0 80 56 00
        E 0 80 58 00
        E 0 80 62 00
        E 0 80 64 00
        E 120 90 62 64
        E 120 80 34 00
        E 0 80 62 00
        E 0 90 4a 64
        E 0 90 4b 64
        E 0 90 57 64
        E 0 90 58 64
        E 0 90 63 64
        E 0 90 64 64
        E 120 80 4a 00
        E 0 80 4b 00
        E 0 80 57 00
        E 0 80 58 00
        E 0 80 63 00
        E 0 80 64 00
        E 0 90 36 64
        E 120 90 63 64
        E 120 80 63 00
        E 0 90 3e 60
        E 0 90 57 64
        E 0 90 58 64
        E 0 90 63 64
        E 0 90 64 64
        E 120 80 3e 00
        E 0 80 57 00
        E 0 80 58 00
        E 0 80 63 00
        E 0 80 64 00
        E 120 90 63 64
        E 120 80 63 00
        E 0 90 3e 60
        E 0 90 4a 64
        E 0 90 4b 64
        E 0 90 57 64
        E 0 90 58 64
        E 0 90 63 64
        E 0 90 64 64
        E 120 80 3e 00
        E 0 80 4a 00
        E 0 80 4b 00
        E 0 80 57 00
        E 0 80 58 00
        E 0 80 63 00
        E 0 80 64 00
        E 120 90 57 64
        E 0 90 58 64
        E 0 90 63 64
        E 0 90 64 64
        E 120 80 57 00
        E 0 80 58 00
        E 0 80 63 00
        E 0 80 64 00
        E 120 90 57 64
        E 0 90 58 64
        E 0 90 63 64
        E 0 90 64 64
        E 120 80 57 00
        E 0 80 58 00
        E 0 80 63 00
        E 0 80 64 00
        E 120 80 36 00
        E 0 90 3d 60
        E 0 90 56 64
        E 0 90 58 64
        E 0 90 62 64
        E 0 90 64 64
        E 120 80 74 00
        E 0 80 3d 00
        E 0 80 56 00
        E 0 80 58 00
        E 0 80 62 00
        E 0 80 64 00
        E 0 90 34 64
        E 120 90 62 64
        E 120 80 62 00
        E 0 90 48 64
        E 0 90 4a 64
        E 0 90 56 64
        E 0 90 58 64
        E 0 90 62 64
        E 0 90 64 64
        E 120 80 48 00
        E 0 80 4a 00
        E 0 80 56 00
        E 0 80 58 00
        E 0 80 62 00
        E 0 80 64 00
        E 120 90 62 64
        E 120 80 62 00
        E 0 90 56 64
        E 0 90 58 64
        E 0 90 62 64
        E 0 90 64 64
        E 120 80 56 00
        E 0 80 58 00
        E 0 80 62 00
        E 0 80 64 00
        E 120 90 62 64
        E 120 80 62 00
        E 0 90 48 64
        E 0 90 4a 64
        E 0 90 56 64
        E 0 90 58 64
        E 0 90 62 64
        E 0 90 64 64
        E 120 80 48 00
        E 0 80 4a 00
        E 0 80 56 00
        E 0 80 58 00
        E 0 80 62 00
        E 0 80 64 00
        E 120 90 61 64
        E 120 80 34 00
        E 0 80 61 00
        E 0 90 3e 60
        E 0 90 55 64
        E 0 90 58 64
        E 0 90 61 64
        E 0 90 64 64
        <X 120 0
          /wFbcGxheV0=
        >
        E 0 80 3e 00
        E 0 80 55 00
        E 0 80 58 00
        E 0 80 61 00
        E 0 80 64 00
        E 0 90 36 64
        E 120 90 61 64
        E 120 80 61 00
        E 0 90 48 64
        E 0 90 4b 64
        E 0 90 55 64
        E 0 90 58 64
        E 0 90 61 64
        E 0 90 64 64
        E 120 80 48 00
        E 0 80 4b 00
        E 0 80 55 00
        E 0 80 58 00
        E 0 80 61 00
        E 0 80 64 00
        E 120 90 61 64
        E 120 80 61 00
        E 0 90 55 64
        E 0 90 58 64
        E 0 90 61 64
        E 0 90 64 64
        E 120 80 55 00
        E 0 80 58 00
        E 0 80 61 00
        E 0 80 64 00
        E 120 90 61 64
        E 120 80 61 00
        E 0 90 3e 60
        E 0 90 48 64
        E 0 90 4b 64
        E 0 90 55 64
        E 0 90 58 64
        E 0 90 61 64
        E 0 90 64 64
        E 120 80 3e 00
        E 0 80 48 00
        E 0 80 4b 00
        E 0 80 55 00
        E 0 80 58 00
        E 0 80 61 00
        E 0 80 64 00
        E 240 80 36 00
        <X 120 0
          /wFbaW50ZW5zZV0=
        >
        E 0 90 39 64
        E 0 90 57 64
        E 0 90 63 64
        E 120 80 57 00
        E 0 80 63 00
        E 0 90 63 64
        E 120 80 63 00
        E 0 90 3e 60
        E 0 90 4a 64
        E 0 90 4b 64
        E 0 90 57 64
        E 0 90 58 64
        E 0 90 63 64
        E 0 90 64 64
        E 120 80 39 00
        E 0 80 3e 00
        E 0 80 4a 00
        E 0 80 4b 00
        E 0 80 57 00
        E 0 80 58 00
        E 0 80 63 00
        E 0 80 64 00
        E 0 90 63 64
        E 0 90 64 64
        E 120 80 63 00
        E 0 80 64 00
        E 0 90 36 64
        E 0 90 56 64
        E 0 90 62 64
        E 120 80 56 00
        E 0 80 62 00
        E 0 90 62 64
        E 120 80 62 00
        E 0 90 3d 60
        E 0 90 49 64
        E 0 90 4a 64
        E 0 90 56 64
        E 0 90 57 64
        E 0 90 62 64
        E 0 90 63 64
        E 120 80 36 00
        E 0 80 3d 00
        E 0 80 49 00
        E 0 80 4a 00
        E 0 80 56 00
        E 0 80 57 00
        E 0 80 62 00
        E 0 80 63 00
        E 0 90 62 64
        E 0 90 63 64
        E 120 80 62 00
        E 0 80 63 00
        E 0 90 32 64
        E 0 90 55 64
        E 0 90 61 64
        E 120 80 55 00
        E 0 80 61 00
        E 0 90 61 64
        E 120 80 61 00
        E 0 90 3c 60
        E 0 90 48 64
        E 0 90 49 64
        E 0 90 55 64
        E 0 90 56 64
        E 0 90 61 64
        E 0 90 62 64
        E 120 80 32 00
        E 0 80 3c 00
        E 0 80 48 00
        E 0 80 49 00
        E 0 80 55 00
        E 0 80 56 00
        E 0 80 61 00
        E 0 80 62 00
        E 0 90 61 64
        E 0 90 62 64
        E 120 80 61 00
        E 0 80 62 00
        E 0 90 39 64
        E 0 90 57 64
        E 0 90 63 64
        E 120 80 57 00
        E 0 80 63 00
        E 0 90 63 64
        E 120 80 63 00
        E 0 90 3e 60
        E 0 90 4a 64
        E 0 90 4b 64
        E 0 90 57 64
        E 0 90 58 64
        E 0 90 63 64
        E 0 90 64 64
        E 119 80 39 00
        E 1 80 3e 00
        E 0 80 4a 00
        E 0 80 4b 00
        E 0 80 57 00
        E 0 80 58 00
        E 0 80 63 00
        E 0 80 64 00
        E 0 90 63 64
        E 0 90 64 64
        E 119 90 36 64
        E 1 80 63 00
        E 0 80 64 00
        E 0 90 56 64
        E 0 90 62 64
        E 120 80 56 00
        E 0 80 62 00
        E 0 90 62 64
        E 120 80 62 00
        E 0 90 3d 60
        E 0 90 49 64
        E 0 90 4a 64
        E 0 90 56 64
        E 0 90 57 64
        E 0 90 62 64
        E 0 90 63 64
        E 119 80 36 00
        E 1 80 3d 00
        E 0 80 49 00
        E 0 80 4a 00
        E 0 80 56 00
        E 0 80 57 00
        E 0 80 62 00
        E 0 80 63 00
        E 0 90 62 64
        E 0 90 63 64
        E 119 90 32 64
        E 1 80 62 00
        E 0 80 63 00
        E 0 90 55 64
        E 0 90 61 64
        E 120 80 55 00
        E 0 80 61 00
        E 0 90 61 64
        E 120 80 61 00
        E 0 90 3c 60
        E 0 90 48 64
        E 0 90 49 64
        E 0 90 55 64
        E 0 90 56 64
        E 0 90 61 64
        E 0 90 62 64
        E 119 80 32 00
        E 1 80 3c 00
        E 0 80 48 00
        E 0 80 49 00
        E 0 80 55 00
        E 0 80 56 00
        E 0 80 61 00
        E 0 80 62 00
        E 0 90 61 64
        E 0 90 62 64
        E 120 80 61 00
        E 0 80 62 00
        E 0 90 39 64
        E 0 90 57 64
        E 0 90 63 64
        E 120 80 57 00
        E 0 80 63 00
        E 0 90 63 64
        E 120 80 63 00
        E 0 90 3e 60
        E 0 90 4a 64
        E 0 90 4b 64
        E 0 90 57 64
        E 0 90 58 64
        E 0 90 63 64
        E 0 90 64 64
        E 120 80 39 00
        E 0 80 3e 00
        E 0 80 4a 00
        E 0 80 4b 00
        E 0 80 57 00
        E 0 80 58 00
        E 0 80 63 00
        E 0 80 64 00
        E 0 90 63 64
        E 0 90 64 64
        E 120 80 63 00
        E 0 80 64 00
        E 0 90 36 64
        E 0 90 56 64
        E 0 90 62 64
        E 120 80 56 00
        E 0 80 62 00
        E 0 90 62 64
        E 120 80 62 00
        E 0 90 3d 60
        E 0 90 49 64
        E 0 90 4a 64
        E 0 90 56 64
        E 0 90 57 64
        E 0 90 62 64
        E 0 90 63 64
        E 120 80 36 00
        E 0 80 3d 00
        E 0 80 49 00
        E 0 80 4a 00
        E 0 80 56 00
        E 0 80 57 00
        E 0 80 62 00
        E 0 80 63 00
        E 0 90 62 64
        E 0 90 63 64
        E 120 80 62 00
        E 0 80 63 00
        E 0 90 32 64
        E 0 90 55 64
        E 0 90 61 64
        E 120 80 55 00
        E 0 80 61 00
        E 0 90 61 64
        E 120 80 61 00
        E 0 90 3c 60
        E 0 90 48 64
        E 0 90 49 64
        E 0 90 55 64
        E 0 90 56 64
        E 0 90 61 64
        E 0 90 62 64
        E 120 80 32 00
        E 0 80 3c 00
        E 0 80 48 00
        E 0 80 49 00
        E 0 80 55 00
        E 0 80 56 00
        E 0 80 61 00
        E 0 80 62 00
        E 0 90 61 64
        E 0 90 62 64
        E 120 80 61 00
        E 0 80 62 00
        E 0 90 39 64
        E 0 90 57 64
        E 0 90 63 64
        E 0 90 74 64
        E 120 80 57 00
        E 0 80 63 00
        E 0 90 63 64
        E 120 80 63 00
        E 0 90 3e 60
        E 0 90 4a 64
        E 0 90 4b 64
        E 0 90 57 64
        E 0 90 58 64
        E 0 90 63 64
        E 0 90 64 64
        E 119 80 39 00
        E 1 80 3e 00
        E 0 80 4a 00
        E 0 80 4b 00
        E 0 80 57 00
        E 0 80 58 00
        E 0 80 63 00
        E 0 80 64 00
        E 0 90 63 64
        E 0 90 64 64
        E 119 90 36 64
        E 1 80 63 00
        E 0 80 64 00
        E 0 90 56 64
        E 0 90 62 64
        E 120 80 56 00
        E 0 80 62 00
        E 0 90 62 64
        E 120 80 62 00
        E 0 90 3d 60
        E 0 90 49 64
        E 0 90 4a 64
        E 0 90 56 64
        E 0 90 57 64
        E 0 90 62 64
        E 0 90 63 64
        E 119 80 36 00
        E 1 80 3d 00
        E 0 80 49 00
        E 0 80 4a 00
        E 0 80 56 00
        E 0 80 57 00
        E 0 80 62 00
        E 0 80 63 00
        E 0 90 62 64
        E 0 90 63 64
        E 119 90 32 64
        E 1 80 62 00
        E 0 80 63 00
        E 0 90 55 64
        E 0 90 61 64
        E 120 80 55 00
        E 0 80 61 00
        E 0 90 61 64
        E 120 80 61 00
        E 0 90 3c 60
        E 0 90 48 64
        E 0 90 49 64
        E 0 90 55 64
        E 0 90 56 64
        E 0 90 61 64
        E 0 90 62 64
        E 119 80 32 00
        E 1 80 3c 00
        E 0 80 48 00
        E 0 80 49 00
        E 0 80 55 00
        E 0 80 56 00
        E 0 80 61 00
        E 0 80 62 00
        E 0 90 61 64
        E 0 90 62 64
        E 120 80 74 00
        E 0 80 61 00
        E 0 80 62 00
        E 0 90 39 64
        E 0 90 57 64
        E 0 90 63 64
        E 120 80 57 00
        E 0 80 63 00
        E 0 90 63 64
        E 120 80 63 00
        E 0 90 3e 60
        E 0 90 4a 64
        E 0 90 4b 64
        E 0 90 57 64
        E 0 90 58 64
        E 0 90 63 64
        E 0 90 64 64
        E 120 80 39 00
        E 0 80 3e 00
        E 0 80 4a 00
        E 0 80 4b 00
        E 0 80 57 00
        E 0 80 58 00
        E 0 80 63 00
        E 0 80 64 00
        E 0 90 63 64
        E 0 90 64 64
        E 120 80 63 00
        E 0 80 64 00
        E 0 90 36 64
        E 0 90 56 64
        E 0 90 62 64
        E 120 80 56 00
        E 0 80 62 00
        E 0 90 62 64
        E 120 80 62 00
        E 0 90 3d 60
        E 0 90 49 64
        E 0 90 4a 64
        E 0 90 56 64
        E 0 90 57 64
        E 0 90 62 64
        E 0 90 63 64
        E 120 80 36 00
        E 0 80 3d 00
        E 0 80 49 00
        E 0 80 4a 00
        E 0 80 56 00
        E 0 80 57 00
        E 0 80 62 00
        E 0 80 63 00
        E 0 90 62 64
        E 0 90 63 64
        E 120 80 62 00
        E 0 80 63 00
        E 0 90 32 64
        E 0 90 55 64
        E 0 90 61 64
        E 120 80 55 00
        E 0 80 61 00
        E 0 90 61 64
        E 120 80 61 00
        E 0 90 3c 60
        E 0 90 48 64
        E 0 90 49 64
        E 0 90 55 64
        E 0 90 56 64
        E 0 90 61 64
        E 0 90 62 64
        E 120 80 32 00
        E 0 80 3c 00
        E 0 80 48 00
        E 0 80 49 00
        E 0 80 55 00
        E 0 80 56 00
        E 0 80 61 00
        E 0 80 62 00
        E 0 90 61 64
        E 0 90 62 64
        E 120 80 61 00
        E 0 80 62 00
        E 0 90 39 64
        E 0 90 57 64
        E 0 90 63 64
        E 120 80 57 00
        E 0 80 63 00
        E 0 90 63 64
        E 120 80 63 00
        E 0 90 3e 60
        E 0 90 4a 64
        E 0 90 4b 64
        E 0 90 57 64
        E 0 90 58 64
        E 0 90 63 64
        E 0 90 64 64
        E 119 80 39 00
        E 1 80 3e 00
        E 0 80 4a 00
        E 0 80 4b 00
        E 0 80 57 00
        E 0 80 58 00
        E 0 80 63 00
        E 0 80 64 00
        E 0 90 63 64
        E 0 90 64 64
        E 119 90 36 64
        E 1 80 63 00
        E 0 80 64 00
        E 0 90 56 64
        E 0 90 62 64
        E 120 80 56 00
        E 0 80 62 00
        E 0 90 62 64
        E 120 80 62 00
        E 0 90 3d 60
        E 0 90 49 64
        E 0 90 4a 64
        E 0 90 56 64
        E 0 90 57 64
        E 0 90 62 64
        E 0 90 63 64
        E 119 80 36 00
        E 1 80 3d 00
        E 0 80 49 00
        E 0 80 4a 00
        E 0 80 56 00
        E 0 80 57 00
        E 0 80 62 00
        E 0 80 63 00
        E 0 90 62 64
        E 0 90 63 64
        E 119 90 32 64
        E 1 80 62 00
        E 0 80 63 00
        E 0 90 55 64
        E 0 90 61 64
        E 120 80 55 00
        E 0 80 61 00
        E 0 90 61 64
        E 120 80 61 00
        E 0 90 3c 60
        E 0 90 48 64
        E 0 90 49 64
        E 0 90 55 64
        E 0 90 56 64
        E 0 90 61 64
        E 0 90 62 64
        E 119 80 32 00
        E 1 80 3c 00
        E 0 80 48 00
        E 0 80 49 00
        E 0 80 55 00
        E 0 80 56 00
        E 0 80 61 00
        E 0 80 62 00
        E 0 90 61 64
        E 0 90 62 64
        E 120 80 61 00
        E 0 80 62 00
        E 0 90 39 64
        E 0 90 57 64
        E 0 90 63 64
        E 120 80 57 00
        E 0 80 63 00
        E 0 90 63 64
        E 120 80 63 00
        E 0 90 3e 60
        E 0 90 4a 64
        E 0 90 4b 64
        E 0 90 57 64
        E 0 90 58 64
        E 0 90 63 64
        E 0 90 64 64
        E 120 80 39 00
        E 0 80 3e 00
        E 0 80 4a 00
        E 0 80 4b 00
        E 0 80 57 00
        E 0 80 58 00
        E 0 80 63 00
        E 0 80 64 00
        E 0 90 63 64
        E 0 90 64 64
        E 120 80 63 00
        E 0 80 64 00
        E 0 90 36 64
        E 0 90 56 64
        E 0 90 62 64
        E 120 80 56 00
        E 0 80 62 00
        E 0 90 62 64
        E 120 80 62 00
        E 0 90 3d 60
        E 0 90 49 64
        E 0 90 4a 64
        E 0 90 56 64
        E 0 90 57 64
        E 0 90 62 64
        E 0 90 63 64
        E 120 80 36 00
        E 0 80 3d 00
        E 0 80 49 00
        E 0 80 4a 00
        E 0 80 56 00
        E 0 80 57 00
        E 0 80 62 00
        E 0 80 63 00
        E 0 90 62 64
        E 0 90 63 64
        E 120 80 62 00
        E 0 80 63 00
        E 0 90 32 64
        E 0 90 55 64
        E 0 90 61 64
        E 120 80 55 00
        E 0 80 61 00
        E 0 90 61 64
        E 120 80 61 00
        E 0 90 3c 60
        E 0 90 48 64
        E 0 90 49 64
        E 0 90 55 64
        E 0 90 56 64
        E 0 90 61 64
        E 0 90 62 64
        E 120 80 32 00
        E 0 80 3c 00
        E 0 80 48 00
        E 0 80 49 00
        E 0 80 55 00
        E 0 80 56 00
        E 0 80 61 00
        E 0 80 62 00
        E 0 90 61 64
        E 0 90 62 64
        E 120 80 61 00
        E 0 80 62 00
        E 0 90 39 64
        E 0 90 57 64
        E 0 90 63 64
        E 120 80 57 00
        E 0 80 63 00
        E 0 90 63 64
        E 120 80 63 00
        E 0 90 3e 60
        E 0 90 4a 64
        E 0 90 4b 64
        E 0 90 57 64
        E 0 90 58 64
        E 0 90 63 64
        E 0 90 64 64
        E 119 80 39 00
        E 1 80 3e 00
        E 0 80 4a 00
        E 0 80 4b 00
        E 0 80 57 00
        E 0 80 58 00
        E 0 80 63 00
        E 0 80 64 00
        E 0 90 63 64
        E 0 90 64 64
        E 119 90 36 64
        E 1 80 63 00
        E 0 80 64 00
        E 0 90 56 64
        E 0 90 62 64
        E 120 80 56 00
        E 0 80 62 00
        E 0 90 62 64
        E 120 80 62 00
        E 0 90 3d 60
        E 0 90 49 64
        E 0 90 4a 64
        E 0 90 56 64
        E 0 90 57 64
        E 0 90 62 64
        E 0 90 63 64
        E 119 80 36 00
        E 1 80 3d 00
        E 0 80 49 00
        E 0 80 4a 00
        E 0 80 56 00
        E 0 80 57 00
        E 0 80 62 00
        E 0 80 63 00
        E 0 90 62 64
        E 0 90 63 64
        E 119 90 32 64
        E 1 80 62 00
        E 0 80 63 00
        E 0 90 55 64
        E 0 90 61 64
        E 120 80 55 00
        E 0 80 61 00
        E 0 90 61 64
        E 120 80 61 00
        E 0 90 48 64
        E 0 90 49 64
        E 0 90 55 64
        E 0 90 56 64
        E 0 90 61 64
        E 0 90 62 64
        E 119 80 32 00
        E 1 80 48 00
        E 0 80 49 00
        E 0 80 55 00
        E 0 80 56 00
        E 0 80 61 00
        E 0 80 62 00
        <X 120 0
          /wFbcGxheV0=
        >
        E 0 90 2b 64
        E 0 90 3d 60
        E 0 90 48 64
        E 0 90 54 64
        E 0 90 60 64
        E 120 80 3d 00
        E 0 80 48 00
        E 0 80 54 00
        E 0 80 60 00
        E 0 90 61 64
        E 120 80 61 00
        E 0 90 56 64
        E 0 90 62 64
        E 120 80 56 00
        E 0 80 62 00
        E 240 90 56 64
        E 0 90 62 64
        E 120 80 56 00
        E 0 80 62 00
        E 120 90 3f 60
        E 0 90 4a 64
        E 0 90 56 64
        E 0 90 62 64
        E 120 80 3f 00
        E 0 80 4a 00
        E 0 80 56 00
        E 0 80 62 00
        E 120 90 56 64
        E 0 90 62 64
        E 120 80 56 00
        E 0 80 62 00
        E 120 80 2b 00
        E 0 90 60 64
        E 120 80 60 00
        E 0 90 32 64
        E 0 90 3c 60
        E 0 90 48 64
        E 0 90 4a 64
        E 0 90 54 64
        E 0 90 56 64
        E 0 90 60 64
        E 0 90 62 64
        E 120 80 3c 00
        E 0 80 48 00
        E 0 80 4a 00
        E 0 80 54 00
        E 0 80 56 00
        E 0 80 60 00
        E 0 80 62 00
        E 360 90 3e 60
        E 0 90 49 64
        E 0 90 4b 64
        E 0 90 55 64
        E 0 90 57 64
        E 0 90 61 64
        E 0 90 62 64
        E 0 90 63 64
        E 120 80 3e 00
        E 0 80 49 00
        E 0 80 4b 00
        E 0 80 55 00
        E 0 80 57 00
        E 0 80 61 00
        E 0 80 62 00
        E 0 80 63 00
        E 240 90 57 64
        E 0 90 63 64
        E 120 80 57 00
        E 0 80 63 00
        E 120 90 57 64
        E 0 90 63 64
        E 120 80 57 00
        E 0 80 63 00
        E 120 80 32 00
        E 0 90 60 64
        E 120 80 60 00
        E 0 90 2b 64
        E 0 90 3c 60
        E 0 90 48 64
        E 0 90 49 64
        E 0 90 54 64
        E 0 90 55 64
        E 0 90 60 64
        E 0 90 61 64
        E 120 80 3c 00
        E 0 80 48 00
        E 0 80 49 00
        E 0 80 54 00
        E 0 80 55 00
        E 0 80 60 00
        E 0 80 61 00
        E 360 90 3d 60
        E 0 90 49 64
        E 0 90 4a 64
        E 0 90 54 64
        E 0 90 57 64
        E 0 90 60 64
        E 0 90 62 64
        E 0 90 63 64
        E 120 80 3d 00
        E 0 80 49 00
        E 0 80 4a 00
        E 0 80 54 00
        E 0 80 57 00
        E 0 80 60 00
        E 0 80 62 00
        E 0 80 63 00
        E 240 90 57 64
        E 0 90 63 64
        E 120 80 57 00
        E 0 80 63 00
        E 120 90 57 64
        E 0 90 63 64
        E 120 80 57 00
        E 0 80 63 00
        E 120 80 2b 00
        E 0 90 60 64
        E 120 80 60 00
        E 0 90 32 64
        E 0 90 3e 60
        E 0 90 48 64
        E 0 90 4a 64
        E 0 90 54 64
        E 0 90 56 64
        E 0 90 60 64
        E 0 90 62 64
        E 120 80 3e 00
        E 0 80 48 00
        E 0 80 4a 00
        E 0 80 54 00
        E 0 80 56 00
        E 0 80 60 00
        E 0 80 62 00
        E 360 90 3f 60
        E 0 90 4a 64
        E 0 90 4b 64
        E 0 90 57 64
        E 0 90 58 64
        E 0 90 62 64
        E 0 90 63 64
        E 0 90 64 64
        E 120 80 3f 00
        E 0 80 4a 00
        E 0 80 4b 00
        E 0 80 57 00
        E 0 80 58 00
        E 0 80 62 00
        E 0 80 63 00
        E 0 80 64 00
        E 240 90 57 64
        E 0 90 63 64
        E 120 80 57 00
        E 0 80 63 00
        E 120 90 57 64
        E 0 90 63 64
        E 120 80 57 00
        E 0 80 63 00
        E 120 80 32 00
        E 0 90 60 64
        E 120 80 60 00
        E 0 90 2b 64
        E 0 90 3d 60
        E 0 90 48 64
        E 0 90 49 64
        E 0 90 54 64
        E 0 90 55 64
        E 0 90 60 64
        E 0 90 61 64
        E 120 80 3d 00
        E 0 80 48 00
        E 0 80 49 00
        E 0 80 54 00
        E 0 80 55 00
        E 0 80 60 00
        E 0 80 61 00
        E 360 90 49 64
        E 0 90 4b 64
        E 0 90 55 64
        E 0 90 57 64
        E 0 90 61 64
        E 0 90 62 64
        E 0 90 63 64
        E 120 80 49 00
        E 0 80 4b 00
        E 0 80 55 00
        E 0 80 57 00
        E 0 80 61 00
        E 0 80 62 00
        E 0 80 63 00
        E 240 90 3f 60
        E 0 90 57 64
        E 0 90 63 64
        E 120 80 3f 00
        E 0 80 57 00
        E 0 80 63 00
        E 120 90 57 64
        E 0 90 63 64
        E 120 80 57 00
        E 0 80 63 00
        E 120 80 2b 00
        E 0 90 60 64
        E 120 80 60 00
        E 0 90 32 64
        E 0 90 3c 60
        E 0 90 48 64
        E 0 90 4a 64
        E 0 90 54 64
        E 0 90 56 64
        E 0 90 60 64
        E 0 90 62 64
        E 120 80 3c 00
        E 0 80 48 00
        E 0 80 4a 00
        E 0 80 54 00
        E 0 80 56 00
        E 0 80 60 00
        E 0 80 62 00
        E 360 90 3e 60
        E 0 90 49 64
        E 0 90 4b 64
        E 0 90 55 64
        E 0 90 57 64
        E 0 90 61 64
        E 0 90 62 64
        E 0 90 63 64
        E 120 80 3e 00
        E 0 80 49 00
        E 0 80 4b 00
        E 0 80 55 00
        E 0 80 57 00
        E 0 80 61 00
        E 0 80 62 00
        E 0 80 63 00
        E 240 90 57 64
        E 0 90 63 64
        E 120 80 57 00
        E 0 80 63 00
        E 120 90 57 64
        E 0 90 63 64
        E 120 80 57 00
        E 0 80 63 00
        E 120 80 32 00
        E 0 90 60 64
        E 120 80 60 00
        E 0 90 2b 64
        E 0 90 3c 60
        E 0 90 48 64
        E 0 90 49 64
        E 0 90 54 64
        E 0 90 55 64
        E 0 90 60 64
        E 0 90 61 64
        E 120 80 3c 00
        E 0 80 48 00
        E 0 80 49 00
        E 0 80 54 00
        E 0 80 55 00
        E 0 80 60 00
        E 0 80 61 00
        E 360 90 3d 60
        E 0 90 49 64
        E 0 90 4a 64
        E 0 90 54 64
        E 0 90 57 64
        E 0 90 60 64
        E 0 90 62 64
        E 0 90 63 64
        E 120 80 3d 00
        E 0 80 49 00
        E 0 80 4a 00
        E 0 80 54 00
        E 0 80 57 00
        E 0 80 60 00
        E 0 80 62 00
        E 0 80 63 00
        E 240 90 57 64
        E 0 90 63 64
        E 120 80 57 00
        E 0 80 63 00
        E 120 90 57 64
        E 0 90 63 64
        E 120 80 57 00
        E 0 80 63 00
        E 120 80 2b 00
        E 0 90 60 64
        E 120 80 60 00
        E 0 90 32 64
        E 0 90 3e 60
        E 0 90 48 64
        E 0 90 4a 64
        E 0 90 54 64
        E 0 90 56 64
        E 0 90 60 64
        E 0 90 62 64
        E 120 80 3e 00
        E 0 80 48 00
        E 0 80 4a 00
        E 0 80 54 00
        E 0 80 56 00
        E 0 80 60 00
        E 0 80 62 00
        E 360 90 3f 60
        E 0 90 4a 64
        E 0 90 4b 64
        E 0 90 57 64
        E 0 90 58 64
        E 0 90 62 64
        E 0 90 63 64
        E 0 90 64 64
        E 120 80 3f 00
        E 0 80 4a 00
        E 0 80 4b 00
        E 0 80 57 00
        E 0 80 58 00
        E 0 80 62 00
        E 0 80 63 00
        E 0 80 64 00
        E 240 90 57 64
        E 0 90 63 64
        E 120 80 57 00
        E 0 80 63 00
        E 120 90 57 64
        E 0 90 63 64
        E 120 80 57 00
        E 0 80 63 00
        E 120 80 32 00
        E 0 90 60 64
        <X 120 0
          /wFbaW50ZW5zZV0=
        >
        E 0 80 60 00
        E 0 90 39 64
        E 0 90 57 64
        E 0 90 63 64
        E 120 80 57 00
        E 0 80 63 00
        E 0 90 63 64
        E 120 80 63 00
        E 0 90 3e 60
        E 0 90 4a 64
        E 0 90 4b 64 1
        E 0 90 57 64
        E 0 90 58 64
        E 0 90 63 64
        E 0 90 64 64
        E 120 80 39 00
        E 0 80 3e 00
        E 0 80 4a 00
        E 0 80 4b 00 1
        E 0 80 57 00
        E 0 80 58 00
        E 0 80 63 00
        E 0 80 64 00
        E 0 90 63 64
        E 0 90 64 64
        E 120 80 63 00
        E 0 80 64 00
        E 0 90 36 64
        E 0 90 56 64
        E 0 90 62 64
        E 0 90 74 64
        E 120 80 56 00
        E 0 80 62 00
        E 0 90 62 64
        E 120 80 62 00
        E 0 90 3d 60
        E 0 90 49 64
        E 0 90 4a 64 1
        E 0 90 56 64
        E 0 90 57 64
        E 0 90 62 64
        E 0 90 63 64
        E 120 80 36 00
        E 0 80 3d 00
        E 0 80 49 00
        E 0 80 4a 00 1
        E 0 80 56 00
        E 0 80 57 00
        E 0 80 62 00
        E 0 80 63 00
        E 0 90 62 64
        E 0 90 63 64
        E 120 80 62 00
        E 0 80 63 00
        E 0 90 32 64
        E 0 90 55 64
        E 0 90 61 64
        E 120 80 55 00
        E 0 80 61 00
        E 0 90 61 64
        E 120 80 61 00
        E 0 90 3c 60
        E 0 90 48 64
        E 0 90 49 64 1
        E 0 90 55 64
        E 0 90 56 64
        E 0 90 61 64
        E 0 90 62 64
        E 120 80 32 00
        E 0 80 3c 00
        E 0 80 48 00
        E 0 80 49 00 1
        E 0 80 55 00
        E 0 80 56 00
        E 0 80 61 00
        E 0 80 62 00
        E 0 90 61 64
        E 0 90 62 64
        E 120 80 61 00
        E 0 80 62 00
        E 0 90 39 64
        E 0 90 57 64
        E 0 90 63 64
        E 120 80 57 00
        E 0 80 63 00
        E 0 90 63 64
        E 120 80 63 00
        E 0 90 3e 60
        E 0 90 4a 64
        E 0 90 4b 64 1
        E 0 90 57 64
        E 0 90 58 64
        E 0 90 63 64
        E 0 90 64 64
        E 119 80 39 00
        E 1 80 3e 00
        E 0 80 4a 00
        E 0 80 4b 00 1
        E 0 80 57 00
        E 0 80 58 00
        E 0 80 63 00
        E 0 80 64 00
        E 0 90 63 64
        E 0 90 64 64
        E 119 90 36 64
        E 1 80 63 00
        E 0 80 64 00
        E 0 90 56 64
        E 0 90 62 64
        E 120 80 56 00
        E 0 80 62 00
        E 0 90 62 64
        E 120 80 62 00
        E 0 90 3d 60
        E 0 90 49 64
        E 0 90 4a 64 1
        E 0 90 56 64
        E 0 90 57 64
        E 0 90 62 64
        E 0 90 63 64
        E 119 80 36 00
        E 1 80 3d 00
        E 0 80 49 00
        E 0 80 4a 00 1
        E 0 80 56 00
        E 0 80 57 00
        E 0 80 62 00
        E 0 80 63 00
        E 0 90 62 64
        E 0 90 63 64
        E 119 90 32 64
        E 1 80 62 00
        E 0 80 63 00
        E 0 90 55 64
        E 0 90 61 64
        E 120 80 55 00
        E 0 80 61 00
        E 0 90 61 64
        E 120 80 61 00
        E 0 90 3c 60
        E 0 90 48 64
        E 0 90 49 64 1
        E 0 90 55 64
        E 0 90 56 64
        E 0 90 61 64
        E 0 90 62 64
        E 119 80 32 00
        E 1 80 3c 00
        E 0 80 48 00
        E 0 80 49 00 1
        E 0 80 55 00
        E 0 80 56 00
        E 0 80 61 00
        E 0 80 62 00
        E 0 90 61 64
        E 0 90 62 64
        E 120 80 61 00
        E 0 80 62 00
        E 0 90 39 64
        E 0 90 57 64
        E 0 90 63 64
        E 120 80 74 00
        E 0 80 57 00
        E 0 80 63 00
        E 0 90 63 64
        E 120 80 63 00
        E 0 90 3e 60
        E 0 90 4a 64
        E 0 90 4b 64 1
        E 0 90 57 64
        E 0 90 58 64
        E 0 90 63 64
        E 0 90 64 64
        E 120 80 39 00
        E 0 80 3e 00
        E 0 80 4a 00
        E 0 80 4b 00 1
        E 0 80 57 00
        E 0 80 58 00
        E 0 80 63 00
        E 0 80 64 00
        E 0 90 63 64
        E 0 90 64 64
        E 120 80 63 00
        E 0 80 64 00
        E 0 90 36 64
        E 0 90 56 64
        E 0 90 62 64
        E 120 80 56 00
        E 0 80 62 00
        E 0 90 62 64
        E 120 80 62 00
        E 0 90 3d 60
        E 0 90 49 64
        E 0 90 4a 64 1
        E 0 90 56 64
        E 0 90 57 64
        E 0 90 62 64
        E 0 90 63 64
        E 120 80 36 00
        E 0 80 3d 00
        E 0 80 49 00
        E 0 80 4a 00 1
        E 0 80 56 00
        E 0 80 57 00
        E 0 80 62 00
        E 0 80 63 00
        E 0 90 62 64
        E 0 90 63 64
        E 120 80 62 00
        E 0 80 63 00
        E 0 90 32 64
        E 0 90 55 64
        E 0 90 61 64
        E 120 80 55 00
        E 0 80 61 00
        E 0 90 61 64
        E 120 80 61 00
        E 0 90 3c 60
        E 0 90 48 64
        E 0 90 49 64 1
        E 0 90 55 64
        E 0 90 56 64
        E 0 90 61 64
        E 0 90 62 64
        E 120 80 32 00
        E 0 80 3c 00
        E 0 80 48 00
        E 0 80 49 00 1
        E 0 80 55 00
        E 0 80 56 00
        E 0 80 61 00
        E 0 80 62 00
        E 0 90 61 64
        E 0 90 62 64
        E 120 80 61 00
        E 0 80 62 00
        E 0 90 39 64
        E 0 90 57 64
        E 0 90 63 64
        E 120 80 57 00
        E 0 80 63 00
        E 0 90 63 64
        E 120 80 63 00
        E 0 90 3e 60
        E 0 90 4a 64
        E 0 90 4b 64 1
        E 0 90 57 64
        E 0 90 58 64
        E 0 90 63 64
        E 0 90 64 64
        E 119 80 39 00
        E 1 80 3e 00
        E 0 80 4a 00
        E 0 80 4b 00 1
        E 0 80 57 00
        E 0 80 58 00
        E 0 80 63 00
        E 0 80 64 00
        E 0 90 63 64
        E 0 90 64 64
        E 119 90 36 64
        E 1 80 63 00
        E 0 80 64 00
        E 0 90 56 64
        E 0 90 62 64
        E 120 80 56 00
        E 0 80 62 00
        E 0 90 62 64
        E 120 80 62 00
        E 0 90 3d 60
        E 0 90 49 64
        E 0 90 4a 64 1
        E 0 90 56 64
        E 0 90 57 64
        E 0 90 62 64
        E 0 90 63 64
        E 119 80 36 00
        E 1 80 3d 00
        E 0 80 49 00
        E 0 80 4a 00 1
        E 0 80 56 00
        E 0 80 57 00
        E 0 80 62 00
        E 0 80 63 00
        E 0 90 62 64
        E 0 90 63 64
        E 119 90 32 64
        E 1 80 62 00
        E 0 80 63 00
        E 0 90 55 64
        E 0 90 61 64
        E 120 80 55 00
        E 0 80 61 00
        E 0 90 61 64
        E 120 80 61 00
        E 0 90 3c 60
        E 0 90 48 64
        E 0 90 49 64 1
        E 0 90 55 64
        E 0 90 56 64
        E 0 90 61 64
        E 0 90 62 64
        E 119 80 32 00
        E 1 80 3c 00
        E 0 80 48 00
        E 0 80 49 00 1
        E 0 80 55 00
        E 0 80 56 00
        E 0 80 61 00
        E 0 80 62 00
        E 0 90 61 64
        E 0 90 62 64
        E 120 80 61 00
        E 0 80 62 00
        E 0 90 39 64
        E 0 90 57 64
        E 0 90 63 64
        E 120 80 57 00
        E 0 80 63 00
        E 0 90 63 64
        E 120 80 63 00
        E 0 90 3e 60
        E 0 90 4a 64
        E 0 90 4b 64 1
        E 0 90 57 64
        E 0 90 58 64
        E 0 90 63 64
        E 0 90 64 64
        E 120 80 39 00
        E 0 80 3e 00
        E 0 80 4a 00
        E 0 80 4b 00 1
        E 0 80 57 00
        E 0 80 58 00
        E 0 80 63 00
        E 0 80 64 00
        E 0 90 63 64
        E 0 90 64 64
        E 120 80 63 00
        E 0 80 64 00
        E 0 90 36 64
        E 0 90 56 64
        E 0 90 62 64
        E 120 80 56 00
        E 0 80 62 00
        E 0 90 62 64
        E 120 80 62 00
        E 0 90 3d 60
        E 0 90 49 64
        E 0 90 4a 64 1
        E 0 90 56 64
        E 0 90 57 64
        E 0 90 62 64
        E 0 90 63 64
        E 120 80 36 00
        E 0 80 3d 00
        E 0 80 49 00
        E 0 80 4a 00 1
        E 0 80 56 00
        E 0 80 57 00
        E 0 80 62 00
        E 0 80 63 00
        E 0 90 62 64
        E 0 90 63 64
        E 120 80 62 00
        E 0 80 63 00
        E 0 90 32 64
        E 0 90 55 64
        E 0 90 61 64
        E 120 80 55 00
        E 0 80 61 00
        E 0 90 61 64
        E 120 80 61 00
        E 0 90 3c 60
        E 0 90 48 64
        E 0 90 49 64 1
        E 0 90 55 64
        E 0 90 56 64
        E 0 90 61 64
        E 0 90 62 64
        E 120 80 32 00
        E 0 80 3c 00
        E 0 80 48 00
        E 0 80 49 00 1
        E 0 80 55 00
        E 0 80 56 00
        E 0 80 61 00
        E 0 80 62 00
        E 0 90 61 64
        E 0 90 62 64
        E 120 80 61 00
        E 0 80 62 00
        E 0 90 39 64
        E 0 90 57 64
        E 0 90 63 64
        E 120 80 57 00
        E 0 80 63 00
        E 0 90 63 64
        E 120 80 63 00
        E 0 90 3e 60
        E 0 90 4a 64
        E 0 90 4b 64 1
        E 0 90 57 64
        E 0 90 58 64
        E 0 90 63 64
        E 0 90 64 64
        E 119 80 39 00
        E 1 80 3e 00
        E 0 80 4a 00
        E 0 80 4b 00 1
        E 0 80 57 00
        E 0 80 58 00
        E 0 80 63 00
        E 0 80 64 00
        E 0 90 63 64
        E 0 90 64 64
        E 119 90 36 64
        E 1 80 63 00
        E 0 80 64 00
        E 0 90 56 64
        E 0 90 62 64
        E 120 80 56 00
        E 0 80 62 00
        E 0 90 62 64
        E 120 80 62 00
        E 0 90 3d 60
        E 0 90 49 64
        E 0 90 4a 64 1
        E 0 90 56 64
        E 0 90 57 64
        E 0 90 62 64
        E 0 90 63 64
        E 119 80 36 00
        E 1 80 3d 00
        E 0 80 49 00
        E 0 80 4a 00 1
        E 0 80 56 00
        E 0 80 57 00
        E 0 80 62 00
        E 0 80 63 00
        E 0 90 62 64
        E 0 90 63 64
        E 119 90 32 64
        E 1 80 62 00
        E 0 80 63 00
        E 0 90 55 64
        E 0 90 61 64
        E 120 80 55 00
        E 0 80 61 00
        E 0 90 61 64
        E 120 80 61 00
        E 0 90 3c 60
        E 0 90 48 64
        E 0 90 49 64 1
        E 0 90 55 64
        E 0 90 56 64
        E 0 90 61 64
        E 0 90 62 64
        E 119 80 32 00
        E 1 80 3c 00
        E 0 80 48 00
        E 0 80 49 00 1
        E 0 80 55 00
        E 0 80 56 00
        E 0 80 61 00
        E 0 80 62 00
        E 0 90 61 64
        E 0 90 62 64
        E 120 80 61 00
        E 0 80 62 00
        E 0 90 39 64
        E 0 90 57 64
        E 0 90 63 64
        E 120 80 57 00
        E 0 80 63 00
        E 0 90 63 64
        E 120 80 63 00
        E 0 90 3e 60
        E 0 90 4a 64
        E 0 90 4b 64 1
        E 0 90 57 64
        E 0 90 58 64
        E 0 90 63 64
        E 0 90 64 64
        E 120 80 39 00
        E 0 80 3e 00
        E 0 80 4a 00
        E 0 80 4b 00 1
        E 0 80 57 00
        E 0 80 58 00
        E 0 80 63 00
        E 0 80 64 00
        E 0 90 63 64
        E 0 90 64 64
        E 120 80 63 00
        E 0 80 64 00
        E 0 90 36 64
        E 0 90 56 64
        E 0 90 62 64
        E 120 80 56 00
        E 0 80 62 00
        E 0 90 62 64
        E 120 80 62 00
        E 0 90 3d 60
        E 0 90 49 64
        E 0 90 4a 64 1
        E 0 90 56 64
        E 0 90 57 64
        E 0 90 62 64
        E 0 90 63 64
        E 120 80 36 00
        E 0 80 3d 00
        E 0 80 49 00
        E 0 80 4a 00 1
        E 0 80 56 00
        E 0 80 57 00
        E 0 80 62 00
        E 0 80 63 00
        E 0 90 62 64
        E 0 90 63 64
        E 120 80 62 00
        E 0 80 63 00
        E 0 90 32 64
        E 0 90 55 64
        E 0 90 61 64
        E 120 80 55 00
        E 0 80 61 00
        E 0 90 61 64
        E 120 80 61 00
        E 0 90 3c 60
        E 0 90 48 64
        E 0 90 49 64 1
        E 0 90 55 64
        E 0 90 56 64
        E 0 90 61 64
        E 0 90 62 64
        E 120 80 32 00
        E 0 80 3c 00
        E 0 80 48 00
        E 0 80 49 00 1
        E 0 80 55 00
        E 0 80 56 00
        E 0 80 61 00
        E 0 80 62 00
        E 0 90 61 64
        E 0 90 62 64
        E 120 80 61 00
        E 0 80 62 00
        E 0 90 39 64
        E 0 90 57 64
        E 0 90 63 64
        E 120 80 57 00
        E 0 80 63 00
        E 0 90 63 64
        E 120 80 63 00
        E 0 90 3e 60
        E 0 90 4a 64
        E 0 90 4b 64 1
        E 0 90 57 64
        E 0 90 58 64
        E 0 90 63 64
        E 0 90 64 64
        E 119 80 39 00
        E 1 80 3e 00
        E 0 80 4a 00
        E 0 80 4b 00 1
        E 0 80 57 00
        E 0 80 58 00
        E 0 80 63 00
        E 0 80 64 00
        E 0 90 63 64
        E 0 90 64 64
        E 119 90 36 64
        E 1 80 63 00
        E 0 80 64 00
        E 0 90 56 64
        E 0 90 62 64
        E 120 80 56 00
        E 0 80 62 00
        E 0 90 62 64
        E 120 80 62 00
        E 0 90 3d 60
        E 0 90 49 64
        E 0 90 4a 64 1
        E 0 90 56 64
        E 0 90 57 64
        E 0 90 62 64
        E 0 90 63 64
        E 119 80 36 00
        E 1 80 3d 00
        E 0 80 49 00
        E 0 80 4a 00 1
        E 0 80 56 00
        E 0 80 57 00
        E 0 80 62 00
        E 0 80 63 00
        E 0 90 62 64
        E 0 90 63 64
        E 119 90 32 64
        E 1 80 62 00
        E 0 80 63 00
        E 0 90 55 64
        E 0 90 61 64
        E 120 80 55 00
        E 0 80 61 00
        E 0 90 61 64
        E 120 80 61 00
        E 0 90 3c 60
        E 0 90 48 64
        E 0 90 49 64 1
        E 0 90 55 64
        E 0 90 56 64
        E 0 90 61 64
        E 0 90 62 64
        E 119 80 32 00
        E 1 80 3c 00
        E 0 80 48 00
        E 0 80 49 00 1
        E 0 80 55 00
        E 0 80 56 00
        E 0 80 61 00
        E 0 80 62 00
        <X 120 0
          /wFbbWVsbG93XQ==
        >
        E 0 90 33 64
        E 0 90 3c 60
        E 0 90 48 64
        E 0 90 4a 64
        E 0 90 54 64
        E 0 90 56 64
        E 0 90 60 64
        E 0 90 62 64
        E 120 80 3c 00
        E 0 80 48 00
        E 0 80 4a 00
        E 0 80 54 00
        E 0 80 56 00
        E 0 80 60 00
        E 0 80 62 00
        E 120 80 33 00
        E 120 90 2d 64
        E 0 90 56 64
        E 0 90 57 64
        E 0 90 62 64
        E 0 90 63 64
        E 120 80 56 00
        E 0 80 57 00
        E 0 80 62 00
        E 0 80 63 00
        E 120 90 56 64
        E 0 90 57 64
        E 0 90 62 64
        E 0 90 63 64
        E 120 80 56 00
        E 0 80 57 00
        E 0 80 62 00
        E 0 80 63 00
        E 120 90 62 64
        E 0 90 63 64
        E 120 80 2d 00
        E 0 80 62 00
        E 0 80 63 00
        E 0 90 36 64
        E 0 90 3d 60
        E 0 90 49 64
        E 0 90 4b 64
        E 0 90 55 64
        E 0 90 57 64
        E 0 90 61 64
        E 0 90 63 64
        E 0 90 65 64
        E 120 80 3d 00
        E 0 80 49 00
        E 0 80 4b 00
        E 0 80 55 00
        E 0 80 57 00
        E 0 80 61 00
        E 0 80 63 00
        E 0 80 65 00
        E 120 90 55 64
        E 0 90 57 64
        E 0 90 61 64
        E 0 90 63 64
        E 120 80 36 00
        E 0 80 55 00
        E 0 80 57 00
        E 0 80 61 00
        E 0 80 63 00
        E 120 90 33 64
        E 0 90 3c 60
        E 0 90 48 64
        E 0 90 4a 64
        E 0 90 54 64
        E 0 90 56 64
        E 0 90 60 64
        E 0 90 62 64
        E 120 80 3c 00
        E 0 80 48 00
        E 0 80 4a 00
        E 0 80 54 00
        E 0 80 56 00
        E 0 80 60 00
        E 0 80 62 00
        E 120 80 33 00
        E 120 90 2d 64
        E 0 90 56 64
        E 0 90 57 64
        E 0 90 62 64
        E 0 90 63 64
        E 120 80 56 00
        E 0 80 57 00
        E 0 80 62 00
        E 0 80 63 00
        E 120 90 56 64
        E 0 90 57 64
        E 0 90 62 64
        E 0 90 63 64
        E 120 80 56 00
        E 0 80 57 00
        E 0 80 62 00
        E 0 80 63 00
        E 120 90 62 64
        E 0 90 63 64
        E 120 80 2d 00
        E 0 80 62 00
        E 0 80 63 00
        E 0 90 36 64
        E 0 90 3d 60
        E 0 90 49 64
        E 0 90 4b 64
        E 0 90 55 64
        E 0 90 57 64
        E 0 90 61 64
        E 0 90 63 64
        E 120 80 3d 00
        E 0 80 49 00
        E 0 80 4b 00
        E 0 80 55 00
        E 0 80 57 00
        E 0 80 61 00
        E 0 80 63 00
        E 240 80 36 00
        E 120 90 33 64
        E 0 90 3c 60
        E 0 90 48 64
        E 0 90 4a 64
        E 0 90 54 64
        E 0 90 56 64
        E 0 90 60 64
        E 0 90 62 64
        E 0 90 74 64
        E 120 80 3c 00
        E 0 80 48 00
        E 0 80 4a 00
        E 0 80 54 00
        E 0 80 56 00
        E 0 80 60 00
        E 0 80 62 00
        E 120 80 33 00
        E 120 90 2d 64
        E 0 90 56 64
        E 0 90 57 64
        E 0 90 62 64
        E 0 90 63 64
        E 120 80 56 00
        E 0 80 57 00
        E 0 80 62 00
        E 0 80 63 00
        E 120 90 56 64
        E 0 90 57 64
        E 0 90 62 64
        E 0 90 63 64
        E 120 80 56 00
        E 0 80 57 00
        E 0 80 62 00
        E 0 80 63 00
        E 120 90 62 64
        E 0 90 63 64
        E 120 80 2d 00
        E 0 80 62 00
        E 0 80 63 00
        E 0 90 36 64
        E 0 90 3d 60
        E 0 90 49 64
        E 0 90 4b 64
        E 0 90 55 64
        E 0 90 57 64
        E 0 90 61 64
        E 0 90 63 64
        E 0 90 65 64
        E 120 80 3d 00
        E 0 80 49 00
        E 0 80 4b 00
        E 0 80 55 00
        E 0 80 57 00
        E 0 80 61 00
        E 0 80 63 00
        E 0 80 65 00
        E 120 90 55 64
        E 0 90 57 64
        E 0 90 61 64
        E 0 90 63 64
        E 120 80 36 00
        E 0 80 55 00
        E 0 80 57 00
        E 0 80 61 00
        E 0 80 63 00
        E 120 90 33 64
        E 0 90 3c 60
        E 0 90 48 64
        E 0 90 4a 64
        E 0 90 54 64
        E 0 90 56 64
        E 0 90 60 64
        E 0 90 62 64
        E 120 80 3c 00
        E 0 80 48 00
        E 0 80 4a 00
        E 0 80 54 00
        E 0 80 56 00
        E 0 80 60 00
        E 0 80 62 00
        E 120 80 33 00
        E 120 90 2d 64
        E 0 90 56 64
        E 0 90 57 64
        E 0 90 62 64
        E 0 90 63 64
        E 120 80 56 00
        E 0 80 57 00
        E 0 80 62 00
        E 0 80 63 00
        E 120 90 56 64
        E 0 90 57 64
        E 0 90 62 64
        E 0 90 63 64
        E 120 80 56 00
        E 0 80 57 00
        E 0 80 62 00
        E 0 80 63 00
        E 120 90 62 64
        E 0 90 63 64
        E 120 80 2d 00
        E 0 80 62 00
        E 0 80 63 00
        E 0 90 36 64
        E 0 90 3d 60
        E 0 90 49 64
        E 0 90 4b 64
        E 0 90 55 64
        E 0 90 57 64
        E 0 90 61 64
        E 0 90 63 64
        E 120 80 74 00
        E 0 80 3d 00
        E 0 80 49 00
        E 0 80 4b 00
        E 0 80 55 00
        E 0 80 57 00
        E 0 80 61 00
        E 0 80 63 00
        E 240 80 36 00
        E 120 90 33 64
        E 0 90 3c 60
        E 0 90 48 64
        E 0 90 4a 64
        E 0 90 54 64
        E 0 90 56 64
        E 0 90 60 64
        E 0 90 62 64
        E 120 80 3c 00
        E 0 80 48 00
        E 0 80 4a 00
        E 0 80 54 00
        E 0 80 56 00
        E 0 80 60 00
        E 0 80 62 00
        E 120 80 33 00
        E 120 90 2d 64
        E 0 90 56 64
        E 0 90 57 64
        E 0 90 62 64
        E 0 90 63 64
        E 120 80 56 00
        E 0 80 57 00
        E 0 80 62 00
        E 0 80 63 00
        E 120 90 56 64
        E 0 90 57 64
        E 0 90 62 64
        E 0 90 63 64
        E 120 80 56 00
        E 0 80 57 00
        E 0 80 62 00
        E 0 80 63 00
        E 120 90 62 64
        E 0 90 63 64
        E 120 80 2d 00
        E 0 80 62 00
        E 0 80 63 00
        E 0 90 36 64
        E 0 90 3d 60
        E 0 90 49 64
        E 0 90 4b 64
        E 0 90 55 64
        E 0 90 57 64
        E 0 90 61 64
        E 0 90 63 64
        E 0 90 65 64
        E 120 80 3d 00
        E 0 80 49 00
        E 0 80 4b 00
        E 0 80 55 00
        E 0 80 57 00
        E 0 80 61 00
        E 0 80 63 00
        E 0 80 65 00
        E 120 90 55 64
        E 0 90 57 64
        E 0 90 61 64
        E 0 90 63 64
        E 120 80 36 00
        E 0 80 55 00
        E 0 80 57 00
        E 0 80 61 00
        E 0 80 63 00
        E 120 90 33 64
        E 0 90 3c 60
        E 0 90 48 64
        E 0 90 4a 64
        E 0 90 54 64
        E 0 90 56 64
        E 0 90 60 64
        E 0 90 62 64
        E 120 80 3c 00
        E 0 80 48 00
        E 0 80 4a 00
        E 0 80 54 00
        E 0 80 56 00
        E 0 80 60 00
        E 0 80 62 00
        E 120 80 33 00
        E 120 90 2d 64
        E 0 90 56 64
        E 0 90 57 64
        E 0 90 62 64
        E 0 90 63 64
        E 120 80 56 00
        E 0 80 57 00
        E 0 80 62 00
        E 0 80 63 00
        E 120 90 56 64
        E 0 90 57 64
        E 0 90 62 64
        E 0 90 63 64
        E 120 80 56 00
        E 0 80 57 00
        E 0 80 62 00
        E 0 80 63 00
        E 120 90 62 64
        E 0 90 63 64
        E 120 80 2d 00
        E 0 80 62 00
        E 0 80 63 00
        E 0 90 36 64
        E 0 90 3d 60
        E 0 90 49 64
        E 0 90 4b 64
        E 0 90 55 64
        E 0 90 57 64
        E 0 90 61 64
        E 0 90 63 64
        E 120 80 3d 00
        E 0 80 49 00
        E 0 80 4b 00
        E 0 80 55 00
        E 0 80 57 00
        E 0 80 61 00
        E 0 80 63 00
        E 240 80 36 00
        E 120 90 33 64
        E 0 90 3c 60
        E 0 90 48 64
        E 0 90 4a 64
        E 0 90 54 64
        E 0 90 56 64
        E 0 90 60 64
        E 0 90 62 64
        E 120 80 3c 00
        E 0 80 48 00
        E 0 80 4a 00
        E 0 80 54 00
        E 0 80 56 00
        E 0 80 60 00
        E 0 80 62 00
        E 120 80 33 00
        E 120 90 2d 64
        E 0 90 56 64
        E 0 90 57 64
        E 0 90 62 64
        E 0 90 63 64
        E 120 80 56 00
        E 0 80 57 00
        E 0 80 62 00
        E 0 80 63 00
        E 120 90 56 64
        E 0 90 57 64
        E 0 90 62 64
        E 0 90 63 64
        E 120 80 56 00
        E 0 80 57 00
        E 0 80 62 00
        E 0 80 63 00
        E 120 90 62 64
        E 0 90 63 64
        E 120 80 2d 00
        E 0 80 62 00
        E 0 80 63 00
        E 0 90 36 64
        E 0 90 3d 60
        E 0 90 49 64
        E 0 90 4b 64
        E 0 90 55 64
        E 0 90 57 64
        E 0 90 61 64
        E 0 90 63 64
        E 0 90 65 64
        E 120 80 3d 00
        E 0 80 49 00
        E 0 80 4b 00
        E 0 80 55 00
        E 0 80 57 00
        E 0 80 61 00
        E 0 80 63 00
        E 0 80 65 00
        E 120 90 55 64
        E 0 90 57 64
        E 0 90 61 64
        E 0 90 63 64
        E 120 80 36 00
        E 0 80 55 00
        E 0 80 57 00
        E 0 80 61 00
        E 0 80 63 00
        E 120 90 33 64
        E 0 90 3c 60
        E 0 90 48 64
        E 0 90 4a 64
        E 0 90 54 64
        E 0 90 56 64
        E 0 90 60 64
        E 0 90 62 64
        E 120 80 3c 00
        E 0 80 48 00
        E 0 80 4a 00
        E 0 80 54 00
        E 0 80 56 00
        E 0 80 60 00
        E 0 80 62 00
        E 120 80 33 00
        E 120 90 2d 64
        E 0 90 56 64
        E 0 90 57 64
        E 0 90 62 64
        E 0 90 63 64
        E 120 80 56 00
        E 0 80 57 00
        E 0 80 62 00
        E 0 80 63 00
        E 120 90 56 64
        E 0 90 57 64
        E 0 90 62 64
        E 0 90 63 64
        E 120 80 56 00
        E 0 80 57 00
        E 0 80 62 00
        E 0 80 63 00
        E 120 90 62 64
        E 0 90 63 64
        E 120 80 2d 00
        E 0 80 62 00
        E 0 80 63 00
        E 0 90 36 64
        E 0 90 3d 60
        E 0 90 49 64
        E 0 90 4b 64
        E 0 90 55 64
        E 0 90 57 64
        E 0 90 61 64
        E 0 90 63 64
        E 0 90 65 64
        E 120 80 3d 00
        E 0 80 49 00
        E 0 80 4b 00
        E 0 80 55 00
        E 0 80 57 00
        E 0 80 61 00
        E 0 80 63 00
        E 0 80 65 00
        E 240 80 36 00
        E 120 90 33 64
        E 0 90 3c 60
        E 0 90 48 64
        E 0 90 4a 64
        E 0 90 54 64
        E 0 90 56 64
        E 0 90 60 64
        E 0 90 62 64
        E 120 80 3c 00
        E 0 80 48 00
        E 0 80 4a 00
        E 0 80 54 00
        E 0 80 56 00
        E 0 80 60 00
        E 0 80 62 00
        E 120 80 33 00
        E 120 90 2d 64
        E 0 90 56 64
        E 0 90 57 64
        E 0 90 62 64
        E 0 90 63 64
        E 120 80 56 00
        E 0 80 57 00
        E 0 80 62 00
        E 0 80 63 00
        E 120 90 56 64
        E 0 90 57 64
        E 0 90 62 64
        E 0 90 63 64
        E 120 80 56 00
        E 0 80 57 00
        E 0 80 62 00
        E 0 80 63 00
        E 120 90 62 64
        E 0 90 63 64
        E 120 80 2d 00
        E 0 80 62 00
        E 0 80 63 00
        E 0 90 36 64
        E 0 90 3d 60
        E 0 90 49 64
        E 0 90 4b 64
        E 0 90 55 64
        E 0 90 57 64
        E 0 90 61 64
        E 0 90 63 64
        E 0 90 65 64
        E 120 80 3d 00
        E 0 80 49 00
        E 0 80 4b 00
        E 0 80 55 00
        E 0 80 57 00
        E 0 80 61 00
        E 0 80 63 00
        E 0 80 65 00
        E 120 90 55 64
        E 0 90 57 64
        E 0 90 61 64
        E 0 90 63 64
        E 120 80 36 00
        E 0 80 55 00
        E 0 80 57 00
        E 0 80 61 00
        E 0 80 63 00
        E 120 90 33 64
        E 0 90 3c 60
        E 0 90 48 64
        E 0 90 4a 64
        E 0 90 54 64
        E 0 90 56 64
        E 0 90 60 64
        E 0 90 62 64
        E 120 80 3c 00
        E 0 80 48 00
        E 0 80 4a 00
        E 0 80 54 00
        E 0 80 56 00
        E 0 80 60 00
        E 0 80 62 00
        E 120 80 33 00
        E 120 90 2d 64
        E 0 90 56 64
        E 0 90 57 64
        E 0 90 62 64
        E 0 90 63 64
        E 120 80 56 00
        E 0 80 57 00
        E 0 80 62 00
        E 0 80 63 00
        E 120 90 56 64
        E 0 90 57 64
        E 0 90 62 64
        E 0 90 63 64
        E 120 80 56 00
        E 0 80 57 00
        E 0 80 62 00
        E 0 80 63 00
        E 120 90 62 64
        E 0 90 63 64
        E 120 80 2d 00
        E 0 80 62 00
        E 0 80 63 00
        E 0 90 36 64
        E 0 90 3d 60
        E 0 90 49 64
        E 0 90 4b 64
        E 0 90 55 64
        E 0 90 57 64
        E 0 90 61 64
        E 0 90 63 64
        E 120 80 3d 00
        E 0 80 49 00
        E 0 80 4b 00
        E 0 80 55 00
        E 0 80 57 00
        E 0 80 61 00
        E 0 80 63 00
        E 240 80 36 00
        E 120 90 33 64
        E 0 90 3c 60
        E 0 90 48 64
        E 0 90 4a 64
        E 0 90 54 64
        E 0 90 56 64
        E 0 90 60 64
        E 0 90 62 64
        E 120 80 3c 00
        E 0 80 48 00
        E 0 80 4a 00
        E 0 80 54 00
        E 0 80 56 00
        E 0 80 60 00
        E 0 80 62 00
        E 120 80 33 00
        E 120 90 2d 64
        E 0 90 56 64
        E 0 90 57 64
        E 0 90 62 64
        E 0 90 63 64
        E 120 80 56 00
        E 0 80 57 00
        E 0 80 62 00
        E 0 80 63 00
        E 120 90 56 64
        E 0 90 57 64
        E 0 90 62 64
        E 0 90 63 64
        E 120 80 56 00
        E 0 80 57 00
        E 0 80 62 00
        E 0 80 63 00
        E 120 90 62 64
        E 0 90 63 64
        E 120 80 2d 00
        E 0 80 62 00
        E 0 80 63 00
        E 0 90 36 64
        E 0 90 3d 60
        E 0 90 49 64
        E 0 90 4b 64
        E 0 90 55 64
        E 0 90 57 64
        E 0 90 61 64
        E 0 90 63 64
        E 120 80 3d 00
        E 0 80 49 00
        E 0 80 4b 00
        E 0 80 55 00
        E 0 80 57 00
        E 0 80 61 00
        E 0 80 63 00
        E 120 90 55 64
        E 0 90 57 64
        E 0 90 61 64
        E 0 90 63 64
        E 120 80 36 00
        E 0 80 55 00
        E 0 80 57 00
        E 0 80 61 00
        E 0 80 63 00
        E 120 90 33 64
        E 0 90 3c 60
        E 0 90 48 64
        E 0 90 4a 64
        E 0 90 54 64
        E 0 90 56 64
        E 0 90 60 64
        E 0 90 62 64
        E 120 80 3c 00
        E 0 80 48 00
        E 0 80 4a 00
        E 0 80 54 00
        E 0 80 56 00
        E 0 80 60 00
        E 0 80 62 00
        E 120 80 33 00
        E 120 90 2d 64
        E 0 90 56 64
        E 0 90 57 64
        E 0 90 62 64
        E 0 90 63 64
        E 120 80 56 00
        E 0 80 57 00
        E 0 80 62 00
        E 0 80 63 00
        E 120 90 56 64
        E 0 90 57 64
        E 0 90 62 64
        E 0 90 63 64
        E 120 80 56 00
        E 0 80 57 00
        E 0 80 62 00
        E 0 80 63 00
        E 120 90 62 64
        E 0 90 63 64
        E 120 80 2d 00
        E 0 80 62 00
        E 0 80 63 00
        E 0 90 36 64
        E 0 90 3d 60
        E 0 90 49 64
        E 0 90 4b 64
        E 0 90 55 64
        E 0 90 57 64
        E 0 90 61 64
        E 0 90 63 64
        E 120 80 3d 00
        E 0 80 49 00
        E 0 80 4b 00
        E 0 80 55 00
        E 0 80 57 00
        E 0 80 61 00
        E 0 80 63 00
        E 240 80 36 00
        <X 120 0
          /wFbcGxheV0=
        >
        E 0 90 2b 64
        E 0 90 3c 60
        E 0 90 3d 60
        E 0 90 48 64
        E 0 90 49 64
        E 0 90 54 64
        E 0 90 55 64
        E 0 90 60 64
        E 0 90 61 64
        E 0 90 62 64
        E 0 90 74 64
        E 720 80 3c 00
        E 0 80 3d 00
        E 240 80 48 00
        E 0 80 49 00
        E 240 80 54 00
        E 0 80 55 00
        E 120 80 2b 00
        E 0 80 60 00
        E 0 80 61 00
        E 0 80 62 00
        E 120 90 32 64
        E 0 90 3c 60
        E 0 90 3e 60
        E 0 90 48 64
        E 0 90 4a 64
        E 0 90 54 64
        E 0 90 56 64
        E 0 90 60 64
        E 0 90 61 64
        E 0 90 63 64
        E 720 80 3c 00
        E 0 80 3e 00
        E 240 80 48 00
        E 0 80 4a 00
        E 240 80 54 00
        E 0 80 56 00
        E 120 80 32 00
        E 0 80 60 00
        E 0 80 61 00
        E 0 80 63 00
        E 120 80 74 00
        E 0 90 2b 64
        E 0 90 3c 60
        E 0 90 3d 60
        E 0 90 48 64
        E 0 90 49 64
        E 0 90 54 64
        E 0 90 55 64
        E 0 90 60 64
        E 0 90 61 64
        E 0 90 62 64
        E 720 80 3c 00
        E 0 80 3d 00
        E 240 80 48 00
        E 0 80 49 00
        E 240 80 54 00
        E 0 80 55 00
        E 120 80 2b 00
        E 0 80 60 00
        E 0 80 61 00
        E 0 80 62 00
        E 120 90 32 64
        E 0 90 3c 60
        E 0 90 3e 60
        E 0 90 48 64
        E 0 90 4a 64
        E 0 90 54 64
        E 0 90 56 64
        E 0 90 60 64
        E 0 90 61 64
        E 0 90 63 64
        E 720 80 3c 00
        E 0 80 3e 00
        E 240 80 48 00
        E 0 80 4a 00
        E 240 80 54 00
        E 0 80 56 00
        E 120 80 32 00
        E 0 80 60 00
        E 0 80 61 00
        E 0 80 63 00
        E 120 90 2b 64
        E 0 90 3c 60
        E 0 90 3d 60
        E 0 90 48 64
        E 0 90 49 64
        E 0 90 54 64
        E 0 90 55 64
        E 0 90 60 64
        E 0 90 61 64
        E 0 90 62 64
        E 720 80 3c 00
        E 0 80 3d 00
        E 240 80 48 00
        E 0 80 49 00
        E 240 80 54 00
        E 0 80 55 00
        E 120 80 2b 00
        E 0 80 60 00
        E 0 80 61 00
        E 0 80 62 00
        E 120 90 32 64
        E 0 90 3c 60
        E 0 90 3e 60
        E 0 90 48 64
        E 0 90 4a 64
        E 0 90 54 64
        E 0 90 56 64
        E 0 90 60 64
        E 0 90 61 64
        E 0 90 63 64
        E 720 80 3c 00
        E 0 80 3e 00
        E 240 80 48 00
        E 0 80 4a 00
        E 240 80 54 00
        E 0 80 56 00
        E 120 80 32 00
        E 0 80 60 00
        E 0 80 61 00
        E 0 80 63 00
        E 120 90 2b 64
        E 0 90 3c 60
        E 0 90 3d 60
        E 0 90 48 64
        E 0 90 49 64
        E 0 90 54 64
        E 0 90 55 64
        E 0 90 60 64
        E 0 90 61 64
        E 0 90 62 64
        E 720 80 3c 00
        E 0 80 3d 00
        E 240 80 48 00
        E 0 80 49 00
        E 240 80 54 00
        E 0 80 55 00
        E 120 80 2b 00
        E 0 80 60 00
        E 0 80 61 00
        E 0 80 62 00
        E 120 90 32 64
        E 0 90 3c 60
        E 0 90 3e 60
        E 0 90 48 64
        E 0 90 4a 64
        E 0 90 54 64
        E 0 90 56 64
        E 0 90 60 64
        E 0 90 61 64
        E 0 90 63 64
        E 720 80 3c 00
        E 0 80 3e 00
        E 240 80 48 00
        E 0 80 4a 00
        E 240 80 54 00
        E 0 80 56 00
        E 120 80 32 00
        E 0 80 60 00
        E 0 80 61 00
        E 0 80 63 00
        <X 120 0
          /wFbaW50ZW5zZV0=
        >
        E 0 90 39 64
        E 0 90 57 64
        E 0 90 63 64
        E 120 80 57 00
        E 0 80 63 00
        E 0 90 63 64
        E 120 80 63 00
        E 0 90 3e 60
        E 0 90 4a 64
        E 0 90 4b 64
        E 0 90 57 64
        E 0 90 58 64
        E 0 90 63 64
        E 0 90 64 64
        E 120 80 39 00
        E 0 80 3e 00
        E 0 80 4a 00
        E 0 80 4b 00
        E 0 80 57 00
        E 0 80 58 00
        E 0 80 63 00
        E 0 80 64 00
        E 0 90 63 64
        E 0 90 64 64
        E 120 80 63 00
        E 0 80 64 00
        E 0 90 36 64
        E 0 90 56 64
        E 0 90 62 64
        E 120 80 56 00
        E 0 80 62 00
        E 0 90 62 64
        E 120 80 62 00
        E 0 90 3d 60
        E 0 90 49 64
        E 0 90 4a 64
        E 0 90 56 64
        E 0 90 57 64
        E 0 90 62 64
        E 0 90 63 64
        E 120 80 36 00
        E 0 80 3d 00
        E 0 80 49 00
        E 0 80 4a 00
        E 0 80 56 00
        E 0 80 57 00
        E 0 80 62 00
        E 0 80 63 00
        E 0 90 62 64
        E 0 90 63 64
        E 120 80 62 00
        E 0 80 63 00
        E 0 90 32 64
        E 0 90 55 64
        E 0 90 61 64
        E 120 80 55 00
        E 0 80 61 00
        E 0 90 61 64
        E 120 80 61 00
        E 0 90 3c 60
        E 0 90 48 64
        E 0 90 49 64
        E 0 90 55 64
        E 0 90 56 64
        E 0 90 61 64
        E 0 90 62 64
        E 120 80 32 00
        E 0 80 3c 00
        E 0 80 48 00
        E 0 80 49 00
        E 0 80 55 00
        E 0 80 56 00
        E 0 80 61 00
        E 0 80 62 00
        E 0 90 61 64
        E 0 90 62 64
        E 120 80 61 00
        E 0 80 62 00
        E 0 90 39 64
        E 0 90 57 64
        E 0 90 63 64
        E 120 80 57 00
        E 0 80 63 00
        E 0 90 63 64
        E 120 80 63 00
        E 0 90 3e 60
        E 0 90 4a 64
        E 0 90 4b 64
        E 0 90 57 64
        E 0 90 58 64
        E 0 90 63 64
        E 0 90 64 64
        E 119 80 39 00
        E 1 80 3e 00
        E 0 80 4a 00
        E 0 80 4b 00
        E 0 80 57 00
        E 0 80 58 00
        E 0 80 63 00
        E 0 80 64 00
        E 0 90 63 64
        E 0 90 64 64
        E 119 90 36 64
        E 1 80 63 00
        E 0 80 64 00
        E 0 90 56 64
        E 0 90 62 64
        E 120 80 56 00
        E 0 80 62 00
        E 0 90 62 64
        E 120 80 62 00
        E 0 90 3d 60
        E 0 90 49 64
        E 0 90 4a 64
        E 0 90 56 64
        E 0 90 57 64
        E 0 90 62 64
        E 0 90 63 64
        E 119 80 36 00
        E 1 80 3d 00
        E 0 80 49 00
        E 0 80 4a 00
        E 0 80 56 00
        E 0 80 57 00
        E 0 80 62 00
        E 0 80 63 00
        E 0 90 62 64
        E 0 90 63 64
        E 119 90 32 64
        E 1 80 62 00
        E 0 80 63 00
        E 0 90 55 64
        E 0 90 61 64
        E 120 80 55 00
        E 0 80 61 00
        E 0 90 61 64
        E 120 80 61 00
        E 0 90 3c 60
        E 0 90 48 64
        E 0 90 49 64
        E 0 90 55 64
        E 0 90 56 64
        E 0 90 61 64
        E 0 90 62 64
        E 119 80 32 00
        E 1 80 3c 00
        E 0 80 48 00
        E 0 80 49 00
        E 0 80 55 00
        E 0 80 56 00
        E 0 80 61 00
        E 0 80 62 00
        E 0 90 61 64
        E 0 90 62 64
        E 120 80 61 00
        E 0 80 62 00
        E 0 90 39 64
        E 0 90 57 64
        E 0 90 63 64
        E 120 80 57 00
        E 0 80 63 00
        E 0 90 63 64
        E 120 80 63 00
        E 0 90 3e 60
        E 0 90 4a 64
        E 0 90 4b 64
        E 0 90 57 64
        E 0 90 58 64
        E 0 90 63 64
        E 0 90 64 64
        E 120 80 39 00
        E 0 80 3e 00
        E 0 80 4a 00
        E 0 80 4b 00
        E 0 80 57 00
        E 0 80 58 00
        E 0 80 63 00
        E 0 80 64 00
        E 0 90 63 64
        E 0 90 64 64
        E 120 80 63 00
        E 0 80 64 00
        E 0 90 36 64
        E 0 90 56 64
        E 0 90 62 64
        E 120 80 56 00
        E 0 80 62 00
        E 0 90 62 64
        E 120 80 62 00
        E 0 90 3d 60
        E 0 90 49 64
        E 0 90 4a 64
        E 0 90 56 64
        E 0 90 57 64
        E 0 90 62 64
        E 0 90 63 64
        E 120 80 36 00
        E 0 80 3d 00
        E 0 80 49 00
        E 0 80 4a 00
        E 0 80 56 00
        E 0 80 57 00
        E 0 80 62 00
        E 0 80 63 00
        E 0 90 62 64
        E 0 90 63 64
        E 120 80 62 00
        E 0 80 63 00
        E 0 90 32 64
        E 0 90 55 64
        E 0 90 61 64
        E 120 80 55 00
        E 0 80 61 00
        E 0 90 61 64
        E 120 80 61 00
        E 0 90 3c 60
        E 0 90 48 64
        E 0 90 49 64
        E 0 90 55 64
        E 0 90 56 64
        E 0 90 61 64
        E 0 90 62 64
        E 120 80 32 00
        E 0 80 3c 00
        E 0 80 48 00
        E 0 80 49 00
        E 0 80 55 00
        E 0 80 56 00
        E 0 80 61 00
        E 0 80 62 00
        E 0 90 61 64
        E 0 90 62 64
        E 120 80 61 00
        E 0 80 62 00
        E 0 90 39 64
        E 0 90 57 64
        E 0 90 63 64
        E 120 80 57 00
        E 0 80 63 00
        E 0 90 63 64
        E 120 80 63 00
        E 0 90 3e 60
        E 0 90 4a 64
        E 0 90 4b 64
        E 0 90 57 64
        E 0 90 58 64
        E 0 90 63 64
        E 0 90 64 64
        E 119 80 39 00
        E 1 80 3e 00
        E 0 80 4a 00
        E 0 80 4b 00
        E 0 80 57 00
        E 0 80 58 00
        E 0 80 63 00
        E 0 80 64 00
        E 0 90 63 64
        E 0 90 64 64
        E 119 90 36 64
        E 1 80 63 00
        E 0 80 64 00
        E 0 90 56 64
        E 0 90 62 64
        E 120 80 56 00
        E 0 80 62 00
        E 0 90 62 64
        E 120 80 62 00
        E 0 90 3d 60
        E 0 90 49 64
        E 0 90 4a 64
        E 0 90 56 64
        E 0 90 57 64
        E 0 90 62 64
        E 0 90 63 64
        E 119 80 36 00
        E 1 80 3d 00
        E 0 80 49 00
        E 0 80 4a 00
        E 0 80 56 00
        E 0 80 57 00
        E 0 80 62 00
        E 0 80 63 00
        E 0 90 62 64
        E 0 90 63 64
        E 119 90 32 64
        E 1 80 62 00
        E 0 80 63 00
        E 0 90 55 64
        E 0 90 61 64
        E 120 80 55 00
        E 0 80 61 00
        E 0 90 61 64
        E 120 80 61 00
        E 0 90 3c 60
        E 0 90 48 64
        E 0 90 49 64
        E 0 90 55 64
        E 0 90 56 64
        E 0 90 61 64
        E 0 90 62 64
        E 119 80 32 00
        E 1 80 3c 00
        E 0 80 48 00
        E 0 80 49 00
        E 0 80 55 00
        E 0 80 56 00
        E 0 80 61 00
        E 0 80 62 00
        E 0 90 61 64
        E 0 90 62 64
        E 120 80 61 00
        E 0 80 62 00
        E 0 90 39 64
        E 0 90 57 64
        E 0 90 63 64
        E 0 90 74 64
        E 120 80 57 00
        E 0 80 63 00
        E 0 90 63 64
        E 120 80 63 00
        E 0 90 3e 60
        E 0 90 4a 64
        E 0 90 4b 64
        E 0 90 57 64
        E 0 90 58 64
        E 0 90 63 64
        E 0 90 64 64
        E 120 80 39 00
        E 0 80 3e 00
        E 0 80 4a 00
        E 0 80 4b 00
        E 0 80 57 00
        E 0 80 58 00
        E 0 80 63 00
        E 0 80 64 00
        E 0 90 63 64
        E 0 90 64 64
        E 120 80 63 00
        E 0 80 64 00
        E 0 90 36 64
        E 0 90 56 64
        E 0 90 62 64
        E 120 80 56 00
        E 0 80 62 00
        E 0 90 62 64
        E 120 80 62 00
        E 0 90 3d 60
        E 0 90 49 64
        E 0 90 4a 64
        E 0 90 56 64
        E 0 90 57 64
        E 0 90 62 64
        E 0 90 63 64
        E 120 80 36 00
        E 0 80 3d 00
        E 0 80 49 00
        E 0 80 4a 00
        E 0 80 56 00
        E 0 80 57 00
        E 0 80 62 00
        E 0 80 63 00
        E 0 90 62 64
        E 0 90 63 64
        E 120 80 62 00
        E 0 80 63 00
        E 0 90 32 64
        E 0 90 55 64
        E 0 90 61 64
        E 120 80 55 00
        E 0 80 61 00
        E 0 90 61 64
        E 120 80 61 00
        E 0 90 3c 60
        E 0 90 48 64
        E 0 90 49 64
        E 0 90 55 64
        E 0 90 56 64
        E 0 90 61 64
        E 0 90 62 64
        E 120 80 32 00
        E 0 80 3c 00
        E 0 80 48 00
        E 0 80 49 00
        E 0 80 55 00
        E 0 80 56 00
        E 0 80 61 00
        E 0 80 62 00
        E 0 90 61 64
        E 0 90 62 64
        E 120 80 61 00
        E 0 80 62 00
        E 0 90 39 64
        E 0 90 57 64
        E 0 90 63 64
        E 120 80 57 00
        E 0 80 63 00
        E 0 90 63 64
        E 120 80 63 00
        E 0 90 3e 60
        E 0 90 4a 64
        E 0 90 4b 64
        E 0 90 57 64
        E 0 90 58 64
        E 0 90 63 64
        E 0 90 64 64
        E 119 80 39 00
        E 1 80 3e 00
        E 0 80 4a 00
        E 0 80 4b 00
        E 0 80 57 00
        E 0 80 58 00
        E 0 80 63 00
        E 0 80 64 00
        E 0 90 63 64
        E 0 90 64 64
        E 119 90 36 64
        E 1 80 63 00
        E 0 80 64 00
        E 0 90 56 64
        E 0 90 62 64
        E 120 80 56 00
        E 0 80 62 00
        E 0 90 62 64
        E 120 80 62 00
        E 0 90 3d 60
        E 0 90 49 64
        E 0 90 4a 64
        E 0 90 56 64
        E 0 90 57 64
        E 0 90 62 64
        E 0 90 63 64
        E 119 80 36 00
        E 1 80 3d 00
        E 0 80 49 00
        E 0 80 4a 00
        E 0 80 56 00
        E 0 80 57 00
        E 0 80 62 00
        E 0 80 63 00
        E 0 90 62 64
        E 0 90 63 64
        E 119 90 32 64
        E 1 80 62 00
        E 0 80 63 00
        E 0 90 55 64
        E 0 90 61 64
        E 120 80 55 00
        E 0 80 61 00
        E 0 90 61 64
        E 120 80 61 00
        E 0 90 3c 60
        E 0 90 48 64
        E 0 90 49 64
        E 0 90 55 64
        E 0 90 56 64
        E 0 90 61 64
        E 0 90 62 64
        E 119 80 32 00
        E 1 80 3c 00
        E 0 80 48 00
        E 0 80 49 00
        E 0 80 55 00
        E 0 80 56 00
        E 0 80 61 00
        E 0 80 62 00
        E 0 90 61 64
        E 0 90 62 64
        E 120 80 74 00
        E 0 80 61 00
        E 0 80 62 00
        E 0 90 39 64
        E 0 90 57 64
        E 0 90 63 64
        E 120 80 57 00
        E 0 80 63 00
        E 0 90 63 64
        E 120 80 63 00
        E 0 90 3e 60
        E 0 90 4a 64
        E 0 90 4b 64
        E 0 90 57 64
        E 0 90 58 64
        E 0 90 63 64
        E 0 90 64 64
        E 120 80 39 00
        E 0 80 3e 00
        E 0 80 4a 00
        E 0 80 4b 00
        E 0 80 57 00
        E 0 80 58 00
        E 0 80 63 00
        E 0 80 64 00
        E 0 90 63 64
        E 0 90 64 64
        E 120 80 63 00
        E 0 80 64 00
        E 0 90 36 64
        E 0 90 56 64
        E 0 90 62 64
        E 120 80 56 00
        E 0 80 62 00
        E 0 90 62 64
        E 120 80 62 00
        E 0 90 3d 60
        E 0 90 49 64
        E 0 90 4a 64
        E 0 90 56 64
        E 0 90 57 64
        E 0 90 62 64
        E 0 90 63 64
        E 120 80 36 00
        E 0 80 3d 00
        E 0 80 49 00
        E 0 80 4a 00
        E 0 80 56 00
        E 0 80 57 00
        E 0 80 62 00
        E 0 80 63 00
        E 0 90 62 64
        E 0 90 63 64
        E 120 80 62 00
        E 0 80 63 00
        E 0 90 32 64
        E 0 90 55 64
        E 0 90 61 64
        E 120 80 55 00
        E 0 80 61 00
        E 0 90 61 64
        E 120 80 61 00
        E 0 90 3c 60
        E 0 90 48 64
        E 0 90 49 64
        E 0 90 55 64
        E 0 90 56 64
        E 0 90 61 64
        E 0 90 62 64
        E 120 80 32 00
        E 0 80 3c 00
        E 0 80 48 00
        E 0 80 49 00
        E 0 80 55 00
        E 0 80 56 00
        E 0 80 61 00
        E 0 80 62 00
        E 0 90 61 64
        E 0 90 62 64
        E 120 80 61 00
        E 0 80 62 00
        E 0 90 39 64
        E 0 90 57 64
        E 0 90 63 64
        E 120 80 57 00
        E 0 80 63 00
        E 0 90 63 64
        E 120 80 63 00
        E 0 90 3e 60
        E 0 90 4a 64
        E 0 90 4b 64
        E 0 90 57 64
        E 0 90 58 64
        E 0 90 63 64
        E 0 90 64 64
        E 119 80 39 00
        E 1 80 3e 00
        E 0 80 4a 00
        E 0 80 4b 00
        E 0 80 57 00
        E 0 80 58 00
        E 0 80 63 00
        E 0 80 64 00
        E 0 90 63 64
        E 0 90 64 64
        E 119 90 36 64
        E 1 80 63 00
        E 0 80 64 00
        E 0 90 56 64
        E 0 90 62 64
        E 120 80 56 00
        E 0 80 62 00
        E 0 90 62 64
        E 120 80 62 00
        E 0 90 3d 60
        E 0 90 49 64
        E 0 90 4a 64
        E 0 90 56 64
        E 0 90 57 64
        E 0 90 62 64
        E 0 90 63 64
        E 119 80 36 00
        E 1 80 3d 00
        E 0 80 49 00
        E 0 80 4a 00
        E 0 80 56 00
        E 0 80 57 00
        E 0 80 62 00
        E 0 80 63 00
        E 0 90 62 64
        E 0 90 63 64
        E 119 90 32 64
        E 1 80 62 00
        E 0 80 63 00
        E 0 90 55 64
        E 0 90 61 64
        E 120 80 55 00
        E 0 80 61 00
        E 0 90 61 64
        E 120 80 61 00
        E 0 90 3c 60
        E 0 90 48 64
        E 0 90 49 64
        E 0 90 55 64
        E 0 90 56 64
        E 0 90 61 64
        E 0 90 62 64
        E 119 80 32 00
        E 1 80 3c 00
        E 0 80 48 00
        E 0 80 49 00
        E 0 80 55 00
        E 0 80 56 00
        E 0 80 61 00
        E 0 80 62 00
        E 0 90 61 64
        E 0 90 62 64
        E 120 80 61 00
        E 0 80 62 00
        E 0 90 39 64
        E 0 90 57 64
        E 0 90 63 64
        E 120 80 57 00
        E 0 80 63 00
        E 0 90 63 64
        E 120 80 63 00
        E 0 90 3e 60
        E 0 90 4a 64
        E 0 90 4b 64
        E 0 90 57 64
        E 0 90 58 64
        E 0 90 63 64
        E 0 90 64 64
        E 120 80 39 00
        E 0 80 3e 00
        E 0 80 4a 00
        E 0 80 4b 00
        E 0 80 57 00
        E 0 80 58 00
        E 0 80 63 00
        E 0 80 64 00
        E 0 90 63 64
        E 0 90 64 64
        E 120 80 63 00
        E 0 80 64 00
        E 0 90 36 64
        E 0 90 56 64
        E 0 90 62 64
        E 120 80 56 00
        E 0 80 62 00
        E 0 90 62 64
        E 120 80 62 00
        E 0 90 3d 60
        E 0 90 49 64
        E 0 90 4a 64
        E 0 90 56 64
        E 0 90 57 64
        E 0 90 62 64
        E 0 90 63 64
        E 120 80 36 00
        E 0 80 3d 00
        E 0 80 49 00
        E 0 80 4a 00
        E 0 80 56 00
        E 0 80 57 00
        E 0 80 62 00
        E 0 80 63 00
        E 0 90 62 64
        E 0 90 63 64
        E 120 80 62 00
        E 0 80 63 00
        E 0 90 32 64
        E 0 90 55 64
        E 0 90 61 64
        E 120 80 55 00
        E 0 80 61 00
        E 0 90 61 64
        E 120 80 61 00
        E 0 90 3c 60
        E 0 90 48 64
        E 0 90 49 64
        E 0 90 55 64
        E 0 90 56 64
        E 0 90 61 64
        E 0 90 62 64
        E 120 80 32 00
        E 0 80 3c 00
        E 0 80 48 00
        E 0 80 49 00
        E 0 80 55 00
        E 0 80 56 00
        E 0 80 61 00
        E 0 80 62 00
        E 0 90 61 64
        E 0 90 62 64
        E 120 80 61 00
        E 0 80 62 00
        E 0 90 39 64
        E 0 90 57 64
        E 0 90 63 64
        E 120 80 57 00
        E 0 80 63 00
        E 0 90 63 64
        E 120 80 63 00
        E 0 90 3e 60
        E 0 90 4a 64
        E 0 90 4b 64
        E 0 90 57 64
        E 0 90 58 64
        E 0 90 63 64
        E 0 90 64 64
        E 119 80 39 00
        E 1 80 3e 00
        E 0 80 4a 00
        E 0 80 4b 00
        E 0 80 57 00
        E 0 80 58 00
        E 0 80 63 00
        E 0 80 64 00
        E 0 90 63 64
        E 0 90 64 64
        E 119 90 36 64
        E 1 80 63 00
        E 0 80 64 00
        E 0 90 56 64
        E 0 90 62 64
        E 120 80 56 00
        E 0 80 62 00
        E 0 90 62 64
        E 120 80 62 00
        E 0 90 3d 60
        E 0 90 49 64
        E 0 90 4a 64
        E 0 90 56 64
        E 0 90 57 64
        E 0 90 62 64
        E 0 90 63 64
        E 119 80 36 00
        E 1 80 3d 00
        E 0 80 49 00
        E 0 80 4a 00
        E 0 80 56 00
        E 0 80 57 00
        E 0 80 62 00
        E 0 80 63 00
        E 0 90 62 64
        E 0 90 63 64
        E 119 90 32 64
        E 1 80 62 00
        E 0 80 63 00
        E 0 90 55 64
        E 0 90 61 64
        E 120 80 55 00
        E 0 80 61 00
        E 0 90 61 64
        E 120 80 61 00
        E 0 90 3c 60
        E 0 90 48 64
        E 0 90 49 64
        E 0 90 55 64
        E 0 90 56 64
        E 0 90 61 64
        E 0 90 62 64
        E 119 80 32 00
        E 1 80 3c 00
        E 0 80 48 00
        E 0 80 49 00
        E 0 80 55 00
        E 0 80 56 00
        E 0 80 61 00
        E 0 80 62 00
        E 0 90 61 64
        E 0 90 62 64
        E 120 80 61 00
        E 0 80 62 00
        E 0 90 39 64
        E 0 90 57 64
        E 0 90 63 64
        E 120 80 57 00
        E 0 80 63 00
        E 0 90 63 64
        E 120 80 63 00
        E 0 90 3e 60
        E 0 90 4a 64
        E 0 90 4b 64
        E 0 90 57 64
        E 0 90 58 64
        E 0 90 63 64
        E 0 90 64 64
        E 120 80 39 00
        E 0 80 3e 00
        E 0 80 4a 00
        E 0 80 4b 00
        E 0 80 57 00
        E 0 80 58 00
        E 0 80 63 00
        E 0 80 64 00
        E 0 90 63 64
        E 0 90 64 64
        E 120 80 63 00
        E 0 80 64 00
        E 0 90 36 64
        E 0 90 56 64
        E 0 90 62 64
        E 120 80 56 00
        E 0 80 62 00
        E 0 90 62 64
        E 120 80 62 00
        E 0 90 3d 60
        E 0 90 49 64
        E 0 90 4a 64
        E 0 90 56 64
        E 0 90 57 64
        E 0 90 62 64
        E 0 90 63 64
        E 120 80 36 00
        E 0 80 3d 00
        E 0 80 49 00
        E 0 80 4a 00
        E 0 80 56 00
        E 0 80 57 00
        E 0 80 62 00
        E 0 80 63 00
        E 0 90 62 64
        E 0 90 63 64
        E 120 80 62 00
        E 0 80 63 00
        E 0 90 32 64
        E 0 90 55 64
        E 0 90 61 64
        E 120 80 55 00
        E 0 80 61 00
        E 0 90 61 64
        E 120 80 61 00
        E 0 90 3c 60
        E 0 90 48 64
        E 0 90 49 64
        E 0 90 55 64
        E 0 90 56 64
        E 0 90 61 64
        E 0 90 62 64
        E 120 80 32 00
        E 0 80 3c 00
        E 0 80 48 00
        E 0 80 49 00
        E 0 80 55 00
        E 0 80 56 00
        E 0 80 61 00
        E 0 80 62 00
        E 0 90 61 64
        E 0 90 62 64
        E 120 80 61 00
        E 0 80 62 00
        E 0 90 39 64
        E 0 90 57 64
        E 0 90 63 64
        E 120 80 57 00
        E 0 80 63 00
        E 0 90 63 64
        E 120 80 63 00
        E 0 90 3e 60
        E 0 90 4a 64
        E 0 90 4b 64
        E 0 90 57 64
        E 0 90 58 64
        E 0 90 63 64
        E 0 90 64 64
        E 119 80 39 00
        E 1 80 3e 00
        E 0 80 4a 00
        E 0 80 4b 00
        E 0 80 57 00
        E 0 80 58 00
        E 0 80 63 00
        E 0 80 64 00
        E 0 90 63 64
        E 0 90 64 64
        E 119 90 36 64
        E 1 80 63 00
        E 0 80 64 00
        E 0 90 56 64
        E 0 90 62 64
        E 120 80 56 00
        E 0 80 62 00
        E 0 90 62 64
        E 120 80 62 00
        E 0 90 3d 60
        E 0 90 49 64
        E 0 90 4a 64
        E 0 90 56 64
        E 0 90 57 64
        E 0 90 62 64
        E 0 90 63 64
        E 119 80 36 00
        E 1 80 3d 00
        E 0 80 49 00
        E 0 80 4a 00
        E 0 80 56 00
        E 0 80 57 00
        E 0 80 62 00
        E 0 80 63 00
        E 0 90 62 64
        E 0 90 63 64
        E 119 90 32 64
        E 1 80 62 00
        E 0 80 63 00
        E 0 90 55 64
        E 0 90 61 64
        E 120 80 55 00
        E 0 80 61 00
        E 0 90 61 64
        E 120 80 61 00
        E 0 90 3c 60
        E 0 90 48 64
        E 0 90 49 64
        E 0 90 55 64
        E 0 90 56 64
        E 0 90 61 64
        E 0 90 62 64
        E 119 80 32 00
        E 1 80 3c 00
        E 0 80 48 00
        E 0 80 49 00
        E 0 80 55 00
        E 0 80 56 00
        E 0 80 61 00
        E 0 80 62 00
        E 0 90 61 64
        E 0 90 62 64
        E 120 80 61 00
        E 0 80 62 00
        E 0 90 39 64
        E 0 90 57 64
        E 0 90 63 64
        E 120 80 57 00
        E 0 80 63 00
        E 0 90 63 64
        E 120 80 63 00
        E 0 90 3e 60
        E 0 90 4a 64
        E 0 90 4b 64
        E 0 90 57 64
        E 0 90 58 64
        E 0 90 63 64
        E 0 90 64 64
        E 120 80 39 00
        E 0 80 3e 00
        E 0 80 4a 00
        E 0 80 4b 00
        E 0 80 57 00
        E 0 80 58 00
        E 0 80 63 00
        E 0 80 64 00
        E 0 90 63 64
        E 0 90 64 64
        E 120 80 63 00
        E 0 80 64 00
        E 0 90 36 64
        E 0 90 56 64
        E 0 90 62 64
        E 120 80 56 00
        E 0 80 62 00
        E 0 90 62 64
        E 120 80 62 00
        E 0 90 3d 60
        E 0 90 49 64
        E 0 90 4a 64
        E 0 90 56 64
        E 0 90 57 64
        E 0 90 62 64
        E 0 90 63 64
        E 120 80 36 00
        E 0 80 3d 00
        E 0 80 49 00
        E 0 80 4a 00
        E 0 80 56 00
        E 0 80 57 00
        E 0 80 62 00
        E 0 80 63 00
        E 0 90 62 64
        E 0 90 63 64
        E 120 80 62 00
        E 0 80 63 00
        E 0 90 32 64
        E 0 90 55 64
        E 0 90 61 64
        E 120 80 55 00
        E 0 80 61 00
        E 0 90 61 64
        E 120 80 61 00
        E 0 90 3c 60
        E 0 90 48 64
        E 0 90 49 64
        E 0 90 55 64
        E 0 90 56 64
        E 0 90 61 64
        E 0 90 62 64
        E 120 80 32 00
        E 0 80 3c 00
        E 0 80 48 00
        E 0 80 49 00
        E 0 80 55 00
        E 0 80 56 00
        E 0 80 61 00
        E 0 80 62 00
        E 0 90 61 64
        E 0 90 62 64
        E 120 80 61 00
        E 0 80 62 00
        E 0 90 39 64
        E 0 90 57 64
        E 0 90 63 64
        E 120 80 57 00
        E 0 80 63 00
        E 0 90 63 64
        E 120 80 63 00
        E 0 90 3e 60
        E 0 90 4a 64
        E 0 90 4b 64
        E 0 90 57 64
        E 0 90 58 64
        E 0 90 63 64
        E 0 90 64 64
        E 119 80 39 00
        E 1 80 3e 00
        E 0 80 4a 00
        E 0 80 4b 00
        E 0 80 57 00
        E 0 80 58 00
        E 0 80 63 00
        E 0 80 64 00
        E 0 90 63 64
        E 0 90 64 64
        E 119 90 36 64
        E 1 80 63 00
        E 0 80 64 00
        E 0 90 56 64
        E 0 90 62 64
        E 120 80 56 00
        E 0 80 62 00
        E 0 90 62 64
        E 120 80 62 00
        E 0 90 3d 60
        E 0 90 49 64
        E 0 90 4a 64
        E 0 90 56 64
        E 0 90 57 64
        E 0 90 62 64
        E 0 90 63 64
        E 119 80 36 00
        E 1 80 3d 00
        E 0 80 49 00
        E 0 80 4a 00
        E 0 80 56 00
        E 0 80 57 00
        E 0 80 62 00
        E 0 80 63 00
        E 0 90 62 64
        E 0 90 63 64
        E 119 90 32 64
        E 1 80 62 00
        E 0 80 63 00
        E 0 90 55 64
        E 0 90 61 64
        E 120 80 55 00
        E 0 80 61 00
        E 0 90 61 64
        E 120 80 61 00
        E 0 90 3c 60
        E 0 90 48 64
        E 0 90 49 64
        E 0 90 55 64
        E 0 90 56 64
        E 0 90 61 64
        E 0 90 62 64
        E 119 80 32 00
        E 1 80 3c 00
        E 0 80 48 00
        E 0 80 49 00
        E 0 80 55 00
        E 0 80 56 00
        E 0 80 61 00
        E 0 80 62 00
        E 0 90 61 64
        E 0 90 62 64
        E 120 80 61 00
        E 0 80 62 00
        E 0 90 39 64
        E 0 90 57 64
        E 0 90 63 64
        E 120 80 57 00
        E 0 80 63 00
        E 0 90 63 64
        E 120 80 63 00
        E 0 90 3e 60
        E 0 90 4a 64
        E 0 90 4b 64
        E 0 90 57 64
        E 0 90 58 64
        E 0 90 63 64
        E 0 90 64 64
        E 120 80 39 00
        E 0 80 3e 00
        E 0 80 4a 00
        E 0 80 4b 00
        E 0 80 57 00
        E 0 80 58 00
        E 0 80 63 00
        E 0 80 64 00
        E 0 90 63 64
        E 0 90 64 64
        E 120 80 63 00
        E 0 80 64 00
        E 0 90 36 64
        E 0 90 56 64
        E 0 90 62 64
        E 120 80 56 00
        E 0 80 62 00
        E 0 90 62 64
        E 120 80 62 00
        E 0 90 3d 60
        E 0 90 49 64
        E 0 90 4a 64
        E 0 90 56 64
        E 0 90 57 64
        E 0 90 62 64
        E 0 90 63 64
        E 120 80 36 00
        E 0 80 3d 00
        E 0 80 49 00
        E 0 80 4a 00
        E 0 80 56 00
        E 0 80 57 00
        E 0 80 62 00
        E 0 80 63 00
        E 0 90 62 64
        E 0 90 63 64
        E 120 80 62 00
        E 0 80 63 00
        E 0 90 32 64
        E 0 90 55 64
        E 0 90 61 64
        E 120 80 55 00
        E 0 80 61 00
        E 0 90 61 64
        E 120 80 61 00
        E 0 90 3c 60
        E 0 90 48 64
        E 0 90 49 64
        E 0 90 55 64
        E 0 90 56 64
        E 0 90 61 64
        E 0 90 62 64
        E 120 80 32 00
        E 0 80 3c 00
        E 0 80 48 00
        E 0 80 49 00
        E 0 80 55 00
        E 0 80 56 00
        E 0 80 61 00
        E 0 80 62 00
        E 0 90 61 64
        E 0 90 62 64
        E 120 80 61 00
        E 0 80 62 00
        E 0 90 39 64
        E 0 90 57 64
        E 0 90 63 64
        E 0 90 74 64
        E 120 80 57 00
        E 0 80 63 00
        E 0 90 63 64
        E 120 80 63 00
        E 0 90 3e 60
        E 0 90 4a 64
        E 0 90 4b 64
        E 0 90 57 64
        E 0 90 58 64
        E 0 90 63 64
        E 0 90 64 64
        E 119 80 39 00
        E 1 80 3e 00
        E 0 80 4a 00
        E 0 80 4b 00
        E 0 80 57 00
        E 0 80 58 00
        E 0 80 63 00
        E 0 80 64 00
        E 0 90 63 64
        E 0 90 64 64
        E 119 90 36 64
        E 1 80 63 00
        E 0 80 64 00
        E 0 90 56 64
        E 0 90 62 64
        E 120 80 56 00
        E 0 80 62 00
        E 0 90 62 64
        E 120 80 62 00
        E 0 90 3d 60
        E 0 90 49 64
        E 0 90 4a 64
        E 0 90 56 64
        E 0 90 57 64
        E 0 90 62 64
        E 0 90 63 64
        E 119 80 36 00
        E 1 80 3d 00
        E 0 80 49 00
        E 0 80 4a 00
        E 0 80 56 00
        E 0 80 57 00
        E 0 80 62 00
        E 0 80 63 00
        E 0 90 62 64
        E 0 90 63 64
        E 119 90 32 64
        E 1 80 62 00
        E 0 80 63 00
        E 0 90 55 64
        E 0 90 61 64
        E 120 80 55 00
        E 0 80 61 00
        E 0 90 61 64
        E 120 80 61 00
        E 0 90 3c 60
        E 0 90 48 64
        E 0 90 49 64
        E 0 90 55 64
        E 0 90 56 64
        E 0 90 61 64
        E 0 90 62 64
        E 119 80 32 00
        E 1 80 3c 00
        E 0 80 48 00
        E 0 80 49 00
        E 0 80 55 00
        E 0 80 56 00
        E 0 80 61 00
        E 0 80 62 00
        E 0 90 61 64
        E 0 90 62 64
        E 120 80 61 00
        E 0 80 62 00
        E 0 90 39 64
        E 0 90 57 64
        E 0 90 63 64
        E 120 80 74 00
        E 0 80 57 00
        E 0 80 63 00
        E 0 90 63 64
        E 120 80 63 00
        E 0 90 3e 60
        E 0 90 4a 64
        E 0 90 4b 64
        E 0 90 57 64
        E 0 90 58 64
        E 0 90 63 64
        E 0 90 64 64
        E 120 80 39 00
        E 0 80 3e 00
        E 0 80 4a 00
        E 0 80 4b 00
        E 0 80 57 00
        E 0 80 58 00
        E 0 80 63 00
        E 0 80 64 00
        E 0 90 63 64
        E 0 90 64 64
        E 120 80 63 00
        E 0 80 64 00
        E 0 90 36 64
        E 0 90 56 64
        E 0 90 62 64
        E 120 80 56 00
        E 0 80 62 00
        E 0 90 62 64
        E 120 80 62 00
        E 0 90 3d 60
        E 0 90 49 64
        E 0 90 4a 64
        E 0 90 56 64
        E 0 90 57 64
        E 0 90 62 64
        E 0 90 63 64
        E 120 80 36 00
        E 0 80 3d 00
        E 0 80 49 00
        E 0 80 4a 00
        E 0 80 56 00
        E 0 80 57 00
        E 0 80 62 00
        E 0 80 63 00
        E 0 90 62 64
        E 0 90 63 64
        E 120 80 62 00
        E 0 80 63 00
        E 0 90 32 64
        E 0 90 55 64
        E 0 90 61 64
        E 120 80 55 00
        E 0 80 61 00
        E 0 90 61 64
        E 120 80 61 00
        E 0 90 3c 60
        E 0 90 48 64
        E 0 90 49 64
        E 0 90 55 64
        E 0 90 56 64
        E 0 90 61 64
        E 0 90 62 64
        E 120 80 32 00
        E 0 80 3c 00
        E 0 80 48 00
        E 0 80 49 00
        E 0 80 55 00
        E 0 80 56 00
        E 0 80 61 00
        E 0 80 62 00
        E 0 90 61 64
        E 0 90 62 64
        E 120 80 61 00
        E 0 80 62 00
        E 0 90 39 64
        E 0 90 57 64
        E 0 90 63 64
        E 120 80 57 00
        E 0 80 63 00
        E 0 90 63 64
        E 120 80 63 00
        E 0 90 3e 60
        E 0 90 4a 64
        E 0 90 4b 64
        E 0 90 57 64
        E 0 90 58 64
        E 0 90 63 64
        E 0 90 64 64
        E 119 80 39 00
        E 1 80 3e 00
        E 0 80 4a 00
        E 0 80 4b 00
        E 0 80 57 00
        E 0 80 58 00
        E 0 80 63 00
        E 0 80 64 00
        E 0 90 63 64
        E 0 90 64 64
        E 119 90 36 64
        E 1 80 63 00
        E 0 80 64 00
        E 0 90 56 64
        E 0 90 62 64
        E 120 80 56 00
        E 0 80 62 00
        E 0 90 62 64
        E 120 80 62 00
        E 0 90 3d 60
        E 0 90 49 64
        E 0 90 4a 64
        E 0 90 56 64
        E 0 90 57 64
        E 0 90 62 64
        E 0 90 63 64
        E 119 80 36 00
        E 1 80 3d 00
        E 0 80 49 00
        E 0 80 4a 00
        E 0 80 56 00
        E 0 80 57 00
        E 0 80 62 00
        E 0 80 63 00
        E 0 90 62 64
        E 0 90 63 64
        E 119 90 32 64
        E 1 80 62 00
        E 0 80 63 00
        E 0 90 55 64
        E 0 90 61 64
        E 120 80 55 00
        E 0 80 61 00
        E 0 90 61 64
        E 120 80 61 00
        E 0 90 3c 60
        E 0 90 48 64
        E 0 90 49 64
        E 0 90 55 64
        E 0 90 56 64
        E 0 90 61 64
        E 0 90 62 64
        E 119 80 32 00
        E 1 80 3c 00
        E 0 80 48 00
        E 0 80 49 00
        E 0 80 55 00
        E 0 80 56 00
        E 0 80 61 00
        E 0 80 62 00
        E 0 90 61 64
        E 0 90 62 64
        E 120 80 61 00
        E 0 80 62 00
        E 0 90 39 64
        E 0 90 57 64
        E 0 90 63 64
        E 120 80 57 00
        E 0 80 63 00
        E 0 90 63 64
        E 120 80 63 00
        E 0 90 3e 60
        E 0 90 4a 64
        E 0 90 4b 64
        E 0 90 57 64
        E 0 90 58 64
        E 0 90 63 64
        E 0 90 64 64
        E 120 80 39 00
        E 0 80 3e 00
        E 0 80 4a 00
        E 0 80 4b 00
        E 0 80 57 00
        E 0 80 58 00
        E 0 80 63 00
        E 0 80 64 00
        E 0 90 63 64
        E 0 90 64 64
        E 120 80 63 00
        E 0 80 64 00
        E 0 90 36 64
        E 0 90 56 64
        E 0 90 62 64
        E 120 80 56 00
        E 0 80 62 00
        E 0 90 62 64
        E 120 80 62 00
        E 0 90 3d 60
        E 0 90 49 64
        E 0 90 4a 64
        E 0 90 56 64
        E 0 90 57 64
        E 0 90 62 64
        E 0 90 63 64
        E 120 80 36 00
        E 0 80 3d 00
        E 0 80 49 00
        E 0 80 4a 00
        E 0 80 56 00
        E 0 80 57 00
        E 0 80 62 00
        E 0 80 63 00
        E 0 90 62 64
        E 0 90 63 64
        E 120 80 62 00
        E 0 80 63 00
        E 0 90 32 64
        E 0 90 55 64
        E 0 90 61 64
        E 120 80 55 00
        E 0 80 61 00
        E 0 90 61 64
        E 120 80 61 00
        E 0 90 3c 60
        E 0 90 48 64
        E 0 90 49 64
        E 0 90 55 64
        E 0 90 56 64
        E 0 90 61 64
        E 0 90 62 64
        E 120 80 32 00
        E 0 80 3c 00
        E 0 80 48 00
        E 0 80 49 00
        E 0 80 55 00
        E 0 80 56 00
        E 0 80 61 00
        E 0 80 62 00
        E 0 90 61 64
        E 0 90 62 64
        E 120 80 61 00
        E 0 80 62 00
        E 0 90 39 64
        E 0 90 57 64
        E 0 90 63 64
        E 120 80 57 00
        E 0 80 63 00
        E 0 90 63 64
        E 120 80 63 00
        E 0 90 3e 60
        E 0 90 4a 64
        E 0 90 4b 64
        E 0 90 57 64
        E 0 90 58 64
        E 0 90 63 64
        E 0 90 64 64
        E 119 80 39 00
        E 1 80 3e 00
        E 0 80 4a 00
        E 0 80 4b 00
        E 0 80 57 00
        E 0 80 58 00
        E 0 80 63 00
        E 0 80 64 00
        E 0 90 63 64
        E 0 90 64 64
        E 119 90 36 64
        E 1 80 63 00
        E 0 80 64 00
        E 0 90 56 64
        E 0 90 62 64
        E 120 80 56 00
        E 0 80 62 00
        E 0 90 62 64
        E 120 80 62 00
        E 0 90 3d 60
        E 0 90 49 64
        E 0 90 4a 64
        E 0 90 56 64
        E 0 90 57 64
        E 0 90 62 64
        E 0 90 63 64
        E 119 80 36 00
        E 1 80 3d 00
        E 0 80 49 00
        E 0 80 4a 00
        E 0 80 56 00
        E 0 80 57 00
        E 0 80 62 00
        E 0 80 63 00
        E 0 90 62 64
        E 0 90 63 64
        E 119 90 32 64
        E 1 80 62 00
        E 0 80 63 00
        E 0 90 55 64
        E 0 90 61 64
        E 120 80 55 00
        E 0 80 61 00
        E 0 90 61 64
        E 120 80 61 00
        E 0 90 3c 60
        E 0 90 48 64
        E 0 90 49 64
        E 0 90 55 64
        E 0 90 56 64
        E 0 90 61 64
        E 0 90 62 64
        E 119 80 32 00
        E 1 80 3c 00
        E 0 80 48 00
        E 0 80 49 00
        E 0 80 55 00
        E 0 80 56 00
        E 0 80 61 00
        E 0 80 62 00
        E 0 90 61 64
        E 0 90 62 64
        E 120 80 61 00
        E 0 80 62 00
        E 0 90 39 64
        E 0 90 57 64
        E 0 90 63 64
        E 120 80 57 00
        E 0 80 63 00
        E 0 90 63 64
        E 120 80 63 00
        E 0 90 3e 60
        E 0 90 4a 64
        E 0 90 4b 64
        E 0 90 57 64
        E 0 90 58 64
        E 0 90 63 64
        E 0 90 64 64
        E 120 80 39 00
        E 0 80 3e 00
        E 0 80 4a 00
        E 0 80 4b 00
        E 0 80 57 00
        E 0 80 58 00
        E 0 80 63 00
        E 0 80 64 00
        E 0 90 63 64
        E 0 90 64 64
        E 120 80 63 00
        E 0 80 64 00
        E 0 90 36 64
        E 0 90 56 64
        E 0 90 62 64
        E 120 80 56 00
        E 0 80 62 00
        E 0 90 62 64
        E 120 80 62 00
        E 0 90 3d 60
        E 0 90 49 64
        E 0 90 4a 64
        E 0 90 56 64
        E 0 90 57 64
        E 0 90 62 64
        E 0 90 63 64
        E 120 80 36 00
        E 0 80 3d 00
        E 0 80 49 00
        E 0 80 4a 00
        E 0 80 56 00
        E 0 80 57 00
        E 0 80 62 00
        E 0 80 63 00
        E 0 90 62 64
        E 0 90 63 64
        E 120 80 62 00
        E 0 80 63 00
        E 0 90 32 64
        E 0 90 55 64
        E 0 90 61 64
        E 120 80 55 00
        E 0 80 61 00
        E 0 90 61 64
        E 120 80 61 00
        E 0 90 3c 60
        E 0 90 48 64
        E 0 90 49 64
        E 0 90 55 64
        E 0 90 56 64
        E 0 90 61 64
        E 0 90 62 64
        E 120 80 32 00
        E 0 80 3c 00
        E 0 80 48 00
        E 0 80 49 00
        E 0 80 55 00
        E 0 80 56 00
        E 0 80 61 00
        E 0 80 62 00
        E 0 90 61 64
        E 0 90 62 64
        E 120 80 61 00
        E 0 80 62 00
        E 0 90 39 64
        E 0 90 57 64
        E 0 90 63 64
        E 120 80 57 00
        E 0 80 63 00
        E 0 90 63 64
        E 120 80 63 00
        E 0 90 3e 60
        E 0 90 4a 64
        E 0 90 4b 64
        E 0 90 57 64
        E 0 90 58 64
        E 0 90 63 64
        E 0 90 64 64
        E 119 80 39 00
        E 1 80 3e 00
        E 0 80 4a 00
        E 0 80 4b 00
        E 0 80 57 00
        E 0 80 58 00
        E 0 80 63 00
        E 0 80 64 00
        E 0 90 63 64
        E 0 90 64 64
        E 119 90 36 64
        E 1 80 63 00
        E 0 80 64 00
        E 0 90 56 64
        E 0 90 62 64
        E 120 80 56 00
        E 0 80 62 00
        E 0 90 62 64
        E 120 80 62 00
        E 0 90 3d 60
        E 0 90 49 64
        E 0 90 4a 64
        E 0 90 56 64
        E 0 90 57 64
        E 0 90 62 64
        E 0 90 63 64
        E 119 80 36 00
        E 1 80 3d 00
        E 0 80 49 00
        E 0 80 4a 00
        E 0 80 56 00
        E 0 80 57 00
        E 0 80 62 00
        E 0 80 63 00
        E 0 90 62 64
        E 0 90 63 64
        E 119 90 32 64
        E 1 80 62 00
        E 0 80 63 00
        E 0 90 55 64
        E 0 90 61 64
        E 120 80 55 00
        E 0 80 61 00
        E 0 90 61 64
        E 120 80 61 00
        E 0 90 3c 60
        E 0 90 48 64
        E 0 90 49 64
        E 0 90 55 64
        E 0 90 56 64
        E 0 90 61 64
        E 0 90 62 64
        E 119 80 32 00
        E 1 80 3c 00
        E 0 80 48 00
        E 0 80 49 00
        E 0 80 55 00
        E 0 80 56 00
        E 0 80 61 00
        E 0 80 62 00
        E 0 90 61 64
        E 0 90 62 64
        E 120 80 61 00
        E 0 80 62 00
        E 0 90 39 64
        E 0 90 57 64
        E 0 90 63 64
        E 120 80 57 00
        E 0 80 63 00
        E 0 90 63 64
        E 120 80 63 00
        E 0 90 3e 60
        E 0 90 4a 64
        E 0 90 4b 64
        E 0 90 57 64
        E 0 90 58 64
        E 0 90 63 64
        E 0 90 64 64
        E 120 80 39 00
        E 0 80 3e 00
        E 0 80 4a 00
        E 0 80 4b 00
        E 0 80 57 00
        E 0 80 58 00
        E 0 80 63 00
        E 0 80 64 00
        E 0 90 63 64
        E 0 90 64 64
        E 120 80 63 00
        E 0 80 64 00
        E 0 90 36 64
        E 0 90 56 64
        E 0 90 62 64
        E 120 80 56 00
        E 0 80 62 00
        E 0 90 62 64
        E 120 80 62 00
        E 0 90 3d 60
        E 0 90 49 64
        E 0 90 4a 64
        E 0 90 56 64
        E 0 90 57 64
        E 0 90 62 64
        E 0 90 63 64
        E 120 80 36 00
        E 0 80 3d 00
        E 0 80 49 00
        E 0 80 4a 00
        E 0 80 56 00
        E 0 80 57 00
        E 0 80 62 00
        E 0 80 63 00
        E 0 90 62 64
        E 0 90 63 64
        E 120 80 62 00
        E 0 80 63 00
        E 0 90 32 64
        E 0 90 55 64
        E 0 90 61 64
        E 120 80 55 00
        E 0 80 61 00
        E 0 90 61 64
        E 120 80 61 00
        E 0 90 3c 60
        E 0 90 48 64
        E 0 90 49 64
        E 0 90 55 64
        E 0 90 56 64
        E 0 90 61 64
        E 0 90 62 64
        E 120 80 32 00
        E 0 80 3c 00
        E 0 80 48 00
        E 0 80 49 00
        E 0 80 55 00
        E 0 80 56 00
        E 0 80 61 00
        E 0 80 62 00
        E 0 90 61 64
        E 0 90 62 64
        E 120 80 61 00
        E 0 80 62 00
        E 0 90 39 64
        E 0 90 57 64
        E 0 90 63 64
        E 120 80 57 00
        E 0 80 63 00
        E 0 90 63 64
        E 120 80 63 00
        E 0 90 3e 60
        E 0 90 4a 64
        E 0 90 4b 64
        E 0 90 57 64
        E 0 90 58 64
        E 0 90 63 64
        E 0 90 64 64
        E 119 80 39 00
        E 1 80 3e 00
        E 0 80 4a 00
        E 0 80 4b 00
        E 0 80 57 00
        E 0 80 58 00
        E 0 80 63 00
        E 0 80 64 00
        E 0 90 63 64
        E 0 90 64 64
        E 119 90 36 64
        E 1 80 63 00
        E 0 80 64 00
        E 0 90 56 64
        E 0 90 62 64
        E 120 80 56 00
        E 0 80 62 00
        E 0 90 62 64
        E 120 80 62 00
        E 0 90 3d 60
        E 0 90 49 64
        E 0 90 4a 64
        E 0 90 56 64
        E 0 90 57 64
        E 0 90 62 64
        E 0 90 63 64
        E 119 80 36 00
        E 1 80 3d 00
        E 0 80 49 00
        E 0 80 4a 00
        E 0 80 56 00
        E 0 80 57 00
        E 0 80 62 00
        E 0 80 63 00
        E 0 90 62 64
        E 0 90 63 64
        E 119 90 32 64
        E 1 80 62 00
        E 0 80 63 00
        E 0 90 55 64
        E 0 90 61 64
        E 120 80 55 00
        E 0 80 61 00
        E 0 90 61 64
        E 120 80 61 00
        E 0 90 3c 60
        E 0 90 48 64
        E 0 90 49 64
        E 0 90 55 64
        E 0 90 56 64
        E 0 90 61 64
        E 0 90 62 64
        E 119 80 32 00
        E 1 80 3c 00
        E 0 80 48 00
        E 0 80 49 00
        E 0 80 55 00
        E 0 80 56 00
        E 0 80 61 00
        E 0 80 62 00
        E 0 90 61 64
        E 0 90 62 64
        E 120 80 61 00
        E 0 80 62 00
        E 0 90 39 64
        E 0 90 57 64
        E 0 90 63 64
        E 120 80 57 00
        E 0 80 63 00
        E 0 90 63 64
        E 120 80 63 00
        E 0 90 3e 60
        E 0 90 4a 64
        E 0 90 4b 64
        E 0 90 57 64
        E 0 90 58 64
        E 0 90 63 64
        E 0 90 64 64
        E 120 80 39 00
        E 0 80 3e 00
        E 0 80 4a 00
        E 0 80 4b 00
        E 0 80 57 00
        E 0 80 58 00
        E 0 80 63 00
        E 0 80 64 00
        E 0 90 63 64
        E 0 90 64 64
        E 120 80 63 00
        E 0 80 64 00
        E 0 90 36 64
        E 0 90 56 64
        E 0 90 62 64
        E 120 80 56 00
        E 0 80 62 00
        E 0 90 62 64
        E 120 80 62 00
        E 0 90 3d 60
        E 0 90 49 64
        E 0 90 4a 64
        E 0 90 56 64
        E 0 90 57 64
        E 0 90 62 64
        E 0 90 63 64
        E 120 80 36 00
        E 0 80 3d 00
        E 0 80 49 00
        E 0 80 4a 00
        E 0 80 56 00
        E 0 80 57 00
        E 0 80 62 00
        E 0 80 63 00
        E 0 90 62 64
        E 0 90 63 64
        E 120 80 62 00
        E 0 80 63 00
        E 0 90 32 64
        E 0 90 55 64
        E 0 90 61 64
        E 120 80 55 00
        E 0 80 61 00
        E 0 90 61 64
        E 120 80 61 00
        E 0 90 3c 60
        E 0 90 48 64
        E 0 90 49 64
        E 0 90 55 64
        E 0 90 56 64
        E 0 90 61 64
        E 0 90 62 64
        E 120 80 32 00
        E 0 80 3c 00
        E 0 80 48 00
        E 0 80 49 00
        E 0 80 55 00
        E 0 80 56 00
        E 0 80 61 00
        E 0 80 62 00
        E 0 90 61 64
        E 0 90 62 64
        E 120 80 61 00
        E 0 80 62 00
        E 0 90 39 64
        E 0 90 57 64
        E 0 90 63 64
        E 120 80 57 00
        E 0 80 63 00
        E 0 90 63 64
        E 120 80 63 00
        E 0 90 3e 60
        E 0 90 4a 64
        E 0 90 4b 64
        E 0 90 57 64
        E 0 90 58 64
        E 0 90 63 64
        E 0 90 64 64
        E 119 80 39 00
        E 1 80 3e 00
        E 0 80 4a 00
        E 0 80 4b 00
        E 0 80 57 00
        E 0 80 58 00
        E 0 80 63 00
        E 0 80 64 00
        E 0 90 63 64
        E 0 90 64 64
        E 119 90 36 64
        E 1 80 63 00
        E 0 80 64 00
        E 0 90 56 64
        E 0 90 62 64
        E 120 80 56 00
        E 0 80 62 00
        E 0 90 62 64
        E 120 80 62 00
        E 0 90 3d 60
        E 0 90 49 64
        E 0 90 4a 64
        E 0 90 56 64
        E 0 90 57 64
        E 0 90 62 64
        E 0 90 63 64
        E 119 80 36 00
        E 1 80 3d 00
        E 0 80 49 00
        E 0 80 4a 00
        E 0 80 56 00
        E 0 80 57 00
        E 0 80 62 00
        E 0 80 63 00
        E 0 90 62 64
        E 0 90 63 64
        E 119 90 32 64
        E 1 80 62 00
        E 0 80 63 00
        E 0 90 55 64
        E 0 90 61 64
        E 120 80 55 00
        E 0 80 61 00
        E 0 90 61 64
        E 120 80 61 00
        E 0 90 3c 60
        E 0 90 48 64
        E 0 90 49 64
        E 0 90 55 64
        E 0 90 56 64
        E 0 90 61 64
        E 0 90 62 64
        E 119 80 32 00
        E 1 80 3c 00
        E 0 80 48 00
        E 0 80 49 00
        E 0 80 55 00
        E 0 80 56 00
        E 0 80 61 00
        E 0 80 62 00
        E 0 90 61 64
        E 0 90 62 64
        E 120 80 61 00
        E 0 80 62 00
        E 0 90 39 64
        E 0 90 57 64
        E 0 90 63 64
        E 120 80 57 00
        E 0 80 63 00
        E 0 90 63 64
        E 120 80 63 00
        E 0 90 3e 60
        E 0 90 4a 64
        E 0 90 4b 64
        E 0 90 57 64
        E 0 90 58 64
        E 0 90 63 64
        E 0 90 64 64
        E 120 80 39 00
        E 0 80 3e 00
        E 0 80 4a 00
        E 0 80 4b 00
        E 0 80 57 00
        E 0 80 58 00
        E 0 80 63 00
        E 0 80 64 00
        E 0 90 63 64
        E 0 90 64 64
        E 120 80 63 00
        E 0 80 64 00
        E 0 90 36 64
        E 0 90 56 64
        E 0 90 62 64
        E 120 80 56 00
        E 0 80 62 00
        E 0 90 62 64
        E 120 80 62 00
        E 0 90 3d 60
        E 0 90 49 64
        E 0 90 4a 64
        E 0 90 56 64
        E 0 90 57 64
        E 0 90 62 64
        E 0 90 63 64
        E 120 80 36 00
        E 0 80 3d 00
        E 0 80 49 00
        E 0 80 4a 00
        E 0 80 56 00
        E 0 80 57 00
        E 0 80 62 00
        E 0 80 63 00
        E 0 90 62 64
        E 0 90 63 64
        E 120 80 62 00
        E 0 80 63 00
        E 0 90 32 64
        E 0 90 55 64
        E 0 90 61 64
        E 120 80 55 00
        E 0 80 61 00
        E 0 90 61 64
        E 120 80 61 00
        E 0 90 3c 60
        E 0 90 48 64
        E 0 90 49 64
        E 0 90 55 64
        E 0 90 56 64
        E 0 90 61 64
        E 0 90 62 64
        E 120 80 32 00
        E 0 80 3c 00
        E 0 80 48 00
        E 0 80 49 00
        E 0 80 55 00
        E 0 80 56 00
        E 0 80 61 00
        E 0 80 62 00
        E 0 90 61 64
        E 0 90 62 64
        E 120 80 61 00
        E 0 80 62 00
        E 0 90 39 64
        E 0 90 57 64
        E 0 90 63 64
        E 120 80 57 00
        E 0 80 63 00
        E 0 90 63 64
        E 120 80 63 00
        E 0 90 3e 60
        E 0 90 4a 64
        E 0 90 4b 64
        E 0 90 57 64
        E 0 90 58 64
        E 0 90 63 64
        E 0 90 64 64
        E 119 80 39 00
        E 1 80 3e 00
        E 0 80 4a 00
        E 0 80 4b 00
        E 0 80 57 00
        E 0 80 58 00
        E 0 80 63 00
        E 0 80 64 00
        E 0 90 63 64
        E 0 90 64 64
        E 119 90 36 64
        E 1 80 63 00
        E 0 80 64 00
        E 0 90 56 64
        E 0 90 62 64
        E 120 80 56 00
        E 0 80 62 00
        E 0 90 62 64
        E 120 80 62 00
        E 0 90 3d 60
        E 0 90 49 64
        E 0 90 4a 64
        E 0 90 56 64
        E 0 90 57 64
        E 0 90 62 64
        E 0 90 63 64
        E 119 80 36 00
        E 1 80 3d 00
        E 0 80 49 00
        E 0 80 4a 00
        E 0 80 56 00
        E 0 80 57 00
        E 0 80 62 00
        E 0 80 63 00
        E 0 90 62 64
        E 0 90 63 64
        E 119 90 32 64
        E 1 80 62 00
        E 0 80 63 00
        E 0 90 55 64
        E 0 90 61 64
        E 120 80 55 00
        E 0 80 61 00
        E 0 90 61 64
        E 120 80 61 00
        E 0 90 3c 60
        E 0 90 48 64
        E 0 90 49 64
        E 0 90 55 64
        E 0 90 56 64
        E 0 90 61 64
        E 0 90 62 64
        E 119 80 32 00
        E 1 80 3c 00
        E 0 80 48 00
        E 0 80 49 00
        E 0 80 55 00
        E 0 80 56 00
        E 0 80 61 00
        E 0 80 62 00
        E 0 90 61 64
        E 0 90 62 64
        E 120 80 61 00
        E 0 80 62 00
        <X 120 0
          /wFbaWRsZV9yZWFsdGltZV0=
        >
        E 2760 b0 7b 00
        GUID {8A168C8B-8FF6-41F6-9C1B-4A23F1FC4AF6}
        IGNTEMPO 0 120.00000000 4 4
        SRCCOLOR 0
        VELLANE 132 128 60
        COLORMAP "C:\Users\Ruggery\AppData\Roaming\Reaper\Data\color_maps\rockband_guitarbass.png"
        CFGEDITVIEW -10552.365922 7.432490 20 12 0 0 0
        CFGEDIT 1 1 0 1 1 1 1 1 1 1 1 0.25000000 -8 -8 1370 736 0 2 1 2 0.00000000 0 1 0 0 0.500000 0 0 1.000000 64
        KEYSNAP 0 0 "102034050607" 0 "Major"
        EVTFILTER 0 -1 -1 -1 -1 0 1 0 0 -1.00000000 -1.00000000
      >
    >
  >
  <TRACK '{EB891220-F1E8-4223-A1ED-F901FBAAD54A}'
    NAME "PART VOCALS"
    PEAKCOL 16576
    BEAT -1
    AUTOMODE 0
    VOLPAN 1.00000000000000 0.00000000000000 -1.00000000000000 -1.00000000000000 1.00000000000000
    MUTESOLO 0 0 0
    IPHASE 0
    ISBUS 0 0
    BUSCOMP 0 0
    SHOWINMIX 1 0.666700 0.500000 1 0.500000 -1 -1 -1
    FREEMODE 0
    SEL 0
    REC 0 0 0 0 0 0 0
    VU 2
    TRACKHEIGHT 0 0
    INQ 0 0 0 0.5000000000 100 0 0 100
    NCHAN 2
    FX 0
    TRACKID {EB891220-F1E8-4223-A1ED-F901FBAAD54A}
    PERF 0
    MIDIOUT -1
    <MIDINOTENAMES
      0 116 "OVERDRIVE"
      0 115 "----"
      0 105 "Phrase Marker"
      0 104 "----"
      0 97 "Non-Displayed Percussion"
      0 96 "Displayed Percussion"
      0 95 "----"
      0 83 "Highest Note B5"
      0 82 "A#4"
      0 81 "A4"
      0 80 "G#4"
      0 79 "G4"
      0 78 "F#4"
      0 77 "F4"
      0 76 "E4"
      0 75 "D#4"
      0 74 "D4"
      0 73 "C#4"
      0 72 "C4"
      0 71 "B3"
      0 70 "A#3"
      0 69 "A3"
      0 68 "G#3"
      0 67 "G3"
      0 66 "F#3"
      0 65 "F3"
      0 64 "E3"
      0 63 "D#3"
      0 62 "D3"
      0 61 "C#3"
      0 60 "C3"
      0 59 "B2"
      0 58 "A#2"
      0 57 "A2"
      0 56 "G#2"
      0 55 "G2"
      0 54 "F#2"
      0 53 "F2"
      0 52 "E2"
      0 51 "D#2"
      0 50 "D2"
      0 49 "C#2"
      0 48 "C2"
      0 47 "B1"
      0 46 "A#1"
      0 45 "A1"
      0 44 "G#1"
      0 43 "G1"
      0 42 "F#1"
      0 41 "F1"
      0 40 "E1"
      0 39 "D#1"
      0 38 "D!"
      0 37 "C#1"
      0 36 "Lowest Note C1"
      0 2 "---"
      0 1 "Lyric Shift"
      0 0 "Range Shift"
    >
    MAINSEND 1 0
    <FXCHAIN
      WNDRECT 0 42 716 462
      SHOW 0
      LASTSEL 1
      DOCKED 0
      BYPASS 0 0
      <JS "MIDI/midi_note_filter" ""
        36.000000 83.000000 - - - - - - - - - - - - - - - - - - - - - - - - - - - - - - - - - - - - - - - - - - - - - - - - - - - - - - - - - - - - - - 
      >
      FLOATPOS 0 0 0 0
      FXID {FA823465-5CDA-419F-BDB5-76CC1BBD76EF}
      WAK 0
      BYPASS 0 0
      <VST "VSTi: ReaSynth (Cockos)" "reasynth.dll" 0 ""
        eXNlcu9e7f4AAAAAAgAAAAEAAAAAAAAAAgAAAAAAAAA4AAAAAAAAAA==
        AAAQAO++rd4N8K3eppvEOxe30ToAAAAAAAAAAAAAAADOTQA/AAAAAA==
        AACAPwAAAD8AAIA/AAAAAAAAAD8AABAAAAA=
      >
      FLOATPOS 0 0 0 0
      FXID {6108AD24-840D-472B-A3ED-C14C7E86F5D9}
      WAK 0
    >
    <ITEM
      POSITION 0.00000000000000
      SNAPOFFS 0.00000000025906
      LENGTH 145.04278159266019
      LOOP 0
      ALLTAKES 0
      SEL 0
      FADEIN 1 0.000000 0.000000 1 0
      FADEOUT 1 0.000000 0.000000 1 0
      MUTE 0
      IGUID {4C37B0C0-E4AB-4E5E-B866-19096CD6BE7A}
      IID 7
      NAME "PART VOCALS"
      VOLPAN 1.000000 0.000000 1.000000 -1.000000
      SOFFS -0.00000000025906 -0.00000000050999
      PLAYRATE 1.00000000000000 1 0.00000000000000 -1
      CHANMODE 0
      GUID {F1CBB5CA-720A-470A-9F79-C836C956CE29}
      <SOURCE MIDI
        HASDATA 1 480 QN
        POOLEDEVTS {330C18D1-0B64-4297-B264-1575CEC5261F}
        <X 0 0
          /wNQQVJUIFZPQ0FMUw==
        >
        <X 2880 0
          /wFbaWRsZV0=
        >
        <X 28320 0
          /wFbcGxheV0=
        >
        <X 0 0
          /wFbaW50ZW5zZV0=
        >
        E 0 90 69 64
        E 0 90 74 64
        <X 480 0
          /wXK
        >
        E 0 90 39 64
        E 270 80 39 00
        <X 90 0
          /wVtby0=
        >
        E 0 90 37 64
        E 90 80 37 00
        <X 30 0
          /wVyZS0=
        >
        E 0 90 37 64
        E 90 80 37 00
        <X 30 0
          /wVuYQ==
        >
        E 0 90 37 64
        E 150 80 37 00
        <X 90 0
          /wVxdWVt
        >
        E 0 90 37 64
        E 90 80 37 00
        <X 30 0
          /wV0ZW0t
        >
        E 0 90 40 64
        E 180 80 40 00
        <X 30 0
          /wVwZS0=
        >
        E 0 90 40 64
        E 180 80 40 00
        <X 60 0
          /wVyb3U=
        >
        E 0 90 3e 64
        E 270 80 3e 00
        E 60 90 01 64
        E 30 80 01 00
        <X 30 0
          /wVjaS0=
        >
        E 0 90 3c 64
        E 90 80 3c 00
        <X 30 0
          /wVnYS0=
        >
        E 0 90 40 64
        E 90 80 40 00
        <X 30 0
          /wVuYQ==
        >
        E 0 90 40 64
        E 120 80 40 00
        <X 120 0
          /wVxdWVt
        >
        E 0 90 3e 64
        E 180 80 3e 00
        <X 60 0
          /wV0ZW0t
        >
        E 0 90 3e 64
        E 150 80 3e 00
        <X 60 0
          /wVwZS0=
        >
        E 0 90 3c 64
        E 90 80 3c 00
        <X 60 0
          /wVyb3U=
        >
        E 0 90 3c 64
        E 300 80 69 00
        E 0 80 74 00
        E 0 80 3c 00
        E 0 90 69 64
        <X 65 0
          /wVP
        >
        E 0 90 37 64
        E 90 80 37 00
        <X 25 0
          /wVjaGVpLQ==
        >
        E 0 90 3c 64
        E 90 80 3c 00
        <X 30 0
          /wVybw==
        >
        E 0 90 3c 64
        E 210 80 3c 00
        <X 30 0
          /wVkbw==
        >
        E 0 90 3b 64
        E 90 80 3b 00
        <X 30 0
          /wVjcmEt
        >
        E 0 90 3b 64
        E 150 80 3b 00
        <X 90 0
          /wV2bw==
        >
        E 0 90 39 64
        E 960 80 39 00
        E 240 80 69 00
        E 480 90 69 64
        <X 360 0
          /wVDaS0=
        >
        E 0 90 37 64
        E 90 80 37 00
        <X 30 0
          /wVnYS0=
        >
        E 0 90 37 64
        E 89 80 37 00
        <X 30 0
          /wVuYQ==
        >
        E 0 90 37 64
        E 150 80 37 00
        <X 90 0
          /wVxdWVt
        >
        E 0 90 37 64
        E 90 80 37 00
        <X 30 0
          /wV0ZW0t
        >
        E 0 90 40 64
        E 150 80 40 00
        <X 60 0
          /wVwZS0=
        >
        E 0 90 40 64
        E 151 80 40 00
        <X 119 0
          /wVyb3U=
        >
        E 0 90 3e 64
        E 270 80 3e 00
        E 31 90 01 64
        E 30 80 01 00
        <X 29 0
          /wVtby0=
        >
        E 0 90 3c 64
        E 90 80 3c 00
        <X 30 0
          /wVyZS0=
        >
        E 0 90 40 64
        E 90 80 40 00
        <X 30 0
          /wVuYQ==
        >
        E 0 90 40 64
        E 120 80 40 00
        <X 120 0
          /wVxdWVt
        >
        E 0 90 3e 64
        E 180 80 3e 00
        <X 60 0
          /wV0ZW0t
        >
        E 0 90 3e 64
        E 150 80 3e 00
        <X 60 0
          /wVwZS0=
        >
        E 0 90 3c 64
        E 90 80 3c 00
        <X 61 0
          /wVyb3U=
        >
        E 0 90 3c 64
        E 300 80 3c 00
        E 60 80 69 00
        E 0 90 69 64
        <X 34 0
          /wVB
        >
        E 0 90 37 64
        E 90 80 37 00
        <X 25 0
          /wVjb3I=
        >
        E 0 90 3c 64
        E 90 80 3c 00
        <X 31 0
          /wVkZQ==
        >
        E 0 90 3c 64
        E 209 80 3c 00
        <X 30 0
          /wVjYS0=
        >
        E 0 90 3b 64
        E 90 80 3b 00
        <X 30 0
          /wVuZS0=
        >
        E 0 90 3b 64
        E 151 80 3b 00
        <X 89 0
          /wVsYQ==
        >
        E 0 90 39 64
        E 691 80 39 00
        E 480 80 69 00
        <X 480 0
          /wFbcGxheV0=
        >
        E 0 90 69 64
        <X 360 0
          /wVB
        >
        E 0 90 39 64
        E 90 80 39 00
        <X 30 0
          /wVsdS0=
        >
        E 0 90 39 64
        E 90 80 39 00
        <X 30 0
          /wVh
        >
        E 0 90 39 64
        E 150 80 39 00
        <X 90 0
          /wVtby0=
        >
        E 0 90 37 64
        E 90 80 37 00
        <X 30 0
          /wVyZS0=
        >
        E 0 90 39 64
        E 90 80 39 00
        <X 30 0
          /wVuYQ==
        >
        E 0 90 39 64
        E 180 80 39 00
        E 0 90 01 64
        E 30 80 01 00
        <X 30 0
          /wVh
        >
        E 0 90 37 64
        E 90 80 37 00
        <X 30 0
          /wVkYW4t
        >
        E 0 90 3c 64
        E 90 80 3c 00
        <X 30 0
          /wXnYQ==
        >
        E 0 90 3c 64
        E 210 80 3c 00
        <X 30 0
          /wVkbw==
        >
        E 0 90 3b 64
        E 90 80 3b 00
        <X 30 0
          /wV2ZW4t
        >
        E 0 90 39 64
        E 210 80 39 00
        <X 30 0
          /wV0bw==
        >
        E 0 90 39 64
        E 144 80 39 00
        E 6 80 69 00
        E 0 90 69 64
        E 0 90 74 64
        <X 32 0
          /wVP
        >
        E 0 90 37 64
        E 30 80 37 00
        <X 28 0
          /wV2ZW4t
        >
        E 0 90 3c 64
        E 90 80 3c 00
        <X 30 0
          /wV0cmU=
        >
        E 0 90 3c 64
        E 210 80 3c 00
        <X 30 0
          /wVkYQ==
        >
        E 0 90 3b 64
        E 90 80 3b 00
        <X 30 0
          /wVub2kt
        >
        E 0 90 39 64
        E 210 80 39 00
        <X 30 0
          /wV0ZcKnZQ==
        >
        E 0 90 39 64
        E 120 80 39 00
        E 0 90 01 64
        <X 30 0
          /wVv
        >
        E 0 80 01 00
        E 0 90 39 64
        E 30 80 39 00
        <X 60 0
          /wVzb2w=
        >
        E 0 90 37 64
        E 150 80 37 00
        <X 90 0
          /wVkYQ==
        >
        E 0 90 39 64
        E 150 80 39 00
        <X 60 0
          /wVtYS0=
        >
        E 0 90 39 64
        E 180 80 39 00
        <X 60 0
          /wVuaOM=
        >
        E 0 90 39 64
        E 360 80 39 00
        <X 60 0
          /wUr
        >
        E 0 90 37 64
        E 60 80 37 00
        <X 30 0
          /wUr
        >
        E 0 90 34 64
        E 60 80 34 00
        E 180 80 69 00
        E 0 80 74 00
        E 960 90 69 64
        <X 360 0
          /wVB
        >
        E 0 90 39 64
        E 89 80 39 00
        <X 30 0
          /wVjaHUt
        >
        E 0 90 39 64
        E 90 80 39 00
        <X 30 0
          /wV2YQ==
        >
        E 0 90 39 64
        E 150 80 39 00
        <X 90 0
          /wVjaS0=
        >
        E 0 90 37 64
        E 90 80 37 00
        <X 30 0
          /wVnYS0=
        >
        E 0 90 39 64
        E 90 80 39 00
        <X 30 0
          /wVuYQ==
        >
        E 0 90 39 64
        E 180 80 39 00
        E 1 90 01 64
        E 30 80 01 00
        <X 29 0
          /wVh
        >
        E 0 90 37 64
        E 90 80 37 00
        <X 30 0
          /wVkYW4t
        >
        E 0 90 3c 64
        E 90 80 3c 00
        <X 30 0
          /wXnYQ==
        >
        E 0 90 3c 64
        E 210 80 3c 00
        <X 30 0
          /wVkb3M=
        >
        E 0 90 3b 64
        E 90 80 3b 00
        <X 30 0
          /wVyaS0=
        >
        E 0 90 39 64
        E 210 80 39 00
        <X 30 0
          /wVvcw==
        >
        E 0 90 39 64
        E 61 80 39 00
        E 60 80 69 00
        E 0 90 69 64
        <X 29 0
          /wVP
        >
        E 0 90 37 64
        E 30 80 37 00
        <X 60 0
          /wVtZWw=
        >
        E 0 90 3c 64
        E 90 80 3c 00
        <X 30 0
          /wVkZQ==
        >
        E 0 90 3c 64
        E 210 80 3c 00
        <X 30 0
          /wVjYS0=
        >
        E 0 90 3b 64
        E 90 80 3b 00
        <X 30 0
          /wVjYXU=
        >
        E 0 90 39 64
        E 241 80 39 00
        E 60 90 01 64
        E 30 80 01 00
        <X 30 0
          /wVlp28=
        >
        E 0 90 39 64
        E 60 80 39 00
        <X 59 0
          /wVzb2w=
        >
        E 0 90 37 64
        E 150 80 37 00
        <X 90 0
          /wVkYQ==
        >
        E 0 90 39 64
        E 150 80 39 00
        <X 60 0
          /wVtYS0=
        >
        E 0 90 39 64
        E 180 80 39 00
        <X 60 0
          /wVuaOM=
        >
        E 0 90 39 64
        E 601 80 39 00
        E 150 80 69 00
        <X 480 0
          /wFbaW50ZW5zZV0=
        >
        E 0 90 69 64
        <X 480 0
          /wXK
        >
        E 0 90 39 64
        E 270 80 39 00
        <X 90 0
          /wVtby0=
        >
        E 0 90 37 64
        E 90 80 37 00
        <X 30 0
          /wVyZS0=
        >
        E 0 90 37 64
        E 90 80 37 00
        <X 30 0
          /wVuYQ==
        >
        E 0 90 37 64
        E 150 80 37 00
        <X 90 0
          /wVxdWVt
        >
        E 0 90 37 64
        E 90 80 37 00
        <X 30 0
          /wV0ZW0t
        >
        E 0 90 40 64
        E 150 80 40 00
        <X 90 0
          /wVwZS0=
        >
        E 0 90 40 64
        E 120 80 40 00
        <X 90 0
          /wVyb3U=
        >
        E 0 90 3e 64
        E 240 80 3e 00
        E 60 90 01 64
        E 30 80 01 00
        <X 60 0
          /wVjaS0=
        >
        E 0 90 3c 64
        E 90 80 3c 00
        <X 30 0
          /wVnYS0=
        >
        E 0 90 40 64
        E 90 80 40 00
        <X 30 0
          /wVuYQ==
        >
        E 0 90 40 64
        E 120 80 40 00
        <X 120 0
          /wVxdWVt
        >
        E 0 90 3e 64
        E 180 80 3e 00
        <X 60 0
          /wV0ZW0t
        >
        E 0 90 3e 64
        E 150 80 3e 00
        <X 60 0
          /wVwZS0=
        >
        E 0 90 3c 64
        E 90 80 3c 00
        <X 60 0
          /wVyb3U=
        >
        E 0 90 3c 64
        E 300 80 3c 00
        E 30 80 69 00
        E 0 90 69 64
        <X 35 0
          /wVP
        >
        E 0 90 37 64
        E 90 80 37 00
        <X 25 0
          /wVjaGVpLQ==
        >
        E 0 90 3c 64
        E 90 80 3c 00
        <X 30 0
          /wVybw==
        >
        E 0 90 3c 64
        E 210 80 3c 00
        <X 30 0
          /wVkbw==
        >
        E 0 90 3b 64
        E 90 80 3b 00
        <X 30 0
          /wVjcmEt
        >
        E 0 90 3b 64
        E 150 80 3b 00
        <X 90 0
          /wV2bw==
        >
        E 0 90 39 64
        E 960 80 39 00
        E 240 80 69 00
        E 480 90 69 64
        E 0 90 74 64
        <X 360 0
          /wVDaS0=
        >
        E 0 90 37 64
        E 90 80 37 00
        <X 30 0
          /wVnYS0=
        >
        E 0 90 37 64
        E 89 80 37 00
        <X 30 0
          /wVuYQ==
        >
        E 0 90 37 64
        E 150 80 37 00
        <X 90 0
          /wVxdWVt
        >
        E 0 90 37 64
        E 90 80 37 00
        <X 30 0
          /wV0ZW0t
        >
        E 0 90 40 64
        E 181 80 40 00
        <X 59 0
          /wVwZS0=
        >
        E 0 90 40 64
        E 181 80 40 00
        <X 59 0
          /wVyb3U=
        >
        E 0 90 3e 64
        E 270 80 3e 00
        E 31 90 01 64
        E 30 80 01 00
        <X 29 0
          /wVtby0=
        >
        E 0 90 3c 64
        E 90 80 3c 00
        <X 30 0
          /wVyZS0=
        >
        E 0 90 40 64
        E 90 80 40 00
        <X 30 0
          /wVuYQ==
        >
        E 0 90 40 64
        E 120 80 40 00
        <X 120 0
          /wVxdWVt
        >
        E 0 90 3e 64
        E 180 80 3e 00
        <X 60 0
          /wV0ZW0t
        >
        E 0 90 3e 64
        E 150 80 3e 00
        <X 90 0
          /wVwZS0=
        >
        E 0 90 3c 64
        E 90 80 3c 00
        <X 31 0
          /wVyb3U=
        >
        E 0 90 3c 64
        E 300 80 3c 00
        E 30 80 69 00
        E 0 80 74 00
        E 0 90 69 64
        <X 64 0
          /wVB
        >
        E 0 90 37 64
        E 90 80 37 00
        <X 25 0
          /wVjb3I=
        >
        E 0 90 3c 64
        E 90 80 3c 00
        <X 31 0
          /wVkZQ==
        >
        E 0 90 3c 64
        E 209 80 3c 00
        <X 30 0
          /wVjYS0=
        >
        E 0 90 3b 64
        E 90 80 3b 00
        <X 30 0
          /wVuZS0=
        >
        E 0 90 3b 64
        E 151 80 3b 00
        <X 89 0
          /wVsYQ==
        >
        E 0 90 39 64
        E 691 80 39 00
        <X 480 0
          /wFbaWRsZV0=
        >
        E 480 80 69 00
        E 5280 90 69 64
        <X 240 0
          /wFbbWVsbG93XQ==
        >
        <X 240 0
          /wXKPQ==
        >
        E 0 90 40 64
        E 150 80 40 00
        <X 90 0
          /wUr
        >
        E 0 90 3e 64
        E 30 80 3e 00
        <X 90 0
          /wVyYT0=
        >
        E 0 90 3e 64
        E 180 80 3e 00
        <X 60 0
          /wVy6j0=
        >
        E 0 90 3e 64
        E 330 80 3e 00
        <X 30 0
          /wVy6j0=
        >
        E 0 90 3e 64
        E 180 80 3e 00
        <X 60 0
          /wVyYQ==
        >
        E 0 90 3e 64
        E 180 80 3e 00
        E 0 90 01 64
        E 30 80 01 00
        <X 30 0
          /wVBPQ==
        >
        E 0 90 3e 64
        E 30 80 3e 00
        <X 30 0
          /wUr
        >
        E 0 90 40 64
        E 120 80 40 00
        <X 60 0
          /wUr
        >
        E 0 90 3e 64
        E 30 80 3e 00
        <X 90 0
          /wVyYT0=
        >
        E 0 90 3e 64
        E 150 80 3e 00
        <X 90 0
          /wVy6j0=
        >
        E 0 90 3e 64
        E 180 80 3e 00
        <X 60 0
          /wVobW09
        >
        E 0 90 3e 64
        E 60 80 3e 00
        <X 60 0
          /wVyYQ==
        >
        E 0 90 3e 64
        E 150 80 3e 00
        E 90 80 69 00
        E 0 90 69 64
        <X 240 0
          /wXKPQ==
        >
        E 0 90 40 64
        E 150 80 40 00
        <X 90 0
          /wUr
        >
        E 0 90 3e 64
        E 30 80 3e 00
        <X 90 0
          /wVyYT0=
        >
        E 0 90 3e 64
        E 180 80 3e 00
        <X 60 0
          /wVy6j0=
        >
        E 0 90 3e 64
        E 330 80 3e 00
        <X 30 0
          /wVy6j0=
        >
        E 0 90 3e 64
        E 180 80 3e 00
        <X 60 0
          /wVyYQ==
        >
        E 0 90 3e 64
        E 180 80 3e 00
        E 0 90 01 64
        E 30 80 01 00
        <X 30 0
          /wVBPQ==
        >
        E 0 90 3e 64
        E 30 80 3e 00
        <X 30 0
          /wUr
        >
        E 0 90 40 64
        E 120 80 40 00
        <X 60 0
          /wUr
        >
        E 0 90 3e 64
        E 30 80 3e 00
        <X 90 0
          /wVhaD0=
        >
        E 0 90 3e 64
        E 150 80 3e 00
        <X 90 0
          /wVy6j0=
        >
        E 0 90 3e 64
        E 180 80 3e 00
        <X 60 0
          /wVobW09
        >
        E 0 90 3e 64
        E 60 80 3e 00
        <X 60 0
          /wVyYQ==
        >
        E 0 90 3e 64
        E 150 80 3e 00
        E 90 80 69 00
        E 0 90 69 64
        E 0 90 74 64
        <X 270 0
          /wVBaD0=
        >
        E 0 90 40 64
        E 150 80 40 00
        <X 90 0
          /wUr
        >
        E 0 90 3e 64
        E 30 80 3e 00
        <X 90 0
          /wVyYT0=
        >
        E 0 90 3e 64
        E 180 80 3e 00
        <X 60 0
          /wVyYT0=
        >
        E 0 90 3e 64
        E 180 80 3e 00
        <X 60 0
          /wVyYT0=
        >
        E 0 90 3e 64
        E 90 80 3e 00
        <X 30 0
          /wVyYT0=
        >
        E 0 90 3e 64
        E 180 80 3e 00
        <X 60 0
          /wVyYQ==
        >
        E 0 90 3e 64
        E 180 80 3e 00
        E 0 90 01 64
        E 30 80 01 00
        <X 30 0
          /wVBPQ==
        >
        E 0 90 3e 64
        E 30 80 3e 00
        <X 30 0
          /wUr
        >
        E 0 90 40 64
        E 120 80 40 00
        <X 60 0
          /wUr
        >
        E 0 90 3e 64
        E 30 80 3e 00
        <X 90 0
          /wVyYT0=
        >
        E 0 90 3e 64
        E 150 80 3e 00
        <X 90 0
          /wVyYT0=
        >
        E 0 90 3e 64
        E 180 80 3e 00
        <X 60 0
          /wVyYT0=
        >
        E 0 90 3e 64
        E 60 80 3e 00
        <X 60 0
          /wVyYQ==
        >
        E 0 90 3e 64
        E 150 80 3e 00
        E 90 80 69 00
        E 0 80 74 00
        E 0 90 69 64
        <X 210 0
          /wVBaD0=
        >
        E 0 90 40 64
        E 150 80 40 00
        <X 90 0
          /wUr
        >
        E 0 90 3e 64
        E 30 80 3e 00
        <X 90 0
          /wVyYT0=
        >
        E 0 90 3e 64
        E 180 80 3e 00
        <X 60 0
          /wVyYT0=
        >
        E 0 90 3e 64
        E 180 80 3e 00
        <X 60 0
          /wVyYT0=
        >
        E 0 90 3e 64
        E 90 80 3e 00
        <X 30 0
          /wVyYT0=
        >
        E 0 90 3e 64
        E 180 80 3e 00
        <X 60 0
          /wVyYQ==
        >
        E 0 90 3e 64
        E 180 80 3e 00
        E 0 90 01 64
        E 30 80 01 00
        <X 30 0
          /wVBPQ==
        >
        E 0 90 3e 64
        E 30 80 3e 00
        <X 30 0
          /wUr
        >
        E 0 90 40 64
        E 120 80 40 00
        <X 60 0
          /wUr
        >
        E 0 90 3e 64
        E 30 80 3e 00
        <X 90 0
          /wVyYT0=
        >
        E 0 90 3e 64
        E 150 80 3e 00
        <X 90 0
          /wVyYT0=
        >
        E 0 90 3e 64
        E 180 80 3e 00
        <X 60 0
          /wVyYT0=
        >
        E 0 90 3e 64
        E 60 80 3e 00
        <X 60 0
          /wVyYQ==
        >
        E 0 90 3e 64
        E 150 80 3e 00
        E 330 80 69 00
        <X 240 0
          /wFbcGxheV0=
        >
        E 0 90 69 64
        <X 120 0
          /wVB
        >
        E 0 90 39 64
        E 90 80 39 00
        <X 30 0
          /wVsdS0=
        >
        E 0 90 39 64
        E 90 80 39 00
        <X 30 0
          /wVh
        >
        E 0 90 39 64
        E 150 80 39 00
        <X 90 0
          /wVtby0=
        >
        E 0 90 37 64
        E 90 80 37 00
        <X 30 0
          /wVyZS0=
        >
        E 0 90 39 64
        E 90 80 39 00
        <X 30 0
          /wVuYQ==
        >
        E 0 90 39 64
        E 180 80 39 00
        E 0 90 01 64
        E 30 80 01 00
        <X 30 0
          /wVh
        >
        E 0 90 37 64
        E 90 80 37 00
        <X 30 0
          /wVkYW4t
        >
        E 0 90 3c 64
        E 90 80 3c 00
        <X 30 0
          /wXnYQ==
        >
        E 0 90 3c 64
        E 210 80 3c 00
        <X 30 0
          /wVkbw==
        >
        E 0 90 3b 64
        E 90 80 3b 00
        <X 30 0
          /wV2ZW4t
        >
        E 0 90 39 64
        E 210 80 39 00
        <X 30 0
          /wV0bw==
        >
        E 0 90 39 64
        E 150 80 69 00
        E 0 80 39 00
        E 0 90 69 64
        <X 30 0
          /wVP
        >
        E 0 90 37 64
        E 30 80 37 00
        <X 30 0
          /wV2ZW4t
        >
        E 0 90 3c 64
        E 90 80 3c 00
        <X 30 0
          /wV0cmU=
        >
        E 0 90 3c 64
        E 210 80 3c 00
        <X 30 0
          /wVkYQ==
        >
        E 0 90 3b 64
        E 90 80 3b 00
        <X 30 0
          /wVub2kt
        >
        E 0 90 39 64
        E 210 80 39 00
        <X 30 0
          /wV0Zadl
        >
        E 0 90 39 64
        E 120 80 39 00
        E 0 90 01 64
        <X 30 0
          /wVv
        >
        E 0 80 01 00
        E 0 90 39 64
        E 30 80 39 00
        <X 60 0
          /wVzb2w=
        >
        E 0 90 37 64
        E 150 80 37 00
        <X 90 0
          /wVkYQ==
        >
        E 0 90 39 64
        E 150 80 39 00
        <X 60 0
          /wVtYS0=
        >
        E 0 90 39 64
        E 180 80 39 00
        <X 60 0
          /wVuaOM=
        >
        E 0 90 39 64
        E 330 80 39 00
        <X 90 0
          /wUr
        >
        E 0 90 37 64
        E 30 80 37 00
        <X 60 0
          /wUr
        >
        E 0 90 34 64
        E 30 80 34 00
        E 210 80 69 00
        E 960 90 69 64
        <X 360 0
          /wVB
        >
        E 0 90 39 64
        E 89 80 39 00
        <X 30 0
          /wVjaHUt
        >
        E 0 90 39 64
        E 90 80 39 00
        <X 30 0
          /wV2YQ==
        >
        E 0 90 39 64
        E 150 80 39 00
        <X 90 0
          /wVjaS0=
        >
        E 0 90 37 64
        E 90 80 37 00
        <X 30 0
          /wVnYS0=
        >
        E 0 90 39 64
        E 90 80 39 00
        <X 30 0
          /wVuYQ==
        >
        E 0 90 39 64
        E 180 80 39 00
        E 1 90 01 64
        E 30 80 01 00
        <X 29 0
          /wVh
        >
        E 0 90 37 64
        E 90 80 37 00
        <X 30 0
          /wVkYW4t
        >
        E 0 90 3c 64
        E 90 80 3c 00
        <X 30 0
          /wXnYQ==
        >
        E 0 90 3c 64
        E 210 80 3c 00
        <X 30 0
          /wVkb3M=
        >
        E 0 90 3b 64
        E 90 80 3b 00
        <X 30 0
          /wVyaS0=
        >
        E 0 90 39 64
        E 210 80 39 00
        <X 30 0
          /wVvcw==
        >
        E 0 90 39 64
        E 61 80 39 00
        E 30 80 69 00
        E 0 90 69 64
        E 0 90 74 64
        <X 59 0
          /wVP
        >
        E 0 90 37 64
        E 30 80 37 00
        <X 60 0
          /wVtZWw=
        >
        E 0 90 3c 64
        E 90 80 3c 00
        <X 30 0
          /wVkZQ==
        >
        E 0 90 3c 64
        E 210 80 3c 00
        <X 30 0
          /wVjYS0=
        >
        E 0 90 3b 64
        E 90 80 3b 00
        <X 30 0
          /wVjYXU=
        >
        E 0 90 39 64
        E 241 80 39 00
        E 0 90 01 64
        E 30 80 01 00
        <X 90 0
          /wVlp28=
        >
        E 0 90 39 64
        E 60 80 39 00
        <X 59 0
          /wVzb2w=
        >
        E 0 90 37 64
        E 150 80 37 00
        <X 90 0
          /wVkYQ==
        >
        E 0 90 39 64
        E 150 80 39 00
        <X 60 0
          /wVtYS0=
        >
        E 0 90 39 64
        E 180 80 39 00
        <X 60 0
          /wVuaOM=
        >
        E 0 90 39 64
        E 601 80 39 00
        E 150 80 69 00
        E 0 80 74 00
        E 480 90 69 64
        <X 240 0
          /wFbaW50ZW5zZV0=
        >
        <X 240 0
          /wXK
        >
        E 0 90 39 64
        E 270 80 39 00
        <X 90 0
          /wVtby0=
        >
        E 0 90 37 64
        E 90 80 37 00
        <X 30 0
          /wVyZS0=
        >
        E 0 90 37 64
        E 90 80 37 00
        <X 30 0
          /wVuYQ==
        >
        E 0 90 37 64
        E 150 80 37 00
        <X 90 0
          /wVxdWVt
        >
        E 0 90 37 64
        E 90 80 37 00
        <X 30 0
          /wV0ZW0t
        >
        E 0 90 40 64
        E 180 80 40 00
        <X 30 0
          /wVwZS0=
        >
        E 0 90 40 64
        E 180 80 40 00
        <X 60 0
          /wVyb3U=
        >
        E 0 90 3e 64
        E 270 80 3e 00
        E 60 90 01 64
        E 30 80 01 00
        <X 30 0
          /wVjaS0=
        >
        E 0 90 3c 64
        E 90 80 3c 00
        <X 30 0
          /wVnYS0=
        >
        E 0 90 40 64
        E 90 80 40 00
        <X 30 0
          /wVuYQ==
        >
        E 0 90 40 64
        E 120 80 40 00
        <X 120 0
          /wVxdWVt
        >
        E 0 90 3e 64
        E 180 80 3e 00
        <X 60 0
          /wV0ZW0t
        >
        E 0 90 3e 64
        E 150 80 3e 00
        <X 60 0
          /wVwZS0=
        >
        E 0 90 3c 64
        E 90 80 3c 00
        <X 60 0
          /wVyb3U=
        >
        E 0 90 3c 64
        E 300 80 69 00
        E 0 80 3c 00
        E 0 90 69 64
        <X 65 0
          /wVP
        >
        E 0 90 37 64
        E 90 80 37 00
        <X 25 0
          /wVjaGVpLQ==
        >
        E 0 90 3c 64
        E 90 80 3c 00
        <X 30 0
          /wVybw==
        >
        E 0 90 3c 64
        E 210 80 3c 00
        <X 30 0
          /wVkbw==
        >
        E 0 90 3b 64
        E 90 80 3b 00
        <X 30 0
          /wVjcmEt
        >
        E 0 90 3b 64
        E 150 80 3b 00
        <X 90 0
          /wV2bw==
        >
        E 0 90 39 64
        E 960 80 39 00
        E 240 80 69 00
        E 480 90 69 64
        <X 360 0
          /wVDaS0=
        >
        E 0 90 37 64
        E 90 80 37 00
        <X 30 0
          /wVnYS0=
        >
        E 0 90 37 64
        E 89 80 37 00
        <X 30 0
          /wVuYQ==
        >
        E 0 90 37 64
        E 150 80 37 00
        <X 90 0
          /wVxdWVt
        >
        E 0 90 37 64
        E 90 80 37 00
        <X 30 0
          /wV0ZW0t
        >
        E 0 90 40 64
        E 150 80 40 00
        <X 60 0
          /wVwZS0=
        >
        E 0 90 40 64
        E 151 80 40 00
        <X 119 0
          /wVyb3U=
        >
        E 0 90 3e 64
        E 270 80 3e 00
        E 31 90 01 64
        E 30 80 01 00
        <X 29 0
          /wVtby0=
        >
        E 0 90 3c 64
        E 90 80 3c 00
        <X 30 0
          /wVyZS0=
        >
        E 0 90 40 64
        E 90 80 40 00
        <X 30 0
          /wVuYQ==
        >
        E 0 90 40 64
        E 120 80 40 00
        <X 120 0
          /wVxdWVt
        >
        E 0 90 3e 64
        E 180 80 3e 00
        <X 60 0
          /wV0ZW0t
        >
        E 0 90 3e 64
        E 150 80 3e 00
        <X 60 0
          /wVwZS0=
        >
        E 0 90 3c 64
        E 90 80 3c 00
        <X 61 0
          /wVyb3U=
        >
        E 0 90 3c 64
        E 300 80 3c 00
        E 60 80 69 00
        E 0 90 69 64
        <X 34 0
          /wVB
        >
        E 0 90 37 64
        E 90 80 37 00
        <X 25 0
          /wVjb3I=
        >
        E 0 90 3c 64
        E 90 80 3c 00
        <X 31 0
          /wVkZQ==
        >
        E 0 90 3c 64
        E 209 80 3c 00
        <X 30 0
          /wVjYS0=
        >
        E 0 90 3b 64
        E 90 80 3b 00
        <X 30 0
          /wVuZS0=
        >
        E 0 90 3b 64
        E 151 80 3b 00
        <X 89 0
          /wVsYQ==
        >
        E 0 90 39 64
        E 181 80 39 00
        E 30 80 69 00
        E 0 90 69 64
        E 0 90 74 64
        <X 360 0
          /wVNby0=
        >
        E 0 90 37 64
        E 90 80 37 00
        <X 30 0
          /wVyZS0=
        >
        E 0 90 37 64
        E 90 80 37 00
        <X 30 0
          /wVuYQ==
        >
        E 0 90 37 64
        E 150 80 37 00
        <X 90 0
          /wVxdWVt
        >
        E 0 90 37 64
        E 90 80 37 00
        <X 30 0
          /wV0ZW0t
        >
        E 0 90 40 64
        E 180 80 40 00
        <X 30 0
          /wVwZS0=
        >
        E 0 90 40 64
        E 180 80 40 00
        <X 60 0
          /wVyb3U=
        >
        E 0 90 3e 64
        E 270 80 3e 00
        E 0 90 01 64
        E 30 80 01 00
        <X 90 0
          /wVjaS0=
        >
        E 0 90 3c 64
        E 90 80 3c 00
        <X 30 0
          /wVnYS0=
        >
        E 0 90 40 64
        E 90 80 40 00
        <X 30 0
          /wVuYQ==
        >
        E 0 90 40 64
        E 120 80 40 00
        <X 120 0
          /wVxdWVt
        >
        E 0 90 3e 64
        E 180 80 3e 00
        <X 60 0
          /wV0ZW0t
        >
        E 0 90 3e 64
        E 150 80 3e 00
        <X 60 0
          /wVwZS0=
        >
        E 0 90 3c 64
        E 90 80 3c 00
        <X 60 0
          /wVyb3U=
        >
        E 0 90 3c 64
        E 300 80 69 00
        E 0 80 74 00
        E 0 80 3c 00
        E 0 90 69 64
        <X 65 0
          /wVP
        >
        E 0 90 37 64
        E 90 80 37 00
        <X 25 0
          /wVjaGVpLQ==
        >
        E 0 90 3c 64
        E 90 80 3c 00
        <X 30 0
          /wVybw==
        >
        E 0 90 3c 64
        E 210 80 3c 00
        <X 30 0
          /wVkbw==
        >
        E 0 90 3b 64
        E 90 80 3b 00
        <X 30 0
          /wVjcmEt
        >
        E 0 90 3b 64
        E 150 80 3b 00
        <X 90 0
          /wV2bw==
        >
        E 0 90 39 64
        E 960 80 39 00
        E 240 80 69 00
        E 480 90 69 64
        <X 360 0
          /wVDaS0=
        >
        E 0 90 37 64
        E 90 80 37 00
        <X 30 0
          /wVnYS0=
        >
        E 0 90 37 64
        E 89 80 37 00
        <X 30 0
          /wVuYQ==
        >
        E 0 90 37 64
        E 150 80 37 00
        <X 90 0
          /wVxdWVt
        >
        E 0 90 37 64
        E 90 80 37 00
        <X 30 0
          /wV0ZW0t
        >
        E 0 90 40 64
        E 150 80 40 00
        <X 60 0
          /wVwZS0=
        >
        E 0 90 40 64
        E 151 80 40 00
        <X 119 0
          /wVyb3U=
        >
        E 0 90 3e 64
        E 270 80 3e 00
        E 31 90 01 64
        E 30 80 01 00
        <X 29 0
          /wVtby0=
        >
        E 0 90 3c 64
        E 90 80 3c 00
        <X 30 0
          /wVyZS0=
        >
        E 0 90 40 64
        E 90 80 40 00
        <X 30 0
          /wVuYQ==
        >
        E 0 90 40 64
        E 120 80 40 00
        <X 120 0
          /wVxdWVt
        >
        E 0 90 3e 64
        E 180 80 3e 00
        <X 60 0
          /wV0ZW0t
        >
        E 0 90 3e 64
        E 150 80 3e 00
        <X 60 0
          /wVwZS0=
        >
        E 0 90 3c 64
        E 90 80 3c 00
        <X 61 0
          /wVyb3U=
        >
        E 0 90 3c 64
        E 300 80 69 00
        E 0 80 3c 00
        E 0 90 69 64
        <X 94 0
          /wVB
        >
        E 0 90 37 64
        E 90 80 37 00
        <X 25 0
          /wVjb3I=
        >
        E 0 90 3c 64
        E 90 80 3c 00
        <X 31 0
          /wVkZQ==
        >
        E 0 90 3c 64
        E 209 80 3c 00
        <X 30 0
          /wVjYS0=
        >
        E 0 90 3b 64
        E 90 80 3b 00
        <X 30 0
          /wVuZS0=
        >
        E 0 90 3b 64
        E 151 80 3b 00
        <X 89 0
          /wVsYQ==
        >
        E 0 90 39 64
        E 181 80 39 00
        E 30 80 69 00
        E 0 90 69 64
        <X 360 0
          /wVNby0=
        >
        E 0 90 37 64
        E 90 80 37 00
        <X 30 0
          /wVyZS0=
        >
        E 0 90 37 64
        E 90 80 37 00
        <X 30 0
          /wVuYQ==
        >
        E 0 90 37 64
        E 150 80 37 00
        <X 90 0
          /wVxdWVt
        >
        E 0 90 37 64
        E 90 80 37 00
        <X 30 0
          /wV0ZW0t
        >
        E 0 90 40 64
        E 180 80 40 00
        <X 30 0
          /wVwZS0=
        >
        E 0 90 40 64
        E 180 80 40 00
        <X 60 0
          /wVyb3U=
        >
        E 0 90 3e 64
        E 270 80 3e 00
        E 0 90 01 64
        E 30 80 01 00
        <X 90 0
          /wVjaS0=
        >
        E 0 90 3c 64
        E 90 80 3c 00
        <X 30 0
          /wVnYS0=
        >
        E 0 90 40 64
        E 90 80 40 00
        <X 30 0
          /wVuYQ==
        >
        E 0 90 40 64
        E 120 80 40 00
        <X 120 0
          /wVxdWVt
        >
        E 0 90 3e 64
        E 180 80 3e 00
        <X 60 0
          /wV0ZW0t
        >
        E 0 90 3e 64
        E 150 80 3e 00
        <X 60 0
          /wVwZS0=
        >
        E 0 90 3c 64
        E 90 80 3c 00
        <X 60 0
          /wVyb3U=
        >
        E 0 90 3c 64
        E 293 80 3c 00
        E 7 80 69 00
        E 0 90 69 64
        E 0 90 74 64
        <X 65 0
          /wVP
        >
        E 0 90 37 64
        E 90 80 37 00
        <X 25 0
          /wVjaGVpLQ==
        >
        E 0 90 3c 64
        E 90 80 3c 00
        <X 30 0
          /wVybw==
        >
        E 0 90 3c 64
        E 210 80 3c 00
        <X 30 0
          /wVkbw==
        >
        E 0 90 3b 64
        E 90 80 3b 00
        <X 30 0
          /wVjcmEt
        >
        E 0 90 3b 64
        E 150 80 3b 00
        <X 90 0
          /wV2bw==
        >
        E 0 90 39 64
        E 720 80 39 00
        E 480 80 69 00
        E 0 80 74 00
        E 240 90 69 64
        <X 240 0
          /wXK
        >
        E 0 90 39 64
        E 270 80 39 00
        <X 90 0
          /wVjaS0=
        >
        E 0 90 37 64
        E 90 80 37 00
        <X 30 0
          /wVnYS0=
        >
        E 0 90 37 64
        E 89 80 37 00
        <X 30 0
          /wVuYQ==
        >
        E 0 90 37 64
        E 150 80 37 00
        <X 90 0
          /wVxdWVt
        >
        E 0 90 37 64
        E 90 80 37 00
        <X 30 0
          /wV0ZW0t
        >
        E 0 90 40 64
        E 150 80 40 00
        <X 60 0
          /wVwZS0=
        >
        E 0 90 40 64
        E 151 80 40 00
        <X 119 0
          /wVyb3U=
        >
        E 0 90 3e 64
        E 270 80 3e 00
        E 31 90 01 64
        E 30 80 01 00
        <X 29 0
          /wVtby0=
        >
        E 0 90 3c 64
        E 90 80 3c 00
        <X 30 0
          /wVyZS0=
        >
        E 0 90 40 64
        E 90 80 40 00
        <X 30 0
          /wVuYQ==
        >
        E 0 90 40 64
        E 120 80 40 00
        <X 120 0
          /wVxdWVt
        >
        E 0 90 3e 64
        E 180 80 3e 00
        <X 60 0
          /wV0ZW0t
        >
        E 0 90 3e 64
        E 150 80 3e 00
        <X 60 0
          /wVwZS0=
        >
        E 0 90 3c 64
        E 90 80 3c 00
        <X 61 0
          /wVyb3U=
        >
        E 0 90 3c 64
        E 300 80 69 00
        E 0 80 3c 00
        E 0 90 69 64
        <X 94 0
          /wVB
        >
        E 0 90 37 64
        E 90 80 37 00
        <X 25 0
          /wVjb3I=
        >
        E 0 90 3c 64
        E 90 80 3c 00
        <X 31 0
          /wVkZQ==
        >
        E 0 90 3c 64
        E 209 80 3c 00
        <X 30 0
          /wVjYS0=
        >
        E 0 90 3b 64
        E 90 80 3b 00
        <X 30 0
          /wVuZS0=
        >
        E 0 90 3b 64
        E 151 80 3b 00
        <X 89 0
          /wVsYQ==
        >
        E 0 90 39 64
        E 181 80 39 00
        E 30 80 69 00
        E 240 90 69 64
        <X 120 0
          /wVNby0=
        >
        E 0 90 37 64
        E 90 80 37 00
        <X 30 0
          /wVyZS0=
        >
        E 0 90 37 64
        E 90 80 37 00
        <X 30 0
          /wVuYQ==
        >
        E 0 90 37 64
        E 150 80 37 00
        <X 90 0
          /wVxdWVt
        >
        E 0 90 37 64
        E 90 80 37 00
        <X 30 0
          /wV0ZW0t
        >
        E 0 90 40 64
        E 180 80 40 00
        <X 30 0
          /wVwZS0=
        >
        E 0 90 40 64
        E 180 80 40 00
        <X 60 0
          /wVyb3U=
        >
        E 0 90 3e 64
        E 270 80 3e 00
        E 0 90 01 64
        E 30 80 01 00
        <X 90 0
          /wVjaS0=
        >
        E 0 90 3c 64
        E 90 80 3c 00
        <X 30 0
          /wVnYS0=
        >
        E 0 90 40 64
        E 90 80 40 00
        <X 30 0
          /wVuYQ==
        >
        E 0 90 40 64
        E 120 80 40 00
        <X 120 0
          /wVxdWVt
        >
        E 0 90 3e 64
        E 180 80 3e 00
        <X 60 0
          /wV0ZW0t
        >
        E 0 90 3e 64
        E 150 80 3e 00
        <X 60 0
          /wVwZS0=
        >
        E 0 90 3c 64
        E 90 80 3c 00
        <X 60 0
          /wVyb3U=
        >
        E 0 90 3c 64
        E 300 80 69 00
        E 0 80 3c 00
        E 0 90 69 64
        <X 65 0
          /wVP
        >
        E 0 90 37 64
        E 90 80 37 00
        <X 25 0
          /wVjaGVpLQ==
        >
        E 0 90 3c 64
        E 90 80 3c 00
        <X 30 0
          /wVybw==
        >
        E 0 90 3c 64
        E 210 80 3c 00
        <X 30 0
          /wVkbw==
        >
        E 0 90 3b 64
        E 90 80 3b 00
        <X 30 0
          /wVjcmEt
        >
        E 0 90 3b 64
        E 150 80 3b 00
        <X 90 0
          /wV2bw==
        >
        E 0 90 39 64
        E 720 80 39 00
        E 480 80 69 00
        E 480 90 69 64
        <X 360 0
          /wVDaS0=
        >
        E 0 90 37 64
        E 90 80 37 00
        <X 30 0
          /wVnYS0=
        >
        E 0 90 37 64
        E 89 80 37 00
        <X 30 0
          /wVuYQ==
        >
        E 0 90 37 64
        E 150 80 37 00
        <X 90 0
          /wVxdWVt
        >
        E 0 90 37 64
        E 90 80 37 00
        <X 30 0
          /wV0ZW0t
        >
        E 0 90 40 64
        E 150 80 40 00
        <X 60 0
          /wVwZS0=
        >
        E 0 90 40 64
        E 151 80 40 00
        <X 119 0
          /wVyb3U=
        >
        E 0 90 3e 64
        E 270 80 3e 00
        E 31 90 01 64
        E 30 80 01 00
        <X 29 0
          /wVtby0=
        >
        E 0 90 3c 64
        E 90 80 3c 00
        <X 30 0
          /wVyZS0=
        >
        E 0 90 40 64
        E 90 80 40 00
        <X 30 0
          /wVuYQ==
        >
        E 0 90 40 64
        E 120 80 40 00
        <X 120 0
          /wVxdWVt
        >
        E 0 90 3e 64
        E 180 80 3e 00
        <X 60 0
          /wV0ZW0t
        >
        E 0 90 3e 64
        E 150 80 3e 00
        <X 60 0
          /wVwZS0=
        >
        E 0 90 3c 64
        E 90 80 3c 00
        <X 61 0
          /wVyb3U=
        >
        E 0 90 3c 64
        E 300 80 69 00
        E 0 80 3c 00
        E 0 90 69 64
        <X 94 0
          /wVB
        >
        E 0 90 37 64
        E 90 80 37 00
        <X 25 0
          /wVjb3I=
        >
        E 0 90 3c 64
        E 90 80 3c 00
        <X 31 0
          /wVkZQ==
        >
        E 0 90 3c 64
        E 209 80 3c 00
        <X 30 0
          /wVjYS0=
        >
        E 0 90 3b 64
        E 90 80 3b 00
        <X 30 0
          /wVuZS0=
        >
        E 0 90 3b 64
        E 151 80 3b 00
        <X 89 0
          /wVsYQ==
        >
        E 0 90 39 64
        E 181 80 39 00
        <X 30 0
          /wFbaWRsZV9yZWFsdGltZV0=
        >
        E 0 80 69 00
        E 2880 b0 7b 00
        GUID {A95C971A-B445-4981-9119-D5A382BEEB5C}
        IGNTEMPO 0 120.00000000 4 4
        SRCCOLOR 1
        VELLANE 132 128 60
        COLORMAP "C:\Users\Ruggery\AppData\Roaming\Reaper\Data\color_maps\rockband_vox-other.png"
        CFGEDITVIEW 16916.699159 58.537642 14 12 0 0 0
        CFGEDIT 1 1 0 1 1 1 1 1 1 1 1 0.06250000 -8 0 1360 744 0 0 1 2 0.00000000 0 1 0 0 0.500000 0 0 1.000000 64
        KEYSNAP 0 0 "102034050607" 0 "Major"
        EVTFILTER 0 -1 -1 -1 -1 0 1 0 0 -1.00000000 -1.00000000
      >
    >
  >
  <TRACK '{9FEE7BE5-8C11-40D6-9F08-93D9AFFA5C31}'
    NAME "HARM1"
    PEAKCOL 16576
    BEAT -1
    AUTOMODE 0
    VOLPAN 1.00000000000000 0.00000000000000 -1.00000000000000 -1.00000000000000 1.00000000000000
    MUTESOLO 0 0 0
    IPHASE 0
    ISBUS 0 0
    BUSCOMP 0 0
    SHOWINMIX 1 0.666700 0.500000 1 0.500000 -1 -1 -1
    FREEMODE 0
    SEL 0
    REC 0 0 0 0 0 0 0
    VU 2
    TRACKHEIGHT 0 0
    INQ 0 0 0 0.5000000000 100 0 0 100
    NCHAN 2
    FX 0
    TRACKID {9FEE7BE5-8C11-40D6-9F08-93D9AFFA5C31}
    PERF 0
    MIDIOUT -1
    <MIDINOTENAMES
      0 116 "OVERDRIVE"
      0 115 "----"
      0 105 "Phrase Marker"
      0 104 "----"
      0 97 "Non-Displayed Percussion"
      0 96 "Displayed Percussion"
      0 95 "----"
      0 83 "Highest Note B5"
      0 82 "A#4"
      0 81 "A4"
      0 80 "G#4"
      0 79 "G4"
      0 78 "F#4"
      0 77 "F4"
      0 76 "E4"
      0 75 "D#4"
      0 74 "D4"
      0 73 "C#4"
      0 72 "C4"
      0 71 "B3"
      0 70 "A#3"
      0 69 "A3"
      0 68 "G#3"
      0 67 "G3"
      0 66 "F#3"
      0 65 "F3"
      0 64 "E3"
      0 63 "D#3"
      0 62 "D3"
      0 61 "C#3"
      0 60 "C3"
      0 59 "B2"
      0 58 "A#2"
      0 57 "A2"
      0 56 "G#2"
      0 55 "G2"
      0 54 "F#2"
      0 53 "F2"
      0 52 "E2"
      0 51 "D#2"
      0 50 "D2"
      0 49 "C#2"
      0 48 "C2"
      0 47 "B1"
      0 46 "A#1"
      0 45 "A1"
      0 44 "G#1"
      0 43 "G1"
      0 42 "F#1"
      0 41 "F1"
      0 40 "E1"
      0 39 "D#1"
      0 38 "D!"
      0 37 "C#1"
      0 36 "Lowest Note C1"
      0 2 "---"
      0 1 "Lyric Shift"
      0 0 "Range Shift"
    >
    MAINSEND 1 0
    <FXCHAIN
      WNDRECT 0 42 716 462
      SHOW 0
      LASTSEL 1
      DOCKED 0
      BYPASS 0 0
      <JS "MIDI/midi_note_filter" ""
        36.000000 83.000000 - - - - - - - - - - - - - - - - - - - - - - - - - - - - - - - - - - - - - - - - - - - - - - - - - - - - - - - - - - - - - - 
      >
      FLOATPOS 0 0 0 0
      FXID {FA823465-5CDA-419F-BDB5-76CC1BBD76EF}
      WAK 0
      BYPASS 0 0
      <VST "VSTi: ReaSynth (Cockos)" "reasynth.dll" 0 ""
        eXNlcu9e7f4AAAAAAgAAAAEAAAAAAAAAAgAAAAAAAAA4AAAAAAAAAA==
        AAAQAO++rd4N8K3eppvEOxe30ToAAAAAAAAAAAAAAADOTQA/AAAAAA==
        AACAPwAAAD8AAIA/AAAAAAAAAD8AABAAAAA=
      >
      FLOATPOS 0 0 0 0
      FXID {6108AD24-840D-472B-A3ED-C14C7E86F5D9}
      WAK 0
    >
    <ITEM
      POSITION 0.00000000000000
      SNAPOFFS 0.00000000025906
      LENGTH 145.04278159266019
      LOOP 0
      ALLTAKES 0
      SEL 0
      FADEIN 1 0.000000 0.000000 1 0
      FADEOUT 1 0.000000 0.000000 1 0
      MUTE 0
      IGUID {4C37B0C0-E4AB-4E5E-B866-19096CD6BE7A}
      IID 7
      NAME "HARM1"
      VOLPAN 1.000000 0.000000 1.000000 -1.000000
      SOFFS -0.00000000025906 -0.00000000050999
      PLAYRATE 1.00000000000000 1 0.00000000000000 -1
      CHANMODE 0
      GUID {F1CBB5CA-720A-470A-9F79-C836C956CE29}
      <SOURCE MIDI
        HASDATA 1 480 QN
        POOLEDEVTS {62BDBC86-05EA-4E98-9372-22ED07B42F6B}
        <X 0 0
          /wNIQVJNMQ==
        >
        <X 2880 0
          /wFbaWRsZV0=
        >
        E 28320 90 69 64
        E 0 90 74 64
        <X 1 0
          /wFbaW50ZW5zZV0=
        >
        <X 479 0
          /wXK
        >
        E 0 90 39 64
        E 270 80 39 00
        <X 90 0
          /wVtby0=
        >
        E 0 90 37 64
        E 90 80 37 00
        <X 30 0
          /wVyZS0=
        >
        E 0 90 37 64
        E 90 80 37 00
        <X 30 0
          /wVuYQ==
        >
        E 0 90 37 64
        E 150 80 37 00
        <X 90 0
          /wVxdWVt
        >
        E 0 90 37 64
        E 90 80 37 00
        <X 30 0
          /wV0ZW0t
        >
        E 0 90 40 64
        E 180 80 40 00
        <X 30 0
          /wVwZS0=
        >
        E 0 90 40 64
        E 180 80 40 00
        <X 60 0
          /wVyb3U=
        >
        E 0 90 3e 64
        E 270 80 3e 00
        E 60 90 01 64
        E 30 80 01 00
        <X 30 0
          /wVjaS0=
        >
        E 0 90 3c 64
        E 90 80 3c 00
        <X 30 0
          /wVnYS0=
        >
        E 0 90 40 64
        E 90 80 40 00
        <X 30 0
          /wVuYQ==
        >
        E 0 90 40 64
        E 120 80 40 00
        <X 120 0
          /wVxdWVt
        >
        E 0 90 3e 64
        E 180 80 3e 00
        <X 60 0
          /wV0ZW0t
        >
        E 0 90 3e 64
        E 150 80 3e 00
        <X 60 0
          /wVwZS0=
        >
        E 0 90 3c 64
        E 90 80 3c 00
        <X 60 0
          /wVyb3U=
        >
        E 0 90 3c 64
        E 300 80 69 00
        E 0 80 74 00
        E 0 80 3c 00
        E 0 90 69 64
        <X 65 0
          /wVP
        >
        E 0 90 37 64
        E 90 80 37 00
        <X 25 0
          /wVjaGVpLQ==
        >
        E 0 90 3c 64
        E 90 80 3c 00
        <X 30 0
          /wVybw==
        >
        E 0 90 3c 64
        E 210 80 3c 00
        <X 30 0
          /wVkbw==
        >
        E 0 90 3b 64
        E 90 80 3b 00
        <X 30 0
          /wVjcmEt
        >
        E 0 90 3b 64
        E 150 80 3b 00
        <X 90 0
          /wV2bw==
        >
        E 0 90 39 64
        E 960 80 39 00
        E 240 80 69 00
        E 480 90 69 64
        <X 360 0
          /wVDaS0=
        >
        E 0 90 37 64
        E 90 80 37 00
        <X 30 0
          /wVnYS0=
        >
        E 0 90 37 64
        E 89 80 37 00
        <X 30 0
          /wVuYQ==
        >
        E 0 90 37 64
        E 150 80 37 00
        <X 90 0
          /wVxdWVt
        >
        E 0 90 37 64
        E 90 80 37 00
        <X 30 0
          /wV0ZW0t
        >
        E 0 90 40 64
        E 150 80 40 00
        <X 60 0
          /wVwZS0=
        >
        E 0 90 40 64
        E 151 80 40 00
        <X 119 0
          /wVyb3U=
        >
        E 0 90 3e 64
        E 270 80 3e 00
        E 31 90 01 64
        E 30 80 01 00
        <X 29 0
          /wVtby0=
        >
        E 0 90 3c 64
        E 90 80 3c 00
        <X 30 0
          /wVyZS0=
        >
        E 0 90 40 64
        E 90 80 40 00
        <X 30 0
          /wVuYQ==
        >
        E 0 90 40 64
        E 120 80 40 00
        <X 120 0
          /wVxdWVt
        >
        E 0 90 3e 64
        E 180 80 3e 00
        <X 60 0
          /wV0ZW0t
        >
        E 0 90 3e 64
        E 150 80 3e 00
        <X 60 0
          /wVwZS0=
        >
        E 0 90 3c 64
        E 90 80 3c 00
        <X 61 0
          /wVyb3U=
        >
        E 0 90 3c 64
        E 300 80 3c 00
        E 60 80 69 00
        E 0 90 69 64
        <X 34 0
          /wVB
        >
        E 0 90 37 64
        E 90 80 37 00
        <X 25 0
          /wVjb3I=
        >
        E 0 90 3c 64
        E 90 80 3c 00
        <X 31 0
          /wVkZQ==
        >
        E 0 90 3c 64
        E 209 80 3c 00
        <X 30 0
          /wVjYS0=
        >
        E 0 90 3b 64
        E 90 80 3b 00
        <X 30 0
          /wVuZS0=
        >
        E 0 90 3b 64
        E 151 80 3b 00
        <X 89 0
          /wVsYQ==
        >
        E 0 90 39 64
        E 691 80 39 00
        E 480 80 69 00
        <X 480 0
          /wFbcGxheV0=
        >
        E 0 90 69 64
        <X 360 0
          /wVB
        >
        E 0 90 39 64
        E 90 80 39 00
        <X 30 0
          /wVsdS0=
        >
        E 0 90 39 64
        E 90 80 39 00
        <X 30 0
          /wVh
        >
        E 0 90 39 64
        E 150 80 39 00
        <X 90 0
          /wVtby0=
        >
        E 0 90 37 64
        E 90 80 37 00
        <X 30 0
          /wVyZS0=
        >
        E 0 90 39 64
        E 90 80 39 00
        <X 30 0
          /wVuYQ==
        >
        E 0 90 39 64
        E 180 80 39 00
        E 0 90 01 64
        E 30 80 01 00
        <X 30 0
          /wVh
        >
        E 0 90 37 64
        E 90 80 37 00
        <X 30 0
          /wVkYW4t
        >
        E 0 90 3c 64
        E 90 80 3c 00
        <X 30 0
          /wXnYQ==
        >
        E 0 90 3c 64
        E 210 80 3c 00
        <X 30 0
          /wVkbw==
        >
        E 0 90 3b 64
        E 90 80 3b 00
        <X 30 0
          /wV2ZW4t
        >
        E 0 90 39 64
        E 210 80 39 00
        <X 30 0
          /wV0bw==
        >
        E 0 90 39 64
        E 144 80 39 00
        E 6 80 69 00
        E 0 90 69 64
        E 0 90 74 64
        <X 32 0
          /wVP
        >
        E 0 90 37 64
        E 30 80 37 00
        <X 28 0
          /wV2ZW4t
        >
        E 0 90 3c 64
        E 90 80 3c 00
        <X 30 0
          /wV0cmU=
        >
        E 0 90 3c 64
        E 210 80 3c 00
        <X 30 0
          /wVkYQ==
        >
        E 0 90 3b 64
        E 90 80 3b 00
        <X 30 0
          /wVub2kt
        >
        E 0 90 39 64
        E 210 80 39 00
        <X 30 0
          /wV0Zadl
        >
        E 0 90 39 64
        E 120 80 39 00
        E 0 90 01 64
        <X 30 0
          /wVv
        >
        E 0 80 01 00
        E 0 90 39 64
        E 30 80 39 00
        <X 60 0
          /wVzb2w=
        >
        E 0 90 37 64
        E 150 80 37 00
        <X 90 0
          /wVkYQ==
        >
        E 0 90 39 64
        E 150 80 39 00
        <X 60 0
          /wVtYS0=
        >
        E 0 90 39 64
        E 180 80 39 00
        <X 60 0
          /wVuaOM=
        >
        E 0 90 39 64
        E 330 80 39 00
        <X 90 0
          /wUr
        >
        E 0 90 37 64
        E 30 80 37 00
        <X 60 0
          /wUr
        >
        E 0 90 34 64
        E 30 80 34 00
        E 210 80 69 00
        E 0 80 74 00
        E 960 90 69 64
        <X 360 0
          /wVB
        >
        E 0 90 39 64
        E 89 80 39 00
        <X 30 0
          /wVjaHUt
        >
        E 0 90 39 64
        E 90 80 39 00
        <X 30 0
          /wV2YQ==
        >
        E 0 90 39 64
        E 150 80 39 00
        <X 90 0
          /wVjaS0=
        >
        E 0 90 37 64
        E 90 80 37 00
        <X 30 0
          /wVnYS0=
        >
        E 0 90 39 64
        E 90 80 39 00
        <X 30 0
          /wVuYQ==
        >
        E 0 90 39 64
        E 180 80 39 00
        E 1 90 01 64
        E 30 80 01 00
        <X 29 0
          /wVh
        >
        E 0 90 37 64
        E 90 80 37 00
        <X 30 0
          /wVkYW4t
        >
        E 0 90 3c 64
        E 90 80 3c 00
        <X 30 0
          /wXnYQ==
        >
        E 0 90 3c 64
        E 210 80 3c 00
        <X 30 0
          /wVkb3M=
        >
        E 0 90 3b 64
        E 90 80 3b 00
        <X 30 0
          /wVyaS0=
        >
        E 0 90 39 64
        E 210 80 39 00
        <X 30 0
          /wVvcw==
        >
        E 0 90 39 64
        E 61 80 39 00
        E 60 80 69 00
        E 0 90 69 64
        <X 29 0
          /wVP
        >
        E 0 90 37 64
        E 30 80 37 00
        <X 60 0
          /wVtZWw=
        >
        E 0 90 3c 64
        E 90 80 3c 00
        <X 30 0
          /wVkZQ==
        >
        E 0 90 3c 64
        E 210 80 3c 00
        <X 30 0
          /wVjYS0=
        >
        E 0 90 3b 64
        E 90 80 3b 00
        <X 30 0
          /wVjYXU=
        >
        E 0 90 39 64
        E 241 80 39 00
        E 60 90 01 64
        E 30 80 01 00
        <X 30 0
          /wVlp28=
        >
        E 0 90 39 64
        E 60 80 39 00
        <X 59 0
          /wVzb2w=
        >
        E 0 90 37 64
        E 150 80 37 00
        <X 90 0
          /wVkYQ==
        >
        E 0 90 39 64
        E 150 80 39 00
        <X 60 0
          /wVtYS0=
        >
        E 0 90 39 64
        E 180 80 39 00
        <X 60 0
          /wVuaOM=
        >
        E 0 90 39 64
        E 601 80 39 00
        E 150 80 69 00
        E 480 90 69 64
        <X 1 0
          /wFbaW50ZW5zZV0=
        >
        <X 479 0
          /wXK
        >
        E 0 90 39 64
        E 270 80 39 00
        <X 90 0
          /wVtby0=
        >
        E 0 90 37 64
        E 90 80 37 00
        <X 30 0
          /wVyZS0=
        >
        E 0 90 37 64
        E 90 80 37 00
        <X 30 0
          /wVuYQ==
        >
        E 0 90 37 64
        E 150 80 37 00
        <X 90 0
          /wVxdWVt
        >
        E 0 90 37 64
        E 90 80 37 00
        <X 30 0
          /wV0ZW0t
        >
        E 0 90 40 64
        E 150 80 40 00
        <X 90 0
          /wVwZS0=
        >
        E 0 90 40 64
        E 120 80 40 00
        <X 90 0
          /wVyb3U=
        >
        E 0 90 3e 64
        E 240 80 3e 00
        E 60 90 01 64
        E 30 80 01 00
        <X 60 0
          /wVjaS0=
        >
        E 0 90 3c 64
        E 90 80 3c 00
        <X 30 0
          /wVnYS0=
        >
        E 0 90 40 64
        E 90 80 40 00
        <X 30 0
          /wVuYQ==
        >
        E 0 90 40 64
        E 120 80 40 00
        <X 120 0
          /wVxdWVt
        >
        E 0 90 3e 64
        E 180 80 3e 00
        <X 60 0
          /wV0ZW0t
        >
        E 0 90 3e 64
        E 150 80 3e 00
        <X 60 0
          /wVwZS0=
        >
        E 0 90 3c 64
        E 90 80 3c 00
        <X 60 0
          /wVyb3U=
        >
        E 0 90 3c 64
        E 300 80 3c 00
        E 30 80 69 00
        E 0 90 69 64
        <X 35 0
          /wVP
        >
        E 0 90 37 64
        E 90 80 37 00
        <X 25 0
          /wVjaGVpLQ==
        >
        E 0 90 3c 64
        E 90 80 3c 00
        <X 30 0
          /wVybw==
        >
        E 0 90 3c 64
        E 210 80 3c 00
        <X 30 0
          /wVkbw==
        >
        E 0 90 3b 64
        E 90 80 3b 00
        <X 30 0
          /wVjcmEt
        >
        E 0 90 3b 64
        E 150 80 3b 00
        <X 90 0
          /wV2bw==
        >
        E 0 90 39 64
        E 960 80 39 00
        E 240 80 69 00
        E 480 90 69 64
        E 0 90 74 64
        <X 360 0
          /wVDaS0=
        >
        E 0 90 37 64
        E 90 80 37 00
        <X 30 0
          /wVnYS0=
        >
        E 0 90 37 64
        E 89 80 37 00
        <X 30 0
          /wVuYQ==
        >
        E 0 90 37 64
        E 150 80 37 00
        <X 90 0
          /wVxdWVt
        >
        E 0 90 37 64
        E 90 80 37 00
        <X 30 0
          /wV0ZW0t
        >
        E 0 90 40 64
        E 181 80 40 00
        <X 59 0
          /wVwZS0=
        >
        E 0 90 40 64
        E 181 80 40 00
        <X 59 0
          /wVyb3U=
        >
        E 0 90 3e 64
        E 270 80 3e 00
        E 31 90 01 64
        E 30 80 01 00
        <X 29 0
          /wVtby0=
        >
        E 0 90 3c 64
        E 90 80 3c 00
        <X 30 0
          /wVyZS0=
        >
        E 0 90 40 64
        E 90 80 40 00
        <X 30 0
          /wVuYQ==
        >
        E 0 90 40 64
        E 120 80 40 00
        <X 120 0
          /wVxdWVt
        >
        E 0 90 3e 64
        E 180 80 3e 00
        <X 60 0
          /wV0ZW0t
        >
        E 0 90 3e 64
        E 150 80 3e 00
        <X 90 0
          /wVwZS0=
        >
        E 0 90 3c 64
        E 90 80 3c 00
        <X 31 0
          /wVyb3U=
        >
        E 0 90 3c 64
        E 300 80 3c 00
        E 30 80 69 00
        E 0 80 74 00
        E 0 90 69 64
        <X 64 0
          /wVB
        >
        E 0 90 37 64
        E 90 80 37 00
        <X 25 0
          /wVjb3I=
        >
        E 0 90 3c 64
        E 90 80 3c 00
        <X 31 0
          /wVkZQ==
        >
        E 0 90 3c 64
        E 209 80 3c 00
        <X 30 0
          /wVjYS0=
        >
        E 0 90 3b 64
        E 90 80 3b 00
        <X 30 0
          /wVuZS0=
        >
        E 0 90 3b 64
        E 151 80 3b 00
        <X 89 0
          /wVsYQ==
        >
        E 0 90 39 64
        E 691 80 39 00
        <X 481 0
          /wFbaWRsZV0=
        >
        E 479 80 69 00
        E 5280 90 69 64
        <X 241 0
          /wFbbWVsbG93XQ==
        >
        <X 239 0
          /wXKPQ==
        >
        E 0 90 40 64
        E 150 80 40 00
        <X 90 0
          /wUr
        >
        E 0 90 3e 64
        E 30 80 3e 00
        <X 90 0
          /wVyYT0=
        >
        E 0 90 3e 64
        E 180 80 3e 00
        <X 60 0
          /wVy6j0=
        >
        E 0 90 3e 64
        E 330 80 3e 00
        <X 30 0
          /wVy6j0=
        >
        E 0 90 3e 64
        E 180 80 3e 00
        <X 60 0
          /wVyYQ==
        >
        E 0 90 3e 64
        E 180 80 3e 00
        E 0 90 01 64
        E 30 80 01 00
        <X 30 0
          /wVBPQ==
        >
        E 0 90 3e 64
        E 30 80 3e 00
        <X 30 0
          /wUr
        >
        E 0 90 40 64
        E 120 80 40 00
        <X 60 0
          /wUr
        >
        E 0 90 3e 64
        E 30 80 3e 00
        <X 90 0
          /wVyYT0=
        >
        E 0 90 3e 64
        E 150 80 3e 00
        <X 90 0
          /wVy6j0=
        >
        E 0 90 3e 64
        E 180 80 3e 00
        <X 60 0
          /wVobW09
        >
        E 0 90 3e 64
        E 60 80 3e 00
        <X 60 0
          /wVyYQ==
        >
        E 0 90 3e 64
        E 150 80 3e 00
        E 90 80 69 00
        E 0 90 69 64
        <X 240 0
          /wXKPQ==
        >
        E 0 90 40 64
        E 150 80 40 00
        <X 90 0
          /wUr
        >
        E 0 90 3e 64
        E 30 80 3e 00
        <X 90 0
          /wVyYT0=
        >
        E 0 90 3e 64
        E 180 80 3e 00
        <X 60 0
          /wVy6j0=
        >
        E 0 90 3e 64
        E 330 80 3e 00
        <X 30 0
          /wVy6j0=
        >
        E 0 90 3e 64
        E 180 80 3e 00
        <X 60 0
          /wVyYQ==
        >
        E 0 90 3e 64
        E 180 80 3e 00
        E 0 90 01 64
        E 30 80 01 00
        <X 30 0
          /wVBPQ==
        >
        E 0 90 3e 64
        E 30 80 3e 00
        <X 30 0
          /wUr
        >
        E 0 90 40 64
        E 120 80 40 00
        <X 60 0
          /wUr
        >
        E 0 90 3e 64
        E 30 80 3e 00
        <X 90 0
          /wVhaD0=
        >
        E 0 90 3e 64
        E 150 80 3e 00
        <X 90 0
          /wVy6j0=
        >
        E 0 90 3e 64
        E 180 80 3e 00
        <X 60 0
          /wVobW09
        >
        E 0 90 3e 64
        E 60 80 3e 00
        <X 60 0
          /wVyYQ==
        >
        E 0 90 3e 64
        E 150 80 3e 00
        E 90 80 69 00
        E 0 90 69 64
        E 0 90 74 64
        <X 270 0
          /wVBaD0=
        >
        E 0 90 40 64
        E 150 80 40 00
        <X 90 0
          /wUr
        >
        E 0 90 3e 64
        E 30 80 3e 00
        <X 90 0
          /wVyYT0=
        >
        E 0 90 3e 64
        E 180 80 3e 00
        <X 60 0
          /wVyYT0=
        >
        E 0 90 3e 64
        E 180 80 3e 00
        <X 60 0
          /wVyYT0=
        >
        E 0 90 3e 64
        E 90 80 3e 00
        <X 30 0
          /wVyYT0=
        >
        E 0 90 3e 64
        E 180 80 3e 00
        <X 60 0
          /wVyYQ==
        >
        E 0 90 3e 64
        E 180 80 3e 00
        E 0 90 01 64
        E 30 80 01 00
        <X 30 0
          /wVBPQ==
        >
        E 0 90 3e 64
        E 30 80 3e 00
        <X 30 0
          /wUr
        >
        E 0 90 40 64
        E 120 80 40 00
        <X 60 0
          /wUr
        >
        E 0 90 3e 64
        E 30 80 3e 00
        <X 90 0
          /wVyYT0=
        >
        E 0 90 3e 64
        E 150 80 3e 00
        <X 90 0
          /wVyYT0=
        >
        E 0 90 3e 64
        E 180 80 3e 00
        <X 60 0
          /wVyYT0=
        >
        E 0 90 3e 64
        E 60 80 3e 00
        <X 60 0
          /wVyYQ==
        >
        E 0 90 3e 64
        E 150 80 3e 00
        E 90 80 69 00
        E 0 80 74 00
        E 0 90 69 64
        <X 210 0
          /wVBaD0=
        >
        E 0 90 40 64
        E 150 80 40 00
        <X 90 0
          /wUr
        >
        E 0 90 3e 64
        E 30 80 3e 00
        <X 90 0
          /wVyYT0=
        >
        E 0 90 3e 64
        E 180 80 3e 00
        <X 60 0
          /wVyYT0=
        >
        E 0 90 3e 64
        E 180 80 3e 00
        <X 60 0
          /wVyYT0=
        >
        E 0 90 3e 64
        E 90 80 3e 00
        <X 30 0
          /wVyYT0=
        >
        E 0 90 3e 64
        E 180 80 3e 00
        <X 60 0
          /wVyYQ==
        >
        E 0 90 3e 64
        E 180 80 3e 00
        E 0 90 01 64
        E 30 80 01 00
        <X 30 0
          /wVBPQ==
        >
        E 0 90 3e 64
        E 30 80 3e 00
        <X 30 0
          /wUr
        >
        E 0 90 40 64
        E 120 80 40 00
        <X 60 0
          /wUr
        >
        E 0 90 3e 64
        E 30 80 3e 00
        <X 90 0
          /wVyYT0=
        >
        E 0 90 3e 64
        E 150 80 3e 00
        <X 90 0
          /wVyYT0=
        >
        E 0 90 3e 64
        E 180 80 3e 00
        <X 60 0
          /wVyYT0=
        >
        E 0 90 3e 64
        E 60 80 3e 00
        <X 60 0
          /wVyYQ==
        >
        E 0 90 3e 64
        E 150 80 3e 00
        E 330 80 69 00
        <X 240 0
          /wFbcGxheV0=
        >
        E 0 90 69 64
        <X 120 0
          /wVB
        >
        E 0 90 39 64
        E 90 80 39 00
        <X 30 0
          /wVsdS0=
        >
        E 0 90 39 64
        E 90 80 39 00
        <X 30 0
          /wVh
        >
        E 0 90 39 64
        E 150 80 39 00
        <X 90 0
          /wVtby0=
        >
        E 0 90 37 64
        E 90 80 37 00
        <X 30 0
          /wVyZS0=
        >
        E 0 90 39 64
        E 90 80 39 00
        <X 30 0
          /wVuYQ==
        >
        E 0 90 39 64
        E 180 80 39 00
        E 0 90 01 64
        E 30 80 01 00
        <X 30 0
          /wVh
        >
        E 0 90 37 64
        E 90 80 37 00
        <X 30 0
          /wVkYW4t
        >
        E 0 90 3c 64
        E 90 80 3c 00
        <X 30 0
          /wXnYQ==
        >
        E 0 90 3c 64
        E 210 80 3c 00
        <X 30 0
          /wVkbw==
        >
        E 0 90 3b 64
        E 90 80 3b 00
        <X 30 0
          /wV2ZW4t
        >
        E 0 90 39 64
        E 210 80 39 00
        <X 30 0
          /wV0bw==
        >
        E 0 90 39 64
        E 150 80 69 00
        E 0 80 39 00
        E 0 90 69 64
        <X 30 0
          /wVP
        >
        E 0 90 37 64
        E 30 80 37 00
        <X 30 0
          /wV2ZW4t
        >
        E 0 90 3c 64
        E 90 80 3c 00
        <X 30 0
          /wV0cmU=
        >
        E 0 90 3c 64
        E 210 80 3c 00
        <X 30 0
          /wVkYQ==
        >
        E 0 90 3b 64
        E 90 80 3b 00
        <X 30 0
          /wVub2kt
        >
        E 0 90 39 64
        E 210 80 39 00
        <X 30 0
          /wV0Zadl
        >
        E 0 90 39 64
        E 120 80 39 00
        E 0 90 01 64
        <X 30 0
          /wVv
        >
        E 0 80 01 00
        E 0 90 39 64
        E 30 80 39 00
        <X 60 0
          /wVzb2w=
        >
        E 0 90 37 64
        E 150 80 37 00
        <X 90 0
          /wVkYQ==
        >
        E 0 90 39 64
        E 150 80 39 00
        <X 60 0
          /wVtYS0=
        >
        E 0 90 39 64
        E 180 80 39 00
        <X 60 0
          /wVuaOM=
        >
        E 0 90 39 64
        E 330 80 39 00
        <X 90 0
          /wUr
        >
        E 0 90 37 64
        E 30 80 37 00
        <X 60 0
          /wUr
        >
        E 0 90 34 64
        E 30 80 34 00
        E 210 80 69 00
        E 960 90 69 64
        <X 360 0
          /wVB
        >
        E 0 90 39 64
        E 89 80 39 00
        <X 30 0
          /wVjaHUt
        >
        E 0 90 39 64
        E 90 80 39 00
        <X 30 0
          /wV2YQ==
        >
        E 0 90 39 64
        E 150 80 39 00
        <X 90 0
          /wVjaS0=
        >
        E 0 90 37 64
        E 90 80 37 00
        <X 30 0
          /wVnYS0=
        >
        E 0 90 39 64
        E 90 80 39 00
        <X 30 0
          /wVuYQ==
        >
        E 0 90 39 64
        E 180 80 39 00
        E 1 90 01 64
        E 30 80 01 00
        <X 29 0
          /wVh
        >
        E 0 90 37 64
        E 90 80 37 00
        <X 30 0
          /wVkYW4t
        >
        E 0 90 3c 64
        E 90 80 3c 00
        <X 30 0
          /wXnYQ==
        >
        E 0 90 3c 64
        E 210 80 3c 00
        <X 30 0
          /wVkb3M=
        >
        E 0 90 3b 64
        E 90 80 3b 00
        <X 30 0
          /wVyaS0=
        >
        E 0 90 39 64
        E 210 80 39 00
        <X 30 0
          /wVvcw==
        >
        E 0 90 39 64
        E 61 80 39 00
        E 30 80 69 00
        E 0 90 69 64
        E 0 90 74 64
        <X 59 0
          /wVP
        >
        E 0 90 37 64
        E 30 80 37 00
        <X 60 0
          /wVtZWw=
        >
        E 0 90 3c 64
        E 90 80 3c 00
        <X 30 0
          /wVkZQ==
        >
        E 0 90 3c 64
        E 210 80 3c 00
        <X 30 0
          /wVjYS0=
        >
        E 0 90 3b 64
        E 90 80 3b 00
        <X 30 0
          /wVjYXU=
        >
        E 0 90 39 64
        E 241 80 39 00
        E 0 90 01 64
        E 30 80 01 00
        <X 90 0
          /wVlp28=
        >
        E 0 90 39 64
        E 60 80 39 00
        <X 59 0
          /wVzb2w=
        >
        E 0 90 37 64
        E 150 80 37 00
        <X 90 0
          /wVkYQ==
        >
        E 0 90 39 64
        E 150 80 39 00
        <X 60 0
          /wVtYS0=
        >
        E 0 90 39 64
        E 180 80 39 00
        <X 60 0
          /wVuaOM=
        >
        E 0 90 39 64
        E 601 80 39 00
        E 150 80 69 00
        E 0 80 74 00
        E 480 90 69 64
        <X 241 0
          /wFbaW50ZW5zZV0=
        >
        <X 599 0
          /wVNby0=
        >
        E 0 90 37 64
        E 90 80 37 00
        <X 30 0
          /wVyZS0=
        >
        E 0 90 37 64
        E 90 80 37 00
        <X 30 0
          /wVuYQ==
        >
        E 0 90 37 64
        E 150 80 37 00
        <X 90 0
          /wVxdWVt
        >
        E 0 90 37 64
        E 90 80 37 00
        <X 30 0
          /wV0ZW0t
        >
        E 0 90 40 64
        E 180 80 40 00
        <X 30 0
          /wVwZS0=
        >
        E 0 90 40 64
        E 180 80 40 00
        <X 60 0
          /wVyb3U=
        >
        E 0 90 3e 64
        E 270 80 3e 00
        E 60 90 01 64
        E 30 80 01 00
        <X 30 0
          /wVjaS0=
        >
        E 0 90 3c 64
        E 90 80 3c 00
        <X 30 0
          /wVnYS0=
        >
        E 0 90 40 64
        E 90 80 40 00
        <X 30 0
          /wVuYQ==
        >
        E 0 90 40 64
        E 120 80 40 00
        <X 120 0
          /wVxdWVt
        >
        E 0 90 3e 64
        E 180 80 3e 00
        <X 60 0
          /wV0ZW0t
        >
        E 0 90 3e 64
        E 150 80 3e 00
        <X 60 0
          /wVwZS0=
        >
        E 0 90 3c 64
        E 90 80 3c 00
        <X 60 0
          /wVyb3U=
        >
        E 0 90 3c 64
        E 300 80 69 00
        E 0 80 3c 00
        E 0 90 69 64
        <X 65 0
          /wVP
        >
        E 0 90 37 64
        E 90 80 37 00
        <X 25 0
          /wVjaGVpLQ==
        >
        E 0 90 3c 64
        E 90 80 3c 00
        <X 30 0
          /wVybw==
        >
        E 0 90 3c 64
        E 210 80 3c 00
        <X 30 0
          /wVkbw==
        >
        E 0 90 3b 64
        E 90 80 3b 00
        <X 30 0
          /wVjcmEt
        >
        E 0 90 3b 64
        E 150 80 3b 00
        <X 90 0
          /wV2bw==
        >
        E 0 90 39 64
        E 960 80 39 00
        E 240 80 69 00
        E 480 90 69 64
        <X 360 0
          /wVDaS0=
        >
        E 0 90 37 64
        E 90 80 37 00
        <X 30 0
          /wVnYS0=
        >
        E 0 90 37 64
        E 89 80 37 00
        <X 30 0
          /wVuYQ==
        >
        E 0 90 37 64
        E 150 80 37 00
        <X 90 0
          /wVxdWVt
        >
        E 0 90 37 64
        E 90 80 37 00
        <X 30 0
          /wV0ZW0t
        >
        E 0 90 40 64
        E 150 80 40 00
        <X 60 0
          /wVwZS0=
        >
        E 0 90 40 64
        E 151 80 40 00
        <X 119 0
          /wVyb3U=
        >
        E 0 90 3e 64
        E 270 80 3e 00
        E 31 90 01 64
        E 30 80 01 00
        <X 29 0
          /wVtby0=
        >
        E 0 90 3c 64
        E 90 80 3c 00
        <X 30 0
          /wVyZS0=
        >
        E 0 90 40 64
        E 90 80 40 00
        <X 30 0
          /wVuYQ==
        >
        E 0 90 40 64
        E 120 80 40 00
        <X 120 0
          /wVxdWVt
        >
        E 0 90 3e 64
        E 180 80 3e 00
        <X 60 0
          /wV0ZW0t
        >
        E 0 90 3e 64
        E 150 80 3e 00
        <X 60 0
          /wVwZS0=
        >
        E 0 90 3c 64
        E 90 80 3c 00
        <X 61 0
          /wVyb3U=
        >
        E 0 90 3c 64
        E 300 80 3c 00
        E 60 80 69 00
        E 0 90 69 64
        <X 34 0
          /wVB
        >
        E 0 90 37 64
        E 90 80 37 00
        <X 25 0
          /wVjb3I=
        >
        E 0 90 3c 64
        E 90 80 3c 00
        <X 31 0
          /wVkZQ==
        >
        E 0 90 3c 64
        E 209 80 3c 00
        <X 30 0
          /wVjYS0=
        >
        E 0 90 3b 64
        E 90 80 3b 00
        <X 30 0
          /wVuZS0=
        >
        E 0 90 3b 64
        E 151 80 3b 00
        <X 89 0
          /wVsYQ==
        >
        E 0 90 39 64
        E 181 80 39 00
        E 30 80 69 00
        E 0 90 69 64
        E 0 90 74 64
        <X 360 0
          /wVNby0=
        >
        E 0 90 37 64
        E 90 80 37 00
        <X 30 0
          /wVyZS0=
        >
        E 0 90 37 64
        E 90 80 37 00
        <X 30 0
          /wVuYQ==
        >
        E 0 90 37 64
        E 150 80 37 00
        <X 90 0
          /wVxdWVt
        >
        E 0 90 37 64
        E 90 80 37 00
        <X 30 0
          /wV0ZW0t
        >
        E 0 90 40 64
        E 180 80 40 00
        <X 30 0
          /wVwZS0=
        >
        E 0 90 40 64
        E 180 80 40 00
        <X 60 0
          /wVyb3U=
        >
        E 0 90 3e 64
        E 270 80 3e 00
        E 0 90 01 64
        E 30 80 01 00
        <X 90 0
          /wVjaS0=
        >
        E 0 90 3c 64
        E 90 80 3c 00
        <X 30 0
          /wVnYS0=
        >
        E 0 90 40 64
        E 90 80 40 00
        <X 30 0
          /wVuYQ==
        >
        E 0 90 40 64
        E 120 80 40 00
        <X 120 0
          /wVxdWVt
        >
        E 0 90 3e 64
        E 180 80 3e 00
        <X 60 0
          /wV0ZW0t
        >
        E 0 90 3e 64
        E 150 80 3e 00
        <X 60 0
          /wVwZS0=
        >
        E 0 90 3c 64
        E 90 80 3c 00
        <X 60 0
          /wVyb3U=
        >
        E 0 90 3c 64
        E 300 80 69 00
        E 0 80 74 00
        E 0 80 3c 00
        E 0 90 69 64
        <X 65 0
          /wVP
        >
        E 0 90 37 64
        E 90 80 37 00
        <X 25 0
          /wVjaGVpLQ==
        >
        E 0 90 3c 64
        E 90 80 3c 00
        <X 30 0
          /wVybw==
        >
        E 0 90 3c 64
        E 210 80 3c 00
        <X 30 0
          /wVkbw==
        >
        E 0 90 3b 64
        E 90 80 3b 00
        <X 30 0
          /wVjcmEt
        >
        E 0 90 3b 64
        E 150 80 3b 00
        <X 90 0
          /wV2bw==
        >
        E 0 90 39 64
        E 960 80 39 00
        E 240 80 69 00
        E 480 90 69 64
        <X 360 0
          /wVDaS0=
        >
        E 0 90 37 64
        E 90 80 37 00
        <X 30 0
          /wVnYS0=
        >
        E 0 90 37 64
        E 89 80 37 00
        <X 30 0
          /wVuYQ==
        >
        E 0 90 37 64
        E 150 80 37 00
        <X 90 0
          /wVxdWVt
        >
        E 0 90 37 64
        E 90 80 37 00
        <X 30 0
          /wV0ZW0t
        >
        E 0 90 40 64
        E 150 80 40 00
        <X 60 0
          /wVwZS0=
        >
        E 0 90 40 64
        E 151 80 40 00
        <X 119 0
          /wVyb3U=
        >
        E 0 90 3e 64
        E 270 80 3e 00
        E 31 90 01 64
        E 30 80 01 00
        <X 29 0
          /wVtby0=
        >
        E 0 90 3c 64
        E 90 80 3c 00
        <X 30 0
          /wVyZS0=
        >
        E 0 90 40 64
        E 90 80 40 00
        <X 30 0
          /wVuYQ==
        >
        E 0 90 40 64
        E 120 80 40 00
        <X 120 0
          /wVxdWVt
        >
        E 0 90 3e 64
        E 180 80 3e 00
        <X 60 0
          /wV0ZW0t
        >
        E 0 90 3e 64
        E 150 80 3e 00
        <X 60 0
          /wVwZS0=
        >
        E 0 90 3c 64
        E 90 80 3c 00
        <X 61 0
          /wVyb3U=
        >
        E 0 90 3c 64
        E 300 80 69 00
        E 0 80 3c 00
        E 0 90 69 64
        <X 94 0
          /wVB
        >
        E 0 90 37 64
        E 90 80 37 00
        <X 25 0
          /wVjb3I=
        >
        E 0 90 3c 64
        E 90 80 3c 00
        <X 31 0
          /wVkZQ==
        >
        E 0 90 3c 64
        E 209 80 3c 00
        <X 30 0
          /wVjYS0=
        >
        E 0 90 3b 64
        E 90 80 3b 00
        <X 30 0
          /wVuZS0=
        >
        E 0 90 3b 64
        E 151 80 3b 00
        <X 89 0
          /wVsYQ==
        >
        E 0 90 39 64
        E 181 80 39 00
        E 30 80 69 00
        E 0 90 69 64
        <X 360 0
          /wVNby0=
        >
        E 0 90 37 64
        E 90 80 37 00
        <X 30 0
          /wVyZS0=
        >
        E 0 90 37 64
        E 90 80 37 00
        <X 30 0
          /wVuYQ==
        >
        E 0 90 37 64
        E 150 80 37 00
        <X 90 0
          /wVxdWVt
        >
        E 0 90 37 64
        E 90 80 37 00
        <X 30 0
          /wV0ZW0t
        >
        E 0 90 40 64
        E 180 80 40 00
        <X 30 0
          /wVwZS0=
        >
        E 0 90 40 64
        E 180 80 40 00
        <X 60 0
          /wVyb3U=
        >
        E 0 90 3e 64
        E 270 80 3e 00
        E 0 90 01 64
        E 30 80 01 00
        <X 90 0
          /wVjaS0=
        >
        E 0 90 3c 64
        E 90 80 3c 00
        <X 30 0
          /wVnYS0=
        >
        E 0 90 40 64
        E 90 80 40 00
        <X 30 0
          /wVuYQ==
        >
        E 0 90 40 64
        E 120 80 40 00
        <X 120 0
          /wVxdWVt
        >
        E 0 90 3e 64
        E 180 80 3e 00
        <X 60 0
          /wV0ZW0t
        >
        E 0 90 3e 64
        E 150 80 3e 00
        <X 60 0
          /wVwZS0=
        >
        E 0 90 3c 64
        E 90 80 3c 00
        <X 60 0
          /wVyb3U=
        >
        E 0 90 3c 64
        E 293 80 3c 00
        E 7 80 69 00
        E 0 90 69 64
        E 0 90 74 64
        <X 65 0
          /wVP
        >
        E 0 90 37 64
        E 90 80 37 00
        <X 25 0
          /wVjaGVpLQ==
        >
        E 0 90 3c 64
        E 90 80 3c 00
        <X 30 0
          /wVybw==
        >
        E 0 90 3c 64
        E 210 80 3c 00
        <X 30 0
          /wVkbw==
        >
        E 0 90 3b 64
        E 90 80 3b 00
        <X 30 0
          /wVjcmEt
        >
        E 0 90 3b 64
        E 150 80 3b 00
        <X 90 0
          /wV2bw==
        >
        E 0 90 39 64
        E 720 80 39 00
        E 480 80 69 00
        E 0 80 74 00
        E 240 90 69 64
        <X 240 0
          /wXK
        >
        E 0 90 39 64
        E 270 80 39 00
        <X 90 0
          /wVjaS0=
        >
        E 0 90 37 64
        E 90 80 37 00
        <X 30 0
          /wVnYS0=
        >
        E 0 90 37 64
        E 89 80 37 00
        <X 30 0
          /wVuYQ==
        >
        E 0 90 37 64
        E 150 80 37 00
        <X 90 0
          /wVxdWVt
        >
        E 0 90 37 64
        E 90 80 37 00
        <X 30 0
          /wV0ZW0t
        >
        E 0 90 40 64
        E 150 80 40 00
        <X 60 0
          /wVwZS0=
        >
        E 0 90 40 64
        E 151 80 40 00
        <X 119 0
          /wVyb3U=
        >
        E 0 90 3e 64
        E 270 80 3e 00
        E 31 90 01 64
        E 30 80 01 00
        <X 29 0
          /wVtby0=
        >
        E 0 90 3c 64
        E 90 80 3c 00
        <X 30 0
          /wVyZS0=
        >
        E 0 90 40 64
        E 90 80 40 00
        <X 30 0
          /wVuYQ==
        >
        E 0 90 40 64
        E 120 80 40 00
        <X 120 0
          /wVxdWVt
        >
        E 0 90 3e 64
        E 180 80 3e 00
        <X 60 0
          /wV0ZW0t
        >
        E 0 90 3e 64
        E 150 80 3e 00
        <X 60 0
          /wVwZS0=
        >
        E 0 90 3c 64
        E 90 80 3c 00
        <X 61 0
          /wVyb3U=
        >
        E 0 90 3c 64
        E 300 80 69 00
        E 0 80 3c 00
        E 0 90 69 64
        <X 94 0
          /wVB
        >
        E 0 90 37 64
        E 90 80 37 00
        <X 25 0
          /wVjb3I=
        >
        E 0 90 3c 64
        E 90 80 3c 00
        <X 31 0
          /wVkZQ==
        >
        E 0 90 3c 64
        E 209 80 3c 00
        <X 30 0
          /wVjYS0=
        >
        E 0 90 3b 64
        E 90 80 3b 00
        <X 30 0
          /wVuZS0=
        >
        E 0 90 3b 64
        E 151 80 3b 00
        <X 89 0
          /wVsYQ==
        >
        E 0 90 39 64
        E 181 80 39 00
        E 30 80 69 00
        E 240 90 69 64
        <X 120 0
          /wVNby0=
        >
        E 0 90 37 64
        E 90 80 37 00
        <X 30 0
          /wVyZS0=
        >
        E 0 90 37 64
        E 90 80 37 00
        <X 30 0
          /wVuYQ==
        >
        E 0 90 37 64
        E 150 80 37 00
        <X 90 0
          /wVxdWVt
        >
        E 0 90 37 64
        E 90 80 37 00
        <X 30 0
          /wV0ZW0t
        >
        E 0 90 40 64
        E 180 80 40 00
        <X 30 0
          /wVwZS0=
        >
        E 0 90 40 64
        E 180 80 40 00
        <X 60 0
          /wVyb3U=
        >
        E 0 90 3e 64
        E 270 80 3e 00
        E 0 90 01 64
        E 30 80 01 00
        <X 90 0
          /wVjaS0=
        >
        E 0 90 3c 64
        E 90 80 3c 00
        <X 30 0
          /wVnYS0=
        >
        E 0 90 40 64
        E 90 80 40 00
        <X 30 0
          /wVuYQ==
        >
        E 0 90 40 64
        E 120 80 40 00
        <X 120 0
          /wVxdWVt
        >
        E 0 90 3e 64
        E 180 80 3e 00
        <X 60 0
          /wV0ZW0t
        >
        E 0 90 3e 64
        E 150 80 3e 00
        <X 60 0
          /wVwZS0=
        >
        E 0 90 3c 64
        E 90 80 3c 00
        <X 60 0
          /wVyb3U=
        >
        E 0 90 3c 64
        E 300 80 69 00
        E 0 80 3c 00
        E 0 90 69 64
        <X 65 0
          /wVP
        >
        E 0 90 37 64
        E 90 80 37 00
        <X 25 0
          /wVjaGVpLQ==
        >
        E 0 90 3c 64
        E 90 80 3c 00
        <X 30 0
          /wVybw==
        >
        E 0 90 3c 64
        E 210 80 3c 00
        <X 30 0
          /wVkbw==
        >
        E 0 90 3b 64
        E 90 80 3b 00
        <X 30 0
          /wVjcmEt
        >
        E 0 90 3b 64
        E 150 80 3b 00
        <X 90 0
          /wV2bw==
        >
        E 0 90 39 64
        E 720 80 39 00
        E 480 80 69 00
        E 480 90 69 64
        <X 360 0
          /wVDaS0=
        >
        E 0 90 37 64
        E 90 80 37 00
        <X 30 0
          /wVnYS0=
        >
        E 0 90 37 64
        E 89 80 37 00
        <X 30 0
          /wVuYQ==
        >
        E 0 90 37 64
        E 150 80 37 00
        <X 90 0
          /wVxdWVt
        >
        E 0 90 37 64
        E 90 80 37 00
        <X 30 0
          /wV0ZW0t
        >
        E 0 90 40 64
        E 150 80 40 00
        <X 60 0
          /wVwZS0=
        >
        E 0 90 40 64
        E 151 80 40 00
        <X 119 0
          /wVyb3U=
        >
        E 0 90 3e 64
        E 270 80 3e 00
        E 31 90 01 64
        E 30 80 01 00
        <X 29 0
          /wVtby0=
        >
        e 0 90 3c 64
        e 90 80 3c 00
        <X 30 0
          /wVyZS0=
        >
        E 0 90 40 64
        E 90 80 40 00
        <X 30 0
          /wVuYQ==
        >
        E 0 90 40 64
        E 120 80 40 00
        <X 120 0
          /wVxdWVt
        >
        E 0 90 3e 64
        E 180 80 3e 00
        <X 60 0
          /wV0ZW0t
        >
        E 0 90 3e 64
        E 150 80 3e 00
        <X 60 0
          /wVwZS0=
        >
        E 0 90 3c 64
        E 90 80 3c 00
        <X 61 0
          /wVyb3U=
        >
        E 0 90 3c 64
        E 300 80 69 00
        E 0 80 3c 00
        E 0 90 69 64
        <X 94 0
          /wVB
        >
        e 0 90 37 64
        e 90 80 37 00
        <X 25 0
          /wVjb3I=
        >
        E 0 90 3c 64
        E 90 80 3c 00
        <X 31 0
          /wVkZQ==
        >
        E 0 90 3c 64
        E 209 80 3c 00
        <X 30 0
          /wVjYS0=
        >
        E 0 90 3b 64
        E 90 80 3b 00
        <X 30 0
          /wVuZS0=
        >
        E 0 90 3b 64
        E 151 80 3b 00
        <X 89 0
          /wVsYQ==
        >
        E 0 90 39 64
        E 181 80 39 00
        E 30 80 69 00
        <X 1 0
          /wFbaWRsZV9yZWFsdGltZV0=
        >
        E 2879 b0 7b 00
        GUID {A95C971A-B445-4981-9119-D5A382BEEB5C}
        IGNTEMPO 0 120.00000000 4 4
        SRCCOLOR 1
        VELLANE 132 128 60
        COLORMAP "C:\Users\Ruggery\AppData\Roaming\Reaper\Data\color_maps\rockband_vox-other.png"
        CFGEDITVIEW 120314.217726 57.851318 48 12 0 0 0
        CFGEDIT 1 1 0 1 1 1 1 1 1 1 1 0.06250000 -8 0 1360 744 0 0 1 2 0.00000000 0 1 0 0 0.500000 0 0 1.000000 64
        KEYSNAP 0 0 "102034050607" 0 "Major"
        EVTFILTER 0 -1 -1 -1 -1 0 1 0 0 -1.00000000 -1.00000000
      >
    >
  >
  <TRACK '{40837EF8-AA56-4D7E-826B-03C361D4DE18}'
    NAME "HARM2"
    PEAKCOL 16576
    BEAT -1
    AUTOMODE 0
    VOLPAN 1.00000000000000 0.00000000000000 -1.00000000000000 -1.00000000000000 1.00000000000000
    MUTESOLO 0 0 0
    IPHASE 0
    ISBUS 0 0
    BUSCOMP 0 0
    SHOWINMIX 1 0.666700 0.500000 1 0.500000 -1 -1 -1
    FREEMODE 0
    SEL 0
    REC 0 0 0 0 0 0 0
    VU 2
    TRACKHEIGHT 0 0
    INQ 0 0 0 0.5000000000 100 0 0 100
    NCHAN 2
    FX 0
    TRACKID {40837EF8-AA56-4D7E-826B-03C361D4DE18}
    PERF 0
    MIDIOUT -1
    <MIDINOTENAMES
      0 116 "OVERDRIVE"
      0 115 "----"
      0 105 "Phrase Marker"
      0 104 "----"
      0 97 "Non-Displayed Percussion"
      0 96 "Displayed Percussion"
      0 95 "----"
      0 83 "B5"
      0 82 "A#4"
      0 81 "A4"
      0 80 "G#4"
      0 79 "G4"
      0 78 "F#4"
      0 77 "F4"
      0 76 "E4"
      0 75 "D#4"
      0 74 "D4"
      0 73 "C#4"
      0 72 "C4"
      0 71 "B3"
      0 70 "A#3"
      0 69 "A3"
      0 68 "G#3"
      0 67 "G3"
      0 66 "F#3"
      0 65 "F3"
      0 64 "E3"
      0 63 "D#3"
      0 62 "D3"
      0 61 "C#3"
      0 60 "C3"
      0 59 "B2"
      0 58 "A#2"
      0 57 "A2"
      0 56 "G#2"
      0 55 "G2"
      0 54 "F#2"
      0 53 "F2"
      0 52 "E2"
      0 51 "D#2"
      0 50 "D2"
      0 49 "C#2"
      0 48 "C2"
      0 47 "B1"
      0 46 "A#1"
      0 45 "A1"
      0 44 "G#1"
      0 43 "G1"
      0 42 "F#1"
      0 41 "F1"
      0 40 "E1"
      0 39 "D#1"
      0 38 "D!"
      0 37 "C#1"
      0 36 "Lowest Note C1"
      0 2 "---"
      0 1 "Lyric Shift"
      0 0 "Range Shift"
      0 84 "Highest Note C6"
    >
    MAINSEND 1 0
    <FXCHAIN
      WNDRECT 0 42 716 462
      SHOW 0
      LASTSEL 0
      DOCKED 0
      BYPASS 0 0
      <JS "MIDI/midi_note_filter" ""
        36.000000 84.000000 - - - - - - - - - - - - - - - - - - - - - - - - - - - - - - - - - - - - - - - - - - - - - - - - - - - - - - - - - - - - - - 
      >
      FLOATPOS 0 0 0 0
      FXID {FA823465-5CDA-419F-BDB5-76CC1BBD76EF}
      WAK 0
      BYPASS 0 0
      <VST "VSTi: ReaSynth (Cockos)" "reasynth.dll" 0 ""
        eXNlcu9e7f4AAAAAAgAAAAEAAAAAAAAAAgAAAAAAAAA4AAAAAAAAAA==
        AAAQAO++rd4N8K3eppvEOxe30ToAAAAAAAAAAAAAAADOTQA/AAAAAA==
        AACAPwAAAD8AAIA/AAAAAAAAAD8AABAAAAA=
      >
      FLOATPOS 0 0 0 0
      FXID {6108AD24-840D-472B-A3ED-C14C7E86F5D9}
      WAK 0
    >
    <ITEM
      POSITION 0.00000000000000
      SNAPOFFS 0.00000000025906
      LENGTH 145.04278159266019
      LOOP 0
      ALLTAKES 0
      SEL 0
      FADEIN 1 0.000000 0.000000 1 0
      FADEOUT 1 0.000000 0.000000 1 0
      MUTE 0
      IGUID {4C37B0C0-E4AB-4E5E-B866-19096CD6BE7A}
      IID 7
      NAME "HARM2"
      VOLPAN 1.000000 0.000000 1.000000 -1.000000
      SOFFS -0.00000000025906 -0.00000000050999
      PLAYRATE 1.00000000000000 1 0.00000000000000 -1
      CHANMODE 0
      GUID {F1CBB5CA-720A-470A-9F79-C836C956CE29}
      <SOURCE MIDI
        HASDATA 1 480 QN
        POOLEDEVTS {04573408-E8FE-4D74-928E-F719A3D84CA8}
        <X 0 0
          /wNIQVJNMg==
        >
        E 54240 90 69 64
        <X 480 0
          /wXK
        >
        E 0 90 39 64
        E 270 80 39 00
        <X 90 0
          /wVtby0=
        >
        E 0 90 37 64
        E 90 80 37 00
        <X 30 0
          /wVyZS0=
        >
        E 0 90 37 64
        E 90 80 37 00
        <X 30 0
          /wVuYQ==
        >
        E 0 90 37 64
        E 150 80 37 00
        <X 90 0
          /wVxdWVt
        >
        E 0 90 37 64
        E 90 80 37 00
        <X 30 0
          /wV0ZW0t
        >
        E 0 90 40 64
        E 150 80 40 00
        <X 90 0
          /wVwZS0=
        >
        E 0 90 40 64
        E 120 80 40 00
        <X 90 0
          /wVyb3U=
        >
        E 0 90 3e 64
        E 240 80 3e 00
        E 60 80 69 00
        E 0 90 68 64
        E 0 90 69 64
        E 30 80 68 00
        <X 60 0
          /wVjaS0=
        >
        E 0 90 3c 64
        E 90 80 3c 00
        <X 30 0
          /wVnYS0=
        >
        E 0 90 40 64
        E 90 80 40 00
        <X 30 0
          /wVuYQ==
        >
        E 0 90 40 64
        E 120 80 40 00
        <X 120 0
          /wVxdWVt
        >
        E 0 90 3e 64
        E 180 80 3e 00
        <X 60 0
          /wV0ZW0t
        >
        E 0 90 3e 64
        E 150 80 3e 00
        <X 60 0
          /wVwZS0=
        >
        E 0 90 3c 64
        E 90 80 3c 00
        <X 60 0
          /wVyb3U=
        >
        E 0 90 3c 64
        E 300 80 3c 00
        E 30 80 69 00
        E 0 90 69 64
        <X 35 0
          /wVP
        >
        E 0 90 37 64
        E 90 80 37 00
        <X 25 0
          /wVjaGVpLQ==
        >
        E 0 90 3c 64
        E 90 80 3c 00
        <X 30 0
          /wVybw==
        >
        E 0 90 3c 64
        E 210 80 3c 00
        <X 30 0
          /wVkbw==
        >
        E 0 90 3b 64
        E 90 80 3b 00
        <X 30 0
          /wVjcmEt
        >
        E 0 90 3b 64
        E 150 80 3b 00
        <X 90 0
          /wV2bw==
        >
        E 0 90 39 64
        E 960 80 39 00
        E 240 80 69 00
        E 480 90 69 64
        <X 360 0
          /wVDaS0=
        >
        E 0 90 37 64
        E 90 80 37 00
        <X 30 0
          /wVnYS0=
        >
        E 0 90 37 64
        E 89 80 37 00
        <X 30 0
          /wVuYQ==
        >
        E 0 90 37 64
        E 150 80 37 00
        <X 90 0
          /wVxdWVt
        >
        E 0 90 37 64
        E 90 80 37 00
        <X 30 0
          /wV0ZW0t
        >
        E 0 90 40 64
        E 181 80 40 00
        <X 59 0
          /wVwZS0=
        >
        E 0 90 40 64
        E 181 80 40 00
        <X 59 0
          /wVyb3U=
        >
        E 0 90 3e 64
        E 270 80 3e 00
        E 31 80 69 00
        E 0 90 68 64
        E 0 90 69 64
        E 30 80 68 00
        <X 29 0
          /wVtby0=
        >
        E 0 90 3c 64
        E 90 80 3c 00
        <X 30 0
          /wVyZS0=
        >
        E 0 90 40 64
        E 90 80 40 00
        <X 30 0
          /wVuYQ==
        >
        E 0 90 40 64
        E 120 80 40 00
        <X 120 0
          /wVxdWVt
        >
        E 0 90 3e 64
        E 180 80 3e 00
        <X 60 0
          /wV0ZW0t
        >
        E 0 90 3e 64
        E 150 80 3e 00
        <X 90 0
          /wVwZS0=
        >
        E 0 90 3c 64
        E 90 80 3c 00
        <X 31 0
          /wVyb3U=
        >
        E 0 90 3c 64
        E 300 80 3c 00
        E 30 80 69 00
        E 0 90 69 64
        <X 64 0
          /wVB
        >
        E 0 90 37 64
        E 90 80 37 00
        <X 25 0
          /wVjb3I=
        >
        E 0 90 3c 64
        E 90 80 3c 00
        <X 31 0
          /wVkZQ==
        >
        E 0 90 3c 64
        E 209 80 3c 00
        <X 30 0
          /wVjYS0=
        >
        E 0 90 3b 64
        E 90 80 3b 00
        <X 30 0
          /wVuZS0=
        >
        E 0 90 3b 64
        E 151 80 3b 00
        <X 89 0
          /wVsYQ==
        >
        E 0 90 39 64
        E 691 80 39 00
        E 960 80 69 00
        E 11280 90 69 64
        <X 270 0
          /wVBaD0=
        >
        E 0 90 48 64
        E 150 80 48 00
        <X 90 0
          /wUr
        >
        E 0 90 47 64
        E 30 80 47 00
        <X 90 0
          /wVyYT0=
        >
        E 0 90 47 64
        E 180 80 47 00
        <X 60 0
          /wVyYT0=
        >
        E 0 90 47 64
        E 180 80 47 00
        <X 60 0
          /wVyYT0=
        >
        E 0 90 47 64
        E 90 80 47 00
        <X 30 0
          /wVyYT0=
        >
        E 0 90 47 64
        E 180 80 47 00
        <X 60 0
          /wVyYQ==
        >
        E 0 90 45 64
        E 180 80 69 00
        E 0 80 45 00
        E 0 90 69 64
        <X 60 0
          /wVBPQ==
        >
        E 0 90 47 64
        E 30 80 47 00
        <X 30 0
          /wUr
        >
        E 0 90 48 64
        E 120 80 48 00
        <X 60 0
          /wUr
        >
        E 0 90 47 64
        E 30 80 47 00
        <X 90 0
          /wVyYT0=
        >
        E 0 90 47 64
        E 150 80 47 00
        <X 90 0
          /wVyYT0=
        >
        E 0 90 47 64
        E 180 80 47 00
        <X 60 0
          /wVyYT0=
        >
        E 0 90 45 64
        E 60 80 45 00
        <X 60 0
          /wVyYQ==
        >
        E 0 90 45 64
        E 150 80 45 00
        E 90 80 69 00
        E 0 90 69 64
        <X 210 0
          /wVBaD0=
        >
        E 0 90 48 64
        E 150 80 48 00
        <X 90 0
          /wUr
        >
        E 0 90 47 64
        E 30 80 47 00
        <X 90 0
          /wVyYT0=
        >
        E 0 90 47 64
        E 180 80 47 00
        <X 60 0
          /wVyYT0=
        >
        E 0 90 47 64
        E 180 80 47 00
        <X 60 0
          /wVyYT0=
        >
        E 0 90 47 64
        E 90 80 47 00
        <X 30 0
          /wVyYT0=
        >
        E 0 90 47 64
        E 180 80 47 00
        <X 60 0
          /wVyYQ==
        >
        E 0 90 45 64
        E 180 80 69 00
        E 0 80 45 00
        E 0 90 69 64
        <X 60 0
          /wVBPQ==
        >
        E 0 90 47 64
        E 30 80 47 00
        <X 30 0
          /wUr
        >
        E 0 90 48 64
        E 120 80 48 00
        <X 60 0
          /wUr
        >
        E 0 90 47 64
        E 30 80 47 00
        <X 90 0
          /wVyYT0=
        >
        E 0 90 47 64
        E 150 80 47 00
        <X 90 0
          /wVyYT0=
        >
        E 0 90 47 64
        E 180 80 47 00
        <X 60 0
          /wVyYT0=
        >
        E 0 90 45 64
        E 60 80 45 00
        <X 60 0
          /wVyYQ==
        >
        E 0 90 45 64
        E 150 80 45 00
        E 330 80 69 00
        E 11040 90 69 64
        <X 480 0
          /wXK
        >
        E 0 90 39 64
        E 270 80 69 00
        E 0 80 39 00
        E 0 90 69 64
        <X 90 0
          /wVtby0=
        >
        E 0 90 37 64
        E 90 80 37 00
        <X 30 0
          /wVyZS0=
        >
        E 0 90 37 64
        E 90 80 37 00
        <X 30 0
          /wVuYQ==
        >
        E 0 90 37 64
        E 150 80 37 00
        <X 90 0
          /wVxdWVt
        >
        E 0 90 37 64
        E 90 80 37 00
        <X 30 0
          /wV0ZW0t
        >
        E 0 90 40 64
        E 180 80 40 00
        <X 30 0
          /wVwZS0=
        >
        E 0 90 40 64
        E 180 80 40 00
        <X 60 0
          /wVyb3U=
        >
        E 0 90 3e 64
        E 270 80 3e 00
        E 60 80 69 00
        E 0 90 69 64
        <X 60 0
          /wVjaS0=
        >
        E 0 90 3c 64
        E 90 80 3c 00
        <X 30 0
          /wVnYS0=
        >
        E 0 90 40 64
        E 90 80 40 00
        <X 30 0
          /wVuYQ==
        >
        E 0 90 40 64
        E 120 80 40 00
        <X 120 0
          /wVxdWVt
        >
        E 0 90 3e 64
        E 180 80 3e 00
        <X 60 0
          /wV0ZW0t
        >
        E 0 90 3e 64
        E 150 80 3e 00
        <X 60 0
          /wVwZS0=
        >
        E 0 90 3c 64
        E 90 80 3c 00
        <X 60 0
          /wVyb3U=
        >
        E 0 90 3c 64
        E 300 80 69 00
        E 0 80 3c 00
        E 0 90 69 64
        <X 65 0
          /wVP
        >
        E 0 90 37 64
        E 90 80 37 00
        <X 25 0
          /wVjaGVpLQ==
        >
        E 0 90 3c 64
        E 90 80 3c 00
        <X 30 0
          /wVybw==
        >
        E 0 90 3c 64
        E 210 80 3c 00
        <X 30 0
          /wVkbw==
        >
        E 0 90 3b 64
        E 90 80 3b 00
        <X 30 0
          /wVjcmEt
        >
        E 0 90 3b 64
        E 150 80 3b 00
        <X 90 0
          /wV2bw==
        >
        E 0 90 39 64
        E 960 80 39 00
        E 240 80 69 00
        E 480 90 69 64
        <X 360 0
          /wVDaS0=
        >
        E 0 90 37 64
        E 90 80 37 00
        <X 30 0
          /wVnYS0=
        >
        E 0 90 37 64
        E 89 80 37 00
        <X 30 0
          /wVuYQ==
        >
        E 0 90 37 64
        E 150 80 37 00
        <X 90 0
          /wVxdWVt
        >
        E 0 90 37 64
        E 90 80 37 00
        <X 30 0
          /wV0ZW0t
        >
        E 0 90 40 64
        E 150 80 40 00
        <X 60 0
          /wVwZS0=
        >
        E 0 90 40 64
        E 151 80 40 00
        <X 119 0
          /wVyb3U=
        >
        E 0 90 3e 64
        E 270 80 3e 00
        E 31 80 69 00
        E 0 90 69 64
        <X 59 0
          /wVtby0=
        >
        E 0 90 3c 64
        E 90 80 3c 00
        <X 30 0
          /wVyZS0=
        >
        E 0 90 40 64
        E 90 80 40 00
        <X 30 0
          /wVuYQ==
        >
        E 0 90 40 64
        E 120 80 40 00
        <X 120 0
          /wVxdWVt
        >
        E 0 90 3e 64
        E 180 80 3e 00
        <X 60 0
          /wV0ZW0t
        >
        E 0 90 3e 64
        E 150 80 3e 00
        <X 60 0
          /wVwZS0=
        >
        E 0 90 3c 64
        E 90 80 3c 00
        <X 61 0
          /wVyb3U=
        >
        E 0 90 3c 64
        E 300 80 3c 00
        E 60 80 69 00
        E 0 90 69 64
        <X 34 0
          /wVB
        >
        E 0 90 37 64
        E 90 80 37 00
        <X 25 0
          /wVjb3I=
        >
        E 0 90 3c 64
        E 90 80 3c 00
        <X 31 0
          /wVkZQ==
        >
        E 0 90 3c 64
        E 209 80 3c 00
        <X 30 0
          /wVjYS0=
        >
        E 0 90 3b 64
        E 90 80 3b 00
        <X 30 0
          /wVuZS0=
        >
        E 0 90 3b 64
        E 151 80 3b 00
        <X 89 0
          /wVsYQ==
        >
        E 0 90 39 64
        E 181 80 39 00
        E 30 80 69 00
        E 5760 90 69 64
        <X 360 0
          /wVDaS0=
        >
        E 0 90 37 64
        E 90 80 37 00
        <X 30 0
          /wVnYS0=
        >
        E 0 90 37 64
        E 89 80 37 00
        <X 30 0
          /wVuYQ==
        >
        E 0 90 37 64
        E 150 80 37 00
        <X 90 0
          /wVxdWVt
        >
        E 0 90 37 64
        E 90 80 37 00
        <X 30 0
          /wV0ZW0t
        >
        E 0 90 40 64
        E 150 80 40 00
        <X 60 0
          /wVwZS0=
        >
        E 0 90 40 64
        E 151 80 40 00
        <X 119 0
          /wVyb3U=
        >
        E 0 90 3e 64
        E 270 80 3e 00
        E 31 80 69 00
        E 0 90 69 64
        <X 59 0
          /wVtby0=
        >
        E 0 90 3c 64
        E 90 80 3c 00
        <X 30 0
          /wVyZS0=
        >
        E 0 90 40 64
        E 90 80 40 00
        <X 30 0
          /wVuYQ==
        >
        E 0 90 40 64
        E 120 80 40 00
        <X 120 0
          /wVxdWVt
        >
        E 0 90 3e 64
        E 180 80 3e 00
        <X 60 0
          /wV0ZW0t
        >
        E 0 90 3e 64
        E 150 80 3e 00
        <X 60 0
          /wVwZQ==
        >
        E 0 90 3c 64
        E 90 80 3c 00
        <X 61 0
          /wVyb3U=
        >
        E 0 90 3c 64
        E 300 80 69 00
        E 0 80 3c 00
        E 0 90 69 64
        <X 94 0
          /wVB
        >
        E 0 90 37 64
        E 90 80 37 00
        <X 25 0
          /wVjb3I=
        >
        E 0 90 3c 64
        E 90 80 3c 00
        <X 31 0
          /wVkZQ==
        >
        E 0 90 3c 64
        E 209 80 3c 00
        <X 30 0
          /wVjYS0=
        >
        E 0 90 3b 64
        E 90 80 3b 00
        <X 30 0
          /wVuZS0=
        >
        E 0 90 3b 64
        E 151 80 3b 00
        <X 89 0
          /wVsYQ==
        >
        E 0 90 39 64
        E 181 80 39 00
        E 30 80 69 00
        E 5520 90 69 64
        <X 240 0
          /wXK
        >
        E 0 90 39 64
        E 270 80 39 00
        <X 90 0
          /wVjaS0=
        >
        E 0 90 37 64
        E 90 80 37 00
        <X 30 0
          /wVnYS0=
        >
        E 0 90 37 64
        E 89 80 37 00
        <X 30 0
          /wVuYQ==
        >
        E 0 90 37 64
        E 150 80 37 00
        <X 90 0
          /wVxdWVt
        >
        E 0 90 37 64
        E 90 80 37 00
        <X 30 0
          /wV0ZW0t
        >
        E 0 90 40 64
        E 150 80 40 00
        <X 60 0
          /wVwZS0=
        >
        E 0 90 40 64
        E 151 80 40 00
        <X 119 0
          /wVyb3U=
        >
        E 0 90 3e 64
        E 270 80 3e 00
        E 31 80 69 00
        E 0 90 69 64
        <X 59 0
          /wVtby0=
        >
        E 0 90 3c 64
        E 90 80 3c 00
        <X 30 0
          /wVyZS0=
        >
        E 0 90 40 64
        E 90 80 40 00
        <X 30 0
          /wVuYQ==
        >
        E 0 90 40 64
        E 120 80 40 00
        <X 120 0
          /wVxdWVt
        >
        E 0 90 3e 64
        E 180 80 3e 00
        <X 60 0
          /wV0ZW0t
        >
        E 0 90 3e 64
        E 150 80 3e 00
        <X 60 0
          /wVwZS0=
        >
        E 0 90 3c 64
        E 90 80 3c 00
        <X 61 0
          /wVyb3U=
        >
        E 0 90 3c 64
        E 300 80 69 00
        E 0 80 3c 00
        E 0 90 69 64
        <X 94 0
          /wVB
        >
        E 0 90 37 64
        E 90 80 37 00
        <X 25 0
          /wVjb3I=
        >
        E 0 90 3c 64
        E 90 80 3c 00
        <X 31 0
          /wVkZQ==
        >
        E 0 90 3c 64
        E 209 80 3c 00
        <X 30 0
          /wVjYS0=
        >
        E 0 90 3b 64
        E 90 80 3b 00
        <X 30 0
          /wVuZS0=
        >
        E 0 90 3b 64
        E 151 80 3b 00
        <X 89 0
          /wVsYQ==
        >
        E 0 90 39 64
        E 181 80 39 00
        E 30 80 69 00
        E 5760 90 69 64
        <X 360 0
          /wVDaS0=
        >
        E 0 90 37 64
        E 90 80 37 00
        <X 30 0
          /wVnYS0=
        >
        E 0 90 37 64
        E 89 80 37 00
        <X 30 0
          /wVuYQ==
        >
        E 0 90 37 64
        E 150 80 37 00
        <X 90 0
          /wVxdWVt
        >
        E 0 90 37 64
        E 90 80 37 00
        <X 30 0
          /wV0ZW0t
        >
        E 0 90 40 64
        E 150 80 40 00
        <X 60 0
          /wVwZS0=
        >
        E 0 90 40 64
        E 151 80 40 00
        <X 119 0
          /wVyb3U=
        >
        E 0 90 3e 64
        E 270 80 3e 00
        E 31 80 69 00
        E 0 90 69 64
        <X 59 0
          /wVtby0=
        >
        E 0 90 3c 64
        E 90 80 3c 00
        <X 30 0
          /wVyZS0=
        >
        E 0 90 40 64
        E 90 80 40 00
        <X 30 0
          /wVuYQ==
        >
        E 0 90 40 64
        E 120 80 40 00
        <X 120 0
          /wVxdWVt
        >
        E 0 90 3e 64
        E 180 80 3e 00
        <X 60 0
          /wV0ZW0t
        >
        E 0 90 3e 64
        E 150 80 3e 00
        <X 60 0
          /wVwZQ==
        >
        E 0 90 3c 64
        E 90 80 3c 00
        <X 61 0
          /wVyb3U=
        >
        E 0 90 3c 64
        E 300 80 69 00
        E 0 80 3c 00
        E 0 90 69 64
        <X 94 0
          /wVB
        >
        E 0 90 37 64
        E 90 80 37 00
        <X 25 0
          /wVjb3I=
        >
        E 0 90 3c 64
        E 90 80 3c 00
        <X 31 0
          /wVkZQ==
        >
        E 0 90 3c 64
        E 209 80 3c 00
        <X 30 0
          /wVjYS0=
        >
        E 0 90 3b 64
        E 90 80 3b 00
        <X 30 0
          /wVuZS0=
        >
        E 0 90 3b 64
        E 151 80 3b 00
        <X 89 0
          /wVsYQ==
        >
        E 0 90 39 64
        E 181 80 39 00
        E 30 80 69 00
        E 2880 b0 7b 00
        GUID {A95C971A-B445-4981-9119-D5A382BEEB5C}
        IGNTEMPO 0 120.00000000 4 4
        SRCCOLOR 1
        VELLANE 132 128 60
        COLORMAP "C:\Users\Ruggery\AppData\Roaming\Reaper\Data\color_maps\rockband_vox-other.png"
        CFGEDITVIEW -6984.000144 7.439166 46 12 0 0 0
        CFGEDIT 1 1 0 1 1 1 1 1 1 1 1 0.06250000 -8 0 1360 744 0 0 1 2 0.00000000 0 1 0 0 0.500000 0 0 1.000000 64
        KEYSNAP 0 0 "102034050607" 0 "Major"
        EVTFILTER 0 -1 -1 -1 -1 0 1 0 0 -1.00000000 -1.00000000
      >
    >
  >
  <TRACK '{79BA0445-54BB-4C48-A525-9105CB401DC1}'
    NAME "PART KEYS"
    PEAKCOL 16576
    BEAT -1
    AUTOMODE 0
    VOLPAN 1.00000000000000 0.00000000000000 -1.00000000000000 -1.00000000000000 1.00000000000000
    MUTESOLO 0 0 0
    IPHASE 0
    ISBUS 0 0
    BUSCOMP 0 0
    SHOWINMIX 1 0.666700 0.500000 1 0.500000 -1 -1 -1
    FREEMODE 0
    SEL 0
    REC 0 0 0 0 0 0 0
    VU 2
    TRACKHEIGHT 0 0
    INQ 0 0 0 0.5000000000 100 0 0 100
    NCHAN 2
    FX 0
    TRACKID {79BA0445-54BB-4C48-A525-9105CB401DC1}
    PERF 0
    MIDIOUT -1
    <MIDINOTENAMES
      0 127 "TRILL MARKER"
      0 126 "TREMOLO MARKER"
      0 125 "---"
      0 124 "BRE"
      0 123 "BRE"
      0 122 "BRE"
      0 121 "BRE"
      0 120 "BRE (use all 5)"
      0 119 "----"
      0 116 "OVERDRIVE"
      0 115 "----"
      0 103 "Solo Marker"
      0 102 "Force HOPO Off"
      0 101 "Force HOPO On"
      0 100 "EXPERT Orange"
      0 99 "EXPERT Blue"
      0 98 "EXPERT Yellow"
      0 97 "EXPERT Red"
      0 96 "EXPERT Green"
      0 95 "----"
      0 90 "Force HOPO Off"
      0 89 "Force HOPO On"
      0 88 "HARD Orange"
      0 87 "HARD Blue"
      0 86 "HARD Yellow"
      0 85 "HARD Red"
      0 84 "HARD Green"
      0 77 "----"
      0 76 "MEDIUM Orange"
      0 75 "MEDIUM Blue"
      0 74 "MEDIUM Yellow"
      0 73 "MEDIUM Red"
      0 72 "MEDIUM Green"
      0 65 "----"
      0 64 "EASY Orange"
      0 63 "EASY Blue"
      0 62 "EASY Yellow"
      0 61 "EASY Red"
      0 60 "EASY Green"
      0 59 "Left Hand Highest"
      0 58 "-"
      0 57 "-"
      0 56 "-"
      0 55 "-"
      0 54 "-"
      0 53 "-"
      0 52 "-"
      0 51 "-"
      0 50 "-"
      0 49 "-"
      0 48 "-"
      0 47 "-"
      0 46 "-"
      0 45 "-"
      0 44 "-"
      0 43 "-"
      0 42 "-"
      0 41 "-"
      0 40 "Left Hand Lowest"
    >
    MAINSEND 1 0
    <FXCHAIN
      WNDRECT 0 42 878 559
      SHOW 0
      LASTSEL 2
      DOCKED 0
      BYPASS 0 0
      <JS "MIDI/midi_note_filter" ""
        96.000000 100.000000 - - - - - - - - - - - - - - - - - - - - - - - - - - - - - - - - - - - - - - - - - - - - - - - - - - - - - - - - - - - - - - 
      >
      FLOATPOS 0 0 0 0
      FXID {F66D7B89-3D06-48D6-BDBF-2F5E11BC6C3E}
      WAK 0
      BYPASS 1 0
      <VST "VSTi: ReaSynth (Cockos)" "reasynth.dll" 0 ""
        eXNlcu9e7f4AAAAAAgAAAAEAAAAAAAAAAgAAAAAAAAA4AAAAAAAAAA==
        AAAQAO++rd4N8K3eppvEOxe30ToAAAAAAAAAAAAAAADOTQA/OsauOQ==
        AAAAAAAAAAAAAAAAAAAAAAAAAAAAABAAAAA=
      >
      FLOATPOS 0 0 0 0
      FXID {81105EFD-CAF0-4CEE-93BC-387F2B7F5A16}
      WAK 0
      BYPASS 0 0
      <VST "VSTi: RBN Preview (RBN)" "rbprev_vst64.dll" 0 ""
        dnBicu5e7f4AAAAAAgAAAAEAAAAAAAAAAgAAAAAAAAAEAAAAAQAAAA==
        AAAQAAMAqgAAABAAAAA=
      >
      FLOATPOS 0 0 0 0
      FXID {DAFD5F0A-EB7A-4FF4-AA1D-13DC10760F11}
      WAK 0
    >
    <ITEM
      POSITION 0.00000000000000
      SNAPOFFS 0.00000000000000
      LENGTH 145.04278159266019
      LOOP 0
      ALLTAKES 0
      SEL 0
      FADEIN 1 0.000000 0.000000 1 0
      FADEOUT 1 0.000000 0.000000 1 0
      MUTE 0
      IGUID {CCF930F9-0E58-4709-BEDB-E0D6A4195493}
      IID 24
      NAME "PART KEYS"
      VOLPAN 1.000000 0.000000 1.000000 -1.000000
      SOFFS 0.00000000000000 0.00000000000000
      PLAYRATE 1.00000000000000 1 0.00000000000000 -1
      CHANMODE 0
      GUID {DD700FBF-5A7A-4A8A-93FD-E55AAD6A546C}
      <SOURCE MIDI
        HASDATA 1 480 QN
        POOLEDEVTS {A585D652-3BF6-4A29-8C33-4B8953E34A52}
        <X 0 0
          /wNQQVJUIEtFWVM=
        >
        <X 2880 0
          /wFbaWRsZV0=
        >
        <X 5760 0
          /wFbcGxheV0=
        >
        E 0 90 3d 60
        E 0 90 49 60
        E 0 90 56 60
        E 0 90 62 60
        E 0 90 67 60
        E 0 90 74 60
        E 120 80 3d 00
        E 0 80 49 00
        E 0 80 56 00
        E 0 80 62 00
        E 240 90 55 60
        E 0 90 61 60
        E 120 80 55 00 -60
        E 0 80 61 00 -60
        E 120 90 48 60
        E 0 90 55 60
        E 0 90 61 60
        E 120 80 48 00 -60
        E 0 80 55 00 -60
        E 0 80 61 00 -60
        E 120 90 61 60
        E 120 80 61 00 -60
        E 0 90 3e 60
        E 0 90 4b 60
        E 0 90 58 60
        E 0 90 64 60
        E 120 80 3e 00
        E 0 80 4b 00
        E 0 80 58 00
        E 0 80 64 00 -60
        E 120 90 58 60
        E 0 90 64 60
        E 120 80 58 00 -60
        E 0 80 64 00 -60
        E 120 90 3d 60
        E 0 90 4a 60
        E 0 90 57 60
        E 0 90 63 60
        E 120 80 3d 00
        E 0 80 4a 00
        E 0 80 57 00
        E 0 80 63 00
        E 240 90 63 60
        E 120 80 63 00 -60
        E 0 90 4b 60
        E 0 90 58 60
        E 0 90 64 60
        E 120 80 4b 00 -60
        E 0 80 58 00 -60
        E 0 80 64 00 -60
        E 0 90 64 60
        E 120 80 64 00 -60
        E 120 90 64 60
        E 120 80 64 00 -60
        E 0 90 3d 60
        E 0 90 4a 60
        E 0 90 57 60
        E 0 90 63 60
        E 120 80 74 00
        E 0 80 3d 00
        E 0 80 4a 00
        E 0 80 57 00
        E 0 80 63 00 -60
        E 120 90 57 60
        E 0 90 63 60
        E 120 80 57 00 -60
        E 0 80 63 00 -60
        E 120 90 3c 60
        E 0 90 49 60
        E 0 90 56 60
        E 0 90 62 60
        E 120 80 3c 00
        E 0 80 49 00
        E 0 80 56 00
        E 0 80 62 00
        E 240 90 62 60
        E 120 80 62 00
        E 0 90 4a 60
        E 0 90 57 60
        E 0 90 63 60
        E 120 80 4a 00 -60
        E 0 80 57 00 -60
        E 0 80 63 00 -60
        E 0 90 63 60
        E 120 80 63 00 -60
        E 120 90 63 60
        E 120 80 63 00 -60
        E 0 90 3e 60
        E 0 90 49 60
        E 0 90 56 60
        E 0 90 62 60
        E 120 80 3e 00
        E 0 80 49 00
        E 0 80 56 00
        E 0 80 62 00 -60
        E 120 90 55 60
        E 0 90 61 60
        E 120 80 55 00 -60
        E 0 80 61 00 -60
        E 120 90 3c 60
        E 0 90 48 60
        E 0 90 55 60
        E 0 90 61 60
        E 120 80 3c 00
        E 600 80 48 00
        E 240 80 55 00
        E 0 80 61 00
        E 480 90 3d 60
        E 0 90 49 60
        E 0 90 55 60
        E 0 90 62 60
        E 120 80 3d 00
        E 0 80 49 00
        E 0 80 55 00
        E 0 80 62 00 -60
        E 0 90 61 60
        E 120 80 61 00 -60
        E 120 90 61 60
        E 120 80 61 00 -60
        E 0 90 55 60
        E 0 90 61 60
        E 120 80 55 00 -60
        E 0 80 61 00 -60
        E 0 90 48 60
        E 0 90 61 60
        E 120 80 48 00
        E 0 80 61 00 -60
        E 120 90 61 60
        E 120 80 61 00 -60
        E 0 90 3e 60
        E 0 90 4b 60
        E 0 90 58 60
        E 0 90 64 60
        E 120 80 3e 00
        E 0 80 4b 00
        E 0 80 58 00
        E 0 80 64 00 -60
        E 120 90 58 60
        E 0 90 64 60
        E 120 80 58 00
        E 0 80 64 00
        E 120 90 3d 60
        E 0 90 4a 60
        E 0 90 57 60
        E 0 90 63 60
        E 120 80 3d 00
        E 0 80 4a 00
        E 0 80 57 00
        E 120 80 63 00
        E 120 90 63 60
        E 120 80 63 00 -60
        E 0 90 4b 60
        E 0 90 58 60
        E 0 90 64 60
        E 120 80 4b 00
        E 0 80 58 00 -60
        E 0 80 64 00 -60
        E 0 90 64 60
        E 120 80 64 00 -60
        E 120 90 64 60
        E 120 80 64 00 -60
        E 0 90 3d 60
        E 0 90 4a 60
        E 0 90 57 60
        E 0 90 63 60
        E 120 80 3d 00
        E 0 80 4a 00
        E 0 80 57 00
        E 0 80 63 00 -60
        E 120 90 57 60
        E 0 90 63 60
        E 120 80 57 00 -60
        E 0 80 63 00 -60
        E 120 90 3c 60
        E 0 90 49 60
        E 0 90 56 60
        E 0 90 62 60
        E 120 80 3c 00
        E 0 80 49 00
        E 0 80 56 00
        E 120 80 62 00
        E 120 90 62 60
        E 0 90 74 60
        E 120 80 62 00 -60
        E 0 90 4a 60
        E 0 90 57 60
        E 0 90 63 60
        E 120 80 4a 00
        E 0 80 57 00 -60
        E 0 80 63 00 -60
        E 0 90 63 60
        E 120 80 63 00 -60
        E 120 90 63 60
        E 120 80 63 00 -60
        E 0 90 3e 60
        E 0 90 49 60
        E 0 90 56 60
        E 0 90 62 60
        E 120 80 3e 00
        E 0 80 49 00
        E 0 80 56 00 -60
        E 0 80 62 00 -60
        E 0 90 60 60
        E 120 80 60 00 -60
        E 0 90 55 60
        E 0 90 61 60
        E 120 80 55 00 -60
        E 0 80 61 00 -60
        E 120 90 3c 60
        E 0 90 48 60
        E 0 90 55 60
        E 0 90 61 60
        E 120 80 3c 00
        E 600 80 74 00
        E 0 80 48 00
        E 0 80 55 00
        E 0 80 61 00
        E 1080 90 60 60
        E 120 80 60 00 -60
        E 0 90 3c 60
        E 0 90 48 60
        E 0 90 55 60
        E 0 90 61 60
        E 120 80 3c 00 -60
        E 0 80 48 00 -60
        E 0 80 55 00 -60
        E 0 80 61 00 -60
        E 0 90 55 60
        E 0 90 61 60
        E 120 80 55 00
        E 0 80 61 00 -60
        E 120 90 60 60
        E 120 80 60 00 -60
        E 0 90 3c 60
        E 0 90 48 60
        E 0 90 55 60
        E 0 90 61 60
        E 120 80 3c 00
        E 0 80 48 00 -60
        E 0 80 55 00 -60
        E 0 80 61 00 -60
        E 0 90 55 60
        E 0 90 61 60
        E 120 80 55 00
        E 0 80 61 00 -60
        E 120 90 60 60
        E 120 80 60 00 -60
        E 0 90 3e 60
        E 0 90 4b 60
        E 0 90 56 60
        E 0 90 62 60
        E 120 80 3e 00
        E 0 80 4b 00 -60
        E 0 80 56 00 -60
        E 0 80 62 00 -60
        E 0 90 56 60
        E 0 90 62 60
        E 120 80 56 00
        E 0 80 62 00 -60
        E 120 90 60 60
        E 120 80 60 00 -60
        E 0 90 4a 60
        E 0 90 55 60
        E 0 90 61 60
        E 120 80 4a 00
        E 0 80 55 00
        E 0 80 61 00
        E 240 90 60 60
        E 120 80 60 00 -60
        E 0 90 3e 60
        E 0 90 4b 60
        E 0 90 56 60
        E 0 90 62 60
        E 120 80 3e 00
        E 0 80 4b 00 -60
        E 0 80 56 00 -60
        E 0 80 62 00 -60
        E 0 90 56 60
        E 0 90 62 60
        E 120 80 56 00
        E 0 80 62 00 -60
        E 120 90 60 60
        E 120 80 60 00 -60
        E 0 90 3d 60
        E 0 90 4a 60
        E 0 90 55 60
        E 0 90 61 60
        E 120 80 3d 00
        E 0 80 4a 00
        E 0 80 55 00
        E 0 80 61 00
        E 240 90 60 60
        E 120 80 60 00 -60
        E 0 90 3c 60
        E 0 90 48 60
        E 0 90 54 60
        E 0 90 60 60
        E 120 80 3c 00
        E 0 80 48 00 -60
        E 0 80 54 00 -60
        E 0 80 60 00 -60
        E 200 90 61 60
        E 120 80 61 00
        E 40 90 49 60
        E 0 90 56 60
        E 0 90 62 60
        E 0 90 65 60
        E 120 80 49 00 -60
        E 0 80 56 00 -60
        E 0 80 62 00 -60
        E 0 80 65 00
        E 120 90 3d 60
        E 0 90 49 60
        E 0 90 56 60
        E 0 90 62 60
        E 480 80 3d 00
        E 0 80 49 00
        E 0 80 56 00
        E 0 80 62 00
        E 1560 90 60 60
        E 120 80 60 00 -60
        E 0 90 3c 60
        E 0 90 48 60
        E 0 90 55 60
        E 0 90 61 60
        E 120 80 3c 00
        E 0 80 48 00
        E 0 80 55 00
        E 0 80 61 00 -60
        E 0 90 55 60
        E 0 90 61 60
        E 120 80 55 00
        E 0 80 61 00 -60
        E 120 90 60 60
        E 120 80 60 00 -60
        E 0 90 3c 60
        E 0 90 48 60
        E 0 90 55 60
        E 0 90 61 60
        E 120 80 3c 00
        E 0 80 48 00
        E 0 80 55 00
        E 0 80 61 00 -60
        E 0 90 55 60
        E 0 90 61 60
        E 120 80 55 00
        E 0 80 61 00 -60
        E 120 90 60 60
        E 120 80 60 00 -60
        E 0 90 3e 60
        E 0 90 4b 60
        E 0 90 56 60
        E 0 90 62 60
        E 120 80 3e 00
        E 0 80 4b 00
        E 0 80 56 00
        E 0 80 62 00 -60
        E 0 90 56 60
        E 0 90 62 60
        E 120 80 56 00
        E 0 80 62 00 -60
        E 120 90 60 60
        E 120 80 60 00 -60
        E 0 90 4a 60
        E 0 90 55 60
        E 0 90 61 60
        E 120 80 4a 00
        E 0 80 55 00
        E 0 80 61 00
        E 240 90 60 60
        E 120 80 60 00 -60
        E 0 90 3e 60
        E 0 90 4b 60
        E 0 90 56 60
        E 0 90 62 60
        E 120 80 3e 00
        E 0 80 4b 00
        E 0 80 56 00
        E 0 80 62 00 -60
        E 0 90 56 60
        E 0 90 62 60
        E 120 80 56 00
        E 0 80 62 00 -60
        E 120 90 60 60
        E 120 80 60 00 -60
        E 0 90 3d 60
        E 0 90 4a 60
        E 0 90 55 60
        E 0 90 61 60
        E 120 80 3d 00
        E 0 80 4a 00
        E 0 80 55 00
        E 0 80 61 00
        E 240 90 61 60
        E 120 80 61 00
        E 0 90 3c 60
        E 0 90 48 60
        E 0 90 54 60
        E 0 90 60 60
        E 120 80 3c 00
        E 0 80 48 00
        E 0 80 54 00
        E 0 80 60 00
        E 200 90 61 60
        E 120 80 61 00
        E 40 90 49 60
        E 0 90 56 60
        E 0 90 62 60 59
        E 0 90 65 60
        E 120 80 49 00
        E 0 80 56 00
        E 0 80 62 00 -1
        E 0 80 65 00
        E 120 90 3d 60
        E 0 90 49 60
        E 0 90 56 60
        E 0 90 62 60 -1
        E 480 80 3d 00
        E 0 80 49 00
        E 0 80 56 00
        E 0 80 62 00 -1
        <X 240 0
          /wFbaWRsZV0=
        >
        E 0 80 67 00
        <X 960 0
          /wFbaWRsZV9pbnRlbnNlXQ==
        >
        <X 11520 0
          /wFbcGxheV0=
        >
        E 0 90 74 60
        E 360 90 55 60
        E 0 90 61 60
        E 60 90 63 60
        E 60 90 3d 60
        E 0 90 49 60
        E 0 90 58 60
        E 0 90 64 60
        E 960 80 55 00
        E 0 80 61 00
        E 0 80 63 00
        E 0 80 3d 00
        E 0 80 49 00
        E 0 80 58 00
        E 0 80 64 00
        E 360 90 55 60
        E 0 90 60 60
        E 60 90 61 60
        E 60 90 3f 60
        E 0 90 4b 60
        E 0 90 57 60
        E 0 90 64 60
        E 960 80 74 00
        E 0 80 55 00
        E 0 80 60 00
        E 0 80 61 00
        E 0 80 3f 00
        E 0 80 4b 00
        E 0 80 57 00
        E 0 80 64 00
        E 360 90 56 60
        E 0 90 60 60
        E 60 90 62 60
        E 60 90 3e 60
        E 0 90 4a 60
        E 0 90 57 60
        E 0 90 63 60
        E 960 80 56 00
        E 0 80 60 00
        E 0 80 62 00
        E 0 80 3e 00
        E 0 80 4a 00
        E 0 80 57 00
        E 0 80 63 00
        E 360 90 62 60
        E 60 90 63 60
        E 60 90 40 60
        E 0 90 4c 60
        E 0 90 58 60
        E 0 90 64 60
        E 960 80 62 00
        E 0 80 63 00
        E 0 80 40 00
        E 0 80 4c 00
        E 0 80 58 00
        E 0 80 64 00
        E 360 90 61 60
        E 60 90 63 60
        E 60 90 3d 60
        E 0 90 49 60
        E 0 90 58 60
        E 0 90 64 60
        E 960 80 61 00
        E 0 80 63 00
        E 0 80 3d 00
        E 0 80 49 00
        E 0 80 58 00
        E 0 80 64 00
        E 360 90 60 60
        E 60 90 61 60
        E 60 90 3f 60
        E 0 90 4b 60
        E 0 90 58 60
        E 0 90 64 60
        E 960 80 60 00
        E 0 80 61 00
        E 0 80 3f 00
        E 0 80 4b 00
        E 0 80 58 00
        E 0 80 64 00
        E 360 90 60 60
        E 60 90 62 60
        E 60 90 3e 60
        E 0 90 4a 60
        E 0 90 57 60
        E 0 90 63 60
        E 960 80 60 00
        E 0 80 62 00
        E 0 80 3e 00
        E 0 80 4a 00
        E 0 80 57 00
        E 0 80 63 00
        E 360 90 62 60
        E 60 90 63 60
        E 60 90 40 60
        E 0 90 4c 60
        E 0 90 58 60
        E 0 90 64 60
        <X 960 0
          /wFbaWRsZV9pbnRlbnNlXQ==
        >
        E 0 80 62 00
        E 0 80 63 00
        E 0 80 40 00
        E 0 80 4c 00
        E 0 80 58 00
        E 0 80 64 00
        <X 11520 0
          /wFbaWRsZV0=
        >
        <X 17280 0
          /wFbcGxheV0=
        >
        E 0 90 55 60
        E 0 90 61 60
        E 0 90 74 60
        E 120 80 55 00 -60
        E 0 80 61 00 -60
        E 120 90 3e 60
        E 0 90 4a 60
        E 0 90 4b 60
        E 0 90 56 60
        E 0 90 58 60
        E 0 90 61 60
        E 0 90 63 60
        E 0 90 64 60
        E 120 80 3e 00
        E 0 80 4a 00
        E 0 80 4b 00
        E 0 80 56 00 -60
        E 0 80 58 00 -60
        E 0 80 61 00 -60
        E 0 80 63 00 -60
        E 0 80 64 00 -60
        E 120 90 61 60
        E 120 80 61 00 -60
        E 0 90 3e 60
        E 0 90 4a 60
        E 0 90 4b 60
        E 0 90 56 60
        E 0 90 58 60
        E 0 90 61 60
        E 0 90 63 60
        E 0 90 64 60
        E 120 80 3e 00
        E 0 80 4a 00
        E 0 80 4b 00
        E 0 80 56 00
        E 0 80 58 00
        E 0 80 61 00 -60
        E 0 80 63 00 -60
        E 0 80 64 00 -60
        E 120 90 61 60
        E 120 80 61 00 -60
        E 0 90 4a 60
        E 0 90 4b 60
        E 0 90 56 60
        E 0 90 58 60
        E 0 90 61 60
        E 0 90 63 60
        E 0 90 64 60
        E 120 80 4a 00 -60
        E 0 80 4b 00 -60
        E 0 80 56 00 -60
        E 0 80 58 00 -60
        E 0 80 61 00 -60
        E 0 80 63 00 -60
        E 0 80 64 00 -60
        E 240 90 54 60
        E 0 90 57 60
        E 0 90 60 60
        E 0 90 61 60
        E 0 90 64 60
        E 120 80 54 00 -60
        E 0 80 57 00 -60
        E 0 80 60 00 -60
        E 0 80 61 00 -60
        E 0 80 64 00 -60
        E 240 90 3d 60
        E 0 90 49 60
        E 0 90 4b 60
        E 0 90 54 60
        E 0 90 57 60
        E 0 90 60 60
        E 0 90 61 60
        E 0 90 64 60
        E 120 80 3d 00
        E 0 80 49 00 -60
        E 0 80 4b 00 -60
        E 0 80 54 00 -60
        E 0 80 57 00 -60
        E 0 80 60 00 -60
        E 0 80 61 00 -60
        E 0 80 64 00 -60
        E 240 90 3d 60
        E 0 90 49 60
        E 0 90 4b 60
        E 0 90 54 60
        E 0 90 57 60
        E 0 90 60 60
        E 0 90 61 60
        E 0 90 64 60
        E 120 80 3d 00
        E 0 80 49 00
        E 0 80 4b 00
        E 0 80 54 00 -60
        E 0 80 57 00 -60
        E 0 80 60 00 -60
        E 0 80 61 00 -60
        E 0 80 64 00 -60
        E 240 90 49 60
        E 0 90 4b 60
        E 0 90 54 60
        E 0 90 57 60
        E 0 90 60 60
        E 0 90 61 60
        E 0 90 64 60
        E 120 80 49 00 -60
        E 0 80 4b 00 -60
        E 0 80 54 00 -60
        E 0 80 57 00 -60
        E 0 80 60 00 -60
        E 0 80 61 00 -60
        E 0 80 64 00 -60
        E 360 80 74 00
        E 240 90 3c 60
        E 0 90 49 60
        E 0 90 4a 60
        E 0 90 54 60
        E 0 90 56 60
        E 0 90 60 60
        E 0 90 62 60
        E 0 90 63 60
        E 120 80 3c 00
        E 0 80 49 00 -60
        E 0 80 4a 00 -60
        E 0 80 54 00 -60
        E 0 80 56 00 -60
        E 0 80 60 00 -60
        E 0 80 62 00 -60
        E 0 80 63 00 -60
        E 960 90 3d 60
        E 0 90 49 60
        E 0 90 4b 60
        E 0 90 54 60
        E 0 90 57 60
        E 0 90 60 60
        E 0 90 61 60
        E 0 90 64 60
        E 120 80 3d 00
        E 0 80 49 00 -60
        E 0 80 4b 00 -60
        E 0 80 54 00 -60
        E 0 80 57 00 -60
        E 0 80 60 00 -60
        E 0 80 61 00 -60
        E 0 80 64 00 -60
        E 240 90 3d 60
        E 0 90 49 60
        E 0 90 4b 60
        E 0 90 54 60
        E 0 90 57 60
        E 0 90 60 60
        E 0 90 61 60
        E 0 90 64 60
        E 120 80 3d 00
        E 0 80 49 00 -60
        E 0 80 4b 00 -60
        E 0 80 54 00 -60
        E 0 80 57 00 -60
        E 0 80 60 00 -60
        E 0 80 61 00 -60
        E 0 80 64 00 -60
        E 240 90 49 60
        E 0 90 4b 60
        E 0 90 54 60
        E 0 90 57 60
        E 0 90 60 60
        E 0 90 61 60
        E 0 90 64 60
        E 120 80 49 00
        E 0 80 4b 00
        E 0 80 54 00 -60
        E 0 80 57 00 -60
        E 0 80 60 00 -60
        E 0 80 61 00 -60
        E 0 80 64 00 -60
        E 240 90 54 60
        E 0 90 57 60
        E 0 90 60 60
        E 0 90 61 60
        E 0 90 64 60
        E 120 80 54 00 -60
        E 0 80 57 00 -60
        E 0 80 60 00 -60
        E 0 80 61 00 -60
        E 0 80 64 00 -60
        E 240 90 3e 60
        E 0 90 4a 60
        E 0 90 4b 60
        E 0 90 56 60
        E 0 90 58 60
        E 0 90 61 60
        E 0 90 63 60
        E 0 90 64 60
        E 120 80 3e 00
        E 0 80 4a 00
        E 0 80 4b 00
        E 0 80 56 00 -60
        E 0 80 58 00 -60
        E 0 80 61 00 -60
        E 0 80 63 00 -60
        E 0 80 64 00 -60
        E 240 90 3e 60
        E 0 90 4a 60
        E 0 90 4b 60
        E 0 90 56 60
        E 0 90 58 60
        E 0 90 61 60
        E 0 90 63 60
        E 0 90 64 60
        E 120 80 3e 00
        E 0 80 4a 00 -60
        E 0 80 4b 00 -60
        E 0 80 56 00 -60
        E 0 80 58 00 -60
        E 0 80 61 00 -60
        E 0 80 63 00 -60
        E 0 80 64 00 -60
        E 240 90 4a 60
        E 0 90 4b 60
        E 0 90 56 60
        E 0 90 58 60
        E 0 90 61 60
        E 0 90 63 60
        E 0 90 64 60
        E 120 80 4a 00
        E 0 80 4b 00
        E 0 80 56 00 -60
        E 0 80 58 00 -60
        E 0 80 61 00 -60
        E 0 80 63 00 -60
        E 0 80 64 00 -60
        E 240 90 56 60
        E 0 90 58 60
        E 0 90 61 60
        E 0 90 63 60
        E 0 90 64 60
        E 120 80 56 00 -60
        E 0 80 58 00 -60
        E 0 80 61 00 -60
        E 0 80 63 00 -60
        E 0 80 64 00 -60
        E 240 90 3d 60
        E 0 90 49 60
        E 0 90 4b 60
        E 0 90 54 60
        E 0 90 57 60
        E 0 90 60 60
        E 0 90 61 60
        E 0 90 64 60
        E 120 80 3d 00
        E 0 80 49 00
        E 0 80 4b 00
        E 0 80 54 00 -60
        E 0 80 57 00 -60
        E 0 80 60 00 -60
        E 0 80 61 00 -60
        E 0 80 64 00 -60
        E 240 90 3d 60
        E 0 90 49 60
        E 0 90 4b 60
        E 0 90 54 60
        E 0 90 57 60
        E 0 90 60 60
        E 0 90 61 60
        E 0 90 64 60
        E 120 80 3d 00
        E 0 80 49 00 -60
        E 0 80 4b 00 -60
        E 0 80 54 00 -60
        E 0 80 57 00 -60
        E 0 80 60 00 -60
        E 0 80 61 00 -60
        E 0 80 64 00 -60
        E 240 90 49 60
        E 0 90 4b 60
        E 0 90 54 60
        E 0 90 57 60
        E 0 90 60 60
        E 0 90 61 60
        E 0 90 64 60
        E 120 80 49 00
        E 0 80 4b 00
        E 0 80 54 00 -60
        E 0 80 57 00 -60
        E 0 80 60 00 -60
        E 0 80 61 00 -60
        E 0 80 64 00 -60
        E 240 90 54 60
        E 0 90 57 60
        E 0 90 60 60
        E 0 90 61 60
        E 0 90 64 60
        E 120 80 54 00 -60
        E 0 80 57 00 -60
        E 0 80 60 00 -60
        E 0 80 61 00 -60
        E 0 80 64 00 -60
        E 240 90 3c 60
        E 0 90 49 60
        E 0 90 4a 60
        E 0 90 54 60
        E 0 90 56 60
        E 0 90 60 60
        E 0 90 62 60
        E 0 90 63 60
        E 120 80 3c 00
        E 0 80 49 00
        E 0 80 4a 00
        E 0 80 54 00 -60
        E 0 80 56 00 -60
        E 0 80 60 00 -60
        E 0 80 62 00 -60
        E 0 80 63 00 -60
        E 240 90 3c 60
        E 0 90 49 60
        E 0 90 4a 60
        E 0 90 54 60
        E 0 90 56 60
        E 0 90 60 60
        E 0 90 62 60
        E 0 90 63 60
        E 120 80 3c 00
        E 0 80 49 00 -60
        E 0 80 4a 00 -60
        E 0 80 54 00 -60
        E 0 80 56 00 -60
        E 0 80 60 00 -60
        E 0 80 62 00 -60
        E 0 80 63 00 -60
        E 240 90 49 60
        E 0 90 4a 60
        E 0 90 54 60
        E 0 90 56 60
        E 0 90 60 60
        E 0 90 62 60
        E 0 90 63 60
        E 120 80 49 00
        E 0 80 4a 00
        E 0 80 54 00 -60
        E 0 80 56 00 -60
        E 0 80 60 00 -60
        E 0 80 62 00 -60
        E 0 80 63 00 -60
        E 240 90 54 60
        E 0 90 56 60
        E 0 90 60 60
        E 0 90 62 60
        E 0 90 63 60
        E 120 80 54 00 -60
        E 0 80 56 00 -60
        E 0 80 60 00 -60
        E 0 80 62 00 -60
        E 0 80 63 00 -60
        E 240 90 3d 60
        E 0 90 49 60
        E 0 90 4b 60
        E 0 90 54 60
        E 0 90 57 60
        E 0 90 60 60
        E 0 90 61 60
        E 0 90 64 60
        E 120 80 3d 00
        E 0 80 49 00
        E 0 80 4b 00
        E 0 80 54 00 -60
        E 0 80 57 00 -60
        E 0 80 60 00 -60
        E 0 80 61 00 -60
        E 0 80 64 00 -60
        E 360 90 3d 60
        E 0 90 49 60
        E 0 90 4b 60
        E 0 90 54 60
        E 0 90 57 60
        E 0 90 60 60
        E 0 90 61 60
        E 0 90 64 60
        E 120 80 3d 00
        E 0 80 49 00 -60
        E 0 80 4b 00 -60
        E 0 80 54 00 -60
        E 0 80 57 00 -60
        E 0 80 60 00 -60
        E 0 80 61 00 -60
        E 0 80 64 00 -60
        E 360 90 3d 60
        E 0 90 49 60
        E 0 90 4b 60
        E 0 90 54 60
        E 0 90 57 60
        E 0 90 60 60
        E 0 90 61 60
        E 0 90 64 60
        E 120 80 3d 00
        E 0 80 49 00 -60
        E 0 80 4b 00 -60
        E 0 80 54 00 -60
        E 0 80 57 00 -60
        E 0 80 60 00 -60
        E 0 80 61 00 -60
        E 0 80 64 00 -60
        <X 480 0
          /wFbaWRsZV9pbnRlbnNlXQ==
        >
        <X 40320 0
          /wFbaWRsZV9yZWFsdGltZV0=
        >
        E 2880 b0 7b 00
        GUID {06567883-1949-465A-9693-056E6F061487}
        IGNTEMPO 0 120.00000000 4 4
        SRCCOLOR 43
        VELLANE 132 128 60
        COLORMAP "C:\Program Files (x86)\REAPER\Data\color_maps\rockband_guitarbass.png"
        CFGEDITVIEW -6915.735634 7.515024 6 12 0 0 0
        CFGEDIT 1 1 0 1 1 1 1 1 1 1 1 0.25000000 -8 0 1360 744 0 2 1 2 0.00000000 0 1 0 0 0.500000 0 0 1.000000 64
        KEYSNAP 0 0 "102034050607" 0 "Major"
        EVTFILTER 0 -1 -1 -1 -1 0 1 0 0 -1.00000000 -1.00000000
      >
    >
  >
  <TRACK '{32D381E9-A46D-4F04-896A-E19695446520}'
    NAME "PART REAL_KEYS_X"
    PEAKCOL 16576
    BEAT -1
    AUTOMODE 0
    VOLPAN 0.51063081849714 0.00000000000000 -1.00000000000000 -1.00000000000000 1.00000000000000
    MUTESOLO 0 0 0
    IPHASE 0
    ISBUS 0 0
    BUSCOMP 0 0
    SHOWINMIX 1 0.666700 0.500000 1 0.500000 -1 -1 -1
    FREEMODE 0
    SEL 0
    REC 0 0 0 0 0 0 0
    VU 2
    TRACKHEIGHT 0 0
    INQ 0 0 0 0.5000000000 100 0 0 100
    NCHAN 2
    FX 0
    TRACKID {32D381E9-A46D-4F04-896A-E19695446520}
    PERF 0
    MIDIOUT -1
    <MIDINOTENAMES
      0 127 "TRILL MARKER"
      0 126 "GLISSANDO MARKER"
      0 125 "---"
      0 116 "OVERDRIVE"
      0 115 "SOLO"
      0 114 "---"
      0 72 "Highest playable note B#3"
      0 71 "B3"
      0 70 "A#3"
      0 69 "A3"
      0 68 "G#3"
      0 67 "G3"
      0 66 "F#3"
      0 65 "F3"
      0 64 "E3"
      0 63 "D#3"
      0 62 "D3"
      0 61 "C#3"
      0 60 "C3"
      0 59 "B2"
      0 58 "A#2"
      0 57 "A2"
      0 56 "G#2"
      0 55 "G2"
      0 54 "F#2"
      0 53 "F2"
      0 52 "E2"
      0 51 "D#2"
      0 50 "D2"
      0 49 "C#2"
      0 48 "Lowest playable note C2"
      0 10 "---"
      0 9 "Range A2-C4"
      0 8 "Range"
      0 7 "Range"
      0 6 "Range"
      0 5 "Range F2-A3"
      0 4 "Range"
      0 3 "Range"
      0 2 "Range"
      0 1 "Range"
      0 0 "Range C2-E3"
    >
    MAINSEND 1 0
    <FXCHAIN
      WNDRECT 0 42 878 554
      SHOW 0
      LASTSEL 1
      DOCKED 0
      BYPASS 0 0
      <JS "MIDI/midi_note_filter" ""
        48.000000 72.000000 - - - - - - - - - - - - - - - - - - - - - - - - - - - - - - - - - - - - - - - - - - - - - - - - - - - - - - - - - - - - - - 
      >
      FLOATPOS 0 0 0 0
      FXID {282FD9CE-7A7D-486E-B118-A17655F42BAE}
      WAK 0
      BYPASS 0 0
      <VST "VSTi: ReaSynth (Cockos)" "reasynth.dll" 0 ""
        eXNlcu9e7f4AAAAAAgAAAAEAAAAAAAAAAgAAAAAAAAA4AAAAAAAAAA==
        AAAQAO++rd4N8K3eppvEOxe30ToAAAAAAAAAAAAAAADOTQA/IiLVOw==
        AACAPwAAAD8AAAAAAAAAAAAAgD8AABAAAAA=
      >
      FLOATPOS 0 0 0 0
      FXID {9E9700B9-6C50-4E1D-A41B-9D2A1AA28659}
      WAK 0
    >
    <ITEM
      POSITION 0.00000000000000
      SNAPOFFS 0.00000000000000
      LENGTH 145.04278159266019
      LOOP 0
      ALLTAKES 0
      SEL 0
      FADEIN 1 0.000000 0.000000 1 0
      FADEOUT 1 0.000000 0.000000 1 0
      MUTE 0
      IGUID {CCF930F9-0E58-4709-BEDB-E0D6A4195493}
      IID 24
      NAME "PART REAL_KEYS_X"
      VOLPAN 1.000000 0.000000 1.000000 -1.000000
      SOFFS 0.00000000000000 0.00000000000000
      PLAYRATE 1.00000000000000 1 0.00000000000000 -1
      CHANMODE 0
      GUID {DD700FBF-5A7A-4A8A-93FD-E55AAD6A546C}
      <SOURCE MIDI
        HASDATA 1 480 QN
        POOLEDEVTS {9D3A2CB9-54F8-4314-83E1-7272D7C9B6CE}
        <X 0 0
          /wNQQVJUIFJFQUxfS0VZU19Y
        >
        E 0 90 05 64
        E 120 80 05 00 -60
        <X 8520 0
          /wFbYmVnaW5fa2V5IHNvbmdfdHJhaW5lcl9rZXlfMV0=
        >
        E 0 90 39 64
        E 0 90 73 64
        E 0 90 74 64
        E 120 80 39 00
        E 240 90 37 64
        E 120 80 37 00 -60
        E 120 90 37 64
        E 120 80 37 00 -60
        E 120 90 37 64
        E 120 80 37 00 -60
        E 0 90 40 64
        E 120 80 40 00 -60
        E 120 90 40 64
        E 120 80 40 00 -60
        E 120 90 3e 64
        E 120 80 3e 00
        E 240 90 3e 64
        E 120 80 3e 00 -60
        E 0 90 40 64
        E 120 80 40 00 -60
        E 0 90 40 64
        E 120 80 40 00 -60
        E 120 90 40 64
        E 120 80 40 00 -60
        E 0 90 3e 64
        E 120 80 74 00
        E 0 80 3e 00 -60
        E 120 90 3e 64
        E 120 80 3e 00 -60
        <X 120 0
          /wFba2V5X25vcm0gc29uZ190cmFpbmVyX2tleV8xXQ==
        >
        E 0 90 3c 64
        E 120 80 3c 00
        E 360 90 3c 64
        E 120 80 3c 00 -60
        E 0 90 3c 64
        E 120 80 3c 00 -60
        E 120 90 3c 64
        E 120 80 3c 00 -60
        E 0 90 3b 64
        E 120 80 3b 00 -60
        E 120 90 39 64
        E 120 80 39 00 -60
        E 120 90 39 64
        E 960 80 39 00
        E 480 90 39 64
        E 120 80 39 00
        E 240 90 37 64
        E 120 80 37 00 -60
        E 0 90 37 64
        E 120 80 37 00 -60
        E 0 90 37 64
        E 120 80 37 00 -60
        E 120 90 37 64
        E 120 80 37 00 -60
        E 0 90 40 64
        E 120 80 40 00 -60
        E 120 90 40 64
        E 120 80 40 00 -60
        E 120 90 3e 64
        E 120 80 3e 00
        E 240 90 3e 64
        E 120 80 3e 00 -60
        E 0 90 40 64
        E 120 80 40 00 -60
        E 0 90 40 64
        E 120 80 40 00 -60
        E 120 90 40 64
        E 120 80 40 00 -60
        E 0 90 3e 64
        E 120 80 3e 00 -60
        E 120 90 3e 64
        E 120 80 3e 00 -60
        E 120 90 3c 64
        E 120 80 3c 00
        E 240 90 39 64
        E 0 90 74 64
        E 120 80 39 00 -60
        E 0 90 3c 64
        E 120 80 3c 00 -60
        E 0 90 3c 64
        E 120 80 3c 00 -60
        E 120 90 3c 64
        E 120 80 3c 00 -60
        E 0 90 3b 64
        E 120 80 3b 00 -60
        E 0 90 37 64
        E 120 80 37 00 -60
        E 0 90 39 64
        E 120 80 39 00 -60
        E 120 90 39 64
        E 720 80 74 00
        E 0 80 39 00
        <X 720 0
          /wFbZW5kX2tleSBzb25nX3RyYWluZXJfa2V5XzFd
        >
        <X 0 0
          /wFbYmVnaW5fa2V5IHNvbmdfdHJhaW5lcl9rZXlfMl0=
        >
        E 360 90 39 64
        E 120 80 39 00 -60
        E 0 90 39 64
        E 120 80 39 00 -60
        E 0 90 39 64
        E 120 80 39 00 -60
        E 120 90 37 64
        E 120 80 37 00 -60
        E 0 90 39 64
        E 120 80 39 00 -60
        E 0 90 39 64
        E 120 80 39 00 -60
        E 120 90 37 64
        E 120 80 37 00 -60
        E 0 90 3c 64
        E 120 80 3c 00 -60
        E 0 90 3c 64
        E 120 80 3c 00 -60
        E 120 90 37 64
        E 120 80 37 00 -60
        E 0 90 39 64
        E 120 80 39 00
        E 240 90 37 64
        E 120 80 37 00 -60
        E 0 90 3c 64
        E 120 80 3c 00 -60
        E 0 90 3c 64
        E 120 80 3c 00 -60
        E 120 90 37 64
        <X 120 0
          /wFba2V5X25vcm0gc29uZ190cmFpbmVyX2tleV8yXQ==
        >
        E 0 80 37 00 -60
        E 0 90 39 64
        E 120 80 39 00
        E 240 90 37 64
        E 120 80 37 00 -60
        E 0 90 37 64
        E 120 80 37 00 -60
        E 120 90 39 64
        E 120 80 39 00 -60
        E 120 90 39 64
        E 120 80 39 00 -60
        E 120 90 39 64
        E 480 80 39 00
        E 1560 90 39 64
        E 120 80 39 00 -60
        E 0 90 39 64
        E 120 80 39 00 -60
        E 0 90 39 64
        E 120 80 39 00 -60
        E 120 90 37 64
        E 120 80 37 00 -60
        E 0 90 39 64
        E 120 80 39 00 -60
        E 0 90 39 64
        E 120 80 39 00 -60
        E 120 90 37 64
        E 120 80 37 00 -60
        E 0 90 3c 64
        E 120 80 3c 00 -60
        E 0 90 3c 64
        E 120 80 3c 00 -60
        E 120 90 37 64
        E 120 80 37 00 -60
        E 0 90 39 64
        E 120 80 39 00
        E 240 90 37 64
        E 120 80 37 00 -60
        E 0 90 3c 64
        E 120 80 3c 00 -60
        E 0 90 3c 64
        E 120 80 3c 00 -60
        E 120 90 37 64
        E 120 80 37 00 -60
        E 0 90 39 64
        E 120 80 39 00
        E 240 90 37 64
        E 120 80 37 00 -60
        E 0 90 37 64
        E 120 80 37 00 -60
        E 120 90 39 64
        E 120 80 39 00 -60
        E 120 90 39 64
        E 120 80 39 00 -60
        E 120 90 39 64
        E 480 80 39 00
        E 240 80 73 00
        <X 480 0
          /wFbZW5kX2tleSBzb25nX3RyYWluZXJfa2V5XzJd
        >
        <X 12000 0
          /wFbYmVnaW5fa2V5IHNvbmdfdHJhaW5lcl9rZXlfM10=
        >
        E 0 90 74 64
        E 360 90 35 64
        E 60 90 39 64 -20
        E 60 90 3c 64 -20
        E 0 90 40 64
        E 960 80 35 00
        E 0 80 39 00
        E 0 80 3c 00
        E 0 80 40 00
        E 360 90 37 64
        E 60 90 3e 64 -20
        E 60 90 40 64 -20
        E 0 90 45 64
        <X 960 0
          /wFba2V5X25vcm0gc29uZ190cmFpbmVyX2tleV8zXQ==
        >
        E 0 80 74 00
        E 0 80 37 00 -1
        E 0 80 3e 00 -1
        E 0 80 40 00 -1
        E 0 80 45 00
        E 360 90 35 64
        E 60 90 39 64 -20
        E 60 90 3e 64 -20
        E 0 90 43 64
        E 960 80 35 00 -1
        E 0 80 39 00 -1
        E 0 80 3e 00 -1
        E 0 80 43 00
        E 360 90 37 64
        E 60 90 3b 64 -20
        E 60 90 3e 64
        E 960 80 37 00 -1
        E 0 80 3b 00 -1
        E 0 80 3e 00
        E 360 90 35 64
        E 60 90 39 64 -20
        E 60 90 3c 64 -20
        E 0 90 40 64
        E 960 80 35 00
        E 0 80 39 00
        E 0 80 3c 00
        E 0 80 40 00
        E 360 90 37 64
        E 60 90 3b 64 -20
        E 60 90 40 64 -20
        E 0 90 45 64
        E 960 80 37 00 -1
        E 0 80 3b 00 -1
        E 0 80 40 00 -1
        E 0 80 45 00
        E 360 90 35 64
        E 60 90 39 64 -20
        E 60 90 3e 64 -20
        E 0 90 43 64
        E 960 80 35 00 -1
        E 0 80 39 00 -1
        E 0 80 3e 00 -1
        E 0 80 43 00
        E 360 90 37 64
        E 60 90 3b 64 -20
        E 60 90 3e 64
        <X 960 0
          /wFbZW5kX2tleSBzb25nX3RyYWluZXJfa2V5XzNd
        >
        E 0 80 37 00 -1
        E 0 80 3b 00 -1
        E 0 80 3e 00
        E 0 90 00 64
        E 120 80 00 00 -60
        <X 28680 0
          /wFbYmVnaW5fa2V5IHNvbmdfdHJhaW5lcl9rZXlfNF0=
        >
        E 0 90 35 64
        E 0 90 74 64
        E 120 80 35 00 -60
        E 120 90 35 64
        E 0 90 39 64
        E 0 90 3c 64
        E 0 90 40 64
        E 120 80 35 00 -60
        E 0 80 39 00 -60
        E 0 80 3c 00 -60
        E 0 80 40 00 -60
        E 120 90 35 64
        E 120 80 35 00 -60
        E 0 90 35 64
        E 0 90 39 64
        E 0 90 3c 64
        E 0 90 40 64
        E 120 80 35 00 -60
        E 0 80 39 00 -60
        E 0 80 3c 00 -60
        E 0 80 40 00 -60
        E 120 90 35 64
        E 120 80 35 00 -60
        E 0 90 35 64
        E 0 90 39 64
        E 0 90 3c 64
        E 0 90 40 64
        E 120 80 35 00 -60
        E 0 80 39 00 -60
        E 0 80 3c 00 -60
        E 0 80 40 00 -60
        E 240 90 34 64
        E 0 90 37 64
        E 0 90 3b 64
        E 0 90 3e 64
        E 120 80 34 00 -60
        E 0 80 37 00 -60
        E 0 80 3b 00 -60
        E 0 80 3e 00 -60
        E 240 90 34 64
        E 0 90 37 64
        E 0 90 3b 64
        E 0 90 3e 64
        E 120 80 34 00 -60
        E 0 80 37 00 -60
        E 0 80 3b 00 -60
        E 0 80 3e 00 -60
        E 240 90 34 64
        E 0 90 37 64
        E 0 90 3b 64
        E 0 90 3e 64
        E 120 80 34 00 -60
        E 0 80 37 00 -60
        E 0 80 3b 00 -60
        E 0 80 3e 00 -60
        E 240 90 34 64
        E 0 90 37 64
        E 0 90 3b 64
        E 0 90 3e 64
        E 120 80 34 00 -60
        E 0 80 37 00 -60
        E 0 80 3b 00 -60
        E 0 80 3e 00 -60
        <X 360 0
          /wFba2V5X25vcm0gc29uZ190cmFpbmVyX2tleV80XQ==
        >
        E 0 80 74 00
        E 240 90 32 64
        E 0 90 35 64
        E 0 90 39 64
        E 0 90 3c 64
        E 120 80 32 00 -60
        E 0 80 35 00 -60
        E 0 80 39 00 -60
        E 0 80 3c 00 -60
        E 960 90 34 64
        E 0 90 37 64
        E 0 90 3b 64
        E 0 90 3e 64
        E 120 80 34 00 -60
        E 0 80 37 00 -60
        E 0 80 3b 00 -60
        E 0 80 3e 00 -60
        E 240 90 34 64
        E 0 90 37 64
        E 0 90 3b 64
        E 0 90 3e 64
        E 120 80 34 00 -60
        E 0 80 37 00 -60
        E 0 80 3b 00 -60
        E 0 80 3e 00 -60
        E 240 90 34 64
        E 0 90 37 64
        E 0 90 3b 64
        E 0 90 3e 64
        E 120 80 34 00 -60
        E 0 80 37 00 -60
        E 0 80 3b 00 -60
        E 0 80 3e 00 -60
        E 240 90 34 64
        E 0 90 37 64
        E 0 90 3b 64
        E 0 90 3e 64
        E 120 80 34 00 -60
        E 0 80 37 00 -60
        E 0 80 3b 00 -60
        E 0 80 3e 00 -60
        E 240 90 35 64
        E 0 90 39 64
        E 0 90 3c 64
        E 0 90 40 64
        E 120 80 35 00 -60
        E 0 80 39 00 -60
        E 0 80 3c 00 -60
        E 0 80 40 00 -60
        E 240 90 35 64
        E 0 90 39 64
        E 0 90 3c 64
        E 0 90 40 64
        E 120 80 35 00 -60
        E 0 80 39 00 -60
        E 0 80 3c 00 -60
        E 0 80 40 00 -60
        E 240 90 35 64
        E 0 90 39 64
        E 0 90 3c 64
        E 0 90 40 64
        E 120 80 35 00 -60
        E 0 80 39 00 -60
        E 0 80 3c 00 -60
        E 0 80 40 00 -60
        E 240 90 35 64
        E 0 90 39 64
        E 0 90 3c 64
        E 0 90 40 64
        E 120 80 35 00 -60
        E 0 80 39 00 -60
        E 0 80 3c 00 -60
        E 0 80 40 00 -60
        E 240 90 34 64
        E 0 90 37 64
        E 0 90 3b 64
        E 0 90 3e 64
        E 120 80 34 00 -60
        E 0 80 37 00 -60
        E 0 80 3b 00 -60
        E 0 80 3e 00 -60
        E 240 90 34 64
        E 0 90 37 64
        E 0 90 3b 64
        E 0 90 3e 64
        E 120 80 34 00 -60
        E 0 80 37 00 -60
        E 0 80 3b 00 -60
        E 0 80 3e 00 -60
        E 240 90 34 64
        E 0 90 37 64
        E 0 90 3b 64
        E 0 90 3e 64
        E 120 80 34 00 -60
        E 0 80 37 00 -60
        E 0 80 3b 00 -60
        E 0 80 3e 00 -60
        E 240 90 34 64
        E 0 90 37 64
        E 0 90 3b 64
        E 0 90 3e 64
        E 120 80 34 00 -60
        E 0 80 37 00 -60
        E 0 80 3b 00 -60
        E 0 80 3e 00 -60
        E 240 90 32 64
        E 0 90 35 64
        E 0 90 39 64
        E 0 90 3c 64
        E 120 80 32 00 -60
        E 0 80 35 00 -60
        E 0 80 39 00 -60
        E 0 80 3c 00 -60
        E 240 90 32 64
        E 0 90 35 64
        E 0 90 39 64
        E 0 90 3c 64
        E 120 80 32 00 -60
        E 0 80 35 00 -60
        E 0 80 39 00 -60
        E 0 80 3c 00 -60
        E 240 90 32 64
        E 0 90 35 64
        E 0 90 39 64
        E 0 90 3c 64
        E 120 80 32 00 -60
        E 0 80 35 00 -60
        E 0 80 39 00 -60
        E 0 80 3c 00 -60
        E 240 90 32 64
        E 0 90 35 64
        E 0 90 39 64
        E 0 90 3c 64
        E 120 80 32 00 -60
        E 0 80 35 00 -60
        E 0 80 39 00 -60
        E 0 80 3c 00 -60
        E 240 90 34 64
        E 0 90 37 64
        E 0 90 3b 64
        E 0 90 3e 64
        E 120 80 34 00 -60
        E 0 80 37 00 -60
        E 0 80 3b 00 -60
        E 0 80 3e 00 -60
        E 0 90 34 64
        E 120 80 34 00 -60
        E 240 90 34 64
        E 0 90 37 64
        E 0 90 3b 64
        E 0 90 3e 64
        E 120 80 34 00 -60
        E 0 80 37 00 -60
        E 0 80 3b 00 -60
        E 0 80 3e 00 -60
        E 0 90 34 64
        E 120 80 34 00 -60
        E 240 90 34 64
        E 0 90 37 64
        E 0 90 3b 64
        E 0 90 3e 64
        E 120 80 34 00 -60
        E 0 80 37 00 -60
        E 0 80 3b 00 -60
        E 0 80 3e 00 -60
        E 0 90 34 64
        E 120 80 34 00 -60
        <X 360 0
          /wFbZW5kX2tleSBzb25nX3RyYWluZXJfa2V5XzRd
        >
        E 43200 b0 7b 00
        GUID {06567883-1949-465A-9693-056E6F061487}
        IGNTEMPO 0 120.00000000 4 4
        SRCCOLOR 43
        VELLANE 132 128 60
        COLORMAP "C:\Program Files (x86)\REAPER\Data\color_maps\rockband_guitarbass.png"
        TEXTSTRINGFILE "C:\Program Files\REAPER (x64)\Data\Text_Strings\Text Events List - PRO Trainers.txt"
        CFGEDITVIEW -10202.472121 7.687387 6 12 0 0 0
        CFGEDIT 1 1 0 1 1 1 1 1 1 1 1 0.25000000 -8 0 1360 744 0 2 1 2 0.00000000 0 1 0 0 0.500000 0 0 1.000000 64
        KEYSNAP 0 0 "102034050607" 0 "Major"
        EVTFILTER 0 -1 -1 -1 -1 0 1 0 0 -1.00000000 -1.00000000
      >
    >
  >
  <TRACK '{DCE1E4D8-C22F-45DE-A7BD-090445877BF1}'
    NAME "PART REAL_KEYS_H"
    PEAKCOL 16576
    BEAT -1
    AUTOMODE 0
    VOLPAN 0.51063081849714 0.00000000000000 -1.00000000000000 -1.00000000000000 1.00000000000000
    MUTESOLO 0 0 0
    IPHASE 0
    ISBUS 0 0
    BUSCOMP 0 0
    SHOWINMIX 1 0.666700 0.500000 1 0.500000 -1 -1 -1
    FREEMODE 0
    SEL 0
    REC 0 0 0 0 0 0 0
    VU 2
    TRACKHEIGHT 0 0
    INQ 0 0 0 0.5000000000 100 0 0 100
    NCHAN 2
    FX 1
    TRACKID {DCE1E4D8-C22F-45DE-A7BD-090445877BF1}
    PERF 0
    MIDIOUT -1
    <MIDINOTENAMES
      0 127 "TRILL MARKER"
      0 126 "GLISSANDO MARKER"
      0 125 "---"
      0 116 "OVERDRIVE"
      0 115 "SOLO"
      0 114 "---"
      0 72 "Highest playable note B#3"
      0 71 "B3"
      0 70 "A#3"
      0 69 "A3"
      0 68 "G#3"
      0 67 "G3"
      0 66 "F#3"
      0 65 "F3"
      0 64 "E3"
      0 63 "D#3"
      0 62 "D3"
      0 61 "C#3"
      0 60 "C3"
      0 59 "B2"
      0 58 "A#2"
      0 57 "A2"
      0 56 "G#2"
      0 55 "G2"
      0 54 "F#2"
      0 53 "F2"
      0 52 "E2"
      0 51 "D#2"
      0 50 "D2"
      0 49 "C#2"
      0 48 "Lowest playable note C2"
      0 10 "---"
      0 9 "Range A2-C4"
      0 8 "Range"
      0 7 "Range"
      0 6 "Range"
      0 5 "Range F2-A3"
      0 4 "Range"
      0 3 "Range"
      0 2 "Range"
      0 1 "Range"
      0 0 "Range C2-E3"
    >
    MAINSEND 1 0
    <FXCHAIN
      WNDRECT 0 42 878 554
      SHOW 0
      LASTSEL 0
      DOCKED 0
    >
    <ITEM
      POSITION 0.00000000000000
      SNAPOFFS 0.00000000000000
      LENGTH 145.04278159266019
      LOOP 0
      ALLTAKES 0
      SEL 0
      FADEIN 1 0.000000 0.000000 1 0
      FADEOUT 1 0.000000 0.000000 1 0
      MUTE 0
      IGUID {CCF930F9-0E58-4709-BEDB-E0D6A4195493}
      IID 24
      NAME "PART REAL_KEYS_H"
      VOLPAN 1.000000 0.000000 1.000000 -1.000000
      SOFFS 0.00000000000000 0.00000000000000
      PLAYRATE 1.00000000000000 1 0.00000000000000 -1
      CHANMODE 0
      GUID {DD700FBF-5A7A-4A8A-93FD-E55AAD6A546C}
      <SOURCE MIDI
        HASDATA 1 480 QN
        POOLEDEVTS {08C45FE8-19AC-4801-9C6C-A04D8795C3ED}
        <X 0 0
          /wNQQVJUIFJFQUxfS0VZU19I
        >
        E 0 90 05 64
        E 60 80 05 00
        E 8580 90 39 64
        E 120 80 39 00
        E 240 90 37 64
        E 120 80 37 00 -60
        E 120 90 37 64
        E 120 80 37 00 -60
        E 240 90 40 60
        E 120 80 40 00
        E 120 90 40 64
        E 120 80 40 00 -60
        E 120 90 3e 64
        E 120 80 3e 00
        E 360 90 40 64
        E 120 80 40 00 -60
        E 240 90 40 64
        E 120 80 40 00 -60
        E 240 90 3e 64
        E 120 80 3e 00 -60
        E 120 90 3c 64
        E 120 80 3c 00
        E 360 90 3c 64
        E 120 80 3c 00 -60
        E 240 90 3c 64
        E 120 80 3c 00 -60
        E 240 90 39 64
        E 120 80 39 00 -60
        E 120 90 39 64
        E 960 80 39 00
        E 480 90 39 64
        E 120 80 39 00
        E 360 90 37 64
        E 120 80 37 00 -60
        E 360 90 40 60
        E 120 80 40 00
        E 120 90 40 60
        E 120 80 40 00
        E 120 90 3e 64
        E 120 80 3e 00
        E 360 90 40 64
        E 120 80 40 00 -60
        E 240 90 40 64
        E 120 80 40 00 -60
        E 240 90 3e 64
        E 120 80 3e 00 -60
        E 120 90 3c 64
        E 120 80 3c 00
        E 360 90 3c 64
        E 120 80 3c 00 -60
        E 360 90 3b 64
        E 120 80 3b 00 -60
        E 120 90 39 64
        E 120 80 39 00 -60
        E 120 90 39 64
        E 720 80 39 00
        E 1200 90 39 64
        E 120 80 39 00 -60
        E 0 90 39 60
        E 120 80 39 00
        E 240 90 39 64
        E 120 80 39 00 -60
        E 0 90 39 60
        E 120 80 39 00
        E 240 90 3c 64
        E 120 80 3c 00 -60
        E 0 90 3c 60
        E 120 80 3c 00
        E 120 90 37 60
        E 120 80 37 00
        E 0 90 39 60
        E 120 80 39 00
        E 360 90 3c 64
        E 120 80 3c 00 -60
        E 0 90 3c 60
        E 120 80 3c 00
        E 120 90 37 64
        E 120 80 37 00 -60
        E 0 90 39 60
        E 120 80 39 00
        E 360 90 37 64
        E 120 80 37 00 -60
        E 120 90 39 64
        E 120 80 39 00 -60
        E 120 90 39 64
        E 120 80 39 00 -60
        E 120 90 39 64
        E 480 80 39 00
        E 1680 90 39 64
        E 120 80 39 00
        E 0 90 39 60
        E 120 80 39 00
        E 240 90 39 64
        E 120 80 39 00
        E 0 90 39 60
        E 120 80 39 00
        E 240 90 3c 64
        E 120 80 3c 00
        E 0 90 3c 60
        E 120 80 3c 00
        E 120 90 37 60
        E 120 80 37 00
        E 0 90 39 60
        E 120 80 39 00
        E 360 90 3c 64
        E 120 80 3c 00
        E 0 90 3c 60
        E 120 80 3c 00
        E 120 90 37 64
        E 120 80 37 00
        E 0 90 39 60
        E 120 80 39 00
        E 360 90 37 64
        E 120 80 37 00
        E 120 90 39 64
        E 120 80 39 00
        E 120 90 39 64
        E 120 80 39 00
        E 120 90 39 64
        E 480 80 39 00
        E 13200 90 35 60
        E 0 90 39 60
        E 0 90 3c 60
        E 960 80 35 00
        E 0 80 39 00
        E 0 80 3c 00
        E 480 90 37 60
        E 0 90 3e 60
        E 0 90 40 64
        E 960 80 37 00
        E 0 80 3e 00
        E 0 80 40 00
        E 480 90 35 60
        E 0 90 37 64
        E 0 90 3e 60
        E 960 80 35 00
        E 0 80 37 00
        E 0 80 3e 00
        E 480 90 37 60
        E 0 90 3b 60
        E 0 90 3e 64
        E 960 80 37 00
        E 0 80 3b 00
        E 0 80 3e 00
        E 480 90 35 60
        E 0 90 39 60
        E 0 90 3c 60
        E 960 80 35 00
        E 0 80 39 00
        E 0 80 3c 00
        E 480 90 37 60
        E 0 90 3e 60
        E 0 90 40 64
        E 960 80 37 00
        E 0 80 3e 00
        E 0 80 40 00
        E 480 90 35 60
        E 0 90 37 64
        E 0 90 3e 60
        E 960 80 35 00
        E 0 80 37 00
        E 0 80 3e 00
        E 480 90 37 60
        E 0 90 3b 60
        E 0 90 3e 64
        E 960 80 37 00
        E 0 80 3b 00
        E 0 80 3e 00
        E 0 90 00 64
        E 120 80 00 00 -60
        E 28680 90 35 64
        E 120 80 35 00 -60
        E 120 90 35 64
        E 0 90 39 64
        E 0 90 3c 64
        E 120 80 35 00 -60
        E 0 80 39 00 -60
        E 0 80 3c 00 -60
        E 240 90 35 64
        E 0 90 39 64
        E 0 90 3c 64
        E 120 80 35 00 -60
        E 0 80 39 00 -60
        E 0 80 3c 00 -60
        E 240 90 35 64
        E 0 90 39 64
        E 0 90 3c 64
        E 120 80 35 00 -60
        E 0 80 39 00 -60
        E 0 80 3c 00 -60
        E 240 90 34 64
        E 0 90 37 64
        E 0 90 3b 64
        E 120 80 34 00 -60
        E 0 80 37 00 -60
        E 0 80 3b 00 -60
        E 240 90 34 64
        E 0 90 37 64
        E 0 90 3b 64
        E 120 80 34 00 -60
        E 0 80 37 00 -60
        E 0 80 3b 00 -60
        E 240 90 34 64
        E 0 90 37 64
        E 0 90 3b 64
        E 120 80 34 00 -60
        E 0 80 37 00 -60
        E 0 80 3b 00 -60
        E 240 90 34 64
        E 0 90 37 64
        E 0 90 3b 64
        E 120 80 34 00 -60
        E 0 80 37 00 -60
        E 0 80 3b 00 -60
        E 600 90 32 64
        E 0 90 35 64
        E 0 90 39 64
        E 120 80 32 00 -60
        E 0 80 35 00 -60
        E 0 80 39 00 -60
        E 960 90 34 64
        E 0 90 37 64
        E 0 90 3b 64
        E 120 80 34 00 -60
        E 0 80 37 00 -60
        E 0 80 3b 00 -60
        E 240 90 34 64
        E 0 90 37 64
        E 0 90 3b 64
        E 120 80 34 00 -60
        E 0 80 37 00 -60
        E 0 80 3b 00 -60
        E 240 90 34 64
        E 0 90 37 64
        E 0 90 3b 64
        E 120 80 34 00 -60
        E 0 80 37 00 -60
        E 0 80 3b 00 -60
        E 240 90 34 64
        E 0 90 37 64
        E 0 90 3b 64
        E 120 80 34 00 -60
        E 0 80 37 00 -60
        E 0 80 3b 00 -60
        E 240 90 35 64
        E 0 90 39 64
        E 0 90 3c 64
        E 120 80 35 00 -60
        E 0 80 39 00 -60
        E 0 80 3c 00 -60
        E 240 90 35 64
        E 0 90 39 64
        E 0 90 3c 64
        E 120 80 35 00 -60
        E 0 80 39 00 -60
        E 0 80 3c 00 -60
        E 240 90 35 64
        E 0 90 39 64
        E 0 90 3c 64
        E 120 80 35 00 -60
        E 0 80 39 00 -60
        E 0 80 3c 00 -60
        E 240 90 35 64
        E 0 90 39 64
        E 0 90 3c 64
        E 120 80 35 00 -60
        E 0 80 39 00 -60
        E 0 80 3c 00 -60
        E 240 90 34 64
        E 0 90 37 64
        E 0 90 3b 64
        E 120 80 34 00 -60
        E 0 80 37 00 -60
        E 0 80 3b 00 -60
        E 240 90 34 64
        E 0 90 37 64
        E 0 90 3b 64
        E 120 80 34 00 -60
        E 0 80 37 00 -60
        E 0 80 3b 00 -60
        E 240 90 34 64
        E 0 90 37 64
        E 0 90 3b 64
        E 120 80 34 00 -60
        E 0 80 37 00 -60
        E 0 80 3b 00 -60
        E 240 90 34 64
        E 0 90 37 64
        E 0 90 3b 64
        E 120 80 34 00 -60
        E 0 80 37 00 -60
        E 0 80 3b 00 -60
        E 240 90 32 64
        E 0 90 35 64
        E 0 90 39 64
        E 120 80 32 00 -60
        E 0 80 35 00 -60
        E 0 80 39 00 -60
        E 240 90 32 64
        E 0 90 35 64
        E 0 90 39 64
        E 120 80 32 00 -60
        E 0 80 35 00 -60
        E 0 80 39 00 -60
        E 240 90 32 64
        E 0 90 35 64
        E 0 90 39 64
        E 120 80 32 00 -60
        E 0 80 35 00 -60
        E 0 80 39 00 -60
        E 240 90 32 64
        E 0 90 35 64
        E 0 90 39 64
        E 120 80 32 00 -60
        E 0 80 35 00 -60
        E 0 80 39 00 -60
        E 240 90 34 64
        E 0 90 37 64
        E 0 90 3b 64
        E 120 80 34 00 -60
        E 0 80 37 00 -60
        E 0 80 3b 00 -60
        E 360 90 34 64
        E 0 90 37 64
        E 0 90 3b 64
        E 120 80 34 00 -60
        E 0 80 37 00 -60
        E 0 80 3b 00 -60
        E 360 90 34 64
        E 0 90 37 64
        E 0 90 3b 64
        E 120 80 34 00 -60
        E 0 80 37 00 -60
        E 0 80 3b 00 -60
        E 43680 b0 7b 00
        GUID {06567883-1949-465A-9693-056E6F061487}
        IGNTEMPO 0 120.00000000 4 4
        SRCCOLOR 43
        VELLANE 132 128 60
        COLORMAP "C:\Program Files (x86)\REAPER\Data\color_maps\rockband_guitarbass.png"
        CFGEDITVIEW 85045.052297 115.015741 6 12 0 0 0
        CFGEDIT 1 1 0 1 1 1 1 1 1 1 1 0.25000000 -8 0 1360 744 0 2 1 2 0.00000000 0 1 0 0 0.500000 0 0 1.000000 64
        KEYSNAP 0 0 "102034050607" 0 "Major"
        EVTFILTER 0 -1 -1 -1 -1 0 1 0 0 -1.00000000 -1.00000000
      >
    >
  >
  <TRACK '{A77D6990-F91A-4A68-AF97-A2B4AF41E6DB}'
    NAME "PART REAL_KEYS_M"
    PEAKCOL 16576
    BEAT -1
    AUTOMODE 0
    VOLPAN 0.51063081849714 0.00000000000000 -1.00000000000000 -1.00000000000000 1.00000000000000
    MUTESOLO 0 0 0
    IPHASE 0
    ISBUS 0 0
    BUSCOMP 0 0
    SHOWINMIX 1 0.666700 0.500000 1 0.500000 -1 -1 -1
    FREEMODE 0
    SEL 0
    REC 0 0 0 0 0 0 0
    VU 2
    TRACKHEIGHT 0 0
    INQ 0 0 0 0.5000000000 100 0 0 100
    NCHAN 2
    FX 1
    TRACKID {A77D6990-F91A-4A68-AF97-A2B4AF41E6DB}
    PERF 0
    MIDIOUT -1
    <MIDINOTENAMES
      0 127 "TRILL MARKER"
      0 126 "GLISSANDO MARKER"
      0 125 "---"
      0 116 "OVERDRIVE"
      0 115 "SOLO"
      0 114 "---"
      0 72 "Highest playable note B#3"
      0 71 "B3"
      0 70 "A#3"
      0 69 "A3"
      0 68 "G#3"
      0 67 "G3"
      0 66 "F#3"
      0 65 "F3"
      0 64 "E3"
      0 63 "D#3"
      0 62 "D3"
      0 61 "C#3"
      0 60 "C3"
      0 59 "B2"
      0 58 "A#2"
      0 57 "A2"
      0 56 "G#2"
      0 55 "G2"
      0 54 "F#2"
      0 53 "F2"
      0 52 "E2"
      0 51 "D#2"
      0 50 "D2"
      0 49 "C#2"
      0 48 "Lowest playable note C2"
      0 10 "---"
      0 9 "Range A2-C4"
      0 8 "Range"
      0 7 "Range"
      0 6 "Range"
      0 5 "Range F2-A3"
      0 4 "Range"
      0 3 "Range"
      0 2 "Range"
      0 1 "Range"
      0 0 "Range C2-E3"
    >
    MAINSEND 1 0
    <FXCHAIN
      WNDRECT 0 42 878 554
      SHOW 0
      LASTSEL 0
      DOCKED 0
    >
    <ITEM
      POSITION 0.00000000000000
      SNAPOFFS 0.00000000000000
      LENGTH 145.04278159266019
      LOOP 0
      ALLTAKES 0
      SEL 0
      FADEIN 1 0.000000 0.000000 1 0
      FADEOUT 1 0.000000 0.000000 1 0
      MUTE 0
      IGUID {CCF930F9-0E58-4709-BEDB-E0D6A4195493}
      IID 24
      NAME "PART REAL_KEYS_M"
      VOLPAN 1.000000 0.000000 1.000000 -1.000000
      SOFFS 0.00000000000000 0.00000000000000
      PLAYRATE 1.00000000000000 1 0.00000000000000 -1
      CHANMODE 0
      GUID {DD700FBF-5A7A-4A8A-93FD-E55AAD6A546C}
      <SOURCE MIDI
        HASDATA 1 480 QN
        POOLEDEVTS {2F009349-0351-4230-A2DC-F0C76554A82F}
        <X 0 0
          /wNQQVJUIFJFQUxfS0VZU19N
        >
        E 0 90 00 64
        E 120 80 00 00 -60
        E 8520 90 39 64
        E 120 80 39 00
        E 240 90 37 64
        E 120 80 37 00 -60
        E 480 90 40 64
        E 120 80 40 00 -60
        E 360 90 3e 64
        E 120 80 3e 00
        E 360 90 40 64
        E 120 80 40 00 -60
        E 360 90 3e 64
        E 120 80 3e 00 -60
        E 360 90 3c 64
        E 120 80 3c 00
        E 360 90 3c 64
        E 120 80 3c 00 -60
        E 360 90 3b 64
        E 120 80 3b 00 -60
        E 360 90 39 64
        E 960 80 39 00
        E 480 90 39 64
        E 120 80 39 00
        E 360 90 37 64
        E 120 80 37 00 -60
        E 360 90 40 64
        E 120 80 40 00 -60
        E 360 90 3e 64
        E 120 80 3e 00
        E 360 90 40 64
        E 120 80 40 00 -60
        E 360 90 3e 64
        E 120 80 3e 00 -60
        E 360 90 3c 64
        E 120 80 3c 00
        E 360 90 3c 64
        E 120 80 3c 00 -60
        E 360 90 3b 64
        E 120 80 3b 00 -60
        E 360 90 39 64
        E 720 80 39 00
        E 1200 90 39 64
        E 120 80 39 00 -60
        E 360 90 39 64
        E 120 80 39 00 -60
        E 360 90 3c 64
        E 120 80 3c 00 -60
        E 360 90 39 64
        E 120 80 39 00 -60
        E 360 90 3c 64
        E 120 80 3c 00 -60
        E 360 90 39 64
        E 120 80 39 00 -60
        E 360 90 37 60
        E 120 80 37 00
        E 360 90 39 60
        E 120 80 39 00
        E 120 90 39 64
        E 480 80 39 00
        E 1680 90 39 64
        E 120 80 39 00
        E 360 90 39 64
        E 120 80 39 00
        E 360 90 3c 64
        E 120 80 3c 00
        E 360 90 39 64
        E 120 80 39 00
        E 360 90 3c 64
        E 120 80 3c 00
        E 360 90 39 64
        E 120 80 39 00
        E 360 90 37 60
        E 120 80 37 00
        E 360 90 39 60
        E 120 80 39 00
        E 120 90 39 64
        E 480 80 39 00
        E 13200 90 35 60
        E 0 90 39 60
        E 720 80 35 00
        E 0 80 39 00
        E 720 90 37 60
        E 0 90 39 60
        E 720 80 37 00
        E 0 80 39 00
        E 720 90 35 60
        E 0 90 39 60
        E 720 80 35 00
        E 0 80 39 00
        E 720 90 37 60
        E 0 90 3e 60
        E 720 80 37 00
        E 0 80 3e 00
        E 720 90 35 60
        E 0 90 39 60
        E 720 80 35 00
        E 0 80 39 00
        E 720 90 37 60
        E 0 90 39 60
        E 720 80 37 00
        E 0 80 39 00
        E 720 90 35 60
        E 0 90 39 60
        E 720 80 35 00
        E 0 80 39 00
        E 720 90 37 60
        E 0 90 3e 60
        E 720 80 37 00
        E 0 80 3e 00
        E 29280 90 35 64
        E 0 90 39 64
        E 120 80 35 00 -60
        E 0 80 39 00 -60
        E 240 90 35 64
        E 0 90 39 64
        E 120 80 35 00 -60
        E 0 80 39 00 -60
        E 600 90 34 64
        E 0 90 37 64
        E 120 80 34 00 -60
        E 0 80 37 00 -60
        E 600 90 34 64
        E 0 90 37 64
        E 120 80 34 00 -60
        E 0 80 37 00 -60
        E 960 90 32 64
        E 0 90 35 64
        E 120 80 32 00 -60
        E 0 80 35 00 -60
        E 960 90 34 64
        E 0 90 37 64
        E 120 80 34 00 -60
        E 0 80 37 00 -60
        E 600 90 34 64
        E 0 90 37 64
        E 120 80 34 00 -60
        E 0 80 37 00 -60
        E 600 90 35 64
        E 0 90 39 64
        E 120 80 35 00 -60
        E 0 80 39 00 -60
        E 600 90 35 64
        E 0 90 39 64
        E 120 80 35 00 -60
        E 0 80 39 00 -60
        E 600 90 34 64
        E 0 90 37 64
        E 120 80 34 00 -60
        E 0 80 37 00 -60
        E 600 90 34 64
        E 0 90 37 64
        E 120 80 34 00 -60
        E 0 80 37 00 -60
        E 600 90 32 64
        E 0 90 35 64
        E 120 80 32 00 -60
        E 0 80 35 00 -60
        E 600 90 32 64
        E 0 90 35 64
        E 120 80 32 00 -60
        E 0 80 35 00 -60
        E 600 90 34 64
        E 0 90 37 64
        E 120 80 34 00 -60
        E 0 80 37 00 -60
        E 360 90 34 64
        E 0 90 37 64
        E 120 80 34 00 -60
        E 0 80 37 00 -60
        E 360 90 34 64
        E 0 90 37 64
        E 120 80 34 00 -60
        E 0 80 37 00 -60
        E 43680 b0 7b 00
        GUID {06567883-1949-465A-9693-056E6F061487}
        IGNTEMPO 0 120.00000000 4 4
        SRCCOLOR 43
        VELLANE 132 128 60
        COLORMAP "C:\Program Files (x86)\REAPER\Data\color_maps\rockband_guitarbass.png"
        CFGEDITVIEW 1498.947397 40.976328 0 12 0 0 0
        CFGEDIT 1 1 0 1 1 1 1 1 1 1 1 0.12500000 -8 0 1360 744 0 2 1 2 0.00000000 0 1 0 0 0.500000 0 0 1.000000 64
        KEYSNAP 0 0 "102034050607" 0 "Major"
        EVTFILTER 0 -1 -1 -1 -1 0 1 0 0 -1.00000000 -1.00000000
      >
    >
  >
  <TRACK '{16E5CC21-A08A-4F48-8A19-96F63341F261}'
    NAME "PART REAL_KEYS_E"
    PEAKCOL 16576
    BEAT -1
    AUTOMODE 0
    VOLPAN 0.51063081849714 0.00000000000000 -1.00000000000000 -1.00000000000000 1.00000000000000
    MUTESOLO 0 0 0
    IPHASE 0
    ISBUS 0 0
    BUSCOMP 0 0
    SHOWINMIX 1 0.666700 0.500000 1 0.500000 -1 -1 -1
    FREEMODE 0
    SEL 0
    REC 0 0 0 0 0 0 0
    VU 2
    TRACKHEIGHT 0 0
    INQ 0 0 0 0.5000000000 100 0 0 100
    NCHAN 2
    FX 1
    TRACKID {16E5CC21-A08A-4F48-8A19-96F63341F261}
    PERF 0
    MIDIOUT -1
    <MIDINOTENAMES
      0 127 "TRILL MARKER"
      0 126 "GLISSANDO MARKER"
      0 125 "---"
      0 116 "OVERDRIVE"
      0 115 "SOLO"
      0 114 "---"
      0 72 "Highest playable note B#3"
      0 71 "B3"
      0 70 "A#3"
      0 69 "A3"
      0 68 "G#3"
      0 67 "G3"
      0 66 "F#3"
      0 65 "F3"
      0 64 "E3"
      0 63 "D#3"
      0 62 "D3"
      0 61 "C#3"
      0 60 "C3"
      0 59 "B2"
      0 58 "A#2"
      0 57 "A2"
      0 56 "G#2"
      0 55 "G2"
      0 54 "F#2"
      0 53 "F2"
      0 52 "E2"
      0 51 "D#2"
      0 50 "D2"
      0 49 "C#2"
      0 48 "Lowest playable note C2"
      0 10 "---"
      0 9 "Range A2-C4"
      0 8 "Range"
      0 7 "Range"
      0 6 "Range"
      0 5 "Range F2-A3"
      0 4 "Range"
      0 3 "Range"
      0 2 "Range"
      0 1 "Range"
      0 0 "Range C2-E3"
    >
    MAINSEND 1 0
    <FXCHAIN
      WNDRECT 0 42 878 554
      SHOW 0
      LASTSEL 0
      DOCKED 0
    >
    <ITEM
      POSITION 0.00000000000000
      SNAPOFFS 0.00000000000000
      LENGTH 145.04278159266019
      LOOP 0
      ALLTAKES 0
      SEL 0
      FADEIN 1 0.000000 0.000000 1 0
      FADEOUT 1 0.000000 0.000000 1 0
      MUTE 0
      IGUID {CCF930F9-0E58-4709-BEDB-E0D6A4195493}
      IID 24
      NAME "PART REAL_KEYS_E"
      VOLPAN 1.000000 0.000000 1.000000 -1.000000
      SOFFS 0.00000000000000 0.00000000000000
      PLAYRATE 1.00000000000000 1 0.00000000000000 -1
      CHANMODE 0
      GUID {DD700FBF-5A7A-4A8A-93FD-E55AAD6A546C}
      <SOURCE MIDI
        HASDATA 1 480 QN
        POOLEDEVTS {9191F027-CF40-4241-BA8C-1C101C2D44F2}
        <X 0 0
          /wNQQVJUIFJFQUxfS0VZU19F
        >
        E 0 90 00 64
        E 120 80 00 00 -60
        E 8520 90 39 64
        E 120 80 39 00
        E 840 90 40 60
        E 120 80 40 00
        E 360 90 3e 64
        E 120 80 3e 00
        E 840 90 3e 60
        E 120 80 3e 00
        E 360 90 3c 64
        E 120 80 3c 00
        E 840 90 3b 64
        E 120 80 3b 00
        E 360 90 39 64
        E 720 80 39 00
        E 720 90 39 64
        E 120 80 39 00
        E 840 90 40 60
        E 120 80 40 00
        E 360 90 3e 64
        E 120 80 3e 00
        E 840 90 3e 64
        E 120 80 3e 00
        E 360 90 3c 64
        E 120 80 3c 00
        E 840 90 3b 64
        E 120 80 3b 00 -60
        E 360 90 39 64
        E 720 80 39 00
        E 1200 90 39 64
        E 120 80 39 00 -60
        E 840 90 3c 64
        E 120 80 3c 00 -60
        E 840 90 3c 64
        E 120 80 3c 00 -60
        E 840 90 37 64
        E 120 80 37 00 -60
        E 600 90 39 64
        E 480 80 39 00
        E 1680 90 39 64
        E 120 80 39 00 -60
        E 840 90 3c 64
        E 120 80 3c 00 -60
        E 840 90 3c 64
        E 120 80 3c 00 -60
        E 840 90 37 60
        E 120 80 37 00
        E 600 90 39 64
        E 480 80 39 00
        E 13200 90 34 64
        E 480 80 34 00
        E 960 90 39 64
        E 480 80 39 00
        E 960 90 37 64
        E 480 80 37 00
        E 960 90 3e 64
        E 480 80 3e 00
        E 960 90 34 64
        E 480 80 34 00
        E 960 90 39 64
        E 480 80 39 00
        E 960 90 37 64
        E 480 80 37 00
        E 960 90 3e 64
        E 480 80 3e 00
        E 29520 90 35 60
        E 120 80 35 00
        E 960 90 34 60
        E 120 80 34 00
        E 600 90 34 60
        E 120 80 34 00
        E 960 90 32 60
        E 120 80 32 00
        E 960 90 34 60
        E 120 80 34 00
        E 600 90 34 60
        E 120 80 34 00
        E 600 90 35 60
        E 120 80 35 00
        E 600 90 35 60
        E 120 80 35 00
        E 600 90 34 60
        E 120 80 34 00
        E 600 90 34 60
        E 120 80 34 00
        E 600 90 32 60
        E 120 80 32 00
        E 600 90 32 60
        E 120 80 32 00
        E 600 90 34 60
        E 120 80 34 00
        e 360 90 34 60
        e 120 80 34 00
        E 360 90 34 60
        E 120 80 34 00
        E 43680 b0 7b 00
        GUID {06567883-1949-465A-9693-056E6F061487}
        IGNTEMPO 0 120.00000000 4 4
        SRCCOLOR 43
        VELLANE 132 128 60
        COLORMAP "C:\Program Files (x86)\REAPER\Data\color_maps\rockband_guitarbass.png"
        CFGEDITVIEW 80389.385476 74.781048 0 13 0 0 0
        CFGEDIT 1 1 0 1 1 1 1 1 1 1 1 0.25000000 -8 0 1360 744 0 2 1 2 0.00000000 0 1 1 0 0.500000 0 0 1.000000 64
        KEYSNAP 0 0 "102034050607" 0 "Major"
        EVTFILTER 0 -1 -1 -1 -1 0 1 0 0 -1.00000000 -1.00000000
      >
    >
  >
  <TRACK '{EE242FEE-DF46-4338-97DD-AB75BFD30019}'
    NAME "PART KEYS_ANIM_RH"
    PEAKCOL 16576
    BEAT -1
    AUTOMODE 0
    VOLPAN 0.51063081849714 0.00000000000000 -1.00000000000000 -1.00000000000000 1.00000000000000
    MUTESOLO 0 0 0
    IPHASE 0
    ISBUS 0 0
    BUSCOMP 0 0
    SHOWINMIX 1 0.666700 0.500000 1 0.500000 -1 -1 -1
    FREEMODE 0
    SEL 0
    REC 0 0 0 0 0 0 0
    VU 2
    TRACKHEIGHT 0 0
    INQ 0 0 0 0.5000000000 100 0 0 100
    NCHAN 2
    FX 1
    TRACKID {EE242FEE-DF46-4338-97DD-AB75BFD30019}
    PERF 0
    MIDIOUT -1
    <MIDINOTENAMES
      0 127 "TRILL MARKER"
      0 126 "GLISSANDO MARKER"
      0 125 "---"
      0 116 "OVERDRIVE"
      0 115 "SOLO"
      0 114 "---"
      0 72 "Highest playable note B#3"
      0 71 "B3"
      0 70 "A#3"
      0 69 "A3"
      0 68 "G#3"
      0 67 "G3"
      0 66 "F#3"
      0 65 "F3"
      0 64 "E3"
      0 63 "D#3"
      0 62 "D3"
      0 61 "C#3"
      0 60 "C3"
      0 59 "B2"
      0 58 "A#2"
      0 57 "A2"
      0 56 "G#2"
      0 55 "G2"
      0 54 "F#2"
      0 53 "F2"
      0 52 "E2"
      0 51 "D#2"
      0 50 "D2"
      0 49 "C#2"
      0 48 "Lowest playable note C2"
      0 10 "---"
      0 9 "Range A2-C4"
      0 8 "Range"
      0 7 "Range"
      0 6 "Range"
      0 5 "Range F2-A3"
      0 4 "Range"
      0 3 "Range"
      0 2 "Range"
      0 1 "Range"
      0 0 "Range C2-E3"
    >
    MAINSEND 1 0
    <FXCHAIN
      WNDRECT 0 42 878 554
      SHOW 0
      LASTSEL 1
      DOCKED 0
    >
    <ITEM
      POSITION 0.00000000000000
      SNAPOFFS 0.00000000000000
      LENGTH 145.04278159266019
      LOOP 0
      ALLTAKES 0
      SEL 0
      FADEIN 1 0.000000 0.000000 1 0
      FADEOUT 1 0.000000 0.000000 1 0
      MUTE 0
      IGUID {CF43F44E-F60D-4973-ABEA-C7911D832E20}
      IID 24
      NAME "PART KEYS_ANIM_RH"
      VOLPAN 1.000000 0.000000 1.000000 -1.000000
      SOFFS 0.00000000000000 0.00000000000000
      PLAYRATE 1.00000000000000 1 0.00000000000000 -1
      CHANMODE 0
      GUID {3058ED9F-FFB7-4D51-8632-CD86AB5D3939}
      <SOURCE MIDI
        HASDATA 1 480 QN
        POOLEDEVTS {7D1A8A45-AACE-4FC6-BEDA-495E99C453DC}
        <X 0 0
          /wNQQVJUIEtFWVNfQU5JTV9SSA==
        >
        E 8640 90 39 64
        E 120 80 39 00
        E 240 90 37 64
        E 120 80 37 00 -60
        E 120 90 37 64
        E 120 80 37 00 -60
        E 120 90 37 64
        E 120 80 37 00 -60
        E 0 90 40 64
        E 120 80 40 00 -60
        E 120 90 40 64
        E 120 80 40 00 -60
        E 120 90 3e 64
        E 120 80 3e 00
        E 240 90 3e 64
        E 120 80 3e 00 -60
        E 0 90 40 64
        E 120 80 40 00 -60
        E 0 90 40 64
        E 120 80 40 00 -60
        E 120 90 40 64
        E 120 80 40 00 -60
        E 0 90 3e 64
        E 120 80 3e 00 -60
        E 120 90 3e 64
        E 120 80 3e 00 -60
        E 120 90 3c 64
        E 120 80 3c 00
        E 360 90 3c 64
        E 120 80 3c 00 -60
        E 0 90 3c 64
        E 120 80 3c 00 -60
        E 120 90 3c 64
        E 120 80 3c 00 -60
        E 0 90 3b 64
        E 120 80 3b 00 -60
        E 120 90 39 64
        E 120 80 39 00 -60
        E 120 90 39 64
        E 960 80 39 00
        E 480 90 39 64
        E 120 80 39 00
        E 240 90 37 64
        E 120 80 37 00 -60
        E 0 90 37 64
        E 120 80 37 00 -60
        E 0 90 37 64
        E 120 80 37 00 -60
        E 120 90 37 64
        E 120 80 37 00 -60
        E 0 90 40 64
        E 120 80 40 00 -60
        E 120 90 40 64
        E 120 80 40 00 -60
        E 120 90 3e 64
        E 120 80 3e 00
        E 240 90 3e 64
        E 120 80 3e 00 -60
        E 0 90 40 64
        E 120 80 40 00 -60
        E 0 90 40 64
        E 120 80 40 00 -60
        E 120 90 40 64
        E 120 80 40 00 -60
        E 0 90 3e 64
        E 120 80 3e 00 -60
        E 120 90 3e 64
        E 120 80 3e 00 -60
        E 120 90 3c 64
        E 120 80 3c 00
        E 240 90 39 64
        E 120 80 39 00 -60
        E 0 90 3c 64
        E 120 80 3c 00 -60
        E 0 90 3c 64
        E 120 80 3c 00 -60
        E 120 90 3c 64
        E 120 80 3c 00 -60
        E 0 90 3b 64
        E 120 80 3b 00 -60
        E 0 90 37 64
        E 120 80 37 00 -60
        E 0 90 39 64
        E 120 80 39 00 -60
        E 120 90 39 64
        E 720 80 39 00
        E 1080 90 39 64
        E 120 80 39 00 -60
        E 0 90 39 64
        E 120 80 39 00 -60
        E 0 90 39 64
        E 120 80 39 00 -60
        E 120 90 37 64
        E 120 80 37 00 -60
        E 0 90 39 64
        E 120 80 39 00 -60
        E 0 90 39 64
        E 120 80 39 00 -60
        E 120 90 37 64
        E 120 80 37 00 -60
        E 0 90 3c 64
        E 120 80 3c 00 -60
        E 0 90 3c 64
        E 120 80 3c 00 -60
        E 120 90 37 64
        E 120 80 37 00 -60
        E 0 90 39 64
        E 120 80 39 00
        E 240 90 37 64
        E 120 80 37 00 -60
        E 0 90 3c 64
        E 120 80 3c 00 -60
        E 0 90 3c 64
        E 120 80 3c 00 -60
        E 120 90 37 64
        E 120 80 37 00 -60
        E 0 90 39 64
        E 120 80 39 00
        E 240 90 37 64
        E 120 80 37 00 -60
        E 0 90 37 64
        E 120 80 37 00 -60
        E 120 90 39 64
        E 120 80 39 00 -60
        E 120 90 39 64
        E 120 80 39 00 -60
        E 120 90 39 64
        E 480 80 39 00
        E 1560 90 39 64
        E 120 80 39 00 -60
        E 0 90 39 64
        E 120 80 39 00 -60
        E 0 90 39 64
        E 120 80 39 00 -60
        E 120 90 37 64
        E 120 80 37 00 -60
        E 0 90 39 64
        E 120 80 39 00 -60
        E 0 90 39 64
        E 120 80 39 00 -60
        E 120 90 37 64
        E 120 80 37 00 -60
        E 0 90 3c 64
        E 120 80 3c 00 -60
        E 0 90 3c 64
        E 120 80 3c 00 -60
        E 120 90 37 64
        E 120 80 37 00 -60
        E 0 90 39 64
        E 120 80 39 00
        E 240 90 37 64
        E 120 80 37 00 -60
        E 0 90 3c 64
        E 120 80 3c 00 -60
        E 0 90 3c 64
        E 120 80 3c 00 -60
        E 120 90 37 64
        E 120 80 37 00 -60
        E 0 90 39 64
        E 120 80 39 00
        E 240 90 37 64
        E 120 80 37 00 -60
        E 0 90 37 64
        E 120 80 37 00 -60
        E 120 90 39 64
        E 120 80 39 00 -60
        E 120 90 39 64
        E 120 80 39 00 -60
        E 120 90 39 64
        E 480 80 39 00
        E 13080 90 35 64
        E 60 90 39 64 -20
        E 60 90 3c 64 -20
        E 0 90 40 64
        E 960 80 35 00
        E 0 80 39 00
        E 0 80 3c 00
        E 0 80 40 00
        E 360 90 37 64
        E 60 90 3e 64 -20
        E 60 90 40 64 -20
        E 0 90 45 64
        E 960 80 37 00 -1
        E 0 80 3e 00 -1
        E 0 80 40 00 -1
        E 0 80 45 00
        E 360 90 35 64
        E 60 90 39 64 -20
        E 60 90 3e 64 -20
        E 0 90 43 64
        E 960 80 35 00 -1
        E 0 80 39 00 -1
        E 0 80 3e 00 -1
        E 0 80 43 00
        E 360 90 37 64
        E 60 90 3b 64 -20
        E 60 90 3e 64
        E 960 80 37 00 -1
        E 0 80 3b 00 -1
        E 0 80 3e 00
        E 360 90 35 64
        E 60 90 39 64 -20
        E 60 90 3c 64 -20
        E 0 90 40 64
        E 960 80 35 00
        E 0 80 39 00
        E 0 80 3c 00
        E 0 80 40 00
        E 360 90 37 64
        E 60 90 3b 64 -20
        E 60 90 40 64 -20
        E 0 90 45 64
        E 960 80 37 00 -1
        E 0 80 3b 00 -1
        E 0 80 40 00 -1
        E 0 80 45 00
        E 360 90 35 64
        E 60 90 39 64 -20
        E 60 90 3e 64 -20
        E 0 90 43 64
        E 960 80 35 00 -1
        E 0 80 39 00 -1
        E 0 80 3e 00 -1
        E 0 80 43 00
        E 360 90 37 64
        E 60 90 3b 64 -20
        E 60 90 3e 64
        E 960 80 37 00 -1
        E 0 80 3b 00 -1
        E 0 80 3e 00
        E 28800 90 35 64
        E 120 80 35 00 -60
        E 120 90 35 64
        E 0 90 39 64
        E 0 90 3c 64
        E 0 90 40 64
        E 120 80 35 00 -60
        E 0 80 39 00 -60
        E 0 80 3c 00 -60
        E 0 80 40 00 -60
        E 120 90 35 64
        E 120 80 35 00 -60
        E 0 90 35 64
        E 0 90 39 64
        E 0 90 3c 64
        E 0 90 40 64
        E 120 80 35 00 -60
        E 0 80 39 00 -60
        E 0 80 3c 00 -60
        E 0 80 40 00 -60
        E 120 90 35 64
        E 120 80 35 00 -60
        E 0 90 35 64
        E 0 90 39 64
        E 0 90 3c 64
        E 0 90 40 64
        E 120 80 35 00 -60
        E 0 80 39 00 -60
        E 0 80 3c 00 -60
        E 0 80 40 00 -60
        E 240 90 34 64
        E 0 90 37 64
        E 0 90 3b 64
        E 0 90 3e 64
        E 120 80 34 00 -60
        E 0 80 37 00 -60
        E 0 80 3b 00 -60
        E 0 80 3e 00 -60
        E 240 90 34 64
        E 0 90 37 64
        E 0 90 3b 64
        E 0 90 3e 64
        E 120 80 34 00 -60
        E 0 80 37 00 -60
        E 0 80 3b 00 -60
        E 0 80 3e 00 -60
        E 240 90 34 64
        E 0 90 37 64
        E 0 90 3b 64
        E 0 90 3e 64
        E 120 80 34 00 -60
        E 0 80 37 00 -60
        E 0 80 3b 00 -60
        E 0 80 3e 00 -60
        E 240 90 34 64
        E 0 90 37 64
        E 0 90 3b 64
        E 0 90 3e 64
        E 120 80 34 00 -60
        E 0 80 37 00 -60
        E 0 80 3b 00 -60
        E 0 80 3e 00 -60
        E 600 90 32 64
        E 0 90 35 64
        E 0 90 39 64
        E 0 90 3c 64
        E 120 80 32 00 -60
        E 0 80 35 00 -60
        E 0 80 39 00 -60
        E 0 80 3c 00 -60
        E 960 90 34 64
        E 0 90 37 64
        E 0 90 3b 64
        E 0 90 3e 64
        E 120 80 34 00 -60
        E 0 80 37 00 -60
        E 0 80 3b 00 -60
        E 0 80 3e 00 -60
        E 240 90 34 64
        E 0 90 37 64
        E 0 90 3b 64
        E 0 90 3e 64
        E 120 80 34 00 -60
        E 0 80 37 00 -60
        E 0 80 3b 00 -60
        E 0 80 3e 00 -60
        E 240 90 34 64
        E 0 90 37 64
        E 0 90 3b 64
        E 0 90 3e 64
        E 120 80 34 00 -60
        E 0 80 37 00 -60
        E 0 80 3b 00 -60
        E 0 80 3e 00 -60
        E 240 90 34 64
        E 0 90 37 64
        E 0 90 3b 64
        E 0 90 3e 64
        E 120 80 34 00 -60
        E 0 80 37 00 -60
        E 0 80 3b 00 -60
        E 0 80 3e 00 -60
        E 240 90 35 64
        E 0 90 39 64
        E 0 90 3c 64
        E 0 90 40 64
        E 120 80 35 00 -60
        E 0 80 39 00 -60
        E 0 80 3c 00 -60
        E 0 80 40 00 -60
        E 240 90 35 64
        E 0 90 39 64
        E 0 90 3c 64
        E 0 90 40 64
        E 120 80 35 00 -60
        E 0 80 39 00 -60
        E 0 80 3c 00 -60
        E 0 80 40 00 -60
        E 240 90 35 64
        E 0 90 39 64
        E 0 90 3c 64
        E 0 90 40 64
        E 120 80 35 00 -60
        E 0 80 39 00 -60
        E 0 80 3c 00 -60
        E 0 80 40 00 -60
        E 240 90 35 64
        E 0 90 39 64
        E 0 90 3c 64
        E 0 90 40 64
        E 120 80 35 00 -60
        E 0 80 39 00 -60
        E 0 80 3c 00 -60
        E 0 80 40 00 -60
        E 240 90 34 64
        E 0 90 37 64
        E 0 90 3b 64
        E 0 90 3e 64
        E 120 80 34 00 -60
        E 0 80 37 00 -60
        E 0 80 3b 00 -60
        E 0 80 3e 00 -60
        E 240 90 34 64
        E 0 90 37 64
        E 0 90 3b 64
        E 0 90 3e 64
        E 120 80 34 00 -60
        E 0 80 37 00 -60
        E 0 80 3b 00 -60
        E 0 80 3e 00 -60
        E 240 90 34 64
        E 0 90 37 64
        E 0 90 3b 64
        E 0 90 3e 64
        E 120 80 34 00 -60
        E 0 80 37 00 -60
        E 0 80 3b 00 -60
        E 0 80 3e 00 -60
        E 240 90 34 64
        E 0 90 37 64
        E 0 90 3b 64
        E 0 90 3e 64
        E 120 80 34 00 -60
        E 0 80 37 00 -60
        E 0 80 3b 00 -60
        E 0 80 3e 00 -60
        E 240 90 32 64
        E 0 90 35 64
        E 0 90 39 64
        E 0 90 3c 64
        E 120 80 32 00 -60
        E 0 80 35 00 -60
        E 0 80 39 00 -60
        E 0 80 3c 00 -60
        E 240 90 32 64
        E 0 90 35 64
        E 0 90 39 64
        E 0 90 3c 64
        E 120 80 32 00 -60
        E 0 80 35 00 -60
        E 0 80 39 00 -60
        E 0 80 3c 00 -60
        E 240 90 32 64
        E 0 90 35 64
        E 0 90 39 64
        E 0 90 3c 64
        E 120 80 32 00 -60
        E 0 80 35 00 -60
        E 0 80 39 00 -60
        E 0 80 3c 00 -60
        E 240 90 32 64
        E 0 90 35 64
        E 0 90 39 64
        E 0 90 3c 64
        E 120 80 32 00 -60
        E 0 80 35 00 -60
        E 0 80 39 00 -60
        E 0 80 3c 00 -60
        E 240 90 34 64
        E 0 90 37 64
        E 0 90 3b 64
        E 0 90 3e 64
        E 120 80 34 00 -60
        E 0 80 37 00 -60
        E 0 80 3b 00 -60
        E 0 80 3e 00 -60
        E 0 90 34 64
        E 120 80 34 00 -60
        E 240 90 34 64
        E 0 90 37 64
        E 0 90 3b 64
        E 0 90 3e 64
        E 120 80 34 00 -60
        E 0 80 37 00 -60
        E 0 80 3b 00 -60
        E 0 80 3e 00 -60
        E 0 90 34 64
        E 120 80 34 00 -60
        E 240 90 34 64
        E 0 90 37 64
        E 0 90 3b 64
        E 0 90 3e 64
        E 120 80 34 00 -60
        E 0 80 37 00 -60
        E 0 80 3b 00 -60
        E 0 80 3e 00 -60
        E 0 90 34 64
        E 120 80 34 00 -60
        E 43560 b0 7b 00
        GUID {06567883-1949-465A-9693-056E6F061487}
        IGNTEMPO 0 120.00000000 4 4
        SRCCOLOR 43
        VELLANE 132 128 60
        COLORMAP "C:\Program Files (x86)\REAPER\Data\color_maps\rockband_guitarbass.png"
        CFGEDITVIEW -2497.647220 31.401693 0 12 0 0 0
        CFGEDIT 1 1 0 1 1 1 1 1 1 1 1 0.25000000 -8 0 1360 744 0 2 1 2 0.00000000 0 1 0 0 0.500000 0 0 1.000000 64
        KEYSNAP 0 0 "102034050607" 0 "Major"
        EVTFILTER 0 -1 -1 -1 -1 0 1 0 0 -1.00000000 -1.00000000
      >
    >
  >
  <TRACK '{7DA071FF-6EF4-43BE-A9AB-FB74A5A33D54}'
    NAME "PART KEYS_ANIM_LH"
    PEAKCOL 16576
    BEAT -1
    AUTOMODE 0
    VOLPAN 1.00000000000000 0.00000000000000 -1.00000000000000 -1.00000000000000 1.00000000000000
    MUTESOLO 0 0 0
    IPHASE 0
    ISBUS 0 0
    BUSCOMP 0 0
    SHOWINMIX 1 0.666700 0.500000 1 0.500000 -1 -1 -1
    FREEMODE 0
    SEL 0
    REC 0 0 0 0 0 0 0
    VU 2
    TRACKHEIGHT 0 0
    INQ 0 0 0 0.5000000000 100 0 0 100
    NCHAN 2
    FX 1
    TRACKID {7DA071FF-6EF4-43BE-A9AB-FB74A5A33D54}
    PERF 0
    MIDIOUT -1
    MAINSEND 1 0
    <ITEM
      POSITION 0.00000000000000
      SNAPOFFS 0.00000000000000
      LENGTH 145.04278159266019
      LOOP 0
      ALLTAKES 0
      SEL 0
      FADEIN 1 0.000000 0.000000 1 0
      FADEOUT 1 0.000000 0.000000 1 0
      MUTE 0
      IGUID {53F5ED99-A57E-42DB-92AA-C3FA66A100F9}
      IID 31
      NAME "PART KEYS_ANIM_LH"
      VOLPAN 1.000000 0.000000 1.000000 -1.000000
      SOFFS 0.00000000000000 0.00000000000000
      PLAYRATE 1.00000000000000 1 0.00000000000000 -1
      CHANMODE 0
      GUID {5E5F2A62-A0DE-46DF-9854-FDB1285DC566}
      <SOURCE MIDI
        HASDATA 1 480 QN
        POOLEDEVTS {4275710D-05A5-465D-BEC8-8AD73F6C3576}
        <X 0 0
          /wNQQVJUIEtFWVNfQU5JTV9MSA==
        >
        E 138240 b0 7b 00
        GUID {14A072DE-EC47-465F-A8F5-27D540C34AB5}
        IGNTEMPO 0 120.00000000 4 4
        SRCCOLOR 50
        VELLANE 132 128 60
        COLORMAP "C:\Program Files (x86)\REAPER\Data\color_maps\rockband_guitarbass.png"
        CFGEDITVIEW -10910.476342 6.582274 61 12 0 0 0
        CFGEDIT 1 1 0 1 1 1 1 1 1 1 1 0.12500000 -8 0 1360 744 0 0 1 2 0.00000000 0 1 0 0 0.500000 0 0 1.000000 64
        KEYSNAP 0 0 "102034050607" 0 "Major"
        EVTFILTER 0 -1 -1 -1 -1 0 1 0 0 -1.00000000 -1.00000000
      >
    >
  >
  <TRACK '{F21FAECF-37A7-4F22-8427-BCCC669ADC20}'
    NAME "EVENTS"
    PEAKCOL 16576
    BEAT -1
    AUTOMODE 0
    VOLPAN 1.00000000000000 0.00000000000000 -1.00000000000000 -1.00000000000000 1.00000000000000
    MUTESOLO 0 0 0
    IPHASE 0
    ISBUS 0 0
    BUSCOMP 0 0
    SHOWINMIX 1 0.666700 0.500000 1 0.500000 -1 -1 -1
    FREEMODE 0
    SEL 0
    REC 0 0 0 0 0 0 0
    VU 2
    TRACKHEIGHT 0 0
    INQ 0 0 0 0.5000000000 100 0 0 100
    NCHAN 2
    FX 1
    TRACKID {F21FAECF-37A7-4F22-8427-BCCC669ADC20}
    PERF 0
    MIDIOUT -1
    MAINSEND 1 0
    <ITEM
      POSITION 0.00000000000000
      SNAPOFFS 0.00000000011175
      LENGTH 145.04278159266019
      LOOP 0
      ALLTAKES 0
      SEL 0
      FADEIN 1 0.000000 0.000000 1 0
      FADEOUT 1 0.000000 0.000000 1 0
      MUTE 0
      IGUID {6BB894E9-DF68-4B8E-AE47-CEAEF40CB071}
      IID 13
      NAME "EVENTS"
      VOLPAN 1.000000 0.000000 1.000000 -1.000000
      SOFFS -0.00000000011175 -0.00000000021999
      PLAYRATE 1.00000000000000 1 0.00000000000000 -1
      CHANMODE 0
      GUID {9AB07180-98DD-4F8D-A6F2-B208FB2263CD}
      <SOURCE MIDI
        HASDATA 1 480 QN
        POOLEDEVTS {83198565-0ED1-4353-82B9-07AE55C0F221}
        <X 0 0
          /wNFVkVOVFM=
        >
        <X 2880 0
          /wFbcHJjX2ludHJvX2Fd
        >
        <X 0 0
          /wFbbXVzaWNfc3RhcnRd
        >
        <X 0 0
          /wFbY3Jvd2Rfbm9jbGFwXQ==
        >
        <X 0 0
          /wFbY3Jvd2RfbWVsbG93XQ==
        >
        <X 17280 0
          /wFbcHJjX2ludHJvX2Jd
        >
        <X 1440 0
          /wFbY3Jvd2RfY2xhcF0=
        >
        <X 10080 0
          /wFbcHJjX2Nob3J1c18xXQ==
        >
        <X 0 0
          /wFbY3Jvd2RfaW50ZW5zZV0=
        >
        <X 11520 0
          /wFbcHJjX3ZlcnNlXzFd
        >
        <X 0 0
          /wFbY3Jvd2Rfbm9ybWFsXQ==
        >
        <X 11520 0
          /wFbY3Jvd2RfaW50ZW5zZV0=
        >
        <X 0 0
          /wFbcHJjX2Nob3J1c18yXQ==
        >
        <X 11520 0
          /wFbcHJjX2JyZWFrXQ==
        >
        <X 0 0
          /wFbY3Jvd2Rfbm9jbGFwXQ==
        >
        <X 0 0
          /wFbY3Jvd2RfbWVsbG93XQ==
        >
        <X 17280 0
          /wFbY3Jvd2RfY2xhcF0=
        >
        <X 0 0
          /wFbcHJjX3ZlcnNlXzJd
        >
        <X 11520 0
          /wFbcHJjX2Nob3J1c18zYV0=
        >
        <X 0 0
          /wFbY3Jvd2RfaW50ZW5zZV0=
        >
        <X 20160 0
          /wFbcHJjX2Nob3J1c18zYl0=
        >
        <X 20640 0
          /wFbbXVzaWNfZW5kXQ==
        >
        <X 0 0
          /wFbY3Jvd2RfcmVhbHRpbWVd
        >
        <X 2395 0
          /wFbZW5kXQ==
        >
        E 5 b0 7b 00
        GUID {6BF55F60-11C5-4F7B-8389-82452A994980}
        IGNTEMPO 0 120.00000000 4 4
        SRCCOLOR 6
        VELLANE 132 128 60
        COLORMAP "C:\Program Files (x86)\REAPER\Data\color_maps\rockband_guitarbass.png"
        TEXTSTRINGFILE "C:\Program Files (x86)\REAPER\Data\Text_Strings\Text Events List - Events.txt"
        CFGEDITVIEW -10436.473776 7.515024 61 12 0 0 0
        CFGEDIT 1 1 0 1 1 1 1 1 1 1 1 0.25000000 -8 -8 1370 736 0 0 1 2 0.12500000 0 1 0 0 0.500000 0 0 1.000000 64
        KEYSNAP 0 0 "102034050607" 0 "Major"
        EVTFILTER 0 -1 -1 -1 -1 0 1 0 0 -1.00000000 -1.00000000
      >
    >
  >
  <TRACK '{B99B0467-90B5-43D5-B05E-101579C1B9F3}'
    NAME "VENUE"
    PEAKCOL 16576
    BEAT -1
    AUTOMODE 0
    VOLPAN 1.00000000000000 0.00000000000000 -1.00000000000000 -1.00000000000000 1.00000000000000
    MUTESOLO 0 0 0
    IPHASE 0
    ISBUS 1 1
    BUSCOMP 0 0
    SHOWINMIX 1 0.666700 0.500000 1 0.500000 -1 -1 -1
    FREEMODE 0
    SEL 1
    REC 0 0 0 0 0 0 0
    VU 2
    TRACKHEIGHT 0 0
    INQ 0 0 0 0.5000000000 100 0 0 100
    NCHAN 2
    FX 1
    TRACKID {B99B0467-90B5-43D5-B05E-101579C1B9F3}
    PERF 0
    MIDIOUT -1
    MAINSEND 1 0
    <ITEM
      POSITION 0.00000000000000
      SNAPOFFS 0.00000000000000
      LENGTH 145.04278159266019
      LOOP 0
      ALLTAKES 0
      SEL 1
      FADEIN 1 0.000000 0.000000 1 0
      FADEOUT 1 0.000000 0.000000 1 0
      MUTE 0
      IGUID {20E81D48-4FFD-4812-8DDA-5E824241EACA}
      IID 7
      NAME "VENUE"
      VOLPAN 1.000000 0.000000 1.000000 -1.000000
      SOFFS 0.00000000000000 0.00000000000000
      PLAYRATE 1.00000000000000 1 0.00000000000000 -1
      CHANMODE 0
      GUID {B06F892A-B70A-4A24-9F17-E09D4571CDB8}
      <SOURCE MIDI
        HASDATA 1 480 QN
        POOLEDEVTS {246F9FD3-4016-4D6C-84C4-CBD481D6CD5E}
        <X 0 0
          /wNWRU5VRQ==
        >
        <X 0 0
          /wFbY29vcF9hbGxfbmVhcl0=
        >
        <X 2880 0
          /wFbY29vcF9nX2Nsb3NldXBfaGFuZF0=
        >
        <X 1440 0
          /wFbY29vcF9nX2Nsb3NldXBfaGFuZF0=
        >
        <X 1440 0
          /wFbY29vcF9kX25lYXJd
        >
        <X 1440 0
          /wFbY29vcF9kX25lYXJd
        >
        <X 1440 0
          /wFbY29vcF9rX25lYXJd
        >
        <X 0 0
          /wFbY29vcF9nX25lYXJd
        >
        <X 2880 0
          /wFbY29vcF9rX25lYXJd
        >
        <X 0 0
          /wFbY29vcF9kX25lYXJd
        >
        <X 2880 0
          /wFbY29vcF9nX25lYXJd
        >
        <X 2880 0
          /wFbY29vcF9mcm9udF9iZWhpbmRd
        >
        <X 2880 0
          /wFbY29vcF9kX25lYXJd
        >
        <X 2880 0
          /wFbY29vcF9kX25lYXJd
        >
        <X 2880 0
          /wFbY29vcF9nX25lYXJd
        >
        <X 2880 0
          /wFbY29vcF9nX25lYXJd
        >
        <X 1440 0
          /wFbY29vcF9kX25lYXJd
        >
        <X 1440 0
          /wFbY29vcF92X25lYXJd
        >
        <X 1440 0
          /wFbY29vcF92X25lYXJd
        >
        <X 1440 0
          /wFbY29vcF92X25lYXJd
        >
        <X 1440 0
          /wFbY29vcF9iX25lYXJd
        >
        <X 1680 0
          /wFbY29vcF92X25lYXJd
        >
        <X 3120 0
          /wFbY29vcF92X25lYXJd
        >
        <X 960 0
          /wFbY29vcF9iX25lYXJd
        >
        <X 1920 0
          /wFbY29vcF92X25lYXJd
        >
        <X 960 0
          /wFbY29vcF92X25lYXJd
        >
        <X 960 0
          /wFbY29vcF92X25lYXJd
        >
        <X 960 0
          /wFbY29vcF92X25lYXJd
        >
        <X 960 0
          /wFbY29vcF9rX2Nsb3NldXBfaGFuZF0=
        >
        <X 0 0
          /wFbY29vcF9nX2Nsb3NldXBfaGFuZF0=
        >
        <X 1440 0
          /wFbY29vcF9iX25lYXJd
        >
        <X 2880 0
          /wFbY29vcF9kX25lYXJd
        >
        <X 2880 0
          /wFbZGlyZWN0ZWRfYWxsXQ==
        >
        <X 2880 0
          /wFbY29vcF9kX25lYXJd
        >
        <X 2880 0
          /wFbZGlyZWN0ZWRfZHVvX2d1aXRhcl0=
        >
        <X 2880 0
          /wFbY29vcF9iX2Nsb3NldXBfaGFuZF0=
        >
        <X 1440 0
          /wFbZGlyZWN0ZWRfZHJ1bXNfa2Rd
        >
        <X 120 0
          /wFbZGlyZWN0ZWRfZHJ1bXNfa2Rd
        >
        <X 1320 0
          /wFbY29vcF9kX25lYXJd
        >
        <X 240 0
          /wFbY29vcF9nX2Nsb3NldXBfaGFuZF0=
        >
        <X 2640 0
          /wFbY29vcF9nX2Nsb3NldXBfaGVhZF0=
        >
        <X 2880 0
          /wFbY29vcF92X2Nsb3NldXBd
        >
        <X 2880 0
          /wFbY29vcF9mcm9udF9iZWhpbmRd
        >
        E 138240 b0 7b 00
        GUID {58804C56-AE9D-40C5-9BE1-958D024E095D}
        IGNTEMPO 0 120.00000000 4 4
        SRCCOLOR 54
        VELLANE 132 128 60
        COLORMAP "C:\Program Files\REAPER (x64)\Data\color_maps\rockband_guitarbass.png"
        CFGEDITVIEW -10202.472651 7.687387 61 12 0 0 0
        CFGEDIT 1 1 0 1 1 0 1 1 1 1 1 0.25000000 -8 0 1360 744 0 0 1 1 0.00000000 0 1 0 0 0.500000 0 0 1.000000 64
        KEYSNAP 0 9 "102034050607" 0 "Major"
        EVTFILTER 0 -1 -1 -1 -1 0 1 0 0 -1.00000000 -1.00000000
      >
    >
  >
  <TRACK '{5380643C-6F93-4FE6-B55C-2AA359D0BD05}'
    NAME "CAMERA"
    PEAKCOL 16576
    BEAT -1
    AUTOMODE 0
    VOLPAN 1.00000000000000 0.00000000000000 -1.00000000000000 -1.00000000000000 1.00000000000000
    MUTESOLO 0 0 0
    IPHASE 0
    ISBUS 0 0
    BUSCOMP 0 0
    SHOWINMIX 1 0.666700 0.500000 1 0.500000 -1 -1 -1
    FREEMODE 0
    SEL 0
    REC 0 0 0 0 0 0 0
    VU 2
    TRACKHEIGHT 0 0
    INQ 0 0 0 0.5000000000 100 0 0 100
    NCHAN 2
    FX 1
    TRACKID {5380643C-6F93-4FE6-B55C-2AA359D0BD05}
    PERF 0
    MIDIOUT -1
    <MIDINOTENAMES
      0 102 "RANDOM"
      0 100 "All_Behind"
      0 99 "All_Far"
      0 98 "All_Near"
      0 96 "Front_Behind"
      0 95 "Front_Near"
      0 93 "D_Behind"
      0 92 "D_Near"
      0 91 "V_Behind"
      0 90 "V_Near"
      0 89 "B_Behind"
      0 88 "B_Near"
      0 87 "G_Behind"
      0 86 "G_Near"
      0 85 "K_Behind"
      0 84 "K_Near"
      0 82 "D_Hand"
      0 81 "D_Head"
      0 80 "V_Closeup"
      0 79 "B_Hand"
      0 78 "B_Head"
      0 77 "G_Hand"
      0 76 "G_Head"
      0 75 "K_Hand"
      0 74 "K_Head"
      0 72 "DV_Near"
      0 71 "BD_Near"
      0 70 "DG_Near"
      0 69 "BV_Behind"
      0 68 "BV_Near"
      0 67 "GV_Behind"
      0 66 "GV_Near"
      0 65 "KV_Behind"
      0 64 "KV_Near"
      0 63 "BG_Behind"
      0 62 "BG_Near"
      0 61 "BK_Behind"
      0 60 "BK_Near"
      0 59 "GK_Behind"
      0 58 "GK_Near"
      0 56 "D_All"
      0 55 "D_All_Cam"
      0 54 "D_All_LT*"
      0 53 "D_All_Yeah"
      0 52 "D_BRE"
      0 51 "D_BRE_Jump"
      0 49 "D_Drums_NP"
      0 48 "D_Bass_NP"
      0 47 "D_Gtr_NP"
      0 46 "D_Vox_NP"
      0 45 "D_Keys_NP"
      0 43 "D_Drums"
      0 42 "D_Drums_LT*"
      0 41 "D_Vocals"
      0 40 "D_Bass"
      0 39 "D_Gtr"
      0 38 "D_Keys"
      0 36 "D_Vox_Cam_PR"
      0 35 "D_Vox_Cam_PT"
      0 34 "D_Gtr_Cam_PR"
      0 33 "D_Gtr_Cam_PT"
      0 32 "D_Keys_Cam"
      0 31 "D_Bass_Cam"
      0 29 "D_Stagedive"
      0 28 "D_Crowdsurf"
      0 26 "D_Vox_CLS"
      0 25 "D_Bass_CLS*"
      0 24 "D_Gtr_CLS*"
      0 23 "D_Drums_KD*"
      0 21 "D_Drums_Point"
      0 20 "D_Crowd_Gtr"
      0 19 "D_Crowd_Bass"
      0 17 "D_Duo_Drums"
      0 16 "D_Duo_Gtr"
      0 15 "D_Duo_Bass"
      0 14 "D_Duo_KV"
      0 13 "D_Duo_GB"
      0 12 "D_Duo_KB"
      0 11 "D_Duo_KG"
      0 10 "D_Crowd*"
    >
    MAINSEND 1 0
    <FXCHAIN
      SHOW 0
      LASTSEL 0
      DOCKED 0
    >
    <ITEM
      POSITION 0.00000000000000
      SNAPOFFS 0.00000000000000
      LENGTH 145.04278159266019
      LOOP 0
      ALLTAKES 0
      SEL 0
      FADEIN 1 0.000000 0.000000 1 0
      FADEOUT 1 0.000000 0.000000 1 0
      MUTE 0
      IGUID {2001BAAB-3D8B-4E09-B665-7BB0EE5EE0B2}
      IID 8
      NAME "CAMERA"
      VOLPAN 1.000000 0.000000 1.000000 -1.000000
      SOFFS 0.00000000000000 0.00000000000000
      PLAYRATE 1.00000000000000 1 0.00000000000000 -1
      CHANMODE 0
      GUID {E37A73B9-D55C-4174-B7CE-7BD3861C27B3}
      <SOURCE MIDI
        HASDATA 1 480 QN
        POOLEDEVTS {EDF445E4-F507-422F-A6C9-8B50CB7E1A2F}
        <X 0 0
          /wFbY29vcF9hbGxfbmVhcl0=
        >
        E 0 90 62 60
        E 120 80 62 00
        <X 2760 0
          /wFbY29vcF9nX2Nsb3NldXBfaGFuZF0=
        >
        E 0 90 4d 60
        E 120 80 4d 00
        <X 1320 0
          /wFbY29vcF9nX2Nsb3NldXBfaGFuZF0=
        >
        E 0 90 4d 60
        E 120 80 4d 00
        <X 1320 0
          /wFbY29vcF9kX25lYXJd
        >
        E 0 90 5c 60
        E 120 80 5c 00
        <X 1320 0
          /wFbY29vcF9kX25lYXJd
        >
        E 0 90 5c 60
        E 120 80 5c 00
        <X 1320 0
          /wFbY29vcF9rX25lYXJd
        >
        <X 0 0
          /wFbY29vcF9nX25lYXJd
        >
        E 0 90 54 60
        E 0 90 56 60
        E 120 80 54 00
        E 0 80 56 00
        <X 2760 0
          /wFbY29vcF9rX25lYXJd
        >
        <X 0 0
          /wFbY29vcF9kX25lYXJd
        >
        E 0 90 54 60
        E 0 90 5c 60
        E 120 80 54 00
        E 0 80 5c 00
        <X 2760 0
          /wFbY29vcF9nX25lYXJd
        >
        E 0 90 56 60
        E 120 80 56 00
        <X 2760 0
          /wFbY29vcF9mcm9udF9iZWhpbmRd
        >
        E 0 90 60 60
        E 120 80 60 00
        <X 2760 0
          /wFbY29vcF9kX25lYXJd
        >
        E 0 90 5c 60
        E 120 80 5c 00
        <X 2760 0
          /wFbY29vcF9kX25lYXJd
        >
        E 0 90 5c 60
        E 120 80 5c 00
        <X 2760 0
          /wFbY29vcF9nX25lYXJd
        >
        E 0 90 56 60
        E 120 80 56 00
        <X 2760 0
          /wFbY29vcF9nX25lYXJd
        >
        E 0 90 56 60
        E 120 80 56 00
        <X 1320 0
          /wFbY29vcF9kX25lYXJd
        >
        E 0 90 5c 60
        E 120 80 5c 00
        <X 1320 0
          /wFbY29vcF92X25lYXJd
        >
        E 0 90 5a 60
        E 120 80 5a 00
        <X 1320 0
          /wFbY29vcF92X25lYXJd
        >
        E 0 90 5a 60
        E 120 80 5a 00
        <X 1320 0
          /wFbY29vcF92X25lYXJd
        >
        E 0 90 5a 60
        E 120 80 5a 00
        <X 1320 0
          /wFbY29vcF9iX25lYXJd
        >
        E 0 90 58 60
        E 120 80 58 00
        <X 1560 0
          /wFbY29vcF92X25lYXJd
        >
        E 0 90 5a 60
        E 120 80 5a 00
        <X 3000 0
          /wFbY29vcF92X25lYXJd
        >
        E 0 90 5a 60
        E 120 80 5a 00
        <X 840 0
          /wFbY29vcF9iX25lYXJd
        >
        E 0 90 58 60
        E 120 80 58 00
        <X 1800 0
          /wFbY29vcF92X25lYXJd
        >
        E 0 90 5a 60
        E 120 80 5a 00
        <X 840 0
          /wFbY29vcF92X25lYXJd
        >
        E 0 90 5a 60
        E 120 80 5a 00
        <X 840 0
          /wFbY29vcF92X25lYXJd
        >
        E 0 90 5a 60
        E 120 80 5a 00
        <X 840 0
          /wFbY29vcF92X25lYXJd
        >
        E 0 90 5a 60
        E 120 80 5a 00
        <X 840 0
          /wFbY29vcF9rX2Nsb3NldXBfaGFuZF0=
        >
        <X 0 0
          /wFbY29vcF9nX2Nsb3NldXBfaGFuZF0=
        >
        E 0 90 4b 60
        E 0 90 4d 60
        E 120 80 4b 00
        E 0 80 4d 00
        <X 1320 0
          /wFbY29vcF9iX25lYXJd
        >
        E 0 90 58 60
        E 120 80 58 00
        <X 2760 0
          /wFbY29vcF9kX25lYXJd
        >
        E 0 90 5c 60
        E 120 80 5c 00
        <X 2760 0
          /wFbZGlyZWN0ZWRfYWxsXQ==
        >
        E 0 90 38 60
        E 120 80 38 00
        <X 2760 0
          /wFbY29vcF9kX25lYXJd
        >
        E 0 90 5c 60
        E 120 80 5c 00
        <X 2760 0
          /wFbZGlyZWN0ZWRfZHVvX2d1aXRhcl0=
        >
        E 0 90 10 60
        E 120 80 10 00
        <X 2760 0
          /wFbY29vcF9iX2Nsb3NldXBfaGFuZF0=
        >
        E 0 90 4f 60
        E 120 80 4f 00
        <X 1320 0
          /wFbZGlyZWN0ZWRfZHJ1bXNfa2Rd
        >
        E 0 90 17 60
        <X 120 0
          /wFbZGlyZWN0ZWRfZHJ1bXNfa2Rd
        >
        E 0 80 17 00
        <X 1320 0
          /wFbY29vcF9kX25lYXJd
        >
        E 0 90 5c 60
        E 120 80 5c 00
        <X 120 0
          /wFbY29vcF9nX2Nsb3NldXBfaGFuZF0=
        >
        E 0 90 4d 60
        E 120 80 4d 00
        <X 2520 0
          /wFbY29vcF9nX2Nsb3NldXBfaGVhZF0=
        >
        E 0 90 4c 60
        E 120 80 4c 00
        <X 2760 0
          /wFbY29vcF92X2Nsb3NldXBd
        >
        E 0 90 50 60
        E 120 80 50 00
        <X 2760 0
          /wFbY29vcF9mcm9udF9iZWhpbmRd
        >
        E 0 90 60 60
        E 120 80 60 00
        E 63240 b0 7b 00
        GUID {0AB137A2-8704-4932-9C20-8114A0A3BC29}
        IGNTEMPO 0 120.00000000 4 4
        SRCCOLOR 55
        VELLANE 132 128 60
        COLORMAP "C:\Program Files\REAPER (x64)\Data\color_maps\rockband_guitarbass.png"
        CFGEDITVIEW 66957.571710 84.145831 1 12 0 0 0
        CFGEDIT 1 1 0 1 1 0 1 1 1 1 1 0.25000000 -8 0 1360 744 0 2 1 1 0.00000000 0 1 0 0 0.500000 0 0 1.000000 64
        KEYSNAP 0 9 "102034050607" 0 "Major"
        EVTFILTER 0 -1 -1 -1 -1 0 1 0 0 -1.00000000 -1.00000000
      >
    >
  >
  <TRACK '{2F8FAB6D-1803-43D0-9278-531FE891BA99}'
    NAME "LIGHTING"
    PEAKCOL 16576
    BEAT -1
    AUTOMODE 0
    VOLPAN 1.00000000000000 0.00000000000000 -1.00000000000000 -1.00000000000000 1.00000000000000
    MUTESOLO 0 0 0
    IPHASE 0
    ISBUS 2 -1
    BUSCOMP 0 0
    SHOWINMIX 1 0.666700 0.500000 1 0.500000 -1 -1 -1
    FREEMODE 0
    SEL 0
    REC 0 0 0 0 0 0 0
    VU 2
    TRACKHEIGHT 0 0
    INQ 0 0 0 0.5000000000 100 0 0 100
    NCHAN 2
    FX 1
    TRACKID {2F8FAB6D-1803-43D0-9278-531FE891BA99}
    PERF 0
    MIDIOUT -1
    MAINSEND 1 0
    <ITEM
      POSITION 0.00000000000000
      SNAPOFFS 0.00000000000000
      LENGTH 145.04278159266019
      LOOP 0
      ALLTAKES 0
      SEL 0
      FADEIN 1 0.000000 0.000000 1 0
      FADEOUT 1 0.000000 0.000000 1 0
      MUTE 0
      IGUID {BAC2C2F0-1AF0-41FE-90C1-FA5BB4FA8F2B}
      IID 9
      NAME "LIGHTING"
      VOLPAN 1.000000 0.000000 1.000000 -1.000000
      SOFFS 0.00000000000000 0.00000000000000
      PLAYRATE 1.00000000000000 1 0.00000000000000 -1
      CHANMODE 0
      GUID {9381BCF7-AEA8-4CEF-B2C4-D1CF346B9480}
      <SOURCE MIDI
        HASDATA 1 480 QN
        POOLEDEVTS {9BE184A7-3A48-4FED-9FFE-E402A5E2E736}
        E 138240 b0 7b 00
        GUID {162D69B6-A5E0-4FD2-B2FF-19DDFD35D03C}
        IGNTEMPO 0 120.00000000 4 4
        SRCCOLOR 56
        VELLANE 132 128 60
        COLORMAP "C:\Program Files\REAPER (x64)\Data\color_maps\rockband_guitarbass.png"
      >
    >
  >
  <TRACK '{EDAD67E2-CF56-4D7B-9679-1EA56BEEEA58}'
    NAME "BEAT"
    PEAKCOL 16576
    BEAT -1
    AUTOMODE 0
    VOLPAN 1.00000000000000 0.00000000000000 -1.00000000000000 -1.00000000000000 1.00000000000000
    MUTESOLO 0 0 0
    IPHASE 0
    ISBUS 0 0
    BUSCOMP 0 0
    SHOWINMIX 1 0.666700 0.500000 1 0.500000 -1 -1 -1
    FREEMODE 0
    SEL 0
    REC 0 0 0 0 0 0 0
    VU 2
    TRACKHEIGHT 0 0
    INQ 0 0 0 0.5000000000 100 0 0 100
    NCHAN 2
    FX 1
    TRACKID {EDAD67E2-CF56-4D7B-9679-1EA56BEEEA58}
    PERF 0
    MIDIOUT -1
    MAINSEND 1 0
    <ITEM
      POSITION 0.00000000000000
      SNAPOFFS 0.00000000000000
      LENGTH 145.04278159266019
      LOOP 0
      ALLTAKES 0
      SEL 0
      FADEIN 1 0.000000 0.000000 1 0
      FADEOUT 1 0.000000 0.000000 1 0
      MUTE 0
      IGUID {E067C800-3603-425B-9A41-36D879D5A767}
      IID 14
      NAME "BEAT"
      VOLPAN 1.000000 0.000000 1.000000 -1.000000
      SOFFS 0.00000000000000 0.00000000000000
      PLAYRATE 1.00000000000000 1 0.00000000000000 -1
      CHANMODE 0
      GUID {74658132-D8AA-4E54-B23C-87844317749A}
      <SOURCE MIDI
        HASDATA 1 480 QN
        POOLEDEVTS {89DCAC80-ECD9-4494-B93D-90E7EE84D45D}
        E 0 96 0c 64
        E 120 86 0c 00
        E 360 96 0d 64
        E 120 86 0d 00
        E 360 96 0d 64
        E 120 86 0d 00
        E 360 96 0d 64
        E 120 86 0d 00
        E 360 96 0c 64
        E 120 86 0c 00
        E 360 96 0d 64
        E 120 86 0d 00
        E 360 96 0d 64
        E 120 86 0d 00
        E 360 96 0d 64
        E 120 86 0d 00
        E 360 96 0c 64
        E 120 86 0c 00
        E 360 96 0d 64
        E 120 86 0d 00
        E 360 96 0d 64
        E 120 86 0d 00
        E 360 96 0d 64
        E 120 86 0d 00
        E 360 96 0c 64
        E 120 86 0c 00
        E 360 96 0d 64
        E 120 86 0d 00
        E 360 96 0d 64
        E 120 86 0d 00
        E 360 96 0d 64
        E 120 86 0d 00
        E 360 96 0c 64
        E 120 86 0c 00
        E 360 96 0d 64
        E 120 86 0d 00
        E 360 96 0d 64
        E 120 86 0d 00
        E 360 96 0d 64
        E 120 86 0d 00
        E 360 96 0c 64
        E 120 86 0c 00
        E 360 96 0d 64
        E 120 86 0d 00
        E 360 96 0d 64
        E 120 86 0d 00
        E 360 96 0d 64
        E 120 86 0d 00
        E 360 96 0c 64
        E 120 86 0c 00
        E 360 96 0d 64
        E 120 86 0d 00
        E 360 96 0d 64
        E 120 86 0d 00
        E 360 96 0d 64
        E 120 86 0d 00
        E 360 96 0c 64
        E 120 86 0c 00
        E 360 96 0d 64
        E 120 86 0d 00
        E 360 96 0d 64
        E 120 86 0d 00
        E 360 96 0d 64
        E 120 86 0d 00
        E 360 96 0c 64
        E 120 86 0c 00
        E 360 96 0d 64
        E 120 86 0d 00
        E 360 96 0d 64
        E 120 86 0d 00
        E 360 96 0d 64
        E 120 86 0d 00
        E 360 96 0c 64
        E 120 86 0c 00
        E 360 96 0d 64
        E 120 86 0d 00
        E 360 96 0d 64
        E 120 86 0d 00
        E 360 96 0d 64
        E 120 86 0d 00
        E 360 96 0c 64
        E 120 86 0c 00
        E 360 96 0d 64
        E 120 86 0d 00
        E 360 96 0d 64
        E 120 86 0d 00
        E 360 96 0d 64
        E 120 86 0d 00
        E 360 96 0c 64
        E 120 86 0c 00
        E 360 96 0d 64
        E 120 86 0d 00
        E 360 96 0d 64
        E 120 86 0d 00
        E 360 96 0d 64
        E 120 86 0d 00
        E 360 96 0c 64
        E 120 86 0c 00
        E 360 96 0d 64
        E 120 86 0d 00
        E 360 96 0d 64
        E 120 86 0d 00
        E 360 96 0d 64
        E 120 86 0d 00
        E 360 96 0c 64
        E 120 86 0c 00
        E 360 96 0d 64
        E 120 86 0d 00
        E 360 96 0d 64
        E 120 86 0d 00
        E 360 96 0d 64
        E 120 86 0d 00
        E 360 96 0c 64
        E 120 86 0c 00
        E 360 96 0d 64
        E 120 86 0d 00
        E 360 96 0d 64
        E 120 86 0d 00
        E 360 96 0d 64
        E 120 86 0d 00
        E 360 96 0c 64
        E 120 86 0c 00
        E 360 96 0d 64
        E 120 86 0d 00
        E 360 96 0d 64
        E 120 86 0d 00
        E 360 96 0d 64
        E 120 86 0d 00
        E 360 96 0c 64
        E 120 86 0c 00
        E 360 96 0d 64
        E 120 86 0d 00
        E 360 96 0d 64
        E 120 86 0d 00
        E 360 96 0d 64
        E 120 86 0d 00
        E 360 96 0c 64
        E 120 86 0c 00
        E 360 96 0d 64
        E 120 86 0d 00
        E 360 96 0d 64
        E 120 86 0d 00
        E 360 96 0d 64
        E 120 86 0d 00
        E 360 96 0c 64
        E 120 86 0c 00
        E 360 96 0d 64
        E 120 86 0d 00
        E 360 96 0d 64
        E 120 86 0d 00
        E 360 96 0d 64
        E 120 86 0d 00
        E 360 96 0c 64
        E 120 86 0c 00
        E 360 96 0d 64
        E 120 86 0d 00
        E 360 96 0d 64
        E 120 86 0d 00
        E 360 96 0d 64
        E 120 86 0d 00
        E 360 96 0c 64
        E 120 86 0c 00
        E 360 96 0d 64
        E 120 86 0d 00
        E 360 96 0d 64
        E 120 86 0d 00
        E 360 96 0d 64
        E 120 86 0d 00
        E 360 96 0c 64
        E 120 86 0c 00
        E 360 96 0d 64
        E 120 86 0d 00
        E 360 96 0d 64
        E 120 86 0d 00
        E 360 96 0d 64
        E 120 86 0d 00
        E 360 96 0c 64
        E 120 86 0c 00
        E 360 96 0d 64
        E 120 86 0d 00
        E 360 96 0d 64
        E 120 86 0d 00
        E 360 96 0d 64
        E 120 86 0d 00
        E 360 96 0c 64
        E 120 86 0c 00
        E 360 96 0d 64
        E 120 86 0d 00
        E 360 96 0d 64
        E 120 86 0d 00
        E 360 96 0d 64
        E 120 86 0d 00
        E 360 96 0c 64
        E 120 86 0c 00
        E 360 96 0d 64
        E 120 86 0d 00
        E 360 96 0d 64
        E 120 86 0d 00
        E 360 96 0d 64
        E 120 86 0d 00
        E 360 96 0c 64
        E 120 86 0c 00
        E 360 96 0d 64
        E 120 86 0d 00
        E 360 96 0d 64
        E 120 86 0d 00
        E 360 96 0d 64
        E 120 86 0d 00
        E 360 96 0c 64
        E 120 86 0c 00
        E 360 96 0d 64
        E 120 86 0d 00
        E 360 96 0d 64
        E 120 86 0d 00
        E 360 96 0d 64
        E 120 86 0d 00
        E 360 96 0c 64
        E 120 86 0c 00
        E 360 96 0d 64
        E 120 86 0d 00
        E 360 96 0d 64
        E 120 86 0d 00
        E 360 96 0d 64
        E 120 86 0d 00
        E 360 96 0c 64
        E 120 86 0c 00
        E 360 96 0d 64
        E 120 86 0d 00
        E 360 96 0d 64
        E 120 86 0d 00
        E 360 96 0d 64
        E 120 86 0d 00
        E 360 96 0c 64
        E 120 86 0c 00
        E 360 96 0d 64
        E 120 86 0d 00
        E 360 96 0d 64
        E 120 86 0d 00
        E 360 96 0d 64
        E 120 86 0d 00
        E 360 96 0c 64
        E 120 86 0c 00
        E 360 96 0d 64
        E 120 86 0d 00
        E 360 96 0d 64
        E 120 86 0d 00
        E 360 96 0d 64
        E 120 86 0d 00
        E 360 96 0c 64
        E 120 86 0c 00
        E 360 96 0d 64
        E 120 86 0d 00
        E 360 96 0d 64
        E 120 86 0d 00
        E 360 96 0d 64
        E 120 86 0d 00
        E 360 96 0c 64
        E 120 86 0c 00
        E 360 96 0d 64
        E 120 86 0d 00
        E 360 96 0d 64
        E 120 86 0d 00
        E 360 96 0d 64
        E 120 86 0d 00
        E 360 96 0c 64
        E 120 86 0c 00
        E 360 96 0d 64
        E 120 86 0d 00
        E 360 96 0d 64
        E 120 86 0d 00
        E 360 96 0d 64
        E 120 86 0d 00
        E 360 96 0c 64
        E 120 86 0c 00
        E 360 96 0d 64
        E 120 86 0d 00
        E 360 96 0d 64
        E 120 86 0d 00
        E 360 96 0d 64
        E 120 86 0d 00
        E 360 96 0c 64
        E 120 86 0c 00
        E 360 96 0d 64
        E 120 86 0d 00
        E 360 96 0d 64
        E 120 86 0d 00
        E 360 96 0d 64
        E 120 86 0d 00
        E 360 96 0c 64
        E 120 86 0c 00
        E 360 96 0d 64
        E 120 86 0d 00
        E 360 96 0d 64
        E 120 86 0d 00
        E 360 96 0d 64
        E 120 86 0d 00
        E 360 96 0c 64
        E 120 86 0c 00
        E 360 96 0d 64
        E 120 86 0d 00
        E 360 96 0d 64
        E 120 86 0d 00
        E 360 96 0d 64
        E 120 86 0d 00
        E 360 96 0c 64
        E 120 86 0c 00
        E 360 96 0d 64
        E 120 86 0d 00
        E 360 96 0d 64
        E 120 86 0d 00
        E 360 96 0d 64
        E 120 86 0d 00
        E 360 96 0c 64
        E 120 86 0c 00
        E 360 96 0d 64
        E 120 86 0d 00
        E 360 96 0d 64
        E 120 86 0d 00
        E 360 96 0d 64
        E 120 86 0d 00
        E 360 96 0c 64
        E 120 86 0c 00
        E 360 96 0d 64
        E 120 86 0d 00
        E 360 96 0d 64
        E 120 86 0d 00
        E 360 96 0d 64
        E 120 86 0d 00
        E 360 96 0c 64
        E 120 86 0c 00
        E 360 96 0d 64
        E 120 86 0d 00
        E 360 96 0d 64
        E 120 86 0d 00
        E 360 96 0d 64
        E 120 86 0d 00
        E 360 96 0c 64
        E 120 86 0c 00
        E 360 96 0d 64
        E 120 86 0d 00
        E 360 96 0d 64
        E 120 86 0d 00
        E 360 96 0d 64
        E 120 86 0d 00
        E 360 96 0c 64
        E 120 86 0c 00
        E 360 96 0d 64
        E 120 86 0d 00
        E 360 96 0d 64
        E 120 86 0d 00
        E 360 96 0d 64
        E 120 86 0d 00
        E 360 96 0c 64
        E 120 86 0c 00
        E 360 96 0d 64
        E 120 86 0d 00
        E 360 96 0d 64
        E 120 86 0d 00
        E 360 96 0d 64
        E 120 86 0d 00
        E 360 96 0c 64
        E 120 86 0c 00
        E 360 96 0d 64
        E 120 86 0d 00
        E 360 96 0d 64
        E 120 86 0d 00
        E 360 96 0d 64
        E 120 86 0d 00
        E 360 96 0c 64
        E 120 86 0c 00
        E 360 96 0d 64
        E 120 86 0d 00
        E 360 96 0d 64
        E 120 86 0d 00
        E 360 96 0d 64
        E 120 86 0d 00
        E 360 96 0c 64
        E 120 86 0c 00
        E 360 96 0d 64
        E 120 86 0d 00
        E 360 96 0d 64
        E 120 86 0d 00
        E 360 96 0d 64
        E 120 86 0d 00
        E 360 96 0c 64
        E 120 86 0c 00
        E 360 96 0d 64
        E 120 86 0d 00
        E 360 96 0d 64
        E 120 86 0d 00
        E 360 96 0d 64
        E 120 86 0d 00
        E 360 96 0c 64
        E 120 86 0c 00
        E 360 96 0d 64
        E 120 86 0d 00
        E 360 96 0d 64
        E 120 86 0d 00
        E 360 96 0d 64
        E 120 86 0d 00
        E 360 96 0c 64
        E 120 86 0c 00
        E 360 96 0d 64
        E 120 86 0d 00
        E 360 96 0d 64
        E 120 86 0d 00
        E 360 96 0d 64
        E 120 86 0d 00
        E 360 96 0c 64
        E 120 86 0c 00
        E 360 96 0d 64
        E 120 86 0d 00
        E 360 96 0d 64
        E 120 86 0d 00
        E 360 96 0d 64
        E 120 86 0d 00
        E 360 96 0c 64
        E 120 86 0c 00
        E 360 96 0d 64
        E 120 86 0d 00
        E 360 96 0d 64
        E 120 86 0d 00
        E 360 96 0d 64
        E 120 86 0d 00
        E 360 96 0c 64
        E 120 86 0c 00
        E 360 96 0d 64
        E 120 86 0d 00
        E 360 96 0d 64
        E 120 86 0d 00
        E 360 96 0d 64
        E 120 86 0d 00
        E 360 96 0c 64
        E 120 86 0c 00
        E 360 96 0d 64
        E 120 86 0d 00
        E 360 96 0d 64
        E 120 86 0d 00
        E 360 96 0d 64
        E 120 86 0d 00
        E 360 96 0c 64
        E 120 86 0c 00
        E 360 96 0d 64
        E 120 86 0d 00
        E 360 96 0d 64
        E 120 86 0d 00
        E 360 96 0d 64
        E 120 86 0d 00
        E 360 96 0c 64
        E 120 86 0c 00
        E 360 96 0d 64
        E 120 86 0d 00
        E 360 96 0d 64
        E 120 86 0d 00
        E 360 96 0d 64
        E 120 86 0d 00
        E 360 96 0c 64
        E 120 86 0c 00
        E 360 96 0d 64
        E 120 86 0d 00
        E 360 96 0d 64
        E 120 86 0d 00
        E 360 96 0d 64
        E 120 86 0d 00
        E 360 96 0c 64
        E 120 86 0c 00
        E 360 96 0d 64
        E 120 86 0d 00
        E 360 96 0d 64
        E 120 86 0d 00
        E 360 96 0d 64
        E 120 86 0d 00
        E 360 96 0c 64
        E 120 86 0c 00
        E 360 96 0d 64
        E 120 86 0d 00
        E 360 96 0d 64
        E 120 86 0d 00
        E 360 96 0d 64
        E 120 86 0d 00
        E 360 96 0c 64
        E 120 86 0c 00
        E 360 96 0d 64
        E 120 86 0d 00
        E 360 96 0d 64
        E 120 86 0d 00
        E 360 96 0d 64
        E 120 86 0d 00
        E 360 96 0c 64
        E 120 86 0c 00
        E 360 96 0d 64
        E 120 86 0d 00
        E 360 96 0d 64
        E 120 86 0d 00
        E 360 96 0d 64
        E 120 86 0d 00
        E 360 96 0c 64
        E 120 86 0c 00
        E 360 96 0d 64
        E 120 86 0d 00
        E 360 96 0d 64
        E 120 86 0d 00
        E 360 96 0d 64
        E 120 86 0d 00
        E 360 96 0c 64
        E 120 86 0c 00
        E 360 96 0d 64
        E 120 86 0d 00
        E 360 96 0d 64
        E 120 86 0d 00
        E 360 96 0d 64
        E 120 86 0d 00
        E 360 96 0c 64
        E 120 86 0c 00
        E 360 96 0d 64
        E 120 86 0d 00
        E 360 96 0d 64
        E 120 86 0d 00
        E 360 96 0d 64
        E 120 86 0d 00
        E 360 96 0c 64
        E 120 86 0c 00
        E 360 96 0d 64
        E 120 86 0d 00
        E 360 96 0d 64
        E 120 86 0d 00
        E 360 96 0d 64
        E 120 86 0d 00
        E 360 96 0c 64
        E 120 86 0c 00
        E 360 96 0d 64
        E 120 86 0d 00
        E 360 96 0d 64
        E 120 86 0d 00
        E 360 96 0d 64
        E 120 86 0d 00
        E 360 96 0c 64
        E 120 86 0c 00
        E 360 96 0d 64
        E 120 86 0d 00
        E 360 96 0d 64
        E 120 86 0d 00
        E 360 96 0d 64
        E 120 86 0d 00
        E 360 96 0c 64
        E 120 86 0c 00
        E 360 96 0d 64
        E 120 86 0d 00
        E 360 96 0d 64
        E 120 86 0d 00
        E 360 96 0d 64
        E 120 86 0d 00
        E 360 96 0c 64
        E 120 86 0c 00
        E 360 96 0d 64
        E 120 86 0d 00
        E 360 96 0d 64
        E 120 86 0d 00
        E 360 96 0d 64
        E 120 86 0d 00
        E 360 96 0c 64
        E 120 86 0c 00
        E 360 96 0d 64
        E 120 86 0d 00
        E 360 96 0d 64
        E 120 86 0d 00
        E 360 96 0d 64
        E 120 86 0d 00
        E 360 96 0c 64
        E 120 86 0c 00
        E 360 96 0d 64
        E 120 86 0d 00
        E 360 96 0d 64
        E 120 86 0d 00
        E 360 96 0d 64
        E 120 86 0d 00
        E 360 b0 7b 00
        GUID {BF35609E-6CA3-4CB9-B49B-A43EC00418C2}
        IGNTEMPO 0 120.00000000 4 4
        SRCCOLOR 7
        VELLANE 132 128 60
        COLORMAP "C:\Program Files (x86)\REAPER\Data\color_maps\rockband_guitarbass.png"
        CFGEDITVIEW 115011.228888 41.063455 92 12 0 0 0
        CFGEDIT 1 1 0 1 1 1 1 1 1 1 1 0.25000000 -8 -8 1370 736 0 0 1 2 0.12500000 0 1 0 0 0.500000 0 0 1.000000 64
        KEYSNAP 0 0 "102034050607" 0 "Major"
        EVTFILTER 0 -1 -1 -1 -1 0 1 0 0 -1.00000000 -1.00000000
      >
    >
  >
  <TRACK '{20CB5F22-D2BA-4B2B-9E02-DDC708DE5D10}'
    NAME "backing"
    PEAKCOL 16576
    BEAT -1
    AUTOMODE 0
    VOLPAN 1.00000000000000 0.00000000000000 -1.00000000000000 -1.00000000000000 1.00000000000000
    MUTESOLO 0 0 0
    IPHASE 0
    ISBUS 0 0
    BUSCOMP 0 0
    SHOWINMIX 1 0.666700 0.500000 1 0.500000 -1 -1 -1
    FREEMODE 0
    SEL 0
    REC 0 0 0 0 0 0 0
    VU 2
    TRACKHEIGHT 0 0
    INQ 0 0 0 0.5000000000 100 0 0 100
    NCHAN 2
    FX 1
    TRACKID {20CB5F22-D2BA-4B2B-9E02-DDC708DE5D10}
    PERF 0
    MIDIOUT -1
    MAINSEND 1 0
    <ITEM
      POSITION 0.00000000000000
      SNAPOFFS 0.00000000000000
      LENGTH 145.04278911564626
      LOOP 0
      ALLTAKES 0
      SEL 0
      FADEIN 1 0.000000 0.000000 1 0
      FADEOUT 1 0.000000 0.000000 1 0
      MUTE 0
      IGUID {6D8C8309-EA1A-431F-8011-A5298666CDAE}
      IID 6
      NAME "backing.wav"
      VOLPAN 1.000000 0.000000 1.000000 -1.000000
      SOFFS 0.00000000000000
      PLAYRATE 1.00000000000000 1 0.00000000000000 -1
      CHANMODE 0
      GUID {426906C1-EB73-4FB1-930E-A13AD1426C09}
      <SOURCE WAVE
        FILE "wav\backing.wav"
      >
    >
  >
  <EXTENSIONS
  >
>
