<REAPER_PROJECT 0.1 "4.22/x64"
  RIPPLE 0
  GROUPOVERRIDE 0 0 0
  AUTOXFADE 1
  ENVATTACH 1
  MIXERUIFLAGS 11 48
  PEAKGAIN 1.00000000000000
  FEEDBACK 0
  PANLAW 1.00000000000000
  PROJOFFS 0.00000000000000 0
  MAXPROJLEN 0 600.00000000000000
  GRID 3199 8 1.00000000000000 8 1.00000000000000 0
  TIMEMODE 1 0 -1
  PANMODE 3
  CURSOR 5.60049600000000
  ZOOM 9.39927666775227 0 0
  VZOOMEX 5
  USE_REC_CFG 0
  RECMODE 1
  SMPTESYNC 0 23.976024 100 40 1000 300 0 0.000000 1
  LOOP 1
  LOOPGRAN 0 4.00000000000000
  RECORD_PATH "" ""
  <RECORD_CFG
    ZXZhdxAD
  >
  <APPLYFX_CFG
  >
  RENDER_FILE ""
  RENDER_PATTERN ""
  RENDER_FMT 0 2 0
  RENDER_1X 0
  RENDER_RANGE 1 0.00000000000000 0.00000000000000
  RENDER_RESAMPLE 3 0 1
  RENDER_ADDTOPROJ 0
  RENDER_STEMS 0
  RENDER_DITHER 0
  TIMELOCKMODE 0
  ITEMMIX 0
  DEFPITCHMODE 393216
  TAKELANE 1
  SAMPLERATE 44100 0 0
  <RENDER_CFG
  >
  LOCK 1
  <METRONOME 6 2.000000
    VOL 0.250000 0.125000
    FREQ 800 1600 1
    BEATLEN 4
    SAMPLES "" ""
  >
  GLOBAL_AUTO -1
  TEMPO 120.00000000000000 4 4
  PLAYRATE 1.00000000000000 0 0.25000 4.00000
  SELECTION 119.47724800000000 0.00000000000000
  SELECTION2 119.47724800000000 0.00000000000000
  MASTERAUTOMODE 0
  MASTERTRACKHEIGHT 0
  MASTERPEAKCOL 16576
  MASTERMUTESOLO 0
  MASTERTRACKVIEW 0 0.666700 0.500000 0.500000 -1 -1 -1
  MASTERHWOUT 0 0 1.00000000000000 0.00000000000000 0 0 0 -1.00000000000000
  MASTER_NCH 2 2
  MASTER_VOLUME 0.07764838953716 0.00000000000000 -1.00000000000000 -1.00000000000000 1.00000000000000
  MASTER_PANMODE -1
  MASTER_FX 1
  MASTER_SEL 0
  <MASTERPLAYSPEEDENV
    ACT 0
    VIS 0 1 1.000000
    LANEHEIGHT 0 0
    ARM 0
    DEFSHAPE 0 -1 -1
  >
  <TEMPOENVEX
    ACT 1
    VIS 1 0 1.000000
    LANEHEIGHT 0 0
    ARM 0
    DEFSHAPE 1 -1 -1
    PT 0.000000000000 64.2800209124 1
  >
  <PROJBAY
  >
  <TRACK '{046BDCF8-9B86-4258-87AD-B9D67E7AAEED}'
    NAME "PART DRUMS"
    PEAKCOL 16576
    BEAT -1
    AUTOMODE 0
    VOLPAN 1.00000000000000 0.00000000000000 -1.00000000000000 -1.00000000000000 1.00000000000000
    MUTESOLO 0 0 0
    IPHASE 0
    ISBUS 1 1
    BUSCOMP 0 0
    SHOWINMIX 1 0.666700 0.500000 1 0.500000 -1 -1 -1
    FREEMODE 0
    SEL 0
    REC 0 0 0 0 0 0 0
    VU 2
    TRACKHEIGHT 0 0
    INQ 0 0 0 0.5000000000 100 0 0 100
    NCHAN 2
    FX 1
    TRACKID {046BDCF8-9B86-4258-87AD-B9D67E7AAEED}
    PERF 0
    MIDIOUT -1
    <MIDINOTENAMES
      0 127 "CYMBAL SWELLS"
      0 126 "DRUM ROLL"
      0 125 "---"
      0 124 "DRUM FILL"
      0 123 "DRUM FILL"
      0 122 "DRUM FILL"
      0 121 "DRUM FILL"
      0 120 "DRUM FILL (use all 5)"
      0 118 "----"
      0 116 "OVERDRIVE"
      0 114 "----"
      0 112 "TOM GEMS PAD 4"
      0 111 "TOM GEMS PAD 3"
      0 110 "TOM GEMS PAD 2"
      0 103 "Solo Marker"
      0 102 "----"
      0 100 "EXPERT Green"
      0 99 "EXPERT Blue"
      0 98 "EXPERT Yellow"
      0 97 "EXPERT Red"
      0 96 "EXPERT Kick"
      0 92 "----"
      0 88 "HARD Green"
      0 87 "HARD Blue"
      0 86 "HARD Yellow"
      0 85 "HARD Red"
      0 84 "HARD Kick"
      0 80 "----"
      0 76 "MEDIUM Green"
      0 75 "MEDIUM Blue"
      0 74 "MEDIUM Yellow"
      0 73 "MEDIUM Red"
      0 72 "MEDIUM Kick"
      0 68 "----"
      0 64 "EASY Green"
      0 63 "EASY Blue"
      0 62 "EASY Yellow"
      0 61 "EASY Red"
      0 60 "EASY Kick"
      0 56 "----"
      0 52 "-- DRUM ANIMATION --"
      0 51 "FLOOR TOM RH"
      0 50 "FLOOR TOM LH"
      0 49 "TOM2 RH"
      0 48 "TOM2 LH"
      0 47 "TOM1 RH"
      0 46 "TOM1 LH"
      0 45 "SOFT CRASH 2 LH"
      0 44 "CRASH 2 LH"
      0 43 "RIDE LH"
      0 42 "RIDE CYM RH"
      0 41 "CRASH2 CHOKE"
      0 40 "CRASH1 CHOKE"
      0 39 "CRASH2 SOFT RH"
      0 38 "CRASH2 HARD RH"
      0 37 "CRASH1 SOFT RH"
      0 36 "CRASH1 HARD RH"
      0 35 "CRASH1 SOFT LH"
      0 34 "CRASH1 HARD LH"
      0 32 "PERCUSSION RH"
      0 31 "HI-HAT RH"
      0 30 "HI-HAT LH"
      0 29 "SOFT SNARE RH"
      0 28 "SOFT SNARE LH"
      0 27 "SNARE RH"
      0 26 "SNARE LH"
      0 25 "HI-HAT OPEN"
      0 24 "KICK RF"
    >
    MAINSEND 1 0
    <FXCHAIN
      WNDRECT 0 43 891 559
      SHOW 0
      LASTSEL 0
      DOCKED 0
      BYPASS 0 0
      <VST "VSTi: RBN Preview (RBN)" "rbprev_vst64.dll" 0 ""
        dnBicu5e7f4AAAAAAgAAAAEAAAAAAAAAAgAAAAAAAAAEAAAAAQAAAA==
        AAAQAAMBqgAAABAAAAA=
      >
      FLOATPOS 0 0 0 0
      FXID {54377F20-42CB-41DD-89B3-5AA2406599E5}
      WAK 0
    >
    <ITEM
      POSITION 0.00000000000000
      SNAPOFFS 0.00000000000000
      LENGTH 119.47700000000000
      LOOP 0
      ALLTAKES 0
      SEL 0
      FADEIN 1 0.000000 0.000000 1 0
      FADEOUT 1 0.000000 0.000000 1 0
      MUTE 0
      IGUID {EFE49C0E-F2B2-42BB-BB03-3037AD92F3C2}
      IID 1
      NAME "PART DRUMS"
      VOLPAN 1.000000 0.000000 1.000000 -1.000000
      SOFFS 0.00000000000000 0.00000000000000
      PLAYRATE 1.00000000000000 1 0.00000000000000 -1
      CHANMODE 0
      GUID {91C6F337-257D-44B5-8D3E-3E1445F9AEA4}
      <SOURCE MIDI
        HASDATA 1 480 QN
        POOLEDEVTS {3A618144-534F-45CB-9B50-C52BF16511C6}
        <X 0 0
          /wNQQVJUIERSVU1T
        >
        E 0 90 19 60
        E 0 90 1e 60
        <X 60 0
          /wFbbWl4IDAgZHJ1bXMwXQ==
        >
        E 0 80 1e 00
        <X 60 0
          /wFbbWl4IDEgZHJ1bXMwXQ==
        >
        <X 60 0
          /wFbbWl4IDIgZHJ1bXMwXQ==
        >
        <X 60 0
          /wFbbWl4IDMgZHJ1bXMwXQ==
        >
        E 480 80 19 00
        <X 1200 0
          /wFbbWVsbG93XQ==
        >
        E 480 90 1f 60
        E 0 90 3e 60
        E 0 90 4a 60
        E 0 90 56 60
        E 0 90 62 60
        E 60 80 1f 00
        E 0 80 3e 00
        E 0 80 4a 00
        E 0 80 56 00
        E 0 80 62 00
        E 900 90 1f 60
        E 0 90 3e 60
        E 0 90 4a 60
        E 0 90 56 60
        E 0 90 62 60
        E 60 80 1f 00
        E 0 80 3e 00
        E 0 80 4a 00
        E 0 80 56 00
        E 0 80 62 00
        E 900 90 1f 60
        E 0 90 3e 60
        E 0 90 4a 60
        E 0 90 56 60
        E 0 90 62 60
        E 60 80 1f 00
        E 0 80 3e 00
        E 0 80 4a 00
        E 0 80 56 00
        E 0 80 62 00
        E 420 90 78 60
        E 0 90 79 60
        E 0 90 7a 60
        E 0 90 7b 60
        E 0 90 7c 60
        E 480 90 1f 60
        E 0 90 3e 60
        E 0 90 4a 60
        E 0 90 56 60
        E 0 90 62 60
        E 60 80 1f 00
        E 0 80 3e 00
        E 0 80 4a 00
        E 0 80 56 00
        E 0 80 62 00
        E 420 80 78 00
        E 0 80 79 00
        E 0 80 7a 00
        E 0 80 7b 00
        E 0 80 7c 00
        E 480 90 1f 60
        E 0 90 3e 60
        E 0 90 4a 60
        E 0 90 56 60
        E 0 90 62 60
        E 60 80 1f 00
        E 0 80 3e 00
        E 0 80 4a 00
        E 0 80 56 00
        E 0 80 62 00
        E 900 90 1f 60
        E 0 90 3e 60
        E 0 90 4a 60
        E 0 90 56 60
        E 0 90 62 60
        E 60 80 1f 00
        E 0 80 3e 00
        E 0 80 4a 00
        E 0 80 56 00
        E 0 80 62 00
        E 900 90 1f 60
        E 0 90 3e 60
        E 0 90 4a 60
        E 0 90 56 60
        E 0 90 62 60
        E 60 80 1f 00
        E 0 80 3e 00
        E 0 80 4a 00
        E 0 80 56 00
        E 0 80 62 00
        E 420 90 78 60
        E 0 90 79 60
        E 0 90 7a 60
        E 0 90 7b 60
        E 0 90 7c 60
        E 480 90 1f 60
        E 0 90 3e 60
        E 0 90 4a 60
        E 0 90 56 60
        E 0 90 62 60
        E 60 80 1f 00
        E 0 80 3e 00
        E 0 80 4a 00
        E 0 80 56 00
        E 0 80 62 00
        E 420 80 78 00
        E 0 80 79 00
        E 0 80 7a 00
        E 0 80 7b 00
        E 0 80 7c 00
        E 480 90 1f 60
        E 0 90 3e 60
        E 0 90 4a 60
        E 0 90 56 60
        E 0 90 62 60
        E 60 80 1f 00
        E 0 80 3e 00
        E 0 80 4a 00
        E 0 80 56 00
        E 0 80 62 00
        E 900 90 1f 60
        E 0 90 3e 60
        E 0 90 4a 60
        E 0 90 56 60
        E 0 90 62 60
        E 60 80 1f 00
        E 0 80 3e 00
        E 0 80 4a 00
        E 0 80 56 00
        E 0 80 62 00
        E 900 90 1f 60
        E 0 90 3e 60
        E 0 90 4a 60
        E 0 90 56 60
        E 0 90 62 60
        E 60 80 1f 00
        E 0 80 3e 00
        E 0 80 4a 00
        E 0 80 56 00
        E 0 80 62 00
        E 420 90 78 60
        E 0 90 79 60
        E 0 90 7a 60
        E 0 90 7b 60
        E 0 90 7c 60
        E 480 90 1f 60
        E 0 90 3e 60
        E 0 90 4a 60
        E 0 90 56 60
        E 0 90 62 60
        E 60 80 1f 00
        E 0 80 3e 00
        E 0 80 4a 00
        E 0 80 56 00
        E 0 80 62 00
        E 420 80 78 00
        E 0 80 79 00
        E 0 80 7a 00
        E 0 80 7b 00
        E 0 80 7c 00
        E 0 90 74 60
        E 480 90 1f 60
        E 0 90 3e 60
        E 0 90 4a 60
        E 0 90 56 60
        E 0 90 62 60
        E 60 80 1f 00
        E 0 80 3e 00
        E 0 80 4a 00
        E 0 80 56 00
        E 0 80 62 00
        E 900 90 1f 60
        E 0 90 3e 60
        E 0 90 4a 60
        E 0 90 56 60
        E 0 90 62 60
        E 60 80 1f 00
        E 0 80 3e 00
        E 0 80 4a 00
        E 0 80 56 00
        E 0 80 62 00
        E 900 90 1f 60
        E 0 90 3e 60
        E 0 90 4a 60
        E 0 90 56 60
        E 0 90 62 60
        E 60 80 1f 00
        E 0 80 3e 00
        E 0 80 4a 00
        E 0 80 56 00
        E 0 80 62 00
        E 900 90 1f 60
        E 0 90 3e 60
        E 0 90 4a 60
        E 0 90 56 60
        E 0 90 62 60
        E 60 80 1f 00
        E 0 80 3e 00
        E 0 80 4a 00
        E 0 80 56 00
        E 0 80 62 00
        E 420 80 74 00
        E 480 90 1f 60
        E 0 90 3e 60
        E 0 90 4a 60
        E 0 90 56 60
        E 0 90 62 60
        E 60 80 1f 00
        E 0 80 3e 00
        E 0 80 4a 00
        E 0 80 56 00
        E 0 80 62 00
        E 900 90 1f 60
        E 0 90 3e 60
        E 0 90 4a 60
        E 0 90 56 60
        E 0 90 62 60
        E 60 80 1f 00
        E 0 80 3e 00
        E 0 80 4a 00
        E 0 80 56 00
        E 0 80 62 00
        E 900 90 1f 60
        E 0 90 3e 60
        E 0 90 4a 60
        E 0 90 56 60
        E 0 90 62 60
        E 60 80 1f 00
        E 0 80 3e 00
        E 0 80 4a 00
        E 0 80 56 00
        E 0 80 62 00
        E 420 90 78 60
        E 0 90 79 60
        E 0 90 7a 60
        E 0 90 7b 60
        E 0 90 7c 60
        E 480 90 1f 60
        E 0 90 3e 60
        E 0 90 4a 60
        E 0 90 56 60
        E 0 90 62 60
        E 60 80 1f 00
        E 0 80 3e 00
        E 0 80 4a 00
        E 0 80 56 00
        E 0 80 62 00
        E 420 80 78 00
        E 0 80 79 00
        E 0 80 7a 00
        E 0 80 7b 00
        E 0 80 7c 00
        E 480 90 1f 60
        E 0 90 3e 60
        E 0 90 4a 60
        E 0 90 56 60
        E 0 90 62 60
        E 60 80 1f 00
        E 0 80 3e 00
        E 0 80 4a 00
        E 0 80 56 00
        E 0 80 62 00
        E 900 90 1f 60
        E 0 90 3e 60
        E 0 90 4a 60
        E 0 90 56 60
        E 0 90 62 60
        E 60 80 1f 00
        E 0 80 3e 00
        E 0 80 4a 00
        E 0 80 56 00
        E 0 80 62 00
        E 900 90 1f 60
        E 0 90 3e 60
        E 0 90 4a 60
        E 0 90 56 60
        E 0 90 62 60
        E 60 80 1f 00
        E 0 80 3e 00
        E 0 80 4a 00
        E 0 80 56 00
        E 0 80 62 00
        E 420 90 78 60
        E 0 90 79 60
        E 0 90 7a 60
        E 0 90 7b 60
        E 0 90 7c 60
        E 480 90 1f 60
        E 0 90 3e 60
        E 0 90 4a 60
        E 0 90 56 60
        E 0 90 62 60
        E 60 80 1f 00
        E 0 80 3e 00
        E 0 80 4a 00
        E 0 80 56 00
        E 0 80 62 00
        E 420 80 78 00
        E 0 80 79 00
        E 0 80 7a 00
        E 0 80 7b 00
        E 0 80 7c 00
        E 480 90 1f 60
        E 0 90 3e 60
        E 0 90 4a 60
        E 0 90 56 60
        E 0 90 62 60
        E 60 80 1f 00
        E 0 80 3e 00
        E 0 80 4a 00
        E 0 80 56 00
        E 0 80 62 00
        E 900 90 1f 60
        E 0 90 3e 60
        E 0 90 4a 60
        E 0 90 56 60
        E 0 90 62 60
        E 60 80 1f 00
        E 0 80 3e 00
        E 0 80 4a 00
        E 0 80 56 00
        E 0 80 62 00
        E 900 90 1f 60
        E 0 90 3e 60
        E 0 90 4a 60
        E 0 90 56 60
        E 0 90 62 60
        E 60 80 1f 00
        E 0 80 3e 00
        E 0 80 4a 00
        E 0 80 56 00
        E 0 80 62 00
        E 420 90 78 60
        E 0 90 79 60
        E 0 90 7a 60
        E 0 90 7b 60
        E 0 90 7c 60
        E 480 90 1f 60
        E 0 90 3e 60
        E 0 90 4a 60
        E 0 90 56 60
        E 0 90 62 60
        E 60 80 1f 00
        E 0 80 3e 00
        E 0 80 4a 00
        E 0 80 56 00
        E 0 80 62 00
        E 420 80 78 00
        E 0 80 79 00
        E 0 80 7a 00
        E 0 80 7b 00
        E 0 80 7c 00
        E 0 90 74 60
        E 480 90 1f 60
        E 0 90 3e 60
        E 0 90 4a 60
        E 0 90 56 60
        E 0 90 62 60
        E 60 80 1f 00
        E 0 80 3e 00
        E 0 80 4a 00
        E 0 80 56 00
        E 0 80 62 00
        E 900 90 1f 60
        E 0 90 3e 60
        E 0 90 4a 60
        E 0 90 56 60
        E 0 90 62 60
        E 60 80 74 00
        E 0 80 1f 00
        E 0 80 3e 00
        E 0 80 4a 00
        E 0 80 56 00
        E 0 80 62 00
        E 900 90 1f 60
        E 0 90 3e 60
        E 0 90 4a 60
        E 0 90 56 60
        E 0 90 62 60
        E 60 80 1f 00
        E 0 80 3e 00
        E 0 80 4a 00
        E 0 80 56 00
        E 0 80 62 00
        E 420 90 78 60
        E 0 90 79 60
        E 0 90 7a 60
        E 0 90 7b 60
        E 0 90 7c 60
        E 480 90 1f 60
        E 0 90 3e 60
        E 0 90 4a 60
        E 0 90 56 60
        E 0 90 62 60
        E 60 80 1f 00
        E 0 80 3e 00
        E 0 80 4a 00
        E 0 80 56 00
        E 0 80 62 00
        E 420 80 78 00
        E 0 80 79 00
        E 0 80 7a 00
        E 0 80 7b 00
        E 0 80 7c 00
        E 480 90 1f 60
        E 0 90 3e 60
        E 0 90 4a 60
        E 0 90 56 60
        E 0 90 62 60
        E 60 80 1f 00
        E 0 80 3e 00
        E 0 80 4a 00
        E 0 80 56 00
        E 0 80 62 00
        E 900 90 1f 60
        E 0 90 3e 60
        E 0 90 4a 60
        E 0 90 56 60
        E 0 90 62 60
        E 60 80 1f 00
        E 0 80 3e 00
        E 0 80 4a 00
        E 0 80 56 00
        E 0 80 62 00
        E 900 90 1f 60
        E 0 90 3e 60
        E 0 90 4a 60
        E 0 90 56 60
        E 0 90 62 60
        E 60 80 1f 00
        E 0 80 3e 00
        E 0 80 4a 00
        E 0 80 56 00
        E 0 80 62 00
        E 420 90 78 60
        E 0 90 79 60
        E 0 90 7a 60
        E 0 90 7b 60
        E 0 90 7c 60
        E 480 90 1f 60
        E 0 90 3e 60
        E 0 90 4a 60
        E 0 90 56 60
        E 0 90 62 60
        E 60 80 1f 00
        E 0 80 3e 00
        E 0 80 4a 00
        E 0 80 56 00
        E 0 80 62 00
        E 420 80 78 00
        E 0 80 79 00
        E 0 80 7a 00
        E 0 80 7b 00
        E 0 80 7c 00
        E 0 90 74 60
        E 480 90 1f 60
        E 0 90 3e 60
        E 0 90 4a 60
        E 0 90 56 60
        E 0 90 62 60
        E 60 80 1f 00
        E 0 80 3e 00
        E 0 80 4a 00
        E 0 80 56 00
        E 0 80 62 00
        E 900 90 1f 60
        E 0 90 3e 60
        E 0 90 4a 60
        E 0 90 56 60
        E 0 90 62 60
        E 60 80 1f 00
        E 0 80 3e 00
        E 0 80 4a 00
        E 0 80 56 00
        E 0 80 62 00
        E 480 80 74 00
        E 420 90 1f 60
        E 0 90 3e 60
        E 0 90 4a 60
        E 0 90 56 60
        E 0 90 62 60
        E 60 80 1f 00
        E 0 80 3e 00
        E 0 80 4a 00
        E 0 80 56 00
        E 0 80 62 00
        E 420 90 78 60
        E 0 90 79 60
        E 0 90 7a 60
        E 0 90 7b 60
        E 0 90 7c 60
        E 480 90 1f 60
        E 0 90 3e 60
        E 0 90 4a 60
        E 0 90 56 60
        E 0 90 62 60
        E 60 80 1f 00
        E 0 80 3e 00
        E 0 80 4a 00
        E 0 80 56 00
        E 0 80 62 00
        E 420 80 78 00
        E 0 80 79 00
        E 0 80 7a 00
        E 0 80 7b 00
        E 0 80 7c 00
        E 480 90 1f 60
        E 0 90 3e 60
        E 0 90 4a 60
        E 0 90 56 60
        E 0 90 62 60
        E 60 80 1f 00
        E 0 80 3e 00
        E 0 80 4a 00
        E 0 80 56 00
        E 0 80 62 00
        E 900 90 1f 60
        E 0 90 3e 60
        E 0 90 4a 60
        E 0 90 56 60
        E 0 90 62 60
        E 60 80 1f 00
        E 0 80 3e 00
        E 0 80 4a 00
        E 0 80 56 00
        E 0 80 62 00
        E 900 90 1f 60
        E 0 90 3e 60
        E 0 90 4a 60
        E 0 90 56 60
        E 0 90 62 60
        E 60 80 1f 00
        E 0 80 3e 00
        E 0 80 4a 00
        E 0 80 56 00
        E 0 80 62 00
        E 420 90 78 60
        E 0 90 79 60
        E 0 90 7a 60
        E 0 90 7b 60
        E 0 90 7c 60
        E 480 90 1f 60
        E 0 90 3e 60
        E 0 90 4a 60
        E 0 90 56 60
        E 0 90 62 60
        E 60 80 1f 00
        E 0 80 3e 00
        E 0 80 4a 00
        E 0 80 56 00
        E 0 80 62 00
        E 420 80 78 00
        E 0 80 79 00
        E 0 80 7a 00
        E 0 80 7b 00
        E 0 80 7c 00
        E 480 90 1f 60
        E 0 90 3e 60
        E 0 90 4a 60
        E 0 90 56 60
        E 0 90 62 60
        E 60 80 1f 00
        E 0 80 3e 00
        E 0 80 4a 00
        E 0 80 56 00
        E 0 80 62 00
        E 900 90 1f 60
        E 0 90 3e 60
        E 0 90 4a 60
        E 0 90 56 60
        E 0 90 62 60
        E 60 80 1f 00
        E 0 80 3e 00
        E 0 80 4a 00
        E 0 80 56 00
        E 0 80 62 00
        E 900 90 1f 60
        E 0 90 3e 60
        E 0 90 4a 60
        E 0 90 56 60
        E 0 90 62 60
        E 60 80 1f 00
        E 0 80 3e 00
        E 0 80 4a 00
        E 0 80 56 00
        E 0 80 62 00
        E 420 90 78 60
        E 0 90 79 60
        E 0 90 7a 60
        E 0 90 7b 60
        E 0 90 7c 60
        E 480 90 1f 60
        E 0 90 3e 60
        E 0 90 4a 60
        E 0 90 56 60
        E 0 90 62 60
        E 60 80 1f 00
        E 0 80 3e 00
        E 0 80 4a 00
        E 0 80 56 00
        E 0 80 62 00
        E 420 80 78 00
        E 0 80 79 00
        E 0 80 7a 00
        E 0 80 7b 00
        E 0 80 7c 00
        E 480 90 1f 60
        E 0 90 3e 60
        E 0 90 4a 60
        E 0 90 56 60
        E 0 90 62 60
        E 60 80 1f 00
        E 0 80 3e 00
        E 0 80 4a 00
        E 0 80 56 00
        E 0 80 62 00
        E 900 90 1f 60
        E 0 90 3e 60
        E 0 90 4a 60
        E 0 90 56 60
        E 0 90 62 60
        E 60 80 1f 00
        E 0 80 3e 00
        E 0 80 4a 00
        E 0 80 56 00
        E 0 80 62 00
        E 900 90 1f 60
        E 0 90 3e 60
        E 0 90 4a 60
        E 0 90 56 60
        E 0 90 62 60
        E 60 80 1f 00
        E 0 80 3e 00
        E 0 80 4a 00
        E 0 80 56 00
        E 0 80 62 00
        E 420 90 78 60
        E 0 90 79 60
        E 0 90 7a 60
        E 0 90 7b 60
        E 0 90 7c 60
        E 480 90 1f 60
        E 0 90 3e 60
        E 0 90 4a 60
        E 0 90 56 60
        E 0 90 62 60
        E 60 80 1f 00
        E 0 80 3e 00
        E 0 80 4a 00
        E 0 80 56 00
        E 0 80 62 00
        E 420 80 78 00
        E 0 80 79 00
        E 0 80 7a 00
        E 0 80 7b 00
        E 0 80 7c 00
        E 480 90 1f 60
        E 0 90 3e 60
        E 0 90 4a 60
        E 0 90 56 60
        E 0 90 62 60
        E 60 80 1f 00
        E 0 80 3e 00
        E 0 80 4a 00
        E 0 80 56 00
        E 0 80 62 00
        E 900 90 1f 60
        E 0 90 3e 60
        E 0 90 4a 60
        E 0 90 56 60
        E 0 90 62 60
        E 60 80 1f 00
        E 0 80 3e 00
        E 0 80 4a 00
        E 0 80 56 00
        E 0 80 62 00
        E 900 90 1f 60
        E 0 90 3e 60
        E 0 90 4a 60
        E 0 90 56 60
        E 0 90 62 60
        E 60 80 1f 00
        E 0 80 3e 00
        E 0 80 4a 00
        E 0 80 56 00
        E 0 80 62 00
        E 900 90 1f 60
        E 0 90 3e 60
        E 0 90 4a 60
        E 0 90 56 60
        E 0 90 62 60
        E 60 80 1f 00
        E 0 80 3e 00
        E 0 80 4a 00
        E 0 80 56 00
        E 0 80 62 00
        <X 419 0
          /wFbaWRsZV9yZWFsdGltZV0=
        >
        E 5760 b0 7b 00
        GUID {FDC96173-FD0B-4B82-9403-23B686165AB5}
        IGNTEMPO 0 120.00000000 4 4
        SRCCOLOR 87
        VELLANE 132 128 60
        COLORMAP "C:\Program Files\REAPER (x64)\Data\color_maps\rockband_guitarbass.png"
        CFGEDITVIEW -3993.874586 9.399277 0 12 0 0 0
        CFGEDIT 1 1 0 1 1 0 1 1 1 1 1 0.25000000 -8 -8 1544 872 0 2 1 1 0.00000000 0 1 1 0 0.500000 0 0 1.000000 64
        KEYSNAP 0 6 "102030050700" 0 "Pentatonic"
        EVTFILTER 0 -1 -1 -1 -1 0 1 0 0 -1.00000000 -1.00000000
      >
    >
  >
  <TRACK '{824BFDDC-5356-4503-B3EC-FBB45FE57995}'
    NAME "drums"
    PEAKCOL 16576
    BEAT -1
    AUTOMODE 0
    VOLPAN 1.00000000000000 0.00000000000000 -1.00000000000000 -1.00000000000000 1.00000000000000
    MUTESOLO 0 0 0
    IPHASE 0
    ISBUS 2 -1
    BUSCOMP 0 0
    SHOWINMIX 1 0.666700 0.500000 1 0.500000 -1 -1 -1
    FREEMODE 0
    SEL 0
    REC 0 0 0 0 0 0 0
    VU 2
    TRACKHEIGHT 0 0
    INQ 0 0 0 0.5000000000 100 0 0 100
    NCHAN 2
    FX 1
    TRACKID {824BFDDC-5356-4503-B3EC-FBB45FE57995}
    PERF 0
    MIDIOUT -1
    MAINSEND 1 0
    <ITEM
      POSITION 0.00000000000000
      SNAPOFFS 0.00000000000000
      LENGTH 119.47727891156462
      LOOP 0
      ALLTAKES 0
      SEL 0
      FADEIN 1 0.000000 0.000000 1 0
      FADEOUT 1 0.000000 0.000000 1 0
      MUTE 0
      IGUID {DD857C56-18A4-449B-8AD5-0BF2C4B53BA0}
      IID 20
      NAME "drums.wav"
      VOLPAN 1.000000 0.000000 1.000000 -1.000000
      SOFFS 0.00000000000000
      PLAYRATE 1.00000000000000 1 0.00000000000000 -1
      CHANMODE 0
      GUID {79B5EDF2-87B5-4C2D-8585-27AA9C0C30F1}
      <SOURCE WAVE
        FILE "C:\Users\Ruggery\Documents\Visual Studio Code\Projects\ruggy-customs-projects\songs\motherearth\wav\drums.wav"
      >
    >
  >
  <TRACK '{1E532427-9581-463D-96C3-C311F154B270}'
    NAME "PART BASS"
    PEAKCOL 16576
    BEAT -1
    AUTOMODE 0
    VOLPAN 1.00000000000000 0.00000000000000 -1.00000000000000 -1.00000000000000 1.00000000000000
    MUTESOLO 0 0 0
    IPHASE 0
    ISBUS 1 1
    BUSCOMP 0 0
    SHOWINMIX 1 0.666700 0.500000 1 0.500000 -1 -1 -1
    FREEMODE 0
    SEL 0
    REC 0 0 0 0 0 0 0
    VU 2
    TRACKHEIGHT 0 0
    INQ 0 0 0 0.5000000000 100 0 0 100
    NCHAN 2
    FX 1
    TRACKID {1E532427-9581-463D-96C3-C311F154B270}
    PERF 0
    MIDIOUT -1
    <MIDINOTENAMES
      0 127 "TRILL MARKER"
      0 126 "TREMOLO MARKER"
      0 125 "---"
      0 124 "BRE"
      0 123 "BRE"
      0 122 "BRE"
      0 121 "BRE"
      0 120 "BRE (use all 5)"
      0 119 "----"
      0 116 "OVERDRIVE"
      0 115 "----"
      0 103 "Solo Marker"
      0 102 "Force HOPO Off"
      0 101 "Force HOPO On"
      0 100 "EXPERT Orange"
      0 99 "EXPERT Blue"
      0 98 "EXPERT Yellow"
      0 97 "EXPERT Red"
      0 96 "EXPERT Green"
      0 95 "----"
      0 90 "Force HOPO Off"
      0 89 "Force HOPO On"
      0 88 "HARD Orange"
      0 87 "HARD Blue"
      0 86 "HARD Yellow"
      0 85 "HARD Red"
      0 84 "HARD Green"
      0 77 "----"
      0 76 "MEDIUM Orange"
      0 75 "MEDIUM Blue"
      0 74 "MEDIUM Yellow"
      0 73 "MEDIUM Red"
      0 72 "MEDIUM Green"
      0 65 "----"
      0 64 "EASY Orange"
      0 63 "EASY Blue"
      0 62 "EASY Yellow"
      0 61 "EASY Red"
      0 60 "EASY Green"
      0 59 "Fret 12"
      0 57 "Fret 11"
      0 56 "Fret 10"
      0 55 "Fret 9"
      0 53 "Fret 8"
      0 52 "Fret 7"
      0 50 "Fret 6"
      0 49 "Fret 5"
      0 47 "Fret 4"
      0 45 "Fret 3"
      0 43 "Fret 2"
      0 40 "Fret 1"
    >
    MAINSEND 1 0
    <FXCHAIN
      WNDRECT 0 43 891 559
      SHOW 0
      LASTSEL 0
      DOCKED 0
      BYPASS 0 0
      <VST "VSTi: RBN Preview (RBN)" "rbprev_vst64.dll" 0 ""
        dnBicu5e7f4AAAAAAgAAAAEAAAAAAAAAAgAAAAAAAAAEAAAAAQAAAA==
        AAAQAAMAqgAAABAAAAA=
      >
      FLOATPOS 0 0 0 0
      FXID {94C78888-64E9-4105-8B75-2275D42FD230}
      WAK 0
    >
    <ITEM
      POSITION 0.00000000000000
      SNAPOFFS 0.00000000000000
      LENGTH 119.47700000000000
      LOOP 0
      ALLTAKES 0
      SEL 0
      FADEIN 1 0.000000 0.000000 1 0
      FADEOUT 1 0.000000 0.000000 1 0
      MUTE 0
      IGUID {BDF8C9C4-08AA-432D-8C8B-95B4C979EF30}
      IID 2
      NAME "PART BASS"
      VOLPAN 1.000000 0.000000 1.000000 -1.000000
      SOFFS 0.00000000000000 0.00000000000000
      PLAYRATE 1.00000000000000 1 0.00000000000000 -1
      CHANMODE 0
      GUID {4369FDE3-9FE1-4D69-805A-55208A242152}
      <SOURCE MIDI
        HASDATA 1 480 QN
        POOLEDEVTS {346C0147-9DDD-4120-8E03-9CAECD625AF2}
        <X 0 0
          /wNQQVJUIEJBU1M=
        >
        <X 1920 0
          /wFbbWVsbG93XQ==
        >
        E 0 90 3b 60
        E 0 90 3e 60
        E 0 90 4b 60
        E 0 90 58 60
        E 0 90 64 60
        E 720 80 3e 00
        E 0 80 4b 00
        E 180 80 3b 00
        E 0 80 58 00
        E 0 80 64 00
        E 60 90 39 60
        E 0 90 3e 60
        E 0 90 4b 60
        E 0 90 57 60
        E 0 90 63 60
        E 720 80 3e 00
        E 0 80 4b 00
        E 180 80 39 00
        E 0 80 57 00
        E 0 80 63 00
        E 60 90 38 60
        E 0 90 3d 60
        E 0 90 4a 60
        E 0 90 56 60
        E 0 90 62 60
        E 720 80 3d 00
        E 0 80 4a 00
        E 180 80 38 00
        E 0 80 56 00
        E 0 80 62 00
        E 60 90 37 60
        E 0 90 3c 60
        E 0 90 49 60
        E 0 90 55 60
        E 0 90 61 60
        E 720 80 3c 00
        E 0 80 49 00
        E 180 80 37 00
        E 0 80 55 00
        E 0 80 61 00
        E 60 90 3b 60
        E 0 90 3e 60
        E 0 90 4b 60
        E 0 90 58 60
        E 0 90 64 60
        E 720 80 3e 00
        E 0 80 4b 00
        E 180 80 3b 00
        E 0 80 58 00
        E 0 80 64 00
        E 60 90 39 60
        E 0 90 3e 60
        E 0 90 4b 60
        E 0 90 57 60
        E 0 90 63 60
        E 720 80 3e 00
        E 0 80 4b 00
        E 180 80 39 00
        E 0 80 57 00
        E 0 80 63 00
        E 60 90 38 60
        E 0 90 3d 60
        E 0 90 4a 60
        E 0 90 56 60
        E 0 90 62 60
        E 720 80 3d 00
        E 0 80 4a 00
        E 180 80 38 00
        E 0 80 56 00
        E 0 80 62 00
        E 60 90 37 60
        E 0 90 3c 60
        E 0 90 49 60
        E 0 90 55 60
        E 0 90 61 60
        E 720 80 3c 00
        E 0 80 49 00
        E 180 80 37 00
        E 0 80 55 00
        E 0 80 61 00
        E 60 90 31 60
        E 0 90 3e 60
        E 0 90 4b 60
        E 0 90 57 60
        E 0 90 63 60
        E 720 80 3e 00
        E 0 80 4b 00
        E 180 80 31 00
        E 0 80 57 00
        E 0 80 63 00
        E 60 90 2f 60
        E 0 90 3d 60
        E 0 90 4a 60
        E 0 90 56 60
        E 0 90 62 60
        E 720 80 3d 00
        E 0 80 4a 00
        E 180 80 2f 00
        E 0 80 56 00
        E 0 80 62 00
        E 60 90 2d 60
        E 0 90 3c 60
        E 0 90 49 60
        E 0 90 55 60
        E 0 90 61 60
        E 720 80 3c 00
        E 0 80 49 00
        E 180 80 2d 00
        E 0 80 55 00
        E 0 80 61 00
        E 60 90 2b 60
        E 0 90 3c 60
        E 0 90 48 60
        E 0 90 54 60
        E 0 90 60 60
        E 720 80 3c 00
        E 0 80 48 00
        E 180 80 2b 00
        E 0 80 54 00
        E 0 80 60 00
        E 60 90 31 60
        E 0 90 3e 60
        E 0 90 4b 60
        E 0 90 57 60
        E 0 90 63 60
        E 0 90 74 60
        E 720 80 3e 00
        E 0 80 4b 00
        E 180 80 31 00
        E 0 80 57 00
        E 0 80 63 00
        E 60 90 2f 60
        E 0 90 3d 60
        E 0 90 4a 60
        E 0 90 56 60
        E 0 90 62 60
        E 720 80 3d 00
        E 0 80 4a 00
        E 180 80 2f 00
        E 0 80 56 00
        E 0 80 62 00
        E 60 90 2d 60
        E 0 90 3c 60
        E 0 90 49 60
        E 0 90 55 60
        E 0 90 61 60
        E 720 80 3c 00
        E 0 80 49 00
        E 180 80 2d 00
        E 0 80 55 00
        E 0 80 61 00
        E 60 90 2b 60
        E 0 90 3c 60
        E 0 90 48 60
        E 0 90 54 60
        E 0 90 60 60
        E 720 80 3c 00
        E 0 80 48 00
        E 180 80 2b 00
        E 0 80 54 00
        E 0 80 60 00
        E 60 80 74 00
        E 0 90 31 60
        E 0 90 3e 60
        E 0 90 4b 60
        E 0 90 57 60
        E 0 90 63 60
        E 720 80 3e 00
        E 0 80 4b 00
        E 180 80 31 00
        E 0 80 57 00
        E 0 80 63 00
        E 60 90 2f 60
        E 0 90 3d 60
        E 0 90 4a 60
        E 0 90 56 60
        E 0 90 62 60
        E 720 80 3d 00
        E 0 80 4a 00
        E 180 80 2f 00
        E 0 80 56 00
        E 0 80 62 00
        E 60 90 2d 60
        E 0 90 3c 60
        E 0 90 49 60
        E 0 90 55 60
        E 0 90 61 60
        E 720 80 3c 00
        E 0 80 49 00
        E 180 80 2d 00
        E 0 80 55 00
        E 0 80 61 00
        E 60 90 2b 60
        E 0 90 3c 60
        E 0 90 48 60
        E 0 90 54 60
        E 0 90 60 60
        E 720 80 3c 00
        E 0 80 48 00
        E 180 80 2b 00
        E 0 80 54 00
        E 0 80 60 00
        E 60 90 2d 60
        E 0 90 3d 60
        E 0 90 4a 60
        E 0 90 56 60
        E 0 90 62 60
        E 720 80 3d 00
        E 0 80 4a 00
        E 180 80 2d 00
        E 0 80 56 00
        E 0 80 62 00
        E 60 90 2f 60
        E 0 90 3e 60
        E 0 90 4b 60
        E 0 90 57 60
        E 0 90 63 60
        E 720 80 3e 00
        E 0 80 4b 00
        E 180 80 2f 00
        E 0 80 57 00
        E 0 80 63 00
        E 60 90 31 60
        E 0 90 3e 60
        E 0 90 4b 60
        E 0 90 58 60
        E 0 90 64 60
        E 240 80 3e 00
        E 0 80 4b 00
        E 180 80 31 00
        E 0 80 58 00
        E 0 80 64 00
        E 60 90 2d 60
        E 0 90 3e 60
        E 0 90 4b 60
        E 0 90 57 60
        E 0 90 63 60
        E 240 80 3e 00
        E 0 80 4b 00
        E 180 80 2d 00
        E 0 80 57 00
        E 0 80 63 00
        E 60 90 2b 60
        E 0 90 3d 60
        E 0 90 4a 60
        E 0 90 56 60
        E 0 90 62 60
        E 240 80 3d 00
        E 0 80 4a 00
        E 180 80 2b 00
        E 0 80 56 00
        E 0 80 62 00
        E 60 90 31 60
        E 0 90 3c 60
        E 0 90 49 60
        E 0 90 55 60
        E 0 90 61 60
        E 240 80 3c 00
        E 0 80 49 00
        E 180 80 31 00
        E 0 80 55 00
        E 0 80 61 00
        E 60 90 31 60
        E 0 90 3e 60
        E 0 90 4b 60
        E 0 90 57 60
        E 0 90 63 60
        E 0 90 74 60
        E 720 80 3e 00
        E 0 80 4b 00
        E 180 80 31 00
        E 0 80 57 00
        E 0 80 63 00
        E 60 90 2f 60
        E 0 90 3d 60
        E 0 90 4a 60
        E 0 90 56 60
        E 0 90 62 60
        E 720 80 3d 00
        E 0 80 4a 00
        E 180 80 2f 00
        E 0 80 56 00
        E 0 80 62 00
        E 60 90 2d 60
        E 0 90 3c 60
        E 0 90 49 60
        E 0 90 55 60
        E 0 90 61 60
        E 720 80 3c 00
        E 0 80 49 00
        E 180 80 2d 00
        E 0 80 55 00
        E 0 80 61 00
        E 60 90 2b 60
        E 0 90 3c 60
        E 0 90 48 60
        E 0 90 54 60
        E 0 90 60 60
        E 60 80 74 00
        E 660 80 3c 00
        E 0 80 48 00
        E 180 80 2b 00
        E 0 80 54 00
        E 0 80 60 00
        E 60 90 2d 60
        E 0 90 3d 60
        E 0 90 4a 60
        E 0 90 56 60
        E 0 90 62 60
        E 720 80 3d 00
        E 0 80 4a 00
        E 180 80 2d 00
        E 0 80 56 00
        E 0 80 62 00
        E 60 90 2f 60
        E 0 90 3e 60
        E 0 90 4b 60
        E 0 90 57 60
        E 0 90 63 60
        E 720 80 3e 00
        E 0 80 4b 00
        E 180 80 2f 00
        E 0 80 57 00
        E 0 80 63 00
        E 60 90 31 60
        E 0 90 3e 60
        E 0 90 4b 60
        E 0 90 58 60
        E 0 90 64 60
        E 240 80 3e 00
        E 0 80 4b 00
        E 180 80 31 00
        E 0 80 58 00
        E 0 80 64 00
        E 60 90 2d 60
        E 0 90 3e 60
        E 0 90 4b 60
        E 0 90 57 60
        E 0 90 63 60
        E 240 80 3e 00
        E 0 80 4b 00
        E 180 80 2d 00
        E 0 80 57 00
        E 0 80 63 00
        E 60 90 2b 60
        E 0 90 3d 60
        E 0 90 4a 60
        E 0 90 56 60
        E 0 90 62 60
        E 240 80 3d 00
        E 0 80 4a 00
        E 180 80 2b 00
        E 0 80 56 00
        E 0 80 62 00
        E 60 90 31 60
        E 0 90 3c 60
        E 0 90 49 60
        E 0 90 55 60
        E 0 90 61 60
        E 240 80 3c 00
        E 0 80 49 00
        E 180 80 31 00
        E 0 80 55 00
        E 0 80 61 00
        E 60 90 2d 60
        E 0 90 3e 60
        E 0 90 4b 60
        E 0 90 57 60
        E 0 90 63 60
        E 720 80 3e 00
        E 0 80 4b 00
        E 180 80 2d 00
        E 0 80 57 00
        E 0 80 63 00
        E 60 90 2b 60
        E 0 90 3d 60
        E 0 90 4a 60
        E 0 90 56 60
        E 0 90 62 60
        E 720 80 3d 00
        E 0 80 4a 00
        E 180 80 2b 00
        E 0 80 56 00
        E 0 80 62 00
        E 60 90 28 60
        E 0 90 3c 60
        E 0 90 49 60
        E 0 90 55 60
        E 0 90 61 60
        E 720 80 3c 00
        E 0 80 49 00
        E 180 80 28 00
        E 0 80 55 00
        E 0 80 61 00
        E 60 90 3c 60
        E 0 90 48 60
        E 0 90 54 60
        E 0 90 60 60
        E 720 80 3c 00
        E 0 80 48 00
        E 180 80 54 00
        E 0 80 60 00
        E 60 90 2d 60
        E 0 90 3d 60
        E 0 90 4a 60
        E 0 90 56 60
        E 0 90 62 60
        E 0 90 74 60
        E 720 80 3d 00
        E 0 80 4a 00
        E 180 80 2d 00
        E 0 80 56 00
        E 0 80 62 00
        E 60 90 2f 60
        E 0 90 3e 60
        E 0 90 4b 60
        E 0 90 57 60
        E 0 90 63 60
        E 720 80 3e 00
        E 0 80 4b 00
        E 180 80 2f 00
        E 0 80 57 00
        E 0 80 63 00
        E 60 90 31 60
        E 0 90 3e 60
        E 0 90 4b 60
        E 0 90 58 60
        E 0 90 64 60
        E 60 80 74 00
        E 180 80 3e 00
        E 0 80 4b 00
        E 180 80 31 00
        E 0 80 58 00
        E 0 80 64 00
        E 60 90 2d 60
        E 0 90 3e 60
        E 0 90 4b 60
        E 0 90 57 60
        E 0 90 63 60
        E 240 80 3e 00
        E 0 80 4b 00
        E 180 80 2d 00
        E 0 80 57 00
        E 0 80 63 00
        E 60 90 2b 60
        E 0 90 3d 60
        E 0 90 4a 60
        E 0 90 56 60
        E 0 90 62 60
        E 240 80 3d 00
        E 0 80 4a 00
        E 180 80 2b 00
        E 0 80 56 00
        E 0 80 62 00
        E 60 90 31 60
        E 0 90 3c 60
        E 0 90 49 60
        E 0 90 55 60
        E 0 90 61 60
        E 240 80 3c 00
        E 0 80 49 00
        E 180 80 31 00
        E 0 80 55 00
        E 0 80 61 00
        E 60 90 2d 60
        E 0 90 3e 60
        E 0 90 4b 60
        E 0 90 57 60
        E 0 90 63 60
        E 720 80 3e 00
        E 0 80 4b 00
        E 180 80 2d 00
        E 0 80 57 00
        E 0 80 63 00
        E 60 90 2b 60
        E 0 90 3d 60
        E 0 90 4a 60
        E 0 90 56 60
        E 0 90 62 60
        E 720 80 3d 00
        E 0 80 4a 00
        E 180 80 2b 00
        E 0 80 56 00
        E 0 80 62 00
        E 60 90 28 60
        E 0 90 3c 60
        E 0 90 49 60
        E 0 90 55 60
        E 0 90 61 60
        E 720 80 3c 00
        E 0 80 49 00
        E 180 80 28 00
        E 0 80 55 00
        E 0 80 61 00
        E 60 90 3c 60
        E 0 90 48 60
        E 0 90 54 60
        E 0 90 60 60
        E 720 80 3c 00
        E 0 80 48 00
        E 180 80 54 00
        E 0 80 60 00
        E 60 90 2d 60
        E 0 90 3d 60
        E 0 90 4a 60
        E 0 90 56 60
        E 0 90 62 60
        E 720 80 3d 00
        E 0 80 4a 00
        E 180 80 2d 00
        E 0 80 56 00
        E 0 80 62 00
        E 60 90 2f 60
        E 0 90 3e 60
        E 0 90 4b 60
        E 0 90 57 60
        E 0 90 63 60
        E 720 80 3e 00
        E 0 80 4b 00
        E 180 80 2f 00
        E 0 80 57 00
        E 0 80 63 00
        E 60 90 31 60
        E 0 90 3e 60
        E 0 90 4b 60
        E 0 90 58 60
        E 0 90 64 60
        E 240 80 3e 00
        E 0 80 4b 00
        E 180 80 31 00
        E 0 80 58 00
        E 0 80 64 00
        E 60 90 2d 60
        E 0 90 3e 60
        E 0 90 4b 60
        E 0 90 57 60
        E 0 90 63 60
        E 240 80 3e 00
        E 0 80 4b 00
        E 180 80 2d 00
        E 0 80 57 00
        E 0 80 63 00
        E 60 90 2b 60
        E 0 90 3d 60
        E 0 90 4a 60
        E 0 90 56 60
        E 0 90 62 60
        E 240 80 3d 00
        E 0 80 4a 00
        E 180 80 2b 00
        E 0 80 56 00
        E 0 80 62 00
        E 60 90 31 60
        E 0 90 3c 60
        E 0 90 49 60
        E 0 90 55 60
        E 0 90 61 60
        E 240 80 3c 00
        E 0 80 49 00
        E 180 80 31 00
        E 0 80 55 00
        E 0 80 61 00
        E 60 90 2d 60
        E 0 90 3d 60
        E 0 90 4a 60
        E 0 90 56 60
        E 0 90 62 60
        E 720 80 3d 00
        E 0 80 4a 00
        E 180 80 2d 00
        E 0 80 56 00
        E 0 80 62 00
        E 60 90 28 60
        E 0 90 3c 60
        E 0 90 49 60
        E 0 90 55 60
        E 0 90 61 60
        E 720 80 3c 00
        E 0 80 49 00
        E 180 80 28 00
        E 0 80 55 00
        E 0 80 61 00
        E 60 90 2d 60
        E 0 90 3d 60
        E 0 90 4a 60
        E 0 90 56 60
        E 0 90 62 60
        E 720 80 3d 00
        E 0 80 4a 00
        E 180 80 2d 00
        E 0 80 56 00
        E 0 80 62 00
        E 60 90 28 60
        E 0 90 3c 60
        E 0 90 49 60
        E 0 90 55 60
        E 0 90 61 60
        E 720 80 3c 00
        E 0 80 49 00
        E 180 80 28 00
        E 0 80 55 00
        E 0 80 61 00
        E 60 90 2d 60
        E 0 90 3d 60
        E 0 90 4a 60
        E 0 90 56 60
        E 0 90 62 60
        E 720 80 3d 00
        E 0 80 4a 00
        E 180 80 2d 00
        E 0 80 56 00
        E 0 80 62 00
        E 60 90 28 60
        E 0 90 3c 60
        E 0 90 49 60
        E 0 90 55 60
        E 0 90 61 60
        E 720 80 3c 00
        E 0 80 49 00
        E 180 80 28 00
        E 0 80 55 00
        E 0 80 61 00
        E 60 90 2d 60
        E 0 90 3d 60
        E 0 90 4a 60
        E 0 90 56 60
        E 0 90 62 60
        E 720 80 3d 00
        E 0 80 4a 00
        E 180 80 2d 00
        E 0 80 56 00
        E 0 80 62 00
        E 60 90 28 60
        E 0 90 3c 60
        E 0 90 49 60
        E 0 90 55 60
        E 0 90 61 60
        E 720 80 3c 00
        E 0 80 49 00
        E 180 80 28 00
        E 0 80 55 00
        E 0 80 61 00
        E 60 90 31 60
        E 0 90 3e 60
        E 0 90 4b 60
        E 0 90 58 60
        E 0 90 64 60
        <X 3839 0
          /wFbaWRsZV9yZWFsdGltZV0=
        >
        E 0 80 31 00
        E 0 80 3e 00
        E 0 80 4b 00
        E 0 80 58 00
        E 0 80 64 00
        E 1920 b0 7b 00
        GUID {529B5C4A-5129-42A1-B4BC-7625B7653DD1}
        IGNTEMPO 0 120.00000000 4 4
        SRCCOLOR 88
        VELLANE 132 128 60
        COLORMAP "C:\Program Files\REAPER (x64)\Data\color_maps\rockband_guitarbass.png"
        CFGEDITVIEW -3993.874586 9.399277 0 12 0 0 0
        CFGEDIT 1 1 0 1 1 0 1 1 1 1 1 0.25000000 -8 -8 1544 872 0 2 1 1 0.00000000 0 1 1 0 0.500000 0 0 1.000000 64
        KEYSNAP 0 6 "102030050700" 0 "Pentatonic"
        EVTFILTER 0 -1 -1 -1 -1 0 1 0 0 -1.00000000 -1.00000000
      >
    >
  >
  <TRACK '{C3BAFC9C-B150-4EE1-94E0-88677D786734}'
    NAME "bass"
    PEAKCOL 16576
    BEAT -1
    AUTOMODE 0
    VOLPAN 1.00000000000000 0.00000000000000 -1.00000000000000 -1.00000000000000 1.00000000000000
    MUTESOLO 0 0 0
    IPHASE 0
    ISBUS 2 -1
    BUSCOMP 0 0
    SHOWINMIX 1 0.666700 0.500000 1 0.500000 -1 -1 -1
    FREEMODE 0
    SEL 0
    REC 0 0 0 0 0 0 0
    VU 2
    TRACKHEIGHT 0 0
    INQ 0 0 0 0.5000000000 100 0 0 100
    NCHAN 2
    FX 1
    TRACKID {C3BAFC9C-B150-4EE1-94E0-88677D786734}
    PERF 0
    MIDIOUT -1
    MAINSEND 1 0
    <ITEM
      POSITION 0.00000000000000
      SNAPOFFS 0.00000000000000
      LENGTH 119.47727891156462
      LOOP 0
      ALLTAKES 0
      SEL 0
      FADEIN 1 0.000000 0.000000 1 0
      FADEOUT 1 0.000000 0.000000 1 0
      MUTE 0
      IGUID {2CD79296-1491-47D8-8147-EBEB8AFD3BE8}
      IID 19
      NAME "bass.wav"
      VOLPAN 1.000000 0.000000 1.000000 -1.000000
      SOFFS 0.00000000000000
      PLAYRATE 1.00000000000000 1 0.00000000000000 -1
      CHANMODE 0
      GUID {95D454DA-BB76-401E-9C5A-A632C59E12D4}
      <SOURCE WAVE
        FILE "C:\Users\Ruggery\Documents\Visual Studio Code\Projects\ruggy-customs-projects\songs\motherearth\wav\bass.wav"
      >
    >
  >
  <TRACK '{571B9EEF-02FD-4240-B819-387FD111B0F3}'
    NAME "PART GUITAR"
    PEAKCOL 16576
    BEAT -1
    AUTOMODE 0
    VOLPAN 1.00000000000000 0.00000000000000 -1.00000000000000 -1.00000000000000 1.00000000000000
    MUTESOLO 0 0 0
    IPHASE 0
    ISBUS 1 1
    BUSCOMP 0 0
    SHOWINMIX 1 0.666700 0.500000 1 0.500000 -1 -1 -1
    FREEMODE 0
    SEL 0
    REC 0 0 0 0 0 0 0
    VU 2
    TRACKHEIGHT 0 0
    INQ 0 0 0 0.5000000000 100 0 0 100
    NCHAN 2
    FX 1
    TRACKID {571B9EEF-02FD-4240-B819-387FD111B0F3}
    PERF 0
    MIDIOUT -1
    <MIDINOTENAMES
      0 127 "TRILL MARKER"
      0 126 "TREMOLO MARKER"
      0 125 "---"
      0 124 "BRE"
      0 123 "BRE"
      0 122 "BRE"
      0 121 "BRE"
      0 120 "BRE (use all 5)"
      0 119 "----"
      0 116 "OVERDRIVE"
      0 115 "----"
      0 103 "Solo Marker"
      0 102 "Force HOPO Off"
      0 101 "Force HOPO On"
      0 100 "EXPERT Orange"
      0 99 "EXPERT Blue"
      0 98 "EXPERT Yellow"
      0 97 "EXPERT Red"
      0 96 "EXPERT Green"
      0 95 "----"
      0 90 "Force HOPO Off"
      0 89 "Force HOPO On"
      0 88 "HARD Orange"
      0 87 "HARD Blue"
      0 86 "HARD Yellow"
      0 85 "HARD Red"
      0 84 "HARD Green"
      0 77 "----"
      0 76 "MEDIUM Orange"
      0 75 "MEDIUM Blue"
      0 74 "MEDIUM Yellow"
      0 73 "MEDIUM Red"
      0 72 "MEDIUM Green"
      0 65 "----"
      0 64 "EASY Orange"
      0 63 "EASY Blue"
      0 62 "EASY Yellow"
      0 61 "EASY Red"
      0 60 "EASY Green"
      0 59 "Fret 12"
      0 57 "Fret 11"
      0 56 "Fret 10"
      0 55 "Fret 9"
      0 53 "Fret 8"
      0 52 "Fret 7"
      0 50 "Fret 6"
      0 49 "Fret 5"
      0 47 "Fret 4"
      0 45 "Fret 3"
      0 43 "Fret 2"
      0 40 "Fret 1"
    >
    MAINSEND 1 0
    <FXCHAIN
      WNDRECT 0 43 891 559
      SHOW 0
      LASTSEL 0
      DOCKED 0
      BYPASS 0 0
      <VST "VSTi: RBN Preview (RBN)" "rbprev_vst64.dll" 0 ""
        dnBicu5e7f4AAAAAAgAAAAEAAAAAAAAAAgAAAAAAAAAEAAAAAQAAAA==
        AAAQAAMAqgAAABAAAAA=
      >
      FLOATPOS 0 0 0 0
      FXID {3B4BF320-2905-44B3-949A-B039EE7B2217}
      WAK 0
    >
    <ITEM
      POSITION 0.00000000000000
      SNAPOFFS 0.00000000000000
      LENGTH 119.47700000000000
      LOOP 0
      ALLTAKES 0
      SEL 0
      FADEIN 1 0.000000 0.000000 1 0
      FADEOUT 1 0.000000 0.000000 1 0
      MUTE 0
      IGUID {EFB92D0A-16CB-4E5E-B9AD-F54070339A71}
      IID 3
      NAME "PART GUITAR"
      VOLPAN 1.000000 0.000000 1.000000 -1.000000
      SOFFS 0.00000000000000 0.00000000000000
      PLAYRATE 1.00000000000000 1 0.00000000000000 -1
      CHANMODE 0
      GUID {F8F0E6F0-B4D7-4265-9A07-9631DB2E17A9}
      <SOURCE MIDI
        HASDATA 1 480 QN
        POOLEDEVTS {9BE87690-94EC-4E5B-8A14-2EEC08829DFF}
        <X 0 0
          /wNQQVJUIEdVSVRBUg==
        >
        <X 1920 0
          /wFbbWVsbG93XQ==
        >
        E 240 90 38 60
        E 0 90 3e 60
        E 0 90 4b 60
        E 0 90 57 60
        E 0 90 63 60
        E 60 80 3e 00
        E 0 80 4b 00
        E 0 80 57 00
        E 0 80 63 00
        E 180 90 3e 60
        E 0 90 4b 60
        E 0 90 58 60
        E 0 90 64 60
        E 480 80 3e 00
        E 0 80 4b 00
        E 0 80 58 00
        E 0 80 64 00
        E 240 90 3e 60
        E 0 90 4b 60
        E 0 90 57 60
        E 0 90 63 60
        E 60 80 3e 00
        E 0 80 4b 00
        E 0 80 57 00
        E 0 80 63 00
        E 180 90 3e 60
        E 0 90 4b 60
        E 0 90 58 60
        E 0 90 64 60
        E 480 80 3e 00
        E 0 80 4b 00
        E 0 80 58 00
        E 0 80 64 00
        E 240 90 3e 60
        E 0 90 4b 60
        E 0 90 57 60
        E 0 90 63 60
        E 60 80 3e 00
        E 0 80 4b 00
        E 0 80 57 00
        E 0 80 63 00
        E 180 90 3e 60
        E 0 90 4b 60
        E 0 90 58 60
        E 0 90 64 60
        E 480 80 3e 00
        E 0 80 4b 00
        E 0 80 58 00
        E 0 80 64 00
        E 180 80 38 00
        E 60 90 34 60
        E 0 90 4a 60
        E 0 90 56 60
        E 0 90 62 60
        E 60 80 4a 00
        E 0 80 56 00
        E 0 80 62 00
        E 180 90 3e 60
        E 0 90 4b 60
        E 0 90 58 60
        E 0 90 64 60
        E 480 80 3e 00
        E 0 80 4b 00
        E 0 80 58 00
        E 0 80 64 00
        E 180 80 34 00
        E 60 90 38 60
        E 0 90 3e 60
        E 0 90 4b 60
        E 0 90 57 60
        E 0 90 63 60
        E 60 80 3e 00
        E 0 80 4b 00
        E 0 80 57 00
        E 0 80 63 00
        E 180 90 3e 60
        E 0 90 4b 60
        E 0 90 58 60
        E 0 90 64 60
        E 480 80 3e 00
        E 0 80 4b 00
        E 0 80 58 00
        E 0 80 64 00
        E 240 90 3e 60
        E 0 90 4b 60
        E 0 90 57 60
        E 0 90 63 60
        E 60 80 3e 00
        E 0 80 4b 00
        E 0 80 57 00
        E 0 80 63 00
        E 180 90 3e 60
        E 0 90 4b 60
        E 0 90 58 60
        E 0 90 64 60
        E 480 80 3e 00
        E 0 80 4b 00
        E 0 80 58 00
        E 0 80 64 00
        E 240 90 3e 60
        E 0 90 4b 60
        E 0 90 57 60
        E 0 90 63 60
        E 60 80 3e 00
        E 0 80 4b 00
        E 0 80 57 00
        E 0 80 63 00
        E 180 90 3e 60
        E 0 90 4b 60
        E 0 90 58 60
        E 0 90 64 60
        E 480 80 3e 00
        E 0 80 4b 00
        E 0 80 58 00
        E 0 80 64 00
        E 180 80 38 00
        E 60 90 34 60
        E 0 90 4a 60
        E 0 90 56 60
        E 0 90 62 60
        E 60 80 4a 00
        E 0 80 56 00
        E 0 80 62 00
        E 180 90 3e 60
        E 0 90 4b 60
        E 0 90 58 60
        E 0 90 64 60
        E 480 80 3e 00
        E 0 80 4b 00
        E 0 80 58 00
        E 0 80 64 00
        E 180 80 34 00
        E 60 90 38 60
        E 0 90 3e 60
        E 0 90 4b 60
        E 0 90 57 60
        E 0 90 63 60
        E 60 80 3e 00
        E 0 80 4b 00
        E 0 80 57 00
        E 0 80 63 00
        E 180 90 3e 60
        E 0 90 4b 60
        E 0 90 58 60
        E 0 90 64 60
        E 480 80 3e 00
        E 0 80 4b 00
        E 0 80 58 00
        E 0 80 64 00
        E 240 90 3e 60
        E 0 90 4b 60
        E 0 90 57 60
        E 0 90 63 60
        E 60 80 3e 00
        E 0 80 4b 00
        E 0 80 57 00
        E 0 80 63 00
        E 180 90 3e 60
        E 0 90 4b 60
        E 0 90 58 60
        E 0 90 64 60
        E 480 80 3e 00
        E 0 80 4b 00
        E 0 80 58 00
        E 0 80 64 00
        E 240 90 3e 60
        E 0 90 4b 60
        E 0 90 57 60
        E 0 90 63 60
        E 60 80 3e 00
        E 0 80 4b 00
        E 0 80 57 00
        E 0 80 63 00
        E 180 90 3e 60
        E 0 90 4b 60
        E 0 90 58 60
        E 0 90 64 60
        E 480 80 3e 00
        E 0 80 4b 00
        E 0 80 58 00
        E 0 80 64 00
        E 180 80 38 00
        E 60 90 34 60
        E 0 90 4a 60
        E 0 90 56 60
        E 0 90 62 60
        E 60 80 4a 00
        E 0 80 56 00
        E 0 80 62 00
        E 180 90 3e 60
        E 0 90 4b 60
        E 0 90 58 60
        E 0 90 64 60
        E 480 80 3e 00
        E 0 80 4b 00
        E 0 80 58 00
        E 0 80 64 00
        E 0 90 74 60
        E 180 80 34 00
        E 60 90 38 60
        E 0 90 3e 60
        E 0 90 4b 60
        E 0 90 57 60
        E 0 90 63 60
        E 60 80 3e 00
        E 0 80 4b 00
        E 0 80 57 00
        E 0 80 63 00
        E 180 90 3e 60
        E 0 90 4b 60
        E 0 90 58 60
        E 0 90 64 60
        E 480 80 3e 00
        E 0 80 4b 00
        E 0 80 58 00
        E 0 80 64 00
        E 240 90 3e 60
        E 0 90 4b 60
        E 0 90 57 60
        E 0 90 63 60
        E 60 80 3e 00
        E 0 80 4b 00
        E 0 80 57 00
        E 0 80 63 00
        E 180 90 3e 60
        E 0 90 4b 60
        E 0 90 58 60
        E 0 90 64 60
        E 480 80 3e 00
        E 0 80 4b 00
        E 0 80 58 00
        E 0 80 64 00
        E 240 90 3e 60
        E 0 90 4b 60
        E 0 90 57 60
        E 0 90 63 60
        E 60 80 3e 00
        E 0 80 4b 00
        E 0 80 57 00
        E 0 80 63 00
        E 180 90 3e 60
        E 0 90 4b 60
        E 0 90 58 60
        E 0 90 64 60
        E 480 80 3e 00
        E 0 80 4b 00
        E 0 80 58 00
        E 0 80 64 00
        E 180 80 38 00
        E 60 90 34 60
        E 0 90 4a 60
        E 0 90 56 60
        E 0 90 62 60
        E 60 80 4a 00
        E 0 80 56 00
        E 0 80 62 00
        E 180 90 3e 60
        E 0 90 4b 60
        E 0 90 58 60
        E 0 90 64 60
        E 480 80 74 00
        E 0 80 3e 00
        E 0 80 4b 00
        E 0 80 58 00
        E 0 80 64 00
        E 180 80 34 00
        E 60 90 2d 60
        E 0 90 4a 60
        E 0 90 56 60
        E 0 90 62 60
        E 60 80 4a 00
        E 0 80 56 00
        E 0 80 62 00
        E 180 90 3e 60
        E 0 90 4b 60
        E 0 90 57 60
        E 0 90 63 60
        E 480 80 3e 00
        E 0 80 4b 00
        E 0 80 57 00
        E 0 80 63 00
        E 240 90 4a 60
        E 0 90 56 60
        E 0 90 62 60
        E 60 80 4a 00
        E 0 80 56 00
        E 0 80 62 00
        E 180 90 3e 60
        E 0 90 4b 60
        E 0 90 57 60
        E 0 90 63 60
        E 480 80 3e 00
        E 0 80 4b 00
        E 0 80 57 00
        E 0 80 63 00
        E 240 90 4a 60
        E 0 90 56 60
        E 0 90 62 60
        E 60 80 4a 00
        E 0 80 56 00
        E 0 80 62 00
        E 180 90 3e 60
        E 0 90 4b 60
        E 0 90 57 60
        E 0 90 63 60
        E 480 80 3e 00
        E 0 80 4b 00
        E 0 80 57 00
        E 0 80 63 00
        E 240 90 4a 60
        E 0 90 56 60
        E 0 90 62 60
        E 60 80 4a 00
        E 0 80 56 00
        E 0 80 62 00
        E 180 90 3e 60
        E 0 90 4b 60
        E 0 90 57 60
        E 0 90 63 60
        E 480 80 3e 00
        E 0 80 4b 00
        E 0 80 57 00
        E 0 80 63 00
        E 180 80 2d 00
        E 60 90 31 60
        E 0 90 48 60
        E 0 90 54 60
        E 0 90 60 60
        E 60 80 48 00
        E 0 80 54 00
        E 0 80 60 00
        E 180 90 3d 60
        E 0 90 4a 60
        E 0 90 56 60
        E 0 90 62 60
        E 480 80 3d 00
        E 0 80 4a 00
        E 0 80 56 00
        E 0 80 62 00
        E 180 80 31 00
        E 60 90 32 60
        E 0 90 49 60
        E 0 90 55 60
        E 0 90 61 60
        E 60 80 49 00
        E 0 80 55 00
        E 0 80 61 00
        E 180 90 3e 60
        E 0 90 4b 60
        E 0 90 57 60
        E 0 90 63 60
        E 480 80 3e 00
        E 0 80 4b 00
        E 0 80 57 00
        E 0 80 63 00
        E 180 80 32 00
        E 60 90 34 60
        E 0 90 3d 60
        E 0 90 4a 60
        E 0 90 56 60
        E 0 90 62 60
        E 0 90 74 60
        E 60 80 3d 00
        E 0 80 4a 00
        E 0 80 56 00
        E 0 80 62 00
        E 60 90 58 60
        E 0 90 64 60
        E 300 80 58 00
        E 0 80 64 00
        E 60 90 3d 60
        E 0 90 4a 60
        E 0 90 56 60
        E 0 90 62 60
        E 60 80 3d 00
        E 0 80 4a 00
        E 0 80 56 00
        E 0 80 62 00
        E 60 90 58 60
        E 0 90 64 60
        E 300 80 58 00
        E 0 80 64 00
        E 60 90 3d 60
        E 0 90 4a 60
        E 0 90 56 60
        E 0 90 62 60
        E 60 80 3d 00
        E 0 80 4a 00
        E 0 80 56 00
        E 0 80 62 00
        E 60 90 58 60
        E 0 90 64 60
        E 300 80 58 00
        E 0 80 64 00
        E 60 90 3d 60
        E 0 90 4a 60
        E 0 90 56 60
        E 0 90 62 60
        E 60 80 3d 00
        E 0 80 4a 00
        E 0 80 56 00
        E 0 80 62 00
        E 60 90 58 60
        E 0 90 64 60
        E 60 80 58 00
        E 0 80 64 00
        E 60 80 74 00
        E 180 80 34 00
        E 60 90 2d 60
        E 0 90 4a 60
        E 0 90 56 60
        E 0 90 62 60
        E 60 80 4a 00
        E 0 80 56 00
        E 0 80 62 00
        E 180 90 3e 60
        E 0 90 4b 60
        E 0 90 57 60
        E 0 90 63 60
        E 480 80 3e 00
        E 0 80 4b 00
        E 0 80 57 00
        E 0 80 63 00
        E 240 90 4a 60
        E 0 90 56 60
        E 0 90 62 60
        E 60 80 4a 00
        E 0 80 56 00
        E 0 80 62 00
        E 180 90 3e 60
        E 0 90 4b 60
        E 0 90 57 60
        E 0 90 63 60
        E 480 80 3e 00
        E 0 80 4b 00
        E 0 80 57 00
        E 0 80 63 00
        E 240 90 4a 60
        E 0 90 56 60
        E 0 90 62 60
        E 60 80 4a 00
        E 0 80 56 00
        E 0 80 62 00
        E 180 90 3e 60
        E 0 90 4b 60
        E 0 90 57 60
        E 0 90 63 60
        E 480 80 3e 00
        E 0 80 4b 00
        E 0 80 57 00
        E 0 80 63 00
        E 240 90 4a 60
        E 0 90 56 60
        E 0 90 62 60
        E 60 80 4a 00
        E 0 80 56 00
        E 0 80 62 00
        E 180 90 3e 60
        E 0 90 4b 60
        E 0 90 57 60
        E 0 90 63 60
        E 480 80 3e 00
        E 0 80 4b 00
        E 0 80 57 00
        E 0 80 63 00
        E 180 80 2d 00
        E 60 90 31 60
        E 0 90 48 60
        E 0 90 54 60
        E 0 90 60 60
        E 60 80 48 00
        E 0 80 54 00
        E 0 80 60 00
        E 180 90 3d 60
        E 0 90 4a 60
        E 0 90 56 60
        E 0 90 62 60
        E 480 80 3d 00
        E 0 80 4a 00
        E 0 80 56 00
        E 0 80 62 00
        E 180 80 31 00
        E 60 90 32 60
        E 0 90 49 60
        E 0 90 55 60
        E 0 90 61 60
        E 60 80 49 00
        E 0 80 55 00
        E 0 80 61 00
        E 180 90 3e 60
        E 0 90 4b 60
        E 0 90 57 60
        E 0 90 63 60
        E 480 80 3e 00
        E 0 80 4b 00
        E 0 80 57 00
        E 0 80 63 00
        E 180 80 32 00
        E 60 90 34 60
        E 0 90 3d 60
        E 0 90 4a 60
        E 0 90 56 60
        E 0 90 62 60
        E 60 80 3d 00
        E 0 80 4a 00
        E 0 80 56 00
        E 0 80 62 00
        E 60 90 58 60
        E 0 90 64 60
        E 300 80 58 00
        E 0 80 64 00
        E 60 90 3d 60
        E 0 90 4a 60
        E 0 90 56 60
        E 0 90 62 60
        E 60 80 3d 00
        E 0 80 4a 00
        E 0 80 56 00
        E 0 80 62 00
        E 60 90 58 60
        E 0 90 64 60
        E 300 80 58 00
        E 0 80 64 00
        E 60 90 3d 60
        E 0 90 4a 60
        E 0 90 56 60
        E 0 90 62 60
        E 60 80 3d 00
        E 0 80 4a 00
        E 0 80 56 00
        E 0 80 62 00
        E 60 90 58 60
        E 0 90 64 60
        E 300 80 58 00
        E 0 80 64 00
        E 60 90 4a 60
        E 0 90 56 60
        E 0 90 62 60
        E 60 80 4a 00
        E 0 80 56 00
        E 0 80 62 00
        E 60 90 58 60
        E 0 90 64 60
        E 60 80 58 00
        E 0 80 64 00
        E 60 90 3e 60
        E 0 90 4b 60
        E 0 90 57 60
        E 0 90 63 60
        E 60 80 3e 00
        E 0 80 4b 00
        E 0 80 57 00
        E 0 80 63 00
        E 120 80 34 00
        E 60 90 31 60
        E 0 90 48 60
        E 0 90 54 60
        E 0 90 60 60
        E 60 80 48 00
        E 0 80 54 00
        E 0 80 60 00
        E 180 90 3e 60
        E 0 90 4b 60
        E 0 90 58 60
        E 0 90 64 60
        E 60 80 3e 00
        E 0 80 4b 00
        E 0 80 58 00
        E 0 80 64 00
        E 180 90 48 60
        E 0 90 54 60
        E 0 90 60 60
        E 60 80 48 00
        E 0 80 54 00
        E 0 80 60 00
        E 180 90 3d 60
        E 0 90 4a 60
        E 0 90 56 60
        E 0 90 62 60
        E 60 80 3d 00
        E 0 80 4a 00
        E 0 80 56 00
        E 0 80 62 00
        E 180 90 48 60
        E 0 90 54 60
        E 0 90 60 60
        E 60 80 48 00
        E 0 80 54 00
        E 0 80 60 00
        E 180 90 3e 60
        E 0 90 4b 60
        E 0 90 58 60
        E 0 90 64 60
        E 60 80 3e 00
        E 0 80 4b 00
        E 0 80 58 00
        E 0 80 64 00
        E 180 90 48 60
        E 0 90 54 60
        E 0 90 60 60
        E 60 80 48 00
        E 0 80 54 00
        E 0 80 60 00
        E 180 90 3d 60
        E 0 90 4a 60
        E 0 90 56 60
        E 0 90 62 60
        E 60 80 3d 00
        E 0 80 4a 00
        E 0 80 56 00
        E 0 80 62 00
        E 180 90 48 60
        E 0 90 54 60
        E 0 90 60 60
        E 60 80 48 00
        E 0 80 54 00
        E 0 80 60 00
        E 180 90 3e 60
        E 0 90 4b 60
        E 0 90 58 60
        E 0 90 64 60
        E 60 80 3e 00
        E 0 80 4b 00
        E 0 80 58 00
        E 0 80 64 00
        E 180 90 48 60
        E 0 90 54 60
        E 0 90 60 60
        E 60 80 48 00
        E 0 80 54 00
        E 0 80 60 00
        E 180 90 3c 60
        E 0 90 49 60
        E 0 90 55 60
        E 0 90 61 60
        E 60 80 3c 00
        E 0 80 49 00
        E 0 80 55 00
        E 0 80 61 00
        E 180 90 48 60
        E 0 90 54 60
        E 0 90 60 60
        E 60 80 48 00
        E 0 80 54 00
        E 0 80 60 00
        E 180 90 3e 60
        E 0 90 4b 60
        E 0 90 58 60
        E 0 90 64 60
        E 60 80 3e 00
        E 0 80 4b 00
        E 0 80 58 00
        E 0 80 64 00
        E 180 90 48 60
        E 0 90 54 60
        E 0 90 60 60
        E 60 80 48 00
        E 0 80 54 00
        E 0 80 60 00
        E 180 90 3d 60
        E 0 90 4a 60
        E 0 90 56 60
        E 0 90 62 60
        E 0 90 74 60
        E 60 80 3d 00
        E 0 80 4a 00
        E 0 80 56 00
        E 0 80 62 00
        E 180 90 49 60
        E 0 90 55 60
        E 0 90 61 60
        E 60 80 49 00
        E 0 80 55 00
        E 0 80 61 00
        E 180 90 3e 60
        E 0 90 4b 60
        E 0 90 57 60
        E 0 90 63 60
        E 60 80 3e 00
        E 0 80 4b 00
        E 0 80 57 00
        E 0 80 63 00
        E 180 90 49 60
        E 0 90 55 60
        E 0 90 61 60
        E 60 80 49 00
        E 0 80 55 00
        E 0 80 61 00
        E 120 80 31 00
        E 60 90 32 60
        E 0 90 3e 60
        E 0 90 4b 60
        E 0 90 57 60
        E 0 90 63 60
        E 60 80 3e 00
        E 0 80 4b 00
        E 0 80 57 00
        E 0 80 63 00
        E 180 90 4a 60
        E 0 90 56 60
        E 0 90 62 60
        E 60 80 4a 00
        E 0 80 56 00
        E 0 80 62 00
        E 180 90 3e 60
        E 0 90 4b 60
        E 0 90 58 60
        E 0 90 64 60
        E 60 80 3e 00
        E 0 80 4b 00
        E 0 80 58 00
        E 0 80 64 00
        E 180 90 4a 60
        E 0 90 56 60
        E 0 90 62 60
        E 60 80 4a 00
        E 0 80 56 00
        E 0 80 62 00
        E 120 80 32 00
        E 60 90 34 60
        E 0 90 3e 60
        E 0 90 4b 60
        E 0 90 57 60
        E 0 90 63 60
        E 60 80 74 00
        E 0 80 3e 00
        E 0 80 4b 00
        E 0 80 57 00
        E 0 80 63 00
        E 180 90 4b 60
        E 0 90 58 60
        E 0 90 64 60
        E 60 80 4b 00
        E 0 80 58 00
        E 0 80 64 00
        E 180 90 3d 60
        E 0 90 4a 60
        E 0 90 56 60
        E 0 90 62 60
        E 60 80 3d 00
        E 0 80 4a 00
        E 0 80 56 00
        E 0 80 62 00
        E 180 90 4b 60
        E 0 90 58 60
        E 0 90 64 60
        E 60 80 4b 00
        E 0 80 58 00
        E 0 80 64 00
        E 120 80 34 00
        E 60 90 31 60
        E 0 90 3c 60
        E 0 90 49 60
        E 0 90 55 60
        E 0 90 61 60
        E 60 80 3c 00
        E 0 80 49 00
        E 0 80 55 00
        E 0 80 61 00
        E 180 90 4b 60
        E 0 90 58 60
        E 0 90 64 60
        E 60 80 4b 00
        E 0 80 58 00
        E 0 80 64 00
        E 180 90 3c 60
        E 0 90 48 60
        E 0 90 54 60
        E 0 90 60 60
        E 60 80 3c 00
        E 0 80 48 00
        E 0 80 54 00
        E 0 80 60 00
        E 180 90 4b 60
        E 0 90 58 60
        E 0 90 64 60
        E 60 80 4b 00
        E 0 80 58 00
        E 0 80 64 00
        E 180 90 3e 60
        E 0 90 4b 60
        E 0 90 57 60
        E 0 90 63 60
        E 60 80 3e 00
        E 0 80 4b 00
        E 0 80 57 00
        E 0 80 63 00
        E 180 90 48 60
        E 0 90 54 60
        E 0 90 60 60
        E 60 80 48 00
        E 0 80 54 00
        E 0 80 60 00
        E 180 90 3e 60
        E 0 90 4b 60
        E 0 90 58 60
        E 0 90 64 60
        E 60 80 3e 00
        E 0 80 4b 00
        E 0 80 58 00
        E 0 80 64 00
        E 180 90 48 60
        E 0 90 54 60
        E 0 90 60 60
        E 60 80 48 00
        E 0 80 54 00
        E 0 80 60 00
        E 180 90 3d 60
        E 0 90 4a 60
        E 0 90 56 60
        E 0 90 62 60
        E 60 80 3d 00
        E 0 80 4a 00
        E 0 80 56 00
        E 0 80 62 00
        E 180 90 48 60
        E 0 90 54 60
        E 0 90 60 60
        E 60 80 48 00
        E 0 80 54 00
        E 0 80 60 00
        E 180 90 3e 60
        E 0 90 4b 60
        E 0 90 58 60
        E 0 90 64 60
        E 60 80 3e 00
        E 0 80 4b 00
        E 0 80 58 00
        E 0 80 64 00
        E 180 90 48 60
        E 0 90 54 60
        E 0 90 60 60
        E 60 80 48 00
        E 0 80 54 00
        E 0 80 60 00
        E 180 90 3d 60
        E 0 90 4a 60
        E 0 90 56 60
        E 0 90 62 60
        E 60 80 3d 00
        E 0 80 4a 00
        E 0 80 56 00
        E 0 80 62 00
        E 180 90 48 60
        E 0 90 54 60
        E 0 90 60 60
        E 60 80 48 00
        E 0 80 54 00
        E 0 80 60 00
        E 180 90 3e 60
        E 0 90 4b 60
        E 0 90 58 60
        E 0 90 64 60
        E 60 80 3e 00
        E 0 80 4b 00
        E 0 80 58 00
        E 0 80 64 00
        E 180 90 48 60
        E 0 90 54 60
        E 0 90 60 60
        E 60 80 48 00
        E 0 80 54 00
        E 0 80 60 00
        E 180 90 3c 60
        E 0 90 49 60
        E 0 90 55 60
        E 0 90 61 60
        E 60 80 3c 00
        E 0 80 49 00
        E 0 80 55 00
        E 0 80 61 00
        E 180 90 48 60
        E 0 90 54 60
        E 0 90 60 60
        E 60 80 48 00
        E 0 80 54 00
        E 0 80 60 00
        E 180 90 3e 60
        E 0 90 4b 60
        E 0 90 58 60
        E 0 90 64 60
        E 60 80 3e 00
        E 0 80 4b 00
        E 0 80 58 00
        E 0 80 64 00
        E 180 90 48 60
        E 0 90 54 60
        E 0 90 60 60
        E 60 80 48 00
        E 0 80 54 00
        E 0 80 60 00
        E 180 90 3d 60
        E 0 90 4a 60
        E 0 90 56 60
        E 0 90 62 60
        E 60 80 3d 00
        E 0 80 4a 00
        E 0 80 56 00
        E 0 80 62 00
        E 180 90 49 60
        E 0 90 55 60
        E 0 90 61 60
        E 60 80 49 00
        E 0 80 55 00
        E 0 80 61 00
        E 180 90 3e 60
        E 0 90 4b 60
        E 0 90 57 60
        E 0 90 63 60
        E 60 80 3e 00
        E 0 80 4b 00
        E 0 80 57 00
        E 0 80 63 00
        E 180 90 49 60
        E 0 90 55 60
        E 0 90 61 60
        E 60 80 49 00
        E 0 80 55 00
        E 0 80 61 00
        E 120 80 31 00
        E 60 90 32 60
        E 0 90 3e 60
        E 0 90 4b 60
        E 0 90 57 60
        E 0 90 63 60
        E 60 80 3e 00
        E 0 80 4b 00
        E 0 80 57 00
        E 0 80 63 00
        E 180 90 4a 60
        E 0 90 56 60
        E 0 90 62 60
        E 60 80 4a 00
        E 0 80 56 00
        E 0 80 62 00
        E 180 90 3e 60
        E 0 90 4b 60
        E 0 90 58 60
        E 0 90 64 60
        E 60 80 3e 00
        E 0 80 4b 00
        E 0 80 58 00
        E 0 80 64 00
        E 180 90 4a 60
        E 0 90 56 60
        E 0 90 62 60
        E 60 80 4a 00
        E 0 80 56 00
        E 0 80 62 00
        E 120 80 32 00
        E 60 90 34 60
        E 0 90 3e 60
        E 0 90 4b 60
        E 0 90 57 60
        E 0 90 63 60
        E 60 80 3e 00
        E 0 80 4b 00
        E 0 80 57 00
        E 0 80 63 00
        E 180 90 4b 60
        E 0 90 58 60
        E 0 90 64 60
        E 60 80 4b 00
        E 0 80 58 00
        E 0 80 64 00
        E 180 90 3d 60
        E 0 90 4a 60
        E 0 90 56 60
        E 0 90 62 60
        E 60 80 3d 00
        E 0 80 4a 00
        E 0 80 56 00
        E 0 80 62 00
        E 180 90 4b 60
        E 0 90 58 60
        E 0 90 64 60
        E 60 80 4b 00
        E 0 80 58 00
        E 0 80 64 00
        E 120 80 34 00
        E 60 90 31 60
        E 0 90 3c 60
        E 0 90 49 60
        E 0 90 55 60
        E 0 90 61 60
        E 60 80 3c 00
        E 0 80 49 00
        E 0 80 55 00
        E 0 80 61 00
        E 180 90 4b 60
        E 0 90 58 60
        E 0 90 64 60
        E 60 80 4b 00
        E 0 80 58 00
        E 0 80 64 00
        E 180 90 3c 60
        E 0 90 48 60
        E 0 90 54 60
        E 0 90 60 60
        E 60 80 3c 00
        E 0 80 48 00
        E 0 80 54 00
        E 0 80 60 00
        E 180 90 4b 60
        E 0 90 58 60
        E 0 90 64 60
        E 60 80 4b 00
        E 0 80 58 00
        E 0 80 64 00
        E 120 80 31 00
        E 60 90 2d 60
        E 0 90 3d 60
        E 0 90 4a 60
        E 0 90 56 60
        E 0 90 62 60
        E 60 80 3d 00
        E 0 80 4a 00
        E 0 80 56 00
        E 0 80 62 00
        E 180 90 49 60
        E 0 90 55 60
        E 0 90 61 60
        E 60 80 49 00
        E 0 80 55 00
        E 0 80 61 00
        E 180 90 3d 60
        E 0 90 4a 60
        E 0 90 56 60
        E 0 90 62 60
        E 60 80 3d 00
        E 0 80 4a 00
        E 0 80 56 00
        E 0 80 62 00
        E 180 90 4b 60
        E 0 90 57 60
        E 0 90 63 60
        E 60 80 4b 00
        E 0 80 57 00
        E 0 80 63 00
        E 180 90 3e 60
        E 0 90 4b 60
        E 0 90 58 60
        E 0 90 64 60
        E 60 80 3e 00
        E 0 80 4b 00
        E 0 80 58 00
        E 0 80 64 00
        E 180 90 4b 60
        E 0 90 57 60
        E 0 90 63 60
        E 60 80 4b 00
        E 0 80 57 00
        E 0 80 63 00
        E 120 80 2d 00
        E 60 90 28 60
        E 0 90 3c 60
        E 0 90 49 60
        E 0 90 55 60
        E 0 90 61 60
        E 60 80 3c 00
        E 0 80 49 00
        E 0 80 55 00
        E 0 80 61 00
        E 180 90 4b 60
        E 0 90 57 60
        E 0 90 63 60
        E 60 80 4b 00
        E 0 80 57 00
        E 0 80 63 00
        E 120 80 28 00
        E 60 90 2d 60
        E 0 90 3d 60
        E 0 90 4a 60
        E 0 90 56 60
        E 0 90 62 60
        E 60 80 3d 00
        E 0 80 4a 00
        E 0 80 56 00
        E 0 80 62 00
        E 180 90 49 60
        E 0 90 55 60
        E 0 90 61 60
        E 60 80 49 00
        E 0 80 55 00
        E 0 80 61 00
        E 180 90 3d 60
        E 0 90 4a 60
        E 0 90 56 60
        E 0 90 62 60
        E 60 80 3d 00
        E 0 80 4a 00
        E 0 80 56 00
        E 0 80 62 00
        E 180 90 4b 60
        E 0 90 57 60
        E 0 90 63 60
        E 60 80 4b 00
        E 0 80 57 00
        E 0 80 63 00
        E 180 90 3e 60
        E 0 90 4b 60
        E 0 90 58 60
        E 0 90 64 60
        E 60 80 3e 00
        E 0 80 4b 00
        E 0 80 58 00
        E 0 80 64 00
        E 180 90 4b 60
        E 0 90 57 60
        E 0 90 63 60
        E 60 80 4b 00
        E 0 80 57 00
        E 0 80 63 00
        E 120 80 2d 00
        E 60 90 28 60
        E 0 90 3c 60
        E 0 90 49 60
        E 0 90 55 60
        E 0 90 61 60
        E 60 80 3c 00
        E 0 80 49 00
        E 0 80 55 00
        E 0 80 61 00
        E 180 90 4b 60
        E 0 90 57 60
        E 0 90 63 60
        E 60 80 4b 00
        E 0 80 57 00
        E 0 80 63 00
        E 120 80 28 00
        E 60 90 2d 60
        E 0 90 3d 60
        E 0 90 4a 60
        E 0 90 56 60
        E 0 90 62 60
        E 60 80 3d 00
        E 0 80 4a 00
        E 0 80 56 00
        E 0 80 62 00
        E 180 90 49 60
        E 0 90 55 60
        E 0 90 61 60
        E 60 80 49 00
        E 0 80 55 00
        E 0 80 61 00
        E 180 90 3d 60
        E 0 90 4a 60
        E 0 90 56 60
        E 0 90 62 60
        E 60 80 3d 00
        E 0 80 4a 00
        E 0 80 56 00
        E 0 80 62 00
        E 180 90 4b 60
        E 0 90 57 60
        E 0 90 63 60
        E 60 80 4b 00
        E 0 80 57 00
        E 0 80 63 00
        E 180 90 3e 60
        E 0 90 4b 60
        E 0 90 58 60
        E 0 90 64 60
        E 60 80 3e 00
        E 0 80 4b 00
        E 0 80 58 00
        E 0 80 64 00
        E 180 90 4b 60
        E 0 90 57 60
        E 0 90 63 60
        E 60 80 4b 00
        E 0 80 57 00
        E 0 80 63 00
        E 120 80 2d 00
        E 60 90 28 60
        E 0 90 3c 60
        E 0 90 49 60
        E 0 90 55 60
        E 0 90 61 60
        E 60 80 3c 00
        E 0 80 49 00
        E 0 80 55 00
        E 0 80 61 00
        E 180 90 4b 60
        E 0 90 57 60
        E 0 90 63 60
        E 60 80 4b 00
        E 0 80 57 00
        E 0 80 63 00
        E 120 80 28 00
        E 60 90 2d 60
        E 0 90 3d 60
        E 0 90 4a 60
        E 0 90 56 60
        E 0 90 62 60
        E 60 80 3d 00
        E 0 80 4a 00
        E 0 80 56 00
        E 0 80 62 00
        E 180 90 49 60
        E 0 90 55 60
        E 0 90 61 60
        E 60 80 49 00
        E 0 80 55 00
        E 0 80 61 00
        E 180 90 3d 60
        E 0 90 4a 60
        E 0 90 56 60
        E 0 90 62 60
        E 60 80 3d 00
        E 0 80 4a 00
        E 0 80 56 00
        E 0 80 62 00
        E 180 90 4b 60
        E 0 90 57 60
        E 0 90 63 60
        E 60 80 4b 00
        E 0 80 57 00
        E 0 80 63 00
        E 180 90 3e 60
        E 0 90 4b 60
        E 0 90 58 60
        E 0 90 64 60
        E 60 80 3e 00
        E 0 80 4b 00
        E 0 80 58 00
        E 0 80 64 00
        E 180 90 4b 60
        E 0 90 57 60
        E 0 90 63 60
        E 60 80 4b 00
        E 0 80 57 00
        E 0 80 63 00
        E 120 80 2d 00
        E 60 90 28 60
        E 0 90 3c 60
        E 0 90 49 60
        E 0 90 55 60
        E 0 90 61 60
        E 60 80 3c 00
        E 0 80 49 00
        E 0 80 55 00
        E 0 80 61 00
        E 180 90 4b 60
        E 0 90 57 60
        E 0 90 63 60
        E 60 80 4b 00
        E 0 80 57 00
        E 0 80 63 00
        E 180 80 28 00
        <X 60 0
          /wFbaWRsZV9yZWFsdGltZV0=
        >
        E 5699 b0 7b 00
        GUID {9F0D6F1E-DA24-4B77-9B7B-9E09284FD770}
        IGNTEMPO 0 120.00000000 4 4
        SRCCOLOR 89
        VELLANE 132 128 60
        COLORMAP "C:\Program Files\REAPER (x64)\Data\color_maps\rockband_guitarbass.png"
        CFGEDITVIEW -3993.874586 9.399277 0 12 0 0 0
        CFGEDIT 1 1 0 1 1 0 1 1 1 1 1 0.25000000 -8 -8 1544 872 0 2 1 1 0.00000000 0 1 1 0 0.500000 0 0 1.000000 64
        KEYSNAP 0 6 "102030050700" 0 "Pentatonic"
        EVTFILTER 0 -1 -1 -1 -1 0 1 0 0 -1.00000000 -1.00000000
      >
    >
  >
  <TRACK '{5CBB1902-1175-4243-8F14-C084721B0115}'
    NAME "guitar"
    PEAKCOL 16576
    BEAT -1
    AUTOMODE 0
    VOLPAN 1.00000000000000 0.00000000000000 -1.00000000000000 -1.00000000000000 1.00000000000000
    MUTESOLO 0 0 0
    IPHASE 0
    ISBUS 2 -1
    BUSCOMP 0 0
    SHOWINMIX 1 0.666700 0.500000 1 0.500000 -1 -1 -1
    FREEMODE 0
    SEL 0
    REC 0 0 0 0 0 0 0
    VU 2
    TRACKHEIGHT 0 0
    INQ 0 0 0 0.5000000000 100 0 0 100
    NCHAN 2
    FX 1
    TRACKID {5CBB1902-1175-4243-8F14-C084721B0115}
    PERF 0
    MIDIOUT -1
    MAINSEND 1 0
    <ITEM
      POSITION 0.00000000000000
      SNAPOFFS 0.00000000000000
      LENGTH 119.47727891156462
      LOOP 0
      ALLTAKES 0
      SEL 0
      FADEIN 1 0.000000 0.000000 1 0
      FADEOUT 1 0.000000 0.000000 1 0
      MUTE 0
      IGUID {A09CFCF4-51A6-4D21-8EDF-B37375EA6977}
      IID 16
      NAME "guitar.wav"
      VOLPAN 1.000000 0.000000 1.000000 -1.000000
      SOFFS 0.00000000000000
      PLAYRATE 1.00000000000000 1 0.00000000000000 -1
      CHANMODE 0
      GUID {3DBA5500-A1B9-4813-961A-E728738B3D6D}
      <SOURCE WAVE
        FILE "C:\Users\Ruggery\Documents\Visual Studio Code\Projects\ruggy-customs-projects\songs\motherearth\wav\guitar.wav"
      >
    >
  >
  <TRACK '{94FDB347-CB34-49D7-9225-DF664AE4274E}'
    NAME "PART KEYS"
    PEAKCOL 16576
    BEAT -1
    AUTOMODE 0
    VOLPAN 1.00000000000000 0.00000000000000 -1.00000000000000 -1.00000000000000 1.00000000000000
    MUTESOLO 0 0 0
    IPHASE 0
    ISBUS 1 1
    BUSCOMP 0 0
    SHOWINMIX 1 0.666700 0.500000 1 0.500000 -1 -1 -1
    FREEMODE 0
    SEL 0
    REC 0 0 0 0 0 0 0
    VU 2
    TRACKHEIGHT 0 0
    INQ 0 0 0 0.5000000000 100 0 0 100
    NCHAN 2
    FX 1
    TRACKID {94FDB347-CB34-49D7-9225-DF664AE4274E}
    PERF 0
    MIDIOUT -1
    <MIDINOTENAMES
      0 127 "TRILL MARKER"
      0 125 "---"
      0 124 "BRE"
      0 123 "BRE"
      0 122 "BRE"
      0 121 "BRE"
      0 120 "BRE (use all 5)"
      0 119 "----"
      0 116 "OVERDRIVE"
      0 115 "----"
      0 103 "Solo Marker"
      0 102 "Force HOPO Off"
      0 101 "Force HOPO On"
      0 100 "EXPERT Orange"
      0 99 "EXPERT Blue"
      0 98 "EXPERT Yellow"
      0 97 "EXPERT Red"
      0 96 "EXPERT Green"
      0 95 "----"
      0 90 "Force HOPO Off"
      0 89 "Force HOPO On"
      0 88 "HARD Orange"
      0 87 "HARD Blue"
      0 86 "HARD Yellow"
      0 85 "HARD Red"
      0 84 "HARD Green"
      0 77 "----"
      0 76 "MEDIUM Orange"
      0 75 "MEDIUM Blue"
      0 74 "MEDIUM Yellow"
      0 73 "MEDIUM Red"
      0 72 "MEDIUM Green"
      0 65 "----"
      0 64 "EASY Orange"
      0 63 "EASY Blue"
      0 62 "EASY Yellow"
      0 61 "EASY Red"
      0 60 "EASY Green"
    >
    MAINSEND 1 0
    <FXCHAIN
      WNDRECT 0 43 891 559
      SHOW 0
      LASTSEL 0
      DOCKED 0
      BYPASS 0 0
      <VST "VSTi: RBN Preview (RBN)" "rbprev_vst64.dll" 0 ""
        dnBicu5e7f4AAAAAAgAAAAEAAAAAAAAAAgAAAAAAAAAEAAAAAQAAAA==
        AAAQAAMAqgAAABAAAAA=
      >
      FLOATPOS 0 0 0 0
      FXID {22ECFCD6-C883-459A-AC66-EA9B41C4210B}
      WAK 0
    >
    <ITEM
      POSITION 0.00000000000000
      SNAPOFFS 0.00000000000000
      LENGTH 119.47700000000000
      LOOP 0
      ALLTAKES 0
      SEL 0
      FADEIN 1 0.000000 0.000000 1 0
      FADEOUT 1 0.000000 0.000000 1 0
      MUTE 0
      IGUID {56C6AD20-6A74-4F01-B51D-1EC09BAEEE97}
      IID 4
      NAME "PART KEYS"
      VOLPAN 1.000000 0.000000 1.000000 -1.000000
      SOFFS 0.00000000000000 0.00000000000000
      PLAYRATE 1.00000000000000 1 0.00000000000000 -1
      CHANMODE 0
      GUID {78F38C71-3257-47FE-A3DE-2C477BD4A4A9}
      <SOURCE MIDI
        HASDATA 1 480 QN
        POOLEDEVTS {4CEE8424-7C3A-4095-AC66-75495DC8FD91}
        <X 0 0
          /wNQQVJUIEtFWVM=
        >
        <X 1920 0
          /wFbaWRsZV0=
        >
        <X 7680 0
          /wFbbWVsbG93XQ==
        >
        E 0 90 3c 60
        E 0 90 48 60
        E 0 90 54 60
        E 0 90 60 60
        E 720 80 3c 00
        E 0 80 48 00
        E 180 80 54 00
        E 0 80 60 00
        E 60 90 3c 60
        E 0 90 49 60
        E 0 90 55 60
        E 0 90 61 60
        E 720 80 3c 00
        E 0 80 49 00
        E 180 80 55 00
        E 0 80 61 00
        E 60 90 3e 60
        E 0 90 4b 60
        E 0 90 57 60
        E 0 90 63 60
        E 480 80 3e 00
        E 0 80 4b 00
        E 180 80 57 00
        E 0 80 63 00
        E 60 90 3e 60
        E 0 90 4b 60
        E 0 90 58 60
        E 0 90 64 60
        E 60 80 3e 00
        E 0 80 4b 00
        E 120 80 58 00
        E 0 80 64 00
        E 60 90 3e 60
        E 0 90 4b 60
        E 0 90 57 60
        E 0 90 63 60
        E 720 80 3e 00
        E 0 80 4b 00
        E 180 80 57 00
        E 0 80 63 00
        E 60 90 3c 60
        E 0 90 48 60
        E 0 90 54 60
        E 0 90 60 60
        E 0 90 74 60
        E 720 80 3c 00
        E 0 80 48 00
        E 180 80 54 00
        E 0 80 60 00
        E 60 90 3c 60
        E 0 90 49 60
        E 0 90 55 60
        E 0 90 61 60
        E 720 80 3c 00
        E 0 80 49 00
        E 180 80 55 00
        E 0 80 61 00
        E 60 90 3e 60
        E 0 90 4b 60
        E 0 90 57 60
        E 0 90 63 60
        E 480 80 3e 00
        E 0 80 4b 00
        E 180 80 57 00
        E 0 80 63 00
        E 60 90 3e 60
        E 0 90 4b 60
        E 0 90 58 60
        E 0 90 64 60
        E 60 80 3e 00
        E 0 80 4b 00
        E 120 80 58 00
        E 0 80 64 00
        E 60 90 3e 60
        E 0 90 4b 60
        E 0 90 57 60
        E 0 90 63 60
        E 720 80 3e 00
        E 0 80 4b 00
        E 180 80 57 00
        E 0 80 63 00
        E 60 80 74 00
        E 0 90 3d 60
        E 0 90 4a 60
        E 0 90 56 60
        E 0 90 62 60
        E 240 80 3d 00
        E 0 80 4a 00
        E 180 80 56 00
        E 0 80 62 00
        E 60 90 3e 60
        E 0 90 4b 60
        E 0 90 57 60
        E 0 90 63 60
        E 60 80 3e 00
        E 0 80 4b 00
        E 120 80 57 00
        E 0 80 63 00
        E 60 90 3e 60
        E 0 90 4b 60
        E 0 90 58 60
        E 0 90 64 60
        E 60 80 3e 00
        E 0 80 4b 00
        E 120 80 58 00
        E 0 80 64 00
        E 60 90 3e 60
        E 0 90 4b 60
        E 0 90 58 60
        E 0 90 64 60
        E 720 80 3e 00
        E 0 80 4b 00
        E 180 80 58 00
        E 0 80 64 00
        E 60 90 3c 60
        E 0 90 49 60
        E 0 90 55 60
        E 0 90 61 60
        E 240 80 3c 00
        E 0 80 49 00
        E 180 80 55 00
        E 0 80 61 00
        E 60 90 3d 60
        E 0 90 4a 60
        E 0 90 56 60
        E 0 90 62 60
        E 60 80 3d 00
        E 0 80 4a 00
        E 120 80 56 00
        E 0 80 62 00
        E 60 90 4b 60
        E 0 90 57 60
        E 0 90 63 60
        E 60 80 4b 00
        E 120 80 57 00
        E 0 80 63 00
        E 60 90 3d 60
        E 0 90 4a 60
        E 0 90 56 60
        E 0 90 62 60
        E 720 80 3d 00
        E 0 80 4a 00
        E 180 80 56 00
        E 0 80 62 00
        E 60 90 3e 60
        E 0 90 4b 60
        E 0 90 58 60
        E 0 90 64 60
        E 720 80 3e 00
        E 0 80 4b 00
        E 180 80 58 00
        E 0 80 64 00
        E 60 90 3e 60
        E 0 90 4b 60
        E 0 90 58 60
        E 0 90 64 60
        E 720 80 3e 00
        E 0 80 4b 00
        E 180 80 58 00
        E 0 80 64 00
        E 60 90 3e 60
        E 0 90 4b 60
        E 0 90 57 60
        E 0 90 63 60
        E 240 80 3e 00
        E 0 80 4b 00
        E 180 80 57 00
        E 0 80 63 00
        E 60 90 3d 60
        E 0 90 4a 60
        E 0 90 56 60
        E 0 90 62 60
        E 240 80 3d 00
        E 0 80 4a 00
        E 180 80 56 00
        E 0 80 62 00
        E 60 90 3c 60
        E 0 90 49 60
        E 0 90 55 60
        E 0 90 61 60
        E 240 80 3c 00
        E 0 80 49 00
        E 180 80 55 00
        E 0 80 61 00
        E 60 90 3c 60
        E 0 90 48 60
        E 0 90 54 60
        E 0 90 60 60
        E 240 80 3c 00
        E 0 80 48 00
        E 180 80 54 00
        E 0 80 60 00
        E 60 90 3d 60
        E 0 90 4a 60
        E 0 90 56 60
        E 0 90 62 60
        E 240 80 3d 00
        E 0 80 4a 00
        E 180 80 56 00
        E 0 80 62 00
        E 60 90 3e 60
        E 0 90 4b 60
        E 0 90 57 60
        E 0 90 63 60
        E 60 80 3e 00
        E 0 80 4b 00
        E 120 80 57 00
        E 0 80 63 00
        E 60 90 3e 60
        E 0 90 4b 60
        E 0 90 58 60
        E 0 90 64 60
        E 60 80 3e 00
        E 0 80 4b 00
        E 120 80 58 00
        E 0 80 64 00
        E 60 90 3e 60
        E 0 90 4b 60
        E 0 90 58 60
        E 0 90 64 60
        E 720 80 3e 00
        E 0 80 4b 00
        E 180 80 58 00
        E 0 80 64 00
        E 60 90 3c 60
        E 0 90 49 60
        E 0 90 55 60
        E 0 90 61 60
        E 240 80 3c 00
        E 0 80 49 00
        E 180 80 55 00
        E 0 80 61 00
        E 60 90 3d 60
        E 0 90 4a 60
        E 0 90 56 60
        E 0 90 62 60
        E 60 80 3d 00
        E 0 80 4a 00
        E 120 80 56 00
        E 0 80 62 00
        E 60 90 4b 60
        E 0 90 57 60
        E 0 90 63 60
        E 60 80 4b 00
        E 120 80 57 00
        E 0 80 63 00
        E 60 90 3d 60
        E 0 90 4a 60
        E 0 90 56 60
        E 0 90 62 60
        E 720 80 3d 00
        E 0 80 4a 00
        E 180 80 56 00
        E 0 80 62 00
        E 60 90 3e 60
        E 0 90 4b 60
        E 0 90 58 60
        E 0 90 64 60
        E 720 80 3e 00
        E 0 80 4b 00
        E 180 80 58 00
        E 0 80 64 00
        E 60 90 3e 60
        E 0 90 4b 60
        E 0 90 58 60
        E 0 90 64 60
        E 720 80 3e 00
        E 0 80 4b 00
        E 180 80 58 00
        E 0 80 64 00
        E 60 90 3e 60
        E 0 90 4b 60
        E 0 90 57 60
        E 0 90 63 60
        E 0 90 74 60
        E 240 80 3e 00
        E 0 80 4b 00
        E 180 80 57 00
        E 0 80 63 00
        E 60 90 3d 60
        E 0 90 4a 60
        E 0 90 56 60
        E 0 90 62 60
        E 240 80 3d 00
        E 0 80 4a 00
        E 180 80 56 00
        E 0 80 62 00
        E 60 90 3c 60
        E 0 90 49 60
        E 0 90 55 60
        E 0 90 61 60
        E 240 80 3c 00
        E 0 80 49 00
        E 180 80 55 00
        E 0 80 61 00
        E 60 90 3c 60
        E 0 90 48 60
        E 0 90 54 60
        E 0 90 60 60
        E 240 80 3c 00
        E 0 80 48 00
        E 180 80 54 00
        E 0 80 60 00
        E 60 80 74 00
        E 0 90 3c 60
        E 0 90 49 60
        E 0 90 55 60
        E 0 90 61 60
        E 240 80 3c 00
        E 0 80 49 00
        E 180 80 55 00
        E 0 80 61 00
        E 60 90 3d 60
        E 0 90 4a 60
        E 0 90 56 60
        E 0 90 62 60
        E 60 80 3d 00
        E 0 80 4a 00
        E 120 80 56 00
        E 0 80 62 00
        E 60 90 4b 60
        E 0 90 57 60
        E 0 90 63 60
        E 60 80 4b 00
        E 120 80 57 00
        E 0 80 63 00
        E 60 90 3e 60
        E 0 90 4b 60
        E 0 90 57 60
        E 0 90 63 60
        E 240 80 3e 00
        E 0 80 4b 00
        E 180 80 57 00
        E 0 80 63 00
        E 60 90 3e 60
        E 0 90 4b 60
        E 0 90 58 60
        E 0 90 64 60
        E 240 80 3e 00
        E 0 80 4b 00
        E 180 80 58 00
        E 0 80 64 00
        E 60 90 3c 60
        E 0 90 48 60
        E 0 90 54 60
        E 0 90 60 60
        E 240 80 3c 00
        E 0 80 48 00
        E 180 80 54 00
        E 0 80 60 00
        E 60 90 3c 60
        E 0 90 49 60
        E 0 90 55 60
        E 0 90 61 60
        E 60 80 3c 00
        E 0 80 49 00
        E 120 80 55 00
        E 0 80 61 00
        E 60 90 4a 60
        E 0 90 56 60
        E 0 90 62 60
        E 60 80 4a 00
        E 120 80 56 00
        E 0 80 62 00
        E 60 90 3c 60
        E 0 90 49 60
        E 0 90 55 60
        E 0 90 61 60
        E 720 80 3c 00
        E 0 80 49 00
        E 180 80 55 00
        E 0 80 61 00
        E 60 90 3d 60
        E 0 90 4a 60
        E 0 90 56 60
        E 0 90 62 60
        E 0 90 74 60
        E 240 80 3d 00
        E 0 80 4a 00
        E 180 80 56 00
        E 0 80 62 00
        E 60 90 3e 60
        E 0 90 4b 60
        E 0 90 57 60
        E 0 90 63 60
        E 60 80 3e 00
        E 0 80 4b 00
        E 120 80 57 00
        E 0 80 63 00
        E 60 90 48 60
        E 0 90 54 60
        E 0 90 60 60
        E 60 80 48 00
        E 120 80 54 00
        E 0 80 60 00
        E 60 90 3c 60
        E 0 90 49 60
        E 0 90 55 60
        E 0 90 61 60
        E 60 80 3c 00
        E 0 80 49 00
        E 120 80 55 00
        E 0 80 61 00
        E 60 90 4a 60
        E 0 90 56 60
        E 0 90 62 60
        E 60 80 4a 00
        E 120 80 56 00
        E 0 80 62 00
        E 60 90 3e 60
        E 0 90 4b 60
        E 0 90 57 60
        E 0 90 63 60
        E 60 80 3e 00
        E 0 80 4b 00
        E 120 80 57 00
        E 0 80 63 00
        E 60 90 3e 60
        E 0 90 4b 60
        E 0 90 58 60
        E 0 90 64 60
        E 60 80 3e 00
        E 0 80 4b 00
        E 120 80 58 00
        E 0 80 64 00
        E 60 90 3e 60
        E 0 90 4b 60
        E 0 90 57 60
        E 0 90 63 60
        E 60 80 74 00
        E 180 80 3e 00
        E 0 80 4b 00
        E 180 80 57 00
        E 0 80 63 00
        E 60 90 3d 60
        E 0 90 4a 60
        E 0 90 56 60
        E 0 90 62 60
        E 240 80 3d 00
        E 0 80 4a 00
        E 180 80 56 00
        E 0 80 62 00
        E 60 90 3c 60
        E 0 90 49 60
        E 0 90 55 60
        E 0 90 61 60
        E 240 80 3c 00
        E 0 80 49 00
        E 180 80 55 00
        E 0 80 61 00
        E 60 90 3c 60
        E 0 90 48 60
        E 0 90 54 60
        E 0 90 60 60
        E 240 80 3c 00
        E 0 80 48 00
        E 180 80 54 00
        E 0 80 60 00
        E 60 90 3c 60
        E 0 90 49 60
        E 0 90 55 60
        E 0 90 61 60
        E 240 80 3c 00
        E 0 80 49 00
        E 180 80 55 00
        E 0 80 61 00
        E 60 90 3d 60
        E 0 90 4a 60
        E 0 90 56 60
        E 0 90 62 60
        E 60 80 3d 00
        E 0 80 4a 00
        E 120 80 56 00
        E 0 80 62 00
        E 60 90 4b 60
        E 0 90 57 60
        E 0 90 63 60
        E 60 80 4b 00
        E 120 80 57 00
        E 0 80 63 00
        E 60 90 3e 60
        E 0 90 4b 60
        E 0 90 57 60
        E 0 90 63 60
        E 240 80 3e 00
        E 0 80 4b 00
        E 180 80 57 00
        E 0 80 63 00
        E 60 90 3e 60
        E 0 90 4b 60
        E 0 90 58 60
        E 0 90 64 60
        E 240 80 3e 00
        E 0 80 4b 00
        E 180 80 58 00
        E 0 80 64 00
        E 60 90 3c 60
        E 0 90 48 60
        E 0 90 54 60
        E 0 90 60 60
        E 240 80 3c 00
        E 0 80 48 00
        E 180 80 54 00
        E 0 80 60 00
        E 60 90 3c 60
        E 0 90 49 60
        E 0 90 55 60
        E 0 90 61 60
        E 60 80 3c 00
        E 0 80 49 00
        E 120 80 55 00
        E 0 80 61 00
        E 60 90 4a 60
        E 0 90 56 60
        E 0 90 62 60
        E 60 80 4a 00
        E 120 80 56 00
        E 0 80 62 00
        E 60 90 3c 60
        E 0 90 49 60
        E 0 90 55 60
        E 0 90 61 60
        E 720 80 3c 00
        E 0 80 49 00
        E 180 80 55 00
        E 0 80 61 00
        E 60 90 3d 60
        E 0 90 4a 60
        E 0 90 56 60
        E 0 90 62 60
        E 240 80 3d 00
        E 0 80 4a 00
        E 180 80 56 00
        E 0 80 62 00
        E 60 90 3e 60
        E 0 90 4b 60
        E 0 90 57 60
        E 0 90 63 60
        E 60 80 3e 00
        E 0 80 4b 00
        E 120 80 57 00
        E 0 80 63 00
        E 60 90 48 60
        E 0 90 54 60
        E 0 90 60 60
        E 60 80 48 00
        E 120 80 54 00
        E 0 80 60 00
        E 60 90 3c 60
        E 0 90 49 60
        E 0 90 55 60
        E 0 90 61 60
        E 60 80 3c 00
        E 0 80 49 00
        E 120 80 55 00
        E 0 80 61 00
        E 60 90 4a 60
        E 0 90 56 60
        E 0 90 62 60
        E 60 80 4a 00
        E 120 80 56 00
        E 0 80 62 00
        E 60 90 3e 60
        E 0 90 4b 60
        E 0 90 57 60
        E 0 90 63 60
        E 60 80 3e 00
        E 0 80 4b 00
        E 120 80 57 00
        E 0 80 63 00
        E 60 90 3e 60
        E 0 90 4b 60
        E 0 90 58 60
        E 0 90 64 60
        E 60 80 3e 00
        E 0 80 4b 00
        E 120 80 58 00
        E 0 80 64 00
        E 60 90 3e 60
        E 0 90 4b 60
        E 0 90 57 60
        E 0 90 63 60
        E 240 80 3e 00
        E 0 80 4b 00
        E 180 80 57 00
        E 0 80 63 00
        E 60 90 3d 60
        E 0 90 4a 60
        E 0 90 56 60
        E 0 90 62 60
        E 240 80 3d 00
        E 0 80 4a 00
        E 180 80 56 00
        E 0 80 62 00
        E 60 90 3c 60
        E 0 90 49 60
        E 0 90 55 60
        E 0 90 61 60
        E 240 80 3c 00
        E 0 80 49 00
        E 180 80 55 00
        E 0 80 61 00
        E 60 90 3c 60
        E 0 90 48 60
        E 0 90 54 60
        E 0 90 60 60
        E 240 80 3c 00
        E 0 80 48 00
        E 180 80 54 00
        E 0 80 60 00
        E 60 90 3d 60
        E 0 90 4a 60
        E 0 90 56 60
        E 0 90 62 60
        E 720 80 3d 00
        E 0 80 4a 00
        E 180 80 56 00
        E 0 80 62 00
        E 60 90 3c 60
        E 0 90 49 60
        E 0 90 55 60
        E 0 90 61 60
        E 240 80 3c 00
        E 0 80 49 00
        E 180 80 55 00
        E 0 80 61 00
        E 60 90 3e 60
        E 0 90 4b 60
        E 0 90 58 60
        E 0 90 64 60
        E 240 80 3e 00
        E 0 80 4b 00
        E 180 80 58 00
        E 0 80 64 00
        E 60 90 3d 60
        E 0 90 4a 60
        E 0 90 56 60
        E 0 90 62 60
        E 720 80 3d 00
        E 0 80 4a 00
        E 180 80 56 00
        E 0 80 62 00
        E 60 90 3c 60
        E 0 90 49 60
        E 0 90 55 60
        E 0 90 61 60
        E 240 80 3c 00
        E 0 80 49 00
        E 180 80 55 00
        E 0 80 61 00
        E 60 90 3e 60
        E 0 90 4b 60
        E 0 90 58 60
        E 0 90 64 60
        E 240 80 3e 00
        E 0 80 4b 00
        E 180 80 58 00
        E 0 80 64 00
        E 60 90 3d 60
        E 0 90 4a 60
        E 0 90 56 60
        E 0 90 62 60
        E 720 80 3d 00
        E 0 80 4a 00
        E 180 80 56 00
        E 0 80 62 00
        E 60 90 3c 60
        E 0 90 49 60
        E 0 90 55 60
        E 0 90 61 60
        E 240 80 3c 00
        E 0 80 49 00
        E 180 80 55 00
        E 0 80 61 00
        E 60 90 3e 60
        E 0 90 4b 60
        E 0 90 58 60
        E 0 90 64 60
        E 240 80 3e 00
        E 0 80 4b 00
        E 180 80 58 00
        E 0 80 64 00
        E 60 90 3d 60
        E 0 90 4a 60
        E 0 90 56 60
        E 0 90 62 60
        E 720 80 3d 00
        E 0 80 4a 00
        E 180 80 56 00
        E 0 80 62 00
        E 60 90 3c 60
        E 0 90 49 60
        E 0 90 55 60
        E 0 90 61 60
        E 240 80 3c 00
        E 0 80 49 00
        E 180 80 55 00
        E 0 80 61 00
        E 60 90 3e 60
        E 0 90 4b 60
        E 0 90 58 60
        E 0 90 64 60
        E 240 80 3e 00
        E 0 80 4b 00
        E 180 80 58 00
        E 0 80 64 00
        E 60 90 3d 60
        E 0 90 4a 60
        E 0 90 56 60
        E 0 90 62 60
        E 960 80 3d 00
        E 0 80 4a 00
        E 0 80 56 00
        E 0 80 62 00
        <X 240 0
          /wFbaWRsZV9yZWFsdGltZV0=
        >
        E 4559 b0 7b 00
        GUID {2C8FF9EE-C857-416E-A5C6-8B3C27D22FA7}
        IGNTEMPO 0 120.00000000 4 4
        SRCCOLOR 90
        VELLANE 132 128 60
        COLORMAP "C:\Program Files\REAPER (x64)\Data\color_maps\rockband_guitarbass.png"
        CFGEDITVIEW -3993.874586 9.399277 0 14 0 0 0
        CFGEDIT 1 1 0 1 1 0 1 1 1 1 1 0.25000000 -8 -8 1544 872 0 2 1 1 0.00000000 0 1 1 0 0.500000 0 0 1.000000 64
        KEYSNAP 0 6 "102030050700" 0 "Pentatonic"
        EVTFILTER 0 -1 -1 -1 -1 0 1 0 0 -1.00000000 -1.00000000
      >
    >
  >
  <TRACK '{891E93B1-1765-4358-8879-293559497089}'
    NAME "PART REAL_KEYS_X"
    PEAKCOL 16576
    BEAT -1
    AUTOMODE 0
    VOLPAN 1.00000000000000 0.00000000000000 -1.00000000000000 -1.00000000000000 1.00000000000000
    MUTESOLO 0 0 0
    IPHASE 0
    ISBUS 0 0
    BUSCOMP 0 0
    SHOWINMIX 1 0.666700 0.500000 1 0.500000 -1 -1 -1
    FREEMODE 0
    SEL 0
    REC 0 0 0 0 0 0 0
    VU 2
    TRACKHEIGHT 0 0
    INQ 0 0 0 0.5000000000 100 0 0 100
    NCHAN 2
    FX 0
    TRACKID {891E93B1-1765-4358-8879-293559497089}
    PERF 0
    MIDIOUT -1
    <MIDINOTENAMES
      0 127 "TRILL MARKER"
      0 126 "GLISSANDO MARKER"
      0 125 "---"
      0 116 "OVERDRIVE"
      0 115 "SOLO"
      0 114 "---"
      0 72 "Highest playable note B#3"
      0 71 "B3"
      0 70 "A#3"
      0 69 "A3"
      0 68 "G#3"
      0 67 "G3"
      0 66 "F#3"
      0 65 "F3"
      0 64 "E3"
      0 63 "D#3"
      0 62 "D3"
      0 61 "C#3"
      0 60 "C3"
      0 59 "B2"
      0 58 "A#2"
      0 57 "A2"
      0 56 "G#2"
      0 55 "G2"
      0 54 "F#2"
      0 53 "F2"
      0 52 "E2"
      0 51 "D#2"
      0 50 "D2"
      0 49 "C#2"
      0 48 "Lowest playable note C2"
      0 10 "---"
      0 9 "Range A2-C4"
      0 8 "Range"
      0 7 "Range"
      0 6 "Range"
      0 5 "Range F2-A3"
      0 4 "Range"
      0 3 "Range"
      0 2 "Range"
      0 1 "Range"
      0 0 "Range C2-E3"
    >
    MAINSEND 1 0
    <FXCHAIN
      WNDRECT 0 43 655 467
      SHOW 0
      LASTSEL 1
      DOCKED 0
      BYPASS 0 0
      <JS "MIDI/midi_note_filter" ""
        48.000000 72.000000 - - - - - - - - - - - - - - - - - - - - - - - - - - - - - - - - - - - - - - - - - - - - - - - - - - - - - - - - - - - - - - 
      >
      FLOATPOS 0 0 0 0
      FXID {BD0805B7-9BB0-4065-82C6-A26E5D11F03D}
      WAK 0
      BYPASS 0 0
      <VST "VSTi: ReaSynth (Cockos)" "reasynth.dll" 0 ""
        eXNlcu9e7f4AAAAAAgAAAAEAAAAAAAAAAgAAAAAAAAA4AAAAAAAAAA==
        AAAQAO++rd4N8K3eppvEOxe30ToAAIA/AAAAAAAAAADMm4A+6WeIPQ==
        AAAAAAAAAD8AAIA/AACAPwAAAD8AABAAAAA=
      >
      FLOATPOS 0 0 0 0
      FXID {24B229B1-4AEF-4194-9344-ADB7E715E185}
      WAK 0
    >
    <ITEM
      POSITION 0.00000000000000
      SNAPOFFS 0.00000000000000
      LENGTH 119.47700000000000
      LOOP 0
      ALLTAKES 0
      SEL 0
      FADEIN 1 0.000000 0.000000 1 0
      FADEOUT 1 0.000000 0.000000 1 0
      MUTE 0
      IGUID {E435FB58-9029-4975-A44D-6FE656A5E2C8}
      IID 5
      NAME "PART REAL_KEYS_X"
      VOLPAN 1.000000 0.000000 1.000000 -1.000000
      SOFFS 0.00000000000000 0.00000000000000
      PLAYRATE 1.00000000000000 1 0.00000000000000 -1
      CHANMODE 0
      GUID {60B25BC8-DB0F-48A6-B7A6-AB229934DB36}
      <SOURCE MIDI
        HASDATA 1 480 QN
        POOLEDEVTS {58B99A07-6891-4717-AF0C-73A86B62F86F}
        <X 0 0
          /wNQQVJUIFJFQUxfS0VZU19Y
        >
        E 0 90 05 60
        E 60 80 05 00
        <X 9540 0
          /wFbYmVnaW5fa2V5IHNvbmdfdHJhaW5lcl9rZXlfMV0=
        >
        E 0 90 3b 60
        E 900 80 3b 00
        E 60 90 3e 60
        E 900 80 3e 00
        <X 60 0
          /wFba2V5X25vcm0gc29uZ190cmFpbmVyX2tleV8xXQ==
        >
        E 0 90 43 60
        E 660 80 43 00
        E 60 90 45 60
        E 180 80 45 00
        E 60 90 43 60
        E 900 80 43 00
        E 60 90 3b 60
        E 0 90 74 60
        E 900 80 3b 00
        E 60 90 3e 60
        E 900 80 3e 00
        E 60 90 43 60
        E 660 80 43 00
        E 60 90 45 60
        E 180 80 45 00
        E 60 90 43 60
        E 900 80 43 00
        <X 60 0
          /wFbZW5kX2tleSBzb25nX3RyYWluZXJfa2V5XzFd
        >
        <X 0 0
          /wFbYmVnaW5fa2V5IHNvbmdfdHJhaW5lcl9rZXlfMl0=
        >
        E 0 80 74 00
        E 0 90 00 60
        E 0 90 3b 60
        E 60 80 00 00
        E 360 80 3b 00
        E 60 90 3c 60
        E 180 80 3c 00
        E 60 90 3e 60
        E 180 80 3e 00
        E 60 90 3e 60
        E 900 80 3e 00
        <X 60 0
          /wFba2V5X25vcm0gc29uZ190cmFpbmVyX2tleV8yXQ==
        >
        E 0 90 39 60
        E 420 80 39 00
        E 60 90 3b 60
        E 180 80 3b 00
        E 60 90 3c 60
        E 180 80 3c 00
        E 60 90 3b 60
        E 900 80 3b 00
        E 60 90 37 60
        E 900 80 37 00
        E 60 90 37 60
        E 900 80 37 00
        E 60 90 36 60
        E 420 80 36 00
        E 60 90 34 60
        E 420 80 34 00
        E 60 90 32 60
        E 420 80 32 00
        E 60 90 30 60
        E 420 80 30 00
        <X 60 0
          /wFbZW5kX2tleSBzb25nX3RyYWluZXJfa2V5XzJd
        >
        E 0 90 3b 60
        E 420 80 3b 00
        E 60 90 3c 60
        E 180 80 3c 00
        E 60 90 3e 60
        E 180 80 3e 00
        E 60 90 3e 60
        E 900 80 3e 00
        E 60 90 39 60
        E 420 80 39 00
        E 60 90 3b 60
        E 180 80 3b 00
        E 60 90 3c 60
        E 180 80 3c 00
        E 60 90 3b 60
        E 900 80 3b 00
        E 60 90 37 60
        E 900 80 37 00
        E 60 90 37 60
        E 900 80 37 00
        E 60 90 36 60
        E 0 90 74 60
        E 420 80 36 00
        E 60 90 34 60
        E 420 80 34 00
        E 60 90 32 60
        E 420 80 32 00
        E 60 90 30 60
        E 420 80 30 00
        <X 60 0
          /wFbYmVnaW5fa2V5IHNvbmdfdHJhaW5lcl9rZXlfM10=
        >
        E 0 80 74 00
        E 0 90 3b 60
        E 420 80 3b 00
        E 60 90 3c 60
        E 180 80 3c 00
        E 60 90 3e 60
        E 180 80 3e 00
        E 60 90 3e 60
        E 420 80 3e 00
        E 60 90 40 60
        E 420 80 40 00
        <X 60 0
          /wFba2V5X25vcm0gc29uZ190cmFpbmVyX2tleV8zXQ==
        >
        E 0 90 39 60
        E 420 80 39 00
        E 60 90 3b 60
        E 180 80 3b 00
        E 60 90 3c 60
        E 180 80 3c 00
        E 60 90 3b 60
        E 900 80 3b 00
        E 60 90 37 60
        E 0 90 74 60
        E 420 80 37 00
        E 60 90 39 60
        E 180 80 39 00
        E 60 90 34 60
        E 180 80 34 00
        E 60 90 36 60
        E 180 80 36 00
        E 60 90 37 60
        E 180 80 37 00
        E 60 90 39 60
        E 180 80 39 00
        E 60 90 3b 60
        E 180 80 3b 00
        E 60 90 36 60
        E 60 80 74 00
        E 360 80 36 00
        E 60 90 34 60
        E 420 80 34 00
        E 60 90 32 60
        E 420 80 32 00
        E 60 90 30 60
        E 420 80 30 00
        <X 60 0
          /wFbZW5kX2tleSBzb25nX3RyYWluZXJfa2V5XzNd
        >
        E 0 90 3b 60
        E 420 80 3b 00
        E 60 90 3c 60
        E 180 80 3c 00
        E 60 90 3e 60
        E 180 80 3e 00
        E 60 90 3e 60
        E 420 80 3e 00
        E 60 90 40 60
        E 420 80 40 00
        E 60 90 39 60
        E 420 80 39 00
        E 60 90 3b 60
        E 180 80 3b 00
        E 60 90 3c 60
        E 180 80 3c 00
        E 60 90 3b 60
        E 900 80 3b 00
        E 60 90 37 60
        E 420 80 37 00
        E 60 90 39 60
        E 180 80 39 00
        E 60 90 34 60
        E 180 80 34 00
        E 60 90 36 60
        E 180 80 36 00
        E 60 90 37 60
        E 180 80 37 00
        E 60 90 39 60
        E 180 80 39 00
        E 60 90 3b 60
        E 180 80 3b 00
        E 60 90 36 60
        E 420 80 36 00
        E 60 90 34 60
        E 420 80 34 00
        E 60 90 32 60
        E 420 80 32 00
        E 60 90 30 60
        E 420 80 30 00
        <X 60 0
          /wFbYmVnaW5fa2V5IHNvbmdfdHJhaW5lcl9rZXlfNF0=
        >
        E 0 90 3b 60
        E 900 80 3b 00
        <X 60 0
          /wFba2V5X25vcm0gc29uZ190cmFpbmVyX2tleV80XQ==
        >
        E 0 90 39 60
        E 420 80 39 00
        E 60 90 3e 60
        E 420 80 3e 00
        E 60 90 3b 60
        E 900 80 3b 00
        E 60 90 39 60
        E 420 80 39 00
        E 60 90 3e 60
        E 420 80 3e 00
        <X 60 0
          /wFbZW5kX2tleSBzb25nX3RyYWluZXJfa2V5XzRd
        >
        E 0 90 3b 60
        E 900 80 3b 00
        E 60 90 39 60
        E 420 80 39 00
        E 60 90 3e 60
        E 420 80 3e 00
        E 60 90 3b 60
        E 900 80 3b 00
        E 60 90 39 60
        E 420 80 39 00
        E 60 90 3e 60
        E 420 80 3e 00
        E 60 90 3b 60
        E 959 80 3b 00
        E 4800 b0 7b 00
        GUID {BB88EE05-ED8D-4471-AA8B-4E746CF9C83F}
        IGNTEMPO 0 120.00000000 4 4
        SRCCOLOR 91
        VELLANE 132 128 60
        COLORMAP "C:\Program Files\REAPER (x64)\Data\color_maps\rockband_guitarbass.png"
        CFGEDITVIEW -3993.874586 9.399277 0 13 0 0 0
        CFGEDIT 1 1 0 1 1 0 1 1 1 1 1 0.25000000 -8 -8 1544 872 0 2 1 1 0.00000000 0 1 1 0 0.500000 0 0 1.000000 64
        KEYSNAP 0 6 "102030050700" 0 "Pentatonic"
        EVTFILTER 0 -1 -1 -1 -1 0 1 0 0 -1.00000000 -1.00000000
      >
    >
  >
  <TRACK '{19CB8079-BAEE-4850-9BD6-CFEA6F429D3E}'
    NAME "PART REAL_KEYS_H"
    PEAKCOL 16576
    BEAT -1
    AUTOMODE 0
    VOLPAN 1.00000000000000 0.00000000000000 -1.00000000000000 -1.00000000000000 1.00000000000000
    MUTESOLO 0 0 0
    IPHASE 0
    ISBUS 0 0
    BUSCOMP 0 0
    SHOWINMIX 1 0.666700 0.500000 1 0.500000 -1 -1 -1
    FREEMODE 0
    SEL 0
    REC 0 0 0 0 0 0 0
    VU 2
    TRACKHEIGHT 0 0
    INQ 0 0 0 0.5000000000 100 0 0 100
    NCHAN 2
    FX 1
    TRACKID {19CB8079-BAEE-4850-9BD6-CFEA6F429D3E}
    PERF 0
    MIDIOUT -1
    <MIDINOTENAMES
      0 72 "Highest playable note B#3"
      0 71 "B3"
      0 70 "A#3"
      0 69 "A3"
      0 68 "G#3"
      0 67 "G3"
      0 66 "F#3"
      0 65 "F3"
      0 64 "E3"
      0 63 "D#3"
      0 62 "D3"
      0 61 "C#3"
      0 60 "C3"
      0 59 "B2"
      0 58 "A#2"
      0 57 "A2"
      0 56 "G#2"
      0 55 "G2"
      0 54 "F#2"
      0 53 "F2"
      0 52 "E2"
      0 51 "D#2"
      0 50 "D2"
      0 49 "C#2"
      0 48 "Lowest playable note C2"
      0 10 "---"
      0 9 "Range A2-C4"
      0 8 "Range"
      0 7 "Range"
      0 6 "Range"
      0 5 "Range F2-A3"
      0 4 "Range"
      0 3 "Range"
      0 2 "Range"
      0 1 "Range"
      0 0 "Range C2-E3"
    >
    MAINSEND 1 0
    <FXCHAIN
      SHOW 0
      LASTSEL 0
      DOCKED 0
    >
    <ITEM
      POSITION 0.00000000000000
      SNAPOFFS 0.00000000000000
      LENGTH 119.47700000000000
      LOOP 0
      ALLTAKES 0
      SEL 0
      FADEIN 1 0.000000 0.000000 1 0
      FADEOUT 1 0.000000 0.000000 1 0
      MUTE 0
      IGUID {49F4D62F-1394-4C53-A958-FAD897BC2D9F}
      IID 6
      NAME "PART REAL_KEYS_H"
      VOLPAN 1.000000 0.000000 1.000000 -1.000000
      SOFFS 0.00000000000000 0.00000000000000
      PLAYRATE 1.00000000000000 1 0.00000000000000 -1
      CHANMODE 0
      GUID {5FFD55E1-4F1A-4DCE-802D-F5E79F3C9B43}
      <SOURCE MIDI
        HASDATA 1 480 QN
        POOLEDEVTS {FBF26A0C-2F1C-4217-AAC0-F5AE9C87BD93}
        <X 0 0
          /wNQQVJUIFJFQUxfS0VZU19I
        >
        E 0 90 05 60
        E 60 80 05 00
        E 9540 90 3b 60
        E 840 80 3b 00
        E 120 90 3e 60
        E 840 80 3e 00
        E 120 90 43 60
        E 600 80 43 00
        E 120 90 45 60
        E 60 80 45 00
        E 180 90 43 60
        E 840 80 43 00
        E 120 90 3b 60
        E 840 80 3b 00
        E 120 90 3e 60
        E 840 80 3e 00
        E 120 90 43 60
        E 600 80 43 00
        E 120 90 45 60
        E 60 80 45 00
        E 180 90 43 60
        E 840 80 43 00
        E 120 90 00 60
        E 0 90 3b 60
        E 60 80 00 00
        E 300 80 3b 00
        E 120 90 3c 60
        E 60 80 3c 00
        E 180 90 3e 60
        E 60 80 3e 00
        E 180 90 3e 60
        E 840 80 3e 00
        E 120 90 39 60
        E 360 80 39 00
        E 120 90 3b 60
        E 60 80 3b 00
        E 180 90 3c 60
        E 60 80 3c 00
        E 180 90 3b 60
        E 840 80 3b 00
        E 120 90 37 60
        E 840 80 37 00
        E 120 90 37 60
        E 840 80 37 00
        E 120 90 36 60
        E 360 80 36 00
        E 120 90 34 60
        E 360 80 34 00
        E 120 90 32 60
        E 360 80 32 00
        E 120 90 30 60
        E 360 80 30 00
        E 120 90 3b 60
        E 360 80 3b 00
        E 120 90 3c 60
        E 60 80 3c 00
        E 180 90 3e 60
        E 60 80 3e 00
        E 180 90 3e 60
        E 840 80 3e 00
        E 120 90 39 60
        E 360 80 39 00
        E 120 90 3b 60
        E 60 80 3b 00
        E 180 90 3c 60
        E 60 80 3c 00
        E 180 90 3b 60
        E 840 80 3b 00
        E 120 90 37 60
        E 840 80 37 00
        E 120 90 37 60
        E 840 80 37 00
        E 120 90 36 60
        E 360 80 36 00
        E 120 90 34 60
        E 360 80 34 00
        E 120 90 32 60
        E 360 80 32 00
        E 120 90 30 60
        E 60 80 30 00
        E 420 90 3b 60
        E 360 80 3b 00
        E 120 90 3c 60
        E 60 80 3c 00
        E 180 90 3e 60
        E 60 80 3e 00
        E 180 90 3e 60
        E 360 80 3e 00
        E 120 90 40 60
        E 360 80 40 00
        E 120 90 39 60
        E 360 80 39 00
        E 120 90 3b 60
        E 60 80 3b 00
        E 180 90 3c 60
        E 60 80 3c 00
        E 180 90 3b 60
        E 840 80 3b 00
        E 120 90 37 60
        E 360 80 37 00
        E 120 90 39 60
        E 60 80 39 00
        E 180 90 34 60
        E 60 80 34 00
        E 180 90 36 60
        E 60 80 36 00
        E 180 90 37 60
        E 60 80 37 00
        E 180 90 39 60
        E 60 80 39 00
        E 180 90 3b 60
        E 60 80 3b 00
        E 180 90 36 60
        E 360 80 36 00
        E 120 90 34 60
        E 360 80 34 00
        E 120 90 32 60
        E 360 80 32 00
        E 120 90 30 60
        E 60 80 30 00
        E 420 90 3b 60
        E 360 80 3b 00
        E 120 90 3c 60
        E 60 80 3c 00
        E 180 90 3e 60
        E 60 80 3e 00
        E 180 90 3e 60
        E 360 80 3e 00
        E 120 90 40 60
        E 360 80 40 00
        E 120 90 39 60
        E 360 80 39 00
        E 120 90 3b 60
        E 60 80 3b 00
        E 180 90 3c 60
        E 60 80 3c 00
        E 180 90 3b 60
        E 840 80 3b 00
        E 120 90 37 60
        E 360 80 37 00
        E 120 90 39 60
        E 60 80 39 00
        E 180 90 34 60
        E 60 80 34 00
        E 180 90 36 60
        E 60 80 36 00
        E 180 90 37 60
        E 60 80 37 00
        E 180 90 39 60
        E 60 80 39 00
        E 180 90 3b 60
        E 60 80 3b 00
        E 180 90 36 60
        E 360 80 36 00
        E 120 90 34 60
        E 360 80 34 00
        E 120 90 32 60
        E 360 80 32 00
        E 120 90 30 60
        E 60 80 30 00
        E 420 90 3b 60
        E 840 80 3b 00
        E 120 90 39 60
        E 360 80 39 00
        E 120 90 3e 60
        E 360 80 3e 00
        E 120 90 3b 60
        E 840 80 3b 00
        E 120 90 39 60
        E 360 80 39 00
        E 120 90 3e 60
        E 360 80 3e 00
        E 120 90 3b 60
        E 840 80 3b 00
        E 120 90 39 60
        E 360 80 39 00
        E 120 90 3e 60
        E 360 80 3e 00
        E 120 90 3b 60
        E 840 80 3b 00
        E 120 90 39 60
        E 360 80 39 00
        E 120 90 3e 60
        E 360 80 3e 00
        E 120 90 3b 60
        E 959 80 3b 00
        E 4800 b0 7b 00
        GUID {A785EC22-16DC-474B-A3AF-207D6D4941C1}
        IGNTEMPO 0 120.00000000 4 4
        SRCCOLOR 92
        VELLANE 132 128 60
        COLORMAP "C:\Program Files\REAPER (x64)\Data\color_maps\rockband_guitarbass.png"
        CFGEDITVIEW -3993.874586 9.399277 3 15 0 0 0
        CFGEDIT 1 1 0 1 1 0 1 1 1 1 1 0.25000000 -8 -8 1544 872 0 2 1 1 0.00000000 0 1 1 0 0.500000 0 0 1.000000 64
        KEYSNAP 0 6 "102030050700" 0 "Pentatonic"
        EVTFILTER 0 -1 -1 -1 -1 0 1 0 0 -1.00000000 -1.00000000
      >
    >
  >
  <TRACK '{4F16A9F0-60C1-49D2-BE4D-06F7ACBB698D}'
    NAME "PART REAL_KEYS_M"
    PEAKCOL 16576
    BEAT -1
    AUTOMODE 0
    VOLPAN 1.00000000000000 0.00000000000000 -1.00000000000000 -1.00000000000000 1.00000000000000
    MUTESOLO 0 0 0
    IPHASE 0
    ISBUS 0 0
    BUSCOMP 0 0
    SHOWINMIX 1 0.666700 0.500000 1 0.500000 -1 -1 -1
    FREEMODE 0
    SEL 0
    REC 0 0 0 0 0 0 0
    VU 2
    TRACKHEIGHT 0 0
    INQ 0 0 0 0.5000000000 100 0 0 100
    NCHAN 2
    FX 1
    TRACKID {4F16A9F0-60C1-49D2-BE4D-06F7ACBB698D}
    PERF 0
    MIDIOUT -1
    <MIDINOTENAMES
      0 72 "Highest playable note B#3"
      0 71 "B3"
      0 70 "A#3"
      0 69 "A3"
      0 68 "G#3"
      0 67 "G3"
      0 66 "F#3"
      0 65 "F3"
      0 64 "E3"
      0 63 "D#3"
      0 62 "D3"
      0 61 "C#3"
      0 60 "C3"
      0 59 "B2"
      0 58 "A#2"
      0 57 "A2"
      0 56 "G#2"
      0 55 "G2"
      0 54 "F#2"
      0 53 "F2"
      0 52 "E2"
      0 51 "D#2"
      0 50 "D2"
      0 49 "C#2"
      0 48 "Lowest playable note C2"
      0 10 "---"
      0 9 "Range A2-C4"
      0 8 "Range"
      0 7 "Range"
      0 6 "Range"
      0 5 "Range F2-A3"
      0 4 "Range"
      0 3 "Range"
      0 2 "Range"
      0 1 "Range"
      0 0 "Range C2-E3"
    >
    MAINSEND 1 0
    <FXCHAIN
      SHOW 0
      LASTSEL 0
      DOCKED 0
    >
    <ITEM
      POSITION 0.00000000000000
      SNAPOFFS 0.00000000000000
      LENGTH 119.47700000000000
      LOOP 0
      ALLTAKES 0
      SEL 0
      FADEIN 1 0.000000 0.000000 1 0
      FADEOUT 1 0.000000 0.000000 1 0
      MUTE 0
      IGUID {5548A7E0-A862-4931-8245-0823663762DA}
      IID 7
      NAME "PART REAL_KEYS_M"
      VOLPAN 1.000000 0.000000 1.000000 -1.000000
      SOFFS 0.00000000000000 0.00000000000000
      PLAYRATE 1.00000000000000 1 0.00000000000000 -1
      CHANMODE 0
      GUID {DC590A6F-FC11-4A01-8A49-37D3AF80A9D6}
      <SOURCE MIDI
        HASDATA 1 480 QN
        POOLEDEVTS {195E0DAC-AD53-45A1-92EC-8E27FA58A121}
        <X 0 0
          /wNQQVJUIFJFQUxfS0VZU19N
        >
        E 0 90 00 60
        E 60 80 00 00
        E 9540 90 3b 60
        E 720 80 3b 00
        E 240 90 3e 60
        E 480 80 3e 00
        E 480 90 37 60
        E 480 80 37 00
        E 240 90 39 60
        E 60 80 39 00
        E 180 90 37 60
        E 480 80 37 00
        E 480 90 3b 60
        E 720 80 3b 00
        E 240 90 3e 60
        E 480 80 3e 00
        E 480 90 37 60
        E 480 80 37 00
        E 240 90 39 60
        E 60 80 39 00
        E 180 90 37 60
        E 480 80 37 00
        E 480 90 3b 60
        E 60 80 3b 00
        E 660 90 3e 60
        E 60 80 3e 00
        E 180 90 3e 60
        E 720 80 3e 00
        E 240 90 39 60
        E 60 80 39 00
        E 660 90 3c 60
        E 60 80 3c 00
        E 180 90 3b 60
        E 720 80 3b 00
        E 240 90 37 60
        E 720 80 37 00
        E 240 90 37 60
        E 720 80 37 00
        E 240 90 36 60
        E 60 80 36 00
        E 420 90 34 60
        E 60 80 34 00
        E 420 90 32 60
        E 60 80 32 00
        E 420 90 30 60
        E 60 80 30 00
        E 420 90 3b 60
        E 60 80 3b 00
        E 660 90 3e 60
        E 60 80 3e 00
        E 180 90 3e 60
        E 720 80 3e 00
        E 240 90 39 60
        E 60 80 39 00
        E 660 90 3c 60
        E 180 80 3c 00
        E 60 90 3b 60
        E 720 80 3b 00
        E 240 90 37 60
        E 720 80 37 00
        E 240 90 37 60
        E 720 80 37 00
        E 240 90 36 60
        E 60 80 36 00
        E 420 90 34 60
        E 60 80 34 00
        E 420 90 32 60
        E 60 80 32 00
        E 420 90 30 60
        E 60 80 30 00
        E 420 90 3b 60
        E 60 80 3b 00
        E 900 90 3e 60
        E 60 80 3e 00
        E 420 90 40 60
        E 60 80 40 00
        E 420 90 39 60
        E 60 80 39 00
        E 660 90 3c 60
        E 60 80 3c 00
        E 180 90 3b 60
        E 720 80 3b 00
        E 240 90 37 60
        E 60 80 37 00
        E 420 90 39 60
        E 60 80 39 00
        E 420 90 36 60
        E 60 80 36 00
        E 420 90 39 60
        E 60 80 39 00
        E 420 90 36 60
        E 60 80 36 00
        E 420 90 34 60
        E 60 80 34 00
        E 420 90 32 60
        E 60 80 32 00
        E 420 90 30 60
        E 60 80 30 00
        E 420 90 3b 60
        E 60 80 3b 00
        E 900 90 3e 60
        E 60 80 3e 00
        E 420 90 40 60
        E 60 80 40 00
        E 420 90 39 60
        E 60 80 39 00
        E 660 90 3c 60
        E 60 80 3c 00
        E 180 90 3b 60
        E 720 80 3b 00
        E 240 90 37 60
        E 60 80 37 00
        E 420 90 39 60
        E 60 80 39 00
        E 420 90 36 60
        E 60 80 36 00
        E 420 90 39 60
        E 60 80 39 00
        E 420 90 36 60
        E 60 80 36 00
        E 420 90 34 60
        E 60 80 34 00
        E 420 90 32 60
        E 60 80 32 00
        E 420 90 30 60
        E 60 80 30 00
        E 420 90 3b 60
        E 720 80 3b 00
        E 240 90 39 60
        E 60 80 39 00
        E 420 90 3e 60
        E 60 80 3e 00
        E 420 90 3b 60
        E 720 80 3b 00
        E 240 90 39 60
        E 60 80 39 00
        E 420 90 3e 60
        E 60 80 3e 00
        E 420 90 3b 60
        E 720 80 3b 00
        E 240 90 39 60
        E 60 80 39 00
        E 420 90 3e 60
        E 60 80 3e 00
        E 420 90 3b 60
        E 720 80 3b 00
        E 240 90 39 60
        E 60 80 39 00
        E 420 90 3e 60
        E 60 80 3e 00
        E 420 90 3b 60
        E 959 80 3b 00
        E 4800 b0 7b 00
        GUID {835064FF-C868-4C36-BDB9-CED614CEA154}
        IGNTEMPO 0 120.00000000 4 4
        SRCCOLOR 93
        VELLANE 132 128 60
        COLORMAP "C:\Program Files\REAPER (x64)\Data\color_maps\rockband_guitarbass.png"
        CFGEDITVIEW -3993.874586 9.399277 8 15 0 0 0
        CFGEDIT 1 1 0 1 1 0 1 1 1 1 1 0.25000000 -8 -8 1544 872 0 2 1 1 0.00000000 0 1 1 0 0.500000 0 0 1.000000 64
        KEYSNAP 0 6 "102030050700" 0 "Pentatonic"
        EVTFILTER 0 -1 -1 -1 -1 0 1 0 0 -1.00000000 -1.00000000
      >
    >
  >
  <TRACK '{838FAAF8-DC4C-4ACB-99B6-FEB5F8FBE337}'
    NAME "PART REAL_KEYS_E"
    PEAKCOL 16576
    BEAT -1
    AUTOMODE 0
    VOLPAN 1.00000000000000 0.00000000000000 -1.00000000000000 -1.00000000000000 1.00000000000000
    MUTESOLO 0 0 0
    IPHASE 0
    ISBUS 0 0
    BUSCOMP 0 0
    SHOWINMIX 1 0.666700 0.500000 1 0.500000 -1 -1 -1
    FREEMODE 0
    SEL 0
    REC 0 0 0 0 0 0 0
    VU 2
    TRACKHEIGHT 0 0
    INQ 0 0 0 0.5000000000 100 0 0 100
    NCHAN 2
    FX 1
    TRACKID {838FAAF8-DC4C-4ACB-99B6-FEB5F8FBE337}
    PERF 0
    MIDIOUT -1
    <MIDINOTENAMES
      0 72 "Highest playable note B#3"
      0 71 "B3"
      0 70 "A#3"
      0 69 "A3"
      0 68 "G#3"
      0 67 "G3"
      0 66 "F#3"
      0 65 "F3"
      0 64 "E3"
      0 63 "D#3"
      0 62 "D3"
      0 61 "C#3"
      0 60 "C3"
      0 59 "B2"
      0 58 "A#2"
      0 57 "A2"
      0 56 "G#2"
      0 55 "G2"
      0 54 "F#2"
      0 53 "F2"
      0 52 "E2"
      0 51 "D#2"
      0 50 "D2"
      0 49 "C#2"
      0 48 "Lowest playable note C2"
      0 10 "---"
      0 9 "Range A2-C4"
      0 8 "Range"
      0 7 "Range"
      0 6 "Range"
      0 5 "Range F2-A3"
      0 4 "Range"
      0 3 "Range"
      0 2 "Range"
      0 1 "Range"
      0 0 "Range C2-E3"
    >
    MAINSEND 1 0
    <FXCHAIN
      SHOW 0
      LASTSEL 0
      DOCKED 0
    >
    <ITEM
      POSITION 0.00000000000000
      SNAPOFFS 0.00000000000000
      LENGTH 119.47700000000000
      LOOP 0
      ALLTAKES 0
      SEL 0
      FADEIN 1 0.000000 0.000000 1 0
      FADEOUT 1 0.000000 0.000000 1 0
      MUTE 0
      IGUID {604E26F2-EA3A-46F3-941F-6179424D59E6}
      IID 8
      NAME "PART REAL_KEYS_E"
      VOLPAN 1.000000 0.000000 1.000000 -1.000000
      SOFFS 0.00000000000000 0.00000000000000
      PLAYRATE 1.00000000000000 1 0.00000000000000 -1
      CHANMODE 0
      GUID {EFB4F26F-1CA6-44CE-9BA3-5D86401156B4}
      <SOURCE MIDI
        HASDATA 1 480 QN
        POOLEDEVTS {FDC28430-A683-4EEF-9B87-8775CA00A53E}
        <X 0 0
          /wNQQVJUIFJFQUxfS0VZU19F
        >
        E 0 90 00 60
        E 60 80 00 00
        E 9540 90 3b 60
        E 480 80 3b 00
        E 480 90 3e 60
        E 480 80 3e 00
        E 480 90 37 60
        E 480 80 37 00
        E 480 90 37 60
        E 480 80 37 00
        E 480 90 3b 60
        E 480 80 3b 00
        E 480 90 3e 60
        E 480 80 3e 00
        E 480 90 37 60
        E 480 80 37 00
        E 480 90 37 60
        E 480 80 37 00
        E 480 90 3b 60
        E 60 80 3b 00
        E 900 90 3e 60
        E 480 80 3e 00
        E 480 90 39 60
        E 60 80 39 00
        E 900 90 3b 60
        E 480 80 3b 00
        E 480 90 37 60
        E 480 80 37 00
        E 480 90 37 60
        E 480 80 37 00
        E 480 90 36 60
        E 60 80 36 00
        E 900 90 32 60
        E 60 80 32 00
        E 900 90 3b 60
        E 60 80 3b 00
        E 900 90 3e 60
        E 480 80 3e 00
        E 480 90 39 60
        E 60 80 39 00
        E 900 90 3b 60
        E 480 80 3b 00
        E 480 90 37 60
        E 480 80 37 00
        E 480 90 37 60
        E 480 80 37 00
        E 480 90 36 60
        E 60 80 36 00
        E 900 90 32 60
        E 60 80 32 00
        E 900 90 3b 60
        E 60 80 3b 00
        E 900 90 3e 60
        E 60 80 3e 00
        E 420 90 40 60
        E 60 80 40 00
        E 420 90 39 60
        E 60 80 39 00
        E 900 90 3b 60
        E 480 80 3b 00
        E 480 90 37 60
        E 60 80 37 00
        E 900 90 36 60
        E 60 80 36 00
        E 420 90 39 60
        E 60 80 39 00
        E 420 90 36 60
        E 60 80 36 00
        E 900 90 32 60
        E 60 80 32 00
        E 900 90 3b 60
        E 60 80 3b 00
        E 900 90 3e 60
        E 60 80 3e 00
        E 420 90 40 60
        E 60 80 40 00
        E 420 90 39 60
        E 60 80 39 00
        E 900 90 3b 60
        E 480 80 3b 00
        E 480 90 37 60
        E 60 80 37 00
        E 900 90 36 60
        E 60 80 36 00
        E 420 90 39 60
        E 60 80 39 00
        E 420 90 36 60
        E 60 80 36 00
        E 900 90 32 60
        E 60 80 32 00
        E 900 90 3b 60
        E 480 80 3b 00
        E 480 90 39 60
        E 60 80 39 00
        E 900 90 3b 60
        E 480 80 3b 00
        E 480 90 39 60
        E 60 80 39 00
        E 900 90 3b 60
        E 480 80 3b 00
        E 480 90 39 60
        E 60 80 39 00
        E 900 90 3b 60
        E 480 80 3b 00
        E 480 90 39 60
        E 60 80 39 00
        E 900 90 3b 60
        E 959 80 3b 00
        E 4800 b0 7b 00
        GUID {127C4828-9A73-4542-AD32-5DFE3082EBE3}
        IGNTEMPO 0 120.00000000 4 4
        SRCCOLOR 94
        VELLANE 132 128 60
        COLORMAP "C:\Program Files\REAPER (x64)\Data\color_maps\rockband_guitarbass.png"
        CFGEDITVIEW -3993.874586 9.399277 8 15 0 0 0
        CFGEDIT 1 1 0 1 1 0 1 1 1 1 1 0.25000000 -8 -8 1544 872 0 2 1 1 0.00000000 0 1 1 0 0.500000 0 0 1.000000 64
        KEYSNAP 0 6 "102030050700" 0 "Pentatonic"
        EVTFILTER 0 -1 -1 -1 -1 0 1 0 0 -1.00000000 -1.00000000
      >
    >
  >
  <TRACK '{F4E12CD4-72C1-4156-BA4A-585823C7E3EA}'
    NAME "PART KEYS_ANIM_RH"
    PEAKCOL 16576
    BEAT -1
    AUTOMODE 0
    VOLPAN 1.00000000000000 0.00000000000000 -1.00000000000000 -1.00000000000000 1.00000000000000
    MUTESOLO 0 0 0
    IPHASE 0
    ISBUS 0 0
    BUSCOMP 0 0
    SHOWINMIX 1 0.666700 0.500000 1 0.500000 -1 -1 -1
    FREEMODE 0
    SEL 0
    REC 0 0 0 0 0 0 0
    VU 2
    TRACKHEIGHT 0 0
    INQ 0 0 0 0.5000000000 100 0 0 100
    NCHAN 2
    FX 1
    TRACKID {F4E12CD4-72C1-4156-BA4A-585823C7E3EA}
    PERF 0
    MIDIOUT -1
    <MIDINOTENAMES
      0 72 "Highest playable note B#3"
      0 71 "B3"
      0 70 "A#3"
      0 69 "A3"
      0 68 "G#3"
      0 67 "G3"
      0 66 "F#3"
      0 65 "F3"
      0 64 "E3"
      0 63 "D#3"
      0 62 "D3"
      0 61 "C#3"
      0 60 "C3"
      0 59 "B2"
      0 58 "A#2"
      0 57 "A2"
      0 56 "G#2"
      0 55 "G2"
      0 54 "F#2"
      0 53 "F2"
      0 52 "E2"
      0 51 "D#2"
      0 50 "D2"
      0 49 "C#2"
      0 48 "Lowest playable note C2"
    >
    MAINSEND 1 0
    <FXCHAIN
      SHOW 0
      LASTSEL 0
      DOCKED 0
    >
    <ITEM
      POSITION 0.00000000000000
      SNAPOFFS 0.00000000000000
      LENGTH 119.47700000000000
      LOOP 0
      ALLTAKES 0
      SEL 0
      FADEIN 1 0.000000 0.000000 1 0
      FADEOUT 1 0.000000 0.000000 1 0
      MUTE 0
      IGUID {FA240C41-A4B3-4335-8664-9F4C73CA4EE4}
      IID 9
      NAME "PART KEYS_ANIM_RH"
      VOLPAN 1.000000 0.000000 1.000000 -1.000000
      SOFFS 0.00000000000000 0.00000000000000
      PLAYRATE 1.00000000000000 1 0.00000000000000 -1
      CHANMODE 0
      GUID {EA3DDDD4-6D04-4175-BA26-7A8533FADF4F}
      <SOURCE MIDI
        HASDATA 1 480 QN
        POOLEDEVTS {7E19C831-4CBA-46B7-ADA6-ACADC5A58B7D}
        <X 0 0
          /wNQQVJUIEtFWVNfQU5JTV9SSA==
        >
        E 9600 90 3b 60
        E 900 80 3b 00
        E 60 90 3e 60
        E 900 80 3e 00
        E 60 90 43 60
        E 660 80 43 00
        E 60 90 45 60
        E 180 80 45 00
        E 60 90 43 60
        E 900 80 43 00
        E 60 90 3b 60
        E 900 80 3b 00
        E 60 90 3e 60
        E 900 80 3e 00
        E 60 90 43 60
        E 660 80 43 00
        E 60 90 45 60
        E 180 80 45 00
        E 60 90 43 60
        E 900 80 43 00
        E 60 90 3b 60
        E 420 80 3b 00
        E 60 90 3c 60
        E 180 80 3c 00
        E 60 90 3e 60
        E 180 80 3e 00
        E 60 90 3e 60
        E 900 80 3e 00
        E 60 90 39 60
        E 420 80 39 00
        E 60 90 3b 60
        E 180 80 3b 00
        E 60 90 3c 60
        E 180 80 3c 00
        E 60 90 3b 60
        E 900 80 3b 00
        E 60 90 37 60
        E 900 80 37 00
        E 60 90 37 60
        E 900 80 37 00
        E 60 90 36 60
        E 420 80 36 00
        E 60 90 34 60
        E 420 80 34 00
        E 60 90 32 60
        E 420 80 32 00
        E 60 90 30 60
        E 420 80 30 00
        E 60 90 3b 60
        E 420 80 3b 00
        E 60 90 3c 60
        E 180 80 3c 00
        E 60 90 3e 60
        E 180 80 3e 00
        E 60 90 3e 60
        E 900 80 3e 00
        E 60 90 39 60
        E 420 80 39 00
        E 60 90 3b 60
        E 180 80 3b 00
        E 60 90 3c 60
        E 180 80 3c 00
        E 60 90 3b 60
        E 900 80 3b 00
        E 60 90 37 60
        E 900 80 37 00
        E 60 90 37 60
        E 900 80 37 00
        E 60 90 36 60
        E 420 80 36 00
        E 60 90 34 60
        E 420 80 34 00
        E 60 90 32 60
        E 420 80 32 00
        E 60 90 30 60
        E 420 80 30 00
        E 60 90 3b 60
        E 420 80 3b 00
        E 60 90 3c 60
        E 180 80 3c 00
        E 60 90 3e 60
        E 180 80 3e 00
        E 60 90 3e 60
        E 420 80 3e 00
        E 60 90 40 60
        E 420 80 40 00
        E 60 90 39 60
        E 420 80 39 00
        E 60 90 3b 60
        E 180 80 3b 00
        E 60 90 3c 60
        E 180 80 3c 00
        E 60 90 3b 60
        E 900 80 3b 00
        E 60 90 37 60
        E 420 80 37 00
        E 60 90 39 60
        E 180 80 39 00
        E 60 90 34 60
        E 180 80 34 00
        E 60 90 36 60
        E 180 80 36 00
        E 60 90 37 60
        E 180 80 37 00
        E 60 90 39 60
        E 180 80 39 00
        E 60 90 3b 60
        E 180 80 3b 00
        E 60 90 36 60
        E 420 80 36 00
        E 60 90 34 60
        E 420 80 34 00
        E 60 90 32 60
        E 420 80 32 00
        E 60 90 30 60
        E 420 80 30 00
        E 60 90 3b 60
        E 420 80 3b 00
        E 60 90 3c 60
        E 180 80 3c 00
        E 60 90 3e 60
        E 180 80 3e 00
        E 60 90 3e 60
        E 420 80 3e 00
        E 60 90 40 60
        E 420 80 40 00
        E 60 90 39 60
        E 420 80 39 00
        E 60 90 3b 60
        E 180 80 3b 00
        E 60 90 3c 60
        E 180 80 3c 00
        E 60 90 3b 60
        E 900 80 3b 00
        E 60 90 37 60
        E 420 80 37 00
        E 60 90 39 60
        E 180 80 39 00
        E 60 90 34 60
        E 180 80 34 00
        E 60 90 36 60
        E 180 80 36 00
        E 60 90 37 60
        E 180 80 37 00
        E 60 90 39 60
        E 180 80 39 00
        E 60 90 3b 60
        E 180 80 3b 00
        E 60 90 36 60
        E 420 80 36 00
        E 60 90 34 60
        E 420 80 34 00
        E 60 90 32 60
        E 420 80 32 00
        E 60 90 30 60
        E 420 80 30 00
        E 60 90 3b 60
        E 900 80 3b 00
        E 60 90 39 60
        E 420 80 39 00
        E 60 90 3e 60
        E 420 80 3e 00
        E 60 90 3b 60
        E 900 80 3b 00
        E 60 90 39 60
        E 420 80 39 00
        E 60 90 3e 60
        E 420 80 3e 00
        E 60 90 3b 60
        E 900 80 3b 00
        E 60 90 39 60
        E 420 80 39 00
        E 60 90 3e 60
        E 420 80 3e 00
        E 60 90 3b 60
        E 900 80 3b 00
        E 60 90 39 60
        E 420 80 39 00
        E 60 90 3e 60
        E 420 80 3e 00
        E 60 90 3b 60
        E 959 80 3b 00
        E 4800 b0 7b 00
        GUID {E8D98A42-9D9F-4103-86BC-F2E62EC452C5}
        IGNTEMPO 0 120.00000000 4 4
        SRCCOLOR 95
        VELLANE 132 128 60
        COLORMAP "C:\Program Files\REAPER (x64)\Data\color_maps\rockband_guitarbass.png"
        CFGEDITVIEW -3993.874586 9.399277 3 22 0 0 0
        CFGEDIT 1 1 0 1 1 0 1 1 1 1 1 0.25000000 -8 -8 1544 872 0 2 1 1 0.00000000 0 1 1 0 0.500000 0 0 1.000000 64
        KEYSNAP 0 6 "102030050700" 0 "Pentatonic"
        EVTFILTER 0 -1 -1 -1 -1 0 1 0 0 -1.00000000 -1.00000000
      >
    >
  >
  <TRACK '{2D2F6945-136F-43EC-905C-5696B05D4445}'
    NAME "keys"
    PEAKCOL 16576
    BEAT -1
    AUTOMODE 0
    VOLPAN 1.00000000000000 0.00000000000000 -1.00000000000000 -1.00000000000000 1.00000000000000
    MUTESOLO 0 0 0
    IPHASE 0
    ISBUS 2 -1
    BUSCOMP 0 0
    SHOWINMIX 1 0.666700 0.500000 1 0.500000 -1 -1 -1
    FREEMODE 0
    SEL 0
    REC 0 0 0 0 0 0 0
    VU 2
    TRACKHEIGHT 0 0
    INQ 0 0 0 0.5000000000 100 0 0 100
    NCHAN 2
    FX 1
    TRACKID {2D2F6945-136F-43EC-905C-5696B05D4445}
    PERF 0
    MIDIOUT -1
    MAINSEND 1 0
    <ITEM
      POSITION 0.00000000000000
      SNAPOFFS 0.00000000000000
      LENGTH 119.47727891156462
      LOOP 0
      ALLTAKES 0
      SEL 0
      FADEIN 1 0.000000 0.000000 1 0
      FADEOUT 1 0.000000 0.000000 1 0
      MUTE 0
      IGUID {59DFCA20-A054-4457-9793-E15FF5028A80}
      IID 17
      NAME "keys.wav"
      VOLPAN 1.000000 0.000000 1.000000 -1.000000
      SOFFS 0.00000000000000
      PLAYRATE 1.00000000000000 1 0.00000000000000 -1
      CHANMODE 0
      GUID {0100F62E-799D-4BAF-BDFC-EFA6E433232C}
      <SOURCE WAVE
        FILE "C:\Users\Ruggery\Documents\Visual Studio Code\Projects\ruggy-customs-projects\songs\motherearth\wav\keys.wav"
      >
    >
  >
  <TRACK '{672CD96E-82E7-4652-82D6-7FE0D29F553F}'
    NAME "PART REAL_BASS"
    PEAKCOL 16576
    BEAT -1
    AUTOMODE 0
    VOLPAN 1.00000000000000 0.00000000000000 -1.00000000000000 -1.00000000000000 1.00000000000000
    MUTESOLO 0 0 0
    IPHASE 0
    ISBUS 0 0
    BUSCOMP 0 0
    SHOWINMIX 1 0.666700 0.500000 1 0.500000 -1 -1 -1
    FREEMODE 0
    SEL 0
    REC 0 0 0 0 0 0 0
    VU 2
    TRACKHEIGHT 0 0
    INQ 0 0 0 0.5000000000 100 0 0 100
    NCHAN 2
    FX 0
    TRACKID {672CD96E-82E7-4652-82D6-7FE0D29F553F}
    PERF 0
    MIDIOUT -1
    <MIDINOTENAMES
      0 127 "Trill Marker"
      0 126 "Tremolo Marker"
      0 125 "BRE"
      0 124 "BRE"
      0 123 "BRE"
      0 122 "BRE"
      0 121 "BRE"
      0 120 "BRE (use all 6)"
      0 119 "-----------"
      0 116 "OVERDRIVE"
      0 115 "Solo Marker"
      0 109 "-----------"
      0 108 "Fret Hand Position"
      0 107 "Force Chord Numbering"
      0 106 "Loose Strumming"
      0 105 "Strum Direction"
      0 104 "Arpeggio Marker"
      0 103 "Slide Marker"
      0 102 "Force HOPO"
      0 101 "EXPERT e String"
      0 100 "EXPERT B String"
      0 99 "EXPERT G String"
      0 98 "EXPERT D String"
      0 97 "EXPERT A String"
      0 96 "EXPERT E String"
      0 95 "-----------"
      0 82 "Loose Strumming"
      0 81 "Strum Direction"
      0 80 "Arpeggio Marker"
      0 79 "Slide Marker"
      0 78 "Force HOPO"
      0 77 "HARD e String"
      0 76 "HARD B String"
      0 75 "HARD G String"
      0 74 "HARD D String"
      0 73 "HARD A String"
      0 72 "HARD E String"
      0 71 "-----------"
      0 58 "Loose Strumming"
      0 56 "Arpeggio Marker"
      0 55 "Slide Marker"
      0 53 "MEDIUM e String"
      0 52 "MEDIUM B String"
      0 51 "MEDIUM G String"
      0 50 "MEDIUM D String"
      0 49 "MEDIUM A String"
      0 48 "MEDIUM E String"
      0 47 "-----------"
      0 32 "Arpeggio Marker"
      0 31 "Slide Marker"
      0 29 "EASY e String"
      0 28 "EASY B String"
      0 27 "EASY G String"
      0 26 "EASY D String"
      0 25 "EASY A String"
      0 24 "EASY E String"
      0 21 "-----------"
      0 18 "Flat/Sharp Swap"
      0 17 "Hide Chord Names"
      0 16 "Slash Chord"
      0 15 "D#"
      0 14 "D"
      0 13 "C#"
      0 12 "C"
      0 11 "B"
      0 10 "A#"
      0 9 "A"
      0 8 "G#"
      0 7 "G"
      0 6 "F#"
      0 5 "F"
      0 4 "E"
    >
    MAINSEND 1 0
    <FXCHAIN
      WNDRECT 0 43 655 467
      SHOW 0
      LASTSEL 2
      DOCKED 0
      BYPASS 0 0
      <JS "c3/progtr" ""
        0.000000 3.000000 0.000000 0.000000 0.000000 0.000000 0.000000 0.000000 0.000000 1.000000 - - - - - - - - - - - - - - - - - - - - - - - - - - - - - - - - - - - - - - - - - - - - - - - - - - - - - - 
      >
      FLOATPOS 0 0 0 0
      FXID {24B53BA0-D70D-4D87-B5AD-394ACCA85DF4}
      WAK 0
      BYPASS 0 0
      <JS "MIDI/midi_transpose" ""
        -12.000000 1.000000 0.000000 127.000000 - - - - - - - - - - - - - - - - - - - - - - - - - - - - - - - - - - - - - - - - - - - - - - - - - - - - - - - - - - - - 
      >
      FLOATPOS 0 0 0 0
      FXID {B2085F4A-0ABF-48CD-A62A-A1F835A73131}
      WAK 0
      BYPASS 0 0
      <VST "VSTi: ReaSynth (Cockos)" "reasynth.dll" 0 ""
        eXNlcu9e7f4AAAAAAgAAAAEAAAAAAAAAAgAAAAAAAAA4AAAAAAAAAA==
        AAAQAO++rd4N8K3eppvEO+gJMjwAAAAAAAAAAAAAgD8AAIA/4jAEPA==
        AAAAAAAAAD+01hM+j8L1PQAAAD8AABAAAAA=
      >
      FLOATPOS 0 0 0 0
      FXID {BB91650F-403A-4916-A1AB-CB8DFD733442}
      WAK 0
    >
    <ITEM
      POSITION 0.00000000000000
      SNAPOFFS 0.00000000000000
      LENGTH 119.47700000000000
      LOOP 0
      ALLTAKES 0
      SEL 0
      FADEIN 1 0.000000 0.000000 1 0
      FADEOUT 1 0.000000 0.000000 1 0
      MUTE 0
      IGUID {2B58632C-B36C-40FD-868D-E42D965A25CE}
      IID 11
      NAME "PART REAL_BASS"
      VOLPAN 1.000000 0.000000 1.000000 -1.000000
      SOFFS 0.00000000000000 0.00000000000000
      PLAYRATE 1.00000000000000 1 0.00000000000000 -1
      CHANMODE 0
      GUID {1B8A61C7-D715-45E6-86D1-6D19F2138660}
      <SOURCE MIDI
        HASDATA 1 480 QN
        POOLEDEVTS {D3933C0E-B252-40BB-BA0F-9405681449FE}
        <X 0 0
          /wNQQVJUIFJFQUxfQkFTUw==
        >
        <X 1920 0
          /wFbYmVnaW5fcGIgc29uZ190cmFpbmVyX3BiXzFd
        >
        E 0 90 1b 70
        E 0 90 33 70
        E 0 90 4b 70
        E 0 90 63 70
        E 0 90 6c 6d
        E 60 80 6c 00
        E 420 80 1b 00
        E 180 80 33 00
        E 60 80 4b 00
        E 180 80 63 00
        <X 60 0
          /wFbcGJfbm9ybSBzb25nX3RyYWluZXJfcGJfMV0=
        >
        E 0 90 1b 6f
        E 0 90 33 6f
        E 0 90 4b 6f
        E 0 90 63 6f
        E 480 80 1b 00
        E 180 80 33 00
        E 60 80 4b 00
        E 180 80 63 00
        E 60 90 1b 6e
        E 0 90 33 6e
        E 0 90 4b 6e
        E 0 90 63 6e
        E 480 80 1b 00
        E 180 80 33 00
        E 60 80 4b 00
        E 180 80 63 00
        E 60 90 1b 6d
        E 0 90 33 6d
        E 0 90 4b 6d
        E 0 90 63 6d
        E 480 80 1b 00
        E 180 80 33 00
        E 60 80 4b 00
        E 180 80 63 00
        <X 60 0
          /wFbZW5kX3BiIHNvbmdfdHJhaW5lcl9wYl8xXQ==
        >
        E 0 90 1b 70
        E 0 90 33 70
        E 0 90 4b 70
        E 0 90 63 70
        E 540 80 1b 00
        E 120 80 33 00
        E 60 80 4b 00
        E 180 80 63 00
        E 60 90 1b 6f
        E 0 90 33 6f
        E 0 90 4b 6f
        E 0 90 63 6f
        E 540 80 1b 00
        E 120 80 33 00
        E 60 80 4b 00
        E 180 80 63 00
        E 60 90 1b 6e
        E 0 90 33 6e
        E 0 90 4b 6e
        E 0 90 63 6e
        E 540 80 1b 00
        E 120 80 33 00
        E 60 80 4b 00
        E 180 80 63 00
        E 60 90 1b 6d
        E 0 90 33 6d
        E 0 90 4b 6d
        E 0 90 63 6d
        E 480 80 1b 00
        E 120 80 33 00
        E 60 80 4b 00
        E 180 80 63 00
        <X 120 0
          /wFbYmVnaW5fcGIgc29uZ190cmFpbmVyX3BiXzJd
        >
        E 0 90 1a 69
        E 0 90 32 69
        E 0 90 4a 69
        E 0 90 62 69
        E 0 90 6c 66
        E 60 80 6c 00
        E 420 80 1a 00
        E 120 80 32 00
        E 120 80 4a 00
        E 180 80 62 00
        <X 60 0
          /wFbcGJfbm9ybSBzb25nX3RyYWluZXJfcGJfMl0=
        >
        E 0 90 1a 68
        E 0 90 32 68
        E 0 90 4a 68
        E 0 90 62 68
        E 480 80 1a 00
        E 120 80 32 00
        E 120 80 4a 00
        E 180 80 62 00
        E 60 90 1a 67
        E 0 90 32 67
        E 0 90 4a 67
        E 0 90 62 67
        E 480 80 1a 00
        E 120 80 32 00
        E 120 80 4a 00
        E 180 80 62 00
        E 60 90 1a 66
        E 0 90 32 66
        E 0 90 4a 66
        E 0 90 62 66
        E 480 80 1a 00
        E 120 80 32 00
        E 120 80 4a 00
        E 180 80 62 00
        <X 60 0
          /wFbZW5kX3BiIHNvbmdfdHJhaW5lcl9wYl8yXQ==
        >
        E 0 90 1a 69
        E 0 90 32 69
        E 0 90 4a 69
        E 0 90 62 69
        E 0 90 74 64
        E 480 80 1a 00
        E 120 80 32 00
        E 120 80 4a 00
        E 180 80 62 00
        E 60 90 1a 68
        E 0 90 32 68
        E 0 90 4a 68
        E 0 90 62 68
        E 480 80 1a 00
        E 120 80 32 00
        E 120 80 4a 00
        E 180 80 62 00
        E 60 90 1a 67
        E 0 90 32 67
        E 0 90 4a 67
        E 0 90 62 67
        E 480 80 1a 00
        E 120 80 32 00
        E 120 80 4a 00
        E 180 80 62 00
        E 60 90 1a 66
        E 0 90 32 66
        E 0 90 4a 66
        E 0 90 62 66
        E 480 80 1a 00
        E 120 80 32 00
        E 120 80 4a 00
        E 180 80 62 00
        <X 60 0
          /wFbYmVnaW5fcGIgc29uZ190cmFpbmVyX3BiXzNd
        >
        E 0 80 74 00
        E 0 90 1a 69
        E 0 90 32 69
        E 0 90 4a 69
        E 0 90 62 69
        E 480 80 1a 00
        E 120 80 32 00
        E 120 80 4a 00
        E 180 80 62 00
        E 60 90 1a 68
        E 0 90 32 68
        E 0 90 4a 68
        E 0 90 62 68
        E 480 80 1a 00
        E 120 80 32 00
        E 120 80 4a 00
        E 180 80 62 00
        <X 60 0
          /wFbcGJfbm9ybSBzb25nX3RyYWluZXJfcGJfM10=
        >
        E 0 90 1a 67
        E 0 90 32 67
        E 0 90 4a 67
        E 0 90 62 67
        E 480 80 1a 00
        E 120 80 32 00
        E 120 80 4a 00
        E 180 80 62 00
        E 60 90 1a 66
        E 0 90 32 66
        E 0 90 4a 66
        E 0 90 62 66
        E 480 80 1a 00
        E 120 80 32 00
        E 120 80 4a 00
        E 180 80 62 00
        E 60 90 19 67
        E 0 90 31 67
        E 0 90 49 67
        E 0 90 61 67
        E 0 90 6c 67
        E 60 80 6c 00
        E 420 80 19 00
        E 120 80 31 00
        E 120 80 49 00
        E 180 80 61 00
        E 60 90 19 68
        E 0 90 31 68
        E 0 90 49 68
        E 0 90 61 68
        E 480 80 19 00
        E 120 80 31 00
        E 120 80 49 00
        E 180 80 61 00
        E 60 90 19 69
        E 0 90 31 69
        E 0 90 49 69
        E 0 90 61 69
        E 60 80 19 00
        E 0 80 31 00
        E 180 80 49 00
        E 180 80 61 00
        E 60 90 31 67
        E 0 90 49 67
        E 0 90 61 67
        E 60 80 31 00
        E 180 80 49 00
        E 180 80 61 00
        E 60 90 19 66
        E 0 90 31 66
        E 0 90 49 66
        E 0 90 61 66
        E 0 90 6c 66
        E 60 80 19 00
        E 0 80 31 00
        E 0 80 6c 00
        E 180 80 49 00
        E 180 80 61 00
        E 60 90 48 69
        E 0 90 60 69
        E 0 90 6c 67
        E 60 80 6c 00
        E 180 80 48 00
        E 180 80 60 00
        <X 60 0
          /wFbZW5kX3BiIHNvbmdfdHJhaW5lcl9wYl8zXQ==
        >
        E 0 90 1a 69
        E 0 90 32 69
        E 0 90 4a 69
        E 0 90 62 69
        E 0 90 6c 66
        E 0 90 74 64
        E 60 80 6c 00
        E 420 80 1a 00
        E 120 80 32 00
        E 120 80 4a 00
        E 180 80 62 00
        E 60 90 1a 68
        E 0 90 32 68
        E 0 90 4a 68
        E 0 90 62 68
        E 480 80 1a 00
        E 120 80 32 00
        E 120 80 4a 00
        E 180 80 62 00
        E 60 90 1a 67
        E 0 90 32 67
        E 0 90 4a 67
        E 0 90 62 67
        E 480 80 1a 00
        E 120 80 32 00
        E 120 80 4a 00
        E 180 80 62 00
        E 60 90 1a 66
        E 0 90 32 66
        E 0 90 4a 66
        E 0 90 62 66
        E 60 80 74 00
        E 420 80 1a 00
        E 120 80 32 00
        E 120 80 4a 00
        E 180 80 62 00
        E 60 90 19 67
        E 0 90 31 67
        E 0 90 49 67
        E 0 90 61 67
        E 0 90 6c 67
        E 60 80 6c 00
        E 420 80 19 00
        E 120 80 31 00
        E 120 80 49 00
        E 180 80 61 00
        E 60 90 19 68
        E 0 90 31 68
        E 0 90 49 68
        E 0 90 61 68
        E 480 80 19 00
        E 120 80 31 00
        E 120 80 49 00
        E 180 80 61 00
        E 60 90 19 69
        E 0 90 31 69
        E 0 90 49 69
        E 0 90 61 69
        E 60 80 19 00
        E 0 80 31 00
        E 180 80 49 00
        E 180 80 61 00
        E 60 90 31 67
        E 0 90 49 67
        E 0 90 61 67
        E 60 80 31 00
        E 180 80 49 00
        E 180 80 61 00
        E 60 90 19 66
        E 0 90 31 66
        E 0 90 49 66
        E 0 90 61 66
        E 0 90 6c 66
        E 60 80 19 00
        E 0 80 31 00
        E 0 80 6c 00
        E 180 80 49 00
        E 180 80 61 00
        E 60 90 48 69
        E 0 90 60 69
        E 0 90 6c 67
        E 60 80 6c 00
        E 180 80 48 00
        E 180 80 60 00
        E 60 90 18 67
        E 0 90 30 67
        E 0 90 48 67
        E 0 90 60 67
        E 0 90 6c 65
        E 60 80 6c 00
        E 420 80 18 00
        E 120 80 30 00
        E 120 80 48 00
        E 180 80 60 00
        E 60 90 18 66
        E 0 90 30 66
        E 0 90 48 66
        E 0 90 60 66
        E 480 80 18 00
        E 120 80 30 00
        E 120 80 48 00
        E 180 80 60 00
        E 60 90 18 65
        E 0 90 30 65
        E 0 90 48 65
        E 0 90 60 65
        E 480 80 18 00
        E 120 80 30 00
        E 120 80 48 00
        E 180 80 60 00
        E 60 90 18 64
        E 0 90 30 64
        E 0 90 48 64
        E 0 90 60 64
        E 480 80 18 00
        E 120 80 30 00
        E 120 80 48 00
        E 180 80 60 00
        E 60 90 19 67
        E 0 90 31 67
        E 0 90 49 67
        E 0 90 61 67
        E 0 90 6c 67
        E 0 90 74 64
        E 60 80 6c 00
        E 420 80 19 00
        E 120 80 31 00
        E 120 80 49 00
        E 180 80 61 00
        E 60 90 19 68
        E 0 90 31 68
        E 0 90 49 68
        E 0 90 61 68
        E 480 80 19 00
        E 120 80 31 00
        E 120 80 49 00
        E 180 80 61 00
        E 60 90 19 69
        E 0 90 31 69
        E 0 90 49 69
        E 0 90 61 69
        E 60 80 74 00
        E 0 80 19 00
        E 0 80 31 00
        E 180 80 49 00
        E 180 80 61 00
        E 60 90 31 67
        E 0 90 49 67
        E 0 90 61 67
        E 60 80 31 00
        E 180 80 49 00
        E 180 80 61 00
        E 60 90 19 66
        E 0 90 31 66
        E 0 90 49 66
        E 0 90 61 66
        E 0 90 6c 66
        E 60 80 19 00
        E 0 80 31 00
        E 0 80 6c 00
        E 180 80 49 00
        E 180 80 61 00
        E 60 90 48 69
        E 0 90 60 69
        E 0 90 6c 67
        E 60 80 6c 00
        E 180 80 48 00
        E 180 80 60 00
        E 60 90 18 67
        E 0 90 30 67
        E 0 90 48 67
        E 0 90 60 67
        E 0 90 6c 65
        E 60 80 6c 00
        E 420 80 18 00
        E 120 80 30 00
        E 120 80 48 00
        E 180 80 60 00
        E 60 90 18 66
        E 0 90 30 66
        E 0 90 48 66
        E 0 90 60 66
        E 480 80 18 00
        E 120 80 30 00
        E 120 80 48 00
        E 180 80 60 00
        E 60 90 18 65
        E 0 90 30 65
        E 0 90 48 65
        E 0 90 60 65
        E 480 80 18 00
        E 120 80 30 00
        E 120 80 48 00
        E 180 80 60 00
        E 60 90 18 64
        E 0 90 30 64
        E 0 90 48 64
        E 0 90 60 64
        E 480 80 18 00
        E 120 80 30 00
        E 120 80 48 00
        E 180 80 60 00
        E 60 90 19 67
        E 0 90 31 67
        E 0 90 49 67
        E 0 90 61 67
        E 480 80 19 00
        E 120 80 31 00
        E 120 80 49 00
        E 180 80 61 00
        E 60 90 19 68
        E 0 90 31 68
        E 0 90 49 68
        E 0 90 61 68
        E 480 80 19 00
        E 120 80 31 00
        E 120 80 49 00
        E 180 80 61 00
        E 60 90 19 69
        E 0 90 31 69
        E 0 90 49 69
        E 0 90 61 69
        E 60 80 19 00
        E 0 80 31 00
        E 180 80 49 00
        E 180 80 61 00
        E 60 90 31 67
        E 0 90 49 67
        E 0 90 61 67
        E 60 80 31 00
        E 180 80 49 00
        E 180 80 61 00
        E 60 90 19 66
        E 0 90 31 66
        E 0 90 49 66
        E 0 90 61 66
        E 0 90 6c 66
        E 60 80 19 00
        E 0 80 31 00
        E 0 80 6c 00
        E 180 80 49 00
        E 180 80 61 00
        E 60 90 48 69
        E 0 90 60 69
        E 0 90 6c 67
        E 60 80 6c 00
        E 180 80 48 00
        E 180 80 60 00
        <X 60 0
          /wFbYmVnaW5fcGIgc29uZ190cmFpbmVyX3BiXzRd
        >
        E 0 90 18 67
        E 0 90 30 67
        E 0 90 48 67
        E 0 90 60 67
        E 0 90 6c 65
        E 60 80 6c 00
        E 420 80 18 00
        E 120 80 30 00
        E 120 80 48 00
        E 180 80 60 00
        <X 60 0
          /wFbcGJfbm9ybSBzb25nX3RyYWluZXJfcGJfNF0=
        >
        E 0 90 18 65
        E 0 90 30 65
        E 0 90 48 65
        E 0 90 60 65
        E 480 80 18 00
        E 120 80 30 00
        E 120 80 48 00
        E 180 80 60 00
        E 60 90 18 67
        E 0 90 30 67
        E 0 90 48 67
        E 0 90 60 67
        E 480 80 18 00
        E 120 80 30 00
        E 120 80 48 00
        E 180 80 60 00
        E 60 90 18 65
        E 0 90 30 65
        E 0 90 48 65
        E 0 90 60 65
        E 480 80 18 00
        E 120 80 30 00
        E 120 80 48 00
        E 180 80 60 00
        <X 60 0
          /wFbZW5kX3BiIHNvbmdfdHJhaW5lcl9wYl80XQ==
        >
        E 0 90 18 67
        E 0 90 30 67
        E 0 90 48 67
        E 0 90 60 67
        E 480 80 18 00
        E 120 80 30 00
        E 120 80 48 00
        E 180 80 60 00
        E 60 90 18 65
        E 0 90 30 65
        E 0 90 48 65
        E 0 90 60 65
        E 480 80 18 00
        E 120 80 30 00
        E 120 80 48 00
        E 180 80 60 00
        E 60 90 18 67
        E 0 90 30 67
        E 0 90 48 67
        E 0 90 60 67
        E 480 80 18 00
        E 120 80 30 00
        E 120 80 48 00
        E 180 80 60 00
        E 60 90 18 65
        E 0 90 30 65
        E 0 90 48 65
        E 0 90 60 65
        E 60 80 18 00
        E 420 80 30 00
        E 240 80 48 00
        E 180 80 60 00
        E 60 90 1a 69
        E 0 90 32 69
        E 0 90 4a 69
        E 0 90 62 69
        E 0 90 6c 67
        E 60 80 6c 00
        E 3779 80 1a 00
        E 0 80 32 00
        E 0 80 4a 00
        E 0 80 62 00
        E 1920 b0 7b 00
        GUID {FD5D9ACF-27CA-4BF1-BE9F-65DE8504A3C1}
        IGNTEMPO 0 120.00000000 4 4
        SRCCOLOR 97
        VELLANE 132 128 60
        COLORMAP "C:\Program Files\REAPER (x64)\Data\color_maps\rockband_guitarbass.png"
        CFGEDITVIEW -3993.874586 9.399277 7 12 0 0 0
        CFGEDIT 1 1 0 1 1 0 1 1 1 1 1 0.25000000 -8 -8 1544 872 0 2 1 1 0.00000000 0 1 1 0 0.500000 0 0 1.000000 64
        KEYSNAP 0 6 "102030050700" 0 "Pentatonic"
        EVTFILTER 0 -1 -1 -1 -1 0 1 0 0 -1.00000000 -1.00000000
      >
    >
  >
  <TRACK '{8ADFD10F-CC4A-48B9-B3BD-C3F709EA8D9C}'
    NAME "PART REAL_GUITAR"
    PEAKCOL 16576
    BEAT -1
    AUTOMODE 0
    VOLPAN 1.00000000000000 0.00000000000000 -1.00000000000000 -1.00000000000000 1.00000000000000
    MUTESOLO 0 0 0
    IPHASE 0
    ISBUS 0 0
    BUSCOMP 0 0
    SHOWINMIX 1 0.666700 0.500000 1 0.500000 -1 -1 -1
    FREEMODE 0
    SEL 0
    REC 0 0 0 0 0 0 0
    VU 2
    TRACKHEIGHT 0 0
    INQ 0 0 0 0.5000000000 100 0 0 100
    NCHAN 2
    FX 0
    TRACKID {8ADFD10F-CC4A-48B9-B3BD-C3F709EA8D9C}
    PERF 0
    MIDIOUT -1
    <MIDINOTENAMES
      0 127 "Trill Marker"
      0 126 "Tremolo Marker"
      0 125 "BRE"
      0 124 "BRE"
      0 123 "BRE"
      0 122 "BRE"
      0 121 "BRE"
      0 120 "BRE (use all 6)"
      0 119 "-----------"
      0 116 "OVERDRIVE"
      0 115 "Solo Marker"
      0 109 "-----------"
      0 108 "Fret Hand Position"
      0 107 "Force Chord Numbering"
      0 106 "Loose Strumming"
      0 105 "Strum Direction"
      0 104 "Arpeggio Marker"
      0 103 "Slide Marker"
      0 102 "Force HOPO"
      0 101 "EXPERT e String"
      0 100 "EXPERT B String"
      0 99 "EXPERT G String"
      0 98 "EXPERT D String"
      0 97 "EXPERT A String"
      0 96 "EXPERT E String"
      0 95 "-----------"
      0 82 "Loose Strumming"
      0 81 "Strum Direction"
      0 80 "Arpeggio Marker"
      0 79 "Slide Marker"
      0 78 "Force HOPO"
      0 77 "HARD e String"
      0 76 "HARD B String"
      0 75 "HARD G String"
      0 74 "HARD D String"
      0 73 "HARD A String"
      0 72 "HARD E String"
      0 71 "-----------"
      0 58 "Loose Strumming"
      0 56 "Arpeggio Marker"
      0 55 "Slide Marker"
      0 53 "MEDIUM e String"
      0 52 "MEDIUM B String"
      0 51 "MEDIUM G String"
      0 50 "MEDIUM D String"
      0 49 "MEDIUM A String"
      0 48 "MEDIUM E String"
      0 47 "-----------"
      0 32 "Arpeggio Marker"
      0 31 "Slide Marker"
      0 29 "EASY e String"
      0 28 "EASY B String"
      0 27 "EASY G String"
      0 26 "EASY D String"
      0 25 "EASY A String"
      0 24 "EASY E String"
      0 21 "-----------"
      0 18 "Flat/Sharp Swap"
      0 17 "Hide Chord Names"
      0 16 "Slash Chord"
      0 15 "D#"
      0 14 "D"
      0 13 "C#"
      0 12 "C"
      0 11 "B"
      0 10 "A#"
      0 9 "A"
      0 8 "G#"
      0 7 "G"
      0 6 "F#"
      0 5 "F"
      0 4 "E"
    >
    MAINSEND 1 0
    <FXCHAIN
      WNDRECT 0 43 729 467
      SHOW 0
      LASTSEL 1
      DOCKED 0
      BYPASS 0 0
      <JS "c3/progtr" ""
        0.000000 3.000000 0.000000 0.000000 0.000000 0.000000 0.000000 0.000000 0.000000 1.000000 - - - - - - - - - - - - - - - - - - - - - - - - - - - - - - - - - - - - - - - - - - - - - - - - - - - - - - 
      >
      FLOATPOS 0 0 0 0
      FXID {119D8090-261D-4983-B4EE-7D7A272F1582}
      WAK 0
      BYPASS 0 0
      <VST "VSTi: ReaSynth (Cockos)" "reasynth.dll" 0 ""
        eXNlcu9e7f4AAAAAAgAAAAEAAAAAAAAAAgAAAAAAAAA4AAAAAAAAAA==
        AAAQAO++rd4N8K3eppvEO+gJMjyHFlk/AAAAAAAAAADMm4A+4jAEPA==
        AAAAAAAAAD+01hM+j8L1PQAAAD8AABAAAAA=
      >
      FLOATPOS 0 0 0 0
      FXID {65C054F9-97DA-4DB3-BC36-B1F433759175}
      WAK 0
    >
    <ITEM
      POSITION 0.00000000000000
      SNAPOFFS 0.00000000000000
      LENGTH 119.47700000000000
      LOOP 0
      ALLTAKES 0
      SEL 0
      FADEIN 1 0.000000 0.000000 1 0
      FADEOUT 1 0.000000 0.000000 1 0
      MUTE 0
      IGUID {550F7A65-6B8F-40BA-A3B9-01234C5F33B4}
      IID 12
      NAME "PART REAL_GUITAR"
      VOLPAN 1.000000 0.000000 1.000000 -1.000000
      SOFFS 0.00000000000000 0.00000000000000
      PLAYRATE 1.00000000000000 1 0.00000000000000 -1
      CHANMODE 0
      GUID {D814E730-203C-490D-A28F-2F1F360EAB31}
      <SOURCE MIDI
        HASDATA 1 480 QN
        POOLEDEVTS {F7277962-17DB-4744-8E58-5C68E1E22249}
        <X 0 0
          /wNQQVJUIFJFQUxfR1VJVEFS
        >
        <X 1920 0
          /wFbYmVnaW5fcGcgc29uZ190cmFpbmVyX3BnXzFd
        >
        E 240 90 07 64
        E 0 90 4c 70
        E 0 90 50 64
        E 0 90 64 70
        E 0 90 68 64
        E 0 90 6c 6e
        E 0 91 4d 6e
        E 0 91 65 6e
        E 60 80 07 00
        E 0 80 4c 00
        E 0 80 64 00
        E 0 80 6c 00
        E 0 81 4d 00
        E 0 81 65 00
        E 180 90 1d 6e
        E 0 90 35 6e
        E 0 90 4d 6e
        E 0 90 65 6e
        <X 480 0
          /wFbcGdfbm9ybSBzb25nX3RyYWluZXJfcGdfMV0=
        >
        E 0 80 1d 00
        E 0 80 35 00
        E 0 80 4d 00
        E 0 80 65 00
        E 240 90 4c 70
        E 0 90 64 70
        E 60 80 4c 00
        E 0 80 64 00
        E 180 90 1d 6e
        E 0 90 35 6e
        E 0 90 4d 6e
        E 0 90 65 6e
        E 480 80 1d 00
        E 0 80 35 00
        E 0 80 4d 00
        E 0 80 65 00
        E 240 90 4c 70
        E 0 90 64 70
        E 60 80 4c 00
        E 0 80 64 00
        E 180 90 1d 6e
        E 0 90 35 6e
        E 0 90 4d 6e
        E 0 90 65 6e
        E 480 80 50 00
        E 0 80 68 00
        E 0 80 1d 00
        E 0 80 35 00
        E 0 80 4d 00
        E 0 80 65 00
        E 240 90 04 64
        E 0 90 4c 6c
        E 0 90 50 64
        E 0 90 64 6c
        E 0 90 68 64
        E 0 90 6c 6b
        E 0 91 4d 6b
        E 0 91 65 6b
        E 60 80 04 00
        E 0 80 4c 00
        E 0 80 64 00
        E 0 80 6c 00
        E 0 81 4d 00
        E 0 81 65 00
        E 180 90 1d 6b
        E 0 90 35 6b
        E 0 90 4d 6b
        E 0 90 65 6b
        <X 480 0
          /wFbZW5kX3BnIHNvbmdfdHJhaW5lcl9wZ18xXQ==
        >
        E 0 80 50 00
        E 0 80 68 00
        E 0 80 1d 00
        E 0 80 35 00
        E 0 80 4d 00
        E 0 80 65 00
        E 240 90 07 64
        E 0 90 4c 70
        E 0 90 50 64
        E 0 90 64 70
        E 0 90 68 64
        E 0 90 6c 6e
        E 0 91 4d 6e
        E 0 91 65 6e
        E 60 80 07 00
        E 0 80 4c 00
        E 0 80 64 00
        E 0 80 6c 00
        E 0 81 4d 00
        E 0 81 65 00
        E 180 90 1d 6e
        E 0 90 35 6e
        E 0 90 4d 6e
        E 0 90 65 6e
        E 480 80 1d 00
        E 0 80 35 00
        E 0 80 4d 00
        E 0 80 65 00
        E 240 90 4c 70
        E 0 90 64 70
        E 60 80 4c 00
        E 0 80 64 00
        E 180 90 1d 6e
        E 0 90 35 6e
        E 0 90 4d 6e
        E 0 90 65 6e
        E 480 80 1d 00
        E 0 80 35 00
        E 0 80 4d 00
        E 0 80 65 00
        E 240 90 4c 70
        E 0 90 64 70
        E 60 80 4c 00
        E 0 80 64 00
        E 180 90 1d 6e
        E 0 90 35 6e
        E 0 90 4d 6e
        E 0 90 65 6e
        E 480 80 50 00
        E 0 80 68 00
        E 0 80 1d 00
        E 0 80 35 00
        E 0 80 4d 00
        E 0 80 65 00
        E 240 90 04 64
        E 0 90 4c 6c
        E 0 90 50 64
        E 0 90 64 6c
        E 0 90 68 64
        E 0 90 6c 6b
        E 0 91 4d 6b
        E 0 91 65 6b
        E 60 80 04 00
        E 0 80 4c 00
        E 0 80 64 00
        E 0 80 6c 00
        E 0 81 4d 00
        E 0 81 65 00
        E 180 90 1d 6b
        E 0 90 35 6b
        E 0 90 4d 6b
        E 0 90 65 6b
        E 480 80 50 00
        E 0 80 68 00
        E 0 80 1d 00
        E 0 80 35 00
        E 0 80 4d 00
        E 0 80 65 00
        E 240 90 07 64
        E 0 90 4c 70
        E 0 90 50 64
        E 0 90 64 70
        E 0 90 68 64
        E 0 90 6c 6e
        E 0 91 4d 6e
        E 0 91 65 6e
        E 60 80 07 00
        E 0 80 4c 00
        E 0 80 64 00
        E 0 80 6c 00
        E 0 81 4d 00
        E 0 81 65 00
        E 180 90 1d 6e
        E 0 90 35 6e
        E 0 90 4d 6e
        E 0 90 65 6e
        E 480 80 1d 00
        E 0 80 35 00
        E 0 80 4d 00
        E 0 80 65 00
        E 240 90 4c 70
        E 0 90 64 70
        E 60 80 4c 00
        E 0 80 64 00
        E 180 90 1d 6e
        E 0 90 35 6e
        E 0 90 4d 6e
        E 0 90 65 6e
        E 480 80 1d 00
        E 0 80 35 00
        E 0 80 4d 00
        E 0 80 65 00
        E 240 90 4c 70
        E 0 90 64 70
        E 60 80 4c 00
        E 0 80 64 00
        E 180 90 1d 6e
        E 0 90 35 6e
        E 0 90 4d 6e
        E 0 90 65 6e
        E 480 80 50 00
        E 0 80 68 00
        E 0 80 1d 00
        E 0 80 35 00
        E 0 80 4d 00
        E 0 80 65 00
        E 240 90 04 64
        E 0 90 4c 6c
        E 0 90 50 64
        E 0 90 64 6c
        E 0 90 68 64
        E 0 90 6c 6b
        E 0 91 4d 6b
        E 0 91 65 6b
        E 60 80 04 00
        E 0 80 4c 00
        E 0 80 64 00
        E 0 80 6c 00
        E 0 81 4d 00
        E 0 81 65 00
        E 180 90 1d 6b
        E 0 90 35 6b
        E 0 90 4d 6b
        E 0 90 65 6b
        E 480 80 50 00
        E 0 80 68 00
        E 0 80 1d 00
        E 0 80 35 00
        E 0 80 4d 00
        E 0 80 65 00
        E 0 90 74 64
        E 240 90 07 64
        E 0 90 4c 70
        E 0 90 50 64
        E 0 90 64 70
        E 0 90 68 64
        E 0 90 6c 6e
        E 0 91 4d 6e
        E 0 91 65 6e
        E 60 80 07 00
        E 0 80 4c 00
        E 0 80 64 00
        E 0 80 6c 00
        E 0 81 4d 00
        E 0 81 65 00
        E 180 90 1d 6e
        E 0 90 35 6e
        E 0 90 4d 6e
        E 0 90 65 6e
        E 480 80 1d 00
        E 0 80 35 00
        E 0 80 4d 00
        E 0 80 65 00
        E 240 90 4c 70
        E 0 90 64 70
        E 60 80 4c 00
        E 0 80 64 00
        E 180 90 1d 6e
        E 0 90 35 6e
        E 0 90 4d 6e
        E 0 90 65 6e
        E 480 80 1d 00
        E 0 80 35 00
        E 0 80 4d 00
        E 0 80 65 00
        E 240 90 4c 70
        E 0 90 64 70
        E 60 80 4c 00
        E 0 80 64 00
        E 180 90 1d 6e
        E 0 90 35 6e
        E 0 90 4d 6e
        E 0 90 65 6e
        E 480 80 50 00
        E 0 80 68 00
        E 0 80 1d 00
        E 0 80 35 00
        E 0 80 4d 00
        E 0 80 65 00
        E 240 90 04 64
        E 0 90 4c 6c
        E 0 90 50 64
        E 0 90 64 6c
        E 0 90 68 64
        E 0 90 6c 6b
        E 0 91 4d 6b
        E 0 91 65 6b
        E 60 80 04 00
        E 0 80 4c 00
        E 0 80 64 00
        E 0 80 6c 00
        E 0 81 4d 00
        E 0 81 65 00
        E 180 90 1d 6b
        E 0 90 35 6b
        E 0 90 4d 6b
        E 0 90 65 6b
        <X 480 0
          /wFbYmVnaW5fcGcgc29uZ190cmFpbmVyX3BnXzJd
        >
        E 0 80 74 00
        E 0 80 50 00
        E 0 80 68 00
        E 0 80 1d 00
        E 0 80 35 00
        E 0 80 4d 00
        E 0 80 65 00
        E 240 90 07 64
        E 0 90 4b 68
        E 0 90 50 64
        E 0 90 63 68
        E 0 90 68 64
        E 0 90 6c 67
        E 0 91 4c 67
        E 0 91 64 67
        E 60 80 07 00
        E 0 80 4b 00
        E 0 80 63 00
        E 0 80 6c 00
        E 0 81 4c 00
        E 0 81 64 00
        E 180 90 1c 67
        E 0 90 34 67
        E 0 90 4c 67
        E 0 90 64 67
        E 480 80 1c 00
        E 0 80 34 00
        E 0 80 4c 00
        E 0 80 64 00
        E 240 90 4b 68
        E 0 90 63 68
        E 60 80 4b 00
        E 0 80 63 00
        E 180 90 1c 67
        E 0 90 34 67
        E 0 90 4c 67
        E 0 90 64 67
        <X 480 0
          /wFbcGdfbm9ybSBzb25nX3RyYWluZXJfcGdfMl0=
        >
        E 0 80 1c 00
        E 0 80 34 00
        E 0 80 4c 00
        E 0 80 64 00
        E 240 90 4b 68
        E 0 90 63 68
        E 60 80 4b 00
        E 0 80 63 00
        E 180 90 1c 67
        E 0 90 34 67
        E 0 90 4c 67
        E 0 90 64 67
        E 480 80 1c 00
        E 0 80 34 00
        E 0 80 4c 00
        E 0 80 64 00
        E 240 90 4b 68
        E 0 90 63 68
        E 60 80 4b 00
        E 0 80 63 00
        E 180 90 1c 67
        E 0 90 34 67
        E 0 90 4c 67
        E 0 90 64 67
        E 480 80 50 00
        E 0 80 68 00
        E 0 80 1c 00
        E 0 80 34 00
        E 0 80 4c 00
        E 0 80 64 00
        E 240 90 0c 64
        E 0 90 4a 69
        E 0 90 50 64
        E 0 90 62 69
        E 0 90 68 64
        E 0 90 6c 69
        E 0 91 4b 69
        E 0 91 63 69
        E 60 80 0c 00
        E 0 80 4a 00
        E 0 80 62 00
        E 0 80 6c 00
        E 0 81 4b 00
        E 0 81 63 00
        E 180 90 1b 69
        E 0 90 33 69
        E 0 90 4b 69
        E 0 90 63 69
        E 480 80 50 00
        E 0 80 68 00
        E 0 80 1b 00
        E 0 80 33 00
        E 0 80 4b 00
        E 0 80 63 00
        E 240 90 0d 64
        E 0 90 4a 6b
        E 0 90 50 64
        E 0 90 62 6b
        E 0 90 68 64
        E 0 90 6c 6a
        E 0 91 4b 6a
        E 0 91 63 6a
        E 60 80 0d 00
        E 0 80 4a 00
        E 0 80 62 00
        E 0 80 6c 00
        E 0 81 4b 00
        E 0 81 63 00
        E 180 90 1b 6a
        E 0 90 33 6a
        E 0 90 4b 6a
        E 0 90 63 6a
        E 480 80 50 00
        E 0 80 68 00
        E 0 80 1b 00
        E 0 80 33 00
        E 0 80 4b 00
        E 0 80 63 00
        E 240 90 0e 64
        E 0 90 1a 6b
        E 0 90 32 6b
        E 0 90 4a 6b
        E 0 90 50 64
        E 0 90 62 6b
        E 0 90 68 64
        E 0 90 6c 6b
        E 0 90 74 64
        E 0 91 4b 6b
        E 0 91 63 6b
        E 60 80 0e 00
        E 0 80 1a 00
        E 0 80 32 00
        E 0 80 4a 00
        E 0 80 62 00
        E 0 80 6c 00
        E 0 81 4b 00
        E 0 81 63 00
        E 60 90 4b 6b
        E 0 90 63 6b
        E 300 80 4b 00
        E 0 80 63 00
        E 60 90 1a 6b
        E 0 90 32 6b
        E 0 90 4a 6b
        E 0 90 62 6b
        E 60 80 1a 00
        E 0 80 32 00
        E 0 80 4a 00
        E 0 80 62 00
        E 60 90 4b 6b
        E 0 90 63 6b
        E 300 80 4b 00
        E 0 80 63 00
        E 60 90 1a 6b
        E 0 90 32 6b
        E 0 90 4a 6b
        E 0 90 62 6b
        E 60 80 1a 00
        E 0 80 32 00
        E 0 80 4a 00
        E 0 80 62 00
        E 60 90 4b 6b
        E 0 90 63 6b
        E 300 80 4b 00
        E 0 80 63 00
        E 60 90 1a 6b
        E 0 90 32 6b
        E 0 90 4a 6b
        E 0 90 62 6b
        E 60 80 1a 00
        E 0 80 32 00
        E 0 80 4a 00
        E 0 80 62 00
        E 60 90 4b 6b
        E 0 90 63 6b
        E 60 80 50 00
        E 0 80 68 00
        E 0 80 4b 00
        E 0 80 63 00
        <X 60 0
          /wFbZW5kX3BnIHNvbmdfdHJhaW5lcl9wZ18yXQ==
        >
        E 0 80 74 00
        E 240 90 07 64
        E 0 90 4b 68
        E 0 90 50 64
        E 0 90 63 68
        E 0 90 68 64
        E 0 90 6c 67
        E 0 91 4c 67
        E 0 91 64 67
        E 60 80 07 00
        E 0 80 4b 00
        E 0 80 63 00
        E 0 80 6c 00
        E 0 81 4c 00
        E 0 81 64 00
        E 180 90 1c 67
        E 0 90 34 67
        E 0 90 4c 67
        E 0 90 64 67
        E 480 80 1c 00
        E 0 80 34 00
        E 0 80 4c 00
        E 0 80 64 00
        E 240 90 4b 68
        E 0 90 63 68
        E 60 80 4b 00
        E 0 80 63 00
        E 180 90 1c 67
        E 0 90 34 67
        E 0 90 4c 67
        E 0 90 64 67
        E 480 80 1c 00
        E 0 80 34 00
        E 0 80 4c 00
        E 0 80 64 00
        E 240 90 4b 68
        E 0 90 63 68
        E 60 80 4b 00
        E 0 80 63 00
        E 180 90 1c 67
        E 0 90 34 67
        E 0 90 4c 67
        E 0 90 64 67
        E 480 80 1c 00
        E 0 80 34 00
        E 0 80 4c 00
        E 0 80 64 00
        E 240 90 4b 68
        E 0 90 63 68
        E 60 80 4b 00
        E 0 80 63 00
        E 180 90 1c 67
        E 0 90 34 67
        E 0 90 4c 67
        E 0 90 64 67
        E 480 80 50 00
        E 0 80 68 00
        E 0 80 1c 00
        E 0 80 34 00
        E 0 80 4c 00
        E 0 80 64 00
        E 240 90 0c 64
        E 0 90 4a 69
        E 0 90 50 64
        E 0 90 62 69
        E 0 90 68 64
        E 0 90 6c 69
        E 0 91 4b 69
        E 0 91 63 69
        E 60 80 0c 00
        E 0 80 4a 00
        E 0 80 62 00
        E 0 80 6c 00
        E 0 81 4b 00
        E 0 81 63 00
        E 180 90 1b 69
        E 0 90 33 69
        E 0 90 4b 69
        E 0 90 63 69
        E 480 80 50 00
        E 0 80 68 00
        E 0 80 1b 00
        E 0 80 33 00
        E 0 80 4b 00
        E 0 80 63 00
        E 240 90 0d 64
        E 0 90 4a 6b
        E 0 90 50 64
        E 0 90 62 6b
        E 0 90 68 64
        E 0 90 6c 6a
        E 0 91 4b 6a
        E 0 91 63 6a
        E 60 80 0d 00
        E 0 80 4a 00
        E 0 80 62 00
        E 0 80 6c 00
        E 0 81 4b 00
        E 0 81 63 00
        E 180 90 1b 6a
        E 0 90 33 6a
        E 0 90 4b 6a
        E 0 90 63 6a
        E 480 80 50 00
        E 0 80 68 00
        E 0 80 1b 00
        E 0 80 33 00
        E 0 80 4b 00
        E 0 80 63 00
        E 240 90 0e 64
        E 0 90 1a 6b
        E 0 90 32 6b
        E 0 90 4a 6b
        E 0 90 50 64
        E 0 90 62 6b
        E 0 90 68 64
        E 0 90 6c 6b
        E 0 91 4b 6b
        E 0 91 63 6b
        E 60 80 0e 00
        E 0 80 1a 00
        E 0 80 32 00
        E 0 80 4a 00
        E 0 80 62 00
        E 0 80 6c 00
        E 0 81 4b 00
        E 0 81 63 00
        E 60 90 4b 6b
        E 0 90 63 6b
        E 300 80 4b 00
        E 0 80 63 00
        E 60 90 1a 6b
        E 0 90 32 6b
        E 0 90 4a 6b
        E 0 90 62 6b
        E 60 80 1a 00
        E 0 80 32 00
        E 0 80 4a 00
        E 0 80 62 00
        E 60 90 4b 6b
        E 0 90 63 6b
        E 300 80 4b 00
        E 0 80 63 00
        E 60 90 1a 6b
        E 0 90 32 6b
        E 0 90 4a 6b
        E 0 90 62 6b
        E 60 80 1a 00
        E 0 80 32 00
        E 0 80 4a 00
        E 0 80 62 00
        E 60 90 4b 6b
        E 0 90 63 6b
        E 300 80 4b 00
        E 0 80 63 00
        E 60 90 4a 6b
        E 0 90 62 6b
        E 60 80 4a 00
        E 0 80 62 00
        E 60 90 63 6b
        E 60 80 50 00
        E 0 80 68 00
        E 0 80 63 00
        <X 60 0
          /wFbYmVnaW5fcGcgc29uZ190cmFpbmVyX3BnXzNd
        >
        E 0 90 1a 6d
        E 0 90 32 6d
        E 0 90 4a 6d
        E 0 90 62 6d
        E 60 80 1a 00
        E 0 80 32 00
        E 0 80 4a 00
        E 0 80 62 00
        E 180 90 49 69
        E 0 90 61 69
        E 0 90 6c 69
        E 60 80 49 00
        E 0 80 61 00
        E 0 80 6c 00
        E 180 90 33 6b
        E 0 90 4b 6b
        E 0 90 63 6b
        E 60 80 33 00
        E 0 80 4b 00
        E 0 80 63 00
        E 180 90 61 69
        E 60 80 61 00
        E 180 90 1a 6b
        E 0 90 32 6b
        E 0 90 4a 6b
        E 0 90 62 6b
        E 60 80 1a 00
        E 0 80 32 00
        E 0 80 4a 00
        E 0 80 62 00
        E 180 90 49 69
        E 0 90 61 69
        E 60 80 49 00
        E 0 80 61 00
        E 180 90 33 6b
        E 0 90 4b 6b
        E 0 90 63 6b
        E 60 80 33 00
        E 0 80 4b 00
        E 0 80 63 00
        E 180 90 61 69
        E 60 80 61 00
        <X 180 0
          /wFbcGdfbm9ybSBzb25nX3RyYWluZXJfcGdfM10=
        >
        E 0 90 1a 6b
        E 0 90 32 6b
        E 0 90 4a 6b
        E 0 90 62 6b
        E 60 80 1a 00
        E 0 80 32 00
        E 0 80 4a 00
        E 0 80 62 00
        E 180 90 49 69
        E 0 90 61 69
        E 60 80 49 00
        E 0 80 61 00
        E 180 90 33 6b
        E 0 90 4b 6b
        E 0 90 63 6b
        E 60 80 33 00
        E 0 80 4b 00
        E 0 80 63 00
        E 180 90 61 69
        E 60 80 61 00
        E 180 90 1a 69
        E 0 90 32 69
        E 0 90 4a 69
        E 0 90 62 69
        E 60 80 1a 00
        E 0 80 32 00
        E 0 80 4a 00
        E 0 80 62 00
        E 180 90 49 69
        E 0 90 61 69
        E 60 80 49 00
        E 0 80 61 00
        E 180 90 33 6b
        E 0 90 4b 6b
        E 0 90 63 6b
        E 60 80 33 00
        E 0 80 4b 00
        E 0 80 63 00
        E 180 90 61 69
        E 60 80 61 00
        E 180 90 1a 69
        E 0 90 32 69
        E 0 90 4a 69
        E 0 90 62 69
        E 0 90 74 64
        E 60 80 1a 00
        E 0 80 32 00
        E 0 80 4a 00
        E 0 80 62 00
        E 180 90 49 6b
        E 0 90 61 6b
        E 60 80 49 00
        E 0 80 61 00
        E 180 90 33 69
        E 0 90 4b 69
        E 0 90 63 69
        E 60 80 33 00
        E 0 80 4b 00
        E 0 80 63 00
        E 180 90 61 6b
        E 60 80 61 00
        E 180 90 1a 6b
        E 0 90 32 6b
        E 0 90 4a 6b
        E 0 90 62 6b
        E 0 90 6c 6a
        E 60 80 1a 00
        E 0 80 32 00
        E 0 80 4a 00
        E 0 80 62 00
        E 0 80 6c 00
        E 180 90 49 6b
        E 0 90 61 6b
        E 60 80 49 00
        E 0 80 61 00
        E 180 90 33 6a
        E 0 90 4b 6a
        E 0 90 63 6a
        E 60 80 33 00
        E 0 80 4b 00
        E 0 80 63 00
        E 180 90 61 6b
        E 60 80 61 00
        E 180 90 19 6d
        E 0 90 31 6d
        E 0 90 49 6d
        E 0 90 61 6d
        E 0 90 6c 6b
        E 60 80 74 00
        E 0 80 19 00
        E 0 80 31 00
        E 0 80 49 00
        E 0 80 61 00
        E 0 80 6c 00
        E 180 90 4b 6b
        E 0 90 63 6b
        E 60 80 4b 00
        E 0 80 63 00
        E 180 90 19 6b
        E 0 90 31 6b
        E 0 90 49 6b
        E 0 90 61 6b
        E 60 80 19 00
        E 0 80 31 00
        E 0 80 49 00
        E 0 80 61 00
        E 180 90 63 6b
        E 60 80 63 00
        E 180 90 19 69
        E 0 90 31 69
        E 0 90 49 69
        E 0 90 61 69
        E 0 90 6c 69
        E 60 80 19 00
        E 0 80 31 00
        E 0 80 49 00
        E 0 80 61 00
        E 0 80 6c 00
        E 180 90 4b 6b
        E 0 90 63 6b
        E 60 80 4b 00
        E 0 80 63 00
        E 180 90 30 6c
        E 0 90 48 6c
        E 0 90 60 6c
        E 60 80 30 00
        E 0 80 48 00
        E 0 80 60 00
        E 180 90 63 6b
        E 60 80 63 00
        <X 180 0
          /wFbZW5kX3BnIHNvbmdfdHJhaW5lcl9wZ18zXQ==
        >
        E 0 90 1a 6d
        E 0 90 32 6d
        E 0 90 4a 6d
        E 0 90 62 6d
        E 60 80 1a 00
        E 0 80 32 00
        E 0 80 4a 00
        E 0 80 62 00
        E 180 90 49 69
        E 0 90 61 69
        E 0 90 6c 69
        E 60 80 49 00
        E 0 80 61 00
        E 0 80 6c 00
        E 180 90 33 6b
        E 0 90 4b 6b
        E 0 90 63 6b
        E 60 80 33 00
        E 0 80 4b 00
        E 0 80 63 00
        E 180 90 61 69
        E 60 80 61 00
        E 180 90 1a 6b
        E 0 90 32 6b
        E 0 90 4a 6b
        E 0 90 62 6b
        E 60 80 1a 00
        E 0 80 32 00
        E 0 80 4a 00
        E 0 80 62 00
        E 180 90 49 69
        E 0 90 61 69
        E 60 80 49 00
        E 0 80 61 00
        E 180 90 33 6b
        E 0 90 4b 6b
        E 0 90 63 6b
        E 60 80 33 00
        E 0 80 4b 00
        E 0 80 63 00
        E 180 90 61 69
        E 60 80 61 00
        E 180 90 1a 6b
        E 0 90 32 6b
        E 0 90 4a 6b
        E 0 90 62 6b
        E 60 80 1a 00
        E 0 80 32 00
        E 0 80 4a 00
        E 0 80 62 00
        E 180 90 49 69
        E 0 90 61 69
        E 60 80 49 00
        E 0 80 61 00
        E 180 90 33 6b
        E 0 90 4b 6b
        E 0 90 63 6b
        E 60 80 33 00
        E 0 80 4b 00
        E 0 80 63 00
        E 180 90 61 69
        E 60 80 61 00
        E 180 90 1a 69
        E 0 90 32 69
        E 0 90 4a 69
        E 0 90 62 69
        E 60 80 1a 00
        E 0 80 32 00
        E 0 80 4a 00
        E 0 80 62 00
        E 180 90 49 69
        E 0 90 61 69
        E 60 80 49 00
        E 0 80 61 00
        E 180 90 33 6b
        E 0 90 4b 6b
        E 0 90 63 6b
        E 60 80 33 00
        E 0 80 4b 00
        E 0 80 63 00
        E 180 90 61 69
        E 60 80 61 00
        E 180 90 1a 69
        E 0 90 32 69
        E 0 90 4a 69
        E 0 90 62 69
        E 60 80 1a 00
        E 0 80 32 00
        E 0 80 4a 00
        E 0 80 62 00
        E 180 90 49 6b
        E 0 90 61 6b
        E 60 80 49 00
        E 0 80 61 00
        E 180 90 33 69
        E 0 90 4b 69
        E 0 90 63 69
        E 60 80 33 00
        E 0 80 4b 00
        E 0 80 63 00
        E 180 90 61 6b
        E 60 80 61 00
        E 180 90 1a 6b
        E 0 90 32 6b
        E 0 90 4a 6b
        E 0 90 62 6b
        E 0 90 6c 6a
        E 60 80 1a 00
        E 0 80 32 00
        E 0 80 4a 00
        E 0 80 62 00
        E 0 80 6c 00
        E 180 90 49 6b
        E 0 90 61 6b
        E 60 80 49 00
        E 0 80 61 00
        E 180 90 33 6a
        E 0 90 4b 6a
        E 0 90 63 6a
        E 60 80 33 00
        E 0 80 4b 00
        E 0 80 63 00
        E 180 90 61 6b
        E 60 80 61 00
        E 180 90 19 6d
        E 0 90 31 6d
        E 0 90 49 6d
        E 0 90 61 6d
        E 0 90 6c 6b
        E 60 80 19 00
        E 0 80 31 00
        E 0 80 49 00
        E 0 80 61 00
        E 0 80 6c 00
        E 180 90 4b 6b
        E 0 90 63 6b
        E 60 80 4b 00
        E 0 80 63 00
        E 180 90 19 6b
        E 0 90 31 6b
        E 0 90 49 6b
        E 0 90 61 6b
        E 60 80 19 00
        E 0 80 31 00
        E 0 80 49 00
        E 0 80 61 00
        E 180 90 63 6b
        E 60 80 63 00
        E 180 90 19 69
        E 0 90 31 69
        E 0 90 49 69
        E 0 90 61 69
        E 0 90 6c 69
        E 60 80 19 00
        E 0 80 31 00
        E 0 80 49 00
        E 0 80 61 00
        E 0 80 6c 00
        E 180 90 4b 6b
        E 0 90 63 6b
        E 60 80 4b 00
        E 0 80 63 00
        E 180 90 30 6c
        E 0 90 48 6c
        E 0 90 60 6c
        E 60 80 30 00
        E 0 80 48 00
        E 0 80 60 00
        E 180 90 63 6b
        E 60 80 63 00
        <X 180 0
          /wFbYmVnaW5fcGcgc29uZ190cmFpbmVyX3BnXzRd
        >
        E 0 90 07 64
        E 0 90 1b 68
        E 0 90 33 68
        E 0 90 4b 68
        E 0 90 50 64
        E 0 90 63 68
        E 0 90 68 64
        E 0 90 6c 67
        E 0 91 4a 69
        E 0 91 4c 67
        E 0 91 4d 67
        E 0 91 62 69
        E 0 91 64 67
        E 0 91 65 67
        E 60 80 07 00
        E 0 80 1b 00
        E 0 80 33 00
        E 0 80 4b 00
        E 0 80 63 00
        E 0 80 6c 00
        E 0 81 4a 00
        E 0 81 4c 00
        E 0 81 4d 00
        E 0 81 62 00
        E 0 81 64 00
        E 0 81 65 00
        E 180 90 4a 69
        E 0 90 62 69
        E 60 80 4a 00
        E 0 80 62 00
        E 180 90 33 68
        E 0 90 4b 68
        E 0 90 63 68
        E 60 80 33 00
        E 0 80 4b 00
        E 0 80 63 00
        E 180 90 4c 67
        E 0 90 64 67
        E 60 80 4c 00
        E 0 80 64 00
        <X 180 0
          /wFbcGdfbm9ybSBzb25nX3RyYWluZXJfcGdfNF0=
        >
        E 0 90 1d 67
        E 0 90 35 67
        E 0 90 4d 67
        E 0 90 65 67
        E 60 80 50 00
        E 0 80 1d 00
        E 0 80 35 00
        E 0 80 4d 00
        E 0 80 65 00
        E 180 90 64 67
        E 60 80 68 00
        E 0 80 64 00
        E 180 90 33 66
        E 0 90 4b 66
        E 0 90 63 66
        E 0 90 6c 65
        E 60 80 33 00
        E 0 80 4b 00
        E 0 80 63 00
        E 0 80 6c 00
        E 180 90 4c 65
        E 0 90 64 65
        E 60 80 4c 00
        E 0 80 64 00
        E 180 90 1b 68
        E 0 90 33 68
        E 0 90 4b 68
        E 0 90 50 64
        E 0 90 63 68
        E 0 90 68 64
        E 0 90 6c 67
        E 0 91 4a 69
        E 0 91 4c 67
        E 0 91 4d 67
        E 0 91 62 69
        E 0 91 64 67
        E 0 91 65 67
        E 60 80 1b 00
        E 0 80 33 00
        E 0 80 4b 00
        E 0 80 63 00
        E 0 80 6c 00
        E 0 81 4a 00
        E 0 81 4c 00
        E 0 81 4d 00
        E 0 81 62 00
        E 0 81 64 00
        E 0 81 65 00
        E 180 90 4a 69
        E 0 90 62 69
        E 60 80 4a 00
        E 0 80 62 00
        E 180 90 33 68
        E 0 90 4b 68
        E 0 90 63 68
        E 60 80 33 00
        E 0 80 4b 00
        E 0 80 63 00
        E 180 90 4c 67
        E 0 90 64 67
        E 60 80 4c 00
        E 0 80 64 00
        E 180 90 1d 67
        E 0 90 35 67
        E 0 90 4d 67
        E 0 90 65 67
        E 60 80 50 00
        E 0 80 1d 00
        E 0 80 35 00
        E 0 80 4d 00
        E 0 80 65 00
        E 180 90 64 67
        E 60 80 68 00
        E 0 80 64 00
        E 180 90 33 66
        E 0 90 4b 66
        E 0 90 63 66
        E 0 90 6c 65
        E 60 80 33 00
        E 0 80 4b 00
        E 0 80 63 00
        E 0 80 6c 00
        E 180 90 4c 65
        E 0 90 64 65
        E 60 80 4c 00
        E 0 80 64 00
        <X 180 0
          /wFbZW5kX3BnIHNvbmdfdHJhaW5lcl9wZ180XQ==
        >
        E 0 90 1b 68
        E 0 90 33 68
        E 0 90 4b 68
        E 0 90 50 64
        E 0 90 63 68
        E 0 90 68 64
        E 0 90 6c 67
        E 0 91 4a 69
        E 0 91 4c 67
        E 0 91 4d 67
        E 0 91 62 69
        E 0 91 64 67
        E 0 91 65 67
        E 60 80 1b 00
        E 0 80 33 00
        E 0 80 4b 00
        E 0 80 63 00
        E 0 80 6c 00
        E 0 81 4a 00
        E 0 81 4c 00
        E 0 81 4d 00
        E 0 81 62 00
        E 0 81 64 00
        E 0 81 65 00
        E 180 90 4a 69
        E 0 90 62 69
        E 60 80 4a 00
        E 0 80 62 00
        E 180 90 33 68
        E 0 90 4b 68
        E 0 90 63 68
        E 60 80 33 00
        E 0 80 4b 00
        E 0 80 63 00
        E 180 90 4c 67
        E 0 90 64 67
        E 60 80 4c 00
        E 0 80 64 00
        E 180 90 1d 67
        E 0 90 35 67
        E 0 90 4d 67
        E 0 90 65 67
        E 60 80 50 00
        E 0 80 1d 00
        E 0 80 35 00
        E 0 80 4d 00
        E 0 80 65 00
        E 180 90 64 67
        E 60 80 68 00
        E 0 80 64 00
        E 180 90 33 66
        E 0 90 4b 66
        E 0 90 63 66
        E 0 90 6c 65
        E 60 80 33 00
        E 0 80 4b 00
        E 0 80 63 00
        E 0 80 6c 00
        E 180 90 4c 65
        E 0 90 64 65
        E 60 80 4c 00
        E 0 80 64 00
        E 180 90 1b 68
        E 0 90 33 68
        E 0 90 4b 68
        E 0 90 50 64
        E 0 90 63 68
        E 0 90 68 64
        E 0 90 6c 67
        E 0 91 4a 69
        E 0 91 4c 67
        E 0 91 4d 67
        E 0 91 62 69
        E 0 91 64 67
        E 0 91 65 67
        E 60 80 1b 00
        E 0 80 33 00
        E 0 80 4b 00
        E 0 80 63 00
        E 0 80 6c 00
        E 0 81 4a 00
        E 0 81 4c 00
        E 0 81 4d 00
        E 0 81 62 00
        E 0 81 64 00
        E 0 81 65 00
        E 180 90 4a 69
        E 0 90 62 69
        E 60 80 4a 00
        E 0 80 62 00
        E 180 90 33 68
        E 0 90 4b 68
        E 0 90 63 68
        E 60 80 33 00
        E 0 80 4b 00
        E 0 80 63 00
        E 180 90 4c 67
        E 0 90 64 67
        E 60 80 4c 00
        E 0 80 64 00
        E 180 90 1d 67
        E 0 90 35 67
        E 0 90 4d 67
        E 0 90 65 67
        E 60 80 50 00
        E 0 80 1d 00
        E 0 80 35 00
        E 0 80 4d 00
        E 0 80 65 00
        E 180 90 64 67
        E 60 80 68 00
        E 0 80 64 00
        E 180 90 33 66
        E 0 90 4b 66
        E 0 90 63 66
        E 0 90 6c 65
        E 60 80 33 00
        E 0 80 4b 00
        E 0 80 63 00
        E 0 80 6c 00
        E 180 90 4c 65
        E 0 90 64 65
        E 60 80 4c 00
        E 0 80 64 00
        E 5939 b0 7b 00
        GUID {B4D8CAFB-3A6A-4437-8AA3-8BA8D7C37FFA}
        IGNTEMPO 0 120.00000000 4 4
        SRCCOLOR 98
        VELLANE 132 128 60
        COLORMAP "C:\Program Files\REAPER (x64)\Data\color_maps\rockband_guitarbass.png"
        CFGEDITVIEW -3993.874586 9.399277 7 12 0 0 0
        CFGEDIT 1 1 0 1 1 0 1 1 1 1 1 0.25000000 -8 -8 1544 872 0 2 1 1 0.00000000 0 1 1 0 0.500000 0 0 1.000000 64
        KEYSNAP 0 6 "102030050700" 0 "Pentatonic"
        EVTFILTER 0 -1 -1 -1 -1 0 1 0 0 -1.00000000 -1.00000000
      >
    >
  >
  <TRACK '{6B43C9A4-9C41-4D34-876C-C2EDAF43B5C9}'
    NAME "EVENTS"
    PEAKCOL 16576
    BEAT -1
    AUTOMODE 0
    VOLPAN 1.00000000000000 0.00000000000000 -1.00000000000000 -1.00000000000000 1.00000000000000
    MUTESOLO 0 0 0
    IPHASE 0
    ISBUS 0 0
    BUSCOMP 0 0
    SHOWINMIX 1 0.666700 0.500000 1 0.500000 -1 -1 -1
    FREEMODE 0
    SEL 0
    REC 0 0 0 0 0 0 0
    VU 2
    TRACKHEIGHT 0 0
    INQ 0 0 0 0.5000000000 100 0 0 100
    NCHAN 2
    FX 1
    TRACKID {6B43C9A4-9C41-4D34-876C-C2EDAF43B5C9}
    PERF 0
    MIDIOUT -1
    <MIDINOTENAMES
      0 26 "Hi-Hat"
      0 25 "Snare"
      0 24 "Kick"
    >
    MAINSEND 1 0
    <FXCHAIN
      SHOW 0
      LASTSEL 0
      DOCKED 0
    >
    <ITEM
      POSITION 0.00000000000000
      SNAPOFFS 0.00000000000000
      LENGTH 119.47700000000000
      LOOP 0
      ALLTAKES 0
      SEL 0
      FADEIN 1 0.000000 0.000000 1 0
      FADEOUT 1 0.000000 0.000000 1 0
      MUTE 0
      IGUID {1B82513A-6D1D-4D57-B04D-5CED926AA10A}
      IID 13
      NAME "EVENTS"
      VOLPAN 1.000000 0.000000 1.000000 -1.000000
      SOFFS 0.00000000000000 0.00000000000000
      PLAYRATE 1.00000000000000 1 0.00000000000000 -1
      CHANMODE 0
      GUID {5C214BD8-2265-4882-BB4A-953915326966}
      <SOURCE MIDI
        HASDATA 1 480 QN
        POOLEDEVTS {154B636A-5453-4D90-9BA4-65BB8A3840C0}
        <X 0 0
          /wNFVkVOVFM=
        >
        E 0 90 1a 60
        E 60 80 1a 00
        E 420 90 1a 60
        E 60 80 1a 00
        E 420 90 1a 60
        E 60 80 1a 00
        E 180 90 1a 60
        E 60 80 1a 00
        E 180 90 1a 60
        E 60 80 1a 00
        E 180 90 1a 60
        E 60 80 1a 00
        <X 180 0
          /wFbcHJjX2ludHJvXQ==
        >
        E 480 90 1a 60
        E 60 80 1a 00
        <X 60 0
          /wFbbXVzaWNfc3RhcnRd
        >
        <X 0 0
          /wFbY3Jvd2RfbWVsbG93XQ==
        >
        <X 0 0
          /wFbY3Jvd2Rfbm9jbGFwXQ==
        >
        E 840 90 1a 60
        E 60 80 1a 00
        E 900 90 1a 60
        E 60 80 1a 00
        E 900 90 1a 60
        E 60 80 1a 00
        E 900 90 1a 60
        E 60 80 1a 00
        E 900 90 1a 60
        E 60 80 1a 00
        E 900 90 1a 60
        E 60 80 1a 00
        E 900 90 1a 60
        E 60 80 1a 00
        <X 420 0
          /wFbcHJjX3ZlcnNlXzFd
        >
        E 480 90 1a 60
        E 60 80 1a 00
        E 900 90 1a 60
        E 60 80 1a 00
        E 900 90 1a 60
        E 60 80 1a 00
        E 900 90 1a 60
        E 60 80 1a 00
        E 900 90 1a 60
        E 60 80 1a 00
        E 900 90 1a 60
        E 60 80 1a 00
        E 900 90 1a 60
        E 60 80 1a 00
        E 900 90 1a 60
        E 60 80 1a 00
        <X 420 0
          /wFbcHJjX3ZlcnNlXzJhXQ==
        >
        E 480 90 1a 60
        E 60 80 1a 00
        E 900 90 1a 60
        E 60 80 1a 00
        E 900 90 1a 60
        E 60 80 1a 00
        E 900 90 1a 60
        E 60 80 1a 00
        E 900 90 1a 60
        E 60 80 1a 00
        E 900 90 1a 60
        E 60 80 1a 00
        E 900 90 1a 60
        E 60 80 1a 00
        E 900 90 1a 60
        E 60 80 1a 00
        <X 420 0
          /wFbcHJjX3ZlcnNlXzJiXQ==
        >
        E 480 90 1a 60
        E 60 80 1a 00
        E 900 90 1a 60
        E 60 80 1a 00
        E 900 90 1a 60
        E 60 80 1a 00
        E 900 90 1a 60
        E 60 80 1a 00
        E 900 90 1a 60
        E 60 80 1a 00
        E 900 90 1a 60
        E 60 80 1a 00
        E 900 90 1a 60
        E 60 80 1a 00
        E 900 90 1a 60
        E 60 80 1a 00
        <X 420 0
          /wFbcHJjX3ZlcnNlXzNhXQ==
        >
        E 480 90 1a 60
        E 60 80 1a 00
        E 900 90 1a 60
        E 60 80 1a 00
        E 900 90 1a 60
        E 60 80 1a 00
        E 900 90 1a 60
        E 60 80 1a 00
        E 900 90 1a 60
        E 60 80 1a 00
        E 900 90 1a 60
        E 60 80 1a 00
        E 900 90 1a 60
        E 60 80 1a 00
        E 900 90 1a 60
        E 60 80 1a 00
        <X 420 0
          /wFbcHJjX3ZlcnNlXzNiXQ==
        >
        E 480 90 1a 60
        E 60 80 1a 00
        E 900 90 1a 60
        E 60 80 1a 00
        E 900 90 1a 60
        E 60 80 1a 00
        E 900 90 1a 60
        E 60 80 1a 00
        E 900 90 1a 60
        E 60 80 1a 00
        E 900 90 1a 60
        E 60 80 1a 00
        E 900 90 1a 60
        E 60 80 1a 00
        E 900 90 1a 60
        E 60 80 1a 00
        <X 420 0
          /wFbcHJjX291dHJvXQ==
        >
        E 480 90 1a 60
        E 60 80 1a 00
        E 900 90 1a 60
        E 60 80 1a 00
        E 900 90 1a 60
        E 60 80 1a 00
        E 900 90 1a 60
        E 60 80 1a 00
        E 900 90 1a 60
        E 60 80 1a 00
        E 900 90 1a 60
        E 60 80 1a 00
        E 900 90 1a 60
        E 60 80 1a 00
        E 900 90 1a 60
        E 60 80 1a 00
        <X 1020 0
          /wFbbXVzaWNfZW5kXQ==
        >
        <X 0 0
          /wFbY3Jvd2RfcmVhbHRpbWVd
        >
        <X 5157 0
          /wFbZW5kXQ==
        >
        E 3 b0 7b 00
        GUID {6576D635-E3CE-4E4C-8524-2C2D09F6CF85}
        IGNTEMPO 0 120.00000000 4 4
        SRCCOLOR 99
        VELLANE 132 128 60
        COLORMAP "C:\Program Files\REAPER (x64)\Data\color_maps\rockband_guitarbass.png"
        CFGEDITVIEW -3993.874586 9.399277 0 48 0 0 0
        CFGEDIT 1 1 0 1 1 0 1 1 1 1 1 0.25000000 -8 -8 1544 872 0 2 1 1 0.00000000 0 1 1 0 0.500000 0 0 1.000000 64
        KEYSNAP 0 6 "102030050700" 0 "Pentatonic"
        EVTFILTER 0 -1 -1 -1 -1 0 1 0 0 -1.00000000 -1.00000000
      >
    >
  >
  <TRACK '{11BDBC57-6DCE-4ED7-84D3-06FB5300B4E5}'
    NAME "BEAT"
    PEAKCOL 16576
    BEAT -1
    AUTOMODE 0
    VOLPAN 1.00000000000000 0.00000000000000 -1.00000000000000 -1.00000000000000 1.00000000000000
    MUTESOLO 0 0 0
    IPHASE 0
    ISBUS 0 0
    BUSCOMP 0 0
    SHOWINMIX 1 0.666700 0.500000 1 0.500000 -1 -1 -1
    FREEMODE 0
    SEL 0
    REC 0 0 0 0 0 0 0
    VU 2
    TRACKHEIGHT 0 0
    INQ 0 0 0 0.5000000000 100 0 0 100
    NCHAN 2
    FX 1
    TRACKID {11BDBC57-6DCE-4ED7-84D3-06FB5300B4E5}
    PERF 0
    MIDIOUT -1
    <MIDINOTENAMES
      0 13 "Up Beats"
      0 12 "Downbeat"
    >
    MAINSEND 1 0
    <FXCHAIN
      SHOW 0
      LASTSEL 0
      DOCKED 0
    >
    <ITEM
      POSITION 0.00000000000000
      SNAPOFFS 0.00000000000000
      LENGTH 119.47700000000000
      LOOP 0
      ALLTAKES 0
      SEL 0
      FADEIN 1 0.000000 0.000000 1 0
      FADEOUT 1 0.000000 0.000000 1 0
      MUTE 0
      IGUID {66824C31-0E1C-4744-842A-00E9C47166AF}
      IID 14
      NAME "BEAT"
      VOLPAN 1.000000 0.000000 1.000000 -1.000000
      SOFFS 0.00000000000000 0.00000000000000
      PLAYRATE 1.00000000000000 1 0.00000000000000 -1
      CHANMODE 0
      GUID {7DAEDC2A-B9A4-406C-924E-89E095446941}
      <SOURCE MIDI
        HASDATA 1 480 QN
        POOLEDEVTS {D03E7AA4-4939-44B5-AACC-F8C88CA30EBE}
        <X 0 0
          /wNCRUFU
        >
        E 0 96 0c 64
        E 60 86 0c 00
        E 420 96 0d 64
        E 60 86 0d 00
        E 420 96 0d 64
        E 60 86 0d 00
        E 420 96 0d 64
        E 60 86 0d 00
        E 420 96 0c 64
        E 60 86 0c 00
        E 420 96 0d 64
        E 60 86 0d 00
        E 420 96 0d 64
        E 60 86 0d 00
        E 420 96 0d 64
        E 60 86 0d 00
        E 420 96 0c 64
        E 60 86 0c 00
        E 420 96 0d 64
        E 60 86 0d 00
        E 420 96 0d 64
        E 60 86 0d 00
        E 420 96 0d 64
        E 60 86 0d 00
        E 420 96 0c 64
        E 60 86 0c 00
        E 420 96 0d 64
        E 60 86 0d 00
        E 420 96 0d 64
        E 60 86 0d 00
        E 420 96 0d 64
        E 60 86 0d 00
        E 420 96 0c 64
        E 60 86 0c 00
        E 420 96 0d 64
        E 60 86 0d 00
        E 420 96 0d 64
        E 60 86 0d 00
        E 420 96 0d 64
        E 60 86 0d 00
        E 420 96 0c 64
        E 60 86 0c 00
        E 420 96 0d 64
        E 60 86 0d 00
        E 420 96 0d 64
        E 60 86 0d 00
        E 420 96 0d 64
        E 60 86 0d 00
        E 420 96 0c 64
        E 60 86 0c 00
        E 420 96 0d 64
        E 60 86 0d 00
        E 420 96 0d 64
        E 60 86 0d 00
        E 420 96 0d 64
        E 60 86 0d 00
        E 420 96 0c 64
        E 60 86 0c 00
        E 420 96 0d 64
        E 60 86 0d 00
        E 420 96 0d 64
        E 60 86 0d 00
        E 420 96 0d 64
        E 60 86 0d 00
        E 420 96 0c 64
        E 60 86 0c 00
        E 420 96 0d 64
        E 60 86 0d 00
        E 420 96 0d 64
        E 60 86 0d 00
        E 420 96 0d 64
        E 60 86 0d 00
        E 420 96 0c 64
        E 60 86 0c 00
        E 420 96 0d 64
        E 60 86 0d 00
        E 420 96 0d 64
        E 60 86 0d 00
        E 420 96 0d 64
        E 60 86 0d 00
        E 420 96 0c 64
        E 60 86 0c 00
        E 420 96 0d 64
        E 60 86 0d 00
        E 420 96 0d 64
        E 60 86 0d 00
        E 420 96 0d 64
        E 60 86 0d 00
        E 420 96 0c 64
        E 60 86 0c 00
        E 420 96 0d 64
        E 60 86 0d 00
        E 420 96 0d 64
        E 60 86 0d 00
        E 420 96 0d 64
        E 60 86 0d 00
        E 420 96 0c 64
        E 60 86 0c 00
        E 420 96 0d 64
        E 60 86 0d 00
        E 420 96 0d 64
        E 60 86 0d 00
        E 420 96 0d 64
        E 60 86 0d 00
        E 420 96 0c 64
        E 60 86 0c 00
        E 420 96 0d 64
        E 60 86 0d 00
        E 420 96 0d 64
        E 60 86 0d 00
        E 420 96 0d 64
        E 60 86 0d 00
        E 420 96 0c 64
        E 60 86 0c 00
        E 420 96 0d 64
        E 60 86 0d 00
        E 420 96 0d 64
        E 60 86 0d 00
        E 420 96 0d 64
        E 60 86 0d 00
        E 420 96 0c 64
        E 60 86 0c 00
        E 420 96 0d 64
        E 60 86 0d 00
        E 420 96 0d 64
        E 60 86 0d 00
        E 420 96 0d 64
        E 60 86 0d 00
        E 420 96 0c 64
        E 60 86 0c 00
        E 420 96 0d 64
        E 60 86 0d 00
        E 420 96 0d 64
        E 60 86 0d 00
        E 420 96 0d 64
        E 60 86 0d 00
        E 420 96 0c 64
        E 60 86 0c 00
        E 420 96 0d 64
        E 60 86 0d 00
        E 420 96 0d 64
        E 60 86 0d 00
        E 420 96 0d 64
        E 60 86 0d 00
        E 420 96 0c 64
        E 60 86 0c 00
        E 420 96 0d 64
        E 60 86 0d 00
        E 420 96 0d 64
        E 60 86 0d 00
        E 420 96 0d 64
        E 60 86 0d 00
        E 420 96 0c 64
        E 60 86 0c 00
        E 420 96 0d 64
        E 60 86 0d 00
        E 420 96 0d 64
        E 60 86 0d 00
        E 420 96 0d 64
        E 60 86 0d 00
        E 420 96 0c 64
        E 60 86 0c 00
        E 420 96 0d 64
        E 60 86 0d 00
        E 420 96 0d 64
        E 60 86 0d 00
        E 420 96 0d 64
        E 60 86 0d 00
        E 420 96 0c 64
        E 60 86 0c 00
        E 420 96 0d 64
        E 60 86 0d 00
        E 420 96 0d 64
        E 60 86 0d 00
        E 420 96 0d 64
        E 60 86 0d 00
        E 420 96 0c 64
        E 60 86 0c 00
        E 420 96 0d 64
        E 60 86 0d 00
        E 420 96 0d 64
        E 60 86 0d 00
        E 420 96 0d 64
        E 60 86 0d 00
        E 420 96 0c 64
        E 60 86 0c 00
        E 420 96 0d 64
        E 60 86 0d 00
        E 420 96 0d 64
        E 60 86 0d 00
        E 420 96 0d 64
        E 60 86 0d 00
        E 420 96 0c 64
        E 60 86 0c 00
        E 420 96 0d 64
        E 60 86 0d 00
        E 420 96 0d 64
        E 60 86 0d 00
        E 420 96 0d 64
        E 60 86 0d 00
        E 420 96 0c 64
        E 60 86 0c 00
        E 420 96 0d 64
        E 60 86 0d 00
        E 420 96 0d 64
        E 60 86 0d 00
        E 420 96 0d 64
        E 60 86 0d 00
        E 420 96 0c 64
        E 60 86 0c 00
        E 420 96 0d 64
        E 60 86 0d 00
        E 420 96 0d 64
        E 60 86 0d 00
        E 420 96 0d 64
        E 60 86 0d 00
        E 420 96 0c 64
        E 60 86 0c 00
        E 420 96 0d 64
        E 60 86 0d 00
        E 420 96 0d 64
        E 60 86 0d 00
        E 420 96 0d 64
        E 60 86 0d 00
        E 420 96 0c 64
        E 60 86 0c 00
        E 420 96 0d 64
        E 60 86 0d 00
        E 420 96 0d 64
        E 60 86 0d 00
        E 420 96 0d 64
        E 60 86 0d 00
        E 420 96 0c 64
        E 60 86 0c 00
        E 420 96 0d 64
        E 60 86 0d 00
        E 420 96 0d 64
        E 60 86 0d 00
        E 420 96 0d 64
        E 60 86 0d 00
        E 420 96 0c 64
        E 60 86 0c 00
        E 420 96 0d 64
        E 60 86 0d 00
        E 420 96 0d 64
        E 60 86 0d 00
        E 420 96 0d 64
        E 60 86 0d 00
        E 420 96 0c 64
        E 60 86 0c 00
        E 420 96 0d 64
        E 60 86 0d 00
        E 420 96 0d 64
        E 60 86 0d 00
        E 420 96 0d 64
        E 60 86 0d 00
        E 420 b0 7b 00
        GUID {23F4962B-E7B8-43A6-ADFF-635435946B0C}
        IGNTEMPO 0 120.00000000 4 4
        SRCCOLOR 100
        VELLANE 132 128 60
        COLORMAP "C:\Program Files\REAPER (x64)\Data\color_maps\rockband_guitarbass.png"
        CFGEDITVIEW -3993.874586 9.399277 0 48 0 0 0
        CFGEDIT 1 1 0 1 1 0 1 1 1 1 1 0.25000000 -8 -8 1544 872 0 2 1 1 0.00000000 0 1 1 0 0.500000 0 0 1.000000 64
        KEYSNAP 0 6 "102030050700" 0 "Pentatonic"
        EVTFILTER 0 -1 -1 -1 -1 0 1 0 0 -1.00000000 -1.00000000
      >
    >
  >
  <TRACK '{44DA2926-790C-4762-B37F-AEF6C001F985}'
    NAME "VENUE"
    PEAKCOL 16576
    BEAT -1
    AUTOMODE 0
    VOLPAN 1.00000000000000 0.00000000000000 -1.00000000000000 -1.00000000000000 1.00000000000000
    MUTESOLO 0 0 0
    IPHASE 0
    ISBUS 1 1
    BUSCOMP 1 0
    SHOWINMIX 1 0.666700 0.500000 1 0.500000 -1 -1 -1
    FREEMODE 0
    SEL 0
    REC 0 0 0 0 0 0 0
    VU 2
    TRACKHEIGHT 0 0
    INQ 0 0 0 0.5000000000 100 0 0 100
    NCHAN 2
    FX 1
    TRACKID {44DA2926-790C-4762-B37F-AEF6C001F985}
    PERF 0
    MIDIOUT -1
    <MIDINOTENAMES
      0 87 "Guitarist Sing Along"
      0 86 "Drummer Sing Along"
      0 85 "Bassist Sing Along"
      0 84 "----"
      0 41 "Spotlight on Keys"
      0 40 "Spotlight on Vocals"
      0 39 "Spotlight on Guitar"
      0 38 "Spotlight on Drums"
      0 37 "Spotlight on Bass"
    >
    MAINSEND 1 0
    <FXCHAIN
      SHOW 0
      LASTSEL 0
      DOCKED 0
    >
    <ITEM
      POSITION 0.00000000000000
      SNAPOFFS 0.00000000000000
      LENGTH 119.47700000000000
      LOOP 0
      ALLTAKES 0
      SEL 0
      FADEIN 1 0.000000 0.000000 1 0
      FADEOUT 1 0.000000 0.000000 1 0
      MUTE 0
      IGUID {7337D494-3014-44F5-9E90-80FA3CD6A190}
      IID 15
      NAME "VENUE"
      VOLPAN 1.000000 0.000000 1.000000 -1.000000
      SOFFS 0.00000000000000 0.00000000000000
      PLAYRATE 1.00000000000000 1 0.00000000000000 -1
      CHANMODE 0
      GUID {4D1D1A4C-8741-4875-92BF-2B43AB3630F3}
      <SOURCE MIDI
        HASDATA 1 480 QN
        POOLEDEVTS {0A6AEDC6-D2EA-4433-8A38-FAA25B901674}
        <X 0 0
          /wNWRU5VRQ==
        >
        <X 0 0
          /wFbY29vcF9hbGxfZmFyXQ==
        >
        <X 1920 0
          /wFbY29vcF9kX2JlaGluZF0=
        >
        <X 1920 0
          /wFbY29vcF9rX25lYXJd
        >
        <X 0 0
          /wFbY29vcF9nX25lYXJd
        >
        <X 1920 0
          /wFbY29vcF9iX25lYXJd
        >
        <X 1920 0
          /wFbY29vcF9hbGxfbmVhcl0=
        >
        <X 1920 0
          /wFbY29vcF9hbGxfZmFyXQ==
        >
        <X 1920 0
          /wFbY29vcF9hbGxfZmFyXQ==
        >
        <X 1920 0
          /wFbY29vcF9hbGxfZmFyXQ==
        >
        <X 1920 0
          /wFbY29vcF9hbGxfZmFyXQ==
        >
        <X 1920 0
          /wFbY29vcF9rX2Nsb3NldXBfaGFuZF0=
        >
        <X 0 0
          /wFbY29vcF9nX2Nsb3NldXBfaGFuZF0=
        >
        <X 1920 0
          /wFbY29vcF9kdl9uZWFyXQ==
        >
        <X 1920 0
          /wFbY29vcF9iX2Nsb3NldXBfaGFuZF0=
        >
        <X 1920 0
          /wFbY29vcF9iX2JlaGluZF0=
        >
        <X 1920 0
          /wFbY29vcF9kX25lYXJd
        >
        <X 1920 0
          /wFbY29vcF9kX25lYXJd
        >
        <X 1920 0
          /wFbY29vcF9rX2Nsb3NldXBfaGFuZF0=
        >
        <X 0 0
          /wFbY29vcF9nX2Nsb3NldXBfaGFuZF0=
        >
        <X 1920 0
          /wFbY29vcF9iX25lYXJd
        >
        <X 480 0
          /wFbY29vcF9rX25lYXJd
        >
        <X 0 0
          /wFbY29vcF9nX25lYXJd
        >
        <X 480 0
          /wFbY29vcF9kX2JlaGluZF0=
        >
        <X 960 0
          /wFbY29vcF9hbGxfYmVoaW5kXQ==
        >
        <X 1920 0
          /wFbY29vcF9hbGxfZmFyXQ==
        >
        <X 1920 0
          /wFbY29vcF9rX2JlaGluZF0=
        >
        <X 0 0
          /wFbY29vcF9nX2JlaGluZF0=
        >
        <X 1920 0
          /wFbY29vcF9mcm9udF9uZWFyXQ==
        >
        <X 1920 0
          /wFbY29vcF9iZ19uZWFyXQ==
        >
        <X 1920 0
          /wFbY29vcF9kX2Nsb3NldXBfaGFuZF0=
        >
        <X 1920 0
          /wFbY29vcF9rX2Nsb3NldXBfaGFuZF0=
        >
        <X 0 0
          /wFbY29vcF9iX25lYXJd
        >
        <X 1920 0
          /wFbY29vcF9hbGxfbmVhcl0=
        >
        <X 480 0
          /wFbY29vcF9hbGxfZmFyXQ==
        >
        <X 480 0
          /wFbY29vcF9hbGxfYmVoaW5kXQ==
        >
        <X 960 0
          /wFbY29vcF9iX25lYXJd
        >
        <X 960 0
          /wFbY29vcF9kX2Nsb3NldXBfaGFuZF0=
        >
        <X 960 0
          /wFbY29vcF9rX25lYXJd
        >
        <X 0 0
          /wFbY29vcF9nX25lYXJd
        >
        <X 960 0
          /wFbY29vcF9iX25lYXJd
        >
        <X 960 0
          /wFbY29vcF9iX2JlaGluZF0=
        >
        <X 960 0
          /wFbY29vcF9nX25lYXJd
        >
        <X 960 0
          /wFbY29vcF9kX2JlaGluZF0=
        >
        <X 1919 0
          /wFbY29vcF9hbGxfZmFyXQ==
        >
        E 5760 b0 7b 00
        GUID {EF8DBADF-CEFE-41D5-BFD4-8F299F1D27F5}
        IGNTEMPO 0 120.00000000 4 4
        SRCCOLOR 101
        VELLANE 132 128 60
        COLORMAP "C:\Program Files\REAPER (x64)\Data\color_maps\rockband_guitarbass.png"
        CFGEDITVIEW -3993.874586 9.399277 0 48 0 0 0
        CFGEDIT 1 1 0 1 1 0 1 1 1 1 1 0.25000000 -8 -8 1544 872 0 2 1 1 0.00000000 0 1 1 0 0.500000 0 0 1.000000 64
        KEYSNAP 0 6 "102030050700" 0 "Pentatonic"
        EVTFILTER 0 -1 -1 -1 -1 0 1 0 0 -1.00000000 -1.00000000
      >
    >
  >
  <TRACK '{9089E3B5-686A-4425-82FA-F6203ACA896B}'
    NAME "CAMERA"
    PEAKCOL 16576
    BEAT -1
    AUTOMODE 0
    VOLPAN 1.00000000000000 0.00000000000000 -1.00000000000000 -1.00000000000000 1.00000000000000
    MUTESOLO 1 0 0
    IPHASE 0
    ISBUS 0 0
    BUSCOMP 0 0
    SHOWINMIX 1 0.666700 0.500000 1 0.500000 -1 -1 -1
    FREEMODE 0
    SEL 0
    REC 0 0 0 0 0 0 0
    VU 2
    TRACKHEIGHT 0 1
    INQ 0 0 0 0.5000000000 100 0 0 100
    NCHAN 2
    FX 1
    TRACKID {9089E3B5-686A-4425-82FA-F6203ACA896B}
    PERF 0
    MIDIOUT -1
    <MIDINOTENAMES
      0 102 "RANDOM"
      0 100 "All_Behind"
      0 99 "All_Far"
      0 98 "All_Near"
      0 96 "Front_Behind"
      0 95 "Front_Near"
      0 93 "D_Behind"
      0 92 "D_Near"
      0 91 "V_Behind"
      0 90 "V_Near"
      0 89 "B_Behind"
      0 88 "B_Near"
      0 87 "G_Behind"
      0 86 "G_Near"
      0 85 "K_Behind"
      0 84 "K_Near"
      0 82 "D_Hand"
      0 81 "D_Head"
      0 80 "V_Closeup"
      0 79 "B_Hand"
      0 78 "B_Head"
      0 77 "G_Hand"
      0 76 "G_Head"
      0 75 "K_Hand"
      0 74 "K_Head"
      0 72 "DV_Near"
      0 71 "BD_Near"
      0 70 "DG_Near"
      0 69 "BV_Behind"
      0 68 "BV_Near"
      0 67 "GV_Behind"
      0 66 "GV_Near"
      0 65 "KV_Behind"
      0 64 "KV_Near"
      0 63 "BG_Behind"
      0 62 "BG_Near"
      0 61 "BK_Behind"
      0 60 "BK_Near"
      0 59 "GK_Behind"
      0 58 "GK_Near"
      0 56 "D_All"
      0 55 "D_All_Cam"
      0 54 "D_All_LT*"
      0 53 "D_All_Yeah"
      0 52 "D_BRE"
      0 51 "D_BRE_Jump"
      0 49 "D_Drums_NP"
      0 48 "D_Bass_NP"
      0 47 "D_Gtr_NP"
      0 46 "D_Vox_NP"
      0 45 "D_Keys_NP"
      0 43 "D_Drums"
      0 42 "D_Drums_LT*"
      0 41 "D_Vocals"
      0 40 "D_Bass"
      0 39 "D_Gtr"
      0 38 "D_Keys"
      0 36 "D_Vox_Cam_PR"
      0 35 "D_Vox_Cam_PT"
      0 34 "D_Gtr_Cam_PR"
      0 33 "D_Gtr_Cam_PT"
      0 32 "D_Keys_Cam"
      0 31 "D_Bass_Cam"
      0 29 "D_Stagedive"
      0 28 "D_Crowdsurf"
      0 26 "D_Vox_CLS"
      0 25 "D_Bass_CLS*"
      0 24 "D_Gtr_CLS*"
      0 23 "D_Drums_KD*"
      0 21 "D_Drums_Point"
      0 20 "D_Crowd_Gtr"
      0 19 "D_Crowd_Bass"
      0 17 "D_Duo_Drums"
      0 16 "D_Duo_Gtr"
      0 15 "D_Duo_Bass"
      0 14 "D_Duo_KV"
      0 13 "D_Duo_GB"
      0 12 "D_Duo_KB"
      0 11 "D_Duo_KG"
      0 10 "D_Crowd*"
    >
    MAINSEND 1 0
    <FXCHAIN
      SHOW 0
      LASTSEL 0
      DOCKED 0
    >
    <ITEM
      POSITION 0.00000000000000
      SNAPOFFS 0.00000000000000
      LENGTH 119.47724800000000
      LOOP 0
      ALLTAKES 0
      SEL 0
      FADEIN 1 0.000000 0.000000 1 0
      FADEOUT 1 0.000000 0.000000 1 0
      MUTE 0
      IGUID {56C50A58-17E1-486C-B536-E20997B37877}
      IID 21
      NAME "CAMERA"
      VOLPAN 1.000000 0.000000 1.000000 -1.000000
      SOFFS 0.00000000000000 0.00000000000000
      PLAYRATE 1.00000000000000 1 0.00000000000000 -1
      CHANMODE 0
      GUID {12DF2D0F-6CF9-40F0-B581-808709192D5E}
      <SOURCE MIDI
        HASDATA 1 480 QN
        POOLEDEVTS {F7E8F7AB-99B5-46E1-9065-26A518590A15}
        E 61440 b0 7b 00
        GUID {2C9A1CC7-D666-4039-8AF1-6680C7191D33}
        IGNTEMPO 0 120.00000000 4 4
        SRCCOLOR 102
        VELLANE 132 128 60
        COLORMAP "C:\Program Files\REAPER (x64)\Data\color_maps\rockband_guitarbass.png"
        CFGEDITVIEW -3993.874586 9.399277 31 12 0 0 0
        CFGEDIT 1 1 0 1 1 0 1 1 1 1 1 0.25000000 -8 -8 1544 872 0 2 1 1 0.00000000 0 1 1 0 0.500000 0 0 1.000000 64
        KEYSNAP 0 6 "102030050700" 0 "Pentatonic"
        EVTFILTER 0 -1 -1 -1 -1 0 1 0 0 -1.00000000 -1.00000000
      >
    >
  >
  <TRACK '{F938D556-3BBF-41FA-A14C-7116869BA868}'
    NAME "LIGHTING"
    PEAKCOL 16576
    BEAT -1
    AUTOMODE 0
    VOLPAN 1.00000000000000 0.00000000000000 -1.00000000000000 -1.00000000000000 1.00000000000000
    MUTESOLO 1 0 0
    IPHASE 0
    ISBUS 2 -1
    BUSCOMP 0 0
    SHOWINMIX 1 0.666700 0.500000 1 0.500000 -1 -1 -1
    FREEMODE 0
    SEL 1
    REC 0 0 0 0 0 0 0
    VU 2
    TRACKHEIGHT 0 1
    INQ 0 0 0 0.5000000000 100 0 0 100
    NCHAN 2
    FX 1
    TRACKID {F938D556-3BBF-41FA-A14C-7116869BA868}
    PERF 0
    MIDIOUT -1
    <MIDINOTENAMES
      0 71 "Default"
      0 70 "Color_Muted"
      0 69 "Video_Grainy"
      0 68 "16mm Film"
      0 67 "Shitty_TV"
      0 66 "Bloom"
      0 65 "Sepia_Ink"
      0 64 "Silvertone"
      0 63 "Film_BW"
      0 62 "Video_BW"
      0 61 "Contrast BW"
      0 60 "Photocopy"
      0 59 "Blue_Filter"
      0 58 "Desat_Blue"
      0 57 "Video_Security"
      0 55 "Bright"
      0 54 "Posterize"
      0 53 "Clean_Trails"
      0 52 "Video_Trails"
      0 51 "Flicker_Trails"
      0 50 "Desat_Posterize"
      0 49 "Film_Contrast"
      0 48 "Film_Contrast_Blue"
      0 47 "Film_Contrast_Green"
      0 46 "Film_Contrast_Red"
      0 45 "Horror_Movie"
      0 44 "Photo_Negative"
      0 43 "Mirror"
      0 42 "Psych_Blue_Red"
      0 41 "Space_Woosh"
      0 39 "Verse"
      0 38 "Chorus"
      0 37 "Manual_Cool"
      0 36 "Manual_Warm"
      0 35 "Dischord"
      0 34 "Stomp"
      0 32 "first"
      0 31 "prev"
      0 30 "next"
      0 28 "Loop_Cool"
      0 27 "Loop_Warm"
      0 26 "Harmony"
      0 25 "Frenzy"
      0 24 "Silhouettes"
      0 23 "Silhouettes_Spot"
      0 22 "Searchlights"
      0 21 "Sweep"
      0 20 "Strobe_Slow"
      0 19 "Strobe_Fast"
      0 18 "Blackout_Slow"
      0 17 "Blackout_Fast"
      0 16 "Blackout_Spot"
      0 15 "Flare_Slow"
      0 14 "Flare_Fast"
      0 13 "BRE"
      0 11 "BONUSFX"
      0 10 "BONUSFX_Opt"
      0 8 "STROBE"
    >
    MAINSEND 1 0
    <FXCHAIN
      SHOW 0
      LASTSEL 0
      DOCKED 0
    >
    <ITEM
      POSITION 0.00000000000000
      SNAPOFFS 0.00000000000000
      LENGTH 119.47724800000000
      LOOP 0
      ALLTAKES 0
      SEL 1
      FADEIN 1 0.000000 0.000000 1 0
      FADEOUT 1 0.000000 0.000000 1 0
      MUTE 0
      IGUID {C5982117-4F19-4D9A-9695-9F92F0DBB546}
      IID 21
      NAME "LIGHTING"
      VOLPAN 1.000000 0.000000 1.000000 -1.000000
      SOFFS 0.00000000000000 0.00000000000000
      PLAYRATE 1.00000000000000 1 0.00000000000000 -1
      CHANMODE 0
      GUID {CC9AB756-B721-4449-A99C-CCF718D2DE6A}
      <SOURCE MIDI
        HASDATA 1 480 QN
        POOLEDEVTS {EFED0165-FF11-4E2A-B84E-0C9420961989}
        E 61440 b0 7b 00
        GUID {AAA4AAE9-3029-4900-AAA4-E0A198E382EE}
        IGNTEMPO 0 120.00000000 4 4
        SRCCOLOR 103
        VELLANE 132 128 60
        COLORMAP "C:\Program Files\REAPER (x64)\Data\color_maps\rockband_guitarbass.png"
        CFGEDITVIEW -3993.874586 9.399277 5 12 0 0 0
        CFGEDIT 1 1 0 1 1 0 1 1 1 1 1 0.25000000 -8 -8 1544 872 0 2 1 1 0.00000000 0 1 1 0 0.500000 0 0 1.000000 64
        KEYSNAP 0 6 "102030050700" 0 "Pentatonic"
        EVTFILTER 0 -1 -1 -1 -1 0 1 0 0 -1.00000000 -1.00000000
      >
    >
  >
  <TRACK '{9BF86D27-CB72-4149-A583-F0D65ACE216A}'
    NAME "backing"
    PEAKCOL 16576
    BEAT -1
    AUTOMODE 0
    VOLPAN 1.00000000000000 0.00000000000000 -1.00000000000000 -1.00000000000000 1.00000000000000
    MUTESOLO 0 0 0
    IPHASE 0
    ISBUS 0 0
    BUSCOMP 0 0
    SHOWINMIX 1 0.666700 0.500000 1 0.500000 -1 -1 -1
    FREEMODE 0
    SEL 0
    REC 0 0 0 0 0 0 0
    VU 2
    TRACKHEIGHT 0 0
    INQ 0 0 0 0.5000000000 100 0 0 100
    NCHAN 2
    FX 1
    TRACKID {9BF86D27-CB72-4149-A583-F0D65ACE216A}
    PERF 0
    MIDIOUT -1
    MAINSEND 1 0
    <ITEM
      POSITION 0.00000000000000
      SNAPOFFS 0.00000000000000
      LENGTH 119.47727891156462
      LOOP 0
      ALLTAKES 0
      SEL 0
      FADEIN 1 0.000000 0.000000 1 0
      FADEOUT 1 0.000000 0.000000 1 0
      MUTE 0
      IGUID {B74BA8F6-5B46-4C69-A322-19C75A6A0C80}
      IID 18
      NAME "backing.wav"
      VOLPAN 1.000000 0.000000 1.000000 -1.000000
      SOFFS 0.00000000000000
      PLAYRATE 1.00000000000000 1 0.00000000000000 -1
      CHANMODE 0
      GUID {079527E3-3DDF-4179-A38C-37EDD9248538}
      <SOURCE WAVE
        FILE "C:\Users\Ruggery\Documents\Visual Studio Code\Projects\ruggy-customs-projects\songs\motherearth\wav\backing.wav"
      >
    >
  >
  <EXTENSIONS
  >
>
