<REAPER_PROJECT 0.1 "4.22/x64"
  RIPPLE 0
  GROUPOVERRIDE 0 0 0
  AUTOXFADE 1
  ENVATTACH 1
  MIXERUIFLAGS 11 48
  PEAKGAIN 1.00000000000000
  FEEDBACK 0
  PANLAW 1.00000000000000
  PROJOFFS 0.00000000000000 0
  MAXPROJLEN 0 600.00000000000000
  GRID 3199 8 1.00000000000000 8 1.00000000000000 0
  TIMEMODE 1 0 -1
  PANMODE 3
  CURSOR 0.00000000000000
  ZOOM 12.48682905772092 0 0
  VZOOMEX 5
  USE_REC_CFG 0
  RECMODE 1
  SMPTESYNC 0 23.976024 100 40 1000 300 0 0.000000 1
  LOOP 0
  LOOPGRAN 0 4.00000000000000
  RECORD_PATH "" ""
  <RECORD_CFG
    ZXZhdxAD
  >
  <APPLYFX_CFG
  >
  RENDER_FILE "C:\Users\Ruggery\Desktop\HD\Customs\Songs\18. Over The Garden Wall - The Fight Is Over\thefightisover.wav"
  RENDER_FMT 0 2 44100
  RENDER_1X 0
  RENDER_RANGE 2 0.00000000000000 0.00000000000000
  RENDER_RESAMPLE 3 0 1
  RENDER_ADDTOPROJ 0
  RENDER_STEMS 0
  RENDER_DITHER 0
  TIMELOCKMODE 0
  ITEMMIX 0
  DEFPITCHMODE 393216
  TAKELANE 1
  SAMPLERATE 44100 0 0
  <RENDER_CFG
    ZXZhdxAD
  >
  LOCK 1
  <METRONOME 6 2.000000
    VOL 0.250000 0.125000
    FREQ 800 1600 1
    BEATLEN 4
    SAMPLES "" ""
  >
  GLOBAL_AUTO -1
  TEMPO 120.00000000000000 4 4
  PLAYRATE 1.00000000000000 0 0.25000 4.00000
  SELECTION 0.00000000000000 87.58319334564294
  SELECTION2 0.00000000000000 87.58319334564294
  MASTERAUTOMODE 0
  MASTERTRACKHEIGHT 0
  MASTERPEAKCOL 16576
  MASTERMUTESOLO 0
  MASTERTRACKVIEW 1 0.666700 0.500000 0.500000 -1 -1 -1
  MASTERHWOUT 0 0 1.00000000000000 0.00000000000000 0 0 0 -1.00000000000000
  MASTER_NCH 2 2
  MASTER_VOLUME 1.00000000000000 0.00000000000000 -1.00000000000000 -1.00000000000000 1.00000000000000
  MASTER_PANMODE -1
  MASTER_FX 1
  MASTER_SEL 0
  <MASTERPLAYSPEEDENV
    ACT 0
    VIS 0 1 1.000000
    LANEHEIGHT 0 0
    ARM 0
    DEFSHAPE 0 -1 -1
  >
  <TEMPOENVEX
    ACT 1
    VIS 1 0 1.000000
    LANEHEIGHT 0 0
    ARM 0
    DEFSHAPE 1 -1 -1
    PT 0.000000000000 110.0000000000 1 262148
    PT 6.545454545455 108.3294117760 1
    PT 7.653186952058 118.4941176400 1
    PT 8.665895450867 108.3294117760 1
    PT 9.773627857469 115.1058823600 1
    PT 10.816146254633 112.8470588235 1
    PT 11.879532409763 111.1529411765 1
    PT 15.118313104089 120.7529411765 1
    PT 15.615195411182 114.5411764706 1
    PT 16.662853587024 111.1529411765 1
    PT 18.822040716576 111.7176470588 1
    PT 19.359108955834 112.2823529412 1
    PT 20.427843239154 115.1058823529 1
    PT 21.991620835229 121.3176470588 1
    PT 22.486190268898 106.0705882353 1
    PT 23.051851315926 111.1529411765 1
    PT 25.750835227865 113.4117647059 1
    PT 27.867017800479 109.4588235294 1
    PT 30.607774464279 115.1058823529 1
    PT 31.650292861663 112.8470588235 1
    PT 32.181985939228 114.5411764706 1
    PT 33.229644115070 110.5882352941 1
    PT 34.314750498049 111.7176470588 1
    PT 36.463023455083 112.8470588235 1
    PT 36.994716532648 112.2823529412 1
    PT 38.597817957627 106.6352941176 1
    PT 39.160483447477 117.3647058824 1
    PT 40.694164281478 109.4588235294 1
    PT 41.790466946999 116.8000000000 1
    PT 42.304165577136 111.1529411765 1
    PT 45.003149489075 112.2823529412 1
    PT 55.690492322268 113.4117647059 1
    PT 56.748583608575 111.1529411765 1
    PT 57.828177173351 111.7176470588 1
    PT 59.976450130385 112.2823529412 1
    PT 62.113918697024 112.8470588235 1
    PT 64.240691007283 114.5411764706 1
    PT 66.336007358967 112.2823529412 1
    PT 72.748413058883 111.1529411765 1
    PT 73.828006623659 113.4117647059 1 0 1
  >
  <PROJBAY
  >
  <TRACK '{8E144AE1-8B2E-4B42-B33B-80720DEDB3F3}'
    NAME "PART DRUMS"
    PEAKCOL 16576
    BEAT -1
    AUTOMODE 0
    VOLPAN 1.00000000000000 0.00000000000000 -1.00000000000000 -1.00000000000000 1.00000000000000
    MUTESOLO 0 0 0
    IPHASE 0
    ISBUS 0 0
    BUSCOMP 0 0
    SHOWINMIX 1 0.666700 0.500000 1 0.500000 -1 -1 -1
    FREEMODE 0
    SEL 0
    REC 0 0 0 0 0 0 0
    VU 2
    TRACKHEIGHT 0 0
    INQ 0 0 0 0.5000000000 100 0 0 100
    NCHAN 2
    FX 1
    TRACKID {8E144AE1-8B2E-4B42-B33B-80720DEDB3F3}
    PERF 0
    MIDIOUT -1
    <MIDINOTENAMES
      0 127 "Cymbal Swells"
      0 126 "Drum Roll"
      0 125 "---"
      0 124 "DRUM FILL"
      0 123 "DRUM FILL"
      0 122 "DRUM FILL"
      0 121 "DRUM FILL"
      0 120 "DRUM FILL (use all 5)"
      0 118 "----"
      0 116 "OVERDRIVE"
      0 114 "----"
      0 112 "TOM GEMS PAD 4"
      0 111 "TOM GEMS PAD 3"
      0 110 "TOM GEMS PAD 2"
      0 103 "Solo Marker"
      0 102 "----"
      0 100 "EXPERT Green"
      0 99 "EXPERT Blue"
      0 98 "EXPERT Yellow"
      0 97 "EXPERT Red"
      0 96 "EXPERT Kick"
      0 92 "----"
      0 88 "HARD Green"
      0 87 "HARD Blue"
      0 86 "HARD Yellow"
      0 85 "HARD Red"
      0 84 "HARD Kick"
      0 80 "----"
      0 76 "MEDIUM Green"
      0 75 "MEDIUM Blue"
      0 74 "MEDIUM Yellow"
      0 73 "MEDIUM Red"
      0 72 "MEDIUM Kick"
      0 68 "----"
      0 64 "EASY Green"
      0 63 "EASY Blue"
      0 62 "EASY Yellow"
      0 61 "EASY Red"
      0 60 "EASY Kick"
      0 56 "----"
      0 52 "-- DRUM ANIMATION --"
      0 51 "FLOOR TOM RH"
      0 50 "FLOOR TOM LH"
      0 49 "TOM2 RH"
      0 48 "TOM2 LH"
      0 47 "TOM1 RH"
      0 46 "TOM1 LH"
      0 45 "SOFT CRASH 2 LH"
      0 44 "CRASH 2 LH"
      0 43 "RIDE LH"
      0 42 "RIDE CYM RH"
      0 41 "CRASH2 CHOKE"
      0 40 "CRASH1 CHOKE"
      0 39 "CRASH2 SOFT RH"
      0 38 "CRASH2 HARD RH"
      0 37 "CRASH1 SOFT RH"
      0 36 "CRASH1 HARD RH"
      0 35 "CRASH1 SOFT LH"
      0 34 "CRASH1 HARD LH"
      0 32 "PERCUSSION RH"
      0 31 "HI-HAT RH"
      0 30 "HI-HAT LH"
      0 29 "SOFT SNARE RH"
      0 28 "SOFT SNARE LH"
      0 27 "SNARE RH"
      0 26 "SNARE LH"
      0 25 "HI-HAT OPEN"
      0 24 "KICK RF"
    >
    MAINSEND 1 0
    <FXCHAIN
      WNDRECT 0 42 878 554
      SHOW 0
      LASTSEL 0
      DOCKED 0
      BYPASS 0 0
      <VST "VSTi: RBN Preview (RBN)" "rbprev_vst64.dll" 0 ""
        dnBicu5e7f4AAAAAAgAAAAEAAAAAAAAAAgAAAAAAAAAEAAAAAQAAAA==
        AAAQAAMBqgAAABAAAAA=
      >
      FLOATPOS 0 0 0 0
      FXID {800EE5B6-2F40-41CF-91A4-78586FBD94D4}
      WAK 0
    >
    <ITEM
      POSITION 0.00000000000000
      SNAPOFFS 0.00000000000000
      LENGTH 87.58319334564294
      LOOP 0
      ALLTAKES 0
      SEL 0
      FADEIN 1 0.000000 0.000000 1 0
      FADEOUT 1 0.000000 0.000000 1 0
      MUTE 0
      IGUID {6250C6E0-EA0A-4888-8743-51C6712E3D56}
      IID 11
      NAME "PART DRUMS"
      VOLPAN 1.000000 0.000000 1.000000 -1.000000
      SOFFS 0.00000000000000 0.00000000000000
      PLAYRATE 1.00000000000000 1 0.00000000000000 -1
      CHANMODE 0
      GUID {FF43EFC0-483A-4A06-AD4F-FA4337EDD4C1}
      <SOURCE MIDI
        HASDATA 1 480 QN
        POOLEDEVTS {E5A1DC60-D25B-44FF-9A26-B8117EA68BF4}
        <X 0 0
          /wNQQVJUIERSVU1T
        >
        <X 120 0
          /wFbbWl4IDAgZHJ1bXMwXQ==
        >
        <X 120 0
          /wFbbWl4IDEgZHJ1bXMwXQ==
        >
        <X 120 0
          /wFbbWl4IDIgZHJ1bXMwXQ==
        >
        <X 120 0
          /wFbbWl4IDMgZHJ1bXMwXQ==
        >
        <X 5280 0
          /wFbaWRsZV0=
        >
        <X 28800 0
          /wFbcGxheV0=
        >
        E 0 90 1a 60
        E 0 90 3d 60
        E 0 90 49 60
        E 0 90 55 60
        E 0 90 61 60
        E 120 80 1a 00
        E 0 80 3d 00
        E 0 80 49 00
        E 0 80 55 00
        E 0 80 61 00
        E 120 90 1a 60
        E 0 90 55 60
        E 0 90 61 60
        E 120 80 1a 00
        E 0 80 55 00
        E 0 80 61 00
        E 120 90 2f 60
        E 0 90 3e 60
        E 0 90 4a 60
        E 0 90 56 60
        E 0 90 62 60
        E 0 90 6e 60
        E 120 80 2f 00
        E 0 80 3e 00
        E 0 80 4a 00
        E 0 80 56 00
        E 0 80 62 00
        E 0 80 6e 00
        E 120 90 2f 60
        E 0 90 56 60
        E 0 90 62 60
        E 0 90 6e 60
        E 120 80 2f 00
        E 0 80 56 00
        E 0 80 62 00
        E 0 80 6e 00
        E 360 90 1a 60
        E 0 90 55 60
        E 0 90 61 60
        E 120 80 1a 00
        E 0 80 55 00
        E 0 80 61 00
        E 120 90 31 60
        E 0 90 3f 60
        E 0 90 4b 60
        E 0 90 57 60
        E 0 90 63 60
        E 0 90 6f 60
        E 120 80 31 00
        E 0 80 3f 00
        E 0 80 4b 00
        E 0 80 57 00
        E 0 80 63 00
        E 0 80 6f 00
        E 360 90 18 60
        E 0 90 24 60
        E 0 90 40 60
        E 0 90 48 60
        E 0 90 4c 60
        E 0 90 54 60
        E 0 90 58 60
        E 0 90 60 60
        E 0 90 64 60
        E 120 80 18 00
        E 0 80 24 00
        E 0 80 40 00
        E 0 80 48 00
        E 0 80 4c 00
        E 0 80 54 00
        E 0 80 58 00
        E 0 80 60 00
        E 0 80 64 00
        E 360 90 19 60
        E 0 90 1f 60
        E 0 90 3e 60
        E 0 90 4a 60
        E 0 90 56 60
        E 0 90 62 60
        E 120 80 1f 00
        E 0 80 3e 00
        E 0 80 4a 00
        E 0 80 56 00
        E 0 80 62 00
        E 360 90 1a 60
        E 0 90 1f 60
        E 0 90 3d 60
        E 0 90 3e 60
        E 0 90 49 60
        E 0 90 4a 60
        E 0 90 55 60
        E 0 90 56 60
        E 0 90 61 60
        E 0 90 62 60
        E 120 80 1a 00
        E 0 80 1f 00
        E 0 80 3d 00
        E 0 80 3e 00
        E 0 80 49 00
        E 0 80 4a 00
        E 0 80 55 00
        E 0 80 56 00
        E 0 80 61 00
        E 0 80 62 00
        E 360 90 1f 60
        E 0 90 3e 60
        E 0 90 4a 60
        E 0 90 56 60
        E 0 90 62 60
        E 120 80 1f 00
        E 0 80 3e 00
        E 0 80 4a 00
        E 0 80 56 00
        E 0 80 62 00
        E 120 90 18 60
        E 0 90 54 60
        E 0 90 60 60
        E 120 80 18 00
        E 0 80 54 00
        E 0 80 60 00
        E 120 90 18 60
        E 0 90 1f 60
        E 0 90 3e 60
        E 0 90 48 60
        E 0 90 4a 60
        E 0 90 54 60
        E 0 90 56 60
        E 0 90 60 60
        E 0 90 62 60
        E 120 80 18 00
        E 0 80 1f 00
        E 0 80 3e 00
        E 0 80 48 00
        E 0 80 4a 00
        E 0 80 54 00
        E 0 80 56 00
        E 0 80 60 00
        E 0 80 62 00
        E 360 90 1f 60
        E 0 90 3e 60
        E 0 90 4a 60
        E 0 90 56 60
        E 0 90 62 60
        E 120 80 1f 00
        E 0 80 3e 00
        E 0 80 4a 00
        E 0 80 56 00
        E 0 80 62 00
        E 360 90 1a 60
        E 0 90 1f 60
        E 0 90 3d 60
        E 0 90 3e 60
        E 0 90 49 60
        E 0 90 4a 60
        E 0 90 55 60
        E 0 90 56 60
        E 0 90 61 60
        E 0 90 62 60
        E 120 80 1a 00
        E 0 80 1f 00
        E 0 80 3d 00
        E 0 80 3e 00
        E 0 80 49 00
        E 0 80 4a 00
        E 0 80 55 00
        E 0 80 56 00
        E 0 80 61 00
        E 0 80 62 00
        E 360 90 1f 60
        E 0 90 3e 60
        E 0 90 4a 60
        E 0 90 56 60
        E 0 90 62 60
        E 120 80 1f 00
        E 0 80 3e 00
        E 0 80 4a 00
        E 0 80 56 00
        E 0 80 62 00
        E 120 90 18 60
        E 0 90 54 60
        E 0 90 60 60
        E 120 80 18 00
        E 0 80 54 00
        E 0 80 60 00
        E 120 90 18 60
        E 0 90 1f 60
        E 0 90 3e 60
        E 0 90 48 60
        E 0 90 4a 60
        E 0 90 54 60
        E 0 90 56 60
        E 0 90 60 60
        E 0 90 62 60
        E 0 90 74 60
        E 120 80 18 00
        E 0 80 1f 00
        E 0 80 3e 00
        E 0 80 48 00
        E 0 80 4a 00
        E 0 80 54 00
        E 0 80 56 00
        E 0 80 60 00
        E 0 80 62 00
        E 360 90 1f 60
        E 0 90 3e 60
        E 0 90 4a 60
        E 0 90 56 60
        E 0 90 62 60
        E 120 80 1f 00
        E 0 80 3e 00
        E 0 80 4a 00
        E 0 80 56 00
        E 0 80 62 00
        E 360 90 1a 60
        E 0 90 1f 60
        E 0 90 3d 60
        E 0 90 3e 60
        E 0 90 49 60
        E 0 90 4a 60
        E 0 90 55 60
        E 0 90 56 60
        E 0 90 61 60
        E 0 90 62 60
        E 120 80 1a 00
        E 0 80 1f 00
        E 0 80 3d 00
        E 0 80 3e 00
        E 0 80 49 00
        E 0 80 4a 00
        E 0 80 55 00
        E 0 80 56 00
        E 0 80 61 00
        E 0 80 62 00
        E 360 90 1f 60
        E 0 90 3e 60
        E 0 90 4a 60
        E 0 90 56 60
        E 0 90 62 60
        E 120 80 1f 00
        E 0 80 3e 00
        E 0 80 4a 00
        E 0 80 56 00
        E 0 80 62 00
        E 120 90 18 60
        E 0 90 54 60
        E 0 90 60 60
        E 120 80 18 00
        E 0 80 54 00
        E 0 80 60 00
        E 120 90 18 60
        E 0 90 1f 60
        E 0 90 3e 60
        E 0 90 48 60
        E 0 90 4a 60
        E 0 90 54 60
        E 0 90 56 60
        E 0 90 60 60
        E 0 90 62 60
        E 120 80 18 00
        E 0 80 1f 00
        E 0 80 3e 00
        E 0 80 48 00
        E 0 80 4a 00
        E 0 80 54 00
        E 0 80 56 00
        E 0 80 60 00
        E 0 80 62 00
        E 120 90 1a 60
        E 0 90 55 60
        E 0 90 61 60
        E 120 80 1a 00
        E 0 80 55 00
        E 0 80 61 00
        E 120 90 1f 60
        E 0 90 3e 60
        E 0 90 4a 60
        E 0 90 56 60
        E 0 90 62 60
        E 120 80 1f 00
        E 0 80 3e 00
        E 0 80 4a 00
        E 0 80 56 00
        E 0 80 62 00
        E 120 90 18 60
        E 0 90 54 60
        E 0 90 60 60
        E 120 80 18 00
        E 0 80 54 00
        E 0 80 60 00
        E 120 90 1a 60
        E 0 90 1f 60
        E 0 90 3d 60
        E 0 90 3e 60
        E 0 90 49 60
        E 0 90 4a 60
        E 0 90 55 60
        E 0 90 56 60
        E 0 90 61 60
        E 0 90 62 60
        E 120 80 1a 00
        E 0 80 1f 00
        E 0 80 3d 00
        E 0 80 3e 00
        E 0 80 49 00
        E 0 80 4a 00
        E 0 80 55 00
        E 0 80 56 00
        E 0 80 61 00
        E 0 80 62 00
        E 120 90 18 60
        E 0 90 54 60
        E 0 90 60 60
        E 120 80 18 00
        E 0 80 54 00
        E 0 80 60 00
        E 120 90 1f 60
        E 0 90 3e 60
        E 0 90 4a 60
        E 0 90 56 60
        E 0 90 62 60
        E 120 80 1f 00
        E 0 80 3e 00
        E 0 80 4a 00
        E 0 80 56 00
        E 0 80 62 00
        E 360 80 74 00
        E 0 90 18 60
        E 0 90 24 60
        E 0 90 40 60
        E 0 90 48 60
        E 0 90 4c 60
        E 0 90 54 60
        E 0 90 58 60
        E 0 90 60 60
        E 0 90 64 60
        E 120 80 18 00
        E 0 80 24 00
        E 0 80 40 00
        E 0 80 48 00
        E 0 80 4c 00
        E 0 80 54 00
        E 0 80 58 00
        E 0 80 60 00
        E 0 80 64 00
        E 360 90 1f 60
        E 0 90 3e 60
        E 0 90 4a 60
        E 0 90 56 60
        E 0 90 62 60
        E 120 80 1f 00
        E 0 80 3e 00
        E 0 80 4a 00
        E 0 80 56 00
        E 0 80 62 00
        E 360 90 1a 60
        E 0 90 1f 60
        E 0 90 3d 60
        E 0 90 3e 60
        E 0 90 49 60
        E 0 90 4a 60
        E 0 90 55 60
        E 0 90 56 60
        E 0 90 61 60
        E 0 90 62 60
        E 120 80 1a 00
        E 0 80 1f 00
        E 0 80 3d 00
        E 0 80 3e 00
        E 0 80 49 00
        E 0 80 4a 00
        E 0 80 55 00
        E 0 80 56 00
        E 0 80 61 00
        E 0 80 62 00
        E 360 90 1f 60
        E 0 90 3e 60
        E 0 90 4a 60
        E 0 90 56 60
        E 0 90 62 60
        E 120 80 1f 00
        E 0 80 3e 00
        E 0 80 4a 00
        E 0 80 56 00
        E 0 80 62 00
        E 120 90 18 60
        E 0 90 54 60
        E 0 90 60 60
        E 120 80 18 00
        E 0 80 54 00
        E 0 80 60 00
        E 120 90 18 60
        E 0 90 1f 60
        E 0 90 3e 60
        E 0 90 48 60
        E 0 90 4a 60
        E 0 90 54 60
        E 0 90 56 60
        E 0 90 60 60
        E 0 90 62 60
        E 120 80 18 00
        E 0 80 1f 00
        E 0 80 3e 00
        E 0 80 48 00
        E 0 80 4a 00
        E 0 80 54 00
        E 0 80 56 00
        E 0 80 60 00
        E 0 80 62 00
        E 360 90 1f 60
        E 0 90 3e 60
        E 0 90 4a 60
        E 0 90 56 60
        E 0 90 62 60
        E 120 80 1f 00
        E 0 80 3e 00
        E 0 80 4a 00
        E 0 80 56 00
        E 0 80 62 00
        E 120 90 18 60
        E 0 90 54 60
        E 0 90 60 60
        E 120 80 18 00
        E 0 80 54 00
        E 0 80 60 00
        E 120 90 1a 60
        E 0 90 1f 60
        E 0 90 3d 60
        E 0 90 3e 60
        E 0 90 49 60
        E 0 90 4a 60
        E 0 90 55 60
        E 0 90 56 60
        E 0 90 61 60
        E 0 90 62 60
        E 120 80 1a 00
        E 0 80 1f 00
        E 0 80 3d 00
        E 0 80 3e 00
        E 0 80 49 00
        E 0 80 4a 00
        E 0 80 55 00
        E 0 80 56 00
        E 0 80 61 00
        E 0 80 62 00
        E 360 90 1f 60
        E 0 90 3e 60
        E 0 90 4a 60
        E 0 90 56 60
        E 0 90 62 60
        E 120 80 1f 00
        E 0 80 3e 00
        E 0 80 4a 00
        E 0 80 56 00
        E 0 80 62 00
        E 120 90 18 60
        E 0 90 54 60
        E 0 90 60 60
        E 120 80 18 00
        E 0 80 54 00
        E 0 80 60 00
        E 120 90 18 60
        E 0 90 1f 60
        E 0 90 3e 60
        E 0 90 48 60
        E 0 90 4a 60
        E 0 90 54 60
        E 0 90 56 60
        E 0 90 60 60
        E 0 90 62 60
        E 120 80 18 00
        E 0 80 1f 00
        E 0 80 3e 00
        E 0 80 48 00
        E 0 80 4a 00
        E 0 80 54 00
        E 0 80 56 00
        E 0 80 60 00
        E 0 80 62 00
        E 360 90 1f 60
        E 0 90 3e 60
        E 0 90 4a 60
        E 0 90 56 60
        E 0 90 62 60
        E 120 80 1f 00
        E 0 80 3e 00
        E 0 80 4a 00
        E 0 80 56 00
        E 0 80 62 00
        E 120 90 18 60
        E 0 90 54 60
        E 0 90 60 60
        E 120 80 18 00
        E 0 80 54 00
        E 0 80 60 00
        E 120 90 1a 60
        E 0 90 1f 60
        E 0 90 3d 60
        E 0 90 3e 60
        E 0 90 49 60
        E 0 90 4a 60
        E 0 90 55 60
        E 0 90 56 60
        E 0 90 61 60
        E 0 90 62 60
        E 120 80 1a 00
        E 0 80 1f 00
        E 0 80 3d 00
        E 0 80 3e 00
        E 0 80 49 00
        E 0 80 4a 00
        E 0 80 55 00
        E 0 80 56 00
        E 0 80 61 00
        E 0 80 62 00
        E 120 90 1a 60
        E 0 90 55 60
        E 0 90 61 60
        E 120 80 1a 00
        E 0 80 55 00
        E 0 80 61 00
        E 120 90 1f 60
        E 0 90 3e 60
        E 0 90 4a 60
        E 0 90 56 60
        E 0 90 62 60
        E 120 80 1f 00
        E 0 80 3e 00
        E 0 80 4a 00
        E 0 80 56 00
        E 0 80 62 00
        E 120 90 18 60
        E 0 90 54 60
        E 0 90 60 60
        E 120 80 18 00
        E 0 80 54 00
        E 0 80 60 00
        E 120 90 18 60
        E 0 90 1f 60
        E 0 90 3e 60
        E 0 90 48 60
        E 0 90 4a 60
        E 0 90 54 60
        E 0 90 56 60
        E 0 90 60 60
        E 0 90 62 60
        E 0 90 78 60
        E 0 90 79 60
        E 0 90 7a 60
        E 0 90 7b 60
        E 0 90 7c 60
        E 120 80 18 00
        E 0 80 1f 00
        E 0 80 3e 00
        E 0 80 48 00
        E 0 80 4a 00
        E 0 80 54 00
        E 0 80 56 00
        E 0 80 60 00
        E 0 80 62 00
        E 120 90 1a 60
        E 0 90 55 60
        E 0 90 61 60
        E 120 80 1a 00
        E 0 80 55 00
        E 0 80 61 00
        E 120 90 1f 60
        E 0 90 3e 60
        E 0 90 4a 60
        E 0 90 56 60
        E 0 90 62 60
        E 120 80 1f 00
        E 0 80 3e 00
        E 0 80 4a 00
        E 0 80 56 00
        E 0 80 62 00
        E 120 90 1a 60
        E 0 90 55 60
        E 0 90 61 60
        E 120 80 1a 00
        E 0 80 55 00
        E 0 80 61 00
        E 120 90 18 60
        E 0 90 31 60
        E 0 90 3f 60
        E 0 90 4b 60
        E 0 90 54 60
        E 0 90 57 60
        E 0 90 60 60
        E 0 90 63 60
        E 0 90 6f 60
        E 120 80 18 00
        E 0 80 31 00
        E 0 80 3f 00
        E 0 80 4b 00
        E 0 80 54 00
        E 0 80 57 00
        E 0 80 60 00
        E 0 80 63 00
        E 0 80 6f 00
        E 120 90 1a 60
        E 0 90 55 60
        E 0 90 61 60
        E 120 80 1a 00
        E 0 80 55 00
        E 0 80 61 00
        E 120 90 1a 60
        E 0 90 3d 60
        E 0 90 49 60
        E 0 90 55 60
        E 0 90 61 60
        E 120 80 1a 00
        E 0 80 3d 00
        E 0 80 49 00
        E 0 80 55 00
        E 0 80 61 00
        E 120 90 1a 60
        E 0 90 55 60
        E 0 90 61 60
        E 120 80 1a 00
        E 0 80 55 00
        E 0 80 61 00
        E 120 80 78 00
        E 0 80 79 00
        E 0 80 7a 00
        E 0 80 7b 00
        E 0 80 7c 00
        E 0 90 18 60
        E 0 90 24 60
        E 0 90 40 60
        E 0 90 48 60
        E 0 90 4c 60
        E 0 90 54 60
        E 0 90 58 60
        E 0 90 60 60
        E 0 90 64 60
        E 120 80 18 00
        E 0 80 24 00
        E 0 80 40 00
        E 0 80 48 00
        E 0 80 4c 00
        E 0 80 54 00
        E 0 80 58 00
        E 0 80 60 00
        E 0 80 64 00
        E 360 90 1f 60
        E 0 90 3e 60
        E 0 90 4a 60
        E 0 90 56 60
        E 0 90 62 60
        E 120 80 1f 00
        E 0 80 3e 00
        E 0 80 4a 00
        E 0 80 56 00
        E 0 80 62 00
        E 120 90 18 60
        E 0 90 54 60
        E 0 90 60 60
        E 120 80 18 00
        E 0 80 54 00
        E 0 80 60 00
        E 120 90 1a 60
        E 0 90 1f 60
        E 0 90 3d 60
        E 0 90 3e 60
        E 0 90 49 60
        E 0 90 4a 60
        E 0 90 55 60
        E 0 90 56 60
        E 0 90 61 60
        E 0 90 62 60
        E 120 80 1a 00
        E 0 80 1f 00
        E 0 80 3d 00
        E 0 80 3e 00
        E 0 80 49 00
        E 0 80 4a 00
        E 0 80 55 00
        E 0 80 56 00
        E 0 80 61 00
        E 0 80 62 00
        E 360 90 1f 60
        E 0 90 3e 60
        E 0 90 4a 60
        E 0 90 56 60
        E 0 90 62 60
        E 120 80 1f 00
        E 0 80 3e 00
        E 0 80 4a 00
        E 0 80 56 00
        E 0 80 62 00
        E 120 90 18 60
        E 0 90 54 60
        E 0 90 60 60
        E 120 80 18 00
        E 0 80 54 00
        E 0 80 60 00
        E 120 90 18 60
        E 0 90 1f 60
        E 0 90 3e 60
        E 0 90 48 60
        E 0 90 4a 60
        E 0 90 54 60
        E 0 90 56 60
        E 0 90 60 60
        E 0 90 62 60
        E 0 90 74 60
        E 120 80 18 00
        E 0 80 1f 00
        E 0 80 3e 00
        E 0 80 48 00
        E 0 80 4a 00
        E 0 80 54 00
        E 0 80 56 00
        E 0 80 60 00
        E 0 80 62 00
        E 360 90 1f 60
        E 0 90 3e 60
        E 0 90 4a 60
        E 0 90 56 60
        E 0 90 62 60
        E 120 80 1f 00
        E 0 80 3e 00
        E 0 80 4a 00
        E 0 80 56 00
        E 0 80 62 00
        E 120 90 18 60
        E 0 90 54 60
        E 0 90 60 60
        E 120 80 18 00
        E 0 80 54 00
        E 0 80 60 00
        E 120 90 1a 60
        E 0 90 1f 60
        E 0 90 3d 60
        E 0 90 3e 60
        E 0 90 49 60
        E 0 90 4a 60
        E 0 90 55 60
        E 0 90 56 60
        E 0 90 61 60
        E 0 90 62 60
        E 120 80 1a 00
        E 0 80 1f 00
        E 0 80 3d 00
        E 0 80 3e 00
        E 0 80 49 00
        E 0 80 4a 00
        E 0 80 55 00
        E 0 80 56 00
        E 0 80 61 00
        E 0 80 62 00
        E 360 90 1f 60
        E 0 90 3e 60
        E 0 90 4a 60
        E 0 90 56 60
        E 0 90 62 60
        E 120 80 1f 00
        E 0 80 3e 00
        E 0 80 4a 00
        E 0 80 56 00
        E 0 80 62 00
        E 120 90 18 60
        E 0 90 54 60
        E 0 90 60 60
        E 120 80 18 00
        E 0 80 54 00
        E 0 80 60 00
        E 120 80 74 00
        E 0 90 18 60
        E 0 90 1f 60
        E 0 90 3e 60
        E 0 90 48 60
        E 0 90 4a 60
        E 0 90 54 60
        E 0 90 56 60
        E 0 90 60 60
        E 0 90 62 60
        E 120 80 18 00
        E 0 80 1f 00
        E 0 80 3e 00
        E 0 80 48 00
        E 0 80 4a 00
        E 0 80 54 00
        E 0 80 56 00
        E 0 80 60 00
        E 0 80 62 00
        E 360 90 1f 60
        E 0 90 3e 60
        E 0 90 4a 60
        E 0 90 56 60
        E 0 90 62 60
        E 120 80 1f 00
        E 0 80 3e 00
        E 0 80 4a 00
        E 0 80 56 00
        E 0 80 62 00
        E 120 90 18 60
        E 0 90 54 60
        E 0 90 60 60
        E 120 80 18 00
        E 0 80 54 00
        E 0 80 60 00
        E 120 90 1a 60
        E 0 90 1f 60
        E 0 90 3d 60
        E 0 90 3e 60
        E 0 90 49 60
        E 0 90 4a 60
        E 0 90 55 60
        E 0 90 56 60
        E 0 90 61 60
        E 0 90 62 60
        E 120 80 1a 00
        E 0 80 1f 00
        E 0 80 3d 00
        E 0 80 3e 00
        E 0 80 49 00
        E 0 80 4a 00
        E 0 80 55 00
        E 0 80 56 00
        E 0 80 61 00
        E 0 80 62 00
        E 360 90 1f 60
        E 0 90 3e 60
        E 0 90 4a 60
        E 0 90 56 60
        E 0 90 62 60
        E 120 80 1f 00
        E 0 80 3e 00
        E 0 80 4a 00
        E 0 80 56 00
        E 0 80 62 00
        E 120 90 18 60
        E 0 90 54 60
        E 0 90 60 60
        E 120 80 18 00
        E 0 80 54 00
        E 0 80 60 00
        E 120 90 18 60
        E 0 90 1f 60
        E 0 90 3e 60
        E 0 90 48 60
        E 0 90 4a 60
        E 0 90 54 60
        E 0 90 56 60
        E 0 90 60 60
        E 0 90 62 60
        E 0 90 78 60
        E 0 90 79 60
        E 0 90 7a 60
        E 0 90 7b 60
        E 0 90 7c 60
        E 120 80 18 00
        E 0 80 1f 00
        E 0 80 3e 00
        E 0 80 48 00
        E 0 80 4a 00
        E 0 80 54 00
        E 0 80 56 00
        E 0 80 60 00
        E 0 80 62 00
        E 120 90 1a 60
        E 0 90 55 60
        E 0 90 61 60
        E 120 80 1a 00
        E 0 80 55 00
        E 0 80 61 00
        E 120 90 18 60
        E 0 90 1f 60
        E 0 90 3e 60
        E 0 90 48 60
        E 0 90 4a 60
        E 0 90 54 60
        E 0 90 56 60
        E 0 90 60 60
        E 0 90 62 60
        E 120 80 18 00
        E 0 80 1f 00
        E 0 80 3e 00
        E 0 80 48 00
        E 0 80 4a 00
        E 0 80 54 00
        E 0 80 56 00
        E 0 80 60 00
        E 0 80 62 00
        E 120 90 18 60
        E 0 90 54 60
        E 0 90 60 60
        E 120 80 18 00
        E 0 80 54 00
        E 0 80 60 00
        E 120 90 1a 60
        E 0 90 1f 60
        E 0 90 3d 60
        E 0 90 3e 60
        E 0 90 49 60
        E 0 90 4a 60
        E 0 90 55 60
        E 0 90 56 60
        E 0 90 61 60
        E 0 90 62 60
        E 120 80 1a 00
        E 0 80 1f 00
        E 0 80 3d 00
        E 0 80 3e 00
        E 0 80 49 00
        E 0 80 4a 00
        E 0 80 55 00
        E 0 80 56 00
        E 0 80 61 00
        E 0 80 62 00
        E 360 90 1f 60
        E 0 90 3e 60
        E 0 90 4a 60
        E 0 90 56 60
        E 0 90 62 60
        E 120 80 1f 00
        E 0 80 3e 00
        E 0 80 4a 00
        E 0 80 56 00
        E 0 80 62 00
        E 360 80 78 00
        E 0 80 79 00
        E 0 80 7a 00
        E 0 80 7b 00
        E 0 80 7c 00
        E 0 90 18 60
        E 0 90 24 60
        E 0 90 40 60
        E 0 90 48 60
        E 0 90 4c 60
        E 0 90 54 60
        E 0 90 58 60
        E 0 90 60 60
        E 0 90 64 60
        E 120 80 18 00
        E 0 80 24 00
        E 0 80 40 00
        E 0 80 48 00
        E 0 80 4c 00
        E 0 80 54 00
        E 0 80 58 00
        E 0 80 60 00
        E 0 80 64 00
        E 360 90 1f 60
        E 0 90 3e 60
        E 0 90 4a 60
        E 0 90 56 60
        E 0 90 62 60
        E 120 80 1f 00
        E 0 80 3e 00
        E 0 80 4a 00
        E 0 80 56 00
        E 0 80 62 00
        E 360 90 1a 60
        E 0 90 1f 60
        E 0 90 3d 60
        E 0 90 3e 60
        E 0 90 49 60
        E 0 90 4a 60
        E 0 90 55 60
        E 0 90 56 60
        E 0 90 61 60
        E 0 90 62 60
        E 120 80 1a 00
        E 0 80 1f 00
        E 0 80 3d 00
        E 0 80 3e 00
        E 0 80 49 00
        E 0 80 4a 00
        E 0 80 55 00
        E 0 80 56 00
        E 0 80 61 00
        E 0 80 62 00
        E 360 90 1f 60
        E 0 90 3e 60
        E 0 90 4a 60
        E 0 90 56 60
        E 0 90 62 60
        E 120 80 1f 00
        E 0 80 3e 00
        E 0 80 4a 00
        E 0 80 56 00
        E 0 80 62 00
        E 120 90 18 60
        E 0 90 54 60
        E 0 90 60 60
        E 120 80 18 00
        E 0 80 54 00
        E 0 80 60 00
        E 120 90 18 60
        E 0 90 1f 60
        E 0 90 3e 60
        E 0 90 48 60
        E 0 90 4a 60
        E 0 90 54 60
        E 0 90 56 60
        E 0 90 60 60
        E 0 90 62 60
        E 120 80 18 00
        E 0 80 1f 00
        E 0 80 3e 00
        E 0 80 48 00
        E 0 80 4a 00
        E 0 80 54 00
        E 0 80 56 00
        E 0 80 60 00
        E 0 80 62 00
        E 120 90 1a 60
        E 0 90 55 60
        E 0 90 61 60
        E 120 80 1a 00
        E 0 80 55 00
        E 0 80 61 00
        E 120 90 1f 60
        E 0 90 3e 60
        E 0 90 4a 60
        E 0 90 56 60
        E 0 90 62 60
        E 120 80 1f 00
        E 0 80 3e 00
        E 0 80 4a 00
        E 0 80 56 00
        E 0 80 62 00
        E 120 90 18 60
        E 0 90 54 60
        E 0 90 60 60
        E 120 80 18 00
        E 0 80 54 00
        E 0 80 60 00
        E 120 90 1a 60
        E 0 90 1f 60
        E 0 90 3d 60
        E 0 90 3e 60
        E 0 90 49 60
        E 0 90 4a 60
        E 0 90 55 60
        E 0 90 56 60
        E 0 90 61 60
        E 0 90 62 60
        E 120 80 1a 00
        E 0 80 1f 00
        E 0 80 3d 00
        E 0 80 3e 00
        E 0 80 49 00
        E 0 80 4a 00
        E 0 80 55 00
        E 0 80 56 00
        E 0 80 61 00
        E 0 80 62 00
        E 360 90 1f 60
        E 0 90 3e 60
        E 0 90 4a 60
        E 0 90 56 60
        E 0 90 62 60
        E 120 80 1f 00
        E 0 80 3e 00
        E 0 80 4a 00
        E 0 80 56 00
        E 0 80 62 00
        E 360 90 18 60
        E 0 90 1f 60
        E 0 90 3e 60
        E 0 90 48 60
        E 0 90 4a 60
        E 0 90 54 60
        E 0 90 56 60
        E 0 90 60 60
        E 0 90 62 60
        E 120 80 18 00
        E 0 80 1f 00
        E 0 80 3e 00
        E 0 80 48 00
        E 0 80 4a 00
        E 0 80 54 00
        E 0 80 56 00
        E 0 80 60 00
        E 0 80 62 00
        E 360 90 1f 60
        E 0 90 3e 60
        E 0 90 4a 60
        E 0 90 56 60
        E 0 90 62 60
        E 120 80 1f 00
        E 0 80 3e 00
        E 0 80 4a 00
        E 0 80 56 00
        E 0 80 62 00
        E 360 90 1a 60
        E 0 90 1f 60
        E 0 90 3d 60
        E 0 90 3e 60
        E 0 90 49 60
        E 0 90 4a 60
        E 0 90 55 60
        E 0 90 56 60
        E 0 90 61 60
        E 0 90 62 60
        E 120 80 1a 00
        E 0 80 1f 00
        E 0 80 3d 00
        E 0 80 3e 00
        E 0 80 49 00
        E 0 80 4a 00
        E 0 80 55 00
        E 0 80 56 00
        E 0 80 61 00
        E 0 80 62 00
        E 360 90 1f 60
        E 0 90 3e 60
        E 0 90 4a 60
        E 0 90 56 60
        E 0 90 62 60
        E 120 80 1f 00
        E 0 80 3e 00
        E 0 80 4a 00
        E 0 80 56 00
        E 0 80 62 00
        E 120 90 18 60
        E 0 90 54 60
        E 0 90 60 60
        E 120 80 18 00
        E 0 80 54 00
        E 0 80 60 00
        E 120 90 18 60
        E 0 90 1f 60
        E 0 90 3e 60
        E 0 90 48 60
        E 0 90 4a 60
        E 0 90 54 60
        E 0 90 56 60
        E 0 90 60 60
        E 0 90 62 60
        E 120 80 18 00
        E 0 80 1f 00
        E 0 80 3e 00
        E 0 80 48 00
        E 0 80 4a 00
        E 0 80 54 00
        E 0 80 56 00
        E 0 80 60 00
        E 0 80 62 00
        E 120 90 1a 60
        E 0 90 55 60
        E 0 90 61 60
        E 120 80 1a 00
        E 0 80 55 00
        E 0 80 61 00
        E 120 90 1f 60
        E 0 90 3e 60
        E 0 90 4a 60
        E 0 90 56 60
        E 0 90 62 60
        E 120 80 1f 00
        E 0 80 3e 00
        E 0 80 4a 00
        E 0 80 56 00
        E 0 80 62 00
        E 120 90 18 60
        E 0 90 60 60
        E 120 80 18 00
        E 0 80 60 00
        E 120 90 1a 60
        E 0 90 1f 60
        E 0 90 3d 60
        E 0 90 3e 60
        E 0 90 49 60
        E 0 90 4a 60
        E 0 90 55 60
        E 0 90 56 60
        E 0 90 61 60
        E 0 90 62 60
        E 120 80 1a 00
        E 0 80 1f 00
        E 0 80 3d 00
        E 0 80 3e 00
        E 0 80 49 00
        E 0 80 4a 00
        E 0 80 55 00
        E 0 80 56 00
        E 0 80 61 00
        E 0 80 62 00
        E 120 90 1a 60
        E 0 90 55 60
        E 0 90 61 60
        E 120 80 1a 00
        E 0 80 55 00
        E 0 80 61 00
        E 120 90 1a 60
        E 0 90 3d 60
        E 0 90 49 60
        E 0 90 55 60
        E 0 90 61 60
        E 120 80 1a 00
        E 0 80 3d 00
        E 0 80 49 00
        E 0 80 55 00
        E 0 80 61 00
        E 360 90 18 60
        E 0 90 1a 60
        E 0 90 24 60
        E 0 90 3d 60
        E 0 90 40 60
        E 0 90 49 60
        E 0 90 4c 60
        E 0 90 54 60
        E 0 90 55 60
        E 0 90 58 60
        E 0 90 60 60
        E 0 90 61 60
        E 0 90 64 60
        E 120 80 18 00
        E 0 80 1a 00
        E 0 80 24 00
        E 0 80 3d 00
        E 0 80 40 00
        E 0 80 49 00
        E 0 80 4c 00
        E 0 80 54 00
        E 0 80 55 00
        E 0 80 58 00
        E 0 80 60 00
        E 0 80 61 00
        E 0 80 64 00
        E 360 80 19 00
        <X 120 0
          /wFbaWRsZV9yZWFsdGltZV0=
        >
        E 10920 b0 7b 00
        GUID {5A3726D0-1F59-452D-9CA4-A6845CFAAB2D}
        IGNTEMPO 0 120.00000000 4 4
        SRCCOLOR 6
        VELLANE 132 100 100
        COLORMAP "C:\Program Files (x86)\REAPER\Data\color_maps\rockband_guitarbass.png"
        CFGEDITVIEW 69952.300480 134.382065 0 12 0 0 0
        CFGEDIT 1 1 0 1 1 0 1 1 1 1 1 0.25000000 -8 0 1364 744 0 2 1 2 0.00000000 0 1 0 0 0.500000 0 0 1.000000 64
        KEYSNAP 0 0 "100304450070" 0 "Blues"
        EVTFILTER 0 -1 -1 100 114 0 0 1 0 -1.00000000 -1.00000000
      >
    >
  >
  <TRACK '{1E25762E-D44B-45EE-9971-C39A674D43C7}'
    NAME "PART GUITAR"
    PEAKCOL 16576
    BEAT -1
    AUTOMODE 0
    VOLPAN 1.00000000000000 0.00000000000000 -1.00000000000000 -1.00000000000000 1.00000000000000
    MUTESOLO 0 0 0
    IPHASE 0
    ISBUS 0 0
    BUSCOMP 0 0
    SHOWINMIX 1 0.666700 0.500000 1 0.500000 -1 -1 -1
    FREEMODE 0
    SEL 0
    REC 0 0 0 0 0 0 0
    VU 2
    TRACKHEIGHT 0 0
    INQ 0 0 0 0.5000000000 100 0 0 100
    NCHAN 2
    FX 1
    TRACKID {1E25762E-D44B-45EE-9971-C39A674D43C7}
    PERF 0
    MIDIOUT -1
    <MIDINOTENAMES
      0 127 "Trill Marker"
      0 126 "Tremolo Marker"
      0 125 "---"
      0 124 "BRE"
      0 123 "BRE"
      0 122 "BRE"
      0 121 "BRE"
      0 120 "BRE (use all 5)"
      0 119 "----"
      0 116 "OVERDRIVE"
      0 111 "----"
      0 103 "Solo Marker"
      0 102 "Force HOPO Off"
      0 101 "Force HOPO On"
      0 100 "EXPERT Orange"
      0 99 "EXPERT Blue"
      0 98 "EXPERT Yellow"
      0 97 "EXPERT Red"
      0 96 "EXPERT Green"
      0 91 "----"
      0 90 "Force HOPO Off"
      0 89 "Force HOPO On"
      0 88 "HARD Orange"
      0 87 "HARD Blue"
      0 86 "HARD Yellow"
      0 85 "HARD Red"
      0 84 "HARD Green"
      0 80 "----"
      0 76 "MEDIUM Orange"
      0 75 "MEDIUM Blue"
      0 74 "MEDIUM Yellow"
      0 73 "MEDIUM Red"
      0 72 "MEDIUM Green"
      0 68 "----"
      0 64 "EASY Orange"
      0 63 "EASY Blue"
      0 62 "EASY Yellow"
      0 61 "EASY Red"
      0 60 "EASY Green"
      0 59 "Left Hand Highest (Fret 12)"
      0 58 "-"
      0 57 "Fret 11"
      0 56 "Fret 10"
      0 55 "Fret 9"
      0 54 "-"
      0 53 "Fret 8"
      0 52 "Fret 7"
      0 51 "-"
      0 50 "Fret 6"
      0 49 "Fret 5"
      0 48 "-"
      0 47 "Fret 4"
      0 46 "-"
      0 45 "Fret 3"
      0 44 "-"
      0 43 "Fret 2"
      0 42 "-"
      0 41 "-"
      0 40 "Left Hand Lowest (Fret 1)"
    >
    MAINSEND 1 0
    <FXCHAIN
      WNDRECT 0 42 878 554
      SHOW 0
      LASTSEL 0
      DOCKED 0
      BYPASS 0 0
      <VST "VSTi: RBN Preview (RBN)" "rbprev_vst64.dll" 0 ""
        dnBicu5e7f4AAAAAAgAAAAEAAAAAAAAAAgAAAAAAAAAEAAAAAQAAAA==
        AAAQAAMAqgAAABAAAAA=
      >
      FLOATPOS 0 0 0 0
      FXID {ECD5180E-DA4F-4DEB-97AE-945041D2FB04}
      WAK 0
    >
    <ITEM
      POSITION 0.00000000000000
      SNAPOFFS 0.00000000000000
      LENGTH 87.58319334564294
      LOOP 0
      ALLTAKES 0
      SEL 0
      FADEIN 1 0.000000 0.000000 1 0
      FADEOUT 1 0.000000 0.000000 1 0
      MUTE 0
      IGUID {DB8DDDDD-A2B4-466B-9694-CC81AD555431}
      IID 14
      NAME "PART GUITAR"
      VOLPAN 1.000000 0.000000 1.000000 -1.000000
      SOFFS 0.00000000000000 0.00000000000000
      PLAYRATE 1.00000000000000 1 0.00000000000000 -1
      CHANMODE 0
      GUID {BCD746A1-D24B-4A84-9D80-30E3A028A677}
      <SOURCE MIDI
        HASDATA 1 480 QN
        POOLEDEVTS {24D3B289-F2B8-41F1-A2AA-9FB8AF89DA6D}
        <X 0 0
          /wNQQVJUIEdVSVRBUg==
        >
        <X 5760 0
          /wFbbWFwIEhhbmRNYXBfQ2hvcmRfQ10=
        >
        <X 0 0
          /wFbbWVsbG93XQ==
        >
        E 0 90 28 60
        E 0 90 3e 60
        E 0 90 49 60
        E 0 90 4a 60
        E 0 90 55 60
        E 0 90 57 60
        E 0 90 61 60
        E 0 90 63 60
        E 480 80 3e 00
        E 0 80 49 00
        E 0 80 4a 00
        E 360 80 55 00
        E 0 80 57 00
        E 0 80 61 00
        E 0 80 63 00
        E 120 90 3f 60
        E 0 90 4a 60
        E 0 90 4b 60
        E 0 90 56 60
        E 0 90 58 60
        E 0 90 61 60
        E 0 90 63 60
        E 0 90 64 60
        E 120 80 3f 00
        E 0 80 4a 00
        E 0 80 4b 00
        E 0 80 56 00
        E 0 80 58 00
        E 0 80 61 00
        E 0 80 63 00
        E 0 80 64 00
        E 360 90 48 60
        E 0 90 54 60
        E 0 90 60 60
        E 120 80 48 00
        E 0 80 54 00
        E 0 80 60 00
        E 120 90 55 60
        E 0 90 61 60
        E 120 80 28 00
        E 0 80 55 00
        E 0 80 61 00
        <X 120 0
          /wFbbWFwIEhhbmRNYXBfQWxsQ2hvcmRzXQ==
        >
        E 0 90 2b 60
        E 0 90 3c 60
        E 0 90 48 60
        E 0 90 49 60
        E 0 90 54 60
        E 0 90 55 60
        E 0 90 60 60
        E 0 90 61 60
        E 480 80 3c 00
        E 0 80 48 00
        E 0 80 49 00
        E 360 80 54 00
        E 0 80 55 00
        E 0 80 60 00
        E 0 80 61 00
        E 120 90 3c 60
        E 0 90 48 60
        E 0 90 49 60
        E 0 90 54 60
        E 0 90 55 60
        E 0 90 60 60
        E 0 90 61 60
        E 0 90 62 60
        E 120 80 3c 00
        E 0 80 48 00
        E 0 80 49 00
        E 0 80 54 00
        E 0 80 55 00
        E 0 80 60 00
        E 0 80 61 00
        E 0 80 62 00
        E 360 90 48 60
        E 0 90 54 60
        E 0 90 60 60
        E 120 80 48 00
        E 0 80 54 00
        E 0 80 60 00
        E 120 90 54 60
        E 0 90 60 60
        E 120 80 2b 00
        E 0 80 54 00
        E 0 80 60 00
        E 120 90 28 60
        E 0 90 3d 60
        E 0 90 48 60
        E 0 90 4a 60
        E 0 90 54 60
        E 0 90 56 60
        E 0 90 60 60
        E 0 90 62 60
        E 480 80 3d 00
        E 0 80 48 00
        E 0 80 4a 00
        E 360 80 54 00
        E 0 80 56 00
        E 0 80 60 00
        E 0 80 62 00
        E 120 90 3e 60
        E 0 90 49 60
        E 0 90 4a 60
        E 0 90 54 60
        E 0 90 57 60
        E 0 90 60 60
        E 0 90 62 60
        E 0 90 63 60
        E 120 80 3e 00
        E 0 80 49 00
        E 0 80 4a 00
        E 0 80 54 00
        E 0 80 57 00
        E 0 80 60 00
        E 0 80 62 00
        E 0 80 63 00
        E 360 90 48 60
        E 0 90 54 60
        E 0 90 60 60
        E 120 80 48 00
        E 0 80 54 00
        E 0 80 60 00
        E 120 90 54 60
        E 0 90 56 60
        E 0 90 60 60
        E 0 90 62 60
        E 360 80 54 00
        E 0 80 56 00
        E 0 80 60 00
        E 0 80 62 00
        E 120 90 54 60
        E 0 90 56 60
        E 0 90 60 60
        E 0 90 62 60
        E 120 80 54 00
        E 0 80 56 00
        E 0 80 60 00
        E 0 80 62 00
        E 120 90 3c 60
        E 0 90 48 60
        E 0 90 49 60
        E 0 90 54 60
        E 0 90 55 60
        E 0 90 60 60
        E 0 90 61 60
        E 480 80 3c 00
        E 0 80 48 00
        E 0 80 49 00
        E 120 80 54 00
        E 0 80 55 00
        E 0 80 60 00
        E 0 80 61 00
        E 120 90 54 60
        E 0 90 56 60
        E 0 90 60 60
        E 0 90 62 60
        E 120 80 54 00
        E 0 80 56 00
        E 0 80 60 00
        E 0 80 62 00
        E 120 90 48 60
        E 0 90 49 60
        E 0 90 54 60
        E 0 90 55 60
        E 0 90 60 60
        E 0 90 61 60
        E 120 80 48 00
        E 0 80 49 00
        E 0 80 54 00
        E 0 80 55 00
        E 0 80 60 00
        E 0 80 61 00
        E 120 90 55 60
        E 0 90 61 60
        E 120 80 55 00
        E 0 80 61 00
        <X 120 0
          /wFbbWFwIEhhbmRNYXBfQ2hvcmRfQ10=
        >
        E 0 90 3e 60
        E 0 90 49 60
        E 0 90 4a 60
        E 0 90 55 60
        E 0 90 57 60
        E 0 90 61 60
        E 0 90 63 60
        E 480 80 3e 00
        E 0 80 49 00
        E 0 80 4a 00
        E 360 80 55 00
        E 0 80 57 00
        E 0 80 61 00
        E 0 80 63 00
        E 120 90 3f 60
        E 0 90 4a 60
        E 0 90 4b 60
        E 0 90 56 60
        E 0 90 58 60
        E 0 90 61 60
        E 0 90 63 60
        E 0 90 64 60
        E 120 80 3f 00
        E 0 80 4a 00
        E 0 80 4b 00
        E 0 80 56 00
        E 0 80 58 00
        E 0 80 61 00
        E 0 80 63 00
        E 0 80 64 00
        E 360 90 48 60
        E 0 90 54 60
        E 0 90 60 60
        E 120 80 48 00
        E 0 80 54 00
        E 0 80 60 00
        E 120 90 54 60
        E 0 90 60 60
        E 120 80 28 00
        E 0 80 54 00
        E 0 80 60 00
        <X 120 0
          /wFbbWFwIEhhbmRNYXBfQWxsQ2hvcmRzXQ==
        >
        E 0 90 31 60
        E 0 90 3c 60
        E 0 90 48 60
        E 0 90 49 60
        E 0 90 54 60
        E 0 90 55 60
        E 0 90 60 60
        E 0 90 61 60
        E 480 80 3c 00
        E 0 80 48 00
        E 0 80 49 00
        E 360 80 54 00
        E 0 80 55 00
        E 0 80 60 00
        E 0 80 61 00
        E 120 90 3d 60
        E 0 90 48 60
        E 0 90 4a 60
        E 0 90 54 60
        E 0 90 56 60
        E 0 90 60 60
        E 0 90 61 60
        E 0 90 63 60
        E 120 80 3d 00
        E 0 80 48 00
        E 0 80 4a 00
        E 0 80 54 00
        E 0 80 56 00
        E 0 80 60 00
        E 0 80 61 00
        E 0 80 63 00
        E 360 90 48 60
        E 0 90 54 60
        E 0 90 60 60
        E 120 80 48 00
        E 0 80 54 00
        E 0 80 60 00
        E 120 90 56 60
        E 0 90 62 60
        E 120 80 31 00
        E 0 80 56 00
        E 0 80 62 00
        E 120 90 28 60
        E 0 90 3d 60
        E 0 90 48 60
        E 0 90 4a 60
        E 0 90 54 60
        E 0 90 56 60
        E 0 90 60 60
        E 0 90 62 60
        E 480 80 3d 00
        E 0 80 48 00
        E 0 80 4a 00
        E 360 80 54 00
        E 0 80 56 00
        E 0 80 60 00
        E 0 80 62 00
        E 120 90 3e 60
        E 0 90 49 60
        E 0 90 4a 60
        E 0 90 54 60
        E 0 90 57 60
        E 0 90 60 60
        E 0 90 62 60
        E 0 90 63 60
        E 120 80 3e 00
        E 0 80 49 00
        E 0 80 4a 00
        E 0 80 54 00
        E 0 80 57 00
        E 0 80 60 00
        E 0 80 62 00
        E 0 80 63 00
        E 360 90 48 60
        E 0 90 54 60
        E 0 90 60 60
        E 120 80 48 00
        E 0 80 54 00
        E 0 80 60 00
        E 120 90 54 60
        E 0 90 56 60
        E 0 90 60 60
        E 0 90 62 60
        E 360 80 54 00
        E 0 80 56 00
        E 0 80 60 00
        E 0 80 62 00
        E 120 90 54 60
        E 0 90 56 60
        E 0 90 60 60
        E 0 90 62 60
        E 120 80 54 00
        E 0 80 56 00
        E 0 80 60 00
        E 0 80 62 00
        E 120 90 3c 60
        E 0 90 48 60
        E 0 90 49 60
        E 0 90 54 60
        E 0 90 55 60
        E 0 90 60 60
        E 0 90 61 60
        E 480 80 3c 00
        E 0 80 48 00
        E 0 80 49 00
        E 120 80 54 00
        E 0 80 55 00
        E 0 80 60 00
        E 0 80 61 00
        E 120 90 54 60
        E 0 90 56 60
        E 0 90 60 60
        E 0 90 62 60
        E 120 80 54 00
        E 0 80 56 00
        E 0 80 60 00
        E 0 80 62 00
        E 120 90 48 60
        E 0 90 54 60
        E 0 90 60 60
        E 120 80 48 00
        E 0 80 54 00
        E 0 80 60 00
        E 120 90 55 60
        E 0 90 61 60
        E 120 80 55 00
        E 0 80 61 00
        <X 120 0
          /wFbbWFwIEhhbmRNYXBfQ2hvcmRfQ10=
        >
        E 0 90 3e 60
        E 0 90 49 60
        E 0 90 4a 60
        E 0 90 55 60
        E 0 90 57 60
        E 0 90 61 60
        E 0 90 63 60
        E 480 80 3e 00
        E 0 80 49 00
        E 0 80 4a 00
        E 360 80 55 00
        E 0 80 57 00
        E 0 80 61 00
        E 0 80 63 00
        E 120 90 3f 60
        E 0 90 4a 60
        E 0 90 4b 60
        E 0 90 56 60
        E 0 90 58 60
        E 0 90 61 60
        E 0 90 63 60
        E 0 90 64 60
        E 120 80 3f 00
        E 0 80 4a 00
        E 0 80 4b 00
        E 0 80 56 00
        E 0 80 58 00
        E 0 80 61 00
        E 0 80 63 00
        E 0 80 64 00
        E 360 90 48 60
        E 0 90 54 60
        E 0 90 60 60
        E 120 80 48 00
        E 0 80 54 00
        E 0 80 60 00
        E 120 90 54 60
        E 0 90 60 60
        E 120 80 28 00
        E 0 80 54 00
        E 0 80 60 00
        <X 120 0
          /wFbbWFwIEhhbmRNYXBfQWxsQ2hvcmRzXQ==
        >
        E 0 90 2b 60
        E 0 90 3c 60
        E 0 90 48 60
        E 0 90 49 60
        E 0 90 54 60
        E 0 90 55 60
        E 0 90 60 60
        E 0 90 61 60
        E 0 90 74 60
        E 480 80 3c 00
        E 0 80 48 00
        E 0 80 49 00
        E 360 80 54 00
        E 0 80 55 00
        E 0 80 60 00
        E 0 80 61 00
        E 120 90 3c 60
        E 0 90 48 60
        E 0 90 49 60
        E 0 90 54 60
        E 0 90 55 60
        E 0 90 60 60
        E 0 90 61 60
        E 0 90 62 60
        E 120 80 3c 00
        E 0 80 48 00
        E 0 80 49 00
        E 0 80 54 00
        E 0 80 55 00
        E 0 80 60 00
        E 0 80 61 00
        E 0 80 62 00
        E 360 90 4a 60
        E 0 90 56 60
        E 0 90 62 60
        E 120 80 4a 00
        E 0 80 56 00
        E 0 80 62 00
        E 120 90 56 60
        E 0 90 62 60
        E 120 80 2b 00
        E 0 80 56 00
        E 0 80 62 00
        <X 120 0
          /wFbbWFwIEhhbmRNYXBfQ2hvcmRfRF0=
        >
        E 0 90 28 60
        E 0 90 40 60
        E 0 90 4b 60
        E 0 90 4c 60
        E 0 90 57 60
        E 0 90 58 60
        E 0 90 62 60
        E 0 90 63 60
        E 0 90 64 60
        E 120 80 74 00
        E 360 80 40 00
        E 0 80 4b 00
        E 0 80 4c 00
        E 360 80 57 00
        E 0 80 58 00
        E 0 80 62 00
        E 0 80 63 00
        E 0 80 64 00
        E 120 90 40 60
        E 0 90 4b 60
        E 0 90 4c 60
        E 0 90 57 60
        E 0 90 58 60
        E 0 90 62 60
        E 0 90 63 60
        E 0 90 64 60
        E 120 80 40 00
        E 0 80 4b 00
        E 0 80 4c 00
        E 0 80 57 00
        E 0 80 58 00
        E 0 80 62 00
        E 0 80 63 00
        E 0 80 64 00
        E 360 90 4a 60
        E 0 90 56 60
        E 0 90 62 60
        E 120 80 4a 00
        E 0 80 56 00
        E 0 80 62 00
        E 120 90 57 60
        E 0 90 58 60
        E 0 90 62 60
        E 0 90 63 60
        E 0 90 64 60
        E 360 80 57 00
        E 0 80 58 00
        E 0 80 62 00
        E 0 80 63 00
        E 0 80 64 00
        E 120 90 57 60
        E 0 90 58 60
        E 0 90 62 60
        E 0 90 63 60
        E 0 90 64 60
        E 120 80 57 00
        E 0 80 58 00
        E 0 80 62 00
        E 0 80 63 00
        E 0 80 64 00
        E 120 90 3f 60
        E 0 90 49 60
        E 0 90 4b 60
        E 0 90 56 60
        E 0 90 57 60
        E 0 90 62 60
        E 0 90 63 60
        E 120 80 3f 00
        E 0 80 49 00
        E 0 80 4b 00
        E 480 80 56 00
        E 0 80 57 00
        E 0 80 62 00
        E 0 80 63 00
        E 120 90 4b 60
        E 0 90 4c 60
        E 0 90 57 60
        E 0 90 58 60
        E 0 90 62 60
        E 0 90 63 60
        E 0 90 64 60
        E 120 80 4b 00
        E 0 80 4c 00
        E 0 80 57 00
        E 0 80 58 00
        E 0 80 62 00
        E 0 80 63 00
        E 0 80 64 00
        E 120 90 4b 60
        E 0 90 4c 60
        E 0 90 57 60
        E 0 90 58 60
        E 0 90 62 60
        E 0 90 63 60
        E 0 90 64 60
        E 120 80 4b 00
        E 0 80 4c 00
        E 0 80 57 00
        E 0 80 58 00
        E 0 80 62 00
        E 0 80 63 00
        E 0 80 64 00
        E 120 90 55 60
        E 0 90 61 60
        E 120 80 28 00
        E 0 80 55 00
        E 0 80 61 00
        <X 120 0
          /wFbbWFwIEhhbmRNYXBfQWxsQ2hvcmRzXQ==
        >
        E 0 90 31 60
        E 0 90 3e 60
        E 0 90 49 60
        E 0 90 4a 60
        E 0 90 55 60
        E 0 90 56 60
        E 0 90 61 60
        E 0 90 62 60
        E 480 80 3e 00
        E 0 80 49 00
        E 0 80 4a 00
        E 360 80 55 00
        E 0 80 56 00
        E 0 80 61 00
        E 0 80 62 00
        E 120 90 3f 60
        E 0 90 4a 60
        E 0 90 4b 60
        E 0 90 55 60
        E 0 90 58 60
        E 0 90 61 60
        E 0 90 62 60
        E 0 90 64 60
        E 120 80 3f 00
        E 0 80 4a 00
        E 0 80 4b 00
        E 0 80 55 00
        E 0 80 58 00
        E 0 80 61 00
        E 0 80 62 00
        E 0 80 64 00
        E 360 90 48 60
        E 0 90 54 60
        E 0 90 60 60
        E 120 80 48 00
        E 0 80 54 00
        E 0 80 60 00
        E 120 90 55 60
        E 0 90 61 60
        E 120 80 31 00
        E 0 80 55 00
        E 0 80 61 00
        E 120 90 2b 60
        E 0 90 3c 60
        E 0 90 48 60
        E 0 90 49 60
        E 0 90 54 60
        E 0 90 55 60
        E 0 90 60 60
        E 0 90 61 60
        E 480 80 3c 00
        E 0 80 48 00
        E 0 80 49 00
        E 360 80 54 00
        E 0 80 55 00
        E 0 80 60 00
        E 0 80 61 00
        E 120 90 3d 60
        E 0 90 48 60
        E 0 90 4a 60
        E 0 90 54 60
        E 0 90 56 60
        E 0 90 60 60
        E 0 90 61 60
        E 0 90 63 60
        E 120 80 3d 00
        E 0 80 48 00
        E 0 80 4a 00
        E 0 80 54 00
        E 0 80 56 00
        E 0 80 60 00
        E 0 80 61 00
        E 0 80 63 00
        E 360 90 49 60
        E 0 90 55 60
        E 0 90 61 60
        E 120 80 49 00
        E 0 80 55 00
        E 0 80 61 00
        E 120 90 57 60
        E 0 90 63 60
        E 120 80 2b 00
        E 0 80 57 00
        E 0 80 63 00
        <X 120 0
          /wFbbWFwIEhhbmRNYXBfQ2hvcmRfQ10=
        >
        E 0 90 28 60
        E 0 90 3e 60
        E 0 90 49 60
        E 0 90 4a 60
        E 0 90 55 60
        E 0 90 57 60
        E 0 90 61 60
        E 0 90 63 60
        E 480 80 3e 00
        E 0 80 49 00
        E 0 80 4a 00
        E 360 80 55 00
        E 0 80 57 00
        E 0 80 61 00
        E 0 80 63 00
        E 120 90 3f 60
        E 0 90 4a 60
        E 0 90 4b 60
        E 0 90 56 60
        E 0 90 58 60
        E 0 90 61 60
        E 0 90 63 60
        E 0 90 64 60
        E 120 80 3f 00
        E 0 80 4a 00
        E 0 80 4b 00
        E 0 80 56 00
        E 0 80 58 00
        E 0 80 61 00
        E 0 80 63 00
        E 0 80 64 00
        E 360 90 49 60
        E 0 90 55 60
        E 0 90 61 60
        E 120 80 49 00
        E 0 80 55 00
        E 0 80 61 00
        E 120 90 56 60
        E 0 90 58 60
        E 0 90 61 60
        E 0 90 63 60
        E 0 90 64 60
        E 360 80 56 00
        E 0 80 58 00
        E 0 80 61 00
        E 0 80 63 00
        E 0 80 64 00
        E 120 90 56 60
        E 0 90 58 60
        E 0 90 61 60
        E 0 90 63 60
        E 0 90 64 60
        E 120 80 56 00
        E 0 80 58 00
        E 0 80 61 00
        E 0 80 63 00
        E 0 80 64 00
        E 120 90 3e 60
        E 0 90 49 60
        E 0 90 4a 60
        E 0 90 55 60
        E 0 90 57 60
        E 0 90 61 60
        E 0 90 63 60
        E 480 80 3e 00
        E 0 80 49 00
        E 0 80 4a 00
        E 120 80 28 00
        E 0 80 55 00
        E 0 80 57 00
        E 0 80 61 00
        E 0 80 63 00
        <X 120 0
          /wFbcGxheV0=
        >
        <X 0 0
          /wFbbWFwIEhhbmRNYXBfRGVmYXVsdF0=
        >
        E 0 90 31 60
        E 0 90 54 60
        E 0 90 60 60
        E 0 90 67 60
        E 120 80 54 00
        E 0 80 60 00
        E 120 90 49 60
        E 0 90 55 60
        E 0 90 61 60
        E 120 80 49 00
        E 0 80 55 00
        E 0 80 61 00
        E 120 90 56 60
        E 0 90 62 60
        E 120 80 31 00
        E 0 80 56 00
        E 0 80 62 00
        E 120 90 34 60
        E 0 90 3e 60
        E 0 90 4b 60
        E 0 90 57 60
        E 0 90 62 60
        E 60 80 62 00
        E 0 90 63 60
        E 60 80 3e 00
        E 0 80 4b 00
        E 240 80 57 00
        E 0 80 63 00
        E 120 90 3e 60
        E 0 90 4b 60
        E 0 90 57 60
        E 0 90 62 60
        E 60 80 62 00
        E 0 90 63 60
        E 60 80 3e 00
        E 0 80 4b 00
        E 240 80 57 00
        E 0 80 63 00
        E 120 90 3e 60
        E 0 90 4b 60
        E 0 90 57 60
        E 0 90 62 60
        E 60 80 62 00
        E 0 90 63 60
        E 60 80 3e 00
        E 0 80 4b 00
        E 240 80 57 00
        E 0 80 63 00
        E 120 90 3e 60
        E 0 90 4b 60
        E 0 90 57 60
        E 0 90 62 60
        E 60 80 62 00
        E 0 90 63 60
        E 60 80 3e 00
        E 0 80 4b 00
        E 240 80 57 00
        E 0 80 63 00
        E 120 90 3e 60
        E 0 90 4a 60
        E 0 90 56 60
        E 0 90 62 60
        E 60 80 3e 00
        E 0 80 4a 00
        E 0 80 56 00
        E 0 80 62 00
        E 0 90 63 60
        E 60 80 63 00
        E 120 90 58 60
        E 0 90 64 60
        E 60 80 58 00
        E 0 80 64 00
        E 180 90 3e 60
        E 0 90 4b 60
        E 0 90 57 60
        E 0 90 63 60
        E 120 80 3e 00
        E 0 80 4b 00
        E 240 80 57 00
        E 0 80 63 00
        E 120 90 3e 60
        E 0 90 4b 60
        E 0 90 57 60
        E 0 90 63 60
        E 120 80 3e 00
        E 0 80 4b 00
        E 0 80 57 00
        E 0 80 63 00
        E 120 90 56 60
        E 0 90 62 60
        E 0 90 65 60
        E 120 80 56 00
        E 0 80 62 00
        E 0 80 65 00
        E 120 90 49 60
        E 0 90 55 60
        E 0 90 61 60
        E 120 80 49 00
        E 240 80 34 00
        E 0 80 55 00
        E 0 80 61 00
        E 120 90 31 60
        E 0 90 3d 60
        E 0 90 49 60
        E 0 90 55 60
        E 0 90 61 60
        E 0 90 74 60
        E 120 80 3d 00
        E 0 80 49 00
        E 240 80 55 00
        E 0 80 61 00
        E 120 90 3d 60
        E 0 90 49 60
        E 0 90 55 60
        E 0 90 60 60
        E 60 80 60 00
        E 0 90 61 60
        E 60 80 3d 00
        E 0 80 49 00
        E 240 80 55 00
        E 0 80 61 00
        E 120 90 3d 60
        E 0 90 49 60
        E 0 90 55 60
        E 0 90 60 60
        E 60 80 60 00
        E 0 90 61 60
        E 60 80 3d 00
        E 0 80 49 00
        E 240 80 55 00
        E 0 80 61 00
        E 120 90 3d 60
        E 0 90 49 60
        E 0 90 55 60
        E 0 90 60 60
        E 60 80 60 00
        E 0 90 61 60
        E 60 80 3d 00
        E 0 80 49 00
        E 240 80 55 00
        E 0 80 61 00
        E 120 90 3d 60
        E 0 90 49 60
        E 0 90 55 60
        E 0 90 60 60
        E 60 80 60 00
        E 0 90 61 60
        E 60 80 3d 00
        E 0 80 49 00
        E 240 80 55 00
        E 0 80 61 00
        E 120 90 48 60
        E 0 90 54 60
        E 0 90 60 60
        E 60 80 48 00
        E 0 80 54 00
        E 0 80 60 00
        E 0 90 61 60
        E 60 80 31 00
        E 0 80 61 00
        E 120 90 34 60
        E 0 90 55 60
        E 0 90 61 60
        E 120 80 55 00
        E 0 80 61 00
        E 120 90 3e 60
        E 0 90 4a 60
        E 0 90 56 60
        E 0 90 62 60
        E 120 80 3e 00
        E 0 80 4a 00
        E 0 80 56 00
        E 0 80 62 00
        E 120 90 55 60
        E 0 90 61 60
        E 120 80 34 00
        E 0 80 55 00
        E 0 80 61 00
        E 120 90 31 60
        E 0 90 4b 60
        E 0 90 58 60
        E 0 90 64 60
        E 120 80 4b 00
        E 0 80 58 00
        E 0 80 64 00
        E 120 90 57 60
        E 0 90 63 60
        E 120 80 57 00
        E 0 80 63 00
        E 120 80 74 00
        E 0 90 3c 60
        E 0 90 48 60
        E 0 90 54 60
        E 0 90 60 60
        E 120 80 3c 00
        E 0 80 48 00
        E 0 80 54 00
        E 0 80 60 00
        E 0 90 61 60
        E 120 80 61 00
        E 0 90 56 60
        E 0 90 62 60
        E 120 80 56 00
        E 0 80 62 00
        E 120 90 4b 60
        E 0 90 57 60
        E 0 90 63 60
        E 120 80 4b 00
        E 240 80 57 00
        E 0 80 63 00
        E 120 90 3e 60
        E 0 90 4b 60
        E 0 90 57 60
        E 0 90 63 60
        E 120 80 3e 00
        E 0 80 4b 00
        E 0 80 57 00
        E 0 80 63 00
        E 120 90 4b 60
        E 0 90 58 60
        E 0 90 64 60
        E 120 80 4b 00
        E 0 80 58 00
        E 0 80 64 00
        E 120 90 3e 60
        E 0 90 4b 60
        E 0 90 57 60
        E 0 90 63 60
        E 120 80 3e 00
        E 0 80 4b 00
        E 0 80 57 00
        E 0 80 63 00
        E 120 90 56 60
        E 0 90 62 60
        E 120 80 56 00
        E 0 80 62 00
        E 120 90 3e 60
        E 0 90 4b 60
        E 0 90 58 60
        E 0 90 64 60
        E 120 80 3e 00
        E 0 80 4b 00
        E 0 80 58 00
        E 0 80 64 00
        E 120 90 4b 60
        E 0 90 58 60
        E 0 90 62 60
        E 120 80 4b 00
        E 0 80 58 00
        E 0 80 62 00
        E 0 90 64 60
        E 120 80 64 00
        E 120 90 58 60
        E 0 90 62 60
        E 120 80 58 00
        E 0 80 62 00
        E 0 90 64 60
        E 120 80 64 00
        E 120 90 3e 60
        E 0 90 4b 60
        E 0 90 58 60
        E 0 90 64 60
        E 120 80 3e 00
        E 0 80 4b 00
        E 0 80 58 00
        E 0 80 64 00
        E 120 90 56 60
        E 0 90 62 60
        E 120 80 56 00
        E 0 80 62 00
        E 120 90 3e 60
        E 0 90 4b 60
        E 0 90 58 60
        E 0 90 64 60
        E 120 80 3e 00
        E 0 80 4b 00
        E 0 80 58 00
        E 0 80 64 00
        E 120 90 56 60
        E 0 90 62 60
        E 120 80 31 00
        E 0 80 56 00
        E 0 80 62 00
        E 120 90 2f 60
        E 0 90 3e 60
        E 0 90 4b 60
        E 0 90 57 60
        E 0 90 63 60
        E 120 80 3e 00
        E 0 80 4b 00
        E 240 80 2f 00
        E 0 80 57 00
        E 0 80 63 00
        E 120 90 2d 60
        E 0 90 48 60
        E 0 90 54 60
        E 0 90 60 60
        E 120 80 48 00
        E 240 80 2d 00
        E 0 80 54 00
        E 0 80 60 00
        E 120 90 31 60
        E 0 90 3d 60
        E 0 90 49 60
        E 0 90 55 60
        E 0 90 61 60
        E 120 80 3d 00
        E 0 80 49 00
        E 240 80 55 00
        E 0 80 61 00
        E 120 90 4a 60
        E 0 90 56 60
        E 0 90 62 60
        E 120 80 4a 00
        E 240 80 56 00
        E 0 80 62 00
        E 240 80 31 00
        E 120 90 2d 60
        E 0 90 4b 60
        E 0 90 57 60
        E 0 90 63 60
        E 120 80 4b 00
        E 0 80 57 00
        E 0 80 63 00
        E 120 90 3e 60
        E 0 90 4b 60
        E 0 90 58 60
        E 0 90 64 60
        E 120 80 3e 00
        E 0 80 4b 00
        E 0 80 58 00
        E 0 80 64 00
        E 120 90 4b 60
        E 0 90 58 60
        E 0 90 64 60
        E 120 80 4b 00
        E 0 80 58 00
        E 0 80 64 00
        E 120 90 3e 60
        E 0 90 4b 60
        E 0 90 58 60
        E 0 90 64 60
        E 120 80 3e 00
        E 0 80 4b 00
        E 0 80 58 00
        E 0 80 64 00
        E 120 90 56 60
        E 0 90 62 60
        E 120 80 56 00
        E 0 80 62 00
        E 120 90 3e 60
        E 0 90 4b 60
        E 0 90 57 60
        E 0 90 63 60
        E 120 80 3e 00
        E 0 80 4b 00
        E 240 80 2d 00
        E 0 80 57 00
        E 0 80 63 00
        E 120 90 2d 60
        E 0 90 3e 60
        E 0 90 4b 60
        E 0 90 58 60
        E 0 90 64 60
        E 120 80 3e 00
        E 0 80 4b 00
        E 0 80 58 00
        E 0 80 64 00
        E 0 90 63 60
        E 120 80 63 00
        E 0 90 56 60
        E 0 90 62 60
        E 120 80 56 00
        E 0 80 62 00
        E 0 90 64 60
        E 120 80 64 00
        E 0 90 3e 60
        E 0 90 4b 60
        E 0 90 57 60
        E 0 90 63 60
        E 120 80 3e 00
        E 0 80 4b 00
        E 0 80 57 00
        E 0 80 63 00
        E 0 90 62 60
        E 120 80 62 00
        E 0 90 58 60
        E 0 90 64 60
        E 120 80 58 00
        E 0 80 64 00
        E 0 90 63 60
        E 120 80 63 00
        E 0 90 3e 60
        E 0 90 4a 60
        E 0 90 56 60
        E 0 90 62 60
        E 120 80 3e 00
        E 0 80 4a 00
        E 0 80 56 00
        E 0 80 62 00
        E 0 90 64 60
        E 120 80 64 00
        E 0 90 57 60
        E 0 90 63 60
        E 120 80 57 00
        E 0 80 63 00
        E 0 90 62 60
        E 120 80 62 00
        E 0 90 3e 60
        E 0 90 4b 60
        E 0 90 58 60
        E 0 90 64 60
        E 80 80 3e 00
        E 0 80 4b 00
        E 0 80 58 00
        E 0 80 64 00
        E 0 90 63 60
        E 80 80 63 00
        E 0 90 62 60
        E 80 80 62 00
        E 0 90 4b 60
        E 0 90 58 60
        E 0 90 64 60
        E 80 80 4b 00
        E 0 80 58 00
        E 0 80 64 00
        E 0 90 63 60
        E 80 80 63 00
        E 0 90 62 60
        E 80 80 62 00
        E 0 90 74 60
        E 120 80 2d 00
        E 120 90 3b 60
        E 0 90 4b 60
        E 0 90 58 60
        E 0 90 64 60
        E 120 80 4b 00
        E 0 80 58 00
        E 0 80 64 00
        E 0 90 62 60
        E 120 80 62 00
        E 0 90 3e 60
        E 0 90 4b 60
        E 0 90 57 60
        E 0 90 63 60
        E 120 80 3e 00
        E 0 80 4b 00
        E 0 80 57 00
        E 0 80 63 00
        E 0 90 62 60
        E 120 80 62 00
        E 0 90 55 60
        E 0 90 61 60
        E 120 80 55 00
        E 0 80 61 00
        E 0 90 62 60
        E 120 80 62 00
        E 0 90 3e 60
        E 0 90 4b 60
        E 0 90 57 60
        E 0 90 63 60
        E 120 80 3e 00
        E 0 80 4b 00
        E 240 80 3b 00
        E 0 80 57 00
        E 0 80 63 00
        E 120 90 3b 60
        E 0 90 4b 60
        E 0 90 4c 60
        E 0 90 57 60
        E 0 90 58 60
        E 0 90 63 60
        E 0 90 64 60
        E 120 80 4b 00
        E 0 80 4c 00
        E 240 80 57 00
        E 0 80 58 00
        E 0 80 63 00
        E 0 80 64 00
        E 120 80 74 00
        E 0 90 3e 60
        E 0 90 4b 60
        E 0 90 57 60
        E 0 90 63 60
        E 120 80 3e 00
        E 0 80 4b 00
        E 240 80 57 00
        E 0 80 63 00
        E 120 90 3e 60
        E 0 90 4b 60
        E 0 90 58 60
        E 0 90 64 60
        E 120 80 3e 00
        E 0 80 4b 00
        E 240 80 3b 00
        E 0 80 58 00
        E 0 80 64 00
        E 120 90 38 60
        E 0 90 3e 60
        E 0 90 4b 60
        E 0 90 57 60
        E 0 90 63 60
        E 120 80 3e 00
        E 0 80 4b 00
        E 0 80 57 00
        E 0 80 63 00
        E 120 90 4b 60
        E 0 90 58 60
        E 0 90 64 60
        E 120 80 4b 00
        E 0 80 58 00
        E 0 80 64 00
        E 120 90 3e 60
        E 0 90 4b 60
        E 0 90 57 60
        E 0 90 63 60
        E 120 80 3e 00
        E 0 80 4b 00
        E 240 80 57 00
        E 0 80 63 00
        E 120 90 3e 60
        E 0 90 4b 60
        E 0 90 57 60
        E 0 90 63 60
        E 120 80 3e 00
        E 0 80 4b 00
        E 0 80 57 00
        E 0 80 63 00
        E 120 90 4b 60
        E 0 90 57 60
        E 0 90 63 60
        E 120 80 4b 00
        E 0 80 57 00
        E 0 80 63 00
        E 120 90 3e 60
        E 0 90 4b 60
        E 0 90 57 60
        E 0 90 63 60
        E 120 80 3e 00
        E 0 80 4b 00
        E 0 80 57 00
        E 0 80 63 00
        E 120 90 4b 60
        E 0 90 57 60
        E 0 90 63 60
        E 120 80 4b 00
        E 0 80 57 00
        E 0 80 63 00
        E 120 90 3e 60
        E 0 90 4b 60
        E 0 90 57 60
        E 0 90 63 60
        E 120 80 3e 00
        E 0 80 4b 00
        E 0 80 57 00
        E 0 80 63 00
        E 120 90 4b 60
        E 0 90 57 60
        E 0 90 63 60
        E 120 80 4b 00
        E 0 80 57 00
        E 0 80 63 00
        E 120 90 3e 60
        E 0 90 4b 60
        E 0 90 57 60
        E 0 90 63 60
        E 120 80 3e 00
        E 0 80 4b 00
        E 0 80 57 00
        E 0 80 63 00
        E 120 90 4b 60
        E 0 90 57 60
        E 0 90 63 60
        E 120 80 4b 00
        E 0 80 57 00
        E 0 80 63 00
        E 120 90 3e 60
        E 0 90 4b 60
        E 0 90 57 60
        E 0 90 63 60
        E 120 80 3e 00
        E 0 80 4b 00
        E 0 80 57 00
        E 0 80 63 00
        E 120 90 56 60
        E 0 90 62 60
        E 120 80 38 00
        E 0 80 56 00
        E 0 80 62 00
        E 120 90 3b 60
        E 0 90 3e 60
        E 0 90 4a 60
        E 0 90 56 60
        E 0 90 62 60
        E 120 80 3e 00
        E 0 80 4a 00
        E 240 80 56 00
        E 0 80 62 00
        E 120 90 3e 60
        E 0 90 4a 60
        E 0 90 56 60
        E 0 90 62 60
        E 120 80 3b 00
        E 0 80 3e 00
        E 0 80 4a 00
        E 0 80 56 00
        E 0 80 62 00
        E 120 90 37 60
        E 0 90 55 60
        E 0 90 61 60
        E 120 80 55 00
        E 0 80 61 00
        E 120 90 49 60
        E 0 90 55 60
        E 0 90 61 60
        E 120 80 49 00
        E 240 80 55 00
        E 0 80 61 00
        E 120 90 3d 60
        E 0 90 49 60
        E 0 90 55 60
        E 0 90 61 60
        E 120 80 3d 00
        E 0 80 49 00
        E 0 80 55 00
        E 0 80 61 00
        E 280 90 60 60
        E 80 80 60 00
        E 0 90 3d 60
        E 0 90 49 60
        E 0 90 55 60
        E 0 90 61 60
        E 120 80 3d 00
        E 0 80 49 00
        E 0 80 55 00
        E 0 80 61 00
        E 0 90 60 60
        E 120 80 60 00
        E 0 90 49 60
        E 0 90 55 60
        E 0 90 61 60
        E 120 80 37 00
        E 0 80 49 00
        E 0 80 55 00
        E 0 80 61 00
        E 0 90 60 60
        E 120 80 60 00
        E 0 90 38 60
        E 0 90 3d 60
        E 0 90 49 60
        E 0 90 55 60
        E 0 90 61 60
        E 120 80 3d 00
        E 0 80 49 00
        E 0 80 55 00
        E 0 80 61 00
        E 120 90 57 60
        E 0 90 63 60
        E 120 80 57 00
        E 0 80 63 00
        E 120 90 4b 60
        E 0 90 57 60
        E 0 90 63 60
        E 120 80 4b 00
        E 0 80 57 00
        E 0 80 63 00
        E 120 90 55 60
        E 0 90 61 60
        E 120 80 55 00
        E 0 80 61 00
        E 120 90 3d 60
        E 0 90 49 60
        E 0 90 55 60
        E 0 90 61 60
        E 120 80 3d 00
        E 0 80 49 00
        E 240 80 55 00
        E 0 80 61 00
        E 120 90 3d 60
        E 0 90 49 60
        E 0 90 55 60
        E 0 90 61 60
        E 120 80 3d 00
        E 0 80 49 00
        E 240 80 55 00
        E 0 80 61 00
        E 120 90 3d 60
        E 0 90 49 60
        E 0 90 55 60
        E 0 90 61 60
        E 120 80 3d 00
        E 0 80 49 00
        E 240 80 55 00
        E 0 80 61 00
        E 120 90 49 60
        E 0 90 55 60
        E 0 90 61 60
        E 120 80 49 00
        E 0 80 55 00
        E 0 80 61 00
        E 120 90 54 60
        E 0 90 60 60
        E 120 80 54 00
        E 0 80 60 00
        E 120 90 3c 60
        E 0 90 48 60
        E 0 90 54 60
        E 0 90 60 60
        E 120 80 3c 00
        E 0 80 48 00
        E 0 80 54 00
        E 0 80 60 00
        E 120 90 56 60
        E 0 90 62 60
        E 120 80 56 00
        E 0 80 62 00
        E 120 90 48 60
        E 0 90 54 60
        E 0 90 60 60
        E 120 80 48 00
        E 240 80 38 00
        E 0 80 54 00
        E 0 80 60 00
        E 120 90 31 60
        E 0 90 3e 60
        E 0 90 4b 60
        E 0 90 58 60
        E 0 90 64 60
        E 120 80 3e 00
        E 0 80 4b 00
        E 0 80 58 00
        E 0 80 64 00
        E 120 90 57 60
        E 0 90 63 60
        E 120 80 57 00
        E 0 80 63 00
        E 120 90 4a 60
        E 0 90 56 60
        E 0 90 62 60
        E 120 80 4a 00
        E 0 80 56 00
        E 0 80 62 00
        E 120 90 54 60
        E 0 90 60 60
        E 120 80 54 00
        E 0 80 60 00
        E 120 90 3d 60
        E 0 90 49 60
        E 0 90 55 60
        E 0 90 61 60
        E 5760 80 67 00
        E 0 80 31 00
        E 0 80 3d 00
        E 0 80 49 00
        E 0 80 55 00
        E 0 80 61 00
        <X 120 0
          /wFbaWRsZV9yZWFsdGltZV0=
        >
        E 5640 b0 7b 00
        GUID {7934F43B-5101-4246-9DBD-03A9FAB2BA67}
        IGNTEMPO 0 120.00000000 4 4
        SRCCOLOR 9
        VELLANE 132 100 100
        COLORMAP "C:\Program Files (x86)\REAPER\Data\color_maps\rockband_guitarbass.png"
        CFGEDITVIEW 38429.930891 138.533802 0 12 0 0 0
        CFGEDIT 1 1 0 1 1 0 1 1 1 1 1 0.25000000 -8 0 1364 744 0 2 1 2 0.00000000 0 1 0 0 0.500000 0 0 1.000000 64
        KEYSNAP 0 0 "100304450070" 0 "Blues"
        EVTFILTER 0 -1 -1 100 114 0 0 1 0 -1.00000000 -1.00000000
      >
    >
  >
  <TRACK '{84B8FDE7-E9DA-4C47-8BAA-9B9189875625}'
    NAME "PART BASS"
    PEAKCOL 16576
    BEAT -1
    AUTOMODE 0
    VOLPAN 1.00000000000000 0.00000000000000 -1.00000000000000 -1.00000000000000 1.00000000000000
    MUTESOLO 0 0 0
    IPHASE 0
    ISBUS 0 0
    BUSCOMP 0 0
    SHOWINMIX 1 0.666700 0.500000 1 0.500000 -1 -1 -1
    FREEMODE 0
    SEL 0
    REC 0 0 0 0 0 0 0
    VU 2
    TRACKHEIGHT 0 0
    INQ 0 0 0 0.5000000000 100 0 0 100
    NCHAN 2
    FX 1
    TRACKID {84B8FDE7-E9DA-4C47-8BAA-9B9189875625}
    PERF 0
    MIDIOUT -1
    <MIDINOTENAMES
      0 127 "Trill Marker"
      0 126 "Tremolo Marker"
      0 125 "---"
      0 124 "BRE"
      0 123 "BRE"
      0 122 "BRE"
      0 121 "BRE"
      0 120 "BRE (use all 5)"
      0 119 "----"
      0 116 "OVERDRIVE"
      0 111 "----"
      0 103 "Solo Marker"
      0 102 "Force HOPO Off"
      0 101 "Force HOPO On"
      0 100 "EXPERT Orange"
      0 99 "EXPERT Blue"
      0 98 "EXPERT Yellow"
      0 97 "EXPERT Red"
      0 96 "EXPERT Green"
      0 91 "----"
      0 90 "Force HOPO Off"
      0 89 "Force HOPO On"
      0 88 "HARD Orange"
      0 87 "HARD Blue"
      0 86 "HARD Yellow"
      0 85 "HARD Red"
      0 84 "HARD Green"
      0 80 "----"
      0 76 "MEDIUM Orange"
      0 75 "MEDIUM Blue"
      0 74 "MEDIUM Yellow"
      0 73 "MEDIUM Red"
      0 72 "MEDIUM Green"
      0 68 "----"
      0 64 "EASY Orange"
      0 63 "EASY Blue"
      0 62 "EASY Yellow"
      0 61 "EASY Red"
      0 60 "EASY Green"
      0 59 "Left Hand Highest (Fret 12)"
      0 58 "-"
      0 57 "Fret 11"
      0 56 "Fret 10"
      0 55 "Fret 9"
      0 54 "-"
      0 53 "Fret 8"
      0 52 "Fret 7"
      0 51 "-"
      0 50 "Fret 6"
      0 49 "Fret 5"
      0 48 "-"
      0 47 "Fret 4"
      0 46 "-"
      0 45 "Fret 3"
      0 44 "-"
      0 43 "Fret 2"
      0 42 "-"
      0 41 "-"
      0 40 "Left Hand Lowest (Fret 1)"
    >
    MAINSEND 1 0
    <FXCHAIN
      SHOW 0
      LASTSEL 0
      DOCKED 0
    >
    <ITEM
      POSITION 0.00000000000000
      SNAPOFFS 0.00000000000000
      LENGTH 87.58319334564294
      LOOP 0
      ALLTAKES 0
      SEL 0
      FADEIN 1 0.000000 0.000000 1 0
      FADEOUT 1 0.000000 0.000000 1 0
      MUTE 0
      IGUID {73C7A0D4-AC21-4971-BAE0-EEBE51977A2D}
      IID 16
      NAME "PART BASS"
      VOLPAN 1.000000 0.000000 1.000000 -1.000000
      SOFFS 0.00000000000000 0.00000000000000
      PLAYRATE 1.00000000000000 1 0.00000000000000 -1
      CHANMODE 0
      GUID {B4679BF1-9AB3-4B9F-ADE2-7FD3AD035742}
      <SOURCE MIDI
        HASDATA 1 480 QN
        POOLEDEVTS {97BFD352-DCED-47CE-80D5-D5404663AB8C}
        <X 5760 0
          /wFbbWFwIFN0cnVtTWFwX1BpY2td
        >
        <X 0 0
          /wFbaWRsZV0=
        >
        <X 30720 0
          /wFbcGxheV0=
        >
        E 0 90 31 60
        E 0 90 3e 60
        E 0 90 4a 60
        E 0 90 56 60
        E 0 90 62 60
        E 480 80 3e 00
        E 0 80 4a 00
        E 360 80 56 00
        E 0 80 62 00
        E 120 90 3e 60
        E 0 90 4a 60
        E 0 90 56 60
        E 0 90 62 60
        E 120 80 3e 00
        E 0 80 4a 00
        E 240 80 56 00
        E 0 80 62 00
        E 120 90 4a 60
        E 0 90 56 60
        E 0 90 62 60
        E 120 80 31 00
        E 0 80 4a 00
        E 0 80 56 00
        E 0 80 62 00
        E 120 90 37 60
        E 0 90 57 60
        E 0 90 63 60
        E 0 90 65 60
        E 120 80 57 00
        E 0 80 63 00
        E 0 80 65 00
        E 120 90 40 60
        E 0 90 4c 60
        E 0 90 58 60
        E 0 90 64 60
        E 480 80 40 00
        E 0 80 4c 00
        E 360 80 58 00
        E 0 80 64 00
        E 120 90 40 60
        E 0 90 4c 60
        E 0 90 58 60
        E 0 90 64 60
        E 120 80 40 00
        E 0 80 4c 00
        E 240 80 58 00
        E 0 80 64 00
        E 120 90 4c 60
        E 0 90 58 60
        E 0 90 64 60
        E 120 80 37 00
        E 0 80 4c 00
        E 0 80 58 00
        E 0 80 64 00
        E 120 90 2f 60
        E 0 90 55 60
        E 0 90 61 60
        E 120 80 55 00
        E 0 80 61 00
        E 120 90 3d 60
        E 0 90 49 60
        E 0 90 55 60
        E 0 90 61 60
        E 0 90 74 60
        E 480 80 3d 00
        E 0 80 49 00
        E 360 80 55 00
        E 0 80 61 00
        E 120 90 3d 60
        E 0 90 49 60
        E 0 90 55 60
        E 0 90 61 60
        E 480 80 3d 00
        E 0 80 49 00
        E 360 80 55 00
        E 0 80 61 00
        E 120 90 3d 60
        E 0 90 49 60
        E 0 90 55 60
        E 0 90 61 60
        E 480 80 3d 00
        E 0 80 49 00
        E 360 80 55 00
        E 0 80 61 00
        E 120 90 3d 60
        E 0 90 49 60
        E 0 90 55 60
        E 0 90 61 60
        E 480 80 3d 00
        E 0 80 49 00
        E 360 80 2f 00
        E 0 80 55 00
        E 0 80 61 00
        E 120 80 74 00
        E 0 90 31 60
        E 0 90 3e 60
        E 0 90 4a 60
        E 0 90 56 60
        E 0 90 62 60
        E 480 80 3e 00
        E 0 80 4a 00
        E 360 80 56 00
        E 0 80 62 00
        E 120 90 3e 60
        E 0 90 4a 60
        E 0 90 56 60
        E 0 90 62 60
        E 120 80 3e 00
        E 0 80 4a 00
        E 480 80 56 00
        E 0 80 62 00
        E 120 90 49 60
        E 0 90 55 60
        E 0 90 61 60
        E 120 80 31 00
        E 0 80 49 00
        E 0 80 55 00
        E 0 80 61 00
        E 120 90 2b 60
        E 0 90 3d 60
        E 0 90 49 60
        E 0 90 55 60
        E 0 90 61 60
        E 120 80 3d 00
        E 0 80 49 00
        E 480 80 55 00
        E 0 80 61 00
        E 120 90 49 60
        E 0 90 55 60
        E 0 90 61 60
        E 120 80 49 00
        E 0 80 55 00
        E 0 80 61 00
        E 120 90 3d 60
        E 0 90 49 60
        E 0 90 55 60
        E 0 90 61 60
        E 120 80 3d 00
        E 0 80 49 00
        E 480 80 2b 00
        E 0 80 55 00
        E 0 80 61 00
        E 120 90 2f 60
        E 0 90 48 60
        E 0 90 54 60
        E 0 90 60 60
        E 120 80 48 00
        E 0 80 54 00
        E 0 80 60 00
        E 120 90 3c 60
        E 0 90 48 60
        E 0 90 54 60
        E 0 90 60 60
        E 120 80 3c 00
        E 0 80 48 00
        E 480 80 54 00
        E 0 80 60 00
        E 120 90 48 60
        E 0 90 54 60
        E 0 90 60 60
        E 120 80 48 00
        E 0 80 54 00
        E 0 80 60 00
        E 120 90 3c 60
        E 0 90 48 60
        E 0 90 54 60
        E 0 90 60 60
        E 120 80 3c 00
        E 0 80 48 00
        E 480 80 54 00
        E 0 80 60 00
        E 120 90 48 60
        E 0 90 54 60
        E 0 90 60 60
        E 120 80 48 00
        E 0 80 54 00
        E 0 80 60 00
        E 120 90 3c 60
        E 0 90 48 60
        E 0 90 54 60
        E 0 90 60 60
        E 120 80 2f 00
        E 0 80 3c 00
        E 0 80 48 00
        E 0 80 54 00
        E 0 80 60 00
        E 120 90 2b 60
        E 0 90 55 60
        E 0 90 61 60
        E 120 80 55 00
        E 0 80 61 00
        E 120 90 4a 60
        E 0 90 56 60
        E 0 90 62 60
        E 120 80 4a 00
        E 240 80 2b 00
        E 0 80 56 00
        E 0 80 62 00
        E 120 90 34 60
        E 0 90 3e 60
        E 0 90 4a 60
        E 0 90 56 60
        E 0 90 62 60
        E 120 80 3e 00
        E 0 80 4a 00
        E 0 80 56 00
        E 0 80 62 00
        E 120 90 57 60
        E 0 90 63 60
        E 0 90 65 60
        E 120 80 57 00
        E 0 80 63 00
        E 0 80 65 00
        E 120 90 4c 60
        E 0 90 58 60
        E 0 90 64 60
        E 120 80 4c 00
        E 240 80 34 00
        E 0 80 58 00
        E 0 80 64 00
        E 120 90 2d 60
        E 0 90 3e 60
        E 0 90 4a 60
        E 0 90 56 60
        E 0 90 62 60
        E 120 80 3e 00
        E 0 80 4a 00
        E 480 80 56 00
        E 0 80 62 00
        E 120 90 4a 60
        E 0 90 56 60
        E 0 90 62 60
        E 120 80 4a 00
        E 0 80 56 00
        E 0 80 62 00
        E 120 90 3e 60
        E 0 90 4a 60
        E 0 90 56 60
        E 0 90 62 60
        E 120 80 3e 00
        E 0 80 4a 00
        E 480 80 56 00
        E 0 80 62 00
        E 120 90 49 60
        E 0 90 55 60
        E 0 90 61 60
        E 120 80 2d 00
        E 0 80 49 00
        E 0 80 55 00
        E 0 80 61 00
        E 120 90 2b 60
        E 0 90 3d 60
        E 0 90 49 60
        E 0 90 55 60
        E 0 90 61 60
        E 0 90 74 60
        E 120 80 3d 00
        E 0 80 49 00
        E 480 80 55 00
        E 0 80 61 00
        E 120 90 49 60
        E 0 90 55 60
        E 0 90 61 60
        E 120 80 49 00
        E 0 80 55 00
        E 0 80 61 00
        E 120 90 3d 60
        E 0 90 49 60
        E 0 90 55 60
        E 0 90 61 60
        E 120 80 3d 00
        E 0 80 49 00
        E 480 80 55 00
        E 0 80 61 00
        E 120 90 48 60
        E 0 90 54 60
        E 0 90 60 60
        E 120 80 48 00
        E 0 80 54 00
        E 0 80 60 00
        E 120 80 74 00
        E 0 90 3c 60
        E 0 90 48 60
        E 0 90 54 60
        E 0 90 60 60
        E 120 80 3c 00
        E 0 80 48 00
        E 480 80 54 00
        E 0 80 60 00
        E 120 90 48 60
        E 0 90 54 60
        E 0 90 60 60
        E 120 80 48 00
        E 0 80 54 00
        E 0 80 60 00
        E 120 90 3c 60
        E 0 90 48 60
        E 0 90 54 60
        E 0 90 60 60
        E 120 80 3c 00
        E 0 80 48 00
        E 480 80 54 00
        E 0 80 60 00
        E 120 90 48 60
        E 0 90 54 60
        E 0 90 60 60
        E 120 80 48 00
        E 0 80 54 00
        E 0 80 60 00
        E 120 90 3c 60
        E 0 90 48 60
        E 0 90 54 60
        E 0 90 60 60
        E 120 80 3c 00
        E 0 80 48 00
        E 0 80 54 00
        E 0 80 60 00
        E 120 90 48 60
        E 0 90 54 60
        E 0 90 60 60
        E 120 80 48 00
        E 0 80 54 00
        E 0 80 60 00
        E 120 90 3c 60
        E 0 90 48 60
        E 0 90 54 60
        E 0 90 60 60
        E 120 80 3c 00
        E 0 80 48 00
        E 240 80 54 00
        E 0 80 60 00
        E 120 90 3c 60
        E 0 90 48 60
        E 0 90 54 60
        E 0 90 60 60
        E 120 80 3c 00
        E 0 80 48 00
        E 0 80 54 00
        E 0 80 60 00
        E 120 90 48 60
        E 0 90 54 60
        E 0 90 60 60
        E 120 80 48 00
        E 0 80 54 00
        E 0 80 60 00
        E 120 90 48 60
        E 0 90 54 60
        E 0 90 60 60
        E 120 80 48 00
        E 240 80 54 00
        E 0 80 60 00
        E 120 90 3e 60
        E 0 90 4a 60
        E 0 90 56 60
        E 0 90 62 60
        E 480 80 3e 00
        E 0 80 4a 00
        E 360 80 56 00
        E 0 80 62 00
        E 120 90 3e 60
        E 0 90 4a 60
        E 0 90 56 60
        E 0 90 62 60
        E 480 80 3e 00
        E 0 80 4a 00
        E 120 80 56 00
        E 0 80 62 00
        E 120 90 56 60
        E 0 90 62 60
        E 120 80 56 00
        E 0 80 62 00
        E 120 90 3d 60
        E 0 90 49 60
        E 0 90 55 60
        E 0 90 61 60
        E 120 80 3d 00
        E 0 80 49 00
        E 480 80 55 00
        E 0 80 61 00
        E 120 90 49 60
        E 0 90 55 60
        E 0 90 61 60
        E 120 80 49 00
        E 0 80 55 00
        E 0 80 61 00
        E 120 90 3d 60
        E 0 90 49 60
        E 0 90 55 60
        E 0 90 61 60
        E 480 80 3d 00
        E 0 80 49 00
        E 0 80 55 00
        E 0 80 61 00
        E 480 90 3c 60
        E 0 90 48 60
        E 0 90 54 60
        E 0 90 60 60
        E 480 80 3c 00
        E 0 80 48 00
        E 360 80 54 00
        E 0 80 60 00
        E 120 90 3c 60
        E 0 90 48 60
        E 0 90 54 60
        E 0 90 60 60
        E 120 80 3c 00
        E 0 80 48 00
        E 480 80 54 00
        E 0 80 60 00
        E 120 90 48 60
        E 0 90 54 60
        E 0 90 60 60
        E 120 80 48 00
        E 0 80 54 00
        E 0 80 60 00
        E 120 90 3c 60
        E 0 90 48 60
        E 0 90 54 60
        E 0 90 60 60
        E 120 80 3c 00
        E 0 80 48 00
        E 0 80 54 00
        E 0 80 60 00
        E 120 90 48 60
        E 0 90 54 60
        E 0 90 60 60
        E 120 80 48 00
        E 0 80 54 00
        E 0 80 60 00
        E 120 90 3c 60
        E 0 90 48 60
        E 0 90 54 60
        E 0 90 60 60
        E 120 80 3c 00
        E 0 80 48 00
        E 240 80 54 00
        E 0 80 60 00
        E 120 90 3c 60
        E 0 90 48 60
        E 0 90 54 60
        E 0 90 60 60
        E 120 80 3c 00
        E 0 80 48 00
        E 0 80 54 00
        E 0 80 60 00
        E 120 90 48 60
        E 0 90 54 60
        E 0 90 60 60
        E 120 80 48 00
        E 0 80 54 00
        E 0 80 60 00
        E 600 90 3c 60
        E 0 90 48 60
        E 0 90 54 60
        E 0 90 60 60
        <X 5760 0
          /wFbaWRsZV9yZWFsdGltZV0=
        >
        E 0 80 2b 00
        E 0 80 3c 00
        E 0 80 48 00
        E 0 80 54 00
        E 0 80 60 00
        E 5760 b0 7b 00
        GUID {E3CAAE04-B36A-4735-9087-EBF2F5BB3A59}
        IGNTEMPO 0 120.00000000 4 4
        SRCCOLOR 11
        VELLANE 132 100 100
        COLORMAP "C:\Users\Ruggery\AppData\Roaming\Reaper\Data\color_maps\rockband_guitarbass.png"
        CFGEDITVIEW 37545.875622 132.360388 0 12 0 0 0
        CFGEDIT 1 1 0 1 1 0 1 1 1 1 1 0.25000000 -8 0 1364 744 0 2 1 2 0.00000000 0 1 0 0 0.500000 0 0 1.000000 64
        KEYSNAP 0 0 "100304450070" 0 "Blues"
        EVTFILTER 0 -1 -1 100 114 0 0 1 0 -1.00000000 -1.00000000
      >
    >
  >
  <TRACK '{CBEF5BD7-CDE4-4F9F-BA4C-F13EC7F56FB6}'
    NAME "PART VOCALS"
    PEAKCOL 16576
    BEAT -1
    AUTOMODE 0
    VOLPAN 1.00000000000000 0.00000000000000 -1.00000000000000 -1.00000000000000 1.00000000000000
    MUTESOLO 0 0 0
    IPHASE 0
    ISBUS 0 0
    BUSCOMP 0 0
    SHOWINMIX 1 0.666700 0.500000 1 0.500000 -1 -1 -1
    FREEMODE 0
    SEL 0
    REC 0 0 0 0 0 0 0
    VU 2
    TRACKHEIGHT 0 0
    INQ 0 0 0 0.5000000000 100 0 0 100
    NCHAN 2
    FX 0
    TRACKID {CBEF5BD7-CDE4-4F9F-BA4C-F13EC7F56FB6}
    PERF 0
    MIDIOUT -1
    <MIDINOTENAMES
      0 116 "OVERDRIVE"
      0 105 "Phrase Marker"
      0 95 "----"
      0 84 "UNUSED C5 Note"
      0 83 "Highest Note B4"
      0 82 "A#4"
      0 81 "A4"
      0 80 "G#4"
      0 79 "G4"
      0 78 "F#4"
      0 77 "F4"
      0 76 "E4"
      0 75 "D#4"
      0 74 "D4"
      0 73 "C#4"
      0 72 "C4"
      0 71 "B3"
      0 70 "A#3"
      0 69 "A3"
      0 68 "G#3"
      0 67 "G3"
      0 66 "F#3"
      0 65 "F3"
      0 64 "E3"
      0 63 "D#3"
      0 62 "D3"
      0 61 "C##"
      0 60 "C3"
      0 59 "B2"
      0 58 "A#2"
      0 57 "A2"
      0 56 "G#2"
      0 55 "G2"
      0 54 "F#2"
      0 53 "F2"
      0 52 "E2"
      0 51 "D#2"
      0 50 "D2"
      0 49 "C#2"
      0 48 "C2"
      0 47 "B1"
      0 46 "A#1"
      0 45 "A1"
      0 44 "G#1"
      0 43 "G1"
      0 42 "F#1"
      0 41 "F1"
      0 40 "E1"
      0 39 "D#1"
      0 38 "D1"
      0 37 "C#1"
      0 36 "Lowest Note C1"
      0 2 "---"
      0 1 "Lyric Shift"
      0 0 "Range Shift"
    >
    MAINSEND 1 0
    <FXCHAIN
      WNDRECT 0 42 655 462
      SHOW 0
      LASTSEL 1
      DOCKED 0
      BYPASS 0 0
      <JS "MIDI/midi_note_filter" ""
        36.000000 84.000000 - - - - - - - - - - - - - - - - - - - - - - - - - - - - - - - - - - - - - - - - - - - - - - - - - - - - - - - - - - - - - - 
      >
      FLOATPOS 0 0 0 0
      FXID {36297925-D9AB-4D28-92CB-60AA5C8902CD}
      WAK 0
      BYPASS 0 0
      <VST "VSTi: ReaSynth (Cockos)" "reasynth.dll" 0 ""
        eXNlcu9e7f4AAAAAAgAAAAEAAAAAAAAAAgAAAAAAAAA4AAAAAAAAAA==
        AAAQAO++rd4N8K3eppvEOxe30ToAAIA/AAAAAAAAAADMm4A+6WeIPQ==
        AAAAAAAAAD8AAIA/AACAPwAAAD8AABAAAAA=
      >
      FLOATPOS 0 0 0 0
      FXID {845651AE-9DB7-40C2-AEC2-0ADF78FDF790}
      WAK 0
    >
    <ITEM
      POSITION 0.00000000000000
      SNAPOFFS 0.00000000000000
      LENGTH 87.58319334564294
      LOOP 0
      ALLTAKES 0
      SEL 0
      FADEIN 1 0.000000 0.000000 1 0
      FADEOUT 1 0.000000 0.000000 1 0
      MUTE 0
      IGUID {61B6ED88-00CE-4908-BFCA-546E1E1928BA}
      IID 3
      NAME "PART VOCALS"
      VOLPAN 1.000000 0.000000 1.000000 -1.000000
      SOFFS 0.00000000000000 0.00000000000000
      PLAYRATE 1.00000000000000 1 0.00000000000000 -1
      CHANMODE 0
      GUID {19D8C11F-A91D-4692-A9F7-CFB63F163005}
      <SOURCE MIDI
        HASDATA 1 480 QN
        POOLEDEVTS {2B67E576-58BE-42F4-BC54-22EB4D75D3F2}
        <X 0 0
          /wNQQVJUIFZPQ0FMUw==
        >
        E 4320 90 69 60
        E 0 90 74 60
        <X 90 0
          /wVUaGU=
        >
        E 0 90 2b 60
        E 150 80 2b 00
        <X 90 0
          /wVhbi0=
        >
        E 0 90 30 60
        E 300 80 30 00
        <X 120 0
          /wVnZWxz
        >
        E 0 90 30 60
        E 210 80 30 00
        <X 150 0
          /wVoYXZl
        >
        E 0 90 32 60
        E 210 80 32 00
        <X 150 0
          /wVnb25l
        >
        E 0 90 34 60
        E 360 80 34 00
        <X 90 0
          /wUr
        >
        E 0 90 37 60
        E 990 80 37 00
        E 450 80 69 00
        E 0 80 74 00
        E 0 90 69 60
        <X 480 0
          /wVUaGU=
        >
        E 0 90 32 60
        E 120 80 32 00
        <X 120 0
          /wVzb25ncw==
        >
        E 0 90 34 60
        E 150 80 34 00
        <X 90 0
          /wUr
        >
        E 0 90 32 60
        E 120 80 32 00
        <X 120 0
          /wVoYXZl
        >
        E 0 90 32 60
        E 150 80 32 00
        <X 90 0
          /wVnb25l
        >
        E 0 90 32 60
        E 55 80 32 00 -25
        <X 65 0
          /wUr
        >
        E 0 90 34 60
        E 180 80 34 00
        <X 180 0
          /wVzaS0=
        >
        E 0 90 32 60
        E 150 80 32 00
        <X 60 0
          /wUr
        >
        E 0 90 30 60
        E 210 80 30 00
        <X 60 0
          /wVsZW50
        >
        E 0 90 2d 60
        E 390 80 2d 00
        E 90 80 69 00
        E 1440 90 69 60
        E 0 90 74 60
        <X 240 0
          /wVZb3UncmU=
        >
        E 0 90 2d 60
        E 90 80 2d 00
        <X 150 0
          /wVzaW5rLQ==
        >
        E 0 90 30 60
        E 120 80 30 00
        <X 120 0
          /wVpbic=
        >
        E 0 90 30 60
        E 120 80 30 00
        <X 120 0
          /wVsaWtl
        >
        E 0 90 32 60
        E 90 80 32 00
        <X 150 0
          /wVh
        >
        E 0 90 30 60
        E 90 80 30 00
        <X 150 0
          /wVzdG9uZQ==
        >
        E 0 90 2b 60
        E 660 80 2b 00
        E 300 80 69 00
        E 0 80 74 00
        E 480 90 69 60
        <X 210 0
          /wVCZS0=
        >
        E 0 90 2b 60
        E 120 80 2b 00
        <X 120 0
          /wVmb3Jl
        >
        E 0 90 2b 60
        E 540 80 2b 00
        <X 1140 0
          /wV0aGU=
        >
        E 0 90 2b 60
        E 90 80 2b 00
        <X 150 0
          /wV0aWRl
        >
        E 0 90 2b 60
        E 600 80 2b 00
        E 390 80 69 00
        E 1200 90 69 60
        <X 210 0
          /wVUaGU=
        >
        E 0 90 2b 60
        E 90 80 2b 00
        <X 150 0
          /wVyaXYt
        >
        E 0 90 30 60
        E 150 80 30 00
        <X 120 0
          /wVlcg==
        >
        E 0 90 30 60
        E 90 80 30 00
        <X 90 0
          /wVydW5z
        >
        E 0 90 32 60
        E 540 80 32 00
        <X 240 0
          /wVjb2xk
        >
        E 0 90 32 60
        E 30 80 32 00
        <X 30 0
          /wUr
        >
        E 0 90 34 60
        E 900 80 34 00
        <X 930 0
          /wUr
        >
        E 0 90 32 60
        E 420 80 32 00
        E 90 80 69 00
        E 0 90 69 60
        E 0 90 74 60
        <X 210 0
          /wVUaGU=
        >
        E 0 90 32 60
        E 120 80 32 00
        <X 150 0
          /wVmaWdodA==
        >
        E 0 90 34 60
        E 180 80 34 00
        <X 60 0
          /wUr
        >
        E 0 90 32 60
        E 180 80 32 00
        <X 300 0
          /wVpcw==
        >
        E 0 90 30 60
        E 120 80 30 00
        <X 120 0
          /wVvLQ==
        >
        E 0 90 32 60
        E 300 80 32 00
        <X 180 0
          /wV2ZXI=
        >
        E 0 90 32 60
        E 270 80 32 00
        E 210 80 69 00
        E 0 80 74 00
        E 1920 90 69 60
        <X 420 0
          /wVTdGlsbA==
        >
        E 0 90 3c 60
        E 180 80 3c 00
        <X 60 0
          /wV0aGU=
        >
        E 0 90 39 60
        E 120 80 39 00
        <X 150 0
          /wVoYXVudC0=
        >
        E 0 90 37 60
        E 390 80 37 00
        <X 120 0
          /wVlZA==
        >
        E 0 90 37 60
        E 60 80 37 00
        <X 120 0
          /wVydS0=
        >
        E 0 90 3c 60
        E 210 80 3c 00
        <X 60 0
          /wVpbnM=
        >
        E 0 90 3c 60
        E 240 80 3c 00
        <X 180 0
          /wVvZg==
        >
        E 0 90 3c 60
        E 120 80 3c 00
        <X 150 0
          /wVuaWdodA==
        >
        E 0 90 3c 60
        E 30 80 3c 00
        <X 30 0
          /wUr
        >
        E 0 90 3e 60
        E 270 80 3e 00
        E 210 90 01 60
        E 60 80 01 00
        <X 330 0
          /wVjYWxsIw==
        >
        E 0 90 40 60
        E 330 80 40 00
        <X 120 0
          /wV5b3Vy
        >
        E 0 90 2d 60
        E 90 80 2d 00
        <X 180 0
          /wVuYW1l
        >
        E 0 90 30 60
        E 2250 80 30 00
        E 240 80 69 00
        E 0 90 69 60
        E 0 90 74 60
        <X 480 0
          /wVVaF4=
        >
        E 0 90 30 60
        E 300 80 30 00
        <X 660 0
          /wVvd14=
        >
        E 0 90 40 60
        E 330 80 40 00
        E 30 80 69 00
        E 0 80 74 00
        E 0 90 69 60
        <X 120 0
          /wVBaA==
        >
        E 0 90 40 60
        E 3480 80 40 00
        <X 360 0
          /wUr
        >
        E 0 90 3e 60
        E 1920 80 3e 00
        E 480 80 69 00
        E 960 90 69 60
        E 0 90 74 60
        <X 480 0
          /wVBaA==
        >
        E 0 90 40 60
        E 3600 80 40 00
        <X 240 0
          /wUr
        >
        E 0 90 41 60
        E 2100 80 41 00
        E 300 80 69 00
        E 0 80 74 00
        E 960 90 69 60
        <X 480 0
          /wVBaA==
        >
        E 0 90 40 60
        E 3480 80 40 00
        <X 360 0
          /wUr
        >
        E 0 90 3e 60
        E 1920 80 3e 00
        E 480 80 69 00
        E 960 90 69 60
        <X 480 0
          /wVBaA==
        >
        E 0 90 40 60
        E 1740 80 40 00
        <X 180 0
          /wUr
        >
        E 0 90 3e 60
        E 1800 80 3e 00
        <X 120 0
          /wUr
        >
        E 0 90 40 60
        E 2040 80 40 00
        E 360 80 69 00
        E 12960 b0 7b 00
        GUID {77D67B79-C949-4927-8EB9-3117C6AB06B8}
        IGNTEMPO 0 120.00000000 4 4
        SRCCOLOR 1
        VELLANE 132 100 100
        COLORMAP "C:\Program Files (x86)\REAPER\Data\color_maps\rockband_guitarbass.png"
        CFGEDITVIEW -5567.466302 12.486829 0 12 0 0 0
        CFGEDIT 1 1 0 1 1 0 1 1 1 1 1 0.06250000 -8 -8 1364 736 0 2 1 2 0.00000000 0 1 0 0 0.500000 0 0 1.000000 64
        KEYSNAP 0 0 "100304450070" 0 "Blues"
        EVTFILTER 0 -1 -1 -1 -1 0 1 0 0 -1.00000000 -1.00000000
      >
    >
  >
  <TRACK '{F34B8613-9A4C-43AC-9C69-2F186EC4E797}'
    NAME "HARM1"
    PEAKCOL 16576
    BEAT -1
    AUTOMODE 0
    VOLPAN 1.00000000000000 0.00000000000000 -1.00000000000000 -1.00000000000000 1.00000000000000
    MUTESOLO 0 0 0
    IPHASE 0
    ISBUS 0 0
    BUSCOMP 0 0
    SHOWINMIX 1 0.666700 0.500000 1 0.500000 -1 -1 -1
    FREEMODE 0
    SEL 0
    REC 0 0 0 0 0 0 0
    VU 2
    TRACKHEIGHT 0 0
    INQ 0 0 0 0.5000000000 100 0 0 100
    NCHAN 2
    FX 0
    TRACKID {F34B8613-9A4C-43AC-9C69-2F186EC4E797}
    PERF 0
    MIDIOUT -1
    <MIDINOTENAMES
      0 116 "OVERDRIVE"
      0 105 "Phrase Marker"
      0 95 "----"
      0 84 "UNUSED C5 Note"
      0 83 "Highest Note B4"
      0 82 "A#4"
      0 81 "A4"
      0 80 "G#4"
      0 79 "G4"
      0 78 "F#4"
      0 77 "F4"
      0 76 "E4"
      0 75 "D#4"
      0 74 "D4"
      0 73 "C#4"
      0 72 "C4"
      0 71 "B3"
      0 70 "A#3"
      0 69 "A3"
      0 68 "G#3"
      0 67 "G3"
      0 66 "F#3"
      0 65 "F3"
      0 64 "E3"
      0 63 "D#3"
      0 62 "D3"
      0 61 "C##"
      0 60 "C3"
      0 59 "B2"
      0 58 "A#2"
      0 57 "A2"
      0 56 "G#2"
      0 55 "G2"
      0 54 "F#2"
      0 53 "F2"
      0 52 "E2"
      0 51 "D#2"
      0 50 "D2"
      0 49 "C#2"
      0 48 "C2"
      0 47 "B1"
      0 46 "A#1"
      0 45 "A1"
      0 44 "G#1"
      0 43 "G1"
      0 42 "F#1"
      0 41 "F1"
      0 40 "E1"
      0 39 "D#1"
      0 38 "D1"
      0 37 "C#1"
      0 36 "Lowest Note C1"
      0 2 "---"
      0 1 "Lyric Shift"
      0 0 "Range Shift"
    >
    MAINSEND 1 0
    <FXCHAIN
      WNDRECT 0 42 655 462
      SHOW 0
      LASTSEL 1
      DOCKED 0
      BYPASS 0 0
      <JS "MIDI/midi_note_filter" ""
        36.000000 84.000000 - - - - - - - - - - - - - - - - - - - - - - - - - - - - - - - - - - - - - - - - - - - - - - - - - - - - - - - - - - - - - - 
      >
      FLOATPOS 0 0 0 0
      FXID {36297925-D9AB-4D28-92CB-60AA5C8902CD}
      WAK 0
      BYPASS 0 0
      <VST "VSTi: ReaSynth (Cockos)" "reasynth.dll" 0 ""
        eXNlcu9e7f4AAAAAAgAAAAEAAAAAAAAAAgAAAAAAAAA4AAAAAAAAAA==
        AAAQAO++rd4N8K3eppvEOxe30ToAAIA/AAAAAAAAAADMm4A+6WeIPQ==
        AAAAAAAAAD8AAIA/AACAPwAAAD8AABAAAAA=
      >
      FLOATPOS 0 0 0 0
      FXID {845651AE-9DB7-40C2-AEC2-0ADF78FDF790}
      WAK 0
    >
    <ITEM
      POSITION 0.00000000000000
      SNAPOFFS 0.00000000000000
      LENGTH 87.58319334564294
      LOOP 0
      ALLTAKES 0
      SEL 0
      FADEIN 1 0.000000 0.000000 1 0
      FADEOUT 1 0.000000 0.000000 1 0
      MUTE 0
      IGUID {0118373C-BF07-476F-832C-E4CC09CCE011}
      IID 3
      NAME "HARM1"
      VOLPAN 1.000000 0.000000 1.000000 -1.000000
      SOFFS 0.00000000000000 0.00000000000000
      PLAYRATE 1.00000000000000 1 0.00000000000000 -1
      CHANMODE 0
      GUID {2B1B5397-52E6-4C1F-852E-8AE74C990021}
      <SOURCE MIDI
        HASDATA 1 480 QN
        POOLEDEVTS {7156C021-435D-47D6-9B0B-201C885C2DF3}
        <X 0 0
          /wNIQVJNMQ==
        >
        E 4320 90 69 60
        E 0 90 74 60
        <X 90 0
          /wVUaGU=
        >
        e 0 90 2b 60
        e 150 80 2b 00
        <X 90 0
          /wVhbi0=
        >
        e 0 90 30 60
        e 300 80 30 00
        <X 120 0
          /wVnZWxz
        >
        e 0 90 30 60
        e 210 80 30 00
        <X 150 0
          /wVoYXZl
        >
        e 0 90 32 60
        e 210 80 32 00
        <X 150 0
          /wVnb25l
        >
        e 0 90 34 60
        e 360 80 34 00
        <X 90 0
          /wUr
        >
        e 0 90 37 60
        e 990 80 37 00
        E 450 80 69 00
        E 0 80 74 00
        E 0 90 69 60
        <X 480 0
          /wVUaGU=
        >
        e 0 90 32 60
        e 120 80 32 00
        <X 120 0
          /wVzb25ncw==
        >
        e 0 90 34 60
        e 150 80 34 00
        <X 90 0
          /wUr
        >
        e 0 90 32 60
        e 120 80 32 00
        <X 120 0
          /wVoYXZl
        >
        e 0 90 32 60
        e 150 80 32 00
        <X 90 0
          /wVnb25l
        >
        e 0 90 32 60
        e 55 80 32 00 -25
        <X 65 0
          /wUr
        >
        e 0 90 34 60
        e 180 80 34 00
        <X 180 0
          /wVzaS0=
        >
        e 0 90 32 60
        e 150 80 32 00
        <X 60 0
          /wUr
        >
        e 0 90 30 60
        e 210 80 30 00
        <X 60 0
          /wVsZW50
        >
        e 0 90 2d 60
        e 390 80 2d 00
        E 90 80 69 00
        E 1440 90 69 60
        E 0 90 74 60
        <X 240 0
          /wVZb3UncmU=
        >
        e 0 90 2d 60
        e 90 80 2d 00
        <X 150 0
          /wVzaW5rLQ==
        >
        e 0 90 30 60
        e 120 80 30 00
        <X 120 0
          /wVpbic=
        >
        e 0 90 30 60
        e 120 80 30 00
        <X 120 0
          /wVsaWtl
        >
        e 0 90 32 60
        e 90 80 32 00
        <X 150 0
          /wVh
        >
        e 0 90 30 60
        e 90 80 30 00
        <X 150 0
          /wVzdG9uZQ==
        >
        e 0 90 2b 60
        e 660 80 2b 00
        E 300 80 69 00
        E 0 80 74 00
        E 480 90 69 60
        <X 210 0
          /wVCZS0=
        >
        e 0 90 2b 60
        e 120 80 2b 00
        <X 120 0
          /wVmb3Jl
        >
        e 0 90 2b 60
        e 540 80 2b 00
        <X 1140 0
          /wV0aGU=
        >
        e 0 90 2b 60
        e 90 80 2b 00
        <X 150 0
          /wV0aWRl
        >
        e 0 90 2b 60
        e 600 80 2b 00
        E 390 80 69 00
        E 1200 90 69 60
        <X 210 0
          /wVUaGU=
        >
        e 0 90 2b 60
        e 90 80 2b 00
        <X 150 0
          /wVyaXYt
        >
        e 0 90 30 60
        e 150 80 30 00
        <X 120 0
          /wVlcg==
        >
        e 0 90 30 60
        e 90 80 30 00
        <X 90 0
          /wVydW5z
        >
        e 0 90 32 60
        e 540 80 32 00
        <X 240 0
          /wVjb2xk
        >
        e 0 90 32 60
        e 30 80 32 00
        <X 30 0
          /wUr
        >
        e 0 90 34 60
        e 900 80 34 00
        <X 930 0
          /wUr
        >
        e 0 90 32 60
        e 420 80 32 00
        E 90 80 69 00
        E 0 90 69 60
        E 0 90 74 60
        <X 210 0
          /wVUaGU=
        >
        e 0 90 32 60
        e 120 80 32 00
        <X 150 0
          /wVmaWdodA==
        >
        e 0 90 34 60
        e 180 80 34 00
        <X 60 0
          /wUr
        >
        e 0 90 32 60
        e 180 80 32 00
        <X 300 0
          /wVpcw==
        >
        e 0 90 30 60
        e 120 80 30 00
        <X 120 0
          /wVvLQ==
        >
        e 0 90 32 60
        e 300 80 32 00
        <X 180 0
          /wV2ZXI=
        >
        e 0 90 32 60
        e 270 80 32 00
        E 210 80 69 00
        E 0 80 74 00
        E 1920 90 69 60
        <X 420 0
          /wVTdGlsbA==
        >
        e 0 90 3c 60
        e 180 80 3c 00
        <X 60 0
          /wV0aGU=
        >
        e 0 90 39 60
        e 120 80 39 00
        <X 150 0
          /wVoYXVudC0=
        >
        e 0 90 37 60
        e 390 80 37 00
        <X 120 0
          /wVlZA==
        >
        e 0 90 37 60
        e 60 80 37 00
        <X 120 0
          /wVydS0=
        >
        e 0 90 3c 60
        e 210 80 3c 00
        <X 60 0
          /wVpbnM=
        >
        e 0 90 3c 60
        e 240 80 3c 00
        <X 180 0
          /wVvZg==
        >
        e 0 90 3c 60
        e 120 80 3c 00
        <X 150 0
          /wVuaWdodA==
        >
        e 0 90 3c 60
        e 30 80 3c 00
        <X 30 0
          /wUr
        >
        e 0 90 3e 60
        e 270 80 3e 00
        E 210 90 01 60
        E 60 80 01 00
        <X 330 0
          /wVjYWxsIw==
        >
        e 0 90 40 60
        e 330 80 40 00
        <X 120 0
          /wV5b3Vy
        >
        e 0 90 2d 60
        e 90 80 2d 00
        <X 180 0
          /wVuYW1l
        >
        e 0 90 30 60
        e 2250 80 30 00
        E 240 80 69 00
        E 0 90 69 60
        E 0 90 74 60
        <X 480 0
          /wVVaF4=
        >
        e 0 90 30 60
        e 300 80 30 00
        <X 660 0
          /wVvd14=
        >
        e 0 90 40 60
        e 330 80 40 00
        E 30 80 69 00
        E 0 80 74 00
        E 0 90 69 60
        E 6360 80 69 00
        E 960 90 69 60
        E 0 90 74 60
        E 6720 80 69 00
        E 0 80 74 00
        E 960 90 69 60
        E 6720 80 69 00
        E 960 90 69 60
        E 6720 80 69 00
        E 12960 b0 7b 00
        GUID {77D67B79-C949-4927-8EB9-3117C6AB06B8}
        IGNTEMPO 0 120.00000000 4 4
        SRCCOLOR 1
        VELLANE 132 100 100
        COLORMAP "C:\Program Files (x86)\REAPER\Data\color_maps\rockband_guitarbass.png"
        CFGEDITVIEW -5567.466302 12.486829 16 12 0 0 0
        CFGEDIT 1 1 0 1 1 0 1 1 1 1 1 0.06250000 -8 -8 1364 736 0 2 1 2 0.00000000 0 1 0 0 0.500000 0 0 1.000000 64
        KEYSNAP 0 0 "100304450070" 0 "Blues"
        EVTFILTER 0 -1 -1 -1 -1 0 1 0 0 -1.00000000 -1.00000000
      >
    >
  >
  <TRACK '{6F75C115-B275-4A99-B585-F17D49CF23D0}'
    NAME "HARM2"
    PEAKCOL 16576
    BEAT -1
    AUTOMODE 0
    VOLPAN 1.00000000000000 -0.60600000000000 -1.00000000000000 -1.00000000000000 1.00000000000000
    MUTESOLO 0 0 0
    IPHASE 0
    ISBUS 0 0
    BUSCOMP 0 0
    SHOWINMIX 1 0.666700 0.500000 1 0.500000 -1 -1 -1
    FREEMODE 0
    SEL 0
    REC 0 0 0 0 0 0 0
    VU 2
    TRACKHEIGHT 0 0
    INQ 0 0 0 0.5000000000 100 0 0 100
    NCHAN 2
    FX 0
    TRACKID {6F75C115-B275-4A99-B585-F17D49CF23D0}
    PERF 0
    MIDIOUT -1
    <MIDINOTENAMES
      0 105 "Phrase Marker"
      0 95 "----"
      0 84 "UNUSED C5 Note"
      0 83 "Highest Note B4"
      0 82 "A#4"
      0 81 "A4"
      0 80 "G#4"
      0 79 "G4"
      0 78 "F#4"
      0 77 "F4"
      0 76 "E4"
      0 75 "D#4"
      0 74 "D4"
      0 73 "C#4"
      0 72 "C4"
      0 71 "B3"
      0 70 "A#3"
      0 69 "A3"
      0 68 "G#3"
      0 67 "G3"
      0 66 "F#3"
      0 65 "F3"
      0 64 "E3"
      0 63 "D#3"
      0 62 "D3"
      0 61 "C##"
      0 60 "C3"
      0 59 "B2"
      0 58 "A#2"
      0 57 "A2"
      0 56 "G#2"
      0 55 "G2"
      0 54 "F#2"
      0 53 "F2"
      0 52 "E2"
      0 51 "D#2"
      0 50 "D2"
      0 49 "C#2"
      0 48 "C2"
      0 47 "B1"
      0 46 "A#1"
      0 45 "A1"
      0 44 "G#1"
      0 43 "G1"
      0 42 "F#1"
      0 41 "F1"
      0 40 "E1"
      0 39 "D#1"
      0 38 "D1"
      0 37 "C#1"
      0 36 "Lowest Note C1"
    >
    MAINSEND 1 0
    <FXCHAIN
      WNDRECT 0 42 655 462
      SHOW 0
      LASTSEL 1
      DOCKED 0
      BYPASS 0 0
      <JS "MIDI/midi_note_filter" ""
        36.000000 84.000000 - - - - - - - - - - - - - - - - - - - - - - - - - - - - - - - - - - - - - - - - - - - - - - - - - - - - - - - - - - - - - - 
      >
      FLOATPOS 0 0 0 0
      FXID {F6E0DBF3-4FB0-4877-8824-9066F1D058D1}
      WAK 0
      BYPASS 0 0
      <VST "VSTi: ReaSynth (Cockos)" "reasynth.dll" 0 ""
        eXNlcu9e7f4AAAAAAgAAAAEAAAAAAAAAAgAAAAAAAAA4AAAAAAAAAA==
        AAAQAO++rd4N8K3eppvEOxe30ToAAIA/AAAAAAAAAADMm4A+6WeIPQ==
        AAAAAAAAAD8AAIA/AACAPwAAAD8AABAAAAA=
      >
      FLOATPOS 0 0 0 0
      FXID {F0A8D5A5-6A8F-4AD5-9013-0C5E55E2A2B3}
      WAK 0
    >
    <ITEM
      POSITION 0.00000000000000
      SNAPOFFS 0.00000000000000
      LENGTH 87.58319334564294
      LOOP 0
      ALLTAKES 0
      SEL 0
      FADEIN 1 0.000000 0.000000 1 0
      FADEOUT 1 0.000000 0.000000 1 0
      MUTE 0
      IGUID {890E34DD-B042-4A29-9EC5-5C22DBB42A88}
      IID 8
      NAME "HARM2"
      VOLPAN 1.000000 0.000000 1.000000 -1.000000
      SOFFS 0.00000000000000 0.00000000000000
      PLAYRATE 1.00000000000000 1 0.00000000000000 -1
      CHANMODE 0
      GUID {60196E9A-EFD4-4987-B8CB-3A41F3647F8A}
      <SOURCE MIDI
        HASDATA 1 480 QN
        POOLEDEVTS {1AAA492B-F2E1-4473-B773-DA01AEE433DB}
        <X 0 0
          /wNIQVJNMg==
        >
        E 36360 90 69 60
        <X 120 0
          /wVBaA==
        >
        e 0 90 40 60
        e 3480 80 40 00
        <X 360 0
          /wUr
        >
        e 0 90 3e 60
        e 1920 80 3e 00
        E 480 80 69 00
        E 960 90 69 60
        <X 480 0
          /wVBaA==
        >
        e 0 90 40 60
        e 3600 80 40 00
        <X 240 0
          /wUr
        >
        e 0 90 41 60
        e 2100 80 41 00
        E 300 80 69 00
        E 960 90 69 60
        <X 480 0
          /wVBaA==
        >
        e 0 90 40 60
        e 3480 80 40 00
        <X 360 0
          /wUr
        >
        e 0 90 3e 60
        e 1920 80 3e 00
        E 480 80 69 00
        E 960 90 69 60
        <X 480 0
          /wVBaA==
        >
        e 0 90 40 60
        e 1740 80 40 00
        <X 180 0
          /wUr
        >
        e 0 90 3e 60
        e 1800 80 3e 00
        <X 120 0
          /wUr
        >
        e 0 90 40 60
        e 2040 80 40 00
        E 360 80 69 00
        E 12960 b0 7b 00
        GUID {96B45885-74FC-4D02-9A5A-EAE13ECE9C9D}
        IGNTEMPO 0 120.00000000 4 4
        SRCCOLOR 3
        VELLANE 132 100 100
        COLORMAP "C:\Program Files (x86)\REAPER\Data\color_maps\rockband_guitarbass.png"
        CFGEDITVIEW -5567.466302 12.486829 0 12 0 0 0
        CFGEDIT 1 1 0 1 1 0 1 1 1 1 1 0.12500000 -8 -8 1364 736 0 2 1 2 0.00000000 0 1 0 0 0.500000 0 0 1.000000 64
        KEYSNAP 0 0 "100304450070" 0 "Blues"
        EVTFILTER 0 -1 -1 -1 -1 0 1 0 0 -1.00000000 -1.00000000
      >
    >
  >
  <TRACK '{E10DFCF2-1276-4EC4-8929-3D3B7B849BD4}'
    NAME "HARM3"
    PEAKCOL 16576
    BEAT -1
    AUTOMODE 0
    VOLPAN 1.00000000000000 0.60400000000000 -1.00000000000000 -1.00000000000000 1.00000000000000
    MUTESOLO 0 0 0
    IPHASE 0
    ISBUS 0 0
    BUSCOMP 0 0
    SHOWINMIX 1 0.666700 0.500000 1 0.500000 -1 -1 -1
    FREEMODE 0
    SEL 0
    REC 0 0 0 0 0 0 0
    VU 2
    TRACKHEIGHT 0 0
    INQ 0 0 0 0.5000000000 100 0 0 100
    NCHAN 2
    FX 0
    TRACKID {E10DFCF2-1276-4EC4-8929-3D3B7B849BD4}
    PERF 0
    MIDIOUT -1
    MAINSEND 1 0
    <FXCHAIN
      WNDRECT 0 42 655 462
      SHOW 0
      LASTSEL 1
      DOCKED 0
      BYPASS 0 0
      <JS "MIDI/midi_note_filter" ""
        36.000000 84.000000 - - - - - - - - - - - - - - - - - - - - - - - - - - - - - - - - - - - - - - - - - - - - - - - - - - - - - - - - - - - - - - 
      >
      FLOATPOS 0 0 0 0
      FXID {F6E0DBF3-4FB0-4877-8824-9066F1D058D1}
      WAK 0
      BYPASS 0 0
      <VST "VSTi: ReaSynth (Cockos)" "reasynth.dll" 0 ""
        eXNlcu9e7f4AAAAAAgAAAAEAAAAAAAAAAgAAAAAAAAA4AAAAAAAAAA==
        AAAQAO++rd4N8K3eppvEOxe30ToAAIA/AAAAAAAAAADMm4A+6WeIPQ==
        AAAAAAAAAD8AAIA/AACAPwAAAD8AABAAAAA=
      >
      FLOATPOS 0 0 0 0
      FXID {F0A8D5A5-6A8F-4AD5-9013-0C5E55E2A2B3}
      WAK 0
    >
    <ITEM
      POSITION 0.00000000000000
      SNAPOFFS 0.00000000000000
      LENGTH 87.58319334564294
      LOOP 0
      ALLTAKES 0
      SEL 0
      FADEIN 1 0.000000 0.000000 1 0
      FADEOUT 1 0.000000 0.000000 1 0
      MUTE 0
      IGUID {890E34DD-B042-4A29-9EC5-5C22DBB42A88}
      IID 8
      NAME "HARM3"
      VOLPAN 1.000000 0.000000 1.000000 -1.000000
      SOFFS 0.00000000000000 0.00000000000000
      PLAYRATE 1.00000000000000 1 0.00000000000000 -1
      CHANMODE 0
      GUID {60196E9A-EFD4-4987-B8CB-3A41F3647F8A}
      <SOURCE MIDI
        HASDATA 1 480 QN
        POOLEDEVTS {347B3F8D-20E6-46F9-9432-0ACF76FCE004}
        <X 0 0
          /wNIQVJNMw==
        >
        <X 36480 0
          /wVBaA==
        >
        E 0 90 3c 60
        E 1740 80 3c 00
        <X 180 0
          /wUr
        >
        E 0 90 3b 60
        E 1680 80 3b 00
        <X 240 0
          /wUr
        >
        E 0 90 39 60
        E 1920 80 39 00
        <X 1920 0
          /wVBaA==
        >
        E 0 90 3c 60
        E 5940 80 3c 00
        <X 1740 0
          /wVBaA==
        >
        E 0 90 3c 60
        E 1740 80 3c 00 -1
        <X 180 0
          /wUr
        >
        E 0 90 3b 60 -1
        E 1680 80 3b 00
        <X 240 0
          /wUr
        >
        E 0 90 39 60
        E 1920 80 39 00
        <X 1920 0
          /wVBaA==
        >
        E 0 90 3c 60
        E 1680 80 3c 00
        <X 240 0
          /wUr
        >
        E 0 90 3b 60
        E 1800 80 3b 00
        <X 120 0
          /wUr
        >
        E 0 90 3c 60
        E 2040 80 3c 00
        E 13320 b0 7b 00
        GUID {96B45885-74FC-4D02-9A5A-EAE13ECE9C9D}
        IGNTEMPO 0 120.00000000 4 4
        SRCCOLOR 3
        VELLANE 132 100 100
        COLORMAP "C:\Program Files (x86)\REAPER\Data\color_maps\rockband_guitarbass.png"
        CFGEDITVIEW -3946.558391 12.486829 51 12 0 0 0
        CFGEDIT 1 1 0 1 1 0 1 1 1 1 1 0.12500000 -8 -8 1364 736 0 0 1 2 0.00000000 0 1 0 0 0.500000 0 0 1.000000 64
        KEYSNAP 0 0 "100304450070" 0 "Blues"
        EVTFILTER 0 -1 -1 -1 -1 0 1 0 0 -1.00000000 -1.00000000
      >
    >
  >
  <TRACK '{282E0B52-91A7-495C-9E98-56E1AE946595}'
    NAME "PART REAL_BASS"
    PEAKCOL 16576
    BEAT -1
    AUTOMODE 0
    VOLPAN 1.00000000000000 0.00000000000000 -1.00000000000000 -1.00000000000000 1.00000000000000
    MUTESOLO 0 0 0
    IPHASE 0
    ISBUS 0 0
    BUSCOMP 0 0
    SHOWINMIX 1 0.666700 0.500000 1 0.500000 -1 -1 -1
    FREEMODE 0
    SEL 0
    REC 0 0 0 0 0 0 0
    VU 2
    TRACKHEIGHT 0 0
    INQ 0 0 0 0.5000000000 100 0 0 100
    NCHAN 2
    FX 0
    TRACKID {282E0B52-91A7-495C-9E98-56E1AE946595}
    PERF 0
    MIDIOUT -1
    <MIDINOTENAMES
      0 127 "Trill Marker"
      0 126 "Tremolo Marker"
      0 125 "BRE"
      0 124 "BRE"
      0 123 "BRE"
      0 122 "BRE"
      0 121 "BRE"
      0 120 "BRE (use all 6)"
      0 119 "-----------"
      0 116 "OVERDRIVE"
      0 115 "Solo Marker"
      0 109 "-----------"
      0 108 "Left Hand Position"
      0 107 "Force Chord Numbering"
      0 105 "Strum Direction"
      0 104 "Arpeggio Marker"
      0 103 "Slide Marker"
      0 102 "Force HOPO"
      0 101 "EXPERT e String"
      0 100 "EXPERT B String"
      0 99 "EXPERT G String"
      0 98 "EXPERT D String"
      0 97 "EXPERT A String"
      0 96 "EXPERT E String"
      0 95 "-----------"
      0 81 "Strum Direction"
      0 80 "Arpeggio Marker"
      0 79 "Slide Marker"
      0 78 "Force HOPO"
      0 77 "HARD e String"
      0 76 "HARD B String"
      0 75 "HARD G String"
      0 74 "HARD D String"
      0 73 "HARD A String"
      0 72 "HARD E String"
      0 71 "-----------"
      0 56 "Arpeggio Marker"
      0 55 "Slide Marker"
      0 53 "MEDIUM e String"
      0 52 "MEDIUM B String"
      0 51 "MEDIUM G String"
      0 50 "MEDIUM D String"
      0 49 "MEDIUM A String"
      0 48 "MEDIUM E String"
      0 47 "-----------"
      0 32 "Arpeggio Marker"
      0 31 "Slide Marker"
      0 29 "EASY e String"
      0 28 "EASY B String"
      0 27 "EASY G String"
      0 26 "EASY D String"
      0 25 "EASY A String"
      0 24 "EASY E String"
      0 21 "-----------"
      0 18 "Flat/Sharp Swap"
      0 17 "Hide Chord Names"
      0 16 "Slash Chord"
      0 15 "D#"
      0 14 "D"
      0 13 "C#"
      0 12 "C"
      0 11 "B"
      0 10 "A#"
      0 9 "A"
      0 8 "G#"
      0 7 "G"
      0 6 "F#"
      0 5 "F"
      0 4 "E"
    >
    MAINSEND 1 0
    <FXCHAIN
      WNDRECT 0 42 716 462
      SHOW 0
      LASTSEL 0
      DOCKED 0
      BYPASS 0 0
      <JS "c3/progtr" ""
        0.000000 3.000000 -2.000000 -2.000000 -2.000000 -2.000000 -2.000000 -4.000000 0.000000 1.000000 - - - - - - - - - - - - - - - - - - - - - - - - - - - - - - - - - - - - - - - - - - - - - - - - - - - - - - 
      >
      FLOATPOS 0 0 0 0
      FXID {3520AB1A-5BF7-451B-9D16-18CB124B3420}
      WAK 0
      BYPASS 0 0
      <JS "MIDI/midi_transpose" ""
        -12.000000 1.000000 0.000000 127.000000 - - - - - - - - - - - - - - - - - - - - - - - - - - - - - - - - - - - - - - - - - - - - - - - - - - - - - - - - - - - - 
      >
      FLOATPOS 0 0 0 0
      FXID {9AA4189C-A2B3-4EB1-8E11-CA96F0FAA3FB}
      WAK 0
      BYPASS 0 0
      <VST "VSTi: ReaSynth (Cockos)" "reasynth.dll" 0 ""
        eXNlcu9e7f4AAAAAAgAAAAEAAAAAAAAAAgAAAAAAAAA4AAAAAAAAAA==
        AAAQAO++rd4N8K3eppvEO+gJMjwtsh0/AAAAAAAAgD8AAIA/4jAEPA==
        AAAAAAAAAD+01hM+j8L1PQAAAD8AABAAAAA=
      >
      FLOATPOS 0 0 0 0
      FXID {AFFCEE3F-81E7-48D1-BFEC-82DD70FF012F}
      WAK 0
    >
    <ITEM
      POSITION 0.00000000000000
      SNAPOFFS 0.00000000000000
      LENGTH 87.58319334564294
      LOOP 0
      ALLTAKES 0
      SEL 0
      FADEIN 1 0.000000 0.000000 1 0
      FADEOUT 1 0.000000 0.000000 1 0
      MUTE 0
      IGUID {A4909BBC-B8C0-4275-BC28-5FF3E26455B6}
      IID 15
      NAME "PART REAL_BASS"
      VOLPAN 1.000000 0.000000 1.000000 -1.000000
      SOFFS 0.00000000000000 0.00000000000000
      PLAYRATE 1.00000000000000 1 0.00000000000000 -1
      CHANMODE 0
      GUID {1E9EB4A8-B5B1-41B5-993E-987E9BA23649}
      <SOURCE MIDI
        HASDATA 1 480 QN
        POOLEDEVTS {2B015C7C-D3E7-446C-BC85-81E86CB6B402}
        <X 0 0
          /wNQQVJUIFJFQUxfQkFTUw==
        >
        <X 36480 0
          /wFbYmVnaW5fcGIgc29uZ190cmFpbmVyX3BiXzFd
        >
        E 0 90 19 69
        E 0 90 31 69
        E 0 90 49 69
        E 0 90 61 69
        E 0 90 6c 69
        E 120 80 6c 00
        E 360 80 19 00
        E 0 80 31 00
        E 360 80 49 00
        E 0 80 61 00
        <X 120 0
          /wFbcGJfbm9ybSBzb25nX3RyYWluZXJfcGJfMV0=
        >
        E 0 90 19 69
        E 0 90 31 69
        E 0 90 49 69
        E 0 90 61 69
        E 120 80 19 00
        E 0 80 31 00
        E 240 80 49 00
        E 0 80 61 00
        E 120 90 31 69
        E 0 90 37 64
        E 0 90 49 69
        E 0 90 4f 64
        E 0 90 61 69
        E 0 90 67 64
        E 120 80 31 00
        E 0 80 37 00
        E 0 80 49 00
        E 0 80 4f 00
        E 0 80 61 00
        E 0 80 67 00
        E 120 90 49 6d
        E 0 90 4e 64
        E 0 90 61 6d
        E 0 90 66 64
        E 0 90 6c 6d
        E 120 80 49 00
        E 0 80 4e 00
        E 0 80 61 00
        E 0 80 66 00
        E 0 80 6c 00
        E 120 90 49 6d
        E 0 90 61 6d
        E 840 80 49 00
        E 0 80 61 00
        E 120 90 49 6d
        E 0 90 61 6d
        E 360 80 49 00
        E 0 80 61 00
        E 120 90 49 6d
        E 0 90 61 6d
        E 120 80 49 00
        E 0 80 61 00
        E 120 90 6c 68
        E 0 93 48 68
        E 0 93 60 68
        E 120 80 6c 00
        E 0 83 48 00
        E 0 83 60 00
        E 120 90 18 69
        E 0 90 30 69
        E 0 90 48 69
        E 0 90 60 69
        E 0 90 74 60
        E 480 80 18 00
        E 0 80 30 00
        E 360 80 48 00
        E 0 80 60 00
        E 120 90 18 69
        E 0 90 30 69
        E 0 90 48 69
        E 0 90 60 69
        E 480 80 18 00
        E 0 80 30 00
        E 360 80 48 00
        E 1 80 60 00
        E 119 90 18 69
        E 0 90 30 69
        E 0 90 48 69
        E 0 90 60 69
        E 480 80 18 00
        E 0 80 30 00
        E 360 80 48 00
        E 1 80 60 00
        E 119 90 18 69
        E 0 90 30 69
        E 0 90 48 69
        E 0 90 60 69
        E 480 80 18 00
        E 0 80 30 00
        E 360 80 48 00
        E 1 80 60 00
        <X 119 0
          /wFbZW5kX3BiIHNvbmdfdHJhaW5lcl9wYl8xXQ==
        >
        <X 0 0
          /wFbYmVnaW5fcGIgc29uZ190cmFpbmVyX3BiXzJd
        >
        E 0 80 74 00
        E 0 90 19 69
        E 0 90 31 69
        E 0 90 49 69
        E 0 90 61 69
        E 0 90 6c 69
        E 120 80 6c 00
        E 360 80 19 00
        E 0 80 31 00
        E 360 80 49 00
        E 0 80 61 00
        <X 120 0
          /wFbcGJfbm9ybSBzb25nX3RyYWluZXJfcGJfMl0=
        >
        E 0 90 19 69
        E 0 90 31 69
        E 0 90 49 69
        E 0 90 61 69
        E 120 80 19 00
        E 0 80 31 00
        E 480 80 49 00
        E 0 80 61 00
        E 120 93 31 69
        E 0 93 49 69
        E 0 93 61 69
        E 120 83 31 00
        E 0 83 49 00
        E 0 83 61 00
        E 120 90 19 66
        E 0 90 31 66
        E 0 90 49 66
        E 0 90 61 66
        E 0 90 6c 66
        E 120 80 19 00
        E 0 80 31 00
        E 0 80 6c 00
        E 480 80 49 00
        E 0 80 61 00
        E 120 93 31 66
        E 0 93 49 66
        E 0 93 61 66
        E 120 83 31 00
        E 0 83 49 00
        E 0 83 61 00
        E 120 90 19 66
        E 0 90 31 66
        E 0 90 49 66
        E 0 90 61 66
        E 120 80 19 00
        E 0 80 31 00
        E 480 80 49 00
        E 0 80 61 00
        E 120 90 6c 68
        E 0 93 30 68
        E 0 93 48 68
        E 0 93 60 68
        E 120 80 6c 00
        E 0 83 30 00
        E 0 83 48 00
        E 0 83 60 00
        E 120 90 18 69
        E 0 90 30 69
        E 0 90 48 69
        E 0 90 60 69
        E 120 80 18 00
        E 0 80 30 00
        E 480 80 48 00
        E 0 80 60 00
        E 120 93 30 69
        E 0 93 48 69
        E 0 93 60 69
        E 120 83 30 00
        E 0 83 48 00
        E 0 83 60 00
        E 120 90 18 69
        E 0 90 30 69
        E 0 90 48 69
        E 0 90 60 69
        E 120 80 18 00
        E 0 80 30 00
        E 479 80 60 00
        E 1 80 48 00
        E 120 93 30 69
        E 0 93 48 69
        E 0 93 60 69
        E 120 83 30 00
        E 0 83 48 00
        E 0 83 60 00
        E 120 90 18 69
        E 0 90 30 69
        E 0 90 48 69
        E 0 90 60 69
        E 120 80 18 00
        E 0 80 30 00
        E 0 80 48 00
        E 0 80 60 00
        E 120 90 4a 66
        E 0 90 62 66
        E 0 90 6c 66
        E 120 80 4a 00
        E 0 80 62 00
        E 0 80 6c 00
        E 120 90 32 69
        E 0 90 4a 69
        E 0 90 62 69
        E 120 80 32 00
        E 240 80 4a 00
        E 0 80 62 00
        E 120 90 1a 6b
        E 0 90 32 6b
        E 0 90 4a 6b
        E 0 90 62 6b
        E 0 90 6c 6b
        E 120 80 1a 00
        E 0 80 32 00
        E 0 80 4a 00
        E 0 80 62 00
        E 0 80 6c 00
        E 120 90 4a 6d
        E 0 90 4e 64
        E 0 90 62 6d
        E 0 90 66 64
        E 120 80 4a 00
        E 0 80 4e 00
        E 0 80 62 00
        E 0 80 66 00
        E 120 90 4b 6b
        E 0 90 4f 64
        E 0 90 63 6b
        E 0 90 67 64
        E 360 80 4b 00
        E 0 80 4f 00
        E 60 80 63 00
        E 0 80 67 00
        <X 60 0
          /wFbZW5kX3BiIHNvbmdfdHJhaW5lcl9wYl8yXQ==
        >
        <X 0 0
          /wFbYmVnaW5fcGIgc29uZ190cmFpbmVyX3BiXzNd
        >
        E 0 90 19 69
        E 0 90 31 69
        E 0 90 49 69
        E 0 90 61 69
        E 0 90 6c 67
        E 120 80 19 00
        E 0 80 31 00
        E 0 80 6c 00
        E 480 80 49 00
        E 0 80 61 00
        E 120 93 31 69
        E 0 93 49 69
        E 0 93 61 69
        E 120 83 31 00
        E 0 83 49 00
        E 0 83 61 00
        <X 120 0
          /wFbcGJfbm9ybSBzb25nX3RyYWluZXJfcGJfM10=
        >
        E 0 90 19 69
        E 0 90 31 69
        E 0 90 49 69
        E 0 90 61 69
        E 120 80 19 00
        E 0 80 31 00
        E 480 80 49 00
        E 0 80 61 00
        E 120 93 31 69
        E 0 93 49 69
        E 0 93 61 69
        E 120 83 31 00
        E 0 83 49 00
        E 0 83 61 00
        E 120 90 18 68
        E 0 90 30 68
        E 0 90 48 68
        E 0 90 60 68
        E 0 90 6c 66
        E 0 90 74 60
        E 120 80 18 00
        E 0 80 30 00
        E 0 80 6c 00
        E 480 80 48 00
        E 0 80 60 00
        E 120 93 30 68
        E 0 93 48 68
        E 0 93 60 68
        E 120 83 30 00
        E 0 83 48 00
        E 0 83 60 00
        E 120 90 18 68
        E 0 90 30 68
        E 0 90 48 68
        E 0 90 60 68
        E 120 80 18 00
        E 0 80 30 00
        E 480 80 48 00
        E 0 80 60 00
        E 120 93 30 68
        E 0 93 48 68
        E 0 93 60 68
        E 120 83 30 00
        E 0 83 48 00
        E 0 83 60 00
        E 120 80 74 00
        E 0 90 18 66
        E 0 90 30 66
        E 0 90 48 66
        E 0 90 60 66
        E 120 80 18 00
        E 0 80 30 00
        E 480 80 48 00
        E 0 80 60 00
        E 120 93 30 66
        E 0 93 48 66
        E 0 93 60 66
        E 120 83 30 00
        E 0 83 48 00
        E 0 83 60 00
        E 120 90 18 66
        E 0 90 30 66
        E 0 90 48 66
        E 0 90 60 66
        E 120 80 18 00
        E 0 80 30 00
        E 480 80 48 00
        E 0 80 60 00
        E 120 90 30 66
        E 0 90 48 66
        E 0 90 60 66
        E 120 80 30 00
        E 0 80 48 00
        E 0 80 60 00
        E 120 90 18 66
        E 0 90 30 66
        E 0 90 48 66
        E 0 90 60 66
        E 120 80 18 00
        E 0 80 30 00
        E 0 80 48 00
        E 0 80 60 00
        E 120 90 30 66
        E 0 90 48 66
        E 0 90 60 66
        E 120 80 30 00
        E 0 80 48 00
        E 0 80 60 00
        E 120 90 18 66
        E 0 90 30 66
        E 0 90 48 66
        E 0 90 60 66
        E 120 80 18 00
        E 0 80 30 00
        E 240 80 48 00
        E 0 80 60 00
        E 120 90 18 66
        E 0 90 30 66
        E 0 90 48 66
        E 0 90 60 66
        E 120 80 18 00
        E 0 80 30 00
        E 0 80 48 00
        E 0 80 60 00
        E 120 90 30 66
        E 0 90 48 66
        E 0 90 60 66
        E 120 80 30 00
        E 0 80 48 00
        E 0 80 60 00
        E 120 90 30 66
        E 0 90 48 66
        E 0 90 60 66
        E 120 80 30 00
        E 240 80 48 00
        E 60 80 60 00
        <X 60 0
          /wFbYmVnaW5fcGIgc29uZ190cmFpbmVyX3BiXzRd
        >
        <X 0 0
          /wFbZW5kX3BiIHNvbmdfdHJhaW5lcl9wYl8zXQ==
        >
        E 0 90 19 66
        E 0 90 31 66
        E 0 90 49 66
        E 0 90 61 66
        E 480 80 19 00
        E 0 80 31 00
        E 360 80 49 00
        E 0 80 61 00
        E 120 90 19 66
        E 0 90 31 66
        E 0 90 49 66
        E 0 90 61 66
        E 480 80 19 00
        E 0 80 31 00
        E 120 80 49 00
        E 0 80 61 00
        E 120 93 49 66
        E 0 93 61 66
        E 120 83 49 00
        E 0 83 61 00
        E 120 90 19 64
        E 0 90 31 64
        E 0 90 49 64
        E 0 90 61 64
        E 120 80 19 00
        E 0 80 31 00
        E 480 80 49 00
        E 0 80 61 00
        E 120 93 31 64
        E 0 93 49 64
        E 0 93 61 64
        E 120 83 31 00
        E 0 83 49 00
        E 0 83 61 00
        E 120 90 19 64
        E 0 90 31 64
        E 0 90 49 64
        E 0 90 61 64
        E 480 80 19 00
        E 0 80 31 00
        E 0 80 49 00
        E 0 80 61 00
        E 480 90 18 64
        E 0 90 30 64
        E 0 90 48 64
        E 0 90 60 64
        E 480 80 18 00
        E 0 80 30 00
        E 360 80 48 00
        E 0 80 60 00
        E 120 90 18 64
        E 0 90 30 64
        E 0 90 48 64
        E 0 90 60 64
        E 120 80 18 00
        E 0 80 30 00
        E 480 80 48 00
        E 0 80 60 00
        E 120 90 30 64
        E 0 90 48 64
        E 0 90 60 64
        E 120 80 30 00
        E 0 80 48 00
        E 0 80 60 00
        E 120 90 18 64
        E 0 90 30 64
        E 0 90 48 64
        E 0 90 60 64
        E 120 80 18 00
        E 0 80 30 00
        E 0 80 48 00
        E 0 80 60 00
        E 120 90 30 64
        E 0 90 48 64
        E 0 90 60 64
        E 120 80 30 00
        E 0 80 48 00
        E 0 80 60 00
        E 120 90 18 64
        E 0 90 30 64
        E 0 90 48 64
        E 0 90 60 64
        E 120 80 18 00
        E 0 80 30 00
        E 240 80 48 00
        E 0 80 60 00
        E 120 90 18 64
        E 0 90 30 64
        E 0 90 48 64
        E 0 90 60 64
        E 120 80 18 00
        E 0 80 30 00
        E 0 80 48 00
        E 0 80 60 00
        E 120 90 30 64
        E 0 90 48 64
        E 0 90 60 64
        E 120 80 30 00
        E 0 80 48 00
        E 0 80 60 00
        E 600 90 18 64
        E 0 90 30 64
        E 0 90 48 64
        E 0 90 60 64
        E 5759 80 18 00
        E 0 80 30 00
        E 0 80 48 00
        <X 1 0
          /wFbZW5kX3BiIHNvbmdfdHJhaW5lcl9wYl80XQ==
        >
        E 0 80 60 00
        E 5760 b0 7b 00
        GUID {88C98939-EC46-40E1-BB77-903CE8C2E78E}
        IGNTEMPO 0 120.00000000 4 4
        SRCCOLOR 10
        VELLANE 132 100 100
        COLORMAP "C:\Users\Ruggery\AppData\Roaming\Reaper\Data\color_maps\rockband_proguitarbass.png"
        TEXTSTRINGFILE "C:\Program Files (x86)\REAPER\Data\Text_Strings\Text Events List - Pro Trainers.txt"
        CFGEDITVIEW 34793.171542 132.360388 26 12 0 0 0
        CFGEDIT 1 1 0 1 1 0 1 1 1 1 1 0.12500000 -8 0 1364 744 0 2 1 2 0.00000000 0 1 0 0 0.500000 0 0 1.000000 64
        KEYSNAP 0 0 "100304450070" 0 "Blues"
        EVTFILTER 0 -1 -1 -1 -1 0 1 0 0 -1.00000000 -1.00000000
      >
    >
  >
  <TRACK '{4C28B6E6-75E1-4D85-8E08-C083874FBCB6}'
    NAME "PART REAL_GUITAR"
    PEAKCOL 16576
    BEAT -1
    AUTOMODE 0
    VOLPAN 1.00000000000000 0.00000000000000 -1.00000000000000 -1.00000000000000 1.00000000000000
    MUTESOLO 0 0 0
    IPHASE 0
    ISBUS 0 0
    BUSCOMP 0 0
    SHOWINMIX 1 0.666700 0.500000 1 0.500000 -1 -1 -1
    FREEMODE 0
    SEL 0
    REC 0 0 0 0 0 0 0
    VU 2
    TRACKHEIGHT 0 0
    INQ 0 0 0 0.5000000000 100 0 0 100
    NCHAN 2
    FX 0
    TRACKID {4C28B6E6-75E1-4D85-8E08-C083874FBCB6}
    PERF 0
    MIDIOUT -1
    <MIDINOTENAMES
      0 127 "Trill Marker"
      0 126 "Tremolo Marker"
      0 125 "BRE"
      0 124 "BRE"
      0 123 "BRE"
      0 122 "BRE"
      0 121 "BRE"
      0 120 "BRE (use all 6)"
      0 119 "-----------"
      0 116 "OVERDRIVE"
      0 115 "Solo Marker"
      0 109 "-----------"
      0 108 "Left Hand Position"
      0 107 "Force Chord Numbering"
      0 105 "Strum Direction"
      0 104 "Arpeggio Marker"
      0 103 "Slide Marker"
      0 102 "Force HOPO"
      0 101 "EXPERT e String"
      0 100 "EXPERT B String"
      0 99 "EXPERT G String"
      0 98 "EXPERT D String"
      0 97 "EXPERT A String"
      0 96 "EXPERT E String"
      0 21 "-----------"
      0 18 "Flat/Sharp Swap"
      0 17 "Hide Chord Names"
      0 16 "Slash Chord"
      0 15 "D#"
      0 14 "D"
      0 13 "C#"
      0 12 "C"
      0 11 "B"
      0 10 "A#"
      0 9 "A"
      0 8 "G#"
      0 7 "G"
      0 6 "F#"
      0 5 "F"
      0 4 "E"
      0 95 "-----------"
      0 81 "Strum Direction"
      0 80 "Arpeggio Marker"
      0 79 "Slide Marker"
      0 78 "Force HOPO"
      0 77 "HARD e String"
      0 76 "HARD B String"
      0 75 "HARD G String"
      0 74 "HARD D String"
      0 73 "HARD A String"
      0 72 "HARD E String"
      0 71 "-----------"
      0 56 "Arpeggio Marker"
      0 55 "Slide Marker"
      0 53 "MEDIUM e String"
      0 52 "MEDIUM B String"
      0 51 "MEDIUM G String"
      0 50 "MEDIUM D String"
      0 49 "MEDIUM A String"
      0 48 "MEDIUM E String"
      0 47 "-----------"
      0 32 "Arpeggio Marker"
      0 31 "Slide Marker"
      0 29 "EASY e String"
      0 28 "EASY B String"
      0 27 "EASY G String"
      0 26 "EASY D String"
      0 25 "EASY A String"
      0 24 "EASY E String"
      14 127 "Trill Marker"
      14 126 "Tremolo Marker"
      14 125 "BRE"
      14 124 "BRE"
      14 123 "BRE"
      14 122 "BRE"
      14 121 "BRE"
      14 120 "BRE (use all 6)"
      14 119 "-----------"
      14 116 "OVERDRIVE"
      14 115 "Solo Marker"
      14 109 "-----------"
      14 108 "Left Hand Position"
      14 107 "Force Chord Numbering"
      14 105 "Strum Direction"
      14 104 "Arpeggio Marker"
      14 103 "Slide Marker"
      14 102 "Force HOPO"
      14 101 "EXPERT e String"
      14 100 "EXPERT B String"
      14 99 "EXPERT G String"
      14 98 "EXPERT D String"
      14 97 "EXPERT A String"
      14 96 "EXPERT E String"
      14 95 "-----------"
      14 81 "Strum Direction"
      14 80 "Arpeggio Marker"
      14 79 "Slide Marker"
      14 78 "Force HOPO"
      14 77 "HARD e String"
      14 76 "HARD B String"
      14 75 "HARD G String"
      14 74 "HARD D String"
      14 73 "HARD A String"
      14 72 "HARD E String"
      14 71 "-----------"
      14 56 "Arpeggio Marker"
      14 55 "Slide Marker"
      14 53 "MEDIUM e String"
      14 52 "MEDIUM B String"
      14 51 "MEDIUM G String"
      14 50 "MEDIUM D String"
      14 49 "MEDIUM A String"
      14 48 "MEDIUM E String"
      14 47 "-----------"
      14 32 "Arpeggio Marker"
      14 31 "Slide Marker"
      14 29 "EASY e String"
      14 28 "EASY B String"
      14 27 "EASY G String"
      14 26 "EASY D String"
      14 25 "EASY A String"
      14 24 "EASY E String"
      14 21 "-----------"
      14 18 "Flat/Sharp Swap"
      14 17 "Hide Chord Names"
      14 16 "Slash Chord"
      14 15 "D#"
      14 14 "D"
      14 13 "C#"
      14 12 "C"
      14 11 "B"
      14 10 "A#"
      14 9 "A"
      14 8 "G#"
      14 7 "G"
      14 6 "F#"
      14 5 "F"
      14 4 "E"
    >
    MAINSEND 1 0
    <FXCHAIN
      WNDRECT 0 42 655 462
      SHOW 0
      LASTSEL 1
      DOCKED 0
      BYPASS 0 0
      <JS "c3/progtr" ""
        0.000000 3.000000 0.000000 0.000000 0.000000 0.000000 0.000000 0.000000 0.000000 1.000000 - - - - - - - - - - - - - - - - - - - - - - - - - - - - - - - - - - - - - - - - - - - - - - - - - - - - - - 
      >
      FLOATPOS 0 0 0 0
      FXID {EA800C0B-5143-4B12-BAA4-11E5F45EEE80}
      WAK 0
      BYPASS 0 0
      <VST "VSTi: ReaSynth (Cockos)" "reasynth.dll" 0 ""
        eXNlcu9e7f4AAAAAAgAAAAEAAAAAAAAAAgAAAAAAAAA4AAAAAAAAAA==
        AAAQAO++rd4N8K3eppvEO+gJMjyHFlk/AAAAAAAAAADMm4A+4jAEPA==
        AAAAAAAAAD+01hM+j8L1PQAAAD8AABAAAAA=
      >
      FLOATPOS 0 0 0 0
      FXID {976EC487-98F0-4C33-A940-A31F9389ABBF}
      WAK 0
    >
    <ITEM
      POSITION 0.00000000000000
      SNAPOFFS 0.00000000000000
      LENGTH 87.58319334564294
      LOOP 0
      ALLTAKES 0
      SEL 0
      FADEIN 1 0.000000 0.000000 1 0
      FADEOUT 1 0.000000 0.000000 1 0
      MUTE 0
      IGUID {F1DDEA42-F786-4FDC-82B5-BC95BD4394B1}
      IID 4
      NAME "PART REAL_GUITAR"
      VOLPAN 1.000000 0.000000 1.000000 -1.000000
      SOFFS 0.00000000000000 0.00000000000000
      PLAYRATE 1.00000000000000 1 0.00000000000000 -1
      CHANMODE 0
      GUID {B517A5CD-935D-49EF-A630-AAC20C70E108}
      <SOURCE MIDI
        HASDATA 1 480 QN
        POOLEDEVTS {84F45E75-B3B5-46CD-BD3C-B7EFC1F219FB}
        <X 0 0
          /wNQQVJUIFJFQUxfR1VJVEFS
        >
        <X 5760 0
          /wFbYmVnaW5fcGcgc29uZ190cmFpbmVyX3BnXzFd
        >
        E 0 90 0c 64
        E 0 90 19 67
        E 0 90 31 67
        E 0 90 32 66
        E 0 90 49 67
        E 0 90 4a 66
        E 0 90 4b 64
        E 0 90 4c 65
        E 0 90 4d 64
        E 0 90 61 67
        E 0 90 62 66
        E 0 90 63 64
        E 0 90 64 65
        E 0 90 65 64
        E 0 90 6c 65
        E 0 9f 69 64
        E 120 80 0c 00
        E 0 80 6c 00
        E 360 80 19 00
        E 0 80 31 00
        E 0 80 32 00
        E 360 80 49 00
        E 0 80 4a 00
        E 0 80 4b 00
        E 0 80 4c 00
        E 0 80 4d 00
        E 0 80 61 00
        E 0 80 62 00
        E 0 80 63 00
        E 0 80 64 00
        E 0 80 65 00
        E 0 8f 69 00
        E 120 90 31 67
        E 0 90 32 66
        E 0 90 49 67
        E 0 90 4a 66
        E 0 90 4b 64
        E 0 90 4c 65
        E 0 90 4d 64
        E 0 90 61 67
        E 0 90 62 66
        E 0 90 63 64
        E 0 90 64 65
        E 0 90 65 64
        E 0 9d 69 64
        E 120 80 31 00
        E 0 80 32 00
        E 0 80 49 00
        E 0 80 4a 00
        E 0 80 4b 00
        E 0 80 4c 00
        E 0 80 4d 00
        E 0 80 61 00
        E 0 80 62 00
        E 0 80 63 00
        E 0 80 64 00
        E 0 80 65 00
        E 0 8d 69 00
        E 360 93 31 67
        E 0 93 32 66
        E 0 93 49 67
        E 0 93 4a 66
        E 0 93 4b 64
        E 0 93 4c 65
        E 0 93 4d 64
        E 0 93 61 67
        E 0 93 62 66
        E 0 93 63 64
        E 0 93 64 65
        E 0 93 65 64
        E 120 83 31 00
        E 0 83 32 00
        E 0 83 49 00
        E 0 83 4a 00
        E 0 83 4b 00
        E 0 83 4c 00
        E 0 83 4d 00
        E 0 83 61 00
        E 0 83 62 00
        E 0 83 63 00
        E 0 83 64 00
        E 0 83 65 00
        E 120 93 49 67
        E 0 93 4a 66
        E 0 93 4b 64
        E 0 93 4c 65
        E 0 93 4d 64
        E 0 93 61 67
        E 0 93 62 66
        E 0 93 63 64
        E 0 93 64 65
        E 0 93 65 64
        E 120 83 49 00
        E 0 83 4a 00
        E 0 83 4b 00
        E 0 83 4c 00
        E 0 83 4d 00
        E 0 83 61 00
        E 0 83 62 00
        E 0 83 63 00
        E 0 83 64 00
        E 0 83 65 00
        <X 120 0
          /wFbcGdfbm9ybSBzb25nX3RyYWluZXJfcGdfMV0=
        >
        E 0 90 04 64
        E 0 90 19 66
        E 0 90 31 66
        E 0 90 32 66
        E 0 90 48 64
        E 0 90 49 66
        E 0 90 4a 66
        E 0 90 4b 64
        E 0 90 4c 64
        E 0 90 4d 64
        E 0 90 60 64
        E 0 90 61 66
        E 0 90 62 66
        E 0 90 63 64
        E 0 90 64 64
        E 0 90 65 64
        E 0 90 6c 66
        E 0 9f 69 64
        E 120 80 04 00
        E 0 80 6c 00
        E 360 80 19 00
        E 0 80 31 00
        E 0 80 32 00
        E 360 80 48 00
        E 0 80 49 00
        E 0 80 4a 00
        E 0 80 4b 00
        E 0 80 4c 00
        E 0 80 4d 00
        E 0 80 60 00
        E 0 80 61 00
        E 0 80 62 00
        E 0 80 63 00
        E 0 80 64 00
        E 0 80 65 00
        E 0 8f 69 00
        E 120 90 19 66
        E 0 90 31 66
        E 0 90 32 66
        E 0 90 48 64
        E 0 90 49 66
        E 0 90 4a 66
        E 0 90 4b 64
        E 0 90 4c 64
        E 0 90 4d 64
        E 0 90 60 64
        E 0 90 61 66
        E 0 90 62 66
        E 0 90 63 64
        E 0 90 64 64
        E 0 90 65 64
        E 0 9d 69 64
        E 120 80 19 00
        E 0 80 31 00
        E 0 80 32 00
        E 0 80 48 00
        E 0 80 49 00
        E 0 80 4a 00
        E 0 80 4b 00
        E 0 80 4c 00
        E 0 80 4d 00
        E 0 80 60 00
        E 0 80 61 00
        E 0 80 62 00
        E 0 80 63 00
        E 0 80 64 00
        E 0 80 65 00
        E 0 8d 69 00
        E 360 93 31 66
        E 0 93 32 66
        E 0 93 48 64
        E 0 93 49 66
        E 0 93 4a 66
        E 0 93 4b 64
        E 0 93 4c 64
        E 0 93 4d 64
        E 0 93 60 64
        E 0 93 61 66
        E 0 93 62 66
        E 0 93 63 64
        E 0 93 64 64
        E 0 93 65 64
        E 120 83 31 00
        E 0 83 32 00
        E 0 83 48 00
        E 0 83 49 00
        E 0 83 4a 00
        E 0 83 4b 00
        E 0 83 4c 00
        E 0 83 4d 00
        E 0 83 60 00
        E 0 83 61 00
        E 0 83 62 00
        E 0 83 63 00
        E 0 83 64 00
        E 0 83 65 00
        E 120 93 48 64
        E 0 93 49 66
        E 0 93 4a 66
        E 0 93 4b 64
        E 0 93 4c 64
        E 0 93 4d 64
        E 0 93 60 64
        E 0 93 61 66
        E 0 93 62 66
        E 0 93 63 64
        E 0 93 64 64
        E 0 93 65 64
        E 120 83 48 00
        E 0 83 49 00
        E 0 83 4a 00
        E 0 83 4b 00
        E 0 83 4c 00
        E 0 83 4d 00
        E 0 83 60 00
        E 0 83 61 00
        E 0 83 62 00
        E 0 83 63 00
        E 0 83 64 00
        E 0 83 65 00
        E 120 90 05 64
        E 0 90 18 65
        E 0 90 30 65
        E 0 90 31 67
        E 0 90 48 65
        E 0 90 49 67
        E 0 90 4a 67
        E 0 90 4b 66
        E 0 90 4c 65
        E 0 90 4d 65
        E 0 90 60 65
        E 0 90 61 67
        E 0 90 62 67
        E 0 90 63 66
        E 0 90 64 65
        E 0 90 65 65
        E 0 90 6c 65
        E 0 9f 69 64
        E 120 80 05 00
        E 0 80 6c 00
        E 360 80 18 00
        E 0 80 30 00
        E 0 80 31 00
        E 360 80 48 00
        E 0 80 49 00
        E 0 80 4a 00
        E 0 80 4b 00
        E 0 80 4c 00
        E 0 80 4d 00
        E 0 80 60 00
        E 0 80 61 00
        E 0 80 62 00
        E 0 80 63 00
        E 0 80 64 00
        E 0 80 65 00
        E 0 8f 69 00
        E 120 90 18 65
        E 0 90 30 65
        E 0 90 31 67
        E 0 90 48 65
        E 0 90 49 67
        E 0 90 4a 67
        E 0 90 4b 66
        E 0 90 4c 65
        E 0 90 4d 65
        E 0 90 60 65
        E 0 90 61 67
        E 0 90 62 67
        E 0 90 63 66
        E 0 90 64 65
        E 0 90 65 65
        E 0 9d 69 64
        E 120 80 18 00
        E 0 80 30 00
        E 0 80 31 00
        E 0 80 48 00
        E 0 80 49 00
        E 0 80 4a 00
        E 0 80 4b 00
        E 0 80 4c 00
        E 0 80 4d 00
        E 0 80 60 00
        E 0 80 61 00
        E 0 80 62 00
        E 0 80 63 00
        E 0 80 64 00
        E 0 80 65 00
        E 0 8d 69 00
        E 360 93 30 65
        E 0 93 31 67
        E 0 93 48 65
        E 0 93 49 67
        E 0 93 4a 67
        E 0 93 4b 66
        E 0 93 4c 65
        E 0 93 4d 65
        E 0 93 60 65
        E 0 93 61 67
        E 0 93 62 67
        E 0 93 63 66
        E 0 93 64 65
        E 0 93 65 65
        E 120 83 30 00
        E 0 83 31 00
        E 0 83 48 00
        E 0 83 49 00
        E 0 83 4a 00
        E 0 83 4b 00
        E 0 83 4c 00
        E 0 83 4d 00
        E 0 83 60 00
        E 0 83 61 00
        E 0 83 62 00
        E 0 83 63 00
        E 0 83 64 00
        E 0 83 65 00
        E 120 90 48 65
        E 0 90 49 67
        E 0 90 4a 67
        E 0 90 4b 66
        E 0 90 4c 65
        E 0 90 4d 65
        E 0 90 60 65
        E 0 90 61 67
        E 0 90 62 67
        E 0 90 63 66
        E 0 90 64 65
        E 0 90 65 65
        E 0 9d 69 64
        E 360 80 48 00
        E 0 80 49 00
        E 0 80 4a 00
        E 0 80 4b 00
        E 0 80 4c 00
        E 0 80 4d 00
        E 0 80 60 00
        E 0 80 61 00
        E 0 80 62 00
        E 0 80 63 00
        E 0 80 64 00
        E 0 80 65 00
        E 0 8d 69 00
        E 120 90 48 65
        E 0 90 49 67
        E 0 90 4a 67
        E 0 90 4b 66
        E 0 90 4c 65
        E 0 90 4d 65
        E 0 90 60 65
        E 0 90 61 67
        E 0 90 62 67
        E 0 90 63 66
        E 0 90 64 65
        E 0 90 65 65
        E 0 9d 69 64
        E 120 80 48 00
        E 0 80 49 00
        E 0 80 4a 00
        E 0 80 4b 00
        E 0 80 4c 00
        E 0 80 4d 00
        E 0 80 60 00
        E 0 80 61 00
        E 0 80 62 00
        E 0 80 63 00
        E 0 80 64 00
        E 0 80 65 00
        E 0 8d 69 00
        E 120 90 18 65
        E 0 90 30 65
        E 0 90 31 67
        E 0 90 48 65
        E 0 90 49 67
        E 0 90 4a 67
        E 0 90 4b 66
        E 0 90 4c 65
        E 0 90 4d 65
        E 0 90 60 65
        E 0 90 61 67
        E 0 90 62 67
        E 0 90 63 66
        E 0 90 64 65
        E 0 90 65 65
        E 0 9f 69 64
        E 480 80 18 00
        E 0 80 30 00
        E 0 80 31 00
        E 120 80 48 00
        E 0 80 49 00
        E 0 80 4a 00
        E 0 80 4b 00
        E 0 80 4c 00
        E 0 80 4d 00
        E 0 80 60 00
        E 0 80 61 00
        E 0 80 62 00
        E 0 80 63 00
        E 0 80 64 00
        E 0 80 65 00
        E 0 8f 69 00
        E 120 90 48 65
        E 0 90 49 67
        E 0 90 4a 67
        E 0 90 4b 66
        E 0 90 4c 65
        E 0 90 4d 65
        E 0 90 60 65
        E 0 90 61 67
        E 0 90 62 67
        E 0 90 63 66
        E 0 90 64 65
        E 0 90 65 65
        E 0 9d 69 64
        E 120 80 48 00
        E 0 80 49 00
        E 0 80 4a 00
        E 0 80 4b 00
        E 0 80 4c 00
        E 0 80 4d 00
        E 0 80 60 00
        E 0 80 61 00
        E 0 80 62 00
        E 0 80 63 00
        E 0 80 64 00
        E 0 80 65 00
        E 0 8d 69 00
        E 120 90 30 65
        E 0 90 31 67
        E 0 90 48 65
        E 0 90 49 67
        E 0 90 4a 67
        E 0 90 4b 66
        E 0 90 4c 65
        E 0 90 4d 65
        E 0 90 60 65
        E 0 90 61 67
        E 0 90 62 67
        E 0 90 63 66
        E 0 90 64 65
        E 0 90 65 65
        E 0 9f 69 64
        E 120 80 30 00
        E 0 80 31 00
        E 0 80 48 00
        E 0 80 49 00
        E 0 80 4a 00
        E 0 80 4b 00
        E 0 80 4c 00
        E 0 80 4d 00
        E 0 80 60 00
        E 0 80 61 00
        E 0 80 62 00
        E 0 80 63 00
        E 0 80 64 00
        E 0 80 65 00
        E 0 8f 69 00
        E 120 93 48 65
        E 0 93 49 67
        E 0 93 4a 67
        E 0 93 4b 66
        E 0 93 4c 65
        E 0 93 4d 65
        E 0 93 60 65
        E 0 93 61 67
        E 0 93 62 67
        E 0 93 63 66
        E 0 93 64 65
        E 0 93 65 65
        E 120 83 48 00
        E 0 83 49 00
        E 0 83 4a 00
        E 0 83 4b 00
        E 0 83 4c 00
        E 0 83 4d 00
        E 0 83 60 00
        E 0 83 61 00
        E 0 83 62 00
        E 0 83 63 00
        E 0 83 64 00
        E 0 83 65 00
        <X 120 0
          /wFbYmVnaW5fcGcgc29uZ190cmFpbmVyX3BnXzJd
        >
        <X 0 0
          /wFbZW5kX3BnIHNvbmdfdHJhaW5lcl9wZ18xXQ==
        >
        E 0 90 0c 64
        E 0 90 19 67
        E 0 90 31 67
        E 0 90 32 66
        E 0 90 49 67
        E 0 90 4a 66
        E 0 90 4b 64
        E 0 90 4c 65
        E 0 90 4d 64
        E 0 90 61 67
        E 0 90 62 66
        E 0 90 63 64
        E 0 90 64 65
        E 0 90 65 64
        E 0 9f 69 64
        E 120 80 0c 00
        E 360 80 19 00
        E 0 80 31 00
        E 0 80 32 00
        E 360 80 49 00
        E 0 80 4a 00
        E 0 80 4b 00
        E 0 80 4c 00
        E 0 80 4d 00
        E 0 80 61 00
        E 0 80 62 00
        E 0 80 63 00
        E 0 80 64 00
        E 0 80 65 00
        E 0 8f 69 00
        E 120 90 31 67
        E 0 90 32 66
        E 0 90 49 67
        E 0 90 4a 66
        E 0 90 4b 64
        E 0 90 4c 65
        E 0 90 4d 64
        E 0 90 61 67
        E 0 90 62 66
        E 0 90 63 64
        E 0 90 64 65
        E 0 90 65 64
        E 0 9d 69 64
        E 120 80 31 00
        E 0 80 32 00
        E 0 80 49 00
        E 0 80 4a 00
        E 0 80 4b 00
        E 0 80 4c 00
        E 0 80 4d 00
        E 0 80 61 00
        E 0 80 62 00
        E 0 80 63 00
        E 0 80 64 00
        E 0 80 65 00
        E 0 8d 69 00
        E 360 93 31 67
        E 0 93 32 66
        E 0 93 49 67
        E 0 93 4a 66
        E 0 93 4b 64
        E 0 93 4c 65
        E 0 93 4d 64
        E 0 93 61 67
        E 0 93 62 66
        E 0 93 63 64
        E 0 93 64 65
        E 0 93 65 64
        E 120 83 31 00
        E 0 83 32 00
        E 0 83 49 00
        E 0 83 4a 00
        E 0 83 4b 00
        E 0 83 4c 00
        E 0 83 4d 00
        E 0 83 61 00
        E 0 83 62 00
        E 0 83 63 00
        E 0 83 64 00
        E 0 83 65 00
        E 120 93 49 67
        E 0 93 4a 66
        E 0 93 4b 64
        E 0 93 4c 65
        E 0 93 4d 64
        E 0 93 61 67
        E 0 93 62 66
        E 0 93 63 64
        E 0 93 64 65
        E 0 93 65 64
        E 120 83 49 00
        E 0 83 4a 00
        E 0 83 4b 00
        E 0 83 4c 00
        E 0 83 4d 00
        E 0 83 61 00
        E 0 83 62 00
        E 0 83 63 00
        E 0 83 64 00
        E 0 83 65 00
        <X 120 0
          /wFbcGdfbm9ybSBzb25nX3RyYWluZXJfcGdfMl0=
        >
        E 0 90 09 64
        E 0 90 18 69
        E 0 90 30 69
        E 0 90 31 6b
        E 0 90 48 69
        E 0 90 49 6b
        E 0 90 4a 6b
        E 0 90 4b 69
        E 0 90 4c 69
        E 0 90 4d 69
        E 0 90 60 69
        E 0 90 61 6b
        E 0 90 62 6b
        E 0 90 63 69
        E 0 90 64 69
        E 0 90 65 69
        E 0 90 6c 69
        E 0 9f 69 64
        E 120 80 09 00
        E 0 80 6c 00
        E 360 80 18 00
        E 0 80 30 00
        E 0 80 31 00
        E 360 80 48 00
        E 0 80 49 00
        E 0 80 4a 00
        E 0 80 4b 00
        E 0 80 4c 00
        E 0 80 4d 00
        E 0 80 60 00
        E 0 80 61 00
        E 0 80 62 00
        E 0 80 63 00
        E 0 80 64 00
        E 0 80 65 00
        E 0 8f 69 00
        E 120 90 18 69
        E 0 90 30 69
        E 0 90 31 6b
        E 0 90 48 69
        E 0 90 49 6b
        E 0 90 4a 6b
        E 0 90 4b 69
        E 0 90 4c 69
        E 0 90 4d 69
        E 0 90 60 69
        E 0 90 61 6b
        E 0 90 62 6b
        E 0 90 63 69
        E 0 90 64 69
        E 0 90 65 69
        E 0 9d 69 64
        E 120 80 18 00
        E 0 80 30 00
        E 0 80 31 00
        E 0 80 48 00
        E 0 80 49 00
        E 0 80 4a 00
        E 0 80 4b 00
        E 0 80 4c 00
        E 0 80 4d 00
        E 0 80 60 00
        E 0 80 61 00
        E 0 80 62 00
        E 0 80 63 00
        E 0 80 64 00
        E 0 80 65 00
        E 0 8d 69 00
        E 360 93 30 69
        E 0 93 31 6b
        E 0 93 48 69
        E 0 93 49 6b
        E 0 93 4a 6b
        E 0 93 4b 69
        E 0 93 4c 69
        E 0 93 4d 69
        E 0 93 60 69
        E 0 93 61 6b
        E 0 93 62 6b
        E 0 93 63 69
        E 0 93 64 69
        E 0 93 65 69
        E 120 83 30 00
        E 0 83 31 00
        E 0 83 48 00
        E 0 83 49 00
        E 0 83 4a 00
        E 0 83 4b 00
        E 0 83 4c 00
        E 0 83 4d 00
        E 0 83 60 00
        E 0 83 61 00
        E 0 83 62 00
        E 0 83 63 00
        E 0 83 64 00
        E 0 83 65 00
        E 120 93 48 69
        E 0 93 49 6b
        E 0 93 4a 6b
        E 0 93 4b 69
        E 0 93 4c 69
        E 0 93 4d 69
        E 0 93 60 69
        E 0 93 61 6b
        E 0 93 62 6b
        E 0 93 63 69
        E 0 93 64 69
        E 0 93 65 69
        E 120 83 48 00
        E 0 83 49 00
        E 0 83 4a 00
        E 0 83 4b 00
        E 0 83 4c 00
        E 0 83 4d 00
        E 0 83 60 00
        E 0 83 61 00
        E 0 83 62 00
        E 0 83 63 00
        E 0 83 64 00
        E 0 83 65 00
        E 120 90 05 64
        E 0 90 18 65
        E 0 90 30 65
        E 0 90 31 67
        E 0 90 48 65
        E 0 90 49 67
        E 0 90 4a 67
        E 0 90 4b 66
        E 0 90 4c 65
        E 0 90 4d 65
        E 0 90 60 65
        E 0 90 61 67
        E 0 90 62 67
        E 0 90 63 66
        E 0 90 64 65
        E 0 90 65 65
        E 0 90 6c 65
        E 0 9f 69 64
        E 120 80 05 00
        E 0 80 6c 00
        E 360 80 18 00
        E 0 80 30 00
        E 0 80 31 00
        E 360 80 48 00
        E 0 80 49 00
        E 0 80 4a 00
        E 0 80 4b 00
        E 0 80 4c 00
        E 0 80 4d 00
        E 0 80 60 00
        E 0 80 61 00
        E 0 80 62 00
        E 0 80 63 00
        E 0 80 64 00
        E 0 80 65 00
        E 0 8f 69 00
        E 120 90 18 65
        E 0 90 30 65
        E 0 90 31 67
        E 0 90 48 65
        E 0 90 49 67
        E 0 90 4a 67
        E 0 90 4b 66
        E 0 90 4c 65
        E 0 90 4d 65
        E 0 90 60 65
        E 0 90 61 67
        E 0 90 62 67
        E 0 90 63 66
        E 0 90 64 65
        E 0 90 65 65
        E 0 9d 69 64
        E 120 80 18 00
        E 0 80 30 00
        E 0 80 31 00
        E 0 80 48 00
        E 0 80 49 00
        E 0 80 4a 00
        E 0 80 4b 00
        E 0 80 4c 00
        E 0 80 4d 00
        E 0 80 60 00
        E 0 80 61 00
        E 0 80 62 00
        E 0 80 63 00
        E 0 80 64 00
        E 0 80 65 00
        E 0 8d 69 00
        E 360 93 30 65
        E 0 93 31 67
        E 0 93 48 65
        E 0 93 49 67
        E 0 93 4a 67
        E 0 93 4b 66
        E 0 93 4c 65
        E 0 93 4d 65
        E 0 93 60 65
        E 0 93 61 67
        E 0 93 62 67
        E 0 93 63 66
        E 0 93 64 65
        E 0 93 65 65
        E 120 83 30 00
        E 0 83 31 00
        E 0 83 48 00
        E 0 83 49 00
        E 0 83 4a 00
        E 0 83 4b 00
        E 0 83 4c 00
        E 0 83 4d 00
        E 0 83 60 00
        E 0 83 61 00
        E 0 83 62 00
        E 0 83 63 00
        E 0 83 64 00
        E 0 83 65 00
        E 120 90 48 65
        E 0 90 49 67
        E 0 90 4a 67
        E 0 90 4b 66
        E 0 90 4c 65
        E 0 90 4d 65
        E 0 90 60 65
        E 0 90 61 67
        E 0 90 62 67
        E 0 90 63 66
        E 0 90 64 65
        E 0 90 65 65
        E 0 9d 69 64
        E 360 80 48 00
        E 0 80 49 00
        E 0 80 4a 00
        E 0 80 4b 00
        E 0 80 4c 00
        E 0 80 4d 00
        E 0 80 60 00
        E 0 80 61 00
        E 0 80 62 00
        E 0 80 63 00
        E 0 80 64 00
        E 0 80 65 00
        E 0 8d 69 00
        E 120 90 48 65
        E 0 90 49 67
        E 0 90 4a 67
        E 0 90 4b 66
        E 0 90 4c 65
        E 0 90 4d 65
        E 0 90 60 65
        E 0 90 61 67
        E 0 90 62 67
        E 0 90 63 66
        E 0 90 64 65
        E 0 90 65 65
        E 0 9d 69 64
        E 120 80 48 00
        E 0 80 49 00
        E 0 80 4a 00
        E 0 80 4b 00
        E 0 80 4c 00
        E 0 80 4d 00
        E 0 80 60 00
        E 0 80 61 00
        E 0 80 62 00
        E 0 80 63 00
        E 0 80 64 00
        E 0 80 65 00
        E 0 8d 69 00
        E 120 90 18 65
        E 0 90 30 65
        E 0 90 31 67
        E 0 90 48 65
        E 0 90 49 67
        E 0 90 4a 67
        E 0 90 4b 66
        E 0 90 4c 65
        E 0 90 4d 65
        E 0 90 60 65
        E 0 90 61 67
        E 0 90 62 67
        E 0 90 63 66
        E 0 90 64 65
        E 0 90 65 65
        E 0 9f 69 64
        E 480 80 18 00
        E 0 80 30 00
        E 0 80 31 00
        E 120 80 48 00
        E 0 80 49 00
        E 0 80 4a 00
        E 0 80 4b 00
        E 0 80 4c 00
        E 0 80 4d 00
        E 0 80 60 00
        E 0 80 61 00
        E 0 80 62 00
        E 0 80 63 00
        E 0 80 64 00
        E 0 80 65 00
        E 0 8f 69 00
        E 120 90 48 65
        E 0 90 49 67
        E 0 90 4a 67
        E 0 90 4b 66
        E 0 90 4c 65
        E 0 90 4d 65
        E 0 90 60 65
        E 0 90 61 67
        E 0 90 62 67
        E 0 90 63 66
        E 0 90 64 65
        E 0 90 65 65
        E 0 9d 69 64
        E 120 80 48 00
        E 0 80 49 00
        E 0 80 4a 00
        E 0 80 4b 00
        E 0 80 4c 00
        E 0 80 4d 00
        E 0 80 60 00
        E 0 80 61 00
        E 0 80 62 00
        E 0 80 63 00
        E 0 80 64 00
        E 0 80 65 00
        E 0 8d 69 00
        E 120 90 30 65
        E 0 90 31 67
        E 0 90 48 65
        E 0 90 49 67
        E 0 90 4a 67
        E 0 90 4b 66
        E 0 90 4c 65
        E 0 90 4d 65
        E 0 90 60 65
        E 0 90 61 67
        E 0 90 62 67
        E 0 90 63 66
        E 0 90 64 65
        E 0 90 65 65
        E 0 9f 69 64
        E 120 80 30 00
        E 0 80 31 00
        E 0 80 48 00
        E 0 80 49 00
        E 0 80 4a 00
        E 0 80 4b 00
        E 0 80 4c 00
        E 0 80 4d 00
        E 0 80 60 00
        E 0 80 61 00
        E 0 80 62 00
        E 0 80 63 00
        E 0 80 64 00
        E 0 80 65 00
        E 0 8f 69 00
        E 120 93 48 65
        E 0 93 49 67
        E 0 93 4a 67
        E 0 93 4b 66
        E 0 93 4c 65
        E 0 93 4d 65
        E 0 93 60 65
        E 0 93 61 67
        E 0 93 62 67
        E 0 93 63 66
        E 0 93 64 65
        E 0 93 65 65
        E 120 83 48 00
        E 0 83 49 00
        E 0 83 4a 00
        E 0 83 4b 00
        E 0 83 4c 00
        E 0 83 4d 00
        E 0 83 60 00
        E 0 83 61 00
        E 0 83 62 00
        E 0 83 63 00
        E 0 83 64 00
        E 0 83 65 00
        <X 120 0
          /wFbZW5kX3BnIHNvbmdfdHJhaW5lcl9wZ18yXQ==
        >
        <X 0 0
          /wFbYmVnaW5fcGcgc29uZ190cmFpbmVyX3BnXzNd
        >
        E 0 90 0c 64
        E 0 90 19 67
        E 0 90 31 67
        E 0 90 32 66
        E 0 90 49 67
        E 0 90 4a 66
        E 0 90 4b 64
        E 0 90 4c 65
        E 0 90 4d 64
        E 0 90 61 67
        E 0 90 62 66
        E 0 90 63 64
        E 0 90 64 65
        E 0 90 65 64
        E 0 9f 69 64
        E 120 80 0c 00
        E 360 80 19 00
        E 0 80 31 00
        E 0 80 32 00
        E 360 80 49 00
        E 0 80 4a 00
        E 0 80 4b 00
        E 0 80 4c 00
        E 0 80 4d 00
        E 0 80 61 00
        E 0 80 62 00
        E 0 80 63 00
        E 0 80 64 00
        E 0 80 65 00
        E 0 8f 69 00
        E 120 90 31 67
        E 0 90 32 66
        E 0 90 49 67
        E 0 90 4a 66
        E 0 90 4b 64
        E 0 90 4c 65
        E 0 90 4d 64
        E 0 90 61 67
        E 0 90 62 66
        E 0 90 63 64
        E 0 90 64 65
        E 0 90 65 64
        E 0 9d 69 64
        E 120 80 31 00
        E 0 80 32 00
        E 0 80 49 00
        E 0 80 4a 00
        E 0 80 4b 00
        E 0 80 4c 00
        E 0 80 4d 00
        E 0 80 61 00
        E 0 80 62 00
        E 0 80 63 00
        E 0 80 64 00
        E 0 80 65 00
        E 0 8d 69 00
        E 360 93 31 67
        E 0 93 32 66
        E 0 93 49 67
        E 0 93 4a 66
        E 0 93 4b 64
        E 0 93 4c 65
        E 0 93 4d 64
        E 0 93 61 67
        E 0 93 62 66
        E 0 93 63 64
        E 0 93 64 65
        E 0 93 65 64
        E 120 83 31 00
        E 0 83 32 00
        E 0 83 49 00
        E 0 83 4a 00
        E 0 83 4b 00
        E 0 83 4c 00
        E 0 83 4d 00
        E 0 83 61 00
        E 0 83 62 00
        E 0 83 63 00
        E 0 83 64 00
        E 0 83 65 00
        E 120 93 49 67
        E 0 93 4a 66
        E 0 93 4b 64
        E 0 93 4c 65
        E 0 93 4d 64
        E 0 93 61 67
        E 0 93 62 66
        E 0 93 63 64
        E 0 93 64 65
        E 0 93 65 64
        E 120 83 49 00
        E 0 83 4a 00
        E 0 83 4b 00
        E 0 83 4c 00
        E 0 83 4d 00
        E 0 83 61 00
        E 0 83 62 00
        E 0 83 63 00
        E 0 83 64 00
        E 0 83 65 00
        <X 120 0
          /wFbcGdfbm9ybSBzb25nX3RyYWluZXJfcGdfM10=
        >
        E 0 90 04 64
        E 0 90 19 66
        E 0 90 31 66
        E 0 90 32 66
        E 0 90 48 64
        E 0 90 49 66
        E 0 90 4a 66
        E 0 90 4b 64
        E 0 90 4c 64
        E 0 90 4d 64
        E 0 90 60 64
        E 0 90 61 66
        E 0 90 62 66
        E 0 90 63 64
        E 0 90 64 64
        E 0 90 65 64
        E 0 90 6c 66
        E 0 90 74 60
        E 0 9f 69 64
        E 120 80 04 00
        E 0 80 6c 00
        E 360 80 19 00
        E 0 80 31 00
        E 0 80 32 00
        E 360 80 48 00
        E 0 80 49 00
        E 0 80 4a 00
        E 0 80 4b 00
        E 0 80 4c 00
        E 0 80 4d 00
        E 0 80 60 00
        E 0 80 61 00
        E 0 80 62 00
        E 0 80 63 00
        E 0 80 64 00
        E 0 80 65 00
        E 0 8f 69 00
        E 120 90 19 66
        E 0 90 31 66
        E 0 90 32 66
        E 0 90 48 64
        E 0 90 49 66
        E 0 90 4a 66
        E 0 90 4b 64
        E 0 90 4c 64
        E 0 90 4d 64
        E 0 90 60 64
        E 0 90 61 66
        E 0 90 62 66
        E 0 90 63 64
        E 0 90 64 64
        E 0 90 65 64
        E 0 9d 69 64
        E 120 80 19 00
        E 0 80 31 00
        E 0 80 32 00
        E 0 80 48 00
        E 0 80 49 00
        E 0 80 4a 00
        E 0 80 4b 00
        E 0 80 4c 00
        E 0 80 4d 00
        E 0 80 60 00
        E 0 80 61 00
        E 0 80 62 00
        E 0 80 63 00
        E 0 80 64 00
        E 0 80 65 00
        E 0 8d 69 00
        E 360 93 31 66
        E 0 93 32 66
        E 0 93 48 64
        E 0 93 49 66
        E 0 93 4a 66
        E 0 93 4b 64
        E 0 93 4c 64
        E 0 93 4d 64
        E 0 93 60 64
        E 0 93 61 66
        E 0 93 62 66
        E 0 93 63 64
        E 0 93 64 64
        E 0 93 65 64
        E 120 83 31 00
        E 0 83 32 00
        E 0 83 48 00
        E 0 83 49 00
        E 0 83 4a 00
        E 0 83 4b 00
        E 0 83 4c 00
        E 0 83 4d 00
        E 0 83 60 00
        E 0 83 61 00
        E 0 83 62 00
        E 0 83 63 00
        E 0 83 64 00
        E 0 83 65 00
        E 120 93 48 64
        E 0 93 49 66
        E 0 93 4a 66
        E 0 93 4b 64
        E 0 93 4c 64
        E 0 93 4d 64
        E 0 93 60 64
        E 0 93 61 66
        E 0 93 62 66
        E 0 93 63 64
        E 0 93 64 64
        E 0 93 65 64
        E 120 83 48 00
        E 0 83 49 00
        E 0 83 4a 00
        E 0 83 4b 00
        E 0 83 4c 00
        E 0 83 4d 00
        E 0 83 60 00
        E 0 83 61 00
        E 0 83 62 00
        E 0 83 63 00
        E 0 83 64 00
        E 0 83 65 00
        E 120 90 0e 64
        E 0 90 33 66
        E 0 90 34 67
        E 0 90 4a 64
        E 0 90 4b 66
        E 0 90 4c 67
        E 0 90 4d 65
        E 0 90 62 64
        E 0 90 63 66
        E 0 90 64 67
        E 0 90 65 65
        E 0 90 6c 65
        E 0 9f 69 64
        E 120 80 74 00
        E 0 80 0e 00
        E 0 80 6c 00
        E 360 80 33 00
        E 0 80 34 00
        E 360 80 4a 00
        E 0 80 4b 00
        E 0 80 4c 00
        E 0 80 4d 00
        E 0 80 62 00
        E 0 80 63 00
        E 0 80 64 00
        E 0 80 65 00
        E 0 8f 69 00
        E 120 90 33 66
        E 0 90 34 67
        E 0 90 4a 64
        E 0 90 4b 66
        E 0 90 4c 67
        E 0 90 4d 65
        E 0 90 62 64
        E 0 90 63 66
        E 0 90 64 67
        E 0 90 65 65
        E 0 9d 69 64
        E 120 80 33 00
        E 0 80 34 00
        E 0 80 4a 00
        E 0 80 4b 00
        E 0 80 4c 00
        E 0 80 4d 00
        E 0 80 62 00
        E 0 80 63 00
        E 0 80 64 00
        E 0 80 65 00
        E 0 8d 69 00
        E 360 93 33 66
        E 0 93 34 67
        E 0 93 4a 64
        E 0 93 4b 66
        E 0 93 4c 67
        E 0 93 4d 65
        E 0 93 62 64
        E 0 93 63 66
        E 0 93 64 67
        E 0 93 65 65
        E 120 83 33 00
        E 0 83 34 00
        E 0 83 4a 00
        E 0 83 4b 00
        E 0 83 4c 00
        E 0 83 4d 00
        E 0 83 62 00
        E 0 83 63 00
        E 0 83 64 00
        E 0 83 65 00
        E 120 90 4a 64
        E 0 90 4b 66
        E 0 90 4c 67
        E 0 90 4d 65
        E 0 90 62 64
        E 0 90 63 66
        E 0 90 64 67
        E 0 90 65 65
        E 0 9d 69 64
        E 360 80 4a 00
        E 0 80 4b 00
        E 0 80 4c 00
        E 0 80 4d 00
        E 0 80 62 00
        E 0 80 63 00
        E 0 80 64 00
        E 0 80 65 00
        E 0 8d 69 00
        E 120 90 4a 64
        E 0 90 4b 66
        E 0 90 4c 67
        E 0 90 4d 65
        E 0 90 62 64
        E 0 90 63 66
        E 0 90 64 67
        E 0 90 65 65
        E 0 9d 69 64
        E 120 80 4a 00
        E 0 80 4b 00
        E 0 80 4c 00
        E 0 80 4d 00
        E 0 80 62 00
        E 0 80 63 00
        E 0 80 64 00
        E 0 80 65 00
        E 0 8d 69 00
        E 120 90 33 66
        E 0 90 34 67
        E 0 90 4a 64
        E 0 90 4b 66
        E 0 90 4c 67
        E 0 90 4d 65
        E 0 90 62 64
        E 0 90 63 66
        E 0 90 64 67
        E 0 90 65 65
        E 0 9f 69 64
        E 120 80 33 00
        E 0 80 34 00
        E 480 80 4a 00
        E 0 80 4b 00
        E 0 80 4c 00
        E 0 80 4d 00
        E 0 80 62 00
        E 0 80 63 00
        E 0 80 64 00
        E 0 80 65 00
        E 0 8f 69 00
        E 120 90 33 66
        E 0 90 34 67
        E 0 90 4a 64
        E 0 90 4b 66
        E 0 90 4c 67
        E 0 90 4d 65
        E 0 90 62 64
        E 0 90 63 66
        E 0 90 64 67
        E 0 90 65 65
        E 0 9d 69 64
        E 120 80 33 00
        E 0 80 34 00
        E 0 80 4a 00
        E 0 80 4b 00
        E 0 80 4c 00
        E 0 80 4d 00
        E 0 80 62 00
        E 0 80 63 00
        E 0 80 64 00
        E 0 80 65 00
        E 0 8d 69 00
        E 120 90 33 66
        E 0 90 34 67
        E 0 90 4a 64
        E 0 90 4b 66
        E 0 90 4c 67
        E 0 90 4d 65
        E 0 90 62 64
        E 0 90 63 66
        E 0 90 64 67
        E 0 90 65 65
        E 0 9f 69 64
        E 120 80 33 00
        E 0 80 34 00
        E 0 80 4a 00
        E 0 80 4b 00
        E 0 80 4c 00
        E 0 80 4d 00
        E 0 80 62 00
        E 0 80 63 00
        E 0 80 64 00
        E 0 80 65 00
        E 0 8f 69 00
        E 120 93 4a 64
        E 0 93 4b 66
        E 0 93 4c 67
        E 0 93 4d 65
        E 0 93 62 64
        E 0 93 63 66
        E 0 93 64 67
        E 0 93 65 65
        E 120 83 4a 00
        E 0 83 4b 00
        E 0 83 4c 00
        E 0 83 4d 00
        E 0 83 62 00
        E 0 83 63 00
        E 0 83 64 00
        E 0 83 65 00
        <X 120 0
          /wFbYmVnaW5fcGcgc29uZ190cmFpbmVyX3BnXzRd
        >
        <X 0 0
          /wFbZW5kX3BnIHNvbmdfdHJhaW5lcl9wZ18zXQ==
        >
        E 0 90 09 64
        E 0 90 18 69
        E 0 90 30 69
        E 0 90 31 6b
        E 0 90 48 69
        E 0 90 49 6b
        E 0 90 4a 6b
        E 0 90 4b 69
        E 0 90 4c 69
        E 0 90 4d 69
        E 0 90 60 69
        E 0 90 61 6b
        E 0 90 62 6b
        E 0 90 63 69
        E 0 90 64 69
        E 0 90 65 69
        E 0 90 6c 69
        E 0 9f 69 64
        E 120 80 09 00
        E 0 80 6c 00
        E 360 80 18 00
        E 0 80 30 00
        E 0 80 31 00
        E 360 80 48 00
        E 0 80 49 00
        E 0 80 4a 00
        E 0 80 4b 00
        E 0 80 4c 00
        E 0 80 4d 00
        E 0 80 60 00
        E 0 80 61 00
        E 0 80 62 00
        E 0 80 63 00
        E 0 80 64 00
        E 0 80 65 00
        E 0 8f 69 00
        E 120 90 30 69
        E 0 90 31 6b
        E 0 90 48 69
        E 0 90 49 6b
        E 0 90 4a 6b
        E 0 90 4b 69
        E 0 90 4c 69
        E 0 90 4d 69
        E 0 90 60 69
        E 0 90 61 6b
        E 0 90 62 6b
        E 0 90 63 69
        E 0 90 64 69
        E 0 90 65 69
        E 0 9d 69 64
        E 120 80 30 00
        E 0 80 31 00
        E 0 80 48 00
        E 0 80 49 00
        E 0 80 4a 00
        E 0 80 4b 00
        E 0 80 4c 00
        E 0 80 4d 00
        E 0 80 60 00
        E 0 80 61 00
        E 0 80 62 00
        E 0 80 63 00
        E 0 80 64 00
        E 0 80 65 00
        E 0 8d 69 00
        E 360 93 30 69
        E 0 93 31 6b
        E 0 93 48 69
        E 0 93 49 6b
        E 0 93 4a 6b
        E 0 93 4b 69
        E 0 93 4c 69
        E 0 93 4d 69
        E 0 93 60 69
        E 0 93 61 6b
        E 0 93 62 6b
        E 0 93 63 69
        E 0 93 64 69
        E 0 93 65 69
        E 120 83 30 00
        E 0 83 31 00
        E 0 83 48 00
        E 0 83 49 00
        E 0 83 4a 00
        E 0 83 4b 00
        E 0 83 4c 00
        E 0 83 4d 00
        E 0 83 60 00
        E 0 83 61 00
        E 0 83 62 00
        E 0 83 63 00
        E 0 83 64 00
        E 0 83 65 00
        E 120 93 48 69
        E 0 93 49 6b
        E 0 93 4a 6b
        E 0 93 4b 69
        E 0 93 4c 69
        E 0 93 4d 69
        E 0 93 60 69
        E 0 93 61 6b
        E 0 93 62 6b
        E 0 93 63 69
        E 0 93 64 69
        E 0 93 65 69
        E 120 83 48 00
        E 0 83 49 00
        E 0 83 4a 00
        E 0 83 4b 00
        E 0 83 4c 00
        E 0 83 4d 00
        E 0 83 60 00
        E 0 83 61 00
        E 0 83 62 00
        E 0 83 63 00
        E 0 83 64 00
        E 0 83 65 00
        E 120 90 07 64
        E 0 90 18 67
        E 0 90 30 67
        E 0 90 31 66
        E 0 90 48 67
        E 0 90 49 66
        E 0 90 4a 64
        E 0 90 4b 64
        E 0 90 4c 64
        E 0 90 4d 67
        E 0 90 60 67
        E 0 90 61 66
        E 0 90 62 64
        E 0 90 63 64
        E 0 90 64 64
        E 0 90 65 67
        E 0 90 6c 66
        E 0 9f 69 64
        E 120 80 07 00
        E 0 80 6c 00
        E 360 80 18 00
        E 0 80 30 00
        E 0 80 31 00
        E 360 80 48 00
        E 0 80 49 00
        E 0 80 4a 00
        E 0 80 4b 00
        E 0 80 4c 00
        E 0 80 4d 00
        E 0 80 60 00
        E 0 80 61 00
        E 0 80 62 00
        E 0 80 63 00
        E 0 80 64 00
        E 0 80 65 00
        E 0 8f 69 00
        E 120 90 18 67
        E 0 90 30 67
        E 0 90 31 66
        E 0 90 48 67
        E 0 90 49 66
        E 0 90 4a 64
        E 0 90 4b 64
        E 0 90 4c 64
        E 0 90 4d 67
        E 0 90 60 67
        E 0 90 61 66
        E 0 90 62 64
        E 0 90 63 64
        E 0 90 64 64
        E 0 90 65 67
        E 0 9d 69 64
        E 120 80 18 00
        E 0 80 30 00
        E 0 80 31 00
        E 0 80 48 00
        E 0 80 49 00
        E 0 80 4a 00
        E 0 80 4b 00
        E 0 80 4c 00
        E 0 80 4d 00
        E 0 80 60 00
        E 0 80 61 00
        E 0 80 62 00
        E 0 80 63 00
        E 0 80 64 00
        E 0 80 65 00
        E 0 8d 69 00
        E 360 93 30 67
        E 0 93 31 66
        E 0 93 48 67
        E 0 93 49 66
        E 0 93 4a 64
        E 0 93 4b 64
        E 0 93 4c 64
        E 0 93 4d 67
        E 0 93 60 67
        E 0 93 61 66
        E 0 93 62 64
        E 0 93 63 64
        E 0 93 64 64
        E 0 93 65 67
        E 120 83 30 00
        E 0 83 31 00
        E 0 83 48 00
        E 0 83 49 00
        E 0 83 4a 00
        E 0 83 4b 00
        E 0 83 4c 00
        E 0 83 4d 00
        E 0 83 60 00
        E 0 83 61 00
        E 0 83 62 00
        E 0 83 63 00
        E 0 83 64 00
        E 0 83 65 00
        E 120 93 48 67
        E 0 93 49 66
        E 0 93 4a 64
        E 0 93 4b 64
        E 0 93 4c 64
        E 0 93 4d 67
        E 0 93 60 67
        E 0 93 61 66
        E 0 93 62 64
        E 0 93 63 64
        E 0 93 64 64
        E 0 93 65 67
        E 120 83 48 00
        E 0 83 49 00
        E 0 83 4a 00
        E 0 83 4b 00
        E 0 83 4c 00
        E 0 83 4d 00
        E 0 83 60 00
        E 0 83 61 00
        E 0 83 62 00
        E 0 83 63 00
        E 0 83 64 00
        E 0 83 65 00
        E 120 90 0c 64
        E 0 90 19 67
        E 0 90 31 67
        E 0 90 32 66
        E 0 90 49 67
        E 0 90 4a 66
        E 0 90 4b 64
        E 0 90 4c 65
        E 0 90 4d 64
        E 0 90 61 67
        E 0 90 62 66
        E 0 90 63 64
        E 0 90 64 65
        E 0 90 65 64
        E 0 90 6c 65
        E 0 9f 69 64
        E 120 80 0c 00
        E 0 80 6c 00
        E 360 80 19 00
        E 0 80 31 00
        E 0 80 32 00
        E 360 80 49 00
        E 0 80 4a 00
        E 0 80 4b 00
        E 0 80 4c 00
        E 0 80 4d 00
        E 0 80 61 00
        E 0 80 62 00
        E 0 80 63 00
        E 0 80 64 00
        E 0 80 65 00
        E 0 8f 69 00
        E 120 90 31 67
        E 0 90 32 66
        E 0 90 49 67
        E 0 90 4a 66
        E 0 90 4b 64
        E 0 90 4c 65
        E 0 90 4d 64
        E 0 90 61 67
        E 0 90 62 66
        E 0 90 63 64
        E 0 90 64 65
        E 0 90 65 64
        E 0 9d 69 64
        E 120 80 31 00
        E 0 80 32 00
        E 0 80 49 00
        E 0 80 4a 00
        E 0 80 4b 00
        E 0 80 4c 00
        E 0 80 4d 00
        E 0 80 61 00
        E 0 80 62 00
        E 0 80 63 00
        E 0 80 64 00
        E 0 80 65 00
        E 0 8d 69 00
        E 360 93 31 67
        E 0 93 32 66
        E 0 93 49 67
        E 0 93 4a 66
        E 0 93 4b 64
        E 0 93 4c 65
        E 0 93 4d 64
        E 0 93 61 67
        E 0 93 62 66
        E 0 93 63 64
        E 0 93 64 65
        E 0 93 65 64
        E 120 83 31 00
        E 0 83 32 00
        E 0 83 49 00
        E 0 83 4a 00
        E 0 83 4b 00
        E 0 83 4c 00
        E 0 83 4d 00
        E 0 83 61 00
        E 0 83 62 00
        E 0 83 63 00
        E 0 83 64 00
        E 0 83 65 00
        E 120 90 49 67
        E 0 90 4a 66
        E 0 90 4b 64
        E 0 90 4c 65
        E 0 90 4d 64
        E 0 90 61 67
        E 0 90 62 66
        E 0 90 63 64
        E 0 90 64 65
        E 0 90 65 64
        E 0 9d 69 64
        E 360 80 49 00
        E 0 80 4a 00
        E 0 80 4b 00
        E 0 80 4c 00
        E 0 80 4d 00
        E 0 80 61 00
        E 0 80 62 00
        E 0 80 63 00
        E 0 80 64 00
        E 0 80 65 00
        E 0 8d 69 00
        E 120 90 49 67
        E 0 90 4a 66
        E 0 90 4b 64
        E 0 90 4c 65
        E 0 90 4d 64
        E 0 90 61 67
        E 0 90 62 66
        E 0 90 63 64
        E 0 90 64 65
        E 0 90 65 64
        E 0 9d 69 64
        E 120 80 49 00
        E 0 80 4a 00
        E 0 80 4b 00
        E 0 80 4c 00
        E 0 80 4d 00
        E 0 80 61 00
        E 0 80 62 00
        E 0 80 63 00
        E 0 80 64 00
        E 0 80 65 00
        E 0 8d 69 00
        E 120 90 19 67
        E 0 90 31 67
        E 0 90 32 66
        E 0 90 49 67
        E 0 90 4a 66
        E 0 90 4b 64
        E 0 90 4c 65
        E 0 90 4d 64
        E 0 90 61 67
        E 0 90 62 66
        E 0 90 63 64
        E 0 90 64 65
        E 0 90 65 64
        E 0 9f 69 64
        E 480 80 19 00
        E 0 80 31 00
        E 0 80 32 00
        E 120 80 49 00
        E 0 80 4a 00
        E 0 80 4b 00
        E 0 80 4c 00
        E 0 80 4d 00
        E 0 80 61 00
        E 0 80 62 00
        E 0 80 63 00
        E 0 80 64 00
        E 0 80 65 00
        E 0 8f 69 00
        <X 120 0
          /wFbZW5kX3BnIHNvbmdfdHJhaW5lcl9wZ180XQ==
        >
        <X 0 0
          /wFbYmVnaW5fcGcgc29uZ190cmFpbmVyX3BnXzVd
        >
        E 0 90 4a 69
        E 0 90 62 69
        E 0 90 6c 69
        E 0 90 73 64
        E 120 80 4a 00
        E 0 80 62 00
        E 0 80 6c 00
        E 120 90 32 6b
        E 0 90 36 64
        E 0 90 4a 6b
        E 0 90 4e 64
        E 0 90 62 6b
        E 0 90 66 64
        E 120 80 32 00
        E 0 80 36 00
        E 0 80 4a 00
        E 0 80 4e 00
        E 0 80 62 00
        E 0 80 66 00
        E 120 90 4b 69
        E 0 90 63 69
        E 120 80 4b 00
        E 0 80 63 00
        E 120 90 1b 6b
        E 0 90 33 6b
        E 0 90 4b 6b
        E 0 90 63 6b
        E 0 90 6c 6b
        E 60 80 63 00
        E 0 90 63 6d
        E 0 90 66 64
        E 60 80 1b 00
        E 0 80 33 00
        E 0 80 6c 00
        E 240 80 4b 00
        E 0 80 63 00
        E 0 80 66 00
        E 120 90 1b 6b
        E 0 90 33 6b
        E 0 90 4b 6b
        E 0 90 63 6b
        E 60 80 63 00
        E 0 90 63 6d
        E 0 90 66 64
        E 60 80 1b 00
        E 0 80 33 00
        E 240 80 4b 00
        E 0 80 63 00
        E 0 80 66 00
        E 120 90 1b 6b
        E 0 90 33 6b
        E 0 90 4b 6b
        E 0 90 63 6b
        E 60 80 63 00
        E 0 90 63 6d
        E 0 90 66 64
        E 60 80 1b 00
        E 0 80 33 00
        E 240 80 4b 00
        E 0 80 63 00
        E 0 80 66 00
        E 120 90 1b 6b
        E 0 90 33 6b
        E 0 90 4b 6b
        E 0 90 63 6b
        E 60 80 63 00
        E 0 90 63 6d
        E 0 90 66 64
        E 60 80 1b 00
        E 0 80 33 00
        E 240 80 4b 00
        E 0 80 63 00
        E 0 80 66 00
        E 120 90 1b 6b
        E 0 90 33 6b
        E 0 90 4b 6b
        E 0 90 63 6b
        E 60 80 1b 00
        E 0 80 33 00
        E 0 80 4b 00
        E 0 80 63 00
        E 0 90 63 6d
        E 0 90 66 64
        E 60 80 63 00
        E 0 80 66 00
        E 120 90 4c 6c
        E 0 90 64 6c
        E 60 80 4c 00
        E 60 80 64 00
        E 120 90 1b 6d
        E 0 90 33 6d
        E 0 90 4b 6d
        E 0 90 63 6d
        E 120 80 1b 00
        E 0 80 33 00
        E 240 80 4b 00
        E 0 80 63 00
        E 120 90 1b 6d
        E 0 90 33 6d
        E 0 90 4b 6d
        E 0 90 63 6d
        E 120 80 1b 00
        E 0 80 33 00
        E 0 80 4b 00
        E 0 80 63 00
        E 120 90 4b 6b
        E 0 90 4e 64
        E 0 90 63 6b
        E 0 90 66 64
        E 120 80 4b 00
        E 0 80 4e 00
        E 0 80 63 00
        E 0 80 66 00
        E 120 90 33 6b
        E 0 90 4b 6b
        E 0 90 63 6b
        E 120 80 33 00
        E 240 80 4b 00
        E 0 80 63 00
        E 120 90 1b 6b
        E 0 90 33 6b
        E 0 90 4b 6b
        E 0 90 63 6b
        E 0 90 6c 69
        E 0 90 74 60
        E 120 80 1b 00
        E 0 80 33 00
        E 0 80 6c 00
        E 240 80 4b 00
        E 0 80 63 00
        E 120 90 1b 69
        E 0 90 33 69
        E 0 90 4b 69
        E 0 90 63 69
        E 60 80 63 00
        E 0 90 63 6b
        E 0 90 66 64
        E 60 80 1b 00
        E 0 80 33 00
        E 240 80 4b 00
        E 0 80 63 00
        E 0 80 66 00
        E 120 90 1b 69
        E 0 90 33 69
        E 0 90 4b 69
        E 0 90 63 69
        E 60 80 63 00
        E 0 90 63 6b
        E 0 90 66 64
        E 60 80 1b 00
        E 0 80 33 00
        E 240 80 4b 00
        E 0 80 63 00
        E 0 80 66 00
        E 120 90 1b 69
        E 0 90 33 69
        E 0 90 4b 69
        E 0 90 63 69
        E 60 80 63 00
        E 0 90 63 6b
        E 0 90 66 64
        E 60 80 1b 00
        E 0 80 33 00
        E 240 80 4b 00
        E 0 80 63 00
        E 0 80 66 00
        E 120 90 1b 69
        E 0 90 33 69
        E 0 90 4b 69
        E 0 90 63 69
        E 60 80 63 00
        E 0 90 63 6b
        E 0 90 66 64
        E 60 80 1b 00
        E 0 80 33 00
        E 240 80 4b 00
        E 0 80 63 00
        E 0 80 66 00
        E 120 90 33 69
        E 0 90 4b 69
        E 0 90 63 69
        E 60 80 33 00
        E 0 80 4b 00
        E 0 80 63 00
        E 0 90 63 6b
        E 0 90 66 64
        E 60 80 63 00
        E 0 80 66 00
        E 120 90 4b 6b
        E 0 90 63 6b
        E 0 90 6c 6b
        E 120 80 4b 00
        E 0 80 63 00
        E 0 80 6c 00
        E 120 90 1b 6d
        E 0 90 33 6d
        E 0 90 4b 6d
        E 0 90 63 6d
        E 120 80 1b 00
        E 0 80 33 00
        E 0 80 4b 00
        E 0 80 63 00
        E 120 90 4b 6b
        E 0 90 63 6b
        E 120 80 4b 00
        E 0 80 63 00
        E 120 90 32 6b
        E 0 90 4a 6b
        E 0 90 62 6b
        E 0 90 6c 69
        E 120 80 32 00
        E 0 80 4a 00
        E 0 80 62 00
        E 0 80 6c 00
        E 120 90 4a 69
        E 0 90 62 69
        E 120 80 4a 00
        E 0 80 62 00
        <X 120 0
          /wFbYmVnaW5fcGcgc29uZ190cmFpbmVyX3BnXzZd
        >
        <X 0 0
          /wFbZW5kX3BnIHNvbmdfdHJhaW5lcl9wZ181XQ==
        >
        E 0 80 74 00
        E 0 90 1a 69
        E 0 90 32 69
        E 0 90 4a 69
        E 0 90 62 69
        E 120 80 1a 00
        E 0 80 32 00
        E 0 80 4a 00
        E 0 80 62 00
        E 0 90 62 6b
        E 120 80 62 00
        E 0 90 4b 69
        E 0 90 63 69
        E 120 80 4b 00
        E 0 80 63 00
        E 120 90 33 69
        E 0 90 4b 69
        E 0 90 63 69
        E 120 80 33 00
        E 240 80 4b 00
        E 0 80 63 00
        E 120 90 1b 6b
        E 0 90 33 6b
        E 0 90 4b 6b
        E 0 90 63 6b
        E 120 80 1b 00
        E 0 80 33 00
        E 0 80 4b 00
        E 0 80 63 00
        E 120 90 34 69
        E 0 90 4c 69
        E 0 90 64 69
        E 120 80 34 00
        E 0 80 4c 00
        E 0 80 64 00
        E 120 90 1b 6b
        E 0 90 33 6b
        E 0 90 4b 6b
        E 0 90 63 6b
        E 120 80 1b 00
        E 0 80 33 00
        E 0 80 4b 00
        E 0 80 63 00
        E 120 90 4a 6b
        E 0 90 62 6b
        E 120 80 4a 00
        E 0 80 62 00
        <X 120 0
          /wFbcGdfbm9ybSBzb25nX3RyYWluZXJfcGdfNl0=
        >
        E 0 90 1d 69
        E 0 90 35 69
        E 0 90 4d 69
        E 0 90 65 69
        E 120 80 1d 00
        E 0 80 35 00
        E 0 80 4d 00
        E 0 80 65 00
        E 120 90 34 69
        E 0 90 4c 69
        E 0 90 64 69
        E 120 80 34 00
        E 0 80 4c 00
        E 0 80 64 00
        E 0 90 65 69
        E 120 80 65 00
        E 120 90 4c 69
        E 0 90 64 69
        E 120 80 4c 00
        E 0 80 64 00
        E 0 90 65 69
        E 120 80 65 00
        E 120 90 1d 69
        E 0 90 35 69
        E 0 90 4d 69
        E 0 90 65 69
        E 120 80 1d 00
        E 0 80 35 00
        E 0 80 4d 00
        E 0 80 65 00
        E 120 90 4c 69
        E 0 90 64 69
        E 120 80 4c 00
        E 0 80 64 00
        E 120 90 1d 69
        E 0 90 35 69
        E 0 90 4d 69
        E 0 90 65 69
        E 120 80 1d 00
        E 0 80 35 00
        E 0 80 4d 00
        E 0 80 65 00
        E 120 90 4c 69
        E 0 90 64 69
        E 120 80 4c 00
        E 0 80 64 00
        E 120 90 1c 6a
        E 0 90 34 6a
        E 0 90 4c 6a
        E 0 90 64 6a
        E 0 90 6c 68
        E 120 80 1c 00
        E 0 80 34 00
        E 0 80 6c 00
        E 240 80 4c 00
        E 0 80 64 00
        E 120 90 32 67
        E 0 90 4a 67
        E 0 90 62 67
        E 0 90 6c 67
        E 120 80 32 00
        E 0 80 6c 00
        E 240 80 4a 00
        E 0 80 62 00
        E 120 90 1c 69
        E 0 90 34 69
        E 0 90 4c 69
        E 0 90 64 69
        E 0 90 6c 69
        E 120 80 1c 00
        E 0 80 34 00
        E 0 80 6c 00
        E 240 80 4c 00
        E 0 80 64 00
        E 120 90 34 6c
        E 0 90 4c 6c
        E 0 90 64 6c
        E 120 80 34 00
        E 240 80 4c 00
        E 0 80 64 00
        E 360 90 35 67
        E 0 90 4d 67
        E 0 90 65 67
        E 0 90 6c 67
        E 120 80 35 00
        E 0 80 4d 00
        E 0 80 65 00
        E 0 80 6c 00
        E 120 90 1d 69
        E 0 90 35 69
        E 0 90 4d 69
        E 0 90 65 69
        E 120 80 1d 00
        E 0 80 35 00
        E 0 80 4d 00
        E 0 80 65 00
        E 120 90 35 69
        E 0 90 4d 69
        E 0 90 65 69
        E 120 80 35 00
        E 0 80 4d 00
        E 0 80 65 00
        E 120 90 1d 69
        E 0 90 35 69
        E 0 90 4d 69
        E 0 90 65 69
        E 120 80 1d 00
        E 0 80 35 00
        E 0 80 4d 00
        E 0 80 65 00
        E 120 90 4c 69
        E 0 90 64 69
        E 120 80 4c 00
        E 0 80 64 00
        E 120 90 1d 67
        E 0 90 35 67
        E 0 90 4d 67
        E 0 90 65 67
        E 120 80 1d 00
        E 0 80 35 00
        E 240 80 4d 00
        E 0 80 65 00
        <X 120 0
          /wFbZW5kX3BnIHNvbmdfdHJhaW5lcl9wZ182XQ==
        >
        <X 0 0
          /wFbYmVnaW5fcGcgc29uZ190cmFpbmVyX3BnXzdd
        >
        E 0 90 6c 67
        E 0 94 1d 70
        E 0 94 35 70
        E 0 94 4d 70
        E 0 94 65 70
        E 120 80 6c 00
        E 0 84 1d 00
        E 0 84 35 00
        E 0 84 4d 00
        E 0 84 65 00
        E 0 94 65 6c
        E 120 84 65 00
        E 0 94 4d 67
        E 0 94 65 67
        E 120 84 4d 00
        E 0 84 65 00
        E 0 94 65 70
        E 120 84 65 00
        E 0 94 1d 6c
        E 0 94 35 6c
        E 0 94 4d 6c
        E 0 94 65 6c
        E 120 84 1d 00
        E 0 84 35 00
        E 0 84 4d 00
        E 0 84 65 00
        E 0 94 65 67
        E 120 84 65 00
        E 0 94 4d 70
        E 0 94 65 70
        E 120 84 4d 00
        E 0 84 65 00
        E 0 94 65 6c
        E 120 84 65 00
        E 0 94 1d 67
        E 0 94 35 67
        E 0 94 4d 67
        E 0 94 65 67
        E 120 84 1d 00
        E 0 84 35 00
        E 0 84 4d 00
        E 0 84 65 00
        E 0 94 65 70
        E 120 84 65 00
        E 0 94 4d 6c
        E 0 94 65 6c
        E 120 84 4d 00
        E 0 84 65 00
        E 0 94 65 67
        E 120 84 65 00
        E 0 94 1d 70
        E 0 94 35 70
        E 0 94 4d 70
        E 0 94 65 70
        E 80 84 1d 00
        E 0 84 35 00
        E 0 84 4d 00
        E 0 84 65 00
        E 0 94 65 6c
        E 80 84 65 00
        E 0 94 65 67
        E 80 84 65 00
        E 0 94 35 70
        E 0 94 4d 70
        E 0 94 65 70
        E 80 84 35 00
        E 0 84 4d 00
        E 0 84 65 00
        E 0 94 65 6c
        E 80 84 65 00
        E 0 94 65 67
        <X 80 0
          /wFbcGdfbm9ybSBzb25nX3RyYWluZXJfcGdfN10=
        >
        E 0 90 74 60
        E 0 84 65 00
        E 240 90 35 70
        E 0 90 4d 70
        E 0 90 65 70
        E 0 90 6c 70
        E 120 80 35 00
        E 0 80 4d 00
        E 0 80 65 00
        E 0 80 6c 00
        E 0 90 64 71
        E 120 80 64 00
        E 0 90 1c 73
        E 0 90 34 73
        E 0 90 4c 73
        E 0 90 64 73
        E 120 80 1c 00
        E 0 80 34 00
        E 0 80 4c 00
        E 0 80 64 00
        E 0 90 64 71
        E 120 80 64 00
        E 0 90 4b 70
        E 0 90 63 70
        E 120 80 4b 00
        E 0 80 63 00
        E 0 90 64 73
        E 120 80 64 00
        E 0 90 1c 73
        E 0 90 34 73
        E 0 90 4c 73
        E 0 92 64 73
        E 120 80 1c 00
        E 0 80 34 00
        E 240 80 4c 00
        E 0 82 64 00
        E 120 90 11 64
        E 0 90 34 73
        E 0 90 35 70
        E 0 90 4c 73
        E 0 90 4d 70
        E 0 90 64 73
        E 0 90 65 70
        E 0 90 6b 64
        E 0 90 6c 70
        E 120 80 34 00
        E 0 80 35 00
        E 0 80 6c 00
        E 240 80 11 00
        E 0 80 4c 00
        E 0 80 4d 00
        E 0 80 64 00
        E 0 80 65 00
        E 0 80 6b 00
        E 120 80 74 00
        E 0 90 1c 73
        E 0 90 34 73
        E 0 90 4c 73
        E 0 90 64 73
        E 120 80 1c 00
        E 0 80 34 00
        E 240 80 4c 00
        E 0 80 64 00
        E 120 90 1d 70
        E 0 90 35 70
        E 0 90 4d 70
        E 0 90 65 70
        E 120 80 1d 00
        E 0 80 35 00
        E 240 80 4d 00
        E 0 80 65 00
        E 120 90 1c 73
        E 0 90 34 73
        E 0 90 4c 73
        E 0 90 64 73
        E 0 90 6c 72
        E 120 80 1c 00
        E 0 80 34 00
        E 0 80 4c 00
        E 0 80 64 00
        E 0 80 6c 00
        E 120 90 34 75
        E 0 90 4c 75
        E 0 90 64 75
        E 120 80 34 00
        E 0 80 4c 00
        E 0 80 64 00
        E 120 90 1c 73
        E 0 90 34 73
        E 0 90 4c 73
        E 0 90 64 73
        E 120 80 1c 00
        E 0 80 34 00
        E 240 80 4c 00
        E 0 80 64 00
        E 120 90 1c 73
        E 0 90 34 73
        E 0 90 4c 73
        E 0 90 64 73
        E 120 80 1c 00
        E 0 80 34 00
        E 0 80 4c 00
        E 0 80 64 00
        E 120 90 34 73
        E 0 90 4c 73
        E 0 90 64 73
        E 120 80 34 00
        E 0 80 4c 00
        E 0 80 64 00
        E 120 90 1c 73
        E 0 90 34 73
        E 0 90 4c 73
        E 0 90 64 73
        E 120 80 1c 00
        E 0 80 34 00
        E 0 80 4c 00
        E 0 80 64 00
        E 120 90 34 73
        E 0 90 4c 73
        E 0 90 64 73
        E 120 80 34 00
        E 0 80 4c 00
        E 0 80 64 00
        E 120 90 1c 73
        E 0 90 34 73
        E 0 90 4c 73
        E 0 90 64 73
        E 120 80 1c 00
        E 0 80 34 00
        E 0 80 4c 00
        E 0 80 64 00
        E 120 90 34 73
        E 0 90 4c 73
        E 0 90 64 73
        E 120 80 34 00
        E 0 80 4c 00
        E 0 80 64 00
        E 120 90 1c 73
        E 0 90 34 73
        E 0 90 4c 73
        E 0 90 64 73
        E 120 80 1c 00
        E 0 80 34 00
        E 0 80 4c 00
        E 0 80 64 00
        E 120 90 34 73
        E 0 90 4c 73
        E 0 90 64 73
        E 120 80 34 00
        E 0 80 4c 00
        E 0 80 64 00
        <X 120 0
          /wFbYmVnaW5fcGcgc29uZ190cmFpbmVyX3BnXzhd
        >
        <X 0 0
          /wFbZW5kX3BnIHNvbmdfdHJhaW5lcl9wZ183XQ==
        >
        E 0 90 1c 73
        E 0 90 34 73
        E 0 90 4c 73
        E 0 90 64 73
        E 120 80 1c 00
        E 0 80 34 00
        E 0 80 4c 00
        E 0 80 64 00
        E 120 90 4c 71
        E 0 90 64 71
        E 0 90 6c 70
        E 120 80 4c 00
        E 0 80 64 00
        E 0 80 6c 00
        E 120 90 1c 71
        E 0 90 34 71
        E 0 90 4c 71
        E 0 90 64 71
        E 120 80 1c 00
        E 0 80 34 00
        E 240 80 4c 00
        E 0 80 64 00
        E 120 90 1c 71
        E 0 90 34 71
        E 0 90 4c 71
        E 0 90 64 71
        E 120 80 1c 00
        E 0 80 34 00
        E 0 80 4c 00
        E 0 80 64 00
        E 120 90 4b 70
        E 0 90 63 70
        E 0 90 6c 6d
        E 120 80 4b 00
        E 0 80 63 00
        E 0 80 6c 00
        E 120 90 33 70
        E 0 90 4b 70
        E 0 90 63 70
        E 120 80 33 00
        E 240 80 4b 00
        E 0 80 63 00
        E 120 90 1b 70
        E 0 90 33 70
        E 0 90 4b 70
        E 0 90 63 70
        E 120 80 1b 00
        E 0 80 33 00
        E 0 80 4b 00
        E 0 80 63 00
        E 280 90 63 6d
        E 80 80 63 00
        E 0 90 1b 70
        E 0 90 33 70
        E 0 90 4b 70
        E 0 90 63 70
        E 120 80 1b 00
        E 0 80 33 00
        E 0 80 4b 00
        E 0 80 63 00
        E 0 90 63 6d
        E 120 80 63 00
        E 0 90 33 70
        E 0 90 4b 70
        E 0 90 63 70
        E 120 80 33 00
        E 0 80 4b 00
        E 0 80 63 00
        E 0 90 63 6d
        E 120 80 63 00
        E 0 90 1b 70
        E 0 90 33 70
        E 0 90 4b 70
        E 0 90 63 70
        E 0 90 6c 6e
        E 120 80 1b 00
        E 0 80 33 00
        E 0 80 4b 00
        E 0 80 63 00
        E 0 80 6c 00
        E 120 90 4a 70
        E 0 90 62 70
        E 120 80 4a 00
        E 0 80 62 00
        E 120 90 32 70
        E 0 90 4a 70
        E 0 90 62 70
        E 120 80 32 00
        E 0 80 4a 00
        E 0 80 62 00
        E 120 90 4a 6e
        E 0 90 62 6e
        E 120 80 4a 00
        E 0 80 62 00
        E 120 90 1a 6e
        E 0 90 32 6e
        E 0 90 4a 6e
        E 0 90 62 6e
        E 120 80 1a 00
        E 0 80 32 00
        E 240 80 4a 00
        E 0 80 62 00
        E 120 90 1a 6e
        E 0 90 32 6e
        E 0 90 4a 6e
        E 0 90 62 6e
        E 120 80 1a 00
        E 0 80 32 00
        E 240 80 4a 00
        E 0 80 62 00
        E 120 90 1a 6e
        E 0 90 32 6e
        E 0 90 4a 6e
        E 0 90 62 6e
        E 120 80 1a 00
        E 0 80 32 00
        E 240 80 4a 00
        E 0 80 62 00
        E 120 90 32 6e
        E 0 90 4a 6e
        E 0 90 62 6e
        E 120 80 32 00
        E 0 80 4a 00
        E 0 80 62 00
        E 120 90 49 6e
        E 0 90 61 6e
        E 120 80 49 00
        E 0 80 61 00
        E 120 90 19 70
        E 0 90 31 70
        E 0 90 49 70
        E 0 90 61 70
        E 120 80 19 00
        E 0 80 31 00
        E 0 80 49 00
        E 0 80 61 00
        E 120 90 4a 6e
        E 0 90 62 6e
        E 120 80 4a 00
        E 0 80 62 00
        E 120 90 31 70
        E 0 90 49 70
        E 0 90 61 70
        E 120 80 31 00
        E 240 80 49 00
        E 0 80 61 00
        E 120 90 1a 69
        E 0 90 32 69
        E 0 90 4a 69
        E 0 90 62 69
        E 0 90 6c 69
        E 120 80 1a 00
        E 0 80 32 00
        E 0 80 4a 00
        E 0 80 62 00
        E 0 80 6c 00
        E 120 90 49 6b
        E 0 90 61 6b
        E 120 80 49 00
        E 0 80 61 00
        E 120 90 31 69
        E 0 90 49 69
        E 0 90 61 69
        E 120 80 31 00
        E 0 80 49 00
        E 0 80 61 00
        E 120 90 48 69
        E 0 90 60 69
        E 120 80 48 00
        E 0 80 60 00
        E 120 90 18 6c
        E 0 90 30 6c
        E 0 90 48 6c
        E 0 90 60 6c
        E 5759 80 18 00
        E 0 80 30 00
        E 0 80 48 00
        <X 1 0
          /wFbZW5kX3BnIHNvbmdfdHJhaW5lcl9wZ184XQ==
        >
        E 0 80 73 00
        E 0 80 60 00
        E 5760 b0 7b 00
        GUID {5200D357-6B39-4416-90B8-97DBE9320AAB}
        IGNTEMPO 0 120.00000000 4 4
        SRCCOLOR 2
        VELLANE 132 100 100
        COLORMAP "C:\Users\Ruggery\AppData\Roaming\Reaper\Data\color_maps\rockband_proguitarbass.png"
        TEXTSTRINGFILE "C:\Program Files (x86)\REAPER\Data\Text_Strings\Text Events List - Pro Trainers.txt"
        CFGEDITVIEW 25580.170902 134.382065 0 12 0 0 0
        CFGEDIT 1 1 0 1 1 0 1 1 15 1 1 0.25000000 -8 0 1364 744 0 2 1 2 0.00000000 0 1 0 0 0.500000 0 0 1.000000 64
        KEYSNAP 0 0 "100304450070" 0 "Blues"
        EVTFILTER 0 -1 -1 -1 -1 14 0 0 0 -1.00000000 -1.00000000
      >
    >
  >
  <TRACK '{13354D24-4920-4D74-A1FC-7ACF76E39713}'
    NAME "EVENTS"
    PEAKCOL 16576
    BEAT -1
    AUTOMODE 0
    VOLPAN 1.00000000000000 0.00000000000000 -1.00000000000000 -1.00000000000000 1.00000000000000
    MUTESOLO 0 0 0
    IPHASE 0
    ISBUS 0 0
    BUSCOMP 0 0
    SHOWINMIX 1 0.666700 0.500000 1 0.500000 -1 -1 -1
    FREEMODE 0
    SEL 0
    REC 0 0 0 0 0 0 0
    VU 2
    TRACKHEIGHT 0 0
    INQ 0 0 0 0.5000000000 100 0 0 100
    NCHAN 2
    FX 1
    TRACKID {13354D24-4920-4D74-A1FC-7ACF76E39713}
    PERF 0
    MIDIOUT -1
    MAINSEND 1 0
    <ITEM
      POSITION 0.00000000000000
      SNAPOFFS 0.00000000000000
      LENGTH 87.58319334564294
      LOOP 0
      ALLTAKES 0
      SEL 0
      FADEIN 1 0.000000 0.000000 1 0
      FADEOUT 1 0.000000 0.000000 1 0
      MUTE 0
      IGUID {6B0C05DD-F461-45F4-A11D-C1FBC5D9E852}
      IID 13
      NAME "EVENTS"
      VOLPAN 1.000000 0.000000 1.000000 -1.000000
      SOFFS 0.00000000000000 0.00000000000000
      PLAYRATE 1.00000000000000 1 0.00000000000000 -1
      CHANMODE 0
      GUID {22FBC1E7-4F66-46FF-95B1-20FD504BDF06}
      <SOURCE MIDI
        HASDATA 1 480 QN
        POOLEDEVTS {8C137EE0-0B20-4630-B7A9-366EF251BCD2}
        <X 0 0
          /wNFVkVOVFM=
        >
        <X 3840 0
          /wFbcHJjX3ZlcnNlXzFd
        >
        <X 2400 0
          /wFbY3Jvd2RfbWVsbG93XQ==
        >
        <X 0 0
          /wFbbXVzaWNfc3RhcnRd
        >
        <X 14880 0
          /wFbcHJjX3ZlcnNlXzJd
        >
        <X 15360 0
          /wFbcHJjX291dHJvX3NvbG9fYV0=
        >
        <X 0 0
          /wFbY3Jvd2Rfbm9ybWFsXQ==
        >
        <X 15360 0
          /wFbcHJjX291dHJvX3NvbG9fYl0=
        >
        <X 16320 0
          /wFbbXVzaWNfZW5kXQ==
        >
        <X 10555 0
          /wFbZW5kXQ==
        >
        E 5 b0 7b 00
        GUID {E20C4226-09F3-4A5F-8202-635D825C500B}
        IGNTEMPO 0 120.00000000 4 4
        SRCCOLOR 8
        VELLANE 132 100 100
        COLORMAP "C:\Program Files (x86)\REAPER\Data\color_maps\rockband_guitarbass.png"
        CFGEDITVIEW 70652.730883 130.649230 61 12 0 0 0
        CFGEDIT 1 1 0 1 1 0 1 1 1 1 1 0.25000000 -8 -8 1364 736 0 0 1 2 0.00000000 0 1 0 0 0.500000 0 0 1.000000 64
        KEYSNAP 0 0 "100304450070" 0 "Blues"
        EVTFILTER 0 -1 -1 -1 -1 0 1 0 0 -1.00000000 -1.00000000
      >
    >
  >
  <TRACK '{24D0B141-0951-4754-B267-679E230357D1}'
    NAME "BEAT"
    PEAKCOL 16576
    BEAT -1
    AUTOMODE 0
    VOLPAN 1.00000000000000 0.00000000000000 -1.00000000000000 -1.00000000000000 1.00000000000000
    MUTESOLO 0 0 0
    IPHASE 0
    ISBUS 0 0
    BUSCOMP 0 0
    SHOWINMIX 1 0.666700 0.500000 1 0.500000 -1 -1 -1
    FREEMODE 0
    SEL 0
    REC 0 0 0 0 0 0 0
    VU 2
    TRACKHEIGHT 0 0
    INQ 0 0 0 0.5000000000 100 0 0 100
    NCHAN 2
    FX 1
    TRACKID {24D0B141-0951-4754-B267-679E230357D1}
    PERF 0
    MIDIOUT -1
    MAINSEND 1 0
    <ITEM
      POSITION 0.00000000000000
      SNAPOFFS 0.00000000000000
      LENGTH 87.58319334564294
      LOOP 0
      ALLTAKES 0
      SEL 0
      FADEIN 1 0.000000 0.000000 1 0
      FADEOUT 1 0.000000 0.000000 1 0
      MUTE 0
      IGUID {BF9B5664-FDD8-419D-9C84-807FD7FE2498}
      IID 12
      NAME "BEAT"
      VOLPAN 1.000000 0.000000 1.000000 -1.000000
      SOFFS 0.00000000000000 0.00000000000000
      PLAYRATE 1.00000000000000 1 0.00000000000000 -1
      CHANMODE 0
      GUID {EEEA3B25-7565-4BBC-90D1-ADE336E80E0D}
      <SOURCE MIDI
        HASDATA 1 480 QN
        POOLEDEVTS {A1C1F5BF-8F0D-4341-B47F-38EDADB56EF7}
        e 0 96 0c 64
        e 120 86 0c 00
        e 360 96 0d 64
        e 120 86 0d 00
        e 360 96 0d 64
        e 120 86 0d 00
        e 360 96 0d 64
        e 120 86 0d 00
        e 360 96 0c 64
        e 120 86 0c 00
        e 360 96 0d 64
        e 120 86 0d 00
        e 360 96 0d 64
        e 120 86 0d 00
        e 360 96 0d 64
        e 120 86 0d 00
        e 360 96 0c 64
        e 120 86 0c 00
        e 360 96 0d 64
        e 120 86 0d 00
        e 360 96 0d 64
        e 120 86 0d 00
        e 360 96 0d 64
        e 120 86 0d 00
        e 360 96 0c 64
        e 120 86 0c 00
        e 360 96 0d 64
        e 120 86 0d 00
        e 360 96 0d 64
        e 120 86 0d 00
        e 360 96 0d 64
        e 120 86 0d 00
        e 360 96 0c 64
        e 120 86 0c 00
        e 360 96 0d 64
        e 120 86 0d 00
        e 360 96 0d 64
        e 120 86 0d 00
        e 360 96 0d 64
        e 120 86 0d 00
        e 360 96 0c 64
        e 120 86 0c 00
        e 360 96 0d 64
        e 120 86 0d 00
        e 360 96 0d 64
        e 120 86 0d 00
        e 360 96 0d 64
        e 120 86 0d 00
        e 360 96 0c 64
        e 120 86 0c 00
        e 360 96 0d 64
        e 120 86 0d 00
        e 360 96 0d 64
        e 120 86 0d 00
        e 360 96 0d 64
        e 120 86 0d 00
        e 360 96 0c 64
        e 120 86 0c 00
        e 360 96 0d 64
        e 120 86 0d 00
        e 360 96 0d 64
        e 120 86 0d 00
        e 360 96 0d 64
        e 120 86 0d 00
        e 360 96 0c 64
        e 120 86 0c 00
        e 360 96 0d 64
        e 120 86 0d 00
        e 360 96 0d 64
        e 120 86 0d 00
        e 360 96 0d 64
        e 120 86 0d 00
        e 360 96 0c 64
        e 120 86 0c 00
        e 360 96 0d 64
        e 120 86 0d 00
        e 360 96 0d 64
        e 120 86 0d 00
        e 360 96 0d 64
        e 120 86 0d 00
        e 360 96 0c 64
        e 120 86 0c 00
        e 360 96 0d 64
        e 120 86 0d 00
        e 360 96 0d 64
        e 120 86 0d 00
        e 360 96 0d 64
        e 120 86 0d 00
        e 360 96 0c 64
        e 120 86 0c 00
        e 360 96 0d 64
        e 120 86 0d 00
        e 360 96 0d 64
        e 120 86 0d 00
        e 360 96 0d 64
        e 120 86 0d 00
        e 360 96 0c 64
        e 120 86 0c 00
        e 360 96 0d 64
        e 120 86 0d 00
        e 360 96 0d 64
        e 120 86 0d 00
        e 360 96 0d 64
        e 120 86 0d 00
        e 360 96 0c 64
        e 120 86 0c 00
        e 360 96 0d 64
        e 120 86 0d 00
        e 360 96 0d 64
        e 120 86 0d 00
        e 360 96 0d 64
        e 120 86 0d 00
        e 360 96 0c 64
        e 120 86 0c 00
        e 360 96 0d 64
        e 120 86 0d 00
        e 360 96 0d 64
        e 120 86 0d 00
        e 360 96 0d 64
        e 120 86 0d 00
        e 360 96 0c 64
        e 120 86 0c 00
        e 360 96 0d 64
        e 120 86 0d 00
        e 360 96 0d 64
        e 120 86 0d 00
        e 360 96 0d 64
        e 120 86 0d 00
        e 360 96 0c 64
        e 120 86 0c 00
        e 360 96 0d 64
        e 120 86 0d 00
        e 360 96 0d 64
        e 120 86 0d 00
        e 360 96 0d 64
        e 120 86 0d 00
        e 360 96 0c 64
        e 120 86 0c 00
        e 360 96 0d 64
        e 120 86 0d 00
        e 360 96 0d 64
        e 120 86 0d 00
        e 360 96 0d 64
        e 120 86 0d 00
        e 360 96 0c 64
        e 120 86 0c 00
        e 360 96 0d 64
        e 120 86 0d 00
        e 360 96 0d 64
        e 120 86 0d 00
        e 360 96 0d 64
        e 120 86 0d 00
        e 360 96 0c 64
        e 120 86 0c 00
        e 360 96 0d 64
        e 120 86 0d 00
        e 360 96 0d 64
        e 120 86 0d 00
        e 360 96 0d 64
        e 120 86 0d 00
        e 360 96 0c 64
        e 120 86 0c 00
        e 360 96 0d 64
        e 120 86 0d 00
        e 360 96 0d 64
        e 120 86 0d 00
        e 360 96 0d 64
        e 120 86 0d 00
        e 360 96 0c 64
        e 120 86 0c 00
        e 360 96 0d 64
        e 120 86 0d 00
        e 360 96 0d 64
        e 120 86 0d 00
        e 360 96 0d 64
        e 120 86 0d 00
        e 360 96 0c 64
        e 120 86 0c 00
        e 360 96 0d 64
        e 120 86 0d 00
        e 360 96 0d 64
        e 120 86 0d 00
        e 360 96 0d 64
        e 120 86 0d 00
        e 360 96 0c 64
        e 120 86 0c 00
        e 360 96 0d 64
        e 120 86 0d 00
        e 360 96 0d 64
        e 120 86 0d 00
        e 360 96 0d 64
        e 120 86 0d 00
        e 360 96 0c 64
        e 120 86 0c 00
        e 360 96 0d 64
        e 120 86 0d 00
        e 360 96 0d 64
        e 120 86 0d 00
        e 360 96 0d 64
        e 120 86 0d 00
        e 360 96 0c 64
        e 120 86 0c 00
        e 360 96 0d 64
        e 120 86 0d 00
        e 360 96 0d 64
        e 120 86 0d 00
        e 360 96 0d 64
        e 120 86 0d 00
        e 360 96 0c 64
        e 120 86 0c 00
        e 360 96 0d 64
        e 120 86 0d 00
        e 360 96 0d 64
        e 120 86 0d 00
        e 360 96 0d 64
        e 120 86 0d 00
        e 360 96 0c 64
        e 120 86 0c 00
        e 360 96 0d 64
        e 120 86 0d 00
        e 360 96 0d 64
        e 120 86 0d 00
        e 360 96 0d 64
        e 120 86 0d 00
        e 360 96 0c 64
        e 120 86 0c 00
        e 360 96 0d 64
        e 120 86 0d 00
        e 360 96 0d 64
        e 120 86 0d 00
        e 360 96 0d 64
        e 120 86 0d 00
        e 360 96 0c 64
        e 120 86 0c 00
        e 360 96 0d 64
        e 120 86 0d 00
        e 360 96 0d 64
        e 120 86 0d 00
        e 360 96 0d 64
        e 120 86 0d 00
        e 360 96 0c 64
        e 120 86 0c 00
        e 360 96 0d 64
        e 120 86 0d 00
        e 360 96 0d 64
        e 120 86 0d 00
        e 360 96 0d 64
        e 120 86 0d 00
        e 360 96 0c 64
        e 120 86 0c 00
        e 360 96 0d 64
        e 120 86 0d 00
        e 360 96 0d 64
        e 120 86 0d 00
        e 360 96 0d 64
        e 120 86 0d 00
        e 360 96 0c 64
        e 120 86 0c 00
        e 360 96 0d 64
        e 120 86 0d 00
        e 360 96 0d 64
        e 120 86 0d 00
        e 360 96 0d 64
        e 120 86 0d 00
        e 360 96 0c 64
        e 120 86 0c 00
        e 360 96 0d 64
        e 120 86 0d 00
        e 360 96 0d 64
        e 120 86 0d 00
        e 360 96 0d 64
        e 120 86 0d 00
        e 360 96 0c 64
        e 120 86 0c 00
        e 360 96 0d 64
        e 120 86 0d 00
        e 360 96 0d 64
        e 120 86 0d 00
        e 360 96 0d 64
        e 120 86 0d 00
        e 360 96 0c 64
        e 120 86 0c 00
        e 360 96 0d 64
        e 120 86 0d 00
        e 360 96 0d 64
        e 120 86 0d 00
        e 360 96 0d 64
        e 120 86 0d 00
        e 360 96 0c 64
        e 120 86 0c 00
        e 360 96 0d 64
        e 120 86 0d 00
        e 360 96 0d 64
        e 120 86 0d 00
        e 360 96 0d 64
        e 120 86 0d 00
        e 360 96 0c 64
        e 120 86 0c 00
        e 360 96 0d 64
        e 120 86 0d 00
        e 360 96 0d 64
        e 120 86 0d 00
        e 360 96 0d 64
        e 120 86 0d 00
        e 360 96 0c 64
        e 120 86 0c 00
        e 360 96 0d 64
        e 120 86 0d 00
        e 360 96 0d 64
        e 120 86 0d 00
        e 360 96 0d 64
        e 120 86 0d 00
        e 360 96 0c 64
        e 120 86 0c 00
        e 360 96 0d 64
        e 120 86 0d 00
        e 360 96 0d 64
        e 120 86 0d 00
        e 360 96 0d 64
        e 120 86 0d 00
        e 360 96 0c 64
        e 120 86 0c 00
        e 360 96 0d 64
        e 120 86 0d 00
        e 360 96 0d 64
        e 120 86 0d 00
        e 360 96 0d 64
        e 120 86 0d 00
        E 360 b0 7b 00
        GUID {1CC91B5F-8095-42C4-9697-0F3E8FA1DD9B}
        IGNTEMPO 0 120.00000000 4 4
        SRCCOLOR 7
        VELLANE 132 100 100
        COLORMAP "C:\Program Files (x86)\REAPER\Data\color_maps\rockband_guitarbass.png"
      >
    >
  >
  <TRACK '{024710E1-5AA8-404A-8153-ADD0E3739BB3}'
    NAME "backing"
    PEAKCOL 16576
    BEAT -1
    AUTOMODE 0
    VOLPAN 1.00000000000000 0.00000000000000 -1.00000000000000 -1.00000000000000 1.00000000000000
    MUTESOLO 0 0 0
    IPHASE 0
    ISBUS 0 0
    BUSCOMP 0 0
    SHOWINMIX 1 0.666700 0.500000 1 0.500000 -1 -1 -1
    FREEMODE 0
    SEL 0
    REC 0 0 0 0 0 0 0
    VU 2
    TRACKHEIGHT 0 0
    INQ 0 0 0 0.5000000000 100 0 0 100
    NCHAN 2
    FX 1
    TRACKID {024710E1-5AA8-404A-8153-ADD0E3739BB3}
    PERF 0
    MIDIOUT -1
    MAINSEND 1 0
    <ITEM
      POSITION 0.00000000000000
      SNAPOFFS 0.00000000000000
      LENGTH 87.58319727891157
      LOOP 0
      ALLTAKES 0
      SEL 0
      FADEIN 1 0.000000 0.000000 1 0
      FADEOUT 1 0.000000 0.000000 1 0
      MUTE 0
      IGUID {09549DCA-D7C9-4340-84CA-72F85BD2E701}
      IID 26
      NAME "backing.wav"
      VOLPAN 1.000000 0.000000 1.000000 -1.000000
      SOFFS 0.00000000000000
      PLAYRATE 1.00000000000000 1 0.00000000000000 -1
      CHANMODE 0
      GUID {7E09D1B0-0FA2-4A88-9AE3-C0B65011C40F}
      <SOURCE WAVE
        FILE "wav\backing.wav"
      >
    >
  >
  <EXTENSIONS
  >
>
