<REAPER_PROJECT 0.1 "4.22/x64"
  RIPPLE 0
  GROUPOVERRIDE 0 0 0
  AUTOXFADE 1
  ENVATTACH 1
  MIXERUIFLAGS 11 48
  PEAKGAIN 1.00000000000000
  FEEDBACK 0
  PANLAW 1.00000000000000
  PROJOFFS 0.00000000000000 0
  MAXPROJLEN 0 600.00000000000000
  GRID 3199 8 1.00000000000000 8 1.00000000000000 0
  TIMEMODE 1 0 -1
  PANMODE 3
  CURSOR 0.00000000000000
  ZOOM 9.42072206521019 0 0
  VZOOMEX 5
  USE_REC_CFG 0
  RECMODE 1
  SMPTESYNC 0 23.976024 100 40 1000 300 0 0.000000 1
  LOOP 1
  LOOPGRAN 0 4.00000000000000
  RECORD_PATH "" ""
  <RECORD_CFG
    ZXZhdxAD
  >
  <APPLYFX_CFG
  >
  RENDER_FILE ""
  RENDER_PATTERN ""
  RENDER_FMT 0 2 0
  RENDER_1X 0
  RENDER_RANGE 1 0.00000000000000 0.00000000000000
  RENDER_RESAMPLE 3 0 1
  RENDER_ADDTOPROJ 0
  RENDER_STEMS 0
  RENDER_DITHER 0
  TIMELOCKMODE 0
  ITEMMIX 0
  DEFPITCHMODE 393216
  TAKELANE 1
  SAMPLERATE 44100 0 0
  <RENDER_CFG
  >
  LOCK 1
  <METRONOME 6 2.000000
    VOL 0.250000 0.125000
    FREQ 800 1600 1
    BEATLEN 4
    SAMPLES "" ""
  >
  GLOBAL_AUTO -1
  TEMPO 120.00000000000000 4 4
  PLAYRATE 1.00000000000000 0 0.25000 4.00000
  SELECTION 119.20530000000001 0.00000000000000
  SELECTION2 119.20530000000001 0.00000000000000
  MASTERAUTOMODE 0
  MASTERTRACKHEIGHT 0
  MASTERPEAKCOL 16576
  MASTERMUTESOLO 0
  MASTERTRACKVIEW 0 0.666700 0.500000 0.500000 -1 -1 -1
  MASTERHWOUT 0 0 1.00000000000000 0.00000000000000 0 0 0 -1.00000000000000
  MASTER_NCH 2 2
  MASTER_VOLUME 0.15126673894058 0.00000000000000 -1.00000000000000 -1.00000000000000 1.00000000000000
  MASTER_PANMODE -1
  MASTER_FX 1
  MASTER_SEL 0
  <MASTERPLAYSPEEDENV
    ACT 0
    VIS 0 1 1.000000
    LANEHEIGHT 0 0
    ARM 0
    DEFSHAPE 0 -1 -1
  >
  <TEMPOENVEX
    ACT 1
    VIS 1 0 1.000000
    LANEHEIGHT 0 0
    ARM 0
    DEFSHAPE 1 -1 -1
    PT 0.000000000000 150.9999974833 1
  >
  <PROJBAY
  >
  <TRACK '{84A0986C-390D-411F-A4FE-FC2624D70FE1}'
    NAME "PART DRUMS"
    PEAKCOL 16576
    BEAT -1
    AUTOMODE 0
    VOLPAN 1.00000000000000 0.00000000000000 -1.00000000000000 -1.00000000000000 1.00000000000000
    MUTESOLO 0 0 0
    IPHASE 0
    ISBUS 1 1
    BUSCOMP 0 0
    SHOWINMIX 1 0.666700 0.500000 1 0.500000 -1 -1 -1
    FREEMODE 0
    SEL 0
    REC 0 0 0 0 0 0 0
    VU 2
    TRACKHEIGHT 0 0
    INQ 0 0 0 0.5000000000 100 0 0 100
    NCHAN 2
    FX 1
    TRACKID {84A0986C-390D-411F-A4FE-FC2624D70FE1}
    PERF 0
    MIDIOUT -1
    <MIDINOTENAMES
      0 127 "CYMBAL SWELLS"
      0 126 "DRUM ROLL"
      0 125 "---"
      0 124 "DRUM FILL"
      0 123 "DRUM FILL"
      0 122 "DRUM FILL"
      0 121 "DRUM FILL"
      0 120 "DRUM FILL (use all 5)"
      0 118 "----"
      0 116 "OVERDRIVE"
      0 114 "----"
      0 112 "TOM GEMS PAD 4"
      0 111 "TOM GEMS PAD 3"
      0 110 "TOM GEMS PAD 2"
      0 103 "Solo Marker"
      0 102 "----"
      0 100 "EXPERT Green"
      0 99 "EXPERT Blue"
      0 98 "EXPERT Yellow"
      0 97 "EXPERT Red"
      0 96 "EXPERT Kick"
      0 92 "----"
      0 88 "HARD Green"
      0 87 "HARD Blue"
      0 86 "HARD Yellow"
      0 85 "HARD Red"
      0 84 "HARD Kick"
      0 80 "----"
      0 76 "MEDIUM Green"
      0 75 "MEDIUM Blue"
      0 74 "MEDIUM Yellow"
      0 73 "MEDIUM Red"
      0 72 "MEDIUM Kick"
      0 68 "----"
      0 64 "EASY Green"
      0 63 "EASY Blue"
      0 62 "EASY Yellow"
      0 61 "EASY Red"
      0 60 "EASY Kick"
      0 56 "----"
      0 52 "-- DRUM ANIMATION --"
      0 51 "FLOOR TOM RH"
      0 50 "FLOOR TOM LH"
      0 49 "TOM2 RH"
      0 48 "TOM2 LH"
      0 47 "TOM1 RH"
      0 46 "TOM1 LH"
      0 45 "SOFT CRASH 2 LH"
      0 44 "CRASH 2 LH"
      0 43 "RIDE LH"
      0 42 "RIDE CYM RH"
      0 41 "CRASH2 CHOKE"
      0 40 "CRASH1 CHOKE"
      0 39 "CRASH2 SOFT RH"
      0 38 "CRASH2 HARD RH"
      0 37 "CRASH1 SOFT RH"
      0 36 "CRASH1 HARD RH"
      0 35 "CRASH1 SOFT LH"
      0 34 "CRASH1 HARD LH"
      0 32 "PERCUSSION RH"
      0 31 "HI-HAT RH"
      0 30 "HI-HAT LH"
      0 29 "SOFT SNARE RH"
      0 28 "SOFT SNARE LH"
      0 27 "SNARE RH"
      0 26 "SNARE LH"
      0 25 "HI-HAT OPEN"
      0 24 "KICK RF"
    >
    MAINSEND 1 0
    <FXCHAIN
      WNDRECT 0 43 891 559
      SHOW 0
      LASTSEL 0
      DOCKED 0
      BYPASS 0 0
      <VST "VSTi: RBN Preview (RBN)" "rbprev_vst64.dll" 0 ""
        dnBicu5e7f4AAAAAAgAAAAEAAAAAAAAAAgAAAAAAAAAEAAAAAQAAAA==
        AAAQAAMBqgAAABAAAAA=
      >
      FLOATPOS 0 0 0 0
      FXID {FDB2AAEC-B96A-4CF5-B091-740A440F114A}
      WAK 0
    >
    <ITEM
      POSITION 0.00000000000000
      SNAPOFFS 0.00000000000000
      LENGTH 119.20500000000000
      LOOP 0
      ALLTAKES 0
      SEL 0
      FADEIN 1 0.000000 0.000000 1 0
      FADEOUT 1 0.000000 0.000000 1 0
      MUTE 0
      IGUID {0117E39E-8F97-4B20-A798-5C9450918B9D}
      IID 1
      NAME "PART DRUMS"
      VOLPAN 1.000000 0.000000 1.000000 -1.000000
      SOFFS 0.00000000000000 0.00000000000000
      PLAYRATE 1.00000000000000 1 0.00000000000000 -1
      CHANMODE 0
      GUID {25FC9D73-CDA2-4439-B27F-315E161796FE}
      <SOURCE MIDI
        HASDATA 1 480 QN
        POOLEDEVTS {04620FA1-2E93-4E3C-B4FF-CB3C11B89774}
        <X 0 0
          /wNQQVJUIERSVU1T
        >
        <X 120 0
          /wFbbWl4IDAgZHJ1bXMwXQ==
        >
        <X 120 0
          /wFbbWl4IDEgZHJ1bXMwXQ==
        >
        <X 120 0
          /wFbbWl4IDIgZHJ1bXMwXQ==
        >
        <X 120 0
          /wFbbWl4IDMgZHJ1bXMwXQ==
        >
        <X 5280 0
          /wFbaWRsZV0=
        >
        <X 30720 0
          /wFbcGxheV0=
        >
        E 0 90 18 60
        E 0 90 19 60
        E 0 90 3c 60
        E 0 90 48 60
        E 0 90 54 60
        E 0 90 60 60
        E 120 80 18 00
        E 0 80 3c 00
        E 0 80 48 00
        E 0 80 54 00
        E 0 80 60 00
        E 360 80 19 00
        E 0 90 18 60
        E 0 90 19 60
        E 0 90 54 60
        E 0 90 60 60
        E 120 80 18 00
        E 0 80 54 00
        E 0 80 60 00
        E 360 80 19 00
        E 0 90 18 60
        E 0 90 19 60
        E 0 90 48 60
        E 0 90 54 60
        E 0 90 60 60
        E 1 90 3c 60
        E 119 80 18 00
        E 0 80 48 00
        E 0 80 54 00
        E 0 80 60 00
        E 1 80 3c 00
        E 359 80 19 00
        E 0 90 18 60
        E 0 90 19 60
        E 0 90 54 60
        E 0 90 60 60
        E 120 80 18 00
        E 0 80 54 00
        E 0 80 60 00
        E 360 80 19 00
        E 0 90 18 60
        E 0 90 19 60
        E 0 90 48 60
        E 0 90 54 60
        E 0 90 60 60
        E 1 90 3c 60
        E 119 80 18 00
        E 0 80 48 00
        E 0 80 54 00
        E 0 80 60 00
        E 1 80 3c 00
        E 359 80 19 00
        E 0 90 18 60
        E 0 90 19 60
        E 0 90 54 60
        E 0 90 60 60
        E 120 80 18 00
        E 0 80 54 00
        E 0 80 60 00
        E 120 90 74 60
        E 240 80 19 00
        E 0 90 18 60
        E 0 90 19 60
        E 0 90 48 60
        E 0 90 54 60
        E 0 90 60 60
        E 1 90 3c 60
        E 119 80 18 00
        E 0 80 48 00
        E 0 80 54 00
        E 0 80 60 00
        E 1 80 3c 00
        E 119 90 18 60
        E 0 90 54 60
        E 0 90 60 60
        E 120 80 18 00
        E 0 80 54 00
        E 0 80 60 00
        E 120 80 19 00
        E 0 90 18 60
        E 0 90 19 60
        E 0 90 54 60
        E 0 90 60 60
        E 120 80 18 00
        E 0 80 54 00
        E 0 80 60 00
        E 120 90 18 60
        E 0 90 60 60
        E 120 80 18 00
        E 0 80 60 00
        E 120 80 74 00
        E 0 80 19 00
        E 0 90 18 60
        E 0 90 19 60
        E 0 90 48 60
        E 0 90 54 60
        E 0 90 60 60
        E 1 90 3c 60
        E 119 80 18 00
        E 0 80 48 00
        E 0 80 54 00
        E 0 80 60 00
        E 1 80 3c 00
        E 359 80 19 00
        E 0 90 18 60
        E 0 90 19 60
        E 0 90 54 60
        E 0 90 60 60
        E 120 80 18 00
        E 0 80 54 00
        E 0 80 60 00
        E 360 80 19 00
        E 0 90 18 60
        E 0 90 19 60
        E 0 90 48 60
        E 0 90 54 60
        E 0 90 60 60
        E 1 90 3c 60
        E 119 80 18 00
        E 0 80 48 00
        E 0 80 54 00
        E 0 80 60 00
        E 1 80 3c 00
        E 359 80 19 00
        E 0 90 18 60
        E 0 90 19 60
        E 0 90 54 60
        E 0 90 60 60
        E 120 80 18 00
        E 0 80 54 00
        E 0 80 60 00
        E 360 80 19 00
        E 0 90 18 60
        E 0 90 19 60
        E 0 90 48 60
        E 0 90 54 60
        E 0 90 60 60
        E 0 90 78 60
        E 0 90 79 60
        E 0 90 7a 60
        E 0 90 7b 60
        E 0 90 7c 60
        E 1 90 3c 60
        E 119 80 18 00
        E 0 80 48 00
        E 0 80 54 00
        E 0 80 60 00
        E 1 80 3c 00
        E 359 80 19 00
        E 0 90 18 60
        E 0 90 19 60
        E 0 90 54 60
        E 0 90 60 60
        E 120 80 18 00
        E 0 80 54 00
        E 0 80 60 00
        E 360 80 19 00
        E 0 90 18 60
        E 0 90 19 60
        E 0 90 48 60
        E 0 90 54 60
        E 0 90 60 60
        E 1 90 3c 60
        E 119 80 18 00
        E 0 80 48 00
        E 0 80 54 00
        E 0 80 60 00
        E 1 80 3c 00
        E 119 90 18 60
        E 0 90 54 60
        E 0 90 60 60
        E 120 80 18 00
        E 0 80 54 00
        E 0 80 60 00
        E 120 80 19 00
        E 0 90 18 60
        E 0 90 19 60
        E 0 90 54 60
        E 0 90 60 60
        E 120 80 18 00
        E 0 80 54 00
        E 0 80 60 00
        E 120 90 18 60
        E 0 90 60 60
        E 120 80 18 00
        E 0 80 60 00
        E 120 80 78 00
        E 0 80 79 00
        E 0 80 7a 00
        E 0 80 7b 00
        E 0 80 7c 00
        E 0 80 19 00
        E 0 90 18 60
        E 0 90 19 60
        E 0 90 3c 60
        E 0 90 48 60
        E 0 90 54 60
        E 0 90 60 60
        E 120 80 18 00
        E 0 80 3c 00
        E 0 80 48 00
        E 0 80 54 00
        E 0 80 60 00
        E 360 80 19 00
        E 0 90 18 60
        E 0 90 19 60
        E 0 90 54 60
        E 0 90 60 60
        E 120 80 18 00
        E 0 80 54 00
        E 0 80 60 00
        E 360 80 19 00
        E 0 90 18 60
        E 0 90 19 60
        E 0 90 48 60
        E 0 90 54 60
        E 0 90 60 60
        E 1 90 3c 60
        E 119 80 18 00
        E 0 80 48 00
        E 0 80 54 00
        E 0 80 60 00
        E 1 80 3c 00
        E 359 80 19 00
        E 0 90 18 60
        E 0 90 19 60
        E 0 90 54 60
        E 0 90 60 60
        E 120 80 18 00
        E 0 80 54 00
        E 0 80 60 00
        E 360 80 19 00
        E 0 90 18 60
        E 0 90 19 60
        E 0 90 48 60
        E 0 90 54 60
        E 0 90 60 60
        E 1 90 3c 60
        E 119 80 18 00
        E 0 80 48 00
        E 0 80 54 00
        E 0 80 60 00
        E 1 80 3c 00
        E 359 80 19 00
        E 0 90 18 60
        E 0 90 19 60
        E 0 90 54 60
        E 0 90 60 60
        E 120 80 18 00
        E 0 80 54 00
        E 0 80 60 00
        E 360 80 19 00
        E 0 90 18 60
        E 0 90 19 60
        E 0 90 48 60
        E 0 90 54 60
        E 0 90 60 60
        E 1 90 3c 60
        E 119 80 18 00
        E 0 80 48 00
        E 0 80 54 00
        E 0 80 60 00
        E 1 80 3c 00
        E 119 90 18 60
        E 0 90 54 60
        E 0 90 60 60
        E 120 80 18 00
        E 0 80 54 00
        E 0 80 60 00
        E 120 80 19 00
        E 0 90 18 60
        E 0 90 19 60
        E 0 90 54 60
        E 0 90 60 60
        E 120 80 18 00
        E 0 80 54 00
        E 0 80 60 00
        E 120 90 18 60
        E 0 90 60 60
        E 120 80 18 00
        E 0 80 60 00
        E 120 80 19 00
        E 0 90 18 60
        E 0 90 19 60
        E 0 90 48 60
        E 0 90 54 60
        E 0 90 60 60
        E 1 90 3c 60
        E 119 80 18 00
        E 0 80 48 00
        E 0 80 54 00
        E 0 80 60 00
        E 1 80 3c 00
        E 359 80 19 00
        E 0 90 18 60
        E 0 90 19 60
        E 0 90 54 60
        E 0 90 60 60
        E 120 80 18 00
        E 0 80 54 00
        E 0 80 60 00
        E 360 80 19 00
        E 0 90 18 60
        E 0 90 19 60
        E 0 90 48 60
        E 0 90 54 60
        E 0 90 60 60
        E 1 90 3c 60
        E 119 80 18 00
        E 0 80 48 00
        E 0 80 54 00
        E 0 80 60 00
        E 1 80 3c 00
        E 359 80 19 00
        E 0 90 18 60
        E 0 90 19 60
        E 0 90 54 60
        E 0 90 60 60
        E 120 80 18 00
        E 0 80 54 00
        E 0 80 60 00
        E 360 80 19 00
        E 0 90 18 60
        E 0 90 19 60
        E 0 90 48 60
        E 0 90 54 60
        E 0 90 60 60
        E 0 90 78 60
        E 0 90 79 60
        E 0 90 7a 60
        E 0 90 7b 60
        E 0 90 7c 60
        E 1 90 3c 60
        E 119 80 18 00
        E 0 80 48 00
        E 0 80 54 00
        E 0 80 60 00
        E 1 80 3c 00
        E 359 80 19 00
        E 0 90 18 60
        E 0 90 19 60
        E 0 90 54 60
        E 0 90 60 60
        E 120 80 18 00
        E 0 80 54 00
        E 0 80 60 00
        E 360 80 19 00
        E 0 90 18 60
        E 0 90 19 60
        E 0 90 48 60
        E 0 90 54 60
        E 0 90 60 60
        E 1 90 3c 60
        E 119 80 18 00
        E 0 80 48 00
        E 0 80 54 00
        E 0 80 60 00
        E 1 80 3c 00
        E 119 90 18 60
        E 0 90 54 60
        E 0 90 60 60
        E 120 80 18 00
        E 0 80 54 00
        E 0 80 60 00
        E 120 80 19 00
        E 0 90 18 60
        E 0 90 19 60
        E 0 90 54 60
        E 0 90 60 60
        E 120 80 18 00
        E 0 80 54 00
        E 0 80 60 00
        E 120 90 18 60
        E 0 90 60 60
        E 120 80 18 00
        E 0 80 60 00
        E 120 80 78 00
        E 0 80 79 00
        E 0 80 7a 00
        E 0 80 7b 00
        E 0 80 7c 00
        E 0 80 19 00
        E 0 90 18 60
        E 0 90 19 60
        E 0 90 26 60
        E 0 90 40 60
        E 0 90 48 60
        E 0 90 4c 60
        E 0 90 54 60
        E 0 90 58 60
        E 0 90 60 60
        E 0 90 64 60
        E 0 90 6f 60
        E 120 80 18 00
        E 0 80 26 00
        E 0 80 40 00
        E 0 80 48 00
        E 0 80 4c 00
        E 0 80 54 00
        E 0 80 58 00
        E 0 80 60 00
        E 0 80 64 00
        E 120 90 33 60
        E 0 90 57 60
        E 0 90 63 60
        E 120 80 33 00
        E 0 80 57 00
        E 0 80 63 00
        E 120 80 19 00
        E 0 90 18 60
        E 0 90 19 60
        E 0 90 1a 60
        E 0 90 26 60
        E 0 90 3d 60
        E 0 90 40 60
        E 0 90 49 60
        E 0 90 4c 60
        E 0 90 54 60
        E 0 90 55 60
        E 0 90 58 60
        E 0 90 60 60
        E 0 90 61 60
        E 0 90 64 60
        E 120 80 18 00
        E 0 80 1a 00
        E 0 80 26 00
        E 0 80 3d 00
        E 0 80 40 00
        E 0 80 49 00
        E 0 80 4c 00
        E 0 80 54 00
        E 0 80 55 00
        E 0 80 58 00
        E 0 80 60 00
        E 0 80 61 00
        E 0 80 64 00
        E 120 90 33 60
        E 0 90 63 60
        E 120 80 33 00
        E 0 80 63 00
        E 120 80 19 00
        E 0 90 18 60
        E 0 90 19 60
        E 0 90 26 60
        E 0 90 40 60
        E 0 90 48 60
        E 0 90 4c 60
        E 0 90 54 60
        E 0 90 58 60
        E 0 90 60 60
        E 0 90 64 60
        E 0 90 74 60
        E 120 80 18 00
        E 0 80 26 00
        E 0 80 40 00
        E 0 80 48 00
        E 0 80 4c 00
        E 0 80 54 00
        E 0 80 58 00
        E 0 80 60 00
        E 0 80 64 00
        E 120 90 33 60
        E 0 90 57 60
        E 0 90 63 60
        E 120 80 33 00
        E 0 80 57 00
        E 0 80 63 00
        E 120 80 19 00
        E 0 90 18 60
        E 0 90 19 60
        E 0 90 1a 60
        E 0 90 26 60
        E 0 90 3d 60
        E 0 90 40 60
        E 0 90 49 60
        E 0 90 4c 60
        E 0 90 54 60
        E 0 90 55 60
        E 0 90 58 60
        E 0 90 60 60
        E 0 90 61 60
        E 0 90 64 60
        E 120 80 18 00
        E 0 80 1a 00
        E 0 80 26 00
        E 0 80 3d 00
        E 0 80 40 00
        E 0 80 49 00
        E 0 80 4c 00
        E 0 80 54 00
        E 0 80 55 00
        E 0 80 58 00
        E 0 80 60 00
        E 0 80 61 00
        E 0 80 64 00
        E 120 90 33 60
        E 0 90 63 60
        E 120 80 33 00
        E 0 80 63 00
        E 120 80 19 00
        E 0 90 18 60
        E 0 90 19 60
        E 0 90 26 60
        E 0 90 40 60
        E 0 90 48 60
        E 0 90 4c 60
        E 0 90 54 60
        E 0 90 58 60
        E 0 90 60 60
        E 0 90 64 60
        E 120 80 18 00
        E 0 80 26 00
        E 0 80 40 00
        E 0 80 48 00
        E 0 80 4c 00
        E 0 80 54 00
        E 0 80 58 00
        E 0 80 60 00
        E 0 80 64 00
        E 120 90 33 60
        E 0 90 57 60
        E 0 90 63 60
        E 120 80 33 00
        E 0 80 57 00
        E 0 80 63 00
        E 120 80 19 00
        E 0 90 18 60
        E 0 90 19 60
        E 0 90 1a 60
        E 0 90 26 60
        E 0 90 3d 60
        E 0 90 40 60
        E 0 90 49 60
        E 0 90 4c 60
        E 0 90 54 60
        E 0 90 55 60
        E 0 90 58 60
        E 0 90 60 60
        E 0 90 61 60
        E 0 90 64 60
        E 120 80 18 00
        E 0 80 1a 00
        E 0 80 26 00
        E 0 80 3d 00
        E 0 80 40 00
        E 0 80 49 00
        E 0 80 4c 00
        E 0 80 54 00
        E 0 80 55 00
        E 0 80 58 00
        E 0 80 60 00
        E 0 80 61 00
        E 0 80 64 00
        E 120 90 33 60
        E 0 90 63 60
        E 120 80 33 00
        E 0 80 63 00
        E 120 80 19 00
        E 0 90 18 60
        E 0 90 19 60
        E 0 90 26 60
        E 0 90 40 60
        E 0 90 48 60
        E 0 90 4c 60
        E 0 90 54 60
        E 0 90 58 60
        E 0 90 60 60
        E 0 90 64 60
        E 120 80 18 00
        E 0 80 26 00
        E 0 80 40 00
        E 0 80 48 00
        E 0 80 4c 00
        E 0 80 54 00
        E 0 80 58 00
        E 0 80 60 00
        E 0 80 64 00
        E 120 90 18 60
        E 0 90 33 60
        E 0 90 54 60
        E 0 90 57 60
        E 0 90 60 60
        E 0 90 63 60
        E 120 80 18 00
        E 0 80 33 00
        E 0 80 54 00
        E 0 80 57 00
        E 0 80 60 00
        E 0 80 63 00
        E 120 80 19 00
        E 0 90 18 60
        E 0 90 19 60
        E 0 90 1a 60
        E 0 90 26 60
        E 0 90 3d 60
        E 0 90 40 60
        E 0 90 49 60
        E 0 90 4c 60
        E 0 90 54 60
        E 0 90 55 60
        E 0 90 58 60
        E 0 90 60 60
        E 0 90 61 60
        E 0 90 64 60
        E 120 80 18 00
        E 0 80 1a 00
        E 0 80 26 00
        E 0 80 3d 00
        E 0 80 40 00
        E 0 80 49 00
        E 0 80 4c 00
        E 0 80 54 00
        E 0 80 55 00
        E 0 80 58 00
        E 0 80 60 00
        E 0 80 61 00
        E 0 80 64 00
        E 120 90 18 60
        E 0 90 33 60
        E 0 90 60 60
        E 0 90 63 60
        E 120 80 18 00
        E 0 80 33 00
        E 0 80 60 00
        E 0 80 63 00
        E 120 80 74 00
        E 0 80 19 00
        E 0 90 18 60
        E 0 90 19 60
        E 0 90 26 60
        E 0 90 40 60
        E 0 90 48 60
        E 0 90 4c 60
        E 0 90 54 60
        E 0 90 58 60
        E 0 90 60 60
        E 0 90 64 60
        E 120 80 18 00
        E 0 80 26 00
        E 0 80 40 00
        E 0 80 48 00
        E 0 80 4c 00
        E 0 80 54 00
        E 0 80 58 00
        E 0 80 60 00
        E 0 80 64 00
        E 120 90 33 60
        E 0 90 57 60
        E 0 90 63 60
        E 120 80 33 00
        E 0 80 57 00
        E 0 80 63 00
        E 120 80 19 00
        E 0 90 18 60
        E 0 90 19 60
        E 0 90 1a 60
        E 0 90 26 60
        E 0 90 3d 60
        E 0 90 40 60
        E 0 90 49 60
        E 0 90 4c 60
        E 0 90 54 60
        E 0 90 55 60
        E 0 90 58 60
        E 0 90 60 60
        E 0 90 61 60
        E 0 90 64 60
        E 120 80 18 00
        E 0 80 1a 00
        E 0 80 26 00
        E 0 80 3d 00
        E 0 80 40 00
        E 0 80 49 00
        E 0 80 4c 00
        E 0 80 54 00
        E 0 80 55 00
        E 0 80 58 00
        E 0 80 60 00
        E 0 80 61 00
        E 0 80 64 00
        E 120 90 33 60
        E 0 90 63 60
        E 120 80 33 00
        E 0 80 63 00
        E 120 80 19 00
        E 0 90 18 60
        E 0 90 19 60
        E 0 90 26 60
        E 0 90 40 60
        E 0 90 48 60
        E 0 90 4c 60
        E 0 90 54 60
        E 0 90 58 60
        E 0 90 60 60
        E 0 90 64 60
        E 120 80 18 00
        E 0 80 26 00
        E 0 80 40 00
        E 0 80 48 00
        E 0 80 4c 00
        E 0 80 54 00
        E 0 80 58 00
        E 0 80 60 00
        E 0 80 64 00
        E 120 90 33 60
        E 0 90 57 60
        E 0 90 63 60
        E 120 80 33 00
        E 0 80 57 00
        E 0 80 63 00
        E 120 80 19 00
        E 0 90 18 60
        E 0 90 19 60
        E 0 90 1a 60
        E 0 90 26 60
        E 0 90 3d 60
        E 0 90 40 60
        E 0 90 49 60
        E 0 90 4c 60
        E 0 90 54 60
        E 0 90 55 60
        E 0 90 58 60
        E 0 90 60 60
        E 0 90 61 60
        E 0 90 64 60
        E 120 80 18 00
        E 0 80 1a 00
        E 0 80 26 00
        E 0 80 3d 00
        E 0 80 40 00
        E 0 80 49 00
        E 0 80 4c 00
        E 0 80 54 00
        E 0 80 55 00
        E 0 80 58 00
        E 0 80 60 00
        E 0 80 61 00
        E 0 80 64 00
        E 120 90 33 60
        E 0 90 63 60
        E 120 80 33 00
        E 0 80 63 00
        E 120 80 19 00
        E 0 90 18 60
        E 0 90 19 60
        E 0 90 26 60
        E 0 90 40 60
        E 0 90 48 60
        E 0 90 4c 60
        E 0 90 54 60
        E 0 90 58 60
        E 0 90 60 60
        E 0 90 64 60
        E 0 90 78 60
        E 0 90 79 60
        E 0 90 7a 60
        E 0 90 7b 60
        E 0 90 7c 60
        E 120 80 18 00
        E 0 80 26 00
        E 0 80 40 00
        E 0 80 48 00
        E 0 80 4c 00
        E 0 80 54 00
        E 0 80 58 00
        E 0 80 60 00
        E 0 80 64 00
        E 120 90 33 60
        E 0 90 57 60
        E 0 90 63 60
        E 120 80 33 00
        E 0 80 57 00
        E 0 80 63 00
        E 120 80 19 00
        E 0 90 18 60
        E 0 90 19 60
        E 0 90 1a 60
        E 0 90 26 60
        E 0 90 3d 60
        E 0 90 40 60
        E 0 90 49 60
        E 0 90 4c 60
        E 0 90 54 60
        E 0 90 55 60
        E 0 90 58 60
        E 0 90 60 60
        E 0 90 61 60
        E 0 90 64 60
        E 120 80 18 00
        E 0 80 1a 00
        E 0 80 26 00
        E 0 80 3d 00
        E 0 80 40 00
        E 0 80 49 00
        E 0 80 4c 00
        E 0 80 54 00
        E 0 80 55 00
        E 0 80 58 00
        E 0 80 60 00
        E 0 80 61 00
        E 0 80 64 00
        E 120 90 33 60
        E 0 90 63 60
        E 120 80 33 00
        E 0 80 63 00
        E 120 80 19 00
        E 0 90 18 60
        E 0 90 19 60
        E 0 90 26 60
        E 0 90 40 60
        E 0 90 48 60
        E 0 90 4c 60
        E 0 90 54 60
        E 0 90 58 60
        E 0 90 60 60
        E 0 90 64 60
        E 120 80 18 00
        E 0 80 26 00
        E 0 80 40 00
        E 0 80 48 00
        E 0 80 4c 00
        E 0 80 54 00
        E 0 80 58 00
        E 0 80 60 00
        E 0 80 64 00
        E 120 90 18 60
        E 0 90 33 60
        E 0 90 54 60
        E 0 90 57 60
        E 0 90 60 60
        E 0 90 63 60
        E 120 80 18 00
        E 0 80 33 00
        E 0 80 54 00
        E 0 80 57 00
        E 0 80 60 00
        E 0 80 63 00
        E 120 80 19 00
        E 0 90 18 60
        E 0 90 19 60
        E 0 90 1a 60
        E 0 90 26 60
        E 0 90 3d 60
        E 0 90 40 60
        E 0 90 49 60
        E 0 90 4c 60
        E 0 90 54 60
        E 0 90 55 60
        E 0 90 58 60
        E 0 90 60 60
        E 0 90 61 60
        E 0 90 64 60
        E 120 80 18 00
        E 0 80 1a 00
        E 0 80 26 00
        E 0 80 3d 00
        E 0 80 40 00
        E 0 80 49 00
        E 0 80 4c 00
        E 0 80 54 00
        E 0 80 55 00
        E 0 80 58 00
        E 0 80 60 00
        E 0 80 61 00
        E 0 80 64 00
        E 120 90 18 60
        E 0 90 33 60
        E 0 90 60 60
        E 0 90 63 60
        E 120 80 18 00
        E 0 80 33 00
        E 0 80 60 00
        E 0 80 63 00
        E 120 80 78 00
        E 0 80 79 00
        E 0 80 7a 00
        E 0 80 7b 00
        E 0 80 7c 00
        E 0 80 19 00
        E 0 90 18 60
        E 0 90 19 60
        E 0 90 26 60
        E 0 90 40 60
        E 0 90 48 60
        E 0 90 4c 60
        E 0 90 54 60
        E 0 90 58 60
        E 0 90 60 60
        E 0 90 64 60
        E 120 80 18 00
        E 0 80 26 00
        E 0 80 40 00
        E 0 80 48 00
        E 0 80 4c 00
        E 0 80 54 00
        E 0 80 58 00
        E 0 80 60 00
        E 0 80 64 00
        E 120 90 33 60
        E 0 90 57 60
        E 0 90 63 60
        E 120 80 33 00
        E 0 80 57 00
        E 0 80 63 00
        E 120 80 19 00
        E 0 90 18 60
        E 0 90 19 60
        E 0 90 1a 60
        E 0 90 26 60
        E 0 90 3d 60
        E 0 90 40 60
        E 0 90 49 60
        E 0 90 4c 60
        E 0 90 54 60
        E 0 90 55 60
        E 0 90 58 60
        E 0 90 60 60
        E 0 90 61 60
        E 0 90 64 60
        E 120 80 18 00
        E 0 80 1a 00
        E 0 80 26 00
        E 0 80 3d 00
        E 0 80 40 00
        E 0 80 49 00
        E 0 80 4c 00
        E 0 80 54 00
        E 0 80 55 00
        E 0 80 58 00
        E 0 80 60 00
        E 0 80 61 00
        E 0 80 64 00
        E 120 90 33 60
        E 0 90 63 60
        E 120 80 33 00
        E 0 80 63 00
        E 120 80 19 00
        E 0 90 18 60
        E 0 90 19 60
        E 0 90 26 60
        E 0 90 40 60
        E 0 90 48 60
        E 0 90 4c 60
        E 0 90 54 60
        E 0 90 58 60
        E 0 90 60 60
        E 0 90 64 60
        E 120 80 18 00
        E 0 80 26 00
        E 0 80 40 00
        E 0 80 48 00
        E 0 80 4c 00
        E 0 80 54 00
        E 0 80 58 00
        E 0 80 60 00
        E 0 80 64 00
        E 120 90 33 60
        E 0 90 57 60
        E 0 90 63 60
        E 120 80 33 00
        E 0 80 57 00
        E 0 80 63 00
        E 120 80 19 00
        E 0 90 18 60
        E 0 90 19 60
        E 0 90 1a 60
        E 0 90 26 60
        E 0 90 3d 60
        E 0 90 40 60
        E 0 90 49 60
        E 0 90 4c 60
        E 0 90 54 60
        E 0 90 55 60
        E 0 90 58 60
        E 0 90 60 60
        E 0 90 61 60
        E 0 90 64 60
        E 120 80 18 00
        E 0 80 1a 00
        E 0 80 26 00
        E 0 80 3d 00
        E 0 80 40 00
        E 0 80 49 00
        E 0 80 4c 00
        E 0 80 54 00
        E 0 80 55 00
        E 0 80 58 00
        E 0 80 60 00
        E 0 80 61 00
        E 0 80 64 00
        E 120 90 33 60
        E 0 90 63 60
        E 120 80 33 00
        E 0 80 63 00
        E 120 80 19 00
        E 0 90 18 60
        E 0 90 19 60
        E 0 90 26 60
        E 0 90 40 60
        E 0 90 48 60
        E 0 90 4c 60
        E 0 90 54 60
        E 0 90 58 60
        E 0 90 60 60
        E 0 90 64 60
        E 120 80 18 00
        E 0 80 26 00
        E 0 80 40 00
        E 0 80 48 00
        E 0 80 4c 00
        E 0 80 54 00
        E 0 80 58 00
        E 0 80 60 00
        E 0 80 64 00
        E 120 90 33 60
        E 0 90 57 60
        E 0 90 63 60
        E 120 80 33 00
        E 0 80 57 00
        E 0 80 63 00
        E 120 80 19 00
        E 0 90 18 60
        E 0 90 19 60
        E 0 90 1a 60
        E 0 90 26 60
        E 0 90 3d 60
        E 0 90 40 60
        E 0 90 49 60
        E 0 90 4c 60
        E 0 90 54 60
        E 0 90 55 60
        E 0 90 58 60
        E 0 90 60 60
        E 0 90 61 60
        E 0 90 64 60
        E 120 80 18 00
        E 0 80 1a 00
        E 0 80 26 00
        E 0 80 3d 00
        E 0 80 40 00
        E 0 80 49 00
        E 0 80 4c 00
        E 0 80 54 00
        E 0 80 55 00
        E 0 80 58 00
        E 0 80 60 00
        E 0 80 61 00
        E 0 80 64 00
        E 120 90 33 60
        E 0 90 63 60
        E 120 80 33 00
        E 0 80 63 00
        E 120 80 19 00
        E 0 90 18 60
        E 0 90 19 60
        E 0 90 26 60
        E 0 90 40 60
        E 0 90 48 60
        E 0 90 4c 60
        E 0 90 54 60
        E 0 90 58 60
        E 0 90 60 60
        E 0 90 64 60
        E 120 80 18 00
        E 0 80 26 00
        E 0 80 40 00
        E 0 80 48 00
        E 0 80 4c 00
        E 0 80 54 00
        E 0 80 58 00
        E 0 80 60 00
        E 0 80 64 00
        E 120 90 18 60
        E 0 90 33 60
        E 0 90 54 60
        E 0 90 57 60
        E 0 90 60 60
        E 0 90 63 60
        E 120 80 18 00
        E 0 80 33 00
        E 0 80 54 00
        E 0 80 57 00
        E 0 80 60 00
        E 0 80 63 00
        E 120 80 19 00
        E 0 90 18 60
        E 0 90 19 60
        E 0 90 1a 60
        E 0 90 26 60
        E 0 90 3d 60
        E 0 90 40 60
        E 0 90 49 60
        E 0 90 4c 60
        E 0 90 54 60
        E 0 90 55 60
        E 0 90 58 60
        E 0 90 60 60
        E 0 90 61 60
        E 0 90 64 60
        E 120 80 18 00
        E 0 80 1a 00
        E 0 80 26 00
        E 0 80 3d 00
        E 0 80 40 00
        E 0 80 49 00
        E 0 80 4c 00
        E 0 80 54 00
        E 0 80 55 00
        E 0 80 58 00
        E 0 80 60 00
        E 0 80 61 00
        E 0 80 64 00
        E 120 90 18 60
        E 0 90 33 60
        E 0 90 60 60
        E 0 90 63 60
        E 120 80 18 00
        E 0 80 33 00
        E 0 80 60 00
        E 0 80 63 00
        E 120 80 19 00
        E 0 90 18 60
        E 0 90 19 60
        E 0 90 26 60
        E 0 90 40 60
        E 0 90 48 60
        E 0 90 4c 60
        E 0 90 54 60
        E 0 90 58 60
        E 0 90 60 60
        E 0 90 64 60
        E 120 80 18 00
        E 0 80 26 00
        E 0 80 40 00
        E 0 80 48 00
        E 0 80 4c 00
        E 0 80 54 00
        E 0 80 58 00
        E 0 80 60 00
        E 0 80 64 00
        E 120 90 33 60
        E 0 90 57 60
        E 0 90 63 60
        E 120 80 33 00
        E 0 80 57 00
        E 0 80 63 00
        E 120 80 19 00
        E 0 90 18 60
        E 0 90 19 60
        E 0 90 1a 60
        E 0 90 26 60
        E 0 90 3d 60
        E 0 90 40 60
        E 0 90 49 60
        E 0 90 4c 60
        E 0 90 54 60
        E 0 90 55 60
        E 0 90 58 60
        E 0 90 60 60
        E 0 90 61 60
        E 0 90 64 60
        E 120 80 18 00
        E 0 80 1a 00
        E 0 80 26 00
        E 0 80 3d 00
        E 0 80 40 00
        E 0 80 49 00
        E 0 80 4c 00
        E 0 80 54 00
        E 0 80 55 00
        E 0 80 58 00
        E 0 80 60 00
        E 0 80 61 00
        E 0 80 64 00
        E 120 90 33 60
        E 0 90 63 60
        E 120 80 33 00
        E 0 80 63 00
        E 120 80 19 00
        E 0 90 18 60
        E 0 90 19 60
        E 0 90 26 60
        E 0 90 40 60
        E 0 90 48 60
        E 0 90 4c 60
        E 0 90 54 60
        E 0 90 58 60
        E 0 90 60 60
        E 0 90 64 60
        E 120 80 18 00
        E 0 80 26 00
        E 0 80 40 00
        E 0 80 48 00
        E 0 80 4c 00
        E 0 80 54 00
        E 0 80 58 00
        E 0 80 60 00
        E 0 80 64 00
        E 120 90 33 60
        E 0 90 57 60
        E 0 90 63 60
        E 120 80 33 00
        E 0 80 57 00
        E 0 80 63 00
        E 120 80 19 00
        E 0 90 18 60
        E 0 90 19 60
        E 0 90 1a 60
        E 0 90 26 60
        E 0 90 3d 60
        E 0 90 40 60
        E 0 90 49 60
        E 0 90 4c 60
        E 0 90 54 60
        E 0 90 55 60
        E 0 90 58 60
        E 0 90 60 60
        E 0 90 61 60
        E 0 90 64 60
        E 120 80 18 00
        E 0 80 1a 00
        E 0 80 26 00
        E 0 80 3d 00
        E 0 80 40 00
        E 0 80 49 00
        E 0 80 4c 00
        E 0 80 54 00
        E 0 80 55 00
        E 0 80 58 00
        E 0 80 60 00
        E 0 80 61 00
        E 0 80 64 00
        E 120 90 33 60
        E 0 90 63 60
        E 120 80 33 00
        E 0 80 63 00
        E 120 80 19 00
        E 0 90 18 60
        E 0 90 19 60
        E 0 90 26 60
        E 0 90 40 60
        E 0 90 48 60
        E 0 90 4c 60
        E 0 90 54 60
        E 0 90 58 60
        E 0 90 60 60
        E 0 90 64 60
        E 0 90 78 60
        E 0 90 79 60
        E 0 90 7a 60
        E 0 90 7b 60
        E 0 90 7c 60
        E 120 80 18 00
        E 0 80 26 00
        E 0 80 40 00
        E 0 80 48 00
        E 0 80 4c 00
        E 0 80 54 00
        E 0 80 58 00
        E 0 80 60 00
        E 0 80 64 00
        E 120 90 33 60
        E 0 90 57 60
        E 0 90 63 60
        E 120 80 33 00
        E 0 80 57 00
        E 0 80 63 00
        E 120 80 19 00
        E 0 90 18 60
        E 0 90 19 60
        E 0 90 1a 60
        E 0 90 26 60
        E 0 90 3d 60
        E 0 90 40 60
        E 0 90 49 60
        E 0 90 4c 60
        E 0 90 54 60
        E 0 90 55 60
        E 0 90 58 60
        E 0 90 60 60
        E 0 90 61 60
        E 0 90 64 60
        E 120 80 18 00
        E 0 80 1a 00
        E 0 80 26 00
        E 0 80 3d 00
        E 0 80 40 00
        E 0 80 49 00
        E 0 80 4c 00
        E 0 80 54 00
        E 0 80 55 00
        E 0 80 58 00
        E 0 80 60 00
        E 0 80 61 00
        E 0 80 64 00
        E 120 90 33 60
        E 0 90 63 60
        E 120 80 33 00
        E 0 80 63 00
        E 120 80 19 00
        E 0 90 18 60
        E 0 90 19 60
        E 0 90 26 60
        E 0 90 40 60
        E 0 90 48 60
        E 0 90 4c 60
        E 0 90 54 60
        E 0 90 58 60
        E 0 90 60 60
        E 0 90 64 60
        E 120 80 18 00
        E 0 80 26 00
        E 0 80 40 00
        E 0 80 48 00
        E 0 80 4c 00
        E 0 80 54 00
        E 0 80 58 00
        E 0 80 60 00
        E 0 80 64 00
        E 120 90 18 60
        E 0 90 33 60
        E 0 90 54 60
        E 0 90 57 60
        E 0 90 60 60
        E 0 90 63 60
        E 120 80 18 00
        E 0 80 33 00
        E 0 80 54 00
        E 0 80 57 00
        E 0 80 60 00
        E 0 80 63 00
        E 120 80 19 00
        E 0 90 18 60
        E 0 90 19 60
        E 0 90 1a 60
        E 0 90 26 60
        E 0 90 3d 60
        E 0 90 40 60
        E 0 90 49 60
        E 0 90 4c 60
        E 0 90 54 60
        E 0 90 55 60
        E 0 90 58 60
        E 0 90 60 60
        E 0 90 61 60
        E 0 90 64 60
        E 120 80 18 00
        E 0 80 1a 00
        E 0 80 26 00
        E 0 80 3d 00
        E 0 80 40 00
        E 0 80 49 00
        E 0 80 4c 00
        E 0 80 54 00
        E 0 80 55 00
        E 0 80 58 00
        E 0 80 60 00
        E 0 80 61 00
        E 0 80 64 00
        E 120 90 18 60
        E 0 90 33 60
        E 0 90 60 60
        E 0 90 63 60
        E 120 80 18 00
        E 0 80 33 00
        E 0 80 60 00
        E 0 80 63 00
        <X 120 0
          /wFbaW50ZW5zZV0=
        >
        E 0 80 78 00
        E 0 80 79 00
        E 0 80 7a 00
        E 0 80 7b 00
        E 0 80 7c 00
        E 0 80 19 00
        E 0 90 18 60
        E 0 90 19 60
        E 0 90 26 60
        E 0 90 40 60
        E 0 90 48 60
        E 0 90 4c 60
        E 0 90 54 60
        E 0 90 58 60
        E 0 90 60 60
        E 0 90 64 60
        E 120 80 18 00
        E 0 80 26 00
        E 0 80 40 00
        E 0 80 48 00
        E 0 80 4c 00
        E 0 80 54 00
        E 0 80 58 00
        E 0 80 60 00
        E 0 80 64 00
        E 120 90 33 60
        E 0 90 57 60
        E 0 90 63 60
        E 120 80 33 00
        E 0 80 57 00
        E 0 80 63 00
        E 120 80 19 00
        E 0 90 18 60
        E 0 90 19 60
        E 0 90 1a 60
        E 0 90 26 60
        E 0 90 3d 60
        E 0 90 40 60
        E 0 90 49 60
        E 0 90 4c 60
        E 0 90 54 60
        E 0 90 55 60
        E 0 90 58 60
        E 0 90 60 60
        E 0 90 61 60
        E 0 90 64 60
        E 120 80 18 00
        E 0 80 1a 00
        E 0 80 26 00
        E 0 80 3d 00
        E 0 80 40 00
        E 0 80 49 00
        E 0 80 4c 00
        E 0 80 54 00
        E 0 80 55 00
        E 0 80 58 00
        E 0 80 60 00
        E 0 80 61 00
        E 0 80 64 00
        E 120 90 33 60
        E 0 90 63 60
        E 120 80 33 00
        E 0 80 63 00
        E 120 80 19 00
        E 0 90 18 60
        E 0 90 19 60
        E 0 90 26 60
        E 0 90 40 60
        E 0 90 48 60
        E 0 90 4c 60
        E 0 90 54 60
        E 0 90 58 60
        E 0 90 60 60
        E 0 90 64 60
        E 120 80 18 00
        E 0 80 26 00
        E 0 80 40 00
        E 0 80 48 00
        E 0 80 4c 00
        E 0 80 54 00
        E 0 80 58 00
        E 0 80 60 00
        E 0 80 64 00
        E 120 90 33 60
        E 0 90 57 60
        E 0 90 63 60
        E 120 80 33 00
        E 0 80 57 00
        E 0 80 63 00
        E 120 80 19 00
        E 0 90 18 60
        E 0 90 19 60
        E 0 90 1a 60
        E 0 90 26 60
        E 0 90 3d 60
        E 0 90 40 60
        E 0 90 49 60
        E 0 90 4c 60
        E 0 90 54 60
        E 0 90 55 60
        E 0 90 58 60
        E 0 90 60 60
        E 0 90 61 60
        E 0 90 64 60
        E 120 80 18 00
        E 0 80 1a 00
        E 0 80 26 00
        E 0 80 3d 00
        E 0 80 40 00
        E 0 80 49 00
        E 0 80 4c 00
        E 0 80 54 00
        E 0 80 55 00
        E 0 80 58 00
        E 0 80 60 00
        E 0 80 61 00
        E 0 80 64 00
        E 120 90 33 60
        E 0 90 63 60
        E 120 80 33 00
        E 0 80 63 00
        E 120 80 19 00
        E 0 90 18 60
        E 0 90 19 60
        E 0 90 26 60
        E 0 90 40 60
        E 0 90 48 60
        E 0 90 4c 60
        E 0 90 54 60
        E 0 90 58 60
        E 0 90 60 60
        E 0 90 64 60
        E 120 80 18 00
        E 0 80 26 00
        E 0 80 40 00
        E 0 80 48 00
        E 0 80 4c 00
        E 0 80 54 00
        E 0 80 58 00
        E 0 80 60 00
        E 0 80 64 00
        E 120 90 33 60
        E 0 90 57 60
        E 0 90 63 60
        E 120 80 33 00
        E 0 80 57 00
        E 0 80 63 00
        E 120 80 19 00
        E 0 90 18 60
        E 0 90 19 60
        E 0 90 1a 60
        E 0 90 26 60
        E 0 90 3d 60
        E 0 90 40 60
        E 0 90 49 60
        E 0 90 4c 60
        E 0 90 54 60
        E 0 90 55 60
        E 0 90 58 60
        E 0 90 60 60
        E 0 90 61 60
        E 0 90 64 60
        E 120 80 18 00
        E 0 80 1a 00
        E 0 80 26 00
        E 0 80 3d 00
        E 0 80 40 00
        E 0 80 49 00
        E 0 80 4c 00
        E 0 80 54 00
        E 0 80 55 00
        E 0 80 58 00
        E 0 80 60 00
        E 0 80 61 00
        E 0 80 64 00
        E 120 90 33 60
        E 0 90 63 60
        E 120 80 33 00
        E 0 80 63 00
        E 120 80 19 00
        E 0 90 18 60
        E 0 90 19 60
        E 0 90 26 60
        E 0 90 40 60
        E 0 90 48 60
        E 0 90 4c 60
        E 0 90 54 60
        E 0 90 58 60
        E 0 90 60 60
        E 0 90 64 60
        E 120 80 18 00
        E 0 80 26 00
        E 0 80 40 00
        E 0 80 48 00
        E 0 80 4c 00
        E 0 80 54 00
        E 0 80 58 00
        E 0 80 60 00
        E 0 80 64 00
        E 120 90 18 60
        E 0 90 33 60
        E 0 90 54 60
        E 0 90 57 60
        E 0 90 60 60
        E 0 90 63 60
        E 120 80 18 00
        E 0 80 33 00
        E 0 80 54 00
        E 0 80 57 00
        E 0 80 60 00
        E 0 80 63 00
        E 120 80 19 00
        E 0 90 18 60
        E 0 90 19 60
        E 0 90 1a 60
        E 0 90 26 60
        E 0 90 3d 60
        E 0 90 40 60
        E 0 90 49 60
        E 0 90 4c 60
        E 0 90 54 60
        E 0 90 55 60
        E 0 90 58 60
        E 0 90 60 60
        E 0 90 61 60
        E 0 90 64 60
        E 120 80 18 00
        E 0 80 1a 00
        E 0 80 26 00
        E 0 80 3d 00
        E 0 80 40 00
        E 0 80 49 00
        E 0 80 4c 00
        E 0 80 54 00
        E 0 80 55 00
        E 0 80 58 00
        E 0 80 60 00
        E 0 80 61 00
        E 0 80 64 00
        E 120 90 18 60
        E 0 90 33 60
        E 0 90 60 60
        E 0 90 63 60
        E 120 80 18 00
        E 0 80 33 00
        E 0 80 60 00
        E 0 80 63 00
        E 120 80 19 00
        E 0 90 18 60
        E 0 90 19 60
        E 0 90 26 60
        E 0 90 40 60
        E 0 90 48 60
        E 0 90 4c 60
        E 0 90 54 60
        E 0 90 58 60
        E 0 90 60 60
        E 0 90 64 60
        E 0 90 74 60
        E 120 80 18 00
        E 0 80 26 00
        E 0 80 40 00
        E 0 80 48 00
        E 0 80 4c 00
        E 0 80 54 00
        E 0 80 58 00
        E 0 80 60 00
        E 0 80 64 00
        E 120 90 33 60
        E 0 90 57 60
        E 0 90 63 60
        E 120 80 33 00
        E 0 80 57 00
        E 0 80 63 00
        E 120 80 19 00
        E 0 90 18 60
        E 0 90 19 60
        E 0 90 1a 60
        E 0 90 26 60
        E 0 90 3d 60
        E 0 90 40 60
        E 0 90 49 60
        E 0 90 4c 60
        E 0 90 54 60
        E 0 90 55 60
        E 0 90 58 60
        E 0 90 60 60
        E 0 90 61 60
        E 0 90 64 60
        E 120 80 18 00
        E 0 80 1a 00
        E 0 80 26 00
        E 0 80 3d 00
        E 0 80 40 00
        E 0 80 49 00
        E 0 80 4c 00
        E 0 80 54 00
        E 0 80 55 00
        E 0 80 58 00
        E 0 80 60 00
        E 0 80 61 00
        E 0 80 64 00
        E 120 90 33 60
        E 0 90 63 60
        E 120 80 33 00
        E 0 80 63 00
        E 120 80 19 00
        E 0 90 18 60
        E 0 90 19 60
        E 0 90 26 60
        E 0 90 40 60
        E 0 90 48 60
        E 0 90 4c 60
        E 0 90 54 60
        E 0 90 58 60
        E 0 90 60 60
        E 0 90 64 60
        E 120 80 18 00
        E 0 80 26 00
        E 0 80 40 00
        E 0 80 48 00
        E 0 80 4c 00
        E 0 80 54 00
        E 0 80 58 00
        E 0 80 60 00
        E 0 80 64 00
        E 120 90 33 60
        E 0 90 57 60
        E 0 90 63 60
        E 120 80 33 00
        E 0 80 57 00
        E 0 80 63 00
        E 120 80 19 00
        E 0 90 18 60
        E 0 90 19 60
        E 0 90 1a 60
        E 0 90 26 60
        E 0 90 3d 60
        E 0 90 40 60
        E 0 90 49 60
        E 0 90 4c 60
        E 0 90 54 60
        E 0 90 55 60
        E 0 90 58 60
        E 0 90 60 60
        E 0 90 61 60
        E 0 90 64 60
        E 120 80 74 00
        E 0 80 18 00
        E 0 80 1a 00
        E 0 80 26 00
        E 0 80 3d 00
        E 0 80 40 00
        E 0 80 49 00
        E 0 80 4c 00
        E 0 80 54 00
        E 0 80 55 00
        E 0 80 58 00
        E 0 80 60 00
        E 0 80 61 00
        E 0 80 64 00
        E 120 90 33 60
        E 0 90 63 60
        E 120 80 33 00
        E 0 80 63 00
        E 120 80 19 00
        E 0 90 18 60
        E 0 90 19 60
        E 0 90 26 60
        E 0 90 40 60
        E 0 90 48 60
        E 0 90 4c 60
        E 0 90 54 60
        E 0 90 58 60
        E 0 90 60 60
        E 0 90 64 60
        E 0 90 78 60
        E 0 90 79 60
        E 0 90 7a 60
        E 0 90 7b 60
        E 0 90 7c 60
        E 120 80 18 00
        E 0 80 26 00
        E 0 80 40 00
        E 0 80 48 00
        E 0 80 4c 00
        E 0 80 54 00
        E 0 80 58 00
        E 0 80 60 00
        E 0 80 64 00
        E 120 90 33 60
        E 0 90 57 60
        E 0 90 63 60
        E 120 80 33 00
        E 0 80 57 00
        E 0 80 63 00
        E 120 80 19 00
        E 0 90 18 60
        E 0 90 19 60
        E 0 90 1a 60
        E 0 90 26 60
        E 0 90 3d 60
        E 0 90 40 60
        E 0 90 49 60
        E 0 90 4c 60
        E 0 90 54 60
        E 0 90 55 60
        E 0 90 58 60
        E 0 90 60 60
        E 0 90 61 60
        E 0 90 64 60
        E 120 80 18 00
        E 0 80 1a 00
        E 0 80 26 00
        E 0 80 3d 00
        E 0 80 40 00
        E 0 80 49 00
        E 0 80 4c 00
        E 0 80 54 00
        E 0 80 55 00
        E 0 80 58 00
        E 0 80 60 00
        E 0 80 61 00
        E 0 80 64 00
        E 120 90 33 60
        E 0 90 63 60
        E 120 80 33 00
        E 0 80 63 00
        E 120 80 19 00
        E 0 90 18 60
        E 0 90 19 60
        E 0 90 26 60
        E 0 90 40 60
        E 0 90 48 60
        E 0 90 4c 60
        E 0 90 54 60
        E 0 90 58 60
        E 0 90 60 60
        E 0 90 64 60
        E 120 80 18 00
        E 0 80 26 00
        E 0 80 40 00
        E 0 80 48 00
        E 0 80 4c 00
        E 0 80 54 00
        E 0 80 58 00
        E 0 80 60 00
        E 0 80 64 00
        E 120 90 18 60
        E 0 90 33 60
        E 0 90 54 60
        E 0 90 57 60
        E 0 90 60 60
        E 0 90 63 60
        E 120 80 18 00
        E 0 80 33 00
        E 0 80 54 00
        E 0 80 57 00
        E 0 80 60 00
        E 0 80 63 00
        E 120 80 19 00
        E 0 90 18 60
        E 0 90 19 60
        E 0 90 1a 60
        E 0 90 26 60
        E 0 90 3d 60
        E 0 90 40 60
        E 0 90 49 60
        E 0 90 4c 60
        E 0 90 54 60
        E 0 90 55 60
        E 0 90 58 60
        E 0 90 60 60
        E 0 90 61 60
        E 0 90 64 60
        E 120 80 18 00
        E 0 80 1a 00
        E 0 80 26 00
        E 0 80 3d 00
        E 0 80 40 00
        E 0 80 49 00
        E 0 80 4c 00
        E 0 80 54 00
        E 0 80 55 00
        E 0 80 58 00
        E 0 80 60 00
        E 0 80 61 00
        E 0 80 64 00
        E 120 90 18 60
        E 0 90 33 60
        E 0 90 60 60
        E 0 90 63 60
        E 120 80 18 00
        E 0 80 33 00
        E 0 80 60 00
        E 0 80 63 00
        E 120 80 78 00
        E 0 80 79 00
        E 0 80 7a 00
        E 0 80 7b 00
        E 0 80 7c 00
        E 0 80 19 00
        E 0 90 18 60
        E 0 90 19 60
        E 0 90 26 60
        E 0 90 40 60
        E 0 90 48 60
        E 0 90 4c 60
        E 0 90 54 60
        E 0 90 58 60
        E 0 90 60 60
        E 0 90 64 60
        E 120 80 18 00
        E 0 80 26 00
        E 0 80 40 00
        E 0 80 48 00
        E 0 80 4c 00
        E 0 80 54 00
        E 0 80 58 00
        E 0 80 60 00
        E 0 80 64 00
        E 120 90 33 60
        E 0 90 57 60
        E 0 90 63 60
        E 120 80 33 00
        E 0 80 57 00
        E 0 80 63 00
        E 120 80 19 00
        E 0 90 18 60
        E 0 90 19 60
        E 0 90 1a 60
        E 0 90 26 60
        E 0 90 3d 60
        E 0 90 40 60
        E 0 90 49 60
        E 0 90 4c 60
        E 0 90 54 60
        E 0 90 55 60
        E 0 90 58 60
        E 0 90 60 60
        E 0 90 61 60
        E 0 90 64 60
        E 120 80 18 00
        E 0 80 1a 00
        E 0 80 26 00
        E 0 80 3d 00
        E 0 80 40 00
        E 0 80 49 00
        E 0 80 4c 00
        E 0 80 54 00
        E 0 80 55 00
        E 0 80 58 00
        E 0 80 60 00
        E 0 80 61 00
        E 0 80 64 00
        E 120 90 33 60
        E 0 90 63 60
        E 120 80 33 00
        E 0 80 63 00
        E 120 80 19 00
        E 0 90 18 60
        E 0 90 19 60
        E 0 90 26 60
        E 0 90 40 60
        E 0 90 48 60
        E 0 90 4c 60
        E 0 90 54 60
        E 0 90 58 60
        E 0 90 60 60
        E 0 90 64 60
        E 120 80 18 00
        E 0 80 26 00
        E 0 80 40 00
        E 0 80 48 00
        E 0 80 4c 00
        E 0 80 54 00
        E 0 80 58 00
        E 0 80 60 00
        E 0 80 64 00
        E 120 90 33 60
        E 0 90 57 60
        E 0 90 63 60
        E 120 80 33 00
        E 0 80 57 00
        E 0 80 63 00
        E 120 80 19 00
        E 0 90 18 60
        E 0 90 19 60
        E 0 90 1a 60
        E 0 90 26 60
        E 0 90 3d 60
        E 0 90 40 60
        E 0 90 49 60
        E 0 90 4c 60
        E 0 90 54 60
        E 0 90 55 60
        E 0 90 58 60
        E 0 90 60 60
        E 0 90 61 60
        E 0 90 64 60
        E 120 80 18 00
        E 0 80 1a 00
        E 0 80 26 00
        E 0 80 3d 00
        E 0 80 40 00
        E 0 80 49 00
        E 0 80 4c 00
        E 0 80 54 00
        E 0 80 55 00
        E 0 80 58 00
        E 0 80 60 00
        E 0 80 61 00
        E 0 80 64 00
        E 120 90 33 60
        E 0 90 63 60
        E 120 80 33 00
        E 0 80 63 00
        E 120 80 19 00
        E 0 90 18 60
        E 0 90 19 60
        E 0 90 26 60
        E 0 90 40 60
        E 0 90 48 60
        E 0 90 4c 60
        E 0 90 54 60
        E 0 90 58 60
        E 0 90 60 60
        E 0 90 64 60
        E 120 80 18 00
        E 0 80 26 00
        E 0 80 40 00
        E 0 80 48 00
        E 0 80 4c 00
        E 0 80 54 00
        E 0 80 58 00
        E 0 80 60 00
        E 0 80 64 00
        E 120 90 33 60
        E 0 90 57 60
        E 0 90 63 60
        E 120 80 33 00
        E 0 80 57 00
        E 0 80 63 00
        E 120 80 19 00
        E 0 90 18 60
        E 0 90 19 60
        E 0 90 1a 60
        E 0 90 26 60
        E 0 90 3d 60
        E 0 90 40 60
        E 0 90 49 60
        E 0 90 4c 60
        E 0 90 54 60
        E 0 90 55 60
        E 0 90 58 60
        E 0 90 60 60
        E 0 90 61 60
        E 0 90 64 60
        E 120 80 18 00
        E 0 80 1a 00
        E 0 80 26 00
        E 0 80 3d 00
        E 0 80 40 00
        E 0 80 49 00
        E 0 80 4c 00
        E 0 80 54 00
        E 0 80 55 00
        E 0 80 58 00
        E 0 80 60 00
        E 0 80 61 00
        E 0 80 64 00
        E 120 90 33 60
        E 0 90 63 60
        E 120 80 33 00
        E 0 80 63 00
        E 120 80 19 00
        E 0 90 18 60
        E 0 90 19 60
        E 0 90 26 60
        E 0 90 40 60
        E 0 90 48 60
        E 0 90 4c 60
        E 0 90 54 60
        E 0 90 58 60
        E 0 90 60 60
        E 0 90 64 60
        E 120 80 18 00
        E 0 80 26 00
        E 0 80 40 00
        E 0 80 48 00
        E 0 80 4c 00
        E 0 80 54 00
        E 0 80 58 00
        E 0 80 60 00
        E 0 80 64 00
        E 120 90 18 60
        E 0 90 33 60
        E 0 90 54 60
        E 0 90 57 60
        E 0 90 60 60
        E 0 90 63 60
        E 120 80 18 00
        E 0 80 33 00
        E 0 80 54 00
        E 0 80 57 00
        E 0 80 60 00
        E 0 80 63 00
        E 120 80 19 00
        E 0 90 18 60
        E 0 90 19 60
        E 0 90 1a 60
        E 0 90 26 60
        E 0 90 3d 60
        E 0 90 40 60
        E 0 90 49 60
        E 0 90 4c 60
        E 0 90 54 60
        E 0 90 55 60
        E 0 90 58 60
        E 0 90 60 60
        E 0 90 61 60
        E 0 90 64 60
        E 120 80 18 00
        E 0 80 1a 00
        E 0 80 26 00
        E 0 80 3d 00
        E 0 80 40 00
        E 0 80 49 00
        E 0 80 4c 00
        E 0 80 54 00
        E 0 80 55 00
        E 0 80 58 00
        E 0 80 60 00
        E 0 80 61 00
        E 0 80 64 00
        E 120 90 18 60
        E 0 90 33 60
        E 0 90 60 60
        E 0 90 63 60
        E 120 80 18 00
        E 0 80 33 00
        E 0 80 60 00
        E 0 80 63 00
        E 120 80 19 00
        E 0 90 18 60
        E 0 90 19 60
        E 0 90 26 60
        E 0 90 40 60
        E 0 90 48 60
        E 0 90 4c 60
        E 0 90 54 60
        E 0 90 58 60
        E 0 90 60 60
        E 0 90 64 60
        E 120 80 18 00
        E 0 80 26 00
        E 0 80 40 00
        E 0 80 48 00
        E 0 80 4c 00
        E 0 80 54 00
        E 0 80 58 00
        E 0 80 60 00
        E 0 80 64 00
        E 120 90 33 60
        E 0 90 57 60
        E 0 90 63 60
        E 120 80 33 00
        E 0 80 57 00
        E 0 80 63 00
        E 120 80 19 00
        E 0 90 18 60
        E 0 90 19 60
        E 0 90 1a 60
        E 0 90 26 60
        E 0 90 3d 60
        E 0 90 40 60
        E 0 90 49 60
        E 0 90 4c 60
        E 0 90 54 60
        E 0 90 55 60
        E 0 90 58 60
        E 0 90 60 60
        E 0 90 61 60
        E 0 90 64 60
        E 120 80 18 00
        E 0 80 1a 00
        E 0 80 26 00
        E 0 80 3d 00
        E 0 80 40 00
        E 0 80 49 00
        E 0 80 4c 00
        E 0 80 54 00
        E 0 80 55 00
        E 0 80 58 00
        E 0 80 60 00
        E 0 80 61 00
        E 0 80 64 00
        E 120 90 33 60
        E 0 90 63 60
        E 120 80 33 00
        E 0 80 63 00
        E 120 80 19 00
        E 0 90 18 60
        E 0 90 19 60
        E 0 90 26 60
        E 0 90 40 60
        E 0 90 48 60
        E 0 90 4c 60
        E 0 90 54 60
        E 0 90 58 60
        E 0 90 60 60
        E 0 90 64 60
        E 120 80 18 00
        E 0 80 26 00
        E 0 80 40 00
        E 0 80 48 00
        E 0 80 4c 00
        E 0 80 54 00
        E 0 80 58 00
        E 0 80 60 00
        E 0 80 64 00
        E 120 90 33 60
        E 0 90 57 60
        E 0 90 63 60
        E 120 80 33 00
        E 0 80 57 00
        E 0 80 63 00
        E 120 80 19 00
        E 0 90 18 60
        E 0 90 19 60
        E 0 90 1a 60
        E 0 90 26 60
        E 0 90 3d 60
        E 0 90 40 60
        E 0 90 49 60
        E 0 90 4c 60
        E 0 90 54 60
        E 0 90 55 60
        E 0 90 58 60
        E 0 90 60 60
        E 0 90 61 60
        E 0 90 64 60
        E 120 80 18 00
        E 0 80 1a 00
        E 0 80 26 00
        E 0 80 3d 00
        E 0 80 40 00
        E 0 80 49 00
        E 0 80 4c 00
        E 0 80 54 00
        E 0 80 55 00
        E 0 80 58 00
        E 0 80 60 00
        E 0 80 61 00
        E 0 80 64 00
        E 120 90 33 60
        E 0 90 63 60
        E 120 80 33 00
        E 0 80 63 00
        E 120 80 19 00
        E 0 90 18 60
        E 0 90 19 60
        E 0 90 26 60
        E 0 90 40 60
        E 0 90 48 60
        E 0 90 4c 60
        E 0 90 54 60
        E 0 90 58 60
        E 0 90 60 60
        E 0 90 64 60
        E 0 90 78 60
        E 0 90 79 60
        E 0 90 7a 60
        E 0 90 7b 60
        E 0 90 7c 60
        E 120 80 18 00
        E 0 80 26 00
        E 0 80 40 00
        E 0 80 48 00
        E 0 80 4c 00
        E 0 80 54 00
        E 0 80 58 00
        E 0 80 60 00
        E 0 80 64 00
        E 120 90 33 60
        E 0 90 57 60
        E 0 90 63 60
        E 120 80 33 00
        E 0 80 57 00
        E 0 80 63 00
        E 120 80 19 00
        E 0 90 18 60
        E 0 90 19 60
        E 0 90 1a 60
        E 0 90 26 60
        E 0 90 3d 60
        E 0 90 40 60
        E 0 90 49 60
        E 0 90 4c 60
        E 0 90 54 60
        E 0 90 55 60
        E 0 90 58 60
        E 0 90 60 60
        E 0 90 61 60
        E 0 90 64 60
        E 120 80 18 00
        E 0 80 1a 00
        E 0 80 26 00
        E 0 80 3d 00
        E 0 80 40 00
        E 0 80 49 00
        E 0 80 4c 00
        E 0 80 54 00
        E 0 80 55 00
        E 0 80 58 00
        E 0 80 60 00
        E 0 80 61 00
        E 0 80 64 00
        E 120 90 33 60
        E 0 90 63 60
        E 120 80 33 00
        E 0 80 63 00
        E 120 80 19 00
        E 0 90 18 60
        E 0 90 19 60
        E 0 90 26 60
        E 0 90 40 60
        E 0 90 48 60
        E 0 90 4c 60
        E 0 90 54 60
        E 0 90 58 60
        E 0 90 60 60
        E 0 90 64 60
        E 120 80 18 00
        E 0 80 26 00
        E 0 80 40 00
        E 0 80 48 00
        E 0 80 4c 00
        E 0 80 54 00
        E 0 80 58 00
        E 0 80 60 00
        E 0 80 64 00
        E 120 90 18 60
        E 0 90 33 60
        E 0 90 54 60
        E 0 90 57 60
        E 0 90 60 60
        E 0 90 63 60
        E 120 80 18 00
        E 0 80 33 00
        E 0 80 54 00
        E 0 80 57 00
        E 0 80 60 00
        E 0 80 63 00
        E 120 80 19 00
        E 0 90 18 60
        E 0 90 19 60
        E 0 90 1a 60
        E 0 90 26 60
        E 0 90 3d 60
        E 0 90 40 60
        E 0 90 49 60
        E 0 90 4c 60
        E 0 90 54 60
        E 0 90 55 60
        E 0 90 58 60
        E 0 90 60 60
        E 0 90 61 60
        E 0 90 64 60
        E 120 80 18 00
        E 0 80 1a 00
        E 0 80 26 00
        E 0 80 3d 00
        E 0 80 40 00
        E 0 80 49 00
        E 0 80 4c 00
        E 0 80 54 00
        E 0 80 55 00
        E 0 80 58 00
        E 0 80 60 00
        E 0 80 61 00
        E 0 80 64 00
        E 120 90 18 60
        E 0 90 33 60
        E 0 90 60 60
        E 0 90 63 60
        E 120 80 18 00
        E 0 80 33 00
        E 0 80 60 00
        E 0 80 63 00
        E 120 80 78 00
        E 0 80 79 00
        E 0 80 7a 00
        E 0 80 7b 00
        E 0 80 7c 00
        E 0 80 19 00
        E 0 90 18 60
        E 0 90 19 60
        E 0 90 26 60
        E 0 90 40 60
        E 0 90 48 60
        E 0 90 4c 60
        E 0 90 54 60
        E 0 90 58 60
        E 0 90 60 60
        E 0 90 64 60
        E 120 80 18 00
        E 0 80 26 00
        E 0 80 40 00
        E 0 80 48 00
        E 0 80 4c 00
        E 0 80 54 00
        E 0 80 58 00
        E 0 80 60 00
        E 0 80 64 00
        E 120 90 33 60
        E 0 90 57 60
        E 0 90 63 60
        E 120 80 33 00
        E 0 80 57 00
        E 0 80 63 00
        E 120 80 19 00
        E 0 90 18 60
        E 0 90 19 60
        E 0 90 1a 60
        E 0 90 26 60
        E 0 90 3d 60
        E 0 90 40 60
        E 0 90 49 60
        E 0 90 4c 60
        E 0 90 54 60
        E 0 90 55 60
        E 0 90 58 60
        E 0 90 60 60
        E 0 90 61 60
        E 0 90 64 60
        E 120 80 18 00
        E 0 80 1a 00
        E 0 80 26 00
        E 0 80 3d 00
        E 0 80 40 00
        E 0 80 49 00
        E 0 80 4c 00
        E 0 80 54 00
        E 0 80 55 00
        E 0 80 58 00
        E 0 80 60 00
        E 0 80 61 00
        E 0 80 64 00
        E 120 90 33 60
        E 0 90 63 60
        E 120 80 33 00
        E 0 80 63 00
        E 120 80 19 00
        E 0 90 18 60
        E 0 90 19 60
        E 0 90 26 60
        E 0 90 40 60
        E 0 90 48 60
        E 0 90 4c 60
        E 0 90 54 60
        E 0 90 58 60
        E 0 90 60 60
        E 0 90 64 60
        E 120 80 18 00
        E 0 80 26 00
        E 0 80 40 00
        E 0 80 48 00
        E 0 80 4c 00
        E 0 80 54 00
        E 0 80 58 00
        E 0 80 60 00
        E 0 80 64 00
        E 120 90 33 60
        E 0 90 57 60
        E 0 90 63 60
        E 120 80 33 00
        E 0 80 57 00
        E 0 80 63 00
        E 120 80 19 00
        E 0 90 18 60
        E 0 90 19 60
        E 0 90 1a 60
        E 0 90 26 60
        E 0 90 3d 60
        E 0 90 40 60
        E 0 90 49 60
        E 0 90 4c 60
        E 0 90 54 60
        E 0 90 55 60
        E 0 90 58 60
        E 0 90 60 60
        E 0 90 61 60
        E 0 90 64 60
        E 120 80 18 00
        E 0 80 1a 00
        E 0 80 26 00
        E 0 80 3d 00
        E 0 80 40 00
        E 0 80 49 00
        E 0 80 4c 00
        E 0 80 54 00
        E 0 80 55 00
        E 0 80 58 00
        E 0 80 60 00
        E 0 80 61 00
        E 0 80 64 00
        E 120 90 33 60
        E 0 90 63 60
        E 120 80 33 00
        E 0 80 63 00
        E 120 80 19 00
        E 0 90 18 60
        E 0 90 19 60
        E 0 90 26 60
        E 0 90 40 60
        E 0 90 48 60
        E 0 90 4c 60
        E 0 90 54 60
        E 0 90 58 60
        E 0 90 60 60
        E 0 90 64 60
        E 0 90 74 60
        E 120 80 18 00
        E 0 80 26 00
        E 0 80 40 00
        E 0 80 48 00
        E 0 80 4c 00
        E 0 80 54 00
        E 0 80 58 00
        E 0 80 60 00
        E 0 80 64 00
        E 120 90 33 60
        E 0 90 57 60
        E 0 90 63 60
        E 120 80 33 00
        E 0 80 57 00
        E 0 80 63 00
        E 120 80 19 00
        E 0 90 18 60
        E 0 90 19 60
        E 0 90 1a 60
        E 0 90 26 60
        E 0 90 3d 60
        E 0 90 40 60
        E 0 90 49 60
        E 0 90 4c 60
        E 0 90 54 60
        E 0 90 55 60
        E 0 90 58 60
        E 0 90 60 60
        E 0 90 61 60
        E 0 90 64 60
        E 120 80 18 00
        E 0 80 1a 00
        E 0 80 26 00
        E 0 80 3d 00
        E 0 80 40 00
        E 0 80 49 00
        E 0 80 4c 00
        E 0 80 54 00
        E 0 80 55 00
        E 0 80 58 00
        E 0 80 60 00
        E 0 80 61 00
        E 0 80 64 00
        E 120 90 33 60
        E 0 90 63 60
        E 120 80 33 00
        E 0 80 63 00
        E 120 80 19 00
        E 0 90 18 60
        E 0 90 19 60
        E 0 90 26 60
        E 0 90 40 60
        E 0 90 48 60
        E 0 90 4c 60
        E 0 90 54 60
        E 0 90 58 60
        E 0 90 60 60
        E 0 90 64 60
        E 120 80 18 00
        E 0 80 26 00
        E 0 80 40 00
        E 0 80 48 00
        E 0 80 4c 00
        E 0 80 54 00
        E 0 80 58 00
        E 0 80 60 00
        E 0 80 64 00
        E 120 90 18 60
        E 0 90 33 60
        E 0 90 54 60
        E 0 90 57 60
        E 0 90 60 60
        E 0 90 63 60
        E 120 80 18 00
        E 0 80 33 00
        E 0 80 54 00
        E 0 80 57 00
        E 0 80 60 00
        E 0 80 63 00
        E 120 80 19 00
        E 0 90 18 60
        E 0 90 19 60
        E 0 90 1a 60
        E 0 90 26 60
        E 0 90 3d 60
        E 0 90 40 60
        E 0 90 49 60
        E 0 90 4c 60
        E 0 90 54 60
        E 0 90 55 60
        E 0 90 58 60
        E 0 90 60 60
        E 0 90 61 60
        E 0 90 64 60
        E 120 80 18 00
        E 0 80 1a 00
        E 0 80 26 00
        E 0 80 3d 00
        E 0 80 40 00
        E 0 80 49 00
        E 0 80 4c 00
        E 0 80 54 00
        E 0 80 55 00
        E 0 80 58 00
        E 0 80 60 00
        E 0 80 61 00
        E 0 80 64 00
        E 120 90 18 60
        E 0 90 33 60
        E 0 90 60 60
        E 0 90 63 60
        E 120 80 18 00
        E 0 80 33 00
        E 0 80 60 00
        E 0 80 63 00
        E 120 80 74 00
        E 0 80 19 00
        E 0 90 18 60
        E 0 90 19 60
        E 0 90 26 60
        E 0 90 40 60
        E 0 90 48 60
        E 0 90 4c 60
        E 0 90 54 60
        E 0 90 58 60
        E 0 90 60 60
        E 0 90 64 60
        E 120 80 18 00
        E 0 80 26 00
        E 0 80 40 00
        E 0 80 48 00
        E 0 80 4c 00
        E 0 80 54 00
        E 0 80 58 00
        E 0 80 60 00
        E 0 80 64 00
        E 120 90 33 60
        E 0 90 57 60
        E 0 90 63 60
        E 120 80 33 00
        E 0 80 57 00
        E 0 80 63 00
        E 120 80 19 00
        E 0 90 18 60
        E 0 90 19 60
        E 0 90 1a 60
        E 0 90 26 60
        E 0 90 3d 60
        E 0 90 40 60
        E 0 90 49 60
        E 0 90 4c 60
        E 0 90 54 60
        E 0 90 55 60
        E 0 90 58 60
        E 0 90 60 60
        E 0 90 61 60
        E 0 90 64 60
        E 120 80 18 00
        E 0 80 1a 00
        E 0 80 26 00
        E 0 80 3d 00
        E 0 80 40 00
        E 0 80 49 00
        E 0 80 4c 00
        E 0 80 54 00
        E 0 80 55 00
        E 0 80 58 00
        E 0 80 60 00
        E 0 80 61 00
        E 0 80 64 00
        E 120 90 33 60
        E 0 90 63 60
        E 120 80 33 00
        E 0 80 63 00
        E 120 80 19 00
        E 0 90 18 60
        E 0 90 19 60
        E 0 90 26 60
        E 0 90 40 60
        E 0 90 48 60
        E 0 90 4c 60
        E 0 90 54 60
        E 0 90 58 60
        E 0 90 60 60
        E 0 90 64 60
        E 120 80 18 00
        E 0 80 26 00
        E 0 80 40 00
        E 0 80 48 00
        E 0 80 4c 00
        E 0 80 54 00
        E 0 80 58 00
        E 0 80 60 00
        E 0 80 64 00
        E 120 90 33 60
        E 0 90 57 60
        E 0 90 63 60
        E 120 80 33 00
        E 0 80 57 00
        E 0 80 63 00
        E 120 80 19 00
        E 0 90 18 60
        E 0 90 19 60
        E 0 90 1a 60
        E 0 90 26 60
        E 0 90 3d 60
        E 0 90 40 60
        E 0 90 49 60
        E 0 90 4c 60
        E 0 90 54 60
        E 0 90 55 60
        E 0 90 58 60
        E 0 90 60 60
        E 0 90 61 60
        E 0 90 64 60
        E 120 80 18 00
        E 0 80 1a 00
        E 0 80 26 00
        E 0 80 3d 00
        E 0 80 40 00
        E 0 80 49 00
        E 0 80 4c 00
        E 0 80 54 00
        E 0 80 55 00
        E 0 80 58 00
        E 0 80 60 00
        E 0 80 61 00
        E 0 80 64 00
        E 120 90 33 60
        E 0 90 63 60
        E 120 80 33 00
        E 0 80 63 00
        E 120 80 19 00
        E 0 90 18 60
        E 0 90 19 60
        E 0 90 26 60
        E 0 90 40 60
        E 0 90 48 60
        E 0 90 4c 60
        E 0 90 54 60
        E 0 90 58 60
        E 0 90 60 60
        E 0 90 64 60
        E 0 90 78 60
        E 0 90 79 60
        E 0 90 7a 60
        E 0 90 7b 60
        E 0 90 7c 60
        E 120 80 18 00
        E 0 80 26 00
        E 0 80 40 00
        E 0 80 48 00
        E 0 80 4c 00
        E 0 80 54 00
        E 0 80 58 00
        E 0 80 60 00
        E 0 80 64 00
        E 120 90 33 60
        E 0 90 57 60
        E 0 90 63 60
        E 120 80 33 00
        E 0 80 57 00
        E 0 80 63 00
        E 120 80 19 00
        E 0 90 18 60
        E 0 90 19 60
        E 0 90 1a 60
        E 0 90 26 60
        E 0 90 3d 60
        E 0 90 40 60
        E 0 90 49 60
        E 0 90 4c 60
        E 0 90 54 60
        E 0 90 55 60
        E 0 90 58 60
        E 0 90 60 60
        E 0 90 61 60
        E 0 90 64 60
        E 120 80 18 00
        E 0 80 1a 00
        E 0 80 26 00
        E 0 80 3d 00
        E 0 80 40 00
        E 0 80 49 00
        E 0 80 4c 00
        E 0 80 54 00
        E 0 80 55 00
        E 0 80 58 00
        E 0 80 60 00
        E 0 80 61 00
        E 0 80 64 00
        E 120 90 33 60
        E 0 90 63 60
        E 120 80 33 00
        E 0 80 63 00
        E 120 80 19 00
        E 0 90 18 60
        E 0 90 19 60
        E 0 90 26 60
        E 0 90 40 60
        E 0 90 48 60
        E 0 90 4c 60
        E 0 90 54 60
        E 0 90 58 60
        E 0 90 60 60
        E 0 90 64 60
        E 120 80 18 00
        E 0 80 26 00
        E 0 80 40 00
        E 0 80 48 00
        E 0 80 4c 00
        E 0 80 54 00
        E 0 80 58 00
        E 0 80 60 00
        E 0 80 64 00
        E 120 90 18 60
        E 0 90 33 60
        E 0 90 54 60
        E 0 90 57 60
        E 0 90 60 60
        E 0 90 63 60
        E 120 80 18 00
        E 0 80 33 00
        E 0 80 54 00
        E 0 80 57 00
        E 0 80 60 00
        E 0 80 63 00
        E 120 80 19 00
        E 0 90 18 60
        E 0 90 19 60
        E 0 90 1a 60
        E 0 90 26 60
        E 0 90 3d 60
        E 0 90 40 60
        E 0 90 49 60
        E 0 90 4c 60
        E 0 90 54 60
        E 0 90 55 60
        E 0 90 58 60
        E 0 90 60 60
        E 0 90 61 60
        E 0 90 64 60
        E 120 80 18 00
        E 0 80 1a 00
        E 0 80 26 00
        E 0 80 3d 00
        E 0 80 40 00
        E 0 80 49 00
        E 0 80 4c 00
        E 0 80 54 00
        E 0 80 55 00
        E 0 80 58 00
        E 0 80 60 00
        E 0 80 61 00
        E 0 80 64 00
        E 120 90 18 60
        E 0 90 33 60
        E 0 90 60 60
        E 0 90 63 60
        E 120 80 18 00
        E 0 80 33 00
        E 0 80 60 00
        E 0 80 63 00
        E 120 80 78 00
        E 0 80 79 00
        E 0 80 7a 00
        E 0 80 7b 00
        E 0 80 7c 00
        E 0 80 19 00
        E 0 90 18 60
        E 0 90 19 60
        E 0 90 26 60
        E 0 90 40 60
        E 0 90 48 60
        E 0 90 4c 60
        E 0 90 54 60
        E 0 90 58 60
        E 0 90 60 60
        E 0 90 64 60
        E 120 80 18 00
        E 0 80 26 00
        E 0 80 40 00
        E 0 80 48 00
        E 0 80 4c 00
        E 0 80 54 00
        E 0 80 58 00
        E 0 80 60 00
        E 0 80 64 00
        E 120 90 33 60
        E 0 90 57 60
        E 0 90 63 60
        E 120 80 33 00
        E 0 80 57 00
        E 0 80 63 00
        E 120 80 19 00
        E 0 90 18 60
        E 0 90 19 60
        E 0 90 1a 60
        E 0 90 26 60
        E 0 90 3d 60
        E 0 90 40 60
        E 0 90 49 60
        E 0 90 4c 60
        E 0 90 54 60
        E 0 90 55 60
        E 0 90 58 60
        E 0 90 60 60
        E 0 90 61 60
        E 0 90 64 60
        E 120 80 18 00
        E 0 80 1a 00
        E 0 80 26 00
        E 0 80 3d 00
        E 0 80 40 00
        E 0 80 49 00
        E 0 80 4c 00
        E 0 80 54 00
        E 0 80 55 00
        E 0 80 58 00
        E 0 80 60 00
        E 0 80 61 00
        E 0 80 64 00
        E 120 90 33 60
        E 0 90 63 60
        E 120 80 33 00
        E 0 80 63 00
        E 120 80 19 00
        E 0 90 18 60
        E 0 90 19 60
        E 0 90 26 60
        E 0 90 40 60
        E 0 90 48 60
        E 0 90 4c 60
        E 0 90 54 60
        E 0 90 58 60
        E 0 90 60 60
        E 0 90 64 60
        E 120 80 18 00
        E 0 80 26 00
        E 0 80 40 00
        E 0 80 48 00
        E 0 80 4c 00
        E 0 80 54 00
        E 0 80 58 00
        E 0 80 60 00
        E 0 80 64 00
        E 120 90 33 60
        E 0 90 57 60
        E 0 90 63 60
        E 120 80 33 00
        E 0 80 57 00
        E 0 80 63 00
        E 120 80 19 00
        E 0 90 18 60
        E 0 90 19 60
        E 0 90 1a 60
        E 0 90 26 60
        E 0 90 3d 60
        E 0 90 40 60
        E 0 90 49 60
        E 0 90 4c 60
        E 0 90 54 60
        E 0 90 55 60
        E 0 90 58 60
        E 0 90 60 60
        E 0 90 61 60
        E 0 90 64 60
        E 120 80 18 00
        E 0 80 1a 00
        E 0 80 26 00
        E 0 80 3d 00
        E 0 80 40 00
        E 0 80 49 00
        E 0 80 4c 00
        E 0 80 54 00
        E 0 80 55 00
        E 0 80 58 00
        E 0 80 60 00
        E 0 80 61 00
        E 0 80 64 00
        E 120 90 33 60
        E 0 90 63 60
        E 120 80 33 00
        E 0 80 63 00
        E 120 80 19 00
        E 0 90 18 60
        E 0 90 19 60
        E 0 90 26 60
        E 0 90 40 60
        E 0 90 48 60
        E 0 90 4c 60
        E 0 90 54 60
        E 0 90 58 60
        E 0 90 60 60
        E 0 90 64 60
        E 120 80 18 00
        E 0 80 26 00
        E 0 80 40 00
        E 0 80 48 00
        E 0 80 4c 00
        E 0 80 54 00
        E 0 80 58 00
        E 0 80 60 00
        E 0 80 64 00
        E 120 90 33 60
        E 0 90 57 60
        E 0 90 63 60
        E 120 80 33 00
        E 0 80 57 00
        E 0 80 63 00
        E 120 80 19 00
        E 0 90 18 60
        E 0 90 19 60
        E 0 90 1a 60
        E 0 90 26 60
        E 0 90 3d 60
        E 0 90 40 60
        E 0 90 49 60
        E 0 90 4c 60
        E 0 90 54 60
        E 0 90 55 60
        E 0 90 58 60
        E 0 90 60 60
        E 0 90 61 60
        E 0 90 64 60
        E 120 80 18 00
        E 0 80 1a 00
        E 0 80 26 00
        E 0 80 3d 00
        E 0 80 40 00
        E 0 80 49 00
        E 0 80 4c 00
        E 0 80 54 00
        E 0 80 55 00
        E 0 80 58 00
        E 0 80 60 00
        E 0 80 61 00
        E 0 80 64 00
        E 120 90 33 60
        E 0 90 63 60
        E 120 80 33 00
        E 0 80 63 00
        E 120 80 19 00
        E 0 90 18 60
        E 0 90 19 60
        E 0 90 26 60
        E 0 90 40 60
        E 0 90 48 60
        E 0 90 4c 60
        E 0 90 54 60
        E 0 90 58 60
        E 0 90 60 60
        E 0 90 64 60
        E 120 80 18 00
        E 0 80 26 00
        E 0 80 40 00
        E 0 80 48 00
        E 0 80 4c 00
        E 0 80 54 00
        E 0 80 58 00
        E 0 80 60 00
        E 0 80 64 00
        E 120 90 18 60
        E 0 90 33 60
        E 0 90 54 60
        E 0 90 57 60
        E 0 90 60 60
        E 0 90 63 60
        E 120 80 18 00
        E 0 80 33 00
        E 0 80 54 00
        E 0 80 57 00
        E 0 80 60 00
        E 0 80 63 00
        E 120 80 19 00
        E 0 90 18 60
        E 0 90 19 60
        E 0 90 1a 60
        E 0 90 26 60
        E 0 90 3d 60
        E 0 90 40 60
        E 0 90 49 60
        E 0 90 4c 60
        E 0 90 54 60
        E 0 90 55 60
        E 0 90 58 60
        E 0 90 60 60
        E 0 90 61 60
        E 0 90 64 60
        E 120 80 18 00
        E 0 80 1a 00
        E 0 80 26 00
        E 0 80 3d 00
        E 0 80 40 00
        E 0 80 49 00
        E 0 80 4c 00
        E 0 80 54 00
        E 0 80 55 00
        E 0 80 58 00
        E 0 80 60 00
        E 0 80 61 00
        E 0 80 64 00
        E 120 90 18 60
        E 0 90 33 60
        E 0 90 60 60
        E 0 90 63 60
        E 120 80 18 00
        E 0 80 33 00
        E 0 80 60 00
        E 0 80 63 00
        E 120 80 19 00
        E 0 90 18 60
        E 0 90 19 60
        E 0 90 26 60
        E 0 90 40 60
        E 0 90 48 60
        E 0 90 4c 60
        E 0 90 54 60
        E 0 90 58 60
        E 0 90 60 60
        E 0 90 64 60
        E 120 80 18 00
        E 0 80 26 00
        E 0 80 40 00
        E 0 80 48 00
        E 0 80 4c 00
        E 0 80 54 00
        E 0 80 58 00
        E 0 80 60 00
        E 0 80 64 00
        E 120 90 33 60
        E 0 90 57 60
        E 0 90 63 60
        E 120 80 33 00
        E 0 80 57 00
        E 0 80 63 00
        E 120 80 19 00
        E 0 90 18 60
        E 0 90 19 60
        E 0 90 1a 60
        E 0 90 26 60
        E 0 90 3d 60
        E 0 90 40 60
        E 0 90 49 60
        E 0 90 4c 60
        E 0 90 54 60
        E 0 90 55 60
        E 0 90 58 60
        E 0 90 60 60
        E 0 90 61 60
        E 0 90 64 60
        E 120 80 18 00
        E 0 80 1a 00
        E 0 80 26 00
        E 0 80 3d 00
        E 0 80 40 00
        E 0 80 49 00
        E 0 80 4c 00
        E 0 80 54 00
        E 0 80 55 00
        E 0 80 58 00
        E 0 80 60 00
        E 0 80 61 00
        E 0 80 64 00
        E 120 90 33 60
        E 0 90 63 60
        E 120 80 33 00
        E 0 80 63 00
        E 120 80 19 00
        E 0 90 18 60
        E 0 90 19 60
        E 0 90 26 60
        E 0 90 40 60
        E 0 90 48 60
        E 0 90 4c 60
        E 0 90 54 60
        E 0 90 58 60
        E 0 90 60 60
        E 0 90 64 60
        E 120 80 18 00
        E 0 80 26 00
        E 0 80 40 00
        E 0 80 48 00
        E 0 80 4c 00
        E 0 80 54 00
        E 0 80 58 00
        E 0 80 60 00
        E 0 80 64 00
        E 120 90 33 60
        E 0 90 57 60
        E 0 90 63 60
        E 120 80 33 00
        E 0 80 57 00
        E 0 80 63 00
        E 120 80 19 00
        E 0 90 18 60
        E 0 90 19 60
        E 0 90 1a 60
        E 0 90 26 60
        E 0 90 3d 60
        E 0 90 40 60
        E 0 90 49 60
        E 0 90 4c 60
        E 0 90 54 60
        E 0 90 55 60
        E 0 90 58 60
        E 0 90 60 60
        E 0 90 61 60
        E 0 90 64 60
        E 120 80 18 00
        E 0 80 1a 00
        E 0 80 26 00
        E 0 80 3d 00
        E 0 80 40 00
        E 0 80 49 00
        E 0 80 4c 00
        E 0 80 54 00
        E 0 80 55 00
        E 0 80 58 00
        E 0 80 60 00
        E 0 80 61 00
        E 0 80 64 00
        E 120 90 33 60
        E 0 90 63 60
        E 120 80 33 00
        E 0 80 63 00
        E 120 80 19 00
        E 0 90 18 60
        E 0 90 19 60
        E 0 90 26 60
        E 0 90 40 60
        E 0 90 48 60
        E 0 90 4c 60
        E 0 90 54 60
        E 0 90 58 60
        E 0 90 60 60
        E 0 90 64 60
        E 0 90 78 60
        E 0 90 79 60
        E 0 90 7a 60
        E 0 90 7b 60
        E 0 90 7c 60
        E 120 80 18 00
        E 0 80 26 00
        E 0 80 40 00
        E 0 80 48 00
        E 0 80 4c 00
        E 0 80 54 00
        E 0 80 58 00
        E 0 80 60 00
        E 0 80 64 00
        E 120 90 33 60
        E 0 90 57 60
        E 0 90 63 60
        E 120 80 33 00
        E 0 80 57 00
        E 0 80 63 00
        E 120 80 19 00
        E 0 90 18 60
        E 0 90 19 60
        E 0 90 1a 60
        E 0 90 26 60
        E 0 90 3d 60
        E 0 90 40 60
        E 0 90 49 60
        E 0 90 4c 60
        E 0 90 54 60
        E 0 90 55 60
        E 0 90 58 60
        E 0 90 60 60
        E 0 90 61 60
        E 0 90 64 60
        E 120 80 18 00
        E 0 80 1a 00
        E 0 80 26 00
        E 0 80 3d 00
        E 0 80 40 00
        E 0 80 49 00
        E 0 80 4c 00
        E 0 80 54 00
        E 0 80 55 00
        E 0 80 58 00
        E 0 80 60 00
        E 0 80 61 00
        E 0 80 64 00
        E 120 90 33 60
        E 0 90 63 60
        E 120 80 33 00
        E 0 80 63 00
        E 120 80 19 00
        E 0 90 18 60
        E 0 90 19 60
        E 0 90 26 60
        E 0 90 40 60
        E 0 90 48 60
        E 0 90 4c 60
        E 0 90 54 60
        E 0 90 58 60
        E 0 90 60 60
        E 0 90 64 60
        E 120 80 18 00
        E 0 80 26 00
        E 0 80 40 00
        E 0 80 48 00
        E 0 80 4c 00
        E 0 80 54 00
        E 0 80 58 00
        E 0 80 60 00
        E 0 80 64 00
        E 120 90 18 60
        E 0 90 33 60
        E 0 90 54 60
        E 0 90 57 60
        E 0 90 60 60
        E 0 90 63 60
        E 120 80 18 00
        E 0 80 33 00
        E 0 80 54 00
        E 0 80 57 00
        E 0 80 60 00
        E 0 80 63 00
        E 120 80 19 00
        E 0 90 18 60
        E 0 90 19 60
        E 0 90 1a 60
        E 0 90 26 60
        E 0 90 3d 60
        E 0 90 40 60
        E 0 90 49 60
        E 0 90 4c 60
        E 0 90 54 60
        E 0 90 55 60
        E 0 90 58 60
        E 0 90 60 60
        E 0 90 61 60
        E 0 90 64 60
        E 120 80 18 00
        E 0 80 1a 00
        E 0 80 26 00
        E 0 80 3d 00
        E 0 80 40 00
        E 0 80 49 00
        E 0 80 4c 00
        E 0 80 54 00
        E 0 80 55 00
        E 0 80 58 00
        E 0 80 60 00
        E 0 80 61 00
        E 0 80 64 00
        E 120 90 18 60
        E 0 90 33 60
        E 0 90 60 60
        E 0 90 63 60
        E 120 80 18 00
        E 0 80 33 00
        E 0 80 60 00
        E 0 80 63 00
        E 120 80 78 00
        E 0 80 79 00
        E 0 80 7a 00
        E 0 80 7b 00
        E 0 80 7c 00
        E 0 80 19 00
        E 0 90 18 60
        E 0 90 19 60
        E 0 90 26 60
        E 0 90 40 60
        E 0 90 48 60
        E 0 90 4c 60
        E 0 90 54 60
        E 0 90 58 60
        E 0 90 60 60
        E 0 90 64 60
        E 120 80 18 00
        E 0 80 26 00
        E 0 80 40 00
        E 0 80 48 00
        E 0 80 4c 00
        E 0 80 54 00
        E 0 80 58 00
        E 0 80 60 00
        E 0 80 64 00
        E 120 90 33 60
        E 0 90 57 60
        E 0 90 63 60
        E 120 80 33 00
        E 0 80 57 00
        E 0 80 63 00
        E 120 80 19 00
        E 0 90 18 60
        E 0 90 19 60
        E 0 90 1a 60
        E 0 90 26 60
        E 0 90 3d 60
        E 0 90 40 60
        E 0 90 49 60
        E 0 90 4c 60
        E 0 90 54 60
        E 0 90 55 60
        E 0 90 58 60
        E 0 90 60 60
        E 0 90 61 60
        E 0 90 64 60
        E 0 90 74 60
        E 120 80 18 00
        E 0 80 1a 00
        E 0 80 26 00
        E 0 80 3d 00
        E 0 80 40 00
        E 0 80 49 00
        E 0 80 4c 00
        E 0 80 54 00
        E 0 80 55 00
        E 0 80 58 00
        E 0 80 60 00
        E 0 80 61 00
        E 0 80 64 00
        E 120 90 33 60
        E 0 90 63 60
        E 120 80 33 00
        E 0 80 63 00
        E 120 80 19 00
        E 0 90 18 60
        E 0 90 19 60
        E 0 90 26 60
        E 0 90 40 60
        E 0 90 48 60
        E 0 90 4c 60
        E 0 90 54 60
        E 0 90 58 60
        E 0 90 60 60
        E 0 90 64 60
        E 120 80 18 00
        E 0 80 26 00
        E 0 80 40 00
        E 0 80 48 00
        E 0 80 4c 00
        E 0 80 54 00
        E 0 80 58 00
        E 0 80 60 00
        E 0 80 64 00
        E 120 90 33 60
        E 0 90 57 60
        E 0 90 63 60
        E 120 80 33 00
        E 0 80 57 00
        E 0 80 63 00
        E 120 80 19 00
        E 0 90 18 60
        E 0 90 19 60
        E 0 90 1a 60
        E 0 90 26 60
        E 0 90 3d 60
        E 0 90 40 60
        E 0 90 49 60
        E 0 90 4c 60
        E 0 90 54 60
        E 0 90 55 60
        E 0 90 58 60
        E 0 90 60 60
        E 0 90 61 60
        E 0 90 64 60
        E 120 80 18 00
        E 0 80 1a 00
        E 0 80 26 00
        E 0 80 3d 00
        E 0 80 40 00
        E 0 80 49 00
        E 0 80 4c 00
        E 0 80 54 00
        E 0 80 55 00
        E 0 80 58 00
        E 0 80 60 00
        E 0 80 61 00
        E 0 80 64 00
        E 120 90 33 60
        E 0 90 63 60
        E 120 80 33 00
        E 0 80 63 00
        E 120 80 74 00
        E 0 80 19 00
        E 0 90 18 60
        E 0 90 19 60
        E 0 90 26 60
        E 0 90 40 60
        E 0 90 48 60
        E 0 90 4c 60
        E 0 90 54 60
        E 0 90 58 60
        E 0 90 60 60
        E 0 90 64 60
        E 120 80 18 00
        E 0 80 26 00
        E 0 80 40 00
        E 0 80 48 00
        E 0 80 4c 00
        E 0 80 54 00
        E 0 80 58 00
        E 0 80 60 00
        E 0 80 64 00
        E 120 90 33 60
        E 0 90 57 60
        E 0 90 63 60
        E 120 80 33 00
        E 0 80 57 00
        E 0 80 63 00
        E 120 80 19 00
        E 0 90 18 60
        E 0 90 19 60
        E 0 90 1a 60
        E 0 90 26 60
        E 0 90 3d 60
        E 0 90 40 60
        E 0 90 49 60
        E 0 90 4c 60
        E 0 90 54 60
        E 0 90 55 60
        E 0 90 58 60
        E 0 90 60 60
        E 0 90 61 60
        E 0 90 64 60
        E 120 80 18 00
        E 0 80 1a 00
        E 0 80 26 00
        E 0 80 3d 00
        E 0 80 40 00
        E 0 80 49 00
        E 0 80 4c 00
        E 0 80 54 00
        E 0 80 55 00
        E 0 80 58 00
        E 0 80 60 00
        E 0 80 61 00
        E 0 80 64 00
        E 120 90 33 60
        E 0 90 63 60
        E 120 80 33 00
        E 0 80 63 00
        E 120 80 19 00
        E 0 90 18 60
        E 0 90 19 60
        E 0 90 26 60
        E 0 90 40 60
        E 0 90 48 60
        E 0 90 4c 60
        E 0 90 54 60
        E 0 90 58 60
        E 0 90 60 60
        E 0 90 64 60
        E 120 80 18 00
        E 0 80 26 00
        E 0 80 40 00
        E 0 80 48 00
        E 0 80 4c 00
        E 0 80 54 00
        E 0 80 58 00
        E 0 80 60 00
        E 0 80 64 00
        E 120 90 18 60
        E 0 90 33 60
        E 0 90 54 60
        E 0 90 57 60
        E 0 90 60 60
        E 0 90 63 60
        E 120 80 18 00
        E 0 80 33 00
        E 0 80 54 00
        E 0 80 57 00
        E 0 80 60 00
        E 0 80 63 00
        E 120 80 19 00
        E 0 90 18 60
        E 0 90 19 60
        E 0 90 1a 60
        E 0 90 26 60
        E 0 90 3d 60
        E 0 90 40 60
        E 0 90 49 60
        E 0 90 4c 60
        E 0 90 54 60
        E 0 90 55 60
        E 0 90 58 60
        E 0 90 60 60
        E 0 90 61 60
        E 0 90 64 60
        E 120 80 18 00
        E 0 80 1a 00
        E 0 80 26 00
        E 0 80 3d 00
        E 0 80 40 00
        E 0 80 49 00
        E 0 80 4c 00
        E 0 80 54 00
        E 0 80 55 00
        E 0 80 58 00
        E 0 80 60 00
        E 0 80 61 00
        E 0 80 64 00
        E 120 90 18 60
        E 0 90 33 60
        E 0 90 60 60
        E 0 90 63 60
        E 120 80 18 00
        E 0 80 33 00
        E 0 80 60 00
        E 0 80 63 00
        E 120 80 19 00
        E 0 90 18 60
        E 0 90 19 60
        E 0 90 26 60
        E 0 90 40 60
        E 0 90 48 60
        E 0 90 4c 60
        E 0 90 54 60
        E 0 90 58 60
        E 0 90 60 60
        E 0 90 64 60
        E 120 80 18 00
        E 0 80 26 00
        E 0 80 40 00
        E 0 80 48 00
        E 0 80 4c 00
        E 0 80 54 00
        E 0 80 58 00
        E 0 80 60 00
        E 0 80 64 00
        E 120 90 33 60
        E 0 90 57 60
        E 0 90 63 60
        E 120 80 33 00
        E 0 80 57 00
        E 0 80 63 00
        E 120 80 19 00
        E 0 90 18 60
        E 0 90 19 60
        E 0 90 1a 60
        E 0 90 26 60
        E 0 90 3d 60
        E 0 90 40 60
        E 0 90 49 60
        E 0 90 4c 60
        E 0 90 54 60
        E 0 90 55 60
        E 0 90 58 60
        E 0 90 60 60
        E 0 90 61 60
        E 0 90 64 60
        E 120 80 18 00
        E 0 80 1a 00
        E 0 80 26 00
        E 0 80 3d 00
        E 0 80 40 00
        E 0 80 49 00
        E 0 80 4c 00
        E 0 80 54 00
        E 0 80 55 00
        E 0 80 58 00
        E 0 80 60 00
        E 0 80 61 00
        E 0 80 64 00
        E 120 90 33 60
        E 0 90 63 60
        E 120 80 33 00
        E 0 80 63 00
        E 120 80 19 00
        E 0 90 18 60
        E 0 90 19 60
        E 0 90 26 60
        E 0 90 40 60
        E 0 90 48 60
        E 0 90 4c 60
        E 0 90 54 60
        E 0 90 58 60
        E 0 90 60 60
        E 0 90 64 60
        E 120 80 18 00
        E 0 80 26 00
        E 0 80 40 00
        E 0 80 48 00
        E 0 80 4c 00
        E 0 80 54 00
        E 0 80 58 00
        E 0 80 60 00
        E 0 80 64 00
        E 120 90 33 60
        E 0 90 57 60
        E 0 90 63 60
        E 120 80 33 00
        E 0 80 57 00
        E 0 80 63 00
        E 120 80 19 00
        E 0 90 18 60
        E 0 90 19 60
        E 0 90 1a 60
        E 0 90 26 60
        E 0 90 3d 60
        E 0 90 40 60
        E 0 90 49 60
        E 0 90 4c 60
        E 0 90 54 60
        E 0 90 55 60
        E 0 90 58 60
        E 0 90 60 60
        E 0 90 61 60
        E 0 90 64 60
        E 120 80 18 00
        E 0 80 1a 00
        E 0 80 26 00
        E 0 80 3d 00
        E 0 80 40 00
        E 0 80 49 00
        E 0 80 4c 00
        E 0 80 54 00
        E 0 80 55 00
        E 0 80 58 00
        E 0 80 60 00
        E 0 80 61 00
        E 0 80 64 00
        E 120 90 33 60
        E 0 90 63 60
        E 120 80 33 00
        E 0 80 63 00
        E 120 80 19 00
        E 0 90 18 60
        E 0 90 19 60
        E 0 90 26 60
        E 0 90 40 60
        E 0 90 48 60
        E 0 90 4c 60
        E 0 90 54 60
        E 0 90 58 60
        E 0 90 60 60
        E 0 90 64 60
        E 0 90 78 60
        E 0 90 79 60
        E 0 90 7a 60
        E 0 90 7b 60
        E 0 90 7c 60
        E 120 80 18 00
        E 0 80 26 00
        E 0 80 40 00
        E 0 80 48 00
        E 0 80 4c 00
        E 0 80 54 00
        E 0 80 58 00
        E 0 80 60 00
        E 0 80 64 00
        E 120 90 33 60
        E 0 90 57 60
        E 0 90 63 60
        E 120 80 33 00
        E 0 80 57 00
        E 0 80 63 00
        E 120 80 19 00
        E 0 90 18 60
        E 0 90 19 60
        E 0 90 1a 60
        E 0 90 26 60
        E 0 90 3d 60
        E 0 90 40 60
        E 0 90 49 60
        E 0 90 4c 60
        E 0 90 54 60
        E 0 90 55 60
        E 0 90 58 60
        E 0 90 60 60
        E 0 90 61 60
        E 0 90 64 60
        E 120 80 18 00
        E 0 80 1a 00
        E 0 80 26 00
        E 0 80 3d 00
        E 0 80 40 00
        E 0 80 49 00
        E 0 80 4c 00
        E 0 80 54 00
        E 0 80 55 00
        E 0 80 58 00
        E 0 80 60 00
        E 0 80 61 00
        E 0 80 64 00
        E 120 90 33 60
        E 0 90 63 60
        E 120 80 33 00
        E 0 80 63 00
        E 120 80 19 00
        E 0 90 18 60
        E 0 90 19 60
        E 0 90 26 60
        E 0 90 40 60
        E 0 90 48 60
        E 0 90 4c 60
        E 0 90 54 60
        E 0 90 58 60
        E 0 90 60 60
        E 0 90 64 60
        E 120 80 18 00
        E 0 80 26 00
        E 0 80 40 00
        E 0 80 48 00
        E 0 80 4c 00
        E 0 80 54 00
        E 0 80 58 00
        E 0 80 60 00
        E 0 80 64 00
        E 120 90 18 60
        E 0 90 33 60
        E 0 90 54 60
        E 0 90 57 60
        E 0 90 60 60
        E 0 90 63 60
        E 120 80 18 00
        E 0 80 33 00
        E 0 80 54 00
        E 0 80 57 00
        E 0 80 60 00
        E 0 80 63 00
        E 120 80 19 00
        E 0 90 18 60
        E 0 90 19 60
        E 0 90 1a 60
        E 0 90 26 60
        E 0 90 3d 60
        E 0 90 40 60
        E 0 90 49 60
        E 0 90 4c 60
        E 0 90 54 60
        E 0 90 55 60
        E 0 90 58 60
        E 0 90 60 60
        E 0 90 61 60
        E 0 90 64 60
        E 120 80 18 00
        E 0 80 1a 00
        E 0 80 26 00
        E 0 80 3d 00
        E 0 80 40 00
        E 0 80 49 00
        E 0 80 4c 00
        E 0 80 54 00
        E 0 80 55 00
        E 0 80 58 00
        E 0 80 60 00
        E 0 80 61 00
        E 0 80 64 00
        E 120 90 18 60
        E 0 90 33 60
        E 0 90 60 60
        E 0 90 63 60
        E 120 80 18 00
        E 0 80 33 00
        E 0 80 60 00
        E 0 80 63 00
        E 120 80 78 00
        E 0 80 79 00
        E 0 80 7a 00
        E 0 80 7b 00
        E 0 80 7c 00
        E 0 80 19 00
        E 0 90 18 60
        E 0 90 19 60
        E 0 90 26 60
        E 0 90 40 60
        E 0 90 48 60
        E 0 90 4c 60
        E 0 90 54 60
        E 0 90 58 60
        E 0 90 60 60
        E 0 90 64 60
        E 120 80 18 00
        E 0 80 26 00
        E 0 80 40 00
        E 0 80 48 00
        E 0 80 4c 00
        E 0 80 54 00
        E 0 80 58 00
        E 0 80 60 00
        E 0 80 64 00
        E 120 90 33 60
        E 0 90 57 60
        E 0 90 63 60
        E 120 80 33 00
        E 0 80 57 00
        E 0 80 63 00
        E 120 80 19 00
        E 0 90 18 60
        E 0 90 19 60
        E 0 90 1a 60
        E 0 90 26 60
        E 0 90 3d 60
        E 0 90 40 60
        E 0 90 49 60
        E 0 90 4c 60
        E 0 90 54 60
        E 0 90 55 60
        E 0 90 58 60
        E 0 90 60 60
        E 0 90 61 60
        E 0 90 64 60
        E 120 80 18 00
        E 0 80 1a 00
        E 0 80 26 00
        E 0 80 3d 00
        E 0 80 40 00
        E 0 80 49 00
        E 0 80 4c 00
        E 0 80 54 00
        E 0 80 55 00
        E 0 80 58 00
        E 0 80 60 00
        E 0 80 61 00
        E 0 80 64 00
        E 120 90 33 60
        E 0 90 63 60
        E 120 80 33 00
        E 0 80 63 00
        E 120 80 19 00
        E 0 90 18 60
        E 0 90 19 60
        E 0 90 26 60
        E 0 90 40 60
        E 0 90 48 60
        E 0 90 4c 60
        E 0 90 54 60
        E 0 90 58 60
        E 0 90 60 60
        E 0 90 64 60
        E 120 80 18 00
        E 0 80 26 00
        E 0 80 40 00
        E 0 80 48 00
        E 0 80 4c 00
        E 0 80 54 00
        E 0 80 58 00
        E 0 80 60 00
        E 0 80 64 00
        E 120 90 33 60
        E 0 90 57 60
        E 0 90 63 60
        E 120 80 33 00
        E 0 80 57 00
        E 0 80 63 00
        E 120 80 19 00
        E 0 90 18 60
        E 0 90 19 60
        E 0 90 1a 60
        E 0 90 26 60
        E 0 90 3d 60
        E 0 90 40 60
        E 0 90 49 60
        E 0 90 4c 60
        E 0 90 54 60
        E 0 90 55 60
        E 0 90 58 60
        E 0 90 60 60
        E 0 90 61 60
        E 0 90 64 60
        E 120 80 18 00
        E 0 80 1a 00
        E 0 80 26 00
        E 0 80 3d 00
        E 0 80 40 00
        E 0 80 49 00
        E 0 80 4c 00
        E 0 80 54 00
        E 0 80 55 00
        E 0 80 58 00
        E 0 80 60 00
        E 0 80 61 00
        E 0 80 64 00
        E 120 90 33 60
        E 0 90 63 60
        E 120 80 33 00
        E 0 80 63 00
        E 120 80 19 00
        E 0 90 18 60
        E 0 90 19 60
        E 0 90 26 60
        E 0 90 40 60
        E 0 90 48 60
        E 0 90 4c 60
        E 0 90 54 60
        E 0 90 58 60
        E 0 90 60 60
        E 0 90 64 60
        E 120 80 18 00
        E 0 80 26 00
        E 0 80 40 00
        E 0 80 48 00
        E 0 80 4c 00
        E 0 80 54 00
        E 0 80 58 00
        E 0 80 60 00
        E 0 80 64 00
        E 120 90 33 60
        E 0 90 57 60
        E 0 90 63 60
        E 120 80 33 00
        E 0 80 57 00
        E 0 80 63 00
        E 120 80 19 00
        E 0 90 18 60
        E 0 90 19 60
        E 0 90 1a 60
        E 0 90 26 60
        E 0 90 3d 60
        E 0 90 40 60
        E 0 90 49 60
        E 0 90 4c 60
        E 0 90 54 60
        E 0 90 55 60
        E 0 90 58 60
        E 0 90 60 60
        E 0 90 61 60
        E 0 90 64 60
        E 120 80 18 00
        E 0 80 1a 00
        E 0 80 26 00
        E 0 80 3d 00
        E 0 80 40 00
        E 0 80 49 00
        E 0 80 4c 00
        E 0 80 54 00
        E 0 80 55 00
        E 0 80 58 00
        E 0 80 60 00
        E 0 80 61 00
        E 0 80 64 00
        E 120 90 33 60
        E 0 90 63 60
        E 120 80 33 00
        E 0 80 63 00
        E 120 80 19 00
        E 0 90 18 60
        E 0 90 19 60
        E 0 90 26 60
        E 0 90 40 60
        E 0 90 48 60
        E 0 90 4c 60
        E 0 90 54 60
        E 0 90 58 60
        E 0 90 60 60
        E 0 90 64 60
        E 120 80 18 00
        E 0 80 26 00
        E 0 80 40 00
        E 0 80 48 00
        E 0 80 4c 00
        E 0 80 54 00
        E 0 80 58 00
        E 0 80 60 00
        E 0 80 64 00
        E 120 90 18 60
        E 0 90 33 60
        E 0 90 54 60
        E 0 90 57 60
        E 0 90 60 60
        E 0 90 63 60
        E 120 80 18 00
        E 0 80 33 00
        E 0 80 54 00
        E 0 80 57 00
        E 0 80 60 00
        E 0 80 63 00
        E 120 80 19 00
        E 0 90 18 60
        E 0 90 19 60
        E 0 90 1a 60
        E 0 90 26 60
        E 0 90 3d 60
        E 0 90 40 60
        E 0 90 49 60
        E 0 90 4c 60
        E 0 90 54 60
        E 0 90 55 60
        E 0 90 58 60
        E 0 90 60 60
        E 0 90 61 60
        E 0 90 64 60
        E 120 80 18 00
        E 0 80 1a 00
        E 0 80 26 00
        E 0 80 3d 00
        E 0 80 40 00
        E 0 80 49 00
        E 0 80 4c 00
        E 0 80 54 00
        E 0 80 55 00
        E 0 80 58 00
        E 0 80 60 00
        E 0 80 61 00
        E 0 80 64 00
        E 120 90 18 60
        E 0 90 33 60
        E 0 90 60 60
        E 0 90 63 60
        E 120 80 18 00
        E 0 80 33 00
        E 0 80 60 00
        E 0 80 63 00
        E 120 80 19 00
        E 0 90 18 60
        E 0 90 19 60
        E 0 90 26 60
        E 0 90 40 60
        E 0 90 48 60
        E 0 90 4c 60
        E 0 90 54 60
        E 0 90 58 60
        E 0 90 60 60
        E 0 90 64 60
        E 120 80 18 00
        E 0 80 26 00
        E 0 80 40 00
        E 0 80 48 00
        E 0 80 4c 00
        E 0 80 54 00
        E 0 80 58 00
        E 0 80 60 00
        E 0 80 64 00
        E 120 90 33 60
        E 0 90 57 60
        E 0 90 63 60
        E 120 80 33 00
        E 0 80 57 00
        E 0 80 63 00
        E 120 80 19 00
        E 0 90 18 60
        E 0 90 19 60
        E 0 90 1a 60
        E 0 90 26 60
        E 0 90 3d 60
        E 0 90 40 60
        E 0 90 49 60
        E 0 90 4c 60
        E 0 90 54 60
        E 0 90 55 60
        E 0 90 58 60
        E 0 90 60 60
        E 0 90 61 60
        E 0 90 64 60
        E 120 80 18 00
        E 0 80 1a 00
        E 0 80 26 00
        E 0 80 3d 00
        E 0 80 40 00
        E 0 80 49 00
        E 0 80 4c 00
        E 0 80 54 00
        E 0 80 55 00
        E 0 80 58 00
        E 0 80 60 00
        E 0 80 61 00
        E 0 80 64 00
        E 120 90 33 60
        E 0 90 63 60
        E 120 80 33 00
        E 0 80 63 00
        E 120 80 19 00
        E 0 90 18 60
        E 0 90 19 60
        E 0 90 26 60
        E 0 90 40 60
        E 0 90 48 60
        E 0 90 4c 60
        E 0 90 54 60
        E 0 90 58 60
        E 0 90 60 60
        E 0 90 64 60
        E 120 80 18 00
        E 0 80 26 00
        E 0 80 40 00
        E 0 80 48 00
        E 0 80 4c 00
        E 0 80 54 00
        E 0 80 58 00
        E 0 80 60 00
        E 0 80 64 00
        E 120 90 33 60
        E 0 90 57 60
        E 0 90 63 60
        E 120 80 33 00
        E 0 80 57 00
        E 0 80 63 00
        E 120 80 19 00
        E 0 90 18 60
        E 0 90 19 60
        E 0 90 1a 60
        E 0 90 26 60
        E 0 90 3d 60
        E 0 90 40 60
        E 0 90 49 60
        E 0 90 4c 60
        E 0 90 54 60
        E 0 90 55 60
        E 0 90 58 60
        E 0 90 60 60
        E 0 90 61 60
        E 0 90 64 60
        E 120 80 18 00
        E 0 80 1a 00
        E 0 80 26 00
        E 0 80 3d 00
        E 0 80 40 00
        E 0 80 49 00
        E 0 80 4c 00
        E 0 80 54 00
        E 0 80 55 00
        E 0 80 58 00
        E 0 80 60 00
        E 0 80 61 00
        E 0 80 64 00
        E 120 90 33 60
        E 0 90 63 60
        E 120 80 33 00
        E 0 80 63 00
        E 120 80 6f 00
        E 0 80 19 00
        E 0 90 18 60
        E 0 90 19 60
        E 0 90 1b 60
        E 0 90 3d 60
        E 0 90 49 60
        E 0 90 54 60
        E 0 90 55 60
        E 0 90 60 60
        E 0 90 61 60
        E 120 80 18 00
        E 0 80 1b 00
        E 0 80 3d 00
        E 0 80 49 00
        E 0 80 54 00
        E 0 80 55 00
        E 0 80 60 00
        E 0 80 61 00
        E 0 90 1a 60
        E 0 90 61 60
        E 120 80 1a 00
        E 0 80 61 00
        E 0 90 1b 60
        E 0 90 55 60
        E 0 90 61 60
        E 120 80 1b 00
        E 0 80 55 00
        E 0 80 61 00
        E 0 90 1a 60
        E 0 90 61 60
        E 120 80 19 00
        E 0 80 1a 00
        E 0 80 61 00
        E 0 90 18 60
        E 0 90 19 60
        E 0 90 1b 60
        E 0 90 3d 60
        E 0 90 49 60
        E 0 90 54 60
        E 0 90 55 60
        E 0 90 60 60
        E 0 90 61 60
        E 120 80 18 00
        E 0 80 1b 00
        E 0 80 3d 00
        E 0 80 49 00
        E 0 80 54 00
        E 0 80 55 00
        E 0 80 60 00
        E 0 80 61 00
        E 0 90 1a 60
        E 0 90 61 60
        E 120 80 1a 00
        E 0 80 61 00
        E 0 90 1b 60
        E 0 90 55 60
        E 0 90 61 60
        E 120 80 1b 00
        E 0 80 55 00
        E 0 80 61 00
        E 0 90 1a 60
        E 0 90 61 60
        E 120 80 19 00
        E 0 80 1a 00
        E 0 80 61 00
        E 0 90 18 60
        E 0 90 19 60
        E 0 90 1b 60
        E 0 90 3d 60
        E 0 90 49 60
        E 0 90 54 60
        E 0 90 55 60
        E 0 90 60 60
        E 0 90 61 60
        E 120 80 18 00
        E 0 80 1b 00
        E 0 80 3d 00
        E 0 80 49 00
        E 0 80 54 00
        E 0 80 55 00
        E 0 80 60 00
        E 0 80 61 00
        E 0 90 1a 60
        E 0 90 61 60
        E 120 80 1a 00
        E 0 80 61 00
        E 0 90 18 60
        E 0 90 1b 60
        E 0 90 54 60
        E 0 90 55 60
        E 0 90 60 60
        E 0 90 61 60
        E 120 80 18 00
        E 0 80 1b 00
        E 0 80 54 00
        E 0 80 55 00
        E 0 80 60 00
        E 0 80 61 00
        E 0 90 1a 60
        E 0 90 61 60
        E 120 80 19 00
        E 0 80 1a 00
        E 0 80 61 00
        E 0 90 18 60
        E 0 90 19 60
        E 0 90 1b 60
        E 0 90 3d 60
        E 0 90 49 60
        E 0 90 54 60
        E 0 90 55 60
        E 0 90 60 60
        E 0 90 61 60
        E 120 80 18 00
        E 0 80 1b 00
        E 0 80 3d 00
        E 0 80 49 00
        E 0 80 54 00
        E 0 80 55 00
        E 0 80 60 00
        E 0 80 61 00
        E 0 90 1a 60
        E 0 90 61 60
        E 120 80 1a 00
        E 0 80 61 00
        E 0 90 18 60
        E 0 90 1b 60
        E 0 90 55 60
        E 0 90 60 60
        E 0 90 61 60
        E 120 80 18 00
        E 0 80 1b 00
        E 0 80 55 00
        E 0 80 60 00
        E 0 80 61 00
        E 0 90 1a 60
        E 0 90 61 60
        <X 120 0
          /wFbaWRsZV0=
        >
        E 0 80 19 00
        E 0 80 1a 00
        E 0 80 61 00
        <X 15359 0
          /wFbaWRsZV9yZWFsdGltZV0=
        >
        E 15360 b0 7b 00
        GUID {FE0CD796-B643-468A-A873-CC907FB0FB91}
        IGNTEMPO 0 120.00000000 4 4
        SRCCOLOR 3
        VELLANE 132 128 60
        COLORMAP "C:\Program Files\REAPER (x64)\Data\color_maps\rockband_guitarbass.png"
        CFGEDITVIEW -1262.504100 69.848485 0 12 0 0 0
        CFGEDIT 1 1 0 1 1 0 1 1 1 1 1 0.25000000 -8 -8 1544 872 0 2 1 1 0.00000000 0 1 1 0 0.500000 0 0 1.000000 64
        KEYSNAP 0 6 "102030050700" 0 "Pentatonic"
        EVTFILTER 0 -1 -1 -1 -1 0 1 0 0 -1.00000000 -1.00000000
      >
    >
  >
  <TRACK '{1A9DA338-42CC-4D13-9B37-4941D00B724E}'
    NAME "drums"
    PEAKCOL 16576
    BEAT -1
    AUTOMODE 0
    VOLPAN 1.00000000000000 0.00000000000000 -1.00000000000000 -1.00000000000000 1.00000000000000
    MUTESOLO 0 0 0
    IPHASE 0
    ISBUS 2 -1
    BUSCOMP 0 0
    SHOWINMIX 1 0.666700 0.500000 1 0.500000 -1 -1 -1
    FREEMODE 0
    SEL 0
    REC 0 0 0 0 0 0 0
    VU 2
    TRACKHEIGHT 0 0
    INQ 0 0 0 0.5000000000 100 0 0 100
    NCHAN 2
    FX 1
    TRACKID {1A9DA338-42CC-4D13-9B37-4941D00B724E}
    PERF 0
    MIDIOUT -1
    MAINSEND 1 0
    <ITEM
      POSITION 0.00000000000000
      SNAPOFFS 0.00000000000000
      LENGTH 119.20500000000000
      LOOP 0
      ALLTAKES 0
      SEL 0
      FADEIN 1 0.000000 0.000000 1 0
      FADEOUT 1 0.000000 0.000000 1 0
      MUTE 0
      IGUID {63ACD649-8B9F-440A-AFEA-E710179440A8}
      IID 18
      NAME "drums.wav"
      VOLPAN 1.000000 0.000000 1.000000 -1.000000
      SOFFS 0.00000000000000
      PLAYRATE 1.00000000000000 1 0.00000000000000 -1
      CHANMODE 0
      GUID {13CF162B-73CA-48BF-9E32-1BB84E92B5D9}
      <SOURCE WAVE
        FILE "wav\drums.wav"
      >
    >
  >
  <TRACK '{3FFF36BD-4E24-43CF-B0FA-84C071EA4118}'
    NAME "PART BASS"
    PEAKCOL 16576
    BEAT -1
    AUTOMODE 0
    VOLPAN 1.00000000000000 0.00000000000000 -1.00000000000000 -1.00000000000000 1.00000000000000
    MUTESOLO 0 0 0
    IPHASE 0
    ISBUS 1 1
    BUSCOMP 0 0
    SHOWINMIX 1 0.666700 0.500000 1 0.500000 -1 -1 -1
    FREEMODE 0
    SEL 0
    REC 0 0 0 0 0 0 0
    VU 2
    TRACKHEIGHT 0 0
    INQ 0 0 0 0.5000000000 100 0 0 100
    NCHAN 2
    FX 1
    TRACKID {3FFF36BD-4E24-43CF-B0FA-84C071EA4118}
    PERF 0
    MIDIOUT -1
    <MIDINOTENAMES
      0 127 "TRILL MARKER"
      0 126 "TREMOLO MARKER"
      0 125 "---"
      0 124 "BRE"
      0 123 "BRE"
      0 122 "BRE"
      0 121 "BRE"
      0 120 "BRE (use all 5)"
      0 119 "----"
      0 116 "OVERDRIVE"
      0 115 "----"
      0 103 "Solo Marker"
      0 102 "Force HOPO Off"
      0 101 "Force HOPO On"
      0 100 "EXPERT Orange"
      0 99 "EXPERT Blue"
      0 98 "EXPERT Yellow"
      0 97 "EXPERT Red"
      0 96 "EXPERT Green"
      0 95 "----"
      0 90 "Force HOPO Off"
      0 89 "Force HOPO On"
      0 88 "HARD Orange"
      0 87 "HARD Blue"
      0 86 "HARD Yellow"
      0 85 "HARD Red"
      0 84 "HARD Green"
      0 77 "----"
      0 76 "MEDIUM Orange"
      0 75 "MEDIUM Blue"
      0 74 "MEDIUM Yellow"
      0 73 "MEDIUM Red"
      0 72 "MEDIUM Green"
      0 65 "----"
      0 64 "EASY Orange"
      0 63 "EASY Blue"
      0 62 "EASY Yellow"
      0 61 "EASY Red"
      0 60 "EASY Green"
      0 59 "Fret 12"
      0 57 "Fret 11"
      0 56 "Fret 10"
      0 55 "Fret 9"
      0 53 "Fret 8"
      0 52 "Fret 7"
      0 50 "Fret 6"
      0 49 "Fret 5"
      0 47 "Fret 4"
      0 45 "Fret 3"
      0 43 "Fret 2"
      0 40 "Fret 1"
    >
    MAINSEND 1 0
    <FXCHAIN
      WNDRECT 0 43 891 559
      SHOW 0
      LASTSEL 0
      DOCKED 0
      BYPASS 0 0
      <VST "VSTi: RBN Preview (RBN)" "rbprev_vst64.dll" 0 ""
        dnBicu5e7f4AAAAAAgAAAAEAAAAAAAAAAgAAAAAAAAAEAAAAAQAAAA==
        AAAQAAMAqgAAABAAAAA=
      >
      FLOATPOS 0 0 0 0
      FXID {28A6232A-CC99-4949-AFB0-74348F1AC106}
      WAK 0
    >
    <ITEM
      POSITION 0.00000000000000
      SNAPOFFS 0.00000000000000
      LENGTH 119.20500000000000
      LOOP 0
      ALLTAKES 0
      SEL 0
      FADEIN 1 0.000000 0.000000 1 0
      FADEOUT 1 0.000000 0.000000 1 0
      MUTE 0
      IGUID {92946C2B-E000-4E90-B14F-FD3D0E4CA97F}
      IID 2
      NAME "PART BASS"
      VOLPAN 1.000000 0.000000 1.000000 -1.000000
      SOFFS 0.00000000000000 0.00000000000000
      PLAYRATE 1.00000000000000 1 0.00000000000000 -1
      CHANMODE 0
      GUID {846352DF-FE91-4135-B624-F8CAA963D6CD}
      <SOURCE MIDI
        HASDATA 1 480 QN
        POOLEDEVTS {1CDA04E7-A10D-4007-B08A-2FDD9F458607}
        <X 0 0
          /wNQQVJUIEJBU1M=
        >
        <X 5280 0
          /wFbbWFwIFN0cnVtTWFwX1BpY2td
        >
        <X 480 0
          /wFbcGxheV0=
        >
        E 0 90 31 60
        E 0 90 3c 60
        E 0 90 48 60
        E 0 90 54 60
        E 0 90 60 60
        E 120 80 3c 00
        E 0 80 48 00
        E 0 80 54 00
        E 0 80 60 00
        E 120 90 54 60
        E 0 90 60 60
        E 120 80 54 00
        E 0 80 60 00
        E 120 90 48 60
        E 0 90 54 60
        E 0 90 60 60
        E 120 80 48 00
        E 0 80 54 00
        E 0 80 60 00
        E 120 90 3c 60
        E 0 90 48 60
        E 0 90 54 60
        E 0 90 60 60
        E 120 80 3c 00
        E 0 80 48 00
        E 0 80 54 00
        E 0 80 60 00
        E 1080 90 3c 60
        E 0 90 48 60
        E 0 90 54 60
        E 0 90 60 60
        E 120 80 3c 00
        E 0 80 48 00
        E 0 80 54 00
        E 0 80 60 00
        E 120 90 54 60
        E 0 90 60 60
        E 120 80 54 00
        E 0 80 60 00
        E 120 90 48 60
        E 0 90 54 60
        E 0 90 60 60
        E 120 80 48 00
        E 0 80 54 00
        E 0 80 60 00
        E 120 90 3c 60
        E 0 90 48 60
        E 0 90 54 60
        E 0 90 60 60
        E 120 80 3c 00
        E 0 80 48 00
        E 0 80 54 00
        E 0 80 60 00
        E 1080 90 3d 60
        E 0 90 4a 60
        E 0 90 56 60
        E 0 90 62 60
        E 120 80 3d 00
        E 0 80 4a 00
        E 0 80 56 00
        E 0 80 62 00
        E 120 90 56 60
        E 0 90 62 60
        E 120 80 56 00
        E 0 80 62 00
        E 120 90 4a 60
        E 0 90 56 60
        E 0 90 62 60
        E 120 80 4a 00
        E 0 80 56 00
        E 0 80 62 00
        E 120 90 3d 60
        E 0 90 4a 60
        E 0 90 56 60
        E 0 90 62 60
        E 120 80 3d 00
        E 0 80 4a 00
        E 0 80 56 00
        E 0 80 62 00
        E 1080 90 3d 60
        E 0 90 4a 60
        E 0 90 56 60
        E 0 90 62 60
        E 120 80 3d 00
        E 0 80 4a 00
        E 0 80 56 00
        E 0 80 62 00
        E 120 90 56 60
        E 0 90 62 60
        E 120 80 56 00
        E 0 80 62 00
        E 120 90 4a 60
        E 0 90 56 60
        E 0 90 62 60
        E 120 80 4a 00
        E 0 80 56 00
        E 0 80 62 00
        E 120 90 3d 60
        E 0 90 4a 60
        E 0 90 56 60
        E 0 90 62 60
        E 120 80 3d 00
        E 0 80 4a 00
        E 0 80 56 00
        E 0 80 62 00
        E 1080 90 3c 60
        E 0 90 48 60
        E 0 90 54 60
        E 0 90 60 60
        E 0 90 74 60
        E 120 80 3c 00
        E 0 80 48 00
        E 0 80 54 00
        E 0 80 60 00
        E 120 90 54 60
        E 0 90 60 60
        E 120 80 54 00
        E 0 80 60 00
        E 120 90 48 60
        E 0 90 54 60
        E 0 90 60 60
        E 120 80 48 00
        E 0 80 54 00
        E 0 80 60 00
        E 120 90 3c 60
        E 0 90 48 60
        E 0 90 54 60
        E 0 90 60 60
        E 120 80 3c 00
        E 0 80 48 00
        E 0 80 54 00
        E 0 80 60 00
        E 1080 90 3c 60
        E 0 90 48 60
        E 0 90 54 60
        E 0 90 60 60
        E 120 80 3c 00
        E 0 80 48 00
        E 0 80 54 00
        E 0 80 60 00
        E 120 90 54 60
        E 0 90 60 60
        E 120 80 54 00
        E 0 80 60 00
        E 120 90 48 60
        E 0 90 54 60
        E 0 90 60 60
        E 120 80 48 00
        E 0 80 54 00
        E 0 80 60 00
        E 120 90 3c 60
        E 0 90 48 60
        E 0 90 54 60
        E 0 90 60 60
        E 120 80 3c 00
        E 0 80 48 00
        E 0 80 54 00
        E 0 80 60 00
        E 120 80 74 00
        E 960 90 3d 60
        E 0 90 4a 60
        E 0 90 56 60
        E 0 90 62 60
        E 120 80 3d 00
        E 0 80 4a 00
        E 0 80 56 00
        E 0 80 62 00
        E 120 90 56 60
        E 0 90 62 60
        E 120 80 56 00
        E 0 80 62 00
        E 120 90 4a 60
        E 0 90 56 60
        E 0 90 62 60
        E 120 80 4a 00
        E 0 80 56 00
        E 0 80 62 00
        E 120 90 3d 60
        E 0 90 4a 60
        E 0 90 56 60
        E 0 90 62 60
        E 120 80 3d 00
        E 0 80 4a 00
        E 0 80 56 00
        E 0 80 62 00
        E 1080 90 3d 60
        E 0 90 4a 60
        E 0 90 56 60
        E 0 90 62 60
        E 120 80 3d 00
        E 0 80 4a 00
        E 0 80 56 00
        E 0 80 62 00
        E 120 90 56 60
        E 0 90 62 60
        E 120 80 56 00
        E 0 80 62 00
        E 120 90 4a 60
        E 0 90 56 60
        E 0 90 62 60
        E 120 80 4a 00
        E 0 80 56 00
        E 0 80 62 00
        E 120 90 3d 60
        E 0 90 4a 60
        E 0 90 56 60
        E 0 90 62 60
        E 120 80 3d 00
        E 0 80 4a 00
        E 0 80 56 00
        E 0 80 62 00
        E 1080 90 3c 60
        E 0 90 48 60
        E 0 90 54 60
        E 0 90 60 60
        E 120 80 3c 00
        E 0 80 48 00
        E 0 80 54 00
        E 0 80 60 00
        E 120 90 48 60
        E 0 90 54 60
        E 0 90 60 60
        E 120 80 48 00
        E 0 80 54 00
        E 0 80 60 00
        E 120 90 48 60
        E 0 90 54 60
        E 0 90 60 60
        E 120 80 48 00
        E 0 80 54 00
        E 0 80 60 00
        E 120 90 3c 60
        E 0 90 48 60
        E 0 90 54 60
        E 0 90 60 60
        E 120 80 3c 00
        E 0 80 48 00
        E 0 80 54 00
        E 0 80 60 00
        E 1080 90 3c 60
        E 0 90 48 60
        E 0 90 54 60
        E 0 90 60 60
        E 120 80 3c 00
        E 0 80 48 00
        E 0 80 54 00
        E 0 80 60 00
        E 120 90 54 60
        E 0 90 60 60
        E 0 90 48 60
        E 120 80 54 00
        E 0 80 60 00
        E 0 80 48 00
        E 120 90 48 60
        E 0 90 54 60
        E 0 90 60 60
        E 120 80 48 00
        E 0 80 54 00
        E 0 80 60 00
        E 120 90 3c 60
        E 0 90 48 60
        E 0 90 54 60
        E 0 90 60 60
        E 120 80 3c 00
        E 0 80 48 00
        E 0 80 54 00
        E 0 80 60 00
        E 1080 90 3d 60
        E 0 90 4a 60
        E 0 90 56 60
        E 0 90 62 60
        E 120 80 3d 00
        E 0 80 4a 00
        E 0 80 56 00
        E 0 80 62 00
        E 120 90 56 60
        E 0 90 62 60
        E 120 80 56 00
        E 0 80 62 00
        E 120 90 4a 60
        E 0 90 56 60
        E 0 90 62 60
        E 120 80 4a 00
        E 0 80 56 00
        E 0 80 62 00
        E 120 90 4a 60
        E 0 90 3d 60
        E 0 90 56 60
        E 0 90 62 60
        E 120 80 4a 00
        E 0 80 3d 00
        E 0 80 56 00
        E 0 80 62 00
        E 1080 90 3d 60
        E 0 90 4a 60
        E 0 90 56 60
        E 0 90 62 60
        E 120 80 3d 00
        E 0 80 4a 00
        E 0 80 56 00
        E 0 80 62 00
        E 120 90 56 60
        E 0 90 62 60
        E 120 80 56 00
        E 0 80 62 00
        E 120 90 56 60
        E 0 90 62 60
        E 0 90 4a 60
        E 120 80 56 00
        E 0 80 62 00
        E 0 80 4a 00
        E 120 90 3d 60
        E 0 90 4a 60
        E 0 90 56 60
        E 0 90 62 60
        E 120 80 3d 00
        E 0 80 4a 00
        E 0 80 56 00
        E 0 80 62 00
        E 1080 90 3c 60
        E 0 90 48 60
        E 0 90 54 60
        E 0 90 60 60
        E 120 80 3c 00
        E 0 80 48 00
        E 0 80 54 00
        E 0 80 60 00
        E 120 90 54 60
        E 0 90 60 60
        E 120 80 54 00
        E 0 80 60 00
        E 120 90 48 60
        E 0 90 54 60
        E 0 90 60 60
        E 120 80 48 00
        E 0 80 54 00
        E 0 80 60 00
        E 120 90 3c 60
        E 0 90 48 60
        E 0 90 54 60
        E 0 90 60 60
        E 120 80 3c 00
        E 0 80 48 00
        E 0 80 54 00
        E 0 80 60 00
        E 1080 90 3c 60
        E 0 90 48 60
        E 0 90 54 60
        E 0 90 60 60
        E 0 90 74 60
        E 120 80 3c 00
        E 0 80 48 00
        E 0 80 54 00
        E 0 80 60 00
        E 120 90 54 60
        E 0 90 60 60
        E 120 80 54 00
        E 0 80 60 00
        E 120 90 48 60
        E 0 90 54 60
        E 0 90 60 60
        E 120 80 48 00
        E 0 80 54 00
        E 0 80 60 00
        E 120 90 3c 60
        E 0 90 54 60
        E 0 90 60 60
        E 0 90 48 60
        E 120 80 3c 00
        E 0 80 54 00
        E 0 80 60 00
        E 0 80 48 00
        E 1080 90 3d 60
        E 0 90 4a 60
        E 0 90 56 60
        E 0 90 62 60
        E 120 80 3d 00
        E 0 80 4a 00
        E 0 80 56 00
        E 0 80 62 00
        E 120 90 56 60
        E 0 90 62 60
        E 120 80 56 00
        E 0 80 62 00
        E 120 90 4a 60
        E 0 90 56 60
        E 0 90 62 60
        E 120 80 4a 00
        E 0 80 56 00
        E 0 80 62 00
        E 120 90 3d 60
        E 0 90 4a 60
        E 0 90 56 60
        E 0 90 62 60
        E 120 80 3d 00
        E 0 80 4a 00
        E 0 80 56 00
        E 0 80 62 00
        E 120 80 74 00
        E 960 90 3d 60
        E 0 90 4a 60
        E 0 90 56 60
        E 0 90 62 60
        E 120 80 3d 00
        E 0 80 4a 00
        E 0 80 56 00
        E 0 80 62 00
        E 120 90 56 60
        E 0 90 62 60
        E 120 80 56 00
        E 0 80 62 00
        E 120 90 4a 60
        E 0 90 56 60
        E 0 90 62 60
        E 120 80 4a 00
        E 0 80 56 00
        E 0 80 62 00
        E 120 90 3d 60
        E 0 90 4a 60
        E 0 90 56 60
        E 0 90 62 60
        E 120 80 3d 00
        E 0 80 4a 00
        E 0 80 56 00
        E 0 80 62 00
        E 1080 90 3c 60
        E 0 90 48 60
        E 0 90 54 60
        E 0 90 60 60
        E 120 80 3c 00
        E 0 80 48 00
        E 0 80 54 00
        E 0 80 60 00
        E 120 90 54 60
        E 0 90 60 60
        E 120 80 54 00
        E 0 80 60 00
        E 120 90 48 60
        E 0 90 54 60
        E 0 90 60 60
        E 120 80 48 00
        E 0 80 54 00
        E 0 80 60 00
        E 120 90 54 60
        E 0 90 60 60
        E 120 80 54 00
        E 0 80 60 00
        E 120 90 3c 60
        E 0 90 48 60
        E 0 90 54 60
        E 0 90 60 60
        E 120 80 3c 00
        E 0 80 48 00
        E 0 80 54 00
        E 0 80 60 00
        E 120 90 54 60
        E 0 90 60 60
        E 120 80 54 00
        E 0 80 60 00
        E 120 90 48 60
        E 0 90 54 60
        E 0 90 60 60
        E 120 80 48 00
        E 0 80 54 00
        E 0 80 60 00
        E 120 90 60 60
        E 120 80 60 00
        E 120 90 3c 60
        E 0 90 48 60
        E 0 90 54 60
        E 0 90 60 60
        E 120 80 3c 00
        E 0 80 48 00
        E 0 80 54 00
        E 0 80 60 00
        E 120 90 54 60
        E 0 90 60 60
        E 120 80 54 00
        E 0 80 60 00
        E 120 90 48 60
        E 0 90 54 60
        E 0 90 60 60
        E 120 80 48 00
        E 0 80 54 00
        E 0 80 60 00
        E 120 90 54 60
        E 0 90 60 60
        E 120 80 54 00
        E 0 80 60 00
        E 120 90 3c 60
        E 0 90 48 60
        E 0 90 54 60
        E 0 90 60 60
        E 120 80 3c 00
        E 0 80 48 00
        E 0 80 54 00
        E 0 80 60 00
        E 120 90 54 60
        E 0 90 60 60
        E 120 80 54 00
        E 0 80 60 00
        E 120 90 54 60
        E 0 90 60 60
        E 120 80 54 00
        E 0 80 60 00
        E 120 90 60 60
        E 120 80 60 00
        E 120 90 3d 60
        E 0 90 4a 60
        E 0 90 56 60
        E 0 90 62 60
        E 120 80 3d 00
        E 0 80 4a 00
        E 0 80 56 00
        E 0 80 62 00
        E 120 90 56 60
        E 0 90 62 60
        E 120 80 56 00
        E 0 80 62 00
        E 120 90 4a 60
        E 0 90 56 60
        E 0 90 62 60
        E 120 80 4a 00
        E 0 80 56 00
        E 0 80 62 00
        E 120 90 56 60
        E 0 90 62 60
        E 120 80 56 00
        E 0 80 62 00
        E 120 90 3d 60
        E 0 90 4a 60
        E 0 90 56 60
        E 0 90 62 60
        E 120 80 3d 00
        E 0 80 4a 00
        E 0 80 56 00
        E 0 80 62 00
        E 120 90 56 60
        E 0 90 62 60
        E 120 80 56 00
        E 0 80 62 00
        E 120 90 4a 60
        E 0 90 56 60
        E 0 90 62 60
        E 120 80 4a 00
        E 0 80 56 00
        E 0 80 62 00
        E 120 90 62 60
        E 120 80 62 00
        E 120 90 3d 60
        E 0 90 4a 60
        E 0 90 56 60
        E 0 90 62 60
        E 120 80 3d 00
        E 0 80 4a 00
        E 0 80 56 00
        E 0 80 62 00
        E 120 90 56 60
        E 0 90 62 60
        E 120 80 56 00
        E 0 80 62 00
        E 120 90 4a 60
        E 0 90 56 60
        E 0 90 62 60
        E 120 80 4a 00
        E 0 80 56 00
        E 0 80 62 00
        E 120 90 56 60
        E 0 90 62 60
        E 120 80 56 00
        E 0 80 62 00
        E 120 90 4a 60
        E 0 90 3d 60
        E 0 90 56 60
        E 0 90 62 60
        E 120 80 4a 00
        E 0 80 3d 00
        E 0 80 56 00
        E 0 80 62 00
        E 120 90 56 60
        E 0 90 62 60
        E 120 80 56 00
        E 0 80 62 00
        E 120 90 56 60
        E 0 90 62 60
        E 120 80 56 00
        E 0 80 62 00
        E 120 90 62 60
        E 120 80 62 00
        E 120 90 3c 60
        E 0 90 48 60
        E 0 90 54 60
        E 0 90 60 60
        E 120 80 3c 00
        E 0 80 48 00
        E 0 80 54 00
        E 0 80 60 00
        E 120 90 54 60
        E 0 90 60 60
        E 120 80 54 00
        E 0 80 60 00
        E 120 90 48 60
        E 0 90 54 60
        E 0 90 60 60
        E 120 80 48 00
        E 0 80 54 00
        E 0 80 60 00
        E 120 90 54 60
        E 0 90 60 60
        E 120 80 54 00
        E 0 80 60 00
        E 120 90 3c 60
        E 0 90 48 60
        E 0 90 54 60
        E 0 90 60 60
        E 120 80 3c 00
        E 0 80 48 00
        E 0 80 54 00
        E 0 80 60 00
        E 120 90 54 60
        E 0 90 60 60
        E 120 80 54 00
        E 0 80 60 00
        E 120 90 48 60
        E 0 90 54 60
        E 0 90 60 60
        E 120 80 48 00
        E 0 80 54 00
        E 0 80 60 00
        E 120 90 60 60
        E 120 80 60 00
        E 120 90 3c 60
        E 0 90 48 60
        E 0 90 54 60
        E 0 90 60 60
        E 120 80 3c 00
        E 0 80 48 00
        E 0 80 54 00
        E 0 80 60 00
        E 120 90 54 60
        E 0 90 60 60
        E 120 80 54 00
        E 0 80 60 00
        E 120 90 54 60
        E 0 90 60 60
        E 0 90 48 60
        E 120 80 54 00
        E 0 80 60 00
        E 0 80 48 00
        E 120 90 54 60
        E 0 90 60 60
        E 120 80 54 00
        E 0 80 60 00
        E 120 90 3c 60
        E 0 90 48 60
        E 0 90 54 60
        E 0 90 60 60
        E 120 80 3c 00
        E 0 80 48 00
        E 0 80 54 00
        E 0 80 60 00
        E 120 90 54 60
        E 0 90 60 60
        E 120 80 54 00
        E 0 80 60 00
        E 120 90 54 60
        E 0 90 60 60
        E 120 80 54 00
        E 0 80 60 00
        E 120 90 60 60
        E 120 80 60 00
        E 120 90 3d 60
        E 0 90 4a 60
        E 0 90 56 60
        E 0 90 62 60
        E 120 80 3d 00
        E 0 80 4a 00
        E 0 80 56 00
        E 0 80 62 00
        E 120 90 56 60
        E 0 90 62 60
        E 120 80 56 00
        E 0 80 62 00
        E 120 90 4a 60
        E 0 90 56 60
        E 0 90 62 60
        E 120 80 4a 00
        E 0 80 56 00
        E 0 80 62 00
        E 120 90 56 60
        E 0 90 62 60
        E 120 80 56 00
        E 0 80 62 00
        E 120 90 3d 60
        E 0 90 4a 60
        E 0 90 56 60
        E 0 90 62 60
        E 120 80 3d 00
        E 0 80 4a 00
        E 0 80 56 00
        E 0 80 62 00
        E 120 90 56 60
        E 0 90 62 60
        E 120 80 56 00
        E 0 80 62 00
        E 120 90 4a 60
        E 0 90 56 60
        E 0 90 62 60
        E 120 80 4a 00
        E 0 80 56 00
        E 0 80 62 00
        E 120 90 62 60
        E 120 80 62 00
        E 120 90 3d 60
        E 0 90 4a 60
        E 0 90 56 60
        E 0 90 62 60
        E 120 80 3d 00
        E 0 80 4a 00
        E 0 80 56 00
        E 0 80 62 00
        E 120 90 56 60
        E 0 90 62 60
        E 120 80 56 00
        E 0 80 62 00
        E 120 90 4a 60
        E 0 90 56 60
        E 0 90 62 60
        E 120 80 4a 00
        E 0 80 56 00
        E 0 80 62 00
        E 120 90 56 60
        E 0 90 62 60
        E 120 80 56 00
        E 0 80 62 00
        E 120 90 3d 60
        E 0 90 4a 60
        E 0 90 56 60
        E 0 90 62 60
        E 120 80 3d 00
        E 0 80 4a 00
        E 0 80 56 00
        E 0 80 62 00
        E 120 90 56 60
        E 0 90 62 60
        E 120 80 56 00
        E 0 80 62 00
        E 120 90 56 60
        E 0 90 62 60
        E 120 80 56 00
        E 0 80 62 00
        E 120 90 62 60
        E 120 80 62 00
        E 120 90 3c 60
        E 0 90 48 60
        E 0 90 54 60
        E 0 90 60 60
        E 120 80 3c 00
        E 0 80 48 00
        E 0 80 54 00
        E 0 80 60 00
        E 120 90 54 60
        E 0 90 60 60
        E 120 80 54 00
        E 0 80 60 00
        E 120 90 48 60
        E 0 90 54 60
        E 0 90 60 60
        E 120 80 48 00
        E 0 80 54 00
        E 0 80 60 00
        E 120 90 54 60
        E 0 90 60 60
        E 120 80 54 00
        E 0 80 60 00
        E 120 90 3c 60
        E 0 90 48 60
        E 0 90 54 60
        E 0 90 60 60
        E 0 90 74 60
        E 120 80 3c 00
        E 0 80 48 00
        E 0 80 54 00
        E 0 80 60 00
        E 120 90 54 60
        E 0 90 60 60
        E 120 80 54 00
        E 0 80 60 00
        E 120 90 48 60
        E 0 90 54 60
        E 0 90 60 60
        E 120 80 48 00
        E 0 80 54 00
        E 0 80 60 00
        E 120 90 60 60
        E 120 80 60 00
        E 120 90 3c 60
        E 0 90 48 60
        E 0 90 54 60
        E 0 90 60 60
        E 120 80 3c 00
        E 0 80 48 00
        E 0 80 54 00
        E 0 80 60 00
        E 120 90 54 60
        E 0 90 60 60
        E 120 80 54 00
        E 0 80 60 00
        E 120 90 48 60
        E 0 90 54 60
        E 0 90 60 60
        E 120 80 48 00
        E 0 80 54 00
        E 0 80 60 00
        E 120 90 54 60
        E 0 90 60 60
        E 120 80 54 00
        E 0 80 60 00
        E 120 90 3c 60
        E 0 90 54 60
        E 0 90 60 60
        E 0 90 48 60
        E 120 80 3c 00
        E 0 80 54 00
        E 0 80 60 00
        E 0 80 48 00
        E 120 90 54 60
        E 0 90 60 60
        E 120 80 54 00
        E 0 80 60 00
        E 120 90 54 60
        E 0 90 60 60
        E 120 80 54 00
        E 0 80 60 00
        E 120 90 60 60
        E 120 80 60 00
        E 120 80 74 00
        E 0 90 3d 60
        E 0 90 4a 60
        E 0 90 56 60
        E 0 90 62 60
        E 120 80 3d 00
        E 0 80 4a 00
        E 0 80 56 00
        E 0 80 62 00
        E 120 90 56 60
        E 0 90 62 60
        E 120 80 56 00
        E 0 80 62 00
        E 120 90 4a 60
        E 0 90 56 60
        E 0 90 62 60
        E 120 80 4a 00
        E 0 80 56 00
        E 0 80 62 00
        E 120 90 56 60
        E 0 90 62 60
        E 120 80 56 00
        E 0 80 62 00
        E 120 90 3d 60
        E 0 90 4a 60
        E 0 90 56 60
        E 0 90 62 60
        E 120 80 3d 00
        E 0 80 4a 00
        E 0 80 56 00
        E 0 80 62 00
        E 120 90 56 60
        E 0 90 62 60
        E 120 80 56 00
        E 0 80 62 00
        E 120 90 4a 60
        E 0 90 56 60
        E 0 90 62 60
        E 120 80 4a 00
        E 0 80 56 00
        E 0 80 62 00
        E 120 90 62 60
        E 120 80 62 00
        E 120 90 3d 60
        E 0 90 4a 60
        E 0 90 56 60
        E 0 90 62 60
        E 120 80 3d 00
        E 0 80 4a 00
        E 0 80 56 00
        E 0 80 62 00
        E 120 90 56 60
        E 0 90 62 60
        E 120 80 56 00
        E 0 80 62 00
        E 120 90 4a 60
        E 0 90 56 60
        E 0 90 62 60
        E 120 80 4a 00
        E 0 80 56 00
        E 0 80 62 00
        E 120 90 56 60
        E 0 90 62 60
        E 120 80 56 00
        E 0 80 62 00
        E 120 90 3d 60
        E 0 90 4a 60
        E 0 90 56 60
        E 0 90 62 60
        E 120 80 3d 00
        E 0 80 4a 00
        E 0 80 56 00
        E 0 80 62 00
        E 120 90 56 60
        E 0 90 62 60
        E 120 80 56 00
        E 0 80 62 00
        E 120 90 56 60
        E 0 90 62 60
        E 120 80 56 00
        E 0 80 62 00
        E 120 90 62 60
        E 120 80 62 00
        E 120 90 48 60
        E 0 90 3c 60
        E 0 90 54 60
        E 0 90 60 60
        E 120 80 48 00
        E 0 80 3c 00
        E 0 80 54 00
        E 0 80 60 00
        E 120 90 54 60
        E 0 90 60 60
        E 120 80 54 00
        E 0 80 60 00
        E 120 90 48 60
        E 0 90 54 60
        E 0 90 60 60
        E 120 80 48 00
        E 0 80 54 00
        E 0 80 60 00
        E 120 90 54 60
        E 0 90 60 60
        E 120 80 54 00
        E 0 80 60 00
        E 120 90 3c 60
        E 0 90 48 60
        E 0 90 54 60
        E 0 90 60 60
        E 120 80 3c 00
        E 0 80 48 00
        E 0 80 54 00
        E 0 80 60 00
        E 120 90 54 60
        E 0 90 60 60
        E 120 80 54 00
        E 0 80 60 00
        E 120 90 48 60
        E 0 90 54 60
        E 0 90 60 60
        E 120 80 48 00
        E 0 80 54 00
        E 0 80 60 00
        E 120 90 60 60
        E 120 80 60 00
        E 120 90 3c 60
        E 0 90 48 60
        E 0 90 54 60
        E 0 90 60 60
        E 120 80 3c 00
        E 0 80 48 00
        E 0 80 54 00
        E 0 80 60 00
        E 120 90 54 60
        E 0 90 60 60
        E 120 80 54 00
        E 0 80 60 00
        E 120 90 48 60
        E 0 90 54 60
        E 0 90 60 60
        E 120 80 48 00
        E 0 80 54 00
        E 0 80 60 00
        E 120 90 54 60
        E 0 90 60 60
        E 120 80 54 00
        E 0 80 60 00
        E 120 90 3c 60
        E 0 90 48 60
        E 0 90 54 60
        E 0 90 60 60
        E 120 80 3c 00
        E 0 80 48 00
        E 0 80 54 00
        E 0 80 60 00
        E 120 90 54 60
        E 0 90 60 60
        E 120 80 54 00
        E 0 80 60 00
        E 120 90 54 60
        E 0 90 60 60
        E 120 80 54 00
        E 0 80 60 00
        E 120 90 60 60
        E 120 80 60 00
        E 120 90 3d 60
        E 0 90 4a 60
        E 0 90 56 60
        E 0 90 62 60
        E 120 80 3d 00
        E 0 80 4a 00
        E 0 80 56 00
        E 0 80 62 00
        E 120 90 56 60
        E 0 90 62 60
        E 120 80 56 00
        E 0 80 62 00
        E 120 90 4a 60
        E 0 90 56 60
        E 0 90 62 60
        E 120 80 4a 00
        E 0 80 56 00
        E 0 80 62 00
        E 120 90 56 60
        E 0 90 62 60
        E 120 80 56 00
        E 0 80 62 00
        E 120 90 3d 60
        E 0 90 4a 60
        E 0 90 56 60
        E 0 90 62 60
        E 120 80 3d 00
        E 0 80 4a 00
        E 0 80 56 00
        E 0 80 62 00
        E 120 90 56 60
        E 0 90 62 60
        E 120 80 56 00
        E 0 80 62 00
        E 120 90 4a 60
        E 0 90 56 60
        E 0 90 62 60
        E 120 80 4a 00
        E 0 80 56 00
        E 0 80 62 00
        E 120 90 62 60
        E 120 80 62 00
        E 120 90 3d 60
        E 0 90 4a 60
        E 0 90 56 60
        E 0 90 62 60
        E 120 80 3d 00
        E 0 80 4a 00
        E 0 80 56 00
        E 0 80 62 00
        E 120 90 56 60
        E 0 90 62 60
        E 120 80 56 00
        E 0 80 62 00
        E 120 90 4a 60
        E 0 90 56 60
        E 0 90 62 60
        E 120 80 4a 00
        E 0 80 56 00
        E 0 80 62 00
        E 120 90 56 60
        E 0 90 62 60
        E 120 80 56 00
        E 0 80 62 00
        E 120 90 3d 60
        E 0 90 4a 60
        E 0 90 56 60
        E 0 90 62 60
        E 120 80 3d 00
        E 0 80 4a 00
        E 0 80 56 00
        E 0 80 62 00
        E 120 90 56 60
        E 0 90 62 60
        E 120 80 56 00
        E 0 80 62 00
        E 120 90 56 60
        E 0 90 62 60
        E 120 80 56 00
        E 0 80 62 00
        E 120 90 62 60
        E 120 80 62 00
        <X 120 0
          /wFbaW50ZW5zZV0=
        >
        E 0 90 3c 60
        E 0 90 48 60
        E 0 90 54 60
        E 0 90 60 60
        E 120 80 3c 00
        E 0 80 48 00
        E 0 80 54 00
        E 0 80 60 00
        E 120 90 54 60
        E 0 90 60 60
        E 120 80 54 00
        E 0 80 60 00
        E 120 90 48 60
        E 0 90 54 60
        E 0 90 60 60
        E 120 80 48 00
        E 0 80 54 00
        E 0 80 60 00
        E 120 90 54 60
        E 0 90 60 60
        E 120 80 54 00
        E 0 80 60 00
        E 120 90 3c 60
        E 0 90 48 60
        E 0 90 54 60
        E 0 90 60 60
        E 120 80 3c 00
        E 0 80 48 00
        E 0 80 54 00
        E 0 80 60 00
        E 120 90 54 60
        E 0 90 60 60
        E 120 80 54 00
        E 0 80 60 00
        E 120 90 48 60
        E 0 90 54 60
        E 0 90 60 60
        E 120 80 48 00
        E 0 80 54 00
        E 0 80 60 00
        E 120 90 60 60
        E 120 80 60 00
        E 120 90 3c 60
        E 0 90 48 60
        E 0 90 54 60
        E 0 90 60 60
        E 120 80 3c 00
        E 0 80 48 00
        E 0 80 54 00
        E 0 80 60 00
        E 120 90 54 60
        E 0 90 60 60
        E 120 80 54 00
        E 0 80 60 00
        E 120 90 48 60
        E 0 90 54 60
        E 0 90 60 60
        E 120 80 48 00
        E 0 80 54 00
        E 0 80 60 00
        E 120 90 54 60
        E 0 90 60 60
        E 120 80 54 00
        E 0 80 60 00
        E 120 90 3c 60
        E 0 90 48 60
        E 0 90 54 60
        E 0 90 60 60
        E 120 80 3c 00
        E 0 80 48 00
        E 0 80 54 00
        E 0 80 60 00
        E 120 90 54 60
        E 0 90 60 60
        E 120 80 54 00
        E 0 80 60 00
        E 120 90 54 60
        E 0 90 60 60
        E 120 80 54 00
        E 0 80 60 00
        E 120 90 60 60
        E 120 80 60 00
        E 120 90 3d 60
        E 0 90 4a 60
        E 0 90 56 60
        E 0 90 62 60
        E 120 80 3d 00
        E 0 80 4a 00
        E 0 80 56 00
        E 0 80 62 00
        E 120 90 56 60
        E 0 90 62 60
        E 120 80 56 00
        E 0 80 62 00
        E 120 90 4a 60
        E 0 90 56 60
        E 0 90 62 60
        E 120 80 4a 00
        E 0 80 56 00
        E 0 80 62 00
        E 120 90 56 60
        E 0 90 62 60
        E 120 80 56 00
        E 0 80 62 00
        E 120 90 3d 60
        E 0 90 4a 60
        E 0 90 56 60
        E 0 90 62 60
        E 120 80 3d 00
        E 0 80 4a 00
        E 0 80 56 00
        E 0 80 62 00
        E 120 90 56 60
        E 0 90 62 60
        E 120 80 56 00
        E 0 80 62 00
        E 120 90 4a 60
        E 0 90 56 60
        E 0 90 62 60
        E 120 80 4a 00
        E 0 80 56 00
        E 0 80 62 00
        E 120 90 62 60
        E 120 80 62 00
        E 120 90 3d 60
        E 0 90 4a 60
        E 0 90 56 60
        E 0 90 62 60
        E 120 80 3d 00
        E 0 80 4a 00
        E 0 80 56 00
        E 0 80 62 00
        E 120 90 56 60
        E 0 90 62 60
        E 120 80 56 00
        E 0 80 62 00
        E 120 90 4a 60
        E 0 90 56 60
        E 0 90 62 60
        E 120 80 4a 00
        E 0 80 56 00
        E 0 80 62 00
        E 120 90 56 60
        E 0 90 62 60
        E 120 80 56 00
        E 0 80 62 00
        E 120 90 3d 60
        E 0 90 4a 60
        E 0 90 56 60
        E 0 90 62 60
        E 120 80 3d 00
        E 0 80 4a 00
        E 0 80 56 00
        E 0 80 62 00
        E 120 90 56 60
        E 0 90 62 60
        E 120 80 56 00
        E 0 80 62 00
        E 120 90 56 60
        E 0 90 62 60
        E 120 80 56 00
        E 0 80 62 00
        E 120 90 62 60
        E 120 80 62 00
        E 120 90 3c 60
        E 0 90 48 60
        E 0 90 54 60
        E 0 90 60 60
        E 120 80 3c 00
        E 0 80 48 00
        E 0 80 54 00
        E 0 80 60 00
        E 120 90 54 60
        E 0 90 60 60
        E 120 80 54 00
        E 0 80 60 00
        E 120 90 48 60
        E 0 90 54 60
        E 0 90 60 60
        E 120 80 48 00
        E 0 80 54 00
        E 0 80 60 00
        E 120 90 54 60
        E 0 90 60 60
        E 120 80 54 00
        E 0 80 60 00
        E 120 90 3c 60
        E 0 90 48 60
        E 0 90 54 60
        E 0 90 60 60
        E 120 80 3c 00
        E 0 80 48 00
        E 0 80 54 00
        E 0 80 60 00
        E 120 90 54 60
        E 0 90 60 60
        E 120 80 54 00
        E 0 80 60 00
        E 120 90 48 60
        E 0 90 54 60
        E 0 90 60 60
        E 120 80 48 00
        E 0 80 54 00
        E 0 80 60 00
        E 120 90 60 60
        E 120 80 60 00
        E 120 90 3c 60
        E 0 90 48 60
        E 0 90 54 60
        E 0 90 60 60
        E 120 80 3c 00
        E 0 80 48 00
        E 0 80 54 00
        E 0 80 60 00
        E 120 90 54 60
        E 0 90 60 60
        E 120 80 54 00
        E 0 80 60 00
        E 120 90 48 60
        E 0 90 54 60
        E 0 90 60 60
        E 120 80 48 00
        E 0 80 54 00
        E 0 80 60 00
        E 120 90 54 60
        E 0 90 60 60
        E 120 80 54 00
        E 0 80 60 00
        E 120 90 3c 60
        E 0 90 48 60
        E 0 90 54 60
        E 0 90 60 60
        E 120 80 3c 00
        E 0 80 48 00
        E 0 80 54 00
        E 0 80 60 00
        E 120 90 54 60
        E 0 90 60 60
        E 120 80 54 00
        E 0 80 60 00
        E 120 90 54 60
        E 0 90 60 60
        E 120 80 54 00
        E 0 80 60 00
        E 120 90 60 60
        E 120 80 60 00
        E 120 90 3d 60
        E 0 90 4a 60
        E 0 90 56 60
        E 0 90 62 60
        E 0 90 74 60
        E 120 80 3d 00
        E 0 80 4a 00
        E 0 80 56 00
        E 0 80 62 00
        E 120 90 56 60
        E 0 90 62 60
        E 120 80 56 00
        E 0 80 62 00
        E 120 90 4a 60
        E 0 90 56 60
        E 0 90 62 60
        E 120 80 4a 00
        E 0 80 56 00
        E 0 80 62 00
        E 120 90 56 60
        E 0 90 62 60
        E 120 80 56 00
        E 0 80 62 00
        E 120 90 3d 60
        E 0 90 4a 60
        E 0 90 56 60
        E 0 90 62 60
        E 120 80 3d 00
        E 0 80 4a 00
        E 0 80 56 00
        E 0 80 62 00
        E 120 90 56 60
        E 0 90 62 60
        E 120 80 56 00
        E 0 80 62 00
        E 120 90 56 60
        E 0 90 62 60
        E 0 90 4a 60
        E 120 80 56 00
        E 0 80 62 00
        E 0 80 4a 00
        E 120 90 62 60
        E 120 80 62 00
        E 120 90 3d 60
        E 0 90 4a 60
        E 0 90 56 60
        E 0 90 62 60
        E 120 80 3d 00
        E 0 80 4a 00
        E 0 80 56 00
        E 0 80 62 00
        E 120 90 56 60
        E 0 90 62 60
        E 120 80 56 00
        E 0 80 62 00
        E 120 90 4a 60
        E 0 90 56 60
        E 0 90 62 60
        E 120 80 4a 00
        E 0 80 56 00
        E 0 80 62 00
        E 120 90 56 60
        E 0 90 62 60
        E 120 80 56 00
        E 0 80 62 00
        E 120 90 3d 60
        E 0 90 4a 60
        E 0 90 56 60
        E 0 90 62 60
        E 120 80 3d 00
        E 0 80 4a 00
        E 0 80 56 00
        E 0 80 62 00
        E 120 90 56 60
        E 0 90 62 60
        E 120 80 56 00
        E 0 80 62 00
        E 120 90 56 60
        E 0 90 62 60
        E 120 80 56 00
        E 0 80 62 00
        E 120 90 62 60
        E 120 80 31 00
        E 0 80 62 00
        E 120 80 74 00
        E 0 90 34 60
        E 0 90 3e 60
        E 0 90 4b 60
        E 0 90 57 60
        E 0 90 63 60
        E 120 80 3e 00
        E 0 80 4b 00
        E 0 80 57 00
        E 0 80 63 00
        E 120 90 57 60
        E 0 90 63 60
        E 120 80 57 00
        E 0 80 63 00
        E 120 90 4b 60
        E 0 90 57 60
        E 0 90 63 60
        E 120 80 4b 00
        E 0 80 57 00
        E 0 80 63 00
        E 120 90 57 60
        E 0 90 63 60
        E 120 80 57 00
        E 0 80 63 00
        E 120 90 3e 60
        E 0 90 4b 60
        E 0 90 57 60
        E 0 90 63 60
        E 120 80 3e 00
        E 0 80 4b 00
        E 0 80 57 00
        E 0 80 63 00
        E 120 90 57 60
        E 0 90 63 60
        E 120 80 57 00
        E 0 80 63 00
        E 120 90 4b 60
        E 0 90 57 60
        E 0 90 63 60
        E 120 80 4b 00
        E 0 80 57 00
        E 0 80 63 00
        E 120 90 63 60
        E 120 80 63 00
        E 120 90 3e 60
        E 0 90 4b 60
        E 0 90 57 60
        E 0 90 63 60
        E 120 80 3e 00
        E 0 80 4b 00
        E 0 80 57 00
        E 0 80 63 00
        E 120 90 57 60
        E 0 90 63 60
        E 120 80 57 00
        E 0 80 63 00
        E 120 90 4b 60
        E 0 90 57 60
        E 0 90 63 60
        E 120 80 4b 00
        E 0 80 57 00
        E 0 80 63 00
        E 120 90 57 60
        E 0 90 63 60
        E 120 80 57 00
        E 0 80 63 00
        E 120 90 3e 60
        E 0 90 4b 60
        E 0 90 57 60
        E 0 90 63 60
        E 120 80 3e 00
        E 0 80 4b 00
        E 0 80 57 00
        E 0 80 63 00
        E 120 90 57 60
        E 0 90 63 60
        E 120 80 57 00
        E 0 80 63 00
        E 120 90 57 60
        E 0 90 63 60
        E 120 80 57 00
        E 0 80 63 00
        E 120 90 63 60
        E 120 80 34 00
        E 0 80 63 00
        E 120 90 4a 60
        E 0 90 31 60
        E 0 90 3d 60
        E 0 90 56 60
        E 0 90 62 60
        E 120 80 4a 00
        E 0 80 3d 00
        E 0 80 56 00
        E 0 80 62 00
        E 120 90 56 60
        E 0 90 62 60
        E 120 80 56 00
        E 0 80 62 00
        E 120 90 4a 60
        E 0 90 56 60
        E 0 90 62 60
        E 120 80 4a 00
        E 0 80 56 00
        E 0 80 62 00
        E 120 90 56 60
        E 0 90 62 60
        E 120 80 56 00
        E 0 80 62 00
        E 120 90 3d 60
        E 0 90 4a 60
        E 0 90 56 60
        E 0 90 62 60
        E 120 80 3d 00
        E 0 80 4a 00
        E 0 80 56 00
        E 0 80 62 00
        E 120 90 56 60
        E 0 90 62 60
        E 120 80 56 00
        E 0 80 62 00
        E 120 90 4a 60
        E 0 90 56 60
        E 0 90 62 60
        E 120 80 4a 00
        E 0 80 56 00
        E 0 80 62 00
        E 120 90 62 60
        E 120 80 62 00
        E 120 90 3d 60
        E 0 90 4a 60
        E 0 90 56 60
        E 0 90 62 60
        E 120 80 3d 00
        E 0 80 4a 00
        E 0 80 56 00
        E 0 80 62 00
        E 120 90 56 60
        E 0 90 62 60
        E 120 80 56 00
        E 0 80 62 00
        E 120 90 4a 60
        E 0 90 56 60
        E 0 90 62 60
        E 120 80 4a 00
        E 0 80 56 00
        E 0 80 62 00
        E 120 90 56 60
        E 0 90 62 60
        E 120 80 56 00
        E 0 80 62 00
        E 120 90 3d 60
        E 0 90 4a 60
        E 0 90 56 60
        E 0 90 62 60
        E 120 80 3d 00
        E 0 80 4a 00
        E 0 80 56 00
        E 0 80 62 00
        E 120 90 56 60
        E 0 90 62 60
        E 120 80 56 00
        E 0 80 62 00
        E 120 90 56 60
        E 0 90 62 60
        E 120 80 56 00
        E 0 80 62 00
        E 120 90 62 60
        E 120 80 31 00
        E 0 80 62 00
        E 120 90 34 60
        E 0 90 3e 60
        E 0 90 4b 60
        E 0 90 57 60
        E 0 90 63 60
        E 120 80 3e 00
        E 0 80 4b 00
        E 0 80 57 00
        E 0 80 63 00
        E 120 90 57 60
        E 0 90 63 60
        E 120 80 57 00
        E 0 80 63 00
        E 120 90 4b 60
        E 0 90 57 60
        E 0 90 63 60
        E 120 80 4b 00
        E 0 80 57 00
        E 0 80 63 00
        E 120 90 57 60
        E 0 90 63 60
        E 120 80 57 00
        E 0 80 63 00
        E 120 90 3e 60
        E 0 90 4b 60
        E 0 90 57 60
        E 0 90 63 60
        E 120 80 3e 00
        E 0 80 4b 00
        E 0 80 57 00
        E 0 80 63 00
        E 120 90 57 60
        E 0 90 63 60
        E 120 80 57 00
        E 0 80 63 00
        E 120 90 4b 60
        E 0 90 57 60
        E 0 90 63 60
        E 120 80 4b 00
        E 0 80 57 00
        E 0 80 63 00
        E 120 90 63 60
        E 120 80 63 00
        E 120 90 3e 60
        E 0 90 4b 60
        E 0 90 57 60
        E 0 90 63 60
        E 120 80 3e 00
        E 0 80 4b 00
        E 0 80 57 00
        E 0 80 63 00
        E 120 90 57 60
        E 0 90 63 60
        E 120 80 57 00
        E 0 80 63 00
        E 120 90 4b 60
        E 0 90 57 60
        E 0 90 63 60
        E 120 80 4b 00
        E 0 80 57 00
        E 0 80 63 00
        E 120 90 57 60
        E 0 90 63 60
        E 120 80 57 00
        E 0 80 63 00
        E 120 90 3e 60
        E 0 90 57 60
        E 0 90 63 60
        E 0 90 4b 60
        E 120 80 3e 00
        E 0 80 57 00
        E 0 80 63 00
        E 0 80 4b 00
        E 120 90 57 60
        E 0 90 63 60
        E 120 80 57 00
        E 0 80 63 00
        E 120 90 57 60
        E 0 90 63 60
        E 120 80 57 00
        E 0 80 63 00
        E 120 90 63 60
        E 120 80 34 00
        E 0 80 63 00
        E 120 90 31 60
        E 0 90 3d 60
        E 0 90 4a 60
        E 0 90 56 60
        E 0 90 62 60
        E 120 80 3d 00
        E 0 80 4a 00
        E 0 80 56 00
        E 0 80 62 00
        E 120 90 56 60
        E 0 90 62 60
        E 120 80 56 00
        E 0 80 62 00
        E 120 90 4a 60
        E 0 90 56 60
        E 0 90 62 60
        E 0 90 74 60
        E 120 80 4a 00
        E 0 80 56 00
        E 0 80 62 00
        E 120 90 56 60
        E 0 90 62 60
        E 120 80 56 00
        E 0 80 62 00
        E 120 90 3d 60
        E 0 90 4a 60
        E 0 90 56 60
        E 0 90 62 60
        E 120 80 3d 00
        E 0 80 4a 00
        E 0 80 56 00
        E 0 80 62 00
        E 120 90 56 60
        E 0 90 62 60
        E 120 80 56 00
        E 0 80 62 00
        E 120 90 4a 60
        E 0 90 56 60
        E 0 90 62 60
        E 120 80 4a 00
        E 0 80 56 00
        E 0 80 62 00
        E 120 90 62 60
        E 120 80 62 00
        E 120 90 3d 60
        E 0 90 4a 60
        E 0 90 56 60
        E 0 90 62 60
        E 120 80 3d 00
        E 0 80 4a 00
        E 0 80 56 00
        E 0 80 62 00
        E 120 90 56 60
        E 0 90 62 60
        E 120 80 56 00
        E 0 80 62 00
        E 120 90 56 60
        E 0 90 62 60
        E 0 90 4a 60
        E 120 80 56 00
        E 0 80 62 00
        E 0 80 4a 00
        E 120 90 56 60
        E 0 90 62 60
        E 120 80 56 00
        E 0 80 62 00
        E 120 80 74 00
        E 0 90 3d 60
        E 0 90 4a 60
        E 0 90 56 60
        E 0 90 62 60
        E 120 80 3d 00
        E 0 80 4a 00
        E 0 80 56 00
        E 0 80 62 00
        E 120 90 56 60
        E 0 90 62 60
        E 120 80 56 00
        E 0 80 62 00
        E 120 90 56 60
        E 0 90 62 60
        E 120 80 56 00
        E 0 80 62 00
        E 120 90 62 60
        E 120 80 31 00
        E 0 80 62 00
        E 120 90 34 60
        E 0 90 3e 60
        E 0 90 4b 60
        E 0 90 57 60
        E 0 90 63 60
        E 120 80 3e 00
        E 0 80 4b 00
        E 0 80 57 00
        E 0 80 63 00
        E 120 90 57 60
        E 0 90 63 60
        E 120 80 57 00
        E 0 80 63 00
        E 120 90 4b 60
        E 0 90 57 60
        E 0 90 63 60
        E 120 80 4b 00
        E 0 80 57 00
        E 0 80 63 00
        E 120 90 57 60
        E 0 90 63 60
        E 120 80 57 00
        E 0 80 63 00
        E 120 90 3e 60
        E 0 90 4b 60
        E 0 90 57 60
        E 0 90 63 60
        E 120 80 3e 00
        E 0 80 4b 00
        E 0 80 57 00
        E 0 80 63 00
        E 120 90 57 60
        E 0 90 63 60
        E 120 80 57 00
        E 0 80 63 00
        E 120 90 4b 60
        E 0 90 57 60
        E 0 90 63 60
        E 120 80 4b 00
        E 0 80 57 00
        E 0 80 63 00
        E 120 90 63 60
        E 120 80 63 00
        E 120 90 3e 60
        E 0 90 4b 60
        E 0 90 57 60
        E 0 90 63 60
        E 120 80 3e 00
        E 0 80 4b 00
        E 0 80 57 00
        E 0 80 63 00
        E 120 90 57 60
        E 0 90 63 60
        E 120 80 57 00
        E 0 80 63 00
        E 120 90 4b 60
        E 0 90 57 60
        E 0 90 63 60
        E 120 80 4b 00
        E 0 80 57 00
        E 0 80 63 00
        E 120 90 57 60
        E 0 90 63 60
        E 120 80 57 00
        E 0 80 63 00
        E 120 90 3e 60
        E 0 90 4b 60
        E 0 90 57 60
        E 0 90 63 60
        E 120 80 3e 00
        E 0 80 4b 00
        E 0 80 57 00
        E 0 80 63 00
        E 120 90 57 60
        E 0 90 63 60
        E 120 80 57 00
        E 0 80 63 00
        E 120 90 57 60
        E 0 90 63 60
        E 120 80 57 00
        E 0 80 63 00
        E 120 90 63 60
        E 120 80 34 00
        E 0 80 63 00
        E 120 90 31 60
        E 0 90 3d 60
        E 0 90 4a 60
        E 0 90 56 60
        E 0 90 62 60
        E 120 80 3d 00
        E 0 80 4a 00
        E 0 80 56 00
        E 0 80 62 00
        E 120 90 56 60
        E 0 90 62 60
        E 120 80 56 00
        E 0 80 62 00
        E 120 90 4a 60
        E 0 90 56 60
        E 0 90 62 60
        E 120 80 4a 00
        E 0 80 56 00
        E 0 80 62 00
        E 120 90 56 60
        E 0 90 62 60
        E 120 80 56 00
        E 0 80 62 00
        E 120 90 4a 60
        E 0 90 3d 60
        E 0 90 56 60
        E 0 90 62 60
        E 120 80 4a 00
        E 0 80 3d 00
        E 0 80 56 00
        E 0 80 62 00
        E 120 90 56 60
        E 0 90 62 60
        E 120 80 56 00
        E 0 80 62 00
        E 120 90 4a 60
        E 0 90 56 60
        E 0 90 62 60
        E 120 80 4a 00
        E 0 80 56 00
        E 0 80 62 00
        E 120 90 62 60
        E 120 80 62 00
        E 120 90 3d 60
        E 0 90 4a 60
        E 0 90 56 60
        E 0 90 62 60
        E 120 80 3d 00
        E 0 80 4a 00
        E 0 80 56 00
        E 0 80 62 00
        E 120 90 56 60
        E 0 90 62 60
        E 120 80 56 00
        E 0 80 62 00
        E 120 90 4a 60
        E 0 90 56 60
        E 0 90 62 60
        E 120 80 4a 00
        E 0 80 56 00
        E 0 80 62 00
        E 120 90 56 60
        E 0 90 62 60
        E 120 80 56 00
        E 0 80 62 00
        E 120 90 3d 60
        E 0 90 4a 60
        E 0 90 56 60
        E 0 90 62 60
        E 120 80 3d 00
        E 0 80 4a 00
        E 0 80 56 00
        E 0 80 62 00
        E 120 90 56 60
        E 0 90 62 60
        E 120 80 56 00
        E 0 80 62 00
        E 120 90 56 60
        E 0 90 62 60
        E 120 80 56 00
        E 0 80 62 00
        E 120 90 62 60
        E 120 80 31 00
        E 0 80 62 00
        E 120 90 34 60
        E 0 90 3e 60
        E 0 90 4b 60
        E 0 90 57 60
        E 0 90 63 60
        E 120 80 3e 00
        E 0 80 4b 00
        E 0 80 57 00
        E 0 80 63 00
        E 120 90 57 60
        E 0 90 63 60
        E 120 80 57 00
        E 0 80 63 00
        E 120 90 4b 60
        E 0 90 57 60
        E 0 90 63 60
        E 120 80 4b 00
        E 0 80 57 00
        E 0 80 63 00
        E 120 90 57 60
        E 0 90 63 60
        E 120 80 57 00
        E 0 80 63 00
        E 120 90 3e 60
        E 0 90 4b 60
        E 0 90 57 60
        E 0 90 63 60
        E 120 80 3e 00
        E 0 80 4b 00
        E 0 80 57 00
        E 0 80 63 00
        E 120 90 57 60
        E 0 90 63 60
        E 120 80 57 00
        E 0 80 63 00
        E 120 90 4b 60
        E 0 90 57 60
        E 0 90 63 60
        E 120 80 4b 00
        E 0 80 57 00
        E 0 80 63 00
        E 120 90 63 60
        E 120 80 63 00
        E 120 90 3e 60
        E 0 90 4b 60
        E 0 90 57 60
        E 0 90 63 60
        E 120 80 3e 00
        E 0 80 4b 00
        E 0 80 57 00
        E 0 80 63 00
        E 120 90 57 60
        E 0 90 63 60
        E 120 80 57 00
        E 0 80 63 00
        E 120 90 4b 60
        E 0 90 57 60
        E 0 90 63 60
        E 120 80 4b 00
        E 0 80 57 00
        E 0 80 63 00
        E 120 90 57 60
        E 0 90 63 60
        E 120 80 57 00
        E 0 80 63 00
        E 120 90 3e 60
        E 0 90 4b 60
        E 0 90 57 60
        E 0 90 63 60
        E 120 80 3e 00
        E 0 80 4b 00
        E 0 80 57 00
        E 0 80 63 00
        E 120 90 57 60
        E 0 90 63 60
        E 120 80 57 00
        E 0 80 63 00
        E 120 90 57 60
        E 0 90 63 60
        E 120 80 57 00
        E 0 80 63 00
        E 120 90 63 60
        E 120 80 34 00
        E 0 80 63 00
        E 120 90 31 60
        E 0 90 3d 60
        E 0 90 56 60
        E 0 90 62 60
        E 0 90 4a 60
        E 120 80 3d 00
        E 0 80 56 00
        E 0 80 62 00
        E 0 80 4a 00
        E 120 90 56 60
        E 0 90 62 60
        E 120 80 56 00
        E 0 80 62 00
        E 120 90 4a 60
        E 0 90 56 60
        E 0 90 62 60
        E 120 80 4a 00
        E 0 80 56 00
        E 0 80 62 00
        E 120 90 56 60
        E 0 90 62 60
        E 120 80 56 00
        E 0 80 62 00
        E 120 90 3d 60
        E 0 90 4a 60
        E 0 90 56 60
        E 0 90 62 60
        E 120 80 3d 00
        E 0 80 4a 00
        E 0 80 56 00
        E 0 80 62 00
        E 120 90 56 60
        E 0 90 62 60
        E 120 80 56 00
        E 0 80 62 00
        E 120 90 4a 60
        E 0 90 56 60
        E 0 90 62 60
        E 120 80 4a 00
        E 0 80 56 00
        E 0 80 62 00
        E 120 90 62 60
        E 120 80 62 00
        E 120 90 3d 60
        E 0 90 4a 60
        E 0 90 56 60
        E 0 90 62 60
        E 120 80 3d 00
        E 0 80 4a 00
        E 0 80 56 00
        E 0 80 62 00
        E 120 90 56 60
        E 0 90 62 60
        E 120 80 56 00
        E 0 80 62 00
        E 120 90 4a 60
        E 0 90 56 60
        E 0 90 62 60
        E 120 80 4a 00
        E 0 80 56 00
        E 0 80 62 00
        E 120 90 56 60
        E 0 90 62 60
        E 120 80 56 00
        E 0 80 62 00
        E 120 90 3d 60
        E 0 90 4a 60
        E 0 90 56 60
        E 0 90 62 60
        E 120 80 3d 00
        E 0 80 4a 00
        E 0 80 56 00
        E 0 80 62 00
        E 120 90 56 60
        E 0 90 62 60
        E 120 80 56 00
        E 0 80 62 00
        E 120 90 56 60
        E 0 90 62 60
        E 0 90 4a 60
        E 120 80 56 00
        E 0 80 62 00
        E 0 80 4a 00
        E 120 90 62 60
        E 120 80 31 00
        E 0 80 62 00
        <X 120 0
          /wFbaWRsZV0=
        >
        <X 15359 0
          /wFbaWRsZV9yZWFsdGltZV0=
        >
        E 15360 b0 7b 00
        GUID {EB062DD4-5175-4533-BD50-AF767E95C5FD}
        IGNTEMPO 0 120.00000000 4 4
        SRCCOLOR 4
        VELLANE 132 128 60
        COLORMAP "C:\Program Files\REAPER (x64)\Data\color_maps\rockband_guitarbass.png"
        CFGEDITVIEW -1262.504100 69.848485 0 12 0 0 0
        CFGEDIT 1 1 0 1 1 0 1 1 1 1 1 0.25000000 -8 -8 1544 872 0 2 1 1 0.00000000 0 1 1 0 0.500000 0 0 1.000000 64
        KEYSNAP 0 6 "102030050700" 0 "Pentatonic"
        EVTFILTER 0 -1 -1 -1 -1 0 1 0 0 -1.00000000 -1.00000000
      >
    >
  >
  <TRACK '{E81C2F93-E982-4564-BDC6-1C40F0ED4B8C}'
    NAME "bass"
    PEAKCOL 16576
    BEAT -1
    AUTOMODE 0
    VOLPAN 1.00000000000000 0.00000000000000 -1.00000000000000 -1.00000000000000 1.00000000000000
    MUTESOLO 0 0 0
    IPHASE 0
    ISBUS 2 -1
    BUSCOMP 0 0
    SHOWINMIX 1 0.666700 0.500000 1 0.500000 -1 -1 -1
    FREEMODE 0
    SEL 0
    REC 0 0 0 0 0 0 0
    VU 2
    TRACKHEIGHT 0 0
    INQ 0 0 0 0.5000000000 100 0 0 100
    NCHAN 2
    FX 1
    TRACKID {E81C2F93-E982-4564-BDC6-1C40F0ED4B8C}
    PERF 0
    MIDIOUT -1
    MAINSEND 1 0
    <ITEM
      POSITION 0.00000000000000
      SNAPOFFS 0.00000000000000
      LENGTH 119.20500000000000
      LOOP 0
      ALLTAKES 0
      SEL 0
      FADEIN 1 0.000000 0.000000 1 0
      FADEOUT 1 0.000000 0.000000 1 0
      MUTE 0
      IGUID {6291DCA7-C6F2-4FDF-A2E2-2BB23A3BFE7D}
      IID 17
      NAME "bass.wav"
      VOLPAN 1.000000 0.000000 1.000000 -1.000000
      SOFFS 0.00000000000000
      PLAYRATE 1.00000000000000 1 0.00000000000000 -1
      CHANMODE 0
      GUID {17681E84-6B38-4778-9ABC-9852B2126A4E}
      <SOURCE WAVE
        FILE "wav\bass.wav"
      >
    >
  >
  <TRACK '{C87CA22B-5567-4B2C-BA8A-85A1C37C199C}'
    NAME "PART GUITAR"
    PEAKCOL 16576
    BEAT -1
    AUTOMODE 0
    VOLPAN 1.00000000000000 0.00000000000000 -1.00000000000000 -1.00000000000000 1.00000000000000
    MUTESOLO 0 0 0
    IPHASE 0
    ISBUS 1 1
    BUSCOMP 0 0
    SHOWINMIX 1 0.666700 0.500000 1 0.500000 -1 -1 -1
    FREEMODE 0
    SEL 0
    REC 0 0 0 0 0 0 0
    VU 2
    TRACKHEIGHT 0 0
    INQ 0 0 0 0.5000000000 100 0 0 100
    NCHAN 2
    FX 1
    TRACKID {C87CA22B-5567-4B2C-BA8A-85A1C37C199C}
    PERF 0
    MIDIOUT -1
    <MIDINOTENAMES
      0 127 "TRILL MARKER"
      0 126 "TREMOLO MARKER"
      0 125 "---"
      0 124 "BRE"
      0 123 "BRE"
      0 122 "BRE"
      0 121 "BRE"
      0 120 "BRE (use all 5)"
      0 119 "----"
      0 116 "OVERDRIVE"
      0 115 "----"
      0 103 "Solo Marker"
      0 102 "Force HOPO Off"
      0 101 "Force HOPO On"
      0 100 "EXPERT Orange"
      0 99 "EXPERT Blue"
      0 98 "EXPERT Yellow"
      0 97 "EXPERT Red"
      0 96 "EXPERT Green"
      0 95 "----"
      0 90 "Force HOPO Off"
      0 89 "Force HOPO On"
      0 88 "HARD Orange"
      0 87 "HARD Blue"
      0 86 "HARD Yellow"
      0 85 "HARD Red"
      0 84 "HARD Green"
      0 77 "----"
      0 76 "MEDIUM Orange"
      0 75 "MEDIUM Blue"
      0 74 "MEDIUM Yellow"
      0 73 "MEDIUM Red"
      0 72 "MEDIUM Green"
      0 65 "----"
      0 64 "EASY Orange"
      0 63 "EASY Blue"
      0 62 "EASY Yellow"
      0 61 "EASY Red"
      0 60 "EASY Green"
      0 59 "Fret 12"
      0 57 "Fret 11"
      0 56 "Fret 10"
      0 55 "Fret 9"
      0 53 "Fret 8"
      0 52 "Fret 7"
      0 50 "Fret 6"
      0 49 "Fret 5"
      0 47 "Fret 4"
      0 45 "Fret 3"
      0 43 "Fret 2"
      0 40 "Fret 1"
    >
    MAINSEND 1 0
    <FXCHAIN
      WNDRECT 0 43 891 559
      SHOW 0
      LASTSEL 0
      DOCKED 0
      BYPASS 0 0
      <VST "VSTi: RBN Preview (RBN)" "rbprev_vst64.dll" 0 ""
        dnBicu5e7f4AAAAAAgAAAAEAAAAAAAAAAgAAAAAAAAAEAAAAAQAAAA==
        AAAQAAMAqgAAABAAAAA=
      >
      FLOATPOS 0 0 0 0
      FXID {9D660424-C682-4D0F-84D1-681E629EB652}
      WAK 0
    >
    <ITEM
      POSITION 0.00000000000000
      SNAPOFFS 0.00000000000000
      LENGTH 119.20500000000000
      LOOP 0
      ALLTAKES 0
      SEL 0
      FADEIN 1 0.000000 0.000000 1 0
      FADEOUT 1 0.000000 0.000000 1 0
      MUTE 0
      IGUID {24DE80D3-822C-4C1A-B469-B85BC63E7908}
      IID 3
      NAME "PART GUITAR"
      VOLPAN 1.000000 0.000000 1.000000 -1.000000
      SOFFS 0.00000000000000 0.00000000000000
      PLAYRATE 1.00000000000000 1 0.00000000000000 -1
      CHANMODE 0
      GUID {BD218D77-C9A0-41A6-8509-AB9C39E2AA5B}
      <SOURCE MIDI
        HASDATA 1 480 QN
        POOLEDEVTS {AF224FD1-8082-4D74-82FC-6346CDEEC080}
        <X 0 0
          /wNQQVJUIEdVSVRBUg==
        >
        <X 5760 0
          /wFbcGxheV0=
        >
        E 0 90 2f 60
        E 0 90 3d 60
        E 0 90 4a 60
        E 0 90 57 60
        E 0 90 63 60
        E 120 80 3d 00
        E 0 80 4a 00
        E 0 80 57 00
        E 0 80 63 00
        E 360 90 49 60
        E 0 90 56 60
        E 0 90 62 60
        E 120 80 49 00
        E 0 80 56 00
        E 0 80 62 00
        E 120 90 55 60
        E 0 90 61 60
        E 120 80 55 00
        E 0 80 61 00
        E 120 90 3c 60
        E 0 90 48 60
        E 0 90 54 60
        E 0 90 60 60
        E 120 80 3c 00
        E 0 80 48 00
        E 0 80 54 00
        E 0 80 60 00
        E 360 90 4a 60
        E 0 90 58 60
        E 0 90 64 60
        E 120 80 4a 00
        E 0 80 58 00
        E 0 80 64 00
        E 120 90 63 60
        E 120 80 63 00
        E 120 90 3d 60
        E 0 90 49 60
        E 0 90 56 60
        E 0 90 62 60
        E 120 80 3d 00
        E 0 80 49 00
        E 0 80 56 00
        E 0 80 62 00
        E 120 90 55 60
        E 0 90 61 60
        E 120 80 55 00
        E 0 80 61 00
        E 120 90 54 60
        E 0 90 60 60
        E 120 80 54 00
        E 0 80 60 00
        E 120 90 3e 60
        E 0 90 4a 60
        E 0 90 58 60
        E 0 90 64 60
        E 120 80 3e 00
        E 0 80 4a 00
        E 0 80 58 00
        E 0 80 64 00
        E 360 90 57 60
        E 0 90 63 60
        E 120 80 57 00
        E 0 80 63 00
        E 120 90 49 60
        E 0 90 56 60
        E 0 90 62 60
        E 120 80 49 00
        E 0 80 56 00
        E 0 80 62 00
        E 120 90 55 60
        E 0 90 61 60
        E 120 80 55 00
        E 0 80 61 00
        E 120 90 3c 60
        E 0 90 48 60
        E 0 90 54 60
        E 0 90 60 60
        E 120 80 3c 00
        E 0 80 48 00
        E 0 80 54 00
        E 0 80 60 00
        E 360 90 4a 60
        E 0 90 58 60
        E 0 90 64 60
        E 120 80 4a 00
        E 0 80 58 00
        E 0 80 64 00
        E 120 90 63 60
        E 120 80 63 00
        E 120 90 3d 60
        E 0 90 49 60
        E 0 90 56 60
        E 0 90 62 60
        E 120 80 3d 00
        E 0 80 49 00
        E 0 80 56 00
        E 0 80 62 00
        E 120 90 55 60
        E 0 90 61 60
        E 120 80 55 00
        E 0 80 61 00
        E 120 90 48 60
        E 0 90 54 60
        E 0 90 60 60
        E 120 80 48 00
        E 0 80 54 00
        E 0 80 60 00
        E 360 90 3e 60
        E 0 90 4a 60
        E 0 90 58 60
        E 0 90 64 60
        E 120 80 3e 00
        E 0 80 4a 00
        E 0 80 58 00
        E 0 80 64 00
        E 120 90 57 60
        E 0 90 63 60
        E 120 80 57 00
        E 0 80 63 00
        E 120 90 56 60
        E 0 90 62 60
        E 120 80 56 00
        E 0 80 62 00
        E 120 90 3d 60
        E 0 90 49 60
        E 0 90 55 60
        E 0 90 61 60
        E 120 80 3d 00
        E 0 80 49 00
        E 0 80 55 00
        E 0 80 61 00
        E 360 90 4a 60
        E 0 90 55 60
        E 0 90 61 60
        E 120 80 4a 00
        E 0 80 55 00
        E 0 80 61 00
        E 0 90 62 60
        E 120 80 62 00
        E 0 90 3e 60
        E 0 90 57 60
        E 0 90 63 60
        E 120 80 3e 00
        E 0 80 57 00
        E 0 80 63 00
        E 120 90 4b 60
        E 0 90 58 60
        E 0 90 64 60
        E 120 80 4b 00
        E 0 80 58 00
        E 0 80 64 00
        E 120 90 3d 60
        E 0 90 4a 60
        E 0 90 57 60
        E 0 90 63 60
        E 0 90 74 60
        E 120 80 3d 00
        E 0 80 4a 00
        E 0 80 57 00
        E 0 80 63 00
        E 360 90 49 60
        E 0 90 56 60
        E 0 90 62 60
        E 120 80 49 00
        E 0 80 56 00
        E 0 80 62 00
        E 120 90 55 60
        E 0 90 61 60
        E 120 80 55 00
        E 0 80 61 00
        E 120 90 3c 60
        E 0 90 48 60
        E 0 90 54 60
        E 0 90 60 60
        E 120 80 3c 00
        E 0 80 48 00
        E 0 80 54 00
        E 0 80 60 00
        E 360 90 4a 60
        E 0 90 58 60
        E 0 90 64 60
        E 120 80 4a 00
        E 0 80 58 00
        E 0 80 64 00
        E 120 90 63 60
        E 120 80 63 00
        E 120 90 3d 60
        E 0 90 49 60
        E 0 90 56 60
        E 0 90 62 60
        E 120 80 3d 00
        E 0 80 49 00
        E 0 80 56 00
        E 0 80 62 00
        E 120 90 55 60
        E 0 90 61 60
        E 120 80 55 00
        E 0 80 61 00
        E 120 90 54 60
        E 0 90 60 60
        E 120 80 54 00
        E 0 80 60 00
        E 120 90 3e 60
        E 0 90 4a 60
        E 0 90 58 60
        E 0 90 64 60
        E 120 80 3e 00
        E 0 80 4a 00
        E 0 80 58 00
        E 0 80 64 00
        E 120 80 74 00
        E 240 90 57 60
        E 0 90 63 60
        E 120 80 57 00
        E 0 80 63 00
        E 120 90 49 60
        E 0 90 56 60
        E 0 90 62 60
        E 120 80 49 00
        E 0 80 56 00
        E 0 80 62 00
        E 120 90 55 60
        E 0 90 61 60
        E 120 80 55 00
        E 0 80 61 00
        E 120 90 3c 60
        E 0 90 48 60
        E 0 90 54 60
        E 0 90 60 60
        E 120 80 3c 00
        E 0 80 48 00
        E 0 80 54 00
        E 0 80 60 00
        E 360 90 4a 60
        E 0 90 58 60
        E 0 90 64 60
        E 120 80 4a 00
        E 0 80 58 00
        E 0 80 64 00
        E 120 90 63 60
        E 120 80 63 00
        E 120 90 3d 60
        E 0 90 49 60
        E 0 90 56 60
        E 0 90 62 60
        E 120 80 3d 00
        E 0 80 49 00
        E 0 80 56 00
        E 0 80 62 00
        E 120 90 55 60
        E 0 90 61 60
        E 120 80 55 00
        E 0 80 61 00
        E 120 90 48 60
        E 0 90 54 60
        E 0 90 60 60
        E 120 80 48 00
        E 0 80 54 00
        E 0 80 60 00
        E 360 90 3e 60
        E 0 90 4a 60
        E 0 90 58 60
        E 0 90 64 60
        E 120 80 3e 00
        E 0 80 4a 00
        E 0 80 58 00
        E 0 80 64 00
        E 120 90 57 60
        E 0 90 63 60
        E 120 80 57 00
        E 0 80 63 00
        E 120 90 56 60
        E 0 90 62 60
        E 120 80 56 00
        E 0 80 62 00
        E 120 90 3d 60
        E 0 90 49 60
        E 0 90 55 60
        E 0 90 61 60
        E 120 80 3d 00
        E 0 80 49 00
        E 0 80 55 00
        E 0 80 61 00
        E 360 90 4a 60
        E 0 90 55 60
        E 0 90 61 60
        E 120 80 4a 00
        E 0 80 55 00
        E 0 80 61 00
        E 0 90 62 60
        E 120 80 62 00
        E 0 90 3e 60
        E 0 90 57 60
        E 0 90 63 60
        E 120 80 3e 00
        E 0 80 57 00
        E 0 80 63 00
        E 120 90 4b 60
        E 0 90 58 60
        E 0 90 64 60
        E 120 80 4b 00
        E 0 80 58 00
        E 0 80 64 00
        E 120 90 3d 60
        E 0 90 4a 60
        E 0 90 57 60
        E 0 90 63 60
        E 120 80 3d 00
        E 0 80 4a 00
        E 0 80 57 00
        E 0 80 63 00
        E 360 90 49 60
        E 0 90 56 60
        E 0 90 62 60
        E 120 80 49 00
        E 0 80 56 00
        E 0 80 62 00
        E 120 90 55 60
        E 0 90 61 60
        E 120 80 55 00
        E 0 80 61 00
        E 120 90 3c 60
        E 0 90 48 60
        E 0 90 54 60
        E 0 90 60 60
        E 120 80 3c 00
        E 0 80 48 00
        E 0 80 54 00
        E 0 80 60 00
        E 360 90 4a 60
        E 0 90 58 60
        E 0 90 64 60
        E 120 80 4a 00
        E 0 80 58 00
        E 0 80 64 00
        E 120 90 63 60
        E 120 80 63 00
        E 120 90 3d 60
        E 0 90 49 60
        E 0 90 56 60
        E 0 90 62 60
        E 120 80 3d 00
        E 0 80 49 00
        E 0 80 56 00
        E 0 80 62 00
        E 120 90 55 60
        E 0 90 61 60
        E 120 80 55 00
        E 0 80 61 00
        E 120 90 54 60
        E 0 90 60 60
        E 120 80 54 00
        E 0 80 60 00
        E 120 90 3e 60
        E 0 90 4a 60
        E 0 90 58 60
        E 0 90 64 60
        E 120 80 3e 00
        E 0 80 4a 00
        E 0 80 58 00
        E 0 80 64 00
        E 360 90 57 60
        E 0 90 63 60
        E 120 80 57 00
        E 0 80 63 00
        E 120 90 49 60
        E 0 90 56 60
        E 0 90 62 60
        E 120 80 49 00
        E 0 80 56 00
        E 0 80 62 00
        E 120 90 55 60
        E 0 90 61 60
        E 120 80 55 00
        E 0 80 61 00
        E 120 90 3c 60
        E 0 90 48 60
        E 0 90 54 60
        E 0 90 60 60
        E 120 80 3c 00
        E 0 80 48 00
        E 0 80 54 00
        E 0 80 60 00
        E 360 90 4a 60
        E 0 90 58 60
        E 0 90 64 60
        E 0 90 74 60
        E 120 80 4a 00
        E 0 80 58 00
        E 0 80 64 00
        E 120 90 63 60
        E 120 80 63 00
        E 120 90 3d 60
        E 0 90 49 60
        E 0 90 56 60
        E 0 90 62 60
        E 120 80 3d 00
        E 0 80 49 00
        E 0 80 56 00
        E 0 80 62 00
        E 120 90 55 60
        E 0 90 61 60
        E 120 80 55 00
        E 0 80 61 00
        E 120 90 48 60
        E 0 90 54 60
        E 0 90 60 60
        E 120 80 48 00
        E 0 80 54 00
        E 0 80 60 00
        E 360 90 3e 60
        E 0 90 4a 60
        E 0 90 58 60
        E 0 90 64 60
        E 120 80 3e 00
        E 0 80 4a 00
        E 0 80 58 00
        E 0 80 64 00
        E 120 90 57 60
        E 0 90 63 60
        E 120 80 57 00
        E 0 80 63 00
        E 120 90 56 60
        E 0 90 62 60
        E 120 80 56 00
        E 0 80 62 00
        E 120 90 3d 60
        E 0 90 49 60
        E 0 90 55 60
        E 0 90 61 60
        E 120 80 3d 00
        E 0 80 49 00
        E 0 80 55 00
        E 0 80 61 00
        E 120 80 74 00
        E 240 90 4a 60
        E 0 90 55 60
        E 0 90 61 60
        E 120 80 4a 00
        E 0 80 55 00
        E 0 80 61 00
        E 0 90 62 60
        E 120 80 62 00
        E 0 90 3e 60
        E 0 90 57 60
        E 0 90 63 60
        E 120 80 3e 00
        E 0 80 57 00
        E 0 80 63 00
        E 120 90 4b 60
        E 0 90 58 60
        E 0 90 64 60
        E 120 80 4b 00
        E 0 80 58 00
        E 0 80 64 00
        E 120 90 3d 60
        E 0 90 4a 60
        E 0 90 57 60
        E 0 90 63 60
        E 120 80 3d 00
        E 0 80 4a 00
        E 0 80 57 00
        E 0 80 63 00
        E 360 90 49 60
        E 0 90 56 60
        E 0 90 62 60
        E 120 80 49 00
        E 0 80 56 00
        E 0 80 62 00
        E 120 90 55 60
        E 0 90 61 60
        E 120 80 55 00
        E 0 80 61 00
        E 120 90 3c 60
        E 0 90 48 60
        E 0 90 54 60
        E 0 90 60 60
        E 120 80 3c 00
        E 0 80 48 00
        E 0 80 54 00
        E 0 80 60 00
        E 360 90 4a 60
        E 0 90 58 60
        E 0 90 64 60
        E 120 80 4a 00
        E 0 80 58 00
        E 0 80 64 00
        E 120 90 63 60
        E 120 80 63 00
        E 120 90 3d 60
        E 0 90 49 60
        E 0 90 56 60
        E 0 90 62 60
        E 120 80 3d 00
        E 0 80 49 00
        E 0 80 56 00
        E 0 80 62 00
        E 120 90 55 60
        E 0 90 61 60
        E 120 80 55 00
        E 0 80 61 00
        E 120 90 54 60
        E 0 90 60 60
        E 120 80 54 00
        E 0 80 60 00
        E 120 90 3e 60
        E 0 90 4a 60
        E 0 90 58 60
        E 0 90 64 60
        E 120 80 3e 00
        E 0 80 4a 00
        E 0 80 58 00
        E 0 80 64 00
        E 360 90 57 60
        E 0 90 63 60
        E 120 80 57 00
        E 0 80 63 00
        E 120 90 49 60
        E 0 90 56 60
        E 0 90 62 60
        E 120 80 49 00
        E 0 80 56 00
        E 0 80 62 00
        E 120 90 55 60
        E 0 90 61 60
        E 120 80 55 00
        E 0 80 61 00
        E 120 90 3c 60
        E 0 90 48 60
        E 0 90 54 60
        E 0 90 60 60
        E 120 80 3c 00
        E 0 80 48 00
        E 0 80 54 00
        E 0 80 60 00
        E 360 90 4a 60
        E 0 90 58 60
        E 0 90 64 60
        E 120 80 4a 00
        E 0 80 58 00
        E 0 80 64 00
        E 120 90 63 60
        E 120 80 63 00
        E 120 90 3d 60
        E 0 90 49 60
        E 0 90 56 60
        E 0 90 62 60
        E 120 80 3d 00
        E 0 80 49 00
        E 0 80 56 00
        E 0 80 62 00
        E 120 90 55 60
        E 0 90 61 60
        E 120 80 55 00
        E 0 80 61 00
        E 120 90 48 60
        E 0 90 54 60
        E 0 90 60 60
        E 120 80 48 00
        E 0 80 54 00
        E 0 80 60 00
        E 360 90 3e 60
        E 0 90 4a 60
        E 0 90 58 60
        E 0 90 64 60
        E 120 80 3e 00
        E 0 80 4a 00
        E 0 80 58 00
        E 0 80 64 00
        E 120 90 57 60
        E 0 90 63 60
        E 120 80 57 00
        E 0 80 63 00
        E 120 90 56 60
        E 0 90 62 60
        E 120 80 56 00
        E 0 80 62 00
        E 120 90 3d 60
        E 0 90 49 60
        E 0 90 55 60
        E 0 90 61 60
        E 120 80 3d 00
        E 0 80 49 00
        E 0 80 55 00
        E 0 80 61 00
        E 360 90 4a 60
        E 0 90 55 60
        E 0 90 61 60
        E 120 80 4a 00
        E 0 80 55 00
        E 0 80 61 00
        E 0 90 62 60
        E 120 80 62 00
        E 0 90 3e 60
        E 0 90 57 60
        E 0 90 63 60
        E 120 80 3e 00
        E 0 80 57 00
        E 0 80 63 00
        E 120 90 4b 60
        E 0 90 58 60
        E 0 90 64 60
        E 120 80 4b 00
        E 0 80 58 00
        E 0 80 64 00
        E 120 90 3d 60
        E 0 90 4a 60
        E 0 90 57 60
        E 0 90 63 60
        E 120 80 3d 00
        E 0 80 4a 00
        E 0 80 57 00
        E 0 80 63 00
        E 360 90 49 60
        E 0 90 56 60
        E 0 90 62 60
        E 120 80 49 00
        E 0 80 56 00
        E 0 80 62 00
        E 120 90 55 60
        E 0 90 61 60
        E 120 80 55 00
        E 0 80 61 00
        E 120 90 3c 60
        E 0 90 48 60
        E 0 90 54 60
        E 0 90 60 60
        E 120 80 3c 00
        E 0 80 48 00
        E 0 80 54 00
        E 0 80 60 00
        E 360 90 4a 60
        E 0 90 58 60
        E 0 90 64 60
        E 120 80 4a 00
        E 0 80 58 00
        E 0 80 64 00
        E 120 90 63 60
        E 120 80 63 00
        E 120 90 3d 60
        E 0 90 49 60
        E 0 90 56 60
        E 0 90 62 60
        E 120 80 3d 00
        E 0 80 49 00
        E 0 80 56 00
        E 0 80 62 00
        E 120 90 55 60
        E 0 90 61 60
        E 120 80 55 00
        E 0 80 61 00
        E 120 90 54 60
        E 0 90 60 60
        E 120 80 54 00
        E 0 80 60 00
        E 120 90 3e 60
        E 0 90 4a 60
        E 0 90 58 60
        E 0 90 64 60
        E 0 90 74 60
        E 120 80 3e 00
        E 0 80 4a 00
        E 0 80 58 00
        E 0 80 64 00
        E 360 90 57 60
        E 0 90 63 60
        E 120 80 57 00
        E 0 80 63 00
        E 120 90 49 60
        E 0 90 56 60
        E 0 90 62 60
        E 120 80 49 00
        E 0 80 56 00
        E 0 80 62 00
        E 120 90 55 60
        E 0 90 61 60
        E 120 80 55 00
        E 0 80 61 00
        E 120 80 74 00
        E 0 90 3c 60
        E 0 90 48 60
        E 0 90 54 60
        E 0 90 60 60
        E 120 80 3c 00
        E 0 80 48 00
        E 0 80 54 00
        E 0 80 60 00
        E 360 90 4a 60
        E 0 90 58 60
        E 0 90 64 60
        E 120 80 4a 00
        E 0 80 58 00
        E 0 80 64 00
        E 120 90 63 60
        E 120 80 63 00
        E 120 90 3d 60
        E 0 90 49 60
        E 0 90 56 60
        E 0 90 62 60
        E 120 80 3d 00
        E 0 80 49 00
        E 0 80 56 00
        E 0 80 62 00
        E 120 90 55 60
        E 0 90 61 60
        E 120 80 55 00
        E 0 80 61 00
        E 120 90 48 60
        E 0 90 54 60
        E 0 90 60 60
        E 120 80 48 00
        E 0 80 54 00
        E 0 80 60 00
        E 360 90 3e 60
        E 0 90 4a 60
        E 0 90 58 60
        E 0 90 64 60
        E 120 80 3e 00
        E 0 80 4a 00
        E 0 80 58 00
        E 0 80 64 00
        E 120 90 57 60
        E 0 90 63 60
        E 120 80 57 00
        E 0 80 63 00
        E 120 90 56 60
        E 0 90 62 60
        E 120 80 56 00
        E 0 80 62 00
        E 120 90 3d 60
        E 0 90 49 60
        E 0 90 55 60
        E 0 90 61 60
        E 120 80 3d 00
        E 0 80 49 00
        E 0 80 55 00
        E 0 80 61 00
        E 360 90 4a 60
        E 0 90 55 60
        E 0 90 61 60
        E 120 80 4a 00
        E 0 80 55 00
        E 0 80 61 00
        E 0 90 62 60
        E 120 80 62 00
        E 0 90 3e 60
        E 0 90 57 60
        E 0 90 63 60
        E 120 80 3e 00
        E 0 80 57 00
        E 0 80 63 00
        E 120 90 4b 60
        E 0 90 58 60
        E 0 90 64 60
        E 120 80 4b 00
        E 0 80 58 00
        E 0 80 64 00
        E 120 90 3d 60
        E 0 90 4a 60
        E 0 90 57 60
        E 0 90 63 60
        E 120 80 3d 00
        E 0 80 4a 00
        E 0 80 57 00
        E 0 80 63 00
        E 360 90 49 60
        E 0 90 56 60
        E 0 90 62 60
        E 120 80 49 00
        E 0 80 56 00
        E 0 80 62 00
        E 120 90 55 60
        E 0 90 61 60
        E 120 80 55 00
        E 0 80 61 00
        E 120 90 3c 60
        E 0 90 48 60
        E 0 90 54 60
        E 0 90 60 60
        E 120 80 3c 00
        E 0 80 48 00
        E 0 80 54 00
        E 0 80 60 00
        E 360 90 4a 60
        E 0 90 58 60
        E 0 90 64 60
        E 120 80 4a 00
        E 0 80 58 00
        E 0 80 64 00
        E 120 90 63 60
        E 120 80 63 00
        E 120 90 3d 60
        E 0 90 49 60
        E 0 90 56 60
        E 0 90 62 60
        E 120 80 3d 00
        E 0 80 49 00
        E 0 80 56 00
        E 0 80 62 00
        E 120 90 55 60
        E 0 90 61 60
        E 120 80 55 00
        E 0 80 61 00
        E 120 90 54 60
        E 0 90 60 60
        E 120 80 54 00
        E 0 80 60 00
        E 120 90 3e 60
        E 0 90 4a 60
        E 0 90 58 60
        E 0 90 64 60
        E 120 80 3e 00
        E 0 80 4a 00
        E 0 80 58 00
        E 0 80 64 00
        E 360 90 57 60
        E 0 90 63 60
        E 120 80 57 00
        E 0 80 63 00
        E 120 90 49 60
        E 0 90 56 60
        E 0 90 62 60
        E 120 80 49 00
        E 0 80 56 00
        E 0 80 62 00
        E 120 90 55 60
        E 0 90 61 60
        E 120 80 55 00
        E 0 80 61 00
        E 120 90 3c 60
        E 0 90 48 60
        E 0 90 54 60
        E 0 90 60 60
        E 120 80 3c 00
        E 0 80 48 00
        E 0 80 54 00
        E 0 80 60 00
        E 360 90 4a 60
        E 0 90 58 60
        E 0 90 64 60
        E 120 80 4a 00
        E 0 80 58 00
        E 0 80 64 00
        E 120 90 63 60
        E 120 80 63 00
        E 120 90 3d 60
        E 0 90 49 60
        E 0 90 56 60
        E 0 90 62 60
        E 120 80 3d 00
        E 0 80 49 00
        E 0 80 56 00
        E 0 80 62 00
        E 120 90 55 60
        E 0 90 61 60
        E 120 80 55 00
        E 0 80 61 00
        E 120 90 48 60
        E 0 90 54 60
        E 0 90 60 60
        E 120 80 48 00
        E 0 80 54 00
        E 0 80 60 00
        E 360 90 3e 60
        E 0 90 4a 60
        E 0 90 58 60
        E 0 90 64 60
        E 120 80 3e 00
        E 0 80 4a 00
        E 0 80 58 00
        E 0 80 64 00
        E 120 90 57 60
        E 0 90 63 60
        E 120 80 57 00
        E 0 80 63 00
        E 120 90 56 60
        E 0 90 62 60
        E 120 80 56 00
        E 0 80 62 00
        E 120 90 3d 60
        E 0 90 49 60
        E 0 90 55 60
        E 0 90 61 60
        E 120 80 3d 00
        E 0 80 49 00
        E 0 80 55 00
        E 0 80 61 00
        E 360 90 4a 60
        E 0 90 55 60
        E 0 90 61 60
        E 120 80 4a 00
        E 0 80 55 00
        E 0 80 61 00
        E 0 90 62 60
        E 120 80 62 00
        E 0 90 3e 60
        E 0 90 57 60
        E 0 90 63 60
        E 120 80 3e 00
        E 0 80 57 00
        E 0 80 63 00
        E 120 90 4b 60
        E 0 90 58 60
        E 0 90 64 60
        E 120 80 4b 00
        E 0 80 58 00
        E 0 80 64 00
        E 120 90 3d 60
        E 0 90 4a 60
        E 0 90 57 60
        E 0 90 63 60
        E 120 80 3d 00
        E 0 80 4a 00
        E 0 80 57 00
        E 0 80 63 00
        E 360 90 49 60
        E 0 90 56 60
        E 0 90 62 60
        E 120 80 49 00
        E 0 80 56 00
        E 0 80 62 00
        E 120 90 55 60
        E 0 90 61 60
        E 120 80 55 00
        E 0 80 61 00
        E 120 90 3c 60
        E 0 90 48 60
        E 0 90 54 60
        E 0 90 60 60
        E 0 90 74 60
        E 120 80 3c 00
        E 0 80 48 00
        E 0 80 54 00
        E 0 80 60 00
        E 360 90 4a 60
        E 0 90 58 60
        E 0 90 64 60
        E 120 80 4a 00
        E 0 80 58 00
        E 0 80 64 00
        E 120 90 63 60
        E 120 80 63 00
        E 120 90 3d 60
        E 0 90 49 60
        E 0 90 56 60
        E 0 90 62 60
        E 120 80 3d 00
        E 0 80 49 00
        E 0 80 56 00
        E 0 80 62 00
        E 120 90 55 60
        E 0 90 61 60
        E 120 80 55 00
        E 0 80 61 00
        E 120 90 54 60
        E 0 90 60 60
        E 120 80 54 00
        E 0 80 60 00
        E 120 90 3e 60
        E 0 90 4a 60
        E 0 90 58 60
        E 0 90 64 60
        E 120 80 3e 00
        E 0 80 4a 00
        E 0 80 58 00
        E 0 80 64 00
        E 360 90 57 60
        E 0 90 63 60
        E 120 80 57 00
        E 0 80 63 00
        E 120 90 49 60
        E 0 90 56 60
        E 0 90 62 60
        E 120 80 49 00
        E 0 80 56 00
        E 0 80 62 00
        E 120 90 55 60
        E 0 90 61 60
        E 120 80 55 00
        E 0 80 61 00
        E 120 80 74 00
        E 0 90 3c 60
        E 0 90 48 60
        E 0 90 54 60
        E 0 90 60 60
        E 120 80 3c 00
        E 0 80 48 00
        E 0 80 54 00
        E 0 80 60 00
        E 360 90 4a 60
        E 0 90 58 60
        E 0 90 64 60
        E 120 80 4a 00
        E 0 80 58 00
        E 0 80 64 00
        E 120 90 63 60
        E 120 80 63 00
        E 120 90 3d 60
        E 0 90 49 60
        E 0 90 56 60
        E 0 90 62 60
        E 120 80 3d 00
        E 0 80 49 00
        E 0 80 56 00
        E 0 80 62 00
        E 120 90 55 60
        E 0 90 61 60
        E 120 80 55 00
        E 0 80 61 00
        E 120 90 48 60
        E 0 90 54 60
        E 0 90 60 60
        E 120 80 48 00
        E 0 80 54 00
        E 0 80 60 00
        E 360 90 3e 60
        E 0 90 4a 60
        E 0 90 58 60
        E 0 90 64 60
        E 120 80 3e 00
        E 0 80 4a 00
        E 0 80 58 00
        E 0 80 64 00
        E 120 90 57 60
        E 0 90 63 60
        E 120 80 57 00
        E 0 80 63 00
        E 120 90 56 60
        E 0 90 62 60
        E 120 80 56 00
        E 0 80 62 00
        E 120 90 3d 60
        E 0 90 49 60
        E 0 90 55 60
        E 0 90 61 60
        E 120 80 3d 00
        E 0 80 49 00
        E 0 80 55 00
        E 0 80 61 00
        E 360 90 4a 60
        E 0 90 55 60
        E 0 90 61 60
        E 120 80 4a 00
        E 0 80 55 00
        E 0 80 61 00
        E 0 90 62 60
        E 120 80 62 00
        E 0 90 3e 60
        E 0 90 57 60
        E 0 90 63 60
        E 120 80 3e 00
        E 0 80 57 00
        E 0 80 63 00
        E 120 90 4b 60
        E 0 90 58 60
        E 0 90 64 60
        E 120 80 4b 00
        E 0 80 58 00
        E 0 80 64 00
        E 120 90 3d 60
        E 0 90 4a 60
        E 0 90 57 60
        E 0 90 63 60
        E 120 80 3d 00
        E 0 80 4a 00
        E 0 80 57 00
        E 0 80 63 00
        E 360 90 49 60
        E 0 90 56 60
        E 0 90 62 60
        E 120 80 49 00
        E 0 80 56 00
        E 0 80 62 00
        E 120 90 55 60
        E 0 90 61 60
        E 120 80 55 00
        E 0 80 61 00
        E 120 90 3c 60
        E 0 90 48 60
        E 0 90 54 60
        E 0 90 60 60
        E 120 80 3c 00
        E 0 80 48 00
        E 0 80 54 00
        E 0 80 60 00
        E 360 90 4a 60
        E 0 90 58 60
        E 0 90 64 60
        E 120 80 4a 00
        E 0 80 58 00
        E 0 80 64 00
        E 120 90 63 60
        E 120 80 63 00
        E 120 90 3d 60
        E 0 90 49 60
        E 0 90 56 60
        E 0 90 62 60
        E 120 80 3d 00
        E 0 80 49 00
        E 0 80 56 00
        E 0 80 62 00
        E 120 90 55 60
        E 0 90 61 60
        E 120 80 55 00
        E 0 80 61 00
        E 120 90 54 60
        E 0 90 60 60
        E 120 80 54 00
        E 0 80 60 00
        E 120 90 3e 60
        E 0 90 4a 60
        E 0 90 58 60
        E 0 90 64 60
        E 120 80 3e 00
        E 0 80 4a 00
        E 0 80 58 00
        E 0 80 64 00
        E 360 90 57 60
        E 0 90 63 60
        E 120 80 57 00
        E 0 80 63 00
        E 120 90 49 60
        E 0 90 56 60
        E 0 90 62 60
        E 120 80 49 00
        E 0 80 56 00
        E 0 80 62 00
        E 120 90 55 60
        E 0 90 61 60
        E 120 80 55 00
        E 0 80 61 00
        E 120 90 3c 60
        E 0 90 48 60
        E 0 90 54 60
        E 0 90 60 60
        E 120 80 3c 00
        E 0 80 48 00
        E 0 80 54 00
        E 0 80 60 00
        E 360 90 4a 60
        E 0 90 58 60
        E 0 90 64 60
        E 120 80 4a 00
        E 0 80 58 00
        E 0 80 64 00
        E 120 90 63 60
        E 120 80 63 00
        E 120 90 3d 60
        E 0 90 49 60
        E 0 90 56 60
        E 0 90 62 60
        E 120 80 3d 00
        E 0 80 49 00
        E 0 80 56 00
        E 0 80 62 00
        E 120 90 55 60
        E 0 90 61 60
        E 120 80 55 00
        E 0 80 61 00
        E 120 90 48 60
        E 0 90 54 60
        E 0 90 60 60
        E 120 80 48 00
        E 0 80 54 00
        E 0 80 60 00
        E 360 90 3e 60
        E 0 90 4a 60
        E 0 90 58 60
        E 0 90 64 60
        E 120 80 3e 00
        E 0 80 4a 00
        E 0 80 58 00
        E 0 80 64 00
        E 120 90 57 60
        E 0 90 63 60
        E 120 80 57 00
        E 0 80 63 00
        E 120 90 56 60
        E 0 90 62 60
        E 120 80 56 00
        E 0 80 62 00
        E 120 90 3d 60
        E 0 90 49 60
        E 0 90 55 60
        E 0 90 61 60
        E 120 80 3d 00
        E 0 80 49 00
        E 0 80 55 00
        E 0 80 61 00
        E 360 90 4a 60
        E 0 90 55 60
        E 0 90 61 60
        E 120 80 4a 00
        E 0 80 55 00
        E 0 80 61 00
        E 0 90 62 60
        E 120 80 62 00
        E 0 90 3e 60
        E 0 90 57 60
        E 0 90 63 60
        E 120 80 3e 00
        E 0 80 57 00
        E 0 80 63 00
        E 120 90 4b 60
        E 0 90 58 60
        E 0 90 64 60
        E 120 80 4b 00
        E 0 80 58 00
        E 0 80 64 00
        <X 120 0
          /wFbaW50ZW5zZV0=
        >
        E 0 90 3d 60
        E 0 90 4a 60
        E 0 90 57 60
        E 0 90 63 60
        E 120 80 3d 00
        E 0 80 4a 00
        E 0 80 57 00
        E 0 80 63 00
        E 360 90 49 60
        E 0 90 56 60
        E 0 90 62 60
        E 120 80 49 00
        E 0 80 56 00
        E 0 80 62 00
        E 120 90 55 60
        E 0 90 61 60
        E 120 80 55 00
        E 0 80 61 00
        E 120 90 3c 60
        E 0 90 48 60
        E 0 90 54 60
        E 0 90 60 60
        E 120 80 3c 00
        E 0 80 48 00
        E 0 80 54 00
        E 0 80 60 00
        E 360 90 4a 60
        E 0 90 58 60
        E 0 90 64 60
        E 120 80 4a 00
        E 0 80 58 00
        E 0 80 64 00
        E 120 90 63 60
        E 120 80 63 00
        E 120 90 3d 60
        E 0 90 49 60
        E 0 90 56 60
        E 0 90 62 60
        E 120 80 3d 00
        E 0 80 49 00
        E 0 80 56 00
        E 0 80 62 00
        E 120 90 55 60
        E 0 90 61 60
        E 120 80 55 00
        E 0 80 61 00
        E 120 90 54 60
        E 0 90 60 60
        E 120 80 54 00
        E 0 80 60 00
        E 120 90 3e 60
        E 0 90 4a 60
        E 0 90 58 60
        E 0 90 64 60
        E 120 80 3e 00
        E 0 80 4a 00
        E 0 80 58 00
        E 0 80 64 00
        E 360 90 57 60
        E 0 90 63 60
        E 120 80 57 00
        E 0 80 63 00
        E 120 90 49 60
        E 0 90 56 60
        E 0 90 62 60
        E 120 80 49 00
        E 0 80 56 00
        E 0 80 62 00
        E 120 90 55 60
        E 0 90 61 60
        E 120 80 55 00
        E 0 80 61 00
        E 120 90 3c 60
        E 0 90 48 60
        E 0 90 54 60
        E 0 90 60 60
        E 0 90 74 60
        E 120 80 3c 00
        E 0 80 48 00
        E 0 80 54 00
        E 0 80 60 00
        E 360 90 4a 60
        E 0 90 58 60
        E 0 90 64 60
        E 120 80 4a 00
        E 0 80 58 00
        E 0 80 64 00
        E 120 90 63 60
        E 120 80 63 00
        E 120 90 3d 60
        E 0 90 49 60
        E 0 90 56 60
        E 0 90 62 60
        E 120 80 3d 00
        E 0 80 49 00
        E 0 80 56 00
        E 0 80 62 00
        E 120 90 55 60
        E 0 90 61 60
        E 120 80 55 00
        E 0 80 61 00
        E 120 90 48 60
        E 0 90 54 60
        E 0 90 60 60
        E 120 80 74 00
        E 0 80 48 00
        E 0 80 54 00
        E 0 80 60 00
        E 360 90 3e 60
        E 0 90 4a 60
        E 0 90 58 60
        E 0 90 64 60
        E 120 80 3e 00
        E 0 80 4a 00
        E 0 80 58 00
        E 0 80 64 00
        E 120 90 57 60
        E 0 90 63 60
        E 120 80 57 00
        E 0 80 63 00
        E 120 90 56 60
        E 0 90 62 60
        E 120 80 56 00
        E 0 80 62 00
        E 120 90 3d 60
        E 0 90 49 60
        E 0 90 55 60
        E 0 90 61 60
        E 120 80 3d 00
        E 0 80 49 00
        E 0 80 55 00
        E 0 80 61 00
        E 360 90 4a 60
        E 0 90 55 60
        E 0 90 61 60
        E 120 80 4a 00
        E 0 80 55 00
        E 0 80 61 00
        E 0 90 62 60
        E 120 80 62 00
        E 0 90 3e 60
        E 0 90 57 60
        E 0 90 63 60
        E 120 80 3e 00
        E 0 80 57 00
        E 0 80 63 00
        E 120 90 4b 60
        E 0 90 58 60
        E 0 90 64 60
        E 120 80 4b 00
        E 0 80 58 00
        E 0 80 64 00
        E 120 90 3d 60
        E 0 90 4a 60
        E 0 90 57 60
        E 0 90 63 60
        E 120 80 3d 00
        E 0 80 4a 00
        E 0 80 57 00
        E 0 80 63 00
        E 360 90 49 60
        E 0 90 56 60
        E 0 90 62 60
        E 120 80 49 00
        E 0 80 56 00
        E 0 80 62 00
        E 120 90 55 60
        E 0 90 61 60
        E 120 80 55 00
        E 0 80 61 00
        E 120 90 3c 60
        E 0 90 48 60
        E 0 90 54 60
        E 0 90 60 60
        E 120 80 3c 00
        E 0 80 48 00
        E 0 80 54 00
        E 0 80 60 00
        E 360 90 4a 60
        E 0 90 58 60
        E 0 90 64 60
        E 120 80 4a 00
        E 0 80 58 00
        E 0 80 64 00
        E 120 90 63 60
        E 120 80 63 00
        E 120 90 3d 60
        E 0 90 49 60
        E 0 90 56 60
        E 0 90 62 60
        E 120 80 3d 00
        E 0 80 49 00
        E 0 80 56 00
        E 0 80 62 00
        E 120 90 55 60
        E 0 90 61 60
        E 120 80 55 00
        E 0 80 61 00
        E 120 90 54 60
        E 0 90 60 60
        E 120 80 54 00
        E 0 80 60 00
        E 120 90 3e 60
        E 0 90 4a 60
        E 0 90 58 60
        E 0 90 64 60
        E 120 80 3e 00
        E 0 80 4a 00
        E 0 80 58 00
        E 0 80 64 00
        E 360 90 57 60
        E 0 90 63 60
        E 120 80 57 00
        E 0 80 63 00
        E 120 90 49 60
        E 0 90 56 60
        E 0 90 62 60
        E 120 80 49 00
        E 0 80 56 00
        E 0 80 62 00
        E 120 90 55 60
        E 0 90 61 60
        E 120 80 55 00
        E 0 80 61 00
        E 120 90 3c 60
        E 0 90 48 60
        E 0 90 54 60
        E 0 90 60 60
        E 120 80 3c 00
        E 0 80 48 00
        E 0 80 54 00
        E 0 80 60 00
        E 360 90 4a 60
        E 0 90 58 60
        E 0 90 64 60
        E 120 80 4a 00
        E 0 80 58 00
        E 0 80 64 00
        E 120 90 63 60
        E 120 80 63 00
        E 120 90 3d 60
        E 0 90 49 60
        E 0 90 56 60
        E 0 90 62 60
        E 120 80 3d 00
        E 0 80 49 00
        E 0 80 56 00
        E 0 80 62 00
        E 120 90 55 60
        E 0 90 61 60
        E 120 80 55 00
        E 0 80 61 00
        E 120 90 48 60
        E 0 90 54 60
        E 0 90 60 60
        E 120 80 48 00
        E 0 80 54 00
        E 0 80 60 00
        E 360 90 3e 60
        E 0 90 4a 60
        E 0 90 58 60
        E 0 90 64 60
        E 120 80 3e 00
        E 0 80 4a 00
        E 0 80 58 00
        E 0 80 64 00
        E 120 90 57 60
        E 0 90 63 60
        E 120 80 57 00
        E 0 80 63 00
        E 120 90 56 60
        E 0 90 62 60
        E 120 80 56 00
        E 0 80 62 00
        E 120 90 3d 60
        E 0 90 49 60
        E 0 90 55 60
        E 0 90 61 60
        E 120 80 3d 00
        E 0 80 49 00
        E 0 80 55 00
        E 0 80 61 00
        E 360 90 4a 60
        E 0 90 55 60
        E 0 90 61 60
        E 120 80 4a 00
        E 0 80 55 00
        E 0 80 61 00
        E 0 90 62 60
        E 120 80 62 00
        E 0 90 3e 60
        E 0 90 57 60
        E 0 90 63 60
        E 120 80 3e 00
        E 0 80 57 00
        E 0 80 63 00
        E 120 90 4b 60
        E 0 90 58 60
        E 0 90 64 60
        E 120 80 4b 00
        E 0 80 58 00
        E 0 80 64 00
        E 120 90 3d 60
        E 0 90 4a 60
        E 0 90 57 60
        E 0 90 63 60
        E 120 80 3d 00
        E 0 80 4a 00
        E 0 80 57 00
        E 0 80 63 00
        E 360 90 49 60
        E 0 90 56 60
        E 0 90 62 60
        E 120 80 49 00
        E 0 80 56 00
        E 0 80 62 00
        E 120 90 55 60
        E 0 90 61 60
        E 120 80 55 00
        E 0 80 61 00
        E 120 90 3c 60
        E 0 90 48 60
        E 0 90 54 60
        E 0 90 60 60
        E 120 80 3c 00
        E 0 80 48 00
        E 0 80 54 00
        E 0 80 60 00
        E 360 90 4a 60
        E 0 90 58 60
        E 0 90 64 60
        E 120 80 4a 00
        E 0 80 58 00
        E 0 80 64 00
        E 120 90 63 60
        E 120 80 63 00
        E 120 90 3d 60
        E 0 90 49 60
        E 0 90 56 60
        E 0 90 62 60
        E 120 80 3d 00
        E 0 80 49 00
        E 0 80 56 00
        E 0 80 62 00
        E 120 90 55 60
        E 0 90 61 60
        E 120 80 55 00
        E 0 80 61 00
        E 120 90 54 60
        E 0 90 60 60
        E 120 80 54 00
        E 0 80 60 00
        E 120 90 3e 60
        E 0 90 4a 60
        E 0 90 58 60
        E 0 90 64 60
        E 120 80 3e 00
        E 0 80 4a 00
        E 0 80 58 00
        E 0 80 64 00
        E 360 90 57 60
        E 0 90 63 60
        E 120 80 57 00
        E 0 80 63 00
        E 120 90 49 60
        E 0 90 56 60
        E 0 90 62 60
        E 120 80 49 00
        E 0 80 56 00
        E 0 80 62 00
        E 120 90 55 60
        E 0 90 61 60
        E 120 80 55 00
        E 0 80 61 00
        E 120 90 3c 60
        E 0 90 48 60
        E 0 90 54 60
        E 0 90 60 60
        E 120 80 3c 00
        E 0 80 48 00
        E 0 80 54 00
        E 0 80 60 00
        E 360 90 4a 60
        E 0 90 58 60
        E 0 90 64 60
        E 120 80 4a 00
        E 0 80 58 00
        E 0 80 64 00
        E 120 90 63 60
        E 120 80 63 00
        E 120 90 3d 60
        E 0 90 49 60
        E 0 90 56 60
        E 0 90 62 60
        E 120 80 3d 00
        E 0 80 49 00
        E 0 80 56 00
        E 0 80 62 00
        E 120 90 55 60
        E 0 90 61 60
        E 120 80 55 00
        E 0 80 61 00
        E 120 90 48 60
        E 0 90 54 60
        E 0 90 60 60
        E 120 80 48 00
        E 0 80 54 00
        E 0 80 60 00
        E 360 90 3e 60
        E 0 90 4a 60
        E 0 90 58 60
        E 0 90 64 60
        E 120 80 3e 00
        E 0 80 4a 00
        E 0 80 58 00
        E 0 80 64 00
        E 120 90 57 60
        E 0 90 63 60
        E 120 80 57 00
        E 0 80 63 00
        E 120 90 56 60
        E 0 90 62 60
        E 120 80 56 00
        E 0 80 62 00
        E 120 90 3d 60
        E 0 90 49 60
        E 0 90 55 60
        E 0 90 61 60
        E 120 80 3d 00
        E 0 80 49 00
        E 0 80 55 00
        E 0 80 61 00
        E 360 90 4a 60
        E 0 90 55 60
        E 0 90 61 60
        E 120 80 4a 00
        E 0 80 55 00
        E 0 80 61 00
        E 0 90 62 60
        E 120 80 62 00
        E 0 90 3e 60
        E 0 90 57 60
        E 0 90 63 60
        E 120 80 3e 00
        E 0 80 57 00
        E 0 80 63 00
        E 120 90 4b 60
        E 0 90 58 60
        E 0 90 64 60
        E 120 80 4b 00
        E 0 80 58 00
        E 0 80 64 00
        E 120 90 3d 60
        E 0 90 4a 60
        E 0 90 57 60
        E 0 90 63 60
        E 120 80 3d 00
        E 0 80 4a 00
        E 0 80 57 00
        E 0 80 63 00
        E 360 90 49 60
        E 0 90 56 60
        E 0 90 62 60
        E 120 80 49 00
        E 0 80 56 00
        E 0 80 62 00
        E 120 90 55 60
        E 0 90 61 60
        E 120 80 55 00
        E 0 80 61 00
        E 120 90 3c 60
        E 0 90 48 60
        E 0 90 54 60
        E 0 90 60 60
        E 120 80 3c 00
        E 0 80 48 00
        E 0 80 54 00
        E 0 80 60 00
        E 360 90 4a 60
        E 0 90 58 60
        E 0 90 64 60
        E 120 80 4a 00
        E 0 80 58 00
        E 0 80 64 00
        E 120 90 63 60
        E 120 80 63 00
        E 120 90 3d 60
        E 0 90 49 60
        E 0 90 56 60
        E 0 90 62 60
        E 120 80 3d 00
        E 0 80 49 00
        E 0 80 56 00
        E 0 80 62 00
        E 120 90 55 60
        E 0 90 61 60
        E 120 80 55 00
        E 0 80 61 00
        E 120 90 54 60
        E 0 90 60 60
        E 120 80 54 00
        E 0 80 60 00
        E 120 90 3e 60
        E 0 90 4a 60
        E 0 90 58 60
        E 0 90 64 60
        E 120 80 3e 00
        E 0 80 4a 00
        E 0 80 58 00
        E 0 80 64 00
        E 360 90 57 60
        E 0 90 63 60
        E 120 80 57 00
        E 0 80 63 00
        E 120 90 49 60
        E 0 90 56 60
        E 0 90 62 60
        E 120 80 49 00
        E 0 80 56 00
        E 0 80 62 00
        E 120 90 55 60
        E 0 90 61 60
        E 120 80 55 00
        E 0 80 61 00
        E 120 90 3c 60
        E 0 90 48 60
        E 0 90 54 60
        E 0 90 60 60
        E 120 80 3c 00
        E 0 80 48 00
        E 0 80 54 00
        E 0 80 60 00
        E 360 90 4a 60
        E 0 90 58 60
        E 0 90 64 60
        E 0 90 74 60
        E 120 80 4a 00
        E 0 80 58 00
        E 0 80 64 00
        E 120 90 63 60
        E 120 80 63 00
        E 120 90 3d 60
        E 0 90 49 60
        E 0 90 56 60
        E 0 90 62 60
        E 120 80 3d 00
        E 0 80 49 00
        E 0 80 56 00
        E 0 80 62 00
        E 120 90 55 60
        E 0 90 61 60
        E 120 80 55 00
        E 0 80 61 00
        E 120 90 48 60
        E 0 90 54 60
        E 0 90 60 60
        E 120 80 48 00
        E 0 80 54 00
        E 0 80 60 00
        E 360 90 3e 60
        E 0 90 4a 60
        E 0 90 58 60
        E 0 90 64 60
        E 120 80 3e 00
        E 0 80 4a 00
        E 0 80 58 00
        E 0 80 64 00
        E 120 90 57 60
        E 0 90 63 60
        E 120 80 57 00
        E 0 80 63 00
        E 120 90 56 60
        E 0 90 62 60
        E 120 80 56 00
        E 0 80 62 00
        E 120 90 3d 60
        E 0 90 49 60
        E 0 90 55 60
        E 0 90 61 60
        E 120 80 3d 00
        E 0 80 49 00
        E 0 80 55 00
        E 0 80 61 00
        E 120 80 74 00
        E 240 90 4a 60
        E 0 90 55 60
        E 0 90 61 60
        E 120 80 4a 00
        E 0 80 55 00
        E 0 80 61 00
        E 0 90 62 60
        E 120 80 62 00
        E 0 90 3e 60
        E 0 90 57 60
        E 0 90 63 60
        E 120 80 3e 00
        E 0 80 57 00
        E 0 80 63 00
        E 120 90 4b 60
        E 0 90 58 60
        E 0 90 64 60
        E 120 80 4b 00
        E 0 80 58 00
        E 0 80 64 00
        E 120 90 3d 60
        E 0 90 4a 60
        E 0 90 57 60
        E 0 90 63 60
        E 120 80 3d 00
        E 0 80 4a 00
        E 0 80 57 00
        E 0 80 63 00
        E 360 90 49 60
        E 0 90 56 60
        E 0 90 62 60
        E 120 80 49 00
        E 0 80 56 00
        E 0 80 62 00
        E 120 90 55 60
        E 0 90 61 60
        E 120 80 55 00
        E 0 80 61 00
        E 120 90 3c 60
        E 0 90 48 60
        E 0 90 54 60
        E 0 90 60 60
        E 120 80 3c 00
        E 0 80 48 00
        E 0 80 54 00
        E 0 80 60 00
        E 360 90 4a 60
        E 0 90 58 60
        E 0 90 64 60
        E 120 80 4a 00
        E 0 80 58 00
        E 0 80 64 00
        E 120 90 63 60
        E 120 80 63 00
        E 120 90 3d 60
        E 0 90 49 60
        E 0 90 56 60
        E 0 90 62 60
        E 120 80 3d 00
        E 0 80 49 00
        E 0 80 56 00
        E 0 80 62 00
        E 120 90 55 60
        E 0 90 61 60
        E 120 80 55 00
        E 0 80 61 00
        E 120 90 54 60
        E 0 90 60 60
        E 120 80 54 00
        E 0 80 60 00
        E 120 90 3e 60
        E 0 90 4a 60
        E 0 90 58 60
        E 0 90 64 60
        E 120 80 3e 00
        E 0 80 4a 00
        E 0 80 58 00
        E 0 80 64 00
        E 360 90 57 60
        E 0 90 63 60
        E 120 80 57 00
        E 0 80 63 00
        E 120 90 49 60
        E 0 90 56 60
        E 0 90 62 60
        E 120 80 49 00
        E 0 80 56 00
        E 0 80 62 00
        E 120 90 55 60
        E 0 90 61 60
        E 120 80 55 00
        E 0 80 61 00
        E 120 90 3c 60
        E 0 90 48 60
        E 0 90 54 60
        E 0 90 60 60
        E 120 80 3c 00
        E 0 80 48 00
        E 0 80 54 00
        E 0 80 60 00
        E 360 90 4a 60
        E 0 90 58 60
        E 0 90 64 60
        E 120 80 4a 00
        E 0 80 58 00
        E 0 80 64 00
        E 120 90 63 60
        E 120 80 63 00
        E 120 90 3d 60
        E 0 90 49 60
        E 0 90 56 60
        E 0 90 62 60
        E 120 80 3d 00
        E 0 80 49 00
        E 0 80 56 00
        E 0 80 62 00
        E 120 90 55 60
        E 0 90 61 60
        E 120 80 55 00
        E 0 80 61 00
        E 120 90 48 60
        E 0 90 54 60
        E 0 90 60 60
        E 120 80 48 00
        E 0 80 54 00
        E 0 80 60 00
        E 360 90 3e 60
        E 0 90 4a 60
        E 0 90 58 60
        E 0 90 64 60
        E 120 80 3e 00
        E 0 80 4a 00
        E 0 80 58 00
        E 0 80 64 00
        E 120 90 57 60
        E 0 90 63 60
        E 120 80 57 00
        E 0 80 63 00
        E 120 90 56 60
        E 0 90 62 60
        E 120 80 56 00
        E 0 80 62 00
        E 120 90 3d 60
        E 0 90 49 60
        E 0 90 55 60
        E 0 90 61 60
        E 120 80 3d 00
        E 0 80 49 00
        E 0 80 55 00
        E 0 80 61 00
        E 360 90 4a 60
        E 0 90 55 60
        E 0 90 61 60
        E 120 80 4a 00
        E 0 80 55 00
        E 0 80 61 00
        E 0 90 62 60
        E 120 80 62 00
        E 0 90 3e 60
        E 0 90 57 60
        E 0 90 63 60
        E 120 80 3e 00
        E 0 80 57 00
        E 0 80 63 00
        E 120 90 4b 60
        E 0 90 58 60
        E 0 90 64 60
        E 120 80 4b 00
        E 0 80 58 00
        E 0 80 64 00
        E 120 90 3d 60
        E 0 90 4a 60
        E 0 90 57 60
        E 0 90 63 60
        E 120 80 3d 00
        E 0 80 4a 00
        E 0 80 57 00
        E 0 80 63 00
        E 360 90 49 60
        E 0 90 56 60
        E 0 90 62 60
        E 120 80 49 00
        E 0 80 56 00
        E 0 80 62 00
        E 120 90 55 60
        E 0 90 61 60
        E 120 80 55 00
        E 0 80 61 00
        E 120 90 3c 60
        E 0 90 48 60
        E 0 90 54 60
        E 0 90 60 60
        E 120 80 3c 00
        E 0 80 48 00
        E 0 80 54 00
        E 0 80 60 00
        E 360 90 4a 60
        E 0 90 58 60
        E 0 90 64 60
        E 120 80 4a 00
        E 0 80 58 00
        E 0 80 64 00
        E 120 90 63 60
        E 120 80 63 00
        E 120 90 3d 60
        E 0 90 49 60
        E 0 90 56 60
        E 0 90 62 60
        E 120 80 3d 00
        E 0 80 49 00
        E 0 80 56 00
        E 0 80 62 00
        E 120 90 55 60
        E 0 90 61 60
        E 120 80 55 00
        E 0 80 61 00
        E 120 90 54 60
        E 0 90 60 60
        E 120 80 54 00
        E 0 80 60 00
        E 120 90 3e 60
        E 0 90 4a 60
        E 0 90 58 60
        E 0 90 64 60
        E 120 80 3e 00
        E 0 80 4a 00
        E 0 80 58 00
        E 0 80 64 00
        E 360 90 57 60
        E 0 90 63 60
        E 120 80 57 00
        E 0 80 63 00
        E 120 90 49 60
        E 0 90 56 60
        E 0 90 62 60
        E 120 80 49 00
        E 0 80 56 00
        E 0 80 62 00
        E 120 90 55 60
        E 0 90 61 60
        E 120 80 55 00
        E 0 80 61 00
        E 120 90 3c 60
        E 0 90 48 60
        E 0 90 54 60
        E 0 90 60 60
        E 120 80 3c 00
        E 0 80 48 00
        E 0 80 54 00
        E 0 80 60 00
        E 360 90 4a 60
        E 0 90 58 60
        E 0 90 64 60
        E 120 80 4a 00
        E 0 80 58 00
        E 0 80 64 00
        E 120 90 63 60
        E 120 80 63 00
        E 120 90 3d 60
        E 0 90 49 60
        E 0 90 56 60
        E 0 90 62 60
        E 120 80 3d 00
        E 0 80 49 00
        E 0 80 56 00
        E 0 80 62 00
        E 120 90 55 60
        E 0 90 61 60
        E 120 80 55 00
        E 0 80 61 00
        E 120 90 48 60
        E 0 90 54 60
        E 0 90 60 60
        E 120 80 48 00
        E 0 80 54 00
        E 0 80 60 00
        E 360 90 3e 60
        E 0 90 4a 60
        E 0 90 58 60
        E 0 90 64 60
        E 120 80 3e 00
        E 0 80 4a 00
        E 0 80 58 00
        E 0 80 64 00
        E 120 90 57 60
        E 0 90 63 60
        E 120 80 57 00
        E 0 80 63 00
        E 120 90 56 60
        E 0 90 62 60
        E 120 80 56 00
        E 0 80 62 00
        E 120 90 3d 60
        E 0 90 49 60
        E 0 90 55 60
        E 0 90 61 60
        E 120 80 3d 00
        E 0 80 49 00
        E 0 80 55 00
        E 0 80 61 00
        E 360 90 4a 60
        E 0 90 55 60
        E 0 90 61 60
        E 120 80 4a 00
        E 0 80 55 00
        E 0 80 61 00
        E 0 90 62 60
        E 120 80 62 00
        E 0 90 3e 60
        E 0 90 57 60
        E 0 90 63 60
        E 120 80 3e 00
        E 0 80 57 00
        E 0 80 63 00
        E 120 90 4b 60
        E 0 90 58 60
        E 0 90 64 60
        E 120 80 4b 00
        E 0 80 58 00
        E 0 80 64 00
        <X 120 0
          /wFbaWRsZV0=
        >
        E 0 80 2f 00
        <X 15359 0
          /wFbaWRsZV9yZWFsdGltZV0=
        >
        E 15360 b0 7b 00
        GUID {D9337F08-FB17-4BB5-977A-6A2B9769E3FA}
        IGNTEMPO 0 120.00000000 4 4
        SRCCOLOR 5
        VELLANE 132 128 60
        COLORMAP "C:\Program Files\REAPER (x64)\Data\color_maps\rockband_guitarbass.png"
        CFGEDITVIEW -1262.504100 69.848485 0 12 0 0 0
        CFGEDIT 1 1 0 1 1 0 1 1 1 1 1 0.25000000 -8 -8 1544 872 0 2 1 1 0.00000000 0 1 1 0 0.500000 0 0 1.000000 64
        KEYSNAP 0 6 "102030050700" 0 "Pentatonic"
        EVTFILTER 0 -1 -1 -1 -1 0 1 0 0 -1.00000000 -1.00000000
      >
    >
  >
  <TRACK '{500FC8AD-B04D-499C-8F3F-9C0EC80F01A7}'
    NAME "guitar"
    PEAKCOL 16576
    BEAT -1
    AUTOMODE 0
    VOLPAN 1.00000000000000 0.00000000000000 -1.00000000000000 -1.00000000000000 1.00000000000000
    MUTESOLO 0 0 0
    IPHASE 0
    ISBUS 2 -1
    BUSCOMP 0 0
    SHOWINMIX 1 0.666700 0.500000 1 0.500000 -1 -1 -1
    FREEMODE 0
    SEL 0
    REC 0 0 0 0 0 0 0
    VU 2
    TRACKHEIGHT 0 0
    INQ 0 0 0 0.5000000000 100 0 0 100
    NCHAN 2
    FX 1
    TRACKID {500FC8AD-B04D-499C-8F3F-9C0EC80F01A7}
    PERF 0
    MIDIOUT -1
    MAINSEND 1 0
    <ITEM
      POSITION 0.00000000000000
      SNAPOFFS 0.00000000000000
      LENGTH 119.20500000000000
      LOOP 0
      ALLTAKES 0
      SEL 0
      FADEIN 1 0.000000 0.000000 1 0
      FADEOUT 1 0.000000 0.000000 1 0
      MUTE 0
      IGUID {D29CCE02-4EA1-47D0-8C18-7975A75D1F01}
      IID 19
      NAME "guitar.wav"
      VOLPAN 1.000000 0.000000 1.000000 -1.000000
      SOFFS 0.00000000000000
      PLAYRATE 1.00000000000000 1 0.00000000000000 -1
      CHANMODE 0
      GUID {6D5B2208-DDB4-423E-8EE4-5963A1B5AC5D}
      <SOURCE WAVE
        FILE "wav\guitar.wav"
      >
    >
  >
  <TRACK '{125BD879-F495-4FA0-B11D-6F8DA86A86FF}'
    NAME "PART KEYS"
    PEAKCOL 16576
    BEAT -1
    AUTOMODE 0
    VOLPAN 1.00000000000000 0.00000000000000 -1.00000000000000 -1.00000000000000 1.00000000000000
    MUTESOLO 0 0 0
    IPHASE 0
    ISBUS 1 1
    BUSCOMP 0 0
    SHOWINMIX 1 0.666700 0.500000 1 0.500000 -1 -1 -1
    FREEMODE 0
    SEL 0
    REC 0 0 0 0 0 0 0
    VU 2
    TRACKHEIGHT 0 0
    INQ 0 0 0 0.5000000000 100 0 0 100
    NCHAN 2
    FX 1
    TRACKID {125BD879-F495-4FA0-B11D-6F8DA86A86FF}
    PERF 0
    MIDIOUT -1
    <MIDINOTENAMES
      0 127 "TRILL MARKER"
      0 125 "---"
      0 124 "BRE"
      0 123 "BRE"
      0 122 "BRE"
      0 121 "BRE"
      0 120 "BRE (use all 5)"
      0 119 "----"
      0 116 "OVERDRIVE"
      0 115 "----"
      0 103 "Solo Marker"
      0 102 "Force HOPO Off"
      0 101 "Force HOPO On"
      0 100 "EXPERT Orange"
      0 99 "EXPERT Blue"
      0 98 "EXPERT Yellow"
      0 97 "EXPERT Red"
      0 96 "EXPERT Green"
      0 95 "----"
      0 90 "Force HOPO Off"
      0 89 "Force HOPO On"
      0 88 "HARD Orange"
      0 87 "HARD Blue"
      0 86 "HARD Yellow"
      0 85 "HARD Red"
      0 84 "HARD Green"
      0 77 "----"
      0 76 "MEDIUM Orange"
      0 75 "MEDIUM Blue"
      0 74 "MEDIUM Yellow"
      0 73 "MEDIUM Red"
      0 72 "MEDIUM Green"
      0 65 "----"
      0 64 "EASY Orange"
      0 63 "EASY Blue"
      0 62 "EASY Yellow"
      0 61 "EASY Red"
      0 60 "EASY Green"
    >
    MAINSEND 1 0
    <FXCHAIN
      WNDRECT 0 43 891 559
      SHOW 0
      LASTSEL 0
      DOCKED 0
      BYPASS 0 0
      <VST "VSTi: RBN Preview (RBN)" "rbprev_vst64.dll" 0 ""
        dnBicu5e7f4AAAAAAgAAAAEAAAAAAAAAAgAAAAAAAAAEAAAAAQAAAA==
        AAAQAAMAqgAAABAAAAA=
      >
      FLOATPOS 0 0 0 0
      FXID {C7173478-5846-4B7D-9FB5-15A2593F2A70}
      WAK 0
    >
    <ITEM
      POSITION 0.00000000000000
      SNAPOFFS 0.00000000000000
      LENGTH 119.20500000000000
      LOOP 0
      ALLTAKES 0
      SEL 0
      FADEIN 1 0.000000 0.000000 1 0
      FADEOUT 1 0.000000 0.000000 1 0
      MUTE 0
      IGUID {1B91DEBC-E3D5-4EAD-8AB9-912F3714FD66}
      IID 4
      NAME "PART KEYS"
      VOLPAN 1.000000 0.000000 1.000000 -1.000000
      SOFFS 0.00000000000000 0.00000000000000
      PLAYRATE 1.00000000000000 1 0.00000000000000 -1
      CHANMODE 0
      GUID {A5C79C6A-F83B-4B11-A9B5-626736E4E9F1}
      <SOURCE MIDI
        HASDATA 1 480 QN
        POOLEDEVTS {BABB2B4D-DFF4-4652-81D0-E16C28D97955}
        <X 0 0
          /wNQQVJUIEtFWVM=
        >
        <X 5760 0
          /wFbaWRsZV0=
        >
        <X 15840 0
          /wFbcGxheV0=
        >
        E 240 90 54 60
        E 0 90 60 60
        E 120 80 54 00
        E 0 80 60 00
        E 0 90 61 60
        E 120 80 61 00
        E 0 90 3d 60
        E 0 90 49 60
        E 0 90 56 60
        E 0 90 62 60
        E 120 80 3d 00
        E 360 80 49 00
        E 120 80 56 00
        E 0 80 62 00
        E 120 90 55 60
        E 0 90 61 60
        E 120 80 55 00
        E 0 80 61 00
        E 0 90 62 60
        E 120 80 62 00
        E 0 90 3e 60
        E 0 90 4a 60
        E 0 90 57 60
        E 0 90 63 60
        E 720 80 3e 00
        E 240 80 4a 00
        E 360 80 57 00
        E 0 80 63 00
        E 120 90 4b 60
        E 0 90 58 60
        E 0 90 64 60
        E 120 80 4b 00
        E 240 80 58 00
        E 0 80 64 00
        E 120 90 3d 60
        E 0 90 4a 60
        E 0 90 56 60
        E 0 90 62 60
        E 2400 80 3d 00
        E 240 80 4a 00
        E 360 80 56 00
        E 0 80 62 00
        E 120 90 3c 60
        E 0 90 48 60
        E 0 90 54 60
        E 0 90 60 60
        E 120 80 3c 00
        E 0 80 48 00
        E 480 80 54 00
        E 0 80 60 00
        E 120 90 3c 60
        E 0 90 49 60
        E 0 90 55 60
        E 0 90 61 60
        E 960 80 3c 00
        E 240 80 49 00
        E 360 80 55 00
        E 0 80 61 00
        E 120 90 4b 60
        E 0 90 58 60
        E 0 90 64 60
        E 120 80 4b 00
        E 0 80 58 00
        E 0 80 64 00
        E 120 90 3e 60
        E 0 90 4a 60
        E 0 90 57 60
        E 0 90 63 60
        E 0 90 74 60
        E 120 80 3e 00
        E 600 80 4a 00
        E 360 80 57 00
        E 0 80 63 00
        E 120 90 3c 60
        E 0 90 49 60
        E 0 90 55 60
        E 0 90 61 60
        E 120 80 3c 00
        E 0 80 49 00
        E 480 80 55 00
        E 0 80 61 00
        E 120 90 3c 60
        E 0 90 48 60
        E 0 90 54 60
        E 0 90 60 60
        E 960 80 74 00
        E 2880 80 3c 00
        E 0 80 48 00
        E 0 80 54 00
        E 0 80 60 00
        E 720 90 54 60
        E 0 90 60 60
        E 120 80 54 00
        E 0 80 60 00
        E 0 90 61 60
        E 120 80 61 00
        E 0 90 3c 60
        E 0 90 49 60
        E 0 90 56 60
        E 0 90 62 60
        E 120 80 3c 00
        E 0 80 49 00
        E 240 80 56 00
        E 0 80 62 00
        E 120 90 48 60
        E 0 90 55 60
        E 0 90 61 60
        E 120 80 48 00
        E 240 80 55 00
        E 0 80 61 00
        E 120 90 3d 60
        E 0 90 4a 60
        E 0 90 57 60
        E 0 90 63 60
        E 120 80 3d 00
        E 0 80 4a 00
        E 240 80 57 00
        E 0 80 63 00
        E 120 90 4b 60
        E 0 90 58 60
        E 0 90 64 60
        E 120 80 4b 00
        E 240 80 58 00
        E 0 80 64 00
        E 120 90 3d 60
        E 0 90 4a 60
        E 0 90 57 60
        E 0 90 63 60
        E 120 80 3d 00
        E 0 80 4a 00
        E 240 80 57 00
        E 0 80 63 00
        E 120 90 49 60
        E 0 90 56 60
        E 0 90 62 60
        E 120 80 49 00
        E 240 80 56 00
        E 0 80 62 00
        E 120 90 3c 60
        E 0 90 49 60
        E 0 90 55 60
        E 0 90 61 60
        E 2880 80 3c 00
        E 0 80 49 00
        E 120 80 55 00
        E 0 80 61 00
        E 120 90 54 60
        E 0 90 60 60
        E 120 80 54 00
        E 0 80 60 00
        E 120 90 55 60
        E 0 90 61 60
        E 120 80 55 00
        E 0 80 61 00
        E 120 90 3c 60
        E 0 90 49 60
        E 0 90 54 60
        E 0 90 60 60
        E 1200 80 3c 00
        E 240 80 49 00
        E 360 80 54 00
        E 0 80 60 00
        E 120 90 3d 60
        E 0 90 4a 60
        E 0 90 56 60
        E 0 90 62 60
        E 120 80 3d 00
        E 0 80 4a 00
        E 240 80 56 00
        E 0 80 62 00
        E 120 90 49 60
        E 0 90 55 60
        E 0 90 61 60
        E 120 80 49 00
        E 480 80 55 00
        E 0 80 61 00
        E 120 90 3e 60
        E 0 90 4b 60
        E 0 90 58 60
        E 0 90 64 60
        E 120 80 3e 00
        E 0 80 4b 00
        E 720 80 58 00
        E 0 80 64 00
        E 120 90 3d 60
        E 0 90 4a 60
        E 0 90 57 60
        E 0 90 63 60
        E 3840 80 3d 00
        E 0 80 4a 00
        E 0 80 57 00
        E 0 80 63 00
        E 720 90 54 60
        E 0 90 60 60
        E 120 80 54 00
        E 0 80 60 00
        E 0 90 61 60
        E 120 80 61 00
        E 0 90 3d 60
        E 0 90 49 60
        E 0 90 56 60
        E 0 90 62 60
        E 0 90 74 60
        E 120 80 3d 00
        E 360 80 49 00
        E 120 80 56 00
        E 0 80 62 00
        E 120 90 55 60
        E 0 90 61 60
        E 120 80 55 00
        E 0 80 61 00
        E 0 90 62 60
        E 120 80 62 00
        E 0 90 3e 60
        E 0 90 4a 60
        E 0 90 57 60
        E 0 90 63 60
        E 720 80 3e 00
        E 240 80 4a 00
        E 360 80 57 00
        E 0 80 63 00
        E 120 90 4b 60
        E 0 90 58 60
        E 0 90 64 60
        E 120 80 4b 00
        E 240 80 58 00
        E 0 80 64 00
        E 120 80 74 00
        E 0 90 3d 60
        E 0 90 4a 60
        E 0 90 56 60
        E 0 90 62 60
        E 2400 80 3d 00
        E 240 80 4a 00
        E 360 80 56 00
        E 0 80 62 00
        E 120 90 3c 60
        E 0 90 48 60
        E 0 90 54 60
        E 0 90 60 60
        E 120 80 3c 00
        E 0 80 48 00
        E 480 80 54 00
        E 0 80 60 00
        E 120 90 3c 60
        E 0 90 49 60
        E 0 90 55 60
        E 0 90 61 60
        E 1200 80 3c 00
        E 0 80 49 00
        E 360 80 55 00
        E 0 80 61 00
        E 120 90 4b 60
        E 0 90 58 60
        E 0 90 64 60
        E 120 80 4b 00
        E 0 80 58 00
        E 0 80 64 00
        E 120 90 3e 60
        E 0 90 4a 60
        E 0 90 57 60
        E 0 90 63 60
        E 120 80 3e 00
        E 600 80 4a 00
        E 360 80 57 00
        E 0 80 63 00
        E 120 90 3c 60
        E 0 90 49 60
        E 0 90 55 60
        E 0 90 61 60
        E 120 80 3c 00
        E 0 80 49 00
        E 480 80 55 00
        E 0 80 61 00
        E 120 90 3c 60
        E 0 90 48 60
        E 0 90 54 60
        E 0 90 60 60
        <X 3840 0
          /wFbaW50ZW5zZV0=
        >
        E 0 80 3c 00
        E 0 80 48 00
        E 0 80 54 00
        E 0 80 60 00
        E 720 90 54 60
        E 0 90 60 60
        E 0 90 74 60
        E 120 80 54 00
        E 0 80 60 00
        E 0 90 61 60
        E 120 80 61 00
        E 0 90 3c 60
        E 0 90 49 60
        E 0 90 56 60
        E 0 90 62 60
        E 120 80 3c 00
        E 0 80 49 00
        E 240 80 56 00
        E 0 80 62 00
        E 120 90 48 60
        E 0 90 55 60
        E 0 90 61 60
        E 120 80 48 00
        E 240 80 55 00
        E 0 80 61 00
        E 120 90 3d 60
        E 0 90 4a 60
        E 0 90 57 60
        E 0 90 63 60
        E 120 80 3d 00
        E 0 80 4a 00
        E 240 80 57 00
        E 0 80 63 00
        E 120 90 4b 60
        E 0 90 58 60
        E 0 90 64 60
        E 120 80 4b 00
        E 240 80 58 00
        E 0 80 64 00
        E 120 90 3d 60
        E 0 90 4a 60
        E 0 90 57 60
        E 0 90 63 60
        E 120 80 3d 00
        E 0 80 4a 00
        E 240 80 57 00
        E 0 80 63 00
        E 120 90 49 60
        E 0 90 56 60
        E 0 90 62 60
        E 120 80 49 00
        E 120 80 74 00
        E 120 80 56 00
        E 0 80 62 00
        E 120 90 3c 60
        E 0 90 49 60
        E 0 90 55 60
        E 0 90 61 60
        E 2880 80 3c 00
        E 0 80 49 00
        E 120 80 55 00
        E 0 80 61 00
        E 120 90 54 60
        E 0 90 60 60
        E 120 80 54 00
        E 0 80 60 00
        E 120 90 55 60
        E 0 90 61 60
        E 120 80 55 00
        E 0 80 61 00
        E 120 90 3c 60
        E 0 90 49 60
        E 0 90 54 60
        E 0 90 60 60
        E 1200 80 3c 00
        E 240 80 49 00
        E 360 80 54 00
        E 0 80 60 00
        E 120 90 3d 60
        E 0 90 4a 60
        E 0 90 56 60
        E 0 90 62 60
        E 120 80 3d 00
        E 0 80 4a 00
        E 240 80 56 00
        E 0 80 62 00
        E 120 90 49 60
        E 0 90 55 60
        E 0 90 61 60
        E 120 80 49 00
        E 480 80 55 00
        E 0 80 61 00
        E 120 90 3e 60
        E 0 90 4b 60
        E 0 90 58 60
        E 0 90 64 60
        E 120 80 3e 00
        E 0 80 4b 00
        E 720 80 58 00
        E 0 80 64 00
        E 120 90 3d 60
        E 0 90 4a 60
        E 0 90 57 60
        E 0 90 63 60
        E 3840 80 3d 00
        E 0 80 4a 00
        E 0 80 57 00
        E 0 80 63 00
        E 720 90 56 60
        E 0 90 62 60
        E 120 80 56 00
        E 0 80 62 00
        E 0 90 63 60
        E 120 80 63 00
        E 0 90 3e 60
        E 0 90 4b 60
        E 0 90 58 60
        E 0 90 64 60
        E 1200 80 3e 00
        E 240 80 4b 00
        E 0 80 58 00
        E 0 80 64 00
        E 240 90 56 60
        E 0 90 62 60
        E 120 80 56 00
        E 0 80 62 00
        E 0 90 63 60
        E 120 80 63 00
        E 0 90 3e 60
        E 0 90 4b 60
        E 0 90 58 60
        E 0 90 64 60
        E 120 80 3e 00
        E 360 80 4b 00
        E 120 80 58 00
        E 0 80 64 00
        E 120 90 55 60
        E 0 90 61 60
        E 120 80 55 00
        E 0 80 61 00
        E 120 90 3e 60
        E 0 90 4b 60
        E 0 90 58 60
        E 0 90 64 60
        E 120 80 3e 00
        E 0 80 4b 00
        E 720 80 58 00
        E 0 80 64 00
        E 120 90 3d 60
        E 0 90 4a 60
        E 0 90 57 60
        E 0 90 63 60
        E 2880 80 3d 00
        E 0 80 4a 00
        E 0 80 57 00
        E 0 80 63 00
        E 720 90 56 60
        E 0 90 62 60
        E 0 90 74 60
        E 120 80 56 00
        E 0 80 62 00
        E 0 90 63 60
        E 120 80 63 00
        E 0 90 3e 60
        E 0 90 4b 60
        E 0 90 58 60
        E 0 90 64 60
        E 1200 80 3e 00
        E 240 80 4b 00
        E 0 80 58 00
        E 0 80 64 00
        E 240 90 56 60
        E 0 90 62 60
        E 120 80 56 00
        E 0 80 62 00
        E 0 90 63 60
        E 120 80 63 00
        E 0 90 3e 60
        E 0 90 4b 60
        E 0 90 58 60
        E 0 90 64 60
        E 120 80 3e 00
        E 0 80 4b 00
        E 0 80 58 00
        E 0 80 64 00
        E 240 90 63 60
        E 120 80 63 00
        E 0 90 4a 60
        E 0 90 56 60
        E 0 90 62 60
        E 120 80 4a 00
        E 240 80 56 00
        E 0 80 62 00
        E 120 90 3c 60
        E 0 90 49 60
        E 0 90 55 60
        E 0 90 61 60
        E 240 80 74 00
        E 960 80 3c 00
        E 240 80 49 00
        E 360 80 55 00
        E 0 80 61 00
        E 120 90 3d 60
        E 0 90 48 60
        E 0 90 54 60
        E 0 90 60 60
        E 120 80 3d 00
        E 0 80 48 00
        E 720 80 54 00
        E 0 80 60 00
        E 120 90 3e 60
        E 0 90 49 60
        E 0 90 55 60
        E 0 90 61 60
        E 120 80 3e 00
        E 840 80 49 00
        E 0 80 55 00
        E 0 80 61 00
        E 720 90 54 60
        E 0 90 60 60
        E 120 80 54 00
        E 0 80 60 00
        E 0 90 61 60
        E 120 80 61 00
        E 0 90 3c 60
        E 0 90 49 60
        E 0 90 56 60
        E 0 90 62 60
        E 120 80 3c 00
        E 0 80 49 00
        E 240 80 56 00
        E 0 80 62 00
        E 120 90 48 60
        E 0 90 55 60
        E 0 90 61 60
        E 120 80 48 00
        E 240 80 55 00
        E 0 80 61 00
        E 120 90 3d 60
        E 0 90 4a 60
        E 0 90 57 60
        E 0 90 63 60
        E 120 80 3d 00
        E 0 80 4a 00
        E 240 80 57 00
        E 0 80 63 00
        E 120 90 4b 60
        E 0 90 58 60
        E 0 90 64 60
        E 120 80 4b 00
        E 240 80 58 00
        E 0 80 64 00
        E 120 90 3d 60
        E 0 90 4a 60
        E 0 90 57 60
        E 0 90 63 60
        E 120 80 3d 00
        E 0 80 4a 00
        E 240 80 57 00
        E 0 80 63 00
        E 120 90 49 60
        E 0 90 56 60
        E 0 90 62 60
        E 120 80 49 00
        E 240 80 56 00
        E 0 80 62 00
        E 120 90 3c 60
        E 0 90 49 60
        E 0 90 55 60
        E 0 90 61 60
        E 2880 80 3c 00
        E 0 80 49 00
        E 120 80 55 00
        E 0 80 61 00
        E 120 90 54 60
        E 0 90 60 60
        E 120 80 54 00
        E 0 80 60 00
        E 120 90 55 60
        E 0 90 61 60
        E 120 80 55 00
        E 0 80 61 00
        E 120 90 3c 60
        E 0 90 49 60
        E 0 90 54 60
        E 0 90 60 60
        E 1439 80 3c 00
        E 1 80 49 00
        E 360 80 54 00
        E 0 80 60 00
        E 120 90 3d 60
        E 0 90 4a 60
        E 0 90 56 60
        E 0 90 62 60
        E 0 90 74 60
        E 120 80 3d 00
        E 0 80 4a 00
        E 240 80 56 00
        E 0 80 62 00
        E 120 90 49 60
        E 0 90 55 60
        E 0 90 61 60
        E 120 80 49 00
        E 480 80 55 00
        E 0 80 61 00
        E 120 90 3e 60
        E 0 90 4b 60
        E 0 90 58 60
        E 0 90 64 60
        E 120 80 3e 00
        E 0 80 4b 00
        E 720 80 58 00
        E 0 80 64 00
        E 120 90 3d 60
        E 0 90 4a 60
        E 0 90 57 60
        E 0 90 63 60
        E 960 80 74 00
        <X 2880 0
          /wFbcGxheV0=
        >
        E 0 80 3d 00
        E 0 80 4a 00
        E 0 80 57 00
        E 0 80 63 00
        E 720 90 54 60
        E 0 90 60 60
        E 120 80 54 00
        E 0 80 60 00
        E 0 90 61 60
        E 120 80 61 00
        E 0 90 3d 60
        E 0 90 49 60
        E 0 90 56 60
        E 0 90 62 60
        E 120 80 3d 00
        E 360 80 49 00
        E 120 80 56 00
        E 0 80 62 00
        E 120 90 55 60
        E 0 90 61 60
        E 120 80 55 00
        E 0 80 61 00
        E 0 90 62 60
        E 120 80 62 00
        E 0 90 3e 60
        E 0 90 4a 60
        E 0 90 57 60
        E 0 90 63 60
        E 960 80 3e 00
        E 0 80 4a 00
        E 360 80 57 00
        E 0 80 63 00
        E 120 90 4b 60
        E 0 90 58 60
        E 0 90 64 60
        E 120 80 4b 00
        E 240 80 58 00
        E 0 80 64 00
        E 120 90 3d 60
        E 0 90 4a 60
        E 0 90 56 60
        E 0 90 62 60
        E 2400 80 3d 00
        E 240 80 4a 00
        E 360 80 56 00
        E 0 80 62 00
        E 120 90 3c 60
        E 0 90 48 60
        E 0 90 54 60
        E 0 90 60 60
        E 120 80 3c 00
        E 0 80 48 00
        E 480 80 54 00
        E 0 80 60 00
        E 120 90 3c 60
        E 0 90 49 60
        E 0 90 55 60
        E 0 90 61 60
        E 1200 80 3c 00
        E 0 80 49 00
        E 360 80 55 00
        E 0 80 61 00
        E 120 90 4b 60
        E 0 90 58 60
        E 0 90 64 60
        E 120 80 4b 00
        E 0 80 58 00
        E 0 80 64 00
        E 120 90 3e 60
        E 0 90 4a 60
        E 0 90 57 60
        E 0 90 63 60
        E 120 80 3e 00
        E 600 80 4a 00
        E 360 80 57 00
        E 0 80 63 00
        E 120 90 3c 60
        E 0 90 49 60
        E 0 90 55 60
        E 0 90 61 60
        E 120 80 3c 00
        E 0 80 49 00
        E 480 80 55 00
        E 0 80 61 00
        E 120 90 3c 60
        E 0 90 48 60
        E 0 90 54 60
        E 0 90 60 60
        <X 3839 0
          /wFbaWRsZV9yZWFsdGltZV0=
        >
        E 0 80 3c 00
        E 0 80 48 00
        E 0 80 54 00
        E 0 80 60 00
        E 15360 b0 7b 00
        GUID {392FA187-F890-467D-8066-94EE4D99D512}
        IGNTEMPO 0 120.00000000 4 4
        SRCCOLOR 6
        VELLANE 132 128 60
        COLORMAP "C:\Program Files\REAPER (x64)\Data\color_maps\rockband_guitarbass.png"
        CFGEDITVIEW -1262.504100 69.848485 0 14 0 0 0
        CFGEDIT 1 1 0 1 1 0 1 1 1 1 1 0.25000000 -8 -8 1544 872 0 2 1 1 0.00000000 0 1 1 0 0.500000 0 0 1.000000 64
        KEYSNAP 0 6 "102030050700" 0 "Pentatonic"
        EVTFILTER 0 -1 -1 -1 -1 0 1 0 0 -1.00000000 -1.00000000
      >
    >
  >
  <TRACK '{365DBF1B-BB5C-4F2E-87D9-2E261172F9CF}'
    NAME "PART REAL_KEYS_X"
    PEAKCOL 16576
    BEAT -1
    AUTOMODE 0
    VOLPAN 1.00000000000000 0.00000000000000 -1.00000000000000 -1.00000000000000 1.00000000000000
    MUTESOLO 0 0 0
    IPHASE 0
    ISBUS 0 0
    BUSCOMP 0 0
    SHOWINMIX 1 0.666700 0.500000 1 0.500000 -1 -1 -1
    FREEMODE 0
    SEL 0
    REC 0 0 0 0 0 0 0
    VU 2
    TRACKHEIGHT 0 0
    INQ 0 0 0 0.5000000000 100 0 0 100
    NCHAN 2
    FX 0
    TRACKID {365DBF1B-BB5C-4F2E-87D9-2E261172F9CF}
    PERF 0
    MIDIOUT -1
    <MIDINOTENAMES
      0 127 "TRILL MARKER"
      0 126 "GLISSANDO MARKER"
      0 125 "---"
      0 116 "OVERDRIVE"
      0 115 "SOLO"
      0 114 "---"
      0 72 "Highest playable note B#3"
      0 71 "B3"
      0 70 "A#3"
      0 69 "A3"
      0 68 "G#3"
      0 67 "G3"
      0 66 "F#3"
      0 65 "F3"
      0 64 "E3"
      0 63 "D#3"
      0 62 "D3"
      0 61 "C#3"
      0 60 "C3"
      0 59 "B2"
      0 58 "A#2"
      0 57 "A2"
      0 56 "G#2"
      0 55 "G2"
      0 54 "F#2"
      0 53 "F2"
      0 52 "E2"
      0 51 "D#2"
      0 50 "D2"
      0 49 "C#2"
      0 48 "Lowest playable note C2"
      0 10 "---"
      0 9 "Range A2-C4"
      0 8 "Range"
      0 7 "Range"
      0 6 "Range"
      0 5 "Range F2-A3"
      0 4 "Range"
      0 3 "Range"
      0 2 "Range"
      0 1 "Range"
      0 0 "Range C2-E3"
    >
    MAINSEND 1 0
    <FXCHAIN
      WNDRECT 0 43 655 467
      SHOW 0
      LASTSEL 1
      DOCKED 0
      BYPASS 0 0
      <JS "MIDI/midi_note_filter" ""
        48.000000 72.000000 - - - - - - - - - - - - - - - - - - - - - - - - - - - - - - - - - - - - - - - - - - - - - - - - - - - - - - - - - - - - - - 
      >
      FLOATPOS 0 0 0 0
      FXID {C19706B9-6270-4934-A0F7-865EB0C30F6A}
      WAK 0
      BYPASS 0 0
      <VST "VSTi: ReaSynth (Cockos)" "reasynth.dll" 0 ""
        eXNlcu9e7f4AAAAAAgAAAAEAAAAAAAAAAgAAAAAAAAA4AAAAAAAAAA==
        AAAQAO++rd4N8K3eppvEOxe30ToAAIA/AAAAAAAAAADMm4A+6WeIPQ==
        AAAAAAAAAD8AAIA/AACAPwAAAD8AABAAAAA=
      >
      FLOATPOS 0 0 0 0
      FXID {22FFF59E-38CA-4327-A0A4-7BA55CA90177}
      WAK 0
    >
    <ITEM
      POSITION 0.00000000000000
      SNAPOFFS 0.00000000000000
      LENGTH 119.20500000000000
      LOOP 0
      ALLTAKES 0
      SEL 0
      FADEIN 1 0.000000 0.000000 1 0
      FADEOUT 1 0.000000 0.000000 1 0
      MUTE 0
      IGUID {832D54F2-BBFC-4CDB-8160-B685D75D33A2}
      IID 5
      NAME "PART REAL_KEYS_X"
      VOLPAN 1.000000 0.000000 1.000000 -1.000000
      SOFFS 0.00000000000000 0.00000000000000
      PLAYRATE 1.00000000000000 1 0.00000000000000 -1
      CHANMODE 0
      GUID {AACCF98B-C1D6-4977-B079-EE6D723BF9C6}
      <SOURCE MIDI
        HASDATA 1 480 QN
        POOLEDEVTS {1613727A-2420-418C-996D-7CC9AA9AAD35}
        <X 0 0
          /wNQQVJUIFJFQUxfS0VZU19Y
        >
        E 0 90 09 60
        E 120 80 09 00
        <X 21000 0
          /wFbYmVnaW5fa2V5IHNvbmdfdHJhaW5lcl9rZXlfMV0=
        >
        E 720 90 3d 60
        E 120 80 3d 00
        E 0 90 40 60
        E 120 80 40 00
        E 0 90 42 60
        E 600 80 42 00
        E 120 90 40 60
        E 120 80 40 00
        E 0 90 42 60
        E 120 80 42 00
        E 0 90 45 60
        E 1320 80 45 00
        E 120 90 47 60
        E 360 80 47 00
        E 120 90 42 60
        E 3000 80 42 00
        E 120 90 3b 60
        E 600 80 3b 00
        E 120 90 3d 60
        E 1560 80 3d 00
        E 120 90 42 60
        E 120 80 42 00
        E 120 90 40 60
        E 0 90 74 60
        E 1080 80 40 00
        E 120 90 3d 60
        E 600 80 3d 00
        E 120 90 39 60
        E 960 80 74 00
        <X 2880 0
          /wFbZW5kX2tleSBzb25nX3RyYWluZXJfa2V5XzFd
        >
        <X 0 0
          /wFbYmVnaW5fa2V5IHNvbmdfdHJhaW5lcl9rZXlfMl0=
        >
        E 0 80 39 00
        E 720 90 39 60
        E 120 80 39 00
        E 0 90 3b 60
        E 120 80 3b 00
        E 0 90 3d 60
        E 360 80 3d 00
        E 120 90 40 60
        E 360 80 40 00
        E 120 90 42 60
        E 360 80 42 00
        E 120 90 45 60
        E 360 80 45 00
        E 120 90 42 60
        E 360 80 42 00
        E 120 90 40 60
        E 360 80 40 00
        E 120 90 3b 60
        E 3000 80 3b 00
        E 120 90 39 60
        E 120 80 39 00
        E 120 90 3b 60
        E 120 80 3b 00
        E 120 90 39 60
        E 1800 80 39 00
        E 120 90 42 60
        E 360 80 42 00
        E 120 90 40 60
        E 600 80 40 00
        E 120 90 47 60
        E 840 80 47 00
        E 120 90 45 60
        <X 3840 0
          /wFbZW5kX2tleSBzb25nX3RyYWluZXJfa2V5XzJd
        >
        E 0 80 45 00
        E 720 90 3d 60
        E 120 80 3d 00
        E 0 90 40 60
        E 120 80 40 00
        E 0 90 42 60
        E 0 90 74 60
        E 600 80 42 00
        E 120 90 40 60
        E 120 80 40 00
        E 0 90 42 60
        E 120 80 42 00
        E 0 90 45 60
        E 1320 80 45 00
        E 120 90 47 60
        E 360 80 47 00
        E 120 80 74 00
        E 0 90 42 60
        E 3000 80 42 00
        E 120 90 3b 60
        E 600 80 3b 00
        E 120 90 3d 60
        E 1560 80 3d 00
        E 120 90 42 60
        E 120 80 42 00
        E 120 90 40 60
        E 1080 80 40 00
        E 120 90 3d 60
        E 600 80 3d 00
        E 120 90 39 60
        E 3840 80 39 00
        E 720 90 39 60
        E 0 90 74 60
        E 120 80 39 00
        E 0 90 3b 60
        E 120 80 3b 00
        E 0 90 3d 60
        E 360 80 3d 00
        E 120 90 40 60
        E 360 80 40 00
        E 120 90 42 60
        E 360 80 42 00
        E 120 90 45 60
        E 360 80 45 00
        E 120 90 42 60
        E 360 80 42 00
        E 120 90 40 60
        E 240 80 74 00
        E 120 80 40 00
        E 120 90 3b 60
        E 3000 80 3b 00
        E 120 90 39 60
        E 120 80 39 00
        E 120 90 3b 60
        E 120 80 3b 00
        E 120 90 39 60
        E 1800 80 39 00
        E 120 90 42 60
        E 360 80 42 00
        E 120 90 40 60
        E 600 80 40 00
        E 120 90 47 60
        E 840 80 47 00
        E 120 90 45 60
        E 1920 90 05 60
        E 120 80 05 00
        <X 1800 0
          /wFbYmVnaW5fa2V5IHNvbmdfdHJhaW5lcl9rZXlfM10=
        >
        E 0 80 45 00
        E 720 90 36 60
        E 120 80 36 00
        E 0 90 39 60
        E 120 80 39 00
        E 0 90 3b 60
        E 1440 80 3b 00
        E 240 90 36 60
        E 120 80 36 00
        E 0 90 39 60
        E 120 80 39 00
        E 0 90 3b 60
        E 600 80 3b 00
        E 120 90 3d 60
        E 120 80 3d 00
        E 120 90 3b 60
        E 840 80 3b 00
        E 120 90 39 60
        E 960 90 00 60
        E 120 80 00 00
        E 1800 80 39 00
        E 720 90 36 60
        E 0 90 74 60
        E 120 80 36 00
        E 0 90 39 60
        E 120 80 39 00
        E 0 90 3b 60
        E 1440 80 3b 00
        E 240 90 36 60
        E 120 80 36 00
        E 0 90 39 60
        E 120 80 39 00
        E 0 90 3b 60
        E 120 80 3b 00
        E 240 90 39 60
        E 120 80 39 00
        E 0 90 36 60
        E 360 80 36 00
        E 120 90 34 60
        E 240 80 74 00
        E 1560 80 34 00
        E 120 90 31 60
        E 840 80 31 00
        E 120 90 34 60
        <X 960 0
          /wFbZW5kX2tleSBzb25nX3RyYWluZXJfa2V5XzNd
        >
        E 0 80 34 00
        E 0 90 05 60
        E 120 80 05 00
        E 600 90 39 60
        E 120 80 39 00
        E 0 90 3b 60
        E 120 80 3b 00
        E 0 90 3d 60
        E 360 80 3d 00
        E 120 90 40 60
        E 360 80 40 00
        E 120 90 42 60
        E 360 80 42 00
        E 120 90 45 60
        E 360 80 45 00
        E 120 90 42 60
        E 360 80 42 00
        E 120 90 40 60
        E 360 80 40 00
        E 120 90 3b 60
        E 3000 80 3b 00
        E 120 90 39 60
        E 120 80 39 00
        E 120 90 3b 60
        E 120 80 3b 00
        E 120 90 39 60
        E 240 90 09 60
        E 120 80 09 00
        E 1440 80 39 00
        E 120 90 42 60
        E 0 90 74 60
        E 360 80 42 00
        E 120 90 40 60
        E 600 80 40 00
        E 120 90 47 60
        E 840 80 47 00
        E 120 90 45 60
        E 960 80 74 00
        E 2880 80 45 00
        E 720 90 3d 60
        E 120 80 3d 00
        E 0 90 40 60
        E 120 80 40 00
        E 0 90 42 60
        E 600 80 42 00
        E 120 90 40 60
        E 120 80 40 00
        E 0 90 42 60
        E 120 80 42 00
        E 0 90 45 60
        E 1320 80 45 00
        E 120 90 47 60
        E 360 80 47 00
        E 120 90 42 60
        E 3000 80 42 00
        E 120 90 3b 60
        E 600 80 3b 00
        E 120 90 3d 60
        E 1560 80 3d 00
        E 120 90 42 60
        E 120 80 42 00
        E 120 90 40 60
        E 1080 80 40 00
        E 120 90 3d 60
        E 600 80 3d 00
        E 120 90 39 60
        E 3835 80 39 00
        E 15364 b0 7b 00
        GUID {3D6793DA-497B-4994-BC87-9D32C96D0204}
        IGNTEMPO 0 120.00000000 4 4
        SRCCOLOR 7
        VELLANE 132 128 60
        COLORMAP "C:\Program Files\REAPER (x64)\Data\color_maps\rockband_guitarbass.png"
        CFGEDITVIEW -1262.504100 69.848485 0 13 0 0 0
        CFGEDIT 1 1 0 1 1 0 1 1 1 1 1 0.25000000 -8 -8 1544 872 0 2 1 1 0.00000000 0 1 1 0 0.500000 0 0 1.000000 64
        KEYSNAP 0 6 "102030050700" 0 "Pentatonic"
        EVTFILTER 0 -1 -1 -1 -1 0 1 0 0 -1.00000000 -1.00000000
      >
    >
  >
  <TRACK '{8807F116-1B2B-4E57-AC0E-F481B61F03CF}'
    NAME "PART REAL_KEYS_H"
    PEAKCOL 16576
    BEAT -1
    AUTOMODE 0
    VOLPAN 1.00000000000000 0.00000000000000 -1.00000000000000 -1.00000000000000 1.00000000000000
    MUTESOLO 0 0 0
    IPHASE 0
    ISBUS 0 0
    BUSCOMP 0 0
    SHOWINMIX 1 0.666700 0.500000 1 0.500000 -1 -1 -1
    FREEMODE 0
    SEL 0
    REC 0 0 0 0 0 0 0
    VU 2
    TRACKHEIGHT 0 0
    INQ 0 0 0 0.5000000000 100 0 0 100
    NCHAN 2
    FX 1
    TRACKID {8807F116-1B2B-4E57-AC0E-F481B61F03CF}
    PERF 0
    MIDIOUT -1
    <MIDINOTENAMES
      0 72 "Highest playable note B#3"
      0 71 "B3"
      0 70 "A#3"
      0 69 "A3"
      0 68 "G#3"
      0 67 "G3"
      0 66 "F#3"
      0 65 "F3"
      0 64 "E3"
      0 63 "D#3"
      0 62 "D3"
      0 61 "C#3"
      0 60 "C3"
      0 59 "B2"
      0 58 "A#2"
      0 57 "A2"
      0 56 "G#2"
      0 55 "G2"
      0 54 "F#2"
      0 53 "F2"
      0 52 "E2"
      0 51 "D#2"
      0 50 "D2"
      0 49 "C#2"
      0 48 "Lowest playable note C2"
      0 10 "---"
      0 9 "Range A2-C4"
      0 8 "Range"
      0 7 "Range"
      0 6 "Range"
      0 5 "Range F2-A3"
      0 4 "Range"
      0 3 "Range"
      0 2 "Range"
      0 1 "Range"
      0 0 "Range C2-E3"
    >
    MAINSEND 1 0
    <FXCHAIN
      SHOW 0
      LASTSEL 0
      DOCKED 0
    >
    <ITEM
      POSITION 0.00000000000000
      SNAPOFFS 0.00000000000000
      LENGTH 119.20500000000000
      LOOP 0
      ALLTAKES 0
      SEL 0
      FADEIN 1 0.000000 0.000000 1 0
      FADEOUT 1 0.000000 0.000000 1 0
      MUTE 0
      IGUID {BEFB5684-1C59-46AE-8464-472A5FF0F611}
      IID 6
      NAME "PART REAL_KEYS_H"
      VOLPAN 1.000000 0.000000 1.000000 -1.000000
      SOFFS 0.00000000000000 0.00000000000000
      PLAYRATE 1.00000000000000 1 0.00000000000000 -1
      CHANMODE 0
      GUID {C01E77AB-6533-42C1-AC56-0A4D8A581A43}
      <SOURCE MIDI
        HASDATA 1 480 QN
        POOLEDEVTS {D2A0632A-82D5-4259-8E00-EB4784424B5D}
        <X 0 0
          /wNQQVJUIFJFQUxfS0VZU19I
        >
        E 0 90 09 60
        E 120 80 09 00
        E 21720 90 3d 60
        E 120 80 3d 00
        E 120 90 42 60
        E 600 80 42 00
        E 360 90 45 60
        E 1200 80 45 00
        E 240 90 47 60
        E 120 80 47 00
        E 360 90 42 60
        E 2640 80 42 00
        E 480 90 3b 60
        E 120 80 3b 00
        E 600 90 3d 60
        E 1560 80 3d 00
        E 360 90 40 60
        E 960 80 40 00
        E 240 90 3d 60
        E 120 80 3d 00
        E 600 90 39 60
        E 3840 80 39 00
        E 960 90 3d 60
        E 120 80 3d 00
        E 360 90 40 60
        E 120 80 40 00
        E 360 90 42 60
        E 120 80 42 00
        E 360 90 45 60
        E 120 80 45 00
        E 360 90 42 60
        E 120 80 42 00
        E 840 90 3b 60
        E 2640 80 3b 00
        E 480 90 39 60
        E 120 80 39 00
        E 120 90 3b 60
        E 120 80 3b 00
        E 120 90 39 60
        E 1800 80 39 00
        E 120 90 42 60
        E 120 80 42 00
        E 360 90 40 60
        E 600 80 40 00
        E 120 90 47 60
        E 120 80 47 00
        E 840 90 45 60
        E 3840 80 45 00
        E 960 90 42 60
        E 600 80 42 00
        E 360 90 45 60
        E 1200 80 45 00
        E 240 90 47 60
        E 120 80 47 00
        E 360 90 42 60
        E 2640 80 42 00
        E 480 90 3b 60
        E 120 80 3b 00
        E 600 90 3d 60
        E 1560 80 3d 00
        E 360 90 40 60
        E 960 80 40 00
        E 240 90 3d 60
        E 120 80 3d 00
        E 600 90 39 60
        E 3840 80 39 00
        E 960 90 3d 60
        E 120 80 3d 00
        E 360 90 40 60
        E 120 80 40 00
        E 360 90 42 60
        E 120 80 42 00
        E 360 90 45 60
        E 120 80 45 00
        E 360 90 42 60
        E 120 80 42 00
        E 840 90 3b 60
        E 2640 80 3b 00
        E 480 90 39 60
        E 120 80 39 00
        E 120 90 3b 60
        E 120 80 3b 00
        E 120 90 39 60
        E 1800 80 39 00
        E 120 90 42 60
        E 120 80 42 00
        E 360 90 40 60
        E 600 80 40 00
        E 120 90 47 60
        E 120 80 47 00
        E 840 90 45 60
        E 1920 90 05 60
        E 120 80 05 00
        E 1800 80 45 00
        E 720 90 36 60
        E 120 80 36 00
        E 120 90 3b 60
        E 1440 80 3b 00
        E 480 90 3b 60
        E 120 80 3b 00
        E 600 90 3d 60
        E 120 80 3d 00
        E 120 90 3b 60
        E 120 80 3b 00
        E 840 90 39 60
        E 960 90 00 60
        E 120 80 00 00
        E 1800 80 39 00
        E 720 90 36 60
        E 120 80 36 00
        E 120 90 3b 60
        E 1440 80 3b 00
        E 480 90 3b 60
        E 120 80 3b 00
        E 360 90 36 60
        E 120 80 36 00
        E 360 90 34 60
        E 1680 80 34 00
        E 240 90 31 60
        E 480 80 31 00
        E 480 90 34 60
        E 480 80 34 00
        E 480 90 05 60
        E 120 80 05 00
        E 840 90 3d 60
        E 120 80 3d 00
        E 360 90 40 60
        E 120 80 40 00
        E 360 90 42 60
        E 120 80 42 00
        E 360 90 45 60
        E 120 80 45 00
        E 360 90 42 60
        E 120 80 42 00
        E 360 90 40 60
        E 120 80 40 00
        E 360 90 3b 60
        E 2640 80 3b 00
        E 480 90 39 60
        E 120 80 39 00
        E 120 90 3b 60
        E 120 80 3b 00
        E 120 90 39 60
        E 240 90 09 60
        E 120 80 09 00
        E 1440 80 39 00
        E 120 90 42 60
        E 120 80 42 00
        E 360 90 40 60
        E 600 80 40 00
        E 120 90 47 60
        E 120 80 47 00
        E 840 90 45 60
        E 3840 80 45 00
        E 720 90 3d 60
        E 120 80 3d 00
        E 120 90 42 60
        E 600 80 42 00
        E 360 90 45 60
        E 1200 80 45 00
        E 240 90 47 60
        E 120 80 47 00
        E 360 90 42 60
        E 2640 80 42 00
        E 480 90 3b 60
        E 120 80 3b 00
        E 600 90 3d 60
        E 1560 80 3d 00
        E 360 90 40 60
        E 960 80 40 00
        E 240 90 3d 60
        E 120 80 3d 00
        E 600 90 39 60
        E 3839 80 39 00
        E 15360 b0 7b 00
        GUID {6310D2F7-E7A1-4DCE-BAAC-48420061C1E5}
        IGNTEMPO 0 120.00000000 4 4
        SRCCOLOR 8
        VELLANE 132 128 60
        COLORMAP "C:\Program Files\REAPER (x64)\Data\color_maps\rockband_guitarbass.png"
        CFGEDITVIEW -1262.504100 69.848485 1 15 0 0 0
        CFGEDIT 1 1 0 1 1 0 1 1 1 1 1 0.25000000 -8 -8 1544 872 0 2 1 1 0.00000000 0 1 1 0 0.500000 0 0 1.000000 64
        KEYSNAP 0 6 "102030050700" 0 "Pentatonic"
        EVTFILTER 0 -1 -1 -1 -1 0 1 0 0 -1.00000000 -1.00000000
      >
    >
  >
  <TRACK '{DBD74174-7F74-44B4-A6CD-1B5D287D854D}'
    NAME "PART REAL_KEYS_M"
    PEAKCOL 16576
    BEAT -1
    AUTOMODE 0
    VOLPAN 1.00000000000000 0.00000000000000 -1.00000000000000 -1.00000000000000 1.00000000000000
    MUTESOLO 0 0 0
    IPHASE 0
    ISBUS 0 0
    BUSCOMP 0 0
    SHOWINMIX 1 0.666700 0.500000 1 0.500000 -1 -1 -1
    FREEMODE 0
    SEL 0
    REC 0 0 0 0 0 0 0
    VU 2
    TRACKHEIGHT 0 0
    INQ 0 0 0 0.5000000000 100 0 0 100
    NCHAN 2
    FX 1
    TRACKID {DBD74174-7F74-44B4-A6CD-1B5D287D854D}
    PERF 0
    MIDIOUT -1
    <MIDINOTENAMES
      0 72 "Highest playable note B#3"
      0 71 "B3"
      0 70 "A#3"
      0 69 "A3"
      0 68 "G#3"
      0 67 "G3"
      0 66 "F#3"
      0 65 "F3"
      0 64 "E3"
      0 63 "D#3"
      0 62 "D3"
      0 61 "C#3"
      0 60 "C3"
      0 59 "B2"
      0 58 "A#2"
      0 57 "A2"
      0 56 "G#2"
      0 55 "G2"
      0 54 "F#2"
      0 53 "F2"
      0 52 "E2"
      0 51 "D#2"
      0 50 "D2"
      0 49 "C#2"
      0 48 "Lowest playable note C2"
      0 10 "---"
      0 9 "Range A2-C4"
      0 8 "Range"
      0 7 "Range"
      0 6 "Range"
      0 5 "Range F2-A3"
      0 4 "Range"
      0 3 "Range"
      0 2 "Range"
      0 1 "Range"
      0 0 "Range C2-E3"
    >
    MAINSEND 1 0
    <FXCHAIN
      SHOW 0
      LASTSEL 0
      DOCKED 0
    >
    <ITEM
      POSITION 0.00000000000000
      SNAPOFFS 0.00000000000000
      LENGTH 119.20500000000000
      LOOP 0
      ALLTAKES 0
      SEL 0
      FADEIN 1 0.000000 0.000000 1 0
      FADEOUT 1 0.000000 0.000000 1 0
      MUTE 0
      IGUID {BF38B0EA-8B44-44BA-BF63-8E393EF19582}
      IID 7
      NAME "PART REAL_KEYS_M"
      VOLPAN 1.000000 0.000000 1.000000 -1.000000
      SOFFS 0.00000000000000 0.00000000000000
      PLAYRATE 1.00000000000000 1 0.00000000000000 -1
      CHANMODE 0
      GUID {96140389-4A74-4AD0-AB58-EB70D077FB14}
      <SOURCE MIDI
        HASDATA 1 480 QN
        POOLEDEVTS {749B9745-A265-4C8F-8938-D95350B5072C}
        <X 0 0
          /wNQQVJUIFJFQUxfS0VZU19N
        >
        E 0 90 09 60
        E 120 80 09 00
        E 21960 90 42 60
        E 120 80 42 00
        E 840 90 45 60
        E 960 80 45 00
        E 960 90 42 60
        E 2160 80 42 00
        E 960 90 3b 60
        E 120 80 3b 00
        E 600 90 3d 60
        E 960 80 3d 00
        E 960 90 40 60
        E 960 80 40 00
        E 960 90 39 60
        E 3840 80 39 00
        E 960 90 3d 60
        E 120 80 3d 00
        E 840 90 42 60
        E 120 80 42 00
        E 840 90 42 60
        E 120 80 42 00
        E 840 90 3b 60
        E 2160 80 3b 00
        E 1440 90 39 60
        E 960 80 39 00
        E 1440 90 40 60
        E 120 80 40 00
        E 1560 90 45 60
        E 3840 80 45 00
        E 960 90 42 60
        E 120 80 42 00
        E 840 90 45 60
        E 960 80 45 00
        E 960 90 42 60
        E 2160 80 42 00
        E 960 90 3b 60
        E 120 80 3b 00
        E 600 90 3d 60
        E 959 80 3d 00
        E 961 90 40 60
        E 960 80 40 00
        E 960 90 39 60
        E 3840 80 39 00
        E 960 90 3d 60
        E 120 80 3d 00
        E 840 90 42 60
        E 120 80 42 00
        E 840 90 42 60
        E 120 80 42 00
        E 840 90 3b 60
        E 2160 80 3b 00
        E 1440 90 39 60
        E 959 80 39 00
        E 1441 90 40 60
        E 120 80 40 00
        E 1560 90 45 60
        E 2880 80 45 00
        E 1920 90 3b 60
        E 1440 80 3b 00
        E 480 90 3b 60
        E 120 80 3b 00
        E 840 90 3b 60
        E 120 80 3b 00
        E 840 90 39 60
        E 2880 80 39 00
        E 960 90 3b 60
        E 1440 80 3b 00
        E 480 90 3b 60
        E 120 80 3b 00
        E 840 90 40 60
        E 1200 80 40 00
        E 720 90 3d 60
        E 120 80 3d 00
        E 840 90 40 60
        E 120 80 40 00
        E 1800 90 3d 60
        E 120 80 3d 00
        E 840 90 42 60
        E 120 80 42 00
        E 840 90 42 60
        E 120 80 42 00
        E 840 90 3b 60
        E 2160 80 3b 00
        E 1440 90 39 60
        E 960 80 39 00
        E 1440 90 40 60
        E 120 80 40 00
        E 1560 90 45 60
        E 3840 80 45 00
        E 960 90 42 60
        E 120 80 42 00
        E 840 90 45 60
        E 960 80 45 00
        E 960 90 42 60
        E 2160 80 42 00
        E 960 90 3b 60
        E 120 80 3b 00
        E 600 90 3d 60
        E 960 80 3d 00
        E 960 90 40 60
        E 960 80 40 00
        E 960 90 39 60
        E 3839 80 39 00
        E 15360 b0 7b 00
        GUID {EAD10929-9297-403D-9DDA-25E633CF2141}
        IGNTEMPO 0 120.00000000 4 4
        SRCCOLOR 9
        VELLANE 132 128 60
        COLORMAP "C:\Program Files\REAPER (x64)\Data\color_maps\rockband_guitarbass.png"
        CFGEDITVIEW -1262.504100 69.848485 0 15 0 0 0
        CFGEDIT 1 1 0 1 1 0 1 1 1 1 1 0.25000000 -8 -8 1544 872 0 2 1 1 0.00000000 0 1 1 0 0.500000 0 0 1.000000 64
        KEYSNAP 0 6 "102030050700" 0 "Pentatonic"
        EVTFILTER 0 -1 -1 -1 -1 0 1 0 0 -1.00000000 -1.00000000
      >
    >
  >
  <TRACK '{6D3C9DCB-87A1-409B-8CBF-620F5274F438}'
    NAME "PART REAL_KEYS_E"
    PEAKCOL 16576
    BEAT -1
    AUTOMODE 0
    VOLPAN 1.00000000000000 0.00000000000000 -1.00000000000000 -1.00000000000000 1.00000000000000
    MUTESOLO 0 0 0
    IPHASE 0
    ISBUS 0 0
    BUSCOMP 0 0
    SHOWINMIX 1 0.666700 0.500000 1 0.500000 -1 -1 -1
    FREEMODE 0
    SEL 0
    REC 0 0 0 0 0 0 0
    VU 2
    TRACKHEIGHT 0 0
    INQ 0 0 0 0.5000000000 100 0 0 100
    NCHAN 2
    FX 1
    TRACKID {6D3C9DCB-87A1-409B-8CBF-620F5274F438}
    PERF 0
    MIDIOUT -1
    <MIDINOTENAMES
      0 72 "Highest playable note B#3"
      0 71 "B3"
      0 70 "A#3"
      0 69 "A3"
      0 68 "G#3"
      0 67 "G3"
      0 66 "F#3"
      0 65 "F3"
      0 64 "E3"
      0 63 "D#3"
      0 62 "D3"
      0 61 "C#3"
      0 60 "C3"
      0 59 "B2"
      0 58 "A#2"
      0 57 "A2"
      0 56 "G#2"
      0 55 "G2"
      0 54 "F#2"
      0 53 "F2"
      0 52 "E2"
      0 51 "D#2"
      0 50 "D2"
      0 49 "C#2"
      0 48 "Lowest playable note C2"
      0 10 "---"
      0 9 "Range A2-C4"
      0 8 "Range"
      0 7 "Range"
      0 6 "Range"
      0 5 "Range F2-A3"
      0 4 "Range"
      0 3 "Range"
      0 2 "Range"
      0 1 "Range"
      0 0 "Range C2-E3"
    >
    MAINSEND 1 0
    <FXCHAIN
      SHOW 0
      LASTSEL 0
      DOCKED 0
    >
    <ITEM
      POSITION 0.00000000000000
      SNAPOFFS 0.00000000000000
      LENGTH 119.20500000000000
      LOOP 0
      ALLTAKES 0
      SEL 0
      FADEIN 1 0.000000 0.000000 1 0
      FADEOUT 1 0.000000 0.000000 1 0
      MUTE 0
      IGUID {B95D1D1B-D9DC-40B6-8435-B9615453AACC}
      IID 8
      NAME "PART REAL_KEYS_E"
      VOLPAN 1.000000 0.000000 1.000000 -1.000000
      SOFFS 0.00000000000000 0.00000000000000
      PLAYRATE 1.00000000000000 1 0.00000000000000 -1
      CHANMODE 0
      GUID {FD9B226C-FBC4-460D-8795-9B4103DA7732}
      <SOURCE MIDI
        HASDATA 1 480 QN
        POOLEDEVTS {DCCDF4EA-9A7E-477B-B92B-AF1A3DE87622}
        <X 0 0
          /wNQQVJUIFJFQUxfS0VZU19F
        >
        E 0 90 09 60
        E 120 80 09 00
        E 21960 90 42 60
        E 120 80 42 00
        E 840 90 45 60
        E 120 80 45 00
        E 1800 90 42 60
        E 1920 80 42 00
        E 1920 90 3d 60
        E 120 80 3d 00
        E 1800 90 40 60
        E 120 80 40 00
        E 1800 90 39 60
        E 3840 80 39 00
        E 1920 90 42 60
        E 120 80 42 00
        E 1800 90 3b 60
        E 1680 80 3b 00
        E 1920 90 39 60
        E 120 80 39 00
        E 2280 90 40 60
        E 120 80 40 00
        E 1560 90 45 60
        E 2880 80 45 00
        E 1920 90 42 60
        E 120 80 42 00
        E 840 90 45 60
        E 120 80 45 00
        E 1800 90 42 60
        E 1920 80 42 00
        E 1920 90 3d 60
        E 120 80 3d 00
        E 1800 90 40 60
        E 120 80 40 00
        E 1800 90 39 60
        E 3840 80 39 00
        E 1920 90 42 60
        E 120 80 42 00
        E 1800 90 3b 60
        E 1680 80 3b 00
        E 1920 90 39 60
        E 120 80 39 00
        E 2280 90 40 60
        E 120 80 40 00
        E 1560 90 45 60
        E 2880 80 45 00
        E 1920 90 3b 60
        E 1440 80 3b 00
        E 2400 90 39 60
        E 2880 80 39 00
        E 960 90 3b 60
        E 120 80 3b 00
        E 2760 90 40 60
        E 120 80 40 00
        E 2760 90 40 60
        E 120 80 40 00
        E 2760 90 42 60
        E 120 80 42 00
        E 1800 90 3b 60
        E 1680 80 3b 00
        E 1920 90 39 60
        E 120 80 39 00
        E 2280 90 40 60
        E 120 80 40 00
        E 1560 90 45 60
        E 2880 80 45 00
        E 1920 90 42 60
        E 120 80 42 00
        E 840 90 45 60
        E 120 80 45 00
        E 1800 90 42 60
        E 1920 80 42 00
        E 1920 90 3d 60
        E 120 80 3d 00
        E 1800 90 40 60
        E 120 80 40 00
        E 1800 90 39 60
        E 3839 80 39 00
        E 15360 b0 7b 00
        GUID {909C5819-E4CD-43D0-82CE-FB52D659A43A}
        IGNTEMPO 0 120.00000000 4 4
        SRCCOLOR 10
        VELLANE 132 128 60
        COLORMAP "C:\Program Files\REAPER (x64)\Data\color_maps\rockband_guitarbass.png"
        CFGEDITVIEW -1262.504100 69.848485 0 15 0 0 0
        CFGEDIT 1 1 0 1 1 0 1 1 1 1 1 0.25000000 -8 -8 1544 872 0 2 1 1 0.00000000 0 1 1 0 0.500000 0 0 1.000000 64
        KEYSNAP 0 6 "102030050700" 0 "Pentatonic"
        EVTFILTER 0 -1 -1 -1 -1 0 1 0 0 -1.00000000 -1.00000000
      >
    >
  >
  <TRACK '{7A513380-39B5-4E94-8ECD-1DAE9C6EB7AE}'
    NAME "PART KEYS_ANIM_RH"
    PEAKCOL 16576
    BEAT -1
    AUTOMODE 0
    VOLPAN 1.00000000000000 0.00000000000000 -1.00000000000000 -1.00000000000000 1.00000000000000
    MUTESOLO 0 0 0
    IPHASE 0
    ISBUS 0 0
    BUSCOMP 0 0
    SHOWINMIX 1 0.666700 0.500000 1 0.500000 -1 -1 -1
    FREEMODE 0
    SEL 0
    REC 0 0 0 0 0 0 0
    VU 2
    TRACKHEIGHT 0 0
    INQ 0 0 0 0.5000000000 100 0 0 100
    NCHAN 2
    FX 1
    TRACKID {7A513380-39B5-4E94-8ECD-1DAE9C6EB7AE}
    PERF 0
    MIDIOUT -1
    <MIDINOTENAMES
      0 72 "Highest playable note B#3"
      0 71 "B3"
      0 70 "A#3"
      0 69 "A3"
      0 68 "G#3"
      0 67 "G3"
      0 66 "F#3"
      0 65 "F3"
      0 64 "E3"
      0 63 "D#3"
      0 62 "D3"
      0 61 "C#3"
      0 60 "C3"
      0 59 "B2"
      0 58 "A#2"
      0 57 "A2"
      0 56 "G#2"
      0 55 "G2"
      0 54 "F#2"
      0 53 "F2"
      0 52 "E2"
      0 51 "D#2"
      0 50 "D2"
      0 49 "C#2"
      0 48 "Lowest playable note C2"
    >
    MAINSEND 1 0
    <FXCHAIN
      SHOW 0
      LASTSEL 0
      DOCKED 0
    >
    <ITEM
      POSITION 0.00000000000000
      SNAPOFFS 0.00000000000000
      LENGTH 119.20500000000000
      LOOP 0
      ALLTAKES 0
      SEL 0
      FADEIN 1 0.000000 0.000000 1 0
      FADEOUT 1 0.000000 0.000000 1 0
      MUTE 0
      IGUID {1EB230EF-9EC0-423B-9CB0-6CD4785DCE38}
      IID 9
      NAME "PART KEYS_ANIM_RH"
      VOLPAN 1.000000 0.000000 1.000000 -1.000000
      SOFFS 0.00000000000000 0.00000000000000
      PLAYRATE 1.00000000000000 1 0.00000000000000 -1
      CHANMODE 0
      GUID {10A56504-44CF-4D56-B7DA-885315EBB427}
      <SOURCE MIDI
        HASDATA 1 480 QN
        POOLEDEVTS {EB76DBC5-8CA6-4DE9-9706-4445835142BD}
        <X 0 0
          /wNQQVJUIEtFWVNfQU5JTV9SSA==
        >
        E 21840 90 3d 60
        E 120 80 3d 00
        E 0 90 40 60
        E 120 80 40 00
        E 0 90 42 60
        E 600 80 42 00
        E 120 90 40 60
        E 120 80 40 00
        E 0 90 42 60
        E 120 80 42 00
        E 0 90 45 60
        E 1320 80 45 00
        E 120 90 47 60
        E 360 80 47 00
        E 120 90 42 60
        E 3000 80 42 00
        E 120 90 3b 60
        E 600 80 3b 00
        E 120 90 3d 60
        E 1560 80 3d 00
        E 120 90 42 60
        E 120 80 42 00
        E 120 90 40 60
        E 1080 80 40 00
        E 120 90 3d 60
        E 600 80 3d 00
        E 120 90 39 60
        E 3840 80 39 00
        E 720 90 39 60
        E 120 80 39 00
        E 0 90 3b 60
        E 120 80 3b 00
        E 0 90 3d 60
        E 360 80 3d 00
        E 120 90 40 60
        E 360 80 40 00
        E 120 90 42 60
        E 360 80 42 00
        E 120 90 45 60
        E 360 80 45 00
        E 120 90 42 60
        E 360 80 42 00
        E 120 90 40 60
        E 360 80 40 00
        E 120 90 3b 60
        E 3000 80 3b 00
        E 120 90 39 60
        E 120 80 39 00
        E 120 90 3b 60
        E 120 80 3b 00
        E 120 90 39 60
        E 1800 80 39 00
        E 120 90 42 60
        E 360 80 42 00
        E 120 90 40 60
        E 600 80 40 00
        E 120 90 47 60
        E 840 80 47 00
        E 120 90 45 60
        E 3840 80 45 00
        E 720 90 3d 60
        E 120 80 3d 00
        E 0 90 40 60
        E 120 80 40 00
        E 0 90 42 60
        E 600 80 42 00
        E 120 90 40 60
        E 120 80 40 00
        E 0 90 42 60
        E 120 80 42 00
        E 0 90 45 60
        E 1320 80 45 00
        E 120 90 47 60
        E 360 80 47 00
        E 120 90 42 60
        E 3000 80 42 00
        E 120 90 3b 60
        E 600 80 3b 00
        E 120 90 3d 60
        E 1560 80 3d 00
        E 120 90 42 60
        E 120 80 42 00
        E 120 90 40 60
        E 1080 80 40 00
        E 120 90 3d 60
        E 600 80 3d 00
        E 120 90 39 60
        E 3840 80 39 00
        E 720 90 39 60
        E 120 80 39 00
        E 0 90 3b 60
        E 120 80 3b 00
        E 0 90 3d 60
        E 360 80 3d 00
        E 120 90 40 60
        E 360 80 40 00
        E 120 90 42 60
        E 360 80 42 00
        E 120 90 45 60
        E 360 80 45 00
        E 120 90 42 60
        E 360 80 42 00
        E 120 90 40 60
        E 360 80 40 00
        E 120 90 3b 60
        E 3000 80 3b 00
        E 120 90 39 60
        E 120 80 39 00
        E 120 90 3b 60
        E 120 80 3b 00
        E 120 90 39 60
        E 1800 80 39 00
        E 120 90 42 60
        E 360 80 42 00
        E 120 90 40 60
        E 600 80 40 00
        E 120 90 47 60
        E 840 80 47 00
        E 120 90 45 60
        E 3840 80 45 00
        E 720 90 36 60
        E 120 80 36 00
        E 0 90 39 60
        E 120 80 39 00
        E 0 90 3b 60
        E 1440 80 3b 00
        E 240 90 36 60
        E 120 80 36 00
        E 0 90 39 60
        E 120 80 39 00
        E 0 90 3b 60
        E 600 80 3b 00
        E 120 90 3d 60
        E 120 80 3d 00
        E 120 90 3b 60
        E 840 80 3b 00
        E 120 90 39 60
        E 2880 80 39 00
        E 720 90 36 60
        E 120 80 36 00
        E 0 90 39 60
        E 120 80 39 00
        E 0 90 3b 60
        E 1440 80 3b 00
        E 240 90 36 60
        E 120 80 36 00
        E 0 90 39 60
        E 120 80 39 00
        E 0 90 3b 60
        E 120 80 3b 00
        E 120 90 39 60
        E 120 80 39 00
        E 120 90 36 60
        E 360 80 36 00
        E 120 90 34 60
        E 1800 80 34 00
        E 120 90 31 60
        E 840 80 31 00
        E 120 90 34 60
        E 960 80 34 00
        E 720 90 39 60
        E 120 80 39 00
        E 0 90 3b 60
        E 120 80 3b 00
        E 0 90 3d 60
        E 360 80 3d 00
        E 120 90 40 60
        E 360 80 40 00
        E 120 90 42 60
        E 360 80 42 00
        E 120 90 45 60
        E 360 80 45 00
        E 120 90 42 60
        E 360 80 42 00
        E 120 90 40 60
        E 360 80 40 00
        E 120 90 3b 60
        E 3000 80 3b 00
        E 120 90 39 60
        E 120 80 39 00
        E 120 90 3b 60
        E 120 80 3b 00
        E 120 90 39 60
        E 1800 80 39 00
        E 120 90 42 60
        E 360 80 42 00
        E 120 90 40 60
        E 600 80 40 00
        E 120 90 47 60
        E 840 80 47 00
        E 120 90 45 60
        E 3840 80 45 00
        E 720 90 3d 60
        E 120 80 3d 00
        E 0 90 40 60
        E 120 80 40 00
        E 0 90 42 60
        E 600 80 42 00
        E 120 90 40 60
        E 120 80 40 00
        E 0 90 42 60
        E 120 80 42 00
        E 0 90 45 60
        E 1320 80 45 00
        E 120 90 47 60
        E 360 80 47 00
        E 120 90 42 60
        E 3000 80 42 00
        E 120 90 3b 60
        E 600 80 3b 00
        E 120 90 3d 60
        E 1560 80 3d 00
        E 120 90 42 60
        E 120 80 42 00
        E 120 90 40 60
        E 1080 80 40 00
        E 120 90 3d 60
        E 600 80 3d 00
        E 120 90 39 60
        E 3835 80 39 00
        E 15364 b0 7b 00
        GUID {BA616395-BD52-4AC0-AF85-8C0DEC313CE9}
        IGNTEMPO 0 120.00000000 4 4
        SRCCOLOR 11
        VELLANE 132 128 60
        COLORMAP "C:\Program Files\REAPER (x64)\Data\color_maps\rockband_guitarbass.png"
        CFGEDITVIEW -1262.504100 69.848485 1 22 0 0 0
        CFGEDIT 1 1 0 1 1 0 1 1 1 1 1 0.25000000 -8 -8 1544 872 0 2 1 1 0.00000000 0 1 1 0 0.500000 0 0 1.000000 64
        KEYSNAP 0 6 "102030050700" 0 "Pentatonic"
        EVTFILTER 0 -1 -1 -1 -1 0 1 0 0 -1.00000000 -1.00000000
      >
    >
  >
  <TRACK '{0DA6F426-7CEA-45E8-811C-6FE17B642FC8}'
    NAME "keys"
    PEAKCOL 16576
    BEAT -1
    AUTOMODE 0
    VOLPAN 1.00000000000000 0.00000000000000 -1.00000000000000 -1.00000000000000 1.00000000000000
    MUTESOLO 0 0 0
    IPHASE 0
    ISBUS 2 -1
    BUSCOMP 0 0
    SHOWINMIX 1 0.666700 0.500000 1 0.500000 -1 -1 -1
    FREEMODE 0
    SEL 0
    REC 0 0 0 0 0 0 0
    VU 2
    TRACKHEIGHT 0 0
    INQ 0 0 0 0.5000000000 100 0 0 100
    NCHAN 2
    FX 1
    TRACKID {0DA6F426-7CEA-45E8-811C-6FE17B642FC8}
    PERF 0
    MIDIOUT -1
    MAINSEND 1 0
    <ITEM
      POSITION 0.00000000000000
      SNAPOFFS 0.00000000000000
      LENGTH 119.20500000000000
      LOOP 0
      ALLTAKES 0
      SEL 0
      FADEIN 1 0.000000 0.000000 1 0
      FADEOUT 1 0.000000 0.000000 1 0
      MUTE 0
      IGUID {E511F5DF-D9A7-4A85-9575-CA960B305BF8}
      IID 20
      NAME "keys.wav"
      VOLPAN 1.000000 0.000000 1.000000 -1.000000
      SOFFS 0.00000000000000
      PLAYRATE 1.00000000000000 1 0.00000000000000 -1
      CHANMODE 0
      GUID {4443622A-7D17-4D99-9767-4F970E4B4E3C}
      <SOURCE WAVE
        FILE "wav\keys.wav"
      >
    >
  >
  <TRACK '{8EC3928D-350D-42D0-9C00-BACAAABA9F4E}'
    NAME "PART REAL_BASS"
    PEAKCOL 16576
    BEAT -1
    AUTOMODE 0
    VOLPAN 1.00000000000000 0.00000000000000 -1.00000000000000 -1.00000000000000 1.00000000000000
    MUTESOLO 0 0 0
    IPHASE 0
    ISBUS 0 0
    BUSCOMP 0 0
    SHOWINMIX 1 0.666700 0.500000 1 0.500000 -1 -1 -1
    FREEMODE 0
    SEL 0
    REC 0 0 0 0 0 0 0
    VU 2
    TRACKHEIGHT 0 0
    INQ 0 0 0 0.5000000000 100 0 0 100
    NCHAN 2
    FX 0
    TRACKID {8EC3928D-350D-42D0-9C00-BACAAABA9F4E}
    PERF 0
    MIDIOUT -1
    <MIDINOTENAMES
      0 127 "Trill Marker"
      0 126 "Tremolo Marker"
      0 125 "BRE"
      0 124 "BRE"
      0 123 "BRE"
      0 122 "BRE"
      0 121 "BRE"
      0 120 "BRE (use all 6)"
      0 119 "-----------"
      0 116 "OVERDRIVE"
      0 115 "Solo Marker"
      0 109 "-----------"
      0 108 "Fret Hand Position"
      0 107 "Force Chord Numbering"
      0 106 "Loose Strumming"
      0 105 "Strum Direction"
      0 104 "Arpeggio Marker"
      0 103 "Slide Marker"
      0 102 "Force HOPO"
      0 101 "EXPERT e String"
      0 100 "EXPERT B String"
      0 99 "EXPERT G String"
      0 98 "EXPERT D String"
      0 97 "EXPERT A String"
      0 96 "EXPERT E String"
      0 95 "-----------"
      0 82 "Loose Strumming"
      0 81 "Strum Direction"
      0 80 "Arpeggio Marker"
      0 79 "Slide Marker"
      0 78 "Force HOPO"
      0 77 "HARD e String"
      0 76 "HARD B String"
      0 75 "HARD G String"
      0 74 "HARD D String"
      0 73 "HARD A String"
      0 72 "HARD E String"
      0 71 "-----------"
      0 58 "Loose Strumming"
      0 56 "Arpeggio Marker"
      0 55 "Slide Marker"
      0 53 "MEDIUM e String"
      0 52 "MEDIUM B String"
      0 51 "MEDIUM G String"
      0 50 "MEDIUM D String"
      0 49 "MEDIUM A String"
      0 48 "MEDIUM E String"
      0 47 "-----------"
      0 32 "Arpeggio Marker"
      0 31 "Slide Marker"
      0 29 "EASY e String"
      0 28 "EASY B String"
      0 27 "EASY G String"
      0 26 "EASY D String"
      0 25 "EASY A String"
      0 24 "EASY E String"
      0 21 "-----------"
      0 18 "Flat/Sharp Swap"
      0 17 "Hide Chord Names"
      0 16 "Slash Chord"
      0 15 "D#"
      0 14 "D"
      0 13 "C#"
      0 12 "C"
      0 11 "B"
      0 10 "A#"
      0 9 "A"
      0 8 "G#"
      0 7 "G"
      0 6 "F#"
      0 5 "F"
      0 4 "E"
    >
    MAINSEND 1 0
    <FXCHAIN
      WNDRECT 0 43 655 467
      SHOW 0
      LASTSEL 2
      DOCKED 0
      BYPASS 0 0
      <JS "c3/progtr" ""
        0.000000 3.000000 0.000000 0.000000 0.000000 0.000000 0.000000 0.000000 0.000000 1.000000 - - - - - - - - - - - - - - - - - - - - - - - - - - - - - - - - - - - - - - - - - - - - - - - - - - - - - - 
      >
      FLOATPOS 0 0 0 0
      FXID {768A6859-614C-4B2B-BB58-340BDE5600A7}
      WAK 0
      BYPASS 0 0
      <JS "MIDI/midi_transpose" ""
        -12.000000 1.000000 0.000000 127.000000 - - - - - - - - - - - - - - - - - - - - - - - - - - - - - - - - - - - - - - - - - - - - - - - - - - - - - - - - - - - - 
      >
      FLOATPOS 0 0 0 0
      FXID {8F7BBFCA-EF4E-40CD-8082-A05291534AFA}
      WAK 0
      BYPASS 0 0
      <VST "VSTi: ReaSynth (Cockos)" "reasynth.dll" 0 ""
        eXNlcu9e7f4AAAAAAgAAAAEAAAAAAAAAAgAAAAAAAAA4AAAAAAAAAA==
        AAAQAO++rd4N8K3eppvEO+gJMjwAAAAAAAAAAAAAgD8AAIA/4jAEPA==
        AAAAAAAAAD+01hM+j8L1PQAAAD8AABAAAAA=
      >
      FLOATPOS 0 0 0 0
      FXID {11923C29-263A-4886-95BD-60F030FAC9B0}
      WAK 0
    >
    <ITEM
      POSITION 0.00000000000000
      SNAPOFFS 0.00000000000000
      LENGTH 119.20500000000000
      LOOP 0
      ALLTAKES 0
      SEL 0
      FADEIN 1 0.000000 0.000000 1 0
      FADEOUT 1 0.000000 0.000000 1 0
      MUTE 0
      IGUID {B010DD55-499A-473C-AD87-C335EFC2F644}
      IID 11
      NAME "PART REAL_BASS"
      VOLPAN 1.000000 0.000000 1.000000 -1.000000
      SOFFS 0.00000000000000 0.00000000000000
      PLAYRATE 1.00000000000000 1 0.00000000000000 -1
      CHANMODE 0
      GUID {6711C3E8-847E-436D-ACFC-C867EC0C968F}
      <SOURCE MIDI
        HASDATA 1 480 QN
        POOLEDEVTS {B4AFF5FB-8558-4C01-BD74-404345B4A8D5}
        <X 0 0
          /wNQQVJUIFJFQUxfQkFTUw==
        >
        <X 5760 0
          /wFbYmVnaW5fcGIgc29uZ190cmFpbmVyX3BiXzFd
        >
        E 0 90 18 69
        E 0 90 30 69
        E 0 90 48 69
        E 0 90 60 69
        E 0 90 6c 69
        E 120 80 18 00
        E 0 80 30 00
        E 0 80 48 00
        E 0 80 60 00
        E 0 80 6c 00
        E 120 90 48 69
        E 0 90 60 69
        E 120 80 48 00
        E 0 80 60 00
        E 120 90 48 69
        E 0 90 60 69
        E 120 80 48 00
        E 0 80 60 00
        E 120 90 30 69
        E 0 90 48 69
        E 0 90 60 69
        E 120 80 30 00
        E 0 80 48 00
        E 0 80 60 00
        <X 1080 0
          /wFbcGJfbm9ybSBzb25nX3RyYWluZXJfcGJfMV0=
        >
        E 0 90 18 69
        E 0 90 30 69
        E 0 90 48 69
        E 0 90 60 69
        E 120 80 18 00
        E 0 80 30 00
        E 0 80 48 00
        E 0 80 60 00
        E 120 90 48 69
        E 0 90 60 69
        E 120 80 48 00
        E 0 80 60 00
        E 120 90 48 69
        E 0 90 60 69
        E 120 80 48 00
        E 0 80 60 00
        E 120 90 30 69
        E 0 90 48 69
        E 0 90 60 69
        E 120 80 30 00
        E 0 80 48 00
        E 0 80 60 00
        E 1080 90 19 69
        E 0 90 31 69
        E 0 90 49 69
        E 0 90 61 69
        E 120 80 19 00
        E 0 80 31 00
        E 0 80 49 00
        E 0 80 61 00
        E 120 90 49 69
        E 0 90 61 69
        E 120 80 49 00
        E 0 80 61 00
        E 120 90 49 69
        E 0 90 61 69
        E 120 80 49 00
        E 0 80 61 00
        E 120 90 31 69
        E 0 90 49 69
        E 0 90 61 69
        E 120 80 31 00
        E 0 80 49 00
        E 0 80 61 00
        E 1080 90 19 69
        E 0 90 31 69
        E 0 90 49 69
        E 0 90 61 69
        E 120 80 19 00
        E 0 80 31 00
        E 0 80 49 00
        E 0 80 61 00
        E 120 90 49 69
        E 0 90 61 69
        E 120 80 49 00
        E 0 80 61 00
        E 120 90 49 69
        E 0 90 61 69
        E 120 80 49 00
        E 0 80 61 00
        E 120 90 31 69
        E 0 90 49 69
        E 0 90 61 69
        E 120 80 31 00
        E 0 80 49 00
        E 0 80 61 00
        <X 1080 0
          /wFbZW5kX3BiIHNvbmdfdHJhaW5lcl9wYl8xXQ==
        >
        E 0 90 18 69
        E 0 90 30 69
        E 0 90 48 69
        E 0 90 60 69
        E 0 90 74 64
        E 120 80 18 00
        E 0 80 30 00
        E 0 80 48 00
        E 0 80 60 00
        E 120 90 48 69
        E 0 90 60 69
        E 120 80 48 00
        E 0 80 60 00
        E 120 90 48 69
        E 0 90 60 69
        E 120 80 48 00
        E 0 80 60 00
        E 120 90 30 69
        E 0 90 48 69
        E 0 90 60 69
        E 120 80 30 00
        E 0 80 48 00
        E 0 80 60 00
        E 1080 90 18 69
        E 0 90 30 69
        E 0 90 48 69
        E 0 90 60 69
        E 120 80 18 00
        E 0 80 30 00
        E 0 80 48 00
        E 0 80 60 00
        E 120 90 48 69
        E 0 90 60 69
        E 120 80 48 00
        E 0 80 60 00
        E 120 90 48 69
        E 0 90 60 69
        E 120 80 48 00
        E 0 80 60 00
        E 120 90 30 69
        E 0 90 48 69
        E 0 90 60 69
        E 120 80 30 00
        E 0 80 48 00
        E 0 80 60 00
        E 120 80 74 00
        E 960 90 19 69
        E 0 90 31 69
        E 0 90 49 69
        E 0 90 61 69
        E 120 80 19 00
        E 0 80 31 00
        E 0 80 49 00
        E 0 80 61 00
        E 120 90 49 69
        E 0 90 61 69
        E 120 80 49 00
        E 0 80 61 00
        E 120 90 49 69
        E 0 90 61 69
        E 120 80 49 00
        E 0 80 61 00
        E 120 90 31 69
        E 0 90 49 69
        E 0 90 61 69
        E 120 80 31 00
        E 0 80 49 00
        E 0 80 61 00
        E 1080 90 19 69
        E 0 90 31 69
        E 0 90 49 69
        E 0 90 61 69
        E 120 80 19 00
        E 0 80 31 00
        E 0 80 49 00
        E 0 80 61 00
        E 120 90 49 69
        E 0 90 61 69
        E 120 80 49 00
        E 0 80 61 00
        E 120 90 49 69
        E 0 90 61 69
        E 120 80 49 00
        E 0 80 61 00
        E 120 90 31 69
        E 0 90 49 69
        E 0 90 61 69
        E 120 80 31 00
        E 0 80 49 00
        E 0 80 61 00
        E 1080 90 18 69
        E 0 90 30 69
        E 0 90 48 69
        E 0 90 60 69
        E 120 80 18 00
        E 0 80 30 00
        E 0 80 48 00
        E 0 80 60 00
        E 120 90 48 69
        E 0 90 60 69
        E 120 80 48 00
        E 0 80 60 00
        E 120 90 48 69
        E 0 90 60 69
        E 120 80 48 00
        E 0 80 60 00
        E 120 90 30 69
        E 0 90 48 69
        E 0 90 60 69
        E 120 80 30 00
        E 0 80 48 00
        E 0 80 60 00
        E 1080 90 18 69
        E 0 90 30 69
        E 0 90 48 69
        E 0 90 60 69
        E 120 80 18 00
        E 0 80 30 00
        E 0 80 48 00
        E 0 80 60 00
        E 120 90 48 69
        E 0 90 60 69
        E 120 80 48 00
        E 0 80 60 00
        E 120 90 48 69
        E 0 90 60 69
        E 120 80 48 00
        E 0 80 60 00
        E 120 90 30 69
        E 0 90 48 69
        E 0 90 60 69
        E 120 80 30 00
        E 0 80 48 00
        E 0 80 60 00
        E 1080 90 19 69
        E 0 90 31 69
        E 0 90 49 69
        E 0 90 61 69
        E 120 80 19 00
        E 0 80 31 00
        E 0 80 49 00
        E 0 80 61 00
        E 120 90 49 69
        E 0 90 61 69
        E 120 80 49 00
        E 0 80 61 00
        E 120 90 49 69
        E 0 90 61 69
        E 120 80 49 00
        E 0 80 61 00
        E 120 90 31 69
        E 0 90 49 69
        E 0 90 61 69
        E 120 80 31 00
        E 0 80 49 00
        E 0 80 61 00
        E 1080 90 19 69
        E 0 90 31 69
        E 0 90 49 69
        E 0 90 61 69
        E 120 80 19 00
        E 0 80 31 00
        E 0 80 49 00
        E 0 80 61 00
        E 120 90 49 69
        E 0 90 61 69
        E 120 80 49 00
        E 0 80 61 00
        E 120 90 49 69
        E 0 90 61 69
        E 120 80 49 00
        E 0 80 61 00
        E 120 90 31 69
        E 0 90 49 69
        E 0 90 61 69
        E 120 80 31 00
        E 0 80 49 00
        E 0 80 61 00
        E 1080 90 18 69
        E 0 90 30 69
        E 0 90 48 69
        E 0 90 60 69
        E 120 80 18 00
        E 0 80 30 00
        E 0 80 48 00
        E 0 80 60 00
        E 120 90 48 69
        E 0 90 60 69
        E 120 80 48 00
        E 0 80 60 00
        E 120 90 48 69
        E 0 90 60 69
        E 120 80 48 00
        E 0 80 60 00
        E 120 90 30 69
        E 0 90 48 69
        E 0 90 60 69
        E 120 80 30 00
        E 0 80 48 00
        E 0 80 60 00
        E 1080 90 18 69
        E 0 90 30 69
        E 0 90 48 69
        E 0 90 60 69
        E 0 90 74 64
        E 120 80 18 00
        E 0 80 30 00
        E 0 80 48 00
        E 0 80 60 00
        E 120 90 48 69
        E 0 90 60 69
        E 120 80 48 00
        E 0 80 60 00
        E 120 90 48 69
        E 0 90 60 69
        E 120 80 48 00
        E 0 80 60 00
        E 120 90 30 69
        E 0 90 48 69
        E 0 90 60 69
        E 120 80 30 00
        E 0 80 48 00
        E 0 80 60 00
        E 1080 90 19 69
        E 0 90 31 69
        E 0 90 49 69
        E 0 90 61 69
        E 120 80 19 00
        E 0 80 31 00
        E 0 80 49 00
        E 0 80 61 00
        E 120 90 49 69
        E 0 90 61 69
        E 120 80 49 00
        E 0 80 61 00
        E 120 90 49 69
        E 0 90 61 69
        E 120 80 49 00
        E 0 80 61 00
        E 120 90 31 69
        E 0 90 49 69
        E 0 90 61 69
        E 120 80 31 00
        E 0 80 49 00
        E 0 80 61 00
        E 120 80 74 00
        E 960 90 19 69
        E 0 90 31 69
        E 0 90 49 69
        E 0 90 61 69
        E 120 80 19 00
        E 0 80 31 00
        E 0 80 49 00
        E 0 80 61 00
        E 120 90 49 69
        E 0 90 61 69
        E 120 80 49 00
        E 0 80 61 00
        E 120 90 49 69
        E 0 90 61 69
        E 120 80 49 00
        E 0 80 61 00
        E 120 90 31 69
        E 0 90 49 69
        E 0 90 61 69
        E 120 80 31 00
        E 0 80 49 00
        E 0 80 61 00
        <X 1080 0
          /wFbYmVnaW5fcGIgc29uZ190cmFpbmVyX3BiXzJd
        >
        E 0 90 18 69
        E 0 90 30 69
        E 0 90 48 69
        E 0 90 60 69
        E 120 80 18 00
        E 0 80 30 00
        E 0 80 48 00
        E 0 80 60 00
        E 120 90 60 69
        E 120 80 60 00
        E 120 90 48 69
        E 0 90 60 69
        E 120 80 48 00
        E 0 80 60 00
        E 120 90 60 69
        E 120 80 60 00
        E 120 90 30 69
        E 0 90 48 69
        E 0 90 60 69
        E 120 80 30 00
        E 0 80 48 00
        E 0 80 60 00
        E 120 90 60 69
        E 120 80 60 00
        E 120 90 48 69
        E 0 90 60 69
        E 120 80 48 00
        E 0 80 60 00
        E 120 90 60 69
        E 120 80 60 00
        <X 120 0
          /wFbcGJfbm9ybSBzb25nX3RyYWluZXJfcGJfMl0=
        >
        E 0 90 18 69
        E 0 90 30 69
        E 0 90 48 69
        E 0 90 60 69
        E 120 80 18 00
        E 0 80 30 00
        E 0 80 48 00
        E 0 80 60 00
        E 120 90 60 69
        E 120 80 60 00
        E 120 90 48 69
        E 0 90 60 69
        E 120 80 48 00
        E 0 80 60 00
        E 120 90 60 69
        E 120 80 60 00
        E 120 90 30 69
        E 0 90 48 69
        E 0 90 60 69
        E 120 80 30 00
        E 0 80 48 00
        E 0 80 60 00
        E 120 90 60 69
        E 120 80 60 00
        E 120 90 48 69
        E 0 90 60 69
        E 120 80 48 00
        E 0 80 60 00
        E 120 90 60 69
        E 120 80 60 00
        E 120 90 19 69
        E 0 90 31 69
        E 0 90 49 69
        E 0 90 61 69
        E 120 80 19 00
        E 0 80 31 00
        E 0 80 49 00
        E 0 80 61 00
        E 120 90 61 69
        E 120 80 61 00
        E 120 90 49 69
        E 0 90 61 69
        E 120 80 49 00
        E 0 80 61 00
        E 120 90 61 69
        E 120 80 61 00
        E 120 90 31 69
        E 0 90 49 69
        E 0 90 61 69
        E 120 80 31 00
        E 0 80 49 00
        E 0 80 61 00
        E 120 90 61 69
        E 120 80 61 00
        E 120 90 49 69
        E 0 90 61 69
        E 120 80 49 00
        E 0 80 61 00
        E 120 90 61 69
        E 120 80 61 00
        E 120 90 19 69
        E 0 90 31 69
        E 0 90 49 69
        E 0 90 61 69
        E 120 80 19 00
        E 0 80 31 00
        E 0 80 49 00
        E 0 80 61 00
        E 120 90 61 69
        E 120 80 61 00
        E 120 90 49 69
        E 0 90 61 69
        E 120 80 49 00
        E 0 80 61 00
        E 120 90 61 69
        E 120 80 61 00
        E 120 90 31 69
        E 0 90 49 69
        E 0 90 61 69
        E 120 80 31 00
        E 0 80 49 00
        E 0 80 61 00
        E 120 90 61 69
        E 120 80 61 00
        E 120 90 49 69
        E 0 90 61 69
        E 120 80 49 00
        E 0 80 61 00
        E 120 90 61 69
        E 120 80 61 00
        <X 120 0
          /wFbZW5kX3BiIHNvbmdfdHJhaW5lcl9wYl8yXQ==
        >
        E 0 90 18 69
        E 0 90 30 69
        E 0 90 48 69
        E 0 90 60 69
        E 120 80 18 00
        E 0 80 30 00
        E 0 80 48 00
        E 0 80 60 00
        E 120 90 60 69
        E 120 80 60 00
        E 120 90 48 69
        E 0 90 60 69
        E 120 80 48 00
        E 0 80 60 00
        E 120 90 60 69
        E 120 80 60 00
        E 120 90 30 69
        E 0 90 48 69
        E 0 90 60 69
        E 120 80 30 00
        E 0 80 48 00
        E 0 80 60 00
        E 120 90 60 69
        E 120 80 60 00
        E 120 90 48 69
        E 0 90 60 69
        E 120 80 48 00
        E 0 80 60 00
        E 120 90 60 69
        E 120 80 60 00
        E 120 90 18 69
        E 0 90 30 69
        E 0 90 48 69
        E 0 90 60 69
        E 120 80 18 00
        E 0 80 30 00
        E 0 80 48 00
        E 0 80 60 00
        E 120 90 60 69
        E 120 80 60 00
        E 120 90 48 69
        E 0 90 60 69
        E 120 80 48 00
        E 0 80 60 00
        E 120 90 60 69
        E 120 80 60 00
        E 120 90 30 69
        E 0 90 48 69
        E 0 90 60 69
        E 120 80 30 00
        E 0 80 48 00
        E 0 80 60 00
        E 120 90 60 69
        E 120 80 60 00
        E 120 90 48 69
        E 0 90 60 69
        E 120 80 48 00
        E 0 80 60 00
        E 120 90 60 69
        E 120 80 60 00
        E 120 90 19 69
        E 0 90 31 69
        E 0 90 49 69
        E 0 90 61 69
        E 120 80 19 00
        E 0 80 31 00
        E 0 80 49 00
        E 0 80 61 00
        E 120 90 61 69
        E 120 80 61 00
        E 120 90 49 69
        E 0 90 61 69
        E 120 80 49 00
        E 0 80 61 00
        E 120 90 61 69
        E 120 80 61 00
        E 120 90 31 69
        E 0 90 49 69
        E 0 90 61 69
        E 120 80 31 00
        E 0 80 49 00
        E 0 80 61 00
        E 120 90 61 69
        E 120 80 61 00
        E 120 90 49 69
        E 0 90 61 69
        E 120 80 49 00
        E 0 80 61 00
        E 120 90 61 69
        E 120 80 61 00
        E 120 90 19 69
        E 0 90 31 69
        E 0 90 49 69
        E 0 90 61 69
        E 120 80 19 00
        E 0 80 31 00
        E 0 80 49 00
        E 0 80 61 00
        E 120 90 61 69
        E 120 80 61 00
        E 120 90 49 69
        E 0 90 61 69
        E 120 80 49 00
        E 0 80 61 00
        E 120 90 61 69
        E 120 80 61 00
        E 120 90 31 69
        E 0 90 49 69
        E 0 90 61 69
        E 120 80 31 00
        E 0 80 49 00
        E 0 80 61 00
        E 120 90 61 69
        E 120 80 61 00
        E 120 90 49 69
        E 0 90 61 69
        E 120 80 49 00
        E 0 80 61 00
        E 120 90 61 69
        E 120 80 61 00
        E 120 90 18 69
        E 0 90 30 69
        E 0 90 48 69
        E 0 90 60 69
        E 120 80 18 00
        E 0 80 30 00
        E 0 80 48 00
        E 0 80 60 00
        E 120 90 60 69
        E 120 80 60 00
        E 120 90 48 69
        E 0 90 60 69
        E 120 80 48 00
        E 0 80 60 00
        E 120 90 60 69
        E 120 80 60 00
        E 120 90 30 69
        E 0 90 48 69
        E 0 90 60 69
        E 0 90 74 64
        E 120 80 30 00
        E 0 80 48 00
        E 0 80 60 00
        E 120 90 60 69
        E 120 80 60 00
        E 120 90 48 69
        E 0 90 60 69
        E 120 80 48 00
        E 0 80 60 00
        E 120 90 60 69
        E 120 80 60 00
        E 120 90 18 69
        E 0 90 30 69
        E 0 90 48 69
        E 0 90 60 69
        E 120 80 18 00
        E 0 80 30 00
        E 0 80 48 00
        E 0 80 60 00
        E 120 90 60 69
        E 120 80 60 00
        E 120 90 48 69
        E 0 90 60 69
        E 120 80 48 00
        E 0 80 60 00
        E 120 90 60 69
        E 120 80 60 00
        E 120 90 30 69
        E 0 90 48 69
        E 0 90 60 69
        E 120 80 30 00
        E 0 80 48 00
        E 0 80 60 00
        E 120 90 60 69
        E 120 80 60 00
        E 120 90 48 69
        E 0 90 60 69
        E 120 80 48 00
        E 0 80 60 00
        E 120 90 60 69
        E 120 80 60 00
        E 120 80 74 00
        E 0 90 19 69
        E 0 90 31 69
        E 0 90 49 69
        E 0 90 61 69
        E 120 80 19 00
        E 0 80 31 00
        E 0 80 49 00
        E 0 80 61 00
        E 120 90 61 69
        E 120 80 61 00
        E 120 90 49 69
        E 0 90 61 69
        E 120 80 49 00
        E 0 80 61 00
        E 120 90 61 69
        E 120 80 61 00
        E 120 90 31 69
        E 0 90 49 69
        E 0 90 61 69
        E 120 80 31 00
        E 0 80 49 00
        E 0 80 61 00
        E 120 90 61 69
        E 120 80 61 00
        E 120 90 49 69
        E 0 90 61 69
        E 120 80 49 00
        E 0 80 61 00
        E 120 90 61 69
        E 120 80 61 00
        E 120 90 19 69
        E 0 90 31 69
        E 0 90 49 69
        E 0 90 61 69
        E 120 80 19 00
        E 0 80 31 00
        E 0 80 49 00
        E 0 80 61 00
        E 120 90 61 69
        E 120 80 61 00
        E 120 90 49 69
        E 0 90 61 69
        E 120 80 49 00
        E 0 80 61 00
        E 120 90 61 69
        E 120 80 61 00
        E 120 90 31 69
        E 0 90 49 69
        E 0 90 61 69
        E 120 80 31 00
        E 0 80 49 00
        E 0 80 61 00
        E 120 90 61 69
        E 120 80 61 00
        E 120 90 49 69
        E 0 90 61 69
        E 120 80 49 00
        E 0 80 61 00
        E 120 90 61 69
        E 120 80 61 00
        E 120 90 18 69
        E 0 90 30 69
        E 0 90 48 69
        E 0 90 60 69
        E 120 80 18 00
        E 0 80 30 00
        E 0 80 48 00
        E 0 80 60 00
        E 120 90 60 69
        E 120 80 60 00
        E 120 90 48 69
        E 0 90 60 69
        E 120 80 48 00
        E 0 80 60 00
        E 120 90 60 69
        E 120 80 60 00
        E 120 90 30 69
        E 0 90 48 69
        E 0 90 60 69
        E 120 80 30 00
        E 0 80 48 00
        E 0 80 60 00
        E 120 90 60 69
        E 120 80 60 00
        E 120 90 48 69
        E 0 90 60 69
        E 120 80 48 00
        E 0 80 60 00
        E 120 90 60 69
        E 120 80 60 00
        E 120 90 18 69
        E 0 90 30 69
        E 0 90 48 69
        E 0 90 60 69
        E 120 80 18 00
        E 0 80 30 00
        E 0 80 48 00
        E 0 80 60 00
        E 120 90 60 69
        E 120 80 60 00
        E 120 90 48 69
        E 0 90 60 69
        E 120 80 48 00
        E 0 80 60 00
        E 120 90 60 69
        E 120 80 60 00
        E 120 90 30 69
        E 0 90 48 69
        E 0 90 60 69
        E 120 80 30 00
        E 0 80 48 00
        E 0 80 60 00
        E 120 90 60 69
        E 120 80 60 00
        E 120 90 48 69
        E 0 90 60 69
        E 120 80 48 00
        E 0 80 60 00
        E 120 90 60 69
        E 120 80 60 00
        E 120 90 19 69
        E 0 90 31 69
        E 0 90 49 69
        E 0 90 61 69
        E 120 80 19 00
        E 0 80 31 00
        E 0 80 49 00
        E 0 80 61 00
        E 120 90 61 69
        E 120 80 61 00
        E 120 90 49 69
        E 0 90 61 69
        E 120 80 49 00
        E 0 80 61 00
        E 120 90 61 69
        E 120 80 61 00
        E 120 90 31 69
        E 0 90 49 69
        E 0 90 61 69
        E 120 80 31 00
        E 0 80 49 00
        E 0 80 61 00
        E 120 90 61 69
        E 120 80 61 00
        E 120 90 49 69
        E 0 90 61 69
        E 120 80 49 00
        E 0 80 61 00
        E 120 90 61 69
        E 120 80 61 00
        E 120 90 19 69
        E 0 90 31 69
        E 0 90 49 69
        E 0 90 61 69
        E 120 80 19 00
        E 0 80 31 00
        E 0 80 49 00
        E 0 80 61 00
        E 120 90 61 69
        E 120 80 61 00
        E 120 90 49 69
        E 0 90 61 69
        E 120 80 49 00
        E 0 80 61 00
        E 120 90 61 69
        E 120 80 61 00
        E 120 90 31 69
        E 0 90 49 69
        E 0 90 61 69
        E 120 80 31 00
        E 0 80 49 00
        E 0 80 61 00
        E 120 90 61 69
        E 120 80 61 00
        E 120 90 49 69
        E 0 90 61 69
        E 120 80 49 00
        E 0 80 61 00
        E 120 90 61 69
        E 120 80 61 00
        E 120 90 18 69
        E 0 90 30 69
        E 0 90 48 69
        E 0 90 60 69
        E 120 80 18 00
        E 0 80 30 00
        E 0 80 48 00
        E 0 80 60 00
        E 120 90 60 69
        E 120 80 60 00
        E 120 90 48 69
        E 0 90 60 69
        E 120 80 48 00
        E 0 80 60 00
        E 120 90 60 69
        E 120 80 60 00
        E 120 90 30 69
        E 0 90 48 69
        E 0 90 60 69
        E 120 80 30 00
        E 0 80 48 00
        E 0 80 60 00
        E 120 90 60 69
        E 120 80 60 00
        E 120 90 48 69
        E 0 90 60 69
        E 120 80 48 00
        E 0 80 60 00
        E 120 90 60 69
        E 120 80 60 00
        E 120 90 18 69
        E 0 90 30 69
        E 0 90 48 69
        E 0 90 60 69
        E 120 80 18 00
        E 0 80 30 00
        E 0 80 48 00
        E 0 80 60 00
        E 120 90 60 69
        E 120 80 60 00
        E 120 90 48 69
        E 0 90 60 69
        E 120 80 48 00
        E 0 80 60 00
        E 120 90 60 69
        E 120 80 60 00
        E 120 90 30 69
        E 0 90 48 69
        E 0 90 60 69
        E 120 80 30 00
        E 0 80 48 00
        E 0 80 60 00
        E 120 90 60 69
        E 120 80 60 00
        E 120 90 48 69
        E 0 90 60 69
        E 120 80 48 00
        E 0 80 60 00
        E 120 90 60 69
        E 120 80 60 00
        E 120 90 19 69
        E 0 90 31 69
        E 0 90 49 69
        E 0 90 61 69
        E 120 80 19 00
        E 0 80 31 00
        E 0 80 49 00
        E 0 80 61 00
        E 120 90 61 69
        E 120 80 61 00
        E 120 90 49 69
        E 0 90 61 69
        E 120 80 49 00
        E 0 80 61 00
        E 120 90 61 69
        E 120 80 61 00
        E 120 90 31 69
        E 0 90 49 69
        E 0 90 61 69
        E 120 80 31 00
        E 0 80 49 00
        E 0 80 61 00
        E 120 90 61 69
        E 120 80 61 00
        E 120 90 49 69
        E 0 90 61 69
        E 120 80 49 00
        E 0 80 61 00
        E 120 90 61 69
        E 120 80 61 00
        E 120 90 19 69
        E 0 90 31 69
        E 0 90 49 69
        E 0 90 61 69
        E 120 80 19 00
        E 0 80 31 00
        E 0 80 49 00
        E 0 80 61 00
        E 120 90 61 69
        E 120 80 61 00
        E 120 90 49 69
        E 0 90 61 69
        E 120 80 49 00
        E 0 80 61 00
        E 120 90 61 69
        E 120 80 61 00
        E 120 90 31 69
        E 0 90 49 69
        E 0 90 61 69
        E 120 80 31 00
        E 0 80 49 00
        E 0 80 61 00
        E 120 90 61 69
        E 120 80 61 00
        E 120 90 49 69
        E 0 90 61 69
        E 120 80 49 00
        E 0 80 61 00
        E 120 90 61 69
        E 120 80 61 00
        E 120 90 18 69
        E 0 90 30 69
        E 0 90 48 69
        E 0 90 60 69
        E 120 80 18 00
        E 0 80 30 00
        E 0 80 48 00
        E 0 80 60 00
        E 120 90 60 69
        E 120 80 60 00
        E 120 90 48 69
        E 0 90 60 69
        E 120 80 48 00
        E 0 80 60 00
        E 120 90 60 69
        E 120 80 60 00
        E 120 90 30 69
        E 0 90 48 69
        E 0 90 60 69
        E 120 80 30 00
        E 0 80 48 00
        E 0 80 60 00
        E 120 90 60 69
        E 120 80 60 00
        E 120 90 48 69
        E 0 90 60 69
        E 120 80 48 00
        E 0 80 60 00
        E 120 90 60 69
        E 120 80 60 00
        E 120 90 18 69
        E 0 90 30 69
        E 0 90 48 69
        E 0 90 60 69
        E 120 80 18 00
        E 0 80 30 00
        E 0 80 48 00
        E 0 80 60 00
        E 120 90 60 69
        E 120 80 60 00
        E 120 90 48 69
        E 0 90 60 69
        E 120 80 48 00
        E 0 80 60 00
        E 120 90 60 69
        E 120 80 60 00
        E 120 90 30 69
        E 0 90 48 69
        E 0 90 60 69
        E 120 80 30 00
        E 0 80 48 00
        E 0 80 60 00
        E 120 90 60 69
        E 120 80 60 00
        E 120 90 48 69
        E 0 90 60 69
        E 120 80 48 00
        E 0 80 60 00
        E 120 90 60 69
        E 120 80 60 00
        E 120 90 19 69
        E 0 90 31 69
        E 0 90 49 69
        E 0 90 61 69
        E 0 90 74 64
        E 120 80 19 00
        E 0 80 31 00
        E 0 80 49 00
        E 0 80 61 00
        E 120 90 61 69
        E 120 80 61 00
        E 120 90 49 69
        E 0 90 61 69
        E 120 80 49 00
        E 0 80 61 00
        E 120 90 61 69
        E 120 80 61 00
        E 120 90 31 69
        E 0 90 49 69
        E 0 90 61 69
        E 120 80 31 00
        E 0 80 49 00
        E 0 80 61 00
        E 120 90 61 69
        E 120 80 61 00
        E 120 90 49 69
        E 0 90 61 69
        E 120 80 49 00
        E 0 80 61 00
        E 120 90 61 69
        E 120 80 61 00
        E 120 90 19 69
        E 0 90 31 69
        E 0 90 49 69
        E 0 90 61 69
        E 120 80 19 00
        E 0 80 31 00
        E 0 80 49 00
        E 0 80 61 00
        E 120 90 61 69
        E 120 80 61 00
        E 120 90 49 69
        E 0 90 61 69
        E 120 80 49 00
        E 0 80 61 00
        E 120 90 61 69
        E 120 80 61 00
        E 120 90 31 69
        E 0 90 49 69
        E 0 90 61 69
        E 120 80 31 00
        E 0 80 49 00
        E 0 80 61 00
        E 120 90 61 69
        E 120 80 61 00
        E 120 90 49 69
        E 0 90 61 69
        E 120 80 49 00
        E 0 80 61 00
        E 120 90 61 69
        E 120 80 61 00
        <X 120 0
          /wFbYmVnaW5fcGIgc29uZ190cmFpbmVyX3BiXzNd
        >
        E 0 80 74 00
        E 0 90 19 6b
        E 0 90 31 6b
        E 0 90 49 6b
        E 0 90 61 6b
        E 120 80 19 00
        E 0 80 31 00
        E 0 80 49 00
        E 0 80 61 00
        E 120 90 61 6b
        E 120 80 61 00
        E 120 90 49 6b
        E 0 90 61 6b
        E 120 80 49 00
        E 0 80 61 00
        E 120 90 61 6b
        E 120 80 61 00
        E 120 90 31 6b
        E 0 90 49 6b
        E 0 90 61 6b
        E 120 80 31 00
        E 0 80 49 00
        E 0 80 61 00
        E 120 90 61 6b
        E 120 80 61 00
        E 120 90 49 6b
        E 0 90 61 6b
        E 120 80 49 00
        E 0 80 61 00
        E 120 90 61 6b
        E 120 80 61 00
        <X 120 0
          /wFbcGJfbm9ybSBzb25nX3RyYWluZXJfcGJfM10=
        >
        E 0 90 19 6b
        E 0 90 31 6b
        E 0 90 49 6b
        E 0 90 61 6b
        E 120 80 19 00
        E 0 80 31 00
        E 0 80 49 00
        E 0 80 61 00
        E 120 90 61 6b
        E 120 80 61 00
        E 120 90 49 6b
        E 0 90 61 6b
        E 120 80 49 00
        E 0 80 61 00
        E 120 90 61 6b
        E 120 80 61 00
        E 120 90 31 6b
        E 0 90 49 6b
        E 0 90 61 6b
        E 120 80 31 00
        E 0 80 49 00
        E 0 80 61 00
        E 120 90 61 6b
        E 120 80 61 00
        E 120 90 49 6b
        E 0 90 61 6b
        E 120 80 49 00
        E 0 80 61 00
        E 120 90 61 6b
        E 120 80 61 00
        E 120 90 19 69
        E 0 90 31 69
        E 0 90 49 69
        E 0 90 61 69
        E 120 80 19 00
        E 0 80 31 00
        E 0 80 49 00
        E 0 80 61 00
        E 120 90 61 69
        E 120 80 61 00
        E 120 90 49 69
        E 0 90 61 69
        E 120 80 49 00
        E 0 80 61 00
        E 120 90 61 69
        E 120 80 61 00
        E 120 90 31 69
        E 0 90 49 69
        E 0 90 61 69
        E 120 80 31 00
        E 0 80 49 00
        E 0 80 61 00
        E 120 90 61 69
        E 120 80 61 00
        E 120 90 49 69
        E 0 90 61 69
        E 120 80 49 00
        E 0 80 61 00
        E 120 90 61 69
        E 120 80 61 00
        E 120 90 19 69
        E 0 90 31 69
        E 0 90 49 69
        E 0 90 61 69
        E 120 80 19 00
        E 0 80 31 00
        E 0 80 49 00
        E 0 80 61 00
        E 120 90 61 69
        E 120 80 61 00
        E 120 90 49 69
        E 0 90 61 69
        E 120 80 49 00
        E 0 80 61 00
        E 120 90 61 69
        E 120 80 61 00
        E 120 90 31 69
        E 0 90 49 69
        E 0 90 61 69
        E 120 80 31 00
        E 0 80 49 00
        E 0 80 61 00
        E 120 90 61 69
        E 120 80 61 00
        E 120 90 49 69
        E 0 90 61 69
        E 120 80 49 00
        E 0 80 61 00
        E 120 90 61 69
        E 120 80 61 00
        <X 120 0
          /wFbZW5kX3BiIHNvbmdfdHJhaW5lcl9wYl8zXQ==
        >
        E 0 90 19 6b
        E 0 90 31 6b
        E 0 90 49 6b
        E 0 90 61 6b
        E 120 80 19 00
        E 0 80 31 00
        E 0 80 49 00
        E 0 80 61 00
        E 120 90 61 6b
        E 120 80 61 00
        E 120 90 49 6b
        E 0 90 61 6b
        E 120 80 49 00
        E 0 80 61 00
        E 120 90 61 6b
        E 120 80 61 00
        E 120 90 31 6b
        E 0 90 49 6b
        E 0 90 61 6b
        E 120 80 31 00
        E 0 80 49 00
        E 0 80 61 00
        E 120 90 61 6b
        E 120 80 61 00
        E 120 90 49 6b
        E 0 90 61 6b
        E 120 80 49 00
        E 0 80 61 00
        E 120 90 61 6b
        E 120 80 61 00
        E 120 90 19 6b
        E 0 90 31 6b
        E 0 90 49 6b
        E 0 90 61 6b
        E 120 80 19 00
        E 0 80 31 00
        E 0 80 49 00
        E 0 80 61 00
        E 120 90 61 6b
        E 120 80 61 00
        E 120 90 49 6b
        E 0 90 61 6b
        E 120 80 49 00
        E 0 80 61 00
        E 120 90 61 6b
        E 120 80 61 00
        E 120 90 31 6b
        E 0 90 49 6b
        E 0 90 61 6b
        E 120 80 31 00
        E 0 80 49 00
        E 0 80 61 00
        E 120 90 61 6b
        E 120 80 61 00
        E 120 90 49 6b
        E 0 90 61 6b
        E 120 80 49 00
        E 0 80 61 00
        E 120 90 61 6b
        E 120 80 61 00
        E 120 90 19 69
        E 0 90 31 69
        E 0 90 49 69
        E 0 90 61 69
        E 120 80 19 00
        E 0 80 31 00
        E 0 80 49 00
        E 0 80 61 00
        E 120 90 61 69
        E 120 80 61 00
        E 120 90 49 69
        E 0 90 61 69
        E 0 90 74 64
        E 120 80 49 00
        E 0 80 61 00
        E 120 90 61 69
        E 120 80 61 00
        E 120 90 31 69
        E 0 90 49 69
        E 0 90 61 69
        E 120 80 31 00
        E 0 80 49 00
        E 0 80 61 00
        E 120 90 61 69
        E 120 80 61 00
        E 120 90 49 69
        E 0 90 61 69
        E 120 80 49 00
        E 0 80 61 00
        E 120 90 61 69
        E 120 80 61 00
        E 120 90 19 69
        E 0 90 31 69
        E 0 90 49 69
        E 0 90 61 69
        E 120 80 19 00
        E 0 80 31 00
        E 0 80 49 00
        E 0 80 61 00
        E 120 90 61 69
        E 120 80 61 00
        E 120 90 49 69
        E 0 90 61 69
        E 120 80 49 00
        E 0 80 61 00
        E 120 90 61 69
        E 120 80 61 00
        E 120 80 74 00
        E 0 90 31 69
        E 0 90 49 69
        E 0 90 61 69
        E 120 80 31 00
        E 0 80 49 00
        E 0 80 61 00
        E 120 90 61 69
        E 120 80 61 00
        E 120 90 49 69
        E 0 90 61 69
        E 120 80 49 00
        E 0 80 61 00
        E 120 90 61 69
        E 120 80 61 00
        E 120 90 19 6b
        E 0 90 31 6b
        E 0 90 49 6b
        E 0 90 61 6b
        E 120 80 19 00
        E 0 80 31 00
        E 0 80 49 00
        E 0 80 61 00
        E 120 90 61 6b
        E 120 80 61 00
        E 120 90 49 6b
        E 0 90 61 6b
        E 120 80 49 00
        E 0 80 61 00
        E 120 90 61 6b
        E 120 80 61 00
        E 120 90 31 6b
        E 0 90 49 6b
        E 0 90 61 6b
        E 120 80 31 00
        E 0 80 49 00
        E 0 80 61 00
        E 120 90 61 6b
        E 120 80 61 00
        E 120 90 49 6b
        E 0 90 61 6b
        E 120 80 49 00
        E 0 80 61 00
        E 120 90 61 6b
        E 120 80 61 00
        E 120 90 19 6b
        E 0 90 31 6b
        E 0 90 49 6b
        E 0 90 61 6b
        E 120 80 19 00
        E 0 80 31 00
        E 0 80 49 00
        E 0 80 61 00
        E 120 90 61 6b
        E 120 80 61 00
        E 120 90 49 6b
        E 0 90 61 6b
        E 120 80 49 00
        E 0 80 61 00
        E 120 90 61 6b
        E 120 80 61 00
        E 120 90 31 6b
        E 0 90 49 6b
        E 0 90 61 6b
        E 120 80 31 00
        E 0 80 49 00
        E 0 80 61 00
        E 120 90 61 6b
        E 120 80 61 00
        E 120 90 49 6b
        E 0 90 61 6b
        E 120 80 49 00
        E 0 80 61 00
        E 120 90 61 6b
        E 120 80 61 00
        E 120 90 19 69
        E 0 90 31 69
        E 0 90 49 69
        E 0 90 61 69
        E 120 80 19 00
        E 0 80 31 00
        E 0 80 49 00
        E 0 80 61 00
        E 120 90 61 69
        E 120 80 61 00
        E 120 90 49 69
        E 0 90 61 69
        E 120 80 49 00
        E 0 80 61 00
        E 120 90 61 69
        E 120 80 61 00
        E 120 90 31 69
        E 0 90 49 69
        E 0 90 61 69
        E 120 80 31 00
        E 0 80 49 00
        E 0 80 61 00
        E 120 90 61 69
        E 120 80 61 00
        E 120 90 49 69
        E 0 90 61 69
        E 120 80 49 00
        E 0 80 61 00
        E 120 90 61 69
        E 120 80 61 00
        E 120 90 19 69
        E 0 90 31 69
        E 0 90 49 69
        E 0 90 61 69
        E 120 80 19 00
        E 0 80 31 00
        E 0 80 49 00
        E 0 80 61 00
        E 120 90 61 69
        E 120 80 61 00
        E 120 90 49 69
        E 0 90 61 69
        E 120 80 49 00
        E 0 80 61 00
        E 120 90 61 69
        E 120 80 61 00
        E 120 90 31 69
        E 0 90 49 69
        E 0 90 61 69
        E 120 80 31 00
        E 0 80 49 00
        E 0 80 61 00
        E 120 90 61 69
        E 120 80 61 00
        E 120 90 49 69
        E 0 90 61 69
        E 120 80 49 00
        E 0 80 61 00
        E 120 90 61 69
        E 120 80 61 00
        E 120 90 19 6b
        E 0 90 31 6b
        E 0 90 49 6b
        E 0 90 61 6b
        E 120 80 19 00
        E 0 80 31 00
        E 0 80 49 00
        E 0 80 61 00
        E 120 90 61 6b
        E 120 80 61 00
        E 120 90 49 6b
        E 0 90 61 6b
        E 120 80 49 00
        E 0 80 61 00
        E 120 90 61 6b
        E 120 80 61 00
        E 120 90 31 6b
        E 0 90 49 6b
        E 0 90 61 6b
        E 120 80 31 00
        E 0 80 49 00
        E 0 80 61 00
        E 120 90 61 6b
        E 120 80 61 00
        E 120 90 49 6b
        E 0 90 61 6b
        E 120 80 49 00
        E 0 80 61 00
        E 120 90 61 6b
        E 120 80 61 00
        E 120 90 19 6b
        E 0 90 31 6b
        E 0 90 49 6b
        E 0 90 61 6b
        E 120 80 19 00
        E 0 80 31 00
        E 0 80 49 00
        E 0 80 61 00
        E 120 90 61 6b
        E 120 80 61 00
        E 120 90 49 6b
        E 0 90 61 6b
        E 120 80 49 00
        E 0 80 61 00
        E 120 90 61 6b
        E 120 80 61 00
        E 120 90 31 6b
        E 0 90 49 6b
        E 0 90 61 6b
        E 120 80 31 00
        E 0 80 49 00
        E 0 80 61 00
        E 120 90 61 6b
        E 120 80 61 00
        E 120 90 49 6b
        E 0 90 61 6b
        E 120 80 49 00
        E 0 80 61 00
        E 120 90 61 6b
        E 120 80 61 00
        E 120 90 31 69
        E 0 90 49 69
        E 0 90 61 69
        E 0 90 19 69
        E 120 80 31 00
        E 0 80 49 00
        E 0 80 61 00
        E 0 80 19 00
        E 120 90 61 69
        E 120 80 61 00
        E 120 90 49 69
        E 0 90 61 69
        E 120 80 49 00
        E 0 80 61 00
        E 120 90 61 69
        E 120 80 61 00
        E 120 90 31 69
        E 0 90 49 69
        E 0 90 61 69
        E 120 80 31 00
        E 0 80 49 00
        E 0 80 61 00
        E 120 90 61 69
        E 120 80 61 00
        E 120 90 49 69
        E 0 90 61 69
        E 120 80 49 00
        E 0 80 61 00
        E 120 90 61 69
        E 120 80 61 00
        E 120 90 19 69
        E 0 90 31 69
        E 0 90 49 69
        E 0 90 61 69
        E 120 80 19 00
        E 0 80 31 00
        E 0 80 49 00
        E 0 80 61 00
        E 120 90 61 69
        E 120 80 61 00
        E 120 90 49 69
        E 0 90 61 69
        E 120 80 49 00
        E 0 80 61 00
        E 120 90 61 69
        E 120 80 61 00
        E 120 90 19 69
        E 0 90 31 69
        E 0 90 49 69
        E 0 90 61 69
        E 120 80 19 00
        E 0 80 31 00
        E 0 80 49 00
        E 0 80 61 00
        E 120 90 61 69
        E 120 80 61 00
        E 120 90 49 69
        E 0 90 61 69
        E 120 80 49 00
        E 0 80 61 00
        E 120 90 61 69
        E 120 80 61 00
        E 30839 b0 7b 00
        GUID {EB6C6790-6127-4053-87B7-3A3836DA1F04}
        IGNTEMPO 0 120.00000000 4 4
        SRCCOLOR 13
        VELLANE 132 128 60
        COLORMAP "C:\Program Files\REAPER (x64)\Data\color_maps\rockband_guitarbass.png"
        CFGEDITVIEW -1262.504100 69.848485 7 12 0 0 0
        CFGEDIT 1 1 0 1 1 0 1 1 1 1 1 0.25000000 -8 -8 1544 872 0 2 1 1 0.00000000 0 1 1 0 0.500000 0 0 1.000000 64
        KEYSNAP 0 6 "102030050700" 0 "Pentatonic"
        EVTFILTER 0 -1 -1 -1 -1 0 1 0 0 -1.00000000 -1.00000000
      >
    >
  >
  <TRACK '{3BE68FF1-C4C0-41E2-828D-F725279BBEE1}'
    NAME "PART REAL_GUITAR"
    PEAKCOL 16576
    BEAT -1
    AUTOMODE 0
    VOLPAN 1.00000000000000 0.00000000000000 -1.00000000000000 -1.00000000000000 1.00000000000000
    MUTESOLO 0 0 0
    IPHASE 0
    ISBUS 0 0
    BUSCOMP 0 0
    SHOWINMIX 1 0.666700 0.500000 1 0.500000 -1 -1 -1
    FREEMODE 0
    SEL 0
    REC 0 0 0 0 0 0 0
    VU 2
    TRACKHEIGHT 0 0
    INQ 0 0 0 0.5000000000 100 0 0 100
    NCHAN 2
    FX 0
    TRACKID {3BE68FF1-C4C0-41E2-828D-F725279BBEE1}
    PERF 0
    MIDIOUT -1
    <MIDINOTENAMES
      0 127 "Trill Marker"
      0 126 "Tremolo Marker"
      0 125 "BRE"
      0 124 "BRE"
      0 123 "BRE"
      0 122 "BRE"
      0 121 "BRE"
      0 120 "BRE (use all 6)"
      0 119 "-----------"
      0 116 "OVERDRIVE"
      0 115 "Solo Marker"
      0 109 "-----------"
      0 108 "Fret Hand Position"
      0 107 "Force Chord Numbering"
      0 106 "Loose Strumming"
      0 105 "Strum Direction"
      0 104 "Arpeggio Marker"
      0 103 "Slide Marker"
      0 102 "Force HOPO"
      0 101 "EXPERT e String"
      0 100 "EXPERT B String"
      0 99 "EXPERT G String"
      0 98 "EXPERT D String"
      0 97 "EXPERT A String"
      0 96 "EXPERT E String"
      0 95 "-----------"
      0 82 "Loose Strumming"
      0 81 "Strum Direction"
      0 80 "Arpeggio Marker"
      0 79 "Slide Marker"
      0 78 "Force HOPO"
      0 77 "HARD e String"
      0 76 "HARD B String"
      0 75 "HARD G String"
      0 74 "HARD D String"
      0 73 "HARD A String"
      0 72 "HARD E String"
      0 71 "-----------"
      0 58 "Loose Strumming"
      0 56 "Arpeggio Marker"
      0 55 "Slide Marker"
      0 53 "MEDIUM e String"
      0 52 "MEDIUM B String"
      0 51 "MEDIUM G String"
      0 50 "MEDIUM D String"
      0 49 "MEDIUM A String"
      0 48 "MEDIUM E String"
      0 47 "-----------"
      0 32 "Arpeggio Marker"
      0 31 "Slide Marker"
      0 29 "EASY e String"
      0 28 "EASY B String"
      0 27 "EASY G String"
      0 26 "EASY D String"
      0 25 "EASY A String"
      0 24 "EASY E String"
      0 21 "-----------"
      0 18 "Flat/Sharp Swap"
      0 17 "Hide Chord Names"
      0 16 "Slash Chord"
      0 15 "D#"
      0 14 "D"
      0 13 "C#"
      0 12 "C"
      0 11 "B"
      0 10 "A#"
      0 9 "A"
      0 8 "G#"
      0 7 "G"
      0 6 "F#"
      0 5 "F"
      0 4 "E"
    >
    MAINSEND 1 0
    <FXCHAIN
      WNDRECT 0 43 655 467
      SHOW 0
      LASTSEL 1
      DOCKED 0
      BYPASS 0 0
      <JS "c3/progtr" ""
        0.000000 3.000000 0.000000 0.000000 0.000000 0.000000 0.000000 0.000000 0.000000 1.000000 - - - - - - - - - - - - - - - - - - - - - - - - - - - - - - - - - - - - - - - - - - - - - - - - - - - - - - 
      >
      FLOATPOS 0 0 0 0
      FXID {1A648134-2624-47DF-8033-D88E8D96811E}
      WAK 0
      BYPASS 0 0
      <VST "VSTi: ReaSynth (Cockos)" "reasynth.dll" 0 ""
        eXNlcu9e7f4AAAAAAgAAAAEAAAAAAAAAAgAAAAAAAAA4AAAAAAAAAA==
        AAAQAO++rd4N8K3eppvEOybj2z2HFlk/AAAAAAAAAADMm4A+4jAEPA==
        AAAAAAAAAD+01hM+j8L1PQAAAD8AABAAAAA=
      >
      FLOATPOS 0 0 0 0
      FXID {5956F72D-FFE8-447E-ACB3-A925EC5A694F}
      WAK 0
    >
    <ITEM
      POSITION 0.00000000000000
      SNAPOFFS 0.00000000000000
      LENGTH 119.20500000000000
      LOOP 0
      ALLTAKES 0
      SEL 0
      FADEIN 1 0.000000 0.000000 1 0
      FADEOUT 1 0.000000 0.000000 1 0
      MUTE 0
      IGUID {EFC6816F-E953-4939-874B-95D8885E1817}
      IID 12
      NAME "PART REAL_GUITAR"
      VOLPAN 1.000000 0.000000 1.000000 -1.000000
      SOFFS 0.00000000000000 0.00000000000000
      PLAYRATE 1.00000000000000 1 0.00000000000000 -1
      CHANMODE 0
      GUID {86584F39-4390-4438-8103-7DC916838D09}
      <SOURCE MIDI
        HASDATA 1 480 QN
        POOLEDEVTS {E950BEC3-6389-48A0-A008-B32FEFF174A4}
        <X 0 0
          /wNQQVJUIFJFQUxfR1VJVEFS
        >
        <X 5760 0
          /wFbYmVnaW5fcGcgc29uZ190cmFpbmVyX3BnXzFd
        >
        E 0 90 1c 6b
        E 0 90 34 6b
        E 0 90 4c 6b
        E 0 90 64 6b
        E 0 90 6c 68
        E 120 80 1c 00
        E 0 80 34 00
        E 0 80 4c 00
        E 0 80 64 00
        E 0 80 6c 00
        E 360 90 33 6a
        E 0 90 4b 6a
        E 0 90 63 6a
        E 120 80 33 00
        E 0 80 4b 00
        E 0 80 63 00
        E 120 90 63 68
        E 120 80 63 00
        E 120 90 4a 6b
        E 0 90 62 6b
        E 120 80 4a 00
        E 0 80 62 00
        E 360 90 1c 6b
        E 0 90 34 6b
        E 0 90 4c 6b
        E 0 90 64 6b
        E 120 80 1c 00
        E 0 80 34 00
        E 0 80 4c 00
        E 0 80 64 00
        E 120 90 64 69
        E 120 80 64 00
        <X 120 0
          /wFbcGdfbm9ybSBzb25nX3RyYWluZXJfcGdfMV0=
        >
        E 0 90 4b 6a
        E 0 90 63 6a
        E 120 80 4b 00
        E 0 80 63 00
        E 120 90 63 68
        E 120 80 63 00
        E 120 90 62 6b
        E 120 80 62 00
        E 120 90 1c 6b
        E 0 90 34 6b
        E 0 90 4c 6b
        E 0 90 64 6b
        E 120 80 1c 00
        E 0 80 34 00
        E 0 80 4c 00
        E 0 80 64 00
        E 360 90 64 69
        E 120 80 64 00
        E 120 90 33 6a
        E 0 90 4b 6a
        E 0 90 63 6a
        E 120 80 33 00
        E 0 80 4b 00
        E 0 80 63 00
        E 120 90 63 68
        E 120 80 63 00
        E 120 90 4a 6b
        E 0 90 62 6b
        E 120 80 4a 00
        E 0 80 62 00
        E 360 90 1c 6b
        E 0 90 34 6b
        E 0 90 4c 6b
        E 0 90 64 6b
        E 120 80 1c 00
        E 0 80 34 00
        E 0 80 4c 00
        E 0 80 64 00
        E 120 90 64 69
        E 120 80 64 00
        E 120 90 33 6a
        E 0 90 4b 6a
        E 0 90 63 6a
        E 120 80 33 00
        E 0 80 4b 00
        E 0 80 63 00
        E 120 90 63 68
        E 120 80 63 00
        E 120 90 4a 6b
        E 0 90 62 6b
        E 120 80 4a 00
        E 0 80 62 00
        E 360 90 1c 6b
        E 0 90 34 6b
        E 0 90 4c 6b
        E 0 90 64 6b
        E 120 80 1c 00
        E 0 80 34 00
        E 0 80 4c 00
        E 0 80 64 00
        E 120 90 64 69
        E 120 80 64 00
        E 120 90 63 6a
        E 120 80 63 00
        E 120 90 4b 68
        E 0 90 63 68
        E 120 80 4b 00
        E 0 80 63 00
        E 360 90 34 69
        E 0 90 4c 69
        E 0 90 64 69
        E 120 80 34 00
        E 0 80 4c 00
        E 0 80 64 00
        E 0 90 64 6b
        E 120 80 64 00
        E 0 90 65 69
        E 120 80 65 00
        E 120 90 4d 6b
        E 0 90 65 6b
        E 120 80 4d 00
        E 0 80 65 00
        <X 120 0
          /wFbZW5kX3BnIHNvbmdfdHJhaW5lcl9wZ18xXQ==
        >
        E 0 90 1c 6b
        E 0 90 34 6b
        E 0 90 4c 6b
        E 0 90 64 6b
        E 0 90 74 64
        E 120 80 1c 00
        E 0 80 34 00
        E 0 80 4c 00
        E 0 80 64 00
        E 360 90 33 6a
        E 0 90 4b 6a
        E 0 90 63 6a
        E 120 80 33 00
        E 0 80 4b 00
        E 0 80 63 00
        E 120 90 63 68
        E 120 80 63 00
        E 120 90 4a 6b
        E 0 90 62 6b
        E 120 80 4a 00
        E 0 80 62 00
        E 360 90 1c 6b
        E 0 90 34 6b
        E 0 90 4c 6b
        E 0 90 64 6b
        E 120 80 1c 00
        E 0 80 34 00
        E 0 80 4c 00
        E 0 80 64 00
        E 120 90 64 69
        E 120 80 64 00
        E 120 90 4b 6a
        E 0 90 63 6a
        E 120 80 4b 00
        E 0 80 63 00
        E 120 90 63 68
        E 120 80 63 00
        E 120 90 62 6b
        E 120 80 62 00
        E 120 90 1c 6b
        E 0 90 34 6b
        E 0 90 4c 6b
        E 0 90 64 6b
        E 120 80 1c 00
        E 0 80 34 00
        E 0 80 4c 00
        E 0 80 64 00
        E 120 80 74 00
        E 240 90 64 69
        E 120 80 64 00
        E 120 90 33 6a
        E 0 90 4b 6a
        E 0 90 63 6a
        E 120 80 33 00
        E 0 80 4b 00
        E 0 80 63 00
        E 120 90 63 68
        E 120 80 63 00
        E 120 90 4a 6b
        E 0 90 62 6b
        E 120 80 4a 00
        E 0 80 62 00
        E 360 90 1c 6b
        E 0 90 34 6b
        E 0 90 4c 6b
        E 0 90 64 6b
        E 120 80 1c 00
        E 0 80 34 00
        E 0 80 4c 00
        E 0 80 64 00
        E 120 90 64 69
        E 120 80 64 00
        E 120 90 33 6a
        E 0 90 4b 6a
        E 0 90 63 6a
        E 120 80 33 00
        E 0 80 4b 00
        E 0 80 63 00
        E 120 90 63 68
        E 120 80 63 00
        E 120 90 4a 6b
        E 0 90 62 6b
        E 120 80 4a 00
        E 0 80 62 00
        E 360 90 1c 6b
        E 0 90 34 6b
        E 0 90 4c 6b
        E 0 90 64 6b
        E 120 80 1c 00
        E 0 80 34 00
        E 0 80 4c 00
        E 0 80 64 00
        E 120 90 64 69
        E 120 80 64 00
        E 120 90 63 6a
        E 120 80 63 00
        E 120 90 4b 68
        E 0 90 63 68
        E 120 80 4b 00
        E 0 80 63 00
        E 360 90 34 69
        E 0 90 4c 69
        E 0 90 64 69
        E 120 80 34 00
        E 0 80 4c 00
        E 0 80 64 00
        E 0 90 64 6b
        E 120 80 64 00
        E 0 90 65 69
        E 120 80 65 00
        E 120 90 4d 6b
        E 0 90 65 6b
        E 120 80 4d 00
        E 0 80 65 00
        E 120 90 1c 6b
        E 0 90 34 6b
        E 0 90 4c 6b
        E 0 90 64 6b
        E 120 80 1c 00
        E 0 80 34 00
        E 0 80 4c 00
        E 0 80 64 00
        E 360 90 33 6a
        E 0 90 4b 6a
        E 0 90 63 6a
        E 120 80 33 00
        E 0 80 4b 00
        E 0 80 63 00
        E 120 90 63 68
        E 120 80 63 00
        E 120 90 4a 6b
        E 0 90 62 6b
        E 120 80 4a 00
        E 0 80 62 00
        E 360 90 1c 6b
        E 0 90 34 6b
        E 0 90 4c 6b
        E 0 90 64 6b
        E 120 80 1c 00
        E 0 80 34 00
        E 0 80 4c 00
        E 0 80 64 00
        E 120 90 64 69
        E 120 80 64 00
        E 120 90 4b 6a
        E 0 90 63 6a
        E 120 80 4b 00
        E 0 80 63 00
        E 120 90 63 68
        E 120 80 63 00
        E 120 90 62 6b
        E 120 80 62 00
        E 120 90 1c 6b
        E 0 90 34 6b
        E 0 90 4c 6b
        E 0 90 64 6b
        E 120 80 1c 00
        E 0 80 34 00
        E 0 80 4c 00
        E 0 80 64 00
        E 360 90 64 69
        E 120 80 64 00
        E 120 90 33 6a
        E 0 90 4b 6a
        E 0 90 63 6a
        E 120 80 33 00
        E 0 80 4b 00
        E 0 80 63 00
        E 120 90 63 68
        E 120 80 63 00
        E 120 90 4a 6b
        E 0 90 62 6b
        E 120 80 4a 00
        E 0 80 62 00
        E 360 90 1c 6b
        E 0 90 34 6b
        E 0 90 4c 6b
        E 0 90 64 6b
        E 0 90 74 64
        E 120 80 1c 00
        E 0 80 34 00
        E 0 80 4c 00
        E 0 80 64 00
        E 120 90 64 69
        E 120 80 64 00
        E 120 90 33 6a
        E 0 90 4b 6a
        E 0 90 63 6a
        E 120 80 33 00
        E 0 80 4b 00
        E 0 80 63 00
        E 120 90 63 68
        E 120 80 63 00
        E 120 90 4a 6b
        E 0 90 62 6b
        E 120 80 4a 00
        E 0 80 62 00
        E 360 90 1c 6b
        E 0 90 34 6b
        E 0 90 4c 6b
        E 0 90 64 6b
        E 120 80 1c 00
        E 0 80 34 00
        E 0 80 4c 00
        E 0 80 64 00
        E 120 90 64 69
        E 120 80 64 00
        E 120 90 63 6a
        E 120 80 63 00
        E 120 90 4b 68
        E 0 90 63 68
        E 120 80 4b 00
        E 0 80 63 00
        E 120 80 74 00
        E 240 90 34 69
        E 0 90 4c 69
        E 0 90 64 69
        E 120 80 34 00
        E 0 80 4c 00
        E 0 80 64 00
        E 0 90 64 6b
        E 120 80 64 00
        E 0 90 65 69
        E 120 80 65 00
        E 120 90 4d 6b
        E 0 90 65 6b
        E 120 80 4d 00
        E 0 80 65 00
        E 120 90 1c 6b
        E 0 90 34 6b
        E 0 90 4c 6b
        E 0 90 64 6b
        E 120 80 1c 00
        E 0 80 34 00
        E 0 80 4c 00
        E 0 80 64 00
        E 360 90 33 6a
        E 0 90 4b 6a
        E 0 90 63 6a
        E 120 80 33 00
        E 0 80 4b 00
        E 0 80 63 00
        E 120 90 63 68
        E 120 80 63 00
        E 120 90 4a 6b
        E 0 90 62 6b
        E 120 80 4a 00
        E 0 80 62 00
        E 360 90 1c 6b
        E 0 90 34 6b
        E 0 90 4c 6b
        E 0 90 64 6b
        E 120 80 1c 00
        E 0 80 34 00
        E 0 80 4c 00
        E 0 80 64 00
        E 120 90 64 69
        E 120 80 64 00
        E 120 90 4b 6a
        E 0 90 63 6a
        E 120 80 4b 00
        E 0 80 63 00
        E 120 90 63 68
        E 120 80 63 00
        E 120 90 62 6b
        E 120 80 62 00
        E 120 90 1c 6b
        E 0 90 34 6b
        E 0 90 4c 6b
        E 0 90 64 6b
        E 120 80 1c 00
        E 0 80 34 00
        E 0 80 4c 00
        E 0 80 64 00
        E 360 90 64 69
        E 120 80 64 00
        E 120 90 33 6a
        E 0 90 4b 6a
        E 0 90 63 6a
        E 120 80 33 00
        E 0 80 4b 00
        E 0 80 63 00
        E 120 90 63 68
        E 120 80 63 00
        E 120 90 4a 6b
        E 0 90 62 6b
        E 120 80 4a 00
        E 0 80 62 00
        E 360 90 1c 6b
        E 0 90 34 6b
        E 0 90 4c 6b
        E 0 90 64 6b
        E 120 80 1c 00
        E 0 80 34 00
        E 0 80 4c 00
        E 0 80 64 00
        E 120 90 64 69
        E 120 80 64 00
        E 120 90 33 6a
        E 0 90 4b 6a
        E 0 90 63 6a
        E 120 80 33 00
        E 0 80 4b 00
        E 0 80 63 00
        E 120 90 63 68
        E 120 80 63 00
        E 120 90 4a 6b
        E 0 90 62 6b
        E 120 80 4a 00
        E 0 80 62 00
        E 360 90 1c 6b
        E 0 90 34 6b
        E 0 90 4c 6b
        E 0 90 64 6b
        E 120 80 1c 00
        E 0 80 34 00
        E 0 80 4c 00
        E 0 80 64 00
        E 120 90 64 69
        E 120 80 64 00
        E 120 90 63 6a
        E 120 80 63 00
        E 120 90 4b 68
        E 0 90 63 68
        E 120 80 4b 00
        E 0 80 63 00
        E 360 90 34 69
        E 0 90 4c 69
        E 0 90 64 69
        E 120 80 34 00
        E 0 80 4c 00
        E 0 80 64 00
        E 0 90 64 6b
        E 120 80 64 00
        E 0 90 65 69
        E 120 80 65 00
        E 120 90 4d 6b
        E 0 90 65 6b
        E 120 80 4d 00
        E 0 80 65 00
        E 120 90 1c 6b
        E 0 90 34 6b
        E 0 90 4c 6b
        E 0 90 64 6b
        E 120 80 1c 00
        E 0 80 34 00
        E 0 80 4c 00
        E 0 80 64 00
        E 360 90 33 6a
        E 0 90 4b 6a
        E 0 90 63 6a
        E 120 80 33 00
        E 0 80 4b 00
        E 0 80 63 00
        E 120 90 63 68
        E 120 80 63 00
        E 120 90 4a 6b
        E 0 90 62 6b
        E 120 80 4a 00
        E 0 80 62 00
        E 360 90 1c 6b
        E 0 90 34 6b
        E 0 90 4c 6b
        E 0 90 64 6b
        E 120 80 1c 00
        E 0 80 34 00
        E 0 80 4c 00
        E 0 80 64 00
        E 120 90 64 69
        E 120 80 64 00
        E 120 90 4b 6a
        E 0 90 63 6a
        E 120 80 4b 00
        E 0 80 63 00
        E 120 90 63 68
        E 120 80 63 00
        E 120 90 62 6b
        E 120 80 62 00
        E 120 90 1c 6b
        E 0 90 34 6b
        E 0 90 4c 6b
        E 0 90 64 6b
        E 0 90 74 64
        E 120 80 1c 00
        E 0 80 34 00
        E 0 80 4c 00
        E 0 80 64 00
        E 360 90 64 69
        E 120 80 64 00
        E 120 90 33 6a
        E 0 90 4b 6a
        E 0 90 63 6a
        E 120 80 33 00
        E 0 80 4b 00
        E 0 80 63 00
        E 120 90 63 68
        E 120 80 63 00
        E 120 80 74 00
        E 0 90 4a 6b
        E 0 90 62 6b
        E 120 80 4a 00
        E 0 80 62 00
        E 360 90 1c 6b
        E 0 90 34 6b
        E 0 90 4c 6b
        E 0 90 64 6b
        E 120 80 1c 00
        E 0 80 34 00
        E 0 80 4c 00
        E 0 80 64 00
        E 120 90 64 69
        E 120 80 64 00
        E 120 90 33 6a
        E 0 90 4b 6a
        E 0 90 63 6a
        E 120 80 33 00
        E 0 80 4b 00
        E 0 80 63 00
        E 120 90 63 68
        E 120 80 63 00
        E 120 90 4a 6b
        E 0 90 62 6b
        E 120 80 4a 00
        E 0 80 62 00
        E 360 90 1c 6b
        E 0 90 34 6b
        E 0 90 4c 6b
        E 0 90 64 6b
        E 120 80 1c 00
        E 0 80 34 00
        E 0 80 4c 00
        E 0 80 64 00
        E 120 90 64 69
        E 120 80 64 00
        E 120 90 63 6a
        E 120 80 63 00
        E 120 90 4b 68
        E 0 90 63 68
        E 120 80 4b 00
        E 0 80 63 00
        E 360 90 34 69
        E 0 90 4c 69
        E 0 90 64 69
        E 120 80 34 00
        E 0 80 4c 00
        E 0 80 64 00
        E 0 90 64 6b
        E 120 80 64 00
        E 0 90 65 69
        E 120 80 65 00
        E 120 90 4d 6b
        E 0 90 65 6b
        E 120 80 4d 00
        E 0 80 65 00
        E 120 90 1c 6b
        E 0 90 34 6b
        E 0 90 4c 6b
        E 0 90 64 6b
        E 120 80 1c 00
        E 0 80 34 00
        E 0 80 4c 00
        E 0 80 64 00
        E 360 90 33 6a
        E 0 90 4b 6a
        E 0 90 63 6a
        E 120 80 33 00
        E 0 80 4b 00
        E 0 80 63 00
        E 120 90 63 68
        E 120 80 63 00
        E 120 90 4a 6b
        E 0 90 62 6b
        E 120 80 4a 00
        E 0 80 62 00
        E 360 90 1c 6b
        E 0 90 34 6b
        E 0 90 4c 6b
        E 0 90 64 6b
        E 120 80 1c 00
        E 0 80 34 00
        E 0 80 4c 00
        E 0 80 64 00
        E 120 90 64 69
        E 120 80 64 00
        E 120 90 4b 6a
        E 0 90 63 6a
        E 120 80 4b 00
        E 0 80 63 00
        E 120 90 63 68
        E 120 80 63 00
        E 120 90 62 6b
        E 120 80 62 00
        E 120 90 1c 6b
        E 0 90 34 6b
        E 0 90 4c 6b
        E 0 90 64 6b
        E 120 80 1c 00
        E 0 80 34 00
        E 0 80 4c 00
        E 0 80 64 00
        E 360 90 64 69
        E 120 80 64 00
        E 120 90 33 6a
        E 0 90 4b 6a
        E 0 90 63 6a
        E 120 80 33 00
        E 0 80 4b 00
        E 0 80 63 00
        E 120 90 63 68
        E 120 80 63 00
        E 120 90 4a 6b
        E 0 90 62 6b
        E 120 80 4a 00
        E 0 80 62 00
        E 360 90 1c 6b
        E 0 90 34 6b
        E 0 90 4c 6b
        E 0 90 64 6b
        E 120 80 1c 00
        E 0 80 34 00
        E 0 80 4c 00
        E 0 80 64 00
        E 120 90 64 69
        E 120 80 64 00
        E 120 90 33 6a
        E 0 90 4b 6a
        E 0 90 63 6a
        E 120 80 33 00
        E 0 80 4b 00
        E 0 80 63 00
        E 120 90 63 68
        E 120 80 63 00
        E 120 90 4a 6b
        E 0 90 62 6b
        E 120 80 4a 00
        E 0 80 62 00
        E 360 90 1c 6b
        E 0 90 34 6b
        E 0 90 4c 6b
        E 0 90 64 6b
        E 120 80 1c 00
        E 0 80 34 00
        E 0 80 4c 00
        E 0 80 64 00
        E 120 90 64 69
        E 120 80 64 00
        E 120 90 63 6a
        E 120 80 63 00
        E 120 90 4b 68
        E 0 90 63 68
        E 120 80 4b 00
        E 0 80 63 00
        E 360 90 34 69
        E 0 90 4c 69
        E 0 90 64 69
        E 120 80 34 00
        E 0 80 4c 00
        E 0 80 64 00
        E 0 90 64 6b
        E 120 80 64 00
        E 0 90 65 69
        E 120 80 65 00
        E 120 90 4d 6b
        E 0 90 65 6b
        E 120 80 4d 00
        E 0 80 65 00
        E 120 90 1c 6b
        E 0 90 34 6b
        E 0 90 4c 6b
        E 0 90 64 6b
        E 120 80 1c 00
        E 0 80 34 00
        E 0 80 4c 00
        E 0 80 64 00
        E 360 90 33 6a
        E 0 90 4b 6a
        E 0 90 63 6a
        E 120 80 33 00
        E 0 80 4b 00
        E 0 80 63 00
        E 120 90 63 68
        E 120 80 63 00
        E 120 90 4a 6b
        E 0 90 62 6b
        E 0 90 74 64
        E 120 80 4a 00
        E 0 80 62 00
        E 360 90 1c 6b
        E 0 90 34 6b
        E 0 90 4c 6b
        E 0 90 64 6b
        E 120 80 1c 00
        E 0 80 34 00
        E 0 80 4c 00
        E 0 80 64 00
        E 120 90 64 69
        E 120 80 64 00
        E 120 90 4b 6a
        E 0 90 63 6a
        E 120 80 4b 00
        E 0 80 63 00
        E 120 90 63 68
        E 120 80 63 00
        E 120 90 62 6b
        E 120 80 62 00
        E 120 90 1c 6b
        E 0 90 34 6b
        E 0 90 4c 6b
        E 0 90 64 6b
        E 120 80 1c 00
        E 0 80 34 00
        E 0 80 4c 00
        E 0 80 64 00
        E 360 90 64 69
        E 120 80 64 00
        E 120 90 33 6a
        E 0 90 4b 6a
        E 0 90 63 6a
        E 120 80 33 00
        E 0 80 4b 00
        E 0 80 63 00
        E 120 90 63 68
        E 120 80 63 00
        E 120 80 74 00
        E 0 90 4a 6b
        E 0 90 62 6b
        E 120 80 4a 00
        E 0 80 62 00
        E 360 90 1c 6b
        E 0 90 34 6b
        E 0 90 4c 6b
        E 0 90 64 6b
        E 120 80 1c 00
        E 0 80 34 00
        E 0 80 4c 00
        E 0 80 64 00
        E 120 90 64 69
        E 120 80 64 00
        E 120 90 33 6a
        E 0 90 4b 6a
        E 0 90 63 6a
        E 120 80 33 00
        E 0 80 4b 00
        E 0 80 63 00
        E 120 90 63 68
        E 120 80 63 00
        E 120 90 4a 6b
        E 0 90 62 6b
        E 120 80 4a 00
        E 0 80 62 00
        E 360 90 1c 6b
        E 0 90 34 6b
        E 0 90 4c 6b
        E 0 90 64 6b
        E 120 80 1c 00
        E 0 80 34 00
        E 0 80 4c 00
        E 0 80 64 00
        E 120 90 64 69
        E 120 80 64 00
        E 120 90 63 6a
        E 120 80 63 00
        E 120 90 4b 68
        E 0 90 63 68
        E 120 80 4b 00
        E 0 80 63 00
        E 360 90 34 69
        E 0 90 4c 69
        E 0 90 64 69
        E 120 80 34 00
        E 0 80 4c 00
        E 0 80 64 00
        E 0 90 64 6b
        E 120 80 64 00
        E 0 90 65 69
        E 120 80 65 00
        E 120 90 4d 6b
        E 0 90 65 6b
        E 120 80 4d 00
        E 0 80 65 00
        E 120 90 1c 6b
        E 0 90 34 6b
        E 0 90 4c 6b
        E 0 90 64 6b
        E 120 80 1c 00
        E 0 80 34 00
        E 0 80 4c 00
        E 0 80 64 00
        E 360 90 33 6a
        E 0 90 4b 6a
        E 0 90 63 6a
        E 120 80 33 00
        E 0 80 4b 00
        E 0 80 63 00
        E 120 90 63 68
        E 120 80 63 00
        E 120 90 4a 6b
        E 0 90 62 6b
        E 120 80 4a 00
        E 0 80 62 00
        E 360 90 1c 6b
        E 0 90 34 6b
        E 0 90 4c 6b
        E 0 90 64 6b
        E 120 80 1c 00
        E 0 80 34 00
        E 0 80 4c 00
        E 0 80 64 00
        E 120 90 64 69
        E 120 80 64 00
        E 120 90 4b 6a
        E 0 90 63 6a
        E 120 80 4b 00
        E 0 80 63 00
        E 120 90 63 68
        E 120 80 63 00
        E 120 90 62 6b
        E 120 80 62 00
        E 120 90 1c 6b
        E 0 90 34 6b
        E 0 90 4c 6b
        E 0 90 64 6b
        E 120 80 1c 00
        E 0 80 34 00
        E 0 80 4c 00
        E 0 80 64 00
        E 360 90 64 69
        E 120 80 64 00
        E 120 90 33 6a
        E 0 90 4b 6a
        E 0 90 63 6a
        E 120 80 33 00
        E 0 80 4b 00
        E 0 80 63 00
        E 120 90 63 68
        E 120 80 63 00
        E 120 90 4a 6b
        E 0 90 62 6b
        E 120 80 4a 00
        E 0 80 62 00
        E 360 90 1c 6b
        E 0 90 34 6b
        E 0 90 4c 6b
        E 0 90 64 6b
        E 120 80 1c 00
        E 0 80 34 00
        E 0 80 4c 00
        E 0 80 64 00
        E 120 90 64 69
        E 120 80 64 00
        E 120 90 33 6a
        E 0 90 4b 6a
        E 0 90 63 6a
        E 120 80 33 00
        E 0 80 4b 00
        E 0 80 63 00
        E 120 90 63 68
        E 120 80 63 00
        E 120 90 4a 6b
        E 0 90 62 6b
        E 120 80 4a 00
        E 0 80 62 00
        E 360 90 1c 6b
        E 0 90 34 6b
        E 0 90 4c 6b
        E 0 90 64 6b
        E 120 80 1c 00
        E 0 80 34 00
        E 0 80 4c 00
        E 0 80 64 00
        E 120 90 64 69
        E 120 80 64 00
        E 120 90 63 6a
        E 120 80 63 00
        E 120 90 4b 68
        E 0 90 63 68
        E 120 80 4b 00
        E 0 80 63 00
        E 360 90 34 69
        E 0 90 4c 69
        E 0 90 64 69
        E 120 80 34 00
        E 0 80 4c 00
        E 0 80 64 00
        E 0 90 64 6b
        E 120 80 64 00
        E 0 90 65 69
        E 120 80 65 00
        E 120 90 4d 6b
        E 0 90 65 6b
        E 120 80 4d 00
        E 0 80 65 00
        E 120 90 1c 6b
        E 0 90 34 6b
        E 0 90 4c 6b
        E 0 90 64 6b
        E 120 80 1c 00
        E 0 80 34 00
        E 0 80 4c 00
        E 0 80 64 00
        E 360 90 33 6a
        E 0 90 4b 6a
        E 0 90 63 6a
        E 120 80 33 00
        E 0 80 4b 00
        E 0 80 63 00
        E 120 90 63 68
        E 120 80 63 00
        E 120 90 4a 6b
        E 0 90 62 6b
        E 120 80 4a 00
        E 0 80 62 00
        E 360 90 1c 6b
        E 0 90 34 6b
        E 0 90 4c 6b
        E 0 90 64 6b
        E 120 80 1c 00
        E 0 80 34 00
        E 0 80 4c 00
        E 0 80 64 00
        E 120 90 64 69
        E 120 80 64 00
        E 120 90 4b 6a
        E 0 90 63 6a
        E 120 80 4b 00
        E 0 80 63 00
        E 120 90 63 68
        E 120 80 63 00
        E 120 90 62 6b
        E 120 80 62 00
        E 120 90 1c 6b
        E 0 90 34 6b
        E 0 90 4c 6b
        E 0 90 64 6b
        E 120 80 1c 00
        E 0 80 34 00
        E 0 80 4c 00
        E 0 80 64 00
        E 360 90 64 69
        E 120 80 64 00
        E 120 90 33 6a
        E 0 90 4b 6a
        E 0 90 63 6a
        E 120 80 33 00
        E 0 80 4b 00
        E 0 80 63 00
        E 120 90 63 68
        E 120 80 63 00
        E 120 90 4a 6b
        E 0 90 62 6b
        E 0 90 74 64
        E 120 80 4a 00
        E 0 80 62 00
        E 360 90 1c 6b
        E 0 90 34 6b
        E 0 90 4c 6b
        E 0 90 64 6b
        E 120 80 1c 00
        E 0 80 34 00
        E 0 80 4c 00
        E 0 80 64 00
        E 120 90 64 69
        E 120 80 64 00
        E 120 90 33 6a
        E 0 90 4b 6a
        E 0 90 63 6a
        E 120 80 33 00
        E 0 80 4b 00
        E 0 80 63 00
        E 120 90 63 68
        E 120 80 63 00
        E 120 90 4a 6b
        E 0 90 62 6b
        E 119 80 74 00
        E 1 80 4a 00
        E 0 80 62 00
        E 360 90 1c 6b
        E 0 90 34 6b
        E 0 90 4c 6b
        E 0 90 64 6b
        E 120 80 1c 00
        E 0 80 34 00
        E 0 80 4c 00
        E 0 80 64 00
        E 120 90 64 69
        E 120 80 64 00
        E 120 90 63 6a
        E 120 80 63 00
        E 120 90 4b 68
        E 0 90 63 68
        E 120 80 4b 00
        E 0 80 63 00
        E 360 90 34 69
        E 0 90 4c 69
        E 0 90 64 69
        E 120 80 34 00
        E 0 80 4c 00
        E 0 80 64 00
        E 0 90 64 6b
        E 120 80 64 00
        E 0 90 65 69
        E 120 80 65 00
        E 120 90 4d 6b
        E 0 90 65 6b
        E 120 80 4d 00
        E 0 80 65 00
        E 120 90 1c 6b
        E 0 90 34 6b
        E 0 90 4c 6b
        E 0 90 64 6b
        E 120 80 1c 00
        E 0 80 34 00
        E 0 80 4c 00
        E 0 80 64 00
        E 360 90 33 6a
        E 0 90 4b 6a
        E 0 90 63 6a
        E 120 80 33 00
        E 0 80 4b 00
        E 0 80 63 00
        E 120 90 63 68
        E 120 80 63 00
        E 120 90 4a 6b
        E 0 90 62 6b
        E 120 80 4a 00
        E 0 80 62 00
        E 360 90 1c 6b
        E 0 90 34 6b
        E 0 90 4c 6b
        E 0 90 64 6b
        E 120 80 1c 00
        E 0 80 34 00
        E 0 80 4c 00
        E 0 80 64 00
        E 120 90 64 69
        E 120 80 64 00
        E 120 90 4b 6a
        E 0 90 63 6a
        E 120 80 4b 00
        E 0 80 63 00
        E 120 90 63 68
        E 120 80 63 00
        E 120 90 62 6b
        E 120 80 62 00
        E 120 90 1c 6b
        E 0 90 34 6b
        E 0 90 4c 6b
        E 0 90 64 6b
        E 120 80 1c 00
        E 0 80 34 00
        E 0 80 4c 00
        E 0 80 64 00
        E 360 90 64 69
        E 120 80 64 00
        E 120 90 33 6a
        E 0 90 4b 6a
        E 0 90 63 6a
        E 120 80 33 00
        E 0 80 4b 00
        E 0 80 63 00
        E 120 90 63 68
        E 120 80 63 00
        E 120 90 4a 6b
        E 0 90 62 6b
        E 120 80 4a 00
        E 0 80 62 00
        E 360 90 1c 6b
        E 0 90 34 6b
        E 0 90 4c 6b
        E 0 90 64 6b
        E 120 80 1c 00
        E 0 80 34 00
        E 0 80 4c 00
        E 0 80 64 00
        E 120 90 64 69
        E 120 80 64 00
        E 120 90 33 6a
        E 0 90 4b 6a
        E 0 90 63 6a
        E 120 80 33 00
        E 0 80 4b 00
        E 0 80 63 00
        E 120 90 63 68
        E 120 80 63 00
        E 120 90 4a 6b
        E 0 90 62 6b
        E 120 80 4a 00
        E 0 80 62 00
        E 360 90 1c 6b
        E 0 90 34 6b
        E 0 90 4c 6b
        E 0 90 64 6b
        E 120 80 1c 00
        E 0 80 34 00
        E 0 80 4c 00
        E 0 80 64 00
        E 120 90 64 69
        E 120 80 64 00
        E 120 90 63 6a
        E 120 80 63 00
        E 120 90 4b 68
        E 0 90 63 68
        E 120 80 4b 00
        E 0 80 63 00
        E 360 90 34 69
        E 0 90 4c 69
        E 0 90 64 69
        E 120 80 34 00
        E 0 80 4c 00
        E 0 80 64 00
        E 0 90 64 6b
        E 120 80 64 00
        E 0 90 65 69
        E 120 80 65 00
        E 120 90 4d 6b
        E 0 90 65 6b
        E 120 80 4d 00
        E 0 80 65 00
        E 120 90 1c 6b
        E 0 90 34 6b
        E 0 90 4c 6b
        E 0 90 64 6b
        E 120 80 1c 00
        E 0 80 34 00
        E 0 80 4c 00
        E 0 80 64 00
        E 360 90 33 6a
        E 0 90 4b 6a
        E 0 90 63 6a
        E 120 80 33 00
        E 0 80 4b 00
        E 0 80 63 00
        E 120 90 63 68
        E 120 80 63 00
        E 120 90 4a 6b
        E 0 90 62 6b
        E 120 80 4a 00
        E 0 80 62 00
        E 360 90 1c 6b
        E 0 90 34 6b
        E 0 90 4c 6b
        E 0 90 64 6b
        E 120 80 1c 00
        E 0 80 34 00
        E 0 80 4c 00
        E 0 80 64 00
        E 120 90 64 69
        E 120 80 64 00
        E 120 90 4b 6a
        E 0 90 63 6a
        E 120 80 4b 00
        E 0 80 63 00
        E 120 90 63 68
        E 120 80 63 00
        E 120 90 62 6b
        E 120 80 62 00
        E 120 90 1c 6b
        E 0 90 34 6b
        E 0 90 4c 6b
        E 0 90 64 6b
        E 120 80 1c 00
        E 0 80 34 00
        E 0 80 4c 00
        E 0 80 64 00
        E 360 90 64 69
        E 120 80 64 00
        E 120 90 33 6a
        E 0 90 4b 6a
        E 0 90 63 6a
        E 120 80 33 00
        E 0 80 4b 00
        E 0 80 63 00
        E 120 90 63 68
        E 120 80 63 00
        E 120 90 4a 6b
        E 0 90 62 6b
        E 120 80 4a 00
        E 0 80 62 00
        E 360 90 1c 6b
        E 0 90 34 6b
        E 0 90 4c 6b
        E 0 90 64 6b
        E 120 80 1c 00
        E 0 80 34 00
        E 0 80 4c 00
        E 0 80 64 00
        E 120 90 64 69
        E 120 80 64 00
        E 120 90 33 6a
        E 0 90 4b 6a
        E 0 90 63 6a
        E 120 80 33 00
        E 0 80 4b 00
        E 0 80 63 00
        E 120 90 63 68
        E 120 80 63 00
        E 120 90 4a 6b
        E 0 90 62 6b
        E 120 80 4a 00
        E 0 80 62 00
        E 360 90 1c 6b
        E 0 90 34 6b
        E 0 90 4c 6b
        E 0 90 64 6b
        E 120 80 1c 00
        E 0 80 34 00
        E 0 80 4c 00
        E 0 80 64 00
        E 120 90 64 69
        E 120 80 64 00
        E 120 90 63 6a
        E 120 80 63 00
        E 120 90 4b 68
        E 0 90 63 68
        E 120 80 4b 00
        E 0 80 63 00
        E 360 90 34 69
        E 0 90 4c 69
        E 0 90 64 69
        E 120 80 34 00
        E 0 80 4c 00
        E 0 80 64 00
        E 0 90 64 6b
        E 120 80 64 00
        E 0 90 65 69
        E 120 80 65 00
        E 120 90 4d 6b
        E 0 90 65 6b
        E 120 80 4d 00
        E 0 80 65 00
        E 120 90 1c 6b
        E 0 90 34 6b
        E 0 90 4c 6b
        E 0 90 64 6b
        E 120 80 1c 00
        E 0 80 34 00
        E 0 80 4c 00
        E 0 80 64 00
        E 360 90 33 6a
        E 0 90 4b 6a
        E 0 90 63 6a
        E 120 80 33 00
        E 0 80 4b 00
        E 0 80 63 00
        E 120 90 63 68
        E 120 80 63 00
        E 120 90 4a 6b
        E 0 90 62 6b
        E 120 80 4a 00
        E 0 80 62 00
        E 360 90 1c 6b
        E 0 90 34 6b
        E 0 90 4c 6b
        E 0 90 64 6b
        E 120 80 1c 00
        E 0 80 34 00
        E 0 80 4c 00
        E 0 80 64 00
        E 120 90 64 69
        E 120 80 64 00
        E 120 90 4b 6a
        E 0 90 63 6a
        E 120 80 4b 00
        E 0 80 63 00
        E 120 90 63 68
        E 120 80 63 00
        E 120 90 62 6b
        E 120 80 62 00
        E 120 90 1c 6b
        E 0 90 34 6b
        E 0 90 4c 6b
        E 0 90 64 6b
        E 120 80 1c 00
        E 0 80 34 00
        E 0 80 4c 00
        E 0 80 64 00
        E 360 90 64 69
        E 120 80 64 00
        E 120 90 33 6a
        E 0 90 4b 6a
        E 0 90 63 6a
        E 120 80 33 00
        E 0 80 4b 00
        E 0 80 63 00
        E 120 90 63 68
        E 120 80 63 00
        E 120 90 4a 6b
        E 0 90 62 6b
        E 120 80 4a 00
        E 0 80 62 00
        E 360 90 1c 6b
        E 0 90 34 6b
        E 0 90 4c 6b
        E 0 90 64 6b
        E 0 90 74 64
        E 120 80 1c 00
        E 0 80 34 00
        E 0 80 4c 00
        E 0 80 64 00
        E 120 90 64 69
        E 120 80 64 00
        E 120 90 33 6a
        E 0 90 4b 6a
        E 0 90 63 6a
        E 120 80 33 00
        E 0 80 4b 00
        E 0 80 63 00
        E 120 90 63 68
        E 120 80 63 00
        E 120 90 4a 6b
        E 0 90 62 6b
        E 120 80 4a 00
        E 0 80 62 00
        E 360 90 1c 6b
        E 0 90 34 6b
        E 0 90 4c 6b
        E 0 90 64 6b
        E 120 80 1c 00
        E 0 80 34 00
        E 0 80 4c 00
        E 0 80 64 00
        E 120 90 64 69
        E 120 80 64 00
        E 120 90 63 6a
        E 120 80 63 00
        E 120 90 4b 68
        E 0 90 63 68
        E 120 80 4b 00
        E 0 80 63 00
        E 120 80 74 00
        E 240 90 34 69
        E 0 90 4c 69
        E 0 90 64 69
        E 120 80 34 00
        E 0 80 4c 00
        E 0 80 64 00
        E 0 90 64 6b
        E 120 80 64 00
        E 0 90 65 69
        E 120 80 65 00
        E 120 90 4d 6b
        E 0 90 65 6b
        E 120 80 4d 00
        E 0 80 65 00
        E 120 90 1c 6b
        E 0 90 34 6b
        E 0 90 4c 6b
        E 0 90 64 6b
        E 120 80 1c 00
        E 0 80 34 00
        E 0 80 4c 00
        E 0 80 64 00
        E 360 90 33 6a
        E 0 90 4b 6a
        E 0 90 63 6a
        E 120 80 33 00
        E 0 80 4b 00
        E 0 80 63 00
        E 120 90 63 68
        E 120 80 63 00
        E 120 90 4a 6b
        E 0 90 62 6b
        E 120 80 4a 00
        E 0 80 62 00
        E 360 90 1c 6b
        E 0 90 34 6b
        E 0 90 4c 6b
        E 0 90 64 6b
        E 120 80 1c 00
        E 0 80 34 00
        E 0 80 4c 00
        E 0 80 64 00
        E 120 90 64 69
        E 120 80 64 00
        E 120 90 4b 6a
        E 0 90 63 6a
        E 120 80 4b 00
        E 0 80 63 00
        E 120 90 63 68
        E 120 80 63 00
        E 120 90 62 6b
        E 120 80 62 00
        E 120 90 1c 6b
        E 0 90 34 6b
        E 0 90 4c 6b
        E 0 90 64 6b
        E 120 80 1c 00
        E 0 80 34 00
        E 0 80 4c 00
        E 0 80 64 00
        E 360 90 64 69
        E 120 80 64 00
        E 120 90 33 6a
        E 0 90 4b 6a
        E 0 90 63 6a
        E 120 80 33 00
        E 0 80 4b 00
        E 0 80 63 00
        E 120 90 63 68
        E 120 80 63 00
        E 120 90 4a 6b
        E 0 90 62 6b
        E 120 80 4a 00
        E 0 80 62 00
        E 360 90 1c 6b
        E 0 90 34 6b
        E 0 90 4c 6b
        E 0 90 64 6b
        E 120 80 1c 00
        E 0 80 34 00
        E 0 80 4c 00
        E 0 80 64 00
        E 120 90 64 69
        E 120 80 64 00
        E 120 90 33 6a
        E 0 90 4b 6a
        E 0 90 63 6a
        E 120 80 33 00
        E 0 80 4b 00
        E 0 80 63 00
        E 120 90 63 68
        E 120 80 63 00
        E 120 90 4a 6b
        E 0 90 62 6b
        E 120 80 4a 00
        E 0 80 62 00
        E 360 90 1c 6b
        E 0 90 34 6b
        E 0 90 4c 6b
        E 0 90 64 6b
        E 120 80 1c 00
        E 0 80 34 00
        E 0 80 4c 00
        E 0 80 64 00
        E 120 90 64 69
        E 120 80 64 00
        E 120 90 63 6a
        E 120 80 63 00
        E 120 90 4b 68
        E 0 90 63 68
        E 120 80 4b 00
        E 0 80 63 00
        E 360 90 34 69
        E 0 90 4c 69
        E 0 90 64 69
        E 120 80 34 00
        E 0 80 4c 00
        E 0 80 64 00
        E 0 90 64 6b
        E 120 80 64 00
        E 0 90 65 69
        E 120 80 65 00
        E 120 90 4d 6b
        E 0 90 65 6b
        E 120 80 4d 00
        E 0 80 65 00
        E 120 90 1c 6b
        E 0 90 34 6b
        E 0 90 4c 6b
        E 0 90 64 6b
        E 120 80 1c 00
        E 0 80 34 00
        E 0 80 4c 00
        E 0 80 64 00
        E 360 90 33 6a
        E 0 90 4b 6a
        E 0 90 63 6a
        E 120 80 33 00
        E 0 80 4b 00
        E 0 80 63 00
        E 120 90 63 68
        E 120 80 63 00
        E 120 90 4a 6b
        E 0 90 62 6b
        E 120 80 4a 00
        E 0 80 62 00
        E 360 90 1c 6b
        E 0 90 34 6b
        E 0 90 4c 6b
        E 0 90 64 6b
        E 120 80 1c 00
        E 0 80 34 00
        E 0 80 4c 00
        E 0 80 64 00
        E 120 90 64 69
        E 120 80 64 00
        E 120 90 4b 6a
        E 0 90 63 6a
        E 120 80 4b 00
        E 0 80 63 00
        E 120 90 63 68
        E 120 80 63 00
        E 120 90 62 6b
        E 120 80 62 00
        E 120 90 1c 6b
        E 0 90 34 6b
        E 0 90 4c 6b
        E 0 90 64 6b
        E 120 80 1c 00
        E 0 80 34 00
        E 0 80 4c 00
        E 0 80 64 00
        E 360 90 64 69
        E 120 80 64 00
        E 120 90 33 6a
        E 0 90 4b 6a
        E 0 90 63 6a
        E 120 80 33 00
        E 0 80 4b 00
        E 0 80 63 00
        E 120 90 63 68
        E 120 80 63 00
        E 120 90 4a 6b
        E 0 90 62 6b
        E 120 80 4a 00
        E 0 80 62 00
        E 360 90 1c 6b
        E 0 90 34 6b
        E 0 90 4c 6b
        E 0 90 64 6b
        E 120 80 1c 00
        E 0 80 34 00
        E 0 80 4c 00
        E 0 80 64 00
        E 120 90 64 69
        E 120 80 64 00
        E 120 90 33 6a
        E 0 90 4b 6a
        E 0 90 63 6a
        E 120 80 33 00
        E 0 80 4b 00
        E 0 80 63 00
        E 120 90 63 68
        E 120 80 63 00
        E 120 90 4a 6b
        E 0 90 62 6b
        E 120 80 4a 00
        E 0 80 62 00
        E 360 90 1c 6b
        E 0 90 34 6b
        E 0 90 4c 6b
        E 0 90 64 6b
        E 120 80 1c 00
        E 0 80 34 00
        E 0 80 4c 00
        E 0 80 64 00
        E 120 90 64 69
        E 120 80 64 00
        E 120 90 63 6a
        E 120 80 63 00
        E 120 90 4b 68
        E 0 90 63 68
        E 120 80 4b 00
        E 0 80 63 00
        E 360 90 34 69
        E 0 90 4c 69
        E 0 90 64 69
        E 120 80 34 00
        E 0 80 4c 00
        E 0 80 64 00
        E 0 90 64 6b
        E 120 80 64 00
        E 0 90 65 69
        E 120 80 65 00
        E 120 90 4d 6b
        E 0 90 65 6b
        E 120 80 4d 00
        E 0 80 65 00
        E 30839 b0 7b 00
        GUID {87D882E1-7AD9-45A1-898A-07057559BF43}
        IGNTEMPO 0 120.00000000 4 4
        SRCCOLOR 14
        VELLANE 132 128 60
        COLORMAP "C:\Program Files\REAPER (x64)\Data\color_maps\rockband_guitarbass.png"
        CFGEDITVIEW -1262.504100 69.848485 7 12 0 0 0
        CFGEDIT 1 1 0 1 1 0 1 1 1 1 1 0.25000000 -8 -8 1544 872 0 2 1 1 0.00000000 0 1 1 0 0.500000 0 0 1.000000 64
        KEYSNAP 0 6 "102030050700" 0 "Pentatonic"
        EVTFILTER 0 -1 -1 -1 -1 0 1 0 0 -1.00000000 -1.00000000
      >
    >
  >
  <TRACK '{ED1F12E4-4515-425D-9A13-57A6C485D86E}'
    NAME "VENUE"
    PEAKCOL 16576
    BEAT -1
    AUTOMODE 0
    VOLPAN 1.00000000000000 0.00000000000000 -1.00000000000000 -1.00000000000000 1.00000000000000
    MUTESOLO 0 0 0
    IPHASE 0
    ISBUS 1 1
    BUSCOMP 1 0
    SHOWINMIX 1 0.666700 0.500000 1 0.500000 -1 -1 -1
    FREEMODE 0
    SEL 0
    REC 0 0 0 0 0 0 0
    VU 2
    TRACKHEIGHT 0 0
    INQ 0 0 0 0.5000000000 100 0 0 100
    NCHAN 2
    FX 1
    TRACKID {ED1F12E4-4515-425D-9A13-57A6C485D86E}
    PERF 0
    MIDIOUT -1
    <MIDINOTENAMES
      0 87 "Guitarist Sing Along"
      0 86 "Drummer Sing Along"
      0 85 "Bassist Sing Along"
      0 84 "----"
      0 41 "Spotlight on Keys"
      0 40 "Spotlight on Vocals"
      0 39 "Spotlight on Guitar"
      0 38 "Spotlight on Drums"
      0 37 "Spotlight on Bass"
    >
    MAINSEND 1 0
    <FXCHAIN
      SHOW 0
      LASTSEL 0
      DOCKED 0
    >
    <ITEM
      POSITION 0.00000000000000
      SNAPOFFS 0.00000000000000
      LENGTH 119.20500000000000
      LOOP 0
      ALLTAKES 0
      SEL 0
      FADEIN 1 0.000000 0.000000 1 0
      FADEOUT 1 0.000000 0.000000 1 0
      MUTE 0
      IGUID {0EC06F02-8EF9-4EFB-90D7-895FFD19DF68}
      IID 13
      NAME "VENUE"
      VOLPAN 1.000000 0.000000 1.000000 -1.000000
      SOFFS 0.00000000000000 0.00000000000000
      PLAYRATE 1.00000000000000 1 0.00000000000000 -1
      CHANMODE 0
      GUID {0395A419-9B64-4CBD-B037-ED36EFA6065C}
      <SOURCE MIDI
        HASDATA 1 480 QN
        POOLEDEVTS {4646A32B-BCD8-49B3-9AD4-00CCDA6E0C93}
        <X 0 0
          /wNWRU5VRQ==
        >
        <X 0 0
          /wFbY29vcF9hbGxfYmVoaW5kXQ==
        >
        <X 0 0
          /wFbcG9zdGVyaXplLnBwXQ==
        >
        <X 240 0
          /wFbbGlnaHRpbmcgKGJsYWNrb3V0X2Zhc3QpXQ==
        >
        <X 5520 0
          /wFbY29vcF9nX25lYXJd
        >
        E 0 90 25 60
        E 0 90 27 60
        <X 3840 0
          /wFbY29vcF9iX25lYXJd
        >
        <X 3840 0
          /wFbZGlyZWN0ZWRfZ3VpdGFyX2Nsc10=
        >
        <X 120 0
          /wFbZGlyZWN0ZWRfZ3VpdGFyX2Nsc10=
        >
        <X 1800 0
          /wFbY29vcF9nX2Nsb3NldXBfaGVhZF0=
        >
        <X 1920 0
          /wFbZGlyZWN0ZWRfYmFzc19jbHNd
        >
        <X 120 0
          /wFbZGlyZWN0ZWRfYmFzc19jbHNd
        >
        <X 1800 0
          /wFbY29vcF9iX2Nsb3NldXBfaGVhZF0=
        >
        E 1920 90 29 60
        <X 480 0
          /wFbY29vcF9rX25lYXJd
        >
        <X 0 0
          /wFbY29vcF9kX25lYXJd
        >
        <X 3360 0
          /wFbY29vcF9rX25lYXJd
        >
        <X 0 0
          /wFbY29vcF9nX25lYXJd
        >
        <X 3840 0
          /wFbY29vcF9iX2Nsb3NldXBfaGFuZF0=
        >
        <X 3840 0
          /wFbY29vcF9hbGxfbmVhcl0=
        >
        <X 3840 0
          /wFbZGlyZWN0ZWRfZHJ1bXNfa2Rd
        >
        E 0 90 26 60
        <X 120 0
          /wFbZGlyZWN0ZWRfZHJ1bXNfa2Rd
        >
        <X 3720 0
          /wFbY29vcF9kX2Nsb3NldXBfaGVhZF0=
        >
        <X 1920 0
          /wFbY29vcF9kX25lYXJd
        >
        <X 1920 0
          /wFbY29vcF9rX25lYXJd
        >
        <X 0 0
          /wFbY29vcF9nX25lYXJd
        >
        <X 3840 0
          /wFbZGlyZWN0ZWRfYWxsX2NhbV0=
        >
        <X 5760 0
          /wFbY29vcF9kZ19uZWFyXQ==
        >
        <X 1920 0
          /wFbY29vcF9rX2Nsb3NldXBfaGFuZF0=
        >
        <X 0 0
          /wFbY29vcF9iX2Nsb3NldXBfaGFuZF0=
        >
        <X 3840 0
          /wFbY29vcF9iX25lYXJd
        >
        <X 1920 0
          /wFbY29vcF9iX25lYXJd
        >
        <X 1920 0
          /wFbY29vcF92X2JlaGluZF0=
        >
        <X 3840 0
          /wFbY29vcF9kZ19uZWFyXQ==
        >
        <X 3840 0
          /wFbY29vcF9nX25lYXJd
        >
        <X 3840 0
          /wFbY29vcF9mcm9udF9uZWFyXQ==
        >
        <X 3840 0
          /wFbY29vcF9hbGxfZmFyXQ==
        >
        <X 3840 0
          /wFbY29vcF9rX2Nsb3NldXBfaGFuZF0=
        >
        <X 0 0
          /wFbY29vcF9nX2Nsb3NldXBfaGFuZF0=
        >
        <X 5760 0
          /wFbY29vcF9kX2Nsb3NldXBfaGFuZF0=
        >
        <X 1920 0
          /wFbY29vcF9kX25lYXJd
        >
        <X 1920 0
          /wFbY29vcF9nX25lYXJd
        >
        <X 1920 0
          /wFbZGlyZWN0ZWRfZ3VpdGFyXQ==
        >
        <X 1920 0
          /wFbY29vcF9na19uZWFyXQ==
        >
        <X 0 0
          /wFbY29vcF9kX2Nsb3NldXBfaGFuZF0=
        >
        <X 1920 0
          /wFbY29vcF9na19uZWFyXQ==
        >
        <X 0 0
          /wFbY29vcF9kX25lYXJd
        >
        <X 1920 0
          /wFbY29vcF9iZ19uZWFyXQ==
        >
        <X 1920 0
          /wFbZGlyZWN0ZWRfYWxsX2NhbV0=
        >
        <X 3840 0
          /wFbY29vcF9rX25lYXJd
        >
        <X 0 0
          /wFbY29vcF9hbGxfZmFyXQ==
        >
        <X 3840 0
          /wFbY29vcF9iX25lYXJd
        >
        <X 1920 0
          /wFbY29vcF9kX2Nsb3NldXBfaGFuZF0=
        >
        <X 960 0
          /wFbY29vcF9kX2Nsb3NldXBfaGFuZF0=
        >
        <X 1440 0
          /wFbY29vcF9rX2Nsb3NldXBfaGFuZF0=
        >
        <X 0 0
          /wFbY29vcF9hbGxfYmVoaW5kXQ==
        >
        <X 11040 0
          /wFbY29vcF9rX25lYXJd
        >
        <X 3839 0
          /wFbY29vcF9hbGxfYmVoaW5kXQ==
        >
        E 0 80 25 00
        E 0 80 27 00
        E 0 80 29 00
        E 0 80 26 00
        E 15360 b0 7b 00
        GUID {CF9A967D-68E8-4D32-B3D2-DEDAA2C7B1AA}
        IGNTEMPO 0 120.00000000 4 4
        SRCCOLOR 15
        VELLANE 132 128 60
        COLORMAP "C:\Program Files\REAPER (x64)\Data\color_maps\rockband_guitarbass.png"
        CFGEDITVIEW -1262.504100 69.848485 0 48 0 0 0
        CFGEDIT 1 1 0 1 1 0 1 1 1 1 1 0.25000000 -8 -8 1544 872 0 2 1 1 0.00000000 0 1 1 0 0.500000 0 0 1.000000 64
        KEYSNAP 0 6 "102030050700" 0 "Pentatonic"
        EVTFILTER 0 -1 -1 -1 -1 0 1 0 0 -1.00000000 -1.00000000
      >
    >
  >
  <TRACK '{54E0EF10-9DB8-4C51-AFA2-26897589169B}'
    NAME "CAMERA"
    PEAKCOL 16576
    BEAT -1
    AUTOMODE 0
    VOLPAN 1.00000000000000 0.00000000000000 -1.00000000000000 -1.00000000000000 1.00000000000000
    MUTESOLO 1 0 0
    IPHASE 0
    ISBUS 0 0
    BUSCOMP 0 0
    SHOWINMIX 1 0.666700 0.500000 1 0.500000 -1 -1 -1
    FREEMODE 0
    SEL 0
    REC 0 0 0 0 0 0 0
    VU 2
    TRACKHEIGHT 0 0
    INQ 0 0 0 0.5000000000 100 0 0 100
    NCHAN 2
    FX 1
    TRACKID {54E0EF10-9DB8-4C51-AFA2-26897589169B}
    PERF 0
    MIDIOUT -1
    <MIDINOTENAMES
      0 102 "RANDOM"
      0 100 "All_Behind"
      0 99 "All_Far"
      0 98 "All_Near"
      0 96 "Front_Behind"
      0 95 "Front_Near"
      0 93 "D_Behind"
      0 92 "D_Near"
      0 91 "V_Behind"
      0 90 "V_Near"
      0 89 "B_Behind"
      0 88 "B_Near"
      0 87 "G_Behind"
      0 86 "G_Near"
      0 85 "K_Behind"
      0 84 "K_Near"
      0 82 "D_Hand"
      0 81 "D_Head"
      0 80 "V_Closeup"
      0 79 "B_Hand"
      0 78 "B_Head"
      0 77 "G_Hand"
      0 76 "G_Head"
      0 75 "K_Hand"
      0 74 "K_Head"
      0 72 "DV_Near"
      0 71 "BD_Near"
      0 70 "DG_Near"
      0 69 "BV_Behind"
      0 68 "BV_Near"
      0 67 "GV_Behind"
      0 66 "GV_Near"
      0 65 "KV_Behind"
      0 64 "KV_Near"
      0 63 "BG_Behind"
      0 62 "BG_Near"
      0 61 "BK_Behind"
      0 60 "BK_Near"
      0 59 "GK_Behind"
      0 58 "GK_Near"
      0 56 "D_All"
      0 55 "D_All_Cam"
      0 54 "D_All_LT*"
      0 53 "D_All_Yeah"
      0 52 "D_BRE"
      0 51 "D_BRE_Jump"
      0 49 "D_Drums_NP"
      0 48 "D_Bass_NP"
      0 47 "D_Gtr_NP"
      0 46 "D_Vox_NP"
      0 45 "D_Keys_NP"
      0 43 "D_Drums"
      0 42 "D_Drums_LT*"
      0 41 "D_Vocals"
      0 40 "D_Bass"
      0 39 "D_Gtr"
      0 38 "D_Keys"
      0 36 "D_Vox_Cam_PR"
      0 35 "D_Vox_Cam_PT"
      0 34 "D_Gtr_Cam_PR"
      0 33 "D_Gtr_Cam_PT"
      0 32 "D_Keys_Cam"
      0 31 "D_Bass_Cam"
      0 29 "D_Stagedive"
      0 28 "D_Crowdsurf"
      0 26 "D_Vox_CLS"
      0 25 "D_Bass_CLS*"
      0 24 "D_Gtr_CLS*"
      0 23 "D_Drums_KD*"
      0 21 "D_Drums_Point"
      0 20 "D_Crowd_Gtr"
      0 19 "D_Crowd_Bass"
      0 17 "D_Duo_Drums"
      0 16 "D_Duo_Gtr"
      0 15 "D_Duo_Bass"
      0 14 "D_Duo_KV"
      0 13 "D_Duo_GB"
      0 12 "D_Duo_KB"
      0 11 "D_Duo_KG"
      0 10 "D_Crowd*"
    >
    MAINSEND 1 0
    <FXCHAIN
      SHOW 0
      LASTSEL 0
      DOCKED 0
    >
    <ITEM
      POSITION 0.00000000000000
      SNAPOFFS 0.00000000000000
      LENGTH 119.20530000000001
      LOOP 0
      ALLTAKES 0
      SEL 0
      FADEIN 1 0.000000 0.000000 1 0
      FADEOUT 1 0.000000 0.000000 1 0
      MUTE 0
      IGUID {248505C7-1D31-4607-9D89-3BD8334AB2D8}
      IID 21
      NAME "CAMERA"
      VOLPAN 1.000000 0.000000 1.000000 -1.000000
      SOFFS 0.00000000000000 0.00000000000000
      PLAYRATE 1.00000000000000 1 0.00000000000000 -1
      CHANMODE 0
      GUID {FCF5EC87-D43C-4A5A-BB52-BECEEA6C9A67}
      <SOURCE MIDI
        HASDATA 1 480 QN
        POOLEDEVTS {669FCACB-E5CF-46C9-A000-80FC4A38C9FA}
        E 0 90 64 40
        E 60 80 64 00
        E 5700 90 56 40
        E 60 80 56 00
        E 3780 90 58 40
        E 60 80 58 00
        E 3780 90 18 40
        E 120 80 18 00
        E 1800 90 4c 40
        E 60 80 4c 00
        E 1860 90 19 40
        E 120 80 19 00
        E 1800 90 4e 40
        E 60 80 4e 00
        E 2340 90 54 40
        E 0 90 5c 40
        E 60 80 54 00
        E 0 80 5c 00
        E 3300 90 54 40
        E 0 90 56 40
        E 60 80 54 00
        E 0 80 56 00
        E 3780 90 4f 40
        E 60 80 4f 00
        E 3780 90 62 40
        E 60 80 62 00
        E 3780 90 17 40
        E 120 80 17 00
        E 3720 90 51 40
        E 60 80 51 00
        E 1860 90 5c 40
        E 60 80 5c 00
        E 1860 90 54 40
        E 0 90 56 40
        E 60 80 54 00
        E 0 80 56 00
        E 3780 90 37 40
        E 60 80 37 00
        E 5700 90 46 40
        E 60 80 46 00
        E 1860 90 4b 40
        E 0 90 4f 40
        E 60 80 4b 00
        E 0 80 4f 00
        E 3780 90 58 40
        E 60 80 58 00
        E 1860 90 58 40
        E 60 80 58 00
        E 1860 90 5b 40
        E 60 80 5b 00
        E 3780 90 46 40
        E 60 80 46 00
        E 3780 90 56 40
        E 60 80 56 00
        E 3780 90 5f 40
        E 60 80 5f 00
        E 3780 90 63 40
        E 60 80 63 00
        E 3780 90 4b 40
        E 0 90 4d 40
        E 60 80 4b 00
        E 0 80 4d 00
        E 5700 90 52 40
        E 60 80 52 00
        E 1860 90 5c 40
        E 60 80 5c 00
        E 1860 90 56 40
        E 60 80 56 00
        E 1860 90 27 40
        E 60 80 27 00
        E 1860 90 3a 40
        E 0 90 52 40
        E 60 80 3a 00
        E 0 80 52 00
        E 1860 90 3a 40
        E 0 90 5c 40
        E 60 80 3a 00
        E 0 80 5c 00
        E 1860 90 3e 40
        E 60 80 3e 00
        E 1860 90 37 40
        E 60 80 37 00
        E 3780 90 54 40
        E 0 90 63 40
        E 60 80 54 00
        E 0 80 63 00
        E 3780 90 58 40
        E 60 80 58 00
        E 1860 90 52 40
        E 60 80 52 00
        E 900 90 52 40
        E 60 80 52 00
        E 1380 90 4b 40
        E 0 90 64 40
        E 60 80 4b 00
        E 0 80 64 00
        E 10980 90 54 40
        E 60 80 54 00
        E 3779 90 64 40
        E 60 80 64 00
        GUID {B644B2AA-5A7D-4D21-86EA-A1D114F3989C}
        IGNTEMPO 0 120.00000000 4 4
        SRCCOLOR 18
        VELLANE 132 128 60
        COLORMAP "C:\Program Files\REAPER (x64)\Data\color_maps\rockband_guitarbass.png"
        CFGEDITVIEW -9360.641140 9.420722 0 12 0 0 0
        CFGEDIT 1 1 0 1 1 0 1 1 1 1 1 0.25000000 -8 -8 1544 872 0 2 1 1 0.00000000 0 1 1 0 0.500000 0 0 1.000000 64
        KEYSNAP 0 6 "102030050700" 0 "Pentatonic"
        EVTFILTER 0 -1 -1 -1 -1 0 1 0 0 -1.00000000 -1.00000000
      >
    >
  >
  <TRACK '{F7325F79-19EC-43BD-B410-5BE4071F3CEF}'
    NAME "LIGHTING"
    PEAKCOL 16576
    BEAT -1
    AUTOMODE 0
    VOLPAN 1.00000000000000 0.00000000000000 -1.00000000000000 -1.00000000000000 1.00000000000000
    MUTESOLO 1 0 0
    IPHASE 0
    ISBUS 2 -1
    BUSCOMP 0 0
    SHOWINMIX 1 0.666700 0.500000 1 0.500000 -1 -1 -1
    FREEMODE 0
    SEL 0
    REC 0 0 0 0 0 0 0
    VU 2
    TRACKHEIGHT 0 0
    INQ 0 0 0 0.5000000000 100 0 0 100
    NCHAN 2
    FX 1
    TRACKID {F7325F79-19EC-43BD-B410-5BE4071F3CEF}
    PERF 0
    MIDIOUT -1
    <MIDINOTENAMES
      0 71 "Default"
      0 70 "Color_Muted"
      0 69 "Video_Grainy"
      0 68 "16mm Film"
      0 67 "Shitty_TV"
      0 66 "Bloom"
      0 65 "Sepia_Ink"
      0 64 "Silvertone"
      0 63 "Film_BW"
      0 62 "Video_BW"
      0 61 "Contrast BW"
      0 60 "Photocopy"
      0 59 "Blue_Filter"
      0 58 "Desat_Blue"
      0 57 "Video_Security"
      0 55 "Bright"
      0 54 "Posterize"
      0 53 "Clean_Trails"
      0 52 "Video_Trails"
      0 51 "Flicker_Trails"
      0 50 "Desat_Posterize"
      0 49 "Film_Contrast"
      0 48 "Film_Contrast_Blue"
      0 47 "Film_Contrast_Green"
      0 46 "Film_Contrast_Red"
      0 45 "Horror_Movie"
      0 44 "Photo_Negative"
      0 43 "Mirror"
      0 42 "Psych_Blue_Red"
      0 41 "Space_Woosh"
      0 39 "Verse"
      0 38 "Chorus"
      0 37 "Manual_Cool"
      0 36 "Manual_Warm"
      0 35 "Dischord"
      0 34 "Stomp"
      0 32 "first"
      0 31 "prev"
      0 30 "next"
      0 28 "Loop_Cool"
      0 27 "Loop_Warm"
      0 26 "Harmony"
      0 25 "Frenzy"
      0 24 "Silhouettes"
      0 23 "Silhouettes_Spot"
      0 22 "Searchlights"
      0 21 "Sweep"
      0 20 "Strobe_Slow"
      0 19 "Strobe_Fast"
      0 18 "Blackout_Slow"
      0 17 "Blackout_Fast"
      0 16 "Blackout_Spot"
      0 15 "Flare_Slow"
      0 14 "Flare_Fast"
      0 13 "BRE"
      0 11 "BONUSFX"
      0 10 "BONUSFX_Opt"
      0 8 "STROBE"
    >
    MAINSEND 1 0
    <FXCHAIN
      SHOW 0
      LASTSEL 0
      DOCKED 0
    >
    <ITEM
      POSITION 0.00000000000000
      SNAPOFFS 0.00000000000000
      LENGTH 119.20530000000001
      LOOP 0
      ALLTAKES 0
      SEL 0
      FADEIN 1 0.000000 0.000000 1 0
      FADEOUT 1 0.000000 0.000000 1 0
      MUTE 0
      IGUID {18AC0297-F71E-4DB5-8D5E-0B5DD38CBB11}
      IID 22
      NAME "LIGHTING"
      VOLPAN 1.000000 0.000000 1.000000 -1.000000
      SOFFS 0.00000000000000 0.00000000000000
      PLAYRATE 1.00000000000000 1 0.00000000000000 -1
      CHANMODE 0
      GUID {EFA31544-20C0-4154-9B46-CDFDF3BC19A5}
      <SOURCE MIDI
        HASDATA 1 480 QN
        POOLEDEVTS {74ECB824-71D4-44AD-B7BF-8273CDF46E7A}
        E 0 90 36 40
        E 240 90 11 40
        GUID {3E25E7A6-E52C-4AF6-9022-88BA37396CD3}
        IGNTEMPO 0 120.00000000 4 4
        SRCCOLOR 19
        VELLANE 132 128 60
        COLORMAP "C:\Program Files\REAPER (x64)\Data\color_maps\rockband_guitarbass.png"
        CFGEDITVIEW -9360.641140 9.420722 5 12 0 0 0
        CFGEDIT 1 1 0 1 1 0 1 1 1 1 1 0.25000000 -8 -8 1544 872 0 2 1 1 0.00000000 0 1 1 0 0.500000 0 0 1.000000 64
        KEYSNAP 0 6 "102030050700" 0 "Pentatonic"
        EVTFILTER 0 -1 -1 -1 -1 0 1 0 0 -1.00000000 -1.00000000
      >
    >
  >
  <TRACK '{34CA4789-B7C8-44C7-9C3A-067BC3B7CDC5}'
    NAME "EVENTS"
    PEAKCOL 16576
    BEAT -1
    AUTOMODE 0
    VOLPAN 1.00000000000000 0.00000000000000 -1.00000000000000 -1.00000000000000 1.00000000000000
    MUTESOLO 0 0 0
    IPHASE 0
    ISBUS 0 0
    BUSCOMP 0 0
    SHOWINMIX 1 0.666700 0.500000 1 0.500000 -1 -1 -1
    FREEMODE 0
    SEL 0
    REC 0 0 0 0 0 0 0
    VU 2
    TRACKHEIGHT 0 0
    INQ 0 0 0 0.5000000000 100 0 0 100
    NCHAN 2
    FX 1
    TRACKID {34CA4789-B7C8-44C7-9C3A-067BC3B7CDC5}
    PERF 0
    MIDIOUT -1
    <MIDINOTENAMES
      0 26 "Hi-Hat"
      0 25 "Snare"
      0 24 "Kick"
    >
    MAINSEND 1 0
    <FXCHAIN
      SHOW 0
      LASTSEL 0
      DOCKED 0
    >
    <ITEM
      POSITION 0.00000000000000
      SNAPOFFS 0.00000000000000
      LENGTH 119.20500000000000
      LOOP 0
      ALLTAKES 0
      SEL 0
      FADEIN 1 0.000000 0.000000 1 0
      FADEOUT 1 0.000000 0.000000 1 0
      MUTE 0
      IGUID {B8CDA815-D03E-4F43-AEF3-9F725A83B05C}
      IID 14
      NAME "EVENTS"
      VOLPAN 1.000000 0.000000 1.000000 -1.000000
      SOFFS 0.00000000000000 0.00000000000000
      PLAYRATE 1.00000000000000 1 0.00000000000000 -1
      CHANMODE 0
      GUID {6CCD266A-143B-4D68-A856-67FE1C4E1D82}
      <SOURCE MIDI
        HASDATA 1 480 QN
        POOLEDEVTS {32ED0653-F149-4114-B6EA-5EE28C507AFA}
        <X 0 0
          /wNFVkVOVFM=
        >
        <X 0 0
          /wFbY3Jvd2Rfbm9ybWFsXQ==
        >
        E 1920 90 1a 60
        E 120 80 1a 00
        E 840 90 1a 60
        E 120 80 1a 00
        E 840 90 1a 60
        E 120 80 1a 00
        E 360 90 1a 60
        E 120 80 1a 00
        E 360 90 1a 60
        E 120 80 1a 00
        E 360 90 1a 60
        E 120 80 1a 00
        <X 360 0
          /wFbbXVzaWNfc3RhcnRd
        >
        <X 0 0
          /wFbcHJjX2ludHJvXQ==
        >
        E 0 90 1a 60
        E 120 80 1a 00
        E 360 90 1a 60
        E 120 80 1a 00
        E 360 90 1a 60
        E 120 80 1a 00
        E 360 90 1a 60
        E 120 80 1a 00
        E 360 90 1a 60
        E 120 80 1a 00
        E 360 90 1a 60
        E 120 80 1a 00
        E 360 90 1a 60
        E 120 80 1a 00
        E 360 90 1a 60
        E 120 80 1a 00
        E 360 90 1a 60
        E 120 80 1a 00
        E 360 90 1a 60
        E 120 80 1a 00
        E 360 90 1a 60
        E 120 80 1a 00
        E 360 90 1a 60
        E 120 80 1a 00
        E 360 90 1a 60
        E 120 80 1a 00
        E 360 90 1a 60
        E 120 80 1a 00
        E 360 90 1a 60
        E 120 80 1a 00
        E 360 90 1a 60
        E 120 80 1a 00
        E 360 90 1a 60
        E 120 80 1a 00
        E 360 90 1a 60
        E 120 80 1a 00
        E 360 90 1a 60
        E 120 80 1a 00
        E 360 90 1a 60
        E 120 80 1a 00
        E 360 90 1a 60
        E 120 80 1a 00
        E 360 90 1a 60
        E 120 80 1a 00
        E 360 90 1a 60
        E 120 80 1a 00
        E 360 90 1a 60
        E 120 80 1a 00
        E 360 90 1a 60
        E 120 80 1a 00
        E 360 90 1a 60
        E 120 80 1a 00
        E 360 90 1a 60
        E 120 80 1a 00
        E 360 90 1a 60
        E 120 80 1a 00
        E 360 90 1a 60
        E 120 80 1a 00
        E 360 90 1a 60
        E 120 80 1a 00
        E 360 90 1a 60
        E 120 80 1a 00
        E 360 90 1a 60
        E 120 80 1a 00
        E 360 90 1a 60
        E 120 80 1a 00
        E 360 90 1a 60
        E 120 80 1a 00
        E 360 90 1a 60
        E 120 80 1a 00
        E 360 90 1a 60
        E 120 80 1a 00
        E 360 90 1a 60
        E 120 80 1a 00
        E 360 90 1a 60
        E 120 80 1a 00
        E 360 90 1a 60
        E 120 80 1a 00
        E 360 90 1a 60
        E 120 80 1a 00
        E 360 90 1a 60
        E 120 80 1a 00
        E 360 90 1a 60
        E 120 80 1a 00
        E 360 90 1a 60
        E 120 80 1a 00
        E 360 90 1a 60
        E 120 80 1a 00
        E 360 90 1a 60
        E 120 80 1a 00
        E 360 90 1a 60
        E 120 80 1a 00
        E 360 90 1a 60
        E 120 80 1a 00
        E 360 90 1a 60
        E 120 80 1a 00
        E 360 90 1a 60
        E 120 80 1a 00
        E 360 90 1a 60
        E 120 80 1a 00
        E 360 90 1a 60
        E 120 80 1a 00
        E 360 90 1a 60
        E 120 80 1a 00
        E 360 90 1a 60
        E 120 80 1a 00
        E 360 90 1a 60
        E 120 80 1a 00
        E 360 90 1a 60
        E 120 80 1a 00
        E 360 90 1a 60
        E 120 80 1a 00
        E 360 90 1a 60
        E 120 80 1a 00
        E 360 90 1a 60
        E 120 80 1a 00
        E 360 90 1a 60
        E 120 80 1a 00
        E 360 90 1a 60
        E 120 80 1a 00
        E 360 90 1a 60
        E 120 80 1a 00
        E 360 90 1a 60
        E 120 80 1a 00
        E 360 90 1a 60
        E 120 80 1a 00
        E 360 90 1a 60
        E 120 80 1a 00
        <X 360 0
          /wFbcHJjX2JhbmRfZW50ZXJzXQ==
        >
        E 0 90 18 60
        E 0 90 1a 60
        E 120 80 18 00
        E 0 80 1a 00
        E 360 90 18 60
        E 0 90 19 60
        E 0 90 1a 60
        E 120 80 18 00
        E 0 80 19 00
        E 0 80 1a 00
        E 360 90 18 60
        E 0 90 1a 60
        E 120 80 18 00
        E 0 80 1a 00
        E 360 90 18 60
        E 0 90 19 60
        E 0 90 1a 60
        E 120 80 18 00
        E 0 80 19 00
        E 0 80 1a 00
        E 360 90 18 60
        E 0 90 1a 60
        E 120 80 18 00
        E 0 80 1a 00
        E 360 90 18 60
        E 0 90 19 60
        E 0 90 1a 60
        E 120 80 18 00
        E 0 80 19 00
        E 0 80 1a 00
        E 360 90 18 60
        E 0 90 1a 60
        E 120 80 18 00
        E 0 80 1a 00
        E 120 90 18 60
        E 120 80 18 00
        E 120 90 18 60
        E 0 90 19 60
        E 0 90 1a 60
        E 120 80 18 00
        E 0 80 19 00
        E 0 80 1a 00
        E 120 90 18 60
        E 120 80 18 00
        E 120 90 18 60
        E 0 90 1a 60
        E 120 80 18 00
        E 0 80 1a 00
        E 360 90 18 60
        E 0 90 19 60
        E 0 90 1a 60
        E 120 80 18 00
        E 0 80 19 00
        E 0 80 1a 00
        E 360 90 18 60
        E 0 90 1a 60
        E 120 80 18 00
        E 0 80 1a 00
        E 360 90 18 60
        E 0 90 19 60
        E 0 90 1a 60
        E 120 80 18 00
        E 0 80 19 00
        E 0 80 1a 00
        E 360 90 18 60
        E 0 90 1a 60
        E 120 80 18 00
        E 0 80 1a 00
        E 360 90 18 60
        E 0 90 19 60
        E 0 90 1a 60
        E 120 80 18 00
        E 0 80 19 00
        E 0 80 1a 00
        E 360 90 18 60
        E 0 90 1a 60
        E 120 80 18 00
        E 0 80 1a 00
        E 120 90 18 60
        E 120 80 18 00
        E 120 90 18 60
        E 0 90 19 60
        E 0 90 1a 60
        E 120 80 18 00
        E 0 80 19 00
        E 0 80 1a 00
        E 120 90 18 60
        E 120 80 18 00
        E 120 90 18 60
        E 0 90 1a 60
        E 120 80 18 00
        E 0 80 1a 00
        E 360 90 18 60
        E 0 90 19 60
        E 0 90 1a 60
        E 120 80 18 00
        E 0 80 19 00
        E 0 80 1a 00
        E 360 90 18 60
        E 0 90 1a 60
        E 120 80 18 00
        E 0 80 1a 00
        E 360 90 18 60
        E 0 90 19 60
        E 0 90 1a 60
        E 120 80 18 00
        E 0 80 19 00
        E 0 80 1a 00
        E 360 90 18 60
        E 0 90 1a 60
        E 120 80 18 00
        E 0 80 1a 00
        E 360 90 18 60
        E 0 90 19 60
        E 0 90 1a 60
        E 120 80 18 00
        E 0 80 19 00
        E 0 80 1a 00
        E 360 90 18 60
        E 0 90 1a 60
        E 120 80 18 00
        E 0 80 1a 00
        E 120 90 18 60
        E 120 80 18 00
        E 120 90 18 60
        E 0 90 19 60
        E 0 90 1a 60
        E 120 80 18 00
        E 0 80 19 00
        E 0 80 1a 00
        E 120 90 18 60
        E 120 80 18 00
        E 120 90 18 60
        E 0 90 1a 60
        E 120 80 18 00
        E 0 80 1a 00
        E 360 90 18 60
        E 0 90 19 60
        E 0 90 1a 60
        E 120 80 18 00
        E 0 80 19 00
        E 0 80 1a 00
        E 360 90 18 60
        E 0 90 1a 60
        E 120 80 18 00
        E 0 80 1a 00
        E 360 90 18 60
        E 0 90 19 60
        E 0 90 1a 60
        E 120 80 18 00
        E 0 80 19 00
        E 0 80 1a 00
        E 360 90 18 60
        E 0 90 1a 60
        E 120 80 18 00
        E 0 80 1a 00
        E 360 90 18 60
        E 0 90 19 60
        E 0 90 1a 60
        E 120 80 18 00
        E 0 80 19 00
        E 0 80 1a 00
        E 360 90 18 60
        E 0 90 1a 60
        E 120 80 18 00
        E 0 80 1a 00
        E 120 90 18 60
        E 120 80 18 00
        E 120 90 18 60
        E 0 90 19 60
        E 0 90 1a 60
        E 120 80 18 00
        E 0 80 19 00
        E 0 80 1a 00
        E 120 90 18 60
        E 120 80 18 00
        E 120 90 18 60
        E 0 90 1a 60
        E 120 80 18 00
        E 0 80 1a 00
        E 360 90 18 60
        E 0 90 19 60
        E 0 90 1a 60
        E 120 80 18 00
        E 0 80 19 00
        E 0 80 1a 00
        E 360 90 18 60
        E 0 90 1a 60
        E 120 80 18 00
        E 0 80 1a 00
        E 360 90 18 60
        E 0 90 19 60
        E 0 90 1a 60
        E 120 80 18 00
        E 0 80 19 00
        E 0 80 1a 00
        E 360 90 18 60
        E 0 90 1a 60
        E 120 80 18 00
        E 0 80 1a 00
        E 360 90 18 60
        E 0 90 19 60
        E 0 90 1a 60
        E 120 80 18 00
        E 0 80 19 00
        E 0 80 1a 00
        E 360 90 18 60
        E 0 90 1a 60
        E 120 80 18 00
        E 0 80 1a 00
        E 120 90 18 60
        E 120 80 18 00
        E 120 90 18 60
        E 0 90 19 60
        E 0 90 1a 60
        E 120 80 18 00
        E 0 80 19 00
        E 0 80 1a 00
        E 120 90 18 60
        E 120 80 18 00
        E 120 90 18 60
        E 0 90 1a 60
        E 120 80 18 00
        E 0 80 1a 00
        E 360 90 18 60
        E 0 90 19 60
        E 0 90 1a 60
        E 120 80 18 00
        E 0 80 19 00
        E 0 80 1a 00
        E 360 90 18 60
        E 0 90 1a 60
        E 120 80 18 00
        E 0 80 1a 00
        E 360 90 18 60
        E 0 90 19 60
        E 0 90 1a 60
        E 120 80 18 00
        E 0 80 19 00
        E 0 80 1a 00
        E 360 90 18 60
        E 0 90 1a 60
        E 120 80 18 00
        E 0 80 1a 00
        E 360 90 18 60
        E 0 90 19 60
        E 0 90 1a 60
        E 120 80 18 00
        E 0 80 19 00
        E 0 80 1a 00
        E 360 90 18 60
        E 0 90 1a 60
        E 120 80 18 00
        E 0 80 1a 00
        E 120 90 18 60
        E 120 80 18 00
        E 120 90 18 60
        E 0 90 19 60
        E 0 90 1a 60
        E 120 80 18 00
        E 0 80 19 00
        E 0 80 1a 00
        E 120 90 18 60
        E 120 80 18 00
        E 120 90 18 60
        E 0 90 1a 60
        E 120 80 18 00
        E 0 80 1a 00
        E 360 90 18 60
        E 0 90 19 60
        E 0 90 1a 60
        E 120 80 18 00
        E 0 80 19 00
        E 0 80 1a 00
        E 360 90 18 60
        E 0 90 1a 60
        E 120 80 18 00
        E 0 80 1a 00
        E 360 90 18 60
        E 0 90 19 60
        E 0 90 1a 60
        E 120 80 18 00
        E 0 80 19 00
        E 0 80 1a 00
        E 360 90 18 60
        E 0 90 1a 60
        E 120 80 18 00
        E 0 80 1a 00
        E 360 90 18 60
        E 0 90 19 60
        E 0 90 1a 60
        E 120 80 18 00
        E 0 80 19 00
        E 0 80 1a 00
        E 360 90 18 60
        E 0 90 1a 60
        E 120 80 18 00
        E 0 80 1a 00
        E 120 90 18 60
        E 120 80 18 00
        E 120 90 18 60
        E 0 90 19 60
        E 0 90 1a 60
        E 120 80 18 00
        E 0 80 19 00
        E 0 80 1a 00
        E 120 90 18 60
        E 120 80 18 00
        E 120 90 18 60
        E 0 90 1a 60
        E 120 80 18 00
        E 0 80 1a 00
        E 360 90 18 60
        E 0 90 19 60
        E 0 90 1a 60
        E 120 80 18 00
        E 0 80 19 00
        E 0 80 1a 00
        E 360 90 18 60
        E 0 90 1a 60
        E 120 80 18 00
        E 0 80 1a 00
        E 360 90 18 60
        E 0 90 19 60
        E 0 90 1a 60
        E 120 80 18 00
        E 0 80 19 00
        E 0 80 1a 00
        E 360 90 18 60
        E 0 90 1a 60
        E 120 80 18 00
        E 0 80 1a 00
        E 360 90 18 60
        E 0 90 19 60
        E 0 90 1a 60
        E 120 80 18 00
        E 0 80 19 00
        E 0 80 1a 00
        E 360 90 18 60
        E 0 90 1a 60
        E 120 80 18 00
        E 0 80 1a 00
        E 120 90 18 60
        E 120 80 18 00
        E 120 90 18 60
        E 0 90 19 60
        E 0 90 1a 60
        E 120 80 18 00
        E 0 80 19 00
        E 0 80 1a 00
        E 120 90 18 60
        E 120 80 18 00
        <X 120 0
          /wFbcHJjX2hlYXZ5X3BhcnRd
        >
        E 0 90 18 60
        E 0 90 1a 60
        E 120 80 18 00
        E 0 80 1a 00
        E 360 90 18 60
        E 0 90 19 60
        E 0 90 1a 60
        E 120 80 18 00
        E 0 80 19 00
        E 0 80 1a 00
        E 360 90 18 60
        E 0 90 1a 60
        E 120 80 18 00
        E 0 80 1a 00
        E 360 90 18 60
        E 0 90 19 60
        E 0 90 1a 60
        E 120 80 18 00
        E 0 80 19 00
        E 0 80 1a 00
        E 360 90 18 60
        E 0 90 1a 60
        E 120 80 18 00
        E 0 80 1a 00
        E 360 90 18 60
        E 0 90 19 60
        E 0 90 1a 60
        E 120 80 18 00
        E 0 80 19 00
        E 0 80 1a 00
        E 360 90 18 60
        E 0 90 1a 60
        E 120 80 18 00
        E 0 80 1a 00
        E 120 90 18 60
        E 120 80 18 00
        E 120 90 18 60
        E 0 90 19 60
        E 0 90 1a 60
        E 120 80 18 00
        E 0 80 19 00
        E 0 80 1a 00
        E 120 90 18 60
        E 120 80 18 00
        E 120 90 18 60
        E 0 90 1a 60
        E 120 80 18 00
        E 0 80 1a 00
        E 360 90 18 60
        E 0 90 19 60
        E 0 90 1a 60
        E 120 80 18 00
        E 0 80 19 00
        E 0 80 1a 00
        E 360 90 18 60
        E 0 90 1a 60
        E 120 80 18 00
        E 0 80 1a 00
        E 360 90 18 60
        E 0 90 19 60
        E 0 90 1a 60
        E 120 80 18 00
        E 0 80 19 00
        E 0 80 1a 00
        E 360 90 18 60
        E 0 90 1a 60
        E 120 80 18 00
        E 0 80 1a 00
        E 360 90 18 60
        E 0 90 19 60
        E 0 90 1a 60
        E 120 80 18 00
        E 0 80 19 00
        E 0 80 1a 00
        E 360 90 18 60
        E 0 90 1a 60
        E 120 80 18 00
        E 0 80 1a 00
        E 120 90 18 60
        E 120 80 18 00
        E 120 90 18 60
        E 0 90 19 60
        E 0 90 1a 60
        E 120 80 18 00
        E 0 80 19 00
        E 0 80 1a 00
        E 120 90 18 60
        E 120 80 18 00
        E 120 90 18 60
        E 0 90 1a 60
        E 120 80 18 00
        E 0 80 1a 00
        E 360 90 18 60
        E 0 90 19 60
        E 0 90 1a 60
        E 120 80 18 00
        E 0 80 19 00
        E 0 80 1a 00
        E 360 90 18 60
        E 0 90 1a 60
        E 120 80 18 00
        E 0 80 1a 00
        E 360 90 18 60
        E 0 90 19 60
        E 0 90 1a 60
        E 120 80 18 00
        E 0 80 19 00
        E 0 80 1a 00
        E 360 90 18 60
        E 0 90 1a 60
        E 120 80 18 00
        E 0 80 1a 00
        E 360 90 18 60
        E 0 90 19 60
        E 0 90 1a 60
        E 120 80 18 00
        E 0 80 19 00
        E 0 80 1a 00
        E 360 90 18 60
        E 0 90 1a 60
        E 120 80 18 00
        E 0 80 1a 00
        E 120 90 18 60
        E 120 80 18 00
        E 120 90 18 60
        E 0 90 19 60
        E 0 90 1a 60
        E 120 80 18 00
        E 0 80 19 00
        E 0 80 1a 00
        E 120 90 18 60
        E 120 80 18 00
        E 120 90 18 60
        E 0 90 1a 60
        E 120 80 18 00
        E 0 80 1a 00
        E 360 90 18 60
        E 0 90 19 60
        E 0 90 1a 60
        E 120 80 18 00
        E 0 80 19 00
        E 0 80 1a 00
        E 360 90 18 60
        E 0 90 1a 60
        E 120 80 18 00
        E 0 80 1a 00
        E 360 90 18 60
        E 0 90 19 60
        E 0 90 1a 60
        E 120 80 18 00
        E 0 80 19 00
        E 0 80 1a 00
        E 360 90 18 60
        E 0 90 1a 60
        E 120 80 18 00
        E 0 80 1a 00
        E 360 90 18 60
        E 0 90 19 60
        E 0 90 1a 60
        E 120 80 18 00
        E 0 80 19 00
        E 0 80 1a 00
        E 360 90 18 60
        E 0 90 1a 60
        E 120 80 18 00
        E 0 80 1a 00
        E 120 90 18 60
        E 120 80 18 00
        E 120 90 18 60
        E 0 90 19 60
        E 0 90 1a 60
        E 120 80 18 00
        E 0 80 19 00
        E 0 80 1a 00
        E 120 90 18 60
        E 120 80 18 00
        E 120 90 18 60
        E 0 90 1a 60
        E 120 80 18 00
        E 0 80 1a 00
        E 360 90 18 60
        E 0 90 19 60
        E 0 90 1a 60
        E 120 80 18 00
        E 0 80 19 00
        E 0 80 1a 00
        E 360 90 18 60
        E 0 90 1a 60
        E 120 80 18 00
        E 0 80 1a 00
        E 360 90 18 60
        E 0 90 19 60
        E 0 90 1a 60
        E 120 80 18 00
        E 0 80 19 00
        E 0 80 1a 00
        E 360 90 18 60
        E 0 90 1a 60
        E 120 80 18 00
        E 0 80 1a 00
        E 360 90 18 60
        E 0 90 19 60
        E 0 90 1a 60
        E 120 80 18 00
        E 0 80 19 00
        E 0 80 1a 00
        E 360 90 18 60
        E 0 90 1a 60
        E 120 80 18 00
        E 0 80 1a 00
        E 120 90 18 60
        E 120 80 18 00
        E 120 90 18 60
        E 0 90 19 60
        E 0 90 1a 60
        E 120 80 18 00
        E 0 80 19 00
        E 0 80 1a 00
        E 120 90 18 60
        E 120 80 18 00
        E 120 90 18 60
        E 0 90 1a 60
        E 120 80 18 00
        E 0 80 1a 00
        E 360 90 18 60
        E 0 90 19 60
        E 0 90 1a 60
        E 120 80 18 00
        E 0 80 19 00
        E 0 80 1a 00
        E 360 90 18 60
        E 0 90 1a 60
        E 120 80 18 00
        E 0 80 1a 00
        E 360 90 18 60
        E 0 90 19 60
        E 0 90 1a 60
        E 120 80 18 00
        E 0 80 19 00
        E 0 80 1a 00
        E 360 90 18 60
        E 0 90 1a 60
        E 120 80 18 00
        E 0 80 1a 00
        E 360 90 18 60
        E 0 90 19 60
        E 0 90 1a 60
        E 120 80 18 00
        E 0 80 19 00
        E 0 80 1a 00
        E 360 90 18 60
        E 0 90 1a 60
        E 120 80 18 00
        E 0 80 1a 00
        E 120 90 18 60
        E 120 80 18 00
        E 120 90 18 60
        E 0 90 19 60
        E 0 90 1a 60
        E 120 80 18 00
        E 0 80 19 00
        E 0 80 1a 00
        E 120 90 18 60
        E 120 80 18 00
        E 120 90 18 60
        E 0 90 1a 60
        E 120 80 18 00
        E 0 80 1a 00
        E 360 90 18 60
        E 0 90 19 60
        E 0 90 1a 60
        E 120 80 18 00
        E 0 80 19 00
        E 0 80 1a 00
        E 360 90 18 60
        E 0 90 1a 60
        E 120 80 18 00
        E 0 80 1a 00
        E 360 90 18 60
        E 0 90 19 60
        E 0 90 1a 60
        E 120 80 18 00
        E 0 80 19 00
        E 0 80 1a 00
        E 360 90 18 60
        E 0 90 1a 60
        E 120 80 18 00
        E 0 80 1a 00
        E 360 90 18 60
        E 0 90 19 60
        E 0 90 1a 60
        E 120 80 18 00
        E 0 80 19 00
        E 0 80 1a 00
        E 360 90 18 60
        E 0 90 1a 60
        E 120 80 18 00
        E 0 80 1a 00
        E 120 90 18 60
        E 120 80 18 00
        E 120 90 18 60
        E 0 90 19 60
        E 0 90 1a 60
        E 120 80 18 00
        E 0 80 19 00
        E 0 80 1a 00
        E 120 90 18 60
        E 120 80 18 00
        E 120 90 18 60
        E 0 90 1a 60
        E 120 80 18 00
        E 0 80 1a 00
        E 360 90 18 60
        E 0 90 19 60
        E 0 90 1a 60
        E 120 80 18 00
        E 0 80 19 00
        E 0 80 1a 00
        E 360 90 18 60
        E 0 90 1a 60
        E 120 80 18 00
        E 0 80 1a 00
        E 360 90 18 60
        E 0 90 19 60
        E 0 90 1a 60
        E 120 80 18 00
        E 0 80 19 00
        E 0 80 1a 00
        E 360 90 18 60
        E 0 90 1a 60
        E 120 80 18 00
        E 0 80 1a 00
        E 360 90 18 60
        E 0 90 19 60
        E 0 90 1a 60
        E 120 80 18 00
        E 0 80 19 00
        E 0 80 1a 00
        E 360 90 18 60
        E 0 90 1a 60
        E 120 80 18 00
        E 0 80 1a 00
        E 120 90 18 60
        E 120 80 18 00
        E 120 90 18 60
        E 0 90 19 60
        E 0 90 1a 60
        E 120 80 18 00
        E 0 80 19 00
        E 0 80 1a 00
        E 120 90 18 60
        E 120 80 18 00
        E 120 90 18 60
        E 0 90 1a 60
        E 120 80 18 00
        E 0 80 1a 00
        E 360 90 18 60
        E 0 90 19 60
        E 0 90 1a 60
        E 120 80 18 00
        E 0 80 19 00
        E 0 80 1a 00
        E 360 90 18 60
        E 0 90 1a 60
        E 120 80 18 00
        E 0 80 1a 00
        E 360 90 18 60
        E 0 90 19 60
        E 0 90 1a 60
        E 120 80 18 00
        E 0 80 19 00
        E 0 80 1a 00
        E 360 90 18 60
        E 0 90 1a 60
        E 120 80 18 00
        E 0 80 1a 00
        E 360 90 18 60
        E 0 90 19 60
        E 0 90 1a 60
        E 120 80 18 00
        E 0 80 19 00
        E 0 80 1a 00
        E 360 90 18 60
        E 0 90 1a 60
        E 120 80 18 00
        E 0 80 1a 00
        E 120 90 18 60
        E 120 80 18 00
        E 120 90 18 60
        E 0 90 19 60
        E 0 90 1a 60
        E 120 80 18 00
        E 0 80 19 00
        E 0 80 1a 00
        E 120 90 18 60
        E 120 80 18 00
        E 120 90 18 60
        E 0 90 1a 60
        E 120 80 18 00
        E 0 80 1a 00
        E 360 90 18 60
        E 0 90 19 60
        E 0 90 1a 60
        E 120 80 18 00
        E 0 80 19 00
        E 0 80 1a 00
        E 360 90 18 60
        E 0 90 1a 60
        E 120 80 18 00
        E 0 80 1a 00
        E 360 90 18 60
        E 0 90 19 60
        E 0 90 1a 60
        E 120 80 18 00
        E 0 80 19 00
        E 0 80 1a 00
        E 360 90 18 60
        E 0 90 1a 60
        E 120 80 18 00
        E 0 80 1a 00
        E 360 90 18 60
        E 0 90 19 60
        E 0 90 1a 60
        E 120 80 18 00
        E 0 80 19 00
        E 0 80 1a 00
        E 360 90 18 60
        E 0 90 1a 60
        E 120 80 18 00
        E 0 80 1a 00
        E 120 90 18 60
        E 120 80 18 00
        E 120 90 18 60
        E 0 90 19 60
        E 0 90 1a 60
        E 120 80 18 00
        E 0 80 19 00
        E 0 80 1a 00
        E 120 90 18 60
        E 120 80 18 00
        E 120 90 18 60
        E 0 90 1a 60
        E 120 80 18 00
        E 0 80 1a 00
        E 360 90 18 60
        E 0 90 19 60
        E 0 90 1a 60
        E 120 80 18 00
        E 0 80 19 00
        E 0 80 1a 00
        E 360 90 18 60
        E 0 90 1a 60
        E 120 80 18 00
        E 0 80 1a 00
        E 360 90 18 60
        E 0 90 19 60
        E 0 90 1a 60
        E 120 80 18 00
        E 0 80 19 00
        E 0 80 1a 00
        E 360 90 18 60
        E 0 90 1a 60
        E 120 80 18 00
        E 0 80 1a 00
        E 360 90 18 60
        E 0 90 19 60
        E 0 90 1a 60
        E 120 80 18 00
        E 0 80 19 00
        E 0 80 1a 00
        E 360 90 18 60
        E 0 90 1a 60
        E 120 80 18 00
        E 0 80 1a 00
        E 120 90 18 60
        E 120 80 18 00
        E 120 90 18 60
        E 0 90 19 60
        E 0 90 1a 60
        E 120 80 18 00
        E 0 80 19 00
        E 0 80 1a 00
        E 120 90 18 60
        E 120 80 18 00
        E 120 90 18 60
        E 0 90 1a 60
        E 120 80 18 00
        E 0 80 1a 00
        E 360 90 18 60
        E 0 90 19 60
        E 0 90 1a 60
        E 120 80 18 00
        E 0 80 19 00
        E 0 80 1a 00
        E 360 90 18 60
        E 0 90 1a 60
        E 120 80 18 00
        E 0 80 1a 00
        E 360 90 18 60
        E 0 90 19 60
        E 0 90 1a 60
        E 120 80 18 00
        E 0 80 19 00
        E 0 80 1a 00
        E 360 90 18 60
        E 0 90 19 60
        E 120 80 18 00
        E 0 80 19 00
        E 0 90 19 60
        E 120 90 19 00
        E 0 90 19 60
        E 120 80 19 00
        E 0 90 19 60
        E 120 90 19 00
        E 0 90 18 60
        E 0 90 19 60
        E 120 80 18 00
        E 0 80 19 00
        E 0 90 19 60
        E 120 90 19 00
        E 0 90 19 60
        E 120 80 19 00
        E 0 90 19 60
        E 120 90 19 00
        E 0 90 18 60
        E 0 90 19 60
        E 120 80 18 00
        E 0 80 19 00
        E 0 90 19 60
        E 120 90 19 00
        E 0 90 18 60
        E 0 90 19 60
        E 120 80 18 00
        E 0 80 19 00
        E 0 90 19 60
        E 120 90 19 00
        E 0 90 18 60
        E 0 90 19 60
        E 120 80 18 00
        E 0 80 19 00
        E 0 90 19 60
        E 120 90 19 00
        E 0 90 18 60
        E 0 90 19 60
        E 120 80 18 00
        E 0 80 19 00
        E 0 90 19 60
        <X 120 0
          /wFbcHJjX291dHJvXQ==
        >
        E 0 80 19 00
        E 0 90 1a 60
        E 120 80 1a 00
        E 360 90 1a 60
        E 120 80 1a 00
        E 360 90 1a 60
        E 120 80 1a 00
        E 360 90 1a 60
        E 120 80 1a 00
        E 360 90 1a 60
        E 120 80 1a 00
        E 360 90 1a 60
        E 120 80 1a 00
        E 360 90 1a 60
        E 120 80 1a 00
        E 360 90 1a 60
        E 120 80 1a 00
        E 360 90 1a 60
        E 120 80 1a 00
        E 360 90 1a 60
        E 120 80 1a 00
        E 360 90 1a 60
        E 120 80 1a 00
        E 360 90 1a 60
        E 120 80 1a 00
        E 360 90 1a 60
        E 120 80 1a 00
        E 360 90 1a 60
        E 120 80 1a 00
        E 360 90 1a 60
        E 120 80 1a 00
        E 360 90 1a 60
        E 120 80 1a 00
        E 360 90 1a 60
        E 120 80 1a 00
        E 360 90 1a 60
        E 120 80 1a 00
        E 360 90 1a 60
        E 120 80 1a 00
        E 360 90 1a 60
        E 120 80 1a 00
        E 360 90 1a 60
        E 120 80 1a 00
        E 360 90 1a 60
        E 120 80 1a 00
        E 360 90 1a 60
        E 120 80 1a 00
        E 360 90 1a 60
        E 120 80 1a 00
        E 360 90 1a 60
        E 120 80 1a 00
        E 360 90 1a 60
        E 120 80 1a 00
        E 360 90 1a 60
        E 120 80 1a 00
        E 360 90 1a 60
        E 120 80 1a 00
        E 360 90 1a 60
        E 120 80 1a 00
        E 360 90 1a 60
        E 120 80 1a 00
        E 360 90 1a 60
        E 120 80 1a 00
        E 360 90 1a 60
        E 120 80 1a 00
        E 360 90 1a 60
        E 120 80 1a 00
        <X 360 0
          /wFbbXVzaWNfZW5kXQ==
        >
        E 0 90 1a 60
        E 120 80 1a 00
        E 360 90 1a 60
        E 120 80 1a 00
        E 360 90 1a 60
        E 120 80 1a 00
        E 360 90 1a 60
        E 120 80 1a 00
        E 360 90 1a 60
        E 120 80 1a 00
        E 360 90 1a 60
        E 120 80 1a 00
        E 360 90 1a 60
        E 120 80 1a 00
        E 360 90 1a 60
        E 120 80 1a 00
        E 360 90 1a 60
        E 120 80 1a 00
        E 360 90 1a 60
        E 120 80 1a 00
        E 360 90 1a 60
        E 120 80 1a 00
        E 360 90 1a 60
        E 120 80 1a 00
        E 360 90 1a 60
        E 120 80 1a 00
        E 360 90 1a 60
        E 120 80 1a 00
        E 360 90 1a 60
        E 120 80 1a 00
        E 360 90 1a 60
        E 120 80 1a 00
        E 360 90 1a 60
        E 120 80 1a 00
        E 360 90 1a 60
        E 120 80 1a 00
        E 360 90 1a 60
        E 120 80 1a 00
        E 360 90 1a 60
        E 120 80 1a 00
        E 360 90 1a 60
        E 120 80 1a 00
        E 360 90 1a 60
        E 120 80 1a 00
        E 360 90 1a 60
        E 120 80 1a 00
        E 360 90 1a 60
        E 120 80 1a 00
        E 360 90 1a 60
        E 120 80 1a 00
        E 360 90 1a 60
        E 120 80 1a 00
        E 360 90 1a 60
        E 120 80 1a 00
        E 360 90 1a 60
        E 120 80 1a 00
        E 360 90 1a 60
        E 120 80 1a 00
        E 360 90 1a 60
        E 120 80 1a 00
        E 360 90 1a 60
        E 120 80 1a 00
        <X 355 0
          /wFbZW5kXQ==
        >
        E 5 b0 7b 00
        GUID {F2830541-5347-49A7-83E7-41A624CEED78}
        IGNTEMPO 0 120.00000000 4 4
        SRCCOLOR 16
        VELLANE 132 128 60
        COLORMAP "C:\Program Files\REAPER (x64)\Data\color_maps\rockband_guitarbass.png"
        CFGEDITVIEW -1262.504100 69.848485 0 48 0 0 0
        CFGEDIT 1 1 0 1 1 0 1 1 1 1 1 0.25000000 -8 -8 1544 872 0 2 1 1 0.00000000 0 1 1 0 0.500000 0 0 1.000000 64
        KEYSNAP 0 6 "102030050700" 0 "Pentatonic"
        EVTFILTER 0 -1 -1 -1 -1 0 1 0 0 -1.00000000 -1.00000000
      >
    >
  >
  <TRACK '{163ACDFE-8519-47E8-9A9D-184F7D5571D6}'
    NAME "BEAT"
    PEAKCOL 16576
    BEAT -1
    AUTOMODE 0
    VOLPAN 1.00000000000000 0.00000000000000 -1.00000000000000 -1.00000000000000 1.00000000000000
    MUTESOLO 0 0 0
    IPHASE 0
    ISBUS 0 0
    BUSCOMP 0 0
    SHOWINMIX 1 0.666700 0.500000 1 0.500000 -1 -1 -1
    FREEMODE 0
    SEL 0
    REC 0 0 0 0 0 0 0
    VU 2
    TRACKHEIGHT 0 0
    INQ 0 0 0 0.5000000000 100 0 0 100
    NCHAN 2
    FX 1
    TRACKID {163ACDFE-8519-47E8-9A9D-184F7D5571D6}
    PERF 0
    MIDIOUT -1
    <MIDINOTENAMES
      0 13 "Up Beats"
      0 12 "Downbeat"
    >
    MAINSEND 1 0
    <FXCHAIN
      SHOW 0
      LASTSEL 0
      DOCKED 0
    >
    <ITEM
      POSITION 0.00000000000000
      SNAPOFFS 0.00000000000000
      LENGTH 119.20500000000000
      LOOP 0
      ALLTAKES 0
      SEL 0
      FADEIN 1 0.000000 0.000000 1 0
      FADEOUT 1 0.000000 0.000000 1 0
      MUTE 0
      IGUID {2D28380E-560E-475F-89FF-76795AD12BA9}
      IID 15
      NAME "BEAT"
      VOLPAN 1.000000 0.000000 1.000000 -1.000000
      SOFFS 0.00000000000000 0.00000000000000
      PLAYRATE 1.00000000000000 1 0.00000000000000 -1
      CHANMODE 0
      GUID {641E1DD7-56E8-42B6-A548-6D48DD169ACE}
      <SOURCE MIDI
        HASDATA 1 480 QN
        POOLEDEVTS {AA335846-9D7A-422C-AD04-6C5F021B3256}
        <X 0 0
          /wNCRUFU
        >
        E 0 96 0c 64
        E 120 86 0c 40
        E 360 96 0d 64
        E 120 86 0d 40
        E 360 96 0d 64
        E 120 86 0d 40
        E 360 96 0d 64
        E 120 86 0d 40
        E 360 96 0c 64
        E 120 86 0c 40
        E 360 96 0d 64
        E 120 86 0d 40
        E 360 96 0d 64
        E 120 86 0d 40
        E 360 96 0d 64
        E 120 86 0d 40
        E 360 96 0c 64
        E 120 86 0c 40
        E 360 96 0d 64
        E 120 86 0d 40
        E 360 96 0d 64
        E 120 86 0d 40
        E 360 96 0d 64
        E 120 86 0d 40
        E 360 96 0c 64
        E 120 86 0c 40
        E 360 96 0d 64
        E 120 86 0d 40
        E 360 96 0d 64
        E 120 86 0d 40
        E 360 96 0d 64
        E 120 86 0d 40
        E 360 96 0c 64
        E 120 86 0c 40
        E 360 96 0d 64
        E 120 86 0d 40
        E 360 96 0d 64
        E 120 86 0d 40
        E 360 96 0d 64
        E 120 86 0d 40
        E 360 96 0c 64
        E 120 86 0c 40
        E 360 96 0d 64
        E 120 86 0d 40
        E 360 96 0d 64
        E 120 86 0d 40
        E 360 96 0d 64
        E 120 86 0d 40
        E 360 96 0c 64
        E 120 86 0c 40
        E 360 96 0d 64
        E 120 86 0d 40
        E 360 96 0d 64
        E 120 86 0d 40
        E 360 96 0d 64
        E 120 86 0d 40
        E 360 96 0c 64
        E 120 86 0c 40
        E 360 96 0d 64
        E 120 86 0d 40
        E 360 96 0d 64
        E 120 86 0d 40
        E 360 96 0d 64
        E 120 86 0d 40
        E 360 96 0c 64
        E 120 86 0c 40
        E 360 96 0d 64
        E 120 86 0d 40
        E 360 96 0d 64
        E 120 86 0d 40
        E 360 96 0d 64
        E 120 86 0d 40
        E 360 96 0c 64
        E 120 86 0c 40
        E 360 96 0d 64
        E 120 86 0d 40
        E 360 96 0d 64
        E 120 86 0d 40
        E 360 96 0d 64
        E 120 86 0d 40
        E 360 96 0c 64
        E 120 86 0c 40
        E 360 96 0d 64
        E 120 86 0d 40
        E 360 96 0d 64
        E 120 86 0d 40
        E 360 96 0d 64
        E 120 86 0d 40
        E 360 96 0c 64
        E 120 86 0c 40
        E 360 96 0d 64
        E 120 86 0d 40
        E 360 96 0d 64
        E 120 86 0d 40
        E 360 96 0d 64
        E 120 86 0d 40
        E 360 96 0c 64
        E 120 86 0c 40
        E 360 96 0d 64
        E 120 86 0d 40
        E 360 96 0d 64
        E 120 86 0d 40
        E 360 96 0d 64
        E 120 86 0d 40
        E 360 96 0c 64
        E 120 86 0c 40
        E 360 96 0d 64
        E 120 86 0d 40
        E 360 96 0d 64
        E 120 86 0d 40
        E 360 96 0d 64
        E 120 86 0d 40
        E 360 96 0c 64
        E 120 86 0c 40
        E 360 96 0d 64
        E 120 86 0d 40
        E 360 96 0d 64
        E 120 86 0d 40
        E 360 96 0d 64
        E 120 86 0d 40
        E 360 96 0c 64
        E 120 86 0c 40
        E 360 96 0d 64
        E 120 86 0d 40
        E 360 96 0d 64
        E 120 86 0d 40
        E 360 96 0d 64
        E 120 86 0d 40
        E 360 96 0c 64
        E 120 86 0c 40
        E 360 96 0d 64
        E 120 86 0d 40
        E 360 96 0d 64
        E 120 86 0d 40
        E 360 96 0d 64
        E 120 86 0d 40
        E 360 96 0c 64
        E 120 86 0c 40
        E 360 96 0d 64
        E 120 86 0d 40
        E 360 96 0d 64
        E 120 86 0d 40
        E 360 96 0d 64
        E 120 86 0d 40
        E 360 96 0c 64
        E 120 86 0c 40
        E 360 96 0d 64
        E 120 86 0d 40
        E 360 96 0d 64
        E 120 86 0d 40
        E 360 96 0d 64
        E 120 86 0d 40
        E 360 96 0c 64
        E 120 86 0c 40
        E 360 96 0d 64
        E 120 86 0d 40
        E 360 96 0d 64
        E 120 86 0d 40
        E 360 96 0d 64
        E 120 86 0d 40
        E 360 96 0c 64
        E 120 86 0c 40
        E 360 96 0d 64
        E 120 86 0d 40
        E 360 96 0d 64
        E 120 86 0d 40
        E 360 96 0d 64
        E 120 86 0d 40
        E 360 96 0c 64
        E 120 86 0c 40
        E 360 96 0d 64
        E 120 86 0d 40
        E 360 96 0d 64
        E 120 86 0d 40
        E 360 96 0d 64
        E 120 86 0d 40
        E 360 96 0c 64
        E 120 86 0c 40
        E 360 96 0d 64
        E 120 86 0d 40
        E 360 96 0d 64
        E 120 86 0d 40
        E 360 96 0d 64
        E 120 86 0d 40
        E 360 96 0c 64
        E 120 86 0c 40
        E 360 96 0d 64
        E 120 86 0d 40
        E 360 96 0d 64
        E 120 86 0d 40
        E 360 96 0d 64
        E 120 86 0d 40
        E 360 96 0c 64
        E 120 86 0c 40
        E 360 96 0d 64
        E 120 86 0d 40
        E 360 96 0d 64
        E 120 86 0d 40
        E 360 96 0d 64
        E 120 86 0d 40
        E 360 96 0c 64
        E 120 86 0c 40
        E 360 96 0d 64
        E 120 86 0d 40
        E 360 96 0d 64
        E 120 86 0d 40
        E 360 96 0d 64
        E 120 86 0d 40
        E 360 96 0c 64
        E 120 86 0c 40
        E 360 96 0d 64
        E 120 86 0d 40
        E 360 96 0d 64
        E 120 86 0d 40
        E 360 96 0d 64
        E 120 86 0d 40
        E 360 96 0c 64
        E 120 86 0c 40
        E 360 96 0d 64
        E 120 86 0d 40
        E 360 96 0d 64
        E 120 86 0d 40
        E 360 96 0d 64
        E 120 86 0d 40
        E 360 96 0c 64
        E 120 86 0c 40
        E 360 96 0d 64
        E 120 86 0d 40
        E 360 96 0d 64
        E 120 86 0d 40
        E 360 96 0d 64
        E 120 86 0d 40
        E 360 96 0c 64
        E 120 86 0c 40
        E 360 96 0d 64
        E 120 86 0d 40
        E 360 96 0d 64
        E 120 86 0d 40
        E 360 96 0d 64
        E 120 86 0d 40
        E 360 96 0c 64
        E 120 86 0c 40
        E 360 96 0d 64
        E 120 86 0d 40
        E 360 96 0d 64
        E 120 86 0d 40
        E 360 96 0d 64
        E 120 86 0d 40
        E 360 96 0c 64
        E 120 86 0c 40
        E 360 96 0d 64
        E 120 86 0d 40
        E 360 96 0d 64
        E 120 86 0d 40
        E 360 96 0d 64
        E 120 86 0d 40
        E 360 96 0c 64
        E 120 86 0c 40
        E 360 96 0d 64
        E 120 86 0d 40
        E 360 96 0d 64
        E 120 86 0d 40
        E 360 96 0d 64
        E 120 86 0d 40
        E 360 96 0c 64
        E 120 86 0c 40
        E 360 96 0d 64
        E 120 86 0d 40
        E 360 96 0d 64
        E 120 86 0d 40
        E 360 96 0d 64
        E 120 86 0d 40
        E 360 96 0c 64
        E 120 86 0c 40
        E 360 96 0d 64
        E 120 86 0d 40
        E 360 96 0d 64
        E 120 86 0d 40
        E 360 96 0d 64
        E 120 86 0d 40
        E 360 96 0c 64
        E 120 86 0c 40
        E 360 96 0d 64
        E 120 86 0d 40
        E 360 96 0d 64
        E 120 86 0d 40
        E 360 96 0d 64
        E 120 86 0d 40
        E 360 96 0c 64
        E 120 86 0c 40
        E 360 96 0d 64
        E 120 86 0d 40
        E 360 96 0d 64
        E 120 86 0d 40
        E 360 96 0d 64
        E 120 86 0d 40
        E 360 96 0c 64
        E 120 86 0c 40
        E 360 96 0d 64
        E 120 86 0d 40
        E 360 96 0d 64
        E 120 86 0d 40
        E 360 96 0d 64
        E 120 86 0d 40
        E 360 96 0c 64
        E 120 86 0c 40
        E 360 96 0d 64
        E 120 86 0d 40
        E 360 96 0d 64
        E 120 86 0d 40
        E 360 96 0d 64
        E 120 86 0d 40
        E 360 96 0c 64
        E 120 86 0c 40
        E 360 96 0d 64
        E 120 86 0d 40
        E 360 96 0d 64
        E 120 86 0d 40
        E 360 96 0d 64
        E 120 86 0d 40
        E 360 96 0c 64
        E 120 86 0c 40
        E 360 96 0d 64
        E 120 86 0d 40
        E 360 96 0d 64
        E 120 86 0d 40
        E 360 96 0d 64
        E 120 86 0d 40
        E 360 96 0c 64
        E 120 86 0c 40
        E 360 96 0d 64
        E 120 86 0d 40
        E 360 96 0d 64
        E 120 86 0d 40
        E 360 96 0d 64
        E 120 86 0d 40
        E 360 96 0c 64
        E 120 86 0c 40
        E 360 96 0d 64
        E 120 86 0d 40
        E 360 96 0d 64
        E 120 86 0d 40
        E 360 96 0d 64
        E 120 86 0d 40
        E 360 96 0c 64
        E 120 86 0c 40
        E 360 96 0d 64
        E 120 86 0d 40
        E 360 96 0d 64
        E 120 86 0d 40
        E 360 96 0d 64
        E 120 86 0d 40
        E 360 96 0c 64
        E 120 86 0c 40
        E 360 96 0d 64
        E 120 86 0d 40
        E 360 96 0d 64
        E 120 86 0d 40
        E 360 96 0d 64
        E 120 86 0d 40
        E 360 96 0c 64
        E 120 86 0c 40
        E 360 96 0d 64
        E 120 86 0d 40
        E 360 96 0d 64
        E 120 86 0d 40
        E 360 96 0d 64
        E 120 86 0d 40
        E 360 96 0c 64
        E 120 86 0c 40
        E 360 96 0d 64
        E 120 86 0d 40
        E 360 96 0d 64
        E 120 86 0d 40
        E 360 96 0d 64
        E 120 86 0d 40
        E 360 96 0c 64
        E 120 86 0c 40
        E 360 96 0d 64
        E 120 86 0d 40
        E 360 96 0d 64
        E 120 86 0d 40
        E 360 96 0d 64
        E 120 86 0d 40
        E 360 96 0c 64
        E 120 86 0c 40
        E 360 96 0d 64
        E 120 86 0d 40
        E 360 96 0d 64
        E 120 86 0d 40
        E 360 96 0d 64
        E 120 86 0d 40
        E 360 96 0c 64
        E 120 86 0c 40
        E 360 96 0d 64
        E 120 86 0d 40
        E 360 96 0d 64
        E 120 86 0d 40
        E 360 96 0d 64
        E 120 86 0d 40
        E 360 96 0c 64
        E 120 86 0c 40
        E 360 96 0d 64
        E 120 86 0d 40
        E 360 96 0d 64
        E 120 86 0d 40
        E 360 96 0d 64
        E 120 86 0d 40
        E 360 96 0c 64
        E 120 86 0c 40
        E 360 96 0d 64
        E 120 86 0d 40
        E 360 96 0d 64
        E 120 86 0d 40
        E 360 96 0d 64
        E 120 86 0d 40
        E 360 96 0c 64
        E 120 86 0c 40
        E 360 96 0d 64
        E 120 86 0d 40
        E 360 96 0d 64
        E 120 86 0d 40
        E 360 96 0d 64
        E 120 86 0d 40
        E 360 96 0c 64
        E 120 86 0c 40
        E 360 96 0d 64
        E 120 86 0d 40
        E 360 96 0d 64
        E 120 86 0d 40
        E 360 96 0d 64
        E 120 86 0d 40
        E 360 96 0c 64
        E 120 86 0c 40
        E 360 96 0d 64
        E 120 86 0d 40
        E 360 96 0d 64
        E 120 86 0d 40
        E 360 96 0d 64
        E 120 86 0d 40
        E 360 96 0c 64
        E 120 86 0c 40
        E 360 96 0d 64
        E 120 86 0d 40
        E 360 96 0d 64
        E 120 86 0d 40
        E 360 96 0d 64
        E 120 86 0d 40
        E 360 96 0c 64
        E 120 86 0c 40
        E 360 96 0d 64
        E 120 86 0d 40
        E 360 96 0d 64
        E 120 86 0d 40
        E 360 96 0d 64
        E 120 86 0d 40
        E 360 96 0c 64
        E 120 86 0c 40
        E 360 96 0d 64
        E 120 86 0d 40
        E 360 96 0d 64
        E 120 86 0d 40
        E 360 96 0d 64
        E 120 86 0d 40
        E 360 96 0c 64
        E 120 86 0c 40
        E 360 96 0d 64
        E 120 86 0d 40
        E 360 96 0d 64
        E 120 86 0d 40
        E 360 96 0d 64
        E 120 86 0d 40
        E 360 96 0c 64
        E 120 86 0c 40
        E 360 96 0d 64
        E 120 86 0d 40
        E 360 96 0d 64
        E 120 86 0d 40
        E 360 96 0d 64
        E 120 86 0d 40
        E 360 96 0c 64
        E 120 86 0c 40
        E 360 96 0d 64
        E 120 86 0d 40
        E 360 96 0d 64
        E 120 86 0d 40
        E 360 96 0d 64
        E 120 86 0d 40
        E 360 96 0c 64
        E 120 86 0c 40
        E 360 96 0d 64
        E 120 86 0d 40
        E 360 96 0d 64
        E 120 86 0d 40
        E 360 96 0d 64
        E 120 86 0d 40
        E 360 96 0c 64
        E 120 86 0c 40
        E 360 96 0d 64
        E 120 86 0d 40
        E 360 96 0d 64
        E 120 86 0d 40
        E 360 96 0d 64
        E 120 86 0d 40
        E 360 96 0c 64
        E 120 86 0c 40
        E 360 96 0d 64
        E 120 86 0d 40
        E 360 96 0d 64
        E 120 86 0d 40
        E 360 96 0d 64
        E 120 86 0d 40
        E 360 96 0c 64
        E 120 86 0c 40
        E 360 96 0d 64
        E 120 86 0d 40
        E 360 96 0d 64
        E 120 86 0d 40
        E 360 96 0d 64
        E 120 86 0d 40
        E 360 96 0c 64
        E 120 86 0c 40
        E 360 96 0d 64
        E 120 86 0d 40
        E 360 96 0d 64
        E 120 86 0d 40
        E 360 96 0d 64
        E 120 86 0d 40
        E 360 96 0c 64
        E 120 86 0c 40
        E 360 96 0d 64
        E 120 86 0d 40
        E 360 96 0d 64
        E 120 86 0d 40
        E 360 96 0d 64
        E 120 86 0d 40
        E 360 96 0c 64
        E 120 86 0c 40
        E 360 96 0d 64
        E 120 86 0d 40
        E 360 96 0d 64
        E 120 86 0d 40
        E 360 96 0d 64
        E 120 86 0d 40
        E 360 96 0c 64
        E 120 86 0c 40
        E 360 96 0d 64
        E 120 86 0d 40
        E 360 96 0d 64
        E 120 86 0d 40
        E 360 96 0d 64
        E 120 86 0d 40
        E 360 96 0c 64
        E 120 86 0c 40
        E 360 96 0d 64
        E 120 86 0d 40
        E 360 96 0d 64
        E 120 86 0d 40
        E 360 96 0d 64
        E 120 86 0d 40
        E 360 96 0c 64
        E 120 86 0c 40
        E 360 96 0d 64
        E 120 86 0d 40
        E 360 96 0d 64
        E 120 86 0d 40
        E 360 96 0d 64
        E 120 86 0d 40
        E 360 96 0c 64
        E 120 86 0c 40
        E 360 96 0d 64
        E 120 86 0d 40
        E 360 96 0d 64
        E 120 86 0d 40
        E 360 96 0d 64
        E 120 86 0d 40
        E 360 96 0c 64
        E 120 86 0c 40
        E 360 96 0d 64
        E 120 86 0d 40
        E 360 96 0d 64
        E 120 86 0d 40
        E 360 96 0d 64
        E 120 86 0d 40
        E 360 96 0c 64
        E 120 86 0c 40
        E 360 96 0d 64
        E 120 86 0d 40
        E 360 96 0d 64
        E 120 86 0d 40
        E 360 96 0d 64
        E 120 86 0d 40
        E 360 96 0c 64
        E 120 86 0c 40
        E 360 96 0d 64
        E 120 86 0d 40
        E 360 96 0d 64
        E 120 86 0d 40
        E 360 96 0d 64
        E 120 86 0d 40
        E 360 b0 7b 00
        GUID {C807D46C-4998-4CCB-B4BD-D260F46F6661}
        IGNTEMPO 0 120.00000000 4 4
        SRCCOLOR 17
        VELLANE 132 128 60
        COLORMAP "C:\Program Files\REAPER (x64)\Data\color_maps\rockband_guitarbass.png"
        CFGEDITVIEW -1262.504100 69.848485 0 48 0 0 0
        CFGEDIT 1 1 0 1 1 0 1 1 1 1 1 0.25000000 -8 -8 1544 872 0 2 1 1 0.00000000 0 1 1 0 0.500000 0 0 1.000000 64
        KEYSNAP 0 6 "102030050700" 0 "Pentatonic"
        EVTFILTER 0 -1 -1 -1 -1 0 1 0 0 -1.00000000 -1.00000000
      >
    >
  >
  <TRACK '{9061018D-A68D-4BE3-91F7-2714D3A441A7}'
    NAME "backing"
    PEAKCOL 16576
    BEAT -1
    AUTOMODE 0
    VOLPAN 1.00000000000000 0.00000000000000 -1.00000000000000 -1.00000000000000 1.00000000000000
    MUTESOLO 0 0 0
    IPHASE 0
    ISBUS 0 0
    BUSCOMP 0 0
    SHOWINMIX 1 0.666700 0.500000 1 0.500000 -1 -1 -1
    FREEMODE 0
    SEL 0
    REC 0 0 0 0 0 0 0
    VU 2
    TRACKHEIGHT 0 0
    INQ 0 0 0 0.5000000000 100 0 0 100
    NCHAN 2
    FX 1
    TRACKID {9061018D-A68D-4BE3-91F7-2714D3A441A7}
    PERF 0
    MIDIOUT -1
    MAINSEND 1 0
    <ITEM
      POSITION 0.00000000000000
      SNAPOFFS 0.00000000000000
      LENGTH 119.20500000000000
      LOOP 0
      ALLTAKES 0
      SEL 0
      FADEIN 1 0.000000 0.000000 1 0
      FADEOUT 1 0.000000 0.000000 1 0
      MUTE 0
      IGUID {2B18DF5A-BC8A-4539-B054-B60DDE9577C6}
      IID 16
      NAME "backing.wav"
      VOLPAN 1.000000 0.000000 1.000000 -1.000000
      SOFFS 0.00000000000000
      PLAYRATE 1.00000000000000 1 0.00000000000000 -1
      CHANMODE 0
      GUID {690639D2-DAB2-4DAF-9649-B3454306C1E4}
      <SOURCE WAVE
        FILE "wav\backing.wav"
      >
    >
  >
  <EXTENSIONS
  >
>
