<REAPER_PROJECT 0.1 "4.22/x64"
  RIPPLE 0
  GROUPOVERRIDE 0 0 0
  AUTOXFADE 1
  ENVATTACH 1
  MIXERUIFLAGS 11 48
  PEAKGAIN 1.00000000000000
  FEEDBACK 0
  PANLAW 1.00000000000000
  PROJOFFS 0.00000000000000 0
  MAXPROJLEN 0 600.00000000000000
  GRID 3199 8 1.00000000000000 8 1.00000000000000 0
  TIMEMODE 1 0 -1
  PANMODE 3
  CURSOR 5.97661900000000
  ZOOM 10.40839164388367 0 0
  VZOOMEX 6
  USE_REC_CFG 0
  RECMODE 1
  SMPTESYNC 0 23.976024 100 40 1000 300 0 0.000000 1
  LOOP 1
  LOOPGRAN 0 4.00000000000000
  RECORD_PATH "" ""
  <RECORD_CFG
    ZXZhdxAD
  >
  <APPLYFX_CFG
  >
  RENDER_FILE "C:\Users\Ruggery\Desktop\backing.wav"
  RENDER_FMT 0 2 44100
  RENDER_1X 0
  RENDER_RANGE 2 0.00000000000000 0.00000000000000
  RENDER_RESAMPLE 3 0 1
  RENDER_ADDTOPROJ 0
  RENDER_STEMS 0
  RENDER_DITHER 0
  TIMELOCKMODE 0
  ITEMMIX 0
  DEFPITCHMODE 393216
  TAKELANE 1
  SAMPLERATE 44100 0 0
  <RENDER_CFG
    ZXZhdxAD
  >
  LOCK 1
  <METRONOME 6 2.000000
    VOL 0.250000 0.125000
    FREQ 800 1600 1
    BEATLEN 4
    SAMPLES "" ""
  >
  GLOBAL_AUTO -1
  TEMPO 120.00000000000000 4 4
  PLAYRATE 1.00000000000000 0 0.25000 4.00000
  SELECTION 107.89371100000000 0.00000000000000
  SELECTION2 107.89371100000000 0.00000000000000
  MASTERAUTOMODE 0
  MASTERTRACKHEIGHT 0
  MASTERPEAKCOL 16576
  MASTERMUTESOLO 0
  MASTERTRACKVIEW 0 0.666700 0.500000 0.500000 -1 -1 -1
  MASTERHWOUT 0 0 1.00000000000000 0.00000000000000 0 0 0 -1.00000000000000
  MASTER_NCH 2 2
  MASTER_VOLUME 1.00000000000000 0.00000000000000 -1.00000000000000 -1.00000000000000 1.00000000000000
  MASTER_PANMODE -1
  MASTER_FX 1
  MASTER_SEL 0
  <MASTERPLAYSPEEDENV
    ACT 0
    VIS 0 1 1.000000
    LANEHEIGHT 0 0
    ARM 0
    DEFSHAPE 0 -1 -1
  >
  <TEMPOENVEX
    ACT 1
    VIS 1 0 1.000000
    LANEHEIGHT 0 0
    ARM 0
    DEFSHAPE 1 -1 -1
    PT 0.000000000000 140.0001400001 1
    PT 3.428568000000 135.3219647847 1
    PT 3.871955000000 144.3643756842 1
    PT 4.703185000000 141.3500817475 1
    PT 7.674531000000 143.6107574031 1
    PT 8.927919000000 142.1036551428 1
    PT 10.616827000000 143.9874442949 1
    PT 12.700342000000 140.2196774947 1
    PT 13.556142000000 144.3643756842 1
    PT 14.802987000000 143.2339846501 1
    PT 15.640777000000 139.8428632360 1
    PT 16.069830000000 140.9734687932 1
    PT 16.921054000000 140.5965511666 1
    PT 18.201313000000 142.1036551428 1
    PT 18.623540000000 148.5086023608 1
    PT 19.027557000000 142.8571428571 1
    PT 21.967557000000 141.7267036731 1
    PT 25.354357000000 144.3643756842 1
    PT 26.185587000000 142.4802486755 1
    PT 32.081141000000 142.8571428571 1
    PT 33.761141000000 143.6107574031 1
    PT 35.850121000000 141.3500817475 1
    PT 38.821467000000 142.8571428571 1
    PT 42.181467000000 142.4802486755 1
    PT 47.655910000000 139.8428632360 1
    PT 48.084963000000 143.2339846501 1
    PT 50.598333000000 141.3500817475 1
    PT 52.296245000000 142.8571428571 1
    PT 53.976245000000 142.1036551428 1
    PT 57.354061000000 143.2339846501 1
    PT 60.705221000000 142.1036551428 1
    PT 64.083037000000 141.3500817475 1
    PT 65.780949000000 143.6107574031 1
    PT 67.452133000000 144.7408415233 1
    PT 68.281201000000 142.4802486755 1
    PT 69.123423000000 140.5965511666 1
    PT 70.830435000000 142.8571428571 1
    PT 72.510435000000 143.6107574031 1
    PT 77.523987000000 141.7267036731 1
    PT 84.297587000000 144.7408415233 1
    PT 85.955723000000 142.8571428571 1
    PT 89.315723000000 142.1036551428 1
  >
  <PROJBAY
  >
  <TRACK '{12A8DE61-E619-42B5-9A4B-DF239E41346A}'
    NAME "PART DRUMS"
    PEAKCOL 16576
    BEAT -1
    AUTOMODE 0
    VOLPAN 1.00000000000000 0.00000000000000 -1.00000000000000 -1.00000000000000 1.00000000000000
    MUTESOLO 0 0 0
    IPHASE 0
    ISBUS 0 0
    BUSCOMP 0 0
    SHOWINMIX 1 0.666700 0.500000 1 0.500000 -1 -1 -1
    FREEMODE 0
    SEL 0
    REC 0 0 0 0 0 0 0
    VU 2
    TRACKHEIGHT 0 0
    INQ 0 0 0 0.5000000000 100 0 0 100
    NCHAN 2
    FX 1
    TRACKID {12A8DE61-E619-42B5-9A4B-DF239E41346A}
    PERF 0
    MIDIOUT -1
    <MIDINOTENAMES
      0 127 "CYMBAL SWELLS"
      0 126 "DRUM ROLL"
      0 125 "---"
      0 124 "DRUM FILL"
      0 123 "DRUM FILL"
      0 122 "DRUM FILL"
      0 121 "DRUM FILL"
      0 120 "DRUM FILL (use all 5)"
      0 118 "----"
      0 116 "OVERDRIVE"
      0 114 "----"
      0 112 "TOM GEMS PAD 4"
      0 111 "TOM GEMS PAD 3"
      0 110 "TOM GEMS PAD 2"
      0 103 "Solo Marker"
      0 102 "----"
      0 100 "EXPERT Green"
      0 99 "EXPERT Blue"
      0 98 "EXPERT Yellow"
      0 97 "EXPERT Red"
      0 96 "EXPERT Kick"
      0 92 "----"
      0 88 "HARD Green"
      0 87 "HARD Blue"
      0 86 "HARD Yellow"
      0 85 "HARD Red"
      0 84 "HARD Kick"
      0 80 "----"
      0 76 "MEDIUM Green"
      0 75 "MEDIUM Blue"
      0 74 "MEDIUM Yellow"
      0 73 "MEDIUM Red"
      0 72 "MEDIUM Kick"
      0 68 "----"
      0 64 "EASY Green"
      0 63 "EASY Blue"
      0 62 "EASY Yellow"
      0 61 "EASY Red"
      0 60 "EASY Kick"
      0 56 "----"
      0 52 "-- DRUM ANIMATION --"
      0 51 "FLOOR TOM RH"
      0 50 "FLOOR TOM LH"
      0 49 "TOM2 RH"
      0 48 "TOM2 LH"
      0 47 "TOM1 RH"
      0 46 "TOM1 LH"
      0 45 "SOFT CRASH 2 LH"
      0 44 "CRASH 2 LH"
      0 43 "RIDE LH"
      0 42 "RIDE CYM RH"
      0 41 "CRASH2 CHOKE"
      0 40 "CRASH1 CHOKE"
      0 39 "CRASH2 SOFT RH"
      0 38 "CRASH2 HARD RH"
      0 37 "CRASH1 SOFT RH"
      0 36 "CRASH1 HARD RH"
      0 35 "CRASH1 SOFT LH"
      0 34 "CRASH1 HARD LH"
      0 32 "PERCUSSION RH"
      0 31 "HI-HAT RH"
      0 30 "HI-HAT LH"
      0 29 "SOFT SNARE RH"
      0 28 "SOFT SNARE LH"
      0 27 "SNARE RH"
      0 26 "SNARE LH"
      0 25 "HI-HAT OPEN"
      0 24 "KICK RF"
    >
    MAINSEND 1 0
    <FXCHAIN
      WNDRECT 3 100 891 559
      SHOW 0
      LASTSEL 0
      DOCKED 0
      BYPASS 0 0
      <VST "VSTi: RBN Preview (RBN)" "rbprev_vst64.dll" 0 ""
        dnBicu5e7f4AAAAAAgAAAAEAAAAAAAAAAgAAAAAAAAAEAAAAAQAAAA==
        AAAQAAMBqgAAABAAAAA=
      >
      FLOATPOS 0 0 0 0
      FXID {0037BE1F-B05A-41D5-BA46-AB8973127DDC}
      WAK 0
    >
    <ITEM
      POSITION 0.00000000000000
      SNAPOFFS 0.00000000000000
      LENGTH 107.89371100000000
      LOOP 0
      ALLTAKES 0
      SEL 0
      FADEIN 1 0.000000 0.000000 1 0
      FADEOUT 1 0.000000 0.000000 1 0
      MUTE 0
      IGUID {9CBEF621-FFCA-4613-8143-381B68AE99CA}
      IID 1
      NAME "PART DRUMS"
      VOLPAN 1.000000 0.000000 1.000000 -1.000000
      SOFFS 0.00000000000000 0.00000000000000
      PLAYRATE 1.00000000000000 1 0.00000000000000 -1
      CHANMODE 0
      GUID {805394E1-9ECE-4041-AA72-6EC287F8E3CE}
      <SOURCE MIDI
        HASDATA 1 480 QN
        POOLEDEVTS {C0A4030B-B868-42D4-9250-FB5962893512}
        <X 0 0
          /wNQQVJUIERSVU1T
        >
        <X 120 0
          /wFbbWl4IDAgZHJ1bXMwXQ==
        >
        <X 120 0
          /wFbbWl4IDEgZHJ1bXMwXQ==
        >
        <X 120 0
          /wFbbWl4IDIgZHJ1bXMwXQ==
        >
        <X 120 0
          /wFbbWl4IDMgZHJ1bXMwXQ==
        >
        <X 3360 0
          /wFbcGxheV0=
        >
        E 0 90 18 60
        E 0 90 3c 60
        E 0 90 48 60
        E 0 90 54 60
        E 0 90 60 60
        E 120 80 18 00
        E 0 80 3c 00
        E 0 80 48 00
        E 0 80 54 00
        E 0 80 60 00
        E 120 90 18 60
        E 0 90 19 60
        E 0 90 54 60
        E 0 90 60 60
        E 120 80 18 00
        E 0 80 54 00
        E 0 80 60 00
        E 120 80 19 00
        E 0 90 1a 60
        E 0 90 3d 60
        E 0 90 49 60
        E 0 90 55 60
        E 0 90 61 60
        E 120 80 1a 00
        E 0 80 3d 00
        E 0 80 49 00
        E 0 80 55 00
        E 0 80 61 00
        E 120 90 18 60
        E 0 90 19 60
        E 0 90 54 60
        E 0 90 60 60
        E 120 80 18 00
        E 0 80 54 00
        E 0 80 60 00
        E 120 80 19 00
        E 240 90 18 60
        E 0 90 19 60
        E 0 90 54 60
        E 0 90 60 60
        E 120 80 18 00
        E 0 80 54 00
        E 0 80 60 00
        E 120 80 19 00
        E 0 90 1a 60
        E 0 90 3d 60
        E 0 90 49 60
        E 0 90 55 60
        E 0 90 61 60
        E 120 80 1a 00
        E 0 80 3d 00
        E 0 80 49 00
        E 0 80 55 00
        E 0 80 61 00
        E 120 90 18 60
        E 0 90 19 60
        E 0 90 54 60
        E 0 90 60 60
        E 120 80 18 00
        E 0 80 54 00
        E 0 80 60 00
        E 120 80 19 00
        E 240 90 18 60
        E 0 90 19 60
        E 0 90 54 60
        E 0 90 60 60
        E 120 80 18 00
        E 0 80 54 00
        E 0 80 60 00
        E 120 80 19 00
        E 0 90 1a 60
        E 0 90 3d 60
        E 0 90 49 60
        E 0 90 55 60
        E 0 90 61 60
        E 120 80 1a 00
        E 0 80 3d 00
        E 0 80 49 00
        E 0 80 55 00
        E 0 80 61 00
        E 120 90 19 60
        E 0 90 1a 60
        E 0 90 55 60
        E 0 90 61 60
        E 120 80 1a 00
        E 0 80 55 00
        E 0 80 61 00
        E 120 80 19 00
        E 0 90 18 60
        E 0 90 3c 60
        E 0 90 48 60
        E 0 90 54 60
        E 0 90 60 60
        E 120 80 18 00
        E 0 80 3c 00
        E 0 80 48 00
        E 0 80 54 00
        E 0 80 60 00
        E 120 90 18 60
        E 0 90 19 60
        E 0 90 54 60
        E 0 90 60 60
        E 120 80 18 00
        E 0 80 54 00
        E 0 80 60 00
        E 120 80 19 00
        E 0 90 1a 60
        E 0 90 3d 60
        E 0 90 49 60
        E 0 90 55 60
        E 0 90 61 60
        E 120 80 1a 00
        E 0 80 3d 00
        E 0 80 49 00
        E 0 80 55 00
        E 0 80 61 00
        E 120 90 18 60
        E 0 90 19 60
        E 0 90 54 60
        E 0 90 60 60
        E 120 80 18 00
        E 0 80 54 00
        E 0 80 60 00
        E 120 80 19 00
        E 0 90 18 60
        E 0 90 3c 60
        E 0 90 48 60
        E 0 90 54 60
        E 0 90 60 60
        E 120 80 18 00
        E 0 80 3c 00
        E 0 80 48 00
        E 0 80 54 00
        E 0 80 60 00
        E 120 90 18 60
        E 0 90 19 60
        E 0 90 54 60
        E 0 90 60 60
        E 120 80 18 00
        E 0 80 54 00
        E 0 80 60 00
        E 120 80 19 00
        E 0 90 1a 60
        E 0 90 3d 60
        E 0 90 49 60
        E 0 90 55 60
        E 0 90 61 60
        E 120 80 1a 00
        E 0 80 3d 00
        E 0 80 49 00
        E 0 80 55 00
        E 0 80 61 00
        E 120 90 18 60
        E 0 90 19 60
        E 0 90 54 60
        E 0 90 60 60
        E 120 80 18 00
        E 0 80 54 00
        E 0 80 60 00
        E 120 80 19 00
        E 240 90 18 60
        E 0 90 19 60
        E 0 90 54 60
        E 0 90 60 60
        E 120 80 18 00
        E 0 80 54 00
        E 0 80 60 00
        E 120 80 19 00
        E 0 90 1a 60
        E 0 90 3d 60
        E 0 90 49 60
        E 0 90 55 60
        E 0 90 61 60
        E 120 80 1a 00
        E 0 80 3d 00
        E 0 80 49 00
        E 0 80 55 00
        E 0 80 61 00
        E 120 90 18 60
        E 0 90 19 60
        E 0 90 54 60
        E 0 90 60 60
        E 120 80 18 00
        E 0 80 54 00
        E 0 80 60 00
        E 120 80 19 00
        E 240 90 18 60
        E 0 90 19 60
        E 0 90 54 60
        E 0 90 60 60
        E 120 80 18 00
        E 0 80 54 00
        E 0 80 60 00
        E 120 80 19 00
        E 0 90 1a 60
        E 0 90 3d 60
        E 0 90 49 60
        E 0 90 55 60
        E 0 90 61 60
        E 120 80 1a 00
        E 0 80 3d 00
        E 0 80 49 00
        E 0 80 55 00
        E 0 80 61 00
        E 120 90 18 60
        E 0 90 19 60
        E 0 90 1a 60
        E 0 90 54 60
        E 0 90 55 60
        E 0 90 60 60
        E 0 90 61 60
        E 120 80 18 00
        E 0 80 1a 00
        E 0 80 54 00
        E 0 80 55 00
        E 0 80 60 00
        E 0 80 61 00
        E 120 80 19 00
        E 0 90 18 60
        E 0 90 3c 60
        E 0 90 48 60
        E 0 90 54 60
        E 0 90 60 60
        E 120 80 18 00
        E 0 80 3c 00
        E 0 80 48 00
        E 0 80 54 00
        E 0 80 60 00
        E 120 90 18 60
        E 0 90 19 60
        E 0 90 54 60
        E 0 90 60 60
        E 120 80 18 00
        E 0 80 54 00
        E 0 80 60 00
        E 120 80 19 00
        E 0 90 1a 60
        E 0 90 3d 60
        E 0 90 49 60
        E 0 90 55 60
        E 0 90 61 60
        E 120 80 1a 00
        E 0 80 3d 00
        E 0 80 49 00
        E 0 80 55 00
        E 0 80 61 00
        E 120 90 18 60
        E 0 90 19 60
        E 0 90 54 60
        E 0 90 60 60
        E 120 80 18 00
        E 0 80 54 00
        E 0 80 60 00
        E 120 80 19 00
        E 0 90 18 60
        E 0 90 3c 60
        E 0 90 48 60
        E 0 90 54 60
        E 0 90 60 60
        E 120 80 18 00
        E 0 80 3c 00
        E 0 80 48 00
        E 0 80 54 00
        E 0 80 60 00
        E 120 90 18 60
        E 0 90 19 60
        E 0 90 54 60
        E 0 90 60 60
        E 120 80 18 00
        E 0 80 54 00
        E 0 80 60 00
        E 120 80 19 00
        E 0 90 1a 60
        E 0 90 3d 60
        E 0 90 49 60
        E 0 90 55 60
        E 0 90 61 60
        E 120 80 1a 00
        E 0 80 3d 00
        E 0 80 49 00
        E 0 80 55 00
        E 0 80 61 00
        E 120 90 18 60
        E 0 90 19 60
        E 0 90 54 60
        E 0 90 60 60
        E 120 80 18 00
        E 0 80 54 00
        E 0 80 60 00
        E 120 80 19 00
        E 240 90 18 60
        E 0 90 19 60
        E 0 90 54 60
        E 0 90 60 60
        E 120 80 18 00
        E 0 80 54 00
        E 0 80 60 00
        E 120 80 19 00
        E 0 90 1a 60
        E 0 90 3d 60
        E 0 90 49 60
        E 0 90 55 60
        E 0 90 61 60
        E 120 80 1a 00
        E 0 80 3d 00
        E 0 80 49 00
        E 0 80 55 00
        E 0 80 61 00
        E 120 90 18 60
        E 0 90 19 60
        E 0 90 54 60
        E 0 90 60 60
        E 120 80 18 00
        E 0 80 54 00
        E 0 80 60 00
        E 120 80 19 00
        E 240 90 18 60
        E 0 90 19 60
        E 0 90 54 60
        E 0 90 60 60
        E 120 80 18 00
        E 0 80 54 00
        E 0 80 60 00
        E 120 80 19 00
        E 0 90 1a 60
        E 0 90 3d 60
        E 0 90 49 60
        E 0 90 55 60
        E 0 90 61 60
        E 120 80 1a 00
        E 0 80 3d 00
        E 0 80 49 00
        E 0 80 55 00
        E 0 80 61 00
        E 120 90 19 60
        E 0 90 1a 60
        E 0 90 55 60
        E 0 90 61 60
        E 120 80 1a 00
        E 0 80 55 00
        E 0 80 61 00
        E 120 80 19 00
        E 0 90 18 60
        E 0 90 3c 60
        E 0 90 48 60
        E 0 90 54 60
        E 0 90 60 60
        E 120 80 18 00
        E 0 80 3c 00
        E 0 80 48 00
        E 0 80 54 00
        E 0 80 60 00
        E 120 90 18 60
        E 0 90 19 60
        E 0 90 54 60
        E 0 90 60 60
        E 120 80 18 00
        E 0 80 54 00
        E 0 80 60 00
        E 120 80 19 00
        E 0 90 1a 60
        E 0 90 3d 60
        E 0 90 49 60
        E 0 90 55 60
        E 0 90 61 60
        E 120 80 1a 00
        E 0 80 3d 00
        E 0 80 49 00
        E 0 80 55 00
        E 0 80 61 00
        E 120 90 18 60
        E 0 90 19 60
        E 0 90 54 60
        E 0 90 60 60
        E 120 80 18 00
        E 0 80 54 00
        E 0 80 60 00
        E 120 80 19 00
        E 0 90 18 60
        E 0 90 3c 60
        E 0 90 48 60
        E 0 90 54 60
        E 0 90 60 60
        E 0 90 74 60
        E 120 80 18 00
        E 0 80 3c 00
        E 0 80 48 00
        E 0 80 54 00
        E 0 80 60 00
        E 120 90 18 60
        E 0 90 19 60
        E 0 90 54 60
        E 0 90 60 60
        E 120 80 18 00
        E 0 80 54 00
        E 0 80 60 00
        E 120 80 19 00
        E 0 90 1a 60
        E 0 90 3d 60
        E 0 90 49 60
        E 0 90 55 60
        E 0 90 61 60
        E 120 80 1a 00
        E 0 80 3d 00
        E 0 80 49 00
        E 0 80 55 00
        E 0 80 61 00
        E 120 90 18 60
        E 0 90 19 60
        E 0 90 54 60
        E 0 90 60 60
        E 120 80 18 00
        E 0 80 54 00
        E 0 80 60 00
        E 120 80 19 00
        E 240 90 18 60
        E 0 90 19 60
        E 0 90 54 60
        E 0 90 60 60
        E 120 80 18 00
        E 0 80 54 00
        E 0 80 60 00
        E 120 80 19 00
        E 0 90 1a 60
        E 0 90 3d 60
        E 0 90 49 60
        E 0 90 55 60
        E 0 90 61 60
        E 120 80 1a 00
        E 0 80 3d 00
        E 0 80 49 00
        E 0 80 55 00
        E 0 80 61 00
        E 120 90 18 60
        E 0 90 19 60
        E 0 90 54 60
        E 0 90 60 60
        E 120 80 18 00
        E 0 80 54 00
        E 0 80 60 00
        E 120 80 19 00
        E 240 90 18 60
        E 0 90 19 60
        E 0 90 54 60
        E 0 90 60 60
        E 120 80 18 00
        E 0 80 54 00
        E 0 80 60 00
        E 120 80 19 00
        E 0 90 1a 60
        E 0 90 3d 60
        E 0 90 49 60
        E 0 90 55 60
        E 0 90 61 60
        E 120 80 1a 00
        E 0 80 3d 00
        E 0 80 49 00
        E 0 80 55 00
        E 0 80 61 00
        E 120 90 19 60
        E 0 90 1a 60
        E 0 90 55 60
        E 0 90 61 60
        E 120 80 1a 00
        E 0 80 55 00
        E 0 80 61 00
        E 120 80 19 00
        E 0 90 18 60
        E 0 90 3c 60
        E 0 90 48 60
        E 0 90 54 60
        E 0 90 60 60
        E 120 80 18 00
        E 0 80 3c 00
        E 0 80 48 00
        E 0 80 54 00
        E 0 80 60 00
        E 120 90 18 60
        E 0 90 19 60
        E 0 90 54 60
        E 0 90 60 60
        E 120 80 18 00
        E 0 80 54 00
        E 0 80 60 00
        E 120 80 19 00
        E 0 90 1a 60
        E 0 90 3d 60
        E 0 90 49 60
        E 0 90 55 60
        E 0 90 61 60
        E 120 80 1a 00
        E 0 80 3d 00
        E 0 80 49 00
        E 0 80 55 00
        E 0 80 61 00
        E 120 90 18 60
        E 0 90 19 60
        E 0 90 54 60
        E 0 90 60 60
        E 120 80 18 00
        E 0 80 54 00
        E 0 80 60 00
        E 120 80 19 00
        E 0 90 18 60
        E 0 90 26 60
        E 0 90 40 60
        E 0 90 48 60
        E 0 90 4c 60
        E 0 90 54 60
        E 0 90 58 60
        E 0 90 60 60
        E 0 90 64 60
        E 120 80 74 00
        E 0 80 18 00
        E 0 80 26 00
        E 0 80 40 00
        E 0 80 48 00
        E 0 80 4c 00
        E 0 80 54 00
        E 0 80 58 00
        E 0 80 60 00
        E 0 80 64 00
        E 120 90 18 60
        E 0 90 19 60
        E 0 90 54 60
        E 0 90 60 60
        E 120 80 18 00
        E 0 80 54 00
        E 0 80 60 00
        E 120 80 19 00
        E 0 90 1a 60
        E 0 90 3d 60
        E 0 90 49 60
        E 0 90 55 60
        E 0 90 61 60
        E 120 80 1a 00
        E 0 80 3d 00
        E 0 80 49 00
        E 0 80 55 00
        E 0 80 61 00
        E 120 90 19 60
        E 0 90 1a 60
        E 0 90 55 60
        E 0 90 61 60
        E 120 80 1a 00
        E 0 80 55 00
        E 0 80 61 00
        E 120 80 19 00
        E 240 90 18 60
        E 0 90 19 60
        E 0 90 3c 60
        E 0 90 48 60
        E 0 90 54 60
        E 0 90 60 60
        E 120 80 18 00
        E 0 80 3c 00
        E 0 80 48 00
        E 0 80 54 00
        E 0 80 60 00
        E 120 80 19 00
        E 240 90 19 60
        E 0 90 1a 60
        E 0 90 55 60
        E 0 90 61 60
        E 120 80 1a 00
        E 0 80 55 00
        E 0 80 61 00
        E 120 80 19 00
        E 0 90 18 60
        E 0 90 3c 60
        E 0 90 48 60
        E 0 90 54 60
        E 0 90 60 60
        E 120 80 18 00
        E 0 80 3c 00
        E 0 80 48 00
        E 0 80 54 00
        E 0 80 60 00
        E 120 90 18 60
        E 0 90 19 60
        E 0 90 54 60
        E 0 90 60 60
        E 120 80 18 00
        E 0 80 54 00
        E 0 80 60 00
        E 120 80 19 00
        E 0 90 1a 60
        E 0 90 3d 60
        E 0 90 49 60
        E 0 90 55 60
        E 0 90 61 60
        E 120 80 1a 00
        E 0 80 3d 00
        E 0 80 49 00
        E 0 80 55 00
        E 0 80 61 00
        E 120 90 19 60
        E 0 90 1a 60
        E 0 90 55 60
        E 0 90 61 60
        E 120 80 1a 00
        E 0 80 55 00
        E 0 80 61 00
        E 120 80 19 00
        E 240 90 18 60
        E 0 90 19 60
        E 0 90 3c 60
        E 0 90 48 60
        E 0 90 54 60
        E 0 90 60 60
        E 120 80 18 00
        E 0 80 3c 00
        E 0 80 48 00
        E 0 80 54 00
        E 0 80 60 00
        E 120 80 19 00
        E 240 90 19 60
        E 0 90 1a 60
        E 0 90 55 60
        E 0 90 61 60
        E 120 80 1a 00
        E 0 80 55 00
        E 0 80 61 00
        E 120 80 19 00
        E 0 90 18 60
        E 0 90 3c 60
        E 0 90 48 60
        E 0 90 54 60
        E 0 90 60 60
        E 120 80 18 00
        E 0 80 3c 00
        E 0 80 48 00
        E 0 80 54 00
        E 0 80 60 00
        E 120 90 18 60
        E 0 90 19 60
        E 0 90 54 60
        E 0 90 60 60
        E 120 80 18 00
        E 0 80 54 00
        E 0 80 60 00
        E 120 80 19 00
        E 0 90 1a 60
        E 0 90 3d 60
        E 0 90 49 60
        E 0 90 55 60
        E 0 90 61 60
        E 120 80 1a 00
        E 0 80 3d 00
        E 0 80 49 00
        E 0 80 55 00
        E 0 80 61 00
        E 120 90 19 60
        E 0 90 1a 60
        E 0 90 55 60
        E 0 90 61 60
        E 120 80 1a 00
        E 0 80 55 00
        E 0 80 61 00
        E 120 80 19 00
        E 240 90 18 60
        E 0 90 19 60
        E 0 90 3c 60
        E 0 90 48 60
        E 0 90 54 60
        E 0 90 60 60
        E 120 80 18 00
        E 0 80 3c 00
        E 0 80 48 00
        E 0 80 54 00
        E 0 80 60 00
        E 120 80 19 00
        E 240 90 19 60
        E 0 90 1a 60
        E 0 90 55 60
        E 0 90 61 60
        E 120 80 1a 00
        E 0 80 55 00
        E 0 80 61 00
        E 120 80 19 00
        E 0 90 18 60
        E 0 90 3c 60
        E 0 90 48 60
        E 0 90 54 60
        E 0 90 60 60
        E 0 90 78 60
        E 0 90 79 60
        E 0 90 7a 60
        E 0 90 7b 60
        E 0 90 7c 60
        E 120 80 18 00
        E 0 80 3c 00
        E 0 80 48 00
        E 0 80 54 00
        E 0 80 60 00
        E 120 90 18 60
        E 0 90 19 60
        E 0 90 54 60
        E 0 90 60 60
        E 120 80 18 00
        E 0 80 54 00
        E 0 80 60 00
        E 120 80 19 00
        E 0 90 1a 60
        E 0 90 3d 60
        E 0 90 49 60
        E 0 90 55 60
        E 0 90 61 60
        E 120 80 1a 00
        E 0 80 3d 00
        E 0 80 49 00
        E 0 80 55 00
        E 0 80 61 00
        E 120 90 19 60
        E 0 90 1a 60
        E 0 90 55 60
        E 0 90 61 60
        E 120 80 1a 00
        E 0 80 55 00
        E 0 80 61 00
        E 120 80 19 00
        E 240 90 18 60
        E 0 90 19 60
        E 0 90 3c 60
        E 0 90 48 60
        E 0 90 54 60
        E 0 90 60 60
        E 120 80 18 00
        E 0 80 3c 00
        E 0 80 48 00
        E 0 80 54 00
        E 0 80 60 00
        E 120 80 19 00
        E 240 90 19 60
        E 0 90 1a 60
        E 0 90 55 60
        E 0 90 61 60
        E 120 80 1a 00
        E 0 80 55 00
        E 0 80 61 00
        E 120 80 78 00
        E 0 80 79 00
        E 0 80 7a 00
        E 0 80 7b 00
        E 0 80 7c 00
        E 0 80 19 00
        E 0 90 18 60
        E 0 90 3c 60
        E 0 90 48 60
        E 0 90 54 60
        E 0 90 60 60
        E 120 80 18 00
        E 0 80 3c 00
        E 0 80 48 00
        E 0 80 54 00
        E 0 80 60 00
        E 120 90 18 60
        E 0 90 19 60
        E 0 90 54 60
        E 0 90 60 60
        E 120 80 18 00
        E 0 80 54 00
        E 0 80 60 00
        E 120 80 19 00
        E 0 90 1a 60
        E 0 90 3d 60
        E 0 90 49 60
        E 0 90 55 60
        E 0 90 61 60
        E 120 80 1a 00
        E 0 80 3d 00
        E 0 80 49 00
        E 0 80 55 00
        E 0 80 61 00
        E 120 90 19 60
        E 0 90 1a 60
        E 0 90 55 60
        E 0 90 61 60
        E 120 80 1a 00
        E 0 80 55 00
        E 0 80 61 00
        E 120 80 19 00
        E 240 90 18 60
        E 0 90 19 60
        E 0 90 3c 60
        E 0 90 48 60
        E 0 90 54 60
        E 0 90 60 60
        E 120 80 18 00
        E 0 80 3c 00
        E 0 80 48 00
        E 0 80 54 00
        E 0 80 60 00
        E 120 80 19 00
        E 240 90 19 60
        E 0 90 1a 60
        E 0 90 55 60
        E 0 90 61 60
        E 120 80 1a 00
        E 0 80 55 00
        E 0 80 61 00
        E 120 80 19 00
        E 0 90 18 60
        E 0 90 3c 60
        E 0 90 48 60
        E 0 90 54 60
        E 0 90 60 60
        E 120 80 18 00
        E 0 80 3c 00
        E 0 80 48 00
        E 0 80 54 00
        E 0 80 60 00
        E 120 90 18 60
        E 0 90 19 60
        E 0 90 54 60
        E 0 90 60 60
        E 120 80 18 00
        E 0 80 54 00
        E 0 80 60 00
        E 120 80 19 00
        E 0 90 1a 60
        E 0 90 3d 60
        E 0 90 49 60
        E 0 90 55 60
        E 0 90 61 60
        E 120 80 1a 00
        E 0 80 3d 00
        E 0 80 49 00
        E 0 80 55 00
        E 0 80 61 00
        E 120 90 19 60
        E 0 90 1a 60
        E 0 90 55 60
        E 0 90 61 60
        E 120 80 1a 00
        E 0 80 55 00
        E 0 80 61 00
        E 120 80 19 00
        E 240 90 18 60
        E 0 90 19 60
        E 0 90 3c 60
        E 0 90 48 60
        E 0 90 54 60
        E 0 90 60 60
        E 120 80 18 00
        E 0 80 3c 00
        E 0 80 48 00
        E 0 80 54 00
        E 0 80 60 00
        E 120 80 19 00
        E 240 90 19 60
        E 0 90 1a 60
        E 0 90 55 60
        E 0 90 61 60
        E 120 80 1a 00
        E 0 80 55 00
        E 0 80 61 00
        E 120 80 19 00
        E 0 90 18 60
        E 0 90 3c 60
        E 0 90 48 60
        E 0 90 54 60
        E 0 90 60 60
        E 0 90 74 60
        E 120 80 18 00
        E 0 80 3c 00
        E 0 80 48 00
        E 0 80 54 00
        E 0 80 60 00
        E 120 90 18 60
        E 0 90 19 60
        E 0 90 54 60
        E 0 90 60 60
        E 120 80 18 00
        E 0 80 54 00
        E 0 80 60 00
        E 120 80 19 00
        E 0 90 1a 60
        E 0 90 3d 60
        E 0 90 49 60
        E 0 90 55 60
        E 0 90 61 60
        E 120 80 1a 00
        E 0 80 3d 00
        E 0 80 49 00
        E 0 80 55 00
        E 0 80 61 00
        E 120 90 19 60
        E 0 90 1a 60
        E 0 90 55 60
        E 0 90 61 60
        E 120 80 1a 00
        E 0 80 55 00
        E 0 80 61 00
        E 120 80 19 00
        E 240 90 18 60
        E 0 90 19 60
        E 0 90 3c 60
        E 0 90 48 60
        E 0 90 54 60
        E 0 90 60 60
        E 120 80 18 00
        E 0 80 3c 00
        E 0 80 48 00
        E 0 80 54 00
        E 0 80 60 00
        E 120 80 19 00
        E 240 90 19 60
        E 0 90 1a 60
        E 0 90 55 60
        E 0 90 61 60
        E 120 80 1a 00
        E 0 80 55 00
        E 0 80 61 00
        E 120 80 74 00
        E 0 80 19 00
        E 0 90 18 60
        E 0 90 3c 60
        E 0 90 48 60
        E 0 90 54 60
        E 0 90 60 60
        E 0 90 78 60
        E 0 90 79 60
        E 0 90 7a 60
        E 0 90 7b 60
        E 0 90 7c 60
        E 120 80 18 00
        E 0 80 3c 00
        E 0 80 48 00
        E 0 80 54 00
        E 0 80 60 00
        E 120 90 18 60
        E 0 90 19 60
        E 0 90 54 60
        E 0 90 60 60
        E 120 80 18 00
        E 0 80 54 00
        E 0 80 60 00
        E 120 80 19 00
        E 0 90 1a 60
        E 0 90 3d 60
        E 0 90 49 60
        E 0 90 55 60
        E 0 90 61 60
        E 120 80 1a 00
        E 0 80 3d 00
        E 0 80 49 00
        E 0 80 55 00
        E 0 80 61 00
        E 120 90 18 60
        E 0 90 19 60
        E 0 90 54 60
        E 0 90 60 60
        E 120 80 18 00
        E 0 80 54 00
        E 0 80 60 00
        E 120 80 19 00
        E 0 90 1a 60
        E 0 90 3d 60
        E 0 90 49 60
        E 0 90 55 60
        E 0 90 61 60
        E 120 80 1a 00
        E 0 80 3d 00
        E 0 80 49 00
        E 0 80 55 00
        E 0 80 61 00
        E 120 90 18 60
        E 0 90 19 60
        E 0 90 54 60
        E 0 90 60 60
        E 120 80 18 00
        E 0 80 54 00
        E 0 80 60 00
        E 120 80 19 00
        E 240 90 19 60
        E 0 90 1a 60
        E 0 90 55 60
        E 0 90 61 60
        E 120 80 1a 00
        E 0 80 55 00
        E 0 80 61 00
        E 120 80 78 00
        E 0 80 79 00
        E 0 80 7a 00
        E 0 80 7b 00
        E 0 80 7c 00
        E 0 80 19 00
        E 0 90 18 60
        E 0 90 26 60
        E 0 90 40 60
        E 0 90 48 60
        E 0 90 4c 60
        E 0 90 54 60
        E 0 90 58 60
        E 0 90 60 60
        E 0 90 64 60
        E 120 80 18 00
        E 0 80 26 00
        E 0 80 40 00
        E 0 80 48 00
        E 0 80 4c 00
        E 0 80 54 00
        E 0 80 58 00
        E 0 80 60 00
        E 0 80 64 00
        E 120 90 18 60
        E 0 90 19 60
        E 0 90 54 60
        E 0 90 60 60
        E 120 80 18 00
        E 0 80 54 00
        E 0 80 60 00
        E 120 80 19 00
        E 0 90 1a 60
        E 0 90 3d 60
        E 0 90 49 60
        E 0 90 55 60
        E 0 90 61 60
        E 120 80 1a 00
        E 0 80 3d 00
        E 0 80 49 00
        E 0 80 55 00
        E 0 80 61 00
        E 120 90 18 60
        E 0 90 19 60
        E 0 90 54 60
        E 0 90 60 60
        E 120 80 18 00
        E 0 80 54 00
        E 0 80 60 00
        E 120 80 19 00
        E 240 90 18 60
        E 0 90 19 60
        E 0 90 54 60
        E 0 90 60 60
        E 120 80 18 00
        E 0 80 54 00
        E 0 80 60 00
        E 120 80 19 00
        E 0 90 1a 60
        E 0 90 3d 60
        E 0 90 49 60
        E 0 90 55 60
        E 0 90 61 60
        E 120 80 1a 00
        E 0 80 3d 00
        E 0 80 49 00
        E 0 80 55 00
        E 0 80 61 00
        E 120 90 18 60
        E 0 90 19 60
        E 0 90 54 60
        E 0 90 60 60
        E 120 80 18 00
        E 0 80 54 00
        E 0 80 60 00
        E 120 80 19 00
        E 240 90 18 60
        E 0 90 19 60
        E 0 90 54 60
        E 0 90 60 60
        E 120 80 18 00
        E 0 80 54 00
        E 0 80 60 00
        E 120 80 19 00
        E 0 90 1a 60
        E 0 90 3d 60
        E 0 90 49 60
        E 0 90 55 60
        E 0 90 61 60
        E 120 80 1a 00
        E 0 80 3d 00
        E 0 80 49 00
        E 0 80 55 00
        E 0 80 61 00
        E 120 90 19 60
        E 0 90 1a 60
        E 0 90 55 60
        E 0 90 61 60
        E 120 80 1a 00
        E 0 80 55 00
        E 0 80 61 00
        E 120 80 19 00
        E 0 90 18 60
        E 0 90 3c 60
        E 0 90 48 60
        E 0 90 54 60
        E 0 90 60 60
        E 120 80 18 00
        E 0 80 3c 00
        E 0 80 48 00
        E 0 80 54 00
        E 0 80 60 00
        E 120 90 18 60
        E 0 90 19 60
        E 0 90 54 60
        E 0 90 60 60
        E 120 80 18 00
        E 0 80 54 00
        E 0 80 60 00
        E 120 80 19 00
        E 0 90 1a 60
        E 0 90 3d 60
        E 0 90 49 60
        E 0 90 55 60
        E 0 90 61 60
        E 120 80 1a 00
        E 0 80 3d 00
        E 0 80 49 00
        E 0 80 55 00
        E 0 80 61 00
        E 120 90 18 60
        E 0 90 19 60
        E 0 90 54 60
        E 0 90 60 60
        E 120 80 18 00
        E 0 80 54 00
        E 0 80 60 00
        E 120 80 19 00
        E 0 90 18 60
        E 0 90 3c 60
        E 0 90 48 60
        E 0 90 54 60
        E 0 90 60 60
        E 120 80 18 00
        E 0 80 3c 00
        E 0 80 48 00
        E 0 80 54 00
        E 0 80 60 00
        E 120 90 18 60
        E 0 90 19 60
        E 0 90 54 60
        E 0 90 60 60
        E 120 80 18 00
        E 0 80 54 00
        E 0 80 60 00
        E 120 80 19 00
        E 0 90 1a 60
        E 0 90 3d 60
        E 0 90 49 60
        E 0 90 55 60
        E 0 90 61 60
        E 120 80 1a 00
        E 0 80 3d 00
        E 0 80 49 00
        E 0 80 55 00
        E 0 80 61 00
        E 120 90 18 60
        E 0 90 19 60
        E 0 90 54 60
        E 0 90 60 60
        E 120 80 18 00
        E 0 80 54 00
        E 0 80 60 00
        E 120 80 19 00
        E 240 90 18 60
        E 0 90 19 60
        E 0 90 54 60
        E 0 90 60 60
        E 120 80 18 00
        E 0 80 54 00
        E 0 80 60 00
        E 120 80 19 00
        E 0 90 1a 60
        E 0 90 3d 60
        E 0 90 49 60
        E 0 90 55 60
        E 0 90 61 60
        E 120 80 1a 00
        E 0 80 3d 00
        E 0 80 49 00
        E 0 80 55 00
        E 0 80 61 00
        E 120 90 18 60
        E 0 90 19 60
        E 0 90 54 60
        E 0 90 60 60
        E 120 80 18 00
        E 0 80 54 00
        E 0 80 60 00
        E 120 80 19 00
        E 0 90 78 60
        E 0 90 79 60
        E 0 90 7a 60
        E 0 90 7b 60
        E 0 90 7c 60
        E 240 90 18 60
        E 0 90 19 60
        E 0 90 54 60
        E 0 90 60 60
        E 120 80 18 00
        E 0 80 54 00
        E 0 80 60 00
        E 120 80 19 00
        E 0 90 1a 60
        E 0 90 3d 60
        E 0 90 49 60
        E 0 90 55 60
        E 0 90 61 60
        E 120 80 1a 00
        E 0 80 3d 00
        E 0 80 49 00
        E 0 80 55 00
        E 0 80 61 00
        E 120 90 18 60
        E 0 90 19 60
        E 0 90 54 60
        E 0 90 60 60
        E 120 80 18 00
        E 0 80 54 00
        E 0 80 60 00
        E 120 80 19 00
        E 0 90 1a 60
        E 0 90 3d 60
        E 0 90 49 60
        E 0 90 55 60
        E 0 90 61 60
        E 120 80 1a 00
        E 0 80 3d 00
        E 0 80 49 00
        E 0 80 55 00
        E 0 80 61 00
        E 0 90 1c 60
        E 0 90 61 60
        E 120 80 1c 00
        E 0 80 61 00
        E 0 90 18 60
        E 0 90 19 60
        E 0 90 54 60
        E 0 90 60 60
        E 120 80 18 00
        E 0 80 54 00
        E 0 80 60 00
        E 120 80 19 00
        E 0 90 1a 60
        E 0 90 3d 60
        E 0 90 49 60
        E 0 90 55 60
        E 0 90 61 60
        E 120 80 1a 00
        E 0 80 3d 00
        E 0 80 49 00
        E 0 80 55 00
        E 0 80 61 00
        E 120 90 18 60
        E 0 90 19 60
        E 0 90 54 60
        E 0 90 60 60
        E 120 80 18 00
        E 0 80 54 00
        E 0 80 60 00
        E 120 80 78 00
        E 0 80 79 00
        E 0 80 7a 00
        E 0 80 7b 00
        E 0 80 7c 00
        E 0 80 19 00
        E 0 90 18 60
        E 0 90 3c 60
        E 0 90 48 60
        E 0 90 54 60
        E 0 90 60 60
        E 120 80 18 00
        E 0 80 3c 00
        E 0 80 48 00
        E 0 80 54 00
        E 0 80 60 00
        E 120 90 18 60
        E 0 90 19 60
        E 0 90 54 60
        E 0 90 60 60
        E 120 80 18 00
        E 0 80 54 00
        E 0 80 60 00
        E 120 80 19 00
        E 0 90 1a 60
        E 0 90 3d 60
        E 0 90 49 60
        E 0 90 55 60
        E 0 90 61 60
        E 120 80 1a 00
        E 0 80 3d 00
        E 0 80 49 00
        E 0 80 55 00
        E 0 80 61 00
        E 120 90 18 60
        E 0 90 19 60
        E 0 90 54 60
        E 0 90 60 60
        E 120 80 18 00
        E 0 80 54 00
        E 0 80 60 00
        E 120 80 19 00
        E 240 90 18 60
        E 0 90 19 60
        E 0 90 54 60
        E 0 90 60 60
        E 120 80 18 00
        E 0 80 54 00
        E 0 80 60 00
        E 120 80 19 00
        E 0 90 1a 60
        E 0 90 3d 60
        E 0 90 49 60
        E 0 90 55 60
        E 0 90 61 60
        E 120 80 1a 00
        E 0 80 3d 00
        E 0 80 49 00
        E 0 80 55 00
        E 0 80 61 00
        E 120 90 18 60
        E 0 90 19 60
        E 0 90 54 60
        E 0 90 60 60
        E 120 80 18 00
        E 0 80 54 00
        E 0 80 60 00
        E 120 80 19 00
        E 240 90 18 60
        E 0 90 19 60
        E 0 90 54 60
        E 0 90 60 60
        E 120 80 18 00
        E 0 80 54 00
        E 0 80 60 00
        E 120 80 19 00
        E 0 90 1a 60
        E 0 90 3d 60
        E 0 90 49 60
        E 0 90 55 60
        E 0 90 61 60
        E 120 80 1a 00
        E 0 80 3d 00
        E 0 80 49 00
        E 0 80 55 00
        E 0 80 61 00
        E 120 90 19 60
        E 0 90 1a 60
        E 0 90 55 60
        E 0 90 61 60
        E 120 80 1a 00
        E 0 80 55 00
        E 0 80 61 00
        E 120 80 19 00
        E 0 90 18 60
        E 0 90 3c 60
        E 0 90 48 60
        E 0 90 54 60
        E 0 90 60 60
        E 120 80 18 00
        E 0 80 3c 00
        E 0 80 48 00
        E 0 80 54 00
        E 0 80 60 00
        E 120 90 18 60
        E 0 90 19 60
        E 0 90 54 60
        E 0 90 60 60
        E 120 80 18 00
        E 0 80 54 00
        E 0 80 60 00
        E 120 80 19 00
        E 0 90 1a 60
        E 0 90 3d 60
        E 0 90 49 60
        E 0 90 55 60
        E 0 90 61 60
        E 120 80 1a 00
        E 0 80 3d 00
        E 0 80 49 00
        E 0 80 55 00
        E 0 80 61 00
        E 120 90 18 60
        E 0 90 19 60
        E 0 90 54 60
        E 0 90 60 60
        E 120 80 18 00
        E 0 80 54 00
        E 0 80 60 00
        E 120 80 19 00
        E 0 90 18 60
        E 0 90 3c 60
        E 0 90 48 60
        E 0 90 54 60
        E 0 90 60 60
        E 120 80 18 00
        E 0 80 3c 00
        E 0 80 48 00
        E 0 80 54 00
        E 0 80 60 00
        E 120 90 18 60
        E 0 90 19 60
        E 0 90 54 60
        E 0 90 60 60
        E 120 80 18 00
        E 0 80 54 00
        E 0 80 60 00
        E 120 80 19 00
        E 0 90 1a 60
        E 0 90 3d 60
        E 0 90 49 60
        E 0 90 55 60
        E 0 90 61 60
        E 120 80 1a 00
        E 0 80 3d 00
        E 0 80 49 00
        E 0 80 55 00
        E 0 80 61 00
        E 120 90 18 60
        E 0 90 19 60
        E 0 90 54 60
        E 0 90 60 60
        E 120 80 18 00
        E 0 80 54 00
        E 0 80 60 00
        E 120 80 19 00
        E 240 90 18 60
        E 0 90 19 60
        E 0 90 54 60
        E 0 90 60 60
        E 120 80 18 00
        E 0 80 54 00
        E 0 80 60 00
        E 120 80 19 00
        E 0 90 1a 60
        E 0 90 3d 60
        E 0 90 49 60
        E 0 90 55 60
        E 0 90 61 60
        E 120 80 1a 00
        E 0 80 3d 00
        E 0 80 49 00
        E 0 80 55 00
        E 0 80 61 00
        E 120 90 18 60
        E 0 90 19 60
        E 0 90 54 60
        E 0 90 60 60
        E 120 80 18 00
        E 0 80 54 00
        E 0 80 60 00
        E 120 80 19 00
        E 0 90 31 60
        E 0 90 3f 60
        E 0 90 4b 60
        E 0 90 57 60
        E 0 90 63 60
        E 0 90 6f 60
        E 0 90 74 60
        E 120 80 31 00
        E 0 80 3f 00
        E 0 80 4b 00
        E 0 80 57 00
        E 0 80 63 00
        E 0 80 6f 00
        E 120 90 18 60
        E 0 90 19 60
        E 0 90 54 60
        E 0 90 60 60
        E 120 80 18 00
        E 0 80 54 00
        E 0 80 60 00
        E 120 80 19 00
        E 0 90 1a 60
        E 0 90 3d 60
        E 0 90 49 60
        E 0 90 55 60
        E 0 90 61 60
        E 120 80 1a 00
        E 0 80 3d 00
        E 0 80 49 00
        E 0 80 55 00
        E 0 80 61 00
        E 120 90 18 60
        E 0 90 19 60
        E 0 90 54 60
        E 0 90 60 60
        E 120 80 18 00
        E 0 80 54 00
        E 0 80 60 00
        E 120 80 19 00
        E 0 90 1a 60
        E 0 90 3d 60
        E 0 90 49 60
        E 0 90 55 60
        E 0 90 61 60
        E 120 80 1a 00
        E 0 80 3d 00
        E 0 80 49 00
        E 0 80 55 00
        E 0 80 61 00
        E 120 90 18 60
        E 0 90 19 60
        E 0 90 54 60
        E 0 90 60 60
        E 120 80 18 00
        E 0 80 54 00
        E 0 80 60 00
        E 120 80 19 00
        E 240 90 1a 60
        E 0 90 55 60
        E 0 90 61 60
        E 120 80 1a 00
        E 0 80 55 00
        E 0 80 61 00
        E 120 90 18 60
        E 0 90 19 60
        E 0 90 1f 60
        E 0 90 3e 60
        E 0 90 48 60
        E 0 90 4a 60
        E 0 90 54 60
        E 0 90 56 60
        E 0 90 60 60
        E 0 90 62 60
        E 120 80 74 00
        E 0 80 18 00
        E 0 80 1f 00
        E 0 80 3e 00
        E 0 80 48 00
        E 0 80 4a 00
        E 0 80 54 00
        E 0 80 56 00
        E 0 80 60 00
        E 0 80 62 00
        E 120 90 18 60
        E 0 90 54 60
        E 0 90 60 60
        E 120 80 18 00
        E 0 80 54 00
        E 0 80 60 00
        E 120 80 19 00
        E 0 90 1a 60
        E 0 90 3d 60
        E 0 90 49 60
        E 0 90 55 60
        E 0 90 61 60
        E 120 80 1a 00
        E 0 80 3d 00
        E 0 80 49 00
        E 0 80 55 00
        E 0 80 61 00
        E 120 90 19 60
        E 0 90 1a 60
        E 0 90 55 60
        E 0 90 61 60
        E 120 80 1a 00
        E 0 80 55 00
        E 0 80 61 00
        E 120 80 19 00
        E 240 90 18 60
        E 0 90 19 60
        E 0 90 3c 60
        E 0 90 48 60
        E 0 90 54 60
        E 0 90 60 60
        E 120 80 18 00
        E 0 80 3c 00
        E 0 80 48 00
        E 0 80 54 00
        E 0 80 60 00
        E 120 80 19 00
        E 240 90 19 60
        E 0 90 1a 60
        E 0 90 55 60
        E 0 90 61 60
        E 120 80 1a 00
        E 0 80 55 00
        E 0 80 61 00
        E 120 80 19 00
        E 0 90 18 60
        E 0 90 3c 60
        E 0 90 48 60
        E 0 90 54 60
        E 0 90 60 60
        E 120 80 18 00
        E 0 80 3c 00
        E 0 80 48 00
        E 0 80 54 00
        E 0 80 60 00
        E 120 90 18 60
        E 0 90 19 60
        E 0 90 54 60
        E 0 90 60 60
        E 120 80 18 00
        E 0 80 54 00
        E 0 80 60 00
        E 120 80 19 00
        E 0 90 1a 60
        E 0 90 3d 60
        E 0 90 49 60
        E 0 90 55 60
        E 0 90 61 60
        E 120 80 1a 00
        E 0 80 3d 00
        E 0 80 49 00
        E 0 80 55 00
        E 0 80 61 00
        E 120 90 19 60
        E 0 90 1a 60
        E 0 90 55 60
        E 0 90 61 60
        E 120 80 1a 00
        E 0 80 55 00
        E 0 80 61 00
        E 120 80 19 00
        E 240 90 18 60
        E 0 90 19 60
        E 0 90 3c 60
        E 0 90 48 60
        E 0 90 54 60
        E 0 90 60 60
        E 120 80 18 00
        E 0 80 3c 00
        E 0 80 48 00
        E 0 80 54 00
        E 0 80 60 00
        E 120 80 19 00
        E 240 90 19 60
        E 0 90 1a 60
        E 0 90 55 60
        E 0 90 61 60
        E 120 80 1a 00
        E 0 80 55 00
        E 0 80 61 00
        E 120 80 19 00
        E 0 90 18 60
        E 0 90 3c 60
        E 0 90 48 60
        E 0 90 54 60
        E 0 90 60 60
        E 120 80 18 00
        E 0 80 3c 00
        E 0 80 48 00
        E 0 80 54 00
        E 0 80 60 00
        E 120 90 18 60
        E 0 90 19 60
        E 0 90 54 60
        E 0 90 60 60
        E 120 80 18 00
        E 0 80 54 00
        E 0 80 60 00
        E 120 80 19 00
        E 0 90 1a 60
        E 0 90 3d 60
        E 0 90 49 60
        E 0 90 55 60
        E 0 90 61 60
        E 120 80 1a 00
        E 0 80 3d 00
        E 0 80 49 00
        E 0 80 55 00
        E 0 80 61 00
        E 120 90 19 60
        E 0 90 1a 60
        E 0 90 55 60
        E 0 90 61 60
        E 120 80 1a 00
        E 0 80 55 00
        E 0 80 61 00
        E 120 80 19 00
        E 240 90 18 60
        E 0 90 19 60
        E 0 90 3c 60
        E 0 90 48 60
        E 0 90 54 60
        E 0 90 60 60
        E 120 80 18 00
        E 0 80 3c 00
        E 0 80 48 00
        E 0 80 54 00
        E 0 80 60 00
        E 120 80 19 00
        E 240 90 19 60
        E 0 90 1a 60
        E 0 90 55 60
        E 0 90 61 60
        E 120 80 1a 00
        E 0 80 55 00
        E 0 80 61 00
        E 120 80 19 00
        E 0 90 18 60
        E 0 90 3c 60
        E 0 90 48 60
        E 0 90 54 60
        E 0 90 60 60
        E 0 90 78 60
        E 0 90 79 60
        E 0 90 7a 60
        E 0 90 7b 60
        E 0 90 7c 60
        E 120 80 18 00
        E 0 80 3c 00
        E 0 80 48 00
        E 0 80 54 00
        E 0 80 60 00
        E 120 90 18 60
        E 0 90 19 60
        E 0 90 54 60
        E 0 90 60 60
        E 120 80 18 00
        E 0 80 54 00
        E 0 80 60 00
        E 120 80 19 00
        E 0 90 1a 60
        E 0 90 3d 60
        E 0 90 49 60
        E 0 90 55 60
        E 0 90 61 60
        E 120 80 1a 00
        E 0 80 3d 00
        E 0 80 49 00
        E 0 80 55 00
        E 0 80 61 00
        E 120 90 19 60
        E 0 90 1a 60
        E 0 90 55 60
        E 0 90 61 60
        E 120 80 1a 00
        E 0 80 55 00
        E 0 80 61 00
        E 120 80 19 00
        E 240 90 18 60
        E 0 90 19 60
        E 0 90 3c 60
        E 0 90 48 60
        E 0 90 54 60
        E 0 90 60 60
        E 120 80 18 00
        E 0 80 3c 00
        E 0 80 48 00
        E 0 80 54 00
        E 0 80 60 00
        E 120 80 19 00
        E 240 90 19 60
        E 0 90 1a 60
        E 0 90 55 60
        E 0 90 61 60
        E 120 80 1a 00
        E 0 80 55 00
        E 0 80 61 00
        E 120 80 78 00
        E 0 80 79 00
        E 0 80 7a 00
        E 0 80 7b 00
        E 0 80 7c 00
        E 0 80 19 00
        E 0 90 18 60
        E 0 90 3c 60
        E 0 90 48 60
        E 0 90 54 60
        E 0 90 60 60
        E 120 80 18 00
        E 0 80 3c 00
        E 0 80 48 00
        E 0 80 54 00
        E 0 80 60 00
        E 120 90 18 60
        E 0 90 19 60
        E 0 90 54 60
        E 0 90 60 60
        E 120 80 18 00
        E 0 80 54 00
        E 0 80 60 00
        E 120 80 19 00
        E 0 90 1a 60
        E 0 90 3d 60
        E 0 90 49 60
        E 0 90 55 60
        E 0 90 61 60
        E 120 80 1a 00
        E 0 80 3d 00
        E 0 80 49 00
        E 0 80 55 00
        E 0 80 61 00
        E 120 90 19 60
        E 0 90 1a 60
        E 0 90 55 60
        E 0 90 61 60
        E 120 80 1a 00
        E 0 80 55 00
        E 0 80 61 00
        E 120 80 19 00
        E 240 90 18 60
        E 0 90 19 60
        E 0 90 3c 60
        E 0 90 48 60
        E 0 90 54 60
        E 0 90 60 60
        E 120 80 18 00
        E 0 80 3c 00
        E 0 80 48 00
        E 0 80 54 00
        E 0 80 60 00
        E 120 80 19 00
        E 240 90 19 60
        E 0 90 1a 60
        E 0 90 55 60
        E 0 90 61 60
        E 120 80 1a 00
        E 0 80 55 00
        E 0 80 61 00
        E 120 80 19 00
        E 0 90 18 60
        E 0 90 3c 60
        E 0 90 48 60
        E 0 90 54 60
        E 0 90 60 60
        E 120 80 18 00
        E 0 80 3c 00
        E 0 80 48 00
        E 0 80 54 00
        E 0 80 60 00
        E 120 90 18 60
        E 0 90 19 60
        E 0 90 54 60
        E 0 90 60 60
        E 120 80 18 00
        E 0 80 54 00
        E 0 80 60 00
        E 120 80 19 00
        E 0 90 1a 60
        E 0 90 3d 60
        E 0 90 49 60
        E 0 90 55 60
        E 0 90 61 60
        E 120 80 1a 00
        E 0 80 3d 00
        E 0 80 49 00
        E 0 80 55 00
        E 0 80 61 00
        E 120 90 19 60
        E 0 90 1a 60
        E 0 90 55 60
        E 0 90 61 60
        E 120 80 1a 00
        E 0 80 55 00
        E 0 80 61 00
        E 120 80 19 00
        E 240 90 18 60
        E 0 90 19 60
        E 0 90 3c 60
        E 0 90 48 60
        E 0 90 54 60
        E 0 90 60 60
        E 120 80 18 00
        E 0 80 3c 00
        E 0 80 48 00
        E 0 80 54 00
        E 0 80 60 00
        E 120 80 19 00
        E 240 90 19 60
        E 0 90 1a 60
        E 0 90 55 60
        E 0 90 61 60
        E 120 80 1a 00
        E 0 80 55 00
        E 0 80 61 00
        E 120 80 19 00
        E 0 90 18 60
        E 0 90 3c 60
        E 0 90 48 60
        E 0 90 54 60
        E 0 90 60 60
        E 120 80 18 00
        E 0 80 3c 00
        E 0 80 48 00
        E 0 80 54 00
        E 0 80 60 00
        E 120 90 18 60
        E 0 90 19 60
        E 0 90 54 60
        E 0 90 60 60
        E 120 80 18 00
        E 0 80 54 00
        E 0 80 60 00
        E 120 80 19 00
        E 0 90 1a 60
        E 0 90 3d 60
        E 0 90 49 60
        E 0 90 55 60
        E 0 90 61 60
        E 120 80 1a 00
        E 0 80 3d 00
        E 0 80 49 00
        E 0 80 55 00
        E 0 80 61 00
        E 120 90 19 60
        E 0 90 1a 60
        E 0 90 55 60
        E 0 90 61 60
        E 120 80 1a 00
        E 0 80 55 00
        E 0 80 61 00
        E 120 80 19 00
        E 240 90 18 60
        E 0 90 19 60
        E 0 90 3c 60
        E 0 90 48 60
        E 0 90 54 60
        E 0 90 60 60
        E 120 80 18 00
        E 0 80 3c 00
        E 0 80 48 00
        E 0 80 54 00
        E 0 80 60 00
        E 120 80 19 00
        E 240 90 1a 60
        E 0 90 55 60
        E 0 90 61 60
        E 120 80 1a 00
        E 0 80 55 00
        E 0 80 61 00
        E 120 90 18 60
        E 0 90 3c 60
        E 0 90 48 60
        E 0 90 54 60
        E 0 90 60 60
        E 0 90 78 60
        E 0 90 79 60
        E 0 90 7a 60
        E 0 90 7b 60
        E 0 90 7c 60
        E 120 80 18 00
        E 0 80 3c 00
        E 0 80 48 00
        E 0 80 54 00
        E 0 80 60 00
        E 120 90 18 60
        E 0 90 54 60
        E 0 90 60 60
        E 120 80 18 00
        E 0 80 54 00
        E 0 80 60 00
        E 120 90 18 60
        E 0 90 3c 60
        E 0 90 48 60
        E 0 90 54 60
        E 0 90 60 60
        E 120 80 18 00
        E 0 80 3c 00
        E 0 80 48 00
        E 0 80 54 00
        E 0 80 60 00
        E 120 90 18 60
        E 0 90 54 60
        E 0 90 60 60
        E 120 80 18 00
        E 0 80 54 00
        E 0 80 60 00
        E 120 90 18 60
        E 0 90 1b 60
        E 0 90 3d 60
        E 0 90 49 60
        E 0 90 54 60
        E 0 90 55 60
        E 0 90 60 60
        E 0 90 61 60
        E 120 80 18 00
        E 0 80 1b 00
        E 0 80 3d 00
        E 0 80 49 00
        E 0 80 54 00
        E 0 80 55 00
        E 0 80 60 00
        E 0 80 61 00
        E 0 90 1a 60
        E 0 90 61 60
        E 120 80 1a 00
        E 0 80 61 00
        E 0 90 18 60
        E 0 90 54 60
        E 0 90 60 60
        E 120 80 18 00
        E 0 80 54 00
        E 0 80 60 00
        E 0 90 1a 60
        E 0 90 61 60
        E 120 80 1a 00
        E 0 80 61 00
        E 0 90 18 60
        E 0 90 1b 60
        E 0 90 3d 60
        E 0 90 49 60
        E 0 90 54 60
        E 0 90 55 60
        E 0 90 60 60
        E 0 90 61 60
        E 120 80 18 00
        E 0 80 1b 00
        E 0 80 3d 00
        E 0 80 49 00
        E 0 80 54 00
        E 0 80 55 00
        E 0 80 60 00
        E 0 80 61 00
        E 120 90 18 60
        E 0 90 1a 60
        E 0 90 54 60
        E 0 90 55 60
        E 0 90 60 60
        E 0 90 61 60
        E 120 80 18 00
        E 0 80 1a 00
        E 0 80 54 00
        E 0 80 55 00
        E 0 80 60 00
        E 0 80 61 00
        <X 120 0
          /wFbaW50ZW5zZV0=
        >
        E 0 80 78 00
        E 0 80 79 00
        E 0 80 7a 00
        E 0 80 7b 00
        E 0 80 7c 00
        E 0 90 18 60
        E 0 90 26 60
        E 0 90 40 60
        E 0 90 48 60
        E 0 90 4c 60
        E 0 90 54 60
        E 0 90 58 60
        E 0 90 60 60
        E 0 90 64 60
        E 120 80 18 00
        E 0 80 26 00
        E 0 80 40 00
        E 0 80 48 00
        E 0 80 4c 00
        E 0 80 54 00
        E 0 80 58 00
        E 0 80 60 00
        E 0 80 64 00
        E 120 90 18 60
        E 0 90 19 60
        E 0 90 2a 60
        E 0 90 54 60
        E 0 90 57 60
        E 0 90 60 60
        E 0 90 63 60
        E 120 80 18 00
        E 0 80 2a 00
        E 0 80 54 00
        E 0 80 57 00
        E 0 80 60 00
        E 0 80 63 00
        E 120 80 19 00
        E 0 90 1a 60
        E 0 90 2a 60
        E 0 90 3d 60
        E 0 90 3f 60
        E 0 90 49 60
        E 0 90 4b 60
        E 0 90 55 60
        E 0 90 57 60
        E 0 90 61 60
        E 0 90 63 60
        E 120 80 1a 00
        E 0 80 2a 00
        E 0 80 3d 00
        E 0 80 3f 00
        E 0 80 49 00
        E 0 80 4b 00
        E 0 80 55 00
        E 0 80 57 00
        E 0 80 61 00
        E 0 80 63 00
        E 120 90 18 60
        E 0 90 19 60
        E 0 90 2a 60
        E 0 90 54 60
        E 0 90 57 60
        E 0 90 60 60
        E 0 90 63 60
        E 120 80 18 00
        E 0 80 2a 00
        E 0 80 54 00
        E 0 80 57 00
        E 0 80 60 00
        E 0 80 63 00
        E 120 80 19 00
        E 0 90 2a 60
        E 0 90 3f 60
        E 0 90 4b 60
        E 0 90 57 60
        E 0 90 63 60
        E 120 80 2a 00
        E 0 80 3f 00
        E 0 80 4b 00
        E 0 80 57 00
        E 0 80 63 00
        E 120 90 18 60
        E 0 90 19 60
        E 0 90 2a 60
        E 0 90 54 60
        E 0 90 57 60
        E 0 90 60 60
        E 0 90 63 60
        E 120 80 18 00
        E 0 80 2a 00
        E 0 80 54 00
        E 0 80 57 00
        E 0 80 60 00
        E 0 80 63 00
        E 120 80 19 00
        E 0 90 1a 60
        E 0 90 2a 60
        E 0 90 3d 60
        E 0 90 3f 60
        E 0 90 49 60
        E 0 90 4b 60
        E 0 90 55 60
        E 0 90 57 60
        E 0 90 61 60
        E 0 90 63 60
        E 120 80 1a 00
        E 0 80 2a 00
        E 0 80 3d 00
        E 0 80 3f 00
        E 0 80 49 00
        E 0 80 4b 00
        E 0 80 55 00
        E 0 80 57 00
        E 0 80 61 00
        E 0 80 63 00
        E 120 90 18 60
        E 0 90 19 60
        E 0 90 2a 60
        E 0 90 54 60
        E 0 90 57 60
        E 0 90 60 60
        E 0 90 63 60
        E 120 80 18 00
        E 0 80 2a 00
        E 0 80 54 00
        E 0 80 57 00
        E 0 80 60 00
        E 0 80 63 00
        E 120 80 19 00
        E 0 90 2a 60
        E 0 90 3f 60
        E 0 90 4b 60
        E 0 90 57 60
        E 0 90 63 60
        E 120 80 2a 00
        E 0 80 3f 00
        E 0 80 4b 00
        E 0 80 57 00
        E 0 80 63 00
        E 120 90 18 60
        E 0 90 19 60
        E 0 90 2a 60
        E 0 90 54 60
        E 0 90 57 60
        E 0 90 60 60
        E 0 90 63 60
        E 120 80 18 00
        E 0 80 2a 00
        E 0 80 54 00
        E 0 80 57 00
        E 0 80 60 00
        E 0 80 63 00
        E 120 80 19 00
        E 0 90 1a 60
        E 0 90 2a 60
        E 0 90 3d 60
        E 0 90 3f 60
        E 0 90 49 60
        E 0 90 4b 60
        E 0 90 55 60
        E 0 90 57 60
        E 0 90 61 60
        E 0 90 63 60
        E 120 80 1a 00
        E 0 80 2a 00
        E 0 80 3d 00
        E 0 80 3f 00
        E 0 80 49 00
        E 0 80 4b 00
        E 0 80 55 00
        E 0 80 57 00
        E 0 80 61 00
        E 0 80 63 00
        E 120 90 19 60
        E 0 90 1a 60
        E 0 90 2a 60
        E 0 90 55 60
        E 0 90 57 60
        E 0 90 61 60
        E 0 90 63 60
        E 120 80 1a 00
        E 0 80 2a 00
        E 0 80 55 00
        E 0 80 57 00
        E 0 80 61 00
        E 0 80 63 00
        E 120 80 19 00
        E 0 90 18 60
        E 0 90 2a 60
        E 0 90 3f 60
        E 0 90 48 60
        E 0 90 4b 60
        E 0 90 54 60
        E 0 90 57 60
        E 0 90 60 60
        E 0 90 63 60
        E 120 80 18 00
        E 0 80 2a 00
        E 0 80 3f 00
        E 0 80 48 00
        E 0 80 4b 00
        E 0 80 54 00
        E 0 80 57 00
        E 0 80 60 00
        E 0 80 63 00
        E 120 90 18 60
        E 0 90 19 60
        E 0 90 2a 60
        E 0 90 54 60
        E 0 90 57 60
        E 0 90 60 60
        E 0 90 63 60
        E 120 80 18 00
        E 0 80 2a 00
        E 0 80 54 00
        E 0 80 57 00
        E 0 80 60 00
        E 0 80 63 00
        E 120 80 19 00
        E 0 90 1a 60
        E 0 90 2a 60
        E 0 90 3d 60
        E 0 90 3f 60
        E 0 90 49 60
        E 0 90 4b 60
        E 0 90 55 60
        E 0 90 57 60
        E 0 90 61 60
        E 0 90 63 60
        E 120 80 1a 00
        E 0 80 2a 00
        E 0 80 3d 00
        E 0 80 3f 00
        E 0 80 49 00
        E 0 80 4b 00
        E 0 80 55 00
        E 0 80 57 00
        E 0 80 61 00
        E 0 80 63 00
        E 120 90 18 60
        E 0 90 19 60
        E 0 90 2a 60
        E 0 90 54 60
        E 0 90 57 60
        E 0 90 60 60
        E 0 90 63 60
        E 120 80 18 00
        E 0 80 2a 00
        E 0 80 54 00
        E 0 80 57 00
        E 0 80 60 00
        E 0 80 63 00
        E 120 80 19 00
        E 0 90 18 60
        E 0 90 2a 60
        E 0 90 3f 60
        E 0 90 48 60
        E 0 90 4b 60
        E 0 90 54 60
        E 0 90 57 60
        E 0 90 60 60
        E 0 90 63 60
        E 120 80 18 00
        E 0 80 2a 00
        E 0 80 3f 00
        E 0 80 48 00
        E 0 80 4b 00
        E 0 80 54 00
        E 0 80 57 00
        E 0 80 60 00
        E 0 80 63 00
        E 120 90 18 60
        E 0 90 19 60
        E 0 90 2a 60
        E 0 90 54 60
        E 0 90 57 60
        E 0 90 60 60
        E 0 90 63 60
        E 120 80 18 00
        E 0 80 2a 00
        E 0 80 54 00
        E 0 80 57 00
        E 0 80 60 00
        E 0 80 63 00
        E 120 80 19 00
        E 0 90 1a 60
        E 0 90 2a 60
        E 0 90 3d 60
        E 0 90 3f 60
        E 0 90 49 60
        E 0 90 4b 60
        E 0 90 55 60
        E 0 90 57 60
        E 0 90 61 60
        E 0 90 63 60
        E 120 80 1a 00
        E 0 80 2a 00
        E 0 80 3d 00
        E 0 80 3f 00
        E 0 80 49 00
        E 0 80 4b 00
        E 0 80 55 00
        E 0 80 57 00
        E 0 80 61 00
        E 0 80 63 00
        E 120 90 18 60
        E 0 90 19 60
        E 0 90 2a 60
        E 0 90 54 60
        E 0 90 57 60
        E 0 90 60 60
        E 0 90 63 60
        E 120 80 18 00
        E 0 80 2a 00
        E 0 80 54 00
        E 0 80 57 00
        E 0 80 60 00
        E 0 80 63 00
        E 120 80 19 00
        E 0 90 2a 60
        E 0 90 3f 60
        E 0 90 4b 60
        E 0 90 57 60
        E 0 90 63 60
        E 120 80 2a 00
        E 0 80 3f 00
        E 0 80 4b 00
        E 0 80 57 00
        E 0 80 63 00
        E 120 90 18 60
        E 0 90 19 60
        E 0 90 1e 60
        E 0 90 2a 60
        E 0 90 54 60
        E 0 90 56 60
        E 0 90 57 60
        E 0 90 60 60
        E 0 90 62 60
        E 0 90 63 60
        E 120 80 18 00
        E 0 80 1e 00
        E 0 80 2a 00
        E 0 80 54 00
        E 0 80 56 00
        E 0 80 57 00
        E 0 80 60 00
        E 0 80 62 00
        E 0 80 63 00
        E 120 80 19 00
        E 0 90 1a 60
        E 0 90 2a 60
        E 0 90 3d 60
        E 0 90 3f 60
        E 0 90 49 60
        E 0 90 4b 60
        E 0 90 55 60
        E 0 90 57 60
        E 0 90 61 60
        E 0 90 63 60
        E 120 80 1a 00
        E 0 80 2a 00
        E 0 80 3d 00
        E 0 80 3f 00
        E 0 80 49 00
        E 0 80 4b 00
        E 0 80 55 00
        E 0 80 57 00
        E 0 80 61 00
        E 0 80 63 00
        E 120 90 18 60
        E 0 90 19 60
        E 0 90 1e 60
        E 0 90 2a 60
        E 0 90 54 60
        E 0 90 56 60
        E 0 90 57 60
        E 0 90 60 60
        E 0 90 62 60
        E 0 90 63 60
        E 120 80 18 00
        E 0 80 1e 00
        E 0 80 2a 00
        E 0 80 54 00
        E 0 80 56 00
        E 0 80 57 00
        E 0 80 60 00
        E 0 80 62 00
        E 0 80 63 00
        E 120 90 18 60
        E 0 90 1e 60
        E 0 90 2a 60
        E 0 90 3e 60
        E 0 90 3f 60
        E 0 90 48 60
        E 0 90 4a 60
        E 0 90 4b 60
        E 0 90 54 60
        E 0 90 56 60
        E 0 90 57 60
        E 0 90 60 60
        E 0 90 62 60
        E 0 90 63 60
        E 0 90 74 60
        E 120 80 18 00
        E 0 80 1e 00
        E 0 80 2a 00
        E 0 80 3e 00
        E 0 80 3f 00
        E 0 80 48 00
        E 0 80 4a 00
        E 0 80 4b 00
        E 0 80 54 00
        E 0 80 56 00
        E 0 80 57 00
        E 0 80 60 00
        E 0 80 62 00
        E 0 80 63 00
        E 120 90 18 60
        E 0 90 1b 60
        E 0 90 54 60
        E 0 90 55 60
        E 0 90 60 60
        E 0 90 61 60
        E 120 80 18 00
        E 0 80 1b 00
        E 0 80 54 00
        E 0 80 55 00
        E 0 80 60 00
        E 0 80 61 00
        E 0 90 1a 60
        E 0 90 61 60
        E 120 80 19 00
        E 0 80 1a 00
        E 0 80 61 00
        E 0 90 18 60
        E 0 90 3c 60
        E 0 90 48 60
        E 0 90 54 60
        E 0 90 60 60
        E 120 80 18 00
        E 0 80 3c 00
        E 0 80 48 00
        E 0 80 54 00
        E 0 80 60 00
        E 0 90 1a 60
        E 0 90 61 60
        E 120 80 1a 00
        E 0 80 61 00
        E 0 90 18 60
        E 0 90 19 60
        E 0 90 2a 60
        E 0 90 54 60
        E 0 90 57 60
        E 0 90 60 60
        E 0 90 63 60
        E 120 80 18 00
        E 0 80 2a 00
        E 0 80 54 00
        E 0 80 57 00
        E 0 80 60 00
        E 0 80 63 00
        E 120 80 19 00
        E 0 90 18 60
        E 0 90 1b 60
        E 0 90 3d 60
        E 0 90 49 60
        E 0 90 54 60
        E 0 90 55 60
        E 0 90 60 60
        E 0 90 61 60
        E 120 80 18 00
        E 0 80 1b 00
        E 0 80 3d 00
        E 0 80 49 00
        E 0 80 54 00
        E 0 80 55 00
        E 0 80 60 00
        E 0 80 61 00
        E 0 90 1a 60
        E 0 90 61 60
        E 120 80 1a 00
        E 0 80 61 00
        E 0 90 18 60
        E 0 90 19 60
        E 0 90 2f 60
        E 0 90 54 60
        E 0 90 57 60
        E 0 90 60 60
        E 0 90 62 60
        E 0 90 6e 60
        E 120 80 18 00
        E 0 80 2f 00
        E 0 80 54 00
        E 0 80 57 00
        E 0 80 60 00
        E 0 80 62 00
        E 0 90 2e 60
        E 0 90 62 60
        E 120 80 19 00
        E 0 80 6e 00
        E 0 80 2e 00
        E 0 80 62 00
        E 0 90 18 60
        E 0 90 1b 60
        E 0 90 3d 60
        E 0 90 49 60
        E 0 90 54 60
        E 0 90 55 60
        E 0 90 60 60
        E 0 90 61 60
        E 120 80 18 00
        E 0 80 1b 00
        E 0 80 3d 00
        E 0 80 49 00
        E 0 80 54 00
        E 0 80 55 00
        E 0 80 60 00
        E 0 80 61 00
        E 0 90 1a 60
        E 0 90 61 60
        E 120 80 1a 00
        E 0 80 61 00
        E 0 90 18 60
        E 0 90 19 60
        E 0 90 2f 60
        E 0 90 54 60
        E 0 90 57 60
        E 0 90 60 60
        E 0 90 62 60
        E 0 90 6e 60
        E 120 80 18 00
        E 0 80 2f 00
        E 0 80 54 00
        E 0 80 57 00
        E 0 80 60 00
        E 0 80 62 00
        E 0 80 6e 00
        E 0 90 1a 60
        E 0 90 61 60
        E 120 80 19 00
        E 0 80 1a 00
        E 0 80 61 00
        E 0 90 18 60
        E 0 90 26 60
        E 0 90 40 60
        E 0 90 48 60
        E 0 90 4c 60
        E 0 90 54 60
        E 0 90 58 60
        E 0 90 60 60
        E 0 90 64 60
        E 120 80 74 00
        E 0 80 18 00
        E 0 80 26 00
        E 0 80 40 00
        E 0 80 48 00
        E 0 80 4c 00
        E 0 80 54 00
        E 0 80 58 00
        E 0 80 60 00
        E 0 80 64 00
        E 120 90 18 60
        E 0 90 19 60
        E 0 90 2a 60
        E 0 90 54 60
        E 0 90 57 60
        E 0 90 60 60
        E 0 90 63 60
        E 120 80 18 00
        E 0 80 2a 00
        E 0 80 54 00
        E 0 80 57 00
        E 0 80 60 00
        E 0 80 63 00
        E 120 80 19 00
        E 0 90 1a 60
        E 0 90 2a 60
        E 0 90 3d 60
        E 0 90 3f 60
        E 0 90 49 60
        E 0 90 4b 60
        E 0 90 55 60
        E 0 90 57 60
        E 0 90 61 60
        E 0 90 63 60
        E 120 80 1a 00
        E 0 80 2a 00
        E 0 80 3d 00
        E 0 80 3f 00
        E 0 80 49 00
        E 0 80 4b 00
        E 0 80 55 00
        E 0 80 57 00
        E 0 80 61 00
        E 0 80 63 00
        E 120 90 18 60
        E 0 90 19 60
        E 0 90 2a 60
        E 0 90 54 60
        E 0 90 57 60
        E 0 90 60 60
        E 0 90 63 60
        E 120 80 18 00
        E 0 80 2a 00
        E 0 80 54 00
        E 0 80 57 00
        E 0 80 60 00
        E 0 80 63 00
        E 120 80 19 00
        E 0 90 2a 60
        E 0 90 3f 60
        E 0 90 4b 60
        E 0 90 57 60
        E 0 90 63 60
        E 120 80 2a 00
        E 0 80 3f 00
        E 0 80 4b 00
        E 0 80 57 00
        E 0 80 63 00
        E 120 90 18 60
        E 0 90 19 60
        E 0 90 2a 60
        E 0 90 54 60
        E 0 90 57 60
        E 0 90 60 60
        E 0 90 63 60
        E 120 80 18 00
        E 0 80 2a 00
        E 0 80 54 00
        E 0 80 57 00
        E 0 80 60 00
        E 0 80 63 00
        E 120 80 19 00
        E 0 90 1a 60
        E 0 90 2a 60
        E 0 90 3d 60
        E 0 90 3f 60
        E 0 90 49 60
        E 0 90 4b 60
        E 0 90 55 60
        E 0 90 57 60
        E 0 90 61 60
        E 0 90 63 60
        E 120 80 1a 00
        E 0 80 2a 00
        E 0 80 3d 00
        E 0 80 3f 00
        E 0 80 49 00
        E 0 80 4b 00
        E 0 80 55 00
        E 0 80 57 00
        E 0 80 61 00
        E 0 80 63 00
        E 120 90 18 60
        E 0 90 19 60
        E 0 90 2a 60
        E 0 90 54 60
        E 0 90 57 60
        E 0 90 60 60
        E 0 90 63 60
        E 120 80 18 00
        E 0 80 2a 00
        E 0 80 54 00
        E 0 80 57 00
        E 0 80 60 00
        E 0 80 63 00
        E 120 80 19 00
        E 0 90 2a 60
        E 0 90 3f 60
        E 0 90 4b 60
        E 0 90 57 60
        E 0 90 63 60
        E 120 80 2a 00
        E 0 80 3f 00
        E 0 80 4b 00
        E 0 80 57 00
        E 0 80 63 00
        E 120 90 18 60
        E 0 90 19 60
        E 0 90 2a 60
        E 0 90 54 60
        E 0 90 57 60
        E 0 90 60 60
        E 0 90 63 60
        E 120 80 18 00
        E 0 80 2a 00
        E 0 80 54 00
        E 0 80 57 00
        E 0 80 60 00
        E 0 80 63 00
        E 120 80 19 00
        E 0 90 1a 60
        E 0 90 2a 60
        E 0 90 3d 60
        E 0 90 3f 60
        E 0 90 49 60
        E 0 90 4b 60
        E 0 90 55 60
        E 0 90 57 60
        E 0 90 61 60
        E 0 90 63 60
        E 120 80 1a 00
        E 0 80 2a 00
        E 0 80 3d 00
        E 0 80 3f 00
        E 0 80 49 00
        E 0 80 4b 00
        E 0 80 55 00
        E 0 80 57 00
        E 0 80 61 00
        E 0 80 63 00
        E 120 90 19 60
        E 0 90 1a 60
        E 0 90 2a 60
        E 0 90 55 60
        E 0 90 57 60
        E 0 90 61 60
        E 0 90 63 60
        E 120 80 1a 00
        E 0 80 2a 00
        E 0 80 55 00
        E 0 80 57 00
        E 0 80 61 00
        E 0 80 63 00
        E 120 80 19 00
        E 0 90 18 60
        E 0 90 2a 60
        E 0 90 3f 60
        E 0 90 48 60
        E 0 90 4b 60
        E 0 90 54 60
        E 0 90 57 60
        E 0 90 60 60
        E 0 90 63 60
        E 120 80 18 00
        E 0 80 2a 00
        E 0 80 3f 00
        E 0 80 48 00
        E 0 80 4b 00
        E 0 80 54 00
        E 0 80 57 00
        E 0 80 60 00
        E 0 80 63 00
        E 120 90 18 60
        E 0 90 19 60
        E 0 90 2a 60
        E 0 90 54 60
        E 0 90 57 60
        E 0 90 60 60
        E 0 90 63 60
        E 120 80 18 00
        E 0 80 2a 00
        E 0 80 54 00
        E 0 80 57 00
        E 0 80 60 00
        E 0 80 63 00
        E 120 80 19 00
        E 0 90 1a 60
        E 0 90 2a 60
        E 0 90 3d 60
        E 0 90 3f 60
        E 0 90 49 60
        E 0 90 4b 60
        E 0 90 55 60
        E 0 90 57 60
        E 0 90 61 60
        E 0 90 63 60
        E 120 80 1a 00
        E 0 80 2a 00
        E 0 80 3d 00
        E 0 80 3f 00
        E 0 80 49 00
        E 0 80 4b 00
        E 0 80 55 00
        E 0 80 57 00
        E 0 80 61 00
        E 0 80 63 00
        E 120 90 18 60
        E 0 90 19 60
        E 0 90 2a 60
        E 0 90 54 60
        E 0 90 57 60
        E 0 90 60 60
        E 0 90 63 60
        E 120 80 18 00
        E 0 80 2a 00
        E 0 80 54 00
        E 0 80 57 00
        E 0 80 60 00
        E 0 80 63 00
        E 120 80 19 00
        E 0 90 18 60
        E 0 90 2a 60
        E 0 90 3f 60
        E 0 90 48 60
        E 0 90 4b 60
        E 0 90 54 60
        E 0 90 57 60
        E 0 90 60 60
        E 0 90 63 60
        E 120 80 18 00
        E 0 80 2a 00
        E 0 80 3f 00
        E 0 80 48 00
        E 0 80 4b 00
        E 0 80 54 00
        E 0 80 57 00
        E 0 80 60 00
        E 0 80 63 00
        E 120 90 18 60
        E 0 90 19 60
        E 0 90 2a 60
        E 0 90 54 60
        E 0 90 57 60
        E 0 90 60 60
        E 0 90 63 60
        E 120 80 18 00
        E 0 80 2a 00
        E 0 80 54 00
        E 0 80 57 00
        E 0 80 60 00
        E 0 80 63 00
        E 120 80 19 00
        E 0 90 1a 60
        E 0 90 2a 60
        E 0 90 3d 60
        E 0 90 3f 60
        E 0 90 49 60
        E 0 90 4b 60
        E 0 90 55 60
        E 0 90 57 60
        E 0 90 61 60
        E 0 90 63 60
        E 120 80 1a 00
        E 0 80 2a 00
        E 0 80 3d 00
        E 0 80 3f 00
        E 0 80 49 00
        E 0 80 4b 00
        E 0 80 55 00
        E 0 80 57 00
        E 0 80 61 00
        E 0 80 63 00
        E 120 90 18 60
        E 0 90 19 60
        E 0 90 2a 60
        E 0 90 54 60
        E 0 90 57 60
        E 0 90 60 60
        E 0 90 63 60
        E 120 80 18 00
        E 0 80 2a 00
        E 0 80 54 00
        E 0 80 57 00
        E 0 80 60 00
        E 0 80 63 00
        E 120 80 19 00
        E 0 90 1a 60
        E 0 90 2a 60
        E 0 90 3d 60
        E 0 90 3f 60
        E 0 90 49 60
        E 0 90 4b 60
        E 0 90 55 60
        E 0 90 57 60
        E 0 90 61 60
        E 0 90 63 60
        E 120 80 1a 00
        E 0 80 2a 00
        E 0 80 3d 00
        E 0 80 3f 00
        E 0 80 49 00
        E 0 80 4b 00
        E 0 80 55 00
        E 0 80 57 00
        E 0 80 61 00
        E 0 80 63 00
        E 120 90 18 60
        E 0 90 19 60
        E 0 90 2a 60
        E 0 90 54 60
        E 0 90 57 60
        E 0 90 60 60
        E 0 90 63 60
        E 120 80 18 00
        E 0 80 2a 00
        E 0 80 54 00
        E 0 80 57 00
        E 0 80 60 00
        E 0 80 63 00
        E 120 80 19 00
        E 0 90 18 60
        E 0 90 2a 60
        E 0 90 3f 60
        E 0 90 48 60
        E 0 90 4b 60
        E 0 90 54 60
        E 0 90 57 60
        E 0 90 60 60
        E 0 90 63 60
        E 120 80 18 00
        E 0 80 2a 00
        E 0 80 3f 00
        E 0 80 48 00
        E 0 80 4b 00
        E 0 80 54 00
        E 0 80 57 00
        E 0 80 60 00
        E 0 80 63 00
        E 120 90 19 60
        E 0 90 1a 60
        E 0 90 2a 60
        E 0 90 55 60
        E 0 90 57 60
        E 0 90 61 60
        E 0 90 63 60
        E 120 80 1a 00
        E 0 80 2a 00
        E 0 80 55 00
        E 0 80 57 00
        E 0 80 61 00
        E 0 80 63 00
        E 120 80 19 00
        E 0 90 18 60
        E 0 90 2a 60
        E 0 90 3f 60
        E 0 90 48 60
        E 0 90 4b 60
        E 0 90 54 60
        E 0 90 57 60
        E 0 90 60 60
        E 0 90 63 60
        E 0 90 78 60
        E 0 90 79 60
        E 0 90 7a 60
        E 0 90 7b 60
        E 0 90 7c 60
        E 120 80 18 00
        E 0 80 2a 00
        E 0 80 3f 00
        E 0 80 48 00
        E 0 80 4b 00
        E 0 80 54 00
        E 0 80 57 00
        E 0 80 60 00
        E 0 80 63 00
        E 120 90 18 60
        E 0 90 19 60
        E 0 90 2a 60
        E 0 90 54 60
        E 0 90 57 60
        E 0 90 60 60
        E 0 90 63 60
        E 120 80 18 00
        E 0 80 2a 00
        E 0 80 54 00
        E 0 80 57 00
        E 0 80 60 00
        E 0 80 63 00
        E 120 80 19 00
        E 0 90 18 60
        E 0 90 1a 60
        E 0 90 2a 60
        E 0 90 3d 60
        E 0 90 3f 60
        E 0 90 49 60
        E 0 90 4b 60
        E 0 90 54 60
        E 0 90 55 60
        E 0 90 57 60
        E 0 90 60 60
        E 0 90 61 60
        E 0 90 63 60
        E 120 80 18 00
        E 0 80 1a 00
        E 0 80 2a 00
        E 0 80 3d 00
        E 0 80 3f 00
        E 0 80 49 00
        E 0 80 4b 00
        E 0 80 54 00
        E 0 80 55 00
        E 0 80 57 00
        E 0 80 60 00
        E 0 80 61 00
        E 0 80 63 00
        E 120 90 18 60
        E 0 90 19 60
        E 0 90 2a 60
        E 0 90 54 60
        E 0 90 57 60
        E 0 90 60 60
        E 0 90 63 60
        E 120 80 18 00
        E 0 80 2a 00
        E 0 80 54 00
        E 0 80 57 00
        E 0 80 60 00
        E 0 80 63 00
        E 120 80 19 00
        E 0 90 18 60
        E 0 90 1a 60
        E 0 90 3d 60
        E 0 90 49 60
        E 0 90 54 60
        E 0 90 55 60
        E 0 90 60 60
        E 0 90 61 60
        E 120 80 18 00
        E 0 80 1a 00
        E 0 80 3d 00
        E 0 80 49 00
        E 0 80 54 00
        E 0 80 55 00
        E 0 80 60 00
        E 0 80 61 00
        E 0 90 1a 60
        E 0 90 61 60
        E 120 80 1a 00
        E 0 80 61 00
        E 0 90 18 60
        E 0 90 19 60
        E 0 90 2a 60
        E 0 90 54 60
        E 0 90 57 60
        E 0 90 60 60
        E 0 90 63 60
        E 120 80 18 00
        E 0 80 2a 00
        E 0 80 54 00
        E 0 80 57 00
        E 0 80 60 00
        E 0 80 63 00
        E 120 80 19 00
        E 0 90 18 60
        E 0 90 1a 60
        E 0 90 2a 60
        E 0 90 3d 60
        E 0 90 3f 60
        E 0 90 49 60
        E 0 90 4b 60
        E 0 90 54 60
        E 0 90 55 60
        E 0 90 57 60
        E 0 90 60 60
        E 0 90 61 60
        E 0 90 63 60
        E 120 80 18 00
        E 0 80 1a 00
        E 0 80 2a 00
        E 0 80 3d 00
        E 0 80 3f 00
        E 0 80 49 00
        E 0 80 4b 00
        E 0 80 54 00
        E 0 80 55 00
        E 0 80 57 00
        E 0 80 60 00
        E 0 80 61 00
        E 0 80 63 00
        E 120 90 18 60
        E 0 90 19 60
        E 0 90 2a 60
        E 0 90 54 60
        E 0 90 57 60
        E 0 90 60 60
        E 0 90 63 60
        E 120 80 18 00
        E 0 80 2a 00
        E 0 80 54 00
        E 0 80 57 00
        E 0 80 60 00
        E 0 80 63 00
        E 120 80 78 00
        E 0 80 79 00
        E 0 80 7a 00
        E 0 80 7b 00
        E 0 80 7c 00
        E 0 80 19 00
        E 0 90 18 60
        E 0 90 26 60
        E 0 90 40 60
        E 0 90 48 60
        E 0 90 4c 60
        E 0 90 54 60
        E 0 90 58 60
        E 0 90 60 60
        E 0 90 64 60
        E 120 80 18 00
        E 0 80 26 00
        E 0 80 40 00
        E 0 80 48 00
        E 0 80 4c 00
        E 0 80 54 00
        E 0 80 58 00
        E 0 80 60 00
        E 0 80 64 00
        E 120 90 18 60
        E 0 90 19 60
        E 0 90 2a 60
        E 0 90 54 60
        E 0 90 57 60
        E 0 90 60 60
        E 0 90 63 60
        E 120 80 18 00
        E 0 80 2a 00
        E 0 80 54 00
        E 0 80 57 00
        E 0 80 60 00
        E 0 80 63 00
        E 120 80 19 00
        E 0 90 1a 60
        E 0 90 2a 60
        E 0 90 3d 60
        E 0 90 3f 60
        E 0 90 49 60
        E 0 90 4b 60
        E 0 90 55 60
        E 0 90 57 60
        E 0 90 61 60
        E 0 90 63 60
        E 120 80 1a 00
        E 0 80 2a 00
        E 0 80 3d 00
        E 0 80 3f 00
        E 0 80 49 00
        E 0 80 4b 00
        E 0 80 55 00
        E 0 80 57 00
        E 0 80 61 00
        E 0 80 63 00
        E 120 90 18 60
        E 0 90 19 60
        E 0 90 2a 60
        E 0 90 54 60
        E 0 90 57 60
        E 0 90 60 60
        E 0 90 63 60
        E 120 80 18 00
        E 0 80 2a 00
        E 0 80 54 00
        E 0 80 57 00
        E 0 80 60 00
        E 0 80 63 00
        E 120 80 19 00
        E 0 90 2a 60
        E 0 90 3f 60
        E 0 90 4b 60
        E 0 90 57 60
        E 0 90 63 60
        E 120 80 2a 00
        E 0 80 3f 00
        E 0 80 4b 00
        E 0 80 57 00
        E 0 80 63 00
        E 120 90 18 60
        E 0 90 19 60
        E 0 90 2a 60
        E 0 90 54 60
        E 0 90 57 60
        E 0 90 60 60
        E 0 90 63 60
        E 120 80 18 00
        E 0 80 2a 00
        E 0 80 54 00
        E 0 80 57 00
        E 0 80 60 00
        E 0 80 63 00
        E 120 80 19 00
        E 0 90 1a 60
        E 0 90 2a 60
        E 0 90 3d 60
        E 0 90 3f 60
        E 0 90 49 60
        E 0 90 4b 60
        E 0 90 55 60
        E 0 90 57 60
        E 0 90 61 60
        E 0 90 63 60
        E 120 80 1a 00
        E 0 80 2a 00
        E 0 80 3d 00
        E 0 80 3f 00
        E 0 80 49 00
        E 0 80 4b 00
        E 0 80 55 00
        E 0 80 57 00
        E 0 80 61 00
        E 0 80 63 00
        E 120 90 18 60
        E 0 90 19 60
        E 0 90 2a 60
        E 0 90 54 60
        E 0 90 57 60
        E 0 90 60 60
        E 0 90 63 60
        E 120 80 18 00
        E 0 80 2a 00
        E 0 80 54 00
        E 0 80 57 00
        E 0 80 60 00
        E 0 80 63 00
        E 120 80 19 00
        E 0 90 2a 60
        E 0 90 3f 60
        E 0 90 4b 60
        E 0 90 57 60
        E 0 90 63 60
        E 0 90 74 60
        E 120 80 2a 00
        E 0 80 3f 00
        E 0 80 4b 00
        E 0 80 57 00
        E 0 80 63 00
        E 120 90 18 60
        E 0 90 19 60
        E 0 90 2a 60
        E 0 90 54 60
        E 0 90 57 60
        E 0 90 60 60
        E 0 90 63 60
        E 120 80 18 00
        E 0 80 2a 00
        E 0 80 54 00
        E 0 80 57 00
        E 0 80 60 00
        E 0 80 63 00
        E 120 80 19 00
        E 0 90 1a 60
        E 0 90 2a 60
        E 0 90 3d 60
        E 0 90 3f 60
        E 0 90 49 60
        E 0 90 4b 60
        E 0 90 55 60
        E 0 90 57 60
        E 0 90 61 60
        E 0 90 63 60
        E 120 80 1a 00
        E 0 80 2a 00
        E 0 80 3d 00
        E 0 80 3f 00
        E 0 80 49 00
        E 0 80 4b 00
        E 0 80 55 00
        E 0 80 57 00
        E 0 80 61 00
        E 0 80 63 00
        E 120 90 18 60
        E 0 90 19 60
        E 0 90 2a 60
        E 0 90 54 60
        E 0 90 57 60
        E 0 90 60 60
        E 0 90 63 60
        E 120 80 18 00
        E 0 80 2a 00
        E 0 80 54 00
        E 0 80 57 00
        E 0 80 60 00
        E 0 80 63 00
        E 120 80 19 00
        E 0 90 18 60
        E 0 90 1b 60
        E 0 90 3d 60
        E 0 90 49 60
        E 0 90 54 60
        E 0 90 55 60
        E 0 90 60 60
        E 0 90 61 60
        E 120 80 18 00
        E 0 80 1b 00
        E 0 80 3d 00
        E 0 80 49 00
        E 0 80 54 00
        E 0 80 55 00
        E 0 80 60 00
        E 0 80 61 00
        E 0 90 1a 60
        E 0 90 61 60
        E 120 80 1a 00
        E 0 80 61 00
        E 0 90 18 60
        E 0 90 19 60
        e 0 90 54 60
        E 0 90 60 60
        E 120 80 18 00
        e 0 80 54 00
        E 0 80 60 00
        E 0 90 1a 60
        E 0 90 61 60
        E 120 80 19 00
        E 0 80 1a 00
        E 0 80 61 00
        E 0 90 18 60
        E 0 90 1b 60
        E 0 90 3d 60
        E 0 90 49 60
        E 0 90 54 60
        E 0 90 55 60
        E 0 90 60 60
        E 0 90 61 60
        E 120 80 18 00
        E 0 80 1b 00
        E 0 80 3d 00
        E 0 80 49 00
        E 0 80 54 00
        E 0 80 55 00
        E 0 80 60 00
        E 0 80 61 00
        E 0 90 1a 60
        E 0 90 61 60
        E 120 80 1a 00
        E 0 80 61 00
        E 0 90 18 60
        E 0 90 19 60
        E 0 90 1b 60
        E 0 90 54 60
        E 0 90 55 60
        E 0 90 60 60
        E 0 90 61 60
        E 120 80 18 00
        E 0 80 1b 00
        E 0 80 54 00
        E 0 80 55 00
        E 0 80 60 00
        E 0 80 61 00
        E 0 90 1a 60
        E 0 90 61 60
        E 120 80 19 00
        E 0 80 1a 00
        E 0 80 61 00
        E 0 90 18 60
        E 0 90 26 60
        E 0 90 40 60
        E 0 90 48 60
        E 0 90 4c 60
        E 0 90 54 60
        E 0 90 58 60
        E 0 90 60 60
        E 0 90 64 60
        E 120 80 74 00
        E 0 80 18 00
        E 0 80 26 00
        E 0 80 40 00
        E 0 80 48 00
        E 0 80 4c 00
        E 0 80 54 00
        E 0 80 58 00
        E 0 80 60 00
        E 0 80 64 00
        E 120 90 18 60
        E 0 90 19 60
        E 0 90 2a 60
        E 0 90 54 60
        E 0 90 57 60
        E 0 90 60 60
        E 0 90 63 60
        E 120 80 18 00
        E 0 80 2a 00
        E 0 80 54 00
        E 0 80 57 00
        E 0 80 60 00
        E 0 80 63 00
        E 120 80 19 00
        E 0 90 1a 60
        E 0 90 2a 60
        E 0 90 3d 60
        E 0 90 3f 60
        E 0 90 49 60
        E 0 90 4b 60
        E 0 90 55 60
        E 0 90 57 60
        E 0 90 61 60
        E 0 90 63 60
        E 120 80 1a 00
        E 0 80 2a 00
        E 0 80 3d 00
        E 0 80 3f 00
        E 0 80 49 00
        E 0 80 4b 00
        E 0 80 55 00
        E 0 80 57 00
        E 0 80 61 00
        E 0 80 63 00
        E 120 90 18 60
        E 0 90 19 60
        E 0 90 2a 60
        E 0 90 54 60
        E 0 90 57 60
        E 0 90 60 60
        E 0 90 63 60
        E 120 80 18 00
        E 0 80 2a 00
        E 0 80 54 00
        E 0 80 57 00
        E 0 80 60 00
        E 0 80 63 00
        E 120 80 19 00
        E 0 90 2a 60
        E 0 90 3f 60
        E 0 90 4b 60
        E 0 90 57 60
        E 0 90 63 60
        E 120 80 2a 00
        E 0 80 3f 00
        E 0 80 4b 00
        E 0 80 57 00
        E 0 80 63 00
        E 120 90 18 60
        E 0 90 19 60
        E 0 90 2a 60
        E 0 90 54 60
        E 0 90 57 60
        E 0 90 60 60
        E 0 90 63 60
        E 120 80 18 00
        E 0 80 2a 00
        E 0 80 54 00
        E 0 80 57 00
        E 0 80 60 00
        E 0 80 63 00
        E 120 80 19 00
        E 0 90 1a 60
        E 0 90 2a 60
        E 0 90 3d 60
        E 0 90 3f 60
        E 0 90 49 60
        E 0 90 4b 60
        E 0 90 55 60
        E 0 90 57 60
        E 0 90 61 60
        E 0 90 63 60
        E 120 80 1a 00
        E 0 80 2a 00
        E 0 80 3d 00
        E 0 80 3f 00
        E 0 80 49 00
        E 0 80 4b 00
        E 0 80 55 00
        E 0 80 57 00
        E 0 80 61 00
        E 0 80 63 00
        E 120 90 18 60
        E 0 90 19 60
        E 0 90 2a 60
        E 0 90 54 60
        E 0 90 57 60
        E 0 90 60 60
        E 0 90 63 60
        E 120 80 18 00
        E 0 80 2a 00
        E 0 80 54 00
        E 0 80 57 00
        E 0 80 60 00
        E 0 80 63 00
        E 120 80 19 00
        E 0 90 18 60
        E 0 90 2a 60
        E 0 90 3f 60
        E 0 90 48 60
        E 0 90 4b 60
        E 0 90 54 60
        E 0 90 57 60
        E 0 90 60 60
        E 0 90 63 60
        E 0 90 78 60
        E 0 90 79 60
        E 0 90 7a 60
        E 0 90 7b 60
        E 0 90 7c 60
        E 120 80 18 00
        E 0 80 2a 00
        E 0 80 3f 00
        E 0 80 48 00
        E 0 80 4b 00
        E 0 80 54 00
        E 0 80 57 00
        E 0 80 60 00
        E 0 80 63 00
        E 120 90 18 60
        E 0 90 19 60
        E 0 90 2a 60
        E 0 90 54 60
        E 0 90 57 60
        E 0 90 60 60
        E 0 90 63 60
        E 120 80 18 00
        E 0 80 2a 00
        E 0 80 54 00
        E 0 80 57 00
        E 0 80 60 00
        E 0 80 63 00
        E 120 80 19 00
        E 0 90 18 60
        E 0 90 1a 60
        E 0 90 2a 60
        E 0 90 3d 60
        E 0 90 3f 60
        E 0 90 49 60
        E 0 90 4b 60
        E 0 90 54 60
        E 0 90 55 60
        E 0 90 57 60
        E 0 90 60 60
        E 0 90 61 60
        E 0 90 63 60
        E 120 80 18 00
        E 0 80 1a 00
        E 0 80 2a 00
        E 0 80 3d 00
        E 0 80 3f 00
        E 0 80 49 00
        E 0 80 4b 00
        E 0 80 54 00
        E 0 80 55 00
        E 0 80 57 00
        E 0 80 60 00
        E 0 80 61 00
        E 0 80 63 00
        E 120 90 18 60
        E 0 90 19 60
        E 0 90 2a 60
        E 0 90 54 60
        E 0 90 57 60
        E 0 90 60 60
        E 0 90 63 60
        E 120 80 18 00
        E 0 80 2a 00
        E 0 80 54 00
        E 0 80 57 00
        E 0 80 60 00
        E 0 80 63 00
        E 120 80 19 00
        E 0 90 18 60
        E 0 90 1a 60
        E 0 90 2a 60
        E 0 90 3d 60
        E 0 90 3f 60
        E 0 90 49 60
        E 0 90 4b 60
        E 0 90 54 60
        E 0 90 55 60
        E 0 90 57 60
        E 0 90 60 60
        E 0 90 61 60
        E 0 90 63 60
        E 120 80 18 00
        E 0 80 1a 00
        E 0 80 2a 00
        E 0 80 3d 00
        E 0 80 3f 00
        E 0 80 49 00
        E 0 80 4b 00
        E 0 80 54 00
        E 0 80 55 00
        E 0 80 57 00
        E 0 80 60 00
        E 0 80 61 00
        E 0 80 63 00
        E 120 90 19 60
        E 0 90 2a 60
        E 0 90 57 60
        E 0 90 63 60
        E 120 80 2a 00
        E 0 80 57 00
        E 0 80 63 00
        E 120 80 19 00
        E 0 90 18 60
        E 0 90 1a 60
        E 0 90 2a 60
        E 0 90 3d 60
        E 0 90 3f 60
        E 0 90 49 60
        E 0 90 4b 60
        E 0 90 54 60
        E 0 90 55 60
        E 0 90 57 60
        E 0 90 60 60
        E 0 90 61 60
        E 0 90 63 60
        E 120 80 18 00
        E 0 80 1a 00
        E 0 80 2a 00
        E 0 80 3d 00
        E 0 80 3f 00
        E 0 80 49 00
        E 0 80 4b 00
        E 0 80 54 00
        E 0 80 55 00
        E 0 80 57 00
        E 0 80 60 00
        E 0 80 61 00
        E 0 80 63 00
        E 120 90 19 60
        E 0 90 2a 60
        E 0 90 57 60
        E 0 90 63 60
        E 120 80 2a 00
        E 0 80 57 00
        E 0 80 63 00
        E 120 80 78 00
        E 0 80 79 00
        E 0 80 7a 00
        E 0 80 7b 00
        E 0 80 7c 00
        E 0 80 19 00
        E 0 90 18 60
        E 0 90 26 60
        E 0 90 40 60
        E 0 90 48 60
        E 0 90 4c 60
        E 0 90 54 60
        E 0 90 58 60
        E 0 90 60 60
        E 0 90 64 60
        E 120 80 18 00
        E 0 80 26 00
        E 0 80 40 00
        E 0 80 48 00
        E 0 80 4c 00
        E 0 80 54 00
        E 0 80 58 00
        E 0 80 60 00
        E 0 80 64 00
        E 120 90 18 60
        E 0 90 19 60
        E 0 90 2a 60
        E 0 90 54 60
        E 0 90 57 60
        E 0 90 60 60
        E 0 90 63 60
        E 120 80 18 00
        E 0 80 2a 00
        E 0 80 54 00
        E 0 80 57 00
        E 0 80 60 00
        E 0 80 63 00
        E 120 80 19 00
        E 0 90 1a 60
        E 0 90 2a 60
        E 0 90 3d 60
        E 0 90 3f 60
        E 0 90 49 60
        E 0 90 4b 60
        E 0 90 55 60
        E 0 90 57 60
        E 0 90 61 60
        E 0 90 63 60
        E 120 80 1a 00
        E 0 80 2a 00
        E 0 80 3d 00
        E 0 80 3f 00
        E 0 80 49 00
        E 0 80 4b 00
        E 0 80 55 00
        E 0 80 57 00
        E 0 80 61 00
        E 0 80 63 00
        E 120 90 18 60
        E 0 90 19 60
        E 0 90 2a 60
        E 0 90 54 60
        E 0 90 57 60
        E 0 90 60 60
        E 0 90 63 60
        E 120 80 18 00
        E 0 80 2a 00
        E 0 80 54 00
        E 0 80 57 00
        E 0 80 60 00
        E 0 80 63 00
        E 120 80 19 00
        E 0 90 2a 60
        E 0 90 3f 60
        E 0 90 4b 60
        E 0 90 57 60
        E 0 90 63 60
        E 120 80 2a 00
        E 0 80 3f 00
        E 0 80 4b 00
        E 0 80 57 00
        E 0 80 63 00
        E 120 90 18 60
        E 0 90 19 60
        E 0 90 2a 60
        E 0 90 54 60
        E 0 90 57 60
        E 0 90 60 60
        E 0 90 63 60
        E 120 80 18 00
        E 0 80 2a 00
        E 0 80 54 00
        E 0 80 57 00
        E 0 80 60 00
        E 0 80 63 00
        E 120 80 19 00
        E 0 90 1a 60
        E 0 90 2a 60
        E 0 90 3d 60
        E 0 90 3f 60
        E 0 90 49 60
        E 0 90 4b 60
        E 0 90 55 60
        E 0 90 57 60
        E 0 90 61 60
        E 0 90 63 60
        E 120 80 1a 00
        E 0 80 2a 00
        E 0 80 3d 00
        E 0 80 3f 00
        E 0 80 49 00
        E 0 80 4b 00
        E 0 80 55 00
        E 0 80 57 00
        E 0 80 61 00
        E 0 80 63 00
        E 120 90 18 60
        E 0 90 19 60
        E 0 90 2a 60
        E 0 90 54 60
        E 0 90 57 60
        E 0 90 60 60
        E 0 90 63 60
        E 120 80 18 00
        E 0 80 2a 00
        E 0 80 54 00
        E 0 80 57 00
        E 0 80 60 00
        E 0 80 63 00
        E 120 80 19 00
        E 0 90 2a 60
        E 0 90 3f 60
        E 0 90 4b 60
        E 0 90 57 60
        E 0 90 63 60
        E 120 80 2a 00
        E 0 80 3f 00
        E 0 80 4b 00
        E 0 80 57 00
        E 0 80 63 00
        E 120 90 18 60
        E 0 90 19 60
        E 0 90 2a 60
        E 0 90 54 60
        E 0 90 57 60
        E 0 90 60 60
        E 0 90 63 60
        E 120 80 18 00
        E 0 80 2a 00
        E 0 80 54 00
        E 0 80 57 00
        E 0 80 60 00
        E 0 80 63 00
        E 120 80 19 00
        E 0 90 1a 60
        E 0 90 2a 60
        E 0 90 3d 60
        E 0 90 3f 60
        E 0 90 49 60
        E 0 90 4b 60
        E 0 90 55 60
        E 0 90 57 60
        E 0 90 61 60
        E 0 90 63 60
        E 120 80 1a 00
        E 0 80 2a 00
        E 0 80 3d 00
        E 0 80 3f 00
        E 0 80 49 00
        E 0 80 4b 00
        E 0 80 55 00
        E 0 80 57 00
        E 0 80 61 00
        E 0 80 63 00
        E 120 90 18 60
        E 0 90 19 60
        E 0 90 2a 60
        E 0 90 54 60
        E 0 90 57 60
        E 0 90 60 60
        E 0 90 63 60
        E 120 80 18 00
        E 0 80 2a 00
        E 0 80 54 00
        E 0 80 57 00
        E 0 80 60 00
        E 0 80 63 00
        E 120 80 19 00
        E 0 90 1a 60
        E 0 90 2a 60
        E 0 90 3d 60
        E 0 90 3f 60
        E 0 90 49 60
        E 0 90 4b 60
        E 0 90 55 60
        E 0 90 57 60
        E 0 90 61 60
        E 0 90 63 60
        E 120 80 1a 00
        E 0 80 2a 00
        E 0 80 3d 00
        E 0 80 3f 00
        E 0 80 49 00
        E 0 80 4b 00
        E 0 80 55 00
        E 0 80 57 00
        E 0 80 61 00
        E 0 80 63 00
        E 120 90 18 60
        E 0 90 19 60
        E 0 90 2a 60
        E 0 90 54 60
        E 0 90 57 60
        E 0 90 60 60
        E 0 90 63 60
        E 120 80 18 00
        E 0 80 2a 00
        E 0 80 54 00
        E 0 80 57 00
        E 0 80 60 00
        E 0 80 63 00
        E 120 80 19 00
        E 0 90 1a 60
        E 0 90 2a 60
        E 0 90 3d 60
        E 0 90 3f 60
        E 0 90 49 60
        E 0 90 4b 60
        E 0 90 55 60
        E 0 90 57 60
        E 0 90 61 60
        E 0 90 63 60
        E 120 80 1a 00
        E 0 80 2a 00
        E 0 80 3d 00
        E 0 80 3f 00
        E 0 80 49 00
        E 0 80 4b 00
        E 0 80 55 00
        E 0 80 57 00
        E 0 80 61 00
        E 0 80 63 00
        E 120 90 18 60
        E 0 90 19 60
        E 0 90 2a 60
        E 0 90 54 60
        E 0 90 57 60
        E 0 90 60 60
        E 0 90 63 60
        E 120 80 18 00
        E 0 80 2a 00
        E 0 80 54 00
        E 0 80 57 00
        E 0 80 60 00
        E 0 80 63 00
        E 120 80 19 00
        E 0 90 1a 60
        E 0 90 26 60
        E 0 90 3d 60
        E 0 90 40 60
        E 0 90 49 60
        E 0 90 4c 60
        E 0 90 55 60
        E 0 90 58 60
        E 0 90 61 60
        E 0 90 64 60
        E 120 80 1a 00
        E 0 80 26 00
        E 0 80 3d 00
        E 0 80 40 00
        E 0 80 49 00
        E 0 80 4c 00
        E 0 80 55 00
        E 0 80 58 00
        E 0 80 61 00
        E 0 80 64 00
        E 120 90 18 60
        E 0 90 19 60
        E 0 90 26 60
        E 0 90 54 60
        E 0 90 58 60
        E 0 90 60 60
        E 0 90 64 60
        E 120 80 18 00
        E 0 80 26 00
        E 0 80 54 00
        E 0 80 58 00
        E 0 80 60 00
        E 0 80 64 00
        E 120 80 19 00
        E 0 90 1a 60
        E 0 90 26 60
        E 0 90 3d 60
        E 0 90 40 60
        E 0 90 49 60
        E 0 90 4c 60
        E 0 90 55 60
        E 0 90 58 60
        E 0 90 61 60
        E 0 90 64 60
        E 120 80 1a 00
        E 0 80 26 00
        E 0 80 3d 00
        E 0 80 40 00
        E 0 80 49 00
        E 0 80 4c 00
        E 0 80 55 00
        E 0 80 58 00
        E 0 80 61 00
        E 0 80 64 00
        E 120 90 18 60
        E 0 90 19 60
        E 0 90 26 60
        E 0 90 54 60
        E 0 90 58 60
        E 0 90 60 60
        E 0 90 64 60
        E 120 80 18 00
        E 0 80 26 00
        E 0 80 54 00
        E 0 80 58 00
        E 0 80 60 00
        E 0 80 64 00
        E 120 80 19 00
        E 0 90 1a 60
        E 0 90 26 60
        E 0 90 3d 60
        E 0 90 40 60
        E 0 90 49 60
        E 0 90 4c 60
        E 0 90 55 60
        E 0 90 58 60
        E 0 90 61 60
        E 0 90 64 60
        E 120 80 1a 00
        E 0 80 26 00
        E 0 80 3d 00
        E 0 80 40 00
        E 0 80 49 00
        E 0 80 4c 00
        E 0 80 55 00
        E 0 80 58 00
        E 0 80 61 00
        E 0 80 64 00
        E 120 90 18 60
        E 0 90 19 60
        E 0 90 26 60
        E 0 90 54 60
        E 0 90 58 60
        E 0 90 60 60
        E 0 90 64 60
        E 120 80 18 00
        E 0 80 26 00
        E 0 80 54 00
        E 0 80 58 00
        E 0 80 60 00
        E 0 80 64 00
        E 120 80 19 00
        E 0 90 1a 60
        E 0 90 26 60
        E 0 90 3d 60
        E 0 90 40 60
        E 0 90 49 60
        E 0 90 4c 60
        E 0 90 55 60
        E 0 90 58 60
        E 0 90 61 60
        E 0 90 64 60
        E 120 80 1a 00
        E 0 80 26 00
        E 0 80 3d 00
        E 0 80 40 00
        E 0 80 49 00
        E 0 80 4c 00
        E 0 80 55 00
        E 0 80 58 00
        E 0 80 61 00
        E 0 80 64 00
        E 120 90 18 60
        E 0 90 19 60
        E 0 90 26 60
        E 0 90 54 60
        E 0 90 58 60
        E 0 90 60 60
        E 0 90 64 60
        E 120 80 18 00
        E 0 80 26 00
        E 0 80 54 00
        E 0 80 58 00
        E 0 80 60 00
        E 0 80 64 00
        E 120 80 19 00
        E 0 90 1a 60
        E 0 90 26 60
        E 0 90 3d 60
        E 0 90 40 60
        E 0 90 49 60
        E 0 90 4c 60
        E 0 90 55 60
        E 0 90 58 60
        E 0 90 61 60
        E 0 90 64 60
        E 120 80 1a 00
        E 0 80 26 00
        E 0 80 3d 00
        E 0 80 40 00
        E 0 80 49 00
        E 0 80 4c 00
        E 0 80 55 00
        E 0 80 58 00
        E 0 80 61 00
        E 0 80 64 00
        E 120 90 18 60
        E 0 90 19 60
        E 0 90 26 60
        E 0 90 54 60
        E 0 90 58 60
        E 0 90 60 60
        E 0 90 64 60
        E 120 80 18 00
        E 0 80 26 00
        E 0 80 54 00
        E 0 80 58 00
        E 0 80 60 00
        E 0 80 64 00
        E 120 80 19 00
        E 0 90 1a 60
        E 0 90 26 60
        E 0 90 3d 60
        E 0 90 40 60
        E 0 90 49 60
        E 0 90 4c 60
        E 0 90 55 60
        E 0 90 58 60
        E 0 90 61 60
        E 0 90 64 60
        E 120 80 1a 00
        E 0 80 26 00
        E 0 80 3d 00
        E 0 80 40 00
        E 0 80 49 00
        E 0 80 4c 00
        E 0 80 55 00
        E 0 80 58 00
        E 0 80 61 00
        E 0 80 64 00
        E 120 90 18 60
        E 0 90 19 60
        E 0 90 26 60
        E 0 90 54 60
        E 0 90 58 60
        E 0 90 60 60
        E 0 90 64 60
        E 120 80 18 00
        E 0 80 26 00
        E 0 80 54 00
        E 0 80 58 00
        E 0 80 60 00
        E 0 80 64 00
        E 120 80 19 00
        E 0 90 1a 60
        E 0 90 26 60
        E 0 90 3d 60
        E 0 90 40 60
        E 0 90 49 60
        E 0 90 4c 60
        E 0 90 55 60
        E 0 90 58 60
        E 0 90 61 60
        E 0 90 64 60
        E 120 80 1a 00
        E 0 80 26 00
        E 0 80 3d 00
        E 0 80 40 00
        E 0 80 49 00
        E 0 80 4c 00
        E 0 80 55 00
        E 0 80 58 00
        E 0 80 61 00
        E 0 80 64 00
        E 120 90 18 60
        E 0 90 19 60
        E 0 90 26 60
        E 0 90 54 60
        E 0 90 58 60
        E 0 90 60 60
        E 0 90 64 60
        E 120 80 18 00
        E 0 80 26 00
        E 0 80 54 00
        E 0 80 58 00
        E 0 80 60 00
        E 0 80 64 00
        E 120 80 19 00
        E 0 90 1a 60
        E 0 90 26 60
        E 0 90 3d 60
        E 0 90 40 60
        E 0 90 49 60
        E 0 90 4c 60
        E 0 90 55 60
        E 0 90 58 60
        E 0 90 61 60
        E 0 90 64 60
        E 120 80 1a 00
        E 0 80 26 00
        E 0 80 3d 00
        E 0 80 40 00
        E 0 80 49 00
        E 0 80 4c 00
        E 0 80 55 00
        E 0 80 58 00
        E 0 80 61 00
        E 0 80 64 00
        E 120 90 18 60
        E 0 90 19 60
        E 0 90 29 60
        E 0 90 54 60
        E 0 90 58 60
        E 0 90 60 60
        E 0 90 64 60
        E 120 80 18 00
        E 0 80 54 00
        E 0 80 58 00
        E 0 80 60 00
        E 0 80 64 00
        <X 120 0
          /wFbaWRsZV9pbnRlbnNlXQ==
        >
        E 0 80 19 00
        E 0 80 29 00
        E 5760 90 78 60
        E 0 90 79 60
        E 0 90 7a 60
        E 0 90 7b 60
        E 0 90 7c 60
        <X 720 0
          /wFbaW50ZW5zZV0=
        >
        E 0 90 31 60
        E 0 90 63 60
        E 0 90 6f 60
        E 120 80 31 00
        E 0 80 63 00
        E 0 90 1a 60
        E 0 90 61 60
        E 120 80 1a 00
        E 0 80 61 00
        E 0 90 31 60
        E 0 90 63 60
        E 120 80 31 00
        E 0 80 63 00
        E 0 90 1a 60
        E 0 90 61 60
        E 120 80 1a 00
        E 0 80 61 00
        E 0 90 31 60
        E 0 90 63 60
        E 120 80 31 00
        E 0 80 63 00
        E 0 90 1a 60
        E 0 90 61 60
        E 120 80 1a 00
        E 0 80 61 00
        E 0 90 31 60
        E 0 90 63 60
        E 120 80 6f 00
        E 0 80 31 00
        E 0 80 63 00
        E 120 90 1a 60
        E 0 90 55 60
        E 0 90 61 60
        E 120 80 1a 00
        E 0 80 55 00
        E 0 80 61 00
        E 120 80 78 00
        E 0 80 79 00
        E 0 80 7a 00
        E 0 80 7b 00
        E 0 80 7c 00
        E 0 90 18 60
        E 0 90 26 60
        E 0 90 40 60
        E 0 90 48 60
        E 0 90 4c 60
        E 0 90 54 60
        E 0 90 58 60
        E 0 90 60 60
        E 0 90 64 60
        E 120 80 18 00
        E 0 80 26 00
        E 0 80 40 00
        E 0 80 48 00
        E 0 80 4c 00
        E 0 80 54 00
        E 0 80 58 00
        E 0 80 60 00
        E 0 80 64 00
        E 120 90 18 60
        E 0 90 19 60
        E 0 90 26 60
        E 0 90 54 60
        E 0 90 58 60
        E 0 90 60 60
        E 0 90 64 60
        E 120 80 18 00
        E 0 80 26 00
        E 0 80 54 00
        E 0 80 58 00
        E 0 80 60 00
        E 0 80 64 00
        E 120 80 19 00
        E 0 90 1a 60
        E 0 90 26 60
        E 0 90 3d 60
        E 0 90 40 60
        E 0 90 49 60
        E 0 90 4c 60
        E 0 90 55 60
        E 0 90 58 60
        E 0 90 61 60
        E 0 90 64 60
        E 120 80 1a 00
        E 0 80 26 00
        E 0 80 3d 00
        E 0 80 40 00
        E 0 80 49 00
        E 0 80 4c 00
        E 0 80 55 00
        E 0 80 58 00
        E 0 80 61 00
        E 0 80 64 00
        E 120 90 18 60
        E 0 90 19 60
        E 0 90 26 60
        E 0 90 54 60
        E 0 90 58 60
        E 0 90 60 60
        E 0 90 64 60
        E 120 80 18 00
        E 0 80 26 00
        E 0 80 54 00
        E 0 80 58 00
        E 0 80 60 00
        E 0 80 64 00
        E 120 80 19 00
        E 0 90 1a 60
        E 0 90 26 60
        E 0 90 3d 60
        E 0 90 40 60
        E 0 90 49 60
        E 0 90 4c 60
        E 0 90 55 60
        E 0 90 58 60
        E 0 90 61 60
        E 0 90 64 60
        E 120 80 1a 00
        E 0 80 26 00
        E 0 80 3d 00
        E 0 80 40 00
        E 0 80 49 00
        E 0 80 4c 00
        E 0 80 55 00
        E 0 80 58 00
        E 0 80 61 00
        E 0 80 64 00
        E 120 90 18 60
        E 0 90 19 60
        E 0 90 26 60
        E 0 90 54 60
        E 0 90 58 60
        E 0 90 60 60
        E 0 90 64 60
        E 120 80 18 00
        E 0 80 26 00
        E 0 80 54 00
        E 0 80 58 00
        E 0 80 60 00
        E 0 80 64 00
        E 120 80 19 00
        E 0 90 1a 60
        E 0 90 26 60
        E 0 90 3d 60
        E 0 90 40 60
        E 0 90 49 60
        E 0 90 4c 60
        E 0 90 55 60
        E 0 90 58 60
        E 0 90 61 60
        E 0 90 64 60
        E 120 80 1a 00
        E 0 80 26 00
        E 0 80 3d 00
        E 0 80 40 00
        E 0 80 49 00
        E 0 80 4c 00
        E 0 80 55 00
        E 0 80 58 00
        E 0 80 61 00
        E 0 80 64 00
        E 120 90 18 60
        E 0 90 19 60
        E 0 90 26 60
        E 0 90 54 60
        E 0 90 58 60
        E 0 90 60 60
        E 0 90 64 60
        E 120 80 18 00
        E 0 80 26 00
        E 0 80 54 00
        E 0 80 58 00
        E 0 80 60 00
        E 0 80 64 00
        E 120 80 19 00
        E 0 90 1a 60
        E 0 90 26 60
        E 0 90 3d 60
        E 0 90 40 60
        E 0 90 49 60
        E 0 90 4c 60
        E 0 90 55 60
        E 0 90 58 60
        E 0 90 61 60
        E 0 90 64 60
        E 120 80 1a 00
        E 0 80 26 00
        E 0 80 3d 00
        E 0 80 40 00
        E 0 80 49 00
        E 0 80 4c 00
        E 0 80 55 00
        E 0 80 58 00
        E 0 80 61 00
        E 0 80 64 00
        E 120 90 18 60
        E 0 90 19 60
        E 0 90 26 60
        E 0 90 54 60
        E 0 90 58 60
        E 0 90 60 60
        E 0 90 64 60
        E 120 80 18 00
        E 0 80 26 00
        E 0 80 54 00
        E 0 80 58 00
        E 0 80 60 00
        E 0 80 64 00
        E 120 80 19 00
        E 0 90 1a 60
        E 0 90 26 60
        E 0 90 3d 60
        E 0 90 40 60
        E 0 90 49 60
        E 0 90 4c 60
        E 0 90 55 60
        E 0 90 58 60
        E 0 90 61 60
        E 0 90 64 60
        E 120 80 1a 00
        E 0 80 26 00
        E 0 80 3d 00
        E 0 80 40 00
        E 0 80 49 00
        E 0 80 4c 00
        E 0 80 55 00
        E 0 80 58 00
        E 0 80 61 00
        E 0 80 64 00
        E 120 90 19 60
        E 0 90 26 60
        E 0 90 58 60
        E 0 90 64 60
        E 120 80 26 00
        E 0 80 58 00
        E 0 80 64 00
        E 0 90 1a 60
        E 0 90 61 60
        E 120 80 19 00
        E 0 80 1a 00
        E 0 80 61 00
        E 0 90 18 60
        E 0 90 26 60
        E 0 90 40 60
        E 0 90 48 60
        E 0 90 4c 60
        E 0 90 54 60
        E 0 90 58 60
        E 0 90 60 60
        E 0 90 64 60
        E 120 80 18 00
        E 0 80 26 00
        E 0 80 40 00
        E 0 80 48 00
        E 0 80 4c 00
        E 0 80 54 00
        E 0 80 58 00
        E 0 80 60 00
        E 0 80 64 00
        E 0 90 1a 60
        E 0 90 61 60
        E 120 80 1a 00
        E 0 80 61 00
        E 0 90 18 60
        E 0 90 19 60
        E 0 90 26 60
        E 0 90 54 60
        E 0 90 58 60
        E 0 90 60 60
        E 0 90 64 60
        E 120 80 18 00
        E 0 80 26 00
        E 0 80 54 00
        E 0 80 58 00
        E 0 80 60 00
        E 0 80 64 00
        E 120 80 19 00
        E 0 90 1a 60
        E 0 90 26 60
        E 0 90 3d 60
        E 0 90 40 60
        E 0 90 49 60
        E 0 90 4c 60
        E 0 90 55 60
        E 0 90 58 60
        E 0 90 61 60
        E 0 90 64 60
        E 120 80 1a 00
        E 0 80 26 00
        E 0 80 3d 00
        E 0 80 40 00
        E 0 80 49 00
        E 0 80 4c 00
        E 0 80 55 00
        E 0 80 58 00
        E 0 80 61 00
        E 0 80 64 00
        E 120 90 18 60
        E 0 90 19 60
        E 0 90 26 60
        E 0 90 54 60
        E 0 90 58 60
        E 0 90 60 60
        E 0 90 64 60
        E 120 80 18 00
        E 0 80 26 00
        E 0 80 54 00
        E 0 80 58 00
        E 0 80 60 00
        E 0 80 64 00
        E 120 80 19 00
        E 0 90 18 60
        E 0 90 26 60
        E 0 90 40 60
        E 0 90 48 60
        E 0 90 4c 60
        E 0 90 54 60
        E 0 90 58 60
        E 0 90 60 60
        E 0 90 64 60
        E 120 80 18 00
        E 0 80 26 00
        E 0 80 40 00
        E 0 80 48 00
        E 0 80 4c 00
        E 0 80 54 00
        E 0 80 58 00
        E 0 80 60 00
        E 0 80 64 00
        E 120 90 18 60
        E 0 90 19 60
        E 0 90 26 60
        E 0 90 54 60
        E 0 90 58 60
        E 0 90 60 60
        E 0 90 64 60
        E 120 80 18 00
        E 0 80 26 00
        E 0 80 54 00
        E 0 80 58 00
        E 0 80 60 00
        E 0 80 64 00
        E 120 80 19 00
        E 0 90 1a 60
        E 0 90 26 60
        E 0 90 3d 60
        E 0 90 40 60
        E 0 90 49 60
        E 0 90 4c 60
        E 0 90 55 60
        E 0 90 58 60
        E 0 90 61 60
        E 0 90 64 60
        E 120 80 1a 00
        E 0 80 26 00
        E 0 80 3d 00
        E 0 80 40 00
        E 0 80 49 00
        E 0 80 4c 00
        E 0 80 55 00
        E 0 80 58 00
        E 0 80 61 00
        E 0 80 64 00
        E 120 90 18 60
        E 0 90 19 60
        E 0 90 26 60
        E 0 90 54 60
        E 0 90 58 60
        E 0 90 60 60
        E 0 90 64 60
        E 120 80 18 00
        E 0 80 26 00
        E 0 80 54 00
        E 0 80 58 00
        E 0 80 60 00
        E 0 80 64 00
        E 120 80 19 00
        E 0 90 1a 60
        E 0 90 26 60
        E 0 90 3d 60
        E 0 90 40 60
        E 0 90 49 60
        E 0 90 4c 60
        E 0 90 55 60
        E 0 90 58 60
        E 0 90 61 60
        E 0 90 64 60
        E 120 80 1a 00
        E 0 80 26 00
        E 0 80 3d 00
        E 0 80 40 00
        E 0 80 49 00
        E 0 80 4c 00
        E 0 80 55 00
        E 0 80 58 00
        E 0 80 61 00
        E 0 80 64 00
        E 120 90 18 60
        E 0 90 19 60
        E 0 90 26 60
        E 0 90 54 60
        E 0 90 58 60
        E 0 90 60 60
        E 0 90 64 60
        E 120 80 18 00
        E 0 80 26 00
        E 0 80 54 00
        E 0 80 58 00
        E 0 80 60 00
        E 0 80 64 00
        E 120 80 19 00
        E 0 90 1a 60
        E 0 90 26 60
        E 0 90 3d 60
        E 0 90 40 60
        E 0 90 49 60
        E 0 90 4c 60
        E 0 90 55 60
        E 0 90 58 60
        E 0 90 61 60
        E 0 90 64 60
        E 120 80 1a 00
        E 0 80 26 00
        E 0 80 3d 00
        E 0 80 40 00
        E 0 80 49 00
        E 0 80 4c 00
        E 0 80 55 00
        E 0 80 58 00
        E 0 80 61 00
        E 0 80 64 00
        E 120 90 18 60
        E 0 90 19 60
        E 0 90 26 60
        E 0 90 54 60
        E 0 90 58 60
        E 0 90 60 60
        E 0 90 64 60
        E 120 80 18 00
        E 0 80 26 00
        E 0 80 54 00
        E 0 80 58 00
        E 0 80 60 00
        E 0 80 64 00
        E 120 80 19 00
        E 0 90 1a 60
        E 0 90 26 60
        E 0 90 3d 60
        E 0 90 40 60
        E 0 90 49 60
        E 0 90 4c 60
        E 0 90 55 60
        E 0 90 58 60
        E 0 90 61 60
        E 0 90 64 60
        E 0 90 78 60
        E 0 90 79 60
        E 0 90 7a 60
        E 0 90 7b 60
        E 0 90 7c 60
        E 120 80 1a 00
        E 0 80 26 00
        E 0 80 3d 00
        E 0 80 40 00
        E 0 80 49 00
        E 0 80 4c 00
        E 0 80 55 00
        E 0 80 58 00
        E 0 80 61 00
        E 0 80 64 00
        E 120 90 18 60
        E 0 90 19 60
        E 0 90 26 60
        E 0 90 54 60
        E 0 90 58 60
        E 0 90 60 60
        E 0 90 64 60
        E 120 80 18 00
        E 0 80 26 00
        E 0 80 54 00
        E 0 80 58 00
        E 0 80 60 00
        E 0 80 64 00
        E 120 80 19 00
        E 0 90 1a 60
        E 0 90 26 60
        E 0 90 3d 60
        E 0 90 40 60
        E 0 90 49 60
        E 0 90 4c 60
        E 0 90 55 60
        E 0 90 58 60
        E 0 90 61 60
        E 0 90 64 60
        E 120 80 1a 00
        E 0 80 26 00
        E 0 80 3d 00
        E 0 80 40 00
        E 0 80 49 00
        E 0 80 4c 00
        E 0 80 55 00
        E 0 80 58 00
        E 0 80 61 00
        E 0 80 64 00
        E 120 90 19 60
        E 0 90 26 60
        E 0 90 58 60
        E 0 90 64 60
        E 120 80 26 00
        E 0 80 58 00
        E 0 80 64 00
        E 0 90 1a 60
        E 0 90 61 60
        E 120 80 19 00
        E 0 80 1a 00
        E 0 80 61 00
        E 0 90 18 60
        E 0 90 26 60
        E 0 90 40 60
        E 0 90 48 60
        E 0 90 4c 60
        E 0 90 54 60
        E 0 90 58 60
        E 0 90 60 60
        E 0 90 64 60
        E 120 80 18 00
        E 0 80 26 00
        E 0 80 40 00
        E 0 80 48 00
        E 0 80 4c 00
        E 0 80 54 00
        E 0 80 58 00
        E 0 80 60 00
        E 0 80 64 00
        E 0 90 1a 60
        E 0 90 61 60
        E 120 80 1a 00
        E 0 80 61 00
        E 0 90 18 60
        E 0 90 19 60
        E 0 90 26 60
        E 0 90 54 60
        E 0 90 58 60
        E 0 90 60 60
        E 0 90 64 60
        E 120 80 18 00
        E 0 80 26 00
        E 0 80 54 00
        E 0 80 58 00
        E 0 80 60 00
        E 0 80 64 00
        E 120 80 19 00
        E 0 90 1a 60
        E 0 90 26 60
        E 0 90 3d 60
        E 0 90 40 60
        E 0 90 49 60
        E 0 90 4c 60
        E 0 90 55 60
        E 0 90 58 60
        E 0 90 61 60
        E 0 90 64 60
        E 120 80 1a 00
        E 0 80 26 00
        E 0 80 3d 00
        E 0 80 40 00
        E 0 80 49 00
        E 0 80 4c 00
        E 0 80 55 00
        E 0 80 58 00
        E 0 80 61 00
        E 0 80 64 00
        E 120 90 18 60
        E 0 90 19 60
        E 0 90 26 60
        E 0 90 54 60
        E 0 90 58 60
        E 0 90 60 60
        E 0 90 64 60
        E 120 80 18 00
        E 0 80 26 00
        E 0 80 54 00
        E 0 80 58 00
        E 0 80 60 00
        E 0 80 64 00
        E 120 80 78 00
        E 0 80 79 00
        E 0 80 7a 00
        E 0 80 7b 00
        E 0 80 7c 00
        E 0 80 19 00
        E 0 90 18 60
        E 0 90 26 60
        E 0 90 40 60
        E 0 90 48 60
        E 0 90 4c 60
        E 0 90 54 60
        E 0 90 58 60
        E 0 90 60 60
        E 0 90 64 60
        E 120 80 18 00
        E 0 80 26 00
        E 0 80 40 00
        E 0 80 48 00
        E 0 80 4c 00
        E 0 80 54 00
        E 0 80 58 00
        E 0 80 60 00
        E 0 80 64 00
        E 120 90 18 60
        E 0 90 19 60
        E 0 90 26 60
        E 0 90 54 60
        E 0 90 58 60
        E 0 90 60 60
        E 0 90 64 60
        E 120 80 18 00
        E 0 80 26 00
        E 0 80 54 00
        E 0 80 58 00
        E 0 80 60 00
        E 0 80 64 00
        E 120 80 19 00
        E 0 90 1a 60
        E 0 90 26 60
        E 0 90 3d 60
        E 0 90 40 60
        E 0 90 49 60
        E 0 90 4c 60
        E 0 90 55 60
        E 0 90 58 60
        E 0 90 61 60
        E 0 90 64 60
        E 120 80 1a 00
        E 0 80 26 00
        E 0 80 3d 00
        E 0 80 40 00
        E 0 80 49 00
        E 0 80 4c 00
        E 0 80 55 00
        E 0 80 58 00
        E 0 80 61 00
        E 0 80 64 00
        E 120 90 18 60
        E 0 90 19 60
        E 0 90 26 60
        E 0 90 54 60
        E 0 90 58 60
        E 0 90 60 60
        E 0 90 64 60
        E 120 80 18 00
        E 0 80 26 00
        E 0 80 54 00
        E 0 80 58 00
        E 0 80 60 00
        E 0 80 64 00
        E 120 80 19 00
        E 0 90 1a 60
        E 0 90 26 60
        E 0 90 3d 60
        E 0 90 40 60
        E 0 90 49 60
        E 0 90 4c 60
        E 0 90 55 60
        E 0 90 58 60
        E 0 90 61 60
        E 0 90 64 60
        E 120 80 1a 00
        E 0 80 26 00
        E 0 80 3d 00
        E 0 80 40 00
        E 0 80 49 00
        E 0 80 4c 00
        E 0 80 55 00
        E 0 80 58 00
        E 0 80 61 00
        E 0 80 64 00
        E 120 90 18 60
        E 0 90 19 60
        E 0 90 26 60
        E 0 90 54 60
        E 0 90 58 60
        E 0 90 60 60
        E 0 90 64 60
        E 120 80 18 00
        E 0 80 26 00
        E 0 80 54 00
        E 0 80 58 00
        E 0 80 60 00
        E 0 80 64 00
        E 120 80 19 00
        E 0 90 1a 60
        E 0 90 26 60
        E 0 90 3d 60
        E 0 90 40 60
        E 0 90 49 60
        E 0 90 4c 60
        E 0 90 55 60
        E 0 90 58 60
        E 0 90 61 60
        E 0 90 64 60
        E 120 80 1a 00
        E 0 80 26 00
        E 0 80 3d 00
        E 0 80 40 00
        E 0 80 49 00
        E 0 80 4c 00
        E 0 80 55 00
        E 0 80 58 00
        E 0 80 61 00
        E 0 80 64 00
        E 120 90 18 60
        E 0 90 19 60
        E 0 90 26 60
        E 0 90 54 60
        E 0 90 58 60
        E 0 90 60 60
        E 0 90 64 60
        E 120 80 18 00
        E 0 80 26 00
        E 0 80 54 00
        E 0 80 58 00
        E 0 80 60 00
        E 0 80 64 00
        E 120 80 19 00
        E 0 90 1a 60
        E 0 90 26 60
        E 0 90 3d 60
        E 0 90 40 60
        E 0 90 49 60
        E 0 90 4c 60
        E 0 90 55 60
        E 0 90 58 60
        E 0 90 61 60
        E 0 90 64 60
        E 120 80 1a 00
        E 0 80 26 00
        E 0 80 3d 00
        E 0 80 40 00
        E 0 80 49 00
        E 0 80 4c 00
        E 0 80 55 00
        E 0 80 58 00
        E 0 80 61 00
        E 0 80 64 00
        E 120 90 18 60
        E 0 90 19 60
        E 0 90 26 60
        E 0 90 54 60
        E 0 90 58 60
        E 0 90 60 60
        E 0 90 64 60
        E 120 80 18 00
        E 0 80 26 00
        E 0 80 54 00
        E 0 80 58 00
        E 0 80 60 00
        E 0 80 64 00
        E 120 80 19 00
        E 0 90 1a 60
        E 0 90 26 60
        E 0 90 3d 60
        E 0 90 40 60
        E 0 90 49 60
        E 0 90 4c 60
        E 0 90 55 60
        E 0 90 58 60
        E 0 90 61 60
        E 0 90 64 60
        E 120 80 1a 00
        E 0 80 26 00
        E 0 80 3d 00
        E 0 80 40 00
        E 0 80 49 00
        E 0 80 4c 00
        E 0 80 55 00
        E 0 80 58 00
        E 0 80 61 00
        E 0 80 64 00
        E 120 90 18 60
        E 0 90 19 60
        E 0 90 26 60
        E 0 90 54 60
        E 0 90 58 60
        E 0 90 60 60
        E 0 90 64 60
        E 120 80 18 00
        E 0 80 26 00
        E 0 80 54 00
        E 0 80 58 00
        E 0 80 60 00
        E 0 80 64 00
        E 0 90 1a 60
        E 0 90 61 60
        E 120 80 19 00
        E 0 80 1a 00
        E 0 80 61 00
        E 0 90 18 60
        E 0 90 26 60
        E 0 90 40 60
        E 0 90 48 60
        E 0 90 4c 60
        E 0 90 54 60
        E 0 90 58 60
        E 0 90 60 60
        E 0 90 64 60
        E 120 80 18 00
        E 0 80 26 00
        E 0 80 40 00
        E 0 80 48 00
        E 0 80 4c 00
        E 0 80 54 00
        E 0 80 58 00
        E 0 80 60 00
        E 0 80 64 00
        E 0 90 1a 60
        E 0 90 61 60
        E 120 80 1a 00
        E 0 80 61 00
        E 0 90 18 60
        E 0 90 19 60
        E 0 90 26 60
        E 0 90 54 60
        E 0 90 58 60
        E 0 90 60 60
        E 0 90 64 60
        E 120 80 18 00
        E 0 80 26 00
        E 0 80 54 00
        E 0 80 58 00
        E 0 80 60 00
        E 0 80 64 00
        E 120 80 19 00
        E 0 90 1a 60
        E 0 90 26 60
        E 0 90 3d 60
        E 0 90 40 60
        E 0 90 49 60
        E 0 90 4c 60
        E 0 90 55 60
        E 0 90 58 60
        E 0 90 61 60
        E 0 90 64 60
        E 120 80 1a 00
        E 0 80 26 00
        E 0 80 3d 00
        E 0 80 40 00
        E 0 80 49 00
        E 0 80 4c 00
        E 0 80 55 00
        E 0 80 58 00
        E 0 80 61 00
        E 0 80 64 00
        E 120 90 18 60
        E 0 90 19 60
        E 0 90 26 60
        E 0 90 54 60
        E 0 90 58 60
        E 0 90 60 60
        E 0 90 64 60
        E 120 80 18 00
        E 0 80 26 00
        E 0 80 54 00
        E 0 80 58 00
        E 0 80 60 00
        E 0 80 64 00
        E 120 80 19 00
        E 0 90 18 60
        E 0 90 26 60
        E 0 90 40 60
        E 0 90 48 60
        E 0 90 4c 60
        E 0 90 54 60
        E 0 90 58 60
        E 0 90 60 60
        E 0 90 64 60
        E 120 80 18 00
        E 0 80 26 00
        E 0 80 40 00
        E 0 80 48 00
        E 0 80 4c 00
        E 0 80 54 00
        E 0 80 58 00
        E 0 80 60 00
        E 0 80 64 00
        E 120 90 18 60
        E 0 90 19 60
        E 0 90 26 60
        E 0 90 54 60
        E 0 90 58 60
        E 0 90 60 60
        E 0 90 64 60
        E 120 80 18 00
        E 0 80 26 00
        E 0 80 54 00
        E 0 80 58 00
        E 0 80 60 00
        E 0 80 64 00
        E 120 80 19 00
        E 0 90 1a 60
        E 0 90 26 60
        E 0 90 3d 60
        E 0 90 40 60
        E 0 90 49 60
        E 0 90 4c 60
        E 0 90 55 60
        E 0 90 58 60
        E 0 90 61 60
        E 0 90 64 60
        E 120 80 1a 00
        E 0 80 26 00
        E 0 80 3d 00
        E 0 80 40 00
        E 0 80 49 00
        E 0 80 4c 00
        E 0 80 55 00
        E 0 80 58 00
        E 0 80 61 00
        E 0 80 64 00
        E 120 90 18 60
        E 0 90 19 60
        E 0 90 26 60
        E 0 90 54 60
        E 0 90 58 60
        E 0 90 60 60
        E 0 90 64 60
        E 120 80 18 00
        E 0 80 26 00
        E 0 80 54 00
        E 0 80 58 00
        E 0 80 60 00
        E 0 80 64 00
        E 120 80 19 00
        E 0 90 1a 60
        E 0 90 26 60
        E 0 90 3d 60
        E 0 90 40 60
        E 0 90 49 60
        E 0 90 4c 60
        E 0 90 55 60
        E 0 90 58 60
        E 0 90 61 60
        E 0 90 64 60
        E 120 80 1a 00
        E 0 80 26 00
        E 0 80 3d 00
        E 0 80 40 00
        E 0 80 49 00
        E 0 80 4c 00
        E 0 80 55 00
        E 0 80 58 00
        E 0 80 61 00
        E 0 80 64 00
        E 120 90 18 60
        E 0 90 19 60
        E 0 90 26 60
        E 0 90 54 60
        E 0 90 58 60
        E 0 90 60 60
        E 0 90 64 60
        E 120 80 18 00
        E 0 80 26 00
        E 0 80 54 00
        E 0 80 58 00
        E 0 80 60 00
        E 0 80 64 00
        E 120 80 19 00
        E 0 90 1a 60
        E 0 90 26 60
        E 0 90 3d 60
        E 0 90 40 60
        E 0 90 49 60
        E 0 90 4c 60
        E 0 90 55 60
        E 0 90 58 60
        E 0 90 61 60
        E 0 90 64 60
        E 120 80 1a 00
        E 0 80 26 00
        E 0 80 3d 00
        E 0 80 40 00
        E 0 80 49 00
        E 0 80 4c 00
        E 0 80 55 00
        E 0 80 58 00
        E 0 80 61 00
        E 0 80 64 00
        E 120 90 18 60
        E 0 90 19 60
        E 0 90 26 60
        E 0 90 54 60
        E 0 90 58 60
        E 0 90 60 60
        E 0 90 64 60
        E 120 80 18 00
        E 0 80 26 00
        E 0 80 54 00
        E 0 80 58 00
        E 0 80 60 00
        E 0 80 64 00
        E 120 80 19 00
        E 0 90 1a 60
        E 0 90 26 60
        E 0 90 3d 60
        E 0 90 40 60
        E 0 90 49 60
        E 0 90 4c 60
        E 0 90 55 60
        E 0 90 58 60
        E 0 90 61 60
        E 0 90 64 60
        E 120 80 1a 00
        E 0 80 26 00
        E 0 80 3d 00
        E 0 80 40 00
        E 0 80 49 00
        E 0 80 4c 00
        E 0 80 55 00
        E 0 80 58 00
        E 0 80 61 00
        E 0 80 64 00
        E 120 90 18 60
        E 0 90 19 60
        E 0 90 26 60
        E 0 90 54 60
        E 0 90 58 60
        E 0 90 60 60
        E 0 90 64 60
        E 120 80 18 00
        E 0 80 26 00
        E 0 80 54 00
        E 0 80 58 00
        E 0 80 60 00
        E 0 80 64 00
        E 120 80 19 00
        E 0 90 1a 60
        E 0 90 26 60
        E 0 90 3d 60
        E 0 90 40 60
        E 0 90 49 60
        E 0 90 4c 60
        E 0 90 55 60
        E 0 90 58 60
        E 0 90 61 60
        E 0 90 64 60
        E 120 80 1a 00
        E 0 80 26 00
        E 0 80 3d 00
        E 0 80 40 00
        E 0 80 49 00
        E 0 80 4c 00
        E 0 80 55 00
        E 0 80 58 00
        E 0 80 61 00
        E 0 80 64 00
        E 120 90 18 60
        E 0 90 19 60
        E 0 90 26 60
        E 0 90 54 60
        E 0 90 58 60
        E 0 90 60 60
        E 0 90 64 60
        E 120 80 18 00
        E 0 80 26 00
        E 0 80 54 00
        E 0 80 58 00
        E 0 80 60 00
        E 0 80 64 00
        E 120 80 19 00
        E 0 90 18 60
        E 0 90 1a 60
        E 0 90 26 60
        E 0 90 3d 60
        E 0 90 40 60
        E 0 90 49 60
        E 0 90 4c 60
        E 0 90 54 60
        E 0 90 55 60
        E 0 90 58 60
        E 0 90 60 60
        E 0 90 61 60
        E 0 90 64 60
        E 120 80 18 00
        E 0 80 1a 00
        E 0 80 26 00
        E 0 80 3d 00
        E 0 80 40 00
        E 0 80 49 00
        E 0 80 4c 00
        E 0 80 54 00
        E 0 80 55 00
        E 0 80 58 00
        E 0 80 60 00
        E 0 80 61 00
        E 0 80 64 00
        E 120 90 18 60
        E 0 90 19 60
        E 0 90 26 60
        E 0 90 54 60
        E 0 90 58 60
        E 0 90 60 60
        E 0 90 64 60
        E 120 80 18 00
        E 0 80 26 00
        E 0 80 54 00
        E 0 80 58 00
        E 0 80 60 00
        E 0 80 64 00
        E 120 80 19 00
        E 0 90 18 60
        E 0 90 29 60
        E 0 90 40 60
        E 0 90 48 60
        E 0 90 4c 60
        E 0 90 54 60
        E 0 90 58 60
        E 0 90 60 60
        E 0 90 64 60
        E 120 80 18 00
        E 0 80 40 00
        E 0 80 48 00
        E 0 80 4c 00
        E 0 80 54 00
        E 0 80 58 00
        E 0 80 60 00
        E 0 80 64 00
        <X 120 0
          /wFbaWRsZV9yZWFsdGltZV0=
        >
        E 0 80 29 00
        E 4080 b0 7b 00
        GUID {F504C994-B463-408C-9CDA-FD48A647756E}
        IGNTEMPO 0 120.00000000 4 4
        SRCCOLOR 3
        VELLANE 132 128 60
        COLORMAP "C:\Program Files\REAPER (x64)\Data\color_maps\rockband_guitarbass.png"
        CFGEDITVIEW 73267.438648 80.941760 12 12 0 0 0
        CFGEDIT 1 1 0 1 1 0 1 1 1 1 1 0.25000000 -8 -8 1544 872 0 2 1 1 0.00000000 0 1 0 0 0.500000 0 0 1.000000 64
        KEYSNAP 0 6 "102030050700" 0 "Pentatonic"
        EVTFILTER 0 -1 -1 -1 -1 0 1 0 0 -1.00000000 -1.00000000
      >
    >
  >
  <TRACK '{1CF3606B-F2E4-4ADA-AED2-8E8046DBD9AF}'
    NAME "PART BASS"
    PEAKCOL 16576
    BEAT -1
    AUTOMODE 0
    VOLPAN 1.00000000000000 0.00000000000000 -1.00000000000000 -1.00000000000000 1.00000000000000
    MUTESOLO 0 0 0
    IPHASE 0
    ISBUS 0 0
    BUSCOMP 0 0
    SHOWINMIX 1 0.666700 0.500000 1 0.500000 -1 -1 -1
    FREEMODE 0
    SEL 0
    REC 0 0 0 0 0 0 0
    VU 2
    TRACKHEIGHT 0 0
    INQ 0 0 0 0.5000000000 100 0 0 100
    NCHAN 2
    FX 1
    TRACKID {1CF3606B-F2E4-4ADA-AED2-8E8046DBD9AF}
    PERF 0
    MIDIOUT -1
    <MIDINOTENAMES
      0 127 "TRILL MARKER"
      0 126 "TREMOLO MARKER"
      0 125 "---"
      0 124 "BRE"
      0 123 "BRE"
      0 122 "BRE"
      0 121 "BRE"
      0 120 "BRE (use all 5)"
      0 119 "----"
      0 116 "OVERDRIVE"
      0 115 "----"
      0 103 "Solo Marker"
      0 102 "Force HOPO Off"
      0 101 "Force HOPO On"
      0 100 "EXPERT Orange"
      0 99 "EXPERT Blue"
      0 98 "EXPERT Yellow"
      0 97 "EXPERT Red"
      0 96 "EXPERT Green"
      0 95 "----"
      0 90 "Force HOPO Off"
      0 89 "Force HOPO On"
      0 88 "HARD Orange"
      0 87 "HARD Blue"
      0 86 "HARD Yellow"
      0 85 "HARD Red"
      0 84 "HARD Green"
      0 77 "----"
      0 76 "MEDIUM Orange"
      0 75 "MEDIUM Blue"
      0 74 "MEDIUM Yellow"
      0 73 "MEDIUM Red"
      0 72 "MEDIUM Green"
      0 65 "----"
      0 64 "EASY Orange"
      0 63 "EASY Blue"
      0 62 "EASY Yellow"
      0 61 "EASY Red"
      0 60 "EASY Green"
      0 59 "Fret 12"
      0 57 "Fret 11"
      0 56 "Fret 10"
      0 55 "Fret 9"
      0 53 "Fret 8"
      0 52 "Fret 7"
      0 50 "Fret 6"
      0 49 "Fret 5"
      0 47 "Fret 4"
      0 45 "Fret 3"
      0 43 "Fret 2"
      0 40 "Fret 1"
    >
    MAINSEND 1 0
    <FXCHAIN
      WNDRECT 0 43 891 559
      SHOW 0
      LASTSEL 0
      DOCKED 0
      BYPASS 0 0
      <VST "VSTi: RBN Preview (RBN)" "rbprev_vst64.dll" 0 ""
        dnBicu5e7f4AAAAAAgAAAAEAAAAAAAAAAgAAAAAAAAAEAAAAAQAAAA==
        AAAQAAMAqgAAABAAAAA=
      >
      FLOATPOS 0 0 0 0
      FXID {D8866FB8-FD01-4FCE-9432-35A84DCCACED}
      WAK 0
    >
    <ITEM
      POSITION 0.00000000000000
      SNAPOFFS 0.00000000000000
      LENGTH 107.89371100000000
      LOOP 0
      ALLTAKES 0
      SEL 0
      FADEIN 1 0.000000 0.000000 1 0
      FADEOUT 1 0.000000 0.000000 1 0
      MUTE 0
      IGUID {C85CC38B-2155-49CB-8430-5D6A8EA4169F}
      IID 2
      NAME "PART BASS"
      VOLPAN 1.000000 0.000000 1.000000 -1.000000
      SOFFS 0.00000000000000 0.00000000000000
      PLAYRATE 1.00000000000000 1 0.00000000000000 -1
      CHANMODE 0
      GUID {43629BAC-DEC1-4530-A3CC-5CFE69D84DA6}
      <SOURCE MIDI
        HASDATA 1 480 QN
        POOLEDEVTS {41C4170F-5721-4B0F-9FA0-D6D53F910AEB}
        <X 0 0
          /wNQQVJUIEJBU1M=
        >
        <X 0 0
          /wFbbWFwIFN0cnVtTWFwX1BpY2td
        >
        <X 3840 0
          /wFbcGxheV0=
        >
        E 0 90 28 60
        E 0 90 3c 60
        E 0 90 48 60
        E 0 90 54 60
        E 0 90 60 60
        E 120 80 3c 00
        E 0 80 48 00
        E 0 80 54 00
        E 0 80 60 00
        E 120 90 48 60
        E 0 90 54 60
        E 0 90 60 60
        E 120 80 48 00
        E 0 80 54 00
        E 0 80 60 00
        E 120 90 3c 60
        E 0 90 48 60
        E 0 90 54 60
        E 0 90 60 60
        E 120 80 28 00
        E 0 80 3c 00
        E 0 80 48 00
        E 0 80 54 00
        E 0 80 60 00
        E 120 90 2d 60
        E 0 90 56 60
        E 0 90 62 60
        E 120 80 56 00
        E 0 80 62 00
        E 360 90 4a 60
        E 0 90 56 60
        E 0 90 62 60
        E 120 80 4a 00
        E 0 80 56 00
        E 0 80 62 00
        E 120 90 3e 60
        E 0 90 4a 60
        E 0 90 56 60
        E 0 90 62 60
        E 120 80 2d 00
        E 0 80 3e 00
        E 0 80 4a 00
        E 0 80 56 00
        E 0 80 62 00
        E 120 90 2f 60
        E 0 90 57 60
        E 0 90 63 60
        E 120 80 57 00
        E 0 80 63 00
        E 360 90 4b 60
        E 0 90 57 60
        E 0 90 63 60
        E 120 80 4b 00
        E 0 80 57 00
        E 0 80 63 00
        E 120 90 4b 60
        E 0 90 57 60
        E 0 90 63 60
        E 120 80 4b 00
        E 0 80 57 00
        E 0 80 63 00
        E 120 90 55 60
        E 0 90 61 60
        E 120 80 2f 00
        E 0 80 55 00
        E 0 80 61 00
        E 120 90 28 60
        E 0 90 3d 60
        E 0 90 49 60
        E 0 90 55 60
        E 0 90 61 60
        E 120 80 3d 00
        E 0 80 49 00
        E 0 80 55 00
        E 0 80 61 00
        E 120 90 49 60
        E 0 90 55 60
        E 0 90 61 60
        E 120 80 49 00
        E 0 80 55 00
        E 0 80 61 00
        E 120 90 49 60
        E 0 90 55 60
        E 0 90 61 60
        E 120 80 49 00
        E 0 80 55 00
        E 0 80 61 00
        E 120 90 55 60
        E 0 90 61 60
        E 120 80 55 00
        E 0 80 61 00
        E 120 90 3c 60
        E 0 90 48 60
        E 0 90 54 60
        E 0 90 60 60
        E 120 80 3c 00
        E 0 80 48 00
        E 0 80 54 00
        E 0 80 60 00
        E 120 90 48 60
        E 0 90 54 60
        E 0 90 60 60
        E 120 80 48 00
        E 0 80 54 00
        E 0 80 60 00
        E 120 90 3c 60
        E 0 90 48 60
        E 0 90 54 60
        E 0 90 60 60
        E 120 80 28 00
        E 0 80 3c 00
        E 0 80 48 00
        E 0 80 54 00
        E 0 80 60 00
        E 120 90 2d 60
        E 0 90 56 60
        E 0 90 62 60
        E 120 80 56 00
        E 0 80 62 00
        E 360 90 4a 60
        E 0 90 56 60
        E 0 90 62 60
        E 120 80 4a 00
        E 0 80 56 00
        E 0 80 62 00
        E 120 90 3e 60
        E 0 90 4a 60
        E 0 90 56 60
        E 0 90 62 60
        E 120 80 2d 00
        E 0 80 3e 00
        E 0 80 4a 00
        E 0 80 56 00
        E 0 80 62 00
        E 120 90 57 60
        E 0 90 63 60
        E 0 90 2f 60
        E 120 80 57 00
        E 0 80 63 00
        E 360 90 4b 60
        E 0 90 57 60
        E 0 90 63 60
        E 120 80 4b 00
        E 0 80 57 00
        E 0 80 63 00
        E 120 90 4b 60
        E 0 90 57 60
        E 0 90 63 60
        E 120 80 4b 00
        E 0 80 57 00
        E 0 80 63 00
        E 120 90 55 60
        E 0 90 61 60
        E 120 80 2f 00
        E 0 80 55 00
        E 0 80 61 00
        E 120 90 28 60
        E 0 90 3d 60
        E 0 90 49 60
        E 0 90 55 60
        E 0 90 61 60
        E 120 80 3d 00
        E 0 80 49 00
        E 0 80 55 00
        E 0 80 61 00
        E 120 90 49 60
        E 0 90 55 60
        E 0 90 61 60
        E 120 80 49 00
        E 0 80 55 00
        E 0 80 61 00
        E 120 90 49 60
        E 0 90 55 60
        E 0 90 61 60
        E 120 80 49 00
        E 0 80 55 00
        E 0 80 61 00
        E 120 90 55 60
        E 0 90 61 60
        E 120 80 55 00
        E 0 80 61 00
        E 120 90 3c 60
        E 0 90 48 60
        E 0 90 54 60
        E 0 90 60 60
        E 120 80 3c 00
        E 0 80 48 00
        E 0 80 54 00
        E 0 80 60 00
        E 120 90 48 60
        E 0 90 54 60
        E 0 90 60 60
        E 120 80 48 00
        E 0 80 54 00
        E 0 80 60 00
        E 120 90 3c 60
        E 0 90 48 60
        E 0 90 54 60
        E 0 90 60 60
        E 120 80 28 00
        E 0 80 3c 00
        E 0 80 48 00
        E 0 80 54 00
        E 0 80 60 00
        E 120 90 2d 60
        E 0 90 56 60
        E 0 90 62 60
        E 120 80 56 00
        E 0 80 62 00
        E 360 90 4a 60
        E 0 90 56 60
        E 0 90 62 60
        E 120 80 4a 00
        E 0 80 56 00
        E 0 80 62 00
        E 120 90 3e 60
        E 0 90 4a 60
        E 0 90 56 60
        E 0 90 62 60
        E 120 80 2d 00
        E 0 80 3e 00
        E 0 80 4a 00
        E 0 80 56 00
        E 0 80 62 00
        E 120 90 2f 60
        E 0 90 57 60
        E 0 90 63 60
        E 120 80 57 00
        E 0 80 63 00
        E 360 90 4b 60
        E 0 90 57 60
        E 0 90 63 60
        E 120 80 4b 00
        E 0 80 57 00
        E 0 80 63 00
        E 120 90 4b 60
        E 0 90 57 60
        E 0 90 63 60
        E 120 80 4b 00
        E 0 80 57 00
        E 0 80 63 00
        E 120 90 55 60
        E 0 90 61 60
        E 120 80 2f 00
        E 0 80 55 00
        E 0 80 61 00
        E 120 90 3d 60
        E 0 90 49 60
        E 0 90 55 60
        E 0 90 61 60
        E 0 90 28 60
        E 120 80 3d 00
        E 0 80 49 00
        E 0 80 55 00
        E 0 80 61 00
        E 120 90 49 60
        E 0 90 55 60
        E 0 90 61 60
        E 120 80 49 00
        E 0 80 55 00
        E 0 80 61 00
        E 120 90 49 60
        E 0 90 55 60
        E 0 90 61 60
        E 120 80 49 00
        E 0 80 55 00
        E 0 80 61 00
        E 120 90 55 60
        E 0 90 61 60
        E 120 80 55 00
        E 0 80 61 00
        E 120 90 3c 60
        E 0 90 48 60
        E 0 90 54 60
        E 0 90 60 60
        E 0 90 74 60
        E 120 80 3c 00
        E 0 80 48 00
        E 0 80 54 00
        E 0 80 60 00
        E 120 90 48 60
        E 0 90 54 60
        E 0 90 60 60
        E 120 80 48 00
        E 0 80 54 00
        E 0 80 60 00
        E 120 90 3c 60
        E 0 90 48 60
        E 0 90 54 60
        E 0 90 60 60
        E 120 80 28 00
        E 0 80 3c 00
        E 0 80 48 00
        E 0 80 54 00
        E 0 80 60 00
        E 120 90 2d 60
        E 0 90 56 60
        E 0 90 62 60
        E 120 80 56 00
        E 0 80 62 00
        E 360 90 4a 60
        E 0 90 56 60
        E 0 90 62 60
        E 120 80 4a 00
        E 0 80 56 00
        E 0 80 62 00
        E 120 90 3e 60
        E 0 90 4a 60
        E 0 90 56 60
        E 0 90 62 60
        E 120 80 2d 00
        E 0 80 3e 00
        E 0 80 4a 00
        E 0 80 56 00
        E 0 80 62 00
        E 120 90 2f 60
        E 0 90 57 60
        E 0 90 63 60
        E 120 80 57 00
        E 0 80 63 00
        E 360 90 4b 60
        E 0 90 57 60
        E 0 90 63 60
        E 120 80 4b 00
        E 0 80 57 00
        E 0 80 63 00
        E 120 90 4b 60
        E 0 90 57 60
        E 0 90 63 60
        E 120 80 4b 00
        E 0 80 57 00
        E 0 80 63 00
        E 120 90 55 60
        E 0 90 61 60
        E 120 80 2f 00
        E 0 80 55 00
        E 0 80 61 00
        E 120 90 28 60
        E 0 90 3d 60
        E 0 90 49 60
        E 0 90 55 60
        E 0 90 61 60
        E 120 80 3d 00
        E 0 80 49 00
        E 0 80 55 00
        E 0 80 61 00
        E 120 90 49 60
        E 0 90 55 60
        E 0 90 61 60
        E 120 80 49 00
        E 0 80 55 00
        E 0 80 61 00
        E 120 90 49 60
        E 0 90 55 60
        E 0 90 61 60
        E 120 80 49 00
        E 0 80 55 00
        E 0 80 61 00
        E 120 90 55 60
        E 0 90 61 60
        E 120 80 55 00
        E 0 80 61 00
        E 120 90 3c 60
        E 0 90 48 60
        E 0 90 54 60
        E 0 90 60 60
        E 120 80 74 00
        E 0 80 3c 00
        E 0 80 48 00
        E 0 80 54 00
        E 0 80 60 00
        E 120 90 48 60
        E 0 90 54 60
        E 0 90 60 60
        E 120 80 48 00
        E 0 80 54 00
        E 0 80 60 00
        E 120 90 3c 60
        E 0 90 48 60
        E 0 90 54 60
        E 0 90 60 60
        E 120 80 3c 00
        E 0 80 48 00
        E 0 80 54 00
        E 0 80 60 00
        E 120 90 48 60
        E 0 90 54 60
        E 0 90 60 60
        E 120 80 28 00
        E 0 80 48 00
        E 0 80 54 00
        E 0 80 60 00
        E 360 90 31 60
        E 0 90 4a 60
        E 0 90 56 60
        E 0 90 62 60
        E 120 80 4a 00
        E 480 80 31 00
        E 0 80 56 00
        E 0 80 62 00
        E 120 90 3c 60
        E 0 90 48 60
        E 0 90 54 60
        E 0 90 60 60
        E 0 90 28 60
        E 120 80 3c 00
        E 0 80 48 00
        E 0 80 54 00
        E 0 80 60 00
        E 120 90 48 60
        E 0 90 54 60
        E 0 90 60 60
        E 120 80 48 00
        E 0 80 54 00
        E 0 80 60 00
        E 120 90 3c 60
        E 0 90 48 60
        E 0 90 54 60
        E 0 90 60 60
        E 120 80 3c 00
        E 0 80 48 00
        E 0 80 54 00
        E 0 80 60 00
        E 120 90 48 60
        E 0 90 54 60
        E 0 90 60 60
        E 120 80 28 00
        E 0 80 48 00
        E 0 80 54 00
        E 0 80 60 00
        E 360 90 4a 60
        E 0 90 56 60
        E 0 90 62 60
        E 0 90 31 60
        E 120 80 4a 00
        E 480 80 56 00
        E 0 80 62 00
        E 0 80 31 00
        E 120 90 3c 60
        E 0 90 48 60
        E 0 90 54 60
        E 0 90 60 60
        E 0 90 28 60
        E 120 80 3c 00
        E 0 80 48 00
        E 0 80 54 00
        E 0 80 60 00
        E 120 90 48 60
        E 0 90 54 60
        E 0 90 60 60
        E 120 80 48 00
        E 0 80 54 00
        E 0 80 60 00
        E 120 90 3c 60
        E 0 90 48 60
        E 0 90 54 60
        E 0 90 60 60
        E 120 80 3c 00
        E 0 80 48 00
        E 0 80 54 00
        E 0 80 60 00
        E 120 90 48 60
        E 0 90 54 60
        E 0 90 60 60
        E 120 80 28 00
        E 0 80 48 00
        E 0 80 54 00
        E 0 80 60 00
        E 360 90 4a 60
        E 0 90 56 60
        E 0 90 62 60
        E 0 90 31 60
        E 120 80 4a 00
        E 480 80 56 00
        E 0 80 62 00
        E 0 80 31 00
        E 120 90 3c 60
        E 0 90 48 60
        E 0 90 54 60
        E 0 90 60 60
        E 0 90 28 60
        E 120 80 3c 00
        E 0 80 48 00
        E 0 80 54 00
        E 0 80 60 00
        E 120 90 48 60
        E 0 90 54 60
        E 0 90 60 60
        E 120 80 48 00
        E 0 80 54 00
        E 0 80 60 00
        E 120 90 3c 60
        E 0 90 48 60
        E 0 90 54 60
        E 0 90 60 60
        E 120 80 3c 00
        E 0 80 48 00
        E 0 80 54 00
        E 0 80 60 00
        E 120 90 48 60
        E 0 90 54 60
        E 0 90 60 60
        E 120 80 28 00
        E 0 80 48 00
        E 0 80 54 00
        E 0 80 60 00
        E 360 90 4a 60
        E 0 90 56 60
        E 0 90 62 60
        E 0 90 31 60
        E 120 80 4a 00
        E 480 80 56 00
        E 0 80 62 00
        E 0 80 31 00
        E 120 90 3c 60
        E 0 90 48 60
        E 0 90 54 60
        E 0 90 60 60
        E 0 90 28 60
        E 120 80 3c 00
        E 0 80 48 00
        E 0 80 54 00
        E 0 80 60 00
        E 120 90 48 60
        E 0 90 54 60
        E 0 90 60 60
        E 120 80 48 00
        E 0 80 54 00
        E 0 80 60 00
        E 120 90 3c 60
        E 0 90 48 60
        E 0 90 54 60
        E 0 90 60 60
        E 120 80 3c 00
        E 0 80 48 00
        E 0 80 54 00
        E 0 80 60 00
        E 120 90 48 60
        E 0 90 54 60
        E 0 90 60 60
        E 120 80 28 00
        E 0 80 48 00
        E 0 80 54 00
        E 0 80 60 00
        E 360 90 4a 60
        E 0 90 56 60
        E 0 90 62 60
        E 0 90 31 60
        E 120 80 4a 00
        E 480 80 56 00
        E 0 80 62 00
        E 0 80 31 00
        E 120 90 28 60
        E 0 90 3c 60
        E 0 90 48 60
        E 0 90 54 60
        E 0 90 60 60
        E 0 90 74 60
        E 120 80 3c 00
        E 0 80 48 00
        E 0 80 54 00
        E 0 80 60 00
        E 120 90 48 60
        E 0 90 54 60
        E 0 90 60 60
        E 120 80 48 00
        E 0 80 54 00
        E 0 80 60 00
        E 120 90 3c 60
        E 0 90 48 60
        E 0 90 54 60
        E 0 90 60 60
        E 120 80 3c 00
        E 0 80 48 00
        E 0 80 54 00
        E 0 80 60 00
        E 120 90 48 60
        E 0 90 54 60
        E 0 90 60 60
        E 120 80 28 00
        E 0 80 48 00
        E 0 80 54 00
        E 0 80 60 00
        E 360 90 4a 60
        E 0 90 56 60
        E 0 90 62 60
        E 0 90 31 60
        E 120 80 4a 00
        E 480 80 56 00
        E 0 80 62 00
        E 0 80 31 00
        E 120 80 74 00
        E 0 90 3c 60
        E 0 90 48 60
        E 0 90 54 60
        E 0 90 60 60
        E 0 90 28 60
        E 120 80 3c 00
        E 0 80 48 00
        E 0 80 54 00
        E 0 80 60 00
        E 120 90 48 60
        E 0 90 54 60
        E 0 90 60 60
        E 120 80 48 00
        E 0 80 54 00
        E 0 80 60 00
        E 120 90 3c 60
        E 0 90 48 60
        E 0 90 54 60
        E 0 90 60 60
        E 120 80 3c 00
        E 0 80 48 00
        E 0 80 54 00
        E 0 80 60 00
        E 120 90 48 60
        E 0 90 54 60
        E 0 90 60 60
        E 120 80 28 00
        E 0 80 48 00
        E 0 80 54 00
        E 0 80 60 00
        E 360 90 4a 60
        E 0 90 56 60
        E 0 90 62 60
        E 0 90 31 60
        E 120 80 4a 00
        E 480 80 56 00
        E 0 80 62 00
        E 0 80 31 00
        E 120 90 3c 60
        E 0 90 48 60
        E 0 90 54 60
        E 0 90 60 60
        E 0 90 28 60
        E 120 80 3c 00
        E 0 80 48 00
        E 0 80 54 00
        E 0 80 60 00
        E 120 90 48 60
        E 0 90 54 60
        E 0 90 60 60
        E 120 80 48 00
        E 0 80 54 00
        E 0 80 60 00
        E 120 90 3c 60
        E 0 90 48 60
        E 0 90 54 60
        E 0 90 60 60
        E 120 80 28 00
        E 0 80 3c 00
        E 0 80 48 00
        E 0 80 54 00
        E 0 80 60 00
        E 120 90 48 60
        E 0 90 54 60
        E 0 90 60 60
        E 0 90 2d 60
        E 720 80 48 00
        E 360 80 54 00
        E 0 80 60 00
        E 0 80 2d 00
        E 120 90 28 60
        E 0 90 3c 60
        E 0 90 48 60
        E 0 90 54 60
        E 0 90 60 60
        E 120 80 3c 00
        E 0 80 48 00
        E 0 80 54 00
        E 0 80 60 00
        E 120 90 48 60
        E 0 90 54 60
        E 0 90 60 60
        E 120 80 48 00
        E 0 80 54 00
        E 0 80 60 00
        E 120 90 3c 60
        E 0 90 48 60
        E 0 90 54 60
        E 0 90 60 60
        E 120 80 28 00
        E 0 80 3c 00
        E 0 80 48 00
        E 0 80 54 00
        E 0 80 60 00
        E 120 90 2d 60
        E 0 90 56 60
        E 0 90 62 60
        E 120 80 56 00
        E 0 80 62 00
        E 360 90 4a 60
        E 0 90 56 60
        E 0 90 62 60
        E 120 80 4a 00
        E 0 80 56 00
        E 0 80 62 00
        E 120 90 3e 60
        E 0 90 4a 60
        E 0 90 56 60
        E 0 90 62 60
        E 120 80 2d 00
        E 0 80 3e 00
        E 0 80 4a 00
        E 0 80 56 00
        E 0 80 62 00
        E 120 90 57 60
        E 0 90 63 60
        E 0 90 2f 60
        E 120 80 57 00
        E 0 80 63 00
        E 360 90 4b 60
        E 0 90 57 60
        E 0 90 63 60
        E 120 80 4b 00
        E 0 80 57 00
        E 0 80 63 00
        E 120 90 4b 60
        E 0 90 57 60
        E 0 90 63 60
        E 120 80 4b 00
        E 0 80 57 00
        E 0 80 63 00
        E 120 90 55 60
        E 0 90 61 60
        E 120 80 2f 00
        E 0 80 55 00
        E 0 80 61 00
        E 120 90 3d 60
        E 0 90 49 60
        E 0 90 55 60
        E 0 90 61 60
        E 0 90 28 60
        E 120 80 3d 00
        E 0 80 49 00
        E 0 80 55 00
        E 0 80 61 00
        E 120 90 49 60
        E 0 90 55 60
        E 0 90 61 60
        E 120 80 49 00
        E 0 80 55 00
        E 0 80 61 00
        E 120 90 49 60
        E 0 90 55 60
        E 0 90 61 60
        E 120 80 49 00
        E 0 80 55 00
        E 0 80 61 00
        E 120 90 55 60
        E 0 90 61 60
        E 120 80 55 00
        E 0 80 61 00
        E 120 90 3c 60
        E 0 90 48 60
        E 0 90 54 60
        E 0 90 60 60
        E 120 80 3c 00
        E 0 80 48 00
        E 0 80 54 00
        E 0 80 60 00
        E 120 90 48 60
        E 0 90 54 60
        E 0 90 60 60
        E 120 80 48 00
        E 0 80 54 00
        E 0 80 60 00
        E 120 90 3c 60
        E 0 90 48 60
        E 0 90 54 60
        E 0 90 60 60
        E 120 80 28 00
        E 0 80 3c 00
        E 0 80 48 00
        E 0 80 54 00
        E 0 80 60 00
        E 120 90 56 60
        E 0 90 62 60
        E 0 90 2d 60
        E 120 80 56 00
        E 0 80 62 00
        E 360 90 4a 60
        E 0 90 56 60
        E 0 90 62 60
        E 120 80 4a 00
        E 0 80 56 00
        E 0 80 62 00
        E 120 90 3e 60
        E 0 90 4a 60
        E 0 90 56 60
        E 0 90 62 60
        E 120 80 2d 00
        E 0 80 3e 00
        E 0 80 4a 00
        E 0 80 56 00
        E 0 80 62 00
        E 120 90 57 60
        E 0 90 63 60
        E 0 90 2f 60
        E 120 80 57 00
        E 0 80 63 00
        E 360 90 4b 60
        E 0 90 57 60
        E 0 90 63 60
        E 120 80 4b 00
        E 0 80 57 00
        E 0 80 63 00
        E 120 90 4b 60
        E 0 90 57 60
        E 0 90 63 60
        E 120 80 4b 00
        E 0 80 57 00
        E 0 80 63 00
        E 120 90 55 60
        E 0 90 61 60
        E 120 80 2f 00
        E 0 80 55 00
        E 0 80 61 00
        E 120 90 3d 60
        E 0 90 49 60
        E 0 90 55 60
        E 0 90 61 60
        E 0 90 28 60
        E 120 80 3d 00
        E 0 80 49 00
        E 0 80 55 00
        E 0 80 61 00
        E 120 90 49 60
        E 0 90 55 60
        E 0 90 61 60
        E 120 80 49 00
        E 0 80 55 00
        E 0 80 61 00
        E 120 90 49 60
        E 0 90 55 60
        E 0 90 61 60
        E 120 80 49 00
        E 0 80 55 00
        E 0 80 61 00
        E 120 90 55 60
        E 0 90 61 60
        E 120 80 55 00
        E 0 80 61 00
        E 120 90 3c 60
        E 0 90 48 60
        E 0 90 54 60
        E 0 90 60 60
        E 120 80 3c 00
        E 0 80 48 00
        E 0 80 54 00
        E 0 80 60 00
        E 120 90 48 60
        E 0 90 54 60
        E 0 90 60 60
        E 120 80 48 00
        E 0 80 54 00
        E 0 80 60 00
        E 120 90 3c 60
        E 0 90 48 60
        E 0 90 54 60
        E 0 90 60 60
        E 120 80 28 00
        E 0 80 3c 00
        E 0 80 48 00
        E 0 80 54 00
        E 0 80 60 00
        E 120 90 56 60
        E 0 90 62 60
        E 0 90 2d 60
        E 120 80 56 00
        E 0 80 62 00
        E 360 90 4a 60
        E 0 90 56 60
        E 0 90 62 60
        E 120 80 4a 00
        E 0 80 56 00
        E 0 80 62 00
        E 120 90 3e 60
        E 0 90 4a 60
        E 0 90 56 60
        E 0 90 62 60
        E 120 80 2d 00
        E 0 80 3e 00
        E 0 80 4a 00
        E 0 80 56 00
        E 0 80 62 00
        E 120 90 57 60
        E 0 90 63 60
        E 0 90 2f 60
        E 120 80 57 00
        E 0 80 63 00
        E 360 90 4b 60
        E 0 90 57 60
        E 0 90 63 60
        E 120 80 4b 00
        E 0 80 57 00
        E 0 80 63 00
        E 120 90 4b 60
        E 0 90 57 60
        E 0 90 63 60
        E 120 80 4b 00
        E 0 80 57 00
        E 0 80 63 00
        E 120 90 55 60
        E 0 90 61 60
        E 120 80 2f 00
        E 0 80 55 00
        E 0 80 61 00
        E 120 90 3d 60
        E 0 90 49 60
        E 0 90 55 60
        E 0 90 61 60
        E 0 90 28 60
        E 120 80 3d 00
        E 0 80 49 00
        E 0 80 55 00
        E 0 80 61 00
        E 120 90 49 60
        E 0 90 55 60
        E 0 90 61 60
        E 120 80 49 00
        E 0 80 55 00
        E 0 80 61 00
        E 120 90 49 60
        E 0 90 55 60
        E 0 90 61 60
        E 120 80 49 00
        E 0 80 55 00
        E 0 80 61 00
        E 120 90 55 60
        E 0 90 61 60
        E 120 80 55 00
        E 0 80 61 00
        E 120 90 3c 60
        E 0 90 48 60
        E 0 90 54 60
        E 0 90 60 60
        E 120 80 3c 00
        E 0 80 48 00
        E 0 80 54 00
        E 0 80 60 00
        E 120 90 48 60
        E 0 90 54 60
        E 0 90 60 60
        E 120 80 48 00
        E 0 80 54 00
        E 0 80 60 00
        E 120 90 3c 60
        E 0 90 48 60
        E 0 90 54 60
        E 0 90 60 60
        E 120 80 28 00
        E 0 80 3c 00
        E 0 80 48 00
        E 0 80 54 00
        E 0 80 60 00
        E 120 90 56 60
        E 0 90 62 60
        E 0 90 2d 60
        E 120 80 56 00
        E 0 80 62 00
        E 360 90 4a 60
        E 0 90 56 60
        E 0 90 62 60
        E 120 80 4a 00
        E 0 80 56 00
        E 0 80 62 00
        E 120 90 3e 60
        E 0 90 4a 60
        E 0 90 56 60
        E 0 90 62 60
        E 120 80 2d 00
        E 0 80 3e 00
        E 0 80 4a 00
        E 0 80 56 00
        E 0 80 62 00
        E 120 90 57 60
        E 0 90 63 60
        E 0 90 2f 60
        E 120 80 57 00
        E 0 80 63 00
        E 120 90 74 60
        E 240 90 4b 60
        E 0 90 57 60
        E 0 90 63 60
        E 120 80 4b 00
        E 0 80 57 00
        E 0 80 63 00
        E 120 90 4b 60
        E 0 90 57 60
        E 0 90 63 60
        E 120 80 4b 00
        E 0 80 57 00
        E 0 80 63 00
        E 120 90 55 60
        E 0 90 61 60
        E 120 80 2f 00
        E 0 80 55 00
        E 0 80 61 00
        E 120 90 28 60
        E 0 90 3d 60
        E 0 90 49 60
        E 0 90 55 60
        E 0 90 61 60
        E 120 80 3d 00
        E 0 80 49 00
        E 0 80 55 00
        E 0 80 61 00
        E 120 90 49 60
        E 0 90 55 60
        E 0 90 61 60
        E 120 80 49 00
        E 0 80 55 00
        E 0 80 61 00
        E 120 90 49 60
        E 0 90 55 60
        E 0 90 61 60
        E 120 80 49 00
        E 0 80 55 00
        E 0 80 61 00
        E 120 90 55 60
        E 0 90 61 60
        E 120 80 55 00
        E 0 80 61 00
        E 120 90 3c 60
        E 0 90 48 60
        E 0 90 54 60
        E 0 90 60 60
        E 120 80 74 00
        E 0 80 3c 00
        E 0 80 48 00
        E 0 80 54 00
        E 0 80 60 00
        E 120 90 48 60
        E 0 90 54 60
        E 0 90 60 60
        E 120 80 48 00
        E 0 80 54 00
        E 0 80 60 00
        E 120 90 3c 60
        E 0 90 48 60
        E 0 90 54 60
        E 0 90 60 60
        E 120 80 3c 00
        E 0 80 48 00
        E 0 80 54 00
        E 0 80 60 00
        E 120 90 48 60
        E 0 90 54 60
        E 0 90 60 60
        E 120 80 28 00
        E 0 80 48 00
        E 0 80 54 00
        E 0 80 60 00
        E 360 90 4a 60
        E 0 90 56 60
        E 0 90 62 60
        E 0 90 31 60
        E 120 80 4a 00
        E 480 80 56 00
        E 0 80 62 00
        E 0 80 31 00
        E 120 90 28 60
        E 0 90 3c 60
        E 0 90 48 60
        E 0 90 54 60
        E 0 90 60 60
        E 120 80 3c 00
        E 0 80 48 00
        E 0 80 54 00
        E 0 80 60 00
        E 120 90 48 60
        E 0 90 54 60
        E 0 90 60 60
        E 120 80 48 00
        E 0 80 54 00
        E 0 80 60 00
        E 120 90 3c 60
        E 0 90 48 60
        E 0 90 54 60
        E 0 90 60 60
        E 120 80 3c 00
        E 0 80 48 00
        E 0 80 54 00
        E 0 80 60 00
        E 120 90 48 60
        E 0 90 54 60
        E 0 90 60 60
        E 120 80 28 00
        E 0 80 48 00
        E 0 80 54 00
        E 0 80 60 00
        E 360 90 31 60
        E 0 90 4a 60
        E 0 90 56 60
        E 0 90 62 60
        E 120 80 4a 00
        E 480 80 31 00
        E 0 80 56 00
        E 0 80 62 00
        E 120 90 3c 60
        E 0 90 48 60
        E 0 90 54 60
        E 0 90 60 60
        E 0 90 28 60
        E 120 80 3c 00
        E 0 80 48 00
        E 0 80 54 00
        E 0 80 60 00
        E 120 90 48 60
        E 0 90 54 60
        E 0 90 60 60
        E 120 80 48 00
        E 0 80 54 00
        E 0 80 60 00
        E 120 90 3c 60
        E 0 90 48 60
        E 0 90 54 60
        E 0 90 60 60
        E 120 80 3c 00
        E 0 80 48 00
        E 0 80 54 00
        E 0 80 60 00
        E 120 90 48 60
        E 0 90 54 60
        E 0 90 60 60
        E 120 80 28 00
        E 0 80 48 00
        E 0 80 54 00
        E 0 80 60 00
        E 360 90 4a 60
        E 0 90 56 60
        E 0 90 62 60
        E 0 90 31 60
        E 120 80 4a 00
        E 480 80 56 00
        E 0 80 62 00
        E 0 80 31 00
        E 120 90 28 60
        E 0 90 3c 60
        E 0 90 48 60
        E 0 90 54 60
        E 0 90 60 60
        E 120 80 3c 00
        E 0 80 48 00
        E 0 80 54 00
        E 0 80 60 00
        E 120 90 48 60
        E 0 90 54 60
        E 0 90 60 60
        E 120 80 48 00
        E 0 80 54 00
        E 0 80 60 00
        E 120 90 3c 60
        E 0 90 48 60
        E 0 90 54 60
        E 0 90 60 60
        E 120 80 3c 00
        E 0 80 48 00
        E 0 80 54 00
        E 0 80 60 00
        E 120 90 48 60
        E 0 90 54 60
        E 0 90 60 60
        E 120 80 28 00
        E 0 80 48 00
        E 0 80 54 00
        E 0 80 60 00
        E 360 90 31 60
        E 0 90 4a 60
        E 0 90 56 60
        E 0 90 62 60
        E 120 80 4a 00
        E 480 80 31 00
        E 0 80 56 00
        E 0 80 62 00
        E 120 90 28 60
        E 0 90 3c 60
        E 0 90 48 60
        E 0 90 54 60
        E 0 90 60 60
        E 120 80 3c 00
        E 0 80 48 00
        E 0 80 54 00
        E 0 80 60 00
        E 120 90 48 60
        E 0 90 54 60
        E 0 90 60 60
        E 120 80 48 00
        E 0 80 54 00
        E 0 80 60 00
        E 120 90 3c 60
        E 0 90 48 60
        E 0 90 54 60
        E 0 90 60 60
        E 120 80 3c 00
        E 0 80 48 00
        E 0 80 54 00
        E 0 80 60 00
        E 120 90 48 60
        E 0 90 54 60
        E 0 90 60 60
        E 120 80 28 00
        E 0 80 48 00
        E 0 80 54 00
        E 0 80 60 00
        E 360 90 31 60
        E 0 90 4a 60
        E 0 90 56 60
        E 0 90 62 60
        E 120 80 4a 00
        E 480 80 31 00
        E 0 80 56 00
        E 0 80 62 00
        E 120 90 28 60
        E 0 90 3c 60
        E 0 90 48 60
        E 0 90 54 60
        E 0 90 60 60
        E 120 80 3c 00
        E 0 80 48 00
        E 0 80 54 00
        E 0 80 60 00
        E 120 90 48 60
        E 0 90 54 60
        E 0 90 60 60
        E 120 80 48 00
        E 0 80 54 00
        E 0 80 60 00
        E 120 90 3c 60
        E 0 90 48 60
        E 0 90 54 60
        E 0 90 60 60
        E 120 80 3c 00
        E 0 80 48 00
        E 0 80 54 00
        E 0 80 60 00
        E 120 90 48 60
        E 0 90 54 60
        E 0 90 60 60
        E 120 80 28 00
        E 0 80 48 00
        E 0 80 54 00
        E 0 80 60 00
        E 360 90 31 60
        E 0 90 4a 60
        E 0 90 56 60
        E 0 90 62 60
        E 120 80 4a 00
        E 480 80 31 00
        E 0 80 56 00
        E 0 80 62 00
        E 0 90 74 60
        E 120 90 28 60
        E 0 90 3c 60
        E 0 90 48 60
        E 0 90 54 60
        E 0 90 60 60
        E 120 80 3c 00
        E 0 80 48 00
        E 0 80 54 00
        E 0 80 60 00
        E 120 90 48 60
        E 0 90 54 60
        E 0 90 60 60
        E 120 80 48 00
        E 0 80 54 00
        E 0 80 60 00
        E 120 90 3c 60
        E 0 90 48 60
        E 0 90 54 60
        E 0 90 60 60
        E 120 80 3c 00
        E 0 80 48 00
        E 0 80 54 00
        E 0 80 60 00
        E 120 90 48 60
        E 0 90 54 60
        E 0 90 60 60
        E 120 80 28 00
        E 0 80 48 00
        E 0 80 54 00
        E 0 80 60 00
        E 360 90 31 60
        E 0 90 4a 60
        E 0 90 56 60
        E 0 90 62 60
        E 120 80 4a 00
        E 480 80 31 00
        E 0 80 56 00
        E 0 80 62 00
        E 120 90 28 60
        E 0 90 3c 60
        E 0 90 48 60
        E 0 90 54 60
        E 0 90 60 60
        E 480 80 74 00
        E 960 80 3c 00
        E 0 80 48 00
        E 360 80 54 00
        E 0 80 60 00
        <X 120 0
          /wFbaW50ZW5zZV0=
        >
        E 0 90 3c 60
        E 0 90 48 60
        E 0 90 54 60
        E 0 90 60 60
        E 120 80 3c 00
        E 0 80 48 00
        E 0 80 54 00
        E 0 80 60 00
        E 120 90 48 60
        E 0 90 54 60
        E 0 90 60 60
        E 120 80 48 00
        E 0 80 54 00
        E 0 80 60 00
        E 120 90 3c 60
        E 0 90 48 60
        E 0 90 54 60
        E 0 90 60 60
        E 120 80 28 00
        E 0 80 3c 00
        E 0 80 48 00
        E 0 80 54 00
        E 0 80 60 00
        E 120 90 2d 60
        E 0 90 56 60
        E 0 90 62 60
        E 120 80 56 00
        E 0 80 62 00
        E 360 90 4a 60
        E 0 90 56 60
        E 0 90 62 60
        E 120 80 4a 00
        E 0 80 56 00
        E 0 80 62 00
        E 120 90 3e 60
        E 0 90 4a 60
        E 0 90 56 60
        E 0 90 62 60
        E 120 80 2d 00
        E 0 80 3e 00
        E 0 80 4a 00
        E 0 80 56 00
        E 0 80 62 00
        E 120 90 2f 60
        E 0 90 57 60
        E 0 90 63 60
        E 120 80 57 00
        E 0 80 63 00
        E 360 90 4b 60
        E 0 90 57 60
        E 0 90 63 60
        E 120 80 4b 00
        E 0 80 57 00
        E 0 80 63 00
        E 120 90 4b 60
        E 0 90 57 60
        E 0 90 63 60
        E 120 80 4b 00
        E 0 80 57 00
        E 0 80 63 00
        E 120 90 55 60
        E 0 90 61 60
        E 120 80 2f 00
        E 0 80 55 00
        E 0 80 61 00
        E 120 90 28 60
        E 0 90 3d 60
        E 0 90 49 60
        E 0 90 55 60
        E 0 90 61 60
        E 120 80 3d 00
        E 0 80 49 00
        E 0 80 55 00
        E 0 80 61 00
        E 120 90 49 60
        E 0 90 55 60
        E 0 90 61 60
        E 120 80 49 00
        E 0 80 55 00
        E 0 80 61 00
        E 120 90 49 60
        E 0 90 55 60
        E 0 90 61 60
        E 120 80 49 00
        E 0 80 55 00
        E 0 80 61 00
        E 120 90 55 60
        E 0 90 61 60
        E 120 80 55 00
        E 0 80 61 00
        E 120 90 3c 60
        E 0 90 48 60
        E 0 90 54 60
        E 0 90 60 60
        E 120 80 3c 00
        E 0 80 48 00
        E 0 80 54 00
        E 0 80 60 00
        E 120 90 48 60
        E 0 90 54 60
        E 0 90 60 60
        E 120 80 48 00
        E 0 80 54 00
        E 0 80 60 00
        E 120 90 3c 60
        E 0 90 48 60
        E 0 90 54 60
        E 0 90 60 60
        E 120 80 28 00
        E 0 80 3c 00
        E 0 80 48 00
        E 0 80 54 00
        E 0 80 60 00
        E 120 90 2d 60
        E 0 90 56 60
        E 0 90 62 60
        E 120 80 56 00
        E 0 80 62 00
        E 360 90 4a 60
        E 0 90 56 60
        E 0 90 62 60
        E 120 80 4a 00
        E 0 80 56 00
        E 0 80 62 00
        E 120 90 3e 60
        E 0 90 4a 60
        E 0 90 56 60
        E 0 90 62 60
        E 120 80 2d 00
        E 0 80 3e 00
        E 0 80 4a 00
        E 0 80 56 00
        E 0 80 62 00
        E 120 90 2f 60
        E 0 90 57 60
        E 0 90 63 60
        E 120 80 57 00
        E 0 80 63 00
        E 360 90 4b 60
        E 0 90 57 60
        E 0 90 63 60
        E 120 80 4b 00
        E 0 80 57 00
        E 0 80 63 00
        E 120 90 4b 60
        E 0 90 57 60
        E 0 90 63 60
        E 120 80 4b 00
        E 0 80 57 00
        E 0 80 63 00
        E 120 90 55 60
        E 0 90 61 60
        E 120 80 2f 00
        E 0 80 55 00
        E 0 80 61 00
        E 120 90 28 60
        E 0 90 3d 60
        E 0 90 49 60
        E 0 90 55 60
        E 0 90 61 60
        E 120 80 3d 00
        E 0 80 49 00
        E 0 80 55 00
        E 0 80 61 00
        E 120 90 49 60
        E 0 90 55 60
        E 0 90 61 60
        E 120 80 49 00
        E 0 80 55 00
        E 0 80 61 00
        E 120 90 49 60
        E 0 90 55 60
        E 0 90 61 60
        E 120 80 49 00
        E 0 80 55 00
        E 0 80 61 00
        E 120 90 55 60
        E 0 90 61 60
        E 120 80 55 00
        E 0 80 61 00
        E 120 90 3c 60
        E 0 90 48 60
        E 0 90 54 60
        E 0 90 60 60
        E 120 80 3c 00
        E 0 80 48 00
        E 0 80 54 00
        E 0 80 60 00
        E 120 90 48 60
        E 0 90 54 60
        E 0 90 60 60
        E 120 80 48 00
        E 0 80 54 00
        E 0 80 60 00
        E 120 90 3c 60
        E 0 90 48 60
        E 0 90 54 60
        E 0 90 60 60
        E 120 80 28 00
        E 0 80 3c 00
        E 0 80 48 00
        E 0 80 54 00
        E 0 80 60 00
        E 120 90 2d 60
        E 0 90 56 60
        E 0 90 62 60
        E 120 80 56 00
        E 0 80 62 00
        E 360 90 4a 60
        E 0 90 56 60
        E 0 90 62 60
        E 120 80 4a 00
        E 0 80 56 00
        E 0 80 62 00
        E 120 90 3e 60
        E 0 90 4a 60
        E 0 90 56 60
        E 0 90 62 60
        E 120 80 2d 00
        E 0 80 3e 00
        E 0 80 4a 00
        E 0 80 56 00
        E 0 80 62 00
        E 120 90 2f 60
        E 0 90 57 60
        E 0 90 63 60
        E 120 80 57 00
        E 0 80 63 00
        E 360 90 4b 60
        E 0 90 57 60
        E 0 90 63 60
        E 120 80 4b 00
        E 0 80 57 00
        E 0 80 63 00
        E 120 90 4b 60
        E 0 90 57 60
        E 0 90 63 60
        E 120 80 4b 00
        E 0 80 57 00
        E 0 80 63 00
        E 120 90 55 60
        E 0 90 61 60
        E 120 80 2f 00
        E 0 80 55 00
        E 0 80 61 00
        E 120 90 28 60
        E 0 90 3d 60
        E 0 90 49 60
        E 0 90 55 60
        E 0 90 61 60
        E 120 80 3d 00
        E 0 80 49 00
        E 0 80 55 00
        E 0 80 61 00
        E 120 90 49 60
        E 0 90 55 60
        E 0 90 61 60
        E 120 80 49 00
        E 0 80 55 00
        E 0 80 61 00
        E 120 90 49 60
        E 0 90 55 60
        E 0 90 61 60
        E 120 80 49 00
        E 0 80 55 00
        E 0 80 61 00
        E 120 90 55 60
        E 0 90 61 60
        E 120 80 55 00
        E 0 80 61 00
        E 120 90 3c 60
        E 0 90 48 60
        E 0 90 54 60
        E 0 90 60 60
        E 120 80 3c 00
        E 0 80 48 00
        E 0 80 54 00
        E 0 80 60 00
        E 120 90 48 60
        E 0 90 54 60
        E 0 90 60 60
        E 120 80 48 00
        E 0 80 54 00
        E 0 80 60 00
        E 120 90 3c 60
        E 0 90 48 60
        E 0 90 54 60
        E 0 90 60 60
        E 120 80 28 00
        E 0 80 3c 00
        E 0 80 48 00
        E 0 80 54 00
        E 0 80 60 00
        E 120 90 2d 60
        E 0 90 56 60
        E 0 90 62 60
        E 120 80 56 00
        E 0 80 62 00
        E 360 90 4a 60
        E 0 90 56 60
        E 0 90 62 60
        E 120 80 4a 00
        E 0 80 56 00
        E 0 80 62 00
        E 120 90 3e 60
        E 0 90 4a 60
        E 0 90 56 60
        E 0 90 62 60
        E 120 80 2d 00
        E 0 80 3e 00
        E 0 80 4a 00
        E 0 80 56 00
        E 0 80 62 00
        E 120 90 57 60
        E 0 90 63 60
        E 0 90 2f 60
        E 120 80 57 00
        E 0 80 63 00
        E 360 80 2f 00
        E 0 90 4b 60
        E 0 90 57 60
        E 0 90 63 60
        E 0 90 2b 60
        E 120 80 4b 00
        E 0 80 57 00
        E 0 80 63 00
        E 120 90 4b 60
        E 0 90 57 60
        E 0 90 63 60
        E 120 80 4b 00
        E 0 80 57 00
        E 0 80 63 00
        E 120 90 55 60
        E 0 90 61 60
        E 120 80 55 00
        E 0 80 61 00
        E 120 90 3d 60
        E 0 90 49 60
        E 0 90 55 60
        E 0 90 61 60
        E 120 80 3d 00
        E 0 80 49 00
        E 0 80 55 00
        E 0 80 61 00
        E 120 90 49 60
        E 0 90 55 60
        E 0 90 61 60
        E 120 80 49 00
        E 0 80 55 00
        E 0 80 61 00
        E 120 90 49 60
        E 0 90 55 60
        E 0 90 61 60
        E 120 80 2b 00
        E 0 80 49 00
        E 0 80 55 00
        E 0 80 61 00
        E 120 90 55 60
        E 0 90 61 60
        E 120 80 55 00
        E 0 80 61 00
        E 120 90 28 60
        E 0 90 3c 60
        E 0 90 48 60
        E 0 90 54 60
        E 0 90 60 60
        E 120 80 3c 00
        E 0 80 48 00
        E 0 80 54 00
        E 0 80 60 00
        E 120 90 48 60
        E 0 90 54 60
        E 0 90 60 60
        E 120 80 48 00
        E 0 80 54 00
        E 0 80 60 00
        E 120 90 3c 60
        E 0 90 48 60
        E 0 90 54 60
        E 0 90 60 60
        E 120 80 28 00
        E 0 80 3c 00
        E 0 80 48 00
        E 0 80 54 00
        E 0 80 60 00
        E 120 90 2d 60
        E 0 90 56 60
        E 0 90 62 60
        E 120 80 56 00
        E 0 80 62 00
        E 360 90 4a 60
        E 0 90 56 60
        E 0 90 62 60
        E 120 80 4a 00
        E 0 80 56 00
        E 0 80 62 00
        E 120 90 3e 60
        E 0 90 4a 60
        E 0 90 56 60
        E 0 90 62 60
        E 120 80 2d 00
        E 0 80 3e 00
        E 0 80 4a 00
        E 0 80 56 00
        E 0 80 62 00
        E 120 90 2f 60
        E 0 90 57 60
        E 0 90 63 60
        E 120 80 57 00
        E 0 80 63 00
        E 360 90 4b 60
        E 0 90 57 60
        E 0 90 63 60
        E 120 80 4b 00
        E 0 80 57 00
        E 0 80 63 00
        E 120 90 4b 60
        E 0 90 57 60
        E 0 90 63 60
        E 120 80 4b 00
        E 0 80 57 00
        E 0 80 63 00
        E 120 90 55 60
        E 0 90 61 60
        E 120 80 2f 00
        E 0 80 55 00
        E 0 80 61 00
        E 120 90 28 60
        E 0 90 3d 60
        E 0 90 49 60
        E 0 90 55 60
        E 0 90 61 60
        E 120 80 3d 00
        E 0 80 49 00
        E 0 80 55 00
        E 0 80 61 00
        E 120 90 49 60
        E 0 90 55 60
        E 0 90 61 60
        E 120 80 49 00
        E 0 80 55 00
        E 0 80 61 00
        E 120 90 49 60
        E 0 90 55 60
        E 0 90 61 60
        E 120 80 49 00
        E 0 80 55 00
        E 0 80 61 00
        E 120 90 55 60
        E 0 90 61 60
        E 120 80 55 00
        E 0 80 61 00
        E 120 90 3c 60
        E 0 90 48 60
        E 0 90 54 60
        E 0 90 60 60
        E 120 80 3c 00
        E 0 80 48 00
        E 0 80 54 00
        E 0 80 60 00
        E 120 90 48 60
        E 0 90 54 60
        E 0 90 60 60
        E 120 80 48 00
        E 0 80 54 00
        E 0 80 60 00
        E 120 90 3c 60
        E 0 90 48 60
        E 0 90 54 60
        E 0 90 60 60
        E 120 80 28 00
        E 0 80 3c 00
        E 0 80 48 00
        E 0 80 54 00
        E 0 80 60 00
        E 120 90 2d 60
        E 0 90 56 60
        E 0 90 62 60
        E 120 80 56 00
        E 0 80 62 00
        E 360 90 4a 60
        E 0 90 56 60
        E 0 90 62 60
        E 120 80 4a 00
        E 0 80 56 00
        E 0 80 62 00
        E 120 90 3e 60
        E 0 90 4a 60
        E 0 90 56 60
        E 0 90 62 60
        E 120 80 2d 00
        E 0 80 3e 00
        E 0 80 4a 00
        E 0 80 56 00
        E 0 80 62 00
        E 120 90 2f 60
        E 0 90 57 60
        E 0 90 63 60
        E 120 80 57 00
        E 0 80 63 00
        E 120 90 74 60
        E 240 90 4b 60
        E 0 90 57 60
        E 0 90 63 60
        E 120 80 4b 00
        E 0 80 57 00
        E 0 80 63 00
        E 120 90 4b 60
        E 0 90 57 60
        E 0 90 63 60
        E 120 80 4b 00
        E 0 80 57 00
        E 0 80 63 00
        E 120 90 55 60
        E 0 90 61 60
        E 120 80 2f 00
        E 0 80 55 00
        E 0 80 61 00
        E 120 90 28 60
        E 0 90 3d 60
        E 0 90 49 60
        E 0 90 55 60
        E 0 90 61 60
        E 120 80 3d 00
        E 0 80 49 00
        E 0 80 55 00
        E 0 80 61 00
        E 120 90 49 60
        E 0 90 55 60
        E 0 90 61 60
        E 120 80 49 00
        E 0 80 55 00
        E 0 80 61 00
        E 120 90 49 60
        E 0 90 55 60
        E 0 90 61 60
        E 120 80 49 00
        E 0 80 55 00
        E 0 80 61 00
        E 120 90 55 60
        E 0 90 61 60
        E 120 80 55 00
        E 0 80 61 00
        E 120 90 3c 60
        E 0 90 48 60
        E 0 90 54 60
        E 0 90 60 60
        E 120 80 74 00
        E 0 80 3c 00
        E 0 80 48 00
        E 0 80 54 00
        E 0 80 60 00
        E 120 90 48 60
        E 0 90 54 60
        E 0 90 60 60
        E 120 80 48 00
        E 0 80 54 00
        E 0 80 60 00
        E 120 90 3c 60
        E 0 90 48 60
        E 0 90 54 60
        E 0 90 60 60
        E 120 80 28 00
        E 0 80 3c 00
        E 0 80 48 00
        E 0 80 54 00
        E 0 80 60 00
        E 120 90 2d 60
        E 0 90 56 60
        E 0 90 62 60
        E 120 80 56 00
        E 0 80 62 00
        E 360 90 4a 60
        E 0 90 56 60
        E 0 90 62 60
        E 120 80 4a 00
        E 0 80 56 00
        E 0 80 62 00
        E 120 90 3e 60
        E 0 90 4a 60
        E 0 90 56 60
        E 0 90 62 60
        E 120 80 2d 00
        E 0 80 3e 00
        E 0 80 4a 00
        E 0 80 56 00
        E 0 80 62 00
        E 120 90 2f 60
        E 0 90 57 60
        E 0 90 63 60
        E 120 80 57 00
        E 0 80 63 00
        E 360 90 4b 60
        E 0 90 57 60
        E 0 90 63 60
        E 120 80 4b 00
        E 0 80 57 00
        E 0 80 63 00
        E 120 90 4b 60
        E 0 90 57 60
        E 0 90 63 60
        E 120 80 4b 00
        E 0 80 57 00
        E 0 80 63 00
        E 120 90 55 60
        E 0 90 61 60
        E 120 80 2f 00
        E 0 80 55 00
        E 0 80 61 00
        E 120 90 28 60
        E 0 90 3d 60
        E 0 90 49 60
        E 0 90 55 60
        E 0 90 61 60
        E 120 80 3d 00
        E 0 80 49 00
        E 0 80 55 00
        E 0 80 61 00
        E 120 90 49 60
        E 0 90 55 60
        E 0 90 61 60
        E 120 80 49 00
        E 0 80 55 00
        E 0 80 61 00
        E 120 90 49 60
        E 0 90 55 60
        E 0 90 61 60
        E 120 80 49 00
        E 0 80 55 00
        E 0 80 61 00
        E 120 90 55 60
        E 0 90 61 60
        E 120 80 55 00
        E 0 80 61 00
        E 120 90 3c 60
        E 0 90 48 60
        E 0 90 54 60
        E 0 90 60 60
        E 120 80 3c 00
        E 0 80 48 00
        E 0 80 54 00
        E 0 80 60 00
        E 120 90 48 60
        E 0 90 54 60
        E 0 90 60 60
        E 120 80 48 00
        E 0 80 54 00
        E 0 80 60 00
        E 120 90 3c 60
        E 0 90 48 60
        E 0 90 54 60
        E 0 90 60 60
        E 120 80 28 00
        E 0 80 3c 00
        E 0 80 48 00
        E 0 80 54 00
        E 0 80 60 00
        E 120 90 2d 60
        E 0 90 56 60
        E 0 90 62 60
        E 120 80 56 00
        E 0 80 62 00
        E 360 90 4a 60
        E 0 90 56 60
        E 0 90 62 60
        E 120 80 4a 00
        E 0 80 56 00
        E 0 80 62 00
        E 120 90 3e 60
        E 0 90 4a 60
        E 0 90 56 60
        E 0 90 62 60
        E 120 80 2d 00
        E 0 80 3e 00
        E 0 80 4a 00
        E 0 80 56 00
        E 0 80 62 00
        E 120 90 2f 60
        E 0 90 57 60
        E 0 90 63 60
        E 120 80 57 00
        E 0 80 63 00
        E 360 90 4b 60
        E 0 90 57 60
        E 0 90 63 60
        E 120 80 4b 00
        E 0 80 57 00
        E 0 80 63 00
        E 120 90 4b 60
        E 0 90 57 60
        E 0 90 63 60
        E 120 80 4b 00
        E 0 80 57 00
        E 0 80 63 00
        E 120 90 55 60
        E 0 90 61 60
        E 120 80 2f 00
        E 0 80 55 00
        E 0 80 61 00
        E 120 90 28 60
        E 0 90 3d 60
        E 0 90 49 60
        E 0 90 55 60
        E 0 90 61 60
        E 120 80 3d 00
        E 0 80 49 00
        E 0 80 55 00
        E 0 80 61 00
        E 120 90 49 60
        E 0 90 55 60
        E 0 90 61 60
        E 120 80 49 00
        E 0 80 55 00
        E 0 80 61 00
        E 120 90 49 60
        E 0 90 55 60
        E 0 90 61 60
        E 120 80 49 00
        E 0 80 55 00
        E 0 80 61 00
        E 120 80 28 00
        E 0 90 55 60
        E 0 90 61 60
        E 120 80 55 00
        E 0 80 61 00
        <X 120 0
          /wFbcGxheV0=
        >
        E 0 90 35 60
        E 0 90 3e 60
        E 0 90 49 60
        E 0 90 4b 60
        E 0 90 55 60
        E 0 90 57 60
        E 0 90 61 60
        E 0 90 63 60
        E 1440 80 3e 00
        E 0 80 49 00
        E 0 80 4b 00
        E 360 80 35 00
        E 0 80 55 00
        E 0 80 57 00
        E 0 80 61 00
        E 0 80 63 00
        E 120 90 28 60
        E 0 90 3c 60
        E 0 90 48 60
        E 0 90 54 60
        E 0 90 60 60
        E 1440 80 3c 00
        E 0 80 48 00
        E 360 80 28 00
        E 0 80 54 00
        E 0 80 60 00
        E 120 90 35 60
        E 0 90 3e 60
        E 0 90 49 60
        E 0 90 4b 60
        E 0 90 55 60
        E 0 90 57 60
        E 0 90 61 60
        E 0 90 63 60
        E 1440 80 3e 00
        E 0 80 49 00
        E 0 80 4b 00
        E 360 80 35 00
        E 0 80 55 00
        E 0 80 57 00
        E 0 80 61 00
        E 0 80 63 00
        E 120 90 3c 60
        E 0 90 48 60
        E 0 90 54 60
        E 0 90 60 60
        E 0 90 28 60
        E 1440 80 3c 00
        E 0 80 48 00
        E 360 80 54 00
        E 0 80 60 00
        <X 120 0
          /wFbaW50ZW5zZV0=
        >
        E 0 90 3d 60
        E 0 90 49 60
        E 0 90 55 60
        E 0 90 61 60
        E 120 80 3d 00
        E 0 80 49 00
        E 0 80 55 00
        E 0 80 61 00
        E 120 90 54 60
        E 0 90 60 60
        E 120 80 54 00
        E 0 80 60 00
        E 120 90 3d 60
        E 0 90 49 60
        E 0 90 55 60
        E 0 90 61 60
        E 120 80 28 00
        E 0 80 3d 00
        E 0 80 49 00
        E 0 80 55 00
        E 0 80 61 00
        E 120 90 57 60
        E 0 90 63 60
        E 0 90 2d 60
        E 120 80 57 00
        E 0 80 63 00
        E 360 90 54 60
        E 0 90 60 60
        E 120 80 54 00
        E 0 80 60 00
        E 120 90 3d 60
        E 0 90 49 60
        E 0 90 55 60
        E 0 90 61 60
        E 120 80 2d 00
        E 0 80 3d 00
        E 0 80 49 00
        E 0 80 55 00
        E 0 80 61 00
        E 120 90 2f 60
        E 0 90 58 60
        E 0 90 64 60
        E 120 80 58 00
        E 0 80 64 00
        E 360 90 56 60
        E 0 90 62 60
        E 120 80 56 00
        E 0 80 62 00
        E 120 90 3f 60
        E 0 90 4b 60
        E 0 90 57 60
        E 0 90 63 60
        E 120 80 3f 00
        E 0 80 4b 00
        E 0 80 57 00
        E 0 80 63 00
        E 120 90 56 60
        E 0 90 62 60
        E 120 80 2f 00
        E 0 80 56 00
        E 0 80 62 00
        E 120 90 28 60
        E 240 90 4a 60
        E 0 90 56 60
        E 0 90 62 60
        E 120 80 4a 00
        E 0 80 56 00
        E 0 80 62 00
        E 120 90 4a 60
        E 0 90 56 60
        E 0 90 62 60
        E 120 80 4a 00
        E 0 80 56 00
        E 0 80 62 00
        E 120 90 56 60
        E 0 90 62 60
        E 120 80 56 00
        E 0 80 62 00
        E 120 90 3d 60
        E 0 90 49 60
        E 0 90 55 60
        E 0 90 61 60
        E 120 80 3d 00
        E 0 80 49 00
        E 0 80 55 00
        E 0 80 61 00
        E 120 90 54 60
        E 0 90 60 60
        E 120 80 54 00
        E 0 80 60 00
        E 120 90 3d 60
        E 0 90 49 60
        E 0 90 55 60
        E 0 90 61 60
        E 120 80 28 00
        E 0 80 3d 00
        E 0 80 49 00
        E 0 80 55 00
        E 0 80 61 00
        E 120 90 2d 60
        E 0 90 57 60
        E 0 90 63 60
        E 120 80 57 00
        E 0 80 63 00
        E 360 90 54 60
        E 0 90 60 60
        E 120 80 54 00
        E 0 80 60 00
        E 120 90 3d 60
        E 0 90 49 60
        E 0 90 55 60
        E 0 90 61 60
        E 120 80 2d 00
        E 0 80 3d 00
        E 0 80 49 00
        E 0 80 55 00
        E 0 80 61 00
        E 120 90 2f 60
        E 0 90 58 60
        E 0 90 64 60
        E 120 80 58 00
        E 0 80 64 00
        E 360 90 56 60
        E 0 90 62 60
        E 120 80 56 00
        E 0 80 62 00
        E 120 90 3f 60
        E 0 90 4b 60
        E 0 90 57 60
        E 0 90 63 60
        E 120 80 3f 00
        E 0 80 4b 00
        E 0 80 57 00
        E 0 80 63 00
        E 120 90 56 60
        E 0 90 62 60
        E 120 80 2f 00
        E 0 80 56 00
        E 0 80 62 00
        E 120 90 28 60
        E 240 90 4a 60
        E 0 90 56 60
        E 0 90 62 60
        E 120 80 4a 00
        E 0 80 56 00
        E 0 80 62 00
        E 120 90 4a 60
        E 0 90 56 60
        E 0 90 62 60
        E 120 80 4a 00
        E 0 80 56 00
        E 0 80 62 00
        E 120 90 56 60
        E 0 90 62 60
        E 120 80 56 00
        E 0 80 62 00
        E 120 90 3d 60
        E 0 90 49 60
        E 0 90 55 60
        E 0 90 61 60
        E 120 80 3d 00
        E 0 80 49 00
        E 0 80 55 00
        E 0 80 61 00
        E 120 90 54 60
        E 0 90 60 60
        E 120 80 54 00
        E 0 80 60 00
        E 120 90 3d 60
        E 0 90 49 60
        E 0 90 55 60
        E 0 90 61 60
        E 120 80 28 00
        E 0 80 3d 00
        E 0 80 49 00
        E 0 80 55 00
        E 0 80 61 00
        E 120 90 2d 60
        E 0 90 57 60
        E 0 90 63 60
        E 120 80 57 00
        E 0 80 63 00
        E 360 90 54 60
        E 0 90 60 60
        E 120 80 54 00
        E 0 80 60 00
        E 120 90 3d 60
        E 0 90 49 60
        E 0 90 55 60
        E 0 90 61 60
        E 120 80 2d 00
        E 0 80 3d 00
        E 0 80 49 00
        E 0 80 55 00
        E 0 80 61 00
        E 120 90 2f 60
        E 0 90 58 60
        E 0 90 64 60
        E 120 80 58 00
        E 0 80 64 00
        E 360 90 56 60
        E 0 90 62 60
        E 120 80 56 00
        E 0 80 62 00
        E 120 90 3f 60
        E 0 90 4b 60
        E 0 90 57 60
        E 0 90 63 60
        E 120 80 3f 00
        E 0 80 4b 00
        E 0 80 57 00
        E 0 80 63 00
        E 120 90 56 60
        E 0 90 62 60
        E 120 80 2f 00
        E 0 80 56 00
        E 0 80 62 00
        E 120 90 28 60
        E 240 90 4a 60
        E 0 90 56 60
        E 0 90 62 60
        E 120 80 4a 00
        E 0 80 56 00
        E 0 80 62 00
        E 120 90 4a 60
        E 0 90 56 60
        E 0 90 62 60
        E 120 80 4a 00
        E 0 80 56 00
        E 0 80 62 00
        E 120 90 56 60
        E 0 90 62 60
        E 120 80 56 00
        E 0 80 62 00
        E 120 90 3d 60
        E 0 90 49 60
        E 0 90 55 60
        E 0 90 61 60
        E 120 80 3d 00
        E 0 80 49 00
        E 0 80 55 00
        E 0 80 61 00
        E 120 90 54 60
        E 0 90 60 60
        E 120 80 54 00
        E 0 80 60 00
        E 120 90 3d 60
        E 0 90 49 60
        E 0 90 55 60
        E 0 90 61 60
        E 120 80 28 00
        E 0 80 3d 00
        E 0 80 49 00
        E 0 80 55 00
        E 0 80 61 00
        E 120 90 2d 60
        E 0 90 57 60
        E 0 90 63 60
        E 120 80 57 00
        E 0 80 63 00
        E 360 90 54 60
        E 0 90 60 60
        E 120 80 54 00
        E 0 80 60 00
        E 120 90 3d 60
        E 0 90 49 60
        E 0 90 55 60
        E 0 90 61 60
        E 120 80 2d 00
        E 0 80 3d 00
        E 0 80 49 00
        E 0 80 55 00
        E 0 80 61 00
        E 120 90 2f 60
        E 0 90 58 60
        E 0 90 64 60
        E 120 80 58 00
        E 0 80 64 00
        E 360 90 56 60
        E 0 90 62 60
        E 120 80 56 00
        E 0 80 62 00
        E 120 90 4b 60
        E 0 90 57 60
        E 0 90 63 60
        E 120 80 4b 00
        E 0 80 57 00
        E 0 80 63 00
        E 120 90 56 60
        E 0 90 62 60
        E 120 80 2f 00
        E 0 80 56 00
        E 0 80 62 00
        E 120 90 28 60
        E 0 90 3e 60
        E 0 90 4a 60
        E 0 90 56 60
        E 0 90 62 60
        E 120 80 3e 00
        E 0 80 4a 00
        E 0 80 56 00
        E 0 80 62 00
        E 120 90 4a 60
        E 0 90 56 60
        E 0 90 62 60
        E 120 80 4a 00
        E 0 80 56 00
        E 0 80 62 00
        E 120 90 3e 60
        E 0 90 4a 60
        E 0 90 56 60
        E 0 90 62 60
        E 120 80 28 00
        E 0 80 3e 00
        E 0 80 4a 00
        E 0 80 56 00
        E 0 80 62 00
        <X 120 0
          /wFbaWRsZV9yZWFsdGltZV0=
        >
        E 4080 b0 7b 00
        GUID {F72B2F0D-752D-444A-9060-EA526FA92699}
        IGNTEMPO 0 120.00000000 4 4
        SRCCOLOR 4
        VELLANE 132 128 60
        COLORMAP "C:\Program Files\REAPER (x64)\Data\color_maps\rockband_guitarbass.png"
        CFGEDITVIEW -7278.349954 11.541089 0 12 0 0 0
        CFGEDIT 1 1 0 1 1 0 1 1 1 1 1 0.25000000 -8 -8 1544 872 0 2 1 1 0.00000000 0 1 0 0 0.500000 0 0 1.000000 64
        KEYSNAP 0 6 "102030050700" 0 "Pentatonic"
        EVTFILTER 0 -1 -1 -1 -1 0 1 0 0 -1.00000000 -1.00000000
      >
    >
  >
  <TRACK '{0A04BF07-A80A-4B53-A6BC-BA1A68A572B7}'
    NAME "PART GUITAR"
    PEAKCOL 16576
    BEAT -1
    AUTOMODE 0
    VOLPAN 1.00000000000000 0.00000000000000 -1.00000000000000 -1.00000000000000 1.00000000000000
    MUTESOLO 0 0 0
    IPHASE 0
    ISBUS 0 0
    BUSCOMP 0 0
    SHOWINMIX 1 0.666700 0.500000 1 0.500000 -1 -1 -1
    FREEMODE 0
    SEL 0
    REC 0 0 0 0 0 0 0
    VU 2
    TRACKHEIGHT 0 0
    INQ 0 0 0 0.5000000000 100 0 0 100
    NCHAN 2
    FX 1
    TRACKID {0A04BF07-A80A-4B53-A6BC-BA1A68A572B7}
    PERF 0
    MIDIOUT -1
    <MIDINOTENAMES
      0 127 "TRILL MARKER"
      0 126 "TREMOLO MARKER"
      0 125 "---"
      0 124 "BRE"
      0 123 "BRE"
      0 122 "BRE"
      0 121 "BRE"
      0 120 "BRE (use all 5)"
      0 119 "----"
      0 116 "OVERDRIVE"
      0 115 "----"
      0 103 "Solo Marker"
      0 102 "Force HOPO Off"
      0 101 "Force HOPO On"
      0 100 "EXPERT Orange"
      0 99 "EXPERT Blue"
      0 98 "EXPERT Yellow"
      0 97 "EXPERT Red"
      0 96 "EXPERT Green"
      0 95 "----"
      0 90 "Force HOPO Off"
      0 89 "Force HOPO On"
      0 88 "HARD Orange"
      0 87 "HARD Blue"
      0 86 "HARD Yellow"
      0 85 "HARD Red"
      0 84 "HARD Green"
      0 77 "----"
      0 76 "MEDIUM Orange"
      0 75 "MEDIUM Blue"
      0 74 "MEDIUM Yellow"
      0 73 "MEDIUM Red"
      0 72 "MEDIUM Green"
      0 65 "----"
      0 64 "EASY Orange"
      0 63 "EASY Blue"
      0 62 "EASY Yellow"
      0 61 "EASY Red"
      0 60 "EASY Green"
      0 59 "Fret 12"
      0 57 "Fret 11"
      0 56 "Fret 10"
      0 55 "Fret 9"
      0 53 "Fret 8"
      0 52 "Fret 7"
      0 50 "Fret 6"
      0 49 "Fret 5"
      0 47 "Fret 4"
      0 45 "Fret 3"
      0 43 "Fret 2"
      0 40 "Fret 1"
    >
    MAINSEND 1 0
    <FXCHAIN
      WNDRECT 0 43 891 559
      SHOW 0
      LASTSEL 0
      DOCKED 0
      BYPASS 0 0
      <VST "VSTi: RBN Preview (RBN)" "rbprev_vst64.dll" 0 ""
        dnBicu5e7f4AAAAAAgAAAAEAAAAAAAAAAgAAAAAAAAAEAAAAAQAAAA==
        AAAQAAMAqgAAABAAAAA=
      >
      FLOATPOS 0 0 0 0
      FXID {95BED673-193A-4EB3-B3D4-E0567558F860}
      WAK 0
    >
    <ITEM
      POSITION 0.00000000000000
      SNAPOFFS 0.00000000000000
      LENGTH 107.89371100000000
      LOOP 0
      ALLTAKES 0
      SEL 0
      FADEIN 1 0.000000 0.000000 1 0
      FADEOUT 1 0.000000 0.000000 1 0
      MUTE 0
      IGUID {333B9540-1AE2-4B82-95B1-8A0D9A3A5263}
      IID 3
      NAME "PART GUITAR"
      VOLPAN 1.000000 0.000000 1.000000 -1.000000
      SOFFS 0.00000000000000 0.00000000000000
      PLAYRATE 1.00000000000000 1 0.00000000000000 -1
      CHANMODE 0
      GUID {65BA41C9-649C-4193-94D4-DC5DF1F19BE6}
      <SOURCE MIDI
        HASDATA 1 480 QN
        POOLEDEVTS {A1B6DF59-08DF-4188-80E8-721BA02AA589}
        <X 0 0
          /wNQQVJUIEdVSVRBUg==
        >
        <X 3840 0
          /wFbcGxheV0=
        >
        <X 0 0
          /wFbbWFwIEhhbmRNYXBfRHJvcERd
        >
        E 0 90 28 60
        E 0 90 3d 60
        E 0 90 48 60
        E 0 90 4a 60
        E 0 90 54 60
        E 0 90 56 60
        E 0 90 60 60
        E 0 90 62 60
        E 120 80 3d 00
        E 0 80 48 00
        E 0 80 4a 00
        E 0 80 54 00
        E 0 80 56 00
        E 0 80 60 00
        E 0 80 62 00
        E 120 90 48 60
        E 0 90 4a 60
        E 0 90 54 60
        E 0 90 56 60
        E 0 90 60 60
        E 0 90 62 60
        E 120 80 48 00
        E 0 80 4a 00
        E 0 80 54 00
        E 0 80 56 00
        E 0 80 60 00
        E 0 80 62 00
        E 120 90 3d 60
        E 0 90 48 60
        E 0 90 4a 60
        E 0 90 54 60
        E 0 90 56 60
        E 0 90 60 60
        E 0 90 62 60
        E 120 80 28 00
        E 0 80 3d 00
        E 0 80 48 00
        E 0 80 4a 00
        E 0 80 54 00
        E 0 80 56 00
        E 0 80 60 00
        E 0 80 62 00
        E 120 90 2d 60
        E 0 90 55 60
        E 0 90 57 60
        E 0 90 61 60
        E 0 90 63 60
        E 120 80 55 00
        E 0 80 57 00
        E 0 80 61 00
        E 0 80 63 00
        E 360 90 49 60
        E 0 90 4b 60
        E 0 90 55 60
        E 0 90 57 60
        E 0 90 61 60
        E 0 90 63 60
        E 120 80 49 00
        E 0 80 4b 00
        E 0 80 55 00
        E 0 80 57 00
        E 0 80 61 00
        E 0 80 63 00
        E 120 90 3e 60
        E 0 90 49 60
        E 0 90 4b 60
        E 0 90 55 60
        E 0 90 57 60
        E 0 90 61 60
        E 0 90 63 60
        E 120 80 2d 00
        E 0 80 3e 00
        E 0 80 49 00
        E 0 80 4b 00
        E 0 80 55 00
        E 0 80 57 00
        E 0 80 61 00
        E 0 80 63 00
        E 120 90 2f 60
        E 0 90 55 60
        E 0 90 58 60
        E 0 90 61 60
        E 0 90 64 60
        E 120 80 55 00
        E 0 80 58 00
        E 0 80 61 00
        E 0 80 64 00
        E 360 90 4a 60
        E 0 90 4c 60
        E 0 90 55 60
        E 0 90 58 60
        E 0 90 61 60
        E 0 90 64 60
        E 120 80 4a 00
        E 0 80 4c 00
        E 0 80 55 00
        E 0 80 58 00
        E 0 80 61 00
        E 0 80 64 00
        E 120 90 4a 60
        E 0 90 4c 60
        E 0 90 55 60
        E 0 90 58 60
        E 0 90 61 60
        E 0 90 64 60
        E 120 80 4a 00
        E 0 80 4c 00
        E 0 80 55 00
        E 0 80 58 00
        E 0 80 61 00
        E 0 80 64 00
        E 120 90 55 60
        E 0 90 58 60
        E 0 90 61 60
        E 0 90 64 60
        E 120 80 2f 00
        E 0 80 55 00
        E 0 80 58 00
        E 0 80 61 00
        E 0 80 64 00
        E 120 90 28 60
        E 0 90 3c 60
        E 0 90 48 60
        E 0 90 49 60
        E 0 90 54 60
        E 0 90 55 60
        E 0 90 60 60
        E 0 90 61 60
        E 120 80 3c 00
        E 0 80 48 00
        E 0 80 49 00
        E 0 80 54 00
        E 0 80 55 00
        E 0 80 60 00
        E 0 80 61 00
        E 120 90 48 60
        E 0 90 49 60
        E 0 90 54 60
        E 0 90 55 60
        E 0 90 60 60
        E 0 90 61 60
        E 120 80 48 00
        E 0 80 49 00
        E 0 80 54 00
        E 0 80 55 00
        E 0 80 60 00
        E 0 80 61 00
        E 120 90 48 60
        E 0 90 49 60
        E 0 90 54 60
        E 0 90 55 60
        E 0 90 60 60
        E 0 90 61 60
        E 120 80 48 00
        E 0 80 49 00
        E 0 80 54 00
        E 0 80 55 00
        E 0 80 60 00
        E 0 80 61 00
        E 120 90 54 60
        E 0 90 55 60
        E 0 90 60 60
        E 0 90 61 60
        E 120 80 54 00
        E 0 80 55 00
        E 0 80 60 00
        E 0 80 61 00
        E 120 90 3d 60
        E 0 90 48 60
        E 0 90 4a 60
        E 0 90 54 60
        E 0 90 56 60
        E 0 90 60 60
        E 0 90 62 60
        E 120 80 3d 00
        E 0 80 48 00
        E 0 80 4a 00
        E 0 80 54 00
        E 0 80 56 00
        E 0 80 60 00
        E 0 80 62 00
        E 120 90 48 60
        E 0 90 4a 60
        E 0 90 54 60
        E 0 90 56 60
        E 0 90 60 60
        E 0 90 62 60
        E 120 80 48 00
        E 0 80 4a 00
        E 0 80 54 00
        E 0 80 56 00
        E 0 80 60 00
        E 0 80 62 00
        E 120 90 3d 60
        E 0 90 48 60
        E 0 90 4a 60
        E 0 90 54 60
        E 0 90 56 60
        E 0 90 60 60
        E 0 90 62 60
        E 120 80 28 00
        E 0 80 3d 00
        E 0 80 48 00
        E 0 80 4a 00
        E 0 80 54 00
        E 0 80 56 00
        E 0 80 60 00
        E 0 80 62 00
        E 120 90 2d 60
        E 0 90 55 60
        E 0 90 57 60
        E 0 90 61 60
        E 0 90 63 60
        E 120 80 55 00
        E 0 80 57 00
        E 0 80 61 00
        E 0 80 63 00
        E 360 90 49 60
        E 0 90 4b 60
        E 0 90 55 60
        E 0 90 57 60
        E 0 90 61 60
        E 0 90 63 60
        E 120 80 49 00
        E 0 80 4b 00
        E 0 80 55 00
        E 0 80 57 00
        E 0 80 61 00
        E 0 80 63 00
        E 120 90 3e 60
        E 0 90 49 60
        E 0 90 4b 60
        E 0 90 55 60
        E 0 90 57 60
        E 0 90 61 60
        E 0 90 63 60
        E 120 80 2d 00
        E 0 80 3e 00
        E 0 80 49 00
        E 0 80 4b 00
        E 0 80 55 00
        E 0 80 57 00
        E 0 80 61 00
        E 0 80 63 00
        E 120 90 2f 60
        E 0 90 55 60
        E 0 90 58 60
        E 0 90 61 60
        E 0 90 64 60
        E 120 80 55 00
        E 0 80 58 00
        E 0 80 61 00
        E 0 80 64 00
        E 360 90 4a 60
        E 0 90 4c 60
        E 0 90 55 60
        E 0 90 58 60
        E 0 90 61 60
        E 0 90 64 60
        E 120 80 4a 00
        E 0 80 4c 00
        E 0 80 55 00
        E 0 80 58 00
        E 0 80 61 00
        E 0 80 64 00
        E 120 90 4a 60
        E 0 90 4c 60
        E 0 90 55 60
        E 0 90 58 60
        E 0 90 61 60
        E 0 90 64 60
        E 120 80 4a 00
        E 0 80 4c 00
        E 0 80 55 00
        E 0 80 58 00
        E 0 80 61 00
        E 0 80 64 00
        E 120 90 55 60
        E 0 90 58 60
        E 0 90 61 60
        E 0 90 64 60
        E 120 80 2f 00
        E 0 80 55 00
        E 0 80 58 00
        E 0 80 61 00
        E 0 80 64 00
        E 120 90 28 60
        E 0 90 3c 60
        E 0 90 48 60
        E 0 90 49 60
        E 0 90 54 60
        E 0 90 55 60
        E 0 90 60 60
        E 0 90 61 60
        E 120 80 3c 00
        E 0 80 48 00
        E 0 80 49 00
        E 0 80 54 00
        E 0 80 55 00
        E 0 80 60 00
        E 0 80 61 00
        E 120 90 48 60
        E 0 90 49 60
        E 0 90 54 60
        E 0 90 55 60
        E 0 90 60 60
        E 0 90 61 60
        E 120 80 48 00
        E 0 80 49 00
        E 0 80 54 00
        E 0 80 55 00
        E 0 80 60 00
        E 0 80 61 00
        E 120 90 48 60
        E 0 90 49 60
        E 0 90 54 60
        E 0 90 55 60
        E 0 90 60 60
        E 0 90 61 60
        E 120 80 48 00
        E 0 80 49 00
        E 0 80 54 00
        E 0 80 55 00
        E 0 80 60 00
        E 0 80 61 00
        E 120 90 54 60
        E 0 90 55 60
        E 0 90 60 60
        E 0 90 61 60
        E 120 80 54 00
        E 0 80 55 00
        E 0 80 60 00
        E 0 80 61 00
        E 120 90 3d 60
        E 0 90 48 60
        E 0 90 4a 60
        E 0 90 54 60
        E 0 90 56 60
        E 0 90 60 60
        E 0 90 62 60
        E 120 80 3d 00
        E 0 80 48 00
        E 0 80 4a 00
        E 0 80 54 00
        E 0 80 56 00
        E 0 80 60 00
        E 0 80 62 00
        E 120 90 48 60
        E 0 90 4a 60
        E 0 90 54 60
        E 0 90 56 60
        E 0 90 60 60
        E 0 90 62 60
        E 120 80 48 00
        E 0 80 4a 00
        E 0 80 54 00
        E 0 80 56 00
        E 0 80 60 00
        E 0 80 62 00
        E 120 90 3d 60
        E 0 90 48 60
        E 0 90 4a 60
        E 0 90 54 60
        E 0 90 56 60
        E 0 90 60 60
        E 0 90 62 60
        E 120 80 28 00
        E 0 80 3d 00
        E 0 80 48 00
        E 0 80 4a 00
        E 0 80 54 00
        E 0 80 56 00
        E 0 80 60 00
        E 0 80 62 00
        E 120 90 2d 60
        E 0 90 55 60
        E 0 90 57 60
        E 0 90 61 60
        E 0 90 63 60
        E 120 80 55 00
        E 0 80 57 00
        E 0 80 61 00
        E 0 80 63 00
        E 360 90 49 60
        E 0 90 4b 60
        E 0 90 55 60
        E 0 90 57 60
        E 0 90 61 60
        E 0 90 63 60
        E 120 80 49 00
        E 0 80 4b 00
        E 0 80 55 00
        E 0 80 57 00
        E 0 80 61 00
        E 0 80 63 00
        E 120 90 3e 60
        E 0 90 49 60
        E 0 90 4b 60
        E 0 90 55 60
        E 0 90 57 60
        E 0 90 61 60
        E 0 90 63 60
        E 120 80 2d 00
        E 0 80 3e 00
        E 0 80 49 00
        E 0 80 4b 00
        E 0 80 55 00
        E 0 80 57 00
        E 0 80 61 00
        E 0 80 63 00
        E 120 90 2f 60
        E 0 90 55 60
        E 0 90 58 60
        E 0 90 61 60
        E 0 90 64 60
        E 120 80 55 00
        E 0 80 58 00
        E 0 80 61 00
        E 0 80 64 00
        E 360 90 4a 60
        E 0 90 4c 60
        E 0 90 55 60
        E 0 90 58 60
        E 0 90 61 60
        E 0 90 64 60
        E 120 80 4a 00
        E 0 80 4c 00
        E 0 80 55 00
        E 0 80 58 00
        E 0 80 61 00
        E 0 80 64 00
        E 120 90 4a 60
        E 0 90 4c 60
        E 0 90 55 60
        E 0 90 58 60
        E 0 90 61 60
        E 0 90 64 60
        E 120 80 4a 00
        E 0 80 4c 00
        E 0 80 55 00
        E 0 80 58 00
        E 0 80 61 00
        E 0 80 64 00
        E 120 90 55 60
        E 0 90 58 60
        E 0 90 61 60
        E 0 90 64 60
        E 120 80 2f 00
        E 0 80 55 00
        E 0 80 58 00
        E 0 80 61 00
        E 0 80 64 00
        E 120 90 28 60
        E 0 90 3c 60
        E 0 90 48 60
        E 0 90 49 60
        E 0 90 54 60
        E 0 90 55 60
        E 0 90 60 60
        E 0 90 61 60
        E 120 80 3c 00
        E 0 80 48 00
        E 0 80 49 00
        E 0 80 54 00
        E 0 80 55 00
        E 0 80 60 00
        E 0 80 61 00
        E 120 90 48 60
        E 0 90 49 60
        E 0 90 54 60
        E 0 90 55 60
        E 0 90 60 60
        E 0 90 61 60
        E 120 80 48 00
        E 0 80 49 00
        E 0 80 54 00
        E 0 80 55 00
        E 0 80 60 00
        E 0 80 61 00
        E 120 90 48 60
        E 0 90 49 60
        E 0 90 54 60
        E 0 90 55 60
        E 0 90 60 60
        E 0 90 61 60
        E 120 80 48 00
        E 0 80 49 00
        E 0 80 54 00
        E 0 80 55 00
        E 0 80 60 00
        E 0 80 61 00
        E 120 90 54 60
        E 0 90 55 60
        E 0 90 60 60
        E 0 90 61 60
        E 120 80 54 00
        E 0 80 55 00
        E 0 80 60 00
        E 0 80 61 00
        E 120 90 3d 60
        E 0 90 48 60
        E 0 90 4a 60
        E 0 90 54 60
        E 0 90 56 60
        E 0 90 60 60
        E 0 90 62 60
        E 0 90 74 60
        E 120 80 3d 00
        E 0 80 48 00
        E 0 80 4a 00
        E 0 80 54 00
        E 0 80 56 00
        E 0 80 60 00
        E 0 80 62 00
        E 120 90 48 60
        E 0 90 4a 60
        E 0 90 54 60
        E 0 90 56 60
        E 0 90 60 60
        E 0 90 62 60
        E 120 80 48 00
        E 0 80 4a 00
        E 0 80 54 00
        E 0 80 56 00
        E 0 80 60 00
        E 0 80 62 00
        E 120 90 3d 60
        E 0 90 48 60
        E 0 90 4a 60
        E 0 90 54 60
        E 0 90 56 60
        E 0 90 60 60
        E 0 90 62 60
        E 120 80 28 00
        E 0 80 3d 00
        E 0 80 48 00
        E 0 80 4a 00
        E 0 80 54 00
        E 0 80 56 00
        E 0 80 60 00
        E 0 80 62 00
        E 120 90 2d 60
        E 0 90 55 60
        E 0 90 57 60
        E 0 90 61 60
        E 0 90 63 60
        E 120 80 55 00
        E 0 80 57 00
        E 0 80 61 00
        E 0 80 63 00
        E 360 90 49 60
        E 0 90 4b 60
        E 0 90 55 60
        E 0 90 57 60
        E 0 90 61 60
        E 0 90 63 60
        E 120 80 49 00
        E 0 80 4b 00
        E 0 80 55 00
        E 0 80 57 00
        E 0 80 61 00
        E 0 80 63 00
        E 120 90 3e 60
        E 0 90 49 60
        E 0 90 4b 60
        E 0 90 55 60
        E 0 90 57 60
        E 0 90 61 60
        E 0 90 63 60
        E 120 80 2d 00
        E 0 80 3e 00
        E 0 80 49 00
        E 0 80 4b 00
        E 0 80 55 00
        E 0 80 57 00
        E 0 80 61 00
        E 0 80 63 00
        E 120 90 2f 60
        E 0 90 55 60
        E 0 90 58 60
        E 0 90 61 60
        E 0 90 64 60
        E 120 80 55 00
        E 0 80 58 00
        E 0 80 61 00
        E 0 80 64 00
        E 360 90 4a 60
        E 0 90 4c 60
        E 0 90 55 60
        E 0 90 58 60
        E 0 90 61 60
        E 0 90 64 60
        E 120 80 4a 00
        E 0 80 4c 00
        E 0 80 55 00
        E 0 80 58 00
        E 0 80 61 00
        E 0 80 64 00
        E 120 90 4a 60
        E 0 90 4c 60
        E 0 90 55 60
        E 0 90 58 60
        E 0 90 61 60
        E 0 90 64 60
        E 120 80 4a 00
        E 0 80 4c 00
        E 0 80 55 00
        E 0 80 58 00
        E 0 80 61 00
        E 0 80 64 00
        E 120 90 55 60
        E 0 90 58 60
        E 0 90 61 60
        E 0 90 64 60
        E 120 80 2f 00
        E 0 80 55 00
        E 0 80 58 00
        E 0 80 61 00
        E 0 80 64 00
        E 120 90 28 60
        E 0 90 3c 60
        E 0 90 48 60
        E 0 90 49 60
        E 0 90 54 60
        E 0 90 55 60
        E 0 90 60 60
        E 0 90 61 60
        E 120 80 3c 00
        E 0 80 48 00
        E 0 80 49 00
        E 0 80 54 00
        E 0 80 55 00
        E 0 80 60 00
        E 0 80 61 00
        E 120 90 48 60
        E 0 90 49 60
        E 0 90 54 60
        E 0 90 55 60
        E 0 90 60 60
        E 0 90 61 60
        E 120 80 48 00
        E 0 80 49 00
        E 0 80 54 00
        E 0 80 55 00
        E 0 80 60 00
        E 0 80 61 00
        E 120 90 48 60
        E 0 90 49 60
        E 0 90 54 60
        E 0 90 55 60
        E 0 90 60 60
        E 0 90 61 60
        E 120 80 48 00
        E 0 80 49 00
        E 0 80 54 00
        E 0 80 55 00
        E 0 80 60 00
        E 0 80 61 00
        E 120 90 54 60
        E 0 90 55 60
        E 0 90 60 60
        E 0 90 61 60
        E 120 80 54 00
        E 0 80 55 00
        E 0 80 60 00
        E 0 80 61 00
        E 120 90 3d 60
        E 0 90 48 60
        E 0 90 4a 60
        E 0 90 54 60
        E 0 90 56 60
        E 0 90 60 60
        E 0 90 62 60
        E 120 80 74 00
        E 0 80 3d 00
        E 0 80 48 00
        E 0 80 4a 00
        E 0 80 54 00
        E 0 80 56 00
        E 0 80 60 00
        E 0 80 62 00
        E 120 90 48 60
        E 0 90 4a 60
        E 0 90 54 60
        E 0 90 56 60
        E 0 90 60 60
        E 0 90 62 60
        E 120 80 48 00
        E 0 80 4a 00
        E 0 80 54 00
        E 0 80 56 00
        E 0 80 60 00
        E 0 80 62 00
        E 120 90 3d 60
        E 0 90 48 60
        E 0 90 4a 60
        E 0 90 54 60
        E 0 90 56 60
        E 0 90 60 60
        E 0 90 62 60
        E 120 80 3d 00
        E 0 80 48 00
        E 0 80 4a 00
        E 0 80 54 00
        E 0 80 56 00
        E 0 80 60 00
        E 0 80 62 00
        E 120 90 48 60
        E 0 90 4a 60
        E 0 90 54 60
        E 0 90 56 60
        E 0 90 60 60
        E 0 90 62 60
        E 120 80 28 00
        E 0 80 48 00
        E 0 80 4a 00
        E 0 80 54 00
        E 0 80 56 00
        E 0 80 60 00
        E 0 80 62 00
        E 360 90 31 60
        E 0 90 4a 60
        E 0 90 4b 60
        E 0 90 56 60
        E 0 90 57 60
        E 0 90 62 60
        E 0 90 63 60
        E 120 80 4a 00
        E 0 80 4b 00
        E 480 80 31 00
        E 0 80 56 00
        E 0 80 57 00
        E 0 80 62 00
        E 0 80 63 00
        E 120 90 28 60
        E 0 90 3d 60
        E 0 90 48 60
        E 0 90 4a 60
        E 0 90 54 60
        E 0 90 56 60
        E 0 90 60 60
        E 0 90 62 60
        E 120 80 3d 00
        E 0 80 48 00
        E 0 80 4a 00
        E 0 80 54 00
        E 0 80 56 00
        E 0 80 60 00
        E 0 80 62 00
        E 120 90 48 60
        E 0 90 4a 60
        E 0 90 54 60
        E 0 90 56 60
        E 0 90 60 60
        E 0 90 62 60
        E 120 80 48 00
        E 0 80 4a 00
        E 0 80 54 00
        E 0 80 56 00
        E 0 80 60 00
        E 0 80 62 00
        E 120 90 3d 60
        E 0 90 48 60
        E 0 90 4a 60
        E 0 90 54 60
        E 0 90 56 60
        E 0 90 60 60
        E 0 90 62 60
        E 120 80 3d 00
        E 0 80 48 00
        E 0 80 4a 00
        E 0 80 54 00
        E 0 80 56 00
        E 0 80 60 00
        E 0 80 62 00
        E 120 90 48 60
        E 0 90 4a 60
        E 0 90 54 60
        E 0 90 56 60
        E 0 90 60 60
        E 0 90 62 60
        E 120 80 28 00
        E 0 80 48 00
        E 0 80 4a 00
        E 0 80 54 00
        E 0 80 56 00
        E 0 80 60 00
        E 0 80 62 00
        E 360 90 31 60
        E 0 90 4a 60
        E 0 90 4b 60
        E 0 90 56 60
        E 0 90 57 60
        E 0 90 62 60
        E 0 90 63 60
        E 120 80 4a 00
        E 0 80 4b 00
        E 480 80 31 00
        E 0 80 56 00
        E 0 80 57 00
        E 0 80 62 00
        E 0 80 63 00
        E 120 90 28 60
        E 0 90 3d 60
        E 0 90 48 60
        E 0 90 4a 60
        E 0 90 54 60
        E 0 90 56 60
        E 0 90 60 60
        E 0 90 62 60
        E 120 80 3d 00
        E 0 80 48 00
        E 0 80 4a 00
        E 0 80 54 00
        E 0 80 56 00
        E 0 80 60 00
        E 0 80 62 00
        E 120 90 48 60
        E 0 90 4a 60
        E 0 90 54 60
        E 0 90 56 60
        E 0 90 60 60
        E 0 90 62 60
        E 120 80 48 00
        E 0 80 4a 00
        E 0 80 54 00
        E 0 80 56 00
        E 0 80 60 00
        E 0 80 62 00
        E 120 90 3d 60
        E 0 90 48 60
        E 0 90 4a 60
        E 0 90 54 60
        E 0 90 56 60
        E 0 90 60 60
        E 0 90 62 60
        E 120 80 3d 00
        E 0 80 48 00
        E 0 80 4a 00
        E 0 80 54 00
        E 0 80 56 00
        E 0 80 60 00
        E 0 80 62 00
        E 120 90 48 60
        E 0 90 4a 60
        E 0 90 54 60
        E 0 90 56 60
        E 0 90 60 60
        E 0 90 62 60
        E 120 80 28 00
        E 0 80 48 00
        E 0 80 4a 00
        E 0 80 54 00
        E 0 80 56 00
        E 0 80 60 00
        E 0 80 62 00
        E 360 90 31 60
        E 0 90 4a 60
        E 0 90 4b 60
        E 0 90 56 60
        E 0 90 57 60
        E 0 90 62 60
        E 0 90 63 60
        E 120 80 4a 00
        E 0 80 4b 00
        E 480 80 31 00
        E 0 80 56 00
        E 0 80 57 00
        E 0 80 62 00
        E 0 80 63 00
        E 120 90 28 60
        E 0 90 3d 60
        E 0 90 48 60
        E 0 90 4a 60
        E 0 90 54 60
        E 0 90 56 60
        E 0 90 60 60
        E 0 90 62 60
        E 120 80 3d 00
        E 0 80 48 00
        E 0 80 4a 00
        E 0 80 54 00
        E 0 80 56 00
        E 0 80 60 00
        E 0 80 62 00
        E 120 90 48 60
        E 0 90 4a 60
        E 0 90 54 60
        E 0 90 56 60
        E 0 90 60 60
        E 0 90 62 60
        E 120 80 48 00
        E 0 80 4a 00
        E 0 80 54 00
        E 0 80 56 00
        E 0 80 60 00
        E 0 80 62 00
        E 120 90 3d 60
        E 0 90 48 60
        E 0 90 4a 60
        E 0 90 54 60
        E 0 90 56 60
        E 0 90 60 60
        E 0 90 62 60
        E 120 80 3d 00
        E 0 80 48 00
        E 0 80 4a 00
        E 0 80 54 00
        E 0 80 56 00
        E 0 80 60 00
        E 0 80 62 00
        E 120 90 48 60
        E 0 90 4a 60
        E 0 90 54 60
        E 0 90 56 60
        E 0 90 60 60
        E 0 90 62 60
        E 120 80 28 00
        E 0 80 48 00
        E 0 80 4a 00
        E 0 80 54 00
        E 0 80 56 00
        E 0 80 60 00
        E 0 80 62 00
        E 360 90 31 60
        E 0 90 4a 60
        E 0 90 4b 60
        E 0 90 56 60
        E 0 90 57 60
        E 0 90 62 60
        E 0 90 63 60
        E 120 80 4a 00
        E 0 80 4b 00
        E 480 80 31 00
        E 0 80 56 00
        E 0 80 57 00
        E 0 80 62 00
        E 0 80 63 00
        E 120 90 28 60
        E 0 90 3d 60
        E 0 90 48 60
        E 0 90 4a 60
        E 0 90 54 60
        E 0 90 56 60
        E 0 90 60 60
        E 0 90 62 60
        E 120 80 3d 00
        E 0 80 48 00
        E 0 80 4a 00
        E 0 80 54 00
        E 0 80 56 00
        E 0 80 60 00
        E 0 80 62 00
        E 120 90 48 60
        E 0 90 4a 60
        E 0 90 54 60
        E 0 90 56 60
        E 0 90 60 60
        E 0 90 62 60
        E 120 80 48 00
        E 0 80 4a 00
        E 0 80 54 00
        E 0 80 56 00
        E 0 80 60 00
        E 0 80 62 00
        E 120 90 3d 60
        E 0 90 48 60
        E 0 90 4a 60
        E 0 90 54 60
        E 0 90 56 60
        E 0 90 60 60
        E 0 90 62 60
        E 120 80 3d 00
        E 0 80 48 00
        E 0 80 4a 00
        E 0 80 54 00
        E 0 80 56 00
        E 0 80 60 00
        E 0 80 62 00
        E 120 90 48 60
        E 0 90 4a 60
        E 0 90 54 60
        E 0 90 56 60
        E 0 90 60 60
        E 0 90 62 60
        E 120 80 28 00
        E 0 80 48 00
        E 0 80 4a 00
        E 0 80 54 00
        E 0 80 56 00
        E 0 80 60 00
        E 0 80 62 00
        E 360 90 31 60
        E 0 90 4a 60
        E 0 90 4b 60
        E 0 90 56 60
        E 0 90 57 60
        E 0 90 62 60
        E 0 90 63 60
        E 120 80 4a 00
        E 0 80 4b 00
        E 480 80 31 00
        E 0 80 56 00
        E 0 80 57 00
        E 0 80 62 00
        E 0 80 63 00
        E 120 90 28 60
        E 0 90 3d 60
        E 0 90 48 60
        E 0 90 4a 60
        E 0 90 54 60
        E 0 90 56 60
        E 0 90 60 60
        E 0 90 62 60
        E 120 80 3d 00
        E 0 80 48 00
        E 0 80 4a 00
        E 0 80 54 00
        E 0 80 56 00
        E 0 80 60 00
        E 0 80 62 00
        E 120 90 48 60
        E 0 90 4a 60
        E 0 90 54 60
        E 0 90 56 60
        E 0 90 60 60
        E 0 90 62 60
        E 120 80 48 00
        E 0 80 4a 00
        E 0 80 54 00
        E 0 80 56 00
        E 0 80 60 00
        E 0 80 62 00
        E 120 90 3d 60
        E 0 90 48 60
        E 0 90 4a 60
        E 0 90 54 60
        E 0 90 56 60
        E 0 90 60 60
        E 0 90 62 60
        E 120 80 3d 00
        E 0 80 48 00
        E 0 80 4a 00
        E 0 80 54 00
        E 0 80 56 00
        E 0 80 60 00
        E 0 80 62 00
        E 120 90 48 60
        E 0 90 4a 60
        E 0 90 54 60
        E 0 90 56 60
        E 0 90 60 60
        E 0 90 62 60
        E 120 80 28 00
        E 0 80 48 00
        E 0 80 4a 00
        E 0 80 54 00
        E 0 80 56 00
        E 0 80 60 00
        E 0 80 62 00
        E 360 90 31 60
        E 0 90 4a 60
        E 0 90 4b 60
        E 0 90 56 60
        E 0 90 57 60
        E 0 90 62 60
        E 0 90 63 60
        E 120 80 4a 00
        E 0 80 4b 00
        E 480 80 31 00
        E 0 80 56 00
        E 0 80 57 00
        E 0 80 62 00
        E 0 80 63 00
        E 120 90 28 60
        E 0 90 3d 60
        E 0 90 48 60
        E 0 90 4a 60
        E 0 90 54 60
        E 0 90 56 60
        E 0 90 60 60
        E 0 90 62 60
        E 120 80 3d 00
        E 0 80 48 00
        E 0 80 4a 00
        E 0 80 54 00
        E 0 80 56 00
        E 0 80 60 00
        E 0 80 62 00
        E 120 90 48 60
        E 0 90 4a 60
        E 0 90 54 60
        E 0 90 56 60
        E 0 90 60 60
        E 0 90 62 60
        E 120 80 48 00
        E 0 80 4a 00
        E 0 80 54 00
        E 0 80 56 00
        E 0 80 60 00
        E 0 80 62 00
        E 120 90 3d 60
        E 0 90 48 60
        E 0 90 4a 60
        E 0 90 54 60
        E 0 90 56 60
        E 0 90 60 60
        E 0 90 62 60
        E 120 80 3d 00
        E 0 80 48 00
        E 0 80 4a 00
        E 0 80 54 00
        E 0 80 56 00
        E 0 80 60 00
        E 0 80 62 00
        E 120 90 48 60
        E 0 90 4a 60
        E 0 90 54 60
        E 0 90 56 60
        E 0 90 60 60
        E 0 90 62 60
        E 120 80 28 00
        E 0 80 48 00
        E 0 80 4a 00
        E 0 80 54 00
        E 0 80 56 00
        E 0 80 60 00
        E 0 80 62 00
        E 360 90 31 60
        E 0 90 4a 60
        E 0 90 4b 60
        E 0 90 56 60
        E 0 90 57 60
        E 0 90 62 60
        E 0 90 63 60
        E 120 80 4a 00
        E 0 80 4b 00
        E 480 80 31 00
        E 0 80 56 00
        E 0 80 57 00
        E 0 80 62 00
        E 0 80 63 00
        E 120 90 28 60
        E 0 90 3d 60
        E 0 90 48 60
        E 0 90 4a 60
        E 0 90 54 60
        E 0 90 56 60
        E 0 90 60 60
        E 0 90 62 60
        E 0 90 74 60
        E 120 80 3d 00
        E 0 80 48 00
        E 0 80 4a 00
        E 0 80 54 00
        E 0 80 56 00
        E 0 80 60 00
        E 0 80 62 00
        E 120 90 48 60
        E 0 90 4a 60
        E 0 90 54 60
        E 0 90 56 60
        E 0 90 60 60
        E 0 90 62 60
        E 120 80 48 00
        E 0 80 4a 00
        E 0 80 54 00
        E 0 80 56 00
        E 0 80 60 00
        E 0 80 62 00
        E 120 90 3d 60
        E 0 90 48 60
        E 0 90 4a 60
        E 0 90 54 60
        E 0 90 56 60
        E 0 90 60 60
        E 0 90 62 60
        E 120 80 28 00
        E 0 80 3d 00
        E 0 80 48 00
        E 0 80 4a 00
        E 0 80 54 00
        E 0 80 56 00
        E 0 80 60 00
        E 0 80 62 00
        <X 120 0
          /wFbbWFwIEhhbmRNYXBfQWxsQmVuZF0=
        >
        E 0 90 2d 60
        E 0 90 57 60
        E 0 90 62 60
        E 60 80 62 00
        E 0 90 63 60
        E 0 90 65 60
        E 900 80 57 00
        E 0 80 63 00
        E 0 80 65 00
        E 120 80 2d 00
        <X 120 0
          /wFbbWFwIEhhbmRNYXBfRHJvcERd
        >
        E 0 80 74 00
        E 0 90 28 60
        E 0 90 3d 60
        E 0 90 48 60
        E 0 90 4a 60
        E 0 90 54 60
        E 0 90 56 60
        E 0 90 60 60
        E 0 90 62 60
        E 120 80 3d 00
        E 0 80 48 00
        E 0 80 4a 00
        E 0 80 54 00
        E 0 80 56 00
        E 0 80 60 00
        E 0 80 62 00
        E 120 90 48 60
        E 0 90 4a 60
        E 0 90 54 60
        E 0 90 56 60
        E 0 90 60 60
        E 0 90 62 60
        E 120 80 48 00
        E 0 80 4a 00
        E 0 80 54 00
        E 0 80 56 00
        E 0 80 60 00
        E 0 80 62 00
        E 120 90 3d 60
        E 0 90 48 60
        E 0 90 4a 60
        E 0 90 54 60
        E 0 90 56 60
        E 0 90 60 60
        E 0 90 62 60
        E 120 80 28 00
        E 0 80 3d 00
        E 0 80 48 00
        E 0 80 4a 00
        E 0 80 54 00
        E 0 80 56 00
        E 0 80 60 00
        E 0 80 62 00
        E 120 90 2d 60
        E 0 90 55 60
        E 0 90 57 60
        E 0 90 61 60
        E 0 90 63 60
        E 120 80 55 00
        E 0 80 57 00
        E 0 80 61 00
        E 0 80 63 00
        E 360 90 49 60
        E 0 90 4b 60
        E 0 90 55 60
        E 0 90 57 60
        E 0 90 61 60
        E 0 90 63 60
        E 120 80 49 00
        E 0 80 4b 00
        E 0 80 55 00
        E 0 80 57 00
        E 0 80 61 00
        E 0 80 63 00
        E 120 90 3e 60
        E 0 90 49 60
        E 0 90 4b 60
        E 0 90 55 60
        E 0 90 57 60
        E 0 90 61 60
        E 0 90 63 60
        E 120 80 2d 00
        E 0 80 3e 00
        E 0 80 49 00
        E 0 80 4b 00
        E 0 80 55 00
        E 0 80 57 00
        E 0 80 61 00
        E 0 80 63 00
        E 120 90 2f 60
        E 0 90 55 60
        E 0 90 58 60
        E 0 90 61 60
        E 0 90 64 60
        E 120 80 55 00
        E 0 80 58 00
        E 0 80 61 00
        E 0 80 64 00
        E 360 90 4a 60
        E 0 90 4c 60
        E 0 90 55 60
        E 0 90 58 60
        E 0 90 61 60
        E 0 90 64 60
        E 120 80 4a 00
        E 0 80 4c 00
        E 0 80 55 00
        E 0 80 58 00
        E 0 80 61 00
        E 0 80 64 00
        E 120 90 4a 60
        E 0 90 4c 60
        E 0 90 55 60
        E 0 90 58 60
        E 0 90 61 60
        E 0 90 64 60
        E 120 80 4a 00
        E 0 80 4c 00
        E 0 80 55 00
        E 0 80 58 00
        E 0 80 61 00
        E 0 80 64 00
        E 120 90 55 60
        E 0 90 58 60
        E 0 90 61 60
        E 0 90 64 60
        E 120 80 2f 00
        E 0 80 55 00
        E 0 80 58 00
        E 0 80 61 00
        E 0 80 64 00
        E 120 90 28 60
        E 0 90 3c 60
        E 0 90 48 60
        E 0 90 49 60
        E 0 90 54 60
        E 0 90 55 60
        E 0 90 60 60
        E 0 90 61 60
        E 120 80 3c 00
        E 0 80 48 00
        E 0 80 49 00
        E 0 80 54 00
        E 0 80 55 00
        E 0 80 60 00
        E 0 80 61 00
        E 120 90 48 60
        E 0 90 49 60
        E 0 90 54 60
        E 0 90 55 60
        E 0 90 60 60
        E 0 90 61 60
        E 120 80 48 00
        E 0 80 49 00
        E 0 80 54 00
        E 0 80 55 00
        E 0 80 60 00
        E 0 80 61 00
        E 120 90 48 60
        E 0 90 49 60
        E 0 90 54 60
        E 0 90 55 60
        E 0 90 60 60
        E 0 90 61 60
        E 120 80 48 00
        E 0 80 49 00
        E 0 80 54 00
        E 0 80 55 00
        E 0 80 60 00
        E 0 80 61 00
        E 120 90 54 60
        E 0 90 55 60
        E 0 90 60 60
        E 0 90 61 60
        E 120 80 54 00
        E 0 80 55 00
        E 0 80 60 00
        E 0 80 61 00
        E 120 90 3d 60
        E 0 90 48 60
        E 0 90 4a 60
        E 0 90 54 60
        E 0 90 56 60
        E 0 90 60 60
        E 0 90 62 60
        E 120 80 3d 00
        E 0 80 48 00
        E 0 80 4a 00
        E 0 80 54 00
        E 0 80 56 00
        E 0 80 60 00
        E 0 80 62 00
        E 120 90 48 60
        E 0 90 4a 60
        E 0 90 54 60
        E 0 90 56 60
        E 0 90 60 60
        E 0 90 62 60
        E 120 80 48 00
        E 0 80 4a 00
        E 0 80 54 00
        E 0 80 56 00
        E 0 80 60 00
        E 0 80 62 00
        E 120 90 3d 60
        E 0 90 48 60
        E 0 90 4a 60
        E 0 90 54 60
        E 0 90 56 60
        E 0 90 60 60
        E 0 90 62 60
        E 120 80 28 00
        E 0 80 3d 00
        E 0 80 48 00
        E 0 80 4a 00
        E 0 80 54 00
        E 0 80 56 00
        E 0 80 60 00
        E 0 80 62 00
        E 120 90 2d 60
        E 0 90 55 60
        E 0 90 57 60
        E 0 90 61 60
        E 0 90 63 60
        E 120 80 55 00
        E 0 80 57 00
        E 0 80 61 00
        E 0 80 63 00
        E 360 90 49 60
        E 0 90 4b 60
        E 0 90 55 60
        E 0 90 57 60
        E 0 90 61 60
        E 0 90 63 60
        E 120 80 49 00
        E 0 80 4b 00
        E 0 80 55 00
        E 0 80 57 00
        E 0 80 61 00
        E 0 80 63 00
        E 120 90 3e 60
        E 0 90 49 60
        E 0 90 4b 60
        E 0 90 55 60
        E 0 90 57 60
        E 0 90 61 60
        E 0 90 63 60
        E 120 80 2d 00
        E 0 80 3e 00
        E 0 80 49 00
        E 0 80 4b 00
        E 0 80 55 00
        E 0 80 57 00
        E 0 80 61 00
        E 0 80 63 00
        E 120 90 2f 60
        E 0 90 55 60
        E 0 90 58 60
        E 0 90 61 60
        E 0 90 64 60
        E 120 80 55 00
        E 0 80 58 00
        E 0 80 61 00
        E 0 80 64 00
        E 360 90 4a 60
        E 0 90 4c 60
        E 0 90 55 60
        E 0 90 58 60
        E 0 90 61 60
        E 0 90 64 60
        E 120 80 4a 00
        E 0 80 4c 00
        E 0 80 55 00
        E 0 80 58 00
        E 0 80 61 00
        E 0 80 64 00
        E 120 90 4a 60
        E 0 90 4c 60
        E 0 90 55 60
        E 0 90 58 60
        E 0 90 61 60
        E 0 90 64 60
        E 120 80 4a 00
        E 0 80 4c 00
        E 0 80 55 00
        E 0 80 58 00
        E 0 80 61 00
        E 0 80 64 00
        E 120 90 55 60
        E 0 90 58 60
        E 0 90 61 60
        E 0 90 64 60
        E 120 80 2f 00
        E 0 80 55 00
        E 0 80 58 00
        E 0 80 61 00
        E 0 80 64 00
        E 120 90 28 60
        E 0 90 3c 60
        E 0 90 48 60
        E 0 90 49 60
        E 0 90 54 60
        E 0 90 55 60
        E 0 90 60 60
        E 0 90 61 60
        E 120 80 3c 00
        E 0 80 48 00
        E 0 80 49 00
        E 0 80 54 00
        E 0 80 55 00
        E 0 80 60 00
        E 0 80 61 00
        E 120 90 48 60
        E 0 90 49 60
        E 0 90 54 60
        E 0 90 55 60
        E 0 90 60 60
        E 0 90 61 60
        E 120 80 48 00
        E 0 80 49 00
        E 0 80 54 00
        E 0 80 55 00
        E 0 80 60 00
        E 0 80 61 00
        E 120 90 48 60
        E 0 90 49 60
        E 0 90 54 60
        E 0 90 55 60
        E 0 90 60 60
        E 0 90 61 60
        E 120 80 48 00
        E 0 80 49 00
        E 0 80 54 00
        E 0 80 55 00
        E 0 80 60 00
        E 0 80 61 00
        E 120 90 54 60
        E 0 90 55 60
        E 0 90 60 60
        E 0 90 61 60
        E 120 80 54 00
        E 0 80 55 00
        E 0 80 60 00
        E 0 80 61 00
        E 120 90 3d 60
        E 0 90 48 60
        E 0 90 4a 60
        E 0 90 54 60
        E 0 90 56 60
        E 0 90 60 60
        E 0 90 62 60
        E 120 80 3d 00
        E 0 80 48 00
        E 0 80 4a 00
        E 0 80 54 00
        E 0 80 56 00
        E 0 80 60 00
        E 0 80 62 00
        E 120 90 48 60
        E 0 90 4a 60
        E 0 90 54 60
        E 0 90 56 60
        E 0 90 60 60
        E 0 90 62 60
        E 120 80 48 00
        E 0 80 4a 00
        E 0 80 54 00
        E 0 80 56 00
        E 0 80 60 00
        E 0 80 62 00
        E 120 90 3d 60
        E 0 90 48 60
        E 0 90 4a 60
        E 0 90 54 60
        E 0 90 56 60
        E 0 90 60 60
        E 0 90 62 60
        E 120 80 28 00
        E 0 80 3d 00
        E 0 80 48 00
        E 0 80 4a 00
        E 0 80 54 00
        E 0 80 56 00
        E 0 80 60 00
        E 0 80 62 00
        E 120 90 2d 60
        E 0 90 55 60
        E 0 90 57 60
        E 0 90 61 60
        E 0 90 63 60
        E 120 80 55 00
        E 0 80 57 00
        E 0 80 61 00
        E 0 80 63 00
        E 360 90 49 60
        E 0 90 4b 60
        E 0 90 55 60
        E 0 90 57 60
        E 0 90 61 60
        E 0 90 63 60
        E 120 80 49 00
        E 0 80 4b 00
        E 0 80 55 00
        E 0 80 57 00
        E 0 80 61 00
        E 0 80 63 00
        E 120 90 3e 60
        E 0 90 49 60
        E 0 90 4b 60
        E 0 90 55 60
        E 0 90 57 60
        E 0 90 61 60
        E 0 90 63 60
        E 120 80 2d 00
        E 0 80 3e 00
        E 0 80 49 00
        E 0 80 4b 00
        E 0 80 55 00
        E 0 80 57 00
        E 0 80 61 00
        E 0 80 63 00
        E 120 90 2f 60
        E 0 90 55 60
        E 0 90 58 60
        E 0 90 61 60
        E 0 90 64 60
        E 120 80 55 00
        E 0 80 58 00
        E 0 80 61 00
        E 0 80 64 00
        E 360 90 4a 60
        E 0 90 4c 60
        E 0 90 55 60
        E 0 90 58 60
        E 0 90 61 60
        E 0 90 64 60
        E 120 80 4a 00
        E 0 80 4c 00
        E 0 80 55 00
        E 0 80 58 00
        E 0 80 61 00
        E 0 80 64 00
        E 120 90 4a 60
        E 0 90 4c 60
        E 0 90 55 60
        E 0 90 58 60
        E 0 90 61 60
        E 0 90 64 60
        E 120 80 4a 00
        E 0 80 4c 00
        E 0 80 55 00
        E 0 80 58 00
        E 0 80 61 00
        E 0 80 64 00
        E 120 90 55 60
        E 0 90 58 60
        E 0 90 61 60
        E 0 90 64 60
        E 120 80 2f 00
        E 0 80 55 00
        E 0 80 58 00
        E 0 80 61 00
        E 0 80 64 00
        E 120 90 28 60
        E 0 90 3c 60
        E 0 90 48 60
        E 0 90 49 60
        E 0 90 54 60
        E 0 90 55 60
        E 0 90 60 60
        E 0 90 61 60
        E 120 80 3c 00
        E 0 80 48 00
        E 0 80 49 00
        E 0 80 54 00
        E 0 80 55 00
        E 0 80 60 00
        E 0 80 61 00
        E 120 90 48 60
        E 0 90 49 60
        E 0 90 54 60
        E 0 90 55 60
        E 0 90 60 60
        E 0 90 61 60
        E 120 80 48 00
        E 0 80 49 00
        E 0 80 54 00
        E 0 80 55 00
        E 0 80 60 00
        E 0 80 61 00
        E 120 90 48 60
        E 0 90 49 60
        E 0 90 54 60
        E 0 90 55 60
        E 0 90 60 60
        E 0 90 61 60
        E 120 80 48 00
        E 0 80 49 00
        E 0 80 54 00
        E 0 80 55 00
        E 0 80 60 00
        E 0 80 61 00
        E 120 90 54 60
        E 0 90 55 60
        E 0 90 60 60
        E 0 90 61 60
        E 120 80 54 00
        E 0 80 55 00
        E 0 80 60 00
        E 0 80 61 00
        E 120 90 3d 60
        E 0 90 48 60
        E 0 90 4a 60
        E 0 90 54 60
        E 0 90 56 60
        E 0 90 60 60
        E 0 90 62 60
        E 120 80 3d 00
        E 0 80 48 00
        E 0 80 4a 00
        E 0 80 54 00
        E 0 80 56 00
        E 0 80 60 00
        E 0 80 62 00
        E 120 90 48 60
        E 0 90 4a 60
        E 0 90 54 60
        E 0 90 56 60
        E 0 90 60 60
        E 0 90 62 60
        E 120 80 48 00
        E 0 80 4a 00
        E 0 80 54 00
        E 0 80 56 00
        E 0 80 60 00
        E 0 80 62 00
        E 120 90 3d 60
        E 0 90 48 60
        E 0 90 4a 60
        E 0 90 54 60
        E 0 90 56 60
        E 0 90 60 60
        E 0 90 62 60
        E 120 80 28 00
        E 0 80 3d 00
        E 0 80 48 00
        E 0 80 4a 00
        E 0 80 54 00
        E 0 80 56 00
        E 0 80 60 00
        E 0 80 62 00
        E 120 90 2d 60
        E 0 90 55 60
        E 0 90 57 60
        E 0 90 61 60
        E 0 90 63 60
        E 120 80 55 00
        E 0 80 57 00
        E 0 80 61 00
        E 0 80 63 00
        E 360 90 49 60
        E 0 90 4b 60
        E 0 90 55 60
        E 0 90 57 60
        E 0 90 61 60
        E 0 90 63 60
        E 120 80 49 00
        E 0 80 4b 00
        E 0 80 55 00
        E 0 80 57 00
        E 0 80 61 00
        E 0 80 63 00
        E 120 90 3e 60
        E 0 90 49 60
        E 0 90 4b 60
        E 0 90 55 60
        E 0 90 57 60
        E 0 90 61 60
        E 0 90 63 60
        E 120 80 2d 00
        E 0 80 3e 00
        E 0 80 49 00
        E 0 80 4b 00
        E 0 80 55 00
        E 0 80 57 00
        E 0 80 61 00
        E 0 80 63 00
        E 120 90 2f 60
        E 0 90 55 60
        E 0 90 58 60
        E 0 90 61 60
        E 0 90 64 60
        E 120 80 55 00
        E 0 80 58 00
        E 0 80 61 00
        E 0 80 64 00
        E 120 90 74 60
        E 240 90 4a 60
        E 0 90 4c 60
        E 0 90 55 60
        E 0 90 58 60
        E 0 90 61 60
        E 0 90 64 60
        E 120 80 4a 00
        E 0 80 4c 00
        E 0 80 55 00
        E 0 80 58 00
        E 0 80 61 00
        E 0 80 64 00
        E 120 90 4a 60
        E 0 90 4c 60
        E 0 90 55 60
        E 0 90 58 60
        E 0 90 61 60
        E 0 90 64 60
        E 120 80 4a 00
        E 0 80 4c 00
        E 0 80 55 00
        E 0 80 58 00
        E 0 80 61 00
        E 0 80 64 00
        E 120 90 55 60
        E 0 90 58 60
        E 0 90 61 60
        E 0 90 64 60
        E 120 80 2f 00
        E 0 80 55 00
        E 0 80 58 00
        E 0 80 61 00
        E 0 80 64 00
        E 120 90 28 60
        E 0 90 3c 60
        E 0 90 48 60
        E 0 90 49 60
        E 0 90 54 60
        E 0 90 55 60
        E 0 90 60 60
        E 0 90 61 60
        E 120 80 3c 00
        E 0 80 48 00
        E 0 80 49 00
        E 0 80 54 00
        E 0 80 55 00
        E 0 80 60 00
        E 0 80 61 00
        E 120 90 48 60
        E 0 90 49 60
        E 0 90 54 60
        E 0 90 55 60
        E 0 90 60 60
        E 0 90 61 60
        E 120 80 48 00
        E 0 80 49 00
        E 0 80 54 00
        E 0 80 55 00
        E 0 80 60 00
        E 0 80 61 00
        E 120 90 48 60
        E 0 90 49 60
        E 0 90 54 60
        E 0 90 55 60
        E 0 90 60 60
        E 0 90 61 60
        E 120 80 48 00
        E 0 80 49 00
        E 0 80 54 00
        E 0 80 55 00
        E 0 80 60 00
        E 0 80 61 00
        E 120 90 54 60
        E 0 90 55 60
        E 0 90 60 60
        E 0 90 61 60
        E 120 80 54 00
        E 0 80 55 00
        E 0 80 60 00
        E 0 80 61 00
        E 120 90 3d 60
        E 0 90 48 60
        E 0 90 4a 60
        E 0 90 54 60
        E 0 90 56 60
        E 0 90 60 60
        E 0 90 62 60
        E 120 80 74 00
        E 0 80 3d 00
        E 0 80 48 00
        E 0 80 4a 00
        E 0 80 54 00
        E 0 80 56 00
        E 0 80 60 00
        E 0 80 62 00
        E 120 90 48 60
        E 0 90 4a 60
        E 0 90 54 60
        E 0 90 56 60
        E 0 90 60 60
        E 0 90 62 60
        E 120 80 48 00
        E 0 80 4a 00
        E 0 80 54 00
        E 0 80 56 00
        E 0 80 60 00
        E 0 80 62 00
        E 120 90 3d 60
        E 0 90 48 60
        E 0 90 4a 60
        E 0 90 54 60
        E 0 90 56 60
        E 0 90 60 60
        E 0 90 62 60
        E 120 80 3d 00
        E 0 80 48 00
        E 0 80 4a 00
        E 0 80 54 00
        E 0 80 56 00
        E 0 80 60 00
        E 0 80 62 00
        E 120 90 48 60
        E 0 90 4a 60
        E 0 90 54 60
        E 0 90 56 60
        E 0 90 60 60
        E 0 90 62 60
        E 120 80 28 00
        E 0 80 48 00
        E 0 80 4a 00
        E 0 80 54 00
        E 0 80 56 00
        E 0 80 60 00
        E 0 80 62 00
        E 360 90 31 60
        E 0 90 4a 60
        E 0 90 4b 60
        E 0 90 56 60
        E 0 90 57 60
        E 0 90 62 60
        E 0 90 63 60
        E 120 80 4a 00
        E 0 80 4b 00
        E 480 80 31 00
        E 0 80 56 00
        E 0 80 57 00
        E 0 80 62 00
        E 0 80 63 00
        E 120 90 28 60
        E 0 90 3d 60
        E 0 90 48 60
        E 0 90 4a 60
        E 0 90 54 60
        E 0 90 56 60
        E 0 90 60 60
        E 0 90 62 60
        E 120 80 3d 00
        E 0 80 48 00
        E 0 80 4a 00
        E 0 80 54 00
        E 0 80 56 00
        E 0 80 60 00
        E 0 80 62 00
        E 120 90 48 60
        E 0 90 4a 60
        E 0 90 54 60
        E 0 90 56 60
        E 0 90 60 60
        E 0 90 62 60
        E 120 80 48 00
        E 0 80 4a 00
        E 0 80 54 00
        E 0 80 56 00
        E 0 80 60 00
        E 0 80 62 00
        E 120 90 3d 60
        E 0 90 48 60
        E 0 90 4a 60
        E 0 90 54 60
        E 0 90 56 60
        E 0 90 60 60
        E 0 90 62 60
        E 120 80 3d 00
        E 0 80 48 00
        E 0 80 4a 00
        E 0 80 54 00
        E 0 80 56 00
        E 0 80 60 00
        E 0 80 62 00
        E 120 90 48 60
        E 0 90 4a 60
        E 0 90 54 60
        E 0 90 56 60
        E 0 90 60 60
        E 0 90 62 60
        E 120 80 28 00
        E 0 80 48 00
        E 0 80 4a 00
        E 0 80 54 00
        E 0 80 56 00
        E 0 80 60 00
        E 0 80 62 00
        E 360 90 31 60
        E 0 90 4a 60
        E 0 90 4b 60
        E 0 90 56 60
        E 0 90 57 60
        E 0 90 62 60
        E 0 90 63 60
        E 120 80 4a 00
        E 0 80 4b 00
        E 480 80 31 00
        E 0 80 56 00
        E 0 80 57 00
        E 0 80 62 00
        E 0 80 63 00
        E 120 90 28 60
        E 0 90 3d 60
        E 0 90 48 60
        E 0 90 4a 60
        E 0 90 54 60
        E 0 90 56 60
        E 0 90 60 60
        E 0 90 62 60
        E 120 80 3d 00
        E 0 80 48 00
        E 0 80 4a 00
        E 0 80 54 00
        E 0 80 56 00
        E 0 80 60 00
        E 0 80 62 00
        E 120 90 48 60
        E 0 90 4a 60
        E 0 90 54 60
        E 0 90 56 60
        E 0 90 60 60
        E 0 90 62 60
        E 120 80 48 00
        E 0 80 4a 00
        E 0 80 54 00
        E 0 80 56 00
        E 0 80 60 00
        E 0 80 62 00
        E 120 90 3d 60
        E 0 90 48 60
        E 0 90 4a 60
        E 0 90 54 60
        E 0 90 56 60
        E 0 90 60 60
        E 0 90 62 60
        E 120 80 3d 00
        E 0 80 48 00
        E 0 80 4a 00
        E 0 80 54 00
        E 0 80 56 00
        E 0 80 60 00
        E 0 80 62 00
        E 120 90 48 60
        E 0 90 4a 60
        E 0 90 54 60
        E 0 90 56 60
        E 0 90 60 60
        E 0 90 62 60
        E 120 80 28 00
        E 0 80 48 00
        E 0 80 4a 00
        E 0 80 54 00
        E 0 80 56 00
        E 0 80 60 00
        E 0 80 62 00
        E 360 90 31 60
        E 0 90 4a 60
        E 0 90 4b 60
        E 0 90 56 60
        E 0 90 57 60
        E 0 90 62 60
        E 0 90 63 60
        E 120 80 4a 00
        E 0 80 4b 00
        E 480 80 31 00
        E 0 80 56 00
        E 0 80 57 00
        E 0 80 62 00
        E 0 80 63 00
        E 120 90 28 60
        E 0 90 3d 60
        E 0 90 48 60
        E 0 90 4a 60
        E 0 90 54 60
        E 0 90 56 60
        E 0 90 60 60
        E 0 90 62 60
        E 120 80 3d 00
        E 0 80 48 00
        E 0 80 4a 00
        E 0 80 54 00
        E 0 80 56 00
        E 0 80 60 00
        E 0 80 62 00
        E 120 90 48 60
        E 0 90 4a 60
        E 0 90 54 60
        E 0 90 56 60
        E 0 90 60 60
        E 0 90 62 60
        E 120 80 48 00
        E 0 80 4a 00
        E 0 80 54 00
        E 0 80 56 00
        E 0 80 60 00
        E 0 80 62 00
        E 120 90 3d 60
        E 0 90 48 60
        E 0 90 4a 60
        E 0 90 54 60
        E 0 90 56 60
        E 0 90 60 60
        E 0 90 62 60
        E 120 80 3d 00
        E 0 80 48 00
        E 0 80 4a 00
        E 0 80 54 00
        E 0 80 56 00
        E 0 80 60 00
        E 0 80 62 00
        E 120 90 48 60
        E 0 90 4a 60
        E 0 90 54 60
        E 0 90 56 60
        E 0 90 60 60
        E 0 90 62 60
        E 120 80 28 00
        E 0 80 48 00
        E 0 80 4a 00
        E 0 80 54 00
        E 0 80 56 00
        E 0 80 60 00
        E 0 80 62 00
        E 360 90 31 60
        E 0 90 4a 60
        E 0 90 4b 60
        E 0 90 56 60
        E 0 90 57 60
        E 0 90 62 60
        E 0 90 63 60
        E 120 80 4a 00
        E 0 80 4b 00
        E 480 80 31 00
        E 0 80 56 00
        E 0 80 57 00
        E 0 80 62 00
        E 0 80 63 00
        E 120 90 28 60
        E 0 90 3d 60
        E 0 90 48 60
        E 0 90 4a 60
        E 0 90 54 60
        E 0 90 56 60
        E 0 90 60 60
        E 0 90 62 60
        E 120 80 3d 00
        E 0 80 48 00
        E 0 80 4a 00
        E 0 80 54 00
        E 0 80 56 00
        E 0 80 60 00
        E 0 80 62 00
        E 120 90 48 60
        E 0 90 4a 60
        E 0 90 54 60
        E 0 90 56 60
        E 0 90 60 60
        E 0 90 62 60
        E 120 80 48 00
        E 0 80 4a 00
        E 0 80 54 00
        E 0 80 56 00
        E 0 80 60 00
        E 0 80 62 00
        E 120 90 3d 60
        E 0 90 48 60
        E 0 90 4a 60
        E 0 90 54 60
        E 0 90 56 60
        E 0 90 60 60
        E 0 90 62 60
        E 120 80 3d 00
        E 0 80 48 00
        E 0 80 4a 00
        E 0 80 54 00
        E 0 80 56 00
        E 0 80 60 00
        E 0 80 62 00
        E 120 90 48 60
        E 0 90 4a 60
        E 0 90 54 60
        E 0 90 56 60
        E 0 90 60 60
        E 0 90 62 60
        E 120 80 28 00
        E 0 80 48 00
        E 0 80 4a 00
        E 0 80 54 00
        E 0 80 56 00
        E 0 80 60 00
        E 0 80 62 00
        E 360 90 31 60
        E 0 90 4a 60
        E 0 90 4b 60
        E 0 90 56 60
        E 0 90 57 60
        E 0 90 62 60
        E 0 90 63 60
        E 120 80 4a 00
        E 0 80 4b 00
        E 480 80 31 00
        E 0 80 56 00
        E 0 80 57 00
        E 0 80 62 00
        E 0 80 63 00
        E 120 90 28 60
        E 0 90 3d 60
        E 0 90 48 60
        E 0 90 4a 60
        E 0 90 54 60
        E 0 90 56 60
        E 0 90 60 60
        E 0 90 62 60
        E 120 80 3d 00
        E 0 80 48 00
        E 0 80 4a 00
        E 0 80 54 00
        E 0 80 56 00
        E 0 80 60 00
        E 0 80 62 00
        E 120 90 48 60
        E 0 90 4a 60
        E 0 90 54 60
        E 0 90 56 60
        E 0 90 60 60
        E 0 90 62 60
        E 120 80 48 00
        E 0 80 4a 00
        E 0 80 54 00
        E 0 80 56 00
        E 0 80 60 00
        E 0 80 62 00
        E 120 90 3d 60
        E 0 90 48 60
        E 0 90 4a 60
        E 0 90 54 60
        E 0 90 56 60
        E 0 90 60 60
        E 0 90 62 60
        E 120 80 3d 00
        E 0 80 48 00
        E 0 80 4a 00
        E 0 80 54 00
        E 0 80 56 00
        E 0 80 60 00
        E 0 80 62 00
        E 120 90 48 60
        E 0 90 4a 60
        E 0 90 54 60
        E 0 90 56 60
        E 0 90 60 60
        E 0 90 62 60
        E 120 80 28 00
        E 0 80 48 00
        E 0 80 4a 00
        E 0 80 54 00
        E 0 80 56 00
        E 0 80 60 00
        E 0 80 62 00
        E 360 90 31 60
        E 0 90 4a 60
        E 0 90 4b 60
        E 0 90 56 60
        E 0 90 57 60
        E 0 90 62 60
        E 0 90 63 60
        E 120 80 4a 00
        E 0 80 4b 00
        E 480 80 31 00
        E 0 80 56 00
        E 0 80 57 00
        E 0 80 62 00
        E 0 80 63 00
        E 120 90 28 60
        E 0 90 3d 60
        E 0 90 48 60
        E 0 90 4a 60
        E 0 90 54 60
        E 0 90 56 60
        E 0 90 60 60
        E 0 90 62 60
        E 120 80 3d 00
        E 0 80 48 00
        E 0 80 4a 00
        E 0 80 54 00
        E 0 80 56 00
        E 0 80 60 00
        E 0 80 62 00
        E 120 90 48 60
        E 0 90 4a 60
        E 0 90 54 60
        E 0 90 56 60
        E 0 90 60 60
        E 0 90 62 60
        E 120 80 48 00
        E 0 80 4a 00
        E 0 80 54 00
        E 0 80 56 00
        E 0 80 60 00
        E 0 80 62 00
        E 120 90 3d 60
        E 0 90 48 60
        E 0 90 4a 60
        E 0 90 54 60
        E 0 90 56 60
        E 0 90 60 60
        E 0 90 62 60
        E 120 80 3d 00
        E 0 80 48 00
        E 0 80 4a 00
        E 0 80 54 00
        E 0 80 56 00
        E 0 80 60 00
        E 0 80 62 00
        E 120 90 48 60
        E 0 90 4a 60
        E 0 90 54 60
        E 0 90 56 60
        E 0 90 60 60
        E 0 90 62 60
        E 120 80 28 00
        E 0 80 48 00
        E 0 80 4a 00
        E 0 80 54 00
        E 0 80 56 00
        E 0 80 60 00
        E 0 80 62 00
        E 360 90 31 60
        E 0 90 4a 60
        E 0 90 4b 60
        E 0 90 56 60
        E 0 90 57 60
        E 0 90 62 60
        E 0 90 63 60
        E 120 80 4a 00
        E 0 80 4b 00
        E 480 80 31 00
        E 0 80 56 00
        E 0 80 57 00
        E 0 80 62 00
        E 0 80 63 00
        E 120 90 28 60
        E 0 90 3d 60
        E 0 90 48 60
        E 0 90 4a 60
        E 0 90 54 60
        E 0 90 56 60
        E 0 90 60 60
        E 0 90 62 60
        E 120 80 3d 00
        E 0 80 48 00
        E 0 80 4a 00
        E 0 80 54 00
        E 0 80 56 00
        E 0 80 60 00
        E 0 80 62 00
        E 120 90 48 60
        E 0 90 4a 60
        E 0 90 54 60
        E 0 90 56 60
        E 0 90 60 60
        E 0 90 62 60
        E 120 80 48 00
        E 0 80 4a 00
        E 0 80 54 00
        E 0 80 56 00
        E 0 80 60 00
        E 0 80 62 00
        E 120 90 3d 60
        E 0 90 48 60
        E 0 90 4a 60
        E 0 90 54 60
        E 0 90 56 60
        E 0 90 60 60
        E 0 90 62 60
        E 120 80 3d 00
        E 0 80 48 00
        E 0 80 4a 00
        E 0 80 54 00
        E 0 80 56 00
        E 0 80 60 00
        E 0 80 62 00
        <X 120 0
          /wFbbWFwIFN0cnVtTWFwX0RlZmF1bHRd
        >
        E 0 90 54 60
        E 0 90 60 60
        E 1080 80 54 00
        E 0 80 60 00
        <X 120 0
          /wFbaW50ZW5zZV0=
        >
        <X 0 0
          /wFbbWFwIEhhbmRNYXBfRHJvcERd
        >
        E 0 90 3d 60
        E 0 90 48 60
        E 0 90 4a 60
        E 0 90 54 60
        E 0 90 56 60
        E 0 90 60 60
        E 0 90 62 60
        E 0 90 74 60
        E 120 80 3d 00
        E 0 80 48 00
        E 0 80 4a 00
        E 0 80 54 00
        E 0 80 56 00
        E 0 80 60 00
        E 0 80 62 00
        E 120 90 48 60
        E 0 90 4a 60
        E 0 90 54 60
        E 0 90 56 60
        E 0 90 60 60
        E 0 90 62 60
        E 120 80 48 00
        E 0 80 4a 00
        E 0 80 54 00
        E 0 80 56 00
        E 0 80 60 00
        E 0 80 62 00
        E 120 90 3d 60
        E 0 90 48 60
        E 0 90 4a 60
        E 0 90 54 60
        E 0 90 56 60
        E 0 90 60 60
        E 0 90 62 60
        E 120 80 28 00
        E 0 80 3d 00
        E 0 80 48 00
        E 0 80 4a 00
        E 0 80 54 00
        E 0 80 56 00
        E 0 80 60 00
        E 0 80 62 00
        E 120 90 2d 60
        E 0 90 55 60
        E 0 90 57 60
        E 0 90 61 60
        E 0 90 63 60
        E 120 80 55 00
        E 0 80 57 00
        E 0 80 61 00
        E 0 80 63 00
        E 360 90 49 60
        E 0 90 4b 60
        E 0 90 55 60
        E 0 90 57 60
        E 0 90 61 60
        E 0 90 63 60
        E 120 80 49 00
        E 0 80 4b 00
        E 0 80 55 00
        E 0 80 57 00
        E 0 80 61 00
        E 0 80 63 00
        E 120 90 3e 60
        E 0 90 49 60
        E 0 90 4b 60
        E 0 90 55 60
        E 0 90 57 60
        E 0 90 61 60
        E 0 90 63 60
        E 120 80 2d 00
        E 0 80 3e 00
        E 0 80 49 00
        E 0 80 4b 00
        E 0 80 55 00
        E 0 80 57 00
        E 0 80 61 00
        E 0 80 63 00
        E 120 90 2f 60
        E 0 90 55 60
        E 0 90 58 60
        E 0 90 61 60
        E 0 90 64 60
        E 120 80 55 00
        E 0 80 58 00
        E 0 80 61 00
        E 0 80 64 00
        E 360 90 4a 60
        E 0 90 4c 60
        E 0 90 55 60
        E 0 90 58 60
        E 0 90 61 60
        E 0 90 64 60
        E 120 80 4a 00
        E 0 80 4c 00
        E 0 80 55 00
        E 0 80 58 00
        E 0 80 61 00
        E 0 80 64 00
        E 120 90 4a 60
        E 0 90 4c 60
        E 0 90 55 60
        E 0 90 58 60
        E 0 90 61 60
        E 0 90 64 60
        E 120 80 4a 00
        E 0 80 4c 00
        E 0 80 55 00
        E 0 80 58 00
        E 0 80 61 00
        E 0 80 64 00
        E 120 90 55 60
        E 0 90 58 60
        E 0 90 61 60
        E 0 90 64 60
        E 120 80 2f 00
        E 0 80 55 00
        E 0 80 58 00
        E 0 80 61 00
        E 0 80 64 00
        E 120 90 28 60
        E 0 90 3c 60
        E 0 90 48 60
        E 0 90 49 60
        E 0 90 54 60
        E 0 90 55 60
        E 0 90 60 60
        E 0 90 61 60
        E 120 80 3c 00
        E 0 80 48 00
        E 0 80 49 00
        E 0 80 54 00
        E 0 80 55 00
        E 0 80 60 00
        E 0 80 61 00
        E 120 90 48 60
        E 0 90 49 60
        E 0 90 54 60
        E 0 90 55 60
        E 0 90 60 60
        E 0 90 61 60
        E 120 80 48 00
        E 0 80 49 00
        E 0 80 54 00
        E 0 80 55 00
        E 0 80 60 00
        E 0 80 61 00
        E 120 90 48 60
        E 0 90 49 60
        E 0 90 54 60
        E 0 90 55 60
        E 0 90 60 60
        E 0 90 61 60
        E 120 80 74 00
        E 0 80 48 00
        E 0 80 49 00
        E 0 80 54 00
        E 0 80 55 00
        E 0 80 60 00
        E 0 80 61 00
        E 120 90 54 60
        E 0 90 55 60
        E 0 90 60 60
        E 0 90 61 60
        E 120 80 54 00
        E 0 80 55 00
        E 0 80 60 00
        E 0 80 61 00
        E 120 90 3d 60
        E 0 90 48 60
        E 0 90 4a 60
        E 0 90 54 60
        E 0 90 56 60
        E 0 90 60 60
        E 0 90 62 60
        E 120 80 3d 00
        E 0 80 48 00
        E 0 80 4a 00
        E 0 80 54 00
        E 0 80 56 00
        E 0 80 60 00
        E 0 80 62 00
        E 120 90 48 60
        E 0 90 4a 60
        E 0 90 54 60
        E 0 90 56 60
        E 0 90 60 60
        E 0 90 62 60
        E 120 80 48 00
        E 0 80 4a 00
        E 0 80 54 00
        E 0 80 56 00
        E 0 80 60 00
        E 0 80 62 00
        E 120 90 3d 60
        E 0 90 48 60
        E 0 90 4a 60
        E 0 90 54 60
        E 0 90 56 60
        E 0 90 60 60
        E 0 90 62 60
        E 120 80 28 00
        E 0 80 3d 00
        E 0 80 48 00
        E 0 80 4a 00
        E 0 80 54 00
        E 0 80 56 00
        E 0 80 60 00
        E 0 80 62 00
        E 120 90 2d 60
        E 0 90 55 60
        E 0 90 57 60
        E 0 90 61 60
        E 0 90 63 60
        E 120 80 55 00
        E 0 80 57 00
        E 0 80 61 00
        E 0 80 63 00
        E 360 90 49 60
        E 0 90 4b 60
        E 0 90 55 60
        E 0 90 57 60
        E 0 90 61 60
        E 0 90 63 60
        E 120 80 49 00
        E 0 80 4b 00
        E 0 80 55 00
        E 0 80 57 00
        E 0 80 61 00
        E 0 80 63 00
        E 120 90 3e 60
        E 0 90 49 60
        E 0 90 4b 60
        E 0 90 55 60
        E 0 90 57 60
        E 0 90 61 60
        E 0 90 63 60
        E 120 80 2d 00
        E 0 80 3e 00
        E 0 80 49 00
        E 0 80 4b 00
        E 0 80 55 00
        E 0 80 57 00
        E 0 80 61 00
        E 0 80 63 00
        E 120 90 2f 60
        E 0 90 55 60
        E 0 90 58 60
        E 0 90 61 60
        E 0 90 64 60
        E 120 80 55 00
        E 0 80 58 00
        E 0 80 61 00
        E 0 80 64 00
        E 360 90 4a 60
        E 0 90 4c 60
        E 0 90 55 60
        E 0 90 58 60
        E 0 90 61 60
        E 0 90 64 60
        E 120 80 4a 00
        E 0 80 4c 00
        E 0 80 55 00
        E 0 80 58 00
        E 0 80 61 00
        E 0 80 64 00
        E 120 90 4a 60
        E 0 90 4c 60
        E 0 90 55 60
        E 0 90 58 60
        E 0 90 61 60
        E 0 90 64 60
        E 120 80 4a 00
        E 0 80 4c 00
        E 0 80 55 00
        E 0 80 58 00
        E 0 80 61 00
        E 0 80 64 00
        E 120 90 55 60
        E 0 90 58 60
        E 0 90 61 60
        E 0 90 64 60
        E 120 80 2f 00
        E 0 80 55 00
        E 0 80 58 00
        E 0 80 61 00
        E 0 80 64 00
        E 120 90 28 60
        E 0 90 3c 60
        E 0 90 48 60
        E 0 90 49 60
        E 0 90 54 60
        E 0 90 55 60
        E 0 90 60 60
        E 0 90 61 60
        E 120 80 3c 00
        E 0 80 48 00
        E 0 80 49 00
        E 0 80 54 00
        E 0 80 55 00
        E 0 80 60 00
        E 0 80 61 00
        E 120 90 48 60
        E 0 90 49 60
        E 0 90 54 60
        E 0 90 55 60
        E 0 90 60 60
        E 0 90 61 60
        E 120 80 48 00
        E 0 80 49 00
        E 0 80 54 00
        E 0 80 55 00
        E 0 80 60 00
        E 0 80 61 00
        E 120 90 48 60
        E 0 90 49 60
        E 0 90 54 60
        E 0 90 55 60
        E 0 90 60 60
        E 0 90 61 60
        E 120 80 48 00
        E 0 80 49 00
        E 0 80 54 00
        E 0 80 55 00
        E 0 80 60 00
        E 0 80 61 00
        E 120 90 54 60
        E 0 90 55 60
        E 0 90 60 60
        E 0 90 61 60
        E 120 80 54 00
        E 0 80 55 00
        E 0 80 60 00
        E 0 80 61 00
        E 120 90 3d 60
        E 0 90 48 60
        E 0 90 4a 60
        E 0 90 54 60
        E 0 90 56 60
        E 0 90 60 60
        E 0 90 62 60
        E 120 80 3d 00
        E 0 80 48 00
        E 0 80 4a 00
        E 0 80 54 00
        E 0 80 56 00
        E 0 80 60 00
        E 0 80 62 00
        E 120 90 48 60
        E 0 90 4a 60
        E 0 90 54 60
        E 0 90 56 60
        E 0 90 60 60
        E 0 90 62 60
        E 120 80 48 00
        E 0 80 4a 00
        E 0 80 54 00
        E 0 80 56 00
        E 0 80 60 00
        E 0 80 62 00
        E 120 90 3d 60
        E 0 90 48 60
        E 0 90 4a 60
        E 0 90 54 60
        E 0 90 56 60
        E 0 90 60 60
        E 0 90 62 60
        E 120 80 28 00
        E 0 80 3d 00
        E 0 80 48 00
        E 0 80 4a 00
        E 0 80 54 00
        E 0 80 56 00
        E 0 80 60 00
        E 0 80 62 00
        E 120 90 2d 60
        E 0 90 55 60
        E 0 90 57 60
        E 0 90 61 60
        E 0 90 63 60
        E 120 80 55 00
        E 0 80 57 00
        E 0 80 61 00
        E 0 80 63 00
        E 360 90 49 60
        E 0 90 4b 60
        E 0 90 55 60
        E 0 90 57 60
        E 0 90 61 60
        E 0 90 63 60
        E 120 80 49 00
        E 0 80 4b 00
        E 0 80 55 00
        E 0 80 57 00
        E 0 80 61 00
        E 0 80 63 00
        E 120 90 3e 60
        E 0 90 49 60
        E 0 90 4b 60
        E 0 90 55 60
        E 0 90 57 60
        E 0 90 61 60
        E 0 90 63 60
        E 120 80 2d 00
        E 0 80 3e 00
        E 0 80 49 00
        E 0 80 4b 00
        E 0 80 55 00
        E 0 80 57 00
        E 0 80 61 00
        E 0 80 63 00
        E 120 90 2f 60
        E 0 90 55 60
        E 0 90 58 60
        E 0 90 61 60
        E 0 90 64 60
        E 120 80 55 00
        E 0 80 58 00
        E 0 80 61 00
        E 0 80 64 00
        E 360 90 4a 60
        E 0 90 4c 60
        E 0 90 55 60
        E 0 90 58 60
        E 0 90 61 60
        E 0 90 64 60
        E 120 80 4a 00
        E 0 80 4c 00
        E 0 80 55 00
        E 0 80 58 00
        E 0 80 61 00
        E 0 80 64 00
        E 120 90 4a 60
        E 0 90 4c 60
        E 0 90 55 60
        E 0 90 58 60
        E 0 90 61 60
        E 0 90 64 60
        E 120 80 4a 00
        E 0 80 4c 00
        E 0 80 55 00
        E 0 80 58 00
        E 0 80 61 00
        E 0 80 64 00
        E 120 90 55 60
        E 0 90 58 60
        E 0 90 61 60
        E 0 90 64 60
        E 120 80 2f 00
        E 0 80 55 00
        E 0 80 58 00
        E 0 80 61 00
        E 0 80 64 00
        E 120 90 28 60
        E 0 90 3c 60
        E 0 90 48 60
        E 0 90 49 60
        E 0 90 54 60
        E 0 90 55 60
        E 0 90 60 60
        E 0 90 61 60
        E 120 80 3c 00
        E 0 80 48 00
        E 0 80 49 00
        E 0 80 54 00
        E 0 80 55 00
        E 0 80 60 00
        E 0 80 61 00
        E 120 90 48 60
        E 0 90 49 60
        E 0 90 54 60
        E 0 90 55 60
        E 0 90 60 60
        E 0 90 61 60
        E 120 80 48 00
        E 0 80 49 00
        E 0 80 54 00
        E 0 80 55 00
        E 0 80 60 00
        E 0 80 61 00
        E 120 90 48 60
        E 0 90 49 60
        E 0 90 54 60
        E 0 90 55 60
        E 0 90 60 60
        E 0 90 61 60
        E 120 80 48 00
        E 0 80 49 00
        E 0 80 54 00
        E 0 80 55 00
        E 0 80 60 00
        E 0 80 61 00
        E 120 90 54 60
        E 0 90 55 60
        E 0 90 60 60
        E 0 90 61 60
        E 120 80 54 00
        E 0 80 55 00
        E 0 80 60 00
        E 0 80 61 00
        E 120 90 3d 60
        E 0 90 48 60
        E 0 90 4a 60
        E 0 90 54 60
        E 0 90 56 60
        E 0 90 60 60
        E 0 90 62 60
        E 120 80 3d 00
        E 0 80 48 00
        E 0 80 4a 00
        E 0 80 54 00
        E 0 80 56 00
        E 0 80 60 00
        E 0 80 62 00
        E 120 90 48 60
        E 0 90 4a 60
        E 0 90 54 60
        E 0 90 56 60
        E 0 90 60 60
        E 0 90 62 60
        E 120 80 48 00
        E 0 80 4a 00
        E 0 80 54 00
        E 0 80 56 00
        E 0 80 60 00
        E 0 80 62 00
        E 120 90 3d 60
        E 0 90 48 60
        E 0 90 4a 60
        E 0 90 54 60
        E 0 90 56 60
        E 0 90 60 60
        E 0 90 62 60
        E 120 80 28 00
        E 0 80 3d 00
        E 0 80 48 00
        E 0 80 4a 00
        E 0 80 54 00
        E 0 80 56 00
        E 0 80 60 00
        E 0 80 62 00
        E 120 90 2d 60
        E 0 90 55 60
        E 0 90 57 60
        E 0 90 61 60
        E 0 90 63 60
        E 120 80 55 00
        E 0 80 57 00
        E 0 80 61 00
        E 0 80 63 00
        E 360 90 49 60
        E 0 90 4b 60
        E 0 90 55 60
        E 0 90 57 60
        E 0 90 61 60
        E 0 90 63 60
        E 120 80 49 00
        E 0 80 4b 00
        E 0 80 55 00
        E 0 80 57 00
        E 0 80 61 00
        E 0 80 63 00
        E 120 90 3e 60
        E 0 90 49 60
        E 0 90 4b 60
        E 0 90 55 60
        E 0 90 57 60
        E 0 90 61 60
        E 0 90 63 60
        E 120 80 2d 00
        E 0 80 3e 00
        E 0 80 49 00
        E 0 80 4b 00
        E 0 80 55 00
        E 0 80 57 00
        E 0 80 61 00
        E 0 80 63 00
        <X 120 0
          /wFbbWFwIEhhbmRNYXBfQWxsQmVuZF0=
        >
        E 0 90 2f 60
        E 0 90 57 60
        E 0 90 62 60
        E 0 90 74 60
        E 60 80 62 00
        E 0 90 63 60
        E 0 90 65 60
        E 60 80 57 00
        E 0 80 63 00
        E 300 80 2f 00
        E 60 90 2b 60
        E 0 90 4a 60
        E 0 90 56 60
        E 0 90 62 60
        E 120 80 4a 00
        E 480 80 56 00
        E 0 80 62 00
        E 120 90 3c 60
        E 0 90 49 60
        E 0 90 55 60
        E 0 90 61 60
        E 480 80 3c 00
        E 0 80 49 00
        E 120 80 65 00
        E 0 80 2b 00
        E 0 80 55 00
        E 0 80 61 00
        <X 360 0
          /wFbbWFwIEhhbmRNYXBfRHJvcERd
        >
        E 0 80 74 00
        E 0 90 28 60
        E 0 90 3d 60
        E 0 90 48 60
        E 0 90 4a 60
        E 0 90 54 60
        E 0 90 56 60
        E 0 90 60 60
        E 0 90 62 60
        E 120 80 3d 00
        E 0 80 48 00
        E 0 80 4a 00
        E 0 80 54 00
        E 0 80 56 00
        E 0 80 60 00
        E 0 80 62 00
        E 120 90 48 60
        E 0 90 4a 60
        E 0 90 54 60
        E 0 90 56 60
        E 0 90 60 60
        E 0 90 62 60
        E 120 80 48 00
        E 0 80 4a 00
        E 0 80 54 00
        E 0 80 56 00
        E 0 80 60 00
        E 0 80 62 00
        E 120 90 3d 60
        E 0 90 48 60
        E 0 90 4a 60
        E 0 90 54 60
        E 0 90 56 60
        E 0 90 60 60
        E 0 90 62 60
        E 120 80 28 00
        E 0 80 3d 00
        E 0 80 48 00
        E 0 80 4a 00
        E 0 80 54 00
        E 0 80 56 00
        E 0 80 60 00
        E 0 80 62 00
        E 120 90 2d 60
        E 0 90 55 60
        E 0 90 57 60
        E 0 90 61 60
        E 0 90 63 60
        E 120 80 55 00
        E 0 80 57 00
        E 0 80 61 00
        E 0 80 63 00
        E 360 90 49 60
        E 0 90 4b 60
        E 0 90 55 60
        E 0 90 57 60
        E 0 90 61 60
        E 0 90 63 60
        E 120 80 49 00
        E 0 80 4b 00
        E 0 80 55 00
        E 0 80 57 00
        E 0 80 61 00
        E 0 80 63 00
        E 120 90 3e 60
        E 0 90 49 60
        E 0 90 4b 60
        E 0 90 55 60
        E 0 90 57 60
        E 0 90 61 60
        E 0 90 63 60
        E 120 80 2d 00
        E 0 80 3e 00
        E 0 80 49 00
        E 0 80 4b 00
        E 0 80 55 00
        E 0 80 57 00
        E 0 80 61 00
        E 0 80 63 00
        E 120 90 2f 60
        E 0 90 55 60
        E 0 90 58 60
        E 0 90 61 60
        E 0 90 64 60
        E 120 80 55 00
        E 0 80 58 00
        E 0 80 61 00
        E 0 80 64 00
        E 360 90 4a 60
        E 0 90 4c 60
        E 0 90 55 60
        E 0 90 58 60
        E 0 90 61 60
        E 0 90 64 60
        E 120 80 4a 00
        E 0 80 4c 00
        E 0 80 55 00
        E 0 80 58 00
        E 0 80 61 00
        E 0 80 64 00
        E 120 90 4a 60
        E 0 90 4c 60
        E 0 90 55 60
        E 0 90 58 60
        E 0 90 61 60
        E 0 90 64 60
        E 120 80 4a 00
        E 0 80 4c 00
        E 0 80 55 00
        E 0 80 58 00
        E 0 80 61 00
        E 0 80 64 00
        E 120 90 55 60
        E 0 90 58 60
        E 0 90 61 60
        E 0 90 64 60
        E 120 80 2f 00
        E 0 80 55 00
        E 0 80 58 00
        E 0 80 61 00
        E 0 80 64 00
        E 120 90 28 60
        E 0 90 3c 60
        E 0 90 48 60
        E 0 90 49 60
        E 0 90 54 60
        E 0 90 55 60
        E 0 90 60 60
        E 0 90 61 60
        E 120 80 3c 00
        E 0 80 48 00
        E 0 80 49 00
        E 0 80 54 00
        E 0 80 55 00
        E 0 80 60 00
        E 0 80 61 00
        E 120 90 48 60
        E 0 90 49 60
        E 0 90 54 60
        E 0 90 55 60
        E 0 90 60 60
        E 0 90 61 60
        E 120 80 48 00
        E 0 80 49 00
        E 0 80 54 00
        E 0 80 55 00
        E 0 80 60 00
        E 0 80 61 00
        E 120 90 48 60
        E 0 90 49 60
        E 0 90 54 60
        E 0 90 55 60
        E 0 90 60 60
        E 0 90 61 60
        E 120 80 48 00
        E 0 80 49 00
        E 0 80 54 00
        E 0 80 55 00
        E 0 80 60 00
        E 0 80 61 00
        E 120 90 54 60
        E 0 90 55 60
        E 0 90 60 60
        E 0 90 61 60
        E 120 80 54 00
        E 0 80 55 00
        E 0 80 60 00
        E 0 80 61 00
        E 120 90 3d 60
        E 0 90 48 60
        E 0 90 4a 60
        E 0 90 54 60
        E 0 90 56 60
        E 0 90 60 60
        E 0 90 62 60
        E 120 80 3d 00
        E 0 80 48 00
        E 0 80 4a 00
        E 0 80 54 00
        E 0 80 56 00
        E 0 80 60 00
        E 0 80 62 00
        E 120 90 48 60
        E 0 90 4a 60
        E 0 90 54 60
        E 0 90 56 60
        E 0 90 60 60
        E 0 90 62 60
        E 120 80 48 00
        E 0 80 4a 00
        E 0 80 54 00
        E 0 80 56 00
        E 0 80 60 00
        E 0 80 62 00
        E 120 90 3d 60
        E 0 90 48 60
        E 0 90 4a 60
        E 0 90 54 60
        E 0 90 56 60
        E 0 90 60 60
        E 0 90 62 60
        E 120 80 28 00
        E 0 80 3d 00
        E 0 80 48 00
        E 0 80 4a 00
        E 0 80 54 00
        E 0 80 56 00
        E 0 80 60 00
        E 0 80 62 00
        E 120 90 2d 60
        E 0 90 55 60
        E 0 90 57 60
        E 0 90 61 60
        E 0 90 63 60
        E 120 80 55 00
        E 0 80 57 00
        E 0 80 61 00
        E 0 80 63 00
        E 360 90 49 60
        E 0 90 4b 60
        E 0 90 55 60
        E 0 90 57 60
        E 0 90 61 60
        E 0 90 63 60
        E 120 80 49 00
        E 0 80 4b 00
        E 0 80 55 00
        E 0 80 57 00
        E 0 80 61 00
        E 0 80 63 00
        E 120 90 3e 60
        E 0 90 49 60
        E 0 90 4b 60
        E 0 90 55 60
        E 0 90 57 60
        E 0 90 61 60
        E 0 90 63 60
        E 120 80 2d 00
        E 0 80 3e 00
        E 0 80 49 00
        E 0 80 4b 00
        E 0 80 55 00
        E 0 80 57 00
        E 0 80 61 00
        E 0 80 63 00
        E 120 90 2f 60
        E 0 90 55 60
        E 0 90 58 60
        E 0 90 61 60
        E 0 90 64 60
        E 120 80 55 00
        E 0 80 58 00
        E 0 80 61 00
        E 0 80 64 00
        E 360 90 4a 60
        E 0 90 4c 60
        E 0 90 55 60
        E 0 90 58 60
        E 0 90 61 60
        E 0 90 64 60
        E 120 80 4a 00
        E 0 80 4c 00
        E 0 80 55 00
        E 0 80 58 00
        E 0 80 61 00
        E 0 80 64 00
        E 120 90 4a 60
        E 0 90 4c 60
        E 0 90 55 60
        E 0 90 58 60
        E 0 90 61 60
        E 0 90 64 60
        E 120 80 4a 00
        E 0 80 4c 00
        E 0 80 55 00
        E 0 80 58 00
        E 0 80 61 00
        E 0 80 64 00
        E 120 90 55 60
        E 0 90 58 60
        E 0 90 61 60
        E 0 90 64 60
        E 120 80 2f 00
        E 0 80 55 00
        E 0 80 58 00
        E 0 80 61 00
        E 0 80 64 00
        E 120 90 28 60
        E 0 90 3c 60
        E 0 90 48 60
        E 0 90 49 60
        E 0 90 54 60
        E 0 90 55 60
        E 0 90 60 60
        E 0 90 61 60
        E 120 80 3c 00
        E 0 80 48 00
        E 0 80 49 00
        E 0 80 54 00
        E 0 80 55 00
        E 0 80 60 00
        E 0 80 61 00
        E 120 90 48 60
        E 0 90 49 60
        E 0 90 54 60
        E 0 90 55 60
        E 0 90 60 60
        E 0 90 61 60
        E 120 80 48 00
        E 0 80 49 00
        E 0 80 54 00
        E 0 80 55 00
        E 0 80 60 00
        E 0 80 61 00
        E 120 90 48 60
        E 0 90 49 60
        E 0 90 54 60
        E 0 90 55 60
        E 0 90 60 60
        E 0 90 61 60
        E 120 80 48 00
        E 0 80 49 00
        E 0 80 54 00
        E 0 80 55 00
        E 0 80 60 00
        E 0 80 61 00
        E 120 90 54 60
        E 0 90 55 60
        E 0 90 60 60
        E 0 90 61 60
        E 120 80 54 00
        E 0 80 55 00
        E 0 80 60 00
        E 0 80 61 00
        E 120 90 3d 60
        E 0 90 48 60
        E 0 90 4a 60
        E 0 90 54 60
        E 0 90 56 60
        E 0 90 60 60
        E 0 90 62 60
        E 120 80 3d 00
        E 0 80 48 00
        E 0 80 4a 00
        E 0 80 54 00
        E 0 80 56 00
        E 0 80 60 00
        E 0 80 62 00
        E 120 90 48 60
        E 0 90 4a 60
        E 0 90 54 60
        E 0 90 56 60
        E 0 90 60 60
        E 0 90 62 60
        E 120 80 48 00
        E 0 80 4a 00
        E 0 80 54 00
        E 0 80 56 00
        E 0 80 60 00
        E 0 80 62 00
        E 120 90 3d 60
        E 0 90 48 60
        E 0 90 4a 60
        E 0 90 54 60
        E 0 90 56 60
        E 0 90 60 60
        E 0 90 62 60
        E 120 80 28 00
        E 0 80 3d 00
        E 0 80 48 00
        E 0 80 4a 00
        E 0 80 54 00
        E 0 80 56 00
        E 0 80 60 00
        E 0 80 62 00
        E 120 90 2d 60
        E 0 90 55 60
        E 0 90 57 60
        E 0 90 61 60
        E 0 90 63 60
        E 120 80 55 00
        E 0 80 57 00
        E 0 80 61 00
        E 0 80 63 00
        E 360 90 49 60
        E 0 90 4b 60
        E 0 90 55 60
        E 0 90 57 60
        E 0 90 61 60
        E 0 90 63 60
        E 120 80 49 00
        E 0 80 4b 00
        E 0 80 55 00
        E 0 80 57 00
        E 0 80 61 00
        E 0 80 63 00
        E 120 90 3e 60
        E 0 90 49 60
        E 0 90 4b 60
        E 0 90 55 60
        E 0 90 57 60
        E 0 90 61 60
        E 0 90 63 60
        E 120 80 2d 00
        E 0 80 3e 00
        E 0 80 49 00
        E 0 80 4b 00
        E 0 80 55 00
        E 0 80 57 00
        E 0 80 61 00
        E 0 80 63 00
        E 120 90 2f 60
        E 0 90 55 60
        E 0 90 58 60
        E 0 90 61 60
        E 0 90 64 60
        E 120 80 55 00
        E 0 80 58 00
        E 0 80 61 00
        E 0 80 64 00
        E 360 90 4a 60
        E 0 90 4c 60
        E 0 90 55 60
        E 0 90 58 60
        E 0 90 61 60
        E 0 90 64 60
        E 120 80 4a 00
        E 0 80 4c 00
        E 0 80 55 00
        E 0 80 58 00
        E 0 80 61 00
        E 0 80 64 00
        E 120 90 4a 60
        E 0 90 4c 60
        E 0 90 55 60
        E 0 90 58 60
        E 0 90 61 60
        E 0 90 64 60
        E 120 80 4a 00
        E 0 80 4c 00
        E 0 80 55 00
        E 0 80 58 00
        E 0 80 61 00
        E 0 80 64 00
        E 120 90 55 60
        E 0 90 58 60
        E 0 90 61 60
        E 0 90 64 60
        E 120 80 2f 00
        E 0 80 55 00
        E 0 80 58 00
        E 0 80 61 00
        E 0 80 64 00
        E 120 90 28 60
        E 0 90 3c 60
        E 0 90 48 60
        E 0 90 49 60
        E 0 90 54 60
        E 0 90 55 60
        E 0 90 60 60
        E 0 90 61 60
        E 120 80 3c 00
        E 0 80 48 00
        E 0 80 49 00
        E 0 80 54 00
        E 0 80 55 00
        E 0 80 60 00
        E 0 80 61 00
        E 120 90 48 60
        E 0 90 49 60
        E 0 90 54 60
        E 0 90 55 60
        E 0 90 60 60
        E 0 90 61 60
        E 120 80 48 00
        E 0 80 49 00
        E 0 80 54 00
        E 0 80 55 00
        E 0 80 60 00
        E 0 80 61 00
        E 120 90 48 60
        E 0 90 49 60
        E 0 90 54 60
        E 0 90 55 60
        E 0 90 60 60
        E 0 90 61 60
        E 120 80 48 00
        E 0 80 49 00
        E 0 80 54 00
        E 0 80 55 00
        E 0 80 60 00
        E 0 80 61 00
        E 120 90 54 60
        E 0 90 55 60
        E 0 90 60 60
        E 0 90 61 60
        E 120 80 54 00
        E 0 80 55 00
        E 0 80 60 00
        E 0 80 61 00
        E 120 90 3d 60
        E 0 90 48 60
        E 0 90 4a 60
        E 0 90 54 60
        E 0 90 56 60
        E 0 90 60 60
        E 0 90 62 60
        E 120 80 3d 00
        E 0 80 48 00
        E 0 80 4a 00
        E 0 80 54 00
        E 0 80 56 00
        E 0 80 60 00
        E 0 80 62 00
        E 120 90 48 60
        E 0 90 4a 60
        E 0 90 54 60
        E 0 90 56 60
        E 0 90 60 60
        E 0 90 62 60
        E 120 80 48 00
        E 0 80 4a 00
        E 0 80 54 00
        E 0 80 56 00
        E 0 80 60 00
        E 0 80 62 00
        E 120 90 3d 60
        E 0 90 48 60
        E 0 90 4a 60
        E 0 90 54 60
        E 0 90 56 60
        E 0 90 60 60
        E 0 90 62 60
        E 120 80 28 00
        E 0 80 3d 00
        E 0 80 48 00
        E 0 80 4a 00
        E 0 80 54 00
        E 0 80 56 00
        E 0 80 60 00
        E 0 80 62 00
        E 120 90 2d 60
        E 0 90 55 60
        E 0 90 57 60
        E 0 90 61 60
        E 0 90 63 60
        E 120 80 55 00
        E 0 80 57 00
        E 0 80 61 00
        E 0 80 63 00
        E 360 90 49 60
        E 0 90 4b 60
        E 0 90 55 60
        E 0 90 57 60
        E 0 90 61 60
        E 0 90 63 60
        E 120 80 49 00
        E 0 80 4b 00
        E 0 80 55 00
        E 0 80 57 00
        E 0 80 61 00
        E 0 80 63 00
        E 120 90 3e 60
        E 0 90 49 60
        E 0 90 4b 60
        E 0 90 55 60
        E 0 90 57 60
        E 0 90 61 60
        E 0 90 63 60
        E 120 80 2d 00
        E 0 80 3e 00
        E 0 80 49 00
        E 0 80 4b 00
        E 0 80 55 00
        E 0 80 57 00
        E 0 80 61 00
        E 0 80 63 00
        E 120 90 2f 60
        E 0 90 55 60
        E 0 90 58 60
        E 0 90 61 60
        E 0 90 64 60
        E 120 80 55 00
        E 0 80 58 00
        E 0 80 61 00
        E 0 80 64 00
        E 360 90 4a 60
        E 0 90 4c 60
        E 0 90 55 60
        E 0 90 58 60
        E 0 90 61 60
        E 0 90 64 60
        E 120 80 4a 00
        E 0 80 4c 00
        E 0 80 55 00
        E 0 80 58 00
        E 0 80 61 00
        E 0 80 64 00
        E 120 90 4a 60
        E 0 90 4c 60
        E 0 90 55 60
        E 0 90 58 60
        E 0 90 61 60
        E 0 90 64 60
        E 120 80 4a 00
        E 0 80 4c 00
        E 0 80 55 00
        E 0 80 58 00
        E 0 80 61 00
        E 0 80 64 00
        E 120 90 55 60
        E 0 90 58 60
        E 0 90 61 60
        E 0 90 64 60
        E 120 80 2f 00
        E 0 80 55 00
        E 0 80 58 00
        E 0 80 61 00
        E 0 80 64 00
        E 120 90 28 60
        E 0 90 3c 60
        E 0 90 48 60
        E 0 90 49 60
        E 0 90 54 60
        E 0 90 55 60
        E 0 90 60 60
        E 0 90 61 60
        E 120 80 3c 00
        E 0 80 48 00
        E 0 80 49 00
        E 0 80 54 00
        E 0 80 55 00
        E 0 80 60 00
        E 0 80 61 00
        E 120 90 48 60
        E 0 90 49 60
        E 0 90 54 60
        E 0 90 55 60
        E 0 90 60 60
        E 0 90 61 60
        E 120 80 48 00
        E 0 80 49 00
        E 0 80 54 00
        E 0 80 55 00
        E 0 80 60 00
        E 0 80 61 00
        E 120 90 48 60
        E 0 90 49 60
        E 0 90 54 60
        E 0 90 55 60
        E 0 90 60 60
        E 0 90 61 60
        E 120 80 48 00
        E 0 80 49 00
        E 0 80 54 00
        E 0 80 55 00
        E 0 80 60 00
        E 0 80 61 00
        E 120 80 28 00
        E 0 90 54 60
        E 0 90 55 60
        E 0 90 60 60
        E 0 90 61 60
        E 120 80 54 00
        E 0 80 55 00
        E 0 80 60 00
        E 0 80 61 00
        <X 120 0
          /wFbbWFwIEhhbmRNYXBfQWxsQmVuZF0=
        >
        <X 0 0
          /wFbcGxheV0=
        >
        E 0 90 35 60
        E 0 90 3c 60
        E 0 90 49 60
        E 0 90 55 60
        E 0 90 61 60
        E 120 80 3c 00
        E 0 80 49 00
        E 480 80 55 00
        E 0 80 61 00
        E 120 90 4b 60
        E 0 90 57 60
        E 0 90 63 60
        E 0 90 65 60
        E 120 80 4b 00
        E 240 80 57 00
        E 0 80 63 00
        E 120 90 3c 60
        E 0 90 49 60
        E 0 90 55 60
        E 0 90 61 60
        E 480 80 3c 00
        E 0 80 49 00
        E 360 80 55 00
        E 0 80 61 00
        E 120 90 4b 60
        E 0 90 58 60
        E 0 90 64 60
        E 120 80 4b 00
        E 360 80 58 00
        E 0 80 64 00
        E 240 90 3c 60
        E 0 90 49 60
        E 0 90 55 60
        E 0 90 61 60
        E 720 80 3c 00
        E 0 80 49 00
        E 360 80 55 00
        E 0 80 61 00
        E 120 90 4b 60
        E 0 90 58 60
        E 0 90 64 60
        E 120 80 4b 00
        E 0 80 58 00
        E 0 80 64 00
        E 0 90 61 60
        E 120 80 61 00
        E 0 90 3d 60
        E 0 90 4b 60
        E 0 90 58 60
        E 0 90 64 60
        E 1440 80 3d 00
        E 0 80 4b 00
        E 360 80 58 00
        E 0 80 64 00
        E 120 90 3c 60
        E 0 90 49 60
        E 0 90 55 60
        E 0 90 61 60
        E 120 80 3c 00
        E 0 80 49 00
        E 480 80 55 00
        E 0 80 61 00
        E 120 90 48 60
        E 0 90 54 60
        E 0 90 60 60
        E 120 80 48 00
        E 360 80 35 00
        E 0 80 65 00
        E 0 80 54 00
        E 0 80 60 00
        <X 240 0
          /wFbbWFwIEhhbmRNYXBfRHJvcERd
        >
        <X 0 0
          /wFbaW50ZW5zZV0=
        >
        E 0 90 28 60
        E 0 90 3d 60
        E 0 90 48 60
        E 0 90 4a 60
        E 0 90 54 60
        E 0 90 56 60
        E 0 90 60 60
        E 0 90 62 60
        E 120 80 3d 00
        E 0 80 48 00
        E 0 80 4a 00
        E 0 80 54 00
        E 0 80 56 00
        E 0 80 60 00
        E 0 80 62 00
        E 120 90 48 60
        E 0 90 4a 60
        E 0 90 54 60
        E 0 90 56 60
        E 0 90 60 60
        E 0 90 62 60
        E 120 80 48 00
        E 0 80 4a 00
        E 0 80 54 00
        E 0 80 56 00
        E 0 80 60 00
        E 0 80 62 00
        E 120 90 3d 60
        E 0 90 48 60
        E 0 90 4a 60
        E 0 90 54 60
        E 0 90 56 60
        E 0 90 60 60
        E 0 90 62 60
        E 120 80 28 00
        E 0 80 3d 00
        E 0 80 48 00
        E 0 80 4a 00
        E 0 80 54 00
        E 0 80 56 00
        E 0 80 60 00
        E 0 80 62 00
        E 120 90 2d 60
        E 0 90 55 60
        E 0 90 57 60
        E 0 90 61 60
        E 0 90 63 60
        E 360 80 55 00
        E 0 80 57 00
        E 0 80 61 00
        E 0 80 63 00
        E 120 90 49 60
        E 0 90 4b 60
        E 0 90 55 60
        E 0 90 57 60
        E 0 90 61 60
        E 0 90 63 60
        E 120 80 49 00
        E 0 80 4b 00
        E 0 80 55 00
        E 0 80 57 00
        E 0 80 61 00
        E 0 80 63 00
        E 120 90 3e 60
        E 0 90 49 60
        E 0 90 4b 60
        E 0 90 55 60
        E 0 90 57 60
        E 0 90 61 60
        E 0 90 63 60
        E 120 80 2d 00
        E 0 80 3e 00
        E 0 80 49 00
        E 0 80 4b 00
        E 0 80 55 00
        E 0 80 57 00
        E 0 80 61 00
        E 0 80 63 00
        E 120 90 2f 60
        E 0 90 55 60
        E 0 90 58 60
        E 0 90 61 60
        E 0 90 64 60
        E 360 80 55 00
        E 0 80 58 00
        E 0 80 61 00
        E 0 80 64 00
        E 120 90 4a 60
        E 0 90 4c 60
        E 0 90 55 60
        E 0 90 58 60
        E 0 90 61 60
        E 0 90 64 60
        E 120 80 4a 00
        E 0 80 4c 00
        E 0 80 55 00
        E 0 80 58 00
        E 0 80 61 00
        E 0 80 64 00
        E 120 90 4a 60
        E 0 90 4c 60
        E 0 90 55 60
        E 0 90 58 60
        E 0 90 61 60
        E 0 90 64 60
        E 120 80 4a 00
        E 0 80 4c 00
        E 0 80 55 00
        E 0 80 58 00
        E 0 80 61 00
        E 0 80 64 00
        E 120 90 55 60
        E 0 90 58 60
        E 0 90 61 60
        E 0 90 64 60
        E 120 80 2f 00
        E 0 80 55 00
        E 0 80 58 00
        E 0 80 61 00
        E 0 80 64 00
        E 120 90 28 60
        E 0 90 3c 60
        E 0 90 48 60
        E 0 90 49 60
        E 0 90 54 60
        E 0 90 55 60
        E 0 90 60 60
        E 0 90 61 60
        E 120 80 3c 00
        E 0 80 48 00
        E 0 80 49 00
        E 0 80 54 00
        E 0 80 55 00
        E 0 80 60 00
        E 0 80 61 00
        E 120 90 48 60
        E 0 90 49 60
        E 0 90 54 60
        E 0 90 55 60
        E 0 90 60 60
        E 0 90 61 60
        E 120 80 48 00
        E 0 80 49 00
        E 0 80 54 00
        E 0 80 55 00
        E 0 80 60 00
        E 0 80 61 00
        E 120 90 48 60
        E 0 90 49 60
        E 0 90 54 60
        E 0 90 55 60
        E 0 90 60 60
        E 0 90 61 60
        E 120 80 48 00
        E 0 80 49 00
        E 0 80 54 00
        E 0 80 55 00
        E 0 80 60 00
        E 0 80 61 00
        E 120 90 54 60
        E 0 90 55 60
        E 0 90 60 60
        E 0 90 61 60
        E 120 80 54 00
        E 0 80 55 00
        E 0 80 60 00
        E 0 80 61 00
        E 120 90 3d 60
        E 0 90 48 60
        E 0 90 4a 60
        E 0 90 54 60
        E 0 90 56 60
        E 0 90 60 60
        E 0 90 62 60
        E 120 80 3d 00
        E 0 80 48 00
        E 0 80 4a 00
        E 0 80 54 00
        E 0 80 56 00
        E 0 80 60 00
        E 0 80 62 00
        E 120 90 48 60
        E 0 90 4a 60
        E 0 90 54 60
        E 0 90 56 60
        E 0 90 60 60
        E 0 90 62 60
        E 120 80 48 00
        E 0 80 4a 00
        E 0 80 54 00
        E 0 80 56 00
        E 0 80 60 00
        E 0 80 62 00
        E 120 90 3d 60
        E 0 90 48 60
        E 0 90 4a 60
        E 0 90 54 60
        E 0 90 56 60
        E 0 90 60 60
        E 0 90 62 60
        E 120 80 28 00
        E 0 80 3d 00
        E 0 80 48 00
        E 0 80 4a 00
        E 0 80 54 00
        E 0 80 56 00
        E 0 80 60 00
        E 0 80 62 00
        E 120 90 2d 60
        E 0 90 55 60
        E 0 90 57 60
        E 0 90 61 60
        E 0 90 63 60
        E 360 80 55 00
        E 0 80 57 00
        E 0 80 61 00
        E 0 80 63 00
        E 120 90 49 60
        E 0 90 4b 60
        E 0 90 55 60
        E 0 90 57 60
        E 0 90 61 60
        E 0 90 63 60
        E 120 80 49 00
        E 0 80 4b 00
        E 0 80 55 00
        E 0 80 57 00
        E 0 80 61 00
        E 0 80 63 00
        E 120 90 3e 60
        E 0 90 49 60
        E 0 90 4b 60
        E 0 90 55 60
        E 0 90 57 60
        E 0 90 61 60
        E 0 90 63 60
        E 120 80 2d 00
        E 0 80 3e 00
        E 0 80 49 00
        E 0 80 4b 00
        E 0 80 55 00
        E 0 80 57 00
        E 0 80 61 00
        E 0 80 63 00
        E 120 90 2f 60
        E 0 90 55 60
        E 0 90 58 60
        E 0 90 61 60
        E 0 90 64 60
        E 360 80 55 00
        E 0 80 58 00
        E 0 80 61 00
        E 0 80 64 00
        E 120 90 4a 60
        E 0 90 4c 60
        E 0 90 55 60
        E 0 90 58 60
        E 0 90 61 60
        E 0 90 64 60
        E 120 80 4a 00
        E 0 80 4c 00
        E 0 80 55 00
        E 0 80 58 00
        E 0 80 61 00
        E 0 80 64 00
        E 120 90 4a 60
        E 0 90 4c 60
        E 0 90 55 60
        E 0 90 58 60
        E 0 90 61 60
        E 0 90 64 60
        E 120 80 4a 00
        E 0 80 4c 00
        E 0 80 55 00
        E 0 80 58 00
        E 0 80 61 00
        E 0 80 64 00
        E 120 90 55 60
        E 0 90 58 60
        E 0 90 61 60
        E 0 90 64 60
        E 120 80 2f 00
        E 0 80 55 00
        E 0 80 58 00
        E 0 80 61 00
        E 0 80 64 00
        E 120 90 28 60
        E 0 90 3c 60
        E 0 90 48 60
        E 0 90 49 60
        E 0 90 54 60
        E 0 90 55 60
        E 0 90 60 60
        E 0 90 61 60
        E 120 80 3c 00
        E 0 80 48 00
        E 0 80 49 00
        E 0 80 54 00
        E 0 80 55 00
        E 0 80 60 00
        E 0 80 61 00
        E 120 90 48 60
        E 0 90 49 60
        E 0 90 54 60
        E 0 90 55 60
        E 0 90 60 60
        E 0 90 61 60
        E 120 80 48 00
        E 0 80 49 00
        E 0 80 54 00
        E 0 80 55 00
        E 0 80 60 00
        E 0 80 61 00
        E 120 90 48 60
        E 0 90 49 60
        E 0 90 54 60
        E 0 90 55 60
        E 0 90 60 60
        E 0 90 61 60
        E 120 80 48 00
        E 0 80 49 00
        E 0 80 54 00
        E 0 80 55 00
        E 0 80 60 00
        E 0 80 61 00
        E 120 90 54 60
        E 0 90 55 60
        E 0 90 60 60
        E 0 90 61 60
        E 120 80 54 00
        E 0 80 55 00
        E 0 80 60 00
        E 0 80 61 00
        E 120 90 3d 60
        E 0 90 48 60
        E 0 90 4a 60
        E 0 90 54 60
        E 0 90 56 60
        E 0 90 60 60
        E 0 90 62 60
        E 120 80 3d 00
        E 0 80 48 00
        E 0 80 4a 00
        E 0 80 54 00
        E 0 80 56 00
        E 0 80 60 00
        E 0 80 62 00
        E 120 90 48 60
        E 0 90 4a 60
        E 0 90 54 60
        E 0 90 56 60
        E 0 90 60 60
        E 0 90 62 60
        E 120 80 48 00
        E 0 80 4a 00
        E 0 80 54 00
        E 0 80 56 00
        E 0 80 60 00
        E 0 80 62 00
        E 120 90 3d 60
        E 0 90 48 60
        E 0 90 4a 60
        E 0 90 54 60
        E 0 90 56 60
        E 0 90 60 60
        E 0 90 62 60
        E 120 80 28 00
        E 0 80 3d 00
        E 0 80 48 00
        E 0 80 4a 00
        E 0 80 54 00
        E 0 80 56 00
        E 0 80 60 00
        E 0 80 62 00
        E 120 90 2d 60
        E 0 90 55 60
        E 0 90 57 60
        E 0 90 61 60
        E 0 90 63 60
        E 360 80 55 00
        E 0 80 57 00
        E 0 80 61 00
        E 0 80 63 00
        E 120 90 49 60
        E 0 90 4b 60
        E 0 90 55 60
        E 0 90 57 60
        E 0 90 61 60
        E 0 90 63 60
        E 120 80 49 00
        E 0 80 4b 00
        E 0 80 55 00
        E 0 80 57 00
        E 0 80 61 00
        E 0 80 63 00
        E 120 90 3e 60
        E 0 90 49 60
        E 0 90 4b 60
        E 0 90 55 60
        E 0 90 57 60
        E 0 90 61 60
        E 0 90 63 60
        E 120 80 2d 00
        E 0 80 3e 00
        E 0 80 49 00
        E 0 80 4b 00
        E 0 80 55 00
        E 0 80 57 00
        E 0 80 61 00
        E 0 80 63 00
        E 120 90 2f 60
        E 0 90 55 60
        E 0 90 58 60
        E 0 90 61 60
        E 0 90 64 60
        E 360 80 55 00
        E 0 80 58 00
        E 0 80 61 00
        E 0 80 64 00
        E 120 90 4a 60
        E 0 90 4c 60
        E 0 90 55 60
        E 0 90 58 60
        E 0 90 61 60
        E 0 90 64 60
        E 120 80 4a 00
        E 0 80 4c 00
        E 0 80 55 00
        E 0 80 58 00
        E 0 80 61 00
        E 0 80 64 00
        E 120 90 4a 60
        E 0 90 4c 60
        E 0 90 55 60
        E 0 90 58 60
        E 0 90 61 60
        E 0 90 64 60
        E 120 80 4a 00
        E 0 80 4c 00
        E 0 80 55 00
        E 0 80 58 00
        E 0 80 61 00
        E 0 80 64 00
        E 120 90 55 60
        E 0 90 58 60
        E 0 90 61 60
        E 0 90 64 60
        E 120 80 2f 00
        E 0 80 55 00
        E 0 80 58 00
        E 0 80 61 00
        E 0 80 64 00
        E 120 90 28 60
        E 0 90 3c 60
        E 0 90 48 60
        E 0 90 49 60
        E 0 90 54 60
        E 0 90 55 60
        E 0 90 60 60
        E 0 90 61 60
        E 120 80 3c 00
        E 0 80 48 00
        E 0 80 49 00
        E 0 80 54 00
        E 0 80 55 00
        E 0 80 60 00
        E 0 80 61 00
        E 120 90 48 60
        E 0 90 49 60
        E 0 90 54 60
        E 0 90 55 60
        E 0 90 60 60
        E 0 90 61 60
        E 120 80 48 00
        E 0 80 49 00
        E 0 80 54 00
        E 0 80 55 00
        E 0 80 60 00
        E 0 80 61 00
        E 120 90 48 60
        E 0 90 49 60
        E 0 90 54 60
        E 0 90 55 60
        E 0 90 60 60
        E 0 90 61 60
        E 120 80 48 00
        E 0 80 49 00
        E 0 80 54 00
        E 0 80 55 00
        E 0 80 60 00
        E 0 80 61 00
        E 120 90 54 60
        E 0 90 55 60
        E 0 90 60 60
        E 0 90 61 60
        E 120 80 54 00
        E 0 80 55 00
        E 0 80 60 00
        E 0 80 61 00
        E 120 90 3d 60
        E 0 90 48 60
        E 0 90 4a 60
        E 0 90 54 60
        E 0 90 56 60
        E 0 90 60 60
        E 0 90 62 60
        E 120 80 3d 00
        E 0 80 48 00
        E 0 80 4a 00
        E 0 80 54 00
        E 0 80 56 00
        E 0 80 60 00
        E 0 80 62 00
        E 120 90 48 60
        E 0 90 4a 60
        E 0 90 54 60
        E 0 90 56 60
        E 0 90 60 60
        E 0 90 62 60
        E 120 80 48 00
        E 0 80 4a 00
        E 0 80 54 00
        E 0 80 56 00
        E 0 80 60 00
        E 0 80 62 00
        E 120 90 3d 60
        E 0 90 48 60
        E 0 90 4a 60
        E 0 90 54 60
        E 0 90 56 60
        E 0 90 60 60
        E 0 90 62 60
        E 120 80 28 00
        E 0 80 3d 00
        E 0 80 48 00
        E 0 80 4a 00
        E 0 80 54 00
        E 0 80 56 00
        E 0 80 60 00
        E 0 80 62 00
        E 120 90 2d 60
        E 0 90 55 60
        E 0 90 57 60
        E 0 90 61 60
        E 0 90 63 60
        E 360 80 55 00
        E 0 80 57 00
        E 0 80 61 00
        E 0 80 63 00
        E 120 90 49 60
        E 0 90 4b 60
        E 0 90 55 60
        E 0 90 57 60
        E 0 90 61 60
        E 0 90 63 60
        E 120 80 49 00
        E 0 80 4b 00
        E 0 80 55 00
        E 0 80 57 00
        E 0 80 61 00
        E 0 80 63 00
        E 120 90 3e 60
        E 0 90 49 60
        E 0 90 4b 60
        E 0 90 55 60
        E 0 90 57 60
        E 0 90 61 60
        E 0 90 63 60
        E 120 80 2d 00
        E 0 80 3e 00
        E 0 80 49 00
        E 0 80 4b 00
        E 0 80 55 00
        E 0 80 57 00
        E 0 80 61 00
        E 0 80 63 00
        E 120 90 2f 60
        E 0 90 55 60
        E 0 90 58 60
        E 0 90 61 60
        E 0 90 64 60
        E 360 80 55 00
        E 0 80 58 00
        E 0 80 61 00
        E 0 80 64 00
        E 120 90 4a 60
        E 0 90 4c 60
        E 0 90 55 60
        E 0 90 58 60
        E 0 90 61 60
        E 0 90 64 60
        E 120 80 4a 00
        E 0 80 4c 00
        E 0 80 55 00
        E 0 80 58 00
        E 0 80 61 00
        E 0 80 64 00
        E 120 90 4a 60
        E 0 90 4c 60
        E 0 90 55 60
        E 0 90 58 60
        E 0 90 61 60
        E 0 90 64 60
        E 120 80 4a 00
        E 0 80 4c 00
        E 0 80 55 00
        E 0 80 58 00
        E 0 80 61 00
        E 0 80 64 00
        E 120 90 55 60
        E 0 90 58 60
        E 0 90 61 60
        E 0 90 64 60
        E 120 80 2f 00
        E 0 80 55 00
        E 0 80 58 00
        E 0 80 61 00
        E 0 80 64 00
        E 120 90 28 60
        E 0 90 3c 60
        E 0 90 48 60
        E 0 90 49 60
        E 0 90 54 60
        E 0 90 55 60
        E 0 90 60 60
        E 0 90 61 60
        E 120 80 3c 00
        E 0 80 48 00
        E 0 80 49 00
        E 0 80 54 00
        E 0 80 55 00
        E 0 80 60 00
        E 0 80 61 00
        E 120 90 48 60
        E 0 90 49 60
        E 0 90 54 60
        E 0 90 55 60
        E 0 90 60 60
        E 0 90 61 60
        E 120 80 48 00
        E 0 80 49 00
        E 0 80 54 00
        E 0 80 55 00
        E 0 80 60 00
        E 0 80 61 00
        E 120 90 3c 60
        E 0 90 48 60
        E 0 90 49 60
        E 0 90 54 60
        E 0 90 55 60
        E 0 90 60 60
        E 0 90 61 60
        E 120 80 28 00
        E 0 80 3c 00
        E 0 80 48 00
        E 0 80 49 00
        E 0 80 54 00
        E 0 80 55 00
        E 0 80 60 00
        E 0 80 61 00
        <X 359 0
          /wFbaWRsZV9yZWFsdGltZV0=
        >
        E 3841 b0 7b 00
        GUID {9D6DB25E-FAD4-43E5-9077-EE4401A9B55B}
        IGNTEMPO 0 120.00000000 4 4
        SRCCOLOR 5
        VELLANE 132 128 60
        COLORMAP "C:\Program Files\REAPER (x64)\Data\color_maps\rockband_guitarbass.png"
        CFGEDITVIEW -7278.349954 11.541089 0 12 0 0 0
        CFGEDIT 1 1 0 1 1 0 1 1 1 1 1 0.25000000 -8 -8 1544 872 0 2 1 1 0.00000000 0 1 0 0 0.500000 0 0 1.000000 64
        KEYSNAP 0 6 "102030050700" 0 "Pentatonic"
        EVTFILTER 0 -1 -1 -1 -1 0 1 0 0 -1.00000000 -1.00000000
      >
    >
  >
  <TRACK '{CE81FC6F-2814-49E9-8CAE-3428E35BF33E}'
    NAME "PART VOCALS"
    PEAKCOL 16576
    BEAT -1
    AUTOMODE 0
    VOLPAN 1.00000000000000 0.00000000000000 -1.00000000000000 -1.00000000000000 1.00000000000000
    MUTESOLO 0 0 0
    IPHASE 0
    ISBUS 0 0
    BUSCOMP 0 0
    SHOWINMIX 1 0.666700 0.500000 1 0.500000 -1 -1 -1
    FREEMODE 0
    SEL 0
    REC 0 0 0 0 0 0 0
    VU 2
    TRACKHEIGHT 0 0
    INQ 0 0 0 0.5000000000 100 0 0 100
    NCHAN 2
    FX 0
    TRACKID {CE81FC6F-2814-49E9-8CAE-3428E35BF33E}
    PERF 0
    MIDIOUT -1
    <MIDINOTENAMES
      0 116 "OVERDRIVE"
      0 115 "----"
      0 105 "Phrase Marker"
      0 104 "----"
      0 97 "Non-Displayed Percussion"
      0 96 "Displayed Percussion"
      0 95 "----"
      0 84 "C6 (Unused Highest Note)"
      0 83 "B5"
      0 82 "A#4"
      0 81 "A4"
      0 80 "G#4"
      0 79 "G4"
      0 78 "F#4"
      0 77 "F4"
      0 76 "E4"
      0 75 "D#4"
      0 74 "D4"
      0 73 "C#4"
      0 72 "C4"
      0 71 "B3"
      0 70 "A#3"
      0 69 "A3"
      0 68 "G#3"
      0 67 "G3"
      0 66 "F#3"
      0 65 "F3"
      0 64 "E3"
      0 63 "D#3"
      0 62 "D3"
      0 61 "C#3"
      0 60 "C3"
      0 59 "B2"
      0 58 "A#2"
      0 57 "A2"
      0 56 "G#2"
      0 55 "G2"
      0 54 "F#2"
      0 53 "F2"
      0 52 "E2"
      0 51 "D#2"
      0 50 "D2"
      0 49 "C#2"
      0 48 "C2"
      0 47 "B1"
      0 46 "A#1"
      0 45 "A1"
      0 44 "G#1"
      0 43 "G1"
      0 42 "F#1"
      0 41 "F1"
      0 40 "E1"
      0 39 "D#1"
      0 38 "D1"
      0 37 "C#1"
      0 36 "Lowest Note C1"
      0 2 "---"
      0 1 "Lyric Shift"
      0 0 "Range Shift"
    >
    MAINSEND 1 0
    <FXCHAIN
      WNDRECT 0 43 655 467
      SHOW 0
      LASTSEL 1
      DOCKED 0
      BYPASS 0 0
      <JS "MIDI/midi_note_filter" ""
        36.000000 84.000000 - - - - - - - - - - - - - - - - - - - - - - - - - - - - - - - - - - - - - - - - - - - - - - - - - - - - - - - - - - - - - - 
      >
      FLOATPOS 0 0 0 0
      FXID {F028107E-7527-4EB2-B38A-117A3E8E6EAE}
      WAK 0
      BYPASS 0 0
      <VST "VSTi: ReaSynth (Cockos)" "reasynth.dll" 0 ""
        eXNlcu9e7f4AAAAAAgAAAAEAAAAAAAAAAgAAAAAAAAA4AAAAAAAAAA==
        AAAQAO++rd4N8K3eppvEOw51iD0AAIA/AAAAAAAAAADMm4A+6WeIPQ==
        AAAAAAAAAD8AAIA/AACAPwAAAD8AABAAAAA=
      >
      FLOATPOS 0 0 0 0
      FXID {ADA3771F-4919-43E3-8D27-10E9A9083929}
      WAK 0
    >
    <ITEM
      POSITION 0.00000000000000
      SNAPOFFS 0.00000000000000
      LENGTH 107.89371100000000
      LOOP 0
      ALLTAKES 0
      SEL 0
      FADEIN 1 0.000000 0.000000 1 0
      FADEOUT 1 0.000000 0.000000 1 0
      MUTE 0
      IGUID {6F3969A5-ADD6-42F9-8DBF-4E5EF9260ECA}
      IID 4
      NAME "PART VOCALS"
      VOLPAN 1.000000 0.000000 1.000000 -1.000000
      SOFFS 0.00000000000000 0.00000000000000
      PLAYRATE 1.00000000000000 1 0.00000000000000 -1
      CHANMODE 0
      GUID {78A00CE5-536E-45E6-BF79-C85CF102D540}
      <SOURCE MIDI
        HASDATA 1 480 QN
        POOLEDEVTS {2811F988-D981-4121-B11C-91D5BB876B33}
        <X 0 0
          /wNQQVJUIFZPQ0FMUw==
        >
        <X 3600 0
          /wFbcGxheV0=
        >
        <X 240 0
          /wFbdGFtYm91cmluZV9zdGFydF0=
        >
        E 0 90 61 60
        E 0 90 69 60
        E 120 80 61 00
        E 0 90 61 60
        E 120 80 61 00
        E 0 90 61 60
        E 120 80 61 00
        E 0 90 61 60
        E 120 80 61 00
        E 0 90 60 60
        E 120 80 60 00
        E 0 90 61 60
        E 120 80 61 00
        E 0 90 61 60
        E 120 80 61 00
        E 0 90 61 60
        E 120 80 61 00
        E 0 90 61 60
        E 120 80 61 00
        E 0 90 61 60
        E 120 80 61 00
        E 0 90 61 60
        E 120 80 61 00
        E 0 90 61 60
        E 120 80 61 00
        E 0 90 60 60
        E 120 80 60 00
        E 0 90 61 60
        E 120 80 61 00
        E 0 90 61 60
        E 120 80 61 00
        E 0 90 61 60
        E 120 80 61 00
        E 0 90 61 60
        E 120 80 61 00
        E 0 90 61 60
        E 120 80 61 00
        E 0 90 61 60
        E 120 80 61 00
        E 0 90 61 60
        E 120 80 61 00
        E 0 90 60 60
        E 120 80 60 00
        E 0 90 61 60
        E 120 80 61 00
        E 0 90 61 60
        E 120 80 61 00
        E 0 90 61 60
        E 119 80 61 00
        E 0 90 61 60
        E 120 80 61 00
        E 0 90 61 60
        E 121 80 61 00
        E 0 90 61 60
        E 120 80 61 00
        E 0 90 61 60
        E 120 80 61 00
        E 0 90 60 60
        E 120 80 60 00
        E 0 90 61 60
        E 120 80 61 00
        E 0 90 61 60
        E 119 80 61 00
        E 0 90 61 60
        E 121 80 61 00
        E 0 90 61 60
        E 120 80 61 00
        E 0 90 61 60
        E 120 80 61 00
        E 0 90 61 60
        E 120 80 61 00
        E 0 90 61 60
        E 120 80 61 00
        E 0 90 60 60
        E 120 80 60 00
        E 0 90 61 60
        E 120 80 61 00
        E 0 90 61 60
        E 120 80 61 00
        E 0 90 61 60
        E 119 80 61 00
        E 0 90 61 60
        E 120 80 61 00
        E 0 90 61 60
        E 121 80 61 00
        E 0 90 61 60
        E 120 80 61 00
        E 0 90 61 60
        E 120 80 61 00
        E 0 90 60 60
        E 120 80 60 00
        E 0 90 61 60
        E 120 80 61 00
        E 0 90 61 60
        E 119 80 61 00
        E 0 90 61 60
        E 121 80 61 00
        E 0 90 61 60
        E 120 80 61 00
        E 0 90 61 60
        E 120 80 61 00
        E 0 90 61 60
        E 120 80 61 00
        E 0 90 61 60
        E 120 80 61 00
        E 0 90 60 60
        E 120 80 60 00
        E 0 90 61 60
        E 120 80 61 00
        E 0 90 61 60
        E 120 80 61 00
        E 0 90 61 60
        E 119 80 61 00
        E 0 90 61 60
        E 120 80 61 00
        E 0 90 61 60
        E 121 80 61 00
        E 0 90 61 60
        E 120 80 61 00
        E 0 90 61 60
        E 120 80 61 00
        E 0 90 60 60
        E 120 80 60 00
        E 0 90 61 60
        E 120 80 61 00
        E 0 90 61 60
        E 119 80 61 00
        E 0 90 61 60
        E 121 80 61 00
        E 0 90 61 60
        E 120 80 61 00
        E 0 90 61 60
        E 120 80 61 00
        E 0 90 61 60
        E 120 80 61 00
        E 0 90 61 60
        E 120 80 61 00
        E 0 90 60 60
        E 120 80 60 00
        E 0 90 61 60
        E 120 80 61 00
        E 0 90 61 60
        E 120 80 61 00
        E 0 90 61 60
        E 119 80 61 00
        E 0 90 61 60
        E 120 80 61 00
        E 0 90 61 60
        E 121 80 61 00
        E 0 90 61 60
        E 120 80 61 00
        E 0 90 61 60
        E 120 80 61 00
        E 0 90 60 60
        E 120 80 60 00
        E 0 90 61 60
        E 120 80 61 00
        E 0 90 61 60
        E 119 80 61 00
        E 0 90 61 60
        E 121 80 61 00
        E 0 90 61 60
        E 120 80 61 00
        E 0 90 61 60
        E 120 80 61 00
        E 0 90 61 60
        E 120 80 61 00
        E 0 90 61 60
        E 120 80 61 00
        E 0 90 60 60
        E 120 80 60 00
        E 0 90 61 60
        E 120 80 61 00
        E 0 90 61 60
        E 120 80 61 00
        E 0 90 61 60
        E 119 80 61 00
        E 0 90 61 60
        E 120 80 61 00
        E 0 90 61 60
        E 121 80 61 00
        E 0 90 61 60
        E 120 80 61 00
        E 0 90 61 60
        E 120 80 61 00
        E 0 90 60 60
        E 120 80 60 00
        E 0 90 61 60
        E 120 80 61 00
        E 0 90 61 60
        E 119 80 61 00
        E 0 90 61 60
        E 121 80 61 00
        E 0 90 61 60
        E 120 80 61 00
        E 0 90 61 60
        E 120 80 61 00
        E 0 90 61 60
        E 120 80 61 00
        E 0 90 61 60
        E 120 80 61 00
        E 0 90 60 60
        E 120 80 60 00
        E 0 90 61 60
        E 120 80 61 00
        E 0 90 61 60
        E 120 80 61 00
        E 0 90 61 60
        E 119 80 61 00
        E 0 90 61 60
        E 120 80 61 00
        E 0 90 61 60
        E 121 80 61 00
        E 0 90 61 60
        E 120 80 61 00
        E 0 90 61 60
        E 120 80 61 00
        E 0 90 60 60
        E 120 80 60 00
        E 0 90 61 60
        E 120 80 61 00
        E 0 90 61 60
        E 119 80 61 00
        E 0 90 61 60
        E 121 80 61 00
        E 0 90 61 60
        E 120 80 61 00
        E 0 90 61 60
        E 120 80 61 00
        E 0 90 61 60
        E 120 80 61 00
        E 0 90 61 60
        E 120 80 61 00
        E 0 90 60 60
        E 120 80 60 00
        E 0 90 61 60
        E 120 80 61 00
        E 0 90 61 60
        E 120 80 61 00
        E 0 90 61 60
        E 119 80 61 00
        E 0 90 61 60
        E 120 80 61 00
        E 0 90 61 60
        E 121 80 61 00
        E 0 90 61 60
        E 120 80 61 00
        E 0 90 61 60
        E 120 80 61 00
        E 0 90 60 60
        E 120 80 60 00
        E 0 90 61 60
        E 120 80 61 00
        E 0 90 61 60
        E 119 80 61 00
        E 0 90 61 60
        <X 121 0
          /wFbdGFtYm91cmluZV9lbmRd
        >
        E 0 80 69 00
        E 0 80 61 00
        <X 240 0
          /wFbaWRsZV0=
        >
        <X 720 0
          /wFbcGxheV0=
        >
        E 0 90 69 60
        <X 240 0
          /wVTbw==
        >
        E 0 90 4b 60
        E 450 80 4b 00
        <X 270 0
          /wFbaWRsZV0=
        >
        <X 960 0
          /wFbcGxheV0=
        >
        <X 240 0
          /wV3aGF0Pw==
        >
        E 0 90 4b 60
        E 540 80 4b 00
        <X 180 0
          /wFbaWRsZV0=
        >
        E 0 80 69 00
        <X 960 0
          /wFbcGxheV0=
        >
        E 0 90 69 60
        <X 240 0
          /wVZb3U=
        >
        E 0 90 4b 60
        E 540 80 4b 00
        <X 180 0
          /wFbaWRsZV0=
        >
        <X 960 0
          /wFbcGxheV0=
        >
        <X 240 0
          /wVnb3Q=
        >
        E 0 90 4b 60
        E 510 80 4b 00
        <X 210 0
          /wFbaWRsZV0=
        >
        <X 960 0
          /wFbcGxheV0=
        >
        <X 240 0
          /wVzdHVjaw==
        >
        E 0 90 4b 60
        E 600 80 4b 00
        <X 120 0
          /wFbaWRsZV0=
        >
        <X 960 0
          /wFbcGxheV0=
        >
        <X 240 0
          /wVoZXJl
        >
        E 0 90 4b 60
        E 480 80 4b 00
        <X 240 0
          /wFbaWRsZV0=
        >
        E 0 80 69 00
        <X 960 0
          /wFbcGxheV0=
        >
        E 0 90 69 60
        E 0 90 74 60
        <X 240 0
          /wVTbGVlcA==
        >
        E 0 90 4b 60
        E 480 80 4b 00
        E 240 80 69 00
        E 0 80 74 00
        <X 1440 0
          /wFbcGxheV0=
        >
        E 0 90 69 60
        <X 480 0
          /wVMZWVyJ3M=
        >
        E 0 90 4b 60
        E 600 80 4b 00
        <X 120 0
          /wVvbg==
        >
        E 0 90 48 60
        E 750 80 48 00
        <X 210 0
          /wVmaXJl
        >
        E 0 90 49 60
        E 720 80 49 00
        E 240 80 69 00
        E 0 90 69 60
        E 0 90 74 60
        <X 240 0
          /wVZb3UncmU=
        >
        E 0 90 46 60
        E 180 80 46 00
        <X 60 0
          /wVvbg==
        >
        E 0 90 46 60
        E 180 80 46 00
        <X 60 0
          /wVh
        >
        E 0 90 44 60
        E 210 80 44 00
        <X 30 0
          /wVibGluZA==
        >
        E 0 90 46 60
        E 810 80 46 00
        <X 150 0
          /wVyaWRl
        >
        E 0 90 46 60
        E 1020 80 46 00
        E 180 80 69 00
        E 0 80 74 00
        E 1440 90 69 60
        <X 480 0
          /wVCbGFzdA==
        >
        E 0 90 4b 60
        E 600 80 4b 00
        <X 120 0
          /wVhcC0=
        >
        E 0 90 48 60
        E 750 80 48 00
        <X 210 0
          /wVwZWFs
        >
        E 0 90 49 60
        E 720 80 49 00
        E 240 80 69 00
        E 0 90 69 60
        <X 240 0
          /wVHYXZl
        >
        E 0 90 46 60
        E 180 80 46 00
        <X 60 0
          /wVtZQ==
        >
        E 0 90 46 60
        E 180 80 46 00
        <X 60 0
          /wV0aGU=
        >
        E 0 90 44 60
        E 210 80 44 00
        <X 30 0
          /wVpbi0=
        >
        E 0 90 46 60
        E 630 80 46 00
        <X 330 0
          /wVzaWdodA==
        >
        E 0 90 46 60
        E 1020 80 46 00
        <X 180 0
          /wFbaWRsZV0=
        >
        E 0 80 69 00
        <X 2880 0
          /wFbcGxheV0=
        >
        E 0 90 69 60
        <X 240 0
          /wVDcmF3bA==
        >
        E 0 90 4b 60
        E 690 80 4b 00
        <X 30 0
          /wFbaWRsZV0=
        >
        <X 960 0
          /wFbcGxheV0=
        >
        <X 240 0
          /wVvbg==
        >
        E 0 90 4b 60
        E 840 80 4b 00
        <X 120 0
          /wFbaWRsZV0=
        >
        E 240 80 69 00
        <X 480 0
          /wFbcGxheV0=
        >
        E 0 90 69 60
        E 0 90 74 60
        <X 240 0
          /wVMZWF2ZQ==
        >
        E 0 90 4b 60
        E 600 80 4b 00
        <X 120 0
          /wFbaWRsZV0=
        >
        <X 960 0
          /wFbcGxheV0=
        >
        <X 240 0
          /wVtZQ==
        >
        E 0 90 4b 60
        E 510 80 4b 00
        <X 210 0
          /wFbaWRsZV0=
        >
        <X 960 0
          /wFbcGxheV0=
        >
        <X 240 0
          /wVoZXJl
        >
        E 0 90 4b 60
        E 630 80 4b 00
        <X 1050 0
          /wFbcGxheV0=
        >
        <X 240 0
          /wV0bw==
        >
        E 0 90 4b 60
        E 480 80 4b 00
        <X 240 0
          /wFbaWRsZV0=
        >
        <X 960 0
          /wFbcGxheV0=
        >
        <X 240 0
          /wVkcmVhbQ==
        >
        E 0 90 4b 60
        E 1710 80 4b 00
        <X 450 0
          /wFbaW50ZW5zZV0=
        >
        E 0 80 69 00
        E 0 80 74 00
        E 0 90 69 60
        <X 480 0
          /wVMZWVyJ3M=
        >
        E 0 90 4b 60
        E 600 80 4b 00
        <X 120 0
          /wVvbg==
        >
        E 0 90 48 60
        E 750 80 48 00
        <X 210 0
          /wVmaXJl
        >
        E 0 90 49 60
        E 720 80 49 00
        E 240 80 69 00
        E 0 90 69 60
        <X 240 0
          /wVZb3UncmU=
        >
        E 0 90 46 60
        E 180 80 46 00
        <X 60 0
          /wVvbg==
        >
        E 0 90 46 60
        E 180 80 46 00
        <X 60 0
          /wVh
        >
        E 0 90 44 60
        E 210 80 44 00
        <X 30 0
          /wVibGluZA==
        >
        E 0 90 46 60
        E 810 80 46 00
        <X 150 0
          /wVyaWRl
        >
        E 0 90 46 60
        E 1020 80 46 00
        E 180 80 69 00
        E 1440 90 69 60
        <X 480 0
          /wVNYXNz
        >
        E 0 90 4b 60
        E 600 80 4b 00
        <X 120 0
          /wVhcC0=
        >
        E 0 90 48 60
        E 750 80 48 00
        <X 210 0
          /wVwZWFs
        >
        E 0 90 49 60
        E 720 80 49 00
        E 240 80 69 00
        E 0 90 69 60
        <X 240 0
          /wVHYXZl
        >
        E 0 90 46 60
        E 180 80 46 00
        <X 60 0
          /wVtZQ==
        >
        E 0 90 46 60
        E 180 80 46 00
        <X 60 0
          /wV0aGU=
        >
        E 0 90 44 60
        E 210 80 44 00
        <X 30 0
          /wVpbi0=
        >
        E 0 90 46 60
        E 630 80 46 00
        <X 330 0
          /wVzaWdodA==
        >
        E 0 90 46 60
        E 1020 80 46 00
        E 180 80 69 00
        E 1440 90 69 60
        E 0 90 74 60
        <X 480 0
          /wVFdmUt
        >
        E 0 90 4b 60
        E 600 80 4b 00
        <X 120 0
          /wVyeS0=
        >
        E 0 90 48 60
        E 750 80 48 00
        <X 210 0
          /wVvbmU=
        >
        E 0 90 49 60
        E 720 80 49 00
        <X 480 0
          /wV3ZWFyLQ==
        >
        E 0 90 46 60
        E 180 80 46 00
        <X 60 0
          /wVpbmc=
        >
        E 0 90 46 60
        E 180 80 46 00
        <X 60 0
          /wV0aGU=
        >
        E 0 90 44 60
        E 150 80 44 00
        <X 90 0
          /wVzYW1l
        >
        E 0 90 46 60
        E 690 80 46 00
        <X 210 0
          /wVmYWNl
        >
        E 0 90 46 60
        E 1020 80 46 00
        E 240 80 69 00
        E 0 80 74 00
        E 1440 90 69 60
        <X 480 0
          /wVOb3Q=
        >
        E 0 90 4b 60
        E 600 80 4b 00
        <X 120 0
          /wVhZi0=
        >
        E 0 90 48 60
        E 750 80 48 00
        <X 210 0
          /wVyYWlk
        >
        E 0 90 49 60
        E 720 80 49 00
        E 240 80 69 00
        E 0 90 69 60
        <X 30 0
          /wVJ
        >
        E 0 90 44 60
        E 90 80 44 00
        <X 120 0
          /wVnb3Q=
        >
        E 0 90 46 60
        E 420 80 46 00
        <X 60 0
          /wV0aGVpcg==
        >
        E 0 90 44 60
        E 210 80 44 00
        <X 30 0
          /wVYPQ==
        >
        E 0 90 46 60
        E 990 80 46 00
        <X 690 0
          /wVyYXlz
        >
        E 0 90 46 60
        E 1020 80 46 00
        <X 420 0
          /wVub3c=
        >
        E 0 90 46 60
        E 930 80 46 00
        <X 30 0
          /wFbaWRsZV9pbnRlbnNlXQ==
        >
        E 0 80 69 00
        <X 7200 0
          /wFbaW50ZW5zZV0=
        >
        <X 480 0
          /wFbdGFtYm91cmluZV9zdGFydF0=
        >
        E 0 90 60 60
        E 0 90 69 60
        E 120 80 60 00
        E 0 90 61 60
        E 120 80 61 00
        E 0 90 61 60
        E 120 80 61 00
        E 0 90 61 60
        E 120 80 61 00
        E 0 90 60 60
        E 120 80 60 00
        E 0 90 61 60
        E 120 80 61 00
        E 0 90 61 60
        E 120 80 61 00
        E 0 90 61 60
        E 120 80 61 00
        E 0 90 60 60
        E 120 80 60 00
        E 0 90 61 60
        E 120 80 61 00
        E 0 90 61 60
        E 120 80 61 00
        E 0 90 61 60
        E 120 80 61 00
        E 0 90 60 60
        E 120 80 60 00
        E 0 90 61 60
        E 120 80 61 00
        E 0 90 61 60
        E 120 80 61 00
        E 0 90 61 60
        E 120 80 61 00
        E 0 90 60 60
        E 120 80 60 00
        E 0 90 61 60
        E 120 80 61 00
        E 0 90 61 60
        E 120 80 61 00
        E 0 90 61 60
        E 120 80 61 00
        E 0 90 60 60
        E 120 80 60 00
        E 0 90 61 60
        E 120 80 61 00
        E 0 90 61 60
        E 120 80 61 00
        E 0 90 61 60
        E 120 80 61 00
        E 0 90 60 60
        E 120 80 60 00
        E 0 90 61 60
        E 120 80 61 00
        E 0 90 61 60
        E 120 80 61 00
        E 0 90 61 60
        E 120 80 61 00
        E 0 90 60 60
        E 120 80 60 00
        E 0 90 61 60
        E 120 80 61 00
        E 0 90 61 60
        E 120 80 61 00
        E 0 90 61 60
        E 120 80 61 00
        E 0 90 60 60
        E 120 80 60 00
        E 0 90 61 60
        E 120 80 61 00
        E 0 90 61 60
        E 120 80 61 00
        E 0 90 61 60
        E 120 80 61 00
        E 0 90 60 60
        E 120 80 60 00
        E 0 90 61 60
        E 120 80 61 00
        E 0 90 61 60
        E 120 80 61 00
        E 0 90 61 60
        E 120 80 61 00
        E 0 90 60 60
        E 120 80 60 00
        E 0 90 61 60
        E 120 80 61 00
        E 0 90 61 60
        E 120 80 61 00
        E 0 90 61 60
        E 120 80 61 00
        E 0 90 60 60
        E 120 80 60 00
        E 0 90 61 60
        E 120 80 61 00
        E 0 90 61 60
        E 120 80 61 00
        E 0 90 61 60
        E 120 80 61 00
        E 0 90 60 60
        E 120 80 60 00
        E 0 90 61 60
        E 120 80 61 00
        E 0 90 61 60
        E 120 80 61 00
        E 0 90 61 60
        E 120 80 61 00
        E 0 90 60 60
        E 120 80 60 00
        E 0 90 61 60
        E 120 80 61 00
        E 0 90 61 60
        E 120 80 61 00
        E 0 90 61 60
        E 120 80 61 00
        E 0 90 60 60
        E 120 80 60 00
        E 0 90 61 60
        E 120 80 61 00
        E 0 90 61 60
        E 120 80 61 00
        E 0 90 61 60
        E 120 80 61 00
        E 0 90 60 60
        E 120 80 60 00
        E 0 90 61 60
        E 120 80 61 00
        E 0 90 61 60
        E 120 80 61 00
        E 0 90 61 60
        E 120 80 61 00
        E 0 90 60 60
        E 120 80 60 00
        E 0 90 61 60
        E 120 80 61 00
        E 0 90 61 60
        E 120 80 61 00
        E 0 90 61 60
        E 120 80 61 00
        E 0 90 60 60
        E 120 80 60 00
        E 0 90 61 60
        E 120 80 61 00
        E 0 90 61 60
        E 120 80 61 00
        E 0 90 61 60
        E 120 80 61 00
        E 0 90 60 60
        E 120 80 60 00
        E 0 90 61 60
        E 120 80 61 00
        E 0 90 61 60
        E 120 80 61 00
        E 0 90 61 60
        E 120 80 61 00
        E 0 90 60 60
        E 120 80 60 00
        E 0 90 61 60
        E 120 80 61 00
        E 0 90 61 60
        E 120 80 61 00
        E 0 90 61 60
        E 120 80 61 00
        E 0 90 60 60
        E 120 80 60 00
        E 0 90 61 60
        E 120 80 61 00
        E 0 90 61 60
        E 120 80 61 00
        E 0 90 61 60
        E 120 80 61 00
        E 0 90 60 60
        E 120 80 60 00
        E 0 90 61 60
        E 120 80 61 00
        E 0 90 61 60
        E 120 80 61 00
        E 0 90 61 60
        E 120 80 61 00
        E 0 90 60 60
        E 120 80 60 00
        E 0 90 61 60
        E 120 80 61 00
        E 0 90 61 60
        E 120 80 61 00
        E 0 90 61 60
        E 120 80 61 00
        E 0 90 60 60
        E 120 80 60 00
        E 0 90 61 60
        E 120 80 61 00
        E 0 90 61 60
        E 120 80 61 00
        E 0 90 61 60
        E 120 80 61 00
        E 0 90 60 60
        E 120 80 60 00
        E 0 90 61 60
        E 120 80 61 00
        E 0 90 61 60
        E 120 80 61 00
        E 0 90 61 60
        E 120 80 61 00
        E 0 90 60 60
        E 120 80 60 00
        E 0 90 61 60
        E 120 80 61 00
        E 0 90 61 60
        E 120 80 61 00
        E 0 90 61 60
        E 120 80 61 00
        E 0 90 60 60
        E 120 80 60 00
        E 0 90 61 60
        E 120 80 61 00
        E 0 90 61 60
        E 120 80 61 00
        E 0 90 61 60
        E 120 80 61 00
        E 0 90 60 60
        E 120 80 60 00
        E 0 90 61 60
        E 120 80 61 00
        E 0 90 61 60
        E 120 80 61 00
        E 0 90 61 60
        E 120 80 61 00
        E 0 90 60 60
        E 120 80 60 00
        E 0 90 61 60
        E 120 80 61 00
        E 0 90 61 60
        E 120 80 61 00
        E 0 90 61 60
        E 120 80 61 00
        E 0 90 60 60
        E 120 80 60 00
        E 0 90 61 60
        E 120 80 61 00
        E 0 90 61 60
        E 120 80 61 00
        E 0 90 61 60
        E 120 80 61 00
        E 0 90 60 60
        E 120 80 60 00
        E 0 90 61 60
        E 120 80 61 00
        E 0 90 61 60
        E 120 80 61 00
        E 0 90 61 60
        E 120 80 61 00
        E 0 90 60 60
        E 120 80 60 00
        <X 120 0
          /wFbaWRsZV9yZWFsdGltZV0=
        >
        E 239 80 69 00
        E 3841 b0 7b 00
        GUID {1BB419EF-A039-4A44-81FA-7DF2B114C707}
        IGNTEMPO 0 120.00000000 4 4
        SRCCOLOR 6
        VELLANE 132 128 60
        COLORMAP "C:\Program Files\REAPER (x64)\Data\color_maps\rockband_guitarbass.png"
        CFGEDITVIEW -7278.349954 11.541089 0 12 0 0 0
        CFGEDIT 1 1 0 1 1 0 1 1 1 1 1 0.25000000 -8 -8 1544 872 0 2 1 1 0.00000000 0 1 0 0 0.500000 0 0 1.000000 64
        KEYSNAP 0 6 "102030050700" 0 "Pentatonic"
        EVTFILTER 0 -1 -1 -1 -1 0 1 0 0 -1.00000000 -1.00000000
      >
    >
  >
  <TRACK '{F22D7778-D36E-45C5-A977-445F5EE64B4B}'
    NAME "EVENTS"
    PEAKCOL 16576
    BEAT -1
    AUTOMODE 0
    VOLPAN 1.00000000000000 0.00000000000000 -1.00000000000000 -1.00000000000000 1.00000000000000
    MUTESOLO 0 0 0
    IPHASE 0
    ISBUS 0 0
    BUSCOMP 0 0
    SHOWINMIX 1 0.666700 0.500000 1 0.500000 -1 -1 -1
    FREEMODE 0
    SEL 0
    REC 0 0 0 0 0 0 0
    VU 2
    TRACKHEIGHT 0 0
    INQ 0 0 0 0.5000000000 100 0 0 100
    NCHAN 2
    FX 1
    TRACKID {F22D7778-D36E-45C5-A977-445F5EE64B4B}
    PERF 0
    MIDIOUT -1
    <MIDINOTENAMES
      0 26 "Hi-Hat"
      0 25 "Snare"
      0 24 "Kick"
    >
    MAINSEND 1 0
    <FXCHAIN
      SHOW 0
      LASTSEL 0
      DOCKED 0
    >
    <ITEM
      POSITION 0.00000000000000
      SNAPOFFS 0.00000000000000
      LENGTH 107.89371100000000
      LOOP 0
      ALLTAKES 0
      SEL 0
      FADEIN 1 0.000000 0.000000 1 0
      FADEOUT 1 0.000000 0.000000 1 0
      MUTE 0
      IGUID {438B90A4-2ED4-44CD-BBAF-CA95B297ADFF}
      IID 5
      NAME "EVENTS"
      VOLPAN 1.000000 0.000000 1.000000 -1.000000
      SOFFS 0.00000000000000 0.00000000000000
      PLAYRATE 1.00000000000000 1 0.00000000000000 -1
      CHANMODE 0
      GUID {51D38F2E-4C53-4EE2-AB8A-2F022BBAFF01}
      <SOURCE MIDI
        HASDATA 1 480 QN
        POOLEDEVTS {B6DD87E5-082F-4F3A-8DAB-F4E2EA59F757}
        <X 0 0
          /wNFVkVOVFM=
        >
        <X 3840 0
          /wFbcHJjX2ludHJvXQ==
        >
        <X 480 0
          /wFbbXVzaWNfc3RhcnRd
        >
        <X 0 0
          /wFbY3Jvd2Rfbm9ybWFsXQ==
        >
        <X 14880 0
          /wFbcHJjX3ZlcnNlXzFd
        >
        <X 14880 0
          /wFbcHJjX2Nob3J1c18xXQ==
        >
        <X 0 0
          /wFbY3Jvd2RfaW50ZW5zZV0=
        >
        <X 0 0
          /wFbY3Jvd2Rfbm9jbGFwXQ==
        >
        <X 15840 0
          /wFbcHJjX3ZlcnNlXzJd
        >
        <X 0 0
          /wFbY3Jvd2Rfbm9ybWFsXQ==
        >
        <X 0 0
          /wFbY3Jvd2RfY2xhcF0g
        >
        <X 15360 0
          /wFbcHJjX2Nob3J1c18yXQ==
        >
        <X 0 0
          /wFbY3Jvd2RfaW50ZW5zZV0=
        >
        <X 0 0
          /wFbY3Jvd2Rfbm9jbGFwXQ==
        >
        <X 30720 0
          /wFbcHJjX291dHJvXQ==
        >
        <X 0 0
          /wFbY3Jvd2Rfbm9ybWFsXQ==
        >
        <X 7680 0
          /wFbY3Jvd2RfaW50ZW5zZV0=
        >
        <X 0 0
          /wFbY3Jvd2RfY2xhcF0=
        >
        <X 15360 0
          /wFbY3Jvd2RfcmVhbHRpbWVd
        >
        <X 0 0
          /wFbbXVzaWNfZW5kXQ==
        >
        <X 3835 0
          /wFbZW5kXQ==
        >
        E 5 b0 7b 00
        GUID {145D1F2E-D1C3-4EBF-A7F6-0F6FC59CAA29}
        IGNTEMPO 0 120.00000000 4 4
        SRCCOLOR 7
        VELLANE 132 128 60
        COLORMAP "C:\Program Files\REAPER (x64)\Data\color_maps\rockband_guitarbass.png"
        CFGEDITVIEW -7084.260622 11.541089 0 48 0 0 0
        CFGEDIT 1 1 0 1 1 0 1 1 1 1 1 0.25000000 -8 -8 1544 872 0 2 1 1 0.00000000 0 1 0 0 0.500000 0 0 1.000000 64
        KEYSNAP 0 6 "102030050700" 0 "Pentatonic"
        EVTFILTER 0 -1 -1 -1 -1 0 1 0 0 -1.00000000 -1.00000000
      >
    >
  >
  <TRACK '{082FD291-51A7-45D2-8B63-FE0C6A59C2E9}'
    NAME "VENUE"
    PEAKCOL 16576
    BEAT -1
    AUTOMODE 0
    VOLPAN 1.00000000000000 0.00000000000000 -1.00000000000000 -1.00000000000000 1.00000000000000
    MUTESOLO 0 0 0
    IPHASE 0
    ISBUS 1 1
    BUSCOMP 1 0
    SHOWINMIX 1 0.666700 0.500000 1 0.500000 -1 -1 -1
    FREEMODE 0
    SEL 0
    REC 0 0 0 0 0 0 0
    VU 2
    TRACKHEIGHT 0 0
    INQ 0 0 0 0.5000000000 100 0 0 100
    NCHAN 2
    FX 1
    TRACKID {082FD291-51A7-45D2-8B63-FE0C6A59C2E9}
    PERF 0
    MIDIOUT -1
    <MIDINOTENAMES
      0 87 "Guitarist Sing Along"
      0 86 "Drummer Sing Along"
      0 85 "Bassist Sing Along"
      0 84 "----"
      0 41 "Spotlight on Keys"
      0 40 "Spotlight on Vocals"
      0 39 "Spotlight on Guitar"
      0 38 "Spotlight on Drums"
      0 37 "Spotlight on Bass"
    >
    MAINSEND 1 0
    <FXCHAIN
      SHOW 0
      LASTSEL 0
      DOCKED 0
    >
    <ITEM
      POSITION 0.00000000000000
      SNAPOFFS 0.00000000000000
      LENGTH 107.89371100000000
      LOOP 0
      ALLTAKES 0
      SEL 0
      FADEIN 1 0.000000 0.000000 1 0
      FADEOUT 1 0.000000 0.000000 1 0
      MUTE 0
      IGUID {E6E72ACE-9455-4E5C-8C27-373B21F44C8E}
      IID 6
      NAME "VENUE"
      VOLPAN 1.000000 0.000000 1.000000 -1.000000
      SOFFS 0.00000000000000 0.00000000000000
      PLAYRATE 1.00000000000000 1 0.00000000000000 -1
      CHANMODE 0
      GUID {C8C42EE2-E747-4694-B0AD-B6471C42624D}
      <SOURCE MIDI
        HASDATA 1 480 QN
        POOLEDEVTS {1084C8DD-566D-4332-A193-E29280E00CDE}
        <X 0 0
          /wNWRU5VRQ==
        >
        <X 0 0
          /wFbaG9ycm9yX21vdmllX3NwZWNpYWwucHBd
        >
        <X 0 0
          /wFbY29vcF9hbGxfYmVoaW5kXQ==
        >
        <X 120 0
          /wFbaG9ycm9yX21vdmllX3NwZWNpYWwucHBd
        >
        <X 3720 0
          /wFbZmlyc3Rd
        >
        <X 0 0
          /wFbbGlnaHRpbmcgKG1hbnVhbF9jb29sKV0=
        >
        <X 0 0
          /wFbUHJvRmlsbV9hLnBwXQ==
        >
        <X 0 0
          /wFbY29vcF9iZ19uZWFyXQ==
        >
        <X 960 0
          /wFbbmV4dF0=
        >
        <X 960 0
          /wFbbmV4dF0=
        >
        <X 960 0
          /wFbbmV4dF0=
        >
        <X 960 0
          /wFbbmV4dF0=
        >
        <X 0 0
          /wFbY29vcF9kX2JlaGluZF0=
        >
        <X 960 0
          /wFbbmV4dF0=
        >
        <X 960 0
          /wFbbmV4dF0=
        >
        <X 960 0
          /wFbbmV4dF0=
        >
        <X 960 0
          /wFbbmV4dF0=
        >
        <X 0 0
          /wFbY29vcF9nX2Nsb3NldXBfaGFuZF0=
        >
        <X 0 0
          /wFbY29vcF9iX2Nsb3NldXBfaGFuZF0=
        >
        <X 960 0
          /wFbbmV4dF0=
        >
        <X 960 0
          /wFbbmV4dF0=
        >
        <X 960 0
          /wFbbmV4dF0=
        >
        <X 960 0
          /wFbbmV4dF0=
        >
        <X 0 0
          /wFbZGlyZWN0ZWRfZHJ1bXNd
        >
        <X 960 0
          /wFbbmV4dF0=
        >
        <X 960 0
          /wFbbmV4dF0=
        >
        <X 960 0
          /wFbbmV4dF0=
        >
        <X 960 0
          /wFbbGlnaHRpbmcgKGxvb3BfY29vbCld
        >
        <X 0 0
          /wFbZmlsbV8xNm1tLnBwXQ==
        >
        <X 0 0
          /wFbY29vcF9nX25lYXJd
        >
        <X 1200 0
          /wFbY29vcF92X2Nsb3NldXBd
        >
        <X 720 0
          /wFbY29vcF9kX2JlaGluZF0=
        >
        <X 1200 0
          /wFbY29vcF92X2Nsb3NldXBd
        >
        <X 720 0
          /wFbY29vcF9iX25lYXJd
        >
        <X 1200 0
          /wFbY29vcF92X2Nsb3NldXBd
        >
        <X 720 0
          /wFbY29vcF9kdl9uZWFyXQ==
        >
        <X 1920 0
          /wFbY29vcF9iZ19uZWFyXQ==
        >
        <X 1920 0
          /wFbY29vcF9hbGxfZmFyXQ==
        >
        <X 1920 0
          /wFbY29vcF9mcm9udF9uZWFyXQ==
        >
        <X 1920 0
          /wFbY29vcF9nX2Nsb3NldXBfaGFuZF0=
        >
        <X 1920 0
          /wFbbGlnaHRpbmcgKGxvb3Bfd2FybSld
        >
        <X 0 0
          /wFbYmxvb20ucHBd
        >
        <X 0 0
          /wFbY29vcF9kdl9uZWFyXQ==
        >
        <X 3840 0
          /wFbY29vcF9iZ19iZWhpbmRd
        >
        <X 3840 0
          /wFbZGlyZWN0ZWRfdm9jYWxzX2Nsc10=
        >
        <X 3840 0
          /wFbZGlyZWN0ZWRfYmFzc19jYW1d
        >
        <X 1920 0
          /wFbY29vcF9kX2Nsb3NldXBfaGFuZF0=
        >
        <X 1920 0
          /wFbZmlyc3Rd
        >
        <X 0 0
          /wFbbGlnaHRpbmcgKG1hbnVhbF9jb29sKV0=
        >
        <X 0 0
          /wFbZmlsbV8xNm1tLnBwXQ==
        >
        <X 480 0
          /wFbY29vcF9mcm9udF9iZWhpbmRd
        >
        <X 480 0
          /wFbbmV4dF0=
        >
        <X 960 0
          /wFbbmV4dF0=
        >
        <X 960 0
          /wFbbmV4dF0=
        >
        <X 960 0
          /wFbbmV4dF0=
        >
        <X 480 0
          /wFbZGlyZWN0ZWRfZHVvX2diXQ==
        >
        <X 480 0
          /wFbbmV4dF0=
        >
        <X 960 0
          /wFbbmV4dF0=
        >
        <X 960 0
          /wFbbmV4dF0=
        >
        <X 960 0
          /wFbbmV4dF0=
        >
        <X 0 0
          /wFbY29vcF9hbGxfbmVhcl0=
        >
        <X 960 0
          /wFbbmV4dF0=
        >
        <X 960 0
          /wFbbmV4dF0=
        >
        <X 960 0
          /wFbbmV4dF0=
        >
        <X 960 0
          /wFbbmV4dF0=
        >
        <X 0 0
          /wFbY29vcF92X2Nsb3NldXBd
        >
        <X 960 0
          /wFbbmV4dF0=
        >
        <X 960 0
          /wFbbmV4dF0=
        >
        <X 0 0
          /wFbZmlsbV8xNm1tLnBwXQ==
        >
        <X 0 0
          /wFbY29vcF9kX2Nsb3NldXBfaGVhZF0=
        >
        <X 960 0
          /wFbbmV4dF0=
        >
        <X 960 0
          /wFbbGlnaHRpbmcgKGxvb3Bfd2FybSld
        >
        <X 0 0
          /wFbYmxvb20ucHBd
        >
        <X 0 0
          /wFbZGlyZWN0ZWRfYWxsX2NhbV0=
        >
        <X 3840 0
          /wFbY29vcF9iZ19iZWhpbmRd
        >
        <X 1920 0
          /wFbZGlyZWN0ZWRfZHVvX2RydW1zXQ==
        >
        <X 1920 0
          /wFbY29vcF9kdl9uZWFyXQ==
        >
        <X 3840 0
          /wFbY29vcF9iX2Nsb3NldXBfaGFuZF0=
        >
        <X 1920 0
          /wFbY29vcF9nX2Nsb3NldXBfaGFuZF0=
        >
        <X 1920 0
          /wFbY29vcF92X2Nsb3NldXBd
        >
        <X 5760 0
          /wFbY29vcF9kX2JlaGluZF0=
        >
        <X 1920 0
          /wFbY29vcF92X2Nsb3NldXBd
        >
        <X 2400 0
          /wFbY29vcF9kdl9uZWFyXQ==
        >
        <X 5280 0
          /wFbZmlyc3Rd
        >
        <X 0 0
          /wFbbGlnaHRpbmcgKGRpc2Nob3JkKV0=
        >
        <X 0 0
          /wFbcGhvdG9fbmVnYXRpdmUucHBd
        >
        <X 0 0
          /wFbY29vcF9hbGxfYmVoaW5kXQ==
        >
        <X 120 0
          /wFbcGhvdG9fbmVnYXRpdmUucHBd
        >
        <X 1800 0
          /wFbbmV4dF0=
        >
        <X 0 0
          /wFbUHJvRmlsbV9hLnBwXQ==
        >
        <X 0 0
          /wFbY29vcF9hbGxfZmFyXQ==
        >
        <X 1920 0
          /wFbbmV4dF0=
        >
        <X 0 0
          /wFbcGhvdG9fbmVnYXRpdmUucHBd
        >
        <X 0 0
          /wFbY29vcF9hbGxfbmVhcl0=
        >
        <X 120 0
          /wFbcGhvdG9fbmVnYXRpdmUucHBd
        >
        <X 1800 0
          /wFbbmV4dF0=
        >
        <X 0 0
          /wFbUHJvRmlsbV9hLnBwXQ==
        >
        <X 0 0
          /wFbY29vcF9kX25lYXJd
        >
        <X 960 0
          /wFbUHJvRmlsbV9hLnBwXQ==
        >
        <X 960 0
          /wFbaG9ycm9yX21vdmllX3NwZWNpYWwucHBd
        >
        <X 0 0
          /wFbbGlnaHRpbmcgKGZsYXJlX2Zhc3QpXQ==
        >
        <X 0 0
          /wFbY29vcF9hbGxfZmFyXQ==
        >
        <X 240 0
          /wFbbGlnaHRpbmcgKGJsYWNrb3V0X2Zhc3QpXQ==
        >
        <X 240 0
          /wFbbGlnaHRpbmcgKGZsYXJlX2Zhc3QpXQ==
        >
        <X 240 0
          /wFbbGlnaHRpbmcgKGJsYWNrb3V0X2Zhc3QpXQ==
        >
        <X 240 0
          /wFbbGlnaHRpbmcgKGZsYXJlX2Zhc3QpXQ==
        >
        <X 240 0
          /wFbbGlnaHRpbmcgKGJsYWNrb3V0X2Zhc3QpXQ==
        >
        <X 240 0
          /wFbbGlnaHRpbmcgKGZsYXJlX2Zhc3QpXQ==
        >
        <X 240 0
          /wFbbGlnaHRpbmcgKGJsYWNrb3V0X2Zhc3QpXQ==
        >
        <X 240 0
          /wFbbGlnaHRpbmcgKGZsYXJlX2Zhc3QpXQ==
        >
        <X 240 0
          /wFbbGlnaHRpbmcgKGJsYWNrb3V0X2Zhc3QpXQ==
        >
        <X 240 0
          /wFbbGlnaHRpbmcgKGZsYXJlX2Zhc3QpXQ==
        >
        <X 240 0
          /wFbbGlnaHRpbmcgKGJsYWNrb3V0X2Zhc3QpXQ==
        >
        <X 240 0
          /wFbbGlnaHRpbmcgKGZsYXJlX2Zhc3QpXQ==
        >
        <X 240 0
          /wFbbGlnaHRpbmcgKGJsYWNrb3V0X2Zhc3QpXQ==
        >
        <X 240 0
          /wFbbGlnaHRpbmcgKGZsYXJlX2Zhc3QpXQ==
        >
        <X 240 0
          /wFbbGlnaHRpbmcgKGJsYWNrb3V0X2Zhc3QpXQ==
        >
        <X 240 0
          /wFbbGlnaHRpbmcgKGZsYXJlX2Zhc3QpXQ==
        >
        <X 0 0
          /wFbZGlyZWN0ZWRfZHVvX2diXQ==
        >
        <X 240 0
          /wFbbGlnaHRpbmcgKGJsYWNrb3V0X2Zhc3QpXQ==
        >
        <X 240 0
          /wFbbGlnaHRpbmcgKGZsYXJlX2Zhc3QpXQ==
        >
        <X 240 0
          /wFbbGlnaHRpbmcgKGJsYWNrb3V0X2Zhc3QpXQ==
        >
        <X 240 0
          /wFbbGlnaHRpbmcgKGZsYXJlX2Zhc3QpXQ==
        >
        <X 240 0
          /wFbbGlnaHRpbmcgKGJsYWNrb3V0X2Zhc3QpXQ==
        >
        <X 240 0
          /wFbbGlnaHRpbmcgKGZsYXJlX2Zhc3QpXQ==
        >
        <X 240 0
          /wFbbGlnaHRpbmcgKGJsYWNrb3V0X2Zhc3QpXQ==
        >
        <X 240 0
          /wFbbGlnaHRpbmcgKGZsYXJlX2Zhc3QpXQ==
        >
        <X 240 0
          /wFbbGlnaHRpbmcgKGJsYWNrb3V0X2Zhc3QpXQ==
        >
        <X 240 0
          /wFbbGlnaHRpbmcgKGZsYXJlX2Zhc3QpXQ==
        >
        <X 240 0
          /wFbbGlnaHRpbmcgKGJsYWNrb3V0X2Zhc3QpXQ==
        >
        <X 240 0
          /wFbbGlnaHRpbmcgKGZsYXJlX2Zhc3QpXQ==
        >
        <X 240 0
          /wFbbGlnaHRpbmcgKGJsYWNrb3V0X2Zhc3QpXQ==
        >
        <X 240 0
          /wFbbGlnaHRpbmcgKGZsYXJlX2Zhc3QpXQ==
        >
        <X 240 0
          /wFbbGlnaHRpbmcgKGJsYWNrb3V0X2Zhc3QpXQ==
        >
        <X 240 0
          /wFbbGlnaHRpbmcgKGZsYXJlX2Zhc3QpXQ==
        >
        <X 0 0
          /wFbY29vcF9kX2Nsb3NldXBfaGFuZF0=
        >
        <X 240 0
          /wFbbGlnaHRpbmcgKGJsYWNrb3V0X2Zhc3QpXQ==
        >
        <X 240 0
          /wFbbGlnaHRpbmcgKGZsYXJlX2Zhc3QpXQ==
        >
        <X 240 0
          /wFbbGlnaHRpbmcgKGJsYWNrb3V0X2Zhc3QpXQ==
        >
        <X 240 0
          /wFbbGlnaHRpbmcgKGZsYXJlX2Zhc3QpXQ==
        >
        <X 240 0
          /wFbbGlnaHRpbmcgKGJsYWNrb3V0X2Zhc3QpXQ==
        >
        <X 240 0
          /wFbbGlnaHRpbmcgKGZsYXJlX2Zhc3QpXQ==
        >
        <X 240 0
          /wFbbGlnaHRpbmcgKGJsYWNrb3V0X2Zhc3QpXQ==
        >
        <X 240 0
          /wFbbGlnaHRpbmcgKGZsYXJlX2Zhc3QpXQ==
        >
        <X 240 0
          /wFbbGlnaHRpbmcgKGJsYWNrb3V0X2Zhc3QpXQ==
        >
        <X 240 0
          /wFbbGlnaHRpbmcgKGZsYXJlX2Zhc3QpXQ==
        >
        <X 240 0
          /wFbbGlnaHRpbmcgKGJsYWNrb3V0X2Zhc3QpXQ==
        >
        <X 240 0
          /wFbbGlnaHRpbmcgKGZsYXJlX2Zhc3QpXQ==
        >
        <X 240 0
          /wFbbGlnaHRpbmcgKGJsYWNrb3V0X2Zhc3QpXQ==
        >
        <X 240 0
          /wFbbGlnaHRpbmcgKGZsYXJlX2Zhc3QpXQ==
        >
        <X 240 0
          /wFbbGlnaHRpbmcgKGJsYWNrb3V0X2Zhc3QpXQ==
        >
        <X 240 0
          /wFbbGlnaHRpbmcgKGZsYXJlX2Zhc3QpXQ==
        >
        <X 0 0
          /wFbY29vcF92X2Nsb3NldXBd
        >
        <X 240 0
          /wFbbGlnaHRpbmcgKGJsYWNrb3V0X2Zhc3QpXQ==
        >
        <X 240 0
          /wFbbGlnaHRpbmcgKGZsYXJlX2Zhc3QpXQ==
        >
        <X 240 0
          /wFbbGlnaHRpbmcgKGJsYWNrb3V0X2Zhc3QpXQ==
        >
        <X 240 0
          /wFbbGlnaHRpbmcgKGZsYXJlX2Zhc3QpXQ==
        >
        <X 0 0
          /wFbY29vcF9nX25lYXJd
        >
        <X 240 0
          /wFbbGlnaHRpbmcgKGJsYWNrb3V0X2Zhc3QpXQ==
        >
        <X 240 0
          /wFbbGlnaHRpbmcgKGZsYXJlX2Zhc3QpXQ==
        >
        <X 240 0
          /wFbbGlnaHRpbmcgKGJsYWNrb3V0X2Zhc3QpXQ==
        >
        <X 240 0
          /wFbbGlnaHRpbmcgKGZsYXJlX2Zhc3QpXQ==
        >
        <X 0 0
          /wFbY29vcF9iX2JlaGluZF0=
        >
        <X 240 0
          /wFbbGlnaHRpbmcgKGJsYWNrb3V0X2Zhc3QpXQ==
        >
        <X 240 0
          /wFbbGlnaHRpbmcgKGZsYXJlX2Zhc3QpXQ==
        >
        <X 240 0
          /wFbbGlnaHRpbmcgKGJsYWNrb3V0X2Zhc3QpXQ==
        >
        <X 240 0
          /wFbaG9ycm9yX21vdmllX3NwZWNpYWwucHBd
        >
        <X 0 0
          /wFbbGlnaHRpbmcgKGZsYXJlX2Zhc3QpXQ==
        >
        <X 0 0
          /wFbY29vcF9kX2Nsb3NldXBfaGFuZF0=
        >
        <X 240 0
          /wFbbGlnaHRpbmcgKGJsYWNrb3V0X2Zhc3QpXQ==
        >
        <X 240 0
          /wFbbmV4dF0=
        >
        <X 0 0
          /wFbbGlnaHRpbmcgKHN0b21wKV0=
        >
        <X 0 0
          /wFbUHJvRmlsbV9hLnBwXQ==
        >
        <X 479 0
          /wFbY29vcF9hbGxfZmFyXQ==
        >
        E 3841 b0 7b 00
        GUID {30140D0B-4188-408A-B8C1-1371B397D19C}
        IGNTEMPO 0 120.00000000 4 4
        SRCCOLOR 8
        VELLANE 132 128 60
        COLORMAP "C:\Program Files\REAPER (x64)\Data\color_maps\rockband_guitarbass.png"
        CFGEDITVIEW -7278.349954 11.541089 0 48 0 0 0
        CFGEDIT 1 1 0 1 1 0 1 1 1 1 1 0.25000000 -8 -8 1544 872 0 2 1 1 0.00000000 0 1 0 0 0.500000 0 0 1.000000 64
        KEYSNAP 0 6 "102030050700" 0 "Pentatonic"
        EVTFILTER 0 -1 -1 -1 -1 0 1 0 0 -1.00000000 -1.00000000
      >
    >
  >
  <TRACK '{98F25304-FDA7-4530-9B6D-3B0D1A737875}'
    NAME "CAMERA"
    PEAKCOL 16576
    BEAT -1
    AUTOMODE 0
    VOLPAN 1.00000000000000 0.00000000000000 -1.00000000000000 -1.00000000000000 1.00000000000000
    MUTESOLO 1 0 0
    IPHASE 0
    ISBUS 0 0
    BUSCOMP 0 0
    SHOWINMIX 1 0.666700 0.500000 1 0.500000 -1 -1 -1
    FREEMODE 0
    SEL 1
    REC 0 0 0 0 0 0 0
    VU 2
    TRACKHEIGHT 0 1
    INQ 0 0 0 0.5000000000 100 0 0 100
    NCHAN 2
    FX 1
    TRACKID {98F25304-FDA7-4530-9B6D-3B0D1A737875}
    PERF 0
    MIDIOUT -1
    MAINSEND 1 0
    <ITEM
      POSITION 0.00000000000000
      SNAPOFFS 0.00000000000000
      LENGTH 107.89371100000000
      LOOP 0
      ALLTAKES 0
      SEL 0
      FADEIN 1 0.000000 0.000000 1 0
      FADEOUT 1 0.000000 0.000000 1 0
      MUTE 0
      IGUID {E2845D31-5851-4064-A82D-6220CE6EEF2C}
      IID 9
      NAME "CAMERA"
      VOLPAN 1.000000 0.000000 1.000000 -1.000000
      SOFFS 0.00000000000000 0.00000000000000
      PLAYRATE 1.00000000000000 1 0.00000000000000 -1
      CHANMODE 0
      GUID {919D216F-9AA2-4075-B184-EB217D4FDDD0}
      <SOURCE MIDI
        HASDATA 1 480 QN
        POOLEDEVTS {E479052E-CB94-41E6-B6EA-B6D4738EC170}
        E 0 90 64 40
        E 60 80 64 00
        E 3780 90 3e 40
        E 60 80 3e 00
        E 3780 90 5d 40
        E 60 80 5d 00
        E 3780 90 4d 40
        E 0 90 4f 40
        E 60 80 4d 00
        E 0 80 4f 00
        E 3780 90 2b 40
        E 60 80 2b 00
        E 3780 90 56 40
        E 60 80 56 00
        E 1140 90 50 40
        E 60 80 50 00
        E 660 90 5d 40
        E 60 80 5d 00
        E 1140 90 50 40
        E 60 80 50 00
        E 660 90 58 40
        E 60 80 58 00
        E 1140 90 50 40
        E 60 80 50 00
        E 660 90 48 40
        E 60 80 48 00
        E 1860 90 3e 40
        E 60 80 3e 00
        E 1860 90 63 40
        E 60 80 63 00
        E 1860 90 5f 40
        E 60 80 5f 00
        E 1860 90 4d 40
        E 60 80 4d 00
        E 1860 90 48 40
        E 60 80 48 00
        E 3780 90 3f 40
        E 60 80 3f 00
        E 3780 90 1a 40
        E 60 80 1a 00
        E 3780 90 1f 40
        E 60 80 1f 00
        E 1860 90 52 40
        E 60 80 52 00
        E 2340 90 60 40
        E 60 80 60 00
        E 3780 90 0d 40
        E 60 80 0d 00
        E 3300 90 62 40
        E 60 80 62 00
        E 3780 90 50 40
        E 60 80 50 00
        E 1860 90 51 40
        E 60 80 51 00
        E 1860 90 37 40
        E 60 80 37 00
        E 3780 90 3f 40
        E 60 80 3f 00
        E 1860 90 11 40
        E 60 80 11 00
        E 1860 90 48 40
        E 60 80 48 00
        E 3780 90 4f 40
        E 60 80 4f 00
        E 1860 90 4d 40
        E 60 80 4d 00
        E 1860 90 50 40
        E 60 80 50 00
        E 5700 90 5d 40
        E 60 80 5d 00
        E 1860 90 50 40
        E 60 80 50 00
        E 2340 90 48 40
        E 60 80 48 00
        E 5220 90 64 40
        E 60 80 64 00
        E 1860 90 63 40
        E 60 80 63 00
        E 1860 90 62 40
        E 60 80 62 00
        E 1860 90 5c 40
        E 60 80 5c 00
        E 1860 90 63 40
        E 60 80 63 00
        E 3780 90 0d 40
        E 60 80 0d 00
        E 3780 90 52 40
        E 60 80 52 00
        E 3780 90 50 40
        E 60 80 50 00
        E 900 90 56 40
        E 60 80 56 00
        E 900 90 59 40
        E 60 80 59 00
        E 900 90 52 40
        E 60 80 52 00
        E 899 90 63 40
        E 60 80 63 00
        GUID {46BD569D-2569-417E-9844-B1A8D1FFBF37}
        IGNTEMPO 0 120.00000000 4 4
        SRCCOLOR 10
        VELLANE 132 128 60
        COLORMAP "C:\Program Files\REAPER (x64)\Data\color_maps\rockband_guitarbass.png"
      >
    >
  >
  <TRACK '{2864F87E-B13C-48FB-B218-468CE3A3C6D7}'
    NAME "LIGHTING"
    PEAKCOL 16576
    BEAT -1
    AUTOMODE 0
    VOLPAN 1.00000000000000 0.00000000000000 -1.00000000000000 -1.00000000000000 1.00000000000000
    MUTESOLO 1 0 0
    IPHASE 0
    ISBUS 2 -1
    BUSCOMP 0 0
    SHOWINMIX 1 0.666700 0.500000 1 0.500000 -1 -1 -1
    FREEMODE 0
    SEL 0
    REC 0 0 0 0 0 0 0
    VU 2
    TRACKHEIGHT 0 1
    INQ 0 0 0 0.5000000000 100 0 0 100
    NCHAN 2
    FX 1
    TRACKID {2864F87E-B13C-48FB-B218-468CE3A3C6D7}
    PERF 0
    MIDIOUT -1
    MAINSEND 1 0
    <ITEM
      POSITION 0.00000000000000
      SNAPOFFS 0.00000000000000
      LENGTH 107.89371100000000
      LOOP 0
      ALLTAKES 0
      SEL 1
      FADEIN 1 0.000000 0.000000 1 0
      FADEOUT 1 0.000000 0.000000 1 0
      MUTE 0
      IGUID {0AD85581-CCA9-4252-B194-5314B5A8B026}
      IID 9
      NAME "LIGHTING"
      VOLPAN 1.000000 0.000000 1.000000 -1.000000
      SOFFS 0.00000000000000 0.00000000000000
      PLAYRATE 1.00000000000000 1 0.00000000000000 -1
      CHANMODE 0
      GUID {A69AA6E0-A914-45E5-ADAF-BCDE3D9B53F1}
      <SOURCE MIDI
        HASDATA 1 480 QN
        POOLEDEVTS {9C5B86FC-7E42-4508-83F6-0A27EF563EBC}
        E 0 90 2d 40
        E 120 80 2d 00
        E 3720 90 25 40
        E 0 90 47 40
        E 0 90 20 40
        E 60 80 20 00
        E 900 90 1e 40
        E 60 80 1e 00
        E 900 90 1e 40
        E 60 80 1e 00
        E 900 90 1e 40
        E 60 80 1e 00
        E 900 90 1e 40
        E 60 80 1e 00
        E 900 90 1e 40
        E 60 80 1e 00
        E 900 90 1e 40
        E 60 80 1e 00
        E 900 90 1e 40
        E 60 80 1e 00
        E 900 90 1e 40
        E 60 80 1e 00
        E 900 90 1e 40
        E 60 80 1e 00
        E 900 90 1e 40
        E 60 80 1e 00
        E 900 90 1e 40
        E 60 80 1e 00
        E 900 90 1e 40
        E 60 80 1e 00
        E 900 90 1e 40
        E 60 80 1e 00
        E 900 90 1e 40
        E 60 80 1e 00
        E 900 90 1e 40
        E 60 80 1e 00
        E 900 80 25 00
        E 0 90 1c 40
        E 0 80 47 00
        E 0 90 44 40
        E 15360 80 1c 00
        E 0 90 1b 40
        E 0 80 44 00
        E 0 90 42 40
        E 15360 90 20 40
        E 0 80 1b 00
        E 0 90 25 40
        E 0 80 42 00
        E 0 90 44 40
        E 60 80 20 00
        E 900 90 1e 40
        E 60 80 1e 00
        E 900 90 1e 40
        E 60 80 1e 00
        E 900 90 1e 40
        E 60 80 1e 00
        E 900 90 1e 40
        E 60 80 1e 00
        E 900 90 1e 40
        E 60 80 1e 00
        E 900 90 1e 40
        E 60 80 1e 00
        E 900 90 1e 40
        E 60 80 1e 00
        E 900 90 1e 40
        E 60 80 1e 00
        E 900 90 1e 40
        E 60 80 1e 00
        E 900 90 1e 40
        E 60 80 1e 00
        E 900 90 1e 40
        E 60 80 1e 00
        E 900 90 1e 40
        E 60 80 1e 00
        E 900 90 1e 40
        E 60 80 1e 00
        E 900 90 1e 40
        E 0 80 44 00
        E 60 80 1e 00
        E 900 90 1e 40
        E 60 80 1e 00
        E 900 80 25 00
        E 0 90 1b 40
        E 0 90 42 40
        E 30720 90 20 40
        E 0 80 1b 00
        E 0 90 23 40
        E 0 80 42 00
        E 0 90 2c 40
        E 60 80 20 00
        E 60 80 2c 00
        E 1800 90 1e 40
        E 0 90 47 40
        E 60 80 1e 00
        E 1860 90 1e 40
        E 0 80 47 00
        E 0 90 2c 40
        E 60 80 1e 00
        E 60 80 2c 00
        E 1800 90 1e 40
        E 0 90 47 40
        E 60 80 1e 00
        E 900 80 47 00
        E 960 80 23 00
        E 0 90 0e 40
        E 0 90 2d 40
        E 240 80 0e 00
        E 0 90 11 40
        E 240 80 11 00
        E 0 90 0e 40
        E 240 80 0e 00
        E 0 90 11 40
        E 240 80 11 00
        E 0 90 0e 40
        E 240 80 0e 00
        E 0 90 11 40
        E 240 80 11 00
        E 0 90 0e 40
        E 240 80 0e 00
        E 0 90 11 40
        E 240 80 11 00
        E 0 90 0e 40
        E 240 80 0e 00
        E 0 90 11 40
        E 240 80 11 00
        E 0 90 0e 40
        E 240 80 0e 00
        E 0 90 11 40
        E 240 80 11 00
        E 0 90 0e 40
        E 240 80 0e 00
        E 0 90 11 40
        E 240 80 11 00
        E 0 90 0e 40
        E 240 80 0e 00
        E 0 90 11 40
        E 240 80 11 00
        E 0 90 0e 40
        E 240 80 0e 00
        E 0 90 11 40
        E 240 80 11 00
        E 0 90 0e 40
        E 240 80 0e 00
        E 0 90 11 40
        E 240 80 11 00
        E 0 90 0e 40
        E 240 80 0e 00
        E 0 90 11 40
        E 240 80 11 00
        E 0 90 0e 40
        E 240 80 0e 00
        E 0 90 11 40
        E 240 80 11 00
        E 0 90 0e 40
        E 240 80 0e 00
        E 0 90 11 40
        E 240 80 11 00
        E 0 90 0e 40
        E 240 80 0e 00
        E 0 90 11 40
        E 240 80 11 00
        E 0 90 0e 40
        E 240 80 0e 00
        E 0 90 11 40
        E 240 80 11 00
        E 0 90 0e 40
        E 240 80 0e 00
        E 0 90 11 40
        E 240 80 11 00
        E 0 90 0e 40
        E 240 80 0e 00
        E 0 90 11 40
        E 240 80 11 00
        E 0 90 0e 40
        E 240 80 0e 00
        E 0 90 11 40
        E 240 80 11 00
        E 0 90 0e 40
        E 240 80 0e 00
        E 0 90 11 40
        E 240 80 11 00
        E 0 90 0e 40
        E 240 80 0e 00
        E 0 90 11 40
        E 240 80 11 00
        E 0 90 0e 40
        E 240 80 0e 00
        E 0 90 11 40
        E 240 80 11 00
        E 0 90 0e 40
        E 240 80 0e 00
        E 0 90 11 40
        E 240 80 11 00
        E 0 90 0e 40
        E 240 80 0e 00
        E 0 90 11 40
        E 240 80 11 00
        E 0 90 0e 40
        E 240 80 0e 00
        E 0 90 11 40
        E 240 80 11 00
        E 0 90 0e 40
        E 240 80 0e 00
        E 0 90 11 40
        E 240 80 11 00
        E 0 90 0e 40
        E 240 80 0e 00
        E 0 90 11 40
        E 240 80 11 00
        E 0 90 0e 40
        E 240 80 0e 00
        E 0 90 11 40
        E 240 80 11 00
        E 0 90 0e 40
        E 240 80 0e 00
        E 0 90 11 40
        E 240 80 11 00
        E 0 90 0e 40
        E 240 80 0e 00
        E 0 90 11 40
        E 240 80 11 00
        E 0 90 0e 40
        E 240 80 0e 00
        E 0 90 11 40
        E 240 80 11 00
        E 0 90 0e 40
        E 0 80 2d 00
        E 240 80 0e 00
        E 0 90 11 40
        E 240 90 1e 40
        E 0 80 11 00
        E 0 90 22 40
        E 0 90 47 40
        E 60 80 1e 00
        E 0 80 22 00
        E 0 80 47 00
        GUID {CE3BCD14-D3F2-4053-9C5C-4B3668384099}
        IGNTEMPO 0 120.00000000 4 4
        SRCCOLOR 11
        VELLANE 132 128 60
        COLORMAP "C:\Program Files\REAPER (x64)\Data\color_maps\rockband_guitarbass.png"
      >
    >
  >
  <TRACK '{CCA89CF7-13FD-42DA-A716-88BDCD07D3D2}'
    NAME "BEAT"
    PEAKCOL 16576
    BEAT -1
    AUTOMODE 0
    VOLPAN 1.00000000000000 0.00000000000000 -1.00000000000000 -1.00000000000000 1.00000000000000
    MUTESOLO 0 0 0
    IPHASE 0
    ISBUS 0 0
    BUSCOMP 0 0
    SHOWINMIX 1 0.666700 0.500000 1 0.500000 -1 -1 -1
    FREEMODE 0
    SEL 0
    REC 0 0 0 0 0 0 0
    VU 2
    TRACKHEIGHT 0 0
    INQ 0 0 0 0.5000000000 100 0 0 100
    NCHAN 2
    FX 1
    TRACKID {CCA89CF7-13FD-42DA-A716-88BDCD07D3D2}
    PERF 0
    MIDIOUT -1
    <MIDINOTENAMES
      0 13 "Up Beats"
      0 12 "Downbeat"
    >
    MAINSEND 1 0
    <FXCHAIN
      SHOW 0
      LASTSEL 0
      DOCKED 0
    >
    <ITEM
      POSITION 0.00000000000000
      SNAPOFFS 0.00000000000000
      LENGTH 107.89371100000000
      LOOP 0
      ALLTAKES 0
      SEL 0
      FADEIN 1 0.000000 0.000000 1 0
      FADEOUT 1 0.000000 0.000000 1 0
      MUTE 0
      IGUID {6F5C04EE-21CB-401D-B42B-F10219382BC2}
      IID 7
      NAME "BEAT"
      VOLPAN 1.000000 0.000000 1.000000 -1.000000
      SOFFS 0.00000000000000 0.00000000000000
      PLAYRATE 1.00000000000000 1 0.00000000000000 -1
      CHANMODE 0
      GUID {83A9F09B-7466-414C-932D-18F5A29637C6}
      <SOURCE MIDI
        HASDATA 1 480 QN
        POOLEDEVTS {CFEB697A-89BF-440A-BB37-A06E2D7ACCA7}
        <X 0 0
          /wNCRUFU
        >
        E 0 96 0c 64
        E 120 86 0c 00
        E 360 96 0d 64
        E 120 86 0d 00
        E 360 96 0d 64
        E 120 86 0d 00
        E 360 96 0d 64
        E 120 86 0d 00
        E 360 96 0c 64
        E 120 86 0c 00
        E 360 96 0d 64
        E 120 86 0d 00
        E 360 96 0d 64
        E 120 86 0d 00
        E 360 96 0d 64
        E 120 86 0d 00
        E 360 96 0c 64
        E 120 86 0c 00
        E 360 96 0d 64
        E 120 86 0d 00
        E 360 96 0d 64
        E 120 86 0d 00
        E 360 96 0d 64
        E 120 86 0d 00
        E 360 96 0c 64
        E 120 86 0c 00
        E 360 96 0d 64
        E 120 86 0d 00
        E 360 96 0d 64
        E 120 86 0d 00
        E 360 96 0d 64
        E 120 86 0d 00
        E 360 96 0c 64
        E 120 86 0c 00
        E 360 96 0d 64
        E 120 86 0d 00
        E 360 96 0d 64
        E 120 86 0d 00
        E 360 96 0d 64
        E 120 86 0d 00
        E 360 96 0c 64
        E 120 86 0c 00
        E 360 96 0d 64
        E 120 86 0d 00
        E 360 96 0d 64
        E 120 86 0d 00
        E 360 96 0d 64
        E 120 86 0d 00
        E 360 96 0c 64
        E 120 86 0c 00
        E 360 96 0d 64
        E 120 86 0d 00
        E 360 96 0d 64
        E 120 86 0d 00
        E 360 96 0d 64
        E 120 86 0d 00
        E 360 96 0c 64
        E 120 86 0c 00
        E 360 96 0d 64
        E 120 86 0d 00
        E 360 96 0d 64
        E 120 86 0d 00
        E 360 96 0d 64
        E 120 86 0d 00
        E 360 96 0c 64
        E 120 86 0c 00
        E 360 96 0d 64
        E 120 86 0d 00
        E 360 96 0d 64
        E 120 86 0d 00
        E 360 96 0d 64
        E 120 86 0d 00
        E 360 96 0c 64
        E 120 86 0c 00
        E 360 96 0d 64
        E 120 86 0d 00
        E 360 96 0d 64
        E 120 86 0d 00
        E 360 96 0d 64
        E 120 86 0d 00
        E 360 96 0c 64
        E 120 86 0c 00
        E 360 96 0d 64
        E 120 86 0d 00
        E 360 96 0d 64
        E 120 86 0d 00
        E 360 96 0d 64
        E 120 86 0d 00
        E 360 96 0c 64
        E 120 86 0c 00
        E 360 96 0d 64
        E 120 86 0d 00
        E 360 96 0d 64
        E 120 86 0d 00
        E 360 96 0d 64
        E 120 86 0d 00
        E 360 96 0c 64
        E 120 86 0c 00
        E 360 96 0d 64
        E 120 86 0d 00
        E 360 96 0d 64
        E 120 86 0d 00
        E 360 96 0d 64
        E 120 86 0d 00
        E 360 96 0c 64
        E 120 86 0c 00
        E 360 96 0d 64
        E 120 86 0d 00
        E 360 96 0d 64
        E 120 86 0d 00
        E 360 96 0d 64
        E 120 86 0d 00
        E 360 96 0c 64
        E 120 86 0c 00
        E 360 96 0d 64
        E 120 86 0d 00
        E 360 96 0d 64
        E 120 86 0d 00
        E 360 96 0d 64
        E 120 86 0d 00
        E 360 96 0c 64
        E 120 86 0c 00
        E 360 96 0d 64
        E 120 86 0d 00
        E 360 96 0d 64
        E 120 86 0d 00
        E 360 96 0d 64
        E 120 86 0d 00
        E 360 96 0c 64
        E 120 86 0c 00
        E 360 96 0d 64
        E 120 86 0d 00
        E 360 96 0d 64
        E 120 86 0d 00
        E 360 96 0d 64
        E 120 86 0d 00
        E 360 96 0c 64
        E 120 86 0c 00
        E 360 96 0d 64
        E 120 86 0d 00
        E 360 96 0d 64
        E 120 86 0d 00
        E 360 96 0d 64
        E 120 86 0d 00
        E 360 96 0c 64
        E 120 86 0c 00
        E 360 96 0d 64
        E 120 86 0d 00
        E 360 96 0d 64
        E 120 86 0d 00
        E 360 96 0d 64
        E 120 86 0d 00
        E 360 96 0c 64
        E 120 86 0c 00
        E 360 96 0d 64
        E 120 86 0d 00
        E 360 96 0d 64
        E 120 86 0d 00
        E 360 96 0d 64
        E 120 86 0d 00
        E 360 96 0c 64
        E 120 86 0c 00
        E 360 96 0d 64
        E 120 86 0d 00
        E 360 96 0d 64
        E 120 86 0d 00
        E 360 96 0d 64
        E 120 86 0d 00
        E 360 96 0c 64
        E 120 86 0c 00
        E 360 96 0d 64
        E 120 86 0d 00
        E 360 96 0d 64
        E 120 86 0d 00
        E 360 96 0d 64
        E 120 86 0d 00
        E 360 96 0c 64
        E 120 86 0c 00
        E 360 96 0d 64
        E 120 86 0d 00
        E 360 96 0d 64
        E 120 86 0d 00
        E 360 96 0d 64
        E 120 86 0d 00
        E 360 96 0c 64
        E 120 86 0c 00
        E 360 96 0d 64
        E 120 86 0d 00
        E 360 96 0d 64
        E 120 86 0d 00
        E 360 96 0d 64
        E 120 86 0d 00
        E 360 96 0c 64
        E 120 86 0c 00
        E 360 96 0d 64
        E 120 86 0d 00
        E 360 96 0d 64
        E 120 86 0d 00
        E 360 96 0d 64
        E 120 86 0d 00
        E 360 96 0c 64
        E 120 86 0c 00
        E 360 96 0d 64
        E 120 86 0d 00
        E 360 96 0d 64
        E 120 86 0d 00
        E 360 96 0d 64
        E 120 86 0d 00
        E 360 96 0c 64
        E 120 86 0c 00
        E 360 96 0d 64
        E 120 86 0d 00
        E 360 96 0d 64
        E 120 86 0d 00
        E 360 96 0d 64
        E 120 86 0d 00
        E 360 96 0c 64
        E 120 86 0c 00
        E 360 96 0d 64
        E 120 86 0d 00
        E 360 96 0d 64
        E 120 86 0d 00
        E 360 96 0d 64
        E 120 86 0d 00
        E 360 96 0c 64
        E 120 86 0c 00
        E 360 96 0d 64
        E 120 86 0d 00
        E 360 96 0d 64
        E 120 86 0d 00
        E 360 96 0d 64
        E 120 86 0d 00
        E 360 96 0c 64
        E 120 86 0c 00
        E 360 96 0d 64
        E 120 86 0d 00
        E 360 96 0d 64
        E 120 86 0d 00
        E 360 96 0d 64
        E 120 86 0d 00
        E 360 96 0c 64
        E 120 86 0c 00
        E 360 96 0d 64
        E 120 86 0d 00
        E 360 96 0d 64
        E 120 86 0d 00
        E 360 96 0d 64
        E 120 86 0d 00
        E 360 96 0c 64
        E 120 86 0c 00
        E 360 96 0d 64
        E 120 86 0d 00
        E 360 96 0d 64
        E 120 86 0d 00
        E 360 96 0d 64
        E 120 86 0d 00
        E 360 96 0c 64
        E 120 86 0c 00
        E 360 96 0d 64
        E 120 86 0d 00
        E 360 96 0d 64
        E 120 86 0d 00
        E 360 96 0d 64
        E 120 86 0d 00
        E 360 96 0c 64
        E 120 86 0c 00
        E 360 96 0d 64
        E 120 86 0d 00
        E 360 96 0d 64
        E 120 86 0d 00
        E 360 96 0d 64
        E 120 86 0d 00
        E 360 96 0c 64
        E 120 86 0c 00
        E 360 96 0d 64
        E 120 86 0d 00
        E 360 96 0d 64
        E 120 86 0d 00
        E 360 96 0d 64
        E 120 86 0d 00
        E 360 96 0c 64
        E 120 86 0c 00
        E 360 96 0d 64
        E 120 86 0d 00
        E 360 96 0d 64
        E 120 86 0d 00
        E 360 96 0d 64
        E 120 86 0d 00
        E 360 96 0c 64
        E 120 86 0c 00
        E 360 96 0d 64
        E 120 86 0d 00
        E 360 96 0d 64
        E 120 86 0d 00
        E 360 96 0d 64
        E 120 86 0d 00
        E 360 96 0c 64
        E 120 86 0c 00
        E 360 96 0d 64
        E 120 86 0d 00
        E 360 96 0d 64
        E 120 86 0d 00
        E 360 96 0d 64
        E 120 86 0d 00
        E 360 96 0c 64
        E 120 86 0c 00
        E 360 96 0d 64
        E 120 86 0d 00
        E 360 96 0d 64
        E 120 86 0d 00
        E 360 96 0d 64
        E 120 86 0d 00
        E 360 96 0c 64
        E 120 86 0c 00
        E 360 96 0d 64
        E 120 86 0d 00
        E 360 96 0d 64
        E 120 86 0d 00
        E 360 96 0d 64
        E 120 86 0d 00
        E 360 96 0c 64
        E 120 86 0c 00
        E 360 96 0d 64
        E 120 86 0d 00
        E 360 96 0d 64
        E 120 86 0d 00
        E 360 96 0d 64
        E 120 86 0d 00
        E 360 96 0c 64
        E 120 86 0c 00
        E 360 96 0d 64
        E 120 86 0d 00
        E 360 96 0d 64
        E 120 86 0d 00
        E 360 96 0d 64
        E 120 86 0d 00
        E 360 96 0c 64
        E 120 86 0c 00
        E 360 96 0d 64
        E 120 86 0d 00
        E 360 96 0d 64
        E 120 86 0d 00
        E 360 96 0d 64
        E 120 86 0d 00
        E 360 96 0c 64
        E 120 86 0c 00
        E 360 96 0d 64
        E 120 86 0d 00
        E 360 96 0d 64
        E 120 86 0d 00
        E 360 96 0d 64
        E 120 86 0d 00
        E 360 96 0c 64
        E 120 86 0c 00
        E 360 96 0d 64
        E 120 86 0d 00
        E 360 96 0d 64
        E 120 86 0d 00
        E 360 96 0d 64
        E 120 86 0d 00
        E 360 96 0c 64
        E 120 86 0c 00
        E 360 96 0d 64
        E 120 86 0d 00
        E 360 96 0d 64
        E 120 86 0d 00
        E 360 96 0d 64
        E 120 86 0d 00
        E 360 96 0c 64
        E 120 86 0c 00
        E 360 96 0d 64
        E 120 86 0d 00
        E 360 96 0d 64
        E 120 86 0d 00
        E 360 96 0d 64
        E 120 86 0d 00
        E 360 96 0c 64
        E 120 86 0c 00
        E 360 96 0d 64
        E 120 86 0d 00
        E 360 96 0d 64
        E 120 86 0d 00
        E 360 96 0d 64
        E 120 86 0d 00
        E 360 96 0c 64
        E 120 86 0c 00
        E 360 96 0d 64
        E 120 86 0d 00
        E 360 96 0d 64
        E 120 86 0d 00
        E 360 96 0d 64
        E 120 86 0d 00
        E 360 96 0c 64
        E 120 86 0c 00
        E 360 96 0d 64
        E 120 86 0d 00
        E 360 96 0d 64
        E 120 86 0d 00
        E 360 96 0d 64
        E 120 86 0d 00
        E 360 96 0c 64
        E 120 86 0c 00
        E 360 96 0d 64
        E 120 86 0d 00
        E 360 96 0d 64
        E 120 86 0d 00
        E 360 96 0d 64
        E 120 86 0d 00
        E 360 96 0c 64
        E 120 86 0c 00
        E 360 96 0d 64
        E 120 86 0d 00
        E 360 96 0d 64
        E 120 86 0d 00
        E 360 96 0d 64
        E 120 86 0d 00
        E 360 96 0c 64
        E 120 86 0c 00
        E 360 96 0d 64
        E 120 86 0d 00
        E 360 96 0d 64
        E 120 86 0d 00
        E 360 96 0d 64
        E 120 86 0d 00
        E 360 96 0c 64
        E 120 86 0c 00
        E 360 96 0d 64
        E 120 86 0d 00
        E 360 96 0d 64
        E 120 86 0d 00
        E 360 96 0d 64
        E 120 86 0d 00
        E 360 96 0c 64
        E 120 86 0c 00
        E 360 96 0d 64
        E 120 86 0d 00
        E 360 96 0d 64
        E 120 86 0d 00
        E 360 96 0d 64
        E 120 86 0d 00
        E 360 96 0c 64
        E 120 86 0c 00
        E 360 96 0d 64
        E 120 86 0d 00
        E 360 96 0d 64
        E 120 86 0d 00
        E 360 96 0d 64
        E 120 86 0d 00
        E 360 96 0c 64
        E 120 86 0c 00
        E 360 96 0d 64
        E 120 86 0d 00
        E 360 96 0d 64
        E 120 86 0d 00
        E 360 96 0d 64
        E 120 86 0d 00
        E 360 96 0c 64
        E 120 86 0c 00
        E 360 96 0d 64
        E 120 86 0d 00
        E 360 96 0d 64
        E 120 86 0d 00
        E 360 96 0d 64
        E 120 86 0d 00
        E 360 96 0c 64
        E 120 86 0c 00
        E 360 96 0d 64
        E 120 86 0d 00
        E 360 96 0d 64
        E 120 86 0d 00
        E 360 96 0d 64
        E 120 86 0d 00
        E 360 96 0c 64
        E 120 86 0c 00
        E 360 96 0d 64
        E 120 86 0d 00
        E 360 96 0d 64
        E 120 86 0d 00
        E 360 96 0d 64
        E 120 86 0d 00
        E 360 96 0c 64
        E 120 86 0c 00
        E 360 96 0d 64
        E 120 86 0d 00
        E 360 96 0d 64
        E 120 86 0d 00
        E 360 96 0d 64
        E 120 86 0d 00
        E 360 96 0c 64
        E 120 86 0c 00
        E 360 96 0d 64
        E 120 86 0d 00
        E 360 96 0d 64
        E 120 86 0d 00
        E 360 96 0d 64
        E 120 86 0d 00
        E 360 96 0c 64
        E 120 86 0c 00
        E 360 96 0d 64
        E 120 86 0d 00
        E 360 96 0d 64
        E 120 86 0d 00
        E 360 96 0d 64
        E 120 86 0d 00
        E 360 96 0c 64
        E 120 86 0c 00
        E 360 96 0d 64
        E 120 86 0d 00
        E 360 96 0d 64
        E 120 86 0d 00
        E 360 96 0d 64
        E 120 86 0d 00
        E 360 b0 7b 00
        GUID {2F13F8C3-9307-4B6B-9FDA-A63F0F7FC7E1}
        IGNTEMPO 0 120.00000000 4 4
        SRCCOLOR 9
        VELLANE 132 128 60
        COLORMAP "C:\Program Files\REAPER (x64)\Data\color_maps\rockband_guitarbass.png"
        CFGEDITVIEW -7278.349954 11.541089 0 48 0 0 0
        CFGEDIT 1 1 0 1 1 0 1 1 1 1 1 0.25000000 -8 -8 1544 872 0 2 1 1 0.00000000 0 1 0 0 0.500000 0 0 1.000000 64
        KEYSNAP 0 6 "102030050700" 0 "Pentatonic"
        EVTFILTER 0 -1 -1 -1 -1 0 1 0 0 -1.00000000 -1.00000000
      >
    >
  >
  <TRACK '{8AB5AC11-B9F4-4ED9-871C-EFF68FC0932E}'
    NAME "backing"
    PEAKCOL 16576
    BEAT -1
    AUTOMODE 0
    VOLPAN 1.00000000000000 0.00000000000000 -1.00000000000000 -1.00000000000000 1.00000000000000
    MUTESOLO 0 0 0
    IPHASE 0
    ISBUS 0 0
    BUSCOMP 0 0
    SHOWINMIX 1 0.666700 0.500000 1 0.500000 -1 -1 -1
    FREEMODE 0
    SEL 0
    REC 0 0 0 0 0 0 0
    VU 2
    TRACKHEIGHT 0 0
    INQ 0 0 0 0.5000000000 100 0 0 100
    NCHAN 2
    FX 1
    TRACKID {8AB5AC11-B9F4-4ED9-871C-EFF68FC0932E}
    PERF 0
    MIDIOUT -1
    MAINSEND 1 0
    <ITEM
      POSITION 0.00000000000000
      SNAPOFFS 0.00000000000000
      LENGTH 107.89371100000000
      LOOP 0
      ALLTAKES 0
      SEL 0
      FADEIN 1 0.000000 0.000000 1 0
      FADEOUT 1 0.000000 0.000000 1 0
      MUTE 0
      IGUID {E21D042E-155D-47D7-A5AE-644FF5A3FFCF}
      IID 8
      NAME "backing.wav"
      VOLPAN 1.000000 0.000000 1.000000 -1.000000
      SOFFS 0.00000000000000
      PLAYRATE 1.00000000000000 1 0.00000000000000 -1
      CHANMODE 0
      GUID {76087B1D-C7D0-48DD-86D8-018272292F86}
      <SOURCE WAVE
        FILE "C:\Users\Ruggery\Documents\Visual Studio Code\Projects\ruggy-customs-projects\songs\robotsinthegarden\wav\backing.wav"
      >
    >
  >
  <EXTENSIONS
  >
>
