<REAPER_PROJECT 0.1 "4.22/x64"
  RIPPLE 0
  GROUPOVERRIDE 0 0 0
  AUTOXFADE 1
  ENVATTACH 1
  MIXERUIFLAGS 11 48
  PEAKGAIN 1.00000000000000
  FEEDBACK 0
  PANLAW 1.00000000000000
  PROJOFFS 0.00000000000000 0
  MAXPROJLEN 0 600.00000000000000
  GRID 3199 8 1.00000000000000 8 1.00000000000000 0
  TIMEMODE 1 0 -1
  PANMODE 3
  CURSOR 0.00000000000000
  ZOOM 6.86507391928139 0 0
  VZOOMEX 6
  USE_REC_CFG 0
  RECMODE 1
  SMPTESYNC 0 23.976024 100 40 1000 300 0 0.000000 1
  LOOP 1
  LOOPGRAN 0 4.00000000000000
  RECORD_PATH "" ""
  <RECORD_CFG
  >
  <APPLYFX_CFG
  >
  RENDER_FILE "C:\Users\Ruggery\Desktop\harm2.wav"
  RENDER_FMT 0 1 16000
  RENDER_1X 0
  RENDER_RANGE 2 0.00000000000000 0.00000000000000
  RENDER_RESAMPLE 3 0 1
  RENDER_ADDTOPROJ 0
  RENDER_STEMS 0
  RENDER_DITHER 0
  TIMELOCKMODE 0
  ITEMMIX 0
  DEFPITCHMODE 393216
  TAKELANE 1
  SAMPLERATE 44100 0 0
  <RENDER_CFG
    ZXZhdxAD
  >
  LOCK 1
  <METRONOME 6 2.000000
    VOL 0.250000 0.125000
    FREQ 800 1600 1
    BEATLEN 4
    SAMPLES "" ""
  >
  GLOBAL_AUTO -1
  TEMPO 120.00000000000000 4 4
  PLAYRATE 1.00000000000000 0 0.25000 4.00000
  SELECTION 0.00000000000000 163.46881417504329
  SELECTION2 0.00000000000000 163.46881417504329
  MASTERAUTOMODE 0
  MASTERTRACKHEIGHT 0
  MASTERPEAKCOL 16576
  MASTERMUTESOLO 0
  MASTERTRACKVIEW 1 0.666700 0.500000 0.500000 -1 -1 -1
  MASTERHWOUT 0 0 1.00000000000000 0.00000000000000 0 0 0 -1.00000000000000
  MASTER_NCH 2 2
  MASTER_VOLUME 1.00000000000000 0.00000000000000 -1.00000000000000 -1.00000000000000 1.00000000000000
  MASTER_PANMODE -1
  MASTER_FX 1
  MASTER_SEL 0
  <MASTERPLAYSPEEDENV
    ACT 0
    VIS 0 1 1.000000
    LANEHEIGHT 0 0
    ARM 0
    DEFSHAPE 0 -1 -1
  >
  <TEMPOENVEX
    ACT 1
    VIS 1 0 1.000000
    LANEHEIGHT 0 0
    ARM 0
    DEFSHAPE 1 -1 -1
    PT 0.000000000000 86.6000000000 1
    PT 91.454965350031 86.6500000000 1 0 1
  >
  <PROJBAY
  >
  <TRACK '{F4489042-B790-4A07-B503-830961F1D3DC}'
    NAME "PART BASS"
    PEAKCOL 16576
    BEAT -1
    AUTOMODE 0
    VOLPAN 1.01157945425990 0.00000000000000 -1.00000000000000 -1.00000000000000 1.00000000000000
    MUTESOLO 0 0 0
    IPHASE 0
    ISBUS 0 0
    BUSCOMP 0 0
    SHOWINMIX 1 0.666700 0.500000 1 0.500000 -1 -1 -1
    FREEMODE 0
    SEL 0
    REC 0 5088 1 0 0 0 0
    VU 2
    TRACKHEIGHT 0 0
    INQ 0 0 0 0.5000000000 100 0 0 100
    NCHAN 2
    FX 1
    TRACKID {F4489042-B790-4A07-B503-830961F1D3DC}
    PERF 0
    MIDIOUT -1
    <MIDINOTENAMES
      0 127 "TRILL MARKER"
      0 126 "TREMOLO MARKER"
      0 125 "---"
      0 124 "BRE"
      0 123 "BRE"
      0 122 "BRE"
      0 121 "BRE"
      0 120 "BRE (use all 5)"
      0 119 "----"
      0 116 "OVERDRIVE"
      0 115 "----"
      0 103 "Solo Marker"
      0 102 "Force HOPO Off"
      0 101 "Force HOPO On"
      0 100 "EXPERT Orange"
      0 99 "EXPERT Blue"
      0 98 "EXPERT Yellow"
      0 97 "EXPERT Red"
      0 96 "EXPERT Green"
      0 95 "----"
      0 90 "Force HOPO Off"
      0 89 "Force HOPO On"
      0 88 "HARD Orange"
      0 87 "HARD Blue"
      0 86 "HARD Yellow"
      0 85 "HARD Red"
      0 84 "HARD Green"
      0 77 "----"
      0 76 "MEDIUM Orange"
      0 75 "MEDIUM Blue"
      0 74 "MEDIUM Yellow"
      0 73 "MEDIUM Red"
      0 72 "MEDIUM Green"
      0 65 "----"
      0 64 "EASY Orange"
      0 63 "EASY Blue"
      0 62 "EASY Yellow"
      0 61 "EASY Red"
      0 60 "EASY Green"
      0 59 "Fret 12"
      0 57 "Fret 11"
      0 56 "Fret 10"
      0 55 "Fret 9"
      0 53 "Fret 8"
      0 52 "Fret 7"
      0 50 "Fret 6"
      0 49 "Fret 5"
      0 47 "Fret 4"
      0 45 "Fret 3"
      0 43 "Fret 2"
      0 40 "Fret 1"
    >
    MAINSEND 1 0
    <FXCHAIN
      WNDRECT 399 136 891 559
      SHOW 0
      LASTSEL 0
      DOCKED 0
      BYPASS 0 0
      <VST "VSTi: RBN Preview (RBN)" "rbprev_vst64.dll" 0 ""
        dnBicu5e7f4AAAAAAgAAAAEAAAAAAAAAAgAAAAAAAAAEAAAAAQAAAA==
        AAAQAAMAqgAAABAAAAA=
      >
      FLOATPOS 0 0 0 0
      FXID {47FD0FED-5E5A-4B43-A268-8DC07547017F}
      WAK 0
    >
    <ITEM
      POSITION 0.00000000000000
      SNAPOFFS 0.00000000000000
      LENGTH 163.46881417504329
      LOOP 0
      ALLTAKES 0
      SEL 0
      FADEIN 1 0.000000 0.000000 1 0
      FADEOUT 1 0.000000 0.000000 1 0
      MUTE 0
      IGUID {B44594EF-68DE-42D5-99FF-F2B0EB300BBD}
      IID 6
      NAME "PART BASS"
      VOLPAN 1.000000 0.000000 1.000000 -1.000000
      SOFFS 0.00000000000000 0.00000000000000
      PLAYRATE 1.00000000000000 1 0.00000000000000 -1
      CHANMODE 0
      GUID {4AAD5B70-94FE-402A-9966-435D4C47667F}
      <SOURCE MIDI
        HASDATA 1 480 QN
        POOLEDEVTS {08112F20-5C89-4B37-981C-49CFB9C736EA}
        <X 0 0
          /wNQQVJUIEJBU1M=
        >
        <X 0 0
          /wFbbWFwIFN0cnVtTWFwX1BpY2td
        >
        <X 2880 0
          /wFbcGxheV0=
        >
        E 0 90 2d 60
        E 960 90 49 60
        E 0 90 55 60
        E 0 90 61 60
        E 120 80 49 00
        E 0 80 55 00
        E 0 80 61 00
        E 120 90 3d 60
        E 0 90 49 60
        E 0 90 55 60
        E 0 90 61 60
        E 960 80 3d 00
        E 0 80 49 00
        E 0 80 55 00
        E 0 80 61 00
        E 480 90 55 60
        E 0 90 61 60
        E 120 80 55 00
        E 0 80 61 00
        E 120 90 49 60
        E 0 90 55 60
        E 0 90 61 60
        E 120 80 49 00
        E 0 80 55 00
        E 0 80 61 00
        E 120 90 3d 60
        E 0 90 49 60
        E 0 90 55 60
        E 0 90 61 60
        E 960 80 3d 00
        E 0 80 49 00
        E 0 80 55 00
        E 0 80 61 00
        E 480 90 61 60
        E 120 80 61 00
        E 120 90 49 60
        E 0 90 55 60
        E 0 90 61 60
        E 120 80 49 00
        E 0 80 55 00
        E 0 80 61 00
        E 120 90 3d 60
        E 0 90 49 60
        E 0 90 55 60
        E 0 90 61 60
        E 960 80 3d 00
        E 0 80 49 00
        E 0 80 55 00
        E 0 80 61 00
        E 480 90 55 60
        E 0 90 61 60
        E 120 80 55 00
        E 0 80 61 00
        E 120 90 49 60
        E 0 90 55 60
        E 0 90 61 60
        E 0 90 74 60
        E 120 80 49 00
        E 0 80 55 00
        E 0 80 61 00
        E 120 90 3d 60
        E 0 90 49 60
        E 0 90 55 60
        E 0 90 61 60
        E 960 80 3d 00
        E 0 80 49 00
        E 0 80 55 00
        E 0 80 61 00
        E 480 90 61 60
        E 120 80 61 00
        E 120 90 49 60
        E 0 90 55 60
        E 0 90 61 60
        E 120 80 74 00
        E 0 80 49 00
        E 0 80 55 00
        E 0 80 61 00
        E 120 90 3d 60
        E 0 90 49 60
        E 0 90 55 60
        E 0 90 61 60
        E 960 80 3d 00
        E 0 80 49 00
        E 0 80 55 00
        E 0 80 61 00
        E 480 90 55 60
        E 0 90 61 60
        E 120 80 2d 00
        E 0 80 55 00
        E 0 80 61 00
        E 120 90 2b 60
        E 0 90 4a 60
        E 0 90 56 60
        E 0 90 62 60
        E 120 80 4a 00
        E 0 80 56 00
        E 0 80 62 00
        E 120 90 3e 60
        E 0 90 4a 60
        E 0 90 56 60
        E 0 90 62 60
        E 960 80 3e 00
        E 0 80 4a 00
        E 0 80 56 00
        E 0 80 62 00
        E 480 90 62 60
        E 120 80 2b 00
        E 0 80 62 00
        E 120 90 2d 60
        E 0 90 49 60
        E 0 90 55 60
        E 0 90 61 60
        E 120 80 49 00
        E 0 80 55 00
        E 0 80 61 00
        E 120 90 3d 60
        E 0 90 49 60
        E 0 90 55 60
        E 0 90 61 60
        E 960 80 3d 00
        E 0 80 49 00
        E 0 80 55 00
        E 0 80 61 00
        E 480 90 55 60
        E 0 90 61 60
        E 120 80 2d 00
        E 0 80 55 00
        E 0 80 61 00
        E 120 90 2b 60
        E 0 90 4a 60
        E 0 90 56 60
        E 0 90 62 60
        E 120 80 4a 00
        E 0 80 56 00
        E 0 80 62 00
        E 120 90 3e 60
        E 0 90 4a 60
        E 0 90 56 60
        E 0 90 62 60
        E 960 80 3e 00
        E 0 80 4a 00
        E 0 80 56 00
        E 0 80 62 00
        E 480 90 62 60
        E 120 80 2b 00
        E 0 80 62 00
        E 119 90 2d 60
        E 1 90 49 60
        E 0 90 55 60
        E 0 90 61 60
        E 120 80 49 00
        E 0 80 55 00
        E 0 80 61 00
        E 120 90 3d 60
        E 0 90 49 60
        E 0 90 55 60
        E 0 90 61 60
        E 960 80 3d 00
        E 0 80 49 00
        E 0 80 55 00
        E 0 80 61 00
        E 480 90 55 60
        E 0 90 61 60
        E 120 80 2d 00
        E 0 80 55 00
        E 0 80 61 00
        E 120 90 2b 60
        E 0 90 4a 60
        E 0 90 56 60
        E 0 90 62 60
        E 120 80 4a 00
        E 0 80 56 00
        E 0 80 62 00
        E 120 90 3e 60
        E 0 90 4a 60
        E 0 90 56 60
        E 0 90 62 60
        E 960 80 3e 00
        E 0 80 4a 00
        E 0 80 56 00
        E 0 80 62 00
        E 480 90 62 60
        E 120 80 2b 00
        E 0 80 62 00
        E 120 90 2d 60
        E 0 90 49 60
        E 0 90 55 60
        E 0 90 61 60
        E 120 80 49 00
        E 0 80 55 00
        E 0 80 61 00
        E 120 90 3d 60
        E 0 90 49 60
        E 0 90 55 60
        E 0 90 61 60
        E 960 80 3d 00
        E 0 80 49 00
        E 0 80 55 00
        E 0 80 61 00
        E 480 90 55 60
        E 0 90 61 60
        E 120 80 2d 00
        E 0 80 55 00
        E 0 80 61 00
        E 120 90 2b 60
        E 0 90 4a 60
        E 0 90 56 60
        E 0 90 62 60
        E 120 80 4a 00
        E 0 80 56 00
        E 0 80 62 00
        E 120 90 3e 60
        E 0 90 4a 60
        E 0 90 56 60
        E 0 90 62 60
        E 960 80 3e 00
        E 0 80 4a 00
        E 0 80 56 00
        E 0 80 62 00
        E 480 90 62 60
        E 120 80 2b 00
        E 0 80 62 00
        E 119 90 2d 60
        E 1 90 49 60
        E 0 90 55 60
        E 0 90 61 60
        E 120 80 49 00
        E 0 80 55 00
        E 0 80 61 00
        E 120 90 3d 60
        E 0 90 49 60
        E 0 90 55 60
        E 0 90 61 60
        E 960 80 3d 00
        E 0 80 49 00
        E 0 80 55 00
        E 0 80 61 00
        E 480 90 55 60
        E 0 90 61 60
        E 0 90 74 60
        E 120 80 2d 00
        E 0 80 55 00
        E 0 80 61 00
        E 120 90 2b 60
        E 0 90 4a 60
        E 0 90 56 60
        E 0 90 62 60
        E 120 80 4a 00
        E 0 80 56 00
        E 0 80 62 00
        E 120 90 3e 60
        E 0 90 4a 60
        E 0 90 56 60
        E 0 90 62 60
        E 960 80 3e 00
        E 0 80 4a 00
        E 0 80 56 00
        E 0 80 62 00
        E 480 90 62 60
        E 120 80 2b 00
        E 0 80 62 00
        E 120 90 2d 60
        E 0 90 49 60
        E 0 90 55 60
        E 0 90 61 60
        E 120 80 74 00
        E 0 80 49 00
        E 0 80 55 00
        E 0 80 61 00
        E 120 90 3d 60
        E 0 90 49 60
        E 0 90 55 60
        E 0 90 61 60
        E 960 80 3d 00
        E 0 80 49 00
        E 0 80 55 00
        E 0 80 61 00
        E 480 90 55 60
        E 0 90 61 60
        E 120 80 2d 00
        E 0 80 55 00
        E 0 80 61 00
        E 120 90 2b 60
        E 0 90 4a 60
        E 0 90 56 60
        E 0 90 62 60
        E 120 80 4a 00
        E 0 80 56 00
        E 0 80 62 00
        E 120 90 3e 60
        E 0 90 4a 60
        E 0 90 56 60
        E 0 90 62 60
        E 960 80 3e 00
        E 0 80 4a 00
        E 0 80 56 00
        E 0 80 62 00
        E 480 90 62 60
        E 120 80 2b 00
        E 0 80 62 00
        E 119 90 2d 60
        E 1 90 49 60
        E 0 90 55 60
        E 0 90 61 60
        E 120 80 49 00
        E 0 80 55 00
        E 0 80 61 00
        E 120 90 3d 60
        E 0 90 49 60
        E 0 90 55 60
        E 0 90 61 60
        E 960 80 3d 00
        E 0 80 49 00
        E 0 80 55 00
        E 0 80 61 00
        E 480 90 55 60
        E 0 90 61 60
        E 120 80 2d 00
        E 0 80 55 00
        E 0 80 61 00
        E 120 90 2b 60
        E 0 90 4a 60
        E 0 90 56 60
        E 0 90 62 60
        E 120 80 4a 00
        E 0 80 56 00
        E 0 80 62 00
        E 120 90 3e 60
        E 0 90 4a 60
        E 0 90 56 60
        E 0 90 62 60
        E 960 80 3e 00
        E 0 80 4a 00
        E 0 80 56 00
        E 0 80 62 00
        E 480 90 62 60
        E 120 80 2b 00
        E 0 80 62 00
        E 120 90 2d 60
        E 0 90 49 60
        E 0 90 55 60
        E 0 90 61 60
        E 120 80 49 00
        E 0 80 55 00
        E 0 80 61 00
        E 120 90 3d 60
        E 0 90 49 60
        E 0 90 55 60
        E 0 90 61 60
        E 960 80 3d 00
        E 0 80 49 00
        E 0 80 55 00
        E 0 80 61 00
        E 480 90 55 60
        E 0 90 61 60
        E 120 80 2d 00
        E 0 80 55 00
        E 0 80 61 00
        E 120 90 2b 60
        E 0 90 4a 60
        E 0 90 56 60
        E 0 90 62 60
        E 120 80 4a 00
        E 0 80 56 00
        E 0 80 62 00
        E 120 90 3e 60
        E 0 90 4a 60
        E 0 90 56 60
        E 0 90 62 60
        E 960 80 3e 00
        E 0 80 4a 00
        E 0 80 56 00
        E 0 80 62 00
        E 480 90 62 60
        E 120 80 2b 00
        E 0 80 62 00
        E 119 90 2d 60
        E 1 90 4b 60
        E 0 90 57 60
        E 0 90 63 60
        E 120 80 4b 00
        E 0 80 57 00
        E 0 80 63 00
        E 120 90 3f 60
        E 0 90 4b 60
        E 0 90 57 60
        E 0 90 63 60
        E 960 80 3f 00
        E 0 80 4b 00
        E 0 80 57 00
        E 0 80 63 00
        E 480 90 57 60
        E 0 90 63 60
        E 120 80 2d 00
        E 0 80 57 00
        E 0 80 63 00
        E 120 90 31 60
        E 0 90 4c 60
        E 0 90 58 60
        E 0 90 64 60
        E 120 80 4c 00
        E 0 80 58 00
        E 0 80 64 00
        E 120 90 40 60
        E 0 90 4c 60
        E 0 90 58 60
        E 0 90 64 60
        E 960 80 40 00
        E 0 80 4c 00
        E 0 80 58 00
        E 0 80 64 00
        E 480 90 64 60
        E 120 80 31 00
        E 0 80 64 00
        E 120 90 28 60
        E 0 90 48 60
        E 0 90 54 60
        E 0 90 60 60
        E 0 90 74 60
        E 120 80 48 00
        E 0 80 54 00
        E 0 80 60 00
        E 120 90 3c 60
        E 0 90 48 60
        E 0 90 54 60
        E 0 90 60 60
        E 960 80 3c 00
        E 0 80 48 00
        E 0 80 54 00
        E 0 80 60 00
        E 480 90 54 60
        E 0 90 60 60
        E 120 80 28 00
        E 0 80 54 00
        E 0 80 60 00
        E 120 90 31 60
        E 0 90 4a 60
        E 0 90 56 60
        E 0 90 62 60
        E 120 80 4a 00
        E 0 80 56 00
        E 0 80 62 00
        E 120 90 3e 60
        E 0 90 4a 60
        E 0 90 56 60
        E 0 90 62 60
        E 960 80 3e 00
        E 0 80 4a 00
        E 0 80 56 00
        E 0 80 62 00
        E 480 90 62 60
        E 120 80 31 00
        E 0 80 62 00
        E 120 90 2d 60
        E 0 90 49 60
        E 0 90 55 60
        E 0 90 61 60
        E 120 80 74 00
        E 0 80 49 00
        E 0 80 55 00
        E 0 80 61 00
        E 120 90 3d 60
        E 0 90 49 60
        E 0 90 55 60
        E 0 90 61 60
        E 960 80 3d 00
        E 0 80 49 00
        E 0 80 55 00
        E 0 80 61 00
        E 480 90 55 60
        E 0 90 61 60
        E 120 80 2d 00
        E 0 80 55 00
        E 0 80 61 00
        E 120 90 2b 60
        E 0 90 4a 60
        E 0 90 56 60
        E 0 90 62 60
        E 120 80 4a 00
        E 0 80 56 00
        E 0 80 62 00
        E 120 90 3e 60
        E 0 90 4a 60
        E 0 90 56 60
        E 0 90 62 60
        E 960 80 3e 00
        E 0 80 4a 00
        E 0 80 56 00
        E 0 80 62 00
        E 480 90 62 60
        E 120 80 2b 00
        E 0 80 62 00
        E 119 90 2d 60
        E 1 90 49 60
        E 0 90 55 60
        E 0 90 61 60
        E 120 80 49 00
        E 0 80 55 00
        E 0 80 61 00
        E 120 90 3d 60
        E 0 90 49 60
        E 0 90 55 60
        E 0 90 61 60
        E 960 80 3d 00
        E 0 80 49 00
        E 0 80 55 00
        E 0 80 61 00
        E 480 90 55 60
        E 0 90 61 60
        E 120 80 2d 00
        E 0 80 55 00
        E 0 80 61 00
        E 120 90 2b 60
        E 0 90 4a 60
        E 0 90 56 60
        E 0 90 62 60
        E 120 80 4a 00
        E 0 80 56 00
        E 0 80 62 00
        E 120 90 3e 60
        E 0 90 4a 60
        E 0 90 56 60
        E 0 90 62 60
        E 960 80 3e 00
        E 0 80 4a 00
        E 0 80 56 00
        E 0 80 62 00
        E 480 90 62 60
        E 120 80 2b 00
        E 0 80 62 00
        E 120 90 2d 60
        E 0 90 49 60
        E 0 90 55 60
        E 0 90 61 60
        E 120 80 49 00
        E 0 80 55 00
        E 0 80 61 00
        E 120 90 3d 60
        E 0 90 49 60
        E 0 90 55 60
        E 0 90 61 60
        E 960 80 3d 00
        E 0 80 49 00
        E 0 80 55 00
        E 0 80 61 00
        E 480 90 55 60
        E 0 90 61 60
        E 120 80 2d 00
        E 0 80 55 00
        E 0 80 61 00
        E 120 90 2b 60
        E 0 90 4a 60
        E 0 90 56 60
        E 0 90 62 60
        E 120 80 4a 00
        E 0 80 56 00
        E 0 80 62 00
        E 120 90 3e 60
        E 0 90 4a 60
        E 0 90 56 60
        E 0 90 62 60
        E 960 80 3e 00
        E 0 80 4a 00
        E 0 80 56 00
        E 0 80 62 00
        E 480 90 62 60
        E 120 80 2b 00
        E 0 80 62 00
        E 119 90 2d 60
        E 1 90 49 60
        E 0 90 55 60
        E 0 90 61 60
        E 120 80 49 00
        E 0 80 55 00
        E 0 80 61 00
        E 120 90 3d 60
        E 0 90 49 60
        E 0 90 55 60
        E 0 90 61 60
        E 960 80 3d 00
        E 0 80 49 00
        E 0 80 55 00
        E 0 80 61 00
        E 480 90 55 60
        E 0 90 61 60
        E 0 90 74 60
        E 120 80 2d 00
        E 0 80 55 00
        E 0 80 61 00
        E 120 90 2b 60
        E 0 90 4a 60
        E 0 90 56 60
        E 0 90 62 60
        E 120 80 4a 00
        E 0 80 56 00
        E 0 80 62 00
        E 120 90 3e 60
        E 0 90 4a 60
        E 0 90 56 60
        E 0 90 62 60
        E 960 80 3e 00
        E 0 80 4a 00
        E 0 80 56 00
        E 0 80 62 00
        E 480 90 62 60
        E 120 80 2b 00
        E 0 80 62 00
        E 120 90 2d 60
        E 0 90 49 60
        E 0 90 55 60
        E 0 90 61 60
        E 120 80 74 00
        E 0 80 49 00
        E 0 80 55 00
        E 0 80 61 00
        E 120 90 3d 60
        E 0 90 49 60
        E 0 90 55 60
        E 0 90 61 60
        E 960 80 3d 00
        E 0 80 49 00
        E 0 80 55 00
        E 0 80 61 00
        E 480 90 55 60
        E 0 90 61 60
        E 120 80 2d 00
        E 0 80 55 00
        E 0 80 61 00
        E 120 90 2b 60
        E 0 90 4a 60
        E 0 90 56 60
        E 0 90 62 60
        E 120 80 4a 00
        E 0 80 56 00
        E 0 80 62 00
        E 120 90 3e 60
        E 0 90 4a 60
        E 0 90 56 60
        E 0 90 62 60
        E 960 80 3e 00
        E 0 80 4a 00
        E 0 80 56 00
        E 0 80 62 00
        E 480 90 62 60
        E 120 80 2b 00
        E 0 80 62 00
        E 119 90 2d 60
        E 1 90 49 60
        E 0 90 55 60
        E 0 90 61 60
        E 120 80 49 00
        E 0 80 55 00
        E 0 80 61 00
        E 120 90 3d 60
        E 0 90 49 60
        E 0 90 55 60
        E 0 90 61 60
        E 960 80 3d 00
        E 0 80 49 00
        E 0 80 55 00
        E 0 80 61 00
        E 480 90 55 60
        E 0 90 61 60
        E 120 80 2d 00
        E 0 80 55 00
        E 0 80 61 00
        E 120 90 2b 60
        E 0 90 4a 60
        E 0 90 56 60
        E 0 90 62 60
        E 120 80 4a 00
        E 0 80 56 00
        E 0 80 62 00
        E 120 90 3e 60
        E 0 90 4a 60
        E 0 90 56 60
        E 0 90 62 60
        E 960 80 3e 00
        E 0 80 4a 00
        E 0 80 56 00
        E 0 80 62 00
        E 480 90 62 60
        E 120 80 2b 00
        E 0 80 62 00
        E 120 90 2d 60
        E 0 90 49 60
        E 0 90 55 60
        E 0 90 61 60
        E 120 80 49 00
        E 0 80 55 00
        E 0 80 61 00
        E 120 90 3d 60
        E 0 90 49 60
        E 0 90 55 60
        E 0 90 61 60
        E 960 80 3d 00
        E 0 80 49 00
        E 0 80 55 00
        E 0 80 61 00
        E 480 90 55 60
        E 0 90 61 60
        E 120 80 2d 00
        E 0 80 55 00
        E 0 80 61 00
        E 120 90 2b 60
        E 0 90 4a 60
        E 0 90 56 60
        E 0 90 62 60
        E 120 80 4a 00
        E 0 80 56 00
        E 0 80 62 00
        E 120 90 3e 60
        E 0 90 4a 60
        E 0 90 56 60
        E 0 90 62 60
        E 960 80 3e 00
        E 0 80 4a 00
        E 0 80 56 00
        E 0 80 62 00
        E 480 90 62 60
        E 120 80 2b 00
        E 0 80 62 00
        E 119 90 2d 60
        E 1 90 49 60
        E 0 90 55 60
        E 0 90 61 60
        E 120 80 49 00
        E 0 80 55 00
        E 0 80 61 00
        E 120 90 3d 60
        E 0 90 49 60
        E 0 90 55 60
        E 0 90 61 60
        E 960 80 3d 00
        E 0 80 49 00
        E 0 80 55 00
        E 0 80 61 00
        E 480 90 55 60
        E 0 90 61 60
        E 120 80 2d 00
        E 0 80 55 00
        E 0 80 61 00
        E 120 90 2b 60
        E 0 90 4a 60
        E 0 90 56 60
        E 0 90 62 60
        E 120 80 4a 00
        E 0 80 56 00
        E 0 80 62 00
        E 120 90 3e 60
        E 0 90 4a 60
        E 0 90 56 60
        E 0 90 62 60
        E 960 80 3e 00
        E 0 80 4a 00
        E 0 80 56 00
        E 0 80 62 00
        E 480 90 62 60
        E 120 80 2b 00
        E 0 80 62 00
        E 120 90 2d 60
        E 0 90 49 60
        E 0 90 55 60
        E 0 90 61 60
        E 120 80 49 00
        E 0 80 55 00
        E 0 80 61 00
        E 120 90 3d 60
        E 0 90 49 60
        E 0 90 55 60
        E 0 90 61 60
        E 960 80 3d 00
        E 0 80 49 00
        E 0 80 55 00
        E 0 80 61 00
        E 480 90 55 60
        E 0 90 61 60
        E 120 80 2d 00
        E 0 80 55 00
        E 0 80 61 00
        E 120 90 2b 60
        E 0 90 4a 60
        E 0 90 56 60
        E 0 90 62 60
        E 120 80 4a 00
        E 0 80 56 00
        E 0 80 62 00
        E 120 90 3e 60
        E 0 90 4a 60
        E 0 90 56 60
        E 0 90 62 60
        E 960 80 3e 00
        E 0 80 4a 00
        E 0 80 56 00
        E 0 80 62 00
        E 480 90 62 60
        E 120 80 2b 00
        E 0 80 62 00
        E 119 90 2d 60
        E 1 90 49 60
        E 0 90 55 60
        E 0 90 61 60
        E 0 90 74 60
        E 120 80 49 00
        E 0 80 55 00
        E 0 80 61 00
        E 120 90 3d 60
        E 0 90 49 60
        E 0 90 55 60
        E 0 90 61 60
        E 960 80 3d 00
        E 0 80 49 00
        E 0 80 55 00
        E 0 80 61 00
        E 480 90 55 60
        E 0 90 61 60
        E 120 80 2d 00
        E 0 80 55 00
        E 0 80 61 00
        E 120 90 2b 60
        E 0 90 4a 60
        E 0 90 56 60
        E 0 90 62 60
        E 120 80 74 00
        E 0 80 4a 00
        E 0 80 56 00
        E 0 80 62 00
        E 120 90 3e 60
        E 0 90 4a 60
        E 0 90 56 60
        E 0 90 62 60
        E 960 80 3e 00
        E 0 80 4a 00
        E 0 80 56 00
        E 0 80 62 00
        E 480 90 62 60
        E 120 80 2b 00
        E 0 80 62 00
        E 120 90 2d 60
        E 0 90 4b 60
        E 0 90 57 60
        E 0 90 63 60
        E 120 80 4b 00
        E 0 80 57 00
        E 0 80 63 00
        E 120 90 3f 60
        E 0 90 4b 60
        E 0 90 57 60
        E 0 90 63 60
        E 960 80 3f 00
        E 0 80 4b 00
        E 0 80 57 00
        E 0 80 63 00
        E 480 90 57 60
        E 0 90 63 60
        E 120 80 2d 00
        E 0 80 57 00
        E 0 80 63 00
        E 120 90 31 60
        E 0 90 4c 60
        E 0 90 58 60
        E 0 90 64 60
        E 120 80 4c 00
        E 0 80 58 00
        E 0 80 64 00
        E 120 90 40 60
        E 0 90 4c 60
        E 0 90 58 60
        E 0 90 64 60
        E 960 80 40 00
        E 0 80 4c 00
        E 0 80 58 00
        E 0 80 64 00
        E 480 90 64 60
        E 120 80 31 00
        E 0 80 64 00
        E 120 90 28 60
        E 0 90 48 60
        E 0 90 54 60
        E 0 90 60 60
        E 120 80 48 00
        E 0 80 54 00
        E 0 80 60 00
        E 120 90 3c 60
        E 0 90 48 60
        E 0 90 54 60
        E 0 90 60 60
        E 960 80 3c 00
        E 0 80 48 00
        E 0 80 54 00
        E 0 80 60 00
        E 480 90 54 60
        E 0 90 60 60
        E 120 80 28 00
        E 0 80 54 00
        E 0 80 60 00
        E 120 90 31 60
        E 0 90 4a 60
        E 0 90 56 60
        E 0 90 62 60
        E 120 80 4a 00
        E 0 80 56 00
        E 0 80 62 00
        E 120 90 3e 60
        E 0 90 4a 60
        E 0 90 56 60
        E 0 90 62 60
        E 960 80 3e 00
        E 0 80 4a 00
        E 0 80 56 00
        E 0 80 62 00
        E 480 90 62 60
        E 120 80 31 00
        E 0 80 62 00
        E 120 90 2d 60
        E 0 90 49 60
        E 0 90 55 60
        E 0 90 61 60
        E 120 80 49 00
        E 0 80 55 00
        E 0 80 61 00
        E 120 90 3d 60
        E 0 90 49 60
        E 0 90 55 60
        E 0 90 61 60
        E 960 80 3d 00
        E 0 80 49 00
        E 0 80 55 00
        E 0 80 61 00
        E 480 90 55 60
        E 0 90 61 60
        E 120 80 55 00
        E 0 80 61 00
        E 120 90 49 60
        E 0 90 55 60
        E 0 90 61 60
        E 120 80 49 00
        E 0 80 55 00
        E 0 80 61 00
        E 120 90 3d 60
        E 0 90 49 60
        E 0 90 55 60
        E 0 90 61 60
        E 960 80 3d 00
        E 0 80 49 00
        E 0 80 55 00
        E 0 80 61 00
        E 480 90 55 60
        E 0 90 61 60
        E 120 80 55 00
        E 0 80 61 00
        E 120 90 49 60
        E 0 90 55 60
        E 0 90 61 60
        E 120 80 49 00
        E 0 80 55 00
        E 0 80 61 00
        E 120 90 3d 60
        E 0 90 49 60
        E 0 90 55 60
        E 0 90 61 60
        E 960 80 3d 00
        E 0 80 49 00
        E 0 80 55 00
        E 0 80 61 00
        E 480 90 55 60
        E 0 90 61 60
        E 120 80 55 00
        E 0 80 61 00
        E 120 90 49 60
        E 0 90 55 60
        E 0 90 61 60
        E 120 80 49 00
        E 0 80 55 00
        E 0 80 61 00
        E 120 90 3d 60
        E 0 90 49 60
        E 0 90 55 60
        E 0 90 61 60
        E 960 80 3d 00
        E 0 80 49 00
        E 0 80 55 00
        E 0 80 61 00
        E 480 90 55 60
        E 0 90 61 60
        E 120 80 55 00
        E 0 80 61 00
        E 120 90 49 60
        E 0 90 55 60
        E 0 90 61 60
        E 120 80 49 00
        E 0 80 55 00
        E 0 80 61 00
        E 120 90 3d 60
        E 0 90 49 60
        E 0 90 55 60
        E 0 90 61 60
        E 960 80 3d 00
        E 0 80 49 00
        E 0 80 55 00
        E 0 80 61 00
        E 480 90 55 60
        E 0 90 61 60
        E 120 80 55 00
        E 0 80 61 00
        E 120 90 49 60
        E 0 90 55 60
        E 0 90 61 60
        E 120 80 49 00
        E 0 80 55 00
        E 0 80 61 00
        E 120 90 3d 60
        E 0 90 49 60
        E 0 90 55 60
        E 0 90 61 60
        E 960 80 3d 00
        E 0 80 49 00
        E 0 80 55 00
        E 0 80 61 00
        E 480 90 55 60
        E 0 90 61 60
        E 120 80 55 00
        E 0 80 61 00
        E 120 90 49 60
        E 0 90 55 60
        E 0 90 61 60
        E 120 80 49 00
        E 0 80 55 00
        E 0 80 61 00
        E 120 90 3d 60
        E 0 90 49 60
        E 0 90 55 60
        E 0 90 61 60
        E 960 80 3d 00
        E 0 80 49 00
        E 0 80 55 00
        E 0 80 61 00
        E 480 90 55 60
        E 0 90 61 60
        E 120 80 55 00
        E 0 80 61 00
        E 120 90 49 60
        E 0 90 55 60
        E 0 90 61 60
        E 120 80 49 00
        E 0 80 55 00
        E 0 80 61 00
        E 120 90 3d 60
        E 0 90 49 60
        E 0 90 55 60
        E 0 90 61 60
        E 960 80 3d 00
        E 0 80 49 00
        E 0 80 55 00
        E 0 80 61 00
        E 240 80 2d 00
        <X 240 0
          /wFbaWRsZV9yZWFsdGltZV0=
        >
        E 2160 b0 7b 00
        GUID {7B8FED4F-EAD2-41AB-9824-AB907048A4A8}
        IGNTEMPO 0 120.00000000 4 4
        SRCCOLOR 30
        VELLANE 132 128 128
        COLORMAP "C:\Program Files\REAPER (x64)\Data\color_maps\rockband_guitarbass.png"
        TEXTSTRINGFILE "C:\Program Files\REAPER (x64)\Data\Text_Strings\Text Events List - Instruments.txt"
        CFGEDITVIEW -7366.912665 6.865074 0 12 0 0 0
        CFGEDIT 1 1 0 1 1 0 1 1 1 1 1 0.25000000 -8 -8 1548 876 0 2 1 1 0.00000000 0 1 0 0 0.500000 0 0 1.000000 64
        KEYSNAP 0 9 "102034050607" 0 "Major"
        EVTFILTER 0 -1 -1 -1 -1 0 1 0 0 -1.00000000 -1.00000000
      >
    >
  >
  <TRACK '{2929567D-7839-4017-A795-30101381C420}'
    NAME "PART VOCALS"
    PEAKCOL 16576
    BEAT -1
    AUTOMODE 0
    VOLPAN 0.20605672693729 0.00000000000000 -1.00000000000000 -1.00000000000000 1.00000000000000
    MUTESOLO 0 0 0
    IPHASE 0
    ISBUS 1 1
    BUSCOMP 0 0
    SHOWINMIX 1 0.666700 0.500000 1 0.500000 -1 -1 -1
    FREEMODE 0
    SEL 0
    REC 0 0 0 0 0 0 0
    VU 2
    TRACKHEIGHT 0 0
    INQ 0 0 0 0.5000000000 100 0 0 100
    NCHAN 2
    FX 0
    TRACKID {2929567D-7839-4017-A795-30101381C420}
    PERF 0
    MIDIOUT -1
    <MIDINOTENAMES
      0 116 "OVERDRIVE"
      0 115 "----"
      0 105 "Phrase Marker"
      0 104 "----"
      0 97 "Non-Displayed Percussion"
      0 96 "Displayed Percussion"
      0 95 "----"
      0 84 "UNUSED C5 Note"
      0 83 "Highest Note B4"
      0 82 "A#4"
      0 81 "A4"
      0 80 "G#4"
      0 79 "G4"
      0 78 "F#4"
      0 77 "F4"
      0 76 "E4"
      0 75 "D#4"
      0 74 "D4"
      0 73 "C#4"
      0 72 "C4"
      0 71 "B3"
      0 70 "A#3"
      0 69 "A3"
      0 68 "G#3"
      0 67 "G3"
      0 66 "F#3"
      0 65 "F3"
      0 64 "E3"
      0 63 "D#3"
      0 62 "D3"
      0 61 "C#3"
      0 60 "C3"
      0 59 "B2"
      0 58 "A#2"
      0 57 "A2"
      0 56 "G#2"
      0 55 "G2"
      0 54 "F#2"
      0 53 "F2"
      0 52 "E2"
      0 51 "D#2"
      0 50 "D2"
      0 49 "C#2"
      0 48 "C2"
      0 47 "B1"
      0 46 "A#1"
      0 45 "A1"
      0 44 "G#1"
      0 43 "G1"
      0 42 "F#1"
      0 41 "F1"
      0 40 "E1"
      0 39 "D#1"
      0 38 "D!"
      0 37 "C#1"
      0 36 "Lowest Note C1"
      0 2 "---"
      0 1 "Lyric Shift"
      0 0 "Range Shift"
    >
    MAINSEND 1 0
    <FXCHAIN
      WNDRECT 0 43 729 467
      SHOW 0
      LASTSEL 0
      DOCKED 0
    >
    <ITEM
      POSITION 0.00000000000000
      SNAPOFFS 0.00000000000000
      LENGTH 163.46881417504329
      LOOP 0
      ALLTAKES 0
      SEL 0
      FADEIN 1 0.000000 0.000000 1 0
      FADEOUT 1 0.000000 0.000000 1 0
      MUTE 0
      IGUID {883B4A67-7D77-4809-B9C6-36297118F62C}
      IID 2
      NAME "PART VOCALS"
      VOLPAN 1.000000 0.000000 1.000000 -1.000000
      SOFFS 0.00000000000000 0.00000000000000
      PLAYRATE 1.00000000000000 1 0.00000000000000 -1
      CHANMODE 0
      GUID {0DAA17D5-3FCE-4640-82CF-BC207A365B10}
      <SOURCE MIDI
        HASDATA 1 480 QN
        POOLEDEVTS {431E8A50-A56F-46E3-97E8-10C6192D7011}
        <X 0 0
          /wNQQVJUIFZPQ0FMUw==
        >
        <X 3840 0
          /wFbaWRsZV0=
        >
        <X 7680 0
          /wFbcGxheV0=
        >
        E 0 90 69 60
        <X 480 0
          /wVTaGU=
        >
        E 0 90 47 60
        E 150 80 47 00
        <X 90 0
          /wVyZS0=
        >
        E 0 90 47 60
        E 75 80 47 00
        <X 45 0
          /wVtZW0t
        >
        E 0 90 48 60
        E 285 80 48 00
        <X 75 0
          /wViZXJlZA==
        >
        E 0 90 47 60
        E 165 80 47 00
        <X 75 0
          /wVhbGw=
        >
        E 0 90 45 60
        E 165 80 45 00
        <X 75 0
          /wV0aGU=
        >
        E 0 90 43 60
        E 150 80 43 00
        <X 90 0
          /wVzaGFkLQ==
        >
        E 0 90 47 60
        E 180 80 47 00
        <X 60 0
          /wVvd3M=
        >
        E 0 90 47 60
        E 180 80 47 00
        <X 60 0
          /wVhbmQ=
        >
        E 0 90 47 60
        E 165 80 47 00
        <X 75 0
          /wV0aGU=
        >
        E 0 90 47 60
        E 60 80 47 00
        <X 60 0
          /wVkb3VidHM=
        >
        E 0 90 47 60
        E 285 80 47 00
        E 30 80 69 00
        E 285 90 69 60
        E 0 90 74 60
        <X 240 0
          /wVUaGU=
        >
        E 0 90 43 60
        E 165 80 43 00
        <X 75 0
          /wVzYW1l
        >
        E 0 90 47 60
        E 615 80 47 00
        <X 105 0
          /wVmaWxt
        >
        E 0 90 43 60
        E 690 80 43 00
        E 30 80 69 00
        E 0 80 74 00
        E 2400 90 69 60
        <X 480 0
          /wVWaXYt
        >
        E 0 90 47 60
        E 105 80 47 00
        <X 15 0
          /wVpZA==
        >
        E 0 90 47 60
        E 90 80 47 00
        <X 150 0
          /wVwaWMt
        >
        E 0 90 48 60
        E 180 80 48 00
        <X 180 0
          /wV0dXJlcw==
        >
        E 0 90 47 60
        E 135 80 47 00
        <X 105 0
          /wVsaWtl
        >
        E 0 90 45 60
        E 165 80 45 00
        <X 75 0
          /wVh
        >
        E 0 90 43 60
        E 75 80 43 00
        <X 45 0
          /wV3YWxs
        >
        E 0 90 45 60
        E 90 80 45 00
        <X 30 0
          /wUr
        >
        E 0 90 47 60
        E 165 80 47 00
        <X 75 0
          /wV0aGF0J3M=
        >
        E 0 90 47 60
        E 135 80 47 00
        <X 105 0
          /wVzdGFuZC0=
        >
        E 0 90 47 60
        E 210 80 47 00
        <X 30 0
          /wVpbmc=
        >
        E 0 90 47 60
        E 75 80 47 00
        <X 45 0
          /wVlbXAt
        >
        E 0 90 47 60
        E 75 80 47 00
        <X 30 0
          /wUr
        >
        E 0 90 48 60
        E 180 80 48 00
        <X 75 0
          /wV0eQ==
        >
        E 0 90 47 60
        E 180 80 47 00
        E 30 80 69 00
        E 0 90 69 60
        <X 30 0
          /wVBbmQ=
        >
        E 0 90 45 60
        E 180 80 45 00
        <X 60 0
          /wV0aGU=
        >
        E 0 90 43 60
        E 120 80 43 00
        <X 120 0
          /wVuaWdodA==
        >
        E 0 90 45 60
        E 90 80 45 00
        <X 30 0
          /wUr
        >
        E 0 90 47 60
        E 180 80 47 00
        <X 180 0
          /wVzbw==
        >
        E 0 90 47 60
        E 105 80 47 00
        <X 135 0
          /wVzdGlsbA==
        >
        E 0 90 43 60
        E 375 80 43 00
        E 345 80 69 00
        E 2400 90 69 60
        <X 480 0
          /wVTdWNo
        >
        E 0 90 3e 60
        E 135 80 3e 00
        <X 105 0
          /wVh
        >
        E 0 90 3e 60
        E 60 80 3e 00
        <X 60 0
          /wVzbWFsbA==
        >
        E 0 90 43 60
        E 315 80 43 00
        <X 45 0
          /wVhZi0=
        >
        E 0 90 43 60
        E 105 80 43 00
        <X 135 0
          /wVmYWly
        >
        E 0 90 3e 60
        E 225 80 3e 00
        <X 15 0
          /wVh
        >
        E 0 90 3e 60
        E 210 80 3e 00
        <X 30 0
          /wVyZS0=
        >
        E 0 90 47 60
        E 195 80 47 00
        <X 45 0
          /wVsYXBzZQ==
        >
        E 0 90 47 60
        E 105 80 47 00
        <X 135 0
          /wVzb21lLQ==
        >
        E 0 90 43 60
        E 195 80 43 00
        <X 45 0
          /wVvbmU=
        >
        E 0 90 43 60
        E 135 80 43 00
        <X 105 0
          /wVjbG9zLQ==
        >
        E 0 90 47 60
        E 180 80 47 00
        <X 60 0
          /wVpbmc=
        >
        E 0 90 47 60
        E 90 80 47 00
        E 30 80 69 00
        E 90 90 69 60
        E 0 90 74 60
        <X 30 0
          /wVMaWtl
        >
        E 0 90 43 60
        E 165 80 43 00
        <X 75 0
          /wV0aGU=
        >
        E 0 90 43 60
        E 105 80 43 00
        <X 135 0
          /wVuaWdodC0=
        >
        E 0 90 47 60
        E 195 80 47 00
        <X 285 0
          /wVjbHVi
        >
        E 0 90 48 60
        E 150 80 48 00
        <X 90 0
          /wVkb29y
        >
        E 0 90 4a 60
        E 375 80 4a 00
        E 345 80 69 00
        E 0 80 74 00
        E 2400 90 69 60
        <X 480 0
          /wVIZXJl
        >
        E 0 90 47 60
        E 180 80 47 00
        <X 60 0
          /wVhLQ==
        >
        E 0 90 47 60
        E 60 80 47 00
        <X 60 0
          /wVnYWlu
        >
        E 0 90 48 60
        E 285 80 48 00
        <X 75 0
          /wVhbmQ=
        >
        E 0 90 47 60
        E 150 80 47 00
        <X 90 0
          /wV3aGVu
        >
        E 0 90 45 60
        E 135 80 45 00
        <X 105 0
          /wV5b3U=
        >
        E 0 90 43 60
        E 105 80 43 00
        <X 135 0
          /wVzcGVhaw==
        >
        E 0 90 47 60
        E 135 80 47 00
        <X 105 0
          /wVJ
        >
        E 0 90 47 60
        E 180 80 47 00
        <X 60 0
          /wV3YXRjaA==
        >
        E 0 90 47 60
        E 120 80 47 00
        <X 120 0
          /wV5b3U=
        >
        E 0 90 47 60
        E 60 80 47 00
        <X 60 0
          /wVtb3Zl
        >
        E 0 90 48 60
        E 315 80 48 00
        <X 45 0
          /wVhLQ==
        >
        E 0 90 47 60
        E 165 80 47 00
        <X 75 0
          /wV3YXk=
        >
        E 0 90 45 60
        E 180 80 45 00
        E 30 80 69 00
        E 0 90 69 60
        E 0 90 74 60
        <X 30 0
          /wVBbmQ=
        >
        E 0 90 43 60
        E 135 80 43 00
        <X 105 0
          /wVzZWVt
        >
        E 0 90 47 60
        E 225 80 47 00
        <X 255 0
          /wVzbw==
        >
        E 0 90 47 60
        E 135 80 47 00
        <X 105 0
          /wVzdXJl
        >
        E 0 90 43 60
        E 420 80 43 00
        E 300 80 69 00
        E 0 80 74 00
        <X 180 0
          /wFbaWRsZV0=
        >
        <X 17580 0
          /wFbcGxheV0=
        >
        E 0 90 69 60
        <X 480 0
          /wVTaGU=
        >
        E 0 90 47 60
        E 150 80 47 00
        <X 90 0
          /wVpcw==
        >
        E 0 90 47 60
        E 75 80 47 00
        <X 45 0
          /wVob3At
        >
        E 0 90 48 60
        E 285 80 48 00
        <X 75 0
          /wVpbmc=
        >
        E 0 90 47 60
        E 165 80 47 00
        <X 75 0
          /wV0bw==
        >
        E 0 90 45 60
        E 165 80 45 00
        <X 75 0
          /wVmb3It
        >
        E 0 90 43 60
        E 75 80 43 00
        <X 45 0
          /wVnZXQ=
        >
        E 0 90 47 60
        E 300 80 47 00
        E 30 80 69 00
        E 240 90 69 60
        E 0 90 74 60
        <X 30 0
          /wVBbmQ=
        >
        E 0 90 47 60
        E 165 80 47 00
        <X 75 0
          /wV0aGU=
        >
        E 0 90 47 60
        E 60 80 47 00
        <X 60 0
          /wVtby0=
        >
        E 0 90 48 60
        E 285 80 48 00
        <X 60 0
          /wVtZW50
        >
        E 0 90 47 60
        E 195 80 47 00
        <X 60 0
          /wVhbC0=
        >
        E 0 90 45 60
        E 135 80 45 00
        <X 105 0
          /wVtb3N0
        >
        E 0 90 43 60
        E 165 80 43 00
        <X 75 0
          /wVzbGlwcw==
        >
        E 0 90 47 60
        E 240 80 47 00
        <X 240 0
          /wVhLQ==
        >
        E 0 90 47 60
        E 165 80 47 00
        <X 75 0
          /wV3YXk=
        >
        E 0 90 43 60
        E 525 80 43 00
        E 195 80 69 00
        E 0 80 74 00
        E 2400 90 69 60
        <X 480 0
          /wVXaGVu
        >
        E 0 90 47 60
        E 165 80 47 00
        <X 75 0
          /wV0aGU=
        >
        E 0 90 47 60
        E 60 80 47 00
        <X 60 0
          /wVjb2wt
        >
        E 0 90 48 60
        E 285 80 48 00
        <X 75 0
          /wVvdXJz
        >
        E 0 90 47 60
        E 135 80 47 00
        <X 105 0
          /wVtb3Zl
        >
        E 0 90 45 60
        E 165 80 45 00
        <X 75 0
          /wVhLQ==
        >
        E 0 90 43 60
        E 75 80 43 00
        <X 45 0
          /wVwYXJ0
        >
        E 0 90 45 60
        E 60 80 45 00
        <X 60 0
          /wUr
        >
        E 0 90 47 60
        E 165 80 47 00
        E 30 80 69 00
        E 255 90 69 60
        <X 30 0
          /wVBbmQ=
        >
        E 0 90 47 60
        E 150 80 47 00
        <X 90 0
          /wVJ
        >
        E 0 90 47 60
        E 150 80 47 00
        <X 75 0
          /wV3b24t
        >
        E 0 90 48 60
        E 180 80 48 00
        <X 75 0
          /wVkZXI=
        >
        E 0 90 47 60
        E 180 80 47 00
        <X 60 0
          /wVpZg==
        >
        E 0 90 45 60
        E 120 80 45 00
        <X 120 0
          /wV5b3U=
        >
        E 0 90 43 60
        E 120 80 43 00
        <X 120 0
          /wV3YW50
        >
        E 0 90 45 60
        E 90 80 45 00
        <X 30 0
          /wUr
        >
        E 0 90 47 60
        E 180 80 47 00
        <X 180 0
          /wV0bw==
        >
        E 0 90 47 60
        E 105 80 47 00
        <X 135 0
          /wVzdGF5
        >
        E 0 90 43 60
        E 375 80 43 00
        E 345 80 69 00
        E 2400 90 69 60
        E 0 90 74 60
        <X 480 0
          /wVBbmQ=
        >
        E 0 90 3e 60
        E 135 80 3e 00
        <X 105 0
          /wVJ
        >
        E 0 90 3e 60
        E 135 80 3e 00
        <X 105 0
          /wVuZWVk
        >
        E 0 90 43 60
        E 135 80 43 00
        <X 105 0
          /wV0bw==
        >
        E 0 90 43 60
        E 75 80 43 00
        <X 45 0
          /wVjaGFuZ2U=
        >
        E 0 90 3e 60
        E 285 80 3e 00
        <X 75 0
          /wV5b3U=
        >
        E 0 90 3e 60
        E 210 80 3e 00
        <X 30 0
          /wVsaWtl
        >
        E 0 90 47 60
        E 180 80 47 00
        <X 60 0
          /wV0aGU=
        >
        E 0 90 47 60
        E 75 80 47 00
        <X 45 0
          /wV3b3Jkcw==
        >
        E 0 90 43 60
        E 240 80 43 00
        <X 120 0
          /wVJJ20=
        >
        E 0 90 43 60
        E 165 80 43 00
        <X 75 0
          /wVyZWFkLQ==
        >
        E 0 90 47 60
        E 180 80 47 00
        <X 60 0
          /wVpbmc=
        >
        E 0 90 47 60
        E 135 80 47 00
        E 30 80 69 00
        E 0 80 74 00
        E 45 90 69 60
        <X 30 0
          /wVEb24ndA==
        >
        E 0 90 43 60
        E 165 80 43 00
        <X 75 0
          /wV5b3U=
        >
        E 0 90 43 60
        E 105 80 43 00
        <X 135 0
          /wV1bi0=
        >
        E 0 90 47 60
        E 390 80 47 00
        <X 90 0
          /wVkZXIt
        >
        E 0 90 48 60
        E 150 80 48 00
        <X 90 0
          /wVzdGFuZD8=
        >
        E 0 90 4a 60
        E 525 80 4a 00
        E 195 80 69 00
        E 2400 90 69 60
        <X 480 0
          /wVUaGlz
        >
        E 0 90 47 60
        E 180 80 47 00
        <X 60 0
          /wV0aGU=
        >
        E 0 90 47 60
        E 60 80 47 00
        <X 60 0
          /wV3YXJuLQ==
        >
        E 0 90 48 60
        E 285 80 48 00
        <X 75 0
          /wVpbmc=
        >
        E 0 90 47 60
        E 195 80 47 00
        <X 45 0
          /wVhbmQ=
        >
        E 0 90 45 60
        E 195 80 45 00
        <X 45 0
          /wV0aGU=
        >
        E 0 90 43 60
        E 90 80 43 00
        <X 30 0
          /wVtZXMt
        >
        E 0 90 47 60
        E 255 80 47 00
        <X 105 0
          /wVzYWdl
        >
        E 0 90 47 60
        E 150 80 47 00
        <X 90 0
          /wVJ
        >
        E 0 90 47 60
        E 120 80 47 00
        <X 120 0
          /wVyZS0=
        >
        E 0 90 47 60
        E 60 80 47 00
        <X 60 0
          /wVtZW0t
        >
        E 0 90 48 60
        E 315 80 48 00
        <X 45 0
          /wViZXI=
        >
        E 0 90 47 60
        E 165 80 47 00
        E 30 80 69 00
        E 15 90 69 60
        <X 30 0
          /wVBcw==
        >
        E 0 90 45 60
        E 180 80 45 00
        <X 60 0
          /wV5b3U=
        >
        E 0 90 43 60
        E 135 80 43 00
        <X 105 0
          /wV0b3VjaA==
        >
        E 0 90 47 60
        E 255 80 47 00
        <X 225 0
          /wVteQ==
        >
        E 0 90 47 60
        E 135 80 47 00
        <X 105 0
          /wVoYW5k
        >
        E 0 90 43 60
        E 510 80 43 00
        E 210 80 69 00
        <X 270 0
          /wFbaWRsZV9yZWFsdGltZV0=
        >
        E 27090 b0 7b 00
        GUID {537B9D60-3981-4BD2-8A25-14DB07650D5C}
        IGNTEMPO 0 120.00000000 4 4
        SRCCOLOR 0
        VELLANE 132 71 60
        COLORMAP "C:\Program Files (x86)\REAPER\Data\color_maps\rockband_guitarbass.png"
        CFGEDITVIEW -7366.912665 6.865074 2 12 0 0 0
        CFGEDIT 1 1 0 1 1 0 1 1 1 1 1 0.03125000 -8 -8 1548 876 0 2 1 1 0.00000000 0 1 0 0 0.500000 0 0 1.000000 64
        KEYSNAP 1 7 "102034050607" 0 "Major"
        EVTFILTER 0 -1 -1 -1 -1 0 1 0 0 -1.00000000 -1.00000000
      >
    >
  >
  <TRACK '{CBAB291F-D277-402D-A9CE-FCEDF9733D4E}'
    NAME "HARM1"
    PEAKCOL 16576
    BEAT -1
    AUTOMODE 0
    VOLPAN 0.20369801508874 0.00000000000000 -1.00000000000000 -1.00000000000000 1.00000000000000
    MUTESOLO 0 0 0
    IPHASE 0
    ISBUS 0 0
    BUSCOMP 0 0
    SHOWINMIX 1 0.666700 0.500000 1 0.500000 -1 -1 -1
    FREEMODE 0
    SEL 0
    REC 0 0 0 0 0 0 0
    VU 2
    TRACKHEIGHT 0 0
    INQ 0 0 0 0.5000000000 100 0 0 100
    NCHAN 2
    FX 0
    TRACKID {CBAB291F-D277-402D-A9CE-FCEDF9733D4E}
    PERF 0
    MIDIOUT -1
    <MIDINOTENAMES
      0 116 "OVERDRIVE"
      0 115 "----"
      0 105 "Phrase Marker"
      0 104 "----"
      0 97 "Non-Displayed Percussion"
      0 96 "Displayed Percussion"
      0 95 "----"
      0 84 "UNUSED C5 Note"
      0 83 "Highest Note B4"
      0 82 "A#4"
      0 81 "A4"
      0 80 "G#4"
      0 79 "G4"
      0 78 "F#4"
      0 77 "F4"
      0 76 "E4"
      0 75 "D#4"
      0 74 "D4"
      0 73 "C#4"
      0 72 "C4"
      0 71 "B3"
      0 70 "A#3"
      0 69 "A3"
      0 68 "G#3"
      0 67 "G3"
      0 66 "F#3"
      0 65 "F3"
      0 64 "E3"
      0 63 "D#3"
      0 62 "D3"
      0 61 "C#3"
      0 60 "C3"
      0 59 "B2"
      0 58 "A#2"
      0 57 "A2"
      0 56 "G#2"
      0 55 "G2"
      0 54 "F#2"
      0 53 "F2"
      0 52 "E2"
      0 51 "D#2"
      0 50 "D2"
      0 49 "C#2"
      0 48 "C2"
      0 47 "B1"
      0 46 "A#1"
      0 45 "A1"
      0 44 "G#1"
      0 43 "G1"
      0 42 "F#1"
      0 41 "F1"
      0 40 "E1"
      0 39 "D#1"
      0 38 "D!"
      0 37 "C#1"
      0 36 "Lowest Note C1"
      0 2 "---"
      0 1 "Lyric Shift"
      0 0 "Range Shift"
    >
    MAINSEND 1 0
    <FXCHAIN
      WNDRECT 0 43 655 467
      SHOW 0
      LASTSEL 1
      DOCKED 0
      BYPASS 0 0
      <JS "MIDI/midi_note_filter" ""
        36.000000 84.000000 - - - - - - - - - - - - - - - - - - - - - - - - - - - - - - - - - - - - - - - - - - - - - - - - - - - - - - - - - - - - - - 
      >
      FLOATPOS 0 0 0 0
      FXID {7A7F9E86-D9A3-45B2-A29D-E3E42765F698}
      WAK 0
      BYPASS 0 0
      <VST "VSTi: ReaSynth (Cockos)" "reasynth.dll" 0 ""
        eXNlcu9e7f4AAAAAAgAAAAEAAAAAAAAAAgAAAAAAAAA4AAAAAAAAAA==
        AAAQAO++rd4N8K3eppvEOxe30ToAAIA/AAAAAAAAAADMm4A+6WeIPQ==
        AAAAAAAAAD8AAIA/AACAPwAAAD8AABAAAAA=
      >
      FLOATPOS 0 0 0 0
      FXID {92C98E80-7B9B-47D3-BAC7-001EC4227541}
      WAK 0
    >
    <ITEM
      POSITION 0.00000000000000
      SNAPOFFS 0.00000000000000
      LENGTH 163.46881417504329
      LOOP 0
      ALLTAKES 0
      SEL 0
      FADEIN 1 0.000000 0.000000 1 0
      FADEOUT 1 0.000000 0.000000 1 0
      MUTE 0
      IGUID {883B4A67-7D77-4809-B9C6-36297118F62C}
      IID 2
      NAME "HARM1"
      VOLPAN 1.000000 0.000000 1.000000 -1.000000
      SOFFS 0.00000000000000 0.00000000000000
      PLAYRATE 1.00000000000000 1 0.00000000000000 -1
      CHANMODE 0
      GUID {0DAA17D5-3FCE-4640-82CF-BC207A365B10}
      <SOURCE MIDI
        HASDATA 1 480 QN
        POOLEDEVTS {DEF9F567-691C-4E5D-B746-12DBEB149256}
        <X 0 0
          /wNIQVJNMQ==
        >
        E 11520 90 69 60
        <X 480 0
          /wVTaGU=
        >
        E 0 90 47 60
        E 150 80 47 00
        <X 90 0
          /wVyZS0=
        >
        E 0 90 47 60
        E 75 80 47 00
        <X 45 0
          /wVtZW0t
        >
        E 0 90 48 60
        E 285 80 48 00
        <X 75 0
          /wViZXJlZA==
        >
        E 0 90 47 60
        E 165 80 47 00
        <X 75 0
          /wVhbGw=
        >
        E 0 90 45 60
        E 165 80 45 00
        <X 75 0
          /wV0aGU=
        >
        E 0 90 43 60
        E 150 80 43 00
        <X 90 0
          /wVzaGFkLQ==
        >
        E 0 90 47 60
        E 180 80 47 00
        <X 60 0
          /wVvd3M=
        >
        E 0 90 47 60
        E 180 80 47 00
        <X 60 0
          /wVhbmQ=
        >
        E 0 90 47 60
        E 165 80 47 00
        <X 75 0
          /wV0aGU=
        >
        E 0 90 47 60
        E 60 80 47 00
        <X 60 0
          /wVkb3VidHM=
        >
        E 0 90 47 60
        E 285 80 47 00
        E 30 80 69 00
        E 285 90 69 60
        E 0 90 74 60
        <X 240 0
          /wVUaGU=
        >
        E 0 90 43 60
        E 165 80 43 00
        <X 75 0
          /wVzYW1l
        >
        E 0 90 47 60
        E 615 80 47 00
        <X 105 0
          /wVmaWxt
        >
        E 0 90 43 60
        E 690 80 43 00
        E 30 80 69 00
        E 0 80 74 00
        E 2400 90 69 60
        <X 480 0
          /wVWaXYt
        >
        E 0 90 47 60
        E 105 80 47 00
        <X 15 0
          /wVpZA==
        >
        E 0 90 47 60
        E 90 80 47 00
        <X 150 0
          /wVwaWMt
        >
        E 0 90 48 60
        E 180 80 48 00
        <X 180 0
          /wV0dXJlcw==
        >
        E 0 90 47 60
        E 135 80 47 00
        <X 105 0
          /wVsaWtl
        >
        E 0 90 45 60
        E 165 80 45 00
        <X 75 0
          /wVh
        >
        E 0 90 43 60
        E 75 80 43 00
        <X 45 0
          /wV3YWxs
        >
        E 0 90 45 60
        E 90 80 45 00
        <X 30 0
          /wUr
        >
        E 0 90 47 60
        E 165 80 47 00
        <X 75 0
          /wV0aGF0J3M=
        >
        E 0 90 47 60
        E 135 80 47 00
        <X 105 0
          /wVzdGFuZC0=
        >
        E 0 90 47 60
        E 210 80 47 00
        <X 30 0
          /wVpbmc=
        >
        E 0 90 47 60
        E 75 80 47 00
        <X 45 0
          /wVlbXAt
        >
        E 0 90 47 60
        E 75 80 47 00
        <X 30 0
          /wUr
        >
        E 0 90 48 60
        E 180 80 48 00
        <X 75 0
          /wV0eQ==
        >
        E 0 90 47 60
        E 180 80 47 00
        E 30 80 69 00
        E 0 90 69 60
        <X 30 0
          /wVBbmQ=
        >
        E 0 90 45 60
        E 180 80 45 00
        <X 60 0
          /wV0aGU=
        >
        E 0 90 43 60
        E 120 80 43 00
        <X 120 0
          /wVuaWdodA==
        >
        E 0 90 45 60
        E 90 80 45 00
        <X 30 0
          /wUr
        >
        E 0 90 47 60
        E 180 80 47 00
        <X 180 0
          /wVzbw==
        >
        E 0 90 47 60
        E 105 80 47 00
        <X 135 0
          /wVzdGlsbA==
        >
        E 0 90 43 60
        E 375 80 43 00
        E 345 80 69 00
        E 2400 90 69 60
        <X 480 0
          /wVTdWNo
        >
        E 0 90 3e 60
        E 135 80 3e 00
        <X 105 0
          /wVh
        >
        E 0 90 3e 60
        E 60 80 3e 00
        <X 60 0
          /wVzbWFsbA==
        >
        E 0 90 43 60
        E 315 80 43 00
        <X 45 0
          /wVhZi0=
        >
        E 0 90 43 60
        E 105 80 43 00
        <X 135 0
          /wVmYWly
        >
        E 0 90 3e 60
        E 225 80 3e 00
        <X 15 0
          /wVh
        >
        E 0 90 3e 60
        E 210 80 3e 00
        <X 30 0
          /wVyZS0=
        >
        E 0 90 47 60
        E 195 80 47 00
        <X 45 0
          /wVsYXBzZQ==
        >
        E 0 90 47 60
        E 105 80 47 00
        <X 135 0
          /wVzb21lLQ==
        >
        E 0 90 43 60
        E 195 80 43 00
        <X 45 0
          /wVvbmU=
        >
        E 0 90 43 60
        E 135 80 43 00
        <X 105 0
          /wVjbG9zLQ==
        >
        E 0 90 47 60
        E 180 80 47 00
        <X 60 0
          /wVpbmc=
        >
        E 0 90 47 60
        E 90 80 47 00
        E 30 80 69 00
        E 90 90 69 60
        E 0 90 74 60
        <X 30 0
          /wVMaWtl
        >
        E 0 90 43 60
        E 165 80 43 00
        <X 75 0
          /wV0aGU=
        >
        E 0 90 43 60
        E 105 80 43 00
        <X 135 0
          /wVuaWdodC0=
        >
        E 0 90 47 60
        E 195 80 47 00
        <X 285 0
          /wVjbHVi
        >
        E 0 90 48 60
        E 150 80 48 00
        <X 90 0
          /wVkb29y
        >
        E 0 90 4a 60
        E 375 80 4a 00
        E 345 80 69 00
        E 0 80 74 00
        E 2400 90 69 60
        <X 480 0
          /wVIZXJl
        >
        E 0 90 47 60
        E 180 80 47 00
        <X 60 0
          /wVhLQ==
        >
        E 0 90 47 60
        E 60 80 47 00
        <X 60 0
          /wVnYWlu
        >
        E 0 90 48 60
        E 285 80 48 00
        <X 75 0
          /wVhbmQ=
        >
        E 0 90 47 60
        E 150 80 47 00
        <X 90 0
          /wV3aGVu
        >
        E 0 90 45 60
        E 135 80 45 00
        <X 105 0
          /wV5b3U=
        >
        E 0 90 43 60
        E 105 80 43 00
        <X 135 0
          /wVzcGVhaw==
        >
        E 0 90 47 60
        E 135 80 47 00
        <X 105 0
          /wVJ
        >
        E 0 90 47 60
        E 180 80 47 00
        <X 60 0
          /wV3YXRjaA==
        >
        E 0 90 47 60
        E 120 80 47 00
        <X 120 0
          /wV5b3U=
        >
        E 0 90 47 60
        E 60 80 47 00
        <X 60 0
          /wVtb3Zl
        >
        E 0 90 48 60
        E 315 80 48 00
        <X 45 0
          /wVhLQ==
        >
        E 0 90 47 60
        E 165 80 47 00
        <X 75 0
          /wV3YXk=
        >
        E 0 90 45 60
        E 180 80 45 00
        E 30 80 69 00
        E 0 90 69 60
        E 0 90 74 60
        <X 30 0
          /wVBbmQ=
        >
        E 0 90 43 60
        E 135 80 43 00
        <X 105 0
          /wVzZWVt
        >
        E 0 90 47 60
        E 225 80 47 00
        <X 255 0
          /wVzbw==
        >
        E 0 90 47 60
        E 135 80 47 00
        <X 105 0
          /wVzdXJl
        >
        E 0 90 43 60
        E 420 80 43 00
        E 300 80 69 00
        E 0 80 74 00
        E 17760 90 69 60
        <X 480 0
          /wVTaGU=
        >
        E 0 90 47 60
        E 150 80 47 00
        <X 90 0
          /wVpcw==
        >
        E 0 90 47 60
        E 75 80 47 00
        <X 45 0
          /wVob3At
        >
        E 0 90 48 60
        E 285 80 48 00
        <X 75 0
          /wVpbmc=
        >
        E 0 90 47 60
        E 165 80 47 00
        <X 75 0
          /wV0bw==
        >
        E 0 90 45 60
        E 165 80 45 00
        <X 75 0
          /wVmb3It
        >
        E 0 90 43 60
        E 75 80 43 00
        <X 45 0
          /wVnZXQ=
        >
        E 0 90 47 60
        E 300 80 47 00
        E 30 80 69 00
        E 240 90 69 60
        E 0 90 74 60
        <X 30 0
          /wVBbmQ=
        >
        E 0 90 47 60
        E 165 80 47 00
        <X 75 0
          /wV0aGU=
        >
        E 0 90 47 60
        E 60 80 47 00
        <X 60 0
          /wVtby0=
        >
        E 0 90 48 60
        E 285 80 48 00
        <X 60 0
          /wVtZW50
        >
        E 0 90 47 60
        E 195 80 47 00
        <X 60 0
          /wVhbC0=
        >
        E 0 90 45 60
        E 135 80 45 00
        <X 105 0
          /wVtb3N0
        >
        E 0 90 43 60
        E 165 80 43 00
        <X 75 0
          /wVzbGlwcw==
        >
        E 0 90 47 60
        E 240 80 47 00
        <X 240 0
          /wVhLQ==
        >
        E 0 90 47 60
        E 165 80 47 00
        <X 75 0
          /wV3YXk=
        >
        E 0 90 43 60
        E 525 80 43 00
        E 195 80 69 00
        E 0 80 74 00
        E 2400 90 69 60
        <X 480 0
          /wVXaGVu
        >
        E 0 90 47 60
        E 165 80 47 00
        <X 75 0
          /wV0aGU=
        >
        E 0 90 47 60
        E 60 80 47 00
        <X 60 0
          /wVjb2wt
        >
        E 0 90 48 60
        E 285 80 48 00
        <X 75 0
          /wVvdXJz
        >
        E 0 90 47 60
        E 135 80 47 00
        <X 105 0
          /wVtb3Zl
        >
        E 0 90 45 60
        E 165 80 45 00
        <X 75 0
          /wVhLQ==
        >
        E 0 90 43 60
        E 75 80 43 00
        <X 45 0
          /wVwYXJ0
        >
        E 0 90 45 60
        E 60 80 45 00
        <X 60 0
          /wUr
        >
        E 0 90 47 60
        E 165 80 47 00
        E 30 80 69 00
        E 255 90 69 60
        <X 30 0
          /wVBbmQ=
        >
        E 0 90 47 60
        E 150 80 47 00
        <X 90 0
          /wVJ
        >
        E 0 90 47 60
        E 150 80 47 00
        <X 75 0
          /wV3b24t
        >
        E 0 90 48 60
        E 180 80 48 00
        <X 75 0
          /wVkZXI=
        >
        E 0 90 47 60
        E 180 80 47 00
        <X 60 0
          /wVpZg==
        >
        E 0 90 45 60
        E 120 80 45 00
        <X 120 0
          /wV5b3U=
        >
        E 0 90 43 60
        E 120 80 43 00
        <X 120 0
          /wV3YW50
        >
        E 0 90 45 60
        E 90 80 45 00
        <X 30 0
          /wUr
        >
        E 0 90 47 60
        E 180 80 47 00
        <X 180 0
          /wV0bw==
        >
        E 0 90 47 60
        E 105 80 47 00
        <X 135 0
          /wVzdGF5
        >
        E 0 90 43 60
        E 375 80 43 00
        E 345 80 69 00
        E 2400 90 69 60
        E 0 90 74 60
        <X 480 0
          /wVBbmQ=
        >
        E 0 90 3e 60
        E 135 80 3e 00
        <X 105 0
          /wVJ
        >
        E 0 90 3e 60
        E 135 80 3e 00
        <X 105 0
          /wVuZWVk
        >
        E 0 90 43 60
        E 135 80 43 00
        <X 105 0
          /wV0bw==
        >
        E 0 90 43 60
        E 75 80 43 00
        <X 45 0
          /wVjaGFuZ2U=
        >
        E 0 90 3e 60
        E 285 80 3e 00
        <X 75 0
          /wV5b3U=
        >
        E 0 90 3e 60
        E 210 80 3e 00
        <X 30 0
          /wVsaWtl
        >
        E 0 90 47 60
        E 180 80 47 00
        <X 60 0
          /wV0aGU=
        >
        E 0 90 47 60
        E 75 80 47 00
        <X 45 0
          /wV3b3Jkcw==
        >
        E 0 90 43 60
        E 240 80 43 00
        <X 120 0
          /wVJJ20=
        >
        E 0 90 43 60
        E 165 80 43 00
        <X 75 0
          /wVyZWFkLQ==
        >
        E 0 90 47 60
        E 180 80 47 00
        <X 60 0
          /wVpbmc=
        >
        E 0 90 47 60
        E 135 80 47 00
        E 30 80 69 00
        E 0 80 74 00
        E 45 90 69 60
        <X 30 0
          /wVEb24ndA==
        >
        E 0 90 43 60
        E 165 80 43 00
        <X 75 0
          /wV5b3U=
        >
        E 0 90 43 60
        E 105 80 43 00
        <X 135 0
          /wV1bi0=
        >
        E 0 90 47 60
        E 390 80 47 00
        <X 90 0
          /wVkZXIt
        >
        E 0 90 48 60
        E 150 80 48 00
        <X 90 0
          /wVzdGFuZD8=
        >
        E 0 90 4a 60
        E 525 80 4a 00
        E 195 80 69 00
        E 2400 90 69 60
        <X 480 0
          /wVUaGlz
        >
        E 0 90 47 60
        E 180 80 47 00
        <X 60 0
          /wV0aGU=
        >
        E 0 90 47 60
        E 60 80 47 00
        <X 60 0
          /wV3YXJuLQ==
        >
        E 0 90 48 60
        E 285 80 48 00
        <X 75 0
          /wVpbmc=
        >
        E 0 90 47 60
        E 195 80 47 00
        <X 45 0
          /wVhbmQ=
        >
        E 0 90 45 60
        E 195 80 45 00
        <X 45 0
          /wV0aGU=
        >
        E 0 90 43 60
        E 90 80 43 00
        <X 30 0
          /wVtZXMt
        >
        E 0 90 47 60
        E 255 80 47 00
        <X 105 0
          /wVzYWdl
        >
        E 0 90 47 60
        E 150 80 47 00
        <X 90 0
          /wVJ
        >
        E 0 90 47 60
        E 120 80 47 00
        <X 120 0
          /wVyZS0=
        >
        E 0 90 47 60
        E 60 80 47 00
        <X 60 0
          /wVtZW0t
        >
        E 0 90 48 60
        E 315 80 48 00
        <X 45 0
          /wViZXI=
        >
        E 0 90 47 60
        E 165 80 47 00
        E 30 80 69 00
        E 15 90 69 60
        <X 30 0
          /wVBcw==
        >
        E 0 90 45 60
        E 180 80 45 00
        <X 60 0
          /wV5b3U=
        >
        E 0 90 43 60
        E 135 80 43 00
        <X 105 0
          /wV0b3VjaA==
        >
        E 0 90 47 60
        E 255 80 47 00
        <X 225 0
          /wVteQ==
        >
        E 0 90 47 60
        E 135 80 47 00
        <X 105 0
          /wVoYW5k
        >
        E 0 90 43 60
        E 510 80 43 00
        E 210 80 69 00
        E 27360 b0 7b 00
        GUID {537B9D60-3981-4BD2-8A25-14DB07650D5C}
        IGNTEMPO 0 120.00000000 4 4
        SRCCOLOR 0
        VELLANE 132 71 60
        COLORMAP "C:\Program Files (x86)\REAPER\Data\color_maps\rockband_guitarbass.png"
        CFGEDITVIEW -7366.912665 6.865074 2 12 0 0 0
        CFGEDIT 1 1 0 1 1 0 1 1 1 1 1 0.06250000 -8 -8 1548 876 0 2 1 1 0.00000000 0 1 0 0 0.500000 0 0 1.000000 64
        KEYSNAP 1 7 "102034050607" 0 "Major"
        EVTFILTER 0 -1 -1 -1 -1 0 1 0 0 -1.00000000 -1.00000000
      >
    >
  >
  <TRACK '{811A78CC-BC31-405D-882E-BA85E27D4C0C}'
    NAME "HARM2"
    PEAKCOL 16576
    BEAT -1
    AUTOMODE 0
    VOLPAN 0.20369801508874 0.00000000000000 -1.00000000000000 -1.00000000000000 1.00000000000000
    MUTESOLO 0 0 0
    IPHASE 0
    ISBUS 2 -1
    BUSCOMP 0 0
    SHOWINMIX 1 0.666700 0.500000 1 0.500000 -1 -1 -1
    FREEMODE 0
    SEL 0
    REC 0 0 0 0 0 0 0
    VU 2
    TRACKHEIGHT 0 0
    INQ 0 0 0 0.5000000000 100 0 0 100
    NCHAN 2
    FX 0
    TRACKID {811A78CC-BC31-405D-882E-BA85E27D4C0C}
    PERF 0
    MIDIOUT -1
    <MIDINOTENAMES
      0 105 "Phrase Marker"
      0 104 "----"
      0 84 "C6 (Unused Highest Note)"
      0 83 "B5"
      0 82 "A#4"
      0 81 "A4"
      0 80 "G#4"
      0 79 "G4"
      0 78 "F#4"
      0 77 "F4"
      0 76 "E4"
      0 75 "D#4"
      0 74 "D4"
      0 73 "C#4"
      0 72 "C4"
      0 71 "B3"
      0 70 "A#3"
      0 69 "A3"
      0 68 "G#3"
      0 67 "G3"
      0 66 "F#3"
      0 65 "F3"
      0 64 "E3"
      0 63 "D#3"
      0 62 "D3"
      0 61 "C#3"
      0 60 "C3"
      0 59 "B2"
      0 58 "A#2"
      0 57 "A2"
      0 56 "G#2"
      0 55 "G2"
      0 54 "F#2"
      0 53 "F2"
      0 52 "E2"
      0 51 "D#2"
      0 50 "D2"
      0 49 "C#2"
      0 48 "C2"
      0 47 "B1"
      0 46 "A#1"
      0 45 "A1"
      0 44 "G#1"
      0 43 "G1"
      0 42 "F#1"
      0 41 "F1"
      0 40 "E1"
      0 39 "D#1"
      0 38 "D1"
      0 37 "C#1"
      0 36 "Lowest Note C1"
    >
    MAINSEND 1 0
    <FXCHAIN
      WNDRECT 0 43 655 467
      SHOW 0
      LASTSEL 1
      DOCKED 0
      BYPASS 0 0
      <JS "MIDI/midi_note_filter" ""
        36.000000 84.000000 - - - - - - - - - - - - - - - - - - - - - - - - - - - - - - - - - - - - - - - - - - - - - - - - - - - - - - - - - - - - - - 
      >
      FLOATPOS 0 0 0 0
      FXID {7A7F9E86-D9A3-45B2-A29D-E3E42765F698}
      WAK 0
      BYPASS 0 0
      <VST "VSTi: ReaSynth (Cockos)" "reasynth.dll" 0 ""
        eXNlcu9e7f4AAAAAAgAAAAEAAAAAAAAAAgAAAAAAAAA4AAAAAAAAAA==
        AAAQAO++rd4N8K3eppvEOxe30ToAAIA/AAAAAAAAAADMm4A+6WeIPQ==
        AAAAAAAAAD8AAIA/AACAPwAAAD8AABAAAAA=
      >
      FLOATPOS 0 0 0 0
      FXID {92C98E80-7B9B-47D3-BAC7-001EC4227541}
      WAK 0
    >
    <ITEM
      POSITION 0.00000000000000
      SNAPOFFS 0.00000000000000
      LENGTH 163.46881417504329
      LOOP 0
      ALLTAKES 0
      SEL 0
      FADEIN 1 0.000000 0.000000 1 0
      FADEOUT 1 0.000000 0.000000 1 0
      MUTE 0
      IGUID {883B4A67-7D77-4809-B9C6-36297118F62C}
      IID 2
      NAME "HARM2"
      VOLPAN 1.000000 0.000000 1.000000 -1.000000
      SOFFS 0.00000000000000 0.00000000000000
      PLAYRATE 1.00000000000000 1 0.00000000000000 -1
      CHANMODE 0
      GUID {0DAA17D5-3FCE-4640-82CF-BC207A365B10}
      <SOURCE MIDI
        HASDATA 1 480 QN
        POOLEDEVTS {22CCA102-6F7D-4197-8C01-9C4BA5E5F013}
        <X 0 0
          /wNIQVJNMg==
        >
        E 34560 90 69 60
        <X 480 0
          /wVIZXJl
        >
        E 0 90 4a 60
        E 180 80 4a 00
        <X 60 0
          /wVhLQ==
        >
        E 0 90 4a 60
        E 60 80 4a 00
        <X 60 0
          /wVnYWlu
        >
        E 0 90 4c 60
        E 285 80 4c 00
        <X 75 0
          /wVhbmQ=
        >
        E 0 90 4a 60
        E 150 80 4a 00
        <X 90 0
          /wV3aGVu
        >
        E 0 90 48 60
        E 135 80 48 00
        <X 105 0
          /wV5b3U=
        >
        E 0 90 47 60
        E 105 80 47 00
        <X 135 0
          /wVzcGVhaw==
        >
        E 0 90 4a 60
        E 135 80 4a 00
        <X 105 0
          /wVJ
        >
        E 0 90 4a 60
        E 180 80 4a 00
        <X 60 0
          /wV3YXRjaA==
        >
        E 0 90 4a 60
        E 120 80 4a 00
        <X 120 0
          /wV5b3U=
        >
        E 0 90 4a 60
        E 60 80 4a 00
        <X 60 0
          /wVtb3Zl
        >
        E 0 90 4c 60
        E 315 80 4c 00
        <X 45 0
          /wVhLQ==
        >
        E 0 90 4a 60
        E 165 80 4a 00
        <X 75 0
          /wV3YXk=
        >
        E 0 90 48 60
        E 180 80 48 00
        E 30 80 69 00
        E 0 90 69 60
        <X 30 0
          /wVBbmQ=
        >
        E 0 90 47 60
        E 135 80 47 00
        <X 105 0
          /wVzZWVt
        >
        E 0 90 4a 60
        E 225 80 4a 00
        <X 255 0
          /wVzbw==
        >
        E 0 90 4a 60
        E 135 80 4a 00
        <X 105 0
          /wVzdXJl
        >
        E 0 90 47 60
        E 420 80 47 00
        E 300 80 69 00
        E 17760 90 69 60
        <X 480 0
          /wVTaGU=
        >
        E 0 90 4a 60
        E 150 80 4a 00
        <X 90 0
          /wVpcw==
        >
        E 0 90 4a 60
        E 75 80 4a 00
        <X 45 0
          /wVob3At
        >
        E 0 90 4c 60
        E 285 80 4c 00
        <X 75 0
          /wVpbmc=
        >
        E 0 90 4a 60
        E 165 80 4a 00
        <X 75 0
          /wV0bw==
        >
        E 0 90 48 60
        E 165 80 48 00
        <X 75 0
          /wVmb3It
        >
        E 0 90 47 60
        E 75 80 47 00
        <X 45 0
          /wVnZXQ=
        >
        E 0 90 4a 60
        E 300 80 4a 00
        E 30 80 69 00
        E 240 90 69 60
        <X 30 0
          /wVBbmQ=
        >
        E 0 90 4a 60
        E 165 80 4a 00
        <X 75 0
          /wV0aGU=
        >
        E 0 90 4a 60
        E 60 80 4a 00
        <X 60 0
          /wVtby0=
        >
        E 0 90 4c 60
        E 285 80 4c 00
        <X 60 0
          /wVtZW50
        >
        E 0 90 4a 60
        E 195 80 4a 00
        <X 60 0
          /wVhbC0=
        >
        E 0 90 48 60
        E 135 80 48 00
        <X 105 0
          /wVtb3N0
        >
        E 0 90 47 60
        E 165 80 47 00
        <X 75 0
          /wVzbGlwcw==
        >
        E 0 90 4a 60
        E 240 80 4a 00
        <X 240 0
          /wVhLQ==
        >
        E 0 90 4a 60
        E 165 80 4a 00
        <X 75 0
          /wV3YXk=
        >
        E 0 90 47 60
        E 525 80 47 00
        E 195 80 69 00
        E 2400 90 69 60
        <X 480 0
          /wVXaGVu
        >
        E 0 90 4a 60
        E 165 80 4a 00
        <X 75 0
          /wV0aGU=
        >
        E 0 90 4a 60
        E 60 80 4a 00
        <X 60 0
          /wVjb2wt
        >
        E 0 90 4c 60
        E 285 80 4c 00
        <X 75 0
          /wVvdXJz
        >
        E 0 90 4a 60
        E 135 80 4a 00
        <X 105 0
          /wVtb3Zl
        >
        E 0 90 48 60
        E 165 80 48 00
        <X 75 0
          /wVhLQ==
        >
        E 0 90 47 60
        E 75 80 47 00
        <X 45 0
          /wVwYXJ0
        >
        E 0 90 48 60
        E 60 80 48 00
        <X 60 0
          /wUr
        >
        E 0 90 4a 60
        E 165 80 4a 00
        E 30 80 69 00
        E 255 90 69 60
        <X 30 0
          /wVBbmQ=
        >
        E 0 90 4a 60
        E 150 80 4a 00
        <X 90 0
          /wVJ
        >
        E 0 90 4a 60
        E 150 80 4a 00
        <X 75 0
          /wV3b24t
        >
        E 0 90 4c 60
        E 180 80 4c 00
        <X 75 0
          /wVkZXI=
        >
        E 0 90 4a 60
        E 180 80 4a 00
        <X 60 0
          /wVpZg==
        >
        E 0 90 48 60
        E 120 80 48 00
        <X 120 0
          /wV5b3U=
        >
        E 0 90 47 60
        E 120 80 47 00
        <X 120 0
          /wV3YW50
        >
        E 0 90 48 60
        E 90 80 48 00
        <X 30 0
          /wUr
        >
        E 0 90 4a 60
        E 180 80 4a 00
        <X 180 0
          /wV0bw==
        >
        E 0 90 4a 60
        E 105 80 4a 00
        <X 135 0
          /wVzdGF5
        >
        E 0 90 47 60
        E 375 80 47 00
        E 345 80 69 00
        E 2400 90 69 60
        <X 480 0
          /wVBbmQ=
        >
        E 0 90 43 60
        E 135 80 43 00
        <X 105 0
          /wVJ
        >
        E 0 90 43 60
        E 135 80 43 00
        <X 105 0
          /wVuZWVk
        >
        E 0 90 47 60
        E 135 80 47 00
        <X 105 0
          /wV0bw==
        >
        E 0 90 47 60
        E 75 80 47 00
        <X 45 0
          /wVjaGFuZ2U=
        >
        E 0 90 43 60
        E 285 80 43 00
        <X 75 0
          /wV5b3U=
        >
        E 0 90 43 60
        E 210 80 43 00
        <X 30 0
          /wVsaWtl
        >
        E 0 90 4a 60
        E 180 80 4a 00
        <X 60 0
          /wV0aGU=
        >
        E 0 90 4a 60
        E 75 80 4a 00
        <X 45 0
          /wV3b3Jkcw==
        >
        E 0 90 47 60
        E 240 80 47 00
        <X 120 0
          /wVJJ20=
        >
        E 0 90 47 60
        E 165 80 47 00
        <X 75 0
          /wVyZWFkLQ==
        >
        E 0 90 4a 60
        E 180 80 4a 00
        <X 60 0
          /wVpbmc=
        >
        E 0 90 4a 60
        E 135 80 4a 00
        E 30 80 69 00
        E 45 90 69 60
        <X 30 0
          /wVEb24ndA==
        >
        E 0 90 47 60
        E 165 80 47 00
        <X 75 0
          /wV5b3U=
        >
        E 0 90 47 60
        E 105 80 47 00
        <X 135 0
          /wV1bi0=
        >
        E 0 90 4a 60
        E 390 80 4a 00
        <X 90 0
          /wVkZXIt
        >
        E 0 90 4c 60
        E 150 80 4c 00
        <X 90 0
          /wVzdGFuZD8=
        >
        E 0 90 4f 60
        E 525 80 4f 00
        E 195 80 69 00
        E 2400 90 69 60
        <X 480 0
          /wVUaGlz
        >
        E 0 90 4a 60
        E 180 80 4a 00
        <X 60 0
          /wV0aGU=
        >
        E 0 90 4a 60
        E 60 80 4a 00
        <X 60 0
          /wV3YXJuLQ==
        >
        E 0 90 4c 60
        E 285 80 4c 00
        <X 75 0
          /wVpbmc=
        >
        E 0 90 4a 60
        E 195 80 4a 00
        <X 45 0
          /wVhbmQ=
        >
        E 0 90 48 60
        E 195 80 48 00
        <X 45 0
          /wV0aGU=
        >
        E 0 90 47 60
        E 90 80 47 00
        <X 30 0
          /wVtZXMt
        >
        E 0 90 4a 60
        E 255 80 4a 00
        <X 105 0
          /wVzYWdl
        >
        E 0 90 4a 60
        E 150 80 4a 00
        <X 90 0
          /wVJ
        >
        E 0 90 4a 60
        E 120 80 4a 00
        <X 120 0
          /wVyZS0=
        >
        E 0 90 4a 60
        E 60 80 4a 00
        <X 60 0
          /wVtZW0t
        >
        E 0 90 4c 60
        E 315 80 4c 00
        <X 45 0
          /wViZXI=
        >
        E 0 90 4a 60
        E 165 80 4a 00
        E 30 80 69 00
        E 15 90 69 60
        <X 30 0
          /wVBcw==
        >
        E 0 90 48 60
        E 180 80 48 00
        <X 60 0
          /wV5b3U=
        >
        E 0 90 47 60
        E 135 80 47 00
        <X 105 0
          /wV0b3VjaA==
        >
        E 0 90 4a 60
        E 255 80 4a 00
        <X 225 0
          /wVteQ==
        >
        E 0 90 4a 60
        E 135 80 4a 00
        <X 105 0
          /wVoYW5k
        >
        E 0 90 47 60
        E 510 80 47 00
        E 210 80 69 00
        E 27360 b0 7b 00
        GUID {537B9D60-3981-4BD2-8A25-14DB07650D5C}
        IGNTEMPO 0 120.00000000 4 4
        SRCCOLOR 0
        VELLANE 132 128 128
        COLORMAP "C:\Program Files (x86)\REAPER\Data\color_maps\rockband_guitarbass.png"
        CFGEDITVIEW -7366.912665 6.865074 4 12 0 0 0
        CFGEDIT 1 1 0 1 1 0 1 1 1 1 1 0.25000000 -8 -8 1548 876 0 2 1 1 0.00000000 0 1 0 0 0.500000 0 0 1.000000 64
        KEYSNAP 0 0 "102034050607" 0 "Major"
        EVTFILTER 0 -1 -1 -1 -1 0 1 0 0 -1.00000000 -1.00000000
      >
    >
  >
  <TRACK '{EA771103-36A7-4F4C-8BE8-2A62ABCE1226}'
    NAME "PART KEYS"
    PEAKCOL 16576
    BEAT -1
    AUTOMODE 0
    VOLPAN 1.01157945425990 0.00000000000000 -1.00000000000000 -1.00000000000000 1.00000000000000
    MUTESOLO 0 0 0
    IPHASE 0
    ISBUS 1 1
    BUSCOMP 0 0
    SHOWINMIX 1 0.666700 0.500000 1 0.500000 -1 -1 -1
    FREEMODE 0
    SEL 0
    REC 0 0 0 0 0 0 0
    VU 2
    TRACKHEIGHT 0 0
    INQ 0 0 0 0.5000000000 100 0 0 100
    NCHAN 2
    FX 1
    TRACKID {EA771103-36A7-4F4C-8BE8-2A62ABCE1226}
    PERF 0
    MIDIOUT -1
    <MIDINOTENAMES
      0 127 "TRILL MARKER"
      0 125 "---"
      0 124 "BRE"
      0 123 "BRE"
      0 122 "BRE"
      0 121 "BRE"
      0 120 "BRE (use all 5)"
      0 119 "----"
      0 116 "OVERDRIVE"
      0 115 "----"
      0 103 "Solo Marker"
      0 102 "Force HOPO Off"
      0 101 "Force HOPO On"
      0 100 "EXPERT Orange"
      0 99 "EXPERT Blue"
      0 98 "EXPERT Yellow"
      0 97 "EXPERT Red"
      0 96 "EXPERT Green"
      0 95 "----"
      0 90 "Force HOPO Off"
      0 89 "Force HOPO On"
      0 88 "HARD Orange"
      0 87 "HARD Blue"
      0 86 "HARD Yellow"
      0 85 "HARD Red"
      0 84 "HARD Green"
      0 77 "----"
      0 76 "MEDIUM Orange"
      0 75 "MEDIUM Blue"
      0 74 "MEDIUM Yellow"
      0 73 "MEDIUM Red"
      0 72 "MEDIUM Green"
      0 65 "----"
      0 64 "EASY Orange"
      0 63 "EASY Blue"
      0 62 "EASY Yellow"
      0 61 "EASY Red"
      0 60 "EASY Green"
    >
    MAINSEND 1 0
    <FXCHAIN
      WNDRECT 519 341 878 559
      SHOW 0
      LASTSEL 0
      DOCKED 0
      BYPASS 0 0
      <VST "VSTi: RBN Preview (RBN)" "rbprev_vst64.dll" 0 ""
        dnBicu5e7f4AAAAAAgAAAAEAAAAAAAAAAgAAAAAAAAAEAAAAAQAAAA==
        AAAQAAIDqgAAABAAAAA=
      >
      FLOATPOS 0 0 0 0
      FXID {51A84DB3-ACE4-41D8-8FCB-C4DA44390D34}
      WAK 0
    >
    <ITEM
      POSITION 0.00000000000000
      SNAPOFFS 0.00000000000000
      LENGTH 163.46881417504329
      LOOP 0
      ALLTAKES 0
      SEL 0
      FADEIN 1 0.000000 0.000000 1 0
      FADEOUT 1 0.000000 0.000000 1 0
      MUTE 0
      IGUID {B685CA65-6B1A-4D94-939D-56C739893298}
      IID 35
      NAME "PART KEYS"
      VOLPAN 1.000000 0.000000 1.000000 -1.000000
      SOFFS 0.00000000000000 0.00000000000000
      PLAYRATE 1.00000000000000 1 0.00000000000000 -1
      CHANMODE 0
      GUID {C8F8DF88-EEDC-4344-9E7D-8F5E717E1AFE}
      <SOURCE MIDI
        HASDATA 1 480 QN
        POOLEDEVTS {9477BD8C-471D-4EF1-B1BB-41BE3D05C4FE}
        <X 0 0
          /wNQQVJUIEtFWVM=
        >
        <X 3840 0
          /wFbcGxheV0=
        >
        E 0 90 3c 60
        E 0 90 49 60
        E 0 90 56 60
        E 0 90 62 60
        E 120 80 3c 00
        E 0 80 49 00
        E 0 80 56 00
        E 0 80 62 00
        E 0 90 54 60
        E 0 90 60 60
        E 120 80 54 00
        E 0 80 60 00
        E 0 90 62 60
        E 120 80 62 00
        E 0 90 48 60
        E 0 90 55 60
        E 0 90 61 60
        E 120 80 48 00
        E 0 80 55 00
        E 0 80 61 00
        E 120 90 49 60
        E 0 90 56 60
        E 0 90 62 60
        E 120 80 49 00
        E 0 80 56 00
        E 0 80 62 00
        E 0 90 54 60
        E 0 90 60 60
        E 120 80 54 00
        E 0 80 60 00
        E 0 90 62 60
        E 120 80 62 00
        E 0 90 3d 60
        E 0 90 4a 60
        E 0 90 57 60
        E 0 90 63 60
        E 120 80 3d 00
        E 0 80 4a 00
        E 0 80 57 00
        E 0 80 63 00
        E 0 90 56 60
        E 0 90 62 60
        E 120 80 56 00
        E 0 80 62 00
        E 0 90 3e 60
        E 0 90 4b 60
        E 0 90 58 60
        E 0 90 64 60
        E 120 80 3e 00
        E 0 80 4b 00
        E 0 80 58 00
        E 0 80 64 00
        E 0 90 56 60
        E 0 90 62 60
        E 120 80 56 00
        E 0 80 62 00
        E 240 90 49 60
        E 0 90 56 60
        E 0 90 62 60
        E 120 80 49 00
        E 0 80 56 00
        E 0 80 62 00
        E 0 90 61 60
        E 120 80 61 00
        E 0 90 3c 60
        E 0 90 49 60
        E 0 90 56 60
        E 0 90 62 60
        E 120 80 3c 00
        E 0 80 49 00
        E 0 80 56 00
        E 0 80 62 00
        E 0 90 54 60
        E 1 90 60 60
        E 119 80 54 00
        E 1 80 60 00
        E 0 90 62 60
        E 119 90 48 60
        E 0 90 55 60
        E 1 80 62 00
        E 0 90 61 60
        E 119 80 48 00
        E 0 80 55 00
        E 1 80 61 00
        E 119 90 49 60
        E 0 90 56 60
        E 1 90 62 60
        E 119 80 49 00
        E 0 80 56 00
        E 0 90 54 60
        E 1 80 62 00
        E 0 90 60 60
        E 119 80 54 00
        E 1 80 60 00
        E 0 90 62 60
        E 119 90 3d 60
        E 0 90 4a 60
        E 0 90 57 60
        E 1 80 62 00
        E 0 90 63 60
        E 119 80 3d 00
        E 0 80 4a 00
        E 0 80 57 00
        E 0 90 56 60
        E 1 80 63 00
        E 0 90 62 60
        E 119 80 56 00
        E 0 90 3e 60
        E 0 90 4b 60
        E 0 90 58 60
        E 1 80 62 00
        E 0 90 64 60
        E 119 80 3e 00
        E 0 80 4b 00
        E 0 80 58 00
        E 0 90 56 60
        E 1 80 64 00
        E 0 90 62 60
        E 119 80 56 00
        E 1 80 62 00
        E 239 90 49 60
        E 0 90 56 60
        E 0 90 62 60
        E 120 80 49 00
        E 0 80 56 00
        E 0 80 62 00
        E 0 90 61 60
        E 120 80 61 00
        E 0 90 3c 60
        E 0 90 49 60
        E 0 90 56 60
        E 0 90 62 60
        E 120 80 3c 00
        E 0 80 49 00
        E 0 80 56 00
        E 0 80 62 00
        E 0 90 54 60
        E 1 90 60 60
        E 119 80 54 00
        E 1 80 60 00
        E 0 90 62 60
        E 119 90 48 60
        E 0 90 55 60
        E 1 80 62 00
        E 0 90 61 60
        E 119 80 48 00
        E 0 80 55 00
        E 1 80 61 00
        E 119 90 49 60
        E 0 90 56 60
        E 1 90 62 60
        E 119 80 49 00
        E 0 80 56 00
        E 0 90 54 60
        E 1 80 62 00
        E 0 90 60 60
        E 119 80 54 00
        E 1 80 60 00
        E 0 90 62 60
        E 119 90 3d 60
        E 0 90 4a 60
        E 0 90 57 60
        E 1 80 62 00
        E 0 90 63 60
        E 119 80 3d 00
        E 0 80 4a 00
        E 0 80 57 00
        E 0 90 56 60
        E 1 80 63 00
        E 0 90 62 60
        E 119 80 56 00
        E 0 90 3e 60
        E 0 90 4b 60
        E 0 90 58 60
        E 1 80 62 00
        E 0 90 64 60
        E 119 80 3e 00
        E 0 80 4b 00
        E 0 80 58 00
        E 0 90 56 60
        E 1 80 64 00
        E 0 90 62 60
        E 119 80 56 00
        E 1 80 62 00
        E 239 90 49 60
        E 0 90 56 60
        E 0 90 62 60
        E 120 80 49 00
        E 0 80 56 00
        E 0 80 62 00
        E 0 90 61 60
        E 120 80 61 00
        E 0 90 3c 60
        E 0 90 49 60
        E 0 90 56 60
        E 0 90 62 60
        E 0 90 74 60
        E 120 80 3c 00
        E 0 80 49 00
        E 0 80 56 00
        E 0 80 62 00
        E 0 90 54 60
        E 1 90 60 60
        E 119 80 54 00
        E 1 80 60 00
        E 0 90 62 60
        E 119 90 48 60
        E 0 90 55 60
        E 1 80 62 00
        E 0 90 61 60
        E 119 80 48 00
        E 0 80 55 00
        E 1 80 61 00
        E 119 90 49 60
        E 0 90 56 60
        E 1 90 62 60
        E 119 80 49 00
        E 0 80 56 00
        E 0 90 54 60
        E 1 80 62 00
        E 0 90 60 60
        E 119 80 54 00
        E 1 80 60 00
        E 0 90 62 60
        E 119 90 3d 60
        E 0 90 4a 60
        E 0 90 57 60
        E 1 80 62 00
        E 0 90 63 60
        E 119 80 3d 00
        E 0 80 4a 00
        E 0 80 57 00
        E 0 90 56 60
        E 1 80 63 00
        E 0 90 62 60
        E 119 80 56 00
        E 0 90 3e 60
        E 0 90 4b 60
        E 0 90 58 60
        E 1 80 62 00
        E 0 90 64 60
        E 119 80 3e 00
        E 0 80 4b 00
        E 0 80 58 00
        E 0 90 56 60
        E 1 80 64 00
        E 0 90 62 60
        E 119 80 56 00
        E 1 80 62 00
        E 239 90 49 60
        E 0 90 56 60
        E 0 90 62 60
        E 120 80 49 00
        E 0 80 56 00
        E 0 80 62 00
        E 0 90 61 60
        E 120 80 61 00
        E 0 90 3c 60
        E 0 90 49 60
        E 0 90 56 60
        E 0 90 62 60
        E 120 80 74 00
        E 0 80 3c 00
        E 0 80 49 00
        E 0 80 56 00
        E 0 80 62 00
        E 0 90 54 60
        E 1 90 60 60
        E 119 80 54 00
        E 1 80 60 00
        E 0 90 62 60
        E 119 90 48 60
        E 0 90 55 60
        E 1 80 62 00
        E 0 90 61 60
        E 119 80 48 00
        E 0 80 55 00
        E 1 80 61 00
        E 119 90 49 60
        E 0 90 56 60
        E 1 90 62 60
        E 119 80 49 00
        E 0 80 56 00
        E 0 90 54 60
        E 1 80 62 00
        E 0 90 60 60
        E 119 80 54 00
        E 1 80 60 00
        E 0 90 62 60
        E 119 90 3d 60
        E 0 90 4a 60
        E 0 90 57 60
        E 1 80 62 00
        E 0 90 63 60
        E 119 80 3d 00
        E 0 80 4a 00
        E 0 80 57 00
        E 0 90 56 60
        E 1 80 63 00
        E 0 90 62 60
        E 119 80 56 00
        E 0 90 3e 60
        E 0 90 4b 60
        E 0 90 58 60
        E 1 80 62 00
        E 0 90 64 60
        E 119 80 3e 00
        E 0 80 4b 00
        E 0 80 58 00
        E 0 90 56 60
        E 1 80 64 00
        E 0 90 62 60
        E 119 80 56 00
        E 1 80 62 00
        E 239 90 49 60
        E 0 90 56 60
        E 0 90 62 60
        E 120 80 49 00
        E 0 80 56 00
        E 0 80 62 00
        E 0 90 61 60
        E 120 80 61 00
        E 0 90 3c 60
        E 0 90 49 60
        E 0 90 56 60
        E 0 90 62 60
        E 120 80 3c 00
        E 0 80 49 00
        E 0 80 56 00
        E 0 80 62 00
        E 0 90 54 60
        E 1 90 60 60
        E 119 80 54 00
        E 1 80 60 00
        E 0 90 62 60
        E 119 90 48 60
        E 0 90 55 60
        E 1 80 62 00
        E 0 90 61 60
        E 119 80 48 00
        E 0 80 55 00
        E 1 80 61 00
        E 119 90 49 60
        E 0 90 56 60
        E 1 90 62 60
        E 119 80 49 00
        E 0 80 56 00
        E 0 90 54 60
        E 1 80 62 00
        E 0 90 60 60
        E 119 80 54 00
        E 1 80 60 00
        E 0 90 62 60
        E 119 90 3d 60
        E 0 90 4a 60
        E 0 90 57 60
        E 1 80 62 00
        E 0 90 63 60
        E 119 80 3d 00
        E 0 80 4a 00
        E 0 80 57 00
        E 0 90 56 60
        E 1 80 63 00
        E 0 90 62 60
        E 119 80 56 00
        E 0 90 3e 60
        E 0 90 4b 60
        E 0 90 58 60
        E 1 80 62 00
        E 0 90 64 60
        E 119 80 3e 00
        E 0 80 4b 00
        E 0 80 58 00
        E 0 90 56 60
        E 1 80 64 00
        E 0 90 62 60
        E 119 80 56 00
        E 1 80 62 00
        E 239 90 49 60
        E 0 90 56 60
        E 0 90 62 60
        E 120 80 49 00
        E 0 80 56 00
        E 0 80 62 00
        E 0 90 61 60
        E 120 80 61 00
        E 0 90 3c 60
        E 0 90 49 60
        E 0 90 56 60
        E 0 90 62 60
        E 120 80 3c 00
        E 0 80 49 00
        E 0 80 56 00
        E 0 80 62 00
        E 0 90 54 60
        E 1 90 60 60
        E 119 80 54 00
        E 1 80 60 00
        E 0 90 62 60
        E 119 90 48 60
        E 0 90 55 60
        E 1 80 62 00
        E 0 90 61 60
        E 119 80 48 00
        E 0 80 55 00
        E 1 80 61 00
        E 119 90 49 60
        E 0 90 56 60
        E 1 90 62 60
        E 119 80 49 00
        E 0 80 56 00
        E 0 90 54 60
        E 1 80 62 00
        E 0 90 60 60
        E 119 80 54 00
        E 1 80 60 00
        E 0 90 62 60
        E 119 90 3d 60
        E 0 90 4a 60
        E 0 90 57 60
        E 1 80 62 00
        E 0 90 63 60
        E 119 80 3d 00
        E 0 80 4a 00
        E 0 80 57 00
        E 0 90 56 60
        E 1 80 63 00
        E 0 90 62 60
        E 119 80 56 00
        E 0 90 3e 60
        E 0 90 4b 60
        E 0 90 58 60
        E 1 80 62 00
        E 0 90 64 60
        E 119 80 3e 00
        E 0 80 4b 00
        E 0 80 58 00
        E 0 90 56 60
        E 1 80 64 00
        E 0 90 62 60
        E 119 80 56 00
        E 1 80 62 00
        E 239 90 49 60
        E 0 90 56 60
        E 0 90 62 60
        E 120 80 49 00
        E 0 80 56 00
        E 0 80 62 00
        E 0 90 61 60
        E 120 80 61 00
        E 0 90 3c 60
        E 0 90 49 60
        E 0 90 56 60
        E 0 90 62 60
        E 120 80 3c 00
        E 0 80 49 00
        E 0 80 56 00
        E 0 80 62 00
        E 0 90 54 60
        E 1 90 60 60
        E 119 80 54 00
        E 1 80 60 00
        E 0 90 62 60
        E 119 90 48 60
        E 0 90 55 60
        E 1 80 62 00
        E 0 90 61 60
        E 119 80 48 00
        E 0 80 55 00
        E 1 80 61 00
        E 119 90 49 60
        E 0 90 56 60
        E 1 90 62 60
        E 119 80 49 00
        E 0 80 56 00
        E 0 90 54 60
        E 1 80 62 00
        E 0 90 60 60
        E 119 80 54 00
        E 1 80 60 00
        E 0 90 62 60
        E 119 90 3d 60
        E 0 90 4a 60
        E 0 90 57 60
        E 1 80 62 00
        E 0 90 63 60
        E 119 80 3d 00
        E 0 80 4a 00
        E 0 80 57 00
        E 0 90 56 60
        E 1 80 63 00
        E 0 90 62 60
        E 119 80 56 00
        E 0 90 3e 60
        E 0 90 4b 60
        E 0 90 58 60
        E 1 80 62 00
        E 0 90 64 60
        E 119 80 3e 00
        E 0 80 4b 00
        E 0 80 58 00
        E 0 90 56 60
        E 1 80 64 00
        E 0 90 62 60
        E 119 80 56 00
        E 1 80 62 00
        E 239 90 49 60
        E 0 90 56 60
        E 0 90 62 60
        E 120 80 49 00
        E 0 80 56 00
        E 0 80 62 00
        E 0 90 61 60
        E 120 80 61 00
        E 0 90 3c 60
        E 0 90 49 60
        E 0 90 56 60
        E 0 90 62 60
        E 120 80 3c 00
        E 0 80 49 00
        E 0 80 56 00
        E 0 80 62 00
        E 0 90 54 60
        E 1 90 60 60
        E 119 80 54 00
        E 1 80 60 00
        E 0 90 62 60
        E 119 90 48 60
        E 0 90 55 60
        E 1 80 62 00
        E 0 90 61 60
        E 119 80 48 00
        E 0 80 55 00
        E 1 80 61 00
        E 119 90 49 60
        E 0 90 56 60
        E 1 90 62 60
        E 119 80 49 00
        E 0 80 56 00
        E 0 90 54 60
        E 1 80 62 00
        E 0 90 60 60
        E 119 80 54 00
        E 1 80 60 00
        E 0 90 62 60
        E 119 90 3d 60
        E 0 90 4a 60
        E 0 90 57 60
        E 1 80 62 00
        E 0 90 63 60
        E 119 80 3d 00
        E 0 80 4a 00
        E 0 80 57 00
        E 0 90 56 60
        E 1 80 63 00
        E 0 90 62 60
        E 119 80 56 00
        E 0 90 3e 60
        E 0 90 4b 60
        E 0 90 58 60
        E 1 80 62 00
        E 0 90 64 60
        E 119 80 3e 00
        E 0 80 4b 00
        E 0 80 58 00
        E 0 90 56 60
        E 1 80 64 00
        E 0 90 62 60
        E 119 80 56 00
        E 1 80 62 00
        E 239 90 49 60
        E 0 90 56 60
        E 0 90 62 60
        E 120 80 49 00
        E 0 80 56 00
        E 0 80 62 00
        E 0 90 61 60
        E 120 80 61 00
        E 0 90 3c 60
        E 0 90 49 60
        E 0 90 56 60
        E 0 90 62 60
        E 120 80 3c 00
        E 0 80 49 00
        E 0 80 56 00
        E 0 80 62 00
        E 0 90 54 60
        E 1 90 60 60
        E 119 80 54 00
        E 1 80 60 00
        E 0 90 62 60
        E 119 90 48 60
        E 0 90 55 60
        E 1 80 62 00
        E 0 90 61 60
        E 119 80 48 00
        E 0 80 55 00
        E 1 80 61 00
        E 119 90 49 60
        E 0 90 56 60
        E 1 90 62 60
        E 119 80 49 00
        E 0 80 56 00
        E 0 90 54 60
        E 1 80 62 00
        E 0 90 60 60
        E 119 80 54 00
        E 1 80 60 00
        E 0 90 62 60
        E 119 90 3d 60
        E 0 90 4a 60
        E 0 90 57 60
        E 1 80 62 00
        E 0 90 63 60
        E 119 80 3d 00
        E 0 80 4a 00
        E 0 80 57 00
        E 0 90 56 60
        E 1 80 63 00
        E 0 90 62 60
        E 119 80 56 00
        E 0 90 3e 60
        E 0 90 4b 60
        E 0 90 58 60
        E 1 80 62 00
        E 0 90 64 60
        E 119 80 3e 00
        E 0 80 4b 00
        E 0 80 58 00
        E 0 90 56 60
        E 1 80 64 00
        E 0 90 62 60
        E 119 80 56 00
        E 1 80 62 00
        E 239 90 49 60
        E 0 90 56 60
        E 0 90 62 60
        E 120 80 49 00
        E 0 80 56 00
        E 0 80 62 00
        E 0 90 61 60
        E 120 80 61 00
        E 0 90 3c 60
        E 0 90 49 60
        E 0 90 56 60
        E 0 90 62 60
        E 120 80 3c 00
        E 0 80 49 00
        E 0 80 56 00
        E 0 80 62 00
        E 0 90 54 60
        E 1 90 60 60
        E 119 80 54 00
        E 1 80 60 00
        E 0 90 62 60
        E 119 90 48 60
        E 0 90 55 60
        E 1 80 62 00
        E 0 90 61 60
        E 119 80 48 00
        E 0 80 55 00
        E 1 80 61 00
        E 119 90 49 60
        E 0 90 56 60
        E 1 90 62 60
        E 119 80 49 00
        E 0 80 56 00
        E 0 90 54 60
        E 1 80 62 00
        E 0 90 60 60
        E 119 80 54 00
        E 1 80 60 00
        E 0 90 62 60
        E 119 90 3d 60
        E 0 90 4a 60
        E 0 90 57 60
        E 1 80 62 00
        E 0 90 63 60
        E 119 80 3d 00
        E 0 80 4a 00
        E 0 80 57 00
        E 0 90 56 60
        E 1 80 63 00
        E 0 90 62 60
        E 119 80 56 00
        E 0 90 3e 60
        E 0 90 4b 60
        E 0 90 58 60
        E 1 80 62 00
        E 0 90 64 60
        E 119 80 3e 00
        E 0 80 4b 00
        E 0 80 58 00
        E 0 90 56 60
        E 1 80 64 00
        E 0 90 62 60
        E 119 80 56 00
        E 1 80 62 00
        E 239 90 49 60
        E 0 90 56 60
        E 0 90 62 60
        E 120 80 49 00
        E 0 80 56 00
        E 0 80 62 00
        E 0 90 61 60
        E 120 80 61 00
        E 0 90 3c 60
        E 0 90 49 60
        E 0 90 56 60
        E 0 90 62 60
        E 0 90 74 60
        E 120 80 3c 00
        E 0 80 49 00
        E 0 80 56 00
        E 0 80 62 00
        E 0 90 54 60
        E 1 90 60 60
        E 119 80 54 00
        E 1 80 60 00
        E 0 90 62 60
        E 119 90 48 60
        E 0 90 55 60
        E 1 80 62 00
        E 0 90 61 60
        E 119 80 48 00
        E 0 80 55 00
        E 1 80 61 00
        E 119 90 49 60
        E 0 90 56 60
        E 1 90 62 60
        E 119 80 49 00
        E 0 80 56 00
        E 0 90 54 60
        E 1 80 62 00
        E 0 90 60 60
        E 119 80 54 00
        E 1 80 60 00
        E 0 90 62 60
        E 119 90 3d 60
        E 0 90 4a 60
        E 0 90 57 60
        E 1 80 62 00
        E 0 90 63 60
        E 119 80 3d 00
        E 0 80 4a 00
        E 0 80 57 00
        E 0 90 56 60
        E 1 80 63 00
        E 0 90 62 60
        E 119 80 56 00
        E 0 90 3e 60
        E 0 90 4b 60
        E 0 90 58 60
        E 1 80 62 00
        E 0 90 64 60
        E 119 80 3e 00
        E 0 80 4b 00
        E 0 80 58 00
        E 0 90 56 60
        E 1 80 64 00
        E 0 90 62 60
        E 119 80 56 00
        E 1 80 62 00
        E 239 90 49 60
        E 0 90 56 60
        E 0 90 62 60
        E 120 80 49 00
        E 0 80 56 00
        E 0 80 62 00
        E 0 90 61 60
        E 120 80 61 00
        E 0 90 3c 60
        E 0 90 49 60
        E 0 90 56 60
        E 0 90 62 60
        E 120 80 74 00
        E 0 80 3c 00
        E 0 80 49 00
        E 0 80 56 00
        E 0 80 62 00
        E 0 90 54 60
        E 1 90 60 60
        E 119 80 54 00
        E 1 80 60 00
        E 0 90 62 60
        E 119 90 48 60
        E 0 90 55 60
        E 1 80 62 00
        E 0 90 61 60
        E 119 80 48 00
        E 0 80 55 00
        E 1 80 61 00
        E 119 90 49 60
        E 0 90 56 60
        E 1 90 62 60
        E 119 80 49 00
        E 0 80 56 00
        E 0 90 54 60
        E 1 80 62 00
        E 0 90 60 60
        E 119 80 54 00
        E 1 80 60 00
        E 0 90 62 60
        E 119 90 3d 60
        E 0 90 4a 60
        E 0 90 57 60
        E 1 80 62 00
        E 0 90 63 60
        E 119 80 3d 00
        E 0 80 4a 00
        E 0 80 57 00
        E 0 90 56 60
        E 1 80 63 00
        E 0 90 62 60
        E 119 80 56 00
        E 0 90 3e 60
        E 0 90 4b 60
        E 0 90 58 60
        E 1 80 62 00
        E 0 90 64 60
        E 119 80 3e 00
        E 0 80 4b 00
        E 0 80 58 00
        E 0 90 56 60
        E 1 80 64 00
        E 0 90 62 60
        E 119 80 56 00
        E 1 80 62 00
        E 239 90 49 60
        E 0 90 56 60
        E 0 90 62 60
        E 120 80 49 00
        E 0 80 56 00
        E 0 80 62 00
        E 0 90 61 60
        E 120 80 61 00
        E 0 90 3c 60
        E 0 90 49 60
        E 0 90 56 60
        E 0 90 62 60
        E 120 80 3c 00
        E 0 80 49 00
        E 0 80 56 00
        E 0 80 62 00
        E 0 90 54 60
        E 1 90 60 60
        E 119 80 54 00
        E 1 80 60 00
        E 0 90 62 60
        E 119 90 48 60
        E 0 90 55 60
        E 1 80 62 00
        E 0 90 61 60
        E 119 80 48 00
        E 0 80 55 00
        E 1 80 61 00
        E 119 90 49 60
        E 0 90 56 60
        E 1 90 62 60
        E 119 80 49 00
        E 0 80 56 00
        E 0 90 54 60
        E 1 80 62 00
        E 0 90 60 60
        E 119 80 54 00
        E 1 80 60 00
        E 0 90 62 60
        E 119 90 3d 60
        E 0 90 4a 60
        E 0 90 57 60
        E 1 80 62 00
        E 0 90 63 60
        E 119 80 3d 00
        E 0 80 4a 00
        E 0 80 57 00
        E 0 90 56 60
        E 1 80 63 00
        E 0 90 62 60
        E 119 80 56 00
        E 0 90 3e 60
        E 0 90 4b 60
        E 0 90 58 60
        E 1 80 62 00
        E 0 90 64 60
        E 119 80 3e 00
        E 0 80 4b 00
        E 0 80 58 00
        E 0 90 56 60
        E 1 80 64 00
        E 0 90 62 60
        E 119 80 56 00
        E 1 80 62 00
        E 239 90 49 60
        E 0 90 56 60
        E 0 90 62 60
        E 120 80 49 00
        E 0 80 56 00
        E 0 80 62 00
        E 0 90 61 60
        E 120 80 61 00
        E 0 90 3c 60
        E 0 90 49 60
        E 0 90 56 60
        E 0 90 62 60
        E 120 80 3c 00
        E 0 80 49 00
        E 0 80 56 00
        E 0 80 62 00
        E 0 90 54 60
        E 1 90 60 60
        E 119 80 54 00
        E 1 80 60 00
        E 0 90 62 60
        E 119 90 48 60
        E 0 90 55 60
        E 1 80 62 00
        E 0 90 61 60
        E 119 80 48 00
        E 0 80 55 00
        E 1 80 61 00
        E 119 90 49 60
        E 0 90 56 60
        E 1 90 62 60
        E 119 80 49 00
        E 0 80 56 00
        E 0 90 54 60
        E 1 80 62 00
        E 0 90 60 60
        E 119 80 54 00
        E 1 80 60 00
        E 0 90 62 60
        E 119 90 3d 60
        E 0 90 4a 60
        E 0 90 57 60
        E 1 80 62 00
        E 0 90 63 60
        E 119 80 3d 00
        E 0 80 4a 00
        E 0 80 57 00
        E 0 90 56 60
        E 1 80 63 00
        E 0 90 62 60
        E 119 80 56 00
        E 0 90 3e 60
        E 0 90 4b 60
        E 0 90 58 60
        E 1 80 62 00
        E 0 90 64 60
        E 119 80 3e 00
        E 0 80 4b 00
        E 0 80 58 00
        E 0 90 56 60
        E 1 80 64 00
        E 0 90 62 60
        E 119 80 56 00
        E 1 80 62 00
        E 239 90 49 60
        E 0 90 56 60
        E 0 90 62 60
        E 120 80 49 00
        E 0 80 56 00
        E 0 80 62 00
        E 0 90 61 60
        E 120 80 61 00
        E 0 90 3c 60
        E 0 90 49 60
        E 0 90 56 60
        E 0 90 62 60
        E 120 80 3c 00
        E 0 80 49 00
        E 0 80 56 00
        E 0 80 62 00
        E 0 90 54 60
        E 1 90 60 60
        E 119 80 54 00
        E 1 80 60 00
        E 0 90 62 60
        E 119 90 48 60
        E 0 90 55 60
        E 1 80 62 00
        E 0 90 61 60
        E 119 80 48 00
        E 0 80 55 00
        E 1 80 61 00
        E 119 90 49 60
        E 0 90 56 60
        E 1 90 62 60
        E 119 80 49 00
        E 0 80 56 00
        E 0 90 54 60
        E 1 80 62 00
        E 0 90 60 60
        E 119 80 54 00
        E 1 80 60 00
        E 0 90 62 60
        E 119 90 3d 60
        E 0 90 4a 60
        E 0 90 57 60
        E 1 80 62 00
        E 0 90 63 60
        E 119 80 3d 00
        E 0 80 4a 00
        E 0 80 57 00
        E 0 90 56 60
        E 1 80 63 00
        E 0 90 62 60
        E 119 80 56 00
        E 0 90 3e 60
        E 0 90 4b 60
        E 0 90 58 60
        E 1 80 62 00
        E 0 90 64 60
        E 119 80 3e 00
        E 0 80 4b 00
        E 0 80 58 00
        E 0 90 56 60
        E 1 80 64 00
        E 0 90 62 60
        E 119 80 56 00
        E 1 80 62 00
        E 239 90 49 60
        E 0 90 56 60
        E 0 90 62 60
        E 120 80 49 00
        E 0 80 56 00
        E 0 80 62 00
        E 0 90 61 60
        E 120 80 61 00
        E 0 90 3c 60
        E 0 90 49 60
        E 0 90 56 60
        E 0 90 62 60
        E 120 80 3c 00
        E 0 80 49 00
        E 0 80 56 00
        E 0 80 62 00
        E 0 90 54 60
        E 1 90 60 60
        E 119 80 54 00
        E 1 80 60 00
        E 0 90 62 60
        E 119 90 48 60
        E 0 90 55 60
        E 1 80 62 00
        E 0 90 61 60
        E 119 80 48 00
        E 0 80 55 00
        E 1 80 61 00
        E 119 90 49 60
        E 0 90 56 60
        E 1 90 62 60
        E 119 80 49 00
        E 0 80 56 00
        E 0 90 54 60
        E 1 80 62 00
        E 0 90 60 60
        E 119 80 54 00
        E 1 80 60 00
        E 0 90 62 60
        E 119 90 3d 60
        E 0 90 4a 60
        E 0 90 57 60
        E 1 80 62 00
        E 0 90 63 60
        E 119 80 3d 00
        E 0 80 4a 00
        E 0 80 57 00
        E 0 90 56 60
        E 1 80 63 00
        E 0 90 62 60
        E 119 80 56 00
        E 0 90 3e 60
        E 0 90 4b 60
        E 0 90 58 60
        E 1 80 62 00
        E 0 90 64 60
        E 119 80 3e 00
        E 0 80 4b 00
        E 0 80 58 00
        E 0 90 56 60
        E 1 80 64 00
        E 0 90 62 60
        E 119 80 56 00
        E 1 80 62 00
        E 239 90 49 60
        E 0 90 56 60
        E 0 90 62 60
        E 120 80 49 00
        E 0 80 56 00
        E 0 80 62 00
        E 0 90 61 60
        E 120 80 61 00
        E 0 90 3c 60
        E 0 90 49 60
        E 0 90 56 60
        E 0 90 62 60
        E 120 80 3c 00
        E 0 80 49 00
        E 0 80 56 00
        E 0 80 62 00
        E 0 90 54 60
        E 1 90 60 60
        E 119 80 54 00
        E 1 80 60 00
        E 0 90 62 60
        E 119 90 48 60
        E 0 90 55 60
        E 1 80 62 00
        E 0 90 61 60
        E 119 80 48 00
        E 0 80 55 00
        E 1 80 61 00
        E 119 90 49 60
        E 0 90 56 60
        E 1 90 62 60
        E 119 80 49 00
        E 0 80 56 00
        E 0 90 54 60
        E 1 80 62 00
        E 0 90 60 60
        E 119 80 54 00
        E 1 80 60 00
        E 0 90 62 60
        E 119 90 3d 60
        E 0 90 4a 60
        E 0 90 57 60
        E 1 80 62 00
        E 0 90 63 60
        E 119 80 3d 00
        E 0 80 4a 00
        E 0 80 57 00
        E 0 90 56 60
        E 1 80 63 00
        E 0 90 62 60
        E 119 80 56 00
        E 0 90 3e 60
        E 0 90 4b 60
        E 0 90 58 60
        E 1 80 62 00
        E 0 90 64 60
        E 119 80 3e 00
        E 0 80 4b 00
        E 0 80 58 00
        E 0 90 56 60
        E 1 80 64 00
        E 0 90 62 60
        E 119 80 56 00
        E 1 80 62 00
        E 239 90 49 60
        E 0 90 56 60
        E 0 90 62 60
        E 120 80 49 00
        E 0 80 56 00
        E 0 80 62 00
        E 0 90 61 60
        E 120 80 61 00
        E 0 90 3c 60
        E 0 90 49 60
        E 0 90 56 60
        E 0 90 62 60
        E 120 80 3c 00
        E 0 80 49 00
        E 0 80 56 00
        E 0 80 62 00
        E 0 90 54 60
        E 1 90 60 60
        E 119 80 54 00
        E 1 80 60 00
        E 0 90 62 60
        E 119 90 48 60
        E 0 90 55 60
        E 1 80 62 00
        E 0 90 61 60
        E 119 80 48 00
        E 0 80 55 00
        E 1 80 61 00
        E 119 90 49 60
        E 0 90 56 60
        E 1 90 62 60
        E 119 80 49 00
        E 0 80 56 00
        E 0 90 54 60
        E 1 80 62 00
        E 0 90 60 60
        E 119 80 54 00
        E 1 80 60 00
        E 0 90 62 60
        E 119 90 3d 60
        E 0 90 4a 60
        E 0 90 57 60
        E 1 80 62 00
        E 0 90 63 60
        E 119 80 3d 00
        E 0 80 4a 00
        E 0 80 57 00
        E 0 90 56 60
        E 1 80 63 00
        E 0 90 62 60
        E 119 80 56 00
        E 0 90 3e 60
        E 0 90 4b 60
        E 0 90 58 60
        E 1 80 62 00
        E 0 90 64 60
        E 119 80 3e 00
        E 0 80 4b 00
        E 0 80 58 00
        E 0 90 56 60
        E 1 80 64 00
        E 0 90 62 60
        E 119 80 56 00
        E 1 80 62 00
        E 239 90 49 60
        E 0 90 56 60
        E 0 90 62 60
        E 120 80 49 00
        E 0 80 56 00
        E 0 80 62 00
        E 0 90 61 60
        E 120 80 61 00
        E 0 90 3c 60
        E 0 90 49 60
        E 0 90 56 60
        E 0 90 62 60
        E 120 80 3c 00
        E 0 80 49 00
        E 0 80 56 00
        E 0 80 62 00
        E 0 90 54 60
        E 1 90 60 60
        E 119 80 54 00
        E 1 80 60 00
        E 0 90 62 60
        E 119 90 48 60
        E 0 90 55 60
        E 1 80 62 00
        E 0 90 61 60
        E 119 80 48 00
        E 0 80 55 00
        E 1 80 61 00
        E 119 90 49 60
        E 0 90 56 60
        E 1 90 62 60
        E 119 80 49 00
        E 0 80 56 00
        E 0 90 54 60
        E 1 80 62 00
        E 0 90 60 60
        E 119 80 54 00
        E 1 80 60 00
        E 0 90 62 60
        E 119 90 3d 60
        E 0 90 4a 60
        E 0 90 57 60
        E 1 80 62 00
        E 0 90 63 60
        E 119 80 3d 00
        E 0 80 4a 00
        E 0 80 57 00
        E 0 90 56 60
        E 1 80 63 00
        E 0 90 62 60
        E 119 80 56 00
        E 0 90 3e 60
        E 0 90 4b 60
        E 0 90 58 60
        E 1 80 62 00
        E 0 90 64 60
        E 119 80 3e 00
        E 0 80 4b 00
        E 0 80 58 00
        E 0 90 56 60
        E 1 80 64 00
        E 0 90 62 60
        E 119 80 56 00
        E 1 80 62 00
        E 239 90 49 60
        E 0 90 56 60
        E 0 90 62 60
        E 120 80 49 00
        E 0 80 56 00
        E 0 80 62 00
        E 0 90 61 60
        E 120 80 61 00
        E 0 90 3e 60
        E 0 90 4b 60
        E 0 90 57 60
        E 0 90 63 60
        E 120 80 3e 00
        E 0 80 4b 00
        E 0 80 57 00
        E 0 80 63 00
        E 120 90 56 60
        E 0 90 62 60
        E 120 80 56 00
        E 0 80 62 00
        E 120 90 3d 60
        E 0 90 49 60
        E 0 90 55 60
        E 0 90 61 60
        E 960 80 3d 00
        E 240 80 49 00
        E 0 80 55 00
        E 0 80 61 00
        E 240 90 3f 60
        E 0 90 4a 60
        E 0 90 4b 60
        E 0 90 56 60
        E 0 90 57 60
        E 0 90 62 60
        E 0 90 63 60
        E 1440 80 3f 00
        E 240 80 4a 00
        E 0 80 4b 00
        E 0 80 56 00
        E 0 80 57 00
        E 0 80 62 00
        E 0 80 63 00
        E 240 90 40 60
        E 0 90 4c 60
        E 0 90 58 60
        E 0 90 64 60
        E 0 90 74 60
        E 120 80 40 00
        E 0 80 4c 00
        E 0 80 58 00
        E 0 80 64 00
        E 120 90 57 60
        E 0 90 63 60
        E 120 80 57 00
        E 0 80 63 00
        E 120 90 3e 60
        E 0 90 4a 60
        E 0 90 56 60
        E 0 90 62 60
        E 960 80 3e 00
        E 240 80 4a 00
        E 0 80 56 00
        E 0 80 62 00
        E 240 90 3f 60
        E 0 90 49 60
        E 0 90 4b 60
        E 0 90 55 60
        E 0 90 58 60
        E 0 90 61 60
        E 0 90 64 60
        E 1440 80 3f 00
        E 360 80 49 00
        E 0 80 4b 00
        E 0 80 55 00
        E 0 80 58 00
        E 0 80 61 00
        E 0 80 64 00
        E 120 90 3d 60
        E 0 90 4a 60
        E 0 90 56 60
        E 0 90 62 60
        E 120 80 74 00
        E 0 80 3d 00
        E 0 80 4a 00
        E 0 80 56 00
        E 0 80 62 00
        E 120 90 56 60
        E 0 90 62 60
        E 120 80 56 00
        E 0 80 62 00
        E 120 90 61 60
        E 120 80 61 00
        E 0 90 3e 60
        E 0 90 4b 60
        E 0 90 58 60
        E 0 90 64 60
        E 120 80 3e 00
        E 0 80 4b 00
        E 0 80 58 00
        E 0 80 64 00
        E 240 90 4a 60
        E 0 90 56 60
        E 0 90 62 60
        E 120 80 4a 00
        E 0 80 56 00
        E 0 80 62 00
        E 360 90 3c 60
        E 0 90 49 60
        E 0 90 55 60
        E 0 90 61 60
        E 120 80 3c 00
        E 0 80 49 00
        E 0 80 55 00
        E 0 80 61 00
        E 240 90 55 60
        E 0 90 61 60
        E 120 80 55 00
        E 0 80 61 00
        E 0 90 3d 60
        E 0 90 4a 60
        E 0 90 56 60
        E 0 90 62 60
        E 120 80 3d 00
        E 0 80 4a 00
        E 0 80 56 00
        E 0 80 62 00
        E 120 90 56 60
        E 0 90 62 60
        E 120 80 56 00
        E 0 80 62 00
        E 120 90 61 60
        E 120 80 61 00
        E 0 90 3e 60
        E 0 90 4b 60
        E 0 90 58 60
        E 0 90 64 60
        E 120 80 3e 00
        E 0 80 4b 00
        E 0 80 58 00
        E 0 80 64 00
        E 240 90 4a 60
        E 0 90 56 60
        E 0 90 62 60
        E 120 80 4a 00
        E 0 80 56 00
        E 0 80 62 00
        E 360 90 3c 60
        E 0 90 49 60
        E 0 90 55 60
        E 0 90 61 60
        E 120 80 3c 00
        E 0 80 49 00
        E 0 80 55 00
        E 0 80 61 00
        E 240 90 55 60
        E 0 90 61 60
        E 120 80 55 00
        E 0 80 61 00
        E 0 90 3d 60
        E 0 90 4a 60
        E 0 90 56 60
        E 0 90 62 60
        E 120 80 3d 00
        E 0 80 4a 00
        E 0 80 56 00
        E 0 80 62 00
        E 120 90 56 60
        E 0 90 62 60
        E 120 80 56 00
        E 0 80 62 00
        E 120 90 61 60
        E 120 80 61 00
        E 0 90 3e 60
        E 0 90 4b 60
        E 0 90 58 60
        E 0 90 64 60
        E 120 80 3e 00
        E 0 80 4b 00
        E 0 80 58 00
        E 0 80 64 00
        E 240 90 4a 60
        E 0 90 56 60
        E 0 90 62 60
        E 120 80 4a 00
        E 0 80 56 00
        E 0 80 62 00
        E 360 90 3c 60
        E 0 90 49 60
        E 0 90 55 60
        E 0 90 61 60
        E 120 80 3c 00
        E 0 80 49 00
        E 0 80 55 00
        E 0 80 61 00
        E 240 90 55 60
        E 0 90 61 60
        E 120 80 55 00
        E 0 80 61 00
        E 0 90 3d 60
        E 0 90 4a 60
        E 0 90 56 60
        E 0 90 62 60
        E 120 80 3d 00
        E 0 80 4a 00
        E 0 80 56 00
        E 0 80 62 00
        E 120 90 56 60
        E 0 90 62 60
        E 120 80 56 00
        E 0 80 62 00
        E 120 90 61 60
        E 120 80 61 00
        E 0 90 3e 60
        E 0 90 4b 60
        E 0 90 58 60
        E 0 90 64 60
        E 120 80 3e 00
        E 0 80 4b 00
        E 0 80 58 00
        E 0 80 64 00
        E 240 90 4a 60
        E 0 90 56 60
        E 0 90 62 60
        E 120 80 4a 00
        E 0 80 56 00
        E 0 80 62 00
        E 360 90 3c 60
        E 0 90 49 60
        E 0 90 55 60
        E 0 90 61 60
        E 120 80 3c 00
        E 0 80 49 00
        E 0 80 55 00
        E 0 80 61 00
        E 240 90 55 60
        E 0 90 61 60
        E 120 80 55 00
        E 0 80 61 00
        E 0 90 3c 60
        E 0 90 49 60
        E 0 90 56 60
        E 0 90 62 60
        E 0 90 74 60
        E 120 80 3c 00
        E 0 80 49 00
        E 0 80 56 00
        E 0 80 62 00
        E 0 90 54 60
        E 0 90 60 60
        E 120 80 54 00
        E 0 80 60 00
        E 0 90 62 60
        E 120 80 62 00
        E 0 90 48 60
        E 0 90 55 60
        E 0 90 61 60
        E 120 80 48 00
        E 0 80 55 00
        E 0 80 61 00
        E 120 90 49 60
        E 0 90 56 60
        E 0 90 62 60
        E 120 80 49 00
        E 0 80 56 00
        E 0 80 62 00
        E 0 90 54 60
        E 0 90 60 60
        E 120 80 54 00
        E 0 80 60 00
        E 0 90 62 60
        E 120 80 62 00
        E 0 90 3d 60
        E 0 90 4a 60
        E 0 90 57 60
        E 0 90 63 60
        E 120 80 3d 00
        E 0 80 4a 00
        E 0 80 57 00
        E 0 80 63 00
        E 0 90 56 60
        E 0 90 62 60
        E 120 80 56 00
        E 0 80 62 00
        E 0 90 3e 60
        E 0 90 4b 60
        E 0 90 58 60
        E 0 90 64 60
        E 120 80 3e 00
        E 0 80 4b 00
        E 0 80 58 00
        E 0 80 64 00
        E 0 90 56 60
        E 0 90 62 60
        E 120 80 74 00
        E 0 80 56 00
        E 0 80 62 00
        E 240 90 49 60
        E 0 90 56 60
        E 0 90 62 60
        E 120 80 49 00
        E 0 80 56 00
        E 0 80 62 00
        E 0 90 61 60
        E 120 80 61 00
        E 0 90 3c 60
        E 0 90 49 60
        E 0 90 56 60
        E 0 90 62 60
        E 120 80 3c 00
        E 0 80 49 00
        E 0 80 56 00
        E 0 80 62 00
        E 0 90 54 60
        E 1 90 60 60
        E 119 80 54 00
        E 1 80 60 00
        E 0 90 62 60
        E 119 90 48 60
        E 0 90 55 60
        E 1 80 62 00
        E 0 90 61 60
        E 119 80 48 00
        E 0 80 55 00
        E 1 80 61 00
        E 119 90 49 60
        E 0 90 56 60
        E 1 90 62 60
        E 119 80 49 00
        E 0 80 56 00
        E 0 90 54 60
        E 1 80 62 00
        E 0 90 60 60
        E 119 80 54 00
        E 1 80 60 00
        E 0 90 62 60
        E 119 90 3d 60
        E 0 90 4a 60
        E 0 90 57 60
        E 1 80 62 00
        E 0 90 63 60
        E 119 80 3d 00
        E 0 80 4a 00
        E 0 80 57 00
        E 0 90 56 60
        E 1 80 63 00
        E 0 90 62 60
        E 119 80 56 00
        E 0 90 3e 60
        E 0 90 4b 60
        E 0 90 58 60
        E 1 80 62 00
        E 0 90 64 60
        E 119 80 3e 00
        E 0 80 4b 00
        E 0 80 58 00
        E 0 90 56 60
        E 1 80 64 00
        E 0 90 62 60
        E 119 80 56 00
        E 1 80 62 00
        E 239 90 49 60
        E 0 90 56 60
        E 0 90 62 60
        E 120 80 49 00
        E 0 80 56 00
        E 0 80 62 00
        E 0 90 61 60
        E 120 80 61 00
        E 0 90 3c 60
        E 0 90 49 60
        E 0 90 56 60
        E 0 90 62 60
        E 120 80 3c 00
        E 0 80 49 00
        E 0 80 56 00
        E 0 80 62 00
        E 0 90 54 60
        E 1 90 60 60
        E 119 80 54 00
        E 1 80 60 00
        E 0 90 62 60
        E 119 90 48 60
        E 0 90 55 60
        E 1 80 62 00
        E 0 90 61 60
        E 119 80 48 00
        E 0 80 55 00
        E 1 80 61 00
        E 119 90 49 60
        E 0 90 56 60
        E 1 90 62 60
        E 119 80 49 00
        E 0 80 56 00
        E 0 90 54 60
        E 1 80 62 00
        E 0 90 60 60
        E 119 80 54 00
        E 1 80 60 00
        E 0 90 62 60
        E 119 90 3d 60
        E 0 90 4a 60
        E 0 90 57 60
        E 1 80 62 00
        E 0 90 63 60
        E 119 80 3d 00
        E 0 80 4a 00
        E 0 80 57 00
        E 0 90 56 60
        E 1 80 63 00
        E 0 90 62 60
        E 119 80 56 00
        E 0 90 3e 60
        E 0 90 4b 60
        E 0 90 58 60
        E 1 80 62 00
        E 0 90 64 60
        E 119 80 3e 00
        E 0 80 4b 00
        E 0 80 58 00
        E 0 90 56 60
        E 1 80 64 00
        E 0 90 62 60
        E 119 80 56 00
        E 1 80 62 00
        E 239 90 49 60
        E 0 90 56 60
        E 0 90 62 60
        E 120 80 49 00
        E 0 80 56 00
        E 0 80 62 00
        E 0 90 61 60
        E 120 80 61 00
        E 0 90 3c 60
        E 0 90 49 60
        E 0 90 56 60
        E 0 90 62 60
        E 120 80 3c 00
        E 0 80 49 00
        E 0 80 56 00
        E 0 80 62 00
        E 0 90 54 60
        E 1 90 60 60
        E 119 80 54 00
        E 1 80 60 00
        E 0 90 62 60
        E 119 90 48 60
        E 0 90 55 60
        E 1 80 62 00
        E 0 90 61 60
        E 119 80 48 00
        E 0 80 55 00
        E 1 80 61 00
        E 119 90 49 60
        E 0 90 56 60
        E 1 90 62 60
        E 119 80 49 00
        E 0 80 56 00
        E 0 90 54 60
        E 1 80 62 00
        E 0 90 60 60
        E 119 80 54 00
        E 1 80 60 00
        E 0 90 62 60
        E 119 90 3d 60
        E 0 90 4a 60
        E 0 90 57 60
        E 1 80 62 00
        E 0 90 63 60
        E 119 80 3d 00
        E 0 80 4a 00
        E 0 80 57 00
        E 0 90 56 60
        E 1 80 63 00
        E 0 90 62 60
        E 119 80 56 00
        E 0 90 3e 60
        E 0 90 4b 60
        E 0 90 58 60
        E 1 80 62 00
        E 0 90 64 60
        E 119 80 3e 00
        E 0 80 4b 00
        E 0 80 58 00
        E 0 90 56 60
        E 1 80 64 00
        E 0 90 62 60
        E 119 80 56 00
        E 1 80 62 00
        E 239 90 49 60
        E 0 90 56 60
        E 0 90 62 60
        E 120 80 49 00
        E 0 80 56 00
        E 0 80 62 00
        E 0 90 61 60
        E 120 80 61 00
        E 0 90 3c 60
        E 0 90 49 60
        E 0 90 56 60
        E 0 90 62 60
        E 120 80 3c 00
        E 0 80 49 00
        E 0 80 56 00
        E 0 80 62 00
        E 0 90 54 60
        E 1 90 60 60
        E 119 80 54 00
        E 1 80 60 00
        E 0 90 62 60
        E 119 90 48 60
        E 0 90 55 60
        E 1 80 62 00
        E 0 90 61 60
        E 119 80 48 00
        E 0 80 55 00
        E 1 80 61 00
        E 119 90 49 60
        E 0 90 56 60
        E 1 90 62 60
        E 119 80 49 00
        E 0 80 56 00
        E 0 90 54 60
        E 1 80 62 00
        E 0 90 60 60
        E 119 80 54 00
        E 1 80 60 00
        E 0 90 62 60
        E 119 90 3d 60
        E 0 90 4a 60
        E 0 90 57 60
        E 1 80 62 00
        E 0 90 63 60
        E 119 80 3d 00
        E 0 80 4a 00
        E 0 80 57 00
        E 0 90 56 60
        E 1 80 63 00
        E 0 90 62 60
        E 119 80 56 00
        E 0 90 3e 60
        E 0 90 4b 60
        E 0 90 58 60
        E 1 80 62 00
        E 0 90 64 60
        E 119 80 3e 00
        E 0 80 4b 00
        E 0 80 58 00
        E 0 90 56 60
        E 1 80 64 00
        E 0 90 62 60
        E 119 80 56 00
        E 1 80 62 00
        E 239 90 49 60
        E 0 90 56 60
        E 0 90 62 60
        E 120 80 49 00
        E 0 80 56 00
        E 0 80 62 00
        E 0 90 61 60
        E 120 80 61 00
        E 0 90 3c 60
        E 0 90 49 60
        E 0 90 56 60
        E 0 90 62 60
        E 120 80 3c 00
        E 0 80 49 00
        E 0 80 56 00
        E 0 80 62 00
        E 0 90 54 60
        E 1 90 60 60
        E 119 80 54 00
        E 1 80 60 00
        E 0 90 62 60
        E 119 90 48 60
        E 0 90 55 60
        E 1 80 62 00
        E 0 90 61 60
        E 119 80 48 00
        E 0 80 55 00
        E 1 80 61 00
        E 119 90 49 60
        E 0 90 56 60
        E 1 90 62 60
        E 119 80 49 00
        E 0 80 56 00
        E 0 90 54 60
        E 1 80 62 00
        E 0 90 60 60
        E 119 80 54 00
        E 1 80 60 00
        E 0 90 62 60
        E 119 90 3d 60
        E 0 90 4a 60
        E 0 90 57 60
        E 1 80 62 00
        E 0 90 63 60
        E 119 80 3d 00
        E 0 80 4a 00
        E 0 80 57 00
        E 0 90 56 60
        E 1 80 63 00
        E 0 90 62 60
        E 119 80 56 00
        E 0 90 3e 60
        E 0 90 4b 60
        E 0 90 58 60
        E 1 80 62 00
        E 0 90 64 60
        E 119 80 3e 00
        E 0 80 4b 00
        E 0 80 58 00
        E 0 90 56 60
        E 1 80 64 00
        E 0 90 62 60
        E 119 80 56 00
        E 1 80 62 00
        E 239 90 49 60
        E 0 90 56 60
        E 0 90 62 60
        E 120 80 49 00
        E 0 80 56 00
        E 0 80 62 00
        E 0 90 61 60
        E 120 80 61 00
        E 0 90 3c 60
        E 0 90 49 60
        E 0 90 56 60
        E 0 90 62 60
        E 120 80 3c 00
        E 0 80 49 00
        E 0 80 56 00
        E 0 80 62 00
        E 0 90 54 60
        E 1 90 60 60
        E 119 80 54 00
        E 1 80 60 00
        E 0 90 62 60
        E 119 90 48 60
        E 0 90 55 60
        E 1 80 62 00
        E 0 90 61 60
        E 119 80 48 00
        E 0 80 55 00
        E 1 80 61 00
        E 119 90 49 60
        E 0 90 56 60
        E 1 90 62 60
        E 119 80 49 00
        E 0 80 56 00
        E 0 90 54 60
        E 1 80 62 00
        E 0 90 60 60
        E 119 80 54 00
        E 1 80 60 00
        E 0 90 62 60
        E 119 90 3d 60
        E 0 90 4a 60
        E 0 90 57 60
        E 1 80 62 00
        E 0 90 63 60
        E 119 80 3d 00
        E 0 80 4a 00
        E 0 80 57 00
        E 0 90 56 60
        E 1 80 63 00
        E 0 90 62 60
        E 119 80 56 00
        E 0 90 3e 60
        E 0 90 4b 60
        E 0 90 58 60
        E 1 80 62 00
        E 0 90 64 60
        E 119 80 3e 00
        E 0 80 4b 00
        E 0 80 58 00
        E 0 90 56 60
        E 1 80 64 00
        E 0 90 62 60
        E 119 80 56 00
        E 1 80 62 00
        E 239 90 49 60
        E 0 90 56 60
        E 0 90 62 60
        E 120 80 49 00
        E 0 80 56 00
        E 0 80 62 00
        E 0 90 61 60
        E 120 80 61 00
        E 0 90 3c 60
        E 0 90 49 60
        E 0 90 56 60
        E 0 90 62 60
        E 120 80 3c 00
        E 0 80 49 00
        E 0 80 56 00
        E 0 80 62 00
        E 0 90 54 60
        E 1 90 60 60
        E 119 80 54 00
        E 1 80 60 00
        E 0 90 62 60
        E 119 90 48 60
        E 0 90 55 60
        E 1 80 62 00
        E 0 90 61 60
        E 119 80 48 00
        E 0 80 55 00
        E 1 80 61 00
        E 119 90 49 60
        E 0 90 56 60
        E 1 90 62 60
        E 119 80 49 00
        E 0 80 56 00
        E 0 90 54 60
        E 1 80 62 00
        E 0 90 60 60
        E 119 80 54 00
        E 1 80 60 00
        E 0 90 62 60
        E 119 90 3d 60
        E 0 90 4a 60
        E 0 90 57 60
        E 1 80 62 00
        E 0 90 63 60
        E 119 80 3d 00
        E 0 80 4a 00
        E 0 80 57 00
        E 0 90 56 60
        E 1 80 63 00
        E 0 90 62 60
        E 119 80 56 00
        E 0 90 3e 60
        E 0 90 4b 60
        E 0 90 58 60
        E 1 80 62 00
        E 0 90 64 60
        E 119 80 3e 00
        E 0 80 4b 00
        E 0 80 58 00
        E 0 90 56 60
        E 1 80 64 00
        E 0 90 62 60
        E 119 80 56 00
        E 1 80 62 00
        E 239 90 49 60
        E 0 90 56 60
        E 0 90 62 60
        E 120 80 49 00
        E 0 80 56 00
        E 0 80 62 00
        E 0 90 61 60
        E 120 80 61 00
        E 0 90 3c 60
        E 0 90 49 60
        E 0 90 56 60
        E 0 90 62 60
        E 120 80 3c 00
        E 0 80 49 00
        E 0 80 56 00
        E 0 80 62 00
        E 0 90 54 60
        E 1 90 60 60
        E 119 80 54 00
        E 1 80 60 00
        E 0 90 62 60
        E 119 90 48 60
        E 0 90 55 60
        E 1 80 62 00
        E 0 90 61 60
        E 119 80 48 00
        E 0 80 55 00
        E 1 80 61 00
        E 119 90 49 60
        E 0 90 56 60
        E 1 90 62 60
        E 119 80 49 00
        E 0 80 56 00
        E 0 90 54 60
        E 1 80 62 00
        E 0 90 60 60
        E 119 80 54 00
        E 1 80 60 00
        E 0 90 62 60
        E 119 90 3d 60
        E 0 90 4a 60
        E 0 90 57 60
        E 1 80 62 00
        E 0 90 63 60
        E 119 80 3d 00
        E 0 80 4a 00
        E 0 80 57 00
        E 0 90 56 60
        E 1 80 63 00
        E 0 90 62 60
        E 119 80 56 00
        E 0 90 3e 60
        E 0 90 4b 60
        E 0 90 58 60
        E 1 80 62 00
        E 0 90 64 60
        E 119 80 3e 00
        E 0 80 4b 00
        E 0 80 58 00
        E 0 90 56 60
        E 1 80 64 00
        E 0 90 62 60
        E 119 80 56 00
        E 1 80 62 00
        E 239 90 49 60
        E 0 90 56 60
        E 0 90 62 60
        E 120 80 49 00
        E 0 80 56 00
        E 0 80 62 00
        E 0 90 61 60
        E 120 80 61 00
        E 0 90 3c 60
        E 0 90 49 60
        E 0 90 56 60
        E 0 90 62 60
        E 120 80 3c 00
        E 0 80 49 00
        E 0 80 56 00
        E 0 80 62 00
        E 0 90 54 60
        E 1 90 60 60
        E 119 80 54 00
        E 1 80 60 00
        E 0 90 62 60
        E 119 90 48 60
        E 0 90 55 60
        E 1 80 62 00
        E 0 90 61 60
        E 119 80 48 00
        E 0 80 55 00
        E 1 80 61 00
        E 119 90 49 60
        E 0 90 56 60
        E 1 90 62 60
        E 119 80 49 00
        E 0 80 56 00
        E 0 90 54 60
        E 1 80 62 00
        E 0 90 60 60
        E 119 80 54 00
        E 1 80 60 00
        E 0 90 62 60
        E 119 90 3d 60
        E 0 90 4a 60
        E 0 90 57 60
        E 1 80 62 00
        E 0 90 63 60
        E 119 80 3d 00
        E 0 80 4a 00
        E 0 80 57 00
        E 0 90 56 60
        E 1 80 63 00
        E 0 90 62 60
        E 119 80 56 00
        E 0 90 3e 60
        E 0 90 4b 60
        E 0 90 58 60
        E 1 80 62 00
        E 0 90 64 60
        E 119 80 3e 00
        E 0 80 4b 00
        E 0 80 58 00
        E 0 90 56 60
        E 1 80 64 00
        E 0 90 62 60
        E 119 80 56 00
        E 1 80 62 00
        E 239 90 49 60
        E 0 90 56 60
        E 0 90 62 60
        E 120 80 49 00
        E 0 80 56 00
        E 0 80 62 00
        E 0 90 61 60
        E 120 80 61 00
        E 0 90 3c 60
        E 0 90 49 60
        E 0 90 56 60
        E 0 90 62 60
        E 120 80 3c 00
        E 0 80 49 00
        E 0 80 56 00
        E 0 80 62 00
        E 0 90 54 60
        E 1 90 60 60
        E 119 80 54 00
        E 1 80 60 00
        E 0 90 62 60
        E 119 90 48 60
        E 0 90 55 60
        E 1 80 62 00
        E 0 90 61 60
        E 119 80 48 00
        E 0 80 55 00
        E 1 80 61 00
        E 119 90 49 60
        E 0 90 56 60
        E 1 90 62 60
        E 119 80 49 00
        E 0 80 56 00
        E 0 90 54 60
        E 1 80 62 00
        E 0 90 60 60
        E 119 80 54 00
        E 1 80 60 00
        E 0 90 62 60
        E 119 90 3d 60
        E 0 90 4a 60
        E 0 90 57 60
        E 1 80 62 00
        E 0 90 63 60
        E 119 80 3d 00
        E 0 80 4a 00
        E 0 80 57 00
        E 0 90 56 60
        E 1 80 63 00
        E 0 90 62 60
        E 119 80 56 00
        E 0 90 3e 60
        E 0 90 4b 60
        E 0 90 58 60
        E 1 80 62 00
        E 0 90 64 60
        E 119 80 3e 00
        E 0 80 4b 00
        E 0 80 58 00
        E 0 90 56 60
        E 1 80 64 00
        E 0 90 62 60
        E 119 80 56 00
        E 1 80 62 00
        E 239 90 49 60
        E 0 90 56 60
        E 0 90 62 60
        E 120 80 49 00
        E 0 80 56 00
        E 0 80 62 00
        E 0 90 61 60
        E 120 80 61 00
        E 0 90 3c 60
        E 0 90 49 60
        E 0 90 56 60
        E 0 90 62 60
        E 120 80 3c 00
        E 0 80 49 00
        E 0 80 56 00
        E 0 80 62 00
        E 0 90 54 60
        E 1 90 60 60
        E 119 80 54 00
        E 1 80 60 00
        E 0 90 62 60
        E 119 90 48 60
        E 0 90 55 60
        E 1 80 62 00
        E 0 90 61 60
        E 119 80 48 00
        E 0 80 55 00
        E 1 80 61 00
        E 119 90 49 60
        E 0 90 56 60
        E 1 90 62 60
        E 119 80 49 00
        E 0 80 56 00
        E 0 90 54 60
        E 1 80 62 00
        E 0 90 60 60
        E 119 80 54 00
        E 1 80 60 00
        E 0 90 62 60
        E 119 90 3d 60
        E 0 90 4a 60
        E 0 90 57 60
        E 1 80 62 00
        E 0 90 63 60
        E 119 80 3d 00
        E 0 80 4a 00
        E 0 80 57 00
        E 0 90 56 60
        E 1 80 63 00
        E 0 90 62 60
        E 119 80 56 00
        E 0 90 3e 60
        E 0 90 4b 60
        E 0 90 58 60
        E 1 80 62 00
        E 0 90 64 60
        E 119 80 3e 00
        E 0 80 4b 00
        E 0 80 58 00
        E 0 90 56 60
        E 1 80 64 00
        E 0 90 62 60
        E 119 80 56 00
        E 1 80 62 00
        E 239 90 49 60
        E 0 90 56 60
        E 0 90 62 60
        E 120 80 49 00
        E 0 80 56 00
        E 0 80 62 00
        E 0 90 61 60
        E 120 80 61 00
        E 0 90 3c 60
        E 0 90 49 60
        E 0 90 56 60
        E 0 90 62 60
        E 120 80 3c 00
        E 0 80 49 00
        E 0 80 56 00
        E 0 80 62 00
        E 0 90 54 60
        E 1 90 60 60
        E 119 80 54 00
        E 1 80 60 00
        E 0 90 62 60
        E 119 90 48 60
        E 0 90 55 60
        E 1 80 62 00
        E 0 90 61 60
        E 119 80 48 00
        E 0 80 55 00
        E 1 80 61 00
        E 119 90 49 60
        E 0 90 56 60
        E 1 90 62 60
        E 119 80 49 00
        E 0 80 56 00
        E 0 90 54 60
        E 1 80 62 00
        E 0 90 60 60
        E 119 80 54 00
        E 1 80 60 00
        E 0 90 62 60
        E 119 90 3d 60
        E 0 90 4a 60
        E 0 90 57 60
        E 1 80 62 00
        E 0 90 63 60
        E 119 80 3d 00
        E 0 80 4a 00
        E 0 80 57 00
        E 0 90 56 60
        E 1 80 63 00
        E 0 90 62 60
        E 119 80 56 00
        E 0 90 3e 60
        E 0 90 4b 60
        E 0 90 58 60
        E 1 80 62 00
        E 0 90 64 60
        E 119 80 3e 00
        E 0 80 4b 00
        E 0 80 58 00
        E 0 90 56 60
        E 1 80 64 00
        E 0 90 62 60
        E 119 80 56 00
        E 1 80 62 00
        E 239 90 49 60
        E 0 90 56 60
        E 0 90 62 60
        E 120 80 49 00
        E 0 80 56 00
        E 0 80 62 00
        E 0 90 61 60
        E 120 80 61 00
        E 0 90 3c 60
        E 0 90 49 60
        E 0 90 56 60
        E 0 90 62 60
        E 120 80 3c 00
        E 0 80 49 00
        E 0 80 56 00
        E 0 80 62 00
        E 0 90 54 60
        E 1 90 60 60
        E 119 80 54 00
        E 1 80 60 00
        E 0 90 62 60
        E 119 90 48 60
        E 0 90 55 60
        E 1 80 62 00
        E 0 90 61 60
        E 119 80 48 00
        E 0 80 55 00
        E 1 80 61 00
        E 119 90 49 60
        E 0 90 56 60
        E 1 90 62 60
        E 119 80 49 00
        E 0 80 56 00
        E 0 90 54 60
        E 1 80 62 00
        E 0 90 60 60
        E 119 80 54 00
        E 1 80 60 00
        E 0 90 62 60
        E 119 90 3d 60
        E 0 90 4a 60
        E 0 90 57 60
        E 1 80 62 00
        E 0 90 63 60
        E 119 80 3d 00
        E 0 80 4a 00
        E 0 80 57 00
        E 0 90 56 60
        E 1 80 63 00
        E 0 90 62 60
        E 119 80 56 00
        E 0 90 3e 60
        E 0 90 4b 60
        E 0 90 58 60
        E 1 80 62 00
        E 0 90 64 60
        E 119 80 3e 00
        E 0 80 4b 00
        E 0 80 58 00
        E 0 90 56 60
        E 1 80 64 00
        E 0 90 62 60
        E 119 80 56 00
        E 1 80 62 00
        E 239 90 49 60
        E 0 90 56 60
        E 0 90 62 60
        E 120 80 49 00
        E 0 80 56 00
        E 0 80 62 00
        E 0 90 61 60
        E 120 80 61 00
        E 0 90 3c 60
        E 0 90 49 60
        E 0 90 56 60
        E 0 90 62 60
        E 0 90 74 60
        E 120 80 3c 00
        E 0 80 49 00
        E 0 80 56 00
        E 0 80 62 00
        E 0 90 54 60
        E 1 90 60 60
        E 119 80 54 00
        E 1 80 60 00
        E 0 90 62 60
        E 119 90 48 60
        E 0 90 55 60
        E 1 80 62 00
        E 0 90 61 60
        E 119 80 48 00
        E 0 80 55 00
        E 1 80 61 00
        E 119 90 49 60
        E 0 90 56 60
        E 1 90 62 60
        E 119 80 49 00
        E 0 80 56 00
        E 0 90 54 60
        E 1 80 62 00
        E 0 90 60 60
        E 119 80 54 00
        E 1 80 60 00
        E 0 90 62 60
        E 119 90 3d 60
        E 0 90 4a 60
        E 0 90 57 60
        E 1 80 62 00
        E 0 90 63 60
        E 119 80 3d 00
        E 0 80 4a 00
        E 0 80 57 00
        E 0 90 56 60
        E 1 80 63 00
        E 0 90 62 60
        E 119 80 56 00
        E 0 90 3e 60
        E 0 90 4b 60
        E 0 90 58 60
        E 1 80 62 00
        E 0 90 64 60
        E 119 80 3e 00
        E 0 80 4b 00
        E 0 80 58 00
        E 0 90 56 60
        E 1 80 64 00
        E 0 90 62 60
        E 119 80 56 00
        E 1 80 62 00
        E 239 90 49 60
        E 0 90 56 60
        E 0 90 62 60
        E 120 80 49 00
        E 0 80 56 00
        E 0 80 62 00
        E 0 90 61 60
        E 120 80 61 00
        E 0 90 3c 60
        E 0 90 49 60
        E 0 90 56 60
        E 0 90 62 60
        E 120 80 74 00
        E 0 80 3c 00
        E 0 80 49 00
        E 0 80 56 00
        E 0 80 62 00
        E 0 90 54 60
        E 1 90 60 60
        E 119 80 54 00
        E 1 80 60 00
        E 0 90 62 60
        E 119 90 48 60
        E 0 90 55 60
        E 1 80 62 00
        E 0 90 61 60
        E 119 80 48 00
        E 0 80 55 00
        E 1 80 61 00
        E 119 90 49 60
        E 0 90 56 60
        E 1 90 62 60
        E 119 80 49 00
        E 0 80 56 00
        E 0 90 54 60
        E 1 80 62 00
        E 0 90 60 60
        E 119 80 54 00
        E 1 80 60 00
        E 0 90 62 60
        E 119 90 3d 60
        E 0 90 4a 60
        E 0 90 57 60
        E 1 80 62 00
        E 0 90 63 60
        E 119 80 3d 00
        E 0 80 4a 00
        E 0 80 57 00
        E 0 90 56 60
        E 1 80 63 00
        E 0 90 62 60
        E 119 80 56 00
        E 0 90 3e 60
        E 0 90 4b 60
        E 0 90 58 60
        E 1 80 62 00
        E 0 90 64 60
        E 119 80 3e 00
        E 0 80 4b 00
        E 0 80 58 00
        E 0 90 56 60
        E 1 80 64 00
        E 0 90 62 60
        E 119 80 56 00
        E 1 80 62 00
        E 239 90 49 60
        E 0 90 56 60
        E 0 90 62 60
        E 120 80 49 00
        E 0 80 56 00
        E 0 80 62 00
        E 0 90 61 60
        E 120 80 61 00
        E 0 90 3e 60
        E 0 90 4b 60
        E 0 90 57 60
        E 0 90 63 60
        E 120 80 3e 00
        E 0 80 4b 00
        E 0 80 57 00
        E 0 80 63 00
        E 120 90 56 60
        E 0 90 62 60
        E 120 80 56 00
        E 0 80 62 00
        E 120 90 3d 60
        E 0 90 49 60
        E 0 90 55 60
        E 0 90 61 60
        E 960 80 3d 00
        E 240 80 49 00
        E 0 80 55 00
        E 0 80 61 00
        E 240 90 3f 60
        E 0 90 4a 60
        E 0 90 4b 60
        E 0 90 56 60
        E 0 90 57 60
        E 0 90 62 60
        E 0 90 63 60
        E 1440 80 3f 00
        E 240 80 4a 00
        E 0 80 4b 00
        E 0 80 56 00
        E 0 80 57 00
        E 0 80 62 00
        E 0 80 63 00
        E 240 90 40 60
        E 0 90 4c 60
        E 0 90 58 60
        E 0 90 64 60
        E 120 80 40 00
        E 0 80 4c 00
        E 0 80 58 00
        E 0 80 64 00
        E 120 90 57 60
        E 0 90 63 60
        E 120 80 57 00
        E 0 80 63 00
        E 120 90 3e 60
        E 0 90 4a 60
        E 0 90 56 60
        E 0 90 62 60
        E 960 80 3e 00
        E 240 80 4a 00
        E 0 80 56 00
        E 120 80 62 00
        E 120 90 3f 60
        E 0 90 49 60
        E 0 90 4b 60
        E 0 90 55 60
        E 0 90 58 60
        E 0 90 61 60
        E 0 90 64 60
        E 1440 80 3f 00
        E 360 80 49 00
        E 0 80 4b 00
        E 0 80 55 00
        E 0 80 58 00
        E 0 80 61 00
        E 0 80 64 00
        E 120 90 54 60
        E 0 90 60 60
        E 0 90 67 60
        E 120 80 54 00
        E 0 80 60 00
        E 0 90 3e 60
        E 0 90 4c 60
        E 0 90 58 60
        E 0 90 64 60
        E 120 80 3e 00
        E 0 80 4c 00
        E 0 80 58 00
        E 0 80 64 00
        E 0 90 61 60
        E 120 80 61 00
        E 0 90 3d 60
        E 0 90 4b 60
        E 0 90 57 60
        E 0 90 63 60
        E 120 80 3d 00
        E 0 80 4b 00
        E 0 80 57 00
        E 0 80 63 00
        E 0 90 55 60
        E 0 90 61 60
        E 120 80 55 00
        E 0 80 61 00
        E 0 90 4a 60
        E 0 90 56 60
        E 0 90 62 60
        E 120 80 4a 00
        E 0 80 56 00
        E 0 80 62 00
        E 0 90 60 60
        E 120 80 60 00
        E 0 90 3c 60
        E 0 90 4a 60
        E 0 90 56 60
        E 0 90 62 60
        E 120 80 3c 00
        E 0 80 4a 00
        E 0 80 56 00
        E 0 80 62 00
        E 0 90 54 60
        E 0 90 60 60
        E 120 80 54 00
        E 0 80 60 00
        E 0 90 3e 60
        E 0 90 4c 60
        E 0 90 58 60
        E 0 90 64 60
        E 120 80 3e 00
        E 0 80 4c 00
        E 0 80 58 00
        E 0 80 64 00
        E 0 90 61 60
        E 120 80 61 00
        E 0 90 3d 60
        E 0 90 4b 60
        E 0 90 57 60
        E 0 90 63 60
        E 120 80 3d 00
        E 0 80 4b 00
        E 0 80 57 00
        E 0 80 63 00
        E 0 90 55 60
        E 0 90 61 60
        E 120 80 55 00
        E 0 80 61 00
        E 0 90 4a 60
        E 0 90 56 60
        E 0 90 62 60
        E 120 80 4a 00
        E 0 80 56 00
        E 0 80 62 00
        E 0 90 60 60
        E 120 80 60 00
        E 0 90 3c 60
        E 0 90 4a 60
        E 0 90 56 60
        E 0 90 62 60
        E 120 80 3c 00
        E 0 80 4a 00
        E 0 80 56 00
        E 0 80 62 00
        E 0 90 54 60
        E 0 90 60 60
        E 120 80 54 00
        E 0 80 60 00
        E 0 90 3e 60
        E 0 90 4c 60
        E 0 90 58 60
        E 0 90 64 60
        E 120 80 3e 00
        E 0 80 4c 00
        E 0 80 58 00
        E 0 80 64 00
        E 0 90 61 60
        E 120 80 61 00
        E 0 90 3d 60
        E 0 90 4b 60
        E 0 90 57 60
        E 0 90 63 60
        E 120 80 3d 00
        E 0 80 4b 00
        E 0 80 57 00
        E 0 80 63 00
        E 0 90 55 60
        E 0 90 61 60
        E 120 80 55 00
        E 0 80 61 00
        E 0 90 4a 60
        E 0 90 56 60
        E 0 90 62 60
        E 120 80 4a 00
        E 0 80 56 00
        E 0 80 62 00
        E 0 90 60 60
        E 120 80 60 00
        E 0 90 3c 60
        E 0 90 4a 60
        E 0 90 56 60
        E 0 90 62 60
        E 120 80 3c 00
        E 0 80 4a 00
        E 0 80 56 00
        E 0 80 62 00
        E 0 90 54 60
        E 0 90 60 60
        E 120 80 54 00
        E 0 80 60 00
        E 0 90 3e 60
        E 0 90 4c 60
        E 0 90 58 60
        E 0 90 64 60
        E 120 80 3e 00
        E 0 80 4c 00
        E 0 80 58 00
        E 0 80 64 00
        E 0 90 61 60
        E 120 80 61 00
        E 0 90 3d 60
        E 0 90 4b 60
        E 0 90 57 60
        E 0 90 63 60
        E 120 80 3d 00
        E 0 80 4b 00
        E 0 80 57 00
        E 0 80 63 00
        E 0 90 55 60
        E 0 90 61 60
        E 120 80 55 00
        E 0 80 61 00
        E 0 90 4a 60
        E 0 90 56 60
        E 0 90 62 60
        E 120 80 4a 00
        E 0 80 56 00
        E 0 80 62 00
        E 0 90 60 60
        E 120 80 60 00
        E 0 90 3c 60
        E 0 90 4a 60
        E 0 90 56 60
        E 0 90 62 60
        E 120 80 3c 00
        E 0 80 4a 00
        E 0 80 56 00
        E 0 80 62 00
        E 0 90 54 60
        E 0 90 60 60
        E 120 80 54 00
        E 0 80 60 00
        E 0 90 3e 60
        E 0 90 4c 60
        E 0 90 58 60
        E 0 90 64 60
        E 120 80 3e 00
        E 0 80 4c 00
        E 0 80 58 00
        E 0 80 64 00
        E 0 90 61 60
        E 120 80 61 00
        E 0 90 3d 60
        E 0 90 4b 60
        E 0 90 57 60
        E 0 90 63 60
        E 120 80 3d 00
        E 0 80 4b 00
        E 0 80 57 00
        E 0 80 63 00
        E 0 90 55 60
        E 0 90 61 60
        E 120 80 55 00
        E 0 80 61 00
        E 0 90 4a 60
        E 0 90 56 60
        E 0 90 62 60
        E 120 80 4a 00
        E 0 80 56 00
        E 0 80 62 00
        E 0 90 60 60
        E 120 80 60 00
        E 0 90 3c 60
        E 0 90 4a 60
        E 0 90 56 60
        E 0 90 62 60
        E 120 80 3c 00
        E 0 80 4a 00
        E 0 80 56 00
        E 0 80 62 00
        E 0 90 54 60
        E 0 90 60 60
        E 120 80 54 00
        E 0 80 60 00
        E 0 90 3e 60
        E 0 90 4c 60
        E 0 90 58 60
        E 0 90 64 60
        E 120 80 3e 00
        E 0 80 4c 00
        E 0 80 58 00
        E 0 80 64 00
        E 0 90 61 60
        E 120 80 61 00
        E 0 90 3d 60
        E 0 90 4b 60
        E 0 90 57 60
        E 0 90 63 60
        E 120 80 3d 00
        E 0 80 4b 00
        E 0 80 57 00
        E 0 80 63 00
        E 0 90 55 60
        E 0 90 61 60
        E 120 80 55 00
        E 0 80 61 00
        E 0 90 4a 60
        E 0 90 56 60
        E 0 90 62 60
        E 120 80 4a 00
        E 0 80 56 00
        E 0 80 62 00
        E 0 90 60 60
        E 120 80 60 00
        E 0 90 3c 60
        E 0 90 4a 60
        E 0 90 56 60
        E 0 90 62 60
        E 120 80 3c 00
        E 0 80 4a 00
        E 0 80 56 00
        E 0 80 62 00
        E 0 90 54 60
        E 0 90 60 60
        E 120 80 54 00
        E 0 80 60 00
        E 0 90 3e 60
        E 0 90 4c 60
        E 0 90 58 60
        E 0 90 64 60
        E 120 80 3e 00
        E 0 80 4c 00
        E 0 80 58 00
        E 0 80 64 00
        E 0 90 61 60
        E 120 80 61 00
        E 0 90 3d 60
        E 0 90 4b 60
        E 0 90 57 60
        E 0 90 63 60
        E 120 80 3d 00
        E 0 80 4b 00
        E 0 80 57 00
        E 0 80 63 00
        E 0 90 55 60
        E 0 90 61 60
        E 120 80 55 00
        E 0 80 61 00
        E 0 90 4a 60
        E 0 90 56 60
        E 0 90 62 60
        E 120 80 4a 00
        E 0 80 56 00
        E 0 80 62 00
        E 0 90 60 60
        E 120 80 60 00
        E 0 90 3c 60
        E 0 90 4a 60
        E 0 90 56 60
        E 0 90 62 60
        E 120 80 3c 00
        E 0 80 4a 00
        E 0 80 56 00
        E 0 80 62 00
        E 0 90 54 60
        E 0 90 60 60
        E 120 80 54 00
        E 0 80 60 00
        E 0 90 3e 60
        E 0 90 4c 60
        E 0 90 58 60
        E 0 90 64 60
        E 120 80 3e 00
        E 0 80 4c 00
        E 0 80 58 00
        E 0 80 64 00
        E 0 90 61 60
        E 120 80 61 00
        E 0 90 3d 60
        E 0 90 4b 60
        E 0 90 57 60
        E 0 90 63 60
        E 120 80 3d 00
        E 0 80 4b 00
        E 0 80 57 00
        E 0 80 63 00
        E 0 90 55 60
        E 0 90 61 60
        E 120 80 55 00
        E 0 80 61 00
        E 0 90 4a 60
        E 0 90 56 60
        E 0 90 62 60
        E 120 80 4a 00
        E 0 80 56 00
        E 0 80 62 00
        E 0 90 60 60
        E 120 80 60 00
        E 0 90 3c 60
        E 0 90 4a 60
        E 0 90 56 60
        E 0 90 62 60
        E 120 80 3c 00
        E 0 80 4a 00
        E 0 80 56 00
        E 0 80 62 00
        E 0 90 54 60
        E 0 90 60 60
        E 120 80 54 00
        E 0 80 60 00
        E 0 90 3e 60
        E 0 90 4c 60
        E 0 90 58 60
        E 0 90 64 60
        E 120 80 3e 00
        E 0 80 4c 00
        E 0 80 58 00
        E 0 80 64 00
        E 0 90 61 60
        E 120 80 61 00
        E 0 90 3d 60
        E 0 90 4b 60
        E 0 90 57 60
        E 0 90 63 60
        E 120 80 3d 00
        E 0 80 4b 00
        E 0 80 57 00
        E 0 80 63 00
        E 0 90 55 60
        E 0 90 61 60
        E 120 80 55 00
        E 0 80 61 00
        E 0 90 4a 60
        E 0 90 56 60
        E 0 90 62 60
        E 120 80 4a 00
        E 0 80 56 00
        E 0 80 62 00
        E 0 90 60 60
        E 120 80 60 00
        E 0 90 3c 60
        E 0 90 4a 60
        E 0 90 56 60
        E 0 90 62 60
        E 120 80 3c 00
        E 0 80 4a 00
        E 0 80 56 00
        E 0 80 62 00
        E 0 90 54 60
        E 0 90 60 60
        E 120 80 54 00
        E 0 80 60 00
        E 0 90 3e 60
        E 0 90 4c 60
        E 0 90 58 60
        E 0 90 64 60
        E 120 80 3e 00
        E 0 80 4c 00
        E 0 80 58 00
        E 0 80 64 00
        E 0 90 61 60
        E 120 80 61 00
        E 0 90 3d 60
        E 0 90 4b 60
        E 0 90 57 60
        E 0 90 63 60
        E 120 80 3d 00
        E 0 80 4b 00
        E 0 80 57 00
        E 0 80 63 00
        E 0 90 55 60
        E 0 90 61 60
        E 120 80 55 00
        E 0 80 61 00
        E 0 90 4a 60
        E 0 90 56 60
        E 0 90 62 60
        E 120 80 4a 00
        E 0 80 56 00
        E 0 80 62 00
        E 0 90 60 60
        E 120 80 60 00
        E 0 90 3c 60
        E 0 90 4a 60
        E 0 90 56 60
        E 0 90 62 60
        E 120 80 3c 00
        E 0 80 4a 00
        E 0 80 56 00
        E 0 80 62 00
        E 0 90 54 60
        E 0 90 60 60
        E 120 80 54 00
        E 0 80 60 00
        E 0 90 3e 60
        E 0 90 4c 60
        E 0 90 58 60
        E 0 90 64 60
        E 120 80 3e 00
        E 0 80 4c 00
        E 0 80 58 00
        E 0 80 64 00
        E 0 90 61 60
        E 120 80 61 00
        E 0 90 3d 60
        E 0 90 4b 60
        E 0 90 57 60
        E 0 90 63 60
        E 120 80 3d 00
        E 0 80 4b 00
        E 0 80 57 00
        E 0 80 63 00
        E 0 90 55 60
        E 0 90 61 60
        E 120 80 55 00
        E 0 80 61 00
        E 0 90 4a 60
        E 0 90 56 60
        E 0 90 62 60
        E 120 80 4a 00
        E 0 80 56 00
        E 0 80 62 00
        E 0 90 60 60
        E 120 80 60 00
        E 0 90 3c 60
        E 0 90 4a 60
        E 0 90 56 60
        E 0 90 62 60
        E 120 80 3c 00
        E 0 80 4a 00
        E 0 80 56 00
        E 0 80 62 00
        E 0 90 54 60
        E 0 90 60 60
        E 120 80 54 00
        E 0 80 60 00
        E 0 90 3e 60
        E 0 90 4c 60
        E 0 90 58 60
        E 0 90 64 60
        E 120 80 3e 00
        E 0 80 4c 00
        E 0 80 58 00
        E 0 80 64 00
        E 0 90 61 60
        E 120 80 61 00
        E 0 90 3d 60
        E 0 90 4b 60
        E 0 90 57 60
        E 0 90 63 60
        E 120 80 3d 00
        E 0 80 4b 00
        E 0 80 57 00
        E 0 80 63 00
        E 0 90 55 60
        E 0 90 61 60
        E 120 80 55 00
        E 0 80 61 00
        E 0 90 4a 60
        E 0 90 56 60
        E 0 90 62 60
        E 120 80 4a 00
        E 0 80 56 00
        E 0 80 62 00
        E 0 90 60 60
        E 120 80 60 00
        E 0 90 3c 60
        E 0 90 4a 60
        E 0 90 56 60
        E 0 90 62 60
        E 120 80 3c 00
        E 0 80 4a 00
        E 0 80 56 00
        E 0 80 62 00
        E 0 90 54 60
        E 0 90 60 60
        E 120 80 54 00
        E 0 80 60 00
        E 0 90 3e 60
        E 0 90 4c 60
        E 0 90 58 60
        E 0 90 64 60
        E 120 80 3e 00
        E 0 80 4c 00
        E 0 80 58 00
        E 0 80 64 00
        E 0 90 61 60
        E 120 80 61 00
        E 0 90 3d 60
        E 0 90 4b 60
        E 0 90 57 60
        E 0 90 63 60
        E 120 80 3d 00
        E 0 80 4b 00
        E 0 80 57 00
        E 0 80 63 00
        E 0 90 55 60
        E 0 90 61 60
        E 120 80 55 00
        E 0 80 61 00
        E 0 90 4a 60
        E 0 90 56 60
        E 0 90 62 60
        E 120 80 4a 00
        E 0 80 56 00
        E 0 80 62 00
        E 0 90 60 60
        E 120 80 60 00
        E 0 90 3c 60
        E 0 90 4a 60
        E 0 90 56 60
        E 0 90 62 60
        E 120 80 3c 00
        E 0 80 4a 00
        E 0 80 56 00
        E 0 80 62 00
        E 0 90 54 60
        E 0 90 60 60
        E 120 80 54 00
        E 0 80 60 00
        E 0 90 3e 60
        E 0 90 4c 60
        E 0 90 58 60
        E 0 90 64 60
        E 120 80 3e 00
        E 0 80 4c 00
        E 0 80 58 00
        E 0 80 64 00
        E 0 90 61 60
        E 120 80 61 00
        E 0 90 3d 60
        E 0 90 4b 60
        E 0 90 57 60
        E 0 90 63 60
        E 120 80 3d 00
        E 0 80 4b 00
        E 0 80 57 00
        E 0 80 63 00
        E 0 90 55 60
        E 0 90 61 60
        E 120 80 55 00
        E 0 80 61 00
        E 0 90 4a 60
        E 0 90 56 60
        E 0 90 62 60
        E 120 80 4a 00
        E 0 80 56 00
        E 0 80 62 00
        E 0 90 60 60
        E 120 80 60 00
        E 0 90 3c 60
        E 0 90 4a 60
        E 0 90 56 60
        E 0 90 62 60
        E 1320 80 67 00
        E 0 80 3c 00
        E 0 80 4a 00
        E 0 80 56 00
        E 0 80 62 00
        <X 480 0
          /wFbaWRsZV9yZWFsdGltZV0=
        >
        E 2160 b0 7b 00
        GUID {71D95323-5C8A-4043-B4A6-3FB708B570E2}
        IGNTEMPO 0 120.00000000 4 4
        SRCCOLOR 38
        VELLANE 132 128 128
        COLORMAP "C:\Program Files\REAPER (x64)\Data\color_maps\rockband_guitarbass.png"
        CFGEDITVIEW -7366.912665 6.865074 0 15 0 0 0
        CFGEDIT 1 1 0 1 1 0 1 1 1 1 1 0.25000000 -8 -8 1548 876 0 2 1 1 0.00000000 0 1 0 0 0.500000 0 0 1.000000 64
        KEYSNAP 0 9 "102034050607" 0 "Major"
        EVTFILTER 0 -1 -1 -1 -1 0 1 0 0 -1.00000000 -1.00000000
      >
    >
  >
  <TRACK '{312D3F87-ECF7-4D09-9D1C-25937703DD44}'
    NAME "PART REAL_KEYS_X"
    PEAKCOL 16576
    BEAT -1
    AUTOMODE 0
    VOLPAN 1.00000000000000 0.00000000000000 -1.00000000000000 -1.00000000000000 1.00000000000000
    MUTESOLO 0 0 0
    IPHASE 0
    ISBUS 0 0
    BUSCOMP 0 0
    SHOWINMIX 1 0.666700 0.500000 1 0.500000 -1 -1 -1
    FREEMODE 0
    SEL 0
    REC 0 0 0 0 0 0 0
    VU 2
    TRACKHEIGHT 0 0
    INQ 0 0 0 0.5000000000 100 0 0 100
    NCHAN 2
    FX 0
    TRACKID {312D3F87-ECF7-4D09-9D1C-25937703DD44}
    PERF 0
    MIDIOUT -1
    <MIDINOTENAMES
      0 127 "TRILL MARKER"
      0 126 "GLISSANDO MARKER"
      0 125 "---"
      0 116 "OVERDRIVE"
      0 115 "SOLO"
      0 114 "---"
      0 72 "Highest playable note B#3"
      0 71 "B3"
      0 70 "A#3"
      0 69 "A3"
      0 68 "G#3"
      0 67 "G3"
      0 66 "F#3"
      0 65 "F3"
      0 64 "E3"
      0 63 "D#3"
      0 62 "D3"
      0 61 "C#3"
      0 60 "C3"
      0 59 "B2"
      0 58 "A#2"
      0 57 "A2"
      0 56 "G#2"
      0 55 "G2"
      0 54 "F#2"
      0 53 "F2"
      0 52 "E2"
      0 51 "D#2"
      0 50 "D2"
      0 49 "C#2"
      0 48 "Lowest playable note C2"
      0 10 "---"
      0 9 "Range A2-C4"
      0 8 "Range"
      0 7 "Range"
      0 6 "Range"
      0 5 "Range F2-A3"
      0 4 "Range"
      0 3 "Range"
      0 2 "Range"
      0 1 "Range"
      0 0 "Range C2-E3"
    >
    MAINSEND 1 0
    <FXCHAIN
      WNDRECT 615 136 716 467
      SHOW 0
      LASTSEL 1
      DOCKED 0
      BYPASS 0 0
      <JS "MIDI/midi_note_filter" ""
        48.000000 72.000000 - - - - - - - - - - - - - - - - - - - - - - - - - - - - - - - - - - - - - - - - - - - - - - - - - - - - - - - - - - - - - - 
      >
      FLOATPOS 0 0 0 0
      FXID {CDFA09D5-CFE7-4545-940B-6E172A8C9EC4}
      WAK 0
      BYPASS 0 0
      <VST "VSTi: ReaSynth (Cockos)" "reasynth.dll" 0 ""
        eXNlcu9e7f4AAAAAAgAAAAEAAAAAAAAAAgAAAAAAAAA4AAAAAAAAAA==
        AAAQAO++rd4N8K3eppvEOxe30TrJdj4/AAAAAAAAgD/Mm4A+qzcePQ==
        AAAAAAAAAD8AAAAAAACAPwAAAD8AABAAAAA=
      >
      FLOATPOS 0 0 0 0
      FXID {06C7B248-8F5B-4843-B20A-BB6C73E45CA8}
      WAK 0
    >
    <ITEM
      POSITION 0.00000000000000
      SNAPOFFS 0.00000000000000
      LENGTH 163.46881417504329
      LOOP 0
      ALLTAKES 0
      SEL 0
      FADEIN 1 0.000000 0.000000 1 0
      FADEOUT 1 0.000000 0.000000 1 0
      MUTE 0
      IGUID {90D0A36B-B936-4EC2-B465-3A8C41C6813D}
      IID 4
      NAME "PART REAL_KEYS_X"
      VOLPAN 1.000000 0.000000 1.000000 -1.000000
      SOFFS 0.00000000000000 0.00000000000000
      PLAYRATE 1.00000000000000 1 0.00000000000000 -1
      CHANMODE 0
      GUID {9DC64D67-B6A9-4B06-90AB-9C9559198F85}
      <SOURCE MIDI
        HASDATA 1 480 QN
        POOLEDEVTS {28DC6306-CDAB-484C-BF89-CEFB4CBC7A24}
        <X 0 0
          /wNQQVJUIFJFQUxfS0VZU19Y
        >
        E 0 90 00 60
        E 120 80 00 00
        <X 3720 0
          /wFbYmVnaW5fa2V5IHNvbmdfdHJhaW5lcl9rZXlfMV0=
        >
        E 0 90 37 60
        E 120 80 37 00
        E 0 90 32 60
        E 120 80 32 00
        E 0 90 37 60
        E 120 80 37 00
        E 0 90 34 60
        E 120 80 34 00
        E 120 90 37 60
        E 120 80 37 00
        E 0 90 32 60
        E 120 80 32 00
        E 0 90 37 60
        <X 120 0
          /wFba2V5X25vcm0gc29uZ190cmFpbmVyX2tleV8xXQ==
        >
        E 0 80 37 00
        E 0 90 3e 60
        E 120 80 3e 00
        E 0 90 37 60
        E 120 80 37 00
        E 0 90 40 60
        E 120 80 40 00
        E 0 90 37 60
        E 120 80 37 00
        E 240 90 37 60
        E 120 80 37 00
        E 0 90 34 60
        E 120 80 34 00
        E 0 90 37 60
        E 120 80 37 00
        E 0 90 32 60
        E 120 80 32 00
        E 0 90 37 60
        E 120 80 37 00
        E 0 90 34 60
        E 120 80 34 00
        E 120 90 37 60
        E 120 80 37 00
        E 0 90 32 60
        E 120 80 32 00
        E 0 90 37 60
        E 120 80 37 00
        E 0 90 3e 60
        E 120 80 3e 00
        E 0 90 37 60
        E 120 80 37 00
        E 0 90 40 60
        E 120 80 40 00
        E 0 90 37 60
        E 120 80 37 00
        E 240 90 37 60
        E 120 80 37 00
        E 0 90 34 60
        <X 120 0
          /wFbZW5kX2tleSBzb25nX3RyYWluZXJfa2V5XzFd
        >
        E 0 80 34 00
        E 0 90 37 60
        E 120 80 37 00
        E 0 90 32 60
        E 120 80 32 00
        E 0 90 37 60
        E 120 80 37 00
        E 0 90 34 60
        E 120 80 34 00
        E 120 90 37 60
        E 120 80 37 00
        E 0 90 32 60
        E 120 80 32 00
        E 0 90 37 60
        E 120 80 37 00
        E 0 90 3e 60
        E 120 80 3e 00
        E 0 90 37 60
        E 120 80 37 00
        E 0 90 40 60
        E 120 80 40 00
        E 0 90 37 60
        E 120 80 37 00
        E 240 90 37 60
        E 120 80 37 00
        E 0 90 34 60
        E 120 80 34 00
        E 0 90 37 60
        E 0 90 74 60
        E 120 80 37 00
        E 0 90 32 60
        E 120 80 32 00
        E 0 90 37 60
        E 120 80 37 00
        E 0 90 34 60
        E 120 80 34 00
        E 120 90 37 60
        E 120 80 37 00
        E 0 90 32 60
        E 120 80 32 00
        E 0 90 37 60
        E 120 80 37 00
        E 0 90 3e 60
        E 120 80 3e 00
        E 0 90 37 60
        E 120 80 37 00
        E 0 90 40 60
        E 120 80 40 00
        E 0 90 37 60
        E 120 80 37 00
        E 240 90 37 60
        E 120 80 37 00
        E 0 90 34 60
        E 120 80 34 00
        E 0 90 37 60
        E 120 80 74 00
        E 0 80 37 00
        E 0 90 32 60
        E 120 80 32 00
        E 0 90 37 60
        E 120 80 37 00
        E 0 90 34 60
        E 120 80 34 00
        E 120 90 37 60
        E 120 80 37 00
        E 0 90 32 60
        E 120 80 32 00
        E 0 90 37 60
        E 120 80 37 00
        E 0 90 3e 60
        E 120 80 3e 00
        E 0 90 37 60
        E 120 80 37 00
        E 0 90 40 60
        E 120 80 40 00
        E 0 90 37 60
        E 120 80 37 00
        E 240 90 37 60
        E 120 80 37 00
        E 0 90 34 60
        E 120 80 34 00
        E 0 90 37 60
        E 120 80 37 00
        E 0 90 32 60
        E 120 80 32 00
        E 0 90 37 60
        E 120 80 37 00
        E 0 90 34 60
        E 120 80 34 00
        E 120 90 37 60
        E 120 80 37 00
        E 0 90 32 60
        E 120 80 32 00
        E 0 90 37 60
        E 120 80 37 00
        E 0 90 3e 60
        E 120 80 3e 00
        E 0 90 37 60
        E 120 80 37 00
        E 0 90 40 60
        E 120 80 40 00
        E 0 90 37 60
        E 120 80 37 00
        E 240 90 37 60
        E 120 80 37 00
        E 0 90 34 60
        E 120 80 34 00
        E 0 90 37 60
        E 120 80 37 00
        E 0 90 32 60
        E 120 80 32 00
        E 0 90 37 60
        E 120 80 37 00
        E 0 90 34 60
        E 120 80 34 00
        E 120 90 37 60
        E 120 80 37 00
        E 0 90 32 60
        E 120 80 32 00
        E 0 90 37 60
        E 120 80 37 00
        E 0 90 3e 60
        E 120 80 3e 00
        E 0 90 37 60
        E 120 80 37 00
        E 0 90 40 60
        E 120 80 40 00
        E 0 90 37 60
        E 120 80 37 00
        E 240 90 37 60
        E 120 80 37 00
        E 0 90 34 60
        E 120 80 34 00
        E 0 90 37 60
        E 120 80 37 00
        E 0 90 32 60
        E 120 80 32 00
        E 0 90 37 60
        E 120 80 37 00
        E 0 90 34 60
        E 120 80 34 00
        E 120 90 37 60
        E 120 80 37 00
        E 0 90 32 60
        E 120 80 32 00
        E 0 90 37 60
        E 120 80 37 00
        E 0 90 3e 60
        E 120 80 3e 00
        E 0 90 37 60
        E 120 80 37 00
        E 0 90 40 60
        E 120 80 40 00
        E 0 90 37 60
        E 120 80 37 00
        E 240 90 37 60
        E 120 80 37 00
        E 0 90 34 60
        E 120 80 34 00
        E 0 90 37 60
        E 120 80 37 00
        E 0 90 32 60
        E 120 80 32 00
        E 0 90 37 60
        E 120 80 37 00
        E 0 90 34 60
        E 120 80 34 00
        E 120 90 37 60
        E 120 80 37 00
        E 0 90 32 60
        E 120 80 32 00
        E 0 90 37 60
        E 120 80 37 00
        E 0 90 3e 60
        E 120 80 3e 00
        E 0 90 37 60
        E 120 80 37 00
        E 0 90 40 60
        E 120 80 40 00
        E 0 90 37 60
        E 120 80 37 00
        E 240 90 37 60
        E 120 80 37 00
        E 0 90 34 60
        E 120 80 34 00
        E 0 90 37 60
        E 120 80 37 00
        E 0 90 32 60
        E 120 80 32 00
        E 0 90 37 60
        E 120 80 37 00
        E 0 90 34 60
        E 120 80 34 00
        E 120 90 37 60
        E 120 80 37 00
        E 0 90 32 60
        E 120 80 32 00
        E 0 90 37 60
        E 120 80 37 00
        E 0 90 3e 60
        E 120 80 3e 00
        E 0 90 37 60
        E 120 80 37 00
        E 0 90 40 60
        E 120 80 40 00
        E 0 90 37 60
        E 120 80 37 00
        E 240 90 37 60
        E 120 80 37 00
        E 0 90 34 60
        E 120 80 34 00
        E 0 90 37 60
        E 120 80 37 00
        E 0 90 32 60
        E 120 80 32 00
        E 0 90 37 60
        E 120 80 37 00
        E 0 90 34 60
        E 120 80 34 00
        E 120 90 37 60
        E 120 80 37 00
        E 0 90 32 60
        E 120 80 32 00
        E 0 90 37 60
        E 120 80 37 00
        E 0 90 3e 60
        E 120 80 3e 00
        E 0 90 37 60
        E 120 80 37 00
        E 0 90 40 60
        E 120 80 40 00
        E 0 90 37 60
        E 120 80 37 00
        E 240 90 37 60
        E 120 80 37 00
        E 0 90 34 60
        E 120 80 34 00
        E 0 90 37 60
        E 0 90 74 60
        E 120 80 37 00
        E 0 90 32 60
        E 120 80 32 00
        E 0 90 37 60
        E 120 80 37 00
        E 0 90 34 60
        E 120 80 34 00
        E 120 90 37 60
        E 120 80 37 00
        E 0 90 32 60
        E 120 80 32 00
        E 0 90 37 60
        E 120 80 37 00
        E 0 90 3e 60
        E 120 80 3e 00
        E 0 90 37 60
        E 120 80 37 00
        E 0 90 40 60
        E 120 80 40 00
        E 0 90 37 60
        E 120 80 37 00
        E 240 90 37 60
        E 120 80 37 00
        E 0 90 34 60
        E 120 80 34 00
        E 0 90 37 60
        E 120 80 74 00
        E 0 80 37 00
        E 0 90 32 60
        E 120 80 32 00
        E 0 90 37 60
        E 120 80 37 00
        E 0 90 34 60
        E 120 80 34 00
        E 120 90 37 60
        E 120 80 37 00
        E 0 90 32 60
        E 120 80 32 00
        E 0 90 37 60
        E 120 80 37 00
        E 0 90 3e 60
        E 120 80 3e 00
        E 0 90 37 60
        E 120 80 37 00
        E 0 90 40 60
        E 120 80 40 00
        E 0 90 37 60
        E 120 80 37 00
        E 240 90 37 60
        E 120 80 37 00
        E 0 90 34 60
        E 120 80 34 00
        E 0 90 37 60
        E 120 80 37 00
        E 0 90 32 60
        E 120 80 32 00
        E 0 90 37 60
        E 120 80 37 00
        E 0 90 34 60
        E 120 80 34 00
        E 120 90 37 60
        E 120 80 37 00
        E 0 90 32 60
        E 120 80 32 00
        E 0 90 37 60
        E 120 80 37 00
        E 0 90 3e 60
        E 120 80 3e 00
        E 0 90 37 60
        E 120 80 37 00
        E 0 90 40 60
        E 120 80 40 00
        E 0 90 37 60
        E 120 80 37 00
        E 240 90 37 60
        E 120 80 37 00
        E 0 90 34 60
        E 120 80 34 00
        E 0 90 37 60
        E 120 80 37 00
        E 0 90 32 60
        E 120 80 32 00
        E 0 90 37 60
        E 120 80 37 00
        E 0 90 34 60
        E 120 80 34 00
        E 120 90 37 60
        E 120 80 37 00
        E 0 90 32 60
        E 120 80 32 00
        E 0 90 37 60
        E 120 80 37 00
        E 0 90 3e 60
        E 120 80 3e 00
        E 0 90 37 60
        E 120 80 37 00
        E 0 90 40 60
        E 120 80 40 00
        E 0 90 37 60
        E 120 80 37 00
        E 240 90 37 60
        E 120 80 37 00
        E 0 90 34 60
        E 120 80 34 00
        E 0 90 37 60
        E 120 80 37 00
        E 0 90 32 60
        E 120 80 32 00
        E 0 90 37 60
        E 120 80 37 00
        E 0 90 34 60
        E 120 80 34 00
        E 120 90 37 60
        E 120 80 37 00
        E 0 90 32 60
        E 120 80 32 00
        E 0 90 37 60
        E 120 80 37 00
        E 0 90 3e 60
        E 120 80 3e 00
        E 0 90 37 60
        E 120 80 37 00
        E 0 90 40 60
        E 120 80 40 00
        E 0 90 37 60
        E 120 80 37 00
        E 240 90 37 60
        E 120 80 37 00
        E 0 90 34 60
        E 120 80 34 00
        E 0 90 37 60
        E 120 80 37 00
        E 0 90 32 60
        E 120 80 32 00
        E 0 90 37 60
        E 120 80 37 00
        E 0 90 34 60
        E 120 80 34 00
        E 120 90 37 60
        E 120 80 37 00
        E 0 90 32 60
        E 120 80 32 00
        E 0 90 37 60
        E 120 80 37 00
        E 0 90 3e 60
        E 120 80 3e 00
        E 0 90 37 60
        E 120 80 37 00
        E 0 90 40 60
        E 120 80 40 00
        E 0 90 37 60
        E 120 80 37 00
        E 240 90 37 60
        E 120 80 37 00
        E 0 90 34 60
        E 120 80 34 00
        E 0 90 37 60
        E 120 80 37 00
        E 0 90 32 60
        E 120 80 32 00
        E 0 90 37 60
        E 120 80 37 00
        E 0 90 34 60
        E 120 80 34 00
        E 120 90 37 60
        E 120 80 37 00
        E 0 90 32 60
        E 120 80 32 00
        E 0 90 37 60
        E 120 80 37 00
        E 0 90 3e 60
        E 120 80 3e 00
        E 0 90 37 60
        E 120 80 37 00
        E 0 90 40 60
        E 120 80 40 00
        E 0 90 37 60
        E 120 80 37 00
        E 240 90 37 60
        E 120 80 37 00
        E 0 90 34 60
        E 120 80 34 00
        E 0 90 37 60
        E 120 80 37 00
        E 0 90 32 60
        E 120 80 32 00
        E 0 90 37 60
        E 120 80 37 00
        E 0 90 34 60
        E 120 80 34 00
        E 120 90 37 60
        E 120 80 37 00
        E 0 90 32 60
        E 120 80 32 00
        E 0 90 37 60
        E 120 80 37 00
        E 0 90 3e 60
        E 120 80 3e 00
        E 0 90 37 60
        E 120 80 37 00
        E 0 90 40 60
        E 120 80 40 00
        E 0 90 37 60
        E 120 80 37 00
        E 240 90 37 60
        E 120 80 37 00
        E 0 90 34 60
        E 120 80 34 00
        E 0 90 37 60
        E 120 80 37 00
        E 0 90 32 60
        E 120 80 32 00
        E 0 90 37 60
        E 120 80 37 00
        E 0 90 34 60
        E 120 80 34 00
        E 120 90 37 60
        E 120 80 37 00
        E 0 90 32 60
        E 120 80 32 00
        E 0 90 37 60
        E 120 80 37 00
        E 0 90 3e 60
        E 120 80 3e 00
        E 0 90 37 60
        E 120 80 37 00
        E 0 90 40 60
        E 120 80 40 00
        E 0 90 37 60
        E 120 80 37 00
        E 240 90 37 60
        E 120 80 37 00
        E 0 90 34 60
        <X 120 0
          /wFbYmVnaW5fa2V5IHNvbmdfdHJhaW5lcl9rZXlfMl0=
        >
        E 0 80 34 00
        E 0 90 3c 60
        E 120 80 3c 00
        E 120 90 3b 60
        E 120 80 3b 00
        E 120 90 37 60
        E 1200 80 37 00
        <X 240 0
          /wFba2V5X25vcm0gc29uZ190cmFpbmVyX2tleV8yXQ==
        >
        E 0 90 05 60
        E 0 90 39 60
        E 0 90 3e 60
        E 120 80 05 00
        E 1560 80 39 00
        E 0 80 3e 00
        E 240 90 41 60
        E 0 90 74 60
        E 120 80 41 00
        E 120 90 40 60
        E 120 80 40 00
        E 120 90 3c 60
        E 1200 80 3c 00
        E 240 90 00 60
        E 0 90 39 60
        E 0 90 40 60
        E 120 80 00 00
        E 1560 80 39 00
        E 0 80 40 00
        <X 240 0
          /wFbZW5kX2tleSBzb25nX3RyYWluZXJfa2V5XzJd
        >
        <X 0 0
          /wFbYmVnaW5fa2V5IHNvbmdfdHJhaW5lcl9rZXlfM10=
        >
        E 0 90 36 60
        E 120 80 74 00
        E 0 80 36 00
        E 120 90 36 60
        E 120 80 36 00
        E 120 90 32 60
        E 120 80 32 00
        E 0 90 3b 60
        E 120 80 3b 00
        <X 240 0
          /wFba2V5X25vcm0gc29uZ190cmFpbmVyX2tleV8zXQ==
        >
        E 0 90 36 60
        E 120 80 36 00
        E 360 90 32 60
        E 120 80 32 00
        E 240 90 32 60
        E 120 80 32 00
        E 0 90 36 60
        E 120 80 36 00
        E 120 90 36 60
        E 120 80 36 00
        E 120 90 32 60
        E 120 80 32 00
        E 0 90 3b 60
        E 120 80 3b 00
        E 240 90 36 60
        E 120 80 36 00
        E 360 90 32 60
        E 120 80 32 00
        E 240 90 32 60
        <X 120 0
          /wFbZW5kX2tleSBzb25nX3RyYWluZXJfa2V5XzNd
        >
        E 0 80 32 00
        E 0 90 36 60
        E 120 80 36 00
        E 120 90 36 60
        E 120 80 36 00
        E 120 90 32 60
        E 120 80 32 00
        E 0 90 3b 60
        E 120 80 3b 00
        E 240 90 36 60
        E 120 80 36 00
        E 360 90 32 60
        E 120 80 32 00
        E 240 90 32 60
        E 120 80 32 00
        E 0 90 36 60
        E 120 80 36 00
        E 120 90 36 60
        E 120 80 36 00
        E 120 90 32 60
        E 120 80 32 00
        E 0 90 3b 60
        E 120 80 3b 00
        E 240 90 36 60
        E 120 80 36 00
        E 360 90 32 60
        E 120 80 32 00
        E 240 90 32 60
        E 120 80 32 00
        E 0 90 37 60
        E 0 90 74 60
        E 120 80 37 00
        E 0 90 32 60
        E 120 80 32 00
        E 0 90 37 60
        E 120 80 37 00
        E 0 90 34 60
        E 120 80 34 00
        E 120 90 37 60
        E 120 80 37 00
        E 0 90 32 60
        E 120 80 32 00
        E 0 90 37 60
        E 120 80 37 00
        E 0 90 3e 60
        E 120 80 3e 00
        E 0 90 37 60
        E 120 80 37 00
        E 0 90 40 60
        E 120 80 40 00
        E 0 90 37 60
        E 120 80 74 00
        E 0 80 37 00
        E 240 90 37 60
        E 120 80 37 00
        E 0 90 34 60
        E 120 80 34 00
        E 0 90 37 60
        E 120 80 37 00
        E 0 90 32 60
        E 120 80 32 00
        E 0 90 37 60
        E 120 80 37 00
        E 0 90 34 60
        E 120 80 34 00
        E 120 90 37 60
        E 120 80 37 00
        E 0 90 32 60
        E 120 80 32 00
        E 0 90 37 60
        E 120 80 37 00
        E 0 90 3e 60
        E 120 80 3e 00
        E 0 90 37 60
        E 120 80 37 00
        E 0 90 40 60
        E 120 80 40 00
        E 0 90 37 60
        E 120 80 37 00
        E 240 90 37 60
        E 120 80 37 00
        E 0 90 34 60
        E 120 80 34 00
        E 0 90 37 60
        E 120 80 37 00
        E 0 90 32 60
        E 120 80 32 00
        E 0 90 37 60
        E 120 80 37 00
        E 0 90 34 60
        E 120 80 34 00
        E 120 90 37 60
        E 120 80 37 00
        E 0 90 32 60
        E 120 80 32 00
        E 0 90 37 60
        E 120 80 37 00
        E 0 90 3e 60
        E 120 80 3e 00
        E 0 90 37 60
        E 120 80 37 00
        E 0 90 40 60
        E 120 80 40 00
        E 0 90 37 60
        E 120 80 37 00
        E 240 90 37 60
        E 120 80 37 00
        E 0 90 34 60
        E 120 80 34 00
        E 0 90 37 60
        E 120 80 37 00
        E 0 90 32 60
        E 120 80 32 00
        E 0 90 37 60
        E 120 80 37 00
        E 0 90 34 60
        E 120 80 34 00
        E 120 90 37 60
        E 120 80 37 00
        E 0 90 32 60
        E 120 80 32 00
        E 0 90 37 60
        E 120 80 37 00
        E 0 90 3e 60
        E 120 80 3e 00
        E 0 90 37 60
        E 120 80 37 00
        E 0 90 40 60
        E 120 80 40 00
        E 0 90 37 60
        E 120 80 37 00
        E 240 90 37 60
        E 120 80 37 00
        E 0 90 34 60
        E 120 80 34 00
        E 0 90 37 60
        E 120 80 37 00
        E 0 90 32 60
        E 120 80 32 00
        E 0 90 37 60
        E 120 80 37 00
        E 0 90 34 60
        E 120 80 34 00
        E 120 90 37 60
        E 120 80 37 00
        E 0 90 32 60
        E 120 80 32 00
        E 0 90 37 60
        E 120 80 37 00
        E 0 90 3e 60
        E 120 80 3e 00
        E 0 90 37 60
        E 120 80 37 00
        E 0 90 40 60
        E 120 80 40 00
        E 0 90 37 60
        E 120 80 37 00
        E 240 90 37 60
        E 120 80 37 00
        E 0 90 34 60
        E 120 80 34 00
        E 0 90 37 60
        E 120 80 37 00
        E 0 90 32 60
        E 120 80 32 00
        E 0 90 37 60
        E 120 80 37 00
        E 0 90 34 60
        E 120 80 34 00
        E 120 90 37 60
        E 120 80 37 00
        E 0 90 32 60
        E 120 80 32 00
        E 0 90 37 60
        E 120 80 37 00
        E 0 90 3e 60
        E 120 80 3e 00
        E 0 90 37 60
        E 120 80 37 00
        E 0 90 40 60
        E 120 80 40 00
        E 0 90 37 60
        E 120 80 37 00
        E 240 90 37 60
        E 120 80 37 00
        E 0 90 34 60
        E 120 80 34 00
        E 0 90 37 60
        E 120 80 37 00
        E 0 90 32 60
        E 120 80 32 00
        E 0 90 37 60
        E 120 80 37 00
        E 0 90 34 60
        E 120 80 34 00
        E 120 90 37 60
        E 120 80 37 00
        E 0 90 32 60
        E 120 80 32 00
        E 0 90 37 60
        E 120 80 37 00
        E 0 90 3e 60
        E 120 80 3e 00
        E 0 90 37 60
        E 120 80 37 00
        E 0 90 40 60
        E 120 80 40 00
        E 0 90 37 60
        E 120 80 37 00
        E 240 90 37 60
        E 120 80 37 00
        E 0 90 34 60
        E 120 80 34 00
        E 0 90 37 60
        E 120 80 37 00
        E 0 90 32 60
        E 120 80 32 00
        E 0 90 37 60
        E 120 80 37 00
        E 0 90 34 60
        E 120 80 34 00
        E 120 90 37 60
        E 120 80 37 00
        E 0 90 32 60
        E 120 80 32 00
        E 0 90 37 60
        E 120 80 37 00
        E 0 90 3e 60
        E 120 80 3e 00
        E 0 90 37 60
        E 120 80 37 00
        E 0 90 40 60
        E 120 80 40 00
        E 0 90 37 60
        E 120 80 37 00
        E 240 90 37 60
        E 120 80 37 00
        E 0 90 34 60
        E 120 80 34 00
        E 0 90 37 60
        E 120 80 37 00
        E 0 90 32 60
        E 120 80 32 00
        E 0 90 37 60
        E 120 80 37 00
        E 0 90 34 60
        E 120 80 34 00
        E 120 90 37 60
        E 120 80 37 00
        E 0 90 32 60
        E 120 80 32 00
        E 0 90 37 60
        E 120 80 37 00
        E 0 90 3e 60
        E 120 80 3e 00
        E 0 90 37 60
        E 120 80 37 00
        E 0 90 40 60
        E 120 80 40 00
        E 0 90 37 60
        E 120 80 37 00
        E 240 90 37 60
        E 120 80 37 00
        E 0 90 34 60
        E 120 80 34 00
        E 0 90 37 60
        E 120 80 37 00
        E 0 90 32 60
        E 120 80 32 00
        E 0 90 37 60
        E 120 80 37 00
        E 0 90 34 60
        E 120 80 34 00
        E 120 90 37 60
        E 120 80 37 00
        E 0 90 32 60
        E 120 80 32 00
        E 0 90 37 60
        E 120 80 37 00
        E 0 90 3e 60
        E 120 80 3e 00
        E 0 90 37 60
        E 120 80 37 00
        E 0 90 40 60
        E 120 80 40 00
        E 0 90 37 60
        E 120 80 37 00
        E 240 90 37 60
        E 120 80 37 00
        E 0 90 34 60
        E 120 80 34 00
        E 0 90 37 60
        E 120 80 37 00
        E 0 90 32 60
        E 120 80 32 00
        E 0 90 37 60
        E 120 80 37 00
        E 0 90 34 60
        E 120 80 34 00
        E 120 90 37 60
        E 120 80 37 00
        E 0 90 32 60
        E 120 80 32 00
        E 0 90 37 60
        E 120 80 37 00
        E 0 90 3e 60
        E 120 80 3e 00
        E 0 90 37 60
        E 120 80 37 00
        E 0 90 40 60
        E 120 80 40 00
        E 0 90 37 60
        E 120 80 37 00
        E 240 90 37 60
        E 120 80 37 00
        E 0 90 34 60
        E 120 80 34 00
        E 0 90 37 60
        E 120 80 37 00
        E 0 90 32 60
        E 120 80 32 00
        E 0 90 37 60
        E 120 80 37 00
        E 0 90 34 60
        E 120 80 34 00
        E 120 90 37 60
        E 120 80 37 00
        E 0 90 32 60
        E 120 80 32 00
        E 0 90 37 60
        E 120 80 37 00
        E 0 90 3e 60
        E 120 80 3e 00
        E 0 90 37 60
        E 120 80 37 00
        E 0 90 40 60
        E 120 80 40 00
        E 0 90 37 60
        E 120 80 37 00
        E 240 90 37 60
        E 120 80 37 00
        E 0 90 34 60
        E 120 80 34 00
        E 0 90 37 60
        E 120 80 37 00
        E 0 90 32 60
        E 120 80 32 00
        E 0 90 37 60
        E 120 80 37 00
        E 0 90 34 60
        E 120 80 34 00
        E 120 90 37 60
        E 120 80 37 00
        E 0 90 32 60
        E 120 80 32 00
        E 0 90 37 60
        E 120 80 37 00
        E 0 90 3e 60
        E 120 80 3e 00
        E 0 90 37 60
        E 120 80 37 00
        E 0 90 40 60
        E 120 80 40 00
        E 0 90 37 60
        E 120 80 37 00
        E 240 90 37 60
        E 120 80 37 00
        E 0 90 34 60
        E 120 80 34 00
        E 0 90 37 60
        E 120 80 37 00
        E 0 90 32 60
        E 120 80 32 00
        E 0 90 37 60
        E 120 80 37 00
        E 0 90 34 60
        E 120 80 34 00
        E 120 90 37 60
        E 120 80 37 00
        E 0 90 32 60
        E 120 80 32 00
        E 0 90 37 60
        E 120 80 37 00
        E 0 90 3e 60
        E 120 80 3e 00
        E 0 90 37 60
        E 120 80 37 00
        E 0 90 40 60
        E 120 80 40 00
        E 0 90 37 60
        E 120 80 37 00
        E 240 90 37 60
        E 120 80 37 00
        E 0 90 34 60
        E 120 80 34 00
        E 0 90 37 60
        E 0 90 74 60
        E 120 80 37 00
        E 0 90 32 60
        E 120 80 32 00
        E 0 90 37 60
        E 120 80 37 00
        E 0 90 34 60
        E 120 80 34 00
        E 120 90 37 60
        E 120 80 37 00
        E 0 90 32 60
        E 120 80 32 00
        E 0 90 37 60
        E 120 80 37 00
        E 0 90 3e 60
        E 120 80 3e 00
        E 0 90 37 60
        E 120 80 37 00
        E 0 90 40 60
        E 120 80 40 00
        E 0 90 37 60
        E 120 80 37 00
        E 240 90 37 60
        E 120 80 37 00
        E 0 90 34 60
        E 120 80 34 00
        E 0 90 37 60
        E 120 80 74 00
        E 0 80 37 00
        E 0 90 32 60
        E 120 80 32 00
        E 0 90 37 60
        E 120 80 37 00
        E 0 90 34 60
        E 120 80 34 00
        E 120 90 37 60
        E 120 80 37 00
        E 0 90 32 60
        E 120 80 32 00
        E 0 90 37 60
        E 120 80 37 00
        E 0 90 3e 60
        E 120 80 3e 00
        E 0 90 37 60
        E 120 80 37 00
        E 0 90 40 60
        E 120 80 40 00
        E 0 90 37 60
        E 120 80 37 00
        E 240 90 37 60
        E 120 80 37 00
        E 0 90 34 60
        E 120 80 34 00
        E 0 90 3c 60
        E 120 80 3c 00
        E 120 90 3b 60
        E 120 80 3b 00
        E 120 90 37 60
        E 1320 80 37 00
        E 120 90 05 60
        E 0 90 39 60
        E 0 90 3e 60
        E 120 80 05 00
        E 1680 80 39 00
        E 0 80 3e 00
        E 120 90 41 60
        E 120 80 41 00
        E 120 90 40 60
        E 120 80 40 00
        E 120 90 3c 60
        E 1320 80 3c 00
        E 120 90 39 60 -1
        E 0 90 40 60 -1
        E 1800 80 39 00
        E 0 80 40 00
        <X 120 0
          /wFbYmVnaW5fa2V5IHNvbmdfdHJhaW5lcl9rZXlfNF0=
        >
        E 0 90 37 60
        E 0 90 73 60
        E 120 80 37 00
        E 0 90 43 60
        E 120 80 43 00
        E 0 90 3e 60
        E 120 80 3e 00
        E 0 90 40 60
        E 120 80 40 00
        E 0 90 3b 60
        E 120 80 3b 00
        E 0 90 3e 60
        E 120 80 3e 00
        E 0 90 39 60
        E 120 80 39 00
        E 0 90 3e 60
        <X 120 0
          /wFba2V5X25vcm0gc29uZ190cmFpbmVyX2tleV80XQ==
        >
        E 0 80 3e 00
        E 0 90 37 60
        E 120 80 37 00
        E 0 90 43 60
        E 120 80 43 00
        E 0 90 3e 60
        E 120 80 3e 00
        E 0 90 40 60
        E 120 80 40 00
        E 0 90 3b 60
        E 120 80 3b 00
        E 0 90 3e 60
        E 120 80 3e 00
        E 0 90 39 60
        E 120 80 39 00
        E 0 90 3e 60
        E 120 80 3e 00
        E 0 90 37 60
        E 120 80 37 00
        E 0 90 43 60
        E 120 80 43 00
        E 0 90 3e 60
        E 120 80 3e 00
        E 0 90 40 60
        E 120 80 40 00
        E 0 90 3b 60
        E 120 80 3b 00
        E 0 90 3e 60
        E 120 80 3e 00
        E 0 90 39 60
        E 120 80 39 00
        E 0 90 3e 60
        E 120 80 3e 00
        E 0 90 37 60
        E 120 80 37 00
        E 0 90 43 60
        E 120 80 43 00
        E 0 90 3e 60
        E 120 80 3e 00
        E 0 90 40 60
        E 120 80 40 00
        E 0 90 3b 60
        E 120 80 3b 00
        E 0 90 3e 60
        E 120 80 3e 00
        E 0 90 39 60
        E 120 80 39 00
        E 0 90 3e 60
        <X 120 0
          /wFbZW5kX2tleSBzb25nX3RyYWluZXJfa2V5XzRd
        >
        E 0 80 3e 00
        E 0 90 37 60
        E 120 80 37 00
        E 0 90 43 60
        E 120 80 43 00
        E 0 90 3e 60
        E 120 80 3e 00
        E 0 90 40 60
        E 120 80 40 00
        E 0 90 3b 60
        E 120 80 3b 00
        E 0 90 3e 60
        E 120 80 3e 00
        E 0 90 39 60
        E 120 80 39 00
        E 0 90 3e 60
        E 120 80 3e 00
        E 0 90 37 60
        E 120 80 37 00
        E 0 90 43 60
        E 120 80 43 00
        E 0 90 3e 60
        E 120 80 3e 00
        E 0 90 40 60
        E 120 80 40 00
        E 0 90 3b 60
        E 120 80 3b 00
        E 0 90 3e 60
        E 120 80 3e 00
        E 0 90 39 60
        E 120 80 39 00
        E 0 90 3e 60
        E 120 80 3e 00
        E 0 90 37 60
        E 120 80 37 00
        E 0 90 43 60
        E 120 80 43 00
        E 0 90 3e 60
        E 120 80 3e 00
        E 0 90 40 60
        E 120 80 40 00
        E 0 90 3b 60
        E 120 80 3b 00
        E 0 90 3e 60
        E 120 80 3e 00
        E 0 90 39 60
        E 120 80 39 00
        E 0 90 3e 60
        E 120 80 3e 00
        E 0 90 37 60
        E 120 80 37 00
        E 0 90 43 60
        E 120 80 43 00
        E 0 90 3e 60
        E 120 80 3e 00
        E 0 90 40 60
        E 120 80 40 00
        E 0 90 3b 60
        E 120 80 3b 00
        E 0 90 3e 60
        E 120 80 3e 00
        E 0 90 39 60
        E 120 80 39 00
        E 0 90 3e 60
        E 120 80 3e 00
        E 0 90 37 60
        E 120 80 37 00
        E 0 90 43 60
        E 120 80 43 00
        E 0 90 3e 60
        E 120 80 3e 00
        E 0 90 40 60
        E 120 80 40 00
        E 0 90 3b 60
        E 120 80 3b 00
        E 0 90 3e 60
        E 120 80 3e 00
        E 0 90 39 60
        E 120 80 39 00
        E 0 90 3e 60
        E 120 80 3e 00
        E 0 90 37 60
        E 120 80 37 00
        E 0 90 43 60
        E 120 80 43 00
        E 0 90 3e 60
        E 120 80 3e 00
        E 0 90 40 60
        E 120 80 40 00
        E 0 90 3b 60
        E 120 80 3b 00
        E 0 90 3e 60
        E 120 80 3e 00
        E 0 90 39 60
        E 120 80 39 00
        E 0 90 3e 60
        E 120 80 3e 00
        E 0 90 37 60
        E 120 80 37 00
        E 0 90 43 60
        E 120 80 43 00
        E 0 90 3e 60
        E 120 80 3e 00
        E 0 90 40 60
        E 120 80 40 00
        E 0 90 3b 60
        E 120 80 3b 00
        E 0 90 3e 60
        E 120 80 3e 00
        E 0 90 39 60
        E 120 80 39 00
        E 0 90 3e 60
        E 120 80 3e 00
        E 0 90 37 60
        E 120 80 37 00
        E 0 90 43 60
        E 120 80 43 00
        E 0 90 3e 60
        E 120 80 3e 00
        E 0 90 40 60
        E 120 80 40 00
        E 0 90 3b 60
        E 120 80 3b 00
        E 0 90 3e 60
        E 120 80 3e 00
        E 0 90 39 60
        E 120 80 39 00
        E 0 90 3e 60
        E 120 80 3e 00
        E 0 90 37 60
        E 120 80 37 00
        E 0 90 43 60
        E 120 80 43 00
        E 0 90 3e 60
        E 120 80 3e 00
        E 0 90 40 60
        E 120 80 40 00
        E 0 90 3b 60
        E 120 80 3b 00
        E 0 90 3e 60
        E 120 80 3e 00
        E 0 90 39 60
        E 120 80 39 00
        E 0 90 3e 60
        E 120 80 3e 00
        E 0 90 37 60
        E 120 80 37 00
        E 0 90 43 60
        E 120 80 43 00
        E 0 90 3e 60
        E 120 80 3e 00
        E 0 90 40 60
        E 120 80 40 00
        E 0 90 3b 60
        E 120 80 3b 00
        E 0 90 3e 60
        E 120 80 3e 00
        E 0 90 39 60
        E 120 80 39 00
        E 0 90 3e 60
        E 1320 80 73 00
        E 0 80 3e 00
        E 2640 b0 7b 00
        GUID {ABCAF945-4DA2-4230-8876-4D7C7DB5B8D3}
        IGNTEMPO 0 120.00000000 4 4
        SRCCOLOR 28
        VELLANE 132 128 128
        COLORMAP "C:\Program Files\REAPER (x64)\Data\color_maps\rockband_guitarbass.png"
        TEXTSTRINGFILE "C:\Program Files\REAPER (x64)\Data\Text_Strings\Text Events List - PRO Trainers.txt"
        CFGEDITVIEW -7366.912665 6.865074 0 13 0 0 0
        CFGEDIT 1 1 0 1 1 0 1 1 1 1 1 0.25000000 -8 -8 1548 876 0 2 1 1 0.00000000 0 1 0 0 0.500000 0 0 1.000000 64
        KEYSNAP 0 9 "102034050607" 0 "Major"
        EVTFILTER 0 -1 -1 -1 -1 0 1 0 0 -1.00000000 -1.00000000
      >
    >
  >
  <TRACK '{588AD2DF-B4AB-4D8C-8A54-0DF03676C5C3}'
    NAME "PART REAL_KEYS_H"
    PEAKCOL 16576
    BEAT -1
    AUTOMODE 0
    VOLPAN 1.00000000000000 0.00000000000000 -1.00000000000000 -1.00000000000000 1.00000000000000
    MUTESOLO 0 0 0
    IPHASE 0
    ISBUS 0 0
    BUSCOMP 0 0
    SHOWINMIX 1 0.666700 0.500000 1 0.500000 -1 -1 -1
    FREEMODE 0
    SEL 0
    REC 0 0 0 0 0 0 0
    VU 2
    TRACKHEIGHT 0 0
    INQ 0 0 0 0.5000000000 100 0 0 100
    NCHAN 2
    FX 0
    TRACKID {588AD2DF-B4AB-4D8C-8A54-0DF03676C5C3}
    PERF 0
    MIDIOUT -1
    <MIDINOTENAMES
      0 72 "Highest playable note B#3"
      0 71 "B3"
      0 70 "A#3"
      0 69 "A3"
      0 68 "G#3"
      0 67 "G3"
      0 66 "F#3"
      0 65 "F3"
      0 64 "E3"
      0 63 "D#3"
      0 62 "D3"
      0 61 "C#3"
      0 60 "C3"
      0 59 "B2"
      0 58 "A#2"
      0 57 "A2"
      0 56 "G#2"
      0 55 "G2"
      0 54 "F#2"
      0 53 "F2"
      0 52 "E2"
      0 51 "D#2"
      0 50 "D2"
      0 49 "C#2"
      0 48 "Lowest playable note C2"
      0 10 "---"
      0 9 "Range A2-C4"
      0 8 "Range"
      0 7 "Range"
      0 6 "Range"
      0 5 "Range F2-A3"
      0 4 "Range"
      0 3 "Range"
      0 2 "Range"
      0 1 "Range"
      0 0 "Range C2-E3"
    >
    MAINSEND 1 0
    <FXCHAIN
      WNDRECT 615 136 729 467
      SHOW 0
      LASTSEL 0
      DOCKED 0
    >
    <ITEM
      POSITION 0.00000000000000
      SNAPOFFS 0.00000000000000
      LENGTH 163.46881417504329
      LOOP 0
      ALLTAKES 0
      SEL 0
      FADEIN 1 0.000000 0.000000 1 0
      FADEOUT 1 0.000000 0.000000 1 0
      MUTE 0
      IGUID {8C5D4769-E7A4-4F43-B80D-5E873397909F}
      IID 4
      NAME "PART REAL_KEYS_H"
      VOLPAN 1.000000 0.000000 1.000000 -1.000000
      SOFFS 0.00000000000000 0.00000000000000
      PLAYRATE 1.00000000000000 1 0.00000000000000 -1
      CHANMODE 0
      GUID {7F93075F-7999-4DBA-8FF3-8DA13F8ED705}
      <SOURCE MIDI
        HASDATA 1 480 QN
        POOLEDEVTS {E08306C1-54DE-499E-A374-45403FF7D462}
        <X 0 0
          /wNQQVJUIFJFQUxfS0VZU19I
        >
        E 0 90 00 60
        E 120 80 00 00
        E 3720 90 37 60
        E 120 80 37 00
        E 0 90 32 60
        E 120 80 32 00
        E 120 90 34 60
        E 120 80 34 00
        E 120 90 37 60
        E 120 80 37 00
        E 0 90 32 60
        E 120 80 32 00
        E 120 90 3e 60
        E 120 80 3e 00
        E 0 90 37 60
        E 120 80 37 00
        E 0 90 40 60
        E 120 80 40 00
        E 0 90 37 60
        E 120 80 37 00
        E 240 90 34 60
        E 120 80 34 00
        E 120 90 37 60
        E 120 80 37 00
        E 0 90 32 60
        E 120 80 32 00
        E 120 90 34 60
        E 120 80 34 00
        E 120 90 37 60
        E 120 80 37 00
        E 0 90 32 60
        E 120 80 32 00
        E 120 90 3e 60
        E 120 80 3e 00
        E 0 90 37 60
        E 120 80 37 00
        E 0 90 40 60
        E 120 80 40 00
        E 0 90 37 60
        E 120 80 37 00
        E 240 90 34 60
        E 120 80 34 00
        E 120 90 37 60
        E 120 80 37 00
        E 0 90 32 60
        E 120 80 32 00
        E 120 90 34 60
        E 120 80 34 00
        E 120 90 37 60
        E 120 80 37 00
        E 0 90 32 60
        E 120 80 32 00
        E 120 90 3e 60
        E 120 80 3e 00
        E 0 90 37 60
        E 120 80 37 00
        E 0 90 40 60
        E 120 80 40 00
        E 0 90 37 60
        E 120 80 37 00
        E 240 90 34 60
        E 120 80 34 00
        E 120 90 37 60
        E 120 80 37 00
        E 0 90 32 60
        E 120 80 32 00
        E 120 90 34 60
        E 120 80 34 00
        E 120 90 37 60
        E 120 80 37 00
        E 0 90 32 60
        E 120 80 32 00
        E 120 90 3e 60
        E 120 80 3e 00
        E 0 90 37 60
        E 120 80 37 00
        E 0 90 40 60
        E 120 80 40 00
        E 0 90 37 60
        E 120 80 37 00
        E 240 90 34 60
        E 120 80 34 00
        E 120 90 37 60
        E 120 80 37 00
        E 0 90 32 60
        E 120 80 32 00
        E 120 90 34 60
        E 120 80 34 00
        E 120 90 37 60
        E 120 80 37 00
        E 0 90 32 60
        E 120 80 32 00
        E 120 90 3e 60
        E 120 80 3e 00
        E 0 90 37 60
        E 120 80 37 00
        E 0 90 40 60
        E 120 80 40 00
        E 0 90 37 60
        E 120 80 37 00
        E 240 90 34 60
        E 120 80 34 00
        E 120 90 37 60
        E 120 80 37 00
        E 0 90 32 60
        E 120 80 32 00
        E 120 90 34 60
        E 120 80 34 00
        E 120 90 37 60
        E 120 80 37 00
        E 0 90 32 60
        E 120 80 32 00
        E 120 90 3e 60
        E 120 80 3e 00
        E 0 90 37 60
        E 120 80 37 00
        E 0 90 40 60
        E 120 80 40 00
        E 0 90 37 60
        E 120 80 37 00
        E 240 90 34 60
        E 120 80 34 00
        E 120 90 37 60
        E 120 80 37 00
        E 0 90 32 60
        E 120 80 32 00
        E 120 90 34 60
        E 120 80 34 00
        E 120 90 37 60
        E 120 80 37 00
        E 0 90 32 60
        E 120 80 32 00
        E 120 90 3e 60
        E 120 80 3e 00
        E 0 90 37 60
        E 120 80 37 00
        E 0 90 40 60
        E 120 80 40 00
        E 0 90 37 60
        E 120 80 37 00
        E 240 90 34 60
        E 120 80 34 00
        E 120 90 37 60
        E 120 80 37 00
        E 0 90 32 60
        E 120 80 32 00
        E 120 90 34 60
        E 120 80 34 00
        E 120 90 37 60
        E 120 80 37 00
        E 0 90 32 60
        E 120 80 32 00
        E 120 90 3e 60
        E 120 80 3e 00
        E 0 90 37 60
        E 120 80 37 00
        E 0 90 40 60
        E 120 80 40 00
        E 0 90 37 60
        E 120 80 37 00
        E 240 90 34 60
        E 120 80 34 00
        E 120 90 37 60
        E 120 80 37 00
        E 0 90 32 60
        E 120 80 32 00
        E 120 90 34 60
        E 120 80 34 00
        E 120 90 37 60
        E 120 80 37 00
        E 0 90 32 60
        E 120 80 32 00
        E 120 90 3e 60
        E 120 80 3e 00
        E 0 90 37 60
        E 120 80 37 00
        E 0 90 40 60
        E 120 80 40 00
        E 0 90 37 60
        E 120 80 37 00
        E 240 90 34 60
        E 120 80 34 00
        E 120 90 37 60
        E 120 80 37 00
        E 0 90 32 60
        E 120 80 32 00
        E 120 90 34 60
        E 120 80 34 00
        E 120 90 37 60
        E 120 80 37 00
        E 0 90 32 60
        E 120 80 32 00
        E 120 90 3e 60
        E 120 80 3e 00
        E 0 90 37 60
        E 120 80 37 00
        E 0 90 40 60
        E 120 80 40 00
        E 0 90 37 60
        E 120 80 37 00
        E 240 90 34 60
        E 120 80 34 00
        E 120 90 37 60
        E 120 80 37 00
        E 0 90 32 60
        E 120 80 32 00
        E 120 90 34 60
        E 120 80 34 00
        E 120 90 37 60
        E 120 80 37 00
        E 0 90 32 60
        E 120 80 32 00
        E 120 90 3e 60
        E 120 80 3e 00
        E 0 90 37 60
        E 120 80 37 00
        E 0 90 40 60
        E 120 80 40 00
        E 0 90 37 60
        E 120 80 37 00
        E 240 90 34 60
        E 120 80 34 00
        E 120 90 37 60
        E 120 80 37 00
        E 0 90 32 60
        E 120 80 32 00
        E 120 90 34 60
        E 120 80 34 00
        E 120 90 37 60
        E 120 80 37 00
        E 0 90 32 60
        E 120 80 32 00
        E 120 90 3e 60
        E 120 80 3e 00
        E 0 90 37 60
        E 120 80 37 00
        E 0 90 40 60
        E 120 80 40 00
        E 0 90 37 60
        E 120 80 37 00
        E 240 90 34 60
        E 120 80 34 00
        E 120 90 37 60
        E 120 80 37 00
        E 0 90 32 60
        E 120 80 32 00
        E 120 90 34 60
        E 120 80 34 00
        E 120 90 37 60
        E 120 80 37 00
        E 0 90 32 60
        E 120 80 32 00
        E 120 90 3e 60
        E 120 80 3e 00
        E 0 90 37 60
        E 120 80 37 00
        E 0 90 40 60
        E 120 80 40 00
        E 0 90 37 60
        E 120 80 37 00
        E 240 90 34 60
        E 120 80 34 00
        E 120 90 37 60
        E 120 80 37 00
        E 0 90 32 60
        E 120 80 32 00
        E 120 90 34 60
        E 120 80 34 00
        E 120 90 37 60
        E 120 80 37 00
        E 0 90 32 60
        E 120 80 32 00
        E 120 90 3e 60
        E 120 80 3e 00
        E 0 90 37 60
        E 120 80 37 00
        E 0 90 40 60
        E 120 80 40 00
        E 0 90 37 60
        E 120 80 37 00
        E 240 90 34 60
        E 120 80 34 00
        E 120 90 37 60
        E 120 80 37 00
        E 0 90 32 60
        E 120 80 32 00
        E 120 90 34 60
        E 120 80 34 00
        E 120 90 37 60
        E 120 80 37 00
        E 0 90 32 60
        E 120 80 32 00
        E 120 90 3e 60
        E 120 80 3e 00
        E 0 90 37 60
        E 120 80 37 00
        E 0 90 40 60
        E 120 80 40 00
        E 0 90 37 60
        E 120 80 37 00
        E 240 90 34 60
        E 120 80 34 00
        E 120 90 37 60
        E 120 80 37 00
        E 0 90 32 60
        E 120 80 32 00
        E 120 90 34 60
        E 120 80 34 00
        E 120 90 37 60
        E 120 80 37 00
        E 0 90 32 60
        E 120 80 32 00
        E 120 90 3e 60
        E 120 80 3e 00
        E 0 90 37 60
        E 120 80 37 00
        E 0 90 40 60
        E 120 80 40 00
        E 0 90 37 60
        E 120 80 37 00
        E 240 90 34 60
        E 120 80 34 00
        E 120 90 37 60
        E 120 80 37 00
        E 0 90 32 60
        E 120 80 32 00
        E 120 90 34 60
        E 120 80 34 00
        E 120 90 37 60
        E 120 80 37 00
        E 0 90 32 60
        E 120 80 32 00
        E 120 90 3e 60
        E 120 80 3e 00
        E 0 90 37 60
        E 120 80 37 00
        E 0 90 40 60
        E 120 80 40 00
        E 0 90 37 60
        E 120 80 37 00
        E 480 90 37 60
        E 120 80 37 00
        E 0 90 32 60
        E 120 80 32 00
        E 120 90 34 60
        E 120 80 34 00
        E 120 90 37 60
        E 120 80 37 00
        E 0 90 32 60
        E 120 80 32 00
        E 120 90 3e 60
        E 120 80 3e 00
        E 0 90 37 60
        E 120 80 37 00
        E 0 90 40 60
        E 120 80 40 00
        E 0 90 37 60
        E 120 80 37 00
        E 240 90 34 60
        E 120 80 34 00
        E 120 90 37 60
        E 120 80 37 00
        E 0 90 32 60
        E 120 80 32 00
        E 120 90 34 60
        E 120 80 34 00
        E 120 90 37 60
        E 120 80 37 00
        E 0 90 32 60
        E 120 80 32 00
        E 120 90 3e 60
        E 120 80 3e 00
        E 0 90 37 60
        E 120 80 37 00
        E 0 90 40 60
        E 120 80 40 00
        E 0 90 37 60
        E 120 80 37 00
        E 240 90 34 60
        E 120 80 34 00
        E 120 90 37 60
        E 120 80 37 00
        E 0 90 32 60
        E 120 80 32 00
        E 120 90 34 60
        E 120 80 34 00
        E 120 90 37 60
        E 120 80 37 00
        E 0 90 32 60
        E 120 80 32 00
        E 120 90 3e 60
        E 120 80 3e 00
        E 0 90 37 60
        E 120 80 37 00
        E 0 90 40 60
        E 120 80 40 00
        E 0 90 37 60
        E 120 80 37 00
        E 480 90 3c 60
        E 120 80 3c 00
        E 120 90 3b 60
        E 120 80 3b 00
        E 120 90 37 60
        E 1200 80 37 00
        E 240 90 05 60
        E 0 90 39 60
        E 0 90 3e 60
        E 120 80 05 00
        E 1560 80 39 00
        E 0 80 3e 00
        E 240 90 41 60
        E 120 80 41 00
        E 120 90 40 60
        E 120 80 40 00
        E 120 90 3c 60
        E 1200 80 3c 00
        E 240 90 00 60
        E 0 90 39 60
        E 0 90 40 60
        E 120 80 00 00
        E 1560 80 39 00
        E 0 80 40 00
        E 240 90 36 60
        E 120 80 36 00
        E 120 90 36 60
        E 120 80 36 00
        E 240 90 3b 60
        E 120 80 3b 00
        E 240 90 36 60
        E 120 80 36 00
        E 360 90 32 60
        E 120 80 32 00
        E 240 90 32 60
        E 120 80 32 00
        E 0 90 36 60
        E 120 80 36 00
        E 120 90 36 60
        E 120 80 36 00
        E 240 90 3b 60
        E 120 80 3b 00
        E 240 90 36 60
        E 120 80 36 00
        E 360 90 32 60
        E 120 80 32 00
        E 240 90 32 60
        E 120 80 32 00
        E 0 90 36 60
        E 120 80 36 00
        E 120 90 36 60
        E 120 80 36 00
        E 240 90 3b 60
        E 120 80 3b 00
        E 240 90 36 60
        E 120 80 36 00
        E 360 90 32 60
        E 120 80 32 00
        E 240 90 32 60
        E 120 80 32 00
        E 0 90 36 60
        E 120 80 36 00
        E 120 90 36 60
        E 120 80 36 00
        E 240 90 3b 60
        E 120 80 3b 00
        E 240 90 36 60
        E 120 80 36 00
        E 360 90 32 60
        E 120 80 32 00
        E 360 90 37 60
        E 120 80 37 00
        E 0 90 32 60
        E 120 80 32 00
        E 120 90 34 60
        E 120 80 34 00
        E 120 90 37 60
        E 120 80 37 00
        E 0 90 32 60
        E 120 80 32 00
        E 120 90 3e 60
        E 120 80 3e 00
        E 0 90 37 60
        E 120 80 37 00
        E 0 90 40 60
        E 120 80 40 00
        E 0 90 37 60
        E 120 80 37 00
        E 240 90 34 60
        E 120 80 34 00
        E 120 90 37 60
        E 120 80 37 00
        E 0 90 32 60
        E 120 80 32 00
        E 120 90 34 60
        E 120 80 34 00
        E 120 90 37 60
        E 120 80 37 00
        E 0 90 32 60
        E 120 80 32 00
        E 120 90 3e 60
        E 120 80 3e 00
        E 0 90 37 60
        E 120 80 37 00
        E 0 90 40 60
        E 120 80 40 00
        E 0 90 37 60
        E 120 80 37 00
        E 240 90 34 60
        E 120 80 34 00
        E 120 90 37 60
        E 120 80 37 00
        E 0 90 32 60
        E 120 80 32 00
        E 120 90 34 60
        E 120 80 34 00
        E 120 90 37 60
        E 120 80 37 00
        E 0 90 32 60
        E 120 80 32 00
        E 120 90 3e 60
        E 120 80 3e 00
        E 0 90 37 60
        E 120 80 37 00
        E 0 90 40 60
        E 120 80 40 00
        E 0 90 37 60
        E 120 80 37 00
        E 240 90 34 60
        E 120 80 34 00
        E 120 90 37 60
        E 120 80 37 00
        E 0 90 32 60
        E 120 80 32 00
        E 120 90 34 60
        E 120 80 34 00
        E 120 90 37 60
        E 120 80 37 00
        E 0 90 32 60
        E 120 80 32 00
        E 120 90 3e 60
        E 120 80 3e 00
        E 0 90 37 60
        E 120 80 37 00
        E 0 90 40 60
        E 120 80 40 00
        E 0 90 37 60
        E 120 80 37 00
        E 240 90 34 60
        E 120 80 34 00
        E 120 90 37 60
        E 120 80 37 00
        E 0 90 32 60
        E 120 80 32 00
        E 120 90 34 60
        E 120 80 34 00
        E 120 90 37 60
        E 120 80 37 00
        E 0 90 32 60
        E 120 80 32 00
        E 120 90 3e 60
        E 120 80 3e 00
        E 0 90 37 60
        E 120 80 37 00
        E 0 90 40 60
        E 120 80 40 00
        E 0 90 37 60
        E 120 80 37 00
        E 240 90 34 60
        E 120 80 34 00
        E 120 90 37 60
        E 120 80 37 00
        E 0 90 32 60
        E 120 80 32 00
        E 120 90 34 60
        E 120 80 34 00
        E 120 90 37 60
        E 120 80 37 00
        E 0 90 32 60
        E 120 80 32 00
        E 120 90 3e 60
        E 120 80 3e 00
        E 0 90 37 60
        E 120 80 37 00
        E 0 90 40 60
        E 120 80 40 00
        E 0 90 37 60
        E 120 80 37 00
        E 240 90 34 60
        E 120 80 34 00
        E 120 90 37 60
        E 120 80 37 00
        E 0 90 32 60
        E 120 80 32 00
        E 120 90 34 60
        E 120 80 34 00
        E 120 90 37 60
        E 120 80 37 00
        E 0 90 32 60
        E 120 80 32 00
        E 120 90 3e 60
        E 120 80 3e 00
        E 0 90 37 60
        E 120 80 37 00
        E 0 90 40 60
        E 120 80 40 00
        E 0 90 37 60
        E 120 80 37 00
        E 240 90 34 60
        E 120 80 34 00
        E 120 90 37 60
        E 120 80 37 00
        E 0 90 32 60
        E 120 80 32 00
        E 120 90 34 60
        E 120 80 34 00
        E 120 90 37 60
        E 120 80 37 00
        E 0 90 32 60
        E 120 80 32 00
        E 120 90 3e 60
        E 120 80 3e 00
        E 0 90 37 60
        E 120 80 37 00
        E 0 90 40 60
        E 120 80 40 00
        E 0 90 37 60
        E 120 80 37 00
        E 240 90 34 60
        E 120 80 34 00
        E 120 90 37 60
        E 120 80 37 00
        E 0 90 32 60
        E 120 80 32 00
        E 120 90 34 60
        E 120 80 34 00
        E 120 90 37 60
        E 120 80 37 00
        E 0 90 32 60
        E 120 80 32 00
        E 120 90 3e 60
        E 120 80 3e 00
        E 0 90 37 60
        E 120 80 37 00
        E 0 90 40 60
        E 120 80 40 00
        E 0 90 37 60
        E 120 80 37 00
        E 240 90 34 60
        E 120 80 34 00
        E 120 90 37 60
        E 120 80 37 00
        E 0 90 32 60
        E 120 80 32 00
        E 120 90 34 60
        E 120 80 34 00
        E 120 90 37 60
        E 120 80 37 00
        E 0 90 32 60
        E 120 80 32 00
        E 120 90 3e 60
        E 120 80 3e 00
        E 0 90 37 60
        E 120 80 37 00
        E 0 90 40 60
        E 120 80 40 00
        E 0 90 37 60
        E 120 80 37 00
        E 240 90 34 60
        E 120 80 34 00
        E 120 90 37 60
        E 120 80 37 00
        E 0 90 32 60
        E 120 80 32 00
        E 120 90 34 60
        E 120 80 34 00
        E 120 90 37 60
        E 120 80 37 00
        E 0 90 32 60
        E 120 80 32 00
        E 120 90 3e 60
        E 120 80 3e 00
        E 0 90 37 60
        E 120 80 37 00
        E 0 90 40 60
        E 120 80 40 00
        E 0 90 37 60
        E 120 80 37 00
        E 240 90 34 60
        E 120 80 34 00
        E 120 90 37 60
        E 120 80 37 00
        E 0 90 32 60
        E 120 80 32 00
        E 120 90 34 60
        E 120 80 34 00
        E 120 90 37 60
        E 120 80 37 00
        E 0 90 32 60
        E 120 80 32 00
        E 120 90 3e 60
        E 120 80 3e 00
        E 0 90 37 60
        E 120 80 37 00
        E 0 90 40 60
        E 120 80 40 00
        E 0 90 37 60
        E 120 80 37 00
        E 240 90 34 60
        E 120 80 34 00
        E 120 90 37 60
        E 120 80 37 00
        E 0 90 32 60
        E 120 80 32 00
        E 120 90 34 60
        E 120 80 34 00
        E 120 90 37 60
        E 120 80 37 00
        E 0 90 32 60
        E 120 80 32 00
        E 120 90 3e 60
        E 120 80 3e 00
        E 0 90 37 60
        E 120 80 37 00
        E 0 90 40 60
        E 120 80 40 00
        E 0 90 37 60
        E 120 80 37 00
        E 240 90 34 60
        E 120 80 34 00
        E 120 90 37 60
        E 120 80 37 00
        E 0 90 32 60
        E 120 80 32 00
        E 120 90 34 60
        E 120 80 34 00
        E 120 90 37 60
        E 120 80 37 00
        E 0 90 32 60
        E 120 80 32 00
        E 120 90 3e 60
        E 120 80 3e 00
        E 0 90 37 60
        E 120 80 37 00
        E 0 90 40 60
        E 120 80 40 00
        E 0 90 37 60
        E 120 80 37 00
        E 240 90 34 60
        E 120 80 34 00
        E 120 90 37 60
        E 120 80 37 00
        E 0 90 32 60
        E 120 80 32 00
        E 120 90 34 60
        E 120 80 34 00
        E 120 90 37 60
        E 120 80 37 00
        E 0 90 32 60
        E 120 80 32 00
        E 120 90 3e 60
        E 120 80 3e 00
        E 0 90 37 60
        E 120 80 37 00
        E 0 90 40 60
        E 120 80 40 00
        E 0 90 37 60
        E 120 80 37 00
        E 240 90 34 60
        E 120 80 34 00
        E 120 90 37 60
        E 120 80 37 00
        E 0 90 32 60
        E 120 80 32 00
        E 120 90 34 60
        E 120 80 34 00
        E 120 90 37 60
        E 120 80 37 00
        E 0 90 32 60
        E 120 80 32 00
        E 120 90 3e 60
        E 120 80 3e 00
        E 0 90 37 60
        E 120 80 37 00
        E 0 90 40 60
        E 120 80 40 00
        E 0 90 37 60
        E 120 80 37 00
        E 480 90 3c 60
        E 120 80 3c 00
        E 120 90 3b 60
        E 120 80 3b 00
        E 120 90 37 60
        E 1320 80 37 00
        E 120 90 05 60
        E 0 90 39 60
        E 0 90 3e 60
        E 120 80 05 00
        E 1680 80 39 00
        E 0 80 3e 00
        E 120 90 41 60
        E 120 80 41 00
        E 120 90 40 60
        E 120 80 40 00
        E 120 90 3c 60
        E 1320 80 3c 00
        E 120 90 39 60 -1
        E 0 90 40 60 -1
        E 1800 80 39 00
        E 0 80 40 00
        E 120 90 37 60
        E 120 80 37 00
        E 0 90 43 60
        E 120 80 43 00
        E 120 90 40 60
        E 120 80 40 00
        E 0 90 3b 60
        E 120 80 3b 00
        E 0 90 3e 60
        E 120 80 3e 00
        E 120 90 3e 60
        E 120 80 3e 00
        E 0 90 37 60
        E 120 80 37 00
        E 0 90 43 60
        E 120 80 43 00
        E 120 90 40 60
        E 120 80 40 00
        E 0 90 3b 60
        E 120 80 3b 00
        E 0 90 3e 60
        E 120 80 3e 00
        E 120 90 3e 60
        E 120 80 3e 00
        E 0 90 37 60
        E 120 80 37 00
        E 0 90 43 60
        E 120 80 43 00
        E 120 90 40 60
        E 120 80 40 00
        E 0 90 3b 60
        E 120 80 3b 00
        E 0 90 3e 60
        E 120 80 3e 00
        E 120 90 3e 60
        E 120 80 3e 00
        E 0 90 37 60
        E 120 80 37 00
        E 0 90 43 60
        E 120 80 43 00
        E 120 90 40 60
        E 120 80 40 00
        E 0 90 3b 60
        E 120 80 3b 00
        E 0 90 3e 60
        E 120 80 3e 00
        E 120 90 3e 60
        E 120 80 3e 00
        E 0 90 37 60
        E 120 80 37 00
        E 0 90 43 60
        E 120 80 43 00
        E 120 90 40 60
        E 120 80 40 00
        E 0 90 3b 60
        E 120 80 3b 00
        E 0 90 3e 60
        E 120 80 3e 00
        E 120 90 3e 60
        E 120 80 3e 00
        E 0 90 37 60
        E 120 80 37 00
        E 0 90 43 60
        E 120 80 43 00
        E 120 90 40 60
        E 120 80 40 00
        E 0 90 3b 60
        E 120 80 3b 00
        E 0 90 3e 60
        E 120 80 3e 00
        E 120 90 3e 60
        E 120 80 3e 00
        E 0 90 37 60
        E 120 80 37 00
        E 0 90 43 60
        E 120 80 43 00
        E 120 90 40 60
        E 120 80 40 00
        E 0 90 3b 60
        E 120 80 3b 00
        E 0 90 3e 60
        E 120 80 3e 00
        E 120 90 3e 60
        E 120 80 3e 00
        E 0 90 37 60
        E 120 80 37 00
        E 0 90 43 60
        E 120 80 43 00
        E 120 90 40 60
        E 120 80 40 00
        E 0 90 3b 60
        E 120 80 3b 00
        E 0 90 3e 60
        E 120 80 3e 00
        E 120 90 3e 60
        E 120 80 3e 00
        E 0 90 37 60
        E 120 80 37 00
        E 0 90 43 60
        E 120 80 43 00
        E 120 90 40 60
        E 120 80 40 00
        E 0 90 3b 60
        E 120 80 3b 00
        E 0 90 3e 60
        E 120 80 3e 00
        E 120 90 3e 60
        E 120 80 3e 00
        E 0 90 37 60
        E 120 80 37 00
        E 0 90 43 60
        E 120 80 43 00
        E 120 90 40 60
        E 120 80 40 00
        E 0 90 3b 60
        E 120 80 3b 00
        E 0 90 3e 60
        E 120 80 3e 00
        E 120 90 3e 60
        E 120 80 3e 00
        E 0 90 37 60
        E 120 80 37 00
        E 0 90 43 60
        E 120 80 43 00
        E 120 90 40 60
        E 120 80 40 00
        E 0 90 3b 60
        E 120 80 3b 00
        E 0 90 3e 60
        E 120 80 3e 00
        E 120 90 3e 60
        E 120 80 3e 00
        E 0 90 37 60
        E 120 80 37 00
        E 0 90 43 60
        E 120 80 43 00
        E 120 90 40 60
        E 120 80 40 00
        E 0 90 3b 60
        E 120 80 3b 00
        E 0 90 3e 60
        E 120 80 3e 00
        E 120 90 3e 60
        E 120 80 3e 00
        E 0 90 37 60
        E 120 80 37 00
        E 0 90 43 60
        E 120 80 43 00
        E 120 90 40 60
        E 120 80 40 00
        E 0 90 3b 60
        E 120 80 3b 00
        E 0 90 3e 60
        E 120 80 3e 00
        E 120 90 3e 60
        E 120 80 3e 00
        E 0 90 37 60
        E 120 80 37 00
        E 0 90 43 60
        E 120 80 43 00
        E 120 90 40 60
        E 120 80 40 00
        E 0 90 3b 60
        E 120 80 3b 00
        E 0 90 3e 60
        E 120 80 3e 00
        E 120 90 3e 60
        E 1320 80 3e 00
        E 2640 b0 7b 00
        GUID {ABCAF945-4DA2-4230-8876-4D7C7DB5B8D3}
        IGNTEMPO 0 120.00000000 4 4
        SRCCOLOR 28
        VELLANE 132 128 128
        COLORMAP "C:\Program Files\REAPER (x64)\Data\color_maps\rockband_guitarbass.png"
        TEXTSTRINGFILE "C:\Program Files\REAPER (x64)\Data\Text_Strings\Text Events List - PRO Trainers.txt"
        CFGEDITVIEW -7366.912665 6.865074 0 15 0 0 0
        CFGEDIT 1 1 0 1 1 0 1 1 1 1 1 0.25000000 -8 -8 1548 876 0 2 1 1 0.00000000 0 1 0 0 0.500000 0 0 1.000000 64
        KEYSNAP 0 9 "102034050607" 0 "Major"
        EVTFILTER 0 -1 -1 -1 -1 0 1 0 0 -1.00000000 -1.00000000
      >
    >
  >
  <TRACK '{6BA693EB-61E9-4175-8104-985708BE8335}'
    NAME "PART REAL_KEYS_M"
    PEAKCOL 16576
    BEAT -1
    AUTOMODE 0
    VOLPAN 1.00000000000000 0.00000000000000 -1.00000000000000 -1.00000000000000 1.00000000000000
    MUTESOLO 0 0 0
    IPHASE 0
    ISBUS 0 0
    BUSCOMP 0 0
    SHOWINMIX 1 0.666700 0.500000 1 0.500000 -1 -1 -1
    FREEMODE 0
    SEL 0
    REC 0 0 0 0 0 0 0
    VU 2
    TRACKHEIGHT 0 0
    INQ 0 0 0 0.5000000000 100 0 0 100
    NCHAN 2
    FX 0
    TRACKID {6BA693EB-61E9-4175-8104-985708BE8335}
    PERF 0
    MIDIOUT -1
    <MIDINOTENAMES
      0 72 "Highest playable note B#3"
      0 71 "B3"
      0 70 "A#3"
      0 69 "A3"
      0 68 "G#3"
      0 67 "G3"
      0 66 "F#3"
      0 65 "F3"
      0 64 "E3"
      0 63 "D#3"
      0 62 "D3"
      0 61 "C#3"
      0 60 "C3"
      0 59 "B2"
      0 58 "A#2"
      0 57 "A2"
      0 56 "G#2"
      0 55 "G2"
      0 54 "F#2"
      0 53 "F2"
      0 52 "E2"
      0 51 "D#2"
      0 50 "D2"
      0 49 "C#2"
      0 48 "Lowest playable note C2"
      0 10 "---"
      0 9 "Range A2-C4"
      0 8 "Range"
      0 7 "Range"
      0 6 "Range"
      0 5 "Range F2-A3"
      0 4 "Range"
      0 3 "Range"
      0 2 "Range"
      0 1 "Range"
      0 0 "Range C2-E3"
    >
    MAINSEND 1 0
    <FXCHAIN
      WNDRECT 615 136 729 467
      SHOW 0
      LASTSEL 0
      DOCKED 0
    >
    <ITEM
      POSITION 0.00000000000000
      SNAPOFFS 0.00000000000000
      LENGTH 163.46881417504329
      LOOP 0
      ALLTAKES 0
      SEL 0
      FADEIN 1 0.000000 0.000000 1 0
      FADEOUT 1 0.000000 0.000000 1 0
      MUTE 0
      IGUID {87C58D76-5216-4A6C-B4B8-8BB909F745CA}
      IID 4
      NAME "PART REAL_KEYS_M"
      VOLPAN 1.000000 0.000000 1.000000 -1.000000
      SOFFS 0.00000000000000 0.00000000000000
      PLAYRATE 1.00000000000000 1 0.00000000000000 -1
      CHANMODE 0
      GUID {A3BB4E25-6A5E-4D02-A020-9AA98AD7BFA0}
      <SOURCE MIDI
        HASDATA 1 480 QN
        POOLEDEVTS {C72DA9B9-2B7B-4A05-9D85-2D031A5F1F35}
        <X 0 0
          /wNQQVJUIFJFQUxfS0VZU19N
        >
        E 0 90 00 60
        E 120 80 00 00
        E 3720 90 37 60
        E 120 80 37 00
        E 240 90 34 60
        E 120 80 34 00
        E 120 90 37 60
        E 120 80 37 00
        E 240 90 3e 60
        E 120 80 3e 00
        E 120 90 40 60
        E 120 80 40 00
        E 360 90 34 60
        E 120 80 34 00
        E 120 90 37 60
        E 120 80 37 00
        E 240 90 34 60
        E 120 80 34 00
        E 120 90 37 60
        E 120 80 37 00
        E 240 90 3e 60
        E 120 80 3e 00
        E 120 90 40 60
        E 120 80 40 00
        E 360 90 34 60
        E 120 80 34 00
        E 120 90 37 60
        E 120 80 37 00
        E 240 90 34 60
        E 120 80 34 00
        E 120 90 37 60
        E 120 80 37 00
        E 240 90 3e 60
        E 120 80 3e 00
        E 120 90 40 60
        E 120 80 40 00
        E 360 90 34 60
        E 120 80 34 00
        E 120 90 37 60
        E 120 80 37 00
        E 240 90 34 60
        E 120 80 34 00
        E 120 90 37 60
        E 120 80 37 00
        E 240 90 3e 60
        E 120 80 3e 00
        E 120 90 40 60
        E 120 80 40 00
        E 360 90 34 60
        E 120 80 34 00
        E 120 90 37 60
        E 120 80 37 00
        E 240 90 34 60
        E 120 80 34 00
        E 120 90 37 60
        E 120 80 37 00
        E 240 90 3e 60
        E 120 80 3e 00
        E 120 90 40 60
        E 120 80 40 00
        E 360 90 34 60
        E 120 80 34 00
        E 120 90 37 60
        E 120 80 37 00
        E 240 90 34 60
        E 120 80 34 00
        E 120 90 37 60
        E 120 80 37 00
        E 240 90 3e 60
        E 120 80 3e 00
        E 120 90 40 60
        E 120 80 40 00
        E 360 90 34 60
        E 120 80 34 00
        E 120 90 37 60
        E 120 80 37 00
        E 240 90 34 60
        E 120 80 34 00
        E 120 90 37 60
        E 120 80 37 00
        E 240 90 3e 60
        E 120 80 3e 00
        E 120 90 40 60
        E 120 80 40 00
        E 360 90 34 60
        E 120 80 34 00
        E 120 90 37 60
        E 120 80 37 00
        E 240 90 34 60
        E 120 80 34 00
        E 120 90 37 60
        E 120 80 37 00
        E 240 90 3e 60
        E 120 80 3e 00
        E 120 90 40 60
        E 120 80 40 00
        E 360 90 34 60
        E 120 80 34 00
        E 120 90 37 60
        E 120 80 37 00
        E 240 90 34 60
        E 120 80 34 00
        E 120 90 37 60
        E 120 80 37 00
        E 240 90 3e 60
        E 120 80 3e 00
        E 120 90 40 60
        E 120 80 40 00
        E 360 90 34 60
        E 120 80 34 00
        E 120 90 37 60
        E 120 80 37 00
        E 240 90 34 60
        E 120 80 34 00
        E 120 90 37 60
        E 120 80 37 00
        E 240 90 3e 60
        E 120 80 3e 00
        E 120 90 40 60
        E 120 80 40 00
        E 360 90 34 60
        E 120 80 34 00
        E 120 90 37 60
        E 120 80 37 00
        E 240 90 34 60
        E 120 80 34 00
        E 120 90 37 60
        E 120 80 37 00
        E 240 90 3e 60
        E 120 80 3e 00
        E 120 90 40 60
        E 120 80 40 00
        E 360 90 34 60
        E 120 80 34 00
        E 120 90 37 60
        E 120 80 37 00
        E 240 90 34 60
        E 120 80 34 00
        E 120 90 37 60
        E 120 80 37 00
        E 240 90 3e 60
        E 120 80 3e 00
        E 120 90 40 60
        E 120 80 40 00
        E 360 90 34 60
        E 120 80 34 00
        E 120 90 37 60
        E 120 80 37 00
        E 240 90 34 60
        E 120 80 34 00
        E 120 90 37 60
        E 120 80 37 00
        E 240 90 3e 60
        E 120 80 3e 00
        E 120 90 40 60
        E 120 80 40 00
        E 360 90 34 60
        E 120 80 34 00
        E 120 90 37 60
        E 120 80 37 00
        E 240 90 34 60
        E 120 80 34 00
        E 120 90 37 60
        E 120 80 37 00
        E 240 90 3e 60
        E 120 80 3e 00
        E 120 90 40 60
        E 120 80 40 00
        E 360 90 34 60
        E 120 80 34 00
        E 120 90 37 60
        E 120 80 37 00
        E 240 90 34 60
        E 120 80 34 00
        E 120 90 37 60
        E 120 80 37 00
        E 240 90 3e 60
        E 120 80 3e 00
        E 120 90 40 60
        E 120 80 40 00
        E 360 90 34 60
        E 120 80 34 00
        E 120 90 37 60
        E 120 80 37 00
        E 240 90 34 60
        E 120 80 34 00
        E 120 90 37 60
        E 120 80 37 00
        E 240 90 3e 60
        E 120 80 3e 00
        E 120 90 40 60
        E 120 80 40 00
        E 360 90 34 60
        E 120 80 34 00
        E 120 90 37 60
        E 120 80 37 00
        E 240 90 34 60
        E 120 80 34 00
        E 120 90 37 60
        E 120 80 37 00
        E 240 90 3e 60
        E 120 80 3e 00
        E 120 90 40 60
        E 120 80 40 00
        E 360 90 34 60
        E 120 80 34 00
        E 120 90 37 60
        E 120 80 37 00
        E 240 90 34 60
        E 120 80 34 00
        E 120 90 37 60
        E 120 80 37 00
        E 240 90 3e 60
        E 120 80 3e 00
        E 120 90 40 60
        E 120 80 40 00
        E 360 90 34 60
        E 120 80 34 00
        E 120 90 37 60
        E 120 80 37 00
        E 240 90 34 60
        E 120 80 34 00
        E 120 90 37 60
        E 120 80 37 00
        E 240 90 3e 60
        E 120 80 3e 00
        E 120 90 40 60
        E 120 80 40 00
        E 360 90 34 60
        E 120 80 34 00
        E 120 90 37 60
        E 120 80 37 00
        E 240 90 34 60
        E 120 80 34 00
        E 120 90 37 60
        E 120 80 37 00
        E 240 90 3e 60
        E 120 80 3e 00
        E 120 90 40 60
        E 120 80 40 00
        E 360 90 34 60
        E 120 80 34 00
        E 120 90 3c 60
        E 120 80 3c 00
        E 360 90 37 60
        E 1200 80 37 00
        E 240 90 39 60
        E 0 90 3e 60
        E 1680 80 39 00
        E 0 80 3e 00
        E 240 90 35 60
        E 120 80 35 00
        E 360 90 3c 60
        E 1200 80 3c 00
        E 240 90 39 60
        E 0 90 40 60
        E 1680 80 39 00
        E 0 80 40 00
        E 240 90 36 60
        E 120 80 36 00
        E 480 90 3b 60
        E 120 80 3b 00
        E 240 90 36 60
        E 120 80 36 00
        E 360 90 32 60
        E 120 80 32 00
        E 360 90 36 60
        E 120 80 36 00
        E 480 90 3b 60
        E 120 80 3b 00
        E 240 90 36 60
        E 120 80 36 00
        E 360 90 32 60
        E 120 80 32 00
        E 360 90 36 60
        E 120 80 36 00
        E 480 90 3b 60
        E 120 80 3b 00
        E 240 90 36 60
        E 120 80 36 00
        E 360 90 32 60
        E 120 80 32 00
        E 360 90 36 60
        E 120 80 36 00
        E 480 90 3b 60
        E 120 80 3b 00
        E 240 90 36 60
        E 120 80 36 00
        E 360 90 32 60
        E 120 80 32 00
        E 360 90 37 60
        E 120 80 37 00
        E 240 90 34 60
        E 120 80 34 00
        E 120 90 37 60
        E 120 80 37 00
        E 240 90 3e 60
        E 120 80 3e 00
        E 120 90 40 60
        E 120 80 40 00
        E 360 90 34 60
        E 120 80 34 00
        E 120 90 37 60
        E 120 80 37 00
        E 240 90 34 60
        E 120 80 34 00
        E 120 90 37 60
        E 120 80 37 00
        E 240 90 3e 60
        E 120 80 3e 00
        E 120 90 40 60
        E 120 80 40 00
        E 360 90 34 60
        E 120 80 34 00
        E 120 90 37 60
        E 120 80 37 00
        E 240 90 34 60
        E 120 80 34 00
        E 120 90 37 60
        E 120 80 37 00
        E 240 90 3e 60
        E 120 80 3e 00
        E 120 90 40 60
        E 120 80 40 00
        E 360 90 34 60
        E 120 80 34 00
        E 120 90 37 60
        E 120 80 37 00
        E 240 90 34 60
        E 120 80 34 00
        E 120 90 37 60
        E 120 80 37 00
        E 240 90 3e 60
        E 120 80 3e 00
        E 120 90 40 60
        E 120 80 40 00
        E 360 90 34 60
        E 120 80 34 00
        E 120 90 37 60
        E 120 80 37 00
        E 240 90 34 60
        E 120 80 34 00
        E 120 90 37 60
        E 120 80 37 00
        E 240 90 3e 60
        E 120 80 3e 00
        E 120 90 40 60
        E 120 80 40 00
        E 360 90 34 60
        E 120 80 34 00
        E 120 90 37 60
        E 120 80 37 00
        E 240 90 34 60
        E 120 80 34 00
        E 120 90 37 60
        E 120 80 37 00
        E 240 90 3e 60
        E 120 80 3e 00
        E 120 90 40 60
        E 120 80 40 00
        E 360 90 34 60
        E 120 80 34 00
        E 120 90 37 60
        E 120 80 37 00
        E 240 90 34 60
        E 120 80 34 00
        E 120 90 37 60
        E 120 80 37 00
        E 240 90 3e 60
        E 120 80 3e 00
        E 120 90 40 60
        E 120 80 40 00
        E 360 90 34 60
        E 120 80 34 00
        E 120 90 37 60
        E 120 80 37 00
        E 240 90 34 60
        E 120 80 34 00
        E 120 90 37 60
        E 120 80 37 00
        E 240 90 3e 60
        E 120 80 3e 00
        E 120 90 40 60
        E 120 80 40 00
        E 360 90 34 60
        E 120 80 34 00
        E 120 90 37 60
        E 120 80 37 00
        E 240 90 34 60
        E 120 80 34 00
        E 120 90 37 60
        E 120 80 37 00
        E 240 90 3e 60
        E 120 80 3e 00
        E 120 90 40 60
        E 120 80 40 00
        E 360 90 34 60
        E 120 80 34 00
        E 120 90 37 60
        E 120 80 37 00
        E 240 90 34 60
        E 120 80 34 00
        E 120 90 37 60
        E 120 80 37 00
        E 240 90 3e 60
        E 120 80 3e 00
        E 120 90 40 60
        E 120 80 40 00
        E 360 90 34 60
        E 120 80 34 00
        E 120 90 37 60
        E 120 80 37 00
        E 240 90 34 60
        E 120 80 34 00
        E 120 90 37 60
        E 120 80 37 00
        E 240 90 3e 60
        E 120 80 3e 00
        E 120 90 40 60
        E 120 80 40 00
        E 360 90 34 60
        E 120 80 34 00
        E 120 90 37 60
        E 120 80 37 00
        E 240 90 34 60
        E 120 80 34 00
        E 120 90 37 60
        E 120 80 37 00
        E 240 90 3e 60
        E 120 80 3e 00
        E 120 90 40 60
        E 120 80 40 00
        E 360 90 34 60
        E 120 80 34 00
        E 120 90 37 60
        E 120 80 37 00
        E 240 90 34 60
        E 120 80 34 00
        E 120 90 37 60
        E 120 80 37 00
        E 240 90 3e 60
        E 120 80 3e 00
        E 120 90 40 60
        E 120 80 40 00
        E 360 90 34 60
        E 120 80 34 00
        E 120 90 37 60
        E 120 80 37 00
        E 240 90 34 60
        E 120 80 34 00
        E 120 90 37 60
        E 120 80 37 00
        E 240 90 3e 60
        E 120 80 3e 00
        E 120 90 40 60
        E 120 80 40 00
        E 360 90 34 60
        E 120 80 34 00
        E 120 90 37 60
        E 120 80 37 00
        E 240 90 34 60
        E 120 80 34 00
        E 120 90 37 60
        E 120 80 37 00
        E 240 90 3e 60
        E 120 80 3e 00
        E 120 90 40 60
        E 120 80 40 00
        E 360 90 34 60
        E 120 80 34 00
        E 120 90 37 60
        E 120 80 37 00
        E 240 90 34 60
        E 120 80 34 00
        E 120 90 37 60
        E 120 80 37 00
        E 240 90 3e 60
        E 120 80 3e 00
        E 120 90 40 60
        E 120 80 40 00
        E 360 90 34 60
        E 120 80 34 00
        E 120 90 3c 60
        E 120 80 3c 00
        E 360 90 37 60
        E 1320 80 37 00
        E 120 90 39 60
        E 0 90 3e 60
        E 1800 80 39 00
        E 0 80 3e 00
        E 120 90 35 60
        E 120 80 35 00
        E 360 90 3c 60
        E 1320 80 3c 00
        E 120 90 39 60 -1
        E 0 90 40 60 -1
        E 1800 80 39 00
        E 0 80 40 00
        E 240 90 37 60
        E 120 80 37 00
        E 120 90 34 60
        E 120 80 34 00
        E 120 90 32 60
        E 120 80 32 00
        E 120 90 32 60
        E 120 80 32 00
        E 120 90 37 60
        E 120 80 37 00
        E 120 90 34 60
        E 120 80 34 00
        E 120 90 32 60
        E 120 80 32 00
        E 120 90 32 60
        E 120 80 32 00
        E 120 90 37 60
        E 120 80 37 00
        E 120 90 34 60
        E 120 80 34 00
        E 120 90 32 60
        E 120 80 32 00
        E 120 90 32 60
        E 120 80 32 00
        E 120 90 37 60
        E 120 80 37 00
        E 120 90 34 60
        E 120 80 34 00
        E 120 90 32 60
        E 120 80 32 00
        E 120 90 32 60
        E 120 80 32 00
        E 120 90 37 60
        E 120 80 37 00
        E 120 90 34 60
        E 120 80 34 00
        E 120 90 32 60
        E 120 80 32 00
        E 120 90 32 60
        E 120 80 32 00
        E 120 90 37 60
        E 120 80 37 00
        E 120 90 34 60
        E 120 80 34 00
        E 120 90 32 60
        E 120 80 32 00
        E 120 90 32 60
        E 120 80 32 00
        E 120 90 37 60
        E 120 80 37 00
        E 120 90 34 60
        E 120 80 34 00
        E 120 90 32 60
        E 120 80 32 00
        E 120 90 32 60
        E 120 80 32 00
        E 120 90 37 60
        E 120 80 37 00
        E 120 90 34 60
        E 120 80 34 00
        E 120 90 32 60
        E 120 80 32 00
        E 120 90 32 60
        E 120 80 32 00
        E 120 90 37 60
        E 120 80 37 00
        E 120 90 34 60
        E 120 80 34 00
        E 120 90 32 60
        E 120 80 32 00
        E 120 90 32 60
        E 120 80 32 00
        E 120 90 37 60
        E 120 80 37 00
        E 120 90 34 60
        E 120 80 34 00
        E 120 90 32 60
        E 120 80 32 00
        E 120 90 32 60
        E 120 80 32 00
        E 120 90 37 60
        E 120 80 37 00
        E 120 90 34 60
        E 120 80 34 00
        E 120 90 32 60
        E 120 80 32 00
        E 120 90 32 60
        E 120 80 32 00
        E 120 90 37 60
        E 120 80 37 00
        E 120 90 34 60
        E 120 80 34 00
        E 120 90 32 60
        E 120 80 32 00
        E 120 90 32 60
        E 120 80 32 00
        E 120 90 37 60
        E 120 80 37 00
        E 120 90 34 60
        E 120 80 34 00
        E 120 90 32 60
        E 120 80 32 00
        E 120 90 32 60
        E 120 80 32 00
        E 120 90 37 60
        E 120 80 37 00
        E 120 90 34 60
        E 120 80 34 00
        E 120 90 32 60
        E 120 80 32 00
        E 120 90 32 60
        E 1320 80 32 00
        E 2640 b0 7b 00
        GUID {ABCAF945-4DA2-4230-8876-4D7C7DB5B8D3}
        IGNTEMPO 0 120.00000000 4 4
        SRCCOLOR 28
        VELLANE 132 128 128
        COLORMAP "C:\Program Files\REAPER (x64)\Data\color_maps\rockband_guitarbass.png"
        TEXTSTRINGFILE "C:\Program Files\REAPER (x64)\Data\Text_Strings\Text Events List - PRO Trainers.txt"
        CFGEDITVIEW -7366.912665 6.865074 0 15 0 0 0
        CFGEDIT 1 1 0 1 1 0 1 1 1 1 1 0.25000000 -8 -8 1548 876 0 2 1 1 0.00000000 0 1 0 0 0.500000 0 0 1.000000 64
        KEYSNAP 0 9 "102034050607" 0 "Major"
        EVTFILTER 0 -1 -1 -1 -1 0 1 0 0 -1.00000000 -1.00000000
      >
    >
  >
  <TRACK '{BF5E61C4-6398-46B8-960C-96B30661B5FE}'
    NAME "PART REAL_KEYS_E"
    PEAKCOL 16576
    BEAT -1
    AUTOMODE 0
    VOLPAN 1.00000000000000 0.00000000000000 -1.00000000000000 -1.00000000000000 1.00000000000000
    MUTESOLO 0 0 0
    IPHASE 0
    ISBUS 0 0
    BUSCOMP 0 0
    SHOWINMIX 1 0.666700 0.500000 1 0.500000 -1 -1 -1
    FREEMODE 0
    SEL 0
    REC 0 0 0 0 0 0 0
    VU 2
    TRACKHEIGHT 0 0
    INQ 0 0 0 0.5000000000 100 0 0 100
    NCHAN 2
    FX 0
    TRACKID {BF5E61C4-6398-46B8-960C-96B30661B5FE}
    PERF 0
    MIDIOUT -1
    <MIDINOTENAMES
      0 72 "Highest playable note B#3"
      0 71 "B3"
      0 70 "A#3"
      0 69 "A3"
      0 68 "G#3"
      0 67 "G3"
      0 66 "F#3"
      0 65 "F3"
      0 64 "E3"
      0 63 "D#3"
      0 62 "D3"
      0 61 "C#3"
      0 60 "C3"
      0 59 "B2"
      0 58 "A#2"
      0 57 "A2"
      0 56 "G#2"
      0 55 "G2"
      0 54 "F#2"
      0 53 "F2"
      0 52 "E2"
      0 51 "D#2"
      0 50 "D2"
      0 49 "C#2"
      0 48 "Lowest playable note C2"
      0 10 "---"
      0 9 "Range A2-C4"
      0 8 "Range"
      0 7 "Range"
      0 6 "Range"
      0 5 "Range F2-A3"
      0 4 "Range"
      0 3 "Range"
      0 2 "Range"
      0 1 "Range"
      0 0 "Range C2-E3"
    >
    MAINSEND 1 0
    <FXCHAIN
      WNDRECT 615 136 729 467
      SHOW 0
      LASTSEL 0
      DOCKED 0
    >
    <ITEM
      POSITION 0.00000000000000
      SNAPOFFS 0.00000000000000
      LENGTH 163.46881417504329
      LOOP 0
      ALLTAKES 0
      SEL 0
      FADEIN 1 0.000000 0.000000 1 0
      FADEOUT 1 0.000000 0.000000 1 0
      MUTE 0
      IGUID {868A18CF-C6E2-45F5-8863-F7AC8B7062F8}
      IID 4
      NAME "PART REAL_KEYS_E"
      VOLPAN 1.000000 0.000000 1.000000 -1.000000
      SOFFS 0.00000000000000 0.00000000000000
      PLAYRATE 1.00000000000000 1 0.00000000000000 -1
      CHANMODE 0
      GUID {F8C3912B-4110-4520-8742-72C27B224AF2}
      <SOURCE MIDI
        HASDATA 1 480 QN
        POOLEDEVTS {A0AABD94-B78D-46AB-958B-5888CC451B61}
        <X 0 0
          /wNQQVJUIFJFQUxfS0VZU19F
        >
        E 0 90 00 60
        E 120 80 00 00
        E 3720 90 37 60
        E 120 80 37 00
        E 840 90 3e 60
        E 120 80 3e 00
        E 120 90 40 60
        E 120 80 40 00
        E 600 90 37 60
        E 120 80 37 00
        E 840 90 3e 60
        E 120 80 3e 00
        E 120 90 40 60
        E 120 80 40 00
        E 600 90 37 60
        E 120 80 37 00
        E 840 90 3e 60
        E 120 80 3e 00
        E 120 90 40 60
        E 120 80 40 00
        E 600 90 37 60
        E 120 80 37 00
        E 840 90 3e 60
        E 120 80 3e 00
        E 120 90 40 60
        E 120 80 40 00
        E 600 90 37 60
        E 120 80 37 00
        E 840 90 3e 60
        E 120 80 3e 00
        E 120 90 40 60
        E 120 80 40 00
        E 600 90 37 60
        E 120 80 37 00
        E 840 90 3e 60
        E 120 80 3e 00
        E 120 90 40 60
        E 120 80 40 00
        E 600 90 37 60
        E 120 80 37 00
        E 840 90 3e 60
        E 120 80 3e 00
        E 120 90 40 60
        E 120 80 40 00
        E 600 90 37 60
        E 120 80 37 00
        E 840 90 3e 60
        E 120 80 3e 00
        E 120 90 40 60
        E 120 80 40 00
        E 600 90 37 60
        E 120 80 37 00
        E 840 90 3e 60
        E 120 80 3e 00
        E 120 90 40 60
        E 120 80 40 00
        E 600 90 37 60
        E 120 80 37 00
        E 840 90 3e 60
        E 120 80 3e 00
        E 120 90 40 60
        E 120 80 40 00
        E 600 90 37 60
        E 120 80 37 00
        E 840 90 3e 60
        E 120 80 3e 00
        E 120 90 40 60
        E 120 80 40 00
        E 600 90 37 60
        E 120 80 37 00
        E 840 90 3e 60
        E 120 80 3e 00
        E 120 90 40 60
        E 120 80 40 00
        E 600 90 37 60
        E 120 80 37 00
        E 840 90 3e 60
        E 120 80 3e 00
        E 120 90 40 60
        E 120 80 40 00
        E 600 90 37 60
        E 120 80 37 00
        E 840 90 3e 60
        E 120 80 3e 00
        E 120 90 40 60
        E 120 80 40 00
        E 600 90 37 60
        E 120 80 37 00
        E 840 90 3e 60
        E 120 80 3e 00
        E 120 90 40 60
        E 120 80 40 00
        E 600 90 37 60
        E 120 80 37 00
        E 840 90 3e 60
        E 120 80 3e 00
        E 120 90 40 60
        E 120 80 40 00
        E 600 90 37 60
        E 120 80 37 00
        E 840 90 3e 60
        E 120 80 3e 00
        E 120 90 40 60
        E 120 80 40 00
        E 600 90 37 60
        E 120 80 37 00
        E 840 90 3e 60
        E 120 80 3e 00
        E 120 90 40 60
        E 120 80 40 00
        E 600 90 37 60
        E 120 80 37 00
        E 840 90 3e 60
        E 120 80 3e 00
        E 120 90 40 60
        E 120 80 40 00
        E 600 90 37 60
        E 120 80 37 00
        E 840 90 3e 60
        E 120 80 3e 00
        E 120 90 40 60
        E 120 80 40 00
        E 600 90 3c 60
        E 120 80 3c 00
        E 360 90 37 60
        E 960 80 37 00
        E 480 90 3e 60
        E 1680 80 3e 00
        E 240 90 35 60
        E 120 80 35 00
        E 360 90 3c 60
        E 960 80 3c 00
        E 480 90 39 60
        E 1440 80 39 00
        E 480 90 36 60
        E 120 80 36 00
        E 480 90 3b 60
        E 120 80 3b 00
        E 720 90 32 60
        E 120 80 32 00
        E 360 90 36 60
        E 120 80 36 00
        E 480 90 3b 60
        E 120 80 3b 00
        E 720 90 32 60
        E 120 80 32 00
        E 360 90 36 60
        E 120 80 36 00
        E 480 90 3b 60
        E 120 80 3b 00
        E 720 90 32 60
        E 120 80 32 00
        E 360 90 36 60
        E 120 80 36 00
        E 480 90 3b 60
        E 120 80 3b 00
        E 720 90 32 60
        E 120 80 32 00
        E 360 90 37 60
        E 120 80 37 00
        E 840 90 3e 60
        E 120 80 3e 00
        E 120 90 40 60
        E 120 80 40 00
        E 600 90 37 60
        E 120 80 37 00
        E 840 90 3e 60
        E 120 80 3e 00
        E 120 90 40 60
        E 120 80 40 00
        E 600 90 37 60
        E 120 80 37 00
        E 840 90 3e 60
        E 120 80 3e 00
        E 120 90 40 60
        E 120 80 40 00
        E 600 90 37 60
        E 120 80 37 00
        E 840 90 3e 60
        E 120 80 3e 00
        E 120 90 40 60
        E 120 80 40 00
        E 600 90 37 60
        E 120 80 37 00
        E 840 90 3e 60
        E 120 80 3e 00
        E 120 90 40 60
        E 120 80 40 00
        E 600 90 37 60
        E 120 80 37 00
        E 840 90 3e 60
        E 120 80 3e 00
        E 120 90 40 60
        E 120 80 40 00
        E 600 90 37 60
        E 120 80 37 00
        E 840 90 3e 60
        E 120 80 3e 00
        E 120 90 40 60
        E 120 80 40 00
        E 600 90 37 60
        E 120 80 37 00
        E 840 90 3e 60
        E 120 80 3e 00
        E 120 90 40 60
        E 120 80 40 00
        E 600 90 37 60
        E 120 80 37 00
        E 840 90 3e 60
        E 120 80 3e 00
        E 120 90 40 60
        E 120 80 40 00
        E 600 90 37 60
        E 120 80 37 00
        E 840 90 3e 60
        E 120 80 3e 00
        E 120 90 40 60
        E 120 80 40 00
        E 600 90 37 60
        E 120 80 37 00
        E 840 90 3e 60
        E 120 80 3e 00
        E 120 90 40 60
        E 120 80 40 00
        E 600 90 37 60
        E 120 80 37 00
        E 840 90 3e 60
        E 120 80 3e 00
        E 120 90 40 60
        E 120 80 40 00
        E 600 90 37 60
        E 120 80 37 00
        E 840 90 3e 60
        E 120 80 3e 00
        E 120 90 40 60
        E 120 80 40 00
        E 600 90 37 60
        E 120 80 37 00
        E 840 90 3e 60
        E 120 80 3e 00
        E 120 90 40 60
        E 120 80 40 00
        E 600 90 37 60
        E 120 80 37 00
        E 840 90 3e 60
        E 120 80 3e 00
        E 120 90 40 60
        E 120 80 40 00
        E 600 90 37 60
        E 120 80 37 00
        E 840 90 3e 60
        E 120 80 3e 00
        E 120 90 40 60
        E 120 80 40 00
        E 600 90 3c 60
        E 120 80 3c 00
        E 360 90 37 60
        E 720 80 37 00
        E 720 90 3e 60
        E 1680 80 3e 00
        E 240 90 35 60
        E 120 80 35 00
        E 360 90 3c 60
        E 960 80 3c 00
        E 480 90 39 60
        E 1440 80 39 00
        E 600 90 37 60
        E 120 80 37 00
        E 120 90 34 60
        E 120 80 34 00
        E 360 90 32 60
        E 120 80 32 00
        E 120 90 37 60
        E 120 80 37 00
        E 120 90 34 60
        E 120 80 34 00
        E 360 90 32 60
        E 120 80 32 00
        E 120 90 37 60
        E 120 80 37 00
        E 120 90 34 60
        E 120 80 34 00
        E 360 90 32 60
        E 120 80 32 00
        E 120 90 37 60
        E 120 80 37 00
        E 120 90 34 60
        E 120 80 34 00
        E 360 90 32 60
        E 120 80 32 00
        E 120 90 37 60
        E 120 80 37 00
        E 120 90 34 60
        E 120 80 34 00
        E 360 90 32 60
        E 120 80 32 00
        E 120 90 37 60
        E 120 80 37 00
        E 120 90 34 60
        E 120 80 34 00
        E 360 90 32 60
        E 120 80 32 00
        E 120 90 37 60
        E 120 80 37 00
        E 120 90 34 60
        E 120 80 34 00
        E 360 90 32 60
        E 120 80 32 00
        E 120 90 37 60
        E 120 80 37 00
        E 120 90 34 60
        E 120 80 34 00
        E 360 90 32 60
        E 120 80 32 00
        E 120 90 37 60
        E 120 80 37 00
        E 120 90 34 60
        E 120 80 34 00
        E 360 90 32 60
        E 120 80 32 00
        E 120 90 37 60
        E 120 80 37 00
        E 120 90 34 60
        E 120 80 34 00
        E 360 90 32 60
        E 120 80 32 00
        E 120 90 37 60
        E 120 80 37 00
        E 120 90 34 60
        E 120 80 34 00
        E 360 90 32 60
        E 120 80 32 00
        E 120 90 37 60
        E 120 80 37 00
        E 120 90 34 60
        E 120 80 34 00
        E 360 90 32 60
        E 120 80 32 00
        E 120 90 37 60
        E 120 80 37 00
        E 120 90 34 60
        E 120 80 34 00
        E 360 90 32 60
        E 120 80 32 00
        E 120 90 37 60
        E 120 80 37 00
        E 120 90 34 60
        E 120 80 34 00
        E 360 90 32 60
        E 1320 80 32 00
        E 2640 b0 7b 00
        GUID {B4B0389B-0F55-4582-929E-17E8278CEDA9}
        IGNTEMPO 0 120.00000000 4 4
        SRCCOLOR 49
        VELLANE 132 128 128
        COLORMAP "C:\Program Files\REAPER (x64)\Data\color_maps\rockband_guitarbass.png"
        TEXTSTRINGFILE "C:\Program Files\REAPER (x64)\Data\Text_Strings\Text Events List - PRO Trainers.txt"
        CFGEDITVIEW -7366.912665 6.865074 0 15 0 0 0
        CFGEDIT 1 1 0 1 1 0 1 1 1 1 1 0.25000000 -8 -8 1548 876 0 2 1 1 0.00000000 0 1 0 0 0.500000 0 0 1.000000 64
        KEYSNAP 0 9 "102034050607" 0 "Major"
        EVTFILTER 0 -1 -1 -1 -1 0 1 0 0 -1.00000000 -1.00000000
      >
    >
  >
  <TRACK '{B81705E0-0354-4422-9B39-D8E479C45D9B}'
    NAME "PART KEYS_ANIM_RH"
    PEAKCOL 16576
    BEAT -1
    AUTOMODE 0
    VOLPAN 1.00000000000000 0.00000000000000 -1.00000000000000 -1.00000000000000 1.00000000000000
    MUTESOLO 0 0 0
    IPHASE 0
    ISBUS 0 0
    BUSCOMP 0 0
    SHOWINMIX 1 0.666700 0.500000 1 0.500000 -1 -1 -1
    FREEMODE 0
    SEL 0
    REC 0 0 0 0 0 0 0
    VU 2
    TRACKHEIGHT 0 0
    INQ 0 0 0 0.5000000000 100 0 0 100
    NCHAN 2
    FX 0
    TRACKID {B81705E0-0354-4422-9B39-D8E479C45D9B}
    PERF 0
    MIDIOUT -1
    <MIDINOTENAMES
      0 72 "Highest playable note B#3"
      0 71 "B3"
      0 70 "A#3"
      0 69 "A3"
      0 68 "G#3"
      0 67 "G3"
      0 66 "F#3"
      0 65 "F3"
      0 64 "E3"
      0 63 "D#3"
      0 62 "D3"
      0 61 "C#3"
      0 60 "C3"
      0 59 "B2"
      0 58 "A#2"
      0 57 "A2"
      0 56 "G#2"
      0 55 "G2"
      0 54 "F#2"
      0 53 "F2"
      0 52 "E2"
      0 51 "D#2"
      0 50 "D2"
      0 49 "C#2"
      0 48 "Lowest playable note C2"
    >
    MAINSEND 1 0
    <FXCHAIN
      WNDRECT 615 136 729 467
      SHOW 0
      LASTSEL 0
      DOCKED 0
    >
    <ITEM
      POSITION 0.00000000000000
      SNAPOFFS 0.00000000000000
      LENGTH 163.46881417504329
      LOOP 0
      ALLTAKES 0
      SEL 0
      FADEIN 1 0.000000 0.000000 1 0
      FADEOUT 1 0.000000 0.000000 1 0
      MUTE 0
      IGUID {7A8ADAA9-7D8B-4842-82D8-79B653F05362}
      IID 4
      NAME "PART KEYS_ANIM_RH"
      VOLPAN 1.000000 0.000000 1.000000 -1.000000
      SOFFS 0.00000000000000 0.00000000000000
      PLAYRATE 1.00000000000000 1 0.00000000000000 -1
      CHANMODE 0
      GUID {086554C2-F88A-4DB2-B523-B3722C9B45B4}
      <SOURCE MIDI
        HASDATA 1 480 QN
        POOLEDEVTS {765F5674-4542-48D8-83CD-EF73DA4AE0EA}
        <X 0 0
          /wNQQVJUIEtFWVNfQU5JTV9SSA==
        >
        E 4800 90 3e 60
        E 120 80 3e 00
        E 120 90 40 60
        E 120 80 40 00
        E 1560 90 3e 60
        E 120 80 3e 00
        E 120 90 40 60
        E 120 80 40 00
        E 1560 90 3e 60
        E 120 80 3e 00
        E 120 90 40 60
        E 120 80 40 00
        E 1560 90 3e 60
        E 120 80 3e 00
        E 120 90 40 60
        E 120 80 40 00
        E 1560 90 3e 60
        E 120 80 3e 00
        E 120 90 40 60
        E 120 80 40 00
        E 1560 90 3e 60
        E 120 80 3e 00
        E 120 90 40 60
        E 120 80 40 00
        E 1560 90 3e 60
        E 120 80 3e 00
        E 120 90 40 60
        E 120 80 40 00
        E 1560 90 3e 60
        E 120 80 3e 00
        E 120 90 40 60
        E 120 80 40 00
        E 1560 90 3e 60
        E 120 80 3e 00
        E 120 90 40 60
        E 120 80 40 00
        E 1560 90 3e 60
        E 120 80 3e 00
        E 120 90 40 60
        E 120 80 40 00
        E 1560 90 3e 60
        E 120 80 3e 00
        E 120 90 40 60
        E 120 80 40 00
        E 1560 90 3e 60
        E 120 80 3e 00
        E 120 90 40 60
        E 120 80 40 00
        E 1560 90 3e 60
        E 120 80 3e 00
        E 120 90 40 60
        E 120 80 40 00
        E 1560 90 3e 60
        E 120 80 3e 00
        E 120 90 40 60
        E 120 80 40 00
        E 1560 90 3e 60
        E 120 80 3e 00
        E 120 90 40 60
        E 120 80 40 00
        E 1560 90 3e 60
        E 120 80 3e 00
        E 120 90 40 60
        E 120 80 40 00
        E 1560 90 3e 60
        E 120 80 3e 00
        E 120 90 40 60
        E 120 80 40 00
        E 1560 90 3e 60
        E 120 80 3e 00
        E 120 90 40 60
        E 120 80 40 00
        E 1560 90 3e 60
        E 120 80 3e 00
        E 120 90 40 60
        E 120 80 40 00
        E 1560 90 3e 60
        E 120 80 3e 00
        E 120 90 40 60
        E 120 80 40 00
        E 600 90 3c 60
        E 120 80 3c 00
        E 120 90 3b 60
        E 120 80 3b 00
        E 120 90 37 60
        E 1200 80 37 00
        E 240 90 39 60
        E 0 90 3e 60
        E 1680 80 39 00
        E 0 80 3e 00
        E 240 90 41 60
        E 120 80 41 00
        E 120 90 40 60
        E 120 80 40 00
        E 120 90 3c 60
        E 1200 80 3c 00
        E 240 90 39 60
        E 0 90 40 60
        E 1680 80 39 00
        E 0 80 40 00
        E 240 90 36 60
        E 120 80 36 00
        E 120 90 36 60
        E 120 80 36 00
        E 240 90 3b 60
        E 120 80 3b 00
        E 240 90 36 60
        E 120 80 36 00
        E 840 90 36 60
        E 120 80 36 00
        E 120 90 36 60
        E 120 80 36 00
        E 240 90 3b 60
        E 120 80 3b 00
        E 240 90 36 60
        E 120 80 36 00
        E 840 90 36 60
        E 120 80 36 00
        E 120 90 36 60
        E 120 80 36 00
        E 240 90 3b 60
        E 120 80 3b 00
        E 240 90 36 60
        E 120 80 36 00
        E 840 90 36 60
        E 120 80 36 00
        E 120 90 36 60
        E 120 80 36 00
        E 240 90 3b 60
        E 120 80 3b 00
        E 240 90 36 60
        E 120 80 36 00
        E 1800 90 3e 60
        E 120 80 3e 00
        E 120 90 40 60
        E 120 80 40 00
        E 1560 90 3e 60
        E 120 80 3e 00
        E 120 90 40 60
        E 120 80 40 00
        E 1560 90 3e 60
        E 120 80 3e 00
        E 120 90 40 60
        E 120 80 40 00
        E 1560 90 3e 60
        E 120 80 3e 00
        E 120 90 40 60
        E 120 80 40 00
        E 1560 90 3e 60
        E 120 80 3e 00
        E 120 90 40 60
        E 120 80 40 00
        E 1560 90 3e 60
        E 120 80 3e 00
        E 120 90 40 60
        E 120 80 40 00
        E 1560 90 3e 60
        E 120 80 3e 00
        E 120 90 40 60
        E 120 80 40 00
        E 1560 90 3e 60
        E 120 80 3e 00
        E 120 90 40 60
        E 120 80 40 00
        E 1560 90 3e 60
        E 120 80 3e 00
        E 120 90 40 60
        E 120 80 40 00
        E 1560 90 3e 60
        E 120 80 3e 00
        E 120 90 40 60
        E 120 80 40 00
        E 1560 90 3e 60
        E 120 80 3e 00
        E 120 90 40 60
        E 120 80 40 00
        E 1560 90 3e 60
        E 120 80 3e 00
        E 120 90 40 60
        E 120 80 40 00
        E 1560 90 3e 60
        E 120 80 3e 00
        E 120 90 40 60
        E 120 80 40 00
        E 1560 90 3e 60
        E 120 80 3e 00
        E 120 90 40 60
        E 120 80 40 00
        E 1560 90 3e 60
        E 120 80 3e 00
        E 120 90 40 60
        E 120 80 40 00
        E 1560 90 3e 60
        E 120 80 3e 00
        E 120 90 40 60
        E 120 80 40 00
        E 600 90 3c 60
        E 120 80 3c 00
        E 120 90 3b 60
        E 120 80 3b 00
        E 120 90 37 60
        E 1320 80 37 00
        E 120 90 39 60
        E 0 90 3e 60
        E 1800 80 39 00
        E 0 80 3e 00
        E 120 90 41 60
        E 120 80 41 00
        E 120 90 40 60
        E 120 80 40 00
        E 120 90 3c 60
        E 1320 80 3c 00
        E 120 90 39 60 -1
        E 0 90 40 60 -1
        E 1800 80 39 00
        E 0 80 40 00
        E 240 90 43 60
        E 120 80 43 00
        E 0 90 3e 60
        E 120 80 3e 00
        E 0 90 40 60
        E 120 80 40 00
        E 120 90 3e 60
        E 120 80 3e 00
        E 120 90 3e 60
        E 120 80 3e 00
        E 120 90 43 60
        E 120 80 43 00
        E 0 90 3e 60
        E 120 80 3e 00
        E 0 90 40 60
        E 120 80 40 00
        E 120 90 3e 60
        E 120 80 3e 00
        E 120 90 3e 60
        E 120 80 3e 00
        E 120 90 43 60
        E 120 80 43 00
        E 0 90 3e 60
        E 120 80 3e 00
        E 0 90 40 60
        E 120 80 40 00
        E 120 90 3e 60
        E 120 80 3e 00
        E 120 90 3e 60
        E 120 80 3e 00
        E 120 90 43 60
        E 120 80 43 00
        E 0 90 3e 60
        E 120 80 3e 00
        E 0 90 40 60
        E 120 80 40 00
        E 120 90 3e 60
        E 120 80 3e 00
        E 120 90 3e 60
        E 120 80 3e 00
        E 120 90 43 60
        E 120 80 43 00
        E 0 90 3e 60
        E 120 80 3e 00
        E 0 90 40 60
        E 120 80 40 00
        E 120 90 3e 60
        E 120 80 3e 00
        E 120 90 3e 60
        E 120 80 3e 00
        E 120 90 43 60
        E 120 80 43 00
        E 0 90 3e 60
        E 120 80 3e 00
        E 0 90 40 60
        E 120 80 40 00
        E 120 90 3e 60
        E 120 80 3e 00
        E 120 90 3e 60
        E 120 80 3e 00
        E 120 90 43 60
        E 120 80 43 00
        E 0 90 3e 60
        E 120 80 3e 00
        E 0 90 40 60
        E 120 80 40 00
        E 120 90 3e 60
        E 120 80 3e 00
        E 120 90 3e 60
        E 120 80 3e 00
        E 120 90 43 60
        E 120 80 43 00
        E 0 90 3e 60
        E 120 80 3e 00
        E 0 90 40 60
        E 120 80 40 00
        E 120 90 3e 60
        E 120 80 3e 00
        E 120 90 3e 60
        E 120 80 3e 00
        E 120 90 43 60
        E 120 80 43 00
        E 0 90 3e 60
        E 120 80 3e 00
        E 0 90 40 60
        E 120 80 40 00
        E 120 90 3e 60
        E 120 80 3e 00
        E 120 90 3e 60
        E 120 80 3e 00
        E 120 90 43 60
        E 120 80 43 00
        E 0 90 3e 60
        E 120 80 3e 00
        E 0 90 40 60
        E 120 80 40 00
        E 120 90 3e 60
        E 120 80 3e 00
        E 120 90 3e 60
        E 120 80 3e 00
        E 120 90 43 60
        E 120 80 43 00
        E 0 90 3e 60
        E 120 80 3e 00
        E 0 90 40 60
        E 120 80 40 00
        E 120 90 3e 60
        E 120 80 3e 00
        E 120 90 3e 60
        E 120 80 3e 00
        E 120 90 43 60
        E 120 80 43 00
        E 0 90 3e 60
        E 120 80 3e 00
        E 0 90 40 60
        E 120 80 40 00
        E 120 90 3e 60
        E 120 80 3e 00
        E 120 90 3e 60
        E 120 80 3e 00
        E 120 90 43 60
        E 120 80 43 00
        E 0 90 3e 60
        E 120 80 3e 00
        E 0 90 40 60
        E 120 80 40 00
        E 120 90 3e 60
        E 120 80 3e 00
        E 120 90 3e 60
        E 120 80 3e 00
        E 120 90 43 60
        E 120 80 43 00
        E 0 90 3e 60
        E 120 80 3e 00
        E 0 90 40 60
        E 120 80 40 00
        E 120 90 3e 60
        E 120 80 3e 00
        E 120 90 3e 60
        E 1320 80 3e 00
        E 2640 b0 7b 00
        GUID {ABCAF945-4DA2-4230-8876-4D7C7DB5B8D3}
        IGNTEMPO 0 120.00000000 4 4
        SRCCOLOR 28
        VELLANE 132 128 128
        COLORMAP "C:\Program Files\REAPER (x64)\Data\color_maps\rockband_guitarbass.png"
        TEXTSTRINGFILE "C:\Program Files\REAPER (x64)\Data\Text_Strings\Text Events List - PRO Trainers.txt"
        CFGEDITVIEW -7366.912665 6.865074 0 22 0 0 0
        CFGEDIT 1 1 0 1 1 0 1 1 1 1 1 0.25000000 -8 -8 1548 876 0 2 1 1 0.00000000 0 1 0 0 0.500000 0 0 1.000000 64
        KEYSNAP 0 9 "102034050607" 0 "Major"
        EVTFILTER 0 -1 -1 -1 -1 0 1 0 0 -1.00000000 -1.00000000
      >
    >
  >
  <TRACK '{5C76023E-108A-4689-B1CF-A2FFEE44F46E}'
    NAME "PART KEYS_ANIM_LH"
    PEAKCOL 16576
    BEAT -1
    AUTOMODE 0
    VOLPAN 1.00000000000000 0.00000000000000 -1.00000000000000 -1.00000000000000 1.00000000000000
    MUTESOLO 0 0 0
    IPHASE 0
    ISBUS 2 -1
    BUSCOMP 0 0
    SHOWINMIX 1 0.666700 0.500000 1 0.500000 -1 -1 -1
    FREEMODE 0
    SEL 0
    REC 0 0 0 0 0 0 0
    VU 2
    TRACKHEIGHT 0 0
    INQ 0 0 0 0.5000000000 100 0 0 100
    NCHAN 2
    FX 1
    TRACKID {5C76023E-108A-4689-B1CF-A2FFEE44F46E}
    PERF 0
    MIDIOUT -1
    <MIDINOTENAMES
      0 72 "Highest playable note B#3"
      0 71 "B3"
      0 70 "A#3"
      0 69 "A3"
      0 68 "G#3"
      0 67 "G3"
      0 66 "F#3"
      0 65 "F3"
      0 64 "E3"
      0 63 "D#3"
      0 62 "D3"
      0 61 "C#3"
      0 60 "C3"
      0 59 "B2"
      0 58 "A#2"
      0 57 "A2"
      0 56 "G#2"
      0 55 "G2"
      0 54 "F#2"
      0 53 "F2"
      0 52 "E2"
      0 51 "D#2"
      0 50 "D2"
      0 49 "C#2"
      0 48 "Lowest playable note C2"
    >
    MAINSEND 1 0
    <FXCHAIN
      SHOW 0
      LASTSEL 0
      DOCKED 0
    >
    <ITEM
      POSITION 0.00000000000000
      SNAPOFFS 0.00000000000000
      LENGTH 163.46881417504329
      LOOP 0
      ALLTAKES 0
      SEL 0
      FADEIN 1 0.000000 0.000000 1 0
      FADEOUT 1 0.000000 0.000000 1 0
      MUTE 0
      IGUID {AF292109-AC30-41DB-A8B0-C95375B4E97A}
      IID 54
      NAME "PART KEYS_ANIM_LH"
      VOLPAN 1.000000 0.000000 1.000000 -1.000000
      SOFFS 0.00000000000000 0.00000000000000
      PLAYRATE 1.00000000000000 1 0.00000000000000 -1
      CHANMODE 0
      GUID {34DDD0AC-A6EC-470F-BB5B-60C353037BDA}
      <SOURCE MIDI
        HASDATA 1 480 QN
        POOLEDEVTS {175E4531-3A44-4BD1-A0C0-8A8DDE0ABE35}
        <X 0 0
          /wNQQVJUIEtFWVNfQU5JTV9MSA==
        >
        E 3840 90 43 60
        E 120 80 43 00
        E 0 90 3e 60
        E 120 80 3e 00
        E 0 90 43 60
        E 120 80 43 00
        E 0 90 40 60
        E 120 80 40 00
        E 120 90 43 60
        E 120 80 43 00
        E 0 90 3e 60
        E 120 80 3e 00
        E 0 90 43 60
        E 120 80 43 00
        E 120 90 43 60
        E 120 80 43 00
        E 120 90 43 60
        E 120 80 43 00
        E 240 90 43 60
        E 120 80 43 00
        E 0 90 40 60
        E 120 80 40 00
        E 0 90 43 60
        E 120 80 43 00
        E 0 90 3e 60
        E 120 80 3e 00
        E 0 90 43 60
        E 120 80 43 00
        E 0 90 40 60
        E 120 80 40 00
        E 120 90 43 60
        E 120 80 43 00
        E 0 90 3e 60
        E 120 80 3e 00
        E 0 90 43 60
        E 120 80 43 00
        E 120 90 43 60
        E 120 80 43 00
        E 120 90 43 60
        E 120 80 43 00
        E 240 90 43 60
        E 120 80 43 00
        E 0 90 40 60
        E 120 80 40 00
        E 0 90 43 60
        E 120 80 43 00
        E 0 90 3e 60
        E 120 80 3e 00
        E 0 90 43 60
        E 120 80 43 00
        E 0 90 40 60
        E 120 80 40 00
        E 120 90 43 60
        E 120 80 43 00
        E 0 90 3e 60
        E 120 80 3e 00
        E 0 90 43 60
        E 120 80 43 00
        E 120 90 43 60
        E 120 80 43 00
        E 120 90 43 60
        E 120 80 43 00
        E 240 90 43 60
        E 120 80 43 00
        E 0 90 40 60
        E 120 80 40 00
        E 0 90 43 60
        E 120 80 43 00
        E 0 90 3e 60
        E 120 80 3e 00
        E 0 90 43 60
        E 120 80 43 00
        E 0 90 40 60
        E 120 80 40 00
        E 120 90 43 60
        E 120 80 43 00
        E 0 90 3e 60
        E 120 80 3e 00
        E 0 90 43 60
        E 120 80 43 00
        E 120 90 43 60
        E 120 80 43 00
        E 120 90 43 60
        E 120 80 43 00
        E 240 90 43 60
        E 120 80 43 00
        E 0 90 40 60
        E 120 80 40 00
        E 0 90 43 60
        E 120 80 43 00
        E 0 90 3e 60
        E 120 80 3e 00
        E 0 90 43 60
        E 120 80 43 00
        E 0 90 40 60
        E 120 80 40 00
        E 120 90 43 60
        E 120 80 43 00
        E 0 90 3e 60
        E 120 80 3e 00
        E 0 90 43 60
        E 120 80 43 00
        E 120 90 43 60
        E 120 80 43 00
        E 120 90 43 60
        E 120 80 43 00
        E 240 90 43 60
        E 120 80 43 00
        E 0 90 40 60
        E 120 80 40 00
        E 0 90 43 60
        E 120 80 43 00
        E 0 90 3e 60
        E 120 80 3e 00
        E 0 90 43 60
        E 120 80 43 00
        E 0 90 40 60
        E 120 80 40 00
        E 120 90 43 60
        E 120 80 43 00
        E 0 90 3e 60
        E 120 80 3e 00
        E 0 90 43 60
        E 120 80 43 00
        E 120 90 43 60
        E 120 80 43 00
        E 120 90 43 60
        E 120 80 43 00
        E 240 90 43 60
        E 120 80 43 00
        E 0 90 40 60
        E 120 80 40 00
        E 0 90 43 60
        E 120 80 43 00
        E 0 90 3e 60
        E 120 80 3e 00
        E 0 90 43 60
        E 120 80 43 00
        E 0 90 40 60
        E 120 80 40 00
        E 120 90 43 60
        E 120 80 43 00
        E 0 90 3e 60
        E 120 80 3e 00
        E 0 90 43 60
        E 120 80 43 00
        E 120 90 43 60
        E 120 80 43 00
        E 120 90 43 60
        E 120 80 43 00
        E 240 90 43 60
        E 120 80 43 00
        E 0 90 40 60
        E 120 80 40 00
        E 0 90 43 60
        E 120 80 43 00
        E 0 90 3e 60
        E 120 80 3e 00
        E 0 90 43 60
        E 120 80 43 00
        E 0 90 40 60
        E 120 80 40 00
        E 120 90 43 60
        E 120 80 43 00
        E 0 90 3e 60
        E 120 80 3e 00
        E 0 90 43 60
        E 120 80 43 00
        E 120 90 43 60
        E 120 80 43 00
        E 120 90 43 60
        E 120 80 43 00
        E 240 90 43 60
        E 120 80 43 00
        E 0 90 40 60
        E 120 80 40 00
        E 0 90 43 60
        E 120 80 43 00
        E 0 90 3e 60
        E 120 80 3e 00
        E 0 90 43 60
        E 120 80 43 00
        E 0 90 40 60
        E 120 80 40 00
        E 120 90 43 60
        E 120 80 43 00
        E 0 90 3e 60
        E 120 80 3e 00
        E 0 90 43 60
        E 120 80 43 00
        E 120 90 43 60
        E 120 80 43 00
        E 120 90 43 60
        E 120 80 43 00
        E 240 90 43 60
        E 120 80 43 00
        E 0 90 40 60
        E 120 80 40 00
        E 0 90 43 60
        E 120 80 43 00
        E 0 90 3e 60
        E 120 80 3e 00
        E 0 90 43 60
        E 120 80 43 00
        E 0 90 40 60
        E 120 80 40 00
        E 120 90 43 60
        E 120 80 43 00
        E 0 90 3e 60
        E 120 80 3e 00
        E 0 90 43 60
        E 120 80 43 00
        E 120 90 43 60
        E 120 80 43 00
        E 120 90 43 60
        E 120 80 43 00
        E 240 90 43 60
        E 120 80 43 00
        E 0 90 40 60
        E 120 80 40 00
        E 0 90 43 60
        E 120 80 43 00
        E 0 90 3e 60
        E 120 80 3e 00
        E 0 90 43 60
        E 120 80 43 00
        E 0 90 40 60
        E 120 80 40 00
        E 120 90 43 60
        E 120 80 43 00
        E 0 90 3e 60
        E 120 80 3e 00
        E 0 90 43 60
        E 120 80 43 00
        E 120 90 43 60
        E 120 80 43 00
        E 120 90 43 60
        E 120 80 43 00
        E 240 90 43 60
        E 120 80 43 00
        E 0 90 40 60
        E 120 80 40 00
        E 0 90 43 60
        E 120 80 43 00
        E 0 90 3e 60
        E 120 80 3e 00
        E 0 90 43 60
        E 120 80 43 00
        E 0 90 40 60
        E 120 80 40 00
        E 120 90 43 60
        E 120 80 43 00
        E 0 90 3e 60
        E 120 80 3e 00
        E 0 90 43 60
        E 120 80 43 00
        E 120 90 43 60
        E 120 80 43 00
        E 120 90 43 60
        E 120 80 43 00
        E 240 90 43 60
        E 120 80 43 00
        E 0 90 40 60
        E 120 80 40 00
        E 0 90 43 60
        E 120 80 43 00
        E 0 90 3e 60
        E 120 80 3e 00
        E 0 90 43 60
        E 120 80 43 00
        E 0 90 40 60
        E 120 80 40 00
        E 120 90 43 60
        E 120 80 43 00
        E 0 90 3e 60
        E 120 80 3e 00
        E 0 90 43 60
        E 120 80 43 00
        E 120 90 43 60
        E 120 80 43 00
        E 120 90 43 60
        E 120 80 43 00
        E 240 90 43 60
        E 120 80 43 00
        E 0 90 40 60
        E 120 80 40 00
        E 0 90 43 60
        E 120 80 43 00
        E 0 90 3e 60
        E 120 80 3e 00
        E 0 90 43 60
        E 120 80 43 00
        E 0 90 40 60
        E 120 80 40 00
        E 120 90 43 60
        E 120 80 43 00
        E 0 90 3e 60
        E 120 80 3e 00
        E 0 90 43 60
        E 120 80 43 00
        E 120 90 43 60
        E 120 80 43 00
        E 120 90 43 60
        E 120 80 43 00
        E 240 90 43 60
        E 120 80 43 00
        E 0 90 40 60
        E 120 80 40 00
        E 0 90 43 60
        E 120 80 43 00
        E 0 90 3e 60
        E 120 80 3e 00
        E 0 90 43 60
        E 120 80 43 00
        E 0 90 40 60
        E 120 80 40 00
        E 120 90 43 60
        E 120 80 43 00
        E 0 90 3e 60
        E 120 80 3e 00
        E 0 90 43 60
        E 120 80 43 00
        E 120 90 43 60
        E 120 80 43 00
        E 120 90 43 60
        E 120 80 43 00
        E 240 90 43 60
        E 120 80 43 00
        E 0 90 40 60
        E 120 80 40 00
        E 0 90 43 60
        E 120 80 43 00
        E 0 90 3e 60
        E 120 80 3e 00
        E 0 90 43 60
        E 120 80 43 00
        E 0 90 40 60
        E 120 80 40 00
        E 120 90 43 60
        E 120 80 43 00
        E 0 90 3e 60
        E 120 80 3e 00
        E 0 90 43 60
        E 120 80 43 00
        E 120 90 43 60
        E 120 80 43 00
        E 120 90 43 60
        E 120 80 43 00
        E 240 90 43 60
        E 120 80 43 00
        E 0 90 40 60
        E 120 80 40 00
        E 0 90 43 60
        E 120 80 43 00
        E 0 90 3e 60
        E 120 80 3e 00
        E 0 90 43 60
        E 120 80 43 00
        E 0 90 40 60
        E 120 80 40 00
        E 120 90 43 60
        E 120 80 43 00
        E 0 90 3e 60
        E 120 80 3e 00
        E 0 90 43 60
        E 120 80 43 00
        E 120 90 43 60
        E 120 80 43 00
        E 120 90 43 60
        E 120 80 43 00
        E 240 90 43 60
        E 120 80 43 00
        E 0 90 40 60
        E 120 80 40 00
        E 0 90 43 60
        E 120 80 43 00
        E 0 90 3e 60
        E 120 80 3e 00
        E 0 90 43 60
        E 120 80 43 00
        E 0 90 40 60
        E 120 80 40 00
        E 120 90 43 60
        E 120 80 43 00
        E 0 90 3e 60
        E 120 80 3e 00
        E 0 90 43 60
        E 120 80 43 00
        E 120 90 43 60
        E 120 80 43 00
        E 120 90 43 60
        E 120 80 43 00
        E 240 90 43 60
        E 120 80 43 00
        E 0 90 40 60
        E 120 80 40 00
        E 0 90 43 60
        E 120 80 43 00
        E 0 90 3e 60
        E 120 80 3e 00
        E 0 90 43 60
        E 120 80 43 00
        E 0 90 40 60
        E 120 80 40 00
        E 120 90 43 60
        E 120 80 43 00
        E 0 90 3e 60
        E 120 80 3e 00
        E 0 90 43 60
        E 120 80 43 00
        E 120 90 43 60
        E 120 80 43 00
        E 120 90 43 60
        E 120 80 43 00
        E 240 90 43 60
        E 120 80 43 00
        E 0 90 40 60
        E 120 80 40 00
        E 0 90 43 60
        E 120 80 43 00
        E 0 90 3e 60
        E 120 80 3e 00
        E 0 90 43 60
        E 120 80 43 00
        E 0 90 40 60
        E 120 80 40 00
        E 120 90 43 60
        E 120 80 43 00
        E 0 90 3e 60
        E 120 80 3e 00
        E 0 90 43 60
        E 120 80 43 00
        E 120 90 43 60
        E 120 80 43 00
        E 120 90 43 60
        E 120 80 43 00
        E 240 90 43 60
        E 120 80 43 00
        E 0 90 40 60
        E 120 80 40 00
        E 0 90 30 60
        E 1680 80 30 00
        E 240 90 32 60
        E 1680 80 32 00
        E 240 90 30 60
        E 1680 80 30 00
        E 240 90 34 60
        E 1680 80 34 00
        E 720 90 3e 60
        E 120 80 3e 00
        E 840 90 3e 60
        E 120 80 3e 00
        E 240 90 3e 60
        E 120 80 3e 00
        E 480 90 3e 60
        E 120 80 3e 00
        E 840 90 3e 60
        E 120 80 3e 00
        E 240 90 3e 60
        E 120 80 3e 00
        E 480 90 3e 60
        E 120 80 3e 00
        E 840 90 3e 60
        E 120 80 3e 00
        E 240 90 3e 60
        E 120 80 3e 00
        E 480 90 3e 60
        E 120 80 3e 00
        E 840 90 3e 60
        E 120 80 3e 00
        E 240 90 3e 60
        E 120 80 3e 00
        E 0 90 43 60
        E 120 80 43 00
        E 0 90 3e 60
        E 120 80 3e 00
        E 0 90 43 60
        E 120 80 43 00
        E 0 90 40 60
        E 120 80 40 00
        E 120 90 43 60
        E 120 80 43 00
        E 0 90 3e 60
        E 120 80 3e 00
        E 0 90 43 60
        E 120 80 43 00
        E 120 90 43 60
        E 120 80 43 00
        E 120 90 43 60
        E 120 80 43 00
        E 240 90 43 60
        E 120 80 43 00
        E 0 90 40 60
        E 120 80 40 00
        E 0 90 43 60
        E 120 80 43 00
        E 0 90 3e 60
        E 120 80 3e 00
        E 0 90 43 60
        E 120 80 43 00
        E 0 90 40 60
        E 120 80 40 00
        E 120 90 43 60
        E 120 80 43 00
        E 0 90 3e 60
        E 120 80 3e 00
        E 0 90 43 60
        E 120 80 43 00
        E 120 90 43 60
        E 120 80 43 00
        E 120 90 43 60
        E 120 80 43 00
        E 240 90 43 60
        E 120 80 43 00
        E 0 90 40 60
        E 120 80 40 00
        E 0 90 43 60
        E 120 80 43 00
        E 0 90 3e 60
        E 120 80 3e 00
        E 0 90 43 60
        E 120 80 43 00
        E 0 90 40 60
        E 120 80 40 00
        E 120 90 43 60
        E 120 80 43 00
        E 0 90 3e 60
        E 120 80 3e 00
        E 0 90 43 60
        E 120 80 43 00
        E 120 90 43 60
        E 120 80 43 00
        E 120 90 43 60
        E 120 80 43 00
        E 240 90 43 60
        E 120 80 43 00
        E 0 90 40 60
        E 120 80 40 00
        E 0 90 43 60
        E 120 80 43 00
        E 0 90 3e 60
        E 120 80 3e 00
        E 0 90 43 60
        E 120 80 43 00
        E 0 90 40 60
        E 120 80 40 00
        E 120 90 43 60
        E 120 80 43 00
        E 0 90 3e 60
        E 120 80 3e 00
        E 0 90 43 60
        E 120 80 43 00
        E 120 90 43 60
        E 120 80 43 00
        E 120 90 43 60
        E 120 80 43 00
        E 240 90 43 60
        E 120 80 43 00
        E 0 90 40 60
        E 120 80 40 00
        E 0 90 43 60
        E 120 80 43 00
        E 0 90 3e 60
        E 120 80 3e 00
        E 0 90 43 60
        E 120 80 43 00
        E 0 90 40 60
        E 120 80 40 00
        E 120 90 43 60
        E 120 80 43 00
        E 0 90 3e 60
        E 120 80 3e 00
        E 0 90 43 60
        E 120 80 43 00
        E 120 90 43 60
        E 120 80 43 00
        E 120 90 43 60
        E 120 80 43 00
        E 240 90 43 60
        E 120 80 43 00
        E 0 90 40 60
        E 120 80 40 00
        E 0 90 43 60
        E 120 80 43 00
        E 0 90 3e 60
        E 120 80 3e 00
        E 0 90 43 60
        E 120 80 43 00
        E 0 90 40 60
        E 120 80 40 00
        E 120 90 43 60
        E 120 80 43 00
        E 0 90 3e 60
        E 120 80 3e 00
        E 0 90 43 60
        E 120 80 43 00
        E 120 90 43 60
        E 120 80 43 00
        E 120 90 43 60
        E 120 80 43 00
        E 240 90 43 60
        E 120 80 43 00
        E 0 90 40 60
        E 120 80 40 00
        E 0 90 43 60
        E 120 80 43 00
        E 0 90 3e 60
        E 120 80 3e 00
        E 0 90 43 60
        E 120 80 43 00
        E 0 90 40 60
        E 120 80 40 00
        E 120 90 43 60
        E 120 80 43 00
        E 0 90 3e 60
        E 120 80 3e 00
        E 0 90 43 60
        E 120 80 43 00
        E 120 90 43 60
        E 120 80 43 00
        E 120 90 43 60
        E 120 80 43 00
        E 240 90 43 60
        E 120 80 43 00
        E 0 90 40 60
        E 120 80 40 00
        E 0 90 43 60
        E 120 80 43 00
        E 0 90 3e 60
        E 120 80 3e 00
        E 0 90 43 60
        E 120 80 43 00
        E 0 90 40 60
        E 120 80 40 00
        E 120 90 43 60
        E 120 80 43 00
        E 0 90 3e 60
        E 120 80 3e 00
        E 0 90 43 60
        E 120 80 43 00
        E 120 90 43 60
        E 120 80 43 00
        E 120 90 43 60
        E 120 80 43 00
        E 240 90 43 60
        E 120 80 43 00
        E 0 90 40 60
        E 120 80 40 00
        E 0 90 43 60
        E 120 80 43 00
        E 0 90 3e 60
        E 120 80 3e 00
        E 0 90 43 60
        E 120 80 43 00
        E 0 90 40 60
        E 120 80 40 00
        E 120 90 43 60
        E 120 80 43 00
        E 0 90 3e 60
        E 120 80 3e 00
        E 0 90 43 60
        E 120 80 43 00
        E 120 90 43 60
        E 120 80 43 00
        E 120 90 43 60
        E 120 80 43 00
        E 240 90 43 60
        E 120 80 43 00
        E 0 90 40 60
        E 120 80 40 00
        E 0 90 43 60
        E 120 80 43 00
        E 0 90 3e 60
        E 120 80 3e 00
        E 0 90 43 60
        E 120 80 43 00
        E 0 90 40 60
        E 120 80 40 00
        E 120 90 43 60
        E 120 80 43 00
        E 0 90 3e 60
        E 120 80 3e 00
        E 0 90 43 60
        E 120 80 43 00
        E 120 90 43 60
        E 120 80 43 00
        E 120 90 43 60
        E 120 80 43 00
        E 240 90 43 60
        E 120 80 43 00
        E 0 90 40 60
        E 120 80 40 00
        E 0 90 43 60
        E 120 80 43 00
        E 0 90 3e 60
        E 120 80 3e 00
        E 0 90 43 60
        E 120 80 43 00
        E 0 90 40 60
        E 120 80 40 00
        E 120 90 43 60
        E 120 80 43 00
        E 0 90 3e 60
        E 120 80 3e 00
        E 0 90 43 60
        E 120 80 43 00
        E 120 90 43 60
        E 120 80 43 00
        E 120 90 43 60
        E 120 80 43 00
        E 240 90 43 60
        E 120 80 43 00
        E 0 90 40 60
        E 120 80 40 00
        E 0 90 43 60
        E 120 80 43 00
        E 0 90 3e 60
        E 120 80 3e 00
        E 0 90 43 60
        E 120 80 43 00
        E 0 90 40 60
        E 120 80 40 00
        E 120 90 43 60
        E 120 80 43 00
        E 0 90 3e 60
        E 120 80 3e 00
        E 0 90 43 60
        E 120 80 43 00
        E 120 90 43 60
        E 120 80 43 00
        E 120 90 43 60
        E 120 80 43 00
        E 240 90 43 60
        E 120 80 43 00
        E 0 90 40 60
        E 120 80 40 00
        E 0 90 43 60
        E 120 80 43 00
        E 0 90 3e 60
        E 120 80 3e 00
        E 0 90 43 60
        E 120 80 43 00
        E 0 90 40 60
        E 120 80 40 00
        E 120 90 43 60
        E 120 80 43 00
        E 0 90 3e 60
        E 120 80 3e 00
        E 0 90 43 60
        E 120 80 43 00
        E 120 90 43 60
        E 120 80 43 00
        E 120 90 43 60
        E 120 80 43 00
        E 240 90 43 60
        E 120 80 43 00
        E 0 90 40 60
        E 120 80 40 00
        E 0 90 43 60
        E 120 80 43 00
        E 0 90 3e 60
        E 120 80 3e 00
        E 0 90 43 60
        E 120 80 43 00
        E 0 90 40 60
        E 120 80 40 00
        E 120 90 43 60
        E 120 80 43 00
        E 0 90 3e 60
        E 120 80 3e 00
        E 0 90 43 60
        E 120 80 43 00
        E 120 90 43 60
        E 120 80 43 00
        E 120 90 43 60
        E 120 80 43 00
        E 240 90 43 60
        E 120 80 43 00
        E 0 90 40 60
        E 120 80 40 00
        E 0 90 43 60
        E 120 80 43 00
        E 0 90 3e 60
        E 120 80 3e 00
        E 0 90 43 60
        E 120 80 43 00
        E 0 90 40 60
        E 120 80 40 00
        E 120 90 43 60
        E 120 80 43 00
        E 0 90 3e 60
        E 120 80 3e 00
        E 0 90 43 60
        E 120 80 43 00
        E 120 90 43 60
        E 120 80 43 00
        E 120 90 43 60
        E 120 80 43 00
        E 240 90 43 60
        E 120 80 43 00
        E 0 90 40 60
        E 120 80 40 00
        E 0 90 43 60
        E 120 80 43 00
        E 0 90 3e 60
        E 120 80 3e 00
        E 0 90 43 60
        E 120 80 43 00
        E 0 90 40 60
        E 120 80 40 00
        E 120 90 43 60
        E 120 80 43 00
        E 0 90 3e 60
        E 120 80 3e 00
        E 0 90 43 60
        E 120 80 43 00
        E 120 90 43 60
        E 120 80 43 00
        E 120 90 43 60
        E 120 80 43 00
        E 240 90 43 60
        E 120 80 43 00
        E 0 90 40 60
        E 120 80 40 00
        E 0 90 30 60
        E 1680 80 30 00
        E 240 90 32 60
        E 1680 80 32 00
        E 240 90 30 60
        E 1680 80 30 00
        E 240 90 34 60
        E 1680 80 34 00
        e 240 90 43 60
        e 120 80 43 00
        e 360 90 47 60
        e 120 80 47 00
        e 120 90 45 60
        e 120 80 45 00
        e 120 90 43 60
        e 120 80 43 00
        e 360 90 47 60
        e 120 80 47 00
        e 120 90 45 60
        e 120 80 45 00
        e 120 90 43 60
        e 120 80 43 00
        e 360 90 47 60
        e 120 80 47 00
        e 120 90 45 60
        e 120 80 45 00
        e 120 90 43 60
        e 120 80 43 00
        e 360 90 47 60
        e 120 80 47 00
        e 120 90 45 60
        e 120 80 45 00
        e 120 90 43 60
        e 120 80 43 00
        e 360 90 47 60
        e 120 80 47 00
        e 120 90 45 60
        e 120 80 45 00
        e 120 90 43 60
        e 120 80 43 00
        e 360 90 47 60
        e 120 80 47 00
        e 120 90 45 60
        e 120 80 45 00
        e 120 90 43 60
        e 120 80 43 00
        e 360 90 47 60
        e 120 80 47 00
        e 120 90 45 60
        e 120 80 45 00
        e 120 90 43 60
        e 120 80 43 00
        e 360 90 47 60
        e 120 80 47 00
        e 120 90 45 60
        e 120 80 45 00
        e 120 90 43 60
        e 120 80 43 00
        e 360 90 47 60
        e 120 80 47 00
        e 120 90 45 60
        e 120 80 45 00
        e 120 90 43 60
        e 120 80 43 00
        e 360 90 47 60
        e 120 80 47 00
        e 120 90 45 60
        e 120 80 45 00
        e 120 90 43 60
        e 120 80 43 00
        e 360 90 47 60
        e 120 80 47 00
        e 120 90 45 60
        e 120 80 45 00
        e 120 90 43 60
        e 120 80 43 00
        e 360 90 47 60
        e 120 80 47 00
        e 120 90 45 60
        e 120 80 45 00
        e 120 90 43 60
        e 120 80 43 00
        e 360 90 47 60
        e 120 80 47 00
        e 120 90 45 60
        e 120 80 45 00
        e 120 90 43 60
        e 120 80 43 00
        e 360 90 47 60
        e 120 80 47 00
        e 120 90 45 60
        e 120 80 45 00
        E 3960 b0 7b 00
        GUID {F36406CC-3587-4C6A-A998-48C060E00847}
        IGNTEMPO 0 120.00000000 4 4
        SRCCOLOR 57
        VELLANE 132 128 128
        COLORMAP "C:\Program Files\REAPER (x64)\Data\color_maps\rockband_guitarbass.png"
        CFGEDITVIEW -7366.912665 6.865074 0 22 0 0 0
        CFGEDIT 1 1 0 1 1 0 1 1 1 1 1 0.06250000 -8 -8 1548 876 0 2 1 1 0.00000000 0 1 0 0 0.500000 0 0 1.000000 64
        KEYSNAP 0 0 "102034050607" 0 "Major"
        EVTFILTER 0 -1 -1 -1 -1 0 1 0 0 -1.00000000 -1.00000000
      >
    >
  >
  <TRACK '{E30C6B10-6F13-45CA-8505-41A4F94DC923}'
    NAME "PART REAL_BASS"
    PEAKCOL 16576
    BEAT -1
    AUTOMODE 0
    VOLPAN 1.00000000000000 0.00000000000000 -1.00000000000000 -1.00000000000000 1.00000000000000
    MUTESOLO 0 0 0
    IPHASE 0
    ISBUS 0 0
    BUSCOMP 0 0
    SHOWINMIX 1 0.666700 0.500000 1 0.500000 -1 -1 -1
    FREEMODE 0
    SEL 0
    REC 0 0 0 0 0 0 0
    VU 2
    TRACKHEIGHT 0 0
    INQ 0 0 0 0.5000000000 100 0 0 100
    NCHAN 2
    FX 0
    TRACKID {E30C6B10-6F13-45CA-8505-41A4F94DC923}
    PERF 0
    MIDIOUT -1
    <MIDINOTENAMES
      0 127 "Trill Marker"
      0 126 "Tremolo Marker"
      0 125 "BRE"
      0 124 "BRE"
      0 123 "BRE"
      0 122 "BRE"
      0 121 "BRE"
      0 120 "BRE (use all 6)"
      0 119 "-----------"
      0 116 "OVERDRIVE"
      0 115 "Solo Marker"
      0 109 "-----------"
      0 108 "Fret Hand Position"
      0 107 "Force Chord Numbering"
      0 106 "Loose Strumming"
      0 105 "Strum Direction"
      0 104 "Arpeggio Marker"
      0 103 "Slide Marker"
      0 102 "Force HOPO"
      0 101 "EXPERT e String"
      0 100 "EXPERT B String"
      0 99 "EXPERT G String"
      0 98 "EXPERT D String"
      0 97 "EXPERT A String"
      0 96 "EXPERT E String"
      0 21 "-----------"
      0 18 "Flat/Sharp Swap"
      0 17 "Hide Chord Names"
      0 16 "Slash Chord"
      0 15 "D#"
      0 14 "D"
      0 13 "C#"
      0 12 "C"
      0 11 "B"
      0 10 "A#"
      0 9 "A"
      0 8 "G#"
      0 7 "G"
      0 6 "F#"
      0 5 "F"
      0 4 "E"
      0 95 "-----------"
      0 82 "Loose Strumming"
      0 81 "Strum Direction"
      0 80 "Arpeggio Marker"
      0 79 "Slide Marker"
      0 78 "Force HOPO"
      0 77 "HARD e String"
      0 76 "HARD B String"
      0 75 "HARD G String"
      0 74 "HARD D String"
      0 73 "HARD A String"
      0 72 "HARD E String"
      0 71 "-----------"
      0 58 "Loose Strumming"
      0 56 "Arpeggio Marker"
      0 55 "Slide Marker"
      0 53 "MEDIUM e String"
      0 52 "MEDIUM B String"
      0 51 "MEDIUM G String"
      0 50 "MEDIUM D String"
      0 49 "MEDIUM A String"
      0 48 "MEDIUM E String"
      0 47 "-----------"
      0 32 "Arpeggio Marker"
      0 31 "Slide Marker"
      0 29 "EASY e String"
      0 28 "EASY B String"
      0 27 "EASY G String"
      0 26 "EASY D String"
      0 25 "EASY A String"
      0 24 "EASY E String"
    >
    MAINSEND 1 0
    <FXCHAIN
      WNDRECT 615 136 716 467
      SHOW 0
      LASTSEL 2
      DOCKED 0
      BYPASS 0 0
      <JS "c3/progtr" ""
        0.000000 3.000000 0.000000 0.000000 0.000000 0.000000 0.000000 0.000000 0.000000 1.000000 - - - - - - - - - - - - - - - - - - - - - - - - - - - - - - - - - - - - - - - - - - - - - - - - - - - - - - 
      >
      FLOATPOS 0 0 0 0
      FXID {F1DC92C8-2FFB-4DD0-8FF8-341548777696}
      WAK 0
      BYPASS 0 0
      <JS "MIDI/midi_transpose" ""
        -12.000000 1.000000 0.000000 127.000000 - - - - - - - - - - - - - - - - - - - - - - - - - - - - - - - - - - - - - - - - - - - - - - - - - - - - - - - - - - - - 
      >
      FLOATPOS 0 0 0 0
      FXID {AB8507BA-EBF8-4F62-B43B-8C229D15FF7A}
      WAK 0
      BYPASS 0 0
      <VST "VSTi: ReaSynth (Cockos)" "reasynth.dll" 0 ""
        eXNlcu9e7f4AAAAAAgAAAAEAAAAAAAAAAgAAAAAAAAA4AAAAAAAAAA==
        AAAQAO++rd4N8K3eppvEO+gJMjwAAAAAAAAAAAAAgD8AAIA/4jAEPA==
        AAAAAAAAAD+01hM+j8L1PQAAAD8AABAAAAA=
      >
      FLOATPOS 0 0 0 0
      FXID {0FEA0892-E7EB-493C-930A-8475C668EBA2}
      WAK 0
    >
    <ITEM
      POSITION 0.00000000000000
      SNAPOFFS 0.00000000000000
      LENGTH 163.46881417504329
      LOOP 0
      ALLTAKES 0
      SEL 0
      FADEIN 1 0.000000 0.000000 1 0
      FADEOUT 1 0.000000 0.000000 1 0
      MUTE 0
      IGUID {F123057B-91E8-4F91-9438-AA423C10527B}
      IID 5
      NAME "PART REAL_BASS"
      VOLPAN 1.000000 0.000000 1.000000 -1.000000
      SOFFS 0.00000000000000 0.00000000000000
      PLAYRATE 1.00000000000000 1 0.00000000000000 -1
      CHANMODE 0
      GUID {3DE156B7-8D0A-47C2-8EE9-8DCACA6FA1B6}
      <SOURCE MIDI
        HASDATA 1 480 QN
        POOLEDEVTS {81B403E0-2061-49B7-B555-F1E945562C68}
        <X 0 0
          /wNQQVJUIFJFQUxfQkFTUw==
        >
        <X 3840 0
          /wFbYmVnaW5fcGIgc29uZ190cmFpbmVyX3BiXzFd
        >
        E 0 90 30 67
        E 0 90 48 67
        E 0 90 60 67
        E 0 90 6c 66
        E 120 80 30 00
        E 0 80 48 00
        E 0 80 60 00
        E 0 80 6c 00
        E 120 90 18 67
        E 0 90 30 67
        E 0 90 48 67
        E 0 90 60 67
        E 960 80 18 00
        E 0 80 30 00
        E 0 80 48 00
        E 0 80 60 00
        E 480 90 48 67
        E 0 90 60 67
        E 120 80 48 00
        E 0 80 60 00
        <X 120 0
          /wFbcGJfbm9ybSBzb25nX3RyYWluZXJfcGJfMV0=
        >
        E 0 90 30 67
        E 0 90 48 67
        E 0 90 60 67
        E 120 80 30 00
        E 0 80 48 00
        E 0 80 60 00
        E 120 90 18 67
        E 0 90 30 67
        E 0 90 48 67
        E 0 90 60 67
        E 960 80 18 00
        E 0 80 30 00
        E 0 80 48 00
        E 0 80 60 00
        E 480 90 60 67
        E 120 80 60 00
        E 120 90 30 67
        E 0 90 48 67
        E 0 90 60 67
        E 120 80 30 00
        E 0 80 48 00
        E 0 80 60 00
        E 120 90 18 67
        E 0 90 30 67
        E 0 90 48 67
        E 0 90 60 67
        E 960 80 18 00
        E 0 80 30 00
        E 0 80 48 00
        E 0 80 60 00
        E 480 90 48 67
        E 0 90 60 67
        E 120 80 48 00
        E 0 80 60 00
        E 120 90 30 67
        E 0 90 48 67
        E 0 90 60 67
        E 0 90 74 64
        E 120 80 30 00
        E 0 80 48 00
        E 0 80 60 00
        E 120 90 18 67
        E 0 90 30 67
        E 0 90 48 67
        E 0 90 60 67
        E 960 80 18 00
        E 0 80 30 00
        E 0 80 48 00
        E 0 80 60 00
        E 480 90 60 67
        E 120 80 60 00
        <X 120 0
          /wFbZW5kX3BiIHNvbmdfdHJhaW5lcl9wYl8xXQ==
        >
        <X 0 0
          /wFbYmVnaW5fcGIgc29uZ190cmFpbmVyX3BiXzJd
        >
        E 0 90 30 67
        E 0 90 48 67
        E 0 90 60 67
        E 120 80 74 00
        E 0 80 30 00
        E 0 80 48 00
        E 0 80 60 00
        E 120 90 18 67
        E 0 90 30 67
        E 0 90 48 67
        E 0 90 60 67
        E 960 80 18 00
        E 0 80 30 00
        E 0 80 48 00
        E 0 80 60 00
        E 480 90 48 67
        E 0 90 60 67
        E 120 80 48 00
        E 0 80 60 00
        <X 120 0
          /wFbcGJfbm9ybSBzb25nX3RyYWluZXJfcGJfMl0=
        >
        E 0 90 31 66
        E 0 90 49 66
        E 0 90 61 66
        E 120 80 31 00
        E 0 80 49 00
        E 0 80 61 00
        E 120 90 19 66
        E 0 90 31 66
        E 0 90 49 66
        E 0 90 61 66
        E 960 80 19 00
        E 0 80 31 00
        E 0 80 49 00
        E 0 80 61 00
        E 480 90 61 66
        E 120 80 61 00
        E 120 90 30 67
        E 0 90 48 67
        E 0 90 60 67
        E 120 80 30 00
        E 0 80 48 00
        E 0 80 60 00
        E 120 90 18 67
        E 0 90 30 67
        E 0 90 48 67
        E 0 90 60 67
        E 960 80 18 00
        E 0 80 30 00
        E 0 80 48 00
        E 0 80 60 00
        E 480 90 48 67
        E 0 90 60 67
        E 120 80 48 00
        E 0 80 60 00
        E 120 90 31 66
        E 0 90 49 66
        E 0 90 61 66
        E 120 80 31 00
        E 0 80 49 00
        E 0 80 61 00
        E 120 90 19 66
        E 0 90 31 66
        E 0 90 49 66
        E 0 90 61 66
        E 960 80 19 00
        E 0 80 31 00
        E 0 80 49 00
        E 0 80 61 00
        E 480 90 61 66
        E 120 80 61 00
        <X 120 0
          /wFbZW5kX3BiIHNvbmdfdHJhaW5lcl9wYl8yXQ==
        >
        E 0 90 30 67
        E 0 90 48 67
        E 0 90 60 67
        E 120 80 30 00
        E 0 80 48 00
        E 0 80 60 00
        E 120 90 18 67
        E 0 90 30 67
        E 0 90 48 67
        E 0 90 60 67
        E 960 80 18 00
        E 0 80 30 00
        E 0 80 48 00
        E 0 80 60 00
        E 480 90 48 67
        E 0 90 60 67
        E 120 80 48 00
        E 0 80 60 00
        E 120 90 31 66
        E 0 90 49 66
        E 0 90 61 66
        E 120 80 31 00
        E 0 80 49 00
        E 0 80 61 00
        E 120 90 19 66
        E 0 90 31 66
        E 0 90 49 66
        E 0 90 61 66
        E 960 80 19 00
        E 0 80 31 00
        E 0 80 49 00
        E 0 80 61 00
        E 480 90 61 66
        E 120 80 61 00
        E 120 90 30 67
        E 0 90 48 67
        E 0 90 60 67
        E 120 80 30 00
        E 0 80 48 00
        E 0 80 60 00
        E 120 90 18 67
        E 0 90 30 67
        E 0 90 48 67
        E 0 90 60 67
        E 960 80 18 00
        E 0 80 30 00
        E 0 80 48 00
        E 0 80 60 00
        E 480 90 48 67
        E 0 90 60 67
        E 120 80 48 00
        E 0 80 60 00
        E 120 90 31 66
        E 0 90 49 66
        E 0 90 61 66
        E 120 80 31 00
        E 0 80 49 00
        E 0 80 61 00
        E 120 90 19 66
        E 0 90 31 66
        E 0 90 49 66
        E 0 90 61 66
        E 960 80 19 00
        E 0 80 31 00
        E 0 80 49 00
        E 0 80 61 00
        E 480 90 61 66
        E 120 80 61 00
        E 120 90 30 67
        E 0 90 48 67
        E 0 90 60 67
        E 120 80 30 00
        E 0 80 48 00
        E 0 80 60 00
        E 120 90 18 67
        E 0 90 30 67
        E 0 90 48 67
        E 0 90 60 67
        E 960 80 18 00
        E 0 80 30 00
        E 0 80 48 00
        E 0 80 60 00
        E 480 90 48 67
        E 0 90 60 67
        E 0 90 74 64
        E 120 80 48 00
        E 0 80 60 00
        E 120 90 31 66
        E 0 90 49 66
        E 0 90 61 66
        E 120 80 31 00
        E 0 80 49 00
        E 0 80 61 00
        E 120 90 19 66
        E 0 90 31 66
        E 0 90 49 66
        E 0 90 61 66
        E 960 80 19 00
        E 0 80 31 00
        E 0 80 49 00
        E 0 80 61 00
        E 480 90 61 66
        E 120 80 61 00
        E 120 90 30 67
        E 0 90 48 67
        E 0 90 60 67
        E 120 80 74 00
        E 0 80 30 00
        E 0 80 48 00
        E 0 80 60 00
        E 120 90 18 67
        E 0 90 30 67
        E 0 90 48 67
        E 0 90 60 67
        E 960 80 18 00
        E 0 80 30 00
        E 0 80 48 00
        E 0 80 60 00
        E 480 90 48 67
        E 0 90 60 67
        E 120 80 48 00
        E 0 80 60 00
        E 120 90 31 66
        E 0 90 49 66
        E 0 90 61 66
        E 120 80 31 00
        E 0 80 49 00
        E 0 80 61 00
        E 120 90 19 66
        E 0 90 31 66
        E 0 90 49 66
        E 0 90 61 66
        E 960 80 19 00
        E 0 80 31 00
        E 0 80 49 00
        E 0 80 61 00
        E 480 90 61 66
        E 120 80 61 00
        E 120 90 30 67
        E 0 90 48 67
        E 0 90 60 67
        E 120 80 30 00
        E 0 80 48 00
        E 0 80 60 00
        E 120 90 18 67
        E 0 90 30 67
        E 0 90 48 67
        E 0 90 60 67
        E 960 80 18 00
        E 0 80 30 00
        E 0 80 48 00
        E 0 80 60 00
        E 480 90 48 67
        E 0 90 60 67
        E 120 80 48 00
        E 0 80 60 00
        E 120 90 31 66
        E 0 90 49 66
        E 0 90 61 66
        E 120 80 31 00
        E 0 80 49 00
        E 0 80 61 00
        E 120 90 19 66
        E 0 90 31 66
        E 0 90 49 66
        E 0 90 61 66
        E 960 80 19 00
        E 0 80 31 00
        E 0 80 49 00
        E 0 80 61 00
        E 480 90 61 66
        E 120 80 61 00
        E 120 90 30 67
        E 0 90 48 67
        E 0 90 60 67
        E 120 80 30 00
        E 0 80 48 00
        E 0 80 60 00
        E 120 90 18 67
        E 0 90 30 67
        E 0 90 48 67
        E 0 90 60 67
        E 960 80 18 00
        E 0 80 30 00
        E 0 80 48 00
        E 0 80 60 00
        E 480 90 48 67
        E 0 90 60 67
        E 120 80 48 00
        E 0 80 60 00
        E 120 90 31 66
        E 0 90 49 66
        E 0 90 61 66
        E 120 80 31 00
        E 0 80 49 00
        E 0 80 61 00
        E 120 90 19 66
        E 0 90 31 66
        E 0 90 49 66
        E 0 90 61 66
        E 960 80 19 00
        E 0 80 31 00
        E 0 80 49 00
        E 0 80 61 00
        E 480 90 61 66
        E 120 80 61 00
        <X 120 0
          /wFbYmVnaW5fcGIgc29uZ190cmFpbmVyX3BiXzNd
        >
        E 0 90 31 67
        E 0 90 49 67
        E 0 90 61 67
        E 0 90 6c 67
        E 120 80 31 00
        E 0 80 49 00
        E 0 80 61 00
        E 0 80 6c 00
        E 120 90 19 67
        E 0 90 31 67
        E 0 90 49 67
        E 0 90 61 67
        E 960 80 19 00
        E 0 80 31 00
        E 0 80 49 00
        E 0 80 61 00
        E 480 90 49 67
        E 0 90 61 67
        E 120 80 49 00
        E 0 80 61 00
        <X 120 0
          /wFbcGJfbm9ybSBzb25nX3RyYWluZXJfcGJfM10=
        >
        E 0 90 31 69
        E 0 90 49 69
        E 0 90 61 69
        E 120 80 31 00
        E 0 80 49 00
        E 0 80 61 00
        E 120 90 19 69
        E 0 90 31 69
        E 0 90 49 69
        E 0 90 61 69
        E 960 80 19 00
        E 0 80 31 00
        E 0 80 49 00
        E 0 80 61 00
        E 480 90 61 69
        E 120 80 61 00
        E 120 90 30 65
        E 0 90 48 65
        E 0 90 60 65
        E 0 90 6c 65
        E 0 90 74 64
        E 120 80 30 00
        E 0 80 48 00
        E 0 80 60 00
        E 0 80 6c 00
        E 120 90 18 65
        E 0 90 30 65
        E 0 90 48 65
        E 0 90 60 65
        E 960 80 18 00
        E 0 80 30 00
        E 0 80 48 00
        E 0 80 60 00
        E 480 90 48 65
        E 0 90 60 65
        E 120 80 48 00
        E 0 80 60 00
        E 120 90 31 64
        E 0 90 49 64
        E 0 90 61 64
        E 0 90 6c 66
        E 120 80 31 00
        E 0 80 49 00
        E 0 80 61 00
        E 0 80 6c 00
        E 120 90 19 64
        E 0 90 31 64
        E 0 90 49 64
        E 0 90 61 64
        E 960 80 19 00
        E 0 80 31 00
        E 0 80 49 00
        E 0 80 61 00
        E 480 90 61 64
        E 120 80 61 00
        <X 120 0
          /wFbZW5kX3BiIHNvbmdfdHJhaW5lcl9wYl8zXQ==
        >
        E 0 90 30 67
        E 0 90 48 67
        E 0 90 60 67
        E 120 80 74 00
        E 0 80 30 00
        E 0 80 48 00
        E 0 80 60 00
        E 120 90 18 67
        E 0 90 30 67
        E 0 90 48 67
        E 0 90 60 67
        E 960 80 18 00
        E 0 80 30 00
        E 0 80 48 00
        E 0 80 60 00
        E 480 90 48 67
        E 0 90 60 67
        E 120 80 48 00
        E 0 80 60 00
        E 120 90 31 66
        E 0 90 49 66
        E 0 90 61 66
        E 120 80 31 00
        E 0 80 49 00
        E 0 80 61 00
        E 120 90 19 66
        E 0 90 31 66
        E 0 90 49 66
        E 0 90 61 66
        E 960 80 19 00
        E 0 80 31 00
        E 0 80 49 00
        E 0 80 61 00
        E 480 90 61 66
        E 120 80 61 00
        E 120 90 30 67
        E 0 90 48 67
        E 0 90 60 67
        E 120 80 30 00
        E 0 80 48 00
        E 0 80 60 00
        E 120 90 18 67
        E 0 90 30 67
        E 0 90 48 67
        E 0 90 60 67
        E 960 80 18 00
        E 0 80 30 00
        E 0 80 48 00
        E 0 80 60 00
        E 480 90 48 67
        E 0 90 60 67
        E 120 80 48 00
        E 0 80 60 00
        E 120 90 31 66
        E 0 90 49 66
        E 0 90 61 66
        E 120 80 31 00
        E 0 80 49 00
        E 0 80 61 00
        E 120 90 19 66
        E 0 90 31 66
        E 0 90 49 66
        E 0 90 61 66
        E 960 80 19 00
        E 0 80 31 00
        E 0 80 49 00
        E 0 80 61 00
        E 480 90 61 66
        E 120 80 61 00
        E 120 90 30 67
        E 0 90 48 67
        E 0 90 60 67
        E 120 80 30 00
        E 0 80 48 00
        E 0 80 60 00
        E 120 90 18 67
        E 0 90 30 67
        E 0 90 48 67
        E 0 90 60 67
        E 960 80 18 00
        E 0 80 30 00
        E 0 80 48 00
        E 0 80 60 00
        E 480 90 48 67
        E 0 90 60 67
        E 120 80 48 00
        E 0 80 60 00
        E 120 90 31 66
        E 0 90 49 66
        E 0 90 61 66
        E 120 80 31 00
        E 0 80 49 00
        E 0 80 61 00
        E 120 90 19 66
        E 0 90 31 66
        E 0 90 49 66
        E 0 90 61 66
        E 960 80 19 00
        E 0 80 31 00
        E 0 80 49 00
        E 0 80 61 00
        E 480 90 61 66
        E 120 80 61 00
        E 120 90 30 67
        E 0 90 48 67
        E 0 90 60 67
        E 120 80 30 00
        E 0 80 48 00
        E 0 80 60 00
        E 120 90 18 67
        E 0 90 30 67
        E 0 90 48 67
        E 0 90 60 67
        E 960 80 18 00
        E 0 80 30 00
        E 0 80 48 00
        E 0 80 60 00
        E 480 90 48 67
        E 0 90 60 67
        E 0 90 74 64
        E 120 80 48 00
        E 0 80 60 00
        E 120 90 31 66
        E 0 90 49 66
        E 0 90 61 66
        E 120 80 31 00
        E 0 80 49 00
        E 0 80 61 00
        E 120 90 19 66
        E 0 90 31 66
        E 0 90 49 66
        E 0 90 61 66
        E 960 80 19 00
        E 0 80 31 00
        E 0 80 49 00
        E 0 80 61 00
        E 480 90 61 66
        E 120 80 61 00
        E 120 90 30 67
        E 0 90 48 67
        E 0 90 60 67
        E 120 80 74 00
        E 0 80 30 00
        E 0 80 48 00
        E 0 80 60 00
        E 120 90 18 67
        E 0 90 30 67
        E 0 90 48 67
        E 0 90 60 67
        E 960 80 18 00
        E 0 80 30 00
        E 0 80 48 00
        E 0 80 60 00
        E 480 90 48 67
        E 0 90 60 67
        E 120 80 48 00
        E 0 80 60 00
        E 120 90 31 66
        E 0 90 49 66
        E 0 90 61 66
        E 120 80 31 00
        E 0 80 49 00
        E 0 80 61 00
        E 120 90 19 66
        E 0 90 31 66
        E 0 90 49 66
        E 0 90 61 66
        E 960 80 19 00
        E 0 80 31 00
        E 0 80 49 00
        E 0 80 61 00
        E 480 90 61 66
        E 120 80 61 00
        E 120 90 30 67
        E 0 90 48 67
        E 0 90 60 67
        E 120 80 30 00
        E 0 80 48 00
        E 0 80 60 00
        E 120 90 18 67
        E 0 90 30 67
        E 0 90 48 67
        E 0 90 60 67
        E 960 80 18 00
        E 0 80 30 00
        E 0 80 48 00
        E 0 80 60 00
        E 480 90 48 67
        E 0 90 60 67
        E 120 80 48 00
        E 0 80 60 00
        E 120 90 31 66
        E 0 90 49 66
        E 0 90 61 66
        E 120 80 31 00
        E 0 80 49 00
        E 0 80 61 00
        E 120 90 19 66
        E 0 90 31 66
        E 0 90 49 66
        E 0 90 61 66
        E 960 80 19 00
        E 0 80 31 00
        E 0 80 49 00
        E 0 80 61 00
        E 480 90 61 66
        E 120 80 61 00
        E 120 90 30 67
        E 0 90 48 67
        E 0 90 60 67
        E 120 80 30 00
        E 0 80 48 00
        E 0 80 60 00
        E 120 90 18 67
        E 0 90 30 67
        E 0 90 48 67
        E 0 90 60 67
        E 960 80 18 00
        E 0 80 30 00
        E 0 80 48 00
        E 0 80 60 00
        E 480 90 48 67
        E 0 90 60 67
        E 120 80 48 00
        E 0 80 60 00
        E 120 90 31 66
        E 0 90 49 66
        E 0 90 61 66
        E 120 80 31 00
        E 0 80 49 00
        E 0 80 61 00
        E 120 90 19 66
        E 0 90 31 66
        E 0 90 49 66
        E 0 90 61 66
        E 960 80 19 00
        E 0 80 31 00
        E 0 80 49 00
        E 0 80 61 00
        E 480 90 61 66
        E 120 80 61 00
        E 120 90 30 67
        E 0 90 48 67
        E 0 90 60 67
        E 120 80 30 00
        E 0 80 48 00
        E 0 80 60 00
        E 120 90 18 67
        E 0 90 30 67
        E 0 90 48 67
        E 0 90 60 67
        E 960 80 18 00
        E 0 80 30 00
        E 0 80 48 00
        E 0 80 60 00
        E 480 90 48 67
        E 0 90 60 67
        E 120 80 48 00
        E 0 80 60 00
        E 120 90 31 66
        E 0 90 49 66
        E 0 90 61 66
        E 120 80 31 00
        E 0 80 49 00
        E 0 80 61 00
        E 120 90 19 66
        E 0 90 31 66
        E 0 90 49 66
        E 0 90 61 66
        E 960 80 19 00
        E 0 80 31 00
        E 0 80 49 00
        E 0 80 61 00
        E 480 90 61 66
        E 120 80 61 00
        E 120 90 30 67
        E 0 90 48 67
        E 0 90 60 67
        E 120 80 30 00
        E 0 80 48 00
        E 0 80 60 00
        E 120 90 18 67
        E 0 90 30 67
        E 0 90 48 67
        E 0 90 60 67
        E 960 80 18 00
        E 0 80 30 00
        E 0 80 48 00
        E 0 80 60 00
        E 480 90 48 67
        E 0 90 60 67
        E 120 80 48 00
        E 0 80 60 00
        E 120 90 31 66
        E 0 90 49 66
        E 0 90 61 66
        E 120 80 31 00
        E 0 80 49 00
        E 0 80 61 00
        E 120 90 19 66
        E 0 90 31 66
        E 0 90 49 66
        E 0 90 61 66
        E 960 80 19 00
        E 0 80 31 00
        E 0 80 49 00
        E 0 80 61 00
        E 480 90 61 66
        E 120 80 61 00
        E 120 90 30 67
        E 0 90 48 67
        E 0 90 60 67
        E 0 90 74 64
        E 120 80 30 00
        E 0 80 48 00
        E 0 80 60 00
        E 120 90 18 67
        E 0 90 30 67
        E 0 90 48 67
        E 0 90 60 67
        E 960 80 18 00
        E 0 80 30 00
        E 0 80 48 00
        E 0 80 60 00
        E 480 90 48 67
        E 0 90 60 67
        E 120 80 48 00
        E 0 80 60 00
        E 120 90 31 66
        E 0 90 49 66
        E 0 90 61 66
        E 120 80 74 00
        E 0 80 31 00
        E 0 80 49 00
        E 0 80 61 00
        E 120 90 19 66
        E 0 90 31 66
        E 0 90 49 66
        E 0 90 61 66
        E 960 80 19 00
        E 0 80 31 00
        E 0 80 49 00
        E 0 80 61 00
        E 480 90 61 66
        E 120 80 61 00
        E 120 90 31 67
        E 0 90 49 67
        E 0 90 61 67
        E 0 90 6c 67
        E 120 80 31 00
        E 0 80 49 00
        E 0 80 61 00
        E 0 80 6c 00
        E 120 90 19 67
        E 0 90 31 67
        E 0 90 49 67
        E 0 90 61 67
        E 960 80 19 00
        E 0 80 31 00
        E 0 80 49 00
        E 0 80 61 00
        E 480 90 49 67
        E 0 90 61 67
        E 120 80 49 00
        E 0 80 61 00
        E 120 90 31 69
        E 0 90 49 69
        E 0 90 61 69
        E 120 80 31 00
        E 0 80 49 00
        E 0 80 61 00
        E 120 90 19 69
        E 0 90 31 69
        E 0 90 49 69
        E 0 90 61 69
        E 960 80 19 00
        E 0 80 31 00
        E 0 80 49 00
        E 0 80 61 00
        E 480 90 61 69
        E 120 80 61 00
        E 120 90 30 65
        E 0 90 48 65
        E 0 90 60 65
        E 0 90 6c 65
        E 120 80 30 00
        E 0 80 48 00
        E 0 80 60 00
        E 0 80 6c 00
        E 120 90 18 65
        E 0 90 30 65
        E 0 90 48 65
        E 0 90 60 65
        E 960 80 18 00
        E 0 80 30 00
        E 0 80 48 00
        E 0 80 60 00
        E 480 90 48 65
        E 0 90 60 65
        E 120 80 48 00
        E 0 80 60 00
        E 120 90 31 64
        E 0 90 49 64
        E 0 90 61 64
        E 0 90 6c 66
        E 120 80 31 00
        E 0 80 49 00
        E 0 80 61 00
        E 0 80 6c 00
        E 120 90 19 64
        E 0 90 31 64
        E 0 90 49 64
        E 0 90 61 64
        E 960 80 19 00
        E 0 80 31 00
        E 0 80 49 00
        E 0 80 61 00
        E 480 90 61 64
        E 120 80 61 00
        E 120 90 30 67
        E 0 90 48 67
        E 0 90 60 67
        E 120 80 30 00
        E 0 80 48 00
        E 0 80 60 00
        E 120 90 18 67
        E 0 90 30 67
        E 0 90 48 67
        E 0 90 60 67
        E 960 80 18 00
        E 0 80 30 00
        E 0 80 48 00
        E 0 80 60 00
        E 480 90 48 67
        E 0 90 60 67
        E 120 80 48 00
        E 0 80 60 00
        E 120 90 30 67
        E 0 90 48 67
        E 0 90 60 67
        E 120 80 30 00
        E 0 80 48 00
        E 0 80 60 00
        E 120 90 18 67
        E 0 90 30 67
        E 0 90 48 67
        E 0 90 60 67
        E 960 80 18 00
        E 0 80 30 00
        E 0 80 48 00
        E 0 80 60 00
        E 480 90 48 67
        E 0 90 60 67
        E 120 80 48 00
        E 0 80 60 00
        E 120 90 30 67
        E 0 90 48 67
        E 0 90 60 67
        E 120 80 30 00
        E 0 80 48 00
        E 0 80 60 00
        E 120 90 18 67
        E 0 90 30 67
        E 0 90 48 67
        E 0 90 60 67
        E 960 80 18 00
        E 0 80 30 00
        E 0 80 48 00
        E 0 80 60 00
        E 480 90 48 67
        E 0 90 60 67
        E 120 80 48 00
        E 0 80 60 00
        E 120 90 30 67
        E 0 90 48 67
        E 0 90 60 67
        E 120 80 30 00
        E 0 80 48 00
        E 0 80 60 00
        E 120 90 18 67
        E 0 90 30 67
        E 0 90 48 67
        E 0 90 60 67
        E 960 80 18 00
        E 0 80 30 00
        E 0 80 48 00
        E 0 80 60 00
        E 480 90 48 67
        E 0 90 60 67
        E 120 80 48 00
        E 0 80 60 00
        E 120 90 30 67
        E 0 90 48 67
        E 0 90 60 67
        E 120 80 30 00
        E 0 80 48 00
        E 0 80 60 00
        E 120 90 18 67
        E 0 90 30 67
        E 0 90 48 67
        E 0 90 60 67
        E 960 80 18 00
        E 0 80 30 00
        E 0 80 48 00
        E 0 80 60 00
        E 480 90 48 67
        E 0 90 60 67
        E 120 80 48 00
        E 0 80 60 00
        E 120 90 30 67
        E 0 90 48 67
        E 0 90 60 67
        E 120 80 30 00
        E 0 80 48 00
        E 0 80 60 00
        E 120 90 18 67
        E 0 90 30 67
        E 0 90 48 67
        E 0 90 60 67
        E 960 80 18 00
        E 0 80 30 00
        E 0 80 48 00
        E 0 80 60 00
        E 480 90 48 67
        E 0 90 60 67
        E 120 80 48 00
        E 0 80 60 00
        E 120 90 30 67
        E 0 90 48 67
        E 0 90 60 67
        E 120 80 30 00
        E 0 80 48 00
        E 0 80 60 00
        E 120 90 18 67
        E 0 90 30 67
        E 0 90 48 67
        E 0 90 60 67
        E 960 80 18 00
        E 0 80 30 00
        E 0 80 48 00
        E 0 80 60 00
        E 480 90 48 67
        E 0 90 60 67
        E 120 80 48 00
        E 0 80 60 00
        E 120 90 30 67
        E 0 90 48 67
        E 0 90 60 67
        E 120 80 30 00
        E 0 80 48 00
        E 0 80 60 00
        E 120 90 18 67
        E 0 90 30 67
        E 0 90 48 67
        E 0 90 60 67
        E 960 80 18 00
        E 0 80 30 00
        E 0 80 48 00
        E 0 80 60 00
        E 2640 b0 7b 00
        GUID {449F9563-B483-4C67-A10B-3A8310724F47}
        IGNTEMPO 0 120.00000000 4 4
        SRCCOLOR 29
        VELLANE 132 128 128
        COLORMAP "C:\Program Files\REAPER (x64)\Data\color_maps\rockband_guitarbass.png"
        TEXTSTRINGFILE "C:\Program Files\REAPER (x64)\Data\Text_Strings\Text Events List - PRO Trainers.txt"
        CFGEDITVIEW -7366.912665 6.865074 0 12 0 0 0
        CFGEDIT 1 1 0 1 1 0 1 1 1 1 1 0.25000000 -8 -8 1548 876 0 2 1 1 0.00000000 0 1 0 0 0.500000 0 0 1.000000 64
        KEYSNAP 0 9 "102034050607" 0 "Major"
        EVTFILTER 0 -1 -1 -1 -1 0 1 0 0 -1.00000000 -1.00000000
      >
    >
  >
  <TRACK '{5C7F49EB-74F2-4598-AAAB-65017B75BD37}'
    NAME "EVENTS"
    PEAKCOL 16576
    BEAT -1
    AUTOMODE 0
    VOLPAN 1.00000000000000 0.00000000000000 -1.00000000000000 -1.00000000000000 1.00000000000000
    MUTESOLO 0 0 0
    IPHASE 0
    ISBUS 0 0
    BUSCOMP 0 0
    SHOWINMIX 1 0.666700 0.500000 1 0.500000 -1 -1 -1
    FREEMODE 0
    SEL 0
    REC 0 0 0 0 0 0 0
    VU 2
    TRACKHEIGHT 0 0
    INQ 0 0 0 0.5000000000 100 0 0 100
    NCHAN 2
    FX 1
    TRACKID {5C7F49EB-74F2-4598-AAAB-65017B75BD37}
    PERF 0
    MIDIOUT -1
    <MIDINOTENAMES
      0 26 "Hi-Hat"
      0 25 "Snare"
      0 24 "Kick"
    >
    MAINSEND 1 0
    <FXCHAIN
      SHOW 0
      LASTSEL 0
      DOCKED 0
    >
    <ITEM
      POSITION 0.00000000000000
      SNAPOFFS 0.00000000000000
      LENGTH 163.46881417504329
      LOOP 0
      ALLTAKES 0
      SEL 0
      FADEIN 1 0.000000 0.000000 1 0
      FADEOUT 1 0.000000 0.000000 1 0
      MUTE 0
      IGUID {80D7D945-A361-4F2D-BC95-AA8A32804CB8}
      IID 28
      NAME "EVENTS"
      VOLPAN 1.000000 0.000000 1.000000 -1.000000
      SOFFS 0.00000000000000 0.00000000000000
      PLAYRATE 1.00000000000000 1 0.00000000000000 -1
      CHANMODE 0
      GUID {E4F9CDB7-CAED-441F-8175-E27AFDD225B5}
      <SOURCE MIDI
        HASDATA 1 480 QN
        POOLEDEVTS {413F98AD-FC8D-4B71-9F08-0250785AD123}
        <X 0 0
          /wNFVkVOVFM=
        >
        <X 0 0
          /wFbY3Jvd2Rfbm9jbGFwXQ==
        >
        E 0 90 1a 60
        E 120 80 1a 00
        E 840 90 1a 60
        E 120 80 1a 00
        E 840 90 1a 60
        E 120 80 1a 00
        E 360 90 1a 60
        E 120 80 1a 00
        E 360 90 1a 60
        E 120 80 1a 00
        E 360 90 1a 60
        E 120 80 1a 00
        <X 360 0
          /wFbcHJjX2ludHJvXQ==
        >
        E 0 90 1a 60
        E 120 80 1a 00
        E 360 90 1a 60 1
        E 120 80 1a 00 1
        E 360 90 1a 60 1
        E 120 80 1a 00 1
        E 360 90 1a 60 1
        E 120 80 1a 00 1
        E 360 90 1a 60
        E 120 80 1a 00
        E 360 90 1a 60 1
        E 120 80 1a 00 1
        E 360 90 1a 60 1
        E 120 80 1a 00 1
        E 360 90 1a 60 1
        E 120 80 1a 00 1
        E 360 90 1a 60
        E 120 80 1a 00
        E 360 90 1a 60 1
        E 120 80 1a 00 1
        E 360 90 1a 60 1
        E 120 80 1a 00 1
        E 360 90 1a 60 1
        E 120 80 1a 00 1
        E 360 90 1a 60
        E 120 80 1a 00
        E 360 90 1a 60 1
        E 120 80 1a 00 1
        E 360 90 1a 60 1
        E 120 80 1a 00 1
        E 360 90 1a 60 1
        E 120 80 1a 00 1
        <X 360 0
          /wFbcHJjX3ZlcnNlXzFhXQ==
        >
        E 0 90 1a 60
        E 120 80 1a 00
        E 360 90 1a 60 1
        E 120 80 1a 00 1
        E 360 90 1a 60 1
        E 120 80 1a 00 1
        E 360 90 1a 60 1
        E 120 80 1a 00 1
        <X 360 0
          /wFbbXVzaWNfc3RhcnRd
        >
        E 0 90 1a 60
        E 120 80 1a 00
        E 360 90 1a 60 1
        E 120 80 1a 00 1
        E 360 90 1a 60 1
        E 120 80 1a 00 1
        E 360 90 1a 60 1
        E 120 80 1a 00 1
        E 360 90 1a 60
        E 120 80 1a 00
        E 360 90 1a 60 1
        E 120 80 1a 00 1
        E 360 90 1a 60 1
        E 120 80 1a 00 1
        E 360 90 1a 60 1
        E 120 80 1a 00 1
        E 360 90 1a 60
        E 120 80 1a 00
        E 360 90 1a 60 1
        E 120 80 1a 00 1
        E 360 90 1a 60 1
        E 120 80 1a 00 1
        E 360 90 1a 60 1
        E 120 80 1a 00 1
        E 360 90 1a 60
        E 120 80 1a 00
        E 360 90 1a 60 1
        E 120 80 1a 00 1
        E 360 90 1a 60 1
        E 120 80 1a 00 1
        E 360 90 1a 60 1
        E 120 80 1a 00 1
        E 360 90 1a 60
        E 120 80 1a 00
        E 360 90 1a 60 1
        E 120 80 1a 00 1
        E 360 90 1a 60 1
        E 120 80 1a 00 1
        E 360 90 1a 60 1
        E 120 80 1a 00 1
        E 360 90 1a 60
        E 120 80 1a 00
        E 360 90 1a 60 1
        E 120 80 1a 00 1
        E 360 90 1a 60 1
        E 120 80 1a 00 1
        E 360 90 1a 60 1
        E 120 80 1a 00 1
        E 360 90 1a 60
        E 120 80 1a 00
        E 360 90 1a 60 1
        E 120 80 1a 00 1
        E 360 90 1a 60 1
        E 120 80 1a 00 1
        E 360 90 1a 60 1
        E 120 80 1a 00 1
        <X 360 0
          /wFbcHJjX3ZlcnNlXzFiXQ==
        >
        E 0 90 1a 60
        E 120 80 1a 00
        E 360 90 1a 60 1
        E 120 80 1a 00 1
        E 360 90 1a 60 1
        E 120 80 1a 00 1
        E 360 90 1a 60 1
        E 120 80 1a 00 1
        E 360 90 1a 60
        E 120 80 1a 00
        E 360 90 1a 60 1
        E 120 80 1a 00 1
        E 360 90 1a 60 1
        E 120 80 1a 00 1
        E 360 90 1a 60 1
        E 120 80 1a 00 1
        E 360 90 1a 60
        E 120 80 1a 00
        E 360 90 1a 60 1
        E 120 80 1a 00 1
        E 360 90 1a 60 1
        E 120 80 1a 00 1
        E 360 90 1a 60 1
        E 120 80 1a 00 1
        E 360 90 1a 60
        E 120 80 1a 00
        E 360 90 1a 60 1
        E 120 80 1a 00 1
        E 360 90 1a 60 1
        E 120 80 1a 00 1
        E 360 90 1a 60 1
        E 120 80 1a 00 1
        E 360 90 1a 60
        E 120 80 1a 00
        E 360 90 1a 60 1
        E 120 80 1a 00 1
        E 360 90 1a 60 1
        E 120 80 1a 00 1
        E 360 90 1a 60 1
        E 120 80 1a 00 1
        E 360 90 1a 60
        E 120 80 1a 00
        E 360 90 1a 60 1
        E 120 80 1a 00 1
        E 360 90 1a 60 1
        E 120 80 1a 00 1
        E 360 90 1a 60 1
        E 120 80 1a 00 1
        E 360 90 1a 60
        E 120 80 1a 00
        E 360 90 1a 60 1
        E 120 80 1a 00 1
        E 360 90 1a 60 1
        E 120 80 1a 00 1
        E 360 90 1a 60 1
        E 120 80 1a 00 1
        E 360 90 1a 60
        E 120 80 1a 00
        E 360 90 1a 60 1
        E 120 80 1a 00 1
        E 360 90 1a 60 1
        E 120 80 1a 00 1
        E 360 90 1a 60 1
        E 120 80 1a 00 1
        <X 360 0
          /wFbcHJjX21lbG9keV8xXQ==
        >
        E 0 90 1a 60
        E 120 80 1a 00
        E 360 90 1a 60 1
        E 120 80 1a 00 1
        E 360 90 1a 60 1
        E 120 80 1a 00 1
        E 360 90 1a 60 1
        E 120 80 1a 00 1
        E 360 90 1a 60
        E 120 80 1a 00
        E 360 90 1a 60 1
        E 120 80 1a 00 1
        E 360 90 1a 60 1
        E 120 80 1a 00 1
        E 360 90 1a 60 1
        E 120 80 1a 00 1
        E 360 90 1a 60
        E 120 80 1a 00
        E 360 90 1a 60 1
        E 120 80 1a 00 1
        E 360 90 1a 60 1
        E 120 80 1a 00 1
        E 360 90 1a 60 1
        E 120 80 1a 00 1
        E 360 90 1a 60
        E 120 80 1a 00
        E 360 90 1a 60 1
        E 120 80 1a 00 1
        E 360 90 1a 60 1
        E 120 80 1a 00 1
        E 360 90 1a 60 1
        E 120 80 1a 00 1
        <X 360 0
          /wFbcHJjX2JyaWRnZV8xXQ==
        >
        E 0 90 1a 60
        E 120 80 1a 00
        E 360 90 1a 60 1
        E 120 80 1a 00 1
        E 360 90 1a 60 1
        E 120 80 1a 00 1
        E 360 90 1a 60 1
        E 120 80 1a 00 1
        E 360 90 1a 60
        E 120 80 1a 00
        E 360 90 1a 60 1
        E 120 80 1a 00 1
        E 360 90 1a 60 1
        E 120 80 1a 00 1
        E 360 90 1a 60 1
        E 120 80 1a 00 1
        E 360 90 1a 60
        E 120 80 1a 00
        E 360 90 1a 60 1
        E 120 80 1a 00 1
        E 360 90 1a 60 1
        E 120 80 1a 00 1
        E 360 90 1a 60 1
        E 120 80 1a 00 1
        E 360 90 1a 60
        E 120 80 1a 00
        E 360 90 1a 60 1
        E 120 80 1a 00 1
        E 360 90 1a 60 1
        E 120 80 1a 00 1
        E 360 90 1a 60 1
        E 120 80 1a 00 1
        <X 360 0
          /wFbcHJjX3ZlcnNlXzJhXQ==
        >
        E 0 90 1a 60
        E 120 80 1a 00
        E 360 90 1a 60 1
        E 120 80 1a 00 1
        E 360 90 1a 60 1
        E 120 80 1a 00 1
        E 360 90 1a 60 1
        E 120 80 1a 00 1
        E 360 90 1a 60
        E 120 80 1a 00
        E 360 90 1a 60 1
        E 120 80 1a 00 1
        E 360 90 1a 60 1
        E 120 80 1a 00 1
        E 360 90 1a 60 1
        E 120 80 1a 00 1
        E 360 90 1a 60
        E 120 80 1a 00
        E 360 90 1a 60 1
        E 120 80 1a 00 1
        E 360 90 1a 60 1
        E 120 80 1a 00 1
        E 360 90 1a 60 1
        E 120 80 1a 00 1
        E 360 90 1a 60
        E 120 80 1a 00
        E 360 90 1a 60 1
        E 120 80 1a 00 1
        E 360 90 1a 60 1
        E 120 80 1a 00 1
        E 360 90 1a 60 1
        E 120 80 1a 00 1
        E 360 90 1a 60
        E 120 80 1a 00
        E 360 90 1a 60 1
        E 120 80 1a 00 1
        E 360 90 1a 60 1
        E 120 80 1a 00 1
        E 360 90 1a 60 1
        E 120 80 1a 00 1
        E 360 90 1a 60
        E 120 80 1a 00
        E 360 90 1a 60 1
        E 120 80 1a 00 1
        E 360 90 1a 60 1
        E 120 80 1a 00 1
        E 360 90 1a 60 1
        E 120 80 1a 00 1
        E 360 90 1a 60
        E 120 80 1a 00
        E 360 90 1a 60 1
        E 120 80 1a 00 1
        E 360 90 1a 60 1
        E 120 80 1a 00 1
        E 360 90 1a 60 1
        E 120 80 1a 00 1
        E 360 90 1a 60
        E 120 80 1a 00
        E 360 90 1a 60 1
        E 120 80 1a 00 1
        E 360 90 1a 60 1
        E 120 80 1a 00 1
        E 360 90 1a 60 1
        E 120 80 1a 00 1
        <X 360 0
          /wFbcHJjX3ZlcnNlXzJiXQ==
        >
        E 0 90 1a 60
        E 120 80 1a 00
        E 360 90 1a 60 1
        E 120 80 1a 00 1
        E 360 90 1a 60 1
        E 120 80 1a 00 1
        E 360 90 1a 60 1
        E 120 80 1a 00 1
        E 360 90 1a 60
        E 120 80 1a 00
        E 360 90 1a 60 1
        E 120 80 1a 00 1
        E 360 90 1a 60 1
        E 120 80 1a 00 1
        E 360 90 1a 60 1
        E 120 80 1a 00 1
        E 360 90 1a 60
        E 120 80 1a 00
        E 360 90 1a 60 1
        E 120 80 1a 00 1
        E 360 90 1a 60 1
        E 120 80 1a 00 1
        E 360 90 1a 60 1
        E 120 80 1a 00 1
        E 360 90 1a 60
        E 120 80 1a 00
        E 360 90 1a 60 1
        E 120 80 1a 00 1
        E 360 90 1a 60 1
        E 120 80 1a 00 1
        E 360 90 1a 60 1
        E 120 80 1a 00 1
        E 360 90 1a 60
        E 120 80 1a 00
        E 360 90 1a 60 1
        E 120 80 1a 00 1
        E 360 90 1a 60 1
        E 120 80 1a 00 1
        E 360 90 1a 60 1
        E 120 80 1a 00 1
        E 360 90 1a 60
        E 120 80 1a 00
        E 360 90 1a 60 1
        E 120 80 1a 00 1
        E 360 90 1a 60 1
        E 120 80 1a 00 1
        E 360 90 1a 60 1
        E 120 80 1a 00 1
        E 360 90 1a 60
        E 120 80 1a 00
        E 360 90 1a 60 1
        E 120 80 1a 00 1
        E 360 90 1a 60 1
        E 120 80 1a 00 1
        E 360 90 1a 60 1
        E 120 80 1a 00 1
        E 360 90 1a 60
        E 120 80 1a 00
        E 360 90 1a 60 1
        E 120 80 1a 00 1
        E 360 90 1a 60 1
        E 120 80 1a 00 1
        E 360 90 1a 60 1
        E 120 80 1a 00 1
        <X 360 0
          /wFbcHJjX21lbG9keV8yXQ==
        >
        E 0 90 1a 60
        E 120 80 1a 00
        E 360 90 1a 60 1
        E 120 80 1a 00 1
        E 360 90 1a 60 1
        E 120 80 1a 00 1
        E 360 90 1a 60 1
        E 120 80 1a 00 1
        E 360 90 1a 60
        E 120 80 1a 00
        E 360 90 1a 60 1
        E 120 80 1a 00 1
        E 360 90 1a 60 1
        E 120 80 1a 00 1
        E 360 90 1a 60 1
        E 120 80 1a 00 1
        E 360 90 1a 60
        E 120 80 1a 00
        E 360 90 1a 60 1
        E 120 80 1a 00 1
        E 360 90 1a 60 1
        E 120 80 1a 00 1
        E 360 90 1a 60 1
        E 120 80 1a 00 1
        E 360 90 1a 60
        E 120 80 1a 00
        E 360 90 1a 60 1
        E 120 80 1a 00 1
        E 360 90 1a 60 1
        E 120 80 1a 00 1
        E 360 90 1a 60 1
        E 120 80 1a 00 1
        <X 360 0
          /wFbcHJjX291dHJvX3NvbG9d
        >
        E 0 90 1a 60
        E 120 80 1a 00
        E 360 90 1a 60 1
        E 120 80 1a 00 1
        E 360 90 1a 60 1
        E 120 80 1a 00 1
        E 360 90 1a 60 1
        E 120 80 1a 00 1
        E 360 90 1a 60
        E 120 80 1a 00
        E 360 90 1a 60 1
        E 120 80 1a 00 1
        E 360 90 1a 60 1
        E 120 80 1a 00 1
        E 360 90 1a 60 1
        E 120 80 1a 00 1
        E 360 90 1a 60
        E 120 80 1a 00
        E 360 90 1a 60 1
        E 120 80 1a 00 1
        E 360 90 1a 60 1
        E 120 80 1a 00 1
        E 360 90 1a 60 1
        E 120 80 1a 00 1
        E 360 90 1a 60
        E 120 80 1a 00
        E 360 90 1a 60 1
        E 120 80 1a 00 1
        E 360 90 1a 60 1
        E 120 80 1a 00 1
        E 360 90 1a 60 1
        E 120 80 1a 00 1
        E 360 90 1a 60
        E 120 80 1a 00
        E 360 90 1a 60 1
        E 120 80 1a 00 1
        E 360 90 1a 60 1
        E 120 80 1a 00 1
        E 360 90 1a 60 1
        E 120 80 1a 00 1
        E 360 90 1a 60
        E 120 80 1a 00
        E 360 90 1a 60 1
        E 120 80 1a 00 1
        E 360 90 1a 60 1
        E 120 80 1a 00 1
        E 360 90 1a 60 1
        E 120 80 1a 00 1
        E 360 90 1a 60
        E 120 80 1a 00
        E 360 90 1a 60 1
        E 120 80 1a 00 1
        E 360 90 1a 60 1
        E 120 80 1a 00 1
        E 360 90 1a 60 1
        E 120 80 1a 00 1
        E 360 90 1a 60
        E 120 80 1a 00
        <X 1320 0
          /wFbbXVzaWNfZW5kXQ==
        >
        <X 2395 0
          /wFbZW5kXQ==
        >
        E 5 b0 7b 00
        GUID {BCC75EAC-31CA-4466-B3BD-F9EEBAE6BF7D}
        IGNTEMPO 0 120.00000000 4 4
        SRCCOLOR 33
        VELLANE 132 71 60
        COLORMAP "C:\Program Files\REAPER (x64)\Data\color_maps\rockband_guitarbass.png"
        TEXTSTRINGFILE "C:\Program Files\REAPER (x64)\Data\Text_Strings\Text Events List - Events.txt"
        CFGEDITVIEW -7366.912665 6.865074 0 48 0 0 0
        CFGEDIT 1 1 0 1 1 0 1 1 1 1 1 0.25000000 -3 0 1553 884 0 2 1 1 0.00000000 0 1 1 0 0.500000 0 0 1.000000 64
        KEYSNAP 0 7 "102034050607" 0 "Major"
        EVTFILTER 0 -1 -1 -1 -1 0 1 0 0 -1.00000000 -1.00000000
      >
    >
  >
  <TRACK '{0E70A93E-2493-405C-A280-C145362D9DFC}'
    NAME "VENUE"
    PEAKCOL 16576
    BEAT -1
    AUTOMODE 0
    VOLPAN 1.00000000000000 0.00000000000000 -1.00000000000000 -1.00000000000000 1.00000000000000
    MUTESOLO 0 0 0
    IPHASE 0
    ISBUS 1 1
    BUSCOMP 1 0
    SHOWINMIX 1 0.666700 0.500000 1 0.500000 -1 -1 -1
    FREEMODE 0
    SEL 0
    REC 0 0 0 0 0 0 0
    VU 2
    TRACKHEIGHT 0 0
    INQ 0 0 0 0.5000000000 100 0 0 100
    NCHAN 2
    FX 1
    TRACKID {0E70A93E-2493-405C-A280-C145362D9DFC}
    PERF 0
    MIDIOUT -1
    <MIDINOTENAMES
      0 87 "Guitarist Sing Along"
      0 86 "Drummer Sing Along"
      0 85 "Bassist Sing Along"
      0 84 "----"
      0 41 "Spotlight on Keys"
      0 40 "Spotlight on Vocals"
      0 39 "Spotlight on Guitar"
      0 38 "Spotlight on Drums"
      0 37 "Spotlight on Bass"
    >
    MAINSEND 1 0
    <FXCHAIN
      SHOW 0
      LASTSEL 0
      DOCKED 0
    >
    <ITEM
      POSITION 0.00000000000000
      SNAPOFFS 0.00000000000000
      LENGTH 163.46881417504329
      LOOP 0
      ALLTAKES 0
      SEL 0
      FADEIN 1 0.000000 0.000000 1 0
      FADEOUT 1 0.000000 0.000000 1 0
      MUTE 0
      IGUID {0FB3CBEA-B63A-44C5-AB77-960B588C1662}
      IID 37
      NAME "VENUE"
      VOLPAN 1.000000 0.000000 1.000000 -1.000000
      SOFFS 0.00000000000000 0.00000000000000
      PLAYRATE 1.00000000000000 1 0.00000000000000 -1
      CHANMODE 0
      GUID {FF69809D-69E8-4632-8A8C-FB0FA60491C0}
      <SOURCE MIDI
        HASDATA 1 480 QN
        POOLEDEVTS {3EE6DE13-EE4E-4E2D-B4C2-0534C3B732B7}
        <X 0 0
          /wNWRU5VRQ==
        >
        <X 0 0
          /wFbY29vcF9hbGxfZmFyXQ==
        >
        <X 0 0
          /wFbbGlnaHRpbmcgKGJsYWNrb3V0X2Zhc3QpXQ==
        >
        <X 0 0
          /wFbZmlsbV9iK3cucHBd
        >
        E 3600 90 25 60
        E 0 90 29 60
        <X 240 0
          /wFbY29vcF9rX25lYXJd
        >
        <X 0 0
          /wFbbGlnaHRpbmcgKGZsYXJlX2Zhc3QpXQ==
        >
        <X 60 0
          /wFbbGlnaHRpbmcgKGZsYXJlX2Zhc3QpXQ==
        >
        <X 60 0
          /wFbbGlnaHRpbmcgKGJsYWNrb3V0X2Zhc3QpXQ==
        >
        <X 60 0
          /wFbbGlnaHRpbmcgKGJsYWNrb3V0X2Zhc3QpXQ==
        >
        <X 60 0
          /wFbbGlnaHRpbmcgKGZsYXJlX2Zhc3QpXQ==
        >
        <X 240 0
          /wFbbGlnaHRpbmcgKGZsYXJlX2Zhc3QpXQ==
        >
        <X 480 0
          /wFbbGlnaHRpbmcgKGJsYWNrb3V0X3Nsb3cpXQ==
        >
        <X 600 0
          /wFbbGlnaHRpbmcgKGJsYWNrb3V0X3Nsb3cpXQ==
        >
        <X 120 0
          /wFbY29vcF9rX2Nsb3NldXBfaGFuZF0=
        >
        <X 0 0
          /wFbbGlnaHRpbmcgKGZsYXJlX2Zhc3QpXQ==
        >
        <X 60 0
          /wFbbGlnaHRpbmcgKGZsYXJlX2Zhc3QpXQ==
        >
        <X 60 0
          /wFbbGlnaHRpbmcgKGJsYWNrb3V0X2Zhc3QpXQ==
        >
        <X 60 0
          /wFbbGlnaHRpbmcgKGJsYWNrb3V0X2Zhc3QpXQ==
        >
        <X 60 0
          /wFbbGlnaHRpbmcgKGZsYXJlX2Zhc3QpXQ==
        >
        <X 60 0
          /wFbbGlnaHRpbmcgKGZsYXJlX2Zhc3QpXQ==
        >
        <X 60 0
          /wFbbGlnaHRpbmcgKGJsYWNrb3V0X2Zhc3QpXQ==
        >
        <X 60 0
          /wFbbGlnaHRpbmcgKGJsYWNrb3V0X2Zhc3QpXQ==
        >
        <X 60 0
          /wFbbGlnaHRpbmcgKGZsYXJlX2Zhc3QpXQ==
        >
        <X 240 0
          /wFbbGlnaHRpbmcgKGZsYXJlX2Zhc3QpXQ==
        >
        <X 480 0
          /wFbbGlnaHRpbmcgKGJsYWNrb3V0X3Nsb3cpXQ==
        >
        <X 600 0
          /wFbbGlnaHRpbmcgKGJsYWNrb3V0X3Nsb3cpXQ==
        >
        <X 120 0
          /wFbY29vcF9iX2Nsb3NldXBfaGFuZF0=
        >
        <X 0 0
          /wFbbGlnaHRpbmcgKGZsYXJlX2Zhc3QpXQ==
        >
        <X 60 0
          /wFbbGlnaHRpbmcgKGZsYXJlX2Zhc3QpXQ==
        >
        <X 60 0
          /wFbbGlnaHRpbmcgKGJsYWNrb3V0X2Zhc3QpXQ==
        >
        <X 60 0
          /wFbbGlnaHRpbmcgKGJsYWNrb3V0X2Zhc3QpXQ==
        >
        <X 60 0
          /wFbbGlnaHRpbmcgKGZsYXJlX2Zhc3QpXQ==
        >
        <X 60 0
          /wFbbGlnaHRpbmcgKGZsYXJlX2Zhc3QpXQ==
        >
        <X 60 0
          /wFbbGlnaHRpbmcgKGJsYWNrb3V0X2Zhc3QpXQ==
        >
        <X 60 0
          /wFbbGlnaHRpbmcgKGJsYWNrb3V0X2Zhc3QpXQ==
        >
        <X 60 0
          /wFbbGlnaHRpbmcgKGZsYXJlX2Zhc3QpXQ==
        >
        <X 240 0
          /wFbbGlnaHRpbmcgKGZsYXJlX2Zhc3QpXQ==
        >
        <X 480 0
          /wFbbGlnaHRpbmcgKGJsYWNrb3V0X3Nsb3cpXQ==
        >
        <X 600 0
          /wFbbGlnaHRpbmcgKGJsYWNrb3V0X3Nsb3cpXQ==
        >
        <X 120 0
          /wFbY29vcF9iX2Nsb3NldXBfaGFuZF0=
        >
        <X 0 0
          /wFbbGlnaHRpbmcgKGZsYXJlX2Zhc3QpXQ==
        >
        <X 60 0
          /wFbbGlnaHRpbmcgKGZsYXJlX2Zhc3QpXQ==
        >
        <X 60 0
          /wFbbGlnaHRpbmcgKGJsYWNrb3V0X2Zhc3QpXQ==
        >
        <X 60 0
          /wFbbGlnaHRpbmcgKGJsYWNrb3V0X2Zhc3QpXQ==
        >
        <X 60 0
          /wFbbGlnaHRpbmcgKGZsYXJlX2Zhc3QpXQ==
        >
        <X 60 0
          /wFbbGlnaHRpbmcgKGZsYXJlX2Zhc3QpXQ==
        >
        <X 60 0
          /wFbbGlnaHRpbmcgKGJsYWNrb3V0X2Zhc3QpXQ==
        >
        <X 60 0
          /wFbbGlnaHRpbmcgKGJsYWNrb3V0X2Zhc3QpXQ==
        >
        <X 60 0
          /wFbbGlnaHRpbmcgKGZsYXJlX2Zhc3QpXQ==
        >
        <X 240 0
          /wFbbGlnaHRpbmcgKGZsYXJlX2Zhc3QpXQ==
        >
        <X 480 0
          /wFbbGlnaHRpbmcgKGJsYWNrb3V0X3Nsb3cpXQ==
        >
        <X 600 0
          /wFbbGlnaHRpbmcgKGJsYWNrb3V0X3Nsb3cpXQ==
        >
        <X 120 0
          /wFbY29vcF92X25lYXJd
        >
        <X 0 0
          /wFbbGlnaHRpbmcgKGZsYXJlX2Zhc3QpXQ==
        >
        <X 60 0
          /wFbbGlnaHRpbmcgKGZsYXJlX2Zhc3QpXQ==
        >
        <X 60 0
          /wFbbGlnaHRpbmcgKGJsYWNrb3V0X2Zhc3QpXQ==
        >
        <X 60 0
          /wFbbGlnaHRpbmcgKGJsYWNrb3V0X2Zhc3QpXQ==
        >
        <X 60 0
          /wFbbGlnaHRpbmcgKGZsYXJlX2Zhc3QpXQ==
        >
        <X 60 0
          /wFbbGlnaHRpbmcgKGZsYXJlX2Zhc3QpXQ==
        >
        <X 60 0
          /wFbbGlnaHRpbmcgKGJsYWNrb3V0X2Zhc3QpXQ==
        >
        <X 60 0
          /wFbbGlnaHRpbmcgKGJsYWNrb3V0X2Zhc3QpXQ==
        >
        <X 60 0
          /wFbbGlnaHRpbmcgKGZsYXJlX2Zhc3QpXQ==
        >
        E 0 90 28 60
        <X 240 0
          /wFbbGlnaHRpbmcgKGZsYXJlX2Zhc3QpXQ==
        >
        <X 480 0
          /wFbbGlnaHRpbmcgKGJsYWNrb3V0X3Nsb3cpXQ==
        >
        <X 600 0
          /wFbbGlnaHRpbmcgKGJsYWNrb3V0X3Nsb3cpXQ==
        >
        <X 120 0
          /wFbbGlnaHRpbmcgKGZsYXJlX2Zhc3QpXQ==
        >
        <X 60 0
          /wFbbGlnaHRpbmcgKGZsYXJlX2Zhc3QpXQ==
        >
        <X 60 0
          /wFbbGlnaHRpbmcgKGJsYWNrb3V0X2Zhc3QpXQ==
        >
        <X 60 0
          /wFbbGlnaHRpbmcgKGJsYWNrb3V0X2Zhc3QpXQ==
        >
        <X 60 0
          /wFbY29vcF92X25lYXJd
        >
        <X 0 0
          /wFbbGlnaHRpbmcgKGZsYXJlX2Zhc3QpXQ==
        >
        <X 60 0
          /wFbbGlnaHRpbmcgKGZsYXJlX2Zhc3QpXQ==
        >
        <X 60 0
          /wFbbGlnaHRpbmcgKGJsYWNrb3V0X2Zhc3QpXQ==
        >
        <X 60 0
          /wFbbGlnaHRpbmcgKGJsYWNrb3V0X2Zhc3QpXQ==
        >
        <X 60 0
          /wFbbGlnaHRpbmcgKGZsYXJlX2Zhc3QpXQ==
        >
        <X 240 0
          /wFbbGlnaHRpbmcgKGZsYXJlX2Zhc3QpXQ==
        >
        <X 480 0
          /wFbbGlnaHRpbmcgKGJsYWNrb3V0X3Nsb3cpXQ==
        >
        <X 600 0
          /wFbbGlnaHRpbmcgKGJsYWNrb3V0X3Nsb3cpXQ==
        >
        <X 120 0
          /wFbY29vcF92X25lYXJd
        >
        <X 0 0
          /wFbbGlnaHRpbmcgKGZsYXJlX2Zhc3QpXQ==
        >
        <X 60 0
          /wFbbGlnaHRpbmcgKGZsYXJlX2Zhc3QpXQ==
        >
        <X 60 0
          /wFbbGlnaHRpbmcgKGJsYWNrb3V0X2Zhc3QpXQ==
        >
        <X 60 0
          /wFbbGlnaHRpbmcgKGJsYWNrb3V0X2Zhc3QpXQ==
        >
        <X 60 0
          /wFbbGlnaHRpbmcgKGZsYXJlX2Zhc3QpXQ==
        >
        <X 60 0
          /wFbbGlnaHRpbmcgKGZsYXJlX2Zhc3QpXQ==
        >
        <X 60 0
          /wFbbGlnaHRpbmcgKGJsYWNrb3V0X2Zhc3QpXQ==
        >
        <X 60 0
          /wFbbGlnaHRpbmcgKGJsYWNrb3V0X2Zhc3QpXQ==
        >
        <X 60 0
          /wFbbGlnaHRpbmcgKGZsYXJlX2Zhc3QpXQ==
        >
        <X 240 0
          /wFbbGlnaHRpbmcgKGZsYXJlX2Zhc3QpXQ==
        >
        <X 480 0
          /wFbbGlnaHRpbmcgKGJsYWNrb3V0X3Nsb3cpXQ==
        >
        E 480 80 28 00
        <X 120 0
          /wFbbGlnaHRpbmcgKGJsYWNrb3V0X3Nsb3cpXQ==
        >
        <X 120 0
          /wFbY29vcF9iX2Nsb3NldXBfaGFuZF0=
        >
        <X 0 0
          /wFbbGlnaHRpbmcgKGZsYXJlX2Zhc3QpXQ==
        >
        <X 60 0
          /wFbbGlnaHRpbmcgKGZsYXJlX2Zhc3QpXQ==
        >
        <X 60 0
          /wFbbGlnaHRpbmcgKGJsYWNrb3V0X2Zhc3QpXQ==
        >
        <X 60 0
          /wFbbGlnaHRpbmcgKGJsYWNrb3V0X2Zhc3QpXQ==
        >
        <X 60 0
          /wFbbGlnaHRpbmcgKGZsYXJlX2Zhc3QpXQ==
        >
        <X 60 0
          /wFbbGlnaHRpbmcgKGZsYXJlX2Zhc3QpXQ==
        >
        <X 60 0
          /wFbbGlnaHRpbmcgKGJsYWNrb3V0X2Zhc3QpXQ==
        >
        <X 60 0
          /wFbbGlnaHRpbmcgKGJsYWNrb3V0X2Zhc3QpXQ==
        >
        <X 60 0
          /wFbbGlnaHRpbmcgKGZsYXJlX2Zhc3QpXQ==
        >
        <X 240 0
          /wFbbGlnaHRpbmcgKGZsYXJlX2Zhc3QpXQ==
        >
        <X 480 0
          /wFbbGlnaHRpbmcgKGJsYWNrb3V0X3Nsb3cpXQ==
        >
        <X 600 0
          /wFbbGlnaHRpbmcgKGJsYWNrb3V0X3Nsb3cpXQ==
        >
        <X 120 0
          /wFbbGlnaHRpbmcgKGZsYXJlX2Zhc3QpXQ==
        >
        <X 60 0
          /wFbbGlnaHRpbmcgKGZsYXJlX2Zhc3QpXQ==
        >
        <X 60 0
          /wFbbGlnaHRpbmcgKGJsYWNrb3V0X2Zhc3QpXQ==
        >
        <X 60 0
          /wFbbGlnaHRpbmcgKGJsYWNrb3V0X2Zhc3QpXQ==
        >
        <X 60 0
          /wFbbGlnaHRpbmcgKGZsYXJlX2Zhc3QpXQ==
        >
        <X 60 0
          /wFbbGlnaHRpbmcgKGZsYXJlX2Zhc3QpXQ==
        >
        <X 60 0
          /wFbbGlnaHRpbmcgKGJsYWNrb3V0X2Zhc3QpXQ==
        >
        <X 60 0
          /wFbbGlnaHRpbmcgKGJsYWNrb3V0X2Zhc3QpXQ==
        >
        <X 60 0
          /wFbbGlnaHRpbmcgKGZsYXJlX2Zhc3QpXQ==
        >
        E 0 90 28 60
        <X 240 0
          /wFbY29vcF92X25lYXJd
        >
        <X 0 0
          /wFbbGlnaHRpbmcgKGZsYXJlX2Zhc3QpXQ==
        >
        <X 480 0
          /wFbbGlnaHRpbmcgKGJsYWNrb3V0X3Nsb3cpXQ==
        >
        <X 600 0
          /wFbbGlnaHRpbmcgKGJsYWNrb3V0X3Nsb3cpXQ==
        >
        <X 120 0
          /wFbbGlnaHRpbmcgKGZsYXJlX2Zhc3QpXQ==
        >
        <X 60 0
          /wFbbGlnaHRpbmcgKGZsYXJlX2Zhc3QpXQ==
        >
        <X 60 0
          /wFbbGlnaHRpbmcgKGJsYWNrb3V0X2Zhc3QpXQ==
        >
        <X 60 0
          /wFbbGlnaHRpbmcgKGJsYWNrb3V0X2Zhc3QpXQ==
        >
        <X 60 0
          /wFbY29vcF92X25lYXJd
        >
        <X 0 0
          /wFbbGlnaHRpbmcgKGZsYXJlX2Zhc3QpXQ==
        >
        <X 60 0
          /wFbbGlnaHRpbmcgKGZsYXJlX2Zhc3QpXQ==
        >
        <X 60 0
          /wFbbGlnaHRpbmcgKGJsYWNrb3V0X2Zhc3QpXQ==
        >
        <X 60 0
          /wFbbGlnaHRpbmcgKGJsYWNrb3V0X2Zhc3QpXQ==
        >
        <X 60 0
          /wFbbGlnaHRpbmcgKGZsYXJlX2Zhc3QpXQ==
        >
        <X 240 0
          /wFbbGlnaHRpbmcgKGZsYXJlX2Zhc3QpXQ==
        >
        <X 480 0
          /wFbbGlnaHRpbmcgKGJsYWNrb3V0X3Nsb3cpXQ==
        >
        <X 600 0
          /wFbbGlnaHRpbmcgKGJsYWNrb3V0X3Nsb3cpXQ==
        >
        <X 120 0
          /wFbbGlnaHRpbmcgKGZsYXJlX2Zhc3QpXQ==
        >
        <X 60 0
          /wFbbGlnaHRpbmcgKGZsYXJlX2Zhc3QpXQ==
        >
        <X 60 0
          /wFbbGlnaHRpbmcgKGJsYWNrb3V0X2Zhc3QpXQ==
        >
        <X 60 0
          /wFbbGlnaHRpbmcgKGJsYWNrb3V0X2Zhc3QpXQ==
        >
        <X 60 0
          /wFbY29vcF9mcm9udF9iZWhpbmRd
        >
        <X 0 0
          /wFbbGlnaHRpbmcgKGZsYXJlX2Zhc3QpXQ==
        >
        <X 60 0
          /wFbbGlnaHRpbmcgKGZsYXJlX2Zhc3QpXQ==
        >
        <X 60 0
          /wFbbGlnaHRpbmcgKGJsYWNrb3V0X2Zhc3QpXQ==
        >
        <X 60 0
          /wFbbGlnaHRpbmcgKGJsYWNrb3V0X2Zhc3QpXQ==
        >
        <X 60 0
          /wFbbGlnaHRpbmcgKGZsYXJlX2Zhc3QpXQ==
        >
        <X 240 0
          /wFbbGlnaHRpbmcgKGZsYXJlX2Zhc3QpXQ==
        >
        <X 480 0
          /wFbbGlnaHRpbmcgKGJsYWNrb3V0X3Nsb3cpXQ==
        >
        E 240 80 28 00
        <X 360 0
          /wFbbGlnaHRpbmcgKGJsYWNrb3V0X3Nsb3cpXQ==
        >
        <X 120 0
          /wFbbGlnaHRpbmcgKGZsYXJlX2Zhc3QpXQ==
        >
        <X 60 0
          /wFbbGlnaHRpbmcgKGZsYXJlX2Zhc3QpXQ==
        >
        <X 60 0
          /wFbbGlnaHRpbmcgKGJsYWNrb3V0X2Zhc3QpXQ==
        >
        <X 60 0
          /wFbbGlnaHRpbmcgKGJsYWNrb3V0X2Zhc3QpXQ==
        >
        <X 60 0
          /wFbY29vcF9hbGxfbmVhcl0=
        >
        <X 0 0
          /wFbbGlnaHRpbmcgKGZsYXJlX2Zhc3QpXQ==
        >
        <X 60 0
          /wFbbGlnaHRpbmcgKGZsYXJlX2Zhc3QpXQ==
        >
        <X 60 0
          /wFbbGlnaHRpbmcgKGJsYWNrb3V0X2Zhc3QpXQ==
        >
        <X 60 0
          /wFbbGlnaHRpbmcgKGJsYWNrb3V0X2Zhc3QpXQ==
        >
        <X 60 0
          /wFbbGlnaHRpbmcgKGZsYXJlX2Zhc3QpXQ==
        >
        <X 240 0
          /wFbbGlnaHRpbmcgKGZsYXJlX2Zhc3QpXQ==
        >
        <X 480 0
          /wFbbGlnaHRpbmcgKGJsYWNrb3V0X3Nsb3cpXQ==
        >
        <X 600 0
          /wFbbGlnaHRpbmcgKGJsYWNrb3V0X3Nsb3cpXQ==
        >
        <X 120 0
          /wFbbGlnaHRpbmcgKGZsYXJlX2Zhc3QpXQ==
        >
        <X 60 0
          /wFbbGlnaHRpbmcgKGZsYXJlX2Zhc3QpXQ==
        >
        <X 60 0
          /wFbbGlnaHRpbmcgKGJsYWNrb3V0X2Zhc3QpXQ==
        >
        <X 60 0
          /wFbbGlnaHRpbmcgKGJsYWNrb3V0X2Zhc3QpXQ==
        >
        <X 60 0
          /wFbY29vcF9rX25lYXJd
        >
        <X 0 0
          /wFbbGlnaHRpbmcgKGZsYXJlX2Zhc3QpXQ==
        >
        <X 60 0
          /wFbbGlnaHRpbmcgKGZsYXJlX2Zhc3QpXQ==
        >
        <X 60 0
          /wFbbGlnaHRpbmcgKGJsYWNrb3V0X2Zhc3QpXQ==
        >
        <X 60 0
          /wFbbGlnaHRpbmcgKGJsYWNrb3V0X2Zhc3QpXQ==
        >
        <X 60 0
          /wFbbGlnaHRpbmcgKGZsYXJlX2Zhc3QpXQ==
        >
        E 0 90 28 60
        <X 240 0
          /wFbbGlnaHRpbmcgKGZsYXJlX2Zhc3QpXQ==
        >
        <X 480 0
          /wFbbGlnaHRpbmcgKGJsYWNrb3V0X3Nsb3cpXQ==
        >
        <X 600 0
          /wFbbGlnaHRpbmcgKGJsYWNrb3V0X3Nsb3cpXQ==
        >
        <X 120 0
          /wFbbGlnaHRpbmcgKGZsYXJlX2Zhc3QpXQ==
        >
        <X 60 0
          /wFbbGlnaHRpbmcgKGZsYXJlX2Zhc3QpXQ==
        >
        <X 60 0
          /wFbbGlnaHRpbmcgKGJsYWNrb3V0X2Zhc3QpXQ==
        >
        <X 60 0
          /wFbbGlnaHRpbmcgKGJsYWNrb3V0X2Zhc3QpXQ==
        >
        <X 60 0
          /wFbY29vcF9rX2Nsb3NldXBfaGFuZF0=
        >
        <X 0 0
          /wFbbGlnaHRpbmcgKGZsYXJlX2Zhc3QpXQ==
        >
        <X 60 0
          /wFbbGlnaHRpbmcgKGZsYXJlX2Zhc3QpXQ==
        >
        <X 60 0
          /wFbbGlnaHRpbmcgKGJsYWNrb3V0X2Zhc3QpXQ==
        >
        <X 60 0
          /wFbbGlnaHRpbmcgKGJsYWNrb3V0X2Zhc3QpXQ==
        >
        <X 60 0
          /wFbbGlnaHRpbmcgKGZsYXJlX2Zhc3QpXQ==
        >
        <X 240 0
          /wFbbGlnaHRpbmcgKGZsYXJlX2Zhc3QpXQ==
        >
        <X 480 0
          /wFbbGlnaHRpbmcgKGJsYWNrb3V0X3Nsb3cpXQ==
        >
        <X 600 0
          /wFbbGlnaHRpbmcgKGJsYWNrb3V0X3Nsb3cpXQ==
        >
        <X 120 0
          /wFbbGlnaHRpbmcgKGZsYXJlX2Zhc3QpXQ==
        >
        <X 60 0
          /wFbbGlnaHRpbmcgKGZsYXJlX2Zhc3QpXQ==
        >
        <X 60 0
          /wFbbGlnaHRpbmcgKGJsYWNrb3V0X2Zhc3QpXQ==
        >
        <X 60 0
          /wFbbGlnaHRpbmcgKGJsYWNrb3V0X2Zhc3QpXQ==
        >
        <X 60 0
          /wFbY29vcF92X25lYXJd
        >
        <X 0 0
          /wFbbGlnaHRpbmcgKGZsYXJlX2Zhc3QpXQ==
        >
        <X 60 0
          /wFbbGlnaHRpbmcgKGZsYXJlX2Zhc3QpXQ==
        >
        <X 60 0
          /wFbbGlnaHRpbmcgKGJsYWNrb3V0X2Zhc3QpXQ==
        >
        <X 60 0
          /wFbbGlnaHRpbmcgKGJsYWNrb3V0X2Zhc3QpXQ==
        >
        <X 60 0
          /wFbbGlnaHRpbmcgKGZsYXJlX2Zhc3QpXQ==
        >
        <X 240 0
          /wFbbGlnaHRpbmcgKGZsYXJlX2Zhc3QpXQ==
        >
        <X 480 0
          /wFbbGlnaHRpbmcgKGJsYWNrb3V0X3Nsb3cpXQ==
        >
        E 240 80 28 00
        <X 360 0
          /wFbbGlnaHRpbmcgKGJsYWNrb3V0X3Nsb3cpXQ==
        >
        <X 120 0
          /wFbY29vcF9iX2Nsb3NldXBfaGFuZF0=
        >
        <X 0 0
          /wFbbGlnaHRpbmcgKGZsYXJlX2Zhc3QpXQ==
        >
        <X 60 0
          /wFbbGlnaHRpbmcgKGZsYXJlX2Zhc3QpXQ==
        >
        <X 60 0
          /wFbbGlnaHRpbmcgKGJsYWNrb3V0X2Zhc3QpXQ==
        >
        <X 60 0
          /wFbbGlnaHRpbmcgKGJsYWNrb3V0X2Zhc3QpXQ==
        >
        <X 60 0
          /wFbbGlnaHRpbmcgKGZsYXJlX2Zhc3QpXQ==
        >
        <X 60 0
          /wFbbGlnaHRpbmcgKGZsYXJlX2Zhc3QpXQ==
        >
        <X 60 0
          /wFbbGlnaHRpbmcgKGJsYWNrb3V0X2Zhc3QpXQ==
        >
        <X 60 0
          /wFbbGlnaHRpbmcgKGJsYWNrb3V0X2Zhc3QpXQ==
        >
        <X 60 0
          /wFbbGlnaHRpbmcgKGZsYXJlX2Zhc3QpXQ==
        >
        <X 240 0
          /wFbbGlnaHRpbmcgKGZsYXJlX2Zhc3QpXQ==
        >
        <X 480 0
          /wFbbGlnaHRpbmcgKGJsYWNrb3V0X3Nsb3cpXQ==
        >
        <X 600 0
          /wFbbGlnaHRpbmcgKGJsYWNrb3V0X3Nsb3cpXQ==
        >
        <X 120 0
          /wFbbGlnaHRpbmcgKGZsYXJlX2Zhc3QpXQ==
        >
        <X 60 0
          /wFbbGlnaHRpbmcgKGZsYXJlX2Zhc3QpXQ==
        >
        <X 60 0
          /wFbbGlnaHRpbmcgKGJsYWNrb3V0X2Zhc3QpXQ==
        >
        <X 60 0
          /wFbbGlnaHRpbmcgKGJsYWNrb3V0X2Zhc3QpXQ==
        >
        <X 60 0
          /wFbbGlnaHRpbmcgKGZsYXJlX2Zhc3QpXQ==
        >
        E 0 90 57 60
        <X 60 0
          /wFbbGlnaHRpbmcgKGZsYXJlX2Zhc3QpXQ==
        >
        <X 60 0
          /wFbbGlnaHRpbmcgKGJsYWNrb3V0X2Zhc3QpXQ==
        >
        <X 60 0
          /wFbbGlnaHRpbmcgKGJsYWNrb3V0X2Zhc3QpXQ==
        >
        <X 60 0
          /wFbbGlnaHRpbmcgKGZsYXJlX2Zhc3QpXQ==
        >
        E 0 90 28 60
        <X 240 0
          /wFbY29vcF9rdl9uZWFyXQ==
        >
        <X 0 0
          /wFbbGlnaHRpbmcgKGZsYXJlX2Zhc3QpXQ==
        >
        <X 480 0
          /wFbbGlnaHRpbmcgKGJsYWNrb3V0X3Nsb3cpXQ==
        >
        <X 600 0
          /wFbbGlnaHRpbmcgKGJsYWNrb3V0X3Nsb3cpXQ==
        >
        <X 120 0
          /wFbbGlnaHRpbmcgKGZsYXJlX2Zhc3QpXQ==
        >
        <X 60 0
          /wFbbGlnaHRpbmcgKGZsYXJlX2Zhc3QpXQ==
        >
        <X 60 0
          /wFbbGlnaHRpbmcgKGJsYWNrb3V0X2Zhc3QpXQ==
        >
        <X 60 0
          /wFbbGlnaHRpbmcgKGJsYWNrb3V0X2Zhc3QpXQ==
        >
        <X 60 0
          /wFbbGlnaHRpbmcgKGZsYXJlX2Zhc3QpXQ==
        >
        <X 60 0
          /wFbbGlnaHRpbmcgKGZsYXJlX2Zhc3QpXQ==
        >
        <X 60 0
          /wFbbGlnaHRpbmcgKGJsYWNrb3V0X2Zhc3QpXQ==
        >
        <X 60 0
          /wFbbGlnaHRpbmcgKGJsYWNrb3V0X2Zhc3QpXQ==
        >
        <X 60 0
          /wFbbGlnaHRpbmcgKGZsYXJlX2Zhc3QpXQ==
        >
        <X 240 0
          /wFbbGlnaHRpbmcgKGZsYXJlX2Zhc3QpXQ==
        >
        <X 480 0
          /wFbbGlnaHRpbmcgKGJsYWNrb3V0X3Nsb3cpXQ==
        >
        <X 600 0
          /wFbbGlnaHRpbmcgKGJsYWNrb3V0X3Nsb3cpXQ==
        >
        <X 120 0
          /wFbbGlnaHRpbmcgKGZsYXJlX2Zhc3QpXQ==
        >
        <X 60 0
          /wFbbGlnaHRpbmcgKGZsYXJlX2Zhc3QpXQ==
        >
        <X 60 0
          /wFbbGlnaHRpbmcgKGJsYWNrb3V0X2Zhc3QpXQ==
        >
        <X 60 0
          /wFbbGlnaHRpbmcgKGJsYWNrb3V0X2Zhc3QpXQ==
        >
        <X 60 0
          /wFbY29vcF9rdl9iZWhpbmRd
        >
        <X 0 0
          /wFbbGlnaHRpbmcgKGZsYXJlX2Zhc3QpXQ==
        >
        <X 60 0
          /wFbbGlnaHRpbmcgKGZsYXJlX2Zhc3QpXQ==
        >
        <X 60 0
          /wFbbGlnaHRpbmcgKGJsYWNrb3V0X2Zhc3QpXQ==
        >
        <X 60 0
          /wFbbGlnaHRpbmcgKGJsYWNrb3V0X2Zhc3QpXQ==
        >
        <X 60 0
          /wFbbGlnaHRpbmcgKGZsYXJlX2Zhc3QpXQ==
        >
        <X 240 0
          /wFbbGlnaHRpbmcgKGZsYXJlX2Zhc3QpXQ==
        >
        <X 480 0
          /wFbbGlnaHRpbmcgKGJsYWNrb3V0X3Nsb3cpXQ==
        >
        E 240 80 28 00
        E 240 80 57 00
        <X 120 0
          /wFbbGlnaHRpbmcgKGJsYWNrb3V0X3Nsb3cpXQ==
        >
        <X 120 0
          /wFbY29vcF9iX25lYXJd
        >
        <X 0 0
          /wFbbGlnaHRpbmcgKGZsYXJlX2Zhc3QpXQ==
        >
        <X 60 0
          /wFbbGlnaHRpbmcgKGZsYXJlX2Zhc3QpXQ==
        >
        <X 60 0
          /wFbbGlnaHRpbmcgKGJsYWNrb3V0X2Zhc3QpXQ==
        >
        <X 60 0
          /wFbbGlnaHRpbmcgKGJsYWNrb3V0X2Zhc3QpXQ==
        >
        <X 60 0
          /wFbbGlnaHRpbmcgKGZsYXJlX2Zhc3QpXQ==
        >
        <X 60 0
          /wFbbGlnaHRpbmcgKGZsYXJlX2Zhc3QpXQ==
        >
        <X 60 0
          /wFbbGlnaHRpbmcgKGJsYWNrb3V0X2Zhc3QpXQ==
        >
        <X 60 0
          /wFbbGlnaHRpbmcgKGJsYWNrb3V0X2Zhc3QpXQ==
        >
        <X 60 0
          /wFbbGlnaHRpbmcgKGZsYXJlX2Zhc3QpXQ==
        >
        <X 240 0
          /wFbbGlnaHRpbmcgKGZsYXJlX2Zhc3QpXQ==
        >
        <X 480 0
          /wFbbGlnaHRpbmcgKGJsYWNrb3V0X3Nsb3cpXQ==
        >
        <X 600 0
          /wFbbGlnaHRpbmcgKGJsYWNrb3V0X3Nsb3cpXQ==
        >
        <X 120 0
          /wFbbGlnaHRpbmcgKGZsYXJlX2Zhc3QpXQ==
        >
        E 0 80 25 00
        <X 60 0
          /wFbbGlnaHRpbmcgKGZsYXJlX2Zhc3QpXQ==
        >
        <X 60 0
          /wFbbGlnaHRpbmcgKGJsYWNrb3V0X2Zhc3QpXQ==
        >
        <X 60 0
          /wFbbGlnaHRpbmcgKGJsYWNrb3V0X2Zhc3QpXQ==
        >
        <X 60 0
          /wFbY29vcF9rX2Nsb3NldXBfaGFuZF0=
        >
        <X 0 0
          /wFbbGlnaHRpbmcgKHNpbGhvdWV0dGVzX3Nwb3QpXQ==
        >
        <X 3840 0
          /wFbY29vcF9rX25lYXJd
        >
        E 3600 90 25 60
        <X 240 0
          /wFbY29vcF9iX25lYXJd
        >
        <X 3840 0
          /wFbY29vcF9rX2Nsb3NldXBfaGVhZF0=
        >
        <X 1920 0
          /wFbY29vcF9mcm9udF9iZWhpbmRd
        >
        <X 1800 0
          /wFbbGlnaHRpbmcgKHNpbGhvdWV0dGVzX3Nwb3QpXQ==
        >
        <X 120 0
          /wFbY29vcF92X25lYXJd
        >
        <X 0 0
          /wFbbGlnaHRpbmcgKGZsYXJlX2Zhc3QpXQ==
        >
        E 0 90 57 60
        <X 60 0
          /wFbbGlnaHRpbmcgKGZsYXJlX2Zhc3QpXQ==
        >
        <X 60 0
          /wFbbGlnaHRpbmcgKGJsYWNrb3V0X2Zhc3QpXQ==
        >
        <X 60 0
          /wFbbGlnaHRpbmcgKGJsYWNrb3V0X2Zhc3QpXQ==
        >
        <X 60 0
          /wFbbGlnaHRpbmcgKGZsYXJlX2Zhc3QpXQ==
        >
        E 0 90 28 60
        <X 240 0
          /wFbbGlnaHRpbmcgKGZsYXJlX2Zhc3QpXQ==
        >
        <X 480 0
          /wFbbGlnaHRpbmcgKGJsYWNrb3V0X3Nsb3cpXQ==
        >
        <X 600 0
          /wFbbGlnaHRpbmcgKGJsYWNrb3V0X3Nsb3cpXQ==
        >
        <X 120 0
          /wFbbGlnaHRpbmcgKGZsYXJlX2Zhc3QpXQ==
        >
        <X 60 0
          /wFbbGlnaHRpbmcgKGZsYXJlX2Zhc3QpXQ==
        >
        <X 60 0
          /wFbbGlnaHRpbmcgKGJsYWNrb3V0X2Zhc3QpXQ==
        >
        <X 60 0
          /wFbbGlnaHRpbmcgKGJsYWNrb3V0X2Zhc3QpXQ==
        >
        <X 60 0
          /wFbbGlnaHRpbmcgKGZsYXJlX2Zhc3QpXQ==
        >
        <X 60 0
          /wFbbGlnaHRpbmcgKGZsYXJlX2Zhc3QpXQ==
        >
        <X 60 0
          /wFbbGlnaHRpbmcgKGJsYWNrb3V0X2Zhc3QpXQ==
        >
        <X 60 0
          /wFbbGlnaHRpbmcgKGJsYWNrb3V0X2Zhc3QpXQ==
        >
        <X 60 0
          /wFbbGlnaHRpbmcgKGZsYXJlX2Zhc3QpXQ==
        >
        <X 240 0
          /wFbY29vcF9rX2Nsb3NldXBfaGVhZF0=
        >
        <X 0 0
          /wFbbGlnaHRpbmcgKGZsYXJlX2Zhc3QpXQ==
        >
        <X 480 0
          /wFbbGlnaHRpbmcgKGJsYWNrb3V0X3Nsb3cpXQ==
        >
        <X 600 0
          /wFbbGlnaHRpbmcgKGJsYWNrb3V0X3Nsb3cpXQ==
        >
        <X 120 0
          /wFbbGlnaHRpbmcgKGZsYXJlX2Zhc3QpXQ==
        >
        <X 60 0
          /wFbbGlnaHRpbmcgKGZsYXJlX2Zhc3QpXQ==
        >
        <X 60 0
          /wFbbGlnaHRpbmcgKGJsYWNrb3V0X2Zhc3QpXQ==
        >
        <X 60 0
          /wFbbGlnaHRpbmcgKGJsYWNrb3V0X2Zhc3QpXQ==
        >
        <X 60 0
          /wFbY29vcF9rX2Nsb3NldXBfaGVhZF0=
        >
        <X 0 0
          /wFbbGlnaHRpbmcgKGZsYXJlX2Zhc3QpXQ==
        >
        <X 60 0
          /wFbbGlnaHRpbmcgKGZsYXJlX2Zhc3QpXQ==
        >
        <X 60 0
          /wFbbGlnaHRpbmcgKGJsYWNrb3V0X2Zhc3QpXQ==
        >
        <X 60 0
          /wFbbGlnaHRpbmcgKGJsYWNrb3V0X2Zhc3QpXQ==
        >
        <X 60 0
          /wFbbGlnaHRpbmcgKGZsYXJlX2Zhc3QpXQ==
        >
        <X 240 0
          /wFbbGlnaHRpbmcgKGZsYXJlX2Zhc3QpXQ==
        >
        <X 480 0
          /wFbbGlnaHRpbmcgKGJsYWNrb3V0X3Nsb3cpXQ==
        >
        E 480 80 57 00
        E 0 80 28 00
        <X 120 0
          /wFbbGlnaHRpbmcgKGJsYWNrb3V0X3Nsb3cpXQ==
        >
        <X 120 0
          /wFbY29vcF9rX2Nsb3NldXBfaGFuZF0=
        >
        <X 0 0
          /wFbbGlnaHRpbmcgKGZsYXJlX2Zhc3QpXQ==
        >
        <X 60 0
          /wFbbGlnaHRpbmcgKGZsYXJlX2Zhc3QpXQ==
        >
        <X 60 0
          /wFbbGlnaHRpbmcgKGJsYWNrb3V0X2Zhc3QpXQ==
        >
        <X 60 0
          /wFbbGlnaHRpbmcgKGJsYWNrb3V0X2Zhc3QpXQ==
        >
        <X 60 0
          /wFbbGlnaHRpbmcgKGZsYXJlX2Zhc3QpXQ==
        >
        <X 60 0
          /wFbbGlnaHRpbmcgKGZsYXJlX2Zhc3QpXQ==
        >
        <X 60 0
          /wFbbGlnaHRpbmcgKGJsYWNrb3V0X2Zhc3QpXQ==
        >
        <X 60 0
          /wFbbGlnaHRpbmcgKGJsYWNrb3V0X2Zhc3QpXQ==
        >
        <X 60 0
          /wFbbGlnaHRpbmcgKGZsYXJlX2Zhc3QpXQ==
        >
        <X 240 0
          /wFbbGlnaHRpbmcgKGZsYXJlX2Zhc3QpXQ==
        >
        <X 480 0
          /wFbbGlnaHRpbmcgKGJsYWNrb3V0X3Nsb3cpXQ==
        >
        <X 600 0
          /wFbbGlnaHRpbmcgKGJsYWNrb3V0X3Nsb3cpXQ==
        >
        <X 120 0
          /wFbbGlnaHRpbmcgKGZsYXJlX2Zhc3QpXQ==
        >
        <X 60 0
          /wFbbGlnaHRpbmcgKGZsYXJlX2Zhc3QpXQ==
        >
        <X 60 0
          /wFbbGlnaHRpbmcgKGJsYWNrb3V0X2Zhc3QpXQ==
        >
        <X 60 0
          /wFbbGlnaHRpbmcgKGJsYWNrb3V0X2Zhc3QpXQ==
        >
        <X 60 0
          /wFbY29vcF92X25lYXJd
        >
        <X 0 0
          /wFbbGlnaHRpbmcgKGZsYXJlX2Zhc3QpXQ==
        >
        E 0 90 57 60
        <X 60 0
          /wFbbGlnaHRpbmcgKGZsYXJlX2Zhc3QpXQ==
        >
        <X 60 0
          /wFbbGlnaHRpbmcgKGJsYWNrb3V0X2Zhc3QpXQ==
        >
        <X 60 0
          /wFbbGlnaHRpbmcgKGJsYWNrb3V0X2Zhc3QpXQ==
        >
        <X 60 0
          /wFbbGlnaHRpbmcgKGZsYXJlX2Zhc3QpXQ==
        >
        E 0 90 28 60
        <X 240 0
          /wFbbGlnaHRpbmcgKGZsYXJlX2Zhc3QpXQ==
        >
        <X 480 0
          /wFbbGlnaHRpbmcgKGJsYWNrb3V0X3Nsb3cpXQ==
        >
        <X 600 0
          /wFbbGlnaHRpbmcgKGJsYWNrb3V0X3Nsb3cpXQ==
        >
        <X 120 0
          /wFbbGlnaHRpbmcgKGZsYXJlX2Zhc3QpXQ==
        >
        <X 60 0
          /wFbbGlnaHRpbmcgKGZsYXJlX2Zhc3QpXQ==
        >
        <X 60 0
          /wFbbGlnaHRpbmcgKGJsYWNrb3V0X2Zhc3QpXQ==
        >
        <X 60 0
          /wFbbGlnaHRpbmcgKGJsYWNrb3V0X2Zhc3QpXQ==
        >
        <X 60 0
          /wFbbGlnaHRpbmcgKGZsYXJlX2Zhc3QpXQ==
        >
        <X 60 0
          /wFbbGlnaHRpbmcgKGZsYXJlX2Zhc3QpXQ==
        >
        <X 60 0
          /wFbbGlnaHRpbmcgKGJsYWNrb3V0X2Zhc3QpXQ==
        >
        <X 60 0
          /wFbbGlnaHRpbmcgKGJsYWNrb3V0X2Zhc3QpXQ==
        >
        <X 60 0
          /wFbbGlnaHRpbmcgKGZsYXJlX2Zhc3QpXQ==
        >
        <X 240 0
          /wFbY29vcF9rdl9uZWFyXQ==
        >
        <X 0 0
          /wFbbGlnaHRpbmcgKGZsYXJlX2Zhc3QpXQ==
        >
        <X 480 0
          /wFbbGlnaHRpbmcgKGJsYWNrb3V0X3Nsb3cpXQ==
        >
        <X 600 0
          /wFbbGlnaHRpbmcgKGJsYWNrb3V0X3Nsb3cpXQ==
        >
        <X 120 0
          /wFbbGlnaHRpbmcgKGZsYXJlX2Zhc3QpXQ==
        >
        <X 60 0
          /wFbbGlnaHRpbmcgKGZsYXJlX2Zhc3QpXQ==
        >
        <X 60 0
          /wFbbGlnaHRpbmcgKGJsYWNrb3V0X2Zhc3QpXQ==
        >
        <X 60 0
          /wFbbGlnaHRpbmcgKGJsYWNrb3V0X2Zhc3QpXQ==
        >
        <X 60 0
          /wFbY29vcF9rdl9uZWFyXQ==
        >
        <X 0 0
          /wFbbGlnaHRpbmcgKGZsYXJlX2Zhc3QpXQ==
        >
        <X 60 0
          /wFbbGlnaHRpbmcgKGZsYXJlX2Zhc3QpXQ==
        >
        <X 60 0
          /wFbbGlnaHRpbmcgKGJsYWNrb3V0X2Zhc3QpXQ==
        >
        <X 60 0
          /wFbbGlnaHRpbmcgKGJsYWNrb3V0X2Zhc3QpXQ==
        >
        <X 60 0
          /wFbbGlnaHRpbmcgKGZsYXJlX2Zhc3QpXQ==
        >
        <X 240 0
          /wFbbGlnaHRpbmcgKGZsYXJlX2Zhc3QpXQ==
        >
        <X 480 0
          /wFbbGlnaHRpbmcgKGJsYWNrb3V0X3Nsb3cpXQ==
        >
        E 240 80 28 00
        E 240 80 57 00
        <X 120 0
          /wFbbGlnaHRpbmcgKGJsYWNrb3V0X3Nsb3cpXQ==
        >
        <X 120 0
          /wFbbGlnaHRpbmcgKGZsYXJlX2Zhc3QpXQ==
        >
        <X 60 0
          /wFbbGlnaHRpbmcgKGZsYXJlX2Zhc3QpXQ==
        >
        <X 60 0
          /wFbbGlnaHRpbmcgKGJsYWNrb3V0X2Zhc3QpXQ==
        >
        <X 60 0
          /wFbbGlnaHRpbmcgKGJsYWNrb3V0X2Zhc3QpXQ==
        >
        <X 60 0
          /wFbY29vcF9iX2Nsb3NldXBfaGVhZF0=
        >
        <X 0 0
          /wFbbGlnaHRpbmcgKGZsYXJlX2Zhc3QpXQ==
        >
        <X 60 0
          /wFbbGlnaHRpbmcgKGZsYXJlX2Zhc3QpXQ==
        >
        <X 60 0
          /wFbbGlnaHRpbmcgKGJsYWNrb3V0X2Zhc3QpXQ==
        >
        <X 60 0
          /wFbbGlnaHRpbmcgKGJsYWNrb3V0X2Zhc3QpXQ==
        >
        <X 60 0
          /wFbbGlnaHRpbmcgKGZsYXJlX2Zhc3QpXQ==
        >
        <X 240 0
          /wFbbGlnaHRpbmcgKGZsYXJlX2Zhc3QpXQ==
        >
        <X 480 0
          /wFbbGlnaHRpbmcgKGJsYWNrb3V0X3Nsb3cpXQ==
        >
        <X 600 0
          /wFbbGlnaHRpbmcgKGJsYWNrb3V0X3Nsb3cpXQ==
        >
        <X 120 0
          /wFbbGlnaHRpbmcgKGZsYXJlX2Zhc3QpXQ==
        >
        <X 60 0
          /wFbbGlnaHRpbmcgKGZsYXJlX2Zhc3QpXQ==
        >
        <X 60 0
          /wFbbGlnaHRpbmcgKGJsYWNrb3V0X2Zhc3QpXQ==
        >
        <X 60 0
          /wFbbGlnaHRpbmcgKGJsYWNrb3V0X2Zhc3QpXQ==
        >
        <X 60 0
          /wFbY29vcF9rX2Nsb3NldXBfaGFuZF0=
        >
        <X 0 0
          /wFbbGlnaHRpbmcgKGZsYXJlX2Zhc3QpXQ==
        >
        <X 60 0
          /wFbbGlnaHRpbmcgKGZsYXJlX2Zhc3QpXQ==
        >
        <X 60 0
          /wFbbGlnaHRpbmcgKGJsYWNrb3V0X2Zhc3QpXQ==
        >
        <X 60 0
          /wFbbGlnaHRpbmcgKGJsYWNrb3V0X2Zhc3QpXQ==
        >
        E 59 90 28 60
        <X 1 0
          /wFbbGlnaHRpbmcgKGZsYXJlX2Zhc3QpXQ==
        >
        E 0 90 57 60
        <X 240 0
          /wFbbGlnaHRpbmcgKGZsYXJlX2Zhc3QpXQ==
        >
        <X 480 0
          /wFbbGlnaHRpbmcgKGJsYWNrb3V0X3Nsb3cpXQ==
        >
        <X 600 0
          /wFbbGlnaHRpbmcgKGJsYWNrb3V0X3Nsb3cpXQ==
        >
        <X 120 0
          /wFbbGlnaHRpbmcgKGZsYXJlX2Zhc3QpXQ==
        >
        <X 60 0
          /wFbbGlnaHRpbmcgKGZsYXJlX2Zhc3QpXQ==
        >
        <X 60 0
          /wFbbGlnaHRpbmcgKGJsYWNrb3V0X2Zhc3QpXQ==
        >
        <X 60 0
          /wFbbGlnaHRpbmcgKGJsYWNrb3V0X2Zhc3QpXQ==
        >
        <X 60 0
          /wFbbGlnaHRpbmcgKGZsYXJlX2Zhc3QpXQ==
        >
        <X 60 0
          /wFbbGlnaHRpbmcgKGZsYXJlX2Zhc3QpXQ==
        >
        <X 60 0
          /wFbbGlnaHRpbmcgKGJsYWNrb3V0X2Zhc3QpXQ==
        >
        <X 60 0
          /wFbbGlnaHRpbmcgKGJsYWNrb3V0X2Zhc3QpXQ==
        >
        <X 60 0
          /wFbbGlnaHRpbmcgKGZsYXJlX2Zhc3QpXQ==
        >
        <X 240 0
          /wFbbGlnaHRpbmcgKGZsYXJlX2Zhc3QpXQ==
        >
        <X 480 0
          /wFbbGlnaHRpbmcgKGJsYWNrb3V0X3Nsb3cpXQ==
        >
        <X 600 0
          /wFbbGlnaHRpbmcgKGJsYWNrb3V0X3Nsb3cpXQ==
        >
        <X 120 0
          /wFbbGlnaHRpbmcgKGZsYXJlX2Zhc3QpXQ==
        >
        <X 60 0
          /wFbbGlnaHRpbmcgKGZsYXJlX2Zhc3QpXQ==
        >
        <X 60 0
          /wFbbGlnaHRpbmcgKGJsYWNrb3V0X2Zhc3QpXQ==
        >
        <X 60 0
          /wFbbGlnaHRpbmcgKGJsYWNrb3V0X2Zhc3QpXQ==
        >
        <X 60 0
          /wFbY29vcF9iX2Nsb3NldXBfaGFuZF0=
        >
        <X 0 0
          /wFbbGlnaHRpbmcgKGZsYXJlX2Zhc3QpXQ==
        >
        <X 60 0
          /wFbbGlnaHRpbmcgKGZsYXJlX2Zhc3QpXQ==
        >
        <X 60 0
          /wFbbGlnaHRpbmcgKGJsYWNrb3V0X2Zhc3QpXQ==
        >
        <X 60 0
          /wFbbGlnaHRpbmcgKGJsYWNrb3V0X2Zhc3QpXQ==
        >
        <X 60 0
          /wFbbGlnaHRpbmcgKGZsYXJlX2Zhc3QpXQ==
        >
        <X 240 0
          /wFbbGlnaHRpbmcgKGZsYXJlX2Zhc3QpXQ==
        >
        <X 480 0
          /wFbbGlnaHRpbmcgKGJsYWNrb3V0X3Nsb3cpXQ==
        >
        E 240 80 28 00
        E 240 80 57 00
        <X 120 0
          /wFbbGlnaHRpbmcgKGJsYWNrb3V0X3Nsb3cpXQ==
        >
        <X 120 0
          /wFbbGlnaHRpbmcgKGZsYXJlX2Zhc3QpXQ==
        >
        <X 60 0
          /wFbbGlnaHRpbmcgKGZsYXJlX2Zhc3QpXQ==
        >
        <X 60 0
          /wFbbGlnaHRpbmcgKGJsYWNrb3V0X2Zhc3QpXQ==
        >
        <X 60 0
          /wFbbGlnaHRpbmcgKGJsYWNrb3V0X2Zhc3QpXQ==
        >
        <X 60 0
          /wFbY29vcF9hbGxfZmFyXQ==
        >
        <X 0 0
          /wFbbGlnaHRpbmcgKGZsYXJlX2Zhc3QpXQ==
        >
        <X 60 0
          /wFbbGlnaHRpbmcgKGZsYXJlX2Zhc3QpXQ==
        >
        <X 60 0
          /wFbbGlnaHRpbmcgKGJsYWNrb3V0X2Zhc3QpXQ==
        >
        <X 60 0
          /wFbbGlnaHRpbmcgKGJsYWNrb3V0X2Zhc3QpXQ==
        >
        <X 60 0
          /wFbbGlnaHRpbmcgKGZsYXJlX2Zhc3QpXQ==
        >
        <X 240 0
          /wFbbGlnaHRpbmcgKGZsYXJlX2Zhc3QpXQ==
        >
        <X 480 0
          /wFbbGlnaHRpbmcgKGJsYWNrb3V0X3Nsb3cpXQ==
        >
        <X 600 0
          /wFbbGlnaHRpbmcgKGJsYWNrb3V0X3Nsb3cpXQ==
        >
        <X 120 0
          /wFbbGlnaHRpbmcgKGZsYXJlX2Zhc3QpXQ==
        >
        <X 60 0
          /wFbbGlnaHRpbmcgKGZsYXJlX2Zhc3QpXQ==
        >
        <X 60 0
          /wFbbGlnaHRpbmcgKGJsYWNrb3V0X2Zhc3QpXQ==
        >
        <X 60 0
          /wFbbGlnaHRpbmcgKGJsYWNrb3V0X2Zhc3QpXQ==
        >
        <X 60 0
          /wFbY29vcF9rdl9iZWhpbmRd
        >
        <X 0 0
          /wFbbGlnaHRpbmcgKGZsYXJlX2Zhc3QpXQ==
        >
        <X 60 0
          /wFbbGlnaHRpbmcgKGZsYXJlX2Zhc3QpXQ==
        >
        <X 60 0
          /wFbbGlnaHRpbmcgKGJsYWNrb3V0X2Zhc3QpXQ==
        >
        E 0 90 57 60
        <X 60 0
          /wFbbGlnaHRpbmcgKGJsYWNrb3V0X2Zhc3QpXQ==
        >
        <X 60 0
          /wFbbGlnaHRpbmcgKGZsYXJlX2Zhc3QpXQ==
        >
        E 0 90 28 60
        <X 240 0
          /wFbbGlnaHRpbmcgKGZsYXJlX2Zhc3QpXQ==
        >
        <X 480 0
          /wFbbGlnaHRpbmcgKGJsYWNrb3V0X3Nsb3cpXQ==
        >
        <X 600 0
          /wFbbGlnaHRpbmcgKGJsYWNrb3V0X3Nsb3cpXQ==
        >
        <X 120 0
          /wFbbGlnaHRpbmcgKGZsYXJlX2Zhc3QpXQ==
        >
        <X 60 0
          /wFbbGlnaHRpbmcgKGZsYXJlX2Zhc3QpXQ==
        >
        <X 60 0
          /wFbbGlnaHRpbmcgKGJsYWNrb3V0X2Zhc3QpXQ==
        >
        <X 60 0
          /wFbbGlnaHRpbmcgKGJsYWNrb3V0X2Zhc3QpXQ==
        >
        <X 60 0
          /wFbY29vcF9rdl9uZWFyXQ==
        >
        <X 0 0
          /wFbbGlnaHRpbmcgKGZsYXJlX2Zhc3QpXQ==
        >
        <X 60 0
          /wFbbGlnaHRpbmcgKGZsYXJlX2Zhc3QpXQ==
        >
        <X 60 0
          /wFbbGlnaHRpbmcgKGJsYWNrb3V0X2Zhc3QpXQ==
        >
        <X 60 0
          /wFbbGlnaHRpbmcgKGJsYWNrb3V0X2Zhc3QpXQ==
        >
        <X 60 0
          /wFbbGlnaHRpbmcgKGZsYXJlX2Zhc3QpXQ==
        >
        <X 240 0
          /wFbbGlnaHRpbmcgKGZsYXJlX2Zhc3QpXQ==
        >
        <X 480 0
          /wFbbGlnaHRpbmcgKGJsYWNrb3V0X3Nsb3cpXQ==
        >
        <X 600 0
          /wFbbGlnaHRpbmcgKGJsYWNrb3V0X3Nsb3cpXQ==
        >
        <X 120 0
          /wFbbGlnaHRpbmcgKGZsYXJlX2Zhc3QpXQ==
        >
        <X 60 0
          /wFbbGlnaHRpbmcgKGZsYXJlX2Zhc3QpXQ==
        >
        <X 60 0
          /wFbbGlnaHRpbmcgKGJsYWNrb3V0X2Zhc3QpXQ==
        >
        <X 60 0
          /wFbbGlnaHRpbmcgKGJsYWNrb3V0X2Zhc3QpXQ==
        >
        <X 60 0
          /wFbbGlnaHRpbmcgKGZsYXJlX2Zhc3QpXQ==
        >
        <X 60 0
          /wFbbGlnaHRpbmcgKGZsYXJlX2Zhc3QpXQ==
        >
        <X 60 0
          /wFbbGlnaHRpbmcgKGJsYWNrb3V0X2Zhc3QpXQ==
        >
        <X 60 0
          /wFbbGlnaHRpbmcgKGJsYWNrb3V0X2Zhc3QpXQ==
        >
        <X 60 0
          /wFbbGlnaHRpbmcgKGZsYXJlX2Zhc3QpXQ==
        >
        <X 240 0
          /wFbbGlnaHRpbmcgKGZsYXJlX2Zhc3QpXQ==
        >
        <X 480 0
          /wFbbGlnaHRpbmcgKGJsYWNrb3V0X3Nsb3cpXQ==
        >
        E 240 80 28 00
        E 240 80 57 00
        <X 120 0
          /wFbbGlnaHRpbmcgKGJsYWNrb3V0X3Nsb3cpXQ==
        >
        <X 120 0
          /wFbbGlnaHRpbmcgKGZsYXJlX2Zhc3QpXQ==
        >
        <X 60 0
          /wFbbGlnaHRpbmcgKGZsYXJlX2Zhc3QpXQ==
        >
        <X 60 0
          /wFbbGlnaHRpbmcgKGJsYWNrb3V0X2Zhc3QpXQ==
        >
        <X 60 0
          /wFbbGlnaHRpbmcgKGJsYWNrb3V0X2Zhc3QpXQ==
        >
        <X 60 0
          /wFbY29vcF9iX25lYXJd
        >
        <X 0 0
          /wFbbGlnaHRpbmcgKGZsYXJlX2Zhc3QpXQ==
        >
        <X 60 0
          /wFbbGlnaHRpbmcgKGZsYXJlX2Zhc3QpXQ==
        >
        <X 60 0
          /wFbbGlnaHRpbmcgKGJsYWNrb3V0X2Zhc3QpXQ==
        >
        <X 60 0
          /wFbbGlnaHRpbmcgKGJsYWNrb3V0X2Zhc3QpXQ==
        >
        <X 60 0
          /wFbbGlnaHRpbmcgKGZsYXJlX2Zhc3QpXQ==
        >
        <X 240 0
          /wFbbGlnaHRpbmcgKGZsYXJlX2Zhc3QpXQ==
        >
        <X 480 0
          /wFbbGlnaHRpbmcgKGJsYWNrb3V0X3Nsb3cpXQ==
        >
        <X 600 0
          /wFbbGlnaHRpbmcgKGJsYWNrb3V0X3Nsb3cpXQ==
        >
        <X 120 0
          /wFbbGlnaHRpbmcgKGZsYXJlX2Zhc3QpXQ==
        >
        E 0 80 29 00
        E 0 80 25 00
        <X 60 0
          /wFbbGlnaHRpbmcgKGZsYXJlX2Zhc3QpXQ==
        >
        <X 60 0
          /wFbbGlnaHRpbmcgKGJsYWNrb3V0X2Zhc3QpXQ==
        >
        <X 60 0
          /wFbbGlnaHRpbmcgKGJsYWNrb3V0X2Zhc3QpXQ==
        >
        <X 60 0
          /wFbY29vcF9rX2Nsb3NldXBfaGVhZF0=
        >
        <X 0 0
          /wFbbGlnaHRpbmcgKHNpbGhvdWV0dGVzX3Nwb3QpXQ==
        >
        <X 1920 0
          /wFbY29vcF9rX2JlaGluZF0=
        >
        <X 1920 0
          /wFbY29vcF9rX2Nsb3NldXBfaGFuZF0=
        >
        <X 3360 0
          /wFbZmlsbV9iK3cucHBd
        >
        <X 240 0
          /wFbbGlnaHRpbmcgKHNpbGhvdWV0dGVzX3Nwb3QpXQ==
        >
        E 0 90 25 60
        E 0 90 29 60
        <X 240 0
          /wFbY29vcF9rX2JlaGluZF0=
        >
        <X 0 0
          /wFbbGlnaHRpbmcgKGJsYWNrb3V0X2Zhc3QpXQ==
        >
        <X 0 0
          /wFbY29udHJhc3RfYS5wcF0=
        >
        <X 1680 0
          /wFbY29vcF9mcm9udF9iZWhpbmRd
        >
        <X 2160 0
          /wFbY29vcF9ia19uZWFyXQ==
        >
        <X 1920 0
          /wFbY29vcF9rX2Nsb3NldXBfaGVhZF0=
        >
        <X 1920 0
          /wFbY29vcF9ia19uZWFyXQ==
        >
        <X 3600 0
          /wFbY29vcF9iX2Nsb3NldXBfaGFuZF0=
        >
        <X 1920 0
          /wFbY29vcF9rX2Nsb3NldXBfaGFuZF0=
        >
        E 120 80 25 00
        E 0 80 29 00
        <X 1080 0
          /wFbY29vcF9hbGxfZmFyXQ==
        >
        E 113280 b0 7b 00
        GUID {B3322E44-F02C-42BD-973B-63EB8A6E8425}
        IGNTEMPO 0 120.00000000 4 4
        SRCCOLOR 40
        VELLANE 132 128 128
        COLORMAP "C:\Program Files\REAPER (x64)\Data\color_maps\rockband_guitarbass.png"
        CFGEDITVIEW -7366.912665 6.865074 0 48 0 0 0
        CFGEDIT 1 1 0 1 1 0 1 1 1 1 1 0.25000000 -8 -8 1548 876 0 2 1 1 0.00000000 0 1 0 0 0.500000 0 0 1.000000 64
        KEYSNAP 0 0 "102034050607" 0 "Major"
        EVTFILTER 0 -1 -1 -1 -1 0 1 0 0 -1.00000000 -1.00000000
      >
    >
  >
  <TRACK '{078F5D04-1D67-45D0-A36F-7C53AFF36C29}'
    NAME "CAMERA"
    PEAKCOL 16576
    BEAT -1
    AUTOMODE 0
    VOLPAN 1.00000000000000 0.00000000000000 -1.00000000000000 -1.00000000000000 1.00000000000000
    MUTESOLO 1 0 0
    IPHASE 0
    ISBUS 0 0
    BUSCOMP 0 0
    SHOWINMIX 1 0.666700 0.500000 1 0.500000 -1 -1 -1
    FREEMODE 0
    SEL 0
    REC 0 0 0 0 0 0 0
    VU 2
    TRACKHEIGHT 0 1
    INQ 0 0 0 0.5000000000 100 0 0 100
    NCHAN 2
    FX 1
    TRACKID {078F5D04-1D67-45D0-A36F-7C53AFF36C29}
    PERF 0
    MIDIOUT -1
    <MIDINOTENAMES
      0 102 "RANDOM"
      0 100 "All_Behind"
      0 99 "All_Far"
      0 98 "All_Near"
      0 96 "Front_Behind"
      0 95 "Front_Near"
      0 93 "D_Behind"
      0 92 "D_Near"
      0 91 "V_Behind"
      0 90 "V_Near"
      0 89 "B_Behind"
      0 88 "B_Near"
      0 87 "G_Behind"
      0 86 "G_Near"
      0 85 "K_Behind"
      0 84 "K_Near"
      0 82 "D_Hand"
      0 81 "D_Head"
      0 80 "V_Closeup"
      0 79 "B_Hand"
      0 78 "B_Head"
      0 77 "G_Hand"
      0 76 "G_Head"
      0 75 "K_Hand"
      0 74 "K_Head"
      0 72 "DV_Near"
      0 71 "BD_Near"
      0 70 "DG_Near"
      0 69 "BV_Behind"
      0 68 "BV_Near"
      0 67 "GV_Behind"
      0 66 "GV_Near"
      0 65 "KV_Behind"
      0 64 "KV_Near"
      0 63 "BG_Behind"
      0 62 "BG_Near"
      0 61 "BK_Behind"
      0 60 "BK_Near"
      0 59 "GK_Behind"
      0 58 "GK_Near"
      0 56 "D_All"
      0 55 "D_All_Cam"
      0 54 "D_All_LT*"
      0 53 "D_All_Yeah"
      0 52 "D_BRE"
      0 51 "D_BRE_Jump"
      0 49 "D_Drums_NP"
      0 48 "D_Bass_NP"
      0 47 "D_Gtr_NP"
      0 46 "D_Vox_NP"
      0 45 "D_Keys_NP"
      0 43 "D_Drums"
      0 42 "D_Drums_LT*"
      0 41 "D_Vocals"
      0 40 "D_Bass"
      0 39 "D_Gtr"
      0 38 "D_Keys"
      0 36 "D_Vox_Cam_PR"
      0 35 "D_Vox_Cam_PT"
      0 34 "D_Gtr_Cam_PR"
      0 33 "D_Gtr_Cam_PT"
      0 32 "D_Keys_Cam"
      0 31 "D_Bass_Cam"
      0 29 "D_Stagedive"
      0 28 "D_Crowdsurf"
      0 26 "D_Vox_CLS"
      0 25 "D_Bass_CLS*"
      0 24 "D_Gtr_CLS*"
      0 23 "D_Drums_KD*"
      0 21 "D_Drums_Point"
      0 20 "D_Crowd_Gtr"
      0 19 "D_Crowd_Bass"
      0 17 "D_Duo_Drums"
      0 16 "D_Duo_Gtr"
      0 15 "D_Duo_Bass"
      0 14 "D_Duo_KV"
      0 13 "D_Duo_GB"
      0 12 "D_Duo_KB"
      0 11 "D_Duo_KG"
      0 10 "D_Crowd*"
    >
    MAINSEND 1 0
    <FXCHAIN
      SHOW 0
      LASTSEL 0
      DOCKED 0
    >
    <ITEM
      POSITION 0.00000000000000
      SNAPOFFS 0.00000000000000
      LENGTH 163.46881417504329
      LOOP 0
      ALLTAKES 0
      SEL 0
      FADEIN 1 0.000000 0.000000 1 0
      FADEOUT 1 0.000000 0.000000 1 0
      MUTE 0
      IGUID {A91D018B-7F75-49BA-ACF9-6FC310C18B2C}
      IID 38
      NAME "CAMERA untitled MIDI item"
      VOLPAN 1.000000 0.000000 1.000000 -1.000000
      SOFFS 0.00000000000000 0.00000000000000
      PLAYRATE 1.00000000000000 1 0.00000000000000 -1
      CHANMODE 0
      GUID {571928B8-9441-4C6B-9373-4BDB66964683}
      <SOURCE MIDI
        HASDATA 1 480 QN
        POOLEDEVTS {43955292-05DE-43DE-B7DF-20E2EC20355C}
        <X 0 0
          /wFbY29vcF9hbGxfZmFyXQ==
        >
        E 0 90 63 60
        <X 3840 0
          /wFbY29vcF9rX25lYXJd
        >
        E 0 80 63 00
        E 0 90 54 60
        <X 1680 0
          /wFbY29vcF9rX2Nsb3NldXBfaGFuZF0=
        >
        E 0 80 54 00
        E 0 90 4b 60
        <X 1920 0
          /wFbY29vcF9iX2Nsb3NldXBfaGFuZF0=
        >
        E 0 80 4b 00
        E 0 90 4f 60
        <X 1920 0
          /wFbY29vcF9iX2Nsb3NldXBfaGFuZF0=
        >
        E 0 80 4f 00
        E 0 90 4f 60
        <X 1920 0
          /wFbY29vcF92X25lYXJd
        >
        E 0 80 4f 00
        E 0 90 5a 60
        <X 2160 0
          /wFbY29vcF92X25lYXJd
        >
        E 0 80 5a 00
        E 0 90 5a 60
        <X 1680 0
          /wFbY29vcF92X25lYXJd
        >
        E 0 80 5a 00
        E 0 90 5a 60
        <X 1920 0
          /wFbY29vcF9iX2Nsb3NldXBfaGFuZF0=
        >
        E 0 80 5a 00
        E 0 90 4f 60
        <X 2640 0
          /wFbY29vcF92X25lYXJd
        >
        E 0 80 4f 00
        E 0 90 5a 60
        <X 1440 0
          /wFbY29vcF92X25lYXJd
        >
        E 0 80 5a 00
        E 0 90 5a 60
        <X 1920 0
          /wFbY29vcF9mcm9udF9iZWhpbmRd
        >
        E 0 80 5a 00
        E 0 90 60 60
        <X 1920 0
          /wFbY29vcF9hbGxfbmVhcl0=
        >
        E 0 80 60 00
        E 0 90 62 60
        <X 1920 0
          /wFbY29vcF9rX25lYXJd
        >
        E 0 80 62 00
        E 0 90 54 60
        <X 1920 0
          /wFbY29vcF9rX2Nsb3NldXBfaGFuZF0=
        >
        E 0 80 54 00
        E 0 90 4b 60
        <X 1920 0
          /wFbY29vcF92X25lYXJd
        >
        E 0 80 4b 00
        E 0 90 5a 60
        <X 1680 0
          /wFbY29vcF9iX2Nsb3NldXBfaGFuZF0=
        >
        E 0 80 5a 00
        E 0 90 4f 60
        <X 2640 0
          /wFbY29vcF9rdl9uZWFyXQ==
        >
        E 0 80 4f 00
        E 0 90 40 60
        <X 3360 0
          /wFbY29vcF9rdl9iZWhpbmRd
        >
        E 0 80 40 00
        E 0 90 41 60
        <X 1680 0
          /wFbY29vcF9iX25lYXJd
        >
        E 0 80 41 00
        E 0 90 58 60
        <X 2160 0
          /wFbY29vcF9rX2Nsb3NldXBfaGFuZF0=
        >
        E 0 80 58 00
        E 0 90 4b 60
        <X 3840 0
          /wFbY29vcF9rX25lYXJd
        >
        E 0 80 4b 00
        E 0 90 54 60
        <X 3840 0
          /wFbY29vcF9iX25lYXJd
        >
        E 0 80 54 00
        E 0 90 58 60
        <X 3840 0
          /wFbY29vcF9rX2Nsb3NldXBfaGVhZF0=
        >
        E 0 80 58 00
        E 0 90 4a 60
        <X 1920 0
          /wFbY29vcF9mcm9udF9iZWhpbmRd
        >
        E 0 80 4a 00
        E 0 90 60 60
        <X 1920 0
          /wFbY29vcF92X25lYXJd
        >
        E 0 80 60 00
        E 0 90 5a 60
        <X 2400 0
          /wFbY29vcF9rX2Nsb3NldXBfaGVhZF0=
        >
        E 0 80 5a 00
        E 0 90 4a 60
        <X 1440 0
          /wFbY29vcF9rX2Nsb3NldXBfaGVhZF0=
        >
        E 0 80 4a 00
        E 0 90 4a 60
        <X 1680 0
          /wFbY29vcF9rX2Nsb3NldXBfaGFuZF0=
        >
        E 0 80 4a 00
        E 0 90 4b 60
        <X 2160 0
          /wFbY29vcF92X25lYXJd
        >
        E 0 80 4b 00
        E 0 90 5a 60
        <X 2400 0
          /wFbY29vcF9rdl9uZWFyXQ==
        >
        E 0 80 5a 00
        E 0 90 40 60
        <X 1440 0
          /wFbY29vcF9rdl9uZWFyXQ==
        >
        E 0 80 40 00
        E 0 90 40 60
        <X 1920 0
          /wFbY29vcF9iX2Nsb3NldXBfaGVhZF0=
        >
        E 0 80 40 00
        E 0 90 4e 60
        <X 1920 0
          /wFbY29vcF9rX2Nsb3NldXBfaGFuZF0=
        >
        E 0 80 4e 00
        E 0 90 4b 60
        <X 3840 0
          /wFbY29vcF9iX2Nsb3NldXBfaGFuZF0=
        >
        E 0 80 4b 00
        E 0 90 4f 60
        <X 1920 0
          /wFbY29vcF9hbGxfZmFyXQ==
        >
        E 0 80 4f 00
        E 0 90 63 60
        <X 1920 0
          /wFbY29vcF9rdl9iZWhpbmRd
        >
        E 0 80 63 00
        E 0 90 41 60
        <X 1920 0
          /wFbY29vcF9rdl9uZWFyXQ==
        >
        E 0 80 41 00
        E 0 90 40 60
        E 3600 80 40 00
        <X 240 0
          /wFbY29vcF9iX25lYXJd
        >
        E 0 90 58 60
        <X 1920 0
          /wFbY29vcF9rX2Nsb3NldXBfaGVhZF0=
        >
        E 0 80 58 00
        E 0 90 4a 60
        <X 1920 0
          /wFbY29vcF9rX2JlaGluZF0=
        >
        E 0 80 4a 00
        E 0 90 55 60
        <X 1920 0
          /wFbY29vcF9rX2Nsb3NldXBfaGFuZF0=
        >
        E 0 80 55 00
        E 0 90 4b 60
        <X 3840 0
          /wFbY29vcF9rX2JlaGluZF0=
        >
        E 0 80 4b 00
        E 0 90 55 60
        <X 1680 0
          /wFbY29vcF9mcm9udF9iZWhpbmRd
        >
        E 0 80 55 00
        E 0 90 60 60
        <X 2160 0
          /wFbY29vcF9ia19uZWFyXQ==
        >
        E 0 80 60 00
        E 0 90 3c 60
        <X 1920 0
          /wFbY29vcF9rX2Nsb3NldXBfaGVhZF0=
        >
        E 0 80 3c 00
        E 0 90 4a 60
        <X 1920 0
          /wFbY29vcF9ia19uZWFyXQ==
        >
        E 0 80 4a 00
        E 0 90 3c 60
        <X 3600 0
          /wFbY29vcF9iX2Nsb3NldXBfaGFuZF0=
        >
        E 0 80 3c 00
        E 0 90 4f 60
        <X 1920 0
          /wFbY29vcF9rX2Nsb3NldXBfaGFuZF0=
        >
        E 0 80 4f 00
        E 0 90 4b 60
        <X 1200 0
          /wFbY29vcF9hbGxfZmFyXQ==
        >
        E 0 80 4b 00
        E 0 90 63 60
        E 2880 80 63 00
        E 0 b0 7b 00
        GUID {DBA6BA5B-8FB5-47BA-AE9D-011D02104605}
        IGNTEMPO 0 120.00000000 4 4
        SRCCOLOR 41
        VELLANE 132 128 128
        COLORMAP "C:\Program Files\REAPER (x64)\Data\color_maps\rockband_guitarbass.png"
        CFGEDITVIEW -7366.912665 6.865074 0 12 0 0 0
        CFGEDIT 1 1 0 1 1 0 1 1 1 1 1 0.25000000 -8 -8 1548 876 0 2 1 1 0.00000000 0 1 0 0 0.500000 0 0 1.000000 64
        KEYSNAP 0 0 "102034050607" 0 "Major"
        EVTFILTER 0 -1 -1 -1 -1 0 1 0 0 -1.00000000 -1.00000000
      >
    >
  >
  <TRACK '{B378257B-558C-4EF9-92B7-663F5EE08EB8}'
    NAME "LIGHTING"
    PEAKCOL 16576
    BEAT -1
    AUTOMODE 0
    VOLPAN 1.00000000000000 0.00000000000000 -1.00000000000000 -1.00000000000000 1.00000000000000
    MUTESOLO 1 0 0
    IPHASE 0
    ISBUS 2 -1
    BUSCOMP 0 0
    SHOWINMIX 1 0.666700 0.500000 1 0.500000 -1 -1 -1
    FREEMODE 0
    SEL 0
    REC 0 0 0 0 0 0 0
    VU 2
    TRACKHEIGHT 0 1
    INQ 0 0 0 0.5000000000 100 0 0 100
    NCHAN 2
    FX 1
    TRACKID {B378257B-558C-4EF9-92B7-663F5EE08EB8}
    PERF 0
    MIDIOUT -1
    <MIDINOTENAMES
      0 71 "Default"
      0 70 "Color_Muted"
      0 69 "Video_Grainy"
      0 68 "16mm Film"
      0 67 "Shitty_TV"
      0 66 "Bloom"
      0 65 "Sepia_Ink"
      0 64 "Silvertone"
      0 63 "Film_BW"
      0 62 "Video_BW"
      0 61 "Contrast BW"
      0 60 "Photocopy"
      0 59 "Blue_Filter"
      0 58 "Desat_Blue"
      0 57 "Video_Security"
      0 55 "Bright"
      0 54 "Posterize"
      0 53 "Clean_Trails"
      0 52 "Video_Trails"
      0 51 "Flicker_Trails"
      0 50 "Desat_Posterize"
      0 49 "Film_Contrast"
      0 48 "Film_Contrast_Blue"
      0 47 "Film_Contrast_Green"
      0 46 "Film_Contrast_Red"
      0 45 "Horror_Movie"
      0 44 "Photo_Negative"
      0 43 "Mirror"
      0 42 "Psych_Blue_Red"
      0 41 "Space_Woosh"
      0 39 "Verse"
      0 38 "Chorus"
      0 37 "Manual_Cool"
      0 36 "Manual_Warm"
      0 35 "Dischord"
      0 34 "Stomp"
      0 32 "first"
      0 31 "prev"
      0 30 "next"
      0 28 "Loop_Cool"
      0 27 "Loop_Warm"
      0 26 "Harmony"
      0 25 "Frenzy"
      0 24 "Silhouettes"
      0 23 "Silhouettes_Spot"
      0 22 "Searchlights"
      0 21 "Sweep"
      0 20 "Strobe_Slow"
      0 19 "Strobe_Fast"
      0 18 "Blackout_Slow"
      0 17 "Blackout_Fast"
      0 16 "Blackout_Spot"
      0 15 "Flare_Slow"
      0 14 "Flare_Fast"
      0 13 "BRE"
      0 11 "BONUSFX"
      0 10 "BONUSFX_Opt"
      0 8 "STROBE"
    >
    MAINSEND 1 0
    <FXCHAIN
      SHOW 0
      LASTSEL 0
      DOCKED 0
    >
    <ITEM
      POSITION 0.00000000000000
      SNAPOFFS 0.00000000000000
      LENGTH 163.46881417504329
      LOOP 0
      ALLTAKES 0
      SEL 0
      FADEIN 1 0.000000 0.000000 1 0
      FADEOUT 1 0.000000 0.000000 1 0
      MUTE 0
      IGUID {2C2D0AE5-2D72-4CC6-B224-CE0E29F1A080}
      IID 39
      NAME "LIGHTING untitled MIDI item"
      VOLPAN 1.000000 0.000000 1.000000 -1.000000
      SOFFS 0.00000000000000 0.00000000000000
      PLAYRATE 1.00000000000000 1 0.00000000000000 -1
      CHANMODE 0
      GUID {3AAE9B57-5EC8-402C-A38F-4483AC4823F2}
      <SOURCE MIDI
        HASDATA 1 480 QN
        POOLEDEVTS {C018DEDB-9E42-4805-9AF5-B5CD13A601E8}
        <X 0 0
          /wFbbGlnaHRpbmcgKGJsYWNrb3V0X2Zhc3QpXQ==
        >
        <X 0 0
          /wFbZmlsbV9iK3cucHBd
        >
        E 0 90 11 60
        E 0 90 3f 60
        <X 3840 0
          /wFbbGlnaHRpbmcgKGZsYXJlX2Zhc3QpXQ==
        >
        E 0 80 11 00
        E 0 90 0e 60
        <X 60 0
          /wFbbGlnaHRpbmcgKGZsYXJlX2Zhc3QpXQ==
        >
        E 0 80 0e 00
        <X 60 0
          /wFbbGlnaHRpbmcgKGJsYWNrb3V0X2Zhc3QpXQ==
        >
        E 0 90 11 60
        <X 60 0
          /wFbbGlnaHRpbmcgKGJsYWNrb3V0X2Zhc3QpXQ==
        >
        E 0 80 11 00
        <X 60 0
          /wFbbGlnaHRpbmcgKGZsYXJlX2Zhc3QpXQ==
        >
        E 0 90 0e 60
        <X 240 0
          /wFbbGlnaHRpbmcgKGZsYXJlX2Zhc3QpXQ==
        >
        E 0 80 0e 00
        <X 480 0
          /wFbbGlnaHRpbmcgKGJsYWNrb3V0X3Nsb3cpXQ==
        >
        E 0 90 12 60
        <X 600 0
          /wFbbGlnaHRpbmcgKGJsYWNrb3V0X3Nsb3cpXQ==
        >
        E 0 80 12 00
        <X 120 0
          /wFbbGlnaHRpbmcgKGZsYXJlX2Zhc3QpXQ==
        >
        E 0 90 0e 60
        <X 60 0
          /wFbbGlnaHRpbmcgKGZsYXJlX2Zhc3QpXQ==
        >
        E 0 80 0e 00
        <X 60 0
          /wFbbGlnaHRpbmcgKGJsYWNrb3V0X2Zhc3QpXQ==
        >
        E 0 90 11 60
        <X 60 0
          /wFbbGlnaHRpbmcgKGJsYWNrb3V0X2Zhc3QpXQ==
        >
        E 0 80 11 00
        <X 60 0
          /wFbbGlnaHRpbmcgKGZsYXJlX2Zhc3QpXQ==
        >
        E 0 90 0e 60
        <X 60 0
          /wFbbGlnaHRpbmcgKGZsYXJlX2Zhc3QpXQ==
        >
        E 0 80 0e 00
        <X 60 0
          /wFbbGlnaHRpbmcgKGJsYWNrb3V0X2Zhc3QpXQ==
        >
        E 0 90 11 60
        <X 60 0
          /wFbbGlnaHRpbmcgKGJsYWNrb3V0X2Zhc3QpXQ==
        >
        E 0 80 11 00
        <X 60 0
          /wFbbGlnaHRpbmcgKGZsYXJlX2Zhc3QpXQ==
        >
        E 0 90 0e 60
        <X 240 0
          /wFbbGlnaHRpbmcgKGZsYXJlX2Zhc3QpXQ==
        >
        E 0 80 0e 00
        <X 480 0
          /wFbbGlnaHRpbmcgKGJsYWNrb3V0X3Nsb3cpXQ==
        >
        E 0 90 12 60
        <X 600 0
          /wFbbGlnaHRpbmcgKGJsYWNrb3V0X3Nsb3cpXQ==
        >
        E 0 80 12 00
        <X 120 0
          /wFbbGlnaHRpbmcgKGZsYXJlX2Zhc3QpXQ==
        >
        E 0 90 0e 60
        <X 60 0
          /wFbbGlnaHRpbmcgKGZsYXJlX2Zhc3QpXQ==
        >
        E 0 80 0e 00
        <X 60 0
          /wFbbGlnaHRpbmcgKGJsYWNrb3V0X2Zhc3QpXQ==
        >
        E 0 90 11 60
        <X 60 0
          /wFbbGlnaHRpbmcgKGJsYWNrb3V0X2Zhc3QpXQ==
        >
        E 0 80 11 00
        <X 60 0
          /wFbbGlnaHRpbmcgKGZsYXJlX2Zhc3QpXQ==
        >
        E 0 90 0e 60
        <X 60 0
          /wFbbGlnaHRpbmcgKGZsYXJlX2Zhc3QpXQ==
        >
        E 0 80 0e 00
        <X 60 0
          /wFbbGlnaHRpbmcgKGJsYWNrb3V0X2Zhc3QpXQ==
        >
        E 0 90 11 60
        <X 60 0
          /wFbbGlnaHRpbmcgKGJsYWNrb3V0X2Zhc3QpXQ==
        >
        E 0 80 11 00
        <X 60 0
          /wFbbGlnaHRpbmcgKGZsYXJlX2Zhc3QpXQ==
        >
        E 0 90 0e 60
        <X 240 0
          /wFbbGlnaHRpbmcgKGZsYXJlX2Zhc3QpXQ==
        >
        E 0 80 0e 00
        <X 480 0
          /wFbbGlnaHRpbmcgKGJsYWNrb3V0X3Nsb3cpXQ==
        >
        E 0 90 12 60
        <X 600 0
          /wFbbGlnaHRpbmcgKGJsYWNrb3V0X3Nsb3cpXQ==
        >
        E 0 80 12 00
        <X 120 0
          /wFbbGlnaHRpbmcgKGZsYXJlX2Zhc3QpXQ==
        >
        E 0 90 0e 60
        <X 60 0
          /wFbbGlnaHRpbmcgKGZsYXJlX2Zhc3QpXQ==
        >
        E 0 80 0e 00
        <X 60 0
          /wFbbGlnaHRpbmcgKGJsYWNrb3V0X2Zhc3QpXQ==
        >
        E 0 90 11 60
        <X 60 0
          /wFbbGlnaHRpbmcgKGJsYWNrb3V0X2Zhc3QpXQ==
        >
        E 0 80 11 00
        <X 60 0
          /wFbbGlnaHRpbmcgKGZsYXJlX2Zhc3QpXQ==
        >
        E 0 90 0e 60
        <X 60 0
          /wFbbGlnaHRpbmcgKGZsYXJlX2Zhc3QpXQ==
        >
        E 0 80 0e 00
        <X 60 0
          /wFbbGlnaHRpbmcgKGJsYWNrb3V0X2Zhc3QpXQ==
        >
        E 0 90 11 60
        <X 60 0
          /wFbbGlnaHRpbmcgKGJsYWNrb3V0X2Zhc3QpXQ==
        >
        E 0 80 11 00
        <X 60 0
          /wFbbGlnaHRpbmcgKGZsYXJlX2Zhc3QpXQ==
        >
        E 0 90 0e 60
        <X 240 0
          /wFbbGlnaHRpbmcgKGZsYXJlX2Zhc3QpXQ==
        >
        E 0 80 0e 00
        <X 480 0
          /wFbbGlnaHRpbmcgKGJsYWNrb3V0X3Nsb3cpXQ==
        >
        E 0 90 12 60
        <X 600 0
          /wFbbGlnaHRpbmcgKGJsYWNrb3V0X3Nsb3cpXQ==
        >
        E 0 80 12 00
        <X 120 0
          /wFbbGlnaHRpbmcgKGZsYXJlX2Zhc3QpXQ==
        >
        E 0 90 0e 60
        <X 60 0
          /wFbbGlnaHRpbmcgKGZsYXJlX2Zhc3QpXQ==
        >
        E 0 80 0e 00
        <X 60 0
          /wFbbGlnaHRpbmcgKGJsYWNrb3V0X2Zhc3QpXQ==
        >
        E 0 90 11 60
        <X 60 0
          /wFbbGlnaHRpbmcgKGJsYWNrb3V0X2Zhc3QpXQ==
        >
        E 0 80 11 00
        <X 60 0
          /wFbbGlnaHRpbmcgKGZsYXJlX2Zhc3QpXQ==
        >
        E 0 90 0e 60
        <X 60 0
          /wFbbGlnaHRpbmcgKGZsYXJlX2Zhc3QpXQ==
        >
        E 0 80 0e 00
        <X 60 0
          /wFbbGlnaHRpbmcgKGJsYWNrb3V0X2Zhc3QpXQ==
        >
        E 0 90 11 60
        <X 60 0
          /wFbbGlnaHRpbmcgKGJsYWNrb3V0X2Zhc3QpXQ==
        >
        E 0 80 11 00
        <X 60 0
          /wFbbGlnaHRpbmcgKGZsYXJlX2Zhc3QpXQ==
        >
        E 0 90 0e 60
        <X 240 0
          /wFbbGlnaHRpbmcgKGZsYXJlX2Zhc3QpXQ==
        >
        E 0 80 0e 00
        <X 480 0
          /wFbbGlnaHRpbmcgKGJsYWNrb3V0X3Nsb3cpXQ==
        >
        E 0 90 12 60
        <X 600 0
          /wFbbGlnaHRpbmcgKGJsYWNrb3V0X3Nsb3cpXQ==
        >
        E 0 80 12 00
        <X 120 0
          /wFbbGlnaHRpbmcgKGZsYXJlX2Zhc3QpXQ==
        >
        E 0 90 0e 60
        <X 60 0
          /wFbbGlnaHRpbmcgKGZsYXJlX2Zhc3QpXQ==
        >
        E 0 80 0e 00
        <X 60 0
          /wFbbGlnaHRpbmcgKGJsYWNrb3V0X2Zhc3QpXQ==
        >
        E 0 90 11 60
        <X 60 0
          /wFbbGlnaHRpbmcgKGJsYWNrb3V0X2Zhc3QpXQ==
        >
        E 0 80 11 00
        <X 60 0
          /wFbbGlnaHRpbmcgKGZsYXJlX2Zhc3QpXQ==
        >
        E 0 90 0e 60
        <X 60 0
          /wFbbGlnaHRpbmcgKGZsYXJlX2Zhc3QpXQ==
        >
        E 0 80 0e 00
        <X 60 0
          /wFbbGlnaHRpbmcgKGJsYWNrb3V0X2Zhc3QpXQ==
        >
        E 0 90 11 60
        <X 60 0
          /wFbbGlnaHRpbmcgKGJsYWNrb3V0X2Zhc3QpXQ==
        >
        E 0 80 11 00
        <X 60 0
          /wFbbGlnaHRpbmcgKGZsYXJlX2Zhc3QpXQ==
        >
        E 0 90 0e 60
        <X 240 0
          /wFbbGlnaHRpbmcgKGZsYXJlX2Zhc3QpXQ==
        >
        E 0 80 0e 00
        <X 480 0
          /wFbbGlnaHRpbmcgKGJsYWNrb3V0X3Nsb3cpXQ==
        >
        E 0 90 12 60
        <X 600 0
          /wFbbGlnaHRpbmcgKGJsYWNrb3V0X3Nsb3cpXQ==
        >
        E 0 80 12 00
        <X 120 0
          /wFbbGlnaHRpbmcgKGZsYXJlX2Zhc3QpXQ==
        >
        E 0 90 0e 60
        <X 60 0
          /wFbbGlnaHRpbmcgKGZsYXJlX2Zhc3QpXQ==
        >
        E 0 80 0e 00
        <X 60 0
          /wFbbGlnaHRpbmcgKGJsYWNrb3V0X2Zhc3QpXQ==
        >
        E 0 90 11 60
        <X 60 0
          /wFbbGlnaHRpbmcgKGJsYWNrb3V0X2Zhc3QpXQ==
        >
        E 0 80 11 00
        <X 60 0
          /wFbbGlnaHRpbmcgKGZsYXJlX2Zhc3QpXQ==
        >
        E 0 90 0e 60
        <X 60 0
          /wFbbGlnaHRpbmcgKGZsYXJlX2Zhc3QpXQ==
        >
        E 0 80 0e 00
        <X 60 0
          /wFbbGlnaHRpbmcgKGJsYWNrb3V0X2Zhc3QpXQ==
        >
        E 0 90 11 60
        <X 60 0
          /wFbbGlnaHRpbmcgKGJsYWNrb3V0X2Zhc3QpXQ==
        >
        E 0 80 11 00
        <X 60 0
          /wFbbGlnaHRpbmcgKGZsYXJlX2Zhc3QpXQ==
        >
        E 0 90 0e 60
        <X 240 0
          /wFbbGlnaHRpbmcgKGZsYXJlX2Zhc3QpXQ==
        >
        E 0 80 0e 00
        <X 480 0
          /wFbbGlnaHRpbmcgKGJsYWNrb3V0X3Nsb3cpXQ==
        >
        E 0 90 12 60
        <X 600 0
          /wFbbGlnaHRpbmcgKGJsYWNrb3V0X3Nsb3cpXQ==
        >
        E 0 80 12 00
        <X 120 0
          /wFbbGlnaHRpbmcgKGZsYXJlX2Zhc3QpXQ==
        >
        E 0 90 0e 60
        <X 60 0
          /wFbbGlnaHRpbmcgKGZsYXJlX2Zhc3QpXQ==
        >
        E 0 80 0e 00
        <X 60 0
          /wFbbGlnaHRpbmcgKGJsYWNrb3V0X2Zhc3QpXQ==
        >
        E 0 90 11 60
        <X 60 0
          /wFbbGlnaHRpbmcgKGJsYWNrb3V0X2Zhc3QpXQ==
        >
        E 0 80 11 00
        <X 60 0
          /wFbbGlnaHRpbmcgKGZsYXJlX2Zhc3QpXQ==
        >
        E 0 90 0e 60
        <X 60 0
          /wFbbGlnaHRpbmcgKGZsYXJlX2Zhc3QpXQ==
        >
        E 0 80 0e 00
        <X 60 0
          /wFbbGlnaHRpbmcgKGJsYWNrb3V0X2Zhc3QpXQ==
        >
        E 0 90 11 60
        <X 60 0
          /wFbbGlnaHRpbmcgKGJsYWNrb3V0X2Zhc3QpXQ==
        >
        E 0 80 11 00
        <X 60 0
          /wFbbGlnaHRpbmcgKGZsYXJlX2Zhc3QpXQ==
        >
        E 0 90 0e 60
        <X 240 0
          /wFbbGlnaHRpbmcgKGZsYXJlX2Zhc3QpXQ==
        >
        E 0 80 0e 00
        <X 480 0
          /wFbbGlnaHRpbmcgKGJsYWNrb3V0X3Nsb3cpXQ==
        >
        E 0 90 12 60
        <X 600 0
          /wFbbGlnaHRpbmcgKGJsYWNrb3V0X3Nsb3cpXQ==
        >
        E 0 80 12 00
        <X 120 0
          /wFbbGlnaHRpbmcgKGZsYXJlX2Zhc3QpXQ==
        >
        E 0 90 0e 60
        <X 60 0
          /wFbbGlnaHRpbmcgKGZsYXJlX2Zhc3QpXQ==
        >
        E 0 80 0e 00
        <X 60 0
          /wFbbGlnaHRpbmcgKGJsYWNrb3V0X2Zhc3QpXQ==
        >
        E 0 90 11 60
        <X 60 0
          /wFbbGlnaHRpbmcgKGJsYWNrb3V0X2Zhc3QpXQ==
        >
        E 0 80 11 00
        <X 60 0
          /wFbbGlnaHRpbmcgKGZsYXJlX2Zhc3QpXQ==
        >
        E 0 90 0e 60
        <X 60 0
          /wFbbGlnaHRpbmcgKGZsYXJlX2Zhc3QpXQ==
        >
        E 0 80 0e 00
        <X 60 0
          /wFbbGlnaHRpbmcgKGJsYWNrb3V0X2Zhc3QpXQ==
        >
        E 0 90 11 60
        <X 60 0
          /wFbbGlnaHRpbmcgKGJsYWNrb3V0X2Zhc3QpXQ==
        >
        E 0 80 11 00
        <X 60 0
          /wFbbGlnaHRpbmcgKGZsYXJlX2Zhc3QpXQ==
        >
        E 0 90 0e 60
        <X 240 0
          /wFbbGlnaHRpbmcgKGZsYXJlX2Zhc3QpXQ==
        >
        E 0 80 0e 00
        <X 480 0
          /wFbbGlnaHRpbmcgKGJsYWNrb3V0X3Nsb3cpXQ==
        >
        E 0 90 12 60
        <X 600 0
          /wFbbGlnaHRpbmcgKGJsYWNrb3V0X3Nsb3cpXQ==
        >
        E 0 80 12 00
        <X 120 0
          /wFbbGlnaHRpbmcgKGZsYXJlX2Zhc3QpXQ==
        >
        E 0 90 0e 60
        <X 60 0
          /wFbbGlnaHRpbmcgKGZsYXJlX2Zhc3QpXQ==
        >
        E 0 80 0e 00
        <X 60 0
          /wFbbGlnaHRpbmcgKGJsYWNrb3V0X2Zhc3QpXQ==
        >
        E 0 90 11 60
        <X 60 0
          /wFbbGlnaHRpbmcgKGJsYWNrb3V0X2Zhc3QpXQ==
        >
        E 0 80 11 00
        <X 60 0
          /wFbbGlnaHRpbmcgKGZsYXJlX2Zhc3QpXQ==
        >
        E 0 90 0e 60
        <X 60 0
          /wFbbGlnaHRpbmcgKGZsYXJlX2Zhc3QpXQ==
        >
        E 0 80 0e 00
        <X 60 0
          /wFbbGlnaHRpbmcgKGJsYWNrb3V0X2Zhc3QpXQ==
        >
        E 0 90 11 60
        <X 60 0
          /wFbbGlnaHRpbmcgKGJsYWNrb3V0X2Zhc3QpXQ==
        >
        E 0 80 11 00
        <X 60 0
          /wFbbGlnaHRpbmcgKGZsYXJlX2Zhc3QpXQ==
        >
        E 0 90 0e 60
        <X 240 0
          /wFbbGlnaHRpbmcgKGZsYXJlX2Zhc3QpXQ==
        >
        E 0 80 0e 00
        <X 480 0
          /wFbbGlnaHRpbmcgKGJsYWNrb3V0X3Nsb3cpXQ==
        >
        E 0 90 12 60
        <X 600 0
          /wFbbGlnaHRpbmcgKGJsYWNrb3V0X3Nsb3cpXQ==
        >
        E 0 80 12 00
        <X 120 0
          /wFbbGlnaHRpbmcgKGZsYXJlX2Zhc3QpXQ==
        >
        E 0 90 0e 60
        <X 60 0
          /wFbbGlnaHRpbmcgKGZsYXJlX2Zhc3QpXQ==
        >
        E 0 80 0e 00
        <X 60 0
          /wFbbGlnaHRpbmcgKGJsYWNrb3V0X2Zhc3QpXQ==
        >
        E 0 90 11 60
        <X 60 0
          /wFbbGlnaHRpbmcgKGJsYWNrb3V0X2Zhc3QpXQ==
        >
        E 0 80 11 00
        <X 60 0
          /wFbbGlnaHRpbmcgKGZsYXJlX2Zhc3QpXQ==
        >
        E 0 90 0e 60
        <X 60 0
          /wFbbGlnaHRpbmcgKGZsYXJlX2Zhc3QpXQ==
        >
        E 0 80 0e 00
        <X 60 0
          /wFbbGlnaHRpbmcgKGJsYWNrb3V0X2Zhc3QpXQ==
        >
        E 0 90 11 60
        <X 60 0
          /wFbbGlnaHRpbmcgKGJsYWNrb3V0X2Zhc3QpXQ==
        >
        E 0 80 11 00
        <X 60 0
          /wFbbGlnaHRpbmcgKGZsYXJlX2Zhc3QpXQ==
        >
        E 0 90 0e 60
        <X 240 0
          /wFbbGlnaHRpbmcgKGZsYXJlX2Zhc3QpXQ==
        >
        E 0 80 0e 00
        <X 480 0
          /wFbbGlnaHRpbmcgKGJsYWNrb3V0X3Nsb3cpXQ==
        >
        E 0 90 12 60
        <X 600 0
          /wFbbGlnaHRpbmcgKGJsYWNrb3V0X3Nsb3cpXQ==
        >
        E 0 80 12 00
        <X 120 0
          /wFbbGlnaHRpbmcgKGZsYXJlX2Zhc3QpXQ==
        >
        E 0 90 0e 60
        <X 60 0
          /wFbbGlnaHRpbmcgKGZsYXJlX2Zhc3QpXQ==
        >
        E 0 80 0e 00
        <X 60 0
          /wFbbGlnaHRpbmcgKGJsYWNrb3V0X2Zhc3QpXQ==
        >
        E 0 90 11 60
        <X 60 0
          /wFbbGlnaHRpbmcgKGJsYWNrb3V0X2Zhc3QpXQ==
        >
        E 0 80 11 00
        <X 60 0
          /wFbbGlnaHRpbmcgKGZsYXJlX2Zhc3QpXQ==
        >
        E 0 90 0e 60
        <X 60 0
          /wFbbGlnaHRpbmcgKGZsYXJlX2Zhc3QpXQ==
        >
        E 0 80 0e 00
        <X 60 0
          /wFbbGlnaHRpbmcgKGJsYWNrb3V0X2Zhc3QpXQ==
        >
        E 0 90 11 60
        <X 60 0
          /wFbbGlnaHRpbmcgKGJsYWNrb3V0X2Zhc3QpXQ==
        >
        E 0 80 11 00
        <X 60 0
          /wFbbGlnaHRpbmcgKGZsYXJlX2Zhc3QpXQ==
        >
        E 0 90 0e 60
        <X 240 0
          /wFbbGlnaHRpbmcgKGZsYXJlX2Zhc3QpXQ==
        >
        E 0 80 0e 00
        <X 480 0
          /wFbbGlnaHRpbmcgKGJsYWNrb3V0X3Nsb3cpXQ==
        >
        E 0 90 12 60
        <X 600 0
          /wFbbGlnaHRpbmcgKGJsYWNrb3V0X3Nsb3cpXQ==
        >
        E 0 80 12 00
        <X 120 0
          /wFbbGlnaHRpbmcgKGZsYXJlX2Zhc3QpXQ==
        >
        E 0 90 0e 60
        <X 60 0
          /wFbbGlnaHRpbmcgKGZsYXJlX2Zhc3QpXQ==
        >
        E 0 80 0e 00
        <X 60 0
          /wFbbGlnaHRpbmcgKGJsYWNrb3V0X2Zhc3QpXQ==
        >
        E 0 90 11 60
        <X 60 0
          /wFbbGlnaHRpbmcgKGJsYWNrb3V0X2Zhc3QpXQ==
        >
        E 0 80 11 00
        <X 60 0
          /wFbbGlnaHRpbmcgKGZsYXJlX2Zhc3QpXQ==
        >
        E 0 90 0e 60
        <X 60 0
          /wFbbGlnaHRpbmcgKGZsYXJlX2Zhc3QpXQ==
        >
        E 0 80 0e 00
        <X 60 0
          /wFbbGlnaHRpbmcgKGJsYWNrb3V0X2Zhc3QpXQ==
        >
        E 0 90 11 60
        <X 60 0
          /wFbbGlnaHRpbmcgKGJsYWNrb3V0X2Zhc3QpXQ==
        >
        E 0 80 11 00
        <X 60 0
          /wFbbGlnaHRpbmcgKGZsYXJlX2Zhc3QpXQ==
        >
        E 0 90 0e 60
        <X 240 0
          /wFbbGlnaHRpbmcgKGZsYXJlX2Zhc3QpXQ==
        >
        E 0 80 0e 00
        <X 480 0
          /wFbbGlnaHRpbmcgKGJsYWNrb3V0X3Nsb3cpXQ==
        >
        E 0 90 12 60
        <X 600 0
          /wFbbGlnaHRpbmcgKGJsYWNrb3V0X3Nsb3cpXQ==
        >
        E 0 80 12 00
        <X 120 0
          /wFbbGlnaHRpbmcgKGZsYXJlX2Zhc3QpXQ==
        >
        E 0 90 0e 60
        <X 60 0
          /wFbbGlnaHRpbmcgKGZsYXJlX2Zhc3QpXQ==
        >
        E 0 80 0e 00
        <X 60 0
          /wFbbGlnaHRpbmcgKGJsYWNrb3V0X2Zhc3QpXQ==
        >
        E 0 90 11 60
        <X 60 0
          /wFbbGlnaHRpbmcgKGJsYWNrb3V0X2Zhc3QpXQ==
        >
        E 0 80 11 00
        <X 60 0
          /wFbbGlnaHRpbmcgKGZsYXJlX2Zhc3QpXQ==
        >
        E 0 90 0e 60
        <X 60 0
          /wFbbGlnaHRpbmcgKGZsYXJlX2Zhc3QpXQ==
        >
        E 0 80 0e 00
        <X 60 0
          /wFbbGlnaHRpbmcgKGJsYWNrb3V0X2Zhc3QpXQ==
        >
        E 0 90 11 60
        <X 60 0
          /wFbbGlnaHRpbmcgKGJsYWNrb3V0X2Zhc3QpXQ==
        >
        E 0 80 11 00
        <X 60 0
          /wFbbGlnaHRpbmcgKGZsYXJlX2Zhc3QpXQ==
        >
        E 0 90 0e 60
        <X 240 0
          /wFbbGlnaHRpbmcgKGZsYXJlX2Zhc3QpXQ==
        >
        E 0 80 0e 00
        <X 480 0
          /wFbbGlnaHRpbmcgKGJsYWNrb3V0X3Nsb3cpXQ==
        >
        E 0 90 12 60
        <X 600 0
          /wFbbGlnaHRpbmcgKGJsYWNrb3V0X3Nsb3cpXQ==
        >
        E 0 80 12 00
        <X 120 0
          /wFbbGlnaHRpbmcgKGZsYXJlX2Zhc3QpXQ==
        >
        E 0 90 0e 60
        <X 60 0
          /wFbbGlnaHRpbmcgKGZsYXJlX2Zhc3QpXQ==
        >
        E 0 80 0e 00
        <X 60 0
          /wFbbGlnaHRpbmcgKGJsYWNrb3V0X2Zhc3QpXQ==
        >
        E 0 90 11 60
        <X 60 0
          /wFbbGlnaHRpbmcgKGJsYWNrb3V0X2Zhc3QpXQ==
        >
        E 0 80 11 00
        <X 60 0
          /wFbbGlnaHRpbmcgKGZsYXJlX2Zhc3QpXQ==
        >
        E 0 90 0e 60
        <X 60 0
          /wFbbGlnaHRpbmcgKGZsYXJlX2Zhc3QpXQ==
        >
        E 0 80 0e 00
        <X 60 0
          /wFbbGlnaHRpbmcgKGJsYWNrb3V0X2Zhc3QpXQ==
        >
        E 0 90 11 60
        <X 60 0
          /wFbbGlnaHRpbmcgKGJsYWNrb3V0X2Zhc3QpXQ==
        >
        E 0 80 11 00
        <X 60 0
          /wFbbGlnaHRpbmcgKGZsYXJlX2Zhc3QpXQ==
        >
        E 0 90 0e 60
        <X 240 0
          /wFbbGlnaHRpbmcgKGZsYXJlX2Zhc3QpXQ==
        >
        E 0 80 0e 00
        <X 480 0
          /wFbbGlnaHRpbmcgKGJsYWNrb3V0X3Nsb3cpXQ==
        >
        E 0 90 12 60
        <X 600 0
          /wFbbGlnaHRpbmcgKGJsYWNrb3V0X3Nsb3cpXQ==
        >
        E 0 80 12 00
        <X 120 0
          /wFbbGlnaHRpbmcgKGZsYXJlX2Zhc3QpXQ==
        >
        E 0 90 0e 60
        <X 60 0
          /wFbbGlnaHRpbmcgKGZsYXJlX2Zhc3QpXQ==
        >
        E 0 80 0e 00
        <X 60 0
          /wFbbGlnaHRpbmcgKGJsYWNrb3V0X2Zhc3QpXQ==
        >
        E 0 90 11 60
        <X 60 0
          /wFbbGlnaHRpbmcgKGJsYWNrb3V0X2Zhc3QpXQ==
        >
        E 0 80 11 00
        <X 60 0
          /wFbbGlnaHRpbmcgKGZsYXJlX2Zhc3QpXQ==
        >
        E 0 90 0e 60
        <X 60 0
          /wFbbGlnaHRpbmcgKGZsYXJlX2Zhc3QpXQ==
        >
        E 0 80 0e 00
        <X 60 0
          /wFbbGlnaHRpbmcgKGJsYWNrb3V0X2Zhc3QpXQ==
        >
        E 0 90 11 60
        <X 60 0
          /wFbbGlnaHRpbmcgKGJsYWNrb3V0X2Zhc3QpXQ==
        >
        E 0 80 11 00
        <X 60 0
          /wFbbGlnaHRpbmcgKGZsYXJlX2Zhc3QpXQ==
        >
        E 0 90 0e 60
        <X 240 0
          /wFbbGlnaHRpbmcgKGZsYXJlX2Zhc3QpXQ==
        >
        E 0 80 0e 00
        <X 480 0
          /wFbbGlnaHRpbmcgKGJsYWNrb3V0X3Nsb3cpXQ==
        >
        E 0 90 12 60
        <X 600 0
          /wFbbGlnaHRpbmcgKGJsYWNrb3V0X3Nsb3cpXQ==
        >
        E 0 80 12 00
        <X 120 0
          /wFbbGlnaHRpbmcgKGZsYXJlX2Zhc3QpXQ==
        >
        E 0 90 0e 60
        <X 60 0
          /wFbbGlnaHRpbmcgKGZsYXJlX2Zhc3QpXQ==
        >
        E 0 80 0e 00
        <X 60 0
          /wFbbGlnaHRpbmcgKGJsYWNrb3V0X2Zhc3QpXQ==
        >
        E 0 90 11 60
        <X 60 0
          /wFbbGlnaHRpbmcgKGJsYWNrb3V0X2Zhc3QpXQ==
        >
        E 0 80 11 00
        <X 60 0
          /wFbbGlnaHRpbmcgKGZsYXJlX2Zhc3QpXQ==
        >
        E 0 90 0e 60
        <X 60 0
          /wFbbGlnaHRpbmcgKGZsYXJlX2Zhc3QpXQ==
        >
        E 0 80 0e 00
        <X 60 0
          /wFbbGlnaHRpbmcgKGJsYWNrb3V0X2Zhc3QpXQ==
        >
        E 0 90 11 60
        <X 60 0
          /wFbbGlnaHRpbmcgKGJsYWNrb3V0X2Zhc3QpXQ==
        >
        E 0 80 11 00
        <X 60 0
          /wFbbGlnaHRpbmcgKGZsYXJlX2Zhc3QpXQ==
        >
        E 0 90 0e 60
        <X 240 0
          /wFbbGlnaHRpbmcgKGZsYXJlX2Zhc3QpXQ==
        >
        E 0 80 0e 00
        <X 480 0
          /wFbbGlnaHRpbmcgKGJsYWNrb3V0X3Nsb3cpXQ==
        >
        E 0 90 12 60
        <X 600 0
          /wFbbGlnaHRpbmcgKGJsYWNrb3V0X3Nsb3cpXQ==
        >
        E 0 80 12 00
        <X 120 0
          /wFbbGlnaHRpbmcgKGZsYXJlX2Zhc3QpXQ==
        >
        E 0 90 0e 60
        <X 60 0
          /wFbbGlnaHRpbmcgKGZsYXJlX2Zhc3QpXQ==
        >
        E 0 80 0e 00
        <X 60 0
          /wFbbGlnaHRpbmcgKGJsYWNrb3V0X2Zhc3QpXQ==
        >
        E 0 90 11 60
        <X 60 0
          /wFbbGlnaHRpbmcgKGJsYWNrb3V0X2Zhc3QpXQ==
        >
        E 0 80 11 00
        <X 60 0
          /wFbbGlnaHRpbmcgKGZsYXJlX2Zhc3QpXQ==
        >
        E 0 90 0e 60
        <X 60 0
          /wFbbGlnaHRpbmcgKGZsYXJlX2Zhc3QpXQ==
        >
        E 0 80 0e 00
        <X 60 0
          /wFbbGlnaHRpbmcgKGJsYWNrb3V0X2Zhc3QpXQ==
        >
        E 0 90 11 60
        <X 60 0
          /wFbbGlnaHRpbmcgKGJsYWNrb3V0X2Zhc3QpXQ==
        >
        E 0 80 11 00
        <X 60 0
          /wFbbGlnaHRpbmcgKGZsYXJlX2Zhc3QpXQ==
        >
        E 0 90 0e 60
        <X 240 0
          /wFbbGlnaHRpbmcgKGZsYXJlX2Zhc3QpXQ==
        >
        E 0 80 0e 00
        <X 480 0
          /wFbbGlnaHRpbmcgKGJsYWNrb3V0X3Nsb3cpXQ==
        >
        E 0 90 12 60
        <X 600 0
          /wFbbGlnaHRpbmcgKGJsYWNrb3V0X3Nsb3cpXQ==
        >
        E 0 80 12 00
        <X 120 0
          /wFbbGlnaHRpbmcgKGZsYXJlX2Zhc3QpXQ==
        >
        E 0 90 0e 60
        <X 60 0
          /wFbbGlnaHRpbmcgKGZsYXJlX2Zhc3QpXQ==
        >
        E 0 80 0e 00
        <X 60 0
          /wFbbGlnaHRpbmcgKGJsYWNrb3V0X2Zhc3QpXQ==
        >
        E 0 90 11 60
        <X 60 0
          /wFbbGlnaHRpbmcgKGJsYWNrb3V0X2Zhc3QpXQ==
        >
        E 0 80 11 00
        <X 60 0
          /wFbbGlnaHRpbmcgKGZsYXJlX2Zhc3QpXQ==
        >
        E 0 90 0e 60
        <X 60 0
          /wFbbGlnaHRpbmcgKGZsYXJlX2Zhc3QpXQ==
        >
        E 0 80 0e 00
        <X 60 0
          /wFbbGlnaHRpbmcgKGJsYWNrb3V0X2Zhc3QpXQ==
        >
        E 0 90 11 60
        <X 60 0
          /wFbbGlnaHRpbmcgKGJsYWNrb3V0X2Zhc3QpXQ==
        >
        E 0 80 11 00
        <X 60 0
          /wFbbGlnaHRpbmcgKGZsYXJlX2Zhc3QpXQ==
        >
        E 0 90 0e 60
        <X 240 0
          /wFbbGlnaHRpbmcgKGZsYXJlX2Zhc3QpXQ==
        >
        E 0 80 0e 00
        <X 480 0
          /wFbbGlnaHRpbmcgKGJsYWNrb3V0X3Nsb3cpXQ==
        >
        E 0 90 12 60
        <X 600 0
          /wFbbGlnaHRpbmcgKGJsYWNrb3V0X3Nsb3cpXQ==
        >
        E 0 80 12 00
        <X 120 0
          /wFbbGlnaHRpbmcgKGZsYXJlX2Zhc3QpXQ==
        >
        E 0 90 0e 60
        <X 60 0
          /wFbbGlnaHRpbmcgKGZsYXJlX2Zhc3QpXQ==
        >
        E 0 80 0e 00
        <X 60 0
          /wFbbGlnaHRpbmcgKGJsYWNrb3V0X2Zhc3QpXQ==
        >
        E 0 90 11 60
        <X 60 0
          /wFbbGlnaHRpbmcgKGJsYWNrb3V0X2Zhc3QpXQ==
        >
        E 0 80 11 00
        <X 60 0
          /wFbbGlnaHRpbmcgKGZsYXJlX2Zhc3QpXQ==
        >
        E 0 90 0e 60
        <X 60 0
          /wFbbGlnaHRpbmcgKGZsYXJlX2Zhc3QpXQ==
        >
        E 0 80 0e 00
        <X 60 0
          /wFbbGlnaHRpbmcgKGJsYWNrb3V0X2Zhc3QpXQ==
        >
        E 0 90 11 60
        <X 60 0
          /wFbbGlnaHRpbmcgKGJsYWNrb3V0X2Zhc3QpXQ==
        >
        E 0 80 11 00
        <X 60 0
          /wFbbGlnaHRpbmcgKGZsYXJlX2Zhc3QpXQ==
        >
        E 0 90 0e 60
        <X 240 0
          /wFbbGlnaHRpbmcgKGZsYXJlX2Zhc3QpXQ==
        >
        E 0 80 0e 00
        <X 480 0
          /wFbbGlnaHRpbmcgKGJsYWNrb3V0X3Nsb3cpXQ==
        >
        E 0 90 12 60
        <X 600 0
          /wFbbGlnaHRpbmcgKGJsYWNrb3V0X3Nsb3cpXQ==
        >
        E 0 80 12 00
        <X 120 0
          /wFbbGlnaHRpbmcgKGZsYXJlX2Zhc3QpXQ==
        >
        E 0 90 0e 60
        <X 60 0
          /wFbbGlnaHRpbmcgKGZsYXJlX2Zhc3QpXQ==
        >
        E 0 80 0e 00
        <X 60 0
          /wFbbGlnaHRpbmcgKGJsYWNrb3V0X2Zhc3QpXQ==
        >
        E 0 90 11 60
        <X 60 0
          /wFbbGlnaHRpbmcgKGJsYWNrb3V0X2Zhc3QpXQ==
        >
        E 0 80 11 00
        <X 60 0
          /wFbbGlnaHRpbmcgKHNpbGhvdWV0dGVzX3Nwb3QpXQ==
        >
        E 0 90 17 60
        <X 15240 0
          /wFbbGlnaHRpbmcgKHNpbGhvdWV0dGVzX3Nwb3QpXQ==
        >
        E 0 80 17 00
        <X 120 0
          /wFbbGlnaHRpbmcgKGZsYXJlX2Zhc3QpXQ==
        >
        E 0 90 0e 60
        <X 60 0
          /wFbbGlnaHRpbmcgKGZsYXJlX2Zhc3QpXQ==
        >
        E 0 80 0e 00
        <X 60 0
          /wFbbGlnaHRpbmcgKGJsYWNrb3V0X2Zhc3QpXQ==
        >
        E 0 90 11 60
        <X 60 0
          /wFbbGlnaHRpbmcgKGJsYWNrb3V0X2Zhc3QpXQ==
        >
        E 0 80 11 00
        <X 60 0
          /wFbbGlnaHRpbmcgKGZsYXJlX2Zhc3QpXQ==
        >
        E 0 90 0e 60
        <X 240 0
          /wFbbGlnaHRpbmcgKGZsYXJlX2Zhc3QpXQ==
        >
        E 0 80 0e 00
        <X 480 0
          /wFbbGlnaHRpbmcgKGJsYWNrb3V0X3Nsb3cpXQ==
        >
        E 0 90 12 60
        <X 600 0
          /wFbbGlnaHRpbmcgKGJsYWNrb3V0X3Nsb3cpXQ==
        >
        E 0 80 12 00
        <X 120 0
          /wFbbGlnaHRpbmcgKGZsYXJlX2Zhc3QpXQ==
        >
        E 0 90 0e 60
        <X 60 0
          /wFbbGlnaHRpbmcgKGZsYXJlX2Zhc3QpXQ==
        >
        E 0 80 0e 00
        <X 60 0
          /wFbbGlnaHRpbmcgKGJsYWNrb3V0X2Zhc3QpXQ==
        >
        E 0 90 11 60
        <X 60 0
          /wFbbGlnaHRpbmcgKGJsYWNrb3V0X2Zhc3QpXQ==
        >
        E 0 80 11 00
        <X 60 0
          /wFbbGlnaHRpbmcgKGZsYXJlX2Zhc3QpXQ==
        >
        E 0 90 0e 60
        <X 60 0
          /wFbbGlnaHRpbmcgKGZsYXJlX2Zhc3QpXQ==
        >
        E 0 80 0e 00
        <X 60 0
          /wFbbGlnaHRpbmcgKGJsYWNrb3V0X2Zhc3QpXQ==
        >
        E 0 90 11 60
        <X 60 0
          /wFbbGlnaHRpbmcgKGJsYWNrb3V0X2Zhc3QpXQ==
        >
        E 0 80 11 00
        <X 60 0
          /wFbbGlnaHRpbmcgKGZsYXJlX2Zhc3QpXQ==
        >
        E 0 90 0e 60
        <X 240 0
          /wFbbGlnaHRpbmcgKGZsYXJlX2Zhc3QpXQ==
        >
        E 0 80 0e 00
        <X 480 0
          /wFbbGlnaHRpbmcgKGJsYWNrb3V0X3Nsb3cpXQ==
        >
        E 0 90 12 60
        <X 600 0
          /wFbbGlnaHRpbmcgKGJsYWNrb3V0X3Nsb3cpXQ==
        >
        E 0 80 12 00
        <X 120 0
          /wFbbGlnaHRpbmcgKGZsYXJlX2Zhc3QpXQ==
        >
        E 0 90 0e 60
        <X 60 0
          /wFbbGlnaHRpbmcgKGZsYXJlX2Zhc3QpXQ==
        >
        E 0 80 0e 00
        <X 60 0
          /wFbbGlnaHRpbmcgKGJsYWNrb3V0X2Zhc3QpXQ==
        >
        E 0 90 11 60
        <X 60 0
          /wFbbGlnaHRpbmcgKGJsYWNrb3V0X2Zhc3QpXQ==
        >
        E 0 80 11 00
        <X 60 0
          /wFbbGlnaHRpbmcgKGZsYXJlX2Zhc3QpXQ==
        >
        E 0 90 0e 60
        <X 60 0
          /wFbbGlnaHRpbmcgKGZsYXJlX2Zhc3QpXQ==
        >
        E 0 80 0e 00
        <X 60 0
          /wFbbGlnaHRpbmcgKGJsYWNrb3V0X2Zhc3QpXQ==
        >
        E 0 90 11 60
        <X 60 0
          /wFbbGlnaHRpbmcgKGJsYWNrb3V0X2Zhc3QpXQ==
        >
        E 0 80 11 00
        <X 60 0
          /wFbbGlnaHRpbmcgKGZsYXJlX2Zhc3QpXQ==
        >
        E 0 90 0e 60
        <X 240 0
          /wFbbGlnaHRpbmcgKGZsYXJlX2Zhc3QpXQ==
        >
        E 0 80 0e 00
        <X 480 0
          /wFbbGlnaHRpbmcgKGJsYWNrb3V0X3Nsb3cpXQ==
        >
        E 0 90 12 60
        <X 600 0
          /wFbbGlnaHRpbmcgKGJsYWNrb3V0X3Nsb3cpXQ==
        >
        E 0 80 12 00
        <X 120 0
          /wFbbGlnaHRpbmcgKGZsYXJlX2Zhc3QpXQ==
        >
        E 0 90 0e 60
        <X 60 0
          /wFbbGlnaHRpbmcgKGZsYXJlX2Zhc3QpXQ==
        >
        E 0 80 0e 00
        <X 60 0
          /wFbbGlnaHRpbmcgKGJsYWNrb3V0X2Zhc3QpXQ==
        >
        E 0 90 11 60
        <X 60 0
          /wFbbGlnaHRpbmcgKGJsYWNrb3V0X2Zhc3QpXQ==
        >
        E 0 80 11 00
        <X 60 0
          /wFbbGlnaHRpbmcgKGZsYXJlX2Zhc3QpXQ==
        >
        E 0 90 0e 60
        <X 60 0
          /wFbbGlnaHRpbmcgKGZsYXJlX2Zhc3QpXQ==
        >
        E 0 80 0e 00
        <X 60 0
          /wFbbGlnaHRpbmcgKGJsYWNrb3V0X2Zhc3QpXQ==
        >
        E 0 90 11 60
        <X 60 0
          /wFbbGlnaHRpbmcgKGJsYWNrb3V0X2Zhc3QpXQ==
        >
        E 0 80 11 00
        <X 60 0
          /wFbbGlnaHRpbmcgKGZsYXJlX2Zhc3QpXQ==
        >
        E 0 90 0e 60
        <X 240 0
          /wFbbGlnaHRpbmcgKGZsYXJlX2Zhc3QpXQ==
        >
        E 0 80 0e 00
        <X 480 0
          /wFbbGlnaHRpbmcgKGJsYWNrb3V0X3Nsb3cpXQ==
        >
        E 0 90 12 60
        <X 600 0
          /wFbbGlnaHRpbmcgKGJsYWNrb3V0X3Nsb3cpXQ==
        >
        E 0 80 12 00
        <X 120 0
          /wFbbGlnaHRpbmcgKGZsYXJlX2Zhc3QpXQ==
        >
        E 0 90 0e 60
        <X 60 0
          /wFbbGlnaHRpbmcgKGZsYXJlX2Zhc3QpXQ==
        >
        E 0 80 0e 00
        <X 60 0
          /wFbbGlnaHRpbmcgKGJsYWNrb3V0X2Zhc3QpXQ==
        >
        E 0 90 11 60
        <X 60 0
          /wFbbGlnaHRpbmcgKGJsYWNrb3V0X2Zhc3QpXQ==
        >
        E 0 80 11 00
        <X 60 0
          /wFbbGlnaHRpbmcgKGZsYXJlX2Zhc3QpXQ==
        >
        E 0 90 0e 60
        <X 60 0
          /wFbbGlnaHRpbmcgKGZsYXJlX2Zhc3QpXQ==
        >
        E 0 80 0e 00
        <X 60 0
          /wFbbGlnaHRpbmcgKGJsYWNrb3V0X2Zhc3QpXQ==
        >
        E 0 90 11 60
        <X 60 0
          /wFbbGlnaHRpbmcgKGJsYWNrb3V0X2Zhc3QpXQ==
        >
        E 0 80 11 00
        <X 60 0
          /wFbbGlnaHRpbmcgKGZsYXJlX2Zhc3QpXQ==
        >
        E 0 90 0e 60
        <X 240 0
          /wFbbGlnaHRpbmcgKGZsYXJlX2Zhc3QpXQ==
        >
        E 0 80 0e 00
        <X 480 0
          /wFbbGlnaHRpbmcgKGJsYWNrb3V0X3Nsb3cpXQ==
        >
        E 0 90 12 60
        <X 600 0
          /wFbbGlnaHRpbmcgKGJsYWNrb3V0X3Nsb3cpXQ==
        >
        E 0 80 12 00
        <X 120 0
          /wFbbGlnaHRpbmcgKGZsYXJlX2Zhc3QpXQ==
        >
        E 0 90 0e 60
        <X 60 0
          /wFbbGlnaHRpbmcgKGZsYXJlX2Zhc3QpXQ==
        >
        E 0 80 0e 00
        <X 60 0
          /wFbbGlnaHRpbmcgKGJsYWNrb3V0X2Zhc3QpXQ==
        >
        E 0 90 11 60
        <X 60 0
          /wFbbGlnaHRpbmcgKGJsYWNrb3V0X2Zhc3QpXQ==
        >
        E 0 80 11 00
        <X 60 0
          /wFbbGlnaHRpbmcgKGZsYXJlX2Zhc3QpXQ==
        >
        E 0 90 0e 60
        <X 60 0
          /wFbbGlnaHRpbmcgKGZsYXJlX2Zhc3QpXQ==
        >
        E 0 80 0e 00
        <X 60 0
          /wFbbGlnaHRpbmcgKGJsYWNrb3V0X2Zhc3QpXQ==
        >
        E 0 90 11 60
        <X 60 0
          /wFbbGlnaHRpbmcgKGJsYWNrb3V0X2Zhc3QpXQ==
        >
        E 0 80 11 00
        <X 60 0
          /wFbbGlnaHRpbmcgKGZsYXJlX2Zhc3QpXQ==
        >
        E 0 90 0e 60
        <X 240 0
          /wFbbGlnaHRpbmcgKGZsYXJlX2Zhc3QpXQ==
        >
        E 0 80 0e 00
        <X 480 0
          /wFbbGlnaHRpbmcgKGJsYWNrb3V0X3Nsb3cpXQ==
        >
        E 0 90 12 60
        <X 600 0
          /wFbbGlnaHRpbmcgKGJsYWNrb3V0X3Nsb3cpXQ==
        >
        E 0 80 12 00
        <X 120 0
          /wFbbGlnaHRpbmcgKGZsYXJlX2Zhc3QpXQ==
        >
        E 0 90 0e 60
        <X 60 0
          /wFbbGlnaHRpbmcgKGZsYXJlX2Zhc3QpXQ==
        >
        E 0 80 0e 00
        <X 60 0
          /wFbbGlnaHRpbmcgKGJsYWNrb3V0X2Zhc3QpXQ==
        >
        E 0 90 11 60
        <X 60 0
          /wFbbGlnaHRpbmcgKGJsYWNrb3V0X2Zhc3QpXQ==
        >
        E 0 80 11 00
        <X 60 0
          /wFbbGlnaHRpbmcgKGZsYXJlX2Zhc3QpXQ==
        >
        E 0 90 0e 60
        <X 60 0
          /wFbbGlnaHRpbmcgKGZsYXJlX2Zhc3QpXQ==
        >
        E 0 80 0e 00
        <X 60 0
          /wFbbGlnaHRpbmcgKGJsYWNrb3V0X2Zhc3QpXQ==
        >
        E 0 90 11 60
        <X 60 0
          /wFbbGlnaHRpbmcgKGJsYWNrb3V0X2Zhc3QpXQ==
        >
        E 0 80 11 00
        <X 60 0
          /wFbbGlnaHRpbmcgKGZsYXJlX2Zhc3QpXQ==
        >
        E 0 90 0e 60
        <X 240 0
          /wFbbGlnaHRpbmcgKGZsYXJlX2Zhc3QpXQ==
        >
        E 0 80 0e 00
        <X 480 0
          /wFbbGlnaHRpbmcgKGJsYWNrb3V0X3Nsb3cpXQ==
        >
        E 0 90 12 60
        <X 600 0
          /wFbbGlnaHRpbmcgKGJsYWNrb3V0X3Nsb3cpXQ==
        >
        E 0 80 12 00
        <X 120 0
          /wFbbGlnaHRpbmcgKGZsYXJlX2Zhc3QpXQ==
        >
        E 0 90 0e 60
        <X 60 0
          /wFbbGlnaHRpbmcgKGZsYXJlX2Zhc3QpXQ==
        >
        E 0 80 0e 00
        <X 60 0
          /wFbbGlnaHRpbmcgKGJsYWNrb3V0X2Zhc3QpXQ==
        >
        E 0 90 11 60
        <X 60 0
          /wFbbGlnaHRpbmcgKGJsYWNrb3V0X2Zhc3QpXQ==
        >
        E 0 80 11 00
        <X 60 0
          /wFbbGlnaHRpbmcgKGZsYXJlX2Zhc3QpXQ==
        >
        E 0 90 0e 60
        <X 60 0
          /wFbbGlnaHRpbmcgKGZsYXJlX2Zhc3QpXQ==
        >
        E 0 80 0e 00
        <X 60 0
          /wFbbGlnaHRpbmcgKGJsYWNrb3V0X2Zhc3QpXQ==
        >
        E 0 90 11 60
        <X 60 0
          /wFbbGlnaHRpbmcgKGJsYWNrb3V0X2Zhc3QpXQ==
        >
        E 0 80 11 00
        <X 60 0
          /wFbbGlnaHRpbmcgKGZsYXJlX2Zhc3QpXQ==
        >
        E 0 90 0e 60
        <X 240 0
          /wFbbGlnaHRpbmcgKGZsYXJlX2Zhc3QpXQ==
        >
        E 0 80 0e 00
        <X 480 0
          /wFbbGlnaHRpbmcgKGJsYWNrb3V0X3Nsb3cpXQ==
        >
        E 0 90 12 60
        <X 600 0
          /wFbbGlnaHRpbmcgKGJsYWNrb3V0X3Nsb3cpXQ==
        >
        E 0 80 12 00
        <X 120 0
          /wFbbGlnaHRpbmcgKGZsYXJlX2Zhc3QpXQ==
        >
        E 0 90 0e 60
        <X 60 0
          /wFbbGlnaHRpbmcgKGZsYXJlX2Zhc3QpXQ==
        >
        E 0 80 0e 00
        <X 60 0
          /wFbbGlnaHRpbmcgKGJsYWNrb3V0X2Zhc3QpXQ==
        >
        E 0 90 11 60
        <X 60 0
          /wFbbGlnaHRpbmcgKGJsYWNrb3V0X2Zhc3QpXQ==
        >
        E 0 80 11 00
        <X 60 0
          /wFbbGlnaHRpbmcgKGZsYXJlX2Zhc3QpXQ==
        >
        E 0 90 0e 60
        <X 60 0
          /wFbbGlnaHRpbmcgKGZsYXJlX2Zhc3QpXQ==
        >
        E 0 80 0e 00
        <X 60 0
          /wFbbGlnaHRpbmcgKGJsYWNrb3V0X2Zhc3QpXQ==
        >
        E 0 90 11 60
        <X 60 0
          /wFbbGlnaHRpbmcgKGJsYWNrb3V0X2Zhc3QpXQ==
        >
        E 0 80 11 00
        <X 60 0
          /wFbbGlnaHRpbmcgKGZsYXJlX2Zhc3QpXQ==
        >
        E 0 90 0e 60
        <X 240 0
          /wFbbGlnaHRpbmcgKGZsYXJlX2Zhc3QpXQ==
        >
        E 0 80 0e 00
        <X 480 0
          /wFbbGlnaHRpbmcgKGJsYWNrb3V0X3Nsb3cpXQ==
        >
        E 0 90 12 60
        <X 600 0
          /wFbbGlnaHRpbmcgKGJsYWNrb3V0X3Nsb3cpXQ==
        >
        E 0 80 12 00
        <X 120 0
          /wFbbGlnaHRpbmcgKGZsYXJlX2Zhc3QpXQ==
        >
        E 0 90 0e 60
        <X 60 0
          /wFbbGlnaHRpbmcgKGZsYXJlX2Zhc3QpXQ==
        >
        E 0 80 0e 00
        <X 60 0
          /wFbbGlnaHRpbmcgKGJsYWNrb3V0X2Zhc3QpXQ==
        >
        E 0 90 11 60
        <X 60 0
          /wFbbGlnaHRpbmcgKGJsYWNrb3V0X2Zhc3QpXQ==
        >
        E 0 80 11 00
        <X 60 0
          /wFbbGlnaHRpbmcgKGZsYXJlX2Zhc3QpXQ==
        >
        E 0 90 0e 60
        <X 60 0
          /wFbbGlnaHRpbmcgKGZsYXJlX2Zhc3QpXQ==
        >
        E 0 80 0e 00
        <X 60 0
          /wFbbGlnaHRpbmcgKGJsYWNrb3V0X2Zhc3QpXQ==
        >
        E 0 90 11 60
        <X 60 0
          /wFbbGlnaHRpbmcgKGJsYWNrb3V0X2Zhc3QpXQ==
        >
        E 0 80 11 00
        <X 60 0
          /wFbbGlnaHRpbmcgKGZsYXJlX2Zhc3QpXQ==
        >
        E 0 90 0e 60
        <X 240 0
          /wFbbGlnaHRpbmcgKGZsYXJlX2Zhc3QpXQ==
        >
        E 0 80 0e 00
        <X 480 0
          /wFbbGlnaHRpbmcgKGJsYWNrb3V0X3Nsb3cpXQ==
        >
        E 0 90 12 60
        <X 600 0
          /wFbbGlnaHRpbmcgKGJsYWNrb3V0X3Nsb3cpXQ==
        >
        E 0 80 12 00
        <X 120 0
          /wFbbGlnaHRpbmcgKGZsYXJlX2Zhc3QpXQ==
        >
        E 0 90 0e 60
        <X 60 0
          /wFbbGlnaHRpbmcgKGZsYXJlX2Zhc3QpXQ==
        >
        E 0 80 0e 00
        <X 60 0
          /wFbbGlnaHRpbmcgKGJsYWNrb3V0X2Zhc3QpXQ==
        >
        E 0 90 11 60
        <X 60 0
          /wFbbGlnaHRpbmcgKGJsYWNrb3V0X2Zhc3QpXQ==
        >
        E 0 80 11 00
        <X 60 0
          /wFbbGlnaHRpbmcgKGZsYXJlX2Zhc3QpXQ==
        >
        E 0 90 0e 60
        <X 60 0
          /wFbbGlnaHRpbmcgKGZsYXJlX2Zhc3QpXQ==
        >
        E 0 80 0e 00
        <X 60 0
          /wFbbGlnaHRpbmcgKGJsYWNrb3V0X2Zhc3QpXQ==
        >
        E 0 90 11 60
        <X 60 0
          /wFbbGlnaHRpbmcgKGJsYWNrb3V0X2Zhc3QpXQ==
        >
        E 0 80 11 00
        <X 60 0
          /wFbbGlnaHRpbmcgKGZsYXJlX2Zhc3QpXQ==
        >
        E 0 90 0e 60
        <X 240 0
          /wFbbGlnaHRpbmcgKGZsYXJlX2Zhc3QpXQ==
        >
        E 0 80 0e 00
        <X 480 0
          /wFbbGlnaHRpbmcgKGJsYWNrb3V0X3Nsb3cpXQ==
        >
        E 0 90 12 60
        <X 600 0
          /wFbbGlnaHRpbmcgKGJsYWNrb3V0X3Nsb3cpXQ==
        >
        E 0 80 12 00
        <X 120 0
          /wFbbGlnaHRpbmcgKGZsYXJlX2Zhc3QpXQ==
        >
        E 0 90 0e 60
        <X 60 0
          /wFbbGlnaHRpbmcgKGZsYXJlX2Zhc3QpXQ==
        >
        E 0 80 0e 00
        <X 60 0
          /wFbbGlnaHRpbmcgKGJsYWNrb3V0X2Zhc3QpXQ==
        >
        E 0 90 11 60
        <X 60 0
          /wFbbGlnaHRpbmcgKGJsYWNrb3V0X2Zhc3QpXQ==
        >
        E 0 80 11 00
        <X 60 0
          /wFbbGlnaHRpbmcgKGZsYXJlX2Zhc3QpXQ==
        >
        E 0 90 0e 60
        <X 60 0
          /wFbbGlnaHRpbmcgKGZsYXJlX2Zhc3QpXQ==
        >
        E 0 80 0e 00
        <X 60 0
          /wFbbGlnaHRpbmcgKGJsYWNrb3V0X2Zhc3QpXQ==
        >
        E 0 90 11 60
        <X 60 0
          /wFbbGlnaHRpbmcgKGJsYWNrb3V0X2Zhc3QpXQ==
        >
        E 0 80 11 00
        <X 60 0
          /wFbbGlnaHRpbmcgKGZsYXJlX2Zhc3QpXQ==
        >
        E 0 90 0e 60
        <X 240 0
          /wFbbGlnaHRpbmcgKGZsYXJlX2Zhc3QpXQ==
        >
        E 0 80 0e 00
        <X 480 0
          /wFbbGlnaHRpbmcgKGJsYWNrb3V0X3Nsb3cpXQ==
        >
        E 0 90 12 60
        <X 600 0
          /wFbbGlnaHRpbmcgKGJsYWNrb3V0X3Nsb3cpXQ==
        >
        E 0 80 12 00
        <X 120 0
          /wFbbGlnaHRpbmcgKGZsYXJlX2Zhc3QpXQ==
        >
        E 0 90 0e 60
        <X 60 0
          /wFbbGlnaHRpbmcgKGZsYXJlX2Zhc3QpXQ==
        >
        E 0 80 0e 00
        <X 60 0
          /wFbbGlnaHRpbmcgKGJsYWNrb3V0X2Zhc3QpXQ==
        >
        E 0 90 11 60
        <X 60 0
          /wFbbGlnaHRpbmcgKGJsYWNrb3V0X2Zhc3QpXQ==
        >
        E 0 80 11 00
        <X 60 0
          /wFbbGlnaHRpbmcgKGZsYXJlX2Zhc3QpXQ==
        >
        E 0 90 0e 60
        <X 60 0
          /wFbbGlnaHRpbmcgKGZsYXJlX2Zhc3QpXQ==
        >
        E 0 80 0e 00
        <X 60 0
          /wFbbGlnaHRpbmcgKGJsYWNrb3V0X2Zhc3QpXQ==
        >
        E 0 90 11 60
        <X 60 0
          /wFbbGlnaHRpbmcgKGJsYWNrb3V0X2Zhc3QpXQ==
        >
        E 0 80 11 00
        <X 60 0
          /wFbbGlnaHRpbmcgKGZsYXJlX2Zhc3QpXQ==
        >
        E 0 90 0e 60
        <X 240 0
          /wFbbGlnaHRpbmcgKGZsYXJlX2Zhc3QpXQ==
        >
        E 0 80 0e 00
        <X 480 0
          /wFbbGlnaHRpbmcgKGJsYWNrb3V0X3Nsb3cpXQ==
        >
        E 0 90 12 60
        <X 600 0
          /wFbbGlnaHRpbmcgKGJsYWNrb3V0X3Nsb3cpXQ==
        >
        E 0 80 12 00
        <X 120 0
          /wFbbGlnaHRpbmcgKGZsYXJlX2Zhc3QpXQ==
        >
        E 0 90 0e 60
        <X 60 0
          /wFbbGlnaHRpbmcgKGZsYXJlX2Zhc3QpXQ==
        >
        E 0 80 0e 00
        <X 60 0
          /wFbbGlnaHRpbmcgKGJsYWNrb3V0X2Zhc3QpXQ==
        >
        E 0 90 11 60
        <X 60 0
          /wFbbGlnaHRpbmcgKGJsYWNrb3V0X2Zhc3QpXQ==
        >
        E 0 80 11 00
        <X 60 0
          /wFbbGlnaHRpbmcgKGZsYXJlX2Zhc3QpXQ==
        >
        E 0 90 0e 60
        <X 60 0
          /wFbbGlnaHRpbmcgKGZsYXJlX2Zhc3QpXQ==
        >
        E 0 80 0e 00
        <X 60 0
          /wFbbGlnaHRpbmcgKGJsYWNrb3V0X2Zhc3QpXQ==
        >
        E 0 90 11 60
        <X 60 0
          /wFbbGlnaHRpbmcgKGJsYWNrb3V0X2Zhc3QpXQ==
        >
        E 0 80 11 00
        <X 60 0
          /wFbbGlnaHRpbmcgKGZsYXJlX2Zhc3QpXQ==
        >
        E 0 90 0e 60
        <X 240 0
          /wFbbGlnaHRpbmcgKGZsYXJlX2Zhc3QpXQ==
        >
        E 0 80 0e 00
        <X 480 0
          /wFbbGlnaHRpbmcgKGJsYWNrb3V0X3Nsb3cpXQ==
        >
        E 0 90 12 60
        <X 600 0
          /wFbbGlnaHRpbmcgKGJsYWNrb3V0X3Nsb3cpXQ==
        >
        E 0 80 12 00
        <X 120 0
          /wFbbGlnaHRpbmcgKGZsYXJlX2Zhc3QpXQ==
        >
        E 0 90 0e 60
        <X 60 0
          /wFbbGlnaHRpbmcgKGZsYXJlX2Zhc3QpXQ==
        >
        E 0 80 0e 00
        <X 60 0
          /wFbbGlnaHRpbmcgKGJsYWNrb3V0X2Zhc3QpXQ==
        >
        E 0 90 11 60
        <X 60 0
          /wFbbGlnaHRpbmcgKGJsYWNrb3V0X2Zhc3QpXQ==
        >
        E 0 80 11 00
        <X 60 0
          /wFbbGlnaHRpbmcgKGZsYXJlX2Zhc3QpXQ==
        >
        E 0 90 0e 60
        <X 60 0
          /wFbbGlnaHRpbmcgKGZsYXJlX2Zhc3QpXQ==
        >
        E 0 80 0e 00
        <X 60 0
          /wFbbGlnaHRpbmcgKGJsYWNrb3V0X2Zhc3QpXQ==
        >
        E 0 90 11 60
        <X 60 0
          /wFbbGlnaHRpbmcgKGJsYWNrb3V0X2Zhc3QpXQ==
        >
        E 0 80 11 00
        <X 60 0
          /wFbbGlnaHRpbmcgKGZsYXJlX2Zhc3QpXQ==
        >
        E 0 90 0e 60
        <X 240 0
          /wFbbGlnaHRpbmcgKGZsYXJlX2Zhc3QpXQ==
        >
        E 0 80 0e 00
        <X 480 0
          /wFbbGlnaHRpbmcgKGJsYWNrb3V0X3Nsb3cpXQ==
        >
        E 0 90 12 60
        <X 600 0
          /wFbbGlnaHRpbmcgKGJsYWNrb3V0X3Nsb3cpXQ==
        >
        E 0 80 12 00
        <X 120 0
          /wFbbGlnaHRpbmcgKGZsYXJlX2Zhc3QpXQ==
        >
        E 0 90 0e 60
        <X 60 0
          /wFbbGlnaHRpbmcgKGZsYXJlX2Zhc3QpXQ==
        >
        E 0 80 0e 00
        <X 60 0
          /wFbbGlnaHRpbmcgKGJsYWNrb3V0X2Zhc3QpXQ==
        >
        E 0 90 11 60
        <X 60 0
          /wFbbGlnaHRpbmcgKGJsYWNrb3V0X2Zhc3QpXQ==
        >
        E 0 80 11 00
        <X 60 0
          /wFbbGlnaHRpbmcgKGZsYXJlX2Zhc3QpXQ==
        >
        E 0 90 0e 60
        <X 60 0
          /wFbbGlnaHRpbmcgKGZsYXJlX2Zhc3QpXQ==
        >
        E 0 80 0e 00
        <X 60 0
          /wFbbGlnaHRpbmcgKGJsYWNrb3V0X2Zhc3QpXQ==
        >
        E 0 90 11 60
        <X 60 0
          /wFbbGlnaHRpbmcgKGJsYWNrb3V0X2Zhc3QpXQ==
        >
        E 0 80 11 00
        <X 60 0
          /wFbbGlnaHRpbmcgKGZsYXJlX2Zhc3QpXQ==
        >
        E 0 90 0e 60
        <X 240 0
          /wFbbGlnaHRpbmcgKGZsYXJlX2Zhc3QpXQ==
        >
        E 0 80 0e 00
        <X 480 0
          /wFbbGlnaHRpbmcgKGJsYWNrb3V0X3Nsb3cpXQ==
        >
        E 0 90 12 60
        <X 600 0
          /wFbbGlnaHRpbmcgKGJsYWNrb3V0X3Nsb3cpXQ==
        >
        E 0 80 12 00
        <X 120 0
          /wFbbGlnaHRpbmcgKGZsYXJlX2Zhc3QpXQ==
        >
        E 0 90 0e 60
        <X 60 0
          /wFbbGlnaHRpbmcgKGZsYXJlX2Zhc3QpXQ==
        >
        E 0 80 0e 00
        <X 60 0
          /wFbbGlnaHRpbmcgKGJsYWNrb3V0X2Zhc3QpXQ==
        >
        E 0 90 11 60
        <X 60 0
          /wFbbGlnaHRpbmcgKGJsYWNrb3V0X2Zhc3QpXQ==
        >
        E 0 80 11 00
        <X 60 0
          /wFbbGlnaHRpbmcgKHNpbGhvdWV0dGVzX3Nwb3QpXQ==
        >
        E 0 90 17 60
        <X 7200 0
          /wFbZmlsbV9iK3cucHBd
        >
        E 0 80 3f 00
        <X 240 0
          /wFbbGlnaHRpbmcgKHNpbGhvdWV0dGVzX3Nwb3QpXQ==
        >
        E 0 80 17 00
        <X 240 0
          /wFbbGlnaHRpbmcgKGJsYWNrb3V0X2Zhc3QpXQ==
        >
        <X 0 0
          /wFbY29udHJhc3RfYS5wcF0=
        >
        E 0 90 11 60
        E 0 90 3d 60
        E 17280 80 11 00
        E 0 80 3d 00
        E 0 b0 7b 00
        GUID {6422DB00-D97C-4226-8213-713C95993AF3}
        IGNTEMPO 0 120.00000000 4 4
        SRCCOLOR 42
        VELLANE 132 128 128
        COLORMAP "C:\Program Files\REAPER (x64)\Data\color_maps\rockband_guitarbass.png"
        CFGEDITVIEW -5664.000000 9.826728 0 13 0 0 0
        CFGEDIT 1 1 0 1 1 0 1 1 1 1 1 0.12500000 -8 -8 1928 1088 0 2 1 1 0.00000000 0 1 0 0 0.500000 0 0 1.000000 64
        KEYSNAP 0 0 "102034050607" 0 "Major"
        EVTFILTER 0 -1 -1 -1 -1 0 1 0 0 -1.00000000 -1.00000000
      >
    >
  >
  <TRACK '{886DF1D5-3AF3-4600-B83E-C9394B99E6C7}'
    NAME "BEAT"
    PEAKCOL 16576
    BEAT -1
    AUTOMODE 0
    VOLPAN 1.00000000000000 0.00000000000000 -1.00000000000000 -1.00000000000000 1.00000000000000
    MUTESOLO 0 0 0
    IPHASE 0
    ISBUS 0 0
    BUSCOMP 0 0
    SHOWINMIX 1 0.666700 0.500000 1 0.500000 -1 -1 -1
    FREEMODE 0
    SEL 0
    REC 0 0 0 0 0 0 0
    VU 2
    TRACKHEIGHT 0 0
    INQ 0 0 0 0.5000000000 100 0 0 100
    NCHAN 2
    FX 1
    TRACKID {886DF1D5-3AF3-4600-B83E-C9394B99E6C7}
    PERF 0
    MIDIOUT -1
    <MIDINOTENAMES
      0 13 "Up Beats"
      0 12 "Downbeat"
    >
    MAINSEND 1 0
    <FXCHAIN
      SHOW 0
      LASTSEL 0
      DOCKED 0
    >
    <ITEM
      POSITION 0.00000000000000
      SNAPOFFS 0.00000000000000
      LENGTH 163.46881417504329
      LOOP 0
      ALLTAKES 0
      SEL 0
      FADEIN 1 0.000000 0.000000 1 0
      FADEOUT 1 0.000000 0.000000 1 0
      MUTE 0
      IGUID {2568F405-33B3-4035-BC38-9D65E5070987}
      IID 29
      NAME "BEAT"
      VOLPAN 1.000000 0.000000 1.000000 -1.000000
      SOFFS 0.00000000000000 0.00000000000000
      PLAYRATE 1.00000000000000 1 0.00000000000000 -1
      CHANMODE 0
      GUID {2631C9D4-9CDA-46B3-B96C-B6AB8D63DC3C}
      <SOURCE MIDI
        HASDATA 1 480 QN
        POOLEDEVTS {6102993C-C86B-41BC-9FA0-94D0EDA25A6E}
        <X 0 0
          /wNCRUFU
        >
        e 0 96 0c 64
        e 120 86 0c 00
        e 360 96 0d 64
        e 120 86 0d 00
        e 360 96 0d 64
        e 120 86 0d 00
        e 360 96 0d 64
        e 120 86 0d 00
        e 360 96 0c 64
        e 120 86 0c 00
        e 360 96 0d 64
        e 120 86 0d 00
        e 360 96 0d 64
        e 120 86 0d 00
        e 360 96 0d 64
        e 120 86 0d 00
        e 360 96 0c 64
        e 120 86 0c 00
        e 360 96 0d 64
        e 120 86 0d 00
        e 360 96 0d 64
        e 120 86 0d 00
        e 360 96 0d 64
        e 120 86 0d 00
        e 360 96 0c 64
        e 120 86 0c 00
        e 360 96 0d 64
        e 120 86 0d 00
        e 360 96 0d 64
        e 120 86 0d 00
        e 360 96 0d 64
        e 120 86 0d 00
        e 360 96 0c 64
        e 120 86 0c 00
        e 360 96 0d 64
        e 120 86 0d 00
        e 360 96 0d 64
        e 120 86 0d 00
        e 360 96 0d 64
        e 120 86 0d 00
        e 360 96 0c 64
        e 120 86 0c 00
        e 360 96 0d 64
        e 120 86 0d 00
        e 360 96 0d 64
        e 120 86 0d 00
        e 360 96 0d 64
        e 120 86 0d 00
        e 360 96 0c 64
        e 120 86 0c 00
        e 360 96 0d 64
        e 120 86 0d 00
        e 360 96 0d 64
        e 120 86 0d 00
        e 360 96 0d 64
        e 120 86 0d 00
        e 360 96 0c 64
        e 120 86 0c 00
        e 360 96 0d 64
        e 120 86 0d 00
        e 360 96 0d 64
        e 120 86 0d 00
        e 360 96 0d 64
        e 120 86 0d 00
        e 360 96 0c 64
        e 120 86 0c 00
        e 360 96 0d 64
        e 120 86 0d 00
        e 360 96 0d 64
        e 120 86 0d 00
        e 360 96 0d 64
        e 120 86 0d 00
        e 360 96 0c 64
        e 120 86 0c 00
        e 360 96 0d 64
        e 120 86 0d 00
        e 360 96 0d 64
        e 120 86 0d 00
        e 360 96 0d 64
        e 120 86 0d 00
        e 360 96 0c 64
        e 120 86 0c 00
        e 360 96 0d 64
        e 120 86 0d 00
        e 360 96 0d 64
        e 120 86 0d 00
        e 360 96 0d 64
        e 120 86 0d 00
        e 360 96 0c 64
        e 120 86 0c 00
        e 360 96 0d 64
        e 120 86 0d 00
        e 360 96 0d 64
        e 120 86 0d 00
        e 360 96 0d 64
        e 120 86 0d 00
        e 360 96 0c 64
        e 120 86 0c 00
        e 360 96 0d 64
        e 120 86 0d 00
        e 360 96 0d 64
        e 120 86 0d 00
        e 360 96 0d 64
        e 120 86 0d 00
        e 360 96 0c 64
        e 120 86 0c 00
        e 360 96 0d 64
        e 120 86 0d 00
        e 360 96 0d 64
        e 120 86 0d 00
        e 360 96 0d 64
        e 120 86 0d 00
        e 360 96 0c 64
        e 120 86 0c 00
        e 360 96 0d 64
        e 120 86 0d 00
        e 360 96 0d 64
        e 120 86 0d 00
        e 360 96 0d 64
        e 120 86 0d 00
        e 360 96 0c 64
        e 120 86 0c 00
        e 360 96 0d 64
        e 120 86 0d 00
        e 360 96 0d 64
        e 120 86 0d 00
        e 360 96 0d 64
        e 120 86 0d 00
        e 360 96 0c 64
        e 120 86 0c 00
        e 360 96 0d 64
        e 120 86 0d 00
        e 360 96 0d 64
        e 120 86 0d 00
        e 360 96 0d 64
        e 120 86 0d 00
        e 360 96 0c 64
        e 120 86 0c 00
        e 360 96 0d 64
        e 120 86 0d 00
        e 360 96 0d 64
        e 120 86 0d 00
        e 360 96 0d 64
        e 120 86 0d 00
        e 360 96 0c 64
        e 120 86 0c 00
        e 360 96 0d 64
        e 120 86 0d 00
        e 360 96 0d 64
        e 120 86 0d 00
        e 360 96 0d 64
        e 120 86 0d 00
        e 360 96 0c 64
        e 120 86 0c 00
        e 360 96 0d 64
        e 120 86 0d 00
        e 360 96 0d 64
        e 120 86 0d 00
        e 360 96 0d 64
        e 120 86 0d 00
        e 360 96 0c 64
        e 120 86 0c 00
        e 360 96 0d 64
        e 120 86 0d 00
        e 360 96 0d 64
        e 120 86 0d 00
        e 360 96 0d 64
        e 120 86 0d 00
        e 360 96 0c 64
        e 120 86 0c 00
        e 360 96 0d 64
        e 120 86 0d 00
        e 360 96 0d 64
        e 120 86 0d 00
        e 360 96 0d 64
        e 120 86 0d 00
        e 360 96 0c 64
        e 120 86 0c 00
        e 360 96 0d 64
        e 120 86 0d 00
        e 360 96 0d 64
        e 120 86 0d 00
        e 360 96 0d 64
        e 120 86 0d 00
        e 360 96 0c 64
        e 120 86 0c 00
        e 360 96 0d 64
        e 120 86 0d 00
        e 360 96 0d 64
        e 120 86 0d 00
        e 360 96 0d 64
        e 120 86 0d 00
        e 360 96 0c 64
        e 120 86 0c 00
        e 360 96 0d 64
        e 120 86 0d 00
        e 360 96 0d 64
        e 120 86 0d 00
        e 360 96 0d 64
        e 120 86 0d 00
        e 360 96 0c 64
        e 120 86 0c 00
        e 360 96 0d 64
        e 120 86 0d 00
        e 360 96 0d 64
        e 120 86 0d 00
        e 360 96 0d 64
        e 120 86 0d 00
        e 360 96 0c 64
        e 120 86 0c 00
        e 360 96 0d 64
        e 120 86 0d 00
        e 360 96 0d 64
        e 120 86 0d 00
        e 360 96 0d 64
        e 120 86 0d 00
        e 360 96 0c 64
        e 120 86 0c 00
        e 360 96 0d 64
        e 120 86 0d 00
        e 360 96 0d 64
        e 120 86 0d 00
        e 360 96 0d 64
        e 120 86 0d 00
        e 360 96 0c 64
        e 120 86 0c 00
        e 360 96 0d 64
        e 120 86 0d 00
        e 360 96 0d 64
        e 120 86 0d 00
        e 360 96 0d 64
        e 120 86 0d 00
        e 360 96 0c 64
        e 120 86 0c 00
        e 360 96 0d 64
        e 120 86 0d 00
        e 360 96 0d 64
        e 120 86 0d 00
        e 360 96 0d 64
        e 120 86 0d 00
        e 360 96 0c 64
        e 120 86 0c 00
        e 360 96 0d 64
        e 120 86 0d 00
        e 360 96 0d 64
        e 120 86 0d 00
        e 360 96 0d 64
        e 120 86 0d 00
        e 360 96 0c 64
        e 120 86 0c 00
        e 360 96 0d 64
        e 120 86 0d 00
        e 360 96 0d 64
        e 120 86 0d 00
        e 360 96 0d 64
        e 120 86 0d 00
        e 360 96 0c 64
        e 120 86 0c 00
        e 360 96 0d 64
        e 120 86 0d 00
        e 360 96 0d 64
        e 120 86 0d 00
        e 360 96 0d 64
        e 120 86 0d 00
        e 360 96 0c 64
        e 120 86 0c 00
        e 360 96 0d 64
        e 120 86 0d 00
        e 360 96 0d 64
        e 120 86 0d 00
        e 360 96 0d 64
        e 120 86 0d 00
        e 360 96 0c 64
        e 120 86 0c 00
        e 360 96 0d 64
        e 120 86 0d 00
        e 360 96 0d 64
        e 120 86 0d 00
        e 360 96 0d 64
        e 120 86 0d 00
        e 360 96 0c 64
        e 120 86 0c 00
        e 360 96 0d 64
        e 120 86 0d 00
        e 360 96 0d 64
        e 120 86 0d 00
        e 360 96 0d 64
        e 120 86 0d 00
        e 360 96 0c 64
        e 120 86 0c 00
        e 360 96 0d 64
        e 120 86 0d 00
        e 360 96 0d 64
        e 120 86 0d 00
        e 360 96 0d 64
        e 120 86 0d 00
        e 360 96 0c 64
        e 120 86 0c 00
        e 360 96 0d 64
        e 120 86 0d 00
        e 360 96 0d 64
        e 120 86 0d 00
        e 360 96 0d 64
        e 120 86 0d 00
        e 360 96 0c 64
        e 120 86 0c 00
        e 360 96 0d 64
        e 120 86 0d 00
        e 360 96 0d 64
        e 120 86 0d 00
        e 360 96 0d 64
        e 120 86 0d 00
        e 360 96 0c 64
        e 120 86 0c 00
        e 360 96 0d 64
        e 120 86 0d 00
        e 360 96 0d 64
        e 120 86 0d 00
        e 360 96 0d 64
        e 120 86 0d 00
        e 360 96 0c 64
        e 120 86 0c 00
        e 360 96 0d 64
        e 120 86 0d 00
        e 360 96 0d 64
        e 120 86 0d 00
        e 360 96 0d 64
        e 120 86 0d 00
        e 360 96 0c 64
        e 120 86 0c 00
        e 360 96 0d 64
        e 120 86 0d 00
        e 360 96 0d 64
        e 120 86 0d 00
        e 360 96 0d 64
        e 120 86 0d 00
        e 360 96 0c 64
        e 120 86 0c 00
        e 360 96 0d 64
        e 120 86 0d 00
        e 360 96 0d 64
        e 120 86 0d 00
        e 360 96 0d 64
        e 120 86 0d 00
        e 360 96 0c 64
        e 120 86 0c 00
        e 360 96 0d 64
        e 120 86 0d 00
        e 360 96 0d 64
        e 120 86 0d 00
        e 360 96 0d 64
        e 120 86 0d 00
        e 360 96 0c 64
        e 120 86 0c 00
        e 360 96 0d 64
        e 120 86 0d 00
        e 360 96 0d 64
        e 120 86 0d 00
        e 360 96 0d 64
        e 120 86 0d 00
        e 360 96 0c 64
        e 120 86 0c 00
        e 360 96 0d 64
        e 120 86 0d 00
        e 360 96 0d 64
        e 120 86 0d 00
        e 360 96 0d 64
        e 120 86 0d 00
        e 360 96 0c 64
        e 120 86 0c 00
        e 360 96 0d 64
        e 120 86 0d 00
        e 360 96 0d 64
        e 120 86 0d 00
        e 360 96 0d 64
        e 120 86 0d 00
        e 360 96 0c 64
        e 120 86 0c 00
        e 360 96 0d 64
        e 120 86 0d 00
        e 360 96 0d 64
        e 120 86 0d 00
        e 360 96 0d 64
        e 120 86 0d 00
        e 360 96 0c 64
        e 120 86 0c 00
        e 360 96 0d 64
        e 120 86 0d 00
        e 360 96 0d 64
        e 120 86 0d 00
        e 360 96 0d 64
        e 120 86 0d 00
        e 360 96 0c 64
        e 120 86 0c 00
        e 360 96 0d 64
        e 120 86 0d 00
        e 360 96 0d 64
        e 120 86 0d 00
        e 360 96 0d 64
        e 120 86 0d 00
        e 360 96 0c 64
        e 120 86 0c 00
        e 360 96 0d 64
        e 120 86 0d 00
        e 360 96 0d 64
        e 120 86 0d 00
        e 360 96 0d 64
        e 120 86 0d 00
        e 360 96 0c 64
        e 120 86 0c 00
        e 360 96 0d 64
        e 120 86 0d 00
        e 360 96 0d 64
        e 120 86 0d 00
        e 360 96 0d 64
        e 120 86 0d 00
        e 360 96 0c 64
        e 120 86 0c 00
        e 360 96 0d 64
        e 120 86 0d 00
        e 360 96 0d 64
        e 120 86 0d 00
        e 360 96 0d 64
        e 120 86 0d 00
        e 360 96 0c 64
        e 120 86 0c 00
        e 360 96 0d 64
        e 120 86 0d 00
        e 360 96 0d 64
        e 120 86 0d 00
        e 360 96 0d 64
        e 120 86 0d 00
        e 360 96 0c 64
        e 120 86 0c 00
        e 360 96 0d 64
        e 120 86 0d 00
        e 360 96 0d 64
        e 120 86 0d 00
        e 360 96 0d 64
        e 120 86 0d 00
        e 360 96 0c 64
        e 120 86 0c 00
        e 360 96 0d 64
        e 120 86 0d 00
        e 360 96 0d 64
        e 120 86 0d 00
        e 360 96 0d 64
        e 120 86 0d 00
        e 360 96 0c 64
        e 120 86 0c 00
        e 360 96 0d 64
        e 120 86 0d 00
        e 360 96 0d 64
        e 120 86 0d 00
        e 360 96 0d 64
        e 120 86 0d 00
        e 360 96 0c 64
        e 120 86 0c 00
        e 360 96 0d 64
        e 120 86 0d 00
        e 360 96 0d 64
        e 120 86 0d 00
        e 360 96 0d 64
        e 120 86 0d 00
        e 360 96 0c 64
        e 120 86 0c 00
        e 360 96 0d 64
        e 120 86 0d 00
        e 360 96 0d 64
        e 120 86 0d 00
        e 360 96 0d 64
        e 120 86 0d 00
        E 360 b0 7b 00
        GUID {48F30360-2FB1-4EC5-8F8B-D53C010198D0}
        IGNTEMPO 0 120.00000000 4 4
        SRCCOLOR 34
        VELLANE 132 71 60
        COLORMAP "C:\Program Files\REAPER (x64)\Data\color_maps\rockband_guitarbass.png"
        CFGEDITVIEW -7366.912665 6.865074 0 48 0 0 0
        CFGEDIT 1 1 0 1 1 0 1 1 1 1 1 0.06250000 -3 0 1553 884 0 2 1 1 0.00000000 0 1 1 0 0.500000 0 0 1.000000 64
        KEYSNAP 0 7 "102034050607" 0 "Major"
        EVTFILTER 0 -1 -1 -1 -1 0 1 0 0 -1.00000000 -1.00000000
      >
    >
  >
  <TRACK '{C6E05EA3-9B1C-456E-86A8-600CD8F72E1F}'
    NAME "BACKING"
    PEAKCOL 16576
    BEAT -1
    AUTOMODE 0
    VOLPAN 1.00000000000000 0.00000000000000 -1.00000000000000 -1.00000000000000 1.00000000000000
    MUTESOLO 0 0 0
    IPHASE 0
    ISBUS 0 0
    BUSCOMP 0 0
    SHOWINMIX 1 0.666700 0.500000 1 0.500000 -1 -1 -1
    FREEMODE 0
    SEL 0
    REC 0 0 0 0 0 0 0
    VU 2
    TRACKHEIGHT 0 0
    INQ 0 0 0 0.5000000000 100 0 0 100
    NCHAN 2
    FX 1
    TRACKID {C6E05EA3-9B1C-456E-86A8-600CD8F72E1F}
    PERF 0
    MIDIOUT -1
    MAINSEND 1 0
    <ITEM
      POSITION 0.00000000000000
      SNAPOFFS 0.00000000000000
      LENGTH 163.58163265306123
      LOOP 0
      ALLTAKES 0
      SEL 0
      FADEIN 1 0.000000 0.000000 1 0
      FADEOUT 1 0.000000 0.000000 1 0
      MUTE 0
      IGUID {58765994-8B1F-49FF-B01C-69240E990DD5}
      IID 68
      NAME "backing.wav"
      VOLPAN 1.000000 0.000000 1.000000 -1.000000
      SOFFS 0.00000000000000
      PLAYRATE 1.00000000000000 1 0.00000000000000 -1
      CHANMODE 0
      GUID {366BCBA1-BA2A-46BB-BE5F-6836DB7738B2}
      <SOURCE WAVE
        FILE "wav\backing.wav"
      >
    >
  >
  <EXTENSIONS
  >
>
